{
  "jsonPath": "Ambient/Easy Listening/Richard Clayderman/all-by-myself.json",
  "path": "Ambient\\Easy Listening\\Richard Clayderman\\All By Myself.mid",
  "name": "All By Myself",
  "difficulty": "Advanced",
  "bpm": 250,
  "notes": [
    {
      "midi": 53,
      "hit": false,
      "t": 7868.848,
      "d": 327.8686666666672,
      "v": 72
    },
    {
      "midi": 65,
      "hit": false,
      "t": 7868.848,
      "d": 430.3276249999999,
      "v": 89
    },
    {
      "midi": 60,
      "hit": false,
      "t": 7868.848,
      "d": 573.7701666666671,
      "v": 88
    },
    {
      "midi": 53,
      "hit": false,
      "t": 8360.651,
      "d": 409.83583333333445,
      "v": 75
    },
    {
      "midi": 65,
      "hit": false,
      "t": 8852.454000000002,
      "d": 368.8522499999999,
      "v": 80
    },
    {
      "midi": 60,
      "hit": false,
      "t": 8852.454000000002,
      "d": 481.55710416666625,
      "v": 77
    },
    {
      "midi": 53,
      "hit": false,
      "t": 9344.257000000001,
      "d": 440.57352083333353,
      "v": 65
    },
    {
      "midi": 65,
      "hit": false,
      "t": 9836.060000000001,
      "d": 348.36045833333264,
      "v": 74
    },
    {
      "midi": 60,
      "hit": false,
      "t": 9836.060000000001,
      "d": 430.3276249999999,
      "v": 81
    },
    {
      "midi": 53,
      "hit": false,
      "t": 10327.863000000001,
      "d": 327.8686666666672,
      "v": 65
    },
    {
      "midi": 65,
      "hit": false,
      "t": 10819.666000000001,
      "d": 225.40970833333267,
      "v": 83
    },
    {
      "midi": 60,
      "hit": false,
      "t": 10819.666000000001,
      "d": 307.3768749999999,
      "v": 83
    },
    {
      "midi": 53,
      "hit": false,
      "t": 11311.469000000001,
      "d": 194.6720208333336,
      "v": 82
    },
    {
      "midi": 53,
      "hit": false,
      "t": 11803.272,
      "d": 297.1309791666663,
      "v": 79
    },
    {
      "midi": 65,
      "hit": false,
      "t": 11803.272,
      "d": 440.57352083333353,
      "v": 88
    },
    {
      "midi": 60,
      "hit": false,
      "t": 11803.272,
      "d": 502.0488958333335,
      "v": 86
    },
    {
      "midi": 29,
      "hit": false,
      "t": 11803.272,
      "d": 3934.423999999999,
      "v": 99
    },
    {
      "midi": 41,
      "hit": false,
      "t": 11803.272,
      "d": 3934.423999999999,
      "v": 85
    },
    {
      "midi": 53,
      "hit": false,
      "t": 12295.075,
      "d": 901.6388333333325,
      "v": 80
    },
    {
      "midi": 65,
      "hit": false,
      "t": 12786.878,
      "d": 481.55710416666625,
      "v": 93
    },
    {
      "midi": 60,
      "hit": false,
      "t": 12786.878,
      "d": 594.2619583333326,
      "v": 86
    },
    {
      "midi": 53,
      "hit": false,
      "t": 13278.681,
      "d": 850.4093541666662,
      "v": 88
    },
    {
      "midi": 65,
      "hit": false,
      "t": 13770.484,
      "d": 471.3112083333326,
      "v": 86
    },
    {
      "midi": 60,
      "hit": false,
      "t": 13770.484,
      "d": 573.7701666666671,
      "v": 82
    },
    {
      "midi": 53,
      "hit": false,
      "t": 14262.287,
      "d": 860.6552499999998,
      "v": 82
    },
    {
      "midi": 60,
      "hit": false,
      "t": 14754.09,
      "d": 942.6224166666652,
      "v": 82
    },
    {
      "midi": 65,
      "hit": false,
      "t": 14754.09,
      "d": 942.6224166666652,
      "v": 85
    },
    {
      "midi": 53,
      "hit": false,
      "t": 15245.893,
      "d": 481.55710416666625,
      "v": 89
    },
    {
      "midi": 53,
      "hit": false,
      "t": 15737.696,
      "d": 450.81941666666717,
      "v": 82
    },
    {
      "midi": 57,
      "hit": false,
      "t": 15737.696,
      "d": 604.5078541666662,
      "v": 88
    },
    {
      "midi": 60,
      "hit": false,
      "t": 15737.696,
      "d": 645.4914374999989,
      "v": 91
    },
    {
      "midi": 41,
      "hit": false,
      "t": 15737.696,
      "d": 3504.096375000012,
      "v": 93
    },
    {
      "midi": 53,
      "hit": false,
      "t": 16229.499,
      "d": 358.6063541666663,
      "v": 67
    },
    {
      "midi": 65,
      "hit": false,
      "t": 16721.302,
      "d": 399.5899375000008,
      "v": 80
    },
    {
      "midi": 60,
      "hit": false,
      "t": 16721.302,
      "d": 450.819416666669,
      "v": 84
    },
    {
      "midi": 53,
      "hit": false,
      "t": 17213.105000000003,
      "d": 409.83583333333445,
      "v": 67
    },
    {
      "midi": 65,
      "hit": false,
      "t": 17704.908000000003,
      "d": 409.83583333333445,
      "v": 80
    },
    {
      "midi": 60,
      "hit": false,
      "t": 17704.908000000003,
      "d": 481.55710416666625,
      "v": 80
    },
    {
      "midi": 53,
      "hit": false,
      "t": 18196.711000000003,
      "d": 184.42612500000178,
      "v": 61
    },
    {
      "midi": 57,
      "hit": false,
      "t": 18688.514000000006,
      "d": 430.3276250000017,
      "v": 81
    },
    {
      "midi": 60,
      "hit": false,
      "t": 18688.514000000006,
      "d": 440.57352083333535,
      "v": 81
    },
    {
      "midi": 53,
      "hit": false,
      "t": 19180.31700000001,
      "d": 112.70485416666997,
      "v": 72
    },
    {
      "midi": 55,
      "hit": false,
      "t": 19672.120000000014,
      "d": 399.5899375000008,
      "v": 85
    },
    {
      "midi": 58,
      "hit": false,
      "t": 19672.120000000014,
      "d": 635.2455416666671,
      "v": 84
    },
    {
      "midi": 61,
      "hit": false,
      "t": 19672.120000000014,
      "d": 635.2455416666671,
      "v": 87
    },
    {
      "midi": 41,
      "hit": false,
      "t": 19672.120000000014,
      "d": 2684.424708333343,
      "v": 91
    },
    {
      "midi": 55,
      "hit": false,
      "t": 20163.923000000013,
      "d": 225.40970833333267,
      "v": 78
    },
    {
      "midi": 65,
      "hit": false,
      "t": 20655.726000000013,
      "d": 399.5899375000008,
      "v": 91
    },
    {
      "midi": 58,
      "hit": false,
      "t": 20655.726000000013,
      "d": 430.3276250000017,
      "v": 87
    },
    {
      "midi": 61,
      "hit": false,
      "t": 20655.726000000013,
      "d": 430.3276250000017,
      "v": 91
    },
    {
      "midi": 55,
      "hit": false,
      "t": 21147.529000000017,
      "d": 153.68843750000087,
      "v": 72
    },
    {
      "midi": 53,
      "hit": false,
      "t": 21639.332000000017,
      "d": 348.3604583333363,
      "v": 85
    },
    {
      "midi": 57,
      "hit": false,
      "t": 21639.332000000017,
      "d": 655.737333333338,
      "v": 92
    },
    {
      "midi": 60,
      "hit": false,
      "t": 21639.332000000017,
      "d": 676.2291250000053,
      "v": 92
    },
    {
      "midi": 53,
      "hit": false,
      "t": 22131.13500000002,
      "d": 245.90150000000358,
      "v": 65
    },
    {
      "midi": 57,
      "hit": false,
      "t": 22622.938000000024,
      "d": 133.1966458333336,
      "v": 87
    },
    {
      "midi": 60,
      "hit": false,
      "t": 22622.938000000024,
      "d": 153.68843750000087,
      "v": 85
    },
    {
      "midi": 65,
      "hit": false,
      "t": 22622.938000000024,
      "d": 194.6720208333354,
      "v": 87
    },
    {
      "midi": 57,
      "hit": false,
      "t": 23114.741000000027,
      "d": 245.90149999999994,
      "v": 64
    },
    {
      "midi": 57,
      "hit": false,
      "t": 23606.544000000027,
      "d": 399.5899375000008,
      "v": 88
    },
    {
      "midi": 60,
      "hit": false,
      "t": 23606.544000000027,
      "d": 553.2783750000017,
      "v": 93
    },
    {
      "midi": 67,
      "hit": false,
      "t": 23606.544000000027,
      "d": 584.0160625000026,
      "v": 99
    },
    {
      "midi": 51,
      "hit": false,
      "t": 23606.544000000027,
      "d": 1434.4254166666688,
      "v": 101
    },
    {
      "midi": 57,
      "hit": false,
      "t": 24098.347000000027,
      "d": 286.8850833333345,
      "v": 78
    },
    {
      "midi": 67,
      "hit": false,
      "t": 24590.150000000027,
      "d": 409.83583333333445,
      "v": 96
    },
    {
      "midi": 60,
      "hit": false,
      "t": 24590.150000000027,
      "d": 420.0817291666681,
      "v": 92
    },
    {
      "midi": 57,
      "hit": false,
      "t": 25081.95300000003,
      "d": 122.95074999999997,
      "v": 81
    },
    {
      "midi": 66,
      "hit": false,
      "t": 25573.75600000003,
      "d": 553.2783750000017,
      "v": 87
    },
    {
      "midi": 60,
      "hit": false,
      "t": 25573.75600000003,
      "d": 563.5242708333353,
      "v": 87
    },
    {
      "midi": 50,
      "hit": false,
      "t": 25573.75600000003,
      "d": 1885.244833333334,
      "v": 96
    },
    {
      "midi": 57,
      "hit": false,
      "t": 26065.55900000003,
      "d": 266.3932916666672,
      "v": 76
    },
    {
      "midi": 60,
      "hit": false,
      "t": 26557.36200000003,
      "d": 881.1470416666671,
      "v": 91
    },
    {
      "midi": 66,
      "hit": false,
      "t": 26557.36200000003,
      "d": 891.3929375000007,
      "v": 91
    },
    {
      "midi": 57,
      "hit": false,
      "t": 27049.16500000003,
      "d": 379.09814583333355,
      "v": 80
    },
    {
      "midi": 58,
      "hit": false,
      "t": 27540.96800000003,
      "d": 338.11456250000265,
      "v": 82
    },
    {
      "midi": 62,
      "hit": false,
      "t": 27540.96800000003,
      "d": 450.819416666669,
      "v": 87
    },
    {
      "midi": 67,
      "hit": false,
      "t": 27540.96800000003,
      "d": 491.8030000000035,
      "v": 91
    },
    {
      "midi": 43,
      "hit": false,
      "t": 27540.96800000003,
      "d": 1065.5731666666688,
      "v": 87
    },
    {
      "midi": 58,
      "hit": false,
      "t": 28032.771000000033,
      "d": 235.6556041666663,
      "v": 68
    },
    {
      "midi": 58,
      "hit": false,
      "t": 28524.574000000033,
      "d": 276.6391874999972,
      "v": 82
    },
    {
      "midi": 62,
      "hit": false,
      "t": 28524.574000000033,
      "d": 461.065312499999,
      "v": 97
    },
    {
      "midi": 67,
      "hit": false,
      "t": 28524.574000000033,
      "d": 471.3112083333326,
      "v": 94
    },
    {
      "midi": 43,
      "hit": false,
      "t": 29016.377000000033,
      "d": 122.95074999999997,
      "v": 70
    },
    {
      "midi": 58,
      "hit": false,
      "t": 29016.377000000033,
      "d": 153.68843750000087,
      "v": 65
    },
    {
      "midi": 45,
      "hit": false,
      "t": 29262.278500000033,
      "d": 71.7212708333318,
      "v": 59
    },
    {
      "midi": 58,
      "hit": false,
      "t": 29508.180000000033,
      "d": 327.8686666666654,
      "v": 85
    },
    {
      "midi": 61,
      "hit": false,
      "t": 29508.180000000033,
      "d": 512.2947916666672,
      "v": 88
    },
    {
      "midi": 65,
      "hit": false,
      "t": 29508.180000000033,
      "d": 543.032479166668,
      "v": 91
    },
    {
      "midi": 46,
      "hit": false,
      "t": 29508.180000000033,
      "d": 1485.654895833337,
      "v": 94
    },
    {
      "midi": 58,
      "hit": false,
      "t": 29999.983000000033,
      "d": 225.4097083333363,
      "v": 70
    },
    {
      "midi": 61,
      "hit": false,
      "t": 30491.786000000036,
      "d": 338.114562499999,
      "v": 73
    },
    {
      "midi": 65,
      "hit": false,
      "t": 30491.786000000036,
      "d": 348.36045833333264,
      "v": 85
    },
    {
      "midi": 58,
      "hit": false,
      "t": 30983.589000000036,
      "d": 81.96716666666543,
      "v": 51
    },
    {
      "midi": 53,
      "hit": false,
      "t": 31475.392000000036,
      "d": 368.8522499999999,
      "v": 75
    },
    {
      "midi": 65,
      "hit": false,
      "t": 31475.392000000036,
      "d": 450.81941666666535,
      "v": 86
    },
    {
      "midi": 60,
      "hit": false,
      "t": 31475.392000000036,
      "d": 604.5078541666662,
      "v": 85
    },
    {
      "midi": 45,
      "hit": false,
      "t": 31475.392000000036,
      "d": 1434.4254166666651,
      "v": 91
    },
    {
      "midi": 53,
      "hit": false,
      "t": 31967.195000000036,
      "d": 368.8522499999999,
      "v": 66
    },
    {
      "midi": 65,
      "hit": false,
      "t": 32458.998000000036,
      "d": 399.5899375000008,
      "v": 93
    },
    {
      "midi": 60,
      "hit": false,
      "t": 32458.998000000036,
      "d": 450.81941666666535,
      "v": 88
    },
    {
      "midi": 53,
      "hit": false,
      "t": 32950.801000000036,
      "d": 133.1966458333336,
      "v": 73
    },
    {
      "midi": 43,
      "hit": false,
      "t": 33442.604000000036,
      "d": 389.3440416666708,
      "v": 88
    },
    {
      "midi": 53,
      "hit": false,
      "t": 33442.604000000036,
      "d": 409.8358333333381,
      "v": 82
    },
    {
      "midi": 61,
      "hit": false,
      "t": 33442.604000000036,
      "d": 553.278375000009,
      "v": 87
    },
    {
      "midi": 58,
      "hit": false,
      "t": 33442.604000000036,
      "d": 573.7701666666762,
      "v": 77
    },
    {
      "midi": 53,
      "hit": false,
      "t": 33934.40700000004,
      "d": 163.93433333333815,
      "v": 71
    },
    {
      "midi": 58,
      "hit": false,
      "t": 34426.21000000005,
      "d": 963.1142083333325,
      "v": 77
    },
    {
      "midi": 40,
      "hit": false,
      "t": 34426.21000000005,
      "d": 973.3601041666625,
      "v": 91
    },
    {
      "midi": 60,
      "hit": false,
      "t": 34426.21000000005,
      "d": 973.3601041666625,
      "v": 83
    },
    {
      "midi": 67,
      "hit": false,
      "t": 34426.21000000005,
      "d": 973.3601041666625,
      "v": 78
    },
    {
      "midi": 53,
      "hit": false,
      "t": 35409.81600000004,
      "d": 450.8194166666726,
      "v": 82
    },
    {
      "midi": 57,
      "hit": false,
      "t": 35409.81600000004,
      "d": 604.5078541666735,
      "v": 88
    },
    {
      "midi": 60,
      "hit": false,
      "t": 35409.81600000004,
      "d": 645.491437500008,
      "v": 91
    },
    {
      "midi": 41,
      "hit": false,
      "t": 35409.81600000004,
      "d": 3504.0963749999937,
      "v": 93
    },
    {
      "midi": 53,
      "hit": false,
      "t": 35901.61900000005,
      "d": 358.6063541666663,
      "v": 67
    },
    {
      "midi": 65,
      "hit": false,
      "t": 36393.42200000005,
      "d": 399.5899375000008,
      "v": 80
    },
    {
      "midi": 60,
      "hit": false,
      "t": 36393.42200000005,
      "d": 450.81941666666535,
      "v": 84
    },
    {
      "midi": 53,
      "hit": false,
      "t": 36885.22500000005,
      "d": 409.8358333333308,
      "v": 67
    },
    {
      "midi": 65,
      "hit": false,
      "t": 37377.02800000005,
      "d": 409.8358333333308,
      "v": 80
    },
    {
      "midi": 60,
      "hit": false,
      "t": 37377.02800000005,
      "d": 481.5571041666626,
      "v": 80
    },
    {
      "midi": 53,
      "hit": false,
      "t": 37868.83100000004,
      "d": 184.42612499999814,
      "v": 61
    },
    {
      "midi": 57,
      "hit": false,
      "t": 38360.63400000004,
      "d": 430.3276249999981,
      "v": 81
    },
    {
      "midi": 60,
      "hit": false,
      "t": 38360.63400000004,
      "d": 440.5735208333281,
      "v": 81
    },
    {
      "midi": 53,
      "hit": false,
      "t": 38852.437000000034,
      "d": 112.70485416666634,
      "v": 72
    },
    {
      "midi": 55,
      "hit": false,
      "t": 39344.240000000034,
      "d": 399.5899375000008,
      "v": 85
    },
    {
      "midi": 58,
      "hit": false,
      "t": 39344.240000000034,
      "d": 635.2455416666635,
      "v": 84
    },
    {
      "midi": 61,
      "hit": false,
      "t": 39344.240000000034,
      "d": 635.2455416666635,
      "v": 87
    },
    {
      "midi": 41,
      "hit": false,
      "t": 39344.240000000034,
      "d": 2684.424708333325,
      "v": 91
    },
    {
      "midi": 55,
      "hit": false,
      "t": 39836.043000000034,
      "d": 225.40970833333267,
      "v": 78
    },
    {
      "midi": 65,
      "hit": false,
      "t": 40327.846000000034,
      "d": 399.5899375000008,
      "v": 91
    },
    {
      "midi": 58,
      "hit": false,
      "t": 40327.846000000034,
      "d": 430.3276249999981,
      "v": 87
    },
    {
      "midi": 61,
      "hit": false,
      "t": 40327.846000000034,
      "d": 430.3276249999981,
      "v": 91
    },
    {
      "midi": 55,
      "hit": false,
      "t": 40819.649000000034,
      "d": 153.68843750000087,
      "v": 72
    },
    {
      "midi": 53,
      "hit": false,
      "t": 41311.452000000034,
      "d": 348.360458333329,
      "v": 85
    },
    {
      "midi": 57,
      "hit": false,
      "t": 41311.452000000034,
      "d": 655.7373333333235,
      "v": 92
    },
    {
      "midi": 60,
      "hit": false,
      "t": 41311.452000000034,
      "d": 676.2291249999907,
      "v": 92
    },
    {
      "midi": 53,
      "hit": false,
      "t": 41803.25500000003,
      "d": 245.90149999999994,
      "v": 65
    },
    {
      "midi": 57,
      "hit": false,
      "t": 42295.05800000003,
      "d": 133.1966458333336,
      "v": 87
    },
    {
      "midi": 60,
      "hit": false,
      "t": 42295.05800000003,
      "d": 153.68843750000087,
      "v": 85
    },
    {
      "midi": 65,
      "hit": false,
      "t": 42295.05800000003,
      "d": 194.6720208333354,
      "v": 87
    },
    {
      "midi": 57,
      "hit": false,
      "t": 42786.861000000026,
      "d": 245.90149999999994,
      "v": 64
    },
    {
      "midi": 57,
      "hit": false,
      "t": 43278.664000000026,
      "d": 399.5899375000008,
      "v": 88
    },
    {
      "midi": 60,
      "hit": false,
      "t": 43278.664000000026,
      "d": 553.2783750000017,
      "v": 93
    },
    {
      "midi": 67,
      "hit": false,
      "t": 43278.664000000026,
      "d": 584.016062499999,
      "v": 99
    },
    {
      "midi": 51,
      "hit": false,
      "t": 43278.664000000026,
      "d": 1434.4254166666578,
      "v": 101
    },
    {
      "midi": 57,
      "hit": false,
      "t": 43770.467000000026,
      "d": 286.8850833333345,
      "v": 78
    },
    {
      "midi": 67,
      "hit": false,
      "t": 44262.270000000026,
      "d": 409.8358333333308,
      "v": 96
    },
    {
      "midi": 60,
      "hit": false,
      "t": 44262.270000000026,
      "d": 420.0817291666608,
      "v": 92
    },
    {
      "midi": 57,
      "hit": false,
      "t": 44754.07300000002,
      "d": 122.95075000000361,
      "v": 81
    },
    {
      "midi": 66,
      "hit": false,
      "t": 45245.876000000026,
      "d": 553.2783750000017,
      "v": 87
    },
    {
      "midi": 60,
      "hit": false,
      "t": 45245.876000000026,
      "d": 563.5242708333317,
      "v": 87
    },
    {
      "midi": 50,
      "hit": false,
      "t": 45245.876000000026,
      "d": 1885.2448333333232,
      "v": 96
    },
    {
      "midi": 57,
      "hit": false,
      "t": 45737.679000000026,
      "d": 266.3932916666672,
      "v": 76
    },
    {
      "midi": 60,
      "hit": false,
      "t": 46229.482000000025,
      "d": 881.1470416666634,
      "v": 91
    },
    {
      "midi": 66,
      "hit": false,
      "t": 46229.482000000025,
      "d": 891.3929374999934,
      "v": 91
    },
    {
      "midi": 57,
      "hit": false,
      "t": 46721.285000000025,
      "d": 379.09814583333355,
      "v": 80
    },
    {
      "midi": 58,
      "hit": false,
      "t": 47213.08800000002,
      "d": 338.114562499999,
      "v": 82
    },
    {
      "midi": 62,
      "hit": false,
      "t": 47213.08800000002,
      "d": 450.81941666666535,
      "v": 87
    },
    {
      "midi": 67,
      "hit": false,
      "t": 47213.08800000002,
      "d": 491.8029999999999,
      "v": 91
    },
    {
      "midi": 43,
      "hit": false,
      "t": 47213.08800000002,
      "d": 1065.5731666666688,
      "v": 87
    },
    {
      "midi": 58,
      "hit": false,
      "t": 47704.89100000002,
      "d": 235.65560416666995,
      "v": 68
    },
    {
      "midi": 58,
      "hit": false,
      "t": 48196.69400000002,
      "d": 276.6391875000045,
      "v": 82
    },
    {
      "midi": 62,
      "hit": false,
      "t": 48196.69400000002,
      "d": 461.0653125000026,
      "v": 97
    },
    {
      "midi": 67,
      "hit": false,
      "t": 48196.69400000002,
      "d": 471.3112083333326,
      "v": 94
    },
    {
      "midi": 43,
      "hit": false,
      "t": 48688.49700000002,
      "d": 122.95075000000361,
      "v": 70
    },
    {
      "midi": 58,
      "hit": false,
      "t": 48688.49700000002,
      "d": 153.68843750000087,
      "v": 65
    },
    {
      "midi": 45,
      "hit": false,
      "t": 48934.39850000002,
      "d": 71.7212708333318,
      "v": 59
    },
    {
      "midi": 58,
      "hit": false,
      "t": 49180.30000000002,
      "d": 327.86866666666174,
      "v": 85
    },
    {
      "midi": 61,
      "hit": false,
      "t": 49180.30000000002,
      "d": 512.2947916666599,
      "v": 88
    },
    {
      "midi": 65,
      "hit": false,
      "t": 49180.30000000002,
      "d": 543.0324791666571,
      "v": 91
    },
    {
      "midi": 46,
      "hit": false,
      "t": 49180.30000000002,
      "d": 1485.654895833315,
      "v": 94
    },
    {
      "midi": 58,
      "hit": false,
      "t": 49672.10300000001,
      "d": 225.40970833333267,
      "v": 70
    },
    {
      "midi": 61,
      "hit": false,
      "t": 50163.90600000001,
      "d": 338.114562499999,
      "v": 73
    },
    {
      "midi": 65,
      "hit": false,
      "t": 50163.90600000001,
      "d": 348.360458333329,
      "v": 85
    },
    {
      "midi": 58,
      "hit": false,
      "t": 50655.709,
      "d": 81.9671666666618,
      "v": 51
    },
    {
      "midi": 53,
      "hit": false,
      "t": 51147.512,
      "d": 368.85225000000355,
      "v": 87
    },
    {
      "midi": 57,
      "hit": false,
      "t": 51147.512,
      "d": 379.09814583333355,
      "v": 88
    },
    {
      "midi": 60,
      "hit": false,
      "t": 51147.512,
      "d": 409.8358333333308,
      "v": 91
    },
    {
      "midi": 45,
      "hit": false,
      "t": 51147.512,
      "d": 1434.4254166666724,
      "v": 103
    },
    {
      "midi": 65,
      "hit": false,
      "t": 52131.118,
      "d": 368.85225000000355,
      "v": 88
    },
    {
      "midi": 72,
      "hit": false,
      "t": 52131.118,
      "d": 522.5406875000044,
      "v": 93
    },
    {
      "midi": 75,
      "hit": false,
      "t": 52131.118,
      "d": 532.7865833333344,
      "v": 95
    },
    {
      "midi": 65,
      "hit": false,
      "t": 52622.92100000001,
      "d": 143.4425416666636,
      "v": 68
    },
    {
      "midi": 66,
      "hit": false,
      "t": 53114.724,
      "d": 389.34404166666354,
      "v": 94
    },
    {
      "midi": 74,
      "hit": false,
      "t": 53114.724,
      "d": 481.5571041666626,
      "v": 100
    },
    {
      "midi": 50,
      "hit": false,
      "t": 53114.724,
      "d": 1270.491083333327,
      "v": 96
    },
    {
      "midi": 66,
      "hit": false,
      "t": 53606.526999999995,
      "d": 174.18022916666814,
      "v": 69
    },
    {
      "midi": 72,
      "hit": false,
      "t": 54098.329999999994,
      "d": 204.9179166666654,
      "v": 110
    },
    {
      "midi": 62,
      "hit": false,
      "t": 54590.132999999994,
      "d": 184.42612499999814,
      "v": 44
    },
    {
      "midi": 62,
      "hit": false,
      "t": 55081.935999999994,
      "d": 399.5899375000008,
      "v": 94
    },
    {
      "midi": 65,
      "hit": false,
      "t": 55081.935999999994,
      "d": 532.7865833333344,
      "v": 98
    },
    {
      "midi": 67,
      "hit": false,
      "t": 55081.935999999994,
      "d": 532.7865833333344,
      "v": 98
    },
    {
      "midi": 71,
      "hit": false,
      "t": 55081.935999999994,
      "d": 594.2619583333362,
      "v": 95
    },
    {
      "midi": 43,
      "hit": false,
      "t": 55081.935999999994,
      "d": 676.2291250000053,
      "v": 109
    },
    {
      "midi": 62,
      "hit": false,
      "t": 55573.738999999994,
      "d": 163.93433333333815,
      "v": 73
    },
    {
      "midi": 49,
      "hit": false,
      "t": 56065.542,
      "d": 358.6063541666663,
      "v": 94
    },
    {
      "midi": 65,
      "hit": false,
      "t": 56065.542,
      "d": 358.6063541666663,
      "v": 94
    },
    {
      "midi": 67,
      "hit": false,
      "t": 56065.542,
      "d": 758.1962916666671,
      "v": 106
    },
    {
      "midi": 70,
      "hit": false,
      "t": 56065.542,
      "d": 768.4421874999971,
      "v": 87
    },
    {
      "midi": 61,
      "hit": false,
      "t": 56557.345,
      "d": 368.8522499999963,
      "v": 82
    },
    {
      "midi": 60,
      "hit": false,
      "t": 57049.148,
      "d": 409.8358333333308,
      "v": 97
    },
    {
      "midi": 67,
      "hit": false,
      "t": 57049.148,
      "d": 922.130624999998,
      "v": 95
    },
    {
      "midi": 70,
      "hit": false,
      "t": 57049.148,
      "d": 922.130624999998,
      "v": 94
    },
    {
      "midi": 48,
      "hit": false,
      "t": 57049.148,
      "d": 1967.2119999999995,
      "v": 87
    },
    {
      "midi": 60,
      "hit": false,
      "t": 57540.951,
      "d": 1475.4089999999997,
      "v": 87
    },
    {
      "midi": 70,
      "hit": false,
      "t": 58032.754,
      "d": 491.8029999999999,
      "v": 87
    },
    {
      "midi": 67,
      "hit": false,
      "t": 58032.754,
      "d": 983.6059999999998,
      "v": 91
    },
    {
      "midi": 69,
      "hit": false,
      "t": 58524.557,
      "d": 491.8029999999999,
      "v": 87
    },
    {
      "midi": 53,
      "hit": false,
      "t": 59016.36,
      "d": 399.5899375000008,
      "v": 120
    },
    {
      "midi": 57,
      "hit": false,
      "t": 59016.36,
      "d": 573.770166666669,
      "v": 123
    },
    {
      "midi": 60,
      "hit": false,
      "t": 59016.36,
      "d": 614.7537500000035,
      "v": 118
    },
    {
      "midi": 29,
      "hit": false,
      "t": 59016.36,
      "d": 1198.7698125000097,
      "v": 113
    },
    {
      "midi": 41,
      "hit": false,
      "t": 59016.36,
      "d": 1229.507500000007,
      "v": 113
    },
    {
      "midi": 53,
      "hit": false,
      "t": 59508.163,
      "d": 204.91791666667268,
      "v": 87
    },
    {
      "midi": 53,
      "hit": false,
      "t": 59999.96600000001,
      "d": 409.8358333333308,
      "v": 110
    },
    {
      "midi": 57,
      "hit": false,
      "t": 59999.96600000001,
      "d": 850.4093541666662,
      "v": 118
    },
    {
      "midi": 60,
      "hit": false,
      "t": 59999.96600000001,
      "d": 850.4093541666662,
      "v": 114
    },
    {
      "midi": 29,
      "hit": false,
      "t": 60491.76900000001,
      "d": 327.868666666669,
      "v": 101
    },
    {
      "midi": 41,
      "hit": false,
      "t": 60491.76900000001,
      "d": 348.3604583333363,
      "v": 96
    },
    {
      "midi": 53,
      "hit": false,
      "t": 60491.76900000001,
      "d": 368.8522499999963,
      "v": 81
    },
    {
      "midi": 53,
      "hit": false,
      "t": 60983.57200000001,
      "d": 440.57352083333535,
      "v": 105
    },
    {
      "midi": 57,
      "hit": false,
      "t": 60983.57200000001,
      "d": 768.4421874999971,
      "v": 107
    },
    {
      "midi": 60,
      "hit": false,
      "t": 60983.57200000001,
      "d": 778.6880833333271,
      "v": 107
    },
    {
      "midi": 29,
      "hit": false,
      "t": 60983.57200000001,
      "d": 1014.3436874999898,
      "v": 109
    },
    {
      "midi": 41,
      "hit": false,
      "t": 60983.57200000001,
      "d": 1055.3272708333243,
      "v": 105
    },
    {
      "midi": 53,
      "hit": false,
      "t": 61475.37500000001,
      "d": 286.8850833333272,
      "v": 82
    },
    {
      "midi": 53,
      "hit": false,
      "t": 61967.178,
      "d": 348.360458333329,
      "v": 110
    },
    {
      "midi": 57,
      "hit": false,
      "t": 61967.178,
      "d": 522.5406874999899,
      "v": 118
    },
    {
      "midi": 60,
      "hit": false,
      "t": 61967.178,
      "d": 532.7865833333199,
      "v": 113
    },
    {
      "midi": 53,
      "hit": false,
      "t": 62458.98099999999,
      "d": 81.9671666666618,
      "v": 85
    },
    {
      "midi": 57,
      "hit": false,
      "t": 62950.78399999999,
      "d": 440.57352083333535,
      "v": 111
    },
    {
      "midi": 60,
      "hit": false,
      "t": 62950.78399999999,
      "d": 747.9503958333298,
      "v": 107
    },
    {
      "midi": 64,
      "hit": false,
      "t": 62950.78399999999,
      "d": 758.1962916666598,
      "v": 102
    },
    {
      "midi": 33,
      "hit": false,
      "t": 62950.78399999999,
      "d": 1147.5403333333234,
      "v": 102
    },
    {
      "midi": 45,
      "hit": false,
      "t": 62950.78399999999,
      "d": 1188.523916666658,
      "v": 107
    },
    {
      "midi": 57,
      "hit": false,
      "t": 63442.58699999999,
      "d": 276.63918749998993,
      "v": 86
    },
    {
      "midi": 60,
      "hit": false,
      "t": 63934.389999999985,
      "d": 788.9339791666644,
      "v": 111
    },
    {
      "midi": 57,
      "hit": false,
      "t": 63934.389999999985,
      "d": 799.1798749999944,
      "v": 107
    },
    {
      "midi": 64,
      "hit": false,
      "t": 63934.389999999985,
      "d": 799.1798749999944,
      "v": 111
    },
    {
      "midi": 33,
      "hit": false,
      "t": 64426.192999999985,
      "d": 297.1309791666645,
      "v": 99
    },
    {
      "midi": 45,
      "hit": false,
      "t": 64426.192999999985,
      "d": 327.86866666666174,
      "v": 99
    },
    {
      "midi": 57,
      "hit": false,
      "t": 64917.99599999998,
      "d": 461.0653125000026,
      "v": 107
    },
    {
      "midi": 60,
      "hit": false,
      "t": 64917.99599999998,
      "d": 778.6880833333344,
      "v": 109
    },
    {
      "midi": 64,
      "hit": false,
      "t": 64917.99599999998,
      "d": 799.1798749999944,
      "v": 106
    },
    {
      "midi": 33,
      "hit": false,
      "t": 64917.99599999998,
      "d": 1475.4089999999924,
      "v": 102
    },
    {
      "midi": 45,
      "hit": false,
      "t": 64917.99599999998,
      "d": 1516.392583333327,
      "v": 106
    },
    {
      "midi": 57,
      "hit": false,
      "t": 65409.79899999998,
      "d": 286.8850833333345,
      "v": 77
    },
    {
      "midi": 57,
      "hit": false,
      "t": 65901.60199999997,
      "d": 317.62277083333174,
      "v": 107
    },
    {
      "midi": 60,
      "hit": false,
      "t": 65901.60199999997,
      "d": 522.5406875000044,
      "v": 111
    },
    {
      "midi": 64,
      "hit": false,
      "t": 65901.60199999997,
      "d": 522.5406875000044,
      "v": 109
    },
    {
      "midi": 57,
      "hit": false,
      "t": 66393.40499999997,
      "d": 163.93433333333815,
      "v": 74
    },
    {
      "midi": 60,
      "hit": false,
      "t": 66885.20799999998,
      "d": 655.7373333333235,
      "v": 106
    },
    {
      "midi": 63,
      "hit": false,
      "t": 66885.20799999998,
      "d": 706.966812499988,
      "v": 105
    },
    {
      "midi": 55,
      "hit": false,
      "t": 66885.20799999998,
      "d": 717.212708333318,
      "v": 109
    },
    {
      "midi": 27,
      "hit": false,
      "t": 66885.20799999998,
      "d": 901.6388333333161,
      "v": 90
    },
    {
      "midi": 39,
      "hit": false,
      "t": 66885.20799999998,
      "d": 1004.0977916666452,
      "v": 96
    },
    {
      "midi": 63,
      "hit": false,
      "t": 67868.81399999997,
      "d": 450.81941666666535,
      "v": 107
    },
    {
      "midi": 55,
      "hit": false,
      "t": 67868.81399999997,
      "d": 471.31120833332534,
      "v": 114
    },
    {
      "midi": 60,
      "hit": false,
      "t": 67868.81399999997,
      "d": 471.31120833332534,
      "v": 110
    },
    {
      "midi": 39,
      "hit": false,
      "t": 68360.61699999995,
      "d": 143.4425416666636,
      "v": 87
    },
    {
      "midi": 54,
      "hit": false,
      "t": 68852.41999999994,
      "d": 409.8358333333308,
      "v": 101
    },
    {
      "midi": 60,
      "hit": false,
      "t": 68852.41999999994,
      "d": 614.7537500000035,
      "v": 103
    },
    {
      "midi": 62,
      "hit": false,
      "t": 68852.41999999994,
      "d": 614.7537500000035,
      "v": 106
    },
    {
      "midi": 26,
      "hit": false,
      "t": 68852.41999999994,
      "d": 768.4421874999971,
      "v": 109
    },
    {
      "midi": 38,
      "hit": false,
      "t": 68852.41999999994,
      "d": 819.6716666666616,
      "v": 114
    },
    {
      "midi": 54,
      "hit": false,
      "t": 69344.22299999994,
      "d": 266.3932916666672,
      "v": 79
    },
    {
      "midi": 54,
      "hit": false,
      "t": 69836.02599999994,
      "d": 307.37687500000175,
      "v": 102
    },
    {
      "midi": 62,
      "hit": false,
      "t": 69836.02599999994,
      "d": 358.6063541666663,
      "v": 107
    },
    {
      "midi": 60,
      "hit": false,
      "t": 69836.02599999994,
      "d": 522.5406875000044,
      "v": 102
    },
    {
      "midi": 54,
      "hit": false,
      "t": 70327.82899999994,
      "d": 102.45895833334362,
      "v": 87
    },
    {
      "midi": 50,
      "hit": false,
      "t": 70819.63199999995,
      "d": 389.3440416666708,
      "v": 102
    },
    {
      "midi": 55,
      "hit": false,
      "t": 70819.63199999995,
      "d": 563.524270833339,
      "v": 109
    },
    {
      "midi": 58,
      "hit": false,
      "t": 70819.63199999995,
      "d": 594.2619583333435,
      "v": 105
    },
    {
      "midi": 43,
      "hit": false,
      "t": 70819.63199999995,
      "d": 819.6716666666762,
      "v": 113
    },
    {
      "midi": 50,
      "hit": false,
      "t": 71311.43499999995,
      "d": 204.91791666667268,
      "v": 81
    },
    {
      "midi": 55,
      "hit": false,
      "t": 71803.23799999997,
      "d": 184.42612499999814,
      "v": 105
    },
    {
      "midi": 58,
      "hit": false,
      "t": 71803.23799999997,
      "d": 194.67202083332813,
      "v": 101
    },
    {
      "midi": 41,
      "hit": false,
      "t": 72295.04099999997,
      "d": 40.983583333334536,
      "v": 60
    },
    {
      "midi": 43,
      "hit": false,
      "t": 72295.04099999997,
      "d": 71.72127083333908,
      "v": 68
    },
    {
      "midi": 55,
      "hit": false,
      "t": 72786.84399999997,
      "d": 358.6063541666663,
      "v": 105
    },
    {
      "midi": 46,
      "hit": false,
      "t": 72786.84399999997,
      "d": 471.3112083333399,
      "v": 113
    },
    {
      "midi": 58,
      "hit": false,
      "t": 72786.84399999997,
      "d": 522.5406875000044,
      "v": 115
    },
    {
      "midi": 61,
      "hit": false,
      "t": 72786.84399999997,
      "d": 522.5406875000044,
      "v": 112
    },
    {
      "midi": 55,
      "hit": false,
      "t": 73278.64699999997,
      "d": 102.45895833334362,
      "v": 90
    },
    {
      "midi": 58,
      "hit": false,
      "t": 73770.44999999998,
      "d": 430.32762500000536,
      "v": 105
    },
    {
      "midi": 48,
      "hit": false,
      "t": 73770.44999999998,
      "d": 860.6552499999962,
      "v": 113
    },
    {
      "midi": 52,
      "hit": false,
      "t": 73770.44999999998,
      "d": 860.6552499999962,
      "v": 103
    },
    {
      "midi": 60,
      "hit": false,
      "t": 73770.44999999998,
      "d": 870.9011458333262,
      "v": 110
    },
    {
      "midi": 58,
      "hit": false,
      "t": 74262.25299999998,
      "d": 358.6063541666663,
      "v": 95
    },
    {
      "midi": 53,
      "hit": false,
      "t": 74754.05599999998,
      "d": 399.5899375000008,
      "v": 120
    },
    {
      "midi": 57,
      "hit": false,
      "t": 74754.05599999998,
      "d": 573.770166666669,
      "v": 123
    },
    {
      "midi": 60,
      "hit": false,
      "t": 74754.05599999998,
      "d": 614.7537500000035,
      "v": 118
    },
    {
      "midi": 29,
      "hit": false,
      "t": 74754.05599999998,
      "d": 1198.7698125000024,
      "v": 113
    },
    {
      "midi": 41,
      "hit": false,
      "t": 74754.05599999998,
      "d": 1229.507500000007,
      "v": 113
    },
    {
      "midi": 41,
      "hit": false,
      "t": 74754.056,
      "d": 2561.473958333372,
      "v": 103
    },
    {
      "midi": 48,
      "hit": false,
      "t": 74999.9575,
      "d": 2243.851187500026,
      "v": 111
    },
    {
      "midi": 53,
      "hit": false,
      "t": 75245.85899999998,
      "d": 204.91791666667268,
      "v": 87
    },
    {
      "midi": 55,
      "hit": false,
      "t": 75245.85900000001,
      "d": 81.96716666666907,
      "v": 123
    },
    {
      "midi": 57,
      "hit": false,
      "t": 75491.76050000002,
      "d": 71.72127083333908,
      "v": 114
    },
    {
      "midi": 53,
      "hit": false,
      "t": 75737.66199999998,
      "d": 409.83583333334536,
      "v": 110
    },
    {
      "midi": 57,
      "hit": false,
      "t": 75737.66199999998,
      "d": 850.4093541666662,
      "v": 118
    },
    {
      "midi": 60,
      "hit": false,
      "t": 75737.66199999998,
      "d": 850.4093541666662,
      "v": 114
    },
    {
      "midi": 60,
      "hit": false,
      "t": 75737.66200000003,
      "d": 81.96716666666907,
      "v": 127
    },
    {
      "midi": 29,
      "hit": false,
      "t": 76229.465,
      "d": 327.86866666666174,
      "v": 101
    },
    {
      "midi": 41,
      "hit": false,
      "t": 76229.465,
      "d": 348.36045833332173,
      "v": 96
    },
    {
      "midi": 53,
      "hit": false,
      "t": 76229.465,
      "d": 368.8522499999817,
      "v": 81
    },
    {
      "midi": 53,
      "hit": false,
      "t": 76721.26799999998,
      "d": 440.57352083333535,
      "v": 105
    },
    {
      "midi": 57,
      "hit": false,
      "t": 76721.26799999998,
      "d": 768.4421874999971,
      "v": 107
    },
    {
      "midi": 60,
      "hit": false,
      "t": 76721.26799999998,
      "d": 778.6880833333271,
      "v": 107
    },
    {
      "midi": 29,
      "hit": false,
      "t": 76721.26799999998,
      "d": 1014.3436875000043,
      "v": 109
    },
    {
      "midi": 41,
      "hit": false,
      "t": 76721.26799999998,
      "d": 1055.3272708333388,
      "v": 105
    },
    {
      "midi": 53,
      "hit": false,
      "t": 77213.07099999998,
      "d": 286.8850833333272,
      "v": 82
    },
    {
      "midi": 53,
      "hit": false,
      "t": 77704.87399999998,
      "d": 348.3604583333363,
      "v": 110
    },
    {
      "midi": 57,
      "hit": false,
      "t": 77704.87399999998,
      "d": 522.5406875000044,
      "v": 118
    },
    {
      "midi": 60,
      "hit": false,
      "t": 77704.87399999998,
      "d": 532.7865833333344,
      "v": 113
    },
    {
      "midi": 53,
      "hit": false,
      "t": 78196.67699999998,
      "d": 81.96716666666907,
      "v": 85
    },
    {
      "midi": 57,
      "hit": false,
      "t": 78688.47999999998,
      "d": 440.57352083333535,
      "v": 111
    },
    {
      "midi": 60,
      "hit": false,
      "t": 78688.47999999998,
      "d": 747.9503958333371,
      "v": 107
    },
    {
      "midi": 64,
      "hit": false,
      "t": 78688.47999999998,
      "d": 758.1962916666671,
      "v": 102
    },
    {
      "midi": 33,
      "hit": false,
      "t": 78688.47999999998,
      "d": 1147.540333333338,
      "v": 102
    },
    {
      "midi": 45,
      "hit": false,
      "t": 78688.47999999998,
      "d": 1188.5239166666724,
      "v": 107
    },
    {
      "midi": 45,
      "hit": false,
      "t": 78688.48000000004,
      "d": 3688.522500000021,
      "v": 110
    },
    {
      "midi": 52,
      "hit": false,
      "t": 78934.38150000005,
      "d": 3422.1292083333537,
      "v": 125
    },
    {
      "midi": 57,
      "hit": false,
      "t": 79180.28299999998,
      "d": 276.6391874999972,
      "v": 86
    },
    {
      "midi": 55,
      "hit": false,
      "t": 79180.28300000005,
      "d": 3227.4571874999965,
      "v": 123
    },
    {
      "midi": 67,
      "hit": false,
      "t": 79426.18450000006,
      "d": 2981.5556874999893,
      "v": 114
    },
    {
      "midi": 60,
      "hit": false,
      "t": 79672.08599999998,
      "d": 788.9339791666716,
      "v": 111
    },
    {
      "midi": 57,
      "hit": false,
      "t": 79672.08599999998,
      "d": 799.1798750000016,
      "v": 107
    },
    {
      "midi": 64,
      "hit": false,
      "t": 79672.08599999998,
      "d": 799.1798750000016,
      "v": 111
    },
    {
      "midi": 64,
      "hit": false,
      "t": 79672.08600000007,
      "d": 2725.408291666652,
      "v": 105
    },
    {
      "midi": 33,
      "hit": false,
      "t": 80163.88899999998,
      "d": 297.13097916667175,
      "v": 99
    },
    {
      "midi": 45,
      "hit": false,
      "t": 80163.88899999998,
      "d": 327.86866666666174,
      "v": 99
    },
    {
      "midi": 57,
      "hit": false,
      "t": 80655.69199999998,
      "d": 461.06531249999534,
      "v": 107
    },
    {
      "midi": 60,
      "hit": false,
      "t": 80655.69199999998,
      "d": 778.6880833333271,
      "v": 109
    },
    {
      "midi": 64,
      "hit": false,
      "t": 80655.69199999998,
      "d": 799.1798749999871,
      "v": 106
    },
    {
      "midi": 33,
      "hit": false,
      "t": 80655.69199999998,
      "d": 1475.408999999985,
      "v": 102
    },
    {
      "midi": 45,
      "hit": false,
      "t": 80655.69199999998,
      "d": 1516.3925833333196,
      "v": 106
    },
    {
      "midi": 57,
      "hit": false,
      "t": 81147.49499999998,
      "d": 286.8850833333272,
      "v": 77
    },
    {
      "midi": 57,
      "hit": false,
      "t": 81639.29799999997,
      "d": 317.62277083333174,
      "v": 107
    },
    {
      "midi": 60,
      "hit": false,
      "t": 81639.29799999997,
      "d": 522.5406875000044,
      "v": 111
    },
    {
      "midi": 64,
      "hit": false,
      "t": 81639.29799999997,
      "d": 522.5406875000044,
      "v": 109
    },
    {
      "midi": 57,
      "hit": false,
      "t": 82131.10099999997,
      "d": 163.93433333333815,
      "v": 74
    },
    {
      "midi": 60,
      "hit": false,
      "t": 82622.90399999998,
      "d": 655.7373333333235,
      "v": 106
    },
    {
      "midi": 63,
      "hit": false,
      "t": 82622.90399999998,
      "d": 706.966812499988,
      "v": 105
    },
    {
      "midi": 55,
      "hit": false,
      "t": 82622.90399999998,
      "d": 717.212708333318,
      "v": 109
    },
    {
      "midi": 27,
      "hit": false,
      "t": 82622.90399999998,
      "d": 901.6388333333161,
      "v": 90
    },
    {
      "midi": 39,
      "hit": false,
      "t": 82622.90399999998,
      "d": 1004.0977916666452,
      "v": 96
    },
    {
      "midi": 51,
      "hit": false,
      "t": 82622.90400000005,
      "d": 1864.753041666685,
      "v": 113
    },
    {
      "midi": 55,
      "hit": false,
      "t": 82868.80550000006,
      "d": 1700.8187083333469,
      "v": 116
    },
    {
      "midi": 60,
      "hit": false,
      "t": 83114.70700000007,
      "d": 1588.1138541666733,
      "v": 103
    },
    {
      "midi": 67,
      "hit": false,
      "t": 83360.60850000007,
      "d": 1229.5074999999924,
      "v": 116
    },
    {
      "midi": 63,
      "hit": false,
      "t": 83606.50999999997,
      "d": 450.81941666666535,
      "v": 107
    },
    {
      "midi": 55,
      "hit": false,
      "t": 83606.50999999997,
      "d": 471.31120833332534,
      "v": 114
    },
    {
      "midi": 60,
      "hit": false,
      "t": 83606.50999999997,
      "d": 471.31120833332534,
      "v": 110
    },
    {
      "midi": 39,
      "hit": false,
      "t": 84098.31299999995,
      "d": 143.4425416666636,
      "v": 87
    },
    {
      "midi": 54,
      "hit": false,
      "t": 84590.11599999994,
      "d": 409.8358333333308,
      "v": 101
    },
    {
      "midi": 60,
      "hit": false,
      "t": 84590.11599999994,
      "d": 614.7537500000035,
      "v": 103
    },
    {
      "midi": 62,
      "hit": false,
      "t": 84590.11599999994,
      "d": 614.7537500000035,
      "v": 106
    },
    {
      "midi": 26,
      "hit": false,
      "t": 84590.11599999994,
      "d": 768.4421874999971,
      "v": 109
    },
    {
      "midi": 38,
      "hit": false,
      "t": 84590.11599999994,
      "d": 819.6716666666616,
      "v": 114
    },
    {
      "midi": 50,
      "hit": false,
      "t": 84590.11600000007,
      "d": 1874.998937500015,
      "v": 113
    },
    {
      "midi": 54,
      "hit": false,
      "t": 84836.01750000007,
      "d": 1680.3269166666723,
      "v": 107
    },
    {
      "midi": 54,
      "hit": false,
      "t": 85081.91899999994,
      "d": 266.3932916666672,
      "v": 79
    },
    {
      "midi": 60,
      "hit": false,
      "t": 85081.91900000008,
      "d": 1424.1795208333351,
      "v": 98
    },
    {
      "midi": 66,
      "hit": false,
      "t": 85327.82050000009,
      "d": 1229.5074999999924,
      "v": 108
    },
    {
      "midi": 54,
      "hit": false,
      "t": 85573.72199999994,
      "d": 307.37687500000175,
      "v": 102
    },
    {
      "midi": 62,
      "hit": false,
      "t": 85573.72199999994,
      "d": 358.6063541666663,
      "v": 107
    },
    {
      "midi": 60,
      "hit": false,
      "t": 85573.72199999994,
      "d": 522.5406875000044,
      "v": 102
    },
    {
      "midi": 54,
      "hit": false,
      "t": 86065.52499999994,
      "d": 102.45895833334362,
      "v": 87
    },
    {
      "midi": 50,
      "hit": false,
      "t": 86557.32799999995,
      "d": 389.3440416666708,
      "v": 102
    },
    {
      "midi": 55,
      "hit": false,
      "t": 86557.32799999995,
      "d": 563.524270833339,
      "v": 109
    },
    {
      "midi": 58,
      "hit": false,
      "t": 86557.32799999995,
      "d": 594.2619583333435,
      "v": 105
    },
    {
      "midi": 43,
      "hit": false,
      "t": 86557.32799999995,
      "d": 819.6716666666762,
      "v": 113
    },
    {
      "midi": 43,
      "hit": false,
      "t": 86557.32800000008,
      "d": 1905.7366250000196,
      "v": 111
    },
    {
      "midi": 50,
      "hit": false,
      "t": 86803.22950000009,
      "d": 1639.3433333333523,
      "v": 107
    },
    {
      "midi": 50,
      "hit": false,
      "t": 87049.13099999995,
      "d": 204.91791666667268,
      "v": 81
    },
    {
      "midi": 53,
      "hit": false,
      "t": 87049.1310000001,
      "d": 1465.1631041666697,
      "v": 101
    },
    {
      "midi": 58,
      "hit": false,
      "t": 87295.0325000001,
      "d": 1229.5074999999924,
      "v": 115
    },
    {
      "midi": 55,
      "hit": false,
      "t": 87540.93399999996,
      "d": 184.42612499999814,
      "v": 105
    },
    {
      "midi": 58,
      "hit": false,
      "t": 87540.93399999996,
      "d": 194.67202083332813,
      "v": 101
    },
    {
      "midi": 41,
      "hit": false,
      "t": 88032.73699999996,
      "d": 40.983583333334536,
      "v": 60
    },
    {
      "midi": 43,
      "hit": false,
      "t": 88032.73699999996,
      "d": 71.72127083333908,
      "v": 68
    },
    {
      "midi": 55,
      "hit": false,
      "t": 88524.53999999996,
      "d": 358.6063541666663,
      "v": 105
    },
    {
      "midi": 46,
      "hit": false,
      "t": 88524.53999999996,
      "d": 471.3112083333399,
      "v": 113
    },
    {
      "midi": 58,
      "hit": false,
      "t": 88524.53999999996,
      "d": 522.5406875000044,
      "v": 115
    },
    {
      "midi": 61,
      "hit": false,
      "t": 88524.53999999996,
      "d": 522.5406875000044,
      "v": 112
    },
    {
      "midi": 55,
      "hit": false,
      "t": 88524.5400000001,
      "d": 983.6059999999998,
      "v": 101
    },
    {
      "midi": 61,
      "hit": false,
      "t": 88524.5400000001,
      "d": 983.6059999999998,
      "v": 101
    },
    {
      "midi": 55,
      "hit": false,
      "t": 89016.34299999996,
      "d": 102.45895833334362,
      "v": 90
    },
    {
      "midi": 58,
      "hit": false,
      "t": 89508.14599999998,
      "d": 430.32762500000536,
      "v": 105
    },
    {
      "midi": 48,
      "hit": false,
      "t": 89508.14599999998,
      "d": 860.6552499999962,
      "v": 113
    },
    {
      "midi": 52,
      "hit": false,
      "t": 89508.14599999998,
      "d": 860.6552499999962,
      "v": 103
    },
    {
      "midi": 60,
      "hit": false,
      "t": 89508.14599999998,
      "d": 870.9011458333262,
      "v": 110
    },
    {
      "midi": 52,
      "hit": false,
      "t": 89508.1460000001,
      "d": 983.6059999999998,
      "v": 89
    },
    {
      "midi": 60,
      "hit": false,
      "t": 89508.1460000001,
      "d": 983.6059999999998,
      "v": 89
    },
    {
      "midi": 58,
      "hit": false,
      "t": 89999.94899999998,
      "d": 358.6063541666663,
      "v": 95
    },
    {
      "midi": 53,
      "hit": false,
      "t": 90491.75199999998,
      "d": 450.81941666666535,
      "v": 82
    },
    {
      "midi": 57,
      "hit": false,
      "t": 90491.75199999998,
      "d": 604.5078541666735,
      "v": 88
    },
    {
      "midi": 60,
      "hit": false,
      "t": 90491.75199999998,
      "d": 645.491437500008,
      "v": 91
    },
    {
      "midi": 41,
      "hit": false,
      "t": 90491.75199999998,
      "d": 3504.0963750000083,
      "v": 93
    },
    {
      "midi": 53,
      "hit": false,
      "t": 90983.55499999998,
      "d": 358.60635416668083,
      "v": 67
    },
    {
      "midi": 65,
      "hit": false,
      "t": 91475.358,
      "d": 399.5899375000008,
      "v": 80
    },
    {
      "midi": 60,
      "hit": false,
      "t": 91475.358,
      "d": 450.81941666666535,
      "v": 84
    },
    {
      "midi": 53,
      "hit": false,
      "t": 91967.161,
      "d": 409.8358333333308,
      "v": 67
    },
    {
      "midi": 65,
      "hit": false,
      "t": 92458.96399999999,
      "d": 409.8358333333308,
      "v": 80
    },
    {
      "midi": 60,
      "hit": false,
      "t": 92458.96399999999,
      "d": 481.5571041666699,
      "v": 80
    },
    {
      "midi": 53,
      "hit": false,
      "t": 92950.76699999999,
      "d": 184.42612499999814,
      "v": 61
    },
    {
      "midi": 57,
      "hit": false,
      "t": 93442.56999999999,
      "d": 430.32762500000536,
      "v": 81
    },
    {
      "midi": 60,
      "hit": false,
      "t": 93442.56999999999,
      "d": 440.57352083333535,
      "v": 81
    },
    {
      "midi": 53,
      "hit": false,
      "t": 93934.37299999999,
      "d": 112.70485416665906,
      "v": 72
    },
    {
      "midi": 55,
      "hit": false,
      "t": 94426.17599999998,
      "d": 399.5899375000008,
      "v": 85
    },
    {
      "midi": 58,
      "hit": false,
      "t": 94426.17599999998,
      "d": 635.2455416666635,
      "v": 84
    },
    {
      "midi": 61,
      "hit": false,
      "t": 94426.17599999998,
      "d": 635.2455416666635,
      "v": 87
    },
    {
      "midi": 41,
      "hit": false,
      "t": 94426.17599999998,
      "d": 2684.424708333332,
      "v": 91
    },
    {
      "midi": 55,
      "hit": false,
      "t": 94917.97899999998,
      "d": 225.40970833333267,
      "v": 78
    },
    {
      "midi": 65,
      "hit": false,
      "t": 95409.78199999998,
      "d": 399.5899375000008,
      "v": 91
    },
    {
      "midi": 58,
      "hit": false,
      "t": 95409.78199999998,
      "d": 430.32762500000536,
      "v": 87
    },
    {
      "midi": 61,
      "hit": false,
      "t": 95409.78199999998,
      "d": 430.32762500000536,
      "v": 91
    },
    {
      "midi": 55,
      "hit": false,
      "t": 95901.58499999998,
      "d": 153.6884374999936,
      "v": 72
    },
    {
      "midi": 53,
      "hit": false,
      "t": 96393.38799999998,
      "d": 348.3604583333363,
      "v": 85
    },
    {
      "midi": 57,
      "hit": false,
      "t": 96393.38799999998,
      "d": 655.737333333338,
      "v": 92
    },
    {
      "midi": 60,
      "hit": false,
      "t": 96393.38799999998,
      "d": 676.229124999998,
      "v": 92
    },
    {
      "midi": 53,
      "hit": false,
      "t": 96885.19099999998,
      "d": 245.90149999999267,
      "v": 65
    },
    {
      "midi": 57,
      "hit": false,
      "t": 97376.99399999998,
      "d": 133.1966458333336,
      "v": 87
    },
    {
      "midi": 60,
      "hit": false,
      "t": 97376.99399999998,
      "d": 153.6884374999936,
      "v": 85
    },
    {
      "midi": 65,
      "hit": false,
      "t": 97376.99399999998,
      "d": 194.67202083332813,
      "v": 87
    },
    {
      "midi": 57,
      "hit": false,
      "t": 97868.79699999998,
      "d": 245.90150000000722,
      "v": 64
    },
    {
      "midi": 57,
      "hit": false,
      "t": 98360.59999999999,
      "d": 399.5899375000008,
      "v": 88
    },
    {
      "midi": 60,
      "hit": false,
      "t": 98360.59999999999,
      "d": 553.2783749999944,
      "v": 93
    },
    {
      "midi": 67,
      "hit": false,
      "t": 98360.59999999999,
      "d": 584.016062499999,
      "v": 99
    },
    {
      "midi": 51,
      "hit": false,
      "t": 98360.59999999999,
      "d": 1434.4254166666651,
      "v": 101
    },
    {
      "midi": 57,
      "hit": false,
      "t": 98852.40299999999,
      "d": 286.8850833333272,
      "v": 78
    },
    {
      "midi": 67,
      "hit": false,
      "t": 99344.20599999999,
      "d": 409.8358333333308,
      "v": 96
    },
    {
      "midi": 60,
      "hit": false,
      "t": 99344.20599999999,
      "d": 420.0817291666608,
      "v": 92
    },
    {
      "midi": 57,
      "hit": false,
      "t": 99836.00899999999,
      "d": 122.95075000000361,
      "v": 81
    },
    {
      "midi": 66,
      "hit": false,
      "t": 100327.81199999999,
      "d": 553.2783749999944,
      "v": 87
    },
    {
      "midi": 60,
      "hit": false,
      "t": 100327.81199999999,
      "d": 563.5242708333244,
      "v": 87
    },
    {
      "midi": 50,
      "hit": false,
      "t": 100327.81199999999,
      "d": 1885.2448333333014,
      "v": 96
    },
    {
      "midi": 57,
      "hit": false,
      "t": 100819.61499999999,
      "d": 266.39329166665266,
      "v": 76
    },
    {
      "midi": 60,
      "hit": false,
      "t": 101311.41799999998,
      "d": 881.1470416666562,
      "v": 91
    },
    {
      "midi": 66,
      "hit": false,
      "t": 101311.41799999998,
      "d": 891.3929374999861,
      "v": 91
    },
    {
      "midi": 57,
      "hit": false,
      "t": 101803.22099999998,
      "d": 379.09814583332627,
      "v": 80
    },
    {
      "midi": 58,
      "hit": false,
      "t": 102295.02399999996,
      "d": 338.11456249999173,
      "v": 82
    },
    {
      "midi": 62,
      "hit": false,
      "t": 102295.02399999996,
      "d": 450.81941666666535,
      "v": 87
    },
    {
      "midi": 67,
      "hit": false,
      "t": 102295.02399999996,
      "d": 491.8029999999999,
      "v": 91
    },
    {
      "midi": 43,
      "hit": false,
      "t": 102295.02399999996,
      "d": 1065.5731666666688,
      "v": 87
    },
    {
      "midi": 58,
      "hit": false,
      "t": 102786.82699999996,
      "d": 235.65560416666267,
      "v": 68
    },
    {
      "midi": 58,
      "hit": false,
      "t": 103278.62999999996,
      "d": 276.6391874999972,
      "v": 82
    },
    {
      "midi": 62,
      "hit": false,
      "t": 103278.62999999996,
      "d": 461.06531249999534,
      "v": 97
    },
    {
      "midi": 67,
      "hit": false,
      "t": 103278.62999999996,
      "d": 471.31120833332534,
      "v": 94
    },
    {
      "midi": 43,
      "hit": false,
      "t": 103770.43299999995,
      "d": 122.95075000000361,
      "v": 70
    },
    {
      "midi": 58,
      "hit": false,
      "t": 103770.43299999995,
      "d": 153.68843750000815,
      "v": 65
    },
    {
      "midi": 45,
      "hit": false,
      "t": 104016.33449999995,
      "d": 71.72127083333908,
      "v": 59
    },
    {
      "midi": 58,
      "hit": false,
      "t": 104262.23599999996,
      "d": 327.8686666666763,
      "v": 85
    },
    {
      "midi": 61,
      "hit": false,
      "t": 104262.23599999996,
      "d": 512.2947916666744,
      "v": 88
    },
    {
      "midi": 65,
      "hit": false,
      "t": 104262.23599999996,
      "d": 543.032479166679,
      "v": 91
    },
    {
      "midi": 46,
      "hit": false,
      "t": 104262.23599999996,
      "d": 1485.6548958333442,
      "v": 94
    },
    {
      "midi": 58,
      "hit": false,
      "t": 104754.03899999998,
      "d": 225.40970833333267,
      "v": 70
    },
    {
      "midi": 61,
      "hit": false,
      "t": 105245.84199999998,
      "d": 338.1145625000063,
      "v": 73
    },
    {
      "midi": 65,
      "hit": false,
      "t": 105245.84199999998,
      "d": 348.3604583333363,
      "v": 85
    },
    {
      "midi": 58,
      "hit": false,
      "t": 105737.64499999997,
      "d": 81.96716666666907,
      "v": 51
    },
    {
      "midi": 53,
      "hit": false,
      "t": 106229.44799999997,
      "d": 368.8522500000108,
      "v": 75
    },
    {
      "midi": 65,
      "hit": false,
      "t": 106229.44799999997,
      "d": 450.8194166666799,
      "v": 86
    },
    {
      "midi": 60,
      "hit": false,
      "t": 106229.44799999997,
      "d": 604.507854166688,
      "v": 85
    },
    {
      "midi": 45,
      "hit": false,
      "t": 106229.44799999997,
      "d": 1434.4254166666942,
      "v": 91
    },
    {
      "midi": 53,
      "hit": false,
      "t": 106721.25099999999,
      "d": 368.8522500000108,
      "v": 66
    },
    {
      "midi": 65,
      "hit": false,
      "t": 107213.054,
      "d": 399.5899375000008,
      "v": 93
    },
    {
      "midi": 60,
      "hit": false,
      "t": 107213.054,
      "d": 450.81941666666535,
      "v": 88
    },
    {
      "midi": 53,
      "hit": false,
      "t": 107704.857,
      "d": 133.1966458333336,
      "v": 73
    },
    {
      "midi": 43,
      "hit": false,
      "t": 108196.66,
      "d": 389.3440416666708,
      "v": 88
    },
    {
      "midi": 53,
      "hit": false,
      "t": 108196.66,
      "d": 409.8358333333308,
      "v": 82
    },
    {
      "midi": 61,
      "hit": false,
      "t": 108196.66,
      "d": 553.2783749999944,
      "v": 87
    },
    {
      "midi": 58,
      "hit": false,
      "t": 108196.66,
      "d": 573.7701666666544,
      "v": 77
    },
    {
      "midi": 53,
      "hit": false,
      "t": 108688.463,
      "d": 163.9343333333236,
      "v": 71
    },
    {
      "midi": 58,
      "hit": false,
      "t": 109180.26599999999,
      "d": 963.1142083333398,
      "v": 77
    },
    {
      "midi": 40,
      "hit": false,
      "t": 109180.26599999999,
      "d": 973.3601041666698,
      "v": 91
    },
    {
      "midi": 60,
      "hit": false,
      "t": 109180.26599999999,
      "d": 973.3601041666698,
      "v": 83
    },
    {
      "midi": 67,
      "hit": false,
      "t": 109180.26599999999,
      "d": 973.3601041666698,
      "v": 78
    },
    {
      "midi": 53,
      "hit": false,
      "t": 110163.87199999999,
      "d": 450.81941666666535,
      "v": 82
    },
    {
      "midi": 57,
      "hit": false,
      "t": 110163.87199999999,
      "d": 604.5078541666735,
      "v": 88
    },
    {
      "midi": 60,
      "hit": false,
      "t": 110163.87199999999,
      "d": 645.491437500008,
      "v": 91
    },
    {
      "midi": 41,
      "hit": false,
      "t": 110163.87199999999,
      "d": 3504.0963750000083,
      "v": 93
    },
    {
      "midi": 53,
      "hit": false,
      "t": 110655.67499999999,
      "d": 358.60635416668083,
      "v": 67
    },
    {
      "midi": 65,
      "hit": false,
      "t": 111147.478,
      "d": 399.5899375000008,
      "v": 80
    },
    {
      "midi": 60,
      "hit": false,
      "t": 111147.478,
      "d": 450.81941666666535,
      "v": 84
    },
    {
      "midi": 53,
      "hit": false,
      "t": 111639.281,
      "d": 409.8358333333308,
      "v": 67
    },
    {
      "midi": 65,
      "hit": false,
      "t": 112131.084,
      "d": 409.8358333333308,
      "v": 80
    },
    {
      "midi": 60,
      "hit": false,
      "t": 112131.084,
      "d": 481.5571041666699,
      "v": 80
    },
    {
      "midi": 53,
      "hit": false,
      "t": 112622.887,
      "d": 184.42612499999814,
      "v": 61
    },
    {
      "midi": 57,
      "hit": false,
      "t": 113114.69,
      "d": 430.32762500000536,
      "v": 81
    },
    {
      "midi": 60,
      "hit": false,
      "t": 113114.69,
      "d": 440.57352083333535,
      "v": 81
    },
    {
      "midi": 53,
      "hit": false,
      "t": 113606.493,
      "d": 112.70485416665906,
      "v": 72
    },
    {
      "midi": 55,
      "hit": false,
      "t": 114098.29599999999,
      "d": 399.5899375000008,
      "v": 85
    },
    {
      "midi": 58,
      "hit": false,
      "t": 114098.29599999999,
      "d": 635.2455416666635,
      "v": 84
    },
    {
      "midi": 61,
      "hit": false,
      "t": 114098.29599999999,
      "d": 635.2455416666635,
      "v": 87
    },
    {
      "midi": 41,
      "hit": false,
      "t": 114098.29599999999,
      "d": 2684.424708333332,
      "v": 91
    },
    {
      "midi": 55,
      "hit": false,
      "t": 114590.09899999999,
      "d": 225.40970833333267,
      "v": 78
    },
    {
      "midi": 65,
      "hit": false,
      "t": 115081.90199999999,
      "d": 399.5899375000008,
      "v": 91
    },
    {
      "midi": 58,
      "hit": false,
      "t": 115081.90199999999,
      "d": 430.32762500000536,
      "v": 87
    },
    {
      "midi": 61,
      "hit": false,
      "t": 115081.90199999999,
      "d": 430.32762500000536,
      "v": 91
    },
    {
      "midi": 55,
      "hit": false,
      "t": 115573.70499999999,
      "d": 153.6884374999936,
      "v": 72
    },
    {
      "midi": 53,
      "hit": false,
      "t": 116065.50799999999,
      "d": 348.3604583333363,
      "v": 85
    },
    {
      "midi": 57,
      "hit": false,
      "t": 116065.50799999999,
      "d": 655.737333333338,
      "v": 92
    },
    {
      "midi": 60,
      "hit": false,
      "t": 116065.50799999999,
      "d": 676.229124999998,
      "v": 92
    },
    {
      "midi": 53,
      "hit": false,
      "t": 116557.31099999999,
      "d": 245.90149999999267,
      "v": 65
    },
    {
      "midi": 57,
      "hit": false,
      "t": 117049.11399999999,
      "d": 133.1966458333336,
      "v": 87
    },
    {
      "midi": 60,
      "hit": false,
      "t": 117049.11399999999,
      "d": 153.6884374999936,
      "v": 85
    },
    {
      "midi": 65,
      "hit": false,
      "t": 117049.11399999999,
      "d": 194.67202083332813,
      "v": 87
    },
    {
      "midi": 57,
      "hit": false,
      "t": 117540.91699999999,
      "d": 245.90150000000722,
      "v": 64
    },
    {
      "midi": 57,
      "hit": false,
      "t": 118032.72,
      "d": 399.5899375000008,
      "v": 88
    },
    {
      "midi": 60,
      "hit": false,
      "t": 118032.72,
      "d": 553.2783749999944,
      "v": 93
    },
    {
      "midi": 67,
      "hit": false,
      "t": 118032.72,
      "d": 584.016062499999,
      "v": 99
    },
    {
      "midi": 51,
      "hit": false,
      "t": 118032.72,
      "d": 1434.4254166666651,
      "v": 101
    },
    {
      "midi": 57,
      "hit": false,
      "t": 118524.523,
      "d": 286.8850833333272,
      "v": 78
    },
    {
      "midi": 67,
      "hit": false,
      "t": 119016.326,
      "d": 409.8358333333308,
      "v": 96
    },
    {
      "midi": 60,
      "hit": false,
      "t": 119016.326,
      "d": 420.0817291666608,
      "v": 92
    },
    {
      "midi": 57,
      "hit": false,
      "t": 119508.129,
      "d": 122.95075000000361,
      "v": 81
    },
    {
      "midi": 66,
      "hit": false,
      "t": 119999.932,
      "d": 553.2783749999944,
      "v": 87
    },
    {
      "midi": 60,
      "hit": false,
      "t": 119999.932,
      "d": 563.5242708333244,
      "v": 87
    },
    {
      "midi": 50,
      "hit": false,
      "t": 119999.932,
      "d": 1885.2448333333014,
      "v": 96
    },
    {
      "midi": 57,
      "hit": false,
      "t": 120491.735,
      "d": 266.39329166665266,
      "v": 76
    },
    {
      "midi": 60,
      "hit": false,
      "t": 120983.53799999999,
      "d": 881.1470416666562,
      "v": 91
    },
    {
      "midi": 66,
      "hit": false,
      "t": 120983.53799999999,
      "d": 891.3929374999861,
      "v": 91
    },
    {
      "midi": 57,
      "hit": false,
      "t": 121475.34099999999,
      "d": 379.09814583332627,
      "v": 80
    },
    {
      "midi": 58,
      "hit": false,
      "t": 121967.14399999997,
      "d": 338.11456249999173,
      "v": 82
    },
    {
      "midi": 62,
      "hit": false,
      "t": 121967.14399999997,
      "d": 450.81941666666535,
      "v": 87
    },
    {
      "midi": 67,
      "hit": false,
      "t": 121967.14399999997,
      "d": 491.8029999999999,
      "v": 91
    },
    {
      "midi": 43,
      "hit": false,
      "t": 121967.14399999997,
      "d": 1065.5731666666688,
      "v": 87
    },
    {
      "midi": 58,
      "hit": false,
      "t": 122458.94699999997,
      "d": 235.65560416666267,
      "v": 68
    },
    {
      "midi": 58,
      "hit": false,
      "t": 122950.74999999997,
      "d": 276.6391874999972,
      "v": 82
    },
    {
      "midi": 62,
      "hit": false,
      "t": 122950.74999999997,
      "d": 461.06531249999534,
      "v": 97
    },
    {
      "midi": 67,
      "hit": false,
      "t": 122950.74999999997,
      "d": 471.31120833332534,
      "v": 94
    },
    {
      "midi": 43,
      "hit": false,
      "t": 123442.55299999996,
      "d": 122.95075000000361,
      "v": 70
    },
    {
      "midi": 58,
      "hit": false,
      "t": 123442.55299999996,
      "d": 153.68843750000815,
      "v": 65
    },
    {
      "midi": 45,
      "hit": false,
      "t": 123688.45449999996,
      "d": 71.72127083333908,
      "v": 59
    },
    {
      "midi": 58,
      "hit": false,
      "t": 123934.35599999997,
      "d": 327.8686666666763,
      "v": 85
    },
    {
      "midi": 61,
      "hit": false,
      "t": 123934.35599999997,
      "d": 512.2947916666744,
      "v": 88
    },
    {
      "midi": 65,
      "hit": false,
      "t": 123934.35599999997,
      "d": 543.032479166679,
      "v": 91
    },
    {
      "midi": 46,
      "hit": false,
      "t": 123934.35599999997,
      "d": 1485.6548958333442,
      "v": 94
    },
    {
      "midi": 58,
      "hit": false,
      "t": 124426.15899999999,
      "d": 225.40970833333267,
      "v": 70
    },
    {
      "midi": 61,
      "hit": false,
      "t": 124917.96199999998,
      "d": 338.1145625000063,
      "v": 73
    },
    {
      "midi": 65,
      "hit": false,
      "t": 124917.96199999998,
      "d": 348.3604583333363,
      "v": 85
    },
    {
      "midi": 58,
      "hit": false,
      "t": 125409.76499999998,
      "d": 81.96716666666907,
      "v": 51
    },
    {
      "midi": 53,
      "hit": false,
      "t": 125901.56799999998,
      "d": 368.8522500000108,
      "v": 87
    },
    {
      "midi": 57,
      "hit": false,
      "t": 125901.56799999998,
      "d": 379.0981458333408,
      "v": 88
    },
    {
      "midi": 60,
      "hit": false,
      "t": 125901.56799999998,
      "d": 409.83583333334536,
      "v": 91
    },
    {
      "midi": 45,
      "hit": false,
      "t": 125901.56799999998,
      "d": 1434.4254166666797,
      "v": 103
    },
    {
      "midi": 65,
      "hit": false,
      "t": 126885.174,
      "d": 368.8522499999963,
      "v": 88
    },
    {
      "midi": 72,
      "hit": false,
      "t": 126885.174,
      "d": 522.5406875000044,
      "v": 93
    },
    {
      "midi": 75,
      "hit": false,
      "t": 126885.174,
      "d": 532.7865833333344,
      "v": 95
    },
    {
      "midi": 65,
      "hit": false,
      "t": 127376.977,
      "d": 143.4425416666636,
      "v": 68
    },
    {
      "midi": 66,
      "hit": false,
      "t": 127868.78,
      "d": 389.3440416666708,
      "v": 94
    },
    {
      "midi": 74,
      "hit": false,
      "t": 127868.78,
      "d": 481.5571041666699,
      "v": 100
    },
    {
      "midi": 50,
      "hit": false,
      "t": 127868.78,
      "d": 1270.4910833333415,
      "v": 96
    },
    {
      "midi": 66,
      "hit": false,
      "t": 128360.583,
      "d": 174.18022916666814,
      "v": 69
    },
    {
      "midi": 72,
      "hit": false,
      "t": 128852.386,
      "d": 204.91791666667268,
      "v": 110
    },
    {
      "midi": 62,
      "hit": false,
      "t": 129344.18900000001,
      "d": 184.42612499999814,
      "v": 44
    },
    {
      "midi": 62,
      "hit": false,
      "t": 129835.99200000001,
      "d": 399.5899375000008,
      "v": 94
    },
    {
      "midi": 65,
      "hit": false,
      "t": 129835.99200000001,
      "d": 532.7865833333344,
      "v": 98
    },
    {
      "midi": 67,
      "hit": false,
      "t": 129835.99200000001,
      "d": 532.7865833333344,
      "v": 98
    },
    {
      "midi": 71,
      "hit": false,
      "t": 129835.99200000001,
      "d": 594.261958333329,
      "v": 95
    },
    {
      "midi": 43,
      "hit": false,
      "t": 129835.99200000001,
      "d": 676.2291249999835,
      "v": 109
    },
    {
      "midi": 62,
      "hit": false,
      "t": 130327.79500000001,
      "d": 163.9343333333236,
      "v": 73
    },
    {
      "midi": 49,
      "hit": false,
      "t": 130819.598,
      "d": 358.6063541666663,
      "v": 94
    },
    {
      "midi": 65,
      "hit": false,
      "t": 130819.598,
      "d": 358.6063541666663,
      "v": 94
    },
    {
      "midi": 67,
      "hit": false,
      "t": 130819.598,
      "d": 758.1962916666525,
      "v": 106
    },
    {
      "midi": 70,
      "hit": false,
      "t": 130819.598,
      "d": 768.4421874999825,
      "v": 87
    },
    {
      "midi": 61,
      "hit": false,
      "t": 131311.40099999998,
      "d": 368.8522499999963,
      "v": 82
    },
    {
      "midi": 60,
      "hit": false,
      "t": 131803.20399999997,
      "d": 409.83583333331626,
      "v": 97
    },
    {
      "midi": 67,
      "hit": false,
      "t": 131803.20399999997,
      "d": 922.1306249999907,
      "v": 95
    },
    {
      "midi": 70,
      "hit": false,
      "t": 131803.20399999997,
      "d": 922.1306249999907,
      "v": 94
    },
    {
      "midi": 48,
      "hit": false,
      "t": 131803.20399999997,
      "d": 1967.2120000000286,
      "v": 87
    },
    {
      "midi": 60,
      "hit": false,
      "t": 132295.00699999995,
      "d": 1475.4090000000433,
      "v": 87
    },
    {
      "midi": 70,
      "hit": false,
      "t": 132786.80999999997,
      "d": 491.80300000001444,
      "v": 87
    },
    {
      "midi": 67,
      "hit": false,
      "t": 132786.80999999997,
      "d": 983.6060000000289,
      "v": 91
    },
    {
      "midi": 69,
      "hit": false,
      "t": 133278.61299999998,
      "d": 491.80300000001444,
      "v": 87
    },
    {
      "midi": 53,
      "hit": false,
      "t": 133770.416,
      "d": 399.58993750001537,
      "v": 120
    },
    {
      "midi": 57,
      "hit": false,
      "t": 133770.416,
      "d": 573.7701666666835,
      "v": 123
    },
    {
      "midi": 60,
      "hit": false,
      "t": 133770.416,
      "d": 614.7537500000035,
      "v": 118
    },
    {
      "midi": 29,
      "hit": false,
      "t": 133770.416,
      "d": 1198.769812499988,
      "v": 113
    },
    {
      "midi": 41,
      "hit": false,
      "t": 133770.416,
      "d": 1229.5074999999779,
      "v": 113
    },
    {
      "midi": 41,
      "hit": false,
      "t": 133770.41600000008,
      "d": 2561.473958333372,
      "v": 103
    },
    {
      "midi": 48,
      "hit": false,
      "t": 134016.3175000001,
      "d": 2243.851187500026,
      "v": 111
    },
    {
      "midi": 53,
      "hit": false,
      "t": 134262.219,
      "d": 204.91791666665813,
      "v": 87
    },
    {
      "midi": 55,
      "hit": false,
      "t": 134262.2190000001,
      "d": 81.96716666666907,
      "v": 123
    },
    {
      "midi": 57,
      "hit": false,
      "t": 134508.1205000001,
      "d": 71.72127083333908,
      "v": 114
    },
    {
      "midi": 53,
      "hit": false,
      "t": 134754.022,
      "d": 409.83583333331626,
      "v": 110
    },
    {
      "midi": 57,
      "hit": false,
      "t": 134754.022,
      "d": 850.4093541666516,
      "v": 118
    },
    {
      "midi": 60,
      "hit": false,
      "t": 134754.022,
      "d": 850.4093541666516,
      "v": 114
    },
    {
      "midi": 60,
      "hit": false,
      "t": 134754.0220000001,
      "d": 81.96716666666907,
      "v": 127
    },
    {
      "midi": 29,
      "hit": false,
      "t": 135245.82499999998,
      "d": 327.8686666666763,
      "v": 101
    },
    {
      "midi": 41,
      "hit": false,
      "t": 135245.82499999998,
      "d": 348.3604583333363,
      "v": 96
    },
    {
      "midi": 53,
      "hit": false,
      "t": 135245.82499999998,
      "d": 368.8522499999963,
      "v": 81
    },
    {
      "midi": 53,
      "hit": false,
      "t": 135737.62799999997,
      "d": 440.57352083330625,
      "v": 105
    },
    {
      "midi": 57,
      "hit": false,
      "t": 135737.62799999997,
      "d": 768.4421874999825,
      "v": 107
    },
    {
      "midi": 60,
      "hit": false,
      "t": 135737.62799999997,
      "d": 778.6880833333125,
      "v": 107
    },
    {
      "midi": 29,
      "hit": false,
      "t": 135737.62799999997,
      "d": 1014.3436874999607,
      "v": 109
    },
    {
      "midi": 41,
      "hit": false,
      "t": 135737.62799999997,
      "d": 1055.3272708332806,
      "v": 105
    },
    {
      "midi": 53,
      "hit": false,
      "t": 136229.43099999995,
      "d": 286.8850833333272,
      "v": 82
    },
    {
      "midi": 53,
      "hit": false,
      "t": 136721.23399999994,
      "d": 348.3604583333072,
      "v": 110
    },
    {
      "midi": 57,
      "hit": false,
      "t": 136721.23399999994,
      "d": 522.5406874999753,
      "v": 118
    },
    {
      "midi": 60,
      "hit": false,
      "t": 136721.23399999994,
      "d": 532.7865833333053,
      "v": 113
    },
    {
      "midi": 53,
      "hit": false,
      "t": 137213.03699999992,
      "d": 81.96716666663997,
      "v": 85
    },
    {
      "midi": 57,
      "hit": false,
      "t": 137704.8399999999,
      "d": 440.57352083333535,
      "v": 111
    },
    {
      "midi": 60,
      "hit": false,
      "t": 137704.8399999999,
      "d": 747.9503958333516,
      "v": 107
    },
    {
      "midi": 64,
      "hit": false,
      "t": 137704.8399999999,
      "d": 758.1962916666816,
      "v": 102
    },
    {
      "midi": 33,
      "hit": false,
      "t": 137704.8399999999,
      "d": 1147.540333333338,
      "v": 102
    },
    {
      "midi": 45,
      "hit": false,
      "t": 137704.8399999999,
      "d": 1188.523916666658,
      "v": 107
    },
    {
      "midi": 45,
      "hit": false,
      "t": 137704.8400000001,
      "d": 3688.522500000021,
      "v": 110
    },
    {
      "midi": 52,
      "hit": false,
      "t": 137950.74150000012,
      "d": 3422.1292083333537,
      "v": 125
    },
    {
      "midi": 57,
      "hit": false,
      "t": 138196.64299999992,
      "d": 276.6391874999972,
      "v": 86
    },
    {
      "midi": 55,
      "hit": false,
      "t": 138196.64300000013,
      "d": 3227.4571874999965,
      "v": 123
    },
    {
      "midi": 67,
      "hit": false,
      "t": 138442.54450000013,
      "d": 2981.5556874999893,
      "v": 114
    },
    {
      "midi": 60,
      "hit": false,
      "t": 138688.4459999999,
      "d": 788.9339791666425,
      "v": 111
    },
    {
      "midi": 57,
      "hit": false,
      "t": 138688.4459999999,
      "d": 799.1798749999725,
      "v": 107
    },
    {
      "midi": 64,
      "hit": false,
      "t": 138688.4459999999,
      "d": 799.1798749999725,
      "v": 111
    },
    {
      "midi": 64,
      "hit": false,
      "t": 138688.44600000014,
      "d": 2725.408291666652,
      "v": 105
    },
    {
      "midi": 33,
      "hit": false,
      "t": 139180.2489999999,
      "d": 297.1309791666572,
      "v": 99
    },
    {
      "midi": 45,
      "hit": false,
      "t": 139180.2489999999,
      "d": 327.8686666666472,
      "v": 99
    },
    {
      "midi": 57,
      "hit": false,
      "t": 139672.05199999988,
      "d": 461.06531249999534,
      "v": 107
    },
    {
      "midi": 60,
      "hit": false,
      "t": 139672.05199999988,
      "d": 778.6880833333125,
      "v": 109
    },
    {
      "midi": 64,
      "hit": false,
      "t": 139672.05199999988,
      "d": 799.1798749999725,
      "v": 106
    },
    {
      "midi": 33,
      "hit": false,
      "t": 139672.05199999988,
      "d": 1475.408999999985,
      "v": 102
    },
    {
      "midi": 45,
      "hit": false,
      "t": 139672.05199999988,
      "d": 1516.392583333305,
      "v": 106
    },
    {
      "midi": 57,
      "hit": false,
      "t": 140163.85499999986,
      "d": 286.8850833333272,
      "v": 77
    },
    {
      "midi": 57,
      "hit": false,
      "t": 140655.65799999985,
      "d": 317.6227708333463,
      "v": 107
    },
    {
      "midi": 60,
      "hit": false,
      "t": 140655.65799999985,
      "d": 522.5406875000044,
      "v": 111
    },
    {
      "midi": 64,
      "hit": false,
      "t": 140655.65799999985,
      "d": 522.5406875000044,
      "v": 109
    },
    {
      "midi": 57,
      "hit": false,
      "t": 141147.46099999986,
      "d": 163.93433333330904,
      "v": 74
    },
    {
      "midi": 60,
      "hit": false,
      "t": 141639.26399999982,
      "d": 655.7373333333235,
      "v": 106
    },
    {
      "midi": 63,
      "hit": false,
      "t": 141639.26399999982,
      "d": 706.9668125000026,
      "v": 105
    },
    {
      "midi": 55,
      "hit": false,
      "t": 141639.26399999982,
      "d": 717.2127083333326,
      "v": 109
    },
    {
      "midi": 27,
      "hit": false,
      "t": 141639.26399999982,
      "d": 901.6388333333307,
      "v": 90
    },
    {
      "midi": 39,
      "hit": false,
      "t": 141639.26399999982,
      "d": 1004.0977916666598,
      "v": 96
    },
    {
      "midi": 51,
      "hit": false,
      "t": 141639.2640000001,
      "d": 1864.7530416666996,
      "v": 113
    },
    {
      "midi": 55,
      "hit": false,
      "t": 141885.16550000012,
      "d": 1700.8187083333614,
      "v": 116
    },
    {
      "midi": 60,
      "hit": false,
      "t": 142131.06700000013,
      "d": 1588.1138541666733,
      "v": 103
    },
    {
      "midi": 67,
      "hit": false,
      "t": 142376.96850000013,
      "d": 1229.507500000007,
      "v": 116
    },
    {
      "midi": 63,
      "hit": false,
      "t": 142622.86999999982,
      "d": 450.81941666666535,
      "v": 107
    },
    {
      "midi": 55,
      "hit": false,
      "t": 142622.86999999982,
      "d": 471.31120833332534,
      "v": 114
    },
    {
      "midi": 60,
      "hit": false,
      "t": 142622.86999999982,
      "d": 471.31120833332534,
      "v": 110
    },
    {
      "midi": 39,
      "hit": false,
      "t": 143114.6729999998,
      "d": 143.44254166667815,
      "v": 87
    },
    {
      "midi": 54,
      "hit": false,
      "t": 143606.47599999982,
      "d": 409.83583333334536,
      "v": 101
    },
    {
      "midi": 60,
      "hit": false,
      "t": 143606.47599999982,
      "d": 614.7537500000035,
      "v": 103
    },
    {
      "midi": 62,
      "hit": false,
      "t": 143606.47599999982,
      "d": 614.7537500000035,
      "v": 106
    },
    {
      "midi": 26,
      "hit": false,
      "t": 143606.47599999982,
      "d": 768.4421875000116,
      "v": 109
    },
    {
      "midi": 38,
      "hit": false,
      "t": 143606.47599999982,
      "d": 819.6716666666907,
      "v": 114
    },
    {
      "midi": 50,
      "hit": false,
      "t": 143606.47600000014,
      "d": 1874.9989375000005,
      "v": 113
    },
    {
      "midi": 54,
      "hit": false,
      "t": 143852.37750000012,
      "d": 1680.3269166666723,
      "v": 107
    },
    {
      "midi": 54,
      "hit": false,
      "t": 144098.27899999983,
      "d": 266.3932916666672,
      "v": 79
    },
    {
      "midi": 60,
      "hit": false,
      "t": 144098.27900000013,
      "d": 1424.1795208333351,
      "v": 98
    },
    {
      "midi": 66,
      "hit": false,
      "t": 144344.18050000013,
      "d": 1229.5074999999779,
      "v": 108
    },
    {
      "midi": 54,
      "hit": false,
      "t": 144590.08199999985,
      "d": 307.3768749999872,
      "v": 102
    },
    {
      "midi": 62,
      "hit": false,
      "t": 144590.08199999985,
      "d": 358.6063541666663,
      "v": 107
    },
    {
      "midi": 60,
      "hit": false,
      "t": 144590.08199999985,
      "d": 522.5406874999753,
      "v": 102
    },
    {
      "midi": 54,
      "hit": false,
      "t": 145081.88499999983,
      "d": 102.45895833332906,
      "v": 87
    },
    {
      "midi": 50,
      "hit": false,
      "t": 145573.68799999982,
      "d": 389.34404166665627,
      "v": 102
    },
    {
      "midi": 55,
      "hit": false,
      "t": 145573.68799999982,
      "d": 563.5242708333244,
      "v": 109
    },
    {
      "midi": 58,
      "hit": false,
      "t": 145573.68799999982,
      "d": 594.2619583333144,
      "v": 105
    },
    {
      "midi": 43,
      "hit": false,
      "t": 145573.68799999982,
      "d": 819.6716666666325,
      "v": 113
    },
    {
      "midi": 43,
      "hit": false,
      "t": 145573.6880000001,
      "d": 1905.7366250000196,
      "v": 111
    },
    {
      "midi": 50,
      "hit": false,
      "t": 145819.58950000012,
      "d": 1639.3433333333523,
      "v": 107
    },
    {
      "midi": 50,
      "hit": false,
      "t": 146065.4909999998,
      "d": 204.91791666665813,
      "v": 81
    },
    {
      "midi": 53,
      "hit": false,
      "t": 146065.49100000013,
      "d": 1465.1631041666842,
      "v": 101
    },
    {
      "midi": 58,
      "hit": false,
      "t": 146311.39250000013,
      "d": 1229.507500000007,
      "v": 115
    },
    {
      "midi": 55,
      "hit": false,
      "t": 146557.2939999998,
      "d": 184.42612499999814,
      "v": 105
    },
    {
      "midi": 58,
      "hit": false,
      "t": 146557.2939999998,
      "d": 194.67202083332813,
      "v": 101
    },
    {
      "midi": 41,
      "hit": false,
      "t": 147049.09699999978,
      "d": 40.983583333319984,
      "v": 60
    },
    {
      "midi": 43,
      "hit": false,
      "t": 147049.09699999978,
      "d": 71.72127083330997,
      "v": 68
    },
    {
      "midi": 55,
      "hit": false,
      "t": 147540.89999999976,
      "d": 358.6063541666663,
      "v": 105
    },
    {
      "midi": 46,
      "hit": false,
      "t": 147540.89999999976,
      "d": 471.31120833332534,
      "v": 113
    },
    {
      "midi": 58,
      "hit": false,
      "t": 147540.89999999976,
      "d": 522.5406874999753,
      "v": 115
    },
    {
      "midi": 61,
      "hit": false,
      "t": 147540.89999999976,
      "d": 522.5406874999753,
      "v": 112
    },
    {
      "midi": 55,
      "hit": false,
      "t": 147540.90000000014,
      "d": 983.6059999999998,
      "v": 101
    },
    {
      "midi": 61,
      "hit": false,
      "t": 147540.90000000014,
      "d": 983.6059999999998,
      "v": 101
    },
    {
      "midi": 55,
      "hit": false,
      "t": 148032.70299999975,
      "d": 102.45895833332906,
      "v": 90
    },
    {
      "midi": 58,
      "hit": false,
      "t": 148524.50599999976,
      "d": 430.32762500000536,
      "v": 105
    },
    {
      "midi": 48,
      "hit": false,
      "t": 148524.50599999976,
      "d": 860.6552500000107,
      "v": 113
    },
    {
      "midi": 52,
      "hit": false,
      "t": 148524.50599999976,
      "d": 860.6552500000107,
      "v": 103
    },
    {
      "midi": 60,
      "hit": false,
      "t": 148524.50599999976,
      "d": 870.9011458333407,
      "v": 110
    },
    {
      "midi": 52,
      "hit": false,
      "t": 148524.50600000014,
      "d": 983.6059999999998,
      "v": 89
    },
    {
      "midi": 60,
      "hit": false,
      "t": 148524.50600000014,
      "d": 983.6059999999998,
      "v": 89
    },
    {
      "midi": 58,
      "hit": false,
      "t": 149016.30899999978,
      "d": 358.6063541666663,
      "v": 95
    },
    {
      "midi": 53,
      "hit": false,
      "t": 149508.11199999976,
      "d": 399.58993750001537,
      "v": 120
    },
    {
      "midi": 57,
      "hit": false,
      "t": 149508.11199999976,
      "d": 573.7701666666835,
      "v": 123
    },
    {
      "midi": 60,
      "hit": false,
      "t": 149508.11199999976,
      "d": 614.7537500000035,
      "v": 118
    },
    {
      "midi": 29,
      "hit": false,
      "t": 149508.11199999976,
      "d": 1198.769812499988,
      "v": 113
    },
    {
      "midi": 41,
      "hit": false,
      "t": 149508.11199999976,
      "d": 1229.5074999999779,
      "v": 113
    },
    {
      "midi": 41,
      "hit": false,
      "t": 149508.11200000014,
      "d": 2561.473958333372,
      "v": 103
    },
    {
      "midi": 48,
      "hit": false,
      "t": 149754.01350000015,
      "d": 2243.851187500026,
      "v": 111
    },
    {
      "midi": 53,
      "hit": false,
      "t": 149999.91499999978,
      "d": 204.91791666665813,
      "v": 87
    },
    {
      "midi": 55,
      "hit": false,
      "t": 149999.91500000015,
      "d": 81.96716666666907,
      "v": 123
    },
    {
      "midi": 57,
      "hit": false,
      "t": 150245.81650000016,
      "d": 71.72127083333908,
      "v": 114
    },
    {
      "midi": 53,
      "hit": false,
      "t": 150491.71799999976,
      "d": 409.83583333331626,
      "v": 110
    },
    {
      "midi": 57,
      "hit": false,
      "t": 150491.71799999976,
      "d": 850.4093541666516,
      "v": 118
    },
    {
      "midi": 60,
      "hit": false,
      "t": 150491.71799999976,
      "d": 850.4093541666516,
      "v": 114
    },
    {
      "midi": 60,
      "hit": false,
      "t": 150491.71800000017,
      "d": 81.96716666666907,
      "v": 127
    },
    {
      "midi": 29,
      "hit": false,
      "t": 150983.52099999975,
      "d": 327.8686666666763,
      "v": 101
    },
    {
      "midi": 41,
      "hit": false,
      "t": 150983.52099999975,
      "d": 348.3604583333363,
      "v": 96
    },
    {
      "midi": 53,
      "hit": false,
      "t": 150983.52099999975,
      "d": 368.8522499999963,
      "v": 81
    },
    {
      "midi": 53,
      "hit": false,
      "t": 151475.32399999973,
      "d": 440.57352083330625,
      "v": 105
    },
    {
      "midi": 57,
      "hit": false,
      "t": 151475.32399999973,
      "d": 768.4421874999825,
      "v": 107
    },
    {
      "midi": 60,
      "hit": false,
      "t": 151475.32399999973,
      "d": 778.6880833333125,
      "v": 107
    },
    {
      "midi": 29,
      "hit": false,
      "t": 151475.32399999973,
      "d": 1014.3436874999607,
      "v": 109
    },
    {
      "midi": 41,
      "hit": false,
      "t": 151475.32399999973,
      "d": 1055.3272708332806,
      "v": 105
    },
    {
      "midi": 53,
      "hit": false,
      "t": 151967.12699999972,
      "d": 286.8850833333272,
      "v": 82
    },
    {
      "midi": 53,
      "hit": false,
      "t": 152458.9299999997,
      "d": 348.3604583333072,
      "v": 110
    },
    {
      "midi": 57,
      "hit": false,
      "t": 152458.9299999997,
      "d": 522.5406874999753,
      "v": 118
    },
    {
      "midi": 60,
      "hit": false,
      "t": 152458.9299999997,
      "d": 532.7865833333053,
      "v": 113
    },
    {
      "midi": 53,
      "hit": false,
      "t": 152950.7329999997,
      "d": 81.96716666663997,
      "v": 85
    },
    {
      "midi": 57,
      "hit": false,
      "t": 153442.53599999967,
      "d": 440.57352083333535,
      "v": 111
    },
    {
      "midi": 60,
      "hit": false,
      "t": 153442.53599999967,
      "d": 747.9503958333516,
      "v": 107
    },
    {
      "midi": 64,
      "hit": false,
      "t": 153442.53599999967,
      "d": 758.1962916666816,
      "v": 102
    },
    {
      "midi": 33,
      "hit": false,
      "t": 153442.53599999967,
      "d": 1147.540333333338,
      "v": 102
    },
    {
      "midi": 45,
      "hit": false,
      "t": 153442.53599999967,
      "d": 1188.523916666658,
      "v": 107
    },
    {
      "midi": 45,
      "hit": false,
      "t": 153442.53600000017,
      "d": 3688.522500000021,
      "v": 110
    },
    {
      "midi": 52,
      "hit": false,
      "t": 153688.43750000017,
      "d": 3422.1292083333537,
      "v": 125
    },
    {
      "midi": 57,
      "hit": false,
      "t": 153934.3389999997,
      "d": 276.6391874999972,
      "v": 86
    },
    {
      "midi": 55,
      "hit": false,
      "t": 153934.33900000018,
      "d": 3227.4571874999965,
      "v": 123
    },
    {
      "midi": 67,
      "hit": false,
      "t": 154180.2405000002,
      "d": 2981.5556874999893,
      "v": 114
    },
    {
      "midi": 60,
      "hit": false,
      "t": 154426.14199999967,
      "d": 788.9339791666425,
      "v": 111
    },
    {
      "midi": 57,
      "hit": false,
      "t": 154426.14199999967,
      "d": 799.1798749999725,
      "v": 107
    },
    {
      "midi": 64,
      "hit": false,
      "t": 154426.14199999967,
      "d": 799.1798749999725,
      "v": 111
    },
    {
      "midi": 64,
      "hit": false,
      "t": 154426.1420000002,
      "d": 2725.408291666652,
      "v": 105
    },
    {
      "midi": 33,
      "hit": false,
      "t": 154917.94499999966,
      "d": 297.1309791666572,
      "v": 99
    },
    {
      "midi": 45,
      "hit": false,
      "t": 154917.94499999966,
      "d": 327.8686666666472,
      "v": 99
    },
    {
      "midi": 57,
      "hit": false,
      "t": 155409.74799999964,
      "d": 461.06531249999534,
      "v": 107
    },
    {
      "midi": 60,
      "hit": false,
      "t": 155409.74799999964,
      "d": 778.6880833333125,
      "v": 109
    },
    {
      "midi": 64,
      "hit": false,
      "t": 155409.74799999964,
      "d": 799.1798749999725,
      "v": 106
    },
    {
      "midi": 33,
      "hit": false,
      "t": 155409.74799999964,
      "d": 1475.408999999985,
      "v": 102
    },
    {
      "midi": 45,
      "hit": false,
      "t": 155409.74799999964,
      "d": 1516.392583333305,
      "v": 106
    },
    {
      "midi": 57,
      "hit": false,
      "t": 155901.55099999963,
      "d": 286.8850833333272,
      "v": 77
    },
    {
      "midi": 57,
      "hit": false,
      "t": 156393.3539999996,
      "d": 317.6227708333463,
      "v": 107
    },
    {
      "midi": 60,
      "hit": false,
      "t": 156393.3539999996,
      "d": 522.5406875000044,
      "v": 111
    },
    {
      "midi": 64,
      "hit": false,
      "t": 156393.3539999996,
      "d": 522.5406875000044,
      "v": 109
    },
    {
      "midi": 57,
      "hit": false,
      "t": 156885.15699999963,
      "d": 163.93433333330904,
      "v": 74
    },
    {
      "midi": 60,
      "hit": false,
      "t": 157376.95999999958,
      "d": 655.7373333333235,
      "v": 106
    },
    {
      "midi": 63,
      "hit": false,
      "t": 157376.95999999958,
      "d": 706.9668125000026,
      "v": 105
    },
    {
      "midi": 55,
      "hit": false,
      "t": 157376.95999999958,
      "d": 717.2127083333326,
      "v": 109
    },
    {
      "midi": 27,
      "hit": false,
      "t": 157376.95999999958,
      "d": 901.6388333333307,
      "v": 90
    },
    {
      "midi": 39,
      "hit": false,
      "t": 157376.95999999958,
      "d": 1004.0977916666598,
      "v": 96
    },
    {
      "midi": 51,
      "hit": false,
      "t": 157376.96000000017,
      "d": 1864.7530416666996,
      "v": 113
    },
    {
      "midi": 55,
      "hit": false,
      "t": 157622.86150000017,
      "d": 1700.8187083333614,
      "v": 116
    },
    {
      "midi": 60,
      "hit": false,
      "t": 157868.76300000018,
      "d": 1588.1138541666733,
      "v": 103
    },
    {
      "midi": 67,
      "hit": false,
      "t": 158114.6645000002,
      "d": 1229.507500000007,
      "v": 116
    },
    {
      "midi": 63,
      "hit": false,
      "t": 158360.56599999958,
      "d": 450.81941666666535,
      "v": 107
    },
    {
      "midi": 55,
      "hit": false,
      "t": 158360.56599999958,
      "d": 471.31120833332534,
      "v": 114
    },
    {
      "midi": 60,
      "hit": false,
      "t": 158360.56599999958,
      "d": 471.31120833332534,
      "v": 110
    },
    {
      "midi": 39,
      "hit": false,
      "t": 158852.36899999957,
      "d": 143.44254166667815,
      "v": 87
    },
    {
      "midi": 54,
      "hit": false,
      "t": 159344.17199999958,
      "d": 409.83583333334536,
      "v": 101
    },
    {
      "midi": 60,
      "hit": false,
      "t": 159344.17199999958,
      "d": 614.7537500000035,
      "v": 103
    },
    {
      "midi": 62,
      "hit": false,
      "t": 159344.17199999958,
      "d": 614.7537500000035,
      "v": 106
    },
    {
      "midi": 26,
      "hit": false,
      "t": 159344.17199999958,
      "d": 768.4421875000116,
      "v": 109
    },
    {
      "midi": 38,
      "hit": false,
      "t": 159344.17199999958,
      "d": 819.6716666666907,
      "v": 114
    },
    {
      "midi": 50,
      "hit": false,
      "t": 159344.1720000002,
      "d": 1874.9989375000005,
      "v": 113
    },
    {
      "midi": 54,
      "hit": false,
      "t": 159590.07350000017,
      "d": 1680.3269166666723,
      "v": 107
    },
    {
      "midi": 54,
      "hit": false,
      "t": 159835.9749999996,
      "d": 266.3932916666672,
      "v": 79
    },
    {
      "midi": 60,
      "hit": false,
      "t": 159835.97500000018,
      "d": 1424.1795208333351,
      "v": 98
    },
    {
      "midi": 66,
      "hit": false,
      "t": 160081.8765000002,
      "d": 1229.5074999999779,
      "v": 108
    },
    {
      "midi": 54,
      "hit": false,
      "t": 160327.7779999996,
      "d": 307.3768749999872,
      "v": 102
    },
    {
      "midi": 62,
      "hit": false,
      "t": 160327.7779999996,
      "d": 358.6063541666663,
      "v": 107
    },
    {
      "midi": 60,
      "hit": false,
      "t": 160327.7779999996,
      "d": 522.5406874999753,
      "v": 102
    },
    {
      "midi": 54,
      "hit": false,
      "t": 160819.5809999996,
      "d": 102.45895833332906,
      "v": 87
    },
    {
      "midi": 50,
      "hit": false,
      "t": 161311.38399999958,
      "d": 389.34404166665627,
      "v": 102
    },
    {
      "midi": 55,
      "hit": false,
      "t": 161311.38399999958,
      "d": 563.5242708333244,
      "v": 109
    },
    {
      "midi": 58,
      "hit": false,
      "t": 161311.38399999958,
      "d": 594.2619583333144,
      "v": 105
    },
    {
      "midi": 43,
      "hit": false,
      "t": 161311.38399999958,
      "d": 819.6716666666325,
      "v": 113
    },
    {
      "midi": 43,
      "hit": false,
      "t": 161311.38400000017,
      "d": 1905.7366250000196,
      "v": 111
    },
    {
      "midi": 50,
      "hit": false,
      "t": 161557.28550000017,
      "d": 1639.3433333333523,
      "v": 107
    },
    {
      "midi": 50,
      "hit": false,
      "t": 161803.18699999957,
      "d": 204.91791666665813,
      "v": 81
    },
    {
      "midi": 53,
      "hit": false,
      "t": 161803.18700000018,
      "d": 1465.1631041666842,
      "v": 101
    },
    {
      "midi": 58,
      "hit": false,
      "t": 162049.0885000002,
      "d": 1229.507500000007,
      "v": 115
    },
    {
      "midi": 55,
      "hit": false,
      "t": 162294.98999999955,
      "d": 184.42612499999814,
      "v": 105
    },
    {
      "midi": 58,
      "hit": false,
      "t": 162294.98999999955,
      "d": 194.67202083332813,
      "v": 101
    },
    {
      "midi": 43,
      "hit": false,
      "t": 162786.79299999954,
      "d": 71.72127083333908,
      "v": 68
    },
    {
      "midi": 65,
      "hit": false,
      "t": 163278.59599999955,
      "d": 491.80300000001444,
      "v": 102
    },
    {
      "midi": 69,
      "hit": false,
      "t": 163278.59599999955,
      "d": 491.80300000001444,
      "v": 102
    },
    {
      "midi": 55,
      "hit": false,
      "t": 163278.5960000002,
      "d": 983.6059999999998,
      "v": 101
    },
    {
      "midi": 62,
      "hit": false,
      "t": 163278.5960000002,
      "d": 983.6059999999998,
      "v": 101
    },
    {
      "midi": 64,
      "hit": false,
      "t": 163770.39899999957,
      "d": 491.80300000001444,
      "v": 91
    },
    {
      "midi": 67,
      "hit": false,
      "t": 163770.39899999957,
      "d": 491.80300000001444,
      "v": 100
    },
    {
      "midi": 67,
      "hit": false,
      "t": 164262.20199999958,
      "d": 491.80300000001444,
      "v": 113
    },
    {
      "midi": 70,
      "hit": false,
      "t": 164262.20199999958,
      "d": 491.80300000001444,
      "v": 113
    },
    {
      "midi": 52,
      "hit": false,
      "t": 164262.2020000002,
      "d": 1967.2119999999995,
      "v": 89
    },
    {
      "midi": 61,
      "hit": false,
      "t": 164262.2020000002,
      "d": 1967.2119999999995,
      "v": 89
    },
    {
      "midi": 65,
      "hit": false,
      "t": 164754.0049999996,
      "d": 553.2783750000235,
      "v": 91
    },
    {
      "midi": 69,
      "hit": false,
      "t": 164754.0049999996,
      "d": 553.2783750000235,
      "v": 110
    },
    {
      "midi": 64,
      "hit": false,
      "t": 165245.8079999996,
      "d": 491.80300000001444,
      "v": 113
    },
    {
      "midi": 67,
      "hit": false,
      "t": 165245.8079999996,
      "d": 491.80300000001444,
      "v": 113
    },
    {
      "midi": 65,
      "hit": false,
      "t": 165737.61099999963,
      "d": 553.2783750000235,
      "v": 91
    },
    {
      "midi": 69,
      "hit": false,
      "t": 165737.61099999963,
      "d": 553.2783750000235,
      "v": 110
    },
    {
      "midi": 63,
      "hit": false,
      "t": 166229.41399999964,
      "d": 491.80300000001444,
      "v": 102
    },
    {
      "midi": 67,
      "hit": false,
      "t": 166229.41399999964,
      "d": 491.80300000001444,
      "v": 102
    },
    {
      "midi": 53,
      "hit": false,
      "t": 166229.4140000002,
      "d": 983.6059999999998,
      "v": 101
    },
    {
      "midi": 60,
      "hit": false,
      "t": 166229.4140000002,
      "d": 983.6059999999998,
      "v": 101
    },
    {
      "midi": 62,
      "hit": false,
      "t": 166721.21699999965,
      "d": 491.80300000001444,
      "v": 91
    },
    {
      "midi": 65,
      "hit": false,
      "t": 166721.21699999965,
      "d": 491.80300000001444,
      "v": 100
    },
    {
      "midi": 65,
      "hit": false,
      "t": 167213.01999999967,
      "d": 491.80300000001444,
      "v": 113
    },
    {
      "midi": 68,
      "hit": false,
      "t": 167213.01999999967,
      "d": 491.80300000001444,
      "v": 113
    },
    {
      "midi": 50,
      "hit": false,
      "t": 167213.0200000002,
      "d": 1967.2119999999995,
      "v": 89
    },
    {
      "midi": 59,
      "hit": false,
      "t": 167213.0200000002,
      "d": 1967.2119999999995,
      "v": 89
    },
    {
      "midi": 63,
      "hit": false,
      "t": 167704.82299999968,
      "d": 553.2783750000235,
      "v": 91
    },
    {
      "midi": 67,
      "hit": false,
      "t": 167704.82299999968,
      "d": 553.2783750000235,
      "v": 110
    },
    {
      "midi": 62,
      "hit": false,
      "t": 168196.6259999997,
      "d": 491.80300000001444,
      "v": 113
    },
    {
      "midi": 65,
      "hit": false,
      "t": 168196.6259999997,
      "d": 491.80300000001444,
      "v": 113
    },
    {
      "midi": 63,
      "hit": false,
      "t": 168688.4289999997,
      "d": 1475.4090000000142,
      "v": 91
    },
    {
      "midi": 67,
      "hit": false,
      "t": 168688.4289999997,
      "d": 1475.4090000000142,
      "v": 110
    },
    {
      "midi": 63,
      "hit": false,
      "t": 171147.44399999973,
      "d": 358.6063541666663,
      "v": 90
    },
    {
      "midi": 48,
      "hit": false,
      "t": 171147.44399999973,
      "d": 1752.0481875000114,
      "v": 109
    },
    {
      "midi": 55,
      "hit": false,
      "t": 171475.3126666664,
      "d": 420.08172916664626,
      "v": 78
    },
    {
      "midi": 60,
      "hit": false,
      "t": 171803.18133333305,
      "d": 266.3932916666672,
      "v": 82
    },
    {
      "midi": 63,
      "hit": false,
      "t": 172131.04999999973,
      "d": 338.1145625000063,
      "v": 91
    },
    {
      "midi": 55,
      "hit": false,
      "t": 172458.9186666664,
      "d": 409.83583333334536,
      "v": 94
    },
    {
      "midi": 60,
      "hit": false,
      "t": 172786.78733333308,
      "d": 204.91791666665813,
      "v": 84
    },
    {
      "midi": 65,
      "hit": false,
      "t": 173114.65599999973,
      "d": 409.83583333334536,
      "v": 92
    },
    {
      "midi": 50,
      "hit": false,
      "t": 173114.65599999973,
      "d": 635.2455416666926,
      "v": 103
    },
    {
      "midi": 55,
      "hit": false,
      "t": 173442.5246666664,
      "d": 481.55710416668444,
      "v": 77
    },
    {
      "midi": 60,
      "hit": false,
      "t": 173770.39333333308,
      "d": 174.18022916666814,
      "v": 78
    },
    {
      "midi": 67,
      "hit": false,
      "t": 174098.26199999976,
      "d": 399.58993749998626,
      "v": 97
    },
    {
      "midi": 51,
      "hit": false,
      "t": 174098.26199999976,
      "d": 604.5078541666444,
      "v": 110
    },
    {
      "midi": 55,
      "hit": false,
      "t": 174426.1306666664,
      "d": 307.3768749999872,
      "v": 94
    },
    {
      "midi": 60,
      "hit": false,
      "t": 174753.99933333305,
      "d": 163.93433333333815,
      "v": 83
    },
    {
      "midi": 68,
      "hit": false,
      "t": 175081.86799999973,
      "d": 368.8522499999963,
      "v": 98
    },
    {
      "midi": 53,
      "hit": false,
      "t": 175081.86799999973,
      "d": 450.81941666666535,
      "v": 109
    },
    {
      "midi": 56,
      "hit": false,
      "t": 175409.7366666664,
      "d": 491.80299999998533,
      "v": 82
    },
    {
      "midi": 60,
      "hit": false,
      "t": 175737.60533333305,
      "d": 163.93433333333815,
      "v": 83
    },
    {
      "midi": 65,
      "hit": false,
      "t": 176065.47399999973,
      "d": 491.80299999998533,
      "v": 90
    },
    {
      "midi": 50,
      "hit": false,
      "t": 176065.47399999973,
      "d": 686.4750208333135,
      "v": 102
    },
    {
      "midi": 56,
      "hit": false,
      "t": 176393.3426666664,
      "d": 389.34404166662716,
      "v": 79
    },
    {
      "midi": 60,
      "hit": false,
      "t": 176721.21133333305,
      "d": 122.95074999998906,
      "v": 85
    },
    {
      "midi": 63,
      "hit": false,
      "t": 177049.0799999997,
      "d": 389.34404166665627,
      "v": 91
    },
    {
      "midi": 43,
      "hit": false,
      "t": 177049.0799999997,
      "d": 1967.2119999999704,
      "v": 105
    },
    {
      "midi": 53,
      "hit": false,
      "t": 177376.94866666634,
      "d": 840.1634583333507,
      "v": 85
    },
    {
      "midi": 59,
      "hit": false,
      "t": 177704.81733333302,
      "d": 532.7865833333344,
      "v": 85
    },
    {
      "midi": 62,
      "hit": false,
      "t": 178032.6859999997,
      "d": 922.1306249999907,
      "v": 99
    },
    {
      "midi": 53,
      "hit": false,
      "t": 178360.55466666634,
      "d": 614.7537500000035,
      "v": 87
    },
    {
      "midi": 59,
      "hit": false,
      "t": 178688.42333333302,
      "d": 286.8850833333272,
      "v": 95
    },
    {
      "midi": 63,
      "hit": false,
      "t": 179016.29199999967,
      "d": 358.6063541666663,
      "v": 90
    },
    {
      "midi": 48,
      "hit": false,
      "t": 179016.29199999967,
      "d": 1752.0481875000114,
      "v": 109
    },
    {
      "midi": 55,
      "hit": false,
      "t": 179344.16066666634,
      "d": 420.08172916664626,
      "v": 78
    },
    {
      "midi": 60,
      "hit": false,
      "t": 179672.029333333,
      "d": 266.3932916666672,
      "v": 82
    },
    {
      "midi": 63,
      "hit": false,
      "t": 179999.89799999967,
      "d": 338.1145625000063,
      "v": 91
    },
    {
      "midi": 55,
      "hit": false,
      "t": 180327.76666666634,
      "d": 409.83583333334536,
      "v": 94
    },
    {
      "midi": 60,
      "hit": false,
      "t": 180655.63533333302,
      "d": 204.91791666665813,
      "v": 84
    },
    {
      "midi": 65,
      "hit": false,
      "t": 180983.50399999967,
      "d": 409.83583333334536,
      "v": 92
    },
    {
      "midi": 50,
      "hit": false,
      "t": 180983.50399999967,
      "d": 635.2455416666926,
      "v": 103
    },
    {
      "midi": 55,
      "hit": false,
      "t": 181311.37266666634,
      "d": 481.55710416668444,
      "v": 77
    },
    {
      "midi": 60,
      "hit": false,
      "t": 181639.24133333302,
      "d": 174.18022916666814,
      "v": 78
    },
    {
      "midi": 67,
      "hit": false,
      "t": 181967.1099999997,
      "d": 399.58993749998626,
      "v": 97
    },
    {
      "midi": 51,
      "hit": false,
      "t": 181967.1099999997,
      "d": 604.5078541666444,
      "v": 110
    },
    {
      "midi": 55,
      "hit": false,
      "t": 182294.97866666634,
      "d": 307.3768749999872,
      "v": 94
    },
    {
      "midi": 60,
      "hit": false,
      "t": 182622.847333333,
      "d": 163.93433333333815,
      "v": 83
    },
    {
      "midi": 68,
      "hit": false,
      "t": 182950.71599999967,
      "d": 368.8522499999963,
      "v": 98
    },
    {
      "midi": 53,
      "hit": false,
      "t": 182950.71599999967,
      "d": 450.81941666666535,
      "v": 109
    },
    {
      "midi": 56,
      "hit": false,
      "t": 183278.58466666634,
      "d": 491.80299999998533,
      "v": 82
    },
    {
      "midi": 60,
      "hit": false,
      "t": 183606.453333333,
      "d": 163.93433333333815,
      "v": 83
    },
    {
      "midi": 65,
      "hit": false,
      "t": 183934.32199999967,
      "d": 491.80299999998533,
      "v": 90
    },
    {
      "midi": 50,
      "hit": false,
      "t": 183934.32199999967,
      "d": 686.4750208333135,
      "v": 102
    },
    {
      "midi": 56,
      "hit": false,
      "t": 184262.19066666634,
      "d": 389.34404166662716,
      "v": 79
    },
    {
      "midi": 60,
      "hit": false,
      "t": 184590.059333333,
      "d": 122.95074999998906,
      "v": 85
    },
    {
      "midi": 63,
      "hit": false,
      "t": 184917.92799999964,
      "d": 389.34404166665627,
      "v": 91
    },
    {
      "midi": 43,
      "hit": false,
      "t": 184917.92799999964,
      "d": 1967.2119999999704,
      "v": 105
    },
    {
      "midi": 53,
      "hit": false,
      "t": 185245.79666666628,
      "d": 840.1634583333507,
      "v": 85
    },
    {
      "midi": 59,
      "hit": false,
      "t": 185573.66533333296,
      "d": 532.7865833333344,
      "v": 85
    },
    {
      "midi": 62,
      "hit": false,
      "t": 185901.53399999964,
      "d": 922.1306249999907,
      "v": 99
    },
    {
      "midi": 53,
      "hit": false,
      "t": 186229.40266666628,
      "d": 614.7537500000035,
      "v": 87
    },
    {
      "midi": 59,
      "hit": false,
      "t": 186557.27133333296,
      "d": 286.8850833333272,
      "v": 95
    },
    {
      "midi": 63,
      "hit": false,
      "t": 186885.1399999996,
      "d": 358.6063541666663,
      "v": 90
    },
    {
      "midi": 48,
      "hit": false,
      "t": 186885.1399999996,
      "d": 1752.0481875000114,
      "v": 109
    },
    {
      "midi": 55,
      "hit": false,
      "t": 187213.00866666628,
      "d": 420.08172916664626,
      "v": 78
    },
    {
      "midi": 60,
      "hit": false,
      "t": 187540.87733333293,
      "d": 266.3932916666672,
      "v": 82
    },
    {
      "midi": 63,
      "hit": false,
      "t": 187868.7459999996,
      "d": 338.1145625000063,
      "v": 91
    },
    {
      "midi": 55,
      "hit": false,
      "t": 188196.61466666628,
      "d": 409.83583333334536,
      "v": 94
    },
    {
      "midi": 60,
      "hit": false,
      "t": 188524.48333333296,
      "d": 204.91791666665813,
      "v": 84
    },
    {
      "midi": 65,
      "hit": false,
      "t": 188852.3519999996,
      "d": 409.83583333334536,
      "v": 92
    },
    {
      "midi": 50,
      "hit": false,
      "t": 188852.3519999996,
      "d": 635.2455416666926,
      "v": 103
    },
    {
      "midi": 55,
      "hit": false,
      "t": 189180.22066666628,
      "d": 481.55710416668444,
      "v": 77
    },
    {
      "midi": 60,
      "hit": false,
      "t": 189508.08933333296,
      "d": 174.18022916666814,
      "v": 78
    },
    {
      "midi": 67,
      "hit": false,
      "t": 189835.95799999963,
      "d": 399.58993749998626,
      "v": 97
    },
    {
      "midi": 51,
      "hit": false,
      "t": 189835.95799999963,
      "d": 604.5078541666444,
      "v": 110
    },
    {
      "midi": 55,
      "hit": false,
      "t": 190163.82666666628,
      "d": 307.3768749999872,
      "v": 94
    },
    {
      "midi": 60,
      "hit": false,
      "t": 190491.69533333293,
      "d": 163.93433333333815,
      "v": 83
    },
    {
      "midi": 67,
      "hit": false,
      "t": 190819.5639999996,
      "d": 368.8522499999963,
      "v": 98
    },
    {
      "midi": 52,
      "hit": false,
      "t": 190819.5639999996,
      "d": 450.81941666666535,
      "v": 109
    },
    {
      "midi": 61,
      "hit": false,
      "t": 191147.43266666628,
      "d": 491.80299999998533,
      "v": 82
    },
    {
      "midi": 58,
      "hit": false,
      "t": 191475.30133333293,
      "d": 163.93433333333815,
      "v": 83
    },
    {
      "midi": 61,
      "hit": false,
      "t": 191803.1699999996,
      "d": 491.80299999998533,
      "v": 90
    },
    {
      "midi": 70,
      "hit": false,
      "t": 191803.1699999996,
      "d": 686.4750208333135,
      "v": 102
    },
    {
      "midi": 55,
      "hit": false,
      "t": 192131.03866666628,
      "d": 389.34404166662716,
      "v": 79
    },
    {
      "midi": 52,
      "hit": false,
      "t": 192458.90733333293,
      "d": 122.95074999998906,
      "v": 85
    },
    {
      "midi": 69,
      "hit": false,
      "t": 192786.77599999958,
      "d": 389.34404166665627,
      "v": 91
    },
    {
      "midi": 49,
      "hit": false,
      "t": 192786.77599999958,
      "d": 1967.2119999999704,
      "v": 105
    },
    {
      "midi": 64,
      "hit": false,
      "t": 193114.64466666622,
      "d": 840.1634583333507,
      "v": 85
    },
    {
      "midi": 57,
      "hit": false,
      "t": 193442.5133333329,
      "d": 532.7865833333344,
      "v": 85
    },
    {
      "midi": 67,
      "hit": false,
      "t": 193770.38199999958,
      "d": 922.1306249999907,
      "v": 99
    },
    {
      "midi": 61,
      "hit": false,
      "t": 194098.25066666622,
      "d": 614.7537500000035,
      "v": 87
    },
    {
      "midi": 55,
      "hit": false,
      "t": 194426.1193333329,
      "d": 286.8850833333272,
      "v": 95
    },
    {
      "midi": 65,
      "hit": false,
      "t": 194753.98799999955,
      "d": 358.6063541666663,
      "v": 90
    },
    {
      "midi": 50,
      "hit": false,
      "t": 194753.98799999955,
      "d": 1752.0481875000114,
      "v": 109
    },
    {
      "midi": 62,
      "hit": false,
      "t": 195081.85666666622,
      "d": 420.08172916664626,
      "v": 78
    },
    {
      "midi": 60,
      "hit": false,
      "t": 195409.72533333287,
      "d": 266.3932916666672,
      "v": 82
    },
    {
      "midi": 68,
      "hit": false,
      "t": 195737.59399999955,
      "d": 338.1145625000063,
      "v": 91
    },
    {
      "midi": 62,
      "hit": false,
      "t": 196065.46266666622,
      "d": 409.83583333334536,
      "v": 94
    },
    {
      "midi": 60,
      "hit": false,
      "t": 196393.3313333329,
      "d": 204.91791666665813,
      "v": 84
    },
    {
      "midi": 67,
      "hit": false,
      "t": 196721.19999999955,
      "d": 409.83583333334536,
      "v": 92
    },
    {
      "midi": 47,
      "hit": false,
      "t": 196721.19999999955,
      "d": 635.2455416666926,
      "v": 103
    },
    {
      "midi": 62,
      "hit": false,
      "t": 197049.06866666622,
      "d": 481.55710416668444,
      "v": 77
    },
    {
      "midi": 55,
      "hit": false,
      "t": 197376.9373333329,
      "d": 174.18022916666814,
      "v": 78
    },
    {
      "midi": 65,
      "hit": false,
      "t": 197704.80599999957,
      "d": 399.58993749998626,
      "v": 97
    },
    {
      "midi": 43,
      "hit": false,
      "t": 197704.80599999957,
      "d": 604.5078541666444,
      "v": 110
    },
    {
      "midi": 59,
      "hit": false,
      "t": 198032.67466666622,
      "d": 307.3768749999872,
      "v": 94
    },
    {
      "midi": 53,
      "hit": false,
      "t": 198360.54333333287,
      "d": 163.93433333333815,
      "v": 83
    },
    {
      "midi": 63,
      "hit": false,
      "t": 198688.41199999955,
      "d": 368.8522499999963,
      "v": 98
    },
    {
      "midi": 48,
      "hit": false,
      "t": 198688.41199999955,
      "d": 450.81941666666535,
      "v": 109
    },
    {
      "midi": 58,
      "hit": false,
      "t": 199016.28066666622,
      "d": 491.80299999998533,
      "v": 82
    },
    {
      "midi": 54,
      "hit": false,
      "t": 199344.14933333287,
      "d": 163.93433333333815,
      "v": 83
    },
    {
      "midi": 66,
      "hit": false,
      "t": 199672.01799999955,
      "d": 491.80299999998533,
      "v": 90
    },
    {
      "midi": 46,
      "hit": false,
      "t": 199672.01799999955,
      "d": 686.4750208333135,
      "v": 102
    },
    {
      "midi": 58,
      "hit": false,
      "t": 199999.88666666622,
      "d": 389.34404166662716,
      "v": 79
    },
    {
      "midi": 60,
      "hit": false,
      "t": 200327.75533333287,
      "d": 122.95074999998906,
      "v": 85
    },
    {
      "midi": 65,
      "hit": false,
      "t": 200655.62399999952,
      "d": 389.34404166665627,
      "v": 91
    },
    {
      "midi": 45,
      "hit": false,
      "t": 200655.62399999952,
      "d": 1967.2119999999704,
      "v": 105
    },
    {
      "midi": 53,
      "hit": false,
      "t": 200983.49266666616,
      "d": 840.1634583333507,
      "v": 85
    },
    {
      "midi": 60,
      "hit": false,
      "t": 201311.36133333284,
      "d": 532.7865833333344,
      "v": 85
    },
    {
      "midi": 63,
      "hit": false,
      "t": 201639.22999999952,
      "d": 922.1306249999907,
      "v": 99
    },
    {
      "midi": 53,
      "hit": false,
      "t": 201967.09866666616,
      "d": 614.7537500000035,
      "v": 87
    },
    {
      "midi": 60,
      "hit": false,
      "t": 202294.96733333284,
      "d": 286.8850833333272,
      "v": 95
    },
    {
      "midi": 53,
      "hit": false,
      "t": 202622.8359999995,
      "d": 327.8686666666763,
      "v": 72
    },
    {
      "midi": 65,
      "hit": false,
      "t": 202622.8359999995,
      "d": 430.32762500000536,
      "v": 89
    },
    {
      "midi": 60,
      "hit": false,
      "t": 202622.8359999995,
      "d": 573.7701666666835,
      "v": 88
    },
    {
      "midi": 53,
      "hit": false,
      "t": 203114.6389999995,
      "d": 409.83583333334536,
      "v": 75
    },
    {
      "midi": 65,
      "hit": false,
      "t": 203606.44199999952,
      "d": 368.8522499999963,
      "v": 80
    },
    {
      "midi": 60,
      "hit": false,
      "t": 203606.44199999952,
      "d": 481.55710416665534,
      "v": 77
    },
    {
      "midi": 53,
      "hit": false,
      "t": 204098.2449999995,
      "d": 440.57352083333535,
      "v": 65
    },
    {
      "midi": 65,
      "hit": false,
      "t": 204590.04799999952,
      "d": 348.3604583333363,
      "v": 74
    },
    {
      "midi": 60,
      "hit": false,
      "t": 204590.04799999952,
      "d": 430.32762500000536,
      "v": 81
    },
    {
      "midi": 53,
      "hit": false,
      "t": 205081.85099999953,
      "d": 327.8686666666763,
      "v": 65
    },
    {
      "midi": 65,
      "hit": false,
      "t": 205573.65399999954,
      "d": 225.40970833334723,
      "v": 83
    },
    {
      "midi": 60,
      "hit": false,
      "t": 205573.65399999954,
      "d": 307.3768750000163,
      "v": 83
    },
    {
      "midi": 53,
      "hit": false,
      "t": 206065.45699999956,
      "d": 194.67202083332813,
      "v": 82
    },
    {
      "midi": 53,
      "hit": false,
      "t": 206557.25999999954,
      "d": 297.1309791666572,
      "v": 79
    },
    {
      "midi": 65,
      "hit": false,
      "t": 206557.25999999954,
      "d": 440.57352083333535,
      "v": 88
    },
    {
      "midi": 60,
      "hit": false,
      "t": 206557.25999999954,
      "d": 502.04889583334443,
      "v": 86
    },
    {
      "midi": 29,
      "hit": false,
      "t": 206557.25999999954,
      "d": 3934.42399999997,
      "v": 99
    },
    {
      "midi": 41,
      "hit": false,
      "t": 206557.25999999954,
      "d": 3934.42399999997,
      "v": 85
    },
    {
      "midi": 53,
      "hit": false,
      "t": 207049.06299999956,
      "d": 901.6388333333307,
      "v": 80
    },
    {
      "midi": 65,
      "hit": false,
      "t": 207540.86599999954,
      "d": 481.55710416668444,
      "v": 93
    },
    {
      "midi": 60,
      "hit": false,
      "t": 207540.86599999954,
      "d": 594.2619583333435,
      "v": 86
    },
    {
      "midi": 53,
      "hit": false,
      "t": 208032.66899999956,
      "d": 850.4093541666516,
      "v": 88
    },
    {
      "midi": 65,
      "hit": false,
      "t": 208524.47199999954,
      "d": 471.31120833332534,
      "v": 86
    },
    {
      "midi": 60,
      "hit": false,
      "t": 208524.47199999954,
      "d": 573.7701666666544,
      "v": 82
    },
    {
      "midi": 53,
      "hit": false,
      "t": 209016.27499999953,
      "d": 860.6552500000107,
      "v": 82
    },
    {
      "midi": 60,
      "hit": false,
      "t": 209508.07799999954,
      "d": 942.6224166666507,
      "v": 82
    },
    {
      "midi": 65,
      "hit": false,
      "t": 209508.07799999954,
      "d": 942.6224166666507,
      "v": 85
    },
    {
      "midi": 53,
      "hit": false,
      "t": 209999.88099999953,
      "d": 481.55710416665534,
      "v": 89
    },
    {
      "midi": 53,
      "hit": false,
      "t": 210491.6839999995,
      "d": 450.81941666666535,
      "v": 82
    },
    {
      "midi": 57,
      "hit": false,
      "t": 210491.6839999995,
      "d": 604.5078541666444,
      "v": 88
    },
    {
      "midi": 60,
      "hit": false,
      "t": 210491.6839999995,
      "d": 645.4914374999644,
      "v": 91
    },
    {
      "midi": 41,
      "hit": false,
      "t": 210491.6839999995,
      "d": 3504.0963749999646,
      "v": 93
    },
    {
      "midi": 53,
      "hit": false,
      "t": 210983.4869999995,
      "d": 358.6063541666372,
      "v": 67
    },
    {
      "midi": 65,
      "hit": false,
      "t": 211475.28999999946,
      "d": 399.58993749998626,
      "v": 80
    },
    {
      "midi": 60,
      "hit": false,
      "t": 211475.28999999946,
      "d": 450.81941666666535,
      "v": 84
    },
    {
      "midi": 53,
      "hit": false,
      "t": 211967.09299999944,
      "d": 409.83583333334536,
      "v": 67
    },
    {
      "midi": 65,
      "hit": false,
      "t": 212458.89599999945,
      "d": 409.83583333334536,
      "v": 80
    },
    {
      "midi": 60,
      "hit": false,
      "t": 212458.89599999945,
      "d": 481.55710416668444,
      "v": 80
    },
    {
      "midi": 53,
      "hit": false,
      "t": 212950.69899999947,
      "d": 184.42612499999814,
      "v": 61
    },
    {
      "midi": 57,
      "hit": false,
      "t": 213442.50199999945,
      "d": 430.32762500000536,
      "v": 81
    },
    {
      "midi": 60,
      "hit": false,
      "t": 213442.50199999945,
      "d": 440.57352083333535,
      "v": 81
    },
    {
      "midi": 53,
      "hit": false,
      "t": 213934.30499999947,
      "d": 112.70485416668816,
      "v": 72
    },
    {
      "midi": 55,
      "hit": false,
      "t": 214426.10799999948,
      "d": 399.58993749998626,
      "v": 85
    },
    {
      "midi": 58,
      "hit": false,
      "t": 214426.10799999948,
      "d": 635.2455416666635,
      "v": 84
    },
    {
      "midi": 61,
      "hit": false,
      "t": 214426.10799999948,
      "d": 635.2455416666635,
      "v": 87
    },
    {
      "midi": 41,
      "hit": false,
      "t": 214426.10799999948,
      "d": 2684.424708333332,
      "v": 91
    },
    {
      "midi": 55,
      "hit": false,
      "t": 214917.91099999947,
      "d": 225.40970833334723,
      "v": 78
    },
    {
      "midi": 65,
      "hit": false,
      "t": 215409.71399999948,
      "d": 399.58993749998626,
      "v": 91
    },
    {
      "midi": 58,
      "hit": false,
      "t": 215409.71399999948,
      "d": 430.32762499997625,
      "v": 87
    },
    {
      "midi": 61,
      "hit": false,
      "t": 215409.71399999948,
      "d": 430.32762499997625,
      "v": 91
    },
    {
      "midi": 55,
      "hit": false,
      "t": 215901.51699999947,
      "d": 153.68843750000815,
      "v": 72
    },
    {
      "midi": 53,
      "hit": false,
      "t": 216393.31999999948,
      "d": 348.3604583333363,
      "v": 85
    },
    {
      "midi": 57,
      "hit": false,
      "t": 216393.31999999948,
      "d": 655.7373333333526,
      "v": 92
    },
    {
      "midi": 60,
      "hit": false,
      "t": 216393.31999999948,
      "d": 676.2291250000126,
      "v": 92
    },
    {
      "midi": 53,
      "hit": false,
      "t": 216885.1229999995,
      "d": 245.9014999999781,
      "v": 65
    },
    {
      "midi": 57,
      "hit": false,
      "t": 217376.92599999948,
      "d": 133.19664583331905,
      "v": 87
    },
    {
      "midi": 60,
      "hit": false,
      "t": 217376.92599999948,
      "d": 153.68843749997905,
      "v": 85
    },
    {
      "midi": 65,
      "hit": false,
      "t": 217376.92599999948,
      "d": 194.67202083329903,
      "v": 87
    },
    {
      "midi": 57,
      "hit": false,
      "t": 217868.72899999944,
      "d": 245.90150000000722,
      "v": 64
    },
    {
      "midi": 57,
      "hit": false,
      "t": 218360.53199999945,
      "d": 399.58993749998626,
      "v": 88
    },
    {
      "midi": 60,
      "hit": false,
      "t": 218360.53199999945,
      "d": 553.2783749999944,
      "v": 93
    },
    {
      "midi": 67,
      "hit": false,
      "t": 218360.53199999945,
      "d": 584.0160624999844,
      "v": 99
    },
    {
      "midi": 51,
      "hit": false,
      "t": 218360.53199999945,
      "d": 1434.425416666636,
      "v": 101
    },
    {
      "midi": 57,
      "hit": false,
      "t": 218852.33499999944,
      "d": 286.8850833333272,
      "v": 78
    },
    {
      "midi": 67,
      "hit": false,
      "t": 219344.13799999942,
      "d": 409.83583333334536,
      "v": 96
    },
    {
      "midi": 60,
      "hit": false,
      "t": 219344.13799999942,
      "d": 420.08172916667536,
      "v": 92
    },
    {
      "midi": 57,
      "hit": false,
      "t": 219835.9409999994,
      "d": 122.95074999998906,
      "v": 81
    },
    {
      "midi": 66,
      "hit": false,
      "t": 220327.7439999994,
      "d": 553.2783750000235,
      "v": 87
    },
    {
      "midi": 60,
      "hit": false,
      "t": 220327.7439999994,
      "d": 563.5242708333535,
      "v": 87
    },
    {
      "midi": 50,
      "hit": false,
      "t": 220327.7439999994,
      "d": 1885.2448333333305,
      "v": 96
    },
    {
      "midi": 57,
      "hit": false,
      "t": 220819.5469999994,
      "d": 266.3932916666672,
      "v": 76
    },
    {
      "midi": 60,
      "hit": false,
      "t": 221311.34999999942,
      "d": 881.1470416666416,
      "v": 91
    },
    {
      "midi": 66,
      "hit": false,
      "t": 221311.34999999942,
      "d": 891.3929374999716,
      "v": 91
    },
    {
      "midi": 57,
      "hit": false,
      "t": 221803.1529999994,
      "d": 379.09814583332627,
      "v": 80
    },
    {
      "midi": 58,
      "hit": false,
      "t": 222294.9559999994,
      "d": 338.1145625000063,
      "v": 82
    },
    {
      "midi": 62,
      "hit": false,
      "t": 222294.9559999994,
      "d": 450.81941666666535,
      "v": 87
    },
    {
      "midi": 67,
      "hit": false,
      "t": 222294.9559999994,
      "d": 491.80299999998533,
      "v": 91
    },
    {
      "midi": 43,
      "hit": false,
      "t": 222294.9559999994,
      "d": 1065.5731666666688,
      "v": 87
    },
    {
      "midi": 58,
      "hit": false,
      "t": 222786.75899999938,
      "d": 235.65560416667722,
      "v": 68
    },
    {
      "midi": 58,
      "hit": false,
      "t": 223278.5619999994,
      "d": 276.6391874999972,
      "v": 82
    },
    {
      "midi": 62,
      "hit": false,
      "t": 223278.5619999994,
      "d": 461.06531249999534,
      "v": 97
    },
    {
      "midi": 67,
      "hit": false,
      "t": 223278.5619999994,
      "d": 471.31120833332534,
      "v": 94
    },
    {
      "midi": 43,
      "hit": false,
      "t": 223770.36499999938,
      "d": 122.95074999998906,
      "v": 70
    },
    {
      "midi": 58,
      "hit": false,
      "t": 223770.36499999938,
      "d": 153.68843749997905,
      "v": 65
    },
    {
      "midi": 45,
      "hit": false,
      "t": 224016.26649999936,
      "d": 71.72127083333908,
      "v": 59
    },
    {
      "midi": 58,
      "hit": false,
      "t": 224262.16799999936,
      "d": 327.8686666666763,
      "v": 85
    },
    {
      "midi": 61,
      "hit": false,
      "t": 224262.16799999936,
      "d": 512.2947916666744,
      "v": 88
    },
    {
      "midi": 65,
      "hit": false,
      "t": 224262.16799999936,
      "d": 543.0324791666644,
      "v": 91
    },
    {
      "midi": 46,
      "hit": false,
      "t": 224262.16799999936,
      "d": 1485.6548958333442,
      "v": 94
    },
    {
      "midi": 58,
      "hit": false,
      "t": 224753.97099999938,
      "d": 225.40970833331812,
      "v": 70
    },
    {
      "midi": 61,
      "hit": false,
      "t": 225245.77399999936,
      "d": 338.1145625000063,
      "v": 73
    },
    {
      "midi": 65,
      "hit": false,
      "t": 225245.77399999936,
      "d": 348.3604583333363,
      "v": 85
    },
    {
      "midi": 58,
      "hit": false,
      "t": 225737.57699999938,
      "d": 81.96716666666907,
      "v": 51
    },
    {
      "midi": 53,
      "hit": false,
      "t": 226229.3799999994,
      "d": 368.8522499999963,
      "v": 75
    },
    {
      "midi": 65,
      "hit": false,
      "t": 226229.3799999994,
      "d": 450.81941666666535,
      "v": 86
    },
    {
      "midi": 60,
      "hit": false,
      "t": 226229.3799999994,
      "d": 604.5078541666444,
      "v": 85
    },
    {
      "midi": 45,
      "hit": false,
      "t": 226229.3799999994,
      "d": 1434.425416666636,
      "v": 91
    },
    {
      "midi": 53,
      "hit": false,
      "t": 226721.18299999938,
      "d": 368.8522499999963,
      "v": 66
    },
    {
      "midi": 65,
      "hit": false,
      "t": 227212.98599999936,
      "d": 399.58993749998626,
      "v": 93
    },
    {
      "midi": 60,
      "hit": false,
      "t": 227212.98599999936,
      "d": 450.81941666666535,
      "v": 88
    },
    {
      "midi": 53,
      "hit": false,
      "t": 227704.78899999935,
      "d": 133.19664583331905,
      "v": 73
    },
    {
      "midi": 43,
      "hit": false,
      "t": 228196.59199999933,
      "d": 389.34404166665627,
      "v": 88
    },
    {
      "midi": 53,
      "hit": false,
      "t": 228196.59199999933,
      "d": 409.83583333331626,
      "v": 82
    },
    {
      "midi": 61,
      "hit": false,
      "t": 228196.59199999933,
      "d": 553.2783749999944,
      "v": 87
    },
    {
      "midi": 58,
      "hit": false,
      "t": 228196.59199999933,
      "d": 573.7701666666544,
      "v": 77
    },
    {
      "midi": 53,
      "hit": false,
      "t": 228688.39499999932,
      "d": 163.93433333333815,
      "v": 71
    },
    {
      "midi": 40,
      "hit": false,
      "t": 229180.19799999933,
      "d": 2950.8179999999993,
      "v": 91
    },
    {
      "midi": 58,
      "hit": false,
      "t": 229180.19799999933,
      "d": 2950.8179999999993,
      "v": 77
    },
    {
      "midi": 60,
      "hit": false,
      "t": 229180.19799999933,
      "d": 2950.8179999999993,
      "v": 83
    },
    {
      "midi": 67,
      "hit": false,
      "t": 229180.19799999933,
      "d": 2950.8179999999993,
      "v": 78
    },
    {
      "midi": 53,
      "hit": false,
      "t": 233114.62199999933,
      "d": 399.58993750001537,
      "v": 120
    },
    {
      "midi": 57,
      "hit": false,
      "t": 233114.62199999933,
      "d": 573.7701666666835,
      "v": 123
    },
    {
      "midi": 60,
      "hit": false,
      "t": 233114.62199999933,
      "d": 614.7537500000035,
      "v": 118
    },
    {
      "midi": 29,
      "hit": false,
      "t": 233114.62199999933,
      "d": 1198.769812499988,
      "v": 113
    },
    {
      "midi": 41,
      "hit": false,
      "t": 233114.62199999933,
      "d": 1229.5074999999779,
      "v": 113
    },
    {
      "midi": 41,
      "hit": false,
      "t": 233114.6220000002,
      "d": 2561.473958333372,
      "v": 103
    },
    {
      "midi": 48,
      "hit": false,
      "t": 233360.5235000002,
      "d": 2243.851187500026,
      "v": 111
    },
    {
      "midi": 53,
      "hit": false,
      "t": 233606.42499999935,
      "d": 204.91791666665813,
      "v": 87
    },
    {
      "midi": 55,
      "hit": false,
      "t": 233606.42500000022,
      "d": 81.96716666666907,
      "v": 123
    },
    {
      "midi": 57,
      "hit": false,
      "t": 233852.32650000023,
      "d": 71.72127083333908,
      "v": 114
    },
    {
      "midi": 53,
      "hit": false,
      "t": 234098.22799999933,
      "d": 409.83583333331626,
      "v": 110
    },
    {
      "midi": 57,
      "hit": false,
      "t": 234098.22799999933,
      "d": 850.4093541666516,
      "v": 118
    },
    {
      "midi": 60,
      "hit": false,
      "t": 234098.22799999933,
      "d": 850.4093541666516,
      "v": 114
    },
    {
      "midi": 60,
      "hit": false,
      "t": 234098.22800000024,
      "d": 81.96716666666907,
      "v": 127
    },
    {
      "midi": 29,
      "hit": false,
      "t": 234590.03099999932,
      "d": 327.8686666666763,
      "v": 101
    },
    {
      "midi": 41,
      "hit": false,
      "t": 234590.03099999932,
      "d": 348.3604583333363,
      "v": 96
    },
    {
      "midi": 53,
      "hit": false,
      "t": 234590.03099999932,
      "d": 368.8522499999963,
      "v": 81
    },
    {
      "midi": 53,
      "hit": false,
      "t": 235081.8339999993,
      "d": 440.57352083330625,
      "v": 105
    },
    {
      "midi": 57,
      "hit": false,
      "t": 235081.8339999993,
      "d": 768.4421874999825,
      "v": 107
    },
    {
      "midi": 60,
      "hit": false,
      "t": 235081.8339999993,
      "d": 778.6880833333125,
      "v": 107
    },
    {
      "midi": 29,
      "hit": false,
      "t": 235081.8339999993,
      "d": 1014.3436874999607,
      "v": 109
    },
    {
      "midi": 41,
      "hit": false,
      "t": 235081.8339999993,
      "d": 1055.3272708332806,
      "v": 105
    },
    {
      "midi": 53,
      "hit": false,
      "t": 235573.6369999993,
      "d": 286.8850833333272,
      "v": 82
    },
    {
      "midi": 53,
      "hit": false,
      "t": 236065.43999999927,
      "d": 348.3604583333072,
      "v": 110
    },
    {
      "midi": 57,
      "hit": false,
      "t": 236065.43999999927,
      "d": 522.5406874999753,
      "v": 118
    },
    {
      "midi": 60,
      "hit": false,
      "t": 236065.43999999927,
      "d": 532.7865833333053,
      "v": 113
    },
    {
      "midi": 53,
      "hit": false,
      "t": 236557.24299999926,
      "d": 81.96716666663997,
      "v": 85
    },
    {
      "midi": 57,
      "hit": false,
      "t": 237049.04599999925,
      "d": 440.57352083333535,
      "v": 111
    },
    {
      "midi": 60,
      "hit": false,
      "t": 237049.04599999925,
      "d": 747.9503958333516,
      "v": 107
    },
    {
      "midi": 64,
      "hit": false,
      "t": 237049.04599999925,
      "d": 758.1962916666816,
      "v": 102
    },
    {
      "midi": 33,
      "hit": false,
      "t": 237049.04599999925,
      "d": 1147.540333333338,
      "v": 102
    },
    {
      "midi": 45,
      "hit": false,
      "t": 237049.04599999925,
      "d": 1188.523916666658,
      "v": 107
    },
    {
      "midi": 45,
      "hit": false,
      "t": 237049.04600000023,
      "d": 3688.522500000021,
      "v": 110
    },
    {
      "midi": 52,
      "hit": false,
      "t": 237294.94750000024,
      "d": 3422.1292083333537,
      "v": 125
    },
    {
      "midi": 57,
      "hit": false,
      "t": 237540.84899999926,
      "d": 276.6391874999972,
      "v": 86
    },
    {
      "midi": 55,
      "hit": false,
      "t": 237540.84900000025,
      "d": 3227.4571874999965,
      "v": 123
    },
    {
      "midi": 67,
      "hit": false,
      "t": 237786.75050000026,
      "d": 2981.5556874999893,
      "v": 114
    },
    {
      "midi": 60,
      "hit": false,
      "t": 238032.65199999925,
      "d": 788.9339791666425,
      "v": 111
    },
    {
      "midi": 57,
      "hit": false,
      "t": 238032.65199999925,
      "d": 799.1798749999725,
      "v": 107
    },
    {
      "midi": 64,
      "hit": false,
      "t": 238032.65199999925,
      "d": 799.1798749999725,
      "v": 111
    },
    {
      "midi": 64,
      "hit": false,
      "t": 238032.65200000026,
      "d": 2725.408291666652,
      "v": 105
    },
    {
      "midi": 33,
      "hit": false,
      "t": 238524.45499999923,
      "d": 297.1309791666572,
      "v": 99
    },
    {
      "midi": 45,
      "hit": false,
      "t": 238524.45499999923,
      "d": 327.8686666666472,
      "v": 99
    },
    {
      "midi": 57,
      "hit": false,
      "t": 239016.25799999922,
      "d": 461.06531249999534,
      "v": 107
    },
    {
      "midi": 60,
      "hit": false,
      "t": 239016.25799999922,
      "d": 778.6880833333125,
      "v": 109
    },
    {
      "midi": 64,
      "hit": false,
      "t": 239016.25799999922,
      "d": 799.1798749999725,
      "v": 106
    },
    {
      "midi": 33,
      "hit": false,
      "t": 239016.25799999922,
      "d": 1475.408999999985,
      "v": 102
    },
    {
      "midi": 45,
      "hit": false,
      "t": 239016.25799999922,
      "d": 1516.392583333305,
      "v": 106
    },
    {
      "midi": 57,
      "hit": false,
      "t": 239508.0609999992,
      "d": 286.8850833333272,
      "v": 77
    },
    {
      "midi": 57,
      "hit": false,
      "t": 239999.8639999992,
      "d": 317.6227708333463,
      "v": 107
    },
    {
      "midi": 60,
      "hit": false,
      "t": 239999.8639999992,
      "d": 522.5406875000044,
      "v": 111
    },
    {
      "midi": 64,
      "hit": false,
      "t": 239999.8639999992,
      "d": 522.5406875000044,
      "v": 109
    },
    {
      "midi": 57,
      "hit": false,
      "t": 240491.6669999992,
      "d": 163.93433333330904,
      "v": 74
    },
    {
      "midi": 60,
      "hit": false,
      "t": 240983.46999999916,
      "d": 655.7373333333235,
      "v": 106
    },
    {
      "midi": 63,
      "hit": false,
      "t": 240983.46999999916,
      "d": 706.9668125000026,
      "v": 105
    },
    {
      "midi": 55,
      "hit": false,
      "t": 240983.46999999916,
      "d": 717.2127083333326,
      "v": 109
    },
    {
      "midi": 27,
      "hit": false,
      "t": 240983.46999999916,
      "d": 901.6388333333307,
      "v": 90
    },
    {
      "midi": 39,
      "hit": false,
      "t": 240983.46999999916,
      "d": 1004.0977916666598,
      "v": 96
    },
    {
      "midi": 51,
      "hit": false,
      "t": 240983.47000000023,
      "d": 1864.7530416666996,
      "v": 113
    },
    {
      "midi": 55,
      "hit": false,
      "t": 241229.37150000024,
      "d": 1700.8187083333614,
      "v": 116
    },
    {
      "midi": 60,
      "hit": false,
      "t": 241475.27300000025,
      "d": 1588.1138541666733,
      "v": 103
    },
    {
      "midi": 67,
      "hit": false,
      "t": 241721.17450000026,
      "d": 1229.507500000007,
      "v": 116
    },
    {
      "midi": 63,
      "hit": false,
      "t": 241967.07599999916,
      "d": 450.81941666666535,
      "v": 107
    },
    {
      "midi": 55,
      "hit": false,
      "t": 241967.07599999916,
      "d": 471.31120833332534,
      "v": 114
    },
    {
      "midi": 60,
      "hit": false,
      "t": 241967.07599999916,
      "d": 471.31120833332534,
      "v": 110
    },
    {
      "midi": 39,
      "hit": false,
      "t": 242458.87899999914,
      "d": 143.44254166667815,
      "v": 87
    },
    {
      "midi": 54,
      "hit": false,
      "t": 242950.68199999916,
      "d": 409.83583333334536,
      "v": 101
    },
    {
      "midi": 60,
      "hit": false,
      "t": 242950.68199999916,
      "d": 614.7537500000035,
      "v": 103
    },
    {
      "midi": 62,
      "hit": false,
      "t": 242950.68199999916,
      "d": 614.7537500000035,
      "v": 106
    },
    {
      "midi": 26,
      "hit": false,
      "t": 242950.68199999916,
      "d": 768.4421875000116,
      "v": 109
    },
    {
      "midi": 38,
      "hit": false,
      "t": 242950.68199999916,
      "d": 819.6716666666907,
      "v": 114
    },
    {
      "midi": 50,
      "hit": false,
      "t": 242950.68200000026,
      "d": 1874.9989375000005,
      "v": 113
    },
    {
      "midi": 54,
      "hit": false,
      "t": 243196.58350000024,
      "d": 1680.3269166666723,
      "v": 107
    },
    {
      "midi": 54,
      "hit": false,
      "t": 243442.48499999917,
      "d": 266.3932916666672,
      "v": 79
    },
    {
      "midi": 60,
      "hit": false,
      "t": 243442.48500000025,
      "d": 1424.1795208333351,
      "v": 98
    },
    {
      "midi": 66,
      "hit": false,
      "t": 243688.38650000026,
      "d": 1229.5074999999779,
      "v": 108
    },
    {
      "midi": 54,
      "hit": false,
      "t": 243934.2879999992,
      "d": 307.3768749999872,
      "v": 102
    },
    {
      "midi": 62,
      "hit": false,
      "t": 243934.2879999992,
      "d": 358.6063541666663,
      "v": 107
    },
    {
      "midi": 60,
      "hit": false,
      "t": 243934.2879999992,
      "d": 522.5406874999753,
      "v": 102
    },
    {
      "midi": 54,
      "hit": false,
      "t": 244426.09099999917,
      "d": 102.45895833332906,
      "v": 87
    },
    {
      "midi": 50,
      "hit": false,
      "t": 244917.89399999916,
      "d": 389.34404166665627,
      "v": 102
    },
    {
      "midi": 55,
      "hit": false,
      "t": 244917.89399999916,
      "d": 563.5242708333244,
      "v": 109
    },
    {
      "midi": 58,
      "hit": false,
      "t": 244917.89399999916,
      "d": 594.2619583333144,
      "v": 105
    },
    {
      "midi": 43,
      "hit": false,
      "t": 244917.89399999916,
      "d": 819.6716666666325,
      "v": 113
    },
    {
      "midi": 43,
      "hit": false,
      "t": 244917.89400000023,
      "d": 1905.7366250000196,
      "v": 111
    },
    {
      "midi": 50,
      "hit": false,
      "t": 245163.79550000024,
      "d": 1639.3433333333523,
      "v": 107
    },
    {
      "midi": 50,
      "hit": false,
      "t": 245409.69699999914,
      "d": 204.91791666665813,
      "v": 81
    },
    {
      "midi": 53,
      "hit": false,
      "t": 245409.69700000025,
      "d": 1465.1631041666842,
      "v": 101
    },
    {
      "midi": 58,
      "hit": false,
      "t": 245655.59850000025,
      "d": 1229.507500000007,
      "v": 115
    },
    {
      "midi": 55,
      "hit": false,
      "t": 245901.49999999913,
      "d": 184.42612499999814,
      "v": 105
    },
    {
      "midi": 58,
      "hit": false,
      "t": 245901.49999999913,
      "d": 194.67202083332813,
      "v": 101
    },
    {
      "midi": 41,
      "hit": false,
      "t": 246393.3029999991,
      "d": 40.983583333319984,
      "v": 60
    },
    {
      "midi": 43,
      "hit": false,
      "t": 246393.3029999991,
      "d": 71.72127083330997,
      "v": 68
    },
    {
      "midi": 55,
      "hit": false,
      "t": 246885.1059999991,
      "d": 358.6063541666663,
      "v": 105
    },
    {
      "midi": 46,
      "hit": false,
      "t": 246885.1059999991,
      "d": 471.31120833332534,
      "v": 113
    },
    {
      "midi": 58,
      "hit": false,
      "t": 246885.1059999991,
      "d": 522.5406874999753,
      "v": 115
    },
    {
      "midi": 61,
      "hit": false,
      "t": 246885.1059999991,
      "d": 522.5406874999753,
      "v": 112
    },
    {
      "midi": 55,
      "hit": false,
      "t": 246885.10600000026,
      "d": 983.6059999999998,
      "v": 101
    },
    {
      "midi": 61,
      "hit": false,
      "t": 246885.10600000026,
      "d": 983.6059999999998,
      "v": 101
    },
    {
      "midi": 55,
      "hit": false,
      "t": 247376.90899999908,
      "d": 102.45895833332906,
      "v": 90
    },
    {
      "midi": 58,
      "hit": false,
      "t": 247868.7119999991,
      "d": 430.32762500000536,
      "v": 105
    },
    {
      "midi": 48,
      "hit": false,
      "t": 247868.7119999991,
      "d": 860.6552500000107,
      "v": 113
    },
    {
      "midi": 52,
      "hit": false,
      "t": 247868.7119999991,
      "d": 860.6552500000107,
      "v": 103
    },
    {
      "midi": 60,
      "hit": false,
      "t": 247868.7119999991,
      "d": 870.9011458333407,
      "v": 110
    },
    {
      "midi": 52,
      "hit": false,
      "t": 247868.71200000026,
      "d": 983.6059999999998,
      "v": 89
    },
    {
      "midi": 60,
      "hit": false,
      "t": 247868.71200000026,
      "d": 983.6059999999998,
      "v": 89
    },
    {
      "midi": 58,
      "hit": false,
      "t": 248360.5149999991,
      "d": 358.6063541666663,
      "v": 95
    },
    {
      "midi": 53,
      "hit": false,
      "t": 248852.3179999991,
      "d": 399.58993750001537,
      "v": 120
    },
    {
      "midi": 57,
      "hit": false,
      "t": 248852.3179999991,
      "d": 573.7701666666835,
      "v": 123
    },
    {
      "midi": 60,
      "hit": false,
      "t": 248852.3179999991,
      "d": 614.7537500000035,
      "v": 118
    },
    {
      "midi": 29,
      "hit": false,
      "t": 248852.3179999991,
      "d": 1198.769812499988,
      "v": 113
    },
    {
      "midi": 41,
      "hit": false,
      "t": 248852.3179999991,
      "d": 1229.5074999999779,
      "v": 113
    },
    {
      "midi": 41,
      "hit": false,
      "t": 248852.31800000026,
      "d": 2561.473958333372,
      "v": 103
    },
    {
      "midi": 48,
      "hit": false,
      "t": 249098.21950000027,
      "d": 2243.851187500026,
      "v": 111
    },
    {
      "midi": 53,
      "hit": false,
      "t": 249344.1209999991,
      "d": 204.91791666665813,
      "v": 87
    },
    {
      "midi": 55,
      "hit": false,
      "t": 249344.12100000028,
      "d": 81.96716666666907,
      "v": 123
    },
    {
      "midi": 57,
      "hit": false,
      "t": 249590.02250000028,
      "d": 71.72127083333908,
      "v": 114
    },
    {
      "midi": 53,
      "hit": false,
      "t": 249835.9239999991,
      "d": 409.83583333331626,
      "v": 110
    },
    {
      "midi": 57,
      "hit": false,
      "t": 249835.9239999991,
      "d": 850.4093541666516,
      "v": 118
    },
    {
      "midi": 60,
      "hit": false,
      "t": 249835.9239999991,
      "d": 850.4093541666516,
      "v": 114
    },
    {
      "midi": 60,
      "hit": false,
      "t": 249835.9240000003,
      "d": 81.96716666666907,
      "v": 127
    },
    {
      "midi": 29,
      "hit": false,
      "t": 250327.72699999908,
      "d": 327.8686666666763,
      "v": 101
    },
    {
      "midi": 41,
      "hit": false,
      "t": 250327.72699999908,
      "d": 348.3604583333363,
      "v": 96
    },
    {
      "midi": 53,
      "hit": false,
      "t": 250327.72699999908,
      "d": 368.8522499999963,
      "v": 81
    },
    {
      "midi": 53,
      "hit": false,
      "t": 250819.52999999907,
      "d": 440.57352083330625,
      "v": 105
    },
    {
      "midi": 57,
      "hit": false,
      "t": 250819.52999999907,
      "d": 768.4421874999825,
      "v": 107
    },
    {
      "midi": 60,
      "hit": false,
      "t": 250819.52999999907,
      "d": 778.6880833333125,
      "v": 107
    },
    {
      "midi": 29,
      "hit": false,
      "t": 250819.52999999907,
      "d": 1014.3436874999607,
      "v": 109
    },
    {
      "midi": 41,
      "hit": false,
      "t": 250819.52999999907,
      "d": 1055.3272708332806,
      "v": 105
    },
    {
      "midi": 53,
      "hit": false,
      "t": 251311.33299999905,
      "d": 286.8850833333272,
      "v": 82
    },
    {
      "midi": 53,
      "hit": false,
      "t": 251803.13599999904,
      "d": 348.3604583333072,
      "v": 110
    },
    {
      "midi": 57,
      "hit": false,
      "t": 251803.13599999904,
      "d": 522.5406874999753,
      "v": 118
    },
    {
      "midi": 60,
      "hit": false,
      "t": 251803.13599999904,
      "d": 532.7865833333053,
      "v": 113
    },
    {
      "midi": 53,
      "hit": false,
      "t": 252294.93899999902,
      "d": 81.96716666663997,
      "v": 85
    },
    {
      "midi": 57,
      "hit": false,
      "t": 252786.741999999,
      "d": 440.57352083333535,
      "v": 111
    },
    {
      "midi": 60,
      "hit": false,
      "t": 252786.741999999,
      "d": 747.9503958333516,
      "v": 107
    },
    {
      "midi": 64,
      "hit": false,
      "t": 252786.741999999,
      "d": 758.1962916666816,
      "v": 102
    },
    {
      "midi": 33,
      "hit": false,
      "t": 252786.741999999,
      "d": 1147.540333333338,
      "v": 102
    },
    {
      "midi": 45,
      "hit": false,
      "t": 252786.741999999,
      "d": 1188.523916666658,
      "v": 107
    },
    {
      "midi": 45,
      "hit": false,
      "t": 252786.7420000003,
      "d": 3688.522500000021,
      "v": 110
    },
    {
      "midi": 52,
      "hit": false,
      "t": 253032.6435000003,
      "d": 3422.1292083333537,
      "v": 125
    },
    {
      "midi": 57,
      "hit": false,
      "t": 253278.54499999902,
      "d": 276.6391874999972,
      "v": 86
    },
    {
      "midi": 55,
      "hit": false,
      "t": 253278.5450000003,
      "d": 3227.4571874999965,
      "v": 123
    },
    {
      "midi": 67,
      "hit": false,
      "t": 253524.4465000003,
      "d": 2981.5556874999893,
      "v": 114
    },
    {
      "midi": 60,
      "hit": false,
      "t": 253770.347999999,
      "d": 788.9339791666425,
      "v": 111
    },
    {
      "midi": 57,
      "hit": false,
      "t": 253770.347999999,
      "d": 799.1798749999725,
      "v": 107
    },
    {
      "midi": 64,
      "hit": false,
      "t": 253770.347999999,
      "d": 799.1798749999725,
      "v": 111
    },
    {
      "midi": 64,
      "hit": false,
      "t": 253770.34800000032,
      "d": 2725.408291666652,
      "v": 105
    },
    {
      "midi": 33,
      "hit": false,
      "t": 254262.150999999,
      "d": 297.1309791666572,
      "v": 99
    },
    {
      "midi": 45,
      "hit": false,
      "t": 254262.150999999,
      "d": 327.8686666666472,
      "v": 99
    },
    {
      "midi": 57,
      "hit": false,
      "t": 254753.95399999898,
      "d": 461.06531249999534,
      "v": 107
    },
    {
      "midi": 60,
      "hit": false,
      "t": 254753.95399999898,
      "d": 778.6880833333125,
      "v": 109
    },
    {
      "midi": 64,
      "hit": false,
      "t": 254753.95399999898,
      "d": 799.1798749999725,
      "v": 106
    },
    {
      "midi": 33,
      "hit": false,
      "t": 254753.95399999898,
      "d": 1475.408999999985,
      "v": 102
    },
    {
      "midi": 45,
      "hit": false,
      "t": 254753.95399999898,
      "d": 1516.392583333305,
      "v": 106
    },
    {
      "midi": 57,
      "hit": false,
      "t": 255245.75699999896,
      "d": 286.8850833333272,
      "v": 77
    },
    {
      "midi": 57,
      "hit": false,
      "t": 255737.55999999895,
      "d": 317.6227708333463,
      "v": 107
    },
    {
      "midi": 60,
      "hit": false,
      "t": 255737.55999999895,
      "d": 522.5406875000044,
      "v": 111
    },
    {
      "midi": 64,
      "hit": false,
      "t": 255737.55999999895,
      "d": 522.5406875000044,
      "v": 109
    },
    {
      "midi": 57,
      "hit": false,
      "t": 256229.36299999896,
      "d": 163.93433333330904,
      "v": 74
    },
    {
      "midi": 60,
      "hit": false,
      "t": 256721.16599999892,
      "d": 655.7373333333235,
      "v": 106
    },
    {
      "midi": 63,
      "hit": false,
      "t": 256721.16599999892,
      "d": 706.9668125000026,
      "v": 105
    },
    {
      "midi": 55,
      "hit": false,
      "t": 256721.16599999892,
      "d": 717.2127083333326,
      "v": 109
    },
    {
      "midi": 27,
      "hit": false,
      "t": 256721.16599999892,
      "d": 901.6388333333307,
      "v": 90
    },
    {
      "midi": 39,
      "hit": false,
      "t": 256721.16599999892,
      "d": 1004.0977916666598,
      "v": 96
    },
    {
      "midi": 51,
      "hit": false,
      "t": 256721.1660000003,
      "d": 1864.7530416666996,
      "v": 113
    },
    {
      "midi": 55,
      "hit": false,
      "t": 256967.0675000003,
      "d": 1700.8187083333614,
      "v": 116
    },
    {
      "midi": 60,
      "hit": false,
      "t": 257212.9690000003,
      "d": 1588.1138541666733,
      "v": 103
    },
    {
      "midi": 67,
      "hit": false,
      "t": 257458.8705000003,
      "d": 1229.507500000007,
      "v": 116
    },
    {
      "midi": 63,
      "hit": false,
      "t": 257704.77199999892,
      "d": 450.81941666666535,
      "v": 107
    },
    {
      "midi": 55,
      "hit": false,
      "t": 257704.77199999892,
      "d": 471.31120833332534,
      "v": 114
    },
    {
      "midi": 60,
      "hit": false,
      "t": 257704.77199999892,
      "d": 471.31120833332534,
      "v": 110
    },
    {
      "midi": 39,
      "hit": false,
      "t": 258196.5749999989,
      "d": 143.44254166667815,
      "v": 87
    },
    {
      "midi": 54,
      "hit": false,
      "t": 258688.37799999892,
      "d": 409.83583333334536,
      "v": 101
    },
    {
      "midi": 60,
      "hit": false,
      "t": 258688.37799999892,
      "d": 614.7537500000035,
      "v": 103
    },
    {
      "midi": 62,
      "hit": false,
      "t": 258688.37799999892,
      "d": 614.7537500000035,
      "v": 106
    },
    {
      "midi": 26,
      "hit": false,
      "t": 258688.37799999892,
      "d": 768.4421875000116,
      "v": 109
    },
    {
      "midi": 38,
      "hit": false,
      "t": 258688.37799999892,
      "d": 819.6716666666907,
      "v": 114
    },
    {
      "midi": 50,
      "hit": false,
      "t": 258688.37800000032,
      "d": 1874.9989375000005,
      "v": 113
    },
    {
      "midi": 54,
      "hit": false,
      "t": 258934.2795000003,
      "d": 1680.3269166666723,
      "v": 107
    },
    {
      "midi": 54,
      "hit": false,
      "t": 259180.18099999893,
      "d": 266.3932916666672,
      "v": 79
    },
    {
      "midi": 60,
      "hit": false,
      "t": 259180.1810000003,
      "d": 1424.1795208333351,
      "v": 98
    },
    {
      "midi": 66,
      "hit": false,
      "t": 259426.0825000003,
      "d": 1229.5074999999779,
      "v": 108
    },
    {
      "midi": 54,
      "hit": false,
      "t": 259671.98399999895,
      "d": 307.3768749999872,
      "v": 102
    },
    {
      "midi": 62,
      "hit": false,
      "t": 259671.98399999895,
      "d": 358.6063541666663,
      "v": 107
    },
    {
      "midi": 60,
      "hit": false,
      "t": 259671.98399999895,
      "d": 522.5406874999753,
      "v": 102
    },
    {
      "midi": 54,
      "hit": false,
      "t": 260163.78699999893,
      "d": 102.45895833332906,
      "v": 87
    },
    {
      "midi": 50,
      "hit": false,
      "t": 260655.58999999892,
      "d": 389.34404166665627,
      "v": 102
    },
    {
      "midi": 55,
      "hit": false,
      "t": 260655.58999999892,
      "d": 563.5242708333244,
      "v": 109
    },
    {
      "midi": 58,
      "hit": false,
      "t": 260655.58999999892,
      "d": 594.2619583333144,
      "v": 105
    },
    {
      "midi": 43,
      "hit": false,
      "t": 260655.58999999892,
      "d": 819.6716666666325,
      "v": 113
    },
    {
      "midi": 43,
      "hit": false,
      "t": 260655.5900000003,
      "d": 1905.7366249999905,
      "v": 111
    },
    {
      "midi": 50,
      "hit": false,
      "t": 260901.4915000003,
      "d": 1639.3433333333232,
      "v": 107
    },
    {
      "midi": 50,
      "hit": false,
      "t": 261147.3929999989,
      "d": 204.91791666665813,
      "v": 81
    },
    {
      "midi": 53,
      "hit": false,
      "t": 261147.3930000003,
      "d": 1465.163104166655,
      "v": 101
    },
    {
      "midi": 58,
      "hit": false,
      "t": 261393.2945000003,
      "d": 1229.507500000007,
      "v": 115
    },
    {
      "midi": 55,
      "hit": false,
      "t": 261639.1959999989,
      "d": 184.42612499999814,
      "v": 105
    },
    {
      "midi": 58,
      "hit": false,
      "t": 261639.1959999989,
      "d": 194.67202083332813,
      "v": 101
    },
    {
      "midi": 41,
      "hit": false,
      "t": 262130.99899999888,
      "d": 40.98358333334909,
      "v": 60
    },
    {
      "midi": 43,
      "hit": false,
      "t": 262130.99899999888,
      "d": 71.72127083336818,
      "v": 68
    },
    {
      "midi": 55,
      "hit": false,
      "t": 262622.8019999989,
      "d": 358.6063541666372,
      "v": 105
    },
    {
      "midi": 46,
      "hit": false,
      "t": 262622.8019999989,
      "d": 471.31120833329624,
      "v": 113
    },
    {
      "midi": 58,
      "hit": false,
      "t": 262622.8019999989,
      "d": 522.5406874999753,
      "v": 115
    },
    {
      "midi": 61,
      "hit": false,
      "t": 262622.8019999989,
      "d": 522.5406874999753,
      "v": 112
    },
    {
      "midi": 55,
      "hit": false,
      "t": 262622.8020000003,
      "d": 983.6060000000289,
      "v": 101
    },
    {
      "midi": 61,
      "hit": false,
      "t": 262622.8020000003,
      "d": 983.6060000000289,
      "v": 101
    },
    {
      "midi": 55,
      "hit": false,
      "t": 263114.6049999989,
      "d": 102.45895833335817,
      "v": 90
    },
    {
      "midi": 58,
      "hit": false,
      "t": 263606.4079999989,
      "d": 430.32762499997625,
      "v": 105
    },
    {
      "midi": 48,
      "hit": false,
      "t": 263606.4079999989,
      "d": 860.6552500000107,
      "v": 113
    },
    {
      "midi": 52,
      "hit": false,
      "t": 263606.4079999989,
      "d": 860.6552500000107,
      "v": 103
    },
    {
      "midi": 60,
      "hit": false,
      "t": 263606.4079999989,
      "d": 870.9011458333698,
      "v": 110
    },
    {
      "midi": 52,
      "hit": false,
      "t": 263606.40800000035,
      "d": 245.9014999999781,
      "v": 89
    },
    {
      "midi": 60,
      "hit": false,
      "t": 263606.40800000035,
      "d": 245.9014999999781,
      "v": 89
    },
    {
      "midi": 58,
      "hit": false,
      "t": 264098.21099999885,
      "d": 358.6063541666954,
      "v": 95
    },
    {
      "midi": 53,
      "hit": false,
      "t": 264590.0139999989,
      "d": 399.58993750001537,
      "v": 120
    },
    {
      "midi": 57,
      "hit": false,
      "t": 264590.0139999989,
      "d": 573.7701666666544,
      "v": 123
    },
    {
      "midi": 60,
      "hit": false,
      "t": 264590.0139999989,
      "d": 614.7537499999744,
      "v": 118
    },
    {
      "midi": 29,
      "hit": false,
      "t": 264590.0139999989,
      "d": 1198.769812499988,
      "v": 113
    },
    {
      "midi": 41,
      "hit": false,
      "t": 264590.0139999989,
      "d": 1229.507500000007,
      "v": 113
    },
    {
      "midi": 41,
      "hit": false,
      "t": 264590.0140000003,
      "d": 2561.4739583331975,
      "v": 103
    },
    {
      "midi": 48,
      "hit": false,
      "t": 264835.9155000003,
      "d": 2243.8511874998803,
      "v": 111
    },
    {
      "midi": 53,
      "hit": false,
      "t": 265081.81699999893,
      "d": 204.91791666659992,
      "v": 87
    },
    {
      "midi": 55,
      "hit": false,
      "t": 265081.8170000003,
      "d": 81.96716666663997,
      "v": 123
    },
    {
      "midi": 57,
      "hit": false,
      "t": 265327.71850000025,
      "d": 71.72127083333908,
      "v": 114
    },
    {
      "midi": 53,
      "hit": false,
      "t": 265573.6199999989,
      "d": 409.83583333337447,
      "v": 110
    },
    {
      "midi": 57,
      "hit": false,
      "t": 265573.6199999989,
      "d": 850.4093541667098,
      "v": 118
    },
    {
      "midi": 60,
      "hit": false,
      "t": 265573.6199999989,
      "d": 850.4093541667098,
      "v": 114
    },
    {
      "midi": 60,
      "hit": false,
      "t": 265573.6200000002,
      "d": 81.96716666663997,
      "v": 127
    },
    {
      "midi": 29,
      "hit": false,
      "t": 266065.4229999989,
      "d": 327.8686666666763,
      "v": 101
    },
    {
      "midi": 41,
      "hit": false,
      "t": 266065.4229999989,
      "d": 348.3604583333363,
      "v": 96
    },
    {
      "midi": 53,
      "hit": false,
      "t": 266065.4229999989,
      "d": 368.8522500000545,
      "v": 81
    },
    {
      "midi": 53,
      "hit": false,
      "t": 266557.2259999989,
      "d": 440.57352083333535,
      "v": 105
    },
    {
      "midi": 57,
      "hit": false,
      "t": 266557.2259999989,
      "d": 768.4421875000116,
      "v": 107
    },
    {
      "midi": 60,
      "hit": false,
      "t": 266557.2259999989,
      "d": 778.6880833333707,
      "v": 107
    },
    {
      "midi": 29,
      "hit": false,
      "t": 266557.2259999989,
      "d": 1014.343687500048,
      "v": 109
    },
    {
      "midi": 41,
      "hit": false,
      "t": 266557.2259999989,
      "d": 1055.327270833368,
      "v": 105
    },
    {
      "midi": 53,
      "hit": false,
      "t": 267049.02899999893,
      "d": 286.8850833333563,
      "v": 82
    },
    {
      "midi": 53,
      "hit": false,
      "t": 267540.83199999895,
      "d": 348.3604583333363,
      "v": 110
    },
    {
      "midi": 57,
      "hit": false,
      "t": 267540.83199999895,
      "d": 522.5406875000335,
      "v": 118
    },
    {
      "midi": 60,
      "hit": false,
      "t": 267540.83199999895,
      "d": 532.7865833333926,
      "v": 113
    },
    {
      "midi": 53,
      "hit": false,
      "t": 268032.63499999896,
      "d": 81.96716666669818,
      "v": 85
    },
    {
      "midi": 57,
      "hit": false,
      "t": 268524.437999999,
      "d": 440.57352083333535,
      "v": 111
    },
    {
      "midi": 60,
      "hit": false,
      "t": 268524.437999999,
      "d": 747.9503958333516,
      "v": 107
    },
    {
      "midi": 64,
      "hit": false,
      "t": 268524.437999999,
      "d": 758.1962916667107,
      "v": 102
    },
    {
      "midi": 33,
      "hit": false,
      "t": 268524.437999999,
      "d": 1147.5403333334252,
      "v": 102
    },
    {
      "midi": 45,
      "hit": false,
      "t": 268524.437999999,
      "d": 1188.5239166667452,
      "v": 107
    },
    {
      "midi": 45,
      "hit": false,
      "t": 268524.4380000002,
      "d": 3688.5224999999045,
      "v": 110
    },
    {
      "midi": 52,
      "hit": false,
      "t": 268770.3395000002,
      "d": 3422.1292083332664,
      "v": 125
    },
    {
      "midi": 57,
      "hit": false,
      "t": 269016.240999999,
      "d": 276.6391875000554,
      "v": 86
    },
    {
      "midi": 55,
      "hit": false,
      "t": 269016.24100000015,
      "d": 3227.4571874999674,
      "v": 123
    },
    {
      "midi": 67,
      "hit": false,
      "t": 269262.14250000013,
      "d": 2981.5556874999893,
      "v": 114
    },
    {
      "midi": 60,
      "hit": false,
      "t": 269508.04399999906,
      "d": 788.9339791666716,
      "v": 111
    },
    {
      "midi": 57,
      "hit": false,
      "t": 269508.04399999906,
      "d": 799.1798750000307,
      "v": 107
    },
    {
      "midi": 64,
      "hit": false,
      "t": 269508.04399999906,
      "d": 799.1798750000307,
      "v": 111
    },
    {
      "midi": 64,
      "hit": false,
      "t": 269508.0440000001,
      "d": 2725.408291666652,
      "v": 105
    },
    {
      "midi": 33,
      "hit": false,
      "t": 269999.8469999991,
      "d": 297.1309791666572,
      "v": 99
    },
    {
      "midi": 45,
      "hit": false,
      "t": 269999.8469999991,
      "d": 327.8686666666763,
      "v": 99
    },
    {
      "midi": 57,
      "hit": false,
      "t": 270491.6499999991,
      "d": 461.06531249999534,
      "v": 107
    },
    {
      "midi": 60,
      "hit": false,
      "t": 270491.6499999991,
      "d": 778.6880833333707,
      "v": 109
    },
    {
      "midi": 64,
      "hit": false,
      "t": 270491.6499999991,
      "d": 799.1798750000307,
      "v": 106
    },
    {
      "midi": 33,
      "hit": false,
      "t": 270491.6499999991,
      "d": 1475.408999999985,
      "v": 102
    },
    {
      "midi": 45,
      "hit": false,
      "t": 270491.6499999991,
      "d": 1516.3925833333633,
      "v": 106
    },
    {
      "midi": 57,
      "hit": false,
      "t": 270983.4529999991,
      "d": 286.8850833333563,
      "v": 77
    },
    {
      "midi": 57,
      "hit": false,
      "t": 271475.2559999991,
      "d": 317.6227708333172,
      "v": 107
    },
    {
      "midi": 60,
      "hit": false,
      "t": 271475.2559999991,
      "d": 522.5406874999753,
      "v": 111
    },
    {
      "midi": 64,
      "hit": false,
      "t": 271475.2559999991,
      "d": 522.5406874999753,
      "v": 109
    },
    {
      "midi": 57,
      "hit": false,
      "t": 271967.0589999991,
      "d": 163.93433333339635,
      "v": 74
    },
    {
      "midi": 60,
      "hit": false,
      "t": 272458.86199999915,
      "d": 655.7373333333526,
      "v": 106
    },
    {
      "midi": 63,
      "hit": false,
      "t": 272458.86199999915,
      "d": 706.9668125000317,
      "v": 105
    },
    {
      "midi": 55,
      "hit": false,
      "t": 272458.86199999915,
      "d": 717.2127083333908,
      "v": 109
    },
    {
      "midi": 27,
      "hit": false,
      "t": 272458.86199999915,
      "d": 901.6388333333889,
      "v": 90
    },
    {
      "midi": 39,
      "hit": false,
      "t": 272458.86199999915,
      "d": 1004.0977916666889,
      "v": 96
    },
    {
      "midi": 51,
      "hit": false,
      "t": 272458.86200000014,
      "d": 1864.7530416666414,
      "v": 113
    },
    {
      "midi": 55,
      "hit": false,
      "t": 272704.7635000001,
      "d": 1700.8187083333032,
      "v": 116
    },
    {
      "midi": 60,
      "hit": false,
      "t": 272950.6650000001,
      "d": 1588.1138541666442,
      "v": 103
    },
    {
      "midi": 67,
      "hit": false,
      "t": 273196.5665000001,
      "d": 1229.507500000007,
      "v": 116
    },
    {
      "midi": 63,
      "hit": false,
      "t": 273442.4679999992,
      "d": 450.81941666663624,
      "v": 107
    },
    {
      "midi": 55,
      "hit": false,
      "t": 273442.4679999992,
      "d": 471.31120833329624,
      "v": 114
    },
    {
      "midi": 60,
      "hit": false,
      "t": 273442.4679999992,
      "d": 471.31120833329624,
      "v": 110
    },
    {
      "midi": 39,
      "hit": false,
      "t": 273934.27099999913,
      "d": 143.44254166667815,
      "v": 87
    },
    {
      "midi": 54,
      "hit": false,
      "t": 274426.07399999915,
      "d": 409.83583333331626,
      "v": 101
    },
    {
      "midi": 60,
      "hit": false,
      "t": 274426.07399999915,
      "d": 614.7537499999744,
      "v": 103
    },
    {
      "midi": 62,
      "hit": false,
      "t": 274426.07399999915,
      "d": 614.7537499999744,
      "v": 106
    },
    {
      "midi": 26,
      "hit": false,
      "t": 274426.07399999915,
      "d": 768.4421875000116,
      "v": 109
    },
    {
      "midi": 38,
      "hit": false,
      "t": 274426.07399999915,
      "d": 819.6716666666907,
      "v": 114
    },
    {
      "midi": 50,
      "hit": false,
      "t": 274426.0740000001,
      "d": 1874.9989374999423,
      "v": 113
    },
    {
      "midi": 54,
      "hit": false,
      "t": 274671.97550000006,
      "d": 1680.3269166666432,
      "v": 107
    },
    {
      "midi": 54,
      "hit": false,
      "t": 274917.8769999991,
      "d": 266.3932916666963,
      "v": 79
    },
    {
      "midi": 60,
      "hit": false,
      "t": 274917.87700000004,
      "d": 1424.179520833306,
      "v": 98
    },
    {
      "midi": 66,
      "hit": false,
      "t": 275163.7785,
      "d": 1229.507500000007,
      "v": 108
    },
    {
      "midi": 54,
      "hit": false,
      "t": 275409.6799999992,
      "d": 307.3768750000163,
      "v": 102
    },
    {
      "midi": 62,
      "hit": false,
      "t": 275409.6799999992,
      "d": 358.6063541666954,
      "v": 107
    },
    {
      "midi": 60,
      "hit": false,
      "t": 275409.6799999992,
      "d": 522.5406875000335,
      "v": 102
    },
    {
      "midi": 54,
      "hit": false,
      "t": 275901.4829999992,
      "d": 102.45895833335817,
      "v": 87
    },
    {
      "midi": 50,
      "hit": false,
      "t": 276393.2859999992,
      "d": 389.34404166665627,
      "v": 102
    },
    {
      "midi": 55,
      "hit": false,
      "t": 276393.2859999992,
      "d": 563.5242708333535,
      "v": 109
    },
    {
      "midi": 58,
      "hit": false,
      "t": 276393.2859999992,
      "d": 594.2619583333726,
      "v": 105
    },
    {
      "midi": 43,
      "hit": false,
      "t": 276393.2859999992,
      "d": 819.6716666667489,
      "v": 113
    },
    {
      "midi": 43,
      "hit": false,
      "t": 276393.286,
      "d": 1905.7366249999614,
      "v": 111
    },
    {
      "midi": 50,
      "hit": false,
      "t": 276639.1875,
      "d": 1639.3433333333232,
      "v": 107
    },
    {
      "midi": 50,
      "hit": false,
      "t": 276885.0889999992,
      "d": 204.91791666671634,
      "v": 81
    },
    {
      "midi": 53,
      "hit": false,
      "t": 276885.089,
      "d": 1465.1631041666842,
      "v": 101
    },
    {
      "midi": 58,
      "hit": false,
      "t": 277130.99049999996,
      "d": 1229.5075000000652,
      "v": 115
    },
    {
      "midi": 55,
      "hit": false,
      "t": 277376.8919999993,
      "d": 184.42612499999814,
      "v": 105
    },
    {
      "midi": 58,
      "hit": false,
      "t": 277376.8919999993,
      "d": 194.67202083335724,
      "v": 101
    },
    {
      "midi": 41,
      "hit": false,
      "t": 277868.6949999993,
      "d": 40.983583333319984,
      "v": 60
    },
    {
      "midi": 43,
      "hit": false,
      "t": 277868.6949999993,
      "d": 71.72127083333908,
      "v": 68
    },
    {
      "midi": 55,
      "hit": false,
      "t": 278360.4979999993,
      "d": 358.6063541666372,
      "v": 105
    },
    {
      "midi": 46,
      "hit": false,
      "t": 278360.4979999993,
      "d": 471.31120833329624,
      "v": 113
    },
    {
      "midi": 58,
      "hit": false,
      "t": 278360.4979999993,
      "d": 522.5406874999753,
      "v": 115
    },
    {
      "midi": 61,
      "hit": false,
      "t": 278360.4979999993,
      "d": 522.5406874999753,
      "v": 112
    },
    {
      "midi": 55,
      "hit": false,
      "t": 278360.498,
      "d": 983.6059999999707,
      "v": 101
    },
    {
      "midi": 61,
      "hit": false,
      "t": 278360.498,
      "d": 983.6059999999707,
      "v": 101
    },
    {
      "midi": 55,
      "hit": false,
      "t": 278852.3009999993,
      "d": 102.45895833335817,
      "v": 90
    },
    {
      "midi": 58,
      "hit": false,
      "t": 279344.1039999993,
      "d": 430.32762499997625,
      "v": 105
    },
    {
      "midi": 48,
      "hit": false,
      "t": 279344.1039999993,
      "d": 860.6552500000107,
      "v": 113
    },
    {
      "midi": 52,
      "hit": false,
      "t": 279344.1039999993,
      "d": 860.6552500000107,
      "v": 103
    },
    {
      "midi": 60,
      "hit": false,
      "t": 279344.1039999993,
      "d": 870.9011458333698,
      "v": 110
    },
    {
      "midi": 52,
      "hit": false,
      "t": 279344.104,
      "d": 983.6059999999707,
      "v": 89
    },
    {
      "midi": 60,
      "hit": false,
      "t": 279344.104,
      "d": 983.6059999999707,
      "v": 89
    },
    {
      "midi": 58,
      "hit": false,
      "t": 279835.90699999925,
      "d": 358.6063541666954,
      "v": 95
    },
    {
      "midi": 53,
      "hit": false,
      "t": 280327.7099999993,
      "d": 399.58993750001537,
      "v": 120
    },
    {
      "midi": 57,
      "hit": false,
      "t": 280327.7099999993,
      "d": 573.7701666666544,
      "v": 123
    },
    {
      "midi": 60,
      "hit": false,
      "t": 280327.7099999993,
      "d": 614.7537499999744,
      "v": 118
    },
    {
      "midi": 29,
      "hit": false,
      "t": 280327.7099999993,
      "d": 1198.769812499988,
      "v": 113
    },
    {
      "midi": 41,
      "hit": false,
      "t": 280327.7099999993,
      "d": 1229.507500000007,
      "v": 113
    },
    {
      "midi": 41,
      "hit": false,
      "t": 280327.70999999996,
      "d": 2561.4739583331975,
      "v": 103
    },
    {
      "midi": 48,
      "hit": false,
      "t": 280573.61149999994,
      "d": 2243.8511874998803,
      "v": 111
    },
    {
      "midi": 53,
      "hit": false,
      "t": 280819.51299999934,
      "d": 204.91791666659992,
      "v": 87
    },
    {
      "midi": 55,
      "hit": false,
      "t": 280819.5129999999,
      "d": 81.96716666663997,
      "v": 123
    },
    {
      "midi": 57,
      "hit": false,
      "t": 281065.4144999999,
      "d": 71.72127083333908,
      "v": 114
    },
    {
      "midi": 53,
      "hit": false,
      "t": 281311.3159999993,
      "d": 409.83583333337447,
      "v": 110
    },
    {
      "midi": 57,
      "hit": false,
      "t": 281311.3159999993,
      "d": 850.4093541667098,
      "v": 118
    },
    {
      "midi": 60,
      "hit": false,
      "t": 281311.3159999993,
      "d": 850.4093541667098,
      "v": 114
    },
    {
      "midi": 60,
      "hit": false,
      "t": 281311.3159999999,
      "d": 81.96716666663997,
      "v": 127
    },
    {
      "midi": 29,
      "hit": false,
      "t": 281803.1189999993,
      "d": 327.8686666666763,
      "v": 101
    },
    {
      "midi": 41,
      "hit": false,
      "t": 281803.1189999993,
      "d": 348.3604583333363,
      "v": 96
    },
    {
      "midi": 53,
      "hit": false,
      "t": 281803.1189999993,
      "d": 368.8522500000545,
      "v": 81
    },
    {
      "midi": 53,
      "hit": false,
      "t": 282294.9219999993,
      "d": 440.57352083333535,
      "v": 105
    },
    {
      "midi": 57,
      "hit": false,
      "t": 282294.9219999993,
      "d": 768.4421875000116,
      "v": 107
    },
    {
      "midi": 60,
      "hit": false,
      "t": 282294.9219999993,
      "d": 778.6880833333707,
      "v": 107
    },
    {
      "midi": 29,
      "hit": false,
      "t": 282294.9219999993,
      "d": 1014.343687500048,
      "v": 109
    },
    {
      "midi": 41,
      "hit": false,
      "t": 282294.9219999993,
      "d": 1055.327270833368,
      "v": 105
    },
    {
      "midi": 53,
      "hit": false,
      "t": 282786.72499999934,
      "d": 286.8850833333563,
      "v": 82
    },
    {
      "midi": 53,
      "hit": false,
      "t": 283278.52799999935,
      "d": 348.3604583333363,
      "v": 110
    },
    {
      "midi": 57,
      "hit": false,
      "t": 283278.52799999935,
      "d": 522.5406875000335,
      "v": 118
    },
    {
      "midi": 60,
      "hit": false,
      "t": 283278.52799999935,
      "d": 532.7865833333926,
      "v": 113
    },
    {
      "midi": 53,
      "hit": false,
      "t": 283770.33099999937,
      "d": 81.96716666669818,
      "v": 85
    },
    {
      "midi": 57,
      "hit": false,
      "t": 284262.1339999994,
      "d": 440.57352083333535,
      "v": 111
    },
    {
      "midi": 60,
      "hit": false,
      "t": 284262.1339999994,
      "d": 747.9503958333516,
      "v": 107
    },
    {
      "midi": 64,
      "hit": false,
      "t": 284262.1339999994,
      "d": 758.1962916667107,
      "v": 102
    },
    {
      "midi": 33,
      "hit": false,
      "t": 284262.1339999994,
      "d": 1147.5403333334252,
      "v": 102
    },
    {
      "midi": 45,
      "hit": false,
      "t": 284262.1339999994,
      "d": 1188.5239166667452,
      "v": 107
    },
    {
      "midi": 45,
      "hit": false,
      "t": 284262.13399999985,
      "d": 3688.5224999999627,
      "v": 110
    },
    {
      "midi": 52,
      "hit": false,
      "t": 284508.0354999998,
      "d": 3422.1292083333246,
      "v": 125
    },
    {
      "midi": 57,
      "hit": false,
      "t": 284753.9369999994,
      "d": 276.6391875000554,
      "v": 86
    },
    {
      "midi": 55,
      "hit": false,
      "t": 284753.9369999998,
      "d": 3227.4571875000256,
      "v": 123
    },
    {
      "midi": 67,
      "hit": false,
      "t": 284999.83849999984,
      "d": 2981.5556874999893,
      "v": 114
    },
    {
      "midi": 60,
      "hit": false,
      "t": 285245.73999999947,
      "d": 788.9339791666716,
      "v": 111
    },
    {
      "midi": 57,
      "hit": false,
      "t": 285245.73999999947,
      "d": 799.1798750000307,
      "v": 107
    },
    {
      "midi": 64,
      "hit": false,
      "t": 285245.73999999947,
      "d": 799.1798750000307,
      "v": 111
    },
    {
      "midi": 64,
      "hit": false,
      "t": 285245.7399999998,
      "d": 2725.408291666652,
      "v": 105
    },
    {
      "midi": 33,
      "hit": false,
      "t": 285737.5429999995,
      "d": 297.1309791666572,
      "v": 99
    },
    {
      "midi": 45,
      "hit": false,
      "t": 285737.5429999995,
      "d": 327.8686666666763,
      "v": 99
    },
    {
      "midi": 57,
      "hit": false,
      "t": 286229.3459999995,
      "d": 461.06531249999534,
      "v": 107
    },
    {
      "midi": 60,
      "hit": false,
      "t": 286229.3459999995,
      "d": 778.6880833333707,
      "v": 109
    },
    {
      "midi": 64,
      "hit": false,
      "t": 286229.3459999995,
      "d": 799.1798750000307,
      "v": 106
    },
    {
      "midi": 33,
      "hit": false,
      "t": 286229.3459999995,
      "d": 1475.408999999985,
      "v": 102
    },
    {
      "midi": 45,
      "hit": false,
      "t": 286229.3459999995,
      "d": 1516.3925833333633,
      "v": 106
    },
    {
      "midi": 57,
      "hit": false,
      "t": 286721.1489999995,
      "d": 286.8850833333563,
      "v": 77
    },
    {
      "midi": 57,
      "hit": false,
      "t": 287212.9519999995,
      "d": 317.6227708333172,
      "v": 107
    },
    {
      "midi": 60,
      "hit": false,
      "t": 287212.9519999995,
      "d": 522.5406874999753,
      "v": 111
    },
    {
      "midi": 64,
      "hit": false,
      "t": 287212.9519999995,
      "d": 522.5406874999753,
      "v": 109
    },
    {
      "midi": 57,
      "hit": false,
      "t": 287704.7549999995,
      "d": 163.93433333339635,
      "v": 74
    },
    {
      "midi": 60,
      "hit": false,
      "t": 288196.55799999955,
      "d": 655.7373333333526,
      "v": 106
    },
    {
      "midi": 63,
      "hit": false,
      "t": 288196.55799999955,
      "d": 706.9668125000317,
      "v": 105
    },
    {
      "midi": 55,
      "hit": false,
      "t": 288196.55799999955,
      "d": 717.2127083333908,
      "v": 109
    },
    {
      "midi": 27,
      "hit": false,
      "t": 288196.55799999955,
      "d": 901.6388333333889,
      "v": 90
    },
    {
      "midi": 39,
      "hit": false,
      "t": 288196.55799999955,
      "d": 1004.0977916666889,
      "v": 96
    },
    {
      "midi": 51,
      "hit": false,
      "t": 288196.55799999984,
      "d": 1864.7530416665832,
      "v": 113
    },
    {
      "midi": 55,
      "hit": false,
      "t": 288442.4594999998,
      "d": 1700.818708333245,
      "v": 116
    },
    {
      "midi": 60,
      "hit": false,
      "t": 288688.3609999998,
      "d": 1588.113854166586,
      "v": 103
    },
    {
      "midi": 67,
      "hit": false,
      "t": 288934.2624999998,
      "d": 1229.5074999999488,
      "v": 116
    },
    {
      "midi": 63,
      "hit": false,
      "t": 289180.1639999996,
      "d": 450.81941666663624,
      "v": 107
    },
    {
      "midi": 55,
      "hit": false,
      "t": 289180.1639999996,
      "d": 471.31120833329624,
      "v": 114
    },
    {
      "midi": 60,
      "hit": false,
      "t": 289180.1639999996,
      "d": 471.31120833329624,
      "v": 110
    },
    {
      "midi": 39,
      "hit": false,
      "t": 289671.96699999954,
      "d": 143.44254166667815,
      "v": 87
    },
    {
      "midi": 54,
      "hit": false,
      "t": 290163.76999999955,
      "d": 409.83583333331626,
      "v": 101
    },
    {
      "midi": 60,
      "hit": false,
      "t": 290163.76999999955,
      "d": 614.7537499999744,
      "v": 103
    },
    {
      "midi": 62,
      "hit": false,
      "t": 290163.76999999955,
      "d": 614.7537499999744,
      "v": 106
    },
    {
      "midi": 26,
      "hit": false,
      "t": 290163.76999999955,
      "d": 768.4421875000116,
      "v": 109
    },
    {
      "midi": 38,
      "hit": false,
      "t": 290163.76999999955,
      "d": 819.6716666666907,
      "v": 114
    },
    {
      "midi": 50,
      "hit": false,
      "t": 290163.7699999997,
      "d": 1874.9989374999423,
      "v": 113
    },
    {
      "midi": 54,
      "hit": false,
      "t": 290409.6714999997,
      "d": 1680.3269166666432,
      "v": 107
    },
    {
      "midi": 54,
      "hit": false,
      "t": 290655.5729999995,
      "d": 266.3932916666963,
      "v": 79
    },
    {
      "midi": 60,
      "hit": false,
      "t": 290655.5729999997,
      "d": 1424.179520833306,
      "v": 98
    },
    {
      "midi": 66,
      "hit": false,
      "t": 290901.47449999966,
      "d": 1229.507500000007,
      "v": 108
    },
    {
      "midi": 54,
      "hit": false,
      "t": 291147.3759999996,
      "d": 307.3768750000163,
      "v": 102
    },
    {
      "midi": 62,
      "hit": false,
      "t": 291147.3759999996,
      "d": 358.6063541666954,
      "v": 107
    },
    {
      "midi": 60,
      "hit": false,
      "t": 291147.3759999996,
      "d": 522.5406875000335,
      "v": 102
    },
    {
      "midi": 54,
      "hit": false,
      "t": 291639.1789999996,
      "d": 102.45895833335817,
      "v": 87
    },
    {
      "midi": 50,
      "hit": false,
      "t": 292130.9819999996,
      "d": 389.34404166665627,
      "v": 102
    },
    {
      "midi": 55,
      "hit": false,
      "t": 292130.9819999996,
      "d": 563.5242708333535,
      "v": 109
    },
    {
      "midi": 58,
      "hit": false,
      "t": 292130.9819999996,
      "d": 594.2619583333726,
      "v": 105
    },
    {
      "midi": 43,
      "hit": false,
      "t": 292130.9819999996,
      "d": 819.6716666667489,
      "v": 113
    },
    {
      "midi": 43,
      "hit": false,
      "t": 292130.98199999967,
      "d": 1905.7366249999031,
      "v": 111
    },
    {
      "midi": 50,
      "hit": false,
      "t": 292376.88349999965,
      "d": 1639.343333333265,
      "v": 107
    },
    {
      "midi": 50,
      "hit": false,
      "t": 292622.7849999996,
      "d": 204.91791666671634,
      "v": 81
    },
    {
      "midi": 53,
      "hit": false,
      "t": 292622.7849999996,
      "d": 1465.163104166626,
      "v": 101
    },
    {
      "midi": 58,
      "hit": false,
      "t": 292868.6864999996,
      "d": 1229.507500000007,
      "v": 115
    },
    {
      "midi": 55,
      "hit": false,
      "t": 293114.5879999997,
      "d": 184.42612499999814,
      "v": 105
    },
    {
      "midi": 58,
      "hit": false,
      "t": 293114.5879999997,
      "d": 194.67202083335724,
      "v": 101
    },
    {
      "midi": 41,
      "hit": false,
      "t": 293606.3909999997,
      "d": 40.983583333319984,
      "v": 60
    },
    {
      "midi": 43,
      "hit": false,
      "t": 293606.3909999997,
      "d": 71.72127083333908,
      "v": 68
    },
    {
      "midi": 55,
      "hit": false,
      "t": 294098.1939999996,
      "d": 983.6060000000289,
      "v": 101
    },
    {
      "midi": 61,
      "hit": false,
      "t": 294098.1939999996,
      "d": 983.6060000000289,
      "v": 101
    },
    {
      "midi": 55,
      "hit": false,
      "t": 294098.1939999997,
      "d": 358.6063541666372,
      "v": 105
    },
    {
      "midi": 46,
      "hit": false,
      "t": 294098.1939999997,
      "d": 471.31120833329624,
      "v": 113
    },
    {
      "midi": 58,
      "hit": false,
      "t": 294098.1939999997,
      "d": 522.5406874999753,
      "v": 115
    },
    {
      "midi": 61,
      "hit": false,
      "t": 294098.1939999997,
      "d": 522.5406874999753,
      "v": 112
    },
    {
      "midi": 55,
      "hit": false,
      "t": 294589.9969999997,
      "d": 102.45895833335817,
      "v": 90
    },
    {
      "midi": 52,
      "hit": false,
      "t": 295081.79999999964,
      "d": 245.9014999999781,
      "v": 89
    },
    {
      "midi": 60,
      "hit": false,
      "t": 295081.79999999964,
      "d": 245.9014999999781,
      "v": 89
    },
    {
      "midi": 58,
      "hit": false,
      "t": 295081.7999999997,
      "d": 430.32762499997625,
      "v": 105
    },
    {
      "midi": 48,
      "hit": false,
      "t": 295081.7999999997,
      "d": 860.6552500000107,
      "v": 113
    },
    {
      "midi": 52,
      "hit": false,
      "t": 295081.7999999997,
      "d": 860.6552500000107,
      "v": 103
    },
    {
      "midi": 60,
      "hit": false,
      "t": 295081.7999999997,
      "d": 870.9011458333698,
      "v": 110
    },
    {
      "midi": 58,
      "hit": false,
      "t": 295573.60299999965,
      "d": 358.6063541666954,
      "v": 95
    },
    {
      "midi": 53,
      "hit": false,
      "t": 296065.4059999997,
      "d": 327.8686666666763,
      "v": 72
    },
    {
      "midi": 65,
      "hit": false,
      "t": 296065.4059999997,
      "d": 430.32762500003446,
      "v": 89
    },
    {
      "midi": 60,
      "hit": false,
      "t": 296065.4059999997,
      "d": 573.7701666666544,
      "v": 88
    },
    {
      "midi": 53,
      "hit": false,
      "t": 296557.20899999974,
      "d": 409.83583333331626,
      "v": 75
    },
    {
      "midi": 65,
      "hit": false,
      "t": 297049.0119999997,
      "d": 368.8522499999963,
      "v": 80
    },
    {
      "midi": 60,
      "hit": false,
      "t": 297049.0119999997,
      "d": 481.55710416665534,
      "v": 77
    },
    {
      "midi": 53,
      "hit": false,
      "t": 297540.8149999997,
      "d": 440.57352083333535,
      "v": 65
    },
    {
      "midi": 65,
      "hit": false,
      "t": 298032.6179999997,
      "d": 348.3604583333363,
      "v": 74
    },
    {
      "midi": 60,
      "hit": false,
      "t": 298032.6179999997,
      "d": 430.32762499997625,
      "v": 81
    },
    {
      "midi": 53,
      "hit": false,
      "t": 298524.4209999997,
      "d": 327.8686666666763,
      "v": 65
    },
    {
      "midi": 65,
      "hit": false,
      "t": 299016.2239999997,
      "d": 225.40970833331812,
      "v": 83
    },
    {
      "midi": 60,
      "hit": false,
      "t": 299016.2239999997,
      "d": 307.3768749999581,
      "v": 83
    },
    {
      "midi": 53,
      "hit": false,
      "t": 299508.02699999965,
      "d": 194.67202083335724,
      "v": 82
    },
    {
      "midi": 53,
      "hit": false,
      "t": 299999.82999999967,
      "d": 297.1309791666572,
      "v": 79
    },
    {
      "midi": 65,
      "hit": false,
      "t": 299999.82999999967,
      "d": 440.57352083333535,
      "v": 88
    },
    {
      "midi": 60,
      "hit": false,
      "t": 299999.82999999967,
      "d": 502.04889583337354,
      "v": 86
    },
    {
      "midi": 29,
      "hit": false,
      "t": 299999.82999999967,
      "d": 3934.4240000001155,
      "v": 99
    },
    {
      "midi": 41,
      "hit": false,
      "t": 299999.82999999967,
      "d": 3934.4240000001155,
      "v": 85
    },
    {
      "midi": 53,
      "hit": false,
      "t": 300491.6329999997,
      "d": 901.6388333333307,
      "v": 80
    },
    {
      "midi": 65,
      "hit": false,
      "t": 300983.4359999997,
      "d": 481.55710416665534,
      "v": 93
    },
    {
      "midi": 60,
      "hit": false,
      "t": 300983.4359999997,
      "d": 594.2619583333726,
      "v": 86
    },
    {
      "midi": 53,
      "hit": false,
      "t": 301475.2389999997,
      "d": 850.4093541667098,
      "v": 88
    },
    {
      "midi": 65,
      "hit": false,
      "t": 301967.0419999997,
      "d": 471.31120833335444,
      "v": 86
    },
    {
      "midi": 60,
      "hit": false,
      "t": 301967.0419999997,
      "d": 573.7701666666544,
      "v": 82
    },
    {
      "midi": 53,
      "hit": false,
      "t": 302458.84499999974,
      "d": 860.6552499999525,
      "v": 82
    },
    {
      "midi": 60,
      "hit": false,
      "t": 302950.6479999997,
      "d": 942.6224166667089,
      "v": 82
    },
    {
      "midi": 65,
      "hit": false,
      "t": 302950.6479999997,
      "d": 942.6224166667089,
      "v": 85
    },
    {
      "midi": 53,
      "hit": false,
      "t": 303442.4509999997,
      "d": 481.55710416671354,
      "v": 89
    },
    {
      "midi": 29,
      "hit": false,
      "t": 303944.49989583314,
      "d": 983.6060000000289,
      "v": 101
    },
    {
      "midi": 41,
      "hit": false,
      "t": 304098.1883333331,
      "d": 758.1962916667107,
      "v": 95
    },
    {
      "midi": 48,
      "hit": false,
      "t": 304128.92602083314,
      "d": 256.1473958333372,
      "v": 92
    },
    {
      "midi": 57,
      "hit": false,
      "t": 304282.6144583331,
      "d": 266.3932916666963,
      "v": 87
    }
  ]
}