{
  "jsonPath": "Ambient/Easy Listening/Richard Clayderman/la-pathetique-piano-sonata-no-8-in-c-minor-op-13.json",
  "path": "Ambient\\Easy Listening\\Richard Clayderman\\La Pathetique  Piano Sonata No 8 in C minor_ Op 13.mid",
  "name": "La Pathetique  Piano Sonata No 8 in C minor_ Op 13",
  "difficulty": "Advanced",
  "bpm": 70.00023333411112,
  "notes": [
    {
      "midi": 56,
      "hit": false,
      "t": 6857.120000000001,
      "d": 571.4266666666663,
      "v": 64
    },
    {
      "midi": 60,
      "hit": false,
      "t": 6857.120000000001,
      "d": 1544.6377083333336,
      "v": 75
    },
    {
      "midi": 44,
      "hit": false,
      "t": 6857.120000000001,
      "d": 1705.3514583333344,
      "v": 60
    },
    {
      "midi": 51,
      "hit": false,
      "t": 7321.404166666667,
      "d": 428.5699999999997,
      "v": 60
    },
    {
      "midi": 56,
      "hit": false,
      "t": 7732.1170833333335,
      "d": 437.4985416666668,
      "v": 64
    },
    {
      "midi": 51,
      "hit": false,
      "t": 8151.758541666667,
      "d": 419.6414583333344,
      "v": 60
    },
    {
      "midi": 49,
      "hit": false,
      "t": 8580.328541666668,
      "d": 1696.4229166666664,
      "v": 62
    },
    {
      "midi": 55,
      "hit": false,
      "t": 8589.257083333334,
      "d": 491.0697916666668,
      "v": 75
    },
    {
      "midi": 58,
      "hit": false,
      "t": 8589.257083333334,
      "d": 1669.637291666666,
      "v": 60
    },
    {
      "midi": 51,
      "hit": false,
      "t": 9008.898541666667,
      "d": 419.6414583333335,
      "v": 59
    },
    {
      "midi": 55,
      "hit": false,
      "t": 9428.54,
      "d": 589.2837499999987,
      "v": 69
    },
    {
      "midi": 51,
      "hit": false,
      "t": 9866.038541666667,
      "d": 410.7129166666673,
      "v": 57
    },
    {
      "midi": 48,
      "hit": false,
      "t": 10285.68,
      "d": 1705.3514583333344,
      "v": 75
    },
    {
      "midi": 63,
      "hit": false,
      "t": 10285.68,
      "d": 2589.277083333336,
      "v": 75
    },
    {
      "midi": 56,
      "hit": false,
      "t": 10294.608541666666,
      "d": 526.7839583333352,
      "v": 67
    },
    {
      "midi": 51,
      "hit": false,
      "t": 10732.107083333334,
      "d": 491.0697916666668,
      "v": 69
    },
    {
      "midi": 56,
      "hit": false,
      "t": 11178.534166666668,
      "d": 482.1412500000006,
      "v": 64
    },
    {
      "midi": 51,
      "hit": false,
      "t": 11598.175625000002,
      "d": 392.85583333333307,
      "v": 64
    },
    {
      "midi": 58,
      "hit": false,
      "t": 11999.960000000001,
      "d": 660.7120833333356,
      "v": 58
    },
    {
      "midi": 43,
      "hit": false,
      "t": 12017.817083333335,
      "d": 1723.2085416666687,
      "v": 78
    },
    {
      "midi": 51,
      "hit": false,
      "t": 12455.315625000003,
      "d": 455.35562500000015,
      "v": 62
    },
    {
      "midi": 58,
      "hit": false,
      "t": 12883.885625000003,
      "d": 455.35562500000015,
      "v": 72
    },
    {
      "midi": 61,
      "hit": false,
      "t": 12883.885625000003,
      "d": 857.1400000000012,
      "v": 84
    },
    {
      "midi": 51,
      "hit": false,
      "t": 13294.59854166667,
      "d": 473.21270833333256,
      "v": 64
    },
    {
      "midi": 44,
      "hit": false,
      "t": 13749.95416666667,
      "d": 874.9970833333336,
      "v": 78
    },
    {
      "midi": 56,
      "hit": false,
      "t": 13758.882708333336,
      "d": 419.6414583333335,
      "v": 75
    },
    {
      "midi": 60,
      "hit": false,
      "t": 13767.811250000002,
      "d": 812.4972916666666,
      "v": 84
    },
    {
      "midi": 51,
      "hit": false,
      "t": 14178.52416666667,
      "d": 428.5699999999997,
      "v": 64
    },
    {
      "midi": 58,
      "hit": false,
      "t": 14607.09416666667,
      "d": 419.6414583333353,
      "v": 75
    },
    {
      "midi": 63,
      "hit": false,
      "t": 14607.09416666667,
      "d": 517.855416666669,
      "v": 87
    },
    {
      "midi": 43,
      "hit": false,
      "t": 14607.09416666667,
      "d": 767.8545833333355,
      "v": 81
    },
    {
      "midi": 51,
      "hit": false,
      "t": 15017.807083333339,
      "d": 187.49937499999942,
      "v": 72
    },
    {
      "midi": 68,
      "hit": false,
      "t": 15473.162708333339,
      "d": 535.7124999999996,
      "v": 84
    },
    {
      "midi": 41,
      "hit": false,
      "t": 15473.162708333339,
      "d": 794.6402083333323,
      "v": 90
    },
    {
      "midi": 60,
      "hit": false,
      "t": 15482.091250000005,
      "d": 491.0697916666668,
      "v": 84
    },
    {
      "midi": 56,
      "hit": false,
      "t": 15901.732708333338,
      "d": 116.07104166666613,
      "v": 72
    },
    {
      "midi": 70,
      "hit": false,
      "t": 16312.445625000004,
      "d": 366.07020833333445,
      "v": 81
    },
    {
      "midi": 62,
      "hit": false,
      "t": 16312.445625000004,
      "d": 410.7129166666673,
      "v": 84
    },
    {
      "midi": 53,
      "hit": false,
      "t": 16312.445625000004,
      "d": 848.2114583333314,
      "v": 84
    },
    {
      "midi": 56,
      "hit": false,
      "t": 16741.015625000004,
      "d": 285.71333333333314,
      "v": 69
    },
    {
      "midi": 51,
      "hit": false,
      "t": 17187.442708333336,
      "d": 1678.5658333333377,
      "v": 64
    },
    {
      "midi": 63,
      "hit": false,
      "t": 17187.442708333336,
      "d": 2178.5641666666743,
      "v": 72
    },
    {
      "midi": 55,
      "hit": false,
      "t": 17205.29979166667,
      "d": 401.7843749999993,
      "v": 57
    },
    {
      "midi": 58,
      "hit": false,
      "t": 17616.01270833334,
      "d": 437.49854166666773,
      "v": 59
    },
    {
      "midi": 55,
      "hit": false,
      "t": 18026.725625000006,
      "d": 428.5699999999997,
      "v": 60
    },
    {
      "midi": 58,
      "hit": false,
      "t": 18464.224166666674,
      "d": 437.49854166666773,
      "v": 53
    },
    {
      "midi": 55,
      "hit": false,
      "t": 18866.008541666673,
      "d": 499.99833333333663,
      "v": 60
    },
    {
      "midi": 39,
      "hit": false,
      "t": 18874.93708333334,
      "d": 1696.42291666667,
      "v": 62
    },
    {
      "midi": 58,
      "hit": false,
      "t": 19303.507083333345,
      "d": 419.6414583333317,
      "v": 57
    },
    {
      "midi": 64,
      "hit": false,
      "t": 19723.148541666676,
      "d": 883.9256250000071,
      "v": 84
    },
    {
      "midi": 55,
      "hit": false,
      "t": 19732.077083333344,
      "d": 499.998333333333,
      "v": 81
    },
    {
      "midi": 58,
      "hit": false,
      "t": 20169.575625000012,
      "d": 428.57000000000335,
      "v": 67
    },
    {
      "midi": 65,
      "hit": false,
      "t": 20571.36000000001,
      "d": 1294.638541666678,
      "v": 86
    },
    {
      "midi": 37,
      "hit": false,
      "t": 20580.28854166668,
      "d": 1741.0656250000138,
      "v": 75
    },
    {
      "midi": 55,
      "hit": false,
      "t": 20589.217083333348,
      "d": 508.92687500000466,
      "v": 81
    },
    {
      "midi": 58,
      "hit": false,
      "t": 21026.71562500002,
      "d": 464.28416666666817,
      "v": 60
    },
    {
      "midi": 55,
      "hit": false,
      "t": 21419.571458333354,
      "d": 535.7125000000051,
      "v": 62
    },
    {
      "midi": 58,
      "hit": false,
      "t": 21857.07000000002,
      "d": 89.28541666666933,
      "v": 60
    },
    {
      "midi": 55,
      "hit": false,
      "t": 22285.640000000025,
      "d": 464.28416666666817,
      "v": 81
    },
    {
      "midi": 58,
      "hit": false,
      "t": 22294.568541666693,
      "d": 892.8541666666679,
      "v": 64
    },
    {
      "midi": 49,
      "hit": false,
      "t": 22312.425625000025,
      "d": 1669.6372916666623,
      "v": 67
    },
    {
      "midi": 51,
      "hit": false,
      "t": 22723.138541666693,
      "d": 482.1412500000006,
      "v": 67
    },
    {
      "midi": 55,
      "hit": false,
      "t": 23160.63708333336,
      "d": 205.35645833333183,
      "v": 64
    },
    {
      "midi": 60,
      "hit": false,
      "t": 23571.350000000024,
      "d": 151.78520833333096,
      "v": 81
    },
    {
      "midi": 51,
      "hit": false,
      "t": 23589.207083333356,
      "d": 258.9277083333327,
      "v": 60
    },
    {
      "midi": 61,
      "hit": false,
      "t": 23776.706458333356,
      "d": 232.14208333333227,
      "v": 84
    },
    {
      "midi": 63,
      "hit": false,
      "t": 24017.777083333356,
      "d": 928.5683333333327,
      "v": 78
    },
    {
      "midi": 48,
      "hit": false,
      "t": 24017.777083333356,
      "d": 1660.7087500000016,
      "v": 84
    },
    {
      "midi": 56,
      "hit": false,
      "t": 24035.63416666669,
      "d": 473.21270833333256,
      "v": 67
    },
    {
      "midi": 51,
      "hit": false,
      "t": 24464.20416666669,
      "d": 446.4270833333321,
      "v": 64
    },
    {
      "midi": 56,
      "hit": false,
      "t": 24892.774166666688,
      "d": 562.4981250000019,
      "v": 69
    },
    {
      "midi": 51,
      "hit": false,
      "t": 25330.272708333356,
      "d": 124.99958333333416,
      "v": 62
    },
    {
      "midi": 57,
      "hit": false,
      "t": 25723.12854166669,
      "d": 848.2114583333314,
      "v": 79
    },
    {
      "midi": 51,
      "hit": false,
      "t": 25732.05708333336,
      "d": 464.28416666666453,
      "v": 69
    },
    {
      "midi": 41,
      "hit": false,
      "t": 25749.91416666669,
      "d": 1696.4229166666664,
      "v": 72
    },
    {
      "midi": 48,
      "hit": false,
      "t": 26151.69854166669,
      "d": 285.71333333333314,
      "v": 67
    },
    {
      "midi": 51,
      "hit": false,
      "t": 26571.340000000022,
      "d": 401.7843749999993,
      "v": 67
    },
    {
      "midi": 48,
      "hit": false,
      "t": 26999.91000000002,
      "d": 98.21395833333372,
      "v": 62
    },
    {
      "midi": 61,
      "hit": false,
      "t": 27428.48000000002,
      "d": 1446.423749999998,
      "v": 74
    },
    {
      "midi": 34,
      "hit": false,
      "t": 27437.40854166669,
      "d": 1732.1370833333312,
      "v": 62
    },
    {
      "midi": 53,
      "hit": false,
      "t": 27446.337083333357,
      "d": 437.4985416666641,
      "v": 72
    },
    {
      "midi": 49,
      "hit": false,
      "t": 27865.97854166669,
      "d": 401.7843749999993,
      "v": 55
    },
    {
      "midi": 53,
      "hit": false,
      "t": 28321.33416666669,
      "d": 419.6414583333317,
      "v": 56
    },
    {
      "midi": 49,
      "hit": false,
      "t": 28740.97562500002,
      "d": 249.99916666666468,
      "v": 59
    },
    {
      "midi": 49,
      "hit": false,
      "t": 29178.47416666669,
      "d": 241.0706250000003,
      "v": 62
    },
    {
      "midi": 39,
      "hit": false,
      "t": 29178.47416666669,
      "d": 1723.2085416666741,
      "v": 60
    },
    {
      "midi": 60,
      "hit": false,
      "t": 29196.33125000002,
      "d": 294.64187500000116,
      "v": 64
    },
    {
      "midi": 58,
      "hit": false,
      "t": 29615.972708333356,
      "d": 160.71374999999898,
      "v": 72
    },
    {
      "midi": 49,
      "hit": false,
      "t": 29615.972708333356,
      "d": 187.49937499999942,
      "v": 64
    },
    {
      "midi": 49,
      "hit": false,
      "t": 30035.614166666688,
      "d": 276.78479166666875,
      "v": 67
    },
    {
      "midi": 56,
      "hit": false,
      "t": 30044.542708333356,
      "d": 348.21312500000204,
      "v": 75
    },
    {
      "midi": 49,
      "hit": false,
      "t": 30446.32708333336,
      "d": 223.21354166666788,
      "v": 49
    },
    {
      "midi": 55,
      "hit": false,
      "t": 30455.255625000027,
      "d": 205.35645833333183,
      "v": 73
    },
    {
      "midi": 49,
      "hit": false,
      "t": 30892.754166666695,
      "d": 455.35562500000015,
      "v": 57
    },
    {
      "midi": 32,
      "hit": false,
      "t": 30892.754166666695,
      "d": 857.1399999999994,
      "v": 72
    },
    {
      "midi": 55,
      "hit": false,
      "t": 30901.682708333363,
      "d": 1151.7818750000006,
      "v": 58
    },
    {
      "midi": 58,
      "hit": false,
      "t": 30901.682708333363,
      "d": 1321.4241666666676,
      "v": 64
    },
    {
      "midi": 51,
      "hit": false,
      "t": 31312.395625000026,
      "d": 473.2127083333362,
      "v": 59
    },
    {
      "midi": 49,
      "hit": false,
      "t": 31732.03708333336,
      "d": 491.0697916666686,
      "v": 62
    },
    {
      "midi": 44,
      "hit": false,
      "t": 31732.03708333336,
      "d": 874.9970833333355,
      "v": 67
    },
    {
      "midi": 51,
      "hit": false,
      "t": 32160.607083333365,
      "d": 446.4270833333321,
      "v": 64
    },
    {
      "midi": 32,
      "hit": false,
      "t": 32615.962708333365,
      "d": 883.9256249999999,
      "v": 53
    },
    {
      "midi": 56,
      "hit": false,
      "t": 32624.891250000033,
      "d": 214.28499999999985,
      "v": 64
    },
    {
      "midi": 48,
      "hit": false,
      "t": 32633.8197916667,
      "d": 214.28499999999985,
      "v": 49
    },
    {
      "midi": 51,
      "hit": false,
      "t": 32946.318750000035,
      "d": 124.99958333333052,
      "v": 69
    },
    {
      "midi": 56,
      "hit": false,
      "t": 33232.03208333337,
      "d": 89.2854166666657,
      "v": 78
    },
    {
      "midi": 60,
      "hit": false,
      "t": 33517.7454166667,
      "d": 312.49895833332994,
      "v": 94
    },
    {
      "midi": 63,
      "hit": false,
      "t": 33794.530208333366,
      "d": 285.71333333333314,
      "v": 90
    },
    {
      "midi": 68,
      "hit": false,
      "t": 34089.17208333337,
      "d": 285.71333333333314,
      "v": 84
    },
    {
      "midi": 60,
      "hit": false,
      "t": 34392.74250000004,
      "d": 482.1412500000006,
      "v": 81
    },
    {
      "midi": 56,
      "hit": false,
      "t": 34392.74250000004,
      "d": 499.99833333333663,
      "v": 78
    },
    {
      "midi": 44,
      "hit": false,
      "t": 34392.74250000004,
      "d": 1374.9954166666794,
      "v": 78
    },
    {
      "midi": 72,
      "hit": false,
      "t": 34401.671041666705,
      "d": 1098.210625000007,
      "v": 94
    },
    {
      "midi": 63,
      "hit": false,
      "t": 34857.0266666667,
      "d": 419.64145833333896,
      "v": 57
    },
    {
      "midi": 51,
      "hit": false,
      "t": 34874.88375000004,
      "d": 473.21270833333983,
      "v": 57
    },
    {
      "midi": 56,
      "hit": false,
      "t": 35258.811041666704,
      "d": 107.14250000000902,
      "v": 67
    },
    {
      "midi": 60,
      "hit": false,
      "t": 35258.811041666704,
      "d": 455.35562500001106,
      "v": 69
    },
    {
      "midi": 63,
      "hit": false,
      "t": 35687.38104166671,
      "d": 464.2841666666791,
      "v": 57
    },
    {
      "midi": 51,
      "hit": false,
      "t": 35696.30958333338,
      "d": 428.570000000007,
      "v": 57
    },
    {
      "midi": 70,
      "hit": false,
      "t": 36115.95104166672,
      "d": 1366.0668750000186,
      "v": 81
    },
    {
      "midi": 55,
      "hit": false,
      "t": 36124.879583333386,
      "d": 446.42708333334303,
      "v": 81
    },
    {
      "midi": 58,
      "hit": false,
      "t": 36124.879583333386,
      "d": 491.0697916666759,
      "v": 67
    },
    {
      "midi": 49,
      "hit": false,
      "t": 36124.879583333386,
      "d": 1366.0668750000186,
      "v": 69
    },
    {
      "midi": 63,
      "hit": false,
      "t": 36562.37812500006,
      "d": 473.21270833333256,
      "v": 61
    },
    {
      "midi": 51,
      "hit": false,
      "t": 36589.163750000065,
      "d": 455.3556249999965,
      "v": 61
    },
    {
      "midi": 55,
      "hit": false,
      "t": 36982.01958333339,
      "d": 133.92812500000582,
      "v": 64
    },
    {
      "midi": 58,
      "hit": false,
      "t": 36982.01958333339,
      "d": 214.2850000000035,
      "v": 62
    },
    {
      "midi": 63,
      "hit": false,
      "t": 37410.5895833334,
      "d": 116.07104166666977,
      "v": 63
    },
    {
      "midi": 51,
      "hit": false,
      "t": 37428.446666666736,
      "d": 410.71291666666366,
      "v": 63
    },
    {
      "midi": 63,
      "hit": false,
      "t": 37857.016666666736,
      "d": 455.3556250000038,
      "v": 84
    },
    {
      "midi": 75,
      "hit": false,
      "t": 37857.016666666736,
      "d": 2285.7066666666797,
      "v": 81
    },
    {
      "midi": 56,
      "hit": false,
      "t": 37865.9452083334,
      "d": 455.3556250000038,
      "v": 62
    },
    {
      "midi": 48,
      "hit": false,
      "t": 37865.9452083334,
      "d": 1330.3527083333393,
      "v": 75
    },
    {
      "midi": 68,
      "hit": false,
      "t": 38303.44375000007,
      "d": 464.28416666666453,
      "v": 60
    },
    {
      "midi": 51,
      "hit": false,
      "t": 38321.30083333341,
      "d": 464.28416666666453,
      "v": 59
    },
    {
      "midi": 56,
      "hit": false,
      "t": 38732.01375000007,
      "d": 160.71375000000262,
      "v": 62
    },
    {
      "midi": 63,
      "hit": false,
      "t": 38740.94229166674,
      "d": 419.6414583333317,
      "v": 62
    },
    {
      "midi": 51,
      "hit": false,
      "t": 39169.51229166674,
      "d": 508.92687500000466,
      "v": 67
    },
    {
      "midi": 68,
      "hit": false,
      "t": 39178.44083333341,
      "d": 455.3556250000038,
      "v": 57
    },
    {
      "midi": 55,
      "hit": false,
      "t": 39607.01083333341,
      "d": 419.64145833333896,
      "v": 67
    },
    {
      "midi": 63,
      "hit": false,
      "t": 39615.939375000075,
      "d": 633.9264583333425,
      "v": 69
    },
    {
      "midi": 43,
      "hit": false,
      "t": 39624.86791666674,
      "d": 1142.8533333333398,
      "v": 59
    },
    {
      "midi": 51,
      "hit": false,
      "t": 40044.50937500008,
      "d": 491.0697916666686,
      "v": 60
    },
    {
      "midi": 70,
      "hit": false,
      "t": 40053.43791666675,
      "d": 491.0697916666686,
      "v": 59
    },
    {
      "midi": 73,
      "hit": false,
      "t": 40473.07937500008,
      "d": 455.3556250000038,
      "v": 84
    },
    {
      "midi": 63,
      "hit": false,
      "t": 40482.00791666675,
      "d": 482.14125000000786,
      "v": 81
    },
    {
      "midi": 55,
      "hit": false,
      "t": 40490.93645833342,
      "d": 187.49937499999942,
      "v": 84
    },
    {
      "midi": 70,
      "hit": false,
      "t": 40910.57791666675,
      "d": 473.2127083333471,
      "v": 67
    },
    {
      "midi": 51,
      "hit": false,
      "t": 40946.29208333342,
      "d": 410.71291666667094,
      "v": 57
    },
    {
      "midi": 44,
      "hit": false,
      "t": 41339.147916666756,
      "d": 580.3552083333416,
      "v": 69
    },
    {
      "midi": 56,
      "hit": false,
      "t": 41357.00500000009,
      "d": 464.2841666666718,
      "v": 62
    },
    {
      "midi": 63,
      "hit": false,
      "t": 41357.00500000009,
      "d": 517.8554166666727,
      "v": 72
    },
    {
      "midi": 72,
      "hit": false,
      "t": 41357.00500000009,
      "d": 544.6410416666695,
      "v": 84
    },
    {
      "midi": 68,
      "hit": false,
      "t": 41794.50354166676,
      "d": 446.42708333334303,
      "v": 62
    },
    {
      "midi": 51,
      "hit": false,
      "t": 41803.43208333343,
      "d": 437.498541666675,
      "v": 64
    },
    {
      "midi": 55,
      "hit": false,
      "t": 42205.21645833343,
      "d": 383.92729166667414,
      "v": 90
    },
    {
      "midi": 75,
      "hit": false,
      "t": 42205.21645833343,
      "d": 401.7843750000102,
      "v": 78
    },
    {
      "midi": 43,
      "hit": false,
      "t": 42205.21645833343,
      "d": 535.7125000000087,
      "v": 72
    },
    {
      "midi": 63,
      "hit": false,
      "t": 42214.1450000001,
      "d": 374.9987500000061,
      "v": 72
    },
    {
      "midi": 51,
      "hit": false,
      "t": 42642.715000000106,
      "d": 107.14250000000175,
      "v": 72
    },
    {
      "midi": 70,
      "hit": false,
      "t": 42642.715000000106,
      "d": 133.92812499999854,
      "v": 75
    },
    {
      "midi": 80,
      "hit": false,
      "t": 43062.35645833344,
      "d": 455.3556250000038,
      "v": 87
    },
    {
      "midi": 53,
      "hit": false,
      "t": 43071.285000000105,
      "d": 428.5699999999997,
      "v": 94
    },
    {
      "midi": 68,
      "hit": false,
      "t": 43071.285000000105,
      "d": 428.5699999999997,
      "v": 87
    },
    {
      "midi": 41,
      "hit": false,
      "t": 43071.285000000105,
      "d": 616.0693750000064,
      "v": 94
    },
    {
      "midi": 72,
      "hit": false,
      "t": 43499.855000000105,
      "d": 80.35687500000495,
      "v": 78
    },
    {
      "midi": 44,
      "hit": false,
      "t": 43499.855000000105,
      "d": 473.2127083333471,
      "v": 81
    },
    {
      "midi": 41,
      "hit": false,
      "t": 43937.35354166678,
      "d": 526.7839583333407,
      "v": 94
    },
    {
      "midi": 82,
      "hit": false,
      "t": 43946.28208333345,
      "d": 401.7843750000029,
      "v": 84
    },
    {
      "midi": 53,
      "hit": false,
      "t": 43946.28208333345,
      "d": 446.42708333333576,
      "v": 87
    },
    {
      "midi": 68,
      "hit": false,
      "t": 43955.210625000116,
      "d": 446.42708333333576,
      "v": 87
    },
    {
      "midi": 74,
      "hit": false,
      "t": 44374.85208333345,
      "d": 89.28541666667297,
      "v": 81
    },
    {
      "midi": 44,
      "hit": false,
      "t": 44392.709166666784,
      "d": 419.64145833333896,
      "v": 67
    },
    {
      "midi": 75,
      "hit": false,
      "t": 44794.49354166679,
      "d": 2169.63562500001,
      "v": 78
    },
    {
      "midi": 39,
      "hit": false,
      "t": 44803.422083333455,
      "d": 464.28416666666453,
      "v": 81
    },
    {
      "midi": 67,
      "hit": false,
      "t": 44803.422083333455,
      "d": 491.06979166666133,
      "v": 81
    },
    {
      "midi": 70,
      "hit": false,
      "t": 45240.92062500012,
      "d": 428.5699999999997,
      "v": 59
    },
    {
      "midi": 43,
      "hit": false,
      "t": 45240.92062500012,
      "d": 830.3543750000026,
      "v": 62
    },
    {
      "midi": 46,
      "hit": false,
      "t": 45651.633541666786,
      "d": 428.570000000007,
      "v": 62
    },
    {
      "midi": 67,
      "hit": false,
      "t": 45651.633541666786,
      "d": 437.498541666675,
      "v": 57
    },
    {
      "midi": 70,
      "hit": false,
      "t": 46071.275000000125,
      "d": 499.99833333333663,
      "v": 57
    },
    {
      "midi": 51,
      "hit": false,
      "t": 46080.20354166679,
      "d": 107.14250000000175,
      "v": 57
    },
    {
      "midi": 67,
      "hit": false,
      "t": 46508.77354166679,
      "d": 428.570000000007,
      "v": 62
    },
    {
      "midi": 55,
      "hit": false,
      "t": 46526.63062500013,
      "d": 374.99874999999884,
      "v": 57
    },
    {
      "midi": 58,
      "hit": false,
      "t": 46910.557916666796,
      "d": 419.64145833333896,
      "v": 55
    },
    {
      "midi": 70,
      "hit": false,
      "t": 46928.41500000013,
      "d": 419.64145833333896,
      "v": 56
    },
    {
      "midi": 67,
      "hit": false,
      "t": 47321.27083333347,
      "d": 473.21270833333983,
      "v": 84
    },
    {
      "midi": 55,
      "hit": false,
      "t": 47330.199375000135,
      "d": 464.2841666666718,
      "v": 72
    },
    {
      "midi": 76,
      "hit": false,
      "t": 47339.1279166668,
      "d": 482.14125000000786,
      "v": 84
    },
    {
      "midi": 58,
      "hit": false,
      "t": 47740.912291666806,
      "d": 71.42833333333692,
      "v": 62
    },
    {
      "midi": 70,
      "hit": false,
      "t": 47758.76937500014,
      "d": 482.1412500000006,
      "v": 60
    },
    {
      "midi": 67,
      "hit": false,
      "t": 48196.26791666681,
      "d": 535.7125000000087,
      "v": 84
    },
    {
      "midi": 37,
      "hit": false,
      "t": 48205.19645833348,
      "d": 482.14125000000786,
      "v": 84
    },
    {
      "midi": 77,
      "hit": false,
      "t": 48205.19645833348,
      "d": 1241.0672916666736,
      "v": 90
    },
    {
      "midi": 70,
      "hit": false,
      "t": 48633.766458333484,
      "d": 526.7839583333334,
      "v": 64
    },
    {
      "midi": 43,
      "hit": false,
      "t": 48651.62354166682,
      "d": 419.6414583333317,
      "v": 72
    },
    {
      "midi": 46,
      "hit": false,
      "t": 49062.336458333484,
      "d": 464.2841666666718,
      "v": 60
    },
    {
      "midi": 67,
      "hit": false,
      "t": 49080.19354166682,
      "d": 491.0697916666686,
      "v": 64
    },
    {
      "midi": 70,
      "hit": false,
      "t": 49499.83500000015,
      "d": 89.28541666667297,
      "v": 64
    },
    {
      "midi": 49,
      "hit": false,
      "t": 49517.69208333349,
      "d": 62.4997916666689,
      "v": 62
    },
    {
      "midi": 67,
      "hit": false,
      "t": 49919.47645833349,
      "d": 455.3556249999965,
      "v": 63
    },
    {
      "midi": 70,
      "hit": false,
      "t": 49919.47645833349,
      "d": 821.4258333333273,
      "v": 78
    },
    {
      "midi": 55,
      "hit": false,
      "t": 49928.40500000016,
      "d": 446.4270833333285,
      "v": 63
    },
    {
      "midi": 58,
      "hit": false,
      "t": 50321.26083333349,
      "d": 464.28416666666453,
      "v": 53
    },
    {
      "midi": 63,
      "hit": false,
      "t": 50339.11791666682,
      "d": 446.4270833333285,
      "v": 60
    },
    {
      "midi": 67,
      "hit": false,
      "t": 50749.830833333486,
      "d": 383.92729166666686,
      "v": 67
    },
    {
      "midi": 55,
      "hit": false,
      "t": 50758.759375000154,
      "d": 383.92729166666686,
      "v": 67
    },
    {
      "midi": 72,
      "hit": false,
      "t": 51187.329375000154,
      "d": 44.64270833333285,
      "v": 81
    },
    {
      "midi": 63,
      "hit": false,
      "t": 51187.329375000154,
      "d": 267.85625000000437,
      "v": 75
    },
    {
      "midi": 49,
      "hit": false,
      "t": 51196.25791666682,
      "d": 446.42708333333576,
      "v": 64
    },
    {
      "midi": 73,
      "hit": false,
      "t": 51392.68583333349,
      "d": 205.35645833333547,
      "v": 78
    },
    {
      "midi": 68,
      "hit": false,
      "t": 51633.75645833349,
      "d": 526.7839583333334,
      "v": 67
    },
    {
      "midi": 75,
      "hit": false,
      "t": 51642.68500000016,
      "d": 848.2114583333314,
      "v": 72
    },
    {
      "midi": 48,
      "hit": false,
      "t": 51651.613541666826,
      "d": 535.7124999999942,
      "v": 72
    },
    {
      "midi": 51,
      "hit": false,
      "t": 52044.46937500016,
      "d": 446.4270833333285,
      "v": 56
    },
    {
      "midi": 63,
      "hit": false,
      "t": 52071.25500000016,
      "d": 419.6414583333317,
      "v": 53
    },
    {
      "midi": 68,
      "hit": false,
      "t": 52473.03937500015,
      "d": 562.4981250000128,
      "v": 64
    },
    {
      "midi": 48,
      "hit": false,
      "t": 52499.82500000016,
      "d": 491.0697916666759,
      "v": 72
    },
    {
      "midi": 63,
      "hit": false,
      "t": 52901.60937500016,
      "d": 151.78520833334187,
      "v": 64
    },
    {
      "midi": 51,
      "hit": false,
      "t": 52919.466458333496,
      "d": 151.78520833334187,
      "v": 62
    },
    {
      "midi": 63,
      "hit": false,
      "t": 53330.179375000174,
      "d": 437.49854166666773,
      "v": 78
    },
    {
      "midi": 48,
      "hit": false,
      "t": 53339.10791666684,
      "d": 419.6414583333317,
      "v": 75
    },
    {
      "midi": 69,
      "hit": false,
      "t": 53339.10791666684,
      "d": 955.3539583333331,
      "v": 82
    },
    {
      "midi": 41,
      "hit": false,
      "t": 53356.96500000018,
      "d": 1491.0664583333346,
      "v": 64
    },
    {
      "midi": 60,
      "hit": false,
      "t": 53731.96375000018,
      "d": 294.64187500000116,
      "v": 64
    },
    {
      "midi": 53,
      "hit": false,
      "t": 53758.749375000174,
      "d": 392.8558333333349,
      "v": 64
    },
    {
      "midi": 63,
      "hit": false,
      "t": 54187.319375000174,
      "d": 491.0697916666686,
      "v": 59
    },
    {
      "midi": 48,
      "hit": false,
      "t": 54196.24791666684,
      "d": 553.5695833333375,
      "v": 59
    },
    {
      "midi": 60,
      "hit": false,
      "t": 54606.960833333505,
      "d": 187.4993750000067,
      "v": 58
    },
    {
      "midi": 53,
      "hit": false,
      "t": 54606.960833333505,
      "d": 499.9983333333439,
      "v": 58
    },
    {
      "midi": 73,
      "hit": false,
      "t": 55071.24500000018,
      "d": 1419.638125000005,
      "v": 85
    },
    {
      "midi": 65,
      "hit": false,
      "t": 55080.173541666845,
      "d": 464.2841666666718,
      "v": 69
    },
    {
      "midi": 46,
      "hit": false,
      "t": 55080.173541666845,
      "d": 1455.3522916666698,
      "v": 62
    },
    {
      "midi": 49,
      "hit": false,
      "t": 55089.10208333351,
      "d": 482.1412500000006,
      "v": 62
    },
    {
      "midi": 53,
      "hit": false,
      "t": 55526.60062500018,
      "d": 401.7843750000029,
      "v": 59
    },
    {
      "midi": 61,
      "hit": false,
      "t": 55526.60062500018,
      "d": 428.570000000007,
      "v": 60
    },
    {
      "midi": 65,
      "hit": false,
      "t": 55946.24208333352,
      "d": 848.2114583333241,
      "v": 69
    },
    {
      "midi": 49,
      "hit": false,
      "t": 55981.956250000185,
      "d": 464.28416666666453,
      "v": 56
    },
    {
      "midi": 61,
      "hit": false,
      "t": 56392.66916666685,
      "d": 223.21354166666424,
      "v": 62
    },
    {
      "midi": 53,
      "hit": false,
      "t": 56410.526250000185,
      "d": 44.64270833333285,
      "v": 56
    },
    {
      "midi": 39,
      "hit": false,
      "t": 56821.23916666684,
      "d": 1267.852916666685,
      "v": 60
    },
    {
      "midi": 61,
      "hit": false,
      "t": 56830.16770833351,
      "d": 258.92770833333634,
      "v": 66
    },
    {
      "midi": 72,
      "hit": false,
      "t": 56839.09625000018,
      "d": 232.14208333333227,
      "v": 72
    },
    {
      "midi": 46,
      "hit": false,
      "t": 56848.024791666845,
      "d": 428.5699999999997,
      "v": 60
    },
    {
      "midi": 70,
      "hit": false,
      "t": 57258.73770833351,
      "d": 258.92770833333634,
      "v": 79
    },
    {
      "midi": 51,
      "hit": false,
      "t": 57258.73770833351,
      "d": 455.35562500001106,
      "v": 66
    },
    {
      "midi": 61,
      "hit": false,
      "t": 57267.66625000018,
      "d": 232.14208333333227,
      "v": 71
    },
    {
      "midi": 61,
      "hit": false,
      "t": 57678.37916666685,
      "d": 249.9991666666756,
      "v": 78
    },
    {
      "midi": 68,
      "hit": false,
      "t": 57678.37916666685,
      "d": 294.64187500000844,
      "v": 78
    },
    {
      "midi": 46,
      "hit": false,
      "t": 57696.236250000184,
      "d": 464.2841666666718,
      "v": 62
    },
    {
      "midi": 51,
      "hit": false,
      "t": 58115.87770833352,
      "d": 455.3556250000038,
      "v": 69
    },
    {
      "midi": 67,
      "hit": false,
      "t": 58115.87770833352,
      "d": 473.21270833333983,
      "v": 84
    },
    {
      "midi": 61,
      "hit": false,
      "t": 58124.80625000019,
      "d": 276.7847916666651,
      "v": 67
    },
    {
      "midi": 44,
      "hit": false,
      "t": 58544.44770833352,
      "d": 1589.2804166666683,
      "v": 81
    },
    {
      "midi": 70,
      "hit": false,
      "t": 58553.37625000019,
      "d": 1401.781041666669,
      "v": 84
    },
    {
      "midi": 61,
      "hit": false,
      "t": 58571.23333333353,
      "d": 517.8554166666654,
      "v": 81
    },
    {
      "midi": 51,
      "hit": false,
      "t": 58990.87479166686,
      "d": 553.5695833333375,
      "v": 62
    },
    {
      "midi": 63,
      "hit": false,
      "t": 58999.803333333526,
      "d": 499.99833333333663,
      "v": 69
    },
    {
      "midi": 55,
      "hit": false,
      "t": 59446.23041666686,
      "d": 89.2854166666657,
      "v": 64
    },
    {
      "midi": 61,
      "hit": false,
      "t": 59446.23041666686,
      "d": 482.1412500000006,
      "v": 57
    },
    {
      "midi": 63,
      "hit": false,
      "t": 59874.80041666686,
      "d": 517.8554166666654,
      "v": 64
    },
    {
      "midi": 51,
      "hit": false,
      "t": 59883.72895833353,
      "d": 544.6410416666695,
      "v": 54
    },
    {
      "midi": 60,
      "hit": false,
      "t": 60401.584375000195,
      "d": 1053.5679166666741,
      "v": 56
    },
    {
      "midi": 68,
      "hit": false,
      "t": 60401.584375000195,
      "d": 1116.067708333343,
      "v": 54
    },
    {
      "midi": 44,
      "hit": false,
      "t": 60410.51291666686,
      "d": 1089.282083333339,
      "v": 49
    },
    {
      "midi": 56,
      "hit": false,
      "t": 60446.227083333535,
      "d": 1026.78229166667,
      "v": 42
    },
    {
      "midi": 60,
      "hit": false,
      "t": 62303.36375000021,
      "d": 133.92812499999854,
      "v": 59
    },
    {
      "midi": 72,
      "hit": false,
      "t": 62481.93458333354,
      "d": 2214.2783333333355,
      "v": 69
    },
    {
      "midi": 60,
      "hit": false,
      "t": 62981.932916666876,
      "d": 124.99958333333052,
      "v": 69
    },
    {
      "midi": 60,
      "hit": false,
      "t": 63401.57437500021,
      "d": 80.35687499999767,
      "v": 67
    },
    {
      "midi": 60,
      "hit": false,
      "t": 63830.14437500021,
      "d": 53.57125000000087,
      "v": 64
    },
    {
      "midi": 60,
      "hit": false,
      "t": 64240.85729166687,
      "d": 294.64187500000116,
      "v": 78
    },
    {
      "midi": 60,
      "hit": false,
      "t": 64651.57020833354,
      "d": 151.7852083333346,
      "v": 75
    },
    {
      "midi": 80,
      "hit": false,
      "t": 64660.49875000021,
      "d": 491.0697916666686,
      "v": 90
    },
    {
      "midi": 60,
      "hit": false,
      "t": 65089.06875000021,
      "d": 107.14250000000175,
      "v": 67
    },
    {
      "midi": 79,
      "hit": false,
      "t": 65089.06875000021,
      "d": 455.3556249999965,
      "v": 103
    },
    {
      "midi": 77,
      "hit": false,
      "t": 65526.56729166688,
      "d": 473.2127083333253,
      "v": 90
    },
    {
      "midi": 60,
      "hit": false,
      "t": 65544.4243750002,
      "d": 53.5712499999936,
      "v": 69
    },
    {
      "midi": 60,
      "hit": false,
      "t": 65981.92291666687,
      "d": 285.7133333333477,
      "v": 67
    },
    {
      "midi": 84,
      "hit": false,
      "t": 65990.85145833353,
      "d": 2062.493125000052,
      "v": 90
    },
    {
      "midi": 55,
      "hit": false,
      "t": 65999.7800000002,
      "d": 303.57041666668374,
      "v": 81
    },
    {
      "midi": 52,
      "hit": false,
      "t": 66017.63708333354,
      "d": 258.9277083333436,
      "v": 75
    },
    {
      "midi": 55,
      "hit": false,
      "t": 66437.27854166689,
      "d": 133.92812500000582,
      "v": 63
    },
    {
      "midi": 60,
      "hit": false,
      "t": 66437.27854166689,
      "d": 142.85666666667385,
      "v": 63
    },
    {
      "midi": 52,
      "hit": false,
      "t": 66455.13562500023,
      "d": 124.9995833333378,
      "v": 63
    },
    {
      "midi": 60,
      "hit": false,
      "t": 66856.92000000023,
      "d": 98.21395833333372,
      "v": 65
    },
    {
      "midi": 55,
      "hit": false,
      "t": 66865.8485416669,
      "d": 133.92812500000582,
      "v": 65
    },
    {
      "midi": 52,
      "hit": false,
      "t": 66874.77708333357,
      "d": 124.9995833333378,
      "v": 65
    },
    {
      "midi": 60,
      "hit": false,
      "t": 67276.56145833357,
      "d": 107.14250000000175,
      "v": 57
    },
    {
      "midi": 52,
      "hit": false,
      "t": 67285.49000000024,
      "d": 80.35687499999767,
      "v": 57
    },
    {
      "midi": 55,
      "hit": false,
      "t": 67285.49000000024,
      "d": 98.21395833333372,
      "v": 57
    },
    {
      "midi": 60,
      "hit": false,
      "t": 67714.06000000025,
      "d": 285.71333333333314,
      "v": 70
    },
    {
      "midi": 56,
      "hit": false,
      "t": 67722.98854166691,
      "d": 330.35604166667326,
      "v": 70
    },
    {
      "midi": 53,
      "hit": false,
      "t": 67731.91708333358,
      "d": 285.71333333333314,
      "v": 70
    },
    {
      "midi": 56,
      "hit": false,
      "t": 68124.77291666692,
      "d": 187.49937499999942,
      "v": 72
    },
    {
      "midi": 60,
      "hit": false,
      "t": 68142.63000000025,
      "d": 151.78520833332732,
      "v": 81
    },
    {
      "midi": 53,
      "hit": false,
      "t": 68142.63000000025,
      "d": 160.71374999999534,
      "v": 62
    },
    {
      "midi": 80,
      "hit": false,
      "t": 68142.63000000025,
      "d": 428.56999999999243,
      "v": 90
    },
    {
      "midi": 79,
      "hit": false,
      "t": 68571.20000000024,
      "d": 482.14125000001513,
      "v": 92
    },
    {
      "midi": 53,
      "hit": false,
      "t": 68589.05708333358,
      "d": 53.5712499999936,
      "v": 57
    },
    {
      "midi": 60,
      "hit": false,
      "t": 68589.05708333358,
      "d": 89.2854166666657,
      "v": 67
    },
    {
      "midi": 56,
      "hit": false,
      "t": 68589.05708333358,
      "d": 133.92812500000582,
      "v": 67
    },
    {
      "midi": 77,
      "hit": false,
      "t": 68990.84145833358,
      "d": 473.21270833336166,
      "v": 90
    },
    {
      "midi": 56,
      "hit": false,
      "t": 68999.77000000025,
      "d": 80.35687500001222,
      "v": 67
    },
    {
      "midi": 60,
      "hit": false,
      "t": 69008.69854166692,
      "d": 53.57125000000815,
      "v": 62
    },
    {
      "midi": 53,
      "hit": false,
      "t": 69026.55562500026,
      "d": 44.642708333340124,
      "v": 56
    },
    {
      "midi": 72,
      "hit": false,
      "t": 69428.34000000027,
      "d": 2214.2783333334373,
      "v": 87
    },
    {
      "midi": 64,
      "hit": false,
      "t": 69437.26854166694,
      "d": 276.78479166667967,
      "v": 72
    },
    {
      "midi": 58,
      "hit": false,
      "t": 69446.19708333361,
      "d": 330.35604166667326,
      "v": 64
    },
    {
      "midi": 55,
      "hit": false,
      "t": 69455.12562500028,
      "d": 258.9277083333436,
      "v": 72
    },
    {
      "midi": 58,
      "hit": false,
      "t": 69874.76708333362,
      "d": 187.49937500001397,
      "v": 56
    },
    {
      "midi": 64,
      "hit": false,
      "t": 69883.69562500028,
      "d": 107.14250000000175,
      "v": 62
    },
    {
      "midi": 55,
      "hit": false,
      "t": 69892.62416666695,
      "d": 133.92812500000582,
      "v": 67
    },
    {
      "midi": 58,
      "hit": false,
      "t": 70294.40854166697,
      "d": 205.35645833335002,
      "v": 59
    },
    {
      "midi": 64,
      "hit": false,
      "t": 70312.2656250003,
      "d": 124.9995833333378,
      "v": 72
    },
    {
      "midi": 55,
      "hit": false,
      "t": 70312.2656250003,
      "d": 142.85666666667385,
      "v": 72
    },
    {
      "midi": 58,
      "hit": false,
      "t": 70722.97854166699,
      "d": 187.49937500001397,
      "v": 62
    },
    {
      "midi": 55,
      "hit": false,
      "t": 70740.83562500033,
      "d": 107.14250000000175,
      "v": 75
    },
    {
      "midi": 64,
      "hit": false,
      "t": 70740.83562500033,
      "d": 133.92812500000582,
      "v": 62
    },
    {
      "midi": 56,
      "hit": false,
      "t": 71169.40562500035,
      "d": 303.57041666668374,
      "v": 64
    },
    {
      "midi": 60,
      "hit": false,
      "t": 71178.33416666702,
      "d": 285.7133333333477,
      "v": 72
    },
    {
      "midi": 65,
      "hit": false,
      "t": 71187.26270833368,
      "d": 249.9991666666756,
      "v": 56
    },
    {
      "midi": 65,
      "hit": false,
      "t": 71580.11854166703,
      "d": 178.57083333334594,
      "v": 64
    },
    {
      "midi": 56,
      "hit": false,
      "t": 71580.11854166703,
      "d": 241.07062500000757,
      "v": 78
    },
    {
      "midi": 80,
      "hit": false,
      "t": 71589.0470833337,
      "d": 491.0697916666686,
      "v": 90
    },
    {
      "midi": 60,
      "hit": false,
      "t": 71597.97562500037,
      "d": 151.78520833334187,
      "v": 62
    },
    {
      "midi": 56,
      "hit": false,
      "t": 71990.8314583337,
      "d": 178.5708333333314,
      "v": 62
    },
    {
      "midi": 65,
      "hit": false,
      "t": 71999.76000000037,
      "d": 116.07104166666977,
      "v": 67
    },
    {
      "midi": 79,
      "hit": false,
      "t": 72008.68854166704,
      "d": 437.49854166666046,
      "v": 98
    },
    {
      "midi": 60,
      "hit": false,
      "t": 72017.61708333371,
      "d": 53.5712499999936,
      "v": 67
    },
    {
      "midi": 56,
      "hit": false,
      "t": 72419.4014583337,
      "d": 89.28541666668025,
      "v": 75
    },
    {
      "midi": 77,
      "hit": false,
      "t": 72428.33000000037,
      "d": 473.21270833336166,
      "v": 84
    },
    {
      "midi": 60,
      "hit": false,
      "t": 72437.25854166703,
      "d": 53.57125000000815,
      "v": 75
    },
    {
      "midi": 65,
      "hit": false,
      "t": 72437.25854166703,
      "d": 53.57125000000815,
      "v": 60
    },
    {
      "midi": 75,
      "hit": false,
      "t": 72865.82854166706,
      "d": 892.8541666667006,
      "v": 75
    },
    {
      "midi": 58,
      "hit": false,
      "t": 72874.75708333372,
      "d": 294.64187500000116,
      "v": 56
    },
    {
      "midi": 68,
      "hit": false,
      "t": 72883.68562500039,
      "d": 276.7847916666651,
      "v": 52
    },
    {
      "midi": 65,
      "hit": false,
      "t": 72892.61416666706,
      "d": 285.71333333333314,
      "v": 60
    },
    {
      "midi": 68,
      "hit": false,
      "t": 73303.32708333373,
      "d": 116.07104166666977,
      "v": 63
    },
    {
      "midi": 58,
      "hit": false,
      "t": 73303.32708333373,
      "d": 169.64229166667792,
      "v": 63
    },
    {
      "midi": 65,
      "hit": false,
      "t": 73312.2556250004,
      "d": 133.92812500000582,
      "v": 63
    },
    {
      "midi": 68,
      "hit": false,
      "t": 73722.96854166708,
      "d": 267.8562499999971,
      "v": 60
    },
    {
      "midi": 74,
      "hit": false,
      "t": 73722.96854166708,
      "d": 1366.0668750000186,
      "v": 82
    },
    {
      "midi": 58,
      "hit": false,
      "t": 73731.89708333375,
      "d": 267.8562499999971,
      "v": 60
    },
    {
      "midi": 65,
      "hit": false,
      "t": 73731.89708333375,
      "d": 285.71333333333314,
      "v": 67
    },
    {
      "midi": 68,
      "hit": false,
      "t": 74160.46708333376,
      "d": 142.85666666667385,
      "v": 62
    },
    {
      "midi": 65,
      "hit": false,
      "t": 74169.39562500043,
      "d": 124.9995833333378,
      "v": 64
    },
    {
      "midi": 58,
      "hit": false,
      "t": 74178.3241666671,
      "d": 133.92812500000582,
      "v": 57
    },
    {
      "midi": 68,
      "hit": false,
      "t": 74562.25145833376,
      "d": 285.71333333333314,
      "v": 64
    },
    {
      "midi": 65,
      "hit": false,
      "t": 74562.25145833376,
      "d": 321.42750000000524,
      "v": 67
    },
    {
      "midi": 59,
      "hit": false,
      "t": 74589.03708333377,
      "d": 249.99916666666104,
      "v": 72
    },
    {
      "midi": 68,
      "hit": false,
      "t": 74990.82145833377,
      "d": 124.9995833333378,
      "v": 64
    },
    {
      "midi": 65,
      "hit": false,
      "t": 74990.82145833377,
      "d": 142.85666666667385,
      "v": 59
    },
    {
      "midi": 59,
      "hit": false,
      "t": 75008.6785416671,
      "d": 124.9995833333378,
      "v": 72
    },
    {
      "midi": 75,
      "hit": false,
      "t": 75133.67812500044,
      "d": 107.14250000000175,
      "v": 72
    },
    {
      "midi": 74,
      "hit": false,
      "t": 75214.03500000044,
      "d": 44.642708333340124,
      "v": 78
    },
    {
      "midi": 72,
      "hit": false,
      "t": 75294.39187500045,
      "d": 89.2854166666657,
      "v": 79
    },
    {
      "midi": 74,
      "hit": false,
      "t": 75365.82020833378,
      "d": 116.07104166668432,
      "v": 77
    },
    {
      "midi": 62,
      "hit": false,
      "t": 75446.1770833338,
      "d": 294.64187500000116,
      "v": 73
    },
    {
      "midi": 68,
      "hit": false,
      "t": 75446.1770833338,
      "d": 312.4989583333372,
      "v": 73
    },
    {
      "midi": 59,
      "hit": false,
      "t": 75455.10562500046,
      "d": 267.8562499999971,
      "v": 73
    },
    {
      "midi": 77,
      "hit": false,
      "t": 75455.10562500046,
      "d": 660.7120833333611,
      "v": 94
    },
    {
      "midi": 68,
      "hit": false,
      "t": 75901.5327083338,
      "d": 169.64229166667792,
      "v": 62
    },
    {
      "midi": 62,
      "hit": false,
      "t": 75910.46125000047,
      "d": 178.57083333334594,
      "v": 78
    },
    {
      "midi": 59,
      "hit": false,
      "t": 75928.31833333381,
      "d": 133.92812500000582,
      "v": 62
    },
    {
      "midi": 75,
      "hit": false,
      "t": 76097.96062500049,
      "d": 89.2854166666657,
      "v": 78
    },
    {
      "midi": 75,
      "hit": false,
      "t": 76312.24562500049,
      "d": 1392.8525000000081,
      "v": 77
    },
    {
      "midi": 67,
      "hit": false,
      "t": 76330.10270833383,
      "d": 196.42791666666744,
      "v": 60
    },
    {
      "midi": 63,
      "hit": false,
      "t": 76330.10270833383,
      "d": 223.21354166667152,
      "v": 62
    },
    {
      "midi": 60,
      "hit": false,
      "t": 76339.0312500005,
      "d": 241.07062500000757,
      "v": 67
    },
    {
      "midi": 63,
      "hit": false,
      "t": 76740.8156250005,
      "d": 187.49937499999942,
      "v": 54
    },
    {
      "midi": 67,
      "hit": false,
      "t": 76758.67270833383,
      "d": 107.14250000000175,
      "v": 54
    },
    {
      "midi": 60,
      "hit": false,
      "t": 76758.67270833383,
      "d": 178.5708333333314,
      "v": 54
    },
    {
      "midi": 63,
      "hit": false,
      "t": 77187.24270833383,
      "d": 178.57083333334594,
      "v": 52
    },
    {
      "midi": 67,
      "hit": false,
      "t": 77196.1712500005,
      "d": 133.92812500000582,
      "v": 35
    },
    {
      "midi": 60,
      "hit": false,
      "t": 77205.09979166716,
      "d": 151.78520833334187,
      "v": 52
    },
    {
      "midi": 67,
      "hit": false,
      "t": 77624.7412500005,
      "d": 89.2854166666657,
      "v": 50
    },
    {
      "midi": 63,
      "hit": false,
      "t": 77633.66979166717,
      "d": 142.8566666666593,
      "v": 46
    },
    {
      "midi": 60,
      "hit": false,
      "t": 77642.59833333384,
      "d": 142.8566666666593,
      "v": 54
    },
    {
      "midi": 65,
      "hit": false,
      "t": 78080.0968750005,
      "d": 1044.639375000028,
      "v": 90
    },
    {
      "midi": 63,
      "hit": false,
      "t": 78106.8825000005,
      "d": 267.8562499999971,
      "v": 59
    },
    {
      "midi": 56,
      "hit": false,
      "t": 78115.81104166717,
      "d": 276.7847916666651,
      "v": 54
    },
    {
      "midi": 56,
      "hit": false,
      "t": 78526.52395833384,
      "d": 214.2850000000035,
      "v": 54
    },
    {
      "midi": 63,
      "hit": false,
      "t": 78544.38104166718,
      "d": 196.42791666666744,
      "v": 53
    },
    {
      "midi": 56,
      "hit": false,
      "t": 78972.95104166718,
      "d": 133.92812500000582,
      "v": 54
    },
    {
      "midi": 63,
      "hit": false,
      "t": 78990.80812500052,
      "d": 116.07104166666977,
      "v": 60
    },
    {
      "midi": 67,
      "hit": false,
      "t": 79169.37895833387,
      "d": 116.07104166666977,
      "v": 64
    },
    {
      "midi": 65,
      "hit": false,
      "t": 79249.73583333386,
      "d": 98.21395833333372,
      "v": 72
    },
    {
      "midi": 64,
      "hit": false,
      "t": 79356.87833333387,
      "d": 44.642708333340124,
      "v": 78
    },
    {
      "midi": 56,
      "hit": false,
      "t": 79419.37812500054,
      "d": 71.42833333332965,
      "v": 64
    },
    {
      "midi": 63,
      "hit": false,
      "t": 79419.37812500054,
      "d": 71.42833333332965,
      "v": 64
    },
    {
      "midi": 65,
      "hit": false,
      "t": 79437.23520833388,
      "d": 107.1424999999872,
      "v": 87
    },
    {
      "midi": 68,
      "hit": false,
      "t": 79571.16333333387,
      "d": 107.14250000000175,
      "v": 84
    },
    {
      "midi": 72,
      "hit": false,
      "t": 79714.02000000054,
      "d": 89.2854166666657,
      "v": 78
    },
    {
      "midi": 71,
      "hit": false,
      "t": 79830.09104166721,
      "d": 35.7141666666721,
      "v": 81
    },
    {
      "midi": 72,
      "hit": false,
      "t": 79892.59083333389,
      "d": 80.35687499999767,
      "v": 90
    },
    {
      "midi": 74,
      "hit": false,
      "t": 79964.01916666722,
      "d": 107.14250000000175,
      "v": 84
    },
    {
      "midi": 72,
      "hit": false,
      "t": 80053.30458333388,
      "d": 133.92812500000582,
      "v": 81
    },
    {
      "midi": 70,
      "hit": false,
      "t": 80205.08979166723,
      "d": 241.07062500000757,
      "v": 72
    },
    {
      "midi": 79,
      "hit": false,
      "t": 80455.0889583339,
      "d": 848.2114583333605,
      "v": 92
    },
    {
      "midi": 58,
      "hit": false,
      "t": 80464.01750000057,
      "d": 241.07062500000757,
      "v": 52
    },
    {
      "midi": 67,
      "hit": false,
      "t": 80472.94604166724,
      "d": 196.42791666666744,
      "v": 47
    },
    {
      "midi": 63,
      "hit": false,
      "t": 80472.94604166724,
      "d": 249.9991666666756,
      "v": 60
    },
    {
      "midi": 63,
      "hit": false,
      "t": 80892.58750000058,
      "d": 214.28500000001804,
      "v": 67
    },
    {
      "midi": 67,
      "hit": false,
      "t": 80901.51604166724,
      "d": 133.92812500000582,
      "v": 69
    },
    {
      "midi": 58,
      "hit": false,
      "t": 80901.51604166724,
      "d": 178.57083333334594,
      "v": 64
    },
    {
      "midi": 77,
      "hit": false,
      "t": 81294.3718750006,
      "d": 249.99916666669014,
      "v": 98
    },
    {
      "midi": 67,
      "hit": false,
      "t": 81312.22895833393,
      "d": 44.642708333340124,
      "v": 62
    },
    {
      "midi": 63,
      "hit": false,
      "t": 81312.22895833393,
      "d": 98.21395833333372,
      "v": 59
    },
    {
      "midi": 58,
      "hit": false,
      "t": 81330.08604166727,
      "d": 124.9995833333378,
      "v": 53
    },
    {
      "midi": 75,
      "hit": false,
      "t": 81499.72833333394,
      "d": 258.9277083333436,
      "v": 90
    },
    {
      "midi": 74,
      "hit": false,
      "t": 81714.01333333395,
      "d": 205.35645833333547,
      "v": 94
    },
    {
      "midi": 72,
      "hit": false,
      "t": 81910.44125000061,
      "d": 223.21354166667152,
      "v": 90
    },
    {
      "midi": 70,
      "hit": false,
      "t": 82115.79770833395,
      "d": 249.99916666669014,
      "v": 78
    },
    {
      "midi": 56,
      "hit": false,
      "t": 82133.65479166729,
      "d": 160.7137500000099,
      "v": 48
    },
    {
      "midi": 50,
      "hit": false,
      "t": 82142.58333333395,
      "d": 124.9995833333378,
      "v": 67
    },
    {
      "midi": 46,
      "hit": false,
      "t": 82151.51187500062,
      "d": 116.07104166666977,
      "v": 49
    },
    {
      "midi": 69,
      "hit": false,
      "t": 82321.1541666673,
      "d": 223.21354166667152,
      "v": 84
    },
    {
      "midi": 56,
      "hit": false,
      "t": 82526.51062500064,
      "d": 151.78520833334187,
      "v": 59
    },
    {
      "midi": 72,
      "hit": false,
      "t": 82535.4391666673,
      "d": 205.35645833335002,
      "v": 94
    },
    {
      "midi": 50,
      "hit": false,
      "t": 82553.29625000064,
      "d": 116.07104166666977,
      "v": 67
    },
    {
      "midi": 46,
      "hit": false,
      "t": 82553.29625000064,
      "d": 133.92812500000582,
      "v": 47
    },
    {
      "midi": 70,
      "hit": false,
      "t": 82722.93854166732,
      "d": 276.78479166667967,
      "v": 87
    },
    {
      "midi": 56,
      "hit": false,
      "t": 82955.08062500066,
      "d": 116.07104166668432,
      "v": 67
    },
    {
      "midi": 68,
      "hit": false,
      "t": 82964.00916666733,
      "d": 214.28500000001804,
      "v": 87
    },
    {
      "midi": 50,
      "hit": false,
      "t": 82981.86625000066,
      "d": 62.499791666676174,
      "v": 64
    },
    {
      "midi": 46,
      "hit": false,
      "t": 82981.86625000066,
      "d": 107.1425000000163,
      "v": 52
    },
    {
      "midi": 65,
      "hit": false,
      "t": 83160.437083334,
      "d": 312.4989583333372,
      "v": 84
    },
    {
      "midi": 63,
      "hit": false,
      "t": 83464.00750000068,
      "d": 919.6397916666756,
      "v": 72
    },
    {
      "midi": 51,
      "hit": false,
      "t": 83472.93604166734,
      "d": 955.3539583333477,
      "v": 54
    },
    {
      "midi": 55,
      "hit": false,
      "t": 83499.72166666735,
      "d": 901.7827083333395,
      "v": 49
    },
    {
      "midi": 58,
      "hit": false,
      "t": 84865.78854166735,
      "d": 437.498541666675,
      "v": 68
    },
    {
      "midi": 55,
      "hit": false,
      "t": 85294.35854166736,
      "d": 455.35562500001106,
      "v": 72
    },
    {
      "midi": 58,
      "hit": false,
      "t": 85731.85708333403,
      "d": 410.71291666667094,
      "v": 72
    },
    {
      "midi": 55,
      "hit": false,
      "t": 86133.64145833404,
      "d": 499.99833333333663,
      "v": 68
    },
    {
      "midi": 51,
      "hit": false,
      "t": 86571.14000000071,
      "d": 357.1416666666628,
      "v": 68
    },
    {
      "midi": 51,
      "hit": false,
      "t": 86999.7100000007,
      "d": 473.2127083333471,
      "v": 78
    },
    {
      "midi": 34,
      "hit": false,
      "t": 87017.56708333404,
      "d": 3464.274166666728,
      "v": 69
    },
    {
      "midi": 56,
      "hit": false,
      "t": 87026.49562500071,
      "d": 491.06979166668316,
      "v": 51
    },
    {
      "midi": 53,
      "hit": false,
      "t": 87035.42416666738,
      "d": 455.35562500001106,
      "v": 51
    },
    {
      "midi": 50,
      "hit": false,
      "t": 87437.20854166738,
      "d": 124.99958333335235,
      "v": 76
    },
    {
      "midi": 50,
      "hit": false,
      "t": 87874.70708333407,
      "d": 428.56999999999243,
      "v": 69
    },
    {
      "midi": 53,
      "hit": false,
      "t": 87874.70708333407,
      "d": 482.14124999998603,
      "v": 53
    },
    {
      "midi": 56,
      "hit": false,
      "t": 87883.63562500074,
      "d": 499.9983333333221,
      "v": 53
    },
    {
      "midi": 48,
      "hit": false,
      "t": 88303.27708333406,
      "d": 124.9995833333378,
      "v": 62
    },
    {
      "midi": 48,
      "hit": false,
      "t": 88722.9185416674,
      "d": 401.7843750000029,
      "v": 78
    },
    {
      "midi": 56,
      "hit": false,
      "t": 88731.84708333407,
      "d": 758.9260416666802,
      "v": 55
    },
    {
      "midi": 53,
      "hit": false,
      "t": 88740.77562500074,
      "d": 758.9260416666802,
      "v": 55
    },
    {
      "midi": 47,
      "hit": false,
      "t": 89151.48854166741,
      "d": 321.42750000000524,
      "v": 75
    },
    {
      "midi": 56,
      "hit": false,
      "t": 89588.9870833341,
      "d": 544.6410416666622,
      "v": 57
    },
    {
      "midi": 47,
      "hit": false,
      "t": 89597.91562500077,
      "d": 544.6410416666622,
      "v": 72
    },
    {
      "midi": 50,
      "hit": false,
      "t": 89597.91562500077,
      "d": 624.9979166666599,
      "v": 57
    },
    {
      "midi": 53,
      "hit": false,
      "t": 89597.91562500077,
      "d": 624.9979166666599,
      "v": 57
    },
    {
      "midi": 46,
      "hit": false,
      "t": 90017.55708333409,
      "d": 205.35645833333547,
      "v": 71
    },
    {
      "midi": 46,
      "hit": false,
      "t": 90455.05562500076,
      "d": 1008.9252083333413,
      "v": 81
    },
    {
      "midi": 51,
      "hit": false,
      "t": 90472.9127083341,
      "d": 1026.7822916666773,
      "v": 57
    },
    {
      "midi": 39,
      "hit": false,
      "t": 90481.84125000077,
      "d": 999.9966666666733,
      "v": 59
    },
    {
      "midi": 55,
      "hit": false,
      "t": 90481.84125000077,
      "d": 999.9966666666733,
      "v": 57
    },
    {
      "midi": 46,
      "hit": false,
      "t": 91883.62229166745,
      "d": 455.35562500001106,
      "v": 80
    },
    {
      "midi": 43,
      "hit": false,
      "t": 92312.19229166745,
      "d": 428.570000000007,
      "v": 81
    },
    {
      "midi": 46,
      "hit": false,
      "t": 92731.83375000079,
      "d": 437.498541666675,
      "v": 72
    },
    {
      "midi": 58,
      "hit": false,
      "t": 93160.4037500008,
      "d": 687.497708333336,
      "v": 81
    },
    {
      "midi": 43,
      "hit": false,
      "t": 93169.33229166747,
      "d": 383.92729166666686,
      "v": 64
    },
    {
      "midi": 39,
      "hit": false,
      "t": 93606.83083333413,
      "d": 446.4270833333576,
      "v": 62
    },
    {
      "midi": 63,
      "hit": false,
      "t": 93812.18729166746,
      "d": 80.35687500001222,
      "v": 69
    },
    {
      "midi": 63,
      "hit": false,
      "t": 94035.40083333415,
      "d": 339.2845833333413,
      "v": 59
    },
    {
      "midi": 34,
      "hit": false,
      "t": 94035.40083333415,
      "d": 1874.9937500000378,
      "v": 57
    },
    {
      "midi": 56,
      "hit": false,
      "t": 94053.25791666748,
      "d": 1571.423333333354,
      "v": 72
    },
    {
      "midi": 53,
      "hit": false,
      "t": 94071.11500000082,
      "d": 1544.63770833335,
      "v": 64
    },
    {
      "midi": 62,
      "hit": false,
      "t": 94508.6135416675,
      "d": 187.49937499999942,
      "v": 75
    },
    {
      "midi": 62,
      "hit": false,
      "t": 94928.25500000083,
      "d": 374.99874999999884,
      "v": 75
    },
    {
      "midi": 60,
      "hit": false,
      "t": 95347.89645833417,
      "d": 196.42791666666744,
      "v": 72
    },
    {
      "midi": 56,
      "hit": false,
      "t": 95776.46645833418,
      "d": 1357.138333333336,
      "v": 57
    },
    {
      "midi": 60,
      "hit": false,
      "t": 95785.39500000085,
      "d": 374.9987500000134,
      "v": 67
    },
    {
      "midi": 53,
      "hit": false,
      "t": 95785.39500000085,
      "d": 1383.9239583333401,
      "v": 47
    },
    {
      "midi": 46,
      "hit": false,
      "t": 95785.39500000085,
      "d": 1723.2085416666814,
      "v": 64
    },
    {
      "midi": 59,
      "hit": false,
      "t": 96231.82208333419,
      "d": 160.71374999999534,
      "v": 67
    },
    {
      "midi": 59,
      "hit": false,
      "t": 96669.32062500085,
      "d": 348.21312499999476,
      "v": 64
    },
    {
      "midi": 58,
      "hit": false,
      "t": 97106.81916666751,
      "d": 98.21395833334827,
      "v": 60
    },
    {
      "midi": 58,
      "hit": false,
      "t": 97571.1033333342,
      "d": 6517.835416666698,
      "v": 63
    },
    {
      "midi": 39,
      "hit": false,
      "t": 97571.1033333342,
      "d": 7017.833750000034,
      "v": 54
    },
    {
      "midi": 53,
      "hit": false,
      "t": 97580.03187500087,
      "d": 392.85583333334944,
      "v": 60
    },
    {
      "midi": 55,
      "hit": false,
      "t": 97580.03187500087,
      "d": 6535.692500000034,
      "v": 72
    },
    {
      "midi": 52,
      "hit": false,
      "t": 98008.6018750009,
      "d": 294.64187500000116,
      "v": 60
    },
    {
      "midi": 52,
      "hit": false,
      "t": 98419.31479166757,
      "d": 383.92729166666686,
      "v": 69
    },
    {
      "midi": 51,
      "hit": false,
      "t": 98838.9562500009,
      "d": 276.7847916666651,
      "v": 64
    },
    {
      "midi": 51,
      "hit": false,
      "t": 99267.5262500009,
      "d": 437.49854166666046,
      "v": 70
    },
    {
      "midi": 50,
      "hit": false,
      "t": 99705.02479166756,
      "d": 285.71333333333314,
      "v": 62
    },
    {
      "midi": 50,
      "hit": false,
      "t": 100142.52333333422,
      "d": 473.21270833333256,
      "v": 67
    },
    {
      "midi": 51,
      "hit": false,
      "t": 100580.02187500088,
      "d": 267.85625000001164,
      "v": 58
    },
    {
      "midi": 51,
      "hit": false,
      "t": 101008.59187500089,
      "d": 473.21270833333256,
      "v": 70
    },
    {
      "midi": 52,
      "hit": false,
      "t": 101446.09041666755,
      "d": 258.9277083333436,
      "v": 62
    },
    {
      "midi": 52,
      "hit": false,
      "t": 101874.66041666755,
      "d": 464.28416666666453,
      "v": 62
    },
    {
      "midi": 51,
      "hit": false,
      "t": 102312.15895833421,
      "d": 241.07062500000757,
      "v": 52
    },
    {
      "midi": 51,
      "hit": false,
      "t": 102731.80041666755,
      "d": 473.2127083333471,
      "v": 64
    },
    {
      "midi": 50,
      "hit": false,
      "t": 103160.37041666756,
      "d": 294.64187500000116,
      "v": 60
    },
    {
      "midi": 50,
      "hit": false,
      "t": 103633.58312500089,
      "d": 437.498541666675,
      "v": 60
    },
    {
      "midi": 49,
      "hit": false,
      "t": 104080.01020833424,
      "d": 116.07104166666977,
      "v": 61
    },
    {
      "midi": 48,
      "hit": false,
      "t": 104633.57979166758,
      "d": 633.9264583333279,
      "v": 74
    },
    {
      "midi": 56,
      "hit": false,
      "t": 104642.50833333425,
      "d": 714.2833333333256,
      "v": 71
    },
    {
      "midi": 32,
      "hit": false,
      "t": 104642.50833333425,
      "d": 741.0689583333296,
      "v": 67
    },
    {
      "midi": 60,
      "hit": false,
      "t": 104651.43687500092,
      "d": 874.9970833333355,
      "v": 85
    },
    {
      "midi": 44,
      "hit": false,
      "t": 104651.43687500092,
      "d": 1803.5654166666936,
      "v": 64
    },
    {
      "midi": 51,
      "hit": false,
      "t": 105178.22083333424,
      "d": 241.07062500000757,
      "v": 73
    },
    {
      "midi": 56,
      "hit": false,
      "t": 105562.14812500092,
      "d": 544.6410416666768,
      "v": 70
    },
    {
      "midi": 51,
      "hit": false,
      "t": 105981.78958333426,
      "d": 464.2841666666791,
      "v": 66
    },
    {
      "midi": 58,
      "hit": false,
      "t": 106392.50250000093,
      "d": 1455.3522916666843,
      "v": 85
    },
    {
      "midi": 49,
      "hit": false,
      "t": 106410.35958333427,
      "d": 1767.8512500000215,
      "v": 68
    },
    {
      "midi": 55,
      "hit": false,
      "t": 106419.28812500094,
      "d": 473.2127083333471,
      "v": 69
    },
    {
      "midi": 51,
      "hit": false,
      "t": 106847.85812500094,
      "d": 401.7843750000029,
      "v": 76
    },
    {
      "midi": 55,
      "hit": false,
      "t": 107276.42812500095,
      "d": 482.1412500000006,
      "v": 66
    },
    {
      "midi": 51,
      "hit": false,
      "t": 107704.99812500096,
      "d": 446.4270833333285,
      "v": 66
    },
    {
      "midi": 56,
      "hit": false,
      "t": 108133.56812500095,
      "d": 508.9268750000192,
      "v": 74
    },
    {
      "midi": 48,
      "hit": false,
      "t": 108133.56812500095,
      "d": 1723.208541666696,
      "v": 69
    },
    {
      "midi": 63,
      "hit": false,
      "t": 108142.49666666762,
      "d": 2633.919791666718,
      "v": 89
    },
    {
      "midi": 51,
      "hit": false,
      "t": 108606.7808333343,
      "d": 410.71291666667094,
      "v": 67
    },
    {
      "midi": 56,
      "hit": false,
      "t": 109026.42229166764,
      "d": 455.35562500001106,
      "v": 64
    },
    {
      "midi": 51,
      "hit": false,
      "t": 109446.06375000098,
      "d": 455.35562500001106,
      "v": 67
    },
    {
      "midi": 58,
      "hit": false,
      "t": 109883.56229166765,
      "d": 589.2837500000169,
      "v": 74
    },
    {
      "midi": 43,
      "hit": false,
      "t": 109901.41937500099,
      "d": 1741.065625000032,
      "v": 69
    },
    {
      "midi": 51,
      "hit": false,
      "t": 110347.84645833433,
      "d": 455.35562500001106,
      "v": 66
    },
    {
      "midi": 58,
      "hit": false,
      "t": 110776.41645833434,
      "d": 508.92687500000466,
      "v": 82
    },
    {
      "midi": 61,
      "hit": false,
      "t": 110785.345000001,
      "d": 830.3543750000099,
      "v": 91
    },
    {
      "midi": 51,
      "hit": false,
      "t": 111231.77208333435,
      "d": 455.35562500001106,
      "v": 67
    },
    {
      "midi": 56,
      "hit": false,
      "t": 111651.41354166769,
      "d": 616.0693750000064,
      "v": 88
    },
    {
      "midi": 44,
      "hit": false,
      "t": 111651.41354166769,
      "d": 919.6397916666756,
      "v": 85
    },
    {
      "midi": 60,
      "hit": false,
      "t": 111660.34208333436,
      "d": 883.9256250000035,
      "v": 91
    },
    {
      "midi": 51,
      "hit": false,
      "t": 112115.69770833437,
      "d": 660.712083333332,
      "v": 64
    },
    {
      "midi": 63,
      "hit": false,
      "t": 112535.33916666769,
      "d": 535.7125000000087,
      "v": 94
    },
    {
      "midi": 43,
      "hit": false,
      "t": 112544.26770833436,
      "d": 857.1399999999994,
      "v": 82
    },
    {
      "midi": 58,
      "hit": false,
      "t": 112553.19625000103,
      "d": 571.4266666666663,
      "v": 82
    },
    {
      "midi": 51,
      "hit": false,
      "t": 112990.6947916677,
      "d": 80.35687499999767,
      "v": 72
    },
    {
      "midi": 60,
      "hit": false,
      "t": 113428.19333333436,
      "d": 473.212708333318,
      "v": 101
    },
    {
      "midi": 68,
      "hit": false,
      "t": 113428.19333333436,
      "d": 526.7839583333116,
      "v": 88
    },
    {
      "midi": 41,
      "hit": false,
      "t": 113428.19333333436,
      "d": 839.2829166666488,
      "v": 94
    },
    {
      "midi": 56,
      "hit": false,
      "t": 113847.83479166769,
      "d": 151.78520833332732,
      "v": 82
    },
    {
      "midi": 70,
      "hit": false,
      "t": 114285.33333333435,
      "d": 285.71333333333314,
      "v": 94
    },
    {
      "midi": 53,
      "hit": false,
      "t": 114294.26187500102,
      "d": 883.9256249999889,
      "v": 94
    },
    {
      "midi": 62,
      "hit": false,
      "t": 114303.19041666768,
      "d": 517.8554166666581,
      "v": 94
    },
    {
      "midi": 56,
      "hit": false,
      "t": 114758.54604166768,
      "d": 124.99958333332324,
      "v": 76
    },
    {
      "midi": 55,
      "hit": false,
      "t": 115196.04458333434,
      "d": 473.21270833333256,
      "v": 71
    },
    {
      "midi": 51,
      "hit": false,
      "t": 115196.04458333434,
      "d": 1892.8508333333448,
      "v": 74
    },
    {
      "midi": 63,
      "hit": false,
      "t": 115196.04458333434,
      "d": 2258.9210416666756,
      "v": 79
    },
    {
      "midi": 58,
      "hit": false,
      "t": 115642.47166666767,
      "d": 499.99833333333663,
      "v": 64
    },
    {
      "midi": 55,
      "hit": false,
      "t": 116079.97020833434,
      "d": 428.56999999999243,
      "v": 63
    },
    {
      "midi": 58,
      "hit": false,
      "t": 116508.54020833434,
      "d": 437.498541666675,
      "v": 63
    },
    {
      "midi": 55,
      "hit": false,
      "t": 116910.32458333434,
      "d": 473.2127083333471,
      "v": 64
    },
    {
      "midi": 39,
      "hit": false,
      "t": 116919.253125001,
      "d": 1785.7083333333721,
      "v": 64
    },
    {
      "midi": 58,
      "hit": false,
      "t": 117365.68020833435,
      "d": 437.498541666675,
      "v": 66
    },
    {
      "midi": 55,
      "hit": false,
      "t": 117767.46458333435,
      "d": 482.14125000001513,
      "v": 72
    },
    {
      "midi": 64,
      "hit": false,
      "t": 117776.39312500102,
      "d": 955.3539583333622,
      "v": 93
    },
    {
      "midi": 58,
      "hit": false,
      "t": 118222.82020833436,
      "d": 464.2841666666791,
      "v": 69
    },
    {
      "midi": 65,
      "hit": false,
      "t": 118660.31875000104,
      "d": 1366.0668750000186,
      "v": 93
    },
    {
      "midi": 55,
      "hit": false,
      "t": 118669.2472916677,
      "d": 526.7839583333407,
      "v": 66
    },
    {
      "midi": 37,
      "hit": false,
      "t": 118669.2472916677,
      "d": 1839.2795833333512,
      "v": 80
    },
    {
      "midi": 58,
      "hit": false,
      "t": 119124.60291666772,
      "d": 455.3556249999965,
      "v": 69
    },
    {
      "midi": 55,
      "hit": false,
      "t": 119571.03000000105,
      "d": 446.42708333334303,
      "v": 66
    },
    {
      "midi": 58,
      "hit": false,
      "t": 119990.67145833439,
      "d": 98.21395833333372,
      "v": 69
    },
    {
      "midi": 55,
      "hit": false,
      "t": 120410.31291666772,
      "d": 437.49854166666046,
      "v": 69
    },
    {
      "midi": 58,
      "hit": false,
      "t": 120410.31291666772,
      "d": 999.9966666666587,
      "v": 91
    },
    {
      "midi": 49,
      "hit": false,
      "t": 120428.17000000106,
      "d": 1732.1370833333349,
      "v": 70
    },
    {
      "midi": 51,
      "hit": false,
      "t": 120829.95437500105,
      "d": 499.99833333333663,
      "v": 66
    },
    {
      "midi": 55,
      "hit": false,
      "t": 121294.23854166771,
      "d": 392.8558333333349,
      "v": 60
    },
    {
      "midi": 51,
      "hit": false,
      "t": 121713.88000000105,
      "d": 419.64145833333896,
      "v": 74
    },
    {
      "midi": 60,
      "hit": false,
      "t": 121722.80854166772,
      "d": 71.42833333332965,
      "v": 90
    },
    {
      "midi": 61,
      "hit": false,
      "t": 121910.30791666772,
      "d": 223.21354166667152,
      "v": 93
    },
    {
      "midi": 63,
      "hit": false,
      "t": 122142.45000000106,
      "d": 874.9970833333355,
      "v": 90
    },
    {
      "midi": 48,
      "hit": false,
      "t": 122151.37854166773,
      "d": 1660.7087500000052,
      "v": 82
    },
    {
      "midi": 56,
      "hit": false,
      "t": 122178.16416666773,
      "d": 446.4270833333285,
      "v": 61
    },
    {
      "midi": 51,
      "hit": false,
      "t": 122571.02000000107,
      "d": 437.49854166666046,
      "v": 63
    },
    {
      "midi": 56,
      "hit": false,
      "t": 122990.66145833439,
      "d": 491.0697916666686,
      "v": 68
    },
    {
      "midi": 51,
      "hit": false,
      "t": 123410.30291666773,
      "d": 116.07104166666977,
      "v": 66
    },
    {
      "midi": 57,
      "hit": false,
      "t": 123794.2302083344,
      "d": 803.5687500000204,
      "v": 84
    },
    {
      "midi": 41,
      "hit": false,
      "t": 123803.15875000106,
      "d": 1651.7802083333518,
      "v": 76
    },
    {
      "midi": 51,
      "hit": false,
      "t": 123812.08729166773,
      "d": 446.42708333334303,
      "v": 82
    },
    {
      "midi": 48,
      "hit": false,
      "t": 124231.72875000107,
      "d": 321.42750000000524,
      "v": 79
    },
    {
      "midi": 51,
      "hit": false,
      "t": 124669.22729166775,
      "d": 366.0702083333308,
      "v": 64
    },
    {
      "midi": 48,
      "hit": false,
      "t": 125071.01166666775,
      "d": 107.14250000000175,
      "v": 74
    },
    {
      "midi": 34,
      "hit": false,
      "t": 125499.58166666776,
      "d": 1705.35145833336,
      "v": 67
    },
    {
      "midi": 61,
      "hit": false,
      "t": 125508.51020833442,
      "d": 1437.4952083333483,
      "v": 96
    },
    {
      "midi": 53,
      "hit": false,
      "t": 125526.36729166776,
      "d": 446.4270833333285,
      "v": 79
    },
    {
      "midi": 49,
      "hit": false,
      "t": 125946.00875000108,
      "d": 410.71291666667094,
      "v": 64
    },
    {
      "midi": 53,
      "hit": false,
      "t": 126383.50729166776,
      "d": 857.1400000000285,
      "v": 71
    },
    {
      "midi": 49,
      "hit": false,
      "t": 126803.1487500011,
      "d": 249.9991666666756,
      "v": 67
    },
    {
      "midi": 39,
      "hit": false,
      "t": 127222.79020833445,
      "d": 1732.1370833333494,
      "v": 63
    },
    {
      "midi": 49,
      "hit": false,
      "t": 127231.71875000112,
      "d": 267.8562499999971,
      "v": 67
    },
    {
      "midi": 60,
      "hit": false,
      "t": 127231.71875000112,
      "d": 294.64187500000116,
      "v": 90
    },
    {
      "midi": 49,
      "hit": false,
      "t": 127660.28875000113,
      "d": 249.99916666666104,
      "v": 79
    },
    {
      "midi": 58,
      "hit": false,
      "t": 127669.2172916678,
      "d": 258.92770833332906,
      "v": 84
    },
    {
      "midi": 49,
      "hit": false,
      "t": 128106.71583333446,
      "d": 205.35645833333547,
      "v": 85
    },
    {
      "midi": 56,
      "hit": false,
      "t": 128115.64437500112,
      "d": 214.2850000000035,
      "v": 90
    },
    {
      "midi": 55,
      "hit": false,
      "t": 128517.42875000113,
      "d": 223.21354166667152,
      "v": 86
    },
    {
      "midi": 49,
      "hit": false,
      "t": 128535.28583333446,
      "d": 267.8562499999971,
      "v": 82
    },
    {
      "midi": 49,
      "hit": false,
      "t": 128963.85583333447,
      "d": 526.7839583333262,
      "v": 79
    },
    {
      "midi": 32,
      "hit": false,
      "t": 128963.85583333447,
      "d": 901.782708333325,
      "v": 76
    },
    {
      "midi": 55,
      "hit": false,
      "t": 128963.85583333447,
      "d": 1249.9958333333343,
      "v": 74
    },
    {
      "midi": 58,
      "hit": false,
      "t": 128972.78437500114,
      "d": 1437.4952083333337,
      "v": 93
    },
    {
      "midi": 51,
      "hit": false,
      "t": 129410.2829166678,
      "d": 491.0697916666686,
      "v": 69
    },
    {
      "midi": 49,
      "hit": false,
      "t": 129838.85291666779,
      "d": 544.6410416666768,
      "v": 71
    },
    {
      "midi": 44,
      "hit": false,
      "t": 129838.85291666779,
      "d": 964.2825000000157,
      "v": 74
    },
    {
      "midi": 51,
      "hit": false,
      "t": 130276.35145833447,
      "d": 473.2127083333471,
      "v": 71
    },
    {
      "midi": 56,
      "hit": false,
      "t": 130740.63562500114,
      "d": 392.85583333332033,
      "v": 84
    },
    {
      "midi": 32,
      "hit": false,
      "t": 130740.63562500114,
      "d": 928.5683333333145,
      "v": 59
    },
    {
      "midi": 48,
      "hit": false,
      "t": 130749.56416666781,
      "d": 258.92770833332906,
      "v": 64
    },
    {
      "midi": 63,
      "hit": false,
      "t": 131731.70375000112,
      "d": 660.7120833333465,
      "v": 69
    },
    {
      "midi": 63,
      "hit": false,
      "t": 132678.1291666678,
      "d": 232.14208333331044,
      "v": 67
    },
    {
      "midi": 68,
      "hit": false,
      "t": 132678.1291666678,
      "d": 624.9979166666162,
      "v": 72
    },
    {
      "midi": 56,
      "hit": false,
      "t": 132687.05770833444,
      "d": 3357.131666666566,
      "v": 57
    },
    {
      "midi": 59,
      "hit": false,
      "t": 132695.9862500011,
      "d": 223.21354166665697,
      "v": 57
    },
    {
      "midi": 44,
      "hit": false,
      "t": 132695.9862500011,
      "d": 2785.704999999929,
      "v": 53
    },
    {
      "midi": 63,
      "hit": false,
      "t": 132990.6281250011,
      "d": 124.99958333332324,
      "v": 67
    },
    {
      "midi": 59,
      "hit": false,
      "t": 132999.55666666775,
      "d": 62.49979166666162,
      "v": 56
    },
    {
      "midi": 63,
      "hit": false,
      "t": 133276.3414583344,
      "d": 142.8566666666593,
      "v": 56
    },
    {
      "midi": 59,
      "hit": false,
      "t": 133285.27000000107,
      "d": 89.28541666668025,
      "v": 52
    },
    {
      "midi": 59,
      "hit": false,
      "t": 133562.05479166773,
      "d": 133.92812500000582,
      "v": 69
    },
    {
      "midi": 63,
      "hit": false,
      "t": 133562.05479166773,
      "d": 169.64229166667792,
      "v": 72
    },
    {
      "midi": 71,
      "hit": false,
      "t": 133562.05479166773,
      "d": 624.9979166666744,
      "v": 72
    },
    {
      "midi": 63,
      "hit": false,
      "t": 133856.69666666773,
      "d": 142.8566666666593,
      "v": 69
    },
    {
      "midi": 59,
      "hit": false,
      "t": 133874.55375000107,
      "d": 80.35687499999767,
      "v": 56
    },
    {
      "midi": 59,
      "hit": false,
      "t": 134133.4814583344,
      "d": 116.07104166666977,
      "v": 68
    },
    {
      "midi": 63,
      "hit": false,
      "t": 134133.4814583344,
      "d": 124.99958333332324,
      "v": 68
    },
    {
      "midi": 63,
      "hit": false,
      "t": 134401.33770833438,
      "d": 187.49937499998487,
      "v": 78
    },
    {
      "midi": 70,
      "hit": false,
      "t": 134401.33770833438,
      "d": 651.7835416666348,
      "v": 78
    },
    {
      "midi": 59,
      "hit": false,
      "t": 134410.26625000103,
      "d": 178.5708333333314,
      "v": 69
    },
    {
      "midi": 63,
      "hit": false,
      "t": 134669.19395833436,
      "d": 142.8566666666593,
      "v": 54
    },
    {
      "midi": 59,
      "hit": false,
      "t": 134687.0510416677,
      "d": 80.35687499999767,
      "v": 57
    },
    {
      "midi": 63,
      "hit": false,
      "t": 134963.83583333436,
      "d": 142.8566666666593,
      "v": 67
    },
    {
      "midi": 59,
      "hit": false,
      "t": 134972.76437500102,
      "d": 80.35687499999767,
      "v": 62
    },
    {
      "midi": 59,
      "hit": false,
      "t": 135249.54916666768,
      "d": 151.78520833334187,
      "v": 75
    },
    {
      "midi": 63,
      "hit": false,
      "t": 135249.54916666768,
      "d": 151.78520833334187,
      "v": 69
    },
    {
      "midi": 68,
      "hit": false,
      "t": 135249.54916666768,
      "d": 624.9979166666744,
      "v": 81
    },
    {
      "midi": 63,
      "hit": false,
      "t": 135508.476875001,
      "d": 124.99958333332324,
      "v": 62
    },
    {
      "midi": 59,
      "hit": false,
      "t": 135526.33395833435,
      "d": 62.49979166666162,
      "v": 59
    },
    {
      "midi": 59,
      "hit": false,
      "t": 135803.118750001,
      "d": 116.07104166666977,
      "v": 67
    },
    {
      "midi": 63,
      "hit": false,
      "t": 135803.118750001,
      "d": 116.07104166666977,
      "v": 67
    },
    {
      "midi": 58,
      "hit": false,
      "t": 136070.975000001,
      "d": 937.4968749998661,
      "v": 67
    },
    {
      "midi": 63,
      "hit": false,
      "t": 136079.90354166765,
      "d": 142.8566666666302,
      "v": 69
    },
    {
      "midi": 61,
      "hit": false,
      "t": 136088.8320833343,
      "d": 142.8566666666302,
      "v": 78
    },
    {
      "midi": 67,
      "hit": false,
      "t": 136097.76062500096,
      "d": 508.92687499994645,
      "v": 78
    },
    {
      "midi": 63,
      "hit": false,
      "t": 136347.7597916676,
      "d": 116.07104166664067,
      "v": 60
    },
    {
      "midi": 61,
      "hit": false,
      "t": 136356.68833333426,
      "d": 62.49979166666162,
      "v": 56
    },
    {
      "midi": 61,
      "hit": false,
      "t": 136633.4731250009,
      "d": 80.35687499999767,
      "v": 59
    },
    {
      "midi": 63,
      "hit": false,
      "t": 136633.4731250009,
      "d": 89.28541666665114,
      "v": 67
    },
    {
      "midi": 61,
      "hit": false,
      "t": 136892.40083333422,
      "d": 98.21395833330462,
      "v": 60
    },
    {
      "midi": 63,
      "hit": false,
      "t": 136892.40083333422,
      "d": 142.8566666666302,
      "v": 81
    },
    {
      "midi": 73,
      "hit": false,
      "t": 136901.32937500087,
      "d": 598.2122916666558,
      "v": 86
    },
    {
      "midi": 61,
      "hit": false,
      "t": 137169.18562500086,
      "d": 89.28541666668025,
      "v": 67
    },
    {
      "midi": 63,
      "hit": false,
      "t": 137169.18562500086,
      "d": 116.07104166666977,
      "v": 67
    },
    {
      "midi": 58,
      "hit": false,
      "t": 137169.18562500086,
      "d": 241.07062499999302,
      "v": 75
    },
    {
      "midi": 63,
      "hit": false,
      "t": 137445.97041666752,
      "d": 116.07104166666977,
      "v": 69
    },
    {
      "midi": 57,
      "hit": false,
      "t": 137445.97041666752,
      "d": 267.85624999998254,
      "v": 84
    },
    {
      "midi": 61,
      "hit": false,
      "t": 137463.82750000086,
      "d": 62.49979166666162,
      "v": 59
    },
    {
      "midi": 63,
      "hit": false,
      "t": 137704.89812500085,
      "d": 98.21395833327551,
      "v": 61
    },
    {
      "midi": 61,
      "hit": false,
      "t": 137713.8266666675,
      "d": 71.4283333333151,
      "v": 61
    },
    {
      "midi": 58,
      "hit": false,
      "t": 137713.8266666675,
      "d": 80.35687499996857,
      "v": 84
    },
    {
      "midi": 58,
      "hit": false,
      "t": 137990.61145833414,
      "d": 80.35687499996857,
      "v": 82
    },
    {
      "midi": 63,
      "hit": false,
      "t": 137990.61145833414,
      "d": 80.35687499996857,
      "v": 61
    },
    {
      "midi": 61,
      "hit": false,
      "t": 137999.5400000008,
      "d": 44.64270833332557,
      "v": 61
    },
    {
      "midi": 61,
      "hit": false,
      "t": 138258.46770833412,
      "d": 62.49979166663252,
      "v": 62
    },
    {
      "midi": 63,
      "hit": false,
      "t": 138258.46770833412,
      "d": 71.42833333328599,
      "v": 62
    },
    {
      "midi": 56,
      "hit": false,
      "t": 138267.39625000078,
      "d": 44.64270833332557,
      "v": 81
    },
    {
      "midi": 63,
      "hit": false,
      "t": 138526.32395833408,
      "d": 98.21395833333372,
      "v": 63
    },
    {
      "midi": 55,
      "hit": false,
      "t": 138544.1810416674,
      "d": 44.64270833332557,
      "v": 79
    },
    {
      "midi": 61,
      "hit": false,
      "t": 138544.1810416674,
      "d": 44.64270833332557,
      "v": 63
    },
    {
      "midi": 53,
      "hit": false,
      "t": 138803.10875000074,
      "d": 44.64270833332557,
      "v": 77
    },
    {
      "midi": 63,
      "hit": false,
      "t": 138803.10875000074,
      "d": 89.28541666665114,
      "v": 64
    },
    {
      "midi": 61,
      "hit": false,
      "t": 138829.89437500073,
      "d": 44.64270833332557,
      "v": 64
    },
    {
      "midi": 63,
      "hit": false,
      "t": 139088.82208333406,
      "d": 62.49979166663252,
      "v": 64
    },
    {
      "midi": 61,
      "hit": false,
      "t": 139097.7506250007,
      "d": 44.64270833332557,
      "v": 64
    },
    {
      "midi": 51,
      "hit": false,
      "t": 139106.67916666737,
      "d": 35.7141666666721,
      "v": 75
    },
    {
      "midi": 68,
      "hit": false,
      "t": 139383.46395833403,
      "d": 714.2833333333256,
      "v": 75
    },
    {
      "midi": 63,
      "hit": false,
      "t": 139392.3925000007,
      "d": 142.8566666666593,
      "v": 69
    },
    {
      "midi": 56,
      "hit": false,
      "t": 139392.3925000007,
      "d": 3267.846249999886,
      "v": 72
    },
    {
      "midi": 59,
      "hit": false,
      "t": 139401.32104166734,
      "d": 133.92812500000582,
      "v": 64
    },
    {
      "midi": 63,
      "hit": false,
      "t": 139660.2487500007,
      "d": 151.78520833331277,
      "v": 62
    },
    {
      "midi": 59,
      "hit": false,
      "t": 139669.17729166735,
      "d": 107.1424999999872,
      "v": 72
    },
    {
      "midi": 59,
      "hit": false,
      "t": 139928.10500000068,
      "d": 89.28541666668025,
      "v": 64
    },
    {
      "midi": 63,
      "hit": false,
      "t": 139928.10500000068,
      "d": 116.07104166666977,
      "v": 67
    },
    {
      "midi": 63,
      "hit": false,
      "t": 140195.9612500007,
      "d": 151.78520833334187,
      "v": 68
    },
    {
      "midi": 71,
      "hit": false,
      "t": 140195.9612500007,
      "d": 544.6410416666185,
      "v": 81
    },
    {
      "midi": 59,
      "hit": false,
      "t": 140213.81833333403,
      "d": 116.07104166666977,
      "v": 68
    },
    {
      "midi": 63,
      "hit": false,
      "t": 140463.81750000067,
      "d": 142.8566666666593,
      "v": 67
    },
    {
      "midi": 59,
      "hit": false,
      "t": 140490.60312500066,
      "d": 80.35687499999767,
      "v": 75
    },
    {
      "midi": 59,
      "hit": false,
      "t": 140758.45937500065,
      "d": 80.35687499999767,
      "v": 72
    },
    {
      "midi": 63,
      "hit": false,
      "t": 140758.45937500065,
      "d": 124.99958333332324,
      "v": 72
    },
    {
      "midi": 59,
      "hit": false,
      "t": 141026.31562500063,
      "d": 116.07104166664067,
      "v": 61
    },
    {
      "midi": 70,
      "hit": false,
      "t": 141026.31562500063,
      "d": 866.0685416665801,
      "v": 83
    },
    {
      "midi": 63,
      "hit": false,
      "t": 141035.24416666728,
      "d": 133.92812499997672,
      "v": 62
    },
    {
      "midi": 63,
      "hit": false,
      "t": 141303.10041666726,
      "d": 133.92812499997672,
      "v": 59
    },
    {
      "midi": 59,
      "hit": false,
      "t": 141312.02895833392,
      "d": 98.21395833333372,
      "v": 64
    },
    {
      "midi": 63,
      "hit": false,
      "t": 141570.95666666725,
      "d": 133.92812500000582,
      "v": 56
    },
    {
      "midi": 59,
      "hit": false,
      "t": 141579.8852083339,
      "d": 89.28541666668025,
      "v": 69
    },
    {
      "midi": 63,
      "hit": false,
      "t": 141847.7414583339,
      "d": 116.07104166664067,
      "v": 61
    },
    {
      "midi": 59,
      "hit": false,
      "t": 141856.67000000057,
      "d": 142.8566666666593,
      "v": 61
    },
    {
      "midi": 68,
      "hit": false,
      "t": 141865.59854166722,
      "d": 633.926458333357,
      "v": 81
    },
    {
      "midi": 59,
      "hit": false,
      "t": 142133.45479166723,
      "d": 80.35687499999767,
      "v": 62
    },
    {
      "midi": 63,
      "hit": false,
      "t": 142133.45479166723,
      "d": 98.21395833333372,
      "v": 60
    },
    {
      "midi": 59,
      "hit": false,
      "t": 142401.31104166724,
      "d": 62.49979166666162,
      "v": 59
    },
    {
      "midi": 63,
      "hit": false,
      "t": 142410.2395833339,
      "d": 89.28541666668025,
      "v": 72
    },
    {
      "midi": 58,
      "hit": false,
      "t": 142669.16729166723,
      "d": 142.8566666666593,
      "v": 68
    },
    {
      "midi": 68,
      "hit": false,
      "t": 142687.02437500056,
      "d": 669.6406249999418,
      "v": 78
    },
    {
      "midi": 51,
      "hit": false,
      "t": 142687.02437500056,
      "d": 937.4968749999243,
      "v": 75
    },
    {
      "midi": 63,
      "hit": false,
      "t": 142695.95291666721,
      "d": 142.8566666666593,
      "v": 67
    },
    {
      "midi": 58,
      "hit": false,
      "t": 142945.95208333386,
      "d": 107.1424999999872,
      "v": 62
    },
    {
      "midi": 63,
      "hit": false,
      "t": 142954.88062500051,
      "d": 116.07104166666977,
      "v": 72
    },
    {
      "midi": 58,
      "hit": false,
      "t": 143213.80833333384,
      "d": 142.8566666666593,
      "v": 60
    },
    {
      "midi": 63,
      "hit": false,
      "t": 143231.66541666718,
      "d": 124.99958333332324,
      "v": 56
    },
    {
      "midi": 63,
      "hit": false,
      "t": 143490.5931250005,
      "d": 142.8566666666302,
      "v": 60
    },
    {
      "midi": 58,
      "hit": false,
      "t": 143499.52166666716,
      "d": 107.1424999999872,
      "v": 62
    },
    {
      "midi": 67,
      "hit": false,
      "t": 143517.3787500005,
      "d": 767.8545833333337,
      "v": 67
    },
    {
      "midi": 63,
      "hit": false,
      "t": 143758.4493750005,
      "d": 116.07104166666977,
      "v": 57
    },
    {
      "midi": 51,
      "hit": false,
      "t": 143758.4493750005,
      "d": 232.14208333333954,
      "v": 69
    },
    {
      "midi": 58,
      "hit": false,
      "t": 143767.37791666714,
      "d": 89.28541666668025,
      "v": 67
    },
    {
      "midi": 50,
      "hit": false,
      "t": 144017.37708333382,
      "d": 241.07062500002212,
      "v": 72
    },
    {
      "midi": 58,
      "hit": false,
      "t": 144026.30562500047,
      "d": 89.28541666668025,
      "v": 60
    },
    {
      "midi": 63,
      "hit": false,
      "t": 144026.30562500047,
      "d": 107.1425000000163,
      "v": 57
    },
    {
      "midi": 51,
      "hit": false,
      "t": 144285.23333333383,
      "d": 62.49979166666162,
      "v": 84
    },
    {
      "midi": 58,
      "hit": false,
      "t": 144303.09041666717,
      "d": 53.571249999979045,
      "v": 60
    },
    {
      "midi": 63,
      "hit": false,
      "t": 144303.09041666717,
      "d": 62.49979166663252,
      "v": 62
    },
    {
      "midi": 58,
      "hit": false,
      "t": 144570.94666666715,
      "d": 71.42833333328599,
      "v": 59
    },
    {
      "midi": 63,
      "hit": false,
      "t": 144579.8752083338,
      "d": 53.571249999979045,
      "v": 59
    },
    {
      "midi": 52,
      "hit": false,
      "t": 144588.80375000046,
      "d": 44.64270833332557,
      "v": 72
    },
    {
      "midi": 51,
      "hit": false,
      "t": 144838.8029166671,
      "d": 62.49979166666162,
      "v": 72
    },
    {
      "midi": 63,
      "hit": false,
      "t": 144838.8029166671,
      "d": 71.4283333333151,
      "v": 53
    },
    {
      "midi": 58,
      "hit": false,
      "t": 144847.73145833376,
      "d": 53.57125000000815,
      "v": 52
    },
    {
      "midi": 58,
      "hit": false,
      "t": 145106.6591666671,
      "d": 62.49979166663252,
      "v": 64
    },
    {
      "midi": 49,
      "hit": false,
      "t": 145115.58770833374,
      "d": 44.64270833332557,
      "v": 67
    },
    {
      "midi": 63,
      "hit": false,
      "t": 145115.58770833374,
      "d": 53.571249999979045,
      "v": 56
    },
    {
      "midi": 47,
      "hit": false,
      "t": 145365.5868750004,
      "d": 62.49979166666162,
      "v": 62
    },
    {
      "midi": 58,
      "hit": false,
      "t": 145365.5868750004,
      "d": 62.49979166666162,
      "v": 62
    },
    {
      "midi": 63,
      "hit": false,
      "t": 145374.51541666704,
      "d": 71.4283333333442,
      "v": 64
    },
    {
      "midi": 63,
      "hit": false,
      "t": 145633.4431250004,
      "d": 98.21395833330462,
      "v": 67
    },
    {
      "midi": 58,
      "hit": false,
      "t": 145642.37166666705,
      "d": 80.35687499999767,
      "v": 62
    },
    {
      "midi": 46,
      "hit": false,
      "t": 145660.2287500004,
      "d": 62.49979166666162,
      "v": 69
    },
    {
      "midi": 44,
      "hit": false,
      "t": 145919.1564583337,
      "d": 2544.6343749997613,
      "v": 78
    },
    {
      "midi": 63,
      "hit": false,
      "t": 145928.08500000034,
      "d": 124.99958333329414,
      "v": 78
    },
    {
      "midi": 59,
      "hit": false,
      "t": 145937.013541667,
      "d": 89.28541666665114,
      "v": 81
    },
    {
      "midi": 68,
      "hit": false,
      "t": 145937.013541667,
      "d": 812.4972916666011,
      "v": 86
    },
    {
      "midi": 63,
      "hit": false,
      "t": 146204.86979166698,
      "d": 116.07104166664067,
      "v": 64
    },
    {
      "midi": 59,
      "hit": false,
      "t": 146222.7268750003,
      "d": 71.4283333333151,
      "v": 62
    },
    {
      "midi": 59,
      "hit": false,
      "t": 146472.72604166696,
      "d": 107.1425000000163,
      "v": 59
    },
    {
      "midi": 63,
      "hit": false,
      "t": 146472.72604166696,
      "d": 116.07104166666977,
      "v": 69
    },
    {
      "midi": 59,
      "hit": false,
      "t": 146740.58229166694,
      "d": 107.1424999999872,
      "v": 94
    },
    {
      "midi": 63,
      "hit": false,
      "t": 146749.5108333336,
      "d": 133.92812500000582,
      "v": 84
    },
    {
      "midi": 71,
      "hit": false,
      "t": 146749.5108333336,
      "d": 553.569583333272,
      "v": 78
    },
    {
      "midi": 63,
      "hit": false,
      "t": 147008.43854166692,
      "d": 124.99958333332324,
      "v": 64
    },
    {
      "midi": 59,
      "hit": false,
      "t": 147017.36708333358,
      "d": 89.28541666668025,
      "v": 75
    },
    {
      "midi": 59,
      "hit": false,
      "t": 147285.22333333356,
      "d": 80.35687499996857,
      "v": 78
    },
    {
      "midi": 63,
      "hit": false,
      "t": 147294.1518750002,
      "d": 107.1424999999872,
      "v": 78
    },
    {
      "midi": 63,
      "hit": false,
      "t": 147553.0795833335,
      "d": 142.8566666666593,
      "v": 90
    },
    {
      "midi": 70,
      "hit": false,
      "t": 147553.0795833335,
      "d": 696.4262499999604,
      "v": 95
    },
    {
      "midi": 59,
      "hit": false,
      "t": 147562.00812500017,
      "d": 98.21395833333372,
      "v": 87
    },
    {
      "midi": 63,
      "hit": false,
      "t": 147838.79291666683,
      "d": 142.8566666666593,
      "v": 75
    },
    {
      "midi": 59,
      "hit": false,
      "t": 147847.7214583335,
      "d": 98.21395833333372,
      "v": 87
    },
    {
      "midi": 63,
      "hit": false,
      "t": 148097.72062500016,
      "d": 133.92812499997672,
      "v": 72
    },
    {
      "midi": 59,
      "hit": false,
      "t": 148106.64916666682,
      "d": 98.21395833333372,
      "v": 87
    },
    {
      "midi": 68,
      "hit": false,
      "t": 148356.64833333346,
      "d": 616.0693749999627,
      "v": 94
    },
    {
      "midi": 59,
      "hit": false,
      "t": 148365.57687500012,
      "d": 71.4283333333442,
      "v": 103
    },
    {
      "midi": 63,
      "hit": false,
      "t": 148365.57687500012,
      "d": 116.07104166666977,
      "v": 94
    },
    {
      "midi": 63,
      "hit": false,
      "t": 148615.5760416668,
      "d": 133.92812499997672,
      "v": 60
    },
    {
      "midi": 59,
      "hit": false,
      "t": 148624.50458333344,
      "d": 98.21395833333372,
      "v": 75
    },
    {
      "midi": 59,
      "hit": false,
      "t": 148910.21791666676,
      "d": 44.64270833332557,
      "v": 69
    },
    {
      "midi": 63,
      "hit": false,
      "t": 148910.21791666676,
      "d": 107.1424999999872,
      "v": 84
    },
    {
      "midi": 66,
      "hit": false,
      "t": 149178.07416666677,
      "d": 428.5699999999488,
      "v": 108
    },
    {
      "midi": 78,
      "hit": false,
      "t": 149178.07416666677,
      "d": 544.6410416666185,
      "v": 108
    },
    {
      "midi": 54,
      "hit": false,
      "t": 149187.00270833343,
      "d": 151.78520833331277,
      "v": 88
    },
    {
      "midi": 51,
      "hit": false,
      "t": 149187.00270833343,
      "d": 187.49937499998487,
      "v": 79
    },
    {
      "midi": 45,
      "hit": false,
      "t": 149195.93125000008,
      "d": 116.07104166666977,
      "v": 83
    },
    {
      "midi": 47,
      "hit": false,
      "t": 149195.93125000008,
      "d": 178.5708333333314,
      "v": 83
    },
    {
      "midi": 54,
      "hit": false,
      "t": 149445.93041666676,
      "d": 133.92812499997672,
      "v": 63
    },
    {
      "midi": 51,
      "hit": false,
      "t": 149454.8589583334,
      "d": 151.78520833331277,
      "v": 72
    },
    {
      "midi": 45,
      "hit": false,
      "t": 149463.78750000006,
      "d": 98.21395833333372,
      "v": 79
    },
    {
      "midi": 47,
      "hit": false,
      "t": 149463.78750000006,
      "d": 133.92812500000582,
      "v": 60
    },
    {
      "midi": 54,
      "hit": false,
      "t": 149731.64375000005,
      "d": 98.21395833333372,
      "v": 72
    },
    {
      "midi": 51,
      "hit": false,
      "t": 149731.64375000005,
      "d": 133.92812500000582,
      "v": 69
    },
    {
      "midi": 45,
      "hit": false,
      "t": 149749.50083333338,
      "d": 53.57125000000815,
      "v": 75
    },
    {
      "midi": 47,
      "hit": false,
      "t": 149749.50083333338,
      "d": 98.21395833333372,
      "v": 72
    }
  ]
}