{
  "jsonPath": "Ambient/Easy Listening/Richard Clayderman/long-ago-and-far-away.json",
  "path": "Ambient\\Easy Listening\\Richard Clayderman\\Long Ago And Far Away.mid",
  "name": "Long Ago And Far Away",
  "difficulty": "Advanced",
  "bpm": 69.99998833333528,
  "notes": [
    {
      "midi": 43,
      "hit": false,
      "t": 6857.143999999999,
      "d": 1714.286000000001,
      "v": 84
    },
    {
      "midi": 70,
      "hit": false,
      "t": 6857.143999999999,
      "d": 1714.286000000001,
      "v": 94
    },
    {
      "midi": 58,
      "hit": false,
      "t": 7142.858333333333,
      "d": 857.143,
      "v": 84
    },
    {
      "midi": 62,
      "hit": false,
      "t": 7428.572666666666,
      "d": 571.4286666666667,
      "v": 85
    },
    {
      "midi": 65,
      "hit": false,
      "t": 7714.286999999999,
      "d": 571.4286666666676,
      "v": 109
    },
    {
      "midi": 62,
      "hit": false,
      "t": 8000.001333333333,
      "d": 571.4286666666676,
      "v": 80
    },
    {
      "midi": 58,
      "hit": false,
      "t": 8285.715666666667,
      "d": 285.71433333333334,
      "v": 87
    },
    {
      "midi": 36,
      "hit": false,
      "t": 8571.43,
      "d": 1314.2859333333327,
      "v": 91
    },
    {
      "midi": 52,
      "hit": false,
      "t": 8857.144333333334,
      "d": 571.4286666666667,
      "v": 91
    },
    {
      "midi": 55,
      "hit": false,
      "t": 9142.858666666667,
      "d": 307.14290833333325,
      "v": 91
    },
    {
      "midi": 58,
      "hit": false,
      "t": 9428.573,
      "d": 457.1429333333326,
      "v": 91
    },
    {
      "midi": 55,
      "hit": false,
      "t": 9714.287333333334,
      "d": 571.4286666666667,
      "v": 90
    },
    {
      "midi": 52,
      "hit": false,
      "t": 10000.001666666667,
      "d": 285.71433333333334,
      "v": 91
    },
    {
      "midi": 41,
      "hit": false,
      "t": 10285.716,
      "d": 1650.0002750000003,
      "v": 91
    },
    {
      "midi": 57,
      "hit": false,
      "t": 10571.430333333334,
      "d": 857.143,
      "v": 91
    },
    {
      "midi": 60,
      "hit": false,
      "t": 10857.144666666667,
      "d": 285.71433333333334,
      "v": 91
    },
    {
      "midi": 69,
      "hit": false,
      "t": 11142.859,
      "d": 792.8572750000003,
      "v": 91
    },
    {
      "midi": 60,
      "hit": false,
      "t": 11428.573333333334,
      "d": 507.14294166666696,
      "v": 91
    },
    {
      "midi": 57,
      "hit": false,
      "t": 11714.287666666667,
      "d": 285.71433333333334,
      "v": 91
    },
    {
      "midi": 62,
      "hit": false,
      "t": 12000.002,
      "d": 571.4286666666667,
      "v": 102
    },
    {
      "midi": 38,
      "hit": false,
      "t": 12000.002,
      "d": 1585.7145500000006,
      "v": 97
    },
    {
      "midi": 57,
      "hit": false,
      "t": 12285.716333333334,
      "d": 571.4286666666667,
      "v": 85
    },
    {
      "midi": 53,
      "hit": false,
      "t": 12571.430666666667,
      "d": 285.71433333333334,
      "v": 87
    },
    {
      "midi": 62,
      "hit": false,
      "t": 12857.145,
      "d": 571.4286666666667,
      "v": 93
    },
    {
      "midi": 57,
      "hit": false,
      "t": 13142.859333333334,
      "d": 442.8572166666672,
      "v": 84
    },
    {
      "midi": 53,
      "hit": false,
      "t": 13428.573666666667,
      "d": 157.14288333333388,
      "v": 84
    },
    {
      "midi": 43,
      "hit": false,
      "t": 13714.288,
      "d": 1650.0002750000003,
      "v": 91
    },
    {
      "midi": 55,
      "hit": false,
      "t": 14000.002333333334,
      "d": 857.143,
      "v": 91
    },
    {
      "midi": 58,
      "hit": false,
      "t": 14285.716666666667,
      "d": 285.71433333333334,
      "v": 91
    },
    {
      "midi": 65,
      "hit": false,
      "t": 14571.431,
      "d": 792.8572750000003,
      "v": 91
    },
    {
      "midi": 58,
      "hit": false,
      "t": 14857.145333333334,
      "d": 507.14294166666696,
      "v": 91
    },
    {
      "midi": 55,
      "hit": false,
      "t": 15142.859666666667,
      "d": 285.71433333333334,
      "v": 91
    },
    {
      "midi": 60,
      "hit": false,
      "t": 15428.574,
      "d": 571.4286666666667,
      "v": 102
    },
    {
      "midi": 36,
      "hit": false,
      "t": 15428.574,
      "d": 1585.7145500000006,
      "v": 97
    },
    {
      "midi": 55,
      "hit": false,
      "t": 15714.288333333334,
      "d": 571.4286666666667,
      "v": 85
    },
    {
      "midi": 52,
      "hit": false,
      "t": 16000.002666666667,
      "d": 285.71433333333334,
      "v": 87
    },
    {
      "midi": 60,
      "hit": false,
      "t": 16285.717,
      "d": 571.4286666666667,
      "v": 93
    },
    {
      "midi": 55,
      "hit": false,
      "t": 16571.431333333334,
      "d": 442.8572166666672,
      "v": 84
    },
    {
      "midi": 52,
      "hit": false,
      "t": 16857.145666666667,
      "d": 157.14288333333388,
      "v": 84
    },
    {
      "midi": 41,
      "hit": false,
      "t": 17142.86,
      "d": 1714.286,
      "v": 84
    },
    {
      "midi": 69,
      "hit": false,
      "t": 17142.86,
      "d": 1714.286,
      "v": 94
    },
    {
      "midi": 57,
      "hit": false,
      "t": 17428.574333333334,
      "d": 857.143,
      "v": 84
    },
    {
      "midi": 60,
      "hit": false,
      "t": 17714.288666666667,
      "d": 571.4286666666667,
      "v": 85
    },
    {
      "midi": 65,
      "hit": false,
      "t": 18000.003,
      "d": 571.4286666666667,
      "v": 109
    },
    {
      "midi": 60,
      "hit": false,
      "t": 18285.717333333334,
      "d": 571.4286666666667,
      "v": 80
    },
    {
      "midi": 57,
      "hit": false,
      "t": 18571.431666666667,
      "d": 285.71433333333334,
      "v": 87
    },
    {
      "midi": 38,
      "hit": false,
      "t": 18857.146,
      "d": 1714.286,
      "v": 84
    },
    {
      "midi": 65,
      "hit": false,
      "t": 18857.146,
      "d": 1714.286,
      "v": 94
    },
    {
      "midi": 53,
      "hit": false,
      "t": 19142.860333333334,
      "d": 857.143,
      "v": 84
    },
    {
      "midi": 57,
      "hit": false,
      "t": 19428.574666666667,
      "d": 571.4286666666667,
      "v": 85
    },
    {
      "midi": 62,
      "hit": false,
      "t": 19714.289,
      "d": 571.4286666666667,
      "v": 109
    },
    {
      "midi": 57,
      "hit": false,
      "t": 20000.003333333334,
      "d": 571.4286666666667,
      "v": 80
    },
    {
      "midi": 53,
      "hit": false,
      "t": 20285.717666666667,
      "d": 285.71433333333334,
      "v": 87
    },
    {
      "midi": 67,
      "hit": false,
      "t": 20571.432,
      "d": 571.4286666666667,
      "v": 102
    },
    {
      "midi": 43,
      "hit": false,
      "t": 20571.432,
      "d": 1585.7145500000006,
      "v": 97
    },
    {
      "midi": 62,
      "hit": false,
      "t": 20857.146333333334,
      "d": 571.4286666666667,
      "v": 85
    },
    {
      "midi": 58,
      "hit": false,
      "t": 21142.860666666667,
      "d": 285.71433333333334,
      "v": 87
    },
    {
      "midi": 67,
      "hit": false,
      "t": 21428.575,
      "d": 571.4286666666667,
      "v": 93
    },
    {
      "midi": 62,
      "hit": false,
      "t": 21714.289333333334,
      "d": 442.8572166666672,
      "v": 84
    },
    {
      "midi": 58,
      "hit": false,
      "t": 22000.003666666667,
      "d": 157.14288333333388,
      "v": 84
    },
    {
      "midi": 36,
      "hit": false,
      "t": 22285.718,
      "d": 1314.2859333333327,
      "v": 91
    },
    {
      "midi": 52,
      "hit": false,
      "t": 22571.432333333334,
      "d": 571.4286666666667,
      "v": 91
    },
    {
      "midi": 55,
      "hit": false,
      "t": 22857.146666666667,
      "d": 307.1429083333351,
      "v": 91
    },
    {
      "midi": 58,
      "hit": false,
      "t": 23142.861,
      "d": 457.1429333333326,
      "v": 91
    },
    {
      "midi": 55,
      "hit": false,
      "t": 23428.575333333334,
      "d": 571.4286666666667,
      "v": 90
    },
    {
      "midi": 52,
      "hit": false,
      "t": 23714.289666666667,
      "d": 285.71433333333334,
      "v": 91
    },
    {
      "midi": 41,
      "hit": false,
      "t": 24000.004,
      "d": 1714.286,
      "v": 84
    },
    {
      "midi": 69,
      "hit": false,
      "t": 24000.004,
      "d": 1714.286,
      "v": 94
    },
    {
      "midi": 57,
      "hit": false,
      "t": 24285.718333333334,
      "d": 857.143,
      "v": 84
    },
    {
      "midi": 60,
      "hit": false,
      "t": 24571.432666666668,
      "d": 571.4286666666667,
      "v": 85
    },
    {
      "midi": 65,
      "hit": false,
      "t": 24857.147,
      "d": 571.4286666666667,
      "v": 109
    },
    {
      "midi": 60,
      "hit": false,
      "t": 25142.861333333334,
      "d": 571.4286666666667,
      "v": 80
    },
    {
      "midi": 57,
      "hit": false,
      "t": 25428.575666666668,
      "d": 285.71433333333334,
      "v": 87
    },
    {
      "midi": 38,
      "hit": false,
      "t": 25714.29,
      "d": 1314.2859333333327,
      "v": 91
    },
    {
      "midi": 53,
      "hit": false,
      "t": 26000.004333333334,
      "d": 571.4286666666667,
      "v": 91
    },
    {
      "midi": 57,
      "hit": false,
      "t": 26285.718666666668,
      "d": 307.1429083333351,
      "v": 91
    },
    {
      "midi": 62,
      "hit": false,
      "t": 26571.433,
      "d": 457.1429333333326,
      "v": 91
    },
    {
      "midi": 57,
      "hit": false,
      "t": 26857.147333333334,
      "d": 571.4286666666667,
      "v": 90
    },
    {
      "midi": 53,
      "hit": false,
      "t": 27142.861666666668,
      "d": 285.71433333333334,
      "v": 91
    },
    {
      "midi": 67,
      "hit": false,
      "t": 27428.576,
      "d": 571.4286666666667,
      "v": 102
    },
    {
      "midi": 43,
      "hit": false,
      "t": 27428.576,
      "d": 1585.7145500000006,
      "v": 97
    },
    {
      "midi": 62,
      "hit": false,
      "t": 27714.290333333334,
      "d": 571.4286666666667,
      "v": 85
    },
    {
      "midi": 58,
      "hit": false,
      "t": 28000.004666666668,
      "d": 285.71433333333334,
      "v": 87
    },
    {
      "midi": 67,
      "hit": false,
      "t": 28285.719,
      "d": 571.4286666666667,
      "v": 93
    },
    {
      "midi": 62,
      "hit": false,
      "t": 28571.433333333334,
      "d": 442.8572166666672,
      "v": 84
    },
    {
      "midi": 58,
      "hit": false,
      "t": 28857.147666666668,
      "d": 157.14288333333388,
      "v": 84
    },
    {
      "midi": 36,
      "hit": false,
      "t": 29142.862,
      "d": 1314.2859333333327,
      "v": 91
    },
    {
      "midi": 52,
      "hit": false,
      "t": 29428.576333333334,
      "d": 571.4286666666667,
      "v": 91
    },
    {
      "midi": 55,
      "hit": false,
      "t": 29714.290666666668,
      "d": 307.1429083333351,
      "v": 91
    },
    {
      "midi": 58,
      "hit": false,
      "t": 30000.005,
      "d": 457.1429333333326,
      "v": 91
    },
    {
      "midi": 55,
      "hit": false,
      "t": 30285.719333333334,
      "d": 571.4286666666667,
      "v": 90
    },
    {
      "midi": 52,
      "hit": false,
      "t": 30571.433666666668,
      "d": 285.71433333333334,
      "v": 91
    },
    {
      "midi": 41,
      "hit": false,
      "t": 30857.148,
      "d": 1714.286,
      "v": 84
    },
    {
      "midi": 69,
      "hit": false,
      "t": 30857.148,
      "d": 1714.286,
      "v": 94
    },
    {
      "midi": 57,
      "hit": false,
      "t": 31142.862333333334,
      "d": 857.143,
      "v": 84
    },
    {
      "midi": 60,
      "hit": false,
      "t": 31428.576666666668,
      "d": 571.4286666666667,
      "v": 85
    },
    {
      "midi": 65,
      "hit": false,
      "t": 31714.291,
      "d": 571.4286666666667,
      "v": 109
    },
    {
      "midi": 60,
      "hit": false,
      "t": 32000.005333333334,
      "d": 571.4286666666667,
      "v": 80
    },
    {
      "midi": 57,
      "hit": false,
      "t": 32285.719666666668,
      "d": 285.71433333333334,
      "v": 87
    },
    {
      "midi": 38,
      "hit": false,
      "t": 32571.434,
      "d": 1714.2860000000146,
      "v": 84
    },
    {
      "midi": 65,
      "hit": false,
      "t": 32571.434,
      "d": 1714.2860000000146,
      "v": 94
    },
    {
      "midi": 53,
      "hit": false,
      "t": 32857.14833333333,
      "d": 857.1430000000109,
      "v": 84
    },
    {
      "midi": 57,
      "hit": false,
      "t": 33142.86266666667,
      "d": 571.428666666674,
      "v": 85
    },
    {
      "midi": 62,
      "hit": false,
      "t": 33428.577000000005,
      "d": 571.428666666674,
      "v": 109
    },
    {
      "midi": 57,
      "hit": false,
      "t": 33714.29133333334,
      "d": 571.428666666674,
      "v": 80
    },
    {
      "midi": 53,
      "hit": false,
      "t": 34000.00566666668,
      "d": 285.714333333337,
      "v": 87
    },
    {
      "midi": 67,
      "hit": false,
      "t": 34285.720000000016,
      "d": 571.428666666674,
      "v": 102
    },
    {
      "midi": 43,
      "hit": false,
      "t": 34285.720000000016,
      "d": 1585.7145500000188,
      "v": 97
    },
    {
      "midi": 62,
      "hit": false,
      "t": 34571.43433333335,
      "d": 571.428666666674,
      "v": 85
    },
    {
      "midi": 58,
      "hit": false,
      "t": 34857.14866666669,
      "d": 285.714333333337,
      "v": 87
    },
    {
      "midi": 67,
      "hit": false,
      "t": 35142.86300000003,
      "d": 571.428666666674,
      "v": 93
    },
    {
      "midi": 62,
      "hit": false,
      "t": 35428.577333333364,
      "d": 442.85721666667087,
      "v": 84
    },
    {
      "midi": 58,
      "hit": false,
      "t": 35714.2916666667,
      "d": 157.14288333333388,
      "v": 84
    },
    {
      "midi": 36,
      "hit": false,
      "t": 36000.00600000004,
      "d": 1714.2860000000219,
      "v": 84
    },
    {
      "midi": 64,
      "hit": false,
      "t": 36000.00600000004,
      "d": 1714.2860000000219,
      "v": 94
    },
    {
      "midi": 52,
      "hit": false,
      "t": 36285.720333333375,
      "d": 857.1430000000109,
      "v": 84
    },
    {
      "midi": 55,
      "hit": false,
      "t": 36571.43466666671,
      "d": 571.428666666674,
      "v": 85
    },
    {
      "midi": 58,
      "hit": false,
      "t": 36857.14900000005,
      "d": 571.428666666674,
      "v": 109
    },
    {
      "midi": 55,
      "hit": false,
      "t": 37142.863333333386,
      "d": 571.428666666674,
      "v": 80
    },
    {
      "midi": 52,
      "hit": false,
      "t": 37428.57766666672,
      "d": 285.714333333337,
      "v": 87
    },
    {
      "midi": 65,
      "hit": false,
      "t": 37714.29200000006,
      "d": 571.428666666674,
      "v": 102
    },
    {
      "midi": 41,
      "hit": false,
      "t": 37714.29200000006,
      "d": 1585.7145500000188,
      "v": 97
    },
    {
      "midi": 60,
      "hit": false,
      "t": 38000.0063333334,
      "d": 571.428666666674,
      "v": 85
    },
    {
      "midi": 57,
      "hit": false,
      "t": 38285.72066666673,
      "d": 285.714333333337,
      "v": 87
    },
    {
      "midi": 65,
      "hit": false,
      "t": 38571.43500000007,
      "d": 571.428666666674,
      "v": 93
    },
    {
      "midi": 60,
      "hit": false,
      "t": 38857.14933333341,
      "d": 442.85721666667087,
      "v": 84
    },
    {
      "midi": 57,
      "hit": false,
      "t": 39142.863666666744,
      "d": 157.14288333333388,
      "v": 84
    },
    {
      "midi": 62,
      "hit": false,
      "t": 39428.57800000008,
      "d": 571.428666666674,
      "v": 102
    },
    {
      "midi": 38,
      "hit": false,
      "t": 39428.57800000008,
      "d": 1585.7145500000188,
      "v": 97
    },
    {
      "midi": 57,
      "hit": false,
      "t": 39714.29233333342,
      "d": 571.428666666674,
      "v": 85
    },
    {
      "midi": 53,
      "hit": false,
      "t": 40000.006666666755,
      "d": 285.714333333337,
      "v": 87
    },
    {
      "midi": 62,
      "hit": false,
      "t": 40285.72100000009,
      "d": 571.428666666674,
      "v": 93
    },
    {
      "midi": 57,
      "hit": false,
      "t": 40571.43533333343,
      "d": 442.85721666667087,
      "v": 84
    },
    {
      "midi": 53,
      "hit": false,
      "t": 40857.149666666766,
      "d": 157.14288333333388,
      "v": 84
    },
    {
      "midi": 43,
      "hit": false,
      "t": 41142.8640000001,
      "d": 1650.0002750000203,
      "v": 91
    },
    {
      "midi": 55,
      "hit": false,
      "t": 41428.57833333344,
      "d": 857.1430000000109,
      "v": 91
    },
    {
      "midi": 58,
      "hit": false,
      "t": 41714.29266666678,
      "d": 285.714333333337,
      "v": 91
    },
    {
      "midi": 65,
      "hit": false,
      "t": 42000.007000000114,
      "d": 792.8572750000094,
      "v": 91
    },
    {
      "midi": 58,
      "hit": false,
      "t": 42285.72133333345,
      "d": 507.1429416666724,
      "v": 91
    },
    {
      "midi": 55,
      "hit": false,
      "t": 42571.43566666679,
      "d": 285.714333333337,
      "v": 91
    },
    {
      "midi": 60,
      "hit": false,
      "t": 42857.150000000125,
      "d": 571.428666666674,
      "v": 102
    },
    {
      "midi": 36,
      "hit": false,
      "t": 42857.150000000125,
      "d": 1585.7145500000188,
      "v": 97
    },
    {
      "midi": 55,
      "hit": false,
      "t": 43142.86433333346,
      "d": 571.428666666674,
      "v": 85
    },
    {
      "midi": 52,
      "hit": false,
      "t": 43428.5786666668,
      "d": 285.714333333337,
      "v": 87
    },
    {
      "midi": 60,
      "hit": false,
      "t": 43714.293000000136,
      "d": 571.428666666674,
      "v": 93
    },
    {
      "midi": 55,
      "hit": false,
      "t": 44000.00733333347,
      "d": 442.85721666667087,
      "v": 84
    },
    {
      "midi": 52,
      "hit": false,
      "t": 44285.72166666681,
      "d": 157.14288333333388,
      "v": 84
    },
    {
      "midi": 41,
      "hit": false,
      "t": 44571.43600000015,
      "d": 1650.0002750000203,
      "v": 91
    },
    {
      "midi": 57,
      "hit": false,
      "t": 44857.150333333484,
      "d": 857.1430000000109,
      "v": 91
    },
    {
      "midi": 60,
      "hit": false,
      "t": 45142.86466666682,
      "d": 285.714333333337,
      "v": 91
    },
    {
      "midi": 69,
      "hit": false,
      "t": 45428.57900000016,
      "d": 792.8572750000094,
      "v": 91
    },
    {
      "midi": 60,
      "hit": false,
      "t": 45714.293333333495,
      "d": 507.1429416666724,
      "v": 91
    },
    {
      "midi": 57,
      "hit": false,
      "t": 46000.00766666683,
      "d": 285.714333333337,
      "v": 91
    },
    {
      "midi": 38,
      "hit": false,
      "t": 46285.72200000017,
      "d": 1714.2860000000219,
      "v": 84
    },
    {
      "midi": 65,
      "hit": false,
      "t": 46285.72200000017,
      "d": 1714.2860000000219,
      "v": 94
    },
    {
      "midi": 53,
      "hit": false,
      "t": 46571.436333333506,
      "d": 857.1430000000109,
      "v": 84
    },
    {
      "midi": 57,
      "hit": false,
      "t": 46857.15066666684,
      "d": 571.428666666674,
      "v": 85
    },
    {
      "midi": 62,
      "hit": false,
      "t": 47142.86500000018,
      "d": 571.428666666674,
      "v": 109
    },
    {
      "midi": 57,
      "hit": false,
      "t": 47428.57933333352,
      "d": 571.428666666674,
      "v": 80
    },
    {
      "midi": 53,
      "hit": false,
      "t": 47714.293666666854,
      "d": 285.714333333337,
      "v": 87
    },
    {
      "midi": 43,
      "hit": false,
      "t": 48000.00800000019,
      "d": 1650.0002750000203,
      "v": 91
    },
    {
      "midi": 55,
      "hit": false,
      "t": 48285.72233333353,
      "d": 857.1430000000109,
      "v": 91
    },
    {
      "midi": 58,
      "hit": false,
      "t": 48571.436666666865,
      "d": 285.714333333337,
      "v": 91
    },
    {
      "midi": 65,
      "hit": false,
      "t": 48857.1510000002,
      "d": 792.8572750000094,
      "v": 91
    },
    {
      "midi": 58,
      "hit": false,
      "t": 49142.86533333354,
      "d": 507.1429416666724,
      "v": 91
    },
    {
      "midi": 55,
      "hit": false,
      "t": 49428.579666666876,
      "d": 285.714333333337,
      "v": 91
    },
    {
      "midi": 36,
      "hit": false,
      "t": 49714.29400000021,
      "d": 1714.2860000000219,
      "v": 84
    },
    {
      "midi": 64,
      "hit": false,
      "t": 49714.29400000021,
      "d": 1714.2860000000219,
      "v": 94
    },
    {
      "midi": 52,
      "hit": false,
      "t": 50000.00833333355,
      "d": 857.1430000000109,
      "v": 84
    },
    {
      "midi": 55,
      "hit": false,
      "t": 50285.72266666689,
      "d": 571.428666666674,
      "v": 85
    },
    {
      "midi": 58,
      "hit": false,
      "t": 50571.43700000022,
      "d": 571.428666666674,
      "v": 109
    },
    {
      "midi": 55,
      "hit": false,
      "t": 50857.15133333356,
      "d": 571.428666666674,
      "v": 80
    },
    {
      "midi": 52,
      "hit": false,
      "t": 51142.8656666669,
      "d": 285.714333333337,
      "v": 87
    },
    {
      "midi": 41,
      "hit": false,
      "t": 51428.580000000235,
      "d": 1650.0002750000203,
      "v": 91
    },
    {
      "midi": 57,
      "hit": false,
      "t": 51714.29433333357,
      "d": 857.1430000000109,
      "v": 91
    },
    {
      "midi": 60,
      "hit": false,
      "t": 52000.00866666691,
      "d": 285.714333333337,
      "v": 91
    },
    {
      "midi": 69,
      "hit": false,
      "t": 52285.723000000246,
      "d": 792.8572750000094,
      "v": 91
    },
    {
      "midi": 60,
      "hit": false,
      "t": 52571.43733333358,
      "d": 507.1429416666724,
      "v": 91
    },
    {
      "midi": 57,
      "hit": false,
      "t": 52857.15166666692,
      "d": 285.714333333337,
      "v": 91
    },
    {
      "midi": 38,
      "hit": false,
      "t": 53142.86600000026,
      "d": 1714.2860000000219,
      "v": 84
    },
    {
      "midi": 65,
      "hit": false,
      "t": 53142.86600000026,
      "d": 1714.2860000000219,
      "v": 94
    },
    {
      "midi": 53,
      "hit": false,
      "t": 53428.58033333359,
      "d": 857.1430000000109,
      "v": 84
    },
    {
      "midi": 57,
      "hit": false,
      "t": 53714.29466666693,
      "d": 571.428666666674,
      "v": 85
    },
    {
      "midi": 62,
      "hit": false,
      "t": 54000.00900000027,
      "d": 571.428666666674,
      "v": 109
    },
    {
      "midi": 57,
      "hit": false,
      "t": 54285.723333333604,
      "d": 571.428666666674,
      "v": 80
    },
    {
      "midi": 53,
      "hit": false,
      "t": 54571.43766666694,
      "d": 285.714333333337,
      "v": 87
    },
    {
      "midi": 43,
      "hit": false,
      "t": 54857.15200000028,
      "d": 1650.0002750000203,
      "v": 91
    },
    {
      "midi": 55,
      "hit": false,
      "t": 55142.866333333615,
      "d": 857.1430000000109,
      "v": 91
    },
    {
      "midi": 58,
      "hit": false,
      "t": 55428.58066666695,
      "d": 285.714333333337,
      "v": 91
    },
    {
      "midi": 65,
      "hit": false,
      "t": 55714.29500000029,
      "d": 792.8572750000094,
      "v": 91
    },
    {
      "midi": 58,
      "hit": false,
      "t": 56000.009333333626,
      "d": 507.1429416666724,
      "v": 91
    },
    {
      "midi": 55,
      "hit": false,
      "t": 56285.72366666696,
      "d": 285.714333333337,
      "v": 91
    },
    {
      "midi": 40,
      "hit": false,
      "t": 56571.4380000003,
      "d": 1650.0002750000203,
      "v": 91
    },
    {
      "midi": 52,
      "hit": false,
      "t": 56857.15233333364,
      "d": 857.1430000000109,
      "v": 91
    },
    {
      "midi": 56,
      "hit": false,
      "t": 57142.866666666974,
      "d": 285.714333333337,
      "v": 91
    },
    {
      "midi": 62,
      "hit": false,
      "t": 57428.58100000031,
      "d": 792.8572750000094,
      "v": 91
    },
    {
      "midi": 56,
      "hit": false,
      "t": 57714.29533333365,
      "d": 507.1429416666724,
      "v": 91
    },
    {
      "midi": 52,
      "hit": false,
      "t": 58000.009666666985,
      "d": 285.714333333337,
      "v": 91
    },
    {
      "midi": 45,
      "hit": false,
      "t": 58285.72400000032,
      "d": 1714.2860000000219,
      "v": 84
    },
    {
      "midi": 61,
      "hit": false,
      "t": 58285.72400000032,
      "d": 1714.2860000000219,
      "v": 94
    },
    {
      "midi": 49,
      "hit": false,
      "t": 58571.43833333366,
      "d": 857.1430000000109,
      "v": 84
    },
    {
      "midi": 52,
      "hit": false,
      "t": 58857.152666666996,
      "d": 571.428666666674,
      "v": 85
    },
    {
      "midi": 57,
      "hit": false,
      "t": 59142.86700000033,
      "d": 571.428666666674,
      "v": 109
    },
    {
      "midi": 52,
      "hit": false,
      "t": 59428.58133333367,
      "d": 571.428666666674,
      "v": 80
    },
    {
      "midi": 49,
      "hit": false,
      "t": 59714.29566666701,
      "d": 285.714333333337,
      "v": 87
    },
    {
      "midi": 40,
      "hit": false,
      "t": 60000.010000000344,
      "d": 1714.2860000000219,
      "v": 84
    },
    {
      "midi": 68,
      "hit": false,
      "t": 60000.010000000344,
      "d": 1714.2860000000219,
      "v": 94
    },
    {
      "midi": 56,
      "hit": false,
      "t": 60285.72433333368,
      "d": 857.1430000000109,
      "v": 84
    },
    {
      "midi": 59,
      "hit": false,
      "t": 60571.43866666702,
      "d": 571.428666666674,
      "v": 85
    },
    {
      "midi": 62,
      "hit": false,
      "t": 60857.153000000355,
      "d": 571.428666666674,
      "v": 109
    },
    {
      "midi": 59,
      "hit": false,
      "t": 61142.86733333369,
      "d": 571.428666666674,
      "v": 80
    },
    {
      "midi": 56,
      "hit": false,
      "t": 61428.58166666703,
      "d": 285.714333333337,
      "v": 87
    },
    {
      "midi": 45,
      "hit": false,
      "t": 61714.296000000366,
      "d": 1714.2860000000219,
      "v": 84
    },
    {
      "midi": 61,
      "hit": false,
      "t": 61714.296000000366,
      "d": 1714.2860000000219,
      "v": 94
    },
    {
      "midi": 49,
      "hit": false,
      "t": 62000.0103333337,
      "d": 857.1430000000109,
      "v": 84
    },
    {
      "midi": 52,
      "hit": false,
      "t": 62285.72466666704,
      "d": 571.428666666674,
      "v": 85
    },
    {
      "midi": 57,
      "hit": false,
      "t": 62571.43900000038,
      "d": 571.428666666674,
      "v": 109
    },
    {
      "midi": 52,
      "hit": false,
      "t": 62857.153333333714,
      "d": 571.428666666674,
      "v": 80
    },
    {
      "midi": 49,
      "hit": false,
      "t": 63142.86766666705,
      "d": 285.714333333337,
      "v": 87
    },
    {
      "midi": 64,
      "hit": false,
      "t": 63428.58200000039,
      "d": 571.428666666674,
      "v": 102
    },
    {
      "midi": 40,
      "hit": false,
      "t": 63428.58200000039,
      "d": 1585.7145500000188,
      "v": 97
    },
    {
      "midi": 59,
      "hit": false,
      "t": 63714.296333333725,
      "d": 571.428666666674,
      "v": 85
    },
    {
      "midi": 56,
      "hit": false,
      "t": 64000.01066666706,
      "d": 285.714333333337,
      "v": 87
    },
    {
      "midi": 64,
      "hit": false,
      "t": 64285.7250000004,
      "d": 571.428666666674,
      "v": 93
    },
    {
      "midi": 59,
      "hit": false,
      "t": 64571.439333333736,
      "d": 442.85721666667087,
      "v": 84
    },
    {
      "midi": 56,
      "hit": false,
      "t": 64857.15366666707,
      "d": 157.14288333333388,
      "v": 84
    },
    {
      "midi": 45,
      "hit": false,
      "t": 65142.86800000041,
      "d": 1314.2859333333472,
      "v": 91
    },
    {
      "midi": 49,
      "hit": false,
      "t": 65428.58233333375,
      "d": 571.428666666674,
      "v": 91
    },
    {
      "midi": 52,
      "hit": false,
      "t": 65714.29666666708,
      "d": 307.1429083333351,
      "v": 91
    },
    {
      "midi": 57,
      "hit": false,
      "t": 66000.01100000042,
      "d": 457.14293333333626,
      "v": 91
    },
    {
      "midi": 52,
      "hit": false,
      "t": 66285.72533333376,
      "d": 571.428666666674,
      "v": 90
    },
    {
      "midi": 49,
      "hit": false,
      "t": 66571.4396666671,
      "d": 285.714333333337,
      "v": 91
    },
    {
      "midi": 67,
      "hit": false,
      "t": 66857.15400000043,
      "d": 571.428666666674,
      "v": 102
    },
    {
      "midi": 43,
      "hit": false,
      "t": 66857.15400000043,
      "d": 1585.7145500000188,
      "v": 97
    },
    {
      "midi": 62,
      "hit": false,
      "t": 67142.86833333377,
      "d": 571.428666666674,
      "v": 85
    },
    {
      "midi": 59,
      "hit": false,
      "t": 67428.5826666671,
      "d": 285.714333333337,
      "v": 87
    },
    {
      "midi": 67,
      "hit": false,
      "t": 67714.29700000044,
      "d": 571.428666666674,
      "v": 93
    },
    {
      "midi": 62,
      "hit": false,
      "t": 68000.01133333378,
      "d": 442.85721666667087,
      "v": 84
    },
    {
      "midi": 59,
      "hit": false,
      "t": 68285.72566666712,
      "d": 157.14288333333388,
      "v": 84
    },
    {
      "midi": 57,
      "hit": false,
      "t": 68571.44000000045,
      "d": 571.428666666674,
      "v": 102
    },
    {
      "midi": 45,
      "hit": false,
      "t": 68571.44000000045,
      "d": 1585.7145500000188,
      "v": 97
    },
    {
      "midi": 52,
      "hit": false,
      "t": 68857.15433333379,
      "d": 571.428666666674,
      "v": 85
    },
    {
      "midi": 49,
      "hit": false,
      "t": 69142.86866666713,
      "d": 285.714333333337,
      "v": 87
    },
    {
      "midi": 57,
      "hit": false,
      "t": 69428.58300000046,
      "d": 571.428666666674,
      "v": 93
    },
    {
      "midi": 52,
      "hit": false,
      "t": 69714.2973333338,
      "d": 442.85721666667087,
      "v": 84
    },
    {
      "midi": 49,
      "hit": false,
      "t": 70000.01166666714,
      "d": 157.14288333333388,
      "v": 84
    },
    {
      "midi": 43,
      "hit": false,
      "t": 70285.72600000048,
      "d": 1650.000275000013,
      "v": 91
    },
    {
      "midi": 55,
      "hit": false,
      "t": 70571.44033333381,
      "d": 857.1430000000109,
      "v": 91
    },
    {
      "midi": 59,
      "hit": false,
      "t": 70857.15466666715,
      "d": 285.714333333337,
      "v": 91
    },
    {
      "midi": 65,
      "hit": false,
      "t": 71142.86900000049,
      "d": 792.8572750000021,
      "v": 91
    },
    {
      "midi": 59,
      "hit": false,
      "t": 71428.58333333382,
      "d": 507.14294166666514,
      "v": 91
    },
    {
      "midi": 55,
      "hit": false,
      "t": 71714.29766666716,
      "d": 285.71433333332243,
      "v": 91
    },
    {
      "midi": 36,
      "hit": false,
      "t": 72000.01200000048,
      "d": 1714.2860000000219,
      "v": 84
    },
    {
      "midi": 64,
      "hit": false,
      "t": 72000.01200000048,
      "d": 1714.2860000000219,
      "v": 94
    },
    {
      "midi": 52,
      "hit": false,
      "t": 72285.72633333382,
      "d": 857.1430000000109,
      "v": 84
    },
    {
      "midi": 55,
      "hit": false,
      "t": 72571.44066666716,
      "d": 571.428666666674,
      "v": 85
    },
    {
      "midi": 60,
      "hit": false,
      "t": 72857.1550000005,
      "d": 571.428666666674,
      "v": 109
    },
    {
      "midi": 55,
      "hit": false,
      "t": 73142.86933333383,
      "d": 571.428666666674,
      "v": 80
    },
    {
      "midi": 52,
      "hit": false,
      "t": 73428.58366666717,
      "d": 285.714333333337,
      "v": 87
    },
    {
      "midi": 43,
      "hit": false,
      "t": 73714.2980000005,
      "d": 1650.000275000013,
      "v": 91
    },
    {
      "midi": 55,
      "hit": false,
      "t": 74000.01233333384,
      "d": 857.1430000000109,
      "v": 91
    },
    {
      "midi": 59,
      "hit": false,
      "t": 74285.72666666718,
      "d": 285.714333333337,
      "v": 91
    },
    {
      "midi": 65,
      "hit": false,
      "t": 74571.44100000052,
      "d": 792.8572750000021,
      "v": 91
    },
    {
      "midi": 59,
      "hit": false,
      "t": 74857.15533333385,
      "d": 507.14294166666514,
      "v": 91
    },
    {
      "midi": 55,
      "hit": false,
      "t": 75142.86966666719,
      "d": 285.71433333332243,
      "v": 91
    },
    {
      "midi": 60,
      "hit": false,
      "t": 75428.58400000051,
      "d": 571.428666666674,
      "v": 102
    },
    {
      "midi": 36,
      "hit": false,
      "t": 75428.58400000051,
      "d": 1585.7145500000188,
      "v": 97
    },
    {
      "midi": 55,
      "hit": false,
      "t": 75714.29833333385,
      "d": 571.428666666674,
      "v": 85
    },
    {
      "midi": 52,
      "hit": false,
      "t": 76000.01266666719,
      "d": 285.714333333337,
      "v": 87
    },
    {
      "midi": 60,
      "hit": false,
      "t": 76285.72700000052,
      "d": 571.428666666674,
      "v": 93
    },
    {
      "midi": 55,
      "hit": false,
      "t": 76571.44133333386,
      "d": 442.85721666667087,
      "v": 84
    },
    {
      "midi": 52,
      "hit": false,
      "t": 76857.1556666672,
      "d": 157.14288333333388,
      "v": 84
    },
    {
      "midi": 67,
      "hit": false,
      "t": 77142.87000000053,
      "d": 571.428666666674,
      "v": 102
    },
    {
      "midi": 43,
      "hit": false,
      "t": 77142.87000000053,
      "d": 1585.7145500000188,
      "v": 97
    },
    {
      "midi": 62,
      "hit": false,
      "t": 77428.58433333387,
      "d": 571.428666666674,
      "v": 85
    },
    {
      "midi": 59,
      "hit": false,
      "t": 77714.29866666721,
      "d": 285.714333333337,
      "v": 87
    },
    {
      "midi": 67,
      "hit": false,
      "t": 78000.01300000054,
      "d": 571.428666666674,
      "v": 93
    },
    {
      "midi": 62,
      "hit": false,
      "t": 78285.72733333388,
      "d": 442.85721666667087,
      "v": 84
    },
    {
      "midi": 59,
      "hit": false,
      "t": 78571.44166666722,
      "d": 157.14288333333388,
      "v": 84
    },
    {
      "midi": 36,
      "hit": false,
      "t": 78857.15600000056,
      "d": 1314.2859333333472,
      "v": 91
    },
    {
      "midi": 52,
      "hit": false,
      "t": 79142.87033333389,
      "d": 571.428666666674,
      "v": 91
    },
    {
      "midi": 55,
      "hit": false,
      "t": 79428.58466666723,
      "d": 307.1429083333351,
      "v": 91
    },
    {
      "midi": 60,
      "hit": false,
      "t": 79714.29900000057,
      "d": 457.14293333333626,
      "v": 91
    },
    {
      "midi": 55,
      "hit": false,
      "t": 80000.0133333339,
      "d": 571.428666666674,
      "v": 90
    },
    {
      "midi": 52,
      "hit": false,
      "t": 80285.72766666724,
      "d": 285.714333333337,
      "v": 91
    },
    {
      "midi": 43,
      "hit": false,
      "t": 80571.44200000058,
      "d": 1650.000275000013,
      "v": 91
    },
    {
      "midi": 55,
      "hit": false,
      "t": 80857.15633333391,
      "d": 857.1430000000109,
      "v": 91
    },
    {
      "midi": 59,
      "hit": false,
      "t": 81142.87066666725,
      "d": 285.714333333337,
      "v": 91
    },
    {
      "midi": 65,
      "hit": false,
      "t": 81428.58500000059,
      "d": 792.8572750000021,
      "v": 91
    },
    {
      "midi": 59,
      "hit": false,
      "t": 81714.29933333393,
      "d": 507.14294166666514,
      "v": 91
    },
    {
      "midi": 55,
      "hit": false,
      "t": 82000.01366666726,
      "d": 285.71433333332243,
      "v": 91
    },
    {
      "midi": 36,
      "hit": false,
      "t": 82285.72800000058,
      "d": 1714.2860000000219,
      "v": 84
    },
    {
      "midi": 64,
      "hit": false,
      "t": 82285.72800000058,
      "d": 1714.2860000000219,
      "v": 94
    },
    {
      "midi": 52,
      "hit": false,
      "t": 82571.44233333392,
      "d": 857.1430000000109,
      "v": 84
    },
    {
      "midi": 55,
      "hit": false,
      "t": 82857.15666666726,
      "d": 571.428666666674,
      "v": 85
    },
    {
      "midi": 60,
      "hit": false,
      "t": 83142.8710000006,
      "d": 571.428666666674,
      "v": 109
    },
    {
      "midi": 55,
      "hit": false,
      "t": 83428.58533333393,
      "d": 571.428666666674,
      "v": 80
    },
    {
      "midi": 52,
      "hit": false,
      "t": 83714.29966666727,
      "d": 285.714333333337,
      "v": 87
    },
    {
      "midi": 60,
      "hit": false,
      "t": 84000.0140000006,
      "d": 571.428666666674,
      "v": 102
    },
    {
      "midi": 36,
      "hit": false,
      "t": 84000.0140000006,
      "d": 1585.7145500000188,
      "v": 97
    },
    {
      "midi": 55,
      "hit": false,
      "t": 84285.72833333394,
      "d": 571.428666666674,
      "v": 85
    },
    {
      "midi": 52,
      "hit": false,
      "t": 84571.44266666728,
      "d": 285.714333333337,
      "v": 87
    },
    {
      "midi": 60,
      "hit": false,
      "t": 84857.15700000062,
      "d": 571.428666666674,
      "v": 93
    },
    {
      "midi": 55,
      "hit": false,
      "t": 85142.87133333395,
      "d": 442.85721666667087,
      "v": 84
    },
    {
      "midi": 52,
      "hit": false,
      "t": 85428.58566666729,
      "d": 157.14288333333388,
      "v": 84
    },
    {
      "midi": 41,
      "hit": false,
      "t": 85714.30000000063,
      "d": 1714.2860000000219,
      "v": 84
    },
    {
      "midi": 69,
      "hit": false,
      "t": 85714.30000000063,
      "d": 1714.2860000000219,
      "v": 94
    },
    {
      "midi": 57,
      "hit": false,
      "t": 86000.01433333397,
      "d": 857.1430000000109,
      "v": 84
    },
    {
      "midi": 60,
      "hit": false,
      "t": 86285.7286666673,
      "d": 571.428666666674,
      "v": 85
    },
    {
      "midi": 65,
      "hit": false,
      "t": 86571.44300000064,
      "d": 571.428666666674,
      "v": 109
    },
    {
      "midi": 60,
      "hit": false,
      "t": 86857.15733333398,
      "d": 571.428666666674,
      "v": 80
    },
    {
      "midi": 57,
      "hit": false,
      "t": 87142.87166666731,
      "d": 285.714333333337,
      "v": 87
    },
    {
      "midi": 38,
      "hit": false,
      "t": 87428.58600000065,
      "d": 1314.2859333333472,
      "v": 91
    },
    {
      "midi": 53,
      "hit": false,
      "t": 87714.30033333399,
      "d": 571.428666666674,
      "v": 91
    },
    {
      "midi": 57,
      "hit": false,
      "t": 88000.01466666732,
      "d": 307.1429083333351,
      "v": 91
    },
    {
      "midi": 62,
      "hit": false,
      "t": 88285.72900000066,
      "d": 457.14293333333626,
      "v": 91
    },
    {
      "midi": 57,
      "hit": false,
      "t": 88571.443333334,
      "d": 571.428666666674,
      "v": 90
    },
    {
      "midi": 53,
      "hit": false,
      "t": 88857.15766666734,
      "d": 285.714333333337,
      "v": 91
    },
    {
      "midi": 43,
      "hit": false,
      "t": 89142.87200000067,
      "d": 1714.2860000000219,
      "v": 84
    },
    {
      "midi": 70,
      "hit": false,
      "t": 89142.87200000067,
      "d": 1714.2860000000219,
      "v": 94
    },
    {
      "midi": 58,
      "hit": false,
      "t": 89428.58633333401,
      "d": 857.1430000000109,
      "v": 84
    },
    {
      "midi": 62,
      "hit": false,
      "t": 89714.30066666735,
      "d": 571.428666666674,
      "v": 85
    },
    {
      "midi": 65,
      "hit": false,
      "t": 90000.01500000068,
      "d": 571.428666666674,
      "v": 109
    },
    {
      "midi": 62,
      "hit": false,
      "t": 90285.72933333402,
      "d": 571.428666666674,
      "v": 80
    },
    {
      "midi": 58,
      "hit": false,
      "t": 90571.44366666736,
      "d": 285.714333333337,
      "v": 87
    },
    {
      "midi": 36,
      "hit": false,
      "t": 90857.1580000007,
      "d": 1314.2859333333472,
      "v": 91
    },
    {
      "midi": 52,
      "hit": false,
      "t": 91142.87233333403,
      "d": 571.428666666674,
      "v": 91
    },
    {
      "midi": 55,
      "hit": false,
      "t": 91428.58666666737,
      "d": 307.1429083333351,
      "v": 91
    },
    {
      "midi": 58,
      "hit": false,
      "t": 91714.3010000007,
      "d": 457.14293333333626,
      "v": 91
    },
    {
      "midi": 55,
      "hit": false,
      "t": 92000.01533333404,
      "d": 571.428666666674,
      "v": 90
    },
    {
      "midi": 52,
      "hit": false,
      "t": 92285.72966666738,
      "d": 285.714333333337,
      "v": 91
    },
    {
      "midi": 41,
      "hit": false,
      "t": 92571.44400000072,
      "d": 1714.2860000000219,
      "v": 84
    },
    {
      "midi": 69,
      "hit": false,
      "t": 92571.44400000072,
      "d": 1714.2860000000219,
      "v": 94
    },
    {
      "midi": 57,
      "hit": false,
      "t": 92857.15833333405,
      "d": 857.1430000000109,
      "v": 84
    },
    {
      "midi": 60,
      "hit": false,
      "t": 93142.87266666739,
      "d": 571.428666666674,
      "v": 85
    },
    {
      "midi": 65,
      "hit": false,
      "t": 93428.58700000073,
      "d": 571.428666666674,
      "v": 109
    },
    {
      "midi": 60,
      "hit": false,
      "t": 93714.30133333406,
      "d": 571.428666666674,
      "v": 80
    },
    {
      "midi": 57,
      "hit": false,
      "t": 94000.0156666674,
      "d": 285.714333333337,
      "v": 87
    },
    {
      "midi": 38,
      "hit": false,
      "t": 94285.73000000074,
      "d": 1714.2860000000219,
      "v": 84
    },
    {
      "midi": 65,
      "hit": false,
      "t": 94285.73000000074,
      "d": 1714.2860000000219,
      "v": 94
    },
    {
      "midi": 53,
      "hit": false,
      "t": 94571.44433333408,
      "d": 857.1430000000109,
      "v": 84
    },
    {
      "midi": 57,
      "hit": false,
      "t": 94857.15866666741,
      "d": 571.428666666674,
      "v": 85
    },
    {
      "midi": 62,
      "hit": false,
      "t": 95142.87300000075,
      "d": 571.428666666674,
      "v": 109
    },
    {
      "midi": 57,
      "hit": false,
      "t": 95428.58733333409,
      "d": 571.428666666674,
      "v": 80
    },
    {
      "midi": 53,
      "hit": false,
      "t": 95714.30166666742,
      "d": 285.714333333337,
      "v": 87
    },
    {
      "midi": 43,
      "hit": false,
      "t": 96000.01600000076,
      "d": 1714.2860000000219,
      "v": 84
    },
    {
      "midi": 70,
      "hit": false,
      "t": 96000.01600000076,
      "d": 1714.2860000000219,
      "v": 94
    },
    {
      "midi": 58,
      "hit": false,
      "t": 96285.7303333341,
      "d": 857.1430000000109,
      "v": 84
    },
    {
      "midi": 62,
      "hit": false,
      "t": 96571.44466666743,
      "d": 571.428666666674,
      "v": 85
    },
    {
      "midi": 65,
      "hit": false,
      "t": 96857.15900000077,
      "d": 571.428666666674,
      "v": 109
    },
    {
      "midi": 62,
      "hit": false,
      "t": 97142.87333333411,
      "d": 571.428666666674,
      "v": 80
    },
    {
      "midi": 58,
      "hit": false,
      "t": 97428.58766666744,
      "d": 285.714333333337,
      "v": 87
    },
    {
      "midi": 60,
      "hit": false,
      "t": 97714.30200000078,
      "d": 571.428666666674,
      "v": 102
    },
    {
      "midi": 36,
      "hit": false,
      "t": 97714.30200000078,
      "d": 1585.7145500000188,
      "v": 97
    },
    {
      "midi": 55,
      "hit": false,
      "t": 98000.01633333412,
      "d": 571.428666666674,
      "v": 85
    },
    {
      "midi": 52,
      "hit": false,
      "t": 98285.73066666746,
      "d": 285.714333333337,
      "v": 87
    },
    {
      "midi": 60,
      "hit": false,
      "t": 98571.4450000008,
      "d": 571.428666666674,
      "v": 93
    },
    {
      "midi": 55,
      "hit": false,
      "t": 98857.15933333413,
      "d": 442.85721666667087,
      "v": 84
    },
    {
      "midi": 52,
      "hit": false,
      "t": 99142.87366666747,
      "d": 157.14288333333388,
      "v": 84
    },
    {
      "midi": 65,
      "hit": false,
      "t": 99428.5880000008,
      "d": 571.428666666674,
      "v": 102
    },
    {
      "midi": 41,
      "hit": false,
      "t": 99428.5880000008,
      "d": 1585.7145500000188,
      "v": 97
    },
    {
      "midi": 60,
      "hit": false,
      "t": 99714.30233333414,
      "d": 571.428666666674,
      "v": 85
    },
    {
      "midi": 57,
      "hit": false,
      "t": 100000.01666666748,
      "d": 285.714333333337,
      "v": 87
    },
    {
      "midi": 65,
      "hit": false,
      "t": 100285.73100000081,
      "d": 571.428666666674,
      "v": 93
    },
    {
      "midi": 60,
      "hit": false,
      "t": 100571.44533333415,
      "d": 442.85721666667087,
      "v": 84
    },
    {
      "midi": 57,
      "hit": false,
      "t": 100857.15966666749,
      "d": 157.14288333333388,
      "v": 84
    },
    {
      "midi": 38,
      "hit": false,
      "t": 101142.87400000083,
      "d": 1714.2860000000219,
      "v": 84
    },
    {
      "midi": 65,
      "hit": false,
      "t": 101142.87400000083,
      "d": 1714.2860000000219,
      "v": 94
    },
    {
      "midi": 53,
      "hit": false,
      "t": 101428.58833333416,
      "d": 857.1430000000109,
      "v": 84
    },
    {
      "midi": 57,
      "hit": false,
      "t": 101714.3026666675,
      "d": 571.428666666674,
      "v": 85
    },
    {
      "midi": 62,
      "hit": false,
      "t": 102000.01700000084,
      "d": 571.428666666674,
      "v": 109
    },
    {
      "midi": 57,
      "hit": false,
      "t": 102285.73133333417,
      "d": 571.428666666674,
      "v": 80
    },
    {
      "midi": 53,
      "hit": false,
      "t": 102571.44566666751,
      "d": 285.714333333337,
      "v": 87
    },
    {
      "midi": 43,
      "hit": false,
      "t": 102857.16000000085,
      "d": 1714.2860000000219,
      "v": 84
    },
    {
      "midi": 70,
      "hit": false,
      "t": 102857.16000000085,
      "d": 1714.2860000000219,
      "v": 94
    },
    {
      "midi": 58,
      "hit": false,
      "t": 103142.87433333418,
      "d": 857.1430000000109,
      "v": 84
    },
    {
      "midi": 62,
      "hit": false,
      "t": 103428.58866666752,
      "d": 571.428666666674,
      "v": 85
    },
    {
      "midi": 65,
      "hit": false,
      "t": 103714.30300000086,
      "d": 571.428666666674,
      "v": 109
    },
    {
      "midi": 62,
      "hit": false,
      "t": 104000.0173333342,
      "d": 571.428666666674,
      "v": 80
    },
    {
      "midi": 58,
      "hit": false,
      "t": 104285.73166666753,
      "d": 285.714333333337,
      "v": 87
    },
    {
      "midi": 36,
      "hit": false,
      "t": 104571.44600000087,
      "d": 1714.2860000000219,
      "v": 84
    },
    {
      "midi": 64,
      "hit": false,
      "t": 104571.44600000087,
      "d": 1714.2860000000219,
      "v": 94
    },
    {
      "midi": 52,
      "hit": false,
      "t": 104857.1603333342,
      "d": 857.1430000000109,
      "v": 84
    },
    {
      "midi": 55,
      "hit": false,
      "t": 105142.87466666754,
      "d": 571.428666666674,
      "v": 85
    },
    {
      "midi": 58,
      "hit": false,
      "t": 105428.58900000088,
      "d": 571.428666666674,
      "v": 109
    },
    {
      "midi": 55,
      "hit": false,
      "t": 105714.30333333422,
      "d": 571.428666666674,
      "v": 80
    },
    {
      "midi": 52,
      "hit": false,
      "t": 106000.01766666755,
      "d": 285.714333333337,
      "v": 87
    },
    {
      "midi": 41,
      "hit": false,
      "t": 106285.73200000089,
      "d": 1650.000275000013,
      "v": 91
    },
    {
      "midi": 57,
      "hit": false,
      "t": 106571.44633333423,
      "d": 857.1430000000109,
      "v": 91
    },
    {
      "midi": 60,
      "hit": false,
      "t": 106857.16066666757,
      "d": 285.714333333337,
      "v": 91
    },
    {
      "midi": 69,
      "hit": false,
      "t": 107142.8750000009,
      "d": 792.8572750000021,
      "v": 91
    },
    {
      "midi": 60,
      "hit": false,
      "t": 107428.58933333424,
      "d": 507.14294166666514,
      "v": 91
    },
    {
      "midi": 57,
      "hit": false,
      "t": 107714.30366666758,
      "d": 285.71433333332243,
      "v": 91
    },
    {
      "midi": 38,
      "hit": false,
      "t": 108000.0180000009,
      "d": 1714.2860000000219,
      "v": 84
    },
    {
      "midi": 65,
      "hit": false,
      "t": 108000.0180000009,
      "d": 1714.2860000000219,
      "v": 94
    },
    {
      "midi": 53,
      "hit": false,
      "t": 108285.73233333424,
      "d": 857.1430000000109,
      "v": 84
    },
    {
      "midi": 57,
      "hit": false,
      "t": 108571.44666666757,
      "d": 571.428666666674,
      "v": 85
    },
    {
      "midi": 62,
      "hit": false,
      "t": 108857.16100000091,
      "d": 571.428666666674,
      "v": 109
    },
    {
      "midi": 57,
      "hit": false,
      "t": 109142.87533333425,
      "d": 571.428666666674,
      "v": 80
    },
    {
      "midi": 53,
      "hit": false,
      "t": 109428.58966666758,
      "d": 285.714333333337,
      "v": 87
    },
    {
      "midi": 43,
      "hit": false,
      "t": 109714.30400000092,
      "d": 1650.000275000013,
      "v": 91
    },
    {
      "midi": 55,
      "hit": false,
      "t": 110000.01833333426,
      "d": 857.1430000000109,
      "v": 91
    },
    {
      "midi": 58,
      "hit": false,
      "t": 110285.7326666676,
      "d": 285.714333333337,
      "v": 91
    },
    {
      "midi": 65,
      "hit": false,
      "t": 110571.44700000093,
      "d": 792.8572750000021,
      "v": 91
    },
    {
      "midi": 58,
      "hit": false,
      "t": 110857.16133333427,
      "d": 507.14294166666514,
      "v": 91
    },
    {
      "midi": 55,
      "hit": false,
      "t": 111142.8756666676,
      "d": 285.71433333332243,
      "v": 91
    },
    {
      "midi": 40,
      "hit": false,
      "t": 111428.59000000093,
      "d": 1650.000275000013,
      "v": 91
    },
    {
      "midi": 52,
      "hit": false,
      "t": 111714.30433333426,
      "d": 857.1430000000109,
      "v": 91
    },
    {
      "midi": 56,
      "hit": false,
      "t": 112000.0186666676,
      "d": 285.714333333337,
      "v": 91
    },
    {
      "midi": 62,
      "hit": false,
      "t": 112285.73300000094,
      "d": 792.8572750000021,
      "v": 91
    },
    {
      "midi": 56,
      "hit": false,
      "t": 112571.44733333428,
      "d": 507.14294166666514,
      "v": 91
    },
    {
      "midi": 52,
      "hit": false,
      "t": 112857.16166666761,
      "d": 285.71433333332243,
      "v": 91
    },
    {
      "midi": 45,
      "hit": false,
      "t": 113142.87600000094,
      "d": 1714.2860000000219,
      "v": 84
    },
    {
      "midi": 61,
      "hit": false,
      "t": 113142.87600000094,
      "d": 1714.2860000000219,
      "v": 94
    },
    {
      "midi": 49,
      "hit": false,
      "t": 113428.59033333427,
      "d": 857.1430000000109,
      "v": 84
    },
    {
      "midi": 52,
      "hit": false,
      "t": 113714.30466666761,
      "d": 571.428666666674,
      "v": 85
    },
    {
      "midi": 57,
      "hit": false,
      "t": 114000.01900000095,
      "d": 571.428666666674,
      "v": 109
    },
    {
      "midi": 52,
      "hit": false,
      "t": 114285.73333333428,
      "d": 571.428666666674,
      "v": 80
    },
    {
      "midi": 49,
      "hit": false,
      "t": 114571.44766666762,
      "d": 285.714333333337,
      "v": 87
    },
    {
      "midi": 64,
      "hit": false,
      "t": 114857.16200000096,
      "d": 571.428666666674,
      "v": 102
    },
    {
      "midi": 40,
      "hit": false,
      "t": 114857.16200000096,
      "d": 1585.7145500000188,
      "v": 97
    },
    {
      "midi": 59,
      "hit": false,
      "t": 115142.8763333343,
      "d": 571.428666666674,
      "v": 85
    },
    {
      "midi": 56,
      "hit": false,
      "t": 115428.59066666763,
      "d": 285.714333333337,
      "v": 87
    },
    {
      "midi": 64,
      "hit": false,
      "t": 115714.30500000097,
      "d": 571.428666666674,
      "v": 93
    },
    {
      "midi": 59,
      "hit": false,
      "t": 116000.0193333343,
      "d": 442.85721666667087,
      "v": 84
    },
    {
      "midi": 56,
      "hit": false,
      "t": 116285.73366666764,
      "d": 157.14288333333388,
      "v": 84
    },
    {
      "midi": 45,
      "hit": false,
      "t": 116571.44800000098,
      "d": 1314.2859333333472,
      "v": 91
    },
    {
      "midi": 49,
      "hit": false,
      "t": 116857.16233333432,
      "d": 571.428666666674,
      "v": 91
    },
    {
      "midi": 52,
      "hit": false,
      "t": 117142.87666666765,
      "d": 307.1429083333351,
      "v": 91
    },
    {
      "midi": 57,
      "hit": false,
      "t": 117428.59100000099,
      "d": 457.14293333333626,
      "v": 91
    },
    {
      "midi": 52,
      "hit": false,
      "t": 117714.30533333433,
      "d": 571.428666666674,
      "v": 90
    },
    {
      "midi": 49,
      "hit": false,
      "t": 118000.01966666766,
      "d": 285.714333333337,
      "v": 91
    },
    {
      "midi": 64,
      "hit": false,
      "t": 118285.734000001,
      "d": 571.428666666674,
      "v": 102
    },
    {
      "midi": 40,
      "hit": false,
      "t": 118285.734000001,
      "d": 1585.7145500000188,
      "v": 97
    },
    {
      "midi": 59,
      "hit": false,
      "t": 118571.44833333434,
      "d": 571.428666666674,
      "v": 85
    },
    {
      "midi": 56,
      "hit": false,
      "t": 118857.16266666767,
      "d": 285.714333333337,
      "v": 87
    },
    {
      "midi": 64,
      "hit": false,
      "t": 119142.87700000101,
      "d": 571.428666666674,
      "v": 93
    },
    {
      "midi": 59,
      "hit": false,
      "t": 119428.59133333435,
      "d": 442.85721666667087,
      "v": 84
    },
    {
      "midi": 56,
      "hit": false,
      "t": 119714.30566666769,
      "d": 157.14288333333388,
      "v": 84
    },
    {
      "midi": 45,
      "hit": false,
      "t": 120000.02000000102,
      "d": 1314.2859333333472,
      "v": 91
    },
    {
      "midi": 49,
      "hit": false,
      "t": 120285.73433333436,
      "d": 571.428666666674,
      "v": 91
    },
    {
      "midi": 52,
      "hit": false,
      "t": 120571.4486666677,
      "d": 307.1429083333351,
      "v": 91
    },
    {
      "midi": 57,
      "hit": false,
      "t": 120857.16300000103,
      "d": 457.14293333333626,
      "v": 91
    },
    {
      "midi": 52,
      "hit": false,
      "t": 121142.87733333437,
      "d": 571.428666666674,
      "v": 90
    },
    {
      "midi": 49,
      "hit": false,
      "t": 121428.59166666771,
      "d": 285.714333333337,
      "v": 91
    },
    {
      "midi": 67,
      "hit": false,
      "t": 121714.30600000104,
      "d": 571.428666666674,
      "v": 102
    },
    {
      "midi": 43,
      "hit": false,
      "t": 121714.30600000104,
      "d": 1585.7145500000188,
      "v": 97
    },
    {
      "midi": 62,
      "hit": false,
      "t": 122000.02033333438,
      "d": 571.428666666674,
      "v": 85
    },
    {
      "midi": 59,
      "hit": false,
      "t": 122285.73466666772,
      "d": 285.714333333337,
      "v": 87
    },
    {
      "midi": 67,
      "hit": false,
      "t": 122571.44900000106,
      "d": 571.428666666674,
      "v": 93
    },
    {
      "midi": 62,
      "hit": false,
      "t": 122857.16333333439,
      "d": 442.85721666667087,
      "v": 84
    },
    {
      "midi": 59,
      "hit": false,
      "t": 123142.87766666773,
      "d": 157.14288333333388,
      "v": 84
    },
    {
      "midi": 45,
      "hit": false,
      "t": 123428.59200000107,
      "d": 1714.2860000000219,
      "v": 84
    },
    {
      "midi": 61,
      "hit": false,
      "t": 123428.59200000107,
      "d": 1714.2860000000219,
      "v": 94
    },
    {
      "midi": 49,
      "hit": false,
      "t": 123714.3063333344,
      "d": 857.1430000000109,
      "v": 84
    },
    {
      "midi": 52,
      "hit": false,
      "t": 124000.02066666774,
      "d": 571.428666666674,
      "v": 85
    },
    {
      "midi": 57,
      "hit": false,
      "t": 124285.73500000108,
      "d": 571.428666666674,
      "v": 109
    },
    {
      "midi": 52,
      "hit": false,
      "t": 124571.44933333441,
      "d": 571.428666666674,
      "v": 80
    },
    {
      "midi": 49,
      "hit": false,
      "t": 124857.16366666775,
      "d": 285.714333333337,
      "v": 87
    },
    {
      "midi": 43,
      "hit": false,
      "t": 125142.87800000109,
      "d": 1714.2860000000219,
      "v": 84
    },
    {
      "midi": 71,
      "hit": false,
      "t": 125142.87800000109,
      "d": 1714.2860000000219,
      "v": 94
    },
    {
      "midi": 59,
      "hit": false,
      "t": 125428.59233333443,
      "d": 857.1430000000109,
      "v": 84
    },
    {
      "midi": 62,
      "hit": false,
      "t": 125714.30666666776,
      "d": 571.428666666674,
      "v": 85
    },
    {
      "midi": 65,
      "hit": false,
      "t": 126000.0210000011,
      "d": 571.428666666674,
      "v": 109
    },
    {
      "midi": 62,
      "hit": false,
      "t": 126285.73533333444,
      "d": 571.428666666674,
      "v": 80
    },
    {
      "midi": 59,
      "hit": false,
      "t": 126571.44966666777,
      "d": 285.714333333337,
      "v": 87
    },
    {
      "midi": 60,
      "hit": false,
      "t": 126857.16400000111,
      "d": 571.428666666674,
      "v": 102
    },
    {
      "midi": 36,
      "hit": false,
      "t": 126857.16400000111,
      "d": 1585.7145500000188,
      "v": 97
    },
    {
      "midi": 55,
      "hit": false,
      "t": 127142.87833333445,
      "d": 571.428666666674,
      "v": 85
    },
    {
      "midi": 52,
      "hit": false,
      "t": 127428.59266666778,
      "d": 285.714333333337,
      "v": 87
    },
    {
      "midi": 60,
      "hit": false,
      "t": 127714.30700000112,
      "d": 571.428666666674,
      "v": 93
    },
    {
      "midi": 55,
      "hit": false,
      "t": 128000.02133333446,
      "d": 442.85721666667087,
      "v": 84
    },
    {
      "midi": 52,
      "hit": false,
      "t": 128285.7356666678,
      "d": 157.14288333333388,
      "v": 84
    },
    {
      "midi": 43,
      "hit": false,
      "t": 128571.45000000113,
      "d": 1650.000275000013,
      "v": 91
    },
    {
      "midi": 55,
      "hit": false,
      "t": 128857.16433333447,
      "d": 857.1430000000109,
      "v": 91
    },
    {
      "midi": 59,
      "hit": false,
      "t": 129142.8786666678,
      "d": 285.714333333337,
      "v": 91
    },
    {
      "midi": 65,
      "hit": false,
      "t": 129428.59300000114,
      "d": 792.8572750000021,
      "v": 91
    },
    {
      "midi": 59,
      "hit": false,
      "t": 129714.30733333448,
      "d": 507.14294166666514,
      "v": 91
    },
    {
      "midi": 55,
      "hit": false,
      "t": 130000.02166666782,
      "d": 285.71433333332243,
      "v": 91
    },
    {
      "midi": 36,
      "hit": false,
      "t": 130285.73600000114,
      "d": 1314.2859333333618,
      "v": 91
    },
    {
      "midi": 52,
      "hit": false,
      "t": 130571.45033333448,
      "d": 571.428666666674,
      "v": 91
    },
    {
      "midi": 55,
      "hit": false,
      "t": 130857.16466666781,
      "d": 307.1429083333351,
      "v": 91
    },
    {
      "midi": 60,
      "hit": false,
      "t": 131142.87900000115,
      "d": 457.1429333333508,
      "v": 91
    },
    {
      "midi": 55,
      "hit": false,
      "t": 131428.5933333345,
      "d": 571.428666666674,
      "v": 90
    },
    {
      "midi": 52,
      "hit": false,
      "t": 131714.30766666782,
      "d": 285.714333333337,
      "v": 91
    },
    {
      "midi": 43,
      "hit": false,
      "t": 132000.02200000116,
      "d": 1650.0002750000276,
      "v": 91
    },
    {
      "midi": 55,
      "hit": false,
      "t": 132285.7363333345,
      "d": 857.1430000000109,
      "v": 91
    },
    {
      "midi": 59,
      "hit": false,
      "t": 132571.45066666784,
      "d": 285.714333333337,
      "v": 91
    },
    {
      "midi": 65,
      "hit": false,
      "t": 132857.16500000117,
      "d": 792.8572750000167,
      "v": 91
    },
    {
      "midi": 59,
      "hit": false,
      "t": 133142.8793333345,
      "d": 507.1429416666797,
      "v": 91
    },
    {
      "midi": 55,
      "hit": false,
      "t": 133428.59366666785,
      "d": 285.714333333337,
      "v": 91
    },
    {
      "midi": 36,
      "hit": false,
      "t": 133714.30800000118,
      "d": 1714.2860000000219,
      "v": 84
    },
    {
      "midi": 64,
      "hit": false,
      "t": 133714.30800000118,
      "d": 1714.2860000000219,
      "v": 94
    },
    {
      "midi": 52,
      "hit": false,
      "t": 134000.02233333452,
      "d": 857.1430000000109,
      "v": 84
    },
    {
      "midi": 55,
      "hit": false,
      "t": 134285.73666666786,
      "d": 571.428666666674,
      "v": 85
    },
    {
      "midi": 60,
      "hit": false,
      "t": 134571.4510000012,
      "d": 571.428666666674,
      "v": 109
    },
    {
      "midi": 55,
      "hit": false,
      "t": 134857.16533333453,
      "d": 571.428666666674,
      "v": 80
    },
    {
      "midi": 52,
      "hit": false,
      "t": 135142.87966666787,
      "d": 285.714333333337,
      "v": 87
    },
    {
      "midi": 43,
      "hit": false,
      "t": 135428.5940000012,
      "d": 1714.2860000000219,
      "v": 84
    },
    {
      "midi": 71,
      "hit": false,
      "t": 135428.5940000012,
      "d": 1714.2860000000219,
      "v": 94
    },
    {
      "midi": 59,
      "hit": false,
      "t": 135714.30833333454,
      "d": 857.1430000000109,
      "v": 84
    },
    {
      "midi": 62,
      "hit": false,
      "t": 136000.02266666788,
      "d": 571.428666666674,
      "v": 85
    },
    {
      "midi": 65,
      "hit": false,
      "t": 136285.73700000122,
      "d": 571.428666666674,
      "v": 109
    },
    {
      "midi": 62,
      "hit": false,
      "t": 136571.45133333455,
      "d": 571.428666666674,
      "v": 80
    },
    {
      "midi": 59,
      "hit": false,
      "t": 136857.1656666679,
      "d": 285.714333333337,
      "v": 87
    },
    {
      "midi": 60,
      "hit": false,
      "t": 137142.88000000123,
      "d": 571.428666666674,
      "v": 102
    },
    {
      "midi": 36,
      "hit": false,
      "t": 137142.88000000123,
      "d": 1585.7145500000042,
      "v": 97
    },
    {
      "midi": 55,
      "hit": false,
      "t": 137428.59433333456,
      "d": 571.428666666674,
      "v": 85
    },
    {
      "midi": 52,
      "hit": false,
      "t": 137714.3086666679,
      "d": 285.714333333337,
      "v": 87
    },
    {
      "midi": 60,
      "hit": false,
      "t": 138000.02300000124,
      "d": 571.428666666674,
      "v": 93
    },
    {
      "midi": 55,
      "hit": false,
      "t": 138285.73733333457,
      "d": 442.8572166666563,
      "v": 84
    },
    {
      "midi": 52,
      "hit": false,
      "t": 138571.4516666679,
      "d": 157.14288333331933,
      "v": 84
    },
    {
      "midi": 60,
      "hit": false,
      "t": 138857.16600000122,
      "d": 571.428666666674,
      "v": 102
    },
    {
      "midi": 36,
      "hit": false,
      "t": 138857.16600000122,
      "d": 1585.7145500000042,
      "v": 97
    },
    {
      "midi": 55,
      "hit": false,
      "t": 139142.88033333456,
      "d": 571.428666666674,
      "v": 85
    },
    {
      "midi": 52,
      "hit": false,
      "t": 139428.5946666679,
      "d": 285.714333333337,
      "v": 87
    },
    {
      "midi": 60,
      "hit": false,
      "t": 139714.30900000123,
      "d": 571.428666666674,
      "v": 93
    },
    {
      "midi": 55,
      "hit": false,
      "t": 140000.02333333457,
      "d": 442.8572166666563,
      "v": 84
    },
    {
      "midi": 52,
      "hit": false,
      "t": 140285.7376666679,
      "d": 157.14288333331933,
      "v": 84
    },
    {
      "midi": 65,
      "hit": false,
      "t": 140571.4520000012,
      "d": 571.428666666674,
      "v": 102
    },
    {
      "midi": 41,
      "hit": false,
      "t": 140571.4520000012,
      "d": 1585.7145500000042,
      "v": 97
    },
    {
      "midi": 60,
      "hit": false,
      "t": 140857.16633333455,
      "d": 571.428666666674,
      "v": 85
    },
    {
      "midi": 57,
      "hit": false,
      "t": 141142.8806666679,
      "d": 285.714333333337,
      "v": 87
    },
    {
      "midi": 65,
      "hit": false,
      "t": 141428.59500000122,
      "d": 571.428666666674,
      "v": 93
    },
    {
      "midi": 60,
      "hit": false,
      "t": 141714.30933333456,
      "d": 442.8572166666563,
      "v": 84
    },
    {
      "midi": 57,
      "hit": false,
      "t": 142000.0236666679,
      "d": 157.14288333331933,
      "v": 84
    },
    {
      "midi": 38,
      "hit": false,
      "t": 142285.7380000012,
      "d": 1314.2859333333618,
      "v": 91
    },
    {
      "midi": 53,
      "hit": false,
      "t": 142571.45233333454,
      "d": 571.428666666674,
      "v": 91
    },
    {
      "midi": 57,
      "hit": false,
      "t": 142857.16666666788,
      "d": 307.1429083333351,
      "v": 91
    },
    {
      "midi": 62,
      "hit": false,
      "t": 143142.88100000122,
      "d": 457.1429333333508,
      "v": 91
    },
    {
      "midi": 57,
      "hit": false,
      "t": 143428.59533333455,
      "d": 571.428666666674,
      "v": 90
    },
    {
      "midi": 53,
      "hit": false,
      "t": 143714.3096666679,
      "d": 285.714333333337,
      "v": 91
    },
    {
      "midi": 43,
      "hit": false,
      "t": 144000.02400000123,
      "d": 1714.2860000000219,
      "v": 84
    },
    {
      "midi": 70,
      "hit": false,
      "t": 144000.02400000123,
      "d": 1714.2860000000219,
      "v": 94
    },
    {
      "midi": 58,
      "hit": false,
      "t": 144285.73833333456,
      "d": 857.1430000000109,
      "v": 84
    },
    {
      "midi": 62,
      "hit": false,
      "t": 144571.4526666679,
      "d": 571.428666666674,
      "v": 85
    },
    {
      "midi": 65,
      "hit": false,
      "t": 144857.16700000124,
      "d": 571.428666666674,
      "v": 109
    },
    {
      "midi": 62,
      "hit": false,
      "t": 145142.88133333458,
      "d": 571.428666666674,
      "v": 80
    },
    {
      "midi": 58,
      "hit": false,
      "t": 145428.5956666679,
      "d": 285.714333333337,
      "v": 87
    },
    {
      "midi": 36,
      "hit": false,
      "t": 145714.31000000125,
      "d": 1714.2860000000219,
      "v": 84
    },
    {
      "midi": 64,
      "hit": false,
      "t": 145714.31000000125,
      "d": 1714.2860000000219,
      "v": 94
    },
    {
      "midi": 52,
      "hit": false,
      "t": 146000.0243333346,
      "d": 857.1430000000109,
      "v": 84
    },
    {
      "midi": 55,
      "hit": false,
      "t": 146285.73866666792,
      "d": 571.428666666674,
      "v": 85
    },
    {
      "midi": 58,
      "hit": false,
      "t": 146571.45300000126,
      "d": 571.428666666674,
      "v": 109
    },
    {
      "midi": 55,
      "hit": false,
      "t": 146857.1673333346,
      "d": 571.428666666674,
      "v": 80
    },
    {
      "midi": 52,
      "hit": false,
      "t": 147142.88166666793,
      "d": 285.714333333337,
      "v": 87
    },
    {
      "midi": 41,
      "hit": false,
      "t": 147428.59600000127,
      "d": 1714.2860000000219,
      "v": 84
    },
    {
      "midi": 69,
      "hit": false,
      "t": 147428.59600000127,
      "d": 1714.2860000000219,
      "v": 94
    },
    {
      "midi": 57,
      "hit": false,
      "t": 147714.3103333346,
      "d": 857.1430000000109,
      "v": 84
    },
    {
      "midi": 60,
      "hit": false,
      "t": 148000.02466666794,
      "d": 571.428666666674,
      "v": 85
    },
    {
      "midi": 65,
      "hit": false,
      "t": 148285.73900000128,
      "d": 571.428666666674,
      "v": 109
    },
    {
      "midi": 60,
      "hit": false,
      "t": 148571.45333333462,
      "d": 571.428666666674,
      "v": 80
    },
    {
      "midi": 57,
      "hit": false,
      "t": 148857.16766666796,
      "d": 285.714333333337,
      "v": 87
    },
    {
      "midi": 62,
      "hit": false,
      "t": 149142.8820000013,
      "d": 571.428666666674,
      "v": 102
    },
    {
      "midi": 38,
      "hit": false,
      "t": 149142.8820000013,
      "d": 1585.7145500000042,
      "v": 97
    },
    {
      "midi": 57,
      "hit": false,
      "t": 149428.59633333463,
      "d": 571.428666666674,
      "v": 85
    },
    {
      "midi": 53,
      "hit": false,
      "t": 149714.31066666797,
      "d": 285.714333333337,
      "v": 87
    },
    {
      "midi": 62,
      "hit": false,
      "t": 150000.0250000013,
      "d": 571.428666666674,
      "v": 93
    },
    {
      "midi": 57,
      "hit": false,
      "t": 150285.73933333464,
      "d": 442.8572166666563,
      "v": 84
    },
    {
      "midi": 53,
      "hit": false,
      "t": 150571.45366666798,
      "d": 157.14288333331933,
      "v": 84
    },
    {
      "midi": 43,
      "hit": false,
      "t": 150857.1680000013,
      "d": 1650.0002750000276,
      "v": 91
    },
    {
      "midi": 55,
      "hit": false,
      "t": 151142.88233333462,
      "d": 857.1430000000109,
      "v": 91
    },
    {
      "midi": 58,
      "hit": false,
      "t": 151428.59666666796,
      "d": 285.714333333337,
      "v": 91
    },
    {
      "midi": 65,
      "hit": false,
      "t": 151714.3110000013,
      "d": 792.8572750000167,
      "v": 91
    },
    {
      "midi": 58,
      "hit": false,
      "t": 152000.02533333463,
      "d": 507.1429416666797,
      "v": 91
    },
    {
      "midi": 55,
      "hit": false,
      "t": 152285.73966666797,
      "d": 285.714333333337,
      "v": 91
    },
    {
      "midi": 60,
      "hit": false,
      "t": 152571.4540000013,
      "d": 571.428666666674,
      "v": 102
    },
    {
      "midi": 36,
      "hit": false,
      "t": 152571.4540000013,
      "d": 1585.7145500000042,
      "v": 97
    },
    {
      "midi": 55,
      "hit": false,
      "t": 152857.16833333464,
      "d": 571.428666666674,
      "v": 85
    },
    {
      "midi": 52,
      "hit": false,
      "t": 153142.88266666798,
      "d": 285.714333333337,
      "v": 87
    },
    {
      "midi": 60,
      "hit": false,
      "t": 153428.59700000132,
      "d": 571.428666666674,
      "v": 93
    },
    {
      "midi": 55,
      "hit": false,
      "t": 153714.31133333466,
      "d": 442.8572166666563,
      "v": 84
    },
    {
      "midi": 52,
      "hit": false,
      "t": 154000.025666668,
      "d": 157.14288333331933,
      "v": 84
    },
    {
      "midi": 41,
      "hit": false,
      "t": 154285.7400000013,
      "d": 1650.0002750000276,
      "v": 91
    },
    {
      "midi": 57,
      "hit": false,
      "t": 154571.45433333464,
      "d": 857.1430000000109,
      "v": 91
    },
    {
      "midi": 60,
      "hit": false,
      "t": 154857.16866666797,
      "d": 285.714333333337,
      "v": 91
    },
    {
      "midi": 69,
      "hit": false,
      "t": 155142.8830000013,
      "d": 792.8572750000167,
      "v": 91
    },
    {
      "midi": 60,
      "hit": false,
      "t": 155428.59733333465,
      "d": 507.1429416666797,
      "v": 91
    },
    {
      "midi": 57,
      "hit": false,
      "t": 155714.31166666799,
      "d": 285.714333333337,
      "v": 91
    },
    {
      "midi": 38,
      "hit": false,
      "t": 156000.02600000132,
      "d": 1714.2860000000219,
      "v": 84
    },
    {
      "midi": 65,
      "hit": false,
      "t": 156000.02600000132,
      "d": 1714.2860000000219,
      "v": 94
    },
    {
      "midi": 53,
      "hit": false,
      "t": 156285.74033333466,
      "d": 857.1430000000109,
      "v": 84
    },
    {
      "midi": 57,
      "hit": false,
      "t": 156571.454666668,
      "d": 571.428666666674,
      "v": 85
    },
    {
      "midi": 62,
      "hit": false,
      "t": 156857.16900000133,
      "d": 571.428666666674,
      "v": 109
    },
    {
      "midi": 57,
      "hit": false,
      "t": 157142.88333333467,
      "d": 571.428666666674,
      "v": 80
    },
    {
      "midi": 53,
      "hit": false,
      "t": 157428.597666668,
      "d": 285.714333333337,
      "v": 87
    },
    {
      "midi": 67,
      "hit": false,
      "t": 157714.31200000134,
      "d": 571.428666666674,
      "v": 102
    },
    {
      "midi": 43,
      "hit": false,
      "t": 157714.31200000134,
      "d": 1585.7145500000042,
      "v": 97
    },
    {
      "midi": 62,
      "hit": false,
      "t": 158000.02633333468,
      "d": 571.428666666674,
      "v": 85
    },
    {
      "midi": 58,
      "hit": false,
      "t": 158285.74066666802,
      "d": 285.714333333337,
      "v": 87
    },
    {
      "midi": 67,
      "hit": false,
      "t": 158571.45500000136,
      "d": 571.428666666674,
      "v": 93
    },
    {
      "midi": 62,
      "hit": false,
      "t": 158857.1693333347,
      "d": 442.8572166666563,
      "v": 84
    },
    {
      "midi": 58,
      "hit": false,
      "t": 159142.88366666803,
      "d": 157.14288333331933,
      "v": 84
    },
    {
      "midi": 60,
      "hit": false,
      "t": 159428.59800000134,
      "d": 571.428666666674,
      "v": 102
    },
    {
      "midi": 36,
      "hit": false,
      "t": 159428.59800000134,
      "d": 1585.7145500000042,
      "v": 97
    },
    {
      "midi": 55,
      "hit": false,
      "t": 159714.31233333467,
      "d": 571.428666666674,
      "v": 85
    },
    {
      "midi": 52,
      "hit": false,
      "t": 160000.026666668,
      "d": 285.714333333337,
      "v": 87
    },
    {
      "midi": 60,
      "hit": false,
      "t": 160285.74100000135,
      "d": 571.428666666674,
      "v": 93
    },
    {
      "midi": 55,
      "hit": false,
      "t": 160571.45533333468,
      "d": 442.8572166666563,
      "v": 84
    },
    {
      "midi": 52,
      "hit": false,
      "t": 160857.16966666802,
      "d": 157.14288333331933,
      "v": 84
    },
    {
      "midi": 41,
      "hit": false,
      "t": 161142.88400000133,
      "d": 1650.0002749999694,
      "v": 91
    },
    {
      "midi": 57,
      "hit": false,
      "t": 161428.59833333467,
      "d": 857.1429999999818,
      "v": 91
    },
    {
      "midi": 60,
      "hit": false,
      "t": 161714.312666668,
      "d": 285.714333333337,
      "v": 91
    },
    {
      "midi": 69,
      "hit": false,
      "t": 162000.02700000134,
      "d": 792.8572749999585,
      "v": 91
    },
    {
      "midi": 60,
      "hit": false,
      "t": 162285.74133333465,
      "d": 507.1429416666506,
      "v": 91
    },
    {
      "midi": 57,
      "hit": false,
      "t": 162571.455666668,
      "d": 335.71434166663676,
      "v": 91
    },
    {
      "midi": 41,
      "hit": false,
      "t": 162857.1700000013,
      "d": 1714.2859999998764,
      "v": 91
    },
    {
      "midi": 57,
      "hit": false,
      "t": 163142.8843333346,
      "d": 857.1429999999527,
      "v": 91
    },
    {
      "midi": 60,
      "hit": false,
      "t": 163428.5986666679,
      "d": 314.28576666666777,
      "v": 91
    },
    {
      "midi": 69,
      "hit": false,
      "t": 163742.88443333458,
      "d": 828.5715666665928,
      "v": 91
    },
    {
      "midi": 60,
      "hit": false,
      "t": 164000.02733333455,
      "d": 571.4286666666158,
      "v": 91
    },
    {
      "midi": 57,
      "hit": false,
      "t": 164285.74166666786,
      "d": 285.7143333333079,
      "v": 91
    },
    {
      "midi": 41,
      "hit": false,
      "t": 164571.45600000117,
      "d": 5707.143808333058,
      "v": 65
    },
    {
      "midi": 57,
      "hit": false,
      "t": 164857.17033333448,
      "d": 835.7144249999255,
      "v": 72
    },
    {
      "midi": 60,
      "hit": false,
      "t": 165142.8846666678,
      "d": 550.0000916666177,
      "v": 74
    },
    {
      "midi": 65,
      "hit": false,
      "t": 165428.5990000011,
      "d": 571.4286666666158,
      "v": 74
    },
    {
      "midi": 60,
      "hit": false,
      "t": 165714.3133333344,
      "d": 521.428658333316,
      "v": 61
    },
    {
      "midi": 57,
      "hit": false,
      "t": 166000.0276666677,
      "d": 285.714333333337,
      "v": 69
    },
    {
      "midi": 69,
      "hit": false,
      "t": 166285.74200000105,
      "d": 542.857233333285,
      "v": 83
    },
    {
      "midi": 65,
      "hit": false,
      "t": 166571.45633333435,
      "d": 557.1429499999504,
      "v": 66
    },
    {
      "midi": 60,
      "hit": false,
      "t": 166857.17066666766,
      "d": 285.7143333333079,
      "v": 64
    },
    {
      "midi": 72,
      "hit": false,
      "t": 167142.88500000097,
      "d": 564.2858083332831,
      "v": 73
    },
    {
      "midi": 69,
      "hit": false,
      "t": 167428.59933333428,
      "d": 521.4286583332869,
      "v": 77
    },
    {
      "midi": 65,
      "hit": false,
      "t": 167714.3136666676,
      "d": 285.7143333333079,
      "v": 74
    },
    {
      "midi": 69,
      "hit": false,
      "t": 168000.0280000009,
      "d": 2278.571808333334,
      "v": 86
    },
    {
      "midi": 72,
      "hit": false,
      "t": 168000.0280000009,
      "d": 2278.571808333334,
      "v": 35
    },
    {
      "midi": 77,
      "hit": false,
      "t": 168000.0280000009,
      "d": 2492.857558333344,
      "v": 86
    }
  ]
}