{
  "jsonPath": "Ambient/Easy Listening/Richard Clayderman/marriage-damour.json",
  "path": "Ambient\\Easy Listening\\Richard Clayderman\\Marriage DAmour.mid",
  "name": "Marriage DAmour",
  "difficulty": "Advanced",
  "bpm": 54.00000540000054,
  "notes": [
    {
      "midi": 43,
      "hit": false,
      "t": 0,
      "d": 555.5555,
      "v": 100
    },
    {
      "midi": 50,
      "hit": false,
      "t": 555.5555,
      "d": 555.5555,
      "v": 100
    },
    {
      "midi": 58,
      "hit": false,
      "t": 1111.111,
      "d": 555.5555000000002,
      "v": 100
    },
    {
      "midi": 50,
      "hit": false,
      "t": 1666.6665000000003,
      "d": 555.5554999999999,
      "v": 100
    },
    {
      "midi": 58,
      "hit": false,
      "t": 2222.222,
      "d": 555.5554999999999,
      "v": 100
    },
    {
      "midi": 50,
      "hit": false,
      "t": 2777.7775,
      "d": 555.5554999999999,
      "v": 100
    },
    {
      "midi": 58,
      "hit": false,
      "t": 3333.333,
      "d": 555.5554999999999,
      "v": 100
    },
    {
      "midi": 50,
      "hit": false,
      "t": 3888.8885,
      "d": 555.5555000000004,
      "v": 100
    },
    {
      "midi": 79,
      "hit": false,
      "t": 4166.66625,
      "d": 277.7777500000002,
      "v": 100
    },
    {
      "midi": 79,
      "hit": false,
      "t": 4444.444,
      "d": 277.7777500000002,
      "v": 100
    },
    {
      "midi": 43,
      "hit": false,
      "t": 4444.444,
      "d": 555.5555000000004,
      "v": 100
    },
    {
      "midi": 81,
      "hit": false,
      "t": 4722.221750000001,
      "d": 277.7777500000002,
      "v": 100
    },
    {
      "midi": 81,
      "hit": false,
      "t": 4999.999500000001,
      "d": 277.7777500000002,
      "v": 100
    },
    {
      "midi": 50,
      "hit": false,
      "t": 4999.999500000001,
      "d": 555.5555000000004,
      "v": 100
    },
    {
      "midi": 82,
      "hit": false,
      "t": 5277.777250000001,
      "d": 277.7777500000002,
      "v": 100
    },
    {
      "midi": 82,
      "hit": false,
      "t": 5555.555000000001,
      "d": 277.7777500000002,
      "v": 100
    },
    {
      "midi": 58,
      "hit": false,
      "t": 5555.555000000001,
      "d": 555.5555000000004,
      "v": 100
    },
    {
      "midi": 81,
      "hit": false,
      "t": 5833.332750000001,
      "d": 277.7777500000002,
      "v": 100
    },
    {
      "midi": 81,
      "hit": false,
      "t": 6111.110500000002,
      "d": 277.7777500000002,
      "v": 100
    },
    {
      "midi": 50,
      "hit": false,
      "t": 6111.110500000002,
      "d": 555.5555000000004,
      "v": 100
    },
    {
      "midi": 79,
      "hit": false,
      "t": 6388.888250000002,
      "d": 277.7777500000002,
      "v": 100
    },
    {
      "midi": 79,
      "hit": false,
      "t": 6666.666000000002,
      "d": 277.7777500000002,
      "v": 100
    },
    {
      "midi": 58,
      "hit": false,
      "t": 6666.666000000002,
      "d": 555.5555000000004,
      "v": 100
    },
    {
      "midi": 74,
      "hit": false,
      "t": 6944.443750000002,
      "d": 277.7777500000002,
      "v": 100
    },
    {
      "midi": 74,
      "hit": false,
      "t": 7222.221500000002,
      "d": 277.7777500000002,
      "v": 100
    },
    {
      "midi": 50,
      "hit": false,
      "t": 7222.221500000002,
      "d": 555.5555000000004,
      "v": 100
    },
    {
      "midi": 70,
      "hit": false,
      "t": 7499.999250000003,
      "d": 277.7777500000002,
      "v": 100
    },
    {
      "midi": 70,
      "hit": false,
      "t": 7777.777000000003,
      "d": 277.7777500000002,
      "v": 100
    },
    {
      "midi": 58,
      "hit": false,
      "t": 7777.777000000003,
      "d": 555.5554999999995,
      "v": 100
    },
    {
      "midi": 67,
      "hit": false,
      "t": 8055.554750000003,
      "d": 277.7777499999993,
      "v": 100
    },
    {
      "midi": 67,
      "hit": false,
      "t": 8333.332500000002,
      "d": 277.7777499999993,
      "v": 100
    },
    {
      "midi": 50,
      "hit": false,
      "t": 8333.332500000002,
      "d": 555.5555000000004,
      "v": 100
    },
    {
      "midi": 77,
      "hit": false,
      "t": 8611.110250000002,
      "d": 277.7777499999993,
      "v": 100
    },
    {
      "midi": 77,
      "hit": false,
      "t": 8888.888,
      "d": 277.7777499999993,
      "v": 100
    },
    {
      "midi": 51,
      "hit": false,
      "t": 8888.888000000003,
      "d": 555.5555000000004,
      "v": 100
    },
    {
      "midi": 75,
      "hit": false,
      "t": 9166.66575,
      "d": 277.7777499999993,
      "v": 100
    },
    {
      "midi": 75,
      "hit": false,
      "t": 9444.4435,
      "d": 277.7777499999993,
      "v": 100
    },
    {
      "midi": 55,
      "hit": false,
      "t": 9444.443500000003,
      "d": 555.5555000000004,
      "v": 100
    },
    {
      "midi": 74,
      "hit": false,
      "t": 9722.221249999999,
      "d": 277.7777499999993,
      "v": 100
    },
    {
      "midi": 75,
      "hit": false,
      "t": 9999.998999999998,
      "d": 277.7777499999993,
      "v": 100
    },
    {
      "midi": 63,
      "hit": false,
      "t": 9999.999000000003,
      "d": 555.5555000000004,
      "v": 100
    },
    {
      "midi": 77,
      "hit": false,
      "t": 10277.776749999997,
      "d": 277.7777499999993,
      "v": 100
    },
    {
      "midi": 75,
      "hit": false,
      "t": 10555.554499999997,
      "d": 1666.6664999999994,
      "v": 100
    },
    {
      "midi": 55,
      "hit": false,
      "t": 10555.554500000004,
      "d": 555.5555000000004,
      "v": 100
    },
    {
      "midi": 63,
      "hit": false,
      "t": 11111.110000000004,
      "d": 555.5555000000004,
      "v": 100
    },
    {
      "midi": 55,
      "hit": false,
      "t": 11666.665500000005,
      "d": 555.5555000000004,
      "v": 100
    },
    {
      "midi": 41,
      "hit": false,
      "t": 12222.221000000005,
      "d": 555.5555000000004,
      "v": 100
    },
    {
      "midi": 75,
      "hit": false,
      "t": 12499.998749999995,
      "d": 277.7777499999993,
      "v": 100
    },
    {
      "midi": 75,
      "hit": false,
      "t": 12777.776499999994,
      "d": 277.7777499999993,
      "v": 100
    },
    {
      "midi": 48,
      "hit": false,
      "t": 12777.776500000005,
      "d": 555.5555000000004,
      "v": 100
    },
    {
      "midi": 77,
      "hit": false,
      "t": 13055.554249999994,
      "d": 277.7777499999993,
      "v": 100
    },
    {
      "midi": 77,
      "hit": false,
      "t": 13333.331999999993,
      "d": 277.7777499999993,
      "v": 100
    },
    {
      "midi": 57,
      "hit": false,
      "t": 13333.332000000006,
      "d": 555.5555000000004,
      "v": 100
    },
    {
      "midi": 79,
      "hit": false,
      "t": 13611.109749999992,
      "d": 277.7777499999993,
      "v": 100
    },
    {
      "midi": 79,
      "hit": false,
      "t": 13888.887499999992,
      "d": 277.7777499999993,
      "v": 100
    },
    {
      "midi": 48,
      "hit": false,
      "t": 13888.887500000006,
      "d": 555.5555000000004,
      "v": 100
    },
    {
      "midi": 81,
      "hit": false,
      "t": 14166.665249999991,
      "d": 277.7777499999993,
      "v": 100
    },
    {
      "midi": 81,
      "hit": false,
      "t": 14444.44299999999,
      "d": 277.7777499999993,
      "v": 100
    },
    {
      "midi": 57,
      "hit": false,
      "t": 14444.443000000007,
      "d": 555.5555000000004,
      "v": 100
    },
    {
      "midi": 77,
      "hit": false,
      "t": 14722.22074999999,
      "d": 277.7777499999993,
      "v": 100
    },
    {
      "midi": 77,
      "hit": false,
      "t": 14999.998499999989,
      "d": 277.7777499999993,
      "v": 100
    },
    {
      "midi": 48,
      "hit": false,
      "t": 14999.998500000007,
      "d": 555.5555000000004,
      "v": 100
    },
    {
      "midi": 72,
      "hit": false,
      "t": 15277.776249999988,
      "d": 277.7777499999993,
      "v": 100
    },
    {
      "midi": 72,
      "hit": false,
      "t": 15555.553999999987,
      "d": 277.7777499999993,
      "v": 100
    },
    {
      "midi": 57,
      "hit": false,
      "t": 15555.554000000007,
      "d": 555.5555000000004,
      "v": 100
    },
    {
      "midi": 75,
      "hit": false,
      "t": 15833.331749999987,
      "d": 277.7777499999993,
      "v": 100
    },
    {
      "midi": 75,
      "hit": false,
      "t": 16111.109499999986,
      "d": 277.7777499999993,
      "v": 100
    },
    {
      "midi": 46,
      "hit": false,
      "t": 16111.109500000008,
      "d": 555.5555000000004,
      "v": 100
    },
    {
      "midi": 74,
      "hit": false,
      "t": 16388.887249999985,
      "d": 277.7777500000011,
      "v": 100
    },
    {
      "midi": 74,
      "hit": false,
      "t": 16666.664999999986,
      "d": 277.7777500000011,
      "v": 100
    },
    {
      "midi": 53,
      "hit": false,
      "t": 16666.665000000008,
      "d": 555.5554999999986,
      "v": 100
    },
    {
      "midi": 72,
      "hit": false,
      "t": 16944.442749999987,
      "d": 277.7777500000011,
      "v": 100
    },
    {
      "midi": 72,
      "hit": false,
      "t": 17222.22049999999,
      "d": 277.7777500000011,
      "v": 100
    },
    {
      "midi": 62,
      "hit": false,
      "t": 17222.220500000007,
      "d": 555.5554999999986,
      "v": 100
    },
    {
      "midi": 75,
      "hit": false,
      "t": 17499.99824999999,
      "d": 277.7777500000011,
      "v": 100
    },
    {
      "midi": 74,
      "hit": false,
      "t": 17777.77599999999,
      "d": 555.5554999999986,
      "v": 100
    },
    {
      "midi": 50,
      "hit": false,
      "t": 17777.776000000005,
      "d": 555.5554999999986,
      "v": 100
    },
    {
      "midi": 86,
      "hit": false,
      "t": 18333.33149999999,
      "d": 138.88887500000055,
      "v": 100
    },
    {
      "midi": 66,
      "hit": false,
      "t": 18333.331500000004,
      "d": 1111.1110000000008,
      "v": 100
    },
    {
      "midi": 98,
      "hit": false,
      "t": 18472.22037499999,
      "d": 833.3332499999997,
      "v": 100
    },
    {
      "midi": 74,
      "hit": false,
      "t": 19444.44249999999,
      "d": 555.5554999999986,
      "v": 100
    },
    {
      "midi": 43,
      "hit": false,
      "t": 19444.442500000005,
      "d": 555.5554999999986,
      "v": 100
    },
    {
      "midi": 67,
      "hit": false,
      "t": 19999.99799999999,
      "d": 277.7777500000011,
      "v": 100
    },
    {
      "midi": 50,
      "hit": false,
      "t": 19999.998000000003,
      "d": 555.5554999999986,
      "v": 100
    },
    {
      "midi": 70,
      "hit": false,
      "t": 20277.77574999999,
      "d": 277.7777500000011,
      "v": 100
    },
    {
      "midi": 74,
      "hit": false,
      "t": 20555.55349999999,
      "d": 277.7777500000011,
      "v": 100
    },
    {
      "midi": 58,
      "hit": false,
      "t": 20555.5535,
      "d": 555.5554999999986,
      "v": 100
    },
    {
      "midi": 72,
      "hit": false,
      "t": 20833.331249999992,
      "d": 277.7777500000011,
      "v": 100
    },
    {
      "midi": 74,
      "hit": false,
      "t": 21111.108999999993,
      "d": 555.5554999999986,
      "v": 100
    },
    {
      "midi": 50,
      "hit": false,
      "t": 21111.109,
      "d": 555.5554999999986,
      "v": 100
    },
    {
      "midi": 67,
      "hit": false,
      "t": 21666.66449999999,
      "d": 277.7777500000011,
      "v": 100
    },
    {
      "midi": 58,
      "hit": false,
      "t": 21666.6645,
      "d": 555.5554999999986,
      "v": 100
    },
    {
      "midi": 70,
      "hit": false,
      "t": 21944.442249999993,
      "d": 277.7777500000011,
      "v": 100
    },
    {
      "midi": 74,
      "hit": false,
      "t": 22222.219999999994,
      "d": 277.7777500000011,
      "v": 100
    },
    {
      "midi": 50,
      "hit": false,
      "t": 22222.219999999998,
      "d": 555.5554999999986,
      "v": 100
    },
    {
      "midi": 72,
      "hit": false,
      "t": 22499.997749999995,
      "d": 277.7777500000011,
      "v": 100
    },
    {
      "midi": 74,
      "hit": false,
      "t": 22777.775499999996,
      "d": 555.5554999999986,
      "v": 100
    },
    {
      "midi": 43,
      "hit": false,
      "t": 22777.775499999996,
      "d": 555.5554999999986,
      "v": 100
    },
    {
      "midi": 67,
      "hit": false,
      "t": 23333.330999999995,
      "d": 277.7777500000011,
      "v": 100
    },
    {
      "midi": 50,
      "hit": false,
      "t": 23333.330999999995,
      "d": 555.5554999999986,
      "v": 100
    },
    {
      "midi": 70,
      "hit": false,
      "t": 23611.108749999996,
      "d": 277.7777500000011,
      "v": 100
    },
    {
      "midi": 58,
      "hit": false,
      "t": 23888.886499999993,
      "d": 555.5554999999986,
      "v": 100
    },
    {
      "midi": 75,
      "hit": false,
      "t": 23888.886499999997,
      "d": 277.7777500000011,
      "v": 100
    },
    {
      "midi": 74,
      "hit": false,
      "t": 24166.664249999998,
      "d": 277.7777500000011,
      "v": 100
    },
    {
      "midi": 48,
      "hit": false,
      "t": 24444.441999999992,
      "d": 555.5554999999986,
      "v": 100
    },
    {
      "midi": 75,
      "hit": false,
      "t": 24444.442,
      "d": 555.5554999999986,
      "v": 100
    },
    {
      "midi": 55,
      "hit": false,
      "t": 24999.99749999999,
      "d": 555.5554999999986,
      "v": 100
    },
    {
      "midi": 67,
      "hit": false,
      "t": 24999.997499999998,
      "d": 277.7777500000011,
      "v": 100
    },
    {
      "midi": 70,
      "hit": false,
      "t": 25277.77525,
      "d": 277.7777500000011,
      "v": 100
    },
    {
      "midi": 63,
      "hit": false,
      "t": 25555.55299999999,
      "d": 555.5554999999986,
      "v": 100
    },
    {
      "midi": 75,
      "hit": false,
      "t": 25555.553,
      "d": 277.7777500000011,
      "v": 100
    },
    {
      "midi": 74,
      "hit": false,
      "t": 25833.33075,
      "d": 277.7777500000011,
      "v": 100
    },
    {
      "midi": 55,
      "hit": false,
      "t": 26111.108499999988,
      "d": 555.5554999999986,
      "v": 100
    },
    {
      "midi": 75,
      "hit": false,
      "t": 26111.108500000002,
      "d": 555.5554999999986,
      "v": 100
    },
    {
      "midi": 63,
      "hit": false,
      "t": 26666.663999999986,
      "d": 555.5554999999986,
      "v": 100
    },
    {
      "midi": 75,
      "hit": false,
      "t": 26666.664,
      "d": 277.7777500000011,
      "v": 100
    },
    {
      "midi": 74,
      "hit": false,
      "t": 26944.44175,
      "d": 277.7777500000011,
      "v": 100
    },
    {
      "midi": 55,
      "hit": false,
      "t": 27222.219499999985,
      "d": 555.5554999999986,
      "v": 100
    },
    {
      "midi": 75,
      "hit": false,
      "t": 27222.219500000003,
      "d": 277.7777500000011,
      "v": 100
    },
    {
      "midi": 76,
      "hit": false,
      "t": 27499.997250000004,
      "d": 277.7777500000011,
      "v": 100
    },
    {
      "midi": 41,
      "hit": false,
      "t": 27777.774999999983,
      "d": 555.5554999999986,
      "v": 100
    },
    {
      "midi": 77,
      "hit": false,
      "t": 27777.775000000005,
      "d": 555.5554999999986,
      "v": 100
    },
    {
      "midi": 48,
      "hit": false,
      "t": 28333.330499999982,
      "d": 555.5554999999986,
      "v": 100
    },
    {
      "midi": 77,
      "hit": false,
      "t": 28333.330500000004,
      "d": 277.7777500000011,
      "v": 100
    },
    {
      "midi": 79,
      "hit": false,
      "t": 28611.108250000005,
      "d": 277.7777500000011,
      "v": 100
    },
    {
      "midi": 57,
      "hit": false,
      "t": 28888.88599999998,
      "d": 555.5554999999986,
      "v": 100
    },
    {
      "midi": 77,
      "hit": false,
      "t": 28888.886000000006,
      "d": 277.7777500000011,
      "v": 100
    },
    {
      "midi": 79,
      "hit": false,
      "t": 29166.663750000007,
      "d": 277.7777500000011,
      "v": 100
    },
    {
      "midi": 46,
      "hit": false,
      "t": 29444.44149999998,
      "d": 555.5554999999986,
      "v": 100
    },
    {
      "midi": 74,
      "hit": false,
      "t": 29444.441500000008,
      "d": 1666.6664999999994,
      "v": 100
    },
    {
      "midi": 58,
      "hit": false,
      "t": 29999.996999999978,
      "d": 555.5554999999986,
      "v": 100
    },
    {
      "midi": 45,
      "hit": false,
      "t": 30555.552499999976,
      "d": 555.5554999999986,
      "v": 100
    },
    {
      "midi": 57,
      "hit": false,
      "t": 30555.552499999976,
      "d": 555.5554999999986,
      "v": 100
    },
    {
      "midi": 43,
      "hit": false,
      "t": 31111.107999999975,
      "d": 555.5554999999986,
      "v": 100
    },
    {
      "midi": 58,
      "hit": false,
      "t": 31111.107999999975,
      "d": 555.5554999999986,
      "v": 100
    },
    {
      "midi": 86,
      "hit": false,
      "t": 31111.108000000007,
      "d": 555.5554999999986,
      "v": 100
    },
    {
      "midi": 50,
      "hit": false,
      "t": 31666.663499999973,
      "d": 555.5554999999986,
      "v": 100
    },
    {
      "midi": 79,
      "hit": false,
      "t": 31666.663500000006,
      "d": 277.7777500000011,
      "v": 100
    },
    {
      "midi": 82,
      "hit": false,
      "t": 31944.441250000007,
      "d": 277.7777500000011,
      "v": 100
    },
    {
      "midi": 58,
      "hit": false,
      "t": 32222.218999999972,
      "d": 555.5554999999986,
      "v": 100
    },
    {
      "midi": 86,
      "hit": false,
      "t": 32222.21900000001,
      "d": 277.7777500000011,
      "v": 100
    },
    {
      "midi": 84,
      "hit": false,
      "t": 32499.99675000001,
      "d": 277.77774999999747,
      "v": 100
    },
    {
      "midi": 50,
      "hit": false,
      "t": 32777.77449999997,
      "d": 555.5555000000022,
      "v": 100
    },
    {
      "midi": 86,
      "hit": false,
      "t": 32777.77450000001,
      "d": 555.5555000000022,
      "v": 100
    },
    {
      "midi": 58,
      "hit": false,
      "t": 33333.32999999997,
      "d": 555.5555000000022,
      "v": 100
    },
    {
      "midi": 79,
      "hit": false,
      "t": 33333.33000000001,
      "d": 277.7777500000011,
      "v": 100
    },
    {
      "midi": 82,
      "hit": false,
      "t": 33611.10775000001,
      "d": 277.7777500000011,
      "v": 100
    },
    {
      "midi": 50,
      "hit": false,
      "t": 33888.885499999975,
      "d": 555.5555000000022,
      "v": 100
    },
    {
      "midi": 86,
      "hit": false,
      "t": 33888.88550000001,
      "d": 277.7777500000011,
      "v": 100
    },
    {
      "midi": 84,
      "hit": false,
      "t": 34166.66325000001,
      "d": 277.7777500000011,
      "v": 100
    },
    {
      "midi": 43,
      "hit": false,
      "t": 34444.44099999998,
      "d": 555.5555000000022,
      "v": 100
    },
    {
      "midi": 86,
      "hit": false,
      "t": 34444.44100000001,
      "d": 555.5555000000022,
      "v": 100
    },
    {
      "midi": 50,
      "hit": false,
      "t": 34999.99649999998,
      "d": 555.5555000000022,
      "v": 100
    },
    {
      "midi": 79,
      "hit": false,
      "t": 34999.996500000016,
      "d": 277.7777500000011,
      "v": 100
    },
    {
      "midi": 82,
      "hit": false,
      "t": 35277.77425000002,
      "d": 277.7777500000011,
      "v": 100
    },
    {
      "midi": 58,
      "hit": false,
      "t": 35555.55199999998,
      "d": 555.5555000000022,
      "v": 100
    },
    {
      "midi": 87,
      "hit": false,
      "t": 35555.55200000002,
      "d": 277.7777500000011,
      "v": 100
    },
    {
      "midi": 86,
      "hit": false,
      "t": 35833.32975000002,
      "d": 277.7777500000011,
      "v": 100
    },
    {
      "midi": 48,
      "hit": false,
      "t": 36111.107499999984,
      "d": 555.5555000000022,
      "v": 100
    },
    {
      "midi": 87,
      "hit": false,
      "t": 36111.10750000002,
      "d": 555.5555000000022,
      "v": 100
    },
    {
      "midi": 55,
      "hit": false,
      "t": 36666.662999999986,
      "d": 555.5555000000022,
      "v": 100
    },
    {
      "midi": 79,
      "hit": false,
      "t": 36666.66300000002,
      "d": 277.7777500000011,
      "v": 100
    },
    {
      "midi": 82,
      "hit": false,
      "t": 36944.44075000002,
      "d": 277.7777500000011,
      "v": 100
    },
    {
      "midi": 63,
      "hit": false,
      "t": 37222.21849999999,
      "d": 555.5555000000022,
      "v": 100
    },
    {
      "midi": 87,
      "hit": false,
      "t": 37222.218500000025,
      "d": 277.7777500000011,
      "v": 100
    },
    {
      "midi": 86,
      "hit": false,
      "t": 37499.996250000026,
      "d": 277.7777500000011,
      "v": 100
    },
    {
      "midi": 55,
      "hit": false,
      "t": 37777.77399999999,
      "d": 555.5555000000022,
      "v": 100
    },
    {
      "midi": 87,
      "hit": false,
      "t": 37777.77400000003,
      "d": 555.5555000000022,
      "v": 100
    },
    {
      "midi": 63,
      "hit": false,
      "t": 38333.32949999999,
      "d": 555.5555000000022,
      "v": 100
    },
    {
      "midi": 87,
      "hit": false,
      "t": 38333.32950000003,
      "d": 277.7777500000011,
      "v": 100
    },
    {
      "midi": 86,
      "hit": false,
      "t": 38611.10725000003,
      "d": 277.7777500000011,
      "v": 100
    },
    {
      "midi": 55,
      "hit": false,
      "t": 38888.884999999995,
      "d": 555.5555000000022,
      "v": 100
    },
    {
      "midi": 87,
      "hit": false,
      "t": 38888.88500000003,
      "d": 277.7777500000011,
      "v": 100
    },
    {
      "midi": 88,
      "hit": false,
      "t": 39166.66275000003,
      "d": 277.7777500000011,
      "v": 100
    },
    {
      "midi": 41,
      "hit": false,
      "t": 39444.4405,
      "d": 555.5555000000022,
      "v": 100
    },
    {
      "midi": 89,
      "hit": false,
      "t": 39444.44050000003,
      "d": 555.5555000000022,
      "v": 100
    },
    {
      "midi": 48,
      "hit": false,
      "t": 39999.996,
      "d": 555.5555000000022,
      "v": 100
    },
    {
      "midi": 89,
      "hit": false,
      "t": 39999.996000000036,
      "d": 277.7777500000011,
      "v": 100
    },
    {
      "midi": 91,
      "hit": false,
      "t": 40277.77375000004,
      "d": 277.7777500000011,
      "v": 100
    },
    {
      "midi": 57,
      "hit": false,
      "t": 40555.5515,
      "d": 555.5555000000022,
      "v": 100
    },
    {
      "midi": 89,
      "hit": false,
      "t": 40555.55150000004,
      "d": 277.7777500000011,
      "v": 100
    },
    {
      "midi": 91,
      "hit": false,
      "t": 40833.32925000004,
      "d": 277.7777500000011,
      "v": 100
    },
    {
      "midi": 46,
      "hit": false,
      "t": 41111.107,
      "d": 555.5555000000022,
      "v": 100
    },
    {
      "midi": 86,
      "hit": false,
      "t": 41111.10700000004,
      "d": 1666.6664999999994,
      "v": 100
    },
    {
      "midi": 46,
      "hit": false,
      "t": 41666.662500000006,
      "d": 555.5555000000022,
      "v": 100
    },
    {
      "midi": 58,
      "hit": false,
      "t": 41666.662500000006,
      "d": 555.5555000000022,
      "v": 100
    },
    {
      "midi": 45,
      "hit": false,
      "t": 42222.21800000001,
      "d": 555.5555000000022,
      "v": 100
    },
    {
      "midi": 57,
      "hit": false,
      "t": 42222.21800000001,
      "d": 555.5555000000022,
      "v": 100
    },
    {
      "midi": 43,
      "hit": false,
      "t": 42777.77350000001,
      "d": 555.5555000000022,
      "v": 100
    },
    {
      "midi": 55,
      "hit": false,
      "t": 42777.77350000001,
      "d": 555.5555000000022,
      "v": 100
    },
    {
      "midi": 82,
      "hit": false,
      "t": 42777.77350000004,
      "d": 833.3332500000033,
      "v": 100
    },
    {
      "midi": 50,
      "hit": false,
      "t": 43333.32900000001,
      "d": 555.5555000000022,
      "v": 100
    },
    {
      "midi": 74,
      "hit": false,
      "t": 43611.10675000004,
      "d": 277.7777500000011,
      "v": 100
    },
    {
      "midi": 58,
      "hit": false,
      "t": 43888.884500000015,
      "d": 555.5555000000022,
      "v": 100
    },
    {
      "midi": 74,
      "hit": false,
      "t": 43888.884500000044,
      "d": 277.7777500000011,
      "v": 100
    },
    {
      "midi": 75,
      "hit": false,
      "t": 44166.662250000045,
      "d": 277.7777500000011,
      "v": 100
    },
    {
      "midi": 48,
      "hit": false,
      "t": 44444.44000000002,
      "d": 555.5555000000022,
      "v": 100
    },
    {
      "midi": 75,
      "hit": false,
      "t": 44444.440000000046,
      "d": 833.3332500000033,
      "v": 100
    },
    {
      "midi": 55,
      "hit": false,
      "t": 44999.99550000002,
      "d": 555.5555000000022,
      "v": 100
    },
    {
      "midi": 72,
      "hit": false,
      "t": 45277.77325000005,
      "d": 277.7777500000011,
      "v": 100
    },
    {
      "midi": 63,
      "hit": false,
      "t": 45555.55100000002,
      "d": 555.5555000000022,
      "v": 100
    },
    {
      "midi": 72,
      "hit": false,
      "t": 45555.55100000005,
      "d": 277.7777500000011,
      "v": 100
    },
    {
      "midi": 81,
      "hit": false,
      "t": 45833.32875000005,
      "d": 277.7777500000011,
      "v": 100
    },
    {
      "midi": 41,
      "hit": false,
      "t": 46111.10650000002,
      "d": 555.5555000000022,
      "v": 100
    },
    {
      "midi": 81,
      "hit": false,
      "t": 46111.10650000005,
      "d": 833.3332500000033,
      "v": 100
    },
    {
      "midi": 48,
      "hit": false,
      "t": 46666.662000000026,
      "d": 555.5555000000022,
      "v": 100
    },
    {
      "midi": 72,
      "hit": false,
      "t": 46944.439750000056,
      "d": 277.7777500000011,
      "v": 100
    },
    {
      "midi": 57,
      "hit": false,
      "t": 47222.21750000003,
      "d": 555.5555000000022,
      "v": 100
    },
    {
      "midi": 72,
      "hit": false,
      "t": 47222.21750000006,
      "d": 277.7777500000011,
      "v": 100
    },
    {
      "midi": 74,
      "hit": false,
      "t": 47499.99525000006,
      "d": 277.7777500000011,
      "v": 100
    },
    {
      "midi": 46,
      "hit": false,
      "t": 47777.77300000003,
      "d": 555.5555000000022,
      "v": 100
    },
    {
      "midi": 74,
      "hit": false,
      "t": 47777.77300000006,
      "d": 555.5555000000022,
      "v": 100
    },
    {
      "midi": 58,
      "hit": false,
      "t": 48333.32850000003,
      "d": 555.5555000000022,
      "v": 100
    },
    {
      "midi": 70,
      "hit": false,
      "t": 48333.32850000006,
      "d": 277.7777500000011,
      "v": 100
    },
    {
      "midi": 70,
      "hit": false,
      "t": 48611.10625000006,
      "d": 277.7777500000011,
      "v": 100
    },
    {
      "midi": 45,
      "hit": false,
      "t": 48888.884000000035,
      "d": 555.5555000000022,
      "v": 100
    },
    {
      "midi": 57,
      "hit": false,
      "t": 48888.884000000035,
      "d": 555.5555000000022,
      "v": 100
    },
    {
      "midi": 79,
      "hit": false,
      "t": 48888.884000000064,
      "d": 277.7777500000011,
      "v": 100
    },
    {
      "midi": 77,
      "hit": false,
      "t": 49166.661750000065,
      "d": 277.7777500000011,
      "v": 100
    },
    {
      "midi": 43,
      "hit": false,
      "t": 49444.43950000004,
      "d": 555.5555000000022,
      "v": 100
    },
    {
      "midi": 79,
      "hit": false,
      "t": 49444.439500000066,
      "d": 833.3332500000033,
      "v": 100
    },
    {
      "midi": 50,
      "hit": false,
      "t": 49999.99500000004,
      "d": 555.5555000000022,
      "v": 100
    },
    {
      "midi": 70,
      "hit": false,
      "t": 50277.77275000007,
      "d": 277.7777500000011,
      "v": 100
    },
    {
      "midi": 58,
      "hit": false,
      "t": 50555.55050000004,
      "d": 555.5555000000022,
      "v": 100
    },
    {
      "midi": 70,
      "hit": false,
      "t": 50555.55050000007,
      "d": 277.7777500000011,
      "v": 100
    },
    {
      "midi": 72,
      "hit": false,
      "t": 50833.32825000007,
      "d": 277.7777500000011,
      "v": 100
    },
    {
      "midi": 45,
      "hit": false,
      "t": 51111.10600000004,
      "d": 555.5555000000022,
      "v": 100
    },
    {
      "midi": 72,
      "hit": false,
      "t": 51111.10600000007,
      "d": 833.3332500000033,
      "v": 100
    },
    {
      "midi": 51,
      "hit": false,
      "t": 51666.661500000046,
      "d": 555.5555000000022,
      "v": 100
    },
    {
      "midi": 69,
      "hit": false,
      "t": 51944.439250000076,
      "d": 277.7777500000011,
      "v": 100
    },
    {
      "midi": 60,
      "hit": false,
      "t": 52222.21700000005,
      "d": 555.5555000000022,
      "v": 100
    },
    {
      "midi": 74,
      "hit": false,
      "t": 52222.21700000008,
      "d": 277.7777500000011,
      "v": 100
    },
    {
      "midi": 72,
      "hit": false,
      "t": 52499.99475000008,
      "d": 277.7777500000011,
      "v": 100
    },
    {
      "midi": 50,
      "hit": false,
      "t": 52777.77250000005,
      "d": 555.5555000000022,
      "v": 100
    },
    {
      "midi": 74,
      "hit": false,
      "t": 52777.77250000008,
      "d": 1666.6664999999994,
      "v": 100
    },
    {
      "midi": 40,
      "hit": false,
      "t": 53333.32800000005,
      "d": 555.5555000000022,
      "v": 100
    },
    {
      "midi": 52,
      "hit": false,
      "t": 53333.32800000005,
      "d": 555.5555000000022,
      "v": 100
    },
    {
      "midi": 42,
      "hit": false,
      "t": 53888.883500000054,
      "d": 555.5555000000022,
      "v": 100
    },
    {
      "midi": 54,
      "hit": false,
      "t": 53888.883500000054,
      "d": 555.5555000000022,
      "v": 100
    },
    {
      "midi": 43,
      "hit": false,
      "t": 54444.43900000006,
      "d": 555.5555000000022,
      "v": 100
    },
    {
      "midi": 55,
      "hit": false,
      "t": 54444.43900000006,
      "d": 555.5555000000022,
      "v": 100
    },
    {
      "midi": 82,
      "hit": false,
      "t": 54444.43900000008,
      "d": 833.3332500000033,
      "v": 100
    },
    {
      "midi": 50,
      "hit": false,
      "t": 54999.99450000006,
      "d": 555.5555000000022,
      "v": 100
    },
    {
      "midi": 82,
      "hit": false,
      "t": 55277.77225000008,
      "d": 277.7777500000011,
      "v": 100
    },
    {
      "midi": 58,
      "hit": false,
      "t": 55555.55000000006,
      "d": 555.5555000000022,
      "v": 100
    },
    {
      "midi": 82,
      "hit": false,
      "t": 55555.55000000008,
      "d": 277.7777500000011,
      "v": 100
    },
    {
      "midi": 84,
      "hit": false,
      "t": 55833.327750000084,
      "d": 277.7777500000011,
      "v": 100
    },
    {
      "midi": 48,
      "hit": false,
      "t": 56111.10550000006,
      "d": 555.5555000000022,
      "v": 100
    },
    {
      "midi": 84,
      "hit": false,
      "t": 56111.105500000085,
      "d": 833.3332500000033,
      "v": 100
    },
    {
      "midi": 55,
      "hit": false,
      "t": 56666.661000000066,
      "d": 555.5555000000022,
      "v": 100
    },
    {
      "midi": 82,
      "hit": false,
      "t": 56944.43875000009,
      "d": 277.7777500000011,
      "v": 100
    },
    {
      "midi": 63,
      "hit": false,
      "t": 57222.21650000007,
      "d": 555.5555000000022,
      "v": 100
    },
    {
      "midi": 81,
      "hit": false,
      "t": 57222.21650000009,
      "d": 277.7777500000011,
      "v": 100
    },
    {
      "midi": 79,
      "hit": false,
      "t": 57499.99425000009,
      "d": 277.7777500000011,
      "v": 100
    },
    {
      "midi": 41,
      "hit": false,
      "t": 57777.77200000007,
      "d": 555.5555000000022,
      "v": 100
    },
    {
      "midi": 77,
      "hit": false,
      "t": 57777.77200000009,
      "d": 833.3332500000033,
      "v": 100
    },
    {
      "midi": 48,
      "hit": false,
      "t": 58333.32750000007,
      "d": 555.5555000000022,
      "v": 100
    },
    {
      "midi": 77,
      "hit": false,
      "t": 58611.105250000095,
      "d": 277.7777500000011,
      "v": 100
    },
    {
      "midi": 57,
      "hit": false,
      "t": 58888.883000000074,
      "d": 555.5555000000022,
      "v": 100
    },
    {
      "midi": 79,
      "hit": false,
      "t": 58888.883000000096,
      "d": 277.7777500000011,
      "v": 100
    },
    {
      "midi": 77,
      "hit": false,
      "t": 59166.6607500001,
      "d": 277.7777500000011,
      "v": 100
    },
    {
      "midi": 46,
      "hit": false,
      "t": 59444.43850000008,
      "d": 555.5555000000022,
      "v": 100
    },
    {
      "midi": 74,
      "hit": false,
      "t": 59444.4385000001,
      "d": 1666.6664999999994,
      "v": 100
    },
    {
      "midi": 58,
      "hit": false,
      "t": 59999.99400000008,
      "d": 555.5555000000022,
      "v": 100
    },
    {
      "midi": 45,
      "hit": false,
      "t": 60555.54950000008,
      "d": 555.5555000000022,
      "v": 100
    },
    {
      "midi": 57,
      "hit": false,
      "t": 60555.54950000008,
      "d": 555.5555000000022,
      "v": 100
    },
    {
      "midi": 43,
      "hit": false,
      "t": 61111.10500000008,
      "d": 555.5555000000022,
      "v": 100
    },
    {
      "midi": 55,
      "hit": false,
      "t": 61111.10500000008,
      "d": 555.5555000000022,
      "v": 100
    },
    {
      "midi": 82,
      "hit": false,
      "t": 61111.1050000001,
      "d": 555.5555000000022,
      "v": 100
    },
    {
      "midi": 50,
      "hit": false,
      "t": 61666.660500000085,
      "d": 555.5555000000022,
      "v": 100
    },
    {
      "midi": 82,
      "hit": false,
      "t": 61666.6605000001,
      "d": 277.7777500000011,
      "v": 100
    },
    {
      "midi": 82,
      "hit": false,
      "t": 61944.4382500001,
      "d": 277.7777500000011,
      "v": 100
    },
    {
      "midi": 58,
      "hit": false,
      "t": 62222.21600000009,
      "d": 555.5555000000022,
      "v": 100
    },
    {
      "midi": 82,
      "hit": false,
      "t": 62222.2160000001,
      "d": 277.7777500000011,
      "v": 100
    },
    {
      "midi": 84,
      "hit": false,
      "t": 62499.9937500001,
      "d": 277.7777500000011,
      "v": 100
    },
    {
      "midi": 48,
      "hit": false,
      "t": 62777.77150000009,
      "d": 555.5555000000022,
      "v": 100
    },
    {
      "midi": 84,
      "hit": false,
      "t": 62777.771500000104,
      "d": 833.3332500000033,
      "v": 100
    },
    {
      "midi": 55,
      "hit": false,
      "t": 63333.32700000009,
      "d": 555.5555000000022,
      "v": 100
    },
    {
      "midi": 82,
      "hit": false,
      "t": 63611.10475000011,
      "d": 277.7777500000011,
      "v": 100
    },
    {
      "midi": 63,
      "hit": false,
      "t": 63888.882500000094,
      "d": 555.5555000000022,
      "v": 100
    },
    {
      "midi": 81,
      "hit": false,
      "t": 63888.88250000011,
      "d": 277.7777500000011,
      "v": 100
    },
    {
      "midi": 79,
      "hit": false,
      "t": 64166.66025000011,
      "d": 277.7777500000011,
      "v": 100
    },
    {
      "midi": 41,
      "hit": false,
      "t": 64444.4380000001,
      "d": 555.5555000000022,
      "v": 100
    },
    {
      "midi": 77,
      "hit": false,
      "t": 64444.43800000011,
      "d": 833.3332500000033,
      "v": 100
    },
    {
      "midi": 48,
      "hit": false,
      "t": 64999.9935000001,
      "d": 555.5555000000022,
      "v": 100
    },
    {
      "midi": 77,
      "hit": false,
      "t": 65277.771250000114,
      "d": 277.7777500000011,
      "v": 100
    },
    {
      "midi": 57,
      "hit": false,
      "t": 65555.5490000001,
      "d": 555.5555000000022,
      "v": 100
    },
    {
      "midi": 79,
      "hit": false,
      "t": 65555.54900000012,
      "d": 277.77774999999383,
      "v": 100
    },
    {
      "midi": 77,
      "hit": false,
      "t": 65833.32675000011,
      "d": 277.77774999999383,
      "v": 100
    },
    {
      "midi": 79,
      "hit": false,
      "t": 66111.1045000001,
      "d": 1666.6665000000066,
      "v": 100
    },
    {
      "midi": 43,
      "hit": false,
      "t": 66111.1045000001,
      "d": 555.5555000000022,
      "v": 100
    },
    {
      "midi": 50,
      "hit": false,
      "t": 66666.6600000001,
      "d": 555.5555000000022,
      "v": 100
    },
    {
      "midi": 58,
      "hit": false,
      "t": 67222.21550000011,
      "d": 555.5555000000022,
      "v": 100
    },
    {
      "midi": 82,
      "hit": false,
      "t": 67777.77100000011,
      "d": 555.5555000000022,
      "v": 100
    },
    {
      "midi": 94,
      "hit": false,
      "t": 67777.77100000011,
      "d": 555.5555000000022,
      "v": 100
    },
    {
      "midi": 55,
      "hit": false,
      "t": 67777.77100000011,
      "d": 555.5555000000022,
      "v": 100
    },
    {
      "midi": 82,
      "hit": false,
      "t": 68333.32650000011,
      "d": 277.77774999999383,
      "v": 100
    },
    {
      "midi": 94,
      "hit": false,
      "t": 68333.32650000011,
      "d": 277.77774999999383,
      "v": 100
    },
    {
      "midi": 62,
      "hit": false,
      "t": 68333.32650000011,
      "d": 555.5555000000022,
      "v": 100
    },
    {
      "midi": 82,
      "hit": false,
      "t": 68611.1042500001,
      "d": 277.77774999999383,
      "v": 100
    },
    {
      "midi": 94,
      "hit": false,
      "t": 68611.1042500001,
      "d": 277.77774999999383,
      "v": 100
    },
    {
      "midi": 82,
      "hit": false,
      "t": 68888.8820000001,
      "d": 277.77774999999383,
      "v": 100
    },
    {
      "midi": 94,
      "hit": false,
      "t": 68888.8820000001,
      "d": 277.77774999999383,
      "v": 100
    },
    {
      "midi": 70,
      "hit": false,
      "t": 68888.88200000011,
      "d": 555.5555000000022,
      "v": 100
    },
    {
      "midi": 84,
      "hit": false,
      "t": 69166.6597500001,
      "d": 277.77774999999383,
      "v": 100
    },
    {
      "midi": 96,
      "hit": false,
      "t": 69166.6597500001,
      "d": 277.77774999999383,
      "v": 100
    },
    {
      "midi": 84,
      "hit": false,
      "t": 69444.43750000009,
      "d": 833.333249999996,
      "v": 100
    },
    {
      "midi": 96,
      "hit": false,
      "t": 69444.43750000009,
      "d": 833.333249999996,
      "v": 100
    },
    {
      "midi": 60,
      "hit": false,
      "t": 69444.43750000012,
      "d": 555.5555000000022,
      "v": 100
    },
    {
      "midi": 67,
      "hit": false,
      "t": 69999.99300000012,
      "d": 555.5555000000022,
      "v": 100
    },
    {
      "midi": 82,
      "hit": false,
      "t": 70277.77075000008,
      "d": 277.77774999999383,
      "v": 100
    },
    {
      "midi": 94,
      "hit": false,
      "t": 70277.77075000008,
      "d": 277.77774999999383,
      "v": 100
    },
    {
      "midi": 81,
      "hit": false,
      "t": 70555.54850000008,
      "d": 277.77774999999383,
      "v": 100
    },
    {
      "midi": 93,
      "hit": false,
      "t": 70555.54850000008,
      "d": 277.77774999999383,
      "v": 100
    },
    {
      "midi": 75,
      "hit": false,
      "t": 70555.54850000012,
      "d": 555.5555000000022,
      "v": 100
    },
    {
      "midi": 79,
      "hit": false,
      "t": 70833.32625000007,
      "d": 277.77774999999383,
      "v": 100
    },
    {
      "midi": 91,
      "hit": false,
      "t": 70833.32625000007,
      "d": 277.77774999999383,
      "v": 100
    },
    {
      "midi": 77,
      "hit": false,
      "t": 71111.10400000006,
      "d": 833.333249999996,
      "v": 100
    },
    {
      "midi": 89,
      "hit": false,
      "t": 71111.10400000006,
      "d": 833.333249999996,
      "v": 100
    },
    {
      "midi": 53,
      "hit": false,
      "t": 71111.10400000012,
      "d": 555.5555000000022,
      "v": 100
    },
    {
      "midi": 60,
      "hit": false,
      "t": 71666.65950000013,
      "d": 555.5555000000022,
      "v": 100
    },
    {
      "midi": 77,
      "hit": false,
      "t": 71944.43725000006,
      "d": 277.77774999999383,
      "v": 100
    },
    {
      "midi": 89,
      "hit": false,
      "t": 71944.43725000006,
      "d": 277.77774999999383,
      "v": 100
    },
    {
      "midi": 79,
      "hit": false,
      "t": 72222.21500000005,
      "d": 277.77774999999383,
      "v": 100
    },
    {
      "midi": 91,
      "hit": false,
      "t": 72222.21500000005,
      "d": 277.77774999999383,
      "v": 100
    },
    {
      "midi": 69,
      "hit": false,
      "t": 72222.21500000013,
      "d": 555.5555000000022,
      "v": 100
    },
    {
      "midi": 77,
      "hit": false,
      "t": 72499.99275000005,
      "d": 277.77774999999383,
      "v": 100
    },
    {
      "midi": 89,
      "hit": false,
      "t": 72499.99275000005,
      "d": 277.77774999999383,
      "v": 100
    },
    {
      "midi": 74,
      "hit": false,
      "t": 72777.77050000004,
      "d": 1666.6665000000066,
      "v": 100
    },
    {
      "midi": 86,
      "hit": false,
      "t": 72777.77050000004,
      "d": 1666.6665000000066,
      "v": 100
    },
    {
      "midi": 58,
      "hit": false,
      "t": 72777.77050000013,
      "d": 555.5555000000022,
      "v": 100
    },
    {
      "midi": 70,
      "hit": false,
      "t": 73333.32600000013,
      "d": 555.5555000000022,
      "v": 100
    },
    {
      "midi": 57,
      "hit": false,
      "t": 73888.88150000013,
      "d": 555.5555000000022,
      "v": 100
    },
    {
      "midi": 69,
      "hit": false,
      "t": 73888.88150000013,
      "d": 555.5555000000022,
      "v": 100
    },
    {
      "midi": 82,
      "hit": false,
      "t": 74444.43700000005,
      "d": 555.5555000000022,
      "v": 100
    },
    {
      "midi": 94,
      "hit": false,
      "t": 74444.43700000005,
      "d": 555.5555000000022,
      "v": 100
    },
    {
      "midi": 55,
      "hit": false,
      "t": 74444.43700000014,
      "d": 555.5555000000022,
      "v": 100
    },
    {
      "midi": 67,
      "hit": false,
      "t": 74444.43700000014,
      "d": 555.5555000000022,
      "v": 100
    },
    {
      "midi": 82,
      "hit": false,
      "t": 74999.99250000005,
      "d": 277.77774999999383,
      "v": 100
    },
    {
      "midi": 94,
      "hit": false,
      "t": 74999.99250000005,
      "d": 277.77774999999383,
      "v": 100
    },
    {
      "midi": 62,
      "hit": false,
      "t": 74999.99250000014,
      "d": 555.5555000000022,
      "v": 100
    },
    {
      "midi": 82,
      "hit": false,
      "t": 75277.77025000005,
      "d": 277.77774999999383,
      "v": 100
    },
    {
      "midi": 94,
      "hit": false,
      "t": 75277.77025000005,
      "d": 277.77774999999383,
      "v": 100
    },
    {
      "midi": 82,
      "hit": false,
      "t": 75555.54800000004,
      "d": 277.77774999999383,
      "v": 100
    },
    {
      "midi": 94,
      "hit": false,
      "t": 75555.54800000004,
      "d": 277.77774999999383,
      "v": 100
    },
    {
      "midi": 70,
      "hit": false,
      "t": 75555.54800000014,
      "d": 555.5555000000022,
      "v": 100
    },
    {
      "midi": 84,
      "hit": false,
      "t": 75833.32575000003,
      "d": 277.77774999999383,
      "v": 100
    },
    {
      "midi": 96,
      "hit": false,
      "t": 75833.32575000003,
      "d": 277.77774999999383,
      "v": 100
    },
    {
      "midi": 84,
      "hit": false,
      "t": 76111.10350000003,
      "d": 833.333249999996,
      "v": 100
    },
    {
      "midi": 96,
      "hit": false,
      "t": 76111.10350000003,
      "d": 833.333249999996,
      "v": 100
    },
    {
      "midi": 60,
      "hit": false,
      "t": 76111.10350000014,
      "d": 555.5555000000022,
      "v": 100
    },
    {
      "midi": 67,
      "hit": false,
      "t": 76666.65900000015,
      "d": 555.5555000000022,
      "v": 100
    },
    {
      "midi": 82,
      "hit": false,
      "t": 76944.43675000002,
      "d": 277.77774999999383,
      "v": 100
    },
    {
      "midi": 94,
      "hit": false,
      "t": 76944.43675000002,
      "d": 277.77774999999383,
      "v": 100
    },
    {
      "midi": 81,
      "hit": false,
      "t": 77222.21450000002,
      "d": 277.77774999999383,
      "v": 100
    },
    {
      "midi": 93,
      "hit": false,
      "t": 77222.21450000002,
      "d": 277.77774999999383,
      "v": 100
    },
    {
      "midi": 75,
      "hit": false,
      "t": 77222.21450000015,
      "d": 555.5555000000022,
      "v": 100
    },
    {
      "midi": 79,
      "hit": false,
      "t": 77499.99225000001,
      "d": 277.77774999999383,
      "v": 100
    },
    {
      "midi": 91,
      "hit": false,
      "t": 77499.99225000001,
      "d": 277.77774999999383,
      "v": 100
    },
    {
      "midi": 77,
      "hit": false,
      "t": 77777.77,
      "d": 833.333249999996,
      "v": 100
    },
    {
      "midi": 89,
      "hit": false,
      "t": 77777.77,
      "d": 833.333249999996,
      "v": 100
    },
    {
      "midi": 53,
      "hit": false,
      "t": 77777.77000000015,
      "d": 555.5555000000022,
      "v": 100
    },
    {
      "midi": 60,
      "hit": false,
      "t": 78333.32550000015,
      "d": 555.5555000000022,
      "v": 100
    },
    {
      "midi": 77,
      "hit": false,
      "t": 78611.10325,
      "d": 277.77774999999383,
      "v": 100
    },
    {
      "midi": 89,
      "hit": false,
      "t": 78611.10325,
      "d": 277.77774999999383,
      "v": 100
    },
    {
      "midi": 79,
      "hit": false,
      "t": 78888.881,
      "d": 277.77774999999383,
      "v": 100
    },
    {
      "midi": 91,
      "hit": false,
      "t": 78888.881,
      "d": 277.77774999999383,
      "v": 100
    },
    {
      "midi": 69,
      "hit": false,
      "t": 78888.88100000015,
      "d": 555.5555000000022,
      "v": 100
    },
    {
      "midi": 77,
      "hit": false,
      "t": 79166.65874999999,
      "d": 277.77774999999383,
      "v": 100
    },
    {
      "midi": 89,
      "hit": false,
      "t": 79166.65874999999,
      "d": 277.77774999999383,
      "v": 100
    },
    {
      "midi": 79,
      "hit": false,
      "t": 79444.43649999998,
      "d": 3333.3329999999987,
      "v": 100
    },
    {
      "midi": 91,
      "hit": false,
      "t": 79444.43649999998,
      "d": 3333.3329999999987,
      "v": 100
    },
    {
      "midi": 55,
      "hit": false,
      "t": 79444.43650000016,
      "d": 555.5555000000022,
      "v": 100
    },
    {
      "midi": 62,
      "hit": false,
      "t": 79999.99200000016,
      "d": 555.5555000000022,
      "v": 100
    },
    {
      "midi": 70,
      "hit": false,
      "t": 80555.54750000016,
      "d": 555.5555000000022,
      "v": 100
    },
    {
      "midi": 74,
      "hit": false,
      "t": 81111.10300000016,
      "d": 555.5555000000022,
      "v": 100
    },
    {
      "midi": 79,
      "hit": false,
      "t": 81666.65850000017,
      "d": 555.5555000000022,
      "v": 100
    },
    {
      "midi": 82,
      "hit": false,
      "t": 82222.21400000017,
      "d": 555.5555000000022,
      "v": 100
    },
    {
      "midi": 74,
      "hit": false,
      "t": 82777.76949999998,
      "d": 555.5555000000022,
      "v": 100
    },
    {
      "midi": 43,
      "hit": false,
      "t": 82777.76950000017,
      "d": 555.5555000000022,
      "v": 100
    },
    {
      "midi": 67,
      "hit": false,
      "t": 83333.32499999998,
      "d": 277.77774999999383,
      "v": 100
    },
    {
      "midi": 50,
      "hit": false,
      "t": 83333.32500000017,
      "d": 555.5555000000022,
      "v": 100
    },
    {
      "midi": 70,
      "hit": false,
      "t": 83611.10274999998,
      "d": 277.77774999999383,
      "v": 100
    },
    {
      "midi": 74,
      "hit": false,
      "t": 83888.88049999997,
      "d": 277.77774999999383,
      "v": 100
    },
    {
      "midi": 58,
      "hit": false,
      "t": 83888.88050000017,
      "d": 555.5555000000022,
      "v": 100
    },
    {
      "midi": 72,
      "hit": false,
      "t": 84166.65824999996,
      "d": 277.77774999999383,
      "v": 100
    },
    {
      "midi": 74,
      "hit": false,
      "t": 84444.43599999996,
      "d": 555.5555000000022,
      "v": 100
    },
    {
      "midi": 50,
      "hit": false,
      "t": 84444.43600000018,
      "d": 555.5555000000022,
      "v": 100
    },
    {
      "midi": 67,
      "hit": false,
      "t": 84999.99149999996,
      "d": 277.77774999999383,
      "v": 100
    },
    {
      "midi": 58,
      "hit": false,
      "t": 84999.99150000018,
      "d": 555.5555000000022,
      "v": 100
    },
    {
      "midi": 70,
      "hit": false,
      "t": 85277.76924999995,
      "d": 277.77774999999383,
      "v": 100
    },
    {
      "midi": 74,
      "hit": false,
      "t": 85555.54699999995,
      "d": 277.77774999999383,
      "v": 100
    },
    {
      "midi": 50,
      "hit": false,
      "t": 85555.54700000018,
      "d": 555.5555000000022,
      "v": 100
    },
    {
      "midi": 72,
      "hit": false,
      "t": 85833.32474999994,
      "d": 277.77774999999383,
      "v": 100
    },
    {
      "midi": 74,
      "hit": false,
      "t": 86111.10249999994,
      "d": 555.5555000000022,
      "v": 100
    },
    {
      "midi": 43,
      "hit": false,
      "t": 86111.10250000018,
      "d": 555.5555000000022,
      "v": 100
    },
    {
      "midi": 67,
      "hit": false,
      "t": 86666.65799999994,
      "d": 277.77774999999383,
      "v": 100
    },
    {
      "midi": 50,
      "hit": false,
      "t": 86666.65800000018,
      "d": 555.5555000000022,
      "v": 100
    },
    {
      "midi": 70,
      "hit": false,
      "t": 86944.43574999993,
      "d": 277.77774999999383,
      "v": 100
    },
    {
      "midi": 75,
      "hit": false,
      "t": 87222.21349999993,
      "d": 277.77774999999383,
      "v": 100
    },
    {
      "midi": 58,
      "hit": false,
      "t": 87222.21350000019,
      "d": 555.5555000000022,
      "v": 100
    },
    {
      "midi": 74,
      "hit": false,
      "t": 87499.99124999992,
      "d": 277.77774999999383,
      "v": 100
    },
    {
      "midi": 75,
      "hit": false,
      "t": 87777.76899999991,
      "d": 555.5555000000022,
      "v": 100
    },
    {
      "midi": 48,
      "hit": false,
      "t": 87777.76900000019,
      "d": 555.5555000000022,
      "v": 100
    },
    {
      "midi": 67,
      "hit": false,
      "t": 88333.32449999992,
      "d": 277.77774999999383,
      "v": 100
    },
    {
      "midi": 55,
      "hit": false,
      "t": 88333.32450000019,
      "d": 555.5555000000022,
      "v": 100
    },
    {
      "midi": 70,
      "hit": false,
      "t": 88611.10224999991,
      "d": 277.77774999999383,
      "v": 100
    },
    {
      "midi": 75,
      "hit": false,
      "t": 88888.8799999999,
      "d": 277.77774999999383,
      "v": 100
    },
    {
      "midi": 63,
      "hit": false,
      "t": 88888.8800000002,
      "d": 555.5555000000022,
      "v": 100
    },
    {
      "midi": 74,
      "hit": false,
      "t": 89166.6577499999,
      "d": 277.77774999999383,
      "v": 100
    },
    {
      "midi": 75,
      "hit": false,
      "t": 89444.43549999989,
      "d": 555.5555000000022,
      "v": 100
    },
    {
      "midi": 55,
      "hit": false,
      "t": 89444.4355000002,
      "d": 555.5555000000022,
      "v": 100
    },
    {
      "midi": 75,
      "hit": false,
      "t": 89999.99099999989,
      "d": 277.77774999999383,
      "v": 100
    },
    {
      "midi": 63,
      "hit": false,
      "t": 89999.9910000002,
      "d": 555.5555000000022,
      "v": 100
    },
    {
      "midi": 74,
      "hit": false,
      "t": 90277.76874999989,
      "d": 277.77774999999383,
      "v": 100
    },
    {
      "midi": 75,
      "hit": false,
      "t": 90555.54649999988,
      "d": 277.77774999999383,
      "v": 100
    },
    {
      "midi": 55,
      "hit": false,
      "t": 90555.5465000002,
      "d": 555.5555000000022,
      "v": 100
    },
    {
      "midi": 76,
      "hit": false,
      "t": 90833.32424999987,
      "d": 277.77774999999383,
      "v": 100
    },
    {
      "midi": 77,
      "hit": false,
      "t": 91111.10199999987,
      "d": 555.5555000000022,
      "v": 100
    },
    {
      "midi": 41,
      "hit": false,
      "t": 91111.1020000002,
      "d": 555.5555000000022,
      "v": 100
    },
    {
      "midi": 77,
      "hit": false,
      "t": 91666.65749999987,
      "d": 277.77774999999383,
      "v": 100
    },
    {
      "midi": 48,
      "hit": false,
      "t": 91666.6575000002,
      "d": 555.5555000000022,
      "v": 100
    },
    {
      "midi": 79,
      "hit": false,
      "t": 91944.43524999986,
      "d": 277.77774999999383,
      "v": 100
    },
    {
      "midi": 77,
      "hit": false,
      "t": 92222.21299999986,
      "d": 277.77774999999383,
      "v": 100
    },
    {
      "midi": 57,
      "hit": false,
      "t": 92222.2130000002,
      "d": 555.5555000000022,
      "v": 100
    },
    {
      "midi": 79,
      "hit": false,
      "t": 92499.99074999985,
      "d": 277.77774999999383,
      "v": 100
    },
    {
      "midi": 74,
      "hit": false,
      "t": 92777.76849999985,
      "d": 1666.6665000000066,
      "v": 100
    },
    {
      "midi": 46,
      "hit": false,
      "t": 92777.76850000021,
      "d": 555.5555000000022,
      "v": 100
    },
    {
      "midi": 58,
      "hit": false,
      "t": 93333.32400000021,
      "d": 555.5555000000022,
      "v": 100
    },
    {
      "midi": 45,
      "hit": false,
      "t": 93888.87950000021,
      "d": 555.5555000000022,
      "v": 100
    },
    {
      "midi": 57,
      "hit": false,
      "t": 93888.87950000021,
      "d": 555.5555000000022,
      "v": 100
    },
    {
      "midi": 86,
      "hit": false,
      "t": 94444.43499999985,
      "d": 555.5555000000022,
      "v": 100
    },
    {
      "midi": 43,
      "hit": false,
      "t": 94444.43500000022,
      "d": 555.5555000000022,
      "v": 100
    },
    {
      "midi": 58,
      "hit": false,
      "t": 94444.43500000022,
      "d": 555.5555000000022,
      "v": 100
    },
    {
      "midi": 79,
      "hit": false,
      "t": 94999.99049999985,
      "d": 277.77774999999383,
      "v": 100
    },
    {
      "midi": 50,
      "hit": false,
      "t": 94999.99050000022,
      "d": 555.5555000000022,
      "v": 100
    },
    {
      "midi": 82,
      "hit": false,
      "t": 95277.76824999985,
      "d": 277.77774999999383,
      "v": 100
    },
    {
      "midi": 86,
      "hit": false,
      "t": 95555.54599999984,
      "d": 277.77774999999383,
      "v": 100
    },
    {
      "midi": 58,
      "hit": false,
      "t": 95555.54600000022,
      "d": 555.5555000000022,
      "v": 100
    },
    {
      "midi": 84,
      "hit": false,
      "t": 95833.32374999984,
      "d": 277.77774999999383,
      "v": 100
    },
    {
      "midi": 86,
      "hit": false,
      "t": 96111.10149999983,
      "d": 555.5555000000022,
      "v": 100
    },
    {
      "midi": 50,
      "hit": false,
      "t": 96111.10150000022,
      "d": 555.5555000000022,
      "v": 100
    },
    {
      "midi": 79,
      "hit": false,
      "t": 96666.65699999983,
      "d": 277.77774999999383,
      "v": 100
    },
    {
      "midi": 58,
      "hit": false,
      "t": 96666.65700000022,
      "d": 555.5555000000022,
      "v": 100
    },
    {
      "midi": 82,
      "hit": false,
      "t": 96944.43474999983,
      "d": 277.77774999999383,
      "v": 100
    },
    {
      "midi": 86,
      "hit": false,
      "t": 97222.21249999982,
      "d": 277.77774999999383,
      "v": 100
    },
    {
      "midi": 50,
      "hit": false,
      "t": 97222.21250000023,
      "d": 555.5555000000022,
      "v": 100
    },
    {
      "midi": 84,
      "hit": false,
      "t": 97499.99024999981,
      "d": 277.77774999999383,
      "v": 100
    },
    {
      "midi": 86,
      "hit": false,
      "t": 97777.7679999998,
      "d": 555.5555000000022,
      "v": 100
    },
    {
      "midi": 43,
      "hit": false,
      "t": 97777.76800000023,
      "d": 555.5555000000022,
      "v": 100
    },
    {
      "midi": 79,
      "hit": false,
      "t": 98333.32349999981,
      "d": 277.77774999999383,
      "v": 100
    },
    {
      "midi": 50,
      "hit": false,
      "t": 98333.32350000023,
      "d": 555.5555000000022,
      "v": 100
    },
    {
      "midi": 82,
      "hit": false,
      "t": 98611.1012499998,
      "d": 277.77774999999383,
      "v": 100
    },
    {
      "midi": 87,
      "hit": false,
      "t": 98888.8789999998,
      "d": 277.77774999999383,
      "v": 100
    },
    {
      "midi": 58,
      "hit": false,
      "t": 98888.87900000023,
      "d": 555.5555000000022,
      "v": 100
    },
    {
      "midi": 86,
      "hit": false,
      "t": 99166.65674999979,
      "d": 277.77774999999383,
      "v": 100
    },
    {
      "midi": 87,
      "hit": false,
      "t": 99444.43449999978,
      "d": 555.5555000000022,
      "v": 100
    },
    {
      "midi": 48,
      "hit": false,
      "t": 99444.43450000024,
      "d": 555.5555000000022,
      "v": 100
    },
    {
      "midi": 79,
      "hit": false,
      "t": 99999.98999999979,
      "d": 277.77774999999383,
      "v": 100
    },
    {
      "midi": 55,
      "hit": false,
      "t": 99999.99000000024,
      "d": 555.5555000000022,
      "v": 100
    },
    {
      "midi": 82,
      "hit": false,
      "t": 100277.76774999978,
      "d": 277.77774999999383,
      "v": 100
    },
    {
      "midi": 87,
      "hit": false,
      "t": 100555.54549999977,
      "d": 277.77774999999383,
      "v": 100
    },
    {
      "midi": 63,
      "hit": false,
      "t": 100555.54550000024,
      "d": 555.5555000000022,
      "v": 100
    },
    {
      "midi": 86,
      "hit": false,
      "t": 100833.32324999977,
      "d": 277.77774999999383,
      "v": 100
    },
    {
      "midi": 87,
      "hit": false,
      "t": 101111.10099999976,
      "d": 555.5555000000022,
      "v": 100
    },
    {
      "midi": 55,
      "hit": false,
      "t": 101111.10100000024,
      "d": 555.5555000000022,
      "v": 100
    },
    {
      "midi": 87,
      "hit": false,
      "t": 101666.65649999976,
      "d": 277.77774999999383,
      "v": 100
    },
    {
      "midi": 63,
      "hit": false,
      "t": 101666.65650000024,
      "d": 555.5555000000022,
      "v": 100
    },
    {
      "midi": 86,
      "hit": false,
      "t": 101944.43424999976,
      "d": 277.77774999999383,
      "v": 100
    },
    {
      "midi": 87,
      "hit": false,
      "t": 102222.21199999975,
      "d": 277.77774999999383,
      "v": 100
    },
    {
      "midi": 55,
      "hit": false,
      "t": 102222.21200000025,
      "d": 555.5555000000022,
      "v": 100
    },
    {
      "midi": 88,
      "hit": false,
      "t": 102499.98974999975,
      "d": 277.77774999999383,
      "v": 100
    },
    {
      "midi": 89,
      "hit": false,
      "t": 102777.76749999974,
      "d": 555.5555000000022,
      "v": 100
    },
    {
      "midi": 41,
      "hit": false,
      "t": 102777.76750000025,
      "d": 555.5555000000022,
      "v": 100
    },
    {
      "midi": 89,
      "hit": false,
      "t": 103333.32299999974,
      "d": 277.77774999999383,
      "v": 100
    },
    {
      "midi": 48,
      "hit": false,
      "t": 103333.32300000025,
      "d": 555.5555000000022,
      "v": 100
    },
    {
      "midi": 91,
      "hit": false,
      "t": 103611.10074999974,
      "d": 277.77774999999383,
      "v": 100
    },
    {
      "midi": 89,
      "hit": false,
      "t": 103888.87849999973,
      "d": 277.77774999999383,
      "v": 100
    },
    {
      "midi": 57,
      "hit": false,
      "t": 103888.87850000025,
      "d": 555.5555000000022,
      "v": 100
    },
    {
      "midi": 91,
      "hit": false,
      "t": 104166.65624999972,
      "d": 277.77774999999383,
      "v": 100
    },
    {
      "midi": 86,
      "hit": false,
      "t": 104444.43399999972,
      "d": 1666.6665000000066,
      "v": 100
    },
    {
      "midi": 46,
      "hit": false,
      "t": 104444.43400000026,
      "d": 555.5555000000022,
      "v": 100
    },
    {
      "midi": 46,
      "hit": false,
      "t": 104999.98950000026,
      "d": 555.5555000000022,
      "v": 100
    },
    {
      "midi": 58,
      "hit": false,
      "t": 104999.98950000026,
      "d": 555.5555000000022,
      "v": 100
    },
    {
      "midi": 45,
      "hit": false,
      "t": 105555.54500000026,
      "d": 555.5555000000022,
      "v": 100
    },
    {
      "midi": 57,
      "hit": false,
      "t": 105555.54500000026,
      "d": 555.5555000000022,
      "v": 100
    },
    {
      "midi": 82,
      "hit": false,
      "t": 106111.10049999972,
      "d": 833.333249999996,
      "v": 100
    },
    {
      "midi": 43,
      "hit": false,
      "t": 106111.10050000026,
      "d": 555.5555000000022,
      "v": 100
    },
    {
      "midi": 55,
      "hit": false,
      "t": 106111.10050000026,
      "d": 555.5555000000022,
      "v": 100
    },
    {
      "midi": 50,
      "hit": false,
      "t": 106666.65600000026,
      "d": 555.5555000000022,
      "v": 100
    },
    {
      "midi": 82,
      "hit": false,
      "t": 106944.43374999972,
      "d": 277.77774999999383,
      "v": 100
    },
    {
      "midi": 82,
      "hit": false,
      "t": 107222.21149999971,
      "d": 277.77774999999383,
      "v": 100
    },
    {
      "midi": 58,
      "hit": false,
      "t": 107222.21150000027,
      "d": 555.5555000000022,
      "v": 100
    },
    {
      "midi": 84,
      "hit": false,
      "t": 107499.98924999971,
      "d": 277.77774999999383,
      "v": 100
    },
    {
      "midi": 84,
      "hit": false,
      "t": 107777.7669999997,
      "d": 833.333249999996,
      "v": 100
    },
    {
      "midi": 48,
      "hit": false,
      "t": 107777.76700000027,
      "d": 555.5555000000022,
      "v": 100
    },
    {
      "midi": 55,
      "hit": false,
      "t": 108333.32250000027,
      "d": 555.5555000000022,
      "v": 100
    },
    {
      "midi": 82,
      "hit": false,
      "t": 108611.1002499997,
      "d": 277.77774999999383,
      "v": 100
    },
    {
      "midi": 81,
      "hit": false,
      "t": 108888.87799999969,
      "d": 277.77774999999383,
      "v": 100
    },
    {
      "midi": 63,
      "hit": false,
      "t": 108888.87800000027,
      "d": 555.5555000000022,
      "v": 100
    },
    {
      "midi": 79,
      "hit": false,
      "t": 109166.65574999969,
      "d": 277.77774999999383,
      "v": 100
    },
    {
      "midi": 77,
      "hit": false,
      "t": 109444.43349999968,
      "d": 833.333249999996,
      "v": 100
    },
    {
      "midi": 41,
      "hit": false,
      "t": 109444.43350000028,
      "d": 555.5555000000022,
      "v": 100
    },
    {
      "midi": 48,
      "hit": false,
      "t": 109999.98900000028,
      "d": 555.5555000000022,
      "v": 100
    },
    {
      "midi": 77,
      "hit": false,
      "t": 110277.76674999968,
      "d": 277.77774999999383,
      "v": 100
    },
    {
      "midi": 79,
      "hit": false,
      "t": 110555.54449999967,
      "d": 277.77774999999383,
      "v": 100
    },
    {
      "midi": 57,
      "hit": false,
      "t": 110555.54450000028,
      "d": 555.5555000000022,
      "v": 100
    },
    {
      "midi": 77,
      "hit": false,
      "t": 110833.32224999966,
      "d": 277.77774999999383,
      "v": 100
    },
    {
      "midi": 74,
      "hit": false,
      "t": 111111.09999999966,
      "d": 1666.6665000000066,
      "v": 100
    },
    {
      "midi": 46,
      "hit": false,
      "t": 111111.10000000028,
      "d": 555.5555000000022,
      "v": 100
    },
    {
      "midi": 58,
      "hit": false,
      "t": 111666.65550000028,
      "d": 555.5555000000022,
      "v": 100
    },
    {
      "midi": 45,
      "hit": false,
      "t": 112222.21100000029,
      "d": 555.5555000000022,
      "v": 100
    },
    {
      "midi": 57,
      "hit": false,
      "t": 112222.21100000029,
      "d": 555.5555000000022,
      "v": 100
    },
    {
      "midi": 82,
      "hit": false,
      "t": 112777.76649999966,
      "d": 555.5555000000022,
      "v": 100
    },
    {
      "midi": 43,
      "hit": false,
      "t": 112777.76650000029,
      "d": 555.5555000000022,
      "v": 100
    },
    {
      "midi": 55,
      "hit": false,
      "t": 112777.76650000029,
      "d": 555.5555000000022,
      "v": 100
    },
    {
      "midi": 82,
      "hit": false,
      "t": 113333.32199999967,
      "d": 277.77774999999383,
      "v": 100
    },
    {
      "midi": 50,
      "hit": false,
      "t": 113333.32200000029,
      "d": 555.5555000000022,
      "v": 100
    },
    {
      "midi": 82,
      "hit": false,
      "t": 113611.09974999966,
      "d": 277.77774999999383,
      "v": 100
    },
    {
      "midi": 82,
      "hit": false,
      "t": 113888.87749999965,
      "d": 277.77774999999383,
      "v": 100
    },
    {
      "midi": 58,
      "hit": false,
      "t": 113888.8775000003,
      "d": 555.5555000000022,
      "v": 100
    },
    {
      "midi": 84,
      "hit": false,
      "t": 114166.65524999965,
      "d": 277.77774999999383,
      "v": 100
    },
    {
      "midi": 84,
      "hit": false,
      "t": 114444.43299999964,
      "d": 833.333249999996,
      "v": 100
    },
    {
      "midi": 48,
      "hit": false,
      "t": 114444.4330000003,
      "d": 555.5555000000022,
      "v": 100
    },
    {
      "midi": 55,
      "hit": false,
      "t": 114999.9885000003,
      "d": 555.5555000000022,
      "v": 100
    },
    {
      "midi": 82,
      "hit": false,
      "t": 115277.76624999964,
      "d": 277.77774999999383,
      "v": 100
    },
    {
      "midi": 81,
      "hit": false,
      "t": 115555.54399999963,
      "d": 277.77774999999383,
      "v": 100
    },
    {
      "midi": 63,
      "hit": false,
      "t": 115555.5440000003,
      "d": 555.5555000000022,
      "v": 100
    },
    {
      "midi": 79,
      "hit": false,
      "t": 115833.32174999962,
      "d": 277.77774999999383,
      "v": 100
    },
    {
      "midi": 77,
      "hit": false,
      "t": 116111.09949999962,
      "d": 833.333249999996,
      "v": 100
    },
    {
      "midi": 41,
      "hit": false,
      "t": 116111.0995000003,
      "d": 555.5555000000022,
      "v": 100
    },
    {
      "midi": 48,
      "hit": false,
      "t": 116666.6550000003,
      "d": 555.5555000000022,
      "v": 100
    },
    {
      "midi": 77,
      "hit": false,
      "t": 116944.43274999961,
      "d": 277.77774999999383,
      "v": 100
    },
    {
      "midi": 79,
      "hit": false,
      "t": 117222.21049999961,
      "d": 277.77774999999383,
      "v": 100
    },
    {
      "midi": 57,
      "hit": false,
      "t": 117222.2105000003,
      "d": 555.5555000000022,
      "v": 100
    },
    {
      "midi": 77,
      "hit": false,
      "t": 117499.9882499996,
      "d": 277.77774999999383,
      "v": 100
    },
    {
      "midi": 79,
      "hit": false,
      "t": 117777.7659999996,
      "d": 1666.6665000000066,
      "v": 100
    },
    {
      "midi": 43,
      "hit": false,
      "t": 117777.76600000031,
      "d": 555.5555000000022,
      "v": 100
    },
    {
      "midi": 50,
      "hit": false,
      "t": 118333.32150000031,
      "d": 555.5555000000022,
      "v": 100
    },
    {
      "midi": 58,
      "hit": false,
      "t": 118888.87700000031,
      "d": 555.5555000000022,
      "v": 100
    },
    {
      "midi": 82,
      "hit": false,
      "t": 119444.4324999996,
      "d": 555.5555000000022,
      "v": 100
    },
    {
      "midi": 94,
      "hit": false,
      "t": 119444.4324999996,
      "d": 555.5555000000022,
      "v": 100
    },
    {
      "midi": 55,
      "hit": false,
      "t": 119444.43250000032,
      "d": 555.5555000000022,
      "v": 100
    },
    {
      "midi": 82,
      "hit": false,
      "t": 119999.9879999996,
      "d": 277.77774999999383,
      "v": 100
    },
    {
      "midi": 94,
      "hit": false,
      "t": 119999.9879999996,
      "d": 277.77774999999383,
      "v": 100
    },
    {
      "midi": 62,
      "hit": false,
      "t": 119999.98800000032,
      "d": 555.5555000000022,
      "v": 100
    },
    {
      "midi": 82,
      "hit": false,
      "t": 120277.7657499996,
      "d": 277.77774999999383,
      "v": 100
    },
    {
      "midi": 94,
      "hit": false,
      "t": 120277.7657499996,
      "d": 277.77774999999383,
      "v": 100
    },
    {
      "midi": 82,
      "hit": false,
      "t": 120555.54349999959,
      "d": 277.77774999999383,
      "v": 100
    },
    {
      "midi": 94,
      "hit": false,
      "t": 120555.54349999959,
      "d": 277.77774999999383,
      "v": 100
    },
    {
      "midi": 70,
      "hit": false,
      "t": 120555.54350000032,
      "d": 555.5555000000022,
      "v": 100
    },
    {
      "midi": 84,
      "hit": false,
      "t": 120833.32124999959,
      "d": 277.77774999999383,
      "v": 100
    },
    {
      "midi": 96,
      "hit": false,
      "t": 120833.32124999959,
      "d": 277.77774999999383,
      "v": 100
    },
    {
      "midi": 84,
      "hit": false,
      "t": 121111.09899999958,
      "d": 833.333249999996,
      "v": 100
    },
    {
      "midi": 96,
      "hit": false,
      "t": 121111.09899999958,
      "d": 833.333249999996,
      "v": 100
    },
    {
      "midi": 60,
      "hit": false,
      "t": 121111.09900000032,
      "d": 555.5555000000022,
      "v": 100
    },
    {
      "midi": 67,
      "hit": false,
      "t": 121666.65450000032,
      "d": 555.5555000000022,
      "v": 100
    },
    {
      "midi": 82,
      "hit": false,
      "t": 121944.43224999958,
      "d": 277.77774999999383,
      "v": 100
    },
    {
      "midi": 94,
      "hit": false,
      "t": 121944.43224999958,
      "d": 277.77774999999383,
      "v": 100
    },
    {
      "midi": 81,
      "hit": false,
      "t": 122222.20999999957,
      "d": 277.77774999999383,
      "v": 100
    },
    {
      "midi": 93,
      "hit": false,
      "t": 122222.20999999957,
      "d": 277.77774999999383,
      "v": 100
    },
    {
      "midi": 75,
      "hit": false,
      "t": 122222.21000000033,
      "d": 555.5555000000022,
      "v": 100
    },
    {
      "midi": 79,
      "hit": false,
      "t": 122499.98774999956,
      "d": 277.77774999999383,
      "v": 100
    },
    {
      "midi": 91,
      "hit": false,
      "t": 122499.98774999956,
      "d": 277.77774999999383,
      "v": 100
    },
    {
      "midi": 77,
      "hit": false,
      "t": 122777.76549999956,
      "d": 833.333249999996,
      "v": 100
    },
    {
      "midi": 89,
      "hit": false,
      "t": 122777.76549999956,
      "d": 833.333249999996,
      "v": 100
    },
    {
      "midi": 53,
      "hit": false,
      "t": 122777.76550000033,
      "d": 555.5555000000022,
      "v": 100
    },
    {
      "midi": 60,
      "hit": false,
      "t": 123333.32100000033,
      "d": 555.5555000000022,
      "v": 100
    },
    {
      "midi": 77,
      "hit": false,
      "t": 123611.09874999955,
      "d": 277.77774999999383,
      "v": 100
    },
    {
      "midi": 89,
      "hit": false,
      "t": 123611.09874999955,
      "d": 277.77774999999383,
      "v": 100
    },
    {
      "midi": 79,
      "hit": false,
      "t": 123888.87649999955,
      "d": 277.77774999999383,
      "v": 100
    },
    {
      "midi": 91,
      "hit": false,
      "t": 123888.87649999955,
      "d": 277.77774999999383,
      "v": 100
    },
    {
      "midi": 69,
      "hit": false,
      "t": 123888.87650000033,
      "d": 555.5555000000022,
      "v": 100
    },
    {
      "midi": 77,
      "hit": false,
      "t": 124166.65424999954,
      "d": 277.77774999999383,
      "v": 100
    },
    {
      "midi": 89,
      "hit": false,
      "t": 124166.65424999954,
      "d": 277.77774999999383,
      "v": 100
    },
    {
      "midi": 74,
      "hit": false,
      "t": 124444.43199999954,
      "d": 1666.6665000000066,
      "v": 100
    },
    {
      "midi": 86,
      "hit": false,
      "t": 124444.43199999954,
      "d": 1666.6665000000066,
      "v": 100
    },
    {
      "midi": 58,
      "hit": false,
      "t": 124444.43200000034,
      "d": 555.5555000000022,
      "v": 100
    },
    {
      "midi": 70,
      "hit": false,
      "t": 124999.98750000034,
      "d": 555.5555000000022,
      "v": 100
    },
    {
      "midi": 57,
      "hit": false,
      "t": 125555.54300000034,
      "d": 555.5555000000022,
      "v": 100
    },
    {
      "midi": 69,
      "hit": false,
      "t": 125555.54300000034,
      "d": 555.5555000000022,
      "v": 100
    },
    {
      "midi": 82,
      "hit": false,
      "t": 126111.09849999954,
      "d": 555.5555000000022,
      "v": 100
    },
    {
      "midi": 94,
      "hit": false,
      "t": 126111.09849999954,
      "d": 555.5555000000022,
      "v": 100
    },
    {
      "midi": 55,
      "hit": false,
      "t": 126111.09850000034,
      "d": 555.5555000000022,
      "v": 100
    },
    {
      "midi": 67,
      "hit": false,
      "t": 126111.09850000034,
      "d": 555.5555000000022,
      "v": 100
    },
    {
      "midi": 82,
      "hit": false,
      "t": 126666.65399999954,
      "d": 277.77774999999383,
      "v": 100
    },
    {
      "midi": 94,
      "hit": false,
      "t": 126666.65399999954,
      "d": 277.77774999999383,
      "v": 100
    },
    {
      "midi": 62,
      "hit": false,
      "t": 126666.65400000034,
      "d": 555.5555000000022,
      "v": 100
    },
    {
      "midi": 82,
      "hit": false,
      "t": 126944.43174999954,
      "d": 277.77774999999383,
      "v": 100
    },
    {
      "midi": 94,
      "hit": false,
      "t": 126944.43174999954,
      "d": 277.77774999999383,
      "v": 100
    },
    {
      "midi": 82,
      "hit": false,
      "t": 127222.20949999953,
      "d": 277.77774999999383,
      "v": 100
    },
    {
      "midi": 94,
      "hit": false,
      "t": 127222.20949999953,
      "d": 277.77774999999383,
      "v": 100
    },
    {
      "midi": 70,
      "hit": false,
      "t": 127222.20950000035,
      "d": 555.5555000000022,
      "v": 100
    },
    {
      "midi": 84,
      "hit": false,
      "t": 127499.98724999953,
      "d": 277.77774999999383,
      "v": 100
    },
    {
      "midi": 96,
      "hit": false,
      "t": 127499.98724999953,
      "d": 277.77774999999383,
      "v": 100
    },
    {
      "midi": 84,
      "hit": false,
      "t": 127777.76499999952,
      "d": 833.333249999996,
      "v": 100
    },
    {
      "midi": 96,
      "hit": false,
      "t": 127777.76499999952,
      "d": 833.333249999996,
      "v": 100
    },
    {
      "midi": 60,
      "hit": false,
      "t": 127777.76500000035,
      "d": 555.5555000000022,
      "v": 100
    },
    {
      "midi": 67,
      "hit": false,
      "t": 128333.32050000035,
      "d": 555.5555000000022,
      "v": 100
    },
    {
      "midi": 82,
      "hit": false,
      "t": 128611.09824999952,
      "d": 277.77774999999383,
      "v": 100
    },
    {
      "midi": 94,
      "hit": false,
      "t": 128611.09824999952,
      "d": 277.77774999999383,
      "v": 100
    },
    {
      "midi": 81,
      "hit": false,
      "t": 128888.87599999951,
      "d": 277.77774999999383,
      "v": 100
    },
    {
      "midi": 93,
      "hit": false,
      "t": 128888.87599999951,
      "d": 277.77774999999383,
      "v": 100
    },
    {
      "midi": 75,
      "hit": false,
      "t": 128888.87600000035,
      "d": 555.5555000000022,
      "v": 100
    },
    {
      "midi": 79,
      "hit": false,
      "t": 129166.6537499995,
      "d": 277.77774999999383,
      "v": 100
    },
    {
      "midi": 91,
      "hit": false,
      "t": 129166.6537499995,
      "d": 277.77774999999383,
      "v": 100
    },
    {
      "midi": 77,
      "hit": false,
      "t": 129444.4314999995,
      "d": 833.333249999996,
      "v": 100
    },
    {
      "midi": 89,
      "hit": false,
      "t": 129444.4314999995,
      "d": 833.333249999996,
      "v": 100
    },
    {
      "midi": 53,
      "hit": false,
      "t": 129444.43150000036,
      "d": 555.5555000000022,
      "v": 100
    },
    {
      "midi": 60,
      "hit": false,
      "t": 129999.98700000036,
      "d": 555.5555000000022,
      "v": 100
    },
    {
      "midi": 77,
      "hit": false,
      "t": 130277.7647499995,
      "d": 277.77774999999383,
      "v": 100
    },
    {
      "midi": 89,
      "hit": false,
      "t": 130277.7647499995,
      "d": 277.77774999999383,
      "v": 100
    },
    {
      "midi": 79,
      "hit": false,
      "t": 130555.54249999949,
      "d": 277.77774999999383,
      "v": 100
    },
    {
      "midi": 91,
      "hit": false,
      "t": 130555.54249999949,
      "d": 277.77774999999383,
      "v": 100
    },
    {
      "midi": 69,
      "hit": false,
      "t": 130555.54250000036,
      "d": 555.5554999999877,
      "v": 100
    },
    {
      "midi": 77,
      "hit": false,
      "t": 130833.32024999948,
      "d": 277.77774999999383,
      "v": 100
    },
    {
      "midi": 89,
      "hit": false,
      "t": 130833.32024999948,
      "d": 277.77774999999383,
      "v": 100
    },
    {
      "midi": 79,
      "hit": false,
      "t": 131111.09799999947,
      "d": 2222.222000000009,
      "v": 100
    },
    {
      "midi": 91,
      "hit": false,
      "t": 131111.09799999947,
      "d": 2222.222000000009,
      "v": 100
    },
    {
      "midi": 55,
      "hit": false,
      "t": 131111.09800000035,
      "d": 555.5554999999877,
      "v": 100
    },
    {
      "midi": 62,
      "hit": false,
      "t": 131666.65350000034,
      "d": 555.5554999999877,
      "v": 100
    },
    {
      "midi": 70,
      "hit": false,
      "t": 132222.20900000032,
      "d": 555.5554999999877,
      "v": 100
    },
    {
      "midi": 74,
      "hit": false,
      "t": 132777.7645000003,
      "d": 555.5554999999877,
      "v": 100
    },
    {
      "midi": 79,
      "hit": false,
      "t": 133333.3200000003,
      "d": 555.5554999999877,
      "v": 100
    },
    {
      "midi": 79,
      "hit": false,
      "t": 133888.87549999947,
      "d": 277.7777500000084,
      "v": 100
    },
    {
      "midi": 82,
      "hit": false,
      "t": 133888.8755000003,
      "d": 555.5554999999877,
      "v": 100
    },
    {
      "midi": 79,
      "hit": false,
      "t": 134444.4309999995,
      "d": 277.7777500000084,
      "v": 100
    },
    {
      "midi": 43,
      "hit": false,
      "t": 134444.43100000027,
      "d": 555.5554999999877,
      "v": 100
    },
    {
      "midi": 81,
      "hit": false,
      "t": 134722.2087499995,
      "d": 277.7777500000084,
      "v": 100
    },
    {
      "midi": 81,
      "hit": false,
      "t": 134999.9864999995,
      "d": 277.7777500000084,
      "v": 100
    },
    {
      "midi": 50,
      "hit": false,
      "t": 134999.98650000026,
      "d": 555.5554999999877,
      "v": 100
    },
    {
      "midi": 82,
      "hit": false,
      "t": 135277.7642499995,
      "d": 277.7777500000084,
      "v": 100
    },
    {
      "midi": 82,
      "hit": false,
      "t": 135555.54199999952,
      "d": 277.7777500000084,
      "v": 100
    },
    {
      "midi": 58,
      "hit": false,
      "t": 135555.54200000025,
      "d": 555.5554999999877,
      "v": 100
    },
    {
      "midi": 81,
      "hit": false,
      "t": 135833.31974999953,
      "d": 277.7777500000084,
      "v": 100
    },
    {
      "midi": 81,
      "hit": false,
      "t": 136111.09749999954,
      "d": 277.7777500000084,
      "v": 100
    },
    {
      "midi": 50,
      "hit": false,
      "t": 136111.09750000024,
      "d": 555.5554999999877,
      "v": 100
    },
    {
      "midi": 79,
      "hit": false,
      "t": 136388.87524999955,
      "d": 277.7777500000084,
      "v": 100
    },
    {
      "midi": 79,
      "hit": false,
      "t": 136666.65299999955,
      "d": 277.7777500000084,
      "v": 100
    },
    {
      "midi": 58,
      "hit": false,
      "t": 136666.65300000022,
      "d": 555.5554999999877,
      "v": 100
    },
    {
      "midi": 74,
      "hit": false,
      "t": 136944.43074999956,
      "d": 277.7777500000084,
      "v": 100
    },
    {
      "midi": 74,
      "hit": false,
      "t": 137222.20849999957,
      "d": 277.7777500000084,
      "v": 100
    },
    {
      "midi": 50,
      "hit": false,
      "t": 137222.2085000002,
      "d": 555.5554999999877,
      "v": 100
    },
    {
      "midi": 70,
      "hit": false,
      "t": 137499.98624999958,
      "d": 277.7777500000084,
      "v": 100
    },
    {
      "midi": 70,
      "hit": false,
      "t": 137777.7639999996,
      "d": 277.7777500000084,
      "v": 100
    },
    {
      "midi": 58,
      "hit": false,
      "t": 137777.7640000002,
      "d": 555.5554999999877,
      "v": 100
    },
    {
      "midi": 67,
      "hit": false,
      "t": 138055.5417499996,
      "d": 277.7777500000084,
      "v": 100
    },
    {
      "midi": 67,
      "hit": false,
      "t": 138333.3194999996,
      "d": 277.7777500000084,
      "v": 100
    },
    {
      "midi": 50,
      "hit": false,
      "t": 138333.3195000002,
      "d": 555.5554999999877,
      "v": 100
    },
    {
      "midi": 77,
      "hit": false,
      "t": 138611.0972499996,
      "d": 277.7777500000084,
      "v": 100
    },
    {
      "midi": 77,
      "hit": false,
      "t": 138888.87499999962,
      "d": 277.7777500000084,
      "v": 100
    },
    {
      "midi": 51,
      "hit": false,
      "t": 138888.87500000017,
      "d": 555.5554999999877,
      "v": 100
    },
    {
      "midi": 75,
      "hit": false,
      "t": 139166.65274999963,
      "d": 277.7777500000084,
      "v": 100
    },
    {
      "midi": 75,
      "hit": false,
      "t": 139444.43049999964,
      "d": 277.7777500000084,
      "v": 100
    },
    {
      "midi": 55,
      "hit": false,
      "t": 139444.43050000016,
      "d": 555.5554999999877,
      "v": 100
    },
    {
      "midi": 74,
      "hit": false,
      "t": 139722.20824999965,
      "d": 277.7777500000084,
      "v": 100
    },
    {
      "midi": 75,
      "hit": false,
      "t": 139999.98599999966,
      "d": 277.7777500000084,
      "v": 100
    },
    {
      "midi": 63,
      "hit": false,
      "t": 139999.98600000015,
      "d": 555.5554999999877,
      "v": 100
    },
    {
      "midi": 77,
      "hit": false,
      "t": 140277.76374999966,
      "d": 277.7777500000084,
      "v": 100
    },
    {
      "midi": 75,
      "hit": false,
      "t": 140555.54149999967,
      "d": 1666.666499999992,
      "v": 100
    },
    {
      "midi": 55,
      "hit": false,
      "t": 140555.54150000014,
      "d": 555.5554999999877,
      "v": 100
    },
    {
      "midi": 63,
      "hit": false,
      "t": 141111.09700000013,
      "d": 555.5554999999877,
      "v": 100
    },
    {
      "midi": 55,
      "hit": false,
      "t": 141666.6525000001,
      "d": 555.5554999999877,
      "v": 100
    },
    {
      "midi": 41,
      "hit": false,
      "t": 142222.2080000001,
      "d": 555.5554999999877,
      "v": 100
    },
    {
      "midi": 75,
      "hit": false,
      "t": 142499.98574999967,
      "d": 277.7777500000084,
      "v": 100
    },
    {
      "midi": 75,
      "hit": false,
      "t": 142777.76349999968,
      "d": 277.7777500000084,
      "v": 100
    },
    {
      "midi": 48,
      "hit": false,
      "t": 142777.7635000001,
      "d": 555.5554999999877,
      "v": 100
    },
    {
      "midi": 77,
      "hit": false,
      "t": 143055.5412499997,
      "d": 277.7777500000084,
      "v": 100
    },
    {
      "midi": 77,
      "hit": false,
      "t": 143333.3189999997,
      "d": 277.7777500000084,
      "v": 100
    },
    {
      "midi": 57,
      "hit": false,
      "t": 143333.31900000008,
      "d": 555.5554999999877,
      "v": 100
    },
    {
      "midi": 79,
      "hit": false,
      "t": 143611.0967499997,
      "d": 277.7777500000084,
      "v": 100
    },
    {
      "midi": 79,
      "hit": false,
      "t": 143888.8744999997,
      "d": 277.7777500000084,
      "v": 100
    },
    {
      "midi": 48,
      "hit": false,
      "t": 143888.87450000006,
      "d": 555.5554999999877,
      "v": 100
    },
    {
      "midi": 81,
      "hit": false,
      "t": 144166.65224999972,
      "d": 277.7777500000084,
      "v": 100
    },
    {
      "midi": 81,
      "hit": false,
      "t": 144444.42999999973,
      "d": 277.7777500000084,
      "v": 100
    },
    {
      "midi": 57,
      "hit": false,
      "t": 144444.43000000005,
      "d": 555.5554999999877,
      "v": 100
    },
    {
      "midi": 77,
      "hit": false,
      "t": 144722.20774999974,
      "d": 277.7777500000084,
      "v": 100
    },
    {
      "midi": 77,
      "hit": false,
      "t": 144999.98549999975,
      "d": 277.7777500000084,
      "v": 100
    },
    {
      "midi": 48,
      "hit": false,
      "t": 144999.98550000004,
      "d": 555.5554999999877,
      "v": 100
    },
    {
      "midi": 72,
      "hit": false,
      "t": 145277.76324999976,
      "d": 277.7777500000084,
      "v": 100
    },
    {
      "midi": 72,
      "hit": false,
      "t": 145555.54099999976,
      "d": 277.7777500000084,
      "v": 100
    },
    {
      "midi": 57,
      "hit": false,
      "t": 145555.54100000003,
      "d": 555.5554999999877,
      "v": 100
    },
    {
      "midi": 75,
      "hit": false,
      "t": 145833.31874999977,
      "d": 277.7777500000084,
      "v": 100
    },
    {
      "midi": 75,
      "hit": false,
      "t": 146111.09649999978,
      "d": 277.7777500000084,
      "v": 100
    },
    {
      "midi": 46,
      "hit": false,
      "t": 146111.0965,
      "d": 555.5554999999877,
      "v": 100
    },
    {
      "midi": 74,
      "hit": false,
      "t": 146388.8742499998,
      "d": 277.7777500000084,
      "v": 100
    },
    {
      "midi": 74,
      "hit": false,
      "t": 146666.6519999998,
      "d": 277.7777500000084,
      "v": 100
    },
    {
      "midi": 53,
      "hit": false,
      "t": 146666.652,
      "d": 555.5554999999877,
      "v": 100
    },
    {
      "midi": 72,
      "hit": false,
      "t": 146944.4297499998,
      "d": 277.7777500000084,
      "v": 100
    },
    {
      "midi": 72,
      "hit": false,
      "t": 147222.20749999981,
      "d": 277.7777500000084,
      "v": 100
    },
    {
      "midi": 62,
      "hit": false,
      "t": 147222.2075,
      "d": 555.5554999999877,
      "v": 100
    },
    {
      "midi": 75,
      "hit": false,
      "t": 147499.98524999982,
      "d": 277.7777500000084,
      "v": 100
    },
    {
      "midi": 74,
      "hit": false,
      "t": 147777.76299999983,
      "d": 555.5554999999877,
      "v": 100
    },
    {
      "midi": 50,
      "hit": false,
      "t": 147777.76299999998,
      "d": 555.5554999999877,
      "v": 100
    },
    {
      "midi": 86,
      "hit": false,
      "t": 148333.31849999982,
      "d": 138.8888750000042,
      "v": 100
    },
    {
      "midi": 66,
      "hit": false,
      "t": 148333.31849999996,
      "d": 1111.1110000000044,
      "v": 100
    },
    {
      "midi": 98,
      "hit": false,
      "t": 148472.20737499982,
      "d": 833.333249999996,
      "v": 100
    },
    {
      "midi": 74,
      "hit": false,
      "t": 149444.42949999982,
      "d": 555.5554999999877,
      "v": 100
    },
    {
      "midi": 43,
      "hit": false,
      "t": 149444.42949999997,
      "d": 555.5554999999877,
      "v": 100
    },
    {
      "midi": 67,
      "hit": false,
      "t": 149999.9849999998,
      "d": 277.7777500000084,
      "v": 100
    },
    {
      "midi": 50,
      "hit": false,
      "t": 149999.98499999996,
      "d": 555.5554999999877,
      "v": 100
    },
    {
      "midi": 70,
      "hit": false,
      "t": 150277.76274999982,
      "d": 277.7777500000084,
      "v": 100
    },
    {
      "midi": 74,
      "hit": false,
      "t": 150555.54049999983,
      "d": 277.7777500000084,
      "v": 100
    },
    {
      "midi": 58,
      "hit": false,
      "t": 150555.54049999994,
      "d": 555.5554999999877,
      "v": 100
    },
    {
      "midi": 72,
      "hit": false,
      "t": 150833.31824999984,
      "d": 277.7777500000084,
      "v": 100
    },
    {
      "midi": 74,
      "hit": false,
      "t": 151111.09599999984,
      "d": 555.5554999999877,
      "v": 100
    },
    {
      "midi": 50,
      "hit": false,
      "t": 151111.09599999993,
      "d": 555.5554999999877,
      "v": 100
    },
    {
      "midi": 67,
      "hit": false,
      "t": 151666.65149999983,
      "d": 277.7777500000084,
      "v": 100
    },
    {
      "midi": 58,
      "hit": false,
      "t": 151666.65149999992,
      "d": 555.5554999999877,
      "v": 100
    },
    {
      "midi": 70,
      "hit": false,
      "t": 151944.42924999984,
      "d": 277.7777500000084,
      "v": 100
    },
    {
      "midi": 74,
      "hit": false,
      "t": 152222.20699999985,
      "d": 277.7777500000084,
      "v": 100
    },
    {
      "midi": 50,
      "hit": false,
      "t": 152222.2069999999,
      "d": 555.5554999999877,
      "v": 100
    },
    {
      "midi": 72,
      "hit": false,
      "t": 152499.98474999986,
      "d": 277.7777500000084,
      "v": 100
    },
    {
      "midi": 74,
      "hit": false,
      "t": 152777.76249999987,
      "d": 555.5554999999877,
      "v": 100
    },
    {
      "midi": 43,
      "hit": false,
      "t": 152777.7624999999,
      "d": 555.5554999999877,
      "v": 100
    },
    {
      "midi": 67,
      "hit": false,
      "t": 153333.31799999985,
      "d": 277.7777500000084,
      "v": 100
    },
    {
      "midi": 50,
      "hit": false,
      "t": 153333.31799999988,
      "d": 555.5554999999877,
      "v": 100
    },
    {
      "midi": 70,
      "hit": false,
      "t": 153611.09574999986,
      "d": 277.7777500000084,
      "v": 100
    },
    {
      "midi": 75,
      "hit": false,
      "t": 153888.87349999987,
      "d": 277.7777500000084,
      "v": 100
    },
    {
      "midi": 58,
      "hit": false,
      "t": 153888.87349999987,
      "d": 555.5554999999877,
      "v": 100
    },
    {
      "midi": 74,
      "hit": false,
      "t": 154166.65124999988,
      "d": 277.7777500000084,
      "v": 100
    },
    {
      "midi": 48,
      "hit": false,
      "t": 154444.42899999986,
      "d": 555.5554999999877,
      "v": 100
    },
    {
      "midi": 75,
      "hit": false,
      "t": 154444.4289999999,
      "d": 555.5554999999877,
      "v": 100
    },
    {
      "midi": 55,
      "hit": false,
      "t": 154999.98449999985,
      "d": 555.5554999999877,
      "v": 100
    },
    {
      "midi": 67,
      "hit": false,
      "t": 154999.98449999987,
      "d": 277.7777500000084,
      "v": 100
    },
    {
      "midi": 70,
      "hit": false,
      "t": 155277.76224999988,
      "d": 277.7777500000084,
      "v": 100
    },
    {
      "midi": 63,
      "hit": false,
      "t": 155555.53999999983,
      "d": 555.5554999999877,
      "v": 100
    },
    {
      "midi": 75,
      "hit": false,
      "t": 155555.5399999999,
      "d": 277.7777500000084,
      "v": 100
    },
    {
      "midi": 74,
      "hit": false,
      "t": 155833.3177499999,
      "d": 277.7777500000084,
      "v": 100
    },
    {
      "midi": 55,
      "hit": false,
      "t": 156111.09549999982,
      "d": 555.5554999999877,
      "v": 100
    },
    {
      "midi": 75,
      "hit": false,
      "t": 156111.0954999999,
      "d": 555.5554999999877,
      "v": 100
    },
    {
      "midi": 63,
      "hit": false,
      "t": 156666.6509999998,
      "d": 555.5554999999877,
      "v": 100
    },
    {
      "midi": 75,
      "hit": false,
      "t": 156666.6509999999,
      "d": 277.7777500000084,
      "v": 100
    },
    {
      "midi": 74,
      "hit": false,
      "t": 156944.4287499999,
      "d": 277.7777500000084,
      "v": 100
    },
    {
      "midi": 55,
      "hit": false,
      "t": 157222.2064999998,
      "d": 555.5554999999877,
      "v": 100
    },
    {
      "midi": 75,
      "hit": false,
      "t": 157222.2064999999,
      "d": 277.7777500000084,
      "v": 100
    },
    {
      "midi": 76,
      "hit": false,
      "t": 157499.98424999992,
      "d": 277.7777500000084,
      "v": 100
    },
    {
      "midi": 41,
      "hit": false,
      "t": 157777.76199999978,
      "d": 555.5554999999877,
      "v": 100
    },
    {
      "midi": 77,
      "hit": false,
      "t": 157777.76199999993,
      "d": 555.5554999999877,
      "v": 100
    },
    {
      "midi": 48,
      "hit": false,
      "t": 158333.31749999977,
      "d": 555.5554999999877,
      "v": 100
    },
    {
      "midi": 77,
      "hit": false,
      "t": 158333.31749999992,
      "d": 277.7777500000084,
      "v": 100
    },
    {
      "midi": 79,
      "hit": false,
      "t": 158611.09524999993,
      "d": 277.7777500000084,
      "v": 100
    },
    {
      "midi": 57,
      "hit": false,
      "t": 158888.87299999976,
      "d": 555.5554999999877,
      "v": 100
    },
    {
      "midi": 77,
      "hit": false,
      "t": 158888.87299999993,
      "d": 277.7777500000084,
      "v": 100
    },
    {
      "midi": 79,
      "hit": false,
      "t": 159166.65074999994,
      "d": 277.7777500000084,
      "v": 100
    },
    {
      "midi": 46,
      "hit": false,
      "t": 159444.42849999975,
      "d": 555.5554999999877,
      "v": 100
    },
    {
      "midi": 74,
      "hit": false,
      "t": 159444.42849999995,
      "d": 1666.666499999992,
      "v": 100
    },
    {
      "midi": 58,
      "hit": false,
      "t": 159999.98399999973,
      "d": 555.5554999999877,
      "v": 100
    },
    {
      "midi": 45,
      "hit": false,
      "t": 160555.53949999972,
      "d": 555.5554999999877,
      "v": 100
    },
    {
      "midi": 57,
      "hit": false,
      "t": 160555.53949999972,
      "d": 555.5554999999877,
      "v": 100
    },
    {
      "midi": 43,
      "hit": false,
      "t": 161111.0949999997,
      "d": 555.5554999999877,
      "v": 100
    },
    {
      "midi": 58,
      "hit": false,
      "t": 161111.0949999997,
      "d": 555.5554999999877,
      "v": 100
    },
    {
      "midi": 86,
      "hit": false,
      "t": 161111.09499999994,
      "d": 555.5554999999877,
      "v": 100
    },
    {
      "midi": 50,
      "hit": false,
      "t": 161666.6504999997,
      "d": 555.5554999999877,
      "v": 100
    },
    {
      "midi": 79,
      "hit": false,
      "t": 161666.65049999993,
      "d": 277.7777500000084,
      "v": 100
    },
    {
      "midi": 82,
      "hit": false,
      "t": 161944.42824999994,
      "d": 277.7777500000084,
      "v": 100
    },
    {
      "midi": 58,
      "hit": false,
      "t": 162222.20599999969,
      "d": 555.5554999999877,
      "v": 100
    },
    {
      "midi": 86,
      "hit": false,
      "t": 162222.20599999995,
      "d": 277.7777500000084,
      "v": 100
    },
    {
      "midi": 84,
      "hit": false,
      "t": 162499.98374999996,
      "d": 277.7777500000084,
      "v": 100
    },
    {
      "midi": 50,
      "hit": false,
      "t": 162777.76149999967,
      "d": 555.5554999999877,
      "v": 100
    },
    {
      "midi": 86,
      "hit": false,
      "t": 162777.76149999996,
      "d": 555.5554999999877,
      "v": 100
    },
    {
      "midi": 58,
      "hit": false,
      "t": 163333.31699999966,
      "d": 555.5554999999877,
      "v": 100
    },
    {
      "midi": 79,
      "hit": false,
      "t": 163333.31699999995,
      "d": 277.7777500000084,
      "v": 100
    },
    {
      "midi": 82,
      "hit": false,
      "t": 163611.09474999996,
      "d": 277.7777500000084,
      "v": 100
    },
    {
      "midi": 50,
      "hit": false,
      "t": 163888.87249999965,
      "d": 555.5554999999877,
      "v": 100
    },
    {
      "midi": 86,
      "hit": false,
      "t": 163888.87249999997,
      "d": 277.7777500000084,
      "v": 100
    },
    {
      "midi": 84,
      "hit": false,
      "t": 164166.65024999998,
      "d": 277.7777500000084,
      "v": 100
    },
    {
      "midi": 43,
      "hit": false,
      "t": 164444.42799999964,
      "d": 555.5554999999877,
      "v": 100
    },
    {
      "midi": 86,
      "hit": false,
      "t": 164444.42799999999,
      "d": 555.5554999999877,
      "v": 100
    },
    {
      "midi": 50,
      "hit": false,
      "t": 164999.98349999962,
      "d": 555.5554999999877,
      "v": 100
    },
    {
      "midi": 79,
      "hit": false,
      "t": 164999.98349999997,
      "d": 277.7777500000084,
      "v": 100
    },
    {
      "midi": 82,
      "hit": false,
      "t": 165277.76124999998,
      "d": 277.7777500000084,
      "v": 100
    },
    {
      "midi": 58,
      "hit": false,
      "t": 165555.5389999996,
      "d": 555.5554999999877,
      "v": 100
    },
    {
      "midi": 87,
      "hit": false,
      "t": 165555.539,
      "d": 277.7777500000084,
      "v": 100
    },
    {
      "midi": 86,
      "hit": false,
      "t": 165833.31675,
      "d": 277.7777500000084,
      "v": 100
    },
    {
      "midi": 48,
      "hit": false,
      "t": 166111.0944999996,
      "d": 555.5554999999877,
      "v": 100
    },
    {
      "midi": 87,
      "hit": false,
      "t": 166111.0945,
      "d": 555.5554999999877,
      "v": 100
    },
    {
      "midi": 55,
      "hit": false,
      "t": 166666.6499999996,
      "d": 555.5554999999877,
      "v": 100
    },
    {
      "midi": 79,
      "hit": false,
      "t": 166666.65,
      "d": 277.7777500000084,
      "v": 100
    },
    {
      "midi": 82,
      "hit": false,
      "t": 166944.42775,
      "d": 277.7777500000084,
      "v": 100
    },
    {
      "midi": 63,
      "hit": false,
      "t": 167222.20549999957,
      "d": 555.5554999999877,
      "v": 100
    },
    {
      "midi": 87,
      "hit": false,
      "t": 167222.2055,
      "d": 277.7777500000084,
      "v": 100
    },
    {
      "midi": 86,
      "hit": false,
      "t": 167499.98325000002,
      "d": 277.7777500000084,
      "v": 100
    },
    {
      "midi": 55,
      "hit": false,
      "t": 167777.76099999956,
      "d": 555.5554999999877,
      "v": 100
    },
    {
      "midi": 87,
      "hit": false,
      "t": 167777.76100000003,
      "d": 555.5554999999877,
      "v": 100
    },
    {
      "midi": 63,
      "hit": false,
      "t": 168333.31649999955,
      "d": 555.5554999999877,
      "v": 100
    },
    {
      "midi": 87,
      "hit": false,
      "t": 168333.31650000002,
      "d": 277.7777500000084,
      "v": 100
    },
    {
      "midi": 86,
      "hit": false,
      "t": 168611.09425000002,
      "d": 277.7777500000084,
      "v": 100
    },
    {
      "midi": 55,
      "hit": false,
      "t": 168888.87199999954,
      "d": 555.5554999999877,
      "v": 100
    },
    {
      "midi": 87,
      "hit": false,
      "t": 168888.87200000003,
      "d": 277.7777500000084,
      "v": 100
    },
    {
      "midi": 88,
      "hit": false,
      "t": 169166.64975000004,
      "d": 277.7777500000084,
      "v": 100
    },
    {
      "midi": 41,
      "hit": false,
      "t": 169444.42749999953,
      "d": 555.5554999999877,
      "v": 100
    },
    {
      "midi": 89,
      "hit": false,
      "t": 169444.42750000005,
      "d": 555.5554999999877,
      "v": 100
    },
    {
      "midi": 48,
      "hit": false,
      "t": 169999.9829999995,
      "d": 555.5554999999877,
      "v": 100
    },
    {
      "midi": 89,
      "hit": false,
      "t": 169999.98300000004,
      "d": 277.7777500000084,
      "v": 100
    },
    {
      "midi": 91,
      "hit": false,
      "t": 170277.76075000004,
      "d": 277.7777500000084,
      "v": 100
    },
    {
      "midi": 57,
      "hit": false,
      "t": 170555.5384999995,
      "d": 555.5554999999877,
      "v": 100
    },
    {
      "midi": 89,
      "hit": false,
      "t": 170555.53850000005,
      "d": 277.7777500000084,
      "v": 100
    },
    {
      "midi": 91,
      "hit": false,
      "t": 170833.31625000006,
      "d": 277.7777500000084,
      "v": 100
    },
    {
      "midi": 46,
      "hit": false,
      "t": 171111.0939999995,
      "d": 555.5554999999877,
      "v": 100
    },
    {
      "midi": 86,
      "hit": false,
      "t": 171111.09400000007,
      "d": 1666.666499999992,
      "v": 100
    },
    {
      "midi": 46,
      "hit": false,
      "t": 171666.64949999948,
      "d": 555.5554999999877,
      "v": 100
    },
    {
      "midi": 58,
      "hit": false,
      "t": 171666.64949999948,
      "d": 555.5554999999877,
      "v": 100
    },
    {
      "midi": 45,
      "hit": false,
      "t": 172222.20499999946,
      "d": 555.5554999999877,
      "v": 100
    },
    {
      "midi": 57,
      "hit": false,
      "t": 172222.20499999946,
      "d": 555.5554999999877,
      "v": 100
    },
    {
      "midi": 43,
      "hit": false,
      "t": 172777.76049999945,
      "d": 555.5554999999877,
      "v": 100
    },
    {
      "midi": 55,
      "hit": false,
      "t": 172777.76049999945,
      "d": 555.5554999999877,
      "v": 100
    },
    {
      "midi": 82,
      "hit": false,
      "t": 172777.76050000006,
      "d": 833.333249999996,
      "v": 100
    },
    {
      "midi": 50,
      "hit": false,
      "t": 173333.31599999944,
      "d": 555.5554999999877,
      "v": 100
    },
    {
      "midi": 74,
      "hit": false,
      "t": 173611.09375000006,
      "d": 277.7777500000084,
      "v": 100
    },
    {
      "midi": 58,
      "hit": false,
      "t": 173888.87149999943,
      "d": 555.5554999999877,
      "v": 100
    },
    {
      "midi": 74,
      "hit": false,
      "t": 173888.87150000007,
      "d": 277.7777500000084,
      "v": 100
    },
    {
      "midi": 75,
      "hit": false,
      "t": 174166.64925000007,
      "d": 277.7777500000084,
      "v": 100
    },
    {
      "midi": 48,
      "hit": false,
      "t": 174444.4269999994,
      "d": 555.5554999999877,
      "v": 100
    },
    {
      "midi": 75,
      "hit": false,
      "t": 174444.42700000008,
      "d": 833.333249999996,
      "v": 100
    },
    {
      "midi": 55,
      "hit": false,
      "t": 174999.9824999994,
      "d": 555.5554999999877,
      "v": 100
    },
    {
      "midi": 72,
      "hit": false,
      "t": 175277.76025000008,
      "d": 277.7777500000084,
      "v": 100
    },
    {
      "midi": 63,
      "hit": false,
      "t": 175555.5379999994,
      "d": 555.5554999999877,
      "v": 100
    },
    {
      "midi": 72,
      "hit": false,
      "t": 175555.5380000001,
      "d": 277.7777500000084,
      "v": 100
    },
    {
      "midi": 81,
      "hit": false,
      "t": 175833.3157500001,
      "d": 277.7777500000084,
      "v": 100
    },
    {
      "midi": 41,
      "hit": false,
      "t": 176111.09349999938,
      "d": 555.5554999999877,
      "v": 100
    },
    {
      "midi": 81,
      "hit": false,
      "t": 176111.0935000001,
      "d": 833.333249999996,
      "v": 100
    },
    {
      "midi": 48,
      "hit": false,
      "t": 176666.64899999936,
      "d": 555.5554999999877,
      "v": 100
    },
    {
      "midi": 72,
      "hit": false,
      "t": 176944.4267500001,
      "d": 277.7777500000084,
      "v": 100
    },
    {
      "midi": 57,
      "hit": false,
      "t": 177222.20449999935,
      "d": 555.5554999999877,
      "v": 100
    },
    {
      "midi": 72,
      "hit": false,
      "t": 177222.2045000001,
      "d": 277.7777500000084,
      "v": 100
    },
    {
      "midi": 74,
      "hit": false,
      "t": 177499.98225000012,
      "d": 277.7777500000084,
      "v": 100
    },
    {
      "midi": 46,
      "hit": false,
      "t": 177777.75999999934,
      "d": 555.5554999999877,
      "v": 100
    },
    {
      "midi": 74,
      "hit": false,
      "t": 177777.76000000013,
      "d": 555.5554999999877,
      "v": 100
    },
    {
      "midi": 58,
      "hit": false,
      "t": 178333.31549999933,
      "d": 555.5554999999877,
      "v": 100
    },
    {
      "midi": 70,
      "hit": false,
      "t": 178333.3155000001,
      "d": 277.7777500000084,
      "v": 100
    },
    {
      "midi": 70,
      "hit": false,
      "t": 178611.09325000012,
      "d": 277.7777500000084,
      "v": 100
    },
    {
      "midi": 45,
      "hit": false,
      "t": 178888.87099999932,
      "d": 555.5554999999877,
      "v": 100
    },
    {
      "midi": 57,
      "hit": false,
      "t": 178888.87099999932,
      "d": 555.5554999999877,
      "v": 100
    },
    {
      "midi": 79,
      "hit": false,
      "t": 178888.87100000013,
      "d": 277.7777500000084,
      "v": 100
    },
    {
      "midi": 77,
      "hit": false,
      "t": 179166.64875000014,
      "d": 277.7777500000084,
      "v": 100
    },
    {
      "midi": 43,
      "hit": false,
      "t": 179444.4264999993,
      "d": 555.5554999999877,
      "v": 100
    },
    {
      "midi": 79,
      "hit": false,
      "t": 179444.42650000015,
      "d": 833.333249999996,
      "v": 100
    },
    {
      "midi": 50,
      "hit": false,
      "t": 179999.9819999993,
      "d": 555.5554999999877,
      "v": 100
    },
    {
      "midi": 70,
      "hit": false,
      "t": 180277.75975000014,
      "d": 277.7777500000084,
      "v": 100
    },
    {
      "midi": 58,
      "hit": false,
      "t": 180555.53749999928,
      "d": 555.5554999999877,
      "v": 100
    },
    {
      "midi": 70,
      "hit": false,
      "t": 180555.53750000015,
      "d": 277.7777500000084,
      "v": 100
    },
    {
      "midi": 72,
      "hit": false,
      "t": 180833.31525000016,
      "d": 277.7777500000084,
      "v": 100
    },
    {
      "midi": 45,
      "hit": false,
      "t": 181111.09299999927,
      "d": 555.5554999999877,
      "v": 100
    },
    {
      "midi": 72,
      "hit": false,
      "t": 181111.09300000017,
      "d": 833.333249999996,
      "v": 100
    },
    {
      "midi": 51,
      "hit": false,
      "t": 181666.64849999925,
      "d": 555.5554999999877,
      "v": 100
    },
    {
      "midi": 69,
      "hit": false,
      "t": 181944.42625000016,
      "d": 277.7777500000084,
      "v": 100
    },
    {
      "midi": 60,
      "hit": false,
      "t": 182222.20399999924,
      "d": 555.5554999999877,
      "v": 100
    },
    {
      "midi": 74,
      "hit": false,
      "t": 182222.20400000017,
      "d": 277.7777500000084,
      "v": 100
    },
    {
      "midi": 72,
      "hit": false,
      "t": 182499.98175000018,
      "d": 277.7777500000084,
      "v": 100
    },
    {
      "midi": 50,
      "hit": false,
      "t": 182777.75949999923,
      "d": 555.5554999999877,
      "v": 100
    },
    {
      "midi": 74,
      "hit": false,
      "t": 182777.7595000002,
      "d": 1666.666499999992,
      "v": 100
    },
    {
      "midi": 40,
      "hit": false,
      "t": 183333.31499999922,
      "d": 555.5554999999877,
      "v": 100
    },
    {
      "midi": 52,
      "hit": false,
      "t": 183333.31499999922,
      "d": 555.5554999999877,
      "v": 100
    },
    {
      "midi": 42,
      "hit": false,
      "t": 183888.8704999992,
      "d": 555.5554999999877,
      "v": 100
    },
    {
      "midi": 54,
      "hit": false,
      "t": 183888.8704999992,
      "d": 555.5554999999877,
      "v": 100
    },
    {
      "midi": 43,
      "hit": false,
      "t": 184444.4259999992,
      "d": 555.5554999999877,
      "v": 100
    },
    {
      "midi": 55,
      "hit": false,
      "t": 184444.4259999992,
      "d": 555.5554999999877,
      "v": 100
    },
    {
      "midi": 82,
      "hit": false,
      "t": 184444.42600000018,
      "d": 555.5554999999877,
      "v": 100
    },
    {
      "midi": 50,
      "hit": false,
      "t": 184999.98149999918,
      "d": 555.5554999999877,
      "v": 100
    },
    {
      "midi": 82,
      "hit": false,
      "t": 184999.98150000017,
      "d": 277.7777500000084,
      "v": 100
    },
    {
      "midi": 82,
      "hit": false,
      "t": 185277.75925000018,
      "d": 277.7777500000084,
      "v": 100
    },
    {
      "midi": 58,
      "hit": false,
      "t": 185555.53699999917,
      "d": 555.5554999999877,
      "v": 100
    },
    {
      "midi": 82,
      "hit": false,
      "t": 185555.5370000002,
      "d": 277.7777500000084,
      "v": 100
    },
    {
      "midi": 84,
      "hit": false,
      "t": 185833.3147500002,
      "d": 277.7777500000084,
      "v": 100
    },
    {
      "midi": 48,
      "hit": false,
      "t": 186111.09249999915,
      "d": 555.5554999999877,
      "v": 100
    },
    {
      "midi": 84,
      "hit": false,
      "t": 186111.0925000002,
      "d": 833.333249999996,
      "v": 100
    },
    {
      "midi": 55,
      "hit": false,
      "t": 186666.64799999914,
      "d": 555.5554999999877,
      "v": 100
    },
    {
      "midi": 82,
      "hit": false,
      "t": 186944.4257500002,
      "d": 277.7777500000084,
      "v": 100
    },
    {
      "midi": 63,
      "hit": false,
      "t": 187222.20349999913,
      "d": 555.5554999999877,
      "v": 100
    },
    {
      "midi": 81,
      "hit": false,
      "t": 187222.2035000002,
      "d": 277.7777500000084,
      "v": 100
    },
    {
      "midi": 79,
      "hit": false,
      "t": 187499.98125000022,
      "d": 277.7777500000084,
      "v": 100
    },
    {
      "midi": 41,
      "hit": false,
      "t": 187777.75899999912,
      "d": 555.5554999999877,
      "v": 100
    },
    {
      "midi": 77,
      "hit": false,
      "t": 187777.75900000022,
      "d": 833.333249999996,
      "v": 100
    },
    {
      "midi": 48,
      "hit": false,
      "t": 188333.3144999991,
      "d": 555.5554999999877,
      "v": 100
    },
    {
      "midi": 77,
      "hit": false,
      "t": 188611.09225000022,
      "d": 277.7777500000084,
      "v": 100
    },
    {
      "midi": 57,
      "hit": false,
      "t": 188888.8699999991,
      "d": 555.5554999999877,
      "v": 100
    },
    {
      "midi": 79,
      "hit": false,
      "t": 188888.87000000023,
      "d": 277.7777500000084,
      "v": 100
    },
    {
      "midi": 77,
      "hit": false,
      "t": 189166.64775000024,
      "d": 277.7777500000084,
      "v": 100
    },
    {
      "midi": 46,
      "hit": false,
      "t": 189444.42549999908,
      "d": 555.5554999999877,
      "v": 100
    },
    {
      "midi": 74,
      "hit": false,
      "t": 189444.42550000024,
      "d": 1666.666499999992,
      "v": 100
    },
    {
      "midi": 58,
      "hit": false,
      "t": 189999.98099999907,
      "d": 555.5554999999877,
      "v": 100
    },
    {
      "midi": 45,
      "hit": false,
      "t": 190555.53649999906,
      "d": 555.5554999999877,
      "v": 100
    },
    {
      "midi": 57,
      "hit": false,
      "t": 190555.53649999906,
      "d": 555.5554999999877,
      "v": 100
    },
    {
      "midi": 43,
      "hit": false,
      "t": 191111.09199999904,
      "d": 555.5554999999877,
      "v": 100
    },
    {
      "midi": 55,
      "hit": false,
      "t": 191111.09199999904,
      "d": 555.5554999999877,
      "v": 100
    },
    {
      "midi": 82,
      "hit": false,
      "t": 191111.09200000024,
      "d": 555.5554999999877,
      "v": 100
    },
    {
      "midi": 50,
      "hit": false,
      "t": 191666.64749999903,
      "d": 555.5554999999877,
      "v": 100
    },
    {
      "midi": 82,
      "hit": false,
      "t": 191666.64750000022,
      "d": 277.7777500000084,
      "v": 100
    },
    {
      "midi": 82,
      "hit": false,
      "t": 191944.42525000023,
      "d": 277.7777500000084,
      "v": 100
    },
    {
      "midi": 58,
      "hit": false,
      "t": 192222.20299999902,
      "d": 555.5554999999877,
      "v": 100
    },
    {
      "midi": 82,
      "hit": false,
      "t": 192222.20300000024,
      "d": 277.7777500000084,
      "v": 100
    },
    {
      "midi": 84,
      "hit": false,
      "t": 192499.98075000025,
      "d": 277.7777500000084,
      "v": 100
    },
    {
      "midi": 48,
      "hit": false,
      "t": 192777.758499999,
      "d": 555.5554999999877,
      "v": 100
    },
    {
      "midi": 84,
      "hit": false,
      "t": 192777.75850000026,
      "d": 833.333249999996,
      "v": 100
    },
    {
      "midi": 55,
      "hit": false,
      "t": 193333.313999999,
      "d": 555.5554999999877,
      "v": 100
    },
    {
      "midi": 82,
      "hit": false,
      "t": 193611.09175000025,
      "d": 277.7777500000084,
      "v": 100
    },
    {
      "midi": 63,
      "hit": false,
      "t": 193888.86949999898,
      "d": 555.5554999999877,
      "v": 100
    },
    {
      "midi": 81,
      "hit": false,
      "t": 193888.86950000026,
      "d": 277.7777500000084,
      "v": 100
    },
    {
      "midi": 79,
      "hit": false,
      "t": 194166.64725000027,
      "d": 277.7777500000084,
      "v": 100
    },
    {
      "midi": 41,
      "hit": false,
      "t": 194444.42499999897,
      "d": 555.5554999999877,
      "v": 100
    },
    {
      "midi": 77,
      "hit": false,
      "t": 194444.42500000028,
      "d": 833.333249999996,
      "v": 100
    },
    {
      "midi": 48,
      "hit": false,
      "t": 194999.98049999896,
      "d": 555.5554999999877,
      "v": 100
    },
    {
      "midi": 77,
      "hit": false,
      "t": 195277.75825000028,
      "d": 277.7777500000084,
      "v": 100
    },
    {
      "midi": 57,
      "hit": false,
      "t": 195555.53599999895,
      "d": 555.5554999999877,
      "v": 100
    },
    {
      "midi": 79,
      "hit": false,
      "t": 195555.53600000028,
      "d": 277.7777500000084,
      "v": 100
    },
    {
      "midi": 77,
      "hit": false,
      "t": 195833.3137500003,
      "d": 277.7777500000084,
      "v": 100
    },
    {
      "midi": 43,
      "hit": false,
      "t": 196111.09149999893,
      "d": 555.5554999999877,
      "v": 100
    },
    {
      "midi": 79,
      "hit": false,
      "t": 196111.0915000003,
      "d": 1666.666499999992,
      "v": 100
    },
    {
      "midi": 50,
      "hit": false,
      "t": 196666.64699999892,
      "d": 555.5554999999877,
      "v": 100
    },
    {
      "midi": 58,
      "hit": false,
      "t": 197222.2024999989,
      "d": 555.5554999999877,
      "v": 100
    },
    {
      "midi": 55,
      "hit": false,
      "t": 197777.7579999989,
      "d": 555.5554999999877,
      "v": 100
    },
    {
      "midi": 82,
      "hit": false,
      "t": 197777.7580000003,
      "d": 555.5554999999877,
      "v": 100
    },
    {
      "midi": 94,
      "hit": false,
      "t": 197777.7580000003,
      "d": 555.5554999999877,
      "v": 100
    },
    {
      "midi": 62,
      "hit": false,
      "t": 198333.31349999888,
      "d": 555.5554999999877,
      "v": 100
    },
    {
      "midi": 82,
      "hit": false,
      "t": 198333.31350000028,
      "d": 277.7777500000084,
      "v": 100
    },
    {
      "midi": 94,
      "hit": false,
      "t": 198333.31350000028,
      "d": 277.7777500000084,
      "v": 100
    },
    {
      "midi": 82,
      "hit": false,
      "t": 198611.0912500003,
      "d": 277.7777500000084,
      "v": 100
    },
    {
      "midi": 94,
      "hit": false,
      "t": 198611.0912500003,
      "d": 277.7777500000084,
      "v": 100
    },
    {
      "midi": 70,
      "hit": false,
      "t": 198888.86899999887,
      "d": 555.5554999999877,
      "v": 100
    },
    {
      "midi": 82,
      "hit": false,
      "t": 198888.8690000003,
      "d": 277.7777500000084,
      "v": 100
    },
    {
      "midi": 94,
      "hit": false,
      "t": 198888.8690000003,
      "d": 277.7777500000084,
      "v": 100
    },
    {
      "midi": 84,
      "hit": false,
      "t": 199166.6467500003,
      "d": 277.7777500000084,
      "v": 100
    },
    {
      "midi": 96,
      "hit": false,
      "t": 199166.6467500003,
      "d": 277.7777500000084,
      "v": 100
    },
    {
      "midi": 60,
      "hit": false,
      "t": 199444.42449999886,
      "d": 555.5554999999877,
      "v": 100
    },
    {
      "midi": 84,
      "hit": false,
      "t": 199444.4245000003,
      "d": 833.333249999996,
      "v": 100
    },
    {
      "midi": 96,
      "hit": false,
      "t": 199444.4245000003,
      "d": 833.333249999996,
      "v": 100
    },
    {
      "midi": 67,
      "hit": false,
      "t": 199999.97999999885,
      "d": 555.5554999999877,
      "v": 100
    },
    {
      "midi": 82,
      "hit": false,
      "t": 200277.7577500003,
      "d": 277.7777500000084,
      "v": 100
    },
    {
      "midi": 94,
      "hit": false,
      "t": 200277.7577500003,
      "d": 277.7777500000084,
      "v": 100
    },
    {
      "midi": 75,
      "hit": false,
      "t": 200555.53549999883,
      "d": 555.5554999999877,
      "v": 100
    },
    {
      "midi": 81,
      "hit": false,
      "t": 200555.53550000032,
      "d": 277.7777500000084,
      "v": 100
    },
    {
      "midi": 93,
      "hit": false,
      "t": 200555.53550000032,
      "d": 277.7777500000084,
      "v": 100
    },
    {
      "midi": 79,
      "hit": false,
      "t": 200833.31325000033,
      "d": 277.7777500000084,
      "v": 100
    },
    {
      "midi": 91,
      "hit": false,
      "t": 200833.31325000033,
      "d": 277.7777500000084,
      "v": 100
    },
    {
      "midi": 53,
      "hit": false,
      "t": 201111.09099999882,
      "d": 555.5554999999877,
      "v": 100
    },
    {
      "midi": 77,
      "hit": false,
      "t": 201111.09100000034,
      "d": 833.333249999996,
      "v": 100
    },
    {
      "midi": 89,
      "hit": false,
      "t": 201111.09100000034,
      "d": 833.333249999996,
      "v": 100
    },
    {
      "midi": 60,
      "hit": false,
      "t": 201666.6464999988,
      "d": 555.5554999999877,
      "v": 100
    },
    {
      "midi": 77,
      "hit": false,
      "t": 201944.42425000033,
      "d": 277.7777500000084,
      "v": 100
    },
    {
      "midi": 89,
      "hit": false,
      "t": 201944.42425000033,
      "d": 277.7777500000084,
      "v": 100
    },
    {
      "midi": 69,
      "hit": false,
      "t": 202222.2019999988,
      "d": 555.5554999999877,
      "v": 100
    },
    {
      "midi": 79,
      "hit": false,
      "t": 202222.20200000034,
      "d": 277.7777500000084,
      "v": 100
    },
    {
      "midi": 91,
      "hit": false,
      "t": 202222.20200000034,
      "d": 277.7777500000084,
      "v": 100
    },
    {
      "midi": 77,
      "hit": false,
      "t": 202499.97975000035,
      "d": 277.7777500000084,
      "v": 100
    },
    {
      "midi": 89,
      "hit": false,
      "t": 202499.97975000035,
      "d": 277.7777500000084,
      "v": 100
    },
    {
      "midi": 58,
      "hit": false,
      "t": 202777.75749999878,
      "d": 555.5554999999877,
      "v": 100
    },
    {
      "midi": 74,
      "hit": false,
      "t": 202777.75750000036,
      "d": 1666.666499999992,
      "v": 100
    },
    {
      "midi": 86,
      "hit": false,
      "t": 202777.75750000036,
      "d": 1666.666499999992,
      "v": 100
    },
    {
      "midi": 70,
      "hit": false,
      "t": 203333.31299999877,
      "d": 555.5554999999877,
      "v": 100
    },
    {
      "midi": 57,
      "hit": false,
      "t": 203888.86849999876,
      "d": 555.5554999999877,
      "v": 100
    },
    {
      "midi": 69,
      "hit": false,
      "t": 203888.86849999876,
      "d": 555.5554999999877,
      "v": 100
    },
    {
      "midi": 55,
      "hit": false,
      "t": 204444.42399999875,
      "d": 555.5554999999877,
      "v": 100
    },
    {
      "midi": 67,
      "hit": false,
      "t": 204444.42399999875,
      "d": 555.5554999999877,
      "v": 100
    },
    {
      "midi": 82,
      "hit": false,
      "t": 204444.42400000035,
      "d": 555.5554999999877,
      "v": 100
    },
    {
      "midi": 94,
      "hit": false,
      "t": 204444.42400000035,
      "d": 555.5554999999877,
      "v": 100
    },
    {
      "midi": 62,
      "hit": false,
      "t": 204999.97949999874,
      "d": 555.5554999999877,
      "v": 100
    },
    {
      "midi": 82,
      "hit": false,
      "t": 204999.97950000034,
      "d": 277.7777500000084,
      "v": 100
    },
    {
      "midi": 94,
      "hit": false,
      "t": 204999.97950000034,
      "d": 277.7777500000084,
      "v": 100
    },
    {
      "midi": 82,
      "hit": false,
      "t": 205277.75725000034,
      "d": 277.7777500000084,
      "v": 100
    },
    {
      "midi": 94,
      "hit": false,
      "t": 205277.75725000034,
      "d": 277.7777500000084,
      "v": 100
    },
    {
      "midi": 70,
      "hit": false,
      "t": 205555.53499999872,
      "d": 555.5554999999877,
      "v": 100
    },
    {
      "midi": 82,
      "hit": false,
      "t": 205555.53500000035,
      "d": 277.7777500000084,
      "v": 100
    },
    {
      "midi": 94,
      "hit": false,
      "t": 205555.53500000035,
      "d": 277.7777500000084,
      "v": 100
    },
    {
      "midi": 84,
      "hit": false,
      "t": 205833.31275000036,
      "d": 277.7777500000084,
      "v": 100
    },
    {
      "midi": 96,
      "hit": false,
      "t": 205833.31275000036,
      "d": 277.7777500000084,
      "v": 100
    },
    {
      "midi": 60,
      "hit": false,
      "t": 206111.0904999987,
      "d": 555.5554999999877,
      "v": 100
    },
    {
      "midi": 84,
      "hit": false,
      "t": 206111.09050000037,
      "d": 833.333249999996,
      "v": 100
    },
    {
      "midi": 96,
      "hit": false,
      "t": 206111.09050000037,
      "d": 833.333249999996,
      "v": 100
    },
    {
      "midi": 67,
      "hit": false,
      "t": 206666.6459999987,
      "d": 555.5554999999877,
      "v": 100
    },
    {
      "midi": 82,
      "hit": false,
      "t": 206944.42375000037,
      "d": 277.7777500000084,
      "v": 100
    },
    {
      "midi": 94,
      "hit": false,
      "t": 206944.42375000037,
      "d": 277.7777500000084,
      "v": 100
    },
    {
      "midi": 75,
      "hit": false,
      "t": 207222.2014999987,
      "d": 555.5554999999877,
      "v": 100
    },
    {
      "midi": 81,
      "hit": false,
      "t": 207222.20150000037,
      "d": 277.7777500000084,
      "v": 100
    },
    {
      "midi": 93,
      "hit": false,
      "t": 207222.20150000037,
      "d": 277.7777500000084,
      "v": 100
    },
    {
      "midi": 79,
      "hit": false,
      "t": 207499.97925000038,
      "d": 277.7777500000084,
      "v": 100
    },
    {
      "midi": 91,
      "hit": false,
      "t": 207499.97925000038,
      "d": 277.7777500000084,
      "v": 100
    },
    {
      "midi": 53,
      "hit": false,
      "t": 207777.75699999867,
      "d": 555.5554999999877,
      "v": 100
    },
    {
      "midi": 77,
      "hit": false,
      "t": 207777.7570000004,
      "d": 833.333249999996,
      "v": 100
    },
    {
      "midi": 89,
      "hit": false,
      "t": 207777.7570000004,
      "d": 833.333249999996,
      "v": 100
    },
    {
      "midi": 60,
      "hit": false,
      "t": 208333.31249999866,
      "d": 555.5554999999877,
      "v": 100
    },
    {
      "midi": 77,
      "hit": false,
      "t": 208611.0902500004,
      "d": 277.7777500000084,
      "v": 100
    },
    {
      "midi": 89,
      "hit": false,
      "t": 208611.0902500004,
      "d": 277.7777500000084,
      "v": 100
    },
    {
      "midi": 69,
      "hit": false,
      "t": 208888.86799999865,
      "d": 555.5554999999877,
      "v": 100
    },
    {
      "midi": 79,
      "hit": false,
      "t": 208888.8680000004,
      "d": 277.7777500000084,
      "v": 100
    },
    {
      "midi": 91,
      "hit": false,
      "t": 208888.8680000004,
      "d": 277.7777500000084,
      "v": 100
    },
    {
      "midi": 77,
      "hit": false,
      "t": 209166.6457500004,
      "d": 277.7777500000084,
      "v": 100
    },
    {
      "midi": 89,
      "hit": false,
      "t": 209166.6457500004,
      "d": 277.7777500000084,
      "v": 100
    },
    {
      "midi": 55,
      "hit": false,
      "t": 209444.42349999864,
      "d": 555.5554999999877,
      "v": 100
    },
    {
      "midi": 79,
      "hit": false,
      "t": 209444.4235000004,
      "d": 1666.666499999992,
      "v": 100
    },
    {
      "midi": 91,
      "hit": false,
      "t": 209444.4235000004,
      "d": 1666.666499999992,
      "v": 100
    },
    {
      "midi": 62,
      "hit": false,
      "t": 209999.97899999862,
      "d": 555.5554999999877,
      "v": 100
    },
    {
      "midi": 70,
      "hit": false,
      "t": 210555.5344999986,
      "d": 555.5554999999877,
      "v": 100
    },
    {
      "midi": 43,
      "hit": false,
      "t": 211111.0899999986,
      "d": 555.5554999999877,
      "v": 100
    },
    {
      "midi": 55,
      "hit": false,
      "t": 211111.0899999986,
      "d": 555.5554999999877,
      "v": 100
    },
    {
      "midi": 82,
      "hit": false,
      "t": 211111.0900000004,
      "d": 833.333249999996,
      "v": 100
    },
    {
      "midi": 50,
      "hit": false,
      "t": 211666.6454999986,
      "d": 555.5554999999877,
      "v": 100
    },
    {
      "midi": 82,
      "hit": false,
      "t": 211944.4232500004,
      "d": 277.7777500000084,
      "v": 100
    },
    {
      "midi": 58,
      "hit": false,
      "t": 212222.20099999857,
      "d": 555.5554999999877,
      "v": 100
    },
    {
      "midi": 82,
      "hit": false,
      "t": 212222.2010000004,
      "d": 277.7777500000084,
      "v": 100
    },
    {
      "midi": 84,
      "hit": false,
      "t": 212499.97875000042,
      "d": 277.7777500000084,
      "v": 100
    },
    {
      "midi": 48,
      "hit": false,
      "t": 212777.75649999856,
      "d": 555.5554999999877,
      "v": 100
    },
    {
      "midi": 84,
      "hit": false,
      "t": 212777.75650000043,
      "d": 833.333249999996,
      "v": 100
    },
    {
      "midi": 55,
      "hit": false,
      "t": 213333.31199999855,
      "d": 555.5554999999877,
      "v": 100
    },
    {
      "midi": 82,
      "hit": false,
      "t": 213611.08975000042,
      "d": 277.7777500000084,
      "v": 100
    },
    {
      "midi": 63,
      "hit": false,
      "t": 213888.86749999854,
      "d": 555.5554999999877,
      "v": 100
    },
    {
      "midi": 81,
      "hit": false,
      "t": 213888.86750000043,
      "d": 277.7777500000084,
      "v": 100
    },
    {
      "midi": 79,
      "hit": false,
      "t": 214166.64525000044,
      "d": 277.7777500000084,
      "v": 100
    },
    {
      "midi": 41,
      "hit": false,
      "t": 214444.42299999853,
      "d": 555.5554999999877,
      "v": 100
    },
    {
      "midi": 77,
      "hit": false,
      "t": 214444.42300000045,
      "d": 833.333249999996,
      "v": 100
    },
    {
      "midi": 48,
      "hit": false,
      "t": 214999.9784999985,
      "d": 555.5554999999877,
      "v": 100
    },
    {
      "midi": 77,
      "hit": false,
      "t": 215277.75625000044,
      "d": 277.7777500000084,
      "v": 100
    },
    {
      "midi": 57,
      "hit": false,
      "t": 215555.5339999985,
      "d": 555.5554999999877,
      "v": 100
    },
    {
      "midi": 79,
      "hit": false,
      "t": 215555.53400000045,
      "d": 277.7777500000084,
      "v": 100
    },
    {
      "midi": 77,
      "hit": false,
      "t": 215833.31175000046,
      "d": 277.7777500000084,
      "v": 100
    },
    {
      "midi": 46,
      "hit": false,
      "t": 216111.0894999985,
      "d": 555.5554999999877,
      "v": 100
    },
    {
      "midi": 74,
      "hit": false,
      "t": 216111.08950000047,
      "d": 1666.666499999992,
      "v": 100
    },
    {
      "midi": 58,
      "hit": false,
      "t": 216666.64499999848,
      "d": 555.5554999999877,
      "v": 100
    },
    {
      "midi": 45,
      "hit": false,
      "t": 217222.20049999846,
      "d": 555.5554999999877,
      "v": 100
    },
    {
      "midi": 57,
      "hit": false,
      "t": 217222.20049999846,
      "d": 555.5554999999877,
      "v": 100
    },
    {
      "midi": 43,
      "hit": false,
      "t": 217777.75599999845,
      "d": 555.5554999999877,
      "v": 100
    },
    {
      "midi": 55,
      "hit": false,
      "t": 217777.75599999845,
      "d": 555.5554999999877,
      "v": 100
    },
    {
      "midi": 82,
      "hit": false,
      "t": 217777.75600000046,
      "d": 555.5554999999877,
      "v": 100
    },
    {
      "midi": 50,
      "hit": false,
      "t": 218333.31149999844,
      "d": 555.5554999999877,
      "v": 100
    },
    {
      "midi": 82,
      "hit": false,
      "t": 218333.31150000045,
      "d": 277.7777500000084,
      "v": 100
    },
    {
      "midi": 82,
      "hit": false,
      "t": 218611.08925000046,
      "d": 277.7777500000084,
      "v": 100
    },
    {
      "midi": 58,
      "hit": false,
      "t": 218888.86699999843,
      "d": 555.5554999999877,
      "v": 100
    },
    {
      "midi": 82,
      "hit": false,
      "t": 218888.86700000046,
      "d": 277.7777500000084,
      "v": 100
    },
    {
      "midi": 84,
      "hit": false,
      "t": 219166.64475000047,
      "d": 277.7777500000084,
      "v": 100
    },
    {
      "midi": 48,
      "hit": false,
      "t": 219444.4224999984,
      "d": 555.5554999999877,
      "v": 100
    },
    {
      "midi": 84,
      "hit": false,
      "t": 219444.42250000048,
      "d": 833.333249999996,
      "v": 100
    },
    {
      "midi": 55,
      "hit": false,
      "t": 219999.9779999984,
      "d": 555.5554999999877,
      "v": 100
    },
    {
      "midi": 82,
      "hit": false,
      "t": 220277.75575000048,
      "d": 277.7777500000084,
      "v": 100
    },
    {
      "midi": 63,
      "hit": false,
      "t": 220555.5334999984,
      "d": 555.5554999999877,
      "v": 100
    },
    {
      "midi": 81,
      "hit": false,
      "t": 220555.53350000049,
      "d": 277.7777500000084,
      "v": 100
    },
    {
      "midi": 79,
      "hit": false,
      "t": 220833.3112500005,
      "d": 277.7777500000084,
      "v": 100
    },
    {
      "midi": 41,
      "hit": false,
      "t": 221111.08899999838,
      "d": 555.5554999999877,
      "v": 100
    },
    {
      "midi": 77,
      "hit": false,
      "t": 221111.0890000005,
      "d": 833.333249999996,
      "v": 100
    },
    {
      "midi": 48,
      "hit": false,
      "t": 221666.64449999837,
      "d": 555.5554999999877,
      "v": 100
    },
    {
      "midi": 77,
      "hit": false,
      "t": 221944.4222500005,
      "d": 277.7777500000084,
      "v": 100
    },
    {
      "midi": 57,
      "hit": false,
      "t": 222222.19999999835,
      "d": 555.5554999999877,
      "v": 100
    },
    {
      "midi": 79,
      "hit": false,
      "t": 222222.2000000005,
      "d": 277.7777500000084,
      "v": 100
    },
    {
      "midi": 77,
      "hit": false,
      "t": 222499.97775000051,
      "d": 277.7777500000084,
      "v": 100
    },
    {
      "midi": 43,
      "hit": false,
      "t": 222777.75549999834,
      "d": 555.5554999999877,
      "v": 100
    },
    {
      "midi": 79,
      "hit": false,
      "t": 222777.75550000052,
      "d": 1666.666499999992,
      "v": 100
    },
    {
      "midi": 50,
      "hit": false,
      "t": 223333.31099999833,
      "d": 555.5554999999877,
      "v": 100
    },
    {
      "midi": 58,
      "hit": false,
      "t": 223888.86649999832,
      "d": 555.5554999999877,
      "v": 100
    },
    {
      "midi": 55,
      "hit": false,
      "t": 224444.4219999983,
      "d": 555.5554999999877,
      "v": 100
    },
    {
      "midi": 82,
      "hit": false,
      "t": 224444.42200000052,
      "d": 555.5554999999877,
      "v": 100
    },
    {
      "midi": 94,
      "hit": false,
      "t": 224444.42200000052,
      "d": 555.5554999999877,
      "v": 100
    },
    {
      "midi": 62,
      "hit": false,
      "t": 224999.9774999983,
      "d": 555.5554999999877,
      "v": 100
    },
    {
      "midi": 82,
      "hit": false,
      "t": 224999.9775000005,
      "d": 277.7777500000084,
      "v": 100
    },
    {
      "midi": 94,
      "hit": false,
      "t": 224999.9775000005,
      "d": 277.7777500000084,
      "v": 100
    },
    {
      "midi": 82,
      "hit": false,
      "t": 225277.7552500005,
      "d": 277.7777500000084,
      "v": 100
    },
    {
      "midi": 94,
      "hit": false,
      "t": 225277.7552500005,
      "d": 277.7777500000084,
      "v": 100
    },
    {
      "midi": 70,
      "hit": false,
      "t": 225555.53299999828,
      "d": 555.5554999999877,
      "v": 100
    },
    {
      "midi": 82,
      "hit": false,
      "t": 225555.53300000052,
      "d": 277.7777500000084,
      "v": 100
    },
    {
      "midi": 94,
      "hit": false,
      "t": 225555.53300000052,
      "d": 277.7777500000084,
      "v": 100
    },
    {
      "midi": 84,
      "hit": false,
      "t": 225833.31075000053,
      "d": 277.7777500000084,
      "v": 100
    },
    {
      "midi": 96,
      "hit": false,
      "t": 225833.31075000053,
      "d": 277.7777500000084,
      "v": 100
    },
    {
      "midi": 60,
      "hit": false,
      "t": 226111.08849999827,
      "d": 555.5554999999877,
      "v": 100
    },
    {
      "midi": 84,
      "hit": false,
      "t": 226111.08850000054,
      "d": 833.333249999996,
      "v": 100
    },
    {
      "midi": 96,
      "hit": false,
      "t": 226111.08850000054,
      "d": 833.333249999996,
      "v": 100
    },
    {
      "midi": 67,
      "hit": false,
      "t": 226666.64399999825,
      "d": 555.5554999999877,
      "v": 100
    },
    {
      "midi": 82,
      "hit": false,
      "t": 226944.42175000053,
      "d": 277.7777500000084,
      "v": 100
    },
    {
      "midi": 94,
      "hit": false,
      "t": 226944.42175000053,
      "d": 277.7777500000084,
      "v": 100
    },
    {
      "midi": 75,
      "hit": false,
      "t": 227222.19949999824,
      "d": 555.5554999999877,
      "v": 100
    },
    {
      "midi": 81,
      "hit": false,
      "t": 227222.19950000054,
      "d": 277.7777500000084,
      "v": 100
    },
    {
      "midi": 93,
      "hit": false,
      "t": 227222.19950000054,
      "d": 277.7777500000084,
      "v": 100
    },
    {
      "midi": 79,
      "hit": false,
      "t": 227499.97725000055,
      "d": 277.7777500000084,
      "v": 100
    },
    {
      "midi": 91,
      "hit": false,
      "t": 227499.97725000055,
      "d": 277.7777500000084,
      "v": 100
    },
    {
      "midi": 53,
      "hit": false,
      "t": 227777.75499999823,
      "d": 555.5554999999877,
      "v": 100
    },
    {
      "midi": 77,
      "hit": false,
      "t": 227777.75500000056,
      "d": 833.333249999996,
      "v": 100
    },
    {
      "midi": 89,
      "hit": false,
      "t": 227777.75500000056,
      "d": 833.333249999996,
      "v": 100
    },
    {
      "midi": 60,
      "hit": false,
      "t": 228333.31049999822,
      "d": 555.5554999999877,
      "v": 100
    },
    {
      "midi": 77,
      "hit": false,
      "t": 228611.08825000055,
      "d": 277.7777500000084,
      "v": 100
    },
    {
      "midi": 89,
      "hit": false,
      "t": 228611.08825000055,
      "d": 277.7777500000084,
      "v": 100
    },
    {
      "midi": 69,
      "hit": false,
      "t": 228888.8659999982,
      "d": 555.5554999999877,
      "v": 100
    },
    {
      "midi": 79,
      "hit": false,
      "t": 228888.86600000056,
      "d": 277.7777500000084,
      "v": 100
    },
    {
      "midi": 91,
      "hit": false,
      "t": 228888.86600000056,
      "d": 277.7777500000084,
      "v": 100
    },
    {
      "midi": 77,
      "hit": false,
      "t": 229166.64375000057,
      "d": 277.7777500000084,
      "v": 100
    },
    {
      "midi": 89,
      "hit": false,
      "t": 229166.64375000057,
      "d": 277.7777500000084,
      "v": 100
    },
    {
      "midi": 58,
      "hit": false,
      "t": 229444.4214999982,
      "d": 555.5554999999877,
      "v": 100
    },
    {
      "midi": 74,
      "hit": false,
      "t": 229444.42150000058,
      "d": 1666.666499999992,
      "v": 100
    },
    {
      "midi": 86,
      "hit": false,
      "t": 229444.42150000058,
      "d": 1666.666499999992,
      "v": 100
    },
    {
      "midi": 70,
      "hit": false,
      "t": 229999.97699999818,
      "d": 555.5554999999877,
      "v": 100
    },
    {
      "midi": 57,
      "hit": false,
      "t": 230555.53249999817,
      "d": 555.5554999999877,
      "v": 100
    },
    {
      "midi": 69,
      "hit": false,
      "t": 230555.53249999817,
      "d": 555.5554999999877,
      "v": 100
    },
    {
      "midi": 55,
      "hit": false,
      "t": 231111.08799999816,
      "d": 555.5554999999877,
      "v": 100
    },
    {
      "midi": 67,
      "hit": false,
      "t": 231111.08799999816,
      "d": 555.5554999999877,
      "v": 100
    },
    {
      "midi": 82,
      "hit": false,
      "t": 231111.08800000057,
      "d": 555.5554999999877,
      "v": 100
    },
    {
      "midi": 94,
      "hit": false,
      "t": 231111.08800000057,
      "d": 555.5554999999877,
      "v": 100
    },
    {
      "midi": 62,
      "hit": false,
      "t": 231666.64349999814,
      "d": 555.5554999999877,
      "v": 100
    },
    {
      "midi": 82,
      "hit": false,
      "t": 231666.64350000056,
      "d": 277.7777500000084,
      "v": 100
    },
    {
      "midi": 94,
      "hit": false,
      "t": 231666.64350000056,
      "d": 277.7777500000084,
      "v": 100
    },
    {
      "midi": 82,
      "hit": false,
      "t": 231944.42125000057,
      "d": 277.7777500000084,
      "v": 100
    },
    {
      "midi": 94,
      "hit": false,
      "t": 231944.42125000057,
      "d": 277.7777500000084,
      "v": 100
    },
    {
      "midi": 70,
      "hit": false,
      "t": 232222.19899999813,
      "d": 555.5554999999877,
      "v": 100
    },
    {
      "midi": 82,
      "hit": false,
      "t": 232222.19900000058,
      "d": 277.7777500000084,
      "v": 100
    },
    {
      "midi": 94,
      "hit": false,
      "t": 232222.19900000058,
      "d": 277.7777500000084,
      "v": 100
    },
    {
      "midi": 84,
      "hit": false,
      "t": 232499.97675000058,
      "d": 277.7777500000084,
      "v": 100
    },
    {
      "midi": 96,
      "hit": false,
      "t": 232499.97675000058,
      "d": 277.7777500000084,
      "v": 100
    },
    {
      "midi": 60,
      "hit": false,
      "t": 232777.75449999812,
      "d": 555.5554999999877,
      "v": 100
    },
    {
      "midi": 84,
      "hit": false,
      "t": 232777.7545000006,
      "d": 833.333249999996,
      "v": 100
    },
    {
      "midi": 96,
      "hit": false,
      "t": 232777.7545000006,
      "d": 833.333249999996,
      "v": 100
    },
    {
      "midi": 67,
      "hit": false,
      "t": 233333.3099999981,
      "d": 555.5554999999877,
      "v": 100
    },
    {
      "midi": 82,
      "hit": false,
      "t": 233611.0877500006,
      "d": 277.7777500000084,
      "v": 100
    },
    {
      "midi": 94,
      "hit": false,
      "t": 233611.0877500006,
      "d": 277.7777500000084,
      "v": 100
    },
    {
      "midi": 75,
      "hit": false,
      "t": 233888.8654999981,
      "d": 555.5554999999877,
      "v": 100
    },
    {
      "midi": 81,
      "hit": false,
      "t": 233888.8655000006,
      "d": 277.7777500000084,
      "v": 100
    },
    {
      "midi": 93,
      "hit": false,
      "t": 233888.8655000006,
      "d": 277.7777500000084,
      "v": 100
    },
    {
      "midi": 79,
      "hit": false,
      "t": 234166.6432500006,
      "d": 277.7777500000084,
      "v": 100
    },
    {
      "midi": 91,
      "hit": false,
      "t": 234166.6432500006,
      "d": 277.7777500000084,
      "v": 100
    },
    {
      "midi": 53,
      "hit": false,
      "t": 234444.42099999808,
      "d": 555.5554999999877,
      "v": 100
    },
    {
      "midi": 77,
      "hit": false,
      "t": 234444.4210000006,
      "d": 833.333249999996,
      "v": 100
    },
    {
      "midi": 89,
      "hit": false,
      "t": 234444.4210000006,
      "d": 833.333249999996,
      "v": 100
    },
    {
      "midi": 60,
      "hit": false,
      "t": 234999.97649999807,
      "d": 555.5554999999877,
      "v": 100
    },
    {
      "midi": 77,
      "hit": false,
      "t": 235277.7542500006,
      "d": 277.7777500000084,
      "v": 100
    },
    {
      "midi": 89,
      "hit": false,
      "t": 235277.7542500006,
      "d": 277.7777500000084,
      "v": 100
    },
    {
      "midi": 69,
      "hit": false,
      "t": 235555.53199999806,
      "d": 555.5554999999877,
      "v": 100
    },
    {
      "midi": 79,
      "hit": false,
      "t": 235555.53200000062,
      "d": 277.7777500000084,
      "v": 100
    },
    {
      "midi": 91,
      "hit": false,
      "t": 235555.53200000062,
      "d": 277.7777500000084,
      "v": 100
    },
    {
      "midi": 77,
      "hit": false,
      "t": 235833.30975000063,
      "d": 277.7777500000084,
      "v": 100
    },
    {
      "midi": 89,
      "hit": false,
      "t": 235833.30975000063,
      "d": 277.7777500000084,
      "v": 100
    },
    {
      "midi": 55,
      "hit": false,
      "t": 236111.08749999804,
      "d": 555.5554999999877,
      "v": 100
    },
    {
      "midi": 79,
      "hit": false,
      "t": 236111.08750000063,
      "d": 4444.443999999989,
      "v": 100
    },
    {
      "midi": 91,
      "hit": false,
      "t": 236111.08750000063,
      "d": 4444.443999999989,
      "v": 100
    },
    {
      "midi": 62,
      "hit": false,
      "t": 236666.64299999803,
      "d": 555.5554999999877,
      "v": 100
    },
    {
      "midi": 70,
      "hit": false,
      "t": 237222.19849999802,
      "d": 555.5554999999877,
      "v": 100
    },
    {
      "midi": 74,
      "hit": false,
      "t": 237777.753999998,
      "d": 555.5554999999877,
      "v": 100
    },
    {
      "midi": 79,
      "hit": false,
      "t": 238333.309499998,
      "d": 555.5554999999877,
      "v": 100
    },
    {
      "midi": 82,
      "hit": false,
      "t": 238888.86499999798,
      "d": 555.5554999999877,
      "v": 100
    },
    {
      "midi": 86,
      "hit": false,
      "t": 239444.42049999797,
      "d": 833.333249999996,
      "v": 100
    },
    {
      "midi": 67,
      "hit": false,
      "t": 240277.75374999797,
      "d": 277.7777500000084,
      "v": 100
    },
    {
      "midi": 70,
      "hit": false,
      "t": 240555.53149999797,
      "d": 277.7777500000084,
      "v": 100
    },
    {
      "midi": 74,
      "hit": false,
      "t": 240833.30924999798,
      "d": 277.7777500000084,
      "v": 100
    },
    {
      "midi": 79,
      "hit": false,
      "t": 241111.086999998,
      "d": 277.7777500000084,
      "v": 100
    }
  ]
}