{
  "jsonPath": "Ambient/Easy Listening/Richard Clayderman/piano-concerto-no-1-in-b-flat-minor-op-23.json",
  "path": "Ambient\\Easy Listening\\Richard Clayderman\\Piano Concerto No 1 in B-flat minor_ Op 23.mid",
  "name": "Piano Concerto No 1 in B-flat minor_ Op 23",
  "difficulty": "Advanced",
  "bpm": 86.00005160003096,
  "notes": [
    {
      "midi": 44,
      "hit": false,
      "t": 18534.46916666667,
      "d": 129.31024999999863,
      "v": 114
    },
    {
      "midi": 49,
      "hit": false,
      "t": 18577.572583333334,
      "d": 120.68956666666782,
      "v": 118
    },
    {
      "midi": 53,
      "hit": false,
      "t": 18603.434633333334,
      "d": 155.172300000002,
      "v": 120
    },
    {
      "midi": 37,
      "hit": false,
      "t": 18655.158733333334,
      "d": 155.172300000002,
      "v": 125
    },
    {
      "midi": 61,
      "hit": false,
      "t": 18655.158733333334,
      "d": 155.172300000002,
      "v": 127
    },
    {
      "midi": 56,
      "hit": false,
      "t": 18663.779416666668,
      "d": 137.9309333333331,
      "v": 125
    },
    {
      "midi": 53,
      "hit": false,
      "t": 19439.64091666667,
      "d": 129.31024999999863,
      "v": 88
    },
    {
      "midi": 56,
      "hit": false,
      "t": 19482.744333333336,
      "d": 137.9309333333331,
      "v": 90
    },
    {
      "midi": 61,
      "hit": false,
      "t": 19560.330483333335,
      "d": 77.58614999999918,
      "v": 101
    },
    {
      "midi": 65,
      "hit": false,
      "t": 19612.054583333334,
      "d": 103.4481999999989,
      "v": 105
    },
    {
      "midi": 85,
      "hit": false,
      "t": 19681.02005,
      "d": 370.6893833333379,
      "v": 117
    },
    {
      "midi": 73,
      "hit": false,
      "t": 19689.640733333334,
      "d": 198.275716666667,
      "v": 118
    },
    {
      "midi": 77,
      "hit": false,
      "t": 19689.640733333334,
      "d": 258.6205000000009,
      "v": 118
    },
    {
      "midi": 80,
      "hit": false,
      "t": 19689.640733333334,
      "d": 293.1032333333351,
      "v": 118
    },
    {
      "midi": 68,
      "hit": false,
      "t": 19698.261416666668,
      "d": 94.82751666666445,
      "v": 118
    },
    {
      "midi": 61,
      "hit": false,
      "t": 20491.364283333336,
      "d": 172.41366666666727,
      "v": 77
    },
    {
      "midi": 65,
      "hit": false,
      "t": 20543.088383333336,
      "d": 86.20683333333363,
      "v": 90
    },
    {
      "midi": 77,
      "hit": false,
      "t": 20568.950433333335,
      "d": 327.58596666666926,
      "v": 94
    },
    {
      "midi": 68,
      "hit": false,
      "t": 20577.57111666667,
      "d": 120.68956666666782,
      "v": 94
    },
    {
      "midi": 80,
      "hit": false,
      "t": 20603.43316666667,
      "d": 310.34460000000036,
      "v": 102
    },
    {
      "midi": 73,
      "hit": false,
      "t": 20637.915900000004,
      "d": 112.06888333333336,
      "v": 105
    },
    {
      "midi": 85,
      "hit": false,
      "t": 20646.536583333338,
      "d": 293.10323333333145,
      "v": 105
    },
    {
      "midi": 89,
      "hit": false,
      "t": 20706.881366666672,
      "d": 241.379133333332,
      "v": 115
    },
    {
      "midi": 37,
      "hit": false,
      "t": 21629.29448333334,
      "d": 137.9309333333331,
      "v": 113
    },
    {
      "midi": 53,
      "hit": false,
      "t": 21646.535850000004,
      "d": 163.7929833333328,
      "v": 114
    },
    {
      "midi": 44,
      "hit": false,
      "t": 21672.397900000004,
      "d": 163.7929833333328,
      "v": 115
    },
    {
      "midi": 49,
      "hit": false,
      "t": 21698.259950000003,
      "d": 120.68956666666782,
      "v": 119
    },
    {
      "midi": 56,
      "hit": false,
      "t": 21706.880633333338,
      "d": 163.7929833333328,
      "v": 117
    },
    {
      "midi": 61,
      "hit": false,
      "t": 21741.363366666672,
      "d": 189.65503333333254,
      "v": 123
    },
    {
      "midi": 53,
      "hit": false,
      "t": 22534.466233333336,
      "d": 94.82751666666809,
      "v": 85
    },
    {
      "midi": 56,
      "hit": false,
      "t": 22543.08691666667,
      "d": 120.68956666666418,
      "v": 85
    },
    {
      "midi": 61,
      "hit": false,
      "t": 22586.190333333336,
      "d": 94.82751666666445,
      "v": 87
    },
    {
      "midi": 73,
      "hit": false,
      "t": 22612.052383333335,
      "d": 146.55161666666754,
      "v": 89
    },
    {
      "midi": 65,
      "hit": false,
      "t": 22620.67306666667,
      "d": 129.31024999999863,
      "v": 89
    },
    {
      "midi": 77,
      "hit": false,
      "t": 22646.53511666667,
      "d": 163.7929833333328,
      "v": 91
    },
    {
      "midi": 80,
      "hit": false,
      "t": 22715.500583333334,
      "d": 120.68956666666782,
      "v": 98
    },
    {
      "midi": 68,
      "hit": false,
      "t": 22724.12126666667,
      "d": 137.9309333333331,
      "v": 102
    },
    {
      "midi": 85,
      "hit": false,
      "t": 22784.466050000003,
      "d": 293.10323333333145,
      "v": 107
    },
    {
      "midi": 61,
      "hit": false,
      "t": 23543.086183333333,
      "d": 146.5516166666639,
      "v": 96
    },
    {
      "midi": 77,
      "hit": false,
      "t": 23560.327549999998,
      "d": 155.17229999999836,
      "v": 96
    },
    {
      "midi": 65,
      "hit": false,
      "t": 23612.051649999998,
      "d": 163.7929833333328,
      "v": 99
    },
    {
      "midi": 80,
      "hit": false,
      "t": 23629.293016666663,
      "d": 146.55161666666754,
      "v": 100
    },
    {
      "midi": 68,
      "hit": false,
      "t": 23637.913699999997,
      "d": 103.4481999999989,
      "v": 101
    },
    {
      "midi": 73,
      "hit": false,
      "t": 23672.39643333333,
      "d": 120.68956666666418,
      "v": 104
    },
    {
      "midi": 85,
      "hit": false,
      "t": 23672.39643333333,
      "d": 120.68956666666418,
      "v": 104
    },
    {
      "midi": 89,
      "hit": false,
      "t": 23741.361899999996,
      "d": 318.9652833333312,
      "v": 116
    },
    {
      "midi": 37,
      "hit": false,
      "t": 24663.77501666666,
      "d": 146.5516166666639,
      "v": 98
    },
    {
      "midi": 53,
      "hit": false,
      "t": 24681.016383333324,
      "d": 155.17229999999836,
      "v": 94
    },
    {
      "midi": 44,
      "hit": false,
      "t": 24732.740483333324,
      "d": 137.9309333333331,
      "v": 85
    },
    {
      "midi": 56,
      "hit": false,
      "t": 24749.98184999999,
      "d": 137.9309333333331,
      "v": 107
    },
    {
      "midi": 49,
      "hit": false,
      "t": 24801.70594999999,
      "d": 120.68956666666782,
      "v": 91
    },
    {
      "midi": 61,
      "hit": false,
      "t": 24818.947316666658,
      "d": 172.41366666666727,
      "v": 116
    },
    {
      "midi": 53,
      "hit": false,
      "t": 25517.222666666657,
      "d": 86.20683333333363,
      "v": 79
    },
    {
      "midi": 56,
      "hit": false,
      "t": 25551.70539999999,
      "d": 112.06888333333336,
      "v": 81
    },
    {
      "midi": 61,
      "hit": false,
      "t": 25612.050183333326,
      "d": 103.44820000000254,
      "v": 83
    },
    {
      "midi": 73,
      "hit": false,
      "t": 25637.912233333325,
      "d": 129.31025000000227,
      "v": 86
    },
    {
      "midi": 65,
      "hit": false,
      "t": 25672.39496666666,
      "d": 120.68956666666782,
      "v": 87
    },
    {
      "midi": 77,
      "hit": false,
      "t": 25706.877699999994,
      "d": 137.9309333333331,
      "v": 89
    },
    {
      "midi": 80,
      "hit": false,
      "t": 25775.843166666662,
      "d": 120.68956666666418,
      "v": 94
    },
    {
      "midi": 68,
      "hit": false,
      "t": 25793.084533333327,
      "d": 103.4481999999989,
      "v": 95
    },
    {
      "midi": 85,
      "hit": false,
      "t": 25836.187949999992,
      "d": 387.93074999999953,
      "v": 97
    },
    {
      "midi": 61,
      "hit": false,
      "t": 26560.325349999992,
      "d": 112.06888333333336,
      "v": 88
    },
    {
      "midi": 77,
      "hit": false,
      "t": 26612.04944999999,
      "d": 137.9309333333331,
      "v": 86
    },
    {
      "midi": 65,
      "hit": false,
      "t": 26646.532183333326,
      "d": 137.9309333333331,
      "v": 86
    },
    {
      "midi": 68,
      "hit": false,
      "t": 26672.394233333325,
      "d": 103.4481999999989,
      "v": 89
    },
    {
      "midi": 80,
      "hit": false,
      "t": 26672.394233333325,
      "d": 146.55161666666754,
      "v": 89
    },
    {
      "midi": 73,
      "hit": false,
      "t": 26732.73901666666,
      "d": 112.06888333333336,
      "v": 92
    },
    {
      "midi": 85,
      "hit": false,
      "t": 26767.22174999999,
      "d": 137.93093333333672,
      "v": 94
    },
    {
      "midi": 89,
      "hit": false,
      "t": 26844.807899999993,
      "d": 198.275716666667,
      "v": 106
    },
    {
      "midi": 37,
      "hit": false,
      "t": 27767.22101666666,
      "d": 155.17229999999836,
      "v": 94
    },
    {
      "midi": 53,
      "hit": false,
      "t": 27784.462383333324,
      "d": 155.172300000002,
      "v": 95
    },
    {
      "midi": 44,
      "hit": false,
      "t": 27827.56579999999,
      "d": 172.4136666666709,
      "v": 96
    },
    {
      "midi": 56,
      "hit": false,
      "t": 27853.42784999999,
      "d": 155.17230000000563,
      "v": 97
    },
    {
      "midi": 49,
      "hit": false,
      "t": 27913.772633333323,
      "d": 137.93093333333672,
      "v": 110
    },
    {
      "midi": 61,
      "hit": false,
      "t": 27931.013999999992,
      "d": 189.65503333333618,
      "v": 110
    },
    {
      "midi": 53,
      "hit": false,
      "t": 28706.875499999995,
      "d": 120.68956666666418,
      "v": 81
    },
    {
      "midi": 56,
      "hit": false,
      "t": 28749.97891666666,
      "d": 112.06888333333336,
      "v": 83
    },
    {
      "midi": 73,
      "hit": false,
      "t": 28767.220283333325,
      "d": 249.99981666666645,
      "v": 83
    },
    {
      "midi": 61,
      "hit": false,
      "t": 28818.944383333324,
      "d": 86.20683333333727,
      "v": 85
    },
    {
      "midi": 77,
      "hit": false,
      "t": 28853.42711666666,
      "d": 249.99981666666645,
      "v": 88
    },
    {
      "midi": 65,
      "hit": false,
      "t": 28870.668483333327,
      "d": 249.9998166666628,
      "v": 89
    },
    {
      "midi": 68,
      "hit": false,
      "t": 28905.15121666666,
      "d": 353.4480166666617,
      "v": 93
    },
    {
      "midi": 80,
      "hit": false,
      "t": 28922.392583333327,
      "d": 249.9998166666628,
      "v": 94
    },
    {
      "midi": 85,
      "hit": false,
      "t": 28965.495999999992,
      "d": 344.8273333333309,
      "v": 99
    },
    {
      "midi": 61,
      "hit": false,
      "t": 29775.84023333332,
      "d": 163.79298333333645,
      "v": 86
    },
    {
      "midi": 77,
      "hit": false,
      "t": 29844.80569999999,
      "d": 249.9998166666628,
      "v": 90
    },
    {
      "midi": 65,
      "hit": false,
      "t": 29879.288433333324,
      "d": 249.9998166666628,
      "v": 92
    },
    {
      "midi": 68,
      "hit": false,
      "t": 29905.150483333324,
      "d": 249.9998166666628,
      "v": 94
    },
    {
      "midi": 80,
      "hit": false,
      "t": 29913.77116666666,
      "d": 249.9998166666628,
      "v": 95
    },
    {
      "midi": 85,
      "hit": false,
      "t": 29956.874583333323,
      "d": 172.41366666666363,
      "v": 106
    },
    {
      "midi": 73,
      "hit": false,
      "t": 29974.11594999999,
      "d": 249.99981666666645,
      "v": 109
    },
    {
      "midi": 89,
      "hit": false,
      "t": 30051.702099999988,
      "d": 249.99981666666645,
      "v": 120
    },
    {
      "midi": 37,
      "hit": false,
      "t": 30982.73589999999,
      "d": 353.44801666667263,
      "v": 106
    },
    {
      "midi": 49,
      "hit": false,
      "t": 30991.356583333323,
      "d": 405.1721166666721,
      "v": 106
    },
    {
      "midi": 54,
      "hit": false,
      "t": 31025.839316666657,
      "d": 267.24118333333536,
      "v": 109
    },
    {
      "midi": 58,
      "hit": false,
      "t": 31051.701366666657,
      "d": 249.99981666667009,
      "v": 109
    },
    {
      "midi": 63,
      "hit": false,
      "t": 31086.18409999999,
      "d": 249.99981666667009,
      "v": 113
    },
    {
      "midi": 54,
      "hit": false,
      "t": 32025.83858333333,
      "d": 215.51708333333227,
      "v": 111
    },
    {
      "midi": 58,
      "hit": false,
      "t": 32025.83858333333,
      "d": 267.2411833333317,
      "v": 111
    },
    {
      "midi": 75,
      "hit": false,
      "t": 32025.83858333333,
      "d": 310.34460000000036,
      "v": 111
    },
    {
      "midi": 63,
      "hit": false,
      "t": 32051.70063333333,
      "d": 241.379133333332,
      "v": 113
    },
    {
      "midi": 66,
      "hit": false,
      "t": 32068.941999999995,
      "d": 206.89640000000145,
      "v": 114
    },
    {
      "midi": 78,
      "hit": false,
      "t": 32094.804049999995,
      "d": 206.89640000000145,
      "v": 115
    },
    {
      "midi": 82,
      "hit": false,
      "t": 32146.528149999995,
      "d": 267.24118333333536,
      "v": 119
    },
    {
      "midi": 87,
      "hit": false,
      "t": 32146.528149999995,
      "d": 310.34460000000036,
      "v": 119
    },
    {
      "midi": 63,
      "hit": false,
      "t": 33008.59648333333,
      "d": 249.99981666668464,
      "v": 97
    },
    {
      "midi": 66,
      "hit": false,
      "t": 33060.32058333333,
      "d": 241.37913333335018,
      "v": 99
    },
    {
      "midi": 75,
      "hit": false,
      "t": 33086.18263333333,
      "d": 387.93075000002136,
      "v": 102
    },
    {
      "midi": 70,
      "hit": false,
      "t": 33103.424,
      "d": 189.65503333334345,
      "v": 103
    },
    {
      "midi": 78,
      "hit": false,
      "t": 33103.424,
      "d": 258.6205000000118,
      "v": 103
    },
    {
      "midi": 82,
      "hit": false,
      "t": 33129.28605,
      "d": 258.6205000000118,
      "v": 105
    },
    {
      "midi": 87,
      "hit": false,
      "t": 33155.148100000006,
      "d": 249.99981666667736,
      "v": 109
    },
    {
      "midi": 90,
      "hit": false,
      "t": 33181.01015000001,
      "d": 232.75845000000845,
      "v": 110
    },
    {
      "midi": 37,
      "hit": false,
      "t": 34034.45780000002,
      "d": 310.344600000004,
      "v": 109
    },
    {
      "midi": 49,
      "hit": false,
      "t": 34068.94053333335,
      "d": 387.9307500000068,
      "v": 111
    },
    {
      "midi": 54,
      "hit": false,
      "t": 34086.18190000002,
      "d": 249.99981666667009,
      "v": 117
    },
    {
      "midi": 58,
      "hit": false,
      "t": 34120.66463333335,
      "d": 249.99981666667736,
      "v": 122
    },
    {
      "midi": 63,
      "hit": false,
      "t": 34146.52668333335,
      "d": 206.8964000000051,
      "v": 122
    },
    {
      "midi": 63,
      "hit": false,
      "t": 35137.90526666669,
      "d": 362.0687000000107,
      "v": 110
    },
    {
      "midi": 58,
      "hit": false,
      "t": 35146.525950000025,
      "d": 249.99981666667009,
      "v": 110
    },
    {
      "midi": 75,
      "hit": false,
      "t": 35146.525950000025,
      "d": 284.4825500000079,
      "v": 110
    },
    {
      "midi": 78,
      "hit": false,
      "t": 35163.767316666694,
      "d": 215.51708333333227,
      "v": 112
    },
    {
      "midi": 82,
      "hit": false,
      "t": 35172.38800000003,
      "d": 241.37913333333563,
      "v": 114
    },
    {
      "midi": 66,
      "hit": false,
      "t": 35172.38800000003,
      "d": 344.8273333333418,
      "v": 114
    },
    {
      "midi": 70,
      "hit": false,
      "t": 35172.38800000003,
      "d": 413.7928000000102,
      "v": 114
    },
    {
      "midi": 87,
      "hit": false,
      "t": 35224.11210000003,
      "d": 249.99981666667009,
      "v": 125
    },
    {
      "midi": 63,
      "hit": false,
      "t": 36146.525216666705,
      "d": 551.7237333333396,
      "v": 104
    },
    {
      "midi": 78,
      "hit": false,
      "t": 36155.14590000004,
      "d": 215.51708333333227,
      "v": 106
    },
    {
      "midi": 66,
      "hit": false,
      "t": 36189.62863333337,
      "d": 474.1375833333441,
      "v": 114
    },
    {
      "midi": 82,
      "hit": false,
      "t": 36232.732050000035,
      "d": 155.17230000000563,
      "v": 117
    },
    {
      "midi": 75,
      "hit": false,
      "t": 36241.35273333337,
      "d": 249.99981666667009,
      "v": 119
    },
    {
      "midi": 70,
      "hit": false,
      "t": 36258.59410000004,
      "d": 405.1721166666757,
      "v": 120
    },
    {
      "midi": 87,
      "hit": false,
      "t": 36267.21478333337,
      "d": 249.99981666667009,
      "v": 120
    },
    {
      "midi": 90,
      "hit": false,
      "t": 36275.83546666671,
      "d": 249.99981666667009,
      "v": 123
    },
    {
      "midi": 37,
      "hit": false,
      "t": 37189.62790000004,
      "d": 336.2066500000001,
      "v": 118
    },
    {
      "midi": 49,
      "hit": false,
      "t": 37206.86926666671,
      "d": 439.654849999999,
      "v": 117
    },
    {
      "midi": 51,
      "hit": false,
      "t": 37232.731316666715,
      "d": 241.37913333332835,
      "v": 105
    },
    {
      "midi": 56,
      "hit": false,
      "t": 37249.972683333384,
      "d": 232.7584499999939,
      "v": 111
    },
    {
      "midi": 60,
      "hit": false,
      "t": 37284.455416666715,
      "d": 267.2411833333317,
      "v": 117
    },
    {
      "midi": 63,
      "hit": false,
      "t": 37318.938150000045,
      "d": 267.2411833333317,
      "v": 125
    },
    {
      "midi": 68,
      "hit": false,
      "t": 38267.21331666671,
      "d": 249.99981666667736,
      "v": 49
    },
    {
      "midi": 56,
      "hit": false,
      "t": 38275.834000000046,
      "d": 249.99981666667736,
      "v": 126
    },
    {
      "midi": 75,
      "hit": false,
      "t": 38293.075366666715,
      "d": 336.20665000000736,
      "v": 108
    },
    {
      "midi": 80,
      "hit": false,
      "t": 38310.316733333384,
      "d": 318.96528333333845,
      "v": 117
    },
    {
      "midi": 84,
      "hit": false,
      "t": 38327.55810000005,
      "d": 336.2066500000001,
      "v": 118
    },
    {
      "midi": 87,
      "hit": false,
      "t": 38353.420150000056,
      "d": 344.82733333332726,
      "v": 126
    },
    {
      "midi": 80,
      "hit": false,
      "t": 39275.83326666672,
      "d": 318.9652833333457,
      "v": 116
    },
    {
      "midi": 84,
      "hit": false,
      "t": 39284.453950000054,
      "d": 310.34460000001127,
      "v": 118
    },
    {
      "midi": 63,
      "hit": false,
      "t": 39293.07463333339,
      "d": 413.7928000000102,
      "v": 118
    },
    {
      "midi": 87,
      "hit": false,
      "t": 39310.31600000006,
      "d": 267.241183333339,
      "v": 122
    },
    {
      "midi": 68,
      "hit": false,
      "t": 39336.17805000006,
      "d": 327.5859666666729,
      "v": 121
    },
    {
      "midi": 92,
      "hit": false,
      "t": 39362.040100000064,
      "d": 181.03435000000172,
      "v": 125
    },
    {
      "midi": 72,
      "hit": false,
      "t": 39362.040100000064,
      "d": 249.99981666667009,
      "v": 124
    },
    {
      "midi": 75,
      "hit": false,
      "t": 39370.6607833334,
      "d": 172.41366666666727,
      "v": 127
    },
    {
      "midi": 37,
      "hit": false,
      "t": 40327.5566333334,
      "d": 336.20665000000736,
      "v": 126
    },
    {
      "midi": 49,
      "hit": false,
      "t": 40344.79800000007,
      "d": 439.65485000000626,
      "v": 114
    },
    {
      "midi": 53,
      "hit": false,
      "t": 40353.4186833334,
      "d": 163.7929833333328,
      "v": 113
    },
    {
      "midi": 56,
      "hit": false,
      "t": 40353.4186833334,
      "d": 232.75845000000118,
      "v": 111
    },
    {
      "midi": 60,
      "hit": false,
      "t": 40387.90141666673,
      "d": 267.241183333339,
      "v": 114
    },
    {
      "midi": 63,
      "hit": false,
      "t": 40422.38415000007,
      "d": 267.241183333339,
      "v": 126
    },
    {
      "midi": 68,
      "hit": false,
      "t": 41353.417950000076,
      "d": 249.99981666667736,
      "v": 49
    },
    {
      "midi": 56,
      "hit": false,
      "t": 41370.659316666744,
      "d": 249.99981666667736,
      "v": 125
    },
    {
      "midi": 75,
      "hit": false,
      "t": 41387.90068333341,
      "d": 336.20665000000736,
      "v": 101
    },
    {
      "midi": 80,
      "hit": false,
      "t": 41413.76273333342,
      "d": 318.96528333333845,
      "v": 109
    },
    {
      "midi": 84,
      "hit": false,
      "t": 41439.62478333342,
      "d": 336.2066500000001,
      "v": 126
    },
    {
      "midi": 87,
      "hit": false,
      "t": 41456.86615000009,
      "d": 344.82733333333454,
      "v": 125
    },
    {
      "midi": 80,
      "hit": false,
      "t": 42336.17585000009,
      "d": 318.96528333333845,
      "v": 94
    },
    {
      "midi": 84,
      "hit": false,
      "t": 42387.89995000009,
      "d": 310.344600000004,
      "v": 109
    },
    {
      "midi": 63,
      "hit": false,
      "t": 42396.52063333342,
      "d": 413.7928000000029,
      "v": 111
    },
    {
      "midi": 68,
      "hit": false,
      "t": 42439.624050000086,
      "d": 327.5859666666729,
      "v": 113
    },
    {
      "midi": 87,
      "hit": false,
      "t": 42448.24473333342,
      "d": 267.241183333339,
      "v": 114
    },
    {
      "midi": 72,
      "hit": false,
      "t": 42465.48610000009,
      "d": 249.99981666667009,
      "v": 115
    },
    {
      "midi": 92,
      "hit": false,
      "t": 42474.106783333424,
      "d": 181.03435000000172,
      "v": 119
    },
    {
      "midi": 75,
      "hit": false,
      "t": 42482.72746666676,
      "d": 172.41366666666727,
      "v": 126
    },
    {
      "midi": 53,
      "hit": false,
      "t": 43396.519900000094,
      "d": 249.99981666667009,
      "v": 109
    },
    {
      "midi": 56,
      "hit": false,
      "t": 43448.24400000009,
      "d": 249.99981666667009,
      "v": 111
    },
    {
      "midi": 37,
      "hit": false,
      "t": 43456.86468333343,
      "d": 249.99981666667009,
      "v": 111
    },
    {
      "midi": 49,
      "hit": false,
      "t": 43465.48536666676,
      "d": 336.2066500000001,
      "v": 113
    },
    {
      "midi": 61,
      "hit": false,
      "t": 43474.1060500001,
      "d": 224.13776666666672,
      "v": 113
    },
    {
      "midi": 65,
      "hit": false,
      "t": 43525.830150000096,
      "d": 241.37913333333563,
      "v": 123
    },
    {
      "midi": 53,
      "hit": false,
      "t": 44456.86395000009,
      "d": 249.99981666667736,
      "v": 100
    },
    {
      "midi": 56,
      "hit": false,
      "t": 44465.48463333343,
      "d": 293.10323333334236,
      "v": 101
    },
    {
      "midi": 61,
      "hit": false,
      "t": 44482.7260000001,
      "d": 224.137766666674,
      "v": 102
    },
    {
      "midi": 65,
      "hit": false,
      "t": 44508.5880500001,
      "d": 215.51708333333954,
      "v": 103
    },
    {
      "midi": 77,
      "hit": false,
      "t": 44577.55351666677,
      "d": 215.51708333333227,
      "v": 109
    },
    {
      "midi": 80,
      "hit": false,
      "t": 44594.79488333344,
      "d": 241.37913333332835,
      "v": 109
    },
    {
      "midi": 85,
      "hit": false,
      "t": 44603.41556666677,
      "d": 224.13776666665945,
      "v": 112
    },
    {
      "midi": 89,
      "hit": false,
      "t": 44612.03625000011,
      "d": 224.13776666665945,
      "v": 125
    },
    {
      "midi": 61,
      "hit": false,
      "t": 45396.51843333343,
      "d": 431.0341666666791,
      "v": 89
    },
    {
      "midi": 77,
      "hit": false,
      "t": 45465.4839000001,
      "d": 189.65503333334345,
      "v": 98
    },
    {
      "midi": 65,
      "hit": false,
      "t": 45499.96663333343,
      "d": 224.13776666668127,
      "v": 102
    },
    {
      "midi": 68,
      "hit": false,
      "t": 45517.2080000001,
      "d": 275.8618666666807,
      "v": 103
    },
    {
      "midi": 80,
      "hit": false,
      "t": 45525.828683333435,
      "d": 181.034350000009,
      "v": 103
    },
    {
      "midi": 85,
      "hit": false,
      "t": 45551.69073333344,
      "d": 198.2757166666779,
      "v": 105
    },
    {
      "midi": 73,
      "hit": false,
      "t": 45577.55278333344,
      "d": 249.99981666667009,
      "v": 109
    },
    {
      "midi": 89,
      "hit": false,
      "t": 45594.79415000011,
      "d": 249.99981666667009,
      "v": 112
    },
    {
      "midi": 92,
      "hit": false,
      "t": 45603.414833333445,
      "d": 249.99981666667009,
      "v": 124
    },
    {
      "midi": 56,
      "hit": false,
      "t": 46499.96590000011,
      "d": 198.27571666666336,
      "v": 109
    },
    {
      "midi": 44,
      "hit": false,
      "t": 46508.58658333345,
      "d": 258.62049999999726,
      "v": 110
    },
    {
      "midi": 51,
      "hit": false,
      "t": 46594.79341666678,
      "d": 189.65503333333618,
      "v": 127
    },
    {
      "midi": 60,
      "hit": false,
      "t": 46603.41410000011,
      "d": 181.03435000000172,
      "v": 118
    },
    {
      "midi": 63,
      "hit": false,
      "t": 46603.41410000011,
      "d": 232.75845000000118,
      "v": 118
    },
    {
      "midi": 60,
      "hit": false,
      "t": 47474.10311666678,
      "d": 249.99981666667736,
      "v": 108
    },
    {
      "midi": 63,
      "hit": false,
      "t": 47508.58585000011,
      "d": 396.5514333333558,
      "v": 109
    },
    {
      "midi": 75,
      "hit": false,
      "t": 47534.447900000116,
      "d": 362.068700000018,
      "v": 111
    },
    {
      "midi": 80,
      "hit": false,
      "t": 47551.689266666785,
      "d": 232.75845000000845,
      "v": 112
    },
    {
      "midi": 68,
      "hit": false,
      "t": 47551.689266666785,
      "d": 267.24118333334627,
      "v": 112
    },
    {
      "midi": 84,
      "hit": false,
      "t": 47577.55131666679,
      "d": 232.75845000000845,
      "v": 112
    },
    {
      "midi": 72,
      "hit": false,
      "t": 47577.55131666679,
      "d": 249.99981666667736,
      "v": 112
    },
    {
      "midi": 87,
      "hit": false,
      "t": 47594.79268333346,
      "d": 215.51708333333954,
      "v": 113
    },
    {
      "midi": 56,
      "hit": false,
      "t": 48422.37828333347,
      "d": 241.37913333333563,
      "v": 101
    },
    {
      "midi": 60,
      "hit": false,
      "t": 48482.723066666804,
      "d": 258.62050000000454,
      "v": 101
    },
    {
      "midi": 63,
      "hit": false,
      "t": 48499.96443333347,
      "d": 310.344600000004,
      "v": 103
    },
    {
      "midi": 68,
      "hit": false,
      "t": 48534.4471666668,
      "d": 249.99981666667009,
      "v": 105
    },
    {
      "midi": 72,
      "hit": false,
      "t": 48534.4471666668,
      "d": 318.9652833333457,
      "v": 105
    },
    {
      "midi": 75,
      "hit": false,
      "t": 48560.30921666681,
      "d": 275.86186666667345,
      "v": 110
    },
    {
      "midi": 80,
      "hit": false,
      "t": 48594.79195000014,
      "d": 189.65503333333618,
      "v": 113
    },
    {
      "midi": 84,
      "hit": false,
      "t": 48620.65400000014,
      "d": 249.99981666667736,
      "v": 117
    },
    {
      "midi": 53,
      "hit": false,
      "t": 49586.17053333348,
      "d": 224.137766666674,
      "v": 109
    },
    {
      "midi": 37,
      "hit": false,
      "t": 49646.51531666682,
      "d": 267.241183333339,
      "v": 112
    },
    {
      "midi": 49,
      "hit": false,
      "t": 49646.51531666682,
      "d": 370.6893833333452,
      "v": 112
    },
    {
      "midi": 56,
      "hit": false,
      "t": 49663.756683333486,
      "d": 249.99981666667009,
      "v": 114
    },
    {
      "midi": 61,
      "hit": false,
      "t": 49749.96351666682,
      "d": 241.37913333333563,
      "v": 126
    },
    {
      "midi": 53,
      "hit": false,
      "t": 50422.37681666683,
      "d": 249.99981666667009,
      "v": 93
    },
    {
      "midi": 56,
      "hit": false,
      "t": 50491.3422833335,
      "d": 249.99981666667736,
      "v": 95
    },
    {
      "midi": 61,
      "hit": false,
      "t": 50551.68706666683,
      "d": 249.99981666667736,
      "v": 98
    },
    {
      "midi": 73,
      "hit": false,
      "t": 50568.9284333335,
      "d": 362.06870000000345,
      "v": 99
    },
    {
      "midi": 65,
      "hit": false,
      "t": 50586.16980000017,
      "d": 249.99981666667009,
      "v": 99
    },
    {
      "midi": 77,
      "hit": false,
      "t": 50637.89390000017,
      "d": 232.75845000000118,
      "v": 102
    },
    {
      "midi": 80,
      "hit": false,
      "t": 50698.238683333504,
      "d": 267.2411833333317,
      "v": 110
    },
    {
      "midi": 85,
      "hit": false,
      "t": 50706.85936666684,
      "d": 318.9652833333312,
      "v": 125
    },
    {
      "midi": 68,
      "hit": false,
      "t": 50724.10073333351,
      "d": 301.72391666666226,
      "v": 125
    },
    {
      "midi": 61,
      "hit": false,
      "t": 51482.72086666684,
      "d": 249.99981666667736,
      "v": 94
    },
    {
      "midi": 77,
      "hit": false,
      "t": 51525.8242833335,
      "d": 163.7929833333401,
      "v": 95
    },
    {
      "midi": 65,
      "hit": false,
      "t": 51543.06565000017,
      "d": 249.99981666668464,
      "v": 96
    },
    {
      "midi": 73,
      "hit": false,
      "t": 51568.927700000175,
      "d": 172.41366666667454,
      "v": 107
    },
    {
      "midi": 80,
      "hit": false,
      "t": 51577.54838333351,
      "d": 146.55161666667118,
      "v": 100
    },
    {
      "midi": 68,
      "hit": false,
      "t": 51586.169066666844,
      "d": 198.2757166666779,
      "v": 101
    },
    {
      "midi": 85,
      "hit": false,
      "t": 51629.27248333351,
      "d": 137.930933333344,
      "v": 105
    },
    {
      "midi": 89,
      "hit": false,
      "t": 51698.23795000018,
      "d": 215.51708333334682,
      "v": 127
    },
    {
      "midi": 53,
      "hit": false,
      "t": 52637.89243333352,
      "d": 249.99981666667009,
      "v": 109
    },
    {
      "midi": 49,
      "hit": false,
      "t": 52698.23721666686,
      "d": 405.17211666666844,
      "v": 113
    },
    {
      "midi": 37,
      "hit": false,
      "t": 52706.85790000019,
      "d": 284.48255000000063,
      "v": 113
    },
    {
      "midi": 56,
      "hit": false,
      "t": 52732.719950000195,
      "d": 249.9998166666628,
      "v": 117
    },
    {
      "midi": 61,
      "hit": false,
      "t": 52767.202683333526,
      "d": 301.72391666666954,
      "v": 124
    },
    {
      "midi": 53,
      "hit": false,
      "t": 53680.99511666686,
      "d": 249.99981666667009,
      "v": 95
    },
    {
      "midi": 73,
      "hit": false,
      "t": 53680.99511666686,
      "d": 275.86186666667345,
      "v": 95
    },
    {
      "midi": 56,
      "hit": false,
      "t": 53689.615800000196,
      "d": 249.99981666667009,
      "v": 96
    },
    {
      "midi": 61,
      "hit": false,
      "t": 53724.09853333353,
      "d": 249.99981666667736,
      "v": 103
    },
    {
      "midi": 77,
      "hit": false,
      "t": 53749.96058333353,
      "d": 181.03435000000172,
      "v": 106
    },
    {
      "midi": 65,
      "hit": false,
      "t": 53801.68468333353,
      "d": 249.99981666667736,
      "v": 112
    },
    {
      "midi": 80,
      "hit": false,
      "t": 53810.305366666864,
      "d": 146.55161666667118,
      "v": 113
    },
    {
      "midi": 85,
      "hit": false,
      "t": 53853.40878333353,
      "d": 241.3791333333429,
      "v": 117
    },
    {
      "midi": 61,
      "hit": false,
      "t": 54646.511650000204,
      "d": 249.99981666667736,
      "v": 99
    },
    {
      "midi": 65,
      "hit": false,
      "t": 54655.13233333354,
      "d": 318.9652833333457,
      "v": 101
    },
    {
      "midi": 77,
      "hit": false,
      "t": 54663.75301666687,
      "d": 172.41366666667454,
      "v": 101
    },
    {
      "midi": 80,
      "hit": false,
      "t": 54732.71848333354,
      "d": 155.17230000000563,
      "v": 105
    },
    {
      "midi": 68,
      "hit": false,
      "t": 54741.339166666876,
      "d": 336.20665000000736,
      "v": 105
    },
    {
      "midi": 73,
      "hit": false,
      "t": 54767.20121666688,
      "d": 155.17230000000563,
      "v": 114
    },
    {
      "midi": 85,
      "hit": false,
      "t": 54784.44258333355,
      "d": 137.93093333333672,
      "v": 109
    },
    {
      "midi": 89,
      "hit": false,
      "t": 54853.40805000022,
      "d": 249.99981666667009,
      "v": 127
    },
    {
      "midi": 58,
      "hit": false,
      "t": 55758.57980000022,
      "d": 181.03435000000172,
      "v": 111
    },
    {
      "midi": 42,
      "hit": false,
      "t": 55793.06253333355,
      "d": 232.75845000000118,
      "v": 114
    },
    {
      "midi": 54,
      "hit": false,
      "t": 55827.54526666688,
      "d": 318.96528333333845,
      "v": 116
    },
    {
      "midi": 61,
      "hit": false,
      "t": 55853.40731666688,
      "d": 224.13776666666672,
      "v": 116
    },
    {
      "midi": 63,
      "hit": false,
      "t": 55896.510733333555,
      "d": 241.37913333332835,
      "v": 127
    },
    {
      "midi": 58,
      "hit": false,
      "t": 56896.51000000022,
      "d": 241.37913333333563,
      "v": 105
    },
    {
      "midi": 61,
      "hit": false,
      "t": 56896.51000000022,
      "d": 405.1721166666757,
      "v": 105
    },
    {
      "midi": 85,
      "hit": false,
      "t": 56930.99273333355,
      "d": 284.4825500000079,
      "v": 105
    },
    {
      "midi": 78,
      "hit": false,
      "t": 56939.613416666885,
      "d": 198.27571666667063,
      "v": 106
    },
    {
      "midi": 80,
      "hit": false,
      "t": 56948.23410000022,
      "d": 249.99981666667009,
      "v": 108
    },
    {
      "midi": 87,
      "hit": false,
      "t": 56965.47546666689,
      "d": 275.86186666667345,
      "v": 127
    },
    {
      "midi": 66,
      "hit": false,
      "t": 56982.71683333356,
      "d": 336.20665000000736,
      "v": 110
    },
    {
      "midi": 70,
      "hit": false,
      "t": 57051.682300000226,
      "d": 301.72391666666954,
      "v": 125
    },
    {
      "midi": 63,
      "hit": false,
      "t": 57801.68175000023,
      "d": 474.1375833333368,
      "v": 104
    },
    {
      "midi": 66,
      "hit": false,
      "t": 57801.68175000023,
      "d": 499.99963333334017,
      "v": 104
    },
    {
      "midi": 80,
      "hit": false,
      "t": 57836.16448333356,
      "d": 327.5859666666729,
      "v": 105
    },
    {
      "midi": 70,
      "hit": false,
      "t": 57870.64721666689,
      "d": 396.55143333334127,
      "v": 106
    },
    {
      "midi": 82,
      "hit": false,
      "t": 57879.267900000224,
      "d": 258.62050000000454,
      "v": 107
    },
    {
      "midi": 85,
      "hit": false,
      "t": 57922.37131666689,
      "d": 284.4825500000079,
      "v": 109
    },
    {
      "midi": 75,
      "hit": false,
      "t": 57991.33678333356,
      "d": 215.51708333333954,
      "v": 124
    },
    {
      "midi": 87,
      "hit": false,
      "t": 57999.95746666689,
      "d": 267.241183333339,
      "v": 124
    },
    {
      "midi": 90,
      "hit": false,
      "t": 58017.19883333356,
      "d": 232.75845000000118,
      "v": 125
    },
    {
      "midi": 58,
      "hit": false,
      "t": 58913.749900000235,
      "d": 310.34460000001127,
      "v": 108
    },
    {
      "midi": 60,
      "hit": false,
      "t": 58956.8533166669,
      "d": 267.24118333334627,
      "v": 110
    },
    {
      "midi": 39,
      "hit": false,
      "t": 58982.715366666904,
      "d": 284.4825500000079,
      "v": 114
    },
    {
      "midi": 51,
      "hit": false,
      "t": 58982.715366666904,
      "d": 370.6893833333452,
      "v": 114
    },
    {
      "midi": 66,
      "hit": false,
      "t": 58999.95673333357,
      "d": 284.4825500000079,
      "v": 126
    },
    {
      "midi": 66,
      "hit": false,
      "t": 59939.61121666692,
      "d": 413.7927999999956,
      "v": 117
    },
    {
      "midi": 70,
      "hit": false,
      "t": 59982.714633333584,
      "d": 465.5168999999951,
      "v": 124
    },
    {
      "midi": 78,
      "hit": false,
      "t": 60008.57668333359,
      "d": 318.9652833333239,
      "v": 117
    },
    {
      "midi": 82,
      "hit": false,
      "t": 60043.05941666692,
      "d": 249.9998166666628,
      "v": 118
    },
    {
      "midi": 84,
      "hit": false,
      "t": 60094.78351666692,
      "d": 508.6203166666601,
      "v": 124
    },
    {
      "midi": 63,
      "hit": false,
      "t": 60913.748433333574,
      "d": 663.7926166666657,
      "v": 109
    },
    {
      "midi": 70,
      "hit": false,
      "t": 60948.231166666905,
      "d": 603.4478333333318,
      "v": 112
    },
    {
      "midi": 78,
      "hit": false,
      "t": 60991.33458333357,
      "d": 249.99981666667009,
      "v": 116
    },
    {
      "midi": 82,
      "hit": false,
      "t": 61017.19663333357,
      "d": 379.3100666666651,
      "v": 118
    },
    {
      "midi": 75,
      "hit": false,
      "t": 61025.81731666691,
      "d": 318.9652833333312,
      "v": 124
    },
    {
      "midi": 84,
      "hit": false,
      "t": 61068.92073333357,
      "d": 431.03416666666453,
      "v": 124
    },
    {
      "midi": 90,
      "hit": false,
      "t": 61068.92073333357,
      "d": 508.62031666666735,
      "v": 124
    },
    {
      "midi": 53,
      "hit": false,
      "t": 61879.26496666691,
      "d": 137.93093333332945,
      "v": 64
    },
    {
      "midi": 60,
      "hit": false,
      "t": 61913.74770000024,
      "d": 129.31025000000227,
      "v": 69
    },
    {
      "midi": 77,
      "hit": false,
      "t": 61974.092483333574,
      "d": 249.99981666667009,
      "v": 73
    },
    {
      "midi": 81,
      "hit": false,
      "t": 62034.43726666691,
      "d": 249.99981666667009,
      "v": 75
    },
    {
      "midi": 84,
      "hit": false,
      "t": 62077.54068333357,
      "d": 249.99981666667009,
      "v": 78
    },
    {
      "midi": 69,
      "hit": false,
      "t": 62103.402733333576,
      "d": 249.99981666667009,
      "v": 81
    },
    {
      "midi": 89,
      "hit": false,
      "t": 62112.02341666691,
      "d": 508.62031666666735,
      "v": 84
    },
    {
      "midi": 58,
      "hit": false,
      "t": 62810.298766666914,
      "d": 112.06888333333336,
      "v": 63
    },
    {
      "midi": 65,
      "hit": false,
      "t": 62853.40218333358,
      "d": 120.68956666666782,
      "v": 64
    },
    {
      "midi": 68,
      "hit": false,
      "t": 62905.12628333358,
      "d": 94.82751666667173,
      "v": 68
    },
    {
      "midi": 76,
      "hit": false,
      "t": 62913.74696666691,
      "d": 172.41366666667454,
      "v": 69
    },
    {
      "midi": 80,
      "hit": false,
      "t": 62982.71243333358,
      "d": 181.034350000009,
      "v": 73
    },
    {
      "midi": 74,
      "hit": false,
      "t": 62991.333116666916,
      "d": 224.137766666674,
      "v": 73
    },
    {
      "midi": 82,
      "hit": false,
      "t": 62991.333116666916,
      "d": 232.75845000000845,
      "v": 73
    },
    {
      "midi": 86,
      "hit": false,
      "t": 63017.19516666692,
      "d": 258.62050000000454,
      "v": 75
    },
    {
      "midi": 89,
      "hit": false,
      "t": 63068.91926666692,
      "d": 284.4825500000079,
      "v": 77
    },
    {
      "midi": 51,
      "hit": false,
      "t": 63853.40145000026,
      "d": 508.62031666669645,
      "v": 68
    },
    {
      "midi": 58,
      "hit": false,
      "t": 63913.74623333359,
      "d": 508.62031666669645,
      "v": 66
    },
    {
      "midi": 75,
      "hit": false,
      "t": 63974.09101666693,
      "d": 249.99981666668464,
      "v": 71
    },
    {
      "midi": 63,
      "hit": false,
      "t": 63999.95306666693,
      "d": 249.99981666668464,
      "v": 74
    },
    {
      "midi": 79,
      "hit": false,
      "t": 64025.815116666934,
      "d": 249.99981666668464,
      "v": 76
    },
    {
      "midi": 82,
      "hit": false,
      "t": 64077.53921666694,
      "d": 249.99981666667736,
      "v": 82
    },
    {
      "midi": 67,
      "hit": false,
      "t": 64086.159900000275,
      "d": 249.99981666667736,
      "v": 82
    },
    {
      "midi": 87,
      "hit": false,
      "t": 64103.401266666944,
      "d": 465.5169000000096,
      "v": 84
    },
    {
      "midi": 56,
      "hit": false,
      "t": 64956.84891666695,
      "d": 508.6203166666892,
      "v": 57
    },
    {
      "midi": 60,
      "hit": false,
      "t": 64982.71096666696,
      "d": 249.99981666667736,
      "v": 58
    },
    {
      "midi": 63,
      "hit": false,
      "t": 65060.29711666696,
      "d": 249.99981666667736,
      "v": 65
    },
    {
      "midi": 78,
      "hit": false,
      "t": 65068.917800000294,
      "d": 249.99981666667736,
      "v": 66
    },
    {
      "midi": 68,
      "hit": false,
      "t": 65094.7798500003,
      "d": 249.99981666667736,
      "v": 68
    },
    {
      "midi": 80,
      "hit": false,
      "t": 65120.6419000003,
      "d": 439.65485000001354,
      "v": 68
    },
    {
      "midi": 84,
      "hit": false,
      "t": 65155.12463333363,
      "d": 249.99981666667736,
      "v": 83
    },
    {
      "midi": 87,
      "hit": false,
      "t": 65198.228050000296,
      "d": 439.6548500000208,
      "v": 84
    },
    {
      "midi": 49,
      "hit": false,
      "t": 65999.95160000032,
      "d": 508.62031666666735,
      "v": 50
    },
    {
      "midi": 56,
      "hit": false,
      "t": 66034.43433333366,
      "d": 249.9998166666628,
      "v": 53
    },
    {
      "midi": 73,
      "hit": false,
      "t": 66077.53775000032,
      "d": 249.9998166666628,
      "v": 53
    },
    {
      "midi": 77,
      "hit": false,
      "t": 66120.64116666699,
      "d": 249.9998166666628,
      "v": 63
    },
    {
      "midi": 61,
      "hit": false,
      "t": 66137.88253333366,
      "d": 249.9998166666628,
      "v": 63
    },
    {
      "midi": 65,
      "hit": false,
      "t": 66189.60663333366,
      "d": 249.9998166666628,
      "v": 72
    },
    {
      "midi": 80,
      "hit": false,
      "t": 66189.60663333366,
      "d": 249.9998166666628,
      "v": 72
    },
    {
      "midi": 85,
      "hit": false,
      "t": 66198.22731666699,
      "d": 405.17211666666844,
      "v": 72
    },
    {
      "midi": 43,
      "hit": false,
      "t": 66965.46813333366,
      "d": 508.6203166666528,
      "v": 62
    },
    {
      "midi": 49,
      "hit": false,
      "t": 67051.674966667,
      "d": 249.9998166666628,
      "v": 67
    },
    {
      "midi": 53,
      "hit": false,
      "t": 67129.261116667,
      "d": 249.9998166666628,
      "v": 72
    },
    {
      "midi": 70,
      "hit": false,
      "t": 67155.12316666699,
      "d": 249.9998166666628,
      "v": 73
    },
    {
      "midi": 73,
      "hit": false,
      "t": 67198.22658333366,
      "d": 249.9998166666628,
      "v": 75
    },
    {
      "midi": 58,
      "hit": false,
      "t": 67206.84726666698,
      "d": 249.9998166666628,
      "v": 77
    },
    {
      "midi": 77,
      "hit": false,
      "t": 67241.33000000032,
      "d": 249.9998166666628,
      "v": 80
    },
    {
      "midi": 82,
      "hit": false,
      "t": 67275.81273333366,
      "d": 431.03416666666453,
      "v": 80
    },
    {
      "midi": 53,
      "hit": false,
      "t": 68189.605166667,
      "d": 249.9998166666628,
      "v": 79
    },
    {
      "midi": 44,
      "hit": false,
      "t": 68198.22585000032,
      "d": 508.6203166666528,
      "v": 79
    },
    {
      "midi": 49,
      "hit": false,
      "t": 68215.46721666699,
      "d": 249.9998166666628,
      "v": 79
    },
    {
      "midi": 68,
      "hit": false,
      "t": 68224.08790000032,
      "d": 249.9998166666628,
      "v": 79
    },
    {
      "midi": 61,
      "hit": false,
      "t": 68249.94995000031,
      "d": 249.9998166666628,
      "v": 79
    },
    {
      "midi": 56,
      "hit": false,
      "t": 68267.19131666698,
      "d": 249.9998166666628,
      "v": 80
    },
    {
      "midi": 73,
      "hit": false,
      "t": 68267.19131666698,
      "d": 249.9998166666628,
      "v": 80
    },
    {
      "midi": 77,
      "hit": false,
      "t": 68267.19131666698,
      "d": 249.9998166666628,
      "v": 80
    },
    {
      "midi": 80,
      "hit": false,
      "t": 68301.67405000032,
      "d": 405.1721166666539,
      "v": 94
    },
    {
      "midi": 53,
      "hit": false,
      "t": 69224.08716666697,
      "d": 508.6203166666819,
      "v": 94
    },
    {
      "midi": 49,
      "hit": false,
      "t": 69224.08716666697,
      "d": 525.8616833333508,
      "v": 94
    },
    {
      "midi": 65,
      "hit": false,
      "t": 69241.32853333364,
      "d": 249.99981666667736,
      "v": 85
    },
    {
      "midi": 61,
      "hit": false,
      "t": 69241.32853333364,
      "d": 284.4825500000152,
      "v": 85
    },
    {
      "midi": 56,
      "hit": false,
      "t": 69258.56990000031,
      "d": 249.99981666667736,
      "v": 86
    },
    {
      "midi": 68,
      "hit": false,
      "t": 69284.4319500003,
      "d": 249.99981666667736,
      "v": 87
    },
    {
      "midi": 73,
      "hit": false,
      "t": 69293.05263333363,
      "d": 508.62031666669645,
      "v": 88
    },
    {
      "midi": 77,
      "hit": false,
      "t": 69344.77673333364,
      "d": 362.068700000018,
      "v": 103
    },
    {
      "midi": 53,
      "hit": false,
      "t": 70241.32780000033,
      "d": 577.5857833333284,
      "v": 98
    },
    {
      "midi": 61,
      "hit": false,
      "t": 70275.81053333367,
      "d": 353.4480166666617,
      "v": 101
    },
    {
      "midi": 56,
      "hit": false,
      "t": 70293.05190000034,
      "d": 249.9998166666628,
      "v": 102
    },
    {
      "midi": 65,
      "hit": false,
      "t": 70301.67258333367,
      "d": 327.5859666666656,
      "v": 105
    },
    {
      "midi": 68,
      "hit": false,
      "t": 70327.53463333366,
      "d": 405.17211666666844,
      "v": 114
    },
    {
      "midi": 73,
      "hit": false,
      "t": 70362.017366667,
      "d": 413.7927999999956,
      "v": 114
    },
    {
      "midi": 51,
      "hit": false,
      "t": 71284.43048333366,
      "d": 499.99963333334017,
      "v": 91
    },
    {
      "midi": 63,
      "hit": false,
      "t": 71310.29253333366,
      "d": 249.9998166666628,
      "v": 93
    },
    {
      "midi": 67,
      "hit": false,
      "t": 71344.775266667,
      "d": 310.3445999999967,
      "v": 95
    },
    {
      "midi": 55,
      "hit": false,
      "t": 71362.01663333367,
      "d": 370.6893833333306,
      "v": 97
    },
    {
      "midi": 70,
      "hit": false,
      "t": 71396.49936666699,
      "d": 422.4134833333519,
      "v": 100
    },
    {
      "midi": 58,
      "hit": false,
      "t": 71439.60278333366,
      "d": 267.24118333334627,
      "v": 111
    },
    {
      "midi": 39,
      "hit": false,
      "t": 72258.56770000035,
      "d": 672.4133000000147,
      "v": 97
    },
    {
      "midi": 46,
      "hit": false,
      "t": 72293.05043333369,
      "d": 249.99981666667736,
      "v": 100
    },
    {
      "midi": 55,
      "hit": false,
      "t": 72293.05043333369,
      "d": 508.6203166666819,
      "v": 100
    },
    {
      "midi": 58,
      "hit": false,
      "t": 72353.39521666702,
      "d": 249.99981666667736,
      "v": 105
    },
    {
      "midi": 51,
      "hit": false,
      "t": 72387.87795000036,
      "d": 508.6203166666819,
      "v": 114
    },
    {
      "midi": 63,
      "hit": false,
      "t": 72396.49863333369,
      "d": 508.6203166666819,
      "v": 115
    },
    {
      "midi": 67,
      "hit": false,
      "t": 72430.98136666702,
      "d": 767.2408166666719,
      "v": 115
    },
    {
      "midi": 54,
      "hit": false,
      "t": 73318.91175000036,
      "d": 249.9998166666628,
      "v": 97
    },
    {
      "midi": 44,
      "hit": false,
      "t": 73344.77380000036,
      "d": 508.62031666666735,
      "v": 100
    },
    {
      "midi": 60,
      "hit": false,
      "t": 73405.1185833337,
      "d": 508.62031666666735,
      "v": 111
    },
    {
      "midi": 63,
      "hit": false,
      "t": 73430.98063333369,
      "d": 249.99981666667736,
      "v": 115
    },
    {
      "midi": 51,
      "hit": false,
      "t": 73430.98063333369,
      "d": 422.41348333333735,
      "v": 114
    },
    {
      "midi": 66,
      "hit": false,
      "t": 73456.84268333369,
      "d": 620.689200000008,
      "v": 115
    },
    {
      "midi": 37,
      "hit": false,
      "t": 74370.63511666702,
      "d": 1370.6886499999964,
      "v": 87
    },
    {
      "midi": 53,
      "hit": false,
      "t": 74396.49716666702,
      "d": 508.62031666666735,
      "v": 89
    },
    {
      "midi": 44,
      "hit": false,
      "t": 74439.60058333368,
      "d": 767.2408166666719,
      "v": 92
    },
    {
      "midi": 56,
      "hit": false,
      "t": 74456.84195000035,
      "d": 767.2408166666719,
      "v": 108
    },
    {
      "midi": 61,
      "hit": false,
      "t": 74456.84195000035,
      "d": 767.2408166666719,
      "v": 108
    },
    {
      "midi": 49,
      "hit": false,
      "t": 74491.32468333369,
      "d": 767.2408166666719,
      "v": 108
    },
    {
      "midi": 65,
      "hit": false,
      "t": 74534.42810000035,
      "d": 1181.0336166666675,
      "v": 119
    },
    {
      "midi": 80,
      "hit": false,
      "t": 79215.45915,
      "d": 68.96546666666109,
      "v": 119
    },
    {
      "midi": 61,
      "hit": false,
      "t": 79215.45915,
      "d": 77.58614999998827,
      "v": 119
    },
    {
      "midi": 68,
      "hit": false,
      "t": 79215.45915,
      "d": 77.58614999998827,
      "v": 119
    },
    {
      "midi": 53,
      "hit": false,
      "t": 79215.45915,
      "d": 94.82751666665717,
      "v": 119
    },
    {
      "midi": 56,
      "hit": false,
      "t": 79379.25213333331,
      "d": 77.58615000000282,
      "v": 122
    },
    {
      "midi": 68,
      "hit": false,
      "t": 79379.25213333331,
      "d": 94.82751666667173,
      "v": 122
    },
    {
      "midi": 61,
      "hit": false,
      "t": 79379.25213333331,
      "d": 181.03435000000172,
      "v": 122
    },
    {
      "midi": 53,
      "hit": false,
      "t": 79379.25213333331,
      "d": 249.9998166666628,
      "v": 122
    },
    {
      "midi": 73,
      "hit": false,
      "t": 79379.25213333331,
      "d": 249.9998166666628,
      "v": 122
    },
    {
      "midi": 80,
      "hit": false,
      "t": 79379.25213333331,
      "d": 249.9998166666628,
      "v": 122
    },
    {
      "midi": 61,
      "hit": false,
      "t": 79698.21741666664,
      "d": 68.96546666666109,
      "v": 107
    },
    {
      "midi": 77,
      "hit": false,
      "t": 79698.21741666664,
      "d": 77.58614999998827,
      "v": 107
    },
    {
      "midi": 68,
      "hit": false,
      "t": 79698.21741666664,
      "d": 86.20683333331544,
      "v": 107
    },
    {
      "midi": 53,
      "hit": false,
      "t": 79698.21741666664,
      "d": 112.06888333331153,
      "v": 107
    },
    {
      "midi": 56,
      "hit": false,
      "t": 79862.01039999996,
      "d": 112.06888333332608,
      "v": 112
    },
    {
      "midi": 68,
      "hit": false,
      "t": 79862.01039999996,
      "d": 129.310249999995,
      "v": 112
    },
    {
      "midi": 61,
      "hit": false,
      "t": 79862.01039999996,
      "d": 206.8963999999978,
      "v": 112
    },
    {
      "midi": 53,
      "hit": false,
      "t": 79862.01039999996,
      "d": 224.13776666666672,
      "v": 112
    },
    {
      "midi": 73,
      "hit": false,
      "t": 79862.01039999996,
      "d": 249.9998166666628,
      "v": 112
    },
    {
      "midi": 77,
      "hit": false,
      "t": 79862.01039999996,
      "d": 249.9998166666628,
      "v": 112
    },
    {
      "midi": 75,
      "hit": false,
      "t": 80198.21704999995,
      "d": 51.72409999999218,
      "v": 121
    },
    {
      "midi": 68,
      "hit": false,
      "t": 80198.21704999995,
      "d": 86.20683333333,
      "v": 121
    },
    {
      "midi": 51,
      "hit": false,
      "t": 80198.21704999995,
      "d": 103.4481999999989,
      "v": 121
    },
    {
      "midi": 68,
      "hit": false,
      "t": 80370.63071666661,
      "d": 181.03435000000172,
      "v": 123
    },
    {
      "midi": 51,
      "hit": false,
      "t": 80370.63071666661,
      "d": 215.51708333333954,
      "v": 123
    },
    {
      "midi": 56,
      "hit": false,
      "t": 80370.63071666661,
      "d": 224.13776666666672,
      "v": 123
    },
    {
      "midi": 61,
      "hit": false,
      "t": 80370.63071666661,
      "d": 249.9998166666628,
      "v": 123
    },
    {
      "midi": 75,
      "hit": false,
      "t": 80370.63071666661,
      "d": 249.9998166666628,
      "v": 123
    },
    {
      "midi": 49,
      "hit": false,
      "t": 80689.59599999993,
      "d": 77.58614999998827,
      "v": 124
    },
    {
      "midi": 56,
      "hit": false,
      "t": 80689.59599999993,
      "d": 94.82751666664262,
      "v": 124
    },
    {
      "midi": 65,
      "hit": false,
      "t": 80698.21668333326,
      "d": 68.96546666666109,
      "v": 124
    },
    {
      "midi": 73,
      "hit": false,
      "t": 80698.21668333326,
      "d": 77.58614999998827,
      "v": 124
    },
    {
      "midi": 65,
      "hit": false,
      "t": 80862.00966666656,
      "d": 465.5168999999878,
      "v": 127
    },
    {
      "midi": 68,
      "hit": false,
      "t": 80862.00966666656,
      "d": 474.137583333315,
      "v": 127
    },
    {
      "midi": 73,
      "hit": false,
      "t": 80862.00966666656,
      "d": 525.8616833333217,
      "v": 127
    },
    {
      "midi": 61,
      "hit": false,
      "t": 80862.00966666656,
      "d": 577.5857833333284,
      "v": 127
    },
    {
      "midi": 49,
      "hit": false,
      "t": 80870.63034999989,
      "d": 456.8962166666606,
      "v": 127
    },
    {
      "midi": 56,
      "hit": false,
      "t": 80870.63034999989,
      "d": 517.2409999999945,
      "v": 127
    },
    {
      "midi": 65,
      "hit": false,
      "t": 81810.28483333322,
      "d": 896.5510666666669,
      "v": 127
    },
    {
      "midi": 85,
      "hit": false,
      "t": 81810.28483333322,
      "d": 913.7924333333358,
      "v": 127
    },
    {
      "midi": 80,
      "hit": false,
      "t": 81810.28483333322,
      "d": 1060.3440499999997,
      "v": 127
    },
    {
      "midi": 61,
      "hit": false,
      "t": 81810.28483333322,
      "d": 1120.6888333333336,
      "v": 127
    },
    {
      "midi": 89,
      "hit": false,
      "t": 81818.90551666655,
      "d": 1025.8613166666764,
      "v": 127
    },
    {
      "midi": 53,
      "hit": false,
      "t": 81827.52619999988,
      "d": 732.7580833333486,
      "v": 127
    },
    {
      "midi": 77,
      "hit": false,
      "t": 81827.52619999988,
      "d": 767.2408166666864,
      "v": 127
    },
    {
      "midi": 56,
      "hit": false,
      "t": 81827.52619999988,
      "d": 1025.8613166666764,
      "v": 127
    },
    {
      "midi": 87,
      "hit": false,
      "t": 83396.49056666656,
      "d": 181.03434999998717,
      "v": 120
    },
    {
      "midi": 75,
      "hit": false,
      "t": 83405.11124999989,
      "d": 137.93093333332217,
      "v": 120
    },
    {
      "midi": 51,
      "hit": false,
      "t": 83405.11124999989,
      "d": 181.03434999998717,
      "v": 120
    },
    {
      "midi": 63,
      "hit": false,
      "t": 83405.11124999989,
      "d": 189.65503333331435,
      "v": 120
    },
    {
      "midi": 78,
      "hit": false,
      "t": 83913.73156666654,
      "d": 741.3787666666467,
      "v": 127
    },
    {
      "midi": 80,
      "hit": false,
      "t": 83913.73156666654,
      "d": 905.1717499999795,
      "v": 127
    },
    {
      "midi": 90,
      "hit": false,
      "t": 83913.73156666654,
      "d": 1025.8613166666473,
      "v": 127
    },
    {
      "midi": 85,
      "hit": false,
      "t": 83922.35224999987,
      "d": 887.9303833333252,
      "v": 127
    },
    {
      "midi": 66,
      "hit": false,
      "t": 83922.35224999987,
      "d": 1155.1715666666569,
      "v": 127
    },
    {
      "midi": 56,
      "hit": false,
      "t": 83922.35224999987,
      "d": 1267.240449999983,
      "v": 127
    },
    {
      "midi": 61,
      "hit": false,
      "t": 83922.35224999987,
      "d": 1267.240449999983,
      "v": 127
    },
    {
      "midi": 54,
      "hit": false,
      "t": 83930.97293333319,
      "d": 931.0337999999902,
      "v": 127
    },
    {
      "midi": 53,
      "hit": false,
      "t": 85353.38568333317,
      "d": 129.310249999995,
      "v": 88
    },
    {
      "midi": 65,
      "hit": false,
      "t": 85353.38568333317,
      "d": 249.9998166666628,
      "v": 100
    },
    {
      "midi": 77,
      "hit": false,
      "t": 85353.38568333317,
      "d": 249.9998166666628,
      "v": 127
    },
    {
      "midi": 89,
      "hit": false,
      "t": 85353.38568333317,
      "d": 249.9998166666628,
      "v": 127
    },
    {
      "midi": 48,
      "hit": false,
      "t": 85698.2130166665,
      "d": 137.93093333333672,
      "v": 121
    },
    {
      "midi": 60,
      "hit": false,
      "t": 85698.2130166665,
      "d": 249.9998166666628,
      "v": 121
    },
    {
      "midi": 72,
      "hit": false,
      "t": 85698.2130166665,
      "d": 249.9998166666628,
      "v": 121
    },
    {
      "midi": 84,
      "hit": false,
      "t": 85698.2130166665,
      "d": 249.9998166666628,
      "v": 121
    },
    {
      "midi": 73,
      "hit": false,
      "t": 85982.6955666665,
      "d": 249.99981666667736,
      "v": 108
    },
    {
      "midi": 85,
      "hit": false,
      "t": 85982.6955666665,
      "d": 249.99981666667736,
      "v": 108
    },
    {
      "midi": 49,
      "hit": false,
      "t": 85999.93693333317,
      "d": 77.58615000000282,
      "v": 108
    },
    {
      "midi": 61,
      "hit": false,
      "t": 85999.93693333317,
      "d": 249.99981666667736,
      "v": 108
    },
    {
      "midi": 51,
      "hit": false,
      "t": 86258.55743333318,
      "d": 112.06888333334064,
      "v": 110
    },
    {
      "midi": 63,
      "hit": false,
      "t": 86258.55743333318,
      "d": 249.9998166666628,
      "v": 110
    },
    {
      "midi": 75,
      "hit": false,
      "t": 86258.55743333318,
      "d": 249.9998166666628,
      "v": 110
    },
    {
      "midi": 87,
      "hit": false,
      "t": 86275.79879999984,
      "d": 249.99981666664826,
      "v": 110
    },
    {
      "midi": 73,
      "hit": false,
      "t": 86499.93656666651,
      "d": 249.99981666664826,
      "v": 112
    },
    {
      "midi": 85,
      "hit": false,
      "t": 86499.93656666651,
      "d": 249.99981666664826,
      "v": 112
    },
    {
      "midi": 61,
      "hit": false,
      "t": 86508.55724999984,
      "d": 249.99981666664826,
      "v": 112
    },
    {
      "midi": 49,
      "hit": false,
      "t": 86517.17793333317,
      "d": 68.96546666666109,
      "v": 112
    },
    {
      "midi": 48,
      "hit": false,
      "t": 86724.07433333316,
      "d": 86.20683333333,
      "v": 121
    },
    {
      "midi": 60,
      "hit": false,
      "t": 86732.69501666649,
      "d": 249.99981666664826,
      "v": 122
    },
    {
      "midi": 72,
      "hit": false,
      "t": 86732.69501666649,
      "d": 249.99981666664826,
      "v": 122
    },
    {
      "midi": 84,
      "hit": false,
      "t": 86732.69501666649,
      "d": 249.99981666664826,
      "v": 122
    },
    {
      "midi": 49,
      "hit": false,
      "t": 86956.83278333316,
      "d": 77.58614999998827,
      "v": 115
    },
    {
      "midi": 61,
      "hit": false,
      "t": 86956.83278333316,
      "d": 249.99981666664826,
      "v": 115
    },
    {
      "midi": 85,
      "hit": false,
      "t": 86965.45346666648,
      "d": 249.99981666664826,
      "v": 115
    },
    {
      "midi": 73,
      "hit": false,
      "t": 86974.07414999981,
      "d": 249.99981666664826,
      "v": 115
    },
    {
      "midi": 46,
      "hit": false,
      "t": 87267.17738333312,
      "d": 275.8618666666589,
      "v": 121
    },
    {
      "midi": 70,
      "hit": false,
      "t": 87284.4187499998,
      "d": 249.9998166666628,
      "v": 122
    },
    {
      "midi": 82,
      "hit": false,
      "t": 87284.4187499998,
      "d": 275.8618666666589,
      "v": 122
    },
    {
      "midi": 58,
      "hit": false,
      "t": 87284.4187499998,
      "d": 327.5859666666656,
      "v": 122
    },
    {
      "midi": 78,
      "hit": false,
      "t": 88189.59049999979,
      "d": 784.4821833333117,
      "v": 125
    },
    {
      "midi": 75,
      "hit": false,
      "t": 88189.59049999979,
      "d": 801.7235499999806,
      "v": 125
    },
    {
      "midi": 82,
      "hit": false,
      "t": 88189.59049999979,
      "d": 827.5855999999767,
      "v": 125
    },
    {
      "midi": 87,
      "hit": false,
      "t": 88189.59049999979,
      "d": 887.9303833333106,
      "v": 125
    },
    {
      "midi": 63,
      "hit": false,
      "t": 88189.59049999979,
      "d": 1094.8267833333084,
      "v": 126
    },
    {
      "midi": 51,
      "hit": false,
      "t": 88198.21118333311,
      "d": 758.6201333333156,
      "v": 125
    },
    {
      "midi": 54,
      "hit": false,
      "t": 88206.83186666644,
      "d": 1017.2406333333201,
      "v": 126
    },
    {
      "midi": 58,
      "hit": false,
      "t": 88206.83186666644,
      "d": 1344.8265999999858,
      "v": 126
    },
    {
      "midi": 53,
      "hit": false,
      "t": 89603.38256666643,
      "d": 137.93093333332217,
      "v": 125
    },
    {
      "midi": 65,
      "hit": false,
      "t": 89612.00324999976,
      "d": 249.9998166666628,
      "v": 125
    },
    {
      "midi": 77,
      "hit": false,
      "t": 89612.00324999976,
      "d": 249.9998166666628,
      "v": 125
    },
    {
      "midi": 89,
      "hit": false,
      "t": 89612.00324999976,
      "d": 249.9998166666628,
      "v": 125
    },
    {
      "midi": 75,
      "hit": false,
      "t": 90163.7269833331,
      "d": 827.5856000000058,
      "v": 120
    },
    {
      "midi": 78,
      "hit": false,
      "t": 90163.7269833331,
      "d": 827.5856000000058,
      "v": 120
    },
    {
      "midi": 46,
      "hit": false,
      "t": 90163.7269833331,
      "d": 913.7924333333358,
      "v": 120
    },
    {
      "midi": 70,
      "hit": false,
      "t": 90163.7269833331,
      "d": 948.2751666666736,
      "v": 119
    },
    {
      "midi": 51,
      "hit": false,
      "t": 90163.7269833331,
      "d": 1051.7233666666725,
      "v": 120
    },
    {
      "midi": 82,
      "hit": false,
      "t": 90163.7269833331,
      "d": 1060.3440499999997,
      "v": 119
    },
    {
      "midi": 54,
      "hit": false,
      "t": 90163.7269833331,
      "d": 1112.0681500000064,
      "v": 120
    },
    {
      "midi": 58,
      "hit": false,
      "t": 90163.7269833331,
      "d": 1129.3095166666753,
      "v": 120
    },
    {
      "midi": 63,
      "hit": false,
      "t": 91715.4499833331,
      "d": 68.96546666666109,
      "v": 115
    },
    {
      "midi": 51,
      "hit": false,
      "t": 91715.4499833331,
      "d": 77.58614999998827,
      "v": 115
    },
    {
      "midi": 75,
      "hit": false,
      "t": 91715.4499833331,
      "d": 94.82751666665717,
      "v": 115
    },
    {
      "midi": 87,
      "hit": false,
      "t": 91715.4499833331,
      "d": 137.93093333332217,
      "v": 115
    },
    {
      "midi": 63,
      "hit": false,
      "t": 91887.86364999977,
      "d": 206.8963999999978,
      "v": 121
    },
    {
      "midi": 58,
      "hit": false,
      "t": 91887.86364999977,
      "d": 241.37913333333563,
      "v": 121
    },
    {
      "midi": 51,
      "hit": false,
      "t": 91887.86364999977,
      "d": 249.9998166666628,
      "v": 121
    },
    {
      "midi": 75,
      "hit": false,
      "t": 91887.86364999977,
      "d": 249.9998166666628,
      "v": 121
    },
    {
      "midi": 82,
      "hit": false,
      "t": 91887.86364999977,
      "d": 249.9998166666628,
      "v": 121
    },
    {
      "midi": 87,
      "hit": false,
      "t": 91887.86364999977,
      "d": 249.9998166666628,
      "v": 121
    },
    {
      "midi": 72,
      "hit": false,
      "t": 92198.20824999976,
      "d": 77.58615000000282,
      "v": 116
    },
    {
      "midi": 84,
      "hit": false,
      "t": 92198.20824999976,
      "d": 77.58615000000282,
      "v": 116
    },
    {
      "midi": 60,
      "hit": false,
      "t": 92198.20824999976,
      "d": 86.20683333333,
      "v": 116
    },
    {
      "midi": 48,
      "hit": false,
      "t": 92198.20824999976,
      "d": 120.68956666666782,
      "v": 116
    },
    {
      "midi": 54,
      "hit": false,
      "t": 92327.51849999976,
      "d": 206.8963999999978,
      "v": 121
    },
    {
      "midi": 60,
      "hit": false,
      "t": 92327.51849999976,
      "d": 224.13776666666672,
      "v": 121
    },
    {
      "midi": 48,
      "hit": false,
      "t": 92327.51849999976,
      "d": 249.9998166666628,
      "v": 121
    },
    {
      "midi": 72,
      "hit": false,
      "t": 92327.51849999976,
      "d": 249.9998166666628,
      "v": 121
    },
    {
      "midi": 78,
      "hit": false,
      "t": 92327.51849999976,
      "d": 249.9998166666628,
      "v": 121
    },
    {
      "midi": 84,
      "hit": false,
      "t": 92327.51849999976,
      "d": 249.9998166666628,
      "v": 121
    },
    {
      "midi": 46,
      "hit": false,
      "t": 92629.24241666643,
      "d": 68.96546666666109,
      "v": 119
    },
    {
      "midi": 58,
      "hit": false,
      "t": 92629.24241666643,
      "d": 68.96546666666109,
      "v": 119
    },
    {
      "midi": 70,
      "hit": false,
      "t": 92629.24241666643,
      "d": 112.06888333332608,
      "v": 119
    },
    {
      "midi": 82,
      "hit": false,
      "t": 92629.24241666643,
      "d": 112.06888333332608,
      "v": 119
    },
    {
      "midi": 46,
      "hit": false,
      "t": 92758.55266666642,
      "d": 249.9998166666628,
      "v": 124
    },
    {
      "midi": 51,
      "hit": false,
      "t": 92758.55266666642,
      "d": 249.9998166666628,
      "v": 124
    },
    {
      "midi": 58,
      "hit": false,
      "t": 92758.55266666642,
      "d": 249.9998166666628,
      "v": 124
    },
    {
      "midi": 70,
      "hit": false,
      "t": 92758.55266666642,
      "d": 249.9998166666628,
      "v": 124
    },
    {
      "midi": 75,
      "hit": false,
      "t": 92758.55266666642,
      "d": 249.9998166666628,
      "v": 124
    },
    {
      "midi": 82,
      "hit": false,
      "t": 92758.55266666642,
      "d": 249.9998166666628,
      "v": 124
    },
    {
      "midi": 44,
      "hit": false,
      "t": 93094.75931666642,
      "d": 68.96546666666109,
      "v": 122
    },
    {
      "midi": 56,
      "hit": false,
      "t": 93094.75931666642,
      "d": 68.96546666666109,
      "v": 122
    },
    {
      "midi": 68,
      "hit": false,
      "t": 93094.75931666642,
      "d": 86.20683333333,
      "v": 122
    },
    {
      "midi": 80,
      "hit": false,
      "t": 93094.75931666642,
      "d": 86.20683333333,
      "v": 122
    },
    {
      "midi": 68,
      "hit": false,
      "t": 93232.69024999975,
      "d": 362.06870000000345,
      "v": 127
    },
    {
      "midi": 75,
      "hit": false,
      "t": 93232.69024999975,
      "d": 362.06870000000345,
      "v": 127
    },
    {
      "midi": 80,
      "hit": false,
      "t": 93232.69024999975,
      "d": 448.275533333348,
      "v": 127
    },
    {
      "midi": 44,
      "hit": false,
      "t": 93232.69024999975,
      "d": 508.6203166666819,
      "v": 127
    },
    {
      "midi": 54,
      "hit": false,
      "t": 93232.69024999975,
      "d": 534.482366666678,
      "v": 127
    },
    {
      "midi": 51,
      "hit": false,
      "t": 93232.69024999975,
      "d": 543.1030500000052,
      "v": 127
    },
    {
      "midi": 56,
      "hit": false,
      "t": 93232.69024999975,
      "d": 543.1030500000052,
      "v": 127
    },
    {
      "midi": 75,
      "hit": false,
      "t": 94215.44814999976,
      "d": 543.1030499999906,
      "v": 127
    },
    {
      "midi": 80,
      "hit": false,
      "t": 94215.44814999976,
      "d": 594.8271499999973,
      "v": 127
    },
    {
      "midi": 84,
      "hit": false,
      "t": 94215.44814999976,
      "d": 672.4133000000002,
      "v": 127
    },
    {
      "midi": 87,
      "hit": false,
      "t": 94215.44814999976,
      "d": 672.4133000000002,
      "v": 127
    },
    {
      "midi": 63,
      "hit": false,
      "t": 94215.44814999976,
      "d": 1060.3440499999997,
      "v": 127
    },
    {
      "midi": 51,
      "hit": false,
      "t": 94215.44814999976,
      "d": 1284.4818166666664,
      "v": 127
    },
    {
      "midi": 56,
      "hit": false,
      "t": 94215.44814999976,
      "d": 1284.4818166666664,
      "v": 127
    },
    {
      "midi": 60,
      "hit": false,
      "t": 94215.44814999976,
      "d": 1499.998900000006,
      "v": 127
    },
    {
      "midi": 53,
      "hit": false,
      "t": 95801.6538833331,
      "d": 241.37913333333563,
      "v": 126
    },
    {
      "midi": 65,
      "hit": false,
      "t": 95801.6538833331,
      "d": 249.9998166666628,
      "v": 126
    },
    {
      "midi": 77,
      "hit": false,
      "t": 95801.6538833331,
      "d": 249.9998166666628,
      "v": 126
    },
    {
      "midi": 89,
      "hit": false,
      "t": 95801.6538833331,
      "d": 249.9998166666628,
      "v": 126
    },
    {
      "midi": 68,
      "hit": false,
      "t": 96336.13624999976,
      "d": 1025.8613166666619,
      "v": 110
    },
    {
      "midi": 56,
      "hit": false,
      "t": 96336.13624999976,
      "d": 1172.4129333333258,
      "v": 116
    },
    {
      "midi": 61,
      "hit": false,
      "t": 96336.13624999976,
      "d": 1284.4818166666519,
      "v": 112
    },
    {
      "midi": 80,
      "hit": false,
      "t": 96336.13624999976,
      "d": 1284.4818166666519,
      "v": 112
    },
    {
      "midi": 84,
      "hit": false,
      "t": 96336.13624999976,
      "d": 1284.4818166666519,
      "v": 127
    },
    {
      "midi": 87,
      "hit": false,
      "t": 96336.13624999976,
      "d": 1284.4818166666519,
      "v": 121
    },
    {
      "midi": 92,
      "hit": false,
      "t": 96336.13624999976,
      "d": 1284.4818166666519,
      "v": 126
    },
    {
      "midi": 65,
      "hit": false,
      "t": 96344.75693333309,
      "d": 1025.8613166666619,
      "v": 106
    },
    {
      "midi": 75,
      "hit": false,
      "t": 97749.92831666641,
      "d": 103.4481999999989,
      "v": 117
    },
    {
      "midi": 51,
      "hit": false,
      "t": 97749.92831666641,
      "d": 249.9998166666628,
      "v": 117
    },
    {
      "midi": 63,
      "hit": false,
      "t": 97749.92831666641,
      "d": 249.9998166666628,
      "v": 117
    },
    {
      "midi": 87,
      "hit": false,
      "t": 97749.92831666641,
      "d": 249.9998166666628,
      "v": 117
    },
    {
      "midi": 50,
      "hit": false,
      "t": 98017.16949999974,
      "d": 249.9998166666628,
      "v": 101
    },
    {
      "midi": 62,
      "hit": false,
      "t": 98017.16949999974,
      "d": 249.9998166666628,
      "v": 67
    },
    {
      "midi": 74,
      "hit": false,
      "t": 98025.79018333307,
      "d": 86.20683333333,
      "v": 108
    },
    {
      "midi": 86,
      "hit": false,
      "t": 98025.79018333307,
      "d": 249.9998166666628,
      "v": 115
    },
    {
      "midi": 75,
      "hit": false,
      "t": 98361.99683333306,
      "d": 172.41366666666,
      "v": 121
    },
    {
      "midi": 51,
      "hit": false,
      "t": 98361.99683333306,
      "d": 249.9998166666628,
      "v": 121
    },
    {
      "midi": 63,
      "hit": false,
      "t": 98361.99683333306,
      "d": 249.9998166666628,
      "v": 121
    },
    {
      "midi": 87,
      "hit": false,
      "t": 98370.61751666639,
      "d": 249.9998166666628,
      "v": 121
    },
    {
      "midi": 77,
      "hit": false,
      "t": 98680.96211666639,
      "d": 86.20683333333,
      "v": 81
    },
    {
      "midi": 53,
      "hit": false,
      "t": 98680.96211666639,
      "d": 249.9998166666628,
      "v": 88
    },
    {
      "midi": 65,
      "hit": false,
      "t": 98680.96211666639,
      "d": 249.9998166666628,
      "v": 85
    },
    {
      "midi": 89,
      "hit": false,
      "t": 98680.96211666639,
      "d": 249.9998166666628,
      "v": 112
    },
    {
      "midi": 78,
      "hit": false,
      "t": 98965.44466666639,
      "d": 86.20683333331544,
      "v": 104
    },
    {
      "midi": 54,
      "hit": false,
      "t": 98974.06534999971,
      "d": 249.99981666664826,
      "v": 99
    },
    {
      "midi": 90,
      "hit": false,
      "t": 98974.06534999971,
      "d": 249.99981666664826,
      "v": 110
    },
    {
      "midi": 66,
      "hit": false,
      "t": 98982.68603333304,
      "d": 249.99981666664826,
      "v": 101
    },
    {
      "midi": 89,
      "hit": false,
      "t": 99396.47883333302,
      "d": 991.3785833333241,
      "v": 114
    },
    {
      "midi": 92,
      "hit": false,
      "t": 99396.47883333302,
      "d": 999.9992666666512,
      "v": 127
    },
    {
      "midi": 56,
      "hit": false,
      "t": 99396.47883333302,
      "d": 1077.585416666654,
      "v": 112
    },
    {
      "midi": 68,
      "hit": false,
      "t": 99396.47883333302,
      "d": 1094.826783333323,
      "v": 107
    },
    {
      "midi": 61,
      "hit": false,
      "t": 99396.47883333302,
      "d": 1112.0681499999919,
      "v": 112
    },
    {
      "midi": 65,
      "hit": false,
      "t": 99396.47883333302,
      "d": 1112.0681499999919,
      "v": 103
    },
    {
      "midi": 85,
      "hit": false,
      "t": 99405.09951666635,
      "d": 982.7578999999969,
      "v": 111
    },
    {
      "midi": 80,
      "hit": false,
      "t": 99405.09951666635,
      "d": 1112.0681499999919,
      "v": 108
    },
    {
      "midi": 89,
      "hit": false,
      "t": 100913.71909999967,
      "d": 249.9998166666628,
      "v": 127
    },
    {
      "midi": 53,
      "hit": false,
      "t": 100930.96046666634,
      "d": 198.27571666665608,
      "v": 110
    },
    {
      "midi": 65,
      "hit": false,
      "t": 100939.58114999966,
      "d": 103.4481999999989,
      "v": 115
    },
    {
      "midi": 77,
      "hit": false,
      "t": 100939.58114999966,
      "d": 112.06888333332608,
      "v": 127
    },
    {
      "midi": 70,
      "hit": false,
      "t": 101439.580783333,
      "d": 120.68956666665326,
      "v": 127
    },
    {
      "midi": 58,
      "hit": false,
      "t": 101439.580783333,
      "d": 206.89639999998326,
      "v": 127
    },
    {
      "midi": 82,
      "hit": false,
      "t": 101448.20146666633,
      "d": 129.310249999995,
      "v": 127
    },
    {
      "midi": 94,
      "hit": false,
      "t": 101448.20146666633,
      "d": 249.9998166666628,
      "v": 127
    },
    {
      "midi": 68,
      "hit": false,
      "t": 101861.99426666633,
      "d": 94.82751666665717,
      "v": 122
    },
    {
      "midi": 80,
      "hit": false,
      "t": 101861.99426666633,
      "d": 112.06888333332608,
      "v": 122
    },
    {
      "midi": 92,
      "hit": false,
      "t": 101870.61494999965,
      "d": 249.9998166666628,
      "v": 123
    },
    {
      "midi": 56,
      "hit": false,
      "t": 101879.23563333298,
      "d": 224.13776666666672,
      "v": 123
    },
    {
      "midi": 68,
      "hit": false,
      "t": 102413.71799999966,
      "d": 1232.7577166666451,
      "v": 127
    },
    {
      "midi": 56,
      "hit": false,
      "t": 102413.71799999966,
      "d": 1560.3436833333108,
      "v": 127
    },
    {
      "midi": 92,
      "hit": false,
      "t": 102422.33868333299,
      "d": 1060.3440499999851,
      "v": 127
    },
    {
      "midi": 80,
      "hit": false,
      "t": 102422.33868333299,
      "d": 1198.2749833333219,
      "v": 127
    },
    {
      "midi": 75,
      "hit": false,
      "t": 104025.78578333298,
      "d": 129.310249999995,
      "v": 124
    },
    {
      "midi": 87,
      "hit": false,
      "t": 104025.78578333298,
      "d": 249.9998166666628,
      "v": 124
    },
    {
      "midi": 63,
      "hit": false,
      "t": 104051.64783333297,
      "d": 120.68956666666782,
      "v": 110
    },
    {
      "midi": 51,
      "hit": false,
      "t": 104051.64783333297,
      "d": 249.9998166666628,
      "v": 120
    },
    {
      "midi": 70,
      "hit": false,
      "t": 104543.02678333297,
      "d": 155.17229999999108,
      "v": 127
    },
    {
      "midi": 82,
      "hit": false,
      "t": 104543.02678333297,
      "d": 275.8618666666589,
      "v": 127
    },
    {
      "midi": 94,
      "hit": false,
      "t": 104551.6474666663,
      "d": 249.9998166666628,
      "v": 127
    },
    {
      "midi": 58,
      "hit": false,
      "t": 104560.26814999963,
      "d": 224.13776666666672,
      "v": 127
    },
    {
      "midi": 68,
      "hit": false,
      "t": 104982.68163333296,
      "d": 120.68956666665326,
      "v": 123
    },
    {
      "midi": 56,
      "hit": false,
      "t": 104999.92299999963,
      "d": 206.89639999998326,
      "v": 123
    },
    {
      "midi": 80,
      "hit": false,
      "t": 105008.54368333296,
      "d": 103.44819999998435,
      "v": 123
    },
    {
      "midi": 92,
      "hit": false,
      "t": 105017.16436666629,
      "d": 249.9998166666628,
      "v": 123
    },
    {
      "midi": 56,
      "hit": false,
      "t": 105491.30194999962,
      "d": 1275.8611333333247,
      "v": 127
    },
    {
      "midi": 68,
      "hit": false,
      "t": 105491.30194999962,
      "d": 1284.4818166666519,
      "v": 127
    },
    {
      "midi": 80,
      "hit": false,
      "t": 105499.92263333294,
      "d": 1344.8265999999858,
      "v": 127
    },
    {
      "midi": 92,
      "hit": false,
      "t": 105508.54331666627,
      "d": 1198.2749833333364,
      "v": 127
    },
    {
      "midi": 65,
      "hit": false,
      "t": 107180.95588333292,
      "d": 112.06888333334064,
      "v": 121
    },
    {
      "midi": 89,
      "hit": false,
      "t": 107180.95588333292,
      "d": 249.99981666667736,
      "v": 127
    },
    {
      "midi": 53,
      "hit": false,
      "t": 107198.19724999959,
      "d": 112.06888333334064,
      "v": 110
    },
    {
      "midi": 77,
      "hit": false,
      "t": 107198.19724999959,
      "d": 112.06888333334064,
      "v": 127
    },
    {
      "midi": 95,
      "hit": false,
      "t": 107680.95551666626,
      "d": 249.9998166666628,
      "v": 127
    },
    {
      "midi": 83,
      "hit": false,
      "t": 107689.57619999959,
      "d": 189.6550333333289,
      "v": 127
    },
    {
      "midi": 71,
      "hit": false,
      "t": 107715.43824999958,
      "d": 120.68956666666782,
      "v": 127
    },
    {
      "midi": 59,
      "hit": false,
      "t": 107715.43824999958,
      "d": 129.310249999995,
      "v": 100
    },
    {
      "midi": 70,
      "hit": false,
      "t": 108111.98968333293,
      "d": 112.06888333332608,
      "v": 124
    },
    {
      "midi": 82,
      "hit": false,
      "t": 108129.2310499996,
      "d": 112.06888333332608,
      "v": 124
    },
    {
      "midi": 94,
      "hit": false,
      "t": 108129.2310499996,
      "d": 249.9998166666628,
      "v": 124
    },
    {
      "midi": 58,
      "hit": false,
      "t": 108137.85173333292,
      "d": 77.58615000000282,
      "v": 124
    },
    {
      "midi": 70,
      "hit": false,
      "t": 108611.98931666627,
      "d": 1241.3784000000014,
      "v": 127
    },
    {
      "midi": 82,
      "hit": false,
      "t": 108611.98931666627,
      "d": 1310.3438666666625,
      "v": 127
    },
    {
      "midi": 94,
      "hit": false,
      "t": 108620.6099999996,
      "d": 1198.2749833333364,
      "v": 127
    },
    {
      "midi": 58,
      "hit": false,
      "t": 108629.23068333292,
      "d": 1551.7229999999981,
      "v": 127
    },
    {
      "midi": 54,
      "hit": false,
      "t": 110172.33299999959,
      "d": 249.9998166666337,
      "v": 120
    },
    {
      "midi": 66,
      "hit": false,
      "t": 110172.33299999959,
      "d": 249.9998166666337,
      "v": 110
    },
    {
      "midi": 78,
      "hit": false,
      "t": 110172.33299999959,
      "d": 249.9998166666337,
      "v": 116
    },
    {
      "midi": 90,
      "hit": false,
      "t": 110172.33299999959,
      "d": 249.9998166666337,
      "v": 124
    },
    {
      "midi": 97,
      "hit": false,
      "t": 110741.29809999956,
      "d": 249.9998166666337,
      "v": 127
    },
    {
      "midi": 85,
      "hit": false,
      "t": 110749.91878333289,
      "d": 129.31024999998044,
      "v": 127
    },
    {
      "midi": 73,
      "hit": false,
      "t": 110749.91878333289,
      "d": 224.13776666663762,
      "v": 127
    },
    {
      "midi": 61,
      "hit": false,
      "t": 110767.16014999956,
      "d": 181.03434999997262,
      "v": 125
    },
    {
      "midi": 60,
      "hit": false,
      "t": 111206.81499999954,
      "d": 163.7929833333037,
      "v": 127
    },
    {
      "midi": 72,
      "hit": false,
      "t": 111215.43568333286,
      "d": 155.17229999997653,
      "v": 127
    },
    {
      "midi": 84,
      "hit": false,
      "t": 111215.43568333286,
      "d": 172.41366666664544,
      "v": 127
    },
    {
      "midi": 96,
      "hit": false,
      "t": 111224.05636666619,
      "d": 249.99981666664826,
      "v": 127
    },
    {
      "midi": 72,
      "hit": false,
      "t": 111767.15941666617,
      "d": 836.206283333333,
      "v": 125
    },
    {
      "midi": 60,
      "hit": false,
      "t": 111767.15941666617,
      "d": 939.6544833333319,
      "v": 125
    },
    {
      "midi": 96,
      "hit": false,
      "t": 111775.7800999995,
      "d": 810.3442333333369,
      "v": 125
    },
    {
      "midi": 84,
      "hit": false,
      "t": 111775.7800999995,
      "d": 931.0338000000047,
      "v": 125
    },
    {
      "midi": 68,
      "hit": false,
      "t": 113267.15831666616,
      "d": 249.99981666664826,
      "v": 123
    },
    {
      "midi": 80,
      "hit": false,
      "t": 113275.77899999949,
      "d": 249.99981666664826,
      "v": 123
    },
    {
      "midi": 92,
      "hit": false,
      "t": 113275.77899999949,
      "d": 249.99981666664826,
      "v": 123
    },
    {
      "midi": 56,
      "hit": false,
      "t": 113284.39968333281,
      "d": 103.4481999999989,
      "v": 123
    },
    {
      "midi": 61,
      "hit": false,
      "t": 113689.57179999947,
      "d": 112.06888333332608,
      "v": 121
    },
    {
      "midi": 73,
      "hit": false,
      "t": 113698.1924833328,
      "d": 249.9998166666628,
      "v": 121
    },
    {
      "midi": 85,
      "hit": false,
      "t": 113698.1924833328,
      "d": 249.9998166666628,
      "v": 122
    },
    {
      "midi": 97,
      "hit": false,
      "t": 113698.1924833328,
      "d": 249.9998166666628,
      "v": 121
    },
    {
      "midi": 72,
      "hit": false,
      "t": 114051.64049999946,
      "d": 249.9998166666628,
      "v": 125
    },
    {
      "midi": 84,
      "hit": false,
      "t": 114051.64049999946,
      "d": 249.9998166666628,
      "v": 125
    },
    {
      "midi": 60,
      "hit": false,
      "t": 114068.88186666612,
      "d": 137.93093333332217,
      "v": 125
    },
    {
      "midi": 96,
      "hit": false,
      "t": 114068.88186666612,
      "d": 249.9998166666628,
      "v": 125
    },
    {
      "midi": 56,
      "hit": false,
      "t": 114439.57124999946,
      "d": 137.93093333332217,
      "v": 112
    },
    {
      "midi": 68,
      "hit": false,
      "t": 114448.19193333278,
      "d": 249.9998166666628,
      "v": 112
    },
    {
      "midi": 80,
      "hit": false,
      "t": 114448.19193333278,
      "d": 249.9998166666628,
      "v": 112
    },
    {
      "midi": 92,
      "hit": false,
      "t": 114456.81261666611,
      "d": 249.9998166666628,
      "v": 112
    },
    {
      "midi": 91,
      "hit": false,
      "t": 114767.1572166661,
      "d": 249.9998166666628,
      "v": 103
    },
    {
      "midi": 55,
      "hit": false,
      "t": 114784.39858333278,
      "d": 129.310249999995,
      "v": 103
    },
    {
      "midi": 67,
      "hit": false,
      "t": 114784.39858333278,
      "d": 249.9998166666628,
      "v": 103
    },
    {
      "midi": 79,
      "hit": false,
      "t": 114784.39858333278,
      "d": 249.9998166666628,
      "v": 103
    },
    {
      "midi": 60,
      "hit": false,
      "t": 115163.70864999943,
      "d": 189.65503333334345,
      "v": 124
    },
    {
      "midi": 84,
      "hit": false,
      "t": 115163.70864999943,
      "d": 224.13776666668127,
      "v": 107
    },
    {
      "midi": 53,
      "hit": false,
      "t": 115163.70864999943,
      "d": 249.99981666667736,
      "v": 124
    },
    {
      "midi": 65,
      "hit": false,
      "t": 115163.70864999943,
      "d": 249.99981666667736,
      "v": 124
    },
    {
      "midi": 77,
      "hit": false,
      "t": 115163.70864999943,
      "d": 249.99981666667736,
      "v": 115
    },
    {
      "midi": 89,
      "hit": false,
      "t": 115163.70864999943,
      "d": 249.99981666667736,
      "v": 126
    },
    {
      "midi": 80,
      "hit": false,
      "t": 115163.70864999943,
      "d": 258.62050000000454,
      "v": 98
    },
    {
      "midi": 73,
      "hit": false,
      "t": 115517.15666666611,
      "d": 86.20683333331544,
      "v": 112
    },
    {
      "midi": 61,
      "hit": false,
      "t": 115525.77734999944,
      "d": 94.82751666664262,
      "v": 112
    },
    {
      "midi": 49,
      "hit": false,
      "t": 115534.39803333276,
      "d": 77.58614999998827,
      "v": 112
    },
    {
      "midi": 85,
      "hit": false,
      "t": 115534.39803333276,
      "d": 249.99981666664826,
      "v": 112
    },
    {
      "midi": 48,
      "hit": false,
      "t": 115836.12194999942,
      "d": 120.68956666665326,
      "v": 124
    },
    {
      "midi": 60,
      "hit": false,
      "t": 115836.12194999942,
      "d": 120.68956666665326,
      "v": 124
    },
    {
      "midi": 72,
      "hit": false,
      "t": 115844.74263333275,
      "d": 120.68956666665326,
      "v": 125
    },
    {
      "midi": 84,
      "hit": false,
      "t": 115844.74263333275,
      "d": 249.99981666664826,
      "v": 125
    },
    {
      "midi": 47,
      "hit": false,
      "t": 116189.56996666607,
      "d": 155.17229999999108,
      "v": 117
    },
    {
      "midi": 71,
      "hit": false,
      "t": 116189.56996666607,
      "d": 198.27571666665608,
      "v": 115
    },
    {
      "midi": 77,
      "hit": false,
      "t": 116189.56996666607,
      "d": 241.37913333332108,
      "v": 112
    },
    {
      "midi": 80,
      "hit": false,
      "t": 116189.56996666607,
      "d": 241.37913333332108,
      "v": 96
    },
    {
      "midi": 53,
      "hit": false,
      "t": 116189.56996666607,
      "d": 249.99981666664826,
      "v": 117
    },
    {
      "midi": 59,
      "hit": false,
      "t": 116189.56996666607,
      "d": 249.99981666664826,
      "v": 117
    },
    {
      "midi": 56,
      "hit": false,
      "t": 116189.56996666607,
      "d": 327.5859666666365,
      "v": 117
    },
    {
      "midi": 83,
      "hit": false,
      "t": 116198.1906499994,
      "d": 224.13776666666672,
      "v": 119
    },
    {
      "midi": 48,
      "hit": false,
      "t": 116499.91456666605,
      "d": 120.68956666663871,
      "v": 127
    },
    {
      "midi": 60,
      "hit": false,
      "t": 116508.53524999938,
      "d": 77.58614999998827,
      "v": 127
    },
    {
      "midi": 72,
      "hit": false,
      "t": 116517.1559333327,
      "d": 77.58614999998827,
      "v": 127
    },
    {
      "midi": 84,
      "hit": false,
      "t": 116517.1559333327,
      "d": 249.99981666664826,
      "v": 127
    },
    {
      "midi": 68,
      "hit": false,
      "t": 116870.60394999935,
      "d": 112.06888333332608,
      "v": 115
    },
    {
      "midi": 80,
      "hit": false,
      "t": 116879.22463333268,
      "d": 249.9998166666628,
      "v": 112
    },
    {
      "midi": 44,
      "hit": false,
      "t": 116887.845316666,
      "d": 120.68956666666782,
      "v": 104
    },
    {
      "midi": 56,
      "hit": false,
      "t": 116887.845316666,
      "d": 120.68956666666782,
      "v": 98
    },
    {
      "midi": 67,
      "hit": false,
      "t": 117232.67264999934,
      "d": 198.27571666664153,
      "v": 118
    },
    {
      "midi": 79,
      "hit": false,
      "t": 117232.67264999934,
      "d": 206.8963999999687,
      "v": 118
    },
    {
      "midi": 72,
      "hit": false,
      "t": 117232.67264999934,
      "d": 318.9652833332948,
      "v": 118
    },
    {
      "midi": 43,
      "hit": false,
      "t": 117258.53469999933,
      "d": 163.79298333331826,
      "v": 119
    },
    {
      "midi": 55,
      "hit": false,
      "t": 117267.15538333266,
      "d": 181.03434999997262,
      "v": 120
    },
    {
      "midi": 48,
      "hit": false,
      "t": 117267.15538333266,
      "d": 318.9652833332948,
      "v": 120
    },
    {
      "midi": 68,
      "hit": false,
      "t": 117568.8792999993,
      "d": 86.20683333331544,
      "v": 113
    },
    {
      "midi": 80,
      "hit": false,
      "t": 117568.8792999993,
      "d": 249.99981666664826,
      "v": 110
    },
    {
      "midi": 44,
      "hit": false,
      "t": 117577.49998333263,
      "d": 94.82751666665717,
      "v": 90
    },
    {
      "midi": 56,
      "hit": false,
      "t": 117586.12066666596,
      "d": 94.82751666665717,
      "v": 112
    },
    {
      "midi": 53,
      "hit": false,
      "t": 117870.60321666596,
      "d": 86.20683333333,
      "v": 93
    },
    {
      "midi": 65,
      "hit": false,
      "t": 117870.60321666596,
      "d": 103.4481999999989,
      "v": 107
    },
    {
      "midi": 41,
      "hit": false,
      "t": 117870.60321666596,
      "d": 112.06888333332608,
      "v": 105
    },
    {
      "midi": 77,
      "hit": false,
      "t": 117870.60321666596,
      "d": 249.9998166666628,
      "v": 114
    },
    {
      "midi": 44,
      "hit": false,
      "t": 118275.77533333263,
      "d": 241.37913333332108,
      "v": 120
    },
    {
      "midi": 41,
      "hit": false,
      "t": 118275.77533333263,
      "d": 275.8618666666589,
      "v": 120
    },
    {
      "midi": 73,
      "hit": false,
      "t": 118275.77533333263,
      "d": 318.96528333330934,
      "v": 120
    },
    {
      "midi": 68,
      "hit": false,
      "t": 118275.77533333263,
      "d": 370.6893833333015,
      "v": 120
    },
    {
      "midi": 61,
      "hit": false,
      "t": 118284.39601666595,
      "d": 301.723916666655,
      "v": 120
    },
    {
      "midi": 65,
      "hit": false,
      "t": 118284.39601666595,
      "d": 379.31006666664325,
      "v": 120
    },
    {
      "midi": 37,
      "hit": false,
      "t": 118310.25806666595,
      "d": 267.2411833333317,
      "v": 120
    },
    {
      "midi": 49,
      "hit": false,
      "t": 118310.25806666595,
      "d": 275.8618666666589,
      "v": 120
    },
    {
      "midi": 60,
      "hit": false,
      "t": 118637.8440333326,
      "d": 163.7929833333328,
      "v": 120
    },
    {
      "midi": 36,
      "hit": false,
      "t": 118646.46471666593,
      "d": 163.7929833333328,
      "v": 120
    },
    {
      "midi": 72,
      "hit": false,
      "t": 118646.46471666593,
      "d": 249.9998166666628,
      "v": 120
    },
    {
      "midi": 48,
      "hit": false,
      "t": 118663.7060833326,
      "d": 120.68956666666782,
      "v": 122
    },
    {
      "midi": 35,
      "hit": false,
      "t": 118939.56794999925,
      "d": 94.82751666665717,
      "v": 124
    },
    {
      "midi": 59,
      "hit": false,
      "t": 118939.56794999925,
      "d": 94.82751666665717,
      "v": 124
    },
    {
      "midi": 47,
      "hit": false,
      "t": 118939.56794999925,
      "d": 120.68956666665326,
      "v": 124
    },
    {
      "midi": 71,
      "hit": false,
      "t": 118948.18863333258,
      "d": 249.9998166666628,
      "v": 124
    },
    {
      "midi": 48,
      "hit": false,
      "t": 119249.91254999925,
      "d": 129.31024999998044,
      "v": 124
    },
    {
      "midi": 60,
      "hit": false,
      "t": 119249.91254999925,
      "d": 129.31024999998044,
      "v": 124
    },
    {
      "midi": 72,
      "hit": false,
      "t": 119258.53323333258,
      "d": 249.99981666664826,
      "v": 124
    },
    {
      "midi": 36,
      "hit": false,
      "t": 119267.1539166659,
      "d": 103.4481999999989,
      "v": 124
    },
    {
      "midi": 44,
      "hit": false,
      "t": 119611.98124999923,
      "d": 103.44819999998435,
      "v": 114
    },
    {
      "midi": 56,
      "hit": false,
      "t": 119611.98124999923,
      "d": 137.93093333332217,
      "v": 114
    },
    {
      "midi": 68,
      "hit": false,
      "t": 119611.98124999923,
      "d": 249.9998166666628,
      "v": 114
    },
    {
      "midi": 34,
      "hit": false,
      "t": 119620.60193333255,
      "d": 68.96546666666109,
      "v": 114
    },
    {
      "midi": 32,
      "hit": false,
      "t": 119620.60193333255,
      "d": 146.5516166666639,
      "v": 114
    },
    {
      "midi": 43,
      "hit": false,
      "t": 119913.7051666659,
      "d": 120.68956666665326,
      "v": 93
    },
    {
      "midi": 31,
      "hit": false,
      "t": 119913.7051666659,
      "d": 137.93093333332217,
      "v": 93
    },
    {
      "midi": 55,
      "hit": false,
      "t": 119922.32584999922,
      "d": 137.93093333332217,
      "v": 117
    },
    {
      "midi": 67,
      "hit": false,
      "t": 119922.32584999922,
      "d": 249.99981666664826,
      "v": 108
    },
    {
      "midi": 41,
      "hit": false,
      "t": 120241.29113333253,
      "d": 232.7584499999939,
      "v": 127
    },
    {
      "midi": 29,
      "hit": false,
      "t": 120258.5324999992,
      "d": 172.41366666666,
      "v": 122
    },
    {
      "midi": 53,
      "hit": false,
      "t": 120258.5324999992,
      "d": 206.8963999999978,
      "v": 122
    },
    {
      "midi": 65,
      "hit": false,
      "t": 120267.15318333253,
      "d": 249.9998166666628,
      "v": 121
    },
    {
      "midi": 37,
      "hit": false,
      "t": 120586.11846666585,
      "d": 137.93093333330762,
      "v": 114
    },
    {
      "midi": 49,
      "hit": false,
      "t": 120594.73914999918,
      "d": 120.68956666665326,
      "v": 114
    },
    {
      "midi": 61,
      "hit": false,
      "t": 120603.3598333325,
      "d": 249.99981666664826,
      "v": 114
    },
    {
      "midi": 48,
      "hit": false,
      "t": 120896.46306666582,
      "d": 129.31024999998044,
      "v": 125
    },
    {
      "midi": 60,
      "hit": false,
      "t": 120905.08374999915,
      "d": 249.99981666664826,
      "v": 125
    },
    {
      "midi": 36,
      "hit": false,
      "t": 120913.70443333247,
      "d": 120.68956666665326,
      "v": 125
    },
    {
      "midi": 59,
      "hit": false,
      "t": 121232.6697166658,
      "d": 241.37913333330653,
      "v": 126
    },
    {
      "midi": 35,
      "hit": false,
      "t": 121249.91108333247,
      "d": 241.37913333330653,
      "v": 126
    },
    {
      "midi": 47,
      "hit": false,
      "t": 121267.15244999912,
      "d": 181.03434999998717,
      "v": 126
    },
    {
      "midi": 48,
      "hit": false,
      "t": 121594.73841666577,
      "d": 249.99981666664826,
      "v": 125
    },
    {
      "midi": 60,
      "hit": false,
      "t": 121603.3590999991,
      "d": 249.99981666664826,
      "v": 125
    },
    {
      "midi": 36,
      "hit": false,
      "t": 121611.97978333243,
      "d": 172.41366666666,
      "v": 125
    },
    {
      "midi": 32,
      "hit": false,
      "t": 122017.15189999908,
      "d": 232.75845000000845,
      "v": 114
    },
    {
      "midi": 44,
      "hit": false,
      "t": 122017.15189999908,
      "d": 249.99981666667736,
      "v": 114
    },
    {
      "midi": 56,
      "hit": false,
      "t": 122017.15189999908,
      "d": 249.99981666667736,
      "v": 114
    },
    {
      "midi": 43,
      "hit": false,
      "t": 122448.18606666576,
      "d": 129.310249999995,
      "v": 115
    },
    {
      "midi": 31,
      "hit": false,
      "t": 122448.18606666576,
      "d": 137.93093333332217,
      "v": 115
    },
    {
      "midi": 55,
      "hit": false,
      "t": 122456.80674999909,
      "d": 249.9998166666628,
      "v": 115
    },
    {
      "midi": 53,
      "hit": false,
      "t": 122939.56501666574,
      "d": 1284.4818166666519,
      "v": 119
    },
    {
      "midi": 56,
      "hit": false,
      "t": 122939.56501666574,
      "d": 1284.4818166666519,
      "v": 23
    },
    {
      "midi": 29,
      "hit": false,
      "t": 122948.18569999907,
      "d": 1284.4818166666519,
      "v": 127
    },
    {
      "midi": 41,
      "hit": false,
      "t": 122948.18569999907,
      "d": 1284.4818166666519,
      "v": 127
    },
    {
      "midi": 65,
      "hit": false,
      "t": 122948.18569999907,
      "d": 1284.4818166666519,
      "v": 34
    }
  ]
}