{
  "jsonPath": "Ambient/Easy Listening/Richard Clayderman/the-thorn-birds.json",
  "path": "Ambient\\Easy Listening\\Richard Clayderman\\The Thorn Birds.mid",
  "name": "The Thorn Birds",
  "difficulty": "Advanced",
  "bpm": 88.00105601267215,
  "notes": [
    {
      "midi": 57,
      "hit": false,
      "t": 29317.83,
      "d": 870.0179687499985,
      "v": 85
    },
    {
      "midi": 65,
      "hit": false,
      "t": 29317.83,
      "d": 884.2223437499997,
      "v": 99
    },
    {
      "midi": 60,
      "hit": false,
      "t": 29317.83,
      "d": 891.3245312500003,
      "v": 99
    },
    {
      "midi": 41,
      "hit": false,
      "t": 29317.83,
      "d": 948.1420312500013,
      "v": 99
    },
    {
      "midi": 65,
      "hit": false,
      "t": 30340.545000000002,
      "d": 777.6895312500019,
      "v": 95
    },
    {
      "midi": 60,
      "hit": false,
      "t": 30340.545000000002,
      "d": 784.7917187500025,
      "v": 99
    },
    {
      "midi": 57,
      "hit": false,
      "t": 30340.545000000002,
      "d": 820.3026562500017,
      "v": 99
    },
    {
      "midi": 48,
      "hit": false,
      "t": 30340.545000000002,
      "d": 926.8354687500032,
      "v": 91
    },
    {
      "midi": 55,
      "hit": false,
      "t": 31363.260000000006,
      "d": 777.6895312500019,
      "v": 91
    },
    {
      "midi": 58,
      "hit": false,
      "t": 31363.260000000006,
      "d": 798.9960937500036,
      "v": 95
    },
    {
      "midi": 60,
      "hit": false,
      "t": 31363.260000000006,
      "d": 870.0179687500022,
      "v": 85
    },
    {
      "midi": 62,
      "hit": false,
      "t": 31363.260000000006,
      "d": 884.2223437500033,
      "v": 91
    },
    {
      "midi": 65,
      "hit": false,
      "t": 31363.260000000006,
      "d": 912.631093750002,
      "v": 81
    },
    {
      "midi": 41,
      "hit": false,
      "t": 31363.260000000006,
      "d": 1012.0617187500029,
      "v": 85
    },
    {
      "midi": 57,
      "hit": false,
      "t": 32385.97500000001,
      "d": 862.9157812500016,
      "v": 81
    },
    {
      "midi": 65,
      "hit": false,
      "t": 32385.97500000001,
      "d": 891.3245312500039,
      "v": 95
    },
    {
      "midi": 60,
      "hit": false,
      "t": 32385.97500000001,
      "d": 898.4267187500045,
      "v": 95
    },
    {
      "midi": 48,
      "hit": false,
      "t": 32385.97500000001,
      "d": 941.039843750008,
      "v": 95
    },
    {
      "midi": 57,
      "hit": false,
      "t": 33408.69000000002,
      "d": 870.0179687499985,
      "v": 95
    },
    {
      "midi": 60,
      "hit": false,
      "t": 33408.69000000002,
      "d": 898.4267187500009,
      "v": 99
    },
    {
      "midi": 65,
      "hit": false,
      "t": 33408.69000000002,
      "d": 905.5289062500015,
      "v": 95
    },
    {
      "midi": 41,
      "hit": false,
      "t": 33408.69000000002,
      "d": 962.3464062499988,
      "v": 99
    },
    {
      "midi": 55,
      "hit": false,
      "t": 34431.40500000001,
      "d": 898.4267187500009,
      "v": 99
    },
    {
      "midi": 64,
      "hit": false,
      "t": 34431.40500000001,
      "d": 955.2442187499983,
      "v": 95
    },
    {
      "midi": 60,
      "hit": false,
      "t": 34431.40500000001,
      "d": 976.55078125,
      "v": 95
    },
    {
      "midi": 48,
      "hit": false,
      "t": 34431.40500000001,
      "d": 1047.5726562499985,
      "v": 107
    },
    {
      "midi": 65,
      "hit": false,
      "t": 35454.12000000001,
      "d": 898.4267187500009,
      "v": 95
    },
    {
      "midi": 57,
      "hit": false,
      "t": 35454.12000000001,
      "d": 905.5289062500015,
      "v": 77
    },
    {
      "midi": 60,
      "hit": false,
      "t": 35454.12000000001,
      "d": 912.631093750002,
      "v": 85
    },
    {
      "midi": 41,
      "hit": false,
      "t": 35454.12000000001,
      "d": 2034.7767187500067,
      "v": 99
    },
    {
      "midi": 57,
      "hit": false,
      "t": 36476.835000000014,
      "d": 791.8939062499994,
      "v": 61
    },
    {
      "midi": 65,
      "hit": false,
      "t": 36476.835000000014,
      "d": 905.5289062500015,
      "v": 63
    },
    {
      "midi": 60,
      "hit": false,
      "t": 36476.835000000014,
      "d": 926.8354687500032,
      "v": 73
    },
    {
      "midi": 53,
      "hit": false,
      "t": 37158.64500000001,
      "d": 330.25171875000524,
      "v": 91
    },
    {
      "midi": 57,
      "hit": false,
      "t": 37499.55000000002,
      "d": 870.0179687499985,
      "v": 85
    },
    {
      "midi": 65,
      "hit": false,
      "t": 37499.55000000002,
      "d": 884.2223437499997,
      "v": 99
    },
    {
      "midi": 60,
      "hit": false,
      "t": 37499.55000000002,
      "d": 891.3245312500003,
      "v": 99
    },
    {
      "midi": 41,
      "hit": false,
      "t": 37499.55000000002,
      "d": 948.1420312499977,
      "v": 99
    },
    {
      "midi": 65,
      "hit": false,
      "t": 38522.265000000014,
      "d": 777.6895312499983,
      "v": 95
    },
    {
      "midi": 60,
      "hit": false,
      "t": 38522.265000000014,
      "d": 784.7917187499988,
      "v": 99
    },
    {
      "midi": 57,
      "hit": false,
      "t": 38522.265000000014,
      "d": 820.3026562500017,
      "v": 99
    },
    {
      "midi": 48,
      "hit": false,
      "t": 38522.265000000014,
      "d": 926.8354687500032,
      "v": 91
    },
    {
      "midi": 55,
      "hit": false,
      "t": 39544.98000000002,
      "d": 777.6895312499983,
      "v": 91
    },
    {
      "midi": 58,
      "hit": false,
      "t": 39544.98000000002,
      "d": 798.99609375,
      "v": 95
    },
    {
      "midi": 60,
      "hit": false,
      "t": 39544.98000000002,
      "d": 870.0179687499985,
      "v": 85
    },
    {
      "midi": 62,
      "hit": false,
      "t": 39544.98000000002,
      "d": 884.2223437499997,
      "v": 91
    },
    {
      "midi": 65,
      "hit": false,
      "t": 39544.98000000002,
      "d": 912.631093750002,
      "v": 81
    },
    {
      "midi": 41,
      "hit": false,
      "t": 39544.98000000002,
      "d": 1012.0617187500029,
      "v": 85
    },
    {
      "midi": 57,
      "hit": false,
      "t": 40567.69500000002,
      "d": 862.915781249998,
      "v": 81
    },
    {
      "midi": 65,
      "hit": false,
      "t": 40567.69500000002,
      "d": 891.3245312500003,
      "v": 95
    },
    {
      "midi": 60,
      "hit": false,
      "t": 40567.69500000002,
      "d": 898.4267187500009,
      "v": 95
    },
    {
      "midi": 48,
      "hit": false,
      "t": 40567.69500000002,
      "d": 941.0398437500044,
      "v": 95
    },
    {
      "midi": 57,
      "hit": false,
      "t": 41590.410000000025,
      "d": 870.0179687499985,
      "v": 95
    },
    {
      "midi": 60,
      "hit": false,
      "t": 41590.410000000025,
      "d": 898.4267187500009,
      "v": 99
    },
    {
      "midi": 65,
      "hit": false,
      "t": 41590.410000000025,
      "d": 905.5289062500015,
      "v": 95
    },
    {
      "midi": 41,
      "hit": false,
      "t": 41590.410000000025,
      "d": 962.3464062499988,
      "v": 99
    },
    {
      "midi": 55,
      "hit": false,
      "t": 42613.12500000002,
      "d": 898.4267187500009,
      "v": 99
    },
    {
      "midi": 64,
      "hit": false,
      "t": 42613.12500000002,
      "d": 955.2442187499983,
      "v": 95
    },
    {
      "midi": 60,
      "hit": false,
      "t": 42613.12500000002,
      "d": 976.55078125,
      "v": 95
    },
    {
      "midi": 48,
      "hit": false,
      "t": 42613.12500000002,
      "d": 1047.5726562499985,
      "v": 107
    },
    {
      "midi": 65,
      "hit": false,
      "t": 43635.84000000002,
      "d": 898.4267187500009,
      "v": 95
    },
    {
      "midi": 57,
      "hit": false,
      "t": 43635.84000000002,
      "d": 905.5289062500015,
      "v": 77
    },
    {
      "midi": 60,
      "hit": false,
      "t": 43635.84000000002,
      "d": 912.631093750002,
      "v": 85
    },
    {
      "midi": 41,
      "hit": false,
      "t": 43635.84000000002,
      "d": 2034.7767187500067,
      "v": 99
    },
    {
      "midi": 57,
      "hit": false,
      "t": 44658.55500000002,
      "d": 791.8939062499994,
      "v": 61
    },
    {
      "midi": 65,
      "hit": false,
      "t": 44658.55500000002,
      "d": 905.5289062500015,
      "v": 63
    },
    {
      "midi": 60,
      "hit": false,
      "t": 44658.55500000002,
      "d": 926.8354687500032,
      "v": 73
    },
    {
      "midi": 53,
      "hit": false,
      "t": 45340.36500000002,
      "d": 330.25171875000524,
      "v": 91
    },
    {
      "midi": 46,
      "hit": false,
      "t": 45681.270000000026,
      "d": 351.5582812499997,
      "v": 95
    },
    {
      "midi": 53,
      "hit": false,
      "t": 45681.270000000026,
      "d": 522.0107812499991,
      "v": 81
    },
    {
      "midi": 62,
      "hit": false,
      "t": 45681.270000000026,
      "d": 891.3245312500003,
      "v": 95
    },
    {
      "midi": 58,
      "hit": false,
      "t": 45681.270000000026,
      "d": 905.5289062500015,
      "v": 91
    },
    {
      "midi": 46,
      "hit": false,
      "t": 46192.627500000024,
      "d": 401.2735937500038,
      "v": 69
    },
    {
      "midi": 53,
      "hit": false,
      "t": 46363.08000000002,
      "d": 202.41234375000204,
      "v": 73
    },
    {
      "midi": 55,
      "hit": false,
      "t": 46703.98500000003,
      "d": 472.2954687500023,
      "v": 77
    },
    {
      "midi": 60,
      "hit": false,
      "t": 46703.98500000003,
      "d": 884.222343750007,
      "v": 91
    },
    {
      "midi": 64,
      "hit": false,
      "t": 46703.98500000003,
      "d": 884.222343750007,
      "v": 95
    },
    {
      "midi": 46,
      "hit": false,
      "t": 46703.98500000003,
      "d": 905.5289062500087,
      "v": 81
    },
    {
      "midi": 55,
      "hit": false,
      "t": 47385.795000000035,
      "d": 216.6167187500032,
      "v": 67
    },
    {
      "midi": 57,
      "hit": false,
      "t": 47726.70000000004,
      "d": 401.2735937499965,
      "v": 73
    },
    {
      "midi": 65,
      "hit": false,
      "t": 47726.70000000004,
      "d": 898.4267187500009,
      "v": 99
    },
    {
      "midi": 60,
      "hit": false,
      "t": 47726.70000000004,
      "d": 912.631093750002,
      "v": 85
    },
    {
      "midi": 45,
      "hit": false,
      "t": 47726.70000000004,
      "d": 997.857343750009,
      "v": 95
    },
    {
      "midi": 57,
      "hit": false,
      "t": 48408.51000000004,
      "d": 273.43421875000786,
      "v": 63
    },
    {
      "midi": 57,
      "hit": false,
      "t": 48749.41500000005,
      "d": 330.25171874999796,
      "v": 65
    },
    {
      "midi": 62,
      "hit": false,
      "t": 48749.41500000005,
      "d": 664.0545312499962,
      "v": 81
    },
    {
      "midi": 60,
      "hit": false,
      "t": 48749.41500000005,
      "d": 735.0764062499948,
      "v": 81
    },
    {
      "midi": 65,
      "hit": false,
      "t": 48749.41500000005,
      "d": 798.9960937499927,
      "v": 81
    },
    {
      "midi": 38,
      "hit": false,
      "t": 48749.41500000005,
      "d": 1004.959531249995,
      "v": 81
    },
    {
      "midi": 57,
      "hit": false,
      "t": 49431.22500000005,
      "d": 223.7189062499965,
      "v": 67
    },
    {
      "midi": 55,
      "hit": false,
      "t": 49772.13000000005,
      "d": 429.68234374999884,
      "v": 81
    },
    {
      "midi": 58,
      "hit": false,
      "t": 49772.13000000005,
      "d": 763.4851562499971,
      "v": 65
    },
    {
      "midi": 65,
      "hit": false,
      "t": 49772.13000000005,
      "d": 870.0179687499985,
      "v": 73
    },
    {
      "midi": 62,
      "hit": false,
      "t": 49772.13000000005,
      "d": 898.4267187500009,
      "v": 81
    },
    {
      "midi": 43,
      "hit": false,
      "t": 49772.13000000005,
      "d": 962.3464062499988,
      "v": 77
    },
    {
      "midi": 55,
      "hit": false,
      "t": 50453.940000000046,
      "d": 223.71890625000378,
      "v": 61
    },
    {
      "midi": 55,
      "hit": false,
      "t": 50794.845000000045,
      "d": 387.06921874999534,
      "v": 95
    },
    {
      "midi": 58,
      "hit": false,
      "t": 50794.845000000045,
      "d": 585.9304687499971,
      "v": 95
    },
    {
      "midi": 62,
      "hit": false,
      "t": 50794.845000000045,
      "d": 905.5289062500015,
      "v": 91
    },
    {
      "midi": 65,
      "hit": false,
      "t": 50794.845000000045,
      "d": 941.0398437500044,
      "v": 95
    },
    {
      "midi": 36,
      "hit": false,
      "t": 50794.845000000045,
      "d": 1012.0617187500102,
      "v": 85
    },
    {
      "midi": 48,
      "hit": false,
      "t": 51135.750000000044,
      "d": 635.6457812500084,
      "v": 95
    },
    {
      "midi": 58,
      "hit": false,
      "t": 51476.65500000004,
      "d": 95.87953125000058,
      "v": 49
    },
    {
      "midi": 55,
      "hit": false,
      "t": 51476.65500000004,
      "d": 237.92328125000495,
      "v": 65
    },
    {
      "midi": 41,
      "hit": false,
      "t": 51817.560000000056,
      "d": 564.6239062500026,
      "v": 95
    },
    {
      "midi": 57,
      "hit": false,
      "t": 51817.560000000056,
      "d": 692.4632812500058,
      "v": 73
    },
    {
      "midi": 60,
      "hit": false,
      "t": 51817.560000000056,
      "d": 1019.1639062500035,
      "v": 77
    },
    {
      "midi": 65,
      "hit": false,
      "t": 51817.560000000056,
      "d": 1033.3682812500047,
      "v": 91
    },
    {
      "midi": 41,
      "hit": false,
      "t": 52499.37000000006,
      "d": 1260.6382812500015,
      "v": 77
    },
    {
      "midi": 57,
      "hit": false,
      "t": 52840.27500000006,
      "d": 870.0179687499985,
      "v": 103
    },
    {
      "midi": 60,
      "hit": false,
      "t": 53181.18000000006,
      "d": 550.4195312500015,
      "v": 95
    },
    {
      "midi": 65,
      "hit": false,
      "t": 53522.08500000006,
      "d": 181.1057812500003,
      "v": 95
    },
    {
      "midi": 46,
      "hit": false,
      "t": 53862.99000000006,
      "d": 351.5582812499997,
      "v": 95
    },
    {
      "midi": 53,
      "hit": false,
      "t": 53862.99000000006,
      "d": 522.0107812499991,
      "v": 81
    },
    {
      "midi": 62,
      "hit": false,
      "t": 53862.99000000006,
      "d": 891.3245312500003,
      "v": 95
    },
    {
      "midi": 58,
      "hit": false,
      "t": 53862.99000000006,
      "d": 905.5289062500015,
      "v": 91
    },
    {
      "midi": 46,
      "hit": false,
      "t": 54374.34750000006,
      "d": 401.2735937500038,
      "v": 69
    },
    {
      "midi": 53,
      "hit": false,
      "t": 54544.80000000006,
      "d": 202.41234375000204,
      "v": 73
    },
    {
      "midi": 55,
      "hit": false,
      "t": 54885.70500000007,
      "d": 472.2954687500023,
      "v": 77
    },
    {
      "midi": 60,
      "hit": false,
      "t": 54885.70500000007,
      "d": 884.222343750007,
      "v": 91
    },
    {
      "midi": 64,
      "hit": false,
      "t": 54885.70500000007,
      "d": 884.222343750007,
      "v": 95
    },
    {
      "midi": 46,
      "hit": false,
      "t": 54885.70500000007,
      "d": 905.5289062500087,
      "v": 81
    },
    {
      "midi": 55,
      "hit": false,
      "t": 55567.51500000007,
      "d": 216.6167187500032,
      "v": 67
    },
    {
      "midi": 57,
      "hit": false,
      "t": 55908.42000000008,
      "d": 401.2735937499965,
      "v": 73
    },
    {
      "midi": 65,
      "hit": false,
      "t": 55908.42000000008,
      "d": 898.4267187500009,
      "v": 99
    },
    {
      "midi": 60,
      "hit": false,
      "t": 55908.42000000008,
      "d": 912.631093750002,
      "v": 85
    },
    {
      "midi": 45,
      "hit": false,
      "t": 55908.42000000008,
      "d": 997.857343750009,
      "v": 95
    },
    {
      "midi": 57,
      "hit": false,
      "t": 56590.230000000076,
      "d": 273.43421875000786,
      "v": 63
    },
    {
      "midi": 57,
      "hit": false,
      "t": 56931.13500000009,
      "d": 330.25171874999796,
      "v": 65
    },
    {
      "midi": 62,
      "hit": false,
      "t": 56931.13500000009,
      "d": 664.0545312499962,
      "v": 81
    },
    {
      "midi": 60,
      "hit": false,
      "t": 56931.13500000009,
      "d": 735.0764062499948,
      "v": 81
    },
    {
      "midi": 65,
      "hit": false,
      "t": 56931.13500000009,
      "d": 798.9960937499927,
      "v": 81
    },
    {
      "midi": 38,
      "hit": false,
      "t": 56931.13500000009,
      "d": 1004.959531249995,
      "v": 81
    },
    {
      "midi": 57,
      "hit": false,
      "t": 57612.94500000009,
      "d": 223.7189062499965,
      "v": 67
    },
    {
      "midi": 55,
      "hit": false,
      "t": 57953.850000000086,
      "d": 429.68234374999884,
      "v": 81
    },
    {
      "midi": 58,
      "hit": false,
      "t": 57953.850000000086,
      "d": 763.4851562499971,
      "v": 65
    },
    {
      "midi": 65,
      "hit": false,
      "t": 57953.850000000086,
      "d": 870.0179687499985,
      "v": 73
    },
    {
      "midi": 62,
      "hit": false,
      "t": 57953.850000000086,
      "d": 898.4267187500009,
      "v": 81
    },
    {
      "midi": 43,
      "hit": false,
      "t": 57953.850000000086,
      "d": 962.3464062499988,
      "v": 77
    },
    {
      "midi": 55,
      "hit": false,
      "t": 58635.66000000008,
      "d": 223.71890625000378,
      "v": 61
    },
    {
      "midi": 55,
      "hit": false,
      "t": 58976.56500000008,
      "d": 387.06921874999534,
      "v": 95
    },
    {
      "midi": 58,
      "hit": false,
      "t": 58976.56500000008,
      "d": 585.9304687499971,
      "v": 95
    },
    {
      "midi": 62,
      "hit": false,
      "t": 58976.56500000008,
      "d": 905.5289062500015,
      "v": 91
    },
    {
      "midi": 65,
      "hit": false,
      "t": 58976.56500000008,
      "d": 941.0398437500044,
      "v": 95
    },
    {
      "midi": 36,
      "hit": false,
      "t": 58976.56500000008,
      "d": 1012.0617187500102,
      "v": 85
    },
    {
      "midi": 48,
      "hit": false,
      "t": 59317.47000000008,
      "d": 635.6457812500084,
      "v": 95
    },
    {
      "midi": 58,
      "hit": false,
      "t": 59658.37500000008,
      "d": 95.87953125000058,
      "v": 49
    },
    {
      "midi": 55,
      "hit": false,
      "t": 59658.37500000008,
      "d": 237.92328125000495,
      "v": 65
    },
    {
      "midi": 41,
      "hit": false,
      "t": 59999.28000000009,
      "d": 564.6239062500026,
      "v": 95
    },
    {
      "midi": 57,
      "hit": false,
      "t": 59999.28000000009,
      "d": 692.4632812500058,
      "v": 73
    },
    {
      "midi": 60,
      "hit": false,
      "t": 59999.28000000009,
      "d": 1019.1639062500035,
      "v": 77
    },
    {
      "midi": 65,
      "hit": false,
      "t": 59999.28000000009,
      "d": 1033.3682812500047,
      "v": 91
    },
    {
      "midi": 41,
      "hit": false,
      "t": 60681.0900000001,
      "d": 1260.6382812500015,
      "v": 77
    },
    {
      "midi": 57,
      "hit": false,
      "t": 61021.9950000001,
      "d": 870.0179687499985,
      "v": 103
    },
    {
      "midi": 60,
      "hit": false,
      "t": 61362.900000000096,
      "d": 550.4195312500015,
      "v": 95
    },
    {
      "midi": 65,
      "hit": false,
      "t": 61703.805000000095,
      "d": 181.1057812500003,
      "v": 95
    },
    {
      "midi": 57,
      "hit": false,
      "t": 62044.7100000001,
      "d": 870.0179687499985,
      "v": 85
    },
    {
      "midi": 65,
      "hit": false,
      "t": 62044.7100000001,
      "d": 884.2223437499997,
      "v": 99
    },
    {
      "midi": 60,
      "hit": false,
      "t": 62044.7100000001,
      "d": 891.3245312500003,
      "v": 99
    },
    {
      "midi": 41,
      "hit": false,
      "t": 62044.7100000001,
      "d": 948.1420312499977,
      "v": 99
    },
    {
      "midi": 65,
      "hit": false,
      "t": 63067.4250000001,
      "d": 777.6895312499983,
      "v": 95
    },
    {
      "midi": 60,
      "hit": false,
      "t": 63067.4250000001,
      "d": 784.7917187499988,
      "v": 99
    },
    {
      "midi": 57,
      "hit": false,
      "t": 63067.4250000001,
      "d": 820.3026562500017,
      "v": 99
    },
    {
      "midi": 48,
      "hit": false,
      "t": 63067.4250000001,
      "d": 926.8354687500032,
      "v": 91
    },
    {
      "midi": 55,
      "hit": false,
      "t": 64090.1400000001,
      "d": 777.6895312499983,
      "v": 91
    },
    {
      "midi": 58,
      "hit": false,
      "t": 64090.1400000001,
      "d": 798.99609375,
      "v": 95
    },
    {
      "midi": 60,
      "hit": false,
      "t": 64090.1400000001,
      "d": 870.0179687499985,
      "v": 85
    },
    {
      "midi": 62,
      "hit": false,
      "t": 64090.1400000001,
      "d": 884.2223437499997,
      "v": 91
    },
    {
      "midi": 65,
      "hit": false,
      "t": 64090.1400000001,
      "d": 912.631093750002,
      "v": 81
    },
    {
      "midi": 41,
      "hit": false,
      "t": 64090.1400000001,
      "d": 1012.0617187500029,
      "v": 85
    },
    {
      "midi": 57,
      "hit": false,
      "t": 65112.855000000105,
      "d": 862.915781249998,
      "v": 81
    },
    {
      "midi": 65,
      "hit": false,
      "t": 65112.855000000105,
      "d": 891.3245312500003,
      "v": 95
    },
    {
      "midi": 60,
      "hit": false,
      "t": 65112.855000000105,
      "d": 898.4267187500009,
      "v": 95
    },
    {
      "midi": 48,
      "hit": false,
      "t": 65112.855000000105,
      "d": 941.0398437500044,
      "v": 95
    },
    {
      "midi": 57,
      "hit": false,
      "t": 66135.57000000011,
      "d": 870.0179687500058,
      "v": 95
    },
    {
      "midi": 60,
      "hit": false,
      "t": 66135.57000000011,
      "d": 898.4267187500081,
      "v": 99
    },
    {
      "midi": 65,
      "hit": false,
      "t": 66135.57000000011,
      "d": 905.5289062500087,
      "v": 95
    },
    {
      "midi": 41,
      "hit": false,
      "t": 66135.57000000011,
      "d": 962.3464062500134,
      "v": 99
    },
    {
      "midi": 55,
      "hit": false,
      "t": 67158.28500000012,
      "d": 898.4267187499936,
      "v": 99
    },
    {
      "midi": 64,
      "hit": false,
      "t": 67158.28500000012,
      "d": 955.2442187499983,
      "v": 95
    },
    {
      "midi": 60,
      "hit": false,
      "t": 67158.28500000012,
      "d": 976.55078125,
      "v": 95
    },
    {
      "midi": 48,
      "hit": false,
      "t": 67158.28500000012,
      "d": 1047.5726562499913,
      "v": 107
    },
    {
      "midi": 65,
      "hit": false,
      "t": 68181.00000000012,
      "d": 898.4267187499936,
      "v": 95
    },
    {
      "midi": 57,
      "hit": false,
      "t": 68181.00000000012,
      "d": 905.5289062499942,
      "v": 77
    },
    {
      "midi": 60,
      "hit": false,
      "t": 68181.00000000012,
      "d": 912.6310937499948,
      "v": 85
    },
    {
      "midi": 41,
      "hit": false,
      "t": 68181.00000000012,
      "d": 2034.7767187499994,
      "v": 99
    },
    {
      "midi": 57,
      "hit": false,
      "t": 69203.71500000011,
      "d": 791.8939062499994,
      "v": 61
    },
    {
      "midi": 65,
      "hit": false,
      "t": 69203.71500000011,
      "d": 905.5289062499942,
      "v": 63
    },
    {
      "midi": 60,
      "hit": false,
      "t": 69203.71500000011,
      "d": 926.8354687499959,
      "v": 73
    },
    {
      "midi": 53,
      "hit": false,
      "t": 69885.52500000011,
      "d": 330.25171875000524,
      "v": 91
    },
    {
      "midi": 57,
      "hit": false,
      "t": 70226.43000000011,
      "d": 870.0179687500058,
      "v": 85
    },
    {
      "midi": 65,
      "hit": false,
      "t": 70226.43000000011,
      "d": 884.222343750007,
      "v": 99
    },
    {
      "midi": 60,
      "hit": false,
      "t": 70226.43000000011,
      "d": 891.3245312500076,
      "v": 99
    },
    {
      "midi": 41,
      "hit": false,
      "t": 70226.43000000011,
      "d": 948.1420312500122,
      "v": 99
    },
    {
      "midi": 65,
      "hit": false,
      "t": 71249.14500000012,
      "d": 777.6895312499983,
      "v": 95
    },
    {
      "midi": 60,
      "hit": false,
      "t": 71249.14500000012,
      "d": 784.7917187499988,
      "v": 99
    },
    {
      "midi": 57,
      "hit": false,
      "t": 71249.14500000012,
      "d": 820.3026562500017,
      "v": 99
    },
    {
      "midi": 48,
      "hit": false,
      "t": 71249.14500000012,
      "d": 926.8354687499959,
      "v": 91
    },
    {
      "midi": 55,
      "hit": false,
      "t": 72271.86000000012,
      "d": 777.6895312499983,
      "v": 91
    },
    {
      "midi": 58,
      "hit": false,
      "t": 72271.86000000012,
      "d": 798.99609375,
      "v": 95
    },
    {
      "midi": 60,
      "hit": false,
      "t": 72271.86000000012,
      "d": 870.0179687500058,
      "v": 85
    },
    {
      "midi": 62,
      "hit": false,
      "t": 72271.86000000012,
      "d": 884.222343750007,
      "v": 91
    },
    {
      "midi": 65,
      "hit": false,
      "t": 72271.86000000012,
      "d": 912.6310937500093,
      "v": 81
    },
    {
      "midi": 41,
      "hit": false,
      "t": 72271.86000000012,
      "d": 1012.0617187500029,
      "v": 85
    },
    {
      "midi": 57,
      "hit": false,
      "t": 73294.57500000011,
      "d": 862.9157812500052,
      "v": 81
    },
    {
      "midi": 65,
      "hit": false,
      "t": 73294.57500000011,
      "d": 891.3245312500076,
      "v": 95
    },
    {
      "midi": 60,
      "hit": false,
      "t": 73294.57500000011,
      "d": 898.4267187500081,
      "v": 95
    },
    {
      "midi": 48,
      "hit": false,
      "t": 73294.57500000011,
      "d": 941.0398437500116,
      "v": 95
    },
    {
      "midi": 62,
      "hit": false,
      "t": 74317.29000000012,
      "d": 791.8939062499994,
      "v": 95
    },
    {
      "midi": 58,
      "hit": false,
      "t": 74317.29000000012,
      "d": 841.6092187500035,
      "v": 95
    },
    {
      "midi": 53,
      "hit": false,
      "t": 74317.29000000012,
      "d": 905.5289062500087,
      "v": 91
    },
    {
      "midi": 46,
      "hit": false,
      "t": 74317.29000000012,
      "d": 1004.9595312500023,
      "v": 99
    },
    {
      "midi": 53,
      "hit": false,
      "t": 75340.00500000012,
      "d": 742.1785937499953,
      "v": 95
    },
    {
      "midi": 48,
      "hit": false,
      "t": 75340.00500000012,
      "d": 749.2807812499959,
      "v": 107
    },
    {
      "midi": 58,
      "hit": false,
      "t": 75340.00500000012,
      "d": 756.3829687499965,
      "v": 103
    },
    {
      "midi": 62,
      "hit": false,
      "t": 75340.00500000012,
      "d": 756.3829687499965,
      "v": 95
    },
    {
      "midi": 55,
      "hit": false,
      "t": 75340.00500000012,
      "d": 763.4851562499971,
      "v": 99
    },
    {
      "midi": 65,
      "hit": false,
      "t": 76362.72000000012,
      "d": 898.4267187499936,
      "v": 95
    },
    {
      "midi": 57,
      "hit": false,
      "t": 76362.72000000012,
      "d": 905.5289062499942,
      "v": 77
    },
    {
      "midi": 60,
      "hit": false,
      "t": 76362.72000000012,
      "d": 912.6310937499948,
      "v": 85
    },
    {
      "midi": 41,
      "hit": false,
      "t": 76362.72000000012,
      "d": 2034.7767187499994,
      "v": 99
    },
    {
      "midi": 53,
      "hit": false,
      "t": 77044.53,
      "d": 337.3539062500058,
      "v": 102
    },
    {
      "midi": 57,
      "hit": false,
      "t": 77385.435,
      "d": 394.1714062499959,
      "v": 102
    },
    {
      "midi": 57,
      "hit": false,
      "t": 77385.43500000011,
      "d": 791.8939062499994,
      "v": 61
    },
    {
      "midi": 65,
      "hit": false,
      "t": 77385.43500000011,
      "d": 905.5289062499942,
      "v": 63
    },
    {
      "midi": 60,
      "hit": false,
      "t": 77385.43500000011,
      "d": 926.8354687499959,
      "v": 73
    },
    {
      "midi": 60,
      "hit": false,
      "t": 77726.34,
      "d": 301.8429687500029,
      "v": 98
    },
    {
      "midi": 65,
      "hit": false,
      "t": 78067.245,
      "d": 230.8210937499971,
      "v": 112
    },
    {
      "midi": 53,
      "hit": false,
      "t": 78067.24500000011,
      "d": 330.25171875000524,
      "v": 91
    },
    {
      "midi": 66,
      "hit": false,
      "t": 78408.15,
      "d": 493.6020312500041,
      "v": 118
    },
    {
      "midi": 64,
      "hit": false,
      "t": 78919.50749999999,
      "d": 138.49265625000407,
      "v": 98
    },
    {
      "midi": 66,
      "hit": false,
      "t": 79089.95999999999,
      "d": 323.14953125000466,
      "v": 106
    },
    {
      "midi": 62,
      "hit": false,
      "t": 79430.86499999999,
      "d": 337.3539062500058,
      "v": 98
    },
    {
      "midi": 66,
      "hit": false,
      "t": 79771.76999999999,
      "d": 301.8429687500029,
      "v": 106
    },
    {
      "midi": 69,
      "hit": false,
      "t": 80112.67499999999,
      "d": 323.14953125000466,
      "v": 90
    },
    {
      "midi": 74,
      "hit": false,
      "t": 80453.57999999999,
      "d": 330.25171875000524,
      "v": 112
    },
    {
      "midi": 73,
      "hit": false,
      "t": 80794.48499999999,
      "d": 330.25171875000524,
      "v": 98
    },
    {
      "midi": 74,
      "hit": false,
      "t": 81135.38999999998,
      "d": 323.14953125000466,
      "v": 102
    },
    {
      "midi": 71,
      "hit": false,
      "t": 81476.29499999998,
      "d": 571.7260937499959,
      "v": 106
    },
    {
      "midi": 69,
      "hit": false,
      "t": 82158.10499999998,
      "d": 330.25171875000524,
      "v": 106
    },
    {
      "midi": 67,
      "hit": false,
      "t": 82499.00999999998,
      "d": 472.2954687500023,
      "v": 112
    },
    {
      "midi": 66,
      "hit": false,
      "t": 83010.36749999998,
      "d": 145.59484375000466,
      "v": 84
    },
    {
      "midi": 67,
      "hit": false,
      "t": 83180.81999999998,
      "d": 308.9451562500035,
      "v": 94
    },
    {
      "midi": 64,
      "hit": false,
      "t": 83521.72499999998,
      "d": 671.1567187500041,
      "v": 106
    },
    {
      "midi": 66,
      "hit": false,
      "t": 84203.53499999997,
      "d": 131.3904687500035,
      "v": 90
    },
    {
      "midi": 67,
      "hit": false,
      "t": 84373.98749999997,
      "d": 145.59484375000466,
      "v": 80
    },
    {
      "midi": 66,
      "hit": false,
      "t": 84544.43999999997,
      "d": 635.6457812500012,
      "v": 112
    },
    {
      "midi": 64,
      "hit": false,
      "t": 85226.24999999997,
      "d": 102.98171875000116,
      "v": 64
    },
    {
      "midi": 66,
      "hit": false,
      "t": 85339.88499999997,
      "d": 81.67515624999942,
      "v": 106
    },
    {
      "midi": 64,
      "hit": false,
      "t": 85453.51999999996,
      "d": 88.77734375,
      "v": 94
    },
    {
      "midi": 62,
      "hit": false,
      "t": 85567.15499999996,
      "d": 344.45609374999185,
      "v": 112
    },
    {
      "midi": 66,
      "hit": false,
      "t": 85908.05999999995,
      "d": 287.6385937499872,
      "v": 112
    },
    {
      "midi": 69,
      "hit": false,
      "t": 86248.96499999994,
      "d": 330.25171875000524,
      "v": 102
    },
    {
      "midi": 74,
      "hit": false,
      "t": 86589.86999999994,
      "d": 301.8429687500029,
      "v": 118
    },
    {
      "midi": 73,
      "hit": false,
      "t": 86930.77499999994,
      "d": 308.9451562500035,
      "v": 94
    },
    {
      "midi": 74,
      "hit": false,
      "t": 87271.67999999993,
      "d": 316.0473437500041,
      "v": 106
    },
    {
      "midi": 76,
      "hit": false,
      "t": 87612.58499999993,
      "d": 301.8429687500029,
      "v": 106
    },
    {
      "midi": 74,
      "hit": false,
      "t": 87953.48999999993,
      "d": 294.7407812500023,
      "v": 98
    },
    {
      "midi": 76,
      "hit": false,
      "t": 88294.39499999993,
      "d": 166.9014062500064,
      "v": 112
    },
    {
      "midi": 78,
      "hit": false,
      "t": 88635.29999999994,
      "d": 607.2370312499988,
      "v": 98
    },
    {
      "midi": 76,
      "hit": false,
      "t": 89317.10999999994,
      "d": 88.77734375,
      "v": 64
    },
    {
      "midi": 78,
      "hit": false,
      "t": 89430.74499999994,
      "d": 81.67515624999942,
      "v": 98
    },
    {
      "midi": 76,
      "hit": false,
      "t": 89544.37999999993,
      "d": 95.87953125000058,
      "v": 80
    },
    {
      "midi": 74,
      "hit": false,
      "t": 89658.01499999993,
      "d": 685.3610937499907,
      "v": 112
    },
    {
      "midi": 71,
      "hit": false,
      "t": 90339.82499999992,
      "d": 287.6385937499872,
      "v": 112
    },
    {
      "midi": 69,
      "hit": false,
      "t": 90680.72999999991,
      "d": 323.14953125000466,
      "v": 98
    },
    {
      "midi": 67,
      "hit": false,
      "t": 91021.63499999991,
      "d": 330.25171875000524,
      "v": 98
    },
    {
      "midi": 66,
      "hit": false,
      "t": 91362.5399999999,
      "d": 344.45609374999185,
      "v": 98
    },
    {
      "midi": 67,
      "hit": false,
      "t": 91703.4449999999,
      "d": 443.88671875,
      "v": 98
    },
    {
      "midi": 64,
      "hit": false,
      "t": 92385.2549999999,
      "d": 46.16421874999651,
      "v": 80
    },
    {
      "midi": 66,
      "hit": false,
      "t": 92498.8899999999,
      "d": 102.98171875000116,
      "v": 94
    },
    {
      "midi": 64,
      "hit": false,
      "t": 92612.52499999989,
      "d": 74.57296874999884,
      "v": 80
    },
    {
      "midi": 62,
      "hit": false,
      "t": 92726.15999999989,
      "d": 1175.4120312500017,
      "v": 102
    },
    {
      "midi": 59,
      "hit": false,
      "t": 94771.59000000011,
      "d": 500.70421875000466,
      "v": 91
    },
    {
      "midi": 67,
      "hit": false,
      "t": 94771.59000000011,
      "d": 770.5873437499977,
      "v": 91
    },
    {
      "midi": 62,
      "hit": false,
      "t": 94771.59000000011,
      "d": 813.2004687500012,
      "v": 103
    },
    {
      "midi": 43,
      "hit": false,
      "t": 94771.59000000011,
      "d": 941.0398437499971,
      "v": 103
    },
    {
      "midi": 59,
      "hit": false,
      "t": 95453.40000000011,
      "d": 237.92328124999767,
      "v": 65
    },
    {
      "midi": 57,
      "hit": false,
      "t": 95794.30500000011,
      "d": 536.215156249993,
      "v": 85
    },
    {
      "midi": 61,
      "hit": false,
      "t": 95794.30500000011,
      "d": 820.3026562500017,
      "v": 91
    },
    {
      "midi": 64,
      "hit": false,
      "t": 95794.30500000011,
      "d": 834.5070312500029,
      "v": 95
    },
    {
      "midi": 43,
      "hit": false,
      "t": 95794.30500000011,
      "d": 1019.1639062500035,
      "v": 99
    },
    {
      "midi": 57,
      "hit": false,
      "t": 96476.1150000001,
      "d": 266.33203125,
      "v": 65
    },
    {
      "midi": 57,
      "hit": false,
      "t": 96817.0200000001,
      "d": 486.4998437500035,
      "v": 69
    },
    {
      "midi": 66,
      "hit": false,
      "t": 96817.0200000001,
      "d": 898.4267187499936,
      "v": 77
    },
    {
      "midi": 62,
      "hit": false,
      "t": 96817.0200000001,
      "d": 926.8354687499959,
      "v": 95
    },
    {
      "midi": 42,
      "hit": false,
      "t": 96817.0200000001,
      "d": 976.55078125,
      "v": 91
    },
    {
      "midi": 57,
      "hit": false,
      "t": 97498.8300000001,
      "d": 216.61671874999593,
      "v": 57
    },
    {
      "midi": 47,
      "hit": false,
      "t": 97839.7350000001,
      "d": 216.61671874999593,
      "v": 113
    },
    {
      "midi": 59,
      "hit": false,
      "t": 97839.7350000001,
      "d": 301.8429687500029,
      "v": 91
    },
    {
      "midi": 66,
      "hit": false,
      "t": 97839.7350000001,
      "d": 763.4851562499971,
      "v": 85
    },
    {
      "midi": 62,
      "hit": false,
      "t": 97839.7350000001,
      "d": 898.4267187499936,
      "v": 77
    },
    {
      "midi": 47,
      "hit": false,
      "t": 98180.6400000001,
      "d": 671.1567187500041,
      "v": 95
    },
    {
      "midi": 59,
      "hit": false,
      "t": 98521.5450000001,
      "d": 287.63859375000175,
      "v": 95
    },
    {
      "midi": 67,
      "hit": false,
      "t": 98862.4500000001,
      "d": 905.5289062499942,
      "v": 81
    },
    {
      "midi": 62,
      "hit": false,
      "t": 98862.4500000001,
      "d": 919.7332812499953,
      "v": 81
    },
    {
      "midi": 59,
      "hit": false,
      "t": 98862.4500000001,
      "d": 926.8354687499959,
      "v": 85
    },
    {
      "midi": 64,
      "hit": false,
      "t": 98862.4500000001,
      "d": 969.4485937499994,
      "v": 95
    },
    {
      "midi": 40,
      "hit": false,
      "t": 98862.4500000001,
      "d": 1012.0617187500029,
      "v": 113
    },
    {
      "midi": 57,
      "hit": false,
      "t": 99885.1650000001,
      "d": 543.3173437499936,
      "v": 81
    },
    {
      "midi": 61,
      "hit": false,
      "t": 99885.1650000001,
      "d": 806.098281249986,
      "v": 91
    },
    {
      "midi": 64,
      "hit": false,
      "t": 99885.1650000001,
      "d": 841.6092187499889,
      "v": 81
    },
    {
      "midi": 45,
      "hit": false,
      "t": 99885.1650000001,
      "d": 969.4485937499994,
      "v": 99
    },
    {
      "midi": 57,
      "hit": false,
      "t": 100481.74875000009,
      "d": 330.25171875000524,
      "v": 35
    },
    {
      "midi": 57,
      "hit": false,
      "t": 100907.88000000009,
      "d": 827.4048437500023,
      "v": 65
    },
    {
      "midi": 66,
      "hit": false,
      "t": 100907.88000000009,
      "d": 870.0179687500058,
      "v": 81
    },
    {
      "midi": 62,
      "hit": false,
      "t": 100907.88000000009,
      "d": 898.4267187500081,
      "v": 81
    },
    {
      "midi": 38,
      "hit": false,
      "t": 100907.88000000009,
      "d": 2013.4701562500268,
      "v": 99
    },
    {
      "midi": 50,
      "hit": false,
      "t": 101504.4637500001,
      "d": 458.09109375000116,
      "v": 95
    },
    {
      "midi": 57,
      "hit": false,
      "t": 101930.5950000001,
      "d": 245.02546874999825,
      "v": 77
    },
    {
      "midi": 62,
      "hit": false,
      "t": 101930.5950000001,
      "d": 593.0326562499977,
      "v": 99
    },
    {
      "midi": 66,
      "hit": false,
      "t": 101930.5950000001,
      "d": 884.222343750007,
      "v": 99
    },
    {
      "midi": 50,
      "hit": false,
      "t": 102186.2737500001,
      "d": 763.4851562500262,
      "v": 99
    },
    {
      "midi": 57,
      "hit": false,
      "t": 102356.7262500001,
      "d": 479.39765625001746,
      "v": 77
    },
    {
      "midi": 62,
      "hit": false,
      "t": 102697.63125000011,
      "d": 131.3904687500035,
      "v": 39
    },
    {
      "midi": 59,
      "hit": false,
      "t": 102953.31000000011,
      "d": 529.112968750007,
      "v": 91
    },
    {
      "midi": 67,
      "hit": false,
      "t": 102953.31000000011,
      "d": 884.222343750007,
      "v": 85
    },
    {
      "midi": 62,
      "hit": false,
      "t": 102953.31000000011,
      "d": 891.3245312500076,
      "v": 91
    },
    {
      "midi": 43,
      "hit": false,
      "t": 102953.31000000011,
      "d": 912.6310937500093,
      "v": 103
    },
    {
      "midi": 59,
      "hit": false,
      "t": 103635.12000000013,
      "d": 252.12765624999884,
      "v": 67
    },
    {
      "midi": 61,
      "hit": false,
      "t": 103976.02500000013,
      "d": 926.8354687499959,
      "v": 81
    },
    {
      "midi": 64,
      "hit": false,
      "t": 103976.02500000013,
      "d": 933.9376562499965,
      "v": 85
    },
    {
      "midi": 57,
      "hit": false,
      "t": 103976.02500000013,
      "d": 948.1420312499977,
      "v": 91
    },
    {
      "midi": 43,
      "hit": false,
      "t": 103976.02500000013,
      "d": 976.55078125,
      "v": 99
    },
    {
      "midi": 57,
      "hit": false,
      "t": 104998.74000000012,
      "d": 884.222343750007,
      "v": 73
    },
    {
      "midi": 66,
      "hit": false,
      "t": 104998.74000000012,
      "d": 905.5289062500087,
      "v": 81
    },
    {
      "midi": 62,
      "hit": false,
      "t": 104998.74000000012,
      "d": 948.1420312500122,
      "v": 95
    },
    {
      "midi": 42,
      "hit": false,
      "t": 104998.74000000012,
      "d": 983.6529687500151,
      "v": 95
    },
    {
      "midi": 59,
      "hit": false,
      "t": 106021.45500000013,
      "d": 138.49265625000407,
      "v": 61
    },
    {
      "midi": 62,
      "hit": false,
      "t": 106021.45500000013,
      "d": 408.3757812499971,
      "v": 73
    },
    {
      "midi": 66,
      "hit": false,
      "t": 106021.45500000013,
      "d": 450.9889062500006,
      "v": 77
    },
    {
      "midi": 47,
      "hit": false,
      "t": 106021.45500000013,
      "d": 969.4485937499994,
      "v": 113
    },
    {
      "midi": 59,
      "hit": false,
      "t": 106362.36000000013,
      "d": 571.7260937499959,
      "v": 65
    },
    {
      "midi": 62,
      "hit": false,
      "t": 106703.26500000013,
      "d": 230.8210937499971,
      "v": 81
    },
    {
      "midi": 67,
      "hit": false,
      "t": 107044.17000000013,
      "d": 848.7114062500041,
      "v": 91
    },
    {
      "midi": 62,
      "hit": false,
      "t": 107044.17000000013,
      "d": 877.1201562500064,
      "v": 81
    },
    {
      "midi": 59,
      "hit": false,
      "t": 107044.17000000013,
      "d": 891.3245312500076,
      "v": 65
    },
    {
      "midi": 40,
      "hit": false,
      "t": 107044.17000000013,
      "d": 1004.9595312500023,
      "v": 95
    },
    {
      "midi": 64,
      "hit": false,
      "t": 107044.17000000013,
      "d": 1921.1417187500047,
      "v": 85
    },
    {
      "midi": 61,
      "hit": false,
      "t": 108066.88500000013,
      "d": 862.9157812500052,
      "v": 81
    },
    {
      "midi": 57,
      "hit": false,
      "t": 108066.88500000013,
      "d": 962.3464062500134,
      "v": 73
    },
    {
      "midi": 45,
      "hit": false,
      "t": 108066.88500000013,
      "d": 969.448593750014,
      "v": 107
    },
    {
      "midi": 57,
      "hit": false,
      "t": 109089.60000000014,
      "d": 1061.7770312499924,
      "v": 77
    },
    {
      "midi": 62,
      "hit": false,
      "t": 109089.60000000014,
      "d": 1125.6967187499977,
      "v": 77
    },
    {
      "midi": 66,
      "hit": false,
      "t": 109089.60000000014,
      "d": 1175.4120312500017,
      "v": 81
    },
    {
      "midi": 38,
      "hit": false,
      "t": 109089.60000000014,
      "d": 1857.2220312499994,
      "v": 81
    },
    {
      "midi": 50,
      "hit": false,
      "t": 110112.31500000013,
      "d": 855.8135937500047,
      "v": 103
    },
    {
      "midi": 57,
      "hit": false,
      "t": 110282.76750000013,
      "d": 692.4632812500058,
      "v": 77
    },
    {
      "midi": 62,
      "hit": false,
      "t": 110453.22000000013,
      "d": 514.9085937500058,
      "v": 99
    },
    {
      "midi": 66,
      "hit": false,
      "t": 110794.12500000013,
      "d": 174.00359375000698,
      "v": 91
    },
    {
      "midi": 55,
      "hit": false,
      "t": 127498.47000000015,
      "d": 898.4267187499936,
      "v": 95
    },
    {
      "midi": 64,
      "hit": false,
      "t": 127498.47000000015,
      "d": 905.5289062499942,
      "v": 91
    },
    {
      "midi": 60,
      "hit": false,
      "t": 128180.28000000014,
      "d": 273.4342187500006,
      "v": 47
    },
    {
      "midi": 55,
      "hit": false,
      "t": 128521.18500000014,
      "d": 259.2298437499994,
      "v": 61
    },
    {
      "midi": 60,
      "hit": false,
      "t": 128521.18500000014,
      "d": 870.0179687500058,
      "v": 73
    },
    {
      "midi": 64,
      "hit": false,
      "t": 128521.18500000014,
      "d": 870.0179687500058,
      "v": 77
    },
    {
      "midi": 55,
      "hit": false,
      "t": 129202.99500000014,
      "d": 131.3904687500035,
      "v": 61
    },
    {
      "midi": 60,
      "hit": false,
      "t": 129543.90000000015,
      "d": 855.8135937500047,
      "v": 77
    },
    {
      "midi": 65,
      "hit": false,
      "t": 129543.90000000015,
      "d": 870.0179687500058,
      "v": 85
    },
    {
      "midi": 57,
      "hit": false,
      "t": 129543.90000000015,
      "d": 877.1201562500064,
      "v": 69
    },
    {
      "midi": 53,
      "hit": false,
      "t": 130566.61500000017,
      "d": 763.4851562500116,
      "v": 73
    },
    {
      "midi": 59,
      "hit": false,
      "t": 130566.61500000017,
      "d": 834.5070312500175,
      "v": 99
    },
    {
      "midi": 62,
      "hit": false,
      "t": 130566.61500000017,
      "d": 870.0179687500058,
      "v": 69
    },
    {
      "midi": 55,
      "hit": false,
      "t": 131589.33000000016,
      "d": 486.4998437500035,
      "v": 95
    },
    {
      "midi": 60,
      "hit": false,
      "t": 131589.33000000016,
      "d": 763.4851562500116,
      "v": 81
    },
    {
      "midi": 64,
      "hit": false,
      "t": 131589.33000000016,
      "d": 919.7332812500244,
      "v": 73
    },
    {
      "midi": 55,
      "hit": false,
      "t": 132271.14000000016,
      "d": 237.92328125002678,
      "v": 53
    },
    {
      "midi": 55,
      "hit": false,
      "t": 132612.0450000002,
      "d": 522.0107812499919,
      "v": 65
    },
    {
      "midi": 64,
      "hit": false,
      "t": 132612.0450000002,
      "d": 834.5070312499884,
      "v": 91
    },
    {
      "midi": 60,
      "hit": false,
      "t": 132952.9500000002,
      "d": 536.215156249993,
      "v": 85
    },
    {
      "midi": 55,
      "hit": false,
      "t": 133293.85500000019,
      "d": 152.6970312499907,
      "v": 67
    },
    {
      "midi": 57,
      "hit": false,
      "t": 133634.76000000018,
      "d": 543.3173437500081,
      "v": 73
    },
    {
      "midi": 65,
      "hit": false,
      "t": 133634.76000000018,
      "d": 770.5873437499977,
      "v": 95
    },
    {
      "midi": 62,
      "hit": false,
      "t": 133634.76000000018,
      "d": 806.098281249986,
      "v": 81
    },
    {
      "midi": 60,
      "hit": false,
      "t": 133634.76000000018,
      "d": 834.5070312499884,
      "v": 81
    },
    {
      "midi": 57,
      "hit": false,
      "t": 134316.57000000018,
      "d": 195.31015624999418,
      "v": 37
    },
    {
      "midi": 53,
      "hit": false,
      "t": 134657.47500000018,
      "d": 777.6895312500128,
      "v": 99
    },
    {
      "midi": 62,
      "hit": false,
      "t": 134657.47500000018,
      "d": 877.120156250021,
      "v": 99
    },
    {
      "midi": 59,
      "hit": false,
      "t": 134657.47500000018,
      "d": 919.7332812500244,
      "v": 103
    },
    {
      "midi": 55,
      "hit": false,
      "t": 135680.1900000002,
      "d": 493.6020312499895,
      "v": 73
    },
    {
      "midi": 60,
      "hit": false,
      "t": 135680.1900000002,
      "d": 742.1785937499953,
      "v": 95
    },
    {
      "midi": 64,
      "hit": false,
      "t": 135680.1900000002,
      "d": 898.4267187500081,
      "v": 99
    },
    {
      "midi": 55,
      "hit": false,
      "t": 136362.0000000002,
      "d": 223.7189062499965,
      "v": 61
    },
    {
      "midi": 55,
      "hit": false,
      "t": 136702.9050000002,
      "d": 529.112968750007,
      "v": 81
    },
    {
      "midi": 64,
      "hit": false,
      "t": 136702.9050000002,
      "d": 784.7917187499988,
      "v": 95
    },
    {
      "midi": 60,
      "hit": false,
      "t": 137043.8100000002,
      "d": 479.39765624998836,
      "v": 91
    },
    {
      "midi": 55,
      "hit": false,
      "t": 137384.7150000002,
      "d": 145.59484374997555,
      "v": 67
    },
    {
      "midi": 65,
      "hit": false,
      "t": 137725.62000000017,
      "d": 742.1785937499953,
      "v": 91
    },
    {
      "midi": 62,
      "hit": false,
      "t": 137725.62000000017,
      "d": 827.4048437500023,
      "v": 73
    },
    {
      "midi": 57,
      "hit": false,
      "t": 137725.62000000017,
      "d": 848.7114062499895,
      "v": 95
    },
    {
      "midi": 60,
      "hit": false,
      "t": 137725.62000000017,
      "d": 855.8135937499756,
      "v": 77
    },
    {
      "midi": 53,
      "hit": false,
      "t": 138748.33500000014,
      "d": 798.99609375,
      "v": 95
    },
    {
      "midi": 62,
      "hit": false,
      "t": 138748.33500000014,
      "d": 870.0179687500058,
      "v": 103
    },
    {
      "midi": 59,
      "hit": false,
      "t": 138748.33500000014,
      "d": 891.324531249993,
      "v": 95
    },
    {
      "midi": 55,
      "hit": false,
      "t": 139771.05000000013,
      "d": 507.8064062499907,
      "v": 95
    },
    {
      "midi": 60,
      "hit": false,
      "t": 139771.05000000013,
      "d": 685.3610937499907,
      "v": 95
    },
    {
      "midi": 64,
      "hit": false,
      "t": 139771.05000000013,
      "d": 926.8354687499814,
      "v": 95
    },
    {
      "midi": 55,
      "hit": false,
      "t": 140452.86000000013,
      "d": 337.3539062499767,
      "v": 61
    },
    {
      "midi": 55,
      "hit": false,
      "t": 140793.7650000001,
      "d": 3.551093749993015,
      "v": 51
    },
    {
      "midi": 60,
      "hit": false,
      "t": 140793.7650000001,
      "d": 877.1201562499919,
      "v": 85
    },
    {
      "midi": 64,
      "hit": false,
      "t": 141134.6700000001,
      "d": 550.4195312499942,
      "v": 99
    },
    {
      "midi": 55,
      "hit": false,
      "t": 141475.5750000001,
      "d": 166.90140624999185,
      "v": 77
    },
    {
      "midi": 57,
      "hit": false,
      "t": 141816.4800000001,
      "d": 450.98890624998603,
      "v": 73
    },
    {
      "midi": 65,
      "hit": false,
      "t": 141816.4800000001,
      "d": 777.6895312499837,
      "v": 103
    },
    {
      "midi": 62,
      "hit": false,
      "t": 141816.4800000001,
      "d": 820.3026562499872,
      "v": 99
    },
    {
      "midi": 60,
      "hit": false,
      "t": 141816.4800000001,
      "d": 848.7114062499895,
      "v": 99
    },
    {
      "midi": 57,
      "hit": false,
      "t": 142498.2900000001,
      "d": 216.61671874998137,
      "v": 31
    },
    {
      "midi": 53,
      "hit": false,
      "t": 142839.19500000007,
      "d": 784.7917187499988,
      "v": 91
    },
    {
      "midi": 62,
      "hit": false,
      "t": 142839.19500000007,
      "d": 827.4048437500023,
      "v": 103
    },
    {
      "midi": 59,
      "hit": false,
      "t": 142839.19500000007,
      "d": 841.6092187500035,
      "v": 103
    },
    {
      "midi": 60,
      "hit": false,
      "t": 143861.91000000006,
      "d": 2091.5942187499895,
      "v": 85
    },
    {
      "midi": 55,
      "hit": false,
      "t": 143861.91000000006,
      "d": 2105.7985937499907,
      "v": 99
    },
    {
      "midi": 48,
      "hit": false,
      "t": 143861.91000000006,
      "d": 2112.9007812499767,
      "v": 99
    }
  ]
}