{
  "jsonPath": "Ambient/Easy Listening/Richard Clayderman/white-christmas.json",
  "path": "Ambient\\Easy Listening\\Richard Clayderman\\White Christmas.mid",
  "name": "White Christmas",
  "difficulty": "Advanced",
  "bpm": 115.00201253521936,
  "notes": [
    {
      "midi": 56,
      "hit": false,
      "t": 5217.3,
      "d": 749.9868749999996,
      "v": 93
    },
    {
      "midi": 60,
      "hit": false,
      "t": 5217.3,
      "d": 752.7042187499992,
      "v": 99
    },
    {
      "midi": 41,
      "hit": false,
      "t": 5217.3,
      "d": 1032.590624999999,
      "v": 115
    },
    {
      "midi": 62,
      "hit": false,
      "t": 5739.03,
      "d": 225.53953125000044,
      "v": 127
    },
    {
      "midi": 43,
      "hit": false,
      "t": 6260.759999999999,
      "d": 540.7514062499995,
      "v": 127
    },
    {
      "midi": 64,
      "hit": false,
      "t": 6260.759999999999,
      "d": 589.6635937499996,
      "v": 111
    },
    {
      "midi": 60,
      "hit": false,
      "t": 6260.759999999999,
      "d": 622.2717187499993,
      "v": 107
    },
    {
      "midi": 55,
      "hit": false,
      "t": 6260.759999999999,
      "d": 630.423749999999,
      "v": 107
    },
    {
      "midi": 31,
      "hit": false,
      "t": 6782.489999999999,
      "d": 502.70859374999964,
      "v": 107
    },
    {
      "midi": 43,
      "hit": false,
      "t": 7304.219999999998,
      "d": 546.1860937500005,
      "v": 111
    },
    {
      "midi": 55,
      "hit": false,
      "t": 7304.219999999998,
      "d": 619.5543749999997,
      "v": 93
    },
    {
      "midi": 58,
      "hit": false,
      "t": 7304.219999999998,
      "d": 630.4237499999999,
      "v": 99
    },
    {
      "midi": 64,
      "hit": false,
      "t": 7304.219999999998,
      "d": 646.7278125000003,
      "v": 96
    },
    {
      "midi": 61,
      "hit": false,
      "t": 7304.219999999998,
      "d": 652.1625000000004,
      "v": 111
    },
    {
      "midi": 31,
      "hit": false,
      "t": 7825.949999999999,
      "d": 510.86062499999935,
      "v": 103
    },
    {
      "midi": 69,
      "hit": false,
      "t": 8347.679999999998,
      "d": 353.2546875000007,
      "v": 99
    },
    {
      "midi": 65,
      "hit": false,
      "t": 8347.679999999998,
      "d": 364.12406250000095,
      "v": 107
    },
    {
      "midi": 60,
      "hit": false,
      "t": 8347.679999999998,
      "d": 388.5801562500001,
      "v": 107
    },
    {
      "midi": 43,
      "hit": false,
      "t": 8347.679999999998,
      "d": 532.5993749999998,
      "v": 111
    },
    {
      "midi": 31,
      "hit": false,
      "t": 8869.409999999998,
      "d": 505.42593750000015,
      "v": 115
    },
    {
      "midi": 55,
      "hit": false,
      "t": 9130.274999999998,
      "d": 135.8671875,
      "v": 96
    },
    {
      "midi": 59,
      "hit": false,
      "t": 9130.274999999998,
      "d": 135.8671875,
      "v": 107
    },
    {
      "midi": 53,
      "hit": false,
      "t": 9130.274999999998,
      "d": 154.88859374999993,
      "v": 93
    },
    {
      "midi": 59,
      "hit": false,
      "t": 9391.139999999998,
      "d": 209.2354687499992,
      "v": 107
    },
    {
      "midi": 55,
      "hit": false,
      "t": 9391.139999999998,
      "d": 214.6701562499984,
      "v": 90
    },
    {
      "midi": 52,
      "hit": false,
      "t": 9391.139999999998,
      "d": 233.69156249999833,
      "v": 90
    },
    {
      "midi": 43,
      "hit": false,
      "t": 9391.139999999998,
      "d": 538.0340624999972,
      "v": 111
    },
    {
      "midi": 50,
      "hit": false,
      "t": 9912.869999999995,
      "d": 230.97421874999782,
      "v": 90
    },
    {
      "midi": 59,
      "hit": false,
      "t": 9912.869999999995,
      "d": 241.84359374999804,
      "v": 111
    },
    {
      "midi": 53,
      "hit": false,
      "t": 9912.869999999995,
      "d": 249.99562499999774,
      "v": 93
    },
    {
      "midi": 31,
      "hit": false,
      "t": 9912.869999999995,
      "d": 383.14546874999724,
      "v": 111
    },
    {
      "midi": 52,
      "hit": false,
      "t": 10434.599999999993,
      "d": 274.4517187500005,
      "v": 115
    },
    {
      "midi": 60,
      "hit": false,
      "t": 10434.599999999993,
      "d": 298.90781249999964,
      "v": 119
    },
    {
      "midi": 65,
      "hit": false,
      "t": 11478.059999999992,
      "d": 97.82437500000015,
      "v": 111
    },
    {
      "midi": 69,
      "hit": false,
      "t": 11478.059999999992,
      "d": 122.28046874999927,
      "v": 111
    },
    {
      "midi": 72,
      "hit": false,
      "t": 11478.059999999992,
      "d": 173.90999999999985,
      "v": 115
    },
    {
      "midi": 77,
      "hit": false,
      "t": 11738.924999999992,
      "d": 285.3210937499989,
      "v": 119
    },
    {
      "midi": 81,
      "hit": false,
      "t": 11999.789999999992,
      "d": 298.90781249999964,
      "v": 107
    },
    {
      "midi": 84,
      "hit": false,
      "t": 12260.654999999992,
      "d": 62.49890624999898,
      "v": 119
    },
    {
      "midi": 36,
      "hit": false,
      "t": 12521.519999999991,
      "d": 173.90999999999985,
      "v": 127
    },
    {
      "midi": 72,
      "hit": false,
      "t": 12681.84328124999,
      "d": 288.0384374999994,
      "v": 107
    },
    {
      "midi": 43,
      "hit": false,
      "t": 12681.84328124999,
      "d": 355.97203125000124,
      "v": 111
    },
    {
      "midi": 52,
      "hit": false,
      "t": 12782.384999999991,
      "d": 201.0834374999995,
      "v": 99
    },
    {
      "midi": 76,
      "hit": false,
      "t": 12782.384999999991,
      "d": 211.9528124999997,
      "v": 115
    },
    {
      "midi": 79,
      "hit": false,
      "t": 12866.62265624999,
      "d": 168.47531250000065,
      "v": 127
    },
    {
      "midi": 84,
      "hit": false,
      "t": 12942.70828124999,
      "d": 105.97640625000167,
      "v": 123
    },
    {
      "midi": 55,
      "hit": false,
      "t": 14608.439999999991,
      "d": 241.84359374999985,
      "v": 82
    },
    {
      "midi": 57,
      "hit": false,
      "t": 14608.439999999991,
      "d": 249.99562499999956,
      "v": 86
    },
    {
      "midi": 60,
      "hit": false,
      "t": 14608.439999999991,
      "d": 252.71296875000007,
      "v": 88
    },
    {
      "midi": 48,
      "hit": false,
      "t": 14608.439999999991,
      "d": 562.4901562499999,
      "v": 80
    },
    {
      "midi": 36,
      "hit": false,
      "t": 14608.439999999991,
      "d": 570.6421874999996,
      "v": 88
    },
    {
      "midi": 64,
      "hit": false,
      "t": 14608.439999999991,
      "d": 1285.3035937499972,
      "v": 127
    },
    {
      "midi": 55,
      "hit": false,
      "t": 15130.169999999991,
      "d": 586.946249999999,
      "v": 76
    },
    {
      "midi": 57,
      "hit": false,
      "t": 15130.169999999991,
      "d": 592.3809374999983,
      "v": 84
    },
    {
      "midi": 60,
      "hit": false,
      "t": 15130.169999999991,
      "d": 611.4023437499982,
      "v": 90
    },
    {
      "midi": 43,
      "hit": false,
      "t": 15651.89999999999,
      "d": 355.9720312499976,
      "v": 99
    },
    {
      "midi": 60,
      "hit": false,
      "t": 16173.629999999988,
      "d": 206.5181250000005,
      "v": 96
    },
    {
      "midi": 57,
      "hit": false,
      "t": 16173.629999999988,
      "d": 211.95281250000153,
      "v": 90
    },
    {
      "midi": 55,
      "hit": false,
      "t": 16173.629999999988,
      "d": 217.38750000000255,
      "v": 88
    },
    {
      "midi": 65,
      "hit": false,
      "t": 16695.359999999993,
      "d": 277.1690624999974,
      "v": 123
    },
    {
      "midi": 57,
      "hit": false,
      "t": 16695.359999999993,
      "d": 282.6037499999984,
      "v": 111
    },
    {
      "midi": 62,
      "hit": false,
      "t": 16695.359999999993,
      "d": 282.6037499999984,
      "v": 119
    },
    {
      "midi": 36,
      "hit": false,
      "t": 16695.359999999993,
      "d": 1078.7854687500003,
      "v": 82
    },
    {
      "midi": 48,
      "hit": false,
      "t": 16695.359999999993,
      "d": 1084.2201562500013,
      "v": 82
    },
    {
      "midi": 64,
      "hit": false,
      "t": 17217.089999999993,
      "d": 263.5823437500003,
      "v": 123
    },
    {
      "midi": 55,
      "hit": false,
      "t": 17217.089999999993,
      "d": 277.169062500001,
      "v": 111
    },
    {
      "midi": 60,
      "hit": false,
      "t": 17217.089999999993,
      "d": 277.169062500001,
      "v": 115
    },
    {
      "midi": 59,
      "hit": false,
      "t": 17738.819999999992,
      "d": 206.51812500000233,
      "v": 111
    },
    {
      "midi": 63,
      "hit": false,
      "t": 17738.819999999992,
      "d": 222.82218750000175,
      "v": 107
    },
    {
      "midi": 54,
      "hit": false,
      "t": 17738.819999999992,
      "d": 244.56093750000218,
      "v": 103
    },
    {
      "midi": 43,
      "hit": false,
      "t": 17738.819999999992,
      "d": 1048.8946875000001,
      "v": 107
    },
    {
      "midi": 55,
      "hit": false,
      "t": 18260.549999999996,
      "d": 249.99562499999956,
      "v": 107
    },
    {
      "midi": 59,
      "hit": false,
      "t": 18260.549999999996,
      "d": 263.5823437500003,
      "v": 115
    },
    {
      "midi": 64,
      "hit": false,
      "t": 18260.549999999996,
      "d": 266.299687499999,
      "v": 115
    },
    {
      "midi": 57,
      "hit": false,
      "t": 18782.27999999999,
      "d": 184.7793750000019,
      "v": 93
    },
    {
      "midi": 60,
      "hit": false,
      "t": 18782.27999999999,
      "d": 184.7793750000019,
      "v": 103
    },
    {
      "midi": 38,
      "hit": false,
      "t": 18782.27999999999,
      "d": 1086.9375000000036,
      "v": 107
    },
    {
      "midi": 65,
      "hit": false,
      "t": 18782.27999999999,
      "d": 1336.9331250000032,
      "v": 127
    },
    {
      "midi": 60,
      "hit": false,
      "t": 19304.009999999995,
      "d": 701.0746875000004,
      "v": 103
    },
    {
      "midi": 57,
      "hit": false,
      "t": 19304.009999999995,
      "d": 706.5093750000015,
      "v": 96
    },
    {
      "midi": 50,
      "hit": false,
      "t": 19825.739999999994,
      "d": 1073.3507812499993,
      "v": 107
    },
    {
      "midi": 60,
      "hit": false,
      "t": 20347.469999999994,
      "d": 198.36609374999898,
      "v": 99
    },
    {
      "midi": 57,
      "hit": false,
      "t": 20347.469999999994,
      "d": 203.80078125,
      "v": 90
    },
    {
      "midi": 61,
      "hit": false,
      "t": 20869.199999999993,
      "d": 255.43031250000058,
      "v": 119
    },
    {
      "midi": 58,
      "hit": false,
      "t": 20869.199999999993,
      "d": 277.169062500001,
      "v": 123
    },
    {
      "midi": 66,
      "hit": false,
      "t": 20869.199999999993,
      "d": 277.169062500001,
      "v": 119
    },
    {
      "midi": 52,
      "hit": false,
      "t": 20869.199999999993,
      "d": 532.5993750000016,
      "v": 96
    },
    {
      "midi": 59,
      "hit": false,
      "t": 21390.929999999997,
      "d": 641.2931250000001,
      "v": 119
    },
    {
      "midi": 62,
      "hit": false,
      "t": 21390.929999999997,
      "d": 652.1624999999985,
      "v": 127
    },
    {
      "midi": 67,
      "hit": false,
      "t": 21390.929999999997,
      "d": 657.5971874999996,
      "v": 123
    },
    {
      "midi": 53,
      "hit": false,
      "t": 21390.929999999997,
      "d": 1160.3057812499974,
      "v": 96
    },
    {
      "midi": 65,
      "hit": false,
      "t": 22956.119999999995,
      "d": 163.04062500000146,
      "v": 119
    },
    {
      "midi": 69,
      "hit": false,
      "t": 22956.119999999995,
      "d": 165.75796875000015,
      "v": 111
    },
    {
      "midi": 53,
      "hit": false,
      "t": 22956.119999999995,
      "d": 426.62296875000175,
      "v": 77
    },
    {
      "midi": 41,
      "hit": false,
      "t": 22956.119999999995,
      "d": 442.92703125000116,
      "v": 79
    },
    {
      "midi": 57,
      "hit": false,
      "t": 23477.85,
      "d": 168.47531249999884,
      "v": 86
    },
    {
      "midi": 60,
      "hit": false,
      "t": 23477.85,
      "d": 184.77937499999825,
      "v": 93
    },
    {
      "midi": 59,
      "hit": false,
      "t": 23999.579999999994,
      "d": 252.71296874999825,
      "v": 127
    },
    {
      "midi": 71,
      "hit": false,
      "t": 23999.579999999994,
      "d": 258.1476562499993,
      "v": 127
    },
    {
      "midi": 67,
      "hit": false,
      "t": 23999.579999999994,
      "d": 282.6037499999984,
      "v": 123
    },
    {
      "midi": 36,
      "hit": false,
      "t": 23999.579999999994,
      "d": 516.2953124999985,
      "v": 93
    },
    {
      "midi": 48,
      "hit": false,
      "t": 23999.579999999994,
      "d": 562.4901562499981,
      "v": 80
    },
    {
      "midi": 60,
      "hit": false,
      "t": 24521.309999999994,
      "d": 233.69156250000015,
      "v": 123
    },
    {
      "midi": 72,
      "hit": false,
      "t": 24521.309999999994,
      "d": 255.43031250000058,
      "v": 127
    },
    {
      "midi": 69,
      "hit": false,
      "t": 24521.309999999994,
      "d": 266.299687499999,
      "v": 123
    },
    {
      "midi": 74,
      "hit": false,
      "t": 25043.039999999994,
      "d": 214.6701562499984,
      "v": 127
    },
    {
      "midi": 71,
      "hit": false,
      "t": 25043.039999999994,
      "d": 233.69156250000015,
      "v": 123
    },
    {
      "midi": 62,
      "hit": false,
      "t": 25043.039999999994,
      "d": 239.12625000000116,
      "v": 127
    },
    {
      "midi": 53,
      "hit": false,
      "t": 25043.039999999994,
      "d": 448.3617187500022,
      "v": 86
    },
    {
      "midi": 41,
      "hit": false,
      "t": 25043.039999999994,
      "d": 451.0790625000009,
      "v": 90
    },
    {
      "midi": 72,
      "hit": false,
      "t": 25564.769999999997,
      "d": 184.77937499999825,
      "v": 107
    },
    {
      "midi": 69,
      "hit": false,
      "t": 25564.769999999997,
      "d": 211.9528124999997,
      "v": 111
    },
    {
      "midi": 60,
      "hit": false,
      "t": 25564.769999999997,
      "d": 214.6701562499984,
      "v": 111
    },
    {
      "midi": 71,
      "hit": false,
      "t": 26086.499999999996,
      "d": 475.53515625,
      "v": 123
    },
    {
      "midi": 67,
      "hit": false,
      "t": 26086.499999999996,
      "d": 519.0126562500009,
      "v": 111
    },
    {
      "midi": 53,
      "hit": false,
      "t": 26086.499999999996,
      "d": 581.5115624999999,
      "v": 86
    },
    {
      "midi": 43,
      "hit": false,
      "t": 26086.499999999996,
      "d": 597.8156249999993,
      "v": 99
    },
    {
      "midi": 59,
      "hit": false,
      "t": 26086.499999999996,
      "d": 918.4621875000012,
      "v": 107
    },
    {
      "midi": 69,
      "hit": false,
      "t": 26608.229999999996,
      "d": 399.4495312500003,
      "v": 99
    },
    {
      "midi": 65,
      "hit": false,
      "t": 26608.229999999996,
      "d": 404.8842187500013,
      "v": 96
    },
    {
      "midi": 36,
      "hit": false,
      "t": 27129.959999999995,
      "d": 586.9462500000009,
      "v": 99
    },
    {
      "midi": 48,
      "hit": false,
      "t": 27129.959999999995,
      "d": 595.0982812500006,
      "v": 90
    },
    {
      "midi": 64,
      "hit": false,
      "t": 27129.959999999995,
      "d": 3160.270781249994,
      "v": 107
    },
    {
      "midi": 67,
      "hit": false,
      "t": 27129.959999999995,
      "d": 3179.2921874999956,
      "v": 107
    },
    {
      "midi": 55,
      "hit": false,
      "t": 27651.689999999995,
      "d": 554.3381249999984,
      "v": 86
    },
    {
      "midi": 43,
      "hit": false,
      "t": 28173.419999999995,
      "d": 605.967656249999,
      "v": 96
    },
    {
      "midi": 59,
      "hit": false,
      "t": 28173.419999999995,
      "d": 766.2909374999981,
      "v": 90
    },
    {
      "midi": 62,
      "hit": false,
      "t": 28956.014999999992,
      "d": 249.99562499999956,
      "v": 75
    },
    {
      "midi": 36,
      "hit": false,
      "t": 29216.87999999999,
      "d": 649.4451562499999,
      "v": 90
    },
    {
      "midi": 48,
      "hit": false,
      "t": 29216.87999999999,
      "d": 741.834843749999,
      "v": 77
    },
    {
      "midi": 57,
      "hit": false,
      "t": 29216.87999999999,
      "d": 896.7234375000007,
      "v": 82
    },
    {
      "midi": 57,
      "hit": false,
      "t": 30260.33999999999,
      "d": 404.8842187500013,
      "v": 103
    },
    {
      "midi": 60,
      "hit": false,
      "t": 30260.33999999999,
      "d": 578.7942187500012,
      "v": 115
    },
    {
      "midi": 53,
      "hit": false,
      "t": 30260.33999999999,
      "d": 706.5093750000015,
      "v": 96
    },
    {
      "midi": 43,
      "hit": false,
      "t": 30260.33999999999,
      "d": 709.2267187500001,
      "v": 90
    },
    {
      "midi": 59,
      "hit": false,
      "t": 30782.06999999999,
      "d": 328.7985937500016,
      "v": 111
    },
    {
      "midi": 62,
      "hit": false,
      "t": 30782.06999999999,
      "d": 328.7985937500016,
      "v": 119
    },
    {
      "midi": 36,
      "hit": false,
      "t": 31303.799999999992,
      "d": 516.2953124999985,
      "v": 86
    },
    {
      "midi": 48,
      "hit": false,
      "t": 31303.799999999992,
      "d": 521.7299999999996,
      "v": 84
    },
    {
      "midi": 64,
      "hit": false,
      "t": 31303.799999999992,
      "d": 820.637812500001,
      "v": 107
    },
    {
      "midi": 60,
      "hit": false,
      "t": 31303.799999999992,
      "d": 874.9846875000003,
      "v": 115
    },
    {
      "midi": 55,
      "hit": false,
      "t": 31825.52999999999,
      "d": 557.0554687500007,
      "v": 86
    },
    {
      "midi": 43,
      "hit": false,
      "t": 32347.25999999999,
      "d": 489.1218750000007,
      "v": 111
    },
    {
      "midi": 59,
      "hit": false,
      "t": 32347.25999999999,
      "d": 858.6806249999972,
      "v": 119
    },
    {
      "midi": 64,
      "hit": false,
      "t": 32347.25999999999,
      "d": 885.8540624999987,
      "v": 123
    },
    {
      "midi": 55,
      "hit": false,
      "t": 32868.98999999999,
      "d": 505.4259374999965,
      "v": 93
    },
    {
      "midi": 58,
      "hit": false,
      "t": 33390.71999999999,
      "d": 258.1476562500029,
      "v": 107
    },
    {
      "midi": 64,
      "hit": false,
      "t": 33390.71999999999,
      "d": 260.86500000000524,
      "v": 90
    },
    {
      "midi": 36,
      "hit": false,
      "t": 33390.71999999999,
      "d": 576.0768750000061,
      "v": 84
    },
    {
      "midi": 48,
      "hit": false,
      "t": 33390.71999999999,
      "d": 581.5115625000035,
      "v": 86
    },
    {
      "midi": 69,
      "hit": false,
      "t": 33912.44999999999,
      "d": 682.0532812500023,
      "v": 107
    },
    {
      "midi": 62,
      "hit": false,
      "t": 33912.44999999999,
      "d": 714.6614062500012,
      "v": 111
    },
    {
      "midi": 64,
      "hit": false,
      "t": 33912.44999999999,
      "d": 717.3787500000035,
      "v": 96
    },
    {
      "midi": 36,
      "hit": false,
      "t": 34434.17999999999,
      "d": 551.6207812499997,
      "v": 82
    },
    {
      "midi": 48,
      "hit": false,
      "t": 34434.17999999999,
      "d": 616.8370312499974,
      "v": 82
    },
    {
      "midi": 62,
      "hit": false,
      "t": 34955.909999999996,
      "d": 228.25687499999185,
      "v": 99
    },
    {
      "midi": 67,
      "hit": false,
      "t": 34955.909999999996,
      "d": 239.1262499999939,
      "v": 123
    },
    {
      "midi": 58,
      "hit": false,
      "t": 34955.909999999996,
      "d": 241.84359374999622,
      "v": 103
    },
    {
      "midi": 57,
      "hit": false,
      "t": 35477.63999999999,
      "d": 744.552187500005,
      "v": 107
    },
    {
      "midi": 60,
      "hit": false,
      "t": 35477.63999999999,
      "d": 763.5735937500067,
      "v": 99
    },
    {
      "midi": 41,
      "hit": false,
      "t": 35477.63999999999,
      "d": 2652.1275000000096,
      "v": 90
    },
    {
      "midi": 55,
      "hit": false,
      "t": 35999.369999999995,
      "d": 516.2953125000058,
      "v": 103
    },
    {
      "midi": 53,
      "hit": false,
      "t": 36521.1,
      "d": 519.0126562500009,
      "v": 84
    },
    {
      "midi": 57,
      "hit": false,
      "t": 36521.1,
      "d": 758.138906250002,
      "v": 96
    },
    {
      "midi": 60,
      "hit": false,
      "t": 36521.1,
      "d": 779.8776562499988,
      "v": 103
    },
    {
      "midi": 52,
      "hit": false,
      "t": 37042.83,
      "d": 513.5779687499962,
      "v": 79
    },
    {
      "midi": 56,
      "hit": false,
      "t": 37564.56,
      "d": 1249.9781250000015,
      "v": 107
    },
    {
      "midi": 60,
      "hit": false,
      "t": 37564.56,
      "d": 1252.6954687500038,
      "v": 115
    },
    {
      "midi": 50,
      "hit": false,
      "t": 37564.56,
      "d": 2095.0720312500052,
      "v": 103
    },
    {
      "midi": 67,
      "hit": false,
      "t": 38086.29,
      "d": 687.4879687499997,
      "v": 99
    },
    {
      "midi": 41,
      "hit": false,
      "t": 38608.020000000004,
      "d": 1073.3507812499956,
      "v": 96
    },
    {
      "midi": 65,
      "hit": false,
      "t": 39129.75,
      "d": 266.2996875000026,
      "v": 111
    },
    {
      "midi": 60,
      "hit": false,
      "t": 39129.75,
      "d": 282.60375000000204,
      "v": 96
    },
    {
      "midi": 56,
      "hit": false,
      "t": 39129.75,
      "d": 290.75578125000175,
      "v": 90
    },
    {
      "midi": 43,
      "hit": false,
      "t": 39651.48,
      "d": 793.4643749999959,
      "v": 103
    },
    {
      "midi": 55,
      "hit": false,
      "t": 39651.48,
      "d": 899.4407812499994,
      "v": 78
    },
    {
      "midi": 57,
      "hit": false,
      "t": 39651.48,
      "d": 904.8754687499968,
      "v": 84
    },
    {
      "midi": 60,
      "hit": false,
      "t": 39651.48,
      "d": 915.7448437499988,
      "v": 86
    },
    {
      "midi": 64,
      "hit": false,
      "t": 39651.48,
      "d": 1845.076406250002,
      "v": 107
    },
    {
      "midi": 55,
      "hit": false,
      "t": 40694.94,
      "d": 970.0917187500017,
      "v": 78
    },
    {
      "midi": 57,
      "hit": false,
      "t": 40694.94,
      "d": 972.8090625000041,
      "v": 77
    },
    {
      "midi": 60,
      "hit": false,
      "t": 40694.94,
      "d": 972.8090625000041,
      "v": 86
    },
    {
      "midi": 43,
      "hit": false,
      "t": 40694.94,
      "d": 1008.1345312500052,
      "v": 111
    },
    {
      "midi": 65,
      "hit": false,
      "t": 41738.40000000001,
      "d": 176.62734374999854,
      "v": 111
    },
    {
      "midi": 57,
      "hit": false,
      "t": 41738.40000000001,
      "d": 179.34468750000087,
      "v": 107
    },
    {
      "midi": 60,
      "hit": false,
      "t": 41738.40000000001,
      "d": 182.0620312500032,
      "v": 107
    },
    {
      "midi": 43,
      "hit": false,
      "t": 41738.40000000001,
      "d": 1054.3293750000012,
      "v": 111
    },
    {
      "midi": 55,
      "hit": false,
      "t": 42260.13000000001,
      "d": 203.80078125,
      "v": 115
    },
    {
      "midi": 60,
      "hit": false,
      "t": 42260.13000000001,
      "d": 211.9528124999997,
      "v": 111
    },
    {
      "midi": 64,
      "hit": false,
      "t": 42260.13000000001,
      "d": 220.10484374999942,
      "v": 111
    },
    {
      "midi": 59,
      "hit": false,
      "t": 42781.86000000001,
      "d": 176.62734374999854,
      "v": 107
    },
    {
      "midi": 62,
      "hit": false,
      "t": 42781.86000000001,
      "d": 198.36609374999534,
      "v": 111
    },
    {
      "midi": 54,
      "hit": false,
      "t": 42781.86000000001,
      "d": 201.08343749999767,
      "v": 103
    },
    {
      "midi": 38,
      "hit": false,
      "t": 42781.86000000001,
      "d": 1059.7640624999913,
      "v": 107
    },
    {
      "midi": 54,
      "hit": false,
      "t": 43303.590000000004,
      "d": 184.77937499999825,
      "v": 99
    },
    {
      "midi": 57,
      "hit": false,
      "t": 43303.590000000004,
      "d": 206.51812499999505,
      "v": 107
    },
    {
      "midi": 60,
      "hit": false,
      "t": 43303.590000000004,
      "d": 217.3874999999971,
      "v": 111
    },
    {
      "midi": 53,
      "hit": false,
      "t": 43825.32,
      "d": 557.0554687500044,
      "v": 111
    },
    {
      "midi": 62,
      "hit": false,
      "t": 43825.32,
      "d": 565.2075000000041,
      "v": 111
    },
    {
      "midi": 57,
      "hit": false,
      "t": 43825.32,
      "d": 567.9248437500064,
      "v": 103
    },
    {
      "midi": 43,
      "hit": false,
      "t": 43825.32,
      "d": 3980.9085937499985,
      "v": 96
    },
    {
      "midi": 60,
      "hit": false,
      "t": 44347.05,
      "d": 35.325468750001164,
      "v": 123
    },
    {
      "midi": 88,
      "hit": false,
      "t": 44347.05,
      "d": 195.6487500000003,
      "v": 127
    },
    {
      "midi": 77,
      "hit": false,
      "t": 44347.05,
      "d": 211.9528124999997,
      "v": 119
    },
    {
      "midi": 81,
      "hit": false,
      "t": 44347.05,
      "d": 217.3874999999971,
      "v": 123
    },
    {
      "midi": 86,
      "hit": false,
      "t": 44868.78,
      "d": 198.36609375000262,
      "v": 127
    },
    {
      "midi": 76,
      "hit": false,
      "t": 44868.78,
      "d": 214.67015625000204,
      "v": 119
    },
    {
      "midi": 79,
      "hit": false,
      "t": 44868.78,
      "d": 222.82218750000175,
      "v": 127
    },
    {
      "midi": 59,
      "hit": false,
      "t": 44868.78,
      "d": 554.338125000002,
      "v": 119
    },
    {
      "midi": 74,
      "hit": false,
      "t": 45390.51,
      "d": 182.06203124999593,
      "v": 123
    },
    {
      "midi": 84,
      "hit": false,
      "t": 45390.51,
      "d": 184.77937499999825,
      "v": 127
    },
    {
      "midi": 77,
      "hit": false,
      "t": 45390.51,
      "d": 214.67015624999476,
      "v": 115
    },
    {
      "midi": 57,
      "hit": false,
      "t": 45390.51,
      "d": 540.7514062499977,
      "v": 103
    },
    {
      "midi": 72,
      "hit": false,
      "t": 45912.24,
      "d": 171.19265625000116,
      "v": 119
    },
    {
      "midi": 83,
      "hit": false,
      "t": 45912.24,
      "d": 173.9100000000035,
      "v": 127
    },
    {
      "midi": 76,
      "hit": false,
      "t": 45912.24,
      "d": 195.6487500000003,
      "v": 115
    },
    {
      "midi": 55,
      "hit": false,
      "t": 45912.24,
      "d": 565.2074999999968,
      "v": 96
    },
    {
      "midi": 81,
      "hit": false,
      "t": 46433.97,
      "d": 149.4539062499971,
      "v": 127
    },
    {
      "midi": 71,
      "hit": false,
      "t": 46433.97,
      "d": 165.7579687499965,
      "v": 119
    },
    {
      "midi": 74,
      "hit": false,
      "t": 46433.97,
      "d": 187.4967187499933,
      "v": 127
    },
    {
      "midi": 53,
      "hit": false,
      "t": 46433.97,
      "d": 554.3381249999948,
      "v": 107
    },
    {
      "midi": 79,
      "hit": false,
      "t": 46955.7,
      "d": 179.34468750000087,
      "v": 123
    },
    {
      "midi": 69,
      "hit": false,
      "t": 46955.7,
      "d": 187.49671875000058,
      "v": 111
    },
    {
      "midi": 72,
      "hit": false,
      "t": 46955.7,
      "d": 209.23546874999738,
      "v": 115
    },
    {
      "midi": 52,
      "hit": false,
      "t": 46955.7,
      "d": 554.3381249999948,
      "v": 96
    },
    {
      "midi": 67,
      "hit": false,
      "t": 47477.42999999999,
      "d": 152.17124999999942,
      "v": 119
    },
    {
      "midi": 77,
      "hit": false,
      "t": 47477.42999999999,
      "d": 163.04062500000146,
      "v": 123
    },
    {
      "midi": 71,
      "hit": false,
      "t": 47477.42999999999,
      "d": 171.19265625000116,
      "v": 123
    },
    {
      "midi": 50,
      "hit": false,
      "t": 47477.42999999999,
      "d": 320.64656250000553,
      "v": 103
    },
    {
      "midi": 55,
      "hit": false,
      "t": 47999.159999999996,
      "d": 241.8435937500035,
      "v": 82
    },
    {
      "midi": 57,
      "hit": false,
      "t": 47999.159999999996,
      "d": 249.9956250000032,
      "v": 86
    },
    {
      "midi": 60,
      "hit": false,
      "t": 47999.159999999996,
      "d": 252.71296875000553,
      "v": 88
    },
    {
      "midi": 48,
      "hit": false,
      "t": 47999.159999999996,
      "d": 562.4901562500017,
      "v": 80
    },
    {
      "midi": 36,
      "hit": false,
      "t": 47999.159999999996,
      "d": 570.6421875000015,
      "v": 88
    },
    {
      "midi": 64,
      "hit": false,
      "t": 47999.159999999996,
      "d": 1285.3035937499953,
      "v": 127
    },
    {
      "midi": 55,
      "hit": false,
      "t": 48520.89,
      "d": 586.9462499999936,
      "v": 76
    },
    {
      "midi": 57,
      "hit": false,
      "t": 48520.89,
      "d": 592.380937499991,
      "v": 84
    },
    {
      "midi": 60,
      "hit": false,
      "t": 48520.89,
      "d": 611.4023437499927,
      "v": 90
    },
    {
      "midi": 43,
      "hit": false,
      "t": 49042.619999999995,
      "d": 355.9720312499994,
      "v": 99
    },
    {
      "midi": 60,
      "hit": false,
      "t": 49564.34999999999,
      "d": 206.51812500000233,
      "v": 96
    },
    {
      "midi": 57,
      "hit": false,
      "t": 49564.34999999999,
      "d": 211.9528124999997,
      "v": 90
    },
    {
      "midi": 55,
      "hit": false,
      "t": 49564.34999999999,
      "d": 217.3874999999971,
      "v": 88
    },
    {
      "midi": 65,
      "hit": false,
      "t": 50086.07999999999,
      "d": 277.1690624999974,
      "v": 123
    },
    {
      "midi": 57,
      "hit": false,
      "t": 50086.07999999999,
      "d": 282.60374999999476,
      "v": 111
    },
    {
      "midi": 62,
      "hit": false,
      "t": 50086.07999999999,
      "d": 282.60374999999476,
      "v": 119
    },
    {
      "midi": 36,
      "hit": false,
      "t": 50086.07999999999,
      "d": 1078.7854687499857,
      "v": 82
    },
    {
      "midi": 48,
      "hit": false,
      "t": 50086.07999999999,
      "d": 1084.2201562499831,
      "v": 82
    },
    {
      "midi": 64,
      "hit": false,
      "t": 50607.809999999976,
      "d": 263.5823437500003,
      "v": 123
    },
    {
      "midi": 55,
      "hit": false,
      "t": 50607.809999999976,
      "d": 277.1690624999974,
      "v": 111
    },
    {
      "midi": 60,
      "hit": false,
      "t": 50607.809999999976,
      "d": 277.1690624999974,
      "v": 115
    },
    {
      "midi": 59,
      "hit": false,
      "t": 51129.53999999997,
      "d": 206.51812499999505,
      "v": 111
    },
    {
      "midi": 63,
      "hit": false,
      "t": 51129.53999999997,
      "d": 222.82218749999447,
      "v": 107
    },
    {
      "midi": 54,
      "hit": false,
      "t": 51129.53999999997,
      "d": 244.56093749999127,
      "v": 103
    },
    {
      "midi": 43,
      "hit": false,
      "t": 51129.53999999997,
      "d": 1048.894687499982,
      "v": 107
    },
    {
      "midi": 55,
      "hit": false,
      "t": 51651.26999999996,
      "d": 249.99562499999593,
      "v": 107
    },
    {
      "midi": 59,
      "hit": false,
      "t": 51651.26999999996,
      "d": 263.582343749993,
      "v": 115
    },
    {
      "midi": 64,
      "hit": false,
      "t": 51651.26999999996,
      "d": 266.29968749999534,
      "v": 115
    },
    {
      "midi": 57,
      "hit": false,
      "t": 52172.999999999956,
      "d": 184.77937499999825,
      "v": 93
    },
    {
      "midi": 60,
      "hit": false,
      "t": 52172.999999999956,
      "d": 184.77937499999825,
      "v": 103
    },
    {
      "midi": 38,
      "hit": false,
      "t": 52172.999999999956,
      "d": 1086.9375,
      "v": 107
    },
    {
      "midi": 65,
      "hit": false,
      "t": 52172.999999999956,
      "d": 1336.933124999996,
      "v": 127
    },
    {
      "midi": 60,
      "hit": false,
      "t": 52694.72999999995,
      "d": 701.0746875000041,
      "v": 103
    },
    {
      "midi": 57,
      "hit": false,
      "t": 52694.72999999995,
      "d": 706.5093750000015,
      "v": 96
    },
    {
      "midi": 50,
      "hit": false,
      "t": 53216.459999999955,
      "d": 1073.3507812499956,
      "v": 107
    },
    {
      "midi": 60,
      "hit": false,
      "t": 53738.18999999995,
      "d": 198.36609375000262,
      "v": 99
    },
    {
      "midi": 57,
      "hit": false,
      "t": 53738.18999999995,
      "d": 203.80078125,
      "v": 90
    },
    {
      "midi": 61,
      "hit": false,
      "t": 54259.919999999955,
      "d": 255.4303124999933,
      "v": 119
    },
    {
      "midi": 58,
      "hit": false,
      "t": 54259.919999999955,
      "d": 277.1690624999901,
      "v": 123
    },
    {
      "midi": 66,
      "hit": false,
      "t": 54259.919999999955,
      "d": 277.1690624999901,
      "v": 119
    },
    {
      "midi": 52,
      "hit": false,
      "t": 54259.919999999955,
      "d": 532.5993749999907,
      "v": 96
    },
    {
      "midi": 59,
      "hit": false,
      "t": 54781.64999999994,
      "d": 641.2931250000038,
      "v": 119
    },
    {
      "midi": 62,
      "hit": false,
      "t": 54781.64999999994,
      "d": 652.1625000000058,
      "v": 127
    },
    {
      "midi": 67,
      "hit": false,
      "t": 54781.64999999994,
      "d": 657.5971875000032,
      "v": 123
    },
    {
      "midi": 53,
      "hit": false,
      "t": 54781.64999999994,
      "d": 1160.3057812500047,
      "v": 96
    },
    {
      "midi": 65,
      "hit": false,
      "t": 56346.839999999946,
      "d": 163.04062500000146,
      "v": 119
    },
    {
      "midi": 69,
      "hit": false,
      "t": 56346.839999999946,
      "d": 165.75796875000378,
      "v": 111
    },
    {
      "midi": 53,
      "hit": false,
      "t": 56346.839999999946,
      "d": 426.62296875000175,
      "v": 77
    },
    {
      "midi": 41,
      "hit": false,
      "t": 56346.839999999946,
      "d": 442.92703125000116,
      "v": 79
    },
    {
      "midi": 57,
      "hit": false,
      "t": 56868.56999999994,
      "d": 168.47531249999884,
      "v": 86
    },
    {
      "midi": 60,
      "hit": false,
      "t": 56868.56999999994,
      "d": 184.77937499999825,
      "v": 93
    },
    {
      "midi": 59,
      "hit": false,
      "t": 57390.299999999945,
      "d": 252.71296874999825,
      "v": 127
    },
    {
      "midi": 71,
      "hit": false,
      "t": 57390.299999999945,
      "d": 258.14765624999563,
      "v": 127
    },
    {
      "midi": 67,
      "hit": false,
      "t": 57390.299999999945,
      "d": 282.60374999999476,
      "v": 123
    },
    {
      "midi": 36,
      "hit": false,
      "t": 57390.299999999945,
      "d": 516.2953124999913,
      "v": 93
    },
    {
      "midi": 48,
      "hit": false,
      "t": 57390.299999999945,
      "d": 562.4901562499872,
      "v": 80
    },
    {
      "midi": 60,
      "hit": false,
      "t": 57912.02999999993,
      "d": 233.6915624999965,
      "v": 123
    },
    {
      "midi": 72,
      "hit": false,
      "t": 57912.02999999993,
      "d": 255.4303124999933,
      "v": 127
    },
    {
      "midi": 69,
      "hit": false,
      "t": 57912.02999999993,
      "d": 266.29968749999534,
      "v": 123
    },
    {
      "midi": 74,
      "hit": false,
      "t": 58433.75999999993,
      "d": 214.67015625000204,
      "v": 127
    },
    {
      "midi": 71,
      "hit": false,
      "t": 58433.75999999993,
      "d": 233.69156250000378,
      "v": 123
    },
    {
      "midi": 62,
      "hit": false,
      "t": 58433.75999999993,
      "d": 239.12625000000116,
      "v": 127
    },
    {
      "midi": 53,
      "hit": false,
      "t": 58433.75999999993,
      "d": 448.36171874999854,
      "v": 86
    },
    {
      "midi": 41,
      "hit": false,
      "t": 58433.75999999993,
      "d": 451.0790625000009,
      "v": 90
    },
    {
      "midi": 72,
      "hit": false,
      "t": 58955.48999999993,
      "d": 184.77937499999825,
      "v": 107
    },
    {
      "midi": 69,
      "hit": false,
      "t": 58955.48999999993,
      "d": 211.9528124999997,
      "v": 111
    },
    {
      "midi": 60,
      "hit": false,
      "t": 58955.48999999993,
      "d": 214.67015625000204,
      "v": 111
    },
    {
      "midi": 71,
      "hit": false,
      "t": 59477.21999999993,
      "d": 475.53515625,
      "v": 123
    },
    {
      "midi": 67,
      "hit": false,
      "t": 59477.21999999993,
      "d": 519.0126562499936,
      "v": 111
    },
    {
      "midi": 53,
      "hit": false,
      "t": 59477.21999999993,
      "d": 581.5115624999962,
      "v": 86
    },
    {
      "midi": 43,
      "hit": false,
      "t": 59477.21999999993,
      "d": 597.8156249999956,
      "v": 99
    },
    {
      "midi": 59,
      "hit": false,
      "t": 59477.21999999993,
      "d": 918.4621874999939,
      "v": 107
    },
    {
      "midi": 69,
      "hit": false,
      "t": 59998.949999999924,
      "d": 399.4495312500003,
      "v": 99
    },
    {
      "midi": 65,
      "hit": false,
      "t": 59998.949999999924,
      "d": 404.8842187499977,
      "v": 96
    },
    {
      "midi": 36,
      "hit": false,
      "t": 60520.67999999992,
      "d": 586.9462500000009,
      "v": 99
    },
    {
      "midi": 48,
      "hit": false,
      "t": 60520.67999999992,
      "d": 595.0982812500006,
      "v": 90
    },
    {
      "midi": 64,
      "hit": false,
      "t": 60520.67999999992,
      "d": 3160.270781250001,
      "v": 107
    },
    {
      "midi": 67,
      "hit": false,
      "t": 60520.67999999992,
      "d": 3179.292187500003,
      "v": 107
    },
    {
      "midi": 55,
      "hit": false,
      "t": 61042.40999999992,
      "d": 554.3381249999948,
      "v": 86
    },
    {
      "midi": 43,
      "hit": false,
      "t": 61564.13999999992,
      "d": 605.9676562499953,
      "v": 96
    },
    {
      "midi": 59,
      "hit": false,
      "t": 61564.13999999992,
      "d": 766.2909374999945,
      "v": 90
    },
    {
      "midi": 62,
      "hit": false,
      "t": 62346.73499999991,
      "d": 249.9956250000032,
      "v": 75
    },
    {
      "midi": 36,
      "hit": false,
      "t": 62607.59999999992,
      "d": 649.4451562500035,
      "v": 90
    },
    {
      "midi": 48,
      "hit": false,
      "t": 62607.59999999992,
      "d": 741.8348437500026,
      "v": 77
    },
    {
      "midi": 57,
      "hit": false,
      "t": 62607.59999999992,
      "d": 896.7234375000044,
      "v": 82
    },
    {
      "midi": 57,
      "hit": false,
      "t": 63651.059999999925,
      "d": 404.8842187499977,
      "v": 103
    },
    {
      "midi": 60,
      "hit": false,
      "t": 63651.059999999925,
      "d": 578.7942187499939,
      "v": 115
    },
    {
      "midi": 53,
      "hit": false,
      "t": 63651.059999999925,
      "d": 706.5093749999942,
      "v": 96
    },
    {
      "midi": 43,
      "hit": false,
      "t": 63651.059999999925,
      "d": 709.2267187499965,
      "v": 90
    },
    {
      "midi": 59,
      "hit": false,
      "t": 64172.78999999992,
      "d": 328.79859374999796,
      "v": 111
    },
    {
      "midi": 62,
      "hit": false,
      "t": 64172.78999999992,
      "d": 328.79859374999796,
      "v": 119
    },
    {
      "midi": 36,
      "hit": false,
      "t": 64694.51999999992,
      "d": 516.2953124999985,
      "v": 86
    },
    {
      "midi": 48,
      "hit": false,
      "t": 64694.51999999992,
      "d": 521.7299999999959,
      "v": 84
    },
    {
      "midi": 64,
      "hit": false,
      "t": 64694.51999999992,
      "d": 820.6378124999974,
      "v": 107
    },
    {
      "midi": 60,
      "hit": false,
      "t": 64694.51999999992,
      "d": 874.984687499993,
      "v": 115
    },
    {
      "midi": 55,
      "hit": false,
      "t": 65216.24999999991,
      "d": 557.0554687499971,
      "v": 86
    },
    {
      "midi": 43,
      "hit": false,
      "t": 65737.97999999991,
      "d": 489.1218749999971,
      "v": 111
    },
    {
      "midi": 59,
      "hit": false,
      "t": 65737.97999999991,
      "d": 858.6806249999936,
      "v": 119
    },
    {
      "midi": 64,
      "hit": false,
      "t": 65737.97999999991,
      "d": 885.8540624999878,
      "v": 123
    },
    {
      "midi": 55,
      "hit": false,
      "t": 66259.7099999999,
      "d": 505.4259374999965,
      "v": 93
    },
    {
      "midi": 58,
      "hit": false,
      "t": 66781.4399999999,
      "d": 258.1476562500029,
      "v": 107
    },
    {
      "midi": 64,
      "hit": false,
      "t": 66781.4399999999,
      "d": 260.86500000000524,
      "v": 90
    },
    {
      "midi": 36,
      "hit": false,
      "t": 66781.4399999999,
      "d": 576.0768750000134,
      "v": 84
    },
    {
      "midi": 48,
      "hit": false,
      "t": 66781.4399999999,
      "d": 581.511562500018,
      "v": 86
    },
    {
      "midi": 69,
      "hit": false,
      "t": 67303.16999999991,
      "d": 682.0532812500169,
      "v": 107
    },
    {
      "midi": 62,
      "hit": false,
      "t": 67303.16999999991,
      "d": 714.6614062500157,
      "v": 111
    },
    {
      "midi": 64,
      "hit": false,
      "t": 67303.16999999991,
      "d": 717.378750000018,
      "v": 96
    },
    {
      "midi": 36,
      "hit": false,
      "t": 67824.89999999992,
      "d": 551.620781250007,
      "v": 82
    },
    {
      "midi": 48,
      "hit": false,
      "t": 67824.89999999992,
      "d": 616.8370312500047,
      "v": 82
    },
    {
      "midi": 62,
      "hit": false,
      "t": 68346.62999999993,
      "d": 228.25687499999185,
      "v": 99
    },
    {
      "midi": 67,
      "hit": false,
      "t": 68346.62999999993,
      "d": 239.1262499999866,
      "v": 123
    },
    {
      "midi": 58,
      "hit": false,
      "t": 68346.62999999993,
      "d": 241.84359374998894,
      "v": 103
    },
    {
      "midi": 67,
      "hit": false,
      "t": 68868.35999999993,
      "d": 597.8156250000029,
      "v": 115
    },
    {
      "midi": 57,
      "hit": false,
      "t": 68868.35999999993,
      "d": 2149.418906250008,
      "v": 103
    },
    {
      "midi": 41,
      "hit": false,
      "t": 68868.35999999993,
      "d": 2714.626406250012,
      "v": 107
    },
    {
      "midi": 72,
      "hit": false,
      "t": 68868.35999999993,
      "d": 2728.2131250000093,
      "v": 111
    },
    {
      "midi": 60,
      "hit": false,
      "t": 68868.35999999993,
      "d": 2828.754843750008,
      "v": 123
    },
    {
      "midi": 65,
      "hit": false,
      "t": 69390.08999999992,
      "d": 1002.6998437500006,
      "v": 123
    },
    {
      "midi": 64,
      "hit": false,
      "t": 70433.54999999993,
      "d": 559.7728124999994,
      "v": 115
    },
    {
      "midi": 67,
      "hit": false,
      "t": 70955.27999999993,
      "d": 516.2953125000058,
      "v": 99
    },
    {
      "midi": 65,
      "hit": false,
      "t": 71477.00999999994,
      "d": 133.14984374999767,
      "v": 88
    },
    {
      "midi": 56,
      "hit": false,
      "t": 71998.73999999993,
      "d": 16.304062499999418,
      "v": 107
    },
    {
      "midi": 60,
      "hit": false,
      "t": 71998.73999999993,
      "d": 535.316718749993,
      "v": 111
    },
    {
      "midi": 41,
      "hit": false,
      "t": 71998.73999999993,
      "d": 967.3743749999849,
      "v": 90
    },
    {
      "midi": 62,
      "hit": false,
      "t": 72520.46999999993,
      "d": 230.97421874999418,
      "v": 127
    },
    {
      "midi": 43,
      "hit": false,
      "t": 73042.19999999992,
      "d": 451.0790624999936,
      "v": 99
    },
    {
      "midi": 55,
      "hit": false,
      "t": 73042.19999999992,
      "d": 584.2289062499913,
      "v": 119
    },
    {
      "midi": 60,
      "hit": false,
      "t": 73042.19999999992,
      "d": 635.8584374999919,
      "v": 115
    },
    {
      "midi": 64,
      "hit": false,
      "t": 73042.19999999992,
      "d": 641.2931249999965,
      "v": 115
    },
    {
      "midi": 31,
      "hit": false,
      "t": 73563.92999999992,
      "d": 453.7964062499959,
      "v": 90
    },
    {
      "midi": 43,
      "hit": false,
      "t": 74085.65999999992,
      "d": 527.1646875000006,
      "v": 96
    },
    {
      "midi": 55,
      "hit": false,
      "t": 74085.65999999992,
      "d": 589.6635937499959,
      "v": 99
    },
    {
      "midi": 58,
      "hit": false,
      "t": 74085.65999999992,
      "d": 600.5329687499907,
      "v": 107
    },
    {
      "midi": 64,
      "hit": false,
      "t": 74085.65999999992,
      "d": 619.5543749999924,
      "v": 93
    },
    {
      "midi": 61,
      "hit": false,
      "t": 74085.65999999992,
      "d": 644.0104687499988,
      "v": 115
    },
    {
      "midi": 31,
      "hit": false,
      "t": 74607.38999999991,
      "d": 505.4259374999965,
      "v": 90
    },
    {
      "midi": 65,
      "hit": false,
      "t": 75129.11999999992,
      "d": 410.3189062499878,
      "v": 111
    },
    {
      "midi": 60,
      "hit": false,
      "t": 75129.11999999992,
      "d": 413.0362499999901,
      "v": 103
    },
    {
      "midi": 69,
      "hit": false,
      "t": 75129.11999999992,
      "d": 415.75359374999243,
      "v": 111
    },
    {
      "midi": 43,
      "hit": false,
      "t": 75129.11999999992,
      "d": 529.8820312500029,
      "v": 90
    },
    {
      "midi": 31,
      "hit": false,
      "t": 75650.84999999992,
      "d": 502.7085937499942,
      "v": 93
    },
    {
      "midi": 59,
      "hit": false,
      "t": 75911.71499999992,
      "d": 149.4539062499971,
      "v": 127
    },
    {
      "midi": 53,
      "hit": false,
      "t": 75911.71499999992,
      "d": 165.7579687499965,
      "v": 96
    },
    {
      "midi": 57,
      "hit": false,
      "t": 75911.71499999992,
      "d": 179.3446874999936,
      "v": 88
    },
    {
      "midi": 59,
      "hit": false,
      "t": 76172.57999999991,
      "d": 182.06203124999593,
      "v": 115
    },
    {
      "midi": 52,
      "hit": false,
      "t": 76172.57999999991,
      "d": 220.10484374999942,
      "v": 77
    },
    {
      "midi": 55,
      "hit": false,
      "t": 76172.57999999991,
      "d": 222.82218750000175,
      "v": 99
    },
    {
      "midi": 43,
      "hit": false,
      "t": 76172.57999999991,
      "d": 673.9012499999953,
      "v": 99
    },
    {
      "midi": 31,
      "hit": false,
      "t": 76694.30999999991,
      "d": 114.12843749999593,
      "v": 96
    },
    {
      "midi": 59,
      "hit": false,
      "t": 76694.30999999991,
      "d": 157.60593750000407,
      "v": 119
    },
    {
      "midi": 55,
      "hit": false,
      "t": 76694.30999999991,
      "d": 211.95281250000698,
      "v": 107
    },
    {
      "midi": 52,
      "hit": false,
      "t": 76694.30999999991,
      "d": 217.38750000001164,
      "v": 96
    },
    {
      "midi": 36,
      "hit": false,
      "t": 77216.03999999992,
      "d": 565.2075000000041,
      "v": 88
    },
    {
      "midi": 60,
      "hit": false,
      "t": 77216.03999999992,
      "d": 567.9248437500064,
      "v": 107
    },
    {
      "midi": 52,
      "hit": false,
      "t": 77216.03999999992,
      "d": 578.7942187500012,
      "v": 107
    },
    {
      "midi": 48,
      "hit": false,
      "t": 77216.03999999992,
      "d": 619.554375000007,
      "v": 90
    },
    {
      "midi": 71,
      "hit": false,
      "t": 78259.49999999993,
      "d": 453.7964062499959,
      "v": 127
    },
    {
      "midi": 52,
      "hit": false,
      "t": 78259.49999999993,
      "d": 576.0768749999843,
      "v": 90
    },
    {
      "midi": 60,
      "hit": false,
      "t": 78259.49999999993,
      "d": 589.6635937499814,
      "v": 88
    },
    {
      "midi": 79,
      "hit": false,
      "t": 78259.49999999993,
      "d": 820.6378124999756,
      "v": 123
    },
    {
      "midi": 67,
      "hit": false,
      "t": 78781.22999999992,
      "d": 510.8606249999866,
      "v": 123
    },
    {
      "midi": 71,
      "hit": false,
      "t": 79302.9599999999,
      "d": 551.620781250007,
      "v": 115
    },
    {
      "midi": 50,
      "hit": false,
      "t": 79302.9599999999,
      "d": 565.2075000000041,
      "v": 75
    },
    {
      "midi": 53,
      "hit": false,
      "t": 79302.9599999999,
      "d": 565.2075000000041,
      "v": 90
    },
    {
      "midi": 62,
      "hit": false,
      "t": 79302.9599999999,
      "d": 565.2075000000041,
      "v": 96
    },
    {
      "midi": 38,
      "hit": false,
      "t": 79302.9599999999,
      "d": 608.6849999999977,
      "v": 75
    },
    {
      "midi": 79,
      "hit": false,
      "t": 79302.9599999999,
      "d": 608.6849999999977,
      "v": 123
    },
    {
      "midi": 67,
      "hit": false,
      "t": 79824.6899999999,
      "d": 201.08343749999767,
      "v": 107
    },
    {
      "midi": 67,
      "hit": false,
      "t": 80346.4199999999,
      "d": 328.79859375000524,
      "v": 127
    },
    {
      "midi": 57,
      "hit": false,
      "t": 80346.4199999999,
      "d": 358.68937500000175,
      "v": 111
    },
    {
      "midi": 60,
      "hit": false,
      "t": 80346.4199999999,
      "d": 543.46875,
      "v": 107
    },
    {
      "midi": 53,
      "hit": false,
      "t": 80346.4199999999,
      "d": 782.5950000000012,
      "v": 99
    },
    {
      "midi": 43,
      "hit": false,
      "t": 80346.4199999999,
      "d": 828.7898437500116,
      "v": 103
    },
    {
      "midi": 59,
      "hit": false,
      "t": 80868.14999999989,
      "d": 296.1904687500064,
      "v": 111
    },
    {
      "midi": 62,
      "hit": false,
      "t": 80868.14999999989,
      "d": 298.90781250000873,
      "v": 115
    },
    {
      "midi": 55,
      "hit": false,
      "t": 81389.8799999999,
      "d": 635.8584375000064,
      "v": 119
    },
    {
      "midi": 60,
      "hit": false,
      "t": 81389.8799999999,
      "d": 671.1839062500076,
      "v": 119
    },
    {
      "midi": 52,
      "hit": false,
      "t": 81389.8799999999,
      "d": 676.6185937500122,
      "v": 127
    },
    {
      "midi": 64,
      "hit": false,
      "t": 81389.8799999999,
      "d": 676.6185937500122,
      "v": 115
    },
    {
      "midi": 57,
      "hit": false,
      "t": 81389.8799999999,
      "d": 684.7706250000192,
      "v": 119
    },
    {
      "midi": 65,
      "hit": false,
      "t": 83476.79999999992,
      "d": 249.99562500001048,
      "v": 127
    },
    {
      "midi": 62,
      "hit": false,
      "t": 83476.79999999992,
      "d": 266.2996875000099,
      "v": 127
    },
    {
      "midi": 57,
      "hit": false,
      "t": 83476.79999999992,
      "d": 277.16906250000466,
      "v": 119
    },
    {
      "midi": 53,
      "hit": false,
      "t": 83476.79999999992,
      "d": 491.8392187499994,
      "v": 127
    },
    {
      "midi": 60,
      "hit": false,
      "t": 83998.52999999991,
      "d": 211.95281250000698,
      "v": 123
    },
    {
      "midi": 64,
      "hit": false,
      "t": 83998.52999999991,
      "d": 217.38750000001164,
      "v": 123
    },
    {
      "midi": 55,
      "hit": false,
      "t": 83998.52999999991,
      "d": 222.8221875000163,
      "v": 119
    },
    {
      "midi": 52,
      "hit": false,
      "t": 83998.52999999991,
      "d": 317.9292187500105,
      "v": 123
    },
    {
      "midi": 59,
      "hit": false,
      "t": 84520.25999999992,
      "d": 187.49671875000058,
      "v": 123
    },
    {
      "midi": 54,
      "hit": false,
      "t": 84520.25999999992,
      "d": 206.51812500000233,
      "v": 107
    },
    {
      "midi": 63,
      "hit": false,
      "t": 84520.25999999992,
      "d": 230.97421875000873,
      "v": 111
    },
    {
      "midi": 51,
      "hit": false,
      "t": 84520.25999999992,
      "d": 497.2739062500186,
      "v": 119
    },
    {
      "midi": 55,
      "hit": false,
      "t": 85041.98999999995,
      "d": 201.08343749999767,
      "v": 123
    },
    {
      "midi": 64,
      "hit": false,
      "t": 85041.98999999995,
      "d": 225.53953125000407,
      "v": 127
    },
    {
      "midi": 60,
      "hit": false,
      "t": 85041.98999999995,
      "d": 228.2568750000064,
      "v": 119
    },
    {
      "midi": 52,
      "hit": false,
      "t": 85041.98999999995,
      "d": 491.8392187499994,
      "v": 119
    },
    {
      "midi": 60,
      "hit": false,
      "t": 85563.71999999994,
      "d": 733.6828125000029,
      "v": 123
    },
    {
      "midi": 57,
      "hit": false,
      "t": 85563.71999999994,
      "d": 752.7042187500047,
      "v": 123
    },
    {
      "midi": 65,
      "hit": false,
      "t": 85563.71999999994,
      "d": 766.2909375000017,
      "v": 127
    },
    {
      "midi": 53,
      "hit": false,
      "t": 85563.71999999994,
      "d": 801.6164062500029,
      "v": 127
    },
    {
      "midi": 61,
      "hit": false,
      "t": 87650.63999999994,
      "d": 258.1476562500029,
      "v": 127
    },
    {
      "midi": 58,
      "hit": false,
      "t": 87650.63999999994,
      "d": 266.2996875000099,
      "v": 119
    },
    {
      "midi": 66,
      "hit": false,
      "t": 87650.63999999994,
      "d": 266.2996875000099,
      "v": 127
    },
    {
      "midi": 52,
      "hit": false,
      "t": 87650.63999999994,
      "d": 535.3167187500076,
      "v": 127
    },
    {
      "midi": 59,
      "hit": false,
      "t": 88172.36999999995,
      "d": 1076.0681249999907,
      "v": 127
    },
    {
      "midi": 67,
      "hit": false,
      "t": 88172.36999999995,
      "d": 1081.5028124999953,
      "v": 127
    },
    {
      "midi": 62,
      "hit": false,
      "t": 88172.36999999995,
      "d": 1108.6762499999895,
      "v": 127
    },
    {
      "midi": 53,
      "hit": false,
      "t": 88172.36999999995,
      "d": 1119.5456249999843,
      "v": 127
    },
    {
      "midi": 57,
      "hit": false,
      "t": 89737.55999999994,
      "d": 586.9462500000081,
      "v": 127
    },
    {
      "midi": 65,
      "hit": false,
      "t": 89737.55999999994,
      "d": 622.2717187500093,
      "v": 127
    },
    {
      "midi": 69,
      "hit": false,
      "t": 89737.55999999994,
      "d": 627.706406250014,
      "v": 127
    },
    {
      "midi": 53,
      "hit": false,
      "t": 89737.55999999994,
      "d": 980.9610937500111,
      "v": 127
    },
    {
      "midi": 59,
      "hit": false,
      "t": 90781.01999999995,
      "d": 258.1476562500029,
      "v": 127
    },
    {
      "midi": 71,
      "hit": false,
      "t": 90781.01999999995,
      "d": 288.0384374999994,
      "v": 127
    },
    {
      "midi": 67,
      "hit": false,
      "t": 90781.01999999995,
      "d": 293.4731250000041,
      "v": 127
    },
    {
      "midi": 55,
      "hit": false,
      "t": 90781.01999999995,
      "d": 532.5993750000052,
      "v": 127
    },
    {
      "midi": 60,
      "hit": false,
      "t": 91302.74999999996,
      "d": 230.97421874999418,
      "v": 127
    },
    {
      "midi": 69,
      "hit": false,
      "t": 91302.74999999996,
      "d": 249.99562499999593,
      "v": 123
    },
    {
      "midi": 72,
      "hit": false,
      "t": 91302.74999999996,
      "d": 252.71296874999825,
      "v": 127
    },
    {
      "midi": 57,
      "hit": false,
      "t": 91302.74999999996,
      "d": 510.86062500000116,
      "v": 123
    },
    {
      "midi": 74,
      "hit": false,
      "t": 91824.47999999995,
      "d": 222.82218750000175,
      "v": 127
    },
    {
      "midi": 71,
      "hit": false,
      "t": 91824.47999999995,
      "d": 233.6915624999965,
      "v": 127
    },
    {
      "midi": 62,
      "hit": false,
      "t": 91824.47999999995,
      "d": 236.40890624999884,
      "v": 127
    },
    {
      "midi": 59,
      "hit": false,
      "t": 91824.47999999995,
      "d": 499.9912500000064,
      "v": 127
    },
    {
      "midi": 72,
      "hit": false,
      "t": 92346.20999999996,
      "d": 198.36609374999534,
      "v": 127
    },
    {
      "midi": 69,
      "hit": false,
      "t": 92346.20999999996,
      "d": 220.10484374999942,
      "v": 123
    },
    {
      "midi": 60,
      "hit": false,
      "t": 92346.20999999996,
      "d": 225.53953125000407,
      "v": 123
    },
    {
      "midi": 57,
      "hit": false,
      "t": 92346.20999999996,
      "d": 489.1218749999971,
      "v": 123
    },
    {
      "midi": 71,
      "hit": false,
      "t": 92867.93999999996,
      "d": 176.62734375000582,
      "v": 127
    },
    {
      "midi": 67,
      "hit": false,
      "t": 92867.93999999996,
      "d": 201.08343750001222,
      "v": 123
    },
    {
      "midi": 59,
      "hit": false,
      "t": 92867.93999999996,
      "d": 209.2354687500192,
      "v": 127
    },
    {
      "midi": 55,
      "hit": false,
      "t": 92867.93999999996,
      "d": 505.42593750001106,
      "v": 127
    },
    {
      "midi": 57,
      "hit": false,
      "t": 93389.66999999997,
      "d": 187.49671875000058,
      "v": 123
    },
    {
      "midi": 65,
      "hit": false,
      "t": 93389.66999999997,
      "d": 187.49671875000058,
      "v": 123
    },
    {
      "midi": 69,
      "hit": false,
      "t": 93389.66999999997,
      "d": 192.93140625000524,
      "v": 103
    },
    {
      "midi": 53,
      "hit": false,
      "t": 93389.66999999997,
      "d": 478.2525000000023,
      "v": 127
    },
    {
      "midi": 62,
      "hit": false,
      "t": 93911.39999999997,
      "d": 1646.7103124999994,
      "v": 127
    },
    {
      "midi": 67,
      "hit": false,
      "t": 93911.39999999997,
      "d": 1646.7103124999994,
      "v": 127
    },
    {
      "midi": 60,
      "hit": false,
      "t": 93911.39999999997,
      "d": 1652.145000000004,
      "v": 127
    },
    {
      "midi": 64,
      "hit": false,
      "t": 93911.39999999997,
      "d": 1671.1664062500058,
      "v": 127
    },
    {
      "midi": 52,
      "hit": false,
      "t": 93911.39999999997,
      "d": 1695.6225000000122,
      "v": 127
    },
    {
      "midi": 67,
      "hit": false,
      "t": 95998.31999999998,
      "d": 576.0768749999988,
      "v": 99
    },
    {
      "midi": 57,
      "hit": false,
      "t": 95998.31999999998,
      "d": 595.0982812500006,
      "v": 99
    },
    {
      "midi": 64,
      "hit": false,
      "t": 95998.31999999998,
      "d": 595.0982812500006,
      "v": 96
    },
    {
      "midi": 52,
      "hit": false,
      "t": 95998.31999999998,
      "d": 600.5329687500052,
      "v": 103
    },
    {
      "midi": 60,
      "hit": false,
      "t": 95998.31999999998,
      "d": 611.40234375,
      "v": 93
    },
    {
      "midi": 57,
      "hit": false,
      "t": 97041.77999999997,
      "d": 404.8842187499977,
      "v": 127
    },
    {
      "midi": 60,
      "hit": false,
      "t": 97041.77999999997,
      "d": 586.9462499999936,
      "v": 127
    },
    {
      "midi": 53,
      "hit": false,
      "t": 97041.77999999997,
      "d": 619.5543749999924,
      "v": 123
    },
    {
      "midi": 43,
      "hit": false,
      "t": 97041.77999999997,
      "d": 720.0960937499913,
      "v": 115
    },
    {
      "midi": 59,
      "hit": false,
      "t": 97563.50999999997,
      "d": 182.06203124999593,
      "v": 127
    },
    {
      "midi": 62,
      "hit": false,
      "t": 97563.50999999997,
      "d": 461.9484375000029,
      "v": 123
    },
    {
      "midi": 60,
      "hit": false,
      "t": 98085.23999999996,
      "d": 622.2717187499948,
      "v": 127
    },
    {
      "midi": 55,
      "hit": false,
      "t": 98085.23999999996,
      "d": 630.4237500000017,
      "v": 127
    },
    {
      "midi": 64,
      "hit": false,
      "t": 98085.23999999996,
      "d": 646.7278125000012,
      "v": 127
    },
    {
      "midi": 48,
      "hit": false,
      "t": 98085.23999999996,
      "d": 668.4665625000052,
      "v": 123
    },
    {
      "midi": 59,
      "hit": false,
      "t": 99128.69999999997,
      "d": 586.9462499999936,
      "v": 127
    },
    {
      "midi": 64,
      "hit": false,
      "t": 99128.69999999997,
      "d": 600.5329687499907,
      "v": 127
    },
    {
      "midi": 55,
      "hit": false,
      "t": 99128.69999999997,
      "d": 605.9676562499953,
      "v": 123
    },
    {
      "midi": 48,
      "hit": false,
      "t": 99128.69999999997,
      "d": 638.5757812499942,
      "v": 119
    },
    {
      "midi": 48,
      "hit": false,
      "t": 100172.15999999997,
      "d": 146.7365625000093,
      "v": 123
    },
    {
      "midi": 55,
      "hit": false,
      "t": 100172.15999999997,
      "d": 152.17125000001397,
      "v": 111
    },
    {
      "midi": 58,
      "hit": false,
      "t": 100172.15999999997,
      "d": 165.75796875001106,
      "v": 119
    },
    {
      "midi": 64,
      "hit": false,
      "t": 100172.15999999997,
      "d": 173.91000000001804,
      "v": 107
    },
    {
      "midi": 62,
      "hit": false,
      "t": 100693.88999999998,
      "d": 581.5115624999889,
      "v": 127
    },
    {
      "midi": 69,
      "hit": false,
      "t": 100693.88999999998,
      "d": 586.9462499999936,
      "v": 127
    },
    {
      "midi": 57,
      "hit": false,
      "t": 100693.88999999998,
      "d": 614.1196874999878,
      "v": 127
    },
    {
      "midi": 64,
      "hit": false,
      "t": 100693.88999999998,
      "d": 619.5543749999924,
      "v": 127
    },
    {
      "midi": 58,
      "hit": false,
      "t": 100693.88999999998,
      "d": 627.7064062499994,
      "v": 127
    },
    {
      "midi": 67,
      "hit": false,
      "t": 101737.34999999998,
      "d": 171.19265625000116,
      "v": 111
    },
    {
      "midi": 64,
      "hit": false,
      "t": 101737.34999999998,
      "d": 182.06203124999593,
      "v": 107
    },
    {
      "midi": 55,
      "hit": false,
      "t": 101737.34999999998,
      "d": 187.49671875000058,
      "v": 123
    },
    {
      "midi": 61,
      "hit": false,
      "t": 101737.34999999998,
      "d": 187.49671875000058,
      "v": 107
    },
    {
      "midi": 58,
      "hit": false,
      "t": 101737.34999999998,
      "d": 217.3874999999971,
      "v": 119
    },
    {
      "midi": 53,
      "hit": false,
      "t": 102259.07999999997,
      "d": 608.6850000000122,
      "v": 123
    },
    {
      "midi": 60,
      "hit": false,
      "t": 102259.07999999997,
      "d": 622.2717187500093,
      "v": 119
    },
    {
      "midi": 57,
      "hit": false,
      "t": 102259.07999999997,
      "d": 633.1410937500041,
      "v": 119
    },
    {
      "midi": 48,
      "hit": false,
      "t": 102259.07999999997,
      "d": 690.2053125000093,
      "v": 115
    },
    {
      "midi": 53,
      "hit": false,
      "t": 103201.99828124998,
      "d": 682.0532812500023,
      "v": 123
    },
    {
      "midi": 60,
      "hit": false,
      "t": 103201.99828124998,
      "d": 682.0532812500023,
      "v": 123
    },
    {
      "midi": 57,
      "hit": false,
      "t": 103201.99828124998,
      "d": 692.9226562499971,
      "v": 127
    },
    {
      "midi": 48,
      "hit": false,
      "t": 103302.53999999998,
      "d": 722.8134374999936,
      "v": 115
    },
    {
      "midi": 53,
      "hit": false,
      "t": 104345.99999999997,
      "d": 138.58453124998778,
      "v": 123
    },
    {
      "midi": 48,
      "hit": false,
      "t": 104345.99999999997,
      "d": 149.45390624998254,
      "v": 123
    },
    {
      "midi": 56,
      "hit": false,
      "t": 104345.99999999997,
      "d": 165.75796874998196,
      "v": 119
    },
    {
      "midi": 60,
      "hit": false,
      "t": 104345.99999999997,
      "d": 165.75796874998196,
      "v": 123
    },
    {
      "midi": 67,
      "hit": false,
      "t": 104867.72999999995,
      "d": 576.0768749999988,
      "v": 127
    },
    {
      "midi": 56,
      "hit": false,
      "t": 104867.72999999995,
      "d": 589.6635937499959,
      "v": 123
    },
    {
      "midi": 60,
      "hit": false,
      "t": 104867.72999999995,
      "d": 605.9676562499953,
      "v": 127
    },
    {
      "midi": 55,
      "hit": false,
      "t": 104867.72999999995,
      "d": 986.3957812500012,
      "v": 127
    },
    {
      "midi": 65,
      "hit": false,
      "t": 105911.18999999996,
      "d": 160.3232812500064,
      "v": 123
    },
    {
      "midi": 53,
      "hit": false,
      "t": 105911.18999999996,
      "d": 165.75796875001106,
      "v": 123
    },
    {
      "midi": 60,
      "hit": false,
      "t": 105911.18999999996,
      "d": 173.91000000001804,
      "v": 119
    },
    {
      "midi": 56,
      "hit": false,
      "t": 105911.18999999996,
      "d": 211.95281250002154,
      "v": 103
    },
    {
      "midi": 52,
      "hit": false,
      "t": 106432.91999999997,
      "d": 1548.885937500003,
      "v": 115
    },
    {
      "midi": 57,
      "hit": false,
      "t": 106432.91999999997,
      "d": 1559.7553124999977,
      "v": 123
    },
    {
      "midi": 55,
      "hit": false,
      "t": 106432.91999999997,
      "d": 1576.059374999997,
      "v": 127
    },
    {
      "midi": 64,
      "hit": false,
      "t": 106432.91999999997,
      "d": 1592.3634374999965,
      "v": 127
    },
    {
      "midi": 60,
      "hit": false,
      "t": 106432.91999999997,
      "d": 1603.2328124999913,
      "v": 123
    },
    {
      "midi": 57,
      "hit": false,
      "t": 108519.83999999997,
      "d": 282.60374999999476,
      "v": 127
    },
    {
      "midi": 62,
      "hit": false,
      "t": 108519.83999999997,
      "d": 331.515937499993,
      "v": 127
    },
    {
      "midi": 65,
      "hit": false,
      "t": 108519.83999999997,
      "d": 342.3853124999878,
      "v": 127
    },
    {
      "midi": 53,
      "hit": false,
      "t": 108519.83999999997,
      "d": 453.7964062499814,
      "v": 127
    },
    {
      "midi": 64,
      "hit": false,
      "t": 109041.56999999995,
      "d": 176.62734375000582,
      "v": 123
    },
    {
      "midi": 60,
      "hit": false,
      "t": 109041.56999999995,
      "d": 198.3660937500099,
      "v": 123
    },
    {
      "midi": 55,
      "hit": false,
      "t": 109041.56999999995,
      "d": 211.95281250000698,
      "v": 119
    },
    {
      "midi": 52,
      "hit": false,
      "t": 109041.56999999995,
      "d": 486.4045312500093,
      "v": 111
    },
    {
      "midi": 62,
      "hit": false,
      "t": 109563.29999999996,
      "d": 513.5779687500035,
      "v": 127
    },
    {
      "midi": 57,
      "hit": false,
      "t": 109563.29999999996,
      "d": 733.6828125000175,
      "v": 111
    },
    {
      "midi": 50,
      "hit": false,
      "t": 109563.29999999996,
      "d": 744.5521875000122,
      "v": 127
    },
    {
      "midi": 54,
      "hit": false,
      "t": 109563.29999999996,
      "d": 749.9868750000169,
      "v": 115
    },
    {
      "midi": 60,
      "hit": false,
      "t": 110085.02999999997,
      "d": 241.8435937500035,
      "v": 107
    },
    {
      "midi": 60,
      "hit": false,
      "t": 110606.75999999998,
      "d": 1624.97156250001,
      "v": 123
    },
    {
      "midi": 53,
      "hit": false,
      "t": 110606.75999999998,
      "d": 1638.558281250007,
      "v": 123
    },
    {
      "midi": 62,
      "hit": false,
      "t": 110606.75999999998,
      "d": 1649.4276562500017,
      "v": 123
    },
    {
      "midi": 57,
      "hit": false,
      "t": 110606.75999999998,
      "d": 1652.145000000004,
      "v": 127
    },
    {
      "midi": 50,
      "hit": false,
      "t": 110606.75999999998,
      "d": 1660.297031250011,
      "v": 111
    },
    {
      "midi": 61,
      "hit": false,
      "t": 112693.68,
      "d": 1046.1773437500087,
      "v": 103
    },
    {
      "midi": 43,
      "hit": false,
      "t": 112693.68,
      "d": 1494.5390625000146,
      "v": 111
    },
    {
      "midi": 59,
      "hit": false,
      "t": 112693.68,
      "d": 1567.9073437500192,
      "v": 123
    },
    {
      "midi": 53,
      "hit": false,
      "t": 112693.68,
      "d": 1573.3420312500239,
      "v": 107
    },
    {
      "midi": 57,
      "hit": false,
      "t": 112693.68,
      "d": 1586.928750000021,
      "v": 93
    },
    {
      "midi": 62,
      "hit": false,
      "t": 113737.14,
      "d": 527.1646875000151,
      "v": 80
    },
    {
      "midi": 55,
      "hit": false,
      "t": 114780.6,
      "d": 1638.5582812499924,
      "v": 127
    },
    {
      "midi": 57,
      "hit": false,
      "t": 114780.6,
      "d": 1649.4276562499872,
      "v": 127
    },
    {
      "midi": 60,
      "hit": false,
      "t": 114780.6,
      "d": 1668.449062499989,
      "v": 127
    },
    {
      "midi": 64,
      "hit": false,
      "t": 114780.6,
      "d": 1671.1664062499913,
      "v": 127
    },
    {
      "midi": 52,
      "hit": false,
      "t": 114780.6,
      "d": 1690.187812499993,
      "v": 127
    },
    {
      "midi": 65,
      "hit": false,
      "t": 116867.52,
      "d": 239.12625000000116,
      "v": 127
    },
    {
      "midi": 62,
      "hit": false,
      "t": 116867.52,
      "d": 255.43031250000058,
      "v": 127
    },
    {
      "midi": 57,
      "hit": false,
      "t": 116867.52,
      "d": 263.58234375000757,
      "v": 127
    },
    {
      "midi": 53,
      "hit": false,
      "t": 116867.52,
      "d": 442.92703125000116,
      "v": 127
    },
    {
      "midi": 64,
      "hit": false,
      "t": 117389.25,
      "d": 239.12625000000116,
      "v": 127
    },
    {
      "midi": 55,
      "hit": false,
      "t": 117389.25,
      "d": 252.71296874999825,
      "v": 123
    },
    {
      "midi": 60,
      "hit": false,
      "t": 117389.25,
      "d": 266.29968749999534,
      "v": 127
    },
    {
      "midi": 52,
      "hit": false,
      "t": 117389.25,
      "d": 312.49453124999127,
      "v": 111
    },
    {
      "midi": 59,
      "hit": false,
      "t": 117910.98,
      "d": 203.80078125,
      "v": 123
    },
    {
      "midi": 54,
      "hit": false,
      "t": 117910.98,
      "d": 217.3874999999971,
      "v": 111
    },
    {
      "midi": 63,
      "hit": false,
      "t": 117910.98,
      "d": 255.43031250000058,
      "v": 111
    },
    {
      "midi": 51,
      "hit": false,
      "t": 117910.98,
      "d": 464.66578125000524,
      "v": 123
    },
    {
      "midi": 55,
      "hit": false,
      "t": 118432.71,
      "d": 258.1476562500029,
      "v": 127
    },
    {
      "midi": 64,
      "hit": false,
      "t": 118432.71,
      "d": 269.0170312499977,
      "v": 127
    },
    {
      "midi": 60,
      "hit": false,
      "t": 118432.71,
      "d": 282.60374999999476,
      "v": 127
    },
    {
      "midi": 52,
      "hit": false,
      "t": 118432.71,
      "d": 508.1432812499843,
      "v": 111
    },
    {
      "midi": 60,
      "hit": false,
      "t": 118954.43999999999,
      "d": 1103.2415624999994,
      "v": 123
    },
    {
      "midi": 57,
      "hit": false,
      "t": 118954.43999999999,
      "d": 1111.3935937500064,
      "v": 123
    },
    {
      "midi": 65,
      "hit": false,
      "t": 118954.43999999999,
      "d": 1130.4150000000081,
      "v": 127
    },
    {
      "midi": 53,
      "hit": false,
      "t": 118954.43999999999,
      "d": 1133.1323437500105,
      "v": 127
    },
    {
      "midi": 61,
      "hit": false,
      "t": 121041.36,
      "d": 255.43031250000058,
      "v": 123
    },
    {
      "midi": 58,
      "hit": false,
      "t": 121041.36,
      "d": 258.1476562500029,
      "v": 119
    },
    {
      "midi": 66,
      "hit": false,
      "t": 121041.36,
      "d": 271.734375,
      "v": 127
    },
    {
      "midi": 52,
      "hit": false,
      "t": 121041.36,
      "d": 516.2953124999913,
      "v": 123
    },
    {
      "midi": 59,
      "hit": false,
      "t": 121563.09,
      "d": 1081.50281250001,
      "v": 127
    },
    {
      "midi": 67,
      "hit": false,
      "t": 121563.09,
      "d": 1084.2201562500122,
      "v": 127
    },
    {
      "midi": 62,
      "hit": false,
      "t": 121563.09,
      "d": 1111.3935937500064,
      "v": 127
    },
    {
      "midi": 53,
      "hit": false,
      "t": 121563.09,
      "d": 1124.9803125000035,
      "v": 127
    },
    {
      "midi": 57,
      "hit": false,
      "t": 123128.28,
      "d": 600.5329687500052,
      "v": 127
    },
    {
      "midi": 65,
      "hit": false,
      "t": 123128.28,
      "d": 633.1410937500041,
      "v": 127
    },
    {
      "midi": 69,
      "hit": false,
      "t": 123128.28,
      "d": 633.1410937500041,
      "v": 127
    },
    {
      "midi": 53,
      "hit": false,
      "t": 123128.28,
      "d": 994.5478125000081,
      "v": 119
    },
    {
      "midi": 59,
      "hit": false,
      "t": 124171.74,
      "d": 252.71296874999825,
      "v": 127
    },
    {
      "midi": 71,
      "hit": false,
      "t": 124171.74,
      "d": 274.4517187500023,
      "v": 127
    },
    {
      "midi": 67,
      "hit": false,
      "t": 124171.74,
      "d": 282.6037500000093,
      "v": 127
    },
    {
      "midi": 55,
      "hit": false,
      "t": 124171.74,
      "d": 521.7300000000105,
      "v": 127
    },
    {
      "midi": 60,
      "hit": false,
      "t": 124693.47000000002,
      "d": 233.6915624999965,
      "v": 127
    },
    {
      "midi": 69,
      "hit": false,
      "t": 124693.47000000002,
      "d": 249.99562499999593,
      "v": 123
    },
    {
      "midi": 72,
      "hit": false,
      "t": 124693.47000000002,
      "d": 258.1476562500029,
      "v": 127
    },
    {
      "midi": 57,
      "hit": false,
      "t": 124693.47000000002,
      "d": 486.40453124999476,
      "v": 127
    },
    {
      "midi": 74,
      "hit": false,
      "t": 125215.20000000001,
      "d": 220.10484374999942,
      "v": 127
    },
    {
      "midi": 71,
      "hit": false,
      "t": 125215.20000000001,
      "d": 230.97421874999418,
      "v": 127
    },
    {
      "midi": 62,
      "hit": false,
      "t": 125215.20000000001,
      "d": 244.56093749999127,
      "v": 127
    },
    {
      "midi": 59,
      "hit": false,
      "t": 125215.20000000001,
      "d": 491.83921874998487,
      "v": 127
    },
    {
      "midi": 72,
      "hit": false,
      "t": 125736.93,
      "d": 201.08343749999767,
      "v": 127
    },
    {
      "midi": 69,
      "hit": false,
      "t": 125736.93,
      "d": 214.67015624999476,
      "v": 123
    },
    {
      "midi": 60,
      "hit": false,
      "t": 125736.93,
      "d": 230.97421874999418,
      "v": 127
    },
    {
      "midi": 57,
      "hit": false,
      "t": 125736.93,
      "d": 497.2739062500041,
      "v": 127
    },
    {
      "midi": 71,
      "hit": false,
      "t": 126258.66,
      "d": 176.62734375000582,
      "v": 127
    },
    {
      "midi": 59,
      "hit": false,
      "t": 126258.66,
      "d": 217.3874999999971,
      "v": 127
    },
    {
      "midi": 67,
      "hit": false,
      "t": 126258.66,
      "d": 217.3874999999971,
      "v": 123
    },
    {
      "midi": 55,
      "hit": false,
      "t": 126258.66,
      "d": 491.83921874998487,
      "v": 123
    },
    {
      "midi": 69,
      "hit": false,
      "t": 126780.38999999998,
      "d": 179.3446874999936,
      "v": 119
    },
    {
      "midi": 65,
      "hit": false,
      "t": 126780.38999999998,
      "d": 198.36609374999534,
      "v": 123
    },
    {
      "midi": 57,
      "hit": false,
      "t": 126780.38999999998,
      "d": 203.80078125,
      "v": 127
    },
    {
      "midi": 53,
      "hit": false,
      "t": 126780.38999999998,
      "d": 486.4045312500093,
      "v": 127
    },
    {
      "midi": 62,
      "hit": false,
      "t": 127302.12,
      "d": 1581.4940625000163,
      "v": 123
    },
    {
      "midi": 64,
      "hit": false,
      "t": 127302.12,
      "d": 1597.7981250000157,
      "v": 119
    },
    {
      "midi": 60,
      "hit": false,
      "t": 127302.12,
      "d": 1600.515468750018,
      "v": 123
    },
    {
      "midi": 52,
      "hit": false,
      "t": 127302.12,
      "d": 1643.9929687500116,
      "v": 115
    },
    {
      "midi": 67,
      "hit": false,
      "t": 127302.12,
      "d": 2684.7356250000157,
      "v": 123
    },
    {
      "midi": 52,
      "hit": false,
      "t": 129389.04000000001,
      "d": 605.9676562500099,
      "v": 96
    },
    {
      "midi": 57,
      "hit": false,
      "t": 129389.04000000001,
      "d": 611.4023437500146,
      "v": 93
    },
    {
      "midi": 64,
      "hit": false,
      "t": 129389.04000000001,
      "d": 611.4023437500146,
      "v": 93
    },
    {
      "midi": 60,
      "hit": false,
      "t": 129389.04000000001,
      "d": 616.8370312500192,
      "v": 96
    },
    {
      "midi": 57,
      "hit": false,
      "t": 130432.50000000003,
      "d": 396.73218750000524,
      "v": 123
    },
    {
      "midi": 60,
      "hit": false,
      "t": 130432.50000000003,
      "d": 592.3809374999983,
      "v": 127
    },
    {
      "midi": 53,
      "hit": false,
      "t": 130432.50000000003,
      "d": 665.7492187499884,
      "v": 127
    },
    {
      "midi": 43,
      "hit": false,
      "t": 130432.50000000003,
      "d": 766.2909374999872,
      "v": 119
    },
    {
      "midi": 59,
      "hit": false,
      "t": 130954.23000000003,
      "d": 233.69156249998196,
      "v": 127
    },
    {
      "midi": 62,
      "hit": false,
      "t": 130954.23000000003,
      "d": 407.60156249998545,
      "v": 127
    },
    {
      "midi": 55,
      "hit": false,
      "t": 131475.96000000002,
      "d": 614.1196875000023,
      "v": 127
    },
    {
      "midi": 64,
      "hit": false,
      "t": 131475.96000000002,
      "d": 622.2717187500093,
      "v": 127
    },
    {
      "midi": 60,
      "hit": false,
      "t": 131475.96000000002,
      "d": 638.5757812500233,
      "v": 127
    },
    {
      "midi": 48,
      "hit": false,
      "t": 131475.96000000002,
      "d": 641.2931250000256,
      "v": 119
    },
    {
      "midi": 55,
      "hit": false,
      "t": 132519.42000000004,
      "d": 635.8584374999919,
      "v": 123
    },
    {
      "midi": 59,
      "hit": false,
      "t": 132519.42000000004,
      "d": 641.2931249999965,
      "v": 127
    },
    {
      "midi": 48,
      "hit": false,
      "t": 132519.42000000004,
      "d": 652.1625000000058,
      "v": 119
    },
    {
      "midi": 64,
      "hit": false,
      "t": 132519.42000000004,
      "d": 654.8798437500081,
      "v": 127
    },
    {
      "midi": 48,
      "hit": false,
      "t": 133562.88000000006,
      "d": 154.8885937499872,
      "v": 127
    },
    {
      "midi": 55,
      "hit": false,
      "t": 133562.88000000006,
      "d": 160.32328124999185,
      "v": 107
    },
    {
      "midi": 58,
      "hit": false,
      "t": 133562.88000000006,
      "d": 179.34468749997905,
      "v": 119
    },
    {
      "midi": 64,
      "hit": false,
      "t": 133562.88000000006,
      "d": 192.9314062499907,
      "v": 103
    },
    {
      "midi": 69,
      "hit": false,
      "t": 134084.61000000004,
      "d": 546.1860937500023,
      "v": 123
    },
    {
      "midi": 57,
      "hit": false,
      "t": 134084.61000000004,
      "d": 562.4901562500163,
      "v": 119
    },
    {
      "midi": 62,
      "hit": false,
      "t": 134084.61000000004,
      "d": 565.2075000000186,
      "v": 123
    },
    {
      "midi": 58,
      "hit": false,
      "t": 134084.61000000004,
      "d": 581.5115625000326,
      "v": 119
    },
    {
      "midi": 64,
      "hit": false,
      "t": 134084.61000000004,
      "d": 581.5115625000326,
      "v": 119
    },
    {
      "midi": 58,
      "hit": false,
      "t": 135128.07000000007,
      "d": 190.21406249998836,
      "v": 127
    },
    {
      "midi": 61,
      "hit": false,
      "t": 135128.07000000007,
      "d": 201.08343749999767,
      "v": 123
    },
    {
      "midi": 55,
      "hit": false,
      "t": 135128.07000000007,
      "d": 206.51812500000233,
      "v": 111
    },
    {
      "midi": 64,
      "hit": false,
      "t": 135128.07000000007,
      "d": 209.23546875000466,
      "v": 115
    },
    {
      "midi": 67,
      "hit": false,
      "t": 135128.07000000007,
      "d": 209.23546875000466,
      "v": 127
    },
    {
      "midi": 62,
      "hit": false,
      "t": 135649.80000000008,
      "d": 603.250312499993,
      "v": 127
    },
    {
      "midi": 65,
      "hit": false,
      "t": 135649.80000000008,
      "d": 616.8370312500047,
      "v": 127
    },
    {
      "midi": 72,
      "hit": false,
      "t": 135649.80000000008,
      "d": 630.4237500000163,
      "v": 127
    },
    {
      "midi": 69,
      "hit": false,
      "t": 135649.80000000008,
      "d": 633.1410937500186,
      "v": 127
    },
    {
      "midi": 60,
      "hit": false,
      "t": 135649.80000000008,
      "d": 638.5757812500233,
      "v": 127
    },
    {
      "midi": 60,
      "hit": false,
      "t": 136693.2600000001,
      "d": 486.4045312500093,
      "v": 119
    },
    {
      "midi": 72,
      "hit": false,
      "t": 136693.2600000001,
      "d": 513.5779687500035,
      "v": 123
    },
    {
      "midi": 69,
      "hit": false,
      "t": 136693.2600000001,
      "d": 516.2953125000058,
      "v": 119
    },
    {
      "midi": 65,
      "hit": false,
      "t": 136693.2600000001,
      "d": 527.1646875000151,
      "v": 119
    },
    {
      "midi": 62,
      "hit": false,
      "t": 136693.2600000001,
      "d": 540.7514062500268,
      "v": 123
    },
    {
      "midi": 53,
      "hit": false,
      "t": 137736.72000000012,
      "d": 638.5757812500233,
      "v": 123
    },
    {
      "midi": 56,
      "hit": false,
      "t": 137736.72000000012,
      "d": 652.1625000000349,
      "v": 123
    },
    {
      "midi": 60,
      "hit": false,
      "t": 137736.72000000012,
      "d": 652.1625000000349,
      "v": 119
    },
    {
      "midi": 65,
      "hit": false,
      "t": 137736.72000000012,
      "d": 652.1625000000349,
      "v": 119
    },
    {
      "midi": 60,
      "hit": false,
      "t": 138780.18000000017,
      "d": 377.7107812500035,
      "v": 127
    },
    {
      "midi": 56,
      "hit": false,
      "t": 138780.18000000017,
      "d": 388.5801562500128,
      "v": 123
    },
    {
      "midi": 48,
      "hit": false,
      "t": 138780.18000000017,
      "d": 519.0126562500081,
      "v": 123
    },
    {
      "midi": 62,
      "hit": false,
      "t": 139301.91000000018,
      "d": 214.6701562500093,
      "v": 127
    },
    {
      "midi": 60,
      "hit": false,
      "t": 139301.91000000018,
      "d": 217.38750000001164,
      "v": 119
    },
    {
      "midi": 56,
      "hit": false,
      "t": 139301.91000000018,
      "d": 225.53953125001863,
      "v": 123
    },
    {
      "midi": 50,
      "hit": false,
      "t": 139301.91000000018,
      "d": 486.4045312500093,
      "v": 123
    },
    {
      "midi": 64,
      "hit": false,
      "t": 139823.6400000002,
      "d": 627.706406250014,
      "v": 123
    },
    {
      "midi": 60,
      "hit": false,
      "t": 139823.6400000002,
      "d": 649.4451562500035,
      "v": 127
    },
    {
      "midi": 55,
      "hit": false,
      "t": 139823.6400000002,
      "d": 652.1625000000058,
      "v": 127
    },
    {
      "midi": 52,
      "hit": false,
      "t": 139823.6400000002,
      "d": 657.5971875000105,
      "v": 107
    },
    {
      "midi": 55,
      "hit": false,
      "t": 140867.10000000018,
      "d": 597.8156250000175,
      "v": 119
    },
    {
      "midi": 58,
      "hit": false,
      "t": 140867.10000000018,
      "d": 616.8370312500047,
      "v": 127
    },
    {
      "midi": 61,
      "hit": false,
      "t": 140867.10000000018,
      "d": 638.5757812499942,
      "v": 127
    },
    {
      "midi": 64,
      "hit": false,
      "t": 140867.10000000018,
      "d": 641.2931249999965,
      "v": 119
    },
    {
      "midi": 52,
      "hit": false,
      "t": 140867.10000000018,
      "d": 978.2437499999942,
      "v": 107
    },
    {
      "midi": 65,
      "hit": false,
      "t": 141910.56000000017,
      "d": 524.4473437499837,
      "v": 119
    },
    {
      "midi": 69,
      "hit": false,
      "t": 141910.56000000017,
      "d": 532.5993749999907,
      "v": 119
    },
    {
      "midi": 62,
      "hit": false,
      "t": 141910.56000000017,
      "d": 551.6207812499779,
      "v": 107
    },
    {
      "midi": 60,
      "hit": false,
      "t": 141910.56000000017,
      "d": 557.0554687499825,
      "v": 107
    },
    {
      "midi": 53,
      "hit": false,
      "t": 141910.56000000017,
      "d": 559.7728124999849,
      "v": 119
    },
    {
      "midi": 62,
      "hit": false,
      "t": 142954.02000000016,
      "d": 573.3595312499965,
      "v": 99
    },
    {
      "midi": 59,
      "hit": false,
      "t": 142954.02000000016,
      "d": 595.098281249986,
      "v": 111
    },
    {
      "midi": 53,
      "hit": false,
      "t": 142954.02000000016,
      "d": 608.6849999999977,
      "v": 107
    },
    {
      "midi": 43,
      "hit": false,
      "t": 142954.02000000016,
      "d": 614.1196875000023,
      "v": 107
    },
    {
      "midi": 57,
      "hit": false,
      "t": 142954.02000000016,
      "d": 619.554375000007,
      "v": 96
    },
    {
      "midi": 57,
      "hit": false,
      "t": 143997.48000000016,
      "d": 576.0768749999988,
      "v": 111
    },
    {
      "midi": 55,
      "hit": false,
      "t": 143997.48000000016,
      "d": 578.7942187500012,
      "v": 107
    },
    {
      "midi": 60,
      "hit": false,
      "t": 143997.48000000016,
      "d": 584.2289062500058,
      "v": 119
    },
    {
      "midi": 64,
      "hit": false,
      "t": 143997.48000000016,
      "d": 605.9676562499953,
      "v": 111
    },
    {
      "midi": 43,
      "hit": false,
      "t": 143997.48000000016,
      "d": 608.6849999999977,
      "v": 119
    },
    {
      "midi": 43,
      "hit": false,
      "t": 145040.94000000018,
      "d": 584.2289062500058,
      "v": 115
    },
    {
      "midi": 58,
      "hit": false,
      "t": 145040.94000000018,
      "d": 622.2717187500093,
      "v": 119
    },
    {
      "midi": 64,
      "hit": false,
      "t": 145040.94000000018,
      "d": 622.2717187500093,
      "v": 111
    },
    {
      "midi": 55,
      "hit": false,
      "t": 145040.94000000018,
      "d": 624.9890625000116,
      "v": 115
    },
    {
      "midi": 61,
      "hit": false,
      "t": 145040.94000000018,
      "d": 641.2931250000256,
      "v": 119
    },
    {
      "midi": 43,
      "hit": false,
      "t": 146084.4000000002,
      "d": 538.0340624999953,
      "v": 107
    },
    {
      "midi": 62,
      "hit": false,
      "t": 146084.4000000002,
      "d": 567.9248437499919,
      "v": 119
    },
    {
      "midi": 60,
      "hit": false,
      "t": 146084.4000000002,
      "d": 573.3595312499965,
      "v": 111
    },
    {
      "midi": 53,
      "hit": false,
      "t": 146084.4000000002,
      "d": 578.7942187500012,
      "v": 107
    },
    {
      "midi": 57,
      "hit": false,
      "t": 146084.4000000002,
      "d": 633.1410937499895,
      "v": 111
    },
    {
      "midi": 60,
      "hit": false,
      "t": 147127.8600000002,
      "d": 532.5993750000198,
      "v": 127
    },
    {
      "midi": 31,
      "hit": false,
      "t": 147127.8600000002,
      "d": 551.620781250007,
      "v": 93
    },
    {
      "midi": 43,
      "hit": false,
      "t": 147127.8600000002,
      "d": 562.4901562500163,
      "v": 86
    },
    {
      "midi": 57,
      "hit": false,
      "t": 147127.8600000002,
      "d": 565.2075000000186,
      "v": 88
    },
    {
      "midi": 63,
      "hit": false,
      "t": 147127.8600000002,
      "d": 570.6421875000233,
      "v": 96
    },
    {
      "midi": 59,
      "hit": false,
      "t": 147127.8600000002,
      "d": 576.0768750000279,
      "v": 111
    },
    {
      "midi": 53,
      "hit": false,
      "t": 147127.8600000002,
      "d": 578.7942187500303,
      "v": 99
    },
    {
      "midi": 62,
      "hit": false,
      "t": 147649.5900000002,
      "d": 483.6871875000361,
      "v": 127
    },
    {
      "midi": 76,
      "hit": false,
      "t": 148171.32000000024,
      "d": 624.9890625000116,
      "v": 127
    },
    {
      "midi": 64,
      "hit": false,
      "t": 148171.32000000024,
      "d": 652.1625000000058,
      "v": 127
    },
    {
      "midi": 76,
      "hit": false,
      "t": 149214.78000000026,
      "d": 671.1839062500221,
      "v": 127
    },
    {
      "midi": 64,
      "hit": false,
      "t": 149214.78000000026,
      "d": 687.4879687500361,
      "v": 127
    },
    {
      "midi": 76,
      "hit": false,
      "t": 150258.2400000003,
      "d": 187.49671874998603,
      "v": 127
    },
    {
      "midi": 64,
      "hit": false,
      "t": 150258.2400000003,
      "d": 209.23546874997555,
      "v": 127
    },
    {
      "midi": 81,
      "hit": false,
      "t": 150779.9700000003,
      "d": 994.5478125000373,
      "v": 127
    },
    {
      "midi": 69,
      "hit": false,
      "t": 150779.9700000003,
      "d": 1002.6998437500442,
      "v": 127
    },
    {
      "midi": 67,
      "hit": false,
      "t": 151823.43000000034,
      "d": 222.8221874999872,
      "v": 127
    },
    {
      "midi": 79,
      "hit": false,
      "t": 151823.43000000034,
      "d": 233.6915624999965,
      "v": 127
    },
    {
      "midi": 84,
      "hit": false,
      "t": 152345.16000000032,
      "d": 565.2074999999895,
      "v": 127
    },
    {
      "midi": 72,
      "hit": false,
      "t": 152345.16000000032,
      "d": 567.9248437499919,
      "v": 127
    },
    {
      "midi": 80,
      "hit": false,
      "t": 154595.1206250003,
      "d": 165.7579687499965,
      "v": 115
    },
    {
      "midi": 77,
      "hit": false,
      "t": 154752.7265625003,
      "d": 97.82437499999651,
      "v": 127
    },
    {
      "midi": 72,
      "hit": false,
      "t": 154932.0712500003,
      "d": 171.19265625000116,
      "v": 127
    },
    {
      "midi": 68,
      "hit": false,
      "t": 155086.9598437503,
      "d": 182.06203125001048,
      "v": 107
    },
    {
      "midi": 65,
      "hit": false,
      "t": 155277.1739062503,
      "d": 171.19265625000116,
      "v": 119
    },
    {
      "midi": 60,
      "hit": false,
      "t": 155464.67062500032,
      "d": 130.43249999999534,
      "v": 123
    },
    {
      "midi": 56,
      "hit": false,
      "t": 156714.64875000034,
      "d": 336.9506249999977,
      "v": 107
    },
    {
      "midi": 60,
      "hit": false,
      "t": 156714.64875000034,
      "d": 380.4281250000058,
      "v": 119
    },
    {
      "midi": 48,
      "hit": false,
      "t": 156714.64875000034,
      "d": 616.8370312499756,
      "v": 119
    },
    {
      "midi": 53,
      "hit": false,
      "t": 156725.51812500035,
      "d": 355.97203124998487,
      "v": 103
    },
    {
      "midi": 62,
      "hit": false,
      "t": 157304.31234375032,
      "d": 260.8649999999907,
      "v": 123
    },
    {
      "midi": 56,
      "hit": false,
      "t": 157304.31234375032,
      "d": 271.734375,
      "v": 107
    },
    {
      "midi": 53,
      "hit": false,
      "t": 157312.46437500033,
      "d": 241.8435937499744,
      "v": 115
    },
    {
      "midi": 50,
      "hit": false,
      "t": 157312.46437500033,
      "d": 279.886406250007,
      "v": 119
    },
    {
      "midi": 64,
      "hit": false,
      "t": 157885.82390625036,
      "d": 660.3145312499837,
      "v": 115
    },
    {
      "midi": 57,
      "hit": false,
      "t": 157893.97593750036,
      "d": 646.7278124999721,
      "v": 107
    },
    {
      "midi": 60,
      "hit": false,
      "t": 157893.97593750036,
      "d": 646.7278124999721,
      "v": 115
    },
    {
      "midi": 55,
      "hit": false,
      "t": 157893.97593750036,
      "d": 652.1624999999767,
      "v": 111
    },
    {
      "midi": 52,
      "hit": false,
      "t": 157893.97593750036,
      "d": 676.6185937499686,
      "v": 119
    },
    {
      "midi": 61,
      "hit": false,
      "t": 159008.08687500033,
      "d": 679.3359375000291,
      "v": 107
    },
    {
      "midi": 58,
      "hit": false,
      "t": 159016.23890625034,
      "d": 644.0104687500279,
      "v": 111
    },
    {
      "midi": 64,
      "hit": false,
      "t": 159016.23890625034,
      "d": 668.4665625000198,
      "v": 99
    },
    {
      "midi": 52,
      "hit": false,
      "t": 159024.39093750034,
      "d": 619.554375000007,
      "v": 115
    },
    {
      "midi": 55,
      "hit": false,
      "t": 159024.39093750034,
      "d": 624.9890625000116,
      "v": 111
    },
    {
      "midi": 69,
      "hit": false,
      "t": 160157.52328125035,
      "d": 244.56093750003492,
      "v": 93
    },
    {
      "midi": 57,
      "hit": false,
      "t": 160165.67531250036,
      "d": 222.8221875000163,
      "v": 111
    },
    {
      "midi": 65,
      "hit": false,
      "t": 160165.67531250036,
      "d": 233.6915625000256,
      "v": 107
    },
    {
      "midi": 60,
      "hit": false,
      "t": 160165.67531250036,
      "d": 255.43031250004424,
      "v": 90
    },
    {
      "midi": 62,
      "hit": false,
      "t": 160176.54468750037,
      "d": 236.40890625002794,
      "v": 99
    },
    {
      "midi": 53,
      "hit": false,
      "t": 160836.8592187504,
      "d": 749.9868750000314,
      "v": 99
    },
    {
      "midi": 59,
      "hit": false,
      "t": 160842.29390625042,
      "d": 752.7042187500338,
      "v": 115
    },
    {
      "midi": 47,
      "hit": false,
      "t": 160842.29390625042,
      "d": 793.4643750000396,
      "v": 115
    },
    {
      "midi": 55,
      "hit": false,
      "t": 160850.44593750042,
      "d": 749.9868750000314,
      "v": 93
    },
    {
      "midi": 53,
      "hit": false,
      "t": 162056.94656250047,
      "d": 288.03843750001397,
      "v": 96
    },
    {
      "midi": 59,
      "hit": false,
      "t": 162056.94656250047,
      "d": 293.4731250000186,
      "v": 107
    },
    {
      "midi": 47,
      "hit": false,
      "t": 162056.94656250047,
      "d": 671.1839062500512,
      "v": 103
    },
    {
      "midi": 55,
      "hit": false,
      "t": 162070.53328125048,
      "d": 290.7557812500163,
      "v": 93
    },
    {
      "midi": 52,
      "hit": false,
      "t": 162733.56515625052,
      "d": 179.34468750000815,
      "v": 90
    },
    {
      "midi": 60,
      "hit": false,
      "t": 162741.71718750053,
      "d": 355.97203124998487,
      "v": 107
    },
    {
      "midi": 55,
      "hit": false,
      "t": 162744.43453125053,
      "d": 323.36390624998603,
      "v": 103
    },
    {
      "midi": 48,
      "hit": false,
      "t": 162758.02125000054,
      "d": 309.7771874999744,
      "v": 99
    },
    {
      "midi": 52,
      "hit": false,
      "t": 163067.79843750052,
      "d": 266.29968749999534,
      "v": 111
    },
    {
      "midi": 55,
      "hit": false,
      "t": 163328.6634375005,
      "d": 195.64874999999302,
      "v": 111
    },
    {
      "midi": 57,
      "hit": false,
      "t": 163540.61625000052,
      "d": 187.49671874998603,
      "v": 107
    },
    {
      "midi": 60,
      "hit": false,
      "t": 163749.8517187505,
      "d": 168.47531249999884,
      "v": 111
    },
    {
      "midi": 64,
      "hit": false,
      "t": 163942.78312500048,
      "d": 187.49671874998603,
      "v": 99
    },
    {
      "midi": 67,
      "hit": false,
      "t": 164154.73593750046,
      "d": 157.60593749998952,
      "v": 107
    },
    {
      "midi": 69,
      "hit": false,
      "t": 164342.23265625045,
      "d": 171.19265625000116,
      "v": 82
    },
    {
      "midi": 72,
      "hit": false,
      "t": 164535.16406250044,
      "d": 1497.2564062499732,
      "v": 90
    },
    {
      "midi": 76,
      "hit": false,
      "t": 164730.81281250043,
      "d": 1249.9781249999942,
      "v": 78
    },
    {
      "midi": 79,
      "hit": false,
      "t": 164896.57078125043,
      "d": 192.9314062499907,
      "v": 88
    },
    {
      "midi": 81,
      "hit": false,
      "t": 165070.48078125043,
      "d": 154.8885937499872,
      "v": 93
    },
    {
      "midi": 84,
      "hit": false,
      "t": 165238.95609375043,
      "d": 124.99781249999069,
      "v": 96
    },
    {
      "midi": 88,
      "hit": false,
      "t": 165431.88750000042,
      "d": 2393.979843750014,
      "v": 69
    },
    {
      "midi": 91,
      "hit": false,
      "t": 165660.1443750004,
      "d": 2141.266875000001,
      "v": 80
    },
    {
      "midi": 93,
      "hit": false,
      "t": 165899.2706250004,
      "d": 1896.7059374999953,
      "v": 107
    },
    {
      "midi": 96,
      "hit": false,
      "t": 166200.8957812504,
      "d": 1608.6675000000105,
      "v": 96
    },
    {
      "midi": 36,
      "hit": false,
      "t": 166687.30031250042,
      "d": 1144.0017187500198,
      "v": 90
    },
    {
      "midi": 24,
      "hit": false,
      "t": 167399.24437500042,
      "d": 521.7300000000105,
      "v": 62
    }
  ]
}