{
  "jsonPath": "Unknown/Unknown/Mahavishnu OrchestraJohn McLaughlin/dawn.json",
  "path": "Unknown\\Unknown\\Mahavishnu OrchestraJohn McLaughlin\\Dawn.mid",
  "name": "Dawn",
  "difficulty": "Advanced",
  "bpm": 132.000132000132,
  "notes": [
    {
      "midi": 40,
      "hit": false,
      "t": 0,
      "d": 435.60562500000003,
      "v": 100
    },
    {
      "midi": 79,
      "hit": false,
      "t": 0,
      "d": 435.60562500000003,
      "v": 100
    },
    {
      "midi": 81,
      "hit": false,
      "t": 454.545,
      "d": 217.80281250000002,
      "v": 100
    },
    {
      "midi": 52,
      "hit": false,
      "t": 454.545,
      "d": 1306.816875,
      "v": 100
    },
    {
      "midi": 55,
      "hit": false,
      "t": 454.545,
      "d": 1306.816875,
      "v": 100
    },
    {
      "midi": 59,
      "hit": false,
      "t": 454.545,
      "d": 1306.816875,
      "v": 100
    },
    {
      "midi": 62,
      "hit": false,
      "t": 454.545,
      "d": 1306.816875,
      "v": 100
    },
    {
      "midi": 79,
      "hit": false,
      "t": 681.8175,
      "d": 217.80281249999996,
      "v": 100
    },
    {
      "midi": 81,
      "hit": false,
      "t": 909.0899999999999,
      "d": 217.80281250000007,
      "v": 100
    },
    {
      "midi": 79,
      "hit": false,
      "t": 1136.3625,
      "d": 217.80281250000007,
      "v": 100
    },
    {
      "midi": 76,
      "hit": false,
      "t": 1363.635,
      "d": 217.80281250000007,
      "v": 100
    },
    {
      "midi": 72,
      "hit": false,
      "t": 1590.9075,
      "d": 217.80281250000007,
      "v": 100
    },
    {
      "midi": 74,
      "hit": false,
      "t": 1818.18,
      "d": 871.2112499999996,
      "v": 100
    },
    {
      "midi": 52,
      "hit": false,
      "t": 2272.725,
      "d": 435.6056249999997,
      "v": 100
    },
    {
      "midi": 55,
      "hit": false,
      "t": 2272.725,
      "d": 435.6056249999997,
      "v": 100
    },
    {
      "midi": 59,
      "hit": false,
      "t": 2272.725,
      "d": 435.6056249999997,
      "v": 100
    },
    {
      "midi": 62,
      "hit": false,
      "t": 2272.725,
      "d": 435.6056249999997,
      "v": 100
    },
    {
      "midi": 72,
      "hit": false,
      "t": 2727.2699999999995,
      "d": 217.80281250000007,
      "v": 100
    },
    {
      "midi": 52,
      "hit": false,
      "t": 2727.2699999999995,
      "d": 435.60562500000015,
      "v": 100
    },
    {
      "midi": 55,
      "hit": false,
      "t": 2727.2699999999995,
      "d": 435.60562500000015,
      "v": 100
    },
    {
      "midi": 57,
      "hit": false,
      "t": 2727.2699999999995,
      "d": 435.60562500000015,
      "v": 100
    },
    {
      "midi": 60,
      "hit": false,
      "t": 2727.2699999999995,
      "d": 435.60562500000015,
      "v": 100
    },
    {
      "midi": 74,
      "hit": false,
      "t": 2954.5424999999996,
      "d": 217.80281250000007,
      "v": 100
    },
    {
      "midi": 74,
      "hit": false,
      "t": 3181.8149999999996,
      "d": 217.80281250000007,
      "v": 100
    },
    {
      "midi": 48,
      "hit": false,
      "t": 3181.8149999999996,
      "d": 435.60562500000015,
      "v": 100
    },
    {
      "midi": 52,
      "hit": false,
      "t": 3181.8149999999996,
      "d": 435.60562500000015,
      "v": 100
    },
    {
      "midi": 55,
      "hit": false,
      "t": 3181.8149999999996,
      "d": 435.60562500000015,
      "v": 100
    },
    {
      "midi": 57,
      "hit": false,
      "t": 3181.8149999999996,
      "d": 435.60562500000015,
      "v": 100
    },
    {
      "midi": 72,
      "hit": false,
      "t": 3409.0874999999996,
      "d": 217.80281250000007,
      "v": 100
    },
    {
      "midi": 50,
      "hit": false,
      "t": 3636.3599999999997,
      "d": 1306.8168749999995,
      "v": 100
    },
    {
      "midi": 52,
      "hit": false,
      "t": 3636.3599999999997,
      "d": 1306.8168749999995,
      "v": 100
    },
    {
      "midi": 57,
      "hit": false,
      "t": 3636.3599999999997,
      "d": 1306.8168749999995,
      "v": 100
    },
    {
      "midi": 59,
      "hit": false,
      "t": 3636.3599999999997,
      "d": 1306.8168749999995,
      "v": 100
    },
    {
      "midi": 71,
      "hit": false,
      "t": 3636.3599999999997,
      "d": 1306.8168749999995,
      "v": 100
    },
    {
      "midi": 52,
      "hit": false,
      "t": 4999.994999999999,
      "d": 435.60562500000015,
      "v": 100
    },
    {
      "midi": 55,
      "hit": false,
      "t": 4999.994999999999,
      "d": 435.60562500000015,
      "v": 100
    },
    {
      "midi": 57,
      "hit": false,
      "t": 4999.994999999999,
      "d": 435.60562500000015,
      "v": 100
    },
    {
      "midi": 60,
      "hit": false,
      "t": 4999.994999999999,
      "d": 435.60562500000015,
      "v": 100
    },
    {
      "midi": 72,
      "hit": false,
      "t": 4999.994999999999,
      "d": 435.60562500000015,
      "v": 100
    },
    {
      "midi": 74,
      "hit": false,
      "t": 5454.539999999999,
      "d": 435.60562500000015,
      "v": 100
    },
    {
      "midi": 52,
      "hit": false,
      "t": 5454.539999999999,
      "d": 871.2112500000003,
      "v": 100
    },
    {
      "midi": 55,
      "hit": false,
      "t": 5454.539999999999,
      "d": 871.2112500000003,
      "v": 100
    },
    {
      "midi": 59,
      "hit": false,
      "t": 5454.539999999999,
      "d": 871.2112500000003,
      "v": 100
    },
    {
      "midi": 62,
      "hit": false,
      "t": 5454.539999999999,
      "d": 871.2112500000003,
      "v": 100
    },
    {
      "midi": 76,
      "hit": false,
      "t": 5909.084999999999,
      "d": 435.60562500000015,
      "v": 100
    },
    {
      "midi": 52,
      "hit": false,
      "t": 6363.629999999999,
      "d": 435.60562500000015,
      "v": 100
    },
    {
      "midi": 55,
      "hit": false,
      "t": 6363.629999999999,
      "d": 435.60562500000015,
      "v": 100
    },
    {
      "midi": 57,
      "hit": false,
      "t": 6363.629999999999,
      "d": 435.60562500000015,
      "v": 100
    },
    {
      "midi": 60,
      "hit": false,
      "t": 6363.629999999999,
      "d": 435.60562500000015,
      "v": 100
    },
    {
      "midi": 76,
      "hit": false,
      "t": 6363.629999999999,
      "d": 435.60562500000015,
      "v": 100
    },
    {
      "midi": 72,
      "hit": false,
      "t": 6818.174999999999,
      "d": 435.60562500000015,
      "v": 100
    },
    {
      "midi": 52,
      "hit": false,
      "t": 6818.174999999999,
      "d": 1306.8168750000004,
      "v": 100
    },
    {
      "midi": 55,
      "hit": false,
      "t": 6818.174999999999,
      "d": 1306.8168750000004,
      "v": 100
    },
    {
      "midi": 60,
      "hit": false,
      "t": 6818.174999999999,
      "d": 1306.8168750000004,
      "v": 100
    },
    {
      "midi": 79,
      "hit": false,
      "t": 7272.719999999999,
      "d": 435.60562500000015,
      "v": 100
    },
    {
      "midi": 76,
      "hit": false,
      "t": 7727.264999999999,
      "d": 435.60562500000015,
      "v": 100
    },
    {
      "midi": 52,
      "hit": false,
      "t": 8181.8099999999995,
      "d": 435.60562500000015,
      "v": 100
    },
    {
      "midi": 55,
      "hit": false,
      "t": 8181.8099999999995,
      "d": 435.60562500000015,
      "v": 100
    },
    {
      "midi": 60,
      "hit": false,
      "t": 8181.8099999999995,
      "d": 435.60562500000015,
      "v": 100
    },
    {
      "midi": 74,
      "hit": false,
      "t": 8181.8099999999995,
      "d": 435.60562500000015,
      "v": 100
    },
    {
      "midi": 72,
      "hit": false,
      "t": 8636.355,
      "d": 435.60562500000015,
      "v": 100
    },
    {
      "midi": 52,
      "hit": false,
      "t": 8636.355,
      "d": 871.2112500000003,
      "v": 100
    },
    {
      "midi": 55,
      "hit": false,
      "t": 8636.355,
      "d": 871.2112500000003,
      "v": 100
    },
    {
      "midi": 60,
      "hit": false,
      "t": 8636.355,
      "d": 871.2112500000003,
      "v": 100
    },
    {
      "midi": 76,
      "hit": false,
      "t": 9090.9,
      "d": 435.60562500000015,
      "v": 100
    },
    {
      "midi": 52,
      "hit": false,
      "t": 9545.445,
      "d": 435.60562500000015,
      "v": 100
    },
    {
      "midi": 55,
      "hit": false,
      "t": 9545.445,
      "d": 435.60562500000015,
      "v": 100
    },
    {
      "midi": 60,
      "hit": false,
      "t": 9545.445,
      "d": 435.60562500000015,
      "v": 100
    },
    {
      "midi": 67,
      "hit": false,
      "t": 9545.445,
      "d": 435.60562500000015,
      "v": 100
    },
    {
      "midi": 64,
      "hit": false,
      "t": 9999.99,
      "d": 217.80281250000007,
      "v": 100
    },
    {
      "midi": 52,
      "hit": false,
      "t": 9999.99,
      "d": 1306.816875000004,
      "v": 100
    },
    {
      "midi": 55,
      "hit": false,
      "t": 9999.99,
      "d": 1306.816875000004,
      "v": 100
    },
    {
      "midi": 60,
      "hit": false,
      "t": 9999.99,
      "d": 1306.816875000004,
      "v": 100
    },
    {
      "midi": 67,
      "hit": false,
      "t": 10227.2625,
      "d": 217.80281250000007,
      "v": 100
    },
    {
      "midi": 72,
      "hit": false,
      "t": 10454.535000000002,
      "d": 217.80281250000007,
      "v": 100
    },
    {
      "midi": 71,
      "hit": false,
      "t": 10681.807500000003,
      "d": 217.80281250000007,
      "v": 100
    },
    {
      "midi": 76,
      "hit": false,
      "t": 10909.080000000004,
      "d": 435.60562500000015,
      "v": 100
    },
    {
      "midi": 52,
      "hit": false,
      "t": 11363.625000000004,
      "d": 435.60562500000015,
      "v": 100
    },
    {
      "midi": 55,
      "hit": false,
      "t": 11363.625000000004,
      "d": 435.60562500000015,
      "v": 100
    },
    {
      "midi": 60,
      "hit": false,
      "t": 11363.625000000004,
      "d": 435.60562500000015,
      "v": 100
    },
    {
      "midi": 74,
      "hit": false,
      "t": 11363.625000000004,
      "d": 435.60562500000015,
      "v": 100
    },
    {
      "midi": 72,
      "hit": false,
      "t": 11818.170000000004,
      "d": 435.60562500000015,
      "v": 100
    },
    {
      "midi": 52,
      "hit": false,
      "t": 11818.170000000004,
      "d": 871.2112500000003,
      "v": 100
    },
    {
      "midi": 55,
      "hit": false,
      "t": 11818.170000000004,
      "d": 871.2112500000003,
      "v": 100
    },
    {
      "midi": 60,
      "hit": false,
      "t": 11818.170000000004,
      "d": 871.2112500000003,
      "v": 100
    },
    {
      "midi": 71,
      "hit": false,
      "t": 12272.715000000004,
      "d": 435.60562500000015,
      "v": 100
    },
    {
      "midi": 52,
      "hit": false,
      "t": 12727.260000000004,
      "d": 435.60562500000015,
      "v": 100
    },
    {
      "midi": 55,
      "hit": false,
      "t": 12727.260000000004,
      "d": 435.60562500000015,
      "v": 100
    },
    {
      "midi": 60,
      "hit": false,
      "t": 12727.260000000004,
      "d": 435.60562500000015,
      "v": 100
    },
    {
      "midi": 69,
      "hit": false,
      "t": 12727.260000000004,
      "d": 435.60562500000015,
      "v": 100
    },
    {
      "midi": 71,
      "hit": false,
      "t": 13181.805000000004,
      "d": 217.80281250000007,
      "v": 100
    },
    {
      "midi": 53,
      "hit": false,
      "t": 13181.805000000004,
      "d": 1306.816875000004,
      "v": 100
    },
    {
      "midi": 57,
      "hit": false,
      "t": 13181.805000000004,
      "d": 1306.816875000004,
      "v": 100
    },
    {
      "midi": 59,
      "hit": false,
      "t": 13181.805000000004,
      "d": 1306.816875000004,
      "v": 100
    },
    {
      "midi": 60,
      "hit": false,
      "t": 13181.805000000004,
      "d": 1306.816875000004,
      "v": 100
    },
    {
      "midi": 64,
      "hit": false,
      "t": 13181.805000000004,
      "d": 1306.816875000004,
      "v": 100
    },
    {
      "midi": 69,
      "hit": false,
      "t": 13409.077500000005,
      "d": 217.80281250000007,
      "v": 100
    },
    {
      "midi": 77,
      "hit": false,
      "t": 13636.350000000006,
      "d": 217.80281250000007,
      "v": 100
    },
    {
      "midi": 76,
      "hit": false,
      "t": 13863.622500000007,
      "d": 217.80281250000007,
      "v": 100
    },
    {
      "midi": 81,
      "hit": false,
      "t": 14090.895000000008,
      "d": 435.60562500000015,
      "v": 100
    },
    {
      "midi": 53,
      "hit": false,
      "t": 14545.440000000008,
      "d": 435.60562500000015,
      "v": 100
    },
    {
      "midi": 57,
      "hit": false,
      "t": 14545.440000000008,
      "d": 435.60562500000015,
      "v": 100
    },
    {
      "midi": 59,
      "hit": false,
      "t": 14545.440000000008,
      "d": 435.60562500000015,
      "v": 100
    },
    {
      "midi": 60,
      "hit": false,
      "t": 14545.440000000008,
      "d": 435.60562500000015,
      "v": 100
    },
    {
      "midi": 64,
      "hit": false,
      "t": 14545.440000000008,
      "d": 435.60562500000015,
      "v": 100
    },
    {
      "midi": 79,
      "hit": false,
      "t": 14545.440000000008,
      "d": 435.60562500000015,
      "v": 100
    },
    {
      "midi": 77,
      "hit": false,
      "t": 14999.985000000008,
      "d": 435.60562500000015,
      "v": 100
    },
    {
      "midi": 53,
      "hit": false,
      "t": 14999.985000000008,
      "d": 871.2112500000003,
      "v": 100
    },
    {
      "midi": 57,
      "hit": false,
      "t": 14999.985000000008,
      "d": 871.2112500000003,
      "v": 100
    },
    {
      "midi": 59,
      "hit": false,
      "t": 14999.985000000008,
      "d": 871.2112500000003,
      "v": 100
    },
    {
      "midi": 60,
      "hit": false,
      "t": 14999.985000000008,
      "d": 871.2112500000003,
      "v": 100
    },
    {
      "midi": 64,
      "hit": false,
      "t": 14999.985000000008,
      "d": 871.2112500000003,
      "v": 100
    },
    {
      "midi": 76,
      "hit": false,
      "t": 15454.530000000008,
      "d": 435.60562500000015,
      "v": 100
    },
    {
      "midi": 53,
      "hit": false,
      "t": 15909.075000000008,
      "d": 435.60562500000015,
      "v": 100
    },
    {
      "midi": 57,
      "hit": false,
      "t": 15909.075000000008,
      "d": 435.60562500000015,
      "v": 100
    },
    {
      "midi": 59,
      "hit": false,
      "t": 15909.075000000008,
      "d": 435.60562500000015,
      "v": 100
    },
    {
      "midi": 60,
      "hit": false,
      "t": 15909.075000000008,
      "d": 435.60562500000015,
      "v": 100
    },
    {
      "midi": 64,
      "hit": false,
      "t": 15909.075000000008,
      "d": 435.60562500000015,
      "v": 100
    },
    {
      "midi": 74,
      "hit": false,
      "t": 15909.075000000008,
      "d": 435.60562500000015,
      "v": 100
    },
    {
      "midi": 72,
      "hit": false,
      "t": 16363.620000000008,
      "d": 217.80281250000007,
      "v": 100
    },
    {
      "midi": 53,
      "hit": false,
      "t": 16363.620000000008,
      "d": 1306.8168749999986,
      "v": 100
    },
    {
      "midi": 57,
      "hit": false,
      "t": 16363.620000000008,
      "d": 1306.8168749999986,
      "v": 100
    },
    {
      "midi": 59,
      "hit": false,
      "t": 16363.620000000008,
      "d": 1306.8168749999986,
      "v": 100
    },
    {
      "midi": 60,
      "hit": false,
      "t": 16363.620000000008,
      "d": 1306.8168749999986,
      "v": 100
    },
    {
      "midi": 64,
      "hit": false,
      "t": 16363.620000000008,
      "d": 1306.8168749999986,
      "v": 100
    },
    {
      "midi": 74,
      "hit": false,
      "t": 16590.89250000001,
      "d": 217.80281249999825,
      "v": 100
    },
    {
      "midi": 72,
      "hit": false,
      "t": 16818.165000000008,
      "d": 217.80281249999825,
      "v": 100
    },
    {
      "midi": 76,
      "hit": false,
      "t": 17045.437500000007,
      "d": 217.80281249999825,
      "v": 100
    },
    {
      "midi": 77,
      "hit": false,
      "t": 17272.710000000006,
      "d": 217.80281249999825,
      "v": 100
    },
    {
      "midi": 69,
      "hit": false,
      "t": 17499.982500000006,
      "d": 217.8028125000019,
      "v": 100
    },
    {
      "midi": 71,
      "hit": false,
      "t": 17727.25500000001,
      "d": 217.80281249999825,
      "v": 100
    },
    {
      "midi": 53,
      "hit": false,
      "t": 17727.25500000001,
      "d": 435.60562500000015,
      "v": 100
    },
    {
      "midi": 57,
      "hit": false,
      "t": 17727.25500000001,
      "d": 435.60562500000015,
      "v": 100
    },
    {
      "midi": 59,
      "hit": false,
      "t": 17727.25500000001,
      "d": 435.60562500000015,
      "v": 100
    },
    {
      "midi": 60,
      "hit": false,
      "t": 17727.25500000001,
      "d": 435.60562500000015,
      "v": 100
    },
    {
      "midi": 64,
      "hit": false,
      "t": 17727.25500000001,
      "d": 435.60562500000015,
      "v": 100
    },
    {
      "midi": 72,
      "hit": false,
      "t": 17954.527500000007,
      "d": 217.8028125000019,
      "v": 100
    },
    {
      "midi": 74,
      "hit": false,
      "t": 18181.80000000001,
      "d": 217.80281249999825,
      "v": 100
    },
    {
      "midi": 53,
      "hit": false,
      "t": 18181.80000000001,
      "d": 871.2112499999967,
      "v": 100
    },
    {
      "midi": 57,
      "hit": false,
      "t": 18181.80000000001,
      "d": 871.2112499999967,
      "v": 100
    },
    {
      "midi": 59,
      "hit": false,
      "t": 18181.80000000001,
      "d": 871.2112499999967,
      "v": 100
    },
    {
      "midi": 60,
      "hit": false,
      "t": 18181.80000000001,
      "d": 871.2112499999967,
      "v": 100
    },
    {
      "midi": 64,
      "hit": false,
      "t": 18181.80000000001,
      "d": 871.2112499999967,
      "v": 100
    },
    {
      "midi": 76,
      "hit": false,
      "t": 18409.07250000001,
      "d": 217.80281249999825,
      "v": 100
    },
    {
      "midi": 81,
      "hit": false,
      "t": 18636.34500000001,
      "d": 217.80281249999825,
      "v": 100
    },
    {
      "midi": 79,
      "hit": false,
      "t": 18863.617500000008,
      "d": 217.80281249999825,
      "v": 100
    },
    {
      "midi": 72,
      "hit": false,
      "t": 19090.890000000007,
      "d": 217.80281249999825,
      "v": 100
    },
    {
      "midi": 53,
      "hit": false,
      "t": 19090.890000000007,
      "d": 435.60562500000015,
      "v": 100
    },
    {
      "midi": 57,
      "hit": false,
      "t": 19090.890000000007,
      "d": 435.60562500000015,
      "v": 100
    },
    {
      "midi": 59,
      "hit": false,
      "t": 19090.890000000007,
      "d": 435.60562500000015,
      "v": 100
    },
    {
      "midi": 60,
      "hit": false,
      "t": 19090.890000000007,
      "d": 435.60562500000015,
      "v": 100
    },
    {
      "midi": 64,
      "hit": false,
      "t": 19090.890000000007,
      "d": 435.60562500000015,
      "v": 100
    },
    {
      "midi": 77,
      "hit": false,
      "t": 19318.162500000006,
      "d": 217.8028125000019,
      "v": 100
    },
    {
      "midi": 75,
      "hit": false,
      "t": 19545.43500000001,
      "d": 435.60562500000015,
      "v": 100
    },
    {
      "midi": 55,
      "hit": false,
      "t": 19545.43500000001,
      "d": 1306.816875000004,
      "v": 100
    },
    {
      "midi": 58,
      "hit": false,
      "t": 19545.43500000001,
      "d": 1306.816875000004,
      "v": 100
    },
    {
      "midi": 72,
      "hit": false,
      "t": 19999.98000000001,
      "d": 435.60562500000015,
      "v": 100
    },
    {
      "midi": 63,
      "hit": false,
      "t": 20454.525000000012,
      "d": 397.7268750000003,
      "v": 100
    },
    {
      "midi": 55,
      "hit": false,
      "t": 20909.070000000014,
      "d": 435.60562500000015,
      "v": 100
    },
    {
      "midi": 58,
      "hit": false,
      "t": 20909.070000000014,
      "d": 435.60562500000015,
      "v": 100
    },
    {
      "midi": 63,
      "hit": false,
      "t": 20909.070000000014,
      "d": 435.60562500000015,
      "v": 100
    },
    {
      "midi": 67,
      "hit": false,
      "t": 20909.070000000014,
      "d": 435.60562500000015,
      "v": 100
    },
    {
      "midi": 63,
      "hit": false,
      "t": 21363.615000000016,
      "d": 435.60562500000015,
      "v": 100
    },
    {
      "midi": 55,
      "hit": false,
      "t": 21363.615000000016,
      "d": 871.2112500000003,
      "v": 100
    },
    {
      "midi": 58,
      "hit": false,
      "t": 21363.615000000016,
      "d": 871.2112500000003,
      "v": 100
    },
    {
      "midi": 65,
      "hit": false,
      "t": 21818.160000000018,
      "d": 435.60562500000015,
      "v": 100
    },
    {
      "midi": 55,
      "hit": false,
      "t": 22272.70500000002,
      "d": 435.60562500000015,
      "v": 100
    },
    {
      "midi": 58,
      "hit": false,
      "t": 22272.70500000002,
      "d": 435.60562500000015,
      "v": 100
    },
    {
      "midi": 63,
      "hit": false,
      "t": 22272.70500000002,
      "d": 435.60562500000015,
      "v": 100
    },
    {
      "midi": 70,
      "hit": false,
      "t": 22272.70500000002,
      "d": 435.60562500000015,
      "v": 100
    },
    {
      "midi": 67,
      "hit": false,
      "t": 22727.250000000022,
      "d": 217.80281249999825,
      "v": 100
    },
    {
      "midi": 55,
      "hit": false,
      "t": 22727.250000000022,
      "d": 1306.8168749999968,
      "v": 100
    },
    {
      "midi": 58,
      "hit": false,
      "t": 22727.250000000022,
      "d": 1306.8168749999968,
      "v": 100
    },
    {
      "midi": 63,
      "hit": false,
      "t": 22727.250000000022,
      "d": 1306.8168749999968,
      "v": 100
    },
    {
      "midi": 70,
      "hit": false,
      "t": 22954.52250000002,
      "d": 217.80281249999825,
      "v": 100
    },
    {
      "midi": 72,
      "hit": false,
      "t": 23181.79500000002,
      "d": 217.80281249999825,
      "v": 100
    },
    {
      "midi": 67,
      "hit": false,
      "t": 23409.06750000002,
      "d": 217.80281249999825,
      "v": 100
    },
    {
      "midi": 74,
      "hit": false,
      "t": 23636.34000000002,
      "d": 435.60562500000015,
      "v": 100
    },
    {
      "midi": 55,
      "hit": false,
      "t": 24090.88500000002,
      "d": 435.60562500000015,
      "v": 100
    },
    {
      "midi": 58,
      "hit": false,
      "t": 24090.88500000002,
      "d": 435.60562500000015,
      "v": 100
    },
    {
      "midi": 63,
      "hit": false,
      "t": 24090.88500000002,
      "d": 435.60562500000015,
      "v": 100
    },
    {
      "midi": 75,
      "hit": false,
      "t": 24090.88500000002,
      "d": 435.60562500000015,
      "v": 100
    },
    {
      "midi": 74,
      "hit": false,
      "t": 24545.430000000022,
      "d": 435.60562500000015,
      "v": 100
    },
    {
      "midi": 55,
      "hit": false,
      "t": 24545.430000000022,
      "d": 871.2112500000003,
      "v": 100
    },
    {
      "midi": 58,
      "hit": false,
      "t": 24545.430000000022,
      "d": 871.2112500000003,
      "v": 100
    },
    {
      "midi": 63,
      "hit": false,
      "t": 24545.430000000022,
      "d": 871.2112500000003,
      "v": 100
    },
    {
      "midi": 75,
      "hit": false,
      "t": 24999.975000000024,
      "d": 435.60562500000015,
      "v": 100
    },
    {
      "midi": 55,
      "hit": false,
      "t": 25454.520000000026,
      "d": 435.60562500000015,
      "v": 100
    },
    {
      "midi": 58,
      "hit": false,
      "t": 25454.520000000026,
      "d": 435.60562500000015,
      "v": 100
    },
    {
      "midi": 63,
      "hit": false,
      "t": 25454.520000000026,
      "d": 435.60562500000015,
      "v": 100
    },
    {
      "midi": 70,
      "hit": false,
      "t": 25454.520000000026,
      "d": 435.60562500000015,
      "v": 100
    },
    {
      "midi": 57,
      "hit": false,
      "t": 25909.065000000028,
      "d": 1306.8168750000004,
      "v": 100
    },
    {
      "midi": 61,
      "hit": false,
      "t": 25909.065000000028,
      "d": 1306.8168750000004,
      "v": 100
    },
    {
      "midi": 64,
      "hit": false,
      "t": 25909.065000000028,
      "d": 1306.8168750000004,
      "v": 100
    },
    {
      "midi": 69,
      "hit": false,
      "t": 25909.065000000028,
      "d": 1306.8168750000004,
      "v": 100
    },
    {
      "midi": 57,
      "hit": false,
      "t": 27272.70000000003,
      "d": 435.60562500000015,
      "v": 100
    },
    {
      "midi": 61,
      "hit": false,
      "t": 27272.70000000003,
      "d": 435.60562500000015,
      "v": 100
    },
    {
      "midi": 64,
      "hit": false,
      "t": 27272.70000000003,
      "d": 435.60562500000015,
      "v": 100
    },
    {
      "midi": 71,
      "hit": false,
      "t": 27272.70000000003,
      "d": 435.60562500000015,
      "v": 100
    },
    {
      "midi": 57,
      "hit": false,
      "t": 27727.24500000003,
      "d": 871.2112500000003,
      "v": 100
    },
    {
      "midi": 61,
      "hit": false,
      "t": 27727.24500000003,
      "d": 871.2112500000003,
      "v": 100
    },
    {
      "midi": 64,
      "hit": false,
      "t": 27727.24500000003,
      "d": 871.2112500000003,
      "v": 100
    },
    {
      "midi": 73,
      "hit": false,
      "t": 27727.24500000003,
      "d": 871.2112500000003,
      "v": 100
    },
    {
      "midi": 57,
      "hit": false,
      "t": 28636.335000000032,
      "d": 435.60562500000015,
      "v": 100
    },
    {
      "midi": 61,
      "hit": false,
      "t": 28636.335000000032,
      "d": 435.60562500000015,
      "v": 100
    },
    {
      "midi": 64,
      "hit": false,
      "t": 28636.335000000032,
      "d": 435.60562500000015,
      "v": 100
    },
    {
      "midi": 76,
      "hit": false,
      "t": 28636.335000000032,
      "d": 435.60562500000015,
      "v": 100
    },
    {
      "midi": 79,
      "hit": false,
      "t": 29090.880000000034,
      "d": 435.60562500000015,
      "v": 100
    },
    {
      "midi": 57,
      "hit": false,
      "t": 29090.880000000034,
      "d": 1306.816875000004,
      "v": 100
    },
    {
      "midi": 61,
      "hit": false,
      "t": 29090.880000000034,
      "d": 1306.816875000004,
      "v": 100
    },
    {
      "midi": 64,
      "hit": false,
      "t": 29090.880000000034,
      "d": 1306.816875000004,
      "v": 100
    },
    {
      "midi": 77,
      "hit": false,
      "t": 29545.425000000036,
      "d": 435.60562500000015,
      "v": 100
    },
    {
      "midi": 76,
      "hit": false,
      "t": 29999.970000000038,
      "d": 435.60562500000015,
      "v": 100
    },
    {
      "midi": 57,
      "hit": false,
      "t": 30454.51500000004,
      "d": 435.60562500000015,
      "v": 100
    },
    {
      "midi": 61,
      "hit": false,
      "t": 30454.51500000004,
      "d": 435.60562500000015,
      "v": 100
    },
    {
      "midi": 64,
      "hit": false,
      "t": 30454.51500000004,
      "d": 435.60562500000015,
      "v": 100
    },
    {
      "midi": 81,
      "hit": false,
      "t": 30454.51500000004,
      "d": 435.60562500000015,
      "v": 100
    },
    {
      "midi": 79,
      "hit": false,
      "t": 30909.06000000004,
      "d": 435.60562500000015,
      "v": 100
    },
    {
      "midi": 57,
      "hit": false,
      "t": 30909.06000000004,
      "d": 871.2112500000003,
      "v": 100
    },
    {
      "midi": 61,
      "hit": false,
      "t": 30909.06000000004,
      "d": 871.2112500000003,
      "v": 100
    },
    {
      "midi": 64,
      "hit": false,
      "t": 30909.06000000004,
      "d": 871.2112500000003,
      "v": 100
    },
    {
      "midi": 77,
      "hit": false,
      "t": 31363.605000000043,
      "d": 435.60562500000015,
      "v": 100
    },
    {
      "midi": 57,
      "hit": false,
      "t": 31818.150000000045,
      "d": 435.60562500000015,
      "v": 100
    },
    {
      "midi": 61,
      "hit": false,
      "t": 31818.150000000045,
      "d": 435.60562500000015,
      "v": 100
    },
    {
      "midi": 64,
      "hit": false,
      "t": 31818.150000000045,
      "d": 435.60562500000015,
      "v": 100
    },
    {
      "midi": 76,
      "hit": false,
      "t": 31818.150000000045,
      "d": 435.60562500000015,
      "v": 100
    },
    {
      "midi": 78,
      "hit": false,
      "t": 32272.695000000047,
      "d": 871.2112499999967,
      "v": 100
    },
    {
      "midi": 57,
      "hit": false,
      "t": 32272.695000000047,
      "d": 1306.8168750000004,
      "v": 100
    },
    {
      "midi": 62,
      "hit": false,
      "t": 32272.695000000047,
      "d": 1306.8168750000004,
      "v": 100
    },
    {
      "midi": 66,
      "hit": false,
      "t": 32272.695000000047,
      "d": 1306.8168750000004,
      "v": 100
    },
    {
      "midi": 78,
      "hit": false,
      "t": 33181.78500000005,
      "d": 435.6056250000038,
      "v": 100
    },
    {
      "midi": 57,
      "hit": false,
      "t": 33636.33000000005,
      "d": 435.6056249999965,
      "v": 100
    },
    {
      "midi": 62,
      "hit": false,
      "t": 33636.33000000005,
      "d": 435.6056249999965,
      "v": 100
    },
    {
      "midi": 66,
      "hit": false,
      "t": 33636.33000000005,
      "d": 435.6056249999965,
      "v": 100
    },
    {
      "midi": 76,
      "hit": false,
      "t": 33636.33000000005,
      "d": 435.6056249999965,
      "v": 100
    },
    {
      "midi": 57,
      "hit": false,
      "t": 34090.87500000005,
      "d": 871.2112500000003,
      "v": 100
    },
    {
      "midi": 62,
      "hit": false,
      "t": 34090.87500000005,
      "d": 871.2112500000003,
      "v": 100
    },
    {
      "midi": 66,
      "hit": false,
      "t": 34090.87500000005,
      "d": 871.2112500000003,
      "v": 100
    },
    {
      "midi": 74,
      "hit": false,
      "t": 34090.87500000005,
      "d": 871.2112500000003,
      "v": 100
    },
    {
      "midi": 57,
      "hit": false,
      "t": 34999.965000000055,
      "d": 435.6056249999965,
      "v": 100
    },
    {
      "midi": 62,
      "hit": false,
      "t": 34999.965000000055,
      "d": 435.6056249999965,
      "v": 100
    },
    {
      "midi": 66,
      "hit": false,
      "t": 34999.965000000055,
      "d": 435.6056249999965,
      "v": 100
    },
    {
      "midi": 74,
      "hit": false,
      "t": 34999.965000000055,
      "d": 435.6056249999965,
      "v": 100
    },
    {
      "midi": 71,
      "hit": false,
      "t": 35454.51000000005,
      "d": 435.6056249999965,
      "v": 100
    },
    {
      "midi": 54,
      "hit": false,
      "t": 35454.51000000005,
      "d": 1306.8168749999968,
      "v": 100
    },
    {
      "midi": 57,
      "hit": false,
      "t": 35454.51000000005,
      "d": 1306.8168749999968,
      "v": 100
    },
    {
      "midi": 62,
      "hit": false,
      "t": 35454.51000000005,
      "d": 1306.8168749999968,
      "v": 100
    },
    {
      "midi": 69,
      "hit": false,
      "t": 35909.05500000005,
      "d": 435.6056249999965,
      "v": 100
    },
    {
      "midi": 67,
      "hit": false,
      "t": 36363.60000000005,
      "d": 435.6056250000038,
      "v": 100
    },
    {
      "midi": 54,
      "hit": false,
      "t": 36818.145000000055,
      "d": 435.6056249999965,
      "v": 100
    },
    {
      "midi": 57,
      "hit": false,
      "t": 36818.145000000055,
      "d": 435.6056249999965,
      "v": 100
    },
    {
      "midi": 62,
      "hit": false,
      "t": 36818.145000000055,
      "d": 435.6056249999965,
      "v": 100
    },
    {
      "midi": 66,
      "hit": false,
      "t": 36818.145000000055,
      "d": 435.6056249999965,
      "v": 100
    },
    {
      "midi": 74,
      "hit": false,
      "t": 37272.69000000005,
      "d": 435.6056249999965,
      "v": 100
    },
    {
      "midi": 54,
      "hit": false,
      "t": 37272.69000000005,
      "d": 871.2112500000003,
      "v": 100
    },
    {
      "midi": 57,
      "hit": false,
      "t": 37272.69000000005,
      "d": 871.2112500000003,
      "v": 100
    },
    {
      "midi": 62,
      "hit": false,
      "t": 37272.69000000005,
      "d": 871.2112500000003,
      "v": 100
    },
    {
      "midi": 73,
      "hit": false,
      "t": 37727.23500000005,
      "d": 435.6056250000038,
      "v": 100
    },
    {
      "midi": 54,
      "hit": false,
      "t": 38181.78000000006,
      "d": 435.6056249999965,
      "v": 100
    },
    {
      "midi": 57,
      "hit": false,
      "t": 38181.78000000006,
      "d": 435.6056249999965,
      "v": 100
    },
    {
      "midi": 62,
      "hit": false,
      "t": 38181.78000000006,
      "d": 435.6056249999965,
      "v": 100
    },
    {
      "midi": 72,
      "hit": false,
      "t": 38181.78000000006,
      "d": 435.6056249999965,
      "v": 100
    },
    {
      "midi": 45,
      "hit": false,
      "t": 38636.325000000055,
      "d": 1306.8168749999968,
      "v": 100
    },
    {
      "midi": 64,
      "hit": false,
      "t": 38636.325000000055,
      "d": 1306.8168749999968,
      "v": 100
    },
    {
      "midi": 67,
      "hit": false,
      "t": 38636.325000000055,
      "d": 1306.8168749999968,
      "v": 100
    },
    {
      "midi": 71,
      "hit": false,
      "t": 38636.325000000055,
      "d": 1306.8168749999968,
      "v": 100
    },
    {
      "midi": 74,
      "hit": false,
      "t": 38636.325000000055,
      "d": 1306.8168749999968,
      "v": 100
    },
    {
      "midi": 45,
      "hit": false,
      "t": 39999.96000000005,
      "d": 435.6056249999965,
      "v": 100
    },
    {
      "midi": 64,
      "hit": false,
      "t": 39999.96000000005,
      "d": 435.6056249999965,
      "v": 100
    },
    {
      "midi": 67,
      "hit": false,
      "t": 39999.96000000005,
      "d": 435.6056249999965,
      "v": 100
    },
    {
      "midi": 71,
      "hit": false,
      "t": 39999.96000000005,
      "d": 435.6056249999965,
      "v": 100
    },
    {
      "midi": 74,
      "hit": false,
      "t": 39999.96000000005,
      "d": 435.6056249999965,
      "v": 100
    },
    {
      "midi": 45,
      "hit": false,
      "t": 40454.50500000005,
      "d": 871.2112500000003,
      "v": 100
    },
    {
      "midi": 64,
      "hit": false,
      "t": 40454.50500000005,
      "d": 871.2112500000003,
      "v": 100
    },
    {
      "midi": 67,
      "hit": false,
      "t": 40454.50500000005,
      "d": 871.2112500000003,
      "v": 100
    },
    {
      "midi": 71,
      "hit": false,
      "t": 40454.50500000005,
      "d": 871.2112500000003,
      "v": 100
    },
    {
      "midi": 74,
      "hit": false,
      "t": 40454.50500000005,
      "d": 871.2112500000003,
      "v": 100
    },
    {
      "midi": 45,
      "hit": false,
      "t": 41363.59500000005,
      "d": 435.6056249999965,
      "v": 100
    },
    {
      "midi": 64,
      "hit": false,
      "t": 41363.59500000005,
      "d": 435.6056249999965,
      "v": 100
    },
    {
      "midi": 67,
      "hit": false,
      "t": 41363.59500000005,
      "d": 435.6056249999965,
      "v": 100
    },
    {
      "midi": 71,
      "hit": false,
      "t": 41363.59500000005,
      "d": 435.6056249999965,
      "v": 100
    },
    {
      "midi": 74,
      "hit": false,
      "t": 41363.59500000005,
      "d": 435.6056249999965,
      "v": 100
    },
    {
      "midi": 45,
      "hit": false,
      "t": 41818.14000000005,
      "d": 1306.8168749999968,
      "v": 100
    },
    {
      "midi": 64,
      "hit": false,
      "t": 41818.14000000005,
      "d": 1306.8168749999968,
      "v": 100
    },
    {
      "midi": 67,
      "hit": false,
      "t": 41818.14000000005,
      "d": 1306.8168749999968,
      "v": 100
    },
    {
      "midi": 71,
      "hit": false,
      "t": 41818.14000000005,
      "d": 1306.8168749999968,
      "v": 100
    },
    {
      "midi": 74,
      "hit": false,
      "t": 41818.14000000005,
      "d": 1306.8168749999968,
      "v": 100
    },
    {
      "midi": 45,
      "hit": false,
      "t": 43181.775000000045,
      "d": 435.6056249999965,
      "v": 100
    },
    {
      "midi": 64,
      "hit": false,
      "t": 43181.775000000045,
      "d": 435.6056249999965,
      "v": 100
    },
    {
      "midi": 67,
      "hit": false,
      "t": 43181.775000000045,
      "d": 435.6056249999965,
      "v": 100
    },
    {
      "midi": 71,
      "hit": false,
      "t": 43181.775000000045,
      "d": 435.6056249999965,
      "v": 100
    },
    {
      "midi": 74,
      "hit": false,
      "t": 43181.775000000045,
      "d": 435.6056249999965,
      "v": 100
    },
    {
      "midi": 45,
      "hit": false,
      "t": 43636.32000000004,
      "d": 871.2112500000003,
      "v": 100
    },
    {
      "midi": 64,
      "hit": false,
      "t": 43636.32000000004,
      "d": 871.2112500000003,
      "v": 100
    },
    {
      "midi": 67,
      "hit": false,
      "t": 43636.32000000004,
      "d": 871.2112500000003,
      "v": 100
    },
    {
      "midi": 71,
      "hit": false,
      "t": 43636.32000000004,
      "d": 871.2112500000003,
      "v": 100
    },
    {
      "midi": 74,
      "hit": false,
      "t": 43636.32000000004,
      "d": 871.2112500000003,
      "v": 100
    },
    {
      "midi": 45,
      "hit": false,
      "t": 44545.41000000005,
      "d": 435.6056249999965,
      "v": 100
    },
    {
      "midi": 64,
      "hit": false,
      "t": 44545.41000000005,
      "d": 435.6056249999965,
      "v": 100
    },
    {
      "midi": 67,
      "hit": false,
      "t": 44545.41000000005,
      "d": 435.6056249999965,
      "v": 100
    },
    {
      "midi": 71,
      "hit": false,
      "t": 44545.41000000005,
      "d": 435.6056249999965,
      "v": 100
    },
    {
      "midi": 74,
      "hit": false,
      "t": 44545.41000000005,
      "d": 435.6056249999965,
      "v": 100
    },
    {
      "midi": 50,
      "hit": false,
      "t": 44999.955000000045,
      "d": 1306.8168749999968,
      "v": 100
    },
    {
      "midi": 67,
      "hit": false,
      "t": 44999.955000000045,
      "d": 1306.8168749999968,
      "v": 100
    },
    {
      "midi": 72,
      "hit": false,
      "t": 44999.955000000045,
      "d": 1306.8168749999968,
      "v": 100
    },
    {
      "midi": 76,
      "hit": false,
      "t": 44999.955000000045,
      "d": 1306.8168749999968,
      "v": 100
    },
    {
      "midi": 50,
      "hit": false,
      "t": 46363.59000000004,
      "d": 435.6056249999965,
      "v": 100
    },
    {
      "midi": 67,
      "hit": false,
      "t": 46363.59000000004,
      "d": 435.6056249999965,
      "v": 100
    },
    {
      "midi": 72,
      "hit": false,
      "t": 46363.59000000004,
      "d": 435.6056249999965,
      "v": 100
    },
    {
      "midi": 76,
      "hit": false,
      "t": 46363.59000000004,
      "d": 435.6056249999965,
      "v": 100
    },
    {
      "midi": 50,
      "hit": false,
      "t": 46818.13500000004,
      "d": 871.2112500000003,
      "v": 100
    },
    {
      "midi": 67,
      "hit": false,
      "t": 46818.13500000004,
      "d": 871.2112500000003,
      "v": 100
    },
    {
      "midi": 72,
      "hit": false,
      "t": 46818.13500000004,
      "d": 871.2112500000003,
      "v": 100
    },
    {
      "midi": 76,
      "hit": false,
      "t": 46818.13500000004,
      "d": 871.2112500000003,
      "v": 100
    },
    {
      "midi": 50,
      "hit": false,
      "t": 47727.22500000004,
      "d": 435.6056249999965,
      "v": 100
    },
    {
      "midi": 67,
      "hit": false,
      "t": 47727.22500000004,
      "d": 435.6056249999965,
      "v": 100
    },
    {
      "midi": 72,
      "hit": false,
      "t": 47727.22500000004,
      "d": 435.6056249999965,
      "v": 100
    },
    {
      "midi": 76,
      "hit": false,
      "t": 47727.22500000004,
      "d": 435.6056249999965,
      "v": 100
    },
    {
      "midi": 50,
      "hit": false,
      "t": 48181.77000000004,
      "d": 1306.8168749999968,
      "v": 100
    },
    {
      "midi": 67,
      "hit": false,
      "t": 48181.77000000004,
      "d": 1306.8168749999968,
      "v": 100
    },
    {
      "midi": 72,
      "hit": false,
      "t": 48181.77000000004,
      "d": 1306.8168749999968,
      "v": 100
    },
    {
      "midi": 76,
      "hit": false,
      "t": 48181.77000000004,
      "d": 1306.8168749999968,
      "v": 100
    },
    {
      "midi": 50,
      "hit": false,
      "t": 49545.405000000035,
      "d": 435.6056249999965,
      "v": 100
    },
    {
      "midi": 67,
      "hit": false,
      "t": 49545.405000000035,
      "d": 435.6056249999965,
      "v": 100
    },
    {
      "midi": 72,
      "hit": false,
      "t": 49545.405000000035,
      "d": 435.6056249999965,
      "v": 100
    },
    {
      "midi": 76,
      "hit": false,
      "t": 49545.405000000035,
      "d": 435.6056249999965,
      "v": 100
    },
    {
      "midi": 50,
      "hit": false,
      "t": 49999.95000000003,
      "d": 871.2112500000003,
      "v": 100
    },
    {
      "midi": 67,
      "hit": false,
      "t": 49999.95000000003,
      "d": 871.2112500000003,
      "v": 100
    },
    {
      "midi": 72,
      "hit": false,
      "t": 49999.95000000003,
      "d": 871.2112500000003,
      "v": 100
    },
    {
      "midi": 76,
      "hit": false,
      "t": 49999.95000000003,
      "d": 871.2112500000003,
      "v": 100
    },
    {
      "midi": 50,
      "hit": false,
      "t": 50909.04000000004,
      "d": 435.6056249999965,
      "v": 100
    },
    {
      "midi": 67,
      "hit": false,
      "t": 50909.04000000004,
      "d": 435.6056249999965,
      "v": 100
    },
    {
      "midi": 72,
      "hit": false,
      "t": 50909.04000000004,
      "d": 435.6056249999965,
      "v": 100
    },
    {
      "midi": 76,
      "hit": false,
      "t": 50909.04000000004,
      "d": 435.6056249999965,
      "v": 100
    },
    {
      "midi": 41,
      "hit": false,
      "t": 51363.585000000036,
      "d": 1306.8168749999968,
      "v": 100
    },
    {
      "midi": 69,
      "hit": false,
      "t": 51363.585000000036,
      "d": 1306.8168749999968,
      "v": 100
    },
    {
      "midi": 71,
      "hit": false,
      "t": 51363.585000000036,
      "d": 1306.8168749999968,
      "v": 100
    },
    {
      "midi": 72,
      "hit": false,
      "t": 51363.585000000036,
      "d": 1306.8168749999968,
      "v": 100
    },
    {
      "midi": 76,
      "hit": false,
      "t": 51363.585000000036,
      "d": 1306.8168749999968,
      "v": 100
    },
    {
      "midi": 41,
      "hit": false,
      "t": 52727.22000000003,
      "d": 435.6056249999965,
      "v": 100
    },
    {
      "midi": 69,
      "hit": false,
      "t": 52727.22000000003,
      "d": 435.6056249999965,
      "v": 100
    },
    {
      "midi": 71,
      "hit": false,
      "t": 52727.22000000003,
      "d": 435.6056249999965,
      "v": 100
    },
    {
      "midi": 72,
      "hit": false,
      "t": 52727.22000000003,
      "d": 435.6056249999965,
      "v": 100
    },
    {
      "midi": 76,
      "hit": false,
      "t": 52727.22000000003,
      "d": 435.6056249999965,
      "v": 100
    },
    {
      "midi": 41,
      "hit": false,
      "t": 53181.76500000003,
      "d": 871.2112500000003,
      "v": 100
    },
    {
      "midi": 69,
      "hit": false,
      "t": 53181.76500000003,
      "d": 871.2112500000003,
      "v": 100
    },
    {
      "midi": 71,
      "hit": false,
      "t": 53181.76500000003,
      "d": 871.2112500000003,
      "v": 100
    },
    {
      "midi": 72,
      "hit": false,
      "t": 53181.76500000003,
      "d": 871.2112500000003,
      "v": 100
    },
    {
      "midi": 76,
      "hit": false,
      "t": 53181.76500000003,
      "d": 871.2112500000003,
      "v": 100
    },
    {
      "midi": 41,
      "hit": false,
      "t": 54090.85500000003,
      "d": 435.6056249999965,
      "v": 100
    },
    {
      "midi": 69,
      "hit": false,
      "t": 54090.85500000003,
      "d": 435.6056249999965,
      "v": 100
    },
    {
      "midi": 71,
      "hit": false,
      "t": 54090.85500000003,
      "d": 435.6056249999965,
      "v": 100
    },
    {
      "midi": 72,
      "hit": false,
      "t": 54090.85500000003,
      "d": 435.6056249999965,
      "v": 100
    },
    {
      "midi": 76,
      "hit": false,
      "t": 54090.85500000003,
      "d": 435.6056249999965,
      "v": 100
    },
    {
      "midi": 41,
      "hit": false,
      "t": 54545.40000000003,
      "d": 1306.8168749999968,
      "v": 100
    },
    {
      "midi": 69,
      "hit": false,
      "t": 54545.40000000003,
      "d": 1306.8168749999968,
      "v": 100
    },
    {
      "midi": 71,
      "hit": false,
      "t": 54545.40000000003,
      "d": 1306.8168749999968,
      "v": 100
    },
    {
      "midi": 72,
      "hit": false,
      "t": 54545.40000000003,
      "d": 1306.8168749999968,
      "v": 100
    },
    {
      "midi": 76,
      "hit": false,
      "t": 54545.40000000003,
      "d": 1306.8168749999968,
      "v": 100
    },
    {
      "midi": 41,
      "hit": false,
      "t": 55909.035000000025,
      "d": 435.6056249999965,
      "v": 100
    },
    {
      "midi": 69,
      "hit": false,
      "t": 55909.035000000025,
      "d": 435.6056249999965,
      "v": 100
    },
    {
      "midi": 71,
      "hit": false,
      "t": 55909.035000000025,
      "d": 435.6056249999965,
      "v": 100
    },
    {
      "midi": 72,
      "hit": false,
      "t": 55909.035000000025,
      "d": 435.6056249999965,
      "v": 100
    },
    {
      "midi": 76,
      "hit": false,
      "t": 55909.035000000025,
      "d": 435.6056249999965,
      "v": 100
    },
    {
      "midi": 41,
      "hit": false,
      "t": 56363.58000000002,
      "d": 871.2112500000003,
      "v": 100
    },
    {
      "midi": 69,
      "hit": false,
      "t": 56363.58000000002,
      "d": 871.2112500000003,
      "v": 100
    },
    {
      "midi": 71,
      "hit": false,
      "t": 56363.58000000002,
      "d": 871.2112500000003,
      "v": 100
    },
    {
      "midi": 72,
      "hit": false,
      "t": 56363.58000000002,
      "d": 871.2112500000003,
      "v": 100
    },
    {
      "midi": 76,
      "hit": false,
      "t": 56363.58000000002,
      "d": 871.2112500000003,
      "v": 100
    },
    {
      "midi": 41,
      "hit": false,
      "t": 57272.67000000003,
      "d": 435.6056249999965,
      "v": 100
    },
    {
      "midi": 69,
      "hit": false,
      "t": 57272.67000000003,
      "d": 435.6056249999965,
      "v": 100
    },
    {
      "midi": 71,
      "hit": false,
      "t": 57272.67000000003,
      "d": 435.6056249999965,
      "v": 100
    },
    {
      "midi": 72,
      "hit": false,
      "t": 57272.67000000003,
      "d": 435.6056249999965,
      "v": 100
    },
    {
      "midi": 76,
      "hit": false,
      "t": 57272.67000000003,
      "d": 435.6056249999965,
      "v": 100
    },
    {
      "midi": 41,
      "hit": false,
      "t": 57727.215000000026,
      "d": 1306.8168749999968,
      "v": 100
    },
    {
      "midi": 67,
      "hit": false,
      "t": 57727.215000000026,
      "d": 1306.8168749999968,
      "v": 100
    },
    {
      "midi": 70,
      "hit": false,
      "t": 57727.215000000026,
      "d": 1306.8168749999968,
      "v": 100
    },
    {
      "midi": 75,
      "hit": false,
      "t": 57727.215000000026,
      "d": 1306.8168749999968,
      "v": 100
    },
    {
      "midi": 41,
      "hit": false,
      "t": 59090.85000000002,
      "d": 435.6056249999965,
      "v": 100
    },
    {
      "midi": 67,
      "hit": false,
      "t": 59090.85000000002,
      "d": 435.6056249999965,
      "v": 100
    },
    {
      "midi": 70,
      "hit": false,
      "t": 59090.85000000002,
      "d": 435.6056249999965,
      "v": 100
    },
    {
      "midi": 75,
      "hit": false,
      "t": 59090.85000000002,
      "d": 435.6056249999965,
      "v": 100
    },
    {
      "midi": 41,
      "hit": false,
      "t": 59545.39500000002,
      "d": 871.2112500000003,
      "v": 100
    },
    {
      "midi": 67,
      "hit": false,
      "t": 59545.39500000002,
      "d": 871.2112500000003,
      "v": 100
    },
    {
      "midi": 70,
      "hit": false,
      "t": 59545.39500000002,
      "d": 871.2112500000003,
      "v": 100
    },
    {
      "midi": 75,
      "hit": false,
      "t": 59545.39500000002,
      "d": 871.2112500000003,
      "v": 100
    },
    {
      "midi": 41,
      "hit": false,
      "t": 60454.48500000002,
      "d": 435.6056249999965,
      "v": 100
    },
    {
      "midi": 67,
      "hit": false,
      "t": 60454.48500000002,
      "d": 435.6056249999965,
      "v": 100
    },
    {
      "midi": 70,
      "hit": false,
      "t": 60454.48500000002,
      "d": 435.6056249999965,
      "v": 100
    },
    {
      "midi": 75,
      "hit": false,
      "t": 60454.48500000002,
      "d": 435.6056249999965,
      "v": 100
    },
    {
      "midi": 41,
      "hit": false,
      "t": 60909.03000000002,
      "d": 1306.8168749999968,
      "v": 100
    },
    {
      "midi": 67,
      "hit": false,
      "t": 60909.03000000002,
      "d": 1306.8168749999968,
      "v": 100
    },
    {
      "midi": 70,
      "hit": false,
      "t": 60909.03000000002,
      "d": 1306.8168749999968,
      "v": 100
    },
    {
      "midi": 75,
      "hit": false,
      "t": 60909.03000000002,
      "d": 1306.8168749999968,
      "v": 100
    },
    {
      "midi": 41,
      "hit": false,
      "t": 62272.665000000015,
      "d": 435.6056249999965,
      "v": 100
    },
    {
      "midi": 67,
      "hit": false,
      "t": 62272.665000000015,
      "d": 435.6056249999965,
      "v": 100
    },
    {
      "midi": 70,
      "hit": false,
      "t": 62272.665000000015,
      "d": 435.6056249999965,
      "v": 100
    },
    {
      "midi": 75,
      "hit": false,
      "t": 62272.665000000015,
      "d": 435.6056249999965,
      "v": 100
    },
    {
      "midi": 41,
      "hit": false,
      "t": 62727.210000000014,
      "d": 871.2112500000003,
      "v": 100
    },
    {
      "midi": 67,
      "hit": false,
      "t": 62727.210000000014,
      "d": 871.2112500000003,
      "v": 100
    },
    {
      "midi": 70,
      "hit": false,
      "t": 62727.210000000014,
      "d": 871.2112500000003,
      "v": 100
    },
    {
      "midi": 75,
      "hit": false,
      "t": 62727.210000000014,
      "d": 871.2112500000003,
      "v": 100
    },
    {
      "midi": 41,
      "hit": false,
      "t": 63636.30000000002,
      "d": 435.6056249999965,
      "v": 100
    },
    {
      "midi": 67,
      "hit": false,
      "t": 63636.30000000002,
      "d": 435.6056249999965,
      "v": 100
    },
    {
      "midi": 70,
      "hit": false,
      "t": 63636.30000000002,
      "d": 435.6056249999965,
      "v": 100
    },
    {
      "midi": 75,
      "hit": false,
      "t": 63636.30000000002,
      "d": 435.6056249999965,
      "v": 100
    },
    {
      "midi": 43,
      "hit": false,
      "t": 64090.845000000016,
      "d": 1306.8168749999968,
      "v": 100
    },
    {
      "midi": 69,
      "hit": false,
      "t": 64090.845000000016,
      "d": 1306.8168749999968,
      "v": 100
    },
    {
      "midi": 73,
      "hit": false,
      "t": 64090.845000000016,
      "d": 1306.8168749999968,
      "v": 100
    },
    {
      "midi": 76,
      "hit": false,
      "t": 64090.845000000016,
      "d": 1306.8168749999968,
      "v": 100
    },
    {
      "midi": 43,
      "hit": false,
      "t": 65454.48000000001,
      "d": 435.6056249999965,
      "v": 100
    },
    {
      "midi": 69,
      "hit": false,
      "t": 65454.48000000001,
      "d": 435.6056249999965,
      "v": 100
    },
    {
      "midi": 73,
      "hit": false,
      "t": 65454.48000000001,
      "d": 435.6056249999965,
      "v": 100
    },
    {
      "midi": 76,
      "hit": false,
      "t": 65454.48000000001,
      "d": 435.6056249999965,
      "v": 100
    },
    {
      "midi": 43,
      "hit": false,
      "t": 65909.02500000001,
      "d": 871.211249999993,
      "v": 100
    },
    {
      "midi": 69,
      "hit": false,
      "t": 65909.02500000001,
      "d": 871.211249999993,
      "v": 100
    },
    {
      "midi": 73,
      "hit": false,
      "t": 65909.02500000001,
      "d": 871.211249999993,
      "v": 100
    },
    {
      "midi": 76,
      "hit": false,
      "t": 65909.02500000001,
      "d": 871.211249999993,
      "v": 100
    },
    {
      "midi": 43,
      "hit": false,
      "t": 66818.115,
      "d": 435.6056249999965,
      "v": 100
    },
    {
      "midi": 69,
      "hit": false,
      "t": 66818.115,
      "d": 435.6056249999965,
      "v": 100
    },
    {
      "midi": 73,
      "hit": false,
      "t": 66818.115,
      "d": 435.6056249999965,
      "v": 100
    },
    {
      "midi": 76,
      "hit": false,
      "t": 66818.115,
      "d": 435.6056249999965,
      "v": 100
    },
    {
      "midi": 43,
      "hit": false,
      "t": 67272.66,
      "d": 1306.816875000004,
      "v": 100
    },
    {
      "midi": 69,
      "hit": false,
      "t": 67272.66,
      "d": 1306.816875000004,
      "v": 100
    },
    {
      "midi": 73,
      "hit": false,
      "t": 67272.66,
      "d": 1306.816875000004,
      "v": 100
    },
    {
      "midi": 76,
      "hit": false,
      "t": 67272.66,
      "d": 1306.816875000004,
      "v": 100
    },
    {
      "midi": 43,
      "hit": false,
      "t": 68636.29500000001,
      "d": 435.6056249999965,
      "v": 100
    },
    {
      "midi": 69,
      "hit": false,
      "t": 68636.29500000001,
      "d": 435.6056249999965,
      "v": 100
    },
    {
      "midi": 73,
      "hit": false,
      "t": 68636.29500000001,
      "d": 435.6056249999965,
      "v": 100
    },
    {
      "midi": 76,
      "hit": false,
      "t": 68636.29500000001,
      "d": 435.6056249999965,
      "v": 100
    },
    {
      "midi": 43,
      "hit": false,
      "t": 69090.84000000001,
      "d": 871.211249999993,
      "v": 100
    },
    {
      "midi": 69,
      "hit": false,
      "t": 69090.84000000001,
      "d": 871.211249999993,
      "v": 100
    },
    {
      "midi": 73,
      "hit": false,
      "t": 69090.84000000001,
      "d": 871.211249999993,
      "v": 100
    },
    {
      "midi": 76,
      "hit": false,
      "t": 69090.84000000001,
      "d": 871.211249999993,
      "v": 100
    },
    {
      "midi": 43,
      "hit": false,
      "t": 69999.93000000001,
      "d": 435.6056249999965,
      "v": 100
    },
    {
      "midi": 69,
      "hit": false,
      "t": 69999.93000000001,
      "d": 435.6056249999965,
      "v": 100
    },
    {
      "midi": 73,
      "hit": false,
      "t": 69999.93000000001,
      "d": 435.6056249999965,
      "v": 100
    },
    {
      "midi": 76,
      "hit": false,
      "t": 69999.93000000001,
      "d": 435.6056249999965,
      "v": 100
    },
    {
      "midi": 50,
      "hit": false,
      "t": 70454.475,
      "d": 1306.816875000004,
      "v": 100
    },
    {
      "midi": 66,
      "hit": false,
      "t": 70454.475,
      "d": 1306.816875000004,
      "v": 100
    },
    {
      "midi": 69,
      "hit": false,
      "t": 70454.475,
      "d": 1306.816875000004,
      "v": 100
    },
    {
      "midi": 74,
      "hit": false,
      "t": 70454.475,
      "d": 1306.816875000004,
      "v": 100
    },
    {
      "midi": 50,
      "hit": false,
      "t": 71818.11000000002,
      "d": 435.6056249999965,
      "v": 100
    },
    {
      "midi": 66,
      "hit": false,
      "t": 71818.11000000002,
      "d": 435.6056249999965,
      "v": 100
    },
    {
      "midi": 69,
      "hit": false,
      "t": 71818.11000000002,
      "d": 435.6056249999965,
      "v": 100
    },
    {
      "midi": 74,
      "hit": false,
      "t": 71818.11000000002,
      "d": 435.6056249999965,
      "v": 100
    },
    {
      "midi": 50,
      "hit": false,
      "t": 72272.65500000001,
      "d": 871.211249999993,
      "v": 100
    },
    {
      "midi": 66,
      "hit": false,
      "t": 72272.65500000001,
      "d": 871.211249999993,
      "v": 100
    },
    {
      "midi": 69,
      "hit": false,
      "t": 72272.65500000001,
      "d": 871.211249999993,
      "v": 100
    },
    {
      "midi": 74,
      "hit": false,
      "t": 72272.65500000001,
      "d": 871.211249999993,
      "v": 100
    },
    {
      "midi": 50,
      "hit": false,
      "t": 73181.74500000001,
      "d": 435.6056249999965,
      "v": 100
    },
    {
      "midi": 66,
      "hit": false,
      "t": 73181.74500000001,
      "d": 435.6056249999965,
      "v": 100
    },
    {
      "midi": 69,
      "hit": false,
      "t": 73181.74500000001,
      "d": 435.6056249999965,
      "v": 100
    },
    {
      "midi": 74,
      "hit": false,
      "t": 73181.74500000001,
      "d": 435.6056249999965,
      "v": 100
    },
    {
      "midi": 50,
      "hit": false,
      "t": 73636.29000000001,
      "d": 1306.816875000004,
      "v": 100
    },
    {
      "midi": 66,
      "hit": false,
      "t": 73636.29000000001,
      "d": 1306.816875000004,
      "v": 100
    },
    {
      "midi": 69,
      "hit": false,
      "t": 73636.29000000001,
      "d": 1306.816875000004,
      "v": 100
    },
    {
      "midi": 74,
      "hit": false,
      "t": 73636.29000000001,
      "d": 1306.816875000004,
      "v": 100
    },
    {
      "midi": 50,
      "hit": false,
      "t": 74999.92500000002,
      "d": 435.6056249999965,
      "v": 100
    },
    {
      "midi": 66,
      "hit": false,
      "t": 74999.92500000002,
      "d": 435.6056249999965,
      "v": 100
    },
    {
      "midi": 69,
      "hit": false,
      "t": 74999.92500000002,
      "d": 435.6056249999965,
      "v": 100
    },
    {
      "midi": 74,
      "hit": false,
      "t": 74999.92500000002,
      "d": 435.6056249999965,
      "v": 100
    },
    {
      "midi": 50,
      "hit": false,
      "t": 75454.47000000002,
      "d": 871.211249999993,
      "v": 100
    },
    {
      "midi": 66,
      "hit": false,
      "t": 75454.47000000002,
      "d": 871.211249999993,
      "v": 100
    },
    {
      "midi": 69,
      "hit": false,
      "t": 75454.47000000002,
      "d": 871.211249999993,
      "v": 100
    },
    {
      "midi": 74,
      "hit": false,
      "t": 75454.47000000002,
      "d": 871.211249999993,
      "v": 100
    },
    {
      "midi": 50,
      "hit": false,
      "t": 76363.56000000001,
      "d": 435.6056249999965,
      "v": 100
    },
    {
      "midi": 66,
      "hit": false,
      "t": 76363.56000000001,
      "d": 435.6056249999965,
      "v": 100
    },
    {
      "midi": 69,
      "hit": false,
      "t": 76363.56000000001,
      "d": 435.6056249999965,
      "v": 100
    },
    {
      "midi": 74,
      "hit": false,
      "t": 76363.56000000001,
      "d": 435.6056249999965,
      "v": 100
    },
    {
      "midi": 45,
      "hit": false,
      "t": 76818.10500000001,
      "d": 1306.816875000004,
      "v": 100
    },
    {
      "midi": 64,
      "hit": false,
      "t": 76818.10500000001,
      "d": 1306.816875000004,
      "v": 100
    },
    {
      "midi": 67,
      "hit": false,
      "t": 76818.10500000001,
      "d": 1306.816875000004,
      "v": 100
    },
    {
      "midi": 71,
      "hit": false,
      "t": 76818.10500000001,
      "d": 1306.816875000004,
      "v": 100
    },
    {
      "midi": 74,
      "hit": false,
      "t": 76818.10500000001,
      "d": 1306.816875000004,
      "v": 100
    },
    {
      "midi": 45,
      "hit": false,
      "t": 78181.74000000002,
      "d": 435.6056249999965,
      "v": 100
    },
    {
      "midi": 64,
      "hit": false,
      "t": 78181.74000000002,
      "d": 435.6056249999965,
      "v": 100
    },
    {
      "midi": 67,
      "hit": false,
      "t": 78181.74000000002,
      "d": 435.6056249999965,
      "v": 100
    },
    {
      "midi": 71,
      "hit": false,
      "t": 78181.74000000002,
      "d": 435.6056249999965,
      "v": 100
    },
    {
      "midi": 74,
      "hit": false,
      "t": 78181.74000000002,
      "d": 435.6056249999965,
      "v": 100
    },
    {
      "midi": 45,
      "hit": false,
      "t": 78636.28500000002,
      "d": 871.211249999993,
      "v": 100
    },
    {
      "midi": 64,
      "hit": false,
      "t": 78636.28500000002,
      "d": 871.211249999993,
      "v": 100
    },
    {
      "midi": 67,
      "hit": false,
      "t": 78636.28500000002,
      "d": 871.211249999993,
      "v": 100
    },
    {
      "midi": 71,
      "hit": false,
      "t": 78636.28500000002,
      "d": 871.211249999993,
      "v": 100
    },
    {
      "midi": 74,
      "hit": false,
      "t": 78636.28500000002,
      "d": 871.211249999993,
      "v": 100
    },
    {
      "midi": 45,
      "hit": false,
      "t": 79545.37500000001,
      "d": 435.6056249999965,
      "v": 100
    },
    {
      "midi": 64,
      "hit": false,
      "t": 79545.37500000001,
      "d": 435.6056249999965,
      "v": 100
    },
    {
      "midi": 67,
      "hit": false,
      "t": 79545.37500000001,
      "d": 435.6056249999965,
      "v": 100
    },
    {
      "midi": 71,
      "hit": false,
      "t": 79545.37500000001,
      "d": 435.6056249999965,
      "v": 100
    },
    {
      "midi": 74,
      "hit": false,
      "t": 79545.37500000001,
      "d": 435.6056249999965,
      "v": 100
    },
    {
      "midi": 45,
      "hit": false,
      "t": 79999.92000000001,
      "d": 1306.816875000004,
      "v": 100
    },
    {
      "midi": 64,
      "hit": false,
      "t": 79999.92000000001,
      "d": 1306.816875000004,
      "v": 100
    },
    {
      "midi": 67,
      "hit": false,
      "t": 79999.92000000001,
      "d": 1306.816875000004,
      "v": 100
    },
    {
      "midi": 71,
      "hit": false,
      "t": 79999.92000000001,
      "d": 1306.816875000004,
      "v": 100
    },
    {
      "midi": 74,
      "hit": false,
      "t": 79999.92000000001,
      "d": 1306.816875000004,
      "v": 100
    },
    {
      "midi": 45,
      "hit": false,
      "t": 81363.55500000002,
      "d": 435.6056249999965,
      "v": 100
    },
    {
      "midi": 64,
      "hit": false,
      "t": 81363.55500000002,
      "d": 435.6056249999965,
      "v": 100
    },
    {
      "midi": 67,
      "hit": false,
      "t": 81363.55500000002,
      "d": 435.6056249999965,
      "v": 100
    },
    {
      "midi": 71,
      "hit": false,
      "t": 81363.55500000002,
      "d": 435.6056249999965,
      "v": 100
    },
    {
      "midi": 74,
      "hit": false,
      "t": 81363.55500000002,
      "d": 435.6056249999965,
      "v": 100
    },
    {
      "midi": 45,
      "hit": false,
      "t": 81818.10000000002,
      "d": 871.211249999993,
      "v": 100
    },
    {
      "midi": 64,
      "hit": false,
      "t": 81818.10000000002,
      "d": 871.211249999993,
      "v": 100
    },
    {
      "midi": 67,
      "hit": false,
      "t": 81818.10000000002,
      "d": 871.211249999993,
      "v": 100
    },
    {
      "midi": 71,
      "hit": false,
      "t": 81818.10000000002,
      "d": 871.211249999993,
      "v": 100
    },
    {
      "midi": 74,
      "hit": false,
      "t": 81818.10000000002,
      "d": 871.211249999993,
      "v": 100
    },
    {
      "midi": 45,
      "hit": false,
      "t": 82727.19000000002,
      "d": 435.6056249999965,
      "v": 100
    },
    {
      "midi": 64,
      "hit": false,
      "t": 82727.19000000002,
      "d": 435.6056249999965,
      "v": 100
    },
    {
      "midi": 67,
      "hit": false,
      "t": 82727.19000000002,
      "d": 435.6056249999965,
      "v": 100
    },
    {
      "midi": 71,
      "hit": false,
      "t": 82727.19000000002,
      "d": 435.6056249999965,
      "v": 100
    },
    {
      "midi": 74,
      "hit": false,
      "t": 82727.19000000002,
      "d": 435.6056249999965,
      "v": 100
    },
    {
      "midi": 50,
      "hit": false,
      "t": 83181.73500000002,
      "d": 1306.816875000004,
      "v": 100
    },
    {
      "midi": 67,
      "hit": false,
      "t": 83181.73500000002,
      "d": 1306.816875000004,
      "v": 100
    },
    {
      "midi": 72,
      "hit": false,
      "t": 83181.73500000002,
      "d": 1306.816875000004,
      "v": 100
    },
    {
      "midi": 76,
      "hit": false,
      "t": 83181.73500000002,
      "d": 1306.816875000004,
      "v": 100
    },
    {
      "midi": 50,
      "hit": false,
      "t": 84545.37000000002,
      "d": 435.6056249999965,
      "v": 100
    },
    {
      "midi": 67,
      "hit": false,
      "t": 84545.37000000002,
      "d": 435.6056249999965,
      "v": 100
    },
    {
      "midi": 72,
      "hit": false,
      "t": 84545.37000000002,
      "d": 435.6056249999965,
      "v": 100
    },
    {
      "midi": 76,
      "hit": false,
      "t": 84545.37000000002,
      "d": 435.6056249999965,
      "v": 100
    },
    {
      "midi": 50,
      "hit": false,
      "t": 84999.91500000002,
      "d": 871.211249999993,
      "v": 100
    },
    {
      "midi": 67,
      "hit": false,
      "t": 84999.91500000002,
      "d": 871.211249999993,
      "v": 100
    },
    {
      "midi": 72,
      "hit": false,
      "t": 84999.91500000002,
      "d": 871.211249999993,
      "v": 100
    },
    {
      "midi": 76,
      "hit": false,
      "t": 84999.91500000002,
      "d": 871.211249999993,
      "v": 100
    },
    {
      "midi": 50,
      "hit": false,
      "t": 85909.00500000002,
      "d": 435.6056249999965,
      "v": 100
    },
    {
      "midi": 67,
      "hit": false,
      "t": 85909.00500000002,
      "d": 435.6056249999965,
      "v": 100
    },
    {
      "midi": 72,
      "hit": false,
      "t": 85909.00500000002,
      "d": 435.6056249999965,
      "v": 100
    },
    {
      "midi": 76,
      "hit": false,
      "t": 85909.00500000002,
      "d": 435.6056249999965,
      "v": 100
    },
    {
      "midi": 50,
      "hit": false,
      "t": 86363.55000000002,
      "d": 1306.816875000004,
      "v": 100
    },
    {
      "midi": 67,
      "hit": false,
      "t": 86363.55000000002,
      "d": 1306.816875000004,
      "v": 100
    },
    {
      "midi": 72,
      "hit": false,
      "t": 86363.55000000002,
      "d": 1306.816875000004,
      "v": 100
    },
    {
      "midi": 76,
      "hit": false,
      "t": 86363.55000000002,
      "d": 1306.816875000004,
      "v": 100
    },
    {
      "midi": 50,
      "hit": false,
      "t": 87727.18500000003,
      "d": 435.6056249999965,
      "v": 100
    },
    {
      "midi": 67,
      "hit": false,
      "t": 87727.18500000003,
      "d": 435.6056249999965,
      "v": 100
    },
    {
      "midi": 72,
      "hit": false,
      "t": 87727.18500000003,
      "d": 435.6056249999965,
      "v": 100
    },
    {
      "midi": 76,
      "hit": false,
      "t": 87727.18500000003,
      "d": 435.6056249999965,
      "v": 100
    },
    {
      "midi": 50,
      "hit": false,
      "t": 88181.73000000003,
      "d": 871.211249999993,
      "v": 100
    },
    {
      "midi": 67,
      "hit": false,
      "t": 88181.73000000003,
      "d": 871.211249999993,
      "v": 100
    },
    {
      "midi": 72,
      "hit": false,
      "t": 88181.73000000003,
      "d": 871.211249999993,
      "v": 100
    },
    {
      "midi": 76,
      "hit": false,
      "t": 88181.73000000003,
      "d": 871.211249999993,
      "v": 100
    },
    {
      "midi": 50,
      "hit": false,
      "t": 89090.82000000002,
      "d": 435.6056249999965,
      "v": 100
    },
    {
      "midi": 67,
      "hit": false,
      "t": 89090.82000000002,
      "d": 435.6056249999965,
      "v": 100
    },
    {
      "midi": 72,
      "hit": false,
      "t": 89090.82000000002,
      "d": 435.6056249999965,
      "v": 100
    },
    {
      "midi": 76,
      "hit": false,
      "t": 89090.82000000002,
      "d": 435.6056249999965,
      "v": 100
    },
    {
      "midi": 41,
      "hit": false,
      "t": 89545.36500000002,
      "d": 1306.816875000004,
      "v": 100
    },
    {
      "midi": 69,
      "hit": false,
      "t": 89545.36500000002,
      "d": 1306.816875000004,
      "v": 100
    },
    {
      "midi": 71,
      "hit": false,
      "t": 89545.36500000002,
      "d": 1306.816875000004,
      "v": 100
    },
    {
      "midi": 72,
      "hit": false,
      "t": 89545.36500000002,
      "d": 1306.816875000004,
      "v": 100
    },
    {
      "midi": 76,
      "hit": false,
      "t": 89545.36500000002,
      "d": 1306.816875000004,
      "v": 100
    },
    {
      "midi": 41,
      "hit": false,
      "t": 90909.00000000003,
      "d": 435.6056249999965,
      "v": 100
    },
    {
      "midi": 69,
      "hit": false,
      "t": 90909.00000000003,
      "d": 435.6056249999965,
      "v": 100
    },
    {
      "midi": 71,
      "hit": false,
      "t": 90909.00000000003,
      "d": 435.6056249999965,
      "v": 100
    },
    {
      "midi": 72,
      "hit": false,
      "t": 90909.00000000003,
      "d": 435.6056249999965,
      "v": 100
    },
    {
      "midi": 76,
      "hit": false,
      "t": 90909.00000000003,
      "d": 435.6056249999965,
      "v": 100
    },
    {
      "midi": 41,
      "hit": false,
      "t": 91363.54500000003,
      "d": 871.211249999993,
      "v": 100
    },
    {
      "midi": 69,
      "hit": false,
      "t": 91363.54500000003,
      "d": 871.211249999993,
      "v": 100
    },
    {
      "midi": 71,
      "hit": false,
      "t": 91363.54500000003,
      "d": 871.211249999993,
      "v": 100
    },
    {
      "midi": 72,
      "hit": false,
      "t": 91363.54500000003,
      "d": 871.211249999993,
      "v": 100
    },
    {
      "midi": 76,
      "hit": false,
      "t": 91363.54500000003,
      "d": 871.211249999993,
      "v": 100
    },
    {
      "midi": 41,
      "hit": false,
      "t": 92272.63500000002,
      "d": 435.6056249999965,
      "v": 100
    },
    {
      "midi": 69,
      "hit": false,
      "t": 92272.63500000002,
      "d": 435.6056249999965,
      "v": 100
    },
    {
      "midi": 71,
      "hit": false,
      "t": 92272.63500000002,
      "d": 435.6056249999965,
      "v": 100
    },
    {
      "midi": 72,
      "hit": false,
      "t": 92272.63500000002,
      "d": 435.6056249999965,
      "v": 100
    },
    {
      "midi": 76,
      "hit": false,
      "t": 92272.63500000002,
      "d": 435.6056249999965,
      "v": 100
    },
    {
      "midi": 41,
      "hit": false,
      "t": 92727.18000000002,
      "d": 1306.816875000004,
      "v": 100
    },
    {
      "midi": 69,
      "hit": false,
      "t": 92727.18000000002,
      "d": 1306.816875000004,
      "v": 100
    },
    {
      "midi": 71,
      "hit": false,
      "t": 92727.18000000002,
      "d": 1306.816875000004,
      "v": 100
    },
    {
      "midi": 72,
      "hit": false,
      "t": 92727.18000000002,
      "d": 1306.816875000004,
      "v": 100
    },
    {
      "midi": 76,
      "hit": false,
      "t": 92727.18000000002,
      "d": 1306.816875000004,
      "v": 100
    },
    {
      "midi": 41,
      "hit": false,
      "t": 94090.81500000003,
      "d": 435.6056249999965,
      "v": 100
    },
    {
      "midi": 69,
      "hit": false,
      "t": 94090.81500000003,
      "d": 435.6056249999965,
      "v": 100
    },
    {
      "midi": 71,
      "hit": false,
      "t": 94090.81500000003,
      "d": 435.6056249999965,
      "v": 100
    },
    {
      "midi": 72,
      "hit": false,
      "t": 94090.81500000003,
      "d": 435.6056249999965,
      "v": 100
    },
    {
      "midi": 76,
      "hit": false,
      "t": 94090.81500000003,
      "d": 435.6056249999965,
      "v": 100
    },
    {
      "midi": 41,
      "hit": false,
      "t": 94545.36000000003,
      "d": 871.211249999993,
      "v": 100
    },
    {
      "midi": 69,
      "hit": false,
      "t": 94545.36000000003,
      "d": 871.211249999993,
      "v": 100
    },
    {
      "midi": 71,
      "hit": false,
      "t": 94545.36000000003,
      "d": 871.211249999993,
      "v": 100
    },
    {
      "midi": 72,
      "hit": false,
      "t": 94545.36000000003,
      "d": 871.211249999993,
      "v": 100
    },
    {
      "midi": 76,
      "hit": false,
      "t": 94545.36000000003,
      "d": 871.211249999993,
      "v": 100
    },
    {
      "midi": 41,
      "hit": false,
      "t": 95454.45000000003,
      "d": 435.6056249999965,
      "v": 100
    },
    {
      "midi": 69,
      "hit": false,
      "t": 95454.45000000003,
      "d": 435.6056249999965,
      "v": 100
    },
    {
      "midi": 71,
      "hit": false,
      "t": 95454.45000000003,
      "d": 435.6056249999965,
      "v": 100
    },
    {
      "midi": 72,
      "hit": false,
      "t": 95454.45000000003,
      "d": 435.6056249999965,
      "v": 100
    },
    {
      "midi": 76,
      "hit": false,
      "t": 95454.45000000003,
      "d": 435.6056249999965,
      "v": 100
    },
    {
      "midi": 41,
      "hit": false,
      "t": 95908.99500000002,
      "d": 1306.816875000004,
      "v": 100
    },
    {
      "midi": 67,
      "hit": false,
      "t": 95908.99500000002,
      "d": 1306.816875000004,
      "v": 100
    },
    {
      "midi": 70,
      "hit": false,
      "t": 95908.99500000002,
      "d": 1306.816875000004,
      "v": 100
    },
    {
      "midi": 75,
      "hit": false,
      "t": 95908.99500000002,
      "d": 1306.816875000004,
      "v": 100
    },
    {
      "midi": 41,
      "hit": false,
      "t": 97272.63000000003,
      "d": 435.6056249999965,
      "v": 100
    },
    {
      "midi": 67,
      "hit": false,
      "t": 97272.63000000003,
      "d": 435.6056249999965,
      "v": 100
    },
    {
      "midi": 70,
      "hit": false,
      "t": 97272.63000000003,
      "d": 435.6056249999965,
      "v": 100
    },
    {
      "midi": 75,
      "hit": false,
      "t": 97272.63000000003,
      "d": 435.6056249999965,
      "v": 100
    },
    {
      "midi": 41,
      "hit": false,
      "t": 97727.17500000003,
      "d": 871.211249999993,
      "v": 100
    },
    {
      "midi": 67,
      "hit": false,
      "t": 97727.17500000003,
      "d": 871.211249999993,
      "v": 100
    },
    {
      "midi": 70,
      "hit": false,
      "t": 97727.17500000003,
      "d": 871.211249999993,
      "v": 100
    },
    {
      "midi": 75,
      "hit": false,
      "t": 97727.17500000003,
      "d": 871.211249999993,
      "v": 100
    },
    {
      "midi": 41,
      "hit": false,
      "t": 98636.26500000003,
      "d": 435.6056249999965,
      "v": 100
    },
    {
      "midi": 67,
      "hit": false,
      "t": 98636.26500000003,
      "d": 435.6056249999965,
      "v": 100
    },
    {
      "midi": 70,
      "hit": false,
      "t": 98636.26500000003,
      "d": 435.6056249999965,
      "v": 100
    },
    {
      "midi": 75,
      "hit": false,
      "t": 98636.26500000003,
      "d": 435.6056249999965,
      "v": 100
    },
    {
      "midi": 41,
      "hit": false,
      "t": 99090.81000000003,
      "d": 1306.816875000004,
      "v": 100
    },
    {
      "midi": 67,
      "hit": false,
      "t": 99090.81000000003,
      "d": 1306.816875000004,
      "v": 100
    },
    {
      "midi": 70,
      "hit": false,
      "t": 99090.81000000003,
      "d": 1306.816875000004,
      "v": 100
    },
    {
      "midi": 75,
      "hit": false,
      "t": 99090.81000000003,
      "d": 1306.816875000004,
      "v": 100
    },
    {
      "midi": 41,
      "hit": false,
      "t": 100454.44500000004,
      "d": 435.6056249999965,
      "v": 100
    },
    {
      "midi": 67,
      "hit": false,
      "t": 100454.44500000004,
      "d": 435.6056249999965,
      "v": 100
    },
    {
      "midi": 70,
      "hit": false,
      "t": 100454.44500000004,
      "d": 435.6056249999965,
      "v": 100
    },
    {
      "midi": 75,
      "hit": false,
      "t": 100454.44500000004,
      "d": 435.6056249999965,
      "v": 100
    },
    {
      "midi": 41,
      "hit": false,
      "t": 100908.99000000003,
      "d": 871.211249999993,
      "v": 100
    },
    {
      "midi": 67,
      "hit": false,
      "t": 100908.99000000003,
      "d": 871.211249999993,
      "v": 100
    },
    {
      "midi": 70,
      "hit": false,
      "t": 100908.99000000003,
      "d": 871.211249999993,
      "v": 100
    },
    {
      "midi": 75,
      "hit": false,
      "t": 100908.99000000003,
      "d": 871.211249999993,
      "v": 100
    },
    {
      "midi": 41,
      "hit": false,
      "t": 101818.08000000003,
      "d": 435.6056249999965,
      "v": 100
    },
    {
      "midi": 67,
      "hit": false,
      "t": 101818.08000000003,
      "d": 435.6056249999965,
      "v": 100
    },
    {
      "midi": 70,
      "hit": false,
      "t": 101818.08000000003,
      "d": 435.6056249999965,
      "v": 100
    },
    {
      "midi": 75,
      "hit": false,
      "t": 101818.08000000003,
      "d": 435.6056249999965,
      "v": 100
    },
    {
      "midi": 43,
      "hit": false,
      "t": 102272.62500000003,
      "d": 1306.816875000004,
      "v": 100
    },
    {
      "midi": 69,
      "hit": false,
      "t": 102272.62500000003,
      "d": 1306.816875000004,
      "v": 100
    },
    {
      "midi": 73,
      "hit": false,
      "t": 102272.62500000003,
      "d": 1306.816875000004,
      "v": 100
    },
    {
      "midi": 76,
      "hit": false,
      "t": 102272.62500000003,
      "d": 1306.816875000004,
      "v": 100
    },
    {
      "midi": 43,
      "hit": false,
      "t": 103636.26000000004,
      "d": 435.6056249999965,
      "v": 100
    },
    {
      "midi": 69,
      "hit": false,
      "t": 103636.26000000004,
      "d": 435.6056249999965,
      "v": 100
    },
    {
      "midi": 73,
      "hit": false,
      "t": 103636.26000000004,
      "d": 435.6056249999965,
      "v": 100
    },
    {
      "midi": 76,
      "hit": false,
      "t": 103636.26000000004,
      "d": 435.6056249999965,
      "v": 100
    },
    {
      "midi": 43,
      "hit": false,
      "t": 104090.80500000004,
      "d": 871.211249999993,
      "v": 100
    },
    {
      "midi": 69,
      "hit": false,
      "t": 104090.80500000004,
      "d": 871.211249999993,
      "v": 100
    },
    {
      "midi": 73,
      "hit": false,
      "t": 104090.80500000004,
      "d": 871.211249999993,
      "v": 100
    },
    {
      "midi": 76,
      "hit": false,
      "t": 104090.80500000004,
      "d": 871.211249999993,
      "v": 100
    },
    {
      "midi": 43,
      "hit": false,
      "t": 104999.89500000003,
      "d": 435.6056249999965,
      "v": 100
    },
    {
      "midi": 69,
      "hit": false,
      "t": 104999.89500000003,
      "d": 435.6056249999965,
      "v": 100
    },
    {
      "midi": 73,
      "hit": false,
      "t": 104999.89500000003,
      "d": 435.6056249999965,
      "v": 100
    },
    {
      "midi": 76,
      "hit": false,
      "t": 104999.89500000003,
      "d": 435.6056249999965,
      "v": 100
    },
    {
      "midi": 43,
      "hit": false,
      "t": 105454.44000000003,
      "d": 1306.816875000004,
      "v": 100
    },
    {
      "midi": 69,
      "hit": false,
      "t": 105454.44000000003,
      "d": 1306.816875000004,
      "v": 100
    },
    {
      "midi": 73,
      "hit": false,
      "t": 105454.44000000003,
      "d": 1306.816875000004,
      "v": 100
    },
    {
      "midi": 76,
      "hit": false,
      "t": 105454.44000000003,
      "d": 1306.816875000004,
      "v": 100
    },
    {
      "midi": 43,
      "hit": false,
      "t": 106818.07500000004,
      "d": 435.6056249999965,
      "v": 100
    },
    {
      "midi": 69,
      "hit": false,
      "t": 106818.07500000004,
      "d": 435.6056249999965,
      "v": 100
    },
    {
      "midi": 73,
      "hit": false,
      "t": 106818.07500000004,
      "d": 435.6056249999965,
      "v": 100
    },
    {
      "midi": 76,
      "hit": false,
      "t": 106818.07500000004,
      "d": 435.6056249999965,
      "v": 100
    },
    {
      "midi": 43,
      "hit": false,
      "t": 107272.62000000004,
      "d": 871.211249999993,
      "v": 100
    },
    {
      "midi": 69,
      "hit": false,
      "t": 107272.62000000004,
      "d": 871.211249999993,
      "v": 100
    },
    {
      "midi": 73,
      "hit": false,
      "t": 107272.62000000004,
      "d": 871.211249999993,
      "v": 100
    },
    {
      "midi": 76,
      "hit": false,
      "t": 107272.62000000004,
      "d": 871.211249999993,
      "v": 100
    },
    {
      "midi": 43,
      "hit": false,
      "t": 108181.71000000004,
      "d": 435.6056249999965,
      "v": 100
    },
    {
      "midi": 69,
      "hit": false,
      "t": 108181.71000000004,
      "d": 435.6056249999965,
      "v": 100
    },
    {
      "midi": 73,
      "hit": false,
      "t": 108181.71000000004,
      "d": 435.6056249999965,
      "v": 100
    },
    {
      "midi": 76,
      "hit": false,
      "t": 108181.71000000004,
      "d": 435.6056249999965,
      "v": 100
    },
    {
      "midi": 50,
      "hit": false,
      "t": 108636.25500000003,
      "d": 1306.816875000004,
      "v": 100
    },
    {
      "midi": 66,
      "hit": false,
      "t": 108636.25500000003,
      "d": 1306.816875000004,
      "v": 100
    },
    {
      "midi": 69,
      "hit": false,
      "t": 108636.25500000003,
      "d": 1306.816875000004,
      "v": 100
    },
    {
      "midi": 74,
      "hit": false,
      "t": 108636.25500000003,
      "d": 1306.816875000004,
      "v": 100
    },
    {
      "midi": 50,
      "hit": false,
      "t": 109999.89000000004,
      "d": 435.6056249999965,
      "v": 100
    },
    {
      "midi": 66,
      "hit": false,
      "t": 109999.89000000004,
      "d": 435.6056249999965,
      "v": 100
    },
    {
      "midi": 69,
      "hit": false,
      "t": 109999.89000000004,
      "d": 435.6056249999965,
      "v": 100
    },
    {
      "midi": 74,
      "hit": false,
      "t": 109999.89000000004,
      "d": 435.6056249999965,
      "v": 100
    },
    {
      "midi": 50,
      "hit": false,
      "t": 110454.43500000004,
      "d": 871.211249999993,
      "v": 100
    },
    {
      "midi": 66,
      "hit": false,
      "t": 110454.43500000004,
      "d": 871.211249999993,
      "v": 100
    },
    {
      "midi": 69,
      "hit": false,
      "t": 110454.43500000004,
      "d": 871.211249999993,
      "v": 100
    },
    {
      "midi": 74,
      "hit": false,
      "t": 110454.43500000004,
      "d": 871.211249999993,
      "v": 100
    },
    {
      "midi": 50,
      "hit": false,
      "t": 111363.52500000004,
      "d": 435.6056249999965,
      "v": 100
    },
    {
      "midi": 66,
      "hit": false,
      "t": 111363.52500000004,
      "d": 435.6056249999965,
      "v": 100
    },
    {
      "midi": 69,
      "hit": false,
      "t": 111363.52500000004,
      "d": 435.6056249999965,
      "v": 100
    },
    {
      "midi": 74,
      "hit": false,
      "t": 111363.52500000004,
      "d": 435.6056249999965,
      "v": 100
    },
    {
      "midi": 50,
      "hit": false,
      "t": 111818.07000000004,
      "d": 1306.816875000004,
      "v": 100
    },
    {
      "midi": 66,
      "hit": false,
      "t": 111818.07000000004,
      "d": 1306.816875000004,
      "v": 100
    },
    {
      "midi": 69,
      "hit": false,
      "t": 111818.07000000004,
      "d": 1306.816875000004,
      "v": 100
    },
    {
      "midi": 74,
      "hit": false,
      "t": 111818.07000000004,
      "d": 1306.816875000004,
      "v": 100
    },
    {
      "midi": 50,
      "hit": false,
      "t": 113181.70500000005,
      "d": 435.6056249999965,
      "v": 100
    },
    {
      "midi": 66,
      "hit": false,
      "t": 113181.70500000005,
      "d": 435.6056249999965,
      "v": 100
    },
    {
      "midi": 69,
      "hit": false,
      "t": 113181.70500000005,
      "d": 435.6056249999965,
      "v": 100
    },
    {
      "midi": 74,
      "hit": false,
      "t": 113181.70500000005,
      "d": 435.6056249999965,
      "v": 100
    },
    {
      "midi": 50,
      "hit": false,
      "t": 113636.25000000004,
      "d": 871.211249999993,
      "v": 100
    },
    {
      "midi": 66,
      "hit": false,
      "t": 113636.25000000004,
      "d": 871.211249999993,
      "v": 100
    },
    {
      "midi": 69,
      "hit": false,
      "t": 113636.25000000004,
      "d": 871.211249999993,
      "v": 100
    },
    {
      "midi": 74,
      "hit": false,
      "t": 113636.25000000004,
      "d": 871.211249999993,
      "v": 100
    },
    {
      "midi": 50,
      "hit": false,
      "t": 114545.34000000004,
      "d": 435.6056249999965,
      "v": 100
    },
    {
      "midi": 66,
      "hit": false,
      "t": 114545.34000000004,
      "d": 435.6056249999965,
      "v": 100
    },
    {
      "midi": 69,
      "hit": false,
      "t": 114545.34000000004,
      "d": 435.6056249999965,
      "v": 100
    },
    {
      "midi": 74,
      "hit": false,
      "t": 114545.34000000004,
      "d": 435.6056249999965,
      "v": 100
    },
    {
      "midi": 45,
      "hit": false,
      "t": 114999.88500000004,
      "d": 1306.816875000004,
      "v": 100
    },
    {
      "midi": 64,
      "hit": false,
      "t": 114999.88500000004,
      "d": 1306.816875000004,
      "v": 100
    },
    {
      "midi": 67,
      "hit": false,
      "t": 114999.88500000004,
      "d": 1306.816875000004,
      "v": 100
    },
    {
      "midi": 71,
      "hit": false,
      "t": 114999.88500000004,
      "d": 1306.816875000004,
      "v": 100
    },
    {
      "midi": 74,
      "hit": false,
      "t": 114999.88500000004,
      "d": 1306.816875000004,
      "v": 100
    },
    {
      "midi": 45,
      "hit": false,
      "t": 116363.52000000005,
      "d": 435.6056249999965,
      "v": 100
    },
    {
      "midi": 64,
      "hit": false,
      "t": 116363.52000000005,
      "d": 435.6056249999965,
      "v": 100
    },
    {
      "midi": 67,
      "hit": false,
      "t": 116363.52000000005,
      "d": 435.6056249999965,
      "v": 100
    },
    {
      "midi": 71,
      "hit": false,
      "t": 116363.52000000005,
      "d": 435.6056249999965,
      "v": 100
    },
    {
      "midi": 74,
      "hit": false,
      "t": 116363.52000000005,
      "d": 435.6056249999965,
      "v": 100
    },
    {
      "midi": 45,
      "hit": false,
      "t": 116818.06500000005,
      "d": 871.211249999993,
      "v": 100
    },
    {
      "midi": 64,
      "hit": false,
      "t": 116818.06500000005,
      "d": 871.211249999993,
      "v": 100
    },
    {
      "midi": 67,
      "hit": false,
      "t": 116818.06500000005,
      "d": 871.211249999993,
      "v": 100
    },
    {
      "midi": 71,
      "hit": false,
      "t": 116818.06500000005,
      "d": 871.211249999993,
      "v": 100
    },
    {
      "midi": 74,
      "hit": false,
      "t": 116818.06500000005,
      "d": 871.211249999993,
      "v": 100
    },
    {
      "midi": 45,
      "hit": false,
      "t": 117727.15500000004,
      "d": 435.6056249999965,
      "v": 100
    },
    {
      "midi": 64,
      "hit": false,
      "t": 117727.15500000004,
      "d": 435.6056249999965,
      "v": 100
    },
    {
      "midi": 67,
      "hit": false,
      "t": 117727.15500000004,
      "d": 435.6056249999965,
      "v": 100
    },
    {
      "midi": 71,
      "hit": false,
      "t": 117727.15500000004,
      "d": 435.6056249999965,
      "v": 100
    },
    {
      "midi": 74,
      "hit": false,
      "t": 117727.15500000004,
      "d": 435.6056249999965,
      "v": 100
    },
    {
      "midi": 45,
      "hit": false,
      "t": 118181.70000000004,
      "d": 1306.816875000004,
      "v": 100
    },
    {
      "midi": 64,
      "hit": false,
      "t": 118181.70000000004,
      "d": 1306.816875000004,
      "v": 100
    },
    {
      "midi": 67,
      "hit": false,
      "t": 118181.70000000004,
      "d": 1306.816875000004,
      "v": 100
    },
    {
      "midi": 71,
      "hit": false,
      "t": 118181.70000000004,
      "d": 1306.816875000004,
      "v": 100
    },
    {
      "midi": 74,
      "hit": false,
      "t": 118181.70000000004,
      "d": 1306.816875000004,
      "v": 100
    },
    {
      "midi": 45,
      "hit": false,
      "t": 119545.33500000005,
      "d": 435.6056249999965,
      "v": 100
    },
    {
      "midi": 64,
      "hit": false,
      "t": 119545.33500000005,
      "d": 435.6056249999965,
      "v": 100
    },
    {
      "midi": 67,
      "hit": false,
      "t": 119545.33500000005,
      "d": 435.6056249999965,
      "v": 100
    },
    {
      "midi": 71,
      "hit": false,
      "t": 119545.33500000005,
      "d": 435.6056249999965,
      "v": 100
    },
    {
      "midi": 74,
      "hit": false,
      "t": 119545.33500000005,
      "d": 435.6056249999965,
      "v": 100
    },
    {
      "midi": 45,
      "hit": false,
      "t": 119999.88000000005,
      "d": 871.211249999993,
      "v": 100
    },
    {
      "midi": 64,
      "hit": false,
      "t": 119999.88000000005,
      "d": 871.211249999993,
      "v": 100
    },
    {
      "midi": 67,
      "hit": false,
      "t": 119999.88000000005,
      "d": 871.211249999993,
      "v": 100
    },
    {
      "midi": 71,
      "hit": false,
      "t": 119999.88000000005,
      "d": 871.211249999993,
      "v": 100
    },
    {
      "midi": 74,
      "hit": false,
      "t": 119999.88000000005,
      "d": 871.211249999993,
      "v": 100
    },
    {
      "midi": 45,
      "hit": false,
      "t": 120908.97000000004,
      "d": 435.6056249999965,
      "v": 100
    },
    {
      "midi": 64,
      "hit": false,
      "t": 120908.97000000004,
      "d": 435.6056249999965,
      "v": 100
    },
    {
      "midi": 67,
      "hit": false,
      "t": 120908.97000000004,
      "d": 435.6056249999965,
      "v": 100
    },
    {
      "midi": 71,
      "hit": false,
      "t": 120908.97000000004,
      "d": 435.6056249999965,
      "v": 100
    },
    {
      "midi": 74,
      "hit": false,
      "t": 120908.97000000004,
      "d": 435.6056249999965,
      "v": 100
    },
    {
      "midi": 50,
      "hit": false,
      "t": 121363.51500000004,
      "d": 1306.816875000004,
      "v": 100
    },
    {
      "midi": 67,
      "hit": false,
      "t": 121363.51500000004,
      "d": 1306.816875000004,
      "v": 100
    },
    {
      "midi": 72,
      "hit": false,
      "t": 121363.51500000004,
      "d": 1306.816875000004,
      "v": 100
    },
    {
      "midi": 76,
      "hit": false,
      "t": 121363.51500000004,
      "d": 1306.816875000004,
      "v": 100
    },
    {
      "midi": 50,
      "hit": false,
      "t": 122727.15000000005,
      "d": 435.6056249999965,
      "v": 100
    },
    {
      "midi": 67,
      "hit": false,
      "t": 122727.15000000005,
      "d": 435.6056249999965,
      "v": 100
    },
    {
      "midi": 72,
      "hit": false,
      "t": 122727.15000000005,
      "d": 435.6056249999965,
      "v": 100
    },
    {
      "midi": 76,
      "hit": false,
      "t": 122727.15000000005,
      "d": 435.6056249999965,
      "v": 100
    },
    {
      "midi": 50,
      "hit": false,
      "t": 123181.69500000005,
      "d": 871.211249999993,
      "v": 100
    },
    {
      "midi": 67,
      "hit": false,
      "t": 123181.69500000005,
      "d": 871.211249999993,
      "v": 100
    },
    {
      "midi": 72,
      "hit": false,
      "t": 123181.69500000005,
      "d": 871.211249999993,
      "v": 100
    },
    {
      "midi": 76,
      "hit": false,
      "t": 123181.69500000005,
      "d": 871.211249999993,
      "v": 100
    },
    {
      "midi": 50,
      "hit": false,
      "t": 124090.78500000005,
      "d": 435.6056249999965,
      "v": 100
    },
    {
      "midi": 67,
      "hit": false,
      "t": 124090.78500000005,
      "d": 435.6056249999965,
      "v": 100
    },
    {
      "midi": 72,
      "hit": false,
      "t": 124090.78500000005,
      "d": 435.6056249999965,
      "v": 100
    },
    {
      "midi": 76,
      "hit": false,
      "t": 124090.78500000005,
      "d": 435.6056249999965,
      "v": 100
    },
    {
      "midi": 50,
      "hit": false,
      "t": 124545.33000000005,
      "d": 1306.816875000004,
      "v": 100
    },
    {
      "midi": 67,
      "hit": false,
      "t": 124545.33000000005,
      "d": 1306.816875000004,
      "v": 100
    },
    {
      "midi": 72,
      "hit": false,
      "t": 124545.33000000005,
      "d": 1306.816875000004,
      "v": 100
    },
    {
      "midi": 76,
      "hit": false,
      "t": 124545.33000000005,
      "d": 1306.816875000004,
      "v": 100
    },
    {
      "midi": 50,
      "hit": false,
      "t": 125908.96500000005,
      "d": 435.6056249999965,
      "v": 100
    },
    {
      "midi": 67,
      "hit": false,
      "t": 125908.96500000005,
      "d": 435.6056249999965,
      "v": 100
    },
    {
      "midi": 72,
      "hit": false,
      "t": 125908.96500000005,
      "d": 435.6056249999965,
      "v": 100
    },
    {
      "midi": 76,
      "hit": false,
      "t": 125908.96500000005,
      "d": 435.6056249999965,
      "v": 100
    },
    {
      "midi": 50,
      "hit": false,
      "t": 126363.51000000005,
      "d": 871.211249999993,
      "v": 100
    },
    {
      "midi": 67,
      "hit": false,
      "t": 126363.51000000005,
      "d": 871.211249999993,
      "v": 100
    },
    {
      "midi": 72,
      "hit": false,
      "t": 126363.51000000005,
      "d": 871.211249999993,
      "v": 100
    },
    {
      "midi": 76,
      "hit": false,
      "t": 126363.51000000005,
      "d": 871.211249999993,
      "v": 100
    },
    {
      "midi": 50,
      "hit": false,
      "t": 127272.60000000005,
      "d": 435.6056249999965,
      "v": 100
    },
    {
      "midi": 67,
      "hit": false,
      "t": 127272.60000000005,
      "d": 435.6056249999965,
      "v": 100
    },
    {
      "midi": 72,
      "hit": false,
      "t": 127272.60000000005,
      "d": 435.6056249999965,
      "v": 100
    },
    {
      "midi": 76,
      "hit": false,
      "t": 127272.60000000005,
      "d": 435.6056249999965,
      "v": 100
    },
    {
      "midi": 41,
      "hit": false,
      "t": 127727.14500000005,
      "d": 1306.816875000004,
      "v": 100
    },
    {
      "midi": 69,
      "hit": false,
      "t": 127727.14500000005,
      "d": 1306.816875000004,
      "v": 100
    },
    {
      "midi": 71,
      "hit": false,
      "t": 127727.14500000005,
      "d": 1306.816875000004,
      "v": 100
    },
    {
      "midi": 72,
      "hit": false,
      "t": 127727.14500000005,
      "d": 1306.816875000004,
      "v": 100
    },
    {
      "midi": 76,
      "hit": false,
      "t": 127727.14500000005,
      "d": 1306.816875000004,
      "v": 100
    },
    {
      "midi": 41,
      "hit": false,
      "t": 129090.78000000006,
      "d": 435.6056249999965,
      "v": 100
    },
    {
      "midi": 69,
      "hit": false,
      "t": 129090.78000000006,
      "d": 435.6056249999965,
      "v": 100
    },
    {
      "midi": 71,
      "hit": false,
      "t": 129090.78000000006,
      "d": 435.6056249999965,
      "v": 100
    },
    {
      "midi": 72,
      "hit": false,
      "t": 129090.78000000006,
      "d": 435.6056249999965,
      "v": 100
    },
    {
      "midi": 76,
      "hit": false,
      "t": 129090.78000000006,
      "d": 435.6056249999965,
      "v": 100
    },
    {
      "midi": 41,
      "hit": false,
      "t": 129545.32500000006,
      "d": 871.211249999993,
      "v": 100
    },
    {
      "midi": 69,
      "hit": false,
      "t": 129545.32500000006,
      "d": 871.211249999993,
      "v": 100
    },
    {
      "midi": 71,
      "hit": false,
      "t": 129545.32500000006,
      "d": 871.211249999993,
      "v": 100
    },
    {
      "midi": 72,
      "hit": false,
      "t": 129545.32500000006,
      "d": 871.211249999993,
      "v": 100
    },
    {
      "midi": 76,
      "hit": false,
      "t": 129545.32500000006,
      "d": 871.211249999993,
      "v": 100
    },
    {
      "midi": 41,
      "hit": false,
      "t": 130454.41500000005,
      "d": 435.6056249999965,
      "v": 100
    },
    {
      "midi": 69,
      "hit": false,
      "t": 130454.41500000005,
      "d": 435.6056249999965,
      "v": 100
    },
    {
      "midi": 71,
      "hit": false,
      "t": 130454.41500000005,
      "d": 435.6056249999965,
      "v": 100
    },
    {
      "midi": 72,
      "hit": false,
      "t": 130454.41500000005,
      "d": 435.6056249999965,
      "v": 100
    },
    {
      "midi": 76,
      "hit": false,
      "t": 130454.41500000005,
      "d": 435.6056249999965,
      "v": 100
    },
    {
      "midi": 41,
      "hit": false,
      "t": 130908.96000000005,
      "d": 1306.8168749999895,
      "v": 100
    },
    {
      "midi": 69,
      "hit": false,
      "t": 130908.96000000005,
      "d": 1306.8168749999895,
      "v": 100
    },
    {
      "midi": 71,
      "hit": false,
      "t": 130908.96000000005,
      "d": 1306.8168749999895,
      "v": 100
    },
    {
      "midi": 72,
      "hit": false,
      "t": 130908.96000000005,
      "d": 1306.8168749999895,
      "v": 100
    },
    {
      "midi": 76,
      "hit": false,
      "t": 130908.96000000005,
      "d": 1306.8168749999895,
      "v": 100
    },
    {
      "midi": 41,
      "hit": false,
      "t": 132272.59500000003,
      "d": 435.6056249999965,
      "v": 100
    },
    {
      "midi": 69,
      "hit": false,
      "t": 132272.59500000003,
      "d": 435.6056249999965,
      "v": 100
    },
    {
      "midi": 71,
      "hit": false,
      "t": 132272.59500000003,
      "d": 435.6056249999965,
      "v": 100
    },
    {
      "midi": 72,
      "hit": false,
      "t": 132272.59500000003,
      "d": 435.6056249999965,
      "v": 100
    },
    {
      "midi": 76,
      "hit": false,
      "t": 132272.59500000003,
      "d": 435.6056249999965,
      "v": 100
    },
    {
      "midi": 41,
      "hit": false,
      "t": 132727.14,
      "d": 871.211249999993,
      "v": 100
    },
    {
      "midi": 69,
      "hit": false,
      "t": 132727.14,
      "d": 871.211249999993,
      "v": 100
    },
    {
      "midi": 71,
      "hit": false,
      "t": 132727.14,
      "d": 871.211249999993,
      "v": 100
    },
    {
      "midi": 72,
      "hit": false,
      "t": 132727.14,
      "d": 871.211249999993,
      "v": 100
    },
    {
      "midi": 76,
      "hit": false,
      "t": 132727.14,
      "d": 871.211249999993,
      "v": 100
    },
    {
      "midi": 41,
      "hit": false,
      "t": 133636.23,
      "d": 435.6056249999965,
      "v": 100
    },
    {
      "midi": 69,
      "hit": false,
      "t": 133636.23,
      "d": 435.6056249999965,
      "v": 100
    },
    {
      "midi": 71,
      "hit": false,
      "t": 133636.23,
      "d": 435.6056249999965,
      "v": 100
    },
    {
      "midi": 72,
      "hit": false,
      "t": 133636.23,
      "d": 435.6056249999965,
      "v": 100
    },
    {
      "midi": 76,
      "hit": false,
      "t": 133636.23,
      "d": 435.6056249999965,
      "v": 100
    },
    {
      "midi": 41,
      "hit": false,
      "t": 134090.775,
      "d": 1306.8168749999895,
      "v": 100
    },
    {
      "midi": 67,
      "hit": false,
      "t": 134090.775,
      "d": 1306.8168749999895,
      "v": 100
    },
    {
      "midi": 70,
      "hit": false,
      "t": 134090.775,
      "d": 1306.8168749999895,
      "v": 100
    },
    {
      "midi": 75,
      "hit": false,
      "t": 134090.775,
      "d": 1306.8168749999895,
      "v": 100
    },
    {
      "midi": 41,
      "hit": false,
      "t": 135454.40999999997,
      "d": 435.6056249999965,
      "v": 100
    },
    {
      "midi": 67,
      "hit": false,
      "t": 135454.40999999997,
      "d": 435.6056249999965,
      "v": 100
    },
    {
      "midi": 70,
      "hit": false,
      "t": 135454.40999999997,
      "d": 435.6056249999965,
      "v": 100
    },
    {
      "midi": 75,
      "hit": false,
      "t": 135454.40999999997,
      "d": 435.6056249999965,
      "v": 100
    },
    {
      "midi": 41,
      "hit": false,
      "t": 135908.95499999996,
      "d": 871.211249999993,
      "v": 100
    },
    {
      "midi": 67,
      "hit": false,
      "t": 135908.95499999996,
      "d": 871.211249999993,
      "v": 100
    },
    {
      "midi": 70,
      "hit": false,
      "t": 135908.95499999996,
      "d": 871.211249999993,
      "v": 100
    },
    {
      "midi": 75,
      "hit": false,
      "t": 135908.95499999996,
      "d": 871.211249999993,
      "v": 100
    },
    {
      "midi": 41,
      "hit": false,
      "t": 136818.04499999995,
      "d": 435.6056249999965,
      "v": 100
    },
    {
      "midi": 67,
      "hit": false,
      "t": 136818.04499999995,
      "d": 435.6056249999965,
      "v": 100
    },
    {
      "midi": 70,
      "hit": false,
      "t": 136818.04499999995,
      "d": 435.6056249999965,
      "v": 100
    },
    {
      "midi": 75,
      "hit": false,
      "t": 136818.04499999995,
      "d": 435.6056249999965,
      "v": 100
    },
    {
      "midi": 41,
      "hit": false,
      "t": 137272.58999999994,
      "d": 1306.8168749999895,
      "v": 100
    },
    {
      "midi": 67,
      "hit": false,
      "t": 137272.58999999994,
      "d": 1306.8168749999895,
      "v": 100
    },
    {
      "midi": 70,
      "hit": false,
      "t": 137272.58999999994,
      "d": 1306.8168749999895,
      "v": 100
    },
    {
      "midi": 75,
      "hit": false,
      "t": 137272.58999999994,
      "d": 1306.8168749999895,
      "v": 100
    },
    {
      "midi": 41,
      "hit": false,
      "t": 138636.22499999992,
      "d": 435.6056249999965,
      "v": 100
    },
    {
      "midi": 67,
      "hit": false,
      "t": 138636.22499999992,
      "d": 435.6056249999965,
      "v": 100
    },
    {
      "midi": 70,
      "hit": false,
      "t": 138636.22499999992,
      "d": 435.6056249999965,
      "v": 100
    },
    {
      "midi": 75,
      "hit": false,
      "t": 138636.22499999992,
      "d": 435.6056249999965,
      "v": 100
    },
    {
      "midi": 41,
      "hit": false,
      "t": 139090.7699999999,
      "d": 871.211249999993,
      "v": 100
    },
    {
      "midi": 67,
      "hit": false,
      "t": 139090.7699999999,
      "d": 871.211249999993,
      "v": 100
    },
    {
      "midi": 70,
      "hit": false,
      "t": 139090.7699999999,
      "d": 871.211249999993,
      "v": 100
    },
    {
      "midi": 75,
      "hit": false,
      "t": 139090.7699999999,
      "d": 871.211249999993,
      "v": 100
    },
    {
      "midi": 41,
      "hit": false,
      "t": 139999.8599999999,
      "d": 435.6056249999965,
      "v": 100
    },
    {
      "midi": 67,
      "hit": false,
      "t": 139999.8599999999,
      "d": 435.6056249999965,
      "v": 100
    },
    {
      "midi": 70,
      "hit": false,
      "t": 139999.8599999999,
      "d": 435.6056249999965,
      "v": 100
    },
    {
      "midi": 75,
      "hit": false,
      "t": 139999.8599999999,
      "d": 435.6056249999965,
      "v": 100
    },
    {
      "midi": 43,
      "hit": false,
      "t": 140454.40499999988,
      "d": 1306.8168749999895,
      "v": 100
    },
    {
      "midi": 69,
      "hit": false,
      "t": 140454.40499999988,
      "d": 1306.8168749999895,
      "v": 100
    },
    {
      "midi": 73,
      "hit": false,
      "t": 140454.40499999988,
      "d": 1306.8168749999895,
      "v": 100
    },
    {
      "midi": 76,
      "hit": false,
      "t": 140454.40499999988,
      "d": 1306.8168749999895,
      "v": 100
    },
    {
      "midi": 43,
      "hit": false,
      "t": 141818.03999999986,
      "d": 435.6056249999965,
      "v": 100
    },
    {
      "midi": 69,
      "hit": false,
      "t": 141818.03999999986,
      "d": 435.6056249999965,
      "v": 100
    },
    {
      "midi": 73,
      "hit": false,
      "t": 141818.03999999986,
      "d": 435.6056249999965,
      "v": 100
    },
    {
      "midi": 76,
      "hit": false,
      "t": 141818.03999999986,
      "d": 435.6056249999965,
      "v": 100
    },
    {
      "midi": 43,
      "hit": false,
      "t": 142272.58499999985,
      "d": 871.211249999993,
      "v": 100
    },
    {
      "midi": 69,
      "hit": false,
      "t": 142272.58499999985,
      "d": 871.211249999993,
      "v": 100
    },
    {
      "midi": 73,
      "hit": false,
      "t": 142272.58499999985,
      "d": 871.211249999993,
      "v": 100
    },
    {
      "midi": 76,
      "hit": false,
      "t": 142272.58499999985,
      "d": 871.211249999993,
      "v": 100
    },
    {
      "midi": 43,
      "hit": false,
      "t": 143181.67499999984,
      "d": 435.6056249999965,
      "v": 100
    },
    {
      "midi": 69,
      "hit": false,
      "t": 143181.67499999984,
      "d": 435.6056249999965,
      "v": 100
    },
    {
      "midi": 73,
      "hit": false,
      "t": 143181.67499999984,
      "d": 435.6056249999965,
      "v": 100
    },
    {
      "midi": 76,
      "hit": false,
      "t": 143181.67499999984,
      "d": 435.6056249999965,
      "v": 100
    },
    {
      "midi": 43,
      "hit": false,
      "t": 143636.21999999983,
      "d": 1306.8168749999895,
      "v": 100
    },
    {
      "midi": 69,
      "hit": false,
      "t": 143636.21999999983,
      "d": 1306.8168749999895,
      "v": 100
    },
    {
      "midi": 73,
      "hit": false,
      "t": 143636.21999999983,
      "d": 1306.8168749999895,
      "v": 100
    },
    {
      "midi": 76,
      "hit": false,
      "t": 143636.21999999983,
      "d": 1306.8168749999895,
      "v": 100
    },
    {
      "midi": 43,
      "hit": false,
      "t": 144999.8549999998,
      "d": 435.6056249999965,
      "v": 100
    },
    {
      "midi": 69,
      "hit": false,
      "t": 144999.8549999998,
      "d": 435.6056249999965,
      "v": 100
    },
    {
      "midi": 73,
      "hit": false,
      "t": 144999.8549999998,
      "d": 435.6056249999965,
      "v": 100
    },
    {
      "midi": 76,
      "hit": false,
      "t": 144999.8549999998,
      "d": 435.6056249999965,
      "v": 100
    },
    {
      "midi": 43,
      "hit": false,
      "t": 145454.3999999998,
      "d": 871.211249999993,
      "v": 100
    },
    {
      "midi": 69,
      "hit": false,
      "t": 145454.3999999998,
      "d": 871.211249999993,
      "v": 100
    },
    {
      "midi": 73,
      "hit": false,
      "t": 145454.3999999998,
      "d": 871.211249999993,
      "v": 100
    },
    {
      "midi": 76,
      "hit": false,
      "t": 145454.3999999998,
      "d": 871.211249999993,
      "v": 100
    },
    {
      "midi": 43,
      "hit": false,
      "t": 146363.4899999998,
      "d": 435.6056249999965,
      "v": 100
    },
    {
      "midi": 69,
      "hit": false,
      "t": 146363.4899999998,
      "d": 435.6056249999965,
      "v": 100
    },
    {
      "midi": 73,
      "hit": false,
      "t": 146363.4899999998,
      "d": 435.6056249999965,
      "v": 100
    },
    {
      "midi": 76,
      "hit": false,
      "t": 146363.4899999998,
      "d": 435.6056249999965,
      "v": 100
    },
    {
      "midi": 50,
      "hit": false,
      "t": 146818.03499999977,
      "d": 1306.8168749999895,
      "v": 100
    },
    {
      "midi": 66,
      "hit": false,
      "t": 146818.03499999977,
      "d": 1306.8168749999895,
      "v": 100
    },
    {
      "midi": 69,
      "hit": false,
      "t": 146818.03499999977,
      "d": 1306.8168749999895,
      "v": 100
    },
    {
      "midi": 74,
      "hit": false,
      "t": 146818.03499999977,
      "d": 1306.8168749999895,
      "v": 100
    },
    {
      "midi": 50,
      "hit": false,
      "t": 148181.66999999975,
      "d": 435.6056249999965,
      "v": 100
    },
    {
      "midi": 66,
      "hit": false,
      "t": 148181.66999999975,
      "d": 435.6056249999965,
      "v": 100
    },
    {
      "midi": 69,
      "hit": false,
      "t": 148181.66999999975,
      "d": 435.6056249999965,
      "v": 100
    },
    {
      "midi": 74,
      "hit": false,
      "t": 148181.66999999975,
      "d": 435.6056249999965,
      "v": 100
    },
    {
      "midi": 50,
      "hit": false,
      "t": 148636.21499999973,
      "d": 871.211249999993,
      "v": 100
    },
    {
      "midi": 66,
      "hit": false,
      "t": 148636.21499999973,
      "d": 871.211249999993,
      "v": 100
    },
    {
      "midi": 69,
      "hit": false,
      "t": 148636.21499999973,
      "d": 871.211249999993,
      "v": 100
    },
    {
      "midi": 74,
      "hit": false,
      "t": 148636.21499999973,
      "d": 871.211249999993,
      "v": 100
    },
    {
      "midi": 50,
      "hit": false,
      "t": 149545.30499999973,
      "d": 435.6056249999965,
      "v": 100
    },
    {
      "midi": 66,
      "hit": false,
      "t": 149545.30499999973,
      "d": 435.6056249999965,
      "v": 100
    },
    {
      "midi": 69,
      "hit": false,
      "t": 149545.30499999973,
      "d": 435.6056249999965,
      "v": 100
    },
    {
      "midi": 74,
      "hit": false,
      "t": 149545.30499999973,
      "d": 435.6056249999965,
      "v": 100
    },
    {
      "midi": 50,
      "hit": false,
      "t": 149999.84999999971,
      "d": 1306.8168749999895,
      "v": 100
    },
    {
      "midi": 66,
      "hit": false,
      "t": 149999.84999999971,
      "d": 1306.8168749999895,
      "v": 100
    },
    {
      "midi": 69,
      "hit": false,
      "t": 149999.84999999971,
      "d": 1306.8168749999895,
      "v": 100
    },
    {
      "midi": 74,
      "hit": false,
      "t": 149999.84999999971,
      "d": 1306.8168749999895,
      "v": 100
    },
    {
      "midi": 50,
      "hit": false,
      "t": 151363.4849999997,
      "d": 435.6056249999965,
      "v": 100
    },
    {
      "midi": 66,
      "hit": false,
      "t": 151363.4849999997,
      "d": 435.6056249999965,
      "v": 100
    },
    {
      "midi": 69,
      "hit": false,
      "t": 151363.4849999997,
      "d": 435.6056249999965,
      "v": 100
    },
    {
      "midi": 74,
      "hit": false,
      "t": 151363.4849999997,
      "d": 435.6056249999965,
      "v": 100
    },
    {
      "midi": 50,
      "hit": false,
      "t": 151818.02999999968,
      "d": 871.211249999993,
      "v": 100
    },
    {
      "midi": 66,
      "hit": false,
      "t": 151818.02999999968,
      "d": 871.211249999993,
      "v": 100
    },
    {
      "midi": 69,
      "hit": false,
      "t": 151818.02999999968,
      "d": 871.211249999993,
      "v": 100
    },
    {
      "midi": 74,
      "hit": false,
      "t": 151818.02999999968,
      "d": 871.211249999993,
      "v": 100
    },
    {
      "midi": 50,
      "hit": false,
      "t": 152727.11999999968,
      "d": 435.6056249999965,
      "v": 100
    },
    {
      "midi": 66,
      "hit": false,
      "t": 152727.11999999968,
      "d": 435.6056249999965,
      "v": 100
    },
    {
      "midi": 69,
      "hit": false,
      "t": 152727.11999999968,
      "d": 435.6056249999965,
      "v": 100
    },
    {
      "midi": 74,
      "hit": false,
      "t": 152727.11999999968,
      "d": 435.6056249999965,
      "v": 100
    },
    {
      "midi": 46,
      "hit": false,
      "t": 154999.84499999968,
      "d": 326.70421875000466,
      "v": 100
    },
    {
      "midi": 41,
      "hit": false,
      "t": 155340.75374999968,
      "d": 326.70421875000466,
      "v": 100
    },
    {
      "midi": 48,
      "hit": false,
      "t": 155681.6624999997,
      "d": 326.70421875000466,
      "v": 100
    },
    {
      "midi": 43,
      "hit": false,
      "t": 156022.5712499997,
      "d": 326.70421875000466,
      "v": 100
    },
    {
      "midi": 50,
      "hit": false,
      "t": 156363.4799999997,
      "d": 326.70421875000466,
      "v": 100
    },
    {
      "midi": 62,
      "hit": false,
      "t": 156363.4799999997,
      "d": 326.70421875000466,
      "v": 100
    },
    {
      "midi": 65,
      "hit": false,
      "t": 156363.4799999997,
      "d": 326.70421875000466,
      "v": 100
    },
    {
      "midi": 69,
      "hit": false,
      "t": 156363.4799999997,
      "d": 326.70421875000466,
      "v": 100
    },
    {
      "midi": 50,
      "hit": false,
      "t": 156704.3887499997,
      "d": 108.90140624999185,
      "v": 100
    },
    {
      "midi": 62,
      "hit": false,
      "t": 156704.3887499997,
      "d": 108.90140624999185,
      "v": 100
    },
    {
      "midi": 65,
      "hit": false,
      "t": 156704.3887499997,
      "d": 108.90140624999185,
      "v": 100
    },
    {
      "midi": 69,
      "hit": false,
      "t": 156704.3887499997,
      "d": 108.90140624999185,
      "v": 100
    },
    {
      "midi": 50,
      "hit": false,
      "t": 156818.02499999967,
      "d": 217.8028125000128,
      "v": 100
    },
    {
      "midi": 62,
      "hit": false,
      "t": 156818.02499999967,
      "d": 435.6056249999965,
      "v": 100
    },
    {
      "midi": 65,
      "hit": false,
      "t": 156818.02499999967,
      "d": 435.6056249999965,
      "v": 100
    },
    {
      "midi": 69,
      "hit": false,
      "t": 156818.02499999967,
      "d": 435.6056249999965,
      "v": 100
    },
    {
      "midi": 38,
      "hit": false,
      "t": 157045.2974999997,
      "d": 108.90140624999185,
      "v": 100
    },
    {
      "midi": 38,
      "hit": false,
      "t": 157158.93374999968,
      "d": 108.90140624999185,
      "v": 100
    },
    {
      "midi": 43,
      "hit": false,
      "t": 157272.56999999966,
      "d": 435.6056249999965,
      "v": 100
    },
    {
      "midi": 59,
      "hit": false,
      "t": 157272.56999999966,
      "d": 435.6056249999965,
      "v": 100
    },
    {
      "midi": 62,
      "hit": false,
      "t": 157272.56999999966,
      "d": 435.6056249999965,
      "v": 100
    },
    {
      "midi": 67,
      "hit": false,
      "t": 157272.56999999966,
      "d": 435.6056249999965,
      "v": 100
    },
    {
      "midi": 43,
      "hit": false,
      "t": 157727.11499999964,
      "d": 435.6056249999965,
      "v": 100
    },
    {
      "midi": 59,
      "hit": false,
      "t": 157727.11499999964,
      "d": 435.6056249999965,
      "v": 100
    },
    {
      "midi": 62,
      "hit": false,
      "t": 157727.11499999964,
      "d": 435.6056249999965,
      "v": 100
    },
    {
      "midi": 67,
      "hit": false,
      "t": 157727.11499999964,
      "d": 435.6056249999965,
      "v": 100
    },
    {
      "midi": 46,
      "hit": false,
      "t": 158181.65999999963,
      "d": 326.70421875000466,
      "v": 100
    },
    {
      "midi": 62,
      "hit": false,
      "t": 158181.65999999963,
      "d": 326.70421875000466,
      "v": 100
    },
    {
      "midi": 65,
      "hit": false,
      "t": 158181.65999999963,
      "d": 326.70421875000466,
      "v": 100
    },
    {
      "midi": 70,
      "hit": false,
      "t": 158181.65999999963,
      "d": 326.70421875000466,
      "v": 100
    },
    {
      "midi": 41,
      "hit": false,
      "t": 158522.56874999963,
      "d": 326.70421875000466,
      "v": 100
    },
    {
      "midi": 60,
      "hit": false,
      "t": 158522.56874999963,
      "d": 326.70421875000466,
      "v": 100
    },
    {
      "midi": 65,
      "hit": false,
      "t": 158522.56874999963,
      "d": 326.70421875000466,
      "v": 100
    },
    {
      "midi": 69,
      "hit": false,
      "t": 158522.56874999963,
      "d": 326.70421875000466,
      "v": 100
    },
    {
      "midi": 48,
      "hit": false,
      "t": 158863.47749999963,
      "d": 326.70421875000466,
      "v": 100
    },
    {
      "midi": 64,
      "hit": false,
      "t": 158863.47749999963,
      "d": 326.70421875000466,
      "v": 100
    },
    {
      "midi": 67,
      "hit": false,
      "t": 158863.47749999963,
      "d": 326.70421875000466,
      "v": 100
    },
    {
      "midi": 72,
      "hit": false,
      "t": 158863.47749999963,
      "d": 326.70421875000466,
      "v": 100
    },
    {
      "midi": 43,
      "hit": false,
      "t": 159204.38624999963,
      "d": 326.70421875000466,
      "v": 100
    },
    {
      "midi": 62,
      "hit": false,
      "t": 159204.38624999963,
      "d": 326.70421875000466,
      "v": 100
    },
    {
      "midi": 67,
      "hit": false,
      "t": 159204.38624999963,
      "d": 326.70421875000466,
      "v": 100
    },
    {
      "midi": 71,
      "hit": false,
      "t": 159204.38624999963,
      "d": 326.70421875000466,
      "v": 100
    },
    {
      "midi": 50,
      "hit": false,
      "t": 159545.29499999963,
      "d": 326.70421875000466,
      "v": 100
    },
    {
      "midi": 62,
      "hit": false,
      "t": 159545.29499999963,
      "d": 326.70421875000466,
      "v": 100
    },
    {
      "midi": 65,
      "hit": false,
      "t": 159545.29499999963,
      "d": 326.70421875000466,
      "v": 100
    },
    {
      "midi": 69,
      "hit": false,
      "t": 159545.29499999963,
      "d": 326.70421875000466,
      "v": 100
    },
    {
      "midi": 50,
      "hit": false,
      "t": 159886.20374999964,
      "d": 108.90140624999185,
      "v": 100
    },
    {
      "midi": 62,
      "hit": false,
      "t": 159886.20374999964,
      "d": 108.90140624999185,
      "v": 100
    },
    {
      "midi": 65,
      "hit": false,
      "t": 159886.20374999964,
      "d": 108.90140624999185,
      "v": 100
    },
    {
      "midi": 69,
      "hit": false,
      "t": 159886.20374999964,
      "d": 108.90140624999185,
      "v": 100
    },
    {
      "midi": 50,
      "hit": false,
      "t": 159999.83999999962,
      "d": 217.8028125000128,
      "v": 100
    },
    {
      "midi": 62,
      "hit": false,
      "t": 159999.83999999962,
      "d": 435.6056249999965,
      "v": 100
    },
    {
      "midi": 65,
      "hit": false,
      "t": 159999.83999999962,
      "d": 435.6056249999965,
      "v": 100
    },
    {
      "midi": 69,
      "hit": false,
      "t": 159999.83999999962,
      "d": 435.6056249999965,
      "v": 100
    },
    {
      "midi": 38,
      "hit": false,
      "t": 160227.11249999964,
      "d": 108.90140624999185,
      "v": 100
    },
    {
      "midi": 38,
      "hit": false,
      "t": 160340.74874999962,
      "d": 108.90140624999185,
      "v": 100
    },
    {
      "midi": 43,
      "hit": false,
      "t": 160454.3849999996,
      "d": 435.6056249999965,
      "v": 100
    },
    {
      "midi": 59,
      "hit": false,
      "t": 160454.3849999996,
      "d": 435.6056249999965,
      "v": 100
    },
    {
      "midi": 62,
      "hit": false,
      "t": 160454.3849999996,
      "d": 435.6056249999965,
      "v": 100
    },
    {
      "midi": 67,
      "hit": false,
      "t": 160454.3849999996,
      "d": 435.6056249999965,
      "v": 100
    },
    {
      "midi": 43,
      "hit": false,
      "t": 160908.9299999996,
      "d": 435.6056249999965,
      "v": 100
    },
    {
      "midi": 59,
      "hit": false,
      "t": 160908.9299999996,
      "d": 435.6056249999965,
      "v": 100
    },
    {
      "midi": 62,
      "hit": false,
      "t": 160908.9299999996,
      "d": 435.6056249999965,
      "v": 100
    },
    {
      "midi": 67,
      "hit": false,
      "t": 160908.9299999996,
      "d": 435.6056249999965,
      "v": 100
    },
    {
      "midi": 46,
      "hit": false,
      "t": 161363.47499999957,
      "d": 326.70421875000466,
      "v": 100
    },
    {
      "midi": 62,
      "hit": false,
      "t": 161363.47499999957,
      "d": 326.70421875000466,
      "v": 100
    },
    {
      "midi": 65,
      "hit": false,
      "t": 161363.47499999957,
      "d": 326.70421875000466,
      "v": 100
    },
    {
      "midi": 70,
      "hit": false,
      "t": 161363.47499999957,
      "d": 326.70421875000466,
      "v": 100
    },
    {
      "midi": 41,
      "hit": false,
      "t": 161704.38374999957,
      "d": 326.70421875000466,
      "v": 100
    },
    {
      "midi": 60,
      "hit": false,
      "t": 161704.38374999957,
      "d": 326.70421875000466,
      "v": 100
    },
    {
      "midi": 65,
      "hit": false,
      "t": 161704.38374999957,
      "d": 326.70421875000466,
      "v": 100
    },
    {
      "midi": 69,
      "hit": false,
      "t": 161704.38374999957,
      "d": 326.70421875000466,
      "v": 100
    },
    {
      "midi": 48,
      "hit": false,
      "t": 162045.29249999957,
      "d": 326.70421875000466,
      "v": 100
    },
    {
      "midi": 64,
      "hit": false,
      "t": 162045.29249999957,
      "d": 326.70421875000466,
      "v": 100
    },
    {
      "midi": 67,
      "hit": false,
      "t": 162045.29249999957,
      "d": 326.70421875000466,
      "v": 100
    },
    {
      "midi": 72,
      "hit": false,
      "t": 162045.29249999957,
      "d": 326.70421875000466,
      "v": 100
    },
    {
      "midi": 43,
      "hit": false,
      "t": 162386.20124999958,
      "d": 326.70421875000466,
      "v": 100
    },
    {
      "midi": 62,
      "hit": false,
      "t": 162386.20124999958,
      "d": 326.70421875000466,
      "v": 100
    },
    {
      "midi": 67,
      "hit": false,
      "t": 162386.20124999958,
      "d": 326.70421875000466,
      "v": 100
    },
    {
      "midi": 71,
      "hit": false,
      "t": 162386.20124999958,
      "d": 326.70421875000466,
      "v": 100
    },
    {
      "midi": 50,
      "hit": false,
      "t": 162727.10999999958,
      "d": 326.70421875000466,
      "v": 100
    },
    {
      "midi": 62,
      "hit": false,
      "t": 162727.10999999958,
      "d": 326.70421875000466,
      "v": 100
    },
    {
      "midi": 65,
      "hit": false,
      "t": 162727.10999999958,
      "d": 326.70421875000466,
      "v": 100
    },
    {
      "midi": 69,
      "hit": false,
      "t": 162727.10999999958,
      "d": 326.70421875000466,
      "v": 100
    },
    {
      "midi": 50,
      "hit": false,
      "t": 163068.01874999958,
      "d": 108.90140624999185,
      "v": 100
    },
    {
      "midi": 62,
      "hit": false,
      "t": 163068.01874999958,
      "d": 108.90140624999185,
      "v": 100
    },
    {
      "midi": 65,
      "hit": false,
      "t": 163068.01874999958,
      "d": 108.90140624999185,
      "v": 100
    },
    {
      "midi": 69,
      "hit": false,
      "t": 163068.01874999958,
      "d": 108.90140624999185,
      "v": 100
    },
    {
      "midi": 50,
      "hit": false,
      "t": 163181.65499999956,
      "d": 217.8028125000128,
      "v": 100
    },
    {
      "midi": 62,
      "hit": false,
      "t": 163181.65499999956,
      "d": 435.6056249999965,
      "v": 100
    },
    {
      "midi": 65,
      "hit": false,
      "t": 163181.65499999956,
      "d": 435.6056249999965,
      "v": 100
    },
    {
      "midi": 69,
      "hit": false,
      "t": 163181.65499999956,
      "d": 435.6056249999965,
      "v": 100
    },
    {
      "midi": 38,
      "hit": false,
      "t": 163408.92749999958,
      "d": 108.90140624999185,
      "v": 100
    },
    {
      "midi": 38,
      "hit": false,
      "t": 163522.56374999956,
      "d": 108.90140624999185,
      "v": 100
    },
    {
      "midi": 43,
      "hit": false,
      "t": 163636.19999999955,
      "d": 435.6056249999965,
      "v": 100
    },
    {
      "midi": 59,
      "hit": false,
      "t": 163636.19999999955,
      "d": 435.6056249999965,
      "v": 100
    },
    {
      "midi": 62,
      "hit": false,
      "t": 163636.19999999955,
      "d": 435.6056249999965,
      "v": 100
    },
    {
      "midi": 67,
      "hit": false,
      "t": 163636.19999999955,
      "d": 435.6056249999965,
      "v": 100
    },
    {
      "midi": 43,
      "hit": false,
      "t": 164090.74499999953,
      "d": 435.6056249999965,
      "v": 100
    },
    {
      "midi": 59,
      "hit": false,
      "t": 164090.74499999953,
      "d": 435.6056249999965,
      "v": 100
    },
    {
      "midi": 62,
      "hit": false,
      "t": 164090.74499999953,
      "d": 435.6056249999965,
      "v": 100
    },
    {
      "midi": 67,
      "hit": false,
      "t": 164090.74499999953,
      "d": 435.6056249999965,
      "v": 100
    },
    {
      "midi": 46,
      "hit": false,
      "t": 164545.2899999995,
      "d": 326.70421875000466,
      "v": 100
    },
    {
      "midi": 62,
      "hit": false,
      "t": 164545.2899999995,
      "d": 326.70421875000466,
      "v": 100
    },
    {
      "midi": 65,
      "hit": false,
      "t": 164545.2899999995,
      "d": 326.70421875000466,
      "v": 100
    },
    {
      "midi": 70,
      "hit": false,
      "t": 164545.2899999995,
      "d": 326.70421875000466,
      "v": 100
    },
    {
      "midi": 41,
      "hit": false,
      "t": 164886.19874999952,
      "d": 326.70421875000466,
      "v": 100
    },
    {
      "midi": 60,
      "hit": false,
      "t": 164886.19874999952,
      "d": 326.70421875000466,
      "v": 100
    },
    {
      "midi": 65,
      "hit": false,
      "t": 164886.19874999952,
      "d": 326.70421875000466,
      "v": 100
    },
    {
      "midi": 69,
      "hit": false,
      "t": 164886.19874999952,
      "d": 326.70421875000466,
      "v": 100
    },
    {
      "midi": 48,
      "hit": false,
      "t": 165227.10749999952,
      "d": 326.70421875000466,
      "v": 100
    },
    {
      "midi": 64,
      "hit": false,
      "t": 165227.10749999952,
      "d": 326.70421875000466,
      "v": 100
    },
    {
      "midi": 67,
      "hit": false,
      "t": 165227.10749999952,
      "d": 326.70421875000466,
      "v": 100
    },
    {
      "midi": 72,
      "hit": false,
      "t": 165227.10749999952,
      "d": 326.70421875000466,
      "v": 100
    },
    {
      "midi": 43,
      "hit": false,
      "t": 165568.01624999952,
      "d": 326.70421875000466,
      "v": 100
    },
    {
      "midi": 62,
      "hit": false,
      "t": 165568.01624999952,
      "d": 326.70421875000466,
      "v": 100
    },
    {
      "midi": 67,
      "hit": false,
      "t": 165568.01624999952,
      "d": 326.70421875000466,
      "v": 100
    },
    {
      "midi": 71,
      "hit": false,
      "t": 165568.01624999952,
      "d": 326.70421875000466,
      "v": 100
    },
    {
      "midi": 50,
      "hit": false,
      "t": 165908.92499999952,
      "d": 326.70421875000466,
      "v": 100
    },
    {
      "midi": 62,
      "hit": false,
      "t": 165908.92499999952,
      "d": 326.70421875000466,
      "v": 100
    },
    {
      "midi": 65,
      "hit": false,
      "t": 165908.92499999952,
      "d": 326.70421875000466,
      "v": 100
    },
    {
      "midi": 69,
      "hit": false,
      "t": 165908.92499999952,
      "d": 326.70421875000466,
      "v": 100
    },
    {
      "midi": 50,
      "hit": false,
      "t": 166249.83374999953,
      "d": 108.90140624999185,
      "v": 100
    },
    {
      "midi": 62,
      "hit": false,
      "t": 166249.83374999953,
      "d": 108.90140624999185,
      "v": 100
    },
    {
      "midi": 65,
      "hit": false,
      "t": 166249.83374999953,
      "d": 108.90140624999185,
      "v": 100
    },
    {
      "midi": 69,
      "hit": false,
      "t": 166249.83374999953,
      "d": 108.90140624999185,
      "v": 100
    },
    {
      "midi": 50,
      "hit": false,
      "t": 166363.4699999995,
      "d": 217.8028125000128,
      "v": 100
    },
    {
      "midi": 62,
      "hit": false,
      "t": 166363.4699999995,
      "d": 435.6056249999965,
      "v": 100
    },
    {
      "midi": 65,
      "hit": false,
      "t": 166363.4699999995,
      "d": 435.6056249999965,
      "v": 100
    },
    {
      "midi": 69,
      "hit": false,
      "t": 166363.4699999995,
      "d": 435.6056249999965,
      "v": 100
    },
    {
      "midi": 38,
      "hit": false,
      "t": 166590.74249999953,
      "d": 108.90140624999185,
      "v": 100
    },
    {
      "midi": 38,
      "hit": false,
      "t": 166704.3787499995,
      "d": 108.90140624999185,
      "v": 100
    },
    {
      "midi": 43,
      "hit": false,
      "t": 166818.0149999995,
      "d": 435.6056249999965,
      "v": 100
    },
    {
      "midi": 59,
      "hit": false,
      "t": 166818.0149999995,
      "d": 435.6056249999965,
      "v": 100
    },
    {
      "midi": 62,
      "hit": false,
      "t": 166818.0149999995,
      "d": 435.6056249999965,
      "v": 100
    },
    {
      "midi": 67,
      "hit": false,
      "t": 166818.0149999995,
      "d": 435.6056249999965,
      "v": 100
    },
    {
      "midi": 43,
      "hit": false,
      "t": 167272.55999999947,
      "d": 435.6056249999965,
      "v": 100
    },
    {
      "midi": 59,
      "hit": false,
      "t": 167272.55999999947,
      "d": 435.6056249999965,
      "v": 100
    },
    {
      "midi": 62,
      "hit": false,
      "t": 167272.55999999947,
      "d": 435.6056249999965,
      "v": 100
    },
    {
      "midi": 67,
      "hit": false,
      "t": 167272.55999999947,
      "d": 435.6056249999965,
      "v": 100
    },
    {
      "midi": 46,
      "hit": false,
      "t": 167727.10499999946,
      "d": 326.70421875000466,
      "v": 100
    },
    {
      "midi": 62,
      "hit": false,
      "t": 167727.10499999946,
      "d": 326.70421875000466,
      "v": 100
    },
    {
      "midi": 65,
      "hit": false,
      "t": 167727.10499999946,
      "d": 326.70421875000466,
      "v": 100
    },
    {
      "midi": 70,
      "hit": false,
      "t": 167727.10499999946,
      "d": 326.70421875000466,
      "v": 100
    },
    {
      "midi": 41,
      "hit": false,
      "t": 168068.01374999946,
      "d": 326.70421875000466,
      "v": 100
    },
    {
      "midi": 60,
      "hit": false,
      "t": 168068.01374999946,
      "d": 326.70421875000466,
      "v": 100
    },
    {
      "midi": 65,
      "hit": false,
      "t": 168068.01374999946,
      "d": 326.70421875000466,
      "v": 100
    },
    {
      "midi": 69,
      "hit": false,
      "t": 168068.01374999946,
      "d": 326.70421875000466,
      "v": 100
    },
    {
      "midi": 48,
      "hit": false,
      "t": 168408.92249999946,
      "d": 326.70421875000466,
      "v": 100
    },
    {
      "midi": 64,
      "hit": false,
      "t": 168408.92249999946,
      "d": 326.70421875000466,
      "v": 100
    },
    {
      "midi": 67,
      "hit": false,
      "t": 168408.92249999946,
      "d": 326.70421875000466,
      "v": 100
    },
    {
      "midi": 72,
      "hit": false,
      "t": 168408.92249999946,
      "d": 326.70421875000466,
      "v": 100
    },
    {
      "midi": 43,
      "hit": false,
      "t": 168749.83124999946,
      "d": 326.70421875000466,
      "v": 100
    },
    {
      "midi": 62,
      "hit": false,
      "t": 168749.83124999946,
      "d": 326.70421875000466,
      "v": 100
    },
    {
      "midi": 67,
      "hit": false,
      "t": 168749.83124999946,
      "d": 326.70421875000466,
      "v": 100
    },
    {
      "midi": 71,
      "hit": false,
      "t": 168749.83124999946,
      "d": 326.70421875000466,
      "v": 100
    },
    {
      "midi": 45,
      "hit": false,
      "t": 169090.73999999947,
      "d": 1306.8168749999895,
      "v": 100
    },
    {
      "midi": 64,
      "hit": false,
      "t": 169090.73999999947,
      "d": 1306.8168749999895,
      "v": 100
    },
    {
      "midi": 67,
      "hit": false,
      "t": 169090.73999999947,
      "d": 1306.8168749999895,
      "v": 100
    },
    {
      "midi": 71,
      "hit": false,
      "t": 169090.73999999947,
      "d": 1306.8168749999895,
      "v": 100
    },
    {
      "midi": 74,
      "hit": false,
      "t": 169090.73999999947,
      "d": 1306.8168749999895,
      "v": 100
    },
    {
      "midi": 45,
      "hit": false,
      "t": 170454.37499999945,
      "d": 435.6056249999965,
      "v": 100
    },
    {
      "midi": 64,
      "hit": false,
      "t": 170454.37499999945,
      "d": 435.6056249999965,
      "v": 100
    },
    {
      "midi": 67,
      "hit": false,
      "t": 170454.37499999945,
      "d": 435.6056249999965,
      "v": 100
    },
    {
      "midi": 71,
      "hit": false,
      "t": 170454.37499999945,
      "d": 435.6056249999965,
      "v": 100
    },
    {
      "midi": 74,
      "hit": false,
      "t": 170454.37499999945,
      "d": 435.6056249999965,
      "v": 100
    },
    {
      "midi": 45,
      "hit": false,
      "t": 170908.91999999943,
      "d": 871.211249999993,
      "v": 100
    },
    {
      "midi": 64,
      "hit": false,
      "t": 170908.91999999943,
      "d": 871.211249999993,
      "v": 100
    },
    {
      "midi": 67,
      "hit": false,
      "t": 170908.91999999943,
      "d": 871.211249999993,
      "v": 100
    },
    {
      "midi": 71,
      "hit": false,
      "t": 170908.91999999943,
      "d": 871.211249999993,
      "v": 100
    },
    {
      "midi": 74,
      "hit": false,
      "t": 170908.91999999943,
      "d": 871.211249999993,
      "v": 100
    },
    {
      "midi": 45,
      "hit": false,
      "t": 171818.00999999943,
      "d": 435.6056249999965,
      "v": 100
    },
    {
      "midi": 64,
      "hit": false,
      "t": 171818.00999999943,
      "d": 435.6056249999965,
      "v": 100
    },
    {
      "midi": 67,
      "hit": false,
      "t": 171818.00999999943,
      "d": 435.6056249999965,
      "v": 100
    },
    {
      "midi": 71,
      "hit": false,
      "t": 171818.00999999943,
      "d": 435.6056249999965,
      "v": 100
    },
    {
      "midi": 74,
      "hit": false,
      "t": 171818.00999999943,
      "d": 435.6056249999965,
      "v": 100
    },
    {
      "midi": 45,
      "hit": false,
      "t": 172272.5549999994,
      "d": 1306.8168749999895,
      "v": 100
    },
    {
      "midi": 64,
      "hit": false,
      "t": 172272.5549999994,
      "d": 1306.8168749999895,
      "v": 100
    },
    {
      "midi": 67,
      "hit": false,
      "t": 172272.5549999994,
      "d": 1306.8168749999895,
      "v": 100
    },
    {
      "midi": 71,
      "hit": false,
      "t": 172272.5549999994,
      "d": 1306.8168749999895,
      "v": 100
    },
    {
      "midi": 74,
      "hit": false,
      "t": 172272.5549999994,
      "d": 1306.8168749999895,
      "v": 100
    },
    {
      "midi": 45,
      "hit": false,
      "t": 173636.1899999994,
      "d": 435.6056249999965,
      "v": 100
    },
    {
      "midi": 64,
      "hit": false,
      "t": 173636.1899999994,
      "d": 435.6056249999965,
      "v": 100
    },
    {
      "midi": 67,
      "hit": false,
      "t": 173636.1899999994,
      "d": 435.6056249999965,
      "v": 100
    },
    {
      "midi": 71,
      "hit": false,
      "t": 173636.1899999994,
      "d": 435.6056249999965,
      "v": 100
    },
    {
      "midi": 74,
      "hit": false,
      "t": 173636.1899999994,
      "d": 435.6056249999965,
      "v": 100
    },
    {
      "midi": 45,
      "hit": false,
      "t": 174090.73499999937,
      "d": 871.211249999993,
      "v": 100
    },
    {
      "midi": 64,
      "hit": false,
      "t": 174090.73499999937,
      "d": 871.211249999993,
      "v": 100
    },
    {
      "midi": 67,
      "hit": false,
      "t": 174090.73499999937,
      "d": 871.211249999993,
      "v": 100
    },
    {
      "midi": 71,
      "hit": false,
      "t": 174090.73499999937,
      "d": 871.211249999993,
      "v": 100
    },
    {
      "midi": 74,
      "hit": false,
      "t": 174090.73499999937,
      "d": 871.211249999993,
      "v": 100
    },
    {
      "midi": 45,
      "hit": false,
      "t": 174999.82499999937,
      "d": 435.6056249999965,
      "v": 100
    },
    {
      "midi": 64,
      "hit": false,
      "t": 174999.82499999937,
      "d": 435.6056249999965,
      "v": 100
    },
    {
      "midi": 67,
      "hit": false,
      "t": 174999.82499999937,
      "d": 435.6056249999965,
      "v": 100
    },
    {
      "midi": 71,
      "hit": false,
      "t": 174999.82499999937,
      "d": 435.6056249999965,
      "v": 100
    },
    {
      "midi": 74,
      "hit": false,
      "t": 174999.82499999937,
      "d": 435.6056249999965,
      "v": 100
    },
    {
      "midi": 50,
      "hit": false,
      "t": 175454.36999999936,
      "d": 1306.8168749999895,
      "v": 100
    },
    {
      "midi": 67,
      "hit": false,
      "t": 175454.36999999936,
      "d": 1306.8168749999895,
      "v": 100
    },
    {
      "midi": 72,
      "hit": false,
      "t": 175454.36999999936,
      "d": 1306.8168749999895,
      "v": 100
    },
    {
      "midi": 76,
      "hit": false,
      "t": 175454.36999999936,
      "d": 1306.8168749999895,
      "v": 100
    },
    {
      "midi": 50,
      "hit": false,
      "t": 176818.00499999934,
      "d": 435.6056249999965,
      "v": 100
    },
    {
      "midi": 67,
      "hit": false,
      "t": 176818.00499999934,
      "d": 435.6056249999965,
      "v": 100
    },
    {
      "midi": 72,
      "hit": false,
      "t": 176818.00499999934,
      "d": 435.6056249999965,
      "v": 100
    },
    {
      "midi": 76,
      "hit": false,
      "t": 176818.00499999934,
      "d": 435.6056249999965,
      "v": 100
    },
    {
      "midi": 50,
      "hit": false,
      "t": 177272.54999999932,
      "d": 871.211249999993,
      "v": 100
    },
    {
      "midi": 67,
      "hit": false,
      "t": 177272.54999999932,
      "d": 871.211249999993,
      "v": 100
    },
    {
      "midi": 72,
      "hit": false,
      "t": 177272.54999999932,
      "d": 871.211249999993,
      "v": 100
    },
    {
      "midi": 76,
      "hit": false,
      "t": 177272.54999999932,
      "d": 871.211249999993,
      "v": 100
    },
    {
      "midi": 50,
      "hit": false,
      "t": 178181.63999999932,
      "d": 435.6056249999965,
      "v": 100
    },
    {
      "midi": 67,
      "hit": false,
      "t": 178181.63999999932,
      "d": 435.6056249999965,
      "v": 100
    },
    {
      "midi": 72,
      "hit": false,
      "t": 178181.63999999932,
      "d": 435.6056249999965,
      "v": 100
    },
    {
      "midi": 76,
      "hit": false,
      "t": 178181.63999999932,
      "d": 435.6056249999965,
      "v": 100
    },
    {
      "midi": 50,
      "hit": false,
      "t": 178636.1849999993,
      "d": 1306.8168749999895,
      "v": 100
    },
    {
      "midi": 67,
      "hit": false,
      "t": 178636.1849999993,
      "d": 1306.8168749999895,
      "v": 100
    },
    {
      "midi": 72,
      "hit": false,
      "t": 178636.1849999993,
      "d": 1306.8168749999895,
      "v": 100
    },
    {
      "midi": 76,
      "hit": false,
      "t": 178636.1849999993,
      "d": 1306.8168749999895,
      "v": 100
    },
    {
      "midi": 50,
      "hit": false,
      "t": 179999.81999999928,
      "d": 435.6056249999965,
      "v": 100
    },
    {
      "midi": 67,
      "hit": false,
      "t": 179999.81999999928,
      "d": 435.6056249999965,
      "v": 100
    },
    {
      "midi": 72,
      "hit": false,
      "t": 179999.81999999928,
      "d": 435.6056249999965,
      "v": 100
    },
    {
      "midi": 76,
      "hit": false,
      "t": 179999.81999999928,
      "d": 435.6056249999965,
      "v": 100
    },
    {
      "midi": 50,
      "hit": false,
      "t": 180454.36499999926,
      "d": 871.211249999993,
      "v": 100
    },
    {
      "midi": 67,
      "hit": false,
      "t": 180454.36499999926,
      "d": 871.211249999993,
      "v": 100
    },
    {
      "midi": 72,
      "hit": false,
      "t": 180454.36499999926,
      "d": 871.211249999993,
      "v": 100
    },
    {
      "midi": 76,
      "hit": false,
      "t": 180454.36499999926,
      "d": 871.211249999993,
      "v": 100
    },
    {
      "midi": 50,
      "hit": false,
      "t": 181363.45499999926,
      "d": 435.6056249999965,
      "v": 100
    },
    {
      "midi": 67,
      "hit": false,
      "t": 181363.45499999926,
      "d": 435.6056249999965,
      "v": 100
    },
    {
      "midi": 72,
      "hit": false,
      "t": 181363.45499999926,
      "d": 435.6056249999965,
      "v": 100
    },
    {
      "midi": 76,
      "hit": false,
      "t": 181363.45499999926,
      "d": 435.6056249999965,
      "v": 100
    },
    {
      "midi": 41,
      "hit": false,
      "t": 181817.99999999924,
      "d": 1306.8168749999895,
      "v": 100
    },
    {
      "midi": 69,
      "hit": false,
      "t": 181817.99999999924,
      "d": 1306.8168749999895,
      "v": 100
    },
    {
      "midi": 71,
      "hit": false,
      "t": 181817.99999999924,
      "d": 1306.8168749999895,
      "v": 100
    },
    {
      "midi": 72,
      "hit": false,
      "t": 181817.99999999924,
      "d": 1306.8168749999895,
      "v": 100
    },
    {
      "midi": 76,
      "hit": false,
      "t": 181817.99999999924,
      "d": 1306.8168749999895,
      "v": 100
    },
    {
      "midi": 41,
      "hit": false,
      "t": 183181.63499999922,
      "d": 435.6056249999965,
      "v": 100
    },
    {
      "midi": 69,
      "hit": false,
      "t": 183181.63499999922,
      "d": 435.6056249999965,
      "v": 100
    },
    {
      "midi": 71,
      "hit": false,
      "t": 183181.63499999922,
      "d": 435.6056249999965,
      "v": 100
    },
    {
      "midi": 72,
      "hit": false,
      "t": 183181.63499999922,
      "d": 435.6056249999965,
      "v": 100
    },
    {
      "midi": 76,
      "hit": false,
      "t": 183181.63499999922,
      "d": 435.6056249999965,
      "v": 100
    },
    {
      "midi": 41,
      "hit": false,
      "t": 183636.1799999992,
      "d": 871.211249999993,
      "v": 100
    },
    {
      "midi": 69,
      "hit": false,
      "t": 183636.1799999992,
      "d": 871.211249999993,
      "v": 100
    },
    {
      "midi": 71,
      "hit": false,
      "t": 183636.1799999992,
      "d": 871.211249999993,
      "v": 100
    },
    {
      "midi": 72,
      "hit": false,
      "t": 183636.1799999992,
      "d": 871.211249999993,
      "v": 100
    },
    {
      "midi": 76,
      "hit": false,
      "t": 183636.1799999992,
      "d": 871.211249999993,
      "v": 100
    },
    {
      "midi": 41,
      "hit": false,
      "t": 184545.2699999992,
      "d": 435.6056249999965,
      "v": 100
    },
    {
      "midi": 69,
      "hit": false,
      "t": 184545.2699999992,
      "d": 435.6056249999965,
      "v": 100
    },
    {
      "midi": 71,
      "hit": false,
      "t": 184545.2699999992,
      "d": 435.6056249999965,
      "v": 100
    },
    {
      "midi": 72,
      "hit": false,
      "t": 184545.2699999992,
      "d": 435.6056249999965,
      "v": 100
    },
    {
      "midi": 76,
      "hit": false,
      "t": 184545.2699999992,
      "d": 435.6056249999965,
      "v": 100
    },
    {
      "midi": 41,
      "hit": false,
      "t": 184999.8149999992,
      "d": 1306.8168749999895,
      "v": 100
    },
    {
      "midi": 69,
      "hit": false,
      "t": 184999.8149999992,
      "d": 1306.8168749999895,
      "v": 100
    },
    {
      "midi": 71,
      "hit": false,
      "t": 184999.8149999992,
      "d": 1306.8168749999895,
      "v": 100
    },
    {
      "midi": 72,
      "hit": false,
      "t": 184999.8149999992,
      "d": 1306.8168749999895,
      "v": 100
    },
    {
      "midi": 76,
      "hit": false,
      "t": 184999.8149999992,
      "d": 1306.8168749999895,
      "v": 100
    },
    {
      "midi": 41,
      "hit": false,
      "t": 186363.44999999917,
      "d": 435.6056249999965,
      "v": 100
    },
    {
      "midi": 69,
      "hit": false,
      "t": 186363.44999999917,
      "d": 435.6056249999965,
      "v": 100
    },
    {
      "midi": 71,
      "hit": false,
      "t": 186363.44999999917,
      "d": 435.6056249999965,
      "v": 100
    },
    {
      "midi": 72,
      "hit": false,
      "t": 186363.44999999917,
      "d": 435.6056249999965,
      "v": 100
    },
    {
      "midi": 76,
      "hit": false,
      "t": 186363.44999999917,
      "d": 435.6056249999965,
      "v": 100
    },
    {
      "midi": 41,
      "hit": false,
      "t": 186817.99499999915,
      "d": 871.211249999993,
      "v": 100
    },
    {
      "midi": 69,
      "hit": false,
      "t": 186817.99499999915,
      "d": 871.211249999993,
      "v": 100
    },
    {
      "midi": 71,
      "hit": false,
      "t": 186817.99499999915,
      "d": 871.211249999993,
      "v": 100
    },
    {
      "midi": 72,
      "hit": false,
      "t": 186817.99499999915,
      "d": 871.211249999993,
      "v": 100
    },
    {
      "midi": 76,
      "hit": false,
      "t": 186817.99499999915,
      "d": 871.211249999993,
      "v": 100
    },
    {
      "midi": 41,
      "hit": false,
      "t": 187727.08499999915,
      "d": 435.6056249999965,
      "v": 100
    },
    {
      "midi": 69,
      "hit": false,
      "t": 187727.08499999915,
      "d": 435.6056249999965,
      "v": 100
    },
    {
      "midi": 71,
      "hit": false,
      "t": 187727.08499999915,
      "d": 435.6056249999965,
      "v": 100
    },
    {
      "midi": 72,
      "hit": false,
      "t": 187727.08499999915,
      "d": 435.6056249999965,
      "v": 100
    },
    {
      "midi": 76,
      "hit": false,
      "t": 187727.08499999915,
      "d": 435.6056249999965,
      "v": 100
    },
    {
      "midi": 41,
      "hit": false,
      "t": 188181.62999999913,
      "d": 1306.8168749999895,
      "v": 100
    },
    {
      "midi": 67,
      "hit": false,
      "t": 188181.62999999913,
      "d": 1306.8168749999895,
      "v": 100
    },
    {
      "midi": 70,
      "hit": false,
      "t": 188181.62999999913,
      "d": 1306.8168749999895,
      "v": 100
    },
    {
      "midi": 75,
      "hit": false,
      "t": 188181.62999999913,
      "d": 1306.8168749999895,
      "v": 100
    },
    {
      "midi": 41,
      "hit": false,
      "t": 189545.2649999991,
      "d": 435.6056249999965,
      "v": 100
    },
    {
      "midi": 67,
      "hit": false,
      "t": 189545.2649999991,
      "d": 435.6056249999965,
      "v": 100
    },
    {
      "midi": 70,
      "hit": false,
      "t": 189545.2649999991,
      "d": 435.6056249999965,
      "v": 100
    },
    {
      "midi": 75,
      "hit": false,
      "t": 189545.2649999991,
      "d": 435.6056249999965,
      "v": 100
    },
    {
      "midi": 41,
      "hit": false,
      "t": 189999.8099999991,
      "d": 871.211249999993,
      "v": 100
    },
    {
      "midi": 67,
      "hit": false,
      "t": 189999.8099999991,
      "d": 871.211249999993,
      "v": 100
    },
    {
      "midi": 70,
      "hit": false,
      "t": 189999.8099999991,
      "d": 871.211249999993,
      "v": 100
    },
    {
      "midi": 75,
      "hit": false,
      "t": 189999.8099999991,
      "d": 871.211249999993,
      "v": 100
    },
    {
      "midi": 41,
      "hit": false,
      "t": 190908.8999999991,
      "d": 435.6056249999965,
      "v": 100
    },
    {
      "midi": 67,
      "hit": false,
      "t": 190908.8999999991,
      "d": 435.6056249999965,
      "v": 100
    },
    {
      "midi": 70,
      "hit": false,
      "t": 190908.8999999991,
      "d": 435.6056249999965,
      "v": 100
    },
    {
      "midi": 75,
      "hit": false,
      "t": 190908.8999999991,
      "d": 435.6056249999965,
      "v": 100
    },
    {
      "midi": 41,
      "hit": false,
      "t": 191363.44499999908,
      "d": 1306.8168749999895,
      "v": 100
    },
    {
      "midi": 67,
      "hit": false,
      "t": 191363.44499999908,
      "d": 1306.8168749999895,
      "v": 100
    },
    {
      "midi": 70,
      "hit": false,
      "t": 191363.44499999908,
      "d": 1306.8168749999895,
      "v": 100
    },
    {
      "midi": 75,
      "hit": false,
      "t": 191363.44499999908,
      "d": 1306.8168749999895,
      "v": 100
    },
    {
      "midi": 41,
      "hit": false,
      "t": 192727.07999999906,
      "d": 435.6056249999965,
      "v": 100
    },
    {
      "midi": 67,
      "hit": false,
      "t": 192727.07999999906,
      "d": 435.6056249999965,
      "v": 100
    },
    {
      "midi": 70,
      "hit": false,
      "t": 192727.07999999906,
      "d": 435.6056249999965,
      "v": 100
    },
    {
      "midi": 75,
      "hit": false,
      "t": 192727.07999999906,
      "d": 435.6056249999965,
      "v": 100
    },
    {
      "midi": 41,
      "hit": false,
      "t": 193181.62499999904,
      "d": 871.211249999993,
      "v": 100
    },
    {
      "midi": 67,
      "hit": false,
      "t": 193181.62499999904,
      "d": 871.211249999993,
      "v": 100
    },
    {
      "midi": 70,
      "hit": false,
      "t": 193181.62499999904,
      "d": 871.211249999993,
      "v": 100
    },
    {
      "midi": 75,
      "hit": false,
      "t": 193181.62499999904,
      "d": 871.211249999993,
      "v": 100
    },
    {
      "midi": 41,
      "hit": false,
      "t": 194090.71499999904,
      "d": 435.6056249999965,
      "v": 100
    },
    {
      "midi": 67,
      "hit": false,
      "t": 194090.71499999904,
      "d": 435.6056249999965,
      "v": 100
    },
    {
      "midi": 70,
      "hit": false,
      "t": 194090.71499999904,
      "d": 435.6056249999965,
      "v": 100
    },
    {
      "midi": 75,
      "hit": false,
      "t": 194090.71499999904,
      "d": 435.6056249999965,
      "v": 100
    },
    {
      "midi": 43,
      "hit": false,
      "t": 194545.25999999902,
      "d": 1306.8168749999895,
      "v": 100
    },
    {
      "midi": 69,
      "hit": false,
      "t": 194545.25999999902,
      "d": 1306.8168749999895,
      "v": 100
    },
    {
      "midi": 73,
      "hit": false,
      "t": 194545.25999999902,
      "d": 1306.8168749999895,
      "v": 100
    },
    {
      "midi": 76,
      "hit": false,
      "t": 194545.25999999902,
      "d": 1306.8168749999895,
      "v": 100
    },
    {
      "midi": 43,
      "hit": false,
      "t": 195908.894999999,
      "d": 435.6056249999965,
      "v": 100
    },
    {
      "midi": 69,
      "hit": false,
      "t": 195908.894999999,
      "d": 435.6056249999965,
      "v": 100
    },
    {
      "midi": 73,
      "hit": false,
      "t": 195908.894999999,
      "d": 435.6056249999965,
      "v": 100
    },
    {
      "midi": 76,
      "hit": false,
      "t": 195908.894999999,
      "d": 435.6056249999965,
      "v": 100
    },
    {
      "midi": 43,
      "hit": false,
      "t": 196363.43999999898,
      "d": 871.211249999993,
      "v": 100
    },
    {
      "midi": 69,
      "hit": false,
      "t": 196363.43999999898,
      "d": 871.211249999993,
      "v": 100
    },
    {
      "midi": 73,
      "hit": false,
      "t": 196363.43999999898,
      "d": 871.211249999993,
      "v": 100
    },
    {
      "midi": 76,
      "hit": false,
      "t": 196363.43999999898,
      "d": 871.211249999993,
      "v": 100
    },
    {
      "midi": 43,
      "hit": false,
      "t": 197272.52999999898,
      "d": 435.6056249999965,
      "v": 100
    },
    {
      "midi": 69,
      "hit": false,
      "t": 197272.52999999898,
      "d": 435.6056249999965,
      "v": 100
    },
    {
      "midi": 73,
      "hit": false,
      "t": 197272.52999999898,
      "d": 435.6056249999965,
      "v": 100
    },
    {
      "midi": 76,
      "hit": false,
      "t": 197272.52999999898,
      "d": 435.6056249999965,
      "v": 100
    },
    {
      "midi": 43,
      "hit": false,
      "t": 197727.07499999896,
      "d": 1306.8168749999895,
      "v": 100
    },
    {
      "midi": 69,
      "hit": false,
      "t": 197727.07499999896,
      "d": 1306.8168749999895,
      "v": 100
    },
    {
      "midi": 73,
      "hit": false,
      "t": 197727.07499999896,
      "d": 1306.8168749999895,
      "v": 100
    },
    {
      "midi": 76,
      "hit": false,
      "t": 197727.07499999896,
      "d": 1306.8168749999895,
      "v": 100
    },
    {
      "midi": 43,
      "hit": false,
      "t": 199090.70999999894,
      "d": 435.6056249999965,
      "v": 100
    },
    {
      "midi": 69,
      "hit": false,
      "t": 199090.70999999894,
      "d": 435.6056249999965,
      "v": 100
    },
    {
      "midi": 73,
      "hit": false,
      "t": 199090.70999999894,
      "d": 435.6056249999965,
      "v": 100
    },
    {
      "midi": 76,
      "hit": false,
      "t": 199090.70999999894,
      "d": 435.6056249999965,
      "v": 100
    },
    {
      "midi": 43,
      "hit": false,
      "t": 199545.25499999893,
      "d": 871.211249999993,
      "v": 100
    },
    {
      "midi": 69,
      "hit": false,
      "t": 199545.25499999893,
      "d": 871.211249999993,
      "v": 100
    },
    {
      "midi": 73,
      "hit": false,
      "t": 199545.25499999893,
      "d": 871.211249999993,
      "v": 100
    },
    {
      "midi": 76,
      "hit": false,
      "t": 199545.25499999893,
      "d": 871.211249999993,
      "v": 100
    },
    {
      "midi": 43,
      "hit": false,
      "t": 200454.34499999892,
      "d": 435.6056249999965,
      "v": 100
    },
    {
      "midi": 69,
      "hit": false,
      "t": 200454.34499999892,
      "d": 435.6056249999965,
      "v": 100
    },
    {
      "midi": 73,
      "hit": false,
      "t": 200454.34499999892,
      "d": 435.6056249999965,
      "v": 100
    },
    {
      "midi": 76,
      "hit": false,
      "t": 200454.34499999892,
      "d": 435.6056249999965,
      "v": 100
    },
    {
      "midi": 50,
      "hit": false,
      "t": 200908.8899999989,
      "d": 1306.8168749999895,
      "v": 100
    },
    {
      "midi": 66,
      "hit": false,
      "t": 200908.8899999989,
      "d": 1306.8168749999895,
      "v": 100
    },
    {
      "midi": 69,
      "hit": false,
      "t": 200908.8899999989,
      "d": 1306.8168749999895,
      "v": 100
    },
    {
      "midi": 74,
      "hit": false,
      "t": 200908.8899999989,
      "d": 1306.8168749999895,
      "v": 100
    },
    {
      "midi": 50,
      "hit": false,
      "t": 202272.5249999989,
      "d": 435.6056249999965,
      "v": 100
    },
    {
      "midi": 66,
      "hit": false,
      "t": 202272.5249999989,
      "d": 435.6056249999965,
      "v": 100
    },
    {
      "midi": 69,
      "hit": false,
      "t": 202272.5249999989,
      "d": 435.6056249999965,
      "v": 100
    },
    {
      "midi": 74,
      "hit": false,
      "t": 202272.5249999989,
      "d": 435.6056249999965,
      "v": 100
    },
    {
      "midi": 50,
      "hit": false,
      "t": 202727.06999999887,
      "d": 871.211249999993,
      "v": 100
    },
    {
      "midi": 66,
      "hit": false,
      "t": 202727.06999999887,
      "d": 871.211249999993,
      "v": 100
    },
    {
      "midi": 69,
      "hit": false,
      "t": 202727.06999999887,
      "d": 871.211249999993,
      "v": 100
    },
    {
      "midi": 74,
      "hit": false,
      "t": 202727.06999999887,
      "d": 871.211249999993,
      "v": 100
    },
    {
      "midi": 50,
      "hit": false,
      "t": 203636.15999999887,
      "d": 435.6056249999965,
      "v": 100
    },
    {
      "midi": 66,
      "hit": false,
      "t": 203636.15999999887,
      "d": 435.6056249999965,
      "v": 100
    },
    {
      "midi": 69,
      "hit": false,
      "t": 203636.15999999887,
      "d": 435.6056249999965,
      "v": 100
    },
    {
      "midi": 74,
      "hit": false,
      "t": 203636.15999999887,
      "d": 435.6056249999965,
      "v": 100
    },
    {
      "midi": 50,
      "hit": false,
      "t": 204090.70499999885,
      "d": 1306.8168749999895,
      "v": 100
    },
    {
      "midi": 66,
      "hit": false,
      "t": 204090.70499999885,
      "d": 1306.8168749999895,
      "v": 100
    },
    {
      "midi": 69,
      "hit": false,
      "t": 204090.70499999885,
      "d": 1306.8168749999895,
      "v": 100
    },
    {
      "midi": 74,
      "hit": false,
      "t": 204090.70499999885,
      "d": 1306.8168749999895,
      "v": 100
    },
    {
      "midi": 50,
      "hit": false,
      "t": 205454.33999999883,
      "d": 435.6056249999965,
      "v": 100
    },
    {
      "midi": 66,
      "hit": false,
      "t": 205454.33999999883,
      "d": 435.6056249999965,
      "v": 100
    },
    {
      "midi": 69,
      "hit": false,
      "t": 205454.33999999883,
      "d": 435.6056249999965,
      "v": 100
    },
    {
      "midi": 74,
      "hit": false,
      "t": 205454.33999999883,
      "d": 435.6056249999965,
      "v": 100
    },
    {
      "midi": 50,
      "hit": false,
      "t": 205908.88499999882,
      "d": 871.211249999993,
      "v": 100
    },
    {
      "midi": 66,
      "hit": false,
      "t": 205908.88499999882,
      "d": 871.211249999993,
      "v": 100
    },
    {
      "midi": 69,
      "hit": false,
      "t": 205908.88499999882,
      "d": 871.211249999993,
      "v": 100
    },
    {
      "midi": 74,
      "hit": false,
      "t": 205908.88499999882,
      "d": 871.211249999993,
      "v": 100
    },
    {
      "midi": 50,
      "hit": false,
      "t": 206817.9749999988,
      "d": 435.6056249999965,
      "v": 100
    },
    {
      "midi": 66,
      "hit": false,
      "t": 206817.9749999988,
      "d": 435.6056249999965,
      "v": 100
    },
    {
      "midi": 69,
      "hit": false,
      "t": 206817.9749999988,
      "d": 435.6056249999965,
      "v": 100
    },
    {
      "midi": 74,
      "hit": false,
      "t": 206817.9749999988,
      "d": 435.6056249999965,
      "v": 100
    },
    {
      "midi": 45,
      "hit": false,
      "t": 207272.5199999988,
      "d": 1306.8168749999895,
      "v": 100
    },
    {
      "midi": 64,
      "hit": false,
      "t": 207272.5199999988,
      "d": 1306.8168749999895,
      "v": 100
    },
    {
      "midi": 67,
      "hit": false,
      "t": 207272.5199999988,
      "d": 1306.8168749999895,
      "v": 100
    },
    {
      "midi": 71,
      "hit": false,
      "t": 207272.5199999988,
      "d": 1306.8168749999895,
      "v": 100
    },
    {
      "midi": 74,
      "hit": false,
      "t": 207272.5199999988,
      "d": 1306.8168749999895,
      "v": 100
    },
    {
      "midi": 45,
      "hit": false,
      "t": 208636.15499999878,
      "d": 435.6056249999965,
      "v": 97
    },
    {
      "midi": 64,
      "hit": false,
      "t": 208636.15499999878,
      "d": 435.6056249999965,
      "v": 97
    },
    {
      "midi": 67,
      "hit": false,
      "t": 208636.15499999878,
      "d": 435.6056249999965,
      "v": 97
    },
    {
      "midi": 71,
      "hit": false,
      "t": 208636.15499999878,
      "d": 435.6056249999965,
      "v": 97
    },
    {
      "midi": 74,
      "hit": false,
      "t": 208636.15499999878,
      "d": 435.6056249999965,
      "v": 97
    },
    {
      "midi": 45,
      "hit": false,
      "t": 209090.69999999876,
      "d": 871.211249999993,
      "v": 96
    },
    {
      "midi": 64,
      "hit": false,
      "t": 209090.69999999876,
      "d": 871.211249999993,
      "v": 96
    },
    {
      "midi": 67,
      "hit": false,
      "t": 209090.69999999876,
      "d": 871.211249999993,
      "v": 96
    },
    {
      "midi": 71,
      "hit": false,
      "t": 209090.69999999876,
      "d": 871.211249999993,
      "v": 96
    },
    {
      "midi": 74,
      "hit": false,
      "t": 209090.69999999876,
      "d": 871.211249999993,
      "v": 96
    },
    {
      "midi": 45,
      "hit": false,
      "t": 209999.78999999876,
      "d": 435.6056249999965,
      "v": 94
    },
    {
      "midi": 64,
      "hit": false,
      "t": 209999.78999999876,
      "d": 435.6056249999965,
      "v": 94
    },
    {
      "midi": 67,
      "hit": false,
      "t": 209999.78999999876,
      "d": 435.6056249999965,
      "v": 94
    },
    {
      "midi": 71,
      "hit": false,
      "t": 209999.78999999876,
      "d": 435.6056249999965,
      "v": 94
    },
    {
      "midi": 74,
      "hit": false,
      "t": 209999.78999999876,
      "d": 435.6056249999965,
      "v": 94
    },
    {
      "midi": 45,
      "hit": false,
      "t": 210454.33499999874,
      "d": 1306.8168749999895,
      "v": 93
    },
    {
      "midi": 64,
      "hit": false,
      "t": 210454.33499999874,
      "d": 1306.8168749999895,
      "v": 93
    },
    {
      "midi": 67,
      "hit": false,
      "t": 210454.33499999874,
      "d": 1306.8168749999895,
      "v": 93
    },
    {
      "midi": 71,
      "hit": false,
      "t": 210454.33499999874,
      "d": 1306.8168749999895,
      "v": 93
    },
    {
      "midi": 74,
      "hit": false,
      "t": 210454.33499999874,
      "d": 1306.8168749999895,
      "v": 93
    },
    {
      "midi": 45,
      "hit": false,
      "t": 211817.96999999872,
      "d": 435.6056249999965,
      "v": 90
    },
    {
      "midi": 64,
      "hit": false,
      "t": 211817.96999999872,
      "d": 435.6056249999965,
      "v": 90
    },
    {
      "midi": 67,
      "hit": false,
      "t": 211817.96999999872,
      "d": 435.6056249999965,
      "v": 90
    },
    {
      "midi": 71,
      "hit": false,
      "t": 211817.96999999872,
      "d": 435.6056249999965,
      "v": 90
    },
    {
      "midi": 74,
      "hit": false,
      "t": 211817.96999999872,
      "d": 435.6056249999965,
      "v": 90
    },
    {
      "midi": 45,
      "hit": false,
      "t": 212272.5149999987,
      "d": 871.211249999993,
      "v": 89
    },
    {
      "midi": 64,
      "hit": false,
      "t": 212272.5149999987,
      "d": 871.211249999993,
      "v": 89
    },
    {
      "midi": 67,
      "hit": false,
      "t": 212272.5149999987,
      "d": 871.211249999993,
      "v": 89
    },
    {
      "midi": 71,
      "hit": false,
      "t": 212272.5149999987,
      "d": 871.211249999993,
      "v": 89
    },
    {
      "midi": 74,
      "hit": false,
      "t": 212272.5149999987,
      "d": 871.211249999993,
      "v": 89
    },
    {
      "midi": 45,
      "hit": false,
      "t": 213181.6049999987,
      "d": 435.6056249999965,
      "v": 87
    },
    {
      "midi": 64,
      "hit": false,
      "t": 213181.6049999987,
      "d": 435.6056249999965,
      "v": 87
    },
    {
      "midi": 67,
      "hit": false,
      "t": 213181.6049999987,
      "d": 435.6056249999965,
      "v": 87
    },
    {
      "midi": 71,
      "hit": false,
      "t": 213181.6049999987,
      "d": 435.6056249999965,
      "v": 87
    },
    {
      "midi": 74,
      "hit": false,
      "t": 213181.6049999987,
      "d": 435.6056249999965,
      "v": 87
    },
    {
      "midi": 50,
      "hit": false,
      "t": 213636.14999999868,
      "d": 1306.8168749999895,
      "v": 85
    },
    {
      "midi": 67,
      "hit": false,
      "t": 213636.14999999868,
      "d": 1306.8168749999895,
      "v": 85
    },
    {
      "midi": 72,
      "hit": false,
      "t": 213636.14999999868,
      "d": 1306.8168749999895,
      "v": 85
    },
    {
      "midi": 76,
      "hit": false,
      "t": 213636.14999999868,
      "d": 1306.8168749999895,
      "v": 85
    },
    {
      "midi": 50,
      "hit": false,
      "t": 214999.78499999866,
      "d": 435.6056249999965,
      "v": 82
    },
    {
      "midi": 67,
      "hit": false,
      "t": 214999.78499999866,
      "d": 435.6056249999965,
      "v": 82
    },
    {
      "midi": 72,
      "hit": false,
      "t": 214999.78499999866,
      "d": 435.6056249999965,
      "v": 82
    },
    {
      "midi": 76,
      "hit": false,
      "t": 214999.78499999866,
      "d": 435.6056249999965,
      "v": 82
    },
    {
      "midi": 50,
      "hit": false,
      "t": 215454.32999999865,
      "d": 871.211249999993,
      "v": 81
    },
    {
      "midi": 67,
      "hit": false,
      "t": 215454.32999999865,
      "d": 871.211249999993,
      "v": 81
    },
    {
      "midi": 72,
      "hit": false,
      "t": 215454.32999999865,
      "d": 871.211249999993,
      "v": 81
    },
    {
      "midi": 76,
      "hit": false,
      "t": 215454.32999999865,
      "d": 871.211249999993,
      "v": 81
    },
    {
      "midi": 50,
      "hit": false,
      "t": 216363.41999999864,
      "d": 435.6056249999965,
      "v": 79
    },
    {
      "midi": 67,
      "hit": false,
      "t": 216363.41999999864,
      "d": 435.6056249999965,
      "v": 79
    },
    {
      "midi": 72,
      "hit": false,
      "t": 216363.41999999864,
      "d": 435.6056249999965,
      "v": 79
    },
    {
      "midi": 76,
      "hit": false,
      "t": 216363.41999999864,
      "d": 435.6056249999965,
      "v": 79
    },
    {
      "midi": 50,
      "hit": false,
      "t": 216817.96499999863,
      "d": 1306.8168749999895,
      "v": 78
    },
    {
      "midi": 67,
      "hit": false,
      "t": 216817.96499999863,
      "d": 1306.8168749999895,
      "v": 78
    },
    {
      "midi": 72,
      "hit": false,
      "t": 216817.96499999863,
      "d": 1306.8168749999895,
      "v": 78
    },
    {
      "midi": 76,
      "hit": false,
      "t": 216817.96499999863,
      "d": 1306.8168749999895,
      "v": 78
    },
    {
      "midi": 50,
      "hit": false,
      "t": 218181.5999999986,
      "d": 435.6056249999965,
      "v": 75
    },
    {
      "midi": 67,
      "hit": false,
      "t": 218181.5999999986,
      "d": 435.6056249999965,
      "v": 75
    },
    {
      "midi": 72,
      "hit": false,
      "t": 218181.5999999986,
      "d": 435.6056249999965,
      "v": 75
    },
    {
      "midi": 76,
      "hit": false,
      "t": 218181.5999999986,
      "d": 435.6056249999965,
      "v": 75
    },
    {
      "midi": 50,
      "hit": false,
      "t": 218636.1449999986,
      "d": 871.211249999993,
      "v": 74
    },
    {
      "midi": 67,
      "hit": false,
      "t": 218636.1449999986,
      "d": 871.211249999993,
      "v": 74
    },
    {
      "midi": 72,
      "hit": false,
      "t": 218636.1449999986,
      "d": 871.211249999993,
      "v": 74
    },
    {
      "midi": 76,
      "hit": false,
      "t": 218636.1449999986,
      "d": 871.211249999993,
      "v": 74
    },
    {
      "midi": 50,
      "hit": false,
      "t": 219545.2349999986,
      "d": 435.6056249999965,
      "v": 72
    },
    {
      "midi": 67,
      "hit": false,
      "t": 219545.2349999986,
      "d": 435.6056249999965,
      "v": 72
    },
    {
      "midi": 72,
      "hit": false,
      "t": 219545.2349999986,
      "d": 435.6056249999965,
      "v": 72
    },
    {
      "midi": 76,
      "hit": false,
      "t": 219545.2349999986,
      "d": 435.6056249999965,
      "v": 72
    },
    {
      "midi": 41,
      "hit": false,
      "t": 219999.77999999857,
      "d": 1306.8168749999895,
      "v": 70
    },
    {
      "midi": 69,
      "hit": false,
      "t": 219999.77999999857,
      "d": 1306.8168749999895,
      "v": 70
    },
    {
      "midi": 71,
      "hit": false,
      "t": 219999.77999999857,
      "d": 1306.8168749999895,
      "v": 70
    },
    {
      "midi": 72,
      "hit": false,
      "t": 219999.77999999857,
      "d": 1306.8168749999895,
      "v": 70
    },
    {
      "midi": 76,
      "hit": false,
      "t": 219999.77999999857,
      "d": 1306.8168749999895,
      "v": 70
    },
    {
      "midi": 41,
      "hit": false,
      "t": 221363.41499999855,
      "d": 435.6056249999965,
      "v": 67
    },
    {
      "midi": 69,
      "hit": false,
      "t": 221363.41499999855,
      "d": 435.6056249999965,
      "v": 67
    },
    {
      "midi": 71,
      "hit": false,
      "t": 221363.41499999855,
      "d": 435.6056249999965,
      "v": 67
    },
    {
      "midi": 72,
      "hit": false,
      "t": 221363.41499999855,
      "d": 435.6056249999965,
      "v": 67
    },
    {
      "midi": 76,
      "hit": false,
      "t": 221363.41499999855,
      "d": 435.6056249999965,
      "v": 67
    },
    {
      "midi": 41,
      "hit": false,
      "t": 221817.95999999854,
      "d": 871.211249999993,
      "v": 66
    },
    {
      "midi": 69,
      "hit": false,
      "t": 221817.95999999854,
      "d": 871.211249999993,
      "v": 66
    },
    {
      "midi": 71,
      "hit": false,
      "t": 221817.95999999854,
      "d": 871.211249999993,
      "v": 66
    },
    {
      "midi": 72,
      "hit": false,
      "t": 221817.95999999854,
      "d": 871.211249999993,
      "v": 66
    },
    {
      "midi": 76,
      "hit": false,
      "t": 221817.95999999854,
      "d": 871.211249999993,
      "v": 66
    },
    {
      "midi": 41,
      "hit": false,
      "t": 222727.04999999853,
      "d": 435.6056249999965,
      "v": 64
    },
    {
      "midi": 69,
      "hit": false,
      "t": 222727.04999999853,
      "d": 435.6056249999965,
      "v": 64
    },
    {
      "midi": 71,
      "hit": false,
      "t": 222727.04999999853,
      "d": 435.6056249999965,
      "v": 64
    },
    {
      "midi": 72,
      "hit": false,
      "t": 222727.04999999853,
      "d": 435.6056249999965,
      "v": 64
    },
    {
      "midi": 76,
      "hit": false,
      "t": 222727.04999999853,
      "d": 435.6056249999965,
      "v": 64
    },
    {
      "midi": 41,
      "hit": false,
      "t": 223181.59499999852,
      "d": 1306.8168749999895,
      "v": 63
    },
    {
      "midi": 69,
      "hit": false,
      "t": 223181.59499999852,
      "d": 1306.8168749999895,
      "v": 63
    },
    {
      "midi": 71,
      "hit": false,
      "t": 223181.59499999852,
      "d": 1306.8168749999895,
      "v": 63
    },
    {
      "midi": 72,
      "hit": false,
      "t": 223181.59499999852,
      "d": 1306.8168749999895,
      "v": 63
    },
    {
      "midi": 76,
      "hit": false,
      "t": 223181.59499999852,
      "d": 1306.8168749999895,
      "v": 63
    },
    {
      "midi": 41,
      "hit": false,
      "t": 224545.2299999985,
      "d": 435.6056249999965,
      "v": 60
    },
    {
      "midi": 69,
      "hit": false,
      "t": 224545.2299999985,
      "d": 435.6056249999965,
      "v": 60
    },
    {
      "midi": 71,
      "hit": false,
      "t": 224545.2299999985,
      "d": 435.6056249999965,
      "v": 60
    },
    {
      "midi": 72,
      "hit": false,
      "t": 224545.2299999985,
      "d": 435.6056249999965,
      "v": 60
    },
    {
      "midi": 76,
      "hit": false,
      "t": 224545.2299999985,
      "d": 435.6056249999965,
      "v": 60
    },
    {
      "midi": 41,
      "hit": false,
      "t": 224999.77499999848,
      "d": 871.211249999993,
      "v": 59
    },
    {
      "midi": 69,
      "hit": false,
      "t": 224999.77499999848,
      "d": 871.211249999993,
      "v": 59
    },
    {
      "midi": 71,
      "hit": false,
      "t": 224999.77499999848,
      "d": 871.211249999993,
      "v": 59
    },
    {
      "midi": 72,
      "hit": false,
      "t": 224999.77499999848,
      "d": 871.211249999993,
      "v": 59
    },
    {
      "midi": 76,
      "hit": false,
      "t": 224999.77499999848,
      "d": 871.211249999993,
      "v": 59
    },
    {
      "midi": 41,
      "hit": false,
      "t": 225908.86499999848,
      "d": 435.6056249999965,
      "v": 57
    },
    {
      "midi": 69,
      "hit": false,
      "t": 225908.86499999848,
      "d": 435.6056249999965,
      "v": 57
    },
    {
      "midi": 71,
      "hit": false,
      "t": 225908.86499999848,
      "d": 435.6056249999965,
      "v": 57
    },
    {
      "midi": 72,
      "hit": false,
      "t": 225908.86499999848,
      "d": 435.6056249999965,
      "v": 57
    },
    {
      "midi": 76,
      "hit": false,
      "t": 225908.86499999848,
      "d": 435.6056249999965,
      "v": 57
    },
    {
      "midi": 41,
      "hit": false,
      "t": 226363.40999999846,
      "d": 1306.8168749999895,
      "v": 55
    },
    {
      "midi": 67,
      "hit": false,
      "t": 226363.40999999846,
      "d": 1306.8168749999895,
      "v": 55
    },
    {
      "midi": 70,
      "hit": false,
      "t": 226363.40999999846,
      "d": 1306.8168749999895,
      "v": 55
    },
    {
      "midi": 75,
      "hit": false,
      "t": 226363.40999999846,
      "d": 1306.8168749999895,
      "v": 55
    },
    {
      "midi": 41,
      "hit": false,
      "t": 227727.04499999844,
      "d": 435.6056249999965,
      "v": 52
    },
    {
      "midi": 67,
      "hit": false,
      "t": 227727.04499999844,
      "d": 435.6056249999965,
      "v": 52
    },
    {
      "midi": 70,
      "hit": false,
      "t": 227727.04499999844,
      "d": 435.6056249999965,
      "v": 52
    },
    {
      "midi": 75,
      "hit": false,
      "t": 227727.04499999844,
      "d": 435.6056249999965,
      "v": 52
    },
    {
      "midi": 41,
      "hit": false,
      "t": 228181.58999999842,
      "d": 871.211249999993,
      "v": 51
    },
    {
      "midi": 67,
      "hit": false,
      "t": 228181.58999999842,
      "d": 871.211249999993,
      "v": 51
    },
    {
      "midi": 70,
      "hit": false,
      "t": 228181.58999999842,
      "d": 871.211249999993,
      "v": 51
    },
    {
      "midi": 75,
      "hit": false,
      "t": 228181.58999999842,
      "d": 871.211249999993,
      "v": 51
    },
    {
      "midi": 41,
      "hit": false,
      "t": 229090.67999999842,
      "d": 435.6056249999965,
      "v": 49
    },
    {
      "midi": 67,
      "hit": false,
      "t": 229090.67999999842,
      "d": 435.6056249999965,
      "v": 49
    },
    {
      "midi": 70,
      "hit": false,
      "t": 229090.67999999842,
      "d": 435.6056249999965,
      "v": 49
    },
    {
      "midi": 75,
      "hit": false,
      "t": 229090.67999999842,
      "d": 435.6056249999965,
      "v": 49
    },
    {
      "midi": 41,
      "hit": false,
      "t": 229545.2249999984,
      "d": 1306.8168749999895,
      "v": 48
    },
    {
      "midi": 67,
      "hit": false,
      "t": 229545.2249999984,
      "d": 1306.8168749999895,
      "v": 48
    },
    {
      "midi": 70,
      "hit": false,
      "t": 229545.2249999984,
      "d": 1306.8168749999895,
      "v": 48
    },
    {
      "midi": 75,
      "hit": false,
      "t": 229545.2249999984,
      "d": 1306.8168749999895,
      "v": 48
    },
    {
      "midi": 41,
      "hit": false,
      "t": 230908.85999999839,
      "d": 435.6056249999965,
      "v": 45
    },
    {
      "midi": 67,
      "hit": false,
      "t": 230908.85999999839,
      "d": 435.6056249999965,
      "v": 45
    },
    {
      "midi": 70,
      "hit": false,
      "t": 230908.85999999839,
      "d": 435.6056249999965,
      "v": 45
    },
    {
      "midi": 75,
      "hit": false,
      "t": 230908.85999999839,
      "d": 435.6056249999965,
      "v": 45
    },
    {
      "midi": 41,
      "hit": false,
      "t": 231363.40499999837,
      "d": 871.211249999993,
      "v": 44
    },
    {
      "midi": 67,
      "hit": false,
      "t": 231363.40499999837,
      "d": 871.211249999993,
      "v": 44
    },
    {
      "midi": 70,
      "hit": false,
      "t": 231363.40499999837,
      "d": 871.211249999993,
      "v": 44
    },
    {
      "midi": 75,
      "hit": false,
      "t": 231363.40499999837,
      "d": 871.211249999993,
      "v": 44
    },
    {
      "midi": 41,
      "hit": false,
      "t": 232272.49499999837,
      "d": 435.6056249999965,
      "v": 42
    },
    {
      "midi": 67,
      "hit": false,
      "t": 232272.49499999837,
      "d": 435.6056249999965,
      "v": 42
    },
    {
      "midi": 70,
      "hit": false,
      "t": 232272.49499999837,
      "d": 435.6056249999965,
      "v": 42
    },
    {
      "midi": 75,
      "hit": false,
      "t": 232272.49499999837,
      "d": 435.6056249999965,
      "v": 42
    },
    {
      "midi": 43,
      "hit": false,
      "t": 232727.03999999835,
      "d": 1306.8168749999895,
      "v": 40
    },
    {
      "midi": 69,
      "hit": false,
      "t": 232727.03999999835,
      "d": 1306.8168749999895,
      "v": 40
    },
    {
      "midi": 73,
      "hit": false,
      "t": 232727.03999999835,
      "d": 1306.8168749999895,
      "v": 40
    },
    {
      "midi": 76,
      "hit": false,
      "t": 232727.03999999835,
      "d": 1306.8168749999895,
      "v": 40
    },
    {
      "midi": 43,
      "hit": false,
      "t": 234090.67499999833,
      "d": 435.6056249999965,
      "v": 37
    },
    {
      "midi": 69,
      "hit": false,
      "t": 234090.67499999833,
      "d": 435.6056249999965,
      "v": 37
    },
    {
      "midi": 73,
      "hit": false,
      "t": 234090.67499999833,
      "d": 435.6056249999965,
      "v": 37
    },
    {
      "midi": 76,
      "hit": false,
      "t": 234090.67499999833,
      "d": 435.6056249999965,
      "v": 37
    },
    {
      "midi": 43,
      "hit": false,
      "t": 234545.2199999983,
      "d": 871.211249999993,
      "v": 36
    },
    {
      "midi": 69,
      "hit": false,
      "t": 234545.2199999983,
      "d": 871.211249999993,
      "v": 36
    },
    {
      "midi": 73,
      "hit": false,
      "t": 234545.2199999983,
      "d": 871.211249999993,
      "v": 36
    },
    {
      "midi": 76,
      "hit": false,
      "t": 234545.2199999983,
      "d": 871.211249999993,
      "v": 36
    },
    {
      "midi": 43,
      "hit": false,
      "t": 235454.3099999983,
      "d": 435.6056249999965,
      "v": 34
    },
    {
      "midi": 69,
      "hit": false,
      "t": 235454.3099999983,
      "d": 435.6056249999965,
      "v": 34
    },
    {
      "midi": 73,
      "hit": false,
      "t": 235454.3099999983,
      "d": 435.6056249999965,
      "v": 34
    },
    {
      "midi": 76,
      "hit": false,
      "t": 235454.3099999983,
      "d": 435.6056249999965,
      "v": 34
    },
    {
      "midi": 43,
      "hit": false,
      "t": 235908.8549999983,
      "d": 1306.8168749999895,
      "v": 33
    },
    {
      "midi": 69,
      "hit": false,
      "t": 235908.8549999983,
      "d": 1306.8168749999895,
      "v": 33
    },
    {
      "midi": 73,
      "hit": false,
      "t": 235908.8549999983,
      "d": 1306.8168749999895,
      "v": 33
    },
    {
      "midi": 76,
      "hit": false,
      "t": 235908.8549999983,
      "d": 1306.8168749999895,
      "v": 33
    },
    {
      "midi": 43,
      "hit": false,
      "t": 237272.48999999827,
      "d": 435.6056249999965,
      "v": 30
    },
    {
      "midi": 69,
      "hit": false,
      "t": 237272.48999999827,
      "d": 435.6056249999965,
      "v": 30
    },
    {
      "midi": 73,
      "hit": false,
      "t": 237272.48999999827,
      "d": 435.6056249999965,
      "v": 30
    },
    {
      "midi": 76,
      "hit": false,
      "t": 237272.48999999827,
      "d": 435.6056249999965,
      "v": 30
    },
    {
      "midi": 43,
      "hit": false,
      "t": 237727.03499999826,
      "d": 871.211249999993,
      "v": 29
    },
    {
      "midi": 69,
      "hit": false,
      "t": 237727.03499999826,
      "d": 871.211249999993,
      "v": 29
    },
    {
      "midi": 73,
      "hit": false,
      "t": 237727.03499999826,
      "d": 871.211249999993,
      "v": 29
    },
    {
      "midi": 76,
      "hit": false,
      "t": 237727.03499999826,
      "d": 871.211249999993,
      "v": 29
    },
    {
      "midi": 43,
      "hit": false,
      "t": 238636.12499999825,
      "d": 435.6056249999965,
      "v": 27
    },
    {
      "midi": 69,
      "hit": false,
      "t": 238636.12499999825,
      "d": 435.6056249999965,
      "v": 27
    },
    {
      "midi": 73,
      "hit": false,
      "t": 238636.12499999825,
      "d": 435.6056249999965,
      "v": 27
    },
    {
      "midi": 76,
      "hit": false,
      "t": 238636.12499999825,
      "d": 435.6056249999965,
      "v": 27
    },
    {
      "midi": 50,
      "hit": false,
      "t": 239090.66999999824,
      "d": 1306.8168749999895,
      "v": 25
    },
    {
      "midi": 66,
      "hit": false,
      "t": 239090.66999999824,
      "d": 1306.8168749999895,
      "v": 25
    },
    {
      "midi": 69,
      "hit": false,
      "t": 239090.66999999824,
      "d": 1306.8168749999895,
      "v": 25
    },
    {
      "midi": 74,
      "hit": false,
      "t": 239090.66999999824,
      "d": 1306.8168749999895,
      "v": 25
    },
    {
      "midi": 50,
      "hit": false,
      "t": 240454.30499999822,
      "d": 435.6056249999965,
      "v": 22
    },
    {
      "midi": 66,
      "hit": false,
      "t": 240454.30499999822,
      "d": 435.6056249999965,
      "v": 22
    },
    {
      "midi": 69,
      "hit": false,
      "t": 240454.30499999822,
      "d": 435.6056249999965,
      "v": 22
    },
    {
      "midi": 74,
      "hit": false,
      "t": 240454.30499999822,
      "d": 435.6056249999965,
      "v": 22
    },
    {
      "midi": 50,
      "hit": false,
      "t": 240908.8499999982,
      "d": 871.211249999993,
      "v": 21
    },
    {
      "midi": 66,
      "hit": false,
      "t": 240908.8499999982,
      "d": 871.211249999993,
      "v": 21
    },
    {
      "midi": 69,
      "hit": false,
      "t": 240908.8499999982,
      "d": 871.211249999993,
      "v": 21
    },
    {
      "midi": 74,
      "hit": false,
      "t": 240908.8499999982,
      "d": 871.211249999993,
      "v": 21
    },
    {
      "midi": 50,
      "hit": false,
      "t": 241817.9399999982,
      "d": 435.6056249999965,
      "v": 19
    },
    {
      "midi": 66,
      "hit": false,
      "t": 241817.9399999982,
      "d": 435.6056249999965,
      "v": 19
    },
    {
      "midi": 69,
      "hit": false,
      "t": 241817.9399999982,
      "d": 435.6056249999965,
      "v": 19
    },
    {
      "midi": 74,
      "hit": false,
      "t": 241817.9399999982,
      "d": 435.6056249999965,
      "v": 19
    },
    {
      "midi": 50,
      "hit": false,
      "t": 242272.48499999818,
      "d": 1306.8168749999895,
      "v": 18
    },
    {
      "midi": 66,
      "hit": false,
      "t": 242272.48499999818,
      "d": 1306.8168749999895,
      "v": 18
    },
    {
      "midi": 69,
      "hit": false,
      "t": 242272.48499999818,
      "d": 1306.8168749999895,
      "v": 18
    },
    {
      "midi": 74,
      "hit": false,
      "t": 242272.48499999818,
      "d": 1306.8168749999895,
      "v": 18
    },
    {
      "midi": 50,
      "hit": false,
      "t": 243636.11999999816,
      "d": 435.6056249999965,
      "v": 15
    },
    {
      "midi": 66,
      "hit": false,
      "t": 243636.11999999816,
      "d": 435.6056249999965,
      "v": 15
    },
    {
      "midi": 69,
      "hit": false,
      "t": 243636.11999999816,
      "d": 435.6056249999965,
      "v": 15
    },
    {
      "midi": 74,
      "hit": false,
      "t": 243636.11999999816,
      "d": 435.6056249999965,
      "v": 15
    },
    {
      "midi": 50,
      "hit": false,
      "t": 244090.66499999815,
      "d": 871.211249999993,
      "v": 14
    },
    {
      "midi": 66,
      "hit": false,
      "t": 244090.66499999815,
      "d": 871.211249999993,
      "v": 14
    },
    {
      "midi": 69,
      "hit": false,
      "t": 244090.66499999815,
      "d": 871.211249999993,
      "v": 14
    },
    {
      "midi": 74,
      "hit": false,
      "t": 244090.66499999815,
      "d": 871.211249999993,
      "v": 14
    },
    {
      "midi": 50,
      "hit": false,
      "t": 244999.75499999814,
      "d": 435.6056249999965,
      "v": 12
    },
    {
      "midi": 66,
      "hit": false,
      "t": 244999.75499999814,
      "d": 435.6056249999965,
      "v": 12
    },
    {
      "midi": 69,
      "hit": false,
      "t": 244999.75499999814,
      "d": 435.6056249999965,
      "v": 12
    },
    {
      "midi": 74,
      "hit": false,
      "t": 244999.75499999814,
      "d": 435.6056249999965,
      "v": 12
    }
  ]
}