{
  "jsonPath": "Unknown/Unknown/The New Musical Cast/da-doo.json",
  "path": "Unknown\\Unknown\\The New Musical Cast\\Da Doo.mid",
  "name": "Da Doo",
  "difficulty": "Advanced",
  "bpm": 180.00018000018,
  "notes": [
    {
      "midi": 80,
      "hit": false,
      "t": 4000.0020000000004,
      "d": 161.11119166666685,
      "v": 79
    },
    {
      "midi": 84,
      "hit": false,
      "t": 4000.0020000000004,
      "d": 161.11119166666685,
      "v": 97
    },
    {
      "midi": 87,
      "hit": false,
      "t": 4000.0020000000004,
      "d": 161.11119166666685,
      "v": 91
    },
    {
      "midi": 68,
      "hit": false,
      "t": 4000.0020000000004,
      "d": 1327.778441666669,
      "v": 87
    },
    {
      "midi": 80,
      "hit": false,
      "t": 4333.335500000001,
      "d": 161.11119166666685,
      "v": 88
    },
    {
      "midi": 84,
      "hit": false,
      "t": 4333.335500000001,
      "d": 161.11119166666685,
      "v": 95
    },
    {
      "midi": 87,
      "hit": false,
      "t": 4333.335500000001,
      "d": 161.11119166666685,
      "v": 93
    },
    {
      "midi": 80,
      "hit": false,
      "t": 4666.669000000002,
      "d": 161.11119166666685,
      "v": 84
    },
    {
      "midi": 84,
      "hit": false,
      "t": 4666.669000000002,
      "d": 161.11119166666685,
      "v": 98
    },
    {
      "midi": 87,
      "hit": false,
      "t": 4666.669000000002,
      "d": 161.11119166666685,
      "v": 91
    },
    {
      "midi": 80,
      "hit": false,
      "t": 5000.002500000002,
      "d": 161.11119166666685,
      "v": 87
    },
    {
      "midi": 84,
      "hit": false,
      "t": 5000.002500000002,
      "d": 161.11119166666685,
      "v": 94
    },
    {
      "midi": 87,
      "hit": false,
      "t": 5000.002500000002,
      "d": 161.11119166666685,
      "v": 91
    },
    {
      "midi": 80,
      "hit": false,
      "t": 5333.336000000003,
      "d": 161.11119166666685,
      "v": 84
    },
    {
      "midi": 84,
      "hit": false,
      "t": 5333.336000000003,
      "d": 161.11119166666685,
      "v": 92
    },
    {
      "midi": 87,
      "hit": false,
      "t": 5333.336000000003,
      "d": 161.11119166666685,
      "v": 90
    },
    {
      "midi": 80,
      "hit": false,
      "t": 5666.669500000004,
      "d": 161.11119166666685,
      "v": 84
    },
    {
      "midi": 84,
      "hit": false,
      "t": 5666.669500000004,
      "d": 161.11119166666685,
      "v": 90
    },
    {
      "midi": 87,
      "hit": false,
      "t": 5666.669500000004,
      "d": 161.11119166666685,
      "v": 88
    },
    {
      "midi": 72,
      "hit": false,
      "t": 5666.669500000004,
      "d": 327.7779416666672,
      "v": 99
    },
    {
      "midi": 80,
      "hit": false,
      "t": 6000.003000000004,
      "d": 161.11119166666685,
      "v": 85
    },
    {
      "midi": 84,
      "hit": false,
      "t": 6000.003000000004,
      "d": 161.11119166666685,
      "v": 92
    },
    {
      "midi": 87,
      "hit": false,
      "t": 6000.003000000004,
      "d": 161.11119166666685,
      "v": 88
    },
    {
      "midi": 75,
      "hit": false,
      "t": 6000.003000000004,
      "d": 994.4449416666685,
      "v": 90
    },
    {
      "midi": 80,
      "hit": false,
      "t": 6333.336500000005,
      "d": 161.11119166666685,
      "v": 86
    },
    {
      "midi": 84,
      "hit": false,
      "t": 6333.336500000005,
      "d": 161.11119166666685,
      "v": 94
    },
    {
      "midi": 87,
      "hit": false,
      "t": 6333.336500000005,
      "d": 161.11119166666685,
      "v": 88
    },
    {
      "midi": 80,
      "hit": false,
      "t": 6666.6700000000055,
      "d": 161.11119166666685,
      "v": 83
    },
    {
      "midi": 84,
      "hit": false,
      "t": 6666.6700000000055,
      "d": 161.11119166666685,
      "v": 92
    },
    {
      "midi": 87,
      "hit": false,
      "t": 6666.6700000000055,
      "d": 161.11119166666685,
      "v": 89
    },
    {
      "midi": 80,
      "hit": false,
      "t": 7000.003500000006,
      "d": 161.11119166666685,
      "v": 84
    },
    {
      "midi": 84,
      "hit": false,
      "t": 7000.003500000006,
      "d": 161.11119166666685,
      "v": 94
    },
    {
      "midi": 87,
      "hit": false,
      "t": 7000.003500000006,
      "d": 161.11119166666685,
      "v": 89
    },
    {
      "midi": 72,
      "hit": false,
      "t": 7000.003500000006,
      "d": 661.1114416666678,
      "v": 93
    },
    {
      "midi": 80,
      "hit": false,
      "t": 7333.337000000007,
      "d": 161.11119166666685,
      "v": 86
    },
    {
      "midi": 84,
      "hit": false,
      "t": 7333.337000000007,
      "d": 161.11119166666685,
      "v": 92
    },
    {
      "midi": 87,
      "hit": false,
      "t": 7333.337000000007,
      "d": 161.11119166666685,
      "v": 90
    },
    {
      "midi": 80,
      "hit": false,
      "t": 7666.670500000007,
      "d": 161.11119166666685,
      "v": 86
    },
    {
      "midi": 84,
      "hit": false,
      "t": 7666.670500000007,
      "d": 161.11119166666685,
      "v": 94
    },
    {
      "midi": 87,
      "hit": false,
      "t": 7666.670500000007,
      "d": 161.11119166666685,
      "v": 91
    },
    {
      "midi": 75,
      "hit": false,
      "t": 7666.670500000007,
      "d": 327.7779416666672,
      "v": 94
    },
    {
      "midi": 80,
      "hit": false,
      "t": 8000.004000000008,
      "d": 161.11119166666685,
      "v": 89
    },
    {
      "midi": 84,
      "hit": false,
      "t": 8000.004000000008,
      "d": 161.11119166666685,
      "v": 99
    },
    {
      "midi": 87,
      "hit": false,
      "t": 8000.004000000008,
      "d": 161.11119166666685,
      "v": 96
    },
    {
      "midi": 68,
      "hit": false,
      "t": 8000.004000000008,
      "d": 1327.778441666669,
      "v": 89
    },
    {
      "midi": 80,
      "hit": false,
      "t": 8333.337500000009,
      "d": 161.11119166666685,
      "v": 83
    },
    {
      "midi": 84,
      "hit": false,
      "t": 8333.337500000009,
      "d": 161.11119166666685,
      "v": 93
    },
    {
      "midi": 87,
      "hit": false,
      "t": 8333.337500000009,
      "d": 161.11119166666685,
      "v": 87
    },
    {
      "midi": 80,
      "hit": false,
      "t": 8666.67100000001,
      "d": 161.11119166666685,
      "v": 91
    },
    {
      "midi": 84,
      "hit": false,
      "t": 8666.67100000001,
      "d": 161.11119166666685,
      "v": 98
    },
    {
      "midi": 87,
      "hit": false,
      "t": 8666.67100000001,
      "d": 161.11119166666685,
      "v": 92
    },
    {
      "midi": 80,
      "hit": false,
      "t": 9000.00450000001,
      "d": 161.11119166666685,
      "v": 84
    },
    {
      "midi": 84,
      "hit": false,
      "t": 9000.00450000001,
      "d": 161.11119166666685,
      "v": 94
    },
    {
      "midi": 87,
      "hit": false,
      "t": 9000.00450000001,
      "d": 161.11119166666685,
      "v": 89
    },
    {
      "midi": 80,
      "hit": false,
      "t": 9333.33800000001,
      "d": 161.11119166666685,
      "v": 86
    },
    {
      "midi": 84,
      "hit": false,
      "t": 9333.33800000001,
      "d": 161.11119166666685,
      "v": 92
    },
    {
      "midi": 87,
      "hit": false,
      "t": 9333.33800000001,
      "d": 161.11119166666685,
      "v": 89
    },
    {
      "midi": 80,
      "hit": false,
      "t": 9666.671500000011,
      "d": 161.11119166666685,
      "v": 85
    },
    {
      "midi": 84,
      "hit": false,
      "t": 9666.671500000011,
      "d": 161.11119166666685,
      "v": 94
    },
    {
      "midi": 87,
      "hit": false,
      "t": 9666.671500000011,
      "d": 161.11119166666685,
      "v": 90
    },
    {
      "midi": 72,
      "hit": false,
      "t": 9666.671500000011,
      "d": 327.7779416666672,
      "v": 93
    },
    {
      "midi": 80,
      "hit": false,
      "t": 10000.005000000012,
      "d": 161.11119166666685,
      "v": 87
    },
    {
      "midi": 84,
      "hit": false,
      "t": 10000.005000000012,
      "d": 161.11119166666685,
      "v": 95
    },
    {
      "midi": 87,
      "hit": false,
      "t": 10000.005000000012,
      "d": 161.11119166666685,
      "v": 90
    },
    {
      "midi": 75,
      "hit": false,
      "t": 10000.005000000012,
      "d": 994.4449416666685,
      "v": 93
    },
    {
      "midi": 80,
      "hit": false,
      "t": 10333.338500000013,
      "d": 161.11119166666685,
      "v": 87
    },
    {
      "midi": 84,
      "hit": false,
      "t": 10333.338500000013,
      "d": 161.11119166666685,
      "v": 93
    },
    {
      "midi": 87,
      "hit": false,
      "t": 10333.338500000013,
      "d": 161.11119166666685,
      "v": 89
    },
    {
      "midi": 80,
      "hit": false,
      "t": 10666.672000000013,
      "d": 161.11119166666685,
      "v": 86
    },
    {
      "midi": 84,
      "hit": false,
      "t": 10666.672000000013,
      "d": 161.11119166666685,
      "v": 86
    },
    {
      "midi": 87,
      "hit": false,
      "t": 10666.672000000013,
      "d": 161.11119166666685,
      "v": 88
    },
    {
      "midi": 80,
      "hit": false,
      "t": 11000.005500000014,
      "d": 161.11119166666685,
      "v": 92
    },
    {
      "midi": 84,
      "hit": false,
      "t": 11000.005500000014,
      "d": 161.11119166666685,
      "v": 102
    },
    {
      "midi": 87,
      "hit": false,
      "t": 11000.005500000014,
      "d": 161.11119166666685,
      "v": 94
    },
    {
      "midi": 79,
      "hit": false,
      "t": 11666.672500000013,
      "d": 161.11119166666685,
      "v": 88
    },
    {
      "midi": 83,
      "hit": false,
      "t": 11666.672500000013,
      "d": 161.11119166666685,
      "v": 96
    },
    {
      "midi": 86,
      "hit": false,
      "t": 11666.672500000013,
      "d": 161.11119166666685,
      "v": 96
    },
    {
      "midi": 67,
      "hit": false,
      "t": 11666.672500000013,
      "d": 327.7779416666672,
      "v": 93
    },
    {
      "midi": 80,
      "hit": false,
      "t": 12000.006000000014,
      "d": 161.11119166666685,
      "v": 89
    },
    {
      "midi": 84,
      "hit": false,
      "t": 12000.006000000014,
      "d": 161.11119166666685,
      "v": 100
    },
    {
      "midi": 87,
      "hit": false,
      "t": 12000.006000000014,
      "d": 161.11119166666685,
      "v": 93
    },
    {
      "midi": 68,
      "hit": false,
      "t": 12000.006000000014,
      "d": 1327.778441666669,
      "v": 86
    },
    {
      "midi": 80,
      "hit": false,
      "t": 12333.339500000015,
      "d": 161.11119166666685,
      "v": 85
    },
    {
      "midi": 84,
      "hit": false,
      "t": 12333.339500000015,
      "d": 161.11119166666685,
      "v": 90
    },
    {
      "midi": 87,
      "hit": false,
      "t": 12333.339500000015,
      "d": 161.11119166666685,
      "v": 88
    },
    {
      "midi": 80,
      "hit": false,
      "t": 12666.673000000015,
      "d": 161.11119166666685,
      "v": 90
    },
    {
      "midi": 84,
      "hit": false,
      "t": 12666.673000000015,
      "d": 161.11119166666685,
      "v": 97
    },
    {
      "midi": 87,
      "hit": false,
      "t": 12666.673000000015,
      "d": 161.11119166666685,
      "v": 92
    },
    {
      "midi": 80,
      "hit": false,
      "t": 13000.006500000016,
      "d": 161.11119166666685,
      "v": 84
    },
    {
      "midi": 84,
      "hit": false,
      "t": 13000.006500000016,
      "d": 161.11119166666685,
      "v": 92
    },
    {
      "midi": 87,
      "hit": false,
      "t": 13000.006500000016,
      "d": 161.11119166666685,
      "v": 89
    },
    {
      "midi": 80,
      "hit": false,
      "t": 13333.340000000017,
      "d": 161.11119166666685,
      "v": 89
    },
    {
      "midi": 84,
      "hit": false,
      "t": 13333.340000000017,
      "d": 161.11119166666685,
      "v": 97
    },
    {
      "midi": 87,
      "hit": false,
      "t": 13333.340000000017,
      "d": 161.11119166666685,
      "v": 91
    },
    {
      "midi": 80,
      "hit": false,
      "t": 13666.673500000017,
      "d": 161.11119166666685,
      "v": 86
    },
    {
      "midi": 84,
      "hit": false,
      "t": 13666.673500000017,
      "d": 161.11119166666685,
      "v": 93
    },
    {
      "midi": 87,
      "hit": false,
      "t": 13666.673500000017,
      "d": 161.11119166666685,
      "v": 89
    },
    {
      "midi": 72,
      "hit": false,
      "t": 13666.673500000017,
      "d": 327.7779416666672,
      "v": 97
    },
    {
      "midi": 80,
      "hit": false,
      "t": 14000.007000000018,
      "d": 161.11119166666685,
      "v": 88
    },
    {
      "midi": 84,
      "hit": false,
      "t": 14000.007000000018,
      "d": 161.11119166666685,
      "v": 96
    },
    {
      "midi": 87,
      "hit": false,
      "t": 14000.007000000018,
      "d": 161.11119166666685,
      "v": 92
    },
    {
      "midi": 75,
      "hit": false,
      "t": 14000.007000000018,
      "d": 994.4449416666685,
      "v": 91
    },
    {
      "midi": 80,
      "hit": false,
      "t": 14333.340500000018,
      "d": 161.11119166666685,
      "v": 86
    },
    {
      "midi": 84,
      "hit": false,
      "t": 14333.340500000018,
      "d": 161.11119166666685,
      "v": 91
    },
    {
      "midi": 87,
      "hit": false,
      "t": 14333.340500000018,
      "d": 161.11119166666685,
      "v": 90
    },
    {
      "midi": 80,
      "hit": false,
      "t": 14666.674000000019,
      "d": 161.11119166666685,
      "v": 83
    },
    {
      "midi": 84,
      "hit": false,
      "t": 14666.674000000019,
      "d": 161.11119166666685,
      "v": 90
    },
    {
      "midi": 87,
      "hit": false,
      "t": 14666.674000000019,
      "d": 161.11119166666685,
      "v": 88
    },
    {
      "midi": 80,
      "hit": false,
      "t": 15000.00750000002,
      "d": 161.11119166666685,
      "v": 82
    },
    {
      "midi": 84,
      "hit": false,
      "t": 15000.00750000002,
      "d": 161.11119166666685,
      "v": 91
    },
    {
      "midi": 87,
      "hit": false,
      "t": 15000.00750000002,
      "d": 161.11119166666685,
      "v": 87
    },
    {
      "midi": 72,
      "hit": false,
      "t": 15000.00750000002,
      "d": 661.1114416666678,
      "v": 98
    },
    {
      "midi": 80,
      "hit": false,
      "t": 15333.34100000002,
      "d": 161.11119166666685,
      "v": 89
    },
    {
      "midi": 84,
      "hit": false,
      "t": 15333.34100000002,
      "d": 161.11119166666685,
      "v": 98
    },
    {
      "midi": 87,
      "hit": false,
      "t": 15333.34100000002,
      "d": 161.11119166666685,
      "v": 93
    },
    {
      "midi": 80,
      "hit": false,
      "t": 15666.674500000021,
      "d": 161.11119166666685,
      "v": 84
    },
    {
      "midi": 84,
      "hit": false,
      "t": 15666.674500000021,
      "d": 161.11119166666685,
      "v": 92
    },
    {
      "midi": 87,
      "hit": false,
      "t": 15666.674500000021,
      "d": 161.11119166666685,
      "v": 89
    },
    {
      "midi": 75,
      "hit": false,
      "t": 15666.674500000021,
      "d": 327.7779416666672,
      "v": 93
    },
    {
      "midi": 80,
      "hit": false,
      "t": 16000.008000000022,
      "d": 161.11119166666685,
      "v": 88
    },
    {
      "midi": 84,
      "hit": false,
      "t": 16000.008000000022,
      "d": 161.11119166666685,
      "v": 93
    },
    {
      "midi": 87,
      "hit": false,
      "t": 16000.008000000022,
      "d": 161.11119166666685,
      "v": 91
    },
    {
      "midi": 68,
      "hit": false,
      "t": 16000.008000000022,
      "d": 1327.7784416666673,
      "v": 86
    },
    {
      "midi": 80,
      "hit": false,
      "t": 16333.341500000022,
      "d": 161.11119166666504,
      "v": 86
    },
    {
      "midi": 84,
      "hit": false,
      "t": 16333.341500000022,
      "d": 161.11119166666504,
      "v": 90
    },
    {
      "midi": 87,
      "hit": false,
      "t": 16333.341500000022,
      "d": 161.11119166666504,
      "v": 87
    },
    {
      "midi": 80,
      "hit": false,
      "t": 16666.67500000002,
      "d": 161.11119166666685,
      "v": 82
    },
    {
      "midi": 84,
      "hit": false,
      "t": 16666.67500000002,
      "d": 161.11119166666685,
      "v": 89
    },
    {
      "midi": 87,
      "hit": false,
      "t": 16666.67500000002,
      "d": 161.11119166666685,
      "v": 87
    },
    {
      "midi": 80,
      "hit": false,
      "t": 17000.00850000002,
      "d": 161.11119166666685,
      "v": 82
    },
    {
      "midi": 84,
      "hit": false,
      "t": 17000.00850000002,
      "d": 161.11119166666685,
      "v": 88
    },
    {
      "midi": 87,
      "hit": false,
      "t": 17000.00850000002,
      "d": 161.11119166666685,
      "v": 87
    },
    {
      "midi": 80,
      "hit": false,
      "t": 17333.342000000022,
      "d": 161.11119166666685,
      "v": 86
    },
    {
      "midi": 84,
      "hit": false,
      "t": 17333.342000000022,
      "d": 161.11119166666685,
      "v": 94
    },
    {
      "midi": 87,
      "hit": false,
      "t": 17333.342000000022,
      "d": 161.11119166666685,
      "v": 90
    },
    {
      "midi": 80,
      "hit": false,
      "t": 17666.675500000023,
      "d": 161.11119166666685,
      "v": 86
    },
    {
      "midi": 84,
      "hit": false,
      "t": 17666.675500000023,
      "d": 161.11119166666685,
      "v": 94
    },
    {
      "midi": 87,
      "hit": false,
      "t": 17666.675500000023,
      "d": 161.11119166666685,
      "v": 89
    },
    {
      "midi": 72,
      "hit": false,
      "t": 17666.675500000023,
      "d": 327.7779416666672,
      "v": 98
    },
    {
      "midi": 80,
      "hit": false,
      "t": 18000.009000000024,
      "d": 161.11119166666685,
      "v": 94
    },
    {
      "midi": 84,
      "hit": false,
      "t": 18000.009000000024,
      "d": 161.11119166666685,
      "v": 101
    },
    {
      "midi": 87,
      "hit": false,
      "t": 18000.009000000024,
      "d": 161.11119166666685,
      "v": 96
    },
    {
      "midi": 75,
      "hit": false,
      "t": 18000.009000000024,
      "d": 327.7779416666672,
      "v": 97
    },
    {
      "midi": 79,
      "hit": false,
      "t": 19666.676500000023,
      "d": 161.11119166666685,
      "v": 90
    },
    {
      "midi": 82,
      "hit": false,
      "t": 19666.676500000023,
      "d": 161.11119166666685,
      "v": 90
    },
    {
      "midi": 85,
      "hit": false,
      "t": 19666.676500000023,
      "d": 161.11119166666685,
      "v": 90
    },
    {
      "midi": 67,
      "hit": false,
      "t": 19666.676500000023,
      "d": 327.7779416666672,
      "v": 97
    },
    {
      "midi": 77,
      "hit": false,
      "t": 20000.010000000024,
      "d": 161.11119166666685,
      "v": 89
    },
    {
      "midi": 80,
      "hit": false,
      "t": 20000.010000000024,
      "d": 161.11119166666685,
      "v": 92
    },
    {
      "midi": 84,
      "hit": false,
      "t": 20000.010000000024,
      "d": 161.11119166666685,
      "v": 96
    },
    {
      "midi": 65,
      "hit": false,
      "t": 20000.010000000024,
      "d": 1327.778441666669,
      "v": 89
    },
    {
      "midi": 77,
      "hit": false,
      "t": 20333.343500000025,
      "d": 161.11119166666685,
      "v": 85
    },
    {
      "midi": 80,
      "hit": false,
      "t": 20333.343500000025,
      "d": 161.11119166666685,
      "v": 84
    },
    {
      "midi": 84,
      "hit": false,
      "t": 20333.343500000025,
      "d": 161.11119166666685,
      "v": 92
    },
    {
      "midi": 77,
      "hit": false,
      "t": 20666.677000000025,
      "d": 161.11119166666685,
      "v": 86
    },
    {
      "midi": 80,
      "hit": false,
      "t": 20666.677000000025,
      "d": 161.11119166666685,
      "v": 87
    },
    {
      "midi": 84,
      "hit": false,
      "t": 20666.677000000025,
      "d": 161.11119166666685,
      "v": 93
    },
    {
      "midi": 77,
      "hit": false,
      "t": 21000.010500000026,
      "d": 161.11119166666685,
      "v": 83
    },
    {
      "midi": 80,
      "hit": false,
      "t": 21000.010500000026,
      "d": 161.11119166666685,
      "v": 82
    },
    {
      "midi": 84,
      "hit": false,
      "t": 21000.010500000026,
      "d": 161.11119166666685,
      "v": 91
    },
    {
      "midi": 77,
      "hit": false,
      "t": 21333.344000000026,
      "d": 161.11119166666685,
      "v": 85
    },
    {
      "midi": 80,
      "hit": false,
      "t": 21333.344000000026,
      "d": 161.11119166666685,
      "v": 84
    },
    {
      "midi": 84,
      "hit": false,
      "t": 21333.344000000026,
      "d": 161.11119166666685,
      "v": 89
    },
    {
      "midi": 77,
      "hit": false,
      "t": 21666.677500000027,
      "d": 161.11119166666685,
      "v": 87
    },
    {
      "midi": 80,
      "hit": false,
      "t": 21666.677500000027,
      "d": 161.11119166666685,
      "v": 85
    },
    {
      "midi": 84,
      "hit": false,
      "t": 21666.677500000027,
      "d": 161.11119166666685,
      "v": 93
    },
    {
      "midi": 68,
      "hit": false,
      "t": 21666.677500000027,
      "d": 327.7779416666672,
      "v": 92
    },
    {
      "midi": 77,
      "hit": false,
      "t": 22000.011000000028,
      "d": 161.11119166666685,
      "v": 90
    },
    {
      "midi": 80,
      "hit": false,
      "t": 22000.011000000028,
      "d": 161.11119166666685,
      "v": 87
    },
    {
      "midi": 84,
      "hit": false,
      "t": 22000.011000000028,
      "d": 161.11119166666685,
      "v": 92
    },
    {
      "midi": 72,
      "hit": false,
      "t": 22000.011000000028,
      "d": 994.4449416666685,
      "v": 95
    },
    {
      "midi": 77,
      "hit": false,
      "t": 22333.34450000003,
      "d": 161.11119166666685,
      "v": 87
    },
    {
      "midi": 80,
      "hit": false,
      "t": 22333.34450000003,
      "d": 161.11119166666685,
      "v": 85
    },
    {
      "midi": 84,
      "hit": false,
      "t": 22333.34450000003,
      "d": 161.11119166666685,
      "v": 92
    },
    {
      "midi": 77,
      "hit": false,
      "t": 22666.67800000003,
      "d": 161.11119166666685,
      "v": 85
    },
    {
      "midi": 80,
      "hit": false,
      "t": 22666.67800000003,
      "d": 161.11119166666685,
      "v": 85
    },
    {
      "midi": 84,
      "hit": false,
      "t": 22666.67800000003,
      "d": 161.11119166666685,
      "v": 90
    },
    {
      "midi": 77,
      "hit": false,
      "t": 23000.01150000003,
      "d": 161.11119166666685,
      "v": 86
    },
    {
      "midi": 80,
      "hit": false,
      "t": 23000.01150000003,
      "d": 161.11119166666685,
      "v": 87
    },
    {
      "midi": 84,
      "hit": false,
      "t": 23000.01150000003,
      "d": 161.11119166666685,
      "v": 92
    },
    {
      "midi": 68,
      "hit": false,
      "t": 23000.01150000003,
      "d": 661.1114416666678,
      "v": 91
    },
    {
      "midi": 77,
      "hit": false,
      "t": 23333.34500000003,
      "d": 161.11119166666685,
      "v": 83
    },
    {
      "midi": 80,
      "hit": false,
      "t": 23333.34500000003,
      "d": 161.11119166666685,
      "v": 83
    },
    {
      "midi": 84,
      "hit": false,
      "t": 23333.34500000003,
      "d": 161.11119166666685,
      "v": 90
    },
    {
      "midi": 77,
      "hit": false,
      "t": 23666.67850000003,
      "d": 161.11119166666685,
      "v": 88
    },
    {
      "midi": 80,
      "hit": false,
      "t": 23666.67850000003,
      "d": 161.11119166666685,
      "v": 86
    },
    {
      "midi": 84,
      "hit": false,
      "t": 23666.67850000003,
      "d": 161.11119166666685,
      "v": 92
    },
    {
      "midi": 72,
      "hit": false,
      "t": 23666.67850000003,
      "d": 327.7779416666672,
      "v": 94
    },
    {
      "midi": 77,
      "hit": false,
      "t": 24000.01200000003,
      "d": 161.11119166666685,
      "v": 90
    },
    {
      "midi": 80,
      "hit": false,
      "t": 24000.01200000003,
      "d": 161.11119166666685,
      "v": 86
    },
    {
      "midi": 84,
      "hit": false,
      "t": 24000.01200000003,
      "d": 161.11119166666685,
      "v": 95
    },
    {
      "midi": 65,
      "hit": false,
      "t": 24000.01200000003,
      "d": 1327.778441666669,
      "v": 93
    },
    {
      "midi": 77,
      "hit": false,
      "t": 24333.345500000032,
      "d": 161.11119166666685,
      "v": 92
    },
    {
      "midi": 80,
      "hit": false,
      "t": 24333.345500000032,
      "d": 161.11119166666685,
      "v": 94
    },
    {
      "midi": 77,
      "hit": false,
      "t": 24666.679000000033,
      "d": 161.11119166666685,
      "v": 88
    },
    {
      "midi": 80,
      "hit": false,
      "t": 24666.679000000033,
      "d": 161.11119166666685,
      "v": 90
    },
    {
      "midi": 77,
      "hit": false,
      "t": 25000.012500000033,
      "d": 161.11119166666685,
      "v": 88
    },
    {
      "midi": 80,
      "hit": false,
      "t": 25000.012500000033,
      "d": 161.11119166666685,
      "v": 90
    },
    {
      "midi": 77,
      "hit": false,
      "t": 25333.346000000034,
      "d": 161.11119166666685,
      "v": 89
    },
    {
      "midi": 80,
      "hit": false,
      "t": 25333.346000000034,
      "d": 161.11119166666685,
      "v": 92
    },
    {
      "midi": 77,
      "hit": false,
      "t": 25666.679500000035,
      "d": 161.11119166666685,
      "v": 88
    },
    {
      "midi": 80,
      "hit": false,
      "t": 25666.679500000035,
      "d": 161.11119166666685,
      "v": 90
    },
    {
      "midi": 68,
      "hit": false,
      "t": 25666.679500000035,
      "d": 327.7779416666672,
      "v": 94
    },
    {
      "midi": 77,
      "hit": false,
      "t": 26000.013000000035,
      "d": 161.11119166666685,
      "v": 94
    },
    {
      "midi": 80,
      "hit": false,
      "t": 26000.013000000035,
      "d": 161.11119166666685,
      "v": 91
    },
    {
      "midi": 84,
      "hit": false,
      "t": 26000.013000000035,
      "d": 161.11119166666685,
      "v": 93
    },
    {
      "midi": 72,
      "hit": false,
      "t": 26000.013000000035,
      "d": 327.7779416666672,
      "v": 94
    },
    {
      "midi": 75,
      "hit": false,
      "t": 27666.680500000035,
      "d": 161.11119166666685,
      "v": 86
    },
    {
      "midi": 79,
      "hit": false,
      "t": 27666.680500000035,
      "d": 161.11119166666685,
      "v": 99
    },
    {
      "midi": 82,
      "hit": false,
      "t": 27666.680500000035,
      "d": 161.11119166666685,
      "v": 94
    },
    {
      "midi": 63,
      "hit": false,
      "t": 27666.680500000035,
      "d": 327.7779416666672,
      "v": 95
    },
    {
      "midi": 73,
      "hit": false,
      "t": 28000.014000000036,
      "d": 161.11119166666685,
      "v": 86
    },
    {
      "midi": 77,
      "hit": false,
      "t": 28000.014000000036,
      "d": 161.11119166666685,
      "v": 101
    },
    {
      "midi": 80,
      "hit": false,
      "t": 28000.014000000036,
      "d": 161.11119166666685,
      "v": 98
    },
    {
      "midi": 61,
      "hit": false,
      "t": 28000.014000000036,
      "d": 1327.778441666669,
      "v": 86
    },
    {
      "midi": 73,
      "hit": false,
      "t": 28333.347500000036,
      "d": 161.11119166666685,
      "v": 79
    },
    {
      "midi": 77,
      "hit": false,
      "t": 28333.347500000036,
      "d": 161.11119166666685,
      "v": 96
    },
    {
      "midi": 80,
      "hit": false,
      "t": 28333.347500000036,
      "d": 161.11119166666685,
      "v": 92
    },
    {
      "midi": 73,
      "hit": false,
      "t": 28666.681000000037,
      "d": 161.11119166666685,
      "v": 82
    },
    {
      "midi": 77,
      "hit": false,
      "t": 28666.681000000037,
      "d": 161.11119166666685,
      "v": 95
    },
    {
      "midi": 80,
      "hit": false,
      "t": 28666.681000000037,
      "d": 161.11119166666685,
      "v": 91
    },
    {
      "midi": 73,
      "hit": false,
      "t": 29000.014500000038,
      "d": 161.11119166666685,
      "v": 81
    },
    {
      "midi": 77,
      "hit": false,
      "t": 29000.014500000038,
      "d": 161.11119166666685,
      "v": 95
    },
    {
      "midi": 80,
      "hit": false,
      "t": 29000.014500000038,
      "d": 161.11119166666685,
      "v": 92
    },
    {
      "midi": 73,
      "hit": false,
      "t": 29333.348000000038,
      "d": 161.11119166666685,
      "v": 82
    },
    {
      "midi": 77,
      "hit": false,
      "t": 29333.348000000038,
      "d": 161.11119166666685,
      "v": 97
    },
    {
      "midi": 80,
      "hit": false,
      "t": 29333.348000000038,
      "d": 161.11119166666685,
      "v": 92
    },
    {
      "midi": 73,
      "hit": false,
      "t": 29666.68150000004,
      "d": 161.11119166666685,
      "v": 81
    },
    {
      "midi": 77,
      "hit": false,
      "t": 29666.68150000004,
      "d": 161.11119166666685,
      "v": 94
    },
    {
      "midi": 80,
      "hit": false,
      "t": 29666.68150000004,
      "d": 161.11119166666685,
      "v": 87
    },
    {
      "midi": 65,
      "hit": false,
      "t": 29666.68150000004,
      "d": 327.7779416666672,
      "v": 97
    },
    {
      "midi": 73,
      "hit": false,
      "t": 30000.01500000004,
      "d": 161.11119166666685,
      "v": 83
    },
    {
      "midi": 77,
      "hit": false,
      "t": 30000.01500000004,
      "d": 161.11119166666685,
      "v": 92
    },
    {
      "midi": 80,
      "hit": false,
      "t": 30000.01500000004,
      "d": 161.11119166666685,
      "v": 91
    },
    {
      "midi": 68,
      "hit": false,
      "t": 30000.01500000004,
      "d": 994.4449416666685,
      "v": 99
    },
    {
      "midi": 73,
      "hit": false,
      "t": 30333.34850000004,
      "d": 161.11119166666685,
      "v": 79
    },
    {
      "midi": 77,
      "hit": false,
      "t": 30333.34850000004,
      "d": 161.11119166666685,
      "v": 94
    },
    {
      "midi": 80,
      "hit": false,
      "t": 30333.34850000004,
      "d": 161.11119166666685,
      "v": 92
    },
    {
      "midi": 73,
      "hit": false,
      "t": 30666.68200000004,
      "d": 161.11119166666685,
      "v": 81
    },
    {
      "midi": 77,
      "hit": false,
      "t": 30666.68200000004,
      "d": 161.11119166666685,
      "v": 93
    },
    {
      "midi": 80,
      "hit": false,
      "t": 30666.68200000004,
      "d": 161.11119166666685,
      "v": 91
    },
    {
      "midi": 73,
      "hit": false,
      "t": 31000.01550000004,
      "d": 161.11119166666685,
      "v": 82
    },
    {
      "midi": 77,
      "hit": false,
      "t": 31000.01550000004,
      "d": 161.11119166666685,
      "v": 99
    },
    {
      "midi": 80,
      "hit": false,
      "t": 31000.01550000004,
      "d": 161.11119166666685,
      "v": 94
    },
    {
      "midi": 65,
      "hit": false,
      "t": 31000.01550000004,
      "d": 661.1114416666678,
      "v": 91
    },
    {
      "midi": 73,
      "hit": false,
      "t": 31333.349000000042,
      "d": 161.11119166666685,
      "v": 77
    },
    {
      "midi": 77,
      "hit": false,
      "t": 31333.349000000042,
      "d": 161.11119166666685,
      "v": 95
    },
    {
      "midi": 80,
      "hit": false,
      "t": 31333.349000000042,
      "d": 161.11119166666685,
      "v": 86
    },
    {
      "midi": 73,
      "hit": false,
      "t": 31666.682500000043,
      "d": 161.11119166666685,
      "v": 81
    },
    {
      "midi": 77,
      "hit": false,
      "t": 31666.682500000043,
      "d": 161.11119166666685,
      "v": 94
    },
    {
      "midi": 80,
      "hit": false,
      "t": 31666.682500000043,
      "d": 161.11119166666685,
      "v": 89
    },
    {
      "midi": 68,
      "hit": false,
      "t": 31666.682500000043,
      "d": 327.7779416666672,
      "v": 92
    },
    {
      "midi": 73,
      "hit": false,
      "t": 32000.016000000043,
      "d": 161.11119166666685,
      "v": 82
    },
    {
      "midi": 77,
      "hit": false,
      "t": 32000.016000000043,
      "d": 161.11119166666685,
      "v": 92
    },
    {
      "midi": 80,
      "hit": false,
      "t": 32000.016000000043,
      "d": 161.11119166666685,
      "v": 93
    },
    {
      "midi": 61,
      "hit": false,
      "t": 32000.016000000043,
      "d": 1327.7784416666582,
      "v": 84
    },
    {
      "midi": 73,
      "hit": false,
      "t": 32333.349500000044,
      "d": 161.11119166666685,
      "v": 83
    },
    {
      "midi": 77,
      "hit": false,
      "t": 32333.349500000044,
      "d": 161.11119166666685,
      "v": 92
    },
    {
      "midi": 80,
      "hit": false,
      "t": 32333.349500000044,
      "d": 161.11119166666685,
      "v": 93
    },
    {
      "midi": 73,
      "hit": false,
      "t": 32666.683000000045,
      "d": 161.11119166666685,
      "v": 81
    },
    {
      "midi": 77,
      "hit": false,
      "t": 32666.683000000045,
      "d": 161.11119166666685,
      "v": 94
    },
    {
      "midi": 80,
      "hit": false,
      "t": 32666.683000000045,
      "d": 161.11119166666685,
      "v": 94
    },
    {
      "midi": 73,
      "hit": false,
      "t": 33000.01650000004,
      "d": 161.11119166666322,
      "v": 82
    },
    {
      "midi": 77,
      "hit": false,
      "t": 33000.01650000004,
      "d": 161.11119166666322,
      "v": 90
    },
    {
      "midi": 80,
      "hit": false,
      "t": 33000.01650000004,
      "d": 161.11119166666322,
      "v": 92
    },
    {
      "midi": 73,
      "hit": false,
      "t": 33333.350000000035,
      "d": 161.11119166666322,
      "v": 82
    },
    {
      "midi": 77,
      "hit": false,
      "t": 33333.350000000035,
      "d": 161.11119166666322,
      "v": 92
    },
    {
      "midi": 80,
      "hit": false,
      "t": 33333.350000000035,
      "d": 161.11119166666322,
      "v": 90
    },
    {
      "midi": 73,
      "hit": false,
      "t": 33666.68350000003,
      "d": 161.11119166666322,
      "v": 82
    },
    {
      "midi": 77,
      "hit": false,
      "t": 33666.68350000003,
      "d": 161.11119166666322,
      "v": 92
    },
    {
      "midi": 80,
      "hit": false,
      "t": 33666.68350000003,
      "d": 161.11119166666322,
      "v": 92
    },
    {
      "midi": 65,
      "hit": false,
      "t": 33666.68350000003,
      "d": 327.7779416666599,
      "v": 98
    },
    {
      "midi": 73,
      "hit": false,
      "t": 34000.01700000002,
      "d": 161.11119166666322,
      "v": 88
    },
    {
      "midi": 77,
      "hit": false,
      "t": 34000.01700000002,
      "d": 161.11119166666322,
      "v": 95
    },
    {
      "midi": 80,
      "hit": false,
      "t": 34000.01700000002,
      "d": 161.11119166666322,
      "v": 95
    },
    {
      "midi": 68,
      "hit": false,
      "t": 34000.01700000002,
      "d": 327.7779416666599,
      "v": 95
    },
    {
      "midi": 74,
      "hit": false,
      "t": 35666.68450000002,
      "d": 161.11119166666322,
      "v": 88
    },
    {
      "midi": 78,
      "hit": false,
      "t": 35666.68450000002,
      "d": 161.11119166666322,
      "v": 92
    },
    {
      "midi": 81,
      "hit": false,
      "t": 35666.68450000002,
      "d": 161.11119166666322,
      "v": 97
    },
    {
      "midi": 62,
      "hit": false,
      "t": 35666.68450000002,
      "d": 327.7779416666599,
      "v": 98
    },
    {
      "midi": 75,
      "hit": false,
      "t": 36000.01800000001,
      "d": 161.11119166666322,
      "v": 89
    },
    {
      "midi": 79,
      "hit": false,
      "t": 36000.01800000001,
      "d": 161.11119166666322,
      "v": 100
    },
    {
      "midi": 82,
      "hit": false,
      "t": 36000.01800000001,
      "d": 161.11119166666322,
      "v": 96
    },
    {
      "midi": 63,
      "hit": false,
      "t": 36000.01800000001,
      "d": 1327.77844166664,
      "v": 92
    },
    {
      "midi": 75,
      "hit": false,
      "t": 36333.351500000004,
      "d": 161.11119166666322,
      "v": 81
    },
    {
      "midi": 79,
      "hit": false,
      "t": 36333.351500000004,
      "d": 161.11119166666322,
      "v": 95
    },
    {
      "midi": 82,
      "hit": false,
      "t": 36333.351500000004,
      "d": 161.11119166666322,
      "v": 89
    },
    {
      "midi": 75,
      "hit": false,
      "t": 36666.685,
      "d": 161.11119166666322,
      "v": 84
    },
    {
      "midi": 79,
      "hit": false,
      "t": 36666.685,
      "d": 161.11119166666322,
      "v": 94
    },
    {
      "midi": 82,
      "hit": false,
      "t": 36666.685,
      "d": 161.11119166666322,
      "v": 96
    },
    {
      "midi": 75,
      "hit": false,
      "t": 37000.01849999999,
      "d": 161.11119166666322,
      "v": 82
    },
    {
      "midi": 79,
      "hit": false,
      "t": 37000.01849999999,
      "d": 161.11119166666322,
      "v": 92
    },
    {
      "midi": 82,
      "hit": false,
      "t": 37000.01849999999,
      "d": 161.11119166666322,
      "v": 93
    },
    {
      "midi": 75,
      "hit": false,
      "t": 37333.351999999984,
      "d": 161.11119166666322,
      "v": 82
    },
    {
      "midi": 79,
      "hit": false,
      "t": 37333.351999999984,
      "d": 161.11119166666322,
      "v": 92
    },
    {
      "midi": 82,
      "hit": false,
      "t": 37333.351999999984,
      "d": 161.11119166666322,
      "v": 91
    },
    {
      "midi": 75,
      "hit": false,
      "t": 37666.68549999998,
      "d": 161.11119166666322,
      "v": 83
    },
    {
      "midi": 79,
      "hit": false,
      "t": 37666.68549999998,
      "d": 161.11119166666322,
      "v": 94
    },
    {
      "midi": 82,
      "hit": false,
      "t": 37666.68549999998,
      "d": 161.11119166666322,
      "v": 93
    },
    {
      "midi": 67,
      "hit": false,
      "t": 37666.68549999998,
      "d": 327.7779416666599,
      "v": 92
    },
    {
      "midi": 75,
      "hit": false,
      "t": 38000.01899999997,
      "d": 161.11119166666322,
      "v": 82
    },
    {
      "midi": 79,
      "hit": false,
      "t": 38000.01899999997,
      "d": 161.11119166666322,
      "v": 91
    },
    {
      "midi": 82,
      "hit": false,
      "t": 38000.01899999997,
      "d": 161.11119166666322,
      "v": 91
    },
    {
      "midi": 70,
      "hit": false,
      "t": 38000.01899999997,
      "d": 994.4449416666466,
      "v": 92
    },
    {
      "midi": 75,
      "hit": false,
      "t": 38333.352499999964,
      "d": 161.11119166666322,
      "v": 82
    },
    {
      "midi": 79,
      "hit": false,
      "t": 38333.352499999964,
      "d": 161.11119166666322,
      "v": 93
    },
    {
      "midi": 82,
      "hit": false,
      "t": 38333.352499999964,
      "d": 161.11119166666322,
      "v": 88
    },
    {
      "midi": 75,
      "hit": false,
      "t": 38666.68599999996,
      "d": 161.11119166666322,
      "v": 81
    },
    {
      "midi": 79,
      "hit": false,
      "t": 38666.68599999996,
      "d": 161.11119166666322,
      "v": 92
    },
    {
      "midi": 82,
      "hit": false,
      "t": 38666.68599999996,
      "d": 161.11119166666322,
      "v": 92
    },
    {
      "midi": 75,
      "hit": false,
      "t": 39000.01949999995,
      "d": 161.11119166666322,
      "v": 81
    },
    {
      "midi": 79,
      "hit": false,
      "t": 39000.01949999995,
      "d": 161.11119166666322,
      "v": 91
    },
    {
      "midi": 82,
      "hit": false,
      "t": 39000.01949999995,
      "d": 161.11119166666322,
      "v": 88
    },
    {
      "midi": 67,
      "hit": false,
      "t": 39000.01949999995,
      "d": 661.1114416666533,
      "v": 91
    },
    {
      "midi": 75,
      "hit": false,
      "t": 39333.352999999945,
      "d": 161.11119166666322,
      "v": 82
    },
    {
      "midi": 79,
      "hit": false,
      "t": 39333.352999999945,
      "d": 161.11119166666322,
      "v": 91
    },
    {
      "midi": 82,
      "hit": false,
      "t": 39333.352999999945,
      "d": 161.11119166666322,
      "v": 89
    },
    {
      "midi": 75,
      "hit": false,
      "t": 39666.68649999994,
      "d": 161.11119166666322,
      "v": 83
    },
    {
      "midi": 79,
      "hit": false,
      "t": 39666.68649999994,
      "d": 161.11119166666322,
      "v": 93
    },
    {
      "midi": 82,
      "hit": false,
      "t": 39666.68649999994,
      "d": 161.11119166666322,
      "v": 89
    },
    {
      "midi": 70,
      "hit": false,
      "t": 39666.68649999994,
      "d": 327.7779416666599,
      "v": 91
    },
    {
      "midi": 75,
      "hit": false,
      "t": 40000.01999999993,
      "d": 161.11119166666322,
      "v": 87
    },
    {
      "midi": 79,
      "hit": false,
      "t": 40000.01999999993,
      "d": 161.11119166666322,
      "v": 98
    },
    {
      "midi": 82,
      "hit": false,
      "t": 40000.01999999993,
      "d": 161.11119166666322,
      "v": 92
    },
    {
      "midi": 75,
      "hit": false,
      "t": 40333.353499999925,
      "d": 161.11119166666322,
      "v": 84
    },
    {
      "midi": 79,
      "hit": false,
      "t": 40333.353499999925,
      "d": 161.11119166666322,
      "v": 93
    },
    {
      "midi": 82,
      "hit": false,
      "t": 40333.353499999925,
      "d": 161.11119166666322,
      "v": 90
    },
    {
      "midi": 63,
      "hit": false,
      "t": 40333.353499999925,
      "d": 327.7779416666599,
      "v": 91
    },
    {
      "midi": 75,
      "hit": false,
      "t": 40666.68699999992,
      "d": 161.11119166666322,
      "v": 83
    },
    {
      "midi": 79,
      "hit": false,
      "t": 40666.68699999992,
      "d": 161.11119166666322,
      "v": 92
    },
    {
      "midi": 82,
      "hit": false,
      "t": 40666.68699999992,
      "d": 161.11119166666322,
      "v": 89
    },
    {
      "midi": 63,
      "hit": false,
      "t": 40666.68699999992,
      "d": 327.7779416666599,
      "v": 88
    },
    {
      "midi": 75,
      "hit": false,
      "t": 41000.02049999991,
      "d": 161.11119166666322,
      "v": 79
    },
    {
      "midi": 79,
      "hit": false,
      "t": 41000.02049999991,
      "d": 161.11119166666322,
      "v": 92
    },
    {
      "midi": 82,
      "hit": false,
      "t": 41000.02049999991,
      "d": 161.11119166666322,
      "v": 89
    },
    {
      "midi": 63,
      "hit": false,
      "t": 41000.02049999991,
      "d": 327.7779416666599,
      "v": 88
    },
    {
      "midi": 75,
      "hit": false,
      "t": 41333.353999999905,
      "d": 161.11119166666322,
      "v": 79
    },
    {
      "midi": 79,
      "hit": false,
      "t": 41333.353999999905,
      "d": 161.11119166666322,
      "v": 88
    },
    {
      "midi": 82,
      "hit": false,
      "t": 41333.353999999905,
      "d": 161.11119166666322,
      "v": 87
    },
    {
      "midi": 63,
      "hit": false,
      "t": 41333.353999999905,
      "d": 327.7779416666599,
      "v": 87
    },
    {
      "midi": 75,
      "hit": false,
      "t": 41666.6874999999,
      "d": 161.11119166666322,
      "v": 78
    },
    {
      "midi": 79,
      "hit": false,
      "t": 41666.6874999999,
      "d": 161.11119166666322,
      "v": 89
    },
    {
      "midi": 82,
      "hit": false,
      "t": 41666.6874999999,
      "d": 161.11119166666322,
      "v": 87
    },
    {
      "midi": 63,
      "hit": false,
      "t": 41666.6874999999,
      "d": 327.7779416666599,
      "v": 88
    },
    {
      "midi": 75,
      "hit": false,
      "t": 42000.02099999989,
      "d": 161.11119166666322,
      "v": 79
    },
    {
      "midi": 79,
      "hit": false,
      "t": 42000.02099999989,
      "d": 161.11119166666322,
      "v": 91
    },
    {
      "midi": 82,
      "hit": false,
      "t": 42000.02099999989,
      "d": 161.11119166666322,
      "v": 90
    },
    {
      "midi": 63,
      "hit": false,
      "t": 42000.02099999989,
      "d": 327.7779416666599,
      "v": 97
    },
    {
      "midi": 61,
      "hit": false,
      "t": 42333.354499999885,
      "d": 161.11119166666322,
      "v": 77
    },
    {
      "midi": 63,
      "hit": false,
      "t": 42333.354499999885,
      "d": 161.11119166666322,
      "v": 94
    },
    {
      "midi": 67,
      "hit": false,
      "t": 42333.354499999885,
      "d": 161.11119166666322,
      "v": 96
    },
    {
      "midi": 39,
      "hit": false,
      "t": 42333.354499999885,
      "d": 327.7779416666599,
      "v": 93
    },
    {
      "midi": 51,
      "hit": false,
      "t": 42333.354499999885,
      "d": 327.7779416666599,
      "v": 87
    },
    {
      "midi": 61,
      "hit": false,
      "t": 42666.68799999988,
      "d": 161.11119166666322,
      "v": 74
    },
    {
      "midi": 63,
      "hit": false,
      "t": 42666.68799999988,
      "d": 161.11119166666322,
      "v": 93
    },
    {
      "midi": 67,
      "hit": false,
      "t": 42666.68799999988,
      "d": 161.11119166666322,
      "v": 94
    },
    {
      "midi": 39,
      "hit": false,
      "t": 42666.68799999988,
      "d": 327.7779416666599,
      "v": 94
    },
    {
      "midi": 51,
      "hit": false,
      "t": 42666.68799999988,
      "d": 327.7779416666599,
      "v": 85
    },
    {
      "midi": 61,
      "hit": false,
      "t": 43000.02149999987,
      "d": 161.11119166666322,
      "v": 79
    },
    {
      "midi": 63,
      "hit": false,
      "t": 43000.02149999987,
      "d": 161.11119166666322,
      "v": 93
    },
    {
      "midi": 67,
      "hit": false,
      "t": 43000.02149999987,
      "d": 161.11119166666322,
      "v": 94
    },
    {
      "midi": 39,
      "hit": false,
      "t": 43000.02149999987,
      "d": 327.7779416666599,
      "v": 94
    },
    {
      "midi": 51,
      "hit": false,
      "t": 43000.02149999987,
      "d": 327.7779416666599,
      "v": 87
    },
    {
      "midi": 61,
      "hit": false,
      "t": 43333.354999999865,
      "d": 161.11119166666322,
      "v": 82
    },
    {
      "midi": 63,
      "hit": false,
      "t": 43333.354999999865,
      "d": 161.11119166666322,
      "v": 95
    },
    {
      "midi": 68,
      "hit": false,
      "t": 43333.354999999865,
      "d": 161.11119166666322,
      "v": 95
    },
    {
      "midi": 41,
      "hit": false,
      "t": 43333.354999999865,
      "d": 327.7779416666599,
      "v": 99
    },
    {
      "midi": 61,
      "hit": false,
      "t": 43666.68849999986,
      "d": 161.11119166666322,
      "v": 85
    },
    {
      "midi": 63,
      "hit": false,
      "t": 43666.68849999986,
      "d": 161.11119166666322,
      "v": 100
    },
    {
      "midi": 70,
      "hit": false,
      "t": 43666.68849999986,
      "d": 161.11119166666322,
      "v": 97
    },
    {
      "midi": 43,
      "hit": false,
      "t": 43666.68849999986,
      "d": 327.7779416666599,
      "v": 93
    },
    {
      "midi": 60,
      "hit": false,
      "t": 44000.02199999985,
      "d": 161.11119166666322,
      "v": 92
    },
    {
      "midi": 63,
      "hit": false,
      "t": 44000.02199999985,
      "d": 161.11119166666322,
      "v": 90
    },
    {
      "midi": 68,
      "hit": false,
      "t": 44000.02199999985,
      "d": 161.11119166666322,
      "v": 94
    },
    {
      "midi": 44,
      "hit": false,
      "t": 44000.02199999985,
      "d": 1327.77844166664,
      "v": 98
    },
    {
      "midi": 60,
      "hit": false,
      "t": 44333.355499999845,
      "d": 161.11119166666322,
      "v": 84
    },
    {
      "midi": 63,
      "hit": false,
      "t": 44333.355499999845,
      "d": 161.11119166666322,
      "v": 83
    },
    {
      "midi": 68,
      "hit": false,
      "t": 44333.355499999845,
      "d": 161.11119166666322,
      "v": 92
    },
    {
      "midi": 60,
      "hit": false,
      "t": 44666.68899999984,
      "d": 161.11119166666322,
      "v": 82
    },
    {
      "midi": 63,
      "hit": false,
      "t": 44666.68899999984,
      "d": 161.11119166666322,
      "v": 79
    },
    {
      "midi": 68,
      "hit": false,
      "t": 44666.68899999984,
      "d": 161.11119166666322,
      "v": 88
    },
    {
      "midi": 60,
      "hit": false,
      "t": 45000.02249999983,
      "d": 161.11119166666322,
      "v": 87
    },
    {
      "midi": 63,
      "hit": false,
      "t": 45000.02249999983,
      "d": 161.11119166666322,
      "v": 84
    },
    {
      "midi": 68,
      "hit": false,
      "t": 45000.02249999983,
      "d": 161.11119166666322,
      "v": 90
    },
    {
      "midi": 60,
      "hit": false,
      "t": 45333.355999999825,
      "d": 161.11119166666322,
      "v": 83
    },
    {
      "midi": 63,
      "hit": false,
      "t": 45333.355999999825,
      "d": 161.11119166666322,
      "v": 82
    },
    {
      "midi": 68,
      "hit": false,
      "t": 45333.355999999825,
      "d": 161.11119166666322,
      "v": 88
    },
    {
      "midi": 60,
      "hit": false,
      "t": 45666.68949999982,
      "d": 161.11119166666322,
      "v": 83
    },
    {
      "midi": 63,
      "hit": false,
      "t": 45666.68949999982,
      "d": 161.11119166666322,
      "v": 82
    },
    {
      "midi": 68,
      "hit": false,
      "t": 45666.68949999982,
      "d": 161.11119166666322,
      "v": 87
    },
    {
      "midi": 48,
      "hit": false,
      "t": 45666.68949999982,
      "d": 327.7779416666599,
      "v": 93
    },
    {
      "midi": 60,
      "hit": false,
      "t": 46000.02299999981,
      "d": 161.11119166666322,
      "v": 89
    },
    {
      "midi": 63,
      "hit": false,
      "t": 46000.02299999981,
      "d": 161.11119166666322,
      "v": 84
    },
    {
      "midi": 68,
      "hit": false,
      "t": 46000.02299999981,
      "d": 161.11119166666322,
      "v": 90
    },
    {
      "midi": 51,
      "hit": false,
      "t": 46000.02299999981,
      "d": 994.4449416666466,
      "v": 84
    },
    {
      "midi": 60,
      "hit": false,
      "t": 46333.356499999805,
      "d": 161.11119166666322,
      "v": 84
    },
    {
      "midi": 63,
      "hit": false,
      "t": 46333.356499999805,
      "d": 161.11119166666322,
      "v": 82
    },
    {
      "midi": 68,
      "hit": false,
      "t": 46333.356499999805,
      "d": 161.11119166666322,
      "v": 89
    },
    {
      "midi": 60,
      "hit": false,
      "t": 46666.6899999998,
      "d": 161.11119166666322,
      "v": 84
    },
    {
      "midi": 63,
      "hit": false,
      "t": 46666.6899999998,
      "d": 161.11119166666322,
      "v": 82
    },
    {
      "midi": 68,
      "hit": false,
      "t": 46666.6899999998,
      "d": 161.11119166666322,
      "v": 87
    },
    {
      "midi": 60,
      "hit": false,
      "t": 47000.02349999979,
      "d": 161.11119166666322,
      "v": 84
    },
    {
      "midi": 63,
      "hit": false,
      "t": 47000.02349999979,
      "d": 161.11119166666322,
      "v": 83
    },
    {
      "midi": 68,
      "hit": false,
      "t": 47000.02349999979,
      "d": 161.11119166666322,
      "v": 89
    },
    {
      "midi": 48,
      "hit": false,
      "t": 47000.02349999979,
      "d": 661.1114416666533,
      "v": 98
    },
    {
      "midi": 60,
      "hit": false,
      "t": 47333.356999999785,
      "d": 161.11119166666322,
      "v": 82
    },
    {
      "midi": 63,
      "hit": false,
      "t": 47333.356999999785,
      "d": 161.11119166666322,
      "v": 82
    },
    {
      "midi": 68,
      "hit": false,
      "t": 47333.356999999785,
      "d": 161.11119166666322,
      "v": 88
    },
    {
      "midi": 60,
      "hit": false,
      "t": 47666.69049999978,
      "d": 161.11119166666322,
      "v": 82
    },
    {
      "midi": 63,
      "hit": false,
      "t": 47666.69049999978,
      "d": 161.11119166666322,
      "v": 82
    },
    {
      "midi": 68,
      "hit": false,
      "t": 47666.69049999978,
      "d": 161.11119166666322,
      "v": 87
    },
    {
      "midi": 51,
      "hit": false,
      "t": 47666.69049999978,
      "d": 327.7779416666599,
      "v": 83
    },
    {
      "midi": 60,
      "hit": false,
      "t": 48000.02399999977,
      "d": 161.11119166666322,
      "v": 84
    },
    {
      "midi": 63,
      "hit": false,
      "t": 48000.02399999977,
      "d": 161.11119166666322,
      "v": 85
    },
    {
      "midi": 68,
      "hit": false,
      "t": 48000.02399999977,
      "d": 161.11119166666322,
      "v": 89
    },
    {
      "midi": 44,
      "hit": false,
      "t": 48000.02399999977,
      "d": 1327.77844166664,
      "v": 99
    },
    {
      "midi": 60,
      "hit": false,
      "t": 48333.357499999765,
      "d": 161.11119166666322,
      "v": 82
    },
    {
      "midi": 63,
      "hit": false,
      "t": 48333.357499999765,
      "d": 161.11119166666322,
      "v": 84
    },
    {
      "midi": 68,
      "hit": false,
      "t": 48333.357499999765,
      "d": 161.11119166666322,
      "v": 86
    },
    {
      "midi": 60,
      "hit": false,
      "t": 48666.69099999976,
      "d": 161.11119166666322,
      "v": 85
    },
    {
      "midi": 63,
      "hit": false,
      "t": 48666.69099999976,
      "d": 161.11119166666322,
      "v": 83
    },
    {
      "midi": 68,
      "hit": false,
      "t": 48666.69099999976,
      "d": 161.11119166666322,
      "v": 89
    },
    {
      "midi": 60,
      "hit": false,
      "t": 49000.02449999975,
      "d": 161.11119166666322,
      "v": 85
    },
    {
      "midi": 63,
      "hit": false,
      "t": 49000.02449999975,
      "d": 161.11119166666322,
      "v": 84
    },
    {
      "midi": 68,
      "hit": false,
      "t": 49000.02449999975,
      "d": 161.11119166666322,
      "v": 88
    },
    {
      "midi": 60,
      "hit": false,
      "t": 49333.357999999746,
      "d": 161.11119166666322,
      "v": 83
    },
    {
      "midi": 63,
      "hit": false,
      "t": 49333.357999999746,
      "d": 161.11119166666322,
      "v": 83
    },
    {
      "midi": 68,
      "hit": false,
      "t": 49333.357999999746,
      "d": 161.11119166666322,
      "v": 87
    },
    {
      "midi": 60,
      "hit": false,
      "t": 49666.69149999974,
      "d": 161.11119166666322,
      "v": 86
    },
    {
      "midi": 63,
      "hit": false,
      "t": 49666.69149999974,
      "d": 161.11119166666322,
      "v": 85
    },
    {
      "midi": 68,
      "hit": false,
      "t": 49666.69149999974,
      "d": 161.11119166666322,
      "v": 91
    },
    {
      "midi": 48,
      "hit": false,
      "t": 49666.69149999974,
      "d": 327.7779416666599,
      "v": 99
    },
    {
      "midi": 60,
      "hit": false,
      "t": 50000.02499999973,
      "d": 161.11119166666322,
      "v": 90
    },
    {
      "midi": 63,
      "hit": false,
      "t": 50000.02499999973,
      "d": 161.11119166666322,
      "v": 89
    },
    {
      "midi": 68,
      "hit": false,
      "t": 50000.02499999973,
      "d": 161.11119166666322,
      "v": 98
    },
    {
      "midi": 72,
      "hit": false,
      "t": 50000.02499999973,
      "d": 161.11119166666322,
      "v": 88
    },
    {
      "midi": 51,
      "hit": false,
      "t": 50000.02499999973,
      "d": 327.7779416666599,
      "v": 98
    },
    {
      "midi": 61,
      "hit": false,
      "t": 51666.69249999973,
      "d": 161.11119166666322,
      "v": 89
    },
    {
      "midi": 67,
      "hit": false,
      "t": 51666.69249999973,
      "d": 161.11119166666322,
      "v": 99
    },
    {
      "midi": 70,
      "hit": false,
      "t": 51666.69249999973,
      "d": 161.11119166666322,
      "v": 98
    },
    {
      "midi": 43,
      "hit": false,
      "t": 51666.69249999973,
      "d": 327.7779416666599,
      "v": 93
    },
    {
      "midi": 60,
      "hit": false,
      "t": 52000.02599999972,
      "d": 161.11119166666322,
      "v": 90
    },
    {
      "midi": 65,
      "hit": false,
      "t": 52000.02599999972,
      "d": 161.11119166666322,
      "v": 98
    },
    {
      "midi": 68,
      "hit": false,
      "t": 52000.02599999972,
      "d": 161.11119166666322,
      "v": 93
    },
    {
      "midi": 41,
      "hit": false,
      "t": 52000.02599999972,
      "d": 1327.77844166664,
      "v": 95
    },
    {
      "midi": 60,
      "hit": false,
      "t": 52333.359499999715,
      "d": 161.11119166666322,
      "v": 87
    },
    {
      "midi": 65,
      "hit": false,
      "t": 52333.359499999715,
      "d": 161.11119166666322,
      "v": 93
    },
    {
      "midi": 68,
      "hit": false,
      "t": 52333.359499999715,
      "d": 161.11119166666322,
      "v": 89
    },
    {
      "midi": 60,
      "hit": false,
      "t": 52666.69299999971,
      "d": 161.11119166666322,
      "v": 84
    },
    {
      "midi": 65,
      "hit": false,
      "t": 52666.69299999971,
      "d": 161.11119166666322,
      "v": 97
    },
    {
      "midi": 68,
      "hit": false,
      "t": 52666.69299999971,
      "d": 161.11119166666322,
      "v": 86
    },
    {
      "midi": 60,
      "hit": false,
      "t": 53000.0264999997,
      "d": 161.11119166666322,
      "v": 86
    },
    {
      "midi": 65,
      "hit": false,
      "t": 53000.0264999997,
      "d": 161.11119166666322,
      "v": 91
    },
    {
      "midi": 68,
      "hit": false,
      "t": 53000.0264999997,
      "d": 161.11119166666322,
      "v": 88
    },
    {
      "midi": 60,
      "hit": false,
      "t": 53333.359999999695,
      "d": 161.11119166666322,
      "v": 84
    },
    {
      "midi": 65,
      "hit": false,
      "t": 53333.359999999695,
      "d": 161.11119166666322,
      "v": 82
    },
    {
      "midi": 68,
      "hit": false,
      "t": 53333.359999999695,
      "d": 161.11119166666322,
      "v": 88
    },
    {
      "midi": 60,
      "hit": false,
      "t": 53666.69349999969,
      "d": 161.11119166666322,
      "v": 85
    },
    {
      "midi": 65,
      "hit": false,
      "t": 53666.69349999969,
      "d": 161.11119166666322,
      "v": 91
    },
    {
      "midi": 68,
      "hit": false,
      "t": 53666.69349999969,
      "d": 161.11119166666322,
      "v": 88
    },
    {
      "midi": 44,
      "hit": false,
      "t": 53666.69349999969,
      "d": 327.7779416666599,
      "v": 95
    },
    {
      "midi": 60,
      "hit": false,
      "t": 54000.02699999968,
      "d": 161.11119166666322,
      "v": 93
    },
    {
      "midi": 65,
      "hit": false,
      "t": 54000.02699999968,
      "d": 161.11119166666322,
      "v": 97
    },
    {
      "midi": 68,
      "hit": false,
      "t": 54000.02699999968,
      "d": 161.11119166666322,
      "v": 96
    },
    {
      "midi": 48,
      "hit": false,
      "t": 54000.02699999968,
      "d": 994.4449416666466,
      "v": 94
    },
    {
      "midi": 60,
      "hit": false,
      "t": 54333.360499999675,
      "d": 161.11119166666322,
      "v": 85
    },
    {
      "midi": 65,
      "hit": false,
      "t": 54333.360499999675,
      "d": 161.11119166666322,
      "v": 90
    },
    {
      "midi": 68,
      "hit": false,
      "t": 54333.360499999675,
      "d": 161.11119166666322,
      "v": 88
    },
    {
      "midi": 60,
      "hit": false,
      "t": 54666.69399999967,
      "d": 161.11119166666322,
      "v": 83
    },
    {
      "midi": 65,
      "hit": false,
      "t": 54666.69399999967,
      "d": 161.11119166666322,
      "v": 89
    },
    {
      "midi": 68,
      "hit": false,
      "t": 54666.69399999967,
      "d": 161.11119166666322,
      "v": 89
    },
    {
      "midi": 60,
      "hit": false,
      "t": 55000.02749999966,
      "d": 161.11119166666322,
      "v": 85
    },
    {
      "midi": 65,
      "hit": false,
      "t": 55000.02749999966,
      "d": 161.11119166666322,
      "v": 90
    },
    {
      "midi": 68,
      "hit": false,
      "t": 55000.02749999966,
      "d": 161.11119166666322,
      "v": 88
    },
    {
      "midi": 44,
      "hit": false,
      "t": 55000.02749999966,
      "d": 661.1114416666533,
      "v": 90
    },
    {
      "midi": 60,
      "hit": false,
      "t": 55333.360999999655,
      "d": 161.11119166666322,
      "v": 83
    },
    {
      "midi": 65,
      "hit": false,
      "t": 55333.360999999655,
      "d": 161.11119166666322,
      "v": 89
    },
    {
      "midi": 68,
      "hit": false,
      "t": 55333.360999999655,
      "d": 161.11119166666322,
      "v": 87
    },
    {
      "midi": 60,
      "hit": false,
      "t": 55666.69449999965,
      "d": 161.11119166666322,
      "v": 81
    },
    {
      "midi": 65,
      "hit": false,
      "t": 55666.69449999965,
      "d": 161.11119166666322,
      "v": 87
    },
    {
      "midi": 68,
      "hit": false,
      "t": 55666.69449999965,
      "d": 161.11119166666322,
      "v": 87
    },
    {
      "midi": 48,
      "hit": false,
      "t": 55666.69449999965,
      "d": 327.7779416666599,
      "v": 98
    },
    {
      "midi": 60,
      "hit": false,
      "t": 56000.02799999964,
      "d": 161.11119166666322,
      "v": 86
    },
    {
      "midi": 65,
      "hit": false,
      "t": 56000.02799999964,
      "d": 161.11119166666322,
      "v": 88
    },
    {
      "midi": 68,
      "hit": false,
      "t": 56000.02799999964,
      "d": 161.11119166666322,
      "v": 91
    },
    {
      "midi": 41,
      "hit": false,
      "t": 56000.02799999964,
      "d": 1327.77844166664,
      "v": 93
    },
    {
      "midi": 60,
      "hit": false,
      "t": 56333.361499999635,
      "d": 161.11119166666322,
      "v": 87
    },
    {
      "midi": 65,
      "hit": false,
      "t": 56333.361499999635,
      "d": 161.11119166666322,
      "v": 90
    },
    {
      "midi": 68,
      "hit": false,
      "t": 56333.361499999635,
      "d": 161.11119166666322,
      "v": 91
    },
    {
      "midi": 60,
      "hit": false,
      "t": 56666.69499999963,
      "d": 161.11119166666322,
      "v": 87
    },
    {
      "midi": 65,
      "hit": false,
      "t": 56666.69499999963,
      "d": 161.11119166666322,
      "v": 91
    },
    {
      "midi": 68,
      "hit": false,
      "t": 56666.69499999963,
      "d": 161.11119166666322,
      "v": 88
    },
    {
      "midi": 60,
      "hit": false,
      "t": 57000.02849999962,
      "d": 161.11119166666322,
      "v": 85
    },
    {
      "midi": 65,
      "hit": false,
      "t": 57000.02849999962,
      "d": 161.11119166666322,
      "v": 89
    },
    {
      "midi": 68,
      "hit": false,
      "t": 57000.02849999962,
      "d": 161.11119166666322,
      "v": 87
    },
    {
      "midi": 60,
      "hit": false,
      "t": 57333.361999999615,
      "d": 161.11119166666322,
      "v": 87
    },
    {
      "midi": 65,
      "hit": false,
      "t": 57333.361999999615,
      "d": 161.11119166666322,
      "v": 90
    },
    {
      "midi": 68,
      "hit": false,
      "t": 57333.361999999615,
      "d": 161.11119166666322,
      "v": 89
    },
    {
      "midi": 60,
      "hit": false,
      "t": 57666.69549999961,
      "d": 161.11119166666322,
      "v": 87
    },
    {
      "midi": 65,
      "hit": false,
      "t": 57666.69549999961,
      "d": 161.11119166666322,
      "v": 94
    },
    {
      "midi": 68,
      "hit": false,
      "t": 57666.69549999961,
      "d": 161.11119166666322,
      "v": 91
    },
    {
      "midi": 44,
      "hit": false,
      "t": 57666.69549999961,
      "d": 327.7779416666599,
      "v": 93
    },
    {
      "midi": 60,
      "hit": false,
      "t": 58000.0289999996,
      "d": 161.11119166666322,
      "v": 93
    },
    {
      "midi": 65,
      "hit": false,
      "t": 58000.0289999996,
      "d": 161.11119166666322,
      "v": 100
    },
    {
      "midi": 68,
      "hit": false,
      "t": 58000.0289999996,
      "d": 161.11119166666322,
      "v": 93
    },
    {
      "midi": 72,
      "hit": false,
      "t": 58000.0289999996,
      "d": 161.11119166666322,
      "v": 94
    },
    {
      "midi": 48,
      "hit": false,
      "t": 58000.0289999996,
      "d": 327.7779416666599,
      "v": 96
    },
    {
      "midi": 58,
      "hit": false,
      "t": 59666.6964999996,
      "d": 161.11119166666322,
      "v": 87
    },
    {
      "midi": 63,
      "hit": false,
      "t": 59666.6964999996,
      "d": 161.11119166666322,
      "v": 97
    },
    {
      "midi": 67,
      "hit": false,
      "t": 59666.6964999996,
      "d": 161.11119166666322,
      "v": 98
    },
    {
      "midi": 70,
      "hit": false,
      "t": 59666.6964999996,
      "d": 161.11119166666322,
      "v": 92
    },
    {
      "midi": 39,
      "hit": false,
      "t": 59666.6964999996,
      "d": 327.7779416666599,
      "v": 98
    },
    {
      "midi": 56,
      "hit": false,
      "t": 60000.02999999959,
      "d": 161.11119166666322,
      "v": 91
    },
    {
      "midi": 61,
      "hit": false,
      "t": 60000.02999999959,
      "d": 161.11119166666322,
      "v": 98
    },
    {
      "midi": 65,
      "hit": false,
      "t": 60000.02999999959,
      "d": 161.11119166666322,
      "v": 100
    },
    {
      "midi": 37,
      "hit": false,
      "t": 60000.02999999959,
      "d": 1327.77844166664,
      "v": 98
    },
    {
      "midi": 56,
      "hit": false,
      "t": 60333.363499999585,
      "d": 161.11119166666322,
      "v": 88
    },
    {
      "midi": 61,
      "hit": false,
      "t": 60333.363499999585,
      "d": 161.11119166666322,
      "v": 98
    },
    {
      "midi": 65,
      "hit": false,
      "t": 60333.363499999585,
      "d": 161.11119166666322,
      "v": 99
    },
    {
      "midi": 56,
      "hit": false,
      "t": 60666.69699999958,
      "d": 161.11119166666322,
      "v": 86
    },
    {
      "midi": 61,
      "hit": false,
      "t": 60666.69699999958,
      "d": 161.11119166666322,
      "v": 93
    },
    {
      "midi": 65,
      "hit": false,
      "t": 60666.69699999958,
      "d": 161.11119166666322,
      "v": 97
    },
    {
      "midi": 56,
      "hit": false,
      "t": 61000.03049999957,
      "d": 161.11119166666322,
      "v": 85
    },
    {
      "midi": 61,
      "hit": false,
      "t": 61000.03049999957,
      "d": 161.11119166666322,
      "v": 94
    },
    {
      "midi": 65,
      "hit": false,
      "t": 61000.03049999957,
      "d": 161.11119166666322,
      "v": 98
    },
    {
      "midi": 56,
      "hit": false,
      "t": 61333.363999999565,
      "d": 161.11119166666322,
      "v": 89
    },
    {
      "midi": 61,
      "hit": false,
      "t": 61333.363999999565,
      "d": 161.11119166666322,
      "v": 95
    },
    {
      "midi": 65,
      "hit": false,
      "t": 61333.363999999565,
      "d": 161.11119166666322,
      "v": 98
    },
    {
      "midi": 56,
      "hit": false,
      "t": 61666.69749999956,
      "d": 161.11119166666322,
      "v": 88
    },
    {
      "midi": 61,
      "hit": false,
      "t": 61666.69749999956,
      "d": 161.11119166666322,
      "v": 94
    },
    {
      "midi": 65,
      "hit": false,
      "t": 61666.69749999956,
      "d": 161.11119166666322,
      "v": 99
    },
    {
      "midi": 41,
      "hit": false,
      "t": 61666.69749999956,
      "d": 327.7779416666599,
      "v": 95
    },
    {
      "midi": 56,
      "hit": false,
      "t": 62000.03099999955,
      "d": 161.11119166666322,
      "v": 87
    },
    {
      "midi": 61,
      "hit": false,
      "t": 62000.03099999955,
      "d": 161.11119166666322,
      "v": 97
    },
    {
      "midi": 65,
      "hit": false,
      "t": 62000.03099999955,
      "d": 161.11119166666322,
      "v": 98
    },
    {
      "midi": 44,
      "hit": false,
      "t": 62000.03099999955,
      "d": 994.4449416666466,
      "v": 89
    },
    {
      "midi": 56,
      "hit": false,
      "t": 62333.364499999545,
      "d": 161.11119166666322,
      "v": 89
    },
    {
      "midi": 61,
      "hit": false,
      "t": 62333.364499999545,
      "d": 161.11119166666322,
      "v": 96
    },
    {
      "midi": 65,
      "hit": false,
      "t": 62333.364499999545,
      "d": 161.11119166666322,
      "v": 98
    },
    {
      "midi": 56,
      "hit": false,
      "t": 62666.69799999954,
      "d": 161.11119166666322,
      "v": 87
    },
    {
      "midi": 61,
      "hit": false,
      "t": 62666.69799999954,
      "d": 161.11119166666322,
      "v": 95
    },
    {
      "midi": 65,
      "hit": false,
      "t": 62666.69799999954,
      "d": 161.11119166666322,
      "v": 98
    },
    {
      "midi": 56,
      "hit": false,
      "t": 63000.03149999953,
      "d": 161.11119166666322,
      "v": 85
    },
    {
      "midi": 61,
      "hit": false,
      "t": 63000.03149999953,
      "d": 161.11119166666322,
      "v": 94
    },
    {
      "midi": 65,
      "hit": false,
      "t": 63000.03149999953,
      "d": 161.11119166666322,
      "v": 99
    },
    {
      "midi": 41,
      "hit": false,
      "t": 63000.03149999953,
      "d": 661.1114416666533,
      "v": 97
    },
    {
      "midi": 56,
      "hit": false,
      "t": 63333.364999999525,
      "d": 161.11119166666322,
      "v": 86
    },
    {
      "midi": 61,
      "hit": false,
      "t": 63333.364999999525,
      "d": 161.11119166666322,
      "v": 93
    },
    {
      "midi": 65,
      "hit": false,
      "t": 63333.364999999525,
      "d": 161.11119166666322,
      "v": 95
    },
    {
      "midi": 56,
      "hit": false,
      "t": 63666.69849999952,
      "d": 161.11119166666322,
      "v": 82
    },
    {
      "midi": 61,
      "hit": false,
      "t": 63666.69849999952,
      "d": 161.11119166666322,
      "v": 92
    },
    {
      "midi": 65,
      "hit": false,
      "t": 63666.69849999952,
      "d": 161.11119166666322,
      "v": 90
    },
    {
      "midi": 44,
      "hit": false,
      "t": 63666.69849999952,
      "d": 327.7779416666599,
      "v": 90
    },
    {
      "midi": 56,
      "hit": false,
      "t": 64000.03199999951,
      "d": 161.11119166666322,
      "v": 96
    },
    {
      "midi": 61,
      "hit": false,
      "t": 64000.03199999951,
      "d": 161.11119166666322,
      "v": 95
    },
    {
      "midi": 65,
      "hit": false,
      "t": 64000.03199999951,
      "d": 161.11119166666322,
      "v": 100
    },
    {
      "midi": 37,
      "hit": false,
      "t": 64000.03199999951,
      "d": 1327.77844166664,
      "v": 99
    },
    {
      "midi": 56,
      "hit": false,
      "t": 64333.365499999505,
      "d": 161.11119166666322,
      "v": 89
    },
    {
      "midi": 61,
      "hit": false,
      "t": 64333.365499999505,
      "d": 161.11119166666322,
      "v": 95
    },
    {
      "midi": 65,
      "hit": false,
      "t": 64333.365499999505,
      "d": 161.11119166666322,
      "v": 99
    },
    {
      "midi": 56,
      "hit": false,
      "t": 64666.6989999995,
      "d": 161.11119166666322,
      "v": 90
    },
    {
      "midi": 61,
      "hit": false,
      "t": 64666.6989999995,
      "d": 161.11119166666322,
      "v": 98
    },
    {
      "midi": 65,
      "hit": false,
      "t": 64666.6989999995,
      "d": 161.11119166666322,
      "v": 99
    },
    {
      "midi": 56,
      "hit": false,
      "t": 65000.03249999949,
      "d": 161.11119166666322,
      "v": 91
    },
    {
      "midi": 61,
      "hit": false,
      "t": 65000.03249999949,
      "d": 161.11119166666322,
      "v": 97
    },
    {
      "midi": 65,
      "hit": false,
      "t": 65000.03249999949,
      "d": 161.11119166666322,
      "v": 100
    },
    {
      "midi": 56,
      "hit": false,
      "t": 65333.365999999485,
      "d": 161.11119166666322,
      "v": 87
    },
    {
      "midi": 61,
      "hit": false,
      "t": 65333.365999999485,
      "d": 161.11119166666322,
      "v": 90
    },
    {
      "midi": 65,
      "hit": false,
      "t": 65333.365999999485,
      "d": 161.11119166666322,
      "v": 99
    },
    {
      "midi": 56,
      "hit": false,
      "t": 65666.69949999948,
      "d": 161.1111916666705,
      "v": 91
    },
    {
      "midi": 61,
      "hit": false,
      "t": 65666.69949999948,
      "d": 161.1111916666705,
      "v": 94
    },
    {
      "midi": 65,
      "hit": false,
      "t": 65666.69949999948,
      "d": 161.1111916666705,
      "v": 98
    },
    {
      "midi": 41,
      "hit": false,
      "t": 65666.69949999948,
      "d": 327.77794166667445,
      "v": 97
    },
    {
      "midi": 56,
      "hit": false,
      "t": 66000.03299999949,
      "d": 161.1111916666705,
      "v": 91
    },
    {
      "midi": 61,
      "hit": false,
      "t": 66000.03299999949,
      "d": 161.1111916666705,
      "v": 98
    },
    {
      "midi": 65,
      "hit": false,
      "t": 66000.03299999949,
      "d": 161.1111916666705,
      "v": 98
    },
    {
      "midi": 44,
      "hit": false,
      "t": 66000.03299999949,
      "d": 994.4449416666903,
      "v": 90
    },
    {
      "midi": 56,
      "hit": false,
      "t": 66333.3664999995,
      "d": 161.1111916666705,
      "v": 90
    },
    {
      "midi": 61,
      "hit": false,
      "t": 66333.3664999995,
      "d": 161.1111916666705,
      "v": 87
    },
    {
      "midi": 65,
      "hit": false,
      "t": 66333.3664999995,
      "d": 161.1111916666705,
      "v": 94
    },
    {
      "midi": 56,
      "hit": false,
      "t": 66666.6999999995,
      "d": 161.1111916666705,
      "v": 91
    },
    {
      "midi": 61,
      "hit": false,
      "t": 66666.6999999995,
      "d": 161.1111916666705,
      "v": 87
    },
    {
      "midi": 65,
      "hit": false,
      "t": 66666.6999999995,
      "d": 161.1111916666705,
      "v": 98
    },
    {
      "midi": 56,
      "hit": false,
      "t": 67000.03349999951,
      "d": 161.1111916666705,
      "v": 90
    },
    {
      "midi": 61,
      "hit": false,
      "t": 67000.03349999951,
      "d": 161.1111916666705,
      "v": 92
    },
    {
      "midi": 65,
      "hit": false,
      "t": 67000.03349999951,
      "d": 161.1111916666705,
      "v": 99
    },
    {
      "midi": 37,
      "hit": false,
      "t": 67000.03349999951,
      "d": 661.1114416666824,
      "v": 99
    },
    {
      "midi": 56,
      "hit": false,
      "t": 67333.36699999952,
      "d": 161.1111916666705,
      "v": 89
    },
    {
      "midi": 61,
      "hit": false,
      "t": 67333.36699999952,
      "d": 161.1111916666705,
      "v": 96
    },
    {
      "midi": 65,
      "hit": false,
      "t": 67333.36699999952,
      "d": 161.1111916666705,
      "v": 98
    },
    {
      "midi": 56,
      "hit": false,
      "t": 67666.70049999953,
      "d": 161.1111916666705,
      "v": 98
    },
    {
      "midi": 61,
      "hit": false,
      "t": 67666.70049999953,
      "d": 161.1111916666705,
      "v": 91
    },
    {
      "midi": 65,
      "hit": false,
      "t": 67666.70049999953,
      "d": 161.1111916666705,
      "v": 98
    },
    {
      "midi": 38,
      "hit": false,
      "t": 67666.70049999953,
      "d": 327.77794166667445,
      "v": 95
    },
    {
      "midi": 39,
      "hit": false,
      "t": 68000.03399999953,
      "d": 438.8891083333292,
      "v": 94
    },
    {
      "midi": 55,
      "hit": false,
      "t": 68000.03399999953,
      "d": 438.8891083333292,
      "v": 83
    },
    {
      "midi": 58,
      "hit": false,
      "t": 68000.03399999953,
      "d": 438.8891083333292,
      "v": 87
    },
    {
      "midi": 63,
      "hit": false,
      "t": 68000.03399999953,
      "d": 438.8891083333292,
      "v": 85
    },
    {
      "midi": 67,
      "hit": false,
      "t": 68000.03399999953,
      "d": 438.8891083333292,
      "v": 77
    },
    {
      "midi": 39,
      "hit": false,
      "t": 68444.4786666662,
      "d": 438.8891083333292,
      "v": 99
    },
    {
      "midi": 55,
      "hit": false,
      "t": 68444.4786666662,
      "d": 438.8891083333292,
      "v": 82
    },
    {
      "midi": 58,
      "hit": false,
      "t": 68444.4786666662,
      "d": 438.8891083333292,
      "v": 86
    },
    {
      "midi": 63,
      "hit": false,
      "t": 68444.4786666662,
      "d": 438.8891083333292,
      "v": 85
    },
    {
      "midi": 67,
      "hit": false,
      "t": 68444.4786666662,
      "d": 438.8891083333292,
      "v": 77
    },
    {
      "midi": 39,
      "hit": false,
      "t": 68888.92333333286,
      "d": 438.8891083333292,
      "v": 96
    },
    {
      "midi": 55,
      "hit": false,
      "t": 68888.92333333286,
      "d": 438.8891083333292,
      "v": 83
    },
    {
      "midi": 58,
      "hit": false,
      "t": 68888.92333333286,
      "d": 438.8891083333292,
      "v": 87
    },
    {
      "midi": 63,
      "hit": false,
      "t": 68888.92333333286,
      "d": 438.8891083333292,
      "v": 87
    },
    {
      "midi": 67,
      "hit": false,
      "t": 68888.92333333286,
      "d": 438.8891083333292,
      "v": 78
    },
    {
      "midi": 39,
      "hit": false,
      "t": 69333.36799999952,
      "d": 438.8891083333292,
      "v": 94
    },
    {
      "midi": 55,
      "hit": false,
      "t": 69333.36799999952,
      "d": 438.8891083333292,
      "v": 82
    },
    {
      "midi": 58,
      "hit": false,
      "t": 69333.36799999952,
      "d": 438.8891083333292,
      "v": 88
    },
    {
      "midi": 63,
      "hit": false,
      "t": 69333.36799999952,
      "d": 438.8891083333292,
      "v": 88
    },
    {
      "midi": 67,
      "hit": false,
      "t": 69333.36799999952,
      "d": 438.8891083333292,
      "v": 82
    },
    {
      "midi": 41,
      "hit": false,
      "t": 69777.81266666618,
      "d": 438.8891083333292,
      "v": 94
    },
    {
      "midi": 56,
      "hit": false,
      "t": 69777.81266666618,
      "d": 438.8891083333292,
      "v": 91
    },
    {
      "midi": 63,
      "hit": false,
      "t": 69777.81266666618,
      "d": 438.8891083333292,
      "v": 95
    },
    {
      "midi": 68,
      "hit": false,
      "t": 69777.81266666618,
      "d": 438.8891083333292,
      "v": 94
    },
    {
      "midi": 42,
      "hit": false,
      "t": 70222.25733333285,
      "d": 438.8891083333292,
      "v": 100
    },
    {
      "midi": 57,
      "hit": false,
      "t": 70222.25733333285,
      "d": 438.8891083333292,
      "v": 89
    },
    {
      "midi": 63,
      "hit": false,
      "t": 70222.25733333285,
      "d": 438.8891083333292,
      "v": 86
    },
    {
      "midi": 69,
      "hit": false,
      "t": 70222.25733333285,
      "d": 438.8891083333292,
      "v": 83
    },
    {
      "midi": 43,
      "hit": false,
      "t": 70666.70199999951,
      "d": 327.7779416666599,
      "v": 93
    },
    {
      "midi": 58,
      "hit": false,
      "t": 70666.70199999951,
      "d": 327.7779416666599,
      "v": 87
    },
    {
      "midi": 63,
      "hit": false,
      "t": 70666.70199999951,
      "d": 327.7779416666599,
      "v": 98
    },
    {
      "midi": 70,
      "hit": false,
      "t": 70666.70199999951,
      "d": 327.7779416666599,
      "v": 88
    },
    {
      "midi": 75,
      "hit": false,
      "t": 71666.7024999995,
      "d": 1994.4454416666704,
      "v": 88
    },
    {
      "midi": 87,
      "hit": false,
      "t": 71666.7024999995,
      "d": 1994.4454416666704,
      "v": 94
    },
    {
      "midi": 80,
      "hit": false,
      "t": 74666.7039999995,
      "d": 161.1111916666705,
      "v": 85
    },
    {
      "midi": 84,
      "hit": false,
      "t": 74666.7039999995,
      "d": 161.1111916666705,
      "v": 99
    },
    {
      "midi": 87,
      "hit": false,
      "t": 74666.7039999995,
      "d": 161.1111916666705,
      "v": 94
    },
    {
      "midi": 68,
      "hit": false,
      "t": 74666.7039999995,
      "d": 1327.7784416666982,
      "v": 89
    },
    {
      "midi": 80,
      "hit": false,
      "t": 75000.03749999951,
      "d": 161.1111916666705,
      "v": 81
    },
    {
      "midi": 84,
      "hit": false,
      "t": 75000.03749999951,
      "d": 161.1111916666705,
      "v": 90
    },
    {
      "midi": 87,
      "hit": false,
      "t": 75000.03749999951,
      "d": 161.1111916666705,
      "v": 86
    },
    {
      "midi": 80,
      "hit": false,
      "t": 75333.37099999952,
      "d": 161.1111916666705,
      "v": 81
    },
    {
      "midi": 84,
      "hit": false,
      "t": 75333.37099999952,
      "d": 161.1111916666705,
      "v": 94
    },
    {
      "midi": 87,
      "hit": false,
      "t": 75333.37099999952,
      "d": 161.1111916666705,
      "v": 87
    },
    {
      "midi": 80,
      "hit": false,
      "t": 75666.70449999953,
      "d": 161.1111916666705,
      "v": 83
    },
    {
      "midi": 84,
      "hit": false,
      "t": 75666.70449999953,
      "d": 161.1111916666705,
      "v": 92
    },
    {
      "midi": 87,
      "hit": false,
      "t": 75666.70449999953,
      "d": 161.1111916666705,
      "v": 87
    },
    {
      "midi": 80,
      "hit": false,
      "t": 76000.03799999953,
      "d": 161.1111916666705,
      "v": 79
    },
    {
      "midi": 84,
      "hit": false,
      "t": 76000.03799999953,
      "d": 161.1111916666705,
      "v": 88
    },
    {
      "midi": 87,
      "hit": false,
      "t": 76000.03799999953,
      "d": 161.1111916666705,
      "v": 83
    },
    {
      "midi": 80,
      "hit": false,
      "t": 76333.37149999954,
      "d": 161.1111916666705,
      "v": 89
    },
    {
      "midi": 84,
      "hit": false,
      "t": 76333.37149999954,
      "d": 161.1111916666705,
      "v": 95
    },
    {
      "midi": 87,
      "hit": false,
      "t": 76333.37149999954,
      "d": 161.1111916666705,
      "v": 91
    },
    {
      "midi": 72,
      "hit": false,
      "t": 76333.37149999954,
      "d": 327.77794166667445,
      "v": 98
    },
    {
      "midi": 80,
      "hit": false,
      "t": 76666.70499999955,
      "d": 161.1111916666705,
      "v": 84
    },
    {
      "midi": 84,
      "hit": false,
      "t": 76666.70499999955,
      "d": 161.1111916666705,
      "v": 95
    },
    {
      "midi": 87,
      "hit": false,
      "t": 76666.70499999955,
      "d": 161.1111916666705,
      "v": 86
    },
    {
      "midi": 75,
      "hit": false,
      "t": 76666.70499999955,
      "d": 994.4449416666903,
      "v": 95
    },
    {
      "midi": 80,
      "hit": false,
      "t": 77000.03849999956,
      "d": 161.1111916666705,
      "v": 82
    },
    {
      "midi": 84,
      "hit": false,
      "t": 77000.03849999956,
      "d": 161.1111916666705,
      "v": 94
    },
    {
      "midi": 87,
      "hit": false,
      "t": 77000.03849999956,
      "d": 161.1111916666705,
      "v": 84
    },
    {
      "midi": 80,
      "hit": false,
      "t": 77333.37199999957,
      "d": 161.1111916666705,
      "v": 78
    },
    {
      "midi": 84,
      "hit": false,
      "t": 77333.37199999957,
      "d": 161.1111916666705,
      "v": 94
    },
    {
      "midi": 87,
      "hit": false,
      "t": 77333.37199999957,
      "d": 161.1111916666705,
      "v": 85
    },
    {
      "midi": 80,
      "hit": false,
      "t": 77666.70549999957,
      "d": 161.1111916666705,
      "v": 83
    },
    {
      "midi": 84,
      "hit": false,
      "t": 77666.70549999957,
      "d": 161.1111916666705,
      "v": 93
    },
    {
      "midi": 87,
      "hit": false,
      "t": 77666.70549999957,
      "d": 161.1111916666705,
      "v": 83
    },
    {
      "midi": 72,
      "hit": false,
      "t": 77666.70549999957,
      "d": 661.1114416666824,
      "v": 94
    },
    {
      "midi": 80,
      "hit": false,
      "t": 78000.03899999958,
      "d": 161.1111916666705,
      "v": 85
    },
    {
      "midi": 84,
      "hit": false,
      "t": 78000.03899999958,
      "d": 161.1111916666705,
      "v": 92
    },
    {
      "midi": 87,
      "hit": false,
      "t": 78000.03899999958,
      "d": 161.1111916666705,
      "v": 88
    },
    {
      "midi": 80,
      "hit": false,
      "t": 78333.37249999959,
      "d": 161.1111916666705,
      "v": 82
    },
    {
      "midi": 84,
      "hit": false,
      "t": 78333.37249999959,
      "d": 161.1111916666705,
      "v": 97
    },
    {
      "midi": 87,
      "hit": false,
      "t": 78333.37249999959,
      "d": 161.1111916666705,
      "v": 85
    },
    {
      "midi": 75,
      "hit": false,
      "t": 78333.37249999959,
      "d": 327.77794166667445,
      "v": 94
    },
    {
      "midi": 80,
      "hit": false,
      "t": 78666.7059999996,
      "d": 161.1111916666705,
      "v": 88
    },
    {
      "midi": 84,
      "hit": false,
      "t": 78666.7059999996,
      "d": 161.1111916666705,
      "v": 93
    },
    {
      "midi": 87,
      "hit": false,
      "t": 78666.7059999996,
      "d": 161.1111916666705,
      "v": 91
    },
    {
      "midi": 68,
      "hit": false,
      "t": 78666.7059999996,
      "d": 1327.7784416666982,
      "v": 90
    },
    {
      "midi": 80,
      "hit": false,
      "t": 79000.0394999996,
      "d": 161.1111916666705,
      "v": 88
    },
    {
      "midi": 84,
      "hit": false,
      "t": 79000.0394999996,
      "d": 161.1111916666705,
      "v": 93
    },
    {
      "midi": 87,
      "hit": false,
      "t": 79000.0394999996,
      "d": 161.1111916666705,
      "v": 88
    },
    {
      "midi": 80,
      "hit": false,
      "t": 79333.37299999961,
      "d": 161.1111916666705,
      "v": 84
    },
    {
      "midi": 84,
      "hit": false,
      "t": 79333.37299999961,
      "d": 161.1111916666705,
      "v": 94
    },
    {
      "midi": 87,
      "hit": false,
      "t": 79333.37299999961,
      "d": 161.1111916666705,
      "v": 87
    },
    {
      "midi": 80,
      "hit": false,
      "t": 79666.70649999962,
      "d": 161.1111916666705,
      "v": 85
    },
    {
      "midi": 84,
      "hit": false,
      "t": 79666.70649999962,
      "d": 161.1111916666705,
      "v": 93
    },
    {
      "midi": 87,
      "hit": false,
      "t": 79666.70649999962,
      "d": 161.1111916666705,
      "v": 87
    },
    {
      "midi": 80,
      "hit": false,
      "t": 80000.03999999963,
      "d": 161.1111916666705,
      "v": 82
    },
    {
      "midi": 84,
      "hit": false,
      "t": 80000.03999999963,
      "d": 161.1111916666705,
      "v": 93
    },
    {
      "midi": 87,
      "hit": false,
      "t": 80000.03999999963,
      "d": 161.1111916666705,
      "v": 84
    },
    {
      "midi": 80,
      "hit": false,
      "t": 80333.37349999964,
      "d": 161.1111916666705,
      "v": 86
    },
    {
      "midi": 84,
      "hit": false,
      "t": 80333.37349999964,
      "d": 161.1111916666705,
      "v": 94
    },
    {
      "midi": 87,
      "hit": false,
      "t": 80333.37349999964,
      "d": 161.1111916666705,
      "v": 88
    },
    {
      "midi": 72,
      "hit": false,
      "t": 80333.37349999964,
      "d": 327.77794166667445,
      "v": 98
    },
    {
      "midi": 80,
      "hit": false,
      "t": 80666.70699999965,
      "d": 161.1111916666705,
      "v": 86
    },
    {
      "midi": 84,
      "hit": false,
      "t": 80666.70699999965,
      "d": 161.1111916666705,
      "v": 92
    },
    {
      "midi": 87,
      "hit": false,
      "t": 80666.70699999965,
      "d": 161.1111916666705,
      "v": 87
    },
    {
      "midi": 75,
      "hit": false,
      "t": 80666.70699999965,
      "d": 994.4449416666903,
      "v": 93
    },
    {
      "midi": 80,
      "hit": false,
      "t": 81000.04049999965,
      "d": 161.1111916666705,
      "v": 79
    },
    {
      "midi": 84,
      "hit": false,
      "t": 81000.04049999965,
      "d": 161.1111916666705,
      "v": 89
    },
    {
      "midi": 87,
      "hit": false,
      "t": 81000.04049999965,
      "d": 161.1111916666705,
      "v": 81
    },
    {
      "midi": 80,
      "hit": false,
      "t": 81333.37399999966,
      "d": 161.1111916666705,
      "v": 83
    },
    {
      "midi": 84,
      "hit": false,
      "t": 81333.37399999966,
      "d": 161.1111916666705,
      "v": 93
    },
    {
      "midi": 87,
      "hit": false,
      "t": 81333.37399999966,
      "d": 161.1111916666705,
      "v": 86
    },
    {
      "midi": 80,
      "hit": false,
      "t": 81666.70749999967,
      "d": 161.1111916666705,
      "v": 87
    },
    {
      "midi": 84,
      "hit": false,
      "t": 81666.70749999967,
      "d": 161.1111916666705,
      "v": 93
    },
    {
      "midi": 87,
      "hit": false,
      "t": 81666.70749999967,
      "d": 161.1111916666705,
      "v": 91
    },
    {
      "midi": 68,
      "hit": false,
      "t": 81666.70749999967,
      "d": 661.1114416666678,
      "v": 87
    },
    {
      "midi": 62,
      "hit": false,
      "t": 82333.37449999967,
      "d": 161.1111916666705,
      "v": 82
    },
    {
      "midi": 67,
      "hit": false,
      "t": 82333.37449999967,
      "d": 161.1111916666705,
      "v": 93
    },
    {
      "midi": 71,
      "hit": false,
      "t": 82333.37449999967,
      "d": 161.1111916666705,
      "v": 92
    },
    {
      "midi": 43,
      "hit": false,
      "t": 82333.37449999967,
      "d": 327.77794166667445,
      "v": 96
    },
    {
      "midi": 60,
      "hit": false,
      "t": 82666.70799999968,
      "d": 161.1111916666705,
      "v": 87
    },
    {
      "midi": 63,
      "hit": false,
      "t": 82666.70799999968,
      "d": 161.1111916666705,
      "v": 88
    },
    {
      "midi": 68,
      "hit": false,
      "t": 82666.70799999968,
      "d": 161.1111916666705,
      "v": 92
    },
    {
      "midi": 44,
      "hit": false,
      "t": 82666.70799999968,
      "d": 1327.7784416666982,
      "v": 99
    },
    {
      "midi": 60,
      "hit": false,
      "t": 83000.04149999969,
      "d": 161.1111916666705,
      "v": 82
    },
    {
      "midi": 63,
      "hit": false,
      "t": 83000.04149999969,
      "d": 161.1111916666705,
      "v": 81
    },
    {
      "midi": 68,
      "hit": false,
      "t": 83000.04149999969,
      "d": 161.1111916666705,
      "v": 88
    },
    {
      "midi": 60,
      "hit": false,
      "t": 83333.3749999997,
      "d": 161.1111916666705,
      "v": 87
    },
    {
      "midi": 63,
      "hit": false,
      "t": 83333.3749999997,
      "d": 161.1111916666705,
      "v": 84
    },
    {
      "midi": 68,
      "hit": false,
      "t": 83333.3749999997,
      "d": 161.1111916666705,
      "v": 90
    },
    {
      "midi": 60,
      "hit": false,
      "t": 83666.7084999997,
      "d": 161.1111916666705,
      "v": 82
    },
    {
      "midi": 63,
      "hit": false,
      "t": 83666.7084999997,
      "d": 161.1111916666705,
      "v": 82
    },
    {
      "midi": 68,
      "hit": false,
      "t": 83666.7084999997,
      "d": 161.1111916666705,
      "v": 87
    },
    {
      "midi": 60,
      "hit": false,
      "t": 84000.04199999971,
      "d": 161.1111916666705,
      "v": 85
    },
    {
      "midi": 63,
      "hit": false,
      "t": 84000.04199999971,
      "d": 161.1111916666705,
      "v": 82
    },
    {
      "midi": 68,
      "hit": false,
      "t": 84000.04199999971,
      "d": 161.1111916666705,
      "v": 88
    },
    {
      "midi": 60,
      "hit": false,
      "t": 84333.37549999972,
      "d": 161.1111916666705,
      "v": 85
    },
    {
      "midi": 63,
      "hit": false,
      "t": 84333.37549999972,
      "d": 161.1111916666705,
      "v": 86
    },
    {
      "midi": 68,
      "hit": false,
      "t": 84333.37549999972,
      "d": 161.1111916666705,
      "v": 87
    },
    {
      "midi": 48,
      "hit": false,
      "t": 84333.37549999972,
      "d": 327.77794166667445,
      "v": 95
    },
    {
      "midi": 60,
      "hit": false,
      "t": 84666.70899999973,
      "d": 161.1111916666705,
      "v": 85
    },
    {
      "midi": 63,
      "hit": false,
      "t": 84666.70899999973,
      "d": 161.1111916666705,
      "v": 82
    },
    {
      "midi": 68,
      "hit": false,
      "t": 84666.70899999973,
      "d": 161.1111916666705,
      "v": 87
    },
    {
      "midi": 51,
      "hit": false,
      "t": 84666.70899999973,
      "d": 994.4449416666903,
      "v": 85
    },
    {
      "midi": 60,
      "hit": false,
      "t": 85000.04249999973,
      "d": 161.1111916666705,
      "v": 82
    },
    {
      "midi": 63,
      "hit": false,
      "t": 85000.04249999973,
      "d": 161.1111916666705,
      "v": 82
    },
    {
      "midi": 68,
      "hit": false,
      "t": 85000.04249999973,
      "d": 161.1111916666705,
      "v": 85
    },
    {
      "midi": 60,
      "hit": false,
      "t": 85333.37599999974,
      "d": 161.1111916666705,
      "v": 84
    },
    {
      "midi": 63,
      "hit": false,
      "t": 85333.37599999974,
      "d": 161.1111916666705,
      "v": 83
    },
    {
      "midi": 68,
      "hit": false,
      "t": 85333.37599999974,
      "d": 161.1111916666705,
      "v": 89
    },
    {
      "midi": 60,
      "hit": false,
      "t": 85666.70949999975,
      "d": 161.1111916666705,
      "v": 83
    },
    {
      "midi": 63,
      "hit": false,
      "t": 85666.70949999975,
      "d": 161.1111916666705,
      "v": 85
    },
    {
      "midi": 68,
      "hit": false,
      "t": 85666.70949999975,
      "d": 161.1111916666705,
      "v": 87
    },
    {
      "midi": 48,
      "hit": false,
      "t": 85666.70949999975,
      "d": 661.1114416666824,
      "v": 92
    },
    {
      "midi": 60,
      "hit": false,
      "t": 86000.04299999976,
      "d": 161.1111916666705,
      "v": 83
    },
    {
      "midi": 63,
      "hit": false,
      "t": 86000.04299999976,
      "d": 161.1111916666705,
      "v": 85
    },
    {
      "midi": 68,
      "hit": false,
      "t": 86000.04299999976,
      "d": 161.1111916666705,
      "v": 87
    },
    {
      "midi": 60,
      "hit": false,
      "t": 86333.37649999977,
      "d": 161.1111916666705,
      "v": 87
    },
    {
      "midi": 63,
      "hit": false,
      "t": 86333.37649999977,
      "d": 161.1111916666705,
      "v": 85
    },
    {
      "midi": 68,
      "hit": false,
      "t": 86333.37649999977,
      "d": 161.1111916666705,
      "v": 91
    },
    {
      "midi": 51,
      "hit": false,
      "t": 86333.37649999977,
      "d": 327.77794166667445,
      "v": 84
    },
    {
      "midi": 60,
      "hit": false,
      "t": 86666.70999999977,
      "d": 161.1111916666705,
      "v": 85
    },
    {
      "midi": 63,
      "hit": false,
      "t": 86666.70999999977,
      "d": 161.1111916666705,
      "v": 83
    },
    {
      "midi": 68,
      "hit": false,
      "t": 86666.70999999977,
      "d": 161.1111916666705,
      "v": 88
    },
    {
      "midi": 44,
      "hit": false,
      "t": 86666.70999999977,
      "d": 1327.7784416666982,
      "v": 98
    },
    {
      "midi": 60,
      "hit": false,
      "t": 87000.04349999978,
      "d": 161.1111916666705,
      "v": 84
    },
    {
      "midi": 63,
      "hit": false,
      "t": 87000.04349999978,
      "d": 161.1111916666705,
      "v": 83
    },
    {
      "midi": 68,
      "hit": false,
      "t": 87000.04349999978,
      "d": 161.1111916666705,
      "v": 87
    },
    {
      "midi": 60,
      "hit": false,
      "t": 87333.37699999979,
      "d": 161.1111916666705,
      "v": 86
    },
    {
      "midi": 63,
      "hit": false,
      "t": 87333.37699999979,
      "d": 161.1111916666705,
      "v": 83
    },
    {
      "midi": 68,
      "hit": false,
      "t": 87333.37699999979,
      "d": 161.1111916666705,
      "v": 88
    },
    {
      "midi": 60,
      "hit": false,
      "t": 87666.7104999998,
      "d": 161.1111916666705,
      "v": 85
    },
    {
      "midi": 63,
      "hit": false,
      "t": 87666.7104999998,
      "d": 161.1111916666705,
      "v": 82
    },
    {
      "midi": 68,
      "hit": false,
      "t": 87666.7104999998,
      "d": 161.1111916666705,
      "v": 87
    },
    {
      "midi": 60,
      "hit": false,
      "t": 88000.0439999998,
      "d": 161.1111916666705,
      "v": 84
    },
    {
      "midi": 63,
      "hit": false,
      "t": 88000.0439999998,
      "d": 161.1111916666705,
      "v": 84
    },
    {
      "midi": 68,
      "hit": false,
      "t": 88000.0439999998,
      "d": 161.1111916666705,
      "v": 87
    },
    {
      "midi": 60,
      "hit": false,
      "t": 88333.37749999981,
      "d": 161.1111916666705,
      "v": 81
    },
    {
      "midi": 63,
      "hit": false,
      "t": 88333.37749999981,
      "d": 161.1111916666705,
      "v": 85
    },
    {
      "midi": 68,
      "hit": false,
      "t": 88333.37749999981,
      "d": 161.1111916666705,
      "v": 86
    },
    {
      "midi": 48,
      "hit": false,
      "t": 88333.37749999981,
      "d": 327.77794166667445,
      "v": 98
    },
    {
      "midi": 60,
      "hit": false,
      "t": 88666.71099999982,
      "d": 161.1111916666705,
      "v": 93
    },
    {
      "midi": 63,
      "hit": false,
      "t": 88666.71099999982,
      "d": 161.1111916666705,
      "v": 89
    },
    {
      "midi": 68,
      "hit": false,
      "t": 88666.71099999982,
      "d": 161.1111916666705,
      "v": 95
    },
    {
      "midi": 51,
      "hit": false,
      "t": 88666.71099999982,
      "d": 327.77794166667445,
      "v": 95
    },
    {
      "midi": 61,
      "hit": false,
      "t": 90333.37849999983,
      "d": 161.1111916666705,
      "v": 84
    },
    {
      "midi": 67,
      "hit": false,
      "t": 90333.37849999983,
      "d": 161.1111916666705,
      "v": 97
    },
    {
      "midi": 70,
      "hit": false,
      "t": 90333.37849999983,
      "d": 161.1111916666705,
      "v": 96
    },
    {
      "midi": 43,
      "hit": false,
      "t": 90333.37849999983,
      "d": 327.77794166667445,
      "v": 93
    },
    {
      "midi": 60,
      "hit": false,
      "t": 90666.71199999984,
      "d": 161.1111916666705,
      "v": 93
    },
    {
      "midi": 65,
      "hit": false,
      "t": 90666.71199999984,
      "d": 161.1111916666705,
      "v": 99
    },
    {
      "midi": 68,
      "hit": false,
      "t": 90666.71199999984,
      "d": 161.1111916666705,
      "v": 94
    },
    {
      "midi": 41,
      "hit": false,
      "t": 90666.71199999984,
      "d": 1327.7784416666982,
      "v": 91
    },
    {
      "midi": 60,
      "hit": false,
      "t": 91000.04549999985,
      "d": 161.1111916666705,
      "v": 88
    },
    {
      "midi": 65,
      "hit": false,
      "t": 91000.04549999985,
      "d": 161.1111916666705,
      "v": 94
    },
    {
      "midi": 68,
      "hit": false,
      "t": 91000.04549999985,
      "d": 161.1111916666705,
      "v": 93
    },
    {
      "midi": 60,
      "hit": false,
      "t": 91333.37899999986,
      "d": 161.1111916666705,
      "v": 90
    },
    {
      "midi": 65,
      "hit": false,
      "t": 91333.37899999986,
      "d": 161.1111916666705,
      "v": 92
    },
    {
      "midi": 68,
      "hit": false,
      "t": 91333.37899999986,
      "d": 161.1111916666705,
      "v": 92
    },
    {
      "midi": 60,
      "hit": false,
      "t": 91666.71249999986,
      "d": 161.1111916666705,
      "v": 87
    },
    {
      "midi": 65,
      "hit": false,
      "t": 91666.71249999986,
      "d": 161.1111916666705,
      "v": 89
    },
    {
      "midi": 68,
      "hit": false,
      "t": 91666.71249999986,
      "d": 161.1111916666705,
      "v": 91
    },
    {
      "midi": 60,
      "hit": false,
      "t": 92000.04599999987,
      "d": 161.1111916666705,
      "v": 86
    },
    {
      "midi": 65,
      "hit": false,
      "t": 92000.04599999987,
      "d": 161.1111916666705,
      "v": 89
    },
    {
      "midi": 68,
      "hit": false,
      "t": 92000.04599999987,
      "d": 161.1111916666705,
      "v": 92
    },
    {
      "midi": 60,
      "hit": false,
      "t": 92333.37949999988,
      "d": 161.1111916666705,
      "v": 86
    },
    {
      "midi": 65,
      "hit": false,
      "t": 92333.37949999988,
      "d": 161.1111916666705,
      "v": 93
    },
    {
      "midi": 68,
      "hit": false,
      "t": 92333.37949999988,
      "d": 161.1111916666705,
      "v": 90
    },
    {
      "midi": 44,
      "hit": false,
      "t": 92333.37949999988,
      "d": 327.77794166667445,
      "v": 98
    },
    {
      "midi": 60,
      "hit": false,
      "t": 92666.71299999989,
      "d": 161.1111916666705,
      "v": 86
    },
    {
      "midi": 65,
      "hit": false,
      "t": 92666.71299999989,
      "d": 161.1111916666705,
      "v": 89
    },
    {
      "midi": 68,
      "hit": false,
      "t": 92666.71299999989,
      "d": 161.1111916666705,
      "v": 91
    },
    {
      "midi": 48,
      "hit": false,
      "t": 92666.71299999989,
      "d": 994.4449416666903,
      "v": 90
    },
    {
      "midi": 60,
      "hit": false,
      "t": 93000.0464999999,
      "d": 161.1111916666705,
      "v": 84
    },
    {
      "midi": 65,
      "hit": false,
      "t": 93000.0464999999,
      "d": 161.1111916666705,
      "v": 92
    },
    {
      "midi": 68,
      "hit": false,
      "t": 93000.0464999999,
      "d": 161.1111916666705,
      "v": 87
    },
    {
      "midi": 60,
      "hit": false,
      "t": 93333.3799999999,
      "d": 161.1111916666705,
      "v": 85
    },
    {
      "midi": 65,
      "hit": false,
      "t": 93333.3799999999,
      "d": 161.1111916666705,
      "v": 89
    },
    {
      "midi": 68,
      "hit": false,
      "t": 93333.3799999999,
      "d": 161.1111916666705,
      "v": 90
    },
    {
      "midi": 60,
      "hit": false,
      "t": 93666.71349999991,
      "d": 161.1111916666705,
      "v": 86
    },
    {
      "midi": 65,
      "hit": false,
      "t": 93666.71349999991,
      "d": 161.1111916666705,
      "v": 91
    },
    {
      "midi": 68,
      "hit": false,
      "t": 93666.71349999991,
      "d": 161.1111916666705,
      "v": 90
    },
    {
      "midi": 44,
      "hit": false,
      "t": 93666.71349999991,
      "d": 661.1114416666824,
      "v": 91
    },
    {
      "midi": 60,
      "hit": false,
      "t": 94000.04699999992,
      "d": 161.1111916666705,
      "v": 85
    },
    {
      "midi": 65,
      "hit": false,
      "t": 94000.04699999992,
      "d": 161.1111916666705,
      "v": 95
    },
    {
      "midi": 68,
      "hit": false,
      "t": 94000.04699999992,
      "d": 161.1111916666705,
      "v": 89
    },
    {
      "midi": 60,
      "hit": false,
      "t": 94333.38049999993,
      "d": 161.1111916666705,
      "v": 87
    },
    {
      "midi": 65,
      "hit": false,
      "t": 94333.38049999993,
      "d": 161.1111916666705,
      "v": 91
    },
    {
      "midi": 68,
      "hit": false,
      "t": 94333.38049999993,
      "d": 161.1111916666705,
      "v": 91
    },
    {
      "midi": 48,
      "hit": false,
      "t": 94333.38049999993,
      "d": 327.77794166667445,
      "v": 90
    },
    {
      "midi": 60,
      "hit": false,
      "t": 94666.71399999993,
      "d": 161.1111916666705,
      "v": 83
    },
    {
      "midi": 65,
      "hit": false,
      "t": 94666.71399999993,
      "d": 161.1111916666705,
      "v": 94
    },
    {
      "midi": 68,
      "hit": false,
      "t": 94666.71399999993,
      "d": 161.1111916666705,
      "v": 87
    },
    {
      "midi": 41,
      "hit": false,
      "t": 94666.71399999993,
      "d": 1327.7784416666982,
      "v": 95
    },
    {
      "midi": 60,
      "hit": false,
      "t": 95000.04749999994,
      "d": 161.1111916666705,
      "v": 86
    },
    {
      "midi": 65,
      "hit": false,
      "t": 95000.04749999994,
      "d": 161.1111916666705,
      "v": 92
    },
    {
      "midi": 68,
      "hit": false,
      "t": 95000.04749999994,
      "d": 161.1111916666705,
      "v": 89
    },
    {
      "midi": 60,
      "hit": false,
      "t": 95333.38099999995,
      "d": 161.1111916666705,
      "v": 86
    },
    {
      "midi": 65,
      "hit": false,
      "t": 95333.38099999995,
      "d": 161.1111916666705,
      "v": 91
    },
    {
      "midi": 68,
      "hit": false,
      "t": 95333.38099999995,
      "d": 161.1111916666705,
      "v": 90
    },
    {
      "midi": 60,
      "hit": false,
      "t": 95666.71449999996,
      "d": 161.1111916666705,
      "v": 85
    },
    {
      "midi": 65,
      "hit": false,
      "t": 95666.71449999996,
      "d": 161.1111916666705,
      "v": 91
    },
    {
      "midi": 68,
      "hit": false,
      "t": 95666.71449999996,
      "d": 161.1111916666705,
      "v": 88
    },
    {
      "midi": 60,
      "hit": false,
      "t": 96000.04799999997,
      "d": 161.1111916666705,
      "v": 85
    },
    {
      "midi": 65,
      "hit": false,
      "t": 96000.04799999997,
      "d": 161.1111916666705,
      "v": 88
    },
    {
      "midi": 68,
      "hit": false,
      "t": 96000.04799999997,
      "d": 161.1111916666705,
      "v": 89
    },
    {
      "midi": 60,
      "hit": false,
      "t": 96333.38149999997,
      "d": 161.1111916666705,
      "v": 87
    },
    {
      "midi": 65,
      "hit": false,
      "t": 96333.38149999997,
      "d": 161.1111916666705,
      "v": 93
    },
    {
      "midi": 68,
      "hit": false,
      "t": 96333.38149999997,
      "d": 161.1111916666705,
      "v": 89
    },
    {
      "midi": 44,
      "hit": false,
      "t": 96333.38149999997,
      "d": 327.77794166667445,
      "v": 97
    },
    {
      "midi": 60,
      "hit": false,
      "t": 96666.71499999998,
      "d": 161.1111916666705,
      "v": 92
    },
    {
      "midi": 65,
      "hit": false,
      "t": 96666.71499999998,
      "d": 161.1111916666705,
      "v": 95
    },
    {
      "midi": 68,
      "hit": false,
      "t": 96666.71499999998,
      "d": 161.1111916666705,
      "v": 92
    },
    {
      "midi": 48,
      "hit": false,
      "t": 96666.71499999998,
      "d": 327.77794166667445,
      "v": 94
    },
    {
      "midi": 58,
      "hit": false,
      "t": 98333.38249999999,
      "d": 161.1111916666705,
      "v": 88
    },
    {
      "midi": 63,
      "hit": false,
      "t": 98333.38249999999,
      "d": 161.1111916666705,
      "v": 91
    },
    {
      "midi": 67,
      "hit": false,
      "t": 98333.38249999999,
      "d": 161.1111916666705,
      "v": 98
    },
    {
      "midi": 70,
      "hit": false,
      "t": 98333.38249999999,
      "d": 161.1111916666705,
      "v": 87
    },
    {
      "midi": 39,
      "hit": false,
      "t": 98333.38249999999,
      "d": 327.77794166667445,
      "v": 94
    },
    {
      "midi": 56,
      "hit": false,
      "t": 98666.716,
      "d": 161.1111916666705,
      "v": 90
    },
    {
      "midi": 61,
      "hit": false,
      "t": 98666.716,
      "d": 161.1111916666705,
      "v": 97
    },
    {
      "midi": 65,
      "hit": false,
      "t": 98666.716,
      "d": 161.1111916666705,
      "v": 99
    },
    {
      "midi": 37,
      "hit": false,
      "t": 98666.716,
      "d": 1327.7784416666982,
      "v": 98
    },
    {
      "midi": 56,
      "hit": false,
      "t": 99000.04950000001,
      "d": 161.1111916666705,
      "v": 86
    },
    {
      "midi": 61,
      "hit": false,
      "t": 99000.04950000001,
      "d": 161.1111916666705,
      "v": 95
    },
    {
      "midi": 65,
      "hit": false,
      "t": 99000.04950000001,
      "d": 161.1111916666705,
      "v": 98
    },
    {
      "midi": 56,
      "hit": false,
      "t": 99333.38300000002,
      "d": 161.1111916666705,
      "v": 88
    },
    {
      "midi": 61,
      "hit": false,
      "t": 99333.38300000002,
      "d": 161.1111916666705,
      "v": 94
    },
    {
      "midi": 65,
      "hit": false,
      "t": 99333.38300000002,
      "d": 161.1111916666705,
      "v": 94
    },
    {
      "midi": 56,
      "hit": false,
      "t": 99666.71650000002,
      "d": 161.1111916666705,
      "v": 89
    },
    {
      "midi": 61,
      "hit": false,
      "t": 99666.71650000002,
      "d": 161.1111916666705,
      "v": 93
    },
    {
      "midi": 65,
      "hit": false,
      "t": 99666.71650000002,
      "d": 161.1111916666705,
      "v": 99
    },
    {
      "midi": 56,
      "hit": false,
      "t": 100000.05000000003,
      "d": 161.1111916666705,
      "v": 91
    },
    {
      "midi": 61,
      "hit": false,
      "t": 100000.05000000003,
      "d": 161.1111916666705,
      "v": 88
    },
    {
      "midi": 65,
      "hit": false,
      "t": 100000.05000000003,
      "d": 161.1111916666705,
      "v": 99
    },
    {
      "midi": 56,
      "hit": false,
      "t": 100333.38350000004,
      "d": 161.1111916666705,
      "v": 85
    },
    {
      "midi": 61,
      "hit": false,
      "t": 100333.38350000004,
      "d": 161.1111916666705,
      "v": 94
    },
    {
      "midi": 65,
      "hit": false,
      "t": 100333.38350000004,
      "d": 161.1111916666705,
      "v": 96
    },
    {
      "midi": 41,
      "hit": false,
      "t": 100333.38350000004,
      "d": 327.77794166667445,
      "v": 96
    },
    {
      "midi": 56,
      "hit": false,
      "t": 100666.71700000005,
      "d": 161.1111916666705,
      "v": 90
    },
    {
      "midi": 61,
      "hit": false,
      "t": 100666.71700000005,
      "d": 161.1111916666705,
      "v": 90
    },
    {
      "midi": 65,
      "hit": false,
      "t": 100666.71700000005,
      "d": 161.1111916666705,
      "v": 94
    },
    {
      "midi": 44,
      "hit": false,
      "t": 100666.71700000005,
      "d": 994.4449416666903,
      "v": 86
    },
    {
      "midi": 56,
      "hit": false,
      "t": 101000.05050000006,
      "d": 161.1111916666705,
      "v": 87
    },
    {
      "midi": 61,
      "hit": false,
      "t": 101000.05050000006,
      "d": 161.1111916666705,
      "v": 92
    },
    {
      "midi": 65,
      "hit": false,
      "t": 101000.05050000006,
      "d": 161.1111916666705,
      "v": 94
    },
    {
      "midi": 56,
      "hit": false,
      "t": 101333.38400000006,
      "d": 161.1111916666705,
      "v": 88
    },
    {
      "midi": 61,
      "hit": false,
      "t": 101333.38400000006,
      "d": 161.1111916666705,
      "v": 94
    },
    {
      "midi": 65,
      "hit": false,
      "t": 101333.38400000006,
      "d": 161.1111916666705,
      "v": 97
    },
    {
      "midi": 56,
      "hit": false,
      "t": 101666.71750000007,
      "d": 161.1111916666705,
      "v": 88
    },
    {
      "midi": 61,
      "hit": false,
      "t": 101666.71750000007,
      "d": 161.1111916666705,
      "v": 90
    },
    {
      "midi": 65,
      "hit": false,
      "t": 101666.71750000007,
      "d": 161.1111916666705,
      "v": 95
    },
    {
      "midi": 41,
      "hit": false,
      "t": 101666.71750000007,
      "d": 661.1114416666824,
      "v": 95
    },
    {
      "midi": 56,
      "hit": false,
      "t": 102000.05100000008,
      "d": 161.1111916666705,
      "v": 86
    },
    {
      "midi": 61,
      "hit": false,
      "t": 102000.05100000008,
      "d": 161.1111916666705,
      "v": 94
    },
    {
      "midi": 65,
      "hit": false,
      "t": 102000.05100000008,
      "d": 161.1111916666705,
      "v": 94
    },
    {
      "midi": 56,
      "hit": false,
      "t": 102333.38450000009,
      "d": 161.1111916666705,
      "v": 89
    },
    {
      "midi": 61,
      "hit": false,
      "t": 102333.38450000009,
      "d": 161.1111916666705,
      "v": 86
    },
    {
      "midi": 65,
      "hit": false,
      "t": 102333.38450000009,
      "d": 161.1111916666705,
      "v": 101
    },
    {
      "midi": 44,
      "hit": false,
      "t": 102333.38450000009,
      "d": 327.77794166667445,
      "v": 90
    },
    {
      "midi": 56,
      "hit": false,
      "t": 102666.7180000001,
      "d": 161.1111916666705,
      "v": 91
    },
    {
      "midi": 61,
      "hit": false,
      "t": 102666.7180000001,
      "d": 161.1111916666705,
      "v": 87
    },
    {
      "midi": 65,
      "hit": false,
      "t": 102666.7180000001,
      "d": 161.1111916666705,
      "v": 97
    },
    {
      "midi": 37,
      "hit": false,
      "t": 102666.7180000001,
      "d": 1327.7784416666982,
      "v": 98
    },
    {
      "midi": 56,
      "hit": false,
      "t": 103000.0515000001,
      "d": 161.1111916666705,
      "v": 93
    },
    {
      "midi": 61,
      "hit": false,
      "t": 103000.0515000001,
      "d": 161.1111916666705,
      "v": 86
    },
    {
      "midi": 65,
      "hit": false,
      "t": 103000.0515000001,
      "d": 161.1111916666705,
      "v": 94
    },
    {
      "midi": 56,
      "hit": false,
      "t": 103333.38500000011,
      "d": 161.1111916666705,
      "v": 89
    },
    {
      "midi": 61,
      "hit": false,
      "t": 103333.38500000011,
      "d": 161.1111916666705,
      "v": 88
    },
    {
      "midi": 65,
      "hit": false,
      "t": 103333.38500000011,
      "d": 161.1111916666705,
      "v": 99
    },
    {
      "midi": 56,
      "hit": false,
      "t": 103666.71850000012,
      "d": 161.1111916666705,
      "v": 90
    },
    {
      "midi": 61,
      "hit": false,
      "t": 103666.71850000012,
      "d": 161.1111916666705,
      "v": 85
    },
    {
      "midi": 65,
      "hit": false,
      "t": 103666.71850000012,
      "d": 161.1111916666705,
      "v": 98
    },
    {
      "midi": 56,
      "hit": false,
      "t": 104000.05200000013,
      "d": 161.1111916666705,
      "v": 92
    },
    {
      "midi": 61,
      "hit": false,
      "t": 104000.05200000013,
      "d": 161.1111916666705,
      "v": 91
    },
    {
      "midi": 65,
      "hit": false,
      "t": 104000.05200000013,
      "d": 161.1111916666705,
      "v": 99
    },
    {
      "midi": 56,
      "hit": false,
      "t": 104333.38550000013,
      "d": 161.1111916666705,
      "v": 88
    },
    {
      "midi": 61,
      "hit": false,
      "t": 104333.38550000013,
      "d": 161.1111916666705,
      "v": 83
    },
    {
      "midi": 65,
      "hit": false,
      "t": 104333.38550000013,
      "d": 161.1111916666705,
      "v": 95
    },
    {
      "midi": 41,
      "hit": false,
      "t": 104333.38550000013,
      "d": 327.77794166667445,
      "v": 98
    },
    {
      "midi": 56,
      "hit": false,
      "t": 104666.71900000014,
      "d": 161.1111916666705,
      "v": 91
    },
    {
      "midi": 61,
      "hit": false,
      "t": 104666.71900000014,
      "d": 161.1111916666705,
      "v": 86
    },
    {
      "midi": 65,
      "hit": false,
      "t": 104666.71900000014,
      "d": 161.1111916666705,
      "v": 98
    },
    {
      "midi": 44,
      "hit": false,
      "t": 104666.71900000014,
      "d": 994.4449416666903,
      "v": 91
    },
    {
      "midi": 56,
      "hit": false,
      "t": 105000.05250000015,
      "d": 161.1111916666705,
      "v": 90
    },
    {
      "midi": 61,
      "hit": false,
      "t": 105000.05250000015,
      "d": 161.1111916666705,
      "v": 87
    },
    {
      "midi": 65,
      "hit": false,
      "t": 105000.05250000015,
      "d": 161.1111916666705,
      "v": 98
    },
    {
      "midi": 56,
      "hit": false,
      "t": 105333.38600000016,
      "d": 161.1111916666705,
      "v": 93
    },
    {
      "midi": 61,
      "hit": false,
      "t": 105333.38600000016,
      "d": 161.1111916666705,
      "v": 89
    },
    {
      "midi": 65,
      "hit": false,
      "t": 105333.38600000016,
      "d": 161.1111916666705,
      "v": 99
    },
    {
      "midi": 56,
      "hit": false,
      "t": 105666.71950000017,
      "d": 161.1111916666705,
      "v": 88
    },
    {
      "midi": 61,
      "hit": false,
      "t": 105666.71950000017,
      "d": 161.1111916666705,
      "v": 98
    },
    {
      "midi": 65,
      "hit": false,
      "t": 105666.71950000017,
      "d": 161.1111916666705,
      "v": 99
    },
    {
      "midi": 37,
      "hit": false,
      "t": 105666.71950000017,
      "d": 661.1114416666824,
      "v": 99
    },
    {
      "midi": 56,
      "hit": false,
      "t": 106000.05300000017,
      "d": 161.1111916666705,
      "v": 89
    },
    {
      "midi": 61,
      "hit": false,
      "t": 106000.05300000017,
      "d": 161.1111916666705,
      "v": 96
    },
    {
      "midi": 65,
      "hit": false,
      "t": 106000.05300000017,
      "d": 161.1111916666705,
      "v": 97
    },
    {
      "midi": 56,
      "hit": false,
      "t": 106333.38650000018,
      "d": 161.1111916666705,
      "v": 93
    },
    {
      "midi": 61,
      "hit": false,
      "t": 106333.38650000018,
      "d": 161.1111916666705,
      "v": 92
    },
    {
      "midi": 65,
      "hit": false,
      "t": 106333.38650000018,
      "d": 161.1111916666705,
      "v": 97
    },
    {
      "midi": 38,
      "hit": false,
      "t": 106333.38650000018,
      "d": 327.77794166667445,
      "v": 97
    },
    {
      "midi": 55,
      "hit": false,
      "t": 106666.72000000019,
      "d": 161.1111916666705,
      "v": 85
    },
    {
      "midi": 58,
      "hit": false,
      "t": 106666.72000000019,
      "d": 161.1111916666705,
      "v": 93
    },
    {
      "midi": 63,
      "hit": false,
      "t": 106666.72000000019,
      "d": 161.1111916666705,
      "v": 87
    },
    {
      "midi": 39,
      "hit": false,
      "t": 106666.72000000019,
      "d": 327.77794166667445,
      "v": 93
    },
    {
      "midi": 55,
      "hit": false,
      "t": 107000.0535000002,
      "d": 161.1111916666705,
      "v": 84
    },
    {
      "midi": 58,
      "hit": false,
      "t": 107000.0535000002,
      "d": 161.1111916666705,
      "v": 93
    },
    {
      "midi": 63,
      "hit": false,
      "t": 107000.0535000002,
      "d": 161.1111916666705,
      "v": 81
    },
    {
      "midi": 39,
      "hit": false,
      "t": 107000.0535000002,
      "d": 327.77794166667445,
      "v": 98
    },
    {
      "midi": 55,
      "hit": false,
      "t": 107333.3870000002,
      "d": 161.1111916666705,
      "v": 92
    },
    {
      "midi": 58,
      "hit": false,
      "t": 107333.3870000002,
      "d": 161.1111916666705,
      "v": 97
    },
    {
      "midi": 63,
      "hit": false,
      "t": 107333.3870000002,
      "d": 161.1111916666705,
      "v": 87
    },
    {
      "midi": 39,
      "hit": false,
      "t": 107333.3870000002,
      "d": 327.77794166667445,
      "v": 98
    },
    {
      "midi": 58,
      "hit": false,
      "t": 107666.72050000021,
      "d": 161.1111916666705,
      "v": 90
    },
    {
      "midi": 63,
      "hit": false,
      "t": 107666.72050000021,
      "d": 161.1111916666705,
      "v": 95
    },
    {
      "midi": 67,
      "hit": false,
      "t": 107666.72050000021,
      "d": 161.1111916666705,
      "v": 93
    },
    {
      "midi": 39,
      "hit": false,
      "t": 107666.72050000021,
      "d": 327.77794166667445,
      "v": 99
    },
    {
      "midi": 58,
      "hit": false,
      "t": 108000.05400000022,
      "d": 161.1111916666705,
      "v": 86
    },
    {
      "midi": 63,
      "hit": false,
      "t": 108000.05400000022,
      "d": 161.1111916666705,
      "v": 93
    },
    {
      "midi": 67,
      "hit": false,
      "t": 108000.05400000022,
      "d": 161.1111916666705,
      "v": 93
    },
    {
      "midi": 39,
      "hit": false,
      "t": 108000.05400000022,
      "d": 327.77794166667445,
      "v": 99
    },
    {
      "midi": 58,
      "hit": false,
      "t": 108333.38750000023,
      "d": 161.1111916666705,
      "v": 85
    },
    {
      "midi": 63,
      "hit": false,
      "t": 108333.38750000023,
      "d": 161.1111916666705,
      "v": 96
    },
    {
      "midi": 67,
      "hit": false,
      "t": 108333.38750000023,
      "d": 161.1111916666705,
      "v": 93
    },
    {
      "midi": 39,
      "hit": false,
      "t": 108333.38750000023,
      "d": 327.77794166667445,
      "v": 95
    },
    {
      "midi": 63,
      "hit": false,
      "t": 108666.72100000024,
      "d": 161.1111916666705,
      "v": 87
    },
    {
      "midi": 67,
      "hit": false,
      "t": 108666.72100000024,
      "d": 161.1111916666705,
      "v": 91
    },
    {
      "midi": 70,
      "hit": false,
      "t": 108666.72100000024,
      "d": 161.1111916666705,
      "v": 98
    },
    {
      "midi": 39,
      "hit": false,
      "t": 108666.72100000024,
      "d": 327.77794166667445,
      "v": 99
    },
    {
      "midi": 63,
      "hit": false,
      "t": 109000.05450000025,
      "d": 161.1111916666705,
      "v": 87
    },
    {
      "midi": 67,
      "hit": false,
      "t": 109000.05450000025,
      "d": 161.1111916666705,
      "v": 98
    },
    {
      "midi": 70,
      "hit": false,
      "t": 109000.05450000025,
      "d": 161.1111916666705,
      "v": 98
    },
    {
      "midi": 39,
      "hit": false,
      "t": 109000.05450000025,
      "d": 327.77794166667445,
      "v": 92
    },
    {
      "midi": 63,
      "hit": false,
      "t": 109333.38800000025,
      "d": 161.1111916666705,
      "v": 87
    },
    {
      "midi": 67,
      "hit": false,
      "t": 109333.38800000025,
      "d": 161.1111916666705,
      "v": 98
    },
    {
      "midi": 70,
      "hit": false,
      "t": 109333.38800000025,
      "d": 161.1111916666705,
      "v": 99
    },
    {
      "midi": 39,
      "hit": false,
      "t": 109333.38800000025,
      "d": 327.77794166667445,
      "v": 99
    },
    {
      "midi": 39,
      "hit": false,
      "t": 109666.72150000026,
      "d": 327.7779416666599,
      "v": 94
    },
    {
      "midi": 63,
      "hit": false,
      "t": 109666.72150000026,
      "d": 327.7779416666599,
      "v": 82
    },
    {
      "midi": 67,
      "hit": false,
      "t": 109666.72150000026,
      "d": 327.7779416666599,
      "v": 98
    },
    {
      "midi": 73,
      "hit": false,
      "t": 109666.72150000026,
      "d": 327.7779416666599,
      "v": 94
    },
    {
      "midi": 41,
      "hit": false,
      "t": 110000.05500000025,
      "d": 327.7779416666599,
      "v": 98
    },
    {
      "midi": 63,
      "hit": false,
      "t": 110000.05500000025,
      "d": 327.7779416666599,
      "v": 85
    },
    {
      "midi": 68,
      "hit": false,
      "t": 110000.05500000025,
      "d": 327.7779416666599,
      "v": 100
    },
    {
      "midi": 73,
      "hit": false,
      "t": 110000.05500000025,
      "d": 327.7779416666599,
      "v": 98
    },
    {
      "midi": 43,
      "hit": false,
      "t": 110333.38850000025,
      "d": 327.7779416666599,
      "v": 95
    },
    {
      "midi": 63,
      "hit": false,
      "t": 110333.38850000025,
      "d": 327.7779416666599,
      "v": 85
    },
    {
      "midi": 70,
      "hit": false,
      "t": 110333.38850000025,
      "d": 327.7779416666599,
      "v": 98
    },
    {
      "midi": 73,
      "hit": false,
      "t": 110333.38850000025,
      "d": 327.7779416666599,
      "v": 92
    },
    {
      "midi": 44,
      "hit": false,
      "t": 110666.72200000024,
      "d": 3994.4464416666597,
      "v": 98
    },
    {
      "midi": 63,
      "hit": false,
      "t": 110666.72200000024,
      "d": 3994.4464416666597,
      "v": 79
    },
    {
      "midi": 68,
      "hit": false,
      "t": 110666.72200000024,
      "d": 3994.4464416666597,
      "v": 99
    },
    {
      "midi": 72,
      "hit": false,
      "t": 110666.72200000024,
      "d": 3994.4464416666597,
      "v": 100
    },
    {
      "midi": 75,
      "hit": false,
      "t": 110666.72200000024,
      "d": 3994.4464416666597,
      "v": 89
    }
  ]
}