{
  "jsonPath": "Pop/Europop/Eiffel 65/blue-da-ba-dee-dj-ponte-original-radio-edit.json",
  "path": "Pop\\Europop\\Eiffel 65\\Blue (Da Ba Dee) (DJ Ponte Original Radio Edit).mid",
  "name": "Blue (Da Ba Dee) (DJ Ponte Original Radio Edit)",
  "difficulty": "Advanced",
  "bpm": 129.00035475097556,
  "notes": [
    {
      "midi": 70,
      "hit": false,
      "t": 14883.68,
      "d": 240.30941666666695,
      "v": 115
    },
    {
      "midi": 43,
      "hit": false,
      "t": 14883.68,
      "d": 906.0052604166667,
      "v": 96
    },
    {
      "midi": 55,
      "hit": false,
      "t": 14883.68,
      "d": 940.8888854166671,
      "v": 116
    },
    {
      "midi": 62,
      "hit": false,
      "t": 14883.68,
      "d": 927.32303125,
      "v": 1
    },
    {
      "midi": 67,
      "hit": false,
      "t": 14883.68,
      "d": 927.32303125,
      "v": 1
    },
    {
      "midi": 70,
      "hit": false,
      "t": 14883.68,
      "d": 927.32303125,
      "v": 1
    },
    {
      "midi": 62,
      "hit": false,
      "t": 15116.237500000001,
      "d": 264.5341562499998,
      "v": 103
    },
    {
      "midi": 67,
      "hit": false,
      "t": 15348.795,
      "d": 224.80558333333465,
      "v": 105
    },
    {
      "midi": 70,
      "hit": false,
      "t": 15581.3525,
      "d": 249.9993125000001,
      "v": 101
    },
    {
      "midi": 72,
      "hit": false,
      "t": 15813.91,
      "d": 208.33276041666795,
      "v": 114
    },
    {
      "midi": 41,
      "hit": false,
      "t": 15813.91,
      "d": 702.5174479166672,
      "v": 90
    },
    {
      "midi": 53,
      "hit": false,
      "t": 15813.91,
      "d": 702.5174479166672,
      "v": 107
    },
    {
      "midi": 65,
      "hit": false,
      "t": 15813.91,
      "d": 927.3230312499982,
      "v": 1
    },
    {
      "midi": 69,
      "hit": false,
      "t": 15813.91,
      "d": 927.3230312499982,
      "v": 1
    },
    {
      "midi": 72,
      "hit": false,
      "t": 15813.91,
      "d": 927.3230312499982,
      "v": 1
    },
    {
      "midi": 65,
      "hit": false,
      "t": 16046.4675,
      "d": 256.78223958333365,
      "v": 102
    },
    {
      "midi": 69,
      "hit": false,
      "t": 16279.025000000001,
      "d": 210.2707395833313,
      "v": 103
    },
    {
      "midi": 70,
      "hit": false,
      "t": 16511.5825,
      "d": 436.04531249999854,
      "v": 113
    },
    {
      "midi": 39,
      "hit": false,
      "t": 16511.5825,
      "d": 1145.3456874999974,
      "v": 94
    },
    {
      "midi": 51,
      "hit": false,
      "t": 16511.5825,
      "d": 1145.3456874999974,
      "v": 113
    },
    {
      "midi": 67,
      "hit": false,
      "t": 16744.14,
      "d": 927.3230312500018,
      "v": 1
    },
    {
      "midi": 70,
      "hit": false,
      "t": 16744.14,
      "d": 927.3230312500018,
      "v": 1
    },
    {
      "midi": 74,
      "hit": false,
      "t": 16744.14,
      "d": 927.3230312500018,
      "v": 1
    },
    {
      "midi": 67,
      "hit": false,
      "t": 16976.6975,
      "d": 248.06133333333128,
      "v": 99
    },
    {
      "midi": 70,
      "hit": false,
      "t": 17209.254999999997,
      "d": 215.11568749999788,
      "v": 107
    },
    {
      "midi": 74,
      "hit": false,
      "t": 17441.812499999996,
      "d": 222.86760416666948,
      "v": 103
    },
    {
      "midi": 75,
      "hit": false,
      "t": 17674.37,
      "d": 213.1777083333327,
      "v": 114
    },
    {
      "midi": 48,
      "hit": false,
      "t": 17674.37,
      "d": 1140.5007395833309,
      "v": 101
    },
    {
      "midi": 36,
      "hit": false,
      "t": 17674.37,
      "d": 1149.2216458333314,
      "v": 90
    },
    {
      "midi": 67,
      "hit": false,
      "t": 17674.370000000003,
      "d": 927.3230312500018,
      "v": 1
    },
    {
      "midi": 72,
      "hit": false,
      "t": 17674.370000000003,
      "d": 927.3230312500018,
      "v": 1
    },
    {
      "midi": 75,
      "hit": false,
      "t": 17674.370000000003,
      "d": 927.3230312500018,
      "v": 1
    },
    {
      "midi": 67,
      "hit": false,
      "t": 17906.927499999998,
      "d": 227.7125520833324,
      "v": 101
    },
    {
      "midi": 74,
      "hit": false,
      "t": 18139.484999999997,
      "d": 203.48781249999956,
      "v": 105
    },
    {
      "midi": 72,
      "hit": false,
      "t": 18372.042499999996,
      "d": 209.30174999999872,
      "v": 103
    },
    {
      "midi": 70,
      "hit": false,
      "t": 18604.599999999995,
      "d": 240.3094166666706,
      "v": 115
    },
    {
      "midi": 43,
      "hit": false,
      "t": 18604.599999999995,
      "d": 906.005260416674,
      "v": 96
    },
    {
      "midi": 55,
      "hit": false,
      "t": 18604.599999999995,
      "d": 940.8888854166726,
      "v": 116
    },
    {
      "midi": 62,
      "hit": false,
      "t": 18604.600000000006,
      "d": 927.3230312500018,
      "v": 1
    },
    {
      "midi": 67,
      "hit": false,
      "t": 18604.600000000006,
      "d": 927.3230312500018,
      "v": 1
    },
    {
      "midi": 70,
      "hit": false,
      "t": 18604.600000000006,
      "d": 927.3230312500018,
      "v": 1
    },
    {
      "midi": 62,
      "hit": false,
      "t": 18837.157499999998,
      "d": 264.53415625000343,
      "v": 103
    },
    {
      "midi": 67,
      "hit": false,
      "t": 19069.715,
      "d": 224.80558333333465,
      "v": 105
    },
    {
      "midi": 70,
      "hit": false,
      "t": 19302.272500000003,
      "d": 249.99931249999645,
      "v": 101
    },
    {
      "midi": 72,
      "hit": false,
      "t": 19534.83,
      "d": 208.3327604166625,
      "v": 114
    },
    {
      "midi": 41,
      "hit": false,
      "t": 19534.83,
      "d": 702.5174479166599,
      "v": 90
    },
    {
      "midi": 53,
      "hit": false,
      "t": 19534.83,
      "d": 702.5174479166599,
      "v": 107
    },
    {
      "midi": 65,
      "hit": false,
      "t": 19534.83000000001,
      "d": 927.3230312500018,
      "v": 1
    },
    {
      "midi": 69,
      "hit": false,
      "t": 19534.83000000001,
      "d": 927.3230312500018,
      "v": 1
    },
    {
      "midi": 72,
      "hit": false,
      "t": 19534.83000000001,
      "d": 927.3230312500018,
      "v": 1
    },
    {
      "midi": 65,
      "hit": false,
      "t": 19767.387499999997,
      "d": 256.78223958333183,
      "v": 102
    },
    {
      "midi": 69,
      "hit": false,
      "t": 19999.944999999996,
      "d": 210.2707395833313,
      "v": 103
    },
    {
      "midi": 70,
      "hit": false,
      "t": 20232.502499999995,
      "d": 436.04531249999854,
      "v": 113
    },
    {
      "midi": 39,
      "hit": false,
      "t": 20232.502499999995,
      "d": 1145.3456874999974,
      "v": 94
    },
    {
      "midi": 51,
      "hit": false,
      "t": 20232.502499999995,
      "d": 1145.3456874999974,
      "v": 113
    },
    {
      "midi": 67,
      "hit": false,
      "t": 20465.060000000012,
      "d": 1857.5530312500014,
      "v": 1
    },
    {
      "midi": 70,
      "hit": false,
      "t": 20465.060000000012,
      "d": 1860.4600000000028,
      "v": 1
    },
    {
      "midi": 63,
      "hit": false,
      "t": 20465.060000000012,
      "d": 1863.3669687500042,
      "v": 1
    },
    {
      "midi": 67,
      "hit": false,
      "t": 20697.617499999993,
      "d": 248.06133333333128,
      "v": 99
    },
    {
      "midi": 70,
      "hit": false,
      "t": 20930.174999999992,
      "d": 215.11568749999788,
      "v": 107
    },
    {
      "midi": 74,
      "hit": false,
      "t": 21162.73249999999,
      "d": 222.86760416666948,
      "v": 103
    },
    {
      "midi": 75,
      "hit": false,
      "t": 21395.289999999994,
      "d": 213.1777083333327,
      "v": 114
    },
    {
      "midi": 48,
      "hit": false,
      "t": 21395.289999999994,
      "d": 1140.5007395833309,
      "v": 101
    },
    {
      "midi": 36,
      "hit": false,
      "t": 21395.289999999994,
      "d": 1149.2216458333314,
      "v": 90
    },
    {
      "midi": 67,
      "hit": false,
      "t": 21627.847499999993,
      "d": 227.7125520833324,
      "v": 101
    },
    {
      "midi": 74,
      "hit": false,
      "t": 21860.40499999999,
      "d": 203.48781249999956,
      "v": 105
    },
    {
      "midi": 72,
      "hit": false,
      "t": 22092.96249999999,
      "d": 209.30174999999872,
      "v": 103
    },
    {
      "midi": 70,
      "hit": false,
      "t": 22325.51999999999,
      "d": 240.3094166666706,
      "v": 115
    },
    {
      "midi": 43,
      "hit": false,
      "t": 22325.51999999999,
      "d": 906.005260416674,
      "v": 96
    },
    {
      "midi": 55,
      "hit": false,
      "t": 22325.51999999999,
      "d": 940.8888854166726,
      "v": 116
    },
    {
      "midi": 70,
      "hit": false,
      "t": 22325.520000000015,
      "d": 17.441812500001106,
      "v": 1
    },
    {
      "midi": 62,
      "hit": false,
      "t": 22325.520000000015,
      "d": 927.3230312500018,
      "v": 1
    },
    {
      "midi": 67,
      "hit": false,
      "t": 22325.520000000015,
      "d": 927.3230312500018,
      "v": 1
    },
    {
      "midi": 62,
      "hit": false,
      "t": 22558.077499999992,
      "d": 264.53415625000343,
      "v": 103
    },
    {
      "midi": 67,
      "hit": false,
      "t": 22790.634999999995,
      "d": 224.80558333333465,
      "v": 105
    },
    {
      "midi": 70,
      "hit": false,
      "t": 23023.192499999997,
      "d": 249.99931249999645,
      "v": 101
    },
    {
      "midi": 72,
      "hit": false,
      "t": 23255.749999999996,
      "d": 208.3327604166625,
      "v": 114
    },
    {
      "midi": 41,
      "hit": false,
      "t": 23255.749999999996,
      "d": 702.5174479166599,
      "v": 90
    },
    {
      "midi": 53,
      "hit": false,
      "t": 23255.749999999996,
      "d": 702.5174479166599,
      "v": 107
    },
    {
      "midi": 65,
      "hit": false,
      "t": 23255.75000000002,
      "d": 927.3230312499982,
      "v": 1
    },
    {
      "midi": 69,
      "hit": false,
      "t": 23255.75000000002,
      "d": 927.3230312499982,
      "v": 1
    },
    {
      "midi": 72,
      "hit": false,
      "t": 23255.75000000002,
      "d": 927.3230312499982,
      "v": 1
    },
    {
      "midi": 65,
      "hit": false,
      "t": 23488.30749999999,
      "d": 256.78223958333183,
      "v": 102
    },
    {
      "midi": 69,
      "hit": false,
      "t": 23720.86499999999,
      "d": 210.2707395833313,
      "v": 103
    },
    {
      "midi": 70,
      "hit": false,
      "t": 23953.42249999999,
      "d": 436.04531249999854,
      "v": 113
    },
    {
      "midi": 39,
      "hit": false,
      "t": 23953.42249999999,
      "d": 1145.3456874999974,
      "v": 94
    },
    {
      "midi": 51,
      "hit": false,
      "t": 23953.42249999999,
      "d": 1145.3456874999974,
      "v": 113
    },
    {
      "midi": 67,
      "hit": false,
      "t": 24185.980000000018,
      "d": 927.3230312500018,
      "v": 1
    },
    {
      "midi": 70,
      "hit": false,
      "t": 24185.980000000018,
      "d": 927.3230312500018,
      "v": 1
    },
    {
      "midi": 74,
      "hit": false,
      "t": 24185.980000000018,
      "d": 927.3230312500018,
      "v": 1
    },
    {
      "midi": 67,
      "hit": false,
      "t": 24418.537499999988,
      "d": 248.06133333333128,
      "v": 99
    },
    {
      "midi": 70,
      "hit": false,
      "t": 24651.094999999987,
      "d": 215.11568749999788,
      "v": 107
    },
    {
      "midi": 74,
      "hit": false,
      "t": 24883.652499999986,
      "d": 222.86760416666948,
      "v": 103
    },
    {
      "midi": 75,
      "hit": false,
      "t": 25116.20999999999,
      "d": 213.1777083333327,
      "v": 114
    },
    {
      "midi": 48,
      "hit": false,
      "t": 25116.20999999999,
      "d": 1140.5007395833309,
      "v": 101
    },
    {
      "midi": 36,
      "hit": false,
      "t": 25116.20999999999,
      "d": 1149.2216458333314,
      "v": 90
    },
    {
      "midi": 67,
      "hit": false,
      "t": 25116.21000000002,
      "d": 927.3230312500018,
      "v": 1
    },
    {
      "midi": 72,
      "hit": false,
      "t": 25116.21000000002,
      "d": 927.3230312500018,
      "v": 1
    },
    {
      "midi": 75,
      "hit": false,
      "t": 25116.21000000002,
      "d": 927.3230312500018,
      "v": 1
    },
    {
      "midi": 67,
      "hit": false,
      "t": 25348.767499999987,
      "d": 227.7125520833324,
      "v": 101
    },
    {
      "midi": 74,
      "hit": false,
      "t": 25581.324999999986,
      "d": 203.48781249999956,
      "v": 105
    },
    {
      "midi": 72,
      "hit": false,
      "t": 25813.882499999985,
      "d": 209.30174999999872,
      "v": 103
    },
    {
      "midi": 70,
      "hit": false,
      "t": 26046.439999999984,
      "d": 240.3094166666706,
      "v": 115
    },
    {
      "midi": 43,
      "hit": false,
      "t": 26046.439999999984,
      "d": 906.005260416674,
      "v": 96
    },
    {
      "midi": 55,
      "hit": false,
      "t": 26046.439999999984,
      "d": 940.8888854166726,
      "v": 116
    },
    {
      "midi": 62,
      "hit": false,
      "t": 26046.440000000024,
      "d": 927.3230312500018,
      "v": 1
    },
    {
      "midi": 67,
      "hit": false,
      "t": 26046.440000000024,
      "d": 927.3230312500018,
      "v": 1
    },
    {
      "midi": 70,
      "hit": false,
      "t": 26046.440000000024,
      "d": 927.3230312500018,
      "v": 1
    },
    {
      "midi": 62,
      "hit": false,
      "t": 26278.997499999987,
      "d": 264.53415625000343,
      "v": 103
    },
    {
      "midi": 67,
      "hit": false,
      "t": 26511.55499999999,
      "d": 224.80558333333465,
      "v": 105
    },
    {
      "midi": 70,
      "hit": false,
      "t": 26744.112499999992,
      "d": 249.99931249999645,
      "v": 101
    },
    {
      "midi": 69,
      "hit": false,
      "t": 26976.66999999999,
      "d": 208.3327604166625,
      "v": 114
    },
    {
      "midi": 41,
      "hit": false,
      "t": 26976.66999999999,
      "d": 702.5174479166599,
      "v": 90
    },
    {
      "midi": 53,
      "hit": false,
      "t": 26976.66999999999,
      "d": 702.5174479166599,
      "v": 107
    },
    {
      "midi": 60,
      "hit": false,
      "t": 26976.670000000027,
      "d": 927.3230312500018,
      "v": 1
    },
    {
      "midi": 65,
      "hit": false,
      "t": 26976.670000000027,
      "d": 927.3230312500018,
      "v": 1
    },
    {
      "midi": 69,
      "hit": false,
      "t": 26976.670000000027,
      "d": 927.3230312500018,
      "v": 1
    },
    {
      "midi": 60,
      "hit": false,
      "t": 27209.227499999986,
      "d": 256.78223958333183,
      "v": 102
    },
    {
      "midi": 65,
      "hit": false,
      "t": 27441.784999999985,
      "d": 210.2707395833313,
      "v": 103
    },
    {
      "midi": 39,
      "hit": false,
      "t": 27674.342499999984,
      "d": 2090.1105312500003,
      "v": 94
    },
    {
      "midi": 51,
      "hit": false,
      "t": 27674.342499999984,
      "d": 2090.1105312500003,
      "v": 113
    },
    {
      "midi": 67,
      "hit": false,
      "t": 27674.342499999984,
      "d": 2090.1105312500003,
      "v": 113
    },
    {
      "midi": 63,
      "hit": false,
      "t": 27906.90000000003,
      "d": 1857.5530312500014,
      "v": 1
    },
    {
      "midi": 67,
      "hit": false,
      "t": 27906.90000000003,
      "d": 1857.5530312500014,
      "v": 1
    },
    {
      "midi": 70,
      "hit": false,
      "t": 27906.90000000003,
      "d": 1857.5530312500014,
      "v": 1
    },
    {
      "midi": 70,
      "hit": false,
      "t": 29767.359999999986,
      "d": 240.30941666666695,
      "v": 115
    },
    {
      "midi": 43,
      "hit": false,
      "t": 29767.359999999986,
      "d": 906.0052604166704,
      "v": 96
    },
    {
      "midi": 55,
      "hit": false,
      "t": 29767.359999999986,
      "d": 940.8888854166689,
      "v": 116
    },
    {
      "midi": 62,
      "hit": false,
      "t": 29767.360000000033,
      "d": 927.3230312499982,
      "v": 1
    },
    {
      "midi": 67,
      "hit": false,
      "t": 29767.360000000033,
      "d": 927.3230312499982,
      "v": 1
    },
    {
      "midi": 70,
      "hit": false,
      "t": 29767.360000000033,
      "d": 927.3230312499982,
      "v": 1
    },
    {
      "midi": 62,
      "hit": false,
      "t": 29999.917499999985,
      "d": 264.53415625000343,
      "v": 103
    },
    {
      "midi": 67,
      "hit": false,
      "t": 30232.474999999988,
      "d": 224.80558333333465,
      "v": 105
    },
    {
      "midi": 70,
      "hit": false,
      "t": 30465.03249999999,
      "d": 249.99931249999645,
      "v": 101
    },
    {
      "midi": 72,
      "hit": false,
      "t": 30697.58999999999,
      "d": 208.3327604166625,
      "v": 114
    },
    {
      "midi": 41,
      "hit": false,
      "t": 30697.58999999999,
      "d": 702.5174479166599,
      "v": 90
    },
    {
      "midi": 53,
      "hit": false,
      "t": 30697.58999999999,
      "d": 702.5174479166599,
      "v": 107
    },
    {
      "midi": 65,
      "hit": false,
      "t": 30697.590000000033,
      "d": 927.3230312500018,
      "v": 1
    },
    {
      "midi": 69,
      "hit": false,
      "t": 30697.590000000033,
      "d": 927.3230312500018,
      "v": 1
    },
    {
      "midi": 72,
      "hit": false,
      "t": 30697.590000000033,
      "d": 927.3230312500018,
      "v": 1
    },
    {
      "midi": 65,
      "hit": false,
      "t": 30930.147499999985,
      "d": 256.78223958333183,
      "v": 102
    },
    {
      "midi": 69,
      "hit": false,
      "t": 31162.704999999984,
      "d": 210.2707395833313,
      "v": 103
    },
    {
      "midi": 70,
      "hit": false,
      "t": 31395.262499999983,
      "d": 436.04531249999854,
      "v": 113
    },
    {
      "midi": 39,
      "hit": false,
      "t": 31395.262499999983,
      "d": 1145.3456874999974,
      "v": 94
    },
    {
      "midi": 51,
      "hit": false,
      "t": 31395.262499999983,
      "d": 1145.3456874999974,
      "v": 113
    },
    {
      "midi": 67,
      "hit": false,
      "t": 31627.820000000036,
      "d": 927.3230312500018,
      "v": 1
    },
    {
      "midi": 70,
      "hit": false,
      "t": 31627.820000000036,
      "d": 927.3230312500018,
      "v": 1
    },
    {
      "midi": 74,
      "hit": false,
      "t": 31627.820000000036,
      "d": 927.3230312500018,
      "v": 1
    },
    {
      "midi": 67,
      "hit": false,
      "t": 31860.37749999998,
      "d": 248.06133333333128,
      "v": 99
    },
    {
      "midi": 70,
      "hit": false,
      "t": 32092.93499999998,
      "d": 215.11568749999788,
      "v": 107
    },
    {
      "midi": 74,
      "hit": false,
      "t": 32325.49249999998,
      "d": 222.86760416666948,
      "v": 103
    },
    {
      "midi": 75,
      "hit": false,
      "t": 32558.04999999998,
      "d": 213.17770833333634,
      "v": 114
    },
    {
      "midi": 48,
      "hit": false,
      "t": 32558.04999999998,
      "d": 1140.5007395833381,
      "v": 101
    },
    {
      "midi": 36,
      "hit": false,
      "t": 32558.04999999998,
      "d": 1149.221645833335,
      "v": 90
    },
    {
      "midi": 67,
      "hit": false,
      "t": 32558.05000000004,
      "d": 927.3230312500018,
      "v": 1
    },
    {
      "midi": 72,
      "hit": false,
      "t": 32558.05000000004,
      "d": 927.3230312500018,
      "v": 1
    },
    {
      "midi": 75,
      "hit": false,
      "t": 32558.05000000004,
      "d": 927.3230312500018,
      "v": 1
    },
    {
      "midi": 67,
      "hit": false,
      "t": 32790.607499999984,
      "d": 227.71255208333605,
      "v": 101
    },
    {
      "midi": 74,
      "hit": false,
      "t": 33023.164999999986,
      "d": 203.4878125000032,
      "v": 105
    },
    {
      "midi": 72,
      "hit": false,
      "t": 33255.72249999999,
      "d": 209.30174999999872,
      "v": 103
    },
    {
      "midi": 70,
      "hit": false,
      "t": 33488.279999999984,
      "d": 240.3094166666633,
      "v": 115
    },
    {
      "midi": 43,
      "hit": false,
      "t": 33488.279999999984,
      "d": 906.0052604166704,
      "v": 96
    },
    {
      "midi": 55,
      "hit": false,
      "t": 33488.279999999984,
      "d": 940.8888854166726,
      "v": 116
    },
    {
      "midi": 62,
      "hit": false,
      "t": 33488.28000000004,
      "d": 927.3230312500018,
      "v": 1
    },
    {
      "midi": 67,
      "hit": false,
      "t": 33488.28000000004,
      "d": 927.3230312500018,
      "v": 1
    },
    {
      "midi": 70,
      "hit": false,
      "t": 33488.28000000004,
      "d": 927.3230312500018,
      "v": 1
    },
    {
      "midi": 62,
      "hit": false,
      "t": 33720.83749999998,
      "d": 264.53415625000343,
      "v": 103
    },
    {
      "midi": 67,
      "hit": false,
      "t": 33953.39499999998,
      "d": 224.80558333333465,
      "v": 105
    },
    {
      "midi": 70,
      "hit": false,
      "t": 34185.952499999985,
      "d": 249.99931250000373,
      "v": 101
    },
    {
      "midi": 72,
      "hit": false,
      "t": 34418.50999999999,
      "d": 208.33276041666977,
      "v": 114
    },
    {
      "midi": 41,
      "hit": false,
      "t": 34418.50999999999,
      "d": 702.5174479166744,
      "v": 90
    },
    {
      "midi": 53,
      "hit": false,
      "t": 34418.50999999999,
      "d": 702.5174479166744,
      "v": 107
    },
    {
      "midi": 65,
      "hit": false,
      "t": 34418.510000000046,
      "d": 927.3230312500018,
      "v": 1
    },
    {
      "midi": 69,
      "hit": false,
      "t": 34418.510000000046,
      "d": 927.3230312500018,
      "v": 1
    },
    {
      "midi": 72,
      "hit": false,
      "t": 34418.510000000046,
      "d": 927.3230312500018,
      "v": 1
    },
    {
      "midi": 65,
      "hit": false,
      "t": 34651.06749999999,
      "d": 256.78223958333547,
      "v": 102
    },
    {
      "midi": 69,
      "hit": false,
      "t": 34883.62499999999,
      "d": 210.27073958333494,
      "v": 103
    },
    {
      "midi": 70,
      "hit": false,
      "t": 35116.182499999995,
      "d": 436.04531249999854,
      "v": 113
    },
    {
      "midi": 39,
      "hit": false,
      "t": 35116.182499999995,
      "d": 1145.3456875000047,
      "v": 94
    },
    {
      "midi": 51,
      "hit": false,
      "t": 35116.182499999995,
      "d": 1145.3456875000047,
      "v": 113
    },
    {
      "midi": 67,
      "hit": false,
      "t": 35348.74000000005,
      "d": 1857.5530312499977,
      "v": 1
    },
    {
      "midi": 70,
      "hit": false,
      "t": 35348.74000000005,
      "d": 1860.4599999999991,
      "v": 1
    },
    {
      "midi": 63,
      "hit": false,
      "t": 35348.74000000005,
      "d": 1863.3669687500005,
      "v": 1
    },
    {
      "midi": 67,
      "hit": false,
      "t": 35581.29749999999,
      "d": 248.06133333333855,
      "v": 99
    },
    {
      "midi": 70,
      "hit": false,
      "t": 35813.854999999996,
      "d": 215.1156875000015,
      "v": 107
    },
    {
      "midi": 74,
      "hit": false,
      "t": 36046.4125,
      "d": 222.86760416666948,
      "v": 103
    },
    {
      "midi": 75,
      "hit": false,
      "t": 36278.97,
      "d": 213.17770833333634,
      "v": 114
    },
    {
      "midi": 48,
      "hit": false,
      "t": 36278.97,
      "d": 1140.5007395833381,
      "v": 101
    },
    {
      "midi": 36,
      "hit": false,
      "t": 36278.97,
      "d": 1149.221645833335,
      "v": 90
    },
    {
      "midi": 67,
      "hit": false,
      "t": 36511.527500000004,
      "d": 227.71255208333605,
      "v": 101
    },
    {
      "midi": 74,
      "hit": false,
      "t": 36744.08500000001,
      "d": 203.4878125000032,
      "v": 105
    },
    {
      "midi": 72,
      "hit": false,
      "t": 36976.64250000001,
      "d": 209.30174999999872,
      "v": 103
    },
    {
      "midi": 70,
      "hit": false,
      "t": 37209.200000000004,
      "d": 240.3094166666633,
      "v": 115
    },
    {
      "midi": 43,
      "hit": false,
      "t": 37209.200000000004,
      "d": 906.0052604166704,
      "v": 96
    },
    {
      "midi": 55,
      "hit": false,
      "t": 37209.200000000004,
      "d": 940.8888854166726,
      "v": 116
    },
    {
      "midi": 70,
      "hit": false,
      "t": 37209.20000000005,
      "d": 17.441812500001106,
      "v": 1
    },
    {
      "midi": 62,
      "hit": false,
      "t": 37209.20000000005,
      "d": 927.3230312500018,
      "v": 1
    },
    {
      "midi": 67,
      "hit": false,
      "t": 37209.20000000005,
      "d": 927.3230312500018,
      "v": 1
    },
    {
      "midi": 62,
      "hit": false,
      "t": 37441.7575,
      "d": 264.53415625000343,
      "v": 103
    },
    {
      "midi": 67,
      "hit": false,
      "t": 37674.315,
      "d": 224.80558333333465,
      "v": 105
    },
    {
      "midi": 70,
      "hit": false,
      "t": 37906.872500000005,
      "d": 249.99931250000373,
      "v": 101
    },
    {
      "midi": 72,
      "hit": false,
      "t": 38139.43000000001,
      "d": 208.33276041666977,
      "v": 114
    },
    {
      "midi": 41,
      "hit": false,
      "t": 38139.43000000001,
      "d": 702.5174479166744,
      "v": 90
    },
    {
      "midi": 53,
      "hit": false,
      "t": 38139.43000000001,
      "d": 702.5174479166744,
      "v": 107
    },
    {
      "midi": 65,
      "hit": false,
      "t": 38139.43000000005,
      "d": 927.3230312500018,
      "v": 1
    },
    {
      "midi": 69,
      "hit": false,
      "t": 38139.43000000005,
      "d": 927.3230312500018,
      "v": 1
    },
    {
      "midi": 72,
      "hit": false,
      "t": 38139.43000000005,
      "d": 927.3230312500018,
      "v": 1
    },
    {
      "midi": 65,
      "hit": false,
      "t": 38371.98750000001,
      "d": 256.78223958333547,
      "v": 102
    },
    {
      "midi": 69,
      "hit": false,
      "t": 38604.54500000001,
      "d": 210.27073958333494,
      "v": 103
    },
    {
      "midi": 70,
      "hit": false,
      "t": 38837.102500000015,
      "d": 436.04531249999854,
      "v": 113
    },
    {
      "midi": 39,
      "hit": false,
      "t": 38837.102500000015,
      "d": 1145.3456875000047,
      "v": 94
    },
    {
      "midi": 51,
      "hit": false,
      "t": 38837.102500000015,
      "d": 1145.3456875000047,
      "v": 113
    },
    {
      "midi": 67,
      "hit": false,
      "t": 39069.660000000054,
      "d": 927.3230312500018,
      "v": 1
    },
    {
      "midi": 70,
      "hit": false,
      "t": 39069.660000000054,
      "d": 927.3230312500018,
      "v": 1
    },
    {
      "midi": 74,
      "hit": false,
      "t": 39069.660000000054,
      "d": 927.3230312500018,
      "v": 1
    },
    {
      "midi": 67,
      "hit": false,
      "t": 39302.21750000001,
      "d": 248.06133333333855,
      "v": 99
    },
    {
      "midi": 70,
      "hit": false,
      "t": 39534.775000000016,
      "d": 215.1156875000015,
      "v": 107
    },
    {
      "midi": 74,
      "hit": false,
      "t": 39767.33250000002,
      "d": 222.86760416666948,
      "v": 103
    },
    {
      "midi": 75,
      "hit": false,
      "t": 39999.89000000002,
      "d": 213.17770833333634,
      "v": 114
    },
    {
      "midi": 48,
      "hit": false,
      "t": 39999.89000000002,
      "d": 1140.5007395833381,
      "v": 101
    },
    {
      "midi": 36,
      "hit": false,
      "t": 39999.89000000002,
      "d": 1149.221645833335,
      "v": 90
    },
    {
      "midi": 67,
      "hit": false,
      "t": 39999.89000000006,
      "d": 927.3230312500018,
      "v": 1
    },
    {
      "midi": 72,
      "hit": false,
      "t": 39999.89000000006,
      "d": 927.3230312500018,
      "v": 1
    },
    {
      "midi": 75,
      "hit": false,
      "t": 39999.89000000006,
      "d": 927.3230312500018,
      "v": 1
    },
    {
      "midi": 67,
      "hit": false,
      "t": 40232.447500000024,
      "d": 227.71255208333605,
      "v": 101
    },
    {
      "midi": 74,
      "hit": false,
      "t": 40465.00500000003,
      "d": 203.4878125000032,
      "v": 105
    },
    {
      "midi": 72,
      "hit": false,
      "t": 40697.56250000003,
      "d": 209.30174999999872,
      "v": 103
    },
    {
      "midi": 70,
      "hit": false,
      "t": 40930.120000000024,
      "d": 240.3094166666633,
      "v": 115
    },
    {
      "midi": 43,
      "hit": false,
      "t": 40930.120000000024,
      "d": 906.0052604166704,
      "v": 96
    },
    {
      "midi": 55,
      "hit": false,
      "t": 40930.120000000024,
      "d": 940.8888854166726,
      "v": 116
    },
    {
      "midi": 62,
      "hit": false,
      "t": 40930.12000000006,
      "d": 927.3230312500018,
      "v": 1
    },
    {
      "midi": 67,
      "hit": false,
      "t": 40930.12000000006,
      "d": 927.3230312500018,
      "v": 1
    },
    {
      "midi": 70,
      "hit": false,
      "t": 40930.12000000006,
      "d": 927.3230312500018,
      "v": 1
    },
    {
      "midi": 62,
      "hit": false,
      "t": 41162.67750000002,
      "d": 264.53415625000343,
      "v": 103
    },
    {
      "midi": 67,
      "hit": false,
      "t": 41395.23500000002,
      "d": 224.80558333333465,
      "v": 105
    },
    {
      "midi": 70,
      "hit": false,
      "t": 41627.792500000025,
      "d": 249.99931250000373,
      "v": 101
    },
    {
      "midi": 69,
      "hit": false,
      "t": 41860.35000000003,
      "d": 208.33276041666977,
      "v": 114
    },
    {
      "midi": 41,
      "hit": false,
      "t": 41860.35000000003,
      "d": 702.5174479166744,
      "v": 90
    },
    {
      "midi": 53,
      "hit": false,
      "t": 41860.35000000003,
      "d": 702.5174479166744,
      "v": 107
    },
    {
      "midi": 60,
      "hit": false,
      "t": 41860.350000000064,
      "d": 927.3230312500018,
      "v": 1
    },
    {
      "midi": 65,
      "hit": false,
      "t": 41860.350000000064,
      "d": 927.3230312500018,
      "v": 1
    },
    {
      "midi": 69,
      "hit": false,
      "t": 41860.350000000064,
      "d": 927.3230312500018,
      "v": 1
    },
    {
      "midi": 60,
      "hit": false,
      "t": 42092.90750000003,
      "d": 256.78223958333547,
      "v": 102
    },
    {
      "midi": 65,
      "hit": false,
      "t": 42325.46500000003,
      "d": 210.27073958333494,
      "v": 103
    },
    {
      "midi": 39,
      "hit": false,
      "t": 42558.022500000036,
      "d": 2090.1105312500003,
      "v": 94
    },
    {
      "midi": 51,
      "hit": false,
      "t": 42558.022500000036,
      "d": 2090.1105312500003,
      "v": 113
    },
    {
      "midi": 67,
      "hit": false,
      "t": 42558.022500000036,
      "d": 2090.1105312500003,
      "v": 113
    },
    {
      "midi": 86,
      "hit": false,
      "t": 42790.58000000007,
      "d": 1857.5530312499977,
      "v": 1
    },
    {
      "midi": 63,
      "hit": false,
      "t": 42790.58000000007,
      "d": 2795.5349479166616,
      "v": 1
    },
    {
      "midi": 67,
      "hit": false,
      "t": 42790.58000000007,
      "d": 2795.5349479166616,
      "v": 1
    },
    {
      "midi": 70,
      "hit": false,
      "t": 42790.58000000007,
      "d": 2795.5349479166616,
      "v": 1
    }
  ]
}