{
  "jsonPath": "Soundtracks/Video Game Music/Super Mario Bros 3/super-mario-bros-3-endingloop.json",
  "path": "Soundtracks\\Video Game Music\\Super Mario Bros 3\\Super_Mario_Bros_3_EndingLoop.mid",
  "name": "Super_Mario_Bros_3_EndingLoop",
  "difficulty": "Advanced",
  "bpm": 169.0002788504601,
  "notes": [
    {
      "midi": 59,
      "hit": false,
      "t": 0,
      "d": 85.05903125,
      "v": 110
    },
    {
      "midi": 62,
      "hit": false,
      "t": 0,
      "d": 85.05903125,
      "v": 110
    },
    {
      "midi": 67,
      "hit": false,
      "t": 0,
      "d": 85.05903125,
      "v": 110
    },
    {
      "midi": 55,
      "hit": false,
      "t": 0,
      "d": 85.05903125,
      "v": 110
    },
    {
      "midi": 71,
      "hit": false,
      "t": 355.029,
      "d": 85.05903124999998,
      "v": 110
    },
    {
      "midi": 79,
      "hit": false,
      "t": 355.029,
      "d": 85.05903124999998,
      "v": 110
    },
    {
      "midi": 69,
      "hit": false,
      "t": 532.5435,
      "d": 262.5735312500001,
      "v": 110
    },
    {
      "midi": 77,
      "hit": false,
      "t": 532.5435,
      "d": 262.5735312500001,
      "v": 110
    },
    {
      "midi": 65,
      "hit": false,
      "t": 532.5435,
      "d": 262.5735312500001,
      "v": 110
    },
    {
      "midi": 65,
      "hit": false,
      "t": 887.5725000000001,
      "d": 85.05903124999998,
      "v": 110
    },
    {
      "midi": 74,
      "hit": false,
      "t": 887.5725000000001,
      "d": 85.05903124999998,
      "v": 110
    },
    {
      "midi": 62,
      "hit": false,
      "t": 887.5725000000001,
      "d": 85.05903124999998,
      "v": 110
    },
    {
      "midi": 62,
      "hit": false,
      "t": 1065.087,
      "d": 85.05903125000009,
      "v": 110
    },
    {
      "midi": 71,
      "hit": false,
      "t": 1065.087,
      "d": 85.05903125000009,
      "v": 110
    },
    {
      "midi": 59,
      "hit": false,
      "t": 1065.087,
      "d": 85.05903125000009,
      "v": 110
    },
    {
      "midi": 60,
      "hit": false,
      "t": 1242.6015,
      "d": 85.05903125000009,
      "v": 110
    },
    {
      "midi": 69,
      "hit": false,
      "t": 1242.6015,
      "d": 85.05903125000009,
      "v": 110
    },
    {
      "midi": 57,
      "hit": false,
      "t": 1242.6015,
      "d": 85.05903125000009,
      "v": 110
    },
    {
      "midi": 59,
      "hit": false,
      "t": 1420.116,
      "d": 85.05903125000009,
      "v": 110
    },
    {
      "midi": 67,
      "hit": false,
      "t": 1420.116,
      "d": 85.05903125000009,
      "v": 110
    },
    {
      "midi": 55,
      "hit": false,
      "t": 1420.116,
      "d": 85.05903125000009,
      "v": 110
    },
    {
      "midi": 59,
      "hit": false,
      "t": 1775.145,
      "d": 85.05903125000009,
      "v": 110
    },
    {
      "midi": 67,
      "hit": false,
      "t": 1775.145,
      "d": 85.05903125000009,
      "v": 110
    },
    {
      "midi": 48,
      "hit": false,
      "t": 2840.232,
      "d": 85.05903124999986,
      "v": 110
    },
    {
      "midi": 72,
      "hit": false,
      "t": 3195.2610000000004,
      "d": 85.05903124999986,
      "v": 110
    },
    {
      "midi": 76,
      "hit": false,
      "t": 3195.2610000000004,
      "d": 85.05903124999986,
      "v": 110
    },
    {
      "midi": 52,
      "hit": false,
      "t": 3372.7754999999997,
      "d": 85.05903124999986,
      "v": 110
    },
    {
      "midi": 74,
      "hit": false,
      "t": 3372.7755,
      "d": 85.05903124999986,
      "v": 110
    },
    {
      "midi": 77,
      "hit": false,
      "t": 3372.7755,
      "d": 85.05903124999986,
      "v": 110
    },
    {
      "midi": 72,
      "hit": false,
      "t": 3550.29,
      "d": 85.05903124999986,
      "v": 110
    },
    {
      "midi": 76,
      "hit": false,
      "t": 3550.29,
      "d": 85.05903124999986,
      "v": 110
    },
    {
      "midi": 71,
      "hit": false,
      "t": 3727.8044999999997,
      "d": 85.05903124999986,
      "v": 110
    },
    {
      "midi": 74,
      "hit": false,
      "t": 3727.8044999999997,
      "d": 85.05903124999986,
      "v": 110
    },
    {
      "midi": 52,
      "hit": false,
      "t": 3727.8044999999997,
      "d": 85.05903124999986,
      "v": 110
    },
    {
      "midi": 69,
      "hit": false,
      "t": 3905.3189999999995,
      "d": 85.05903124999986,
      "v": 110
    },
    {
      "midi": 72,
      "hit": false,
      "t": 3905.3189999999995,
      "d": 85.05903124999986,
      "v": 110
    },
    {
      "midi": 55,
      "hit": false,
      "t": 3905.3189999999995,
      "d": 85.05903124999986,
      "v": 110
    },
    {
      "midi": 67,
      "hit": false,
      "t": 4082.8334999999993,
      "d": 85.05903125000032,
      "v": 110
    },
    {
      "midi": 71,
      "hit": false,
      "t": 4082.8334999999993,
      "d": 85.05903125000032,
      "v": 110
    },
    {
      "midi": 53,
      "hit": false,
      "t": 4260.347999999999,
      "d": 85.05903124999986,
      "v": 110
    },
    {
      "midi": 69,
      "hit": false,
      "t": 4260.348,
      "d": 173.81628125000043,
      "v": 110
    },
    {
      "midi": 74,
      "hit": false,
      "t": 4260.348,
      "d": 173.81628125000043,
      "v": 110
    },
    {
      "midi": 69,
      "hit": false,
      "t": 4615.377,
      "d": 85.05903124999986,
      "v": 110
    },
    {
      "midi": 74,
      "hit": false,
      "t": 4615.377,
      "d": 85.05903124999986,
      "v": 110
    },
    {
      "midi": 57,
      "hit": false,
      "t": 4792.891499999999,
      "d": 85.05903124999986,
      "v": 110
    },
    {
      "midi": 65,
      "hit": false,
      "t": 4792.891500000001,
      "d": 351.33078124999975,
      "v": 110
    },
    {
      "midi": 69,
      "hit": false,
      "t": 4792.891500000001,
      "d": 351.33078124999975,
      "v": 110
    },
    {
      "midi": 57,
      "hit": false,
      "t": 5147.920499999998,
      "d": 85.05903124999986,
      "v": 110
    },
    {
      "midi": 60,
      "hit": false,
      "t": 5325.434999999999,
      "d": 85.05903124999986,
      "v": 110
    },
    {
      "midi": 55,
      "hit": false,
      "t": 5680.463999999998,
      "d": 85.05903124999986,
      "v": 110
    },
    {
      "midi": 67,
      "hit": false,
      "t": 6035.493,
      "d": 85.05903124999986,
      "v": 110
    },
    {
      "midi": 71,
      "hit": false,
      "t": 6035.493,
      "d": 85.05903124999986,
      "v": 110
    },
    {
      "midi": 59,
      "hit": false,
      "t": 6213.007499999998,
      "d": 85.05903124999986,
      "v": 110
    },
    {
      "midi": 69,
      "hit": false,
      "t": 6213.007500000001,
      "d": 85.05903124999986,
      "v": 110
    },
    {
      "midi": 72,
      "hit": false,
      "t": 6213.007500000001,
      "d": 85.05903124999986,
      "v": 110
    },
    {
      "midi": 67,
      "hit": false,
      "t": 6390.522000000001,
      "d": 85.05903124999986,
      "v": 110
    },
    {
      "midi": 71,
      "hit": false,
      "t": 6390.522000000001,
      "d": 85.05903124999986,
      "v": 110
    },
    {
      "midi": 59,
      "hit": false,
      "t": 6568.036499999997,
      "d": 85.05903124999986,
      "v": 110
    },
    {
      "midi": 65,
      "hit": false,
      "t": 6568.036500000001,
      "d": 85.05903124999986,
      "v": 110
    },
    {
      "midi": 69,
      "hit": false,
      "t": 6568.036500000001,
      "d": 85.05903124999986,
      "v": 110
    },
    {
      "midi": 62,
      "hit": false,
      "t": 6745.550999999998,
      "d": 85.05903124999986,
      "v": 110
    },
    {
      "midi": 64,
      "hit": false,
      "t": 6745.551000000001,
      "d": 85.05903124999986,
      "v": 110
    },
    {
      "midi": 67,
      "hit": false,
      "t": 6745.551000000001,
      "d": 85.05903124999986,
      "v": 110
    },
    {
      "midi": 62,
      "hit": false,
      "t": 6923.0655000000015,
      "d": 85.05903124999986,
      "v": 110
    },
    {
      "midi": 65,
      "hit": false,
      "t": 6923.0655000000015,
      "d": 85.05903124999986,
      "v": 110
    },
    {
      "midi": 48,
      "hit": false,
      "t": 7100.579999999997,
      "d": 85.05903124999986,
      "v": 110
    },
    {
      "midi": 60,
      "hit": false,
      "t": 7100.580000000002,
      "d": 173.81628125000043,
      "v": 110
    },
    {
      "midi": 64,
      "hit": false,
      "t": 7100.580000000002,
      "d": 173.81628125000043,
      "v": 110
    },
    {
      "midi": 60,
      "hit": false,
      "t": 7455.609000000002,
      "d": 85.05903124999986,
      "v": 110
    },
    {
      "midi": 64,
      "hit": false,
      "t": 7455.609000000002,
      "d": 85.05903124999986,
      "v": 110
    },
    {
      "midi": 52,
      "hit": false,
      "t": 7633.123499999997,
      "d": 85.05903124999986,
      "v": 110
    },
    {
      "midi": 64,
      "hit": false,
      "t": 7633.123500000002,
      "d": 351.33078124999975,
      "v": 110
    },
    {
      "midi": 67,
      "hit": false,
      "t": 7633.123500000002,
      "d": 351.33078124999975,
      "v": 110
    },
    {
      "midi": 52,
      "hit": false,
      "t": 7988.1524999999965,
      "d": 85.05903124999986,
      "v": 110
    },
    {
      "midi": 55,
      "hit": false,
      "t": 8165.666999999997,
      "d": 85.05903124999986,
      "v": 110
    },
    {
      "midi": 48,
      "hit": false,
      "t": 8520.695999999996,
      "d": 85.05903125000077,
      "v": 110
    },
    {
      "midi": 72,
      "hit": false,
      "t": 8875.725000000002,
      "d": 85.05903125000077,
      "v": 110
    },
    {
      "midi": 76,
      "hit": false,
      "t": 8875.725000000002,
      "d": 85.05903125000077,
      "v": 110
    },
    {
      "midi": 52,
      "hit": false,
      "t": 9053.239499999998,
      "d": 85.05903125000077,
      "v": 110
    },
    {
      "midi": 74,
      "hit": false,
      "t": 9053.239500000003,
      "d": 85.05903125000077,
      "v": 110
    },
    {
      "midi": 77,
      "hit": false,
      "t": 9053.239500000003,
      "d": 85.05903125000077,
      "v": 110
    },
    {
      "midi": 72,
      "hit": false,
      "t": 9230.754000000004,
      "d": 85.05903125000077,
      "v": 110
    },
    {
      "midi": 76,
      "hit": false,
      "t": 9230.754000000004,
      "d": 85.05903125000077,
      "v": 110
    },
    {
      "midi": 52,
      "hit": false,
      "t": 9408.268499999998,
      "d": 85.05903125000077,
      "v": 110
    },
    {
      "midi": 71,
      "hit": false,
      "t": 9408.268500000006,
      "d": 85.05903125000077,
      "v": 110
    },
    {
      "midi": 74,
      "hit": false,
      "t": 9408.268500000006,
      "d": 85.05903125000077,
      "v": 110
    },
    {
      "midi": 55,
      "hit": false,
      "t": 9585.783,
      "d": 85.05903125000077,
      "v": 110
    },
    {
      "midi": 69,
      "hit": false,
      "t": 9585.783000000007,
      "d": 85.05903125000077,
      "v": 110
    },
    {
      "midi": 72,
      "hit": false,
      "t": 9585.783000000007,
      "d": 85.05903125000077,
      "v": 110
    },
    {
      "midi": 67,
      "hit": false,
      "t": 9763.297500000008,
      "d": 85.05903125000077,
      "v": 110
    },
    {
      "midi": 71,
      "hit": false,
      "t": 9763.297500000008,
      "d": 85.05903125000077,
      "v": 110
    },
    {
      "midi": 53,
      "hit": false,
      "t": 9940.812,
      "d": 85.05903125000077,
      "v": 110
    },
    {
      "midi": 69,
      "hit": false,
      "t": 9940.812000000009,
      "d": 173.81628124999952,
      "v": 110
    },
    {
      "midi": 74,
      "hit": false,
      "t": 9940.812000000009,
      "d": 173.81628124999952,
      "v": 110
    },
    {
      "midi": 69,
      "hit": false,
      "t": 10295.841000000008,
      "d": 85.05903125000077,
      "v": 110
    },
    {
      "midi": 74,
      "hit": false,
      "t": 10295.841000000008,
      "d": 85.05903125000077,
      "v": 110
    },
    {
      "midi": 57,
      "hit": false,
      "t": 10473.355500000001,
      "d": 85.05903125000077,
      "v": 110
    },
    {
      "midi": 65,
      "hit": false,
      "t": 10473.355500000009,
      "d": 351.33078125000065,
      "v": 110
    },
    {
      "midi": 69,
      "hit": false,
      "t": 10473.355500000009,
      "d": 351.33078125000065,
      "v": 110
    },
    {
      "midi": 57,
      "hit": false,
      "t": 10828.384500000002,
      "d": 85.05903125000077,
      "v": 110
    },
    {
      "midi": 60,
      "hit": false,
      "t": 11005.899000000003,
      "d": 85.05903125000077,
      "v": 110
    },
    {
      "midi": 55,
      "hit": false,
      "t": 11360.928000000004,
      "d": 85.05903125000077,
      "v": 110
    },
    {
      "midi": 67,
      "hit": false,
      "t": 11715.95700000001,
      "d": 85.05903125000077,
      "v": 110
    },
    {
      "midi": 71,
      "hit": false,
      "t": 11715.95700000001,
      "d": 85.05903125000077,
      "v": 110
    },
    {
      "midi": 59,
      "hit": false,
      "t": 11893.471500000005,
      "d": 85.05903125000077,
      "v": 110
    },
    {
      "midi": 69,
      "hit": false,
      "t": 11893.47150000001,
      "d": 85.05903125000077,
      "v": 110
    },
    {
      "midi": 72,
      "hit": false,
      "t": 11893.47150000001,
      "d": 85.05903125000077,
      "v": 110
    },
    {
      "midi": 67,
      "hit": false,
      "t": 12070.986000000012,
      "d": 85.05903125000077,
      "v": 110
    },
    {
      "midi": 71,
      "hit": false,
      "t": 12070.986000000012,
      "d": 85.05903125000077,
      "v": 110
    },
    {
      "midi": 59,
      "hit": false,
      "t": 12248.500500000006,
      "d": 85.05903125000077,
      "v": 110
    },
    {
      "midi": 65,
      "hit": false,
      "t": 12248.500500000013,
      "d": 85.05903125000077,
      "v": 110
    },
    {
      "midi": 69,
      "hit": false,
      "t": 12248.500500000013,
      "d": 85.05903125000077,
      "v": 110
    },
    {
      "midi": 62,
      "hit": false,
      "t": 12426.015000000007,
      "d": 85.05903125000077,
      "v": 110
    },
    {
      "midi": 64,
      "hit": false,
      "t": 12426.015000000014,
      "d": 85.05903125000077,
      "v": 110
    },
    {
      "midi": 67,
      "hit": false,
      "t": 12426.015000000014,
      "d": 85.05903125000077,
      "v": 110
    },
    {
      "midi": 62,
      "hit": false,
      "t": 12603.529500000015,
      "d": 85.05903125000077,
      "v": 110
    },
    {
      "midi": 65,
      "hit": false,
      "t": 12603.529500000015,
      "d": 85.05903125000077,
      "v": 110
    },
    {
      "midi": 48,
      "hit": false,
      "t": 12781.044000000007,
      "d": 85.05903125000077,
      "v": 110
    },
    {
      "midi": 60,
      "hit": false,
      "t": 12781.044000000016,
      "d": 173.81628124999952,
      "v": 110
    },
    {
      "midi": 64,
      "hit": false,
      "t": 12781.044000000016,
      "d": 173.81628124999952,
      "v": 110
    },
    {
      "midi": 60,
      "hit": false,
      "t": 13136.073000000015,
      "d": 85.05903125000077,
      "v": 110
    },
    {
      "midi": 64,
      "hit": false,
      "t": 13136.073000000015,
      "d": 85.05903125000077,
      "v": 110
    },
    {
      "midi": 52,
      "hit": false,
      "t": 13313.587500000009,
      "d": 85.05903125000077,
      "v": 110
    },
    {
      "midi": 64,
      "hit": false,
      "t": 13313.587500000016,
      "d": 351.33078125000065,
      "v": 110
    },
    {
      "midi": 67,
      "hit": false,
      "t": 13313.587500000016,
      "d": 351.33078125000065,
      "v": 110
    },
    {
      "midi": 52,
      "hit": false,
      "t": 13668.61650000001,
      "d": 85.05903125000077,
      "v": 110
    },
    {
      "midi": 55,
      "hit": false,
      "t": 13846.13100000001,
      "d": 85.05903125000077,
      "v": 110
    },
    {
      "midi": 53,
      "hit": false,
      "t": 14201.16000000001,
      "d": 85.05903125000077,
      "v": 110
    },
    {
      "midi": 53,
      "hit": false,
      "t": 14556.189000000011,
      "d": 85.05903125000077,
      "v": 110
    },
    {
      "midi": 60,
      "hit": false,
      "t": 14556.189000000017,
      "d": 85.05903125000077,
      "v": 110
    },
    {
      "midi": 65,
      "hit": false,
      "t": 14556.189000000017,
      "d": 85.05903125000077,
      "v": 110
    },
    {
      "midi": 56,
      "hit": false,
      "t": 14733.703500000012,
      "d": 85.05903125000077,
      "v": 110
    },
    {
      "midi": 62,
      "hit": false,
      "t": 14733.703500000018,
      "d": 85.05903125000077,
      "v": 110
    },
    {
      "midi": 67,
      "hit": false,
      "t": 14733.703500000018,
      "d": 85.05903125000077,
      "v": 110
    },
    {
      "midi": 68,
      "hit": false,
      "t": 14911.218000000019,
      "d": 85.05903125000077,
      "v": 110
    },
    {
      "midi": 77,
      "hit": false,
      "t": 14911.218000000019,
      "d": 85.05903125000077,
      "v": 110
    },
    {
      "midi": 56,
      "hit": false,
      "t": 15088.732500000013,
      "d": 85.05903125000077,
      "v": 110
    },
    {
      "midi": 72,
      "hit": false,
      "t": 15088.73250000002,
      "d": 85.05903125000077,
      "v": 110
    },
    {
      "midi": 80,
      "hit": false,
      "t": 15088.73250000002,
      "d": 85.05903125000077,
      "v": 110
    },
    {
      "midi": 60,
      "hit": false,
      "t": 15266.247000000014,
      "d": 85.05903125000077,
      "v": 110
    },
    {
      "midi": 70,
      "hit": false,
      "t": 15266.247000000021,
      "d": 85.05903125000077,
      "v": 110
    },
    {
      "midi": 79,
      "hit": false,
      "t": 15266.247000000021,
      "d": 85.05903125000077,
      "v": 110
    },
    {
      "midi": 68,
      "hit": false,
      "t": 15443.761500000022,
      "d": 85.05903125000077,
      "v": 110
    },
    {
      "midi": 77,
      "hit": false,
      "t": 15443.761500000022,
      "d": 85.05903125000077,
      "v": 110
    },
    {
      "midi": 48,
      "hit": false,
      "t": 15621.276000000014,
      "d": 173.81628124999952,
      "v": 110
    },
    {
      "midi": 67,
      "hit": false,
      "t": 15621.276000000023,
      "d": 173.81628124999952,
      "v": 110
    },
    {
      "midi": 76,
      "hit": false,
      "t": 15621.276000000023,
      "d": 173.81628124999952,
      "v": 110
    },
    {
      "midi": 48,
      "hit": false,
      "t": 15976.305000000013,
      "d": 85.05903125000077,
      "v": 110
    },
    {
      "midi": 52,
      "hit": false,
      "t": 16153.819500000014,
      "d": 85.05903125000077,
      "v": 110
    },
    {
      "midi": 64,
      "hit": false,
      "t": 16153.819500000023,
      "d": 262.5735312500001,
      "v": 110
    },
    {
      "midi": 72,
      "hit": false,
      "t": 16153.819500000023,
      "d": 262.5735312500001,
      "v": 110
    },
    {
      "midi": 52,
      "hit": false,
      "t": 16508.848500000015,
      "d": 85.05903124999895,
      "v": 110
    },
    {
      "midi": 55,
      "hit": false,
      "t": 16686.363000000012,
      "d": 85.05903124999895,
      "v": 110
    },
    {
      "midi": 53,
      "hit": false,
      "t": 17041.39200000001,
      "d": 85.05903124999895,
      "v": 110
    },
    {
      "midi": 53,
      "hit": false,
      "t": 17396.42100000001,
      "d": 85.05903124999895,
      "v": 110
    },
    {
      "midi": 60,
      "hit": false,
      "t": 17396.421000000024,
      "d": 85.05903124999895,
      "v": 110
    },
    {
      "midi": 65,
      "hit": false,
      "t": 17396.421000000024,
      "d": 85.05903124999895,
      "v": 110
    },
    {
      "midi": 56,
      "hit": false,
      "t": 17573.935500000007,
      "d": 85.05903124999895,
      "v": 110
    },
    {
      "midi": 62,
      "hit": false,
      "t": 17573.93550000002,
      "d": 85.05903124999895,
      "v": 110
    },
    {
      "midi": 67,
      "hit": false,
      "t": 17573.93550000002,
      "d": 85.05903124999895,
      "v": 110
    },
    {
      "midi": 68,
      "hit": false,
      "t": 17751.45000000002,
      "d": 85.05903124999895,
      "v": 110
    },
    {
      "midi": 77,
      "hit": false,
      "t": 17751.45000000002,
      "d": 85.05903124999895,
      "v": 110
    },
    {
      "midi": 56,
      "hit": false,
      "t": 17928.964500000006,
      "d": 85.05903124999895,
      "v": 110
    },
    {
      "midi": 72,
      "hit": false,
      "t": 17928.964500000016,
      "d": 85.05903124999895,
      "v": 110
    },
    {
      "midi": 80,
      "hit": false,
      "t": 17928.964500000016,
      "d": 85.05903124999895,
      "v": 110
    },
    {
      "midi": 60,
      "hit": false,
      "t": 18106.479000000003,
      "d": 85.05903124999895,
      "v": 110
    },
    {
      "midi": 70,
      "hit": false,
      "t": 18106.479000000014,
      "d": 85.05903124999895,
      "v": 110
    },
    {
      "midi": 79,
      "hit": false,
      "t": 18106.479000000014,
      "d": 85.05903124999895,
      "v": 110
    },
    {
      "midi": 68,
      "hit": false,
      "t": 18283.99350000001,
      "d": 85.05903124999895,
      "v": 110
    },
    {
      "midi": 77,
      "hit": false,
      "t": 18283.99350000001,
      "d": 85.05903124999895,
      "v": 110
    },
    {
      "midi": 48,
      "hit": false,
      "t": 18461.508,
      "d": 173.81628125000134,
      "v": 110
    },
    {
      "midi": 67,
      "hit": false,
      "t": 18461.50800000001,
      "d": 173.81628125000134,
      "v": 110
    },
    {
      "midi": 76,
      "hit": false,
      "t": 18461.50800000001,
      "d": 173.81628125000134,
      "v": 110
    },
    {
      "midi": 48,
      "hit": false,
      "t": 18816.537000000004,
      "d": 85.05903124999895,
      "v": 110
    },
    {
      "midi": 52,
      "hit": false,
      "t": 18994.0515,
      "d": 85.05903124999895,
      "v": 110
    },
    {
      "midi": 64,
      "hit": false,
      "t": 18994.05150000001,
      "d": 262.5735312500001,
      "v": 110
    },
    {
      "midi": 72,
      "hit": false,
      "t": 18994.05150000001,
      "d": 262.5735312500001,
      "v": 110
    },
    {
      "midi": 52,
      "hit": false,
      "t": 19349.0805,
      "d": 85.05903124999895,
      "v": 110
    },
    {
      "midi": 55,
      "hit": false,
      "t": 19526.594999999998,
      "d": 85.05903124999895,
      "v": 110
    },
    {
      "midi": 53,
      "hit": false,
      "t": 19881.623999999996,
      "d": 85.05903124999895,
      "v": 110
    },
    {
      "midi": 53,
      "hit": false,
      "t": 20236.652999999995,
      "d": 85.05903124999895,
      "v": 110
    },
    {
      "midi": 60,
      "hit": false,
      "t": 20236.65300000001,
      "d": 85.05903124999895,
      "v": 110
    },
    {
      "midi": 65,
      "hit": false,
      "t": 20236.65300000001,
      "d": 85.05903124999895,
      "v": 110
    },
    {
      "midi": 56,
      "hit": false,
      "t": 20414.167499999992,
      "d": 85.05903124999895,
      "v": 110
    },
    {
      "midi": 62,
      "hit": false,
      "t": 20414.167500000007,
      "d": 85.05903124999895,
      "v": 110
    },
    {
      "midi": 67,
      "hit": false,
      "t": 20414.167500000007,
      "d": 85.05903124999895,
      "v": 110
    },
    {
      "midi": 68,
      "hit": false,
      "t": 20591.682000000004,
      "d": 85.05903124999895,
      "v": 110
    },
    {
      "midi": 77,
      "hit": false,
      "t": 20591.682000000004,
      "d": 85.05903124999895,
      "v": 110
    },
    {
      "midi": 56,
      "hit": false,
      "t": 20769.19649999999,
      "d": 85.05903124999895,
      "v": 110
    },
    {
      "midi": 72,
      "hit": false,
      "t": 20769.196500000002,
      "d": 85.05903124999895,
      "v": 110
    },
    {
      "midi": 80,
      "hit": false,
      "t": 20769.196500000002,
      "d": 85.05903124999895,
      "v": 110
    },
    {
      "midi": 60,
      "hit": false,
      "t": 20946.71099999999,
      "d": 85.05903124999895,
      "v": 110
    },
    {
      "midi": 70,
      "hit": false,
      "t": 20946.711,
      "d": 85.05903124999895,
      "v": 110
    },
    {
      "midi": 79,
      "hit": false,
      "t": 20946.711,
      "d": 85.05903124999895,
      "v": 110
    },
    {
      "midi": 68,
      "hit": false,
      "t": 21124.225499999997,
      "d": 85.05903124999895,
      "v": 110
    },
    {
      "midi": 77,
      "hit": false,
      "t": 21124.225499999997,
      "d": 85.05903124999895,
      "v": 110
    },
    {
      "midi": 52,
      "hit": false,
      "t": 21301.739999999987,
      "d": 173.81628125000134,
      "v": 110
    },
    {
      "midi": 67,
      "hit": false,
      "t": 21301.739999999994,
      "d": 173.81628125000134,
      "v": 110
    },
    {
      "midi": 76,
      "hit": false,
      "t": 21301.739999999994,
      "d": 173.81628125000134,
      "v": 110
    },
    {
      "midi": 52,
      "hit": false,
      "t": 21656.76899999999,
      "d": 85.05903124999895,
      "v": 110
    },
    {
      "midi": 55,
      "hit": false,
      "t": 21834.283499999987,
      "d": 85.05903124999895,
      "v": 110
    },
    {
      "midi": 72,
      "hit": false,
      "t": 21834.283499999994,
      "d": 262.5735312500001,
      "v": 110
    },
    {
      "midi": 79,
      "hit": false,
      "t": 21834.283499999994,
      "d": 262.5735312500001,
      "v": 110
    },
    {
      "midi": 55,
      "hit": false,
      "t": 22189.312499999985,
      "d": 85.05903124999895,
      "v": 110
    },
    {
      "midi": 60,
      "hit": false,
      "t": 22366.826999999983,
      "d": 85.05903124999895,
      "v": 110
    },
    {
      "midi": 51,
      "hit": false,
      "t": 22721.85599999998,
      "d": 173.81628125000134,
      "v": 110
    },
    {
      "midi": 51,
      "hit": false,
      "t": 23076.884999999984,
      "d": 85.05903124999895,
      "v": 110
    },
    {
      "midi": 65,
      "hit": false,
      "t": 23076.884999999995,
      "d": 85.05903124999895,
      "v": 110
    },
    {
      "midi": 69,
      "hit": false,
      "t": 23076.884999999995,
      "d": 85.05903124999895,
      "v": 110
    },
    {
      "midi": 55,
      "hit": false,
      "t": 23254.39949999998,
      "d": 85.05903124999895,
      "v": 110
    },
    {
      "midi": 64,
      "hit": false,
      "t": 23254.399499999992,
      "d": 85.05903124999895,
      "v": 110
    },
    {
      "midi": 68,
      "hit": false,
      "t": 23254.399499999992,
      "d": 85.05903124999895,
      "v": 110
    },
    {
      "midi": 65,
      "hit": false,
      "t": 23431.91399999999,
      "d": 85.05903124999895,
      "v": 110
    },
    {
      "midi": 69,
      "hit": false,
      "t": 23431.91399999999,
      "d": 85.05903124999895,
      "v": 110
    },
    {
      "midi": 55,
      "hit": false,
      "t": 23609.42849999998,
      "d": 85.05903124999895,
      "v": 110
    },
    {
      "midi": 67,
      "hit": false,
      "t": 23609.428499999987,
      "d": 85.05903124999895,
      "v": 110
    },
    {
      "midi": 71,
      "hit": false,
      "t": 23609.428499999987,
      "d": 85.05903124999895,
      "v": 110
    },
    {
      "midi": 60,
      "hit": false,
      "t": 23786.942999999977,
      "d": 85.05903124999895,
      "v": 110
    },
    {
      "midi": 69,
      "hit": false,
      "t": 23786.942999999985,
      "d": 85.05903124999895,
      "v": 110
    },
    {
      "midi": 72,
      "hit": false,
      "t": 23786.942999999985,
      "d": 85.05903124999895,
      "v": 110
    },
    {
      "midi": 65,
      "hit": false,
      "t": 23964.457499999982,
      "d": 85.05903124999895,
      "v": 110
    },
    {
      "midi": 69,
      "hit": false,
      "t": 23964.457499999982,
      "d": 85.05903124999895,
      "v": 110
    },
    {
      "midi": 50,
      "hit": false,
      "t": 24141.971999999976,
      "d": 173.81628125000134,
      "v": 110
    },
    {
      "midi": 71,
      "hit": false,
      "t": 24141.97199999998,
      "d": 295.85749999999825,
      "v": 110
    },
    {
      "midi": 74,
      "hit": false,
      "t": 24141.97199999998,
      "d": 295.85749999999825,
      "v": 110
    },
    {
      "midi": 50,
      "hit": false,
      "t": 24497.00099999998,
      "d": 85.05903124999895,
      "v": 110
    },
    {
      "midi": 55,
      "hit": false,
      "t": 24674.515499999976,
      "d": 85.05903124999895,
      "v": 110
    },
    {
      "midi": 55,
      "hit": false,
      "t": 25029.544499999975,
      "d": 85.05903124999895,
      "v": 110
    },
    {
      "midi": 55,
      "hit": false,
      "t": 25207.058999999972,
      "d": 85.05903124999895,
      "v": 110
    },
    {
      "midi": 67,
      "hit": false,
      "t": 25207.05899999998,
      "d": 295.85749999999825,
      "v": 110
    },
    {
      "midi": 60,
      "hit": false,
      "t": 25562.08799999997,
      "d": 173.81628125000134,
      "v": 110
    },
    {
      "midi": 72,
      "hit": false,
      "t": 25562.087999999978,
      "d": 883.8742812499986,
      "v": 110
    },
    {
      "midi": 76,
      "hit": false,
      "t": 25562.087999999978,
      "d": 883.8742812499986,
      "v": 110
    },
    {
      "midi": 55,
      "hit": false,
      "t": 25917.116999999973,
      "d": 85.05903124999895,
      "v": 110
    },
    {
      "midi": 60,
      "hit": false,
      "t": 26094.63149999997,
      "d": 173.81628125000134,
      "v": 110
    },
    {
      "midi": 55,
      "hit": false,
      "t": 26449.660499999973,
      "d": 85.05903124999895,
      "v": 110
    },
    {
      "midi": 67,
      "hit": false,
      "t": 26449.660499999976,
      "d": 173.81628125000134,
      "v": 110
    },
    {
      "midi": 74,
      "hit": false,
      "t": 26449.660499999976,
      "d": 173.81628125000134,
      "v": 110
    },
    {
      "midi": 60,
      "hit": false,
      "t": 26627.17499999997,
      "d": 173.81628125000134,
      "v": 110
    },
    {
      "midi": 72,
      "hit": false,
      "t": 26627.174999999977,
      "d": 173.81628125000134,
      "v": 110
    },
    {
      "midi": 76,
      "hit": false,
      "t": 26627.174999999977,
      "d": 173.81628125000134,
      "v": 110
    },
    {
      "midi": 74,
      "hit": false,
      "t": 26804.68949999998,
      "d": 173.81628125000134,
      "v": 110
    },
    {
      "midi": 77,
      "hit": false,
      "t": 26804.68949999998,
      "d": 173.81628125000134,
      "v": 110
    },
    {
      "midi": 59,
      "hit": false,
      "t": 26982.203999999972,
      "d": 173.81628125000134,
      "v": 110
    },
    {
      "midi": 74,
      "hit": false,
      "t": 26982.20399999998,
      "d": 976.3297500000008,
      "v": 110
    },
    {
      "midi": 79,
      "hit": false,
      "t": 26982.20399999998,
      "d": 976.3297500000008,
      "v": 110
    },
    {
      "midi": 55,
      "hit": false,
      "t": 27337.232999999975,
      "d": 85.05903124999895,
      "v": 110
    },
    {
      "midi": 59,
      "hit": false,
      "t": 27514.747499999972,
      "d": 173.81628125000134,
      "v": 110
    },
    {
      "midi": 55,
      "hit": false,
      "t": 27869.776499999974,
      "d": 85.05903124999895,
      "v": 110
    },
    {
      "midi": 59,
      "hit": false,
      "t": 28047.290999999972,
      "d": 173.81628125000134,
      "v": 110
    },
    {
      "midi": 74,
      "hit": false,
      "t": 28047.29099999998,
      "d": 295.85749999999825,
      "v": 110
    },
    {
      "midi": 81,
      "hit": false,
      "t": 28047.29099999998,
      "d": 295.85749999999825,
      "v": 110
    },
    {
      "midi": 58,
      "hit": false,
      "t": 28402.319999999974,
      "d": 173.81628125000134,
      "v": 110
    },
    {
      "midi": 74,
      "hit": false,
      "t": 28402.319999999978,
      "d": 883.8742812499986,
      "v": 110
    },
    {
      "midi": 79,
      "hit": false,
      "t": 28402.319999999978,
      "d": 883.8742812499986,
      "v": 110
    },
    {
      "midi": 55,
      "hit": false,
      "t": 28757.348999999977,
      "d": 85.05903124999895,
      "v": 110
    },
    {
      "midi": 58,
      "hit": false,
      "t": 28934.863499999974,
      "d": 173.81628125000134,
      "v": 110
    },
    {
      "midi": 74,
      "hit": false,
      "t": 29289.892499999976,
      "d": 173.81628125000134,
      "v": 110
    },
    {
      "midi": 77,
      "hit": false,
      "t": 29289.892499999976,
      "d": 173.81628125000134,
      "v": 110
    },
    {
      "midi": 55,
      "hit": false,
      "t": 29289.892499999976,
      "d": 85.05903124999895,
      "v": 110
    },
    {
      "midi": 58,
      "hit": false,
      "t": 29467.406999999974,
      "d": 173.81628125000134,
      "v": 110
    },
    {
      "midi": 72,
      "hit": false,
      "t": 29467.406999999977,
      "d": 173.81628125000134,
      "v": 110
    },
    {
      "midi": 76,
      "hit": false,
      "t": 29467.406999999977,
      "d": 173.81628125000134,
      "v": 110
    },
    {
      "midi": 74,
      "hit": false,
      "t": 29644.92149999998,
      "d": 173.81628125000134,
      "v": 110
    },
    {
      "midi": 77,
      "hit": false,
      "t": 29644.92149999998,
      "d": 173.81628125000134,
      "v": 110
    },
    {
      "midi": 57,
      "hit": false,
      "t": 29822.435999999976,
      "d": 173.81628125000134,
      "v": 110
    },
    {
      "midi": 69,
      "hit": false,
      "t": 29822.43599999998,
      "d": 976.3297500000008,
      "v": 110
    },
    {
      "midi": 72,
      "hit": false,
      "t": 29822.43599999998,
      "d": 976.3297500000008,
      "v": 110
    },
    {
      "midi": 53,
      "hit": false,
      "t": 30177.46499999998,
      "d": 85.05903124999895,
      "v": 110
    },
    {
      "midi": 57,
      "hit": false,
      "t": 30354.979499999976,
      "d": 173.81628125000134,
      "v": 110
    },
    {
      "midi": 53,
      "hit": false,
      "t": 30710.008499999978,
      "d": 85.05903124999895,
      "v": 110
    },
    {
      "midi": 57,
      "hit": false,
      "t": 30887.522999999976,
      "d": 173.81628125000134,
      "v": 110
    },
    {
      "midi": 74,
      "hit": false,
      "t": 30887.52299999998,
      "d": 295.85749999999825,
      "v": 110
    },
    {
      "midi": 79,
      "hit": false,
      "t": 30887.52299999998,
      "d": 295.85749999999825,
      "v": 110
    },
    {
      "midi": 72,
      "hit": false,
      "t": 31242.551999999978,
      "d": 883.8742812499986,
      "v": 110
    },
    {
      "midi": 77,
      "hit": false,
      "t": 31242.551999999978,
      "d": 883.8742812499986,
      "v": 110
    },
    {
      "midi": 56,
      "hit": false,
      "t": 31242.551999999978,
      "d": 173.81628125000134,
      "v": 110
    },
    {
      "midi": 53,
      "hit": false,
      "t": 31597.58099999998,
      "d": 85.05903124999895,
      "v": 110
    },
    {
      "midi": 56,
      "hit": false,
      "t": 31775.095499999978,
      "d": 173.81628125000134,
      "v": 110
    },
    {
      "midi": 72,
      "hit": false,
      "t": 32130.124499999976,
      "d": 173.81628125000134,
      "v": 110
    },
    {
      "midi": 76,
      "hit": false,
      "t": 32130.124499999976,
      "d": 173.81628125000134,
      "v": 110
    },
    {
      "midi": 53,
      "hit": false,
      "t": 32130.12449999998,
      "d": 85.05903124999895,
      "v": 110
    },
    {
      "midi": 71,
      "hit": false,
      "t": 32307.638999999977,
      "d": 173.81628125000134,
      "v": 110
    },
    {
      "midi": 74,
      "hit": false,
      "t": 32307.638999999977,
      "d": 173.81628125000134,
      "v": 110
    },
    {
      "midi": 56,
      "hit": false,
      "t": 32307.638999999977,
      "d": 173.81628125000134,
      "v": 110
    },
    {
      "midi": 72,
      "hit": false,
      "t": 32485.15349999998,
      "d": 173.81628125000134,
      "v": 110
    },
    {
      "midi": 76,
      "hit": false,
      "t": 32485.15349999998,
      "d": 173.81628125000134,
      "v": 110
    },
    {
      "midi": 67,
      "hit": false,
      "t": 32662.66799999998,
      "d": 621.3007499999985,
      "v": 110
    },
    {
      "midi": 72,
      "hit": false,
      "t": 32662.66799999998,
      "d": 621.3007499999985,
      "v": 110
    },
    {
      "midi": 55,
      "hit": false,
      "t": 32662.66799999998,
      "d": 173.8162812499977,
      "v": 110
    },
    {
      "midi": 52,
      "hit": false,
      "t": 33017.69699999998,
      "d": 85.05903124999895,
      "v": 110
    },
    {
      "midi": 55,
      "hit": false,
      "t": 33195.211499999976,
      "d": 173.81628125000134,
      "v": 110
    },
    {
      "midi": 67,
      "hit": false,
      "t": 33372.72599999998,
      "d": 232.98778124999808,
      "v": 110
    },
    {
      "midi": 71,
      "hit": false,
      "t": 33372.72599999998,
      "d": 232.98778124999808,
      "v": 110
    },
    {
      "midi": 52,
      "hit": false,
      "t": 33550.24049999998,
      "d": 85.05903124999895,
      "v": 110
    },
    {
      "midi": 69,
      "hit": false,
      "t": 33609.41199999998,
      "d": 232.98778124999808,
      "v": 110
    },
    {
      "midi": 72,
      "hit": false,
      "t": 33609.41199999998,
      "d": 232.98778124999808,
      "v": 110
    },
    {
      "midi": 55,
      "hit": false,
      "t": 33727.754999999976,
      "d": 173.81628125000134,
      "v": 110
    },
    {
      "midi": 72,
      "hit": false,
      "t": 33846.09799999998,
      "d": 232.98778124999808,
      "v": 110
    },
    {
      "midi": 76,
      "hit": false,
      "t": 33846.09799999998,
      "d": 232.98778124999808,
      "v": 110
    },
    {
      "midi": 54,
      "hit": false,
      "t": 34082.78399999998,
      "d": 173.81628125000134,
      "v": 110
    },
    {
      "midi": 69,
      "hit": false,
      "t": 34082.783999999985,
      "d": 883.8742812499986,
      "v": 110
    },
    {
      "midi": 74,
      "hit": false,
      "t": 34082.783999999985,
      "d": 883.8742812499986,
      "v": 110
    },
    {
      "midi": 50,
      "hit": false,
      "t": 34437.81299999998,
      "d": 85.05903124999895,
      "v": 110
    },
    {
      "midi": 54,
      "hit": false,
      "t": 34615.32749999998,
      "d": 173.81628125000134,
      "v": 110
    },
    {
      "midi": 50,
      "hit": false,
      "t": 34970.35649999998,
      "d": 85.05903124999895,
      "v": 110
    },
    {
      "midi": 69,
      "hit": false,
      "t": 34970.35649999999,
      "d": 173.81628125000134,
      "v": 110
    },
    {
      "midi": 72,
      "hit": false,
      "t": 34970.35649999999,
      "d": 173.81628125000134,
      "v": 110
    },
    {
      "midi": 54,
      "hit": false,
      "t": 35147.87099999998,
      "d": 173.81628125000134,
      "v": 110
    },
    {
      "midi": 68,
      "hit": false,
      "t": 35147.87099999999,
      "d": 173.81628125000134,
      "v": 110
    },
    {
      "midi": 71,
      "hit": false,
      "t": 35147.87099999999,
      "d": 173.81628125000134,
      "v": 110
    },
    {
      "midi": 69,
      "hit": false,
      "t": 35325.3855,
      "d": 173.81628125000134,
      "v": 110
    },
    {
      "midi": 72,
      "hit": false,
      "t": 35325.3855,
      "d": 173.81628125000134,
      "v": 110
    },
    {
      "midi": 55,
      "hit": false,
      "t": 35502.89999999998,
      "d": 173.81628125000134,
      "v": 110
    },
    {
      "midi": 71,
      "hit": false,
      "t": 35502.9,
      "d": 976.3297499999971,
      "v": 110
    },
    {
      "midi": 74,
      "hit": false,
      "t": 35502.9,
      "d": 976.3297499999971,
      "v": 110
    },
    {
      "midi": 50,
      "hit": false,
      "t": 35857.92899999998,
      "d": 85.05903124999895,
      "v": 110
    },
    {
      "midi": 55,
      "hit": false,
      "t": 36035.44349999998,
      "d": 173.81628125000134,
      "v": 110
    },
    {
      "midi": 50,
      "hit": false,
      "t": 36390.47249999998,
      "d": 85.05903124999895,
      "v": 110
    },
    {
      "midi": 55,
      "hit": false,
      "t": 36567.98699999998,
      "d": 173.81628125000134,
      "v": 110
    },
    {
      "midi": 67,
      "hit": false,
      "t": 36567.987,
      "d": 295.85749999999825,
      "v": 110
    },
    {
      "midi": 60,
      "hit": false,
      "t": 36923.01599999998,
      "d": 173.81628125000134,
      "v": 110
    },
    {
      "midi": 72,
      "hit": false,
      "t": 36923.015999999996,
      "d": 883.8742812499986,
      "v": 110
    },
    {
      "midi": 76,
      "hit": false,
      "t": 36923.015999999996,
      "d": 883.8742812499986,
      "v": 110
    },
    {
      "midi": 55,
      "hit": false,
      "t": 37278.044999999984,
      "d": 85.05903124999895,
      "v": 110
    },
    {
      "midi": 60,
      "hit": false,
      "t": 37455.55949999998,
      "d": 173.81628125000134,
      "v": 110
    },
    {
      "midi": 55,
      "hit": false,
      "t": 37810.58849999998,
      "d": 85.05903124999895,
      "v": 110
    },
    {
      "midi": 67,
      "hit": false,
      "t": 37810.5885,
      "d": 173.81628125000134,
      "v": 110
    },
    {
      "midi": 74,
      "hit": false,
      "t": 37810.5885,
      "d": 173.81628125000134,
      "v": 110
    },
    {
      "midi": 60,
      "hit": false,
      "t": 37988.10299999998,
      "d": 173.81628125000134,
      "v": 110
    },
    {
      "midi": 72,
      "hit": false,
      "t": 37988.103,
      "d": 173.81628125000134,
      "v": 110
    },
    {
      "midi": 76,
      "hit": false,
      "t": 37988.103,
      "d": 173.81628125000134,
      "v": 110
    },
    {
      "midi": 74,
      "hit": false,
      "t": 38165.61750000001,
      "d": 173.81628125000134,
      "v": 110
    },
    {
      "midi": 77,
      "hit": false,
      "t": 38165.61750000001,
      "d": 173.81628125000134,
      "v": 110
    },
    {
      "midi": 59,
      "hit": false,
      "t": 38343.13199999998,
      "d": 173.81628125000134,
      "v": 110
    },
    {
      "midi": 74,
      "hit": false,
      "t": 38343.13200000001,
      "d": 976.3297499999971,
      "v": 110
    },
    {
      "midi": 79,
      "hit": false,
      "t": 38343.13200000001,
      "d": 976.3297499999971,
      "v": 110
    },
    {
      "midi": 55,
      "hit": false,
      "t": 38698.160999999986,
      "d": 85.05903124999895,
      "v": 110
    },
    {
      "midi": 59,
      "hit": false,
      "t": 38875.67549999998,
      "d": 173.81628125000134,
      "v": 110
    },
    {
      "midi": 55,
      "hit": false,
      "t": 39230.704499999985,
      "d": 85.05903124999895,
      "v": 110
    },
    {
      "midi": 59,
      "hit": false,
      "t": 39408.21899999998,
      "d": 173.81628125000134,
      "v": 110
    },
    {
      "midi": 74,
      "hit": false,
      "t": 39408.21900000001,
      "d": 295.85749999999825,
      "v": 110
    },
    {
      "midi": 81,
      "hit": false,
      "t": 39408.21900000001,
      "d": 295.85749999999825,
      "v": 110
    },
    {
      "midi": 58,
      "hit": false,
      "t": 39763.247999999985,
      "d": 173.81628125000134,
      "v": 110
    },
    {
      "midi": 74,
      "hit": false,
      "t": 39763.24800000001,
      "d": 883.8742812499986,
      "v": 110
    },
    {
      "midi": 79,
      "hit": false,
      "t": 39763.24800000001,
      "d": 883.8742812499986,
      "v": 110
    },
    {
      "midi": 55,
      "hit": false,
      "t": 40118.27699999999,
      "d": 85.05903124999895,
      "v": 110
    },
    {
      "midi": 58,
      "hit": false,
      "t": 40295.791499999985,
      "d": 173.81628125000134,
      "v": 110
    },
    {
      "midi": 55,
      "hit": false,
      "t": 40650.82049999999,
      "d": 85.05903124999895,
      "v": 110
    },
    {
      "midi": 74,
      "hit": false,
      "t": 40650.82050000001,
      "d": 173.81628125000134,
      "v": 110
    },
    {
      "midi": 77,
      "hit": false,
      "t": 40650.82050000001,
      "d": 173.81628125000134,
      "v": 110
    },
    {
      "midi": 58,
      "hit": false,
      "t": 40828.334999999985,
      "d": 173.81628125000134,
      "v": 110
    },
    {
      "midi": 72,
      "hit": false,
      "t": 40828.335000000014,
      "d": 173.81628125000134,
      "v": 110
    },
    {
      "midi": 76,
      "hit": false,
      "t": 40828.335000000014,
      "d": 173.81628125000134,
      "v": 110
    },
    {
      "midi": 74,
      "hit": false,
      "t": 41005.84950000002,
      "d": 173.81628125000134,
      "v": 110
    },
    {
      "midi": 77,
      "hit": false,
      "t": 41005.84950000002,
      "d": 173.81628125000134,
      "v": 110
    },
    {
      "midi": 57,
      "hit": false,
      "t": 41183.36399999999,
      "d": 173.81628125000134,
      "v": 110
    },
    {
      "midi": 69,
      "hit": false,
      "t": 41183.36400000002,
      "d": 976.3297499999971,
      "v": 110
    },
    {
      "midi": 72,
      "hit": false,
      "t": 41183.36400000002,
      "d": 976.3297499999971,
      "v": 110
    },
    {
      "midi": 53,
      "hit": false,
      "t": 41538.39299999999,
      "d": 85.05903124999895,
      "v": 110
    },
    {
      "midi": 57,
      "hit": false,
      "t": 41715.90749999999,
      "d": 173.81628125000134,
      "v": 110
    },
    {
      "midi": 53,
      "hit": false,
      "t": 42070.93649999999,
      "d": 85.05903124999895,
      "v": 110
    },
    {
      "midi": 57,
      "hit": false,
      "t": 42248.45099999999,
      "d": 173.81628125000134,
      "v": 110
    },
    {
      "midi": 74,
      "hit": false,
      "t": 42248.45100000002,
      "d": 295.85749999999825,
      "v": 110
    },
    {
      "midi": 79,
      "hit": false,
      "t": 42248.45100000002,
      "d": 295.85749999999825,
      "v": 110
    },
    {
      "midi": 56,
      "hit": false,
      "t": 42603.47999999999,
      "d": 173.81628125000134,
      "v": 110
    },
    {
      "midi": 72,
      "hit": false,
      "t": 42603.48000000002,
      "d": 883.8742812499986,
      "v": 110
    },
    {
      "midi": 77,
      "hit": false,
      "t": 42603.48000000002,
      "d": 883.8742812499986,
      "v": 110
    },
    {
      "midi": 53,
      "hit": false,
      "t": 42958.50899999999,
      "d": 85.05903124999895,
      "v": 110
    },
    {
      "midi": 56,
      "hit": false,
      "t": 43136.02349999999,
      "d": 173.81628125000134,
      "v": 110
    },
    {
      "midi": 53,
      "hit": false,
      "t": 43491.05249999999,
      "d": 85.05903124999895,
      "v": 110
    },
    {
      "midi": 72,
      "hit": false,
      "t": 43491.05250000002,
      "d": 173.81628125000134,
      "v": 110
    },
    {
      "midi": 76,
      "hit": false,
      "t": 43491.05250000002,
      "d": 173.81628125000134,
      "v": 110
    },
    {
      "midi": 56,
      "hit": false,
      "t": 43668.56699999999,
      "d": 173.81628125000134,
      "v": 110
    },
    {
      "midi": 71,
      "hit": false,
      "t": 43668.567000000025,
      "d": 173.81628125000134,
      "v": 110
    },
    {
      "midi": 74,
      "hit": false,
      "t": 43668.567000000025,
      "d": 173.81628125000134,
      "v": 110
    },
    {
      "midi": 72,
      "hit": false,
      "t": 43846.08150000003,
      "d": 173.81628125000134,
      "v": 110
    },
    {
      "midi": 76,
      "hit": false,
      "t": 43846.08150000003,
      "d": 173.81628125000134,
      "v": 110
    },
    {
      "midi": 55,
      "hit": false,
      "t": 44023.59599999999,
      "d": 173.81628125000134,
      "v": 110
    },
    {
      "midi": 67,
      "hit": false,
      "t": 44023.596000000034,
      "d": 621.3007500000022,
      "v": 110
    },
    {
      "midi": 72,
      "hit": false,
      "t": 44023.596000000034,
      "d": 621.3007500000022,
      "v": 110
    },
    {
      "midi": 52,
      "hit": false,
      "t": 44378.62499999999,
      "d": 85.05903124999895,
      "v": 110
    },
    {
      "midi": 55,
      "hit": false,
      "t": 44556.13949999999,
      "d": 173.81628125000134,
      "v": 110
    },
    {
      "midi": 67,
      "hit": false,
      "t": 44733.65400000004,
      "d": 232.98778124999808,
      "v": 110
    },
    {
      "midi": 71,
      "hit": false,
      "t": 44733.65400000004,
      "d": 232.98778124999808,
      "v": 110
    },
    {
      "midi": 52,
      "hit": false,
      "t": 44911.16849999999,
      "d": 85.05903124999895,
      "v": 110
    },
    {
      "midi": 69,
      "hit": false,
      "t": 44970.34000000004,
      "d": 232.98778124999808,
      "v": 110
    },
    {
      "midi": 72,
      "hit": false,
      "t": 44970.34000000004,
      "d": 232.98778124999808,
      "v": 110
    },
    {
      "midi": 55,
      "hit": false,
      "t": 45088.68299999999,
      "d": 173.81628125000134,
      "v": 110
    },
    {
      "midi": 72,
      "hit": false,
      "t": 45207.02600000004,
      "d": 232.98778124999808,
      "v": 110
    },
    {
      "midi": 76,
      "hit": false,
      "t": 45207.02600000004,
      "d": 232.98778124999808,
      "v": 110
    },
    {
      "midi": 54,
      "hit": false,
      "t": 45443.71199999999,
      "d": 173.81628125000134,
      "v": 110
    },
    {
      "midi": 69,
      "hit": false,
      "t": 45443.71200000004,
      "d": 883.8742812499986,
      "v": 110
    },
    {
      "midi": 74,
      "hit": false,
      "t": 45443.71200000004,
      "d": 883.8742812499986,
      "v": 110
    },
    {
      "midi": 50,
      "hit": false,
      "t": 45798.740999999995,
      "d": 85.05903124999895,
      "v": 110
    },
    {
      "midi": 54,
      "hit": false,
      "t": 45976.25549999999,
      "d": 173.81628125000134,
      "v": 110
    },
    {
      "midi": 50,
      "hit": false,
      "t": 46331.284499999994,
      "d": 85.05903124999895,
      "v": 110
    },
    {
      "midi": 69,
      "hit": false,
      "t": 46331.284500000045,
      "d": 173.81628125000134,
      "v": 110
    },
    {
      "midi": 72,
      "hit": false,
      "t": 46331.284500000045,
      "d": 173.81628125000134,
      "v": 110
    },
    {
      "midi": 54,
      "hit": false,
      "t": 46508.79899999999,
      "d": 173.81628125000134,
      "v": 110
    },
    {
      "midi": 68,
      "hit": false,
      "t": 46508.79900000005,
      "d": 173.81628125000134,
      "v": 110
    },
    {
      "midi": 71,
      "hit": false,
      "t": 46508.79900000005,
      "d": 173.81628125000134,
      "v": 110
    },
    {
      "midi": 69,
      "hit": false,
      "t": 46686.313500000055,
      "d": 173.81628125000134,
      "v": 110
    },
    {
      "midi": 72,
      "hit": false,
      "t": 46686.313500000055,
      "d": 173.81628125000134,
      "v": 110
    },
    {
      "midi": 55,
      "hit": false,
      "t": 46863.827999999994,
      "d": 173.81628125000134,
      "v": 110
    },
    {
      "midi": 71,
      "hit": false,
      "t": 46863.82800000006,
      "d": 85.05903124999895,
      "v": 110
    },
    {
      "midi": 79,
      "hit": false,
      "t": 46863.82800000006,
      "d": 85.05903124999895,
      "v": 110
    },
    {
      "midi": 50,
      "hit": false,
      "t": 47218.856999999996,
      "d": 85.05903124999895,
      "v": 110
    },
    {
      "midi": 71,
      "hit": false,
      "t": 47218.85700000006,
      "d": 85.05903124999895,
      "v": 110
    },
    {
      "midi": 79,
      "hit": false,
      "t": 47218.85700000006,
      "d": 85.05903124999895,
      "v": 110
    },
    {
      "midi": 55,
      "hit": false,
      "t": 47396.371499999994,
      "d": 173.81628125000134,
      "v": 110
    },
    {
      "midi": 50,
      "hit": false,
      "t": 47751.400499999996,
      "d": 85.05903124999895,
      "v": 110
    },
    {
      "midi": 55,
      "hit": false,
      "t": 47928.91499999999,
      "d": 173.81628125000134,
      "v": 110
    },
    {
      "midi": 48,
      "hit": false,
      "t": 48283.943999999996,
      "d": 85.05903124999895,
      "v": 110
    },
    {
      "midi": 72,
      "hit": false,
      "t": 48638.97300000006,
      "d": 85.05903124999895,
      "v": 110
    },
    {
      "midi": 76,
      "hit": false,
      "t": 48638.97300000006,
      "d": 85.05903124999895,
      "v": 110
    },
    {
      "midi": 52,
      "hit": false,
      "t": 48816.487499999996,
      "d": 85.05903124999895,
      "v": 110
    },
    {
      "midi": 74,
      "hit": false,
      "t": 48816.48750000006,
      "d": 85.05903124999895,
      "v": 110
    },
    {
      "midi": 77,
      "hit": false,
      "t": 48816.48750000006,
      "d": 85.05903124999895,
      "v": 110
    },
    {
      "midi": 72,
      "hit": false,
      "t": 48994.00200000006,
      "d": 85.05903124999895,
      "v": 110
    },
    {
      "midi": 76,
      "hit": false,
      "t": 48994.00200000006,
      "d": 85.05903124999895,
      "v": 110
    },
    {
      "midi": 52,
      "hit": false,
      "t": 49171.5165,
      "d": 85.05903124999895,
      "v": 110
    },
    {
      "midi": 71,
      "hit": false,
      "t": 49171.516500000056,
      "d": 85.05903124999895,
      "v": 110
    },
    {
      "midi": 74,
      "hit": false,
      "t": 49171.516500000056,
      "d": 85.05903124999895,
      "v": 110
    },
    {
      "midi": 55,
      "hit": false,
      "t": 49349.030999999995,
      "d": 85.05903124999895,
      "v": 110
    },
    {
      "midi": 69,
      "hit": false,
      "t": 49349.03100000005,
      "d": 85.05903124999895,
      "v": 110
    },
    {
      "midi": 72,
      "hit": false,
      "t": 49349.03100000005,
      "d": 85.05903124999895,
      "v": 110
    },
    {
      "midi": 67,
      "hit": false,
      "t": 49526.54550000005,
      "d": 85.05903124999895,
      "v": 110
    },
    {
      "midi": 71,
      "hit": false,
      "t": 49526.54550000005,
      "d": 85.05903124999895,
      "v": 110
    },
    {
      "midi": 53,
      "hit": false,
      "t": 49704.06,
      "d": 85.05903124999895,
      "v": 110
    },
    {
      "midi": 69,
      "hit": false,
      "t": 49704.06000000005,
      "d": 173.81628125000134,
      "v": 110
    },
    {
      "midi": 74,
      "hit": false,
      "t": 49704.06000000005,
      "d": 173.81628125000134,
      "v": 110
    },
    {
      "midi": 69,
      "hit": false,
      "t": 50059.08900000005,
      "d": 85.05903124999895,
      "v": 110
    },
    {
      "midi": 74,
      "hit": false,
      "t": 50059.08900000005,
      "d": 85.05903124999895,
      "v": 110
    },
    {
      "midi": 57,
      "hit": false,
      "t": 50236.6035,
      "d": 85.05903124999895,
      "v": 110
    },
    {
      "midi": 65,
      "hit": false,
      "t": 50236.60350000005,
      "d": 351.33078124999884,
      "v": 110
    },
    {
      "midi": 69,
      "hit": false,
      "t": 50236.60350000005,
      "d": 351.33078124999884,
      "v": 110
    },
    {
      "midi": 57,
      "hit": false,
      "t": 50591.6325,
      "d": 85.05903124999895,
      "v": 110
    },
    {
      "midi": 60,
      "hit": false,
      "t": 50769.147,
      "d": 85.05903124999895,
      "v": 110
    },
    {
      "midi": 55,
      "hit": false,
      "t": 51124.176,
      "d": 85.05903124999895,
      "v": 110
    },
    {
      "midi": 67,
      "hit": false,
      "t": 51479.205000000045,
      "d": 85.05903124999895,
      "v": 110
    },
    {
      "midi": 71,
      "hit": false,
      "t": 51479.205000000045,
      "d": 85.05903124999895,
      "v": 110
    },
    {
      "midi": 59,
      "hit": false,
      "t": 51656.7195,
      "d": 85.05903124999895,
      "v": 110
    },
    {
      "midi": 69,
      "hit": false,
      "t": 51656.71950000004,
      "d": 85.05903124999895,
      "v": 110
    },
    {
      "midi": 72,
      "hit": false,
      "t": 51656.71950000004,
      "d": 85.05903124999895,
      "v": 110
    },
    {
      "midi": 67,
      "hit": false,
      "t": 51834.23400000004,
      "d": 85.05903124999895,
      "v": 110
    },
    {
      "midi": 71,
      "hit": false,
      "t": 51834.23400000004,
      "d": 85.05903124999895,
      "v": 110
    },
    {
      "midi": 59,
      "hit": false,
      "t": 52011.7485,
      "d": 85.05903124999895,
      "v": 110
    },
    {
      "midi": 65,
      "hit": false,
      "t": 52011.74850000004,
      "d": 85.05903124999895,
      "v": 110
    },
    {
      "midi": 69,
      "hit": false,
      "t": 52011.74850000004,
      "d": 85.05903124999895,
      "v": 110
    },
    {
      "midi": 62,
      "hit": false,
      "t": 52189.263,
      "d": 85.05903124999895,
      "v": 110
    },
    {
      "midi": 64,
      "hit": false,
      "t": 52189.263000000035,
      "d": 85.05903124999895,
      "v": 110
    },
    {
      "midi": 67,
      "hit": false,
      "t": 52189.263000000035,
      "d": 85.05903124999895,
      "v": 110
    },
    {
      "midi": 62,
      "hit": false,
      "t": 52366.77750000003,
      "d": 85.05903124999895,
      "v": 110
    },
    {
      "midi": 65,
      "hit": false,
      "t": 52366.77750000003,
      "d": 85.05903124999895,
      "v": 110
    },
    {
      "midi": 48,
      "hit": false,
      "t": 52544.292,
      "d": 85.05903124999895,
      "v": 110
    },
    {
      "midi": 60,
      "hit": false,
      "t": 52544.29200000003,
      "d": 173.81628125000134,
      "v": 110
    },
    {
      "midi": 64,
      "hit": false,
      "t": 52544.29200000003,
      "d": 173.81628125000134,
      "v": 110
    },
    {
      "midi": 60,
      "hit": false,
      "t": 52899.32100000003,
      "d": 85.05903124999895,
      "v": 110
    },
    {
      "midi": 64,
      "hit": false,
      "t": 52899.32100000003,
      "d": 85.05903124999895,
      "v": 110
    },
    {
      "midi": 52,
      "hit": false,
      "t": 53076.8355,
      "d": 85.05903124999895,
      "v": 110
    },
    {
      "midi": 64,
      "hit": false,
      "t": 53076.83550000003,
      "d": 351.33078124999884,
      "v": 110
    },
    {
      "midi": 67,
      "hit": false,
      "t": 53076.83550000003,
      "d": 351.33078124999884,
      "v": 110
    },
    {
      "midi": 52,
      "hit": false,
      "t": 53431.8645,
      "d": 85.05903124999895,
      "v": 110
    },
    {
      "midi": 55,
      "hit": false,
      "t": 53609.379,
      "d": 85.05903124999895,
      "v": 110
    },
    {
      "midi": 48,
      "hit": false,
      "t": 53964.408,
      "d": 85.05903124999895,
      "v": 110
    },
    {
      "midi": 72,
      "hit": false,
      "t": 54319.43700000003,
      "d": 85.05903124999895,
      "v": 110
    },
    {
      "midi": 76,
      "hit": false,
      "t": 54319.43700000003,
      "d": 85.05903124999895,
      "v": 110
    },
    {
      "midi": 52,
      "hit": false,
      "t": 54496.9515,
      "d": 85.05903124999895,
      "v": 110
    },
    {
      "midi": 74,
      "hit": false,
      "t": 54496.951500000025,
      "d": 85.05903124999895,
      "v": 110
    },
    {
      "midi": 77,
      "hit": false,
      "t": 54496.951500000025,
      "d": 85.05903124999895,
      "v": 110
    },
    {
      "midi": 72,
      "hit": false,
      "t": 54674.46600000002,
      "d": 85.05903124999895,
      "v": 110
    },
    {
      "midi": 76,
      "hit": false,
      "t": 54674.46600000002,
      "d": 85.05903124999895,
      "v": 110
    },
    {
      "midi": 52,
      "hit": false,
      "t": 54851.980500000005,
      "d": 85.05903124999895,
      "v": 110
    },
    {
      "midi": 71,
      "hit": false,
      "t": 54851.98050000002,
      "d": 85.05903124999895,
      "v": 110
    },
    {
      "midi": 74,
      "hit": false,
      "t": 54851.98050000002,
      "d": 85.05903124999895,
      "v": 110
    },
    {
      "midi": 55,
      "hit": false,
      "t": 55029.495,
      "d": 85.05903124999895,
      "v": 110
    },
    {
      "midi": 69,
      "hit": false,
      "t": 55029.49500000002,
      "d": 85.05903124999895,
      "v": 110
    },
    {
      "midi": 72,
      "hit": false,
      "t": 55029.49500000002,
      "d": 85.05903124999895,
      "v": 110
    },
    {
      "midi": 67,
      "hit": false,
      "t": 55207.009500000015,
      "d": 85.05903124999895,
      "v": 110
    },
    {
      "midi": 71,
      "hit": false,
      "t": 55207.009500000015,
      "d": 85.05903124999895,
      "v": 110
    },
    {
      "midi": 53,
      "hit": false,
      "t": 55384.524000000005,
      "d": 85.05903124999895,
      "v": 110
    },
    {
      "midi": 69,
      "hit": false,
      "t": 55384.52400000001,
      "d": 173.81628125000134,
      "v": 110
    },
    {
      "midi": 74,
      "hit": false,
      "t": 55384.52400000001,
      "d": 173.81628125000134,
      "v": 110
    },
    {
      "midi": 69,
      "hit": false,
      "t": 55739.553000000014,
      "d": 85.05903124999895,
      "v": 110
    },
    {
      "midi": 74,
      "hit": false,
      "t": 55739.553000000014,
      "d": 85.05903124999895,
      "v": 110
    },
    {
      "midi": 57,
      "hit": false,
      "t": 55917.067500000005,
      "d": 85.05903124999895,
      "v": 110
    },
    {
      "midi": 65,
      "hit": false,
      "t": 55917.06750000001,
      "d": 351.33078124999884,
      "v": 110
    },
    {
      "midi": 69,
      "hit": false,
      "t": 55917.06750000001,
      "d": 351.33078124999884,
      "v": 110
    },
    {
      "midi": 57,
      "hit": false,
      "t": 56272.09650000001,
      "d": 85.05903124999895,
      "v": 110
    },
    {
      "midi": 60,
      "hit": false,
      "t": 56449.611000000004,
      "d": 85.05903124999895,
      "v": 110
    },
    {
      "midi": 55,
      "hit": false,
      "t": 56804.64000000001,
      "d": 85.05903124999895,
      "v": 110
    },
    {
      "midi": 67,
      "hit": false,
      "t": 57159.66900000001,
      "d": 85.05903124999895,
      "v": 110
    },
    {
      "midi": 71,
      "hit": false,
      "t": 57159.66900000001,
      "d": 85.05903124999895,
      "v": 110
    },
    {
      "midi": 69,
      "hit": false,
      "t": 57337.18350000001,
      "d": 85.05903124999895,
      "v": 110
    },
    {
      "midi": 72,
      "hit": false,
      "t": 57337.18350000001,
      "d": 85.05903124999895,
      "v": 110
    },
    {
      "midi": 59,
      "hit": false,
      "t": 57337.18350000001,
      "d": 85.05903124999895,
      "v": 110
    },
    {
      "midi": 67,
      "hit": false,
      "t": 57514.698000000004,
      "d": 85.05903124999895,
      "v": 110
    },
    {
      "midi": 71,
      "hit": false,
      "t": 57514.698000000004,
      "d": 85.05903124999895,
      "v": 110
    },
    {
      "midi": 65,
      "hit": false,
      "t": 57692.2125,
      "d": 85.05903124999895,
      "v": 110
    },
    {
      "midi": 69,
      "hit": false,
      "t": 57692.2125,
      "d": 85.05903124999895,
      "v": 110
    },
    {
      "midi": 59,
      "hit": false,
      "t": 57692.21250000001,
      "d": 85.05903124999895,
      "v": 110
    },
    {
      "midi": 64,
      "hit": false,
      "t": 57869.727,
      "d": 85.05903124999895,
      "v": 110
    },
    {
      "midi": 67,
      "hit": false,
      "t": 57869.727,
      "d": 85.05903124999895,
      "v": 110
    },
    {
      "midi": 62,
      "hit": false,
      "t": 57869.727000000006,
      "d": 85.05903124999895,
      "v": 110
    },
    {
      "midi": 62,
      "hit": false,
      "t": 58047.2415,
      "d": 85.05903124999895,
      "v": 110
    },
    {
      "midi": 65,
      "hit": false,
      "t": 58047.2415,
      "d": 85.05903124999895,
      "v": 110
    },
    {
      "midi": 60,
      "hit": false,
      "t": 58224.755999999994,
      "d": 173.81628125000134,
      "v": 110
    },
    {
      "midi": 64,
      "hit": false,
      "t": 58224.755999999994,
      "d": 173.81628125000134,
      "v": 110
    },
    {
      "midi": 48,
      "hit": false,
      "t": 58224.75600000001,
      "d": 85.05903124999895,
      "v": 110
    },
    {
      "midi": 60,
      "hit": false,
      "t": 58579.784999999996,
      "d": 85.05903124999895,
      "v": 110
    },
    {
      "midi": 64,
      "hit": false,
      "t": 58579.784999999996,
      "d": 85.05903124999895,
      "v": 110
    },
    {
      "midi": 64,
      "hit": false,
      "t": 58757.299499999994,
      "d": 351.33078124999884,
      "v": 110
    },
    {
      "midi": 67,
      "hit": false,
      "t": 58757.299499999994,
      "d": 351.33078124999884,
      "v": 110
    },
    {
      "midi": 52,
      "hit": false,
      "t": 58757.29950000001,
      "d": 85.05903124999895,
      "v": 110
    },
    {
      "midi": 52,
      "hit": false,
      "t": 59112.32850000001,
      "d": 85.05903124999895,
      "v": 110
    },
    {
      "midi": 55,
      "hit": false,
      "t": 59289.84300000001,
      "d": 85.05903124999895,
      "v": 110
    },
    {
      "midi": 53,
      "hit": false,
      "t": 59644.87200000001,
      "d": 85.05903124999895,
      "v": 110
    },
    {
      "midi": 60,
      "hit": false,
      "t": 59999.90099999999,
      "d": 85.05903124999895,
      "v": 110
    },
    {
      "midi": 65,
      "hit": false,
      "t": 59999.90099999999,
      "d": 85.05903124999895,
      "v": 110
    },
    {
      "midi": 53,
      "hit": false,
      "t": 59999.90100000001,
      "d": 85.05903124999895,
      "v": 110
    },
    {
      "midi": 62,
      "hit": false,
      "t": 60177.41549999999,
      "d": 85.05903124999895,
      "v": 110
    },
    {
      "midi": 67,
      "hit": false,
      "t": 60177.41549999999,
      "d": 85.05903124999895,
      "v": 110
    },
    {
      "midi": 56,
      "hit": false,
      "t": 60177.41550000001,
      "d": 85.05903124999895,
      "v": 110
    },
    {
      "midi": 68,
      "hit": false,
      "t": 60354.929999999986,
      "d": 85.05903124999895,
      "v": 110
    },
    {
      "midi": 77,
      "hit": false,
      "t": 60354.929999999986,
      "d": 85.05903124999895,
      "v": 110
    },
    {
      "midi": 72,
      "hit": false,
      "t": 60532.44449999998,
      "d": 85.05903124999895,
      "v": 110
    },
    {
      "midi": 80,
      "hit": false,
      "t": 60532.44449999998,
      "d": 85.05903124999895,
      "v": 110
    },
    {
      "midi": 56,
      "hit": false,
      "t": 60532.44450000001,
      "d": 85.05903124999895,
      "v": 110
    },
    {
      "midi": 70,
      "hit": false,
      "t": 60709.95899999998,
      "d": 85.05903124999895,
      "v": 110
    },
    {
      "midi": 79,
      "hit": false,
      "t": 60709.95899999998,
      "d": 85.05903124999895,
      "v": 110
    },
    {
      "midi": 60,
      "hit": false,
      "t": 60709.95900000001,
      "d": 85.05903124999895,
      "v": 110
    },
    {
      "midi": 68,
      "hit": false,
      "t": 60887.47349999998,
      "d": 85.05903124999895,
      "v": 110
    },
    {
      "midi": 77,
      "hit": false,
      "t": 60887.47349999998,
      "d": 85.05903124999895,
      "v": 110
    },
    {
      "midi": 67,
      "hit": false,
      "t": 61064.987999999976,
      "d": 173.81628125000134,
      "v": 110
    },
    {
      "midi": 76,
      "hit": false,
      "t": 61064.987999999976,
      "d": 173.81628125000134,
      "v": 110
    },
    {
      "midi": 48,
      "hit": false,
      "t": 61064.98800000001,
      "d": 173.81628125000134,
      "v": 110
    },
    {
      "midi": 48,
      "hit": false,
      "t": 61420.017000000014,
      "d": 85.05903124999895,
      "v": 110
    },
    {
      "midi": 64,
      "hit": false,
      "t": 61597.531499999975,
      "d": 262.57353124999645,
      "v": 110
    },
    {
      "midi": 72,
      "hit": false,
      "t": 61597.531499999975,
      "d": 262.57353124999645,
      "v": 110
    },
    {
      "midi": 52,
      "hit": false,
      "t": 61597.53150000001,
      "d": 85.05903124999895,
      "v": 110
    },
    {
      "midi": 52,
      "hit": false,
      "t": 61952.560500000014,
      "d": 85.05903124999895,
      "v": 110
    },
    {
      "midi": 55,
      "hit": false,
      "t": 62130.07500000001,
      "d": 85.05903124999895,
      "v": 110
    },
    {
      "midi": 53,
      "hit": false,
      "t": 62485.104000000014,
      "d": 85.05903124999895,
      "v": 110
    },
    {
      "midi": 60,
      "hit": false,
      "t": 62840.13299999997,
      "d": 85.05903124999895,
      "v": 110
    },
    {
      "midi": 65,
      "hit": false,
      "t": 62840.13299999997,
      "d": 85.05903124999895,
      "v": 110
    },
    {
      "midi": 53,
      "hit": false,
      "t": 62840.133000000016,
      "d": 85.05903124999895,
      "v": 110
    },
    {
      "midi": 62,
      "hit": false,
      "t": 63017.64749999997,
      "d": 85.05903124999895,
      "v": 110
    },
    {
      "midi": 67,
      "hit": false,
      "t": 63017.64749999997,
      "d": 85.05903124999895,
      "v": 110
    },
    {
      "midi": 56,
      "hit": false,
      "t": 63017.647500000014,
      "d": 85.05903124999895,
      "v": 110
    },
    {
      "midi": 68,
      "hit": false,
      "t": 63195.16199999997,
      "d": 85.05903124999895,
      "v": 110
    },
    {
      "midi": 77,
      "hit": false,
      "t": 63195.16199999997,
      "d": 85.05903124999895,
      "v": 110
    },
    {
      "midi": 72,
      "hit": false,
      "t": 63372.676499999965,
      "d": 85.05903124999895,
      "v": 110
    },
    {
      "midi": 80,
      "hit": false,
      "t": 63372.676499999965,
      "d": 85.05903124999895,
      "v": 110
    },
    {
      "midi": 56,
      "hit": false,
      "t": 63372.676500000016,
      "d": 85.05903124999895,
      "v": 110
    },
    {
      "midi": 70,
      "hit": false,
      "t": 63550.19099999996,
      "d": 85.05903124999895,
      "v": 110
    },
    {
      "midi": 79,
      "hit": false,
      "t": 63550.19099999996,
      "d": 85.05903124999895,
      "v": 110
    },
    {
      "midi": 60,
      "hit": false,
      "t": 63550.19100000001,
      "d": 85.05903124999895,
      "v": 110
    },
    {
      "midi": 68,
      "hit": false,
      "t": 63727.70549999996,
      "d": 85.05903124999895,
      "v": 110
    },
    {
      "midi": 77,
      "hit": false,
      "t": 63727.70549999996,
      "d": 85.05903124999895,
      "v": 110
    },
    {
      "midi": 67,
      "hit": false,
      "t": 63905.21999999996,
      "d": 173.81628125000134,
      "v": 110
    },
    {
      "midi": 76,
      "hit": false,
      "t": 63905.21999999996,
      "d": 173.81628125000134,
      "v": 110
    },
    {
      "midi": 48,
      "hit": false,
      "t": 63905.220000000016,
      "d": 173.81628125000134,
      "v": 110
    },
    {
      "midi": 48,
      "hit": false,
      "t": 64260.24900000002,
      "d": 85.05903124999895,
      "v": 110
    },
    {
      "midi": 64,
      "hit": false,
      "t": 64437.76349999996,
      "d": 262.57353124999645,
      "v": 110
    },
    {
      "midi": 72,
      "hit": false,
      "t": 64437.76349999996,
      "d": 262.57353124999645,
      "v": 110
    },
    {
      "midi": 52,
      "hit": false,
      "t": 64437.763500000015,
      "d": 85.05903124999895,
      "v": 110
    },
    {
      "midi": 52,
      "hit": false,
      "t": 64792.79250000002,
      "d": 85.05903124999895,
      "v": 110
    },
    {
      "midi": 55,
      "hit": false,
      "t": 64970.307000000015,
      "d": 85.05903124999895,
      "v": 110
    },
    {
      "midi": 53,
      "hit": false,
      "t": 65325.33600000002,
      "d": 85.05903124999895,
      "v": 110
    },
    {
      "midi": 60,
      "hit": false,
      "t": 65680.36499999995,
      "d": 85.05903124999895,
      "v": 110
    },
    {
      "midi": 65,
      "hit": false,
      "t": 65680.36499999995,
      "d": 85.05903124999895,
      "v": 110
    },
    {
      "midi": 53,
      "hit": false,
      "t": 65680.36500000002,
      "d": 85.05903124999895,
      "v": 110
    },
    {
      "midi": 62,
      "hit": false,
      "t": 65857.87949999995,
      "d": 85.05903124999895,
      "v": 110
    },
    {
      "midi": 67,
      "hit": false,
      "t": 65857.87949999995,
      "d": 85.05903124999895,
      "v": 110
    },
    {
      "midi": 56,
      "hit": false,
      "t": 65857.87950000002,
      "d": 85.05903124999895,
      "v": 110
    },
    {
      "midi": 68,
      "hit": false,
      "t": 66035.39399999996,
      "d": 85.05903124999895,
      "v": 110
    },
    {
      "midi": 77,
      "hit": false,
      "t": 66035.39399999996,
      "d": 85.05903124999895,
      "v": 110
    },
    {
      "midi": 72,
      "hit": false,
      "t": 66212.90849999996,
      "d": 85.05903124999895,
      "v": 110
    },
    {
      "midi": 80,
      "hit": false,
      "t": 66212.90849999996,
      "d": 85.05903124999895,
      "v": 110
    },
    {
      "midi": 56,
      "hit": false,
      "t": 66212.90850000002,
      "d": 85.05903124999895,
      "v": 110
    },
    {
      "midi": 70,
      "hit": false,
      "t": 66390.42299999997,
      "d": 85.05903124999895,
      "v": 110
    },
    {
      "midi": 79,
      "hit": false,
      "t": 66390.42299999997,
      "d": 85.05903124999895,
      "v": 110
    },
    {
      "midi": 60,
      "hit": false,
      "t": 66390.42300000002,
      "d": 85.05903124999895,
      "v": 110
    },
    {
      "midi": 68,
      "hit": false,
      "t": 66567.93749999997,
      "d": 85.05903124999895,
      "v": 110
    },
    {
      "midi": 77,
      "hit": false,
      "t": 66567.93749999997,
      "d": 85.05903124999895,
      "v": 110
    },
    {
      "midi": 67,
      "hit": false,
      "t": 66745.45199999998,
      "d": 173.81628124999406,
      "v": 110
    },
    {
      "midi": 76,
      "hit": false,
      "t": 66745.45199999998,
      "d": 173.81628124999406,
      "v": 110
    },
    {
      "midi": 52,
      "hit": false,
      "t": 66745.45200000002,
      "d": 173.81628124999406,
      "v": 110
    },
    {
      "midi": 52,
      "hit": false,
      "t": 67100.48100000001,
      "d": 85.05903124999895,
      "v": 110
    },
    {
      "midi": 72,
      "hit": false,
      "t": 67277.99549999998,
      "d": 262.5735312500037,
      "v": 110
    },
    {
      "midi": 79,
      "hit": false,
      "t": 67277.99549999998,
      "d": 262.5735312500037,
      "v": 110
    },
    {
      "midi": 55,
      "hit": false,
      "t": 67277.99550000002,
      "d": 85.05903124999895,
      "v": 110
    },
    {
      "midi": 55,
      "hit": false,
      "t": 67633.02450000001,
      "d": 85.05903124999895,
      "v": 110
    },
    {
      "midi": 60,
      "hit": false,
      "t": 67810.53900000002,
      "d": 85.05903124999895,
      "v": 110
    },
    {
      "midi": 51,
      "hit": false,
      "t": 68165.56800000001,
      "d": 173.81628124999406,
      "v": 110
    },
    {
      "midi": 65,
      "hit": false,
      "t": 68520.59699999998,
      "d": 85.05903124999895,
      "v": 110
    },
    {
      "midi": 69,
      "hit": false,
      "t": 68520.59699999998,
      "d": 85.05903124999895,
      "v": 110
    },
    {
      "midi": 51,
      "hit": false,
      "t": 68520.59700000001,
      "d": 85.05903124999895,
      "v": 110
    },
    {
      "midi": 64,
      "hit": false,
      "t": 68698.11149999998,
      "d": 85.05903124999895,
      "v": 110
    },
    {
      "midi": 68,
      "hit": false,
      "t": 68698.11149999998,
      "d": 85.05903124999895,
      "v": 110
    },
    {
      "midi": 55,
      "hit": false,
      "t": 68698.11150000001,
      "d": 85.05903124999895,
      "v": 110
    },
    {
      "midi": 65,
      "hit": false,
      "t": 68875.62599999999,
      "d": 85.05903124999895,
      "v": 110
    },
    {
      "midi": 69,
      "hit": false,
      "t": 68875.62599999999,
      "d": 85.05903124999895,
      "v": 110
    },
    {
      "midi": 67,
      "hit": false,
      "t": 69053.1405,
      "d": 85.05903124999895,
      "v": 110
    },
    {
      "midi": 71,
      "hit": false,
      "t": 69053.1405,
      "d": 85.05903124999895,
      "v": 110
    },
    {
      "midi": 55,
      "hit": false,
      "t": 69053.14050000001,
      "d": 85.05903124999895,
      "v": 110
    },
    {
      "midi": 69,
      "hit": false,
      "t": 69230.655,
      "d": 85.05903124999895,
      "v": 110
    },
    {
      "midi": 72,
      "hit": false,
      "t": 69230.655,
      "d": 85.05903124999895,
      "v": 110
    },
    {
      "midi": 60,
      "hit": false,
      "t": 69230.65500000001,
      "d": 85.05903124999895,
      "v": 110
    },
    {
      "midi": 65,
      "hit": false,
      "t": 69408.1695,
      "d": 85.05903124999895,
      "v": 110
    },
    {
      "midi": 69,
      "hit": false,
      "t": 69408.1695,
      "d": 85.05903124999895,
      "v": 110
    },
    {
      "midi": 71,
      "hit": false,
      "t": 69585.68400000001,
      "d": 295.85749999999825,
      "v": 110
    },
    {
      "midi": 74,
      "hit": false,
      "t": 69585.68400000001,
      "d": 295.85749999999825,
      "v": 110
    },
    {
      "midi": 50,
      "hit": false,
      "t": 69585.68400000001,
      "d": 173.81628124999406,
      "v": 110
    },
    {
      "midi": 50,
      "hit": false,
      "t": 69940.713,
      "d": 85.05903124999895,
      "v": 110
    },
    {
      "midi": 55,
      "hit": false,
      "t": 70118.22750000001,
      "d": 85.05903124999895,
      "v": 110
    },
    {
      "midi": 55,
      "hit": false,
      "t": 70473.2565,
      "d": 85.05903124999895,
      "v": 110
    },
    {
      "midi": 67,
      "hit": false,
      "t": 70650.77100000001,
      "d": 295.85749999999825,
      "v": 110
    },
    {
      "midi": 55,
      "hit": false,
      "t": 70650.77100000001,
      "d": 85.05903124999895,
      "v": 110
    },
    {
      "midi": 72,
      "hit": false,
      "t": 71005.8,
      "d": 883.8742812499986,
      "v": 110
    },
    {
      "midi": 76,
      "hit": false,
      "t": 71005.8,
      "d": 883.8742812499986,
      "v": 110
    },
    {
      "midi": 60,
      "hit": false,
      "t": 71005.8,
      "d": 173.81628124999406,
      "v": 110
    },
    {
      "midi": 55,
      "hit": false,
      "t": 71360.829,
      "d": 85.05903124999895,
      "v": 110
    },
    {
      "midi": 60,
      "hit": false,
      "t": 71538.3435,
      "d": 173.81628124999406,
      "v": 110
    },
    {
      "midi": 67,
      "hit": false,
      "t": 71893.3725,
      "d": 173.81628124999406,
      "v": 110
    },
    {
      "midi": 74,
      "hit": false,
      "t": 71893.3725,
      "d": 173.81628124999406,
      "v": 110
    },
    {
      "midi": 55,
      "hit": false,
      "t": 71893.3725,
      "d": 85.05903124999895,
      "v": 110
    },
    {
      "midi": 72,
      "hit": false,
      "t": 72070.88699999999,
      "d": 173.81628124999406,
      "v": 110
    },
    {
      "midi": 76,
      "hit": false,
      "t": 72070.88699999999,
      "d": 173.81628124999406,
      "v": 110
    },
    {
      "midi": 60,
      "hit": false,
      "t": 72070.887,
      "d": 173.81628124999406,
      "v": 110
    },
    {
      "midi": 74,
      "hit": false,
      "t": 72248.40149999998,
      "d": 173.81628124999406,
      "v": 110
    },
    {
      "midi": 77,
      "hit": false,
      "t": 72248.40149999998,
      "d": 173.81628124999406,
      "v": 110
    },
    {
      "midi": 74,
      "hit": false,
      "t": 72425.91599999997,
      "d": 976.3297500000044,
      "v": 110
    },
    {
      "midi": 79,
      "hit": false,
      "t": 72425.91599999997,
      "d": 976.3297500000044,
      "v": 110
    },
    {
      "midi": 59,
      "hit": false,
      "t": 72425.916,
      "d": 173.81628124999406,
      "v": 110
    },
    {
      "midi": 55,
      "hit": false,
      "t": 72780.94499999999,
      "d": 85.05903124999895,
      "v": 110
    },
    {
      "midi": 59,
      "hit": false,
      "t": 72958.4595,
      "d": 173.81628124999406,
      "v": 110
    },
    {
      "midi": 55,
      "hit": false,
      "t": 73313.48849999999,
      "d": 85.05903124999895,
      "v": 110
    },
    {
      "midi": 74,
      "hit": false,
      "t": 73491.00299999997,
      "d": 295.85749999999825,
      "v": 110
    },
    {
      "midi": 81,
      "hit": false,
      "t": 73491.00299999997,
      "d": 295.85749999999825,
      "v": 110
    },
    {
      "midi": 59,
      "hit": false,
      "t": 73491.003,
      "d": 173.81628124999406,
      "v": 110
    },
    {
      "midi": 74,
      "hit": false,
      "t": 73846.03199999996,
      "d": 883.8742812499986,
      "v": 110
    },
    {
      "midi": 79,
      "hit": false,
      "t": 73846.03199999996,
      "d": 883.8742812499986,
      "v": 110
    },
    {
      "midi": 58,
      "hit": false,
      "t": 73846.03199999999,
      "d": 173.81628124999406,
      "v": 110
    },
    {
      "midi": 55,
      "hit": false,
      "t": 74201.06099999999,
      "d": 85.05903124999895,
      "v": 110
    },
    {
      "midi": 58,
      "hit": false,
      "t": 74378.57549999999,
      "d": 173.81628124999406,
      "v": 110
    },
    {
      "midi": 74,
      "hit": false,
      "t": 74733.60449999996,
      "d": 173.81628124999406,
      "v": 110
    },
    {
      "midi": 77,
      "hit": false,
      "t": 74733.60449999996,
      "d": 173.81628124999406,
      "v": 110
    },
    {
      "midi": 55,
      "hit": false,
      "t": 74733.60449999999,
      "d": 85.05903124999895,
      "v": 110
    },
    {
      "midi": 72,
      "hit": false,
      "t": 74911.11899999995,
      "d": 173.81628124999406,
      "v": 110
    },
    {
      "midi": 76,
      "hit": false,
      "t": 74911.11899999995,
      "d": 173.81628124999406,
      "v": 110
    },
    {
      "midi": 58,
      "hit": false,
      "t": 74911.11899999999,
      "d": 173.81628124999406,
      "v": 110
    },
    {
      "midi": 74,
      "hit": false,
      "t": 75088.63349999994,
      "d": 173.81628124999406,
      "v": 110
    },
    {
      "midi": 77,
      "hit": false,
      "t": 75088.63349999994,
      "d": 173.81628124999406,
      "v": 110
    },
    {
      "midi": 69,
      "hit": false,
      "t": 75266.14799999993,
      "d": 976.3297500000044,
      "v": 110
    },
    {
      "midi": 72,
      "hit": false,
      "t": 75266.14799999993,
      "d": 976.3297500000044,
      "v": 110
    },
    {
      "midi": 57,
      "hit": false,
      "t": 75266.14799999999,
      "d": 173.81628124999406,
      "v": 110
    },
    {
      "midi": 53,
      "hit": false,
      "t": 75621.17699999998,
      "d": 85.05903124999895,
      "v": 110
    },
    {
      "midi": 57,
      "hit": false,
      "t": 75798.69149999999,
      "d": 173.81628124999406,
      "v": 110
    },
    {
      "midi": 53,
      "hit": false,
      "t": 76153.72049999998,
      "d": 85.05903124999895,
      "v": 110
    },
    {
      "midi": 74,
      "hit": false,
      "t": 76331.23499999993,
      "d": 295.85749999999825,
      "v": 110
    },
    {
      "midi": 79,
      "hit": false,
      "t": 76331.23499999993,
      "d": 295.85749999999825,
      "v": 110
    },
    {
      "midi": 57,
      "hit": false,
      "t": 76331.23499999999,
      "d": 173.81628124999406,
      "v": 110
    },
    {
      "midi": 72,
      "hit": false,
      "t": 76686.26399999992,
      "d": 883.8742812499986,
      "v": 110
    },
    {
      "midi": 77,
      "hit": false,
      "t": 76686.26399999992,
      "d": 883.8742812499986,
      "v": 110
    },
    {
      "midi": 56,
      "hit": false,
      "t": 76686.26399999998,
      "d": 173.81628124999406,
      "v": 110
    },
    {
      "midi": 53,
      "hit": false,
      "t": 77041.29299999998,
      "d": 85.05903124999895,
      "v": 110
    },
    {
      "midi": 56,
      "hit": false,
      "t": 77218.80749999998,
      "d": 173.81628124999406,
      "v": 110
    },
    {
      "midi": 72,
      "hit": false,
      "t": 77573.83649999992,
      "d": 173.81628124999406,
      "v": 110
    },
    {
      "midi": 76,
      "hit": false,
      "t": 77573.83649999992,
      "d": 173.81628124999406,
      "v": 110
    },
    {
      "midi": 53,
      "hit": false,
      "t": 77573.83649999998,
      "d": 85.05903124999895,
      "v": 110
    },
    {
      "midi": 71,
      "hit": false,
      "t": 77751.35099999991,
      "d": 173.81628124999406,
      "v": 110
    },
    {
      "midi": 74,
      "hit": false,
      "t": 77751.35099999991,
      "d": 173.81628124999406,
      "v": 110
    },
    {
      "midi": 56,
      "hit": false,
      "t": 77751.35099999998,
      "d": 173.81628124999406,
      "v": 110
    },
    {
      "midi": 72,
      "hit": false,
      "t": 77928.8654999999,
      "d": 173.81628124999406,
      "v": 110
    },
    {
      "midi": 76,
      "hit": false,
      "t": 77928.8654999999,
      "d": 173.81628124999406,
      "v": 110
    },
    {
      "midi": 67,
      "hit": false,
      "t": 78106.37999999989,
      "d": 621.3007499999949,
      "v": 110
    },
    {
      "midi": 72,
      "hit": false,
      "t": 78106.37999999989,
      "d": 621.3007499999949,
      "v": 110
    },
    {
      "midi": 55,
      "hit": false,
      "t": 78106.37999999998,
      "d": 173.81628124999406,
      "v": 110
    },
    {
      "midi": 52,
      "hit": false,
      "t": 78461.40899999997,
      "d": 85.05903124999895,
      "v": 110
    },
    {
      "midi": 55,
      "hit": false,
      "t": 78638.92349999998,
      "d": 173.81628124999406,
      "v": 110
    },
    {
      "midi": 67,
      "hit": false,
      "t": 78816.43799999988,
      "d": 232.98778125000536,
      "v": 110
    },
    {
      "midi": 71,
      "hit": false,
      "t": 78816.43799999988,
      "d": 232.98778125000536,
      "v": 110
    },
    {
      "midi": 52,
      "hit": false,
      "t": 78993.95249999997,
      "d": 85.05903124999895,
      "v": 110
    },
    {
      "midi": 69,
      "hit": false,
      "t": 79053.12399999988,
      "d": 232.98778125000536,
      "v": 110
    },
    {
      "midi": 72,
      "hit": false,
      "t": 79053.12399999988,
      "d": 232.98778125000536,
      "v": 110
    },
    {
      "midi": 55,
      "hit": false,
      "t": 79171.46699999998,
      "d": 173.81628124999406,
      "v": 110
    },
    {
      "midi": 72,
      "hit": false,
      "t": 79289.80999999988,
      "d": 232.98778125000536,
      "v": 110
    },
    {
      "midi": 76,
      "hit": false,
      "t": 79289.80999999988,
      "d": 232.98778125000536,
      "v": 110
    },
    {
      "midi": 69,
      "hit": false,
      "t": 79526.49599999988,
      "d": 883.8742812499986,
      "v": 110
    },
    {
      "midi": 74,
      "hit": false,
      "t": 79526.49599999988,
      "d": 883.8742812499986,
      "v": 110
    },
    {
      "midi": 54,
      "hit": false,
      "t": 79526.49599999997,
      "d": 173.81628124999406,
      "v": 110
    },
    {
      "midi": 50,
      "hit": false,
      "t": 79881.52499999997,
      "d": 85.05903124999895,
      "v": 110
    },
    {
      "midi": 54,
      "hit": false,
      "t": 80059.03949999997,
      "d": 173.81628124999406,
      "v": 110
    },
    {
      "midi": 69,
      "hit": false,
      "t": 80414.06849999988,
      "d": 173.81628124999406,
      "v": 110
    },
    {
      "midi": 72,
      "hit": false,
      "t": 80414.06849999988,
      "d": 173.81628124999406,
      "v": 110
    },
    {
      "midi": 50,
      "hit": false,
      "t": 80414.06849999996,
      "d": 85.05903124999895,
      "v": 110
    },
    {
      "midi": 68,
      "hit": false,
      "t": 80591.58299999987,
      "d": 173.81628124999406,
      "v": 110
    },
    {
      "midi": 71,
      "hit": false,
      "t": 80591.58299999987,
      "d": 173.81628124999406,
      "v": 110
    },
    {
      "midi": 54,
      "hit": false,
      "t": 80591.58299999997,
      "d": 173.81628124999406,
      "v": 110
    },
    {
      "midi": 69,
      "hit": false,
      "t": 80769.09749999986,
      "d": 173.81628124999406,
      "v": 110
    },
    {
      "midi": 72,
      "hit": false,
      "t": 80769.09749999986,
      "d": 173.81628124999406,
      "v": 110
    },
    {
      "midi": 71,
      "hit": false,
      "t": 80946.61199999985,
      "d": 976.3297500000044,
      "v": 110
    },
    {
      "midi": 74,
      "hit": false,
      "t": 80946.61199999985,
      "d": 976.3297500000044,
      "v": 110
    },
    {
      "midi": 55,
      "hit": false,
      "t": 80946.61199999996,
      "d": 173.81628124999406,
      "v": 110
    },
    {
      "midi": 50,
      "hit": false,
      "t": 81301.64099999996,
      "d": 85.05903124999895,
      "v": 110
    },
    {
      "midi": 55,
      "hit": false,
      "t": 81479.15549999996,
      "d": 173.81628124999406,
      "v": 110
    },
    {
      "midi": 50,
      "hit": false,
      "t": 81834.18449999996,
      "d": 85.05903124999895,
      "v": 110
    },
    {
      "midi": 67,
      "hit": false,
      "t": 82011.69899999985,
      "d": 295.85749999999825,
      "v": 110
    },
    {
      "midi": 55,
      "hit": false,
      "t": 82011.69899999996,
      "d": 173.81628124999406,
      "v": 110
    },
    {
      "midi": 72,
      "hit": false,
      "t": 82366.72799999984,
      "d": 883.8742812499986,
      "v": 110
    },
    {
      "midi": 76,
      "hit": false,
      "t": 82366.72799999984,
      "d": 883.8742812499986,
      "v": 110
    },
    {
      "midi": 60,
      "hit": false,
      "t": 82366.72799999996,
      "d": 173.81628124999406,
      "v": 110
    },
    {
      "midi": 55,
      "hit": false,
      "t": 82721.75699999995,
      "d": 85.05903124999895,
      "v": 110
    },
    {
      "midi": 60,
      "hit": false,
      "t": 82899.27149999996,
      "d": 173.81628124999406,
      "v": 110
    },
    {
      "midi": 67,
      "hit": false,
      "t": 83254.30049999984,
      "d": 173.81628124999406,
      "v": 110
    },
    {
      "midi": 74,
      "hit": false,
      "t": 83254.30049999984,
      "d": 173.81628124999406,
      "v": 110
    },
    {
      "midi": 55,
      "hit": false,
      "t": 83254.30049999995,
      "d": 85.05903124999895,
      "v": 110
    },
    {
      "midi": 72,
      "hit": false,
      "t": 83431.81499999983,
      "d": 173.81628124999406,
      "v": 110
    },
    {
      "midi": 76,
      "hit": false,
      "t": 83431.81499999983,
      "d": 173.81628124999406,
      "v": 110
    },
    {
      "midi": 60,
      "hit": false,
      "t": 83431.81499999996,
      "d": 173.81628124999406,
      "v": 110
    },
    {
      "midi": 74,
      "hit": false,
      "t": 83609.32949999982,
      "d": 173.81628124999406,
      "v": 110
    },
    {
      "midi": 77,
      "hit": false,
      "t": 83609.32949999982,
      "d": 173.81628124999406,
      "v": 110
    },
    {
      "midi": 74,
      "hit": false,
      "t": 83786.84399999981,
      "d": 976.3297500000044,
      "v": 110
    },
    {
      "midi": 79,
      "hit": false,
      "t": 83786.84399999981,
      "d": 976.3297500000044,
      "v": 110
    },
    {
      "midi": 59,
      "hit": false,
      "t": 83786.84399999995,
      "d": 173.81628124999406,
      "v": 110
    },
    {
      "midi": 55,
      "hit": false,
      "t": 84141.87299999995,
      "d": 85.05903124999895,
      "v": 110
    },
    {
      "midi": 59,
      "hit": false,
      "t": 84319.38749999995,
      "d": 173.81628124999406,
      "v": 110
    },
    {
      "midi": 55,
      "hit": false,
      "t": 84674.41649999995,
      "d": 85.05903124999895,
      "v": 110
    },
    {
      "midi": 74,
      "hit": false,
      "t": 84851.93099999981,
      "d": 295.85749999999825,
      "v": 110
    },
    {
      "midi": 81,
      "hit": false,
      "t": 84851.93099999981,
      "d": 295.85749999999825,
      "v": 110
    },
    {
      "midi": 59,
      "hit": false,
      "t": 84851.93099999995,
      "d": 173.81628124999406,
      "v": 110
    },
    {
      "midi": 74,
      "hit": false,
      "t": 85206.9599999998,
      "d": 883.8742812499986,
      "v": 110
    },
    {
      "midi": 79,
      "hit": false,
      "t": 85206.9599999998,
      "d": 883.8742812499986,
      "v": 110
    },
    {
      "midi": 58,
      "hit": false,
      "t": 85206.95999999995,
      "d": 173.81628124999406,
      "v": 110
    },
    {
      "midi": 55,
      "hit": false,
      "t": 85561.98899999994,
      "d": 85.05903124999895,
      "v": 110
    },
    {
      "midi": 58,
      "hit": false,
      "t": 85739.50349999995,
      "d": 173.81628124999406,
      "v": 110
    },
    {
      "midi": 74,
      "hit": false,
      "t": 86094.5324999998,
      "d": 173.81628124999406,
      "v": 110
    },
    {
      "midi": 77,
      "hit": false,
      "t": 86094.5324999998,
      "d": 173.81628124999406,
      "v": 110
    },
    {
      "midi": 55,
      "hit": false,
      "t": 86094.53249999994,
      "d": 85.05903124999895,
      "v": 110
    },
    {
      "midi": 72,
      "hit": false,
      "t": 86272.04699999979,
      "d": 173.81628124999406,
      "v": 110
    },
    {
      "midi": 76,
      "hit": false,
      "t": 86272.04699999979,
      "d": 173.81628124999406,
      "v": 110
    },
    {
      "midi": 58,
      "hit": false,
      "t": 86272.04699999995,
      "d": 173.81628124999406,
      "v": 110
    },
    {
      "midi": 74,
      "hit": false,
      "t": 86449.56149999978,
      "d": 173.81628124999406,
      "v": 110
    },
    {
      "midi": 77,
      "hit": false,
      "t": 86449.56149999978,
      "d": 173.81628124999406,
      "v": 110
    },
    {
      "midi": 69,
      "hit": false,
      "t": 86627.07599999977,
      "d": 976.3297500000044,
      "v": 110
    },
    {
      "midi": 72,
      "hit": false,
      "t": 86627.07599999977,
      "d": 976.3297500000044,
      "v": 110
    },
    {
      "midi": 57,
      "hit": false,
      "t": 86627.07599999994,
      "d": 173.81628124999406,
      "v": 110
    },
    {
      "midi": 53,
      "hit": false,
      "t": 86982.10499999994,
      "d": 85.05903124999895,
      "v": 110
    },
    {
      "midi": 57,
      "hit": false,
      "t": 87159.61949999994,
      "d": 173.81628124999406,
      "v": 110
    },
    {
      "midi": 53,
      "hit": false,
      "t": 87514.64849999994,
      "d": 85.05903124999895,
      "v": 110
    },
    {
      "midi": 74,
      "hit": false,
      "t": 87692.16299999977,
      "d": 295.85749999999825,
      "v": 110
    },
    {
      "midi": 79,
      "hit": false,
      "t": 87692.16299999977,
      "d": 295.85749999999825,
      "v": 110
    },
    {
      "midi": 57,
      "hit": false,
      "t": 87692.16299999994,
      "d": 173.81628124999406,
      "v": 110
    },
    {
      "midi": 72,
      "hit": false,
      "t": 88047.19199999976,
      "d": 883.8742812499986,
      "v": 110
    },
    {
      "midi": 77,
      "hit": false,
      "t": 88047.19199999976,
      "d": 883.8742812499986,
      "v": 110
    },
    {
      "midi": 56,
      "hit": false,
      "t": 88047.19199999994,
      "d": 173.81628124999406,
      "v": 110
    },
    {
      "midi": 53,
      "hit": false,
      "t": 88402.22099999993,
      "d": 85.05903124999895,
      "v": 110
    },
    {
      "midi": 56,
      "hit": false,
      "t": 88579.73549999994,
      "d": 173.81628124999406,
      "v": 110
    },
    {
      "midi": 72,
      "hit": false,
      "t": 88934.76449999976,
      "d": 173.81628124999406,
      "v": 110
    },
    {
      "midi": 76,
      "hit": false,
      "t": 88934.76449999976,
      "d": 173.81628124999406,
      "v": 110
    },
    {
      "midi": 53,
      "hit": false,
      "t": 88934.76449999993,
      "d": 85.05903124999895,
      "v": 110
    },
    {
      "midi": 71,
      "hit": false,
      "t": 89112.27899999975,
      "d": 173.81628124999406,
      "v": 110
    },
    {
      "midi": 74,
      "hit": false,
      "t": 89112.27899999975,
      "d": 173.81628124999406,
      "v": 110
    },
    {
      "midi": 56,
      "hit": false,
      "t": 89112.27899999994,
      "d": 173.81628124999406,
      "v": 110
    },
    {
      "midi": 72,
      "hit": false,
      "t": 89289.79349999974,
      "d": 173.81628124999406,
      "v": 110
    },
    {
      "midi": 76,
      "hit": false,
      "t": 89289.79349999974,
      "d": 173.81628124999406,
      "v": 110
    },
    {
      "midi": 67,
      "hit": false,
      "t": 89467.30799999973,
      "d": 621.3007499999949,
      "v": 110
    },
    {
      "midi": 72,
      "hit": false,
      "t": 89467.30799999973,
      "d": 621.3007499999949,
      "v": 110
    },
    {
      "midi": 55,
      "hit": false,
      "t": 89467.30799999993,
      "d": 173.81628124999406,
      "v": 110
    },
    {
      "midi": 52,
      "hit": false,
      "t": 89822.33699999993,
      "d": 85.05903124999895,
      "v": 110
    },
    {
      "midi": 55,
      "hit": false,
      "t": 89999.85149999993,
      "d": 173.81628124999406,
      "v": 110
    },
    {
      "midi": 67,
      "hit": false,
      "t": 90177.36599999972,
      "d": 232.98778125000536,
      "v": 110
    },
    {
      "midi": 71,
      "hit": false,
      "t": 90177.36599999972,
      "d": 232.98778125000536,
      "v": 110
    },
    {
      "midi": 52,
      "hit": false,
      "t": 90354.88049999993,
      "d": 85.05903124999895,
      "v": 110
    },
    {
      "midi": 69,
      "hit": false,
      "t": 90414.05199999972,
      "d": 232.98778125000536,
      "v": 110
    },
    {
      "midi": 72,
      "hit": false,
      "t": 90414.05199999972,
      "d": 232.98778125000536,
      "v": 110
    },
    {
      "midi": 55,
      "hit": false,
      "t": 90532.39499999993,
      "d": 173.81628124999406,
      "v": 110
    },
    {
      "midi": 72,
      "hit": false,
      "t": 90650.73799999972,
      "d": 232.98778125000536,
      "v": 110
    },
    {
      "midi": 76,
      "hit": false,
      "t": 90650.73799999972,
      "d": 232.98778125000536,
      "v": 110
    },
    {
      "midi": 69,
      "hit": false,
      "t": 90887.42399999972,
      "d": 883.8742812499986,
      "v": 110
    },
    {
      "midi": 74,
      "hit": false,
      "t": 90887.42399999972,
      "d": 883.8742812499986,
      "v": 110
    },
    {
      "midi": 54,
      "hit": false,
      "t": 90887.42399999993,
      "d": 173.81628124999406,
      "v": 110
    },
    {
      "midi": 50,
      "hit": false,
      "t": 91242.45299999992,
      "d": 85.05903124999895,
      "v": 110
    },
    {
      "midi": 54,
      "hit": false,
      "t": 91419.96749999993,
      "d": 173.81628124999406,
      "v": 110
    },
    {
      "midi": 69,
      "hit": false,
      "t": 91774.99649999972,
      "d": 173.81628124999406,
      "v": 110
    },
    {
      "midi": 72,
      "hit": false,
      "t": 91774.99649999972,
      "d": 173.81628124999406,
      "v": 110
    },
    {
      "midi": 50,
      "hit": false,
      "t": 91774.99649999992,
      "d": 85.05903124999895,
      "v": 110
    },
    {
      "midi": 68,
      "hit": false,
      "t": 91952.51099999971,
      "d": 173.81628124999406,
      "v": 110
    },
    {
      "midi": 71,
      "hit": false,
      "t": 91952.51099999971,
      "d": 173.81628124999406,
      "v": 110
    },
    {
      "midi": 54,
      "hit": false,
      "t": 91952.51099999993,
      "d": 173.81628124999406,
      "v": 110
    },
    {
      "midi": 69,
      "hit": false,
      "t": 92130.0254999997,
      "d": 173.81628124999406,
      "v": 110
    },
    {
      "midi": 72,
      "hit": false,
      "t": 92130.0254999997,
      "d": 173.81628124999406,
      "v": 110
    },
    {
      "midi": 71,
      "hit": false,
      "t": 92307.53999999969,
      "d": 85.05903124999895,
      "v": 110
    },
    {
      "midi": 79,
      "hit": false,
      "t": 92307.53999999969,
      "d": 85.05903124999895,
      "v": 110
    },
    {
      "midi": 55,
      "hit": false,
      "t": 92307.53999999992,
      "d": 173.81628124999406,
      "v": 110
    },
    {
      "midi": 71,
      "hit": false,
      "t": 92662.56899999968,
      "d": 85.05903124999895,
      "v": 110
    },
    {
      "midi": 79,
      "hit": false,
      "t": 92662.56899999968,
      "d": 85.05903124999895,
      "v": 110
    },
    {
      "midi": 50,
      "hit": false,
      "t": 92662.56899999992,
      "d": 85.05903124999895,
      "v": 110
    },
    {
      "midi": 55,
      "hit": false,
      "t": 92840.08349999992,
      "d": 173.81628124999406,
      "v": 110
    },
    {
      "midi": 50,
      "hit": false,
      "t": 93195.11249999992,
      "d": 85.05903124999895,
      "v": 110
    },
    {
      "midi": 55,
      "hit": false,
      "t": 93372.62699999992,
      "d": 173.81628124999406,
      "v": 110
    }
  ]
}