{
  "jsonPath": "Soundtracks/Video Game Music/Super Mario Bros 3/super-mario-bros-3-icedland.json",
  "path": "Soundtracks\\Video Game Music\\Super Mario Bros 3\\Super_Mario_Bros_3_IcedLand.mid",
  "name": "Super_Mario_Bros_3_IcedLand",
  "difficulty": "Intermediate",
  "bpm": 80,
  "notes": [
    {
      "midi": 79,
      "hit": false,
      "t": 0,
      "d": 187.5,
      "v": 127
    },
    {
      "midi": 67,
      "hit": false,
      "t": 187.5,
      "d": 187.5,
      "v": 127
    },
    {
      "midi": 71,
      "hit": false,
      "t": 375,
      "d": 187.5,
      "v": 127
    },
    {
      "midi": 67,
      "hit": false,
      "t": 562.5,
      "d": 187.5,
      "v": 127
    },
    {
      "midi": 75,
      "hit": false,
      "t": 750,
      "d": 187.5,
      "v": 127
    },
    {
      "midi": 67,
      "hit": false,
      "t": 937.5,
      "d": 187.5,
      "v": 127
    },
    {
      "midi": 71,
      "hit": false,
      "t": 1125,
      "d": 187.5,
      "v": 127
    },
    {
      "midi": 67,
      "hit": false,
      "t": 1312.5,
      "d": 187.5,
      "v": 127
    },
    {
      "midi": 79,
      "hit": false,
      "t": 1500,
      "d": 187.5,
      "v": 127
    },
    {
      "midi": 67,
      "hit": false,
      "t": 1687.5,
      "d": 187.5,
      "v": 127
    },
    {
      "midi": 71,
      "hit": false,
      "t": 1875,
      "d": 187.5,
      "v": 127
    },
    {
      "midi": 67,
      "hit": false,
      "t": 2062.5,
      "d": 187.5,
      "v": 127
    },
    {
      "midi": 75,
      "hit": false,
      "t": 2250,
      "d": 187.5,
      "v": 127
    },
    {
      "midi": 67,
      "hit": false,
      "t": 2437.5,
      "d": 187.5,
      "v": 127
    },
    {
      "midi": 77,
      "hit": false,
      "t": 2625,
      "d": 187.5,
      "v": 127
    },
    {
      "midi": 67,
      "hit": false,
      "t": 2812.5,
      "d": 187.5,
      "v": 127
    },
    {
      "midi": 80,
      "hit": false,
      "t": 3000,
      "d": 187.5,
      "v": 127
    },
    {
      "midi": 68,
      "hit": false,
      "t": 3187.5,
      "d": 187.5,
      "v": 127
    },
    {
      "midi": 72,
      "hit": false,
      "t": 3375,
      "d": 187.5,
      "v": 127
    },
    {
      "midi": 68,
      "hit": false,
      "t": 3562.5,
      "d": 187.5,
      "v": 127
    },
    {
      "midi": 76,
      "hit": false,
      "t": 3750,
      "d": 187.5,
      "v": 127
    },
    {
      "midi": 68,
      "hit": false,
      "t": 3937.5,
      "d": 187.5,
      "v": 127
    },
    {
      "midi": 72,
      "hit": false,
      "t": 4125,
      "d": 187.5,
      "v": 127
    },
    {
      "midi": 68,
      "hit": false,
      "t": 4312.5,
      "d": 187.5,
      "v": 127
    },
    {
      "midi": 80,
      "hit": false,
      "t": 4500,
      "d": 187.5,
      "v": 127
    },
    {
      "midi": 68,
      "hit": false,
      "t": 4687.5,
      "d": 187.5,
      "v": 127
    },
    {
      "midi": 72,
      "hit": false,
      "t": 4875,
      "d": 187.5,
      "v": 127
    },
    {
      "midi": 68,
      "hit": false,
      "t": 5062.5,
      "d": 187.5,
      "v": 127
    },
    {
      "midi": 76,
      "hit": false,
      "t": 5250,
      "d": 187.5,
      "v": 127
    },
    {
      "midi": 68,
      "hit": false,
      "t": 5437.5,
      "d": 187.5,
      "v": 127
    },
    {
      "midi": 78,
      "hit": false,
      "t": 5625,
      "d": 187.5,
      "v": 127
    },
    {
      "midi": 68,
      "hit": false,
      "t": 5812.5,
      "d": 187.5,
      "v": 127
    },
    {
      "midi": 79,
      "hit": false,
      "t": 6000,
      "d": 187.5,
      "v": 127
    },
    {
      "midi": 67,
      "hit": false,
      "t": 6187.5,
      "d": 187.5,
      "v": 127
    },
    {
      "midi": 71,
      "hit": false,
      "t": 6375,
      "d": 187.5,
      "v": 127
    },
    {
      "midi": 67,
      "hit": false,
      "t": 6562.5,
      "d": 187.5,
      "v": 127
    },
    {
      "midi": 75,
      "hit": false,
      "t": 6750,
      "d": 187.5,
      "v": 127
    },
    {
      "midi": 67,
      "hit": false,
      "t": 6937.5,
      "d": 187.5,
      "v": 127
    },
    {
      "midi": 71,
      "hit": false,
      "t": 7125,
      "d": 187.5,
      "v": 127
    },
    {
      "midi": 67,
      "hit": false,
      "t": 7312.5,
      "d": 187.5,
      "v": 127
    },
    {
      "midi": 79,
      "hit": false,
      "t": 7500,
      "d": 187.5,
      "v": 127
    },
    {
      "midi": 67,
      "hit": false,
      "t": 7687.5,
      "d": 187.5,
      "v": 127
    },
    {
      "midi": 71,
      "hit": false,
      "t": 7875,
      "d": 187.5,
      "v": 127
    },
    {
      "midi": 67,
      "hit": false,
      "t": 8062.5,
      "d": 187.5,
      "v": 127
    },
    {
      "midi": 75,
      "hit": false,
      "t": 8250,
      "d": 187.5,
      "v": 127
    },
    {
      "midi": 67,
      "hit": false,
      "t": 8437.5,
      "d": 187.5,
      "v": 127
    },
    {
      "midi": 77,
      "hit": false,
      "t": 8625,
      "d": 187.5,
      "v": 127
    },
    {
      "midi": 67,
      "hit": false,
      "t": 8812.5,
      "d": 187.5,
      "v": 127
    },
    {
      "midi": 80,
      "hit": false,
      "t": 9000,
      "d": 187.5,
      "v": 127
    },
    {
      "midi": 68,
      "hit": false,
      "t": 9187.5,
      "d": 187.5,
      "v": 127
    },
    {
      "midi": 72,
      "hit": false,
      "t": 9375,
      "d": 187.5,
      "v": 127
    },
    {
      "midi": 68,
      "hit": false,
      "t": 9562.5,
      "d": 187.5,
      "v": 127
    },
    {
      "midi": 76,
      "hit": false,
      "t": 9750,
      "d": 187.5,
      "v": 127
    },
    {
      "midi": 68,
      "hit": false,
      "t": 9937.5,
      "d": 187.5,
      "v": 127
    },
    {
      "midi": 72,
      "hit": false,
      "t": 10125,
      "d": 187.5,
      "v": 127
    },
    {
      "midi": 68,
      "hit": false,
      "t": 10312.5,
      "d": 187.5,
      "v": 127
    },
    {
      "midi": 80,
      "hit": false,
      "t": 10500,
      "d": 187.5,
      "v": 127
    },
    {
      "midi": 68,
      "hit": false,
      "t": 10687.5,
      "d": 187.5,
      "v": 127
    },
    {
      "midi": 72,
      "hit": false,
      "t": 10875,
      "d": 187.5,
      "v": 127
    },
    {
      "midi": 68,
      "hit": false,
      "t": 11062.5,
      "d": 187.5,
      "v": 127
    },
    {
      "midi": 76,
      "hit": false,
      "t": 11250,
      "d": 187.5,
      "v": 127
    },
    {
      "midi": 68,
      "hit": false,
      "t": 11437.5,
      "d": 187.5,
      "v": 127
    },
    {
      "midi": 78,
      "hit": false,
      "t": 11625,
      "d": 187.5,
      "v": 127
    },
    {
      "midi": 68,
      "hit": false,
      "t": 11812.5,
      "d": 187.5,
      "v": 127
    },
    {
      "midi": 79,
      "hit": false,
      "t": 12000,
      "d": 187.5,
      "v": 127
    },
    {
      "midi": 67,
      "hit": false,
      "t": 12187.5,
      "d": 187.5,
      "v": 127
    },
    {
      "midi": 71,
      "hit": false,
      "t": 12375,
      "d": 187.5,
      "v": 127
    },
    {
      "midi": 67,
      "hit": false,
      "t": 12562.5,
      "d": 187.5,
      "v": 127
    },
    {
      "midi": 75,
      "hit": false,
      "t": 12750,
      "d": 187.5,
      "v": 127
    },
    {
      "midi": 67,
      "hit": false,
      "t": 12937.5,
      "d": 187.5,
      "v": 127
    },
    {
      "midi": 71,
      "hit": false,
      "t": 13125,
      "d": 187.5,
      "v": 127
    },
    {
      "midi": 67,
      "hit": false,
      "t": 13312.5,
      "d": 187.5,
      "v": 127
    },
    {
      "midi": 79,
      "hit": false,
      "t": 13500,
      "d": 187.5,
      "v": 127
    },
    {
      "midi": 67,
      "hit": false,
      "t": 13687.5,
      "d": 187.5,
      "v": 127
    },
    {
      "midi": 71,
      "hit": false,
      "t": 13875,
      "d": 187.5,
      "v": 127
    },
    {
      "midi": 67,
      "hit": false,
      "t": 14062.5,
      "d": 187.5,
      "v": 127
    },
    {
      "midi": 75,
      "hit": false,
      "t": 14250,
      "d": 187.5,
      "v": 127
    },
    {
      "midi": 67,
      "hit": false,
      "t": 14437.5,
      "d": 187.5,
      "v": 127
    },
    {
      "midi": 77,
      "hit": false,
      "t": 14625,
      "d": 187.5,
      "v": 127
    },
    {
      "midi": 67,
      "hit": false,
      "t": 14812.5,
      "d": 187.5,
      "v": 127
    },
    {
      "midi": 80,
      "hit": false,
      "t": 15000,
      "d": 187.5,
      "v": 127
    },
    {
      "midi": 68,
      "hit": false,
      "t": 15187.5,
      "d": 187.5,
      "v": 127
    },
    {
      "midi": 72,
      "hit": false,
      "t": 15375,
      "d": 187.5,
      "v": 127
    },
    {
      "midi": 68,
      "hit": false,
      "t": 15562.5,
      "d": 187.5,
      "v": 127
    },
    {
      "midi": 76,
      "hit": false,
      "t": 15750,
      "d": 187.5,
      "v": 127
    },
    {
      "midi": 68,
      "hit": false,
      "t": 15937.5,
      "d": 187.5,
      "v": 127
    },
    {
      "midi": 72,
      "hit": false,
      "t": 16125,
      "d": 187.5,
      "v": 127
    },
    {
      "midi": 68,
      "hit": false,
      "t": 16312.5,
      "d": 187.5,
      "v": 127
    },
    {
      "midi": 80,
      "hit": false,
      "t": 16500,
      "d": 187.5,
      "v": 127
    },
    {
      "midi": 68,
      "hit": false,
      "t": 16687.5,
      "d": 187.5,
      "v": 127
    },
    {
      "midi": 72,
      "hit": false,
      "t": 16875,
      "d": 187.5,
      "v": 127
    },
    {
      "midi": 68,
      "hit": false,
      "t": 17062.5,
      "d": 187.5,
      "v": 127
    },
    {
      "midi": 76,
      "hit": false,
      "t": 17250,
      "d": 187.5,
      "v": 127
    },
    {
      "midi": 68,
      "hit": false,
      "t": 17437.5,
      "d": 187.5,
      "v": 127
    },
    {
      "midi": 78,
      "hit": false,
      "t": 17625,
      "d": 187.5,
      "v": 127
    },
    {
      "midi": 68,
      "hit": false,
      "t": 17812.5,
      "d": 187.5,
      "v": 127
    },
    {
      "midi": 79,
      "hit": false,
      "t": 18000,
      "d": 3000,
      "v": 127
    }
  ]
}