{
  "jsonPath": "Soundtracks/Video Game Music/Super Mario Bros 3/super-mario-bros-3-toadhouse.json",
  "path": "Soundtracks\\Video Game Music\\Super Mario Bros 3\\Super_Mario_Bros_3_ToadHouse.mid",
  "name": "Super_Mario_Bros_3_ToadHouse",
  "difficulty": "Advanced",
  "bpm": 120,
  "notes": [
    {
      "midi": 79,
      "hit": false,
      "t": 0,
      "d": 416.6666666666667,
      "v": 110
    },
    {
      "midi": 82,
      "hit": false,
      "t": 0,
      "d": 416.6666666666667,
      "v": 110
    },
    {
      "midi": 63,
      "hit": false,
      "t": 0,
      "d": 57.291666666666664,
      "v": 110
    },
    {
      "midi": 70,
      "hit": false,
      "t": 250,
      "d": 57.291666666666686,
      "v": 110
    },
    {
      "midi": 79,
      "hit": false,
      "t": 500,
      "d": 416.66666666666674,
      "v": 110
    },
    {
      "midi": 82,
      "hit": false,
      "t": 500,
      "d": 416.66666666666674,
      "v": 110
    },
    {
      "midi": 75,
      "hit": false,
      "t": 500,
      "d": 57.29166666666663,
      "v": 110
    },
    {
      "midi": 70,
      "hit": false,
      "t": 750,
      "d": 57.29166666666663,
      "v": 110
    },
    {
      "midi": 63,
      "hit": false,
      "t": 1000,
      "d": 57.29166666666674,
      "v": 110
    },
    {
      "midi": 78,
      "hit": false,
      "t": 1000.0000000000001,
      "d": 119.79166666666663,
      "v": 110
    },
    {
      "midi": 81,
      "hit": false,
      "t": 1000.0000000000001,
      "d": 119.79166666666663,
      "v": 110
    },
    {
      "midi": 79,
      "hit": false,
      "t": 1125,
      "d": 369.79166666666674,
      "v": 110
    },
    {
      "midi": 82,
      "hit": false,
      "t": 1125,
      "d": 369.79166666666674,
      "v": 110
    },
    {
      "midi": 70,
      "hit": false,
      "t": 1250,
      "d": 57.29166666666674,
      "v": 110
    },
    {
      "midi": 79,
      "hit": false,
      "t": 1500,
      "d": 416.66666666666674,
      "v": 110
    },
    {
      "midi": 82,
      "hit": false,
      "t": 1500,
      "d": 416.66666666666674,
      "v": 110
    },
    {
      "midi": 75,
      "hit": false,
      "t": 1500,
      "d": 57.29166666666674,
      "v": 110
    },
    {
      "midi": 70,
      "hit": false,
      "t": 1750,
      "d": 57.29166666666674,
      "v": 110
    },
    {
      "midi": 81,
      "hit": false,
      "t": 2000,
      "d": 416.6666666666665,
      "v": 110
    },
    {
      "midi": 84,
      "hit": false,
      "t": 2000,
      "d": 416.6666666666665,
      "v": 110
    },
    {
      "midi": 65,
      "hit": false,
      "t": 2000,
      "d": 57.291666666666515,
      "v": 110
    },
    {
      "midi": 72,
      "hit": false,
      "t": 2250,
      "d": 57.291666666666515,
      "v": 110
    },
    {
      "midi": 81,
      "hit": false,
      "t": 2500,
      "d": 416.6666666666665,
      "v": 110
    },
    {
      "midi": 84,
      "hit": false,
      "t": 2500,
      "d": 416.6666666666665,
      "v": 110
    },
    {
      "midi": 77,
      "hit": false,
      "t": 2500,
      "d": 57.291666666666515,
      "v": 110
    },
    {
      "midi": 72,
      "hit": false,
      "t": 2750,
      "d": 57.291666666666515,
      "v": 110
    },
    {
      "midi": 80,
      "hit": false,
      "t": 3000,
      "d": 119.79166666666652,
      "v": 110
    },
    {
      "midi": 83,
      "hit": false,
      "t": 3000,
      "d": 119.79166666666652,
      "v": 110
    },
    {
      "midi": 65,
      "hit": false,
      "t": 3000,
      "d": 57.291666666666515,
      "v": 110
    },
    {
      "midi": 81,
      "hit": false,
      "t": 3125,
      "d": 369.7916666666665,
      "v": 110
    },
    {
      "midi": 84,
      "hit": false,
      "t": 3125,
      "d": 369.7916666666665,
      "v": 110
    },
    {
      "midi": 72,
      "hit": false,
      "t": 3250,
      "d": 57.291666666666515,
      "v": 110
    },
    {
      "midi": 81,
      "hit": false,
      "t": 3500,
      "d": 416.6666666666665,
      "v": 110
    },
    {
      "midi": 84,
      "hit": false,
      "t": 3500,
      "d": 416.6666666666665,
      "v": 110
    },
    {
      "midi": 77,
      "hit": false,
      "t": 3500,
      "d": 57.291666666666515,
      "v": 110
    },
    {
      "midi": 72,
      "hit": false,
      "t": 3750,
      "d": 57.291666666666515,
      "v": 110
    },
    {
      "midi": 79,
      "hit": false,
      "t": 4000,
      "d": 416.66666666666697,
      "v": 110
    },
    {
      "midi": 82,
      "hit": false,
      "t": 4000,
      "d": 416.66666666666697,
      "v": 110
    },
    {
      "midi": 63,
      "hit": false,
      "t": 4000,
      "d": 57.291666666666515,
      "v": 110
    },
    {
      "midi": 70,
      "hit": false,
      "t": 4250,
      "d": 57.29166666666697,
      "v": 110
    },
    {
      "midi": 79,
      "hit": false,
      "t": 4500,
      "d": 416.66666666666697,
      "v": 110
    },
    {
      "midi": 82,
      "hit": false,
      "t": 4500,
      "d": 416.66666666666697,
      "v": 110
    },
    {
      "midi": 75,
      "hit": false,
      "t": 4500,
      "d": 57.29166666666697,
      "v": 110
    },
    {
      "midi": 70,
      "hit": false,
      "t": 4750,
      "d": 57.29166666666697,
      "v": 110
    },
    {
      "midi": 78,
      "hit": false,
      "t": 5000,
      "d": 119.79166666666697,
      "v": 110
    },
    {
      "midi": 81,
      "hit": false,
      "t": 5000,
      "d": 119.79166666666697,
      "v": 110
    },
    {
      "midi": 63,
      "hit": false,
      "t": 5000,
      "d": 57.29166666666697,
      "v": 110
    },
    {
      "midi": 79,
      "hit": false,
      "t": 5125,
      "d": 369.79166666666697,
      "v": 110
    },
    {
      "midi": 82,
      "hit": false,
      "t": 5125,
      "d": 369.79166666666697,
      "v": 110
    },
    {
      "midi": 70,
      "hit": false,
      "t": 5250,
      "d": 57.29166666666697,
      "v": 110
    },
    {
      "midi": 79,
      "hit": false,
      "t": 5500,
      "d": 416.66666666666697,
      "v": 110
    },
    {
      "midi": 82,
      "hit": false,
      "t": 5500,
      "d": 416.66666666666697,
      "v": 110
    },
    {
      "midi": 75,
      "hit": false,
      "t": 5500,
      "d": 57.29166666666697,
      "v": 110
    },
    {
      "midi": 70,
      "hit": false,
      "t": 5750,
      "d": 57.29166666666697,
      "v": 110
    },
    {
      "midi": 81,
      "hit": false,
      "t": 6000,
      "d": 416.66666666666697,
      "v": 110
    },
    {
      "midi": 84,
      "hit": false,
      "t": 6000,
      "d": 416.66666666666697,
      "v": 110
    },
    {
      "midi": 65,
      "hit": false,
      "t": 6000,
      "d": 57.29166666666697,
      "v": 110
    },
    {
      "midi": 72,
      "hit": false,
      "t": 6250,
      "d": 57.29166666666697,
      "v": 110
    },
    {
      "midi": 81,
      "hit": false,
      "t": 6500,
      "d": 416.66666666666697,
      "v": 110
    },
    {
      "midi": 84,
      "hit": false,
      "t": 6500,
      "d": 416.66666666666697,
      "v": 110
    },
    {
      "midi": 77,
      "hit": false,
      "t": 6500,
      "d": 57.29166666666697,
      "v": 110
    },
    {
      "midi": 72,
      "hit": false,
      "t": 6750,
      "d": 57.29166666666697,
      "v": 110
    },
    {
      "midi": 80,
      "hit": false,
      "t": 7000,
      "d": 119.79166666666697,
      "v": 110
    },
    {
      "midi": 83,
      "hit": false,
      "t": 7000,
      "d": 119.79166666666697,
      "v": 110
    },
    {
      "midi": 65,
      "hit": false,
      "t": 7000,
      "d": 57.29166666666697,
      "v": 110
    },
    {
      "midi": 81,
      "hit": false,
      "t": 7125,
      "d": 369.79166666666697,
      "v": 110
    },
    {
      "midi": 84,
      "hit": false,
      "t": 7125,
      "d": 369.79166666666697,
      "v": 110
    },
    {
      "midi": 72,
      "hit": false,
      "t": 7250,
      "d": 57.29166666666697,
      "v": 110
    },
    {
      "midi": 81,
      "hit": false,
      "t": 7500,
      "d": 416.66666666666697,
      "v": 110
    },
    {
      "midi": 84,
      "hit": false,
      "t": 7500,
      "d": 416.66666666666697,
      "v": 110
    },
    {
      "midi": 77,
      "hit": false,
      "t": 7500,
      "d": 57.29166666666697,
      "v": 110
    },
    {
      "midi": 72,
      "hit": false,
      "t": 7750,
      "d": 57.29166666666697,
      "v": 110
    },
    {
      "midi": 82,
      "hit": false,
      "t": 8000,
      "d": 416.66666666666606,
      "v": 110
    },
    {
      "midi": 85,
      "hit": false,
      "t": 8000,
      "d": 416.66666666666606,
      "v": 110
    },
    {
      "midi": 66,
      "hit": false,
      "t": 8000,
      "d": 57.29166666666697,
      "v": 110
    },
    {
      "midi": 73,
      "hit": false,
      "t": 8250,
      "d": 57.29166666666606,
      "v": 110
    },
    {
      "midi": 82,
      "hit": false,
      "t": 8500,
      "d": 416.66666666666606,
      "v": 110
    },
    {
      "midi": 85,
      "hit": false,
      "t": 8500,
      "d": 416.66666666666606,
      "v": 110
    },
    {
      "midi": 78,
      "hit": false,
      "t": 8500,
      "d": 57.29166666666606,
      "v": 110
    },
    {
      "midi": 73,
      "hit": false,
      "t": 8750,
      "d": 57.29166666666606,
      "v": 110
    },
    {
      "midi": 81,
      "hit": false,
      "t": 9000,
      "d": 119.79166666666606,
      "v": 110
    },
    {
      "midi": 84,
      "hit": false,
      "t": 9000,
      "d": 119.79166666666606,
      "v": 110
    },
    {
      "midi": 66,
      "hit": false,
      "t": 9000,
      "d": 57.29166666666606,
      "v": 110
    },
    {
      "midi": 82,
      "hit": false,
      "t": 9125,
      "d": 369.79166666666606,
      "v": 110
    },
    {
      "midi": 85,
      "hit": false,
      "t": 9125,
      "d": 369.79166666666606,
      "v": 110
    },
    {
      "midi": 73,
      "hit": false,
      "t": 9250,
      "d": 57.29166666666606,
      "v": 110
    },
    {
      "midi": 82,
      "hit": false,
      "t": 9500,
      "d": 416.66666666666606,
      "v": 110
    },
    {
      "midi": 85,
      "hit": false,
      "t": 9500,
      "d": 416.66666666666606,
      "v": 110
    },
    {
      "midi": 78,
      "hit": false,
      "t": 9500,
      "d": 57.29166666666606,
      "v": 110
    },
    {
      "midi": 73,
      "hit": false,
      "t": 9750,
      "d": 57.29166666666606,
      "v": 110
    },
    {
      "midi": 84,
      "hit": false,
      "t": 10000,
      "d": 416.66666666666606,
      "v": 110
    },
    {
      "midi": 87,
      "hit": false,
      "t": 10000,
      "d": 416.66666666666606,
      "v": 110
    },
    {
      "midi": 68,
      "hit": false,
      "t": 10000,
      "d": 57.29166666666606,
      "v": 110
    },
    {
      "midi": 75,
      "hit": false,
      "t": 10250,
      "d": 57.29166666666606,
      "v": 110
    },
    {
      "midi": 84,
      "hit": false,
      "t": 10500,
      "d": 416.66666666666606,
      "v": 110
    },
    {
      "midi": 87,
      "hit": false,
      "t": 10500,
      "d": 416.66666666666606,
      "v": 110
    },
    {
      "midi": 80,
      "hit": false,
      "t": 10500,
      "d": 57.29166666666606,
      "v": 110
    },
    {
      "midi": 75,
      "hit": false,
      "t": 10750,
      "d": 57.29166666666606,
      "v": 110
    },
    {
      "midi": 83,
      "hit": false,
      "t": 11000,
      "d": 119.79166666666606,
      "v": 110
    },
    {
      "midi": 86,
      "hit": false,
      "t": 11000,
      "d": 119.79166666666606,
      "v": 110
    },
    {
      "midi": 68,
      "hit": false,
      "t": 11000,
      "d": 57.29166666666606,
      "v": 110
    },
    {
      "midi": 84,
      "hit": false,
      "t": 11125,
      "d": 369.79166666666606,
      "v": 110
    },
    {
      "midi": 87,
      "hit": false,
      "t": 11125,
      "d": 369.79166666666606,
      "v": 110
    },
    {
      "midi": 75,
      "hit": false,
      "t": 11250,
      "d": 57.29166666666606,
      "v": 110
    },
    {
      "midi": 84,
      "hit": false,
      "t": 11500,
      "d": 416.66666666666606,
      "v": 110
    },
    {
      "midi": 87,
      "hit": false,
      "t": 11500,
      "d": 416.66666666666606,
      "v": 110
    },
    {
      "midi": 80,
      "hit": false,
      "t": 11500,
      "d": 57.29166666666606,
      "v": 110
    },
    {
      "midi": 75,
      "hit": false,
      "t": 11750,
      "d": 57.29166666666606,
      "v": 110
    },
    {
      "midi": 79,
      "hit": false,
      "t": 12000,
      "d": 416.66666666666606,
      "v": 110
    },
    {
      "midi": 82,
      "hit": false,
      "t": 12000,
      "d": 416.66666666666606,
      "v": 110
    },
    {
      "midi": 63,
      "hit": false,
      "t": 12000,
      "d": 57.29166666666606,
      "v": 110
    },
    {
      "midi": 70,
      "hit": false,
      "t": 12250,
      "d": 57.29166666666606,
      "v": 110
    },
    {
      "midi": 79,
      "hit": false,
      "t": 12500,
      "d": 416.66666666666606,
      "v": 110
    },
    {
      "midi": 82,
      "hit": false,
      "t": 12500,
      "d": 416.66666666666606,
      "v": 110
    },
    {
      "midi": 75,
      "hit": false,
      "t": 12500,
      "d": 57.29166666666606,
      "v": 110
    },
    {
      "midi": 70,
      "hit": false,
      "t": 12750,
      "d": 57.29166666666606,
      "v": 110
    },
    {
      "midi": 78,
      "hit": false,
      "t": 13000,
      "d": 119.79166666666606,
      "v": 110
    },
    {
      "midi": 81,
      "hit": false,
      "t": 13000,
      "d": 119.79166666666606,
      "v": 110
    },
    {
      "midi": 63,
      "hit": false,
      "t": 13000,
      "d": 57.29166666666606,
      "v": 110
    },
    {
      "midi": 79,
      "hit": false,
      "t": 13125,
      "d": 369.79166666666606,
      "v": 110
    },
    {
      "midi": 82,
      "hit": false,
      "t": 13125,
      "d": 369.79166666666606,
      "v": 110
    },
    {
      "midi": 70,
      "hit": false,
      "t": 13250,
      "d": 57.29166666666606,
      "v": 110
    },
    {
      "midi": 79,
      "hit": false,
      "t": 13500,
      "d": 416.66666666666606,
      "v": 110
    },
    {
      "midi": 82,
      "hit": false,
      "t": 13500,
      "d": 416.66666666666606,
      "v": 110
    },
    {
      "midi": 75,
      "hit": false,
      "t": 13500,
      "d": 57.29166666666606,
      "v": 110
    },
    {
      "midi": 70,
      "hit": false,
      "t": 13750,
      "d": 57.29166666666606,
      "v": 110
    },
    {
      "midi": 81,
      "hit": false,
      "t": 14000,
      "d": 416.66666666666606,
      "v": 110
    },
    {
      "midi": 84,
      "hit": false,
      "t": 14000,
      "d": 416.66666666666606,
      "v": 110
    },
    {
      "midi": 65,
      "hit": false,
      "t": 14000,
      "d": 57.29166666666606,
      "v": 110
    },
    {
      "midi": 72,
      "hit": false,
      "t": 14250,
      "d": 57.29166666666606,
      "v": 110
    },
    {
      "midi": 81,
      "hit": false,
      "t": 14500,
      "d": 416.66666666666606,
      "v": 110
    },
    {
      "midi": 84,
      "hit": false,
      "t": 14500,
      "d": 416.66666666666606,
      "v": 110
    },
    {
      "midi": 77,
      "hit": false,
      "t": 14500,
      "d": 57.29166666666606,
      "v": 110
    },
    {
      "midi": 72,
      "hit": false,
      "t": 14750,
      "d": 57.29166666666606,
      "v": 110
    },
    {
      "midi": 80,
      "hit": false,
      "t": 15000,
      "d": 119.79166666666606,
      "v": 110
    },
    {
      "midi": 83,
      "hit": false,
      "t": 15000,
      "d": 119.79166666666606,
      "v": 110
    },
    {
      "midi": 65,
      "hit": false,
      "t": 15000,
      "d": 57.29166666666606,
      "v": 110
    },
    {
      "midi": 81,
      "hit": false,
      "t": 15125,
      "d": 369.79166666666606,
      "v": 110
    },
    {
      "midi": 84,
      "hit": false,
      "t": 15125,
      "d": 369.79166666666606,
      "v": 110
    },
    {
      "midi": 72,
      "hit": false,
      "t": 15250,
      "d": 57.29166666666606,
      "v": 110
    },
    {
      "midi": 81,
      "hit": false,
      "t": 15500,
      "d": 416.66666666666606,
      "v": 110
    },
    {
      "midi": 84,
      "hit": false,
      "t": 15500,
      "d": 416.66666666666606,
      "v": 110
    },
    {
      "midi": 77,
      "hit": false,
      "t": 15500,
      "d": 57.29166666666606,
      "v": 110
    },
    {
      "midi": 72,
      "hit": false,
      "t": 15750,
      "d": 57.29166666666606,
      "v": 110
    },
    {
      "midi": 79,
      "hit": false,
      "t": 16000,
      "d": 416.6666666666679,
      "v": 110
    },
    {
      "midi": 82,
      "hit": false,
      "t": 16000,
      "d": 416.6666666666679,
      "v": 110
    },
    {
      "midi": 63,
      "hit": false,
      "t": 16000,
      "d": 57.29166666666606,
      "v": 110
    },
    {
      "midi": 70,
      "hit": false,
      "t": 16250,
      "d": 57.29166666666606,
      "v": 110
    },
    {
      "midi": 79,
      "hit": false,
      "t": 16500,
      "d": 416.6666666666679,
      "v": 110
    },
    {
      "midi": 82,
      "hit": false,
      "t": 16500,
      "d": 416.6666666666679,
      "v": 110
    },
    {
      "midi": 75,
      "hit": false,
      "t": 16500,
      "d": 57.29166666666788,
      "v": 110
    },
    {
      "midi": 70,
      "hit": false,
      "t": 16750,
      "d": 57.29166666666788,
      "v": 110
    },
    {
      "midi": 78,
      "hit": false,
      "t": 17000,
      "d": 119.79166666666788,
      "v": 110
    },
    {
      "midi": 81,
      "hit": false,
      "t": 17000,
      "d": 119.79166666666788,
      "v": 110
    },
    {
      "midi": 63,
      "hit": false,
      "t": 17000,
      "d": 57.29166666666788,
      "v": 110
    },
    {
      "midi": 79,
      "hit": false,
      "t": 17125,
      "d": 369.7916666666679,
      "v": 110
    },
    {
      "midi": 82,
      "hit": false,
      "t": 17125,
      "d": 369.7916666666679,
      "v": 110
    },
    {
      "midi": 70,
      "hit": false,
      "t": 17250,
      "d": 57.29166666666788,
      "v": 110
    },
    {
      "midi": 79,
      "hit": false,
      "t": 17500,
      "d": 416.6666666666679,
      "v": 110
    },
    {
      "midi": 82,
      "hit": false,
      "t": 17500,
      "d": 416.6666666666679,
      "v": 110
    },
    {
      "midi": 75,
      "hit": false,
      "t": 17500,
      "d": 57.29166666666788,
      "v": 110
    },
    {
      "midi": 70,
      "hit": false,
      "t": 17750,
      "d": 57.29166666666788,
      "v": 110
    },
    {
      "midi": 81,
      "hit": false,
      "t": 18000,
      "d": 416.6666666666679,
      "v": 110
    },
    {
      "midi": 84,
      "hit": false,
      "t": 18000,
      "d": 416.6666666666679,
      "v": 110
    },
    {
      "midi": 65,
      "hit": false,
      "t": 18000,
      "d": 57.29166666666788,
      "v": 110
    },
    {
      "midi": 72,
      "hit": false,
      "t": 18250,
      "d": 57.29166666666788,
      "v": 110
    },
    {
      "midi": 81,
      "hit": false,
      "t": 18500,
      "d": 416.6666666666679,
      "v": 110
    },
    {
      "midi": 84,
      "hit": false,
      "t": 18500,
      "d": 416.6666666666679,
      "v": 110
    },
    {
      "midi": 77,
      "hit": false,
      "t": 18500,
      "d": 57.29166666666788,
      "v": 110
    },
    {
      "midi": 72,
      "hit": false,
      "t": 18750,
      "d": 57.29166666666788,
      "v": 110
    },
    {
      "midi": 80,
      "hit": false,
      "t": 19000,
      "d": 119.79166666666788,
      "v": 110
    },
    {
      "midi": 83,
      "hit": false,
      "t": 19000,
      "d": 119.79166666666788,
      "v": 110
    },
    {
      "midi": 65,
      "hit": false,
      "t": 19000,
      "d": 57.29166666666788,
      "v": 110
    },
    {
      "midi": 81,
      "hit": false,
      "t": 19125,
      "d": 369.7916666666679,
      "v": 110
    },
    {
      "midi": 84,
      "hit": false,
      "t": 19125,
      "d": 369.7916666666679,
      "v": 110
    },
    {
      "midi": 72,
      "hit": false,
      "t": 19250,
      "d": 57.29166666666788,
      "v": 110
    },
    {
      "midi": 81,
      "hit": false,
      "t": 19500,
      "d": 416.6666666666679,
      "v": 110
    },
    {
      "midi": 84,
      "hit": false,
      "t": 19500,
      "d": 416.6666666666679,
      "v": 110
    },
    {
      "midi": 77,
      "hit": false,
      "t": 19500,
      "d": 57.29166666666788,
      "v": 110
    },
    {
      "midi": 72,
      "hit": false,
      "t": 19750,
      "d": 57.29166666666788,
      "v": 110
    },
    {
      "midi": 82,
      "hit": false,
      "t": 20000,
      "d": 416.6666666666679,
      "v": 110
    },
    {
      "midi": 85,
      "hit": false,
      "t": 20000,
      "d": 416.6666666666679,
      "v": 110
    },
    {
      "midi": 66,
      "hit": false,
      "t": 20000,
      "d": 57.29166666666788,
      "v": 110
    },
    {
      "midi": 73,
      "hit": false,
      "t": 20250,
      "d": 57.29166666666788,
      "v": 110
    },
    {
      "midi": 82,
      "hit": false,
      "t": 20500,
      "d": 416.6666666666679,
      "v": 110
    },
    {
      "midi": 85,
      "hit": false,
      "t": 20500,
      "d": 416.6666666666679,
      "v": 110
    },
    {
      "midi": 78,
      "hit": false,
      "t": 20500,
      "d": 57.29166666666788,
      "v": 110
    },
    {
      "midi": 73,
      "hit": false,
      "t": 20750,
      "d": 57.29166666666788,
      "v": 110
    },
    {
      "midi": 81,
      "hit": false,
      "t": 21000,
      "d": 119.79166666666788,
      "v": 110
    },
    {
      "midi": 84,
      "hit": false,
      "t": 21000,
      "d": 119.79166666666788,
      "v": 110
    },
    {
      "midi": 66,
      "hit": false,
      "t": 21000,
      "d": 57.29166666666788,
      "v": 110
    },
    {
      "midi": 82,
      "hit": false,
      "t": 21125,
      "d": 369.7916666666679,
      "v": 110
    },
    {
      "midi": 85,
      "hit": false,
      "t": 21125,
      "d": 369.7916666666679,
      "v": 110
    },
    {
      "midi": 73,
      "hit": false,
      "t": 21250,
      "d": 57.29166666666788,
      "v": 110
    },
    {
      "midi": 82,
      "hit": false,
      "t": 21500,
      "d": 416.6666666666679,
      "v": 110
    },
    {
      "midi": 85,
      "hit": false,
      "t": 21500,
      "d": 416.6666666666679,
      "v": 110
    },
    {
      "midi": 78,
      "hit": false,
      "t": 21500,
      "d": 57.29166666666788,
      "v": 110
    },
    {
      "midi": 73,
      "hit": false,
      "t": 21750,
      "d": 57.29166666666788,
      "v": 110
    },
    {
      "midi": 84,
      "hit": false,
      "t": 22000,
      "d": 416.6666666666679,
      "v": 110
    },
    {
      "midi": 87,
      "hit": false,
      "t": 22000,
      "d": 416.6666666666679,
      "v": 110
    },
    {
      "midi": 68,
      "hit": false,
      "t": 22000,
      "d": 57.29166666666788,
      "v": 110
    },
    {
      "midi": 75,
      "hit": false,
      "t": 22250,
      "d": 57.29166666666788,
      "v": 110
    },
    {
      "midi": 84,
      "hit": false,
      "t": 22500,
      "d": 416.6666666666679,
      "v": 110
    },
    {
      "midi": 87,
      "hit": false,
      "t": 22500,
      "d": 416.6666666666679,
      "v": 110
    },
    {
      "midi": 80,
      "hit": false,
      "t": 22500,
      "d": 57.29166666666788,
      "v": 110
    },
    {
      "midi": 75,
      "hit": false,
      "t": 22750,
      "d": 57.29166666666788,
      "v": 110
    },
    {
      "midi": 83,
      "hit": false,
      "t": 23000,
      "d": 119.79166666666788,
      "v": 110
    },
    {
      "midi": 86,
      "hit": false,
      "t": 23000,
      "d": 119.79166666666788,
      "v": 110
    },
    {
      "midi": 68,
      "hit": false,
      "t": 23000,
      "d": 57.29166666666788,
      "v": 110
    },
    {
      "midi": 84,
      "hit": false,
      "t": 23125,
      "d": 369.7916666666679,
      "v": 110
    },
    {
      "midi": 87,
      "hit": false,
      "t": 23125,
      "d": 369.7916666666679,
      "v": 110
    },
    {
      "midi": 75,
      "hit": false,
      "t": 23250,
      "d": 57.29166666666788,
      "v": 110
    },
    {
      "midi": 84,
      "hit": false,
      "t": 23500,
      "d": 416.6666666666679,
      "v": 110
    },
    {
      "midi": 87,
      "hit": false,
      "t": 23500,
      "d": 416.6666666666679,
      "v": 110
    },
    {
      "midi": 80,
      "hit": false,
      "t": 23500,
      "d": 57.29166666666788,
      "v": 110
    },
    {
      "midi": 75,
      "hit": false,
      "t": 23750,
      "d": 57.29166666666788,
      "v": 110
    }
  ]
}