{
  "jsonPath": "Unknown/Unknown/Oberpichler/gefundenes-herz.json",
  "path": "Unknown\\Unknown\\Oberpichler\\Gefundenes Herz.mid",
  "name": "Gefundenes Herz",
  "difficulty": "Advanced",
  "bpm": 85.00004250002125,
  "notes": [
    {
      "midi": 74,
      "hit": false,
      "t": 25411.751999999997,
      "d": 911.7642500000002,
      "v": 120
    },
    {
      "midi": 86,
      "hit": false,
      "t": 25411.751999999997,
      "d": 917.6466,
      "v": 114
    },
    {
      "midi": 79,
      "hit": false,
      "t": 26470.574999999997,
      "d": 1441.1757499999985,
      "v": 120
    },
    {
      "midi": 91,
      "hit": false,
      "t": 26470.574999999997,
      "d": 1447.0580999999984,
      "v": 114
    },
    {
      "midi": 81,
      "hit": false,
      "t": 28235.279999999995,
      "d": 1052.9406500000005,
      "v": 120
    },
    {
      "midi": 93,
      "hit": false,
      "t": 28235.279999999995,
      "d": 1052.9406500000005,
      "v": 114
    },
    {
      "midi": 83,
      "hit": false,
      "t": 29294.102999999996,
      "d": 1441.1757499999985,
      "v": 120
    },
    {
      "midi": 95,
      "hit": false,
      "t": 29294.102999999996,
      "d": 1447.0580999999984,
      "v": 114
    },
    {
      "midi": 86,
      "hit": false,
      "t": 31058.807999999994,
      "d": 1052.9406500000005,
      "v": 120
    },
    {
      "midi": 98,
      "hit": false,
      "t": 31058.807999999994,
      "d": 1052.9406500000005,
      "v": 114
    },
    {
      "midi": 83,
      "hit": false,
      "t": 32117.630999999994,
      "d": 1441.1757500000022,
      "v": 120
    },
    {
      "midi": 95,
      "hit": false,
      "t": 32117.630999999994,
      "d": 1447.058100000002,
      "v": 114
    },
    {
      "midi": 83,
      "hit": false,
      "t": 33882.335999999996,
      "d": 1052.9406499999968,
      "v": 120
    },
    {
      "midi": 95,
      "hit": false,
      "t": 33882.335999999996,
      "d": 1052.9406499999968,
      "v": 114
    },
    {
      "midi": 81,
      "hit": false,
      "t": 34941.15899999999,
      "d": 1441.1757500000022,
      "v": 120
    },
    {
      "midi": 93,
      "hit": false,
      "t": 34941.15899999999,
      "d": 1447.058100000002,
      "v": 114
    },
    {
      "midi": 59,
      "hit": false,
      "t": 36705.863999999994,
      "d": 179.41167500000302,
      "v": 82
    },
    {
      "midi": 64,
      "hit": false,
      "t": 36705.863999999994,
      "d": 276.4704500000007,
      "v": 85
    },
    {
      "midi": 67,
      "hit": false,
      "t": 36705.863999999994,
      "d": 597.0585250000004,
      "v": 97
    },
    {
      "midi": 40,
      "hit": false,
      "t": 36705.863999999994,
      "d": 926.4701249999998,
      "v": 76
    },
    {
      "midi": 52,
      "hit": false,
      "t": 36705.863999999994,
      "d": 952.9406999999992,
      "v": 92
    },
    {
      "midi": 59,
      "hit": false,
      "t": 37058.80499999999,
      "d": 252.94105000000127,
      "v": 97
    },
    {
      "midi": 64,
      "hit": false,
      "t": 37058.80499999999,
      "d": 266.17633750000095,
      "v": 58
    },
    {
      "midi": 59,
      "hit": false,
      "t": 37411.74599999999,
      "d": 247.0587000000014,
      "v": 117
    },
    {
      "midi": 64,
      "hit": false,
      "t": 37411.74599999999,
      "d": 263.235162500001,
      "v": 122
    },
    {
      "midi": 67,
      "hit": false,
      "t": 37411.74599999999,
      "d": 274.99986250000075,
      "v": 108
    },
    {
      "midi": 60,
      "hit": false,
      "t": 37764.68699999999,
      "d": 210.29401250000228,
      "v": 122
    },
    {
      "midi": 64,
      "hit": false,
      "t": 37764.68699999999,
      "d": 491.1762249999956,
      "v": 122
    },
    {
      "midi": 67,
      "hit": false,
      "t": 37764.68699999999,
      "d": 808.8231249999953,
      "v": 122
    },
    {
      "midi": 48,
      "hit": false,
      "t": 37764.68699999999,
      "d": 1232.3523249999926,
      "v": 122
    },
    {
      "midi": 60,
      "hit": false,
      "t": 38117.62799999999,
      "d": 564.7055999999939,
      "v": 97
    },
    {
      "midi": 64,
      "hit": false,
      "t": 38470.56899999999,
      "d": 266.1763374999937,
      "v": 76
    },
    {
      "midi": 60,
      "hit": false,
      "t": 38823.50999999998,
      "d": 557.3526625000086,
      "v": 100
    },
    {
      "midi": 64,
      "hit": false,
      "t": 38823.50999999998,
      "d": 561.7644250000085,
      "v": 104
    },
    {
      "midi": 67,
      "hit": false,
      "t": 38823.50999999998,
      "d": 567.6467750000083,
      "v": 100
    },
    {
      "midi": 48,
      "hit": false,
      "t": 39176.45099999999,
      "d": 179.41167500000302,
      "v": 89
    },
    {
      "midi": 59,
      "hit": false,
      "t": 39529.391999999985,
      "d": 185.29402500000288,
      "v": 108
    },
    {
      "midi": 64,
      "hit": false,
      "t": 39529.391999999985,
      "d": 563.2350125000085,
      "v": 108
    },
    {
      "midi": 67,
      "hit": false,
      "t": 39529.391999999985,
      "d": 570.5879500000083,
      "v": 108
    },
    {
      "midi": 52,
      "hit": false,
      "t": 39529.391999999985,
      "d": 633.8232125000068,
      "v": 100
    },
    {
      "midi": 40,
      "hit": false,
      "t": 39529.391999999985,
      "d": 949.9995250000065,
      "v": 100
    },
    {
      "midi": 59,
      "hit": false,
      "t": 39882.33299999999,
      "d": 210.29401250000228,
      "v": 97
    },
    {
      "midi": 52,
      "hit": false,
      "t": 40235.27399999999,
      "d": 219.11753750000207,
      "v": 104
    },
    {
      "midi": 64,
      "hit": false,
      "t": 40235.27399999999,
      "d": 241.17635000000155,
      "v": 112
    },
    {
      "midi": 59,
      "hit": false,
      "t": 40235.27399999999,
      "d": 242.6469375000015,
      "v": 108
    },
    {
      "midi": 67,
      "hit": false,
      "t": 40235.27399999999,
      "d": 258.82340000000113,
      "v": 108
    },
    {
      "midi": 60,
      "hit": false,
      "t": 40588.21499999999,
      "d": 252.94105000000127,
      "v": 127
    },
    {
      "midi": 64,
      "hit": false,
      "t": 40588.21499999999,
      "d": 979.4112750000058,
      "v": 122
    },
    {
      "midi": 67,
      "hit": false,
      "t": 40588.21499999999,
      "d": 985.2936250000057,
      "v": 122
    },
    {
      "midi": 48,
      "hit": false,
      "t": 40588.21499999999,
      "d": 1295.5875875000056,
      "v": 122
    },
    {
      "midi": 60,
      "hit": false,
      "t": 40941.15599999999,
      "d": 199.99990000000253,
      "v": 85
    },
    {
      "midi": 60,
      "hit": false,
      "t": 41294.096999999994,
      "d": 235.2940000000017,
      "v": 65
    },
    {
      "midi": 60,
      "hit": false,
      "t": 41647.03799999999,
      "d": 445.5880124999967,
      "v": 117
    },
    {
      "midi": 64,
      "hit": false,
      "t": 41647.03799999999,
      "d": 452.9409499999965,
      "v": 117
    },
    {
      "midi": 67,
      "hit": false,
      "t": 41647.03799999999,
      "d": 472.05858749999607,
      "v": 117
    },
    {
      "midi": 48,
      "hit": false,
      "t": 41999.97899999999,
      "d": 191.17637499999546,
      "v": 104
    },
    {
      "midi": 64,
      "hit": false,
      "t": 42352.91999999999,
      "d": 563.2350125000012,
      "v": 108
    },
    {
      "midi": 67,
      "hit": false,
      "t": 42352.91999999999,
      "d": 570.587950000001,
      "v": 108
    },
    {
      "midi": 52,
      "hit": false,
      "t": 42352.91999999999,
      "d": 633.8232124999995,
      "v": 100
    },
    {
      "midi": 40,
      "hit": false,
      "t": 42352.91999999999,
      "d": 949.9995249999993,
      "v": 100
    },
    {
      "midi": 59,
      "hit": false,
      "t": 42705.86099999999,
      "d": 210.29401250000228,
      "v": 97
    },
    {
      "midi": 52,
      "hit": false,
      "t": 43058.80199999999,
      "d": 219.11753750000207,
      "v": 104
    },
    {
      "midi": 64,
      "hit": false,
      "t": 43058.80199999999,
      "d": 241.17635000000155,
      "v": 112
    },
    {
      "midi": 59,
      "hit": false,
      "t": 43058.80199999999,
      "d": 242.6469375000015,
      "v": 108
    },
    {
      "midi": 67,
      "hit": false,
      "t": 43058.80199999999,
      "d": 258.82340000000113,
      "v": 108
    },
    {
      "midi": 60,
      "hit": false,
      "t": 43411.74299999999,
      "d": 252.94105000000127,
      "v": 127
    },
    {
      "midi": 64,
      "hit": false,
      "t": 43411.74299999999,
      "d": 979.4112749999986,
      "v": 122
    },
    {
      "midi": 67,
      "hit": false,
      "t": 43411.74299999999,
      "d": 985.2936249999984,
      "v": 122
    },
    {
      "midi": 48,
      "hit": false,
      "t": 43411.74299999999,
      "d": 1295.5875874999983,
      "v": 122
    },
    {
      "midi": 60,
      "hit": false,
      "t": 43764.68399999999,
      "d": 199.99990000000253,
      "v": 85
    },
    {
      "midi": 60,
      "hit": false,
      "t": 44117.624999999985,
      "d": 235.2940000000017,
      "v": 65
    },
    {
      "midi": 60,
      "hit": false,
      "t": 44470.565999999984,
      "d": 445.5880124999967,
      "v": 117
    },
    {
      "midi": 64,
      "hit": false,
      "t": 44470.565999999984,
      "d": 452.9409499999965,
      "v": 117
    },
    {
      "midi": 67,
      "hit": false,
      "t": 44470.565999999984,
      "d": 472.05858749999607,
      "v": 117
    },
    {
      "midi": 48,
      "hit": false,
      "t": 44823.50699999998,
      "d": 191.17637499999546,
      "v": 104
    },
    {
      "midi": 59,
      "hit": false,
      "t": 45176.44799999998,
      "d": 447.05859999999666,
      "v": 112
    },
    {
      "midi": 62,
      "hit": false,
      "t": 45176.44799999998,
      "d": 672.0584874999986,
      "v": 108
    },
    {
      "midi": 67,
      "hit": false,
      "t": 45176.44799999998,
      "d": 905.8819000000003,
      "v": 112
    },
    {
      "midi": 47,
      "hit": false,
      "t": 45176.44799999998,
      "d": 977.9406874999986,
      "v": 127
    },
    {
      "midi": 62,
      "hit": false,
      "t": 45882.32999999998,
      "d": 194.11755000000267,
      "v": 38
    },
    {
      "midi": 59,
      "hit": false,
      "t": 45882.32999999998,
      "d": 222.058712500002,
      "v": 97
    },
    {
      "midi": 57,
      "hit": false,
      "t": 46235.27099999998,
      "d": 513.2350375000024,
      "v": 104
    },
    {
      "midi": 62,
      "hit": false,
      "t": 46235.27099999998,
      "d": 924.9995375000071,
      "v": 117
    },
    {
      "midi": 66,
      "hit": false,
      "t": 46235.27099999998,
      "d": 924.9995375000071,
      "v": 118
    },
    {
      "midi": 50,
      "hit": false,
      "t": 46235.27099999998,
      "d": 1186.764112500001,
      "v": 125
    },
    {
      "midi": 57,
      "hit": false,
      "t": 46941.152999999984,
      "d": 210.29401250000228,
      "v": 85
    },
    {
      "midi": 57,
      "hit": false,
      "t": 47294.09399999998,
      "d": 495.5879874999955,
      "v": 108
    },
    {
      "midi": 66,
      "hit": false,
      "t": 47294.09399999998,
      "d": 499.9997499999954,
      "v": 127
    },
    {
      "midi": 62,
      "hit": false,
      "t": 47294.09399999998,
      "d": 508.8232749999952,
      "v": 112
    },
    {
      "midi": 50,
      "hit": false,
      "t": 47647.03499999998,
      "d": 170.58814999999595,
      "v": 127
    },
    {
      "midi": 59,
      "hit": false,
      "t": 47999.97599999998,
      "d": 319.1174874999997,
      "v": 117
    },
    {
      "midi": 67,
      "hit": false,
      "t": 47999.97599999998,
      "d": 577.9408875000008,
      "v": 127
    },
    {
      "midi": 43,
      "hit": false,
      "t": 47999.97599999998,
      "d": 2514.704624999991,
      "v": 122
    },
    {
      "midi": 59,
      "hit": false,
      "t": 48352.91699999998,
      "d": 230.8822375000018,
      "v": 36
    },
    {
      "midi": 59,
      "hit": false,
      "t": 48705.85799999998,
      "d": 177.94108750000305,
      "v": 108
    },
    {
      "midi": 62,
      "hit": false,
      "t": 48705.85799999998,
      "d": 261.76457500000106,
      "v": 117
    },
    {
      "midi": 55,
      "hit": false,
      "t": 48705.85799999998,
      "d": 463.2350624999963,
      "v": 122
    },
    {
      "midi": 67,
      "hit": false,
      "t": 48705.85799999998,
      "d": 1136.7641374999948,
      "v": 122
    },
    {
      "midi": 59,
      "hit": false,
      "t": 49058.79899999998,
      "d": 519.1173875000022,
      "v": 117
    },
    {
      "midi": 62,
      "hit": false,
      "t": 49058.79899999998,
      "d": 651.4702624999991,
      "v": 92
    },
    {
      "midi": 55,
      "hit": false,
      "t": 49411.739999999976,
      "d": 835.2936999999947,
      "v": 117
    },
    {
      "midi": 59,
      "hit": false,
      "t": 49764.680999999975,
      "d": 188.23519999999553,
      "v": 82
    },
    {
      "midi": 59,
      "hit": false,
      "t": 50117.621999999974,
      "d": 344.1174749999991,
      "v": 108
    },
    {
      "midi": 62,
      "hit": false,
      "t": 50117.621999999974,
      "d": 391.176274999998,
      "v": 117
    },
    {
      "midi": 67,
      "hit": false,
      "t": 50117.621999999974,
      "d": 520.5879749999949,
      "v": 122
    },
    {
      "midi": 55,
      "hit": false,
      "t": 50470.56299999997,
      "d": 205.8822499999951,
      "v": 108
    },
    {
      "midi": 57,
      "hit": false,
      "t": 50647.03349999997,
      "d": 76.47054999999818,
      "v": 79
    },
    {
      "midi": 57,
      "hit": false,
      "t": 50823.503999999964,
      "d": 624.9996874999997,
      "v": 100
    },
    {
      "midi": 66,
      "hit": false,
      "t": 50823.503999999964,
      "d": 627.9408624999996,
      "v": 113
    },
    {
      "midi": 62,
      "hit": false,
      "t": 50823.503999999964,
      "d": 633.8232124999995,
      "v": 122
    },
    {
      "midi": 57,
      "hit": false,
      "t": 51529.38599999996,
      "d": 216.17636250000214,
      "v": 104
    },
    {
      "midi": 62,
      "hit": false,
      "t": 51529.38599999996,
      "d": 277.9410375000007,
      "v": 112
    },
    {
      "midi": 66,
      "hit": false,
      "t": 51529.38599999996,
      "d": 301.4704375000001,
      "v": 113
    },
    {
      "midi": 57,
      "hit": false,
      "t": 51882.32699999996,
      "d": 152.94109999999637,
      "v": 85
    },
    {
      "midi": 66,
      "hit": false,
      "t": 51882.32699999996,
      "d": 216.17636249999487,
      "v": 77
    },
    {
      "midi": 62,
      "hit": false,
      "t": 51882.32699999996,
      "d": 238.23517499999434,
      "v": 79
    },
    {
      "midi": 57,
      "hit": false,
      "t": 52235.26799999995,
      "d": 326.4704249999995,
      "v": 112
    },
    {
      "midi": 66,
      "hit": false,
      "t": 52235.26799999995,
      "d": 617.6467499999999,
      "v": 113
    },
    {
      "midi": 57,
      "hit": false,
      "t": 52588.20899999995,
      "d": 219.11753750000207,
      "v": 62
    },
    {
      "midi": 57,
      "hit": false,
      "t": 52941.14999999995,
      "d": 183.8234375000029,
      "v": 89
    },
    {
      "midi": 66,
      "hit": false,
      "t": 52941.14999999995,
      "d": 529.411500000002,
      "v": 118
    },
    {
      "midi": 62,
      "hit": false,
      "t": 52941.14999999995,
      "d": 570.587950000001,
      "v": 127
    },
    {
      "midi": 57,
      "hit": false,
      "t": 53294.09099999996,
      "d": 145.58816249999654,
      "v": 92
    },
    {
      "midi": 59,
      "hit": false,
      "t": 53647.03199999995,
      "d": 455.88212499999645,
      "v": 117
    },
    {
      "midi": 67,
      "hit": false,
      "t": 53647.03199999995,
      "d": 576.4702999999936,
      "v": 122
    },
    {
      "midi": 64,
      "hit": false,
      "t": 53999.97299999995,
      "d": 255.88222499999392,
      "v": 85
    },
    {
      "midi": 59,
      "hit": false,
      "t": 54352.91399999994,
      "d": 227.94106250000186,
      "v": 97
    },
    {
      "midi": 64,
      "hit": false,
      "t": 54352.91399999994,
      "d": 230.8822375000018,
      "v": 92
    },
    {
      "midi": 67,
      "hit": false,
      "t": 54352.91399999994,
      "d": 248.52928750000137,
      "v": 82
    },
    {
      "midi": 59,
      "hit": false,
      "t": 54705.85499999994,
      "d": 491.1762250000029,
      "v": 122
    },
    {
      "midi": 64,
      "hit": false,
      "t": 54705.85499999994,
      "d": 916.1760125000073,
      "v": 127
    },
    {
      "midi": 67,
      "hit": false,
      "t": 54705.85499999994,
      "d": 919.1171875000073,
      "v": 122
    },
    {
      "midi": 59,
      "hit": false,
      "t": 55411.73699999994,
      "d": 236.76458750000165,
      "v": 79
    },
    {
      "midi": 59,
      "hit": false,
      "t": 55764.67799999994,
      "d": 289.7057375000004,
      "v": 112
    },
    {
      "midi": 64,
      "hit": false,
      "t": 55764.67799999994,
      "d": 294.1175000000003,
      "v": 117
    },
    {
      "midi": 67,
      "hit": false,
      "t": 55764.67799999994,
      "d": 316.17631249999977,
      "v": 108
    },
    {
      "midi": 59,
      "hit": false,
      "t": 56117.61899999994,
      "d": 170.58815000000322,
      "v": 69
    },
    {
      "midi": 64,
      "hit": false,
      "t": 56117.61899999994,
      "d": 232.35282500000176,
      "v": 82
    },
    {
      "midi": 67,
      "hit": false,
      "t": 56117.61899999994,
      "d": 242.6469375000015,
      "v": 76
    },
    {
      "midi": 60,
      "hit": false,
      "t": 56470.55999999994,
      "d": 530.882087500002,
      "v": 122
    },
    {
      "midi": 67,
      "hit": false,
      "t": 56470.55999999994,
      "d": 636.7643874999994,
      "v": 127
    },
    {
      "midi": 62,
      "hit": false,
      "t": 56470.55999999994,
      "d": 652.940849999999,
      "v": 117
    },
    {
      "midi": 74,
      "hit": false,
      "t": 56823.50099999994,
      "d": 314.7057249999998,
      "v": 100
    },
    {
      "midi": 60,
      "hit": false,
      "t": 57176.44199999994,
      "d": 195.58813750000263,
      "v": 92
    },
    {
      "midi": 67,
      "hit": false,
      "t": 57176.44199999994,
      "d": 211.76460000000225,
      "v": 76
    },
    {
      "midi": 62,
      "hit": false,
      "t": 57176.44199999994,
      "d": 227.94106250000186,
      "v": 70
    },
    {
      "midi": 79,
      "hit": false,
      "t": 57176.44199999994,
      "d": 310.2939624999999,
      "v": 127
    },
    {
      "midi": 74,
      "hit": false,
      "t": 57529.382999999936,
      "d": 316.17631249999977,
      "v": 89
    },
    {
      "midi": 60,
      "hit": false,
      "t": 57529.382999999936,
      "d": 567.6467750000011,
      "v": 122
    },
    {
      "midi": 62,
      "hit": false,
      "t": 57529.382999999936,
      "d": 970.5877499999988,
      "v": 100
    },
    {
      "midi": 67,
      "hit": false,
      "t": 57529.382999999936,
      "d": 992.6465624999983,
      "v": 117
    },
    {
      "midi": 79,
      "hit": false,
      "t": 57882.323999999935,
      "d": 351.47041249999893,
      "v": 122
    },
    {
      "midi": 60,
      "hit": false,
      "t": 58235.264999999934,
      "d": 283.82338750000054,
      "v": 97
    },
    {
      "midi": 74,
      "hit": false,
      "t": 58235.264999999934,
      "d": 369.1174624999985,
      "v": 108
    },
    {
      "midi": 60,
      "hit": false,
      "t": 58588.20599999993,
      "d": 297.0586750000002,
      "v": 122
    },
    {
      "midi": 62,
      "hit": false,
      "t": 58588.20599999993,
      "d": 535.2938499999946,
      "v": 104
    },
    {
      "midi": 67,
      "hit": false,
      "t": 58588.20599999993,
      "d": 548.5291374999942,
      "v": 112
    },
    {
      "midi": 81,
      "hit": false,
      "t": 58594.08834999993,
      "d": 363.23511249999865,
      "v": 122
    },
    {
      "midi": 60,
      "hit": false,
      "t": 58941.14699999993,
      "d": 136.76463749999675,
      "v": 108
    },
    {
      "midi": 74,
      "hit": false,
      "t": 58941.14699999993,
      "d": 304.41161249999277,
      "v": 112
    },
    {
      "midi": 72,
      "hit": false,
      "t": 59294.08799999992,
      "d": 311.7645499999999,
      "v": 127
    },
    {
      "midi": 43,
      "hit": false,
      "t": 59294.08799999992,
      "d": 2514.704624999991,
      "v": 122
    },
    {
      "midi": 62,
      "hit": false,
      "t": 59647.02899999992,
      "d": 1249.9993749999994,
      "v": 127
    },
    {
      "midi": 72,
      "hit": false,
      "t": 59999.96999999992,
      "d": 311.7645499999999,
      "v": 127
    },
    {
      "midi": 71,
      "hit": false,
      "t": 60352.91099999992,
      "d": 680.8820124999984,
      "v": 112
    },
    {
      "midi": 62,
      "hit": false,
      "t": 61058.79299999992,
      "d": 445.5880124999967,
      "v": 127
    },
    {
      "midi": 71,
      "hit": false,
      "t": 61411.73399999992,
      "d": 649.9996749999991,
      "v": 127
    },
    {
      "midi": 62,
      "hit": false,
      "t": 61764.674999999916,
      "d": 308.82337499999994,
      "v": 127
    },
    {
      "midi": 57,
      "hit": false,
      "t": 62117.615999999914,
      "d": 624.9996874999997,
      "v": 100
    },
    {
      "midi": 66,
      "hit": false,
      "t": 62117.615999999914,
      "d": 627.9408624999996,
      "v": 113
    },
    {
      "midi": 62,
      "hit": false,
      "t": 62117.615999999914,
      "d": 633.8232124999995,
      "v": 122
    },
    {
      "midi": 57,
      "hit": false,
      "t": 62823.49799999991,
      "d": 216.17636250000214,
      "v": 104
    },
    {
      "midi": 62,
      "hit": false,
      "t": 62823.49799999991,
      "d": 277.9410375000007,
      "v": 112
    },
    {
      "midi": 66,
      "hit": false,
      "t": 62823.49799999991,
      "d": 301.4704375000001,
      "v": 113
    },
    {
      "midi": 57,
      "hit": false,
      "t": 63176.43899999991,
      "d": 152.94109999999637,
      "v": 85
    },
    {
      "midi": 66,
      "hit": false,
      "t": 63176.43899999991,
      "d": 216.17636249999487,
      "v": 77
    },
    {
      "midi": 62,
      "hit": false,
      "t": 63176.43899999991,
      "d": 238.23517499999434,
      "v": 79
    },
    {
      "midi": 57,
      "hit": false,
      "t": 63529.3799999999,
      "d": 326.4704249999995,
      "v": 112
    },
    {
      "midi": 66,
      "hit": false,
      "t": 63529.3799999999,
      "d": 617.6467499999999,
      "v": 113
    },
    {
      "midi": 57,
      "hit": false,
      "t": 63882.3209999999,
      "d": 219.11753750000207,
      "v": 62
    },
    {
      "midi": 57,
      "hit": false,
      "t": 64235.2619999999,
      "d": 183.8234375000029,
      "v": 89
    },
    {
      "midi": 66,
      "hit": false,
      "t": 64235.2619999999,
      "d": 529.411500000002,
      "v": 118
    },
    {
      "midi": 62,
      "hit": false,
      "t": 64235.2619999999,
      "d": 570.587950000001,
      "v": 127
    },
    {
      "midi": 57,
      "hit": false,
      "t": 64588.20299999991,
      "d": 145.58816249999654,
      "v": 92
    },
    {
      "midi": 59,
      "hit": false,
      "t": 64941.1439999999,
      "d": 455.88212499999645,
      "v": 117
    },
    {
      "midi": 67,
      "hit": false,
      "t": 64941.1439999999,
      "d": 576.4702999999936,
      "v": 122
    },
    {
      "midi": 64,
      "hit": false,
      "t": 65294.0849999999,
      "d": 255.8822250000012,
      "v": 85
    },
    {
      "midi": 59,
      "hit": false,
      "t": 65647.0259999999,
      "d": 227.94106250000186,
      "v": 97
    },
    {
      "midi": 64,
      "hit": false,
      "t": 65647.0259999999,
      "d": 230.8822375000018,
      "v": 92
    },
    {
      "midi": 67,
      "hit": false,
      "t": 65647.0259999999,
      "d": 248.52928750000137,
      "v": 82
    },
    {
      "midi": 59,
      "hit": false,
      "t": 65999.9669999999,
      "d": 491.1762250000029,
      "v": 122
    },
    {
      "midi": 64,
      "hit": false,
      "t": 65999.9669999999,
      "d": 916.1760125000001,
      "v": 127
    },
    {
      "midi": 67,
      "hit": false,
      "t": 65999.9669999999,
      "d": 919.1171875,
      "v": 122
    },
    {
      "midi": 59,
      "hit": false,
      "t": 66705.8489999999,
      "d": 236.76458750000165,
      "v": 79
    },
    {
      "midi": 59,
      "hit": false,
      "t": 67058.7899999999,
      "d": 289.7057375000004,
      "v": 112
    },
    {
      "midi": 64,
      "hit": false,
      "t": 67058.7899999999,
      "d": 294.11750000000757,
      "v": 117
    },
    {
      "midi": 67,
      "hit": false,
      "t": 67058.7899999999,
      "d": 316.1763125000143,
      "v": 108
    },
    {
      "midi": 59,
      "hit": false,
      "t": 67411.73099999993,
      "d": 170.58814999999595,
      "v": 69
    },
    {
      "midi": 64,
      "hit": false,
      "t": 67411.73099999993,
      "d": 232.35282499999448,
      "v": 82
    },
    {
      "midi": 67,
      "hit": false,
      "t": 67411.73099999993,
      "d": 242.6469375000015,
      "v": 76
    },
    {
      "midi": 60,
      "hit": false,
      "t": 67764.67199999993,
      "d": 530.8820874999947,
      "v": 122
    },
    {
      "midi": 67,
      "hit": false,
      "t": 67764.67199999993,
      "d": 636.7643874999922,
      "v": 127
    },
    {
      "midi": 62,
      "hit": false,
      "t": 67764.67199999993,
      "d": 652.940849999999,
      "v": 117
    },
    {
      "midi": 60,
      "hit": false,
      "t": 68470.55399999993,
      "d": 195.58813750000263,
      "v": 92
    },
    {
      "midi": 67,
      "hit": false,
      "t": 68470.55399999993,
      "d": 211.76460000000952,
      "v": 76
    },
    {
      "midi": 62,
      "hit": false,
      "t": 68470.55399999993,
      "d": 227.94106250001641,
      "v": 70
    },
    {
      "midi": 60,
      "hit": false,
      "t": 68823.49499999995,
      "d": 567.6467750000011,
      "v": 122
    },
    {
      "midi": 62,
      "hit": false,
      "t": 68823.49499999995,
      "d": 970.5877499999915,
      "v": 100
    },
    {
      "midi": 67,
      "hit": false,
      "t": 68823.49499999995,
      "d": 992.6465624999983,
      "v": 117
    },
    {
      "midi": 60,
      "hit": false,
      "t": 69529.37699999995,
      "d": 283.82338750000054,
      "v": 97
    },
    {
      "midi": 60,
      "hit": false,
      "t": 69882.31799999996,
      "d": 297.05867499999295,
      "v": 122
    },
    {
      "midi": 62,
      "hit": false,
      "t": 69882.31799999996,
      "d": 535.2938500000018,
      "v": 104
    },
    {
      "midi": 67,
      "hit": false,
      "t": 69882.31799999996,
      "d": 548.5291375000088,
      "v": 112
    },
    {
      "midi": 60,
      "hit": false,
      "t": 70235.25899999995,
      "d": 136.76463750000403,
      "v": 108
    },
    {
      "midi": 43,
      "hit": false,
      "t": 70588.19999999997,
      "d": 2514.7046249999985,
      "v": 122
    },
    {
      "midi": 55,
      "hit": false,
      "t": 70588.19999999997,
      "d": 2514.7046249999985,
      "v": 122
    },
    {
      "midi": 74,
      "hit": false,
      "t": 84705.83999999997,
      "d": 911.7642499999929,
      "v": 120
    },
    {
      "midi": 86,
      "hit": false,
      "t": 84705.83999999997,
      "d": 917.6465999999928,
      "v": 114
    },
    {
      "midi": 79,
      "hit": false,
      "t": 85764.66299999996,
      "d": 1441.1757499999949,
      "v": 120
    },
    {
      "midi": 91,
      "hit": false,
      "t": 85764.66299999996,
      "d": 1447.0580999999947,
      "v": 114
    },
    {
      "midi": 81,
      "hit": false,
      "t": 87529.36799999996,
      "d": 1052.940650000004,
      "v": 120
    },
    {
      "midi": 93,
      "hit": false,
      "t": 87529.36799999996,
      "d": 1052.940650000004,
      "v": 114
    },
    {
      "midi": 83,
      "hit": false,
      "t": 88588.19099999996,
      "d": 1441.1757499999949,
      "v": 120
    },
    {
      "midi": 95,
      "hit": false,
      "t": 88588.19099999996,
      "d": 1447.0580999999947,
      "v": 114
    },
    {
      "midi": 86,
      "hit": false,
      "t": 90352.89599999996,
      "d": 1052.940650000004,
      "v": 120
    },
    {
      "midi": 98,
      "hit": false,
      "t": 90352.89599999996,
      "d": 1052.940650000004,
      "v": 114
    },
    {
      "midi": 83,
      "hit": false,
      "t": 91411.71899999997,
      "d": 1441.1757499999949,
      "v": 120
    },
    {
      "midi": 95,
      "hit": false,
      "t": 91411.71899999997,
      "d": 1447.0580999999947,
      "v": 114
    },
    {
      "midi": 83,
      "hit": false,
      "t": 93176.42399999997,
      "d": 1052.940650000004,
      "v": 120
    },
    {
      "midi": 95,
      "hit": false,
      "t": 93176.42399999997,
      "d": 1052.940650000004,
      "v": 114
    },
    {
      "midi": 81,
      "hit": false,
      "t": 94235.24699999997,
      "d": 1441.1757499999949,
      "v": 120
    },
    {
      "midi": 93,
      "hit": false,
      "t": 94235.24699999997,
      "d": 1447.0580999999947,
      "v": 114
    },
    {
      "midi": 59,
      "hit": false,
      "t": 95999.95199999998,
      "d": 179.41167499999574,
      "v": 82
    },
    {
      "midi": 64,
      "hit": false,
      "t": 95999.95199999998,
      "d": 276.47044999999343,
      "v": 85
    },
    {
      "midi": 67,
      "hit": false,
      "t": 95999.95199999998,
      "d": 597.0585249999858,
      "v": 97
    },
    {
      "midi": 40,
      "hit": false,
      "t": 95999.95199999998,
      "d": 926.4701249999925,
      "v": 76
    },
    {
      "midi": 52,
      "hit": false,
      "t": 95999.95199999998,
      "d": 952.9406999999919,
      "v": 92
    },
    {
      "midi": 59,
      "hit": false,
      "t": 96352.89299999997,
      "d": 252.941049999994,
      "v": 97
    },
    {
      "midi": 64,
      "hit": false,
      "t": 96352.89299999997,
      "d": 266.17633750000095,
      "v": 58
    },
    {
      "midi": 59,
      "hit": false,
      "t": 96705.83399999997,
      "d": 247.05869999999413,
      "v": 117
    },
    {
      "midi": 64,
      "hit": false,
      "t": 96705.83399999997,
      "d": 263.235162500001,
      "v": 122
    },
    {
      "midi": 67,
      "hit": false,
      "t": 96705.83399999997,
      "d": 274.99986250000075,
      "v": 108
    },
    {
      "midi": 60,
      "hit": false,
      "t": 97058.77499999998,
      "d": 210.29401250000228,
      "v": 122
    },
    {
      "midi": 64,
      "hit": false,
      "t": 97058.77499999998,
      "d": 491.1762250000029,
      "v": 122
    },
    {
      "midi": 67,
      "hit": false,
      "t": 97058.77499999998,
      "d": 808.8231249999953,
      "v": 122
    },
    {
      "midi": 48,
      "hit": false,
      "t": 97058.77499999998,
      "d": 1232.3523249999998,
      "v": 122
    },
    {
      "midi": 60,
      "hit": false,
      "t": 97411.71599999999,
      "d": 564.7055999999866,
      "v": 97
    },
    {
      "midi": 64,
      "hit": false,
      "t": 97764.65699999998,
      "d": 266.17633750000095,
      "v": 76
    },
    {
      "midi": 60,
      "hit": false,
      "t": 98117.59799999998,
      "d": 557.352662499994,
      "v": 100
    },
    {
      "midi": 64,
      "hit": false,
      "t": 98117.59799999998,
      "d": 561.7644250000012,
      "v": 104
    },
    {
      "midi": 67,
      "hit": false,
      "t": 98117.59799999998,
      "d": 567.6467750000011,
      "v": 100
    },
    {
      "midi": 48,
      "hit": false,
      "t": 98470.53899999998,
      "d": 179.41167499999574,
      "v": 89
    },
    {
      "midi": 59,
      "hit": false,
      "t": 98823.47999999998,
      "d": 185.2940249999956,
      "v": 108
    },
    {
      "midi": 64,
      "hit": false,
      "t": 98823.47999999998,
      "d": 563.2350124999939,
      "v": 108
    },
    {
      "midi": 67,
      "hit": false,
      "t": 98823.47999999998,
      "d": 570.587950000001,
      "v": 108
    },
    {
      "midi": 52,
      "hit": false,
      "t": 98823.47999999998,
      "d": 633.8232125000068,
      "v": 100
    },
    {
      "midi": 40,
      "hit": false,
      "t": 98823.47999999998,
      "d": 949.9995250000356,
      "v": 100
    },
    {
      "midi": 59,
      "hit": false,
      "t": 99176.42099999997,
      "d": 210.29401250000228,
      "v": 97
    },
    {
      "midi": 52,
      "hit": false,
      "t": 99529.362,
      "d": 219.11753750000207,
      "v": 104
    },
    {
      "midi": 64,
      "hit": false,
      "t": 99529.362,
      "d": 241.17635000000882,
      "v": 112
    },
    {
      "midi": 59,
      "hit": false,
      "t": 99529.362,
      "d": 242.64693750001607,
      "v": 108
    },
    {
      "midi": 67,
      "hit": false,
      "t": 99529.362,
      "d": 258.82340000002296,
      "v": 108
    },
    {
      "midi": 60,
      "hit": false,
      "t": 99882.30300000001,
      "d": 252.941049999994,
      "v": 127
    },
    {
      "midi": 64,
      "hit": false,
      "t": 99882.30300000001,
      "d": 979.4112749999767,
      "v": 122
    },
    {
      "midi": 67,
      "hit": false,
      "t": 99882.30300000001,
      "d": 985.2936249999766,
      "v": 122
    },
    {
      "midi": 48,
      "hit": false,
      "t": 99882.30300000001,
      "d": 1295.5875874999765,
      "v": 122
    },
    {
      "midi": 60,
      "hit": false,
      "t": 100235.244,
      "d": 199.99989999999525,
      "v": 85
    },
    {
      "midi": 60,
      "hit": false,
      "t": 100588.185,
      "d": 235.2939999999944,
      "v": 65
    },
    {
      "midi": 60,
      "hit": false,
      "t": 100941.12599999999,
      "d": 445.58801250001125,
      "v": 117
    },
    {
      "midi": 64,
      "hit": false,
      "t": 100941.12599999999,
      "d": 452.94095000001835,
      "v": 117
    },
    {
      "midi": 67,
      "hit": false,
      "t": 100941.12599999999,
      "d": 472.05858750002517,
      "v": 117
    },
    {
      "midi": 48,
      "hit": false,
      "t": 101294.067,
      "d": 191.17637500002456,
      "v": 104
    },
    {
      "midi": 64,
      "hit": false,
      "t": 101647.00800000002,
      "d": 563.2350125000085,
      "v": 108
    },
    {
      "midi": 67,
      "hit": false,
      "t": 101647.00800000002,
      "d": 570.5879500000156,
      "v": 108
    },
    {
      "midi": 52,
      "hit": false,
      "t": 101647.00800000002,
      "d": 633.8232125000213,
      "v": 100
    },
    {
      "midi": 40,
      "hit": false,
      "t": 101647.00800000002,
      "d": 949.9995250000502,
      "v": 100
    },
    {
      "midi": 59,
      "hit": false,
      "t": 101999.94900000002,
      "d": 210.29401250000228,
      "v": 97
    },
    {
      "midi": 52,
      "hit": false,
      "t": 102352.89000000004,
      "d": 219.11753750000207,
      "v": 104
    },
    {
      "midi": 64,
      "hit": false,
      "t": 102352.89000000004,
      "d": 241.17635000000882,
      "v": 112
    },
    {
      "midi": 59,
      "hit": false,
      "t": 102352.89000000004,
      "d": 242.64693750001607,
      "v": 108
    },
    {
      "midi": 67,
      "hit": false,
      "t": 102352.89000000004,
      "d": 258.82340000002296,
      "v": 108
    },
    {
      "midi": 60,
      "hit": false,
      "t": 102705.83100000006,
      "d": 252.941049999994,
      "v": 127
    },
    {
      "midi": 64,
      "hit": false,
      "t": 102705.83100000006,
      "d": 979.4112749999767,
      "v": 122
    },
    {
      "midi": 67,
      "hit": false,
      "t": 102705.83100000006,
      "d": 985.2936249999766,
      "v": 122
    },
    {
      "midi": 48,
      "hit": false,
      "t": 102705.83100000006,
      "d": 1295.5875874999765,
      "v": 122
    },
    {
      "midi": 60,
      "hit": false,
      "t": 103058.77200000006,
      "d": 199.99989999999525,
      "v": 85
    },
    {
      "midi": 60,
      "hit": false,
      "t": 103411.71300000005,
      "d": 235.2939999999944,
      "v": 65
    },
    {
      "midi": 60,
      "hit": false,
      "t": 103764.65400000004,
      "d": 445.58801250001125,
      "v": 117
    },
    {
      "midi": 64,
      "hit": false,
      "t": 103764.65400000004,
      "d": 452.94095000001835,
      "v": 117
    },
    {
      "midi": 67,
      "hit": false,
      "t": 103764.65400000004,
      "d": 472.05858750002517,
      "v": 117
    },
    {
      "midi": 48,
      "hit": false,
      "t": 104117.59500000004,
      "d": 191.17637500002456,
      "v": 104
    },
    {
      "midi": 59,
      "hit": false,
      "t": 104470.53600000007,
      "d": 447.05860000000393,
      "v": 112
    },
    {
      "midi": 62,
      "hit": false,
      "t": 104470.53600000007,
      "d": 672.0584875000059,
      "v": 108
    },
    {
      "midi": 67,
      "hit": false,
      "t": 104470.53600000007,
      "d": 905.8819000000076,
      "v": 112
    },
    {
      "midi": 47,
      "hit": false,
      "t": 104470.53600000007,
      "d": 977.9406875000132,
      "v": 127
    },
    {
      "midi": 62,
      "hit": false,
      "t": 105176.41800000008,
      "d": 194.1175499999954,
      "v": 38
    },
    {
      "midi": 59,
      "hit": false,
      "t": 105176.41800000008,
      "d": 222.058712500002,
      "v": 97
    },
    {
      "midi": 57,
      "hit": false,
      "t": 105529.35900000008,
      "d": 513.2350374999951,
      "v": 104
    },
    {
      "midi": 62,
      "hit": false,
      "t": 105529.35900000008,
      "d": 924.9995374999999,
      "v": 117
    },
    {
      "midi": 66,
      "hit": false,
      "t": 105529.35900000008,
      "d": 924.9995374999999,
      "v": 118
    },
    {
      "midi": 50,
      "hit": false,
      "t": 105529.35900000008,
      "d": 1186.7641125000082,
      "v": 125
    },
    {
      "midi": 57,
      "hit": false,
      "t": 106235.24100000008,
      "d": 210.29401250000228,
      "v": 85
    },
    {
      "midi": 57,
      "hit": false,
      "t": 106588.18200000009,
      "d": 495.58798750001006,
      "v": 108
    },
    {
      "midi": 66,
      "hit": false,
      "t": 106588.18200000009,
      "d": 499.99975000001723,
      "v": 127
    },
    {
      "midi": 62,
      "hit": false,
      "t": 106588.18200000009,
      "d": 508.823275000017,
      "v": 112
    },
    {
      "midi": 50,
      "hit": false,
      "t": 106941.1230000001,
      "d": 170.5881500000105,
      "v": 127
    },
    {
      "midi": 59,
      "hit": false,
      "t": 107294.0640000001,
      "d": 319.1174874999997,
      "v": 117
    },
    {
      "midi": 67,
      "hit": false,
      "t": 107294.0640000001,
      "d": 577.9408875000081,
      "v": 127
    },
    {
      "midi": 43,
      "hit": false,
      "t": 107294.0640000001,
      "d": 2514.7046250000276,
      "v": 122
    },
    {
      "midi": 59,
      "hit": false,
      "t": 107647.0050000001,
      "d": 230.8822375000018,
      "v": 36
    },
    {
      "midi": 59,
      "hit": false,
      "t": 107999.94600000011,
      "d": 177.94108750000305,
      "v": 108
    },
    {
      "midi": 62,
      "hit": false,
      "t": 107999.94600000011,
      "d": 261.76457500000834,
      "v": 117
    },
    {
      "midi": 55,
      "hit": false,
      "t": 107999.94600000011,
      "d": 463.2350625000108,
      "v": 122
    },
    {
      "midi": 67,
      "hit": false,
      "t": 107999.94600000011,
      "d": 1136.764137500024,
      "v": 122
    },
    {
      "midi": 59,
      "hit": false,
      "t": 108352.88700000012,
      "d": 519.1173875000095,
      "v": 117
    },
    {
      "midi": 62,
      "hit": false,
      "t": 108352.88700000012,
      "d": 651.4702625000064,
      "v": 92
    },
    {
      "midi": 55,
      "hit": false,
      "t": 108705.82800000013,
      "d": 835.2937000000093,
      "v": 117
    },
    {
      "midi": 59,
      "hit": false,
      "t": 109058.76900000013,
      "d": 188.23520000001008,
      "v": 82
    },
    {
      "midi": 59,
      "hit": false,
      "t": 109411.71000000014,
      "d": 344.1174749999918,
      "v": 108
    },
    {
      "midi": 62,
      "hit": false,
      "t": 109411.71000000014,
      "d": 391.1762749999907,
      "v": 117
    },
    {
      "midi": 67,
      "hit": false,
      "t": 109411.71000000014,
      "d": 520.5879749999876,
      "v": 122
    },
    {
      "midi": 55,
      "hit": false,
      "t": 109764.65100000013,
      "d": 205.8822499999951,
      "v": 108
    },
    {
      "midi": 57,
      "hit": false,
      "t": 109941.12150000012,
      "d": 76.47054999999818,
      "v": 79
    },
    {
      "midi": 57,
      "hit": false,
      "t": 110117.59200000012,
      "d": 624.999687500007,
      "v": 100
    },
    {
      "midi": 66,
      "hit": false,
      "t": 110117.59200000012,
      "d": 627.9408625000069,
      "v": 113
    },
    {
      "midi": 62,
      "hit": false,
      "t": 110117.59200000012,
      "d": 633.8232125000068,
      "v": 122
    },
    {
      "midi": 57,
      "hit": false,
      "t": 110823.47400000013,
      "d": 216.17636250000214,
      "v": 104
    },
    {
      "midi": 62,
      "hit": false,
      "t": 110823.47400000013,
      "d": 277.9410375000007,
      "v": 112
    },
    {
      "midi": 66,
      "hit": false,
      "t": 110823.47400000013,
      "d": 301.4704375000001,
      "v": 113
    },
    {
      "midi": 57,
      "hit": false,
      "t": 111176.41500000014,
      "d": 152.94109999999637,
      "v": 85
    },
    {
      "midi": 66,
      "hit": false,
      "t": 111176.41500000014,
      "d": 216.17636250000214,
      "v": 77
    },
    {
      "midi": 62,
      "hit": false,
      "t": 111176.41500000014,
      "d": 238.2351750000089,
      "v": 79
    },
    {
      "midi": 57,
      "hit": false,
      "t": 111529.35600000015,
      "d": 326.4704250000068,
      "v": 112
    },
    {
      "midi": 66,
      "hit": false,
      "t": 111529.35600000015,
      "d": 617.6467500000144,
      "v": 113
    },
    {
      "midi": 57,
      "hit": false,
      "t": 111882.29700000015,
      "d": 219.11753750000207,
      "v": 62
    },
    {
      "midi": 57,
      "hit": false,
      "t": 112235.23800000016,
      "d": 183.8234375000029,
      "v": 89
    },
    {
      "midi": 66,
      "hit": false,
      "t": 112235.23800000016,
      "d": 529.4115000000165,
      "v": 118
    },
    {
      "midi": 62,
      "hit": false,
      "t": 112235.23800000016,
      "d": 570.5879500000156,
      "v": 127
    },
    {
      "midi": 57,
      "hit": false,
      "t": 112588.17900000016,
      "d": 145.58816250000382,
      "v": 92
    },
    {
      "midi": 59,
      "hit": false,
      "t": 112941.12000000017,
      "d": 455.8821250000037,
      "v": 117
    },
    {
      "midi": 67,
      "hit": false,
      "t": 112941.12000000017,
      "d": 576.4703000000009,
      "v": 122
    },
    {
      "midi": 64,
      "hit": false,
      "t": 113294.06100000018,
      "d": 255.88222499999392,
      "v": 85
    },
    {
      "midi": 59,
      "hit": false,
      "t": 113647.00200000017,
      "d": 227.94106250000186,
      "v": 97
    },
    {
      "midi": 64,
      "hit": false,
      "t": 113647.00200000017,
      "d": 230.8822375000018,
      "v": 92
    },
    {
      "midi": 67,
      "hit": false,
      "t": 113647.00200000017,
      "d": 248.52928750000137,
      "v": 82
    },
    {
      "midi": 59,
      "hit": false,
      "t": 113999.94300000017,
      "d": 491.1762250000029,
      "v": 122
    },
    {
      "midi": 64,
      "hit": false,
      "t": 113999.94300000017,
      "d": 916.1760125000001,
      "v": 127
    },
    {
      "midi": 67,
      "hit": false,
      "t": 113999.94300000017,
      "d": 919.1171875,
      "v": 122
    },
    {
      "midi": 59,
      "hit": false,
      "t": 114705.82500000017,
      "d": 236.76458750000165,
      "v": 79
    },
    {
      "midi": 59,
      "hit": false,
      "t": 115058.76600000018,
      "d": 289.7057375000004,
      "v": 112
    },
    {
      "midi": 64,
      "hit": false,
      "t": 115058.76600000018,
      "d": 294.11750000000757,
      "v": 117
    },
    {
      "midi": 67,
      "hit": false,
      "t": 115058.76600000018,
      "d": 316.1763125000143,
      "v": 108
    },
    {
      "midi": 59,
      "hit": false,
      "t": 115411.7070000002,
      "d": 170.58814999999595,
      "v": 69
    },
    {
      "midi": 64,
      "hit": false,
      "t": 115411.7070000002,
      "d": 232.35282499999448,
      "v": 82
    },
    {
      "midi": 67,
      "hit": false,
      "t": 115411.7070000002,
      "d": 242.6469375000015,
      "v": 76
    },
    {
      "midi": 60,
      "hit": false,
      "t": 115764.6480000002,
      "d": 530.8820875000092,
      "v": 122
    },
    {
      "midi": 67,
      "hit": false,
      "t": 115764.6480000002,
      "d": 636.7643875000067,
      "v": 127
    },
    {
      "midi": 62,
      "hit": false,
      "t": 115764.6480000002,
      "d": 652.9408500000136,
      "v": 117
    },
    {
      "midi": 74,
      "hit": false,
      "t": 116117.58900000021,
      "d": 314.7057250000071,
      "v": 100
    },
    {
      "midi": 60,
      "hit": false,
      "t": 116470.53000000022,
      "d": 195.58813750000263,
      "v": 92
    },
    {
      "midi": 67,
      "hit": false,
      "t": 116470.53000000022,
      "d": 211.76460000000952,
      "v": 76
    },
    {
      "midi": 62,
      "hit": false,
      "t": 116470.53000000022,
      "d": 227.94106250001641,
      "v": 70
    },
    {
      "midi": 79,
      "hit": false,
      "t": 116470.53000000022,
      "d": 310.29396250001446,
      "v": 127
    },
    {
      "midi": 74,
      "hit": false,
      "t": 116823.47100000024,
      "d": 316.17631249999977,
      "v": 89
    },
    {
      "midi": 60,
      "hit": false,
      "t": 116823.47100000024,
      "d": 567.6467750000011,
      "v": 122
    },
    {
      "midi": 62,
      "hit": false,
      "t": 116823.47100000024,
      "d": 970.587750000006,
      "v": 100
    },
    {
      "midi": 67,
      "hit": false,
      "t": 116823.47100000024,
      "d": 992.6465625000128,
      "v": 117
    },
    {
      "midi": 79,
      "hit": false,
      "t": 117176.41200000024,
      "d": 351.47041249999893,
      "v": 122
    },
    {
      "midi": 60,
      "hit": false,
      "t": 117529.35300000025,
      "d": 283.82338750000054,
      "v": 97
    },
    {
      "midi": 74,
      "hit": false,
      "t": 117529.35300000025,
      "d": 369.11746250001306,
      "v": 108
    },
    {
      "midi": 60,
      "hit": false,
      "t": 117882.29400000026,
      "d": 297.0586750000075,
      "v": 122
    },
    {
      "midi": 62,
      "hit": false,
      "t": 117882.29400000026,
      "d": 535.2938500000164,
      "v": 104
    },
    {
      "midi": 67,
      "hit": false,
      "t": 117882.29400000026,
      "d": 548.5291375000234,
      "v": 112
    },
    {
      "midi": 81,
      "hit": false,
      "t": 117888.17635000026,
      "d": 363.2351125000132,
      "v": 122
    },
    {
      "midi": 60,
      "hit": false,
      "t": 118235.23500000026,
      "d": 136.76463750000403,
      "v": 108
    },
    {
      "midi": 74,
      "hit": false,
      "t": 118235.23500000026,
      "d": 304.4116125000146,
      "v": 112
    },
    {
      "midi": 72,
      "hit": false,
      "t": 118588.17600000028,
      "d": 311.76455000000715,
      "v": 127
    },
    {
      "midi": 43,
      "hit": false,
      "t": 118588.17600000028,
      "d": 2514.704625000042,
      "v": 122
    },
    {
      "midi": 62,
      "hit": false,
      "t": 118941.11700000029,
      "d": 1249.999375000014,
      "v": 127
    },
    {
      "midi": 72,
      "hit": false,
      "t": 119294.0580000003,
      "d": 311.76455000000715,
      "v": 127
    },
    {
      "midi": 71,
      "hit": false,
      "t": 119646.9990000003,
      "d": 680.8820125000057,
      "v": 112
    },
    {
      "midi": 62,
      "hit": false,
      "t": 120352.88100000031,
      "d": 445.58801250001125,
      "v": 127
    },
    {
      "midi": 71,
      "hit": false,
      "t": 120705.82200000032,
      "d": 649.9996749999991,
      "v": 127
    },
    {
      "midi": 62,
      "hit": false,
      "t": 121058.76300000033,
      "d": 308.82337499999267,
      "v": 127
    },
    {
      "midi": 57,
      "hit": false,
      "t": 121411.70400000032,
      "d": 624.999687500007,
      "v": 100
    },
    {
      "midi": 66,
      "hit": false,
      "t": 121411.70400000032,
      "d": 627.9408625000069,
      "v": 113
    },
    {
      "midi": 62,
      "hit": false,
      "t": 121411.70400000032,
      "d": 633.8232125000068,
      "v": 122
    },
    {
      "midi": 57,
      "hit": false,
      "t": 122117.58600000033,
      "d": 216.17636250000214,
      "v": 104
    },
    {
      "midi": 62,
      "hit": false,
      "t": 122117.58600000033,
      "d": 277.9410375000007,
      "v": 112
    },
    {
      "midi": 66,
      "hit": false,
      "t": 122117.58600000033,
      "d": 301.4704375000001,
      "v": 113
    },
    {
      "midi": 57,
      "hit": false,
      "t": 122470.52700000034,
      "d": 152.94109999999637,
      "v": 85
    },
    {
      "midi": 66,
      "hit": false,
      "t": 122470.52700000034,
      "d": 216.17636250000214,
      "v": 77
    },
    {
      "midi": 62,
      "hit": false,
      "t": 122470.52700000034,
      "d": 238.2351750000089,
      "v": 79
    },
    {
      "midi": 57,
      "hit": false,
      "t": 122823.46800000034,
      "d": 326.4704250000068,
      "v": 112
    },
    {
      "midi": 66,
      "hit": false,
      "t": 122823.46800000034,
      "d": 617.6467500000144,
      "v": 113
    },
    {
      "midi": 57,
      "hit": false,
      "t": 123176.40900000035,
      "d": 219.11753750000207,
      "v": 62
    },
    {
      "midi": 57,
      "hit": false,
      "t": 123529.35000000036,
      "d": 183.8234375000029,
      "v": 89
    },
    {
      "midi": 66,
      "hit": false,
      "t": 123529.35000000036,
      "d": 529.4115000000165,
      "v": 118
    },
    {
      "midi": 62,
      "hit": false,
      "t": 123529.35000000036,
      "d": 570.5879500000156,
      "v": 127
    },
    {
      "midi": 57,
      "hit": false,
      "t": 123882.29100000036,
      "d": 145.58816250000382,
      "v": 92
    },
    {
      "midi": 59,
      "hit": false,
      "t": 124235.23200000037,
      "d": 455.8821250000037,
      "v": 117
    },
    {
      "midi": 67,
      "hit": false,
      "t": 124235.23200000037,
      "d": 576.4703000000009,
      "v": 122
    },
    {
      "midi": 64,
      "hit": false,
      "t": 124588.17300000037,
      "d": 255.88222499999392,
      "v": 85
    },
    {
      "midi": 59,
      "hit": false,
      "t": 124941.11400000037,
      "d": 227.94106250000186,
      "v": 97
    },
    {
      "midi": 64,
      "hit": false,
      "t": 124941.11400000037,
      "d": 230.8822375000018,
      "v": 92
    },
    {
      "midi": 67,
      "hit": false,
      "t": 124941.11400000037,
      "d": 248.52928750000137,
      "v": 82
    },
    {
      "midi": 59,
      "hit": false,
      "t": 125294.05500000037,
      "d": 491.1762250000029,
      "v": 122
    },
    {
      "midi": 64,
      "hit": false,
      "t": 125294.05500000037,
      "d": 916.1760125000001,
      "v": 127
    },
    {
      "midi": 67,
      "hit": false,
      "t": 125294.05500000037,
      "d": 919.1171875,
      "v": 122
    },
    {
      "midi": 59,
      "hit": false,
      "t": 125999.93700000037,
      "d": 236.76458750000165,
      "v": 79
    },
    {
      "midi": 59,
      "hit": false,
      "t": 126352.87800000038,
      "d": 289.7057375000004,
      "v": 112
    },
    {
      "midi": 64,
      "hit": false,
      "t": 126352.87800000038,
      "d": 294.11750000000757,
      "v": 117
    },
    {
      "midi": 67,
      "hit": false,
      "t": 126352.87800000038,
      "d": 316.1763125000143,
      "v": 108
    },
    {
      "midi": 59,
      "hit": false,
      "t": 126705.8190000004,
      "d": 170.58814999999595,
      "v": 69
    },
    {
      "midi": 64,
      "hit": false,
      "t": 126705.8190000004,
      "d": 232.35282499999448,
      "v": 82
    },
    {
      "midi": 67,
      "hit": false,
      "t": 126705.8190000004,
      "d": 242.6469375000015,
      "v": 76
    },
    {
      "midi": 60,
      "hit": false,
      "t": 127058.7600000004,
      "d": 530.8820874999947,
      "v": 122
    },
    {
      "midi": 67,
      "hit": false,
      "t": 127058.7600000004,
      "d": 636.7643874999922,
      "v": 127
    },
    {
      "midi": 62,
      "hit": false,
      "t": 127058.7600000004,
      "d": 652.940849999999,
      "v": 117
    },
    {
      "midi": 60,
      "hit": false,
      "t": 127764.6420000004,
      "d": 195.58813750000263,
      "v": 92
    },
    {
      "midi": 67,
      "hit": false,
      "t": 127764.6420000004,
      "d": 211.76460000000952,
      "v": 76
    },
    {
      "midi": 62,
      "hit": false,
      "t": 127764.6420000004,
      "d": 227.94106250001641,
      "v": 70
    },
    {
      "midi": 60,
      "hit": false,
      "t": 128117.58300000042,
      "d": 567.6467750000011,
      "v": 122
    },
    {
      "midi": 62,
      "hit": false,
      "t": 128117.58300000042,
      "d": 970.5877499999915,
      "v": 100
    },
    {
      "midi": 67,
      "hit": false,
      "t": 128117.58300000042,
      "d": 992.6465624999983,
      "v": 117
    },
    {
      "midi": 60,
      "hit": false,
      "t": 128823.46500000042,
      "d": 283.82338750000054,
      "v": 97
    },
    {
      "midi": 60,
      "hit": false,
      "t": 129176.40600000042,
      "d": 297.05867499999295,
      "v": 122
    },
    {
      "midi": 62,
      "hit": false,
      "t": 129176.40600000042,
      "d": 535.2938500000018,
      "v": 104
    },
    {
      "midi": 67,
      "hit": false,
      "t": 129176.40600000042,
      "d": 548.5291375000088,
      "v": 112
    },
    {
      "midi": 60,
      "hit": false,
      "t": 129529.34700000042,
      "d": 136.76463750000403,
      "v": 108
    },
    {
      "midi": 59,
      "hit": false,
      "t": 129882.28800000044,
      "d": 319.1174874999997,
      "v": 117
    },
    {
      "midi": 67,
      "hit": false,
      "t": 129882.28800000044,
      "d": 577.9408875000081,
      "v": 127
    },
    {
      "midi": 43,
      "hit": false,
      "t": 129882.28800000044,
      "d": 2514.704625000042,
      "v": 122
    },
    {
      "midi": 59,
      "hit": false,
      "t": 130235.22900000044,
      "d": 230.8822375000018,
      "v": 36
    },
    {
      "midi": 59,
      "hit": false,
      "t": 130588.17000000045,
      "d": 177.94108750000305,
      "v": 108
    },
    {
      "midi": 62,
      "hit": false,
      "t": 130588.17000000045,
      "d": 261.76457500000834,
      "v": 117
    },
    {
      "midi": 55,
      "hit": false,
      "t": 130588.17000000045,
      "d": 463.2350625000108,
      "v": 122
    },
    {
      "midi": 67,
      "hit": false,
      "t": 130588.17000000045,
      "d": 1136.7641374999948,
      "v": 122
    },
    {
      "midi": 59,
      "hit": false,
      "t": 130941.11100000046,
      "d": 519.117387499995,
      "v": 117
    },
    {
      "midi": 62,
      "hit": false,
      "t": 130941.11100000046,
      "d": 651.4702625000064,
      "v": 92
    },
    {
      "midi": 55,
      "hit": false,
      "t": 131294.05200000046,
      "d": 835.2936999999802,
      "v": 117
    },
    {
      "midi": 59,
      "hit": false,
      "t": 131646.99300000045,
      "d": 188.23519999999553,
      "v": 82
    },
    {
      "midi": 59,
      "hit": false,
      "t": 131999.93400000044,
      "d": 344.1174750000064,
      "v": 108
    },
    {
      "midi": 62,
      "hit": false,
      "t": 131999.93400000044,
      "d": 391.17627500003437,
      "v": 117
    },
    {
      "midi": 67,
      "hit": false,
      "t": 131999.93400000044,
      "d": 520.5879750000313,
      "v": 122
    },
    {
      "midi": 55,
      "hit": false,
      "t": 132352.87500000047,
      "d": 205.88225000002421,
      "v": 108
    },
    {
      "midi": 57,
      "hit": false,
      "t": 132529.3455000005,
      "d": 76.47054999999818,
      "v": 79
    },
    {
      "midi": 57,
      "hit": false,
      "t": 132705.8160000005,
      "d": 624.999687500007,
      "v": 100
    },
    {
      "midi": 66,
      "hit": false,
      "t": 132705.8160000005,
      "d": 627.9408625000215,
      "v": 113
    },
    {
      "midi": 62,
      "hit": false,
      "t": 132705.8160000005,
      "d": 633.8232125000213,
      "v": 122
    },
    {
      "midi": 57,
      "hit": false,
      "t": 133411.6980000005,
      "d": 216.17636250000214,
      "v": 104
    },
    {
      "midi": 62,
      "hit": false,
      "t": 133411.6980000005,
      "d": 277.9410375000152,
      "v": 112
    },
    {
      "midi": 66,
      "hit": false,
      "t": 133411.6980000005,
      "d": 301.47043750001467,
      "v": 113
    },
    {
      "midi": 57,
      "hit": false,
      "t": 133764.63900000052,
      "d": 152.94109999999637,
      "v": 85
    },
    {
      "midi": 66,
      "hit": false,
      "t": 133764.63900000052,
      "d": 216.17636250000214,
      "v": 77
    },
    {
      "midi": 62,
      "hit": false,
      "t": 133764.63900000052,
      "d": 238.2351750000089,
      "v": 79
    },
    {
      "midi": 57,
      "hit": false,
      "t": 134117.58000000054,
      "d": 326.4704250000068,
      "v": 112
    },
    {
      "midi": 66,
      "hit": false,
      "t": 134117.58000000054,
      "d": 617.6467500000144,
      "v": 113
    },
    {
      "midi": 57,
      "hit": false,
      "t": 134470.52100000056,
      "d": 219.11753749998752,
      "v": 62
    },
    {
      "midi": 57,
      "hit": false,
      "t": 134823.46200000055,
      "d": 183.82343749998836,
      "v": 89
    },
    {
      "midi": 66,
      "hit": false,
      "t": 134823.46200000055,
      "d": 529.4114999999874,
      "v": 118
    },
    {
      "midi": 62,
      "hit": false,
      "t": 134823.46200000055,
      "d": 570.5879499999864,
      "v": 127
    },
    {
      "midi": 57,
      "hit": false,
      "t": 135176.40300000054,
      "d": 145.58816250000382,
      "v": 92
    },
    {
      "midi": 59,
      "hit": false,
      "t": 135529.34400000054,
      "d": 455.8821250000037,
      "v": 117
    },
    {
      "midi": 67,
      "hit": false,
      "t": 135529.34400000054,
      "d": 576.4703000000154,
      "v": 122
    },
    {
      "midi": 64,
      "hit": false,
      "t": 135882.28500000053,
      "d": 255.88222500003758,
      "v": 85
    },
    {
      "midi": 59,
      "hit": false,
      "t": 136235.22600000058,
      "d": 227.94106250000186,
      "v": 97
    },
    {
      "midi": 64,
      "hit": false,
      "t": 136235.22600000058,
      "d": 230.88223750001634,
      "v": 92
    },
    {
      "midi": 67,
      "hit": false,
      "t": 136235.22600000058,
      "d": 248.52928750001593,
      "v": 82
    },
    {
      "midi": 59,
      "hit": false,
      "t": 136588.1670000006,
      "d": 491.1762250000029,
      "v": 122
    },
    {
      "midi": 64,
      "hit": false,
      "t": 136588.1670000006,
      "d": 916.1760125000146,
      "v": 127
    },
    {
      "midi": 67,
      "hit": false,
      "t": 136588.1670000006,
      "d": 919.1171875000291,
      "v": 122
    },
    {
      "midi": 59,
      "hit": false,
      "t": 137294.0490000006,
      "d": 236.7645875000162,
      "v": 79
    },
    {
      "midi": 59,
      "hit": false,
      "t": 137646.99000000063,
      "d": 289.70573749998584,
      "v": 112
    },
    {
      "midi": 64,
      "hit": false,
      "t": 137646.99000000063,
      "d": 294.117499999993,
      "v": 117
    },
    {
      "midi": 67,
      "hit": false,
      "t": 137646.99000000063,
      "d": 316.17631249999977,
      "v": 108
    },
    {
      "midi": 59,
      "hit": false,
      "t": 137999.93100000062,
      "d": 170.58814999999595,
      "v": 69
    },
    {
      "midi": 64,
      "hit": false,
      "t": 137999.93100000062,
      "d": 232.35282500000903,
      "v": 82
    },
    {
      "midi": 67,
      "hit": false,
      "t": 137999.93100000062,
      "d": 242.64693750001607,
      "v": 76
    },
    {
      "midi": 60,
      "hit": false,
      "t": 138352.87200000064,
      "d": 530.8820874999801,
      "v": 122
    },
    {
      "midi": 67,
      "hit": false,
      "t": 138352.87200000064,
      "d": 636.7643874999776,
      "v": 127
    },
    {
      "midi": 62,
      "hit": false,
      "t": 138352.87200000064,
      "d": 652.9408499999845,
      "v": 117
    },
    {
      "midi": 74,
      "hit": false,
      "t": 138705.81300000063,
      "d": 314.7057250000071,
      "v": 100
    },
    {
      "midi": 60,
      "hit": false,
      "t": 139058.75400000066,
      "d": 195.58813749998808,
      "v": 92
    },
    {
      "midi": 67,
      "hit": false,
      "t": 139058.75400000066,
      "d": 211.76459999999497,
      "v": 76
    },
    {
      "midi": 62,
      "hit": false,
      "t": 139058.75400000066,
      "d": 227.94106250000186,
      "v": 70
    },
    {
      "midi": 79,
      "hit": false,
      "t": 139058.75400000066,
      "d": 310.2939624999999,
      "v": 127
    },
    {
      "midi": 74,
      "hit": false,
      "t": 139411.69500000065,
      "d": 316.17631249999977,
      "v": 89
    },
    {
      "midi": 60,
      "hit": false,
      "t": 139411.69500000065,
      "d": 567.6467750000011,
      "v": 122
    },
    {
      "midi": 62,
      "hit": false,
      "t": 139411.69500000065,
      "d": 970.587749999977,
      "v": 100
    },
    {
      "midi": 67,
      "hit": false,
      "t": 139411.69500000065,
      "d": 992.6465624999837,
      "v": 117
    },
    {
      "midi": 79,
      "hit": false,
      "t": 139764.63600000064,
      "d": 351.47041249999893,
      "v": 122
    },
    {
      "midi": 60,
      "hit": false,
      "t": 140117.57700000063,
      "d": 283.823387499986,
      "v": 97
    },
    {
      "midi": 74,
      "hit": false,
      "t": 140117.57700000063,
      "d": 369.1174624999985,
      "v": 108
    },
    {
      "midi": 60,
      "hit": false,
      "t": 140470.51800000062,
      "d": 297.0586750000075,
      "v": 122
    },
    {
      "midi": 62,
      "hit": false,
      "t": 140470.51800000062,
      "d": 535.2938500000455,
      "v": 104
    },
    {
      "midi": 67,
      "hit": false,
      "t": 140470.51800000062,
      "d": 548.5291375000379,
      "v": 112
    },
    {
      "midi": 81,
      "hit": false,
      "t": 140476.40035000062,
      "d": 363.23511250002775,
      "v": 122
    },
    {
      "midi": 60,
      "hit": false,
      "t": 140823.45900000064,
      "d": 136.76463750001858,
      "v": 108
    },
    {
      "midi": 74,
      "hit": false,
      "t": 140823.45900000064,
      "d": 304.41161250002915,
      "v": 112
    },
    {
      "midi": 72,
      "hit": false,
      "t": 141176.40000000066,
      "d": 311.7645499999926,
      "v": 127
    },
    {
      "midi": 43,
      "hit": false,
      "t": 141176.40000000066,
      "d": 2514.704624999955,
      "v": 122
    },
    {
      "midi": 62,
      "hit": false,
      "t": 141529.34100000066,
      "d": 1249.9993749999849,
      "v": 127
    },
    {
      "midi": 72,
      "hit": false,
      "t": 141882.28200000065,
      "d": 311.7645499999926,
      "v": 127
    },
    {
      "midi": 71,
      "hit": false,
      "t": 142235.22300000064,
      "d": 680.8820124999911,
      "v": 112
    },
    {
      "midi": 62,
      "hit": false,
      "t": 142941.10500000062,
      "d": 445.5880124999967,
      "v": 127
    },
    {
      "midi": 71,
      "hit": false,
      "t": 143294.0460000006,
      "d": 649.9996749999991,
      "v": 127
    },
    {
      "midi": 62,
      "hit": false,
      "t": 143646.9870000006,
      "d": 308.8233750000072,
      "v": 127
    },
    {
      "midi": 57,
      "hit": false,
      "t": 143999.92800000063,
      "d": 624.999687500007,
      "v": 100
    },
    {
      "midi": 66,
      "hit": false,
      "t": 143999.92800000063,
      "d": 627.9408625000215,
      "v": 113
    },
    {
      "midi": 62,
      "hit": false,
      "t": 143999.92800000063,
      "d": 633.8232125000213,
      "v": 122
    },
    {
      "midi": 57,
      "hit": false,
      "t": 144705.81000000064,
      "d": 216.17636250000214,
      "v": 104
    },
    {
      "midi": 62,
      "hit": false,
      "t": 144705.81000000064,
      "d": 277.9410375000152,
      "v": 112
    },
    {
      "midi": 66,
      "hit": false,
      "t": 144705.81000000064,
      "d": 301.47043750001467,
      "v": 113
    },
    {
      "midi": 57,
      "hit": false,
      "t": 145058.75100000066,
      "d": 152.94109999999637,
      "v": 85
    },
    {
      "midi": 66,
      "hit": false,
      "t": 145058.75100000066,
      "d": 216.17636250000214,
      "v": 77
    },
    {
      "midi": 62,
      "hit": false,
      "t": 145058.75100000066,
      "d": 238.2351750000089,
      "v": 79
    },
    {
      "midi": 57,
      "hit": false,
      "t": 145411.69200000068,
      "d": 326.4704250000068,
      "v": 112
    },
    {
      "midi": 66,
      "hit": false,
      "t": 145411.69200000068,
      "d": 617.6467500000144,
      "v": 113
    },
    {
      "midi": 57,
      "hit": false,
      "t": 145764.6330000007,
      "d": 219.11753749998752,
      "v": 62
    },
    {
      "midi": 57,
      "hit": false,
      "t": 146117.5740000007,
      "d": 183.82343749998836,
      "v": 89
    },
    {
      "midi": 66,
      "hit": false,
      "t": 146117.5740000007,
      "d": 529.4114999999874,
      "v": 118
    },
    {
      "midi": 62,
      "hit": false,
      "t": 146117.5740000007,
      "d": 570.5879499999864,
      "v": 127
    },
    {
      "midi": 57,
      "hit": false,
      "t": 146470.51500000068,
      "d": 145.58816250000382,
      "v": 92
    },
    {
      "midi": 59,
      "hit": false,
      "t": 146823.45600000067,
      "d": 455.8821250000037,
      "v": 117
    },
    {
      "midi": 67,
      "hit": false,
      "t": 146823.45600000067,
      "d": 576.4703000000154,
      "v": 122
    },
    {
      "midi": 64,
      "hit": false,
      "t": 147176.39700000067,
      "d": 255.88222500003758,
      "v": 85
    },
    {
      "midi": 59,
      "hit": false,
      "t": 147529.33800000072,
      "d": 227.94106250000186,
      "v": 97
    },
    {
      "midi": 64,
      "hit": false,
      "t": 147529.33800000072,
      "d": 230.88223750001634,
      "v": 92
    },
    {
      "midi": 67,
      "hit": false,
      "t": 147529.33800000072,
      "d": 248.52928750001593,
      "v": 82
    },
    {
      "midi": 59,
      "hit": false,
      "t": 147882.27900000074,
      "d": 491.1762250000029,
      "v": 122
    },
    {
      "midi": 64,
      "hit": false,
      "t": 147882.27900000074,
      "d": 916.1760125000146,
      "v": 127
    },
    {
      "midi": 67,
      "hit": false,
      "t": 147882.27900000074,
      "d": 919.1171875000291,
      "v": 122
    },
    {
      "midi": 59,
      "hit": false,
      "t": 148588.16100000075,
      "d": 236.7645875000162,
      "v": 79
    },
    {
      "midi": 59,
      "hit": false,
      "t": 148941.10200000077,
      "d": 289.70573749998584,
      "v": 112
    },
    {
      "midi": 64,
      "hit": false,
      "t": 148941.10200000077,
      "d": 294.117499999993,
      "v": 117
    },
    {
      "midi": 67,
      "hit": false,
      "t": 148941.10200000077,
      "d": 316.17631249999977,
      "v": 108
    },
    {
      "midi": 59,
      "hit": false,
      "t": 149294.04300000076,
      "d": 170.58814999999595,
      "v": 69
    },
    {
      "midi": 64,
      "hit": false,
      "t": 149294.04300000076,
      "d": 232.35282500000903,
      "v": 82
    },
    {
      "midi": 67,
      "hit": false,
      "t": 149294.04300000076,
      "d": 242.64693750001607,
      "v": 76
    },
    {
      "midi": 60,
      "hit": false,
      "t": 149646.98400000078,
      "d": 530.8820875000092,
      "v": 122
    },
    {
      "midi": 67,
      "hit": false,
      "t": 149646.98400000078,
      "d": 636.7643875000067,
      "v": 127
    },
    {
      "midi": 62,
      "hit": false,
      "t": 149646.98400000078,
      "d": 652.9408500000136,
      "v": 117
    },
    {
      "midi": 60,
      "hit": false,
      "t": 150352.8660000008,
      "d": 195.58813749998808,
      "v": 92
    },
    {
      "midi": 67,
      "hit": false,
      "t": 150352.8660000008,
      "d": 211.76459999999497,
      "v": 76
    },
    {
      "midi": 62,
      "hit": false,
      "t": 150352.8660000008,
      "d": 227.94106250000186,
      "v": 70
    },
    {
      "midi": 60,
      "hit": false,
      "t": 150705.8070000008,
      "d": 567.6467750000011,
      "v": 122
    },
    {
      "midi": 62,
      "hit": false,
      "t": 150705.8070000008,
      "d": 970.587750000006,
      "v": 100
    },
    {
      "midi": 67,
      "hit": false,
      "t": 150705.8070000008,
      "d": 992.6465625000128,
      "v": 117
    },
    {
      "midi": 60,
      "hit": false,
      "t": 151411.6890000008,
      "d": 283.823387499986,
      "v": 97
    },
    {
      "midi": 60,
      "hit": false,
      "t": 151764.6300000008,
      "d": 297.0586750000075,
      "v": 122
    },
    {
      "midi": 62,
      "hit": false,
      "t": 151764.6300000008,
      "d": 535.2938500000164,
      "v": 104
    },
    {
      "midi": 67,
      "hit": false,
      "t": 151764.6300000008,
      "d": 548.5291375000088,
      "v": 112
    },
    {
      "midi": 60,
      "hit": false,
      "t": 152117.5710000008,
      "d": 136.76463749998948,
      "v": 108
    },
    {
      "midi": 55,
      "hit": false,
      "t": 158117.56800000079,
      "d": 323.5292499999923,
      "v": 117
    },
    {
      "midi": 62,
      "hit": false,
      "t": 158117.56800000079,
      "d": 585.2938250000007,
      "v": 117
    },
    {
      "midi": 59,
      "hit": false,
      "t": 158117.56800000079,
      "d": 591.1761750000005,
      "v": 122
    },
    {
      "midi": 47,
      "hit": false,
      "t": 158470.50900000078,
      "d": 557.3526625000231,
      "v": 108
    },
    {
      "midi": 55,
      "hit": false,
      "t": 158823.4500000008,
      "d": 208.8234250000096,
      "v": 97
    },
    {
      "midi": 59,
      "hit": false,
      "t": 158823.4500000008,
      "d": 219.11753750001662,
      "v": 92
    },
    {
      "midi": 62,
      "hit": false,
      "t": 158823.4500000008,
      "d": 220.5881250000093,
      "v": 92
    },
    {
      "midi": 55,
      "hit": false,
      "t": 159176.39100000082,
      "d": 317.64689999999246,
      "v": 108
    },
    {
      "midi": 64,
      "hit": false,
      "t": 159176.39100000082,
      "d": 972.0583374999696,
      "v": 108
    },
    {
      "midi": 60,
      "hit": false,
      "t": 159176.39100000082,
      "d": 980.881862499984,
      "v": 117
    },
    {
      "midi": 48,
      "hit": false,
      "t": 159176.39100000082,
      "d": 1286.7640624999767,
      "v": 127
    },
    {
      "midi": 55,
      "hit": false,
      "t": 159705.8025000008,
      "d": 145.58816250000382,
      "v": 85
    },
    {
      "midi": 55,
      "hit": false,
      "t": 159882.2730000008,
      "d": 235.2939999999944,
      "v": 79
    },
    {
      "midi": 55,
      "hit": false,
      "t": 160235.2140000008,
      "d": 574.9997124999936,
      "v": 108
    },
    {
      "midi": 60,
      "hit": false,
      "t": 160235.2140000008,
      "d": 589.7055875000078,
      "v": 127
    },
    {
      "midi": 64,
      "hit": false,
      "t": 160235.2140000008,
      "d": 601.4702875000075,
      "v": 117
    },
    {
      "midi": 48,
      "hit": false,
      "t": 160588.15500000078,
      "d": 291.17632500000764,
      "v": 117
    },
    {
      "midi": 55,
      "hit": false,
      "t": 160941.0960000008,
      "d": 566.1761874999793,
      "v": 117
    },
    {
      "midi": 64,
      "hit": false,
      "t": 160941.0960000008,
      "d": 589.7055874999787,
      "v": 122
    },
    {
      "midi": 59,
      "hit": false,
      "t": 160941.0960000008,
      "d": 594.1173499999859,
      "v": 127
    },
    {
      "midi": 40,
      "hit": false,
      "t": 161294.0370000008,
      "d": 710.2937624999904,
      "v": 117
    },
    {
      "midi": 55,
      "hit": false,
      "t": 161646.9780000008,
      "d": 226.47047500000917,
      "v": 100
    },
    {
      "midi": 52,
      "hit": false,
      "t": 161646.9780000008,
      "d": 227.94106250000186,
      "v": 127
    },
    {
      "midi": 59,
      "hit": false,
      "t": 161646.9780000008,
      "d": 241.17634999999427,
      "v": 108
    },
    {
      "midi": 64,
      "hit": false,
      "t": 161646.9780000008,
      "d": 263.235162500001,
      "v": 112
    },
    {
      "midi": 57,
      "hit": false,
      "t": 161999.91900000078,
      "d": 241.17634999999427,
      "v": 108
    },
    {
      "midi": 66,
      "hit": false,
      "t": 161999.91900000078,
      "d": 992.6465624999837,
      "v": 125
    },
    {
      "midi": 62,
      "hit": false,
      "t": 161999.91900000078,
      "d": 997.0583249999909,
      "v": 117
    },
    {
      "midi": 50,
      "hit": false,
      "t": 161999.91900000078,
      "d": 1235.2934999999998,
      "v": 127
    },
    {
      "midi": 57,
      "hit": false,
      "t": 162352.86000000077,
      "d": 205.8822499999951,
      "v": 108
    },
    {
      "midi": 57,
      "hit": false,
      "t": 162705.80100000076,
      "d": 255.88222500000848,
      "v": 97
    },
    {
      "midi": 66,
      "hit": false,
      "t": 163058.74200000078,
      "d": 489.7056374999811,
      "v": 125
    },
    {
      "midi": 62,
      "hit": false,
      "t": 163058.74200000078,
      "d": 519.1173874999804,
      "v": 122
    },
    {
      "midi": 57,
      "hit": false,
      "t": 163058.74200000078,
      "d": 535.2938499999873,
      "v": 112
    },
    {
      "midi": 50,
      "hit": false,
      "t": 163411.68300000078,
      "d": 247.05869999999413,
      "v": 127
    },
    {
      "midi": 64,
      "hit": false,
      "t": 163764.62400000077,
      "d": 598.5291124999931,
      "v": 108
    },
    {
      "midi": 59,
      "hit": false,
      "t": 163764.62400000077,
      "d": 604.4114624999929,
      "v": 127
    },
    {
      "midi": 55,
      "hit": false,
      "t": 164117.56500000076,
      "d": 258.82339999999385,
      "v": 73
    },
    {
      "midi": 64,
      "hit": false,
      "t": 164470.50600000075,
      "d": 602.9408750000002,
      "v": 117
    },
    {
      "midi": 59,
      "hit": false,
      "t": 164470.50600000075,
      "d": 604.4114624999929,
      "v": 112
    },
    {
      "midi": 48,
      "hit": false,
      "t": 164470.50600000075,
      "d": 2044.1166250000242,
      "v": 112
    },
    {
      "midi": 55,
      "hit": false,
      "t": 164823.44700000074,
      "d": 277.9410375000152,
      "v": 108
    },
    {
      "midi": 64,
      "hit": false,
      "t": 165176.38800000076,
      "d": 473.5291750000033,
      "v": 122
    },
    {
      "midi": 59,
      "hit": false,
      "t": 165176.38800000076,
      "d": 510.29386249999516,
      "v": 117
    },
    {
      "midi": 55,
      "hit": false,
      "t": 165529.32900000075,
      "d": 274.99986250000075,
      "v": 100
    },
    {
      "midi": 59,
      "hit": false,
      "t": 165882.27000000075,
      "d": 561.7644250000012,
      "v": 117
    },
    {
      "midi": 64,
      "hit": false,
      "t": 165882.27000000075,
      "d": 589.7055875000078,
      "v": 122
    },
    {
      "midi": 55,
      "hit": false,
      "t": 166235.21100000074,
      "d": 251.4704625000304,
      "v": 122
    },
    {
      "midi": 60,
      "hit": false,
      "t": 166588.1520000008,
      "d": 417.6468499999901,
      "v": 117
    },
    {
      "midi": 64,
      "hit": false,
      "t": 166588.1520000008,
      "d": 424.99978749998263,
      "v": 122
    },
    {
      "midi": 48,
      "hit": false,
      "t": 166588.1520000008,
      "d": 2291.1753250000183,
      "v": 112
    },
    {
      "midi": 55,
      "hit": false,
      "t": 166941.09300000078,
      "d": 297.0586749999784,
      "v": 104
    },
    {
      "midi": 64,
      "hit": false,
      "t": 167294.03400000077,
      "d": 544.1173750000016,
      "v": 122
    },
    {
      "midi": 60,
      "hit": false,
      "t": 167294.03400000077,
      "d": 561.7644250000012,
      "v": 117
    },
    {
      "midi": 55,
      "hit": false,
      "t": 167646.97500000076,
      "d": 283.8233875000151,
      "v": 92
    },
    {
      "midi": 55,
      "hit": false,
      "t": 167999.91600000078,
      "d": 49.999975000013364,
      "v": 79
    },
    {
      "midi": 64,
      "hit": false,
      "t": 167999.91600000078,
      "d": 497.05857500003185,
      "v": 117
    },
    {
      "midi": 62,
      "hit": false,
      "t": 167999.91600000078,
      "d": 595.5879375000368,
      "v": 122
    },
    {
      "midi": 55,
      "hit": false,
      "t": 168352.8570000008,
      "d": 294.1175000000221,
      "v": 100
    },
    {
      "midi": 55,
      "hit": false,
      "t": 168705.79800000082,
      "d": 30.88233749999199,
      "v": 70
    },
    {
      "midi": 62,
      "hit": false,
      "t": 168705.79800000082,
      "d": 474.999762499996,
      "v": 112
    },
    {
      "midi": 64,
      "hit": false,
      "t": 168705.79800000082,
      "d": 488.2350499999884,
      "v": 122
    },
    {
      "midi": 48,
      "hit": false,
      "t": 169058.73900000082,
      "d": 238.2351750000089,
      "v": 112
    },
    {
      "midi": 57,
      "hit": false,
      "t": 169411.68000000084,
      "d": 192.6469625000027,
      "v": 104
    },
    {
      "midi": 62,
      "hit": false,
      "t": 169411.68000000084,
      "d": 423.52919999998994,
      "v": 127
    },
    {
      "midi": 66,
      "hit": false,
      "t": 169411.68000000084,
      "d": 616.1761624999926,
      "v": 125
    },
    {
      "midi": 42,
      "hit": false,
      "t": 169411.68000000084,
      "d": 1045.5877125000115,
      "v": 118
    },
    {
      "midi": 57,
      "hit": false,
      "t": 169764.62100000083,
      "d": 207.3528374999878,
      "v": 104
    },
    {
      "midi": 57,
      "hit": false,
      "t": 170117.56200000082,
      "d": 216.17636250000214,
      "v": 100
    },
    {
      "midi": 66,
      "hit": false,
      "t": 170117.56200000082,
      "d": 244.11752500000875,
      "v": 113
    },
    {
      "midi": 62,
      "hit": false,
      "t": 170117.56200000082,
      "d": 247.05870000002324,
      "v": 122
    },
    {
      "midi": 59,
      "hit": false,
      "t": 170470.50300000084,
      "d": 217.64694999999483,
      "v": 112
    },
    {
      "midi": 62,
      "hit": false,
      "t": 170470.50300000084,
      "d": 358.8233499999915,
      "v": 112
    },
    {
      "midi": 67,
      "hit": false,
      "t": 170470.50300000084,
      "d": 633.8232124999922,
      "v": 127
    },
    {
      "midi": 43,
      "hit": false,
      "t": 170470.50300000084,
      "d": 1235.2934999999707,
      "v": 117
    },
    {
      "midi": 59,
      "hit": false,
      "t": 170823.44400000083,
      "d": 270.5880999999936,
      "v": 117
    },
    {
      "midi": 59,
      "hit": false,
      "t": 171176.38500000082,
      "d": 236.7645874999871,
      "v": 92
    },
    {
      "midi": 62,
      "hit": false,
      "t": 171176.38500000082,
      "d": 236.7645874999871,
      "v": 97
    },
    {
      "midi": 67,
      "hit": false,
      "t": 171176.38500000082,
      "d": 251.4704625000013,
      "v": 38
    },
    {
      "midi": 62,
      "hit": false,
      "t": 171529.32600000082,
      "d": 635.293800000014,
      "v": 117
    },
    {
      "midi": 59,
      "hit": false,
      "t": 171529.32600000082,
      "d": 642.6467375000066,
      "v": 108
    },
    {
      "midi": 67,
      "hit": false,
      "t": 171529.32600000082,
      "d": 667.6467249999987,
      "v": 122
    },
    {
      "midi": 43,
      "hit": false,
      "t": 171882.2670000008,
      "d": 249.99987500000861,
      "v": 122
    },
    {
      "midi": 55,
      "hit": false,
      "t": 172235.20800000083,
      "d": 191.17637500001,
      "v": 117
    },
    {
      "midi": 60,
      "hit": false,
      "t": 172235.20800000083,
      "d": 379.41157500003465,
      "v": 127
    },
    {
      "midi": 64,
      "hit": false,
      "t": 172235.20800000083,
      "d": 583.8232375000371,
      "v": 122
    },
    {
      "midi": 45,
      "hit": false,
      "t": 172235.20800000083,
      "d": 1038.234775000048,
      "v": 122
    },
    {
      "midi": 55,
      "hit": false,
      "t": 172588.14900000085,
      "d": 244.11752500000875,
      "v": 104
    },
    {
      "midi": 60,
      "hit": false,
      "t": 172764.61950000087,
      "d": 130.88228749998962,
      "v": 41
    },
    {
      "midi": 60,
      "hit": false,
      "t": 172941.09000000087,
      "d": 248.52928749998682,
      "v": 117
    },
    {
      "midi": 64,
      "hit": false,
      "t": 172941.09000000087,
      "d": 251.4704625000013,
      "v": 97
    },
    {
      "midi": 55,
      "hit": false,
      "t": 172941.09000000087,
      "d": 266.1763375000155,
      "v": 104
    },
    {
      "midi": 55,
      "hit": false,
      "t": 173294.0310000009,
      "d": 202.94107500000973,
      "v": 104
    },
    {
      "midi": 59,
      "hit": false,
      "t": 173294.0310000009,
      "d": 401.4703875000123,
      "v": 117
    },
    {
      "midi": 62,
      "hit": false,
      "t": 173294.0310000009,
      "d": 880.8819125000155,
      "v": 112
    },
    {
      "midi": 47,
      "hit": false,
      "t": 173294.0310000009,
      "d": 1166.1758875000232,
      "v": 127
    },
    {
      "midi": 55,
      "hit": false,
      "t": 173646.9720000009,
      "d": 263.235162500001,
      "v": 108
    },
    {
      "midi": 55,
      "hit": false,
      "t": 173999.9130000009,
      "d": 213.23518750001676,
      "v": 69
    },
    {
      "midi": 59,
      "hit": false,
      "t": 173999.9130000009,
      "d": 260.29398750001565,
      "v": 65
    },
    {
      "midi": 59,
      "hit": false,
      "t": 174352.85400000092,
      "d": 444.117425000004,
      "v": 117
    },
    {
      "midi": 62,
      "hit": false,
      "t": 174352.85400000092,
      "d": 520.5879750000022,
      "v": 108
    },
    {
      "midi": 55,
      "hit": false,
      "t": 174352.85400000092,
      "d": 630.8820375000068,
      "v": 117
    },
    {
      "midi": 47,
      "hit": false,
      "t": 174705.79500000092,
      "d": 308.8233750000072,
      "v": 122
    },
    {
      "midi": 55,
      "hit": false,
      "t": 175058.73600000094,
      "d": 198.52931250000256,
      "v": 97
    },
    {
      "midi": 60,
      "hit": false,
      "t": 175058.73600000094,
      "d": 619.1173375000071,
      "v": 122
    },
    {
      "midi": 64,
      "hit": false,
      "t": 175058.73600000094,
      "d": 619.1173375000071,
      "v": 112
    },
    {
      "midi": 48,
      "hit": false,
      "t": 175058.73600000094,
      "d": 2649.99867500001,
      "v": 127
    },
    {
      "midi": 55,
      "hit": false,
      "t": 175411.67700000093,
      "d": 238.2351750000089,
      "v": 97
    },
    {
      "midi": 55,
      "hit": false,
      "t": 175764.61800000095,
      "d": 230.88223749998724,
      "v": 104
    },
    {
      "midi": 60,
      "hit": false,
      "t": 175764.61800000095,
      "d": 245.58811250000144,
      "v": 127
    },
    {
      "midi": 64,
      "hit": false,
      "t": 175764.61800000095,
      "d": 252.941049999994,
      "v": 104
    },
    {
      "midi": 55,
      "hit": false,
      "t": 176117.55900000094,
      "d": 254.41163749998668,
      "v": 112
    },
    {
      "midi": 60,
      "hit": false,
      "t": 176117.55900000094,
      "d": 289.70573749998584,
      "v": 127
    },
    {
      "midi": 64,
      "hit": false,
      "t": 176117.55900000094,
      "d": 311.7645499999926,
      "v": 112
    },
    {
      "midi": 55,
      "hit": false,
      "t": 176470.50000000093,
      "d": 195.58813749998808,
      "v": 108
    },
    {
      "midi": 60,
      "hit": false,
      "t": 176470.50000000093,
      "d": 288.23514999999315,
      "v": 108
    },
    {
      "midi": 64,
      "hit": false,
      "t": 176470.50000000093,
      "d": 585.2938250000007,
      "v": 70
    },
    {
      "midi": 55,
      "hit": false,
      "t": 176823.44100000092,
      "d": 232.35282500000903,
      "v": 104
    },
    {
      "midi": 60,
      "hit": false,
      "t": 176823.44100000092,
      "d": 258.82340000002296,
      "v": 89
    },
    {
      "midi": 55,
      "hit": false,
      "t": 177176.38200000094,
      "d": 201.47048749998794,
      "v": 108
    },
    {
      "midi": 60,
      "hit": false,
      "t": 177176.38200000094,
      "d": 295.5880874999857,
      "v": 127
    },
    {
      "midi": 64,
      "hit": false,
      "t": 177176.38200000094,
      "d": 580.8820624999935,
      "v": 117
    },
    {
      "midi": 55,
      "hit": false,
      "t": 177529.32300000094,
      "d": 220.5881250000093,
      "v": 108
    },
    {
      "midi": 60,
      "hit": false,
      "t": 177529.32300000094,
      "d": 239.70576250000158,
      "v": 97
    },
    {
      "midi": 55,
      "hit": false,
      "t": 177882.26400000093,
      "d": 220.5881250000093,
      "v": 117
    },
    {
      "midi": 60,
      "hit": false,
      "t": 177882.26400000093,
      "d": 261.76457500000834,
      "v": 127
    },
    {
      "midi": 64,
      "hit": false,
      "t": 177882.26400000093,
      "d": 264.7057500000228,
      "v": 112
    },
    {
      "midi": 48,
      "hit": false,
      "t": 177882.26400000093,
      "d": 1288.2346500000567,
      "v": 117
    },
    {
      "midi": 55,
      "hit": false,
      "t": 178235.20500000095,
      "d": 238.2351750000089,
      "v": 108
    },
    {
      "midi": 64,
      "hit": false,
      "t": 178235.20500000095,
      "d": 255.88222500000848,
      "v": 104
    },
    {
      "midi": 60,
      "hit": false,
      "t": 178235.20500000095,
      "d": 258.82340000002296,
      "v": 117
    },
    {
      "midi": 55,
      "hit": false,
      "t": 178588.14600000097,
      "d": 232.35282500000903,
      "v": 112
    },
    {
      "midi": 60,
      "hit": false,
      "t": 178588.14600000097,
      "d": 257.35281250000116,
      "v": 127
    },
    {
      "midi": 64,
      "hit": false,
      "t": 178588.14600000097,
      "d": 260.29398750001565,
      "v": 117
    },
    {
      "midi": 55,
      "hit": false,
      "t": 178941.087000001,
      "d": 202.94107500000973,
      "v": 108
    },
    {
      "midi": 60,
      "hit": false,
      "t": 178941.087000001,
      "d": 214.70577500000945,
      "v": 127
    },
    {
      "midi": 64,
      "hit": false,
      "t": 178941.087000001,
      "d": 222.058712500002,
      "v": 117
    },
    {
      "midi": 55,
      "hit": false,
      "t": 179294.02800000098,
      "d": 264.7057499999937,
      "v": 122
    },
    {
      "midi": 60,
      "hit": false,
      "t": 179294.02800000098,
      "d": 279.4116250000079,
      "v": 127
    },
    {
      "midi": 64,
      "hit": false,
      "t": 179294.02800000098,
      "d": 291.17632500000764,
      "v": 127
    },
    {
      "midi": 48,
      "hit": false,
      "t": 179294.02800000098,
      "d": 344.1174750000064,
      "v": 122
    },
    {
      "midi": 59,
      "hit": false,
      "t": 180705.79200000098,
      "d": 319.11748750001425,
      "v": 117
    },
    {
      "midi": 67,
      "hit": false,
      "t": 180705.79200000098,
      "d": 577.9408875000081,
      "v": 127
    },
    {
      "midi": 43,
      "hit": false,
      "t": 180705.79200000098,
      "d": 2514.704625000013,
      "v": 122
    },
    {
      "midi": 59,
      "hit": false,
      "t": 181058.733000001,
      "d": 230.88223749998724,
      "v": 36
    },
    {
      "midi": 59,
      "hit": false,
      "t": 181411.674000001,
      "d": 177.9410874999885,
      "v": 108
    },
    {
      "midi": 62,
      "hit": false,
      "t": 181411.674000001,
      "d": 261.76457499997923,
      "v": 117
    },
    {
      "midi": 55,
      "hit": false,
      "t": 181411.674000001,
      "d": 463.2350624999963,
      "v": 122
    },
    {
      "midi": 67,
      "hit": false,
      "t": 181411.674000001,
      "d": 1136.7641374999657,
      "v": 122
    },
    {
      "midi": 59,
      "hit": false,
      "t": 181764.61500000098,
      "d": 519.1173874999804,
      "v": 117
    },
    {
      "midi": 62,
      "hit": false,
      "t": 181764.61500000098,
      "d": 651.4702624999918,
      "v": 92
    },
    {
      "midi": 55,
      "hit": false,
      "t": 182117.55600000097,
      "d": 835.2936999999802,
      "v": 117
    },
    {
      "midi": 59,
      "hit": false,
      "t": 182470.49700000096,
      "d": 188.23519999999553,
      "v": 82
    },
    {
      "midi": 59,
      "hit": false,
      "t": 182823.43800000096,
      "d": 344.1174750000064,
      "v": 108
    },
    {
      "midi": 62,
      "hit": false,
      "t": 182823.43800000096,
      "d": 391.17627500003437,
      "v": 117
    },
    {
      "midi": 67,
      "hit": false,
      "t": 182823.43800000096,
      "d": 520.5879750000313,
      "v": 122
    },
    {
      "midi": 55,
      "hit": false,
      "t": 183176.37900000098,
      "d": 205.88225000002421,
      "v": 108
    },
    {
      "midi": 57,
      "hit": false,
      "t": 183352.849500001,
      "d": 76.47054999999818,
      "v": 79
    },
    {
      "midi": 57,
      "hit": false,
      "t": 183529.320000001,
      "d": 624.999687500007,
      "v": 100
    },
    {
      "midi": 66,
      "hit": false,
      "t": 183529.320000001,
      "d": 627.9408625000215,
      "v": 113
    },
    {
      "midi": 62,
      "hit": false,
      "t": 183529.320000001,
      "d": 633.8232125000213,
      "v": 122
    },
    {
      "midi": 57,
      "hit": false,
      "t": 184235.202000001,
      "d": 216.17636250000214,
      "v": 104
    },
    {
      "midi": 62,
      "hit": false,
      "t": 184235.202000001,
      "d": 277.9410375000152,
      "v": 112
    },
    {
      "midi": 66,
      "hit": false,
      "t": 184235.202000001,
      "d": 301.47043750001467,
      "v": 113
    },
    {
      "midi": 57,
      "hit": false,
      "t": 184588.14300000103,
      "d": 152.94109999999637,
      "v": 85
    },
    {
      "midi": 66,
      "hit": false,
      "t": 184588.14300000103,
      "d": 216.17636250000214,
      "v": 77
    },
    {
      "midi": 62,
      "hit": false,
      "t": 184588.14300000103,
      "d": 238.2351750000089,
      "v": 79
    },
    {
      "midi": 57,
      "hit": false,
      "t": 184941.08400000105,
      "d": 326.4704250000068,
      "v": 112
    },
    {
      "midi": 66,
      "hit": false,
      "t": 184941.08400000105,
      "d": 617.6467500000144,
      "v": 113
    },
    {
      "midi": 57,
      "hit": false,
      "t": 185294.02500000107,
      "d": 219.11753749998752,
      "v": 62
    },
    {
      "midi": 57,
      "hit": false,
      "t": 185646.96600000106,
      "d": 183.82343749998836,
      "v": 89
    },
    {
      "midi": 66,
      "hit": false,
      "t": 185646.96600000106,
      "d": 529.4114999999874,
      "v": 118
    },
    {
      "midi": 62,
      "hit": false,
      "t": 185646.96600000106,
      "d": 570.5879499999864,
      "v": 127
    },
    {
      "midi": 57,
      "hit": false,
      "t": 185999.90700000105,
      "d": 145.58816250000382,
      "v": 92
    },
    {
      "midi": 59,
      "hit": false,
      "t": 186352.84800000105,
      "d": 455.8821250000037,
      "v": 117
    },
    {
      "midi": 67,
      "hit": false,
      "t": 186352.84800000105,
      "d": 576.4703000000154,
      "v": 122
    },
    {
      "midi": 64,
      "hit": false,
      "t": 186705.78900000104,
      "d": 255.88222500003758,
      "v": 85
    },
    {
      "midi": 59,
      "hit": false,
      "t": 187058.7300000011,
      "d": 227.94106250000186,
      "v": 97
    },
    {
      "midi": 64,
      "hit": false,
      "t": 187058.7300000011,
      "d": 230.88223750001634,
      "v": 92
    },
    {
      "midi": 67,
      "hit": false,
      "t": 187058.7300000011,
      "d": 248.52928750001593,
      "v": 82
    },
    {
      "midi": 59,
      "hit": false,
      "t": 187411.6710000011,
      "d": 491.1762250000029,
      "v": 122
    },
    {
      "midi": 64,
      "hit": false,
      "t": 187411.6710000011,
      "d": 916.1760125000146,
      "v": 127
    },
    {
      "midi": 67,
      "hit": false,
      "t": 187411.6710000011,
      "d": 919.1171875000291,
      "v": 122
    },
    {
      "midi": 59,
      "hit": false,
      "t": 188117.55300000112,
      "d": 236.7645875000162,
      "v": 79
    },
    {
      "midi": 59,
      "hit": false,
      "t": 188470.49400000114,
      "d": 289.70573749998584,
      "v": 112
    },
    {
      "midi": 64,
      "hit": false,
      "t": 188470.49400000114,
      "d": 294.117499999993,
      "v": 117
    },
    {
      "midi": 67,
      "hit": false,
      "t": 188470.49400000114,
      "d": 316.17631249999977,
      "v": 108
    },
    {
      "midi": 59,
      "hit": false,
      "t": 188823.43500000113,
      "d": 170.58814999999595,
      "v": 69
    },
    {
      "midi": 64,
      "hit": false,
      "t": 188823.43500000113,
      "d": 232.35282500000903,
      "v": 82
    },
    {
      "midi": 67,
      "hit": false,
      "t": 188823.43500000113,
      "d": 242.64693750001607,
      "v": 76
    },
    {
      "midi": 60,
      "hit": false,
      "t": 189176.37600000115,
      "d": 530.8820874999801,
      "v": 122
    },
    {
      "midi": 67,
      "hit": false,
      "t": 189176.37600000115,
      "d": 636.7643874999776,
      "v": 127
    },
    {
      "midi": 62,
      "hit": false,
      "t": 189176.37600000115,
      "d": 652.9408499999845,
      "v": 117
    },
    {
      "midi": 74,
      "hit": false,
      "t": 189529.31700000115,
      "d": 314.7057250000071,
      "v": 100
    },
    {
      "midi": 60,
      "hit": false,
      "t": 189882.25800000117,
      "d": 195.58813749998808,
      "v": 92
    },
    {
      "midi": 67,
      "hit": false,
      "t": 189882.25800000117,
      "d": 211.76459999999497,
      "v": 76
    },
    {
      "midi": 62,
      "hit": false,
      "t": 189882.25800000117,
      "d": 227.94106250000186,
      "v": 70
    },
    {
      "midi": 79,
      "hit": false,
      "t": 189882.25800000117,
      "d": 310.2939624999999,
      "v": 127
    },
    {
      "midi": 74,
      "hit": false,
      "t": 190235.19900000116,
      "d": 316.17631249999977,
      "v": 89
    },
    {
      "midi": 60,
      "hit": false,
      "t": 190235.19900000116,
      "d": 567.6467750000011,
      "v": 122
    },
    {
      "midi": 62,
      "hit": false,
      "t": 190235.19900000116,
      "d": 970.587749999977,
      "v": 100
    },
    {
      "midi": 67,
      "hit": false,
      "t": 190235.19900000116,
      "d": 992.6465624999837,
      "v": 117
    },
    {
      "midi": 79,
      "hit": false,
      "t": 190588.14000000115,
      "d": 351.47041249999893,
      "v": 122
    },
    {
      "midi": 60,
      "hit": false,
      "t": 190941.08100000114,
      "d": 283.823387499986,
      "v": 97
    },
    {
      "midi": 74,
      "hit": false,
      "t": 190941.08100000114,
      "d": 369.1174624999985,
      "v": 108
    },
    {
      "midi": 60,
      "hit": false,
      "t": 191294.02200000113,
      "d": 297.0586750000075,
      "v": 122
    },
    {
      "midi": 62,
      "hit": false,
      "t": 191294.02200000113,
      "d": 535.2938500000455,
      "v": 104
    },
    {
      "midi": 67,
      "hit": false,
      "t": 191294.02200000113,
      "d": 548.5291375000379,
      "v": 112
    },
    {
      "midi": 81,
      "hit": false,
      "t": 191299.90435000113,
      "d": 363.23511250002775,
      "v": 122
    },
    {
      "midi": 60,
      "hit": false,
      "t": 191646.96300000115,
      "d": 136.76463750001858,
      "v": 108
    },
    {
      "midi": 74,
      "hit": false,
      "t": 191646.96300000115,
      "d": 304.41161250002915,
      "v": 112
    },
    {
      "midi": 72,
      "hit": false,
      "t": 191999.90400000117,
      "d": 311.7645499999926,
      "v": 127
    },
    {
      "midi": 43,
      "hit": false,
      "t": 191999.90400000117,
      "d": 2514.704624999955,
      "v": 122
    },
    {
      "midi": 62,
      "hit": false,
      "t": 192352.84500000117,
      "d": 1249.9993749999849,
      "v": 127
    },
    {
      "midi": 72,
      "hit": false,
      "t": 192705.78600000116,
      "d": 311.7645499999926,
      "v": 127
    },
    {
      "midi": 71,
      "hit": false,
      "t": 193058.72700000115,
      "d": 680.8820124999911,
      "v": 112
    },
    {
      "midi": 62,
      "hit": false,
      "t": 193764.60900000113,
      "d": 445.5880124999967,
      "v": 127
    },
    {
      "midi": 71,
      "hit": false,
      "t": 194117.55000000112,
      "d": 649.9996749999991,
      "v": 127
    },
    {
      "midi": 62,
      "hit": false,
      "t": 194470.49100000112,
      "d": 308.8233750000072,
      "v": 127
    },
    {
      "midi": 57,
      "hit": false,
      "t": 194823.43200000114,
      "d": 624.999687500007,
      "v": 100
    },
    {
      "midi": 66,
      "hit": false,
      "t": 194823.43200000114,
      "d": 627.9408625000215,
      "v": 113
    },
    {
      "midi": 62,
      "hit": false,
      "t": 194823.43200000114,
      "d": 633.8232125000213,
      "v": 122
    },
    {
      "midi": 57,
      "hit": false,
      "t": 195529.31400000115,
      "d": 216.17636250000214,
      "v": 104
    },
    {
      "midi": 62,
      "hit": false,
      "t": 195529.31400000115,
      "d": 277.9410375000152,
      "v": 112
    },
    {
      "midi": 66,
      "hit": false,
      "t": 195529.31400000115,
      "d": 301.47043750001467,
      "v": 113
    },
    {
      "midi": 57,
      "hit": false,
      "t": 195882.25500000117,
      "d": 152.94109999999637,
      "v": 85
    },
    {
      "midi": 66,
      "hit": false,
      "t": 195882.25500000117,
      "d": 216.17636250000214,
      "v": 77
    },
    {
      "midi": 62,
      "hit": false,
      "t": 195882.25500000117,
      "d": 238.2351750000089,
      "v": 79
    },
    {
      "midi": 57,
      "hit": false,
      "t": 196235.1960000012,
      "d": 326.4704250000068,
      "v": 112
    },
    {
      "midi": 66,
      "hit": false,
      "t": 196235.1960000012,
      "d": 617.6467500000144,
      "v": 113
    },
    {
      "midi": 57,
      "hit": false,
      "t": 196588.1370000012,
      "d": 219.11753749998752,
      "v": 62
    },
    {
      "midi": 57,
      "hit": false,
      "t": 196941.0780000012,
      "d": 183.82343749998836,
      "v": 89
    },
    {
      "midi": 66,
      "hit": false,
      "t": 196941.0780000012,
      "d": 529.4114999999874,
      "v": 118
    },
    {
      "midi": 62,
      "hit": false,
      "t": 196941.0780000012,
      "d": 570.5879499999864,
      "v": 127
    },
    {
      "midi": 57,
      "hit": false,
      "t": 197294.0190000012,
      "d": 145.58816250000382,
      "v": 92
    },
    {
      "midi": 59,
      "hit": false,
      "t": 197646.96000000119,
      "d": 455.8821250000037,
      "v": 117
    },
    {
      "midi": 67,
      "hit": false,
      "t": 197646.96000000119,
      "d": 576.4703000000154,
      "v": 122
    },
    {
      "midi": 64,
      "hit": false,
      "t": 197999.90100000118,
      "d": 255.88222500003758,
      "v": 85
    },
    {
      "midi": 59,
      "hit": false,
      "t": 198352.84200000123,
      "d": 227.94106250000186,
      "v": 97
    },
    {
      "midi": 64,
      "hit": false,
      "t": 198352.84200000123,
      "d": 230.88223750001634,
      "v": 92
    },
    {
      "midi": 67,
      "hit": false,
      "t": 198352.84200000123,
      "d": 248.52928750001593,
      "v": 82
    },
    {
      "midi": 59,
      "hit": false,
      "t": 198705.78300000125,
      "d": 491.1762250000029,
      "v": 122
    },
    {
      "midi": 64,
      "hit": false,
      "t": 198705.78300000125,
      "d": 916.1760125000146,
      "v": 127
    },
    {
      "midi": 67,
      "hit": false,
      "t": 198705.78300000125,
      "d": 919.1171875000291,
      "v": 122
    },
    {
      "midi": 59,
      "hit": false,
      "t": 199411.66500000126,
      "d": 236.7645875000162,
      "v": 79
    },
    {
      "midi": 59,
      "hit": false,
      "t": 199764.60600000128,
      "d": 289.70573749998584,
      "v": 112
    },
    {
      "midi": 64,
      "hit": false,
      "t": 199764.60600000128,
      "d": 294.117499999993,
      "v": 117
    },
    {
      "midi": 67,
      "hit": false,
      "t": 199764.60600000128,
      "d": 316.17631249999977,
      "v": 108
    },
    {
      "midi": 59,
      "hit": false,
      "t": 200117.54700000127,
      "d": 170.58814999999595,
      "v": 69
    },
    {
      "midi": 64,
      "hit": false,
      "t": 200117.54700000127,
      "d": 232.35282500000903,
      "v": 82
    },
    {
      "midi": 67,
      "hit": false,
      "t": 200117.54700000127,
      "d": 242.64693750001607,
      "v": 76
    },
    {
      "midi": 60,
      "hit": false,
      "t": 200470.4880000013,
      "d": 530.8820875000092,
      "v": 122
    },
    {
      "midi": 67,
      "hit": false,
      "t": 200470.4880000013,
      "d": 636.7643875000067,
      "v": 127
    },
    {
      "midi": 62,
      "hit": false,
      "t": 200470.4880000013,
      "d": 652.9408500000136,
      "v": 117
    },
    {
      "midi": 60,
      "hit": false,
      "t": 201176.3700000013,
      "d": 195.58813749998808,
      "v": 92
    },
    {
      "midi": 67,
      "hit": false,
      "t": 201176.3700000013,
      "d": 211.76459999999497,
      "v": 76
    },
    {
      "midi": 62,
      "hit": false,
      "t": 201176.3700000013,
      "d": 227.94106250000186,
      "v": 70
    },
    {
      "midi": 60,
      "hit": false,
      "t": 201529.3110000013,
      "d": 567.6467750000011,
      "v": 122
    },
    {
      "midi": 62,
      "hit": false,
      "t": 201529.3110000013,
      "d": 970.587750000006,
      "v": 100
    },
    {
      "midi": 67,
      "hit": false,
      "t": 201529.3110000013,
      "d": 992.6465625000128,
      "v": 117
    },
    {
      "midi": 60,
      "hit": false,
      "t": 202235.1930000013,
      "d": 283.823387499986,
      "v": 97
    },
    {
      "midi": 60,
      "hit": false,
      "t": 202588.1340000013,
      "d": 297.0586750000075,
      "v": 122
    },
    {
      "midi": 62,
      "hit": false,
      "t": 202588.1340000013,
      "d": 535.2938500000164,
      "v": 104
    },
    {
      "midi": 67,
      "hit": false,
      "t": 202588.1340000013,
      "d": 548.5291375000088,
      "v": 112
    },
    {
      "midi": 60,
      "hit": false,
      "t": 202941.07500000132,
      "d": 136.76463749998948,
      "v": 108
    },
    {
      "midi": 59,
      "hit": false,
      "t": 203294.0160000013,
      "d": 319.11748750001425,
      "v": 117
    },
    {
      "midi": 67,
      "hit": false,
      "t": 203294.0160000013,
      "d": 577.9408875000081,
      "v": 127
    },
    {
      "midi": 43,
      "hit": false,
      "t": 203294.0160000013,
      "d": 2514.704625000013,
      "v": 122
    },
    {
      "midi": 59,
      "hit": false,
      "t": 203646.95700000133,
      "d": 230.88223749998724,
      "v": 36
    },
    {
      "midi": 59,
      "hit": false,
      "t": 203999.89800000133,
      "d": 177.9410874999885,
      "v": 108
    },
    {
      "midi": 62,
      "hit": false,
      "t": 203999.89800000133,
      "d": 261.76457499997923,
      "v": 117
    },
    {
      "midi": 55,
      "hit": false,
      "t": 203999.89800000133,
      "d": 463.2350624999963,
      "v": 122
    },
    {
      "midi": 67,
      "hit": false,
      "t": 203999.89800000133,
      "d": 1136.7641374999657,
      "v": 122
    },
    {
      "midi": 59,
      "hit": false,
      "t": 204352.83900000132,
      "d": 519.1173874999804,
      "v": 117
    },
    {
      "midi": 62,
      "hit": false,
      "t": 204352.83900000132,
      "d": 651.4702624999918,
      "v": 92
    },
    {
      "midi": 55,
      "hit": false,
      "t": 204705.7800000013,
      "d": 835.2936999999802,
      "v": 117
    },
    {
      "midi": 59,
      "hit": false,
      "t": 205058.7210000013,
      "d": 188.23519999999553,
      "v": 82
    },
    {
      "midi": 59,
      "hit": false,
      "t": 205411.6620000013,
      "d": 344.1174750000064,
      "v": 108
    },
    {
      "midi": 62,
      "hit": false,
      "t": 205411.6620000013,
      "d": 391.17627500003437,
      "v": 117
    },
    {
      "midi": 67,
      "hit": false,
      "t": 205411.6620000013,
      "d": 520.5879750000313,
      "v": 122
    },
    {
      "midi": 55,
      "hit": false,
      "t": 205764.6030000013,
      "d": 205.88225000002421,
      "v": 108
    },
    {
      "midi": 57,
      "hit": false,
      "t": 205941.07350000134,
      "d": 76.47054999999818,
      "v": 79
    },
    {
      "midi": 57,
      "hit": false,
      "t": 206117.54400000133,
      "d": 624.999687500007,
      "v": 100
    },
    {
      "midi": 66,
      "hit": false,
      "t": 206117.54400000133,
      "d": 627.9408625000215,
      "v": 113
    },
    {
      "midi": 62,
      "hit": false,
      "t": 206117.54400000133,
      "d": 633.8232125000213,
      "v": 122
    },
    {
      "midi": 57,
      "hit": false,
      "t": 206823.42600000135,
      "d": 216.17636250000214,
      "v": 104
    },
    {
      "midi": 62,
      "hit": false,
      "t": 206823.42600000135,
      "d": 277.9410375000152,
      "v": 112
    },
    {
      "midi": 66,
      "hit": false,
      "t": 206823.42600000135,
      "d": 301.47043750001467,
      "v": 113
    },
    {
      "midi": 57,
      "hit": false,
      "t": 207176.36700000137,
      "d": 152.94109999999637,
      "v": 85
    },
    {
      "midi": 66,
      "hit": false,
      "t": 207176.36700000137,
      "d": 216.17636250000214,
      "v": 77
    },
    {
      "midi": 62,
      "hit": false,
      "t": 207176.36700000137,
      "d": 238.2351750000089,
      "v": 79
    },
    {
      "midi": 57,
      "hit": false,
      "t": 207529.3080000014,
      "d": 326.4704250000068,
      "v": 112
    },
    {
      "midi": 66,
      "hit": false,
      "t": 207529.3080000014,
      "d": 617.6467500000144,
      "v": 113
    },
    {
      "midi": 57,
      "hit": false,
      "t": 207882.2490000014,
      "d": 219.11753749998752,
      "v": 62
    },
    {
      "midi": 57,
      "hit": false,
      "t": 208235.1900000014,
      "d": 183.82343749998836,
      "v": 89
    },
    {
      "midi": 66,
      "hit": false,
      "t": 208235.1900000014,
      "d": 529.4114999999874,
      "v": 118
    },
    {
      "midi": 62,
      "hit": false,
      "t": 208235.1900000014,
      "d": 570.5879499999864,
      "v": 127
    },
    {
      "midi": 57,
      "hit": false,
      "t": 208588.1310000014,
      "d": 145.58816250000382,
      "v": 92
    },
    {
      "midi": 59,
      "hit": false,
      "t": 208941.07200000138,
      "d": 455.8821250000037,
      "v": 117
    },
    {
      "midi": 67,
      "hit": false,
      "t": 208941.07200000138,
      "d": 576.4703000000154,
      "v": 122
    },
    {
      "midi": 64,
      "hit": false,
      "t": 209294.01300000137,
      "d": 255.88222500003758,
      "v": 85
    },
    {
      "midi": 59,
      "hit": false,
      "t": 209646.95400000142,
      "d": 227.94106250000186,
      "v": 97
    },
    {
      "midi": 64,
      "hit": false,
      "t": 209646.95400000142,
      "d": 230.88223750001634,
      "v": 92
    },
    {
      "midi": 67,
      "hit": false,
      "t": 209646.95400000142,
      "d": 248.52928750001593,
      "v": 82
    },
    {
      "midi": 59,
      "hit": false,
      "t": 209999.89500000144,
      "d": 491.1762250000029,
      "v": 122
    },
    {
      "midi": 64,
      "hit": false,
      "t": 209999.89500000144,
      "d": 916.1760125000146,
      "v": 127
    },
    {
      "midi": 67,
      "hit": false,
      "t": 209999.89500000144,
      "d": 919.1171875000291,
      "v": 122
    },
    {
      "midi": 59,
      "hit": false,
      "t": 210705.77700000146,
      "d": 236.7645875000162,
      "v": 79
    },
    {
      "midi": 59,
      "hit": false,
      "t": 211058.71800000148,
      "d": 289.70573749998584,
      "v": 112
    },
    {
      "midi": 64,
      "hit": false,
      "t": 211058.71800000148,
      "d": 294.117499999993,
      "v": 117
    },
    {
      "midi": 67,
      "hit": false,
      "t": 211058.71800000148,
      "d": 316.17631249999977,
      "v": 108
    },
    {
      "midi": 59,
      "hit": false,
      "t": 211411.65900000147,
      "d": 170.58814999999595,
      "v": 69
    },
    {
      "midi": 64,
      "hit": false,
      "t": 211411.65900000147,
      "d": 232.35282500000903,
      "v": 82
    },
    {
      "midi": 67,
      "hit": false,
      "t": 211411.65900000147,
      "d": 242.64693750001607,
      "v": 76
    },
    {
      "midi": 60,
      "hit": false,
      "t": 211764.6000000015,
      "d": 530.8820874999801,
      "v": 122
    },
    {
      "midi": 67,
      "hit": false,
      "t": 211764.6000000015,
      "d": 636.7643874999776,
      "v": 127
    },
    {
      "midi": 62,
      "hit": false,
      "t": 211764.6000000015,
      "d": 652.9408499999845,
      "v": 117
    },
    {
      "midi": 74,
      "hit": false,
      "t": 212117.54100000148,
      "d": 314.7057250000071,
      "v": 100
    },
    {
      "midi": 60,
      "hit": false,
      "t": 212470.4820000015,
      "d": 195.58813749998808,
      "v": 92
    },
    {
      "midi": 67,
      "hit": false,
      "t": 212470.4820000015,
      "d": 211.76459999999497,
      "v": 76
    },
    {
      "midi": 62,
      "hit": false,
      "t": 212470.4820000015,
      "d": 227.94106250000186,
      "v": 70
    },
    {
      "midi": 79,
      "hit": false,
      "t": 212470.4820000015,
      "d": 310.2939624999999,
      "v": 127
    },
    {
      "midi": 74,
      "hit": false,
      "t": 212823.4230000015,
      "d": 316.17631249999977,
      "v": 89
    },
    {
      "midi": 60,
      "hit": false,
      "t": 212823.4230000015,
      "d": 567.6467750000011,
      "v": 122
    },
    {
      "midi": 62,
      "hit": false,
      "t": 212823.4230000015,
      "d": 970.587749999977,
      "v": 100
    },
    {
      "midi": 67,
      "hit": false,
      "t": 212823.4230000015,
      "d": 992.6465624999837,
      "v": 117
    },
    {
      "midi": 79,
      "hit": false,
      "t": 213176.3640000015,
      "d": 351.47041249999893,
      "v": 122
    },
    {
      "midi": 60,
      "hit": false,
      "t": 213529.30500000148,
      "d": 283.823387499986,
      "v": 97
    },
    {
      "midi": 74,
      "hit": false,
      "t": 213529.30500000148,
      "d": 369.1174624999985,
      "v": 108
    },
    {
      "midi": 60,
      "hit": false,
      "t": 213882.24600000147,
      "d": 297.0586750000075,
      "v": 122
    },
    {
      "midi": 62,
      "hit": false,
      "t": 213882.24600000147,
      "d": 535.2938500000455,
      "v": 104
    },
    {
      "midi": 67,
      "hit": false,
      "t": 213882.24600000147,
      "d": 548.5291375000379,
      "v": 112
    },
    {
      "midi": 81,
      "hit": false,
      "t": 213888.12835000147,
      "d": 363.23511250002775,
      "v": 122
    },
    {
      "midi": 60,
      "hit": false,
      "t": 214235.1870000015,
      "d": 136.76463750001858,
      "v": 108
    },
    {
      "midi": 74,
      "hit": false,
      "t": 214235.1870000015,
      "d": 304.41161250002915,
      "v": 112
    },
    {
      "midi": 72,
      "hit": false,
      "t": 214588.1280000015,
      "d": 311.7645499999926,
      "v": 127
    },
    {
      "midi": 43,
      "hit": false,
      "t": 214588.1280000015,
      "d": 2514.704624999955,
      "v": 122
    },
    {
      "midi": 62,
      "hit": false,
      "t": 214941.0690000015,
      "d": 1249.9993749999849,
      "v": 127
    },
    {
      "midi": 72,
      "hit": false,
      "t": 215294.0100000015,
      "d": 311.7645499999926,
      "v": 127
    },
    {
      "midi": 71,
      "hit": false,
      "t": 215646.95100000149,
      "d": 680.8820124999911,
      "v": 112
    },
    {
      "midi": 62,
      "hit": false,
      "t": 216352.83300000147,
      "d": 445.5880124999967,
      "v": 127
    },
    {
      "midi": 71,
      "hit": false,
      "t": 216705.77400000146,
      "d": 649.9996749999991,
      "v": 127
    },
    {
      "midi": 62,
      "hit": false,
      "t": 217058.71500000145,
      "d": 308.8233750000072,
      "v": 127
    },
    {
      "midi": 57,
      "hit": false,
      "t": 217411.65600000147,
      "d": 624.999687500007,
      "v": 100
    },
    {
      "midi": 66,
      "hit": false,
      "t": 217411.65600000147,
      "d": 627.9408625000215,
      "v": 113
    },
    {
      "midi": 62,
      "hit": false,
      "t": 217411.65600000147,
      "d": 633.8232125000213,
      "v": 122
    },
    {
      "midi": 57,
      "hit": false,
      "t": 218117.53800000148,
      "d": 216.17636250000214,
      "v": 104
    },
    {
      "midi": 62,
      "hit": false,
      "t": 218117.53800000148,
      "d": 277.9410375000152,
      "v": 112
    },
    {
      "midi": 66,
      "hit": false,
      "t": 218117.53800000148,
      "d": 301.47043750001467,
      "v": 113
    },
    {
      "midi": 57,
      "hit": false,
      "t": 218470.4790000015,
      "d": 152.94109999999637,
      "v": 85
    },
    {
      "midi": 66,
      "hit": false,
      "t": 218470.4790000015,
      "d": 216.17636250000214,
      "v": 77
    },
    {
      "midi": 62,
      "hit": false,
      "t": 218470.4790000015,
      "d": 238.2351750000089,
      "v": 79
    },
    {
      "midi": 57,
      "hit": false,
      "t": 218823.42000000153,
      "d": 326.4704250000068,
      "v": 112
    },
    {
      "midi": 66,
      "hit": false,
      "t": 218823.42000000153,
      "d": 617.6467500000144,
      "v": 113
    },
    {
      "midi": 57,
      "hit": false,
      "t": 219176.36100000155,
      "d": 219.11753749998752,
      "v": 62
    },
    {
      "midi": 57,
      "hit": false,
      "t": 219529.30200000154,
      "d": 183.82343749998836,
      "v": 89
    },
    {
      "midi": 66,
      "hit": false,
      "t": 219529.30200000154,
      "d": 529.4114999999874,
      "v": 118
    },
    {
      "midi": 62,
      "hit": false,
      "t": 219529.30200000154,
      "d": 570.5879499999864,
      "v": 127
    },
    {
      "midi": 57,
      "hit": false,
      "t": 219882.24300000153,
      "d": 145.58816250000382,
      "v": 92
    },
    {
      "midi": 59,
      "hit": false,
      "t": 220235.18400000152,
      "d": 455.8821250000037,
      "v": 117
    },
    {
      "midi": 67,
      "hit": false,
      "t": 220235.18400000152,
      "d": 576.4703000000154,
      "v": 122
    },
    {
      "midi": 64,
      "hit": false,
      "t": 220588.1250000015,
      "d": 255.88222500003758,
      "v": 85
    },
    {
      "midi": 59,
      "hit": false,
      "t": 220941.06600000156,
      "d": 227.94106250000186,
      "v": 97
    },
    {
      "midi": 64,
      "hit": false,
      "t": 220941.06600000156,
      "d": 230.88223750001634,
      "v": 92
    },
    {
      "midi": 67,
      "hit": false,
      "t": 220941.06600000156,
      "d": 248.52928750001593,
      "v": 82
    },
    {
      "midi": 59,
      "hit": false,
      "t": 221294.00700000158,
      "d": 491.1762250000029,
      "v": 122
    },
    {
      "midi": 64,
      "hit": false,
      "t": 221294.00700000158,
      "d": 916.1760125000146,
      "v": 127
    },
    {
      "midi": 67,
      "hit": false,
      "t": 221294.00700000158,
      "d": 919.1171875000291,
      "v": 122
    },
    {
      "midi": 59,
      "hit": false,
      "t": 221999.8890000016,
      "d": 236.7645875000162,
      "v": 79
    },
    {
      "midi": 59,
      "hit": false,
      "t": 222352.83000000162,
      "d": 289.70573749998584,
      "v": 112
    },
    {
      "midi": 64,
      "hit": false,
      "t": 222352.83000000162,
      "d": 294.117499999993,
      "v": 117
    },
    {
      "midi": 67,
      "hit": false,
      "t": 222352.83000000162,
      "d": 316.17631249999977,
      "v": 108
    },
    {
      "midi": 59,
      "hit": false,
      "t": 222705.7710000016,
      "d": 170.58814999999595,
      "v": 69
    },
    {
      "midi": 64,
      "hit": false,
      "t": 222705.7710000016,
      "d": 232.35282500000903,
      "v": 82
    },
    {
      "midi": 67,
      "hit": false,
      "t": 222705.7710000016,
      "d": 242.64693750001607,
      "v": 76
    },
    {
      "midi": 60,
      "hit": false,
      "t": 223058.71200000163,
      "d": 530.8820875000092,
      "v": 122
    },
    {
      "midi": 67,
      "hit": false,
      "t": 223058.71200000163,
      "d": 636.7643875000067,
      "v": 127
    },
    {
      "midi": 62,
      "hit": false,
      "t": 223058.71200000163,
      "d": 652.9408500000136,
      "v": 117
    },
    {
      "midi": 60,
      "hit": false,
      "t": 223764.59400000164,
      "d": 195.58813749998808,
      "v": 92
    },
    {
      "midi": 67,
      "hit": false,
      "t": 223764.59400000164,
      "d": 211.76459999999497,
      "v": 76
    },
    {
      "midi": 62,
      "hit": false,
      "t": 223764.59400000164,
      "d": 227.94106250000186,
      "v": 70
    },
    {
      "midi": 60,
      "hit": false,
      "t": 224117.53500000163,
      "d": 567.6467750000011,
      "v": 122
    },
    {
      "midi": 62,
      "hit": false,
      "t": 224117.53500000163,
      "d": 970.587750000006,
      "v": 100
    },
    {
      "midi": 67,
      "hit": false,
      "t": 224117.53500000163,
      "d": 992.6465625000128,
      "v": 117
    },
    {
      "midi": 60,
      "hit": false,
      "t": 224823.41700000165,
      "d": 283.823387499986,
      "v": 97
    },
    {
      "midi": 60,
      "hit": false,
      "t": 225176.35800000164,
      "d": 297.0586750000075,
      "v": 122
    },
    {
      "midi": 62,
      "hit": false,
      "t": 225176.35800000164,
      "d": 535.2938500000164,
      "v": 104
    },
    {
      "midi": 67,
      "hit": false,
      "t": 225176.35800000164,
      "d": 548.5291375000088,
      "v": 112
    },
    {
      "midi": 60,
      "hit": false,
      "t": 225529.29900000166,
      "d": 136.76463749998948,
      "v": 108
    },
    {
      "midi": 59,
      "hit": false,
      "t": 225882.24000000165,
      "d": 319.11748750001425,
      "v": 117
    },
    {
      "midi": 67,
      "hit": false,
      "t": 225882.24000000165,
      "d": 577.9408875000081,
      "v": 127
    },
    {
      "midi": 43,
      "hit": false,
      "t": 225882.24000000165,
      "d": 2514.704625000013,
      "v": 122
    },
    {
      "midi": 59,
      "hit": false,
      "t": 226235.18100000167,
      "d": 230.88223749998724,
      "v": 36
    },
    {
      "midi": 59,
      "hit": false,
      "t": 226588.12200000166,
      "d": 177.9410874999885,
      "v": 108
    },
    {
      "midi": 62,
      "hit": false,
      "t": 226588.12200000166,
      "d": 261.76457499997923,
      "v": 117
    },
    {
      "midi": 55,
      "hit": false,
      "t": 226588.12200000166,
      "d": 463.2350624999963,
      "v": 122
    },
    {
      "midi": 67,
      "hit": false,
      "t": 226588.12200000166,
      "d": 1136.7641374999657,
      "v": 122
    },
    {
      "midi": 59,
      "hit": false,
      "t": 226941.06300000165,
      "d": 519.1173874999804,
      "v": 117
    },
    {
      "midi": 62,
      "hit": false,
      "t": 226941.06300000165,
      "d": 651.4702624999918,
      "v": 92
    },
    {
      "midi": 55,
      "hit": false,
      "t": 227294.00400000165,
      "d": 835.2936999999802,
      "v": 117
    },
    {
      "midi": 59,
      "hit": false,
      "t": 227646.94500000164,
      "d": 188.23519999999553,
      "v": 82
    },
    {
      "midi": 59,
      "hit": false,
      "t": 227999.88600000163,
      "d": 344.1174750000064,
      "v": 108
    },
    {
      "midi": 62,
      "hit": false,
      "t": 227999.88600000163,
      "d": 391.17627500003437,
      "v": 117
    },
    {
      "midi": 67,
      "hit": false,
      "t": 227999.88600000163,
      "d": 520.5879750000313,
      "v": 122
    },
    {
      "midi": 55,
      "hit": false,
      "t": 228352.82700000165,
      "d": 205.88225000002421,
      "v": 108
    },
    {
      "midi": 57,
      "hit": false,
      "t": 228529.29750000167,
      "d": 76.47054999999818,
      "v": 79
    },
    {
      "midi": 57,
      "hit": false,
      "t": 228705.76800000167,
      "d": 624.999687500007,
      "v": 100
    },
    {
      "midi": 66,
      "hit": false,
      "t": 228705.76800000167,
      "d": 627.9408625000215,
      "v": 113
    },
    {
      "midi": 62,
      "hit": false,
      "t": 228705.76800000167,
      "d": 633.8232125000213,
      "v": 122
    },
    {
      "midi": 57,
      "hit": false,
      "t": 229411.65000000168,
      "d": 216.17636250000214,
      "v": 104
    },
    {
      "midi": 62,
      "hit": false,
      "t": 229411.65000000168,
      "d": 277.9410375000152,
      "v": 112
    },
    {
      "midi": 66,
      "hit": false,
      "t": 229411.65000000168,
      "d": 301.47043750001467,
      "v": 113
    },
    {
      "midi": 57,
      "hit": false,
      "t": 229764.5910000017,
      "d": 152.94109999999637,
      "v": 85
    },
    {
      "midi": 66,
      "hit": false,
      "t": 229764.5910000017,
      "d": 216.17636250000214,
      "v": 77
    },
    {
      "midi": 62,
      "hit": false,
      "t": 229764.5910000017,
      "d": 238.2351750000089,
      "v": 79
    },
    {
      "midi": 57,
      "hit": false,
      "t": 230117.53200000172,
      "d": 326.4704250000068,
      "v": 112
    },
    {
      "midi": 66,
      "hit": false,
      "t": 230117.53200000172,
      "d": 617.6467500000144,
      "v": 113
    },
    {
      "midi": 57,
      "hit": false,
      "t": 230470.47300000174,
      "d": 219.11753749998752,
      "v": 62
    },
    {
      "midi": 57,
      "hit": false,
      "t": 230823.41400000174,
      "d": 183.82343749998836,
      "v": 89
    },
    {
      "midi": 66,
      "hit": false,
      "t": 230823.41400000174,
      "d": 529.4114999999874,
      "v": 118
    },
    {
      "midi": 62,
      "hit": false,
      "t": 230823.41400000174,
      "d": 570.5879499999864,
      "v": 127
    },
    {
      "midi": 57,
      "hit": false,
      "t": 231176.35500000173,
      "d": 145.58816250000382,
      "v": 92
    },
    {
      "midi": 59,
      "hit": false,
      "t": 231529.29600000172,
      "d": 455.8821250000037,
      "v": 117
    },
    {
      "midi": 67,
      "hit": false,
      "t": 231529.29600000172,
      "d": 576.4703000000154,
      "v": 122
    },
    {
      "midi": 64,
      "hit": false,
      "t": 231882.2370000017,
      "d": 255.88222500003758,
      "v": 85
    },
    {
      "midi": 59,
      "hit": false,
      "t": 232235.17800000176,
      "d": 227.94106250000186,
      "v": 97
    },
    {
      "midi": 64,
      "hit": false,
      "t": 232235.17800000176,
      "d": 230.88223750001634,
      "v": 92
    },
    {
      "midi": 67,
      "hit": false,
      "t": 232235.17800000176,
      "d": 248.52928750001593,
      "v": 82
    },
    {
      "midi": 59,
      "hit": false,
      "t": 232588.11900000178,
      "d": 491.1762250000029,
      "v": 122
    },
    {
      "midi": 64,
      "hit": false,
      "t": 232588.11900000178,
      "d": 916.1760125000146,
      "v": 127
    },
    {
      "midi": 67,
      "hit": false,
      "t": 232588.11900000178,
      "d": 919.1171875000291,
      "v": 122
    },
    {
      "midi": 59,
      "hit": false,
      "t": 233294.0010000018,
      "d": 236.7645875000162,
      "v": 79
    },
    {
      "midi": 59,
      "hit": false,
      "t": 233646.9420000018,
      "d": 289.70573749998584,
      "v": 112
    },
    {
      "midi": 64,
      "hit": false,
      "t": 233646.9420000018,
      "d": 294.117499999993,
      "v": 117
    },
    {
      "midi": 67,
      "hit": false,
      "t": 233646.9420000018,
      "d": 316.17631249999977,
      "v": 108
    },
    {
      "midi": 59,
      "hit": false,
      "t": 233999.8830000018,
      "d": 170.58814999999595,
      "v": 69
    },
    {
      "midi": 64,
      "hit": false,
      "t": 233999.8830000018,
      "d": 232.35282500000903,
      "v": 82
    },
    {
      "midi": 67,
      "hit": false,
      "t": 233999.8830000018,
      "d": 242.64693750001607,
      "v": 76
    },
    {
      "midi": 60,
      "hit": false,
      "t": 234352.82400000183,
      "d": 530.8820874999801,
      "v": 122
    },
    {
      "midi": 67,
      "hit": false,
      "t": 234352.82400000183,
      "d": 636.7643874999776,
      "v": 127
    },
    {
      "midi": 62,
      "hit": false,
      "t": 234352.82400000183,
      "d": 652.9408499999845,
      "v": 117
    },
    {
      "midi": 74,
      "hit": false,
      "t": 234705.76500000182,
      "d": 314.7057250000071,
      "v": 100
    },
    {
      "midi": 60,
      "hit": false,
      "t": 235058.70600000184,
      "d": 195.58813749998808,
      "v": 92
    },
    {
      "midi": 67,
      "hit": false,
      "t": 235058.70600000184,
      "d": 211.76459999999497,
      "v": 76
    },
    {
      "midi": 62,
      "hit": false,
      "t": 235058.70600000184,
      "d": 227.94106250000186,
      "v": 70
    },
    {
      "midi": 79,
      "hit": false,
      "t": 235058.70600000184,
      "d": 310.2939624999999,
      "v": 127
    },
    {
      "midi": 74,
      "hit": false,
      "t": 235411.64700000183,
      "d": 316.17631249999977,
      "v": 89
    },
    {
      "midi": 60,
      "hit": false,
      "t": 235411.64700000183,
      "d": 567.6467750000011,
      "v": 122
    },
    {
      "midi": 62,
      "hit": false,
      "t": 235411.64700000183,
      "d": 970.587749999977,
      "v": 100
    },
    {
      "midi": 67,
      "hit": false,
      "t": 235411.64700000183,
      "d": 992.6465624999837,
      "v": 117
    },
    {
      "midi": 79,
      "hit": false,
      "t": 235764.58800000182,
      "d": 351.47041249999893,
      "v": 122
    },
    {
      "midi": 60,
      "hit": false,
      "t": 236117.5290000018,
      "d": 283.823387499986,
      "v": 97
    },
    {
      "midi": 74,
      "hit": false,
      "t": 236117.5290000018,
      "d": 369.1174624999985,
      "v": 108
    },
    {
      "midi": 60,
      "hit": false,
      "t": 236470.4700000018,
      "d": 297.0586750000075,
      "v": 122
    },
    {
      "midi": 62,
      "hit": false,
      "t": 236470.4700000018,
      "d": 535.2938500000455,
      "v": 104
    },
    {
      "midi": 67,
      "hit": false,
      "t": 236470.4700000018,
      "d": 548.5291375000379,
      "v": 112
    },
    {
      "midi": 81,
      "hit": false,
      "t": 236476.3523500018,
      "d": 363.23511250002775,
      "v": 122
    },
    {
      "midi": 60,
      "hit": false,
      "t": 236823.41100000183,
      "d": 136.76463750001858,
      "v": 108
    },
    {
      "midi": 74,
      "hit": false,
      "t": 236823.41100000183,
      "d": 304.41161250002915,
      "v": 112
    },
    {
      "midi": 72,
      "hit": false,
      "t": 237176.35200000185,
      "d": 311.7645499999926,
      "v": 127
    },
    {
      "midi": 43,
      "hit": false,
      "t": 237176.35200000185,
      "d": 2514.704624999955,
      "v": 122
    },
    {
      "midi": 62,
      "hit": false,
      "t": 237529.29300000184,
      "d": 1249.9993749999849,
      "v": 127
    },
    {
      "midi": 72,
      "hit": false,
      "t": 237882.23400000183,
      "d": 311.7645499999926,
      "v": 127
    },
    {
      "midi": 71,
      "hit": false,
      "t": 238235.17500000182,
      "d": 680.8820124999911,
      "v": 112
    },
    {
      "midi": 62,
      "hit": false,
      "t": 238941.0570000018,
      "d": 445.5880124999967,
      "v": 127
    },
    {
      "midi": 71,
      "hit": false,
      "t": 239293.9980000018,
      "d": 649.9996749999991,
      "v": 127
    },
    {
      "midi": 62,
      "hit": false,
      "t": 239646.9390000018,
      "d": 308.8233750000072,
      "v": 127
    },
    {
      "midi": 57,
      "hit": false,
      "t": 239999.8800000018,
      "d": 624.999687500007,
      "v": 100
    },
    {
      "midi": 66,
      "hit": false,
      "t": 239999.8800000018,
      "d": 627.9408625000215,
      "v": 113
    },
    {
      "midi": 62,
      "hit": false,
      "t": 239999.8800000018,
      "d": 633.8232125000213,
      "v": 122
    },
    {
      "midi": 57,
      "hit": false,
      "t": 240705.76200000182,
      "d": 216.17636250000214,
      "v": 104
    },
    {
      "midi": 62,
      "hit": false,
      "t": 240705.76200000182,
      "d": 277.9410375000152,
      "v": 112
    },
    {
      "midi": 66,
      "hit": false,
      "t": 240705.76200000182,
      "d": 301.47043750001467,
      "v": 113
    },
    {
      "midi": 57,
      "hit": false,
      "t": 241058.70300000184,
      "d": 152.94109999999637,
      "v": 85
    },
    {
      "midi": 66,
      "hit": false,
      "t": 241058.70300000184,
      "d": 216.17636250000214,
      "v": 77
    },
    {
      "midi": 62,
      "hit": false,
      "t": 241058.70300000184,
      "d": 238.2351750000089,
      "v": 79
    },
    {
      "midi": 57,
      "hit": false,
      "t": 241411.64400000186,
      "d": 326.4704250000068,
      "v": 112
    },
    {
      "midi": 66,
      "hit": false,
      "t": 241411.64400000186,
      "d": 617.6467500000144,
      "v": 113
    },
    {
      "midi": 57,
      "hit": false,
      "t": 241764.58500000188,
      "d": 219.11753749998752,
      "v": 62
    },
    {
      "midi": 57,
      "hit": false,
      "t": 242117.52600000188,
      "d": 183.82343749998836,
      "v": 89
    },
    {
      "midi": 66,
      "hit": false,
      "t": 242117.52600000188,
      "d": 529.4114999999874,
      "v": 118
    },
    {
      "midi": 62,
      "hit": false,
      "t": 242117.52600000188,
      "d": 570.5879499999864,
      "v": 127
    },
    {
      "midi": 57,
      "hit": false,
      "t": 242470.46700000187,
      "d": 145.58816250000382,
      "v": 92
    },
    {
      "midi": 59,
      "hit": false,
      "t": 242823.40800000186,
      "d": 455.8821250000037,
      "v": 117
    },
    {
      "midi": 67,
      "hit": false,
      "t": 242823.40800000186,
      "d": 576.4703000000154,
      "v": 122
    },
    {
      "midi": 64,
      "hit": false,
      "t": 243176.34900000185,
      "d": 255.88222500003758,
      "v": 85
    },
    {
      "midi": 59,
      "hit": false,
      "t": 243529.2900000019,
      "d": 227.94106250000186,
      "v": 97
    },
    {
      "midi": 64,
      "hit": false,
      "t": 243529.2900000019,
      "d": 230.88223750001634,
      "v": 92
    },
    {
      "midi": 67,
      "hit": false,
      "t": 243529.2900000019,
      "d": 248.52928750001593,
      "v": 82
    },
    {
      "midi": 59,
      "hit": false,
      "t": 243882.23100000192,
      "d": 491.1762250000029,
      "v": 122
    },
    {
      "midi": 64,
      "hit": false,
      "t": 243882.23100000192,
      "d": 916.1760125000146,
      "v": 127
    },
    {
      "midi": 67,
      "hit": false,
      "t": 243882.23100000192,
      "d": 919.1171875000291,
      "v": 122
    },
    {
      "midi": 59,
      "hit": false,
      "t": 244588.11300000193,
      "d": 236.7645875000162,
      "v": 79
    },
    {
      "midi": 59,
      "hit": false,
      "t": 244941.05400000195,
      "d": 289.70573749998584,
      "v": 112
    },
    {
      "midi": 64,
      "hit": false,
      "t": 244941.05400000195,
      "d": 294.117499999993,
      "v": 117
    },
    {
      "midi": 67,
      "hit": false,
      "t": 244941.05400000195,
      "d": 316.17631249999977,
      "v": 108
    },
    {
      "midi": 59,
      "hit": false,
      "t": 245293.99500000195,
      "d": 170.58814999999595,
      "v": 69
    },
    {
      "midi": 64,
      "hit": false,
      "t": 245293.99500000195,
      "d": 232.35282500000903,
      "v": 82
    },
    {
      "midi": 67,
      "hit": false,
      "t": 245293.99500000195,
      "d": 242.64693750001607,
      "v": 76
    },
    {
      "midi": 60,
      "hit": false,
      "t": 245646.93600000197,
      "d": 530.8820875000092,
      "v": 122
    },
    {
      "midi": 67,
      "hit": false,
      "t": 245646.93600000197,
      "d": 636.7643875000067,
      "v": 127
    },
    {
      "midi": 62,
      "hit": false,
      "t": 245646.93600000197,
      "d": 652.9408500000136,
      "v": 117
    },
    {
      "midi": 60,
      "hit": false,
      "t": 246352.81800000198,
      "d": 195.58813749998808,
      "v": 92
    },
    {
      "midi": 67,
      "hit": false,
      "t": 246352.81800000198,
      "d": 211.76459999999497,
      "v": 76
    },
    {
      "midi": 62,
      "hit": false,
      "t": 246352.81800000198,
      "d": 227.94106250000186,
      "v": 70
    },
    {
      "midi": 60,
      "hit": false,
      "t": 246705.75900000197,
      "d": 567.6467750000011,
      "v": 122
    },
    {
      "midi": 62,
      "hit": false,
      "t": 246705.75900000197,
      "d": 970.587750000006,
      "v": 100
    },
    {
      "midi": 67,
      "hit": false,
      "t": 246705.75900000197,
      "d": 992.6465625000128,
      "v": 117
    },
    {
      "midi": 60,
      "hit": false,
      "t": 247411.64100000198,
      "d": 283.823387499986,
      "v": 97
    },
    {
      "midi": 60,
      "hit": false,
      "t": 247764.58200000197,
      "d": 297.0586750000075,
      "v": 122
    },
    {
      "midi": 62,
      "hit": false,
      "t": 247764.58200000197,
      "d": 535.2938500000164,
      "v": 104
    },
    {
      "midi": 67,
      "hit": false,
      "t": 247764.58200000197,
      "d": 548.5291375000088,
      "v": 112
    },
    {
      "midi": 60,
      "hit": false,
      "t": 248117.523000002,
      "d": 136.76463749998948,
      "v": 108
    },
    {
      "midi": 43,
      "hit": false,
      "t": 248470.464000002,
      "d": 2514.704625000013,
      "v": 122
    },
    {
      "midi": 55,
      "hit": false,
      "t": 248470.464000002,
      "d": 2514.704625000013,
      "v": 122
    }
  ]
}