{
  "jsonPath": "Unknown/Unknown/Philip AabergBarbara HigbieDaniel Kobialka/prelude-in-e-minor-op-28-no-4.json",
  "path": "Unknown\\Unknown\\Philip AabergBarbara HigbieDaniel Kobialka\\Prelude In E Minor_ Op 28_ No 4.mid",
  "name": "Prelude In E Minor_ Op 28_ No 4",
  "difficulty": "Advanced",
  "bpm": 56.000082133453795,
  "notes": [
    {
      "midi": 59,
      "hit": false,
      "t": 0,
      "d": 1202.7135351562501,
      "v": 40
    },
    {
      "midi": 71,
      "hit": false,
      "t": 1184.21025,
      "d": 370.065703125,
      "v": 51
    },
    {
      "midi": 55,
      "hit": false,
      "t": 1578.9470000000001,
      "d": 789.4735000000001,
      "v": 64
    },
    {
      "midi": 59,
      "hit": false,
      "t": 1578.9470000000001,
      "d": 789.4735000000001,
      "v": 64
    },
    {
      "midi": 64,
      "hit": false,
      "t": 1578.9470000000001,
      "d": 789.4735000000001,
      "v": 64
    },
    {
      "midi": 71,
      "hit": false,
      "t": 1578.9470000000001,
      "d": 4829.357425781251,
      "v": 51
    },
    {
      "midi": 55,
      "hit": false,
      "t": 2368.4205,
      "d": 789.4735000000001,
      "v": 38
    },
    {
      "midi": 59,
      "hit": false,
      "t": 2368.4205,
      "d": 789.4735000000001,
      "v": 38
    },
    {
      "midi": 64,
      "hit": false,
      "t": 2368.4205,
      "d": 789.4735000000001,
      "v": 38
    },
    {
      "midi": 55,
      "hit": false,
      "t": 3157.8940000000002,
      "d": 789.4735000000001,
      "v": 39
    },
    {
      "midi": 59,
      "hit": false,
      "t": 3157.8940000000002,
      "d": 789.4735000000001,
      "v": 39
    },
    {
      "midi": 64,
      "hit": false,
      "t": 3157.8940000000002,
      "d": 789.4735000000001,
      "v": 39
    },
    {
      "midi": 55,
      "hit": false,
      "t": 3947.3675000000003,
      "d": 789.4735000000001,
      "v": 33
    },
    {
      "midi": 59,
      "hit": false,
      "t": 3947.3675000000003,
      "d": 789.4735000000001,
      "v": 33
    },
    {
      "midi": 64,
      "hit": false,
      "t": 3947.3675000000003,
      "d": 789.4735000000001,
      "v": 33
    },
    {
      "midi": 55,
      "hit": false,
      "t": 4736.841,
      "d": 789.4735000000001,
      "v": 34
    },
    {
      "midi": 59,
      "hit": false,
      "t": 4736.841,
      "d": 789.4735000000001,
      "v": 34
    },
    {
      "midi": 64,
      "hit": false,
      "t": 4736.841,
      "d": 789.4735000000001,
      "v": 34
    },
    {
      "midi": 55,
      "hit": false,
      "t": 5526.3145,
      "d": 789.4735000000001,
      "v": 37
    },
    {
      "midi": 59,
      "hit": false,
      "t": 5526.3145,
      "d": 789.4735000000001,
      "v": 37
    },
    {
      "midi": 64,
      "hit": false,
      "t": 5526.3145,
      "d": 789.4735000000001,
      "v": 37
    },
    {
      "midi": 55,
      "hit": false,
      "t": 6315.7880000000005,
      "d": 789.4735000000001,
      "v": 36
    },
    {
      "midi": 59,
      "hit": false,
      "t": 6315.7880000000005,
      "d": 789.4735000000001,
      "v": 36
    },
    {
      "midi": 64,
      "hit": false,
      "t": 6315.7880000000005,
      "d": 789.4735000000001,
      "v": 36
    },
    {
      "midi": 72,
      "hit": false,
      "t": 6315.7880000000005,
      "d": 1609.7858085937505,
      "v": 52
    },
    {
      "midi": 55,
      "hit": false,
      "t": 7105.2615000000005,
      "d": 746.2991679687502,
      "v": 36
    },
    {
      "midi": 59,
      "hit": false,
      "t": 7105.2615000000005,
      "d": 746.2991679687502,
      "v": 36
    },
    {
      "midi": 64,
      "hit": false,
      "t": 7105.2615000000005,
      "d": 746.2991679687502,
      "v": 36
    },
    {
      "midi": 54,
      "hit": false,
      "t": 7894.735000000001,
      "d": 789.4735000000001,
      "v": 30
    },
    {
      "midi": 57,
      "hit": false,
      "t": 7894.735000000001,
      "d": 789.4735000000001,
      "v": 30
    },
    {
      "midi": 64,
      "hit": false,
      "t": 7894.735000000001,
      "d": 789.4735000000001,
      "v": 30
    },
    {
      "midi": 71,
      "hit": false,
      "t": 7894.735000000001,
      "d": 4829.357425781251,
      "v": 52
    },
    {
      "midi": 54,
      "hit": false,
      "t": 8684.2085,
      "d": 789.4735000000001,
      "v": 39
    },
    {
      "midi": 57,
      "hit": false,
      "t": 8684.2085,
      "d": 789.4735000000001,
      "v": 39
    },
    {
      "midi": 64,
      "hit": false,
      "t": 8684.2085,
      "d": 789.4735000000001,
      "v": 39
    },
    {
      "midi": 54,
      "hit": false,
      "t": 9473.682,
      "d": 789.4735000000001,
      "v": 35
    },
    {
      "midi": 57,
      "hit": false,
      "t": 9473.682,
      "d": 789.4735000000001,
      "v": 35
    },
    {
      "midi": 64,
      "hit": false,
      "t": 9473.682,
      "d": 789.4735000000001,
      "v": 35
    },
    {
      "midi": 54,
      "hit": false,
      "t": 10263.1555,
      "d": 789.4735000000001,
      "v": 33
    },
    {
      "midi": 57,
      "hit": false,
      "t": 10263.1555,
      "d": 789.4735000000001,
      "v": 33
    },
    {
      "midi": 64,
      "hit": false,
      "t": 10263.1555,
      "d": 789.4735000000001,
      "v": 33
    },
    {
      "midi": 54,
      "hit": false,
      "t": 11052.629,
      "d": 789.4735000000001,
      "v": 34
    },
    {
      "midi": 57,
      "hit": false,
      "t": 11052.629,
      "d": 789.4735000000001,
      "v": 34
    },
    {
      "midi": 63,
      "hit": false,
      "t": 11052.629,
      "d": 789.4735000000001,
      "v": 34
    },
    {
      "midi": 54,
      "hit": false,
      "t": 11842.1025,
      "d": 789.4735000000001,
      "v": 34
    },
    {
      "midi": 57,
      "hit": false,
      "t": 11842.1025,
      "d": 789.4735000000001,
      "v": 34
    },
    {
      "midi": 63,
      "hit": false,
      "t": 11842.1025,
      "d": 789.4735000000001,
      "v": 34
    },
    {
      "midi": 54,
      "hit": false,
      "t": 12631.576000000001,
      "d": 789.4735000000001,
      "v": 35
    },
    {
      "midi": 57,
      "hit": false,
      "t": 12631.576000000001,
      "d": 789.4735000000001,
      "v": 35
    },
    {
      "midi": 63,
      "hit": false,
      "t": 12631.576000000001,
      "d": 789.4735000000001,
      "v": 35
    },
    {
      "midi": 72,
      "hit": false,
      "t": 12631.576000000001,
      "d": 1609.7858085937496,
      "v": 53
    },
    {
      "midi": 54,
      "hit": false,
      "t": 13421.049500000001,
      "d": 789.4735000000001,
      "v": 34
    },
    {
      "midi": 57,
      "hit": false,
      "t": 13421.049500000001,
      "d": 789.4735000000001,
      "v": 34
    },
    {
      "midi": 63,
      "hit": false,
      "t": 13421.049500000001,
      "d": 789.4735000000001,
      "v": 34
    },
    {
      "midi": 53,
      "hit": false,
      "t": 14210.523000000001,
      "d": 789.4735000000001,
      "v": 29
    },
    {
      "midi": 57,
      "hit": false,
      "t": 14210.523000000001,
      "d": 789.4735000000001,
      "v": 29
    },
    {
      "midi": 63,
      "hit": false,
      "t": 14210.523000000001,
      "d": 789.4735000000001,
      "v": 29
    },
    {
      "midi": 71,
      "hit": false,
      "t": 14210.523000000001,
      "d": 4829.357425781251,
      "v": 51
    },
    {
      "midi": 53,
      "hit": false,
      "t": 14999.996500000001,
      "d": 789.4735000000001,
      "v": 41
    },
    {
      "midi": 57,
      "hit": false,
      "t": 14999.996500000001,
      "d": 789.4735000000001,
      "v": 41
    },
    {
      "midi": 63,
      "hit": false,
      "t": 14999.996500000001,
      "d": 789.4735000000001,
      "v": 41
    },
    {
      "midi": 53,
      "hit": false,
      "t": 15789.470000000001,
      "d": 789.4735000000001,
      "v": 43
    },
    {
      "midi": 57,
      "hit": false,
      "t": 15789.470000000001,
      "d": 789.4735000000001,
      "v": 43
    },
    {
      "midi": 63,
      "hit": false,
      "t": 15789.470000000001,
      "d": 789.4735000000001,
      "v": 43
    },
    {
      "midi": 53,
      "hit": false,
      "t": 16578.9435,
      "d": 789.4735000000001,
      "v": 35
    },
    {
      "midi": 57,
      "hit": false,
      "t": 16578.9435,
      "d": 789.4735000000001,
      "v": 35
    },
    {
      "midi": 63,
      "hit": false,
      "t": 16578.9435,
      "d": 789.4735000000001,
      "v": 35
    },
    {
      "midi": 53,
      "hit": false,
      "t": 17368.417,
      "d": 789.4735000000001,
      "v": 32
    },
    {
      "midi": 57,
      "hit": false,
      "t": 17368.417,
      "d": 789.4735000000001,
      "v": 32
    },
    {
      "midi": 62,
      "hit": false,
      "t": 17368.417,
      "d": 789.4735000000001,
      "v": 32
    },
    {
      "midi": 53,
      "hit": false,
      "t": 18157.8905,
      "d": 789.4735000000001,
      "v": 36
    },
    {
      "midi": 57,
      "hit": false,
      "t": 18157.8905,
      "d": 789.4735000000001,
      "v": 36
    },
    {
      "midi": 62,
      "hit": false,
      "t": 18157.8905,
      "d": 789.4735000000001,
      "v": 36
    },
    {
      "midi": 53,
      "hit": false,
      "t": 18947.364,
      "d": 789.4735000000001,
      "v": 34
    },
    {
      "midi": 56,
      "hit": false,
      "t": 18947.364,
      "d": 789.4735000000001,
      "v": 34
    },
    {
      "midi": 62,
      "hit": false,
      "t": 18947.364,
      "d": 789.4735000000001,
      "v": 34
    },
    {
      "midi": 72,
      "hit": false,
      "t": 18947.364,
      "d": 1609.7858085937514,
      "v": 60
    },
    {
      "midi": 53,
      "hit": false,
      "t": 19736.8375,
      "d": 789.4735000000001,
      "v": 35
    },
    {
      "midi": 56,
      "hit": false,
      "t": 19736.8375,
      "d": 789.4735000000001,
      "v": 35
    },
    {
      "midi": 62,
      "hit": false,
      "t": 19736.8375,
      "d": 789.4735000000001,
      "v": 35
    },
    {
      "midi": 52,
      "hit": false,
      "t": 20526.311,
      "d": 789.4735000000001,
      "v": 39
    },
    {
      "midi": 56,
      "hit": false,
      "t": 20526.311,
      "d": 789.4735000000001,
      "v": 39
    },
    {
      "midi": 62,
      "hit": false,
      "t": 20526.311,
      "d": 789.4735000000001,
      "v": 39
    },
    {
      "midi": 71,
      "hit": false,
      "t": 20526.311,
      "d": 4829.357425781251,
      "v": 53
    },
    {
      "midi": 52,
      "hit": false,
      "t": 21315.7845,
      "d": 789.4735000000001,
      "v": 37
    },
    {
      "midi": 56,
      "hit": false,
      "t": 21315.7845,
      "d": 789.4735000000001,
      "v": 37
    },
    {
      "midi": 62,
      "hit": false,
      "t": 21315.7845,
      "d": 789.4735000000001,
      "v": 37
    },
    {
      "midi": 52,
      "hit": false,
      "t": 22105.258,
      "d": 789.4735000000001,
      "v": 38
    },
    {
      "midi": 56,
      "hit": false,
      "t": 22105.258,
      "d": 789.4735000000001,
      "v": 38
    },
    {
      "midi": 62,
      "hit": false,
      "t": 22105.258,
      "d": 789.4735000000001,
      "v": 38
    },
    {
      "midi": 52,
      "hit": false,
      "t": 22894.7315,
      "d": 789.4735000000001,
      "v": 42
    },
    {
      "midi": 56,
      "hit": false,
      "t": 22894.7315,
      "d": 789.4735000000001,
      "v": 42
    },
    {
      "midi": 62,
      "hit": false,
      "t": 22894.7315,
      "d": 789.4735000000001,
      "v": 42
    },
    {
      "midi": 52,
      "hit": false,
      "t": 23684.205,
      "d": 789.4735000000001,
      "v": 37
    },
    {
      "midi": 55,
      "hit": false,
      "t": 23684.205,
      "d": 789.4735000000001,
      "v": 37
    },
    {
      "midi": 62,
      "hit": false,
      "t": 23684.205,
      "d": 789.4735000000001,
      "v": 37
    },
    {
      "midi": 52,
      "hit": false,
      "t": 24473.6785,
      "d": 789.4735000000001,
      "v": 39
    },
    {
      "midi": 55,
      "hit": false,
      "t": 24473.6785,
      "d": 789.4735000000001,
      "v": 39
    },
    {
      "midi": 62,
      "hit": false,
      "t": 24473.6785,
      "d": 789.4735000000001,
      "v": 39
    },
    {
      "midi": 52,
      "hit": false,
      "t": 25263.152000000002,
      "d": 789.4735000000001,
      "v": 39
    },
    {
      "midi": 55,
      "hit": false,
      "t": 25263.152000000002,
      "d": 789.4735000000001,
      "v": 39
    },
    {
      "midi": 61,
      "hit": false,
      "t": 25263.152000000002,
      "d": 789.4735000000001,
      "v": 39
    },
    {
      "midi": 70,
      "hit": false,
      "t": 25263.152000000002,
      "d": 1609.7858085937514,
      "v": 57
    },
    {
      "midi": 52,
      "hit": false,
      "t": 26052.625500000002,
      "d": 789.4735000000001,
      "v": 35
    },
    {
      "midi": 55,
      "hit": false,
      "t": 26052.625500000002,
      "d": 789.4735000000001,
      "v": 35
    },
    {
      "midi": 61,
      "hit": false,
      "t": 26052.625500000002,
      "d": 789.4735000000001,
      "v": 35
    },
    {
      "midi": 52,
      "hit": false,
      "t": 26842.099000000002,
      "d": 789.4735000000001,
      "v": 42
    },
    {
      "midi": 55,
      "hit": false,
      "t": 26842.099000000002,
      "d": 789.4735000000001,
      "v": 42
    },
    {
      "midi": 60,
      "hit": false,
      "t": 26842.099000000002,
      "d": 789.4735000000001,
      "v": 42
    },
    {
      "midi": 69,
      "hit": false,
      "t": 26842.099000000002,
      "d": 4829.357425781251,
      "v": 56
    },
    {
      "midi": 52,
      "hit": false,
      "t": 27631.572500000002,
      "d": 789.4735000000001,
      "v": 46
    },
    {
      "midi": 55,
      "hit": false,
      "t": 27631.572500000002,
      "d": 789.4735000000001,
      "v": 46
    },
    {
      "midi": 60,
      "hit": false,
      "t": 27631.572500000002,
      "d": 789.4735000000001,
      "v": 46
    },
    {
      "midi": 52,
      "hit": false,
      "t": 28421.046000000002,
      "d": 789.4735000000001,
      "v": 42
    },
    {
      "midi": 55,
      "hit": false,
      "t": 28421.046000000002,
      "d": 789.4735000000001,
      "v": 42
    },
    {
      "midi": 60,
      "hit": false,
      "t": 28421.046000000002,
      "d": 789.4735000000001,
      "v": 42
    },
    {
      "midi": 52,
      "hit": false,
      "t": 29210.519500000002,
      "d": 789.4735000000001,
      "v": 44
    },
    {
      "midi": 55,
      "hit": false,
      "t": 29210.519500000002,
      "d": 789.4735000000001,
      "v": 44
    },
    {
      "midi": 60,
      "hit": false,
      "t": 29210.519500000002,
      "d": 789.4735000000001,
      "v": 44
    },
    {
      "midi": 52,
      "hit": false,
      "t": 29999.993000000002,
      "d": 789.4735000000001,
      "v": 42
    },
    {
      "midi": 54,
      "hit": false,
      "t": 29999.993000000002,
      "d": 789.4735000000001,
      "v": 42
    },
    {
      "midi": 60,
      "hit": false,
      "t": 29999.993000000002,
      "d": 789.4735000000001,
      "v": 42
    },
    {
      "midi": 52,
      "hit": false,
      "t": 30789.466500000002,
      "d": 789.4735000000001,
      "v": 50
    },
    {
      "midi": 54,
      "hit": false,
      "t": 30789.466500000002,
      "d": 789.4735000000001,
      "v": 50
    },
    {
      "midi": 60,
      "hit": false,
      "t": 30789.466500000002,
      "d": 789.4735000000001,
      "v": 50
    },
    {
      "midi": 52,
      "hit": false,
      "t": 31578.940000000002,
      "d": 789.4735000000001,
      "v": 49
    },
    {
      "midi": 54,
      "hit": false,
      "t": 31578.940000000002,
      "d": 789.4735000000001,
      "v": 49
    },
    {
      "midi": 60,
      "hit": false,
      "t": 31578.940000000002,
      "d": 789.4735000000001,
      "v": 49
    },
    {
      "midi": 71,
      "hit": false,
      "t": 31578.940000000002,
      "d": 1609.7858085937478,
      "v": 64
    },
    {
      "midi": 52,
      "hit": false,
      "t": 32368.413500000002,
      "d": 789.4735000000001,
      "v": 48
    },
    {
      "midi": 54,
      "hit": false,
      "t": 32368.413500000002,
      "d": 789.4735000000001,
      "v": 48
    },
    {
      "midi": 60,
      "hit": false,
      "t": 32368.413500000002,
      "d": 789.4735000000001,
      "v": 48
    },
    {
      "midi": 52,
      "hit": false,
      "t": 33157.887,
      "d": 789.4735000000001,
      "v": 50
    },
    {
      "midi": 54,
      "hit": false,
      "t": 33157.887,
      "d": 789.4735000000001,
      "v": 50
    },
    {
      "midi": 60,
      "hit": false,
      "t": 33157.887,
      "d": 789.4735000000001,
      "v": 50
    },
    {
      "midi": 69,
      "hit": false,
      "t": 33157.887,
      "d": 4829.357425781251,
      "v": 60
    },
    {
      "midi": 52,
      "hit": false,
      "t": 33947.3605,
      "d": 789.4735000000001,
      "v": 50
    },
    {
      "midi": 54,
      "hit": false,
      "t": 33947.3605,
      "d": 789.4735000000001,
      "v": 50
    },
    {
      "midi": 60,
      "hit": false,
      "t": 33947.3605,
      "d": 789.4735000000001,
      "v": 50
    },
    {
      "midi": 52,
      "hit": false,
      "t": 34736.834,
      "d": 789.4735000000001,
      "v": 45
    },
    {
      "midi": 54,
      "hit": false,
      "t": 34736.834,
      "d": 789.4735000000001,
      "v": 45
    },
    {
      "midi": 60,
      "hit": false,
      "t": 34736.834,
      "d": 789.4735000000001,
      "v": 45
    },
    {
      "midi": 52,
      "hit": false,
      "t": 35526.3075,
      "d": 789.4735000000001,
      "v": 51
    },
    {
      "midi": 54,
      "hit": false,
      "t": 35526.3075,
      "d": 789.4735000000001,
      "v": 51
    },
    {
      "midi": 60,
      "hit": false,
      "t": 35526.3075,
      "d": 789.4735000000001,
      "v": 51
    },
    {
      "midi": 51,
      "hit": false,
      "t": 36315.781,
      "d": 789.4735000000001,
      "v": 51
    },
    {
      "midi": 54,
      "hit": false,
      "t": 36315.781,
      "d": 789.4735000000001,
      "v": 51
    },
    {
      "midi": 60,
      "hit": false,
      "t": 36315.781,
      "d": 789.4735000000001,
      "v": 51
    },
    {
      "midi": 51,
      "hit": false,
      "t": 37105.2545,
      "d": 789.4735000000001,
      "v": 47
    },
    {
      "midi": 54,
      "hit": false,
      "t": 37105.2545,
      "d": 789.4735000000001,
      "v": 47
    },
    {
      "midi": 60,
      "hit": false,
      "t": 37105.2545,
      "d": 789.4735000000001,
      "v": 47
    },
    {
      "midi": 51,
      "hit": false,
      "t": 37894.728,
      "d": 789.4735000000001,
      "v": 48
    },
    {
      "midi": 54,
      "hit": false,
      "t": 37894.728,
      "d": 789.4735000000001,
      "v": 48
    },
    {
      "midi": 60,
      "hit": false,
      "t": 37894.728,
      "d": 789.4735000000001,
      "v": 48
    },
    {
      "midi": 71,
      "hit": false,
      "t": 37894.728,
      "d": 1609.7858085937478,
      "v": 56
    },
    {
      "midi": 51,
      "hit": false,
      "t": 38684.2015,
      "d": 789.4735000000001,
      "v": 47
    },
    {
      "midi": 54,
      "hit": false,
      "t": 38684.2015,
      "d": 789.4735000000001,
      "v": 47
    },
    {
      "midi": 60,
      "hit": false,
      "t": 38684.2015,
      "d": 789.4735000000001,
      "v": 47
    },
    {
      "midi": 50,
      "hit": false,
      "t": 39473.675,
      "d": 789.4735000000001,
      "v": 33
    },
    {
      "midi": 54,
      "hit": false,
      "t": 39473.675,
      "d": 789.4735000000001,
      "v": 33
    },
    {
      "midi": 60,
      "hit": false,
      "t": 39473.675,
      "d": 789.4735000000001,
      "v": 33
    },
    {
      "midi": 69,
      "hit": false,
      "t": 39473.675,
      "d": 4829.357425781251,
      "v": 49
    },
    {
      "midi": 50,
      "hit": false,
      "t": 40263.1485,
      "d": 789.4735000000001,
      "v": 38
    },
    {
      "midi": 54,
      "hit": false,
      "t": 40263.1485,
      "d": 789.4735000000001,
      "v": 38
    },
    {
      "midi": 60,
      "hit": false,
      "t": 40263.1485,
      "d": 789.4735000000001,
      "v": 38
    },
    {
      "midi": 50,
      "hit": false,
      "t": 41052.622,
      "d": 789.4735000000001,
      "v": 34
    },
    {
      "midi": 54,
      "hit": false,
      "t": 41052.622,
      "d": 789.4735000000001,
      "v": 34
    },
    {
      "midi": 60,
      "hit": false,
      "t": 41052.622,
      "d": 789.4735000000001,
      "v": 34
    },
    {
      "midi": 50,
      "hit": false,
      "t": 41842.0955,
      "d": 789.4735000000001,
      "v": 41
    },
    {
      "midi": 54,
      "hit": false,
      "t": 41842.0955,
      "d": 789.4735000000001,
      "v": 41
    },
    {
      "midi": 60,
      "hit": false,
      "t": 41842.0955,
      "d": 789.4735000000001,
      "v": 41
    },
    {
      "midi": 50,
      "hit": false,
      "t": 42631.569,
      "d": 789.4735000000001,
      "v": 42
    },
    {
      "midi": 54,
      "hit": false,
      "t": 42631.569,
      "d": 789.4735000000001,
      "v": 42
    },
    {
      "midi": 60,
      "hit": false,
      "t": 42631.569,
      "d": 789.4735000000001,
      "v": 42
    },
    {
      "midi": 50,
      "hit": false,
      "t": 43421.0425,
      "d": 789.4735000000001,
      "v": 43
    },
    {
      "midi": 54,
      "hit": false,
      "t": 43421.0425,
      "d": 789.4735000000001,
      "v": 43
    },
    {
      "midi": 60,
      "hit": false,
      "t": 43421.0425,
      "d": 789.4735000000001,
      "v": 43
    },
    {
      "midi": 50,
      "hit": false,
      "t": 44210.516,
      "d": 789.4735000000001,
      "v": 48
    },
    {
      "midi": 54,
      "hit": false,
      "t": 44210.516,
      "d": 789.4735000000001,
      "v": 48
    },
    {
      "midi": 60,
      "hit": false,
      "t": 44210.516,
      "d": 789.4735000000001,
      "v": 48
    },
    {
      "midi": 71,
      "hit": false,
      "t": 44210.516,
      "d": 1202.7135351562465,
      "v": 51
    },
    {
      "midi": 50,
      "hit": false,
      "t": 44999.9895,
      "d": 789.4735000000001,
      "v": 49
    },
    {
      "midi": 54,
      "hit": false,
      "t": 44999.9895,
      "d": 789.4735000000001,
      "v": 49
    },
    {
      "midi": 60,
      "hit": false,
      "t": 44999.9895,
      "d": 789.4735000000001,
      "v": 49
    },
    {
      "midi": 69,
      "hit": false,
      "t": 45394.72625,
      "d": 394.73675000000367,
      "v": 65
    },
    {
      "midi": 50,
      "hit": false,
      "t": 45789.463,
      "d": 789.4735000000001,
      "v": 50
    },
    {
      "midi": 53,
      "hit": false,
      "t": 45789.463,
      "d": 789.4735000000001,
      "v": 50
    },
    {
      "midi": 60,
      "hit": false,
      "t": 45789.463,
      "d": 789.4735000000001,
      "v": 50
    },
    {
      "midi": 69,
      "hit": false,
      "t": 45789.463,
      "d": 4829.357425781251,
      "v": 77
    },
    {
      "midi": 50,
      "hit": false,
      "t": 46578.9365,
      "d": 789.4735000000001,
      "v": 53
    },
    {
      "midi": 53,
      "hit": false,
      "t": 46578.9365,
      "d": 789.4735000000001,
      "v": 53
    },
    {
      "midi": 60,
      "hit": false,
      "t": 46578.9365,
      "d": 789.4735000000001,
      "v": 53
    },
    {
      "midi": 50,
      "hit": false,
      "t": 47368.41,
      "d": 789.4735000000001,
      "v": 56
    },
    {
      "midi": 53,
      "hit": false,
      "t": 47368.41,
      "d": 789.4735000000001,
      "v": 56
    },
    {
      "midi": 60,
      "hit": false,
      "t": 47368.41,
      "d": 789.4735000000001,
      "v": 56
    },
    {
      "midi": 50,
      "hit": false,
      "t": 48157.8835,
      "d": 789.4735000000001,
      "v": 55
    },
    {
      "midi": 53,
      "hit": false,
      "t": 48157.8835,
      "d": 789.4735000000001,
      "v": 55
    },
    {
      "midi": 60,
      "hit": false,
      "t": 48157.8835,
      "d": 789.4735000000001,
      "v": 55
    },
    {
      "midi": 50,
      "hit": false,
      "t": 48947.357,
      "d": 789.4735000000001,
      "v": 62
    },
    {
      "midi": 53,
      "hit": false,
      "t": 48947.357,
      "d": 789.4735000000001,
      "v": 62
    },
    {
      "midi": 59,
      "hit": false,
      "t": 48947.357,
      "d": 789.4735000000001,
      "v": 62
    },
    {
      "midi": 50,
      "hit": false,
      "t": 49736.830500000004,
      "d": 789.4735000000001,
      "v": 63
    },
    {
      "midi": 53,
      "hit": false,
      "t": 49736.830500000004,
      "d": 789.4735000000001,
      "v": 63
    },
    {
      "midi": 59,
      "hit": false,
      "t": 49736.830500000004,
      "d": 789.4735000000001,
      "v": 63
    },
    {
      "midi": 50,
      "hit": false,
      "t": 50526.304000000004,
      "d": 789.4735000000001,
      "v": 64
    },
    {
      "midi": 53,
      "hit": false,
      "t": 50526.304000000004,
      "d": 789.4735000000001,
      "v": 64
    },
    {
      "midi": 59,
      "hit": false,
      "t": 50526.304000000004,
      "d": 789.4735000000001,
      "v": 64
    },
    {
      "midi": 68,
      "hit": false,
      "t": 50526.304000000004,
      "d": 3219.571617187503,
      "v": 86
    },
    {
      "midi": 50,
      "hit": false,
      "t": 51315.777500000004,
      "d": 789.4735000000001,
      "v": 71
    },
    {
      "midi": 53,
      "hit": false,
      "t": 51315.777500000004,
      "d": 789.4735000000001,
      "v": 71
    },
    {
      "midi": 59,
      "hit": false,
      "t": 51315.777500000004,
      "d": 789.4735000000001,
      "v": 71
    },
    {
      "midi": 48,
      "hit": false,
      "t": 52105.251000000004,
      "d": 789.4735000000001,
      "v": 73
    },
    {
      "midi": 52,
      "hit": false,
      "t": 52105.251000000004,
      "d": 789.4735000000001,
      "v": 73
    },
    {
      "midi": 59,
      "hit": false,
      "t": 52105.251000000004,
      "d": 789.4735000000001,
      "v": 73
    },
    {
      "midi": 48,
      "hit": false,
      "t": 52894.724500000004,
      "d": 789.4735000000001,
      "v": 73
    },
    {
      "midi": 52,
      "hit": false,
      "t": 52894.724500000004,
      "d": 789.4735000000001,
      "v": 73
    },
    {
      "midi": 59,
      "hit": false,
      "t": 52894.724500000004,
      "d": 789.4735000000001,
      "v": 73
    },
    {
      "midi": 48,
      "hit": false,
      "t": 53684.198000000004,
      "d": 789.4735000000001,
      "v": 73
    },
    {
      "midi": 52,
      "hit": false,
      "t": 53684.198000000004,
      "d": 789.4735000000001,
      "v": 73
    },
    {
      "midi": 57,
      "hit": false,
      "t": 53684.198000000004,
      "d": 789.4735000000001,
      "v": 73
    },
    {
      "midi": 69,
      "hit": false,
      "t": 53684.198000000004,
      "d": 801.8090234374977,
      "v": 76
    },
    {
      "midi": 48,
      "hit": false,
      "t": 54473.671500000004,
      "d": 789.4735000000001,
      "v": 79
    },
    {
      "midi": 52,
      "hit": false,
      "t": 54473.671500000004,
      "d": 789.4735000000001,
      "v": 79
    },
    {
      "midi": 57,
      "hit": false,
      "t": 54473.671500000004,
      "d": 789.4735000000001,
      "v": 79
    },
    {
      "midi": 71,
      "hit": false,
      "t": 54473.671500000004,
      "d": 801.8090234374977,
      "v": 85
    },
    {
      "midi": 48,
      "hit": false,
      "t": 55263.145000000004,
      "d": 789.4735000000001,
      "v": 51
    },
    {
      "midi": 52,
      "hit": false,
      "t": 55263.145000000004,
      "d": 789.4735000000001,
      "v": 51
    },
    {
      "midi": 57,
      "hit": false,
      "t": 55263.145000000004,
      "d": 789.4735000000001,
      "v": 51
    },
    {
      "midi": 74,
      "hit": false,
      "t": 55263.145000000004,
      "d": 801.8090234374977,
      "v": 71
    },
    {
      "midi": 48,
      "hit": false,
      "t": 56052.618500000004,
      "d": 789.4735000000001,
      "v": 48
    },
    {
      "midi": 52,
      "hit": false,
      "t": 56052.618500000004,
      "d": 789.4735000000001,
      "v": 48
    },
    {
      "midi": 57,
      "hit": false,
      "t": 56052.618500000004,
      "d": 789.4735000000001,
      "v": 48
    },
    {
      "midi": 72,
      "hit": false,
      "t": 56052.618500000004,
      "d": 801.8090234374977,
      "v": 62
    },
    {
      "midi": 48,
      "hit": false,
      "t": 56842.092000000004,
      "d": 789.4735000000001,
      "v": 47
    },
    {
      "midi": 52,
      "hit": false,
      "t": 56842.092000000004,
      "d": 789.4735000000001,
      "v": 47
    },
    {
      "midi": 57,
      "hit": false,
      "t": 56842.092000000004,
      "d": 789.4735000000001,
      "v": 47
    },
    {
      "midi": 64,
      "hit": false,
      "t": 56842.092000000004,
      "d": 801.8090234374977,
      "v": 57
    },
    {
      "midi": 48,
      "hit": false,
      "t": 57631.565500000004,
      "d": 789.4735000000001,
      "v": 50
    },
    {
      "midi": 52,
      "hit": false,
      "t": 57631.565500000004,
      "d": 789.4735000000001,
      "v": 50
    },
    {
      "midi": 57,
      "hit": false,
      "t": 57631.565500000004,
      "d": 789.4735000000001,
      "v": 50
    },
    {
      "midi": 69,
      "hit": false,
      "t": 57631.565500000004,
      "d": 801.8090234374977,
      "v": 74
    },
    {
      "midi": 47,
      "hit": false,
      "t": 58421.039000000004,
      "d": 789.4735000000001,
      "v": 44
    },
    {
      "midi": 52,
      "hit": false,
      "t": 58421.039000000004,
      "d": 789.4735000000001,
      "v": 44
    },
    {
      "midi": 57,
      "hit": false,
      "t": 58421.039000000004,
      "d": 789.4735000000001,
      "v": 44
    },
    {
      "midi": 66,
      "hit": false,
      "t": 58421.039000000004,
      "d": 4496.29829296875,
      "v": 59
    },
    {
      "midi": 47,
      "hit": false,
      "t": 59210.512500000004,
      "d": 789.4735000000001,
      "v": 47
    },
    {
      "midi": 52,
      "hit": false,
      "t": 59210.512500000004,
      "d": 789.4735000000001,
      "v": 47
    },
    {
      "midi": 57,
      "hit": false,
      "t": 59210.512500000004,
      "d": 789.4735000000001,
      "v": 47
    },
    {
      "midi": 47,
      "hit": false,
      "t": 59999.986000000004,
      "d": 789.4735000000001,
      "v": 44
    },
    {
      "midi": 51,
      "hit": false,
      "t": 59999.986000000004,
      "d": 789.4735000000001,
      "v": 44
    },
    {
      "midi": 57,
      "hit": false,
      "t": 59999.986000000004,
      "d": 789.4735000000001,
      "v": 44
    },
    {
      "midi": 47,
      "hit": false,
      "t": 60789.459500000004,
      "d": 789.4735000000001,
      "v": 46
    },
    {
      "midi": 51,
      "hit": false,
      "t": 60789.459500000004,
      "d": 789.4735000000001,
      "v": 46
    },
    {
      "midi": 57,
      "hit": false,
      "t": 60789.459500000004,
      "d": 789.4735000000001,
      "v": 46
    },
    {
      "midi": 48,
      "hit": false,
      "t": 61578.933000000005,
      "d": 789.4735000000001,
      "v": 41
    },
    {
      "midi": 52,
      "hit": false,
      "t": 61578.933000000005,
      "d": 789.4735000000001,
      "v": 41
    },
    {
      "midi": 57,
      "hit": false,
      "t": 61578.933000000005,
      "d": 789.4735000000001,
      "v": 41
    },
    {
      "midi": 48,
      "hit": false,
      "t": 62368.406500000005,
      "d": 789.4735000000001,
      "v": 42
    },
    {
      "midi": 52,
      "hit": false,
      "t": 62368.406500000005,
      "d": 789.4735000000001,
      "v": 42
    },
    {
      "midi": 57,
      "hit": false,
      "t": 62368.406500000005,
      "d": 789.4735000000001,
      "v": 42
    },
    {
      "midi": 48,
      "hit": false,
      "t": 63157.880000000005,
      "d": 789.4735000000001,
      "v": 41
    },
    {
      "midi": 52,
      "hit": false,
      "t": 63157.880000000005,
      "d": 789.4735000000001,
      "v": 41
    },
    {
      "midi": 57,
      "hit": false,
      "t": 63157.880000000005,
      "d": 789.4735000000001,
      "v": 41
    },
    {
      "midi": 69,
      "hit": false,
      "t": 63157.880000000005,
      "d": 1609.7858085937478,
      "v": 64
    },
    {
      "midi": 48,
      "hit": false,
      "t": 63947.353500000005,
      "d": 789.4735000000001,
      "v": 45
    },
    {
      "midi": 52,
      "hit": false,
      "t": 63947.353500000005,
      "d": 789.4735000000001,
      "v": 45
    },
    {
      "midi": 57,
      "hit": false,
      "t": 63947.353500000005,
      "d": 789.4735000000001,
      "v": 45
    },
    {
      "midi": 47,
      "hit": false,
      "t": 64736.827000000005,
      "d": 789.4735000000001,
      "v": 42
    },
    {
      "midi": 51,
      "hit": false,
      "t": 64736.827000000005,
      "d": 789.4735000000001,
      "v": 42
    },
    {
      "midi": 57,
      "hit": false,
      "t": 64736.827000000005,
      "d": 789.4735000000001,
      "v": 42
    },
    {
      "midi": 66,
      "hit": false,
      "t": 64736.827000000005,
      "d": 4496.298292968728,
      "v": 48
    },
    {
      "midi": 47,
      "hit": false,
      "t": 65526.300500000005,
      "d": 789.4735000000001,
      "v": 41
    },
    {
      "midi": 51,
      "hit": false,
      "t": 65526.300500000005,
      "d": 789.4735000000001,
      "v": 41
    },
    {
      "midi": 57,
      "hit": false,
      "t": 65526.300500000005,
      "d": 789.4735000000001,
      "v": 41
    },
    {
      "midi": 47,
      "hit": false,
      "t": 66315.774,
      "d": 789.4734999999928,
      "v": 35
    },
    {
      "midi": 51,
      "hit": false,
      "t": 66315.774,
      "d": 789.4734999999928,
      "v": 35
    },
    {
      "midi": 57,
      "hit": false,
      "t": 66315.774,
      "d": 789.4734999999928,
      "v": 35
    },
    {
      "midi": 47,
      "hit": false,
      "t": 67105.2475,
      "d": 789.4734999999928,
      "v": 35
    },
    {
      "midi": 51,
      "hit": false,
      "t": 67105.2475,
      "d": 789.4734999999928,
      "v": 35
    },
    {
      "midi": 57,
      "hit": false,
      "t": 67105.2475,
      "d": 789.4734999999928,
      "v": 35
    },
    {
      "midi": 48,
      "hit": false,
      "t": 67894.72099999999,
      "d": 789.4734999999928,
      "v": 51
    },
    {
      "midi": 52,
      "hit": false,
      "t": 67894.72099999999,
      "d": 789.4734999999928,
      "v": 51
    },
    {
      "midi": 57,
      "hit": false,
      "t": 67894.72099999999,
      "d": 789.4734999999928,
      "v": 51
    },
    {
      "midi": 48,
      "hit": false,
      "t": 68684.19449999998,
      "d": 789.4734999999928,
      "v": 49
    },
    {
      "midi": 52,
      "hit": false,
      "t": 68684.19449999998,
      "d": 789.4734999999928,
      "v": 49
    },
    {
      "midi": 57,
      "hit": false,
      "t": 68684.19449999998,
      "d": 789.4734999999928,
      "v": 49
    },
    {
      "midi": 71,
      "hit": false,
      "t": 69399.65485937498,
      "d": 74.01314062500023,
      "v": 48
    },
    {
      "midi": 48,
      "hit": false,
      "t": 69473.66799999998,
      "d": 789.4734999999928,
      "v": 46
    },
    {
      "midi": 52,
      "hit": false,
      "t": 69473.66799999998,
      "d": 789.4734999999928,
      "v": 46
    },
    {
      "midi": 57,
      "hit": false,
      "t": 69473.66799999998,
      "d": 789.4734999999928,
      "v": 46
    },
    {
      "midi": 69,
      "hit": false,
      "t": 69473.66799999998,
      "d": 1523.4371445312427,
      "v": 48
    },
    {
      "midi": 48,
      "hit": false,
      "t": 70263.14149999997,
      "d": 789.4734999999928,
      "v": 50
    },
    {
      "midi": 52,
      "hit": false,
      "t": 70263.14149999997,
      "d": 789.4734999999928,
      "v": 50
    },
    {
      "midi": 57,
      "hit": false,
      "t": 70263.14149999997,
      "d": 789.4734999999928,
      "v": 50
    },
    {
      "midi": 67,
      "hit": false,
      "t": 71052.61499999996,
      "d": 758.6346914062451,
      "v": 46
    },
    {
      "midi": 47,
      "hit": false,
      "t": 71052.61499999996,
      "d": 1578.9469999999856,
      "v": 47
    },
    {
      "midi": 51,
      "hit": false,
      "t": 71052.61499999996,
      "d": 1578.9469999999856,
      "v": 47
    },
    {
      "midi": 57,
      "hit": false,
      "t": 71052.61499999996,
      "d": 1578.9469999999856,
      "v": 47
    },
    {
      "midi": 66,
      "hit": false,
      "t": 71842.08849999995,
      "d": 801.8090234374977,
      "v": 45
    },
    {
      "midi": 60,
      "hit": false,
      "t": 72631.56199999995,
      "d": 801.8090234375122,
      "v": 34
    },
    {
      "midi": 59,
      "hit": false,
      "t": 73421.03549999995,
      "d": 801.8090234375122,
      "v": 48
    },
    {
      "midi": 63,
      "hit": false,
      "t": 74210.50899999996,
      "d": 801.8090234375122,
      "v": 55
    },
    {
      "midi": 66,
      "hit": false,
      "t": 74999.98249999997,
      "d": 801.8090234375122,
      "v": 53
    },
    {
      "midi": 74,
      "hit": false,
      "t": 75789.45599999998,
      "d": 530.4275078125065,
      "v": 64
    },
    {
      "midi": 72,
      "hit": false,
      "t": 76313.71574609373,
      "d": 493.4209375000064,
      "v": 48
    },
    {
      "midi": 71,
      "hit": false,
      "t": 76837.97549218748,
      "d": 530.4275078125065,
      "v": 41
    },
    {
      "midi": 55,
      "hit": false,
      "t": 77368.40299999999,
      "d": 789.4734999999928,
      "v": 30
    },
    {
      "midi": 59,
      "hit": false,
      "t": 77368.40299999999,
      "d": 789.4734999999928,
      "v": 30
    },
    {
      "midi": 64,
      "hit": false,
      "t": 77368.40299999999,
      "d": 789.4734999999928,
      "v": 30
    },
    {
      "midi": 71,
      "hit": false,
      "t": 77368.40299999999,
      "d": 4829.3574257812,
      "v": 48
    },
    {
      "midi": 55,
      "hit": false,
      "t": 78157.87649999998,
      "d": 789.4734999999928,
      "v": 31
    },
    {
      "midi": 59,
      "hit": false,
      "t": 78157.87649999998,
      "d": 789.4734999999928,
      "v": 31
    },
    {
      "midi": 64,
      "hit": false,
      "t": 78157.87649999998,
      "d": 789.4734999999928,
      "v": 31
    },
    {
      "midi": 55,
      "hit": false,
      "t": 78947.34999999998,
      "d": 789.4734999999928,
      "v": 34
    },
    {
      "midi": 59,
      "hit": false,
      "t": 78947.34999999998,
      "d": 789.4734999999928,
      "v": 34
    },
    {
      "midi": 64,
      "hit": false,
      "t": 78947.34999999998,
      "d": 789.4734999999928,
      "v": 34
    },
    {
      "midi": 55,
      "hit": false,
      "t": 79736.82349999997,
      "d": 789.4734999999928,
      "v": 35
    },
    {
      "midi": 59,
      "hit": false,
      "t": 79736.82349999997,
      "d": 789.4734999999928,
      "v": 35
    },
    {
      "midi": 64,
      "hit": false,
      "t": 79736.82349999997,
      "d": 789.4734999999928,
      "v": 35
    },
    {
      "midi": 55,
      "hit": false,
      "t": 80526.29699999996,
      "d": 789.4734999999928,
      "v": 39
    },
    {
      "midi": 59,
      "hit": false,
      "t": 80526.29699999996,
      "d": 789.4734999999928,
      "v": 39
    },
    {
      "midi": 64,
      "hit": false,
      "t": 80526.29699999996,
      "d": 789.4734999999928,
      "v": 39
    },
    {
      "midi": 55,
      "hit": false,
      "t": 81315.77049999996,
      "d": 789.4734999999928,
      "v": 43
    },
    {
      "midi": 59,
      "hit": false,
      "t": 81315.77049999996,
      "d": 789.4734999999928,
      "v": 43
    },
    {
      "midi": 64,
      "hit": false,
      "t": 81315.77049999996,
      "d": 789.4734999999928,
      "v": 43
    },
    {
      "midi": 55,
      "hit": false,
      "t": 82105.24399999995,
      "d": 789.4734999999928,
      "v": 39
    },
    {
      "midi": 59,
      "hit": false,
      "t": 82105.24399999995,
      "d": 789.4734999999928,
      "v": 39
    },
    {
      "midi": 64,
      "hit": false,
      "t": 82105.24399999995,
      "d": 789.4734999999928,
      "v": 39
    },
    {
      "midi": 72,
      "hit": false,
      "t": 82105.24399999995,
      "d": 1609.7858085937332,
      "v": 54
    },
    {
      "midi": 55,
      "hit": false,
      "t": 82894.71749999994,
      "d": 789.4734999999928,
      "v": 37
    },
    {
      "midi": 59,
      "hit": false,
      "t": 82894.71749999994,
      "d": 789.4734999999928,
      "v": 37
    },
    {
      "midi": 64,
      "hit": false,
      "t": 82894.71749999994,
      "d": 789.4734999999928,
      "v": 37
    },
    {
      "midi": 54,
      "hit": false,
      "t": 83684.19099999993,
      "d": 789.4734999999928,
      "v": 36
    },
    {
      "midi": 57,
      "hit": false,
      "t": 83684.19099999993,
      "d": 789.4734999999928,
      "v": 36
    },
    {
      "midi": 64,
      "hit": false,
      "t": 83684.19099999993,
      "d": 789.4734999999928,
      "v": 36
    },
    {
      "midi": 71,
      "hit": false,
      "t": 83684.19099999993,
      "d": 4829.3574257812,
      "v": 57
    },
    {
      "midi": 54,
      "hit": false,
      "t": 84473.66449999993,
      "d": 789.4734999999928,
      "v": 41
    },
    {
      "midi": 57,
      "hit": false,
      "t": 84473.66449999993,
      "d": 789.4734999999928,
      "v": 41
    },
    {
      "midi": 64,
      "hit": false,
      "t": 84473.66449999993,
      "d": 789.4734999999928,
      "v": 41
    },
    {
      "midi": 54,
      "hit": false,
      "t": 85263.13799999992,
      "d": 789.4734999999928,
      "v": 44
    },
    {
      "midi": 57,
      "hit": false,
      "t": 85263.13799999992,
      "d": 789.4734999999928,
      "v": 44
    },
    {
      "midi": 64,
      "hit": false,
      "t": 85263.13799999992,
      "d": 789.4734999999928,
      "v": 44
    },
    {
      "midi": 54,
      "hit": false,
      "t": 86052.61149999991,
      "d": 789.4734999999928,
      "v": 36
    },
    {
      "midi": 57,
      "hit": false,
      "t": 86052.61149999991,
      "d": 789.4734999999928,
      "v": 36
    },
    {
      "midi": 64,
      "hit": false,
      "t": 86052.61149999991,
      "d": 789.4734999999928,
      "v": 36
    },
    {
      "midi": 53,
      "hit": false,
      "t": 86842.0849999999,
      "d": 789.4734999999928,
      "v": 39
    },
    {
      "midi": 57,
      "hit": false,
      "t": 86842.0849999999,
      "d": 789.4734999999928,
      "v": 39
    },
    {
      "midi": 63,
      "hit": false,
      "t": 86842.0849999999,
      "d": 789.4734999999928,
      "v": 39
    },
    {
      "midi": 53,
      "hit": false,
      "t": 87631.5584999999,
      "d": 789.4734999999928,
      "v": 44
    },
    {
      "midi": 57,
      "hit": false,
      "t": 87631.5584999999,
      "d": 789.4734999999928,
      "v": 44
    },
    {
      "midi": 63,
      "hit": false,
      "t": 87631.5584999999,
      "d": 789.4734999999928,
      "v": 44
    },
    {
      "midi": 53,
      "hit": false,
      "t": 88421.03199999989,
      "d": 789.4734999999928,
      "v": 51
    },
    {
      "midi": 57,
      "hit": false,
      "t": 88421.03199999989,
      "d": 789.4734999999928,
      "v": 51
    },
    {
      "midi": 63,
      "hit": false,
      "t": 88421.03199999989,
      "d": 789.4734999999928,
      "v": 51
    },
    {
      "midi": 72,
      "hit": false,
      "t": 88421.03199999989,
      "d": 1609.7858085937332,
      "v": 64
    },
    {
      "midi": 53,
      "hit": false,
      "t": 89210.50549999988,
      "d": 789.4734999999928,
      "v": 43
    },
    {
      "midi": 57,
      "hit": false,
      "t": 89210.50549999988,
      "d": 789.4734999999928,
      "v": 43
    },
    {
      "midi": 63,
      "hit": false,
      "t": 89210.50549999988,
      "d": 789.4734999999928,
      "v": 43
    },
    {
      "midi": 53,
      "hit": false,
      "t": 89999.97899999988,
      "d": 789.4734999999928,
      "v": 48
    },
    {
      "midi": 56,
      "hit": false,
      "t": 89999.97899999988,
      "d": 789.4734999999928,
      "v": 48
    },
    {
      "midi": 63,
      "hit": false,
      "t": 89999.97899999988,
      "d": 789.4734999999928,
      "v": 48
    },
    {
      "midi": 71,
      "hit": false,
      "t": 89999.97899999988,
      "d": 4829.3574257812,
      "v": 59
    },
    {
      "midi": 53,
      "hit": false,
      "t": 90789.45249999987,
      "d": 789.4734999999928,
      "v": 46
    },
    {
      "midi": 56,
      "hit": false,
      "t": 90789.45249999987,
      "d": 789.4734999999928,
      "v": 46
    },
    {
      "midi": 63,
      "hit": false,
      "t": 90789.45249999987,
      "d": 789.4734999999928,
      "v": 46
    },
    {
      "midi": 53,
      "hit": false,
      "t": 91578.92599999986,
      "d": 789.4734999999928,
      "v": 48
    },
    {
      "midi": 56,
      "hit": false,
      "t": 91578.92599999986,
      "d": 789.4734999999928,
      "v": 48
    },
    {
      "midi": 62,
      "hit": false,
      "t": 91578.92599999986,
      "d": 789.4734999999928,
      "v": 48
    },
    {
      "midi": 53,
      "hit": false,
      "t": 92368.39949999985,
      "d": 789.4734999999928,
      "v": 47
    },
    {
      "midi": 56,
      "hit": false,
      "t": 92368.39949999985,
      "d": 789.4734999999928,
      "v": 47
    },
    {
      "midi": 62,
      "hit": false,
      "t": 92368.39949999985,
      "d": 789.4734999999928,
      "v": 47
    },
    {
      "midi": 52,
      "hit": false,
      "t": 93157.87299999985,
      "d": 789.4734999999928,
      "v": 49
    },
    {
      "midi": 56,
      "hit": false,
      "t": 93157.87299999985,
      "d": 789.4734999999928,
      "v": 49
    },
    {
      "midi": 62,
      "hit": false,
      "t": 93157.87299999985,
      "d": 789.4734999999928,
      "v": 49
    },
    {
      "midi": 52,
      "hit": false,
      "t": 93947.34649999984,
      "d": 789.4734999999928,
      "v": 55
    },
    {
      "midi": 56,
      "hit": false,
      "t": 93947.34649999984,
      "d": 789.4734999999928,
      "v": 55
    },
    {
      "midi": 62,
      "hit": false,
      "t": 93947.34649999984,
      "d": 789.4734999999928,
      "v": 55
    },
    {
      "midi": 52,
      "hit": false,
      "t": 94736.81999999983,
      "d": 789.4734999999928,
      "v": 53
    },
    {
      "midi": 56,
      "hit": false,
      "t": 94736.81999999983,
      "d": 789.4734999999928,
      "v": 53
    },
    {
      "midi": 62,
      "hit": false,
      "t": 94736.81999999983,
      "d": 789.4734999999928,
      "v": 53
    },
    {
      "midi": 72,
      "hit": false,
      "t": 94736.81999999983,
      "d": 1609.7858085937332,
      "v": 72
    },
    {
      "midi": 52,
      "hit": false,
      "t": 95526.29349999983,
      "d": 789.4734999999928,
      "v": 54
    },
    {
      "midi": 56,
      "hit": false,
      "t": 95526.29349999983,
      "d": 789.4734999999928,
      "v": 54
    },
    {
      "midi": 62,
      "hit": false,
      "t": 95526.29349999983,
      "d": 789.4734999999928,
      "v": 54
    },
    {
      "midi": 52,
      "hit": false,
      "t": 96315.76699999982,
      "d": 789.4734999999928,
      "v": 56
    },
    {
      "midi": 55,
      "hit": false,
      "t": 96315.76699999982,
      "d": 789.4734999999928,
      "v": 56
    },
    {
      "midi": 62,
      "hit": false,
      "t": 96315.76699999982,
      "d": 789.4734999999928,
      "v": 56
    },
    {
      "midi": 71,
      "hit": false,
      "t": 96315.76699999982,
      "d": 1202.713535156232,
      "v": 65
    },
    {
      "midi": 52,
      "hit": false,
      "t": 97105.24049999981,
      "d": 789.4734999999928,
      "v": 60
    },
    {
      "midi": 55,
      "hit": false,
      "t": 97105.24049999981,
      "d": 789.4734999999928,
      "v": 60
    },
    {
      "midi": 62,
      "hit": false,
      "t": 97105.24049999981,
      "d": 789.4734999999928,
      "v": 60
    },
    {
      "midi": 70,
      "hit": false,
      "t": 97499.9772499998,
      "d": 394.7367499999964,
      "v": 71
    },
    {
      "midi": 52,
      "hit": false,
      "t": 97894.7139999998,
      "d": 789.4734999999928,
      "v": 55
    },
    {
      "midi": 55,
      "hit": false,
      "t": 97894.7139999998,
      "d": 789.4734999999928,
      "v": 55
    },
    {
      "midi": 61,
      "hit": false,
      "t": 97894.7139999998,
      "d": 789.4734999999928,
      "v": 55
    },
    {
      "midi": 70,
      "hit": false,
      "t": 97894.7139999998,
      "d": 1202.7135351562465,
      "v": 74
    },
    {
      "midi": 52,
      "hit": false,
      "t": 98684.1874999998,
      "d": 789.4735000000073,
      "v": 64
    },
    {
      "midi": 55,
      "hit": false,
      "t": 98684.1874999998,
      "d": 789.4735000000073,
      "v": 64
    },
    {
      "midi": 61,
      "hit": false,
      "t": 98684.1874999998,
      "d": 789.4735000000073,
      "v": 64
    },
    {
      "midi": 71,
      "hit": false,
      "t": 99097.42753515605,
      "d": 376.2334648437536,
      "v": 98
    },
    {
      "midi": 69,
      "hit": false,
      "t": 99270.12486328105,
      "d": 203.53613671875792,
      "v": 98
    },
    {
      "midi": 70,
      "hit": false,
      "t": 99350.3057656248,
      "d": 123.35523437500524,
      "v": 98
    },
    {
      "midi": 49,
      "hit": false,
      "t": 99473.6609999998,
      "d": 789.4734999999928,
      "v": 62
    },
    {
      "midi": 52,
      "hit": false,
      "t": 99473.6609999998,
      "d": 789.4734999999928,
      "v": 62
    },
    {
      "midi": 58,
      "hit": false,
      "t": 99473.6609999998,
      "d": 789.4734999999928,
      "v": 62
    },
    {
      "midi": 79,
      "hit": false,
      "t": 99473.6609999998,
      "d": 1609.7858085937332,
      "v": 98
    },
    {
      "midi": 49,
      "hit": false,
      "t": 100263.1344999998,
      "d": 789.4734999999928,
      "v": 65
    },
    {
      "midi": 52,
      "hit": false,
      "t": 100263.1344999998,
      "d": 789.4734999999928,
      "v": 65
    },
    {
      "midi": 58,
      "hit": false,
      "t": 100263.1344999998,
      "d": 789.4734999999928,
      "v": 65
    },
    {
      "midi": 48,
      "hit": false,
      "t": 101052.60799999979,
      "d": 789.4734999999928,
      "v": 62
    },
    {
      "midi": 52,
      "hit": false,
      "t": 101052.60799999979,
      "d": 789.4734999999928,
      "v": 62
    },
    {
      "midi": 57,
      "hit": false,
      "t": 101052.60799999979,
      "d": 789.4734999999928,
      "v": 62
    },
    {
      "midi": 78,
      "hit": false,
      "t": 101052.60799999979,
      "d": 1202.713535156232,
      "v": 86
    },
    {
      "midi": 48,
      "hit": false,
      "t": 101842.08149999978,
      "d": 789.4734999999928,
      "v": 62
    },
    {
      "midi": 52,
      "hit": false,
      "t": 101842.08149999978,
      "d": 789.4734999999928,
      "v": 62
    },
    {
      "midi": 57,
      "hit": false,
      "t": 101842.08149999978,
      "d": 789.4734999999928,
      "v": 62
    },
    {
      "midi": 76,
      "hit": false,
      "t": 102236.81824999978,
      "d": 394.7367499999964,
      "v": 86
    },
    {
      "midi": 35,
      "hit": false,
      "t": 102631.55499999977,
      "d": 789.4734999999928,
      "v": 83
    },
    {
      "midi": 47,
      "hit": false,
      "t": 102631.55499999977,
      "d": 789.4734999999928,
      "v": 83
    },
    {
      "midi": 76,
      "hit": false,
      "t": 102631.55499999977,
      "d": 801.8090234374977,
      "v": 88
    },
    {
      "midi": 57,
      "hit": false,
      "t": 103421.02849999977,
      "d": 789.4735000000073,
      "v": 76
    },
    {
      "midi": 60,
      "hit": false,
      "t": 103421.02849999977,
      "d": 789.4735000000073,
      "v": 76
    },
    {
      "midi": 66,
      "hit": false,
      "t": 103421.02849999977,
      "d": 789.4735000000073,
      "v": 76
    },
    {
      "midi": 69,
      "hit": false,
      "t": 103421.02849999977,
      "d": 789.4735000000073,
      "v": 76
    },
    {
      "midi": 75,
      "hit": false,
      "t": 103421.02849999977,
      "d": 801.8090234375122,
      "v": 84
    },
    {
      "midi": 57,
      "hit": false,
      "t": 104210.50199999977,
      "d": 789.4735000000073,
      "v": 62
    },
    {
      "midi": 60,
      "hit": false,
      "t": 104210.50199999977,
      "d": 789.4735000000073,
      "v": 62
    },
    {
      "midi": 66,
      "hit": false,
      "t": 104210.50199999977,
      "d": 789.4735000000073,
      "v": 62
    },
    {
      "midi": 69,
      "hit": false,
      "t": 104210.50199999977,
      "d": 789.4735000000073,
      "v": 62
    },
    {
      "midi": 84,
      "hit": false,
      "t": 104210.50199999977,
      "d": 801.8090234375122,
      "v": 118
    },
    {
      "midi": 57,
      "hit": false,
      "t": 104999.97549999978,
      "d": 789.4735000000073,
      "v": 74
    },
    {
      "midi": 60,
      "hit": false,
      "t": 104999.97549999978,
      "d": 789.4735000000073,
      "v": 74
    },
    {
      "midi": 66,
      "hit": false,
      "t": 104999.97549999978,
      "d": 789.4735000000073,
      "v": 74
    },
    {
      "midi": 69,
      "hit": false,
      "t": 104999.97549999978,
      "d": 789.4735000000073,
      "v": 74
    },
    {
      "midi": 75,
      "hit": false,
      "t": 104999.97549999978,
      "d": 789.4735000000073,
      "v": 79
    },
    {
      "midi": 55,
      "hit": false,
      "t": 105789.44899999979,
      "d": 789.4734999999928,
      "v": 67
    },
    {
      "midi": 59,
      "hit": false,
      "t": 105789.44899999979,
      "d": 789.4734999999928,
      "v": 67
    },
    {
      "midi": 63,
      "hit": false,
      "t": 105789.44899999979,
      "d": 789.4734999999928,
      "v": 67
    },
    {
      "midi": 66,
      "hit": false,
      "t": 105789.44899999979,
      "d": 789.4734999999928,
      "v": 67
    },
    {
      "midi": 75,
      "hit": false,
      "t": 105789.44899999979,
      "d": 801.8090234374977,
      "v": 98
    },
    {
      "midi": 55,
      "hit": false,
      "t": 106578.92249999978,
      "d": 789.4735000000073,
      "v": 74
    },
    {
      "midi": 59,
      "hit": false,
      "t": 106578.92249999978,
      "d": 789.4735000000073,
      "v": 74
    },
    {
      "midi": 64,
      "hit": false,
      "t": 106578.92249999978,
      "d": 789.4735000000073,
      "v": 74
    },
    {
      "midi": 76,
      "hit": false,
      "t": 106578.92249999978,
      "d": 801.8090234375122,
      "v": 97
    },
    {
      "midi": 55,
      "hit": false,
      "t": 107368.39599999979,
      "d": 789.4735000000073,
      "v": 83
    },
    {
      "midi": 59,
      "hit": false,
      "t": 107368.39599999979,
      "d": 789.4735000000073,
      "v": 83
    },
    {
      "midi": 64,
      "hit": false,
      "t": 107368.39599999979,
      "d": 789.4735000000073,
      "v": 83
    },
    {
      "midi": 79,
      "hit": false,
      "t": 107368.39599999979,
      "d": 801.8090234375122,
      "v": 103
    },
    {
      "midi": 55,
      "hit": false,
      "t": 108157.8694999998,
      "d": 789.4735000000073,
      "v": 93
    },
    {
      "midi": 59,
      "hit": false,
      "t": 108157.8694999998,
      "d": 789.4735000000073,
      "v": 93
    },
    {
      "midi": 64,
      "hit": false,
      "t": 108157.8694999998,
      "d": 789.4735000000073,
      "v": 93
    },
    {
      "midi": 71,
      "hit": false,
      "t": 108157.8694999998,
      "d": 801.8090234375122,
      "v": 73
    },
    {
      "midi": 57,
      "hit": false,
      "t": 108947.3429999998,
      "d": 789.4735000000073,
      "v": 50
    },
    {
      "midi": 60,
      "hit": false,
      "t": 108947.3429999998,
      "d": 789.4735000000073,
      "v": 50
    },
    {
      "midi": 64,
      "hit": false,
      "t": 108947.3429999998,
      "d": 789.4735000000073,
      "v": 50
    },
    {
      "midi": 74,
      "hit": false,
      "t": 108947.3429999998,
      "d": 801.8090234375122,
      "v": 101
    },
    {
      "midi": 57,
      "hit": false,
      "t": 109736.81649999981,
      "d": 789.4735000000073,
      "v": 45
    },
    {
      "midi": 60,
      "hit": false,
      "t": 109736.81649999981,
      "d": 789.4735000000073,
      "v": 45
    },
    {
      "midi": 64,
      "hit": false,
      "t": 109736.81649999981,
      "d": 789.4735000000073,
      "v": 45
    },
    {
      "midi": 72,
      "hit": false,
      "t": 109736.81649999981,
      "d": 801.8090234375122,
      "v": 86
    },
    {
      "midi": 76,
      "hit": false,
      "t": 110526.28999999982,
      "d": 530.4275078125065,
      "v": 93
    },
    {
      "midi": 45,
      "hit": false,
      "t": 110526.28999999982,
      "d": 789.4735000000073,
      "v": 39
    },
    {
      "midi": 64,
      "hit": false,
      "t": 111050.54974609357,
      "d": 530.4275078125065,
      "v": 59
    },
    {
      "midi": 52,
      "hit": false,
      "t": 111315.76349999983,
      "d": 789.4735000000073,
      "v": 44
    },
    {
      "midi": 54,
      "hit": false,
      "t": 111315.76349999983,
      "d": 789.4735000000073,
      "v": 44
    },
    {
      "midi": 60,
      "hit": false,
      "t": 111315.76349999983,
      "d": 789.4735000000073,
      "v": 44
    },
    {
      "midi": 69,
      "hit": false,
      "t": 111574.80949218733,
      "d": 536.595269531259,
      "v": 80
    },
    {
      "midi": 47,
      "hit": false,
      "t": 112105.23699999983,
      "d": 789.4735000000073,
      "v": 31
    },
    {
      "midi": 52,
      "hit": false,
      "t": 112105.23699999983,
      "d": 789.4735000000073,
      "v": 31
    },
    {
      "midi": 59,
      "hit": false,
      "t": 112105.23699999983,
      "d": 789.4735000000073,
      "v": 31
    },
    {
      "midi": 66,
      "hit": false,
      "t": 112105.23699999983,
      "d": 2411.5948320312455,
      "v": 72
    },
    {
      "midi": 47,
      "hit": false,
      "t": 112894.71049999984,
      "d": 789.4734999999928,
      "v": 31
    },
    {
      "midi": 52,
      "hit": false,
      "t": 112894.71049999984,
      "d": 789.4734999999928,
      "v": 31
    },
    {
      "midi": 59,
      "hit": false,
      "t": 112894.71049999984,
      "d": 789.4734999999928,
      "v": 31
    },
    {
      "midi": 48,
      "hit": false,
      "t": 113684.18399999983,
      "d": 789.4734999999928,
      "v": 29
    },
    {
      "midi": 52,
      "hit": false,
      "t": 113684.18399999983,
      "d": 789.4734999999928,
      "v": 29
    },
    {
      "midi": 57,
      "hit": false,
      "t": 113684.18399999983,
      "d": 789.4734999999928,
      "v": 29
    },
    {
      "midi": 48,
      "hit": false,
      "t": 114473.65749999983,
      "d": 789.4735000000073,
      "v": 34
    },
    {
      "midi": 52,
      "hit": false,
      "t": 114473.65749999983,
      "d": 789.4735000000073,
      "v": 34
    },
    {
      "midi": 57,
      "hit": false,
      "t": 114473.65749999983,
      "d": 789.4735000000073,
      "v": 34
    },
    {
      "midi": 69,
      "hit": false,
      "t": 114473.65749999983,
      "d": 801.8090234375122,
      "v": 78
    },
    {
      "midi": 47,
      "hit": false,
      "t": 115263.13099999983,
      "d": 789.4735000000073,
      "v": 36
    },
    {
      "midi": 52,
      "hit": false,
      "t": 115263.13099999983,
      "d": 789.4735000000073,
      "v": 36
    },
    {
      "midi": 59,
      "hit": false,
      "t": 115263.13099999983,
      "d": 789.4735000000073,
      "v": 36
    },
    {
      "midi": 66,
      "hit": false,
      "t": 115263.13099999983,
      "d": 4496.298292968728,
      "v": 71
    },
    {
      "midi": 47,
      "hit": false,
      "t": 116052.60449999984,
      "d": 789.4734999999928,
      "v": 31
    },
    {
      "midi": 52,
      "hit": false,
      "t": 116052.60449999984,
      "d": 789.4734999999928,
      "v": 31
    },
    {
      "midi": 59,
      "hit": false,
      "t": 116052.60449999984,
      "d": 789.4734999999928,
      "v": 31
    },
    {
      "midi": 47,
      "hit": false,
      "t": 116842.07799999983,
      "d": 789.4734999999928,
      "v": 31
    },
    {
      "midi": 52,
      "hit": false,
      "t": 116842.07799999983,
      "d": 789.4734999999928,
      "v": 31
    },
    {
      "midi": 59,
      "hit": false,
      "t": 116842.07799999983,
      "d": 789.4734999999928,
      "v": 31
    },
    {
      "midi": 47,
      "hit": false,
      "t": 117631.55149999983,
      "d": 789.4734999999928,
      "v": 32
    },
    {
      "midi": 52,
      "hit": false,
      "t": 117631.55149999983,
      "d": 789.4734999999928,
      "v": 32
    },
    {
      "midi": 59,
      "hit": false,
      "t": 117631.55149999983,
      "d": 789.4734999999928,
      "v": 32
    },
    {
      "midi": 48,
      "hit": false,
      "t": 118421.02499999982,
      "d": 789.4734999999928,
      "v": 29
    },
    {
      "midi": 52,
      "hit": false,
      "t": 118421.02499999982,
      "d": 789.4734999999928,
      "v": 29
    },
    {
      "midi": 57,
      "hit": false,
      "t": 118421.02499999982,
      "d": 789.4734999999928,
      "v": 29
    },
    {
      "midi": 48,
      "hit": false,
      "t": 119210.49849999981,
      "d": 789.4735000000073,
      "v": 29
    },
    {
      "midi": 52,
      "hit": false,
      "t": 119210.49849999981,
      "d": 789.4735000000073,
      "v": 29
    },
    {
      "midi": 57,
      "hit": false,
      "t": 119210.49849999981,
      "d": 789.4735000000073,
      "v": 29
    },
    {
      "midi": 71,
      "hit": false,
      "t": 119919.79109765607,
      "d": 80.18090234375268,
      "v": 45
    },
    {
      "midi": 48,
      "hit": false,
      "t": 119999.97199999982,
      "d": 789.4734999999928,
      "v": 35
    },
    {
      "midi": 52,
      "hit": false,
      "t": 119999.97199999982,
      "d": 789.4734999999928,
      "v": 35
    },
    {
      "midi": 57,
      "hit": false,
      "t": 119999.97199999982,
      "d": 789.4734999999928,
      "v": 35
    },
    {
      "midi": 69,
      "hit": false,
      "t": 119999.97199999982,
      "d": 1523.4371445312427,
      "v": 45
    },
    {
      "midi": 48,
      "hit": false,
      "t": 120789.44549999981,
      "d": 789.4734999999928,
      "v": 37
    },
    {
      "midi": 52,
      "hit": false,
      "t": 120789.44549999981,
      "d": 789.4734999999928,
      "v": 37
    },
    {
      "midi": 57,
      "hit": false,
      "t": 120789.44549999981,
      "d": 789.4734999999928,
      "v": 37
    },
    {
      "midi": 47,
      "hit": false,
      "t": 121578.9189999998,
      "d": 789.4734999999928,
      "v": 32
    },
    {
      "midi": 52,
      "hit": false,
      "t": 121578.9189999998,
      "d": 789.4734999999928,
      "v": 32
    },
    {
      "midi": 59,
      "hit": false,
      "t": 121578.9189999998,
      "d": 789.4734999999928,
      "v": 32
    },
    {
      "midi": 66,
      "hit": false,
      "t": 121578.9189999998,
      "d": 6038.238722656199,
      "v": 45
    },
    {
      "midi": 47,
      "hit": false,
      "t": 122368.3924999998,
      "d": 789.4734999999928,
      "v": 32
    },
    {
      "midi": 52,
      "hit": false,
      "t": 122368.3924999998,
      "d": 789.4734999999928,
      "v": 32
    },
    {
      "midi": 59,
      "hit": false,
      "t": 122368.3924999998,
      "d": 789.4734999999928,
      "v": 32
    },
    {
      "midi": 47,
      "hit": false,
      "t": 123157.86599999979,
      "d": 789.4734999999928,
      "v": 32
    },
    {
      "midi": 52,
      "hit": false,
      "t": 123157.86599999979,
      "d": 789.4734999999928,
      "v": 32
    },
    {
      "midi": 59,
      "hit": false,
      "t": 123157.86599999979,
      "d": 789.4734999999928,
      "v": 32
    },
    {
      "midi": 47,
      "hit": false,
      "t": 123947.33949999978,
      "d": 789.4734999999928,
      "v": 33
    },
    {
      "midi": 52,
      "hit": false,
      "t": 123947.33949999978,
      "d": 789.4734999999928,
      "v": 33
    },
    {
      "midi": 59,
      "hit": false,
      "t": 123947.33949999978,
      "d": 789.4734999999928,
      "v": 33
    },
    {
      "midi": 47,
      "hit": false,
      "t": 124736.81299999978,
      "d": 789.4734999999928,
      "v": 27
    },
    {
      "midi": 51,
      "hit": false,
      "t": 124736.81299999978,
      "d": 789.4734999999928,
      "v": 27
    },
    {
      "midi": 59,
      "hit": false,
      "t": 124736.81299999978,
      "d": 789.4734999999928,
      "v": 27
    },
    {
      "midi": 47,
      "hit": false,
      "t": 125526.28649999977,
      "d": 789.4734999999928,
      "v": 37
    },
    {
      "midi": 51,
      "hit": false,
      "t": 125526.28649999977,
      "d": 789.4734999999928,
      "v": 37
    },
    {
      "midi": 59,
      "hit": false,
      "t": 125526.28649999977,
      "d": 789.4734999999928,
      "v": 37
    },
    {
      "midi": 47,
      "hit": false,
      "t": 126315.75999999976,
      "d": 789.4734999999928,
      "v": 42
    },
    {
      "midi": 51,
      "hit": false,
      "t": 126315.75999999976,
      "d": 789.4734999999928,
      "v": 42
    },
    {
      "midi": 57,
      "hit": false,
      "t": 126315.75999999976,
      "d": 789.4734999999928,
      "v": 42
    },
    {
      "midi": 47,
      "hit": false,
      "t": 127105.23349999975,
      "d": 789.4734999999928,
      "v": 50
    },
    {
      "midi": 51,
      "hit": false,
      "t": 127105.23349999975,
      "d": 789.4734999999928,
      "v": 50
    },
    {
      "midi": 57,
      "hit": false,
      "t": 127105.23349999975,
      "d": 789.4734999999928,
      "v": 50
    },
    {
      "midi": 64,
      "hit": false,
      "t": 127499.97024999975,
      "d": 370.06570312500116,
      "v": 40
    },
    {
      "midi": 48,
      "hit": false,
      "t": 127894.70699999975,
      "d": 789.4734999999928,
      "v": 51
    },
    {
      "midi": 52,
      "hit": false,
      "t": 127894.70699999975,
      "d": 789.4734999999928,
      "v": 51
    },
    {
      "midi": 55,
      "hit": false,
      "t": 127894.70699999975,
      "d": 789.4734999999928,
      "v": 51
    },
    {
      "midi": 64,
      "hit": false,
      "t": 127894.70699999975,
      "d": 4736.840999999971,
      "v": 58
    },
    {
      "midi": 48,
      "hit": false,
      "t": 128684.18049999974,
      "d": 789.4734999999928,
      "v": 56
    },
    {
      "midi": 52,
      "hit": false,
      "t": 128684.18049999974,
      "d": 789.4734999999928,
      "v": 56
    },
    {
      "midi": 55,
      "hit": false,
      "t": 128684.18049999974,
      "d": 789.4734999999928,
      "v": 56
    },
    {
      "midi": 48,
      "hit": false,
      "t": 129473.65399999973,
      "d": 789.4734999999928,
      "v": 50
    },
    {
      "midi": 52,
      "hit": false,
      "t": 129473.65399999973,
      "d": 789.4734999999928,
      "v": 50
    },
    {
      "midi": 55,
      "hit": false,
      "t": 129473.65399999973,
      "d": 789.4734999999928,
      "v": 50
    },
    {
      "midi": 48,
      "hit": false,
      "t": 130263.12749999973,
      "d": 789.4734999999928,
      "v": 54
    },
    {
      "midi": 52,
      "hit": false,
      "t": 130263.12749999973,
      "d": 789.4734999999928,
      "v": 54
    },
    {
      "midi": 55,
      "hit": false,
      "t": 130263.12749999973,
      "d": 789.4734999999928,
      "v": 54
    },
    {
      "midi": 48,
      "hit": false,
      "t": 131052.60099999972,
      "d": 789.4735000000073,
      "v": 58
    },
    {
      "midi": 52,
      "hit": false,
      "t": 131052.60099999972,
      "d": 789.4735000000073,
      "v": 58
    },
    {
      "midi": 58,
      "hit": false,
      "t": 131052.60099999972,
      "d": 789.4735000000073,
      "v": 58
    },
    {
      "midi": 48,
      "hit": false,
      "t": 131842.07449999973,
      "d": 789.4734999999928,
      "v": 49
    },
    {
      "midi": 52,
      "hit": false,
      "t": 131842.07449999973,
      "d": 789.4734999999928,
      "v": 49
    },
    {
      "midi": 58,
      "hit": false,
      "t": 131842.07449999973,
      "d": 789.4734999999928,
      "v": 49
    },
    {
      "midi": 48,
      "hit": false,
      "t": 132631.54799999972,
      "d": 789.4734999999928,
      "v": 51
    },
    {
      "midi": 52,
      "hit": false,
      "t": 132631.54799999972,
      "d": 789.4734999999928,
      "v": 51
    },
    {
      "midi": 57,
      "hit": false,
      "t": 132631.54799999972,
      "d": 789.4734999999928,
      "v": 51
    },
    {
      "midi": 66,
      "hit": false,
      "t": 132631.54799999972,
      "d": 1578.9469999999856,
      "v": 51
    },
    {
      "midi": 48,
      "hit": false,
      "t": 133421.0214999997,
      "d": 789.4734999999928,
      "v": 48
    },
    {
      "midi": 52,
      "hit": false,
      "t": 133421.0214999997,
      "d": 789.4734999999928,
      "v": 48
    },
    {
      "midi": 57,
      "hit": false,
      "t": 133421.0214999997,
      "d": 789.4734999999928,
      "v": 48
    },
    {
      "midi": 47,
      "hit": false,
      "t": 134210.4949999997,
      "d": 789.4734999999928,
      "v": 52
    },
    {
      "midi": 52,
      "hit": false,
      "t": 134210.4949999997,
      "d": 789.4734999999928,
      "v": 52
    },
    {
      "midi": 57,
      "hit": false,
      "t": 134210.4949999997,
      "d": 789.4734999999928,
      "v": 52
    },
    {
      "midi": 64,
      "hit": false,
      "t": 134210.4949999997,
      "d": 4736.840999999957,
      "v": 49
    },
    {
      "midi": 47,
      "hit": false,
      "t": 134999.9684999997,
      "d": 789.4734999999928,
      "v": 57
    },
    {
      "midi": 52,
      "hit": false,
      "t": 134999.9684999997,
      "d": 789.4734999999928,
      "v": 57
    },
    {
      "midi": 57,
      "hit": false,
      "t": 134999.9684999997,
      "d": 789.4734999999928,
      "v": 57
    },
    {
      "midi": 47,
      "hit": false,
      "t": 135789.4419999997,
      "d": 789.4734999999928,
      "v": 53
    },
    {
      "midi": 52,
      "hit": false,
      "t": 135789.4419999997,
      "d": 789.4734999999928,
      "v": 53
    },
    {
      "midi": 56,
      "hit": false,
      "t": 135789.4419999997,
      "d": 789.4734999999928,
      "v": 53
    },
    {
      "midi": 47,
      "hit": false,
      "t": 136578.91549999968,
      "d": 789.4734999999928,
      "v": 57
    },
    {
      "midi": 52,
      "hit": false,
      "t": 136578.91549999968,
      "d": 789.4734999999928,
      "v": 57
    },
    {
      "midi": 56,
      "hit": false,
      "t": 136578.91549999968,
      "d": 789.4734999999928,
      "v": 57
    },
    {
      "midi": 47,
      "hit": false,
      "t": 137368.38899999968,
      "d": 789.4734999999928,
      "v": 48
    },
    {
      "midi": 52,
      "hit": false,
      "t": 137368.38899999968,
      "d": 789.4734999999928,
      "v": 48
    },
    {
      "midi": 55,
      "hit": false,
      "t": 137368.38899999968,
      "d": 789.4734999999928,
      "v": 48
    },
    {
      "midi": 47,
      "hit": false,
      "t": 138157.86249999967,
      "d": 789.4734999999928,
      "v": 54
    },
    {
      "midi": 52,
      "hit": false,
      "t": 138157.86249999967,
      "d": 789.4734999999928,
      "v": 54
    },
    {
      "midi": 55,
      "hit": false,
      "t": 138157.86249999967,
      "d": 789.4734999999928,
      "v": 54
    },
    {
      "midi": 47,
      "hit": false,
      "t": 138947.33599999966,
      "d": 789.4734999999928,
      "v": 54
    },
    {
      "midi": 52,
      "hit": false,
      "t": 138947.33599999966,
      "d": 789.4734999999928,
      "v": 54
    },
    {
      "midi": 55,
      "hit": false,
      "t": 138947.33599999966,
      "d": 789.4734999999928,
      "v": 54
    },
    {
      "midi": 66,
      "hit": false,
      "t": 138947.33599999966,
      "d": 1578.9469999999856,
      "v": 53
    },
    {
      "midi": 47,
      "hit": false,
      "t": 139736.80949999965,
      "d": 789.4734999999928,
      "v": 51
    },
    {
      "midi": 52,
      "hit": false,
      "t": 139736.80949999965,
      "d": 789.4734999999928,
      "v": 51
    },
    {
      "midi": 55,
      "hit": false,
      "t": 139736.80949999965,
      "d": 789.4734999999928,
      "v": 51
    },
    {
      "midi": 46,
      "hit": false,
      "t": 140526.28299999965,
      "d": 3157.8940000000002,
      "v": 54
    },
    {
      "midi": 48,
      "hit": false,
      "t": 140526.28299999965,
      "d": 3157.8940000000002,
      "v": 54
    },
    {
      "midi": 55,
      "hit": false,
      "t": 140526.28299999965,
      "d": 3157.8940000000002,
      "v": 54
    },
    {
      "midi": 64,
      "hit": false,
      "t": 140526.28299999965,
      "d": 3157.8940000000002,
      "v": 46
    },
    {
      "midi": 35,
      "hit": false,
      "t": 148421.01799999963,
      "d": 3157.8940000000002,
      "v": 32
    },
    {
      "midi": 47,
      "hit": false,
      "t": 148421.01799999963,
      "d": 3157.8940000000002,
      "v": 32
    },
    {
      "midi": 52,
      "hit": false,
      "t": 148421.01799999963,
      "d": 3219.5716171874956,
      "v": 31
    },
    {
      "midi": 54,
      "hit": false,
      "t": 148495.03114062463,
      "d": 3083.880859375,
      "v": 31
    },
    {
      "midi": 59,
      "hit": false,
      "t": 148569.04428124963,
      "d": 3009.8677187499998,
      "v": 31
    },
    {
      "midi": 64,
      "hit": false,
      "t": 148643.05742187463,
      "d": 2991.364433593757,
      "v": 31
    },
    {
      "midi": 35,
      "hit": false,
      "t": 151578.91199999963,
      "d": 3219.5716171874956,
      "v": 33
    },
    {
      "midi": 42,
      "hit": false,
      "t": 151578.91199999963,
      "d": 3219.5716171874956,
      "v": 33
    },
    {
      "midi": 47,
      "hit": false,
      "t": 151578.91199999963,
      "d": 3219.5716171874956,
      "v": 33
    },
    {
      "midi": 51,
      "hit": false,
      "t": 151578.91199999963,
      "d": 3219.5716171874956,
      "v": 32
    },
    {
      "midi": 54,
      "hit": false,
      "t": 151652.92514062463,
      "d": 3145.5584765624953,
      "v": 36
    },
    {
      "midi": 59,
      "hit": false,
      "t": 151726.93828124963,
      "d": 3009.8677187499998,
      "v": 36
    },
    {
      "midi": 63,
      "hit": false,
      "t": 151800.95142187463,
      "d": 2991.364433593757,
      "v": 36
    },
    {
      "midi": 28,
      "hit": false,
      "t": 154736.80599999963,
      "d": 8998.764347656252,
      "v": 27
    },
    {
      "midi": 40,
      "hit": false,
      "t": 154736.80599999963,
      "d": 8998.764347656252,
      "v": 27
    },
    {
      "midi": 52,
      "hit": false,
      "t": 154736.80599999963,
      "d": 8998.764347656252,
      "v": 37
    },
    {
      "midi": 55,
      "hit": false,
      "t": 154736.80599999963,
      "d": 8998.764347656252,
      "v": 37
    },
    {
      "midi": 59,
      "hit": false,
      "t": 154736.80599999963,
      "d": 8998.764347656252,
      "v": 37
    },
    {
      "midi": 64,
      "hit": false,
      "t": 154736.80599999963,
      "d": 8998.764347656252,
      "v": 37
    }
  ]
}