{
  "jsonPath": "Unknown/Unknown/Israel Philharmonic Orchestra  Zubin Mehta/3-allegro-giocoso-poco-meno-presto-tempo-i.json",
  "path": "Unknown\\Unknown\\Israel Philharmonic Orchestra  Zubin Mehta\\3 Allegro giocoso - Poco meno presto - Tempo I.mid",
  "name": "3 Allegro giocoso - Poco meno presto - Tempo I",
  "difficulty": "Advanced",
  "bpm": 120,
  "notes": [
    {
      "midi": 72,
      "hit": false,
      "t": 2068.964,
      "d": 244.61188958333332,
      "v": 81
    },
    {
      "midi": 48,
      "hit": false,
      "t": 2068.964,
      "d": 244.61188958333332,
      "v": 81
    },
    {
      "midi": 72,
      "hit": false,
      "t": 2068.964,
      "d": 249.99981666666645,
      "v": 99
    },
    {
      "midi": 76,
      "hit": false,
      "t": 2068.9640000000004,
      "d": 239.2239625000002,
      "v": 81
    },
    {
      "midi": 71,
      "hit": false,
      "t": 2327.5845,
      "d": 258.6205,
      "v": 81
    },
    {
      "midi": 52,
      "hit": false,
      "t": 2327.5845,
      "d": 258.6205,
      "v": 81
    },
    {
      "midi": 71,
      "hit": false,
      "t": 2327.5845,
      "d": 258.6205,
      "v": 99
    },
    {
      "midi": 79,
      "hit": false,
      "t": 2327.5845000000004,
      "d": 258.6205,
      "v": 81
    },
    {
      "midi": 69,
      "hit": false,
      "t": 2586.205,
      "d": 129.31025,
      "v": 81
    },
    {
      "midi": 53,
      "hit": false,
      "t": 2586.205,
      "d": 129.31025,
      "v": 81
    },
    {
      "midi": 69,
      "hit": false,
      "t": 2586.205,
      "d": 129.31025,
      "v": 99
    },
    {
      "midi": 72,
      "hit": false,
      "t": 2586.2050000000004,
      "d": 129.31025,
      "v": 81
    },
    {
      "midi": 67,
      "hit": false,
      "t": 2844.8255,
      "d": 148.70678750000025,
      "v": 81
    },
    {
      "midi": 55,
      "hit": false,
      "t": 2844.8255,
      "d": 143.31886041666667,
      "v": 81
    },
    {
      "midi": 67,
      "hit": false,
      "t": 2844.8255,
      "d": 159.4826416666665,
      "v": 99
    },
    {
      "midi": 71,
      "hit": false,
      "t": 2844.8255000000004,
      "d": 148.7067874999998,
      "v": 81
    },
    {
      "midi": 57,
      "hit": false,
      "t": 3103.446,
      "d": 435.3445083333336,
      "v": 86
    },
    {
      "midi": 65,
      "hit": false,
      "t": 3103.446,
      "d": 435.3445083333336,
      "v": 103
    },
    {
      "midi": 72,
      "hit": false,
      "t": 3103.4460000000004,
      "d": 435.3445083333331,
      "v": 86
    },
    {
      "midi": 65,
      "hit": false,
      "t": 3103.4460000000004,
      "d": 435.3445083333331,
      "v": 86
    },
    {
      "midi": 71,
      "hit": false,
      "t": 3620.6870000000004,
      "d": 435.3445083333331,
      "v": 86
    },
    {
      "midi": 62,
      "hit": false,
      "t": 3620.6870000000004,
      "d": 435.3445083333331,
      "v": 86
    },
    {
      "midi": 55,
      "hit": false,
      "t": 3620.6870000000004,
      "d": 435.3445083333331,
      "v": 86
    },
    {
      "midi": 67,
      "hit": false,
      "t": 3620.6870000000004,
      "d": 435.3445083333331,
      "v": 103
    },
    {
      "midi": 76,
      "hit": false,
      "t": 4137.928,
      "d": 244.61188958333332,
      "v": 81
    },
    {
      "midi": 72,
      "hit": false,
      "t": 4137.928,
      "d": 249.99981666666645,
      "v": 81
    },
    {
      "midi": 48,
      "hit": false,
      "t": 4137.928,
      "d": 244.61188958333332,
      "v": 81
    },
    {
      "midi": 72,
      "hit": false,
      "t": 4137.928,
      "d": 244.61188958333332,
      "v": 99
    },
    {
      "midi": 79,
      "hit": false,
      "t": 4396.5485,
      "d": 258.6205,
      "v": 81
    },
    {
      "midi": 71,
      "hit": false,
      "t": 4396.5485,
      "d": 258.6205,
      "v": 81
    },
    {
      "midi": 52,
      "hit": false,
      "t": 4396.5485,
      "d": 258.6205,
      "v": 81
    },
    {
      "midi": 71,
      "hit": false,
      "t": 4396.5485,
      "d": 258.6205,
      "v": 99
    },
    {
      "midi": 72,
      "hit": false,
      "t": 4655.169,
      "d": 129.31025000000045,
      "v": 81
    },
    {
      "midi": 69,
      "hit": false,
      "t": 4655.169,
      "d": 129.31025000000045,
      "v": 81
    },
    {
      "midi": 53,
      "hit": false,
      "t": 4655.169,
      "d": 129.31025000000045,
      "v": 81
    },
    {
      "midi": 69,
      "hit": false,
      "t": 4655.169,
      "d": 129.31025000000045,
      "v": 99
    },
    {
      "midi": 74,
      "hit": false,
      "t": 4913.789500000001,
      "d": 137.9309333333331,
      "v": 81
    },
    {
      "midi": 69,
      "hit": false,
      "t": 4913.789500000001,
      "d": 137.9309333333331,
      "v": 81
    },
    {
      "midi": 65,
      "hit": false,
      "t": 4913.789500000001,
      "d": 143.3188604166662,
      "v": 81
    },
    {
      "midi": 50,
      "hit": false,
      "t": 4913.789500000001,
      "d": 148.70678750000025,
      "v": 81
    },
    {
      "midi": 65,
      "hit": false,
      "t": 4913.789500000001,
      "d": 144.39644583333302,
      "v": 99
    },
    {
      "midi": 67,
      "hit": false,
      "t": 5172.410000000001,
      "d": 435.3445083333336,
      "v": 86
    },
    {
      "midi": 71,
      "hit": false,
      "t": 5172.410000000001,
      "d": 435.3445083333336,
      "v": 86
    },
    {
      "midi": 62,
      "hit": false,
      "t": 5172.410000000001,
      "d": 435.3445083333336,
      "v": 86
    },
    {
      "midi": 71,
      "hit": false,
      "t": 5172.410000000001,
      "d": 435.3445083333336,
      "v": 86
    },
    {
      "midi": 55,
      "hit": false,
      "t": 5172.410000000001,
      "d": 435.3445083333336,
      "v": 86
    },
    {
      "midi": 62,
      "hit": false,
      "t": 5172.410000000001,
      "d": 435.3445083333336,
      "v": 103
    },
    {
      "midi": 59,
      "hit": false,
      "t": 5689.651000000001,
      "d": 435.3445083333336,
      "v": 86
    },
    {
      "midi": 67,
      "hit": false,
      "t": 5689.651000000001,
      "d": 435.3445083333336,
      "v": 86
    },
    {
      "midi": 64,
      "hit": false,
      "t": 5689.651000000001,
      "d": 435.3445083333336,
      "v": 86
    },
    {
      "midi": 67,
      "hit": false,
      "t": 5689.651000000001,
      "d": 435.3445083333336,
      "v": 86
    },
    {
      "midi": 52,
      "hit": false,
      "t": 5689.651000000001,
      "d": 435.3445083333336,
      "v": 86
    },
    {
      "midi": 64,
      "hit": false,
      "t": 5689.651000000001,
      "d": 435.3445083333336,
      "v": 103
    },
    {
      "midi": 57,
      "hit": false,
      "t": 6206.892000000001,
      "d": 1421.3351645833336,
      "v": 89
    },
    {
      "midi": 53,
      "hit": false,
      "t": 6206.892000000001,
      "d": 1425.64550625,
      "v": 89
    },
    {
      "midi": 57,
      "hit": false,
      "t": 6206.892000000001,
      "d": 1425.64550625,
      "v": 89
    },
    {
      "midi": 41,
      "hit": false,
      "t": 6206.892000000001,
      "d": 1418.1024083333332,
      "v": 89
    },
    {
      "midi": 45,
      "hit": false,
      "t": 6206.892000000001,
      "d": 1418.1024083333332,
      "v": 89
    },
    {
      "midi": 57,
      "hit": false,
      "t": 6206.892000000001,
      "d": 1429.9558479166672,
      "v": 106
    },
    {
      "midi": 71,
      "hit": false,
      "t": 7758.615000000001,
      "d": 64.65512500000023,
      "v": 81
    },
    {
      "midi": 74,
      "hit": false,
      "t": 7758.615000000001,
      "d": 64.65512500000023,
      "v": 81
    },
    {
      "midi": 62,
      "hit": false,
      "t": 7758.615000000001,
      "d": 64.65512500000023,
      "v": 81
    },
    {
      "midi": 71,
      "hit": false,
      "t": 7758.615000000001,
      "d": 64.65512500000023,
      "v": 81
    },
    {
      "midi": 53,
      "hit": false,
      "t": 7758.615000000001,
      "d": 64.65512500000023,
      "v": 81
    },
    {
      "midi": 69,
      "hit": false,
      "t": 7758.615000000002,
      "d": 258.6205,
      "v": 99
    },
    {
      "midi": 71,
      "hit": false,
      "t": 7887.925250000001,
      "d": 64.65512500000023,
      "v": 81
    },
    {
      "midi": 74,
      "hit": false,
      "t": 7887.925250000001,
      "d": 64.65512500000023,
      "v": 81
    },
    {
      "midi": 62,
      "hit": false,
      "t": 7887.925250000001,
      "d": 64.65512500000023,
      "v": 81
    },
    {
      "midi": 71,
      "hit": false,
      "t": 7887.925250000001,
      "d": 64.65512500000023,
      "v": 81
    },
    {
      "midi": 53,
      "hit": false,
      "t": 7887.925250000001,
      "d": 64.65512500000023,
      "v": 81
    },
    {
      "midi": 71,
      "hit": false,
      "t": 8017.235500000002,
      "d": 129.31024999999954,
      "v": 81
    },
    {
      "midi": 74,
      "hit": false,
      "t": 8017.235500000002,
      "d": 129.31024999999954,
      "v": 81
    },
    {
      "midi": 62,
      "hit": false,
      "t": 8017.235500000002,
      "d": 129.31024999999954,
      "v": 81
    },
    {
      "midi": 71,
      "hit": false,
      "t": 8017.235500000002,
      "d": 129.31024999999954,
      "v": 81
    },
    {
      "midi": 53,
      "hit": false,
      "t": 8017.235500000002,
      "d": 129.31024999999954,
      "v": 81
    },
    {
      "midi": 72,
      "hit": false,
      "t": 8275.856000000002,
      "d": 64.65512499999932,
      "v": 81
    },
    {
      "midi": 76,
      "hit": false,
      "t": 8275.856000000002,
      "d": 64.65512499999932,
      "v": 81
    },
    {
      "midi": 60,
      "hit": false,
      "t": 8275.856000000002,
      "d": 64.65512499999932,
      "v": 81
    },
    {
      "midi": 67,
      "hit": false,
      "t": 8275.856000000002,
      "d": 64.65512499999932,
      "v": 81
    },
    {
      "midi": 52,
      "hit": false,
      "t": 8275.856000000002,
      "d": 64.65512499999932,
      "v": 81
    },
    {
      "midi": 67,
      "hit": false,
      "t": 8275.856000000002,
      "d": 258.6204999999991,
      "v": 99
    },
    {
      "midi": 72,
      "hit": false,
      "t": 8405.16625,
      "d": 64.65512499999932,
      "v": 81
    },
    {
      "midi": 76,
      "hit": false,
      "t": 8405.16625,
      "d": 64.65512499999932,
      "v": 81
    },
    {
      "midi": 60,
      "hit": false,
      "t": 8405.16625,
      "d": 64.65512499999932,
      "v": 81
    },
    {
      "midi": 67,
      "hit": false,
      "t": 8405.16625,
      "d": 64.65512499999932,
      "v": 81
    },
    {
      "midi": 52,
      "hit": false,
      "t": 8405.16625,
      "d": 64.65512499999932,
      "v": 81
    },
    {
      "midi": 72,
      "hit": false,
      "t": 8534.476499999999,
      "d": 129.31025000000045,
      "v": 81
    },
    {
      "midi": 76,
      "hit": false,
      "t": 8534.476499999999,
      "d": 129.31025000000045,
      "v": 81
    },
    {
      "midi": 60,
      "hit": false,
      "t": 8534.476499999999,
      "d": 129.31025000000045,
      "v": 81
    },
    {
      "midi": 67,
      "hit": false,
      "t": 8534.476499999999,
      "d": 129.31025000000045,
      "v": 81
    },
    {
      "midi": 52,
      "hit": false,
      "t": 8534.476499999999,
      "d": 129.31025000000045,
      "v": 81
    },
    {
      "midi": 64,
      "hit": false,
      "t": 8793.097,
      "d": 64.65512499999932,
      "v": 81
    },
    {
      "midi": 67,
      "hit": false,
      "t": 8793.097,
      "d": 64.65512499999932,
      "v": 81
    },
    {
      "midi": 60,
      "hit": false,
      "t": 8793.097,
      "d": 64.65512499999932,
      "v": 81
    },
    {
      "midi": 64,
      "hit": false,
      "t": 8793.097,
      "d": 64.65512499999932,
      "v": 81
    },
    {
      "midi": 48,
      "hit": false,
      "t": 8793.097,
      "d": 64.65512499999932,
      "v": 81
    },
    {
      "midi": 64,
      "hit": false,
      "t": 8793.097000000002,
      "d": 258.6205000000009,
      "v": 99
    },
    {
      "midi": 64,
      "hit": false,
      "t": 8922.407249999998,
      "d": 64.65512499999932,
      "v": 81
    },
    {
      "midi": 67,
      "hit": false,
      "t": 8922.407249999998,
      "d": 64.65512499999932,
      "v": 81
    },
    {
      "midi": 60,
      "hit": false,
      "t": 8922.407249999998,
      "d": 64.65512499999932,
      "v": 81
    },
    {
      "midi": 64,
      "hit": false,
      "t": 8922.407249999998,
      "d": 64.65512499999932,
      "v": 81
    },
    {
      "midi": 48,
      "hit": false,
      "t": 8922.407249999998,
      "d": 64.65512499999932,
      "v": 81
    },
    {
      "midi": 64,
      "hit": false,
      "t": 9051.717499999997,
      "d": 129.31025000000045,
      "v": 81
    },
    {
      "midi": 67,
      "hit": false,
      "t": 9051.717499999997,
      "d": 129.31025000000045,
      "v": 81
    },
    {
      "midi": 60,
      "hit": false,
      "t": 9051.717499999997,
      "d": 129.31025000000045,
      "v": 81
    },
    {
      "midi": 64,
      "hit": false,
      "t": 9051.717499999997,
      "d": 129.31025000000045,
      "v": 81
    },
    {
      "midi": 48,
      "hit": false,
      "t": 9051.717499999997,
      "d": 129.31025000000045,
      "v": 81
    },
    {
      "midi": 62,
      "hit": false,
      "t": 9310.337999999998,
      "d": 64.65512499999932,
      "v": 81
    },
    {
      "midi": 71,
      "hit": false,
      "t": 9310.337999999998,
      "d": 64.65512499999932,
      "v": 81
    },
    {
      "midi": 59,
      "hit": false,
      "t": 9310.337999999998,
      "d": 64.65512499999932,
      "v": 81
    },
    {
      "midi": 67,
      "hit": false,
      "t": 9310.337999999998,
      "d": 64.65512499999932,
      "v": 81
    },
    {
      "midi": 55,
      "hit": false,
      "t": 9310.337999999998,
      "d": 64.65512499999932,
      "v": 81
    },
    {
      "midi": 62,
      "hit": false,
      "t": 9310.338000000003,
      "d": 258.6205000000009,
      "v": 99
    },
    {
      "midi": 62,
      "hit": false,
      "t": 9439.648249999997,
      "d": 64.65512499999932,
      "v": 81
    },
    {
      "midi": 71,
      "hit": false,
      "t": 9439.648249999997,
      "d": 64.65512499999932,
      "v": 81
    },
    {
      "midi": 59,
      "hit": false,
      "t": 9439.648249999997,
      "d": 64.65512499999932,
      "v": 81
    },
    {
      "midi": 67,
      "hit": false,
      "t": 9439.648249999997,
      "d": 64.65512499999932,
      "v": 81
    },
    {
      "midi": 55,
      "hit": false,
      "t": 9439.648249999997,
      "d": 64.65512499999932,
      "v": 81
    },
    {
      "midi": 62,
      "hit": false,
      "t": 9568.958499999995,
      "d": 129.31025000000045,
      "v": 81
    },
    {
      "midi": 71,
      "hit": false,
      "t": 9568.958499999995,
      "d": 129.31025000000045,
      "v": 81
    },
    {
      "midi": 59,
      "hit": false,
      "t": 9568.958499999995,
      "d": 129.31025000000045,
      "v": 81
    },
    {
      "midi": 67,
      "hit": false,
      "t": 9568.958499999995,
      "d": 129.31025000000045,
      "v": 81
    },
    {
      "midi": 55,
      "hit": false,
      "t": 9568.958499999995,
      "d": 129.31025000000045,
      "v": 81
    },
    {
      "midi": 71,
      "hit": false,
      "t": 9827.578999999996,
      "d": 64.65512499999932,
      "v": 81
    },
    {
      "midi": 74,
      "hit": false,
      "t": 9827.578999999996,
      "d": 64.65512499999932,
      "v": 81
    },
    {
      "midi": 62,
      "hit": false,
      "t": 9827.578999999996,
      "d": 64.65512499999932,
      "v": 81
    },
    {
      "midi": 71,
      "hit": false,
      "t": 9827.578999999996,
      "d": 64.65512499999932,
      "v": 81
    },
    {
      "midi": 53,
      "hit": false,
      "t": 9827.578999999996,
      "d": 64.65512499999932,
      "v": 81
    },
    {
      "midi": 69,
      "hit": false,
      "t": 9827.579000000005,
      "d": 258.6205000000009,
      "v": 99
    },
    {
      "midi": 71,
      "hit": false,
      "t": 9956.889249999995,
      "d": 64.65512499999932,
      "v": 81
    },
    {
      "midi": 74,
      "hit": false,
      "t": 9956.889249999995,
      "d": 64.65512499999932,
      "v": 81
    },
    {
      "midi": 62,
      "hit": false,
      "t": 9956.889249999995,
      "d": 64.65512499999932,
      "v": 81
    },
    {
      "midi": 71,
      "hit": false,
      "t": 9956.889249999995,
      "d": 64.65512499999932,
      "v": 81
    },
    {
      "midi": 53,
      "hit": false,
      "t": 9956.889249999995,
      "d": 64.65512499999932,
      "v": 81
    },
    {
      "midi": 71,
      "hit": false,
      "t": 10086.199499999993,
      "d": 129.31025000000045,
      "v": 81
    },
    {
      "midi": 74,
      "hit": false,
      "t": 10086.199499999993,
      "d": 129.31025000000045,
      "v": 81
    },
    {
      "midi": 62,
      "hit": false,
      "t": 10086.199499999993,
      "d": 129.31025000000045,
      "v": 81
    },
    {
      "midi": 71,
      "hit": false,
      "t": 10086.199499999993,
      "d": 129.31025000000045,
      "v": 81
    },
    {
      "midi": 53,
      "hit": false,
      "t": 10086.199499999993,
      "d": 129.31025000000045,
      "v": 81
    },
    {
      "midi": 72,
      "hit": false,
      "t": 10344.819999999994,
      "d": 64.65512499999932,
      "v": 81
    },
    {
      "midi": 76,
      "hit": false,
      "t": 10344.819999999994,
      "d": 64.65512499999932,
      "v": 81
    },
    {
      "midi": 60,
      "hit": false,
      "t": 10344.819999999994,
      "d": 64.65512499999932,
      "v": 81
    },
    {
      "midi": 67,
      "hit": false,
      "t": 10344.819999999994,
      "d": 64.65512499999932,
      "v": 81
    },
    {
      "midi": 52,
      "hit": false,
      "t": 10344.819999999994,
      "d": 64.65512499999932,
      "v": 81
    },
    {
      "midi": 67,
      "hit": false,
      "t": 10344.820000000007,
      "d": 258.6205000000009,
      "v": 99
    },
    {
      "midi": 72,
      "hit": false,
      "t": 10474.130249999993,
      "d": 64.65512499999932,
      "v": 81
    },
    {
      "midi": 76,
      "hit": false,
      "t": 10474.130249999993,
      "d": 64.65512499999932,
      "v": 81
    },
    {
      "midi": 60,
      "hit": false,
      "t": 10474.130249999993,
      "d": 64.65512499999932,
      "v": 81
    },
    {
      "midi": 67,
      "hit": false,
      "t": 10474.130249999993,
      "d": 64.65512499999932,
      "v": 81
    },
    {
      "midi": 52,
      "hit": false,
      "t": 10474.130249999993,
      "d": 64.65512499999932,
      "v": 81
    },
    {
      "midi": 72,
      "hit": false,
      "t": 10603.440499999992,
      "d": 129.31025000000045,
      "v": 81
    },
    {
      "midi": 76,
      "hit": false,
      "t": 10603.440499999992,
      "d": 129.31025000000045,
      "v": 81
    },
    {
      "midi": 60,
      "hit": false,
      "t": 10603.440499999992,
      "d": 129.31025000000045,
      "v": 81
    },
    {
      "midi": 67,
      "hit": false,
      "t": 10603.440499999992,
      "d": 129.31025000000045,
      "v": 81
    },
    {
      "midi": 52,
      "hit": false,
      "t": 10603.440499999992,
      "d": 129.31025000000045,
      "v": 81
    },
    {
      "midi": 66,
      "hit": false,
      "t": 10862.060999999992,
      "d": 64.65512499999932,
      "v": 81
    },
    {
      "midi": 69,
      "hit": false,
      "t": 10862.060999999992,
      "d": 64.65512499999932,
      "v": 81
    },
    {
      "midi": 57,
      "hit": false,
      "t": 10862.060999999992,
      "d": 64.65512499999932,
      "v": 81
    },
    {
      "midi": 66,
      "hit": false,
      "t": 10862.060999999992,
      "d": 64.65512499999932,
      "v": 81
    },
    {
      "midi": 48,
      "hit": false,
      "t": 10862.060999999992,
      "d": 64.65512499999932,
      "v": 81
    },
    {
      "midi": 64,
      "hit": false,
      "t": 10862.061000000009,
      "d": 258.6205000000009,
      "v": 99
    },
    {
      "midi": 66,
      "hit": false,
      "t": 10991.371249999991,
      "d": 64.65512499999932,
      "v": 81
    },
    {
      "midi": 69,
      "hit": false,
      "t": 10991.371249999991,
      "d": 64.65512499999932,
      "v": 81
    },
    {
      "midi": 57,
      "hit": false,
      "t": 10991.371249999991,
      "d": 64.65512499999932,
      "v": 81
    },
    {
      "midi": 66,
      "hit": false,
      "t": 10991.371249999991,
      "d": 64.65512499999932,
      "v": 81
    },
    {
      "midi": 48,
      "hit": false,
      "t": 10991.371249999991,
      "d": 64.65512499999932,
      "v": 81
    },
    {
      "midi": 66,
      "hit": false,
      "t": 11120.68149999999,
      "d": 129.31025000000045,
      "v": 81
    },
    {
      "midi": 69,
      "hit": false,
      "t": 11120.68149999999,
      "d": 129.31025000000045,
      "v": 81
    },
    {
      "midi": 57,
      "hit": false,
      "t": 11120.68149999999,
      "d": 129.31025000000045,
      "v": 81
    },
    {
      "midi": 66,
      "hit": false,
      "t": 11120.68149999999,
      "d": 129.31025000000045,
      "v": 81
    },
    {
      "midi": 48,
      "hit": false,
      "t": 11120.68149999999,
      "d": 129.31025000000045,
      "v": 81
    },
    {
      "midi": 67,
      "hit": false,
      "t": 11379.30199999999,
      "d": 64.65512499999932,
      "v": 81
    },
    {
      "midi": 71,
      "hit": false,
      "t": 11379.30199999999,
      "d": 64.65512499999932,
      "v": 81
    },
    {
      "midi": 59,
      "hit": false,
      "t": 11379.30199999999,
      "d": 64.65512499999932,
      "v": 81
    },
    {
      "midi": 62,
      "hit": false,
      "t": 11379.30199999999,
      "d": 64.65512499999932,
      "v": 81
    },
    {
      "midi": 55,
      "hit": false,
      "t": 11379.30199999999,
      "d": 64.65512499999932,
      "v": 81
    },
    {
      "midi": 62,
      "hit": false,
      "t": 11379.30200000001,
      "d": 258.6205000000009,
      "v": 99
    },
    {
      "midi": 67,
      "hit": false,
      "t": 11508.61224999999,
      "d": 64.65512499999932,
      "v": 81
    },
    {
      "midi": 71,
      "hit": false,
      "t": 11508.61224999999,
      "d": 64.65512499999932,
      "v": 81
    },
    {
      "midi": 59,
      "hit": false,
      "t": 11508.61224999999,
      "d": 64.65512499999932,
      "v": 81
    },
    {
      "midi": 62,
      "hit": false,
      "t": 11508.61224999999,
      "d": 64.65512499999932,
      "v": 81
    },
    {
      "midi": 55,
      "hit": false,
      "t": 11508.61224999999,
      "d": 64.65512499999932,
      "v": 81
    },
    {
      "midi": 67,
      "hit": false,
      "t": 11637.922499999988,
      "d": 129.31025000000045,
      "v": 81
    },
    {
      "midi": 71,
      "hit": false,
      "t": 11637.922499999988,
      "d": 129.31025000000045,
      "v": 81
    },
    {
      "midi": 59,
      "hit": false,
      "t": 11637.922499999988,
      "d": 129.31025000000045,
      "v": 81
    },
    {
      "midi": 62,
      "hit": false,
      "t": 11637.922499999988,
      "d": 129.31025000000045,
      "v": 81
    },
    {
      "midi": 55,
      "hit": false,
      "t": 11637.922499999988,
      "d": 129.31025000000045,
      "v": 81
    },
    {
      "midi": 67,
      "hit": false,
      "t": 11896.542999999989,
      "d": 982.7579000000005,
      "v": 89
    },
    {
      "midi": 75,
      "hit": false,
      "t": 11896.542999999989,
      "d": 982.7579000000005,
      "v": 89
    },
    {
      "midi": 55,
      "hit": false,
      "t": 11896.542999999989,
      "d": 86.20683333333363,
      "v": 89
    },
    {
      "midi": 43,
      "hit": false,
      "t": 11896.542999999989,
      "d": 86.20683333333363,
      "v": 89
    },
    {
      "midi": 67,
      "hit": false,
      "t": 11896.543000000012,
      "d": 982.7579000000005,
      "v": 106
    },
    {
      "midi": 51,
      "hit": false,
      "t": 11982.749833333322,
      "d": 81.8964916666664,
      "v": 81
    },
    {
      "midi": 46,
      "hit": false,
      "t": 11982.749833333322,
      "d": 81.8964916666664,
      "v": 81
    },
    {
      "midi": 55,
      "hit": false,
      "t": 12064.646324999989,
      "d": 90.51717500000086,
      "v": 81
    },
    {
      "midi": 51,
      "hit": false,
      "t": 12064.646324999989,
      "d": 90.51717500000086,
      "v": 81
    },
    {
      "midi": 58,
      "hit": false,
      "t": 12155.16349999999,
      "d": 86.20683333333363,
      "v": 81
    },
    {
      "midi": 55,
      "hit": false,
      "t": 12155.16349999999,
      "d": 86.20683333333363,
      "v": 81
    },
    {
      "midi": 63,
      "hit": false,
      "t": 12241.370333333323,
      "d": 81.8964916666664,
      "v": 81
    },
    {
      "midi": 58,
      "hit": false,
      "t": 12241.370333333323,
      "d": 81.8964916666664,
      "v": 81
    },
    {
      "midi": 67,
      "hit": false,
      "t": 12323.26682499999,
      "d": 90.51717500000086,
      "v": 81
    },
    {
      "midi": 63,
      "hit": false,
      "t": 12323.26682499999,
      "d": 90.51717500000086,
      "v": 81
    },
    {
      "midi": 70,
      "hit": false,
      "t": 12413.78399999999,
      "d": 129.31025000000045,
      "v": 81
    },
    {
      "midi": 67,
      "hit": false,
      "t": 12413.78399999999,
      "d": 129.31025000000045,
      "v": 81
    },
    {
      "midi": 74,
      "hit": false,
      "t": 12931.024999999989,
      "d": 86.20683333333363,
      "v": 81
    },
    {
      "midi": 62,
      "hit": false,
      "t": 12931.02499999999,
      "d": 86.20683333333363,
      "v": 81
    },
    {
      "midi": 70,
      "hit": false,
      "t": 12931.02499999999,
      "d": 86.20683333333363,
      "v": 81
    },
    {
      "midi": 46,
      "hit": false,
      "t": 12931.02499999999,
      "d": 86.20683333333363,
      "v": 81
    },
    {
      "midi": 65,
      "hit": false,
      "t": 12931.025000000012,
      "d": 86.20683333333363,
      "v": 99
    },
    {
      "midi": 70,
      "hit": false,
      "t": 13099.128324999989,
      "d": 90.51717500000086,
      "v": 81
    },
    {
      "midi": 62,
      "hit": false,
      "t": 13099.12832499999,
      "d": 90.51717500000086,
      "v": 81
    },
    {
      "midi": 70,
      "hit": false,
      "t": 13099.12832499999,
      "d": 90.51717500000086,
      "v": 81
    },
    {
      "midi": 46,
      "hit": false,
      "t": 13099.12832499999,
      "d": 90.51717500000086,
      "v": 81
    },
    {
      "midi": 63,
      "hit": false,
      "t": 13099.128325000012,
      "d": 90.51717500000086,
      "v": 99
    },
    {
      "midi": 74,
      "hit": false,
      "t": 13275.852333333323,
      "d": 86.20683333333363,
      "v": 81
    },
    {
      "midi": 62,
      "hit": false,
      "t": 13275.852333333325,
      "d": 86.20683333333363,
      "v": 81
    },
    {
      "midi": 70,
      "hit": false,
      "t": 13275.852333333325,
      "d": 86.20683333333363,
      "v": 81
    },
    {
      "midi": 46,
      "hit": false,
      "t": 13275.852333333325,
      "d": 86.20683333333363,
      "v": 81
    },
    {
      "midi": 65,
      "hit": false,
      "t": 13275.852333333347,
      "d": 86.20683333333363,
      "v": 99
    },
    {
      "midi": 75,
      "hit": false,
      "t": 13448.26599999999,
      "d": 258.6204999999991,
      "v": 81
    },
    {
      "midi": 67,
      "hit": false,
      "t": 13448.265999999992,
      "d": 258.6205000000009,
      "v": 81
    },
    {
      "midi": 70,
      "hit": false,
      "t": 13448.265999999992,
      "d": 258.6205000000009,
      "v": 81
    },
    {
      "midi": 51,
      "hit": false,
      "t": 13448.265999999992,
      "d": 258.6205000000009,
      "v": 81
    },
    {
      "midi": 67,
      "hit": false,
      "t": 13448.266000000014,
      "d": 258.6205000000009,
      "v": 99
    },
    {
      "midi": 67,
      "hit": false,
      "t": 13965.50699999999,
      "d": 982.7579000000005,
      "v": 89
    },
    {
      "midi": 75,
      "hit": false,
      "t": 13965.50699999999,
      "d": 982.7579000000005,
      "v": 89
    },
    {
      "midi": 55,
      "hit": false,
      "t": 13965.506999999994,
      "d": 86.20683333333363,
      "v": 89
    },
    {
      "midi": 43,
      "hit": false,
      "t": 13965.506999999994,
      "d": 86.20683333333363,
      "v": 89
    },
    {
      "midi": 70,
      "hit": false,
      "t": 13965.507000000016,
      "d": 982.7579000000005,
      "v": 106
    },
    {
      "midi": 51,
      "hit": false,
      "t": 14051.713833333328,
      "d": 81.8964916666664,
      "v": 81
    },
    {
      "midi": 46,
      "hit": false,
      "t": 14051.713833333328,
      "d": 81.8964916666664,
      "v": 81
    },
    {
      "midi": 55,
      "hit": false,
      "t": 14133.610324999994,
      "d": 90.51717500000086,
      "v": 81
    },
    {
      "midi": 51,
      "hit": false,
      "t": 14133.610324999994,
      "d": 90.51717500000086,
      "v": 81
    },
    {
      "midi": 58,
      "hit": false,
      "t": 14224.127499999995,
      "d": 86.20683333333363,
      "v": 81
    },
    {
      "midi": 55,
      "hit": false,
      "t": 14224.127499999995,
      "d": 86.20683333333363,
      "v": 81
    },
    {
      "midi": 63,
      "hit": false,
      "t": 14310.334333333329,
      "d": 81.8964916666664,
      "v": 81
    },
    {
      "midi": 58,
      "hit": false,
      "t": 14310.334333333329,
      "d": 81.8964916666664,
      "v": 81
    },
    {
      "midi": 67,
      "hit": false,
      "t": 14392.230824999995,
      "d": 90.51717500000086,
      "v": 81
    },
    {
      "midi": 63,
      "hit": false,
      "t": 14392.230824999995,
      "d": 90.51717500000086,
      "v": 81
    },
    {
      "midi": 70,
      "hit": false,
      "t": 14482.747999999996,
      "d": 129.31025000000045,
      "v": 81
    },
    {
      "midi": 67,
      "hit": false,
      "t": 14482.747999999996,
      "d": 129.31025000000045,
      "v": 81
    },
    {
      "midi": 70,
      "hit": false,
      "t": 14999.98899999999,
      "d": 86.20683333333363,
      "v": 81
    },
    {
      "midi": 74,
      "hit": false,
      "t": 14999.98899999999,
      "d": 86.20683333333363,
      "v": 81
    },
    {
      "midi": 58,
      "hit": false,
      "t": 14999.988999999996,
      "d": 86.20683333333363,
      "v": 81
    },
    {
      "midi": 68,
      "hit": false,
      "t": 14999.988999999996,
      "d": 86.20683333333363,
      "v": 81
    },
    {
      "midi": 46,
      "hit": false,
      "t": 14999.988999999996,
      "d": 86.20683333333363,
      "v": 81
    },
    {
      "midi": 68,
      "hit": false,
      "t": 14999.989000000016,
      "d": 86.20683333333363,
      "v": 99
    },
    {
      "midi": 70,
      "hit": false,
      "t": 15168.09232499999,
      "d": 90.51717500000086,
      "v": 81
    },
    {
      "midi": 74,
      "hit": false,
      "t": 15168.09232499999,
      "d": 90.51717500000086,
      "v": 81
    },
    {
      "midi": 58,
      "hit": false,
      "t": 15168.092324999996,
      "d": 90.51717500000086,
      "v": 81
    },
    {
      "midi": 68,
      "hit": false,
      "t": 15168.092324999996,
      "d": 90.51717500000086,
      "v": 81
    },
    {
      "midi": 46,
      "hit": false,
      "t": 15168.092324999996,
      "d": 90.51717500000086,
      "v": 81
    },
    {
      "midi": 67,
      "hit": false,
      "t": 15168.092325000016,
      "d": 90.51717500000086,
      "v": 99
    },
    {
      "midi": 70,
      "hit": false,
      "t": 15344.816333333325,
      "d": 86.20683333333363,
      "v": 81
    },
    {
      "midi": 74,
      "hit": false,
      "t": 15344.816333333325,
      "d": 86.20683333333363,
      "v": 81
    },
    {
      "midi": 58,
      "hit": false,
      "t": 15344.81633333333,
      "d": 86.20683333333363,
      "v": 81
    },
    {
      "midi": 68,
      "hit": false,
      "t": 15344.81633333333,
      "d": 86.20683333333363,
      "v": 81
    },
    {
      "midi": 46,
      "hit": false,
      "t": 15344.81633333333,
      "d": 86.20683333333363,
      "v": 81
    },
    {
      "midi": 65,
      "hit": false,
      "t": 15344.81633333335,
      "d": 86.20683333333363,
      "v": 99
    },
    {
      "midi": 67,
      "hit": false,
      "t": 15517.229999999992,
      "d": 258.6205000000009,
      "v": 81
    },
    {
      "midi": 75,
      "hit": false,
      "t": 15517.229999999992,
      "d": 258.6205000000009,
      "v": 81
    },
    {
      "midi": 58,
      "hit": false,
      "t": 15517.229999999998,
      "d": 258.6204999999991,
      "v": 81
    },
    {
      "midi": 67,
      "hit": false,
      "t": 15517.229999999998,
      "d": 258.6204999999991,
      "v": 81
    },
    {
      "midi": 51,
      "hit": false,
      "t": 15517.229999999998,
      "d": 258.6204999999991,
      "v": 81
    },
    {
      "midi": 67,
      "hit": false,
      "t": 15517.230000000018,
      "d": 258.6205000000009,
      "v": 99
    },
    {
      "midi": 71,
      "hit": false,
      "t": 16034.470999999994,
      "d": 982.7579000000005,
      "v": 89
    },
    {
      "midi": 74,
      "hit": false,
      "t": 16034.470999999994,
      "d": 982.7579000000005,
      "v": 89
    },
    {
      "midi": 55,
      "hit": false,
      "t": 16034.470999999998,
      "d": 77.58614999999918,
      "v": 81
    },
    {
      "midi": 43,
      "hit": false,
      "t": 16034.470999999998,
      "d": 77.58614999999918,
      "v": 81
    },
    {
      "midi": 67,
      "hit": false,
      "t": 16034.47100000002,
      "d": 982.7579000000005,
      "v": 106
    },
    {
      "midi": 50,
      "hit": false,
      "t": 16120.67783333333,
      "d": 81.8964916666664,
      "v": 81
    },
    {
      "midi": 47,
      "hit": false,
      "t": 16120.67783333333,
      "d": 81.8964916666664,
      "v": 81
    },
    {
      "midi": 55,
      "hit": false,
      "t": 16202.574324999996,
      "d": 90.51717500000086,
      "v": 81
    },
    {
      "midi": 50,
      "hit": false,
      "t": 16202.574324999996,
      "d": 90.51717500000086,
      "v": 81
    },
    {
      "midi": 59,
      "hit": false,
      "t": 16293.091499999997,
      "d": 86.20683333333363,
      "v": 81
    },
    {
      "midi": 55,
      "hit": false,
      "t": 16293.091499999997,
      "d": 86.20683333333363,
      "v": 81
    },
    {
      "midi": 62,
      "hit": false,
      "t": 16379.29833333333,
      "d": 81.89649166666823,
      "v": 81
    },
    {
      "midi": 59,
      "hit": false,
      "t": 16379.29833333333,
      "d": 81.89649166666823,
      "v": 81
    },
    {
      "midi": 67,
      "hit": false,
      "t": 16461.194825,
      "d": 90.51717500000086,
      "v": 81
    },
    {
      "midi": 62,
      "hit": false,
      "t": 16461.194825,
      "d": 90.51717500000086,
      "v": 81
    },
    {
      "midi": 71,
      "hit": false,
      "t": 16551.712,
      "d": 129.31024999999863,
      "v": 81
    },
    {
      "midi": 67,
      "hit": false,
      "t": 16551.712,
      "d": 129.31024999999863,
      "v": 81
    },
    {
      "midi": 65,
      "hit": false,
      "t": 17068.952999999994,
      "d": 86.20683333333363,
      "v": 82
    },
    {
      "midi": 72,
      "hit": false,
      "t": 17068.952999999994,
      "d": 86.20683333333363,
      "v": 82
    },
    {
      "midi": 48,
      "hit": false,
      "t": 17068.952999999998,
      "d": 86.20683333333363,
      "v": 82
    },
    {
      "midi": 60,
      "hit": false,
      "t": 17068.952999999998,
      "d": 86.20683333333363,
      "v": 82
    },
    {
      "midi": 56,
      "hit": false,
      "t": 17068.952999999998,
      "d": 86.20683333333363,
      "v": 82
    },
    {
      "midi": 65,
      "hit": false,
      "t": 17068.95300000002,
      "d": 86.20683333333363,
      "v": 99
    },
    {
      "midi": 65,
      "hit": false,
      "t": 17237.056324999994,
      "d": 90.51717500000086,
      "v": 82
    },
    {
      "midi": 72,
      "hit": false,
      "t": 17237.056324999994,
      "d": 90.51717500000086,
      "v": 82
    },
    {
      "midi": 48,
      "hit": false,
      "t": 17237.056324999998,
      "d": 90.51717500000086,
      "v": 82
    },
    {
      "midi": 60,
      "hit": false,
      "t": 17237.056324999998,
      "d": 90.51717500000086,
      "v": 82
    },
    {
      "midi": 56,
      "hit": false,
      "t": 17237.056324999998,
      "d": 90.51717500000086,
      "v": 82
    },
    {
      "midi": 63,
      "hit": false,
      "t": 17237.05632500002,
      "d": 90.51717500000086,
      "v": 99
    },
    {
      "midi": 65,
      "hit": false,
      "t": 17413.78033333333,
      "d": 86.20683333333363,
      "v": 82
    },
    {
      "midi": 72,
      "hit": false,
      "t": 17413.78033333333,
      "d": 86.20683333333363,
      "v": 82
    },
    {
      "midi": 48,
      "hit": false,
      "t": 17413.780333333332,
      "d": 86.20683333333363,
      "v": 82
    },
    {
      "midi": 60,
      "hit": false,
      "t": 17413.780333333332,
      "d": 86.20683333333363,
      "v": 82
    },
    {
      "midi": 56,
      "hit": false,
      "t": 17413.780333333332,
      "d": 86.20683333333363,
      "v": 82
    },
    {
      "midi": 65,
      "hit": false,
      "t": 17413.780333333354,
      "d": 86.20683333333363,
      "v": 100
    },
    {
      "midi": 62,
      "hit": false,
      "t": 17586.193999999996,
      "d": 258.6205000000009,
      "v": 82
    },
    {
      "midi": 71,
      "hit": false,
      "t": 17586.193999999996,
      "d": 258.6205000000009,
      "v": 82
    },
    {
      "midi": 55,
      "hit": false,
      "t": 17586.194,
      "d": 258.6205000000009,
      "v": 82
    },
    {
      "midi": 55,
      "hit": false,
      "t": 17586.194,
      "d": 258.6205000000009,
      "v": 82
    },
    {
      "midi": 67,
      "hit": false,
      "t": 17586.19400000002,
      "d": 258.6205000000009,
      "v": 100
    },
    {
      "midi": 74,
      "hit": false,
      "t": 18103.434999999998,
      "d": 982.7579000000005,
      "v": 90
    },
    {
      "midi": 83,
      "hit": false,
      "t": 18103.434999999998,
      "d": 982.7579000000005,
      "v": 90
    },
    {
      "midi": 55,
      "hit": false,
      "t": 18103.435,
      "d": 77.58614999999918,
      "v": 83
    },
    {
      "midi": 43,
      "hit": false,
      "t": 18103.435,
      "d": 77.58614999999918,
      "v": 83
    },
    {
      "midi": 74,
      "hit": false,
      "t": 18103.435000000023,
      "d": 982.7579000000005,
      "v": 106
    },
    {
      "midi": 50,
      "hit": false,
      "t": 18189.641833333335,
      "d": 81.8964916666664,
      "v": 83
    },
    {
      "midi": 47,
      "hit": false,
      "t": 18189.641833333335,
      "d": 81.8964916666664,
      "v": 83
    },
    {
      "midi": 55,
      "hit": false,
      "t": 18271.538325,
      "d": 90.51717500000086,
      "v": 83
    },
    {
      "midi": 50,
      "hit": false,
      "t": 18271.538325,
      "d": 90.51717500000086,
      "v": 83
    },
    {
      "midi": 59,
      "hit": false,
      "t": 18362.055500000002,
      "d": 86.20683333333363,
      "v": 83
    },
    {
      "midi": 55,
      "hit": false,
      "t": 18362.055500000002,
      "d": 86.20683333333363,
      "v": 83
    },
    {
      "midi": 62,
      "hit": false,
      "t": 18448.262333333336,
      "d": 81.8964916666664,
      "v": 83
    },
    {
      "midi": 59,
      "hit": false,
      "t": 18448.262333333336,
      "d": 81.8964916666664,
      "v": 83
    },
    {
      "midi": 59,
      "hit": false,
      "t": 18530.158825000002,
      "d": 90.51717500000086,
      "v": 83
    },
    {
      "midi": 62,
      "hit": false,
      "t": 18530.158825000002,
      "d": 90.51717500000086,
      "v": 83
    },
    {
      "midi": 59,
      "hit": false,
      "t": 18620.676000000003,
      "d": 86.20683333333363,
      "v": 83
    },
    {
      "midi": 43,
      "hit": false,
      "t": 18620.676000000003,
      "d": 86.20683333333363,
      "v": 83
    },
    {
      "midi": 55,
      "hit": false,
      "t": 18706.882833333337,
      "d": 81.8964916666664,
      "v": 83
    },
    {
      "midi": 47,
      "hit": false,
      "t": 18706.882833333337,
      "d": 81.8964916666664,
      "v": 83
    },
    {
      "midi": 59,
      "hit": false,
      "t": 18788.779325000003,
      "d": 90.51717500000086,
      "v": 83
    },
    {
      "midi": 50,
      "hit": false,
      "t": 18788.779325000003,
      "d": 90.51717500000086,
      "v": 83
    },
    {
      "midi": 62,
      "hit": false,
      "t": 18879.296500000004,
      "d": 86.20683333333363,
      "v": 83
    },
    {
      "midi": 55,
      "hit": false,
      "t": 18879.296500000004,
      "d": 86.20683333333363,
      "v": 83
    },
    {
      "midi": 67,
      "hit": false,
      "t": 18965.503333333338,
      "d": 81.8964916666664,
      "v": 83
    },
    {
      "midi": 59,
      "hit": false,
      "t": 18965.503333333338,
      "d": 81.8964916666664,
      "v": 83
    },
    {
      "midi": 71,
      "hit": false,
      "t": 19047.399825000004,
      "d": 90.51717500000086,
      "v": 83
    },
    {
      "midi": 62,
      "hit": false,
      "t": 19047.399825000004,
      "d": 90.51717500000086,
      "v": 83
    },
    {
      "midi": 71,
      "hit": false,
      "t": 19137.916999999998,
      "d": 86.20683333333363,
      "v": 86
    },
    {
      "midi": 77,
      "hit": false,
      "t": 19137.916999999998,
      "d": 86.20683333333363,
      "v": 83
    },
    {
      "midi": 74,
      "hit": false,
      "t": 19137.917000000005,
      "d": 86.20683333333363,
      "v": 83
    },
    {
      "midi": 67,
      "hit": false,
      "t": 19137.917000000005,
      "d": 75.43097916666738,
      "v": 83
    },
    {
      "midi": 67,
      "hit": false,
      "t": 19137.917000000023,
      "d": 129.31024999999863,
      "v": 101
    },
    {
      "midi": 67,
      "hit": false,
      "t": 19306.020324999998,
      "d": 90.51717500000086,
      "v": 86
    },
    {
      "midi": 74,
      "hit": false,
      "t": 19306.020324999998,
      "d": 90.51717500000086,
      "v": 84
    },
    {
      "midi": 71,
      "hit": false,
      "t": 19306.020325000005,
      "d": 90.51717500000086,
      "v": 84
    },
    {
      "midi": 65,
      "hit": false,
      "t": 19482.744333333332,
      "d": 86.20683333333363,
      "v": 86
    },
    {
      "midi": 72,
      "hit": false,
      "t": 19482.744333333332,
      "d": 86.20683333333363,
      "v": 84
    },
    {
      "midi": 69,
      "hit": false,
      "t": 19482.74433333334,
      "d": 86.20683333333363,
      "v": 84
    },
    {
      "midi": 62,
      "hit": false,
      "t": 19655.158,
      "d": 86.20683333333363,
      "v": 86
    },
    {
      "midi": 69,
      "hit": false,
      "t": 19655.158,
      "d": 86.20683333333363,
      "v": 84
    },
    {
      "midi": 65,
      "hit": false,
      "t": 19655.158000000007,
      "d": 86.20683333333363,
      "v": 84
    },
    {
      "midi": 59,
      "hit": false,
      "t": 19823.261325,
      "d": 90.51717500000086,
      "v": 86
    },
    {
      "midi": 65,
      "hit": false,
      "t": 19823.261325,
      "d": 90.51717500000086,
      "v": 84
    },
    {
      "midi": 62,
      "hit": false,
      "t": 19823.261325000007,
      "d": 90.51717500000086,
      "v": 84
    },
    {
      "midi": 55,
      "hit": false,
      "t": 19999.985333333334,
      "d": 86.20683333333363,
      "v": 86
    },
    {
      "midi": 62,
      "hit": false,
      "t": 19999.985333333334,
      "d": 86.20683333333363,
      "v": 84
    },
    {
      "midi": 59,
      "hit": false,
      "t": 19999.98533333334,
      "d": 86.20683333333363,
      "v": 84
    },
    {
      "midi": 53,
      "hit": false,
      "t": 20172.399,
      "d": 86.20683333333363,
      "v": 86
    },
    {
      "midi": 60,
      "hit": false,
      "t": 20172.399,
      "d": 86.20683333333363,
      "v": 84
    },
    {
      "midi": 57,
      "hit": false,
      "t": 20172.399000000005,
      "d": 86.20683333333363,
      "v": 84
    },
    {
      "midi": 57,
      "hit": false,
      "t": 20172.39900000001,
      "d": 86.20683333333363,
      "v": 84
    },
    {
      "midi": 50,
      "hit": false,
      "t": 20340.502325,
      "d": 90.51717500000086,
      "v": 86
    },
    {
      "midi": 57,
      "hit": false,
      "t": 20340.502325,
      "d": 90.51717500000086,
      "v": 84
    },
    {
      "midi": 53,
      "hit": false,
      "t": 20340.502325000005,
      "d": 90.51717500000086,
      "v": 84
    },
    {
      "midi": 53,
      "hit": false,
      "t": 20340.50232500001,
      "d": 90.51717500000086,
      "v": 84
    },
    {
      "midi": 47,
      "hit": false,
      "t": 20517.226333333336,
      "d": 86.20683333333363,
      "v": 86
    },
    {
      "midi": 59,
      "hit": false,
      "t": 20517.226333333336,
      "d": 86.20683333333363,
      "v": 84
    },
    {
      "midi": 50,
      "hit": false,
      "t": 20517.22633333334,
      "d": 86.20683333333363,
      "v": 84
    },
    {
      "midi": 53,
      "hit": false,
      "t": 20517.226333333343,
      "d": 86.20683333333363,
      "v": 84
    },
    {
      "midi": 43,
      "hit": false,
      "t": 20689.640000000003,
      "d": 86.20683333333363,
      "v": 83
    },
    {
      "midi": 55,
      "hit": false,
      "t": 20689.640000000003,
      "d": 129.31024999999863,
      "v": 80
    },
    {
      "midi": 47,
      "hit": false,
      "t": 20689.640000000007,
      "d": 129.31024999999863,
      "v": 80
    },
    {
      "midi": 50,
      "hit": false,
      "t": 20689.64000000001,
      "d": 129.31024999999863,
      "v": 80
    },
    {
      "midi": 47,
      "hit": false,
      "t": 20775.846833333337,
      "d": 81.8964916666664,
      "v": 82
    },
    {
      "midi": 50,
      "hit": false,
      "t": 20857.743325000003,
      "d": 90.51717500000086,
      "v": 80
    },
    {
      "midi": 55,
      "hit": false,
      "t": 20948.260500000004,
      "d": 86.20683333333363,
      "v": 79
    },
    {
      "midi": 59,
      "hit": false,
      "t": 21034.467333333338,
      "d": 81.8964916666664,
      "v": 78
    },
    {
      "midi": 62,
      "hit": false,
      "t": 21116.363825000004,
      "d": 90.51717500000086,
      "v": 77
    },
    {
      "midi": 69,
      "hit": false,
      "t": 21206.881000000023,
      "d": 517.2410000000018,
      "v": 66
    },
    {
      "midi": 53,
      "hit": false,
      "t": 21465.501500000006,
      "d": 129.31024999999863,
      "v": 69
    },
    {
      "midi": 59,
      "hit": false,
      "t": 21465.50150000001,
      "d": 129.31024999999863,
      "v": 69
    },
    {
      "midi": 62,
      "hit": false,
      "t": 21465.50150000001,
      "d": 129.31024999999863,
      "v": 69
    },
    {
      "midi": 67,
      "hit": false,
      "t": 21724.122000000025,
      "d": 517.2410000000018,
      "v": 61
    },
    {
      "midi": 52,
      "hit": false,
      "t": 21982.742500000004,
      "d": 129.31024999999863,
      "v": 69
    },
    {
      "midi": 60,
      "hit": false,
      "t": 21982.742500000008,
      "d": 129.31024999999863,
      "v": 69
    },
    {
      "midi": 64,
      "hit": false,
      "t": 21982.742500000008,
      "d": 129.31024999999863,
      "v": 69
    },
    {
      "midi": 64,
      "hit": false,
      "t": 22241.363000000027,
      "d": 517.2410000000018,
      "v": 61
    },
    {
      "midi": 48,
      "hit": false,
      "t": 22499.983500000002,
      "d": 129.31024999999863,
      "v": 69
    },
    {
      "midi": 54,
      "hit": false,
      "t": 22499.983500000006,
      "d": 129.31024999999863,
      "v": 69
    },
    {
      "midi": 57,
      "hit": false,
      "t": 22499.983500000006,
      "d": 129.31024999999863,
      "v": 69
    },
    {
      "midi": 62,
      "hit": false,
      "t": 22758.60400000003,
      "d": 465.5168999999987,
      "v": 61
    },
    {
      "midi": 55,
      "hit": false,
      "t": 23017.2245,
      "d": 129.31024999999863,
      "v": 69
    },
    {
      "midi": 55,
      "hit": false,
      "t": 23017.224500000004,
      "d": 129.31024999999863,
      "v": 69
    },
    {
      "midi": 59,
      "hit": false,
      "t": 23017.224500000004,
      "d": 129.31024999999863,
      "v": 69
    },
    {
      "midi": 69,
      "hit": false,
      "t": 23275.845000000005,
      "d": 387.93074999999953,
      "v": 61
    },
    {
      "midi": 69,
      "hit": false,
      "t": 23275.845000000027,
      "d": 387.93074999999953,
      "v": 61
    },
    {
      "midi": 53,
      "hit": false,
      "t": 23534.4655,
      "d": 129.31024999999863,
      "v": 69
    },
    {
      "midi": 59,
      "hit": false,
      "t": 23534.465500000002,
      "d": 129.31024999999863,
      "v": 69
    },
    {
      "midi": 62,
      "hit": false,
      "t": 23534.465500000002,
      "d": 129.31024999999863,
      "v": 69
    },
    {
      "midi": 74,
      "hit": false,
      "t": 23663.775750000004,
      "d": 129.31024999999863,
      "v": 61
    },
    {
      "midi": 74,
      "hit": false,
      "t": 23663.775750000026,
      "d": 129.31024999999863,
      "v": 61
    },
    {
      "midi": 67,
      "hit": false,
      "t": 23793.086000000003,
      "d": 387.93074999999953,
      "v": 61
    },
    {
      "midi": 67,
      "hit": false,
      "t": 23793.086000000025,
      "d": 387.93074999999953,
      "v": 61
    },
    {
      "midi": 52,
      "hit": false,
      "t": 24051.706499999997,
      "d": 129.31024999999863,
      "v": 69
    },
    {
      "midi": 60,
      "hit": false,
      "t": 24051.7065,
      "d": 129.31024999999863,
      "v": 69
    },
    {
      "midi": 64,
      "hit": false,
      "t": 24051.7065,
      "d": 129.31024999999863,
      "v": 69
    },
    {
      "midi": 72,
      "hit": false,
      "t": 24181.016750000003,
      "d": 129.31024999999863,
      "v": 61
    },
    {
      "midi": 72,
      "hit": false,
      "t": 24181.016750000024,
      "d": 129.31024999999863,
      "v": 61
    },
    {
      "midi": 64,
      "hit": false,
      "t": 24310.327,
      "d": 129.31024999999863,
      "v": 61
    },
    {
      "midi": 64,
      "hit": false,
      "t": 24310.327000000023,
      "d": 129.31024999999863,
      "v": 61
    },
    {
      "midi": 60,
      "hit": false,
      "t": 24439.63725,
      "d": 129.31024999999863,
      "v": 61
    },
    {
      "midi": 60,
      "hit": false,
      "t": 24439.63725000002,
      "d": 129.31024999999863,
      "v": 61
    },
    {
      "midi": 48,
      "hit": false,
      "t": 24568.947499999995,
      "d": 129.31024999999863,
      "v": 69
    },
    {
      "midi": 64,
      "hit": false,
      "t": 24568.9475,
      "d": 129.31024999999863,
      "v": 61
    },
    {
      "midi": 54,
      "hit": false,
      "t": 24568.9475,
      "d": 129.31024999999863,
      "v": 69
    },
    {
      "midi": 57,
      "hit": false,
      "t": 24568.9475,
      "d": 129.31024999999863,
      "v": 69
    },
    {
      "midi": 64,
      "hit": false,
      "t": 24568.94750000002,
      "d": 129.31024999999863,
      "v": 61
    },
    {
      "midi": 69,
      "hit": false,
      "t": 24698.257749999997,
      "d": 129.31024999999863,
      "v": 61
    },
    {
      "midi": 69,
      "hit": false,
      "t": 24698.25775000002,
      "d": 129.31024999999863,
      "v": 61
    },
    {
      "midi": 62,
      "hit": false,
      "t": 24827.567999999996,
      "d": 129.31024999999863,
      "v": 61
    },
    {
      "midi": 62,
      "hit": false,
      "t": 24827.568000000017,
      "d": 129.31024999999863,
      "v": 61
    },
    {
      "midi": 59,
      "hit": false,
      "t": 24956.878249999994,
      "d": 129.31024999999863,
      "v": 61
    },
    {
      "midi": 59,
      "hit": false,
      "t": 24956.878250000016,
      "d": 129.31024999999863,
      "v": 61
    },
    {
      "midi": 62,
      "hit": false,
      "t": 25086.188499999993,
      "d": 129.31024999999863,
      "v": 61
    },
    {
      "midi": 55,
      "hit": false,
      "t": 25086.188499999993,
      "d": 129.31024999999863,
      "v": 69
    },
    {
      "midi": 55,
      "hit": false,
      "t": 25086.188499999997,
      "d": 129.31024999999863,
      "v": 69
    },
    {
      "midi": 59,
      "hit": false,
      "t": 25086.188499999997,
      "d": 129.31024999999863,
      "v": 69
    },
    {
      "midi": 62,
      "hit": false,
      "t": 25086.188500000015,
      "d": 129.31024999999863,
      "v": 61
    },
    {
      "midi": 67,
      "hit": false,
      "t": 25215.49874999999,
      "d": 129.31024999999863,
      "v": 61
    },
    {
      "midi": 67,
      "hit": false,
      "t": 25215.498750000013,
      "d": 129.31024999999863,
      "v": 61
    },
    {
      "midi": 62,
      "hit": false,
      "t": 25344.80899999999,
      "d": 129.31024999999863,
      "v": 69
    },
    {
      "midi": 59,
      "hit": false,
      "t": 25344.808999999994,
      "d": 129.31024999999863,
      "v": 69
    },
    {
      "midi": 55,
      "hit": false,
      "t": 25344.809000000012,
      "d": 646.5512500000004,
      "v": 61
    },
    {
      "midi": 60,
      "hit": false,
      "t": 25603.429499999987,
      "d": 258.6205000000009,
      "v": 69
    },
    {
      "midi": 57,
      "hit": false,
      "t": 25603.42949999999,
      "d": 258.6205000000009,
      "v": 69
    },
    {
      "midi": 59,
      "hit": false,
      "t": 25862.04999999999,
      "d": 517.2410000000018,
      "v": 69
    },
    {
      "midi": 55,
      "hit": false,
      "t": 25862.049999999992,
      "d": 517.2409999999982,
      "v": 69
    },
    {
      "midi": 62,
      "hit": false,
      "t": 25991.360250000012,
      "d": 129.31024999999863,
      "v": 63
    },
    {
      "midi": 67,
      "hit": false,
      "t": 26120.67050000001,
      "d": 129.31024999999863,
      "v": 64
    },
    {
      "midi": 71,
      "hit": false,
      "t": 26249.98075000001,
      "d": 129.31024999999863,
      "v": 65
    },
    {
      "midi": 40,
      "hit": false,
      "t": 26379.29099999999,
      "d": 129.31024999999863,
      "v": 69
    },
    {
      "midi": 72,
      "hit": false,
      "t": 26379.29100000001,
      "d": 129.31024999999863,
      "v": 65
    },
    {
      "midi": 67,
      "hit": false,
      "t": 26508.601250000007,
      "d": 129.31024999999863,
      "v": 64
    },
    {
      "midi": 41,
      "hit": false,
      "t": 26637.911499999987,
      "d": 258.6205000000009,
      "v": 69
    },
    {
      "midi": 65,
      "hit": false,
      "t": 26637.911500000006,
      "d": 129.31024999999863,
      "v": 64
    },
    {
      "midi": 64,
      "hit": false,
      "t": 26767.221750000004,
      "d": 129.31024999999863,
      "v": 63
    },
    {
      "midi": 43,
      "hit": false,
      "t": 26896.53199999999,
      "d": 517.2409999999982,
      "v": 69
    },
    {
      "midi": 62,
      "hit": false,
      "t": 26896.532000000003,
      "d": 129.31024999999863,
      "v": 63
    },
    {
      "midi": 59,
      "hit": false,
      "t": 27025.84225,
      "d": 129.31024999999863,
      "v": 62
    },
    {
      "midi": 62,
      "hit": false,
      "t": 27155.1525,
      "d": 129.31024999999863,
      "v": 62
    },
    {
      "midi": 67,
      "hit": false,
      "t": 27284.46275,
      "d": 129.31024999999863,
      "v": 61
    },
    {
      "midi": 62,
      "hit": false,
      "t": 27413.77299999999,
      "d": 129.31024999999863,
      "v": 69
    },
    {
      "midi": 59,
      "hit": false,
      "t": 27413.77299999999,
      "d": 129.31024999999863,
      "v": 69
    },
    {
      "midi": 55,
      "hit": false,
      "t": 27413.772999999997,
      "d": 646.5512500000004,
      "v": 61
    },
    {
      "midi": 60,
      "hit": false,
      "t": 27672.393499999987,
      "d": 258.6205000000009,
      "v": 69
    },
    {
      "midi": 57,
      "hit": false,
      "t": 27672.393499999987,
      "d": 258.6205000000009,
      "v": 69
    },
    {
      "midi": 59,
      "hit": false,
      "t": 27931.01399999999,
      "d": 517.2410000000018,
      "v": 69
    },
    {
      "midi": 55,
      "hit": false,
      "t": 27931.01399999999,
      "d": 517.2410000000018,
      "v": 69
    },
    {
      "midi": 62,
      "hit": false,
      "t": 28060.324249999998,
      "d": 129.31024999999863,
      "v": 63
    },
    {
      "midi": 71,
      "hit": false,
      "t": 28189.634499999996,
      "d": 129.31024999999863,
      "v": 64
    },
    {
      "midi": 74,
      "hit": false,
      "t": 28318.944749999995,
      "d": 129.31024999999863,
      "v": 65
    },
    {
      "midi": 40,
      "hit": false,
      "t": 28448.254999999986,
      "d": 129.31024999999863,
      "v": 69
    },
    {
      "midi": 76,
      "hit": false,
      "t": 28448.254999999994,
      "d": 129.31024999999863,
      "v": 66
    },
    {
      "midi": 72,
      "hit": false,
      "t": 28577.565249999992,
      "d": 129.31024999999863,
      "v": 66
    },
    {
      "midi": 41,
      "hit": false,
      "t": 28706.875499999984,
      "d": 258.6205000000009,
      "v": 69
    },
    {
      "midi": 67,
      "hit": false,
      "t": 28706.87549999999,
      "d": 129.31024999999863,
      "v": 65
    },
    {
      "midi": 64,
      "hit": false,
      "t": 28836.18574999999,
      "d": 129.31024999999863,
      "v": 64
    },
    {
      "midi": 43,
      "hit": false,
      "t": 28965.495999999985,
      "d": 517.2410000000018,
      "v": 69
    },
    {
      "midi": 62,
      "hit": false,
      "t": 28965.49599999999,
      "d": 129.31024999999863,
      "v": 63
    },
    {
      "midi": 59,
      "hit": false,
      "t": 29094.806249999987,
      "d": 129.31024999999863,
      "v": 62
    },
    {
      "midi": 62,
      "hit": false,
      "t": 29224.116499999986,
      "d": 129.31024999999863,
      "v": 62
    },
    {
      "midi": 67,
      "hit": false,
      "t": 29353.426749999984,
      "d": 129.31024999999863,
      "v": 62
    },
    {
      "midi": 65,
      "hit": false,
      "t": 29482.736999999983,
      "d": 646.5512500000004,
      "v": 62
    },
    {
      "midi": 62,
      "hit": false,
      "t": 29482.73699999999,
      "d": 129.31024999999863,
      "v": 70
    },
    {
      "midi": 59,
      "hit": false,
      "t": 29482.73699999999,
      "d": 129.31024999999863,
      "v": 70
    },
    {
      "midi": 60,
      "hit": false,
      "t": 29741.357499999987,
      "d": 129.31024999999863,
      "v": 70
    },
    {
      "midi": 57,
      "hit": false,
      "t": 29741.357499999987,
      "d": 129.31024999999863,
      "v": 70
    },
    {
      "midi": 59,
      "hit": false,
      "t": 29999.977999999985,
      "d": 517.2409999999982,
      "v": 70
    },
    {
      "midi": 55,
      "hit": false,
      "t": 29999.977999999985,
      "d": 517.2409999999982,
      "v": 70
    },
    {
      "midi": 62,
      "hit": false,
      "t": 30129.288249999983,
      "d": 129.31024999999863,
      "v": 63
    },
    {
      "midi": 65,
      "hit": false,
      "t": 30258.598499999982,
      "d": 129.31024999999863,
      "v": 63
    },
    {
      "midi": 71,
      "hit": false,
      "t": 30387.90874999998,
      "d": 129.31024999999863,
      "v": 63
    },
    {
      "midi": 69,
      "hit": false,
      "t": 30517.21899999998,
      "d": 581.8961249999993,
      "v": 64
    },
    {
      "midi": 65,
      "hit": false,
      "t": 30517.218999999983,
      "d": 129.31024999999863,
      "v": 71
    },
    {
      "midi": 62,
      "hit": false,
      "t": 30517.218999999983,
      "d": 129.31024999999863,
      "v": 71
    },
    {
      "midi": 64,
      "hit": false,
      "t": 30775.83949999998,
      "d": 129.31024999999863,
      "v": 72
    },
    {
      "midi": 60,
      "hit": false,
      "t": 30775.83949999998,
      "d": 129.31024999999863,
      "v": 72
    },
    {
      "midi": 62,
      "hit": false,
      "t": 31034.459999999977,
      "d": 129.31024999999863,
      "v": 72
    },
    {
      "midi": 59,
      "hit": false,
      "t": 31034.459999999977,
      "d": 129.31024999999863,
      "v": 72
    },
    {
      "midi": 65,
      "hit": false,
      "t": 31163.77024999998,
      "d": 114.22405416666516,
      "v": 65
    },
    {
      "midi": 69,
      "hit": false,
      "t": 31293.08049999998,
      "d": 114.22405416666516,
      "v": 65
    },
    {
      "midi": 69,
      "hit": false,
      "t": 31422.390749999977,
      "d": 64.65512500000114,
      "v": 72
    },
    {
      "midi": 65,
      "hit": false,
      "t": 31422.390749999977,
      "d": 64.65512500000114,
      "v": 72
    },
    {
      "midi": 74,
      "hit": false,
      "t": 31422.390749999977,
      "d": 114.22405416666516,
      "v": 65
    },
    {
      "midi": 72,
      "hit": false,
      "t": 31551.700999999975,
      "d": 114.22405416666516,
      "v": 65
    },
    {
      "midi": 65,
      "hit": false,
      "t": 31551.70099999998,
      "d": 129.31024999999863,
      "v": 73
    },
    {
      "midi": 62,
      "hit": false,
      "t": 31551.70099999998,
      "d": 129.31024999999863,
      "v": 73
    },
    {
      "midi": 69,
      "hit": false,
      "t": 31681.011249999974,
      "d": 114.22405416666516,
      "v": 65
    },
    {
      "midi": 72,
      "hit": false,
      "t": 31810.321499999973,
      "d": 114.22405416666516,
      "v": 66
    },
    {
      "midi": 77,
      "hit": false,
      "t": 31939.63174999997,
      "d": 114.22405416666516,
      "v": 66
    },
    {
      "midi": 72,
      "hit": false,
      "t": 31939.63174999998,
      "d": 64.65512500000114,
      "v": 73
    },
    {
      "midi": 69,
      "hit": false,
      "t": 31939.63174999998,
      "d": 64.65512500000114,
      "v": 73
    },
    {
      "midi": 71,
      "hit": false,
      "t": 32068.94199999997,
      "d": 114.22405416666516,
      "v": 66
    },
    {
      "midi": 76,
      "hit": false,
      "t": 32068.94199999998,
      "d": 129.31024999999863,
      "v": 73
    },
    {
      "midi": 67,
      "hit": false,
      "t": 32068.94199999998,
      "d": 129.31024999999863,
      "v": 73
    },
    {
      "midi": 67,
      "hit": false,
      "t": 32198.25224999997,
      "d": 114.22405416666516,
      "v": 66
    },
    {
      "midi": 71,
      "hit": false,
      "t": 32327.562499999967,
      "d": 114.22405416666516,
      "v": 66
    },
    {
      "midi": 76,
      "hit": false,
      "t": 32456.872749999966,
      "d": 114.22405416666516,
      "v": 66
    },
    {
      "midi": 71,
      "hit": false,
      "t": 32456.87274999998,
      "d": 64.65512500000114,
      "v": 74
    },
    {
      "midi": 67,
      "hit": false,
      "t": 32456.87274999998,
      "d": 64.65512500000114,
      "v": 74
    },
    {
      "midi": 69,
      "hit": false,
      "t": 32586.182999999965,
      "d": 114.22405416666516,
      "v": 67
    },
    {
      "midi": 74,
      "hit": false,
      "t": 32586.182999999983,
      "d": 129.31024999999863,
      "v": 74
    },
    {
      "midi": 65,
      "hit": false,
      "t": 32586.182999999983,
      "d": 129.31024999999863,
      "v": 74
    },
    {
      "midi": 65,
      "hit": false,
      "t": 32715.493249999963,
      "d": 114.2240541666688,
      "v": 67
    },
    {
      "midi": 69,
      "hit": false,
      "t": 32844.803499999965,
      "d": 114.2240541666688,
      "v": 67
    },
    {
      "midi": 74,
      "hit": false,
      "t": 32974.11374999997,
      "d": 114.2240541666688,
      "v": 67
    },
    {
      "midi": 69,
      "hit": false,
      "t": 32974.11374999998,
      "d": 75.43097916666738,
      "v": 75
    },
    {
      "midi": 65,
      "hit": false,
      "t": 32974.11374999998,
      "d": 70.04305208333244,
      "v": 75
    },
    {
      "midi": 67,
      "hit": false,
      "t": 33103.42399999997,
      "d": 114.2240541666688,
      "v": 67
    },
    {
      "midi": 72,
      "hit": false,
      "t": 33103.423999999985,
      "d": 133.62059166666586,
      "v": 75
    },
    {
      "midi": 64,
      "hit": false,
      "t": 33103.423999999985,
      "d": 137.93093333333672,
      "v": 75
    },
    {
      "midi": 64,
      "hit": false,
      "t": 33232.73424999997,
      "d": 114.2240541666688,
      "v": 68
    },
    {
      "midi": 67,
      "hit": false,
      "t": 33362.044499999975,
      "d": 114.2240541666688,
      "v": 68
    },
    {
      "midi": 72,
      "hit": false,
      "t": 33491.35474999998,
      "d": 114.2240541666688,
      "v": 68
    },
    {
      "midi": 67,
      "hit": false,
      "t": 33491.354749999984,
      "d": 81.8964916666664,
      "v": 74
    },
    {
      "midi": 64,
      "hit": false,
      "t": 33491.35474999999,
      "d": 65.73271041666885,
      "v": 75
    },
    {
      "midi": 65,
      "hit": false,
      "t": 33620.66499999998,
      "d": 114.2240541666688,
      "v": 68
    },
    {
      "midi": 71,
      "hit": false,
      "t": 33620.664999999986,
      "d": 143.3188604166644,
      "v": 76
    },
    {
      "midi": 62,
      "hit": false,
      "t": 33620.66499999999,
      "d": 164.8705687499969,
      "v": 76
    },
    {
      "midi": 62,
      "hit": false,
      "t": 33749.97524999998,
      "d": 114.2240541666688,
      "v": 68
    },
    {
      "midi": 65,
      "hit": false,
      "t": 33879.28549999998,
      "d": 114.2240541666688,
      "v": 69
    },
    {
      "midi": 65,
      "hit": false,
      "t": 34008.595749999986,
      "d": 81.8964916666664,
      "v": 76
    },
    {
      "midi": 71,
      "hit": false,
      "t": 34008.595749999986,
      "d": 114.2240541666688,
      "v": 69
    },
    {
      "midi": 62,
      "hit": false,
      "t": 34008.59574999999,
      "d": 92.6723458333363,
      "v": 76
    },
    {
      "midi": 69,
      "hit": false,
      "t": 34137.90599999999,
      "d": 114.2240541666688,
      "v": 78
    },
    {
      "midi": 60,
      "hit": false,
      "t": 34137.90599999999,
      "d": 64.6551249999975,
      "v": 78
    },
    {
      "midi": 69,
      "hit": false,
      "t": 34137.90599999999,
      "d": 114.2240541666688,
      "v": 70
    },
    {
      "midi": 64,
      "hit": false,
      "t": 34137.905999999995,
      "d": 114.2240541666688,
      "v": 78
    },
    {
      "midi": 59,
      "hit": false,
      "t": 34267.21624999998,
      "d": 64.6551249999975,
      "v": 78
    },
    {
      "midi": 67,
      "hit": false,
      "t": 34267.21624999999,
      "d": 114.2240541666688,
      "v": 78
    },
    {
      "midi": 67,
      "hit": false,
      "t": 34267.21624999999,
      "d": 114.2240541666688,
      "v": 70
    },
    {
      "midi": 62,
      "hit": false,
      "t": 34267.21625,
      "d": 114.2240541666688,
      "v": 78
    },
    {
      "midi": 57,
      "hit": false,
      "t": 34396.52649999998,
      "d": 64.6551249999975,
      "v": 78
    },
    {
      "midi": 65,
      "hit": false,
      "t": 34396.52649999999,
      "d": 114.2240541666688,
      "v": 78
    },
    {
      "midi": 65,
      "hit": false,
      "t": 34396.52649999999,
      "d": 114.2240541666688,
      "v": 70
    },
    {
      "midi": 60,
      "hit": false,
      "t": 34396.5265,
      "d": 114.2240541666688,
      "v": 78
    },
    {
      "midi": 55,
      "hit": false,
      "t": 34525.83674999997,
      "d": 64.6551249999975,
      "v": 78
    },
    {
      "midi": 64,
      "hit": false,
      "t": 34525.836749999995,
      "d": 114.2240541666688,
      "v": 78
    },
    {
      "midi": 64,
      "hit": false,
      "t": 34525.836749999995,
      "d": 114.2240541666688,
      "v": 71
    },
    {
      "midi": 59,
      "hit": false,
      "t": 34525.83675,
      "d": 114.2240541666688,
      "v": 78
    },
    {
      "midi": 57,
      "hit": false,
      "t": 34655.14699999997,
      "d": 64.6551249999975,
      "v": 78
    },
    {
      "midi": 65,
      "hit": false,
      "t": 34655.147,
      "d": 114.2240541666688,
      "v": 78
    },
    {
      "midi": 65,
      "hit": false,
      "t": 34655.147,
      "d": 114.2240541666688,
      "v": 71
    },
    {
      "midi": 60,
      "hit": false,
      "t": 34655.147000000004,
      "d": 114.2240541666688,
      "v": 78
    },
    {
      "midi": 55,
      "hit": false,
      "t": 34784.45724999996,
      "d": 64.6551249999975,
      "v": 78
    },
    {
      "midi": 64,
      "hit": false,
      "t": 34784.45725,
      "d": 114.2240541666688,
      "v": 78
    },
    {
      "midi": 64,
      "hit": false,
      "t": 34784.45725,
      "d": 114.2240541666688,
      "v": 71
    },
    {
      "midi": 59,
      "hit": false,
      "t": 34784.45725000001,
      "d": 114.2240541666688,
      "v": 78
    },
    {
      "midi": 53,
      "hit": false,
      "t": 34913.76749999996,
      "d": 64.6551249999975,
      "v": 79
    },
    {
      "midi": 62,
      "hit": false,
      "t": 34913.7675,
      "d": 114.2240541666688,
      "v": 79
    },
    {
      "midi": 62,
      "hit": false,
      "t": 34913.7675,
      "d": 114.2240541666688,
      "v": 71
    },
    {
      "midi": 57,
      "hit": false,
      "t": 34913.76750000001,
      "d": 114.2240541666688,
      "v": 79
    },
    {
      "midi": 52,
      "hit": false,
      "t": 35043.07774999995,
      "d": 64.6551249999975,
      "v": 79
    },
    {
      "midi": 60,
      "hit": false,
      "t": 35043.077750000004,
      "d": 114.2240541666688,
      "v": 79
    },
    {
      "midi": 60,
      "hit": false,
      "t": 35043.077750000004,
      "d": 114.2240541666688,
      "v": 71
    },
    {
      "midi": 55,
      "hit": false,
      "t": 35043.07775000001,
      "d": 114.2240541666688,
      "v": 79
    },
    {
      "midi": 53,
      "hit": false,
      "t": 35172.38799999995,
      "d": 64.6551249999975,
      "v": 79
    },
    {
      "midi": 62,
      "hit": false,
      "t": 35172.388000000006,
      "d": 114.2240541666688,
      "v": 79
    },
    {
      "midi": 62,
      "hit": false,
      "t": 35172.388000000006,
      "d": 114.2240541666688,
      "v": 71
    },
    {
      "midi": 57,
      "hit": false,
      "t": 35172.38800000001,
      "d": 114.2240541666688,
      "v": 79
    },
    {
      "midi": 52,
      "hit": false,
      "t": 35301.69824999994,
      "d": 64.6551249999975,
      "v": 79
    },
    {
      "midi": 60,
      "hit": false,
      "t": 35301.69825000001,
      "d": 114.2240541666688,
      "v": 79
    },
    {
      "midi": 60,
      "hit": false,
      "t": 35301.69825000001,
      "d": 114.2240541666688,
      "v": 72
    },
    {
      "midi": 55,
      "hit": false,
      "t": 35301.698250000016,
      "d": 114.2240541666688,
      "v": 79
    },
    {
      "midi": 50,
      "hit": false,
      "t": 35431.00849999994,
      "d": 64.6551249999975,
      "v": 79
    },
    {
      "midi": 59,
      "hit": false,
      "t": 35431.00850000001,
      "d": 114.2240541666688,
      "v": 79
    },
    {
      "midi": 59,
      "hit": false,
      "t": 35431.00850000001,
      "d": 114.2240541666688,
      "v": 72
    },
    {
      "midi": 53,
      "hit": false,
      "t": 35431.00850000002,
      "d": 114.2240541666688,
      "v": 79
    },
    {
      "midi": 48,
      "hit": false,
      "t": 35560.31874999993,
      "d": 64.6551249999975,
      "v": 79
    },
    {
      "midi": 57,
      "hit": false,
      "t": 35560.31875000001,
      "d": 114.2240541666688,
      "v": 79
    },
    {
      "midi": 57,
      "hit": false,
      "t": 35560.31875000001,
      "d": 114.2240541666688,
      "v": 72
    },
    {
      "midi": 52,
      "hit": false,
      "t": 35560.31875000002,
      "d": 114.2240541666688,
      "v": 79
    },
    {
      "midi": 47,
      "hit": false,
      "t": 35689.62899999993,
      "d": 64.6551249999975,
      "v": 80
    },
    {
      "midi": 55,
      "hit": false,
      "t": 35689.629000000015,
      "d": 114.2240541666688,
      "v": 80
    },
    {
      "midi": 55,
      "hit": false,
      "t": 35689.629000000015,
      "d": 114.2240541666688,
      "v": 72
    },
    {
      "midi": 50,
      "hit": false,
      "t": 35689.62900000002,
      "d": 114.2240541666688,
      "v": 80
    },
    {
      "midi": 48,
      "hit": false,
      "t": 35818.93924999992,
      "d": 64.6551249999975,
      "v": 80
    },
    {
      "midi": 57,
      "hit": false,
      "t": 35818.93925000002,
      "d": 114.2240541666688,
      "v": 80
    },
    {
      "midi": 57,
      "hit": false,
      "t": 35818.93925000002,
      "d": 114.2240541666688,
      "v": 72
    },
    {
      "midi": 52,
      "hit": false,
      "t": 35818.939250000025,
      "d": 114.2240541666688,
      "v": 80
    },
    {
      "midi": 50,
      "hit": false,
      "t": 35948.24949999992,
      "d": 64.6551249999975,
      "v": 80
    },
    {
      "midi": 59,
      "hit": false,
      "t": 35948.24950000002,
      "d": 114.2240541666688,
      "v": 80
    },
    {
      "midi": 59,
      "hit": false,
      "t": 35948.24950000002,
      "d": 114.2240541666688,
      "v": 72
    },
    {
      "midi": 53,
      "hit": false,
      "t": 35948.24950000003,
      "d": 114.2240541666688,
      "v": 80
    },
    {
      "midi": 52,
      "hit": false,
      "t": 36077.55974999991,
      "d": 64.6551249999975,
      "v": 80
    },
    {
      "midi": 60,
      "hit": false,
      "t": 36077.55975000002,
      "d": 114.2240541666688,
      "v": 80
    },
    {
      "midi": 60,
      "hit": false,
      "t": 36077.55975000002,
      "d": 114.2240541666688,
      "v": 72
    },
    {
      "midi": 55,
      "hit": false,
      "t": 36077.55975000003,
      "d": 114.2240541666688,
      "v": 80
    },
    {
      "midi": 53,
      "hit": false,
      "t": 36206.86999999991,
      "d": 64.6551249999975,
      "v": 80
    },
    {
      "midi": 62,
      "hit": false,
      "t": 36206.870000000024,
      "d": 114.2240541666688,
      "v": 80
    },
    {
      "midi": 62,
      "hit": false,
      "t": 36206.870000000024,
      "d": 114.2240541666688,
      "v": 73
    },
    {
      "midi": 57,
      "hit": false,
      "t": 36206.87000000003,
      "d": 114.2240541666688,
      "v": 80
    },
    {
      "midi": 52,
      "hit": false,
      "t": 36336.1802499999,
      "d": 64.6551249999975,
      "v": 80
    },
    {
      "midi": 60,
      "hit": false,
      "t": 36336.18025000003,
      "d": 114.2240541666688,
      "v": 80
    },
    {
      "midi": 60,
      "hit": false,
      "t": 36336.18025000003,
      "d": 114.2240541666688,
      "v": 73
    },
    {
      "midi": 55,
      "hit": false,
      "t": 36336.180250000034,
      "d": 114.2240541666688,
      "v": 80
    },
    {
      "midi": 53,
      "hit": false,
      "t": 36465.4904999999,
      "d": 64.6551249999975,
      "v": 80
    },
    {
      "midi": 62,
      "hit": false,
      "t": 36465.49050000003,
      "d": 114.2240541666688,
      "v": 80
    },
    {
      "midi": 62,
      "hit": false,
      "t": 36465.49050000003,
      "d": 114.2240541666688,
      "v": 73
    },
    {
      "midi": 57,
      "hit": false,
      "t": 36465.490500000036,
      "d": 114.2240541666688,
      "v": 80
    },
    {
      "midi": 55,
      "hit": false,
      "t": 36594.80074999989,
      "d": 64.6551249999975,
      "v": 81
    },
    {
      "midi": 64,
      "hit": false,
      "t": 36594.80075000003,
      "d": 114.2240541666688,
      "v": 81
    },
    {
      "midi": 64,
      "hit": false,
      "t": 36594.80075000003,
      "d": 114.2240541666688,
      "v": 73
    },
    {
      "midi": 59,
      "hit": false,
      "t": 36594.80075000004,
      "d": 114.2240541666688,
      "v": 81
    },
    {
      "midi": 57,
      "hit": false,
      "t": 36724.11099999989,
      "d": 64.6551249999975,
      "v": 81
    },
    {
      "midi": 65,
      "hit": false,
      "t": 36724.11100000003,
      "d": 114.2240541666688,
      "v": 81
    },
    {
      "midi": 65,
      "hit": false,
      "t": 36724.11100000003,
      "d": 114.2240541666688,
      "v": 73
    },
    {
      "midi": 60,
      "hit": false,
      "t": 36724.11100000004,
      "d": 114.2240541666688,
      "v": 81
    },
    {
      "midi": 59,
      "hit": false,
      "t": 36853.42124999988,
      "d": 64.6551249999975,
      "v": 81
    },
    {
      "midi": 67,
      "hit": false,
      "t": 36853.421250000036,
      "d": 114.2240541666688,
      "v": 81
    },
    {
      "midi": 67,
      "hit": false,
      "t": 36853.421250000036,
      "d": 114.2240541666688,
      "v": 73
    },
    {
      "midi": 62,
      "hit": false,
      "t": 36853.42125000004,
      "d": 114.2240541666688,
      "v": 81
    },
    {
      "midi": 60,
      "hit": false,
      "t": 36982.73149999988,
      "d": 64.6551249999975,
      "v": 81
    },
    {
      "midi": 69,
      "hit": false,
      "t": 36982.73150000004,
      "d": 114.2240541666688,
      "v": 81
    },
    {
      "midi": 69,
      "hit": false,
      "t": 36982.73150000004,
      "d": 114.2240541666688,
      "v": 74
    },
    {
      "midi": 64,
      "hit": false,
      "t": 36982.731500000045,
      "d": 114.2240541666688,
      "v": 81
    },
    {
      "midi": 62,
      "hit": false,
      "t": 37112.04174999987,
      "d": 64.6551249999975,
      "v": 81
    },
    {
      "midi": 71,
      "hit": false,
      "t": 37112.04175000004,
      "d": 114.2240541666688,
      "v": 81
    },
    {
      "midi": 71,
      "hit": false,
      "t": 37112.04175000004,
      "d": 114.2240541666688,
      "v": 74
    },
    {
      "midi": 65,
      "hit": false,
      "t": 37112.04175000005,
      "d": 114.2240541666688,
      "v": 81
    },
    {
      "midi": 60,
      "hit": false,
      "t": 37241.35199999987,
      "d": 248.92223124999873,
      "v": 80
    },
    {
      "midi": 72,
      "hit": false,
      "t": 37241.35200000004,
      "d": 244.61188958333514,
      "v": 80
    },
    {
      "midi": 60,
      "hit": false,
      "t": 37241.35200000004,
      "d": 253.2325729166696,
      "v": 98
    },
    {
      "midi": 64,
      "hit": false,
      "t": 37241.35200000005,
      "d": 248.92223124999873,
      "v": 80
    },
    {
      "midi": 59,
      "hit": false,
      "t": 37499.972499999865,
      "d": 258.62049999999726,
      "v": 81
    },
    {
      "midi": 72,
      "hit": false,
      "t": 37499.97250000005,
      "d": 397.62901874999807,
      "v": 81
    },
    {
      "midi": 67,
      "hit": false,
      "t": 37499.97250000005,
      "d": 258.62049999999726,
      "v": 81
    },
    {
      "midi": 64,
      "hit": false,
      "t": 37499.97250000005,
      "d": 258.62049999999726,
      "v": 98
    },
    {
      "midi": 57,
      "hit": false,
      "t": 37758.59299999986,
      "d": 129.31025000000227,
      "v": 81
    },
    {
      "midi": 65,
      "hit": false,
      "t": 37758.593000000044,
      "d": 129.31025000000227,
      "v": 81
    },
    {
      "midi": 65,
      "hit": false,
      "t": 37758.593000000044,
      "d": 129.31025000000227,
      "v": 98
    },
    {
      "midi": 55,
      "hit": false,
      "t": 38017.21349999987,
      "d": 134.69817708332994,
      "v": 81
    },
    {
      "midi": 71,
      "hit": false,
      "t": 38017.21350000004,
      "d": 143.3188604166644,
      "v": 81
    },
    {
      "midi": 74,
      "hit": false,
      "t": 38017.21350000004,
      "d": 147.62920208332798,
      "v": 81
    },
    {
      "midi": 71,
      "hit": false,
      "t": 38017.21350000005,
      "d": 134.69817708332994,
      "v": 81
    },
    {
      "midi": 67,
      "hit": false,
      "t": 38017.21350000005,
      "d": 134.69817708332994,
      "v": 99
    },
    {
      "midi": 53,
      "hit": false,
      "t": 38275.833999999864,
      "d": 435.3445083333354,
      "v": 86
    },
    {
      "midi": 69,
      "hit": false,
      "t": 38275.83400000004,
      "d": 435.3445083333354,
      "v": 86
    },
    {
      "midi": 77,
      "hit": false,
      "t": 38275.83400000004,
      "d": 435.3445083333354,
      "v": 86
    },
    {
      "midi": 69,
      "hit": false,
      "t": 38275.834000000046,
      "d": 435.3445083333354,
      "v": 86
    },
    {
      "midi": 72,
      "hit": false,
      "t": 38275.834000000046,
      "d": 435.3445083333354,
      "v": 86
    },
    {
      "midi": 69,
      "hit": false,
      "t": 38275.834000000046,
      "d": 435.3445083333354,
      "v": 103
    },
    {
      "midi": 55,
      "hit": false,
      "t": 38793.074999999866,
      "d": 435.3445083333354,
      "v": 86
    },
    {
      "midi": 71,
      "hit": false,
      "t": 38793.07500000004,
      "d": 435.3445083333354,
      "v": 86
    },
    {
      "midi": 74,
      "hit": false,
      "t": 38793.07500000004,
      "d": 435.3445083333354,
      "v": 86
    },
    {
      "midi": 62,
      "hit": false,
      "t": 38793.07500000005,
      "d": 435.3445083333354,
      "v": 86
    },
    {
      "midi": 71,
      "hit": false,
      "t": 38793.07500000005,
      "d": 435.3445083333354,
      "v": 86
    },
    {
      "midi": 67,
      "hit": false,
      "t": 38793.07500000005,
      "d": 435.3445083333354,
      "v": 103
    },
    {
      "midi": 60,
      "hit": false,
      "t": 39310.31599999987,
      "d": 253.2325729166696,
      "v": 81
    },
    {
      "midi": 72,
      "hit": false,
      "t": 39310.31600000004,
      "d": 129.31025000000227,
      "v": 82
    },
    {
      "midi": 64,
      "hit": false,
      "t": 39310.31600000005,
      "d": 129.31025000000227,
      "v": 82
    },
    {
      "midi": 60,
      "hit": false,
      "t": 39310.31600000005,
      "d": 258.62049999999726,
      "v": 100
    },
    {
      "midi": 59,
      "hit": false,
      "t": 39568.93649999987,
      "d": 258.62049999999726,
      "v": 82
    },
    {
      "midi": 72,
      "hit": false,
      "t": 39568.93650000005,
      "d": 517.2410000000018,
      "v": 82
    },
    {
      "midi": 64,
      "hit": false,
      "t": 39568.93650000005,
      "d": 258.62049999999726,
      "v": 100
    },
    {
      "midi": 67,
      "hit": false,
      "t": 39568.936500000054,
      "d": 258.62049999999726,
      "v": 82
    },
    {
      "midi": 57,
      "hit": false,
      "t": 39827.55699999987,
      "d": 129.31025000000227,
      "v": 83
    },
    {
      "midi": 65,
      "hit": false,
      "t": 39827.557000000044,
      "d": 129.31025000000227,
      "v": 100
    },
    {
      "midi": 65,
      "hit": false,
      "t": 39827.55700000005,
      "d": 129.31025000000227,
      "v": 83
    },
    {
      "midi": 53,
      "hit": false,
      "t": 40086.177499999874,
      "d": 139.0085187500008,
      "v": 82
    },
    {
      "midi": 69,
      "hit": false,
      "t": 40086.17750000005,
      "d": 258.62049999999726,
      "v": 83
    },
    {
      "midi": 77,
      "hit": false,
      "t": 40086.17750000005,
      "d": 258.62049999999726,
      "v": 83
    },
    {
      "midi": 69,
      "hit": false,
      "t": 40086.17750000005,
      "d": 134.69817708332994,
      "v": 100
    },
    {
      "midi": 65,
      "hit": false,
      "t": 40086.177500000056,
      "d": 122.84473750000325,
      "v": 83
    },
    {
      "midi": 69,
      "hit": false,
      "t": 40086.177500000056,
      "d": 124.99990833333868,
      "v": 84
    },
    {
      "midi": 50,
      "hit": false,
      "t": 40344.79799999987,
      "d": 435.3445083333354,
      "v": 87
    },
    {
      "midi": 77,
      "hit": false,
      "t": 40344.798000000046,
      "d": 435.3445083333354,
      "v": 87
    },
    {
      "midi": 81,
      "hit": false,
      "t": 40344.798000000046,
      "d": 435.3445083333354,
      "v": 87
    },
    {
      "midi": 74,
      "hit": false,
      "t": 40344.798000000046,
      "d": 435.3445083333354,
      "v": 105
    },
    {
      "midi": 65,
      "hit": false,
      "t": 40344.79800000006,
      "d": 433.18933749999997,
      "v": 87
    },
    {
      "midi": 74,
      "hit": false,
      "t": 40344.79800000006,
      "d": 435.3445083333354,
      "v": 87
    },
    {
      "midi": 52,
      "hit": false,
      "t": 40862.03899999987,
      "d": 435.3445083333354,
      "v": 88
    },
    {
      "midi": 71,
      "hit": false,
      "t": 40862.03900000005,
      "d": 435.3445083333354,
      "v": 88
    },
    {
      "midi": 80,
      "hit": false,
      "t": 40862.03900000005,
      "d": 435.3445083333354,
      "v": 88
    },
    {
      "midi": 71,
      "hit": false,
      "t": 40862.03900000005,
      "d": 435.3445083333354,
      "v": 105
    },
    {
      "midi": 68,
      "hit": false,
      "t": 40862.03900000006,
      "d": 435.3445083333354,
      "v": 88
    },
    {
      "midi": 71,
      "hit": false,
      "t": 40862.03900000006,
      "d": 435.3445083333354,
      "v": 88
    },
    {
      "midi": 36,
      "hit": false,
      "t": 41379.279999999875,
      "d": 1551.7229999999981,
      "v": 89
    },
    {
      "midi": 45,
      "hit": false,
      "t": 41379.279999999875,
      "d": 1551.7229999999981,
      "v": 89
    },
    {
      "midi": 69,
      "hit": false,
      "t": 41379.28000000005,
      "d": 1532.326462500001,
      "v": 89
    },
    {
      "midi": 81,
      "hit": false,
      "t": 41379.28000000005,
      "d": 1551.7229999999981,
      "v": 89
    },
    {
      "midi": 76,
      "hit": false,
      "t": 41379.28000000005,
      "d": 1551.7229999999981,
      "v": 106
    },
    {
      "midi": 64,
      "hit": false,
      "t": 41379.280000000064,
      "d": 1551.7229999999981,
      "v": 89
    },
    {
      "midi": 76,
      "hit": false,
      "t": 41379.280000000064,
      "d": 1551.7229999999981,
      "v": 89
    },
    {
      "midi": 60,
      "hit": false,
      "t": 42931.00299999987,
      "d": 64.6551249999975,
      "v": 81
    },
    {
      "midi": 69,
      "hit": false,
      "t": 42931.00300000005,
      "d": 62.49995416666934,
      "v": 81
    },
    {
      "midi": 66,
      "hit": false,
      "t": 42931.00300000005,
      "d": 64.65512500000477,
      "v": 81
    },
    {
      "midi": 69,
      "hit": false,
      "t": 42931.00300000005,
      "d": 64.6551249999975,
      "v": 99
    },
    {
      "midi": 57,
      "hit": false,
      "t": 42931.00300000006,
      "d": 64.6551249999975,
      "v": 81
    },
    {
      "midi": 66,
      "hit": false,
      "t": 42931.00300000006,
      "d": 64.6551249999975,
      "v": 81
    },
    {
      "midi": 60,
      "hit": false,
      "t": 43060.31324999987,
      "d": 64.6551249999975,
      "v": 81
    },
    {
      "midi": 69,
      "hit": false,
      "t": 43060.31325000004,
      "d": 64.6551249999975,
      "v": 99
    },
    {
      "midi": 66,
      "hit": false,
      "t": 43060.31325000005,
      "d": 64.6551249999975,
      "v": 81
    },
    {
      "midi": 69,
      "hit": false,
      "t": 43060.31325000005,
      "d": 64.6551249999975,
      "v": 81
    },
    {
      "midi": 57,
      "hit": false,
      "t": 43060.31325000006,
      "d": 64.6551249999975,
      "v": 81
    },
    {
      "midi": 66,
      "hit": false,
      "t": 43060.31325000006,
      "d": 64.6551249999975,
      "v": 81
    },
    {
      "midi": 60,
      "hit": false,
      "t": 43189.62349999986,
      "d": 129.31025000000227,
      "v": 81
    },
    {
      "midi": 69,
      "hit": false,
      "t": 43189.62350000004,
      "d": 129.31025000000227,
      "v": 99
    },
    {
      "midi": 66,
      "hit": false,
      "t": 43189.623500000045,
      "d": 129.31025000000227,
      "v": 81
    },
    {
      "midi": 69,
      "hit": false,
      "t": 43189.623500000045,
      "d": 129.31025000000227,
      "v": 81
    },
    {
      "midi": 57,
      "hit": false,
      "t": 43189.62350000005,
      "d": 129.31025000000227,
      "v": 81
    },
    {
      "midi": 66,
      "hit": false,
      "t": 43189.62350000005,
      "d": 129.31025000000227,
      "v": 81
    },
    {
      "midi": 59,
      "hit": false,
      "t": 43448.24399999987,
      "d": 64.6551249999975,
      "v": 81
    },
    {
      "midi": 74,
      "hit": false,
      "t": 43448.24400000004,
      "d": 64.6551249999975,
      "v": 99
    },
    {
      "midi": 67,
      "hit": false,
      "t": 43448.24400000005,
      "d": 64.6551249999975,
      "v": 81
    },
    {
      "midi": 74,
      "hit": false,
      "t": 43448.24400000005,
      "d": 64.6551249999975,
      "v": 81
    },
    {
      "midi": 59,
      "hit": false,
      "t": 43448.24400000006,
      "d": 64.6551249999975,
      "v": 81
    },
    {
      "midi": 62,
      "hit": false,
      "t": 43448.24400000006,
      "d": 64.6551249999975,
      "v": 81
    },
    {
      "midi": 59,
      "hit": false,
      "t": 43577.55424999986,
      "d": 64.6551249999975,
      "v": 81
    },
    {
      "midi": 74,
      "hit": false,
      "t": 43577.55425000004,
      "d": 64.6551249999975,
      "v": 99
    },
    {
      "midi": 67,
      "hit": false,
      "t": 43577.554250000045,
      "d": 64.6551249999975,
      "v": 81
    },
    {
      "midi": 74,
      "hit": false,
      "t": 43577.554250000045,
      "d": 64.6551249999975,
      "v": 81
    },
    {
      "midi": 59,
      "hit": false,
      "t": 43577.55425000005,
      "d": 64.6551249999975,
      "v": 81
    },
    {
      "midi": 62,
      "hit": false,
      "t": 43577.55425000005,
      "d": 64.6551249999975,
      "v": 81
    },
    {
      "midi": 59,
      "hit": false,
      "t": 43706.86449999986,
      "d": 129.31025000000227,
      "v": 81
    },
    {
      "midi": 74,
      "hit": false,
      "t": 43706.86450000003,
      "d": 129.31025000000227,
      "v": 99
    },
    {
      "midi": 67,
      "hit": false,
      "t": 43706.86450000004,
      "d": 129.31025000000227,
      "v": 81
    },
    {
      "midi": 74,
      "hit": false,
      "t": 43706.86450000004,
      "d": 129.31025000000227,
      "v": 81
    },
    {
      "midi": 59,
      "hit": false,
      "t": 43706.86450000005,
      "d": 129.31025000000227,
      "v": 81
    },
    {
      "midi": 62,
      "hit": false,
      "t": 43706.86450000005,
      "d": 129.31025000000227,
      "v": 81
    },
    {
      "midi": 55,
      "hit": false,
      "t": 43965.48499999986,
      "d": 64.6551249999975,
      "v": 81
    },
    {
      "midi": 71,
      "hit": false,
      "t": 43965.48500000004,
      "d": 129.31025000000227,
      "v": 99
    },
    {
      "midi": 67,
      "hit": false,
      "t": 43965.485000000044,
      "d": 64.6551249999975,
      "v": 81
    },
    {
      "midi": 71,
      "hit": false,
      "t": 43965.485000000044,
      "d": 64.6551249999975,
      "v": 81
    },
    {
      "midi": 55,
      "hit": false,
      "t": 43965.48500000005,
      "d": 64.6551249999975,
      "v": 81
    },
    {
      "midi": 62,
      "hit": false,
      "t": 43965.48500000005,
      "d": 64.6551249999975,
      "v": 81
    },
    {
      "midi": 55,
      "hit": false,
      "t": 44094.79524999986,
      "d": 64.6551249999975,
      "v": 81
    },
    {
      "midi": 67,
      "hit": false,
      "t": 44094.79525000004,
      "d": 64.6551249999975,
      "v": 81
    },
    {
      "midi": 71,
      "hit": false,
      "t": 44094.79525000004,
      "d": 64.6551249999975,
      "v": 81
    },
    {
      "midi": 67,
      "hit": false,
      "t": 44094.79525000004,
      "d": 129.31025000000227,
      "v": 99
    },
    {
      "midi": 55,
      "hit": false,
      "t": 44094.79525000005,
      "d": 64.6551249999975,
      "v": 81
    },
    {
      "midi": 62,
      "hit": false,
      "t": 44094.79525000005,
      "d": 64.6551249999975,
      "v": 81
    },
    {
      "midi": 55,
      "hit": false,
      "t": 44224.10549999985,
      "d": 129.31025000000227,
      "v": 81
    },
    {
      "midi": 67,
      "hit": false,
      "t": 44224.105500000034,
      "d": 129.31025000000227,
      "v": 81
    },
    {
      "midi": 71,
      "hit": false,
      "t": 44224.105500000034,
      "d": 129.31025000000227,
      "v": 81
    },
    {
      "midi": 55,
      "hit": false,
      "t": 44224.10550000004,
      "d": 129.31025000000227,
      "v": 81
    },
    {
      "midi": 62,
      "hit": false,
      "t": 44224.10550000004,
      "d": 129.31025000000227,
      "v": 81
    },
    {
      "midi": 71,
      "hit": false,
      "t": 44224.10550000004,
      "d": 129.31025000000227,
      "v": 99
    },
    {
      "midi": 74,
      "hit": false,
      "t": 44353.415750000044,
      "d": 129.31025000000227,
      "v": 99
    },
    {
      "midi": 62,
      "hit": false,
      "t": 44482.72599999986,
      "d": 64.6551249999975,
      "v": 81
    },
    {
      "midi": 66,
      "hit": false,
      "t": 44482.72600000004,
      "d": 64.6551249999975,
      "v": 81
    },
    {
      "midi": 69,
      "hit": false,
      "t": 44482.72600000004,
      "d": 64.6551249999975,
      "v": 81
    },
    {
      "midi": 62,
      "hit": false,
      "t": 44482.726000000046,
      "d": 64.6551249999975,
      "v": 81
    },
    {
      "midi": 69,
      "hit": false,
      "t": 44482.726000000046,
      "d": 64.6551249999975,
      "v": 99
    },
    {
      "midi": 62,
      "hit": false,
      "t": 44612.03624999985,
      "d": 64.6551249999975,
      "v": 81
    },
    {
      "midi": 66,
      "hit": false,
      "t": 44612.036250000034,
      "d": 64.6551249999975,
      "v": 81
    },
    {
      "midi": 69,
      "hit": false,
      "t": 44612.036250000034,
      "d": 64.6551249999975,
      "v": 81
    },
    {
      "midi": 62,
      "hit": false,
      "t": 44612.03625000004,
      "d": 64.6551249999975,
      "v": 81
    },
    {
      "midi": 69,
      "hit": false,
      "t": 44612.03625000004,
      "d": 64.6551249999975,
      "v": 99
    },
    {
      "midi": 62,
      "hit": false,
      "t": 44741.34649999985,
      "d": 129.31025000000227,
      "v": 81
    },
    {
      "midi": 66,
      "hit": false,
      "t": 44741.34650000003,
      "d": 129.31025000000227,
      "v": 81
    },
    {
      "midi": 69,
      "hit": false,
      "t": 44741.34650000003,
      "d": 129.31025000000227,
      "v": 81
    },
    {
      "midi": 62,
      "hit": false,
      "t": 44741.346500000036,
      "d": 129.31025000000227,
      "v": 81
    },
    {
      "midi": 69,
      "hit": false,
      "t": 44741.346500000036,
      "d": 129.31025000000227,
      "v": 99
    },
    {
      "midi": 60,
      "hit": false,
      "t": 44999.96699999985,
      "d": 64.6551249999975,
      "v": 81
    },
    {
      "midi": 69,
      "hit": false,
      "t": 44999.96700000003,
      "d": 64.6551249999975,
      "v": 81
    },
    {
      "midi": 76,
      "hit": false,
      "t": 44999.96700000003,
      "d": 64.6551249999975,
      "v": 81
    },
    {
      "midi": 57,
      "hit": false,
      "t": 44999.96700000004,
      "d": 64.6551249999975,
      "v": 81
    },
    {
      "midi": 66,
      "hit": false,
      "t": 44999.96700000004,
      "d": 64.6551249999975,
      "v": 81
    },
    {
      "midi": 72,
      "hit": false,
      "t": 44999.96700000004,
      "d": 129.31025000000227,
      "v": 99
    },
    {
      "midi": 60,
      "hit": false,
      "t": 45129.27724999985,
      "d": 64.6551249999975,
      "v": 81
    },
    {
      "midi": 69,
      "hit": false,
      "t": 45129.27725000003,
      "d": 64.6551249999975,
      "v": 81
    },
    {
      "midi": 76,
      "hit": false,
      "t": 45129.27725000003,
      "d": 64.6551249999975,
      "v": 81
    },
    {
      "midi": 57,
      "hit": false,
      "t": 45129.277250000036,
      "d": 64.6551249999975,
      "v": 81
    },
    {
      "midi": 66,
      "hit": false,
      "t": 45129.277250000036,
      "d": 64.6551249999975,
      "v": 81
    },
    {
      "midi": 69,
      "hit": false,
      "t": 45129.27725000004,
      "d": 129.31025000000227,
      "v": 99
    },
    {
      "midi": 60,
      "hit": false,
      "t": 45258.58749999984,
      "d": 129.31025000000227,
      "v": 81
    },
    {
      "midi": 69,
      "hit": false,
      "t": 45258.58750000002,
      "d": 129.31025000000227,
      "v": 81
    },
    {
      "midi": 76,
      "hit": false,
      "t": 45258.58750000002,
      "d": 129.31025000000227,
      "v": 81
    },
    {
      "midi": 57,
      "hit": false,
      "t": 45258.58750000003,
      "d": 129.31025000000227,
      "v": 81
    },
    {
      "midi": 66,
      "hit": false,
      "t": 45258.58750000003,
      "d": 129.31025000000227,
      "v": 81
    },
    {
      "midi": 72,
      "hit": false,
      "t": 45258.587500000045,
      "d": 129.31025000000227,
      "v": 99
    },
    {
      "midi": 76,
      "hit": false,
      "t": 45387.89775000005,
      "d": 129.31025000000227,
      "v": 99
    },
    {
      "midi": 59,
      "hit": false,
      "t": 45517.207999999846,
      "d": 64.6551249999975,
      "v": 81
    },
    {
      "midi": 67,
      "hit": false,
      "t": 45517.20800000003,
      "d": 64.6551249999975,
      "v": 81
    },
    {
      "midi": 79,
      "hit": false,
      "t": 45517.20800000003,
      "d": 64.6551249999975,
      "v": 81
    },
    {
      "midi": 59,
      "hit": false,
      "t": 45517.208000000035,
      "d": 64.6551249999975,
      "v": 81
    },
    {
      "midi": 62,
      "hit": false,
      "t": 45517.208000000035,
      "d": 64.6551249999975,
      "v": 81
    },
    {
      "midi": 79,
      "hit": false,
      "t": 45517.20800000005,
      "d": 129.31025000000227,
      "v": 99
    },
    {
      "midi": 59,
      "hit": false,
      "t": 45646.51824999984,
      "d": 64.6551249999975,
      "v": 81
    },
    {
      "midi": 67,
      "hit": false,
      "t": 45646.51825000002,
      "d": 64.6551249999975,
      "v": 81
    },
    {
      "midi": 79,
      "hit": false,
      "t": 45646.51825000002,
      "d": 64.6551249999975,
      "v": 81
    },
    {
      "midi": 59,
      "hit": false,
      "t": 45646.51825000003,
      "d": 64.6551249999975,
      "v": 81
    },
    {
      "midi": 62,
      "hit": false,
      "t": 45646.51825000003,
      "d": 64.6551249999975,
      "v": 81
    },
    {
      "midi": 74,
      "hit": false,
      "t": 45646.51825000005,
      "d": 129.31025000000227,
      "v": 99
    },
    {
      "midi": 59,
      "hit": false,
      "t": 45775.828499999836,
      "d": 129.31025000000227,
      "v": 81
    },
    {
      "midi": 67,
      "hit": false,
      "t": 45775.82850000002,
      "d": 129.31025000000227,
      "v": 81
    },
    {
      "midi": 79,
      "hit": false,
      "t": 45775.82850000002,
      "d": 129.31025000000227,
      "v": 81
    },
    {
      "midi": 59,
      "hit": false,
      "t": 45775.828500000025,
      "d": 129.31025000000227,
      "v": 81
    },
    {
      "midi": 62,
      "hit": false,
      "t": 45775.828500000025,
      "d": 129.31025000000227,
      "v": 81
    },
    {
      "midi": 71,
      "hit": false,
      "t": 45775.828500000054,
      "d": 129.31025000000227,
      "v": 99
    },
    {
      "midi": 74,
      "hit": false,
      "t": 45905.13875000006,
      "d": 129.31025000000227,
      "v": 99
    },
    {
      "midi": 55,
      "hit": false,
      "t": 46034.44899999984,
      "d": 64.6551249999975,
      "v": 81
    },
    {
      "midi": 67,
      "hit": false,
      "t": 46034.44900000002,
      "d": 64.6551249999975,
      "v": 81
    },
    {
      "midi": 71,
      "hit": false,
      "t": 46034.44900000002,
      "d": 64.6551249999975,
      "v": 81
    },
    {
      "midi": 55,
      "hit": false,
      "t": 46034.44900000003,
      "d": 64.6551249999975,
      "v": 81
    },
    {
      "midi": 62,
      "hit": false,
      "t": 46034.44900000003,
      "d": 64.6551249999975,
      "v": 81
    },
    {
      "midi": 71,
      "hit": false,
      "t": 46034.44900000006,
      "d": 129.31025000000227,
      "v": 99
    },
    {
      "midi": 55,
      "hit": false,
      "t": 46163.759249999835,
      "d": 64.6551249999975,
      "v": 81
    },
    {
      "midi": 67,
      "hit": false,
      "t": 46163.75925000002,
      "d": 64.6551249999975,
      "v": 81
    },
    {
      "midi": 71,
      "hit": false,
      "t": 46163.75925000002,
      "d": 64.6551249999975,
      "v": 81
    },
    {
      "midi": 55,
      "hit": false,
      "t": 46163.759250000025,
      "d": 64.6551249999975,
      "v": 81
    },
    {
      "midi": 62,
      "hit": false,
      "t": 46163.759250000025,
      "d": 64.6551249999975,
      "v": 81
    },
    {
      "midi": 67,
      "hit": false,
      "t": 46163.75925000006,
      "d": 129.31025000000227,
      "v": 99
    },
    {
      "midi": 55,
      "hit": false,
      "t": 46293.06949999983,
      "d": 129.31025000000227,
      "v": 81
    },
    {
      "midi": 67,
      "hit": false,
      "t": 46293.06950000001,
      "d": 129.31025000000227,
      "v": 81
    },
    {
      "midi": 71,
      "hit": false,
      "t": 46293.06950000001,
      "d": 129.31025000000227,
      "v": 81
    },
    {
      "midi": 55,
      "hit": false,
      "t": 46293.06950000002,
      "d": 129.31025000000227,
      "v": 81
    },
    {
      "midi": 62,
      "hit": false,
      "t": 46293.06950000002,
      "d": 129.31025000000227,
      "v": 81
    },
    {
      "midi": 71,
      "hit": false,
      "t": 46293.06950000006,
      "d": 129.31025000000227,
      "v": 99
    },
    {
      "midi": 74,
      "hit": false,
      "t": 46422.379750000066,
      "d": 129.31025000000227,
      "v": 99
    },
    {
      "midi": 50,
      "hit": false,
      "t": 46551.689999999835,
      "d": 64.6551249999975,
      "v": 81
    },
    {
      "midi": 66,
      "hit": false,
      "t": 46551.69000000002,
      "d": 129.31025000000227,
      "v": 81
    },
    {
      "midi": 69,
      "hit": false,
      "t": 46551.69000000002,
      "d": 129.31025000000227,
      "v": 81
    },
    {
      "midi": 62,
      "hit": false,
      "t": 46551.690000000024,
      "d": 64.6551249999975,
      "v": 81
    },
    {
      "midi": 69,
      "hit": false,
      "t": 46551.69000000007,
      "d": 129.31025000000227,
      "v": 99
    },
    {
      "midi": 50,
      "hit": false,
      "t": 46681.00024999983,
      "d": 64.6551249999975,
      "v": 81
    },
    {
      "midi": 62,
      "hit": false,
      "t": 46681.00025000002,
      "d": 64.6551249999975,
      "v": 81
    },
    {
      "midi": 50,
      "hit": false,
      "t": 46810.310499999825,
      "d": 129.31025000000227,
      "v": 81
    },
    {
      "midi": 62,
      "hit": false,
      "t": 46810.310500000014,
      "d": 129.31025000000227,
      "v": 81
    },
    {
      "midi": 51,
      "hit": false,
      "t": 47068.93099999983,
      "d": 64.6551249999975,
      "v": 81
    },
    {
      "midi": 63,
      "hit": false,
      "t": 47068.93100000002,
      "d": 64.6551249999975,
      "v": 81
    },
    {
      "midi": 51,
      "hit": false,
      "t": 47198.241249999825,
      "d": 64.6551249999975,
      "v": 79
    },
    {
      "midi": 63,
      "hit": false,
      "t": 47198.241250000014,
      "d": 64.6551249999975,
      "v": 81
    },
    {
      "midi": 51,
      "hit": false,
      "t": 47327.55149999982,
      "d": 129.31025000000227,
      "v": 76
    },
    {
      "midi": 63,
      "hit": false,
      "t": 47327.55150000001,
      "d": 129.31025000000227,
      "v": 81
    },
    {
      "midi": 48,
      "hit": false,
      "t": 47586.171999999824,
      "d": 64.6551249999975,
      "v": 76
    },
    {
      "midi": 48,
      "hit": false,
      "t": 47715.48224999982,
      "d": 64.6551249999975,
      "v": 75
    },
    {
      "midi": 48,
      "hit": false,
      "t": 47844.792499999814,
      "d": 129.31025000000227,
      "v": 74
    },
    {
      "midi": 45,
      "hit": false,
      "t": 48103.41299999982,
      "d": 64.6551249999975,
      "v": 71
    },
    {
      "midi": 45,
      "hit": false,
      "t": 48232.72324999981,
      "d": 64.6551249999975,
      "v": 70
    },
    {
      "midi": 45,
      "hit": false,
      "t": 48362.03349999981,
      "d": 129.31025000000227,
      "v": 69
    },
    {
      "midi": 55,
      "hit": false,
      "t": 48620.65400000001,
      "d": 64.6551249999975,
      "v": 69
    },
    {
      "midi": 63,
      "hit": false,
      "t": 48620.65400000002,
      "d": 64.6551249999975,
      "v": 69
    },
    {
      "midi": 67,
      "hit": false,
      "t": 48620.65400000007,
      "d": 64.6551249999975,
      "v": 71
    },
    {
      "midi": 55,
      "hit": false,
      "t": 48749.964250000005,
      "d": 64.6551249999975,
      "v": 69
    },
    {
      "midi": 63,
      "hit": false,
      "t": 48749.96425000001,
      "d": 64.6551249999975,
      "v": 69
    },
    {
      "midi": 67,
      "hit": false,
      "t": 48749.96425000006,
      "d": 64.6551249999975,
      "v": 71
    },
    {
      "midi": 55,
      "hit": false,
      "t": 48879.2745,
      "d": 129.31025000000227,
      "v": 69
    },
    {
      "midi": 63,
      "hit": false,
      "t": 48879.27450000001,
      "d": 129.31025000000227,
      "v": 69
    },
    {
      "midi": 67,
      "hit": false,
      "t": 48879.27450000006,
      "d": 129.31025000000227,
      "v": 71
    },
    {
      "midi": 46,
      "hit": false,
      "t": 49137.89499999981,
      "d": 64.6551249999975,
      "v": 69
    },
    {
      "midi": 53,
      "hit": false,
      "t": 49137.895000000004,
      "d": 64.6551249999975,
      "v": 69
    },
    {
      "midi": 62,
      "hit": false,
      "t": 49137.89500000001,
      "d": 64.6551249999975,
      "v": 69
    },
    {
      "midi": 68,
      "hit": false,
      "t": 49137.89500000006,
      "d": 64.6551249999975,
      "v": 71
    },
    {
      "midi": 46,
      "hit": false,
      "t": 49267.2052499998,
      "d": 64.6551249999975,
      "v": 69
    },
    {
      "midi": 53,
      "hit": false,
      "t": 49267.20525,
      "d": 64.6551249999975,
      "v": 69
    },
    {
      "midi": 62,
      "hit": false,
      "t": 49267.205250000006,
      "d": 64.6551249999975,
      "v": 69
    },
    {
      "midi": 68,
      "hit": false,
      "t": 49267.20525000006,
      "d": 64.6551249999975,
      "v": 71
    },
    {
      "midi": 46,
      "hit": false,
      "t": 49396.5154999998,
      "d": 129.31025000000227,
      "v": 69
    },
    {
      "midi": 53,
      "hit": false,
      "t": 49396.515499999994,
      "d": 129.31025000000227,
      "v": 69
    },
    {
      "midi": 62,
      "hit": false,
      "t": 49396.5155,
      "d": 129.31025000000227,
      "v": 69
    },
    {
      "midi": 68,
      "hit": false,
      "t": 49396.51550000005,
      "d": 129.31025000000227,
      "v": 71
    },
    {
      "midi": 56,
      "hit": false,
      "t": 49655.136,
      "d": 64.6551249999975,
      "v": 69
    },
    {
      "midi": 62,
      "hit": false,
      "t": 49655.136000000006,
      "d": 64.6551249999975,
      "v": 69
    },
    {
      "midi": 65,
      "hit": false,
      "t": 49655.13600000006,
      "d": 64.6551249999975,
      "v": 71
    },
    {
      "midi": 56,
      "hit": false,
      "t": 49784.44624999999,
      "d": 64.6551249999975,
      "v": 69
    },
    {
      "midi": 62,
      "hit": false,
      "t": 49784.44625,
      "d": 64.6551249999975,
      "v": 69
    },
    {
      "midi": 65,
      "hit": false,
      "t": 49784.44625000005,
      "d": 64.6551249999975,
      "v": 71
    },
    {
      "midi": 56,
      "hit": false,
      "t": 49913.75649999999,
      "d": 129.31025000000227,
      "v": 69
    },
    {
      "midi": 62,
      "hit": false,
      "t": 49913.756499999996,
      "d": 129.31025000000227,
      "v": 69
    },
    {
      "midi": 65,
      "hit": false,
      "t": 49913.75650000005,
      "d": 129.31025000000227,
      "v": 71
    },
    {
      "midi": 47,
      "hit": false,
      "t": 50172.3769999998,
      "d": 64.6551249999975,
      "v": 69
    },
    {
      "midi": 53,
      "hit": false,
      "t": 50172.37699999999,
      "d": 64.6551249999975,
      "v": 69
    },
    {
      "midi": 56,
      "hit": false,
      "t": 50172.377,
      "d": 64.6551249999975,
      "v": 69
    },
    {
      "midi": 62,
      "hit": false,
      "t": 50172.37700000005,
      "d": 64.6551249999975,
      "v": 71
    },
    {
      "midi": 47,
      "hit": false,
      "t": 50301.68724999979,
      "d": 64.6551249999975,
      "v": 69
    },
    {
      "midi": 53,
      "hit": false,
      "t": 50301.68724999999,
      "d": 64.6551249999975,
      "v": 69
    },
    {
      "midi": 56,
      "hit": false,
      "t": 50301.687249999995,
      "d": 64.6551249999975,
      "v": 69
    },
    {
      "midi": 62,
      "hit": false,
      "t": 50301.687250000046,
      "d": 64.6551249999975,
      "v": 71
    },
    {
      "midi": 47,
      "hit": false,
      "t": 50430.99749999979,
      "d": 129.31025000000227,
      "v": 69
    },
    {
      "midi": 53,
      "hit": false,
      "t": 50430.99749999998,
      "d": 129.31025000000227,
      "v": 69
    },
    {
      "midi": 56,
      "hit": false,
      "t": 50430.99749999999,
      "d": 129.31025000000227,
      "v": 69
    },
    {
      "midi": 62,
      "hit": false,
      "t": 50430.99750000004,
      "d": 129.31025000000227,
      "v": 71
    },
    {
      "midi": 48,
      "hit": false,
      "t": 51206.858999999786,
      "d": 64.6551249999975,
      "v": 68
    },
    {
      "midi": 51,
      "hit": false,
      "t": 51206.85899999998,
      "d": 258.62049999999726,
      "v": 68
    },
    {
      "midi": 55,
      "hit": false,
      "t": 51206.85899999999,
      "d": 258.62049999999726,
      "v": 68
    },
    {
      "midi": 63,
      "hit": false,
      "t": 51206.85900000004,
      "d": 258.62049999999726,
      "v": 71
    },
    {
      "midi": 48,
      "hit": false,
      "t": 51336.16924999978,
      "d": 64.6551249999975,
      "v": 68
    },
    {
      "midi": 48,
      "hit": false,
      "t": 51465.479499999776,
      "d": 129.31025000000227,
      "v": 68
    },
    {
      "midi": 50,
      "hit": false,
      "t": 52241.340999999775,
      "d": 64.6551249999975,
      "v": 68
    },
    {
      "midi": 54,
      "hit": false,
      "t": 52241.34099999998,
      "d": 258.62049999999726,
      "v": 68
    },
    {
      "midi": 57,
      "hit": false,
      "t": 52241.340999999986,
      "d": 258.62049999999726,
      "v": 68
    },
    {
      "midi": 60,
      "hit": false,
      "t": 52241.34100000004,
      "d": 258.62049999999726,
      "v": 71
    },
    {
      "midi": 50,
      "hit": false,
      "t": 52370.65124999977,
      "d": 64.6551249999975,
      "v": 68
    },
    {
      "midi": 50,
      "hit": false,
      "t": 52499.961499999765,
      "d": 129.31025000000227,
      "v": 68
    },
    {
      "midi": 43,
      "hit": false,
      "t": 53275.822999999764,
      "d": 64.6551249999975,
      "v": 68
    },
    {
      "midi": 50,
      "hit": false,
      "t": 53275.822999999975,
      "d": 258.62049999999726,
      "v": 68
    },
    {
      "midi": 55,
      "hit": false,
      "t": 53275.82299999998,
      "d": 258.62049999999726,
      "v": 68
    },
    {
      "midi": 59,
      "hit": false,
      "t": 53275.82300000003,
      "d": 258.62049999999726,
      "v": 70
    },
    {
      "midi": 43,
      "hit": false,
      "t": 53405.13324999976,
      "d": 64.6551249999975,
      "v": 68
    },
    {
      "midi": 43,
      "hit": false,
      "t": 53534.443499999754,
      "d": 129.31025000000227,
      "v": 68
    },
    {
      "midi": 55,
      "hit": false,
      "t": 54568.92549999976,
      "d": 129.31025000000227,
      "v": 75
    },
    {
      "midi": 59,
      "hit": false,
      "t": 54568.92549999997,
      "d": 129.31025000000227,
      "v": 75
    },
    {
      "midi": 62,
      "hit": false,
      "t": 54568.92549999998,
      "d": 129.31025000000227,
      "v": 75
    },
    {
      "midi": 67,
      "hit": false,
      "t": 54568.92550000003,
      "d": 258.62049999999726,
      "v": 77
    },
    {
      "midi": 52,
      "hit": false,
      "t": 54827.54599999976,
      "d": 258.62049999999726,
      "v": 75
    },
    {
      "midi": 60,
      "hit": false,
      "t": 54827.54599999997,
      "d": 258.62049999999726,
      "v": 75
    },
    {
      "midi": 67,
      "hit": false,
      "t": 54827.54599999999,
      "d": 258.62049999999726,
      "v": 75
    },
    {
      "midi": 79,
      "hit": false,
      "t": 54827.546000000024,
      "d": 258.62049999999726,
      "v": 97
    },
    {
      "midi": 72,
      "hit": false,
      "t": 55086.16650000002,
      "d": 258.62049999999726,
      "v": 97
    },
    {
      "midi": 74,
      "hit": false,
      "t": 55344.78700000002,
      "d": 258.62049999999726,
      "v": 97
    },
    {
      "midi": 48,
      "hit": false,
      "t": 55603.40749999976,
      "d": 129.31025000000227,
      "v": 75
    },
    {
      "midi": 55,
      "hit": false,
      "t": 55603.40749999997,
      "d": 129.31025000000227,
      "v": 75
    },
    {
      "midi": 64,
      "hit": false,
      "t": 55603.40749999999,
      "d": 129.31025000000227,
      "v": 75
    },
    {
      "midi": 76,
      "hit": false,
      "t": 55603.407500000016,
      "d": 258.62049999999726,
      "v": 97
    },
    {
      "midi": 47,
      "hit": false,
      "t": 55862.027999999766,
      "d": 258.62049999999726,
      "v": 75
    },
    {
      "midi": 62,
      "hit": false,
      "t": 55862.02799999998,
      "d": 258.62049999999726,
      "v": 75
    },
    {
      "midi": 67,
      "hit": false,
      "t": 55862.02799999999,
      "d": 258.62049999999726,
      "v": 75
    },
    {
      "midi": 74,
      "hit": false,
      "t": 55862.02800000001,
      "d": 387.93074999999953,
      "v": 97
    },
    {
      "midi": 71,
      "hit": false,
      "t": 56249.95875000001,
      "d": 129.31025000000227,
      "v": 97
    },
    {
      "midi": 67,
      "hit": false,
      "t": 56379.269000000015,
      "d": 129.31025000000227,
      "v": 97
    },
    {
      "midi": 43,
      "hit": false,
      "t": 56637.889499999765,
      "d": 129.31025000000227,
      "v": 75
    },
    {
      "midi": 62,
      "hit": false,
      "t": 56637.889499999976,
      "d": 129.31025000000227,
      "v": 75
    },
    {
      "midi": 67,
      "hit": false,
      "t": 56637.88949999999,
      "d": 129.31025000000227,
      "v": 75
    },
    {
      "midi": 71,
      "hit": false,
      "t": 56637.88950000002,
      "d": 258.62049999999726,
      "v": 97
    },
    {
      "midi": 50,
      "hit": false,
      "t": 56896.50999999977,
      "d": 258.62049999999726,
      "v": 75
    },
    {
      "midi": 50,
      "hit": false,
      "t": 56896.50999999998,
      "d": 258.62049999999726,
      "v": 75
    },
    {
      "midi": 66,
      "hit": false,
      "t": 56896.509999999995,
      "d": 258.62049999999726,
      "v": 75
    },
    {
      "midi": 69,
      "hit": false,
      "t": 56896.51000000002,
      "d": 387.93074999999953,
      "v": 97
    },
    {
      "midi": 66,
      "hit": false,
      "t": 57284.440750000016,
      "d": 129.31025000000227,
      "v": 97
    },
    {
      "midi": 62,
      "hit": false,
      "t": 57413.75100000002,
      "d": 129.31025000000227,
      "v": 97
    },
    {
      "midi": 43,
      "hit": false,
      "t": 57672.37149999977,
      "d": 258.62049999999726,
      "v": 75
    },
    {
      "midi": 62,
      "hit": false,
      "t": 57672.37149999998,
      "d": 1034.4820000000036,
      "v": 75
    },
    {
      "midi": 67,
      "hit": false,
      "t": 57672.371499999994,
      "d": 258.62049999999726,
      "v": 75
    },
    {
      "midi": 71,
      "hit": false,
      "t": 57672.37150000002,
      "d": 258.62049999999726,
      "v": 97
    },
    {
      "midi": 50,
      "hit": false,
      "t": 57930.991999999766,
      "d": 693.9650083333327,
      "v": 75
    },
    {
      "midi": 65,
      "hit": false,
      "t": 57930.99199999999,
      "d": 693.9650083333327,
      "v": 75
    },
    {
      "midi": 69,
      "hit": false,
      "t": 57930.99200000002,
      "d": 693.9650083333327,
      "v": 97
    },
    {
      "midi": 55,
      "hit": false,
      "t": 58706.853499999765,
      "d": 129.31025000000227,
      "v": 75
    },
    {
      "midi": 59,
      "hit": false,
      "t": 58706.85349999998,
      "d": 129.31025000000227,
      "v": 75
    },
    {
      "midi": 62,
      "hit": false,
      "t": 58706.85349999999,
      "d": 129.31025000000227,
      "v": 75
    },
    {
      "midi": 67,
      "hit": false,
      "t": 58706.85350000002,
      "d": 258.62049999999726,
      "v": 97
    },
    {
      "midi": 52,
      "hit": false,
      "t": 58965.47399999977,
      "d": 258.62049999999726,
      "v": 75
    },
    {
      "midi": 60,
      "hit": false,
      "t": 58965.47399999999,
      "d": 258.62049999999726,
      "v": 75
    },
    {
      "midi": 67,
      "hit": false,
      "t": 58965.473999999995,
      "d": 258.62049999999726,
      "v": 75
    },
    {
      "midi": 79,
      "hit": false,
      "t": 58965.47400000002,
      "d": 258.62049999999726,
      "v": 97
    },
    {
      "midi": 72,
      "hit": false,
      "t": 59224.094500000014,
      "d": 258.62049999999726,
      "v": 97
    },
    {
      "midi": 74,
      "hit": false,
      "t": 59482.71500000001,
      "d": 258.62049999999726,
      "v": 97
    },
    {
      "midi": 48,
      "hit": false,
      "t": 59741.33549999977,
      "d": 129.31025000000227,
      "v": 75
    },
    {
      "midi": 55,
      "hit": false,
      "t": 59741.33549999999,
      "d": 129.31025000000227,
      "v": 75
    },
    {
      "midi": 64,
      "hit": false,
      "t": 59741.335499999994,
      "d": 129.31025000000227,
      "v": 75
    },
    {
      "midi": 76,
      "hit": false,
      "t": 59741.33550000001,
      "d": 258.62049999999726,
      "v": 97
    },
    {
      "midi": 47,
      "hit": false,
      "t": 59999.95599999977,
      "d": 258.62049999999726,
      "v": 75
    },
    {
      "midi": 62,
      "hit": false,
      "t": 59999.95599999999,
      "d": 258.62049999999726,
      "v": 75
    },
    {
      "midi": 67,
      "hit": false,
      "t": 59999.956,
      "d": 258.62049999999726,
      "v": 75
    },
    {
      "midi": 74,
      "hit": false,
      "t": 59999.956000000006,
      "d": 387.93074999999953,
      "v": 97
    },
    {
      "midi": 71,
      "hit": false,
      "t": 60387.886750000005,
      "d": 129.31025000000227,
      "v": 97
    },
    {
      "midi": 67,
      "hit": false,
      "t": 60517.19700000001,
      "d": 258.62049999999726,
      "v": 97
    },
    {
      "midi": 43,
      "hit": false,
      "t": 60775.81749999977,
      "d": 129.31025000000227,
      "v": 75
    },
    {
      "midi": 62,
      "hit": false,
      "t": 60775.81749999999,
      "d": 129.31025000000227,
      "v": 75
    },
    {
      "midi": 67,
      "hit": false,
      "t": 60775.8175,
      "d": 129.31025000000227,
      "v": 75
    },
    {
      "midi": 71,
      "hit": false,
      "t": 60775.817500000005,
      "d": 258.62049999999726,
      "v": 97
    },
    {
      "midi": 45,
      "hit": false,
      "t": 61034.43799999978,
      "d": 258.62049999999726,
      "v": 75
    },
    {
      "midi": 61,
      "hit": false,
      "t": 61034.437999999995,
      "d": 258.62049999999726,
      "v": 75
    },
    {
      "midi": 64,
      "hit": false,
      "t": 61034.438,
      "d": 258.62049999999726,
      "v": 75
    },
    {
      "midi": 69,
      "hit": false,
      "t": 61034.438,
      "d": 258.62049999999726,
      "v": 97
    },
    {
      "midi": 73,
      "hit": false,
      "t": 61293.0585,
      "d": 258.62049999999726,
      "v": 97
    },
    {
      "midi": 76,
      "hit": false,
      "t": 61551.679,
      "d": 258.62049999999726,
      "v": 97
    },
    {
      "midi": 57,
      "hit": false,
      "t": 61810.299499999775,
      "d": 129.31025000000227,
      "v": 75
    },
    {
      "midi": 57,
      "hit": false,
      "t": 61810.299499999994,
      "d": 129.31025000000227,
      "v": 75
    },
    {
      "midi": 81,
      "hit": false,
      "t": 61810.299499999994,
      "d": 242.4567187499997,
      "v": 97
    },
    {
      "midi": 61,
      "hit": false,
      "t": 61810.2995,
      "d": 129.31025000000227,
      "v": 75
    },
    {
      "midi": 50,
      "hit": false,
      "t": 62068.91999999978,
      "d": 258.62049999999726,
      "v": 75
    },
    {
      "midi": 81,
      "hit": false,
      "t": 62068.91999999999,
      "d": 691.8098374999972,
      "v": 97
    },
    {
      "midi": 66,
      "hit": false,
      "t": 62068.92,
      "d": 258.62049999999726,
      "v": 75
    },
    {
      "midi": 69,
      "hit": false,
      "t": 62068.920000000006,
      "d": 258.62049999999726,
      "v": 75
    },
    {
      "midi": 45,
      "hit": false,
      "t": 62844.78149999978,
      "d": 129.31025000000227,
      "v": 75
    },
    {
      "midi": 72,
      "hit": false,
      "t": 62844.78149999999,
      "d": 258.62049999999726,
      "v": 97
    },
    {
      "midi": 64,
      "hit": false,
      "t": 62844.7815,
      "d": 129.31025000000227,
      "v": 75
    },
    {
      "midi": 72,
      "hit": false,
      "t": 62844.781500000005,
      "d": 129.31025000000227,
      "v": 75
    },
    {
      "midi": 47,
      "hit": false,
      "t": 63103.40199999978,
      "d": 258.62049999999726,
      "v": 75
    },
    {
      "midi": 71,
      "hit": false,
      "t": 63103.40199999999,
      "d": 258.62049999999726,
      "v": 97
    },
    {
      "midi": 63,
      "hit": false,
      "t": 63103.402,
      "d": 258.62049999999726,
      "v": 75
    },
    {
      "midi": 66,
      "hit": false,
      "t": 63103.40200000001,
      "d": 258.62049999999726,
      "v": 75
    },
    {
      "midi": 75,
      "hit": false,
      "t": 63362.022499999985,
      "d": 258.62049999999726,
      "v": 97
    },
    {
      "midi": 78,
      "hit": false,
      "t": 63620.64299999998,
      "d": 258.62049999999726,
      "v": 97
    },
    {
      "midi": 59,
      "hit": false,
      "t": 63879.26349999978,
      "d": 129.31025000000227,
      "v": 75
    },
    {
      "midi": 83,
      "hit": false,
      "t": 63879.26349999998,
      "d": 242.4567187499997,
      "v": 97
    },
    {
      "midi": 59,
      "hit": false,
      "t": 63879.2635,
      "d": 129.31025000000227,
      "v": 75
    },
    {
      "midi": 63,
      "hit": false,
      "t": 63879.26350000001,
      "d": 129.31025000000227,
      "v": 75
    },
    {
      "midi": 52,
      "hit": false,
      "t": 64137.88399999979,
      "d": 258.62049999999726,
      "v": 75
    },
    {
      "midi": 83,
      "hit": false,
      "t": 64137.88399999998,
      "d": 971.9820458333343,
      "v": 96
    },
    {
      "midi": 67,
      "hit": false,
      "t": 64137.884000000005,
      "d": 1034.4820000000036,
      "v": 75
    },
    {
      "midi": 71,
      "hit": false,
      "t": 64137.88400000001,
      "d": 1034.4819999999963,
      "v": 75
    },
    {
      "midi": 43,
      "hit": false,
      "t": 65172.36599999978,
      "d": 258.62049999999726,
      "v": 75
    },
    {
      "midi": 84,
      "hit": false,
      "t": 65172.36599999998,
      "d": 64.6551249999975,
      "v": 77
    },
    {
      "midi": 74,
      "hit": false,
      "t": 65172.36600000001,
      "d": 517.2409999999945,
      "v": 75
    },
    {
      "midi": 65,
      "hit": false,
      "t": 65172.36600000001,
      "d": 517.2409999999945,
      "v": 75
    },
    {
      "midi": 83,
      "hit": false,
      "t": 65237.02112499998,
      "d": 64.6551249999975,
      "v": 77
    },
    {
      "midi": 84,
      "hit": false,
      "t": 65301.676249999975,
      "d": 64.6551249999975,
      "v": 76
    },
    {
      "midi": 83,
      "hit": false,
      "t": 65366.33137499997,
      "d": 64.6551249999975,
      "v": 76
    },
    {
      "midi": 84,
      "hit": false,
      "t": 65430.98649999997,
      "d": 64.6551249999975,
      "v": 76
    },
    {
      "midi": 83,
      "hit": false,
      "t": 65495.64162499997,
      "d": 64.6551249999975,
      "v": 75
    },
    {
      "midi": 84,
      "hit": false,
      "t": 65560.29674999996,
      "d": 64.65512500000477,
      "v": 75
    },
    {
      "midi": 83,
      "hit": false,
      "t": 65624.95187499997,
      "d": 64.65512500000477,
      "v": 74
    },
    {
      "midi": 84,
      "hit": false,
      "t": 65689.60699999997,
      "d": 64.65512500000477,
      "v": 74
    },
    {
      "midi": 83,
      "hit": false,
      "t": 65754.26212499998,
      "d": 64.65512500000477,
      "v": 73
    },
    {
      "midi": 84,
      "hit": false,
      "t": 65818.91724999998,
      "d": 64.65512500000477,
      "v": 73
    },
    {
      "midi": 83,
      "hit": false,
      "t": 65883.57237499999,
      "d": 64.65512500000477,
      "v": 73
    },
    {
      "midi": 55,
      "hit": false,
      "t": 65948.22749999978,
      "d": 258.62050000000454,
      "v": 70
    },
    {
      "midi": 84,
      "hit": false,
      "t": 65948.2275,
      "d": 64.65512500000477,
      "v": 72
    },
    {
      "midi": 71,
      "hit": false,
      "t": 65948.22750000001,
      "d": 258.62050000000454,
      "v": 70
    },
    {
      "midi": 62,
      "hit": false,
      "t": 65948.22750000001,
      "d": 258.62050000000454,
      "v": 70
    },
    {
      "midi": 83,
      "hit": false,
      "t": 66012.882625,
      "d": 64.65512500000477,
      "v": 72
    },
    {
      "midi": 81,
      "hit": false,
      "t": 66077.53775,
      "d": 64.65512500000477,
      "v": 71
    },
    {
      "midi": 83,
      "hit": false,
      "t": 66142.19287500001,
      "d": 64.65512500000477,
      "v": 71
    },
    {
      "midi": 52,
      "hit": false,
      "t": 66206.84799999978,
      "d": 517.2409999999945,
      "v": 69
    },
    {
      "midi": 72,
      "hit": false,
      "t": 66206.84800000001,
      "d": 517.2409999999945,
      "v": 69
    },
    {
      "midi": 67,
      "hit": false,
      "t": 66206.84800000001,
      "d": 517.2409999999945,
      "v": 69
    },
    {
      "midi": 79,
      "hit": false,
      "t": 66206.84800000001,
      "d": 258.62050000000454,
      "v": 71
    },
    {
      "midi": 48,
      "hit": false,
      "t": 66982.70949999978,
      "d": 258.62050000000454,
      "v": 69
    },
    {
      "midi": 64,
      "hit": false,
      "t": 66982.70950000001,
      "d": 258.62050000000454,
      "v": 69
    },
    {
      "midi": 67,
      "hit": false,
      "t": 66982.70950000001,
      "d": 258.62050000000454,
      "v": 69
    },
    {
      "midi": 72,
      "hit": false,
      "t": 66982.70950000001,
      "d": 258.62050000000454,
      "v": 71
    },
    {
      "midi": 47,
      "hit": false,
      "t": 67241.32999999978,
      "d": 517.2409999999945,
      "v": 69
    },
    {
      "midi": 67,
      "hit": false,
      "t": 67241.33000000002,
      "d": 517.2409999999945,
      "v": 69
    },
    {
      "midi": 62,
      "hit": false,
      "t": 67241.33000000002,
      "d": 517.2409999999945,
      "v": 69
    },
    {
      "midi": 74,
      "hit": false,
      "t": 67241.33000000002,
      "d": 517.2409999999945,
      "v": 71
    },
    {
      "midi": 43,
      "hit": false,
      "t": 68017.19149999978,
      "d": 258.62050000000454,
      "v": 69
    },
    {
      "midi": 67,
      "hit": false,
      "t": 68017.19150000002,
      "d": 258.62050000000454,
      "v": 69
    },
    {
      "midi": 62,
      "hit": false,
      "t": 68017.19150000002,
      "d": 258.62050000000454,
      "v": 69
    },
    {
      "midi": 71,
      "hit": false,
      "t": 68017.19150000002,
      "d": 258.62050000000454,
      "v": 71
    },
    {
      "midi": 50,
      "hit": false,
      "t": 68275.81199999979,
      "d": 517.2409999999945,
      "v": 69
    },
    {
      "midi": 66,
      "hit": false,
      "t": 68275.81200000002,
      "d": 517.2409999999945,
      "v": 69
    },
    {
      "midi": 62,
      "hit": false,
      "t": 68275.81200000002,
      "d": 517.2409999999945,
      "v": 69
    },
    {
      "midi": 69,
      "hit": false,
      "t": 68275.81200000002,
      "d": 517.2409999999945,
      "v": 71
    },
    {
      "midi": 50,
      "hit": false,
      "t": 68961.15632499979,
      "d": 176.72400833333086,
      "v": 69
    },
    {
      "midi": 62,
      "hit": false,
      "t": 68961.15632500002,
      "d": 176.72400833333086,
      "v": 69
    },
    {
      "midi": 67,
      "hit": false,
      "t": 69051.67350000002,
      "d": 258.62050000000454,
      "v": 69
    },
    {
      "midi": 71,
      "hit": false,
      "t": 69051.67350000002,
      "d": 258.62050000000454,
      "v": 71
    },
    {
      "midi": 52,
      "hit": false,
      "t": 69137.88033333312,
      "d": 172.41366666666,
      "v": 69
    },
    {
      "midi": 64,
      "hit": false,
      "t": 69137.88033333335,
      "d": 172.41366666666,
      "v": 69
    },
    {
      "midi": 53,
      "hit": false,
      "t": 69310.29399999978,
      "d": 168.10332500000368,
      "v": 69
    },
    {
      "midi": 65,
      "hit": false,
      "t": 69310.29400000001,
      "d": 168.10332500000368,
      "v": 70
    },
    {
      "midi": 65,
      "hit": false,
      "t": 69310.29400000002,
      "d": 517.2409999999945,
      "v": 69
    },
    {
      "midi": 69,
      "hit": false,
      "t": 69310.29400000002,
      "d": 517.2409999999945,
      "v": 71
    },
    {
      "midi": 55,
      "hit": false,
      "t": 69478.39732499978,
      "d": 176.72400833333086,
      "v": 71
    },
    {
      "midi": 67,
      "hit": false,
      "t": 69478.39732500001,
      "d": 176.72400833333086,
      "v": 71
    },
    {
      "midi": 57,
      "hit": false,
      "t": 69655.12133333311,
      "d": 172.41366666666,
      "v": 72
    },
    {
      "midi": 69,
      "hit": false,
      "t": 69655.12133333334,
      "d": 172.41366666666,
      "v": 72
    },
    {
      "midi": 59,
      "hit": false,
      "t": 69827.53499999977,
      "d": 168.10332500000368,
      "v": 73
    },
    {
      "midi": 71,
      "hit": false,
      "t": 69827.535,
      "d": 168.10332500000368,
      "v": 73
    },
    {
      "midi": 57,
      "hit": false,
      "t": 69995.63832499977,
      "d": 176.72400833333086,
      "v": 72
    },
    {
      "midi": 69,
      "hit": false,
      "t": 69995.638325,
      "d": 176.72400833333086,
      "v": 71
    },
    {
      "midi": 62,
      "hit": false,
      "t": 70086.15550000002,
      "d": 258.62050000000454,
      "v": 69
    },
    {
      "midi": 71,
      "hit": false,
      "t": 70086.15550000002,
      "d": 258.62050000000454,
      "v": 71
    },
    {
      "midi": 55,
      "hit": false,
      "t": 70172.3623333331,
      "d": 172.41366666666,
      "v": 70
    },
    {
      "midi": 67,
      "hit": false,
      "t": 70172.36233333334,
      "d": 172.41366666666,
      "v": 69
    },
    {
      "midi": 67,
      "hit": false,
      "t": 70344.77600000003,
      "d": 517.2409999999945,
      "v": 69
    },
    {
      "midi": 72,
      "hit": false,
      "t": 70344.77600000003,
      "d": 517.2409999999945,
      "v": 71
    },
    {
      "midi": 48,
      "hit": false,
      "t": 71120.63749999976,
      "d": 258.62050000000454,
      "v": 69
    },
    {
      "midi": 64,
      "hit": false,
      "t": 71120.63750000003,
      "d": 258.62050000000454,
      "v": 69
    },
    {
      "midi": 67,
      "hit": false,
      "t": 71120.63750000003,
      "d": 258.62050000000454,
      "v": 71
    },
    {
      "midi": 47,
      "hit": false,
      "t": 71379.25799999977,
      "d": 517.2409999999945,
      "v": 69
    },
    {
      "midi": 62,
      "hit": false,
      "t": 71379.25800000003,
      "d": 517.2409999999945,
      "v": 69
    },
    {
      "midi": 67,
      "hit": false,
      "t": 71379.25800000003,
      "d": 517.2409999999945,
      "v": 71
    },
    {
      "midi": 43,
      "hit": false,
      "t": 72155.11949999977,
      "d": 258.62050000000454,
      "v": 69
    },
    {
      "midi": 62,
      "hit": false,
      "t": 72155.11950000003,
      "d": 258.62050000000454,
      "v": 69
    },
    {
      "midi": 71,
      "hit": false,
      "t": 72155.11950000003,
      "d": 258.62050000000454,
      "v": 71
    },
    {
      "midi": 45,
      "hit": false,
      "t": 72413.73999999977,
      "d": 517.2409999999945,
      "v": 69
    },
    {
      "midi": 61,
      "hit": false,
      "t": 72413.74000000003,
      "d": 517.2409999999945,
      "v": 69
    },
    {
      "midi": 64,
      "hit": false,
      "t": 72413.74000000003,
      "d": 517.2409999999945,
      "v": 71
    },
    {
      "midi": 57,
      "hit": false,
      "t": 72930.98099999977,
      "d": 517.2409999999945,
      "v": 69
    },
    {
      "midi": 69,
      "hit": false,
      "t": 73099.084325,
      "d": 176.72400833333086,
      "v": 71
    },
    {
      "midi": 61,
      "hit": false,
      "t": 73189.60150000003,
      "d": 258.62050000000454,
      "v": 69
    },
    {
      "midi": 69,
      "hit": false,
      "t": 73189.60150000003,
      "d": 249.9998166666628,
      "v": 71
    },
    {
      "midi": 67,
      "hit": false,
      "t": 73275.80833333333,
      "d": 172.41366666666,
      "v": 71
    },
    {
      "midi": 50,
      "hit": false,
      "t": 73448.22199999976,
      "d": 517.2409999999945,
      "v": 69
    },
    {
      "midi": 66,
      "hit": false,
      "t": 73448.222,
      "d": 168.10332500000368,
      "v": 71
    },
    {
      "midi": 69,
      "hit": false,
      "t": 73448.22200000002,
      "d": 506.4651458333392,
      "v": 71
    },
    {
      "midi": 66,
      "hit": false,
      "t": 73448.22200000004,
      "d": 517.2409999999945,
      "v": 69
    },
    {
      "midi": 64,
      "hit": false,
      "t": 73616.325325,
      "d": 176.72400833333086,
      "v": 71
    },
    {
      "midi": 62,
      "hit": false,
      "t": 73793.04933333333,
      "d": 172.41366666666,
      "v": 71
    },
    {
      "midi": 60,
      "hit": false,
      "t": 73965.46299999999,
      "d": 168.10332500000368,
      "v": 70
    },
    {
      "midi": 59,
      "hit": false,
      "t": 74133.56632499999,
      "d": 176.72400833333086,
      "v": 70
    },
    {
      "midi": 69,
      "hit": false,
      "t": 74224.08350000002,
      "d": 258.62050000000454,
      "v": 71
    },
    {
      "midi": 60,
      "hit": false,
      "t": 74224.08350000004,
      "d": 258.62050000000454,
      "v": 69
    },
    {
      "midi": 57,
      "hit": false,
      "t": 74310.29033333332,
      "d": 172.41366666666,
      "v": 70
    },
    {
      "midi": 43,
      "hit": false,
      "t": 74482.70399999975,
      "d": 517.2409999999945,
      "v": 69
    },
    {
      "midi": 62,
      "hit": false,
      "t": 74482.70400000003,
      "d": 517.2409999999945,
      "v": 71
    },
    {
      "midi": 59,
      "hit": false,
      "t": 74482.70400000004,
      "d": 517.2409999999945,
      "v": 69
    },
    {
      "midi": 55,
      "hit": false,
      "t": 74999.94499999975,
      "d": 517.2409999999945,
      "v": 69
    },
    {
      "midi": 67,
      "hit": false,
      "t": 75168.04832499998,
      "d": 176.72400833333086,
      "v": 70
    },
    {
      "midi": 67,
      "hit": false,
      "t": 75258.56550000003,
      "d": 255.38774375000503,
      "v": 71
    },
    {
      "midi": 59,
      "hit": false,
      "t": 75258.56550000004,
      "d": 258.62050000000454,
      "v": 69
    },
    {
      "midi": 65,
      "hit": false,
      "t": 75344.77233333331,
      "d": 172.41366666666,
      "v": 70
    },
    {
      "midi": 48,
      "hit": false,
      "t": 75517.18599999974,
      "d": 517.2409999999945,
      "v": 69
    },
    {
      "midi": 64,
      "hit": false,
      "t": 75517.18599999997,
      "d": 168.10332500000368,
      "v": 70
    },
    {
      "midi": 67,
      "hit": false,
      "t": 75517.18600000003,
      "d": 511.85307291666686,
      "v": 71
    },
    {
      "midi": 64,
      "hit": false,
      "t": 75517.18600000005,
      "d": 517.2409999999945,
      "v": 69
    },
    {
      "midi": 62,
      "hit": false,
      "t": 75685.28932499998,
      "d": 176.72400833333086,
      "v": 69
    },
    {
      "midi": 60,
      "hit": false,
      "t": 75862.0133333333,
      "d": 172.41366666666,
      "v": 69
    },
    {
      "midi": 59,
      "hit": false,
      "t": 76034.42699999997,
      "d": 168.10332500000368,
      "v": 69
    },
    {
      "midi": 57,
      "hit": false,
      "t": 76202.53032499997,
      "d": 176.72400833333086,
      "v": 69
    },
    {
      "midi": 55,
      "hit": false,
      "t": 76293.04749999974,
      "d": 258.62050000000454,
      "v": 68
    },
    {
      "midi": 62,
      "hit": false,
      "t": 76293.04750000003,
      "d": 258.62050000000454,
      "v": 71
    },
    {
      "midi": 59,
      "hit": false,
      "t": 76293.04750000004,
      "d": 258.62050000000454,
      "v": 68
    },
    {
      "midi": 55,
      "hit": false,
      "t": 76379.2543333333,
      "d": 172.41366666666,
      "v": 69
    },
    {
      "midi": 48,
      "hit": false,
      "t": 76551.66799999974,
      "d": 517.2409999999945,
      "v": 68
    },
    {
      "midi": 64,
      "hit": false,
      "t": 76551.66799999996,
      "d": 168.10332500000368,
      "v": 69
    },
    {
      "midi": 67,
      "hit": false,
      "t": 76551.66800000003,
      "d": 517.2409999999945,
      "v": 71
    },
    {
      "midi": 64,
      "hit": false,
      "t": 76551.66800000005,
      "d": 517.2409999999945,
      "v": 68
    },
    {
      "midi": 62,
      "hit": false,
      "t": 76719.77132499997,
      "d": 176.72400833333086,
      "v": 69
    },
    {
      "midi": 60,
      "hit": false,
      "t": 76896.4953333333,
      "d": 172.41366666666,
      "v": 69
    },
    {
      "midi": 59,
      "hit": false,
      "t": 77068.90899999996,
      "d": 168.10332500000368,
      "v": 69
    },
    {
      "midi": 57,
      "hit": false,
      "t": 77237.01232499996,
      "d": 176.72400833333086,
      "v": 69
    },
    {
      "midi": 55,
      "hit": false,
      "t": 77327.52949999974,
      "d": 258.62050000000454,
      "v": 68
    },
    {
      "midi": 62,
      "hit": false,
      "t": 77327.52950000003,
      "d": 258.62050000000454,
      "v": 71
    },
    {
      "midi": 59,
      "hit": false,
      "t": 77327.52950000005,
      "d": 258.62050000000454,
      "v": 68
    },
    {
      "midi": 55,
      "hit": false,
      "t": 77413.73633333329,
      "d": 172.41366666666,
      "v": 68
    },
    {
      "midi": 48,
      "hit": false,
      "t": 77586.14999999975,
      "d": 517.2409999999945,
      "v": 68
    },
    {
      "midi": 64,
      "hit": false,
      "t": 77586.14999999995,
      "d": 168.10332500000368,
      "v": 68
    },
    {
      "midi": 67,
      "hit": false,
      "t": 77586.15000000004,
      "d": 517.2409999999945,
      "v": 71
    },
    {
      "midi": 64,
      "hit": false,
      "t": 77586.15000000005,
      "d": 517.2409999999945,
      "v": 68
    },
    {
      "midi": 62,
      "hit": false,
      "t": 77754.25332499995,
      "d": 176.72400833333086,
      "v": 68
    },
    {
      "midi": 60,
      "hit": false,
      "t": 77930.97733333329,
      "d": 172.41366666666,
      "v": 68
    },
    {
      "midi": 59,
      "hit": false,
      "t": 78103.39099999995,
      "d": 168.10332500000368,
      "v": 68
    },
    {
      "midi": 57,
      "hit": false,
      "t": 78271.49432499995,
      "d": 176.72400833333086,
      "v": 68
    },
    {
      "midi": 55,
      "hit": false,
      "t": 78362.01149999975,
      "d": 258.62050000000454,
      "v": 68
    },
    {
      "midi": 62,
      "hit": false,
      "t": 78362.01150000004,
      "d": 258.62050000000454,
      "v": 71
    },
    {
      "midi": 59,
      "hit": false,
      "t": 78362.01150000005,
      "d": 258.62050000000454,
      "v": 68
    },
    {
      "midi": 55,
      "hit": false,
      "t": 78448.21833333328,
      "d": 172.41366666666,
      "v": 68
    },
    {
      "midi": 48,
      "hit": false,
      "t": 78620.63199999975,
      "d": 517.2409999999945,
      "v": 68
    },
    {
      "midi": 64,
      "hit": false,
      "t": 78620.63199999994,
      "d": 168.10332500000368,
      "v": 68
    },
    {
      "midi": 67,
      "hit": false,
      "t": 78620.63200000004,
      "d": 517.2409999999945,
      "v": 70
    },
    {
      "midi": 64,
      "hit": false,
      "t": 78620.63200000006,
      "d": 517.2409999999945,
      "v": 68
    },
    {
      "midi": 62,
      "hit": false,
      "t": 78788.73532499994,
      "d": 176.72400833333086,
      "v": 68
    },
    {
      "midi": 60,
      "hit": false,
      "t": 78965.45933333327,
      "d": 172.41366666666,
      "v": 68
    },
    {
      "midi": 64,
      "hit": false,
      "t": 79137.87299999993,
      "d": 168.10332500000368,
      "v": 67
    },
    {
      "midi": 62,
      "hit": false,
      "t": 79305.97632499994,
      "d": 176.72400833333086,
      "v": 67
    },
    {
      "midi": 60,
      "hit": false,
      "t": 79482.70033333327,
      "d": 172.41366666666,
      "v": 67
    },
    {
      "midi": 64,
      "hit": false,
      "t": 79655.11399999993,
      "d": 168.10332500000368,
      "v": 67
    },
    {
      "midi": 62,
      "hit": false,
      "t": 79823.21732499993,
      "d": 176.72400833333086,
      "v": 67
    },
    {
      "midi": 60,
      "hit": false,
      "t": 79999.94133333326,
      "d": 172.41366666666,
      "v": 67
    },
    {
      "midi": 53,
      "hit": false,
      "t": 80172.35499999975,
      "d": 517.2409999999945,
      "v": 68
    },
    {
      "midi": 59,
      "hit": false,
      "t": 80172.35499999992,
      "d": 168.10332500000368,
      "v": 67
    },
    {
      "midi": 67,
      "hit": false,
      "t": 80172.35500000004,
      "d": 517.2409999999945,
      "v": 70
    },
    {
      "midi": 67,
      "hit": false,
      "t": 80172.35500000005,
      "d": 517.2409999999945,
      "v": 68
    },
    {
      "midi": 57,
      "hit": false,
      "t": 80340.45832499993,
      "d": 176.72400833333086,
      "v": 67
    },
    {
      "midi": 55,
      "hit": false,
      "t": 80517.18233333326,
      "d": 172.41366666666,
      "v": 67
    },
    {
      "midi": 52,
      "hit": false,
      "t": 80689.59599999974,
      "d": 517.2409999999945,
      "v": 68
    },
    {
      "midi": 55,
      "hit": false,
      "t": 80689.59599999992,
      "d": 517.2409999999945,
      "v": 67
    },
    {
      "midi": 79,
      "hit": false,
      "t": 80689.59600000003,
      "d": 517.2409999999945,
      "v": 70
    },
    {
      "midi": 60,
      "hit": false,
      "t": 80689.59600000005,
      "d": 517.2409999999945,
      "v": 68
    },
    {
      "midi": 51,
      "hit": false,
      "t": 81206.83699999974,
      "d": 517.2409999999945,
      "v": 68
    },
    {
      "midi": 67,
      "hit": false,
      "t": 81206.83699999991,
      "d": 1034.4820000000036,
      "v": 68
    },
    {
      "midi": 73,
      "hit": false,
      "t": 81206.83700000003,
      "d": 517.2409999999945,
      "v": 70
    },
    {
      "midi": 58,
      "hit": false,
      "t": 81206.83700000004,
      "d": 517.2409999999945,
      "v": 68
    },
    {
      "midi": 50,
      "hit": false,
      "t": 81724.07799999973,
      "d": 517.2409999999945,
      "v": 67
    },
    {
      "midi": 74,
      "hit": false,
      "t": 81724.07800000002,
      "d": 517.2409999999945,
      "v": 70
    },
    {
      "midi": 59,
      "hit": false,
      "t": 81724.07800000004,
      "d": 517.2409999999945,
      "v": 67
    },
    {
      "midi": 49,
      "hit": false,
      "t": 82241.31899999973,
      "d": 517.2409999999945,
      "v": 67
    },
    {
      "midi": 59,
      "hit": false,
      "t": 82241.31899999992,
      "d": 517.2409999999945,
      "v": 67
    },
    {
      "midi": 68,
      "hit": false,
      "t": 82241.31900000002,
      "d": 517.2409999999945,
      "v": 70
    },
    {
      "midi": 65,
      "hit": false,
      "t": 82241.31900000003,
      "d": 517.2409999999945,
      "v": 67
    },
    {
      "midi": 48,
      "hit": false,
      "t": 82758.55999999972,
      "d": 258.62050000000454,
      "v": 67
    },
    {
      "midi": 60,
      "hit": false,
      "t": 82758.55999999991,
      "d": 258.62050000000454,
      "v": 67
    },
    {
      "midi": 76,
      "hit": false,
      "t": 82758.56000000001,
      "d": 258.62050000000454,
      "v": 70
    },
    {
      "midi": 64,
      "hit": false,
      "t": 82758.56000000003,
      "d": 258.62050000000454,
      "v": 67
    },
    {
      "midi": 69,
      "hit": false,
      "t": 82758.56000000003,
      "d": 258.62050000000454,
      "v": 67
    },
    {
      "midi": 50,
      "hit": false,
      "t": 83793.04199999972,
      "d": 258.62050000000454,
      "v": 67
    },
    {
      "midi": 57,
      "hit": false,
      "t": 83793.04199999991,
      "d": 258.62050000000454,
      "v": 67
    },
    {
      "midi": 66,
      "hit": false,
      "t": 83793.04200000002,
      "d": 258.62050000000454,
      "v": 70
    },
    {
      "midi": 60,
      "hit": false,
      "t": 83793.04200000003,
      "d": 258.62050000000454,
      "v": 67
    },
    {
      "midi": 43,
      "hit": false,
      "t": 84827.52399999973,
      "d": 517.2409999999945,
      "v": 84
    },
    {
      "midi": 50,
      "hit": false,
      "t": 84827.52399999992,
      "d": 517.2409999999945,
      "v": 84
    },
    {
      "midi": 62,
      "hit": false,
      "t": 84827.52400000002,
      "d": 517.2409999999945,
      "v": 86
    },
    {
      "midi": 59,
      "hit": false,
      "t": 84827.52400000003,
      "d": 517.2409999999945,
      "v": 84
    },
    {
      "midi": 55,
      "hit": false,
      "t": 85344.76499999991,
      "d": 1034.4820000000036,
      "v": 84
    },
    {
      "midi": 63,
      "hit": false,
      "t": 85344.76500000001,
      "d": 517.2409999999945,
      "v": 86
    },
    {
      "midi": 58,
      "hit": false,
      "t": 85344.76500000003,
      "d": 517.2409999999945,
      "v": 84
    },
    {
      "midi": 62,
      "hit": false,
      "t": 85862.00600000001,
      "d": 517.2409999999945,
      "v": 86
    },
    {
      "midi": 59,
      "hit": false,
      "t": 85862.00600000002,
      "d": 517.2409999999945,
      "v": 84
    },
    {
      "midi": 51,
      "hit": false,
      "t": 86379.24699999992,
      "d": 517.2409999999945,
      "v": 84
    },
    {
      "midi": 61,
      "hit": false,
      "t": 86379.247,
      "d": 517.2409999999945,
      "v": 86
    },
    {
      "midi": 58,
      "hit": false,
      "t": 86379.24700000002,
      "d": 517.2409999999945,
      "v": 84
    },
    {
      "midi": 43,
      "hit": false,
      "t": 86896.48799999972,
      "d": 517.2409999999945,
      "v": 84
    },
    {
      "midi": 50,
      "hit": false,
      "t": 86896.48799999991,
      "d": 517.2409999999945,
      "v": 84
    },
    {
      "midi": 62,
      "hit": false,
      "t": 86896.488,
      "d": 517.2409999999945,
      "v": 86
    },
    {
      "midi": 59,
      "hit": false,
      "t": 86896.48800000001,
      "d": 517.2409999999945,
      "v": 84
    },
    {
      "midi": 55,
      "hit": false,
      "t": 87413.7289999999,
      "d": 1034.4820000000036,
      "v": 84
    },
    {
      "midi": 63,
      "hit": false,
      "t": 87413.72899999999,
      "d": 517.2409999999945,
      "v": 86
    },
    {
      "midi": 58,
      "hit": false,
      "t": 87413.729,
      "d": 517.2409999999945,
      "v": 84
    },
    {
      "midi": 62,
      "hit": false,
      "t": 87930.96999999999,
      "d": 517.2409999999945,
      "v": 86
    },
    {
      "midi": 59,
      "hit": false,
      "t": 87930.97,
      "d": 517.2409999999945,
      "v": 84
    },
    {
      "midi": 43,
      "hit": false,
      "t": 88448.21099999972,
      "d": 517.2409999999945,
      "v": 84
    },
    {
      "midi": 51,
      "hit": false,
      "t": 88448.21099999991,
      "d": 517.2409999999945,
      "v": 84
    },
    {
      "midi": 61,
      "hit": false,
      "t": 88448.21099999998,
      "d": 517.2409999999945,
      "v": 86
    },
    {
      "midi": 58,
      "hit": false,
      "t": 88448.211,
      "d": 517.2409999999945,
      "v": 84
    },
    {
      "midi": 55,
      "hit": false,
      "t": 88965.45199999971,
      "d": 1034.4820000000036,
      "v": 84
    },
    {
      "midi": 50,
      "hit": false,
      "t": 88965.4519999999,
      "d": 1034.4820000000036,
      "v": 84
    },
    {
      "midi": 62,
      "hit": false,
      "t": 88965.45199999998,
      "d": 1034.4820000000036,
      "v": 86
    },
    {
      "midi": 59,
      "hit": false,
      "t": 88965.45199999999,
      "d": 1034.4820000000036,
      "v": 84
    },
    {
      "midi": 49,
      "hit": false,
      "t": 89999.93399999972,
      "d": 1034.4820000000036,
      "v": 84
    },
    {
      "midi": 58,
      "hit": false,
      "t": 89999.9339999999,
      "d": 1034.4820000000036,
      "v": 84
    },
    {
      "midi": 64,
      "hit": false,
      "t": 89999.93399999998,
      "d": 1034.4820000000036,
      "v": 86
    },
    {
      "midi": 58,
      "hit": false,
      "t": 89999.934,
      "d": 1034.4820000000036,
      "v": 84
    },
    {
      "midi": 50,
      "hit": false,
      "t": 91034.41599999972,
      "d": 1034.4820000000036,
      "v": 84
    },
    {
      "midi": 62,
      "hit": false,
      "t": 91034.41599999991,
      "d": 1014.0078770833352,
      "v": 84
    },
    {
      "midi": 65,
      "hit": false,
      "t": 91034.41599999998,
      "d": 1034.4820000000036,
      "v": 86
    },
    {
      "midi": 57,
      "hit": false,
      "t": 91034.416,
      "d": 1034.4820000000036,
      "v": 84
    },
    {
      "midi": 43,
      "hit": false,
      "t": 92068.89799999972,
      "d": 1034.4820000000036,
      "v": 84
    },
    {
      "midi": 62,
      "hit": false,
      "t": 92068.89799999991,
      "d": 506.4651458333392,
      "v": 85
    },
    {
      "midi": 55,
      "hit": false,
      "t": 92068.89799999991,
      "d": 517.2410000000091,
      "v": 84
    },
    {
      "midi": 71,
      "hit": false,
      "t": 92068.89799999991,
      "d": 1034.4820000000036,
      "v": 84
    },
    {
      "midi": 62,
      "hit": false,
      "t": 92068.89799999999,
      "d": 517.2409999999945,
      "v": 86
    },
    {
      "midi": 71,
      "hit": false,
      "t": 92068.89799999999,
      "d": 517.2409999999945,
      "v": 86
    },
    {
      "midi": 79,
      "hit": false,
      "t": 92068.89799999999,
      "d": 1034.481999999989,
      "v": 86
    },
    {
      "midi": 55,
      "hit": false,
      "t": 92068.898,
      "d": 517.2409999999945,
      "v": 84
    },
    {
      "midi": 62,
      "hit": false,
      "t": 92068.898,
      "d": 517.2409999999945,
      "v": 84
    },
    {
      "midi": 77,
      "hit": false,
      "t": 92068.898,
      "d": 1034.481999999989,
      "v": 84
    },
    {
      "midi": 76,
      "hit": false,
      "t": 93103.37999999973,
      "d": 239.22396249999292,
      "v": 51
    },
    {
      "midi": 72,
      "hit": false,
      "t": 93103.37999999992,
      "d": 258.62050000000454,
      "v": 76
    },
    {
      "midi": 72,
      "hit": false,
      "t": 93103.37999999998,
      "d": 258.62050000000454,
      "v": 86
    },
    {
      "midi": 76,
      "hit": false,
      "t": 93103.37999999999,
      "d": 239.22396249999292,
      "v": 65
    },
    {
      "midi": 79,
      "hit": false,
      "t": 93362.00049999972,
      "d": 258.62050000000454,
      "v": 51
    },
    {
      "midi": 71,
      "hit": false,
      "t": 93362.00049999992,
      "d": 258.62050000000454,
      "v": 76
    },
    {
      "midi": 79,
      "hit": false,
      "t": 93362.00049999998,
      "d": 258.62050000000454,
      "v": 65
    },
    {
      "midi": 71,
      "hit": false,
      "t": 93362.00049999998,
      "d": 258.62050000000454,
      "v": 86
    },
    {
      "midi": 72,
      "hit": false,
      "t": 93620.62099999972,
      "d": 129.310249999995,
      "v": 51
    },
    {
      "midi": 69,
      "hit": false,
      "t": 93620.62099999993,
      "d": 129.310249999995,
      "v": 76
    },
    {
      "midi": 72,
      "hit": false,
      "t": 93620.62099999998,
      "d": 129.310249999995,
      "v": 65
    },
    {
      "midi": 69,
      "hit": false,
      "t": 93620.62099999998,
      "d": 129.310249999995,
      "v": 86
    },
    {
      "midi": 71,
      "hit": false,
      "t": 93879.24149999971,
      "d": 148.7067875000066,
      "v": 51
    },
    {
      "midi": 67,
      "hit": false,
      "t": 93879.24149999992,
      "d": 143.3188604166644,
      "v": 76
    },
    {
      "midi": 71,
      "hit": false,
      "t": 93879.24149999997,
      "d": 148.7067875000066,
      "v": 65
    },
    {
      "midi": 67,
      "hit": false,
      "t": 93879.24149999997,
      "d": 139.00851874999353,
      "v": 86
    },
    {
      "midi": 72,
      "hit": false,
      "t": 94137.86199999972,
      "d": 435.3445083333354,
      "v": 56
    },
    {
      "midi": 65,
      "hit": false,
      "t": 94137.86199999992,
      "d": 435.3445083333354,
      "v": 80
    },
    {
      "midi": 65,
      "hit": false,
      "t": 94137.86199999996,
      "d": 435.3445083333354,
      "v": 91
    },
    {
      "midi": 72,
      "hit": false,
      "t": 94137.86199999998,
      "d": 435.3445083333354,
      "v": 70
    },
    {
      "midi": 71,
      "hit": false,
      "t": 94655.10299999973,
      "d": 435.3445083333354,
      "v": 56
    },
    {
      "midi": 62,
      "hit": false,
      "t": 94655.10299999993,
      "d": 435.3445083333354,
      "v": 80
    },
    {
      "midi": 67,
      "hit": false,
      "t": 94655.10299999997,
      "d": 435.3445083333354,
      "v": 91
    },
    {
      "midi": 71,
      "hit": false,
      "t": 94655.10299999999,
      "d": 435.3445083333354,
      "v": 70
    },
    {
      "midi": 76,
      "hit": false,
      "t": 95172.34399999974,
      "d": 239.22396249999292,
      "v": 51
    },
    {
      "midi": 72,
      "hit": false,
      "t": 95172.34399999994,
      "d": 253.23257291666232,
      "v": 76
    },
    {
      "midi": 72,
      "hit": false,
      "t": 95172.34399999998,
      "d": 253.23257291666232,
      "v": 86
    },
    {
      "midi": 76,
      "hit": false,
      "t": 95172.344,
      "d": 239.22396249999292,
      "v": 65
    },
    {
      "midi": 79,
      "hit": false,
      "t": 95430.96449999973,
      "d": 258.62050000000454,
      "v": 51
    },
    {
      "midi": 71,
      "hit": false,
      "t": 95430.96449999993,
      "d": 258.62050000000454,
      "v": 76
    },
    {
      "midi": 71,
      "hit": false,
      "t": 95430.96449999997,
      "d": 258.62050000000454,
      "v": 86
    },
    {
      "midi": 79,
      "hit": false,
      "t": 95430.96449999999,
      "d": 258.62050000000454,
      "v": 65
    },
    {
      "midi": 72,
      "hit": false,
      "t": 95689.58499999973,
      "d": 129.310249999995,
      "v": 51
    },
    {
      "midi": 69,
      "hit": false,
      "t": 95689.58499999993,
      "d": 129.310249999995,
      "v": 76
    },
    {
      "midi": 69,
      "hit": false,
      "t": 95689.58499999998,
      "d": 129.310249999995,
      "v": 86
    },
    {
      "midi": 72,
      "hit": false,
      "t": 95689.58499999999,
      "d": 129.310249999995,
      "v": 65
    },
    {
      "midi": 71,
      "hit": false,
      "t": 95948.20549999972,
      "d": 148.7067875000066,
      "v": 51
    },
    {
      "midi": 67,
      "hit": false,
      "t": 95948.20549999992,
      "d": 143.3188604166644,
      "v": 76
    },
    {
      "midi": 67,
      "hit": false,
      "t": 95948.20549999997,
      "d": 139.00851874999353,
      "v": 86
    },
    {
      "midi": 71,
      "hit": false,
      "t": 95948.20549999998,
      "d": 148.7067875000066,
      "v": 65
    },
    {
      "midi": 72,
      "hit": false,
      "t": 96206.82599999972,
      "d": 435.3445083333354,
      "v": 56
    },
    {
      "midi": 65,
      "hit": false,
      "t": 96206.82599999993,
      "d": 435.3445083333354,
      "v": 80
    },
    {
      "midi": 65,
      "hit": false,
      "t": 96206.82599999996,
      "d": 435.3445083333354,
      "v": 91
    },
    {
      "midi": 72,
      "hit": false,
      "t": 96206.82599999999,
      "d": 435.3445083333354,
      "v": 70
    },
    {
      "midi": 71,
      "hit": false,
      "t": 96724.06699999973,
      "d": 435.3445083333354,
      "v": 56
    },
    {
      "midi": 62,
      "hit": false,
      "t": 96724.06699999994,
      "d": 435.3445083333354,
      "v": 80
    },
    {
      "midi": 67,
      "hit": false,
      "t": 96724.06699999997,
      "d": 435.3445083333354,
      "v": 91
    },
    {
      "midi": 71,
      "hit": false,
      "t": 96724.067,
      "d": 435.3445083333354,
      "v": 70
    },
    {
      "midi": 65,
      "hit": false,
      "t": 97241.30799999995,
      "d": 435.3445083333354,
      "v": 80
    },
    {
      "midi": 65,
      "hit": false,
      "t": 97241.30799999998,
      "d": 435.3445083333354,
      "v": 91
    },
    {
      "midi": 69,
      "hit": false,
      "t": 97241.308,
      "d": 435.3445083333354,
      "v": 98
    },
    {
      "midi": 62,
      "hit": false,
      "t": 97758.54899999996,
      "d": 435.3445083333354,
      "v": 80
    },
    {
      "midi": 67,
      "hit": false,
      "t": 97758.54899999998,
      "d": 435.3445083333354,
      "v": 91
    },
    {
      "midi": 67,
      "hit": false,
      "t": 97758.54900000001,
      "d": 435.3445083333354,
      "v": 98
    },
    {
      "midi": 69,
      "hit": false,
      "t": 98275.78999999973,
      "d": 435.3445083333354,
      "v": 114
    },
    {
      "midi": 65,
      "hit": false,
      "t": 98275.78999999996,
      "d": 435.3445083333354,
      "v": 80
    },
    {
      "midi": 65,
      "hit": false,
      "t": 98275.79,
      "d": 435.3445083333354,
      "v": 91
    },
    {
      "midi": 72,
      "hit": false,
      "t": 98275.79000000002,
      "d": 435.3445083333354,
      "v": 88
    },
    {
      "midi": 62,
      "hit": false,
      "t": 98793.03099999997,
      "d": 435.3445083333354,
      "v": 80
    },
    {
      "midi": 67,
      "hit": false,
      "t": 98793.031,
      "d": 435.3445083333354,
      "v": 91
    },
    {
      "midi": 71,
      "hit": false,
      "t": 98793.03100000003,
      "d": 435.3445083333354,
      "v": 88
    },
    {
      "midi": 67,
      "hit": false,
      "t": 99116.30662499974,
      "d": 62.499954166662064,
      "v": 90
    },
    {
      "midi": 69,
      "hit": false,
      "t": 99180.96174999973,
      "d": 62.499954166662064,
      "v": 94
    },
    {
      "midi": 71,
      "hit": false,
      "t": 99245.61687499972,
      "d": 64.65512500000477,
      "v": 83
    },
    {
      "midi": 60,
      "hit": false,
      "t": 99310.27199999972,
      "d": 1961.2054583333374,
      "v": 84
    },
    {
      "midi": 64,
      "hit": false,
      "t": 99310.27199999972,
      "d": 1961.2054583333374,
      "v": 84
    },
    {
      "midi": 60,
      "hit": false,
      "t": 99310.27199999998,
      "d": 1961.2054583333374,
      "v": 84
    },
    {
      "midi": 64,
      "hit": false,
      "t": 99310.27199999998,
      "d": 1961.2054583333374,
      "v": 84
    },
    {
      "midi": 72,
      "hit": false,
      "t": 99310.27200000001,
      "d": 1961.2054583333374,
      "v": 86
    },
    {
      "midi": 72,
      "hit": false,
      "t": 99310.27200000004,
      "d": 1961.2054583333374,
      "v": 84
    },
    {
      "midi": 60,
      "hit": false,
      "t": 101379.23599999973,
      "d": 254.31015833333367,
      "v": 84
    },
    {
      "midi": 60,
      "hit": false,
      "t": 101379.23599999999,
      "d": 254.31015833333367,
      "v": 84
    },
    {
      "midi": 64,
      "hit": false,
      "t": 101379.23599999999,
      "d": 254.31015833333367,
      "v": 84
    },
    {
      "midi": 72,
      "hit": false,
      "t": 101379.23600000002,
      "d": 254.31015833333367,
      "v": 86
    },
    {
      "midi": 72,
      "hit": false,
      "t": 101379.23600000005,
      "d": 254.31015833333367,
      "v": 84
    },
    {
      "midi": 60,
      "hit": false,
      "t": 102413.71799999973,
      "d": 254.31015833333367,
      "v": 84
    },
    {
      "midi": 60,
      "hit": false,
      "t": 102413.718,
      "d": 254.31015833333367,
      "v": 84
    },
    {
      "midi": 64,
      "hit": false,
      "t": 102413.718,
      "d": 254.31015833333367,
      "v": 84
    },
    {
      "midi": 72,
      "hit": false,
      "t": 102413.71800000002,
      "d": 254.31015833333367,
      "v": 86
    },
    {
      "midi": 72,
      "hit": false,
      "t": 102413.71800000005,
      "d": 254.31015833333367,
      "v": 84
    },
    {
      "midi": 60,
      "hit": false,
      "t": 103448.19999999974,
      "d": 254.31015833333367,
      "v": 84
    },
    {
      "midi": 60,
      "hit": false,
      "t": 103448.2,
      "d": 254.31015833333367,
      "v": 84
    },
    {
      "midi": 64,
      "hit": false,
      "t": 103448.2,
      "d": 254.31015833333367,
      "v": 84
    },
    {
      "midi": 72,
      "hit": false,
      "t": 103448.20000000003,
      "d": 254.31015833333367,
      "v": 86
    },
    {
      "midi": 72,
      "hit": false,
      "t": 103448.20000000006,
      "d": 254.31015833333367,
      "v": 84
    }
  ]
}