{
  "jsonPath": "Rock/Country Rock/George Jones/it-is-no-secret.json",
  "path": "Rock\\Country Rock\\George Jones\\It Is No Secret.mid",
  "name": "It Is No Secret",
  "difficulty": "Advanced",
  "bpm": 120,
  "notes": [
    {
      "midi": 64,
      "hit": false,
      "t": 3015,
      "d": 280,
      "v": 107
    },
    {
      "midi": 65,
      "hit": false,
      "t": 3295,
      "d": 215,
      "v": 86
    },
    {
      "midi": 67,
      "hit": false,
      "t": 3495,
      "d": 515,
      "v": 86
    },
    {
      "midi": 64,
      "hit": false,
      "t": 4110,
      "d": 465,
      "v": 73
    },
    {
      "midi": 65,
      "hit": false,
      "t": 4435,
      "d": 215,
      "v": 78
    },
    {
      "midi": 64,
      "hit": false,
      "t": 4620,
      "d": 115,
      "v": 95
    },
    {
      "midi": 43,
      "hit": false,
      "t": 4800,
      "d": 275,
      "v": 68
    },
    {
      "midi": 64,
      "hit": false,
      "t": 4850,
      "d": 185,
      "v": 97
    },
    {
      "midi": 65,
      "hit": false,
      "t": 5010,
      "d": 135,
      "v": 68
    },
    {
      "midi": 64,
      "hit": false,
      "t": 5090,
      "d": 140,
      "v": 68
    },
    {
      "midi": 62,
      "hit": false,
      "t": 5185,
      "d": 170,
      "v": 69
    },
    {
      "midi": 50,
      "hit": false,
      "t": 5400,
      "d": 200,
      "v": 56
    },
    {
      "midi": 53,
      "hit": false,
      "t": 5400,
      "d": 200,
      "v": 69
    },
    {
      "midi": 55,
      "hit": false,
      "t": 5400,
      "d": 200,
      "v": 50
    },
    {
      "midi": 59,
      "hit": false,
      "t": 5400,
      "d": 200,
      "v": 61
    },
    {
      "midi": 74,
      "hit": false,
      "t": 5400,
      "d": 360,
      "v": 82
    },
    {
      "midi": 62,
      "hit": false,
      "t": 5460,
      "d": 270,
      "v": 84
    },
    {
      "midi": 71,
      "hit": false,
      "t": 5600,
      "d": 200,
      "v": 43
    },
    {
      "midi": 67,
      "hit": false,
      "t": 5800,
      "d": 200,
      "v": 31
    },
    {
      "midi": 38,
      "hit": false,
      "t": 6000,
      "d": 200,
      "v": 53
    },
    {
      "midi": 74,
      "hit": false,
      "t": 6000,
      "d": 310,
      "v": 71
    },
    {
      "midi": 71,
      "hit": false,
      "t": 6200,
      "d": 200,
      "v": 57
    },
    {
      "midi": 74,
      "hit": false,
      "t": 6400,
      "d": 1375,
      "v": 60
    },
    {
      "midi": 53,
      "hit": false,
      "t": 6600,
      "d": 255,
      "v": 65
    },
    {
      "midi": 55,
      "hit": false,
      "t": 6600,
      "d": 255,
      "v": 40
    },
    {
      "midi": 59,
      "hit": false,
      "t": 6600,
      "d": 255,
      "v": 46
    },
    {
      "midi": 50,
      "hit": false,
      "t": 6600,
      "d": 260,
      "v": 39
    },
    {
      "midi": 43,
      "hit": false,
      "t": 7200,
      "d": 220,
      "v": 67
    },
    {
      "midi": 67,
      "hit": false,
      "t": 7600,
      "d": 200,
      "v": 44
    },
    {
      "midi": 50,
      "hit": false,
      "t": 7800,
      "d": 195,
      "v": 29
    },
    {
      "midi": 53,
      "hit": false,
      "t": 7800,
      "d": 200,
      "v": 62
    },
    {
      "midi": 55,
      "hit": false,
      "t": 7800,
      "d": 200,
      "v": 49
    },
    {
      "midi": 59,
      "hit": false,
      "t": 7800,
      "d": 200,
      "v": 58
    },
    {
      "midi": 74,
      "hit": false,
      "t": 7800,
      "d": 355,
      "v": 79
    },
    {
      "midi": 71,
      "hit": false,
      "t": 8000,
      "d": 325,
      "v": 63
    },
    {
      "midi": 62,
      "hit": false,
      "t": 8025,
      "d": 75,
      "v": 100
    },
    {
      "midi": 67,
      "hit": false,
      "t": 8200,
      "d": 200,
      "v": 30
    },
    {
      "midi": 64,
      "hit": false,
      "t": 8205,
      "d": 225,
      "v": 95
    },
    {
      "midi": 43,
      "hit": false,
      "t": 8400,
      "d": 200,
      "v": 71
    },
    {
      "midi": 79,
      "hit": false,
      "t": 8400,
      "d": 325,
      "v": 80
    },
    {
      "midi": 65,
      "hit": false,
      "t": 8455,
      "d": 305,
      "v": 93
    },
    {
      "midi": 71,
      "hit": false,
      "t": 8600,
      "d": 200,
      "v": 77
    },
    {
      "midi": 74,
      "hit": false,
      "t": 8800,
      "d": 800,
      "v": 77
    },
    {
      "midi": 67,
      "hit": false,
      "t": 8870,
      "d": 295,
      "v": 80
    },
    {
      "midi": 50,
      "hit": false,
      "t": 9000,
      "d": 600,
      "v": 35
    },
    {
      "midi": 53,
      "hit": false,
      "t": 9000,
      "d": 600,
      "v": 60
    },
    {
      "midi": 55,
      "hit": false,
      "t": 9000,
      "d": 600,
      "v": 50
    },
    {
      "midi": 59,
      "hit": false,
      "t": 9000,
      "d": 600,
      "v": 58
    },
    {
      "midi": 67,
      "hit": false,
      "t": 9165,
      "d": 635,
      "v": 89
    },
    {
      "midi": 62,
      "hit": false,
      "t": 9175,
      "d": 110,
      "v": 95
    },
    {
      "midi": 64,
      "hit": false,
      "t": 9260,
      "d": 275,
      "v": 61
    },
    {
      "midi": 62,
      "hit": false,
      "t": 9500,
      "d": 235,
      "v": 86
    },
    {
      "midi": 48,
      "hit": false,
      "t": 9600,
      "d": 585,
      "v": 62
    },
    {
      "midi": 60,
      "hit": false,
      "t": 9740,
      "d": 2005,
      "v": 81
    },
    {
      "midi": 52,
      "hit": false,
      "t": 10200,
      "d": 200,
      "v": 58
    },
    {
      "midi": 55,
      "hit": false,
      "t": 10200,
      "d": 200,
      "v": 52
    },
    {
      "midi": 60,
      "hit": false,
      "t": 10200,
      "d": 200,
      "v": 55
    },
    {
      "midi": 67,
      "hit": false,
      "t": 10200,
      "d": 350,
      "v": 72
    },
    {
      "midi": 64,
      "hit": false,
      "t": 10400,
      "d": 380,
      "v": 60
    },
    {
      "midi": 72,
      "hit": false,
      "t": 10600,
      "d": 380,
      "v": 75
    },
    {
      "midi": 43,
      "hit": false,
      "t": 10800,
      "d": 235,
      "v": 60
    },
    {
      "midi": 67,
      "hit": false,
      "t": 10800,
      "d": 400,
      "v": 73
    },
    {
      "midi": 76,
      "hit": false,
      "t": 11200,
      "d": 215,
      "v": 70
    },
    {
      "midi": 52,
      "hit": false,
      "t": 11400,
      "d": 585,
      "v": 37
    },
    {
      "midi": 60,
      "hit": false,
      "t": 11400,
      "d": 585,
      "v": 41
    },
    {
      "midi": 72,
      "hit": false,
      "t": 11400,
      "d": 800,
      "v": 76
    },
    {
      "midi": 55,
      "hit": false,
      "t": 11415,
      "d": 570,
      "v": 37
    },
    {
      "midi": 48,
      "hit": false,
      "t": 12000,
      "d": 495,
      "v": 76
    },
    {
      "midi": 52,
      "hit": false,
      "t": 12600,
      "d": 200,
      "v": 37
    },
    {
      "midi": 55,
      "hit": false,
      "t": 12600,
      "d": 200,
      "v": 47
    },
    {
      "midi": 60,
      "hit": false,
      "t": 12600,
      "d": 200,
      "v": 51
    },
    {
      "midi": 67,
      "hit": false,
      "t": 12600,
      "d": 350,
      "v": 72
    },
    {
      "midi": 64,
      "hit": false,
      "t": 12800,
      "d": 365,
      "v": 69
    },
    {
      "midi": 72,
      "hit": false,
      "t": 13000,
      "d": 390,
      "v": 76
    },
    {
      "midi": 43,
      "hit": false,
      "t": 13200,
      "d": 240,
      "v": 62
    },
    {
      "midi": 67,
      "hit": false,
      "t": 13200,
      "d": 400,
      "v": 69
    },
    {
      "midi": 76,
      "hit": false,
      "t": 13600,
      "d": 200,
      "v": 76
    },
    {
      "midi": 72,
      "hit": false,
      "t": 13800,
      "d": 540,
      "v": 69
    },
    {
      "midi": 55,
      "hit": false,
      "t": 13800,
      "d": 555,
      "v": 48
    },
    {
      "midi": 60,
      "hit": false,
      "t": 13800,
      "d": 555,
      "v": 49
    },
    {
      "midi": 52,
      "hit": false,
      "t": 13800,
      "d": 570,
      "v": 45
    },
    {
      "midi": 64,
      "hit": false,
      "t": 13840,
      "d": 230,
      "v": 100
    },
    {
      "midi": 65,
      "hit": false,
      "t": 14075,
      "d": 205,
      "v": 74
    },
    {
      "midi": 67,
      "hit": false,
      "t": 14255,
      "d": 445,
      "v": 87
    },
    {
      "midi": 48,
      "hit": false,
      "t": 14400,
      "d": 250,
      "v": 72
    },
    {
      "midi": 67,
      "hit": false,
      "t": 14800,
      "d": 215,
      "v": 63
    },
    {
      "midi": 55,
      "hit": false,
      "t": 15000,
      "d": 230,
      "v": 48
    },
    {
      "midi": 60,
      "hit": false,
      "t": 15000,
      "d": 230,
      "v": 69
    },
    {
      "midi": 64,
      "hit": false,
      "t": 15000,
      "d": 420,
      "v": 74
    },
    {
      "midi": 67,
      "hit": false,
      "t": 15270,
      "d": 35,
      "v": 89
    },
    {
      "midi": 72,
      "hit": false,
      "t": 15400,
      "d": 270,
      "v": 57
    },
    {
      "midi": 67,
      "hit": false,
      "t": 15445,
      "d": 95,
      "v": 81
    },
    {
      "midi": 43,
      "hit": false,
      "t": 15600,
      "d": 150,
      "v": 56
    },
    {
      "midi": 67,
      "hit": false,
      "t": 15600,
      "d": 370,
      "v": 66
    },
    {
      "midi": 67,
      "hit": false,
      "t": 15645,
      "d": 160,
      "v": 82
    },
    {
      "midi": 69,
      "hit": false,
      "t": 15750,
      "d": 270,
      "v": 67
    },
    {
      "midi": 67,
      "hit": false,
      "t": 15980,
      "d": 455,
      "v": 84
    },
    {
      "midi": 76,
      "hit": false,
      "t": 16000,
      "d": 215,
      "v": 67
    },
    {
      "midi": 60,
      "hit": false,
      "t": 16200,
      "d": 175,
      "v": 59
    },
    {
      "midi": 55,
      "hit": false,
      "t": 16200,
      "d": 180,
      "v": 45
    },
    {
      "midi": 72,
      "hit": false,
      "t": 16200,
      "d": 670,
      "v": 83
    },
    {
      "midi": 64,
      "hit": false,
      "t": 16215,
      "d": 165,
      "v": 42
    },
    {
      "midi": 65,
      "hit": false,
      "t": 16395,
      "d": 175,
      "v": 86
    },
    {
      "midi": 64,
      "hit": false,
      "t": 16555,
      "d": 200,
      "v": 81
    },
    {
      "midi": 48,
      "hit": false,
      "t": 16800,
      "d": 290,
      "v": 66
    },
    {
      "midi": 67,
      "hit": false,
      "t": 16810,
      "d": 625,
      "v": 86
    },
    {
      "midi": 67,
      "hit": false,
      "t": 17200,
      "d": 215,
      "v": 60
    },
    {
      "midi": 60,
      "hit": false,
      "t": 17400,
      "d": 320,
      "v": 73
    },
    {
      "midi": 64,
      "hit": false,
      "t": 17400,
      "d": 380,
      "v": 79
    },
    {
      "midi": 55,
      "hit": false,
      "t": 17415,
      "d": 315,
      "v": 33
    },
    {
      "midi": 60,
      "hit": false,
      "t": 17465,
      "d": 215,
      "v": 84
    },
    {
      "midi": 64,
      "hit": false,
      "t": 17650,
      "d": 165,
      "v": 95
    },
    {
      "midi": 72,
      "hit": false,
      "t": 17800,
      "d": 225,
      "v": 82
    },
    {
      "midi": 67,
      "hit": false,
      "t": 17810,
      "d": 200,
      "v": 84
    },
    {
      "midi": 67,
      "hit": false,
      "t": 18000,
      "d": 395,
      "v": 75
    },
    {
      "midi": 43,
      "hit": false,
      "t": 18025,
      "d": 160,
      "v": 65
    },
    {
      "midi": 69,
      "hit": false,
      "t": 18050,
      "d": 320,
      "v": 84
    },
    {
      "midi": 76,
      "hit": false,
      "t": 18400,
      "d": 240,
      "v": 75
    },
    {
      "midi": 67,
      "hit": false,
      "t": 18515,
      "d": 465,
      "v": 84
    },
    {
      "midi": 64,
      "hit": false,
      "t": 18600,
      "d": 420,
      "v": 49
    },
    {
      "midi": 55,
      "hit": false,
      "t": 18600,
      "d": 435,
      "v": 44
    },
    {
      "midi": 60,
      "hit": false,
      "t": 18600,
      "d": 435,
      "v": 58
    },
    {
      "midi": 72,
      "hit": false,
      "t": 18600,
      "d": 480,
      "v": 75
    },
    {
      "midi": 65,
      "hit": false,
      "t": 18845,
      "d": 225,
      "v": 91
    },
    {
      "midi": 64,
      "hit": false,
      "t": 19030,
      "d": 85,
      "v": 91
    },
    {
      "midi": 43,
      "hit": false,
      "t": 19200,
      "d": 250,
      "v": 72
    },
    {
      "midi": 65,
      "hit": false,
      "t": 19235,
      "d": 45,
      "v": 65
    },
    {
      "midi": 64,
      "hit": false,
      "t": 19240,
      "d": 185,
      "v": 80
    },
    {
      "midi": 65,
      "hit": false,
      "t": 19385,
      "d": 140,
      "v": 64
    },
    {
      "midi": 64,
      "hit": false,
      "t": 19465,
      "d": 195,
      "v": 53
    },
    {
      "midi": 62,
      "hit": false,
      "t": 19600,
      "d": 215,
      "v": 63
    },
    {
      "midi": 62,
      "hit": false,
      "t": 19625,
      "d": 3110,
      "v": 72
    },
    {
      "midi": 50,
      "hit": false,
      "t": 19800,
      "d": 230,
      "v": 48
    },
    {
      "midi": 53,
      "hit": false,
      "t": 19800,
      "d": 230,
      "v": 69
    },
    {
      "midi": 55,
      "hit": false,
      "t": 19800,
      "d": 230,
      "v": 52
    },
    {
      "midi": 59,
      "hit": false,
      "t": 19800,
      "d": 420,
      "v": 74
    },
    {
      "midi": 67,
      "hit": false,
      "t": 20200,
      "d": 270,
      "v": 57
    },
    {
      "midi": 38,
      "hit": false,
      "t": 20400,
      "d": 150,
      "v": 56
    },
    {
      "midi": 62,
      "hit": false,
      "t": 20400,
      "d": 370,
      "v": 66
    },
    {
      "midi": 71,
      "hit": false,
      "t": 20800,
      "d": 215,
      "v": 67
    },
    {
      "midi": 53,
      "hit": false,
      "t": 21000,
      "d": 175,
      "v": 59
    },
    {
      "midi": 50,
      "hit": false,
      "t": 21000,
      "d": 180,
      "v": 45
    },
    {
      "midi": 67,
      "hit": false,
      "t": 21000,
      "d": 670,
      "v": 83
    },
    {
      "midi": 59,
      "hit": false,
      "t": 21015,
      "d": 165,
      "v": 42
    },
    {
      "midi": 55,
      "hit": false,
      "t": 21015,
      "d": 185,
      "v": 40
    },
    {
      "midi": 43,
      "hit": false,
      "t": 21600,
      "d": 290,
      "v": 66
    },
    {
      "midi": 62,
      "hit": false,
      "t": 22000,
      "d": 215,
      "v": 60
    },
    {
      "midi": 53,
      "hit": false,
      "t": 22200,
      "d": 320,
      "v": 73
    },
    {
      "midi": 55,
      "hit": false,
      "t": 22200,
      "d": 320,
      "v": 56
    },
    {
      "midi": 59,
      "hit": false,
      "t": 22200,
      "d": 380,
      "v": 79
    },
    {
      "midi": 50,
      "hit": false,
      "t": 22215,
      "d": 315,
      "v": 33
    },
    {
      "midi": 67,
      "hit": false,
      "t": 22600,
      "d": 225,
      "v": 82
    },
    {
      "midi": 62,
      "hit": false,
      "t": 22800,
      "d": 395,
      "v": 75
    },
    {
      "midi": 38,
      "hit": false,
      "t": 22825,
      "d": 160,
      "v": 65
    },
    {
      "midi": 62,
      "hit": false,
      "t": 22825,
      "d": 280,
      "v": 64
    },
    {
      "midi": 71,
      "hit": false,
      "t": 23200,
      "d": 240,
      "v": 75
    },
    {
      "midi": 61,
      "hit": false,
      "t": 23315,
      "d": 390,
      "v": 92
    },
    {
      "midi": 59,
      "hit": false,
      "t": 23400,
      "d": 420,
      "v": 49
    },
    {
      "midi": 50,
      "hit": false,
      "t": 23400,
      "d": 435,
      "v": 44
    },
    {
      "midi": 53,
      "hit": false,
      "t": 23400,
      "d": 435,
      "v": 58
    },
    {
      "midi": 55,
      "hit": false,
      "t": 23400,
      "d": 445,
      "v": 44
    },
    {
      "midi": 67,
      "hit": false,
      "t": 23400,
      "d": 480,
      "v": 75
    },
    {
      "midi": 62,
      "hit": false,
      "t": 23590,
      "d": 215,
      "v": 87
    },
    {
      "midi": 64,
      "hit": false,
      "t": 23765,
      "d": 210,
      "v": 97
    },
    {
      "midi": 43,
      "hit": false,
      "t": 24000,
      "d": 275,
      "v": 68
    },
    {
      "midi": 65,
      "hit": false,
      "t": 24000,
      "d": 840,
      "v": 100
    },
    {
      "midi": 50,
      "hit": false,
      "t": 24600,
      "d": 200,
      "v": 56
    },
    {
      "midi": 53,
      "hit": false,
      "t": 24600,
      "d": 200,
      "v": 69
    },
    {
      "midi": 55,
      "hit": false,
      "t": 24600,
      "d": 200,
      "v": 50
    },
    {
      "midi": 59,
      "hit": false,
      "t": 24600,
      "d": 200,
      "v": 61
    },
    {
      "midi": 74,
      "hit": false,
      "t": 24600,
      "d": 360,
      "v": 82
    },
    {
      "midi": 71,
      "hit": false,
      "t": 24800,
      "d": 200,
      "v": 43
    },
    {
      "midi": 62,
      "hit": false,
      "t": 24860,
      "d": 180,
      "v": 81
    },
    {
      "midi": 67,
      "hit": false,
      "t": 25000,
      "d": 200,
      "v": 31
    },
    {
      "midi": 64,
      "hit": false,
      "t": 25010,
      "d": 145,
      "v": 87
    },
    {
      "midi": 65,
      "hit": false,
      "t": 25170,
      "d": 1590,
      "v": 95
    },
    {
      "midi": 38,
      "hit": false,
      "t": 25200,
      "d": 200,
      "v": 53
    },
    {
      "midi": 74,
      "hit": false,
      "t": 25200,
      "d": 310,
      "v": 71
    },
    {
      "midi": 71,
      "hit": false,
      "t": 25400,
      "d": 200,
      "v": 57
    },
    {
      "midi": 74,
      "hit": false,
      "t": 25600,
      "d": 1375,
      "v": 60
    },
    {
      "midi": 53,
      "hit": false,
      "t": 25800,
      "d": 255,
      "v": 65
    },
    {
      "midi": 55,
      "hit": false,
      "t": 25800,
      "d": 255,
      "v": 40
    },
    {
      "midi": 59,
      "hit": false,
      "t": 25800,
      "d": 255,
      "v": 46
    },
    {
      "midi": 50,
      "hit": false,
      "t": 25800,
      "d": 260,
      "v": 39
    },
    {
      "midi": 43,
      "hit": false,
      "t": 26400,
      "d": 220,
      "v": 67
    },
    {
      "midi": 67,
      "hit": false,
      "t": 26800,
      "d": 200,
      "v": 44
    },
    {
      "midi": 50,
      "hit": false,
      "t": 27000,
      "d": 195,
      "v": 29
    },
    {
      "midi": 53,
      "hit": false,
      "t": 27000,
      "d": 200,
      "v": 62
    },
    {
      "midi": 55,
      "hit": false,
      "t": 27000,
      "d": 200,
      "v": 49
    },
    {
      "midi": 59,
      "hit": false,
      "t": 27000,
      "d": 200,
      "v": 58
    },
    {
      "midi": 74,
      "hit": false,
      "t": 27000,
      "d": 355,
      "v": 79
    },
    {
      "midi": 71,
      "hit": false,
      "t": 27200,
      "d": 325,
      "v": 63
    },
    {
      "midi": 67,
      "hit": false,
      "t": 27215,
      "d": 80,
      "v": 74
    },
    {
      "midi": 67,
      "hit": false,
      "t": 27400,
      "d": 200,
      "v": 30
    },
    {
      "midi": 67,
      "hit": false,
      "t": 27420,
      "d": 100,
      "v": 67
    },
    {
      "midi": 43,
      "hit": false,
      "t": 27600,
      "d": 200,
      "v": 71
    },
    {
      "midi": 79,
      "hit": false,
      "t": 27600,
      "d": 325,
      "v": 80
    },
    {
      "midi": 67,
      "hit": false,
      "t": 27625,
      "d": 170,
      "v": 78
    },
    {
      "midi": 72,
      "hit": false,
      "t": 27635,
      "d": 375,
      "v": 66
    },
    {
      "midi": 69,
      "hit": false,
      "t": 27745,
      "d": 285,
      "v": 69
    },
    {
      "midi": 71,
      "hit": false,
      "t": 27800,
      "d": 200,
      "v": 77
    },
    {
      "midi": 67,
      "hit": false,
      "t": 27985,
      "d": 305,
      "v": 95
    },
    {
      "midi": 74,
      "hit": false,
      "t": 28000,
      "d": 800,
      "v": 77
    },
    {
      "midi": 50,
      "hit": false,
      "t": 28200,
      "d": 600,
      "v": 35
    },
    {
      "midi": 53,
      "hit": false,
      "t": 28200,
      "d": 600,
      "v": 60
    },
    {
      "midi": 55,
      "hit": false,
      "t": 28200,
      "d": 600,
      "v": 50
    },
    {
      "midi": 59,
      "hit": false,
      "t": 28200,
      "d": 600,
      "v": 58
    },
    {
      "midi": 67,
      "hit": false,
      "t": 28410,
      "d": 210,
      "v": 68
    },
    {
      "midi": 65,
      "hit": false,
      "t": 28585,
      "d": 130,
      "v": 89
    },
    {
      "midi": 48,
      "hit": false,
      "t": 28800,
      "d": 585,
      "v": 62
    },
    {
      "midi": 62,
      "hit": false,
      "t": 28850,
      "d": 185,
      "v": 91
    },
    {
      "midi": 67,
      "hit": false,
      "t": 28850,
      "d": 1050,
      "v": 78
    },
    {
      "midi": 64,
      "hit": false,
      "t": 28995,
      "d": 270,
      "v": 63
    },
    {
      "midi": 62,
      "hit": false,
      "t": 29240,
      "d": 480,
      "v": 82
    },
    {
      "midi": 52,
      "hit": false,
      "t": 29400,
      "d": 200,
      "v": 58
    },
    {
      "midi": 55,
      "hit": false,
      "t": 29400,
      "d": 200,
      "v": 52
    },
    {
      "midi": 60,
      "hit": false,
      "t": 29400,
      "d": 200,
      "v": 55
    },
    {
      "midi": 67,
      "hit": false,
      "t": 29400,
      "d": 350,
      "v": 72
    },
    {
      "midi": 64,
      "hit": false,
      "t": 29600,
      "d": 380,
      "v": 60
    },
    {
      "midi": 60,
      "hit": false,
      "t": 29680,
      "d": 210,
      "v": 100
    },
    {
      "midi": 72,
      "hit": false,
      "t": 29800,
      "d": 380,
      "v": 75
    },
    {
      "midi": 62,
      "hit": false,
      "t": 29840,
      "d": 200,
      "v": 78
    },
    {
      "midi": 43,
      "hit": false,
      "t": 30000,
      "d": 235,
      "v": 60
    },
    {
      "midi": 67,
      "hit": false,
      "t": 30000,
      "d": 400,
      "v": 73
    },
    {
      "midi": 64,
      "hit": false,
      "t": 30050,
      "d": 1625,
      "v": 93
    },
    {
      "midi": 76,
      "hit": false,
      "t": 30400,
      "d": 215,
      "v": 70
    },
    {
      "midi": 52,
      "hit": false,
      "t": 30600,
      "d": 585,
      "v": 37
    },
    {
      "midi": 60,
      "hit": false,
      "t": 30600,
      "d": 585,
      "v": 41
    },
    {
      "midi": 72,
      "hit": false,
      "t": 30600,
      "d": 800,
      "v": 76
    },
    {
      "midi": 55,
      "hit": false,
      "t": 30615,
      "d": 570,
      "v": 37
    },
    {
      "midi": 48,
      "hit": false,
      "t": 31200,
      "d": 495,
      "v": 76
    },
    {
      "midi": 52,
      "hit": false,
      "t": 31800,
      "d": 200,
      "v": 37
    },
    {
      "midi": 55,
      "hit": false,
      "t": 31800,
      "d": 200,
      "v": 47
    },
    {
      "midi": 60,
      "hit": false,
      "t": 31800,
      "d": 200,
      "v": 51
    },
    {
      "midi": 67,
      "hit": false,
      "t": 31800,
      "d": 350,
      "v": 72
    },
    {
      "midi": 64,
      "hit": false,
      "t": 32000,
      "d": 365,
      "v": 69
    },
    {
      "midi": 72,
      "hit": false,
      "t": 32200,
      "d": 390,
      "v": 76
    },
    {
      "midi": 43,
      "hit": false,
      "t": 32400,
      "d": 240,
      "v": 62
    },
    {
      "midi": 67,
      "hit": false,
      "t": 32400,
      "d": 400,
      "v": 69
    },
    {
      "midi": 65,
      "hit": false,
      "t": 32440,
      "d": 360,
      "v": 100
    },
    {
      "midi": 76,
      "hit": false,
      "t": 32800,
      "d": 200,
      "v": 76
    },
    {
      "midi": 64,
      "hit": false,
      "t": 32910,
      "d": 415,
      "v": 84
    },
    {
      "midi": 72,
      "hit": false,
      "t": 33000,
      "d": 540,
      "v": 69
    },
    {
      "midi": 55,
      "hit": false,
      "t": 33000,
      "d": 555,
      "v": 48
    },
    {
      "midi": 60,
      "hit": false,
      "t": 33000,
      "d": 555,
      "v": 49
    },
    {
      "midi": 52,
      "hit": false,
      "t": 33000,
      "d": 570,
      "v": 45
    },
    {
      "midi": 69,
      "hit": false,
      "t": 33205,
      "d": 375,
      "v": 70
    },
    {
      "midi": 67,
      "hit": false,
      "t": 33580,
      "d": 900,
      "v": 77
    },
    {
      "midi": 48,
      "hit": false,
      "t": 33600,
      "d": 295,
      "v": 79
    },
    {
      "midi": 60,
      "hit": false,
      "t": 34200,
      "d": 225,
      "v": 63
    },
    {
      "midi": 64,
      "hit": false,
      "t": 34200,
      "d": 225,
      "v": 69
    },
    {
      "midi": 55,
      "hit": false,
      "t": 34200,
      "d": 240,
      "v": 59
    },
    {
      "midi": 64,
      "hit": false,
      "t": 34480,
      "d": 160,
      "v": 82
    },
    {
      "midi": 79,
      "hit": false,
      "t": 34600,
      "d": 180,
      "v": 97
    },
    {
      "midi": 84,
      "hit": false,
      "t": 34600,
      "d": 745,
      "v": 90
    },
    {
      "midi": 65,
      "hit": false,
      "t": 34600,
      "d": 125,
      "v": 84
    },
    {
      "midi": 81,
      "hit": false,
      "t": 34700,
      "d": 645,
      "v": 70
    },
    {
      "midi": 67,
      "hit": false,
      "t": 34765,
      "d": 960,
      "v": 86
    },
    {
      "midi": 43,
      "hit": false,
      "t": 34800,
      "d": 225,
      "v": 68
    },
    {
      "midi": 79,
      "hit": false,
      "t": 35200,
      "d": 160,
      "v": 73
    },
    {
      "midi": 74,
      "hit": false,
      "t": 35400,
      "d": 170,
      "v": 95
    },
    {
      "midi": 55,
      "hit": false,
      "t": 35400,
      "d": 205,
      "v": 48
    },
    {
      "midi": 60,
      "hit": false,
      "t": 35400,
      "d": 205,
      "v": 56
    },
    {
      "midi": 64,
      "hit": false,
      "t": 35400,
      "d": 205,
      "v": 47
    },
    {
      "midi": 79,
      "hit": false,
      "t": 35400,
      "d": 575,
      "v": 84
    },
    {
      "midi": 76,
      "hit": false,
      "t": 35500,
      "d": 285,
      "v": 80
    },
    {
      "midi": 74,
      "hit": false,
      "t": 35605,
      "d": 195,
      "v": 67
    },
    {
      "midi": 60,
      "hit": false,
      "t": 35725,
      "d": 380,
      "v": 86
    },
    {
      "midi": 72,
      "hit": false,
      "t": 35800,
      "d": 200,
      "v": 77
    },
    {
      "midi": 48,
      "hit": false,
      "t": 36000,
      "d": 400,
      "v": 58
    },
    {
      "midi": 67,
      "hit": false,
      "t": 36050,
      "d": 285,
      "v": 77
    },
    {
      "midi": 67,
      "hit": false,
      "t": 36400,
      "d": 250,
      "v": 65
    },
    {
      "midi": 67,
      "hit": false,
      "t": 36510,
      "d": 245,
      "v": 87
    },
    {
      "midi": 58,
      "hit": false,
      "t": 36600,
      "d": 400,
      "v": 67
    },
    {
      "midi": 60,
      "hit": false,
      "t": 36600,
      "d": 400,
      "v": 40
    },
    {
      "midi": 64,
      "hit": false,
      "t": 36600,
      "d": 400,
      "v": 69
    },
    {
      "midi": 52,
      "hit": false,
      "t": 36650,
      "d": 350,
      "v": 17
    },
    {
      "midi": 55,
      "hit": false,
      "t": 36650,
      "d": 350,
      "v": 41
    },
    {
      "midi": 67,
      "hit": false,
      "t": 36775,
      "d": 200,
      "v": 81
    },
    {
      "midi": 69,
      "hit": false,
      "t": 36950,
      "d": 110,
      "v": 95
    },
    {
      "midi": 72,
      "hit": false,
      "t": 37000,
      "d": 210,
      "v": 79
    },
    {
      "midi": 68,
      "hit": false,
      "t": 37185,
      "d": 50,
      "v": 51
    },
    {
      "midi": 70,
      "hit": false,
      "t": 37185,
      "d": 340,
      "v": 86
    },
    {
      "midi": 67,
      "hit": false,
      "t": 37200,
      "d": 400,
      "v": 55
    },
    {
      "midi": 43,
      "hit": false,
      "t": 37210,
      "d": 390,
      "v": 68
    },
    {
      "midi": 72,
      "hit": false,
      "t": 37525,
      "d": 1065,
      "v": 86
    },
    {
      "midi": 76,
      "hit": false,
      "t": 37600,
      "d": 545,
      "v": 64
    },
    {
      "midi": 52,
      "hit": false,
      "t": 37800,
      "d": 600,
      "v": 45
    },
    {
      "midi": 55,
      "hit": false,
      "t": 37800,
      "d": 600,
      "v": 47
    },
    {
      "midi": 58,
      "hit": false,
      "t": 37800,
      "d": 600,
      "v": 67
    },
    {
      "midi": 60,
      "hit": false,
      "t": 37800,
      "d": 600,
      "v": 40
    },
    {
      "midi": 72,
      "hit": false,
      "t": 37800,
      "d": 600,
      "v": 74
    },
    {
      "midi": 67,
      "hit": false,
      "t": 37985,
      "d": 80,
      "v": 81
    },
    {
      "midi": 69,
      "hit": false,
      "t": 38055,
      "d": 310,
      "v": 67
    },
    {
      "midi": 67,
      "hit": false,
      "t": 38335,
      "d": 305,
      "v": 86
    },
    {
      "midi": 53,
      "hit": false,
      "t": 38400,
      "d": 260,
      "v": 82
    },
    {
      "midi": 65,
      "hit": false,
      "t": 38600,
      "d": 3645,
      "v": 97
    },
    {
      "midi": 81,
      "hit": false,
      "t": 38800,
      "d": 185,
      "v": 49
    },
    {
      "midi": 65,
      "hit": false,
      "t": 39000,
      "d": 150,
      "v": 47
    },
    {
      "midi": 69,
      "hit": false,
      "t": 39000,
      "d": 165,
      "v": 55
    },
    {
      "midi": 60,
      "hit": false,
      "t": 39000,
      "d": 170,
      "v": 52
    },
    {
      "midi": 63,
      "hit": false,
      "t": 39000,
      "d": 170,
      "v": 68
    },
    {
      "midi": 84,
      "hit": false,
      "t": 39000,
      "d": 200,
      "v": 74
    },
    {
      "midi": 86,
      "hit": false,
      "t": 39200,
      "d": 170,
      "v": 44
    },
    {
      "midi": 89,
      "hit": false,
      "t": 39400,
      "d": 310,
      "v": 68
    },
    {
      "midi": 48,
      "hit": false,
      "t": 39600,
      "d": 180,
      "v": 70
    },
    {
      "midi": 86,
      "hit": false,
      "t": 39600,
      "d": 385,
      "v": 54
    },
    {
      "midi": 84,
      "hit": false,
      "t": 40000,
      "d": 1160,
      "v": 63
    },
    {
      "midi": 63,
      "hit": false,
      "t": 40200,
      "d": 195,
      "v": 60
    },
    {
      "midi": 60,
      "hit": false,
      "t": 40200,
      "d": 205,
      "v": 48
    },
    {
      "midi": 65,
      "hit": false,
      "t": 40200,
      "d": 205,
      "v": 46
    },
    {
      "midi": 69,
      "hit": false,
      "t": 40200,
      "d": 205,
      "v": 49
    },
    {
      "midi": 53,
      "hit": false,
      "t": 40800,
      "d": 185,
      "v": 78
    },
    {
      "midi": 62,
      "hit": false,
      "t": 40825,
      "d": 790,
      "v": 27
    },
    {
      "midi": 81,
      "hit": false,
      "t": 41200,
      "d": 160,
      "v": 69
    },
    {
      "midi": 60,
      "hit": false,
      "t": 41400,
      "d": 250,
      "v": 53
    },
    {
      "midi": 63,
      "hit": false,
      "t": 41400,
      "d": 250,
      "v": 63
    },
    {
      "midi": 65,
      "hit": false,
      "t": 41400,
      "d": 250,
      "v": 50
    },
    {
      "midi": 69,
      "hit": false,
      "t": 41400,
      "d": 250,
      "v": 61
    },
    {
      "midi": 84,
      "hit": false,
      "t": 41400,
      "d": 250,
      "v": 79
    },
    {
      "midi": 89,
      "hit": false,
      "t": 41400,
      "d": 250,
      "v": 84
    },
    {
      "midi": 86,
      "hit": false,
      "t": 41600,
      "d": 150,
      "v": 49
    },
    {
      "midi": 86,
      "hit": false,
      "t": 41800,
      "d": 210,
      "v": 80
    },
    {
      "midi": 89,
      "hit": false,
      "t": 41800,
      "d": 1205,
      "v": 76
    },
    {
      "midi": 48,
      "hit": false,
      "t": 42010,
      "d": 160,
      "v": 64
    },
    {
      "midi": 84,
      "hit": false,
      "t": 42010,
      "d": 390,
      "v": 70
    },
    {
      "midi": 81,
      "hit": false,
      "t": 42400,
      "d": 610,
      "v": 61
    },
    {
      "midi": 63,
      "hit": false,
      "t": 42600,
      "d": 380,
      "v": 59
    },
    {
      "midi": 60,
      "hit": false,
      "t": 42600,
      "d": 385,
      "v": 36
    },
    {
      "midi": 65,
      "hit": false,
      "t": 42600,
      "d": 385,
      "v": 48
    },
    {
      "midi": 69,
      "hit": false,
      "t": 42600,
      "d": 400,
      "v": 54
    },
    {
      "midi": 65,
      "hit": false,
      "t": 42880,
      "d": 275,
      "v": 87
    },
    {
      "midi": 48,
      "hit": false,
      "t": 43200,
      "d": 295,
      "v": 79
    },
    {
      "midi": 65,
      "hit": false,
      "t": 43250,
      "d": 285,
      "v": 87
    },
    {
      "midi": 64,
      "hit": false,
      "t": 43495,
      "d": 320,
      "v": 80
    },
    {
      "midi": 60,
      "hit": false,
      "t": 43800,
      "d": 225,
      "v": 63
    },
    {
      "midi": 64,
      "hit": false,
      "t": 43800,
      "d": 225,
      "v": 69
    },
    {
      "midi": 55,
      "hit": false,
      "t": 43800,
      "d": 240,
      "v": 59
    },
    {
      "midi": 64,
      "hit": false,
      "t": 43865,
      "d": 230,
      "v": 84
    },
    {
      "midi": 79,
      "hit": false,
      "t": 44200,
      "d": 180,
      "v": 97
    },
    {
      "midi": 84,
      "hit": false,
      "t": 44200,
      "d": 745,
      "v": 90
    },
    {
      "midi": 64,
      "hit": false,
      "t": 44245,
      "d": 155,
      "v": 93
    },
    {
      "midi": 81,
      "hit": false,
      "t": 44300,
      "d": 645,
      "v": 70
    },
    {
      "midi": 65,
      "hit": false,
      "t": 44320,
      "d": 510,
      "v": 91
    },
    {
      "midi": 43,
      "hit": false,
      "t": 44400,
      "d": 225,
      "v": 68
    },
    {
      "midi": 79,
      "hit": false,
      "t": 44800,
      "d": 160,
      "v": 73
    },
    {
      "midi": 64,
      "hit": false,
      "t": 44905,
      "d": 415,
      "v": 87
    },
    {
      "midi": 74,
      "hit": false,
      "t": 45000,
      "d": 170,
      "v": 95
    },
    {
      "midi": 55,
      "hit": false,
      "t": 45000,
      "d": 205,
      "v": 48
    },
    {
      "midi": 60,
      "hit": false,
      "t": 45000,
      "d": 205,
      "v": 56
    },
    {
      "midi": 64,
      "hit": false,
      "t": 45000,
      "d": 205,
      "v": 47
    },
    {
      "midi": 79,
      "hit": false,
      "t": 45000,
      "d": 575,
      "v": 84
    },
    {
      "midi": 76,
      "hit": false,
      "t": 45100,
      "d": 285,
      "v": 80
    },
    {
      "midi": 62,
      "hit": false,
      "t": 45180,
      "d": 195,
      "v": 84
    },
    {
      "midi": 74,
      "hit": false,
      "t": 45205,
      "d": 195,
      "v": 67
    },
    {
      "midi": 60,
      "hit": false,
      "t": 45355,
      "d": 190,
      "v": 81
    },
    {
      "midi": 72,
      "hit": false,
      "t": 45400,
      "d": 200,
      "v": 77
    },
    {
      "midi": 62,
      "hit": false,
      "t": 45580,
      "d": 790,
      "v": 100
    },
    {
      "midi": 43,
      "hit": false,
      "t": 45600,
      "d": 600,
      "v": 89
    },
    {
      "midi": 47,
      "hit": false,
      "t": 46200,
      "d": 200,
      "v": 68
    },
    {
      "midi": 50,
      "hit": false,
      "t": 46200,
      "d": 200,
      "v": 58
    },
    {
      "midi": 55,
      "hit": false,
      "t": 46200,
      "d": 200,
      "v": 46
    },
    {
      "midi": 62,
      "hit": false,
      "t": 46200,
      "d": 200,
      "v": 77
    },
    {
      "midi": 59,
      "hit": false,
      "t": 46400,
      "d": 200,
      "v": 53
    },
    {
      "midi": 62,
      "hit": false,
      "t": 46450,
      "d": 190,
      "v": 93
    },
    {
      "midi": 62,
      "hit": false,
      "t": 46600,
      "d": 200,
      "v": 74
    },
    {
      "midi": 64,
      "hit": false,
      "t": 46600,
      "d": 190,
      "v": 93
    },
    {
      "midi": 38,
      "hit": false,
      "t": 46800,
      "d": 200,
      "v": 76
    },
    {
      "midi": 67,
      "hit": false,
      "t": 46800,
      "d": 400,
      "v": 87
    },
    {
      "midi": 65,
      "hit": false,
      "t": 46825,
      "d": 355,
      "v": 102
    },
    {
      "midi": 62,
      "hit": false,
      "t": 47000,
      "d": 200,
      "v": 79
    },
    {
      "midi": 71,
      "hit": false,
      "t": 47200,
      "d": 800,
      "v": 85
    },
    {
      "midi": 47,
      "hit": false,
      "t": 47400,
      "d": 600,
      "v": 59
    },
    {
      "midi": 50,
      "hit": false,
      "t": 47400,
      "d": 600,
      "v": 67
    },
    {
      "midi": 55,
      "hit": false,
      "t": 47400,
      "d": 600,
      "v": 66
    },
    {
      "midi": 67,
      "hit": false,
      "t": 47600,
      "d": 110,
      "v": 63
    },
    {
      "midi": 62,
      "hit": false,
      "t": 47600,
      "d": 120,
      "v": 86
    },
    {
      "midi": 64,
      "hit": false,
      "t": 47705,
      "d": 200,
      "v": 73
    },
    {
      "midi": 62,
      "hit": false,
      "t": 47865,
      "d": 175,
      "v": 87
    },
    {
      "midi": 48,
      "hit": false,
      "t": 48000,
      "d": 400,
      "v": 73
    },
    {
      "midi": 60,
      "hit": false,
      "t": 48090,
      "d": 2360,
      "v": 100
    },
    {
      "midi": 72,
      "hit": false,
      "t": 48400,
      "d": 390,
      "v": 69
    },
    {
      "midi": 64,
      "hit": false,
      "t": 48600,
      "d": 310,
      "v": 47
    },
    {
      "midi": 60,
      "hit": false,
      "t": 48600,
      "d": 315,
      "v": 52
    },
    {
      "midi": 55,
      "hit": false,
      "t": 48600,
      "d": 350,
      "v": 45
    },
    {
      "midi": 67,
      "hit": false,
      "t": 48600,
      "d": 400,
      "v": 64
    },
    {
      "midi": 79,
      "hit": false,
      "t": 49000,
      "d": 1380,
      "v": 81
    },
    {
      "midi": 43,
      "hit": false,
      "t": 49200,
      "d": 285,
      "v": 44
    },
    {
      "midi": 60,
      "hit": false,
      "t": 49800,
      "d": 495,
      "v": 68
    },
    {
      "midi": 64,
      "hit": false,
      "t": 49800,
      "d": 495,
      "v": 37
    },
    {
      "midi": 55,
      "hit": false,
      "t": 49800,
      "d": 510,
      "v": 51
    },
    {
      "midi": 48,
      "hit": false,
      "t": 50400,
      "d": 400,
      "v": 58
    },
    {
      "midi": 67,
      "hit": false,
      "t": 50800,
      "d": 250,
      "v": 65
    },
    {
      "midi": 58,
      "hit": false,
      "t": 51000,
      "d": 400,
      "v": 67
    },
    {
      "midi": 60,
      "hit": false,
      "t": 51000,
      "d": 400,
      "v": 40
    },
    {
      "midi": 64,
      "hit": false,
      "t": 51000,
      "d": 400,
      "v": 69
    },
    {
      "midi": 72,
      "hit": false,
      "t": 51020,
      "d": 320,
      "v": 95
    },
    {
      "midi": 52,
      "hit": false,
      "t": 51050,
      "d": 350,
      "v": 17
    },
    {
      "midi": 55,
      "hit": false,
      "t": 51050,
      "d": 350,
      "v": 41
    },
    {
      "midi": 72,
      "hit": false,
      "t": 51400,
      "d": 210,
      "v": 79
    },
    {
      "midi": 74,
      "hit": false,
      "t": 51440,
      "d": 160,
      "v": 93
    },
    {
      "midi": 79,
      "hit": false,
      "t": 51460,
      "d": 150,
      "v": 56
    },
    {
      "midi": 67,
      "hit": false,
      "t": 51600,
      "d": 400,
      "v": 55
    },
    {
      "midi": 43,
      "hit": false,
      "t": 51610,
      "d": 390,
      "v": 68
    },
    {
      "midi": 74,
      "hit": false,
      "t": 51620,
      "d": 135,
      "v": 89
    },
    {
      "midi": 79,
      "hit": false,
      "t": 51620,
      "d": 315,
      "v": 93
    },
    {
      "midi": 76,
      "hit": false,
      "t": 51715,
      "d": 230,
      "v": 71
    },
    {
      "midi": 76,
      "hit": false,
      "t": 52000,
      "d": 545,
      "v": 64
    },
    {
      "midi": 74,
      "hit": false,
      "t": 52115,
      "d": 100,
      "v": 87
    },
    {
      "midi": 76,
      "hit": false,
      "t": 52115,
      "d": 355,
      "v": 71
    },
    {
      "midi": 79,
      "hit": false,
      "t": 52115,
      "d": 665,
      "v": 74
    },
    {
      "midi": 52,
      "hit": false,
      "t": 52200,
      "d": 600,
      "v": 45
    },
    {
      "midi": 55,
      "hit": false,
      "t": 52200,
      "d": 600,
      "v": 47
    },
    {
      "midi": 58,
      "hit": false,
      "t": 52200,
      "d": 600,
      "v": 67
    },
    {
      "midi": 60,
      "hit": false,
      "t": 52200,
      "d": 600,
      "v": 40
    },
    {
      "midi": 72,
      "hit": false,
      "t": 52200,
      "d": 600,
      "v": 74
    },
    {
      "midi": 74,
      "hit": false,
      "t": 52420,
      "d": 195,
      "v": 87
    },
    {
      "midi": 72,
      "hit": false,
      "t": 52595,
      "d": 155,
      "v": 97
    },
    {
      "midi": 57,
      "hit": false,
      "t": 52800,
      "d": 1640,
      "v": 72
    },
    {
      "midi": 60,
      "hit": false,
      "t": 52800,
      "d": 1640,
      "v": 72
    },
    {
      "midi": 65,
      "hit": false,
      "t": 52800,
      "d": 1640,
      "v": 72
    },
    {
      "midi": 72,
      "hit": false,
      "t": 52830,
      "d": 115,
      "v": 86
    },
    {
      "midi": 77,
      "hit": false,
      "t": 52840,
      "d": 1205,
      "v": 84
    },
    {
      "midi": 74,
      "hit": false,
      "t": 52910,
      "d": 370,
      "v": 73
    },
    {
      "midi": 72,
      "hit": false,
      "t": 53200,
      "d": 230,
      "v": 66
    },
    {
      "midi": 72,
      "hit": false,
      "t": 53315,
      "d": 2310,
      "v": 91
    },
    {
      "midi": 84,
      "hit": false,
      "t": 53400,
      "d": 1970,
      "v": 73
    },
    {
      "midi": 79,
      "hit": false,
      "t": 53600,
      "d": 280,
      "v": 67
    },
    {
      "midi": 81,
      "hit": false,
      "t": 53800,
      "d": 1520,
      "v": 54
    },
    {
      "midi": 69,
      "hit": false,
      "t": 53835,
      "d": 105,
      "v": 89
    },
    {
      "midi": 67,
      "hit": false,
      "t": 53925,
      "d": 250,
      "v": 89
    },
    {
      "midi": 69,
      "hit": false,
      "t": 54125,
      "d": 1800,
      "v": 105
    },
    {
      "midi": 57,
      "hit": false,
      "t": 55200,
      "d": 1975,
      "v": 68
    },
    {
      "midi": 60,
      "hit": false,
      "t": 55200,
      "d": 1975,
      "v": 68
    },
    {
      "midi": 65,
      "hit": false,
      "t": 55200,
      "d": 1975,
      "v": 68
    },
    {
      "midi": 79,
      "hit": false,
      "t": 55800,
      "d": 85,
      "v": 86
    },
    {
      "midi": 81,
      "hit": false,
      "t": 55800,
      "d": 175,
      "v": 64
    },
    {
      "midi": 84,
      "hit": false,
      "t": 55800,
      "d": 225,
      "v": 79
    },
    {
      "midi": 69,
      "hit": false,
      "t": 56020,
      "d": 185,
      "v": 89
    },
    {
      "midi": 77,
      "hit": false,
      "t": 56025,
      "d": 325,
      "v": 71
    },
    {
      "midi": 71,
      "hit": false,
      "t": 56165,
      "d": 100,
      "v": 95
    },
    {
      "midi": 71,
      "hit": false,
      "t": 56385,
      "d": 80,
      "v": 86
    },
    {
      "midi": 77,
      "hit": false,
      "t": 56385,
      "d": 315,
      "v": 67
    },
    {
      "midi": 72,
      "hit": false,
      "t": 56390,
      "d": 295,
      "v": 95
    },
    {
      "midi": 81,
      "hit": false,
      "t": 56400,
      "d": 400,
      "v": 81
    },
    {
      "midi": 84,
      "hit": false,
      "t": 56400,
      "d": 860,
      "v": 75
    },
    {
      "midi": 79,
      "hit": false,
      "t": 56800,
      "d": 200,
      "v": 62
    },
    {
      "midi": 72,
      "hit": false,
      "t": 56850,
      "d": 510,
      "v": 93
    },
    {
      "midi": 77,
      "hit": false,
      "t": 56855,
      "d": 615,
      "v": 62
    },
    {
      "midi": 77,
      "hit": false,
      "t": 57000,
      "d": 260,
      "v": 69
    },
    {
      "midi": 71,
      "hit": false,
      "t": 57175,
      "d": 220,
      "v": 102
    },
    {
      "midi": 69,
      "hit": false,
      "t": 57370,
      "d": 150,
      "v": 93
    },
    {
      "midi": 55,
      "hit": false,
      "t": 57600,
      "d": 2035,
      "v": 70
    },
    {
      "midi": 60,
      "hit": false,
      "t": 57600,
      "d": 2035,
      "v": 70
    },
    {
      "midi": 64,
      "hit": false,
      "t": 57600,
      "d": 2035,
      "v": 70
    },
    {
      "midi": 67,
      "hit": false,
      "t": 57610,
      "d": 520,
      "v": 93
    },
    {
      "midi": 72,
      "hit": false,
      "t": 57620,
      "d": 2340,
      "v": 95
    },
    {
      "midi": 65,
      "hit": false,
      "t": 58115,
      "d": 355,
      "v": 102
    },
    {
      "midi": 74,
      "hit": false,
      "t": 58200,
      "d": 115,
      "v": 86
    },
    {
      "midi": 79,
      "hit": false,
      "t": 58200,
      "d": 255,
      "v": 77
    },
    {
      "midi": 76,
      "hit": false,
      "t": 58300,
      "d": 185,
      "v": 66
    },
    {
      "midi": 64,
      "hit": false,
      "t": 58430,
      "d": 240,
      "v": 91
    },
    {
      "midi": 65,
      "hit": false,
      "t": 58630,
      "d": 175,
      "v": 91
    },
    {
      "midi": 76,
      "hit": false,
      "t": 58800,
      "d": 410,
      "v": 71
    },
    {
      "midi": 79,
      "hit": false,
      "t": 58800,
      "d": 1245,
      "v": 63
    },
    {
      "midi": 67,
      "hit": false,
      "t": 58855,
      "d": 1905,
      "v": 81
    },
    {
      "midi": 74,
      "hit": false,
      "t": 59200,
      "d": 205,
      "v": 70
    },
    {
      "midi": 72,
      "hit": false,
      "t": 59405,
      "d": 640,
      "v": 68
    },
    {
      "midi": 55,
      "hit": false,
      "t": 60000,
      "d": 1830,
      "v": 73
    },
    {
      "midi": 60,
      "hit": false,
      "t": 60000,
      "d": 1830,
      "v": 73
    },
    {
      "midi": 64,
      "hit": false,
      "t": 60000,
      "d": 1830,
      "v": 73
    },
    {
      "midi": 74,
      "hit": false,
      "t": 60600,
      "d": 100,
      "v": 88
    },
    {
      "midi": 79,
      "hit": false,
      "t": 60600,
      "d": 300,
      "v": 76
    },
    {
      "midi": 76,
      "hit": false,
      "t": 60700,
      "d": 200,
      "v": 43
    },
    {
      "midi": 67,
      "hit": false,
      "t": 60840,
      "d": 145,
      "v": 77
    },
    {
      "midi": 67,
      "hit": false,
      "t": 61030,
      "d": 110,
      "v": 100
    },
    {
      "midi": 76,
      "hit": false,
      "t": 61200,
      "d": 400,
      "v": 80
    },
    {
      "midi": 79,
      "hit": false,
      "t": 61200,
      "d": 900,
      "v": 70
    },
    {
      "midi": 67,
      "hit": false,
      "t": 61245,
      "d": 450,
      "v": 93
    },
    {
      "midi": 65,
      "hit": false,
      "t": 61255,
      "d": 25,
      "v": 69
    },
    {
      "midi": 74,
      "hit": false,
      "t": 61600,
      "d": 280,
      "v": 73
    },
    {
      "midi": 65,
      "hit": false,
      "t": 61710,
      "d": 315,
      "v": 107
    },
    {
      "midi": 72,
      "hit": false,
      "t": 61800,
      "d": 270,
      "v": 68
    },
    {
      "midi": 64,
      "hit": false,
      "t": 62015,
      "d": 295,
      "v": 95
    },
    {
      "midi": 62,
      "hit": false,
      "t": 62360,
      "d": 120,
      "v": 95
    },
    {
      "midi": 67,
      "hit": false,
      "t": 62360,
      "d": 2560,
      "v": 78
    },
    {
      "midi": 59,
      "hit": false,
      "t": 62400,
      "d": 1640,
      "v": 72
    },
    {
      "midi": 65,
      "hit": false,
      "t": 62400,
      "d": 1640,
      "v": 72
    },
    {
      "midi": 67,
      "hit": false,
      "t": 62400,
      "d": 1640,
      "v": 72
    },
    {
      "midi": 64,
      "hit": false,
      "t": 62445,
      "d": 330,
      "v": 70
    },
    {
      "midi": 62,
      "hit": false,
      "t": 62800,
      "d": 230,
      "v": 66
    },
    {
      "midi": 74,
      "hit": false,
      "t": 63000,
      "d": 1970,
      "v": 73
    },
    {
      "midi": 69,
      "hit": false,
      "t": 63200,
      "d": 280,
      "v": 67
    },
    {
      "midi": 62,
      "hit": false,
      "t": 63320,
      "d": 40,
      "v": 87
    },
    {
      "midi": 71,
      "hit": false,
      "t": 63400,
      "d": 1520,
      "v": 54
    },
    {
      "midi": 64,
      "hit": false,
      "t": 63400,
      "d": 240,
      "v": 69
    },
    {
      "midi": 62,
      "hit": false,
      "t": 63690,
      "d": 1095,
      "v": 97
    },
    {
      "midi": 59,
      "hit": false,
      "t": 64800,
      "d": 1975,
      "v": 68
    },
    {
      "midi": 62,
      "hit": false,
      "t": 64800,
      "d": 1975,
      "v": 68
    },
    {
      "midi": 65,
      "hit": false,
      "t": 64800,
      "d": 1975,
      "v": 68
    },
    {
      "midi": 69,
      "hit": false,
      "t": 65400,
      "d": 85,
      "v": 86
    },
    {
      "midi": 71,
      "hit": false,
      "t": 65400,
      "d": 175,
      "v": 64
    },
    {
      "midi": 74,
      "hit": false,
      "t": 65400,
      "d": 225,
      "v": 79
    },
    {
      "midi": 67,
      "hit": false,
      "t": 65835,
      "d": 125,
      "v": 107
    },
    {
      "midi": 67,
      "hit": false,
      "t": 65995,
      "d": 115,
      "v": 89
    },
    {
      "midi": 71,
      "hit": false,
      "t": 66000,
      "d": 400,
      "v": 81
    },
    {
      "midi": 74,
      "hit": false,
      "t": 66000,
      "d": 860,
      "v": 75
    },
    {
      "midi": 69,
      "hit": false,
      "t": 66060,
      "d": 425,
      "v": 87
    },
    {
      "midi": 69,
      "hit": false,
      "t": 66400,
      "d": 200,
      "v": 62
    },
    {
      "midi": 67,
      "hit": false,
      "t": 66515,
      "d": 280,
      "v": 91
    },
    {
      "midi": 67,
      "hit": false,
      "t": 66600,
      "d": 175,
      "v": 69
    },
    {
      "midi": 67,
      "hit": false,
      "t": 66810,
      "d": 205,
      "v": 74
    },
    {
      "midi": 65,
      "hit": false,
      "t": 66975,
      "d": 175,
      "v": 95
    },
    {
      "midi": 48,
      "hit": false,
      "t": 67200,
      "d": 600,
      "v": 89
    },
    {
      "midi": 64,
      "hit": false,
      "t": 67225,
      "d": 715,
      "v": 93
    },
    {
      "midi": 62,
      "hit": false,
      "t": 67715,
      "d": 390,
      "v": 91
    },
    {
      "midi": 52,
      "hit": false,
      "t": 67800,
      "d": 200,
      "v": 68
    },
    {
      "midi": 55,
      "hit": false,
      "t": 67800,
      "d": 200,
      "v": 58
    },
    {
      "midi": 60,
      "hit": false,
      "t": 67800,
      "d": 200,
      "v": 46
    },
    {
      "midi": 67,
      "hit": false,
      "t": 67800,
      "d": 200,
      "v": 77
    },
    {
      "midi": 60,
      "hit": false,
      "t": 67965,
      "d": 300,
      "v": 86
    },
    {
      "midi": 64,
      "hit": false,
      "t": 68000,
      "d": 200,
      "v": 53
    },
    {
      "midi": 64,
      "hit": false,
      "t": 68085,
      "d": 170,
      "v": 52
    },
    {
      "midi": 67,
      "hit": false,
      "t": 68200,
      "d": 200,
      "v": 74
    },
    {
      "midi": 62,
      "hit": false,
      "t": 68215,
      "d": 175,
      "v": 107
    },
    {
      "midi": 43,
      "hit": false,
      "t": 68400,
      "d": 200,
      "v": 76
    },
    {
      "midi": 72,
      "hit": false,
      "t": 68400,
      "d": 400,
      "v": 87
    },
    {
      "midi": 64,
      "hit": false,
      "t": 68400,
      "d": 1440,
      "v": 93
    },
    {
      "midi": 67,
      "hit": false,
      "t": 68600,
      "d": 200,
      "v": 79
    },
    {
      "midi": 76,
      "hit": false,
      "t": 68800,
      "d": 800,
      "v": 85
    },
    {
      "midi": 52,
      "hit": false,
      "t": 69000,
      "d": 600,
      "v": 59
    },
    {
      "midi": 55,
      "hit": false,
      "t": 69000,
      "d": 600,
      "v": 67
    },
    {
      "midi": 60,
      "hit": false,
      "t": 69000,
      "d": 600,
      "v": 66
    },
    {
      "midi": 48,
      "hit": false,
      "t": 69600,
      "d": 600,
      "v": 89
    },
    {
      "midi": 52,
      "hit": false,
      "t": 70200,
      "d": 200,
      "v": 68
    },
    {
      "midi": 55,
      "hit": false,
      "t": 70200,
      "d": 200,
      "v": 58
    },
    {
      "midi": 60,
      "hit": false,
      "t": 70200,
      "d": 200,
      "v": 46
    },
    {
      "midi": 67,
      "hit": false,
      "t": 70200,
      "d": 200,
      "v": 77
    },
    {
      "midi": 72,
      "hit": false,
      "t": 70280,
      "d": 205,
      "v": 105
    },
    {
      "midi": 64,
      "hit": false,
      "t": 70400,
      "d": 200,
      "v": 53
    },
    {
      "midi": 74,
      "hit": false,
      "t": 70440,
      "d": 145,
      "v": 100
    },
    {
      "midi": 67,
      "hit": false,
      "t": 70600,
      "d": 200,
      "v": 74
    },
    {
      "midi": 72,
      "hit": false,
      "t": 70625,
      "d": 100,
      "v": 87
    },
    {
      "midi": 74,
      "hit": false,
      "t": 70630,
      "d": 100,
      "v": 91
    },
    {
      "midi": 76,
      "hit": false,
      "t": 70715,
      "d": 455,
      "v": 84
    },
    {
      "midi": 43,
      "hit": false,
      "t": 70800,
      "d": 200,
      "v": 76
    },
    {
      "midi": 72,
      "hit": false,
      "t": 70800,
      "d": 400,
      "v": 87
    },
    {
      "midi": 67,
      "hit": false,
      "t": 71000,
      "d": 200,
      "v": 79
    },
    {
      "midi": 76,
      "hit": false,
      "t": 71200,
      "d": 800,
      "v": 85
    },
    {
      "midi": 52,
      "hit": false,
      "t": 71400,
      "d": 600,
      "v": 59
    },
    {
      "midi": 55,
      "hit": false,
      "t": 71400,
      "d": 600,
      "v": 67
    },
    {
      "midi": 60,
      "hit": false,
      "t": 71400,
      "d": 600,
      "v": 66
    },
    {
      "midi": 74,
      "hit": false,
      "t": 71455,
      "d": 155,
      "v": 87
    },
    {
      "midi": 79,
      "hit": false,
      "t": 71460,
      "d": 20,
      "v": 64
    },
    {
      "midi": 76,
      "hit": false,
      "t": 71555,
      "d": 165,
      "v": 74
    },
    {
      "midi": 74,
      "hit": false,
      "t": 71650,
      "d": 170,
      "v": 60
    },
    {
      "midi": 72,
      "hit": false,
      "t": 71785,
      "d": 160,
      "v": 97
    },
    {
      "midi": 57,
      "hit": false,
      "t": 72000,
      "d": 2035,
      "v": 70
    },
    {
      "midi": 60,
      "hit": false,
      "t": 72000,
      "d": 2035,
      "v": 70
    },
    {
      "midi": 65,
      "hit": false,
      "t": 72000,
      "d": 2035,
      "v": 70
    },
    {
      "midi": 72,
      "hit": false,
      "t": 72045,
      "d": 125,
      "v": 105
    },
    {
      "midi": 77,
      "hit": false,
      "t": 72045,
      "d": 2580,
      "v": 91
    },
    {
      "midi": 74,
      "hit": false,
      "t": 72135,
      "d": 355,
      "v": 86
    },
    {
      "midi": 72,
      "hit": false,
      "t": 72515,
      "d": 610,
      "v": 97
    },
    {
      "midi": 79,
      "hit": false,
      "t": 72600,
      "d": 115,
      "v": 86
    },
    {
      "midi": 84,
      "hit": false,
      "t": 72600,
      "d": 255,
      "v": 77
    },
    {
      "midi": 81,
      "hit": false,
      "t": 72700,
      "d": 185,
      "v": 66
    },
    {
      "midi": 69,
      "hit": false,
      "t": 73115,
      "d": 1865,
      "v": 107
    },
    {
      "midi": 81,
      "hit": false,
      "t": 73200,
      "d": 410,
      "v": 71
    },
    {
      "midi": 84,
      "hit": false,
      "t": 73200,
      "d": 1245,
      "v": 63
    },
    {
      "midi": 79,
      "hit": false,
      "t": 73600,
      "d": 205,
      "v": 70
    },
    {
      "midi": 77,
      "hit": false,
      "t": 73805,
      "d": 640,
      "v": 68
    },
    {
      "midi": 57,
      "hit": false,
      "t": 74400,
      "d": 1830,
      "v": 73
    },
    {
      "midi": 60,
      "hit": false,
      "t": 74400,
      "d": 1830,
      "v": 73
    },
    {
      "midi": 65,
      "hit": false,
      "t": 74400,
      "d": 1830,
      "v": 73
    },
    {
      "midi": 65,
      "hit": false,
      "t": 74910,
      "d": 1500,
      "v": 107
    },
    {
      "midi": 79,
      "hit": false,
      "t": 75000,
      "d": 100,
      "v": 88
    },
    {
      "midi": 84,
      "hit": false,
      "t": 75000,
      "d": 300,
      "v": 76
    },
    {
      "midi": 81,
      "hit": false,
      "t": 75100,
      "d": 200,
      "v": 43
    },
    {
      "midi": 69,
      "hit": false,
      "t": 75135,
      "d": 240,
      "v": 89
    },
    {
      "midi": 72,
      "hit": false,
      "t": 75330,
      "d": 170,
      "v": 93
    },
    {
      "midi": 81,
      "hit": false,
      "t": 75600,
      "d": 400,
      "v": 80
    },
    {
      "midi": 84,
      "hit": false,
      "t": 75600,
      "d": 900,
      "v": 70
    },
    {
      "midi": 72,
      "hit": false,
      "t": 75635,
      "d": 150,
      "v": 102
    },
    {
      "midi": 74,
      "hit": false,
      "t": 75745,
      "d": 305,
      "v": 82
    },
    {
      "midi": 79,
      "hit": false,
      "t": 76000,
      "d": 280,
      "v": 73
    },
    {
      "midi": 77,
      "hit": false,
      "t": 76200,
      "d": 270,
      "v": 68
    },
    {
      "midi": 71,
      "hit": false,
      "t": 76410,
      "d": 350,
      "v": 86
    },
    {
      "midi": 69,
      "hit": false,
      "t": 76615,
      "d": 160,
      "v": 107
    },
    {
      "midi": 55,
      "hit": false,
      "t": 76800,
      "d": 1640,
      "v": 72
    },
    {
      "midi": 60,
      "hit": false,
      "t": 76800,
      "d": 1640,
      "v": 72
    },
    {
      "midi": 64,
      "hit": false,
      "t": 76800,
      "d": 1640,
      "v": 72
    },
    {
      "midi": 72,
      "hit": false,
      "t": 76850,
      "d": 10,
      "v": 89
    },
    {
      "midi": 67,
      "hit": false,
      "t": 76850,
      "d": 485,
      "v": 107
    },
    {
      "midi": 67,
      "hit": false,
      "t": 77200,
      "d": 230,
      "v": 66
    },
    {
      "midi": 65,
      "hit": false,
      "t": 77320,
      "d": 325,
      "v": 93
    },
    {
      "midi": 79,
      "hit": false,
      "t": 77400,
      "d": 1970,
      "v": 73
    },
    {
      "midi": 67,
      "hit": false,
      "t": 77415,
      "d": 2275,
      "v": 40
    },
    {
      "midi": 74,
      "hit": false,
      "t": 77600,
      "d": 280,
      "v": 67
    },
    {
      "midi": 76,
      "hit": false,
      "t": 77800,
      "d": 1520,
      "v": 54
    },
    {
      "midi": 64,
      "hit": false,
      "t": 77835,
      "d": 105,
      "v": 87
    },
    {
      "midi": 62,
      "hit": false,
      "t": 77950,
      "d": 195,
      "v": 84
    },
    {
      "midi": 60,
      "hit": false,
      "t": 78200,
      "d": 1420,
      "v": 84
    },
    {
      "midi": 55,
      "hit": false,
      "t": 79200,
      "d": 1975,
      "v": 68
    },
    {
      "midi": 60,
      "hit": false,
      "t": 79200,
      "d": 1975,
      "v": 68
    },
    {
      "midi": 64,
      "hit": false,
      "t": 79200,
      "d": 1975,
      "v": 68
    },
    {
      "midi": 64,
      "hit": false,
      "t": 79785,
      "d": 225,
      "v": 107
    },
    {
      "midi": 74,
      "hit": false,
      "t": 79800,
      "d": 85,
      "v": 86
    },
    {
      "midi": 76,
      "hit": false,
      "t": 79800,
      "d": 175,
      "v": 64
    },
    {
      "midi": 79,
      "hit": false,
      "t": 79800,
      "d": 225,
      "v": 79
    },
    {
      "midi": 65,
      "hit": false,
      "t": 79960,
      "d": 275,
      "v": 95
    },
    {
      "midi": 67,
      "hit": false,
      "t": 80180,
      "d": 690,
      "v": 95
    },
    {
      "midi": 76,
      "hit": false,
      "t": 80400,
      "d": 400,
      "v": 81
    },
    {
      "midi": 79,
      "hit": false,
      "t": 80400,
      "d": 860,
      "v": 75
    },
    {
      "midi": 74,
      "hit": false,
      "t": 80800,
      "d": 200,
      "v": 62
    },
    {
      "midi": 64,
      "hit": false,
      "t": 80905,
      "d": 435,
      "v": 107
    },
    {
      "midi": 72,
      "hit": false,
      "t": 81000,
      "d": 260,
      "v": 69
    },
    {
      "midi": 65,
      "hit": false,
      "t": 81220,
      "d": 315,
      "v": 89
    },
    {
      "midi": 67,
      "hit": false,
      "t": 81225,
      "d": 85,
      "v": 17
    },
    {
      "midi": 64,
      "hit": false,
      "t": 81440,
      "d": 120,
      "v": 91
    },
    {
      "midi": 59,
      "hit": false,
      "t": 81600,
      "d": 1640,
      "v": 72
    },
    {
      "midi": 65,
      "hit": false,
      "t": 81600,
      "d": 1640,
      "v": 72
    },
    {
      "midi": 67,
      "hit": false,
      "t": 81600,
      "d": 1640,
      "v": 72
    },
    {
      "midi": 64,
      "hit": false,
      "t": 81650,
      "d": 235,
      "v": 95
    },
    {
      "midi": 65,
      "hit": false,
      "t": 81840,
      "d": 160,
      "v": 78
    },
    {
      "midi": 64,
      "hit": false,
      "t": 81920,
      "d": 130,
      "v": 87
    },
    {
      "midi": 62,
      "hit": false,
      "t": 81985,
      "d": 445,
      "v": 82
    },
    {
      "midi": 62,
      "hit": false,
      "t": 82000,
      "d": 230,
      "v": 66
    },
    {
      "midi": 74,
      "hit": false,
      "t": 82200,
      "d": 1970,
      "v": 73
    },
    {
      "midi": 64,
      "hit": false,
      "t": 82345,
      "d": 320,
      "v": 95
    },
    {
      "midi": 69,
      "hit": false,
      "t": 82400,
      "d": 280,
      "v": 67
    },
    {
      "midi": 71,
      "hit": false,
      "t": 82600,
      "d": 1520,
      "v": 54
    },
    {
      "midi": 62,
      "hit": false,
      "t": 82720,
      "d": 1695,
      "v": 102
    },
    {
      "midi": 59,
      "hit": false,
      "t": 84000,
      "d": 1975,
      "v": 68
    },
    {
      "midi": 62,
      "hit": false,
      "t": 84000,
      "d": 1975,
      "v": 68
    },
    {
      "midi": 65,
      "hit": false,
      "t": 84000,
      "d": 1975,
      "v": 68
    },
    {
      "midi": 55,
      "hit": false,
      "t": 84380,
      "d": 645,
      "v": 107
    },
    {
      "midi": 69,
      "hit": false,
      "t": 84600,
      "d": 85,
      "v": 86
    },
    {
      "midi": 71,
      "hit": false,
      "t": 84600,
      "d": 175,
      "v": 64
    },
    {
      "midi": 74,
      "hit": false,
      "t": 84600,
      "d": 225,
      "v": 79
    },
    {
      "midi": 64,
      "hit": false,
      "t": 84870,
      "d": 415,
      "v": 86
    },
    {
      "midi": 71,
      "hit": false,
      "t": 85200,
      "d": 400,
      "v": 81
    },
    {
      "midi": 74,
      "hit": false,
      "t": 85200,
      "d": 860,
      "v": 75
    },
    {
      "midi": 65,
      "hit": false,
      "t": 85235,
      "d": 425,
      "v": 91
    },
    {
      "midi": 69,
      "hit": false,
      "t": 85600,
      "d": 200,
      "v": 62
    },
    {
      "midi": 67,
      "hit": false,
      "t": 85720,
      "d": 280,
      "v": 91
    },
    {
      "midi": 67,
      "hit": false,
      "t": 85800,
      "d": 175,
      "v": 69
    },
    {
      "midi": 67,
      "hit": false,
      "t": 86005,
      "d": 505,
      "v": 89
    },
    {
      "midi": 62,
      "hit": false,
      "t": 86010,
      "d": 130,
      "v": 97
    },
    {
      "midi": 64,
      "hit": false,
      "t": 86090,
      "d": 175,
      "v": 76
    },
    {
      "midi": 62,
      "hit": false,
      "t": 86220,
      "d": 165,
      "v": 73
    },
    {
      "midi": 55,
      "hit": false,
      "t": 86400,
      "d": 2035,
      "v": 70
    },
    {
      "midi": 60,
      "hit": false,
      "t": 86400,
      "d": 2035,
      "v": 70
    },
    {
      "midi": 64,
      "hit": false,
      "t": 86400,
      "d": 2035,
      "v": 70
    },
    {
      "midi": 60,
      "hit": false,
      "t": 86450,
      "d": 2390,
      "v": 107
    },
    {
      "midi": 74,
      "hit": false,
      "t": 87000,
      "d": 115,
      "v": 86
    },
    {
      "midi": 79,
      "hit": false,
      "t": 87000,
      "d": 255,
      "v": 77
    },
    {
      "midi": 76,
      "hit": false,
      "t": 87100,
      "d": 185,
      "v": 66
    },
    {
      "midi": 76,
      "hit": false,
      "t": 87600,
      "d": 410,
      "v": 71
    },
    {
      "midi": 79,
      "hit": false,
      "t": 87600,
      "d": 1245,
      "v": 63
    },
    {
      "midi": 74,
      "hit": false,
      "t": 88000,
      "d": 205,
      "v": 70
    },
    {
      "midi": 72,
      "hit": false,
      "t": 88205,
      "d": 640,
      "v": 68
    },
    {
      "midi": 55,
      "hit": false,
      "t": 88800,
      "d": 1830,
      "v": 73
    },
    {
      "midi": 60,
      "hit": false,
      "t": 88800,
      "d": 1830,
      "v": 73
    },
    {
      "midi": 64,
      "hit": false,
      "t": 88800,
      "d": 1830,
      "v": 73
    },
    {
      "midi": 74,
      "hit": false,
      "t": 89400,
      "d": 100,
      "v": 88
    },
    {
      "midi": 79,
      "hit": false,
      "t": 89400,
      "d": 300,
      "v": 76
    },
    {
      "midi": 76,
      "hit": false,
      "t": 89500,
      "d": 200,
      "v": 43
    },
    {
      "midi": 76,
      "hit": false,
      "t": 90000,
      "d": 400,
      "v": 80
    },
    {
      "midi": 79,
      "hit": false,
      "t": 90000,
      "d": 900,
      "v": 70
    },
    {
      "midi": 64,
      "hit": false,
      "t": 90050,
      "d": 345,
      "v": 86
    },
    {
      "midi": 74,
      "hit": false,
      "t": 90400,
      "d": 280,
      "v": 73
    },
    {
      "midi": 64,
      "hit": false,
      "t": 90530,
      "d": 405,
      "v": 87
    },
    {
      "midi": 72,
      "hit": false,
      "t": 90600,
      "d": 270,
      "v": 68
    },
    {
      "midi": 65,
      "hit": false,
      "t": 90855,
      "d": 380,
      "v": 100
    },
    {
      "midi": 48,
      "hit": false,
      "t": 91200,
      "d": 260,
      "v": 82
    },
    {
      "midi": 67,
      "hit": false,
      "t": 91245,
      "d": 485,
      "v": 89
    },
    {
      "midi": 76,
      "hit": false,
      "t": 91600,
      "d": 185,
      "v": 49
    },
    {
      "midi": 67,
      "hit": false,
      "t": 91765,
      "d": 350,
      "v": 87
    },
    {
      "midi": 60,
      "hit": false,
      "t": 91800,
      "d": 150,
      "v": 47
    },
    {
      "midi": 64,
      "hit": false,
      "t": 91800,
      "d": 165,
      "v": 55
    },
    {
      "midi": 55,
      "hit": false,
      "t": 91800,
      "d": 170,
      "v": 52
    },
    {
      "midi": 58,
      "hit": false,
      "t": 91800,
      "d": 170,
      "v": 68
    },
    {
      "midi": 79,
      "hit": false,
      "t": 91800,
      "d": 200,
      "v": 74
    },
    {
      "midi": 81,
      "hit": false,
      "t": 92000,
      "d": 170,
      "v": 44
    },
    {
      "midi": 60,
      "hit": false,
      "t": 92120,
      "d": 335,
      "v": 105
    },
    {
      "midi": 84,
      "hit": false,
      "t": 92200,
      "d": 310,
      "v": 68
    },
    {
      "midi": 43,
      "hit": false,
      "t": 92400,
      "d": 180,
      "v": 70
    },
    {
      "midi": 81,
      "hit": false,
      "t": 92400,
      "d": 385,
      "v": 54
    },
    {
      "midi": 69,
      "hit": false,
      "t": 92425,
      "d": 395,
      "v": 87
    },
    {
      "midi": 79,
      "hit": false,
      "t": 92800,
      "d": 1160,
      "v": 63
    },
    {
      "midi": 67,
      "hit": false,
      "t": 92915,
      "d": 415,
      "v": 87
    },
    {
      "midi": 58,
      "hit": false,
      "t": 93000,
      "d": 195,
      "v": 60
    },
    {
      "midi": 55,
      "hit": false,
      "t": 93000,
      "d": 205,
      "v": 48
    },
    {
      "midi": 60,
      "hit": false,
      "t": 93000,
      "d": 205,
      "v": 46
    },
    {
      "midi": 64,
      "hit": false,
      "t": 93000,
      "d": 205,
      "v": 49
    },
    {
      "midi": 65,
      "hit": false,
      "t": 93190,
      "d": 180,
      "v": 86
    },
    {
      "midi": 64,
      "hit": false,
      "t": 93360,
      "d": 205,
      "v": 87
    },
    {
      "midi": 48,
      "hit": false,
      "t": 93600,
      "d": 185,
      "v": 78
    },
    {
      "midi": 67,
      "hit": false,
      "t": 93600,
      "d": 485,
      "v": 86
    },
    {
      "midi": 76,
      "hit": false,
      "t": 94000,
      "d": 160,
      "v": 69
    },
    {
      "midi": 55,
      "hit": false,
      "t": 94200,
      "d": 250,
      "v": 53
    },
    {
      "midi": 58,
      "hit": false,
      "t": 94200,
      "d": 250,
      "v": 63
    },
    {
      "midi": 60,
      "hit": false,
      "t": 94200,
      "d": 250,
      "v": 50
    },
    {
      "midi": 64,
      "hit": false,
      "t": 94200,
      "d": 250,
      "v": 61
    },
    {
      "midi": 79,
      "hit": false,
      "t": 94200,
      "d": 250,
      "v": 79
    },
    {
      "midi": 84,
      "hit": false,
      "t": 94200,
      "d": 250,
      "v": 84
    },
    {
      "midi": 60,
      "hit": false,
      "t": 94355,
      "d": 200,
      "v": 91
    },
    {
      "midi": 81,
      "hit": false,
      "t": 94400,
      "d": 150,
      "v": 49
    },
    {
      "midi": 64,
      "hit": false,
      "t": 94515,
      "d": 190,
      "v": 102
    },
    {
      "midi": 81,
      "hit": false,
      "t": 94600,
      "d": 210,
      "v": 80
    },
    {
      "midi": 84,
      "hit": false,
      "t": 94600,
      "d": 1205,
      "v": 76
    },
    {
      "midi": 67,
      "hit": false,
      "t": 94685,
      "d": 230,
      "v": 86
    },
    {
      "midi": 43,
      "hit": false,
      "t": 94810,
      "d": 160,
      "v": 64
    },
    {
      "midi": 79,
      "hit": false,
      "t": 94810,
      "d": 390,
      "v": 70
    },
    {
      "midi": 69,
      "hit": false,
      "t": 94875,
      "d": 425,
      "v": 102
    },
    {
      "midi": 76,
      "hit": false,
      "t": 95200,
      "d": 610,
      "v": 61
    },
    {
      "midi": 67,
      "hit": false,
      "t": 95315,
      "d": 410,
      "v": 102
    },
    {
      "midi": 58,
      "hit": false,
      "t": 95400,
      "d": 380,
      "v": 59
    },
    {
      "midi": 55,
      "hit": false,
      "t": 95400,
      "d": 385,
      "v": 36
    },
    {
      "midi": 60,
      "hit": false,
      "t": 95400,
      "d": 385,
      "v": 48
    },
    {
      "midi": 64,
      "hit": false,
      "t": 95400,
      "d": 400,
      "v": 54
    },
    {
      "midi": 65,
      "hit": false,
      "t": 95645,
      "d": 200,
      "v": 87
    },
    {
      "midi": 64,
      "hit": false,
      "t": 95825,
      "d": 135,
      "v": 93
    },
    {
      "midi": 43,
      "hit": false,
      "t": 96000,
      "d": 210,
      "v": 82
    },
    {
      "midi": 64,
      "hit": false,
      "t": 96090,
      "d": 325,
      "v": 97
    },
    {
      "midi": 71,
      "hit": false,
      "t": 96400,
      "d": 135,
      "v": 49
    },
    {
      "midi": 62,
      "hit": false,
      "t": 96515,
      "d": 3685,
      "v": 105
    },
    {
      "midi": 55,
      "hit": false,
      "t": 96600,
      "d": 100,
      "v": 47
    },
    {
      "midi": 59,
      "hit": false,
      "t": 96600,
      "d": 115,
      "v": 55
    },
    {
      "midi": 50,
      "hit": false,
      "t": 96600,
      "d": 120,
      "v": 52
    },
    {
      "midi": 53,
      "hit": false,
      "t": 96600,
      "d": 120,
      "v": 68
    },
    {
      "midi": 74,
      "hit": false,
      "t": 96600,
      "d": 160,
      "v": 74
    },
    {
      "midi": 76,
      "hit": false,
      "t": 96800,
      "d": 120,
      "v": 44
    },
    {
      "midi": 79,
      "hit": false,
      "t": 97000,
      "d": 260,
      "v": 68
    },
    {
      "midi": 38,
      "hit": false,
      "t": 97200,
      "d": 130,
      "v": 70
    },
    {
      "midi": 76,
      "hit": false,
      "t": 97200,
      "d": 335,
      "v": 54
    },
    {
      "midi": 74,
      "hit": false,
      "t": 97600,
      "d": 1110,
      "v": 63
    },
    {
      "midi": 53,
      "hit": false,
      "t": 97800,
      "d": 145,
      "v": 60
    },
    {
      "midi": 50,
      "hit": false,
      "t": 97800,
      "d": 155,
      "v": 48
    },
    {
      "midi": 55,
      "hit": false,
      "t": 97800,
      "d": 155,
      "v": 46
    },
    {
      "midi": 59,
      "hit": false,
      "t": 97800,
      "d": 155,
      "v": 49
    },
    {
      "midi": 43,
      "hit": false,
      "t": 98400,
      "d": 135,
      "v": 78
    },
    {
      "midi": 71,
      "hit": false,
      "t": 98800,
      "d": 110,
      "v": 69
    },
    {
      "midi": 50,
      "hit": false,
      "t": 99000,
      "d": 200,
      "v": 53
    },
    {
      "midi": 53,
      "hit": false,
      "t": 99000,
      "d": 200,
      "v": 63
    },
    {
      "midi": 55,
      "hit": false,
      "t": 99000,
      "d": 200,
      "v": 50
    },
    {
      "midi": 59,
      "hit": false,
      "t": 99000,
      "d": 200,
      "v": 61
    },
    {
      "midi": 74,
      "hit": false,
      "t": 99000,
      "d": 200,
      "v": 79
    },
    {
      "midi": 79,
      "hit": false,
      "t": 99000,
      "d": 200,
      "v": 84
    },
    {
      "midi": 76,
      "hit": false,
      "t": 99200,
      "d": 100,
      "v": 49
    },
    {
      "midi": 76,
      "hit": false,
      "t": 99400,
      "d": 210,
      "v": 80
    },
    {
      "midi": 79,
      "hit": false,
      "t": 99400,
      "d": 1155,
      "v": 76
    },
    {
      "midi": 38,
      "hit": false,
      "t": 99610,
      "d": 110,
      "v": 64
    },
    {
      "midi": 74,
      "hit": false,
      "t": 99610,
      "d": 360,
      "v": 70
    },
    {
      "midi": 71,
      "hit": false,
      "t": 100000,
      "d": 560,
      "v": 61
    },
    {
      "midi": 53,
      "hit": false,
      "t": 100200,
      "d": 330,
      "v": 59
    },
    {
      "midi": 50,
      "hit": false,
      "t": 100200,
      "d": 335,
      "v": 36
    },
    {
      "midi": 55,
      "hit": false,
      "t": 100200,
      "d": 335,
      "v": 48
    },
    {
      "midi": 59,
      "hit": false,
      "t": 100200,
      "d": 350,
      "v": 54
    },
    {
      "midi": 62,
      "hit": false,
      "t": 100210,
      "d": 315,
      "v": 93
    },
    {
      "midi": 64,
      "hit": false,
      "t": 100520,
      "d": 290,
      "v": 82
    },
    {
      "midi": 65,
      "hit": false,
      "t": 100785,
      "d": 410,
      "v": 84
    },
    {
      "midi": 43,
      "hit": false,
      "t": 100800,
      "d": 275,
      "v": 68
    },
    {
      "midi": 50,
      "hit": false,
      "t": 101400,
      "d": 200,
      "v": 56
    },
    {
      "midi": 53,
      "hit": false,
      "t": 101400,
      "d": 200,
      "v": 69
    },
    {
      "midi": 55,
      "hit": false,
      "t": 101400,
      "d": 200,
      "v": 50
    },
    {
      "midi": 59,
      "hit": false,
      "t": 101400,
      "d": 200,
      "v": 61
    },
    {
      "midi": 74,
      "hit": false,
      "t": 101400,
      "d": 360,
      "v": 82
    },
    {
      "midi": 71,
      "hit": false,
      "t": 101600,
      "d": 200,
      "v": 43
    },
    {
      "midi": 65,
      "hit": false,
      "t": 101695,
      "d": 35,
      "v": 93
    },
    {
      "midi": 67,
      "hit": false,
      "t": 101800,
      "d": 200,
      "v": 31
    },
    {
      "midi": 65,
      "hit": false,
      "t": 101840,
      "d": 160,
      "v": 87
    },
    {
      "midi": 38,
      "hit": false,
      "t": 102000,
      "d": 200,
      "v": 53
    },
    {
      "midi": 74,
      "hit": false,
      "t": 102000,
      "d": 310,
      "v": 71
    },
    {
      "midi": 67,
      "hit": false,
      "t": 102035,
      "d": 430,
      "v": 86
    },
    {
      "midi": 71,
      "hit": false,
      "t": 102200,
      "d": 200,
      "v": 57
    },
    {
      "midi": 74,
      "hit": false,
      "t": 102400,
      "d": 1375,
      "v": 60
    },
    {
      "midi": 65,
      "hit": false,
      "t": 102520,
      "d": 445,
      "v": 87
    },
    {
      "midi": 53,
      "hit": false,
      "t": 102600,
      "d": 255,
      "v": 65
    },
    {
      "midi": 55,
      "hit": false,
      "t": 102600,
      "d": 255,
      "v": 40
    },
    {
      "midi": 59,
      "hit": false,
      "t": 102600,
      "d": 255,
      "v": 46
    },
    {
      "midi": 50,
      "hit": false,
      "t": 102600,
      "d": 260,
      "v": 39
    },
    {
      "midi": 64,
      "hit": false,
      "t": 102840,
      "d": 185,
      "v": 93
    },
    {
      "midi": 62,
      "hit": false,
      "t": 103005,
      "d": 270,
      "v": 86
    },
    {
      "midi": 43,
      "hit": false,
      "t": 103200,
      "d": 220,
      "v": 67
    },
    {
      "midi": 65,
      "hit": false,
      "t": 103350,
      "d": 645,
      "v": 93
    },
    {
      "midi": 67,
      "hit": false,
      "t": 103600,
      "d": 200,
      "v": 44
    },
    {
      "midi": 50,
      "hit": false,
      "t": 103800,
      "d": 195,
      "v": 29
    },
    {
      "midi": 53,
      "hit": false,
      "t": 103800,
      "d": 200,
      "v": 62
    },
    {
      "midi": 55,
      "hit": false,
      "t": 103800,
      "d": 200,
      "v": 49
    },
    {
      "midi": 59,
      "hit": false,
      "t": 103800,
      "d": 200,
      "v": 58
    },
    {
      "midi": 74,
      "hit": false,
      "t": 103800,
      "d": 355,
      "v": 79
    },
    {
      "midi": 71,
      "hit": false,
      "t": 104000,
      "d": 325,
      "v": 63
    },
    {
      "midi": 65,
      "hit": false,
      "t": 104060,
      "d": 185,
      "v": 100
    },
    {
      "midi": 67,
      "hit": false,
      "t": 104200,
      "d": 200,
      "v": 30
    },
    {
      "midi": 67,
      "hit": false,
      "t": 104210,
      "d": 110,
      "v": 91
    },
    {
      "midi": 43,
      "hit": false,
      "t": 104400,
      "d": 200,
      "v": 71
    },
    {
      "midi": 79,
      "hit": false,
      "t": 104400,
      "d": 325,
      "v": 80
    },
    {
      "midi": 67,
      "hit": false,
      "t": 104435,
      "d": 135,
      "v": 89
    },
    {
      "midi": 69,
      "hit": false,
      "t": 104515,
      "d": 375,
      "v": 69
    },
    {
      "midi": 71,
      "hit": false,
      "t": 104600,
      "d": 200,
      "v": 77
    },
    {
      "midi": 74,
      "hit": false,
      "t": 104800,
      "d": 800,
      "v": 77
    },
    {
      "midi": 67,
      "hit": false,
      "t": 104910,
      "d": 290,
      "v": 91
    },
    {
      "midi": 50,
      "hit": false,
      "t": 105000,
      "d": 600,
      "v": 35
    },
    {
      "midi": 53,
      "hit": false,
      "t": 105000,
      "d": 600,
      "v": 60
    },
    {
      "midi": 55,
      "hit": false,
      "t": 105000,
      "d": 600,
      "v": 50
    },
    {
      "midi": 59,
      "hit": false,
      "t": 105000,
      "d": 600,
      "v": 58
    },
    {
      "midi": 67,
      "hit": false,
      "t": 105235,
      "d": 170,
      "v": 93
    },
    {
      "midi": 70,
      "hit": false,
      "t": 105245,
      "d": 40,
      "v": 48
    },
    {
      "midi": 65,
      "hit": false,
      "t": 105380,
      "d": 205,
      "v": 82
    },
    {
      "midi": 48,
      "hit": false,
      "t": 105600,
      "d": 260,
      "v": 82
    },
    {
      "midi": 62,
      "hit": false,
      "t": 105650,
      "d": 130,
      "v": 82
    },
    {
      "midi": 64,
      "hit": false,
      "t": 105650,
      "d": 450,
      "v": 68
    },
    {
      "midi": 76,
      "hit": false,
      "t": 106000,
      "d": 185,
      "v": 49
    },
    {
      "midi": 62,
      "hit": false,
      "t": 106120,
      "d": 535,
      "v": 97
    },
    {
      "midi": 60,
      "hit": false,
      "t": 106200,
      "d": 150,
      "v": 47
    },
    {
      "midi": 64,
      "hit": false,
      "t": 106200,
      "d": 165,
      "v": 55
    },
    {
      "midi": 55,
      "hit": false,
      "t": 106200,
      "d": 170,
      "v": 52
    },
    {
      "midi": 58,
      "hit": false,
      "t": 106200,
      "d": 170,
      "v": 68
    },
    {
      "midi": 79,
      "hit": false,
      "t": 106200,
      "d": 200,
      "v": 74
    },
    {
      "midi": 81,
      "hit": false,
      "t": 106400,
      "d": 170,
      "v": 44
    },
    {
      "midi": 84,
      "hit": false,
      "t": 106600,
      "d": 310,
      "v": 68
    },
    {
      "midi": 60,
      "hit": false,
      "t": 106710,
      "d": 90,
      "v": 73
    },
    {
      "midi": 62,
      "hit": false,
      "t": 106715,
      "d": 175,
      "v": 82
    },
    {
      "midi": 43,
      "hit": false,
      "t": 106800,
      "d": 180,
      "v": 70
    },
    {
      "midi": 81,
      "hit": false,
      "t": 106800,
      "d": 385,
      "v": 54
    },
    {
      "midi": 64,
      "hit": false,
      "t": 106845,
      "d": 1715,
      "v": 80
    },
    {
      "midi": 79,
      "hit": false,
      "t": 107200,
      "d": 1160,
      "v": 63
    },
    {
      "midi": 58,
      "hit": false,
      "t": 107400,
      "d": 195,
      "v": 60
    },
    {
      "midi": 55,
      "hit": false,
      "t": 107400,
      "d": 205,
      "v": 48
    },
    {
      "midi": 60,
      "hit": false,
      "t": 107400,
      "d": 205,
      "v": 46
    },
    {
      "midi": 64,
      "hit": false,
      "t": 107400,
      "d": 205,
      "v": 49
    },
    {
      "midi": 48,
      "hit": false,
      "t": 108000,
      "d": 185,
      "v": 78
    },
    {
      "midi": 76,
      "hit": false,
      "t": 108400,
      "d": 160,
      "v": 69
    },
    {
      "midi": 55,
      "hit": false,
      "t": 108600,
      "d": 250,
      "v": 53
    },
    {
      "midi": 58,
      "hit": false,
      "t": 108600,
      "d": 250,
      "v": 63
    },
    {
      "midi": 60,
      "hit": false,
      "t": 108600,
      "d": 250,
      "v": 50
    },
    {
      "midi": 64,
      "hit": false,
      "t": 108600,
      "d": 250,
      "v": 61
    },
    {
      "midi": 79,
      "hit": false,
      "t": 108600,
      "d": 250,
      "v": 79
    },
    {
      "midi": 84,
      "hit": false,
      "t": 108600,
      "d": 250,
      "v": 84
    },
    {
      "midi": 81,
      "hit": false,
      "t": 108800,
      "d": 150,
      "v": 49
    },
    {
      "midi": 81,
      "hit": false,
      "t": 109000,
      "d": 210,
      "v": 80
    },
    {
      "midi": 84,
      "hit": false,
      "t": 109000,
      "d": 1205,
      "v": 76
    },
    {
      "midi": 43,
      "hit": false,
      "t": 109210,
      "d": 160,
      "v": 64
    },
    {
      "midi": 79,
      "hit": false,
      "t": 109210,
      "d": 390,
      "v": 70
    },
    {
      "midi": 64,
      "hit": false,
      "t": 109230,
      "d": 330,
      "v": 91
    },
    {
      "midi": 76,
      "hit": false,
      "t": 109600,
      "d": 610,
      "v": 61
    },
    {
      "midi": 64,
      "hit": false,
      "t": 109715,
      "d": 415,
      "v": 80
    },
    {
      "midi": 58,
      "hit": false,
      "t": 109800,
      "d": 380,
      "v": 59
    },
    {
      "midi": 55,
      "hit": false,
      "t": 109800,
      "d": 385,
      "v": 36
    },
    {
      "midi": 60,
      "hit": false,
      "t": 109800,
      "d": 385,
      "v": 48
    },
    {
      "midi": 64,
      "hit": false,
      "t": 109800,
      "d": 400,
      "v": 54
    },
    {
      "midi": 65,
      "hit": false,
      "t": 110020,
      "d": 400,
      "v": 89
    },
    {
      "midi": 67,
      "hit": false,
      "t": 110390,
      "d": 925,
      "v": 81
    },
    {
      "midi": 48,
      "hit": false,
      "t": 110400,
      "d": 575,
      "v": 61
    },
    {
      "midi": 52,
      "hit": false,
      "t": 111000,
      "d": 200,
      "v": 60
    },
    {
      "midi": 55,
      "hit": false,
      "t": 111000,
      "d": 200,
      "v": 47
    },
    {
      "midi": 60,
      "hit": false,
      "t": 111000,
      "d": 200,
      "v": 47
    },
    {
      "midi": 72,
      "hit": false,
      "t": 111000,
      "d": 400,
      "v": 52
    },
    {
      "midi": 67,
      "hit": false,
      "t": 111200,
      "d": 395,
      "v": 52
    },
    {
      "midi": 60,
      "hit": false,
      "t": 111310,
      "d": 430,
      "v": 87
    },
    {
      "midi": 76,
      "hit": false,
      "t": 111400,
      "d": 360,
      "v": 69
    },
    {
      "midi": 43,
      "hit": false,
      "t": 111600,
      "d": 245,
      "v": 65
    },
    {
      "midi": 72,
      "hit": false,
      "t": 111600,
      "d": 400,
      "v": 74
    },
    {
      "midi": 69,
      "hit": false,
      "t": 111640,
      "d": 440,
      "v": 97
    },
    {
      "midi": 79,
      "hit": false,
      "t": 112000,
      "d": 405,
      "v": 69
    },
    {
      "midi": 67,
      "hit": false,
      "t": 112110,
      "d": 435,
      "v": 81
    },
    {
      "midi": 52,
      "hit": false,
      "t": 112200,
      "d": 600,
      "v": 55
    },
    {
      "midi": 55,
      "hit": false,
      "t": 112200,
      "d": 600,
      "v": 52
    },
    {
      "midi": 60,
      "hit": false,
      "t": 112200,
      "d": 600,
      "v": 47
    },
    {
      "midi": 76,
      "hit": false,
      "t": 112200,
      "d": 600,
      "v": 78
    },
    {
      "midi": 65,
      "hit": false,
      "t": 112395,
      "d": 180,
      "v": 93
    },
    {
      "midi": 64,
      "hit": false,
      "t": 112530,
      "d": 540,
      "v": 87
    },
    {
      "midi": 67,
      "hit": false,
      "t": 112685,
      "d": 895,
      "v": 86
    },
    {
      "midi": 48,
      "hit": false,
      "t": 112800,
      "d": 555,
      "v": 70
    },
    {
      "midi": 60,
      "hit": false,
      "t": 113400,
      "d": 375,
      "v": 29
    },
    {
      "midi": 64,
      "hit": false,
      "t": 113400,
      "d": 375,
      "v": 46
    },
    {
      "midi": 55,
      "hit": false,
      "t": 113400,
      "d": 400,
      "v": 54
    },
    {
      "midi": 58,
      "hit": false,
      "t": 113400,
      "d": 400,
      "v": 70
    },
    {
      "midi": 79,
      "hit": false,
      "t": 113400,
      "d": 400,
      "v": 70
    },
    {
      "midi": 76,
      "hit": false,
      "t": 113600,
      "d": 380,
      "v": 50
    },
    {
      "midi": 67,
      "hit": false,
      "t": 113665,
      "d": 200,
      "v": 93
    },
    {
      "midi": 72,
      "hit": false,
      "t": 113800,
      "d": 200,
      "v": 71
    },
    {
      "midi": 69,
      "hit": false,
      "t": 113825,
      "d": 110,
      "v": 87
    },
    {
      "midi": 43,
      "hit": false,
      "t": 114000,
      "d": 350,
      "v": 64
    },
    {
      "midi": 79,
      "hit": false,
      "t": 114000,
      "d": 375,
      "v": 72
    },
    {
      "midi": 67,
      "hit": false,
      "t": 114035,
      "d": 485,
      "v": 81
    },
    {
      "midi": 70,
      "hit": false,
      "t": 114040,
      "d": 350,
      "v": 98
    },
    {
      "midi": 76,
      "hit": false,
      "t": 114200,
      "d": 365,
      "v": 60
    },
    {
      "midi": 72,
      "hit": false,
      "t": 114400,
      "d": 200,
      "v": 73
    },
    {
      "midi": 72,
      "hit": false,
      "t": 114510,
      "d": 1025,
      "v": 93
    },
    {
      "midi": 79,
      "hit": false,
      "t": 114600,
      "d": 365,
      "v": 80
    },
    {
      "midi": 55,
      "hit": false,
      "t": 114600,
      "d": 600,
      "v": 39
    },
    {
      "midi": 58,
      "hit": false,
      "t": 114600,
      "d": 600,
      "v": 61
    },
    {
      "midi": 60,
      "hit": false,
      "t": 114600,
      "d": 600,
      "v": 51
    },
    {
      "midi": 64,
      "hit": false,
      "t": 114600,
      "d": 600,
      "v": 51
    },
    {
      "midi": 76,
      "hit": false,
      "t": 114800,
      "d": 350,
      "v": 61
    },
    {
      "midi": 67,
      "hit": false,
      "t": 114880,
      "d": 65,
      "v": 93
    },
    {
      "midi": 69,
      "hit": false,
      "t": 114930,
      "d": 160,
      "v": 69
    },
    {
      "midi": 72,
      "hit": false,
      "t": 115000,
      "d": 200,
      "v": 73
    },
    {
      "midi": 67,
      "hit": false,
      "t": 115120,
      "d": 235,
      "v": 86
    },
    {
      "midi": 53,
      "hit": false,
      "t": 115200,
      "d": 585,
      "v": 62
    },
    {
      "midi": 65,
      "hit": false,
      "t": 115345,
      "d": 3775,
      "v": 107
    },
    {
      "midi": 70,
      "hit": false,
      "t": 115360,
      "d": 25,
      "v": 48
    },
    {
      "midi": 57,
      "hit": false,
      "t": 115800,
      "d": 200,
      "v": 58
    },
    {
      "midi": 60,
      "hit": false,
      "t": 115800,
      "d": 200,
      "v": 52
    },
    {
      "midi": 65,
      "hit": false,
      "t": 115800,
      "d": 200,
      "v": 55
    },
    {
      "midi": 72,
      "hit": false,
      "t": 115800,
      "d": 350,
      "v": 72
    },
    {
      "midi": 69,
      "hit": false,
      "t": 116000,
      "d": 380,
      "v": 60
    },
    {
      "midi": 77,
      "hit": false,
      "t": 116200,
      "d": 380,
      "v": 75
    },
    {
      "midi": 48,
      "hit": false,
      "t": 116400,
      "d": 235,
      "v": 60
    },
    {
      "midi": 72,
      "hit": false,
      "t": 116400,
      "d": 400,
      "v": 73
    },
    {
      "midi": 81,
      "hit": false,
      "t": 116800,
      "d": 215,
      "v": 70
    },
    {
      "midi": 57,
      "hit": false,
      "t": 117000,
      "d": 585,
      "v": 37
    },
    {
      "midi": 65,
      "hit": false,
      "t": 117000,
      "d": 585,
      "v": 41
    },
    {
      "midi": 77,
      "hit": false,
      "t": 117000,
      "d": 800,
      "v": 76
    },
    {
      "midi": 60,
      "hit": false,
      "t": 117015,
      "d": 570,
      "v": 37
    },
    {
      "midi": 53,
      "hit": false,
      "t": 117600,
      "d": 495,
      "v": 76
    },
    {
      "midi": 57,
      "hit": false,
      "t": 118200,
      "d": 200,
      "v": 37
    },
    {
      "midi": 60,
      "hit": false,
      "t": 118200,
      "d": 200,
      "v": 47
    },
    {
      "midi": 65,
      "hit": false,
      "t": 118200,
      "d": 200,
      "v": 51
    },
    {
      "midi": 72,
      "hit": false,
      "t": 118200,
      "d": 350,
      "v": 72
    },
    {
      "midi": 69,
      "hit": false,
      "t": 118400,
      "d": 365,
      "v": 69
    },
    {
      "midi": 77,
      "hit": false,
      "t": 118600,
      "d": 390,
      "v": 76
    },
    {
      "midi": 48,
      "hit": false,
      "t": 118800,
      "d": 240,
      "v": 62
    },
    {
      "midi": 72,
      "hit": false,
      "t": 118800,
      "d": 400,
      "v": 69
    },
    {
      "midi": 81,
      "hit": false,
      "t": 119200,
      "d": 200,
      "v": 76
    },
    {
      "midi": 65,
      "hit": false,
      "t": 119315,
      "d": 200,
      "v": 107
    },
    {
      "midi": 77,
      "hit": false,
      "t": 119400,
      "d": 540,
      "v": 69
    },
    {
      "midi": 60,
      "hit": false,
      "t": 119400,
      "d": 555,
      "v": 48
    },
    {
      "midi": 65,
      "hit": false,
      "t": 119400,
      "d": 555,
      "v": 49
    },
    {
      "midi": 57,
      "hit": false,
      "t": 119400,
      "d": 570,
      "v": 45
    },
    {
      "midi": 65,
      "hit": false,
      "t": 119515,
      "d": 255,
      "v": 105
    },
    {
      "midi": 65,
      "hit": false,
      "t": 119915,
      "d": 125,
      "v": 91
    },
    {
      "midi": 48,
      "hit": false,
      "t": 120000,
      "d": 555,
      "v": 70
    },
    {
      "midi": 65,
      "hit": false,
      "t": 120050,
      "d": 420,
      "v": 102
    },
    {
      "midi": 64,
      "hit": false,
      "t": 120510,
      "d": 470,
      "v": 91
    },
    {
      "midi": 60,
      "hit": false,
      "t": 120600,
      "d": 375,
      "v": 70
    },
    {
      "midi": 64,
      "hit": false,
      "t": 120600,
      "d": 375,
      "v": 46
    },
    {
      "midi": 55,
      "hit": false,
      "t": 120600,
      "d": 400,
      "v": 54
    },
    {
      "midi": 79,
      "hit": false,
      "t": 120600,
      "d": 400,
      "v": 70
    },
    {
      "midi": 76,
      "hit": false,
      "t": 120800,
      "d": 380,
      "v": 50
    },
    {
      "midi": 72,
      "hit": false,
      "t": 121000,
      "d": 200,
      "v": 71
    },
    {
      "midi": 64,
      "hit": false,
      "t": 121060,
      "d": 435,
      "v": 87
    },
    {
      "midi": 43,
      "hit": false,
      "t": 121200,
      "d": 350,
      "v": 64
    },
    {
      "midi": 79,
      "hit": false,
      "t": 121200,
      "d": 375,
      "v": 72
    },
    {
      "midi": 65,
      "hit": false,
      "t": 121305,
      "d": 440,
      "v": 93
    },
    {
      "midi": 76,
      "hit": false,
      "t": 121400,
      "d": 365,
      "v": 60
    },
    {
      "midi": 72,
      "hit": false,
      "t": 121600,
      "d": 200,
      "v": 73
    },
    {
      "midi": 64,
      "hit": false,
      "t": 121730,
      "d": 420,
      "v": 93
    },
    {
      "midi": 79,
      "hit": false,
      "t": 121800,
      "d": 365,
      "v": 80
    },
    {
      "midi": 55,
      "hit": false,
      "t": 121800,
      "d": 600,
      "v": 39
    },
    {
      "midi": 60,
      "hit": false,
      "t": 121800,
      "d": 600,
      "v": 61
    },
    {
      "midi": 64,
      "hit": false,
      "t": 121800,
      "d": 600,
      "v": 51
    },
    {
      "midi": 76,
      "hit": false,
      "t": 122000,
      "d": 350,
      "v": 61
    },
    {
      "midi": 62,
      "hit": false,
      "t": 122060,
      "d": 155,
      "v": 93
    },
    {
      "midi": 60,
      "hit": false,
      "t": 122190,
      "d": 240,
      "v": 71
    },
    {
      "midi": 72,
      "hit": false,
      "t": 122200,
      "d": 200,
      "v": 73
    },
    {
      "midi": 43,
      "hit": false,
      "t": 122400,
      "d": 600,
      "v": 89
    },
    {
      "midi": 62,
      "hit": false,
      "t": 122450,
      "d": 770,
      "v": 100
    },
    {
      "midi": 47,
      "hit": false,
      "t": 123000,
      "d": 200,
      "v": 68
    },
    {
      "midi": 50,
      "hit": false,
      "t": 123000,
      "d": 200,
      "v": 58
    },
    {
      "midi": 55,
      "hit": false,
      "t": 123000,
      "d": 200,
      "v": 46
    },
    {
      "midi": 62,
      "hit": false,
      "t": 123000,
      "d": 200,
      "v": 77
    },
    {
      "midi": 59,
      "hit": false,
      "t": 123200,
      "d": 200,
      "v": 53
    },
    {
      "midi": 62,
      "hit": false,
      "t": 123275,
      "d": 145,
      "v": 93
    },
    {
      "midi": 64,
      "hit": false,
      "t": 123380,
      "d": 230,
      "v": 80
    },
    {
      "midi": 62,
      "hit": false,
      "t": 123400,
      "d": 200,
      "v": 74
    },
    {
      "midi": 38,
      "hit": false,
      "t": 123600,
      "d": 200,
      "v": 76
    },
    {
      "midi": 67,
      "hit": false,
      "t": 123600,
      "d": 400,
      "v": 87
    },
    {
      "midi": 65,
      "hit": false,
      "t": 123635,
      "d": 430,
      "v": 105
    },
    {
      "midi": 62,
      "hit": false,
      "t": 123800,
      "d": 200,
      "v": 79
    },
    {
      "midi": 71,
      "hit": false,
      "t": 124000,
      "d": 800,
      "v": 85
    },
    {
      "midi": 67,
      "hit": false,
      "t": 124115,
      "d": 315,
      "v": 86
    },
    {
      "midi": 47,
      "hit": false,
      "t": 124200,
      "d": 600,
      "v": 59
    },
    {
      "midi": 50,
      "hit": false,
      "t": 124200,
      "d": 600,
      "v": 67
    },
    {
      "midi": 55,
      "hit": false,
      "t": 124200,
      "d": 600,
      "v": 66
    },
    {
      "midi": 67,
      "hit": false,
      "t": 124440,
      "d": 645,
      "v": 87
    },
    {
      "midi": 62,
      "hit": false,
      "t": 124450,
      "d": 105,
      "v": 93
    },
    {
      "midi": 64,
      "hit": false,
      "t": 124530,
      "d": 120,
      "v": 86
    },
    {
      "midi": 62,
      "hit": false,
      "t": 124685,
      "d": 220,
      "v": 87
    },
    {
      "midi": 48,
      "hit": false,
      "t": 124800,
      "d": 520,
      "v": 71
    },
    {
      "midi": 60,
      "hit": false,
      "t": 124910,
      "d": 2265,
      "v": 107
    },
    {
      "midi": 55,
      "hit": false,
      "t": 125400,
      "d": 400,
      "v": 59
    },
    {
      "midi": 60,
      "hit": false,
      "t": 125400,
      "d": 400,
      "v": 83
    },
    {
      "midi": 64,
      "hit": false,
      "t": 125400,
      "d": 400,
      "v": 69
    },
    {
      "midi": 74,
      "hit": false,
      "t": 125800,
      "d": 200,
      "v": 71
    },
    {
      "midi": 79,
      "hit": false,
      "t": 125800,
      "d": 490,
      "v": 73
    },
    {
      "midi": 76,
      "hit": false,
      "t": 125900,
      "d": 480,
      "v": 75
    },
    {
      "midi": 43,
      "hit": false,
      "t": 126000,
      "d": 390,
      "v": 49
    },
    {
      "midi": 76,
      "hit": false,
      "t": 126400,
      "d": 800,
      "v": 71
    },
    {
      "midi": 79,
      "hit": false,
      "t": 126400,
      "d": 800,
      "v": 64
    },
    {
      "midi": 55,
      "hit": false,
      "t": 126600,
      "d": 600,
      "v": 46
    },
    {
      "midi": 60,
      "hit": false,
      "t": 126600,
      "d": 600,
      "v": 71
    },
    {
      "midi": 64,
      "hit": false,
      "t": 126600,
      "d": 600,
      "v": 47
    },
    {
      "midi": 48,
      "hit": false,
      "t": 127200,
      "d": 600,
      "v": 89
    },
    {
      "midi": 52,
      "hit": false,
      "t": 127800,
      "d": 200,
      "v": 68
    },
    {
      "midi": 55,
      "hit": false,
      "t": 127800,
      "d": 200,
      "v": 58
    },
    {
      "midi": 60,
      "hit": false,
      "t": 127800,
      "d": 200,
      "v": 46
    },
    {
      "midi": 67,
      "hit": false,
      "t": 127800,
      "d": 200,
      "v": 77
    },
    {
      "midi": 72,
      "hit": false,
      "t": 127820,
      "d": 340,
      "v": 107
    },
    {
      "midi": 64,
      "hit": false,
      "t": 128000,
      "d": 200,
      "v": 53
    },
    {
      "midi": 67,
      "hit": false,
      "t": 128200,
      "d": 200,
      "v": 74
    },
    {
      "midi": 74,
      "hit": false,
      "t": 128245,
      "d": 175,
      "v": 84
    },
    {
      "midi": 43,
      "hit": false,
      "t": 128400,
      "d": 200,
      "v": 76
    },
    {
      "midi": 72,
      "hit": false,
      "t": 128400,
      "d": 400,
      "v": 87
    },
    {
      "midi": 79,
      "hit": false,
      "t": 128430,
      "d": 10,
      "v": 77
    },
    {
      "midi": 74,
      "hit": false,
      "t": 128440,
      "d": 120,
      "v": 102
    },
    {
      "midi": 76,
      "hit": false,
      "t": 128525,
      "d": 260,
      "v": 87
    },
    {
      "midi": 67,
      "hit": false,
      "t": 128600,
      "d": 200,
      "v": 79
    },
    {
      "midi": 76,
      "hit": false,
      "t": 128800,
      "d": 800,
      "v": 85
    },
    {
      "midi": 74,
      "hit": false,
      "t": 128915,
      "d": 80,
      "v": 95
    },
    {
      "midi": 79,
      "hit": false,
      "t": 128915,
      "d": 300,
      "v": 93
    },
    {
      "midi": 76,
      "hit": false,
      "t": 128915,
      "d": 420,
      "v": 62
    },
    {
      "midi": 52,
      "hit": false,
      "t": 129000,
      "d": 600,
      "v": 59
    },
    {
      "midi": 55,
      "hit": false,
      "t": 129000,
      "d": 600,
      "v": 67
    },
    {
      "midi": 60,
      "hit": false,
      "t": 129000,
      "d": 600,
      "v": 66
    },
    {
      "midi": 74,
      "hit": false,
      "t": 129215,
      "d": 220,
      "v": 95
    },
    {
      "midi": 79,
      "hit": false,
      "t": 129220,
      "d": 310,
      "v": 95
    },
    {
      "midi": 77,
      "hit": false,
      "t": 129240,
      "d": 25,
      "v": 60
    },
    {
      "midi": 72,
      "hit": false,
      "t": 129410,
      "d": 265,
      "v": 102
    },
    {
      "midi": 77,
      "hit": false,
      "t": 129625,
      "d": 1235,
      "v": 100
    },
    {
      "midi": 57,
      "hit": false,
      "t": 129635,
      "d": 4765,
      "v": 64
    },
    {
      "midi": 60,
      "hit": false,
      "t": 129635,
      "d": 4765,
      "v": 64
    },
    {
      "midi": 74,
      "hit": false,
      "t": 129700,
      "d": 370,
      "v": 51
    },
    {
      "midi": 72,
      "hit": false,
      "t": 130110,
      "d": 2810,
      "v": 93
    },
    {
      "midi": 72,
      "hit": false,
      "t": 130210,
      "d": 245,
      "v": 81
    },
    {
      "midi": 77,
      "hit": false,
      "t": 130210,
      "d": 900,
      "v": 76
    },
    {
      "midi": 74,
      "hit": false,
      "t": 130330,
      "d": 595,
      "v": 64
    },
    {
      "midi": 69,
      "hit": false,
      "t": 130480,
      "d": 235,
      "v": 93
    },
    {
      "midi": 67,
      "hit": false,
      "t": 130680,
      "d": 260,
      "v": 84
    },
    {
      "midi": 72,
      "hit": false,
      "t": 130810,
      "d": 275,
      "v": 65
    },
    {
      "midi": 69,
      "hit": false,
      "t": 130945,
      "d": 1395,
      "v": 105
    },
    {
      "midi": 67,
      "hit": false,
      "t": 131205,
      "d": 100,
      "v": 89
    },
    {
      "midi": 72,
      "hit": false,
      "t": 131210,
      "d": 790,
      "v": 82
    },
    {
      "midi": 69,
      "hit": false,
      "t": 131305,
      "d": 295,
      "v": 67
    },
    {
      "midi": 67,
      "hit": false,
      "t": 131445,
      "d": 360,
      "v": 74
    },
    {
      "midi": 65,
      "hit": false,
      "t": 131805,
      "d": 195,
      "v": 63
    },
    {
      "midi": 67,
      "hit": false,
      "t": 132300,
      "d": 320,
      "v": 91
    },
    {
      "midi": 69,
      "hit": false,
      "t": 132625,
      "d": 440,
      "v": 100
    },
    {
      "midi": 72,
      "hit": false,
      "t": 132645,
      "d": 200,
      "v": 85
    },
    {
      "midi": 77,
      "hit": false,
      "t": 132650,
      "d": 910,
      "v": 83
    },
    {
      "midi": 74,
      "hit": false,
      "t": 132730,
      "d": 635,
      "v": 63
    },
    {
      "midi": 71,
      "hit": false,
      "t": 133050,
      "d": 290,
      "v": 107
    },
    {
      "midi": 72,
      "hit": false,
      "t": 133235,
      "d": 220,
      "v": 78
    },
    {
      "midi": 72,
      "hit": false,
      "t": 133260,
      "d": 305,
      "v": 95
    },
    {
      "midi": 69,
      "hit": false,
      "t": 133260,
      "d": 315,
      "v": 100
    },
    {
      "midi": 79,
      "hit": false,
      "t": 133785,
      "d": 200,
      "v": 77
    },
    {
      "midi": 84,
      "hit": false,
      "t": 133805,
      "d": 450,
      "v": 74
    },
    {
      "midi": 81,
      "hit": false,
      "t": 133850,
      "d": 405,
      "v": 74
    },
    {
      "midi": 72,
      "hit": false,
      "t": 134065,
      "d": 55,
      "v": 91
    },
    {
      "midi": 71,
      "hit": false,
      "t": 134075,
      "d": 195,
      "v": 105
    },
    {
      "midi": 69,
      "hit": false,
      "t": 134235,
      "d": 230,
      "v": 97
    },
    {
      "midi": 74,
      "hit": false,
      "t": 134400,
      "d": 265,
      "v": 90
    },
    {
      "midi": 48,
      "hit": false,
      "t": 134400,
      "d": 375,
      "v": 72
    },
    {
      "midi": 79,
      "hit": false,
      "t": 134400,
      "d": 3360,
      "v": 86
    },
    {
      "midi": 67,
      "hit": false,
      "t": 134520,
      "d": 455,
      "v": 105
    },
    {
      "midi": 76,
      "hit": false,
      "t": 134600,
      "d": 3190,
      "v": 68
    },
    {
      "midi": 65,
      "hit": false,
      "t": 134960,
      "d": 410,
      "v": 95
    },
    {
      "midi": 60,
      "hit": false,
      "t": 135000,
      "d": 180,
      "v": 75
    },
    {
      "midi": 64,
      "hit": false,
      "t": 135000,
      "d": 205,
      "v": 54
    },
    {
      "midi": 55,
      "hit": false,
      "t": 135000,
      "d": 215,
      "v": 59
    },
    {
      "midi": 64,
      "hit": false,
      "t": 135440,
      "d": 135,
      "v": 93
    },
    {
      "midi": 65,
      "hit": false,
      "t": 135545,
      "d": 265,
      "v": 89
    },
    {
      "midi": 43,
      "hit": false,
      "t": 135600,
      "d": 290,
      "v": 81
    },
    {
      "midi": 67,
      "hit": false,
      "t": 135775,
      "d": 2000,
      "v": 84
    },
    {
      "midi": 60,
      "hit": false,
      "t": 136200,
      "d": 175,
      "v": 77
    },
    {
      "midi": 64,
      "hit": false,
      "t": 136200,
      "d": 210,
      "v": 69
    },
    {
      "midi": 55,
      "hit": false,
      "t": 136200,
      "d": 230,
      "v": 54
    },
    {
      "midi": 48,
      "hit": false,
      "t": 136800,
      "d": 275,
      "v": 85
    },
    {
      "midi": 60,
      "hit": false,
      "t": 137400,
      "d": 265,
      "v": 73
    },
    {
      "midi": 64,
      "hit": false,
      "t": 137400,
      "d": 265,
      "v": 63
    },
    {
      "midi": 55,
      "hit": false,
      "t": 137400,
      "d": 300,
      "v": 54
    },
    {
      "midi": 64,
      "hit": false,
      "t": 137855,
      "d": 120,
      "v": 80
    },
    {
      "midi": 65,
      "hit": false,
      "t": 137910,
      "d": 240,
      "v": 89
    },
    {
      "midi": 43,
      "hit": false,
      "t": 138000,
      "d": 185,
      "v": 49
    },
    {
      "midi": 79,
      "hit": false,
      "t": 138000,
      "d": 340,
      "v": 91
    },
    {
      "midi": 67,
      "hit": false,
      "t": 138100,
      "d": 1065,
      "v": 89
    },
    {
      "midi": 76,
      "hit": false,
      "t": 138200,
      "d": 275,
      "v": 61
    },
    {
      "midi": 72,
      "hit": false,
      "t": 138400,
      "d": 270,
      "v": 74
    },
    {
      "midi": 65,
      "hit": false,
      "t": 138520,
      "d": 405,
      "v": 107
    },
    {
      "midi": 79,
      "hit": false,
      "t": 138600,
      "d": 305,
      "v": 82
    },
    {
      "midi": 60,
      "hit": false,
      "t": 138600,
      "d": 465,
      "v": 71
    },
    {
      "midi": 55,
      "hit": false,
      "t": 138600,
      "d": 480,
      "v": 51
    },
    {
      "midi": 64,
      "hit": false,
      "t": 138600,
      "d": 480,
      "v": 56
    },
    {
      "midi": 76,
      "hit": false,
      "t": 138800,
      "d": 235,
      "v": 67
    },
    {
      "midi": 64,
      "hit": false,
      "t": 138835,
      "d": 310,
      "v": 107
    },
    {
      "midi": 72,
      "hit": false,
      "t": 139000,
      "d": 200,
      "v": 86
    },
    {
      "midi": 59,
      "hit": false,
      "t": 139200,
      "d": 1640,
      "v": 72
    },
    {
      "midi": 65,
      "hit": false,
      "t": 139200,
      "d": 1640,
      "v": 72
    },
    {
      "midi": 67,
      "hit": false,
      "t": 139200,
      "d": 1640,
      "v": 72
    },
    {
      "midi": 62,
      "hit": false,
      "t": 139215,
      "d": 95,
      "v": 89
    },
    {
      "midi": 64,
      "hit": false,
      "t": 139215,
      "d": 185,
      "v": 95
    },
    {
      "midi": 67,
      "hit": false,
      "t": 139225,
      "d": 2655,
      "v": 80
    },
    {
      "midi": 64,
      "hit": false,
      "t": 139455,
      "d": 590,
      "v": 45
    },
    {
      "midi": 65,
      "hit": false,
      "t": 139465,
      "d": 55,
      "v": 48
    },
    {
      "midi": 62,
      "hit": false,
      "t": 139600,
      "d": 230,
      "v": 66
    },
    {
      "midi": 74,
      "hit": false,
      "t": 139800,
      "d": 1970,
      "v": 73
    },
    {
      "midi": 69,
      "hit": false,
      "t": 140000,
      "d": 280,
      "v": 67
    },
    {
      "midi": 65,
      "hit": false,
      "t": 140070,
      "d": 280,
      "v": 76
    },
    {
      "midi": 62,
      "hit": false,
      "t": 140080,
      "d": 45,
      "v": 53
    },
    {
      "midi": 64,
      "hit": false,
      "t": 140175,
      "d": 190,
      "v": 64
    },
    {
      "midi": 71,
      "hit": false,
      "t": 140200,
      "d": 1520,
      "v": 54
    },
    {
      "midi": 62,
      "hit": false,
      "t": 140415,
      "d": 1370,
      "v": 97
    },
    {
      "midi": 59,
      "hit": false,
      "t": 141600,
      "d": 1975,
      "v": 68
    },
    {
      "midi": 62,
      "hit": false,
      "t": 141600,
      "d": 1975,
      "v": 68
    },
    {
      "midi": 65,
      "hit": false,
      "t": 141600,
      "d": 1975,
      "v": 68
    },
    {
      "midi": 69,
      "hit": false,
      "t": 142200,
      "d": 85,
      "v": 86
    },
    {
      "midi": 71,
      "hit": false,
      "t": 142200,
      "d": 175,
      "v": 64
    },
    {
      "midi": 74,
      "hit": false,
      "t": 142200,
      "d": 225,
      "v": 79
    },
    {
      "midi": 67,
      "hit": false,
      "t": 142500,
      "d": 275,
      "v": 107
    },
    {
      "midi": 71,
      "hit": false,
      "t": 142505,
      "d": 300,
      "v": 60
    },
    {
      "midi": 71,
      "hit": false,
      "t": 142800,
      "d": 400,
      "v": 81
    },
    {
      "midi": 74,
      "hit": false,
      "t": 142800,
      "d": 860,
      "v": 75
    },
    {
      "midi": 67,
      "hit": false,
      "t": 142830,
      "d": 130,
      "v": 105
    },
    {
      "midi": 71,
      "hit": false,
      "t": 142830,
      "d": 1220,
      "v": 84
    },
    {
      "midi": 69,
      "hit": false,
      "t": 142910,
      "d": 360,
      "v": 73
    },
    {
      "midi": 69,
      "hit": false,
      "t": 143200,
      "d": 200,
      "v": 62
    },
    {
      "midi": 67,
      "hit": false,
      "t": 143325,
      "d": 255,
      "v": 100
    },
    {
      "midi": 67,
      "hit": false,
      "t": 143400,
      "d": 175,
      "v": 69
    },
    {
      "midi": 67,
      "hit": false,
      "t": 143620,
      "d": 205,
      "v": 107
    },
    {
      "midi": 65,
      "hit": false,
      "t": 143765,
      "d": 210,
      "v": 105
    },
    {
      "midi": 48,
      "hit": false,
      "t": 144000,
      "d": 330,
      "v": 79
    },
    {
      "midi": 64,
      "hit": false,
      "t": 144015,
      "d": 470,
      "v": 107
    },
    {
      "midi": 62,
      "hit": false,
      "t": 144525,
      "d": 525,
      "v": 102
    },
    {
      "midi": 60,
      "hit": false,
      "t": 144600,
      "d": 260,
      "v": 63
    },
    {
      "midi": 64,
      "hit": false,
      "t": 144600,
      "d": 260,
      "v": 69
    },
    {
      "midi": 55,
      "hit": false,
      "t": 144600,
      "d": 275,
      "v": 59
    },
    {
      "midi": 79,
      "hit": false,
      "t": 145000,
      "d": 200,
      "v": 97
    },
    {
      "midi": 84,
      "hit": false,
      "t": 145000,
      "d": 780,
      "v": 90
    },
    {
      "midi": 60,
      "hit": false,
      "t": 145035,
      "d": 160,
      "v": 91
    },
    {
      "midi": 81,
      "hit": false,
      "t": 145100,
      "d": 680,
      "v": 70
    },
    {
      "midi": 62,
      "hit": false,
      "t": 145115,
      "d": 255,
      "v": 91
    },
    {
      "midi": 67,
      "hit": false,
      "t": 145115,
      "d": 1605,
      "v": 48
    },
    {
      "midi": 43,
      "hit": false,
      "t": 145200,
      "d": 260,
      "v": 68
    },
    {
      "midi": 64,
      "hit": false,
      "t": 145325,
      "d": 1335,
      "v": 95
    },
    {
      "midi": 79,
      "hit": false,
      "t": 145600,
      "d": 195,
      "v": 73
    },
    {
      "midi": 55,
      "hit": false,
      "t": 145800,
      "d": 205,
      "v": 48
    },
    {
      "midi": 60,
      "hit": false,
      "t": 145800,
      "d": 205,
      "v": 56
    },
    {
      "midi": 64,
      "hit": false,
      "t": 145800,
      "d": 205,
      "v": 47
    },
    {
      "midi": 74,
      "hit": false,
      "t": 145800,
      "d": 205,
      "v": 95
    },
    {
      "midi": 79,
      "hit": false,
      "t": 145800,
      "d": 600,
      "v": 84
    },
    {
      "midi": 76,
      "hit": false,
      "t": 145900,
      "d": 300,
      "v": 80
    },
    {
      "midi": 74,
      "hit": false,
      "t": 146005,
      "d": 195,
      "v": 67
    },
    {
      "midi": 72,
      "hit": false,
      "t": 146200,
      "d": 200,
      "v": 77
    },
    {
      "midi": 48,
      "hit": false,
      "t": 146400,
      "d": 800,
      "v": 83
    },
    {
      "midi": 52,
      "hit": false,
      "t": 147000,
      "d": 350,
      "v": 61
    },
    {
      "midi": 58,
      "hit": false,
      "t": 147000,
      "d": 350,
      "v": 70
    },
    {
      "midi": 67,
      "hit": false,
      "t": 147000,
      "d": 350,
      "v": 90
    },
    {
      "midi": 72,
      "hit": false,
      "t": 147000,
      "d": 910,
      "v": 84
    },
    {
      "midi": 72,
      "hit": false,
      "t": 147040,
      "d": 190,
      "v": 102
    },
    {
      "midi": 74,
      "hit": false,
      "t": 147190,
      "d": 170,
      "v": 87
    },
    {
      "midi": 69,
      "hit": false,
      "t": 147200,
      "d": 710,
      "v": 57
    },
    {
      "midi": 79,
      "hit": false,
      "t": 147200,
      "d": 135,
      "v": 39
    },
    {
      "midi": 79,
      "hit": false,
      "t": 147400,
      "d": 555,
      "v": 86
    },
    {
      "midi": 74,
      "hit": false,
      "t": 147410,
      "d": 100,
      "v": 105
    },
    {
      "midi": 76,
      "hit": false,
      "t": 147520,
      "d": 505,
      "v": 82
    },
    {
      "midi": 67,
      "hit": false,
      "t": 147600,
      "d": 310,
      "v": 68
    },
    {
      "midi": 43,
      "hit": false,
      "t": 147600,
      "d": 400,
      "v": 69
    },
    {
      "midi": 64,
      "hit": false,
      "t": 148000,
      "d": 380,
      "v": 95
    },
    {
      "midi": 67,
      "hit": false,
      "t": 148000,
      "d": 800,
      "v": 75
    },
    {
      "midi": 79,
      "hit": false,
      "t": 148110,
      "d": 670,
      "v": 97
    },
    {
      "midi": 62,
      "hit": false,
      "t": 148200,
      "d": 550,
      "v": 71
    },
    {
      "midi": 52,
      "hit": false,
      "t": 148200,
      "d": 600,
      "v": 72
    },
    {
      "midi": 58,
      "hit": false,
      "t": 148200,
      "d": 600,
      "v": 82
    },
    {
      "midi": 74,
      "hit": false,
      "t": 148280,
      "d": 80,
      "v": 107
    },
    {
      "midi": 76,
      "hit": false,
      "t": 148370,
      "d": 125,
      "v": 78
    },
    {
      "midi": 74,
      "hit": false,
      "t": 148455,
      "d": 170,
      "v": 81
    },
    {
      "midi": 60,
      "hit": false,
      "t": 148600,
      "d": 200,
      "v": 70
    },
    {
      "midi": 72,
      "hit": false,
      "t": 148600,
      "d": 310,
      "v": 107
    },
    {
      "midi": 79,
      "hit": false,
      "t": 148800,
      "d": 265,
      "v": 90
    },
    {
      "midi": 53,
      "hit": false,
      "t": 148800,
      "d": 375,
      "v": 72
    },
    {
      "midi": 84,
      "hit": false,
      "t": 148800,
      "d": 3360,
      "v": 86
    },
    {
      "midi": 77,
      "hit": false,
      "t": 148850,
      "d": 2390,
      "v": 95
    },
    {
      "midi": 74,
      "hit": false,
      "t": 148945,
      "d": 335,
      "v": 78
    },
    {
      "midi": 81,
      "hit": false,
      "t": 149000,
      "d": 3190,
      "v": 68
    },
    {
      "midi": 72,
      "hit": false,
      "t": 149315,
      "d": 555,
      "v": 95
    },
    {
      "midi": 65,
      "hit": false,
      "t": 149400,
      "d": 180,
      "v": 75
    },
    {
      "midi": 69,
      "hit": false,
      "t": 149400,
      "d": 205,
      "v": 54
    },
    {
      "midi": 60,
      "hit": false,
      "t": 149400,
      "d": 215,
      "v": 59
    },
    {
      "midi": 69,
      "hit": false,
      "t": 149915,
      "d": 1745,
      "v": 107
    },
    {
      "midi": 48,
      "hit": false,
      "t": 150000,
      "d": 290,
      "v": 81
    },
    {
      "midi": 65,
      "hit": false,
      "t": 150600,
      "d": 175,
      "v": 77
    },
    {
      "midi": 69,
      "hit": false,
      "t": 150600,
      "d": 210,
      "v": 69
    },
    {
      "midi": 60,
      "hit": false,
      "t": 150600,
      "d": 230,
      "v": 54
    },
    {
      "midi": 53,
      "hit": false,
      "t": 151200,
      "d": 275,
      "v": 85
    },
    {
      "midi": 65,
      "hit": false,
      "t": 151655,
      "d": 1755,
      "v": 95
    },
    {
      "midi": 65,
      "hit": false,
      "t": 151800,
      "d": 265,
      "v": 73
    },
    {
      "midi": 69,
      "hit": false,
      "t": 151800,
      "d": 265,
      "v": 63
    },
    {
      "midi": 60,
      "hit": false,
      "t": 151800,
      "d": 300,
      "v": 54
    },
    {
      "midi": 69,
      "hit": false,
      "t": 151920,
      "d": 160,
      "v": 107
    },
    {
      "midi": 71,
      "hit": false,
      "t": 152040,
      "d": 200,
      "v": 105
    },
    {
      "midi": 72,
      "hit": false,
      "t": 152280,
      "d": 305,
      "v": 107
    },
    {
      "midi": 48,
      "hit": false,
      "t": 152400,
      "d": 185,
      "v": 49
    },
    {
      "midi": 84,
      "hit": false,
      "t": 152400,
      "d": 340,
      "v": 91
    },
    {
      "midi": 81,
      "hit": false,
      "t": 152600,
      "d": 275,
      "v": 61
    },
    {
      "midi": 72,
      "hit": false,
      "t": 152710,
      "d": 410,
      "v": 95
    },
    {
      "midi": 70,
      "hit": false,
      "t": 152735,
      "d": 15,
      "v": 46
    },
    {
      "midi": 77,
      "hit": false,
      "t": 152800,
      "d": 270,
      "v": 74
    },
    {
      "midi": 84,
      "hit": false,
      "t": 153000,
      "d": 305,
      "v": 82
    },
    {
      "midi": 65,
      "hit": false,
      "t": 153000,
      "d": 465,
      "v": 71
    },
    {
      "midi": 60,
      "hit": false,
      "t": 153000,
      "d": 480,
      "v": 51
    },
    {
      "midi": 69,
      "hit": false,
      "t": 153000,
      "d": 480,
      "v": 56
    },
    {
      "midi": 72,
      "hit": false,
      "t": 153160,
      "d": 395,
      "v": 102
    },
    {
      "midi": 71,
      "hit": false,
      "t": 153175,
      "d": 400,
      "v": 107
    },
    {
      "midi": 81,
      "hit": false,
      "t": 153200,
      "d": 235,
      "v": 67
    },
    {
      "midi": 69,
      "hit": false,
      "t": 153325,
      "d": 300,
      "v": 91
    },
    {
      "midi": 77,
      "hit": false,
      "t": 153400,
      "d": 200,
      "v": 86
    },
    {
      "midi": 74,
      "hit": false,
      "t": 153600,
      "d": 265,
      "v": 90
    },
    {
      "midi": 48,
      "hit": false,
      "t": 153600,
      "d": 375,
      "v": 72
    },
    {
      "midi": 79,
      "hit": false,
      "t": 153600,
      "d": 3360,
      "v": 86
    },
    {
      "midi": 67,
      "hit": false,
      "t": 153600,
      "d": 845,
      "v": 107
    },
    {
      "midi": 72,
      "hit": false,
      "t": 153600,
      "d": 2175,
      "v": 102
    },
    {
      "midi": 76,
      "hit": false,
      "t": 153800,
      "d": 3190,
      "v": 68
    },
    {
      "midi": 60,
      "hit": false,
      "t": 154200,
      "d": 180,
      "v": 75
    },
    {
      "midi": 64,
      "hit": false,
      "t": 154200,
      "d": 205,
      "v": 54
    },
    {
      "midi": 55,
      "hit": false,
      "t": 154200,
      "d": 215,
      "v": 59
    },
    {
      "midi": 65,
      "hit": false,
      "t": 154410,
      "d": 375,
      "v": 87
    },
    {
      "midi": 64,
      "hit": false,
      "t": 154770,
      "d": 200,
      "v": 102
    },
    {
      "midi": 43,
      "hit": false,
      "t": 154800,
      "d": 290,
      "v": 81
    },
    {
      "midi": 65,
      "hit": false,
      "t": 154915,
      "d": 250,
      "v": 82
    },
    {
      "midi": 67,
      "hit": false,
      "t": 155150,
      "d": 1675,
      "v": 77
    },
    {
      "midi": 60,
      "hit": false,
      "t": 155400,
      "d": 175,
      "v": 77
    },
    {
      "midi": 64,
      "hit": false,
      "t": 155400,
      "d": 210,
      "v": 69
    },
    {
      "midi": 55,
      "hit": false,
      "t": 155400,
      "d": 230,
      "v": 54
    },
    {
      "midi": 48,
      "hit": false,
      "t": 156000,
      "d": 275,
      "v": 85
    },
    {
      "midi": 60,
      "hit": false,
      "t": 156600,
      "d": 265,
      "v": 73
    },
    {
      "midi": 64,
      "hit": false,
      "t": 156600,
      "d": 265,
      "v": 63
    },
    {
      "midi": 55,
      "hit": false,
      "t": 156600,
      "d": 300,
      "v": 54
    },
    {
      "midi": 64,
      "hit": false,
      "t": 156815,
      "d": 190,
      "v": 102
    },
    {
      "midi": 65,
      "hit": false,
      "t": 156965,
      "d": 215,
      "v": 107
    },
    {
      "midi": 43,
      "hit": false,
      "t": 157200,
      "d": 185,
      "v": 49
    },
    {
      "midi": 79,
      "hit": false,
      "t": 157200,
      "d": 340,
      "v": 91
    },
    {
      "midi": 64,
      "hit": false,
      "t": 157210,
      "d": 375,
      "v": 93
    },
    {
      "midi": 67,
      "hit": false,
      "t": 157220,
      "d": 440,
      "v": 105
    },
    {
      "midi": 76,
      "hit": false,
      "t": 157400,
      "d": 275,
      "v": 61
    },
    {
      "midi": 72,
      "hit": false,
      "t": 157600,
      "d": 270,
      "v": 74
    },
    {
      "midi": 64,
      "hit": false,
      "t": 157710,
      "d": 305,
      "v": 91
    },
    {
      "midi": 79,
      "hit": false,
      "t": 157800,
      "d": 305,
      "v": 82
    },
    {
      "midi": 60,
      "hit": false,
      "t": 157800,
      "d": 465,
      "v": 71
    },
    {
      "midi": 55,
      "hit": false,
      "t": 157800,
      "d": 480,
      "v": 51
    },
    {
      "midi": 64,
      "hit": false,
      "t": 157800,
      "d": 480,
      "v": 56
    },
    {
      "midi": 76,
      "hit": false,
      "t": 158000,
      "d": 235,
      "v": 67
    },
    {
      "midi": 67,
      "hit": false,
      "t": 158035,
      "d": 65,
      "v": 80
    },
    {
      "midi": 65,
      "hit": false,
      "t": 158045,
      "d": 270,
      "v": 107
    },
    {
      "midi": 72,
      "hit": false,
      "t": 158200,
      "d": 200,
      "v": 86
    },
    {
      "midi": 64,
      "hit": false,
      "t": 158260,
      "d": 125,
      "v": 91
    },
    {
      "midi": 69,
      "hit": false,
      "t": 158400,
      "d": 265,
      "v": 90
    },
    {
      "midi": 43,
      "hit": false,
      "t": 158400,
      "d": 375,
      "v": 72
    },
    {
      "midi": 74,
      "hit": false,
      "t": 158400,
      "d": 3360,
      "v": 86
    },
    {
      "midi": 64,
      "hit": false,
      "t": 158540,
      "d": 200,
      "v": 107
    },
    {
      "midi": 71,
      "hit": false,
      "t": 158600,
      "d": 3190,
      "v": 68
    },
    {
      "midi": 65,
      "hit": false,
      "t": 158710,
      "d": 145,
      "v": 70
    },
    {
      "midi": 64,
      "hit": false,
      "t": 158790,
      "d": 65,
      "v": 86
    },
    {
      "midi": 62,
      "hit": false,
      "t": 158850,
      "d": 200,
      "v": 84
    },
    {
      "midi": 55,
      "hit": false,
      "t": 159000,
      "d": 180,
      "v": 54
    },
    {
      "midi": 59,
      "hit": false,
      "t": 159000,
      "d": 205,
      "v": 54
    },
    {
      "midi": 50,
      "hit": false,
      "t": 159000,
      "d": 215,
      "v": 59
    },
    {
      "midi": 53,
      "hit": false,
      "t": 159000,
      "d": 225,
      "v": 75
    },
    {
      "midi": 62,
      "hit": false,
      "t": 159135,
      "d": 255,
      "v": 61
    },
    {
      "midi": 62,
      "hit": false,
      "t": 159510,
      "d": 2055,
      "v": 86
    },
    {
      "midi": 38,
      "hit": false,
      "t": 159600,
      "d": 290,
      "v": 81
    },
    {
      "midi": 55,
      "hit": false,
      "t": 160200,
      "d": 175,
      "v": 53
    },
    {
      "midi": 59,
      "hit": false,
      "t": 160200,
      "d": 210,
      "v": 69
    },
    {
      "midi": 50,
      "hit": false,
      "t": 160200,
      "d": 230,
      "v": 54
    },
    {
      "midi": 53,
      "hit": false,
      "t": 160200,
      "d": 230,
      "v": 77
    },
    {
      "midi": 43,
      "hit": false,
      "t": 160800,
      "d": 275,
      "v": 85
    },
    {
      "midi": 55,
      "hit": false,
      "t": 161400,
      "d": 265,
      "v": 58
    },
    {
      "midi": 59,
      "hit": false,
      "t": 161400,
      "d": 265,
      "v": 63
    },
    {
      "midi": 53,
      "hit": false,
      "t": 161400,
      "d": 275,
      "v": 73
    },
    {
      "midi": 50,
      "hit": false,
      "t": 161400,
      "d": 300,
      "v": 54
    },
    {
      "midi": 62,
      "hit": false,
      "t": 161680,
      "d": 195,
      "v": 107
    },
    {
      "midi": 64,
      "hit": false,
      "t": 161825,
      "d": 135,
      "v": 82
    },
    {
      "midi": 38,
      "hit": false,
      "t": 162000,
      "d": 185,
      "v": 49
    },
    {
      "midi": 74,
      "hit": false,
      "t": 162000,
      "d": 340,
      "v": 91
    },
    {
      "midi": 65,
      "hit": false,
      "t": 162050,
      "d": 455,
      "v": 89
    },
    {
      "midi": 71,
      "hit": false,
      "t": 162200,
      "d": 275,
      "v": 61
    },
    {
      "midi": 67,
      "hit": false,
      "t": 162400,
      "d": 270,
      "v": 74
    },
    {
      "midi": 67,
      "hit": false,
      "t": 162515,
      "d": 285,
      "v": 89
    },
    {
      "midi": 74,
      "hit": false,
      "t": 162600,
      "d": 305,
      "v": 82
    },
    {
      "midi": 55,
      "hit": false,
      "t": 162600,
      "d": 465,
      "v": 56
    },
    {
      "midi": 50,
      "hit": false,
      "t": 162600,
      "d": 480,
      "v": 51
    },
    {
      "midi": 53,
      "hit": false,
      "t": 162600,
      "d": 480,
      "v": 71
    },
    {
      "midi": 59,
      "hit": false,
      "t": 162600,
      "d": 480,
      "v": 56
    },
    {
      "midi": 71,
      "hit": false,
      "t": 162800,
      "d": 235,
      "v": 67
    },
    {
      "midi": 62,
      "hit": false,
      "t": 162815,
      "d": 80,
      "v": 89
    },
    {
      "midi": 67,
      "hit": false,
      "t": 162820,
      "d": 470,
      "v": 73
    },
    {
      "midi": 64,
      "hit": false,
      "t": 162900,
      "d": 120,
      "v": 64
    },
    {
      "midi": 62,
      "hit": false,
      "t": 162970,
      "d": 190,
      "v": 53
    },
    {
      "midi": 67,
      "hit": false,
      "t": 163000,
      "d": 200,
      "v": 86
    },
    {
      "midi": 74,
      "hit": false,
      "t": 163200,
      "d": 265,
      "v": 90
    },
    {
      "midi": 48,
      "hit": false,
      "t": 163200,
      "d": 375,
      "v": 72
    },
    {
      "midi": 79,
      "hit": false,
      "t": 163200,
      "d": 3360,
      "v": 86
    },
    {
      "midi": 60,
      "hit": false,
      "t": 163240,
      "d": 3185,
      "v": 91
    },
    {
      "midi": 76,
      "hit": false,
      "t": 163400,
      "d": 3190,
      "v": 68
    },
    {
      "midi": 60,
      "hit": false,
      "t": 163800,
      "d": 180,
      "v": 75
    },
    {
      "midi": 64,
      "hit": false,
      "t": 163800,
      "d": 205,
      "v": 54
    },
    {
      "midi": 55,
      "hit": false,
      "t": 163800,
      "d": 215,
      "v": 59
    },
    {
      "midi": 43,
      "hit": false,
      "t": 164400,
      "d": 290,
      "v": 81
    },
    {
      "midi": 60,
      "hit": false,
      "t": 165000,
      "d": 175,
      "v": 77
    },
    {
      "midi": 64,
      "hit": false,
      "t": 165000,
      "d": 210,
      "v": 69
    },
    {
      "midi": 55,
      "hit": false,
      "t": 165000,
      "d": 230,
      "v": 54
    },
    {
      "midi": 48,
      "hit": false,
      "t": 165600,
      "d": 275,
      "v": 85
    },
    {
      "midi": 60,
      "hit": false,
      "t": 166200,
      "d": 265,
      "v": 73
    },
    {
      "midi": 64,
      "hit": false,
      "t": 166200,
      "d": 265,
      "v": 63
    },
    {
      "midi": 55,
      "hit": false,
      "t": 166200,
      "d": 300,
      "v": 54
    },
    {
      "midi": 64,
      "hit": false,
      "t": 166450,
      "d": 215,
      "v": 89
    },
    {
      "midi": 65,
      "hit": false,
      "t": 166615,
      "d": 215,
      "v": 86
    },
    {
      "midi": 43,
      "hit": false,
      "t": 166800,
      "d": 185,
      "v": 49
    },
    {
      "midi": 79,
      "hit": false,
      "t": 166800,
      "d": 340,
      "v": 91
    },
    {
      "midi": 67,
      "hit": false,
      "t": 166865,
      "d": 765,
      "v": 89
    },
    {
      "midi": 76,
      "hit": false,
      "t": 167000,
      "d": 275,
      "v": 61
    },
    {
      "midi": 72,
      "hit": false,
      "t": 167200,
      "d": 270,
      "v": 74
    },
    {
      "midi": 64,
      "hit": false,
      "t": 167330,
      "d": 420,
      "v": 97
    },
    {
      "midi": 79,
      "hit": false,
      "t": 167400,
      "d": 305,
      "v": 82
    },
    {
      "midi": 60,
      "hit": false,
      "t": 167400,
      "d": 465,
      "v": 71
    },
    {
      "midi": 55,
      "hit": false,
      "t": 167400,
      "d": 480,
      "v": 51
    },
    {
      "midi": 64,
      "hit": false,
      "t": 167400,
      "d": 480,
      "v": 56
    },
    {
      "midi": 76,
      "hit": false,
      "t": 167600,
      "d": 235,
      "v": 67
    },
    {
      "midi": 65,
      "hit": false,
      "t": 167660,
      "d": 295,
      "v": 89
    },
    {
      "midi": 72,
      "hit": false,
      "t": 167800,
      "d": 200,
      "v": 86
    },
    {
      "midi": 64,
      "hit": false,
      "t": 167835,
      "d": 145,
      "v": 93
    },
    {
      "midi": 59,
      "hit": false,
      "t": 168000,
      "d": 2035,
      "v": 70
    },
    {
      "midi": 62,
      "hit": false,
      "t": 168000,
      "d": 2035,
      "v": 70
    },
    {
      "midi": 65,
      "hit": false,
      "t": 168000,
      "d": 2035,
      "v": 70
    },
    {
      "midi": 64,
      "hit": false,
      "t": 168095,
      "d": 160,
      "v": 97
    },
    {
      "midi": 65,
      "hit": false,
      "t": 168215,
      "d": 175,
      "v": 77
    },
    {
      "midi": 64,
      "hit": false,
      "t": 168290,
      "d": 135,
      "v": 71
    },
    {
      "midi": 62,
      "hit": false,
      "t": 168380,
      "d": 250,
      "v": 80
    },
    {
      "midi": 69,
      "hit": false,
      "t": 168600,
      "d": 115,
      "v": 86
    },
    {
      "midi": 74,
      "hit": false,
      "t": 168600,
      "d": 255,
      "v": 77
    },
    {
      "midi": 64,
      "hit": false,
      "t": 168645,
      "d": 350,
      "v": 93
    },
    {
      "midi": 71,
      "hit": false,
      "t": 168700,
      "d": 185,
      "v": 66
    },
    {
      "midi": 62,
      "hit": false,
      "t": 169070,
      "d": 2020,
      "v": 77
    },
    {
      "midi": 71,
      "hit": false,
      "t": 169200,
      "d": 410,
      "v": 71
    },
    {
      "midi": 74,
      "hit": false,
      "t": 169200,
      "d": 1245,
      "v": 63
    },
    {
      "midi": 69,
      "hit": false,
      "t": 169600,
      "d": 205,
      "v": 70
    },
    {
      "midi": 67,
      "hit": false,
      "t": 169805,
      "d": 230,
      "v": 68
    },
    {
      "midi": 67,
      "hit": false,
      "t": 170400,
      "d": 45,
      "v": 73
    },
    {
      "midi": 59,
      "hit": false,
      "t": 170400,
      "d": 1830,
      "v": 73
    },
    {
      "midi": 62,
      "hit": false,
      "t": 170400,
      "d": 1830,
      "v": 73
    },
    {
      "midi": 65,
      "hit": false,
      "t": 170400,
      "d": 1830,
      "v": 73
    },
    {
      "midi": 69,
      "hit": false,
      "t": 171000,
      "d": 100,
      "v": 88
    },
    {
      "midi": 74,
      "hit": false,
      "t": 171000,
      "d": 300,
      "v": 76
    },
    {
      "midi": 71,
      "hit": false,
      "t": 171100,
      "d": 200,
      "v": 43
    },
    {
      "midi": 62,
      "hit": false,
      "t": 171265,
      "d": 185,
      "v": 93
    },
    {
      "midi": 64,
      "hit": false,
      "t": 171420,
      "d": 125,
      "v": 87
    },
    {
      "midi": 71,
      "hit": false,
      "t": 171600,
      "d": 400,
      "v": 80
    },
    {
      "midi": 74,
      "hit": false,
      "t": 171600,
      "d": 900,
      "v": 70
    },
    {
      "midi": 65,
      "hit": false,
      "t": 171650,
      "d": 365,
      "v": 89
    },
    {
      "midi": 69,
      "hit": false,
      "t": 172000,
      "d": 280,
      "v": 73
    },
    {
      "midi": 67,
      "hit": false,
      "t": 172115,
      "d": 290,
      "v": 89
    },
    {
      "midi": 67,
      "hit": false,
      "t": 172200,
      "d": 30,
      "v": 68
    },
    {
      "midi": 67,
      "hit": false,
      "t": 172435,
      "d": 415,
      "v": 86
    },
    {
      "midi": 62,
      "hit": false,
      "t": 172440,
      "d": 75,
      "v": 87
    },
    {
      "midi": 64,
      "hit": false,
      "t": 172525,
      "d": 115,
      "v": 58
    },
    {
      "midi": 62,
      "hit": false,
      "t": 172610,
      "d": 175,
      "v": 80
    },
    {
      "midi": 48,
      "hit": false,
      "t": 172800,
      "d": 335,
      "v": 75
    },
    {
      "midi": 60,
      "hit": false,
      "t": 172885,
      "d": 3400,
      "v": 89
    },
    {
      "midi": 72,
      "hit": false,
      "t": 173200,
      "d": 365,
      "v": 66
    },
    {
      "midi": 55,
      "hit": false,
      "t": 173400,
      "d": 200,
      "v": 54
    },
    {
      "midi": 60,
      "hit": false,
      "t": 173400,
      "d": 200,
      "v": 71
    },
    {
      "midi": 64,
      "hit": false,
      "t": 173400,
      "d": 200,
      "v": 58
    },
    {
      "midi": 79,
      "hit": false,
      "t": 173400,
      "d": 375,
      "v": 90
    },
    {
      "midi": 76,
      "hit": false,
      "t": 173600,
      "d": 385,
      "v": 62
    },
    {
      "midi": 72,
      "hit": false,
      "t": 173800,
      "d": 215,
      "v": 63
    },
    {
      "midi": 84,
      "hit": false,
      "t": 174000,
      "d": 1200,
      "v": 86
    },
    {
      "midi": 48,
      "hit": false,
      "t": 174015,
      "d": 295,
      "v": 68
    },
    {
      "midi": 79,
      "hit": false,
      "t": 174400,
      "d": 800,
      "v": 85
    },
    {
      "midi": 55,
      "hit": false,
      "t": 174600,
      "d": 600,
      "v": 38
    },
    {
      "midi": 60,
      "hit": false,
      "t": 174600,
      "d": 600,
      "v": 64
    },
    {
      "midi": 64,
      "hit": false,
      "t": 174600,
      "d": 600,
      "v": 41
    },
    {
      "midi": 48,
      "hit": false,
      "t": 175200,
      "d": 600,
      "v": 89
    },
    {
      "midi": 52,
      "hit": false,
      "t": 175800,
      "d": 200,
      "v": 68
    },
    {
      "midi": 55,
      "hit": false,
      "t": 175800,
      "d": 200,
      "v": 58
    },
    {
      "midi": 60,
      "hit": false,
      "t": 175800,
      "d": 200,
      "v": 46
    },
    {
      "midi": 67,
      "hit": false,
      "t": 175800,
      "d": 200,
      "v": 77
    },
    {
      "midi": 64,
      "hit": false,
      "t": 176000,
      "d": 200,
      "v": 53
    },
    {
      "midi": 67,
      "hit": false,
      "t": 176200,
      "d": 200,
      "v": 74
    },
    {
      "midi": 43,
      "hit": false,
      "t": 176400,
      "d": 200,
      "v": 76
    },
    {
      "midi": 72,
      "hit": false,
      "t": 176400,
      "d": 400,
      "v": 87
    },
    {
      "midi": 67,
      "hit": false,
      "t": 176600,
      "d": 200,
      "v": 79
    },
    {
      "midi": 76,
      "hit": false,
      "t": 176800,
      "d": 800,
      "v": 85
    },
    {
      "midi": 52,
      "hit": false,
      "t": 177000,
      "d": 600,
      "v": 59
    },
    {
      "midi": 55,
      "hit": false,
      "t": 177000,
      "d": 600,
      "v": 67
    },
    {
      "midi": 60,
      "hit": false,
      "t": 177000,
      "d": 600,
      "v": 66
    },
    {
      "midi": 48,
      "hit": false,
      "t": 177600,
      "d": 395,
      "v": 62
    },
    {
      "midi": 72,
      "hit": false,
      "t": 178000,
      "d": 200,
      "v": 65
    },
    {
      "midi": 55,
      "hit": false,
      "t": 178200,
      "d": 200,
      "v": 55
    },
    {
      "midi": 60,
      "hit": false,
      "t": 178200,
      "d": 200,
      "v": 56
    },
    {
      "midi": 64,
      "hit": false,
      "t": 178200,
      "d": 200,
      "v": 67
    },
    {
      "midi": 79,
      "hit": false,
      "t": 178200,
      "d": 200,
      "v": 85
    },
    {
      "midi": 76,
      "hit": false,
      "t": 178400,
      "d": 365,
      "v": 50
    },
    {
      "midi": 72,
      "hit": false,
      "t": 178600,
      "d": 200,
      "v": 54
    },
    {
      "midi": 43,
      "hit": false,
      "t": 178800,
      "d": 200,
      "v": 85
    },
    {
      "midi": 79,
      "hit": false,
      "t": 178800,
      "d": 200,
      "v": 74
    },
    {
      "midi": 76,
      "hit": false,
      "t": 179000,
      "d": 350,
      "v": 48
    },
    {
      "midi": 72,
      "hit": false,
      "t": 179200,
      "d": 200,
      "v": 57
    },
    {
      "midi": 55,
      "hit": false,
      "t": 179400,
      "d": 200,
      "v": 54
    },
    {
      "midi": 60,
      "hit": false,
      "t": 179400,
      "d": 200,
      "v": 50
    },
    {
      "midi": 64,
      "hit": false,
      "t": 179400,
      "d": 200,
      "v": 59
    },
    {
      "midi": 79,
      "hit": false,
      "t": 179400,
      "d": 200,
      "v": 65
    },
    {
      "midi": 76,
      "hit": false,
      "t": 179600,
      "d": 365,
      "v": 56
    },
    {
      "midi": 72,
      "hit": false,
      "t": 179800,
      "d": 200,
      "v": 75
    },
    {
      "midi": 48,
      "hit": false,
      "t": 180000,
      "d": 340,
      "v": 72
    },
    {
      "midi": 79,
      "hit": false,
      "t": 180000,
      "d": 1005,
      "v": 84
    },
    {
      "midi": 43,
      "hit": false,
      "t": 180600,
      "d": 760,
      "v": 74
    },
    {
      "midi": 36,
      "hit": false,
      "t": 181200,
      "d": 810,
      "v": 68
    },
    {
      "midi": 76,
      "hit": false,
      "t": 181200,
      "d": 810,
      "v": 65
    },
    {
      "midi": 79,
      "hit": false,
      "t": 181200,
      "d": 810,
      "v": 73
    },
    {
      "midi": 84,
      "hit": false,
      "t": 181200,
      "d": 810,
      "v": 82
    }
  ]
}