{
  "jsonPath": "Animes/Secret Of Mana MIDI Collection/a-whisper-and-mantra.json",
  "path": "Animes\\Secret Of Mana MIDI Collection\\A Whisper and Mantra.mid",
  "name": "A Whisper and Mantra",
  "difficulty": "Advanced",
  "bpm": 57.999986466669824,
  "notes": [
    {
      "midi": 81,
      "hit": false,
      "t": 0,
      "d": 275.86213333333336,
      "v": 80
    },
    {
      "midi": 62,
      "hit": false,
      "t": 0,
      "d": 827.5864,
      "v": 80
    },
    {
      "midi": 62,
      "hit": false,
      "t": 0,
      "d": 827.5864,
      "v": 80
    },
    {
      "midi": 62,
      "hit": false,
      "t": 0,
      "d": 827.5864,
      "v": 80
    },
    {
      "midi": 50,
      "hit": false,
      "t": 0,
      "d": 827.5864,
      "v": 80
    },
    {
      "midi": 76,
      "hit": false,
      "t": 344.8276666666667,
      "d": 275.8621333333334,
      "v": 80
    },
    {
      "midi": 74,
      "hit": false,
      "t": 689.6553333333335,
      "d": 275.8621333333334,
      "v": 80
    },
    {
      "midi": 60,
      "hit": false,
      "t": 1034.483,
      "d": 1655.1728,
      "v": 80
    },
    {
      "midi": 60,
      "hit": false,
      "t": 1034.483,
      "d": 1655.1728,
      "v": 80
    },
    {
      "midi": 60,
      "hit": false,
      "t": 1034.483,
      "d": 1655.1728,
      "v": 80
    },
    {
      "midi": 48,
      "hit": false,
      "t": 1034.483,
      "d": 1655.1728,
      "v": 80
    },
    {
      "midi": 79,
      "hit": false,
      "t": 1034.4830000000002,
      "d": 275.8621333333333,
      "v": 80
    },
    {
      "midi": 72,
      "hit": false,
      "t": 1379.3106666666667,
      "d": 275.8621333333333,
      "v": 80
    },
    {
      "midi": 74,
      "hit": false,
      "t": 1724.1383333333333,
      "d": 275.8621333333333,
      "v": 80
    },
    {
      "midi": 83,
      "hit": false,
      "t": 2068.966,
      "d": 275.86213333333353,
      "v": 80
    },
    {
      "midi": 48,
      "hit": false,
      "t": 2068.966,
      "d": 1655.1727999999998,
      "v": 80
    },
    {
      "midi": 84,
      "hit": false,
      "t": 2413.793666666667,
      "d": 275.86213333333353,
      "v": 80
    },
    {
      "midi": 83,
      "hit": false,
      "t": 2758.621333333334,
      "d": 275.86213333333353,
      "v": 80
    },
    {
      "midi": 64,
      "hit": false,
      "t": 3103.449,
      "d": 827.5864000000001,
      "v": 80
    },
    {
      "midi": 64,
      "hit": false,
      "t": 3103.449,
      "d": 827.5864000000001,
      "v": 80
    },
    {
      "midi": 64,
      "hit": false,
      "t": 3103.449,
      "d": 827.5864000000001,
      "v": 80
    },
    {
      "midi": 52,
      "hit": false,
      "t": 3103.449,
      "d": 827.5864000000001,
      "v": 80
    },
    {
      "midi": 79,
      "hit": false,
      "t": 3103.449000000001,
      "d": 275.86213333333353,
      "v": 80
    },
    {
      "midi": 74,
      "hit": false,
      "t": 3448.276666666668,
      "d": 275.86213333333353,
      "v": 80
    },
    {
      "midi": 71,
      "hit": false,
      "t": 3793.104333333335,
      "d": 275.86213333333353,
      "v": 80
    },
    {
      "midi": 62,
      "hit": false,
      "t": 4137.932,
      "d": 827.5864000000001,
      "v": 80
    },
    {
      "midi": 62,
      "hit": false,
      "t": 4137.932,
      "d": 827.5864000000001,
      "v": 80
    },
    {
      "midi": 62,
      "hit": false,
      "t": 4137.932,
      "d": 827.5864000000001,
      "v": 80
    },
    {
      "midi": 50,
      "hit": false,
      "t": 4137.932,
      "d": 827.5864000000001,
      "v": 80
    },
    {
      "midi": 81,
      "hit": false,
      "t": 4137.932000000002,
      "d": 275.8621333333331,
      "v": 80
    },
    {
      "midi": 76,
      "hit": false,
      "t": 4482.759666666668,
      "d": 275.8621333333331,
      "v": 80
    },
    {
      "midi": 74,
      "hit": false,
      "t": 4827.587333333334,
      "d": 275.8621333333331,
      "v": 80
    },
    {
      "midi": 79,
      "hit": false,
      "t": 5172.415,
      "d": 275.8621333333331,
      "v": 80
    },
    {
      "midi": 55,
      "hit": false,
      "t": 5172.415,
      "d": 206.89660000000003,
      "v": 80
    },
    {
      "midi": 55,
      "hit": false,
      "t": 5172.415,
      "d": 206.89660000000003,
      "v": 80
    },
    {
      "midi": 55,
      "hit": false,
      "t": 5172.415,
      "d": 206.89660000000003,
      "v": 80
    },
    {
      "midi": 43,
      "hit": false,
      "t": 5172.415,
      "d": 206.89660000000003,
      "v": 80
    },
    {
      "midi": 57,
      "hit": false,
      "t": 5431.03575,
      "d": 827.5864000000001,
      "v": 80
    },
    {
      "midi": 57,
      "hit": false,
      "t": 5431.03575,
      "d": 827.5864000000001,
      "v": 80
    },
    {
      "midi": 57,
      "hit": false,
      "t": 5431.03575,
      "d": 827.5864000000001,
      "v": 80
    },
    {
      "midi": 45,
      "hit": false,
      "t": 5431.03575,
      "d": 827.5864000000001,
      "v": 80
    },
    {
      "midi": 72,
      "hit": false,
      "t": 5517.242666666666,
      "d": 275.8621333333331,
      "v": 80
    },
    {
      "midi": 74,
      "hit": false,
      "t": 5862.070333333332,
      "d": 275.8621333333331,
      "v": 80
    },
    {
      "midi": 83,
      "hit": false,
      "t": 6206.897999999998,
      "d": 275.8621333333331,
      "v": 80
    },
    {
      "midi": 67,
      "hit": false,
      "t": 6465.51875,
      "d": 1241.3796000000002,
      "v": 80
    },
    {
      "midi": 67,
      "hit": false,
      "t": 6465.51875,
      "d": 1241.3796000000002,
      "v": 80
    },
    {
      "midi": 67,
      "hit": false,
      "t": 6465.51875,
      "d": 1241.3796000000002,
      "v": 80
    },
    {
      "midi": 55,
      "hit": false,
      "t": 6465.51875,
      "d": 1241.3796000000002,
      "v": 80
    },
    {
      "midi": 84,
      "hit": false,
      "t": 6551.725666666664,
      "d": 275.8621333333331,
      "v": 80
    },
    {
      "midi": 83,
      "hit": false,
      "t": 6896.553333333331,
      "d": 275.8621333333331,
      "v": 80
    },
    {
      "midi": 79,
      "hit": false,
      "t": 7241.380999999997,
      "d": 275.8621333333331,
      "v": 80
    },
    {
      "midi": 74,
      "hit": false,
      "t": 7586.208666666663,
      "d": 275.8621333333331,
      "v": 80
    },
    {
      "midi": 71,
      "hit": false,
      "t": 7931.036333333329,
      "d": 275.8621333333331,
      "v": 80
    },
    {
      "midi": 81,
      "hit": false,
      "t": 8275.863999999996,
      "d": 275.862133333334,
      "v": 80
    },
    {
      "midi": 64,
      "hit": false,
      "t": 8275.864,
      "d": 2482.7592000000004,
      "v": 80
    },
    {
      "midi": 64,
      "hit": false,
      "t": 8275.864,
      "d": 827.5864000000001,
      "v": 80
    },
    {
      "midi": 64,
      "hit": false,
      "t": 8275.864,
      "d": 827.5864000000001,
      "v": 80
    },
    {
      "midi": 52,
      "hit": false,
      "t": 8275.864,
      "d": 827.5864000000001,
      "v": 80
    },
    {
      "midi": 76,
      "hit": false,
      "t": 8620.691666666664,
      "d": 275.862133333334,
      "v": 80
    },
    {
      "midi": 74,
      "hit": false,
      "t": 8965.519333333332,
      "d": 275.862133333334,
      "v": 80
    },
    {
      "midi": 79,
      "hit": false,
      "t": 9310.347,
      "d": 275.862133333334,
      "v": 80
    },
    {
      "midi": 64,
      "hit": false,
      "t": 9310.347,
      "d": 2482.7592000000004,
      "v": 80
    },
    {
      "midi": 64,
      "hit": false,
      "t": 9310.347,
      "d": 2482.7592000000004,
      "v": 80
    },
    {
      "midi": 52,
      "hit": false,
      "t": 9310.347,
      "d": 2482.7592000000004,
      "v": 80
    },
    {
      "midi": 72,
      "hit": false,
      "t": 9655.174666666668,
      "d": 275.862133333334,
      "v": 80
    },
    {
      "midi": 74,
      "hit": false,
      "t": 10000.002333333336,
      "d": 275.862133333334,
      "v": 80
    },
    {
      "midi": 51,
      "hit": false,
      "t": 10344.83,
      "d": 21.551729166667428,
      "v": 80
    },
    {
      "midi": 83,
      "hit": false,
      "t": 10344.830000000004,
      "d": 275.862133333334,
      "v": 80
    },
    {
      "midi": 52,
      "hit": false,
      "t": 10375.002420833334,
      "d": 1241.3796000000002,
      "v": 80
    },
    {
      "midi": 84,
      "hit": false,
      "t": 10689.657666666672,
      "d": 275.862133333334,
      "v": 80
    },
    {
      "midi": 83,
      "hit": false,
      "t": 11034.48533333334,
      "d": 275.862133333334,
      "v": 80
    },
    {
      "midi": 79,
      "hit": false,
      "t": 11379.313000000007,
      "d": 275.862133333334,
      "v": 80
    },
    {
      "midi": 74,
      "hit": false,
      "t": 11724.140666666675,
      "d": 275.862133333334,
      "v": 80
    },
    {
      "midi": 71,
      "hit": false,
      "t": 12068.968333333343,
      "d": 275.862133333334,
      "v": 80
    },
    {
      "midi": 62,
      "hit": false,
      "t": 12413.796,
      "d": 827.5864000000001,
      "v": 80
    },
    {
      "midi": 62,
      "hit": false,
      "t": 12413.796,
      "d": 827.5864000000001,
      "v": 80
    },
    {
      "midi": 62,
      "hit": false,
      "t": 12413.796,
      "d": 827.5864000000001,
      "v": 80
    },
    {
      "midi": 50,
      "hit": false,
      "t": 12413.796,
      "d": 827.5864000000001,
      "v": 80
    },
    {
      "midi": 81,
      "hit": false,
      "t": 12413.796000000011,
      "d": 275.862133333334,
      "v": 80
    },
    {
      "midi": 76,
      "hit": false,
      "t": 12758.62366666668,
      "d": 275.862133333334,
      "v": 80
    },
    {
      "midi": 74,
      "hit": false,
      "t": 13103.451333333347,
      "d": 275.862133333334,
      "v": 80
    },
    {
      "midi": 60,
      "hit": false,
      "t": 13448.279,
      "d": 1655.1728000000003,
      "v": 80
    },
    {
      "midi": 60,
      "hit": false,
      "t": 13448.279,
      "d": 1655.1728000000003,
      "v": 80
    },
    {
      "midi": 60,
      "hit": false,
      "t": 13448.279,
      "d": 1655.1728000000003,
      "v": 80
    },
    {
      "midi": 48,
      "hit": false,
      "t": 13448.279,
      "d": 1655.1728000000003,
      "v": 80
    },
    {
      "midi": 79,
      "hit": false,
      "t": 13448.279000000015,
      "d": 275.862133333334,
      "v": 80
    },
    {
      "midi": 72,
      "hit": false,
      "t": 13793.106666666683,
      "d": 275.862133333334,
      "v": 80
    },
    {
      "midi": 74,
      "hit": false,
      "t": 14137.93433333335,
      "d": 275.862133333334,
      "v": 80
    },
    {
      "midi": 83,
      "hit": false,
      "t": 14482.762000000019,
      "d": 275.862133333334,
      "v": 80
    },
    {
      "midi": 84,
      "hit": false,
      "t": 14827.589666666687,
      "d": 275.862133333334,
      "v": 80
    },
    {
      "midi": 83,
      "hit": false,
      "t": 15172.417333333355,
      "d": 275.862133333334,
      "v": 80
    },
    {
      "midi": 64,
      "hit": false,
      "t": 15517.245,
      "d": 827.5864000000001,
      "v": 80
    },
    {
      "midi": 64,
      "hit": false,
      "t": 15517.245,
      "d": 827.5864000000001,
      "v": 80
    },
    {
      "midi": 64,
      "hit": false,
      "t": 15517.245,
      "d": 827.5864000000001,
      "v": 80
    },
    {
      "midi": 52,
      "hit": false,
      "t": 15517.245,
      "d": 827.5864000000001,
      "v": 80
    },
    {
      "midi": 79,
      "hit": false,
      "t": 15517.245000000023,
      "d": 275.862133333334,
      "v": 80
    },
    {
      "midi": 74,
      "hit": false,
      "t": 15862.07266666669,
      "d": 275.862133333334,
      "v": 80
    },
    {
      "midi": 71,
      "hit": false,
      "t": 16206.900333333359,
      "d": 275.862133333334,
      "v": 80
    },
    {
      "midi": 62,
      "hit": false,
      "t": 16551.728,
      "d": 827.5864000000001,
      "v": 80
    },
    {
      "midi": 62,
      "hit": false,
      "t": 16551.728,
      "d": 827.5864000000001,
      "v": 80
    },
    {
      "midi": 62,
      "hit": false,
      "t": 16551.728,
      "d": 827.5864000000001,
      "v": 80
    },
    {
      "midi": 50,
      "hit": false,
      "t": 16551.728,
      "d": 827.5864000000001,
      "v": 80
    },
    {
      "midi": 81,
      "hit": false,
      "t": 16551.728000000025,
      "d": 275.86213333333217,
      "v": 80
    },
    {
      "midi": 76,
      "hit": false,
      "t": 16896.55566666669,
      "d": 275.86213333333217,
      "v": 80
    },
    {
      "midi": 74,
      "hit": false,
      "t": 17241.383333333353,
      "d": 275.86213333333217,
      "v": 80
    },
    {
      "midi": 55,
      "hit": false,
      "t": 17586.211,
      "d": 206.89660000000003,
      "v": 80
    },
    {
      "midi": 55,
      "hit": false,
      "t": 17586.211,
      "d": 206.89660000000003,
      "v": 80
    },
    {
      "midi": 55,
      "hit": false,
      "t": 17586.211,
      "d": 206.89660000000003,
      "v": 80
    },
    {
      "midi": 43,
      "hit": false,
      "t": 17586.211,
      "d": 206.89660000000003,
      "v": 80
    },
    {
      "midi": 79,
      "hit": false,
      "t": 17586.211000000018,
      "d": 275.86213333333217,
      "v": 80
    },
    {
      "midi": 57,
      "hit": false,
      "t": 17844.831749999998,
      "d": 827.5864000000001,
      "v": 80
    },
    {
      "midi": 57,
      "hit": false,
      "t": 17844.831749999998,
      "d": 827.5864000000001,
      "v": 80
    },
    {
      "midi": 57,
      "hit": false,
      "t": 17844.831749999998,
      "d": 827.5864000000001,
      "v": 80
    },
    {
      "midi": 45,
      "hit": false,
      "t": 17844.831749999998,
      "d": 827.5864000000001,
      "v": 80
    },
    {
      "midi": 72,
      "hit": false,
      "t": 17931.038666666682,
      "d": 275.86213333333217,
      "v": 80
    },
    {
      "midi": 74,
      "hit": false,
      "t": 18275.866333333346,
      "d": 275.86213333333217,
      "v": 80
    },
    {
      "midi": 83,
      "hit": false,
      "t": 18620.69400000001,
      "d": 275.86213333333217,
      "v": 80
    },
    {
      "midi": 67,
      "hit": false,
      "t": 18879.314749999998,
      "d": 1241.3796000000002,
      "v": 80
    },
    {
      "midi": 67,
      "hit": false,
      "t": 18879.314749999998,
      "d": 1241.3796000000002,
      "v": 80
    },
    {
      "midi": 67,
      "hit": false,
      "t": 18879.314749999998,
      "d": 1241.3796000000002,
      "v": 80
    },
    {
      "midi": 55,
      "hit": false,
      "t": 18879.314749999998,
      "d": 1241.3796000000002,
      "v": 80
    },
    {
      "midi": 84,
      "hit": false,
      "t": 18965.521666666675,
      "d": 275.86213333333217,
      "v": 80
    },
    {
      "midi": 83,
      "hit": false,
      "t": 19310.34933333334,
      "d": 275.86213333333217,
      "v": 80
    },
    {
      "midi": 79,
      "hit": false,
      "t": 19655.177000000003,
      "d": 275.86213333333217,
      "v": 80
    },
    {
      "midi": 76,
      "hit": false,
      "t": 20000.004666666668,
      "d": 275.86213333333217,
      "v": 80
    },
    {
      "midi": 71,
      "hit": false,
      "t": 20344.832333333332,
      "d": 275.86213333333217,
      "v": 80
    },
    {
      "midi": 81,
      "hit": false,
      "t": 20689.659999999996,
      "d": 275.86213333333217,
      "v": 80
    },
    {
      "midi": 64,
      "hit": false,
      "t": 20689.659999999996,
      "d": 2896.5524000000005,
      "v": 80
    },
    {
      "midi": 64,
      "hit": false,
      "t": 20689.659999999996,
      "d": 827.5864000000001,
      "v": 80
    },
    {
      "midi": 64,
      "hit": false,
      "t": 20689.659999999996,
      "d": 827.5864000000001,
      "v": 80
    },
    {
      "midi": 52,
      "hit": false,
      "t": 20689.659999999996,
      "d": 827.5864000000001,
      "v": 80
    },
    {
      "midi": 76,
      "hit": false,
      "t": 21034.48766666666,
      "d": 275.86213333333217,
      "v": 80
    },
    {
      "midi": 74,
      "hit": false,
      "t": 21379.315333333325,
      "d": 275.86213333333217,
      "v": 80
    },
    {
      "midi": 79,
      "hit": false,
      "t": 21724.14299999999,
      "d": 275.86213333333217,
      "v": 80
    },
    {
      "midi": 64,
      "hit": false,
      "t": 21724.142999999996,
      "d": 2482.7592000000004,
      "v": 80
    },
    {
      "midi": 64,
      "hit": false,
      "t": 21724.142999999996,
      "d": 2482.7592000000004,
      "v": 80
    },
    {
      "midi": 52,
      "hit": false,
      "t": 21724.142999999996,
      "d": 2482.7592000000004,
      "v": 80
    },
    {
      "midi": 72,
      "hit": false,
      "t": 22068.970666666653,
      "d": 275.86213333333217,
      "v": 80
    },
    {
      "midi": 74,
      "hit": false,
      "t": 22413.798333333318,
      "d": 275.86213333333217,
      "v": 80
    },
    {
      "midi": 83,
      "hit": false,
      "t": 22758.625999999982,
      "d": 275.86213333333217,
      "v": 80
    },
    {
      "midi": 51,
      "hit": false,
      "t": 22758.626000000004,
      "d": 21.55172916666561,
      "v": 80
    },
    {
      "midi": 52,
      "hit": false,
      "t": 22788.798420833336,
      "d": 1241.3796000000002,
      "v": 80
    },
    {
      "midi": 84,
      "hit": false,
      "t": 23103.453666666646,
      "d": 275.86213333333217,
      "v": 80
    },
    {
      "midi": 83,
      "hit": false,
      "t": 23448.28133333331,
      "d": 275.86213333333217,
      "v": 80
    },
    {
      "midi": 79,
      "hit": false,
      "t": 23793.108999999975,
      "d": 275.86213333333217,
      "v": 80
    },
    {
      "midi": 74,
      "hit": false,
      "t": 24137.93666666664,
      "d": 275.86213333333217,
      "v": 80
    },
    {
      "midi": 71,
      "hit": false,
      "t": 24482.764333333304,
      "d": 275.86213333333217,
      "v": 80
    },
    {
      "midi": 81,
      "hit": false,
      "t": 24827.591999999968,
      "d": 275.86213333333217,
      "v": 80
    },
    {
      "midi": 65,
      "hit": false,
      "t": 24827.591999999997,
      "d": 1655.1728000000003,
      "v": 80
    },
    {
      "midi": 65,
      "hit": false,
      "t": 24827.591999999997,
      "d": 1655.1728000000003,
      "v": 80
    },
    {
      "midi": 65,
      "hit": false,
      "t": 24827.591999999997,
      "d": 1655.1728000000003,
      "v": 80
    },
    {
      "midi": 53,
      "hit": false,
      "t": 24827.591999999997,
      "d": 1655.1728000000003,
      "v": 80
    },
    {
      "midi": 76,
      "hit": false,
      "t": 25172.419666666632,
      "d": 275.86213333333217,
      "v": 80
    },
    {
      "midi": 74,
      "hit": false,
      "t": 25517.247333333296,
      "d": 275.86213333333217,
      "v": 80
    },
    {
      "midi": 79,
      "hit": false,
      "t": 25862.07499999996,
      "d": 275.86213333333217,
      "v": 80
    },
    {
      "midi": 72,
      "hit": false,
      "t": 26206.902666666625,
      "d": 275.86213333333217,
      "v": 80
    },
    {
      "midi": 74,
      "hit": false,
      "t": 26551.73033333329,
      "d": 275.86213333333217,
      "v": 80
    },
    {
      "midi": 83,
      "hit": false,
      "t": 26896.557999999954,
      "d": 275.86213333333217,
      "v": 80
    },
    {
      "midi": 65,
      "hit": false,
      "t": 26896.557999999997,
      "d": 206.89660000000003,
      "v": 80
    },
    {
      "midi": 65,
      "hit": false,
      "t": 26896.557999999997,
      "d": 206.89660000000003,
      "v": 80
    },
    {
      "midi": 65,
      "hit": false,
      "t": 26896.557999999997,
      "d": 206.89660000000003,
      "v": 80
    },
    {
      "midi": 53,
      "hit": false,
      "t": 26896.557999999997,
      "d": 206.89660000000003,
      "v": 80
    },
    {
      "midi": 67,
      "hit": false,
      "t": 27155.178749999995,
      "d": 413.79320000000007,
      "v": 80
    },
    {
      "midi": 67,
      "hit": false,
      "t": 27155.178749999995,
      "d": 413.79320000000007,
      "v": 80
    },
    {
      "midi": 67,
      "hit": false,
      "t": 27155.178749999995,
      "d": 413.79320000000007,
      "v": 80
    },
    {
      "midi": 55,
      "hit": false,
      "t": 27155.178749999995,
      "d": 413.79320000000007,
      "v": 80
    },
    {
      "midi": 84,
      "hit": false,
      "t": 27241.385666666618,
      "d": 275.86213333333217,
      "v": 80
    },
    {
      "midi": 83,
      "hit": false,
      "t": 27586.213333333282,
      "d": 275.86213333333217,
      "v": 80
    },
    {
      "midi": 69,
      "hit": false,
      "t": 27672.420249999996,
      "d": 413.79320000000007,
      "v": 80
    },
    {
      "midi": 69,
      "hit": false,
      "t": 27672.420249999996,
      "d": 413.79320000000007,
      "v": 80
    },
    {
      "midi": 69,
      "hit": false,
      "t": 27672.420249999996,
      "d": 413.79320000000007,
      "v": 80
    },
    {
      "midi": 57,
      "hit": false,
      "t": 27672.420249999996,
      "d": 413.79320000000007,
      "v": 80
    },
    {
      "midi": 79,
      "hit": false,
      "t": 27931.040999999947,
      "d": 275.86213333333217,
      "v": 80
    },
    {
      "midi": 65,
      "hit": false,
      "t": 28189.661749999996,
      "d": 206.89660000000003,
      "v": 80
    },
    {
      "midi": 65,
      "hit": false,
      "t": 28189.661749999996,
      "d": 206.89660000000003,
      "v": 80
    },
    {
      "midi": 65,
      "hit": false,
      "t": 28189.661749999996,
      "d": 206.89660000000003,
      "v": 80
    },
    {
      "midi": 53,
      "hit": false,
      "t": 28189.661749999996,
      "d": 206.89660000000003,
      "v": 80
    },
    {
      "midi": 74,
      "hit": false,
      "t": 28275.86866666661,
      "d": 275.86213333333217,
      "v": 80
    },
    {
      "midi": 60,
      "hit": false,
      "t": 28448.282499999994,
      "d": 413.79320000000007,
      "v": 80
    },
    {
      "midi": 60,
      "hit": false,
      "t": 28448.282499999994,
      "d": 413.79320000000007,
      "v": 80
    },
    {
      "midi": 60,
      "hit": false,
      "t": 28448.282499999994,
      "d": 413.79320000000007,
      "v": 80
    },
    {
      "midi": 48,
      "hit": false,
      "t": 28448.282499999994,
      "d": 413.79320000000007,
      "v": 80
    },
    {
      "midi": 71,
      "hit": false,
      "t": 28620.696333333275,
      "d": 275.86213333333217,
      "v": 80
    },
    {
      "midi": 81,
      "hit": false,
      "t": 28965.52399999994,
      "d": 275.86213333333217,
      "v": 80
    },
    {
      "midi": 62,
      "hit": false,
      "t": 28965.523999999994,
      "d": 413.79320000000007,
      "v": 80
    },
    {
      "midi": 62,
      "hit": false,
      "t": 28965.523999999994,
      "d": 413.79320000000007,
      "v": 80
    },
    {
      "midi": 62,
      "hit": false,
      "t": 28965.523999999994,
      "d": 413.79320000000007,
      "v": 80
    },
    {
      "midi": 50,
      "hit": false,
      "t": 28965.523999999994,
      "d": 413.79320000000007,
      "v": 80
    },
    {
      "midi": 76,
      "hit": false,
      "t": 29310.351666666604,
      "d": 275.86213333333217,
      "v": 80
    },
    {
      "midi": 67,
      "hit": false,
      "t": 29482.765499999994,
      "d": 413.79320000000007,
      "v": 80
    },
    {
      "midi": 67,
      "hit": false,
      "t": 29482.765499999994,
      "d": 413.79320000000007,
      "v": 80
    },
    {
      "midi": 67,
      "hit": false,
      "t": 29482.765499999994,
      "d": 413.79320000000007,
      "v": 80
    },
    {
      "midi": 55,
      "hit": false,
      "t": 29482.765499999994,
      "d": 413.79320000000007,
      "v": 80
    },
    {
      "midi": 74,
      "hit": false,
      "t": 29655.179333333268,
      "d": 275.86213333333217,
      "v": 80
    },
    {
      "midi": 79,
      "hit": false,
      "t": 30000.006999999932,
      "d": 275.86213333333217,
      "v": 80
    },
    {
      "midi": 64,
      "hit": false,
      "t": 30000.006999999994,
      "d": 827.5864000000001,
      "v": 80
    },
    {
      "midi": 64,
      "hit": false,
      "t": 30000.006999999994,
      "d": 827.5864000000001,
      "v": 80
    },
    {
      "midi": 64,
      "hit": false,
      "t": 30000.006999999994,
      "d": 827.5864000000001,
      "v": 80
    },
    {
      "midi": 52,
      "hit": false,
      "t": 30000.006999999994,
      "d": 827.5864000000001,
      "v": 80
    },
    {
      "midi": 72,
      "hit": false,
      "t": 30344.834666666597,
      "d": 275.86213333333217,
      "v": 80
    },
    {
      "midi": 74,
      "hit": false,
      "t": 30689.66233333326,
      "d": 275.86213333333217,
      "v": 80
    },
    {
      "midi": 83,
      "hit": false,
      "t": 31034.489999999925,
      "d": 275.86213333333217,
      "v": 80
    },
    {
      "midi": 57,
      "hit": false,
      "t": 31034.489999999994,
      "d": 206.89660000000003,
      "v": 80
    },
    {
      "midi": 57,
      "hit": false,
      "t": 31034.489999999994,
      "d": 206.89660000000003,
      "v": 80
    },
    {
      "midi": 57,
      "hit": false,
      "t": 31034.489999999994,
      "d": 206.89660000000003,
      "v": 80
    },
    {
      "midi": 45,
      "hit": false,
      "t": 31034.489999999994,
      "d": 206.89660000000003,
      "v": 80
    },
    {
      "midi": 59,
      "hit": false,
      "t": 31293.110749999993,
      "d": 3465.5180499999988,
      "v": 80
    },
    {
      "midi": 59,
      "hit": false,
      "t": 31293.110749999993,
      "d": 3465.5180499999988,
      "v": 80
    },
    {
      "midi": 59,
      "hit": false,
      "t": 31293.110749999993,
      "d": 3465.5180499999988,
      "v": 80
    },
    {
      "midi": 47,
      "hit": false,
      "t": 31293.110749999993,
      "d": 3465.5180499999988,
      "v": 80
    },
    {
      "midi": 84,
      "hit": false,
      "t": 31379.31766666659,
      "d": 275.86213333333217,
      "v": 80
    },
    {
      "midi": 83,
      "hit": false,
      "t": 31724.145333333254,
      "d": 275.86213333333217,
      "v": 80
    },
    {
      "midi": 79,
      "hit": false,
      "t": 32068.972999999918,
      "d": 275.86213333333217,
      "v": 80
    },
    {
      "midi": 74,
      "hit": false,
      "t": 32413.800666666582,
      "d": 275.86213333333217,
      "v": 80
    },
    {
      "midi": 71,
      "hit": false,
      "t": 32758.628333333247,
      "d": 275.8621333333358,
      "v": 80
    },
    {
      "midi": 81,
      "hit": false,
      "t": 33103.45599999992,
      "d": 275.8621333333358,
      "v": 80
    },
    {
      "midi": 50,
      "hit": false,
      "t": 33103.456000000006,
      "d": 827.5864000000001,
      "v": 80
    },
    {
      "midi": 76,
      "hit": false,
      "t": 33448.28366666659,
      "d": 275.8621333333358,
      "v": 80
    },
    {
      "midi": 74,
      "hit": false,
      "t": 33793.11133333326,
      "d": 275.8621333333358,
      "v": 80
    },
    {
      "midi": 79,
      "hit": false,
      "t": 34137.93899999993,
      "d": 275.8621333333358,
      "v": 80
    },
    {
      "midi": 55,
      "hit": false,
      "t": 34137.939000000006,
      "d": 827.5864000000001,
      "v": 80
    },
    {
      "midi": 72,
      "hit": false,
      "t": 34482.766666666605,
      "d": 275.8621333333358,
      "v": 80
    },
    {
      "midi": 74,
      "hit": false,
      "t": 34827.594333333276,
      "d": 275.8621333333358,
      "v": 80
    },
    {
      "midi": 83,
      "hit": false,
      "t": 35172.42199999995,
      "d": 275.8621333333358,
      "v": 80
    },
    {
      "midi": 84,
      "hit": false,
      "t": 35517.24966666662,
      "d": 275.8621333333358,
      "v": 80
    },
    {
      "midi": 83,
      "hit": false,
      "t": 35862.07733333329,
      "d": 275.8621333333358,
      "v": 80
    },
    {
      "midi": 79,
      "hit": false,
      "t": 36206.90499999996,
      "d": 275.8621333333358,
      "v": 80
    },
    {
      "midi": 74,
      "hit": false,
      "t": 36551.732666666634,
      "d": 275.8621333333358,
      "v": 80
    },
    {
      "midi": 71,
      "hit": false,
      "t": 36896.560333333306,
      "d": 275.8621333333358,
      "v": 80
    },
    {
      "midi": 81,
      "hit": false,
      "t": 37241.38799999998,
      "d": 275.8621333333358,
      "v": 80
    },
    {
      "midi": 65,
      "hit": false,
      "t": 37241.38799999999,
      "d": 1655.1728000000003,
      "v": 80
    },
    {
      "midi": 65,
      "hit": false,
      "t": 37241.38799999999,
      "d": 1655.1728000000003,
      "v": 80
    },
    {
      "midi": 65,
      "hit": false,
      "t": 37241.38799999999,
      "d": 1655.1728000000003,
      "v": 80
    },
    {
      "midi": 53,
      "hit": false,
      "t": 37241.38799999999,
      "d": 1655.1728000000003,
      "v": 80
    },
    {
      "midi": 76,
      "hit": false,
      "t": 37586.21566666665,
      "d": 275.8621333333358,
      "v": 80
    },
    {
      "midi": 74,
      "hit": false,
      "t": 37931.04333333332,
      "d": 275.8621333333358,
      "v": 80
    },
    {
      "midi": 79,
      "hit": false,
      "t": 38275.87099999999,
      "d": 275.8621333333358,
      "v": 80
    },
    {
      "midi": 72,
      "hit": false,
      "t": 38620.69866666666,
      "d": 275.8621333333358,
      "v": 80
    },
    {
      "midi": 74,
      "hit": false,
      "t": 38965.526333333335,
      "d": 275.8621333333358,
      "v": 80
    },
    {
      "midi": 65,
      "hit": false,
      "t": 39310.35399999999,
      "d": 206.89660000000003,
      "v": 80
    },
    {
      "midi": 65,
      "hit": false,
      "t": 39310.35399999999,
      "d": 206.89660000000003,
      "v": 80
    },
    {
      "midi": 65,
      "hit": false,
      "t": 39310.35399999999,
      "d": 206.89660000000003,
      "v": 80
    },
    {
      "midi": 53,
      "hit": false,
      "t": 39310.35399999999,
      "d": 206.89660000000003,
      "v": 80
    },
    {
      "midi": 83,
      "hit": false,
      "t": 39310.35400000001,
      "d": 275.8621333333358,
      "v": 80
    },
    {
      "midi": 67,
      "hit": false,
      "t": 39568.974749999994,
      "d": 413.79320000000007,
      "v": 80
    },
    {
      "midi": 67,
      "hit": false,
      "t": 39568.974749999994,
      "d": 413.79320000000007,
      "v": 80
    },
    {
      "midi": 67,
      "hit": false,
      "t": 39568.974749999994,
      "d": 413.79320000000007,
      "v": 80
    },
    {
      "midi": 55,
      "hit": false,
      "t": 39568.974749999994,
      "d": 413.79320000000007,
      "v": 80
    },
    {
      "midi": 84,
      "hit": false,
      "t": 39655.18166666668,
      "d": 275.8621333333358,
      "v": 80
    },
    {
      "midi": 83,
      "hit": false,
      "t": 40000.00933333335,
      "d": 275.8621333333358,
      "v": 80
    },
    {
      "midi": 69,
      "hit": false,
      "t": 40086.21624999999,
      "d": 413.79320000000007,
      "v": 80
    },
    {
      "midi": 69,
      "hit": false,
      "t": 40086.21624999999,
      "d": 413.79320000000007,
      "v": 80
    },
    {
      "midi": 69,
      "hit": false,
      "t": 40086.21624999999,
      "d": 413.79320000000007,
      "v": 80
    },
    {
      "midi": 57,
      "hit": false,
      "t": 40086.21624999999,
      "d": 413.79320000000007,
      "v": 80
    },
    {
      "midi": 79,
      "hit": false,
      "t": 40344.83700000002,
      "d": 275.8621333333358,
      "v": 80
    },
    {
      "midi": 65,
      "hit": false,
      "t": 40603.45774999999,
      "d": 206.89660000000003,
      "v": 80
    },
    {
      "midi": 65,
      "hit": false,
      "t": 40603.45774999999,
      "d": 206.89660000000003,
      "v": 80
    },
    {
      "midi": 65,
      "hit": false,
      "t": 40603.45774999999,
      "d": 206.89660000000003,
      "v": 80
    },
    {
      "midi": 53,
      "hit": false,
      "t": 40603.45774999999,
      "d": 206.89660000000003,
      "v": 80
    },
    {
      "midi": 74,
      "hit": false,
      "t": 40689.66466666669,
      "d": 275.8621333333358,
      "v": 80
    },
    {
      "midi": 60,
      "hit": false,
      "t": 40862.07849999999,
      "d": 413.79320000000007,
      "v": 80
    },
    {
      "midi": 60,
      "hit": false,
      "t": 40862.07849999999,
      "d": 413.79320000000007,
      "v": 80
    },
    {
      "midi": 60,
      "hit": false,
      "t": 40862.07849999999,
      "d": 413.79320000000007,
      "v": 80
    },
    {
      "midi": 48,
      "hit": false,
      "t": 40862.07849999999,
      "d": 413.79320000000007,
      "v": 80
    },
    {
      "midi": 71,
      "hit": false,
      "t": 41034.492333333365,
      "d": 275.8621333333358,
      "v": 80
    },
    {
      "midi": 62,
      "hit": false,
      "t": 41379.319999999985,
      "d": 413.79320000000007,
      "v": 80
    },
    {
      "midi": 62,
      "hit": false,
      "t": 41379.319999999985,
      "d": 413.79320000000007,
      "v": 80
    },
    {
      "midi": 62,
      "hit": false,
      "t": 41379.319999999985,
      "d": 413.79320000000007,
      "v": 80
    },
    {
      "midi": 50,
      "hit": false,
      "t": 41379.319999999985,
      "d": 413.79320000000007,
      "v": 80
    },
    {
      "midi": 81,
      "hit": false,
      "t": 41379.320000000036,
      "d": 275.8621333333358,
      "v": 80
    },
    {
      "midi": 76,
      "hit": false,
      "t": 41724.14766666671,
      "d": 275.8621333333358,
      "v": 80
    },
    {
      "midi": 67,
      "hit": false,
      "t": 41896.56149999998,
      "d": 413.79320000000007,
      "v": 80
    },
    {
      "midi": 67,
      "hit": false,
      "t": 41896.56149999998,
      "d": 413.79320000000007,
      "v": 80
    },
    {
      "midi": 67,
      "hit": false,
      "t": 41896.56149999998,
      "d": 413.79320000000007,
      "v": 80
    },
    {
      "midi": 55,
      "hit": false,
      "t": 41896.56149999998,
      "d": 413.79320000000007,
      "v": 80
    },
    {
      "midi": 74,
      "hit": false,
      "t": 42068.97533333338,
      "d": 275.8621333333358,
      "v": 80
    },
    {
      "midi": 64,
      "hit": false,
      "t": 42413.80299999998,
      "d": 827.5864000000001,
      "v": 80
    },
    {
      "midi": 64,
      "hit": false,
      "t": 42413.80299999998,
      "d": 827.5864000000001,
      "v": 80
    },
    {
      "midi": 64,
      "hit": false,
      "t": 42413.80299999998,
      "d": 827.5864000000001,
      "v": 80
    },
    {
      "midi": 52,
      "hit": false,
      "t": 42413.80299999998,
      "d": 827.5864000000001,
      "v": 80
    },
    {
      "midi": 79,
      "hit": false,
      "t": 42413.80300000005,
      "d": 275.8621333333358,
      "v": 80
    },
    {
      "midi": 72,
      "hit": false,
      "t": 42758.63066666672,
      "d": 275.8621333333358,
      "v": 80
    },
    {
      "midi": 74,
      "hit": false,
      "t": 43103.458333333394,
      "d": 275.8621333333358,
      "v": 80
    },
    {
      "midi": 71,
      "hit": false,
      "t": 43448.28599999998,
      "d": 3724.1388000000006,
      "v": 80
    },
    {
      "midi": 71,
      "hit": false,
      "t": 43448.28599999998,
      "d": 3724.1388000000006,
      "v": 80
    },
    {
      "midi": 71,
      "hit": false,
      "t": 43448.28599999998,
      "d": 3724.1388000000006,
      "v": 80
    },
    {
      "midi": 59,
      "hit": false,
      "t": 43448.28599999998,
      "d": 3724.1388000000006,
      "v": 80
    },
    {
      "midi": 83,
      "hit": false,
      "t": 43448.286000000066,
      "d": 275.8621333333358,
      "v": 80
    },
    {
      "midi": 84,
      "hit": false,
      "t": 43793.11366666674,
      "d": 275.8621333333358,
      "v": 80
    },
    {
      "midi": 83,
      "hit": false,
      "t": 44137.94133333341,
      "d": 275.8621333333358,
      "v": 80
    },
    {
      "midi": 79,
      "hit": false,
      "t": 44482.76900000008,
      "d": 275.8621333333358,
      "v": 80
    },
    {
      "midi": 74,
      "hit": false,
      "t": 44827.59666666675,
      "d": 275.8621333333358,
      "v": 80
    },
    {
      "midi": 71,
      "hit": false,
      "t": 45172.42433333342,
      "d": 275.8621333333358,
      "v": 80
    },
    {
      "midi": 86,
      "hit": false,
      "t": 45517.252000000095,
      "d": 275.8621333333358,
      "v": 80
    },
    {
      "midi": 84,
      "hit": false,
      "t": 45862.07966666677,
      "d": 275.8621333333358,
      "v": 80
    },
    {
      "midi": 83,
      "hit": false,
      "t": 46206.90733333344,
      "d": 275.8621333333358,
      "v": 80
    },
    {
      "midi": 79,
      "hit": false,
      "t": 46551.73500000011,
      "d": 275.8621333333358,
      "v": 80
    },
    {
      "midi": 72,
      "hit": false,
      "t": 46896.56266666678,
      "d": 275.8621333333358,
      "v": 80
    },
    {
      "midi": 74,
      "hit": false,
      "t": 47241.39033333345,
      "d": 275.8621333333358,
      "v": 80
    },
    {
      "midi": 83,
      "hit": false,
      "t": 47586.218000000124,
      "d": 275.8621333333358,
      "v": 80
    },
    {
      "midi": 84,
      "hit": false,
      "t": 47931.045666666796,
      "d": 275.8621333333358,
      "v": 80
    },
    {
      "midi": 83,
      "hit": false,
      "t": 48275.87333333347,
      "d": 275.8621333333358,
      "v": 80
    },
    {
      "midi": 79,
      "hit": false,
      "t": 48620.70100000014,
      "d": 275.8621333333358,
      "v": 80
    },
    {
      "midi": 74,
      "hit": false,
      "t": 48965.52866666681,
      "d": 275.8621333333358,
      "v": 80
    },
    {
      "midi": 71,
      "hit": false,
      "t": 49310.35633333348,
      "d": 275.8621333333358,
      "v": 80
    },
    {
      "midi": 62,
      "hit": false,
      "t": 49655.18399999998,
      "d": 827.5864000000001,
      "v": 80
    },
    {
      "midi": 62,
      "hit": false,
      "t": 49655.18399999998,
      "d": 827.5864000000001,
      "v": 80
    },
    {
      "midi": 62,
      "hit": false,
      "t": 49655.18399999998,
      "d": 827.5864000000001,
      "v": 80
    },
    {
      "midi": 50,
      "hit": false,
      "t": 49655.18399999998,
      "d": 827.5864000000001,
      "v": 80
    },
    {
      "midi": 81,
      "hit": false,
      "t": 49655.184000000154,
      "d": 275.8621333333358,
      "v": 80
    },
    {
      "midi": 76,
      "hit": false,
      "t": 50000.011666666825,
      "d": 275.8621333333358,
      "v": 80
    },
    {
      "midi": 74,
      "hit": false,
      "t": 50344.8393333335,
      "d": 275.8621333333358,
      "v": 80
    },
    {
      "midi": 60,
      "hit": false,
      "t": 50689.66699999998,
      "d": 1655.1728000000003,
      "v": 80
    },
    {
      "midi": 60,
      "hit": false,
      "t": 50689.66699999998,
      "d": 1655.1728000000003,
      "v": 80
    },
    {
      "midi": 60,
      "hit": false,
      "t": 50689.66699999998,
      "d": 1655.1728000000003,
      "v": 80
    },
    {
      "midi": 48,
      "hit": false,
      "t": 50689.66699999998,
      "d": 1655.1728000000003,
      "v": 80
    },
    {
      "midi": 79,
      "hit": false,
      "t": 50689.66700000017,
      "d": 275.8621333333358,
      "v": 80
    },
    {
      "midi": 72,
      "hit": false,
      "t": 51034.49466666684,
      "d": 275.8621333333358,
      "v": 80
    },
    {
      "midi": 74,
      "hit": false,
      "t": 51379.32233333351,
      "d": 275.8621333333358,
      "v": 80
    },
    {
      "midi": 48,
      "hit": false,
      "t": 51724.15000000001,
      "d": 827.5864000000001,
      "v": 80
    },
    {
      "midi": 83,
      "hit": false,
      "t": 51724.15000000018,
      "d": 275.8621333333358,
      "v": 80
    },
    {
      "midi": 84,
      "hit": false,
      "t": 52068.977666666855,
      "d": 275.8621333333358,
      "v": 80
    },
    {
      "midi": 83,
      "hit": false,
      "t": 52413.80533333353,
      "d": 275.8621333333358,
      "v": 80
    },
    {
      "midi": 64,
      "hit": false,
      "t": 52758.63299999998,
      "d": 827.5864000000001,
      "v": 80
    },
    {
      "midi": 64,
      "hit": false,
      "t": 52758.63299999998,
      "d": 827.5864000000001,
      "v": 80
    },
    {
      "midi": 64,
      "hit": false,
      "t": 52758.63299999998,
      "d": 827.5864000000001,
      "v": 80
    },
    {
      "midi": 52,
      "hit": false,
      "t": 52758.63299999998,
      "d": 827.5864000000001,
      "v": 80
    },
    {
      "midi": 79,
      "hit": false,
      "t": 52758.6330000002,
      "d": 275.8621333333358,
      "v": 80
    },
    {
      "midi": 74,
      "hit": false,
      "t": 53103.46066666687,
      "d": 275.8621333333358,
      "v": 80
    },
    {
      "midi": 71,
      "hit": false,
      "t": 53448.28833333354,
      "d": 275.8621333333358,
      "v": 80
    },
    {
      "midi": 62,
      "hit": false,
      "t": 53793.11599999998,
      "d": 827.5864000000001,
      "v": 80
    },
    {
      "midi": 62,
      "hit": false,
      "t": 53793.11599999998,
      "d": 827.5864000000001,
      "v": 80
    },
    {
      "midi": 62,
      "hit": false,
      "t": 53793.11599999998,
      "d": 827.5864000000001,
      "v": 80
    },
    {
      "midi": 50,
      "hit": false,
      "t": 53793.11599999998,
      "d": 827.5864000000001,
      "v": 80
    },
    {
      "midi": 81,
      "hit": false,
      "t": 53793.11600000021,
      "d": 275.8621333333358,
      "v": 80
    },
    {
      "midi": 76,
      "hit": false,
      "t": 54137.943666666884,
      "d": 275.8621333333358,
      "v": 80
    },
    {
      "midi": 74,
      "hit": false,
      "t": 54482.771333333556,
      "d": 275.8621333333358,
      "v": 80
    },
    {
      "midi": 55,
      "hit": false,
      "t": 54827.59899999998,
      "d": 206.89660000000003,
      "v": 80
    },
    {
      "midi": 55,
      "hit": false,
      "t": 54827.59899999998,
      "d": 206.89660000000003,
      "v": 80
    },
    {
      "midi": 55,
      "hit": false,
      "t": 54827.59899999998,
      "d": 206.89660000000003,
      "v": 80
    },
    {
      "midi": 43,
      "hit": false,
      "t": 54827.59899999998,
      "d": 206.89660000000003,
      "v": 80
    },
    {
      "midi": 79,
      "hit": false,
      "t": 54827.59900000023,
      "d": 275.8621333333358,
      "v": 80
    },
    {
      "midi": 57,
      "hit": false,
      "t": 55086.21974999998,
      "d": 827.5864000000001,
      "v": 80
    },
    {
      "midi": 57,
      "hit": false,
      "t": 55086.21974999998,
      "d": 827.5864000000001,
      "v": 80
    },
    {
      "midi": 57,
      "hit": false,
      "t": 55086.21974999998,
      "d": 827.5864000000001,
      "v": 80
    },
    {
      "midi": 45,
      "hit": false,
      "t": 55086.21974999998,
      "d": 827.5864000000001,
      "v": 80
    },
    {
      "midi": 72,
      "hit": false,
      "t": 55172.4266666669,
      "d": 275.8621333333358,
      "v": 80
    },
    {
      "midi": 74,
      "hit": false,
      "t": 55517.25433333357,
      "d": 275.8621333333358,
      "v": 80
    },
    {
      "midi": 83,
      "hit": false,
      "t": 55862.08200000024,
      "d": 275.8621333333358,
      "v": 80
    },
    {
      "midi": 67,
      "hit": false,
      "t": 56120.70274999998,
      "d": 1241.3796000000002,
      "v": 80
    },
    {
      "midi": 67,
      "hit": false,
      "t": 56120.70274999998,
      "d": 1241.3796000000002,
      "v": 80
    },
    {
      "midi": 67,
      "hit": false,
      "t": 56120.70274999998,
      "d": 1241.3796000000002,
      "v": 80
    },
    {
      "midi": 55,
      "hit": false,
      "t": 56120.70274999998,
      "d": 1241.3796000000002,
      "v": 80
    },
    {
      "midi": 84,
      "hit": false,
      "t": 56206.909666666914,
      "d": 275.8621333333358,
      "v": 80
    },
    {
      "midi": 83,
      "hit": false,
      "t": 56551.737333333585,
      "d": 275.8621333333358,
      "v": 80
    },
    {
      "midi": 79,
      "hit": false,
      "t": 56896.56500000026,
      "d": 275.8621333333358,
      "v": 80
    },
    {
      "midi": 74,
      "hit": false,
      "t": 57241.39266666693,
      "d": 275.8621333333358,
      "v": 80
    },
    {
      "midi": 71,
      "hit": false,
      "t": 57586.2203333336,
      "d": 275.8621333333358,
      "v": 80
    },
    {
      "midi": 64,
      "hit": false,
      "t": 57931.04799999998,
      "d": 2482.7592000000004,
      "v": 80
    },
    {
      "midi": 64,
      "hit": false,
      "t": 57931.04799999998,
      "d": 2482.7592000000004,
      "v": 80
    },
    {
      "midi": 64,
      "hit": false,
      "t": 57931.04799999998,
      "d": 827.5864000000001,
      "v": 80
    },
    {
      "midi": 52,
      "hit": false,
      "t": 57931.04799999998,
      "d": 827.5864000000001,
      "v": 80
    },
    {
      "midi": 81,
      "hit": false,
      "t": 57931.04800000027,
      "d": 275.8621333333358,
      "v": 80
    },
    {
      "midi": 76,
      "hit": false,
      "t": 58275.87566666694,
      "d": 275.8621333333358,
      "v": 80
    },
    {
      "midi": 74,
      "hit": false,
      "t": 58620.703333333615,
      "d": 275.8621333333358,
      "v": 80
    },
    {
      "midi": 64,
      "hit": false,
      "t": 58965.53099999998,
      "d": 2482.7592000000004,
      "v": 80
    },
    {
      "midi": 52,
      "hit": false,
      "t": 58965.53099999998,
      "d": 2482.7592000000004,
      "v": 80
    },
    {
      "midi": 79,
      "hit": false,
      "t": 58965.53100000029,
      "d": 275.8621333333358,
      "v": 80
    },
    {
      "midi": 72,
      "hit": false,
      "t": 59310.35866666696,
      "d": 275.8621333333358,
      "v": 80
    },
    {
      "midi": 74,
      "hit": false,
      "t": 59655.18633333363,
      "d": 275.8621333333358,
      "v": 80
    },
    {
      "midi": 51,
      "hit": false,
      "t": 60000.01400000001,
      "d": 21.551729166669247,
      "v": 80
    },
    {
      "midi": 83,
      "hit": false,
      "t": 60000.0140000003,
      "d": 275.8621333333358,
      "v": 80
    },
    {
      "midi": 52,
      "hit": false,
      "t": 60030.18642083334,
      "d": 1241.3796000000002,
      "v": 80
    },
    {
      "midi": 84,
      "hit": false,
      "t": 60344.84166666697,
      "d": 275.8621333333358,
      "v": 80
    },
    {
      "midi": 83,
      "hit": false,
      "t": 60689.669333333644,
      "d": 275.8621333333358,
      "v": 80
    },
    {
      "midi": 79,
      "hit": false,
      "t": 61034.497000000316,
      "d": 275.8621333333358,
      "v": 80
    },
    {
      "midi": 74,
      "hit": false,
      "t": 61379.32466666699,
      "d": 275.8621333333358,
      "v": 80
    },
    {
      "midi": 71,
      "hit": false,
      "t": 61724.15233333366,
      "d": 275.8621333333358,
      "v": 80
    },
    {
      "midi": 62,
      "hit": false,
      "t": 62068.97999999998,
      "d": 827.5864000000001,
      "v": 80
    },
    {
      "midi": 62,
      "hit": false,
      "t": 62068.97999999998,
      "d": 827.5864000000001,
      "v": 80
    },
    {
      "midi": 62,
      "hit": false,
      "t": 62068.97999999998,
      "d": 827.5864000000001,
      "v": 80
    },
    {
      "midi": 50,
      "hit": false,
      "t": 62068.97999999998,
      "d": 827.5864000000001,
      "v": 80
    },
    {
      "midi": 81,
      "hit": false,
      "t": 62068.98000000033,
      "d": 275.8621333333358,
      "v": 80
    },
    {
      "midi": 76,
      "hit": false,
      "t": 62413.807666667,
      "d": 275.8621333333358,
      "v": 80
    },
    {
      "midi": 74,
      "hit": false,
      "t": 62758.635333333674,
      "d": 275.8621333333358,
      "v": 80
    },
    {
      "midi": 60,
      "hit": false,
      "t": 63103.46299999998,
      "d": 1655.1728000000003,
      "v": 80
    },
    {
      "midi": 60,
      "hit": false,
      "t": 63103.46299999998,
      "d": 1655.1728000000003,
      "v": 80
    },
    {
      "midi": 60,
      "hit": false,
      "t": 63103.46299999998,
      "d": 1655.1728000000003,
      "v": 80
    },
    {
      "midi": 48,
      "hit": false,
      "t": 63103.46299999998,
      "d": 1655.1728000000003,
      "v": 80
    },
    {
      "midi": 79,
      "hit": false,
      "t": 63103.463000000345,
      "d": 275.8621333333358,
      "v": 80
    },
    {
      "midi": 72,
      "hit": false,
      "t": 63448.29066666702,
      "d": 275.8621333333358,
      "v": 80
    },
    {
      "midi": 74,
      "hit": false,
      "t": 63793.11833333369,
      "d": 275.8621333333358,
      "v": 80
    },
    {
      "midi": 83,
      "hit": false,
      "t": 64137.94600000036,
      "d": 275.8621333333358,
      "v": 80
    },
    {
      "midi": 84,
      "hit": false,
      "t": 64482.77366666703,
      "d": 275.8621333333358,
      "v": 80
    },
    {
      "midi": 83,
      "hit": false,
      "t": 64827.6013333337,
      "d": 275.8621333333358,
      "v": 80
    },
    {
      "midi": 64,
      "hit": false,
      "t": 65172.42899999998,
      "d": 827.5863999999929,
      "v": 80
    },
    {
      "midi": 64,
      "hit": false,
      "t": 65172.42899999998,
      "d": 827.5863999999929,
      "v": 80
    },
    {
      "midi": 64,
      "hit": false,
      "t": 65172.42899999998,
      "d": 827.5863999999929,
      "v": 80
    },
    {
      "midi": 52,
      "hit": false,
      "t": 65172.42899999998,
      "d": 827.5863999999929,
      "v": 80
    },
    {
      "midi": 79,
      "hit": false,
      "t": 65172.429000000375,
      "d": 275.8621333333358,
      "v": 80
    },
    {
      "midi": 74,
      "hit": false,
      "t": 65517.25666666705,
      "d": 275.86213333332853,
      "v": 80
    },
    {
      "midi": 71,
      "hit": false,
      "t": 65862.08433333371,
      "d": 275.86213333332853,
      "v": 80
    },
    {
      "midi": 62,
      "hit": false,
      "t": 66206.91199999997,
      "d": 827.5864000000001,
      "v": 80
    },
    {
      "midi": 62,
      "hit": false,
      "t": 66206.91199999997,
      "d": 827.5864000000001,
      "v": 80
    },
    {
      "midi": 62,
      "hit": false,
      "t": 66206.91199999997,
      "d": 827.5864000000001,
      "v": 80
    },
    {
      "midi": 50,
      "hit": false,
      "t": 66206.91199999997,
      "d": 827.5864000000001,
      "v": 80
    },
    {
      "midi": 81,
      "hit": false,
      "t": 66206.91200000037,
      "d": 275.86213333332853,
      "v": 80
    },
    {
      "midi": 76,
      "hit": false,
      "t": 66551.73966666704,
      "d": 275.86213333332853,
      "v": 80
    },
    {
      "midi": 74,
      "hit": false,
      "t": 66896.5673333337,
      "d": 275.86213333332853,
      "v": 80
    },
    {
      "midi": 55,
      "hit": false,
      "t": 67241.39499999996,
      "d": 206.89659999999276,
      "v": 80
    },
    {
      "midi": 55,
      "hit": false,
      "t": 67241.39499999996,
      "d": 206.89659999999276,
      "v": 80
    },
    {
      "midi": 55,
      "hit": false,
      "t": 67241.39499999996,
      "d": 206.89659999999276,
      "v": 80
    },
    {
      "midi": 43,
      "hit": false,
      "t": 67241.39499999996,
      "d": 206.89659999999276,
      "v": 80
    },
    {
      "midi": 79,
      "hit": false,
      "t": 67241.39500000037,
      "d": 275.86213333332853,
      "v": 80
    },
    {
      "midi": 57,
      "hit": false,
      "t": 67500.01574999995,
      "d": 827.5864000000001,
      "v": 80
    },
    {
      "midi": 57,
      "hit": false,
      "t": 67500.01574999995,
      "d": 827.5864000000001,
      "v": 80
    },
    {
      "midi": 57,
      "hit": false,
      "t": 67500.01574999995,
      "d": 827.5864000000001,
      "v": 80
    },
    {
      "midi": 45,
      "hit": false,
      "t": 67500.01574999995,
      "d": 827.5864000000001,
      "v": 80
    },
    {
      "midi": 72,
      "hit": false,
      "t": 67586.22266666703,
      "d": 275.86213333332853,
      "v": 80
    },
    {
      "midi": 74,
      "hit": false,
      "t": 67931.0503333337,
      "d": 275.86213333332853,
      "v": 80
    },
    {
      "midi": 83,
      "hit": false,
      "t": 68275.87800000036,
      "d": 275.86213333332853,
      "v": 80
    },
    {
      "midi": 67,
      "hit": false,
      "t": 68534.49874999994,
      "d": 1241.3796000000002,
      "v": 80
    },
    {
      "midi": 67,
      "hit": false,
      "t": 68534.49874999994,
      "d": 1241.3796000000002,
      "v": 80
    },
    {
      "midi": 67,
      "hit": false,
      "t": 68534.49874999994,
      "d": 1241.3796000000002,
      "v": 80
    },
    {
      "midi": 55,
      "hit": false,
      "t": 68534.49874999994,
      "d": 1241.3796000000002,
      "v": 80
    },
    {
      "midi": 84,
      "hit": false,
      "t": 68620.70566666703,
      "d": 275.86213333332853,
      "v": 80
    },
    {
      "midi": 83,
      "hit": false,
      "t": 68965.53333333369,
      "d": 275.86213333332853,
      "v": 80
    },
    {
      "midi": 79,
      "hit": false,
      "t": 69310.36100000035,
      "d": 275.86213333332853,
      "v": 80
    },
    {
      "midi": 76,
      "hit": false,
      "t": 69655.18866666702,
      "d": 275.86213333332853,
      "v": 80
    },
    {
      "midi": 71,
      "hit": false,
      "t": 70000.01633333368,
      "d": 275.86213333332853,
      "v": 80
    },
    {
      "midi": 64,
      "hit": false,
      "t": 70344.84399999994,
      "d": 2896.5524000000005,
      "v": 80
    },
    {
      "midi": 64,
      "hit": false,
      "t": 70344.84399999994,
      "d": 2896.5524000000005,
      "v": 80
    },
    {
      "midi": 64,
      "hit": false,
      "t": 70344.84399999994,
      "d": 827.5864000000001,
      "v": 80
    },
    {
      "midi": 52,
      "hit": false,
      "t": 70344.84399999994,
      "d": 827.5864000000001,
      "v": 80
    },
    {
      "midi": 81,
      "hit": false,
      "t": 70344.84400000035,
      "d": 275.86213333332853,
      "v": 80
    },
    {
      "midi": 76,
      "hit": false,
      "t": 70689.67166666701,
      "d": 275.86213333332853,
      "v": 80
    },
    {
      "midi": 74,
      "hit": false,
      "t": 71034.49933333368,
      "d": 275.86213333332853,
      "v": 80
    },
    {
      "midi": 64,
      "hit": false,
      "t": 71379.32699999993,
      "d": 2482.7592000000004,
      "v": 80
    },
    {
      "midi": 52,
      "hit": false,
      "t": 71379.32699999993,
      "d": 2482.7592000000004,
      "v": 80
    },
    {
      "midi": 79,
      "hit": false,
      "t": 71379.32700000034,
      "d": 275.86213333332853,
      "v": 80
    },
    {
      "midi": 72,
      "hit": false,
      "t": 71724.154666667,
      "d": 275.86213333332853,
      "v": 80
    },
    {
      "midi": 74,
      "hit": false,
      "t": 72068.98233333367,
      "d": 275.86213333332853,
      "v": 80
    },
    {
      "midi": 51,
      "hit": false,
      "t": 72413.81000000001,
      "d": 21.55172916666197,
      "v": 80
    },
    {
      "midi": 83,
      "hit": false,
      "t": 72413.81000000033,
      "d": 275.86213333332853,
      "v": 80
    },
    {
      "midi": 52,
      "hit": false,
      "t": 72443.98242083334,
      "d": 1241.3796000000002,
      "v": 80
    },
    {
      "midi": 84,
      "hit": false,
      "t": 72758.637666667,
      "d": 275.86213333332853,
      "v": 80
    },
    {
      "midi": 83,
      "hit": false,
      "t": 73103.46533333366,
      "d": 275.86213333332853,
      "v": 80
    },
    {
      "midi": 79,
      "hit": false,
      "t": 73448.29300000033,
      "d": 275.86213333332853,
      "v": 80
    },
    {
      "midi": 74,
      "hit": false,
      "t": 73793.12066666699,
      "d": 275.86213333332853,
      "v": 80
    },
    {
      "midi": 71,
      "hit": false,
      "t": 74137.94833333365,
      "d": 275.86213333332853,
      "v": 80
    },
    {
      "midi": 65,
      "hit": false,
      "t": 74482.77599999993,
      "d": 1655.1728000000003,
      "v": 80
    },
    {
      "midi": 53,
      "hit": false,
      "t": 74482.77599999993,
      "d": 1655.1728000000003,
      "v": 80
    },
    {
      "midi": 65,
      "hit": false,
      "t": 74482.77599999994,
      "d": 1655.1728000000003,
      "v": 80
    },
    {
      "midi": 65,
      "hit": false,
      "t": 74482.77599999994,
      "d": 1655.1728000000003,
      "v": 80
    },
    {
      "midi": 81,
      "hit": false,
      "t": 74482.77600000032,
      "d": 275.86213333332853,
      "v": 80
    },
    {
      "midi": 76,
      "hit": false,
      "t": 74827.60366666698,
      "d": 275.86213333332853,
      "v": 80
    },
    {
      "midi": 74,
      "hit": false,
      "t": 75172.43133333365,
      "d": 275.86213333332853,
      "v": 80
    },
    {
      "midi": 79,
      "hit": false,
      "t": 75517.25900000031,
      "d": 275.86213333332853,
      "v": 80
    },
    {
      "midi": 72,
      "hit": false,
      "t": 75862.08666666698,
      "d": 275.86213333332853,
      "v": 80
    },
    {
      "midi": 74,
      "hit": false,
      "t": 76206.91433333364,
      "d": 275.86213333332853,
      "v": 80
    },
    {
      "midi": 65,
      "hit": false,
      "t": 76551.74199999993,
      "d": 206.89659999999276,
      "v": 80
    },
    {
      "midi": 53,
      "hit": false,
      "t": 76551.74199999993,
      "d": 206.89659999999276,
      "v": 80
    },
    {
      "midi": 65,
      "hit": false,
      "t": 76551.74199999994,
      "d": 206.89659999999276,
      "v": 80
    },
    {
      "midi": 65,
      "hit": false,
      "t": 76551.74199999994,
      "d": 206.89659999999276,
      "v": 80
    },
    {
      "midi": 83,
      "hit": false,
      "t": 76551.7420000003,
      "d": 275.86213333332853,
      "v": 80
    },
    {
      "midi": 67,
      "hit": false,
      "t": 76810.36274999991,
      "d": 413.79320000000007,
      "v": 80
    },
    {
      "midi": 55,
      "hit": false,
      "t": 76810.36274999991,
      "d": 413.79320000000007,
      "v": 80
    },
    {
      "midi": 67,
      "hit": false,
      "t": 76810.36274999993,
      "d": 413.79320000000007,
      "v": 80
    },
    {
      "midi": 67,
      "hit": false,
      "t": 76810.36274999993,
      "d": 413.79320000000007,
      "v": 80
    },
    {
      "midi": 84,
      "hit": false,
      "t": 76896.56966666697,
      "d": 275.86213333332853,
      "v": 80
    },
    {
      "midi": 83,
      "hit": false,
      "t": 77241.39733333363,
      "d": 275.86213333332853,
      "v": 80
    },
    {
      "midi": 69,
      "hit": false,
      "t": 77327.60424999992,
      "d": 413.79320000000007,
      "v": 80
    },
    {
      "midi": 57,
      "hit": false,
      "t": 77327.60424999992,
      "d": 413.79320000000007,
      "v": 80
    },
    {
      "midi": 69,
      "hit": false,
      "t": 77327.60424999993,
      "d": 413.79320000000007,
      "v": 80
    },
    {
      "midi": 69,
      "hit": false,
      "t": 77327.60424999993,
      "d": 413.79320000000007,
      "v": 80
    },
    {
      "midi": 79,
      "hit": false,
      "t": 77586.2250000003,
      "d": 275.86213333332853,
      "v": 80
    },
    {
      "midi": 65,
      "hit": false,
      "t": 77844.84574999992,
      "d": 206.89659999999276,
      "v": 80
    },
    {
      "midi": 53,
      "hit": false,
      "t": 77844.84574999992,
      "d": 206.89659999999276,
      "v": 80
    },
    {
      "midi": 65,
      "hit": false,
      "t": 77844.84574999993,
      "d": 206.89659999999276,
      "v": 80
    },
    {
      "midi": 65,
      "hit": false,
      "t": 77844.84574999993,
      "d": 206.89659999999276,
      "v": 80
    },
    {
      "midi": 74,
      "hit": false,
      "t": 77931.05266666696,
      "d": 275.86213333332853,
      "v": 80
    },
    {
      "midi": 60,
      "hit": false,
      "t": 78103.46649999991,
      "d": 413.79320000000007,
      "v": 80
    },
    {
      "midi": 48,
      "hit": false,
      "t": 78103.46649999991,
      "d": 413.79320000000007,
      "v": 80
    },
    {
      "midi": 60,
      "hit": false,
      "t": 78103.46649999992,
      "d": 413.79320000000007,
      "v": 80
    },
    {
      "midi": 60,
      "hit": false,
      "t": 78103.46649999992,
      "d": 413.79320000000007,
      "v": 80
    },
    {
      "midi": 71,
      "hit": false,
      "t": 78275.88033333363,
      "d": 275.86213333332853,
      "v": 80
    },
    {
      "midi": 62,
      "hit": false,
      "t": 78620.70799999991,
      "d": 413.79320000000007,
      "v": 80
    },
    {
      "midi": 50,
      "hit": false,
      "t": 78620.70799999991,
      "d": 413.79320000000007,
      "v": 80
    },
    {
      "midi": 62,
      "hit": false,
      "t": 78620.70799999993,
      "d": 413.79320000000007,
      "v": 80
    },
    {
      "midi": 62,
      "hit": false,
      "t": 78620.70799999993,
      "d": 413.79320000000007,
      "v": 80
    },
    {
      "midi": 81,
      "hit": false,
      "t": 78620.70800000029,
      "d": 275.86213333332853,
      "v": 80
    },
    {
      "midi": 76,
      "hit": false,
      "t": 78965.53566666695,
      "d": 275.86213333332853,
      "v": 80
    },
    {
      "midi": 67,
      "hit": false,
      "t": 79137.94949999992,
      "d": 413.79320000000007,
      "v": 80
    },
    {
      "midi": 55,
      "hit": false,
      "t": 79137.94949999992,
      "d": 413.79320000000007,
      "v": 80
    },
    {
      "midi": 67,
      "hit": false,
      "t": 79137.94949999993,
      "d": 413.79320000000007,
      "v": 80
    },
    {
      "midi": 67,
      "hit": false,
      "t": 79137.94949999993,
      "d": 413.79320000000007,
      "v": 80
    },
    {
      "midi": 74,
      "hit": false,
      "t": 79310.36333333362,
      "d": 275.86213333332853,
      "v": 80
    },
    {
      "midi": 64,
      "hit": false,
      "t": 79655.19099999992,
      "d": 827.5864000000001,
      "v": 80
    },
    {
      "midi": 52,
      "hit": false,
      "t": 79655.19099999992,
      "d": 827.5864000000001,
      "v": 80
    },
    {
      "midi": 64,
      "hit": false,
      "t": 79655.19099999993,
      "d": 827.5864000000001,
      "v": 80
    },
    {
      "midi": 64,
      "hit": false,
      "t": 79655.19099999993,
      "d": 827.5864000000001,
      "v": 80
    },
    {
      "midi": 79,
      "hit": false,
      "t": 79655.19100000028,
      "d": 275.86213333332853,
      "v": 80
    },
    {
      "midi": 72,
      "hit": false,
      "t": 80000.01866666695,
      "d": 275.86213333332853,
      "v": 80
    },
    {
      "midi": 74,
      "hit": false,
      "t": 80344.84633333361,
      "d": 275.86213333332853,
      "v": 80
    },
    {
      "midi": 57,
      "hit": false,
      "t": 80689.67399999991,
      "d": 206.89659999999276,
      "v": 80
    },
    {
      "midi": 45,
      "hit": false,
      "t": 80689.67399999991,
      "d": 206.89659999999276,
      "v": 80
    },
    {
      "midi": 57,
      "hit": false,
      "t": 80689.67399999993,
      "d": 206.89659999999276,
      "v": 80
    },
    {
      "midi": 57,
      "hit": false,
      "t": 80689.67399999993,
      "d": 206.89659999999276,
      "v": 80
    },
    {
      "midi": 83,
      "hit": false,
      "t": 80689.67400000028,
      "d": 275.86213333332853,
      "v": 80
    },
    {
      "midi": 59,
      "hit": false,
      "t": 80948.2947499999,
      "d": 3465.5180499999988,
      "v": 80
    },
    {
      "midi": 47,
      "hit": false,
      "t": 80948.2947499999,
      "d": 3465.5180499999988,
      "v": 80
    },
    {
      "midi": 59,
      "hit": false,
      "t": 80948.29474999991,
      "d": 3465.5180499999988,
      "v": 80
    },
    {
      "midi": 59,
      "hit": false,
      "t": 80948.29474999991,
      "d": 3465.5180499999988,
      "v": 80
    },
    {
      "midi": 84,
      "hit": false,
      "t": 81034.50166666694,
      "d": 275.86213333332853,
      "v": 80
    },
    {
      "midi": 83,
      "hit": false,
      "t": 81379.3293333336,
      "d": 275.86213333332853,
      "v": 80
    },
    {
      "midi": 79,
      "hit": false,
      "t": 81724.15700000027,
      "d": 275.86213333332853,
      "v": 80
    },
    {
      "midi": 74,
      "hit": false,
      "t": 82068.98466666693,
      "d": 275.86213333332853,
      "v": 80
    },
    {
      "midi": 71,
      "hit": false,
      "t": 82413.8123333336,
      "d": 275.86213333332853,
      "v": 80
    },
    {
      "midi": 50,
      "hit": false,
      "t": 82758.64000000001,
      "d": 827.5864000000001,
      "v": 80
    },
    {
      "midi": 81,
      "hit": false,
      "t": 82758.64000000026,
      "d": 275.86213333332853,
      "v": 80
    },
    {
      "midi": 76,
      "hit": false,
      "t": 83103.46766666693,
      "d": 275.86213333332853,
      "v": 80
    },
    {
      "midi": 74,
      "hit": false,
      "t": 83448.29533333359,
      "d": 275.86213333332853,
      "v": 80
    },
    {
      "midi": 55,
      "hit": false,
      "t": 83793.123,
      "d": 827.5864000000001,
      "v": 80
    },
    {
      "midi": 79,
      "hit": false,
      "t": 83793.12300000025,
      "d": 275.86213333332853,
      "v": 80
    },
    {
      "midi": 72,
      "hit": false,
      "t": 84137.95066666692,
      "d": 275.86213333332853,
      "v": 80
    },
    {
      "midi": 74,
      "hit": false,
      "t": 84482.77833333358,
      "d": 275.86213333332853,
      "v": 80
    },
    {
      "midi": 83,
      "hit": false,
      "t": 84827.60600000025,
      "d": 275.86213333332853,
      "v": 80
    },
    {
      "midi": 84,
      "hit": false,
      "t": 85172.43366666691,
      "d": 275.86213333332853,
      "v": 80
    },
    {
      "midi": 83,
      "hit": false,
      "t": 85517.26133333358,
      "d": 275.86213333332853,
      "v": 80
    },
    {
      "midi": 79,
      "hit": false,
      "t": 85862.08900000024,
      "d": 275.86213333332853,
      "v": 80
    },
    {
      "midi": 74,
      "hit": false,
      "t": 86206.9166666669,
      "d": 275.86213333332853,
      "v": 80
    },
    {
      "midi": 71,
      "hit": false,
      "t": 86551.74433333357,
      "d": 275.86213333332853,
      "v": 80
    },
    {
      "midi": 65,
      "hit": false,
      "t": 86896.5719999999,
      "d": 1655.1728000000003,
      "v": 80
    },
    {
      "midi": 53,
      "hit": false,
      "t": 86896.5719999999,
      "d": 1655.1728000000003,
      "v": 80
    },
    {
      "midi": 65,
      "hit": false,
      "t": 86896.57199999991,
      "d": 1655.1728000000003,
      "v": 80
    },
    {
      "midi": 65,
      "hit": false,
      "t": 86896.57199999991,
      "d": 1655.1728000000003,
      "v": 80
    },
    {
      "midi": 81,
      "hit": false,
      "t": 86896.57200000023,
      "d": 275.86213333332853,
      "v": 80
    },
    {
      "midi": 76,
      "hit": false,
      "t": 87241.3996666669,
      "d": 275.86213333332853,
      "v": 80
    },
    {
      "midi": 74,
      "hit": false,
      "t": 87586.22733333356,
      "d": 275.86213333332853,
      "v": 80
    },
    {
      "midi": 79,
      "hit": false,
      "t": 87931.05500000023,
      "d": 275.86213333332853,
      "v": 80
    },
    {
      "midi": 72,
      "hit": false,
      "t": 88275.88266666689,
      "d": 275.86213333332853,
      "v": 80
    },
    {
      "midi": 74,
      "hit": false,
      "t": 88620.71033333355,
      "d": 275.86213333332853,
      "v": 80
    },
    {
      "midi": 65,
      "hit": false,
      "t": 88965.5379999999,
      "d": 206.89659999999276,
      "v": 80
    },
    {
      "midi": 53,
      "hit": false,
      "t": 88965.5379999999,
      "d": 206.89659999999276,
      "v": 80
    },
    {
      "midi": 65,
      "hit": false,
      "t": 88965.53799999991,
      "d": 206.89659999999276,
      "v": 80
    },
    {
      "midi": 65,
      "hit": false,
      "t": 88965.53799999991,
      "d": 206.89659999999276,
      "v": 80
    },
    {
      "midi": 83,
      "hit": false,
      "t": 88965.53800000022,
      "d": 275.86213333332853,
      "v": 80
    },
    {
      "midi": 67,
      "hit": false,
      "t": 89224.15874999989,
      "d": 413.79320000000007,
      "v": 80
    },
    {
      "midi": 55,
      "hit": false,
      "t": 89224.15874999989,
      "d": 413.79320000000007,
      "v": 80
    },
    {
      "midi": 67,
      "hit": false,
      "t": 89224.1587499999,
      "d": 413.79320000000007,
      "v": 80
    },
    {
      "midi": 67,
      "hit": false,
      "t": 89224.1587499999,
      "d": 413.79320000000007,
      "v": 80
    },
    {
      "midi": 84,
      "hit": false,
      "t": 89310.36566666688,
      "d": 275.86213333332853,
      "v": 80
    },
    {
      "midi": 83,
      "hit": false,
      "t": 89655.19333333355,
      "d": 275.86213333332853,
      "v": 80
    },
    {
      "midi": 69,
      "hit": false,
      "t": 89741.40024999989,
      "d": 413.79320000000007,
      "v": 80
    },
    {
      "midi": 57,
      "hit": false,
      "t": 89741.40024999989,
      "d": 413.79320000000007,
      "v": 80
    },
    {
      "midi": 69,
      "hit": false,
      "t": 89741.4002499999,
      "d": 413.79320000000007,
      "v": 80
    },
    {
      "midi": 69,
      "hit": false,
      "t": 89741.4002499999,
      "d": 413.79320000000007,
      "v": 80
    },
    {
      "midi": 79,
      "hit": false,
      "t": 90000.02100000021,
      "d": 275.86213333332853,
      "v": 80
    },
    {
      "midi": 65,
      "hit": false,
      "t": 90258.6417499999,
      "d": 206.89659999999276,
      "v": 80
    },
    {
      "midi": 53,
      "hit": false,
      "t": 90258.6417499999,
      "d": 206.89659999999276,
      "v": 80
    },
    {
      "midi": 65,
      "hit": false,
      "t": 90258.64174999991,
      "d": 206.89659999999276,
      "v": 80
    },
    {
      "midi": 65,
      "hit": false,
      "t": 90258.64174999991,
      "d": 206.89659999999276,
      "v": 80
    },
    {
      "midi": 74,
      "hit": false,
      "t": 90344.84866666688,
      "d": 275.86213333332853,
      "v": 80
    },
    {
      "midi": 60,
      "hit": false,
      "t": 90517.26249999988,
      "d": 413.79320000000007,
      "v": 80
    },
    {
      "midi": 48,
      "hit": false,
      "t": 90517.26249999988,
      "d": 413.79320000000007,
      "v": 80
    },
    {
      "midi": 60,
      "hit": false,
      "t": 90517.2624999999,
      "d": 413.79320000000007,
      "v": 80
    },
    {
      "midi": 60,
      "hit": false,
      "t": 90517.2624999999,
      "d": 413.79320000000007,
      "v": 80
    },
    {
      "midi": 71,
      "hit": false,
      "t": 90689.67633333354,
      "d": 275.86213333332853,
      "v": 80
    },
    {
      "midi": 62,
      "hit": false,
      "t": 91034.50399999988,
      "d": 413.79320000000007,
      "v": 80
    },
    {
      "midi": 50,
      "hit": false,
      "t": 91034.50399999988,
      "d": 413.79320000000007,
      "v": 80
    },
    {
      "midi": 62,
      "hit": false,
      "t": 91034.5039999999,
      "d": 413.79320000000007,
      "v": 80
    },
    {
      "midi": 62,
      "hit": false,
      "t": 91034.5039999999,
      "d": 413.79320000000007,
      "v": 80
    },
    {
      "midi": 81,
      "hit": false,
      "t": 91034.5040000002,
      "d": 275.86213333332853,
      "v": 80
    },
    {
      "midi": 76,
      "hit": false,
      "t": 91379.33166666687,
      "d": 275.86213333332853,
      "v": 80
    },
    {
      "midi": 67,
      "hit": false,
      "t": 91551.74549999989,
      "d": 413.79320000000007,
      "v": 80
    },
    {
      "midi": 55,
      "hit": false,
      "t": 91551.74549999989,
      "d": 413.79320000000007,
      "v": 80
    },
    {
      "midi": 67,
      "hit": false,
      "t": 91551.7454999999,
      "d": 413.79320000000007,
      "v": 80
    },
    {
      "midi": 67,
      "hit": false,
      "t": 91551.7454999999,
      "d": 413.79320000000007,
      "v": 80
    },
    {
      "midi": 74,
      "hit": false,
      "t": 91724.15933333353,
      "d": 275.86213333332853,
      "v": 80
    },
    {
      "midi": 64,
      "hit": false,
      "t": 92068.98699999989,
      "d": 827.5864000000001,
      "v": 80
    },
    {
      "midi": 52,
      "hit": false,
      "t": 92068.98699999989,
      "d": 827.5864000000001,
      "v": 80
    },
    {
      "midi": 64,
      "hit": false,
      "t": 92068.9869999999,
      "d": 827.5864000000001,
      "v": 80
    },
    {
      "midi": 64,
      "hit": false,
      "t": 92068.9869999999,
      "d": 827.5864000000001,
      "v": 80
    },
    {
      "midi": 79,
      "hit": false,
      "t": 92068.9870000002,
      "d": 275.86213333332853,
      "v": 80
    },
    {
      "midi": 72,
      "hit": false,
      "t": 92413.81466666686,
      "d": 275.86213333332853,
      "v": 80
    },
    {
      "midi": 74,
      "hit": false,
      "t": 92758.64233333353,
      "d": 275.86213333332853,
      "v": 80
    },
    {
      "midi": 71,
      "hit": false,
      "t": 93103.46999999988,
      "d": 3724.1388000000006,
      "v": 80
    },
    {
      "midi": 59,
      "hit": false,
      "t": 93103.46999999988,
      "d": 3724.1388000000006,
      "v": 80
    },
    {
      "midi": 71,
      "hit": false,
      "t": 93103.4699999999,
      "d": 3724.1388000000006,
      "v": 80
    },
    {
      "midi": 71,
      "hit": false,
      "t": 93103.4699999999,
      "d": 3724.1388000000006,
      "v": 80
    },
    {
      "midi": 83,
      "hit": false,
      "t": 93103.47000000019,
      "d": 275.86213333332853,
      "v": 80
    },
    {
      "midi": 84,
      "hit": false,
      "t": 93448.29766666685,
      "d": 275.86213333332853,
      "v": 80
    },
    {
      "midi": 83,
      "hit": false,
      "t": 93793.12533333352,
      "d": 275.86213333332853,
      "v": 80
    },
    {
      "midi": 79,
      "hit": false,
      "t": 94137.95300000018,
      "d": 275.86213333332853,
      "v": 80
    },
    {
      "midi": 74,
      "hit": false,
      "t": 94482.78066666685,
      "d": 275.86213333332853,
      "v": 80
    },
    {
      "midi": 71,
      "hit": false,
      "t": 94827.60833333351,
      "d": 275.86213333332853,
      "v": 80
    },
    {
      "midi": 86,
      "hit": false,
      "t": 95172.43600000018,
      "d": 275.86213333332853,
      "v": 80
    },
    {
      "midi": 84,
      "hit": false,
      "t": 95517.26366666684,
      "d": 275.86213333332853,
      "v": 80
    },
    {
      "midi": 83,
      "hit": false,
      "t": 95862.0913333335,
      "d": 275.86213333332853,
      "v": 80
    },
    {
      "midi": 79,
      "hit": false,
      "t": 96206.91900000017,
      "d": 275.86213333332853,
      "v": 80
    },
    {
      "midi": 72,
      "hit": false,
      "t": 96551.74666666683,
      "d": 275.86213333332853,
      "v": 80
    },
    {
      "midi": 74,
      "hit": false,
      "t": 96896.5743333335,
      "d": 275.86213333332853,
      "v": 80
    },
    {
      "midi": 83,
      "hit": false,
      "t": 97241.40200000016,
      "d": 275.86213333332853,
      "v": 80
    },
    {
      "midi": 84,
      "hit": false,
      "t": 97586.22966666683,
      "d": 275.86213333332853,
      "v": 80
    },
    {
      "midi": 83,
      "hit": false,
      "t": 97931.05733333349,
      "d": 275.86213333332853,
      "v": 80
    },
    {
      "midi": 79,
      "hit": false,
      "t": 98275.88500000015,
      "d": 275.86213333332853,
      "v": 80
    },
    {
      "midi": 74,
      "hit": false,
      "t": 98620.71266666682,
      "d": 275.86213333332853,
      "v": 80
    },
    {
      "midi": 71,
      "hit": false,
      "t": 98965.54033333348,
      "d": 275.86213333332853,
      "v": 80
    }
  ]
}