{
  "jsonPath": "Animes/Secret Of Mana MIDI Collection/i-wont-forget.json",
  "path": "Animes\\Secret Of Mana MIDI Collection\\I Wont Forget.mid",
  "name": "I Wont Forget",
  "difficulty": "Advanced",
  "bpm": 135.000135000135,
  "notes": [
    {
      "midi": 57,
      "hit": false,
      "t": 1777.776,
      "d": 2152.775625,
      "v": 80
    },
    {
      "midi": 88,
      "hit": false,
      "t": 1777.776,
      "d": 870.3695,
      "v": 80
    },
    {
      "midi": 64,
      "hit": false,
      "t": 2222.2200000000003,
      "d": 1731.4797500000004,
      "v": 80
    },
    {
      "midi": 71,
      "hit": false,
      "t": 2666.664,
      "d": 467.5921250000001,
      "v": 80
    },
    {
      "midi": 81,
      "hit": false,
      "t": 2666.664,
      "d": 888.8879999999999,
      "v": 80
    },
    {
      "midi": 72,
      "hit": false,
      "t": 3111.108,
      "d": 435.18475000000035,
      "v": 80
    },
    {
      "midi": 91,
      "hit": false,
      "t": 3555.552,
      "d": 888.8880000000004,
      "v": 80
    },
    {
      "midi": 79,
      "hit": false,
      "t": 3555.5520000000006,
      "d": 814.8140000000003,
      "v": 80
    },
    {
      "midi": 84,
      "hit": false,
      "t": 4888.884000000001,
      "d": 462.96250000000055,
      "v": 80
    },
    {
      "midi": 62,
      "hit": false,
      "t": 5333.328000000001,
      "d": 2708.3306250000005,
      "v": 80
    },
    {
      "midi": 86,
      "hit": false,
      "t": 5333.328000000001,
      "d": 763.8881250000004,
      "v": 80
    },
    {
      "midi": 69,
      "hit": false,
      "t": 5777.772000000001,
      "d": 2240.7385000000013,
      "v": 80
    },
    {
      "midi": 76,
      "hit": false,
      "t": 6222.216000000001,
      "d": 435.18475000000035,
      "v": 80
    },
    {
      "midi": 86,
      "hit": false,
      "t": 6222.216000000002,
      "d": 314.8145000000004,
      "v": 80
    },
    {
      "midi": 78,
      "hit": false,
      "t": 6666.660000000002,
      "d": 412.03662499999973,
      "v": 80
    },
    {
      "midi": 88,
      "hit": false,
      "t": 6666.660000000003,
      "d": 425.9255000000003,
      "v": 80
    },
    {
      "midi": 81,
      "hit": false,
      "t": 7111.104000000001,
      "d": 462.96250000000055,
      "v": 80
    },
    {
      "midi": 81,
      "hit": false,
      "t": 7111.104000000003,
      "d": 1740.7389999999996,
      "v": 80
    },
    {
      "midi": 78,
      "hit": false,
      "t": 7555.548000000002,
      "d": 495.3698750000003,
      "v": 80
    },
    {
      "midi": 76,
      "hit": false,
      "t": 7999.992000000002,
      "d": 495.3698750000003,
      "v": 80
    },
    {
      "midi": 72,
      "hit": false,
      "t": 8444.436000000002,
      "d": 449.0736250000009,
      "v": 80
    },
    {
      "midi": 57,
      "hit": false,
      "t": 8888.880000000003,
      "d": 1976.849874999998,
      "v": 80
    },
    {
      "midi": 88,
      "hit": false,
      "t": 8888.880000000003,
      "d": 592.5920000000006,
      "v": 80
    },
    {
      "midi": 64,
      "hit": false,
      "t": 9333.324000000002,
      "d": 1513.8873749999984,
      "v": 80
    },
    {
      "midi": 71,
      "hit": false,
      "t": 9777.768000000002,
      "d": 435.18475000000035,
      "v": 80
    },
    {
      "midi": 81,
      "hit": false,
      "t": 9777.768000000004,
      "d": 930.5546249999989,
      "v": 80
    },
    {
      "midi": 72,
      "hit": false,
      "t": 10222.212000000001,
      "d": 402.77737499999967,
      "v": 80
    },
    {
      "midi": 79,
      "hit": false,
      "t": 10666.656,
      "d": 726.8511249999992,
      "v": 80
    },
    {
      "midi": 91,
      "hit": false,
      "t": 10666.656000000003,
      "d": 1333.3320000000003,
      "v": 80
    },
    {
      "midi": 69,
      "hit": false,
      "t": 11999.988,
      "d": 319.444125,
      "v": 80
    },
    {
      "midi": 84,
      "hit": false,
      "t": 11999.988000000003,
      "d": 458.33287500000006,
      "v": 80
    },
    {
      "midi": 58,
      "hit": false,
      "t": 12444.432,
      "d": 2537.0344999999998,
      "v": 80
    },
    {
      "midi": 86,
      "hit": false,
      "t": 12444.432000000003,
      "d": 444.4440000000013,
      "v": 80
    },
    {
      "midi": 65,
      "hit": false,
      "t": 12888.876,
      "d": 2078.7016249999997,
      "v": 80
    },
    {
      "midi": 88,
      "hit": false,
      "t": 12888.876000000004,
      "d": 467.5921249999992,
      "v": 80
    },
    {
      "midi": 70,
      "hit": false,
      "t": 13333.32,
      "d": 458.33287500000006,
      "v": 80
    },
    {
      "midi": 86,
      "hit": false,
      "t": 13333.320000000003,
      "d": 453.70324999999866,
      "v": 80
    },
    {
      "midi": 72,
      "hit": false,
      "t": 13777.764,
      "d": 430.55512500000077,
      "v": 80
    },
    {
      "midi": 84,
      "hit": false,
      "t": 13777.764000000003,
      "d": 453.70324999999866,
      "v": 80
    },
    {
      "midi": 77,
      "hit": false,
      "t": 14222.208,
      "d": 462.96249999999964,
      "v": 80
    },
    {
      "midi": 86,
      "hit": false,
      "t": 14222.208000000002,
      "d": 1337.961624999998,
      "v": 80
    },
    {
      "midi": 76,
      "hit": false,
      "t": 14666.652,
      "d": 435.18475000000035,
      "v": 80
    },
    {
      "midi": 74,
      "hit": false,
      "t": 15111.096,
      "d": 453.70324999999866,
      "v": 80
    },
    {
      "midi": 70,
      "hit": false,
      "t": 15555.539999999999,
      "d": 444.4439999999995,
      "v": 80
    },
    {
      "midi": 88,
      "hit": false,
      "t": 15555.54,
      "d": 425.9254999999994,
      "v": 80
    },
    {
      "midi": 55,
      "hit": false,
      "t": 15999.983999999999,
      "d": 2842.5897500000046,
      "v": 80
    },
    {
      "midi": 89,
      "hit": false,
      "t": 15999.984,
      "d": 879.6287499999999,
      "v": 80
    },
    {
      "midi": 62,
      "hit": false,
      "t": 16444.428,
      "d": 2263.886625000003,
      "v": 80
    },
    {
      "midi": 67,
      "hit": false,
      "t": 16888.872,
      "d": 481.48099999999977,
      "v": 80
    },
    {
      "midi": 84,
      "hit": false,
      "t": 16888.872,
      "d": 907.4064999999973,
      "v": 80
    },
    {
      "midi": 69,
      "hit": false,
      "t": 17333.316,
      "d": 449.0736250000009,
      "v": 80
    },
    {
      "midi": 70,
      "hit": false,
      "t": 17777.76,
      "d": 430.5551250000026,
      "v": 80
    },
    {
      "midi": 93,
      "hit": false,
      "t": 17777.76,
      "d": 1333.3319999999985,
      "v": 80
    },
    {
      "midi": 72,
      "hit": false,
      "t": 18222.204,
      "d": 425.9255000000012,
      "v": 80
    },
    {
      "midi": 69,
      "hit": false,
      "t": 18666.648,
      "d": 486.1106250000048,
      "v": 80
    },
    {
      "midi": 89,
      "hit": false,
      "t": 19111.091999999997,
      "d": 439.81437500000175,
      "v": 80
    },
    {
      "midi": 67,
      "hit": false,
      "t": 19111.092000000004,
      "d": 444.44400000000314,
      "v": 80
    },
    {
      "midi": 91,
      "hit": false,
      "t": 19555.536,
      "d": 416.6662499999984,
      "v": 80
    },
    {
      "midi": 53,
      "hit": false,
      "t": 19555.536000000007,
      "d": 2555.5529999999962,
      "v": 80
    },
    {
      "midi": 88,
      "hit": false,
      "t": 19999.98,
      "d": 472.2217500000006,
      "v": 80
    },
    {
      "midi": 60,
      "hit": false,
      "t": 19999.980000000007,
      "d": 2208.331124999997,
      "v": 80
    },
    {
      "midi": 86,
      "hit": false,
      "t": 20444.424,
      "d": 444.4439999999995,
      "v": 80
    },
    {
      "midi": 64,
      "hit": false,
      "t": 20444.424000000006,
      "d": 458.33287500000006,
      "v": 80
    },
    {
      "midi": 88,
      "hit": false,
      "t": 20888.868,
      "d": 444.4439999999995,
      "v": 80
    },
    {
      "midi": 65,
      "hit": false,
      "t": 20888.868000000006,
      "d": 435.18475000000035,
      "v": 80
    },
    {
      "midi": 84,
      "hit": false,
      "t": 21333.311999999998,
      "d": 1333.3319999999985,
      "v": 80
    },
    {
      "midi": 67,
      "hit": false,
      "t": 21333.312000000005,
      "d": 1662.0353749999958,
      "v": 80
    },
    {
      "midi": 84,
      "hit": false,
      "t": 22666.643999999997,
      "d": 453.70324999999866,
      "v": 80
    },
    {
      "midi": 53,
      "hit": false,
      "t": 22666.644000000004,
      "d": 92.59249999999884,
      "v": 80
    },
    {
      "midi": 87,
      "hit": false,
      "t": 23111.087999999996,
      "d": 467.5921249999992,
      "v": 80
    },
    {
      "midi": 56,
      "hit": false,
      "t": 23111.088000000003,
      "d": 2148.1460000000006,
      "v": 80
    },
    {
      "midi": 84,
      "hit": false,
      "t": 23555.531999999996,
      "d": 430.55512499999895,
      "v": 80
    },
    {
      "midi": 63,
      "hit": false,
      "t": 23555.532000000003,
      "d": 1810.1833750000005,
      "v": 80
    },
    {
      "midi": 82,
      "hit": false,
      "t": 23999.975999999995,
      "d": 467.5921249999992,
      "v": 80
    },
    {
      "midi": 70,
      "hit": false,
      "t": 23999.976000000002,
      "d": 439.81437500000175,
      "v": 80
    },
    {
      "midi": 84,
      "hit": false,
      "t": 24444.419999999995,
      "d": 490.7402499999989,
      "v": 80
    },
    {
      "midi": 72,
      "hit": false,
      "t": 24444.420000000006,
      "d": 407.40699999999924,
      "v": 80
    },
    {
      "midi": 79,
      "hit": false,
      "t": 24888.863999999994,
      "d": 1370.3690000000024,
      "v": 80
    },
    {
      "midi": 75,
      "hit": false,
      "t": 24888.864000000005,
      "d": 518.518,
      "v": 80
    },
    {
      "midi": 79,
      "hit": false,
      "t": 24888.864000000005,
      "d": 569.4438750000008,
      "v": 80
    },
    {
      "midi": 77,
      "hit": false,
      "t": 26222.195999999996,
      "d": 421.2958749999998,
      "v": 80
    },
    {
      "midi": 58,
      "hit": false,
      "t": 26222.196000000007,
      "d": 148.14800000000105,
      "v": 80
    },
    {
      "midi": 77,
      "hit": false,
      "t": 26222.196000000007,
      "d": 351.85150000000067,
      "v": 80
    },
    {
      "midi": 74,
      "hit": false,
      "t": 26222.196000000007,
      "d": 356.48112500000207,
      "v": 80
    },
    {
      "midi": 79,
      "hit": false,
      "t": 26666.639999999996,
      "d": 3212.959749999998,
      "v": 80
    },
    {
      "midi": 60,
      "hit": false,
      "t": 26666.64000000001,
      "d": 3027.7747500000005,
      "v": 80
    },
    {
      "midi": 64,
      "hit": false,
      "t": 27111.08400000001,
      "d": 2398.1457499999997,
      "v": 80
    },
    {
      "midi": 67,
      "hit": false,
      "t": 27555.52800000001,
      "d": 1333.3320000000022,
      "v": 80
    },
    {
      "midi": 72,
      "hit": false,
      "t": 27999.97200000001,
      "d": 402.7773750000015,
      "v": 80
    },
    {
      "midi": 76,
      "hit": false,
      "t": 28444.416000000012,
      "d": 444.4439999999995,
      "v": 80
    },
    {
      "midi": 72,
      "hit": false,
      "t": 28888.86000000001,
      "d": 467.5921249999992,
      "v": 80
    },
    {
      "midi": 71,
      "hit": false,
      "t": 29333.30400000001,
      "d": 537.0364999999983,
      "v": 80
    },
    {
      "midi": 67,
      "hit": false,
      "t": 29777.74800000001,
      "d": 388.8884999999973,
      "v": 80
    },
    {
      "midi": 64,
      "hit": false,
      "t": 30171.266125,
      "d": 3111.108000000004,
      "v": 80
    },
    {
      "midi": 57,
      "hit": false,
      "t": 30185.155,
      "d": 3111.108,
      "v": 80
    },
    {
      "midi": 60,
      "hit": false,
      "t": 30185.155,
      "d": 3111.108,
      "v": 80
    },
    {
      "midi": 88,
      "hit": false,
      "t": 30222.191999999995,
      "d": 870.3695000000007,
      "v": 80
    },
    {
      "midi": 57,
      "hit": false,
      "t": 30222.192000000006,
      "d": 2152.7756249999984,
      "v": 80
    },
    {
      "midi": 64,
      "hit": false,
      "t": 30666.636000000006,
      "d": 1731.4797499999986,
      "v": 80
    },
    {
      "midi": 81,
      "hit": false,
      "t": 31111.079999999994,
      "d": 888.887999999999,
      "v": 80
    },
    {
      "midi": 71,
      "hit": false,
      "t": 31111.080000000005,
      "d": 467.5921249999992,
      "v": 80
    },
    {
      "midi": 72,
      "hit": false,
      "t": 31555.524000000005,
      "d": 435.18475000000035,
      "v": 80
    },
    {
      "midi": 91,
      "hit": false,
      "t": 31999.967999999993,
      "d": 888.887999999999,
      "v": 80
    },
    {
      "midi": 79,
      "hit": false,
      "t": 31999.968000000004,
      "d": 814.8140000000021,
      "v": 80
    },
    {
      "midi": 84,
      "hit": false,
      "t": 33333.29999999999,
      "d": 462.96250000000146,
      "v": 80
    },
    {
      "midi": 66,
      "hit": false,
      "t": 33694.410749999995,
      "d": 3194.4412500000035,
      "v": 80
    },
    {
      "midi": 57,
      "hit": false,
      "t": 33699.040375,
      "d": 3217.589375000003,
      "v": 80
    },
    {
      "midi": 62,
      "hit": false,
      "t": 33703.67,
      "d": 3180.5523749999993,
      "v": 80
    },
    {
      "midi": 86,
      "hit": false,
      "t": 33777.74399999999,
      "d": 763.8881249999977,
      "v": 80
    },
    {
      "midi": 62,
      "hit": false,
      "t": 33777.744000000006,
      "d": 2708.3306250000096,
      "v": 80
    },
    {
      "midi": 69,
      "hit": false,
      "t": 34222.18800000001,
      "d": 2240.7385000000068,
      "v": 80
    },
    {
      "midi": 86,
      "hit": false,
      "t": 34666.63199999999,
      "d": 370.3700000000026,
      "v": 80
    },
    {
      "midi": 76,
      "hit": false,
      "t": 34666.63200000001,
      "d": 435.18475000000035,
      "v": 80
    },
    {
      "midi": 88,
      "hit": false,
      "t": 35111.075999999994,
      "d": 425.92549999999756,
      "v": 80
    },
    {
      "midi": 78,
      "hit": false,
      "t": 35111.076000000015,
      "d": 412.03662500000064,
      "v": 80
    },
    {
      "midi": 81,
      "hit": false,
      "t": 35555.51999999999,
      "d": 1740.7390000000014,
      "v": 80
    },
    {
      "midi": 81,
      "hit": false,
      "t": 35555.52000000002,
      "d": 462.96250000000146,
      "v": 80
    },
    {
      "midi": 78,
      "hit": false,
      "t": 35999.96400000002,
      "d": 495.3698749999967,
      "v": 80
    },
    {
      "midi": 76,
      "hit": false,
      "t": 36444.40800000002,
      "d": 495.36987500000396,
      "v": 80
    },
    {
      "midi": 72,
      "hit": false,
      "t": 36888.85200000002,
      "d": 449.07362500000454,
      "v": 80
    },
    {
      "midi": 60,
      "hit": false,
      "t": 37328.666375,
      "d": 2796.2934999999998,
      "v": 80
    },
    {
      "midi": 88,
      "hit": false,
      "t": 37333.29599999999,
      "d": 592.5919999999969,
      "v": 80
    },
    {
      "midi": 57,
      "hit": false,
      "t": 37333.296,
      "d": 2782.4046249999956,
      "v": 80
    },
    {
      "midi": 64,
      "hit": false,
      "t": 37333.296,
      "d": 2814.811999999998,
      "v": 80
    },
    {
      "midi": 57,
      "hit": false,
      "t": 37333.296000000024,
      "d": 1976.8498750000072,
      "v": 80
    },
    {
      "midi": 64,
      "hit": false,
      "t": 37777.74000000003,
      "d": 1513.8873750000057,
      "v": 80
    },
    {
      "midi": 81,
      "hit": false,
      "t": 38222.18399999999,
      "d": 930.554624999997,
      "v": 80
    },
    {
      "midi": 71,
      "hit": false,
      "t": 38222.18400000003,
      "d": 435.18475000000035,
      "v": 80
    },
    {
      "midi": 72,
      "hit": false,
      "t": 38666.62800000003,
      "d": 402.77737499999785,
      "v": 80
    },
    {
      "midi": 91,
      "hit": false,
      "t": 39111.071999999986,
      "d": 1333.3320000000022,
      "v": 80
    },
    {
      "midi": 79,
      "hit": false,
      "t": 39111.07200000003,
      "d": 726.851125000001,
      "v": 80
    },
    {
      "midi": 84,
      "hit": false,
      "t": 40444.40399999999,
      "d": 458.33287500000006,
      "v": 80
    },
    {
      "midi": 69,
      "hit": false,
      "t": 40444.40400000003,
      "d": 319.4441250000018,
      "v": 80
    },
    {
      "midi": 62,
      "hit": false,
      "t": 40870.3295,
      "d": 1662.0353749999995,
      "v": 80
    },
    {
      "midi": 70,
      "hit": false,
      "t": 40870.3295,
      "d": 1726.8501249999972,
      "v": 80
    },
    {
      "midi": 65,
      "hit": false,
      "t": 40879.58875,
      "d": 1657.405749999998,
      "v": 80
    },
    {
      "midi": 58,
      "hit": false,
      "t": 40879.58875,
      "d": 1694.4427499999947,
      "v": 80
    },
    {
      "midi": 86,
      "hit": false,
      "t": 40888.84799999999,
      "d": 444.44399999999587,
      "v": 80
    },
    {
      "midi": 58,
      "hit": false,
      "t": 40888.848000000035,
      "d": 2537.0344999999943,
      "v": 80
    },
    {
      "midi": 88,
      "hit": false,
      "t": 41333.29199999999,
      "d": 467.59212500000285,
      "v": 80
    },
    {
      "midi": 65,
      "hit": false,
      "t": 41333.29200000003,
      "d": 2078.7016250000015,
      "v": 80
    },
    {
      "midi": 86,
      "hit": false,
      "t": 41777.73599999999,
      "d": 453.70325000000594,
      "v": 80
    },
    {
      "midi": 70,
      "hit": false,
      "t": 41777.73600000003,
      "d": 458.33287500000006,
      "v": 80
    },
    {
      "midi": 84,
      "hit": false,
      "t": 42222.17999999999,
      "d": 453.70325000000594,
      "v": 80
    },
    {
      "midi": 72,
      "hit": false,
      "t": 42222.18000000004,
      "d": 430.55512499999895,
      "v": 80
    },
    {
      "midi": 86,
      "hit": false,
      "t": 42666.623999999996,
      "d": 1337.9616250000036,
      "v": 80
    },
    {
      "midi": 77,
      "hit": false,
      "t": 42666.62400000003,
      "d": 462.96250000000146,
      "v": 80
    },
    {
      "midi": 76,
      "hit": false,
      "t": 43111.068000000036,
      "d": 435.1847499999931,
      "v": 80
    },
    {
      "midi": 74,
      "hit": false,
      "t": 43555.51200000003,
      "d": 453.70325000000594,
      "v": 80
    },
    {
      "midi": 88,
      "hit": false,
      "t": 43999.956,
      "d": 425.92550000000483,
      "v": 80
    },
    {
      "midi": 70,
      "hit": false,
      "t": 43999.956000000035,
      "d": 444.44400000000314,
      "v": 80
    },
    {
      "midi": 77,
      "hit": false,
      "t": 44370.325999999994,
      "d": 2439.8123750000013,
      "v": 80
    },
    {
      "midi": 70,
      "hit": false,
      "t": 44379.58525,
      "d": 2444.4419999999955,
      "v": 80
    },
    {
      "midi": 72,
      "hit": false,
      "t": 44388.8445,
      "d": 2393.5161249999946,
      "v": 80
    },
    {
      "midi": 65,
      "hit": false,
      "t": 44393.474125,
      "d": 2481.478999999992,
      "v": 80
    },
    {
      "midi": 89,
      "hit": false,
      "t": 44444.4,
      "d": 879.6287499999962,
      "v": 80
    },
    {
      "midi": 55,
      "hit": false,
      "t": 44444.40000000004,
      "d": 2842.589749999992,
      "v": 80
    },
    {
      "midi": 62,
      "hit": false,
      "t": 44888.84400000004,
      "d": 2263.886624999992,
      "v": 80
    },
    {
      "midi": 84,
      "hit": false,
      "t": 45333.288,
      "d": 907.4064999999973,
      "v": 80
    },
    {
      "midi": 67,
      "hit": false,
      "t": 45333.288000000044,
      "d": 481.48099999999977,
      "v": 80
    },
    {
      "midi": 69,
      "hit": false,
      "t": 45777.73200000005,
      "d": 449.07362499999726,
      "v": 80
    },
    {
      "midi": 93,
      "hit": false,
      "t": 46222.176,
      "d": 1333.3319999999949,
      "v": 80
    },
    {
      "midi": 70,
      "hit": false,
      "t": 46222.17600000004,
      "d": 430.55512499999895,
      "v": 80
    },
    {
      "midi": 72,
      "hit": false,
      "t": 46666.62000000004,
      "d": 425.92549999999756,
      "v": 80
    },
    {
      "midi": 69,
      "hit": false,
      "t": 47111.064000000035,
      "d": 486.1106249999939,
      "v": 80
    },
    {
      "midi": 89,
      "hit": false,
      "t": 47555.507999999994,
      "d": 439.81437500000175,
      "v": 80
    },
    {
      "midi": 67,
      "hit": false,
      "t": 47555.50800000003,
      "d": 444.44399999999587,
      "v": 80
    },
    {
      "midi": 53,
      "hit": false,
      "t": 47981.43349999999,
      "d": 2555.553000000007,
      "v": 80
    },
    {
      "midi": 57,
      "hit": false,
      "t": 47990.692749999995,
      "d": 2569.441875000004,
      "v": 80
    },
    {
      "midi": 65,
      "hit": false,
      "t": 47990.692749999995,
      "d": 2620.367750000005,
      "v": 80
    },
    {
      "midi": 60,
      "hit": false,
      "t": 47990.692749999995,
      "d": 2643.5158750000046,
      "v": 80
    },
    {
      "midi": 91,
      "hit": false,
      "t": 47999.952,
      "d": 416.66625000000204,
      "v": 80
    },
    {
      "midi": 67,
      "hit": false,
      "t": 47999.952,
      "d": 3555.5520000000033,
      "v": 100
    },
    {
      "midi": 72,
      "hit": false,
      "t": 47999.952,
      "d": 3555.5520000000033,
      "v": 100
    },
    {
      "midi": 53,
      "hit": false,
      "t": 47999.95200000003,
      "d": 2555.553000000007,
      "v": 80
    },
    {
      "midi": 88,
      "hit": false,
      "t": 48444.396,
      "d": 472.22175000000425,
      "v": 80
    },
    {
      "midi": 60,
      "hit": false,
      "t": 48444.39600000002,
      "d": 2208.3311250000115,
      "v": 80
    },
    {
      "midi": 86,
      "hit": false,
      "t": 48888.840000000004,
      "d": 444.44400000000314,
      "v": 80
    },
    {
      "midi": 64,
      "hit": false,
      "t": 48888.840000000026,
      "d": 458.33287500000006,
      "v": 80
    },
    {
      "midi": 88,
      "hit": false,
      "t": 49333.28400000001,
      "d": 444.44400000000314,
      "v": 80
    },
    {
      "midi": 65,
      "hit": false,
      "t": 49333.28400000003,
      "d": 435.18475000000035,
      "v": 80
    },
    {
      "midi": 84,
      "hit": false,
      "t": 49777.72800000001,
      "d": 1333.3320000000022,
      "v": 80
    },
    {
      "midi": 67,
      "hit": false,
      "t": 49777.72800000003,
      "d": 1662.0353749999995,
      "v": 80
    },
    {
      "midi": 84,
      "hit": false,
      "t": 51111.06000000001,
      "d": 453.70325000000594,
      "v": 80
    },
    {
      "midi": 53,
      "hit": false,
      "t": 51111.060000000034,
      "d": 92.59249999999884,
      "v": 80
    },
    {
      "midi": 70,
      "hit": false,
      "t": 51555.504,
      "d": 3555.5520000000033,
      "v": 100
    },
    {
      "midi": 87,
      "hit": false,
      "t": 51555.504000000015,
      "d": 467.59212500000285,
      "v": 80
    },
    {
      "midi": 56,
      "hit": false,
      "t": 51555.50400000003,
      "d": 2148.146000000008,
      "v": 80
    },
    {
      "midi": 63,
      "hit": false,
      "t": 51560.133625,
      "d": 2736.108374999996,
      "v": 80
    },
    {
      "midi": 60,
      "hit": false,
      "t": 51560.133625,
      "d": 2791.6638749999984,
      "v": 80
    },
    {
      "midi": 56,
      "hit": false,
      "t": 51564.76325,
      "d": 1898.146249999998,
      "v": 80
    },
    {
      "midi": 68,
      "hit": false,
      "t": 51583.28175,
      "d": 2699.0713749999995,
      "v": 80
    },
    {
      "midi": 84,
      "hit": false,
      "t": 51999.94800000002,
      "d": 430.55512499999895,
      "v": 80
    },
    {
      "midi": 63,
      "hit": false,
      "t": 51999.94800000003,
      "d": 1810.1833750000078,
      "v": 80
    },
    {
      "midi": 82,
      "hit": false,
      "t": 52444.392000000014,
      "d": 467.59212500000285,
      "v": 80
    },
    {
      "midi": 70,
      "hit": false,
      "t": 52444.392000000036,
      "d": 439.81437500000175,
      "v": 80
    },
    {
      "midi": 84,
      "hit": false,
      "t": 52888.83600000002,
      "d": 490.74025000000256,
      "v": 80
    },
    {
      "midi": 72,
      "hit": false,
      "t": 52888.83600000004,
      "d": 407.40699999999924,
      "v": 80
    },
    {
      "midi": 79,
      "hit": false,
      "t": 53333.28000000002,
      "d": 1370.3689999999915,
      "v": 80
    },
    {
      "midi": 75,
      "hit": false,
      "t": 53333.280000000035,
      "d": 518.5180000000037,
      "v": 80
    },
    {
      "midi": 79,
      "hit": false,
      "t": 53333.280000000035,
      "d": 569.4438750000045,
      "v": 80
    },
    {
      "midi": 77,
      "hit": false,
      "t": 54666.612000000016,
      "d": 421.29587499999616,
      "v": 80
    },
    {
      "midi": 58,
      "hit": false,
      "t": 54666.61200000004,
      "d": 148.14800000000105,
      "v": 80
    },
    {
      "midi": 77,
      "hit": false,
      "t": 54666.61200000004,
      "d": 351.8515000000043,
      "v": 80
    },
    {
      "midi": 74,
      "hit": false,
      "t": 54666.61200000004,
      "d": 356.4811250000057,
      "v": 80
    },
    {
      "midi": 60,
      "hit": false,
      "t": 55111.056000000004,
      "d": 1453.7022499999948,
      "v": 80
    },
    {
      "midi": 64,
      "hit": false,
      "t": 55111.056000000004,
      "d": 1462.9614999999976,
      "v": 80
    },
    {
      "midi": 48,
      "hit": false,
      "t": 55111.056000000004,
      "d": 1476.8503749999945,
      "v": 80
    },
    {
      "midi": 55,
      "hit": false,
      "t": 55111.056000000004,
      "d": 1490.7392499999914,
      "v": 80
    },
    {
      "midi": 67,
      "hit": false,
      "t": 55111.056000000004,
      "d": 1499.9984999999942,
      "v": 80
    },
    {
      "midi": 36,
      "hit": false,
      "t": 55111.056000000004,
      "d": 1777.7759999999907,
      "v": 100
    },
    {
      "midi": 72,
      "hit": false,
      "t": 55111.056000000004,
      "d": 1777.7759999999907,
      "v": 100
    },
    {
      "midi": 79,
      "hit": false,
      "t": 55111.05600000001,
      "d": 3212.959750000002,
      "v": 80
    },
    {
      "midi": 60,
      "hit": false,
      "t": 55111.05600000004,
      "d": 3027.7747500000114,
      "v": 80
    },
    {
      "midi": 64,
      "hit": false,
      "t": 55555.500000000044,
      "d": 2398.1457500000106,
      "v": 80
    },
    {
      "midi": 67,
      "hit": false,
      "t": 55999.94400000005,
      "d": 1333.3320000000022,
      "v": 80
    },
    {
      "midi": 72,
      "hit": false,
      "t": 56444.38800000005,
      "d": 402.77737499999785,
      "v": 80
    },
    {
      "midi": 76,
      "hit": false,
      "t": 56888.832000000046,
      "d": 444.44400000000314,
      "v": 80
    },
    {
      "midi": 72,
      "hit": false,
      "t": 57333.27600000005,
      "d": 467.59212500000285,
      "v": 80
    },
    {
      "midi": 71,
      "hit": false,
      "t": 57777.72000000005,
      "d": 537.036500000002,
      "v": 80
    },
    {
      "midi": 67,
      "hit": false,
      "t": 58222.164000000055,
      "d": 388.88850000000093,
      "v": 80
    }
  ]
}