{
  "jsonPath": "Animes/Secret Of Mana MIDI Collection/now-flightless-wings.json",
  "path": "Animes\\Secret Of Mana MIDI Collection\\Now Flightless Wings.mid",
  "name": "Now Flightless Wings",
  "difficulty": "Intermediate",
  "bpm": 122.99996925000768,
  "notes": [
    {
      "midi": 72,
      "hit": false,
      "t": 0,
      "d": 780.488,
      "v": 80
    },
    {
      "midi": 68,
      "hit": false,
      "t": 0,
      "d": 7024.392000000001,
      "v": 80
    },
    {
      "midi": 72,
      "hit": false,
      "t": 0,
      "d": 7024.392000000001,
      "v": 80
    },
    {
      "midi": 70,
      "hit": false,
      "t": 975.6100000000001,
      "d": 780.488,
      "v": 80
    },
    {
      "midi": 72,
      "hit": false,
      "t": 1951.2200000000003,
      "d": 780.4880000000003,
      "v": 80
    },
    {
      "midi": 70,
      "hit": false,
      "t": 2926.8300000000004,
      "d": 390.24400000000014,
      "v": 80
    },
    {
      "midi": 75,
      "hit": false,
      "t": 3414.6350000000007,
      "d": 390.24400000000014,
      "v": 80
    },
    {
      "midi": 72,
      "hit": false,
      "t": 3902.440000000001,
      "d": 780.4879999999998,
      "v": 80
    },
    {
      "midi": 70,
      "hit": false,
      "t": 4878.050000000001,
      "d": 780.4880000000003,
      "v": 80
    },
    {
      "midi": 68,
      "hit": false,
      "t": 5853.660000000002,
      "d": 780.4880000000003,
      "v": 80
    },
    {
      "midi": 70,
      "hit": false,
      "t": 6829.270000000002,
      "d": 780.4880000000003,
      "v": 80
    },
    {
      "midi": 68,
      "hit": false,
      "t": 7804.880000000001,
      "d": 7024.392,
      "v": 80
    },
    {
      "midi": 70,
      "hit": false,
      "t": 7804.880000000001,
      "d": 7024.392,
      "v": 80
    },
    {
      "midi": 67,
      "hit": false,
      "t": 9756.100000000002,
      "d": 780.4879999999994,
      "v": 80
    },
    {
      "midi": 65,
      "hit": false,
      "t": 10731.710000000001,
      "d": 780.4879999999994,
      "v": 80
    },
    {
      "midi": 67,
      "hit": false,
      "t": 11707.32,
      "d": 780.4879999999994,
      "v": 80
    },
    {
      "midi": 68,
      "hit": false,
      "t": 12682.929999999998,
      "d": 780.4879999999994,
      "v": 80
    },
    {
      "midi": 70,
      "hit": false,
      "t": 13658.539999999997,
      "d": 780.4879999999994,
      "v": 80
    },
    {
      "midi": 67,
      "hit": false,
      "t": 14634.149999999996,
      "d": 780.4879999999994,
      "v": 80
    },
    {
      "midi": 72,
      "hit": false,
      "t": 15609.759999999995,
      "d": 1560.9759999999987,
      "v": 80
    },
    {
      "midi": 72,
      "hit": false,
      "t": 15609.76,
      "d": 7414.636,
      "v": 80
    },
    {
      "midi": 68,
      "hit": false,
      "t": 15609.76,
      "d": 15317.077,
      "v": 80
    },
    {
      "midi": 70,
      "hit": false,
      "t": 17560.979999999992,
      "d": 780.4880000000012,
      "v": 80
    },
    {
      "midi": 73,
      "hit": false,
      "t": 18536.589999999993,
      "d": 780.4880000000012,
      "v": 80
    },
    {
      "midi": 72,
      "hit": false,
      "t": 19512.199999999993,
      "d": 780.4880000000012,
      "v": 80
    },
    {
      "midi": 77,
      "hit": false,
      "t": 20487.809999999994,
      "d": 780.4880000000012,
      "v": 80
    },
    {
      "midi": 75,
      "hit": false,
      "t": 21463.419999999995,
      "d": 780.4880000000012,
      "v": 80
    },
    {
      "midi": 68,
      "hit": false,
      "t": 22439.029999999995,
      "d": 780.4880000000012,
      "v": 80
    },
    {
      "midi": 70,
      "hit": false,
      "t": 23414.64,
      "d": 7512.197,
      "v": 80
    },
    {
      "midi": 67,
      "hit": false,
      "t": 25365.859999999997,
      "d": 780.4880000000012,
      "v": 80
    },
    {
      "midi": 65,
      "hit": false,
      "t": 26341.469999999998,
      "d": 780.4880000000012,
      "v": 80
    },
    {
      "midi": 67,
      "hit": false,
      "t": 27317.079999999998,
      "d": 3121.952000000001,
      "v": 80
    },
    {
      "midi": 68,
      "hit": false,
      "t": 31219.52,
      "d": 1560.9759999999987,
      "v": 80
    },
    {
      "midi": 64,
      "hit": false,
      "t": 31219.52,
      "d": 7414.636000000002,
      "v": 80
    },
    {
      "midi": 68,
      "hit": false,
      "t": 31219.52,
      "d": 7414.636000000002,
      "v": 80
    },
    {
      "midi": 73,
      "hit": false,
      "t": 33170.74,
      "d": 1560.9760000000024,
      "v": 80
    },
    {
      "midi": 68,
      "hit": false,
      "t": 35121.96,
      "d": 780.4879999999976,
      "v": 80
    },
    {
      "midi": 73,
      "hit": false,
      "t": 36097.57,
      "d": 780.4879999999976,
      "v": 80
    },
    {
      "midi": 78,
      "hit": false,
      "t": 37073.18,
      "d": 780.4879999999976,
      "v": 80
    },
    {
      "midi": 80,
      "hit": false,
      "t": 38048.79,
      "d": 780.4879999999976,
      "v": 80
    },
    {
      "midi": 80,
      "hit": false,
      "t": 39024.4,
      "d": 1560.9760000000024,
      "v": 80
    },
    {
      "midi": 80,
      "hit": false,
      "t": 39024.4,
      "d": 3512.1960000000036,
      "v": 80
    },
    {
      "midi": 68,
      "hit": false,
      "t": 39024.4,
      "d": 3512.1960000000036,
      "v": 80
    },
    {
      "midi": 72,
      "hit": false,
      "t": 39024.4,
      "d": 3512.1960000000036,
      "v": 80
    },
    {
      "midi": 79,
      "hit": false,
      "t": 40975.62,
      "d": 780.4879999999976,
      "v": 80
    },
    {
      "midi": 77,
      "hit": false,
      "t": 41951.23,
      "d": 780.4879999999976,
      "v": 80
    },
    {
      "midi": 75,
      "hit": false,
      "t": 42926.840000000004,
      "d": 780.4879999999976,
      "v": 80
    },
    {
      "midi": 80,
      "hit": false,
      "t": 42926.840000000004,
      "d": 4682.928,
      "v": 80
    },
    {
      "midi": 68,
      "hit": false,
      "t": 42926.840000000004,
      "d": 4682.928,
      "v": 80
    },
    {
      "midi": 70,
      "hit": false,
      "t": 42926.840000000004,
      "d": 4682.928,
      "v": 80
    },
    {
      "midi": 73,
      "hit": false,
      "t": 43902.450000000004,
      "d": 780.4879999999976,
      "v": 80
    },
    {
      "midi": 70,
      "hit": false,
      "t": 44878.060000000005,
      "d": 1365.8539999999994,
      "v": 80
    },
    {
      "midi": 84,
      "hit": false,
      "t": 48780.50000000001,
      "d": 195.12200000000303,
      "v": 80
    },
    {
      "midi": 75,
      "hit": false,
      "t": 49024.40250000001,
      "d": 195.12200000000303,
      "v": 80
    },
    {
      "midi": 84,
      "hit": false,
      "t": 49268.305000000015,
      "d": 195.12200000000303,
      "v": 80
    },
    {
      "midi": 85,
      "hit": false,
      "t": 49512.20750000002,
      "d": 195.12200000000303,
      "v": 80
    },
    {
      "midi": 84,
      "hit": false,
      "t": 49756.11000000002,
      "d": 195.12200000000303,
      "v": 80
    },
    {
      "midi": 75,
      "hit": false,
      "t": 50000.012500000026,
      "d": 195.12200000000303,
      "v": 80
    },
    {
      "midi": 73,
      "hit": false,
      "t": 50243.91500000003,
      "d": 195.12200000000303,
      "v": 80
    },
    {
      "midi": 75,
      "hit": false,
      "t": 50487.817500000034,
      "d": 195.12200000000303,
      "v": 80
    },
    {
      "midi": 73,
      "hit": false,
      "t": 50731.72000000004,
      "d": 390.2439999999988,
      "v": 80
    },
    {
      "midi": 75,
      "hit": false,
      "t": 51219.52500000004,
      "d": 390.2439999999988,
      "v": 80
    },
    {
      "midi": 85,
      "hit": false,
      "t": 51707.33000000004,
      "d": 390.2439999999988,
      "v": 80
    },
    {
      "midi": 84,
      "hit": false,
      "t": 52195.13500000004,
      "d": 390.2439999999988,
      "v": 80
    },
    {
      "midi": 82,
      "hit": false,
      "t": 52682.94000000004,
      "d": 780.4879999999976,
      "v": 80
    },
    {
      "midi": 79,
      "hit": false,
      "t": 53658.55000000004,
      "d": 780.4879999999976,
      "v": 80
    },
    {
      "midi": 80,
      "hit": false,
      "t": 54634.16000000004,
      "d": 780.4879999999976,
      "v": 80
    },
    {
      "midi": 77,
      "hit": false,
      "t": 55609.77000000004,
      "d": 780.4879999999976,
      "v": 80
    },
    {
      "midi": 84,
      "hit": false,
      "t": 56585.38000000004,
      "d": 195.12200000000303,
      "v": 80
    },
    {
      "midi": 75,
      "hit": false,
      "t": 56829.282500000045,
      "d": 195.12200000000303,
      "v": 80
    },
    {
      "midi": 84,
      "hit": false,
      "t": 57073.18500000005,
      "d": 195.12200000000303,
      "v": 80
    },
    {
      "midi": 85,
      "hit": false,
      "t": 57317.08750000005,
      "d": 195.12200000000303,
      "v": 80
    },
    {
      "midi": 84,
      "hit": false,
      "t": 57560.990000000056,
      "d": 195.12200000000303,
      "v": 80
    },
    {
      "midi": 75,
      "hit": false,
      "t": 57804.89250000006,
      "d": 195.12200000000303,
      "v": 80
    },
    {
      "midi": 73,
      "hit": false,
      "t": 58048.795000000064,
      "d": 195.12200000000303,
      "v": 80
    },
    {
      "midi": 75,
      "hit": false,
      "t": 58292.69750000007,
      "d": 195.12200000000303,
      "v": 80
    },
    {
      "midi": 73,
      "hit": false,
      "t": 58536.60000000007,
      "d": 390.2439999999988,
      "v": 80
    },
    {
      "midi": 75,
      "hit": false,
      "t": 59024.40500000007,
      "d": 390.2439999999988,
      "v": 80
    },
    {
      "midi": 85,
      "hit": false,
      "t": 59512.21000000007,
      "d": 390.2439999999988,
      "v": 80
    },
    {
      "midi": 84,
      "hit": false,
      "t": 60000.01500000007,
      "d": 390.2439999999988,
      "v": 80
    },
    {
      "midi": 82,
      "hit": false,
      "t": 60487.82000000007,
      "d": 780.4879999999976,
      "v": 80
    },
    {
      "midi": 79,
      "hit": false,
      "t": 61463.43000000007,
      "d": 780.4879999999976,
      "v": 80
    },
    {
      "midi": 80,
      "hit": false,
      "t": 62439.04000000007,
      "d": 780.4879999999976,
      "v": 80
    },
    {
      "midi": 80,
      "hit": false,
      "t": 63414.650000000074,
      "d": 195.12200000000303,
      "v": 80
    },
    {
      "midi": 79,
      "hit": false,
      "t": 63658.55250000008,
      "d": 195.12200000000303,
      "v": 80
    },
    {
      "midi": 77,
      "hit": false,
      "t": 63902.45500000008,
      "d": 195.12200000000303,
      "v": 80
    },
    {
      "midi": 75,
      "hit": false,
      "t": 64146.357500000086,
      "d": 195.12200000000303,
      "v": 80
    },
    {
      "midi": 75,
      "hit": false,
      "t": 64390.26000000001,
      "d": 390.2439999999988,
      "v": 80
    },
    {
      "midi": 84,
      "hit": false,
      "t": 64390.26000000009,
      "d": 195.12200000000303,
      "v": 80
    },
    {
      "midi": 75,
      "hit": false,
      "t": 64634.16250000009,
      "d": 195.12200000000303,
      "v": 80
    },
    {
      "midi": 72,
      "hit": false,
      "t": 64878.06500000001,
      "d": 195.12200000000303,
      "v": 80
    },
    {
      "midi": 84,
      "hit": false,
      "t": 64878.0650000001,
      "d": 195.12200000000303,
      "v": 80
    },
    {
      "midi": 73,
      "hit": false,
      "t": 65121.96750000001,
      "d": 195.12200000000303,
      "v": 80
    },
    {
      "midi": 85,
      "hit": false,
      "t": 65121.9675000001,
      "d": 195.12200000000303,
      "v": 80
    },
    {
      "midi": 75,
      "hit": false,
      "t": 65365.87000000002,
      "d": 390.2439999999988,
      "v": 80
    },
    {
      "midi": 84,
      "hit": false,
      "t": 65365.870000000104,
      "d": 195.12199999999575,
      "v": 80
    },
    {
      "midi": 75,
      "hit": false,
      "t": 65609.7725000001,
      "d": 195.12200000000303,
      "v": 80
    },
    {
      "midi": 72,
      "hit": false,
      "t": 65853.67500000002,
      "d": 390.24400000000605,
      "v": 80
    },
    {
      "midi": 73,
      "hit": false,
      "t": 65853.67500000009,
      "d": 195.12200000000303,
      "v": 80
    },
    {
      "midi": 75,
      "hit": false,
      "t": 66097.57750000009,
      "d": 195.12200000000303,
      "v": 80
    },
    {
      "midi": 70,
      "hit": false,
      "t": 66341.48000000003,
      "d": 780.4879999999976,
      "v": 80
    },
    {
      "midi": 73,
      "hit": false,
      "t": 66341.48000000008,
      "d": 390.24400000000605,
      "v": 80
    },
    {
      "midi": 75,
      "hit": false,
      "t": 66829.28500000009,
      "d": 390.24400000000605,
      "v": 80
    },
    {
      "midi": 77,
      "hit": false,
      "t": 67317.09000000003,
      "d": 780.4879999999976,
      "v": 80
    },
    {
      "midi": 85,
      "hit": false,
      "t": 67317.0900000001,
      "d": 390.24400000000605,
      "v": 80
    },
    {
      "midi": 84,
      "hit": false,
      "t": 67804.8950000001,
      "d": 390.24400000000605,
      "v": 80
    },
    {
      "midi": 75,
      "hit": false,
      "t": 68292.70000000003,
      "d": 780.4879999999976,
      "v": 80
    },
    {
      "midi": 82,
      "hit": false,
      "t": 68292.70000000011,
      "d": 780.4879999999976,
      "v": 80
    },
    {
      "midi": 70,
      "hit": false,
      "t": 69268.31000000003,
      "d": 780.4879999999976,
      "v": 80
    },
    {
      "midi": 79,
      "hit": false,
      "t": 69268.31000000011,
      "d": 780.4879999999976,
      "v": 80
    },
    {
      "midi": 72,
      "hit": false,
      "t": 70243.92000000003,
      "d": 195.12200000000303,
      "v": 80
    },
    {
      "midi": 80,
      "hit": false,
      "t": 70243.92000000011,
      "d": 780.4879999999976,
      "v": 80
    },
    {
      "midi": 73,
      "hit": false,
      "t": 70487.82250000002,
      "d": 195.12200000000303,
      "v": 80
    },
    {
      "midi": 72,
      "hit": false,
      "t": 70731.72500000002,
      "d": 195.12200000000303,
      "v": 80
    },
    {
      "midi": 70,
      "hit": false,
      "t": 70975.62750000002,
      "d": 195.12200000000303,
      "v": 80
    },
    {
      "midi": 68,
      "hit": false,
      "t": 71219.53000000001,
      "d": 195.12200000000303,
      "v": 80
    },
    {
      "midi": 77,
      "hit": false,
      "t": 71219.53000000012,
      "d": 780.4879999999976,
      "v": 80
    },
    {
      "midi": 67,
      "hit": false,
      "t": 71463.43250000001,
      "d": 195.12200000000303,
      "v": 80
    },
    {
      "midi": 65,
      "hit": false,
      "t": 71707.335,
      "d": 195.12200000000303,
      "v": 80
    },
    {
      "midi": 67,
      "hit": false,
      "t": 71951.2375,
      "d": 195.12200000000303,
      "v": 80
    },
    {
      "midi": 68,
      "hit": false,
      "t": 72195.14,
      "d": 390.24400000000605,
      "v": 80
    },
    {
      "midi": 84,
      "hit": false,
      "t": 72195.14000000012,
      "d": 195.12200000000303,
      "v": 80
    },
    {
      "midi": 75,
      "hit": false,
      "t": 72439.04250000011,
      "d": 195.12200000000303,
      "v": 80
    },
    {
      "midi": 72,
      "hit": false,
      "t": 72682.945,
      "d": 195.12200000000303,
      "v": 80
    },
    {
      "midi": 84,
      "hit": false,
      "t": 72682.94500000011,
      "d": 195.12200000000303,
      "v": 80
    },
    {
      "midi": 73,
      "hit": false,
      "t": 72926.8475,
      "d": 195.12200000000303,
      "v": 80
    },
    {
      "midi": 85,
      "hit": false,
      "t": 72926.8475000001,
      "d": 195.12200000000303,
      "v": 80
    },
    {
      "midi": 75,
      "hit": false,
      "t": 73170.75,
      "d": 390.24400000000605,
      "v": 80
    },
    {
      "midi": 84,
      "hit": false,
      "t": 73170.7500000001,
      "d": 195.12200000000303,
      "v": 80
    },
    {
      "midi": 75,
      "hit": false,
      "t": 73414.6525000001,
      "d": 195.12200000000303,
      "v": 80
    },
    {
      "midi": 72,
      "hit": false,
      "t": 73658.55500000001,
      "d": 390.24400000000605,
      "v": 80
    },
    {
      "midi": 73,
      "hit": false,
      "t": 73658.5550000001,
      "d": 195.12200000000303,
      "v": 80
    },
    {
      "midi": 75,
      "hit": false,
      "t": 73902.45750000009,
      "d": 195.12200000000303,
      "v": 80
    },
    {
      "midi": 70,
      "hit": false,
      "t": 74146.36000000002,
      "d": 780.4879999999976,
      "v": 80
    },
    {
      "midi": 73,
      "hit": false,
      "t": 74146.36000000009,
      "d": 390.24400000000605,
      "v": 80
    },
    {
      "midi": 75,
      "hit": false,
      "t": 74634.1650000001,
      "d": 390.24400000000605,
      "v": 80
    },
    {
      "midi": 77,
      "hit": false,
      "t": 75121.97000000002,
      "d": 780.4879999999976,
      "v": 80
    },
    {
      "midi": 85,
      "hit": false,
      "t": 75121.9700000001,
      "d": 390.24400000000605,
      "v": 80
    },
    {
      "midi": 84,
      "hit": false,
      "t": 75609.77500000011,
      "d": 390.24400000000605,
      "v": 80
    },
    {
      "midi": 75,
      "hit": false,
      "t": 76097.58000000002,
      "d": 780.4879999999976,
      "v": 80
    },
    {
      "midi": 82,
      "hit": false,
      "t": 76097.58000000012,
      "d": 780.4879999999976,
      "v": 80
    },
    {
      "midi": 70,
      "hit": false,
      "t": 77073.19000000002,
      "d": 780.4879999999976,
      "v": 80
    },
    {
      "midi": 79,
      "hit": false,
      "t": 77073.19000000012,
      "d": 780.4879999999976,
      "v": 80
    },
    {
      "midi": 68,
      "hit": false,
      "t": 78048.80000000002,
      "d": 390.24400000000605,
      "v": 80
    },
    {
      "midi": 80,
      "hit": false,
      "t": 78048.80000000012,
      "d": 780.4879999999976,
      "v": 80
    },
    {
      "midi": 73,
      "hit": false,
      "t": 78536.60500000003,
      "d": 195.12200000000303,
      "v": 80
    },
    {
      "midi": 75,
      "hit": false,
      "t": 78780.50750000002,
      "d": 195.12200000000303,
      "v": 80
    },
    {
      "midi": 72,
      "hit": false,
      "t": 79024.41000000002,
      "d": 195.12200000000303,
      "v": 80
    },
    {
      "midi": 80,
      "hit": false,
      "t": 79024.41000000012,
      "d": 195.12200000000303,
      "v": 80
    },
    {
      "midi": 70,
      "hit": false,
      "t": 79268.31250000001,
      "d": 195.12200000000303,
      "v": 80
    },
    {
      "midi": 79,
      "hit": false,
      "t": 79268.31250000012,
      "d": 195.12200000000303,
      "v": 80
    },
    {
      "midi": 65,
      "hit": false,
      "t": 79512.21500000001,
      "d": 195.12200000000303,
      "v": 80
    },
    {
      "midi": 77,
      "hit": false,
      "t": 79512.21500000011,
      "d": 195.12200000000303,
      "v": 80
    },
    {
      "midi": 67,
      "hit": false,
      "t": 79756.11750000001,
      "d": 195.12200000000303,
      "v": 80
    },
    {
      "midi": 75,
      "hit": false,
      "t": 79756.11750000011,
      "d": 195.12200000000303,
      "v": 80
    },
    {
      "midi": 75,
      "hit": false,
      "t": 80000.02,
      "d": 390.24400000000605,
      "v": 80
    },
    {
      "midi": 63,
      "hit": false,
      "t": 80000.02,
      "d": 780.4879999999976,
      "v": 80
    },
    {
      "midi": 84,
      "hit": false,
      "t": 80000.0200000001,
      "d": 195.12200000000303,
      "v": 80
    },
    {
      "midi": 75,
      "hit": false,
      "t": 80243.9225000001,
      "d": 195.12200000000303,
      "v": 80
    },
    {
      "midi": 72,
      "hit": false,
      "t": 80487.82500000001,
      "d": 195.12200000000303,
      "v": 80
    },
    {
      "midi": 84,
      "hit": false,
      "t": 80487.8250000001,
      "d": 195.12200000000303,
      "v": 80
    },
    {
      "midi": 73,
      "hit": false,
      "t": 80731.72750000001,
      "d": 195.12200000000303,
      "v": 80
    },
    {
      "midi": 85,
      "hit": false,
      "t": 80731.7275000001,
      "d": 195.12200000000303,
      "v": 80
    },
    {
      "midi": 75,
      "hit": false,
      "t": 80975.63,
      "d": 390.24400000000605,
      "v": 80
    },
    {
      "midi": 75,
      "hit": false,
      "t": 80975.63,
      "d": 780.4879999999976,
      "v": 80
    },
    {
      "midi": 84,
      "hit": false,
      "t": 80975.63000000009,
      "d": 195.12200000000303,
      "v": 80
    },
    {
      "midi": 75,
      "hit": false,
      "t": 81219.53250000009,
      "d": 195.12200000000303,
      "v": 80
    },
    {
      "midi": 72,
      "hit": false,
      "t": 81463.43500000001,
      "d": 390.24400000000605,
      "v": 80
    },
    {
      "midi": 73,
      "hit": false,
      "t": 81463.43500000008,
      "d": 195.12200000000303,
      "v": 80
    },
    {
      "midi": 75,
      "hit": false,
      "t": 81707.33750000008,
      "d": 195.12200000000303,
      "v": 80
    },
    {
      "midi": 70,
      "hit": false,
      "t": 81951.24,
      "d": 780.4879999999976,
      "v": 80
    },
    {
      "midi": 75,
      "hit": false,
      "t": 81951.24,
      "d": 780.4879999999976,
      "v": 80
    },
    {
      "midi": 70,
      "hit": false,
      "t": 81951.24000000002,
      "d": 780.4879999999976,
      "v": 80
    },
    {
      "midi": 73,
      "hit": false,
      "t": 81951.24000000008,
      "d": 390.24400000000605,
      "v": 80
    },
    {
      "midi": 75,
      "hit": false,
      "t": 82439.04500000009,
      "d": 390.24400000000605,
      "v": 80
    },
    {
      "midi": 77,
      "hit": false,
      "t": 82926.85,
      "d": 195.12200000000303,
      "v": 80
    },
    {
      "midi": 73,
      "hit": false,
      "t": 82926.85,
      "d": 195.12200000000303,
      "v": 80
    },
    {
      "midi": 77,
      "hit": false,
      "t": 82926.85000000002,
      "d": 780.4879999999976,
      "v": 80
    },
    {
      "midi": 85,
      "hit": false,
      "t": 82926.8500000001,
      "d": 390.24400000000605,
      "v": 80
    },
    {
      "midi": 75,
      "hit": false,
      "t": 83170.7525,
      "d": 195.12200000000303,
      "v": 80
    },
    {
      "midi": 72,
      "hit": false,
      "t": 83170.7525,
      "d": 195.12200000000303,
      "v": 80
    },
    {
      "midi": 73,
      "hit": false,
      "t": 83414.655,
      "d": 195.12200000000303,
      "v": 80
    },
    {
      "midi": 70,
      "hit": false,
      "t": 83414.655,
      "d": 195.12200000000303,
      "v": 80
    },
    {
      "midi": 84,
      "hit": false,
      "t": 83414.6550000001,
      "d": 390.24400000000605,
      "v": 80
    },
    {
      "midi": 72,
      "hit": false,
      "t": 83658.5575,
      "d": 195.12200000000303,
      "v": 80
    },
    {
      "midi": 68,
      "hit": false,
      "t": 83658.5575,
      "d": 195.12200000000303,
      "v": 80
    },
    {
      "midi": 70,
      "hit": false,
      "t": 83902.45999999999,
      "d": 780.4879999999976,
      "v": 80
    },
    {
      "midi": 75,
      "hit": false,
      "t": 83902.46000000002,
      "d": 780.4879999999976,
      "v": 80
    },
    {
      "midi": 82,
      "hit": false,
      "t": 83902.46000000011,
      "d": 780.4879999999976,
      "v": 80
    },
    {
      "midi": 75,
      "hit": false,
      "t": 84878.06999999999,
      "d": 390.24400000000605,
      "v": 80
    },
    {
      "midi": 70,
      "hit": false,
      "t": 84878.07000000002,
      "d": 780.4879999999976,
      "v": 80
    },
    {
      "midi": 79,
      "hit": false,
      "t": 84878.07000000011,
      "d": 780.4879999999976,
      "v": 80
    },
    {
      "midi": 70,
      "hit": false,
      "t": 85365.875,
      "d": 390.24400000000605,
      "v": 80
    },
    {
      "midi": 68,
      "hit": false,
      "t": 85853.68000000001,
      "d": 390.24400000000605,
      "v": 80
    },
    {
      "midi": 72,
      "hit": false,
      "t": 85853.68000000002,
      "d": 195.12200000000303,
      "v": 80
    },
    {
      "midi": 80,
      "hit": false,
      "t": 85853.68000000011,
      "d": 780.4879999999976,
      "v": 80
    },
    {
      "midi": 73,
      "hit": false,
      "t": 86097.58250000002,
      "d": 195.12200000000303,
      "v": 80
    },
    {
      "midi": 72,
      "hit": false,
      "t": 86341.48500000002,
      "d": 195.12200000000303,
      "v": 80
    },
    {
      "midi": 68,
      "hit": false,
      "t": 86341.48500000002,
      "d": 195.12200000000303,
      "v": 80
    },
    {
      "midi": 70,
      "hit": false,
      "t": 86585.38750000001,
      "d": 195.12200000000303,
      "v": 80
    },
    {
      "midi": 67,
      "hit": false,
      "t": 86585.38750000001,
      "d": 195.12200000000303,
      "v": 80
    },
    {
      "midi": 68,
      "hit": false,
      "t": 86829.29000000001,
      "d": 195.12200000000303,
      "v": 80
    },
    {
      "midi": 68,
      "hit": false,
      "t": 86829.29000000001,
      "d": 195.12200000000303,
      "v": 80
    },
    {
      "midi": 77,
      "hit": false,
      "t": 86829.29000000011,
      "d": 780.4879999999976,
      "v": 80
    },
    {
      "midi": 67,
      "hit": false,
      "t": 87073.1925,
      "d": 195.12200000000303,
      "v": 80
    },
    {
      "midi": 67,
      "hit": false,
      "t": 87073.1925,
      "d": 195.12200000000303,
      "v": 80
    },
    {
      "midi": 65,
      "hit": false,
      "t": 87317.095,
      "d": 195.12200000000303,
      "v": 80
    },
    {
      "midi": 65,
      "hit": false,
      "t": 87317.095,
      "d": 195.12200000000303,
      "v": 80
    },
    {
      "midi": 67,
      "hit": false,
      "t": 87560.9975,
      "d": 195.12200000000303,
      "v": 80
    },
    {
      "midi": 63,
      "hit": false,
      "t": 87560.9975,
      "d": 195.12200000000303,
      "v": 80
    },
    {
      "midi": 68,
      "hit": false,
      "t": 87804.9,
      "d": 390.24400000000605,
      "v": 80
    },
    {
      "midi": 63,
      "hit": false,
      "t": 87804.9,
      "d": 780.4879999999976,
      "v": 80
    },
    {
      "midi": 84,
      "hit": false,
      "t": 87804.90000000011,
      "d": 195.12200000000303,
      "v": 80
    },
    {
      "midi": 75,
      "hit": false,
      "t": 88048.8025000001,
      "d": 195.12200000000303,
      "v": 80
    },
    {
      "midi": 72,
      "hit": false,
      "t": 88292.705,
      "d": 195.12200000000303,
      "v": 80
    },
    {
      "midi": 84,
      "hit": false,
      "t": 88292.7050000001,
      "d": 195.12200000000303,
      "v": 80
    },
    {
      "midi": 73,
      "hit": false,
      "t": 88536.6075,
      "d": 195.12200000000303,
      "v": 80
    },
    {
      "midi": 85,
      "hit": false,
      "t": 88536.6075000001,
      "d": 195.12200000000303,
      "v": 80
    },
    {
      "midi": 75,
      "hit": false,
      "t": 88780.51,
      "d": 390.24400000000605,
      "v": 80
    },
    {
      "midi": 75,
      "hit": false,
      "t": 88780.51,
      "d": 780.4879999999976,
      "v": 80
    },
    {
      "midi": 84,
      "hit": false,
      "t": 88780.5100000001,
      "d": 195.12200000000303,
      "v": 80
    },
    {
      "midi": 75,
      "hit": false,
      "t": 89024.4125000001,
      "d": 195.12200000000303,
      "v": 80
    },
    {
      "midi": 72,
      "hit": false,
      "t": 89268.315,
      "d": 390.24400000000605,
      "v": 80
    },
    {
      "midi": 73,
      "hit": false,
      "t": 89268.31500000009,
      "d": 195.12200000000303,
      "v": 80
    },
    {
      "midi": 75,
      "hit": false,
      "t": 89512.21750000009,
      "d": 195.12200000000303,
      "v": 80
    },
    {
      "midi": 75,
      "hit": false,
      "t": 89756.12,
      "d": 780.4879999999976,
      "v": 80
    },
    {
      "midi": 70,
      "hit": false,
      "t": 89756.12,
      "d": 780.4879999999976,
      "v": 80
    },
    {
      "midi": 70,
      "hit": false,
      "t": 89756.12000000001,
      "d": 780.4879999999976,
      "v": 80
    },
    {
      "midi": 73,
      "hit": false,
      "t": 89756.12000000008,
      "d": 390.24400000000605,
      "v": 80
    },
    {
      "midi": 75,
      "hit": false,
      "t": 90243.92500000009,
      "d": 390.24400000000605,
      "v": 80
    },
    {
      "midi": 73,
      "hit": false,
      "t": 90731.73,
      "d": 195.12200000000303,
      "v": 80
    },
    {
      "midi": 77,
      "hit": false,
      "t": 90731.73,
      "d": 195.12200000000303,
      "v": 80
    },
    {
      "midi": 77,
      "hit": false,
      "t": 90731.73000000001,
      "d": 780.4879999999976,
      "v": 80
    },
    {
      "midi": 85,
      "hit": false,
      "t": 90731.7300000001,
      "d": 390.24400000000605,
      "v": 80
    },
    {
      "midi": 72,
      "hit": false,
      "t": 90975.63249999999,
      "d": 195.12200000000303,
      "v": 80
    },
    {
      "midi": 75,
      "hit": false,
      "t": 90975.63249999999,
      "d": 195.12200000000303,
      "v": 80
    },
    {
      "midi": 70,
      "hit": false,
      "t": 91219.53499999999,
      "d": 195.12200000000303,
      "v": 80
    },
    {
      "midi": 73,
      "hit": false,
      "t": 91219.53499999999,
      "d": 195.12200000000303,
      "v": 80
    },
    {
      "midi": 84,
      "hit": false,
      "t": 91219.5350000001,
      "d": 390.24400000000605,
      "v": 80
    },
    {
      "midi": 68,
      "hit": false,
      "t": 91463.43749999999,
      "d": 195.12200000000303,
      "v": 80
    },
    {
      "midi": 72,
      "hit": false,
      "t": 91463.43749999999,
      "d": 195.12200000000303,
      "v": 80
    },
    {
      "midi": 70,
      "hit": false,
      "t": 91707.33999999998,
      "d": 780.4879999999976,
      "v": 80
    },
    {
      "midi": 75,
      "hit": false,
      "t": 91707.34000000001,
      "d": 780.4879999999976,
      "v": 80
    },
    {
      "midi": 82,
      "hit": false,
      "t": 91707.34000000011,
      "d": 780.4879999999976,
      "v": 80
    },
    {
      "midi": 75,
      "hit": false,
      "t": 92682.94999999998,
      "d": 390.24400000000605,
      "v": 80
    },
    {
      "midi": 70,
      "hit": false,
      "t": 92682.95000000001,
      "d": 780.4879999999976,
      "v": 80
    },
    {
      "midi": 79,
      "hit": false,
      "t": 92682.95000000011,
      "d": 780.4879999999976,
      "v": 80
    },
    {
      "midi": 70,
      "hit": false,
      "t": 93170.75499999999,
      "d": 390.24400000000605,
      "v": 80
    },
    {
      "midi": 68,
      "hit": false,
      "t": 93658.56,
      "d": 390.24400000000605,
      "v": 80
    },
    {
      "midi": 68,
      "hit": false,
      "t": 93658.56000000001,
      "d": 390.24400000000605,
      "v": 80
    },
    {
      "midi": 65,
      "hit": false,
      "t": 93658.56000000001,
      "d": 390.24400000000605,
      "v": 80
    },
    {
      "midi": 80,
      "hit": false,
      "t": 93658.56000000011,
      "d": 780.4879999999976,
      "v": 80
    },
    {
      "midi": 68,
      "hit": false,
      "t": 94146.365,
      "d": 195.12200000000303,
      "v": 80
    },
    {
      "midi": 73,
      "hit": false,
      "t": 94146.36500000002,
      "d": 195.12200000000303,
      "v": 80
    },
    {
      "midi": 67,
      "hit": false,
      "t": 94390.2675,
      "d": 195.12200000000303,
      "v": 80
    },
    {
      "midi": 75,
      "hit": false,
      "t": 94390.26750000002,
      "d": 195.12200000000303,
      "v": 80
    },
    {
      "midi": 68,
      "hit": false,
      "t": 94634.17,
      "d": 195.12200000000303,
      "v": 80
    },
    {
      "midi": 72,
      "hit": false,
      "t": 94634.17000000001,
      "d": 195.12200000000303,
      "v": 80
    },
    {
      "midi": 80,
      "hit": false,
      "t": 94634.17000000011,
      "d": 195.12200000000303,
      "v": 80
    },
    {
      "midi": 67,
      "hit": false,
      "t": 94878.0725,
      "d": 195.12200000000303,
      "v": 80
    },
    {
      "midi": 70,
      "hit": false,
      "t": 94878.07250000001,
      "d": 195.12200000000303,
      "v": 80
    },
    {
      "midi": 79,
      "hit": false,
      "t": 94878.07250000011,
      "d": 195.12200000000303,
      "v": 80
    },
    {
      "midi": 65,
      "hit": false,
      "t": 95121.97499999999,
      "d": 195.12200000000303,
      "v": 80
    },
    {
      "midi": 65,
      "hit": false,
      "t": 95121.975,
      "d": 195.12200000000303,
      "v": 80
    },
    {
      "midi": 77,
      "hit": false,
      "t": 95121.97500000011,
      "d": 195.12200000000303,
      "v": 80
    },
    {
      "midi": 63,
      "hit": false,
      "t": 95365.87749999999,
      "d": 195.12200000000303,
      "v": 80
    },
    {
      "midi": 67,
      "hit": false,
      "t": 95365.8775,
      "d": 195.12200000000303,
      "v": 80
    },
    {
      "midi": 75,
      "hit": false,
      "t": 95365.8775000001,
      "d": 195.12200000000303,
      "v": 80
    },
    {
      "midi": 63,
      "hit": false,
      "t": 95609.77999999998,
      "d": 780.4879999999976,
      "v": 80
    },
    {
      "midi": 75,
      "hit": false,
      "t": 95609.78,
      "d": 390.24400000000605,
      "v": 80
    },
    {
      "midi": 84,
      "hit": false,
      "t": 95609.7800000001,
      "d": 195.12200000000303,
      "v": 80
    },
    {
      "midi": 75,
      "hit": false,
      "t": 95853.6825000001,
      "d": 195.12200000000303,
      "v": 80
    },
    {
      "midi": 72,
      "hit": false,
      "t": 96097.585,
      "d": 195.12200000000303,
      "v": 80
    },
    {
      "midi": 84,
      "hit": false,
      "t": 96097.5850000001,
      "d": 195.12200000000303,
      "v": 80
    },
    {
      "midi": 73,
      "hit": false,
      "t": 96341.4875,
      "d": 195.12200000000303,
      "v": 80
    },
    {
      "midi": 85,
      "hit": false,
      "t": 96341.48750000009,
      "d": 195.12200000000303,
      "v": 80
    },
    {
      "midi": 75,
      "hit": false,
      "t": 96585.38999999998,
      "d": 780.4879999999976,
      "v": 80
    },
    {
      "midi": 75,
      "hit": false,
      "t": 96585.39,
      "d": 390.24400000000605,
      "v": 80
    },
    {
      "midi": 84,
      "hit": false,
      "t": 96585.39000000009,
      "d": 195.12200000000303,
      "v": 80
    },
    {
      "midi": 75,
      "hit": false,
      "t": 96829.29250000008,
      "d": 195.12200000000303,
      "v": 80
    },
    {
      "midi": 72,
      "hit": false,
      "t": 97073.195,
      "d": 390.24400000000605,
      "v": 80
    },
    {
      "midi": 73,
      "hit": false,
      "t": 97073.19500000008,
      "d": 195.12200000000303,
      "v": 80
    },
    {
      "midi": 75,
      "hit": false,
      "t": 97317.09750000008,
      "d": 195.12200000000303,
      "v": 80
    },
    {
      "midi": 75,
      "hit": false,
      "t": 97560.99999999999,
      "d": 780.4879999999976,
      "v": 80
    },
    {
      "midi": 70,
      "hit": false,
      "t": 97560.99999999999,
      "d": 780.4879999999976,
      "v": 80
    },
    {
      "midi": 70,
      "hit": false,
      "t": 97561.00000000001,
      "d": 780.4879999999976,
      "v": 80
    },
    {
      "midi": 73,
      "hit": false,
      "t": 97561.00000000007,
      "d": 390.24400000000605,
      "v": 80
    },
    {
      "midi": 75,
      "hit": false,
      "t": 98048.80500000008,
      "d": 390.24400000000605,
      "v": 80
    },
    {
      "midi": 73,
      "hit": false,
      "t": 98536.60999999999,
      "d": 195.12200000000303,
      "v": 80
    },
    {
      "midi": 77,
      "hit": false,
      "t": 98536.60999999999,
      "d": 195.12200000000303,
      "v": 80
    },
    {
      "midi": 77,
      "hit": false,
      "t": 98536.61000000002,
      "d": 780.4879999999976,
      "v": 80
    },
    {
      "midi": 85,
      "hit": false,
      "t": 98536.61000000009,
      "d": 390.24400000000605,
      "v": 80
    },
    {
      "midi": 72,
      "hit": false,
      "t": 98780.51249999998,
      "d": 195.12200000000303,
      "v": 80
    },
    {
      "midi": 75,
      "hit": false,
      "t": 98780.51249999998,
      "d": 195.12200000000303,
      "v": 80
    },
    {
      "midi": 70,
      "hit": false,
      "t": 99024.41499999998,
      "d": 195.12200000000303,
      "v": 80
    },
    {
      "midi": 73,
      "hit": false,
      "t": 99024.41499999998,
      "d": 195.12200000000303,
      "v": 80
    },
    {
      "midi": 84,
      "hit": false,
      "t": 99024.4150000001,
      "d": 390.24400000000605,
      "v": 80
    },
    {
      "midi": 68,
      "hit": false,
      "t": 99268.31749999998,
      "d": 195.12200000000303,
      "v": 80
    },
    {
      "midi": 72,
      "hit": false,
      "t": 99268.31749999998,
      "d": 195.12200000000303,
      "v": 80
    },
    {
      "midi": 70,
      "hit": false,
      "t": 99512.21999999997,
      "d": 780.4879999999976,
      "v": 80
    },
    {
      "midi": 75,
      "hit": false,
      "t": 99512.22000000002,
      "d": 780.4879999999976,
      "v": 80
    },
    {
      "midi": 82,
      "hit": false,
      "t": 99512.2200000001,
      "d": 780.4879999999976,
      "v": 80
    },
    {
      "midi": 75,
      "hit": false,
      "t": 100487.82999999997,
      "d": 390.24400000000605,
      "v": 80
    },
    {
      "midi": 70,
      "hit": false,
      "t": 100487.83000000002,
      "d": 780.4879999999976,
      "v": 80
    },
    {
      "midi": 79,
      "hit": false,
      "t": 100487.8300000001,
      "d": 780.4879999999976,
      "v": 80
    },
    {
      "midi": 70,
      "hit": false,
      "t": 100975.63499999998,
      "d": 390.24400000000605,
      "v": 80
    },
    {
      "midi": 68,
      "hit": false,
      "t": 101463.43999999999,
      "d": 390.24400000000605,
      "v": 80
    },
    {
      "midi": 72,
      "hit": false,
      "t": 101463.44000000002,
      "d": 195.12200000000303,
      "v": 80
    },
    {
      "midi": 80,
      "hit": false,
      "t": 101463.4400000001,
      "d": 780.4879999999976,
      "v": 80
    },
    {
      "midi": 73,
      "hit": false,
      "t": 101707.34250000001,
      "d": 195.12200000000303,
      "v": 80
    },
    {
      "midi": 68,
      "hit": false,
      "t": 101951.245,
      "d": 195.12200000000303,
      "v": 80
    },
    {
      "midi": 72,
      "hit": false,
      "t": 101951.24500000001,
      "d": 195.12200000000303,
      "v": 80
    },
    {
      "midi": 67,
      "hit": false,
      "t": 102195.14749999999,
      "d": 195.12200000000303,
      "v": 80
    },
    {
      "midi": 70,
      "hit": false,
      "t": 102195.1475,
      "d": 195.12200000000303,
      "v": 80
    },
    {
      "midi": 68,
      "hit": false,
      "t": 102439.04999999999,
      "d": 195.12200000000303,
      "v": 80
    },
    {
      "midi": 68,
      "hit": false,
      "t": 102439.05,
      "d": 195.12200000000303,
      "v": 80
    },
    {
      "midi": 77,
      "hit": false,
      "t": 102439.0500000001,
      "d": 780.4879999999976,
      "v": 80
    },
    {
      "midi": 67,
      "hit": false,
      "t": 102682.95249999998,
      "d": 195.12200000000303,
      "v": 80
    },
    {
      "midi": 67,
      "hit": false,
      "t": 102682.9525,
      "d": 195.12200000000303,
      "v": 80
    },
    {
      "midi": 65,
      "hit": false,
      "t": 102926.85499999998,
      "d": 195.12200000000303,
      "v": 80
    },
    {
      "midi": 65,
      "hit": false,
      "t": 102926.855,
      "d": 195.12200000000303,
      "v": 80
    },
    {
      "midi": 63,
      "hit": false,
      "t": 103170.75749999998,
      "d": 195.12200000000303,
      "v": 80
    },
    {
      "midi": 67,
      "hit": false,
      "t": 103170.75749999999,
      "d": 195.12200000000303,
      "v": 80
    },
    {
      "midi": 63,
      "hit": false,
      "t": 103414.65999999997,
      "d": 780.4879999999976,
      "v": 80
    },
    {
      "midi": 68,
      "hit": false,
      "t": 103414.65999999999,
      "d": 390.24400000000605,
      "v": 80
    },
    {
      "midi": 84,
      "hit": false,
      "t": 103414.6600000001,
      "d": 195.12200000000303,
      "v": 80
    },
    {
      "midi": 75,
      "hit": false,
      "t": 103658.5625000001,
      "d": 195.12200000000303,
      "v": 80
    },
    {
      "midi": 72,
      "hit": false,
      "t": 103902.465,
      "d": 195.12200000000303,
      "v": 80
    },
    {
      "midi": 84,
      "hit": false,
      "t": 103902.4650000001,
      "d": 195.12200000000303,
      "v": 80
    },
    {
      "midi": 73,
      "hit": false,
      "t": 104146.3675,
      "d": 195.12200000000303,
      "v": 80
    },
    {
      "midi": 85,
      "hit": false,
      "t": 104146.3675000001,
      "d": 195.12200000000303,
      "v": 80
    },
    {
      "midi": 75,
      "hit": false,
      "t": 104390.26999999997,
      "d": 780.4879999999976,
      "v": 80
    },
    {
      "midi": 75,
      "hit": false,
      "t": 104390.26999999999,
      "d": 390.24400000000605,
      "v": 80
    },
    {
      "midi": 84,
      "hit": false,
      "t": 104390.27000000009,
      "d": 195.12200000000303,
      "v": 80
    },
    {
      "midi": 75,
      "hit": false,
      "t": 104634.17250000009,
      "d": 195.12200000000303,
      "v": 80
    },
    {
      "midi": 72,
      "hit": false,
      "t": 104878.075,
      "d": 390.24400000000605,
      "v": 80
    },
    {
      "midi": 73,
      "hit": false,
      "t": 104878.07500000008,
      "d": 195.12200000000303,
      "v": 80
    },
    {
      "midi": 75,
      "hit": false,
      "t": 105121.97750000008,
      "d": 195.12200000000303,
      "v": 80
    },
    {
      "midi": 75,
      "hit": false,
      "t": 105365.87999999998,
      "d": 780.4879999999976,
      "v": 80
    },
    {
      "midi": 70,
      "hit": false,
      "t": 105365.87999999998,
      "d": 780.4879999999976,
      "v": 80
    },
    {
      "midi": 70,
      "hit": false,
      "t": 105365.88,
      "d": 780.4879999999976,
      "v": 80
    },
    {
      "midi": 73,
      "hit": false,
      "t": 105365.88000000008,
      "d": 390.24400000000605,
      "v": 80
    },
    {
      "midi": 75,
      "hit": false,
      "t": 105853.68500000008,
      "d": 390.24400000000605,
      "v": 80
    },
    {
      "midi": 73,
      "hit": false,
      "t": 106341.48999999998,
      "d": 195.12200000000303,
      "v": 80
    },
    {
      "midi": 77,
      "hit": false,
      "t": 106341.48999999998,
      "d": 195.12200000000303,
      "v": 80
    },
    {
      "midi": 77,
      "hit": false,
      "t": 106341.49,
      "d": 780.4879999999976,
      "v": 80
    },
    {
      "midi": 85,
      "hit": false,
      "t": 106341.49000000009,
      "d": 390.24400000000605,
      "v": 80
    },
    {
      "midi": 72,
      "hit": false,
      "t": 106585.39249999997,
      "d": 195.12200000000303,
      "v": 80
    },
    {
      "midi": 75,
      "hit": false,
      "t": 106585.39249999997,
      "d": 195.12200000000303,
      "v": 80
    },
    {
      "midi": 70,
      "hit": false,
      "t": 106829.29499999997,
      "d": 195.12200000000303,
      "v": 80
    },
    {
      "midi": 73,
      "hit": false,
      "t": 106829.29499999997,
      "d": 195.12200000000303,
      "v": 80
    },
    {
      "midi": 84,
      "hit": false,
      "t": 106829.2950000001,
      "d": 390.24400000000605,
      "v": 80
    },
    {
      "midi": 68,
      "hit": false,
      "t": 107073.19749999997,
      "d": 195.12200000000303,
      "v": 80
    },
    {
      "midi": 72,
      "hit": false,
      "t": 107073.19749999997,
      "d": 195.12200000000303,
      "v": 80
    },
    {
      "midi": 70,
      "hit": false,
      "t": 107317.09999999996,
      "d": 780.4879999999976,
      "v": 80
    },
    {
      "midi": 75,
      "hit": false,
      "t": 107317.1,
      "d": 780.4879999999976,
      "v": 80
    },
    {
      "midi": 82,
      "hit": false,
      "t": 107317.10000000011,
      "d": 780.4879999999976,
      "v": 80
    },
    {
      "midi": 75,
      "hit": false,
      "t": 108292.70999999996,
      "d": 390.24400000000605,
      "v": 80
    },
    {
      "midi": 70,
      "hit": false,
      "t": 108292.71,
      "d": 780.4879999999976,
      "v": 80
    },
    {
      "midi": 79,
      "hit": false,
      "t": 108292.71000000011,
      "d": 780.4879999999976,
      "v": 80
    },
    {
      "midi": 70,
      "hit": false,
      "t": 108780.51499999997,
      "d": 390.24400000000605,
      "v": 80
    },
    {
      "midi": 68,
      "hit": false,
      "t": 109268.31999999998,
      "d": 390.24400000000605,
      "v": 80
    },
    {
      "midi": 72,
      "hit": false,
      "t": 109268.32,
      "d": 195.12200000000303,
      "v": 80
    },
    {
      "midi": 80,
      "hit": false,
      "t": 109268.32000000011,
      "d": 780.4879999999976,
      "v": 80
    },
    {
      "midi": 73,
      "hit": false,
      "t": 109512.2225,
      "d": 195.12200000000303,
      "v": 80
    },
    {
      "midi": 68,
      "hit": false,
      "t": 109756.12499999999,
      "d": 195.12200000000303,
      "v": 80
    },
    {
      "midi": 72,
      "hit": false,
      "t": 109756.125,
      "d": 195.12200000000303,
      "v": 80
    },
    {
      "midi": 67,
      "hit": false,
      "t": 110000.02749999998,
      "d": 195.12200000000303,
      "v": 80
    },
    {
      "midi": 70,
      "hit": false,
      "t": 110000.0275,
      "d": 195.12200000000303,
      "v": 80
    },
    {
      "midi": 68,
      "hit": false,
      "t": 110243.92999999998,
      "d": 195.12200000000303,
      "v": 80
    },
    {
      "midi": 68,
      "hit": false,
      "t": 110243.93,
      "d": 195.12200000000303,
      "v": 80
    },
    {
      "midi": 77,
      "hit": false,
      "t": 110243.93000000011,
      "d": 780.4879999999976,
      "v": 80
    },
    {
      "midi": 67,
      "hit": false,
      "t": 110487.83249999997,
      "d": 195.12200000000303,
      "v": 80
    },
    {
      "midi": 67,
      "hit": false,
      "t": 110487.83249999999,
      "d": 195.12200000000303,
      "v": 80
    },
    {
      "midi": 65,
      "hit": false,
      "t": 110731.73499999997,
      "d": 195.12200000000303,
      "v": 80
    },
    {
      "midi": 65,
      "hit": false,
      "t": 110731.73499999999,
      "d": 195.12200000000303,
      "v": 80
    },
    {
      "midi": 63,
      "hit": false,
      "t": 110975.63749999997,
      "d": 195.12200000000303,
      "v": 80
    },
    {
      "midi": 67,
      "hit": false,
      "t": 110975.63749999998,
      "d": 195.12200000000303,
      "v": 80
    },
    {
      "midi": 63,
      "hit": false,
      "t": 111219.53999999996,
      "d": 780.4879999999976,
      "v": 80
    },
    {
      "midi": 68,
      "hit": false,
      "t": 111219.53999999998,
      "d": 390.24400000000605,
      "v": 80
    },
    {
      "midi": 84,
      "hit": false,
      "t": 111219.54000000011,
      "d": 195.12200000000303,
      "v": 80
    },
    {
      "midi": 75,
      "hit": false,
      "t": 111463.4425000001,
      "d": 195.12200000000303,
      "v": 80
    },
    {
      "midi": 72,
      "hit": false,
      "t": 111707.34499999999,
      "d": 195.12200000000303,
      "v": 80
    },
    {
      "midi": 84,
      "hit": false,
      "t": 111707.3450000001,
      "d": 195.12200000000303,
      "v": 80
    },
    {
      "midi": 73,
      "hit": false,
      "t": 111951.24749999998,
      "d": 195.12200000000303,
      "v": 80
    },
    {
      "midi": 85,
      "hit": false,
      "t": 111951.2475000001,
      "d": 195.12200000000303,
      "v": 80
    },
    {
      "midi": 75,
      "hit": false,
      "t": 112195.14999999997,
      "d": 780.4879999999976,
      "v": 80
    },
    {
      "midi": 75,
      "hit": false,
      "t": 112195.14999999998,
      "d": 390.24400000000605,
      "v": 80
    },
    {
      "midi": 84,
      "hit": false,
      "t": 112195.1500000001,
      "d": 195.12200000000303,
      "v": 80
    },
    {
      "midi": 75,
      "hit": false,
      "t": 112439.05250000009,
      "d": 195.12200000000303,
      "v": 80
    },
    {
      "midi": 72,
      "hit": false,
      "t": 112682.95499999999,
      "d": 390.24400000000605,
      "v": 80
    },
    {
      "midi": 73,
      "hit": false,
      "t": 112682.95500000009,
      "d": 195.12200000000303,
      "v": 80
    },
    {
      "midi": 75,
      "hit": false,
      "t": 112926.85750000009,
      "d": 195.12200000000303,
      "v": 80
    },
    {
      "midi": 70,
      "hit": false,
      "t": 113170.75999999997,
      "d": 780.4879999999976,
      "v": 80
    },
    {
      "midi": 75,
      "hit": false,
      "t": 113170.75999999997,
      "d": 780.4879999999976,
      "v": 80
    },
    {
      "midi": 70,
      "hit": false,
      "t": 113170.76,
      "d": 780.4879999999976,
      "v": 80
    },
    {
      "midi": 73,
      "hit": false,
      "t": 113170.76000000008,
      "d": 390.24400000000605,
      "v": 80
    },
    {
      "midi": 75,
      "hit": false,
      "t": 113658.56500000009,
      "d": 390.24400000000605,
      "v": 80
    },
    {
      "midi": 77,
      "hit": false,
      "t": 114146.36999999997,
      "d": 195.12200000000303,
      "v": 80
    },
    {
      "midi": 73,
      "hit": false,
      "t": 114146.36999999997,
      "d": 195.12200000000303,
      "v": 80
    },
    {
      "midi": 77,
      "hit": false,
      "t": 114146.37,
      "d": 780.4879999999976,
      "v": 80
    },
    {
      "midi": 85,
      "hit": false,
      "t": 114146.3700000001,
      "d": 390.24400000000605,
      "v": 80
    },
    {
      "midi": 75,
      "hit": false,
      "t": 114390.27249999996,
      "d": 195.12200000000303,
      "v": 80
    },
    {
      "midi": 72,
      "hit": false,
      "t": 114390.27249999996,
      "d": 195.12200000000303,
      "v": 80
    },
    {
      "midi": 73,
      "hit": false,
      "t": 114634.17499999996,
      "d": 195.12200000000303,
      "v": 80
    },
    {
      "midi": 70,
      "hit": false,
      "t": 114634.17499999996,
      "d": 195.12200000000303,
      "v": 80
    },
    {
      "midi": 84,
      "hit": false,
      "t": 114634.1750000001,
      "d": 390.24400000000605,
      "v": 80
    },
    {
      "midi": 72,
      "hit": false,
      "t": 114878.07749999996,
      "d": 195.12200000000303,
      "v": 80
    },
    {
      "midi": 68,
      "hit": false,
      "t": 114878.07749999996,
      "d": 195.12200000000303,
      "v": 80
    },
    {
      "midi": 70,
      "hit": false,
      "t": 115121.97999999995,
      "d": 780.4879999999976,
      "v": 80
    },
    {
      "midi": 75,
      "hit": false,
      "t": 115121.98,
      "d": 780.4879999999976,
      "v": 80
    },
    {
      "midi": 82,
      "hit": false,
      "t": 115121.98000000011,
      "d": 780.4879999999976,
      "v": 80
    },
    {
      "midi": 75,
      "hit": false,
      "t": 116097.58999999995,
      "d": 390.24400000000605,
      "v": 80
    },
    {
      "midi": 70,
      "hit": false,
      "t": 116097.59,
      "d": 780.4879999999976,
      "v": 80
    },
    {
      "midi": 79,
      "hit": false,
      "t": 116097.59000000011,
      "d": 780.4879999999976,
      "v": 80
    },
    {
      "midi": 70,
      "hit": false,
      "t": 116585.39499999996,
      "d": 390.24400000000605,
      "v": 80
    },
    {
      "midi": 68,
      "hit": false,
      "t": 117073.19999999997,
      "d": 390.24400000000605,
      "v": 80
    },
    {
      "midi": 65,
      "hit": false,
      "t": 117073.2,
      "d": 390.24400000000605,
      "v": 80
    },
    {
      "midi": 68,
      "hit": false,
      "t": 117073.2,
      "d": 390.24400000000605,
      "v": 80
    },
    {
      "midi": 80,
      "hit": false,
      "t": 117073.20000000011,
      "d": 780.4879999999976,
      "v": 80
    },
    {
      "midi": 68,
      "hit": false,
      "t": 117561.00499999998,
      "d": 195.12200000000303,
      "v": 80
    },
    {
      "midi": 73,
      "hit": false,
      "t": 117561.005,
      "d": 195.12200000000303,
      "v": 80
    },
    {
      "midi": 67,
      "hit": false,
      "t": 117804.90749999997,
      "d": 195.12200000000303,
      "v": 80
    },
    {
      "midi": 75,
      "hit": false,
      "t": 117804.9075,
      "d": 195.12200000000303,
      "v": 80
    },
    {
      "midi": 68,
      "hit": false,
      "t": 118048.80999999997,
      "d": 195.12200000000303,
      "v": 80
    },
    {
      "midi": 72,
      "hit": false,
      "t": 118048.81,
      "d": 195.12200000000303,
      "v": 80
    },
    {
      "midi": 80,
      "hit": false,
      "t": 118048.81000000011,
      "d": 195.12200000000303,
      "v": 80
    },
    {
      "midi": 67,
      "hit": false,
      "t": 118292.71249999997,
      "d": 195.12200000000303,
      "v": 80
    },
    {
      "midi": 70,
      "hit": false,
      "t": 118292.7125,
      "d": 195.12200000000303,
      "v": 80
    },
    {
      "midi": 79,
      "hit": false,
      "t": 118292.71250000011,
      "d": 195.12200000000303,
      "v": 80
    },
    {
      "midi": 65,
      "hit": false,
      "t": 118536.61499999996,
      "d": 195.12200000000303,
      "v": 80
    },
    {
      "midi": 65,
      "hit": false,
      "t": 118536.61499999999,
      "d": 195.12200000000303,
      "v": 80
    },
    {
      "midi": 77,
      "hit": false,
      "t": 118536.6150000001,
      "d": 195.12200000000303,
      "v": 80
    },
    {
      "midi": 63,
      "hit": false,
      "t": 118780.51749999996,
      "d": 195.12200000000303,
      "v": 80
    },
    {
      "midi": 67,
      "hit": false,
      "t": 118780.51749999999,
      "d": 195.12200000000303,
      "v": 80
    },
    {
      "midi": 75,
      "hit": false,
      "t": 118780.5175000001,
      "d": 195.12200000000303,
      "v": 80
    }
  ]
}