{
  "jsonPath": "Rock/Progressive House/Markus Schulz/spilled-cranberries.json",
  "path": "Rock\\Progressive House\\Markus Schulz\\Spilled Cranberries.mid",
  "name": "Spilled Cranberries",
  "difficulty": "Advanced",
  "bpm": 132.000132000132,
  "notes": [
    {
      "midi": 59,
      "hit": false,
      "t": 30909.06,
      "d": 1121.2109999999993,
      "v": 127
    },
    {
      "midi": 64,
      "hit": false,
      "t": 30909.06,
      "d": 1151.5139999999992,
      "v": 127
    },
    {
      "midi": 68,
      "hit": false,
      "t": 30909.06,
      "d": 1151.5139999999992,
      "v": 127
    },
    {
      "midi": 59,
      "hit": false,
      "t": 32045.4225,
      "d": 439.3934999999983,
      "v": 127
    },
    {
      "midi": 63,
      "hit": false,
      "t": 32045.4225,
      "d": 454.54499999999825,
      "v": 127
    },
    {
      "midi": 66,
      "hit": false,
      "t": 32045.4225,
      "d": 454.54499999999825,
      "v": 127
    },
    {
      "midi": 59,
      "hit": false,
      "t": 32499.9675,
      "d": 1348.483500000002,
      "v": 127
    },
    {
      "midi": 64,
      "hit": false,
      "t": 32499.9675,
      "d": 1378.786500000002,
      "v": 127
    },
    {
      "midi": 68,
      "hit": false,
      "t": 32499.9675,
      "d": 1378.786500000002,
      "v": 127
    },
    {
      "midi": 54,
      "hit": false,
      "t": 33863.6025,
      "d": 439.3934999999983,
      "v": 127
    },
    {
      "midi": 61,
      "hit": false,
      "t": 33863.6025,
      "d": 439.3934999999983,
      "v": 127
    },
    {
      "midi": 66,
      "hit": false,
      "t": 33863.6025,
      "d": 439.3934999999983,
      "v": 127
    },
    {
      "midi": 44,
      "hit": false,
      "t": 34318.1475,
      "d": 1303.0290000000023,
      "v": 127
    },
    {
      "midi": 56,
      "hit": false,
      "t": 34318.1475,
      "d": 1348.483500000002,
      "v": 127
    },
    {
      "midi": 59,
      "hit": false,
      "t": 34318.1475,
      "d": 1363.635000000002,
      "v": 127
    },
    {
      "midi": 63,
      "hit": false,
      "t": 34318.1475,
      "d": 1363.635000000002,
      "v": 127
    },
    {
      "midi": 54,
      "hit": false,
      "t": 35681.7825,
      "d": 439.3934999999983,
      "v": 127
    },
    {
      "midi": 61,
      "hit": false,
      "t": 35681.7825,
      "d": 439.3934999999983,
      "v": 127
    },
    {
      "midi": 64,
      "hit": false,
      "t": 35681.7825,
      "d": 439.3934999999983,
      "v": 127
    },
    {
      "midi": 44,
      "hit": false,
      "t": 36136.3275,
      "d": 1303.0290000000023,
      "v": 127
    },
    {
      "midi": 59,
      "hit": false,
      "t": 36136.3275,
      "d": 1348.483500000002,
      "v": 127
    },
    {
      "midi": 63,
      "hit": false,
      "t": 36136.3275,
      "d": 1348.483500000002,
      "v": 127
    },
    {
      "midi": 56,
      "hit": false,
      "t": 36136.3275,
      "d": 1393.938000000002,
      "v": 127
    },
    {
      "midi": 59,
      "hit": false,
      "t": 37499.9625,
      "d": 439.3934999999983,
      "v": 127
    },
    {
      "midi": 63,
      "hit": false,
      "t": 37499.9625,
      "d": 439.3934999999983,
      "v": 127
    },
    {
      "midi": 66,
      "hit": false,
      "t": 37499.9625,
      "d": 439.3934999999983,
      "v": 127
    },
    {
      "midi": 68,
      "hit": false,
      "t": 37954.5075,
      "d": 1333.3320000000022,
      "v": 127
    },
    {
      "midi": 59,
      "hit": false,
      "t": 37954.5075,
      "d": 1348.483500000002,
      "v": 127
    },
    {
      "midi": 64,
      "hit": false,
      "t": 37954.5075,
      "d": 1363.635000000002,
      "v": 127
    },
    {
      "midi": 59,
      "hit": false,
      "t": 39318.1425,
      "d": 439.3934999999983,
      "v": 127
    },
    {
      "midi": 63,
      "hit": false,
      "t": 39318.1425,
      "d": 454.54499999999825,
      "v": 127
    },
    {
      "midi": 66,
      "hit": false,
      "t": 39318.1425,
      "d": 454.54499999999825,
      "v": 127
    },
    {
      "midi": 59,
      "hit": false,
      "t": 39772.6875,
      "d": 1348.483500000002,
      "v": 127
    },
    {
      "midi": 64,
      "hit": false,
      "t": 39772.6875,
      "d": 1378.786500000002,
      "v": 127
    },
    {
      "midi": 68,
      "hit": false,
      "t": 39772.6875,
      "d": 1378.786500000002,
      "v": 127
    },
    {
      "midi": 54,
      "hit": false,
      "t": 41136.3225,
      "d": 439.3934999999983,
      "v": 127
    },
    {
      "midi": 61,
      "hit": false,
      "t": 41136.3225,
      "d": 439.3934999999983,
      "v": 127
    },
    {
      "midi": 66,
      "hit": false,
      "t": 41136.3225,
      "d": 439.3934999999983,
      "v": 127
    },
    {
      "midi": 56,
      "hit": false,
      "t": 41590.8675,
      "d": 1348.483500000002,
      "v": 127
    },
    {
      "midi": 59,
      "hit": false,
      "t": 41590.8675,
      "d": 1348.483500000002,
      "v": 127
    },
    {
      "midi": 44,
      "hit": false,
      "t": 41590.8675,
      "d": 1363.635000000002,
      "v": 127
    },
    {
      "midi": 63,
      "hit": false,
      "t": 41590.8675,
      "d": 1363.635000000002,
      "v": 127
    },
    {
      "midi": 54,
      "hit": false,
      "t": 42954.5025,
      "d": 439.3934999999983,
      "v": 127
    },
    {
      "midi": 61,
      "hit": false,
      "t": 42954.5025,
      "d": 439.3934999999983,
      "v": 127
    },
    {
      "midi": 64,
      "hit": false,
      "t": 42954.5025,
      "d": 439.3934999999983,
      "v": 127
    },
    {
      "midi": 59,
      "hit": false,
      "t": 43409.0475,
      "d": 1348.483500000002,
      "v": 127
    },
    {
      "midi": 63,
      "hit": false,
      "t": 43409.0475,
      "d": 1348.483500000002,
      "v": 127
    },
    {
      "midi": 44,
      "hit": false,
      "t": 43409.0475,
      "d": 1363.635000000002,
      "v": 127
    },
    {
      "midi": 56,
      "hit": false,
      "t": 43409.0475,
      "d": 1393.938000000002,
      "v": 127
    },
    {
      "midi": 59,
      "hit": false,
      "t": 44772.6825,
      "d": 439.3934999999983,
      "v": 127
    },
    {
      "midi": 63,
      "hit": false,
      "t": 44772.6825,
      "d": 439.3934999999983,
      "v": 127
    },
    {
      "midi": 66,
      "hit": false,
      "t": 44772.6825,
      "d": 439.3934999999983,
      "v": 127
    },
    {
      "midi": 68,
      "hit": false,
      "t": 45227.2275,
      "d": 1333.3320000000022,
      "v": 127
    },
    {
      "midi": 59,
      "hit": false,
      "t": 45227.2275,
      "d": 1348.483500000002,
      "v": 127
    },
    {
      "midi": 64,
      "hit": false,
      "t": 45227.2275,
      "d": 1363.635000000002,
      "v": 127
    },
    {
      "midi": 59,
      "hit": false,
      "t": 46590.8625,
      "d": 439.3934999999983,
      "v": 127
    },
    {
      "midi": 63,
      "hit": false,
      "t": 46590.8625,
      "d": 454.54499999999825,
      "v": 127
    },
    {
      "midi": 66,
      "hit": false,
      "t": 46590.8625,
      "d": 454.54499999999825,
      "v": 127
    },
    {
      "midi": 59,
      "hit": false,
      "t": 47045.4075,
      "d": 1348.483500000002,
      "v": 127
    },
    {
      "midi": 64,
      "hit": false,
      "t": 47045.4075,
      "d": 1378.786500000002,
      "v": 127
    },
    {
      "midi": 68,
      "hit": false,
      "t": 47045.4075,
      "d": 1378.786500000002,
      "v": 127
    },
    {
      "midi": 54,
      "hit": false,
      "t": 48409.0425,
      "d": 439.3934999999983,
      "v": 127
    },
    {
      "midi": 61,
      "hit": false,
      "t": 48409.0425,
      "d": 439.3934999999983,
      "v": 127
    },
    {
      "midi": 66,
      "hit": false,
      "t": 48409.0425,
      "d": 439.3934999999983,
      "v": 127
    },
    {
      "midi": 44,
      "hit": false,
      "t": 48863.5875,
      "d": 1303.0290000000023,
      "v": 127
    },
    {
      "midi": 56,
      "hit": false,
      "t": 48863.5875,
      "d": 1348.483500000002,
      "v": 127
    },
    {
      "midi": 59,
      "hit": false,
      "t": 48863.5875,
      "d": 1363.635000000002,
      "v": 127
    },
    {
      "midi": 63,
      "hit": false,
      "t": 48863.5875,
      "d": 1363.635000000002,
      "v": 127
    },
    {
      "midi": 54,
      "hit": false,
      "t": 50227.2225,
      "d": 439.3934999999983,
      "v": 127
    },
    {
      "midi": 61,
      "hit": false,
      "t": 50227.2225,
      "d": 439.3934999999983,
      "v": 127
    },
    {
      "midi": 64,
      "hit": false,
      "t": 50227.2225,
      "d": 439.3934999999983,
      "v": 127
    },
    {
      "midi": 44,
      "hit": false,
      "t": 50681.7675,
      "d": 1303.0290000000023,
      "v": 127
    },
    {
      "midi": 59,
      "hit": false,
      "t": 50681.7675,
      "d": 1348.483500000002,
      "v": 127
    },
    {
      "midi": 63,
      "hit": false,
      "t": 50681.7675,
      "d": 1348.483500000002,
      "v": 127
    },
    {
      "midi": 56,
      "hit": false,
      "t": 50681.7675,
      "d": 1393.938000000002,
      "v": 127
    },
    {
      "midi": 59,
      "hit": false,
      "t": 52045.402500000004,
      "d": 439.3934999999983,
      "v": 127
    },
    {
      "midi": 63,
      "hit": false,
      "t": 52045.402500000004,
      "d": 439.3934999999983,
      "v": 127
    },
    {
      "midi": 66,
      "hit": false,
      "t": 52045.402500000004,
      "d": 439.3934999999983,
      "v": 127
    },
    {
      "midi": 68,
      "hit": false,
      "t": 52499.9475,
      "d": 1333.3320000000022,
      "v": 127
    },
    {
      "midi": 59,
      "hit": false,
      "t": 52499.9475,
      "d": 1348.483500000002,
      "v": 127
    },
    {
      "midi": 64,
      "hit": false,
      "t": 52499.9475,
      "d": 1363.635000000002,
      "v": 127
    },
    {
      "midi": 59,
      "hit": false,
      "t": 53863.582500000004,
      "d": 439.3934999999983,
      "v": 127
    },
    {
      "midi": 63,
      "hit": false,
      "t": 53863.582500000004,
      "d": 454.54499999999825,
      "v": 127
    },
    {
      "midi": 66,
      "hit": false,
      "t": 53863.582500000004,
      "d": 454.54499999999825,
      "v": 127
    },
    {
      "midi": 59,
      "hit": false,
      "t": 54318.1275,
      "d": 1348.483500000002,
      "v": 127
    },
    {
      "midi": 64,
      "hit": false,
      "t": 54318.1275,
      "d": 1378.786500000002,
      "v": 127
    },
    {
      "midi": 68,
      "hit": false,
      "t": 54318.1275,
      "d": 1378.786500000002,
      "v": 127
    },
    {
      "midi": 54,
      "hit": false,
      "t": 55681.762500000004,
      "d": 439.3934999999983,
      "v": 127
    },
    {
      "midi": 61,
      "hit": false,
      "t": 55681.762500000004,
      "d": 439.3934999999983,
      "v": 127
    },
    {
      "midi": 66,
      "hit": false,
      "t": 55681.762500000004,
      "d": 439.3934999999983,
      "v": 127
    },
    {
      "midi": 56,
      "hit": false,
      "t": 56136.3075,
      "d": 1348.483500000002,
      "v": 127
    },
    {
      "midi": 59,
      "hit": false,
      "t": 56136.3075,
      "d": 1348.483500000002,
      "v": 127
    },
    {
      "midi": 44,
      "hit": false,
      "t": 56136.3075,
      "d": 1363.635000000002,
      "v": 127
    },
    {
      "midi": 63,
      "hit": false,
      "t": 56136.3075,
      "d": 1363.635000000002,
      "v": 127
    },
    {
      "midi": 54,
      "hit": false,
      "t": 57499.942500000005,
      "d": 439.3934999999983,
      "v": 127
    },
    {
      "midi": 61,
      "hit": false,
      "t": 57499.942500000005,
      "d": 439.3934999999983,
      "v": 127
    },
    {
      "midi": 64,
      "hit": false,
      "t": 57499.942500000005,
      "d": 439.3934999999983,
      "v": 127
    },
    {
      "midi": 59,
      "hit": false,
      "t": 57954.4875,
      "d": 1348.483500000002,
      "v": 127
    },
    {
      "midi": 63,
      "hit": false,
      "t": 57954.4875,
      "d": 1348.483500000002,
      "v": 127
    },
    {
      "midi": 44,
      "hit": false,
      "t": 57954.4875,
      "d": 1363.635000000002,
      "v": 127
    },
    {
      "midi": 56,
      "hit": false,
      "t": 57954.4875,
      "d": 1393.938000000002,
      "v": 127
    },
    {
      "midi": 59,
      "hit": false,
      "t": 59318.122500000005,
      "d": 439.3934999999983,
      "v": 127
    },
    {
      "midi": 63,
      "hit": false,
      "t": 59318.122500000005,
      "d": 439.3934999999983,
      "v": 127
    },
    {
      "midi": 66,
      "hit": false,
      "t": 59318.122500000005,
      "d": 439.3934999999983,
      "v": 127
    },
    {
      "midi": 59,
      "hit": false,
      "t": 59772.6675,
      "d": 1348.483500000002,
      "v": 127
    },
    {
      "midi": 68,
      "hit": false,
      "t": 59772.6675,
      "d": 1348.483500000002,
      "v": 127
    },
    {
      "midi": 64,
      "hit": false,
      "t": 59772.6675,
      "d": 1363.635000000002,
      "v": 127
    },
    {
      "midi": 59,
      "hit": false,
      "t": 61136.302500000005,
      "d": 439.3934999999983,
      "v": 127
    },
    {
      "midi": 63,
      "hit": false,
      "t": 61136.302500000005,
      "d": 454.54499999999825,
      "v": 127
    },
    {
      "midi": 66,
      "hit": false,
      "t": 61136.302500000005,
      "d": 454.54499999999825,
      "v": 127
    },
    {
      "midi": 59,
      "hit": false,
      "t": 61590.8475,
      "d": 1348.483500000002,
      "v": 127
    },
    {
      "midi": 64,
      "hit": false,
      "t": 61590.8475,
      "d": 1378.786500000002,
      "v": 127
    },
    {
      "midi": 68,
      "hit": false,
      "t": 61590.8475,
      "d": 1378.786500000002,
      "v": 127
    },
    {
      "midi": 54,
      "hit": false,
      "t": 62954.482500000006,
      "d": 439.3934999999983,
      "v": 127
    },
    {
      "midi": 61,
      "hit": false,
      "t": 62954.482500000006,
      "d": 439.3934999999983,
      "v": 127
    },
    {
      "midi": 66,
      "hit": false,
      "t": 62954.482500000006,
      "d": 439.3934999999983,
      "v": 127
    },
    {
      "midi": 44,
      "hit": false,
      "t": 63409.027500000004,
      "d": 1303.0290000000023,
      "v": 127
    },
    {
      "midi": 56,
      "hit": false,
      "t": 63409.027500000004,
      "d": 1348.483500000002,
      "v": 127
    },
    {
      "midi": 59,
      "hit": false,
      "t": 63409.027500000004,
      "d": 1363.635000000002,
      "v": 127
    },
    {
      "midi": 63,
      "hit": false,
      "t": 63409.027500000004,
      "d": 1363.635000000002,
      "v": 127
    },
    {
      "midi": 54,
      "hit": false,
      "t": 64772.662500000006,
      "d": 439.3934999999983,
      "v": 127
    },
    {
      "midi": 61,
      "hit": false,
      "t": 64772.662500000006,
      "d": 439.3934999999983,
      "v": 127
    },
    {
      "midi": 64,
      "hit": false,
      "t": 64772.662500000006,
      "d": 439.3934999999983,
      "v": 127
    },
    {
      "midi": 44,
      "hit": false,
      "t": 65227.207500000004,
      "d": 1303.028999999995,
      "v": 127
    },
    {
      "midi": 59,
      "hit": false,
      "t": 65227.207500000004,
      "d": 1348.483500000002,
      "v": 127
    },
    {
      "midi": 63,
      "hit": false,
      "t": 65227.207500000004,
      "d": 1348.483500000002,
      "v": 127
    },
    {
      "midi": 56,
      "hit": false,
      "t": 65227.207500000004,
      "d": 1393.9380000000092,
      "v": 127
    },
    {
      "midi": 59,
      "hit": false,
      "t": 66590.84250000001,
      "d": 439.3935000000056,
      "v": 127
    },
    {
      "midi": 63,
      "hit": false,
      "t": 66590.84250000001,
      "d": 439.3935000000056,
      "v": 127
    },
    {
      "midi": 66,
      "hit": false,
      "t": 66590.84250000001,
      "d": 439.3935000000056,
      "v": 127
    },
    {
      "midi": 68,
      "hit": false,
      "t": 67045.38750000003,
      "d": 1333.3319999999949,
      "v": 127
    },
    {
      "midi": 59,
      "hit": false,
      "t": 67045.38750000003,
      "d": 1348.483500000002,
      "v": 127
    },
    {
      "midi": 64,
      "hit": false,
      "t": 67045.38750000003,
      "d": 1363.6350000000093,
      "v": 127
    },
    {
      "midi": 59,
      "hit": false,
      "t": 68409.02250000004,
      "d": 439.3935000000056,
      "v": 127
    },
    {
      "midi": 63,
      "hit": false,
      "t": 68409.02250000004,
      "d": 454.5450000000128,
      "v": 127
    },
    {
      "midi": 66,
      "hit": false,
      "t": 68409.02250000004,
      "d": 454.5450000000128,
      "v": 127
    },
    {
      "midi": 59,
      "hit": false,
      "t": 68863.56750000005,
      "d": 1348.483500000002,
      "v": 127
    },
    {
      "midi": 64,
      "hit": false,
      "t": 68863.56750000005,
      "d": 1378.7865000000165,
      "v": 127
    },
    {
      "midi": 68,
      "hit": false,
      "t": 68863.56750000005,
      "d": 1378.7865000000165,
      "v": 127
    },
    {
      "midi": 54,
      "hit": false,
      "t": 70227.20250000006,
      "d": 439.3935000000056,
      "v": 127
    },
    {
      "midi": 61,
      "hit": false,
      "t": 70227.20250000006,
      "d": 439.3935000000056,
      "v": 127
    },
    {
      "midi": 66,
      "hit": false,
      "t": 70227.20250000006,
      "d": 439.3935000000056,
      "v": 127
    },
    {
      "midi": 56,
      "hit": false,
      "t": 70681.74750000007,
      "d": 1348.483500000002,
      "v": 127
    },
    {
      "midi": 59,
      "hit": false,
      "t": 70681.74750000007,
      "d": 1348.483500000002,
      "v": 127
    },
    {
      "midi": 44,
      "hit": false,
      "t": 70681.74750000007,
      "d": 1363.6350000000093,
      "v": 127
    },
    {
      "midi": 63,
      "hit": false,
      "t": 70681.74750000007,
      "d": 1363.6350000000093,
      "v": 127
    },
    {
      "midi": 54,
      "hit": false,
      "t": 72045.38250000008,
      "d": 439.3935000000056,
      "v": 127
    },
    {
      "midi": 61,
      "hit": false,
      "t": 72045.38250000008,
      "d": 439.3935000000056,
      "v": 127
    },
    {
      "midi": 64,
      "hit": false,
      "t": 72045.38250000008,
      "d": 439.3935000000056,
      "v": 127
    },
    {
      "midi": 56,
      "hit": false,
      "t": 72499.92750000009,
      "d": 1136.362500000003,
      "v": 127
    },
    {
      "midi": 59,
      "hit": false,
      "t": 72499.92750000009,
      "d": 1136.362500000003,
      "v": 127
    },
    {
      "midi": 63,
      "hit": false,
      "t": 72499.92750000009,
      "d": 1136.362500000003,
      "v": 127
    },
    {
      "midi": 44,
      "hit": false,
      "t": 72499.92750000009,
      "d": 1363.6350000000093,
      "v": 127
    },
    {
      "midi": 59,
      "hit": false,
      "t": 74545.3800000001,
      "d": 1121.2109999999957,
      "v": 127
    },
    {
      "midi": 64,
      "hit": false,
      "t": 74545.3800000001,
      "d": 1151.5140000000101,
      "v": 127
    },
    {
      "midi": 68,
      "hit": false,
      "t": 74545.3800000001,
      "d": 1151.5140000000101,
      "v": 127
    },
    {
      "midi": 40,
      "hit": false,
      "t": 74545.3800000001,
      "d": 1333.3320000000094,
      "v": 127
    },
    {
      "midi": 59,
      "hit": false,
      "t": 75681.74250000011,
      "d": 439.3935000000056,
      "v": 127
    },
    {
      "midi": 63,
      "hit": false,
      "t": 75681.74250000011,
      "d": 454.5450000000128,
      "v": 127
    },
    {
      "midi": 66,
      "hit": false,
      "t": 75681.74250000011,
      "d": 454.5450000000128,
      "v": 127
    },
    {
      "midi": 47,
      "hit": false,
      "t": 75795.37875000012,
      "d": 424.24199999999837,
      "v": 127
    },
    {
      "midi": 59,
      "hit": false,
      "t": 76136.28750000012,
      "d": 1348.4834999999875,
      "v": 127
    },
    {
      "midi": 64,
      "hit": false,
      "t": 76136.28750000012,
      "d": 1378.786500000002,
      "v": 127
    },
    {
      "midi": 68,
      "hit": false,
      "t": 76136.28750000012,
      "d": 1378.786500000002,
      "v": 127
    },
    {
      "midi": 40,
      "hit": false,
      "t": 76363.56000000011,
      "d": 1090.9079999999958,
      "v": 127
    },
    {
      "midi": 37,
      "hit": false,
      "t": 77499.92250000012,
      "d": 424.2420000000129,
      "v": 127
    },
    {
      "midi": 54,
      "hit": false,
      "t": 77499.92250000012,
      "d": 439.39350000002014,
      "v": 127
    },
    {
      "midi": 61,
      "hit": false,
      "t": 77499.92250000012,
      "d": 439.39350000002014,
      "v": 127
    },
    {
      "midi": 66,
      "hit": false,
      "t": 77499.92250000012,
      "d": 439.39350000002014,
      "v": 127
    },
    {
      "midi": 44,
      "hit": false,
      "t": 77954.46750000014,
      "d": 1303.028999999995,
      "v": 127
    },
    {
      "midi": 56,
      "hit": false,
      "t": 77954.46750000014,
      "d": 1348.483500000002,
      "v": 127
    },
    {
      "midi": 59,
      "hit": false,
      "t": 77954.46750000014,
      "d": 1363.6350000000093,
      "v": 127
    },
    {
      "midi": 63,
      "hit": false,
      "t": 77954.46750000014,
      "d": 1363.6350000000093,
      "v": 127
    },
    {
      "midi": 32,
      "hit": false,
      "t": 77954.46750000014,
      "d": 1590.9075000000157,
      "v": 127
    },
    {
      "midi": 54,
      "hit": false,
      "t": 79318.10250000015,
      "d": 439.3935000000056,
      "v": 127
    },
    {
      "midi": 61,
      "hit": false,
      "t": 79318.10250000015,
      "d": 439.3935000000056,
      "v": 127
    },
    {
      "midi": 64,
      "hit": false,
      "t": 79318.10250000015,
      "d": 439.3935000000056,
      "v": 127
    },
    {
      "midi": 44,
      "hit": false,
      "t": 79772.64750000017,
      "d": 1303.028999999995,
      "v": 127
    },
    {
      "midi": 59,
      "hit": false,
      "t": 79772.64750000017,
      "d": 1348.483500000002,
      "v": 127
    },
    {
      "midi": 63,
      "hit": false,
      "t": 79772.64750000017,
      "d": 1348.483500000002,
      "v": 127
    },
    {
      "midi": 56,
      "hit": false,
      "t": 79772.64750000017,
      "d": 1393.9380000000092,
      "v": 127
    },
    {
      "midi": 59,
      "hit": false,
      "t": 81136.28250000018,
      "d": 439.3935000000056,
      "v": 127
    },
    {
      "midi": 63,
      "hit": false,
      "t": 81136.28250000018,
      "d": 439.3935000000056,
      "v": 127
    },
    {
      "midi": 66,
      "hit": false,
      "t": 81136.28250000018,
      "d": 439.3935000000056,
      "v": 127
    },
    {
      "midi": 59,
      "hit": false,
      "t": 81590.82750000019,
      "d": 1348.483500000002,
      "v": 127
    },
    {
      "midi": 68,
      "hit": false,
      "t": 81590.82750000019,
      "d": 1348.483500000002,
      "v": 127
    },
    {
      "midi": 64,
      "hit": false,
      "t": 81590.82750000019,
      "d": 1409.0895000000164,
      "v": 127
    },
    {
      "midi": 40,
      "hit": false,
      "t": 81590.82750000019,
      "d": 1499.998500000016,
      "v": 127
    },
    {
      "midi": 59,
      "hit": false,
      "t": 82954.4625000002,
      "d": 439.3935000000056,
      "v": 127
    },
    {
      "midi": 63,
      "hit": false,
      "t": 82954.4625000002,
      "d": 454.5450000000128,
      "v": 127
    },
    {
      "midi": 66,
      "hit": false,
      "t": 82954.4625000002,
      "d": 454.5450000000128,
      "v": 127
    },
    {
      "midi": 47,
      "hit": false,
      "t": 83068.09875000021,
      "d": 424.24199999999837,
      "v": 127
    },
    {
      "midi": 59,
      "hit": false,
      "t": 83409.00750000021,
      "d": 1348.4834999999875,
      "v": 127
    },
    {
      "midi": 64,
      "hit": false,
      "t": 83409.00750000021,
      "d": 1378.786500000002,
      "v": 127
    },
    {
      "midi": 68,
      "hit": false,
      "t": 83409.00750000021,
      "d": 1378.786500000002,
      "v": 127
    },
    {
      "midi": 40,
      "hit": false,
      "t": 83636.2800000002,
      "d": 1090.9079999999958,
      "v": 127
    },
    {
      "midi": 37,
      "hit": false,
      "t": 84772.6425000002,
      "d": 424.2420000000129,
      "v": 127
    },
    {
      "midi": 54,
      "hit": false,
      "t": 84772.6425000002,
      "d": 439.39350000002014,
      "v": 127
    },
    {
      "midi": 61,
      "hit": false,
      "t": 84772.6425000002,
      "d": 439.39350000002014,
      "v": 127
    },
    {
      "midi": 66,
      "hit": false,
      "t": 84772.6425000002,
      "d": 439.39350000002014,
      "v": 127
    },
    {
      "midi": 44,
      "hit": false,
      "t": 85227.18750000023,
      "d": 1303.0290000000095,
      "v": 127
    },
    {
      "midi": 56,
      "hit": false,
      "t": 85227.18750000023,
      "d": 1348.4835000000166,
      "v": 127
    },
    {
      "midi": 59,
      "hit": false,
      "t": 85227.18750000023,
      "d": 1363.6350000000239,
      "v": 127
    },
    {
      "midi": 63,
      "hit": false,
      "t": 85227.18750000023,
      "d": 1363.6350000000239,
      "v": 127
    },
    {
      "midi": 32,
      "hit": false,
      "t": 85227.18750000023,
      "d": 1590.9075000000303,
      "v": 127
    },
    {
      "midi": 54,
      "hit": false,
      "t": 86590.82250000026,
      "d": 439.3935000000056,
      "v": 127
    },
    {
      "midi": 61,
      "hit": false,
      "t": 86590.82250000026,
      "d": 439.3935000000056,
      "v": 127
    },
    {
      "midi": 64,
      "hit": false,
      "t": 86590.82250000026,
      "d": 439.3935000000056,
      "v": 127
    },
    {
      "midi": 44,
      "hit": false,
      "t": 87045.36750000027,
      "d": 1303.028999999995,
      "v": 127
    },
    {
      "midi": 59,
      "hit": false,
      "t": 87045.36750000027,
      "d": 1348.483500000002,
      "v": 127
    },
    {
      "midi": 63,
      "hit": false,
      "t": 87045.36750000027,
      "d": 1348.483500000002,
      "v": 127
    },
    {
      "midi": 56,
      "hit": false,
      "t": 87045.36750000027,
      "d": 1393.9380000000092,
      "v": 127
    },
    {
      "midi": 59,
      "hit": false,
      "t": 88409.00250000028,
      "d": 439.3935000000056,
      "v": 127
    },
    {
      "midi": 63,
      "hit": false,
      "t": 88409.00250000028,
      "d": 439.3935000000056,
      "v": 127
    },
    {
      "midi": 66,
      "hit": false,
      "t": 88409.00250000028,
      "d": 439.3935000000056,
      "v": 127
    },
    {
      "midi": 40,
      "hit": false,
      "t": 88863.54750000029,
      "d": 1333.3320000000094,
      "v": 127
    },
    {
      "midi": 59,
      "hit": false,
      "t": 88863.54750000029,
      "d": 1348.4835000000166,
      "v": 127
    },
    {
      "midi": 68,
      "hit": false,
      "t": 88863.54750000029,
      "d": 1348.4835000000166,
      "v": 127
    },
    {
      "midi": 64,
      "hit": false,
      "t": 88863.54750000029,
      "d": 1378.786500000031,
      "v": 127
    },
    {
      "midi": 59,
      "hit": false,
      "t": 90227.18250000032,
      "d": 439.3935000000056,
      "v": 127
    },
    {
      "midi": 63,
      "hit": false,
      "t": 90227.18250000032,
      "d": 454.5450000000128,
      "v": 127
    },
    {
      "midi": 66,
      "hit": false,
      "t": 90227.18250000032,
      "d": 454.5450000000128,
      "v": 127
    },
    {
      "midi": 47,
      "hit": false,
      "t": 90340.81875000033,
      "d": 424.24199999999837,
      "v": 127
    },
    {
      "midi": 59,
      "hit": false,
      "t": 90681.72750000033,
      "d": 1348.4834999999875,
      "v": 127
    },
    {
      "midi": 64,
      "hit": false,
      "t": 90681.72750000033,
      "d": 1378.786500000002,
      "v": 127
    },
    {
      "midi": 68,
      "hit": false,
      "t": 90681.72750000033,
      "d": 1378.786500000002,
      "v": 127
    },
    {
      "midi": 40,
      "hit": false,
      "t": 90909.00000000032,
      "d": 1090.9079999999958,
      "v": 127
    },
    {
      "midi": 37,
      "hit": false,
      "t": 92045.36250000032,
      "d": 424.2420000000129,
      "v": 127
    },
    {
      "midi": 54,
      "hit": false,
      "t": 92045.36250000032,
      "d": 439.39350000002014,
      "v": 127
    },
    {
      "midi": 61,
      "hit": false,
      "t": 92045.36250000032,
      "d": 439.39350000002014,
      "v": 127
    },
    {
      "midi": 66,
      "hit": false,
      "t": 92045.36250000032,
      "d": 439.39350000002014,
      "v": 127
    },
    {
      "midi": 44,
      "hit": false,
      "t": 92499.90750000035,
      "d": 1303.028999999995,
      "v": 127
    },
    {
      "midi": 56,
      "hit": false,
      "t": 92499.90750000035,
      "d": 1348.483500000002,
      "v": 127
    },
    {
      "midi": 59,
      "hit": false,
      "t": 92499.90750000035,
      "d": 1363.6350000000093,
      "v": 127
    },
    {
      "midi": 63,
      "hit": false,
      "t": 92499.90750000035,
      "d": 1363.6350000000093,
      "v": 127
    },
    {
      "midi": 32,
      "hit": false,
      "t": 92499.90750000035,
      "d": 1590.9075000000157,
      "v": 127
    },
    {
      "midi": 54,
      "hit": false,
      "t": 93863.54250000036,
      "d": 439.3935000000056,
      "v": 127
    },
    {
      "midi": 61,
      "hit": false,
      "t": 93863.54250000036,
      "d": 439.3935000000056,
      "v": 127
    },
    {
      "midi": 64,
      "hit": false,
      "t": 93863.54250000036,
      "d": 439.3935000000056,
      "v": 127
    },
    {
      "midi": 44,
      "hit": false,
      "t": 94318.08750000037,
      "d": 1303.028999999995,
      "v": 127
    },
    {
      "midi": 59,
      "hit": false,
      "t": 94318.08750000037,
      "d": 1348.483500000002,
      "v": 127
    },
    {
      "midi": 63,
      "hit": false,
      "t": 94318.08750000037,
      "d": 1348.483500000002,
      "v": 127
    },
    {
      "midi": 56,
      "hit": false,
      "t": 94318.08750000037,
      "d": 1393.9380000000092,
      "v": 127
    },
    {
      "midi": 59,
      "hit": false,
      "t": 95681.72250000038,
      "d": 439.3935000000056,
      "v": 127
    },
    {
      "midi": 63,
      "hit": false,
      "t": 95681.72250000038,
      "d": 439.3935000000056,
      "v": 127
    },
    {
      "midi": 66,
      "hit": false,
      "t": 95681.72250000038,
      "d": 439.3935000000056,
      "v": 127
    },
    {
      "midi": 59,
      "hit": false,
      "t": 96136.2675000004,
      "d": 1348.483500000002,
      "v": 127
    },
    {
      "midi": 68,
      "hit": false,
      "t": 96136.2675000004,
      "d": 1348.483500000002,
      "v": 127
    },
    {
      "midi": 64,
      "hit": false,
      "t": 96136.2675000004,
      "d": 1409.0895000000164,
      "v": 127
    },
    {
      "midi": 40,
      "hit": false,
      "t": 96136.2675000004,
      "d": 1499.998500000016,
      "v": 127
    },
    {
      "midi": 59,
      "hit": false,
      "t": 97499.9025000004,
      "d": 439.3935000000056,
      "v": 127
    },
    {
      "midi": 63,
      "hit": false,
      "t": 97499.9025000004,
      "d": 454.5450000000128,
      "v": 127
    },
    {
      "midi": 66,
      "hit": false,
      "t": 97499.9025000004,
      "d": 454.5450000000128,
      "v": 127
    },
    {
      "midi": 47,
      "hit": false,
      "t": 97613.53875000041,
      "d": 424.24199999999837,
      "v": 127
    },
    {
      "midi": 59,
      "hit": false,
      "t": 97954.44750000042,
      "d": 1348.4834999999875,
      "v": 127
    },
    {
      "midi": 64,
      "hit": false,
      "t": 97954.44750000042,
      "d": 1378.786500000002,
      "v": 127
    },
    {
      "midi": 68,
      "hit": false,
      "t": 97954.44750000042,
      "d": 1378.786500000002,
      "v": 127
    },
    {
      "midi": 40,
      "hit": false,
      "t": 98181.72000000041,
      "d": 1090.9079999999958,
      "v": 127
    },
    {
      "midi": 37,
      "hit": false,
      "t": 99318.08250000041,
      "d": 424.2420000000129,
      "v": 127
    },
    {
      "midi": 54,
      "hit": false,
      "t": 99318.08250000041,
      "d": 439.39350000002014,
      "v": 127
    },
    {
      "midi": 61,
      "hit": false,
      "t": 99318.08250000041,
      "d": 439.39350000002014,
      "v": 127
    },
    {
      "midi": 66,
      "hit": false,
      "t": 99318.08250000041,
      "d": 439.39350000002014,
      "v": 127
    },
    {
      "midi": 44,
      "hit": false,
      "t": 99772.62750000044,
      "d": 1303.0290000000095,
      "v": 127
    },
    {
      "midi": 56,
      "hit": false,
      "t": 99772.62750000044,
      "d": 1348.4835000000166,
      "v": 127
    },
    {
      "midi": 59,
      "hit": false,
      "t": 99772.62750000044,
      "d": 1363.6350000000239,
      "v": 127
    },
    {
      "midi": 63,
      "hit": false,
      "t": 99772.62750000044,
      "d": 1363.6350000000239,
      "v": 127
    },
    {
      "midi": 32,
      "hit": false,
      "t": 99772.62750000044,
      "d": 1590.9075000000303,
      "v": 127
    },
    {
      "midi": 54,
      "hit": false,
      "t": 101136.26250000046,
      "d": 439.3935000000056,
      "v": 127
    },
    {
      "midi": 61,
      "hit": false,
      "t": 101136.26250000046,
      "d": 439.3935000000056,
      "v": 127
    },
    {
      "midi": 64,
      "hit": false,
      "t": 101136.26250000046,
      "d": 439.3935000000056,
      "v": 127
    },
    {
      "midi": 44,
      "hit": false,
      "t": 101590.80750000048,
      "d": 1303.028999999995,
      "v": 127
    },
    {
      "midi": 59,
      "hit": false,
      "t": 101590.80750000048,
      "d": 1348.483500000002,
      "v": 127
    },
    {
      "midi": 63,
      "hit": false,
      "t": 101590.80750000048,
      "d": 1348.483500000002,
      "v": 127
    },
    {
      "midi": 56,
      "hit": false,
      "t": 101590.80750000048,
      "d": 1393.9380000000092,
      "v": 127
    },
    {
      "midi": 59,
      "hit": false,
      "t": 102954.44250000048,
      "d": 439.3935000000056,
      "v": 127
    },
    {
      "midi": 63,
      "hit": false,
      "t": 102954.44250000048,
      "d": 439.3935000000056,
      "v": 127
    },
    {
      "midi": 66,
      "hit": false,
      "t": 102954.44250000048,
      "d": 439.3935000000056,
      "v": 127
    },
    {
      "midi": 64,
      "hit": false,
      "t": 103408.9875000005,
      "d": 1318.1805000000022,
      "v": 127
    },
    {
      "midi": 40,
      "hit": false,
      "t": 103408.9875000005,
      "d": 1333.3320000000094,
      "v": 127
    },
    {
      "midi": 59,
      "hit": false,
      "t": 103408.9875000005,
      "d": 1348.4835000000166,
      "v": 127
    },
    {
      "midi": 68,
      "hit": false,
      "t": 103408.9875000005,
      "d": 1348.4835000000166,
      "v": 127
    },
    {
      "midi": 59,
      "hit": false,
      "t": 104772.62250000052,
      "d": 439.39349999999104,
      "v": 127
    },
    {
      "midi": 63,
      "hit": false,
      "t": 104772.62250000052,
      "d": 454.54499999999825,
      "v": 127
    },
    {
      "midi": 66,
      "hit": false,
      "t": 104772.62250000052,
      "d": 454.54499999999825,
      "v": 127
    },
    {
      "midi": 47,
      "hit": false,
      "t": 104886.25875000052,
      "d": 424.24199999999837,
      "v": 127
    },
    {
      "midi": 59,
      "hit": false,
      "t": 105227.16750000052,
      "d": 1348.4834999999875,
      "v": 127
    },
    {
      "midi": 64,
      "hit": false,
      "t": 105227.16750000052,
      "d": 1378.786500000002,
      "v": 127
    },
    {
      "midi": 68,
      "hit": false,
      "t": 105227.16750000052,
      "d": 1378.786500000002,
      "v": 127
    },
    {
      "midi": 40,
      "hit": false,
      "t": 105454.44000000051,
      "d": 1090.9079999999958,
      "v": 127
    },
    {
      "midi": 37,
      "hit": false,
      "t": 106590.80250000051,
      "d": 424.2420000000129,
      "v": 127
    },
    {
      "midi": 54,
      "hit": false,
      "t": 106590.80250000051,
      "d": 439.39350000002014,
      "v": 127
    },
    {
      "midi": 61,
      "hit": false,
      "t": 106590.80250000051,
      "d": 439.39350000002014,
      "v": 127
    },
    {
      "midi": 66,
      "hit": false,
      "t": 106590.80250000051,
      "d": 439.39350000002014,
      "v": 127
    },
    {
      "midi": 44,
      "hit": false,
      "t": 107045.34750000054,
      "d": 1303.028999999995,
      "v": 127
    },
    {
      "midi": 56,
      "hit": false,
      "t": 107045.34750000054,
      "d": 1348.483500000002,
      "v": 127
    },
    {
      "midi": 59,
      "hit": false,
      "t": 107045.34750000054,
      "d": 1363.6350000000093,
      "v": 127
    },
    {
      "midi": 63,
      "hit": false,
      "t": 107045.34750000054,
      "d": 1363.6350000000093,
      "v": 127
    },
    {
      "midi": 32,
      "hit": false,
      "t": 107045.34750000054,
      "d": 1590.9075000000157,
      "v": 127
    },
    {
      "midi": 54,
      "hit": false,
      "t": 108408.98250000055,
      "d": 439.3935000000056,
      "v": 127
    },
    {
      "midi": 61,
      "hit": false,
      "t": 108408.98250000055,
      "d": 439.3935000000056,
      "v": 127
    },
    {
      "midi": 64,
      "hit": false,
      "t": 108408.98250000055,
      "d": 439.3935000000056,
      "v": 127
    },
    {
      "midi": 44,
      "hit": false,
      "t": 108863.52750000056,
      "d": 1303.028999999995,
      "v": 127
    },
    {
      "midi": 59,
      "hit": false,
      "t": 108863.52750000056,
      "d": 1348.483500000002,
      "v": 127
    },
    {
      "midi": 63,
      "hit": false,
      "t": 108863.52750000056,
      "d": 1348.483500000002,
      "v": 127
    },
    {
      "midi": 56,
      "hit": false,
      "t": 108863.52750000056,
      "d": 1393.9380000000092,
      "v": 127
    },
    {
      "midi": 59,
      "hit": false,
      "t": 110227.16250000057,
      "d": 439.3935000000056,
      "v": 127
    },
    {
      "midi": 63,
      "hit": false,
      "t": 110227.16250000057,
      "d": 439.3935000000056,
      "v": 127
    },
    {
      "midi": 66,
      "hit": false,
      "t": 110227.16250000057,
      "d": 439.3935000000056,
      "v": 127
    },
    {
      "midi": 59,
      "hit": false,
      "t": 110681.70750000059,
      "d": 1348.483500000002,
      "v": 127
    },
    {
      "midi": 68,
      "hit": false,
      "t": 110681.70750000059,
      "d": 1348.483500000002,
      "v": 127
    },
    {
      "midi": 64,
      "hit": false,
      "t": 110681.70750000059,
      "d": 1409.0895000000164,
      "v": 127
    },
    {
      "midi": 40,
      "hit": false,
      "t": 110681.70750000059,
      "d": 1499.998500000016,
      "v": 127
    },
    {
      "midi": 59,
      "hit": false,
      "t": 112045.3425000006,
      "d": 439.3935000000056,
      "v": 127
    },
    {
      "midi": 63,
      "hit": false,
      "t": 112045.3425000006,
      "d": 454.5450000000128,
      "v": 127
    },
    {
      "midi": 66,
      "hit": false,
      "t": 112045.3425000006,
      "d": 454.5450000000128,
      "v": 127
    },
    {
      "midi": 47,
      "hit": false,
      "t": 112158.9787500006,
      "d": 424.24199999999837,
      "v": 127
    },
    {
      "midi": 59,
      "hit": false,
      "t": 112499.88750000061,
      "d": 1348.4834999999875,
      "v": 127
    },
    {
      "midi": 64,
      "hit": false,
      "t": 112499.88750000061,
      "d": 1378.786500000002,
      "v": 127
    },
    {
      "midi": 68,
      "hit": false,
      "t": 112499.88750000061,
      "d": 1378.786500000002,
      "v": 127
    },
    {
      "midi": 40,
      "hit": false,
      "t": 112727.1600000006,
      "d": 1090.9079999999958,
      "v": 127
    },
    {
      "midi": 37,
      "hit": false,
      "t": 113863.5225000006,
      "d": 424.2420000000129,
      "v": 127
    },
    {
      "midi": 54,
      "hit": false,
      "t": 113863.5225000006,
      "d": 439.39350000002014,
      "v": 127
    },
    {
      "midi": 61,
      "hit": false,
      "t": 113863.5225000006,
      "d": 439.39350000002014,
      "v": 127
    },
    {
      "midi": 66,
      "hit": false,
      "t": 113863.5225000006,
      "d": 439.39350000002014,
      "v": 127
    },
    {
      "midi": 44,
      "hit": false,
      "t": 114318.06750000063,
      "d": 1303.0290000000095,
      "v": 127
    },
    {
      "midi": 56,
      "hit": false,
      "t": 114318.06750000063,
      "d": 1348.4835000000166,
      "v": 127
    },
    {
      "midi": 59,
      "hit": false,
      "t": 114318.06750000063,
      "d": 1363.6350000000239,
      "v": 127
    },
    {
      "midi": 63,
      "hit": false,
      "t": 114318.06750000063,
      "d": 1363.6350000000239,
      "v": 127
    },
    {
      "midi": 32,
      "hit": false,
      "t": 114318.06750000063,
      "d": 1590.9075000000303,
      "v": 127
    },
    {
      "midi": 54,
      "hit": false,
      "t": 115681.70250000065,
      "d": 439.3935000000056,
      "v": 127
    },
    {
      "midi": 61,
      "hit": false,
      "t": 115681.70250000065,
      "d": 439.3935000000056,
      "v": 127
    },
    {
      "midi": 64,
      "hit": false,
      "t": 115681.70250000065,
      "d": 439.3935000000056,
      "v": 127
    },
    {
      "midi": 44,
      "hit": false,
      "t": 116136.24750000067,
      "d": 1303.028999999995,
      "v": 127
    },
    {
      "midi": 59,
      "hit": false,
      "t": 116136.24750000067,
      "d": 1348.483500000002,
      "v": 127
    },
    {
      "midi": 63,
      "hit": false,
      "t": 116136.24750000067,
      "d": 1348.483500000002,
      "v": 127
    },
    {
      "midi": 56,
      "hit": false,
      "t": 116136.24750000067,
      "d": 1393.9380000000092,
      "v": 127
    },
    {
      "midi": 59,
      "hit": false,
      "t": 117499.88250000068,
      "d": 439.3935000000056,
      "v": 127
    },
    {
      "midi": 63,
      "hit": false,
      "t": 117499.88250000068,
      "d": 439.3935000000056,
      "v": 127
    },
    {
      "midi": 66,
      "hit": false,
      "t": 117499.88250000068,
      "d": 439.3935000000056,
      "v": 127
    },
    {
      "midi": 59,
      "hit": false,
      "t": 117954.42750000069,
      "d": 1151.5140000000101,
      "v": 127
    },
    {
      "midi": 64,
      "hit": false,
      "t": 117954.42750000069,
      "d": 1151.5140000000101,
      "v": 127
    },
    {
      "midi": 68,
      "hit": false,
      "t": 117954.42750000069,
      "d": 1151.5140000000101,
      "v": 127
    },
    {
      "midi": 40,
      "hit": false,
      "t": 117954.42750000069,
      "d": 1333.3320000000094,
      "v": 127
    },
    {
      "midi": 59,
      "hit": false,
      "t": 119318.0625000007,
      "d": 439.39349999999104,
      "v": 127
    },
    {
      "midi": 63,
      "hit": false,
      "t": 119318.0625000007,
      "d": 454.54499999999825,
      "v": 127
    },
    {
      "midi": 66,
      "hit": false,
      "t": 119318.0625000007,
      "d": 454.54499999999825,
      "v": 127
    },
    {
      "midi": 47,
      "hit": false,
      "t": 119431.6987500007,
      "d": 424.24199999999837,
      "v": 127
    },
    {
      "midi": 59,
      "hit": false,
      "t": 119772.6075000007,
      "d": 1348.4834999999875,
      "v": 127
    },
    {
      "midi": 64,
      "hit": false,
      "t": 119772.6075000007,
      "d": 1378.786500000002,
      "v": 127
    },
    {
      "midi": 68,
      "hit": false,
      "t": 119772.6075000007,
      "d": 1378.786500000002,
      "v": 127
    },
    {
      "midi": 40,
      "hit": false,
      "t": 119999.88000000069,
      "d": 1090.9079999999958,
      "v": 127
    },
    {
      "midi": 37,
      "hit": false,
      "t": 121136.24250000069,
      "d": 424.2420000000129,
      "v": 127
    },
    {
      "midi": 54,
      "hit": false,
      "t": 121136.24250000069,
      "d": 439.39350000002014,
      "v": 127
    },
    {
      "midi": 61,
      "hit": false,
      "t": 121136.24250000069,
      "d": 439.39350000002014,
      "v": 127
    },
    {
      "midi": 66,
      "hit": false,
      "t": 121136.24250000069,
      "d": 439.39350000002014,
      "v": 127
    },
    {
      "midi": 44,
      "hit": false,
      "t": 121590.78750000072,
      "d": 1303.028999999995,
      "v": 127
    },
    {
      "midi": 56,
      "hit": false,
      "t": 121590.78750000072,
      "d": 1348.483500000002,
      "v": 127
    },
    {
      "midi": 59,
      "hit": false,
      "t": 121590.78750000072,
      "d": 1363.6350000000093,
      "v": 127
    },
    {
      "midi": 63,
      "hit": false,
      "t": 121590.78750000072,
      "d": 1363.6350000000093,
      "v": 127
    },
    {
      "midi": 32,
      "hit": false,
      "t": 121590.78750000072,
      "d": 1590.9075000000157,
      "v": 127
    },
    {
      "midi": 54,
      "hit": false,
      "t": 122954.42250000073,
      "d": 439.3935000000056,
      "v": 127
    },
    {
      "midi": 61,
      "hit": false,
      "t": 122954.42250000073,
      "d": 439.3935000000056,
      "v": 127
    },
    {
      "midi": 64,
      "hit": false,
      "t": 122954.42250000073,
      "d": 439.3935000000056,
      "v": 127
    },
    {
      "midi": 44,
      "hit": false,
      "t": 123408.96750000074,
      "d": 1303.028999999995,
      "v": 127
    },
    {
      "midi": 59,
      "hit": false,
      "t": 123408.96750000074,
      "d": 1348.483500000002,
      "v": 127
    },
    {
      "midi": 63,
      "hit": false,
      "t": 123408.96750000074,
      "d": 1348.483500000002,
      "v": 127
    },
    {
      "midi": 56,
      "hit": false,
      "t": 123408.96750000074,
      "d": 1393.9380000000092,
      "v": 127
    },
    {
      "midi": 59,
      "hit": false,
      "t": 124772.60250000075,
      "d": 439.3935000000056,
      "v": 127
    },
    {
      "midi": 63,
      "hit": false,
      "t": 124772.60250000075,
      "d": 439.3935000000056,
      "v": 127
    },
    {
      "midi": 66,
      "hit": false,
      "t": 124772.60250000075,
      "d": 439.3935000000056,
      "v": 127
    },
    {
      "midi": 59,
      "hit": false,
      "t": 125227.14750000076,
      "d": 1348.483500000002,
      "v": 127
    },
    {
      "midi": 68,
      "hit": false,
      "t": 125227.14750000076,
      "d": 1348.483500000002,
      "v": 127
    },
    {
      "midi": 64,
      "hit": false,
      "t": 125227.14750000076,
      "d": 1409.0895000000164,
      "v": 127
    },
    {
      "midi": 40,
      "hit": false,
      "t": 125227.14750000076,
      "d": 1499.998500000016,
      "v": 127
    },
    {
      "midi": 59,
      "hit": false,
      "t": 126590.78250000077,
      "d": 439.3935000000056,
      "v": 127
    },
    {
      "midi": 63,
      "hit": false,
      "t": 126590.78250000077,
      "d": 454.5450000000128,
      "v": 127
    },
    {
      "midi": 66,
      "hit": false,
      "t": 126590.78250000077,
      "d": 454.5450000000128,
      "v": 127
    },
    {
      "midi": 47,
      "hit": false,
      "t": 126704.41875000078,
      "d": 424.24199999999837,
      "v": 127
    },
    {
      "midi": 59,
      "hit": false,
      "t": 127045.32750000079,
      "d": 1348.4834999999875,
      "v": 127
    },
    {
      "midi": 64,
      "hit": false,
      "t": 127045.32750000079,
      "d": 1378.786500000002,
      "v": 127
    },
    {
      "midi": 68,
      "hit": false,
      "t": 127045.32750000079,
      "d": 1378.786500000002,
      "v": 127
    },
    {
      "midi": 40,
      "hit": false,
      "t": 127272.60000000078,
      "d": 1090.9079999999958,
      "v": 127
    },
    {
      "midi": 37,
      "hit": false,
      "t": 128408.96250000078,
      "d": 424.2420000000129,
      "v": 127
    },
    {
      "midi": 54,
      "hit": false,
      "t": 128408.96250000078,
      "d": 439.39350000002014,
      "v": 127
    },
    {
      "midi": 61,
      "hit": false,
      "t": 128408.96250000078,
      "d": 439.39350000002014,
      "v": 127
    },
    {
      "midi": 66,
      "hit": false,
      "t": 128408.96250000078,
      "d": 439.39350000002014,
      "v": 127
    },
    {
      "midi": 44,
      "hit": false,
      "t": 128863.50750000081,
      "d": 1303.0290000000095,
      "v": 127
    },
    {
      "midi": 56,
      "hit": false,
      "t": 128863.50750000081,
      "d": 1348.4835000000166,
      "v": 127
    },
    {
      "midi": 59,
      "hit": false,
      "t": 128863.50750000081,
      "d": 1363.6350000000239,
      "v": 127
    },
    {
      "midi": 63,
      "hit": false,
      "t": 128863.50750000081,
      "d": 1363.6350000000239,
      "v": 127
    },
    {
      "midi": 32,
      "hit": false,
      "t": 128863.50750000081,
      "d": 1590.9075000000303,
      "v": 127
    },
    {
      "midi": 54,
      "hit": false,
      "t": 130227.14250000083,
      "d": 439.3935000000056,
      "v": 127
    },
    {
      "midi": 61,
      "hit": false,
      "t": 130227.14250000083,
      "d": 439.3935000000056,
      "v": 127
    },
    {
      "midi": 64,
      "hit": false,
      "t": 130227.14250000083,
      "d": 439.3935000000056,
      "v": 127
    },
    {
      "midi": 44,
      "hit": false,
      "t": 130681.68750000084,
      "d": 1303.0290000000095,
      "v": 127
    },
    {
      "midi": 59,
      "hit": false,
      "t": 130681.68750000084,
      "d": 1348.483500000002,
      "v": 127
    },
    {
      "midi": 63,
      "hit": false,
      "t": 130681.68750000084,
      "d": 1348.483500000002,
      "v": 127
    },
    {
      "midi": 56,
      "hit": false,
      "t": 130681.68750000084,
      "d": 1393.9380000000237,
      "v": 127
    },
    {
      "midi": 59,
      "hit": false,
      "t": 132045.32250000085,
      "d": 439.3935000000056,
      "v": 127
    },
    {
      "midi": 63,
      "hit": false,
      "t": 132045.32250000085,
      "d": 439.3935000000056,
      "v": 127
    },
    {
      "midi": 66,
      "hit": false,
      "t": 132045.32250000085,
      "d": 439.3935000000056,
      "v": 127
    },
    {
      "midi": 59,
      "hit": false,
      "t": 132499.86750000087,
      "d": 1121.2109999999811,
      "v": 127
    },
    {
      "midi": 64,
      "hit": false,
      "t": 132499.86750000087,
      "d": 1151.5139999999956,
      "v": 127
    },
    {
      "midi": 68,
      "hit": false,
      "t": 132499.86750000087,
      "d": 1151.5139999999956,
      "v": 127
    },
    {
      "midi": 40,
      "hit": false,
      "t": 132499.86750000087,
      "d": 1499.998500000016,
      "v": 127
    },
    {
      "midi": 59,
      "hit": false,
      "t": 133863.50250000088,
      "d": 439.3935000000056,
      "v": 127
    },
    {
      "midi": 63,
      "hit": false,
      "t": 133863.50250000088,
      "d": 454.5450000000128,
      "v": 127
    },
    {
      "midi": 66,
      "hit": false,
      "t": 133863.50250000088,
      "d": 454.5450000000128,
      "v": 127
    },
    {
      "midi": 47,
      "hit": false,
      "t": 133977.1387500009,
      "d": 424.24199999999837,
      "v": 127
    },
    {
      "midi": 59,
      "hit": false,
      "t": 134318.0475000009,
      "d": 1348.483500000002,
      "v": 127
    },
    {
      "midi": 64,
      "hit": false,
      "t": 134318.0475000009,
      "d": 1378.7865000000165,
      "v": 127
    },
    {
      "midi": 68,
      "hit": false,
      "t": 134318.0475000009,
      "d": 1378.7865000000165,
      "v": 127
    },
    {
      "midi": 40,
      "hit": false,
      "t": 134545.32000000088,
      "d": 1090.9079999999958,
      "v": 127
    },
    {
      "midi": 37,
      "hit": false,
      "t": 135681.6825000009,
      "d": 424.24199999999837,
      "v": 127
    },
    {
      "midi": 54,
      "hit": false,
      "t": 135681.6825000009,
      "d": 439.3935000000056,
      "v": 127
    },
    {
      "midi": 61,
      "hit": false,
      "t": 135681.6825000009,
      "d": 439.3935000000056,
      "v": 127
    },
    {
      "midi": 66,
      "hit": false,
      "t": 135681.6825000009,
      "d": 439.3935000000056,
      "v": 127
    },
    {
      "midi": 44,
      "hit": false,
      "t": 136136.2275000009,
      "d": 1303.0290000000095,
      "v": 127
    },
    {
      "midi": 56,
      "hit": false,
      "t": 136136.2275000009,
      "d": 1348.4835000000312,
      "v": 127
    },
    {
      "midi": 59,
      "hit": false,
      "t": 136136.2275000009,
      "d": 1363.6350000000384,
      "v": 127
    },
    {
      "midi": 63,
      "hit": false,
      "t": 136136.2275000009,
      "d": 1363.6350000000384,
      "v": 127
    },
    {
      "midi": 32,
      "hit": false,
      "t": 136136.2275000009,
      "d": 1590.9075000000303,
      "v": 127
    },
    {
      "midi": 54,
      "hit": false,
      "t": 137499.86250000095,
      "d": 439.3935000000056,
      "v": 127
    },
    {
      "midi": 61,
      "hit": false,
      "t": 137499.86250000095,
      "d": 439.3935000000056,
      "v": 127
    },
    {
      "midi": 64,
      "hit": false,
      "t": 137499.86250000095,
      "d": 439.3935000000056,
      "v": 127
    },
    {
      "midi": 44,
      "hit": false,
      "t": 137954.40750000096,
      "d": 1303.0290000000095,
      "v": 127
    },
    {
      "midi": 59,
      "hit": false,
      "t": 137954.40750000096,
      "d": 1348.483500000002,
      "v": 127
    },
    {
      "midi": 63,
      "hit": false,
      "t": 137954.40750000096,
      "d": 1348.483500000002,
      "v": 127
    },
    {
      "midi": 56,
      "hit": false,
      "t": 137954.40750000096,
      "d": 1393.9380000000237,
      "v": 127
    },
    {
      "midi": 59,
      "hit": false,
      "t": 139318.04250000097,
      "d": 439.3935000000056,
      "v": 127
    },
    {
      "midi": 63,
      "hit": false,
      "t": 139318.04250000097,
      "d": 439.3935000000056,
      "v": 127
    },
    {
      "midi": 66,
      "hit": false,
      "t": 139318.04250000097,
      "d": 439.3935000000056,
      "v": 127
    },
    {
      "midi": 59,
      "hit": false,
      "t": 139772.58750000098,
      "d": 1348.483500000002,
      "v": 127
    },
    {
      "midi": 68,
      "hit": false,
      "t": 139772.58750000098,
      "d": 1348.483500000002,
      "v": 127
    },
    {
      "midi": 64,
      "hit": false,
      "t": 139772.58750000098,
      "d": 1409.0895000000019,
      "v": 127
    },
    {
      "midi": 40,
      "hit": false,
      "t": 139772.58750000098,
      "d": 1499.998499999987,
      "v": 127
    },
    {
      "midi": 59,
      "hit": false,
      "t": 141136.222500001,
      "d": 439.3934999999765,
      "v": 127
    },
    {
      "midi": 63,
      "hit": false,
      "t": 141136.222500001,
      "d": 454.5449999999837,
      "v": 127
    },
    {
      "midi": 66,
      "hit": false,
      "t": 141136.222500001,
      "d": 454.5449999999837,
      "v": 127
    },
    {
      "midi": 47,
      "hit": false,
      "t": 141249.85875000097,
      "d": 424.24199999999837,
      "v": 127
    },
    {
      "midi": 59,
      "hit": false,
      "t": 141590.76750000098,
      "d": 1348.483500000002,
      "v": 127
    },
    {
      "midi": 64,
      "hit": false,
      "t": 141590.76750000098,
      "d": 1378.7865000000165,
      "v": 127
    },
    {
      "midi": 68,
      "hit": false,
      "t": 141590.76750000098,
      "d": 1378.7865000000165,
      "v": 127
    },
    {
      "midi": 40,
      "hit": false,
      "t": 141818.04000000097,
      "d": 1090.9079999999958,
      "v": 127
    },
    {
      "midi": 37,
      "hit": false,
      "t": 142954.402500001,
      "d": 424.24199999999837,
      "v": 127
    },
    {
      "midi": 54,
      "hit": false,
      "t": 142954.402500001,
      "d": 439.3935000000056,
      "v": 127
    },
    {
      "midi": 61,
      "hit": false,
      "t": 142954.402500001,
      "d": 439.3935000000056,
      "v": 127
    },
    {
      "midi": 66,
      "hit": false,
      "t": 142954.402500001,
      "d": 439.3935000000056,
      "v": 127
    },
    {
      "midi": 44,
      "hit": false,
      "t": 143408.947500001,
      "d": 1303.0289999999804,
      "v": 127
    },
    {
      "midi": 56,
      "hit": false,
      "t": 143408.947500001,
      "d": 1348.483499999973,
      "v": 127
    },
    {
      "midi": 59,
      "hit": false,
      "t": 143408.947500001,
      "d": 1363.6349999999802,
      "v": 127
    },
    {
      "midi": 63,
      "hit": false,
      "t": 143408.947500001,
      "d": 1363.6349999999802,
      "v": 127
    },
    {
      "midi": 32,
      "hit": false,
      "t": 143408.947500001,
      "d": 1590.907499999972,
      "v": 127
    },
    {
      "midi": 54,
      "hit": false,
      "t": 144772.58250000098,
      "d": 439.3935000000056,
      "v": 127
    },
    {
      "midi": 61,
      "hit": false,
      "t": 144772.58250000098,
      "d": 439.3935000000056,
      "v": 127
    },
    {
      "midi": 64,
      "hit": false,
      "t": 144772.58250000098,
      "d": 439.3935000000056,
      "v": 127
    },
    {
      "midi": 44,
      "hit": false,
      "t": 145227.127500001,
      "d": 1303.0290000000095,
      "v": 127
    },
    {
      "midi": 59,
      "hit": false,
      "t": 145227.127500001,
      "d": 1348.483500000002,
      "v": 127
    },
    {
      "midi": 63,
      "hit": false,
      "t": 145227.127500001,
      "d": 1348.483500000002,
      "v": 127
    },
    {
      "midi": 56,
      "hit": false,
      "t": 145227.127500001,
      "d": 1393.9380000000237,
      "v": 127
    },
    {
      "midi": 59,
      "hit": false,
      "t": 146590.762500001,
      "d": 439.3935000000056,
      "v": 127
    },
    {
      "midi": 63,
      "hit": false,
      "t": 146590.762500001,
      "d": 439.3935000000056,
      "v": 127
    },
    {
      "midi": 66,
      "hit": false,
      "t": 146590.762500001,
      "d": 439.3935000000056,
      "v": 127
    },
    {
      "midi": 68,
      "hit": false,
      "t": 147045.307500001,
      "d": 1318.1804999999877,
      "v": 127
    },
    {
      "midi": 59,
      "hit": false,
      "t": 147045.307500001,
      "d": 1348.483500000002,
      "v": 127
    },
    {
      "midi": 64,
      "hit": false,
      "t": 147045.307500001,
      "d": 1378.7865000000165,
      "v": 127
    },
    {
      "midi": 40,
      "hit": false,
      "t": 147045.307500001,
      "d": 1530.3015000000305,
      "v": 127
    },
    {
      "midi": 59,
      "hit": false,
      "t": 148408.94250000102,
      "d": 439.3935000000347,
      "v": 127
    },
    {
      "midi": 63,
      "hit": false,
      "t": 148408.94250000102,
      "d": 454.5450000000419,
      "v": 127
    },
    {
      "midi": 66,
      "hit": false,
      "t": 148408.94250000102,
      "d": 454.5450000000419,
      "v": 127
    },
    {
      "midi": 47,
      "hit": false,
      "t": 148522.57875000103,
      "d": 424.2420000000275,
      "v": 127
    },
    {
      "midi": 59,
      "hit": false,
      "t": 148863.48750000107,
      "d": 1348.483500000002,
      "v": 127
    },
    {
      "midi": 64,
      "hit": false,
      "t": 148863.48750000107,
      "d": 1378.7865000000165,
      "v": 127
    },
    {
      "midi": 68,
      "hit": false,
      "t": 148863.48750000107,
      "d": 1378.7865000000165,
      "v": 127
    },
    {
      "midi": 40,
      "hit": false,
      "t": 149090.76000000106,
      "d": 1090.9079999999958,
      "v": 127
    },
    {
      "midi": 37,
      "hit": false,
      "t": 150227.12250000107,
      "d": 424.24199999999837,
      "v": 127
    },
    {
      "midi": 54,
      "hit": false,
      "t": 150227.12250000107,
      "d": 439.3935000000056,
      "v": 127
    },
    {
      "midi": 61,
      "hit": false,
      "t": 150227.12250000107,
      "d": 439.3935000000056,
      "v": 127
    },
    {
      "midi": 66,
      "hit": false,
      "t": 150227.12250000107,
      "d": 439.3935000000056,
      "v": 127
    },
    {
      "midi": 44,
      "hit": false,
      "t": 150681.6675000011,
      "d": 1303.0290000000095,
      "v": 127
    },
    {
      "midi": 56,
      "hit": false,
      "t": 150681.6675000011,
      "d": 1348.4835000000312,
      "v": 127
    },
    {
      "midi": 59,
      "hit": false,
      "t": 150681.6675000011,
      "d": 1363.6350000000384,
      "v": 127
    },
    {
      "midi": 63,
      "hit": false,
      "t": 150681.6675000011,
      "d": 1363.6350000000384,
      "v": 127
    },
    {
      "midi": 32,
      "hit": false,
      "t": 150681.6675000011,
      "d": 1590.9075000000303,
      "v": 127
    },
    {
      "midi": 54,
      "hit": false,
      "t": 152045.30250000113,
      "d": 439.3935000000056,
      "v": 127
    },
    {
      "midi": 61,
      "hit": false,
      "t": 152045.30250000113,
      "d": 439.3935000000056,
      "v": 127
    },
    {
      "midi": 64,
      "hit": false,
      "t": 152045.30250000113,
      "d": 439.3935000000056,
      "v": 127
    },
    {
      "midi": 44,
      "hit": false,
      "t": 152499.84750000114,
      "d": 1303.0290000000095,
      "v": 127
    },
    {
      "midi": 59,
      "hit": false,
      "t": 152499.84750000114,
      "d": 1348.483500000002,
      "v": 127
    },
    {
      "midi": 63,
      "hit": false,
      "t": 152499.84750000114,
      "d": 1348.483500000002,
      "v": 127
    },
    {
      "midi": 56,
      "hit": false,
      "t": 152499.84750000114,
      "d": 1393.9380000000237,
      "v": 127
    },
    {
      "midi": 59,
      "hit": false,
      "t": 153863.48250000115,
      "d": 439.3935000000056,
      "v": 127
    },
    {
      "midi": 63,
      "hit": false,
      "t": 153863.48250000115,
      "d": 439.3935000000056,
      "v": 127
    },
    {
      "midi": 66,
      "hit": false,
      "t": 153863.48250000115,
      "d": 439.3935000000056,
      "v": 127
    },
    {
      "midi": 59,
      "hit": false,
      "t": 154318.02750000116,
      "d": 1348.483500000002,
      "v": 127
    },
    {
      "midi": 68,
      "hit": false,
      "t": 154318.02750000116,
      "d": 1348.483500000002,
      "v": 127
    },
    {
      "midi": 64,
      "hit": false,
      "t": 154318.02750000116,
      "d": 1409.0895000000019,
      "v": 127
    },
    {
      "midi": 40,
      "hit": false,
      "t": 154318.02750000116,
      "d": 1499.998499999987,
      "v": 127
    },
    {
      "midi": 59,
      "hit": false,
      "t": 155681.66250000117,
      "d": 439.3934999999765,
      "v": 127
    },
    {
      "midi": 63,
      "hit": false,
      "t": 155681.66250000117,
      "d": 454.5449999999837,
      "v": 127
    },
    {
      "midi": 66,
      "hit": false,
      "t": 155681.66250000117,
      "d": 454.5449999999837,
      "v": 127
    },
    {
      "midi": 47,
      "hit": false,
      "t": 155795.29875000115,
      "d": 424.24199999999837,
      "v": 127
    },
    {
      "midi": 59,
      "hit": false,
      "t": 156136.20750000115,
      "d": 1348.483500000002,
      "v": 127
    },
    {
      "midi": 64,
      "hit": false,
      "t": 156136.20750000115,
      "d": 1378.7865000000165,
      "v": 127
    },
    {
      "midi": 68,
      "hit": false,
      "t": 156136.20750000115,
      "d": 1378.7865000000165,
      "v": 127
    },
    {
      "midi": 40,
      "hit": false,
      "t": 156363.48000000115,
      "d": 1090.9079999999958,
      "v": 127
    },
    {
      "midi": 37,
      "hit": false,
      "t": 157499.84250000116,
      "d": 424.24199999999837,
      "v": 127
    },
    {
      "midi": 54,
      "hit": false,
      "t": 157499.84250000116,
      "d": 439.3935000000056,
      "v": 127
    },
    {
      "midi": 61,
      "hit": false,
      "t": 157499.84250000116,
      "d": 439.3935000000056,
      "v": 127
    },
    {
      "midi": 66,
      "hit": false,
      "t": 157499.84250000116,
      "d": 439.3935000000056,
      "v": 127
    },
    {
      "midi": 44,
      "hit": false,
      "t": 157954.38750000118,
      "d": 1303.0289999999804,
      "v": 127
    },
    {
      "midi": 56,
      "hit": false,
      "t": 157954.38750000118,
      "d": 1348.483499999973,
      "v": 127
    },
    {
      "midi": 59,
      "hit": false,
      "t": 157954.38750000118,
      "d": 1363.6349999999802,
      "v": 127
    },
    {
      "midi": 63,
      "hit": false,
      "t": 157954.38750000118,
      "d": 1363.6349999999802,
      "v": 127
    },
    {
      "midi": 32,
      "hit": false,
      "t": 157954.38750000118,
      "d": 1590.907499999972,
      "v": 127
    },
    {
      "midi": 54,
      "hit": false,
      "t": 159318.02250000116,
      "d": 439.3935000000056,
      "v": 127
    },
    {
      "midi": 61,
      "hit": false,
      "t": 159318.02250000116,
      "d": 439.3935000000056,
      "v": 127
    },
    {
      "midi": 64,
      "hit": false,
      "t": 159318.02250000116,
      "d": 439.3935000000056,
      "v": 127
    },
    {
      "midi": 44,
      "hit": false,
      "t": 159772.56750000117,
      "d": 1303.0290000000095,
      "v": 127
    },
    {
      "midi": 59,
      "hit": false,
      "t": 159772.56750000117,
      "d": 1348.483500000002,
      "v": 127
    },
    {
      "midi": 63,
      "hit": false,
      "t": 159772.56750000117,
      "d": 1348.483500000002,
      "v": 127
    },
    {
      "midi": 56,
      "hit": false,
      "t": 159772.56750000117,
      "d": 1393.9380000000237,
      "v": 127
    },
    {
      "midi": 59,
      "hit": false,
      "t": 161136.20250000118,
      "d": 439.3935000000056,
      "v": 127
    },
    {
      "midi": 63,
      "hit": false,
      "t": 161136.20250000118,
      "d": 439.3935000000056,
      "v": 127
    },
    {
      "midi": 66,
      "hit": false,
      "t": 161136.20250000118,
      "d": 439.3935000000056,
      "v": 127
    },
    {
      "midi": 68,
      "hit": false,
      "t": 161590.7475000012,
      "d": 1333.3319999999949,
      "v": 127
    },
    {
      "midi": 59,
      "hit": false,
      "t": 161590.7475000012,
      "d": 1348.483500000002,
      "v": 127
    },
    {
      "midi": 64,
      "hit": false,
      "t": 161590.7475000012,
      "d": 1363.6350000000093,
      "v": 127
    },
    {
      "midi": 59,
      "hit": false,
      "t": 162954.3825000012,
      "d": 439.3935000000056,
      "v": 127
    },
    {
      "midi": 63,
      "hit": false,
      "t": 162954.3825000012,
      "d": 454.5450000000128,
      "v": 127
    },
    {
      "midi": 66,
      "hit": false,
      "t": 162954.3825000012,
      "d": 454.5450000000128,
      "v": 127
    },
    {
      "midi": 47,
      "hit": false,
      "t": 163068.0187500012,
      "d": 424.24199999999837,
      "v": 127
    },
    {
      "midi": 59,
      "hit": false,
      "t": 163408.9275000012,
      "d": 1348.483500000002,
      "v": 127
    },
    {
      "midi": 64,
      "hit": false,
      "t": 163408.9275000012,
      "d": 1378.7865000000165,
      "v": 127
    },
    {
      "midi": 68,
      "hit": false,
      "t": 163408.9275000012,
      "d": 1378.7865000000165,
      "v": 127
    },
    {
      "midi": 40,
      "hit": false,
      "t": 163636.2000000012,
      "d": 1090.9079999999958,
      "v": 127
    },
    {
      "midi": 37,
      "hit": false,
      "t": 164772.56250000122,
      "d": 424.24199999999837,
      "v": 127
    },
    {
      "midi": 54,
      "hit": false,
      "t": 164772.56250000122,
      "d": 439.3935000000056,
      "v": 127
    },
    {
      "midi": 61,
      "hit": false,
      "t": 164772.56250000122,
      "d": 439.3935000000056,
      "v": 127
    },
    {
      "midi": 66,
      "hit": false,
      "t": 164772.56250000122,
      "d": 439.3935000000056,
      "v": 127
    },
    {
      "midi": 44,
      "hit": false,
      "t": 165227.10750000124,
      "d": 1303.0290000000095,
      "v": 127
    },
    {
      "midi": 56,
      "hit": false,
      "t": 165227.10750000124,
      "d": 1348.4835000000312,
      "v": 127
    },
    {
      "midi": 59,
      "hit": false,
      "t": 165227.10750000124,
      "d": 1363.6350000000384,
      "v": 127
    },
    {
      "midi": 63,
      "hit": false,
      "t": 165227.10750000124,
      "d": 1363.6350000000384,
      "v": 127
    },
    {
      "midi": 32,
      "hit": false,
      "t": 165227.10750000124,
      "d": 1590.9075000000303,
      "v": 127
    },
    {
      "midi": 54,
      "hit": false,
      "t": 166590.74250000127,
      "d": 439.3935000000056,
      "v": 127
    },
    {
      "midi": 61,
      "hit": false,
      "t": 166590.74250000127,
      "d": 439.3935000000056,
      "v": 127
    },
    {
      "midi": 64,
      "hit": false,
      "t": 166590.74250000127,
      "d": 439.3935000000056,
      "v": 127
    },
    {
      "midi": 44,
      "hit": false,
      "t": 167045.2875000013,
      "d": 1303.0290000000095,
      "v": 127
    },
    {
      "midi": 59,
      "hit": false,
      "t": 167045.2875000013,
      "d": 1348.483500000002,
      "v": 127
    },
    {
      "midi": 63,
      "hit": false,
      "t": 167045.2875000013,
      "d": 1348.483500000002,
      "v": 127
    },
    {
      "midi": 56,
      "hit": false,
      "t": 167045.2875000013,
      "d": 1393.9380000000237,
      "v": 127
    },
    {
      "midi": 59,
      "hit": false,
      "t": 168408.9225000013,
      "d": 439.3935000000056,
      "v": 127
    },
    {
      "midi": 63,
      "hit": false,
      "t": 168408.9225000013,
      "d": 439.3935000000056,
      "v": 127
    },
    {
      "midi": 66,
      "hit": false,
      "t": 168408.9225000013,
      "d": 439.3935000000056,
      "v": 127
    },
    {
      "midi": 59,
      "hit": false,
      "t": 168863.4675000013,
      "d": 1348.483500000002,
      "v": 127
    },
    {
      "midi": 68,
      "hit": false,
      "t": 168863.4675000013,
      "d": 1348.483500000002,
      "v": 127
    },
    {
      "midi": 64,
      "hit": false,
      "t": 168863.4675000013,
      "d": 1409.0895000000019,
      "v": 127
    },
    {
      "midi": 40,
      "hit": false,
      "t": 168863.4675000013,
      "d": 1499.998499999987,
      "v": 127
    },
    {
      "midi": 59,
      "hit": false,
      "t": 170227.10250000132,
      "d": 439.3934999999765,
      "v": 127
    },
    {
      "midi": 63,
      "hit": false,
      "t": 170227.10250000132,
      "d": 454.5449999999837,
      "v": 127
    },
    {
      "midi": 66,
      "hit": false,
      "t": 170227.10250000132,
      "d": 454.5449999999837,
      "v": 127
    },
    {
      "midi": 47,
      "hit": false,
      "t": 170340.7387500013,
      "d": 424.24199999999837,
      "v": 127
    },
    {
      "midi": 59,
      "hit": false,
      "t": 170681.6475000013,
      "d": 1348.483500000002,
      "v": 127
    },
    {
      "midi": 64,
      "hit": false,
      "t": 170681.6475000013,
      "d": 1378.7865000000165,
      "v": 127
    },
    {
      "midi": 68,
      "hit": false,
      "t": 170681.6475000013,
      "d": 1378.7865000000165,
      "v": 127
    },
    {
      "midi": 40,
      "hit": false,
      "t": 170908.9200000013,
      "d": 1090.9079999999958,
      "v": 127
    },
    {
      "midi": 37,
      "hit": false,
      "t": 172045.2825000013,
      "d": 424.24199999999837,
      "v": 127
    },
    {
      "midi": 54,
      "hit": false,
      "t": 172045.2825000013,
      "d": 439.3935000000056,
      "v": 127
    },
    {
      "midi": 61,
      "hit": false,
      "t": 172045.2825000013,
      "d": 439.3935000000056,
      "v": 127
    },
    {
      "midi": 66,
      "hit": false,
      "t": 172045.2825000013,
      "d": 439.3935000000056,
      "v": 127
    },
    {
      "midi": 44,
      "hit": false,
      "t": 172499.82750000132,
      "d": 1303.0289999999804,
      "v": 127
    },
    {
      "midi": 56,
      "hit": false,
      "t": 172499.82750000132,
      "d": 1348.483499999973,
      "v": 127
    },
    {
      "midi": 59,
      "hit": false,
      "t": 172499.82750000132,
      "d": 1363.6349999999802,
      "v": 127
    },
    {
      "midi": 63,
      "hit": false,
      "t": 172499.82750000132,
      "d": 1363.6349999999802,
      "v": 127
    },
    {
      "midi": 32,
      "hit": false,
      "t": 172499.82750000132,
      "d": 1590.907499999972,
      "v": 127
    },
    {
      "midi": 54,
      "hit": false,
      "t": 173863.4625000013,
      "d": 439.3935000000056,
      "v": 127
    },
    {
      "midi": 61,
      "hit": false,
      "t": 173863.4625000013,
      "d": 439.3935000000056,
      "v": 127
    },
    {
      "midi": 64,
      "hit": false,
      "t": 173863.4625000013,
      "d": 439.3935000000056,
      "v": 127
    },
    {
      "midi": 44,
      "hit": false,
      "t": 174318.00750000132,
      "d": 1303.0290000000095,
      "v": 127
    },
    {
      "midi": 59,
      "hit": false,
      "t": 174318.00750000132,
      "d": 1348.483500000002,
      "v": 127
    },
    {
      "midi": 63,
      "hit": false,
      "t": 174318.00750000132,
      "d": 1348.483500000002,
      "v": 127
    },
    {
      "midi": 56,
      "hit": false,
      "t": 174318.00750000132,
      "d": 1393.9380000000237,
      "v": 127
    },
    {
      "midi": 59,
      "hit": false,
      "t": 175681.64250000133,
      "d": 439.3935000000056,
      "v": 127
    },
    {
      "midi": 63,
      "hit": false,
      "t": 175681.64250000133,
      "d": 439.3935000000056,
      "v": 127
    },
    {
      "midi": 66,
      "hit": false,
      "t": 175681.64250000133,
      "d": 439.3935000000056,
      "v": 127
    },
    {
      "midi": 68,
      "hit": false,
      "t": 176136.18750000134,
      "d": 1333.3319999999949,
      "v": 127
    },
    {
      "midi": 59,
      "hit": false,
      "t": 176136.18750000134,
      "d": 1348.483500000002,
      "v": 127
    },
    {
      "midi": 64,
      "hit": false,
      "t": 176136.18750000134,
      "d": 1363.6350000000093,
      "v": 127
    },
    {
      "midi": 40,
      "hit": false,
      "t": 205454.34000000136,
      "d": 1803.028500000015,
      "v": 127
    },
    {
      "midi": 47,
      "hit": false,
      "t": 205681.61250000136,
      "d": 1787.8770000000368,
      "v": 127
    },
    {
      "midi": 56,
      "hit": false,
      "t": 205908.88500000135,
      "d": 678.0296249999956,
      "v": 127
    },
    {
      "midi": 59,
      "hit": false,
      "t": 205908.88500000135,
      "d": 678.0296249999956,
      "v": 127
    },
    {
      "midi": 68,
      "hit": false,
      "t": 205908.88500000135,
      "d": 678.0296249999956,
      "v": 127
    },
    {
      "midi": 71,
      "hit": false,
      "t": 205908.88500000135,
      "d": 678.0296249999956,
      "v": 127
    },
    {
      "midi": 66,
      "hit": false,
      "t": 206136.15750000134,
      "d": 878.7870000000112,
      "v": 127
    },
    {
      "midi": 70,
      "hit": false,
      "t": 206136.15750000134,
      "d": 878.7870000000112,
      "v": 127
    },
    {
      "midi": 54,
      "hit": false,
      "t": 206136.15750000134,
      "d": 1090.908000000025,
      "v": 127
    },
    {
      "midi": 58,
      "hit": false,
      "t": 206136.15750000134,
      "d": 1151.5140000000538,
      "v": 127
    },
    {
      "midi": 56,
      "hit": false,
      "t": 206590.70250000135,
      "d": 878.7870000000403,
      "v": 127
    },
    {
      "midi": 59,
      "hit": false,
      "t": 206590.70250000135,
      "d": 878.7870000000403,
      "v": 127
    },
    {
      "midi": 68,
      "hit": false,
      "t": 206590.70250000135,
      "d": 878.7870000000403,
      "v": 127
    },
    {
      "midi": 71,
      "hit": false,
      "t": 206590.70250000135,
      "d": 878.7870000000403,
      "v": 127
    },
    {
      "midi": 40,
      "hit": false,
      "t": 207272.5200000014,
      "d": 1803.028500000015,
      "v": 127
    },
    {
      "midi": 47,
      "hit": false,
      "t": 207499.7925000014,
      "d": 1378.7864999999874,
      "v": 127
    },
    {
      "midi": 68,
      "hit": false,
      "t": 207727.0650000014,
      "d": 651.5144999999902,
      "v": 127
    },
    {
      "midi": 71,
      "hit": false,
      "t": 207727.0650000014,
      "d": 651.5144999999902,
      "v": 127
    },
    {
      "midi": 56,
      "hit": false,
      "t": 207727.0650000014,
      "d": 678.0296249999956,
      "v": 127
    },
    {
      "midi": 59,
      "hit": false,
      "t": 207727.0650000014,
      "d": 678.0296249999956,
      "v": 127
    },
    {
      "midi": 54,
      "hit": false,
      "t": 207954.3375000014,
      "d": 681.8175000000047,
      "v": 127
    },
    {
      "midi": 58,
      "hit": false,
      "t": 207954.3375000014,
      "d": 681.8175000000047,
      "v": 127
    },
    {
      "midi": 66,
      "hit": false,
      "t": 207954.3375000014,
      "d": 878.7870000000112,
      "v": 127
    },
    {
      "midi": 70,
      "hit": false,
      "t": 207954.3375000014,
      "d": 878.7870000000112,
      "v": 127
    },
    {
      "midi": 56,
      "hit": false,
      "t": 208408.8825000014,
      "d": 681.8175000000047,
      "v": 127
    },
    {
      "midi": 59,
      "hit": false,
      "t": 208408.8825000014,
      "d": 878.7870000000112,
      "v": 127
    },
    {
      "midi": 68,
      "hit": false,
      "t": 208408.8825000014,
      "d": 878.7870000000112,
      "v": 127
    },
    {
      "midi": 71,
      "hit": false,
      "t": 208408.8825000014,
      "d": 878.7870000000112,
      "v": 127
    },
    {
      "midi": 44,
      "hit": false,
      "t": 209090.7000000014,
      "d": 1803.028500000015,
      "v": 127
    },
    {
      "midi": 51,
      "hit": false,
      "t": 209317.97250000143,
      "d": 1787.8770000000077,
      "v": 127
    },
    {
      "midi": 56,
      "hit": false,
      "t": 209545.24500000142,
      "d": 678.0296249999956,
      "v": 127
    },
    {
      "midi": 59,
      "hit": false,
      "t": 209545.24500000142,
      "d": 678.0296249999956,
      "v": 127
    },
    {
      "midi": 63,
      "hit": false,
      "t": 209545.24500000142,
      "d": 678.0296249999956,
      "v": 127
    },
    {
      "midi": 68,
      "hit": false,
      "t": 209545.24500000142,
      "d": 678.0296249999956,
      "v": 127
    },
    {
      "midi": 71,
      "hit": false,
      "t": 209545.24500000142,
      "d": 678.0296249999956,
      "v": 127
    },
    {
      "midi": 54,
      "hit": false,
      "t": 209772.5175000014,
      "d": 681.8175000000047,
      "v": 127
    },
    {
      "midi": 58,
      "hit": false,
      "t": 209772.5175000014,
      "d": 681.8175000000047,
      "v": 127
    },
    {
      "midi": 61,
      "hit": false,
      "t": 209772.5175000014,
      "d": 878.7870000000112,
      "v": 127
    },
    {
      "midi": 66,
      "hit": false,
      "t": 209772.5175000014,
      "d": 878.7870000000112,
      "v": 127
    },
    {
      "midi": 70,
      "hit": false,
      "t": 209772.5175000014,
      "d": 878.7870000000112,
      "v": 127
    },
    {
      "midi": 56,
      "hit": false,
      "t": 210227.06250000143,
      "d": 878.7870000000112,
      "v": 127
    },
    {
      "midi": 59,
      "hit": false,
      "t": 210227.06250000143,
      "d": 878.7870000000112,
      "v": 127
    },
    {
      "midi": 63,
      "hit": false,
      "t": 210227.06250000143,
      "d": 878.7870000000112,
      "v": 127
    },
    {
      "midi": 68,
      "hit": false,
      "t": 210227.06250000143,
      "d": 878.7870000000112,
      "v": 127
    },
    {
      "midi": 71,
      "hit": false,
      "t": 210227.06250000143,
      "d": 878.7870000000112,
      "v": 127
    },
    {
      "midi": 44,
      "hit": false,
      "t": 210908.88000000143,
      "d": 1893.937500000029,
      "v": 127
    },
    {
      "midi": 51,
      "hit": false,
      "t": 211136.15250000145,
      "d": 1787.8770000000077,
      "v": 127
    },
    {
      "midi": 56,
      "hit": false,
      "t": 211363.42500000144,
      "d": 678.0296249999956,
      "v": 127
    },
    {
      "midi": 59,
      "hit": false,
      "t": 211363.42500000144,
      "d": 678.0296249999956,
      "v": 127
    },
    {
      "midi": 63,
      "hit": false,
      "t": 211363.42500000144,
      "d": 678.0296249999956,
      "v": 127
    },
    {
      "midi": 68,
      "hit": false,
      "t": 211363.42500000144,
      "d": 678.0296249999956,
      "v": 127
    },
    {
      "midi": 71,
      "hit": false,
      "t": 211363.42500000144,
      "d": 678.0296249999956,
      "v": 127
    },
    {
      "midi": 54,
      "hit": false,
      "t": 211590.69750000144,
      "d": 878.7870000000112,
      "v": 127
    },
    {
      "midi": 58,
      "hit": false,
      "t": 211590.69750000144,
      "d": 878.7870000000112,
      "v": 127
    },
    {
      "midi": 61,
      "hit": false,
      "t": 211590.69750000144,
      "d": 878.7870000000112,
      "v": 127
    },
    {
      "midi": 66,
      "hit": false,
      "t": 211590.69750000144,
      "d": 878.7870000000112,
      "v": 127
    },
    {
      "midi": 70,
      "hit": false,
      "t": 211590.69750000144,
      "d": 878.7870000000112,
      "v": 127
    },
    {
      "midi": 56,
      "hit": false,
      "t": 212045.24250000145,
      "d": 878.7870000000112,
      "v": 127
    },
    {
      "midi": 59,
      "hit": false,
      "t": 212045.24250000145,
      "d": 878.7870000000112,
      "v": 127
    },
    {
      "midi": 63,
      "hit": false,
      "t": 212045.24250000145,
      "d": 878.7870000000112,
      "v": 127
    },
    {
      "midi": 68,
      "hit": false,
      "t": 212045.24250000145,
      "d": 878.7870000000112,
      "v": 127
    },
    {
      "midi": 71,
      "hit": false,
      "t": 212045.24250000145,
      "d": 878.7870000000112,
      "v": 127
    },
    {
      "midi": 40,
      "hit": false,
      "t": 212727.06000000145,
      "d": 1803.028500000044,
      "v": 127
    },
    {
      "midi": 47,
      "hit": false,
      "t": 212954.33250000147,
      "d": 1787.8770000000368,
      "v": 127
    },
    {
      "midi": 56,
      "hit": false,
      "t": 213181.60500000147,
      "d": 678.0296249999956,
      "v": 127
    },
    {
      "midi": 59,
      "hit": false,
      "t": 213181.60500000147,
      "d": 678.0296249999956,
      "v": 127
    },
    {
      "midi": 68,
      "hit": false,
      "t": 213181.60500000147,
      "d": 678.0296249999956,
      "v": 127
    },
    {
      "midi": 71,
      "hit": false,
      "t": 213181.60500000147,
      "d": 678.0296249999956,
      "v": 127
    },
    {
      "midi": 66,
      "hit": false,
      "t": 213408.87750000146,
      "d": 878.7870000000112,
      "v": 127
    },
    {
      "midi": 70,
      "hit": false,
      "t": 213408.87750000146,
      "d": 878.7870000000112,
      "v": 127
    },
    {
      "midi": 54,
      "hit": false,
      "t": 213408.87750000146,
      "d": 1090.908000000025,
      "v": 127
    },
    {
      "midi": 58,
      "hit": false,
      "t": 213408.87750000146,
      "d": 1151.5140000000538,
      "v": 127
    },
    {
      "midi": 56,
      "hit": false,
      "t": 213863.42250000147,
      "d": 878.7870000000403,
      "v": 127
    },
    {
      "midi": 59,
      "hit": false,
      "t": 213863.42250000147,
      "d": 878.7870000000403,
      "v": 127
    },
    {
      "midi": 68,
      "hit": false,
      "t": 213863.42250000147,
      "d": 878.7870000000403,
      "v": 127
    },
    {
      "midi": 71,
      "hit": false,
      "t": 213863.42250000147,
      "d": 878.7870000000403,
      "v": 127
    },
    {
      "midi": 40,
      "hit": false,
      "t": 214545.2400000015,
      "d": 1803.028500000015,
      "v": 127
    },
    {
      "midi": 47,
      "hit": false,
      "t": 214772.51250000153,
      "d": 1378.7864999999874,
      "v": 127
    },
    {
      "midi": 68,
      "hit": false,
      "t": 214999.78500000152,
      "d": 651.5144999999902,
      "v": 127
    },
    {
      "midi": 71,
      "hit": false,
      "t": 214999.78500000152,
      "d": 651.5144999999902,
      "v": 127
    },
    {
      "midi": 56,
      "hit": false,
      "t": 214999.78500000152,
      "d": 678.0296249999956,
      "v": 127
    },
    {
      "midi": 59,
      "hit": false,
      "t": 214999.78500000152,
      "d": 678.0296249999956,
      "v": 127
    },
    {
      "midi": 54,
      "hit": false,
      "t": 215227.0575000015,
      "d": 681.8175000000047,
      "v": 127
    },
    {
      "midi": 58,
      "hit": false,
      "t": 215227.0575000015,
      "d": 681.8175000000047,
      "v": 127
    },
    {
      "midi": 66,
      "hit": false,
      "t": 215227.0575000015,
      "d": 878.7870000000112,
      "v": 127
    },
    {
      "midi": 70,
      "hit": false,
      "t": 215227.0575000015,
      "d": 878.7870000000112,
      "v": 127
    },
    {
      "midi": 56,
      "hit": false,
      "t": 215681.60250000152,
      "d": 681.8175000000047,
      "v": 127
    },
    {
      "midi": 59,
      "hit": false,
      "t": 215681.60250000152,
      "d": 878.7870000000112,
      "v": 127
    },
    {
      "midi": 68,
      "hit": false,
      "t": 215681.60250000152,
      "d": 878.7870000000112,
      "v": 127
    },
    {
      "midi": 71,
      "hit": false,
      "t": 215681.60250000152,
      "d": 878.7870000000112,
      "v": 127
    },
    {
      "midi": 44,
      "hit": false,
      "t": 216363.42000000153,
      "d": 1803.028500000015,
      "v": 127
    },
    {
      "midi": 51,
      "hit": false,
      "t": 216590.69250000155,
      "d": 1787.8770000000077,
      "v": 127
    },
    {
      "midi": 56,
      "hit": false,
      "t": 216817.96500000154,
      "d": 678.0296249999956,
      "v": 127
    },
    {
      "midi": 59,
      "hit": false,
      "t": 216817.96500000154,
      "d": 678.0296249999956,
      "v": 127
    },
    {
      "midi": 63,
      "hit": false,
      "t": 216817.96500000154,
      "d": 678.0296249999956,
      "v": 127
    },
    {
      "midi": 68,
      "hit": false,
      "t": 216817.96500000154,
      "d": 678.0296249999956,
      "v": 127
    },
    {
      "midi": 71,
      "hit": false,
      "t": 216817.96500000154,
      "d": 678.0296249999956,
      "v": 127
    },
    {
      "midi": 54,
      "hit": false,
      "t": 217045.23750000153,
      "d": 681.8175000000047,
      "v": 127
    },
    {
      "midi": 58,
      "hit": false,
      "t": 217045.23750000153,
      "d": 681.8175000000047,
      "v": 127
    },
    {
      "midi": 61,
      "hit": false,
      "t": 217045.23750000153,
      "d": 878.7870000000112,
      "v": 127
    },
    {
      "midi": 66,
      "hit": false,
      "t": 217045.23750000153,
      "d": 878.7870000000112,
      "v": 127
    },
    {
      "midi": 70,
      "hit": false,
      "t": 217045.23750000153,
      "d": 878.7870000000112,
      "v": 127
    },
    {
      "midi": 56,
      "hit": false,
      "t": 217499.78250000154,
      "d": 878.7870000000112,
      "v": 127
    },
    {
      "midi": 59,
      "hit": false,
      "t": 217499.78250000154,
      "d": 878.7870000000112,
      "v": 127
    },
    {
      "midi": 63,
      "hit": false,
      "t": 217499.78250000154,
      "d": 878.7870000000112,
      "v": 127
    },
    {
      "midi": 68,
      "hit": false,
      "t": 217499.78250000154,
      "d": 878.7870000000112,
      "v": 127
    },
    {
      "midi": 71,
      "hit": false,
      "t": 217499.78250000154,
      "d": 878.7870000000112,
      "v": 127
    },
    {
      "midi": 44,
      "hit": false,
      "t": 218181.60000000155,
      "d": 1893.937500000029,
      "v": 127
    },
    {
      "midi": 51,
      "hit": false,
      "t": 218408.87250000157,
      "d": 1787.8770000000077,
      "v": 127
    },
    {
      "midi": 56,
      "hit": false,
      "t": 218636.14500000156,
      "d": 678.0296249999956,
      "v": 127
    },
    {
      "midi": 59,
      "hit": false,
      "t": 218636.14500000156,
      "d": 678.0296249999956,
      "v": 127
    },
    {
      "midi": 63,
      "hit": false,
      "t": 218636.14500000156,
      "d": 678.0296249999956,
      "v": 127
    },
    {
      "midi": 68,
      "hit": false,
      "t": 218636.14500000156,
      "d": 678.0296249999956,
      "v": 127
    },
    {
      "midi": 71,
      "hit": false,
      "t": 218636.14500000156,
      "d": 678.0296249999956,
      "v": 127
    },
    {
      "midi": 54,
      "hit": false,
      "t": 218863.41750000155,
      "d": 878.7870000000112,
      "v": 127
    },
    {
      "midi": 58,
      "hit": false,
      "t": 218863.41750000155,
      "d": 878.7870000000112,
      "v": 127
    },
    {
      "midi": 61,
      "hit": false,
      "t": 218863.41750000155,
      "d": 878.7870000000112,
      "v": 127
    },
    {
      "midi": 66,
      "hit": false,
      "t": 218863.41750000155,
      "d": 878.7870000000112,
      "v": 127
    },
    {
      "midi": 70,
      "hit": false,
      "t": 218863.41750000155,
      "d": 878.7870000000112,
      "v": 127
    },
    {
      "midi": 56,
      "hit": false,
      "t": 219317.96250000157,
      "d": 878.7870000000112,
      "v": 127
    },
    {
      "midi": 59,
      "hit": false,
      "t": 219317.96250000157,
      "d": 878.7870000000112,
      "v": 127
    },
    {
      "midi": 63,
      "hit": false,
      "t": 219317.96250000157,
      "d": 878.7870000000112,
      "v": 127
    },
    {
      "midi": 68,
      "hit": false,
      "t": 219317.96250000157,
      "d": 878.7870000000112,
      "v": 127
    },
    {
      "midi": 71,
      "hit": false,
      "t": 219317.96250000157,
      "d": 878.7870000000112,
      "v": 127
    },
    {
      "midi": 40,
      "hit": false,
      "t": 219999.78000000157,
      "d": 1803.028500000044,
      "v": 127
    },
    {
      "midi": 47,
      "hit": false,
      "t": 220227.0525000016,
      "d": 1787.8770000000368,
      "v": 127
    },
    {
      "midi": 56,
      "hit": false,
      "t": 220454.32500000158,
      "d": 678.0296249999956,
      "v": 127
    },
    {
      "midi": 59,
      "hit": false,
      "t": 220454.32500000158,
      "d": 678.0296249999956,
      "v": 127
    },
    {
      "midi": 68,
      "hit": false,
      "t": 220454.32500000158,
      "d": 678.0296249999956,
      "v": 127
    },
    {
      "midi": 71,
      "hit": false,
      "t": 220454.32500000158,
      "d": 678.0296249999956,
      "v": 127
    },
    {
      "midi": 66,
      "hit": false,
      "t": 220681.59750000158,
      "d": 878.7870000000112,
      "v": 127
    },
    {
      "midi": 70,
      "hit": false,
      "t": 220681.59750000158,
      "d": 878.7870000000112,
      "v": 127
    },
    {
      "midi": 54,
      "hit": false,
      "t": 220681.59750000158,
      "d": 1090.908000000025,
      "v": 127
    },
    {
      "midi": 58,
      "hit": false,
      "t": 220681.59750000158,
      "d": 1151.5140000000538,
      "v": 127
    },
    {
      "midi": 56,
      "hit": false,
      "t": 221136.1425000016,
      "d": 878.7870000000403,
      "v": 127
    },
    {
      "midi": 59,
      "hit": false,
      "t": 221136.1425000016,
      "d": 878.7870000000403,
      "v": 127
    },
    {
      "midi": 68,
      "hit": false,
      "t": 221136.1425000016,
      "d": 878.7870000000403,
      "v": 127
    },
    {
      "midi": 71,
      "hit": false,
      "t": 221136.1425000016,
      "d": 878.7870000000403,
      "v": 127
    },
    {
      "midi": 40,
      "hit": false,
      "t": 221817.96000000162,
      "d": 1803.028500000015,
      "v": 127
    },
    {
      "midi": 47,
      "hit": false,
      "t": 222045.23250000164,
      "d": 1378.7864999999874,
      "v": 127
    },
    {
      "midi": 68,
      "hit": false,
      "t": 222272.50500000163,
      "d": 651.5144999999902,
      "v": 127
    },
    {
      "midi": 71,
      "hit": false,
      "t": 222272.50500000163,
      "d": 651.5144999999902,
      "v": 127
    },
    {
      "midi": 56,
      "hit": false,
      "t": 222272.50500000163,
      "d": 678.0296249999956,
      "v": 127
    },
    {
      "midi": 59,
      "hit": false,
      "t": 222272.50500000163,
      "d": 678.0296249999956,
      "v": 127
    },
    {
      "midi": 54,
      "hit": false,
      "t": 222499.77750000163,
      "d": 681.8175000000047,
      "v": 127
    },
    {
      "midi": 58,
      "hit": false,
      "t": 222499.77750000163,
      "d": 681.8175000000047,
      "v": 127
    },
    {
      "midi": 66,
      "hit": false,
      "t": 222499.77750000163,
      "d": 878.7870000000112,
      "v": 127
    },
    {
      "midi": 70,
      "hit": false,
      "t": 222499.77750000163,
      "d": 878.7870000000112,
      "v": 127
    },
    {
      "midi": 56,
      "hit": false,
      "t": 222954.32250000164,
      "d": 681.8175000000047,
      "v": 127
    },
    {
      "midi": 59,
      "hit": false,
      "t": 222954.32250000164,
      "d": 878.7870000000112,
      "v": 127
    },
    {
      "midi": 68,
      "hit": false,
      "t": 222954.32250000164,
      "d": 878.7870000000112,
      "v": 127
    },
    {
      "midi": 71,
      "hit": false,
      "t": 222954.32250000164,
      "d": 878.7870000000112,
      "v": 127
    },
    {
      "midi": 44,
      "hit": false,
      "t": 223636.14000000164,
      "d": 1803.028500000015,
      "v": 127
    },
    {
      "midi": 51,
      "hit": false,
      "t": 223863.41250000166,
      "d": 1787.8770000000077,
      "v": 127
    },
    {
      "midi": 56,
      "hit": false,
      "t": 224090.68500000166,
      "d": 678.0296249999956,
      "v": 127
    },
    {
      "midi": 59,
      "hit": false,
      "t": 224090.68500000166,
      "d": 678.0296249999956,
      "v": 127
    },
    {
      "midi": 63,
      "hit": false,
      "t": 224090.68500000166,
      "d": 678.0296249999956,
      "v": 127
    },
    {
      "midi": 68,
      "hit": false,
      "t": 224090.68500000166,
      "d": 678.0296249999956,
      "v": 127
    },
    {
      "midi": 71,
      "hit": false,
      "t": 224090.68500000166,
      "d": 678.0296249999956,
      "v": 127
    },
    {
      "midi": 54,
      "hit": false,
      "t": 224317.95750000165,
      "d": 681.8175000000047,
      "v": 127
    },
    {
      "midi": 58,
      "hit": false,
      "t": 224317.95750000165,
      "d": 681.8175000000047,
      "v": 127
    },
    {
      "midi": 61,
      "hit": false,
      "t": 224317.95750000165,
      "d": 878.7870000000112,
      "v": 127
    },
    {
      "midi": 66,
      "hit": false,
      "t": 224317.95750000165,
      "d": 878.7870000000112,
      "v": 127
    },
    {
      "midi": 70,
      "hit": false,
      "t": 224317.95750000165,
      "d": 878.7870000000112,
      "v": 127
    },
    {
      "midi": 56,
      "hit": false,
      "t": 224772.50250000166,
      "d": 878.7870000000112,
      "v": 127
    },
    {
      "midi": 59,
      "hit": false,
      "t": 224772.50250000166,
      "d": 878.7870000000112,
      "v": 127
    },
    {
      "midi": 63,
      "hit": false,
      "t": 224772.50250000166,
      "d": 878.7870000000112,
      "v": 127
    },
    {
      "midi": 68,
      "hit": false,
      "t": 224772.50250000166,
      "d": 878.7870000000112,
      "v": 127
    },
    {
      "midi": 71,
      "hit": false,
      "t": 224772.50250000166,
      "d": 878.7870000000112,
      "v": 127
    },
    {
      "midi": 44,
      "hit": false,
      "t": 225454.32000000167,
      "d": 1893.937500000029,
      "v": 127
    },
    {
      "midi": 51,
      "hit": false,
      "t": 225681.5925000017,
      "d": 1787.8770000000077,
      "v": 127
    },
    {
      "midi": 56,
      "hit": false,
      "t": 225908.86500000168,
      "d": 678.0296249999956,
      "v": 127
    },
    {
      "midi": 59,
      "hit": false,
      "t": 225908.86500000168,
      "d": 678.0296249999956,
      "v": 127
    },
    {
      "midi": 63,
      "hit": false,
      "t": 225908.86500000168,
      "d": 678.0296249999956,
      "v": 127
    },
    {
      "midi": 68,
      "hit": false,
      "t": 225908.86500000168,
      "d": 678.0296249999956,
      "v": 127
    },
    {
      "midi": 71,
      "hit": false,
      "t": 225908.86500000168,
      "d": 678.0296249999956,
      "v": 127
    },
    {
      "midi": 54,
      "hit": false,
      "t": 226136.13750000167,
      "d": 878.7870000000112,
      "v": 127
    },
    {
      "midi": 58,
      "hit": false,
      "t": 226136.13750000167,
      "d": 878.7870000000112,
      "v": 127
    },
    {
      "midi": 61,
      "hit": false,
      "t": 226136.13750000167,
      "d": 878.7870000000112,
      "v": 127
    },
    {
      "midi": 66,
      "hit": false,
      "t": 226136.13750000167,
      "d": 878.7870000000112,
      "v": 127
    },
    {
      "midi": 70,
      "hit": false,
      "t": 226136.13750000167,
      "d": 878.7870000000112,
      "v": 127
    },
    {
      "midi": 56,
      "hit": false,
      "t": 226590.68250000168,
      "d": 878.7870000000112,
      "v": 127
    },
    {
      "midi": 59,
      "hit": false,
      "t": 226590.68250000168,
      "d": 878.7870000000112,
      "v": 127
    },
    {
      "midi": 63,
      "hit": false,
      "t": 226590.68250000168,
      "d": 878.7870000000112,
      "v": 127
    },
    {
      "midi": 68,
      "hit": false,
      "t": 226590.68250000168,
      "d": 878.7870000000112,
      "v": 127
    },
    {
      "midi": 71,
      "hit": false,
      "t": 226590.68250000168,
      "d": 878.7870000000112,
      "v": 127
    },
    {
      "midi": 40,
      "hit": false,
      "t": 227272.5000000017,
      "d": 1803.028500000044,
      "v": 127
    },
    {
      "midi": 47,
      "hit": false,
      "t": 227499.7725000017,
      "d": 1787.8770000000368,
      "v": 127
    },
    {
      "midi": 56,
      "hit": false,
      "t": 227727.0450000017,
      "d": 678.0296249999956,
      "v": 127
    },
    {
      "midi": 59,
      "hit": false,
      "t": 227727.0450000017,
      "d": 678.0296249999956,
      "v": 127
    },
    {
      "midi": 68,
      "hit": false,
      "t": 227727.0450000017,
      "d": 678.0296249999956,
      "v": 127
    },
    {
      "midi": 71,
      "hit": false,
      "t": 227727.0450000017,
      "d": 678.0296249999956,
      "v": 127
    },
    {
      "midi": 66,
      "hit": false,
      "t": 227954.3175000017,
      "d": 878.7870000000112,
      "v": 127
    },
    {
      "midi": 70,
      "hit": false,
      "t": 227954.3175000017,
      "d": 878.7870000000112,
      "v": 127
    },
    {
      "midi": 54,
      "hit": false,
      "t": 227954.3175000017,
      "d": 1090.908000000025,
      "v": 127
    },
    {
      "midi": 58,
      "hit": false,
      "t": 227954.3175000017,
      "d": 1151.5140000000538,
      "v": 127
    },
    {
      "midi": 56,
      "hit": false,
      "t": 228408.8625000017,
      "d": 878.7870000000403,
      "v": 127
    },
    {
      "midi": 59,
      "hit": false,
      "t": 228408.8625000017,
      "d": 878.7870000000403,
      "v": 127
    },
    {
      "midi": 68,
      "hit": false,
      "t": 228408.8625000017,
      "d": 878.7870000000403,
      "v": 127
    },
    {
      "midi": 71,
      "hit": false,
      "t": 228408.8625000017,
      "d": 878.7870000000403,
      "v": 127
    },
    {
      "midi": 40,
      "hit": false,
      "t": 229090.68000000174,
      "d": 1803.028500000015,
      "v": 127
    },
    {
      "midi": 47,
      "hit": false,
      "t": 229317.95250000176,
      "d": 1378.7864999999874,
      "v": 127
    },
    {
      "midi": 68,
      "hit": false,
      "t": 229545.22500000175,
      "d": 651.5144999999902,
      "v": 127
    },
    {
      "midi": 71,
      "hit": false,
      "t": 229545.22500000175,
      "d": 651.5144999999902,
      "v": 127
    },
    {
      "midi": 56,
      "hit": false,
      "t": 229545.22500000175,
      "d": 678.0296249999956,
      "v": 127
    },
    {
      "midi": 59,
      "hit": false,
      "t": 229545.22500000175,
      "d": 678.0296249999956,
      "v": 127
    },
    {
      "midi": 54,
      "hit": false,
      "t": 229772.49750000174,
      "d": 681.8175000000047,
      "v": 127
    },
    {
      "midi": 58,
      "hit": false,
      "t": 229772.49750000174,
      "d": 681.8175000000047,
      "v": 127
    },
    {
      "midi": 66,
      "hit": false,
      "t": 229772.49750000174,
      "d": 878.7870000000112,
      "v": 127
    },
    {
      "midi": 70,
      "hit": false,
      "t": 229772.49750000174,
      "d": 878.7870000000112,
      "v": 127
    },
    {
      "midi": 56,
      "hit": false,
      "t": 230227.04250000176,
      "d": 681.8175000000047,
      "v": 127
    },
    {
      "midi": 59,
      "hit": false,
      "t": 230227.04250000176,
      "d": 878.7870000000112,
      "v": 127
    },
    {
      "midi": 68,
      "hit": false,
      "t": 230227.04250000176,
      "d": 878.7870000000112,
      "v": 127
    },
    {
      "midi": 71,
      "hit": false,
      "t": 230227.04250000176,
      "d": 878.7870000000112,
      "v": 127
    },
    {
      "midi": 44,
      "hit": false,
      "t": 230908.86000000176,
      "d": 1803.028500000015,
      "v": 127
    },
    {
      "midi": 51,
      "hit": false,
      "t": 231136.13250000178,
      "d": 1787.8770000000077,
      "v": 127
    },
    {
      "midi": 56,
      "hit": false,
      "t": 231363.40500000177,
      "d": 678.0296249999956,
      "v": 127
    },
    {
      "midi": 59,
      "hit": false,
      "t": 231363.40500000177,
      "d": 678.0296249999956,
      "v": 127
    },
    {
      "midi": 63,
      "hit": false,
      "t": 231363.40500000177,
      "d": 678.0296249999956,
      "v": 127
    },
    {
      "midi": 68,
      "hit": false,
      "t": 231363.40500000177,
      "d": 678.0296249999956,
      "v": 127
    },
    {
      "midi": 71,
      "hit": false,
      "t": 231363.40500000177,
      "d": 678.0296249999956,
      "v": 127
    },
    {
      "midi": 54,
      "hit": false,
      "t": 231590.67750000177,
      "d": 681.8175000000047,
      "v": 127
    },
    {
      "midi": 58,
      "hit": false,
      "t": 231590.67750000177,
      "d": 681.8175000000047,
      "v": 127
    },
    {
      "midi": 61,
      "hit": false,
      "t": 231590.67750000177,
      "d": 878.7870000000112,
      "v": 127
    },
    {
      "midi": 66,
      "hit": false,
      "t": 231590.67750000177,
      "d": 878.7870000000112,
      "v": 127
    },
    {
      "midi": 70,
      "hit": false,
      "t": 231590.67750000177,
      "d": 878.7870000000112,
      "v": 127
    },
    {
      "midi": 56,
      "hit": false,
      "t": 232045.22250000178,
      "d": 878.7870000000112,
      "v": 127
    },
    {
      "midi": 59,
      "hit": false,
      "t": 232045.22250000178,
      "d": 878.7870000000112,
      "v": 127
    },
    {
      "midi": 63,
      "hit": false,
      "t": 232045.22250000178,
      "d": 878.7870000000112,
      "v": 127
    },
    {
      "midi": 68,
      "hit": false,
      "t": 232045.22250000178,
      "d": 878.7870000000112,
      "v": 127
    },
    {
      "midi": 71,
      "hit": false,
      "t": 232045.22250000178,
      "d": 878.7870000000112,
      "v": 127
    },
    {
      "midi": 44,
      "hit": false,
      "t": 232727.04000000178,
      "d": 1893.937500000029,
      "v": 127
    },
    {
      "midi": 51,
      "hit": false,
      "t": 232954.3125000018,
      "d": 1787.8770000000077,
      "v": 127
    },
    {
      "midi": 56,
      "hit": false,
      "t": 233181.5850000018,
      "d": 678.0296249999956,
      "v": 127
    },
    {
      "midi": 59,
      "hit": false,
      "t": 233181.5850000018,
      "d": 678.0296249999956,
      "v": 127
    },
    {
      "midi": 63,
      "hit": false,
      "t": 233181.5850000018,
      "d": 678.0296249999956,
      "v": 127
    },
    {
      "midi": 68,
      "hit": false,
      "t": 233181.5850000018,
      "d": 678.0296249999956,
      "v": 127
    },
    {
      "midi": 71,
      "hit": false,
      "t": 233181.5850000018,
      "d": 678.0296249999956,
      "v": 127
    },
    {
      "midi": 54,
      "hit": false,
      "t": 233408.8575000018,
      "d": 878.7870000000112,
      "v": 127
    },
    {
      "midi": 58,
      "hit": false,
      "t": 233408.8575000018,
      "d": 878.7870000000112,
      "v": 127
    },
    {
      "midi": 61,
      "hit": false,
      "t": 233408.8575000018,
      "d": 878.7870000000112,
      "v": 127
    },
    {
      "midi": 66,
      "hit": false,
      "t": 233408.8575000018,
      "d": 878.7870000000112,
      "v": 127
    },
    {
      "midi": 70,
      "hit": false,
      "t": 233408.8575000018,
      "d": 878.7870000000112,
      "v": 127
    },
    {
      "midi": 56,
      "hit": false,
      "t": 233863.4025000018,
      "d": 878.7870000000112,
      "v": 127
    },
    {
      "midi": 59,
      "hit": false,
      "t": 233863.4025000018,
      "d": 878.7870000000112,
      "v": 127
    },
    {
      "midi": 63,
      "hit": false,
      "t": 233863.4025000018,
      "d": 878.7870000000112,
      "v": 127
    },
    {
      "midi": 68,
      "hit": false,
      "t": 233863.4025000018,
      "d": 878.7870000000112,
      "v": 127
    },
    {
      "midi": 71,
      "hit": false,
      "t": 233863.4025000018,
      "d": 878.7870000000112,
      "v": 127
    },
    {
      "midi": 40,
      "hit": false,
      "t": 234545.2200000018,
      "d": 1803.028500000044,
      "v": 127
    },
    {
      "midi": 47,
      "hit": false,
      "t": 234772.49250000183,
      "d": 1787.8770000000368,
      "v": 127
    },
    {
      "midi": 56,
      "hit": false,
      "t": 234999.76500000182,
      "d": 678.0296249999956,
      "v": 127
    },
    {
      "midi": 59,
      "hit": false,
      "t": 234999.76500000182,
      "d": 678.0296249999956,
      "v": 127
    },
    {
      "midi": 68,
      "hit": false,
      "t": 234999.76500000182,
      "d": 678.0296249999956,
      "v": 127
    },
    {
      "midi": 71,
      "hit": false,
      "t": 234999.76500000182,
      "d": 678.0296249999956,
      "v": 127
    },
    {
      "midi": 66,
      "hit": false,
      "t": 235227.0375000018,
      "d": 878.7870000000112,
      "v": 127
    },
    {
      "midi": 70,
      "hit": false,
      "t": 235227.0375000018,
      "d": 878.7870000000112,
      "v": 127
    },
    {
      "midi": 54,
      "hit": false,
      "t": 235227.0375000018,
      "d": 1090.908000000025,
      "v": 127
    },
    {
      "midi": 58,
      "hit": false,
      "t": 235227.0375000018,
      "d": 1151.5140000000538,
      "v": 127
    },
    {
      "midi": 56,
      "hit": false,
      "t": 235681.58250000182,
      "d": 878.7870000000403,
      "v": 127
    },
    {
      "midi": 59,
      "hit": false,
      "t": 235681.58250000182,
      "d": 878.7870000000403,
      "v": 127
    },
    {
      "midi": 68,
      "hit": false,
      "t": 235681.58250000182,
      "d": 878.7870000000403,
      "v": 127
    },
    {
      "midi": 71,
      "hit": false,
      "t": 235681.58250000182,
      "d": 878.7870000000403,
      "v": 127
    },
    {
      "midi": 40,
      "hit": false,
      "t": 236363.40000000186,
      "d": 1803.028500000015,
      "v": 127
    },
    {
      "midi": 47,
      "hit": false,
      "t": 236590.67250000188,
      "d": 1378.7864999999874,
      "v": 127
    },
    {
      "midi": 68,
      "hit": false,
      "t": 236817.94500000187,
      "d": 651.5144999999902,
      "v": 127
    },
    {
      "midi": 71,
      "hit": false,
      "t": 236817.94500000187,
      "d": 651.5144999999902,
      "v": 127
    },
    {
      "midi": 56,
      "hit": false,
      "t": 236817.94500000187,
      "d": 678.0296249999956,
      "v": 127
    },
    {
      "midi": 59,
      "hit": false,
      "t": 236817.94500000187,
      "d": 678.0296249999956,
      "v": 127
    },
    {
      "midi": 54,
      "hit": false,
      "t": 237045.21750000186,
      "d": 681.8175000000047,
      "v": 127
    },
    {
      "midi": 58,
      "hit": false,
      "t": 237045.21750000186,
      "d": 681.8175000000047,
      "v": 127
    },
    {
      "midi": 66,
      "hit": false,
      "t": 237045.21750000186,
      "d": 878.7870000000112,
      "v": 127
    },
    {
      "midi": 70,
      "hit": false,
      "t": 237045.21750000186,
      "d": 878.7870000000112,
      "v": 127
    },
    {
      "midi": 56,
      "hit": false,
      "t": 237499.76250000187,
      "d": 681.8175000000047,
      "v": 127
    },
    {
      "midi": 59,
      "hit": false,
      "t": 237499.76250000187,
      "d": 878.7870000000112,
      "v": 127
    },
    {
      "midi": 68,
      "hit": false,
      "t": 237499.76250000187,
      "d": 878.7870000000112,
      "v": 127
    },
    {
      "midi": 71,
      "hit": false,
      "t": 237499.76250000187,
      "d": 878.7870000000112,
      "v": 127
    },
    {
      "midi": 44,
      "hit": false,
      "t": 238181.58000000188,
      "d": 1803.028500000015,
      "v": 127
    },
    {
      "midi": 51,
      "hit": false,
      "t": 238408.8525000019,
      "d": 1787.8770000000077,
      "v": 127
    },
    {
      "midi": 56,
      "hit": false,
      "t": 238636.1250000019,
      "d": 678.0296249999956,
      "v": 127
    },
    {
      "midi": 59,
      "hit": false,
      "t": 238636.1250000019,
      "d": 678.0296249999956,
      "v": 127
    },
    {
      "midi": 63,
      "hit": false,
      "t": 238636.1250000019,
      "d": 678.0296249999956,
      "v": 127
    },
    {
      "midi": 68,
      "hit": false,
      "t": 238636.1250000019,
      "d": 678.0296249999956,
      "v": 127
    },
    {
      "midi": 71,
      "hit": false,
      "t": 238636.1250000019,
      "d": 678.0296249999956,
      "v": 127
    },
    {
      "midi": 54,
      "hit": false,
      "t": 238863.39750000188,
      "d": 681.8175000000047,
      "v": 127
    },
    {
      "midi": 58,
      "hit": false,
      "t": 238863.39750000188,
      "d": 681.8175000000047,
      "v": 127
    },
    {
      "midi": 61,
      "hit": false,
      "t": 238863.39750000188,
      "d": 878.7870000000112,
      "v": 127
    },
    {
      "midi": 66,
      "hit": false,
      "t": 238863.39750000188,
      "d": 878.7870000000112,
      "v": 127
    },
    {
      "midi": 70,
      "hit": false,
      "t": 238863.39750000188,
      "d": 878.7870000000112,
      "v": 127
    },
    {
      "midi": 56,
      "hit": false,
      "t": 239317.9425000019,
      "d": 878.7870000000112,
      "v": 127
    },
    {
      "midi": 59,
      "hit": false,
      "t": 239317.9425000019,
      "d": 878.7870000000112,
      "v": 127
    },
    {
      "midi": 63,
      "hit": false,
      "t": 239317.9425000019,
      "d": 878.7870000000112,
      "v": 127
    },
    {
      "midi": 68,
      "hit": false,
      "t": 239317.9425000019,
      "d": 878.7870000000112,
      "v": 127
    },
    {
      "midi": 71,
      "hit": false,
      "t": 239317.9425000019,
      "d": 878.7870000000112,
      "v": 127
    },
    {
      "midi": 44,
      "hit": false,
      "t": 239999.7600000019,
      "d": 1893.937500000029,
      "v": 127
    },
    {
      "midi": 51,
      "hit": false,
      "t": 240227.03250000192,
      "d": 1787.8770000000077,
      "v": 127
    },
    {
      "midi": 56,
      "hit": false,
      "t": 240454.3050000019,
      "d": 678.0296249999956,
      "v": 127
    },
    {
      "midi": 59,
      "hit": false,
      "t": 240454.3050000019,
      "d": 678.0296249999956,
      "v": 127
    },
    {
      "midi": 63,
      "hit": false,
      "t": 240454.3050000019,
      "d": 678.0296249999956,
      "v": 127
    },
    {
      "midi": 68,
      "hit": false,
      "t": 240454.3050000019,
      "d": 678.0296249999956,
      "v": 127
    },
    {
      "midi": 71,
      "hit": false,
      "t": 240454.3050000019,
      "d": 678.0296249999956,
      "v": 127
    },
    {
      "midi": 54,
      "hit": false,
      "t": 240681.5775000019,
      "d": 878.7870000000112,
      "v": 127
    },
    {
      "midi": 58,
      "hit": false,
      "t": 240681.5775000019,
      "d": 878.7870000000112,
      "v": 127
    },
    {
      "midi": 61,
      "hit": false,
      "t": 240681.5775000019,
      "d": 878.7870000000112,
      "v": 127
    },
    {
      "midi": 66,
      "hit": false,
      "t": 240681.5775000019,
      "d": 878.7870000000112,
      "v": 127
    },
    {
      "midi": 70,
      "hit": false,
      "t": 240681.5775000019,
      "d": 878.7870000000112,
      "v": 127
    },
    {
      "midi": 56,
      "hit": false,
      "t": 241136.12250000192,
      "d": 878.7870000000112,
      "v": 127
    },
    {
      "midi": 59,
      "hit": false,
      "t": 241136.12250000192,
      "d": 878.7870000000112,
      "v": 127
    },
    {
      "midi": 63,
      "hit": false,
      "t": 241136.12250000192,
      "d": 878.7870000000112,
      "v": 127
    },
    {
      "midi": 68,
      "hit": false,
      "t": 241136.12250000192,
      "d": 878.7870000000112,
      "v": 127
    },
    {
      "midi": 71,
      "hit": false,
      "t": 241136.12250000192,
      "d": 878.7870000000112,
      "v": 127
    },
    {
      "midi": 40,
      "hit": false,
      "t": 241817.94000000192,
      "d": 1803.028500000044,
      "v": 127
    },
    {
      "midi": 47,
      "hit": false,
      "t": 242045.21250000194,
      "d": 1787.8770000000368,
      "v": 127
    },
    {
      "midi": 56,
      "hit": false,
      "t": 242272.48500000194,
      "d": 678.0296249999956,
      "v": 127
    },
    {
      "midi": 59,
      "hit": false,
      "t": 242272.48500000194,
      "d": 678.0296249999956,
      "v": 127
    },
    {
      "midi": 68,
      "hit": false,
      "t": 242272.48500000194,
      "d": 678.0296249999956,
      "v": 127
    },
    {
      "midi": 71,
      "hit": false,
      "t": 242272.48500000194,
      "d": 678.0296249999956,
      "v": 127
    },
    {
      "midi": 66,
      "hit": false,
      "t": 242499.75750000193,
      "d": 878.7870000000112,
      "v": 127
    },
    {
      "midi": 70,
      "hit": false,
      "t": 242499.75750000193,
      "d": 878.7870000000112,
      "v": 127
    },
    {
      "midi": 54,
      "hit": false,
      "t": 242499.75750000193,
      "d": 1090.908000000025,
      "v": 127
    },
    {
      "midi": 58,
      "hit": false,
      "t": 242499.75750000193,
      "d": 1151.5140000000538,
      "v": 127
    },
    {
      "midi": 56,
      "hit": false,
      "t": 242954.30250000194,
      "d": 878.7870000000403,
      "v": 127
    },
    {
      "midi": 59,
      "hit": false,
      "t": 242954.30250000194,
      "d": 878.7870000000403,
      "v": 127
    },
    {
      "midi": 68,
      "hit": false,
      "t": 242954.30250000194,
      "d": 878.7870000000403,
      "v": 127
    },
    {
      "midi": 71,
      "hit": false,
      "t": 242954.30250000194,
      "d": 878.7870000000403,
      "v": 127
    },
    {
      "midi": 40,
      "hit": false,
      "t": 243636.12000000197,
      "d": 1803.028500000015,
      "v": 127
    },
    {
      "midi": 47,
      "hit": false,
      "t": 243863.392500002,
      "d": 1378.7864999999874,
      "v": 127
    },
    {
      "midi": 68,
      "hit": false,
      "t": 244090.665000002,
      "d": 651.5144999999902,
      "v": 127
    },
    {
      "midi": 71,
      "hit": false,
      "t": 244090.665000002,
      "d": 651.5144999999902,
      "v": 127
    },
    {
      "midi": 56,
      "hit": false,
      "t": 244090.665000002,
      "d": 678.0296249999956,
      "v": 127
    },
    {
      "midi": 59,
      "hit": false,
      "t": 244090.665000002,
      "d": 678.0296249999956,
      "v": 127
    },
    {
      "midi": 54,
      "hit": false,
      "t": 244317.93750000198,
      "d": 681.8175000000047,
      "v": 127
    },
    {
      "midi": 58,
      "hit": false,
      "t": 244317.93750000198,
      "d": 681.8175000000047,
      "v": 127
    },
    {
      "midi": 66,
      "hit": false,
      "t": 244317.93750000198,
      "d": 878.7870000000112,
      "v": 127
    },
    {
      "midi": 70,
      "hit": false,
      "t": 244317.93750000198,
      "d": 878.7870000000112,
      "v": 127
    },
    {
      "midi": 56,
      "hit": false,
      "t": 244772.482500002,
      "d": 681.8175000000047,
      "v": 127
    },
    {
      "midi": 59,
      "hit": false,
      "t": 244772.482500002,
      "d": 878.7870000000112,
      "v": 127
    },
    {
      "midi": 68,
      "hit": false,
      "t": 244772.482500002,
      "d": 878.7870000000112,
      "v": 127
    },
    {
      "midi": 71,
      "hit": false,
      "t": 244772.482500002,
      "d": 878.7870000000112,
      "v": 127
    },
    {
      "midi": 44,
      "hit": false,
      "t": 245454.300000002,
      "d": 1803.028500000015,
      "v": 127
    },
    {
      "midi": 51,
      "hit": false,
      "t": 245681.57250000202,
      "d": 1787.8770000000077,
      "v": 127
    },
    {
      "midi": 56,
      "hit": false,
      "t": 245908.845000002,
      "d": 678.0296249999956,
      "v": 127
    },
    {
      "midi": 59,
      "hit": false,
      "t": 245908.845000002,
      "d": 678.0296249999956,
      "v": 127
    },
    {
      "midi": 63,
      "hit": false,
      "t": 245908.845000002,
      "d": 678.0296249999956,
      "v": 127
    },
    {
      "midi": 68,
      "hit": false,
      "t": 245908.845000002,
      "d": 678.0296249999956,
      "v": 127
    },
    {
      "midi": 71,
      "hit": false,
      "t": 245908.845000002,
      "d": 678.0296249999956,
      "v": 127
    },
    {
      "midi": 54,
      "hit": false,
      "t": 246136.117500002,
      "d": 681.8175000000047,
      "v": 127
    },
    {
      "midi": 58,
      "hit": false,
      "t": 246136.117500002,
      "d": 681.8175000000047,
      "v": 127
    },
    {
      "midi": 61,
      "hit": false,
      "t": 246136.117500002,
      "d": 878.7870000000112,
      "v": 127
    },
    {
      "midi": 66,
      "hit": false,
      "t": 246136.117500002,
      "d": 878.7870000000112,
      "v": 127
    },
    {
      "midi": 70,
      "hit": false,
      "t": 246136.117500002,
      "d": 878.7870000000112,
      "v": 127
    },
    {
      "midi": 56,
      "hit": false,
      "t": 246590.662500002,
      "d": 878.7870000000112,
      "v": 127
    },
    {
      "midi": 59,
      "hit": false,
      "t": 246590.662500002,
      "d": 878.7870000000112,
      "v": 127
    },
    {
      "midi": 63,
      "hit": false,
      "t": 246590.662500002,
      "d": 878.7870000000112,
      "v": 127
    },
    {
      "midi": 68,
      "hit": false,
      "t": 246590.662500002,
      "d": 878.7870000000112,
      "v": 127
    },
    {
      "midi": 71,
      "hit": false,
      "t": 246590.662500002,
      "d": 878.7870000000112,
      "v": 127
    },
    {
      "midi": 44,
      "hit": false,
      "t": 247272.48000000202,
      "d": 1893.937500000029,
      "v": 127
    },
    {
      "midi": 51,
      "hit": false,
      "t": 247499.75250000204,
      "d": 1787.8770000000077,
      "v": 127
    },
    {
      "midi": 56,
      "hit": false,
      "t": 247727.02500000203,
      "d": 678.0296249999956,
      "v": 127
    },
    {
      "midi": 59,
      "hit": false,
      "t": 247727.02500000203,
      "d": 678.0296249999956,
      "v": 127
    },
    {
      "midi": 63,
      "hit": false,
      "t": 247727.02500000203,
      "d": 678.0296249999956,
      "v": 127
    },
    {
      "midi": 68,
      "hit": false,
      "t": 247727.02500000203,
      "d": 678.0296249999956,
      "v": 127
    },
    {
      "midi": 71,
      "hit": false,
      "t": 247727.02500000203,
      "d": 678.0296249999956,
      "v": 127
    },
    {
      "midi": 54,
      "hit": false,
      "t": 247954.29750000202,
      "d": 878.7870000000112,
      "v": 127
    },
    {
      "midi": 58,
      "hit": false,
      "t": 247954.29750000202,
      "d": 878.7870000000112,
      "v": 127
    },
    {
      "midi": 61,
      "hit": false,
      "t": 247954.29750000202,
      "d": 878.7870000000112,
      "v": 127
    },
    {
      "midi": 66,
      "hit": false,
      "t": 247954.29750000202,
      "d": 878.7870000000112,
      "v": 127
    },
    {
      "midi": 70,
      "hit": false,
      "t": 247954.29750000202,
      "d": 878.7870000000112,
      "v": 127
    },
    {
      "midi": 56,
      "hit": false,
      "t": 248408.84250000204,
      "d": 878.7870000000112,
      "v": 127
    },
    {
      "midi": 59,
      "hit": false,
      "t": 248408.84250000204,
      "d": 878.7870000000112,
      "v": 127
    },
    {
      "midi": 63,
      "hit": false,
      "t": 248408.84250000204,
      "d": 878.7870000000112,
      "v": 127
    },
    {
      "midi": 68,
      "hit": false,
      "t": 248408.84250000204,
      "d": 878.7870000000112,
      "v": 127
    },
    {
      "midi": 71,
      "hit": false,
      "t": 248408.84250000204,
      "d": 878.7870000000112,
      "v": 127
    },
    {
      "midi": 40,
      "hit": false,
      "t": 249090.66000000204,
      "d": 1803.028500000044,
      "v": 127
    },
    {
      "midi": 47,
      "hit": false,
      "t": 249317.93250000206,
      "d": 1787.8770000000368,
      "v": 127
    },
    {
      "midi": 56,
      "hit": false,
      "t": 249545.20500000205,
      "d": 678.0296249999956,
      "v": 127
    },
    {
      "midi": 59,
      "hit": false,
      "t": 249545.20500000205,
      "d": 678.0296249999956,
      "v": 127
    },
    {
      "midi": 68,
      "hit": false,
      "t": 249545.20500000205,
      "d": 678.0296249999956,
      "v": 127
    },
    {
      "midi": 71,
      "hit": false,
      "t": 249545.20500000205,
      "d": 678.0296249999956,
      "v": 127
    },
    {
      "midi": 66,
      "hit": false,
      "t": 249772.47750000205,
      "d": 878.7870000000112,
      "v": 127
    },
    {
      "midi": 70,
      "hit": false,
      "t": 249772.47750000205,
      "d": 878.7870000000112,
      "v": 127
    },
    {
      "midi": 54,
      "hit": false,
      "t": 249772.47750000205,
      "d": 1090.908000000025,
      "v": 127
    },
    {
      "midi": 58,
      "hit": false,
      "t": 249772.47750000205,
      "d": 1151.5140000000538,
      "v": 127
    },
    {
      "midi": 56,
      "hit": false,
      "t": 250227.02250000206,
      "d": 878.7870000000403,
      "v": 127
    },
    {
      "midi": 59,
      "hit": false,
      "t": 250227.02250000206,
      "d": 878.7870000000403,
      "v": 127
    },
    {
      "midi": 68,
      "hit": false,
      "t": 250227.02250000206,
      "d": 878.7870000000403,
      "v": 127
    },
    {
      "midi": 71,
      "hit": false,
      "t": 250227.02250000206,
      "d": 878.7870000000403,
      "v": 127
    },
    {
      "midi": 40,
      "hit": false,
      "t": 250908.8400000021,
      "d": 1803.028500000015,
      "v": 127
    },
    {
      "midi": 47,
      "hit": false,
      "t": 251136.1125000021,
      "d": 1378.7864999999874,
      "v": 127
    },
    {
      "midi": 68,
      "hit": false,
      "t": 251363.3850000021,
      "d": 651.5144999999902,
      "v": 127
    },
    {
      "midi": 71,
      "hit": false,
      "t": 251363.3850000021,
      "d": 651.5144999999902,
      "v": 127
    },
    {
      "midi": 56,
      "hit": false,
      "t": 251363.3850000021,
      "d": 678.0296249999956,
      "v": 127
    },
    {
      "midi": 59,
      "hit": false,
      "t": 251363.3850000021,
      "d": 678.0296249999956,
      "v": 127
    },
    {
      "midi": 54,
      "hit": false,
      "t": 251590.6575000021,
      "d": 681.8175000000047,
      "v": 127
    },
    {
      "midi": 58,
      "hit": false,
      "t": 251590.6575000021,
      "d": 681.8175000000047,
      "v": 127
    },
    {
      "midi": 66,
      "hit": false,
      "t": 251590.6575000021,
      "d": 878.7870000000112,
      "v": 127
    },
    {
      "midi": 70,
      "hit": false,
      "t": 251590.6575000021,
      "d": 878.7870000000112,
      "v": 127
    },
    {
      "midi": 56,
      "hit": false,
      "t": 252045.2025000021,
      "d": 681.8175000000047,
      "v": 127
    },
    {
      "midi": 59,
      "hit": false,
      "t": 252045.2025000021,
      "d": 878.7870000000112,
      "v": 127
    },
    {
      "midi": 68,
      "hit": false,
      "t": 252045.2025000021,
      "d": 878.7870000000112,
      "v": 127
    },
    {
      "midi": 71,
      "hit": false,
      "t": 252045.2025000021,
      "d": 878.7870000000112,
      "v": 127
    },
    {
      "midi": 44,
      "hit": false,
      "t": 252727.0200000021,
      "d": 1803.028500000015,
      "v": 127
    },
    {
      "midi": 51,
      "hit": false,
      "t": 252954.29250000214,
      "d": 1787.8770000000077,
      "v": 127
    },
    {
      "midi": 56,
      "hit": false,
      "t": 253181.56500000213,
      "d": 678.0296249999956,
      "v": 127
    },
    {
      "midi": 59,
      "hit": false,
      "t": 253181.56500000213,
      "d": 678.0296249999956,
      "v": 127
    },
    {
      "midi": 63,
      "hit": false,
      "t": 253181.56500000213,
      "d": 678.0296249999956,
      "v": 127
    },
    {
      "midi": 68,
      "hit": false,
      "t": 253181.56500000213,
      "d": 678.0296249999956,
      "v": 127
    },
    {
      "midi": 71,
      "hit": false,
      "t": 253181.56500000213,
      "d": 678.0296249999956,
      "v": 127
    },
    {
      "midi": 54,
      "hit": false,
      "t": 253408.83750000212,
      "d": 681.8175000000047,
      "v": 127
    },
    {
      "midi": 58,
      "hit": false,
      "t": 253408.83750000212,
      "d": 681.8175000000047,
      "v": 127
    },
    {
      "midi": 61,
      "hit": false,
      "t": 253408.83750000212,
      "d": 878.7870000000112,
      "v": 127
    },
    {
      "midi": 66,
      "hit": false,
      "t": 253408.83750000212,
      "d": 878.7870000000112,
      "v": 127
    },
    {
      "midi": 70,
      "hit": false,
      "t": 253408.83750000212,
      "d": 878.7870000000112,
      "v": 127
    },
    {
      "midi": 56,
      "hit": false,
      "t": 253863.38250000213,
      "d": 878.7870000000112,
      "v": 127
    },
    {
      "midi": 59,
      "hit": false,
      "t": 253863.38250000213,
      "d": 878.7870000000112,
      "v": 127
    },
    {
      "midi": 63,
      "hit": false,
      "t": 253863.38250000213,
      "d": 878.7870000000112,
      "v": 127
    },
    {
      "midi": 68,
      "hit": false,
      "t": 253863.38250000213,
      "d": 878.7870000000112,
      "v": 127
    },
    {
      "midi": 71,
      "hit": false,
      "t": 253863.38250000213,
      "d": 878.7870000000112,
      "v": 127
    },
    {
      "midi": 44,
      "hit": false,
      "t": 254545.20000000214,
      "d": 1893.937500000029,
      "v": 127
    },
    {
      "midi": 51,
      "hit": false,
      "t": 254772.47250000216,
      "d": 1787.8770000000077,
      "v": 127
    },
    {
      "midi": 56,
      "hit": false,
      "t": 254999.74500000215,
      "d": 678.0296249999956,
      "v": 127
    },
    {
      "midi": 59,
      "hit": false,
      "t": 254999.74500000215,
      "d": 678.0296249999956,
      "v": 127
    },
    {
      "midi": 63,
      "hit": false,
      "t": 254999.74500000215,
      "d": 678.0296249999956,
      "v": 127
    },
    {
      "midi": 68,
      "hit": false,
      "t": 254999.74500000215,
      "d": 678.0296249999956,
      "v": 127
    },
    {
      "midi": 71,
      "hit": false,
      "t": 254999.74500000215,
      "d": 678.0296249999956,
      "v": 127
    },
    {
      "midi": 54,
      "hit": false,
      "t": 255227.01750000214,
      "d": 878.7870000000112,
      "v": 127
    },
    {
      "midi": 58,
      "hit": false,
      "t": 255227.01750000214,
      "d": 878.7870000000112,
      "v": 127
    },
    {
      "midi": 61,
      "hit": false,
      "t": 255227.01750000214,
      "d": 878.7870000000112,
      "v": 127
    },
    {
      "midi": 66,
      "hit": false,
      "t": 255227.01750000214,
      "d": 878.7870000000112,
      "v": 127
    },
    {
      "midi": 70,
      "hit": false,
      "t": 255227.01750000214,
      "d": 878.7870000000112,
      "v": 127
    },
    {
      "midi": 56,
      "hit": false,
      "t": 255681.56250000215,
      "d": 878.7870000000112,
      "v": 127
    },
    {
      "midi": 59,
      "hit": false,
      "t": 255681.56250000215,
      "d": 878.7870000000112,
      "v": 127
    },
    {
      "midi": 63,
      "hit": false,
      "t": 255681.56250000215,
      "d": 878.7870000000112,
      "v": 127
    },
    {
      "midi": 68,
      "hit": false,
      "t": 255681.56250000215,
      "d": 878.7870000000112,
      "v": 127
    },
    {
      "midi": 71,
      "hit": false,
      "t": 255681.56250000215,
      "d": 878.7870000000112,
      "v": 127
    },
    {
      "midi": 40,
      "hit": false,
      "t": 256363.38000000216,
      "d": 1803.028500000044,
      "v": 127
    },
    {
      "midi": 47,
      "hit": false,
      "t": 256590.65250000218,
      "d": 1787.8770000000368,
      "v": 127
    },
    {
      "midi": 56,
      "hit": false,
      "t": 256817.92500000217,
      "d": 678.0296249999956,
      "v": 127
    },
    {
      "midi": 59,
      "hit": false,
      "t": 256817.92500000217,
      "d": 678.0296249999956,
      "v": 127
    },
    {
      "midi": 68,
      "hit": false,
      "t": 256817.92500000217,
      "d": 678.0296249999956,
      "v": 127
    },
    {
      "midi": 71,
      "hit": false,
      "t": 256817.92500000217,
      "d": 678.0296249999956,
      "v": 127
    },
    {
      "midi": 66,
      "hit": false,
      "t": 257045.19750000216,
      "d": 878.7870000000112,
      "v": 127
    },
    {
      "midi": 70,
      "hit": false,
      "t": 257045.19750000216,
      "d": 878.7870000000112,
      "v": 127
    },
    {
      "midi": 54,
      "hit": false,
      "t": 257045.19750000216,
      "d": 1090.908000000025,
      "v": 127
    },
    {
      "midi": 58,
      "hit": false,
      "t": 257045.19750000216,
      "d": 1151.5140000000538,
      "v": 127
    },
    {
      "midi": 56,
      "hit": false,
      "t": 257499.74250000218,
      "d": 878.7870000000403,
      "v": 127
    },
    {
      "midi": 59,
      "hit": false,
      "t": 257499.74250000218,
      "d": 878.7870000000403,
      "v": 127
    },
    {
      "midi": 68,
      "hit": false,
      "t": 257499.74250000218,
      "d": 878.7870000000403,
      "v": 127
    },
    {
      "midi": 71,
      "hit": false,
      "t": 257499.74250000218,
      "d": 878.7870000000403,
      "v": 127
    },
    {
      "midi": 40,
      "hit": false,
      "t": 258181.5600000022,
      "d": 1803.028500000015,
      "v": 127
    },
    {
      "midi": 47,
      "hit": false,
      "t": 258408.83250000223,
      "d": 1378.7864999999874,
      "v": 127
    },
    {
      "midi": 68,
      "hit": false,
      "t": 258636.10500000222,
      "d": 651.5144999999902,
      "v": 127
    },
    {
      "midi": 71,
      "hit": false,
      "t": 258636.10500000222,
      "d": 651.5144999999902,
      "v": 127
    },
    {
      "midi": 56,
      "hit": false,
      "t": 258636.10500000222,
      "d": 678.0296249999956,
      "v": 127
    },
    {
      "midi": 59,
      "hit": false,
      "t": 258636.10500000222,
      "d": 678.0296249999956,
      "v": 127
    },
    {
      "midi": 54,
      "hit": false,
      "t": 258863.3775000022,
      "d": 681.8175000000047,
      "v": 127
    },
    {
      "midi": 58,
      "hit": false,
      "t": 258863.3775000022,
      "d": 681.8175000000047,
      "v": 127
    },
    {
      "midi": 66,
      "hit": false,
      "t": 258863.3775000022,
      "d": 878.7870000000112,
      "v": 127
    },
    {
      "midi": 70,
      "hit": false,
      "t": 258863.3775000022,
      "d": 878.7870000000112,
      "v": 127
    },
    {
      "midi": 56,
      "hit": false,
      "t": 259317.92250000223,
      "d": 681.8175000000047,
      "v": 127
    },
    {
      "midi": 59,
      "hit": false,
      "t": 259317.92250000223,
      "d": 878.7870000000112,
      "v": 127
    },
    {
      "midi": 68,
      "hit": false,
      "t": 259317.92250000223,
      "d": 878.7870000000112,
      "v": 127
    },
    {
      "midi": 71,
      "hit": false,
      "t": 259317.92250000223,
      "d": 878.7870000000112,
      "v": 127
    },
    {
      "midi": 44,
      "hit": false,
      "t": 259999.74000000223,
      "d": 1803.028500000015,
      "v": 127
    },
    {
      "midi": 51,
      "hit": false,
      "t": 260227.01250000225,
      "d": 1787.8770000000077,
      "v": 127
    },
    {
      "midi": 56,
      "hit": false,
      "t": 260454.28500000224,
      "d": 678.0296249999956,
      "v": 127
    },
    {
      "midi": 59,
      "hit": false,
      "t": 260454.28500000224,
      "d": 678.0296249999956,
      "v": 127
    },
    {
      "midi": 63,
      "hit": false,
      "t": 260454.28500000224,
      "d": 678.0296249999956,
      "v": 127
    },
    {
      "midi": 68,
      "hit": false,
      "t": 260454.28500000224,
      "d": 678.0296249999956,
      "v": 127
    },
    {
      "midi": 71,
      "hit": false,
      "t": 260454.28500000224,
      "d": 678.0296249999956,
      "v": 127
    },
    {
      "midi": 54,
      "hit": false,
      "t": 260681.55750000224,
      "d": 681.8175000000047,
      "v": 127
    },
    {
      "midi": 58,
      "hit": false,
      "t": 260681.55750000224,
      "d": 681.8175000000047,
      "v": 127
    },
    {
      "midi": 61,
      "hit": false,
      "t": 260681.55750000224,
      "d": 878.7870000000112,
      "v": 127
    },
    {
      "midi": 66,
      "hit": false,
      "t": 260681.55750000224,
      "d": 878.7870000000112,
      "v": 127
    },
    {
      "midi": 70,
      "hit": false,
      "t": 260681.55750000224,
      "d": 878.7870000000112,
      "v": 127
    },
    {
      "midi": 56,
      "hit": false,
      "t": 261136.10250000225,
      "d": 878.7870000000112,
      "v": 127
    },
    {
      "midi": 59,
      "hit": false,
      "t": 261136.10250000225,
      "d": 878.7870000000112,
      "v": 127
    },
    {
      "midi": 63,
      "hit": false,
      "t": 261136.10250000225,
      "d": 878.7870000000112,
      "v": 127
    },
    {
      "midi": 68,
      "hit": false,
      "t": 261136.10250000225,
      "d": 878.7870000000112,
      "v": 127
    },
    {
      "midi": 71,
      "hit": false,
      "t": 261136.10250000225,
      "d": 878.7870000000112,
      "v": 127
    },
    {
      "midi": 44,
      "hit": false,
      "t": 261817.92000000225,
      "d": 1893.9375000000582,
      "v": 127
    },
    {
      "midi": 51,
      "hit": false,
      "t": 262045.19250000227,
      "d": 1787.8770000000368,
      "v": 127
    },
    {
      "midi": 56,
      "hit": false,
      "t": 262272.4650000023,
      "d": 678.0296250000247,
      "v": 127
    },
    {
      "midi": 59,
      "hit": false,
      "t": 262272.4650000023,
      "d": 678.0296250000247,
      "v": 127
    },
    {
      "midi": 63,
      "hit": false,
      "t": 262272.4650000023,
      "d": 678.0296250000247,
      "v": 127
    },
    {
      "midi": 68,
      "hit": false,
      "t": 262272.4650000023,
      "d": 678.0296250000247,
      "v": 127
    },
    {
      "midi": 71,
      "hit": false,
      "t": 262272.4650000023,
      "d": 678.0296250000247,
      "v": 127
    },
    {
      "midi": 54,
      "hit": false,
      "t": 262499.7375000023,
      "d": 878.7870000000112,
      "v": 127
    },
    {
      "midi": 58,
      "hit": false,
      "t": 262499.7375000023,
      "d": 878.7870000000112,
      "v": 127
    },
    {
      "midi": 61,
      "hit": false,
      "t": 262499.7375000023,
      "d": 878.7870000000112,
      "v": 127
    },
    {
      "midi": 66,
      "hit": false,
      "t": 262499.7375000023,
      "d": 878.7870000000112,
      "v": 127
    },
    {
      "midi": 70,
      "hit": false,
      "t": 262499.7375000023,
      "d": 878.7870000000112,
      "v": 127
    },
    {
      "midi": 56,
      "hit": false,
      "t": 262954.2825000023,
      "d": 878.7870000000112,
      "v": 127
    },
    {
      "midi": 59,
      "hit": false,
      "t": 262954.2825000023,
      "d": 878.7870000000112,
      "v": 127
    },
    {
      "midi": 63,
      "hit": false,
      "t": 262954.2825000023,
      "d": 878.7870000000112,
      "v": 127
    },
    {
      "midi": 68,
      "hit": false,
      "t": 262954.2825000023,
      "d": 878.7870000000112,
      "v": 127
    },
    {
      "midi": 71,
      "hit": false,
      "t": 262954.2825000023,
      "d": 878.7870000000112,
      "v": 127
    },
    {
      "midi": 59,
      "hit": false,
      "t": 278181.5400000023,
      "d": 1121.2110000000102,
      "v": 127
    },
    {
      "midi": 64,
      "hit": false,
      "t": 278181.5400000023,
      "d": 1151.5139999999665,
      "v": 127
    },
    {
      "midi": 68,
      "hit": false,
      "t": 278181.5400000023,
      "d": 1151.5139999999665,
      "v": 127
    },
    {
      "midi": 40,
      "hit": false,
      "t": 278181.5400000023,
      "d": 1333.3319999999949,
      "v": 127
    },
    {
      "midi": 59,
      "hit": false,
      "t": 279317.9025000023,
      "d": 439.3935000000638,
      "v": 127
    },
    {
      "midi": 63,
      "hit": false,
      "t": 279317.9025000023,
      "d": 454.5450000000419,
      "v": 127
    },
    {
      "midi": 66,
      "hit": false,
      "t": 279317.9025000023,
      "d": 454.5450000000419,
      "v": 127
    },
    {
      "midi": 47,
      "hit": false,
      "t": 279431.5387500023,
      "d": 424.2420000000857,
      "v": 127
    },
    {
      "midi": 59,
      "hit": false,
      "t": 279772.44750000234,
      "d": 1348.4835000000894,
      "v": 127
    },
    {
      "midi": 64,
      "hit": false,
      "t": 279772.44750000234,
      "d": 1378.7865000000456,
      "v": 127
    },
    {
      "midi": 68,
      "hit": false,
      "t": 279772.44750000234,
      "d": 1378.7865000000456,
      "v": 127
    },
    {
      "midi": 40,
      "hit": false,
      "t": 279999.72000000236,
      "d": 1090.908000000054,
      "v": 127
    },
    {
      "midi": 37,
      "hit": false,
      "t": 281136.0825000024,
      "d": 424.24199999996927,
      "v": 127
    },
    {
      "midi": 54,
      "hit": false,
      "t": 281136.0825000024,
      "d": 439.3934999999474,
      "v": 127
    },
    {
      "midi": 61,
      "hit": false,
      "t": 281136.0825000024,
      "d": 439.3934999999474,
      "v": 127
    },
    {
      "midi": 66,
      "hit": false,
      "t": 281136.0825000024,
      "d": 439.3934999999474,
      "v": 127
    },
    {
      "midi": 44,
      "hit": false,
      "t": 281590.62750000233,
      "d": 1303.0289999999804,
      "v": 127
    },
    {
      "midi": 56,
      "hit": false,
      "t": 281590.62750000233,
      "d": 1348.483499999973,
      "v": 127
    },
    {
      "midi": 59,
      "hit": false,
      "t": 281590.62750000233,
      "d": 1363.634999999951,
      "v": 127
    },
    {
      "midi": 63,
      "hit": false,
      "t": 281590.62750000233,
      "d": 1363.634999999951,
      "v": 127
    },
    {
      "midi": 32,
      "hit": false,
      "t": 281590.62750000233,
      "d": 1590.907499999972,
      "v": 127
    },
    {
      "midi": 54,
      "hit": false,
      "t": 282954.2625000023,
      "d": 439.3935000000056,
      "v": 127
    },
    {
      "midi": 61,
      "hit": false,
      "t": 282954.2625000023,
      "d": 439.3935000000056,
      "v": 127
    },
    {
      "midi": 64,
      "hit": false,
      "t": 282954.2625000023,
      "d": 439.3935000000056,
      "v": 127
    },
    {
      "midi": 44,
      "hit": false,
      "t": 283408.80750000227,
      "d": 1303.0289999999804,
      "v": 127
    },
    {
      "midi": 59,
      "hit": false,
      "t": 283408.80750000227,
      "d": 1348.483499999973,
      "v": 127
    },
    {
      "midi": 63,
      "hit": false,
      "t": 283408.80750000227,
      "d": 1348.483499999973,
      "v": 127
    },
    {
      "midi": 56,
      "hit": false,
      "t": 283408.80750000227,
      "d": 1393.9379999999655,
      "v": 127
    },
    {
      "midi": 59,
      "hit": false,
      "t": 284772.4425000022,
      "d": 439.3935000000056,
      "v": 127
    },
    {
      "midi": 63,
      "hit": false,
      "t": 284772.4425000022,
      "d": 439.3935000000056,
      "v": 127
    },
    {
      "midi": 66,
      "hit": false,
      "t": 284772.4425000022,
      "d": 439.3935000000056,
      "v": 127
    },
    {
      "midi": 59,
      "hit": false,
      "t": 285226.9875000022,
      "d": 1348.483499999973,
      "v": 127
    },
    {
      "midi": 68,
      "hit": false,
      "t": 285226.9875000022,
      "d": 1348.483499999973,
      "v": 127
    },
    {
      "midi": 64,
      "hit": false,
      "t": 285226.9875000022,
      "d": 1409.0894999999437,
      "v": 127
    },
    {
      "midi": 40,
      "hit": false,
      "t": 285226.9875000022,
      "d": 1499.9984999999288,
      "v": 127
    },
    {
      "midi": 59,
      "hit": false,
      "t": 286590.62250000215,
      "d": 439.3935000000056,
      "v": 127
    },
    {
      "midi": 63,
      "hit": false,
      "t": 286590.62250000215,
      "d": 454.5449999999837,
      "v": 127
    },
    {
      "midi": 66,
      "hit": false,
      "t": 286590.62250000215,
      "d": 454.5449999999837,
      "v": 127
    },
    {
      "midi": 47,
      "hit": false,
      "t": 286704.25875000213,
      "d": 424.2420000000275,
      "v": 127
    },
    {
      "midi": 59,
      "hit": false,
      "t": 287045.16750000214,
      "d": 1348.4835000000894,
      "v": 127
    },
    {
      "midi": 64,
      "hit": false,
      "t": 287045.16750000214,
      "d": 1378.7865000000456,
      "v": 127
    },
    {
      "midi": 68,
      "hit": false,
      "t": 287045.16750000214,
      "d": 1378.7865000000456,
      "v": 127
    },
    {
      "midi": 40,
      "hit": false,
      "t": 287272.44000000216,
      "d": 1090.908000000054,
      "v": 127
    },
    {
      "midi": 37,
      "hit": false,
      "t": 288408.8025000022,
      "d": 424.24199999996927,
      "v": 127
    },
    {
      "midi": 54,
      "hit": false,
      "t": 288408.8025000022,
      "d": 439.3934999999474,
      "v": 127
    },
    {
      "midi": 61,
      "hit": false,
      "t": 288408.8025000022,
      "d": 439.3934999999474,
      "v": 127
    },
    {
      "midi": 66,
      "hit": false,
      "t": 288408.8025000022,
      "d": 439.3934999999474,
      "v": 127
    },
    {
      "midi": 44,
      "hit": false,
      "t": 288863.3475000021,
      "d": 1303.0289999999804,
      "v": 127
    },
    {
      "midi": 56,
      "hit": false,
      "t": 288863.3475000021,
      "d": 1348.483499999973,
      "v": 127
    },
    {
      "midi": 59,
      "hit": false,
      "t": 288863.3475000021,
      "d": 1363.634999999951,
      "v": 127
    },
    {
      "midi": 63,
      "hit": false,
      "t": 288863.3475000021,
      "d": 1363.634999999951,
      "v": 127
    },
    {
      "midi": 32,
      "hit": false,
      "t": 288863.3475000021,
      "d": 1590.907499999972,
      "v": 127
    },
    {
      "midi": 54,
      "hit": false,
      "t": 290226.9825000021,
      "d": 439.3935000000056,
      "v": 127
    },
    {
      "midi": 61,
      "hit": false,
      "t": 290226.9825000021,
      "d": 439.3935000000056,
      "v": 127
    },
    {
      "midi": 64,
      "hit": false,
      "t": 290226.9825000021,
      "d": 439.3935000000056,
      "v": 127
    },
    {
      "midi": 44,
      "hit": false,
      "t": 290681.52750000206,
      "d": 1303.0289999999804,
      "v": 127
    },
    {
      "midi": 59,
      "hit": false,
      "t": 290681.52750000206,
      "d": 1348.483499999973,
      "v": 127
    },
    {
      "midi": 63,
      "hit": false,
      "t": 290681.52750000206,
      "d": 1348.483499999973,
      "v": 127
    },
    {
      "midi": 56,
      "hit": false,
      "t": 290681.52750000206,
      "d": 1393.9379999999655,
      "v": 127
    },
    {
      "midi": 59,
      "hit": false,
      "t": 292045.162500002,
      "d": 439.3935000000056,
      "v": 127
    },
    {
      "midi": 63,
      "hit": false,
      "t": 292045.162500002,
      "d": 439.3935000000056,
      "v": 127
    },
    {
      "midi": 66,
      "hit": false,
      "t": 292045.162500002,
      "d": 439.3935000000056,
      "v": 127
    },
    {
      "midi": 40,
      "hit": false,
      "t": 292499.707500002,
      "d": 1333.3319999999949,
      "v": 127
    },
    {
      "midi": 59,
      "hit": false,
      "t": 292499.707500002,
      "d": 1348.483499999973,
      "v": 127
    },
    {
      "midi": 68,
      "hit": false,
      "t": 292499.707500002,
      "d": 1348.483499999973,
      "v": 127
    },
    {
      "midi": 64,
      "hit": false,
      "t": 292499.707500002,
      "d": 1378.7864999999292,
      "v": 127
    },
    {
      "midi": 59,
      "hit": false,
      "t": 293863.34250000195,
      "d": 439.3935000000056,
      "v": 127
    },
    {
      "midi": 63,
      "hit": false,
      "t": 293863.34250000195,
      "d": 454.5449999999837,
      "v": 127
    },
    {
      "midi": 66,
      "hit": false,
      "t": 293863.34250000195,
      "d": 454.5449999999837,
      "v": 127
    },
    {
      "midi": 47,
      "hit": false,
      "t": 293976.97875000193,
      "d": 424.2420000000275,
      "v": 127
    },
    {
      "midi": 59,
      "hit": false,
      "t": 294317.88750000193,
      "d": 1348.4835000000894,
      "v": 127
    },
    {
      "midi": 64,
      "hit": false,
      "t": 294317.88750000193,
      "d": 1378.7865000000456,
      "v": 127
    },
    {
      "midi": 68,
      "hit": false,
      "t": 294317.88750000193,
      "d": 1378.7865000000456,
      "v": 127
    },
    {
      "midi": 40,
      "hit": false,
      "t": 294545.16000000195,
      "d": 1090.908000000054,
      "v": 127
    },
    {
      "midi": 37,
      "hit": false,
      "t": 295681.522500002,
      "d": 424.24199999996927,
      "v": 127
    },
    {
      "midi": 54,
      "hit": false,
      "t": 295681.522500002,
      "d": 439.3934999999474,
      "v": 127
    },
    {
      "midi": 61,
      "hit": false,
      "t": 295681.522500002,
      "d": 439.3934999999474,
      "v": 127
    },
    {
      "midi": 66,
      "hit": false,
      "t": 295681.522500002,
      "d": 439.3934999999474,
      "v": 127
    },
    {
      "midi": 44,
      "hit": false,
      "t": 296136.0675000019,
      "d": 1303.0289999999804,
      "v": 127
    },
    {
      "midi": 56,
      "hit": false,
      "t": 296136.0675000019,
      "d": 1348.483499999973,
      "v": 127
    },
    {
      "midi": 59,
      "hit": false,
      "t": 296136.0675000019,
      "d": 1363.634999999951,
      "v": 127
    },
    {
      "midi": 63,
      "hit": false,
      "t": 296136.0675000019,
      "d": 1363.634999999951,
      "v": 127
    },
    {
      "midi": 32,
      "hit": false,
      "t": 296136.0675000019,
      "d": 1590.907499999972,
      "v": 127
    },
    {
      "midi": 54,
      "hit": false,
      "t": 297499.7025000019,
      "d": 439.3935000000056,
      "v": 127
    },
    {
      "midi": 61,
      "hit": false,
      "t": 297499.7025000019,
      "d": 439.3935000000056,
      "v": 127
    },
    {
      "midi": 64,
      "hit": false,
      "t": 297499.7025000019,
      "d": 439.3935000000056,
      "v": 127
    },
    {
      "midi": 44,
      "hit": false,
      "t": 297954.24750000186,
      "d": 1303.0289999999804,
      "v": 127
    },
    {
      "midi": 59,
      "hit": false,
      "t": 297954.24750000186,
      "d": 1348.483499999973,
      "v": 127
    },
    {
      "midi": 63,
      "hit": false,
      "t": 297954.24750000186,
      "d": 1348.483499999973,
      "v": 127
    },
    {
      "midi": 56,
      "hit": false,
      "t": 297954.24750000186,
      "d": 1393.9379999999655,
      "v": 127
    },
    {
      "midi": 59,
      "hit": false,
      "t": 299317.8825000018,
      "d": 439.3935000000056,
      "v": 127
    },
    {
      "midi": 63,
      "hit": false,
      "t": 299317.8825000018,
      "d": 439.3935000000056,
      "v": 127
    },
    {
      "midi": 66,
      "hit": false,
      "t": 299317.8825000018,
      "d": 439.3935000000056,
      "v": 127
    },
    {
      "midi": 59,
      "hit": false,
      "t": 299772.4275000018,
      "d": 1348.483499999973,
      "v": 127
    },
    {
      "midi": 68,
      "hit": false,
      "t": 299772.4275000018,
      "d": 1348.483499999973,
      "v": 127
    },
    {
      "midi": 64,
      "hit": false,
      "t": 299772.4275000018,
      "d": 1409.0894999999437,
      "v": 127
    },
    {
      "midi": 40,
      "hit": false,
      "t": 299772.4275000018,
      "d": 1499.9984999999288,
      "v": 127
    },
    {
      "midi": 59,
      "hit": false,
      "t": 301136.06250000175,
      "d": 439.3935000000056,
      "v": 127
    },
    {
      "midi": 63,
      "hit": false,
      "t": 301136.06250000175,
      "d": 454.5449999999837,
      "v": 127
    },
    {
      "midi": 66,
      "hit": false,
      "t": 301136.06250000175,
      "d": 454.5449999999837,
      "v": 127
    },
    {
      "midi": 47,
      "hit": false,
      "t": 301249.6987500017,
      "d": 424.2420000000275,
      "v": 127
    },
    {
      "midi": 59,
      "hit": false,
      "t": 301590.60750000173,
      "d": 1348.4835000000894,
      "v": 127
    },
    {
      "midi": 64,
      "hit": false,
      "t": 301590.60750000173,
      "d": 1378.7865000000456,
      "v": 127
    },
    {
      "midi": 68,
      "hit": false,
      "t": 301590.60750000173,
      "d": 1378.7865000000456,
      "v": 127
    },
    {
      "midi": 40,
      "hit": false,
      "t": 301817.88000000175,
      "d": 1090.908000000054,
      "v": 127
    },
    {
      "midi": 37,
      "hit": false,
      "t": 302954.2425000018,
      "d": 424.24199999996927,
      "v": 127
    },
    {
      "midi": 54,
      "hit": false,
      "t": 302954.2425000018,
      "d": 439.3934999999474,
      "v": 127
    },
    {
      "midi": 61,
      "hit": false,
      "t": 302954.2425000018,
      "d": 439.3934999999474,
      "v": 127
    },
    {
      "midi": 66,
      "hit": false,
      "t": 302954.2425000018,
      "d": 439.3934999999474,
      "v": 127
    },
    {
      "midi": 44,
      "hit": false,
      "t": 303408.7875000017,
      "d": 1303.0289999999804,
      "v": 127
    },
    {
      "midi": 56,
      "hit": false,
      "t": 303408.7875000017,
      "d": 1348.483499999973,
      "v": 127
    },
    {
      "midi": 59,
      "hit": false,
      "t": 303408.7875000017,
      "d": 1363.634999999951,
      "v": 127
    },
    {
      "midi": 63,
      "hit": false,
      "t": 303408.7875000017,
      "d": 1363.634999999951,
      "v": 127
    },
    {
      "midi": 32,
      "hit": false,
      "t": 303408.7875000017,
      "d": 1590.907499999972,
      "v": 127
    },
    {
      "midi": 54,
      "hit": false,
      "t": 304772.4225000017,
      "d": 439.3935000000056,
      "v": 127
    },
    {
      "midi": 61,
      "hit": false,
      "t": 304772.4225000017,
      "d": 439.3935000000056,
      "v": 127
    },
    {
      "midi": 64,
      "hit": false,
      "t": 304772.4225000017,
      "d": 439.3935000000056,
      "v": 127
    },
    {
      "midi": 44,
      "hit": false,
      "t": 305226.96750000166,
      "d": 1303.0289999999804,
      "v": 127
    },
    {
      "midi": 59,
      "hit": false,
      "t": 305226.96750000166,
      "d": 1348.483499999973,
      "v": 127
    },
    {
      "midi": 63,
      "hit": false,
      "t": 305226.96750000166,
      "d": 1348.483499999973,
      "v": 127
    },
    {
      "midi": 56,
      "hit": false,
      "t": 305226.96750000166,
      "d": 1393.9379999999655,
      "v": 127
    },
    {
      "midi": 59,
      "hit": false,
      "t": 306590.6025000016,
      "d": 439.3935000000056,
      "v": 127
    },
    {
      "midi": 63,
      "hit": false,
      "t": 306590.6025000016,
      "d": 439.3935000000056,
      "v": 127
    },
    {
      "midi": 66,
      "hit": false,
      "t": 306590.6025000016,
      "d": 439.3935000000056,
      "v": 127
    },
    {
      "midi": 64,
      "hit": false,
      "t": 307045.1475000016,
      "d": 1318.1805000000168,
      "v": 127
    },
    {
      "midi": 40,
      "hit": false,
      "t": 307045.1475000016,
      "d": 1333.3319999999949,
      "v": 127
    },
    {
      "midi": 59,
      "hit": false,
      "t": 307045.1475000016,
      "d": 1348.483499999973,
      "v": 127
    },
    {
      "midi": 68,
      "hit": false,
      "t": 307045.1475000016,
      "d": 1348.483499999973,
      "v": 127
    },
    {
      "midi": 59,
      "hit": false,
      "t": 308408.78250000154,
      "d": 439.3935000000056,
      "v": 127
    },
    {
      "midi": 63,
      "hit": false,
      "t": 308408.78250000154,
      "d": 454.5449999999837,
      "v": 127
    },
    {
      "midi": 66,
      "hit": false,
      "t": 308408.78250000154,
      "d": 454.5449999999837,
      "v": 127
    },
    {
      "midi": 47,
      "hit": false,
      "t": 308522.4187500015,
      "d": 424.2420000000275,
      "v": 127
    },
    {
      "midi": 59,
      "hit": false,
      "t": 308863.3275000015,
      "d": 1348.4835000000894,
      "v": 127
    },
    {
      "midi": 64,
      "hit": false,
      "t": 308863.3275000015,
      "d": 1378.7865000000456,
      "v": 127
    },
    {
      "midi": 68,
      "hit": false,
      "t": 308863.3275000015,
      "d": 1378.7865000000456,
      "v": 127
    },
    {
      "midi": 40,
      "hit": false,
      "t": 309090.60000000155,
      "d": 1090.908000000054,
      "v": 127
    },
    {
      "midi": 37,
      "hit": false,
      "t": 310226.9625000016,
      "d": 424.24199999996927,
      "v": 127
    },
    {
      "midi": 54,
      "hit": false,
      "t": 310226.9625000016,
      "d": 439.3934999999474,
      "v": 127
    },
    {
      "midi": 61,
      "hit": false,
      "t": 310226.9625000016,
      "d": 439.3934999999474,
      "v": 127
    },
    {
      "midi": 66,
      "hit": false,
      "t": 310226.9625000016,
      "d": 439.3934999999474,
      "v": 127
    },
    {
      "midi": 44,
      "hit": false,
      "t": 310681.5075000015,
      "d": 1303.0289999999804,
      "v": 127
    },
    {
      "midi": 56,
      "hit": false,
      "t": 310681.5075000015,
      "d": 1348.483499999973,
      "v": 127
    },
    {
      "midi": 59,
      "hit": false,
      "t": 310681.5075000015,
      "d": 1363.634999999951,
      "v": 127
    },
    {
      "midi": 63,
      "hit": false,
      "t": 310681.5075000015,
      "d": 1363.634999999951,
      "v": 127
    },
    {
      "midi": 32,
      "hit": false,
      "t": 310681.5075000015,
      "d": 1590.907499999972,
      "v": 127
    },
    {
      "midi": 54,
      "hit": false,
      "t": 312045.1425000015,
      "d": 439.3935000000056,
      "v": 127
    },
    {
      "midi": 61,
      "hit": false,
      "t": 312045.1425000015,
      "d": 439.3935000000056,
      "v": 127
    },
    {
      "midi": 64,
      "hit": false,
      "t": 312045.1425000015,
      "d": 439.3935000000056,
      "v": 127
    },
    {
      "midi": 44,
      "hit": false,
      "t": 312499.68750000146,
      "d": 1303.0289999999804,
      "v": 127
    },
    {
      "midi": 59,
      "hit": false,
      "t": 312499.68750000146,
      "d": 1348.483499999973,
      "v": 127
    },
    {
      "midi": 63,
      "hit": false,
      "t": 312499.68750000146,
      "d": 1348.483499999973,
      "v": 127
    },
    {
      "midi": 56,
      "hit": false,
      "t": 312499.68750000146,
      "d": 1393.9379999999655,
      "v": 127
    },
    {
      "midi": 59,
      "hit": false,
      "t": 313863.3225000014,
      "d": 439.3935000000056,
      "v": 127
    },
    {
      "midi": 63,
      "hit": false,
      "t": 313863.3225000014,
      "d": 439.3935000000056,
      "v": 127
    },
    {
      "midi": 66,
      "hit": false,
      "t": 313863.3225000014,
      "d": 439.3935000000056,
      "v": 127
    },
    {
      "midi": 59,
      "hit": false,
      "t": 314317.8675000014,
      "d": 1348.483499999973,
      "v": 127
    },
    {
      "midi": 68,
      "hit": false,
      "t": 314317.8675000014,
      "d": 1348.483499999973,
      "v": 127
    },
    {
      "midi": 64,
      "hit": false,
      "t": 314317.8675000014,
      "d": 1409.0894999999437,
      "v": 127
    },
    {
      "midi": 40,
      "hit": false,
      "t": 314317.8675000014,
      "d": 1499.9984999999288,
      "v": 127
    },
    {
      "midi": 59,
      "hit": false,
      "t": 315681.50250000134,
      "d": 439.3935000000056,
      "v": 127
    },
    {
      "midi": 63,
      "hit": false,
      "t": 315681.50250000134,
      "d": 454.5449999999837,
      "v": 127
    },
    {
      "midi": 66,
      "hit": false,
      "t": 315681.50250000134,
      "d": 454.5449999999837,
      "v": 127
    },
    {
      "midi": 47,
      "hit": false,
      "t": 315795.1387500013,
      "d": 424.2420000000275,
      "v": 127
    },
    {
      "midi": 59,
      "hit": false,
      "t": 316136.0475000013,
      "d": 1348.4835000000894,
      "v": 127
    },
    {
      "midi": 64,
      "hit": false,
      "t": 316136.0475000013,
      "d": 1378.7865000000456,
      "v": 127
    },
    {
      "midi": 68,
      "hit": false,
      "t": 316136.0475000013,
      "d": 1378.7865000000456,
      "v": 127
    },
    {
      "midi": 40,
      "hit": false,
      "t": 316363.32000000135,
      "d": 1090.908000000054,
      "v": 127
    },
    {
      "midi": 37,
      "hit": false,
      "t": 317499.6825000014,
      "d": 424.24199999996927,
      "v": 127
    },
    {
      "midi": 54,
      "hit": false,
      "t": 317499.6825000014,
      "d": 439.3934999999474,
      "v": 127
    },
    {
      "midi": 61,
      "hit": false,
      "t": 317499.6825000014,
      "d": 439.3934999999474,
      "v": 127
    },
    {
      "midi": 66,
      "hit": false,
      "t": 317499.6825000014,
      "d": 439.3934999999474,
      "v": 127
    },
    {
      "midi": 44,
      "hit": false,
      "t": 317954.2275000013,
      "d": 1303.0289999999804,
      "v": 127
    },
    {
      "midi": 56,
      "hit": false,
      "t": 317954.2275000013,
      "d": 1348.483499999973,
      "v": 127
    },
    {
      "midi": 59,
      "hit": false,
      "t": 317954.2275000013,
      "d": 1363.634999999951,
      "v": 127
    },
    {
      "midi": 63,
      "hit": false,
      "t": 317954.2275000013,
      "d": 1363.634999999951,
      "v": 127
    },
    {
      "midi": 32,
      "hit": false,
      "t": 317954.2275000013,
      "d": 1590.907499999972,
      "v": 127
    },
    {
      "midi": 54,
      "hit": false,
      "t": 319317.86250000127,
      "d": 439.3935000000056,
      "v": 127
    },
    {
      "midi": 61,
      "hit": false,
      "t": 319317.86250000127,
      "d": 439.3935000000056,
      "v": 127
    },
    {
      "midi": 64,
      "hit": false,
      "t": 319317.86250000127,
      "d": 439.3935000000056,
      "v": 127
    },
    {
      "midi": 44,
      "hit": false,
      "t": 319772.40750000125,
      "d": 1303.0289999999804,
      "v": 127
    },
    {
      "midi": 59,
      "hit": false,
      "t": 319772.40750000125,
      "d": 1348.483499999973,
      "v": 127
    },
    {
      "midi": 63,
      "hit": false,
      "t": 319772.40750000125,
      "d": 1348.483499999973,
      "v": 127
    },
    {
      "midi": 56,
      "hit": false,
      "t": 319772.40750000125,
      "d": 1393.9379999999655,
      "v": 127
    },
    {
      "midi": 59,
      "hit": false,
      "t": 321136.0425000012,
      "d": 439.3935000000056,
      "v": 127
    },
    {
      "midi": 63,
      "hit": false,
      "t": 321136.0425000012,
      "d": 439.3935000000056,
      "v": 127
    },
    {
      "midi": 66,
      "hit": false,
      "t": 321136.0425000012,
      "d": 439.3935000000056,
      "v": 127
    },
    {
      "midi": 59,
      "hit": false,
      "t": 321590.5875000012,
      "d": 1151.5140000000247,
      "v": 127
    },
    {
      "midi": 64,
      "hit": false,
      "t": 321590.5875000012,
      "d": 1151.5140000000247,
      "v": 127
    },
    {
      "midi": 68,
      "hit": false,
      "t": 321590.5875000012,
      "d": 1151.5140000000247,
      "v": 127
    },
    {
      "midi": 40,
      "hit": false,
      "t": 321590.5875000012,
      "d": 1333.332000000053,
      "v": 127
    },
    {
      "midi": 59,
      "hit": false,
      "t": 322954.22250000125,
      "d": 439.3935000000056,
      "v": 127
    },
    {
      "midi": 63,
      "hit": false,
      "t": 322954.22250000125,
      "d": 454.5449999999837,
      "v": 127
    },
    {
      "midi": 66,
      "hit": false,
      "t": 322954.22250000125,
      "d": 454.5449999999837,
      "v": 127
    },
    {
      "midi": 47,
      "hit": false,
      "t": 323067.85875000124,
      "d": 424.2420000000275,
      "v": 127
    },
    {
      "midi": 59,
      "hit": false,
      "t": 323408.76750000124,
      "d": 1348.4835000000894,
      "v": 127
    },
    {
      "midi": 64,
      "hit": false,
      "t": 323408.76750000124,
      "d": 1378.7865000000456,
      "v": 127
    },
    {
      "midi": 68,
      "hit": false,
      "t": 323408.76750000124,
      "d": 1378.7865000000456,
      "v": 127
    },
    {
      "midi": 40,
      "hit": false,
      "t": 323636.04000000126,
      "d": 1090.908000000054,
      "v": 127
    },
    {
      "midi": 37,
      "hit": false,
      "t": 324772.4025000013,
      "d": 424.24199999996927,
      "v": 127
    },
    {
      "midi": 54,
      "hit": false,
      "t": 324772.4025000013,
      "d": 439.3934999999474,
      "v": 127
    },
    {
      "midi": 61,
      "hit": false,
      "t": 324772.4025000013,
      "d": 439.3934999999474,
      "v": 127
    },
    {
      "midi": 66,
      "hit": false,
      "t": 324772.4025000013,
      "d": 439.3934999999474,
      "v": 127
    },
    {
      "midi": 44,
      "hit": false,
      "t": 325226.94750000123,
      "d": 1303.0289999999804,
      "v": 127
    },
    {
      "midi": 56,
      "hit": false,
      "t": 325226.94750000123,
      "d": 1348.483499999973,
      "v": 127
    },
    {
      "midi": 59,
      "hit": false,
      "t": 325226.94750000123,
      "d": 1363.634999999951,
      "v": 127
    },
    {
      "midi": 63,
      "hit": false,
      "t": 325226.94750000123,
      "d": 1363.634999999951,
      "v": 127
    },
    {
      "midi": 32,
      "hit": false,
      "t": 325226.94750000123,
      "d": 1590.907499999972,
      "v": 127
    },
    {
      "midi": 54,
      "hit": false,
      "t": 326590.5825000012,
      "d": 439.3935000000056,
      "v": 127
    },
    {
      "midi": 61,
      "hit": false,
      "t": 326590.5825000012,
      "d": 439.3935000000056,
      "v": 127
    },
    {
      "midi": 64,
      "hit": false,
      "t": 326590.5825000012,
      "d": 439.3935000000056,
      "v": 127
    },
    {
      "midi": 44,
      "hit": false,
      "t": 327045.12750000117,
      "d": 1303.0289999999804,
      "v": 127
    },
    {
      "midi": 59,
      "hit": false,
      "t": 327045.12750000117,
      "d": 1348.483499999973,
      "v": 127
    },
    {
      "midi": 63,
      "hit": false,
      "t": 327045.12750000117,
      "d": 1348.483499999973,
      "v": 127
    },
    {
      "midi": 56,
      "hit": false,
      "t": 327045.12750000117,
      "d": 1393.9379999999655,
      "v": 127
    },
    {
      "midi": 59,
      "hit": false,
      "t": 328408.7625000011,
      "d": 439.3935000000056,
      "v": 127
    },
    {
      "midi": 63,
      "hit": false,
      "t": 328408.7625000011,
      "d": 439.3935000000056,
      "v": 127
    },
    {
      "midi": 66,
      "hit": false,
      "t": 328408.7625000011,
      "d": 439.3935000000056,
      "v": 127
    },
    {
      "midi": 59,
      "hit": false,
      "t": 328863.3075000011,
      "d": 1348.483499999973,
      "v": 127
    },
    {
      "midi": 68,
      "hit": false,
      "t": 328863.3075000011,
      "d": 1348.483499999973,
      "v": 127
    },
    {
      "midi": 64,
      "hit": false,
      "t": 328863.3075000011,
      "d": 1409.0894999999437,
      "v": 127
    },
    {
      "midi": 40,
      "hit": false,
      "t": 328863.3075000011,
      "d": 1499.9984999999288,
      "v": 127
    },
    {
      "midi": 59,
      "hit": false,
      "t": 330226.94250000105,
      "d": 439.3935000000056,
      "v": 127
    },
    {
      "midi": 63,
      "hit": false,
      "t": 330226.94250000105,
      "d": 454.5449999999837,
      "v": 127
    },
    {
      "midi": 66,
      "hit": false,
      "t": 330226.94250000105,
      "d": 454.5449999999837,
      "v": 127
    },
    {
      "midi": 47,
      "hit": false,
      "t": 330340.57875000103,
      "d": 424.2420000000275,
      "v": 127
    },
    {
      "midi": 59,
      "hit": false,
      "t": 330681.48750000104,
      "d": 1348.4835000000894,
      "v": 127
    },
    {
      "midi": 64,
      "hit": false,
      "t": 330681.48750000104,
      "d": 1378.7865000000456,
      "v": 127
    },
    {
      "midi": 68,
      "hit": false,
      "t": 330681.48750000104,
      "d": 1378.7865000000456,
      "v": 127
    },
    {
      "midi": 40,
      "hit": false,
      "t": 330908.76000000106,
      "d": 1090.908000000054,
      "v": 127
    },
    {
      "midi": 37,
      "hit": false,
      "t": 332045.1225000011,
      "d": 424.24199999996927,
      "v": 127
    },
    {
      "midi": 54,
      "hit": false,
      "t": 332045.1225000011,
      "d": 439.3934999999474,
      "v": 127
    },
    {
      "midi": 61,
      "hit": false,
      "t": 332045.1225000011,
      "d": 439.3934999999474,
      "v": 127
    },
    {
      "midi": 66,
      "hit": false,
      "t": 332045.1225000011,
      "d": 439.3934999999474,
      "v": 127
    },
    {
      "midi": 44,
      "hit": false,
      "t": 332499.66750000103,
      "d": 1303.0289999999804,
      "v": 127
    },
    {
      "midi": 56,
      "hit": false,
      "t": 332499.66750000103,
      "d": 1348.483499999973,
      "v": 127
    },
    {
      "midi": 59,
      "hit": false,
      "t": 332499.66750000103,
      "d": 1363.634999999951,
      "v": 127
    },
    {
      "midi": 63,
      "hit": false,
      "t": 332499.66750000103,
      "d": 1363.634999999951,
      "v": 127
    },
    {
      "midi": 32,
      "hit": false,
      "t": 332499.66750000103,
      "d": 1590.907499999972,
      "v": 127
    },
    {
      "midi": 54,
      "hit": false,
      "t": 333863.302500001,
      "d": 439.3935000000056,
      "v": 127
    },
    {
      "midi": 61,
      "hit": false,
      "t": 333863.302500001,
      "d": 439.3935000000056,
      "v": 127
    },
    {
      "midi": 64,
      "hit": false,
      "t": 333863.302500001,
      "d": 439.3935000000056,
      "v": 127
    },
    {
      "midi": 44,
      "hit": false,
      "t": 334317.84750000096,
      "d": 1303.0289999999804,
      "v": 127
    },
    {
      "midi": 59,
      "hit": false,
      "t": 334317.84750000096,
      "d": 1348.483499999973,
      "v": 127
    },
    {
      "midi": 63,
      "hit": false,
      "t": 334317.84750000096,
      "d": 1348.483499999973,
      "v": 127
    },
    {
      "midi": 56,
      "hit": false,
      "t": 334317.84750000096,
      "d": 1393.9379999999655,
      "v": 127
    },
    {
      "midi": 59,
      "hit": false,
      "t": 335681.4825000009,
      "d": 439.3935000000056,
      "v": 127
    },
    {
      "midi": 63,
      "hit": false,
      "t": 335681.4825000009,
      "d": 439.3935000000056,
      "v": 127
    },
    {
      "midi": 66,
      "hit": false,
      "t": 335681.4825000009,
      "d": 439.3935000000056,
      "v": 127
    },
    {
      "midi": 59,
      "hit": false,
      "t": 336136.0275000009,
      "d": 1121.2110000000102,
      "v": 127
    },
    {
      "midi": 64,
      "hit": false,
      "t": 336136.0275000009,
      "d": 1151.5140000000247,
      "v": 127
    },
    {
      "midi": 68,
      "hit": false,
      "t": 336136.0275000009,
      "d": 1151.5140000000247,
      "v": 127
    },
    {
      "midi": 40,
      "hit": false,
      "t": 336136.0275000009,
      "d": 1499.998499999987,
      "v": 127
    },
    {
      "midi": 59,
      "hit": false,
      "t": 337499.6625000009,
      "d": 439.3935000000056,
      "v": 127
    },
    {
      "midi": 63,
      "hit": false,
      "t": 337499.6625000009,
      "d": 454.5449999999837,
      "v": 127
    },
    {
      "midi": 66,
      "hit": false,
      "t": 337499.6625000009,
      "d": 454.5449999999837,
      "v": 127
    },
    {
      "midi": 47,
      "hit": false,
      "t": 337613.2987500009,
      "d": 424.2420000000275,
      "v": 127
    },
    {
      "midi": 59,
      "hit": false,
      "t": 337954.2075000009,
      "d": 1348.4835000000894,
      "v": 127
    },
    {
      "midi": 64,
      "hit": false,
      "t": 337954.2075000009,
      "d": 1378.7865000000456,
      "v": 127
    },
    {
      "midi": 68,
      "hit": false,
      "t": 337954.2075000009,
      "d": 1378.7865000000456,
      "v": 127
    },
    {
      "midi": 40,
      "hit": false,
      "t": 338181.4800000009,
      "d": 1090.908000000054,
      "v": 127
    },
    {
      "midi": 37,
      "hit": false,
      "t": 339317.84250000096,
      "d": 424.24199999996927,
      "v": 127
    },
    {
      "midi": 54,
      "hit": false,
      "t": 339317.84250000096,
      "d": 439.3934999999474,
      "v": 127
    },
    {
      "midi": 61,
      "hit": false,
      "t": 339317.84250000096,
      "d": 439.3934999999474,
      "v": 127
    },
    {
      "midi": 66,
      "hit": false,
      "t": 339317.84250000096,
      "d": 439.3934999999474,
      "v": 127
    },
    {
      "midi": 44,
      "hit": false,
      "t": 339772.3875000009,
      "d": 1303.0289999999804,
      "v": 127
    },
    {
      "midi": 56,
      "hit": false,
      "t": 339772.3875000009,
      "d": 1348.483499999973,
      "v": 127
    },
    {
      "midi": 59,
      "hit": false,
      "t": 339772.3875000009,
      "d": 1363.634999999951,
      "v": 127
    },
    {
      "midi": 63,
      "hit": false,
      "t": 339772.3875000009,
      "d": 1363.634999999951,
      "v": 127
    },
    {
      "midi": 32,
      "hit": false,
      "t": 339772.3875000009,
      "d": 1590.907499999972,
      "v": 127
    },
    {
      "midi": 54,
      "hit": false,
      "t": 341136.02250000084,
      "d": 439.3935000000056,
      "v": 127
    },
    {
      "midi": 61,
      "hit": false,
      "t": 341136.02250000084,
      "d": 439.3935000000056,
      "v": 127
    },
    {
      "midi": 64,
      "hit": false,
      "t": 341136.02250000084,
      "d": 439.3935000000056,
      "v": 127
    },
    {
      "midi": 44,
      "hit": false,
      "t": 341590.5675000008,
      "d": 1303.0289999999804,
      "v": 127
    },
    {
      "midi": 59,
      "hit": false,
      "t": 341590.5675000008,
      "d": 1348.483499999973,
      "v": 127
    },
    {
      "midi": 63,
      "hit": false,
      "t": 341590.5675000008,
      "d": 1348.483499999973,
      "v": 127
    },
    {
      "midi": 56,
      "hit": false,
      "t": 341590.5675000008,
      "d": 1393.9379999999655,
      "v": 127
    },
    {
      "midi": 59,
      "hit": false,
      "t": 342954.20250000077,
      "d": 439.3935000000056,
      "v": 127
    },
    {
      "midi": 63,
      "hit": false,
      "t": 342954.20250000077,
      "d": 439.3935000000056,
      "v": 127
    },
    {
      "midi": 66,
      "hit": false,
      "t": 342954.20250000077,
      "d": 439.3935000000056,
      "v": 127
    },
    {
      "midi": 59,
      "hit": false,
      "t": 343408.74750000075,
      "d": 1348.483499999973,
      "v": 127
    },
    {
      "midi": 68,
      "hit": false,
      "t": 343408.74750000075,
      "d": 1348.483499999973,
      "v": 127
    },
    {
      "midi": 64,
      "hit": false,
      "t": 343408.74750000075,
      "d": 1409.0894999999437,
      "v": 127
    },
    {
      "midi": 40,
      "hit": false,
      "t": 343408.74750000075,
      "d": 1499.9984999999288,
      "v": 127
    },
    {
      "midi": 59,
      "hit": false,
      "t": 344772.3825000007,
      "d": 439.3935000000056,
      "v": 127
    },
    {
      "midi": 63,
      "hit": false,
      "t": 344772.3825000007,
      "d": 454.5449999999837,
      "v": 127
    },
    {
      "midi": 66,
      "hit": false,
      "t": 344772.3825000007,
      "d": 454.5449999999837,
      "v": 127
    },
    {
      "midi": 47,
      "hit": false,
      "t": 344886.0187500007,
      "d": 424.2420000000275,
      "v": 127
    },
    {
      "midi": 59,
      "hit": false,
      "t": 345226.9275000007,
      "d": 1348.4835000000312,
      "v": 127
    },
    {
      "midi": 64,
      "hit": false,
      "t": 345226.9275000007,
      "d": 1378.7864999999874,
      "v": 127
    },
    {
      "midi": 68,
      "hit": false,
      "t": 345226.9275000007,
      "d": 1378.7864999999874,
      "v": 127
    },
    {
      "midi": 40,
      "hit": false,
      "t": 345454.2000000007,
      "d": 1090.9079999999958,
      "v": 127
    },
    {
      "midi": 37,
      "hit": false,
      "t": 346590.5625000007,
      "d": 424.24199999996927,
      "v": 127
    },
    {
      "midi": 54,
      "hit": false,
      "t": 346590.5625000007,
      "d": 439.3934999999474,
      "v": 127
    },
    {
      "midi": 61,
      "hit": false,
      "t": 346590.5625000007,
      "d": 439.3934999999474,
      "v": 127
    },
    {
      "midi": 66,
      "hit": false,
      "t": 346590.5625000007,
      "d": 439.3934999999474,
      "v": 127
    },
    {
      "midi": 44,
      "hit": false,
      "t": 347045.1075000006,
      "d": 1303.0290000000386,
      "v": 127
    },
    {
      "midi": 56,
      "hit": false,
      "t": 347045.1075000006,
      "d": 1348.4835000000312,
      "v": 127
    },
    {
      "midi": 59,
      "hit": false,
      "t": 347045.1075000006,
      "d": 1363.6350000000093,
      "v": 127
    },
    {
      "midi": 63,
      "hit": false,
      "t": 347045.1075000006,
      "d": 1363.6350000000093,
      "v": 127
    },
    {
      "midi": 32,
      "hit": false,
      "t": 347045.1075000006,
      "d": 1590.9075000000303,
      "v": 127
    },
    {
      "midi": 54,
      "hit": false,
      "t": 348408.74250000063,
      "d": 439.3935000000056,
      "v": 127
    },
    {
      "midi": 61,
      "hit": false,
      "t": 348408.74250000063,
      "d": 439.3935000000056,
      "v": 127
    },
    {
      "midi": 64,
      "hit": false,
      "t": 348408.74250000063,
      "d": 439.3935000000056,
      "v": 127
    },
    {
      "midi": 44,
      "hit": false,
      "t": 348863.2875000006,
      "d": 1303.0289999999804,
      "v": 127
    },
    {
      "midi": 59,
      "hit": false,
      "t": 348863.2875000006,
      "d": 1348.483499999973,
      "v": 127
    },
    {
      "midi": 63,
      "hit": false,
      "t": 348863.2875000006,
      "d": 1348.483499999973,
      "v": 127
    },
    {
      "midi": 56,
      "hit": false,
      "t": 348863.2875000006,
      "d": 1393.9379999999655,
      "v": 127
    },
    {
      "midi": 59,
      "hit": false,
      "t": 350226.92250000057,
      "d": 439.3935000000056,
      "v": 127
    },
    {
      "midi": 63,
      "hit": false,
      "t": 350226.92250000057,
      "d": 439.3935000000056,
      "v": 127
    },
    {
      "midi": 66,
      "hit": false,
      "t": 350226.92250000057,
      "d": 439.3935000000056,
      "v": 127
    },
    {
      "midi": 68,
      "hit": false,
      "t": 350681.46750000055,
      "d": 1318.1805000000168,
      "v": 127
    },
    {
      "midi": 59,
      "hit": false,
      "t": 350681.46750000055,
      "d": 1348.4835000000312,
      "v": 127
    },
    {
      "midi": 64,
      "hit": false,
      "t": 350681.46750000055,
      "d": 1378.7864999999874,
      "v": 127
    },
    {
      "midi": 40,
      "hit": false,
      "t": 350681.46750000055,
      "d": 1530.3015000000014,
      "v": 127
    },
    {
      "midi": 59,
      "hit": false,
      "t": 352045.10250000056,
      "d": 439.3935000000056,
      "v": 127
    },
    {
      "midi": 63,
      "hit": false,
      "t": 352045.10250000056,
      "d": 454.5449999999837,
      "v": 127
    },
    {
      "midi": 66,
      "hit": false,
      "t": 352045.10250000056,
      "d": 454.5449999999837,
      "v": 127
    },
    {
      "midi": 47,
      "hit": false,
      "t": 352158.73875000054,
      "d": 424.2420000000275,
      "v": 127
    },
    {
      "midi": 59,
      "hit": false,
      "t": 352499.64750000054,
      "d": 1348.4835000000312,
      "v": 127
    },
    {
      "midi": 64,
      "hit": false,
      "t": 352499.64750000054,
      "d": 1378.7864999999874,
      "v": 127
    },
    {
      "midi": 68,
      "hit": false,
      "t": 352499.64750000054,
      "d": 1378.7864999999874,
      "v": 127
    },
    {
      "midi": 40,
      "hit": false,
      "t": 352726.92000000057,
      "d": 1090.9079999999958,
      "v": 127
    },
    {
      "midi": 37,
      "hit": false,
      "t": 353863.28250000055,
      "d": 424.2420000000275,
      "v": 127
    },
    {
      "midi": 54,
      "hit": false,
      "t": 353863.28250000055,
      "d": 439.3935000000056,
      "v": 127
    },
    {
      "midi": 61,
      "hit": false,
      "t": 353863.28250000055,
      "d": 439.3935000000056,
      "v": 127
    },
    {
      "midi": 66,
      "hit": false,
      "t": 353863.28250000055,
      "d": 439.3935000000056,
      "v": 127
    },
    {
      "midi": 44,
      "hit": false,
      "t": 354317.82750000054,
      "d": 1303.0290000000386,
      "v": 127
    },
    {
      "midi": 56,
      "hit": false,
      "t": 354317.82750000054,
      "d": 1348.4835000000312,
      "v": 127
    },
    {
      "midi": 59,
      "hit": false,
      "t": 354317.82750000054,
      "d": 1363.6350000000093,
      "v": 127
    },
    {
      "midi": 63,
      "hit": false,
      "t": 354317.82750000054,
      "d": 1363.6350000000093,
      "v": 127
    },
    {
      "midi": 32,
      "hit": false,
      "t": 354317.82750000054,
      "d": 1590.9075000000303,
      "v": 127
    },
    {
      "midi": 54,
      "hit": false,
      "t": 355681.46250000055,
      "d": 439.3935000000056,
      "v": 127
    },
    {
      "midi": 61,
      "hit": false,
      "t": 355681.46250000055,
      "d": 439.3935000000056,
      "v": 127
    },
    {
      "midi": 64,
      "hit": false,
      "t": 355681.46250000055,
      "d": 439.3935000000056,
      "v": 127
    },
    {
      "midi": 44,
      "hit": false,
      "t": 356136.00750000053,
      "d": 1303.0290000000386,
      "v": 127
    },
    {
      "midi": 59,
      "hit": false,
      "t": 356136.00750000053,
      "d": 1348.4835000000312,
      "v": 127
    },
    {
      "midi": 63,
      "hit": false,
      "t": 356136.00750000053,
      "d": 1348.4835000000312,
      "v": 127
    },
    {
      "midi": 56,
      "hit": false,
      "t": 356136.00750000053,
      "d": 1393.9380000000237,
      "v": 127
    },
    {
      "midi": 59,
      "hit": false,
      "t": 357499.64250000054,
      "d": 439.3935000000056,
      "v": 127
    },
    {
      "midi": 63,
      "hit": false,
      "t": 357499.64250000054,
      "d": 439.3935000000056,
      "v": 127
    },
    {
      "midi": 66,
      "hit": false,
      "t": 357499.64250000054,
      "d": 439.3935000000056,
      "v": 127
    },
    {
      "midi": 59,
      "hit": false,
      "t": 357954.1875000005,
      "d": 1348.4835000000312,
      "v": 127
    },
    {
      "midi": 68,
      "hit": false,
      "t": 357954.1875000005,
      "d": 1348.4835000000312,
      "v": 127
    },
    {
      "midi": 64,
      "hit": false,
      "t": 357954.1875000005,
      "d": 1409.0895000000019,
      "v": 127
    },
    {
      "midi": 40,
      "hit": false,
      "t": 357954.1875000005,
      "d": 1499.998499999987,
      "v": 127
    },
    {
      "midi": 59,
      "hit": false,
      "t": 359317.82250000053,
      "d": 439.3935000000056,
      "v": 127
    },
    {
      "midi": 63,
      "hit": false,
      "t": 359317.82250000053,
      "d": 454.5449999999837,
      "v": 127
    },
    {
      "midi": 66,
      "hit": false,
      "t": 359317.82250000053,
      "d": 454.5449999999837,
      "v": 127
    },
    {
      "midi": 47,
      "hit": false,
      "t": 359431.4587500005,
      "d": 424.2420000000275,
      "v": 127
    },
    {
      "midi": 59,
      "hit": false,
      "t": 359772.3675000005,
      "d": 1348.4835000000312,
      "v": 127
    },
    {
      "midi": 64,
      "hit": false,
      "t": 359772.3675000005,
      "d": 1378.7864999999874,
      "v": 127
    },
    {
      "midi": 68,
      "hit": false,
      "t": 359772.3675000005,
      "d": 1378.7864999999874,
      "v": 127
    },
    {
      "midi": 40,
      "hit": false,
      "t": 359999.64000000054,
      "d": 1090.9079999999958,
      "v": 127
    },
    {
      "midi": 37,
      "hit": false,
      "t": 361136.0025000005,
      "d": 424.2420000000275,
      "v": 127
    },
    {
      "midi": 54,
      "hit": false,
      "t": 361136.0025000005,
      "d": 439.3935000000056,
      "v": 127
    },
    {
      "midi": 61,
      "hit": false,
      "t": 361136.0025000005,
      "d": 439.3935000000056,
      "v": 127
    },
    {
      "midi": 66,
      "hit": false,
      "t": 361136.0025000005,
      "d": 439.3935000000056,
      "v": 127
    },
    {
      "midi": 44,
      "hit": false,
      "t": 361590.5475000005,
      "d": 1303.0290000000386,
      "v": 127
    },
    {
      "midi": 56,
      "hit": false,
      "t": 361590.5475000005,
      "d": 1348.4835000000312,
      "v": 127
    },
    {
      "midi": 59,
      "hit": false,
      "t": 361590.5475000005,
      "d": 1363.6350000000093,
      "v": 127
    },
    {
      "midi": 63,
      "hit": false,
      "t": 361590.5475000005,
      "d": 1363.6350000000093,
      "v": 127
    },
    {
      "midi": 32,
      "hit": false,
      "t": 361590.5475000005,
      "d": 1590.9075000000303,
      "v": 127
    },
    {
      "midi": 54,
      "hit": false,
      "t": 362954.1825000005,
      "d": 439.3935000000056,
      "v": 127
    },
    {
      "midi": 61,
      "hit": false,
      "t": 362954.1825000005,
      "d": 439.3935000000056,
      "v": 127
    },
    {
      "midi": 64,
      "hit": false,
      "t": 362954.1825000005,
      "d": 439.3935000000056,
      "v": 127
    },
    {
      "midi": 44,
      "hit": false,
      "t": 363408.7275000005,
      "d": 1303.0290000000386,
      "v": 127
    },
    {
      "midi": 59,
      "hit": false,
      "t": 363408.7275000005,
      "d": 1348.4835000000312,
      "v": 127
    },
    {
      "midi": 63,
      "hit": false,
      "t": 363408.7275000005,
      "d": 1348.4835000000312,
      "v": 127
    },
    {
      "midi": 56,
      "hit": false,
      "t": 363408.7275000005,
      "d": 1393.9380000000237,
      "v": 127
    },
    {
      "midi": 59,
      "hit": false,
      "t": 364772.3625000005,
      "d": 439.3935000000056,
      "v": 127
    },
    {
      "midi": 63,
      "hit": false,
      "t": 364772.3625000005,
      "d": 439.3935000000056,
      "v": 127
    },
    {
      "midi": 66,
      "hit": false,
      "t": 364772.3625000005,
      "d": 439.3935000000056,
      "v": 127
    },
    {
      "midi": 59,
      "hit": false,
      "t": 365226.9075000005,
      "d": 1121.2110000000102,
      "v": 127
    },
    {
      "midi": 64,
      "hit": false,
      "t": 365226.9075000005,
      "d": 1151.5140000000247,
      "v": 127
    },
    {
      "midi": 68,
      "hit": false,
      "t": 365226.9075000005,
      "d": 1151.5140000000247,
      "v": 127
    },
    {
      "midi": 40,
      "hit": false,
      "t": 365226.9075000005,
      "d": 1499.9985000000452,
      "v": 127
    }
  ]
}