{
  "jsonPath": "Animes/Dragon Ball Z MIDI Collection/mirai-trunks-batle-theme.json",
  "path": "Animes\\Dragon Ball Z MIDI Collection\\Mirai Trunks Batle Theme.mid",
  "name": "Mirai Trunks Batle Theme",
  "difficulty": "Advanced",
  "bpm": 384.61538461538464,
  "notes": [
    {
      "midi": 43,
      "hit": false,
      "t": 0,
      "d": 117,
      "v": 100
    },
    {
      "midi": 49,
      "hit": false,
      "t": 0,
      "d": 1404,
      "v": 100
    },
    {
      "midi": 50,
      "hit": false,
      "t": 0,
      "d": 117,
      "v": 100
    },
    {
      "midi": 44,
      "hit": false,
      "t": 0,
      "d": 4212,
      "v": 100
    },
    {
      "midi": 45,
      "hit": false,
      "t": 117,
      "d": 117,
      "v": 100
    },
    {
      "midi": 45,
      "hit": false,
      "t": 117,
      "d": 117,
      "v": 100
    },
    {
      "midi": 45,
      "hit": false,
      "t": 234,
      "d": 117,
      "v": 100
    },
    {
      "midi": 45,
      "hit": false,
      "t": 234,
      "d": 117,
      "v": 100
    },
    {
      "midi": 45,
      "hit": false,
      "t": 351,
      "d": 117,
      "v": 100
    },
    {
      "midi": 45,
      "hit": false,
      "t": 351,
      "d": 117,
      "v": 100
    },
    {
      "midi": 45,
      "hit": false,
      "t": 468,
      "d": 117,
      "v": 100
    },
    {
      "midi": 45,
      "hit": false,
      "t": 468,
      "d": 117,
      "v": 100
    },
    {
      "midi": 45,
      "hit": false,
      "t": 585,
      "d": 117,
      "v": 100
    },
    {
      "midi": 45,
      "hit": false,
      "t": 585,
      "d": 117,
      "v": 100
    },
    {
      "midi": 43,
      "hit": false,
      "t": 702,
      "d": 117,
      "v": 100
    },
    {
      "midi": 50,
      "hit": false,
      "t": 702,
      "d": 117,
      "v": 100
    },
    {
      "midi": 45,
      "hit": false,
      "t": 819,
      "d": 117,
      "v": 100
    },
    {
      "midi": 45,
      "hit": false,
      "t": 819,
      "d": 117,
      "v": 100
    },
    {
      "midi": 45,
      "hit": false,
      "t": 936,
      "d": 117,
      "v": 100
    },
    {
      "midi": 45,
      "hit": false,
      "t": 936,
      "d": 117,
      "v": 100
    },
    {
      "midi": 45,
      "hit": false,
      "t": 1053,
      "d": 117,
      "v": 100
    },
    {
      "midi": 64,
      "hit": false,
      "t": 1053,
      "d": 117,
      "v": 100
    },
    {
      "midi": 45,
      "hit": false,
      "t": 1170,
      "d": 117,
      "v": 100
    },
    {
      "midi": 60,
      "hit": false,
      "t": 1170,
      "d": 117,
      "v": 100
    },
    {
      "midi": 45,
      "hit": false,
      "t": 1287,
      "d": 117,
      "v": 100
    },
    {
      "midi": 55,
      "hit": false,
      "t": 1287,
      "d": 117,
      "v": 100
    },
    {
      "midi": 47,
      "hit": false,
      "t": 1404,
      "d": 117,
      "v": 100
    },
    {
      "midi": 49,
      "hit": false,
      "t": 1404,
      "d": 1404,
      "v": 100
    },
    {
      "midi": 50,
      "hit": false,
      "t": 1404,
      "d": 117,
      "v": 100
    },
    {
      "midi": 48,
      "hit": false,
      "t": 1521,
      "d": 117,
      "v": 100
    },
    {
      "midi": 45,
      "hit": false,
      "t": 1521,
      "d": 117,
      "v": 100
    },
    {
      "midi": 48,
      "hit": false,
      "t": 1638,
      "d": 117,
      "v": 100
    },
    {
      "midi": 45,
      "hit": false,
      "t": 1638,
      "d": 117,
      "v": 100
    },
    {
      "midi": 48,
      "hit": false,
      "t": 1755,
      "d": 117,
      "v": 100
    },
    {
      "midi": 45,
      "hit": false,
      "t": 1755,
      "d": 117,
      "v": 100
    },
    {
      "midi": 48,
      "hit": false,
      "t": 1872,
      "d": 117,
      "v": 100
    },
    {
      "midi": 45,
      "hit": false,
      "t": 1872,
      "d": 117,
      "v": 100
    },
    {
      "midi": 48,
      "hit": false,
      "t": 1989,
      "d": 117,
      "v": 100
    },
    {
      "midi": 45,
      "hit": false,
      "t": 1989,
      "d": 117,
      "v": 100
    },
    {
      "midi": 47,
      "hit": false,
      "t": 2106,
      "d": 117,
      "v": 100
    },
    {
      "midi": 50,
      "hit": false,
      "t": 2106,
      "d": 117,
      "v": 100
    },
    {
      "midi": 48,
      "hit": false,
      "t": 2223,
      "d": 117,
      "v": 100
    },
    {
      "midi": 45,
      "hit": false,
      "t": 2223,
      "d": 117,
      "v": 100
    },
    {
      "midi": 48,
      "hit": false,
      "t": 2340,
      "d": 117,
      "v": 100
    },
    {
      "midi": 45,
      "hit": false,
      "t": 2340,
      "d": 117,
      "v": 100
    },
    {
      "midi": 48,
      "hit": false,
      "t": 2457,
      "d": 117,
      "v": 100
    },
    {
      "midi": 64,
      "hit": false,
      "t": 2457,
      "d": 117,
      "v": 100
    },
    {
      "midi": 48,
      "hit": false,
      "t": 2574,
      "d": 117,
      "v": 100
    },
    {
      "midi": 60,
      "hit": false,
      "t": 2574,
      "d": 117,
      "v": 100
    },
    {
      "midi": 48,
      "hit": false,
      "t": 2691,
      "d": 117,
      "v": 100
    },
    {
      "midi": 55,
      "hit": false,
      "t": 2691,
      "d": 117,
      "v": 100
    },
    {
      "midi": 50,
      "hit": false,
      "t": 2808,
      "d": 117,
      "v": 100
    },
    {
      "midi": 49,
      "hit": false,
      "t": 2808,
      "d": 1404,
      "v": 100
    },
    {
      "midi": 50,
      "hit": false,
      "t": 2808,
      "d": 117,
      "v": 100
    },
    {
      "midi": 52,
      "hit": false,
      "t": 2925,
      "d": 117,
      "v": 100
    },
    {
      "midi": 45,
      "hit": false,
      "t": 2925,
      "d": 117,
      "v": 100
    },
    {
      "midi": 52,
      "hit": false,
      "t": 3042,
      "d": 117,
      "v": 100
    },
    {
      "midi": 45,
      "hit": false,
      "t": 3042,
      "d": 117,
      "v": 100
    },
    {
      "midi": 52,
      "hit": false,
      "t": 3159,
      "d": 117,
      "v": 100
    },
    {
      "midi": 45,
      "hit": false,
      "t": 3159,
      "d": 117,
      "v": 100
    },
    {
      "midi": 52,
      "hit": false,
      "t": 3276,
      "d": 117,
      "v": 100
    },
    {
      "midi": 45,
      "hit": false,
      "t": 3276,
      "d": 117,
      "v": 100
    },
    {
      "midi": 52,
      "hit": false,
      "t": 3393,
      "d": 117,
      "v": 100
    },
    {
      "midi": 45,
      "hit": false,
      "t": 3393,
      "d": 117,
      "v": 100
    },
    {
      "midi": 50,
      "hit": false,
      "t": 3510,
      "d": 117,
      "v": 100
    },
    {
      "midi": 50,
      "hit": false,
      "t": 3510,
      "d": 117,
      "v": 100
    },
    {
      "midi": 52,
      "hit": false,
      "t": 3627,
      "d": 117,
      "v": 100
    },
    {
      "midi": 45,
      "hit": false,
      "t": 3627,
      "d": 117,
      "v": 100
    },
    {
      "midi": 52,
      "hit": false,
      "t": 3744,
      "d": 117,
      "v": 100
    },
    {
      "midi": 45,
      "hit": false,
      "t": 3744,
      "d": 117,
      "v": 100
    },
    {
      "midi": 52,
      "hit": false,
      "t": 3861,
      "d": 117,
      "v": 100
    },
    {
      "midi": 64,
      "hit": false,
      "t": 3861,
      "d": 117,
      "v": 100
    },
    {
      "midi": 52,
      "hit": false,
      "t": 3978,
      "d": 117,
      "v": 100
    },
    {
      "midi": 60,
      "hit": false,
      "t": 3978,
      "d": 117,
      "v": 100
    },
    {
      "midi": 52,
      "hit": false,
      "t": 4095,
      "d": 117,
      "v": 100
    },
    {
      "midi": 55,
      "hit": false,
      "t": 4095,
      "d": 117,
      "v": 100
    },
    {
      "midi": 57,
      "hit": false,
      "t": 4212,
      "d": 117,
      "v": 100
    },
    {
      "midi": 49,
      "hit": false,
      "t": 4212,
      "d": 234,
      "v": 100
    },
    {
      "midi": 50,
      "hit": false,
      "t": 4212,
      "d": 117,
      "v": 100
    },
    {
      "midi": 45,
      "hit": false,
      "t": 4212,
      "d": 117,
      "v": 100
    },
    {
      "midi": 57,
      "hit": false,
      "t": 4329,
      "d": 117,
      "v": 100
    },
    {
      "midi": 51,
      "hit": false,
      "t": 4329,
      "d": 117,
      "v": 100
    },
    {
      "midi": 45,
      "hit": false,
      "t": 4329,
      "d": 117,
      "v": 100
    },
    {
      "midi": 57,
      "hit": false,
      "t": 4446,
      "d": 117,
      "v": 100
    },
    {
      "midi": 49,
      "hit": false,
      "t": 4446,
      "d": 234,
      "v": 100
    },
    {
      "midi": 51,
      "hit": false,
      "t": 4446,
      "d": 117,
      "v": 100
    },
    {
      "midi": 45,
      "hit": false,
      "t": 4446,
      "d": 117,
      "v": 100
    },
    {
      "midi": 59,
      "hit": false,
      "t": 4563,
      "d": 117,
      "v": 100
    },
    {
      "midi": 50,
      "hit": false,
      "t": 4563,
      "d": 117,
      "v": 100
    },
    {
      "midi": 45,
      "hit": false,
      "t": 4563,
      "d": 117,
      "v": 100
    },
    {
      "midi": 59,
      "hit": false,
      "t": 4680,
      "d": 117,
      "v": 100
    },
    {
      "midi": 49,
      "hit": false,
      "t": 4680,
      "d": 234,
      "v": 100
    },
    {
      "midi": 51,
      "hit": false,
      "t": 4680,
      "d": 117,
      "v": 100
    },
    {
      "midi": 45,
      "hit": false,
      "t": 4680,
      "d": 117,
      "v": 100
    },
    {
      "midi": 59,
      "hit": false,
      "t": 4797,
      "d": 117,
      "v": 100
    },
    {
      "midi": 51,
      "hit": false,
      "t": 4797,
      "d": 117,
      "v": 100
    },
    {
      "midi": 45,
      "hit": false,
      "t": 4797,
      "d": 117,
      "v": 100
    },
    {
      "midi": 60,
      "hit": false,
      "t": 4914,
      "d": 117,
      "v": 100
    },
    {
      "midi": 49,
      "hit": false,
      "t": 4914,
      "d": 234,
      "v": 100
    },
    {
      "midi": 50,
      "hit": false,
      "t": 4914,
      "d": 117,
      "v": 100
    },
    {
      "midi": 45,
      "hit": false,
      "t": 4914,
      "d": 117,
      "v": 100
    },
    {
      "midi": 60,
      "hit": false,
      "t": 5031,
      "d": 117,
      "v": 100
    },
    {
      "midi": 51,
      "hit": false,
      "t": 5031,
      "d": 117,
      "v": 100
    },
    {
      "midi": 45,
      "hit": false,
      "t": 5031,
      "d": 117,
      "v": 100
    },
    {
      "midi": 60,
      "hit": false,
      "t": 5148,
      "d": 117,
      "v": 100
    },
    {
      "midi": 49,
      "hit": false,
      "t": 5148,
      "d": 234,
      "v": 100
    },
    {
      "midi": 51,
      "hit": false,
      "t": 5148,
      "d": 117,
      "v": 100
    },
    {
      "midi": 45,
      "hit": false,
      "t": 5148,
      "d": 819,
      "v": 100
    },
    {
      "midi": 69,
      "hit": false,
      "t": 5265,
      "d": 117,
      "v": 100
    },
    {
      "midi": 50,
      "hit": false,
      "t": 5265,
      "d": 117,
      "v": 100
    },
    {
      "midi": 69,
      "hit": false,
      "t": 5382,
      "d": 117,
      "v": 100
    },
    {
      "midi": 49,
      "hit": false,
      "t": 5382,
      "d": 234,
      "v": 100
    },
    {
      "midi": 51,
      "hit": false,
      "t": 5382,
      "d": 117,
      "v": 100
    },
    {
      "midi": 69,
      "hit": false,
      "t": 5499,
      "d": 117,
      "v": 100
    },
    {
      "midi": 51,
      "hit": false,
      "t": 5499,
      "d": 117,
      "v": 100
    },
    {
      "midi": 50,
      "hit": false,
      "t": 5616,
      "d": 234,
      "v": 100
    },
    {
      "midi": 45,
      "hit": false,
      "t": 5616,
      "d": 117,
      "v": 100
    },
    {
      "midi": 50,
      "hit": false,
      "t": 5616,
      "d": 234,
      "v": 100
    },
    {
      "midi": 48,
      "hit": false,
      "t": 5733,
      "d": 117,
      "v": 100
    },
    {
      "midi": 50,
      "hit": false,
      "t": 5850,
      "d": 117,
      "v": 100
    },
    {
      "midi": 52,
      "hit": false,
      "t": 5850,
      "d": 117,
      "v": 100
    },
    {
      "midi": 50,
      "hit": false,
      "t": 5850,
      "d": 117,
      "v": 100
    },
    {
      "midi": 50,
      "hit": false,
      "t": 5967,
      "d": 234,
      "v": 100
    },
    {
      "midi": 57,
      "hit": false,
      "t": 5967,
      "d": 117,
      "v": 100
    },
    {
      "midi": 51,
      "hit": false,
      "t": 5967,
      "d": 234,
      "v": 100
    },
    {
      "midi": 64,
      "hit": false,
      "t": 5967,
      "d": 351,
      "v": 100
    },
    {
      "midi": 60,
      "hit": false,
      "t": 6084,
      "d": 117,
      "v": 100
    },
    {
      "midi": 50,
      "hit": false,
      "t": 6201,
      "d": 117,
      "v": 100
    },
    {
      "midi": 57,
      "hit": false,
      "t": 6201,
      "d": 117,
      "v": 100
    },
    {
      "midi": 50,
      "hit": false,
      "t": 6201,
      "d": 117,
      "v": 100
    },
    {
      "midi": 50,
      "hit": false,
      "t": 6318,
      "d": 234,
      "v": 100
    },
    {
      "midi": 45,
      "hit": false,
      "t": 6318,
      "d": 117,
      "v": 100
    },
    {
      "midi": 50,
      "hit": false,
      "t": 6318,
      "d": 234,
      "v": 100
    },
    {
      "midi": 60,
      "hit": false,
      "t": 6318,
      "d": 351,
      "v": 100
    },
    {
      "midi": 48,
      "hit": false,
      "t": 6435,
      "d": 117,
      "v": 100
    },
    {
      "midi": 50,
      "hit": false,
      "t": 6552,
      "d": 117,
      "v": 100
    },
    {
      "midi": 52,
      "hit": false,
      "t": 6552,
      "d": 117,
      "v": 100
    },
    {
      "midi": 50,
      "hit": false,
      "t": 6552,
      "d": 117,
      "v": 100
    },
    {
      "midi": 50,
      "hit": false,
      "t": 6669,
      "d": 234,
      "v": 100
    },
    {
      "midi": 57,
      "hit": false,
      "t": 6669,
      "d": 117,
      "v": 100
    },
    {
      "midi": 51,
      "hit": false,
      "t": 6669,
      "d": 234,
      "v": 100
    },
    {
      "midi": 57,
      "hit": false,
      "t": 6669,
      "d": 351,
      "v": 100
    },
    {
      "midi": 60,
      "hit": false,
      "t": 6786,
      "d": 117,
      "v": 100
    },
    {
      "midi": 50,
      "hit": false,
      "t": 6903,
      "d": 117,
      "v": 100
    },
    {
      "midi": 52,
      "hit": false,
      "t": 6903,
      "d": 117,
      "v": 100
    },
    {
      "midi": 50,
      "hit": false,
      "t": 6903,
      "d": 117,
      "v": 100
    },
    {
      "midi": 43,
      "hit": false,
      "t": 7020,
      "d": 234,
      "v": 100
    },
    {
      "midi": 43,
      "hit": false,
      "t": 7020,
      "d": 117,
      "v": 100
    },
    {
      "midi": 50,
      "hit": false,
      "t": 7020,
      "d": 234,
      "v": 100
    },
    {
      "midi": 62,
      "hit": false,
      "t": 7020,
      "d": 351,
      "v": 100
    },
    {
      "midi": 47,
      "hit": false,
      "t": 7137,
      "d": 117,
      "v": 100
    },
    {
      "midi": 43,
      "hit": false,
      "t": 7254,
      "d": 117,
      "v": 100
    },
    {
      "midi": 50,
      "hit": false,
      "t": 7254,
      "d": 117,
      "v": 100
    },
    {
      "midi": 50,
      "hit": false,
      "t": 7254,
      "d": 117,
      "v": 100
    },
    {
      "midi": 43,
      "hit": false,
      "t": 7371,
      "d": 234,
      "v": 100
    },
    {
      "midi": 55,
      "hit": false,
      "t": 7371,
      "d": 117,
      "v": 100
    },
    {
      "midi": 51,
      "hit": false,
      "t": 7371,
      "d": 234,
      "v": 100
    },
    {
      "midi": 59,
      "hit": false,
      "t": 7371,
      "d": 351,
      "v": 100
    },
    {
      "midi": 59,
      "hit": false,
      "t": 7488,
      "d": 117,
      "v": 100
    },
    {
      "midi": 43,
      "hit": false,
      "t": 7605,
      "d": 117,
      "v": 100
    },
    {
      "midi": 50,
      "hit": false,
      "t": 7605,
      "d": 117,
      "v": 100
    },
    {
      "midi": 50,
      "hit": false,
      "t": 7605,
      "d": 117,
      "v": 100
    },
    {
      "midi": 43,
      "hit": false,
      "t": 7722,
      "d": 234,
      "v": 100
    },
    {
      "midi": 43,
      "hit": false,
      "t": 7722,
      "d": 117,
      "v": 100
    },
    {
      "midi": 50,
      "hit": false,
      "t": 7722,
      "d": 234,
      "v": 100
    },
    {
      "midi": 55,
      "hit": false,
      "t": 7722,
      "d": 351,
      "v": 100
    },
    {
      "midi": 47,
      "hit": false,
      "t": 7839,
      "d": 117,
      "v": 100
    },
    {
      "midi": 43,
      "hit": false,
      "t": 7956,
      "d": 117,
      "v": 100
    },
    {
      "midi": 50,
      "hit": false,
      "t": 7956,
      "d": 117,
      "v": 100
    },
    {
      "midi": 50,
      "hit": false,
      "t": 7956,
      "d": 117,
      "v": 100
    },
    {
      "midi": 43,
      "hit": false,
      "t": 8073,
      "d": 117,
      "v": 100
    },
    {
      "midi": 55,
      "hit": false,
      "t": 8073,
      "d": 117,
      "v": 100
    },
    {
      "midi": 51,
      "hit": false,
      "t": 8073,
      "d": 234,
      "v": 100
    },
    {
      "midi": 62,
      "hit": false,
      "t": 8073,
      "d": 702,
      "v": 100
    },
    {
      "midi": 42,
      "hit": false,
      "t": 8190,
      "d": 117,
      "v": 100
    },
    {
      "midi": 59,
      "hit": false,
      "t": 8190,
      "d": 117,
      "v": 100
    },
    {
      "midi": 41,
      "hit": false,
      "t": 8307,
      "d": 117,
      "v": 100
    },
    {
      "midi": 50,
      "hit": false,
      "t": 8307,
      "d": 117,
      "v": 100
    },
    {
      "midi": 50,
      "hit": false,
      "t": 8307,
      "d": 117,
      "v": 100
    },
    {
      "midi": 40,
      "hit": false,
      "t": 8424,
      "d": 234,
      "v": 100
    },
    {
      "midi": 40,
      "hit": false,
      "t": 8424,
      "d": 117,
      "v": 100
    },
    {
      "midi": 50,
      "hit": false,
      "t": 8424,
      "d": 234,
      "v": 100
    },
    {
      "midi": 43,
      "hit": false,
      "t": 8541,
      "d": 117,
      "v": 100
    },
    {
      "midi": 40,
      "hit": false,
      "t": 8658,
      "d": 117,
      "v": 100
    },
    {
      "midi": 47,
      "hit": false,
      "t": 8658,
      "d": 117,
      "v": 100
    },
    {
      "midi": 50,
      "hit": false,
      "t": 8658,
      "d": 117,
      "v": 100
    },
    {
      "midi": 40,
      "hit": false,
      "t": 8775,
      "d": 234,
      "v": 100
    },
    {
      "midi": 50,
      "hit": false,
      "t": 8775,
      "d": 117,
      "v": 100
    },
    {
      "midi": 51,
      "hit": false,
      "t": 8775,
      "d": 234,
      "v": 100
    },
    {
      "midi": 62,
      "hit": false,
      "t": 8775,
      "d": 351,
      "v": 100
    },
    {
      "midi": 59,
      "hit": false,
      "t": 8892,
      "d": 117,
      "v": 100
    },
    {
      "midi": 40,
      "hit": false,
      "t": 9009,
      "d": 117,
      "v": 100
    },
    {
      "midi": 52,
      "hit": false,
      "t": 9009,
      "d": 117,
      "v": 100
    },
    {
      "midi": 50,
      "hit": false,
      "t": 9009,
      "d": 117,
      "v": 100
    },
    {
      "midi": 40,
      "hit": false,
      "t": 9126,
      "d": 234,
      "v": 100
    },
    {
      "midi": 40,
      "hit": false,
      "t": 9126,
      "d": 117,
      "v": 100
    },
    {
      "midi": 50,
      "hit": false,
      "t": 9126,
      "d": 234,
      "v": 100
    },
    {
      "midi": 59,
      "hit": false,
      "t": 9126,
      "d": 351,
      "v": 100
    },
    {
      "midi": 43,
      "hit": false,
      "t": 9243,
      "d": 117,
      "v": 100
    },
    {
      "midi": 40,
      "hit": false,
      "t": 9360,
      "d": 117,
      "v": 100
    },
    {
      "midi": 47,
      "hit": false,
      "t": 9360,
      "d": 117,
      "v": 100
    },
    {
      "midi": 50,
      "hit": false,
      "t": 9360,
      "d": 117,
      "v": 100
    },
    {
      "midi": 40,
      "hit": false,
      "t": 9477,
      "d": 234,
      "v": 100
    },
    {
      "midi": 52,
      "hit": false,
      "t": 9477,
      "d": 117,
      "v": 100
    },
    {
      "midi": 51,
      "hit": false,
      "t": 9477,
      "d": 234,
      "v": 100
    },
    {
      "midi": 55,
      "hit": false,
      "t": 9477,
      "d": 351,
      "v": 100
    },
    {
      "midi": 59,
      "hit": false,
      "t": 9594,
      "d": 117,
      "v": 100
    },
    {
      "midi": 40,
      "hit": false,
      "t": 9711,
      "d": 117,
      "v": 100
    },
    {
      "midi": 52,
      "hit": false,
      "t": 9711,
      "d": 117,
      "v": 100
    },
    {
      "midi": 50,
      "hit": false,
      "t": 9711,
      "d": 117,
      "v": 100
    },
    {
      "midi": 45,
      "hit": false,
      "t": 9828,
      "d": 234,
      "v": 100
    },
    {
      "midi": 45,
      "hit": false,
      "t": 9828,
      "d": 117,
      "v": 100
    },
    {
      "midi": 50,
      "hit": false,
      "t": 9828,
      "d": 234,
      "v": 100
    },
    {
      "midi": 59,
      "hit": false,
      "t": 9828,
      "d": 351,
      "v": 100
    },
    {
      "midi": 48,
      "hit": false,
      "t": 9945,
      "d": 117,
      "v": 100
    },
    {
      "midi": 45,
      "hit": false,
      "t": 10062,
      "d": 117,
      "v": 100
    },
    {
      "midi": 52,
      "hit": false,
      "t": 10062,
      "d": 117,
      "v": 100
    },
    {
      "midi": 50,
      "hit": false,
      "t": 10062,
      "d": 117,
      "v": 100
    },
    {
      "midi": 45,
      "hit": false,
      "t": 10179,
      "d": 234,
      "v": 100
    },
    {
      "midi": 57,
      "hit": false,
      "t": 10179,
      "d": 117,
      "v": 100
    },
    {
      "midi": 51,
      "hit": false,
      "t": 10179,
      "d": 234,
      "v": 100
    },
    {
      "midi": 57,
      "hit": false,
      "t": 10179,
      "d": 351,
      "v": 100
    },
    {
      "midi": 60,
      "hit": false,
      "t": 10296,
      "d": 117,
      "v": 100
    },
    {
      "midi": 45,
      "hit": false,
      "t": 10413,
      "d": 117,
      "v": 100
    },
    {
      "midi": 52,
      "hit": false,
      "t": 10413,
      "d": 117,
      "v": 100
    },
    {
      "midi": 50,
      "hit": false,
      "t": 10413,
      "d": 117,
      "v": 100
    },
    {
      "midi": 45,
      "hit": false,
      "t": 10530,
      "d": 234,
      "v": 100
    },
    {
      "midi": 45,
      "hit": false,
      "t": 10530,
      "d": 117,
      "v": 100
    },
    {
      "midi": 50,
      "hit": false,
      "t": 10530,
      "d": 234,
      "v": 100
    },
    {
      "midi": 60,
      "hit": false,
      "t": 10530,
      "d": 351,
      "v": 100
    },
    {
      "midi": 48,
      "hit": false,
      "t": 10647,
      "d": 117,
      "v": 100
    },
    {
      "midi": 45,
      "hit": false,
      "t": 10764,
      "d": 117,
      "v": 100
    },
    {
      "midi": 52,
      "hit": false,
      "t": 10764,
      "d": 117,
      "v": 100
    },
    {
      "midi": 50,
      "hit": false,
      "t": 10764,
      "d": 117,
      "v": 100
    },
    {
      "midi": 45,
      "hit": false,
      "t": 10881,
      "d": 117,
      "v": 100
    },
    {
      "midi": 57,
      "hit": false,
      "t": 10881,
      "d": 117,
      "v": 100
    },
    {
      "midi": 51,
      "hit": false,
      "t": 10881,
      "d": 234,
      "v": 100
    },
    {
      "midi": 52,
      "hit": false,
      "t": 10881,
      "d": 351,
      "v": 100
    },
    {
      "midi": 48,
      "hit": false,
      "t": 10998,
      "d": 117,
      "v": 100
    },
    {
      "midi": 60,
      "hit": false,
      "t": 10998,
      "d": 117,
      "v": 100
    },
    {
      "midi": 49,
      "hit": false,
      "t": 11115,
      "d": 117,
      "v": 100
    },
    {
      "midi": 52,
      "hit": false,
      "t": 11115,
      "d": 117,
      "v": 100
    },
    {
      "midi": 50,
      "hit": false,
      "t": 11115,
      "d": 117,
      "v": 100
    },
    {
      "midi": 50,
      "hit": false,
      "t": 11232,
      "d": 234,
      "v": 100
    },
    {
      "midi": 50,
      "hit": false,
      "t": 11232,
      "d": 117,
      "v": 100
    },
    {
      "midi": 50,
      "hit": false,
      "t": 11232,
      "d": 234,
      "v": 100
    },
    {
      "midi": 55,
      "hit": false,
      "t": 11232,
      "d": 702,
      "v": 100
    },
    {
      "midi": 53,
      "hit": false,
      "t": 11349,
      "d": 117,
      "v": 100
    },
    {
      "midi": 50,
      "hit": false,
      "t": 11466,
      "d": 117,
      "v": 100
    },
    {
      "midi": 50,
      "hit": false,
      "t": 11466,
      "d": 117,
      "v": 100
    },
    {
      "midi": 50,
      "hit": false,
      "t": 11466,
      "d": 117,
      "v": 100
    },
    {
      "midi": 50,
      "hit": false,
      "t": 11583,
      "d": 234,
      "v": 100
    },
    {
      "midi": 62,
      "hit": false,
      "t": 11583,
      "d": 117,
      "v": 100
    },
    {
      "midi": 51,
      "hit": false,
      "t": 11583,
      "d": 234,
      "v": 100
    },
    {
      "midi": 57,
      "hit": false,
      "t": 11700,
      "d": 117,
      "v": 100
    },
    {
      "midi": 50,
      "hit": false,
      "t": 11817,
      "d": 117,
      "v": 100
    },
    {
      "midi": 62,
      "hit": false,
      "t": 11817,
      "d": 117,
      "v": 100
    },
    {
      "midi": 50,
      "hit": false,
      "t": 11817,
      "d": 117,
      "v": 100
    },
    {
      "midi": 50,
      "hit": false,
      "t": 11934,
      "d": 234,
      "v": 100
    },
    {
      "midi": 50,
      "hit": false,
      "t": 11934,
      "d": 117,
      "v": 100
    },
    {
      "midi": 50,
      "hit": false,
      "t": 11934,
      "d": 234,
      "v": 100
    },
    {
      "midi": 53,
      "hit": false,
      "t": 11934,
      "d": 702,
      "v": 100
    },
    {
      "midi": 53,
      "hit": false,
      "t": 12051,
      "d": 117,
      "v": 100
    },
    {
      "midi": 50,
      "hit": false,
      "t": 12168,
      "d": 117,
      "v": 100
    },
    {
      "midi": 50,
      "hit": false,
      "t": 12168,
      "d": 117,
      "v": 100
    },
    {
      "midi": 50,
      "hit": false,
      "t": 12168,
      "d": 117,
      "v": 100
    },
    {
      "midi": 50,
      "hit": false,
      "t": 12285,
      "d": 234,
      "v": 100
    },
    {
      "midi": 62,
      "hit": false,
      "t": 12285,
      "d": 117,
      "v": 100
    },
    {
      "midi": 51,
      "hit": false,
      "t": 12285,
      "d": 234,
      "v": 100
    },
    {
      "midi": 57,
      "hit": false,
      "t": 12402,
      "d": 117,
      "v": 100
    },
    {
      "midi": 50,
      "hit": false,
      "t": 12519,
      "d": 117,
      "v": 100
    },
    {
      "midi": 62,
      "hit": false,
      "t": 12519,
      "d": 117,
      "v": 100
    },
    {
      "midi": 50,
      "hit": false,
      "t": 12519,
      "d": 117,
      "v": 100
    },
    {
      "midi": 47,
      "hit": false,
      "t": 12636,
      "d": 234,
      "v": 100
    },
    {
      "midi": 47,
      "hit": false,
      "t": 12636,
      "d": 117,
      "v": 100
    },
    {
      "midi": 50,
      "hit": false,
      "t": 12636,
      "d": 234,
      "v": 100
    },
    {
      "midi": 47,
      "hit": false,
      "t": 12636,
      "d": 351,
      "v": 100
    },
    {
      "midi": 51,
      "hit": false,
      "t": 12753,
      "d": 117,
      "v": 100
    },
    {
      "midi": 47,
      "hit": false,
      "t": 12870,
      "d": 117,
      "v": 100
    },
    {
      "midi": 54,
      "hit": false,
      "t": 12870,
      "d": 117,
      "v": 100
    },
    {
      "midi": 50,
      "hit": false,
      "t": 12870,
      "d": 117,
      "v": 100
    },
    {
      "midi": 47,
      "hit": false,
      "t": 12987,
      "d": 234,
      "v": 100
    },
    {
      "midi": 59,
      "hit": false,
      "t": 12987,
      "d": 117,
      "v": 100
    },
    {
      "midi": 51,
      "hit": false,
      "t": 12987,
      "d": 234,
      "v": 100
    },
    {
      "midi": 51,
      "hit": false,
      "t": 12987,
      "d": 351,
      "v": 100
    },
    {
      "midi": 54,
      "hit": false,
      "t": 13104,
      "d": 117,
      "v": 100
    },
    {
      "midi": 47,
      "hit": false,
      "t": 13221,
      "d": 117,
      "v": 100
    },
    {
      "midi": 59,
      "hit": false,
      "t": 13221,
      "d": 117,
      "v": 100
    },
    {
      "midi": 50,
      "hit": false,
      "t": 13221,
      "d": 117,
      "v": 100
    },
    {
      "midi": 47,
      "hit": false,
      "t": 13338,
      "d": 234,
      "v": 100
    },
    {
      "midi": 47,
      "hit": false,
      "t": 13338,
      "d": 117,
      "v": 100
    },
    {
      "midi": 50,
      "hit": false,
      "t": 13338,
      "d": 234,
      "v": 100
    },
    {
      "midi": 54,
      "hit": false,
      "t": 13338,
      "d": 351,
      "v": 100
    },
    {
      "midi": 51,
      "hit": false,
      "t": 13455,
      "d": 117,
      "v": 100
    },
    {
      "midi": 47,
      "hit": false,
      "t": 13572,
      "d": 117,
      "v": 100
    },
    {
      "midi": 54,
      "hit": false,
      "t": 13572,
      "d": 117,
      "v": 100
    },
    {
      "midi": 50,
      "hit": false,
      "t": 13572,
      "d": 117,
      "v": 100
    },
    {
      "midi": 47,
      "hit": false,
      "t": 13689,
      "d": 117,
      "v": 100
    },
    {
      "midi": 59,
      "hit": false,
      "t": 13689,
      "d": 117,
      "v": 100
    },
    {
      "midi": 51,
      "hit": false,
      "t": 13689,
      "d": 234,
      "v": 100
    },
    {
      "midi": 59,
      "hit": false,
      "t": 13689,
      "d": 351,
      "v": 100
    },
    {
      "midi": 49,
      "hit": false,
      "t": 13806,
      "d": 117,
      "v": 100
    },
    {
      "midi": 54,
      "hit": false,
      "t": 13806,
      "d": 117,
      "v": 100
    },
    {
      "midi": 51,
      "hit": false,
      "t": 13923,
      "d": 117,
      "v": 100
    },
    {
      "midi": 59,
      "hit": false,
      "t": 13923,
      "d": 117,
      "v": 100
    },
    {
      "midi": 50,
      "hit": false,
      "t": 13923,
      "d": 117,
      "v": 100
    },
    {
      "midi": 52,
      "hit": false,
      "t": 14040,
      "d": 234,
      "v": 100
    },
    {
      "midi": 52,
      "hit": false,
      "t": 14040,
      "d": 117,
      "v": 100
    },
    {
      "midi": 50,
      "hit": false,
      "t": 14040,
      "d": 234,
      "v": 100
    },
    {
      "midi": 57,
      "hit": false,
      "t": 14040,
      "d": 1053,
      "v": 100
    },
    {
      "midi": 55,
      "hit": false,
      "t": 14157,
      "d": 117,
      "v": 100
    },
    {
      "midi": 52,
      "hit": false,
      "t": 14274,
      "d": 117,
      "v": 100
    },
    {
      "midi": 59,
      "hit": false,
      "t": 14274,
      "d": 117,
      "v": 100
    },
    {
      "midi": 50,
      "hit": false,
      "t": 14274,
      "d": 117,
      "v": 100
    },
    {
      "midi": 52,
      "hit": false,
      "t": 14391,
      "d": 234,
      "v": 100
    },
    {
      "midi": 64,
      "hit": false,
      "t": 14391,
      "d": 117,
      "v": 100
    },
    {
      "midi": 51,
      "hit": false,
      "t": 14391,
      "d": 234,
      "v": 100
    },
    {
      "midi": 59,
      "hit": false,
      "t": 14508,
      "d": 117,
      "v": 100
    },
    {
      "midi": 52,
      "hit": false,
      "t": 14625,
      "d": 117,
      "v": 100
    },
    {
      "midi": 64,
      "hit": false,
      "t": 14625,
      "d": 117,
      "v": 100
    },
    {
      "midi": 50,
      "hit": false,
      "t": 14625,
      "d": 117,
      "v": 100
    },
    {
      "midi": 52,
      "hit": false,
      "t": 14742,
      "d": 234,
      "v": 100
    },
    {
      "midi": 52,
      "hit": false,
      "t": 14742,
      "d": 117,
      "v": 100
    },
    {
      "midi": 50,
      "hit": false,
      "t": 14742,
      "d": 234,
      "v": 100
    },
    {
      "midi": 55,
      "hit": false,
      "t": 14859,
      "d": 117,
      "v": 100
    },
    {
      "midi": 52,
      "hit": false,
      "t": 14976,
      "d": 117,
      "v": 100
    },
    {
      "midi": 59,
      "hit": false,
      "t": 14976,
      "d": 117,
      "v": 100
    },
    {
      "midi": 50,
      "hit": false,
      "t": 14976,
      "d": 117,
      "v": 100
    },
    {
      "midi": 52,
      "hit": false,
      "t": 15093,
      "d": 234,
      "v": 100
    },
    {
      "midi": 64,
      "hit": false,
      "t": 15093,
      "d": 117,
      "v": 100
    },
    {
      "midi": 51,
      "hit": false,
      "t": 15093,
      "d": 234,
      "v": 100
    },
    {
      "midi": 59,
      "hit": false,
      "t": 15093,
      "d": 117,
      "v": 100
    },
    {
      "midi": 59,
      "hit": false,
      "t": 15210,
      "d": 117,
      "v": 100
    },
    {
      "midi": 52,
      "hit": false,
      "t": 15210,
      "d": 117,
      "v": 100
    },
    {
      "midi": 52,
      "hit": false,
      "t": 15327,
      "d": 117,
      "v": 100
    },
    {
      "midi": 64,
      "hit": false,
      "t": 15327,
      "d": 117,
      "v": 100
    },
    {
      "midi": 50,
      "hit": false,
      "t": 15327,
      "d": 117,
      "v": 100
    },
    {
      "midi": 57,
      "hit": false,
      "t": 15327,
      "d": 117,
      "v": 100
    },
    {
      "midi": 40,
      "hit": false,
      "t": 15444,
      "d": 234,
      "v": 100
    },
    {
      "midi": 52,
      "hit": false,
      "t": 15444,
      "d": 117,
      "v": 100
    },
    {
      "midi": 50,
      "hit": false,
      "t": 15444,
      "d": 234,
      "v": 100
    },
    {
      "midi": 56,
      "hit": false,
      "t": 15444,
      "d": 702,
      "v": 100
    },
    {
      "midi": 56,
      "hit": false,
      "t": 15561,
      "d": 117,
      "v": 100
    },
    {
      "midi": 40,
      "hit": false,
      "t": 15678,
      "d": 117,
      "v": 100
    },
    {
      "midi": 59,
      "hit": false,
      "t": 15678,
      "d": 117,
      "v": 100
    },
    {
      "midi": 50,
      "hit": false,
      "t": 15678,
      "d": 117,
      "v": 100
    },
    {
      "midi": 40,
      "hit": false,
      "t": 15795,
      "d": 234,
      "v": 100
    },
    {
      "midi": 64,
      "hit": false,
      "t": 15795,
      "d": 117,
      "v": 100
    },
    {
      "midi": 51,
      "hit": false,
      "t": 15795,
      "d": 234,
      "v": 100
    },
    {
      "midi": 59,
      "hit": false,
      "t": 15912,
      "d": 117,
      "v": 100
    },
    {
      "midi": 40,
      "hit": false,
      "t": 16029,
      "d": 117,
      "v": 100
    },
    {
      "midi": 64,
      "hit": false,
      "t": 16029,
      "d": 117,
      "v": 100
    },
    {
      "midi": 50,
      "hit": false,
      "t": 16029,
      "d": 117,
      "v": 100
    },
    {
      "midi": 40,
      "hit": false,
      "t": 16146,
      "d": 117,
      "v": 100
    },
    {
      "midi": 52,
      "hit": false,
      "t": 16146,
      "d": 117,
      "v": 100
    },
    {
      "midi": 50,
      "hit": false,
      "t": 16146,
      "d": 234,
      "v": 100
    },
    {
      "midi": 44,
      "hit": false,
      "t": 16146,
      "d": 117,
      "v": 100
    },
    {
      "midi": 44,
      "hit": false,
      "t": 16263,
      "d": 117,
      "v": 100
    },
    {
      "midi": 56,
      "hit": false,
      "t": 16263,
      "d": 117,
      "v": 100
    },
    {
      "midi": 48,
      "hit": false,
      "t": 16263,
      "d": 117,
      "v": 100
    },
    {
      "midi": 47,
      "hit": false,
      "t": 16380,
      "d": 117,
      "v": 100
    },
    {
      "midi": 59,
      "hit": false,
      "t": 16380,
      "d": 117,
      "v": 100
    },
    {
      "midi": 50,
      "hit": false,
      "t": 16380,
      "d": 117,
      "v": 100
    },
    {
      "midi": 51,
      "hit": false,
      "t": 16380,
      "d": 117,
      "v": 100
    },
    {
      "midi": 52,
      "hit": false,
      "t": 16497,
      "d": 117,
      "v": 100
    },
    {
      "midi": 64,
      "hit": false,
      "t": 16497,
      "d": 117,
      "v": 100
    },
    {
      "midi": 51,
      "hit": false,
      "t": 16497,
      "d": 234,
      "v": 100
    },
    {
      "midi": 56,
      "hit": false,
      "t": 16497,
      "d": 117,
      "v": 100
    },
    {
      "midi": 56,
      "hit": false,
      "t": 16614,
      "d": 117,
      "v": 100
    },
    {
      "midi": 59,
      "hit": false,
      "t": 16614,
      "d": 117,
      "v": 100
    },
    {
      "midi": 60,
      "hit": false,
      "t": 16614,
      "d": 117,
      "v": 100
    },
    {
      "midi": 59,
      "hit": false,
      "t": 16731,
      "d": 117,
      "v": 100
    },
    {
      "midi": 64,
      "hit": false,
      "t": 16731,
      "d": 117,
      "v": 100
    },
    {
      "midi": 50,
      "hit": false,
      "t": 16731,
      "d": 117,
      "v": 100
    },
    {
      "midi": 68,
      "hit": false,
      "t": 16731,
      "d": 117,
      "v": 100
    },
    {
      "midi": 45,
      "hit": false,
      "t": 16848,
      "d": 234,
      "v": 100
    },
    {
      "midi": 47,
      "hit": false,
      "t": 16848,
      "d": 351,
      "v": 100
    },
    {
      "midi": 64,
      "hit": false,
      "t": 16848,
      "d": 117,
      "v": 100
    },
    {
      "midi": 52,
      "hit": false,
      "t": 16848,
      "d": 117,
      "v": 100
    },
    {
      "midi": 64,
      "hit": false,
      "t": 16965,
      "d": 234,
      "v": 100
    },
    {
      "midi": 52,
      "hit": false,
      "t": 16965,
      "d": 117,
      "v": 100
    },
    {
      "midi": 45,
      "hit": false,
      "t": 17082,
      "d": 117,
      "v": 100
    },
    {
      "midi": 40,
      "hit": false,
      "t": 17082,
      "d": 117,
      "v": 100
    },
    {
      "midi": 45,
      "hit": false,
      "t": 17199,
      "d": 234,
      "v": 100
    },
    {
      "midi": 64,
      "hit": false,
      "t": 17199,
      "d": 1404,
      "v": 100
    },
    {
      "midi": 64,
      "hit": false,
      "t": 17199,
      "d": 351,
      "v": 100
    },
    {
      "midi": 48,
      "hit": false,
      "t": 17199,
      "d": 117,
      "v": 100
    },
    {
      "midi": 48,
      "hit": false,
      "t": 17316,
      "d": 117,
      "v": 100
    },
    {
      "midi": 45,
      "hit": false,
      "t": 17433,
      "d": 117,
      "v": 100
    },
    {
      "midi": 48,
      "hit": false,
      "t": 17433,
      "d": 117,
      "v": 100
    },
    {
      "midi": 45,
      "hit": false,
      "t": 17550,
      "d": 234,
      "v": 100
    },
    {
      "midi": 64,
      "hit": false,
      "t": 17550,
      "d": 351,
      "v": 100
    },
    {
      "midi": 48,
      "hit": false,
      "t": 17550,
      "d": 117,
      "v": 100
    },
    {
      "midi": 40,
      "hit": false,
      "t": 17667,
      "d": 117,
      "v": 100
    },
    {
      "midi": 45,
      "hit": false,
      "t": 17784,
      "d": 117,
      "v": 100
    },
    {
      "midi": 48,
      "hit": false,
      "t": 17784,
      "d": 117,
      "v": 100
    },
    {
      "midi": 45,
      "hit": false,
      "t": 17901,
      "d": 234,
      "v": 100
    },
    {
      "midi": 64,
      "hit": false,
      "t": 17901,
      "d": 351,
      "v": 100
    },
    {
      "midi": 48,
      "hit": false,
      "t": 17901,
      "d": 117,
      "v": 100
    },
    {
      "midi": 40,
      "hit": false,
      "t": 18018,
      "d": 117,
      "v": 100
    },
    {
      "midi": 45,
      "hit": false,
      "t": 18135,
      "d": 117,
      "v": 100
    },
    {
      "midi": 48,
      "hit": false,
      "t": 18135,
      "d": 117,
      "v": 100
    },
    {
      "midi": 45,
      "hit": false,
      "t": 18252,
      "d": 234,
      "v": 100
    },
    {
      "midi": 64,
      "hit": false,
      "t": 18252,
      "d": 117,
      "v": 100
    },
    {
      "midi": 53,
      "hit": false,
      "t": 18252,
      "d": 117,
      "v": 100
    },
    {
      "midi": 64,
      "hit": false,
      "t": 18369,
      "d": 234,
      "v": 100
    },
    {
      "midi": 53,
      "hit": false,
      "t": 18369,
      "d": 117,
      "v": 100
    },
    {
      "midi": 45,
      "hit": false,
      "t": 18486,
      "d": 117,
      "v": 100
    },
    {
      "midi": 45,
      "hit": false,
      "t": 18486,
      "d": 117,
      "v": 100
    },
    {
      "midi": 45,
      "hit": false,
      "t": 18603,
      "d": 234,
      "v": 100
    },
    {
      "midi": 64,
      "hit": false,
      "t": 18603,
      "d": 702,
      "v": 100
    },
    {
      "midi": 64,
      "hit": false,
      "t": 18603,
      "d": 351,
      "v": 100
    },
    {
      "midi": 48,
      "hit": false,
      "t": 18603,
      "d": 117,
      "v": 100
    },
    {
      "midi": 48,
      "hit": false,
      "t": 18720,
      "d": 117,
      "v": 100
    },
    {
      "midi": 45,
      "hit": false,
      "t": 18837,
      "d": 117,
      "v": 100
    },
    {
      "midi": 48,
      "hit": false,
      "t": 18837,
      "d": 117,
      "v": 100
    },
    {
      "midi": 45,
      "hit": false,
      "t": 18954,
      "d": 234,
      "v": 100
    },
    {
      "midi": 64,
      "hit": false,
      "t": 18954,
      "d": 117,
      "v": 100
    },
    {
      "midi": 48,
      "hit": false,
      "t": 18954,
      "d": 117,
      "v": 100
    },
    {
      "midi": 64,
      "hit": false,
      "t": 19071,
      "d": 234,
      "v": 100
    },
    {
      "midi": 40,
      "hit": false,
      "t": 19071,
      "d": 117,
      "v": 100
    },
    {
      "midi": 45,
      "hit": false,
      "t": 19188,
      "d": 117,
      "v": 100
    },
    {
      "midi": 45,
      "hit": false,
      "t": 19188,
      "d": 117,
      "v": 100
    },
    {
      "midi": 45,
      "hit": false,
      "t": 19305,
      "d": 234,
      "v": 100
    },
    {
      "midi": 64,
      "hit": false,
      "t": 19305,
      "d": 702,
      "v": 100
    },
    {
      "midi": 64,
      "hit": false,
      "t": 19305,
      "d": 117,
      "v": 100
    },
    {
      "midi": 48,
      "hit": false,
      "t": 19305,
      "d": 117,
      "v": 100
    },
    {
      "midi": 64,
      "hit": false,
      "t": 19422,
      "d": 117,
      "v": 100
    },
    {
      "midi": 40,
      "hit": false,
      "t": 19422,
      "d": 117,
      "v": 100
    },
    {
      "midi": 45,
      "hit": false,
      "t": 19539,
      "d": 117,
      "v": 100
    },
    {
      "midi": 64,
      "hit": false,
      "t": 19539,
      "d": 117,
      "v": 100
    },
    {
      "midi": 52,
      "hit": false,
      "t": 19539,
      "d": 117,
      "v": 100
    },
    {
      "midi": 43,
      "hit": false,
      "t": 19656,
      "d": 234,
      "v": 100
    },
    {
      "midi": 64,
      "hit": false,
      "t": 19656,
      "d": 117,
      "v": 100
    },
    {
      "midi": 50,
      "hit": false,
      "t": 19656,
      "d": 117,
      "v": 100
    },
    {
      "midi": 64,
      "hit": false,
      "t": 19773,
      "d": 234,
      "v": 100
    },
    {
      "midi": 43,
      "hit": false,
      "t": 19773,
      "d": 117,
      "v": 100
    },
    {
      "midi": 43,
      "hit": false,
      "t": 19890,
      "d": 117,
      "v": 100
    },
    {
      "midi": 47,
      "hit": false,
      "t": 19890,
      "d": 117,
      "v": 100
    },
    {
      "midi": 43,
      "hit": false,
      "t": 20007,
      "d": 234,
      "v": 100
    },
    {
      "midi": 64,
      "hit": false,
      "t": 20007,
      "d": 1404,
      "v": 100
    },
    {
      "midi": 64,
      "hit": false,
      "t": 20007,
      "d": 351,
      "v": 100
    },
    {
      "midi": 47,
      "hit": false,
      "t": 20007,
      "d": 117,
      "v": 100
    },
    {
      "midi": 47,
      "hit": false,
      "t": 20124,
      "d": 117,
      "v": 100
    },
    {
      "midi": 43,
      "hit": false,
      "t": 20241,
      "d": 117,
      "v": 100
    },
    {
      "midi": 43,
      "hit": false,
      "t": 20241,
      "d": 117,
      "v": 100
    },
    {
      "midi": 43,
      "hit": false,
      "t": 20358,
      "d": 234,
      "v": 100
    },
    {
      "midi": 64,
      "hit": false,
      "t": 20358,
      "d": 351,
      "v": 100
    },
    {
      "midi": 47,
      "hit": false,
      "t": 20358,
      "d": 117,
      "v": 100
    },
    {
      "midi": 40,
      "hit": false,
      "t": 20475,
      "d": 117,
      "v": 100
    },
    {
      "midi": 43,
      "hit": false,
      "t": 20592,
      "d": 117,
      "v": 100
    },
    {
      "midi": 43,
      "hit": false,
      "t": 20592,
      "d": 117,
      "v": 100
    },
    {
      "midi": 43,
      "hit": false,
      "t": 20709,
      "d": 234,
      "v": 100
    },
    {
      "midi": 64,
      "hit": false,
      "t": 20709,
      "d": 351,
      "v": 100
    },
    {
      "midi": 47,
      "hit": false,
      "t": 20709,
      "d": 117,
      "v": 100
    },
    {
      "midi": 40,
      "hit": false,
      "t": 20826,
      "d": 117,
      "v": 100
    },
    {
      "midi": 43,
      "hit": false,
      "t": 20943,
      "d": 117,
      "v": 100
    },
    {
      "midi": 47,
      "hit": false,
      "t": 20943,
      "d": 117,
      "v": 100
    },
    {
      "midi": 40,
      "hit": false,
      "t": 21060,
      "d": 234,
      "v": 100
    },
    {
      "midi": 64,
      "hit": false,
      "t": 21060,
      "d": 117,
      "v": 100
    },
    {
      "midi": 52,
      "hit": false,
      "t": 21060,
      "d": 117,
      "v": 100
    },
    {
      "midi": 64,
      "hit": false,
      "t": 21177,
      "d": 234,
      "v": 100
    },
    {
      "midi": 52,
      "hit": false,
      "t": 21177,
      "d": 117,
      "v": 100
    },
    {
      "midi": 40,
      "hit": false,
      "t": 21294,
      "d": 117,
      "v": 100
    },
    {
      "midi": 40,
      "hit": false,
      "t": 21294,
      "d": 117,
      "v": 100
    },
    {
      "midi": 40,
      "hit": false,
      "t": 21411,
      "d": 234,
      "v": 100
    },
    {
      "midi": 64,
      "hit": false,
      "t": 21411,
      "d": 702,
      "v": 100
    },
    {
      "midi": 64,
      "hit": false,
      "t": 21411,
      "d": 351,
      "v": 100
    },
    {
      "midi": 47,
      "hit": false,
      "t": 21411,
      "d": 117,
      "v": 100
    },
    {
      "midi": 47,
      "hit": false,
      "t": 21528,
      "d": 117,
      "v": 100
    },
    {
      "midi": 40,
      "hit": false,
      "t": 21645,
      "d": 117,
      "v": 100
    },
    {
      "midi": 40,
      "hit": false,
      "t": 21645,
      "d": 117,
      "v": 100
    },
    {
      "midi": 40,
      "hit": false,
      "t": 21762,
      "d": 234,
      "v": 100
    },
    {
      "midi": 64,
      "hit": false,
      "t": 21762,
      "d": 117,
      "v": 100
    },
    {
      "midi": 47,
      "hit": false,
      "t": 21762,
      "d": 117,
      "v": 100
    },
    {
      "midi": 64,
      "hit": false,
      "t": 21879,
      "d": 234,
      "v": 100
    },
    {
      "midi": 40,
      "hit": false,
      "t": 21879,
      "d": 117,
      "v": 100
    },
    {
      "midi": 40,
      "hit": false,
      "t": 21996,
      "d": 117,
      "v": 100
    },
    {
      "midi": 43,
      "hit": false,
      "t": 21996,
      "d": 117,
      "v": 100
    },
    {
      "midi": 40,
      "hit": false,
      "t": 22113,
      "d": 234,
      "v": 100
    },
    {
      "midi": 64,
      "hit": false,
      "t": 22113,
      "d": 702,
      "v": 100
    },
    {
      "midi": 64,
      "hit": false,
      "t": 22113,
      "d": 117,
      "v": 100
    },
    {
      "midi": 50,
      "hit": false,
      "t": 22113,
      "d": 117,
      "v": 100
    },
    {
      "midi": 64,
      "hit": false,
      "t": 22230,
      "d": 117,
      "v": 100
    },
    {
      "midi": 50,
      "hit": false,
      "t": 22230,
      "d": 117,
      "v": 100
    },
    {
      "midi": 40,
      "hit": false,
      "t": 22347,
      "d": 117,
      "v": 100
    },
    {
      "midi": 64,
      "hit": false,
      "t": 22347,
      "d": 117,
      "v": 100
    },
    {
      "midi": 47,
      "hit": false,
      "t": 22347,
      "d": 117,
      "v": 100
    },
    {
      "midi": 41,
      "hit": false,
      "t": 22464,
      "d": 234,
      "v": 100
    },
    {
      "midi": 64,
      "hit": false,
      "t": 22464,
      "d": 117,
      "v": 100
    },
    {
      "midi": 48,
      "hit": false,
      "t": 22464,
      "d": 117,
      "v": 100
    },
    {
      "midi": 64,
      "hit": false,
      "t": 22581,
      "d": 234,
      "v": 100
    },
    {
      "midi": 48,
      "hit": false,
      "t": 22581,
      "d": 117,
      "v": 100
    },
    {
      "midi": 41,
      "hit": false,
      "t": 22698,
      "d": 117,
      "v": 100
    },
    {
      "midi": 41,
      "hit": false,
      "t": 22698,
      "d": 117,
      "v": 100
    },
    {
      "midi": 41,
      "hit": false,
      "t": 22815,
      "d": 234,
      "v": 100
    },
    {
      "midi": 64,
      "hit": false,
      "t": 22815,
      "d": 1404,
      "v": 100
    },
    {
      "midi": 64,
      "hit": false,
      "t": 22815,
      "d": 351,
      "v": 100
    },
    {
      "midi": 45,
      "hit": false,
      "t": 22815,
      "d": 117,
      "v": 100
    },
    {
      "midi": 45,
      "hit": false,
      "t": 22932,
      "d": 117,
      "v": 100
    },
    {
      "midi": 41,
      "hit": false,
      "t": 23049,
      "d": 117,
      "v": 100
    },
    {
      "midi": 45,
      "hit": false,
      "t": 23049,
      "d": 117,
      "v": 100
    },
    {
      "midi": 41,
      "hit": false,
      "t": 23166,
      "d": 234,
      "v": 100
    },
    {
      "midi": 64,
      "hit": false,
      "t": 23166,
      "d": 351,
      "v": 100
    },
    {
      "midi": 45,
      "hit": false,
      "t": 23166,
      "d": 117,
      "v": 100
    },
    {
      "midi": 38,
      "hit": false,
      "t": 23283,
      "d": 117,
      "v": 100
    },
    {
      "midi": 41,
      "hit": false,
      "t": 23400,
      "d": 117,
      "v": 100
    },
    {
      "midi": 45,
      "hit": false,
      "t": 23400,
      "d": 117,
      "v": 100
    },
    {
      "midi": 41,
      "hit": false,
      "t": 23517,
      "d": 234,
      "v": 100
    },
    {
      "midi": 64,
      "hit": false,
      "t": 23517,
      "d": 351,
      "v": 100
    },
    {
      "midi": 45,
      "hit": false,
      "t": 23517,
      "d": 117,
      "v": 100
    },
    {
      "midi": 45,
      "hit": false,
      "t": 23634,
      "d": 117,
      "v": 100
    },
    {
      "midi": 41,
      "hit": false,
      "t": 23751,
      "d": 117,
      "v": 100
    },
    {
      "midi": 38,
      "hit": false,
      "t": 23751,
      "d": 117,
      "v": 100
    },
    {
      "midi": 38,
      "hit": false,
      "t": 23868,
      "d": 234,
      "v": 100
    },
    {
      "midi": 64,
      "hit": false,
      "t": 23868,
      "d": 117,
      "v": 100
    },
    {
      "midi": 50,
      "hit": false,
      "t": 23868,
      "d": 117,
      "v": 100
    },
    {
      "midi": 64,
      "hit": false,
      "t": 23985,
      "d": 234,
      "v": 100
    },
    {
      "midi": 50,
      "hit": false,
      "t": 23985,
      "d": 117,
      "v": 100
    },
    {
      "midi": 38,
      "hit": false,
      "t": 24102,
      "d": 117,
      "v": 100
    },
    {
      "midi": 38,
      "hit": false,
      "t": 24102,
      "d": 117,
      "v": 100
    },
    {
      "midi": 38,
      "hit": false,
      "t": 24219,
      "d": 234,
      "v": 100
    },
    {
      "midi": 64,
      "hit": false,
      "t": 24219,
      "d": 702,
      "v": 100
    },
    {
      "midi": 64,
      "hit": false,
      "t": 24219,
      "d": 351,
      "v": 100
    },
    {
      "midi": 45,
      "hit": false,
      "t": 24219,
      "d": 117,
      "v": 100
    },
    {
      "midi": 45,
      "hit": false,
      "t": 24336,
      "d": 117,
      "v": 100
    },
    {
      "midi": 38,
      "hit": false,
      "t": 24453,
      "d": 117,
      "v": 100
    },
    {
      "midi": 45,
      "hit": false,
      "t": 24453,
      "d": 117,
      "v": 100
    },
    {
      "midi": 38,
      "hit": false,
      "t": 24570,
      "d": 234,
      "v": 100
    },
    {
      "midi": 64,
      "hit": false,
      "t": 24570,
      "d": 117,
      "v": 100
    },
    {
      "midi": 45,
      "hit": false,
      "t": 24570,
      "d": 117,
      "v": 100
    },
    {
      "midi": 64,
      "hit": false,
      "t": 24687,
      "d": 234,
      "v": 100
    },
    {
      "midi": 38,
      "hit": false,
      "t": 24687,
      "d": 117,
      "v": 100
    },
    {
      "midi": 38,
      "hit": false,
      "t": 24804,
      "d": 117,
      "v": 100
    },
    {
      "midi": 45,
      "hit": false,
      "t": 24804,
      "d": 117,
      "v": 100
    },
    {
      "midi": 38,
      "hit": false,
      "t": 24921,
      "d": 234,
      "v": 100
    },
    {
      "midi": 64,
      "hit": false,
      "t": 24921,
      "d": 702,
      "v": 100
    },
    {
      "midi": 64,
      "hit": false,
      "t": 24921,
      "d": 117,
      "v": 100
    },
    {
      "midi": 48,
      "hit": false,
      "t": 24921,
      "d": 117,
      "v": 100
    },
    {
      "midi": 64,
      "hit": false,
      "t": 25038,
      "d": 117,
      "v": 100
    },
    {
      "midi": 48,
      "hit": false,
      "t": 25038,
      "d": 117,
      "v": 100
    },
    {
      "midi": 38,
      "hit": false,
      "t": 25155,
      "d": 117,
      "v": 100
    },
    {
      "midi": 64,
      "hit": false,
      "t": 25155,
      "d": 117,
      "v": 100
    },
    {
      "midi": 38,
      "hit": false,
      "t": 25155,
      "d": 117,
      "v": 100
    },
    {
      "midi": 40,
      "hit": false,
      "t": 25272,
      "d": 234,
      "v": 100
    },
    {
      "midi": 64,
      "hit": false,
      "t": 25272,
      "d": 117,
      "v": 100
    },
    {
      "midi": 47,
      "hit": false,
      "t": 25272,
      "d": 117,
      "v": 100
    },
    {
      "midi": 64,
      "hit": false,
      "t": 25389,
      "d": 234,
      "v": 100
    },
    {
      "midi": 40,
      "hit": false,
      "t": 25389,
      "d": 117,
      "v": 100
    },
    {
      "midi": 40,
      "hit": false,
      "t": 25506,
      "d": 117,
      "v": 100
    },
    {
      "midi": 45,
      "hit": false,
      "t": 25506,
      "d": 117,
      "v": 100
    },
    {
      "midi": 40,
      "hit": false,
      "t": 25623,
      "d": 234,
      "v": 100
    },
    {
      "midi": 64,
      "hit": false,
      "t": 25623,
      "d": 1287,
      "v": 100
    },
    {
      "midi": 64,
      "hit": false,
      "t": 25623,
      "d": 351,
      "v": 100
    },
    {
      "midi": 45,
      "hit": false,
      "t": 25623,
      "d": 117,
      "v": 100
    },
    {
      "midi": 45,
      "hit": false,
      "t": 25740,
      "d": 117,
      "v": 100
    },
    {
      "midi": 40,
      "hit": false,
      "t": 25857,
      "d": 117,
      "v": 100
    },
    {
      "midi": 40,
      "hit": false,
      "t": 25857,
      "d": 117,
      "v": 100
    },
    {
      "midi": 40,
      "hit": false,
      "t": 25974,
      "d": 234,
      "v": 100
    },
    {
      "midi": 64,
      "hit": false,
      "t": 25974,
      "d": 351,
      "v": 100
    },
    {
      "midi": 45,
      "hit": false,
      "t": 25974,
      "d": 117,
      "v": 100
    },
    {
      "midi": 40,
      "hit": false,
      "t": 26091,
      "d": 117,
      "v": 100
    },
    {
      "midi": 40,
      "hit": false,
      "t": 26208,
      "d": 117,
      "v": 100
    },
    {
      "midi": 45,
      "hit": false,
      "t": 26208,
      "d": 117,
      "v": 100
    },
    {
      "midi": 40,
      "hit": false,
      "t": 26325,
      "d": 234,
      "v": 100
    },
    {
      "midi": 64,
      "hit": false,
      "t": 26325,
      "d": 351,
      "v": 100
    },
    {
      "midi": 45,
      "hit": false,
      "t": 26325,
      "d": 117,
      "v": 100
    },
    {
      "midi": 45,
      "hit": false,
      "t": 26442,
      "d": 117,
      "v": 100
    },
    {
      "midi": 40,
      "hit": false,
      "t": 26559,
      "d": 117,
      "v": 100
    },
    {
      "midi": 40,
      "hit": false,
      "t": 26559,
      "d": 117,
      "v": 100
    },
    {
      "midi": 40,
      "hit": false,
      "t": 26676,
      "d": 234,
      "v": 100
    },
    {
      "midi": 64,
      "hit": false,
      "t": 26676,
      "d": 117,
      "v": 100
    },
    {
      "midi": 52,
      "hit": false,
      "t": 26676,
      "d": 117,
      "v": 100
    },
    {
      "midi": 64,
      "hit": false,
      "t": 26793,
      "d": 234,
      "v": 100
    },
    {
      "midi": 52,
      "hit": false,
      "t": 26793,
      "d": 234,
      "v": 100
    },
    {
      "midi": 40,
      "hit": false,
      "t": 26910,
      "d": 117,
      "v": 100
    },
    {
      "midi": 40,
      "hit": false,
      "t": 26910,
      "d": 117,
      "v": 100
    },
    {
      "midi": 40,
      "hit": false,
      "t": 27027,
      "d": 234,
      "v": 100
    },
    {
      "midi": 40,
      "hit": false,
      "t": 27027,
      "d": 117,
      "v": 100
    },
    {
      "midi": 52,
      "hit": false,
      "t": 27027,
      "d": 351,
      "v": 100
    },
    {
      "midi": 64,
      "hit": false,
      "t": 27027,
      "d": 117,
      "v": 100
    },
    {
      "midi": 47,
      "hit": false,
      "t": 27144,
      "d": 117,
      "v": 100
    },
    {
      "midi": 64,
      "hit": false,
      "t": 27144,
      "d": 234,
      "v": 100
    },
    {
      "midi": 40,
      "hit": false,
      "t": 27261,
      "d": 117,
      "v": 100
    },
    {
      "midi": 52,
      "hit": false,
      "t": 27261,
      "d": 117,
      "v": 100
    },
    {
      "midi": 40,
      "hit": false,
      "t": 27378,
      "d": 117,
      "v": 100
    },
    {
      "midi": 52,
      "hit": false,
      "t": 27378,
      "d": 117,
      "v": 100
    },
    {
      "midi": 59,
      "hit": false,
      "t": 27378,
      "d": 351,
      "v": 100
    },
    {
      "midi": 64,
      "hit": false,
      "t": 27378,
      "d": 117,
      "v": 100
    },
    {
      "midi": 44,
      "hit": false,
      "t": 27495,
      "d": 117,
      "v": 100
    },
    {
      "midi": 50,
      "hit": false,
      "t": 27495,
      "d": 117,
      "v": 100
    },
    {
      "midi": 64,
      "hit": false,
      "t": 27495,
      "d": 234,
      "v": 100
    },
    {
      "midi": 47,
      "hit": false,
      "t": 27612,
      "d": 117,
      "v": 100
    },
    {
      "midi": 47,
      "hit": false,
      "t": 27612,
      "d": 117,
      "v": 100
    },
    {
      "midi": 52,
      "hit": false,
      "t": 27729,
      "d": 117,
      "v": 100
    },
    {
      "midi": 48,
      "hit": false,
      "t": 27729,
      "d": 117,
      "v": 100
    },
    {
      "midi": 64,
      "hit": false,
      "t": 27729,
      "d": 351,
      "v": 100
    },
    {
      "midi": 64,
      "hit": false,
      "t": 27729,
      "d": 117,
      "v": 100
    },
    {
      "midi": 50,
      "hit": false,
      "t": 27846,
      "d": 117,
      "v": 100
    },
    {
      "midi": 48,
      "hit": false,
      "t": 27846,
      "d": 117,
      "v": 100
    },
    {
      "midi": 64,
      "hit": false,
      "t": 27846,
      "d": 234,
      "v": 100
    },
    {
      "midi": 47,
      "hit": false,
      "t": 27963,
      "d": 117,
      "v": 100
    },
    {
      "midi": 40,
      "hit": false,
      "t": 27963,
      "d": 117,
      "v": 100
    },
    {
      "midi": 45,
      "hit": false,
      "t": 28080,
      "d": 234,
      "v": 100
    },
    {
      "midi": 48,
      "hit": false,
      "t": 28080,
      "d": 117,
      "v": 100
    },
    {
      "midi": 64,
      "hit": false,
      "t": 28080,
      "d": 1170,
      "v": 100
    },
    {
      "midi": 64,
      "hit": false,
      "t": 28080,
      "d": 117,
      "v": 100
    },
    {
      "midi": 48,
      "hit": false,
      "t": 28197,
      "d": 117,
      "v": 100
    },
    {
      "midi": 64,
      "hit": false,
      "t": 28197,
      "d": 234,
      "v": 100
    },
    {
      "midi": 45,
      "hit": false,
      "t": 28314,
      "d": 117,
      "v": 100
    },
    {
      "midi": 48,
      "hit": false,
      "t": 28314,
      "d": 117,
      "v": 100
    },
    {
      "midi": 45,
      "hit": false,
      "t": 28431,
      "d": 234,
      "v": 100
    },
    {
      "midi": 48,
      "hit": false,
      "t": 28431,
      "d": 117,
      "v": 100
    },
    {
      "midi": 64,
      "hit": false,
      "t": 28431,
      "d": 117,
      "v": 100
    },
    {
      "midi": 40,
      "hit": false,
      "t": 28548,
      "d": 117,
      "v": 100
    },
    {
      "midi": 64,
      "hit": false,
      "t": 28548,
      "d": 234,
      "v": 100
    },
    {
      "midi": 45,
      "hit": false,
      "t": 28665,
      "d": 117,
      "v": 100
    },
    {
      "midi": 48,
      "hit": false,
      "t": 28665,
      "d": 117,
      "v": 100
    },
    {
      "midi": 45,
      "hit": false,
      "t": 28782,
      "d": 234,
      "v": 100
    },
    {
      "midi": 48,
      "hit": false,
      "t": 28782,
      "d": 117,
      "v": 100
    },
    {
      "midi": 64,
      "hit": false,
      "t": 28782,
      "d": 117,
      "v": 100
    },
    {
      "midi": 45,
      "hit": false,
      "t": 28899,
      "d": 117,
      "v": 100
    },
    {
      "midi": 64,
      "hit": false,
      "t": 28899,
      "d": 234,
      "v": 100
    },
    {
      "midi": 45,
      "hit": false,
      "t": 29016,
      "d": 117,
      "v": 100
    },
    {
      "midi": 48,
      "hit": false,
      "t": 29016,
      "d": 117,
      "v": 100
    },
    {
      "midi": 45,
      "hit": false,
      "t": 29133,
      "d": 234,
      "v": 100
    },
    {
      "midi": 48,
      "hit": false,
      "t": 29133,
      "d": 117,
      "v": 100
    },
    {
      "midi": 64,
      "hit": false,
      "t": 29133,
      "d": 117,
      "v": 100
    },
    {
      "midi": 40,
      "hit": false,
      "t": 29250,
      "d": 117,
      "v": 100
    },
    {
      "midi": 63,
      "hit": false,
      "t": 29250,
      "d": 117,
      "v": 100
    },
    {
      "midi": 64,
      "hit": false,
      "t": 29250,
      "d": 234,
      "v": 100
    },
    {
      "midi": 45,
      "hit": false,
      "t": 29367,
      "d": 117,
      "v": 100
    },
    {
      "midi": 48,
      "hit": false,
      "t": 29367,
      "d": 117,
      "v": 100
    },
    {
      "midi": 64,
      "hit": false,
      "t": 29367,
      "d": 117,
      "v": 100
    },
    {
      "midi": 45,
      "hit": false,
      "t": 29484,
      "d": 234,
      "v": 100
    },
    {
      "midi": 53,
      "hit": false,
      "t": 29484,
      "d": 117,
      "v": 100
    },
    {
      "midi": 65,
      "hit": false,
      "t": 29484,
      "d": 1053,
      "v": 100
    },
    {
      "midi": 64,
      "hit": false,
      "t": 29484,
      "d": 117,
      "v": 100
    },
    {
      "midi": 53,
      "hit": false,
      "t": 29601,
      "d": 117,
      "v": 100
    },
    {
      "midi": 64,
      "hit": false,
      "t": 29601,
      "d": 234,
      "v": 100
    },
    {
      "midi": 45,
      "hit": false,
      "t": 29718,
      "d": 117,
      "v": 100
    },
    {
      "midi": 45,
      "hit": false,
      "t": 29718,
      "d": 117,
      "v": 100
    },
    {
      "midi": 45,
      "hit": false,
      "t": 29835,
      "d": 234,
      "v": 100
    },
    {
      "midi": 48,
      "hit": false,
      "t": 29835,
      "d": 117,
      "v": 100
    },
    {
      "midi": 64,
      "hit": false,
      "t": 29835,
      "d": 117,
      "v": 100
    },
    {
      "midi": 48,
      "hit": false,
      "t": 29952,
      "d": 117,
      "v": 100
    },
    {
      "midi": 64,
      "hit": false,
      "t": 29952,
      "d": 234,
      "v": 100
    },
    {
      "midi": 45,
      "hit": false,
      "t": 30069,
      "d": 117,
      "v": 100
    },
    {
      "midi": 48,
      "hit": false,
      "t": 30069,
      "d": 117,
      "v": 100
    },
    {
      "midi": 45,
      "hit": false,
      "t": 30186,
      "d": 234,
      "v": 100
    },
    {
      "midi": 48,
      "hit": false,
      "t": 30186,
      "d": 117,
      "v": 100
    },
    {
      "midi": 64,
      "hit": false,
      "t": 30186,
      "d": 117,
      "v": 100
    },
    {
      "midi": 45,
      "hit": false,
      "t": 30303,
      "d": 117,
      "v": 100
    },
    {
      "midi": 64,
      "hit": false,
      "t": 30303,
      "d": 234,
      "v": 100
    },
    {
      "midi": 45,
      "hit": false,
      "t": 30420,
      "d": 117,
      "v": 100
    },
    {
      "midi": 48,
      "hit": false,
      "t": 30420,
      "d": 117,
      "v": 100
    },
    {
      "midi": 45,
      "hit": false,
      "t": 30537,
      "d": 234,
      "v": 100
    },
    {
      "midi": 48,
      "hit": false,
      "t": 30537,
      "d": 117,
      "v": 100
    },
    {
      "midi": 64,
      "hit": false,
      "t": 30537,
      "d": 351,
      "v": 100
    },
    {
      "midi": 64,
      "hit": false,
      "t": 30537,
      "d": 117,
      "v": 100
    },
    {
      "midi": 45,
      "hit": false,
      "t": 30654,
      "d": 117,
      "v": 100
    },
    {
      "midi": 64,
      "hit": false,
      "t": 30654,
      "d": 234,
      "v": 100
    },
    {
      "midi": 45,
      "hit": false,
      "t": 30771,
      "d": 117,
      "v": 100
    },
    {
      "midi": 52,
      "hit": false,
      "t": 30771,
      "d": 117,
      "v": 100
    },
    {
      "midi": 43,
      "hit": false,
      "t": 30888,
      "d": 234,
      "v": 100
    },
    {
      "midi": 50,
      "hit": false,
      "t": 30888,
      "d": 117,
      "v": 100
    },
    {
      "midi": 62,
      "hit": false,
      "t": 30888,
      "d": 1170,
      "v": 100
    },
    {
      "midi": 64,
      "hit": false,
      "t": 30888,
      "d": 117,
      "v": 100
    },
    {
      "midi": 50,
      "hit": false,
      "t": 31005,
      "d": 117,
      "v": 100
    },
    {
      "midi": 64,
      "hit": false,
      "t": 31005,
      "d": 234,
      "v": 100
    },
    {
      "midi": 43,
      "hit": false,
      "t": 31122,
      "d": 117,
      "v": 100
    },
    {
      "midi": 43,
      "hit": false,
      "t": 31122,
      "d": 117,
      "v": 100
    },
    {
      "midi": 43,
      "hit": false,
      "t": 31239,
      "d": 234,
      "v": 100
    },
    {
      "midi": 47,
      "hit": false,
      "t": 31239,
      "d": 117,
      "v": 100
    },
    {
      "midi": 64,
      "hit": false,
      "t": 31239,
      "d": 117,
      "v": 100
    },
    {
      "midi": 47,
      "hit": false,
      "t": 31356,
      "d": 117,
      "v": 100
    },
    {
      "midi": 64,
      "hit": false,
      "t": 31356,
      "d": 234,
      "v": 100
    },
    {
      "midi": 43,
      "hit": false,
      "t": 31473,
      "d": 117,
      "v": 100
    },
    {
      "midi": 47,
      "hit": false,
      "t": 31473,
      "d": 117,
      "v": 100
    },
    {
      "midi": 43,
      "hit": false,
      "t": 31590,
      "d": 234,
      "v": 100
    },
    {
      "midi": 47,
      "hit": false,
      "t": 31590,
      "d": 117,
      "v": 100
    },
    {
      "midi": 64,
      "hit": false,
      "t": 31590,
      "d": 117,
      "v": 100
    },
    {
      "midi": 43,
      "hit": false,
      "t": 31707,
      "d": 117,
      "v": 100
    },
    {
      "midi": 64,
      "hit": false,
      "t": 31707,
      "d": 234,
      "v": 100
    },
    {
      "midi": 43,
      "hit": false,
      "t": 31824,
      "d": 117,
      "v": 100
    },
    {
      "midi": 47,
      "hit": false,
      "t": 31824,
      "d": 117,
      "v": 100
    },
    {
      "midi": 43,
      "hit": false,
      "t": 31941,
      "d": 234,
      "v": 100
    },
    {
      "midi": 47,
      "hit": false,
      "t": 31941,
      "d": 117,
      "v": 100
    },
    {
      "midi": 64,
      "hit": false,
      "t": 31941,
      "d": 117,
      "v": 100
    },
    {
      "midi": 40,
      "hit": false,
      "t": 32058,
      "d": 117,
      "v": 100
    },
    {
      "midi": 61,
      "hit": false,
      "t": 32058,
      "d": 117,
      "v": 100
    },
    {
      "midi": 64,
      "hit": false,
      "t": 32058,
      "d": 234,
      "v": 100
    },
    {
      "midi": 43,
      "hit": false,
      "t": 32175,
      "d": 117,
      "v": 100
    },
    {
      "midi": 47,
      "hit": false,
      "t": 32175,
      "d": 117,
      "v": 100
    },
    {
      "midi": 62,
      "hit": false,
      "t": 32175,
      "d": 117,
      "v": 100
    },
    {
      "midi": 40,
      "hit": false,
      "t": 32292,
      "d": 234,
      "v": 100
    },
    {
      "midi": 47,
      "hit": false,
      "t": 32292,
      "d": 117,
      "v": 100
    },
    {
      "midi": 64,
      "hit": false,
      "t": 32292,
      "d": 1053,
      "v": 100
    },
    {
      "midi": 64,
      "hit": false,
      "t": 32292,
      "d": 117,
      "v": 100
    },
    {
      "midi": 40,
      "hit": false,
      "t": 32409,
      "d": 117,
      "v": 100
    },
    {
      "midi": 64,
      "hit": false,
      "t": 32409,
      "d": 234,
      "v": 100
    },
    {
      "midi": 40,
      "hit": false,
      "t": 32526,
      "d": 117,
      "v": 100
    },
    {
      "midi": 47,
      "hit": false,
      "t": 32526,
      "d": 117,
      "v": 100
    },
    {
      "midi": 40,
      "hit": false,
      "t": 32643,
      "d": 234,
      "v": 100
    },
    {
      "midi": 47,
      "hit": false,
      "t": 32643,
      "d": 117,
      "v": 100
    },
    {
      "midi": 64,
      "hit": false,
      "t": 32643,
      "d": 117,
      "v": 100
    },
    {
      "midi": 43,
      "hit": false,
      "t": 32760,
      "d": 117,
      "v": 100
    },
    {
      "midi": 64,
      "hit": false,
      "t": 32760,
      "d": 234,
      "v": 100
    },
    {
      "midi": 40,
      "hit": false,
      "t": 32877,
      "d": 117,
      "v": 100
    },
    {
      "midi": 47,
      "hit": false,
      "t": 32877,
      "d": 117,
      "v": 100
    },
    {
      "midi": 40,
      "hit": false,
      "t": 32994,
      "d": 234,
      "v": 100
    },
    {
      "midi": 47,
      "hit": false,
      "t": 32994,
      "d": 117,
      "v": 100
    },
    {
      "midi": 64,
      "hit": false,
      "t": 32994,
      "d": 117,
      "v": 100
    },
    {
      "midi": 40,
      "hit": false,
      "t": 33111,
      "d": 117,
      "v": 100
    },
    {
      "midi": 64,
      "hit": false,
      "t": 33111,
      "d": 234,
      "v": 100
    },
    {
      "midi": 40,
      "hit": false,
      "t": 33228,
      "d": 117,
      "v": 100
    },
    {
      "midi": 47,
      "hit": false,
      "t": 33228,
      "d": 117,
      "v": 100
    },
    {
      "midi": 40,
      "hit": false,
      "t": 33345,
      "d": 234,
      "v": 100
    },
    {
      "midi": 52,
      "hit": false,
      "t": 33345,
      "d": 117,
      "v": 100
    },
    {
      "midi": 62,
      "hit": false,
      "t": 33345,
      "d": 351,
      "v": 100
    },
    {
      "midi": 64,
      "hit": false,
      "t": 33345,
      "d": 117,
      "v": 100
    },
    {
      "midi": 40,
      "hit": false,
      "t": 33462,
      "d": 117,
      "v": 100
    },
    {
      "midi": 64,
      "hit": false,
      "t": 33462,
      "d": 234,
      "v": 100
    },
    {
      "midi": 40,
      "hit": false,
      "t": 33579,
      "d": 117,
      "v": 100
    },
    {
      "midi": 50,
      "hit": false,
      "t": 33579,
      "d": 117,
      "v": 100
    },
    {
      "midi": 41,
      "hit": false,
      "t": 33696,
      "d": 234,
      "v": 100
    },
    {
      "midi": 48,
      "hit": false,
      "t": 33696,
      "d": 117,
      "v": 100
    },
    {
      "midi": 60,
      "hit": false,
      "t": 33696,
      "d": 1170,
      "v": 100
    },
    {
      "midi": 64,
      "hit": false,
      "t": 33696,
      "d": 117,
      "v": 100
    },
    {
      "midi": 48,
      "hit": false,
      "t": 33813,
      "d": 117,
      "v": 100
    },
    {
      "midi": 64,
      "hit": false,
      "t": 33813,
      "d": 234,
      "v": 100
    },
    {
      "midi": 41,
      "hit": false,
      "t": 33930,
      "d": 117,
      "v": 100
    },
    {
      "midi": 41,
      "hit": false,
      "t": 33930,
      "d": 117,
      "v": 100
    },
    {
      "midi": 41,
      "hit": false,
      "t": 34047,
      "d": 234,
      "v": 100
    },
    {
      "midi": 45,
      "hit": false,
      "t": 34047,
      "d": 117,
      "v": 100
    },
    {
      "midi": 64,
      "hit": false,
      "t": 34047,
      "d": 117,
      "v": 100
    },
    {
      "midi": 45,
      "hit": false,
      "t": 34164,
      "d": 117,
      "v": 100
    },
    {
      "midi": 64,
      "hit": false,
      "t": 34164,
      "d": 234,
      "v": 100
    },
    {
      "midi": 41,
      "hit": false,
      "t": 34281,
      "d": 117,
      "v": 100
    },
    {
      "midi": 45,
      "hit": false,
      "t": 34281,
      "d": 117,
      "v": 100
    },
    {
      "midi": 41,
      "hit": false,
      "t": 34398,
      "d": 234,
      "v": 100
    },
    {
      "midi": 45,
      "hit": false,
      "t": 34398,
      "d": 117,
      "v": 100
    },
    {
      "midi": 64,
      "hit": false,
      "t": 34398,
      "d": 117,
      "v": 100
    },
    {
      "midi": 41,
      "hit": false,
      "t": 34515,
      "d": 117,
      "v": 100
    },
    {
      "midi": 64,
      "hit": false,
      "t": 34515,
      "d": 234,
      "v": 100
    },
    {
      "midi": 41,
      "hit": false,
      "t": 34632,
      "d": 117,
      "v": 100
    },
    {
      "midi": 45,
      "hit": false,
      "t": 34632,
      "d": 117,
      "v": 100
    },
    {
      "midi": 41,
      "hit": false,
      "t": 34749,
      "d": 234,
      "v": 100
    },
    {
      "midi": 45,
      "hit": false,
      "t": 34749,
      "d": 117,
      "v": 100
    },
    {
      "midi": 64,
      "hit": false,
      "t": 34749,
      "d": 117,
      "v": 100
    },
    {
      "midi": 45,
      "hit": false,
      "t": 34866,
      "d": 117,
      "v": 100
    },
    {
      "midi": 59,
      "hit": false,
      "t": 34866,
      "d": 117,
      "v": 100
    },
    {
      "midi": 64,
      "hit": false,
      "t": 34866,
      "d": 234,
      "v": 100
    },
    {
      "midi": 41,
      "hit": false,
      "t": 34983,
      "d": 117,
      "v": 100
    },
    {
      "midi": 41,
      "hit": false,
      "t": 34983,
      "d": 117,
      "v": 100
    },
    {
      "midi": 60,
      "hit": false,
      "t": 34983,
      "d": 117,
      "v": 100
    },
    {
      "midi": 43,
      "hit": false,
      "t": 35100,
      "d": 234,
      "v": 100
    },
    {
      "midi": 50,
      "hit": false,
      "t": 35100,
      "d": 117,
      "v": 100
    },
    {
      "midi": 62,
      "hit": false,
      "t": 35100,
      "d": 702,
      "v": 100
    },
    {
      "midi": 64,
      "hit": false,
      "t": 35100,
      "d": 117,
      "v": 100
    },
    {
      "midi": 50,
      "hit": false,
      "t": 35217,
      "d": 117,
      "v": 100
    },
    {
      "midi": 64,
      "hit": false,
      "t": 35217,
      "d": 234,
      "v": 100
    },
    {
      "midi": 43,
      "hit": false,
      "t": 35334,
      "d": 117,
      "v": 100
    },
    {
      "midi": 43,
      "hit": false,
      "t": 35334,
      "d": 117,
      "v": 100
    },
    {
      "midi": 43,
      "hit": false,
      "t": 35451,
      "d": 234,
      "v": 100
    },
    {
      "midi": 50,
      "hit": false,
      "t": 35451,
      "d": 117,
      "v": 100
    },
    {
      "midi": 64,
      "hit": false,
      "t": 35451,
      "d": 117,
      "v": 100
    },
    {
      "midi": 50,
      "hit": false,
      "t": 35568,
      "d": 117,
      "v": 100
    },
    {
      "midi": 64,
      "hit": false,
      "t": 35568,
      "d": 234,
      "v": 100
    },
    {
      "midi": 43,
      "hit": false,
      "t": 35685,
      "d": 117,
      "v": 100
    },
    {
      "midi": 50,
      "hit": false,
      "t": 35685,
      "d": 117,
      "v": 100
    },
    {
      "midi": 40,
      "hit": false,
      "t": 35802,
      "d": 234,
      "v": 100
    },
    {
      "midi": 47,
      "hit": false,
      "t": 35802,
      "d": 117,
      "v": 100
    },
    {
      "midi": 59,
      "hit": false,
      "t": 35802,
      "d": 702,
      "v": 100
    },
    {
      "midi": 64,
      "hit": false,
      "t": 35802,
      "d": 117,
      "v": 100
    },
    {
      "midi": 47,
      "hit": false,
      "t": 35919,
      "d": 117,
      "v": 100
    },
    {
      "midi": 64,
      "hit": false,
      "t": 35919,
      "d": 234,
      "v": 100
    },
    {
      "midi": 40,
      "hit": false,
      "t": 36036,
      "d": 117,
      "v": 100
    },
    {
      "midi": 40,
      "hit": false,
      "t": 36036,
      "d": 117,
      "v": 100
    },
    {
      "midi": 40,
      "hit": false,
      "t": 36153,
      "d": 234,
      "v": 100
    },
    {
      "midi": 47,
      "hit": false,
      "t": 36153,
      "d": 117,
      "v": 100
    },
    {
      "midi": 64,
      "hit": false,
      "t": 36153,
      "d": 117,
      "v": 100
    },
    {
      "midi": 47,
      "hit": false,
      "t": 36270,
      "d": 117,
      "v": 100
    },
    {
      "midi": 64,
      "hit": false,
      "t": 36270,
      "d": 234,
      "v": 100
    },
    {
      "midi": 40,
      "hit": false,
      "t": 36387,
      "d": 117,
      "v": 100
    },
    {
      "midi": 47,
      "hit": false,
      "t": 36387,
      "d": 117,
      "v": 100
    },
    {
      "midi": 45,
      "hit": false,
      "t": 36504,
      "d": 234,
      "v": 100
    },
    {
      "midi": 50,
      "hit": false,
      "t": 36504,
      "d": 117,
      "v": 100
    },
    {
      "midi": 62,
      "hit": false,
      "t": 36504,
      "d": 1404,
      "v": 100
    },
    {
      "midi": 64,
      "hit": false,
      "t": 36504,
      "d": 117,
      "v": 100
    },
    {
      "midi": 50,
      "hit": false,
      "t": 36621,
      "d": 117,
      "v": 100
    },
    {
      "midi": 64,
      "hit": false,
      "t": 36621,
      "d": 234,
      "v": 100
    },
    {
      "midi": 45,
      "hit": false,
      "t": 36738,
      "d": 117,
      "v": 100
    },
    {
      "midi": 43,
      "hit": false,
      "t": 36738,
      "d": 117,
      "v": 100
    },
    {
      "midi": 45,
      "hit": false,
      "t": 36855,
      "d": 234,
      "v": 100
    },
    {
      "midi": 50,
      "hit": false,
      "t": 36855,
      "d": 117,
      "v": 100
    },
    {
      "midi": 64,
      "hit": false,
      "t": 36855,
      "d": 117,
      "v": 100
    },
    {
      "midi": 50,
      "hit": false,
      "t": 36972,
      "d": 117,
      "v": 100
    },
    {
      "midi": 64,
      "hit": false,
      "t": 36972,
      "d": 234,
      "v": 100
    },
    {
      "midi": 45,
      "hit": false,
      "t": 37089,
      "d": 117,
      "v": 100
    },
    {
      "midi": 50,
      "hit": false,
      "t": 37089,
      "d": 117,
      "v": 100
    },
    {
      "midi": 45,
      "hit": false,
      "t": 37206,
      "d": 234,
      "v": 100
    },
    {
      "midi": 50,
      "hit": false,
      "t": 37206,
      "d": 117,
      "v": 100
    },
    {
      "midi": 64,
      "hit": false,
      "t": 37206,
      "d": 117,
      "v": 100
    },
    {
      "midi": 50,
      "hit": false,
      "t": 37323,
      "d": 117,
      "v": 100
    },
    {
      "midi": 64,
      "hit": false,
      "t": 37323,
      "d": 234,
      "v": 100
    },
    {
      "midi": 45,
      "hit": false,
      "t": 37440,
      "d": 117,
      "v": 100
    },
    {
      "midi": 40,
      "hit": false,
      "t": 37440,
      "d": 117,
      "v": 100
    },
    {
      "midi": 45,
      "hit": false,
      "t": 37557,
      "d": 234,
      "v": 100
    },
    {
      "midi": 50,
      "hit": false,
      "t": 37557,
      "d": 117,
      "v": 100
    },
    {
      "midi": 64,
      "hit": false,
      "t": 37557,
      "d": 117,
      "v": 100
    },
    {
      "midi": 40,
      "hit": false,
      "t": 37674,
      "d": 117,
      "v": 100
    },
    {
      "midi": 64,
      "hit": false,
      "t": 37674,
      "d": 234,
      "v": 100
    },
    {
      "midi": 45,
      "hit": false,
      "t": 37791,
      "d": 117,
      "v": 100
    },
    {
      "midi": 50,
      "hit": false,
      "t": 37791,
      "d": 117,
      "v": 100
    },
    {
      "midi": 45,
      "hit": false,
      "t": 37908,
      "d": 234,
      "v": 100
    },
    {
      "midi": 57,
      "hit": false,
      "t": 37908,
      "d": 117,
      "v": 100
    },
    {
      "midi": 60,
      "hit": false,
      "t": 37908,
      "d": 702,
      "v": 100
    },
    {
      "midi": 64,
      "hit": false,
      "t": 37908,
      "d": 117,
      "v": 100
    },
    {
      "midi": 55,
      "hit": false,
      "t": 38025,
      "d": 117,
      "v": 100
    },
    {
      "midi": 64,
      "hit": false,
      "t": 38025,
      "d": 234,
      "v": 100
    },
    {
      "midi": 45,
      "hit": false,
      "t": 38142,
      "d": 117,
      "v": 100
    },
    {
      "midi": 53,
      "hit": false,
      "t": 38142,
      "d": 117,
      "v": 100
    },
    {
      "midi": 45,
      "hit": false,
      "t": 38259,
      "d": 234,
      "v": 100
    },
    {
      "midi": 51,
      "hit": false,
      "t": 38259,
      "d": 117,
      "v": 100
    },
    {
      "midi": 64,
      "hit": false,
      "t": 38259,
      "d": 117,
      "v": 100
    },
    {
      "midi": 49,
      "hit": false,
      "t": 38376,
      "d": 117,
      "v": 100
    },
    {
      "midi": 64,
      "hit": false,
      "t": 38376,
      "d": 234,
      "v": 100
    },
    {
      "midi": 45,
      "hit": false,
      "t": 38493,
      "d": 117,
      "v": 100
    },
    {
      "midi": 47,
      "hit": false,
      "t": 38493,
      "d": 117,
      "v": 100
    },
    {
      "midi": 45,
      "hit": false,
      "t": 38610,
      "d": 234,
      "v": 100
    },
    {
      "midi": 56,
      "hit": false,
      "t": 38610,
      "d": 117,
      "v": 100
    },
    {
      "midi": 64,
      "hit": false,
      "t": 38610,
      "d": 702,
      "v": 100
    },
    {
      "midi": 64,
      "hit": false,
      "t": 38610,
      "d": 117,
      "v": 100
    },
    {
      "midi": 47,
      "hit": false,
      "t": 38727,
      "d": 117,
      "v": 100
    },
    {
      "midi": 64,
      "hit": false,
      "t": 38727,
      "d": 234,
      "v": 100
    },
    {
      "midi": 45,
      "hit": false,
      "t": 38844,
      "d": 117,
      "v": 100
    },
    {
      "midi": 49,
      "hit": false,
      "t": 38844,
      "d": 117,
      "v": 100
    },
    {
      "midi": 45,
      "hit": false,
      "t": 38961,
      "d": 234,
      "v": 100
    },
    {
      "midi": 51,
      "hit": false,
      "t": 38961,
      "d": 117,
      "v": 100
    },
    {
      "midi": 64,
      "hit": false,
      "t": 38961,
      "d": 117,
      "v": 100
    },
    {
      "midi": 53,
      "hit": false,
      "t": 39078,
      "d": 117,
      "v": 100
    },
    {
      "midi": 64,
      "hit": false,
      "t": 39078,
      "d": 234,
      "v": 100
    },
    {
      "midi": 45,
      "hit": false,
      "t": 39195,
      "d": 117,
      "v": 100
    },
    {
      "midi": 51,
      "hit": false,
      "t": 39195,
      "d": 117,
      "v": 100
    },
    {
      "midi": 50,
      "hit": false,
      "t": 39312,
      "d": 234,
      "v": 100
    },
    {
      "midi": 45,
      "hit": false,
      "t": 39312,
      "d": 234,
      "v": 100
    },
    {
      "midi": 65,
      "hit": false,
      "t": 39312,
      "d": 117,
      "v": 100
    },
    {
      "midi": 64,
      "hit": false,
      "t": 39312,
      "d": 117,
      "v": 100
    },
    {
      "midi": 67,
      "hit": false,
      "t": 39429,
      "d": 117,
      "v": 100
    },
    {
      "midi": 64,
      "hit": false,
      "t": 39429,
      "d": 234,
      "v": 100
    },
    {
      "midi": 50,
      "hit": false,
      "t": 39546,
      "d": 117,
      "v": 100
    },
    {
      "midi": 45,
      "hit": false,
      "t": 39546,
      "d": 117,
      "v": 100
    },
    {
      "midi": 69,
      "hit": false,
      "t": 39546,
      "d": 117,
      "v": 100
    },
    {
      "midi": 50,
      "hit": false,
      "t": 39663,
      "d": 234,
      "v": 100
    },
    {
      "midi": 51,
      "hit": false,
      "t": 39663,
      "d": 234,
      "v": 100
    },
    {
      "midi": 69,
      "hit": false,
      "t": 39663,
      "d": 702,
      "v": 100
    },
    {
      "midi": 64,
      "hit": false,
      "t": 39663,
      "d": 117,
      "v": 100
    },
    {
      "midi": 64,
      "hit": false,
      "t": 39780,
      "d": 234,
      "v": 100
    },
    {
      "midi": 50,
      "hit": false,
      "t": 39897,
      "d": 117,
      "v": 100
    },
    {
      "midi": 45,
      "hit": false,
      "t": 39897,
      "d": 351,
      "v": 100
    },
    {
      "midi": 50,
      "hit": false,
      "t": 40014,
      "d": 234,
      "v": 100
    },
    {
      "midi": 64,
      "hit": false,
      "t": 40014,
      "d": 468,
      "v": 100
    },
    {
      "midi": 50,
      "hit": false,
      "t": 40248,
      "d": 117,
      "v": 100
    },
    {
      "midi": 48,
      "hit": false,
      "t": 40248,
      "d": 117,
      "v": 100
    },
    {
      "midi": 50,
      "hit": false,
      "t": 40365,
      "d": 234,
      "v": 100
    },
    {
      "midi": 51,
      "hit": false,
      "t": 40365,
      "d": 351,
      "v": 100
    },
    {
      "midi": 69,
      "hit": false,
      "t": 40365,
      "d": 117,
      "v": 100
    },
    {
      "midi": 71,
      "hit": false,
      "t": 40482,
      "d": 117,
      "v": 100
    },
    {
      "midi": 64,
      "hit": false,
      "t": 40482,
      "d": 234,
      "v": 100
    },
    {
      "midi": 50,
      "hit": false,
      "t": 40599,
      "d": 117,
      "v": 100
    },
    {
      "midi": 72,
      "hit": false,
      "t": 40599,
      "d": 117,
      "v": 100
    },
    {
      "midi": 43,
      "hit": false,
      "t": 40716,
      "d": 234,
      "v": 100
    },
    {
      "midi": 48,
      "hit": false,
      "t": 40716,
      "d": 234,
      "v": 100
    },
    {
      "midi": 71,
      "hit": false,
      "t": 40716,
      "d": 624,
      "v": 100
    },
    {
      "midi": 64,
      "hit": false,
      "t": 40716,
      "d": 468,
      "v": 100
    },
    {
      "midi": 43,
      "hit": false,
      "t": 40950,
      "d": 117,
      "v": 100
    },
    {
      "midi": 48,
      "hit": false,
      "t": 40950,
      "d": 117,
      "v": 100
    },
    {
      "midi": 43,
      "hit": false,
      "t": 41067,
      "d": 234,
      "v": 100
    },
    {
      "midi": 51,
      "hit": false,
      "t": 41067,
      "d": 234,
      "v": 100
    },
    {
      "midi": 64,
      "hit": false,
      "t": 41184,
      "d": 234,
      "v": 100
    },
    {
      "midi": 43,
      "hit": false,
      "t": 41301,
      "d": 117,
      "v": 100
    },
    {
      "midi": 48,
      "hit": false,
      "t": 41301,
      "d": 117,
      "v": 100
    },
    {
      "midi": 71,
      "hit": false,
      "t": 41340,
      "d": 39,
      "v": 100
    },
    {
      "midi": 72,
      "hit": false,
      "t": 41379,
      "d": 39,
      "v": 100
    },
    {
      "midi": 43,
      "hit": false,
      "t": 41418,
      "d": 234,
      "v": 100
    },
    {
      "midi": 48,
      "hit": false,
      "t": 41418,
      "d": 234,
      "v": 100
    },
    {
      "midi": 74,
      "hit": false,
      "t": 41418,
      "d": 702,
      "v": 100
    },
    {
      "midi": 64,
      "hit": false,
      "t": 41418,
      "d": 468,
      "v": 100
    },
    {
      "midi": 43,
      "hit": false,
      "t": 41652,
      "d": 117,
      "v": 100
    },
    {
      "midi": 48,
      "hit": false,
      "t": 41652,
      "d": 117,
      "v": 100
    },
    {
      "midi": 43,
      "hit": false,
      "t": 41769,
      "d": 234,
      "v": 100
    },
    {
      "midi": 51,
      "hit": false,
      "t": 41769,
      "d": 234,
      "v": 100
    },
    {
      "midi": 64,
      "hit": false,
      "t": 41886,
      "d": 234,
      "v": 100
    },
    {
      "midi": 43,
      "hit": false,
      "t": 42003,
      "d": 117,
      "v": 100
    },
    {
      "midi": 48,
      "hit": false,
      "t": 42003,
      "d": 117,
      "v": 100
    },
    {
      "midi": 40,
      "hit": false,
      "t": 42120,
      "d": 234,
      "v": 100
    },
    {
      "midi": 48,
      "hit": false,
      "t": 42120,
      "d": 234,
      "v": 100
    },
    {
      "midi": 71,
      "hit": false,
      "t": 42120,
      "d": 117,
      "v": 100
    },
    {
      "midi": 64,
      "hit": false,
      "t": 42120,
      "d": 468,
      "v": 100
    },
    {
      "midi": 72,
      "hit": false,
      "t": 42237,
      "d": 117,
      "v": 100
    },
    {
      "midi": 40,
      "hit": false,
      "t": 42354,
      "d": 117,
      "v": 100
    },
    {
      "midi": 48,
      "hit": false,
      "t": 42354,
      "d": 117,
      "v": 100
    },
    {
      "midi": 74,
      "hit": false,
      "t": 42354,
      "d": 117,
      "v": 100
    },
    {
      "midi": 40,
      "hit": false,
      "t": 42471,
      "d": 234,
      "v": 100
    },
    {
      "midi": 51,
      "hit": false,
      "t": 42471,
      "d": 234,
      "v": 100
    },
    {
      "midi": 74,
      "hit": false,
      "t": 42471,
      "d": 702,
      "v": 100
    },
    {
      "midi": 64,
      "hit": false,
      "t": 42588,
      "d": 234,
      "v": 100
    },
    {
      "midi": 40,
      "hit": false,
      "t": 42705,
      "d": 117,
      "v": 100
    },
    {
      "midi": 48,
      "hit": false,
      "t": 42705,
      "d": 117,
      "v": 100
    },
    {
      "midi": 40,
      "hit": false,
      "t": 42822,
      "d": 234,
      "v": 100
    },
    {
      "midi": 48,
      "hit": false,
      "t": 42822,
      "d": 234,
      "v": 100
    },
    {
      "midi": 64,
      "hit": false,
      "t": 42822,
      "d": 468,
      "v": 100
    },
    {
      "midi": 40,
      "hit": false,
      "t": 43056,
      "d": 117,
      "v": 100
    },
    {
      "midi": 48,
      "hit": false,
      "t": 43056,
      "d": 117,
      "v": 100
    },
    {
      "midi": 40,
      "hit": false,
      "t": 43173,
      "d": 234,
      "v": 100
    },
    {
      "midi": 51,
      "hit": false,
      "t": 43173,
      "d": 234,
      "v": 100
    },
    {
      "midi": 71,
      "hit": false,
      "t": 43173,
      "d": 351,
      "v": 100
    },
    {
      "midi": 64,
      "hit": false,
      "t": 43290,
      "d": 234,
      "v": 100
    },
    {
      "midi": 40,
      "hit": false,
      "t": 43407,
      "d": 117,
      "v": 100
    },
    {
      "midi": 48,
      "hit": false,
      "t": 43407,
      "d": 117,
      "v": 100
    },
    {
      "midi": 45,
      "hit": false,
      "t": 43524,
      "d": 234,
      "v": 100
    },
    {
      "midi": 48,
      "hit": false,
      "t": 43524,
      "d": 234,
      "v": 100
    },
    {
      "midi": 74,
      "hit": false,
      "t": 43524,
      "d": 624,
      "v": 100
    },
    {
      "midi": 64,
      "hit": false,
      "t": 43524,
      "d": 468,
      "v": 100
    },
    {
      "midi": 45,
      "hit": false,
      "t": 43758,
      "d": 117,
      "v": 100
    },
    {
      "midi": 48,
      "hit": false,
      "t": 43758,
      "d": 117,
      "v": 100
    },
    {
      "midi": 45,
      "hit": false,
      "t": 43875,
      "d": 234,
      "v": 100
    },
    {
      "midi": 51,
      "hit": false,
      "t": 43875,
      "d": 234,
      "v": 100
    },
    {
      "midi": 64,
      "hit": false,
      "t": 43992,
      "d": 234,
      "v": 100
    },
    {
      "midi": 45,
      "hit": false,
      "t": 44109,
      "d": 117,
      "v": 100
    },
    {
      "midi": 48,
      "hit": false,
      "t": 44109,
      "d": 117,
      "v": 100
    },
    {
      "midi": 76,
      "hit": false,
      "t": 44148,
      "d": 39,
      "v": 100
    },
    {
      "midi": 74,
      "hit": false,
      "t": 44187,
      "d": 39,
      "v": 100
    },
    {
      "midi": 45,
      "hit": false,
      "t": 44226,
      "d": 234,
      "v": 100
    },
    {
      "midi": 48,
      "hit": false,
      "t": 44226,
      "d": 234,
      "v": 100
    },
    {
      "midi": 72,
      "hit": false,
      "t": 44226,
      "d": 702,
      "v": 100
    },
    {
      "midi": 64,
      "hit": false,
      "t": 44226,
      "d": 468,
      "v": 100
    },
    {
      "midi": 45,
      "hit": false,
      "t": 44460,
      "d": 117,
      "v": 100
    },
    {
      "midi": 48,
      "hit": false,
      "t": 44460,
      "d": 117,
      "v": 100
    },
    {
      "midi": 45,
      "hit": false,
      "t": 44577,
      "d": 117,
      "v": 100
    },
    {
      "midi": 51,
      "hit": false,
      "t": 44577,
      "d": 234,
      "v": 100
    },
    {
      "midi": 47,
      "hit": false,
      "t": 44694,
      "d": 117,
      "v": 100
    },
    {
      "midi": 64,
      "hit": false,
      "t": 44694,
      "d": 234,
      "v": 100
    },
    {
      "midi": 48,
      "hit": false,
      "t": 44811,
      "d": 117,
      "v": 100
    },
    {
      "midi": 48,
      "hit": false,
      "t": 44811,
      "d": 117,
      "v": 100
    },
    {
      "midi": 50,
      "hit": false,
      "t": 44928,
      "d": 234,
      "v": 100
    },
    {
      "midi": 48,
      "hit": false,
      "t": 44928,
      "d": 234,
      "v": 100
    },
    {
      "midi": 81,
      "hit": false,
      "t": 44928,
      "d": 117,
      "v": 100
    },
    {
      "midi": 64,
      "hit": false,
      "t": 44928,
      "d": 468,
      "v": 100
    },
    {
      "midi": 77,
      "hit": false,
      "t": 45045,
      "d": 117,
      "v": 100
    },
    {
      "midi": 50,
      "hit": false,
      "t": 45162,
      "d": 117,
      "v": 100
    },
    {
      "midi": 48,
      "hit": false,
      "t": 45162,
      "d": 117,
      "v": 100
    },
    {
      "midi": 72,
      "hit": false,
      "t": 45162,
      "d": 117,
      "v": 100
    },
    {
      "midi": 50,
      "hit": false,
      "t": 45279,
      "d": 234,
      "v": 100
    },
    {
      "midi": 51,
      "hit": false,
      "t": 45279,
      "d": 234,
      "v": 100
    },
    {
      "midi": 77,
      "hit": false,
      "t": 45279,
      "d": 117,
      "v": 100
    },
    {
      "midi": 72,
      "hit": false,
      "t": 45396,
      "d": 117,
      "v": 100
    },
    {
      "midi": 64,
      "hit": false,
      "t": 45396,
      "d": 234,
      "v": 100
    },
    {
      "midi": 50,
      "hit": false,
      "t": 45513,
      "d": 117,
      "v": 100
    },
    {
      "midi": 48,
      "hit": false,
      "t": 45513,
      "d": 117,
      "v": 100
    },
    {
      "midi": 69,
      "hit": false,
      "t": 45513,
      "d": 117,
      "v": 100
    },
    {
      "midi": 50,
      "hit": false,
      "t": 45630,
      "d": 234,
      "v": 100
    },
    {
      "midi": 48,
      "hit": false,
      "t": 45630,
      "d": 234,
      "v": 100
    },
    {
      "midi": 72,
      "hit": false,
      "t": 45630,
      "d": 117,
      "v": 100
    },
    {
      "midi": 64,
      "hit": false,
      "t": 45630,
      "d": 468,
      "v": 100
    },
    {
      "midi": 69,
      "hit": false,
      "t": 45747,
      "d": 117,
      "v": 100
    },
    {
      "midi": 50,
      "hit": false,
      "t": 45864,
      "d": 117,
      "v": 100
    },
    {
      "midi": 48,
      "hit": false,
      "t": 45864,
      "d": 117,
      "v": 100
    },
    {
      "midi": 65,
      "hit": false,
      "t": 45864,
      "d": 117,
      "v": 100
    },
    {
      "midi": 50,
      "hit": false,
      "t": 45981,
      "d": 234,
      "v": 100
    },
    {
      "midi": 51,
      "hit": false,
      "t": 45981,
      "d": 234,
      "v": 100
    },
    {
      "midi": 60,
      "hit": false,
      "t": 45981,
      "d": 117,
      "v": 100
    },
    {
      "midi": 65,
      "hit": false,
      "t": 46098,
      "d": 117,
      "v": 100
    },
    {
      "midi": 64,
      "hit": false,
      "t": 46098,
      "d": 234,
      "v": 100
    },
    {
      "midi": 50,
      "hit": false,
      "t": 46215,
      "d": 117,
      "v": 100
    },
    {
      "midi": 48,
      "hit": false,
      "t": 46215,
      "d": 117,
      "v": 100
    },
    {
      "midi": 69,
      "hit": false,
      "t": 46215,
      "d": 117,
      "v": 100
    },
    {
      "midi": 47,
      "hit": false,
      "t": 46332,
      "d": 234,
      "v": 100
    },
    {
      "midi": 48,
      "hit": false,
      "t": 46332,
      "d": 234,
      "v": 100
    },
    {
      "midi": 83,
      "hit": false,
      "t": 46332,
      "d": 117,
      "v": 100
    },
    {
      "midi": 64,
      "hit": false,
      "t": 46332,
      "d": 468,
      "v": 100
    },
    {
      "midi": 78,
      "hit": false,
      "t": 46449,
      "d": 117,
      "v": 100
    },
    {
      "midi": 47,
      "hit": false,
      "t": 46566,
      "d": 117,
      "v": 100
    },
    {
      "midi": 48,
      "hit": false,
      "t": 46566,
      "d": 117,
      "v": 100
    },
    {
      "midi": 75,
      "hit": false,
      "t": 46566,
      "d": 117,
      "v": 100
    },
    {
      "midi": 47,
      "hit": false,
      "t": 46683,
      "d": 234,
      "v": 100
    },
    {
      "midi": 51,
      "hit": false,
      "t": 46683,
      "d": 234,
      "v": 100
    },
    {
      "midi": 78,
      "hit": false,
      "t": 46683,
      "d": 117,
      "v": 100
    },
    {
      "midi": 75,
      "hit": false,
      "t": 46800,
      "d": 117,
      "v": 100
    },
    {
      "midi": 64,
      "hit": false,
      "t": 46800,
      "d": 234,
      "v": 100
    },
    {
      "midi": 47,
      "hit": false,
      "t": 46917,
      "d": 117,
      "v": 100
    },
    {
      "midi": 48,
      "hit": false,
      "t": 46917,
      "d": 117,
      "v": 100
    },
    {
      "midi": 71,
      "hit": false,
      "t": 46917,
      "d": 117,
      "v": 100
    },
    {
      "midi": 47,
      "hit": false,
      "t": 47034,
      "d": 234,
      "v": 100
    },
    {
      "midi": 48,
      "hit": false,
      "t": 47034,
      "d": 234,
      "v": 100
    },
    {
      "midi": 75,
      "hit": false,
      "t": 47034,
      "d": 117,
      "v": 100
    },
    {
      "midi": 64,
      "hit": false,
      "t": 47034,
      "d": 468,
      "v": 100
    },
    {
      "midi": 71,
      "hit": false,
      "t": 47151,
      "d": 117,
      "v": 100
    },
    {
      "midi": 47,
      "hit": false,
      "t": 47268,
      "d": 117,
      "v": 100
    },
    {
      "midi": 48,
      "hit": false,
      "t": 47268,
      "d": 117,
      "v": 100
    },
    {
      "midi": 66,
      "hit": false,
      "t": 47268,
      "d": 117,
      "v": 100
    },
    {
      "midi": 47,
      "hit": false,
      "t": 47385,
      "d": 234,
      "v": 100
    },
    {
      "midi": 51,
      "hit": false,
      "t": 47385,
      "d": 234,
      "v": 100
    },
    {
      "midi": 63,
      "hit": false,
      "t": 47385,
      "d": 117,
      "v": 100
    },
    {
      "midi": 66,
      "hit": false,
      "t": 47502,
      "d": 117,
      "v": 100
    },
    {
      "midi": 64,
      "hit": false,
      "t": 47502,
      "d": 234,
      "v": 100
    },
    {
      "midi": 47,
      "hit": false,
      "t": 47619,
      "d": 117,
      "v": 100
    },
    {
      "midi": 48,
      "hit": false,
      "t": 47619,
      "d": 117,
      "v": 100
    },
    {
      "midi": 71,
      "hit": false,
      "t": 47619,
      "d": 117,
      "v": 100
    },
    {
      "midi": 52,
      "hit": false,
      "t": 47736,
      "d": 234,
      "v": 100
    },
    {
      "midi": 48,
      "hit": false,
      "t": 47736,
      "d": 234,
      "v": 100
    },
    {
      "midi": 64,
      "hit": false,
      "t": 47736,
      "d": 117,
      "v": 100
    },
    {
      "midi": 64,
      "hit": false,
      "t": 47736,
      "d": 468,
      "v": 100
    },
    {
      "midi": 69,
      "hit": false,
      "t": 47853,
      "d": 117,
      "v": 100
    },
    {
      "midi": 52,
      "hit": false,
      "t": 47970,
      "d": 117,
      "v": 100
    },
    {
      "midi": 48,
      "hit": false,
      "t": 47970,
      "d": 117,
      "v": 100
    },
    {
      "midi": 71,
      "hit": false,
      "t": 47970,
      "d": 117,
      "v": 100
    },
    {
      "midi": 52,
      "hit": false,
      "t": 48087,
      "d": 234,
      "v": 100
    },
    {
      "midi": 51,
      "hit": false,
      "t": 48087,
      "d": 234,
      "v": 100
    },
    {
      "midi": 69,
      "hit": false,
      "t": 48087,
      "d": 117,
      "v": 100
    },
    {
      "midi": 71,
      "hit": false,
      "t": 48204,
      "d": 117,
      "v": 100
    },
    {
      "midi": 64,
      "hit": false,
      "t": 48204,
      "d": 234,
      "v": 100
    },
    {
      "midi": 52,
      "hit": false,
      "t": 48321,
      "d": 117,
      "v": 100
    },
    {
      "midi": 48,
      "hit": false,
      "t": 48321,
      "d": 117,
      "v": 100
    },
    {
      "midi": 76,
      "hit": false,
      "t": 48321,
      "d": 117,
      "v": 100
    },
    {
      "midi": 52,
      "hit": false,
      "t": 48438,
      "d": 234,
      "v": 100
    },
    {
      "midi": 48,
      "hit": false,
      "t": 48438,
      "d": 234,
      "v": 100
    },
    {
      "midi": 71,
      "hit": false,
      "t": 48438,
      "d": 117,
      "v": 100
    },
    {
      "midi": 64,
      "hit": false,
      "t": 48438,
      "d": 468,
      "v": 100
    },
    {
      "midi": 76,
      "hit": false,
      "t": 48555,
      "d": 117,
      "v": 100
    },
    {
      "midi": 52,
      "hit": false,
      "t": 48672,
      "d": 117,
      "v": 100
    },
    {
      "midi": 48,
      "hit": false,
      "t": 48672,
      "d": 117,
      "v": 100
    },
    {
      "midi": 81,
      "hit": false,
      "t": 48672,
      "d": 117,
      "v": 100
    },
    {
      "midi": 52,
      "hit": false,
      "t": 48789,
      "d": 234,
      "v": 100
    },
    {
      "midi": 51,
      "hit": false,
      "t": 48789,
      "d": 234,
      "v": 100
    },
    {
      "midi": 76,
      "hit": false,
      "t": 48789,
      "d": 117,
      "v": 100
    },
    {
      "midi": 81,
      "hit": false,
      "t": 48906,
      "d": 117,
      "v": 100
    },
    {
      "midi": 64,
      "hit": false,
      "t": 48906,
      "d": 234,
      "v": 100
    },
    {
      "midi": 52,
      "hit": false,
      "t": 49023,
      "d": 117,
      "v": 100
    },
    {
      "midi": 48,
      "hit": false,
      "t": 49023,
      "d": 117,
      "v": 100
    },
    {
      "midi": 83,
      "hit": false,
      "t": 49023,
      "d": 117,
      "v": 100
    },
    {
      "midi": 40,
      "hit": false,
      "t": 49140,
      "d": 234,
      "v": 100
    },
    {
      "midi": 48,
      "hit": false,
      "t": 49140,
      "d": 234,
      "v": 100
    },
    {
      "midi": 83,
      "hit": false,
      "t": 49140,
      "d": 117,
      "v": 100
    },
    {
      "midi": 64,
      "hit": false,
      "t": 49140,
      "d": 468,
      "v": 100
    },
    {
      "midi": 80,
      "hit": false,
      "t": 49257,
      "d": 117,
      "v": 100
    },
    {
      "midi": 40,
      "hit": false,
      "t": 49374,
      "d": 117,
      "v": 100
    },
    {
      "midi": 48,
      "hit": false,
      "t": 49374,
      "d": 117,
      "v": 100
    },
    {
      "midi": 76,
      "hit": false,
      "t": 49374,
      "d": 117,
      "v": 100
    },
    {
      "midi": 40,
      "hit": false,
      "t": 49491,
      "d": 234,
      "v": 100
    },
    {
      "midi": 51,
      "hit": false,
      "t": 49491,
      "d": 234,
      "v": 100
    },
    {
      "midi": 80,
      "hit": false,
      "t": 49491,
      "d": 117,
      "v": 100
    },
    {
      "midi": 76,
      "hit": false,
      "t": 49608,
      "d": 117,
      "v": 100
    },
    {
      "midi": 64,
      "hit": false,
      "t": 49608,
      "d": 234,
      "v": 100
    },
    {
      "midi": 40,
      "hit": false,
      "t": 49725,
      "d": 117,
      "v": 100
    },
    {
      "midi": 48,
      "hit": false,
      "t": 49725,
      "d": 117,
      "v": 100
    },
    {
      "midi": 71,
      "hit": false,
      "t": 49725,
      "d": 117,
      "v": 100
    },
    {
      "midi": 40,
      "hit": false,
      "t": 49842,
      "d": 234,
      "v": 100
    },
    {
      "midi": 48,
      "hit": false,
      "t": 49842,
      "d": 234,
      "v": 100
    },
    {
      "midi": 76,
      "hit": false,
      "t": 49842,
      "d": 117,
      "v": 100
    },
    {
      "midi": 64,
      "hit": false,
      "t": 49842,
      "d": 468,
      "v": 100
    },
    {
      "midi": 71,
      "hit": false,
      "t": 49959,
      "d": 117,
      "v": 100
    },
    {
      "midi": 40,
      "hit": false,
      "t": 50076,
      "d": 234,
      "v": 100
    },
    {
      "midi": 48,
      "hit": false,
      "t": 50076,
      "d": 117,
      "v": 100
    },
    {
      "midi": 68,
      "hit": false,
      "t": 50076,
      "d": 117,
      "v": 100
    },
    {
      "midi": 51,
      "hit": false,
      "t": 50193,
      "d": 117,
      "v": 100
    },
    {
      "midi": 71,
      "hit": false,
      "t": 50193,
      "d": 117,
      "v": 100
    },
    {
      "midi": 40,
      "hit": false,
      "t": 50310,
      "d": 117,
      "v": 100
    },
    {
      "midi": 48,
      "hit": false,
      "t": 50310,
      "d": 117,
      "v": 100
    },
    {
      "midi": 68,
      "hit": false,
      "t": 50310,
      "d": 117,
      "v": 100
    },
    {
      "midi": 64,
      "hit": false,
      "t": 50310,
      "d": 117,
      "v": 100
    },
    {
      "midi": 40,
      "hit": false,
      "t": 50427,
      "d": 117,
      "v": 100
    },
    {
      "midi": 51,
      "hit": false,
      "t": 50427,
      "d": 117,
      "v": 100
    },
    {
      "midi": 64,
      "hit": false,
      "t": 50427,
      "d": 5733,
      "v": 100
    },
    {
      "midi": 64,
      "hit": false,
      "t": 50427,
      "d": 5733,
      "v": 100
    },
    {
      "midi": 43,
      "hit": false,
      "t": 50544,
      "d": 117,
      "v": 100
    },
    {
      "midi": 45,
      "hit": false,
      "t": 50544,
      "d": 117,
      "v": 100
    },
    {
      "midi": 45,
      "hit": false,
      "t": 50661,
      "d": 117,
      "v": 100
    },
    {
      "midi": 45,
      "hit": false,
      "t": 50661,
      "d": 117,
      "v": 100
    },
    {
      "midi": 45,
      "hit": false,
      "t": 50778,
      "d": 117,
      "v": 100
    },
    {
      "midi": 45,
      "hit": false,
      "t": 50778,
      "d": 117,
      "v": 100
    },
    {
      "midi": 45,
      "hit": false,
      "t": 50895,
      "d": 117,
      "v": 100
    },
    {
      "midi": 45,
      "hit": false,
      "t": 50895,
      "d": 117,
      "v": 100
    },
    {
      "midi": 45,
      "hit": false,
      "t": 51012,
      "d": 117,
      "v": 100
    },
    {
      "midi": 45,
      "hit": false,
      "t": 51012,
      "d": 117,
      "v": 100
    },
    {
      "midi": 45,
      "hit": false,
      "t": 51129,
      "d": 117,
      "v": 100
    },
    {
      "midi": 45,
      "hit": false,
      "t": 51129,
      "d": 117,
      "v": 100
    },
    {
      "midi": 43,
      "hit": false,
      "t": 51246,
      "d": 117,
      "v": 100
    },
    {
      "midi": 45,
      "hit": false,
      "t": 51246,
      "d": 117,
      "v": 100
    },
    {
      "midi": 45,
      "hit": false,
      "t": 51363,
      "d": 117,
      "v": 100
    },
    {
      "midi": 45,
      "hit": false,
      "t": 51363,
      "d": 117,
      "v": 100
    },
    {
      "midi": 45,
      "hit": false,
      "t": 51480,
      "d": 117,
      "v": 100
    },
    {
      "midi": 45,
      "hit": false,
      "t": 51480,
      "d": 117,
      "v": 100
    },
    {
      "midi": 45,
      "hit": false,
      "t": 51597,
      "d": 117,
      "v": 100
    },
    {
      "midi": 45,
      "hit": false,
      "t": 51597,
      "d": 117,
      "v": 100
    },
    {
      "midi": 45,
      "hit": false,
      "t": 51714,
      "d": 117,
      "v": 100
    },
    {
      "midi": 45,
      "hit": false,
      "t": 51714,
      "d": 117,
      "v": 100
    },
    {
      "midi": 45,
      "hit": false,
      "t": 51831,
      "d": 117,
      "v": 100
    },
    {
      "midi": 45,
      "hit": false,
      "t": 51831,
      "d": 117,
      "v": 100
    },
    {
      "midi": 61,
      "hit": false,
      "t": 51948,
      "d": 117,
      "v": 100
    },
    {
      "midi": 48,
      "hit": false,
      "t": 51948,
      "d": 234,
      "v": 100
    },
    {
      "midi": 49,
      "hit": false,
      "t": 52065,
      "d": 117,
      "v": 100
    },
    {
      "midi": 60,
      "hit": false,
      "t": 52182,
      "d": 117,
      "v": 100
    },
    {
      "midi": 48,
      "hit": false,
      "t": 52182,
      "d": 234,
      "v": 100
    },
    {
      "midi": 48,
      "hit": false,
      "t": 52299,
      "d": 117,
      "v": 100
    },
    {
      "midi": 59,
      "hit": false,
      "t": 52416,
      "d": 117,
      "v": 100
    },
    {
      "midi": 48,
      "hit": false,
      "t": 52416,
      "d": 234,
      "v": 100
    },
    {
      "midi": 47,
      "hit": false,
      "t": 52533,
      "d": 117,
      "v": 100
    },
    {
      "midi": 58,
      "hit": false,
      "t": 52650,
      "d": 117,
      "v": 100
    },
    {
      "midi": 48,
      "hit": false,
      "t": 52650,
      "d": 234,
      "v": 100
    },
    {
      "midi": 46,
      "hit": false,
      "t": 52767,
      "d": 117,
      "v": 100
    },
    {
      "midi": 57,
      "hit": false,
      "t": 52884,
      "d": 117,
      "v": 100
    },
    {
      "midi": 48,
      "hit": false,
      "t": 52884,
      "d": 234,
      "v": 100
    },
    {
      "midi": 45,
      "hit": false,
      "t": 53001,
      "d": 117,
      "v": 100
    },
    {
      "midi": 56,
      "hit": false,
      "t": 53118,
      "d": 117,
      "v": 100
    },
    {
      "midi": 48,
      "hit": false,
      "t": 53118,
      "d": 234,
      "v": 100
    },
    {
      "midi": 44,
      "hit": false,
      "t": 53235,
      "d": 117,
      "v": 100
    },
    {
      "midi": 43,
      "hit": false,
      "t": 53352,
      "d": 117,
      "v": 100
    },
    {
      "midi": 45,
      "hit": false,
      "t": 53352,
      "d": 117,
      "v": 100
    },
    {
      "midi": 45,
      "hit": false,
      "t": 53469,
      "d": 117,
      "v": 100
    },
    {
      "midi": 45,
      "hit": false,
      "t": 53469,
      "d": 117,
      "v": 100
    },
    {
      "midi": 45,
      "hit": false,
      "t": 53586,
      "d": 117,
      "v": 100
    },
    {
      "midi": 45,
      "hit": false,
      "t": 53586,
      "d": 117,
      "v": 100
    },
    {
      "midi": 45,
      "hit": false,
      "t": 53703,
      "d": 117,
      "v": 100
    },
    {
      "midi": 45,
      "hit": false,
      "t": 53703,
      "d": 117,
      "v": 100
    },
    {
      "midi": 45,
      "hit": false,
      "t": 53820,
      "d": 117,
      "v": 100
    },
    {
      "midi": 45,
      "hit": false,
      "t": 53820,
      "d": 117,
      "v": 100
    },
    {
      "midi": 45,
      "hit": false,
      "t": 53937,
      "d": 117,
      "v": 100
    },
    {
      "midi": 45,
      "hit": false,
      "t": 53937,
      "d": 117,
      "v": 100
    },
    {
      "midi": 43,
      "hit": false,
      "t": 54054,
      "d": 117,
      "v": 100
    },
    {
      "midi": 45,
      "hit": false,
      "t": 54054,
      "d": 117,
      "v": 100
    },
    {
      "midi": 45,
      "hit": false,
      "t": 54171,
      "d": 117,
      "v": 100
    },
    {
      "midi": 45,
      "hit": false,
      "t": 54171,
      "d": 117,
      "v": 100
    },
    {
      "midi": 45,
      "hit": false,
      "t": 54288,
      "d": 117,
      "v": 100
    },
    {
      "midi": 45,
      "hit": false,
      "t": 54288,
      "d": 117,
      "v": 100
    },
    {
      "midi": 45,
      "hit": false,
      "t": 54405,
      "d": 117,
      "v": 100
    },
    {
      "midi": 45,
      "hit": false,
      "t": 54405,
      "d": 117,
      "v": 100
    },
    {
      "midi": 45,
      "hit": false,
      "t": 54522,
      "d": 117,
      "v": 100
    },
    {
      "midi": 45,
      "hit": false,
      "t": 54522,
      "d": 117,
      "v": 100
    },
    {
      "midi": 45,
      "hit": false,
      "t": 54639,
      "d": 117,
      "v": 100
    },
    {
      "midi": 45,
      "hit": false,
      "t": 54639,
      "d": 117,
      "v": 100
    },
    {
      "midi": 63,
      "hit": false,
      "t": 54756,
      "d": 117,
      "v": 100
    },
    {
      "midi": 48,
      "hit": false,
      "t": 54756,
      "d": 234,
      "v": 100
    },
    {
      "midi": 51,
      "hit": false,
      "t": 54873,
      "d": 117,
      "v": 100
    },
    {
      "midi": 62,
      "hit": false,
      "t": 54990,
      "d": 117,
      "v": 100
    },
    {
      "midi": 48,
      "hit": false,
      "t": 54990,
      "d": 234,
      "v": 100
    },
    {
      "midi": 50,
      "hit": false,
      "t": 55107,
      "d": 117,
      "v": 100
    },
    {
      "midi": 61,
      "hit": false,
      "t": 55224,
      "d": 117,
      "v": 100
    },
    {
      "midi": 48,
      "hit": false,
      "t": 55224,
      "d": 234,
      "v": 100
    },
    {
      "midi": 49,
      "hit": false,
      "t": 55341,
      "d": 117,
      "v": 100
    },
    {
      "midi": 60,
      "hit": false,
      "t": 55458,
      "d": 117,
      "v": 100
    },
    {
      "midi": 48,
      "hit": false,
      "t": 55458,
      "d": 234,
      "v": 100
    },
    {
      "midi": 48,
      "hit": false,
      "t": 55575,
      "d": 117,
      "v": 100
    },
    {
      "midi": 59,
      "hit": false,
      "t": 55692,
      "d": 117,
      "v": 100
    },
    {
      "midi": 48,
      "hit": false,
      "t": 55692,
      "d": 234,
      "v": 100
    },
    {
      "midi": 47,
      "hit": false,
      "t": 55809,
      "d": 117,
      "v": 100
    },
    {
      "midi": 58,
      "hit": false,
      "t": 55926,
      "d": 117,
      "v": 100
    },
    {
      "midi": 48,
      "hit": false,
      "t": 55926,
      "d": 234,
      "v": 100
    },
    {
      "midi": 46,
      "hit": false,
      "t": 56043,
      "d": 117,
      "v": 100
    },
    {
      "midi": 43,
      "hit": false,
      "t": 56160,
      "d": 117,
      "v": 100
    },
    {
      "midi": 49,
      "hit": false,
      "t": 56160,
      "d": 1404,
      "v": 100
    },
    {
      "midi": 50,
      "hit": false,
      "t": 56160,
      "d": 117,
      "v": 100
    },
    {
      "midi": 44,
      "hit": false,
      "t": 56160,
      "d": 2496,
      "v": 100
    },
    {
      "midi": 45,
      "hit": false,
      "t": 56277,
      "d": 117,
      "v": 100
    },
    {
      "midi": 45,
      "hit": false,
      "t": 56277,
      "d": 117,
      "v": 100
    },
    {
      "midi": 45,
      "hit": false,
      "t": 56394,
      "d": 117,
      "v": 100
    },
    {
      "midi": 45,
      "hit": false,
      "t": 56394,
      "d": 117,
      "v": 100
    },
    {
      "midi": 45,
      "hit": false,
      "t": 56511,
      "d": 117,
      "v": 100
    },
    {
      "midi": 45,
      "hit": false,
      "t": 56511,
      "d": 117,
      "v": 100
    },
    {
      "midi": 45,
      "hit": false,
      "t": 56628,
      "d": 117,
      "v": 100
    },
    {
      "midi": 45,
      "hit": false,
      "t": 56628,
      "d": 117,
      "v": 100
    },
    {
      "midi": 45,
      "hit": false,
      "t": 56745,
      "d": 117,
      "v": 100
    },
    {
      "midi": 45,
      "hit": false,
      "t": 56745,
      "d": 117,
      "v": 100
    },
    {
      "midi": 43,
      "hit": false,
      "t": 56862,
      "d": 117,
      "v": 100
    },
    {
      "midi": 50,
      "hit": false,
      "t": 56862,
      "d": 117,
      "v": 100
    },
    {
      "midi": 45,
      "hit": false,
      "t": 56979,
      "d": 117,
      "v": 100
    },
    {
      "midi": 45,
      "hit": false,
      "t": 56979,
      "d": 117,
      "v": 100
    },
    {
      "midi": 45,
      "hit": false,
      "t": 57096,
      "d": 117,
      "v": 100
    },
    {
      "midi": 45,
      "hit": false,
      "t": 57096,
      "d": 117,
      "v": 100
    },
    {
      "midi": 45,
      "hit": false,
      "t": 57213,
      "d": 117,
      "v": 100
    },
    {
      "midi": 64,
      "hit": false,
      "t": 57213,
      "d": 117,
      "v": 100
    },
    {
      "midi": 45,
      "hit": false,
      "t": 57330,
      "d": 117,
      "v": 100
    },
    {
      "midi": 60,
      "hit": false,
      "t": 57330,
      "d": 117,
      "v": 100
    },
    {
      "midi": 45,
      "hit": false,
      "t": 57447,
      "d": 117,
      "v": 100
    },
    {
      "midi": 55,
      "hit": false,
      "t": 57447,
      "d": 117,
      "v": 100
    },
    {
      "midi": 47,
      "hit": false,
      "t": 57564,
      "d": 117,
      "v": 100
    },
    {
      "midi": 49,
      "hit": false,
      "t": 57564,
      "d": 1092,
      "v": 100
    },
    {
      "midi": 50,
      "hit": false,
      "t": 57564,
      "d": 117,
      "v": 100
    },
    {
      "midi": 48,
      "hit": false,
      "t": 57681,
      "d": 117,
      "v": 100
    },
    {
      "midi": 45,
      "hit": false,
      "t": 57681,
      "d": 117,
      "v": 100
    },
    {
      "midi": 48,
      "hit": false,
      "t": 57798,
      "d": 117,
      "v": 100
    },
    {
      "midi": 45,
      "hit": false,
      "t": 57798,
      "d": 117,
      "v": 100
    },
    {
      "midi": 48,
      "hit": false,
      "t": 57915,
      "d": 117,
      "v": 100
    },
    {
      "midi": 45,
      "hit": false,
      "t": 57915,
      "d": 117,
      "v": 100
    },
    {
      "midi": 48,
      "hit": false,
      "t": 58032,
      "d": 117,
      "v": 100
    },
    {
      "midi": 45,
      "hit": false,
      "t": 58032,
      "d": 117,
      "v": 100
    },
    {
      "midi": 48,
      "hit": false,
      "t": 58149,
      "d": 117,
      "v": 100
    },
    {
      "midi": 45,
      "hit": false,
      "t": 58149,
      "d": 117,
      "v": 100
    },
    {
      "midi": 47,
      "hit": false,
      "t": 58266,
      "d": 117,
      "v": 100
    },
    {
      "midi": 50,
      "hit": false,
      "t": 58266,
      "d": 117,
      "v": 100
    },
    {
      "midi": 48,
      "hit": false,
      "t": 58383,
      "d": 117,
      "v": 100
    },
    {
      "midi": 45,
      "hit": false,
      "t": 58383,
      "d": 117,
      "v": 100
    },
    {
      "midi": 48,
      "hit": false,
      "t": 58500,
      "d": 117,
      "v": 100
    },
    {
      "midi": 45,
      "hit": false,
      "t": 58500,
      "d": 117,
      "v": 100
    },
    {
      "midi": 48,
      "hit": false,
      "t": 58617,
      "d": 39,
      "v": 100
    },
    {
      "midi": 64,
      "hit": false,
      "t": 58617,
      "d": 39,
      "v": 100
    }
  ]
}