{
  "jsonPath": "Rock/Soft Rock/Michael McDonald/still-not-over-you-getting-over-me.json",
  "path": "Rock\\Soft Rock\\Michael McDonald\\Still Not Over You (Getting Over Me).mid",
  "name": "Still Not Over You (Getting Over Me)",
  "difficulty": "Advanced",
  "bpm": 72.00002880001152,
  "notes": [
    {
      "midi": 67,
      "hit": false,
      "t": 3363.713932291667,
      "d": 1367.186953125,
      "v": 46
    },
    {
      "midi": 79,
      "hit": false,
      "t": 3385.4153125000003,
      "d": 1367.1869531250004,
      "v": 48
    },
    {
      "midi": 36,
      "hit": false,
      "t": 3394.0958645833334,
      "d": 776.9094114583331,
      "v": 96
    },
    {
      "midi": 48,
      "hit": false,
      "t": 3398.436140625,
      "d": 60.76386458333354,
      "v": 96
    },
    {
      "midi": 55,
      "hit": false,
      "t": 3398.436140625,
      "d": 60.76386458333354,
      "v": 127
    },
    {
      "midi": 52,
      "hit": false,
      "t": 3398.436140625,
      "d": 668.4025104166662,
      "v": 97
    },
    {
      "midi": 60,
      "hit": false,
      "t": 3402.7764166666666,
      "d": 664.0622343749997,
      "v": 85
    },
    {
      "midi": 64,
      "hit": false,
      "t": 3402.7764166666666,
      "d": 664.0622343749997,
      "v": 94
    },
    {
      "midi": 67,
      "hit": false,
      "t": 3402.7764166666666,
      "d": 664.0622343749997,
      "v": 96
    },
    {
      "midi": 60,
      "hit": false,
      "t": 3407.1166927083336,
      "d": 9947.9126875,
      "v": 96
    },
    {
      "midi": 64,
      "hit": false,
      "t": 3407.1166927083336,
      "d": 9947.9126875,
      "v": 96
    },
    {
      "midi": 67,
      "hit": false,
      "t": 3407.1166927083336,
      "d": 9947.9126875,
      "v": 96
    },
    {
      "midi": 55,
      "hit": false,
      "t": 3580.727734375,
      "d": 52.08331249999992,
      "v": 60
    },
    {
      "midi": 55,
      "hit": false,
      "t": 3789.0609843750003,
      "d": 52.08331249999992,
      "v": 66
    },
    {
      "midi": 48,
      "hit": false,
      "t": 4001.734510416667,
      "d": 65.10414062500013,
      "v": 96
    },
    {
      "midi": 55,
      "hit": false,
      "t": 4001.734510416667,
      "d": 82.46524479166692,
      "v": 127
    },
    {
      "midi": 55,
      "hit": false,
      "t": 4210.067760416668,
      "d": 30.381932291667,
      "v": 63
    },
    {
      "midi": 55,
      "hit": false,
      "t": 4418.401010416668,
      "d": 47.743036458333336,
      "v": 53
    },
    {
      "midi": 36,
      "hit": false,
      "t": 4626.734260416667,
      "d": 65.10414062499967,
      "v": 96
    },
    {
      "midi": 48,
      "hit": false,
      "t": 4626.734260416668,
      "d": 65.10414062499967,
      "v": 96
    },
    {
      "midi": 55,
      "hit": false,
      "t": 4631.0745364583345,
      "d": 78.12496874999943,
      "v": 127
    },
    {
      "midi": 55,
      "hit": false,
      "t": 4830.727234375001,
      "d": 17.361104166666337,
      "v": 30
    },
    {
      "midi": 64,
      "hit": false,
      "t": 5004.338276041666,
      "d": 694.4441666666671,
      "v": 96
    },
    {
      "midi": 72,
      "hit": false,
      "t": 5043.400760416666,
      "d": 690.1038906250005,
      "v": 96
    },
    {
      "midi": 36,
      "hit": false,
      "t": 5043.400760416666,
      "d": 1523.4368906250002,
      "v": 96
    },
    {
      "midi": 55,
      "hit": false,
      "t": 5043.400760416667,
      "d": 47.743036458333336,
      "v": 44
    },
    {
      "midi": 79,
      "hit": false,
      "t": 5073.782692708333,
      "d": 694.4441666666671,
      "v": 96
    },
    {
      "midi": 48,
      "hit": false,
      "t": 5251.734010416667,
      "d": 65.10414062499967,
      "v": 96
    },
    {
      "midi": 55,
      "hit": false,
      "t": 5251.734010416667,
      "d": 82.46524479166601,
      "v": 127
    },
    {
      "midi": 55,
      "hit": false,
      "t": 5460.067260416667,
      "d": 47.743036458333336,
      "v": 53
    },
    {
      "midi": 55,
      "hit": false,
      "t": 5668.400510416666,
      "d": 47.743036458333336,
      "v": 44
    },
    {
      "midi": 48,
      "hit": false,
      "t": 5876.733760416666,
      "d": 78.12496875000033,
      "v": 96
    },
    {
      "midi": 55,
      "hit": false,
      "t": 5876.733760416666,
      "d": 99.82634895833326,
      "v": 127
    },
    {
      "midi": 55,
      "hit": false,
      "t": 6085.067010416666,
      "d": 65.10414062499967,
      "v": 43
    },
    {
      "midi": 52,
      "hit": false,
      "t": 6293.400260416665,
      "d": 47.743036458333336,
      "v": 81
    },
    {
      "midi": 52,
      "hit": false,
      "t": 6501.733510416665,
      "d": 13.020828124999753,
      "v": 35
    },
    {
      "midi": 55,
      "hit": false,
      "t": 6610.240411458333,
      "d": 2356.7698906250007,
      "v": 45
    },
    {
      "midi": 67,
      "hit": false,
      "t": 6631.941791666668,
      "d": 2356.7698906250007,
      "v": 47
    },
    {
      "midi": 36,
      "hit": false,
      "t": 6718.7473125,
      "d": 781.2496874999997,
      "v": 96
    },
    {
      "midi": 48,
      "hit": false,
      "t": 6723.087588541664,
      "d": 82.46524479166692,
      "v": 96
    },
    {
      "midi": 55,
      "hit": false,
      "t": 6723.087588541664,
      "d": 99.82634895833326,
      "v": 127
    },
    {
      "midi": 52,
      "hit": false,
      "t": 6723.087588541667,
      "d": 677.0830624999999,
      "v": 97
    },
    {
      "midi": 60,
      "hit": false,
      "t": 6727.427864583334,
      "d": 672.7427864583333,
      "v": 94
    },
    {
      "midi": 67,
      "hit": false,
      "t": 6727.427864583334,
      "d": 672.7427864583333,
      "v": 96
    },
    {
      "midi": 76,
      "hit": false,
      "t": 6727.427864583334,
      "d": 672.7427864583333,
      "v": 85
    },
    {
      "midi": 55,
      "hit": false,
      "t": 6914.059734374998,
      "d": 30.381932291667,
      "v": 31
    },
    {
      "midi": 55,
      "hit": false,
      "t": 7122.392984374998,
      "d": 52.08331249999992,
      "v": 57
    },
    {
      "midi": 48,
      "hit": false,
      "t": 7335.066510416665,
      "d": 82.46524479166692,
      "v": 96
    },
    {
      "midi": 55,
      "hit": false,
      "t": 7335.066510416665,
      "d": 95.48607291666667,
      "v": 127
    },
    {
      "midi": 55,
      "hit": false,
      "t": 7543.399760416664,
      "d": 65.10414062499967,
      "v": 31
    },
    {
      "midi": 55,
      "hit": false,
      "t": 7751.733010416664,
      "d": 65.10414062499967,
      "v": 66
    },
    {
      "midi": 48,
      "hit": false,
      "t": 7960.066260416664,
      "d": 78.12496875000033,
      "v": 96
    },
    {
      "midi": 36,
      "hit": false,
      "t": 7960.066260416666,
      "d": 65.10414062499967,
      "v": 96
    },
    {
      "midi": 55,
      "hit": false,
      "t": 7964.40653645833,
      "d": 78.12496875000033,
      "v": 127
    },
    {
      "midi": 55,
      "hit": false,
      "t": 8164.059234374998,
      "d": 47.743036458332426,
      "v": 65
    },
    {
      "midi": 55,
      "hit": false,
      "t": 8376.732760416664,
      "d": 30.38193229166609,
      "v": 52
    },
    {
      "midi": 36,
      "hit": false,
      "t": 8376.732760416666,
      "d": 1519.0966145833336,
      "v": 96
    },
    {
      "midi": 48,
      "hit": false,
      "t": 8580.725734374997,
      "d": 82.46524479166692,
      "v": 96
    },
    {
      "midi": 55,
      "hit": false,
      "t": 8585.066010416664,
      "d": 95.48607291666667,
      "v": 127
    },
    {
      "midi": 55,
      "hit": false,
      "t": 8789.058984374997,
      "d": 30.38193229166609,
      "v": 31
    },
    {
      "midi": 55,
      "hit": false,
      "t": 9001.732510416663,
      "d": 43.40276041666584,
      "v": 62
    },
    {
      "midi": 64,
      "hit": false,
      "t": 9001.732510416667,
      "d": 690.1038906249996,
      "v": 85
    },
    {
      "midi": 48,
      "hit": false,
      "t": 9210.065760416663,
      "d": 95.48607291666667,
      "v": 96
    },
    {
      "midi": 55,
      "hit": false,
      "t": 9210.065760416663,
      "d": 99.82634895833326,
      "v": 127
    },
    {
      "midi": 55,
      "hit": false,
      "t": 9418.399010416662,
      "d": 26.041656249999505,
      "v": 69
    },
    {
      "midi": 67,
      "hit": false,
      "t": 9418.399010416666,
      "d": 481.77064062499994,
      "v": 85
    },
    {
      "midi": 52,
      "hit": false,
      "t": 9626.732260416662,
      "d": 60.763864583334,
      "v": 93
    },
    {
      "midi": 52,
      "hit": false,
      "t": 9835.065510416664,
      "d": 8.680552083333168,
      "v": 34
    },
    {
      "midi": 36,
      "hit": false,
      "t": 10052.0793125,
      "d": 781.2496874999997,
      "v": 96
    },
    {
      "midi": 48,
      "hit": false,
      "t": 10056.419588541663,
      "d": 65.10414062500058,
      "v": 96
    },
    {
      "midi": 55,
      "hit": false,
      "t": 10056.419588541663,
      "d": 65.10414062500058,
      "v": 127
    },
    {
      "midi": 52,
      "hit": false,
      "t": 10056.419588541667,
      "d": 677.0830624999999,
      "v": 97
    },
    {
      "midi": 60,
      "hit": false,
      "t": 10060.759864583333,
      "d": 672.7427864583333,
      "v": 85
    },
    {
      "midi": 67,
      "hit": false,
      "t": 10060.759864583333,
      "d": 672.7427864583333,
      "v": 94
    },
    {
      "midi": 72,
      "hit": false,
      "t": 10060.759864583333,
      "d": 672.7427864583333,
      "v": 96
    },
    {
      "midi": 55,
      "hit": false,
      "t": 10247.391734374996,
      "d": 47.743036458334245,
      "v": 60
    },
    {
      "midi": 55,
      "hit": false,
      "t": 10455.724984374998,
      "d": 52.08331250000083,
      "v": 66
    },
    {
      "midi": 48,
      "hit": false,
      "t": 10668.398510416666,
      "d": 60.763864583334,
      "v": 96
    },
    {
      "midi": 55,
      "hit": false,
      "t": 10668.398510416666,
      "d": 78.12496875000033,
      "v": 127
    },
    {
      "midi": 55,
      "hit": false,
      "t": 10876.731760416666,
      "d": 26.041656249999505,
      "v": 63
    },
    {
      "midi": 67,
      "hit": false,
      "t": 10911.45396875,
      "d": 802.9510677083326,
      "v": 45
    },
    {
      "midi": 79,
      "hit": false,
      "t": 10933.155348958335,
      "d": 802.9510677083326,
      "v": 47
    },
    {
      "midi": 55,
      "hit": false,
      "t": 11080.724734374999,
      "d": 47.743036458334245,
      "v": 53
    },
    {
      "midi": 48,
      "hit": false,
      "t": 11293.398260416667,
      "d": 65.10414062500058,
      "v": 96
    },
    {
      "midi": 36,
      "hit": false,
      "t": 11293.398260416667,
      "d": 60.763864583334,
      "v": 96
    },
    {
      "midi": 55,
      "hit": false,
      "t": 11297.738536458333,
      "d": 73.78469270833375,
      "v": 127
    },
    {
      "midi": 55,
      "hit": false,
      "t": 11497.391234375,
      "d": 17.361104166666337,
      "v": 30
    },
    {
      "midi": 36,
      "hit": false,
      "t": 11705.724484375001,
      "d": 1523.4368906250002,
      "v": 96
    },
    {
      "midi": 55,
      "hit": false,
      "t": 11710.064760416666,
      "d": 43.40276041666584,
      "v": 44
    },
    {
      "midi": 64,
      "hit": false,
      "t": 11766.488348958334,
      "d": 733.5066510416673,
      "v": 45
    },
    {
      "midi": 76,
      "hit": false,
      "t": 11788.189729166668,
      "d": 733.5066510416673,
      "v": 47
    },
    {
      "midi": 48,
      "hit": false,
      "t": 11914.057734375,
      "d": 65.10414062500058,
      "v": 96
    },
    {
      "midi": 55,
      "hit": false,
      "t": 11918.398010416666,
      "d": 78.12496875000033,
      "v": 127
    },
    {
      "midi": 55,
      "hit": false,
      "t": 12122.390984374999,
      "d": 47.743036458332426,
      "v": 53
    },
    {
      "midi": 55,
      "hit": false,
      "t": 12330.724234374999,
      "d": 47.743036458332426,
      "v": 44
    },
    {
      "midi": 48,
      "hit": false,
      "t": 12539.057484374998,
      "d": 82.46524479166692,
      "v": 96
    },
    {
      "midi": 55,
      "hit": false,
      "t": 12543.397760416665,
      "d": 95.48607291666667,
      "v": 127
    },
    {
      "midi": 60,
      "hit": false,
      "t": 12586.800520833334,
      "d": 759.5483072916668,
      "v": 45
    },
    {
      "midi": 72,
      "hit": false,
      "t": 12608.501901041669,
      "d": 759.5483072916668,
      "v": 47
    },
    {
      "midi": 55,
      "hit": false,
      "t": 12747.390734374998,
      "d": 65.10414062500058,
      "v": 43
    },
    {
      "midi": 52,
      "hit": false,
      "t": 12960.064260416666,
      "d": 112.84717708333301,
      "v": 87
    },
    {
      "midi": 60,
      "hit": false,
      "t": 12960.064260416666,
      "d": 269.0971145833337,
      "v": 85
    },
    {
      "midi": 52,
      "hit": false,
      "t": 13164.057234375,
      "d": 13.020828124999753,
      "v": 38
    },
    {
      "midi": 55,
      "hit": false,
      "t": 13168.397510416666,
      "d": 65.10414062500058,
      "v": 85
    },
    {
      "midi": 59,
      "hit": false,
      "t": 13346.348828125001,
      "d": 1180.5550833333327,
      "v": 45
    },
    {
      "midi": 71,
      "hit": false,
      "t": 13368.050208333336,
      "d": 1180.5550833333327,
      "v": 47
    },
    {
      "midi": 55,
      "hit": false,
      "t": 13376.730760416667,
      "d": 1805.5548333333336,
      "v": 46
    },
    {
      "midi": 52,
      "hit": false,
      "t": 13385.4113125,
      "d": 677.0830624999999,
      "v": 97
    },
    {
      "midi": 64,
      "hit": false,
      "t": 13385.4113125,
      "d": 681.4233385416665,
      "v": 94
    },
    {
      "midi": 60,
      "hit": false,
      "t": 13389.751588541667,
      "d": 677.0830624999999,
      "v": 85
    },
    {
      "midi": 67,
      "hit": false,
      "t": 13389.751588541667,
      "d": 677.0830624999999,
      "v": 96
    },
    {
      "midi": 55,
      "hit": false,
      "t": 13398.432140624998,
      "d": 3029.512677083334,
      "v": 56
    },
    {
      "midi": 36,
      "hit": false,
      "t": 13398.432140625002,
      "d": 2434.894859374999,
      "v": 96
    },
    {
      "midi": 67,
      "hit": false,
      "t": 13398.432140625002,
      "d": 1805.5548333333336,
      "v": 48
    },
    {
      "midi": 72,
      "hit": false,
      "t": 13402.772416666667,
      "d": 664.0622343750001,
      "v": 96
    },
    {
      "midi": 72,
      "hit": false,
      "t": 13402.772416666667,
      "d": 2430.5545833333454,
      "v": 96
    },
    {
      "midi": 60,
      "hit": false,
      "t": 13407.112692708331,
      "d": 3020.832125000001,
      "v": 56
    },
    {
      "midi": 55,
      "hit": false,
      "t": 13407.112692708333,
      "d": 2430.5545833333454,
      "v": 96
    },
    {
      "midi": 64,
      "hit": false,
      "t": 13411.452968749998,
      "d": 3020.8321250000026,
      "v": 56
    },
    {
      "midi": 67,
      "hit": false,
      "t": 13411.452968749998,
      "d": 3020.8321250000026,
      "v": 56
    },
    {
      "midi": 64,
      "hit": false,
      "t": 13411.45296875,
      "d": 2426.214307291679,
      "v": 96
    },
    {
      "midi": 36,
      "hit": false,
      "t": 16085.063010416668,
      "d": 60.763864583334,
      "v": 96
    },
    {
      "midi": 31,
      "hit": false,
      "t": 16293.39626041667,
      "d": 134.54855729166593,
      "v": 96
    },
    {
      "midi": 28,
      "hit": false,
      "t": 16432.285093750004,
      "d": 43.40276041666584,
      "v": 96
    },
    {
      "midi": 28,
      "hit": false,
      "t": 16718.743312500003,
      "d": 781.2496874999997,
      "v": 96
    },
    {
      "midi": 40,
      "hit": false,
      "t": 16723.083588541667,
      "d": 65.10414062500058,
      "v": 96
    },
    {
      "midi": 56,
      "hit": false,
      "t": 16727.423864583336,
      "d": 60.76386458333218,
      "v": 127
    },
    {
      "midi": 64,
      "hit": false,
      "t": 16727.423864583336,
      "d": 668.4025104166685,
      "v": 94
    },
    {
      "midi": 68,
      "hit": false,
      "t": 16731.764140625004,
      "d": 664.0622343750001,
      "v": 96
    },
    {
      "midi": 59,
      "hit": false,
      "t": 16731.76414062501,
      "d": 3116.3181979166693,
      "v": 96
    },
    {
      "midi": 64,
      "hit": false,
      "t": 16731.76414062501,
      "d": 3116.3181979166693,
      "v": 96
    },
    {
      "midi": 68,
      "hit": false,
      "t": 16736.10441666668,
      "d": 3111.977921875001,
      "v": 96
    },
    {
      "midi": 62,
      "hit": false,
      "t": 16740.444692708337,
      "d": 659.7219583333354,
      "v": 85
    },
    {
      "midi": 71,
      "hit": false,
      "t": 16740.444692708337,
      "d": 659.7219583333354,
      "v": 97
    },
    {
      "midi": 62,
      "hit": false,
      "t": 16740.444692708348,
      "d": 3107.6376458333325,
      "v": 96
    },
    {
      "midi": 56,
      "hit": false,
      "t": 16914.055734375,
      "d": 47.743036458334245,
      "v": 60
    },
    {
      "midi": 56,
      "hit": false,
      "t": 17122.388984375,
      "d": 47.743036458334245,
      "v": 66
    },
    {
      "midi": 40,
      "hit": false,
      "t": 17330.722234375,
      "d": 65.10414062500058,
      "v": 96
    },
    {
      "midi": 56,
      "hit": false,
      "t": 17330.722234375,
      "d": 82.46524479166692,
      "v": 127
    },
    {
      "midi": 56,
      "hit": false,
      "t": 17539.055484375,
      "d": 30.38193229166791,
      "v": 63
    },
    {
      "midi": 64,
      "hit": false,
      "t": 17543.395760416668,
      "d": 1597.221583333332,
      "v": 43
    },
    {
      "midi": 76,
      "hit": false,
      "t": 17565.097140625003,
      "d": 1597.221583333332,
      "v": 45
    },
    {
      "midi": 56,
      "hit": false,
      "t": 17747.388734375,
      "d": 47.743036458334245,
      "v": 53
    },
    {
      "midi": 40,
      "hit": false,
      "t": 17960.062260416667,
      "d": 60.76386458333218,
      "v": 96
    },
    {
      "midi": 56,
      "hit": false,
      "t": 17960.062260416667,
      "d": 78.12496874999852,
      "v": 127
    },
    {
      "midi": 28,
      "hit": false,
      "t": 17960.062260416667,
      "d": 60.76386458333218,
      "v": 96
    },
    {
      "midi": 56,
      "hit": false,
      "t": 18164.055234375,
      "d": 13.020828125001572,
      "v": 30
    },
    {
      "midi": 59,
      "hit": false,
      "t": 18337.666276041673,
      "d": 690.1038906249996,
      "v": 96
    },
    {
      "midi": 64,
      "hit": false,
      "t": 18337.666276041673,
      "d": 690.1038906249996,
      "v": 96
    },
    {
      "midi": 28,
      "hit": false,
      "t": 18372.388484375,
      "d": 1471.3535781249993,
      "v": 96
    },
    {
      "midi": 56,
      "hit": false,
      "t": 18376.728760416667,
      "d": 43.40276041666584,
      "v": 44
    },
    {
      "midi": 74,
      "hit": false,
      "t": 18381.06903645834,
      "d": 681.4233385416665,
      "v": 96
    },
    {
      "midi": 80,
      "hit": false,
      "t": 18402.770416666674,
      "d": 694.4441666666644,
      "v": 96
    },
    {
      "midi": 40,
      "hit": false,
      "t": 18580.721734374998,
      "d": 65.10414062500058,
      "v": 96
    },
    {
      "midi": 56,
      "hit": false,
      "t": 18580.721734374998,
      "d": 82.46524479166692,
      "v": 127
    },
    {
      "midi": 56,
      "hit": false,
      "t": 18789.054984374998,
      "d": 47.743036458334245,
      "v": 53
    },
    {
      "midi": 56,
      "hit": false,
      "t": 18997.388234374997,
      "d": 47.743036458334245,
      "v": 44
    },
    {
      "midi": 40,
      "hit": false,
      "t": 19205.721484374997,
      "d": 82.46524479166692,
      "v": 96
    },
    {
      "midi": 56,
      "hit": false,
      "t": 19210.061760416665,
      "d": 95.48607291666485,
      "v": 127
    },
    {
      "midi": 56,
      "hit": false,
      "t": 19414.054734374997,
      "d": 65.10414062500058,
      "v": 43
    },
    {
      "midi": 52,
      "hit": false,
      "t": 19622.387984374996,
      "d": 47.743036458334245,
      "v": 81
    },
    {
      "midi": 52,
      "hit": false,
      "t": 19830.721234374996,
      "d": 13.020828125001572,
      "v": 35
    },
    {
      "midi": 60,
      "hit": false,
      "t": 19852.42261458335,
      "d": 43.40276041666584,
      "v": 96
    },
    {
      "midi": 64,
      "hit": false,
      "t": 19852.42261458335,
      "d": 43.40276041666584,
      "v": 96
    },
    {
      "midi": 67,
      "hit": false,
      "t": 19852.42261458335,
      "d": 47.743036458334245,
      "v": 96
    },
    {
      "midi": 60,
      "hit": false,
      "t": 19900.165651041683,
      "d": 65.10414062500058,
      "v": 96
    },
    {
      "midi": 64,
      "hit": false,
      "t": 19900.165651041683,
      "d": 65.10414062500058,
      "v": 96
    },
    {
      "midi": 67,
      "hit": false,
      "t": 19900.165651041683,
      "d": 69.44441666666899,
      "v": 96
    },
    {
      "midi": 60,
      "hit": false,
      "t": 19973.95034375002,
      "d": 3207.4639947916658,
      "v": 96
    },
    {
      "midi": 64,
      "hit": false,
      "t": 19973.95034375002,
      "d": 3207.4639947916658,
      "v": 96
    },
    {
      "midi": 67,
      "hit": false,
      "t": 19973.95034375002,
      "d": 3207.4639947916658,
      "v": 96
    },
    {
      "midi": 36,
      "hit": false,
      "t": 20047.73503645833,
      "d": 785.5899635416681,
      "v": 96
    },
    {
      "midi": 48,
      "hit": false,
      "t": 20052.075312499997,
      "d": 86.80552083333532,
      "v": 96
    },
    {
      "midi": 55,
      "hit": false,
      "t": 20056.415588541666,
      "d": 99.82634895833326,
      "v": 127
    },
    {
      "midi": 52,
      "hit": false,
      "t": 20056.415588541673,
      "d": 672.7427864583369,
      "v": 97
    },
    {
      "midi": 60,
      "hit": false,
      "t": 20056.415588541673,
      "d": 672.7427864583369,
      "v": 94
    },
    {
      "midi": 67,
      "hit": false,
      "t": 20056.415588541673,
      "d": 672.7427864583369,
      "v": 96
    },
    {
      "midi": 76,
      "hit": false,
      "t": 20060.75586458334,
      "d": 668.4025104166685,
      "v": 85
    },
    {
      "midi": 55,
      "hit": false,
      "t": 20243.04745833333,
      "d": 34.722208333332674,
      "v": 31
    },
    {
      "midi": 55,
      "hit": false,
      "t": 20455.720984374995,
      "d": 47.743036458334245,
      "v": 57
    },
    {
      "midi": 48,
      "hit": false,
      "t": 20664.054234374995,
      "d": 82.46524479166692,
      "v": 96
    },
    {
      "midi": 55,
      "hit": false,
      "t": 20664.054234374995,
      "d": 99.82634895833326,
      "v": 127
    },
    {
      "midi": 55,
      "hit": false,
      "t": 20872.387484374995,
      "d": 65.10414062500058,
      "v": 31
    },
    {
      "midi": 55,
      "hit": false,
      "t": 21080.720734374994,
      "d": 65.10414062500058,
      "v": 66
    },
    {
      "midi": 36,
      "hit": false,
      "t": 21289.053984374998,
      "d": 65.10414062500058,
      "v": 96
    },
    {
      "midi": 48,
      "hit": false,
      "t": 21293.394260416662,
      "d": 78.12496874999852,
      "v": 96
    },
    {
      "midi": 55,
      "hit": false,
      "t": 21293.394260416662,
      "d": 78.12496874999852,
      "v": 127
    },
    {
      "midi": 55,
      "hit": false,
      "t": 21493.04695833333,
      "d": 52.08331249999901,
      "v": 65
    },
    {
      "midi": 55,
      "hit": false,
      "t": 21705.720484374993,
      "d": 30.38193229166791,
      "v": 52
    },
    {
      "midi": 36,
      "hit": false,
      "t": 21705.720484374997,
      "d": 1471.353578125003,
      "v": 96
    },
    {
      "midi": 48,
      "hit": false,
      "t": 21914.053734374993,
      "d": 82.46524479166692,
      "v": 96
    },
    {
      "midi": 55,
      "hit": false,
      "t": 21914.053734374993,
      "d": 99.82634895833326,
      "v": 127
    },
    {
      "midi": 55,
      "hit": false,
      "t": 22122.386984374993,
      "d": 30.38193229166791,
      "v": 31
    },
    {
      "midi": 55,
      "hit": false,
      "t": 22330.720234374992,
      "d": 47.743036458334245,
      "v": 62
    },
    {
      "midi": 64,
      "hit": false,
      "t": 22335.060510416675,
      "d": 685.7636145833312,
      "v": 85
    },
    {
      "midi": 67,
      "hit": false,
      "t": 22513.011828125,
      "d": 807.2913437499992,
      "v": 44
    },
    {
      "midi": 79,
      "hit": false,
      "t": 22534.713208333334,
      "d": 807.2913437499992,
      "v": 46
    },
    {
      "midi": 48,
      "hit": false,
      "t": 22539.053484374992,
      "d": 99.82634895833326,
      "v": 96
    },
    {
      "midi": 55,
      "hit": false,
      "t": 22543.39376041666,
      "d": 95.48607291666485,
      "v": 127
    },
    {
      "midi": 55,
      "hit": false,
      "t": 22747.38673437499,
      "d": 30.38193229166791,
      "v": 69
    },
    {
      "midi": 67,
      "hit": false,
      "t": 22751.727010416675,
      "d": 429.6873281249973,
      "v": 85
    },
    {
      "midi": 52,
      "hit": false,
      "t": 22955.71998437499,
      "d": 65.10414062500058,
      "v": 93
    },
    {
      "midi": 52,
      "hit": false,
      "t": 23168.39351041666,
      "d": 8.680552083333168,
      "v": 34
    },
    {
      "midi": 59,
      "hit": false,
      "t": 23185.754614583355,
      "d": 3311.6306197916674,
      "v": 96
    },
    {
      "midi": 64,
      "hit": false,
      "t": 23185.754614583355,
      "d": 3315.970895833336,
      "v": 96
    },
    {
      "midi": 68,
      "hit": false,
      "t": 23185.754614583355,
      "d": 3315.970895833336,
      "v": 96
    },
    {
      "midi": 59,
      "hit": false,
      "t": 23372.386484374998,
      "d": 2599.825348958333,
      "v": 45
    },
    {
      "midi": 28,
      "hit": false,
      "t": 23381.067036458335,
      "d": 785.5899635416681,
      "v": 96
    },
    {
      "midi": 40,
      "hit": false,
      "t": 23385.407312499992,
      "d": 69.44441666666899,
      "v": 96
    },
    {
      "midi": 56,
      "hit": false,
      "t": 23389.74758854166,
      "d": 65.10414062500058,
      "v": 127
    },
    {
      "midi": 52,
      "hit": false,
      "t": 23389.747588541675,
      "d": 672.7427864583369,
      "v": 97
    },
    {
      "midi": 59,
      "hit": false,
      "t": 23389.747588541675,
      "d": 672.7427864583369,
      "v": 85
    },
    {
      "midi": 71,
      "hit": false,
      "t": 23394.087864583333,
      "d": 2599.825348958333,
      "v": 47
    },
    {
      "midi": 68,
      "hit": false,
      "t": 23394.087864583344,
      "d": 668.4025104166685,
      "v": 94
    },
    {
      "midi": 71,
      "hit": false,
      "t": 23394.087864583344,
      "d": 672.7427864583369,
      "v": 96
    },
    {
      "midi": 56,
      "hit": false,
      "t": 23576.37945833333,
      "d": 52.08331249999901,
      "v": 60
    },
    {
      "midi": 56,
      "hit": false,
      "t": 23784.71270833333,
      "d": 52.08331249999901,
      "v": 66
    },
    {
      "midi": 40,
      "hit": false,
      "t": 23997.386234374993,
      "d": 65.10414062500058,
      "v": 96
    },
    {
      "midi": 56,
      "hit": false,
      "t": 23997.386234374993,
      "d": 82.46524479166692,
      "v": 127
    },
    {
      "midi": 56,
      "hit": false,
      "t": 24205.719484374993,
      "d": 30.38193229166791,
      "v": 63
    },
    {
      "midi": 56,
      "hit": false,
      "t": 24414.052734374993,
      "d": 47.743036458334245,
      "v": 53
    },
    {
      "midi": 28,
      "hit": false,
      "t": 24622.385984375003,
      "d": 65.10414062500058,
      "v": 96
    },
    {
      "midi": 40,
      "hit": false,
      "t": 24626.72626041666,
      "d": 60.76386458333218,
      "v": 96
    },
    {
      "midi": 56,
      "hit": false,
      "t": 24626.72626041666,
      "d": 78.12496874999852,
      "v": 127
    },
    {
      "midi": 56,
      "hit": false,
      "t": 24826.378958333327,
      "d": 17.361104166666337,
      "v": 30
    },
    {
      "midi": 56,
      "hit": false,
      "t": 25039.052484374995,
      "d": 47.743036458334245,
      "v": 44
    },
    {
      "midi": 28,
      "hit": false,
      "t": 25039.052484375003,
      "d": 1458.3327500000014,
      "v": 96
    },
    {
      "midi": 40,
      "hit": false,
      "t": 25247.385734374995,
      "d": 65.10414062500058,
      "v": 96
    },
    {
      "midi": 56,
      "hit": false,
      "t": 25247.385734374995,
      "d": 82.46524479166692,
      "v": 127
    },
    {
      "midi": 56,
      "hit": false,
      "t": 25455.718984374995,
      "d": 47.743036458334245,
      "v": 53
    },
    {
      "midi": 56,
      "hit": false,
      "t": 25664.052234374994,
      "d": 47.743036458334245,
      "v": 44
    },
    {
      "midi": 40,
      "hit": false,
      "t": 25872.385484374994,
      "d": 82.46524479166692,
      "v": 96
    },
    {
      "midi": 56,
      "hit": false,
      "t": 25876.725760416663,
      "d": 95.48607291666485,
      "v": 127
    },
    {
      "midi": 56,
      "hit": false,
      "t": 26080.718734374994,
      "d": 65.10414062500058,
      "v": 43
    },
    {
      "midi": 52,
      "hit": false,
      "t": 26289.051984374993,
      "d": 117.18745312499959,
      "v": 87
    },
    {
      "midi": 59,
      "hit": false,
      "t": 26293.39226041668,
      "d": 203.99297395833491,
      "v": 85
    },
    {
      "midi": 60,
      "hit": false,
      "t": 26501.72551041669,
      "d": 43.40276041666948,
      "v": 96
    },
    {
      "midi": 64,
      "hit": false,
      "t": 26501.72551041669,
      "d": 43.40276041666948,
      "v": 96
    },
    {
      "midi": 67,
      "hit": false,
      "t": 26506.06578645836,
      "d": 43.40276041666948,
      "v": 96
    },
    {
      "midi": 52,
      "hit": false,
      "t": 26510.406062499995,
      "d": 4.340276041668403,
      "v": 38
    },
    {
      "midi": 55,
      "hit": false,
      "t": 26510.406062500017,
      "d": 34.722208333332674,
      "v": 85
    },
    {
      "midi": 60,
      "hit": false,
      "t": 26549.46854687503,
      "d": 13.020828125001572,
      "v": 96
    },
    {
      "midi": 64,
      "hit": false,
      "t": 26549.46854687503,
      "d": 13.020828125001572,
      "v": 96
    },
    {
      "midi": 67,
      "hit": false,
      "t": 26549.46854687503,
      "d": 13.020828125001572,
      "v": 96
    },
    {
      "midi": 60,
      "hit": false,
      "t": 26566.8296510417,
      "d": 3155.3806822916667,
      "v": 96
    },
    {
      "midi": 64,
      "hit": false,
      "t": 26571.169927083367,
      "d": 3151.0404062499983,
      "v": 96
    },
    {
      "midi": 67,
      "hit": false,
      "t": 26571.169927083367,
      "d": 3151.0404062499983,
      "v": 96
    },
    {
      "midi": 36,
      "hit": false,
      "t": 26714.399036458337,
      "d": 785.5899635416681,
      "v": 96
    },
    {
      "midi": 48,
      "hit": false,
      "t": 26718.739312499998,
      "d": 86.80552083333532,
      "v": 96
    },
    {
      "midi": 55,
      "hit": false,
      "t": 26723.079588541666,
      "d": 99.82634895833326,
      "v": 127
    },
    {
      "midi": 52,
      "hit": false,
      "t": 26723.079588541685,
      "d": 672.7427864583369,
      "v": 97
    },
    {
      "midi": 60,
      "hit": false,
      "t": 26723.079588541685,
      "d": 672.7427864583369,
      "v": 94
    },
    {
      "midi": 64,
      "hit": false,
      "t": 26727.419864583353,
      "d": 668.4025104166685,
      "v": 85
    },
    {
      "midi": 67,
      "hit": false,
      "t": 26727.419864583353,
      "d": 668.4025104166685,
      "v": 96
    },
    {
      "midi": 55,
      "hit": false,
      "t": 26909.71145833333,
      "d": 34.722208333332674,
      "v": 31
    },
    {
      "midi": 55,
      "hit": false,
      "t": 27118.04470833333,
      "d": 52.08331249999901,
      "v": 57
    },
    {
      "midi": 48,
      "hit": false,
      "t": 27330.718234374996,
      "d": 82.46524479166692,
      "v": 96
    },
    {
      "midi": 55,
      "hit": false,
      "t": 27330.718234374996,
      "d": 99.82634895833326,
      "v": 127
    },
    {
      "midi": 55,
      "hit": false,
      "t": 27539.051484374995,
      "d": 65.10414062500058,
      "v": 31
    },
    {
      "midi": 55,
      "hit": false,
      "t": 27747.384734374995,
      "d": 65.10414062500058,
      "v": 66
    },
    {
      "midi": 36,
      "hit": false,
      "t": 27955.717984375005,
      "d": 65.10414062500058,
      "v": 96
    },
    {
      "midi": 48,
      "hit": false,
      "t": 27960.058260416663,
      "d": 78.12496874999852,
      "v": 96
    },
    {
      "midi": 55,
      "hit": false,
      "t": 27960.058260416663,
      "d": 78.12496874999852,
      "v": 127
    },
    {
      "midi": 55,
      "hit": false,
      "t": 28159.71095833333,
      "d": 47.743036458334245,
      "v": 65
    },
    {
      "midi": 55,
      "hit": false,
      "t": 28372.384484374998,
      "d": 30.38193229166791,
      "v": 52
    },
    {
      "midi": 36,
      "hit": false,
      "t": 28372.384484375005,
      "d": 894.0968645833345,
      "v": 96
    },
    {
      "midi": 48,
      "hit": false,
      "t": 28580.717734374997,
      "d": 78.12496874999852,
      "v": 96
    },
    {
      "midi": 55,
      "hit": false,
      "t": 28580.717734374997,
      "d": 95.48607291666485,
      "v": 127
    },
    {
      "midi": 55,
      "hit": false,
      "t": 28789.050984374997,
      "d": 30.38193229166791,
      "v": 31
    },
    {
      "midi": 55,
      "hit": false,
      "t": 28997.384234374997,
      "d": 47.743036458334245,
      "v": 62
    },
    {
      "midi": 48,
      "hit": false,
      "t": 29205.717484374996,
      "d": 95.48607291666849,
      "v": 96
    },
    {
      "midi": 55,
      "hit": false,
      "t": 29210.057760416665,
      "d": 95.48607291666849,
      "v": 127
    },
    {
      "midi": 64,
      "hit": false,
      "t": 29240.439692708333,
      "d": 698.7844427083328,
      "v": 43
    },
    {
      "midi": 76,
      "hit": false,
      "t": 29262.141072916667,
      "d": 698.7844427083328,
      "v": 45
    },
    {
      "midi": 52,
      "hit": false,
      "t": 29414.050734375,
      "d": 134.54855729166593,
      "v": 92
    },
    {
      "midi": 36,
      "hit": false,
      "t": 29414.050734375007,
      "d": 8.680552083333168,
      "v": 96
    },
    {
      "midi": 52,
      "hit": false,
      "t": 29622.383984375,
      "d": 78.12496874999852,
      "v": 36
    },
    {
      "midi": 31,
      "hit": false,
      "t": 29622.383984375007,
      "d": 99.82634895833326,
      "v": 96
    },
    {
      "midi": 33,
      "hit": false,
      "t": 29726.55060937501,
      "d": 47.743036458334245,
      "v": 96
    },
    {
      "midi": 61,
      "hit": false,
      "t": 29730.8908854167,
      "d": 43.40276041666584,
      "v": 96
    },
    {
      "midi": 64,
      "hit": false,
      "t": 29730.8908854167,
      "d": 43.40276041666584,
      "v": 96
    },
    {
      "midi": 69,
      "hit": false,
      "t": 29730.8908854167,
      "d": 43.40276041666584,
      "v": 96
    },
    {
      "midi": 33,
      "hit": false,
      "t": 29778.63392187501,
      "d": 52.08331249999901,
      "v": 96
    },
    {
      "midi": 60,
      "hit": false,
      "t": 29778.633921875033,
      "d": 52.08331250000265,
      "v": 96
    },
    {
      "midi": 69,
      "hit": false,
      "t": 29778.633921875033,
      "d": 52.08331250000265,
      "v": 96
    },
    {
      "midi": 64,
      "hit": false,
      "t": 29782.9741979167,
      "d": 47.743036458334245,
      "v": 96
    },
    {
      "midi": 45,
      "hit": false,
      "t": 29835.057510416664,
      "d": 73.78469270833375,
      "v": 36
    },
    {
      "midi": 33,
      "hit": false,
      "t": 30047.731036458343,
      "d": 781.2496874999997,
      "v": 96
    },
    {
      "midi": 45,
      "hit": false,
      "t": 30052.071312499997,
      "d": 65.10414062500058,
      "v": 96
    },
    {
      "midi": 57,
      "hit": false,
      "t": 30056.411588541665,
      "d": 65.10414062500058,
      "v": 127
    },
    {
      "midi": 60,
      "hit": false,
      "t": 30056.411588541694,
      "d": 672.7427864583333,
      "v": 85
    },
    {
      "midi": 69,
      "hit": false,
      "t": 30056.411588541694,
      "d": 672.7427864583333,
      "v": 96
    },
    {
      "midi": 60,
      "hit": false,
      "t": 30060.75186458337,
      "d": 3064.2348854166703,
      "v": 96
    },
    {
      "midi": 69,
      "hit": false,
      "t": 30060.75186458337,
      "d": 3064.2348854166703,
      "v": 96
    },
    {
      "midi": 45,
      "hit": false,
      "t": 30065.092140625027,
      "d": 664.0622343750001,
      "v": 97
    },
    {
      "midi": 64,
      "hit": false,
      "t": 30065.092140625027,
      "d": 664.0622343750001,
      "v": 94
    },
    {
      "midi": 64,
      "hit": false,
      "t": 30069.432416666703,
      "d": 3055.554333333337,
      "v": 96
    },
    {
      "midi": 57,
      "hit": false,
      "t": 30243.043458333334,
      "d": 47.743036458334245,
      "v": 60
    },
    {
      "midi": 57,
      "hit": false,
      "t": 30451.376708333333,
      "d": 52.08331249999901,
      "v": 66
    },
    {
      "midi": 45,
      "hit": false,
      "t": 30664.050234374998,
      "d": 60.76386458333218,
      "v": 96
    },
    {
      "midi": 57,
      "hit": false,
      "t": 30664.050234374998,
      "d": 78.12496874999852,
      "v": 127
    },
    {
      "midi": 57,
      "hit": false,
      "t": 30872.383484374997,
      "d": 26.041656249999505,
      "v": 63
    },
    {
      "midi": 57,
      "hit": false,
      "t": 31076.37645833333,
      "d": 47.743036458334245,
      "v": 53
    },
    {
      "midi": 45,
      "hit": false,
      "t": 31289.049984374997,
      "d": 65.10414062500058,
      "v": 96
    },
    {
      "midi": 33,
      "hit": false,
      "t": 31289.049984375008,
      "d": 60.76386458333218,
      "v": 96
    },
    {
      "midi": 57,
      "hit": false,
      "t": 31293.390260416665,
      "d": 73.78469270833375,
      "v": 127
    },
    {
      "midi": 57,
      "hit": false,
      "t": 31493.04295833333,
      "d": 17.361104166666337,
      "v": 30
    },
    {
      "midi": 64,
      "hit": false,
      "t": 31666.654000000028,
      "d": 690.1038906250033,
      "v": 96
    },
    {
      "midi": 57,
      "hit": false,
      "t": 31705.716484375,
      "d": 43.40276041666584,
      "v": 44
    },
    {
      "midi": 33,
      "hit": false,
      "t": 31705.716484375007,
      "d": 1419.2702656249967,
      "v": 96
    },
    {
      "midi": 72,
      "hit": false,
      "t": 31705.71648437503,
      "d": 685.7636145833349,
      "v": 96
    },
    {
      "midi": 69,
      "hit": false,
      "t": 31710.056760416664,
      "d": 785.5899635416681,
      "v": 45
    },
    {
      "midi": 81,
      "hit": false,
      "t": 31731.758140625,
      "d": 785.5899635416681,
      "v": 47
    },
    {
      "midi": 81,
      "hit": false,
      "t": 31736.098416666697,
      "d": 690.1038906249996,
      "v": 96
    },
    {
      "midi": 45,
      "hit": false,
      "t": 31909.70945833333,
      "d": 65.10414062500058,
      "v": 96
    },
    {
      "midi": 57,
      "hit": false,
      "t": 31914.049734375,
      "d": 78.12496874999852,
      "v": 127
    },
    {
      "midi": 57,
      "hit": false,
      "t": 32118.04270833333,
      "d": 47.743036458334245,
      "v": 53
    },
    {
      "midi": 57,
      "hit": false,
      "t": 32326.37595833333,
      "d": 47.743036458334245,
      "v": 44
    },
    {
      "midi": 45,
      "hit": false,
      "t": 32539.049484375,
      "d": 78.12496874999852,
      "v": 96
    },
    {
      "midi": 57,
      "hit": false,
      "t": 32539.049484375,
      "d": 95.48607291666485,
      "v": 127
    },
    {
      "midi": 64,
      "hit": false,
      "t": 32547.73003645833,
      "d": 711.8052708333307,
      "v": 44
    },
    {
      "midi": 76,
      "hit": false,
      "t": 32569.431416666666,
      "d": 711.8052708333344,
      "v": 46
    },
    {
      "midi": 57,
      "hit": false,
      "t": 32743.04245833333,
      "d": 65.10414062500058,
      "v": 43
    },
    {
      "midi": 48,
      "hit": false,
      "t": 32955.715984375,
      "d": 43.40276041666948,
      "v": 81
    },
    {
      "midi": 62,
      "hit": false,
      "t": 33129.327026041705,
      "d": 47.743036458334245,
      "v": 96
    },
    {
      "midi": 66,
      "hit": false,
      "t": 33129.327026041705,
      "d": 47.743036458334245,
      "v": 96
    },
    {
      "midi": 69,
      "hit": false,
      "t": 33133.66730208337,
      "d": 43.40276041666948,
      "v": 96
    },
    {
      "midi": 54,
      "hit": false,
      "t": 33159.708958333336,
      "d": 17.361104166666337,
      "v": 35
    },
    {
      "midi": 62,
      "hit": false,
      "t": 33181.410338541704,
      "d": 3346.3528281249964,
      "v": 96
    },
    {
      "midi": 65,
      "hit": false,
      "t": 33181.410338541704,
      "d": 3346.3528281249964,
      "v": 96
    },
    {
      "midi": 69,
      "hit": false,
      "t": 33181.410338541704,
      "d": 3346.3528281249964,
      "v": 96
    },
    {
      "midi": 38,
      "hit": false,
      "t": 33381.063036458334,
      "d": 781.2496874999997,
      "v": 96
    },
    {
      "midi": 50,
      "hit": false,
      "t": 33385.403312500006,
      "d": 82.46524479166692,
      "v": 96
    },
    {
      "midi": 57,
      "hit": false,
      "t": 33385.403312500006,
      "d": 99.82634895833326,
      "v": 127
    },
    {
      "midi": 62,
      "hit": false,
      "t": 33385.40331250003,
      "d": 672.7427864583224,
      "v": 94
    },
    {
      "midi": 50,
      "hit": false,
      "t": 33389.74358854169,
      "d": 672.7427864583224,
      "v": 97
    },
    {
      "midi": 69,
      "hit": false,
      "t": 33389.74358854169,
      "d": 672.7427864583224,
      "v": 96
    },
    {
      "midi": 77,
      "hit": false,
      "t": 33394.08386458336,
      "d": 668.4025104166576,
      "v": 85
    },
    {
      "midi": 62,
      "hit": false,
      "t": 33398.42414062499,
      "d": 1332.464744791665,
      "v": 44
    },
    {
      "midi": 74,
      "hit": false,
      "t": 33420.12552083333,
      "d": 1332.464744791665,
      "v": 46
    },
    {
      "midi": 57,
      "hit": false,
      "t": 33576.375458333336,
      "d": 30.38193229166791,
      "v": 31
    },
    {
      "midi": 57,
      "hit": false,
      "t": 33784.70870833334,
      "d": 47.743036458334245,
      "v": 57
    },
    {
      "midi": 50,
      "hit": false,
      "t": 33997.38223437501,
      "d": 78.12496875000215,
      "v": 96
    },
    {
      "midi": 57,
      "hit": false,
      "t": 33997.38223437501,
      "d": 95.48607291666849,
      "v": 127
    },
    {
      "midi": 57,
      "hit": false,
      "t": 34205.71548437501,
      "d": 60.76386458333582,
      "v": 31
    },
    {
      "midi": 57,
      "hit": false,
      "t": 34409.70845833335,
      "d": 65.10414062500058,
      "v": 66
    },
    {
      "midi": 38,
      "hit": false,
      "t": 34622.381984375,
      "d": 60.76386458333582,
      "v": 96
    },
    {
      "midi": 50,
      "hit": false,
      "t": 34622.38198437502,
      "d": 78.12496875000215,
      "v": 96
    },
    {
      "midi": 57,
      "hit": false,
      "t": 34622.38198437502,
      "d": 78.12496875000215,
      "v": 127
    },
    {
      "midi": 57,
      "hit": false,
      "t": 34826.374958333356,
      "d": 47.743036458334245,
      "v": 65
    },
    {
      "midi": 38,
      "hit": false,
      "t": 35034.70820833334,
      "d": 1488.7146822916693,
      "v": 96
    },
    {
      "midi": 57,
      "hit": false,
      "t": 35039.048484375024,
      "d": 26.041656250003143,
      "v": 52
    },
    {
      "midi": 50,
      "hit": false,
      "t": 35243.04145833336,
      "d": 82.46524479166692,
      "v": 96
    },
    {
      "midi": 57,
      "hit": false,
      "t": 35243.04145833336,
      "d": 104.16662499999802,
      "v": 127
    },
    {
      "midi": 57,
      "hit": false,
      "t": 35451.37470833336,
      "d": 30.38193229166791,
      "v": 31
    },
    {
      "midi": 57,
      "hit": false,
      "t": 35659.70795833336,
      "d": 47.743036458334245,
      "v": 62
    },
    {
      "midi": 65,
      "hit": false,
      "t": 35664.04823437501,
      "d": 685.7636145833312,
      "v": 85
    },
    {
      "midi": 50,
      "hit": false,
      "t": 35868.041208333365,
      "d": 99.82634895833326,
      "v": 96
    },
    {
      "midi": 57,
      "hit": false,
      "t": 35872.38148437503,
      "d": 95.48607291666849,
      "v": 127
    },
    {
      "midi": 69,
      "hit": false,
      "t": 36080.71473437501,
      "d": 447.04843229166,
      "v": 85
    },
    {
      "midi": 57,
      "hit": false,
      "t": 36080.71473437503,
      "d": 26.041656250003143,
      "v": 69
    },
    {
      "midi": 53,
      "hit": false,
      "t": 36289.047984375036,
      "d": 60.76386458333582,
      "v": 93
    },
    {
      "midi": 53,
      "hit": false,
      "t": 36497.38123437504,
      "d": 8.680552083336806,
      "v": 34
    },
    {
      "midi": 62,
      "hit": false,
      "t": 36532.103442708365,
      "d": 13.020828125001572,
      "v": 96
    },
    {
      "midi": 67,
      "hit": false,
      "t": 36532.103442708365,
      "d": 13.020828125001572,
      "v": 96
    },
    {
      "midi": 71,
      "hit": false,
      "t": 36536.44371875003,
      "d": 8.680552083336806,
      "v": 96
    },
    {
      "midi": 62,
      "hit": false,
      "t": 36549.46454687503,
      "d": 26.041656250003143,
      "v": 96
    },
    {
      "midi": 67,
      "hit": false,
      "t": 36549.46454687503,
      "d": 30.38193229166791,
      "v": 96
    },
    {
      "midi": 71,
      "hit": false,
      "t": 36549.46454687503,
      "d": 30.38193229166791,
      "v": 96
    },
    {
      "midi": 62,
      "hit": false,
      "t": 36584.186755208364,
      "d": 3246.526479166663,
      "v": 96
    },
    {
      "midi": 65,
      "hit": false,
      "t": 36584.186755208364,
      "d": 3246.526479166663,
      "v": 96
    },
    {
      "midi": 67,
      "hit": false,
      "t": 36584.186755208364,
      "d": 3246.526479166663,
      "v": 96
    },
    {
      "midi": 71,
      "hit": false,
      "t": 36584.186755208364,
      "d": 3246.526479166663,
      "v": 96
    },
    {
      "midi": 31,
      "hit": false,
      "t": 36714.395036458336,
      "d": 781.2496874999997,
      "v": 96
    },
    {
      "midi": 71,
      "hit": false,
      "t": 36718.73531250001,
      "d": 672.7427864583224,
      "v": 94
    },
    {
      "midi": 43,
      "hit": false,
      "t": 36718.735312500045,
      "d": 65.10414062500058,
      "v": 96
    },
    {
      "midi": 59,
      "hit": false,
      "t": 36718.735312500045,
      "d": 65.10414062500058,
      "v": 127
    },
    {
      "midi": 74,
      "hit": false,
      "t": 36723.07558854167,
      "d": 672.7427864583224,
      "v": 96
    },
    {
      "midi": 55,
      "hit": false,
      "t": 36727.41586458332,
      "d": 1536.4577187500036,
      "v": 47
    },
    {
      "midi": 62,
      "hit": false,
      "t": 36727.41586458334,
      "d": 668.4025104166576,
      "v": 97
    },
    {
      "midi": 65,
      "hit": false,
      "t": 36727.41586458334,
      "d": 668.4025104166576,
      "v": 97
    },
    {
      "midi": 67,
      "hit": false,
      "t": 36727.41586458334,
      "d": 668.4025104166576,
      "v": 85
    },
    {
      "midi": 67,
      "hit": false,
      "t": 36749.11724479166,
      "d": 1536.4577187500036,
      "v": 49
    },
    {
      "midi": 59,
      "hit": false,
      "t": 36909.70745833338,
      "d": 47.743036458334245,
      "v": 60
    },
    {
      "midi": 59,
      "hit": false,
      "t": 37118.040708333385,
      "d": 47.743036458334245,
      "v": 66
    },
    {
      "midi": 43,
      "hit": false,
      "t": 37326.37395833339,
      "d": 65.10414062500058,
      "v": 96
    },
    {
      "midi": 59,
      "hit": false,
      "t": 37330.71423437505,
      "d": 78.12496875000215,
      "v": 127
    },
    {
      "midi": 59,
      "hit": false,
      "t": 37534.70720833339,
      "d": 30.38193229166791,
      "v": 63
    },
    {
      "midi": 59,
      "hit": false,
      "t": 37743.040458333395,
      "d": 47.743036458334245,
      "v": 53
    },
    {
      "midi": 43,
      "hit": false,
      "t": 37955.71398437506,
      "d": 60.76386458333582,
      "v": 96
    },
    {
      "midi": 59,
      "hit": false,
      "t": 37955.71398437506,
      "d": 78.12496875000215,
      "v": 127
    },
    {
      "midi": 29,
      "hit": false,
      "t": 37960.05426041667,
      "d": 56.423588541663776,
      "v": 96
    },
    {
      "midi": 59,
      "hit": false,
      "t": 38159.7069583334,
      "d": 13.020828125001572,
      "v": 30
    },
    {
      "midi": 62,
      "hit": false,
      "t": 38363.69993229166,
      "d": 1276.0411562500012,
      "v": 47
    },
    {
      "midi": 31,
      "hit": false,
      "t": 38368.04020833333,
      "d": 1458.3327500000014,
      "v": 96
    },
    {
      "midi": 59,
      "hit": false,
      "t": 38372.38048437507,
      "d": 43.40276041666948,
      "v": 44
    },
    {
      "midi": 74,
      "hit": false,
      "t": 38385.4013125,
      "d": 1276.0411562500012,
      "v": 49
    },
    {
      "midi": 43,
      "hit": false,
      "t": 38576.37345833341,
      "d": 65.10414062500058,
      "v": 96
    },
    {
      "midi": 59,
      "hit": false,
      "t": 38576.37345833341,
      "d": 82.46524479166692,
      "v": 127
    },
    {
      "midi": 59,
      "hit": false,
      "t": 38784.70670833341,
      "d": 47.743036458334245,
      "v": 53
    },
    {
      "midi": 59,
      "hit": false,
      "t": 38993.039958333415,
      "d": 47.743036458334245,
      "v": 44
    },
    {
      "midi": 43,
      "hit": false,
      "t": 39201.37320833342,
      "d": 82.46524479166692,
      "v": 96
    },
    {
      "midi": 59,
      "hit": false,
      "t": 39205.71348437508,
      "d": 95.48607291666849,
      "v": 127
    },
    {
      "midi": 59,
      "hit": false,
      "t": 39409.70645833342,
      "d": 65.10414062500058,
      "v": 43
    },
    {
      "midi": 55,
      "hit": false,
      "t": 39622.37998437509,
      "d": 112.84717708333483,
      "v": 87
    },
    {
      "midi": 67,
      "hit": false,
      "t": 39626.72026041666,
      "d": 199.6526979166665,
      "v": 85
    },
    {
      "midi": 59,
      "hit": false,
      "t": 39835.05351041669,
      "d": 26.041656250003143,
      "v": 96
    },
    {
      "midi": 64,
      "hit": false,
      "t": 39835.05351041669,
      "d": 26.041656250003143,
      "v": 96
    },
    {
      "midi": 67,
      "hit": false,
      "t": 39835.05351041669,
      "d": 26.041656250003143,
      "v": 96
    },
    {
      "midi": 55,
      "hit": false,
      "t": 39839.39378645833,
      "d": 17.361104166673613,
      "v": 85
    },
    {
      "midi": 43,
      "hit": false,
      "t": 39843.734062500094,
      "d": 4.340276041664765,
      "v": 38
    },
    {
      "midi": 60,
      "hit": false,
      "t": 39861.095166666695,
      "d": 3298.609791666662,
      "v": 96
    },
    {
      "midi": 64,
      "hit": false,
      "t": 39865.43544270836,
      "d": 3294.2695156249974,
      "v": 96
    },
    {
      "midi": 67,
      "hit": false,
      "t": 39865.43544270836,
      "d": 3294.2695156249974,
      "v": 96
    },
    {
      "midi": 36,
      "hit": false,
      "t": 40047.72703645833,
      "d": 781.2496874999997,
      "v": 96
    },
    {
      "midi": 48,
      "hit": false,
      "t": 40047.727036458426,
      "d": 86.80552083333168,
      "v": 96
    },
    {
      "midi": 52,
      "hit": false,
      "t": 40052.0673125,
      "d": 672.7427864583296,
      "v": 97
    },
    {
      "midi": 55,
      "hit": false,
      "t": 40052.06731250009,
      "d": 99.82634895833326,
      "v": 127
    },
    {
      "midi": 64,
      "hit": false,
      "t": 40056.40758854166,
      "d": 1102.4301145833306,
      "v": 46
    },
    {
      "midi": 60,
      "hit": false,
      "t": 40056.40758854167,
      "d": 668.4025104166649,
      "v": 94
    },
    {
      "midi": 64,
      "hit": false,
      "t": 40056.40758854167,
      "d": 668.4025104166649,
      "v": 85
    },
    {
      "midi": 67,
      "hit": false,
      "t": 40056.40758854167,
      "d": 672.7427864583296,
      "v": 96
    },
    {
      "midi": 76,
      "hit": false,
      "t": 40078.10896875,
      "d": 1102.4301145833306,
      "v": 48
    },
    {
      "midi": 55,
      "hit": false,
      "t": 40243.03945833342,
      "d": 30.38193229166791,
      "v": 31
    },
    {
      "midi": 55,
      "hit": false,
      "t": 40451.37270833342,
      "d": 47.743036458334245,
      "v": 57
    },
    {
      "midi": 48,
      "hit": false,
      "t": 40659.70595833343,
      "d": 82.46524479166692,
      "v": 96
    },
    {
      "midi": 55,
      "hit": false,
      "t": 40664.04623437509,
      "d": 95.48607291666849,
      "v": 127
    },
    {
      "midi": 55,
      "hit": false,
      "t": 40868.03920833343,
      "d": 65.10414062500058,
      "v": 31
    },
    {
      "midi": 55,
      "hit": false,
      "t": 41076.37245833343,
      "d": 65.10414062500058,
      "v": 66
    },
    {
      "midi": 36,
      "hit": false,
      "t": 41289.045984375,
      "d": 60.76386458333582,
      "v": 96
    },
    {
      "midi": 48,
      "hit": false,
      "t": 41289.0459843751,
      "d": 78.12496875000215,
      "v": 96
    },
    {
      "midi": 55,
      "hit": false,
      "t": 41289.0459843751,
      "d": 78.12496875000215,
      "v": 127
    },
    {
      "midi": 55,
      "hit": false,
      "t": 41493.03895833344,
      "d": 47.743036458334245,
      "v": 65
    },
    {
      "midi": 36,
      "hit": false,
      "t": 41701.372208333334,
      "d": 898.4371406249993,
      "v": 96
    },
    {
      "midi": 55,
      "hit": false,
      "t": 41705.71248437511,
      "d": 26.041656250003143,
      "v": 52
    },
    {
      "midi": 48,
      "hit": false,
      "t": 41909.70545833345,
      "d": 82.46524479166692,
      "v": 96
    },
    {
      "midi": 55,
      "hit": false,
      "t": 41909.70545833345,
      "d": 99.82634895833326,
      "v": 127
    },
    {
      "midi": 55,
      "hit": false,
      "t": 42118.03870833345,
      "d": 30.38193229166791,
      "v": 31
    },
    {
      "midi": 55,
      "hit": false,
      "t": 42326.37195833345,
      "d": 47.743036458334245,
      "v": 62
    },
    {
      "midi": 48,
      "hit": false,
      "t": 42534.70520833346,
      "d": 99.82634895833326,
      "v": 96
    },
    {
      "midi": 55,
      "hit": false,
      "t": 42539.04548437512,
      "d": 95.48607291666849,
      "v": 127
    },
    {
      "midi": 36,
      "hit": false,
      "t": 42747.378734375,
      "d": 8.680552083336806,
      "v": 96
    },
    {
      "midi": 52,
      "hit": false,
      "t": 42747.378734375125,
      "d": 130.20828125000116,
      "v": 92
    },
    {
      "midi": 31,
      "hit": false,
      "t": 42951.37170833334,
      "d": 208.33325000000332,
      "v": 96
    },
    {
      "midi": 52,
      "hit": false,
      "t": 42955.71198437513,
      "d": 78.12496875000215,
      "v": 36
    },
    {
      "midi": 40,
      "hit": false,
      "t": 43168.385510416796,
      "d": 73.78469270833011,
      "v": 36
    },
    {
      "midi": 28,
      "hit": false,
      "t": 43376.718760416676,
      "d": 785.5899635416645,
      "v": 96
    },
    {
      "midi": 64,
      "hit": false,
      "t": 43385.3993125,
      "d": 672.7427864583296,
      "v": 94
    },
    {
      "midi": 40,
      "hit": false,
      "t": 43385.39931250013,
      "d": 65.10414062500058,
      "v": 96
    },
    {
      "midi": 56,
      "hit": false,
      "t": 43385.39931250013,
      "d": 65.10414062500058,
      "v": 127
    },
    {
      "midi": 68,
      "hit": false,
      "t": 43389.73958854166,
      "d": 668.4025104166649,
      "v": 96
    },
    {
      "midi": 59,
      "hit": false,
      "t": 43389.73958854169,
      "d": 3168.4015104166683,
      "v": 96
    },
    {
      "midi": 64,
      "hit": false,
      "t": 43394.07986458336,
      "d": 3164.0612343750036,
      "v": 96
    },
    {
      "midi": 68,
      "hit": false,
      "t": 43394.07986458336,
      "d": 3168.4015104166683,
      "v": 96
    },
    {
      "midi": 62,
      "hit": false,
      "t": 43398.420140625,
      "d": 659.7219583333281,
      "v": 85
    },
    {
      "midi": 71,
      "hit": false,
      "t": 43398.420140625,
      "d": 664.0622343749928,
      "v": 97
    },
    {
      "midi": 62,
      "hit": false,
      "t": 43402.76041666669,
      "d": 3159.7209583333315,
      "v": 96
    },
    {
      "midi": 56,
      "hit": false,
      "t": 43572.031182291794,
      "d": 52.08331249999901,
      "v": 60
    },
    {
      "midi": 52,
      "hit": false,
      "t": 43780.36443229166,
      "d": 1215.2772916666654,
      "v": 47
    },
    {
      "midi": 56,
      "hit": false,
      "t": 43784.70470833346,
      "d": 47.743036458334245,
      "v": 66
    },
    {
      "midi": 64,
      "hit": false,
      "t": 43802.0658125,
      "d": 1215.2772916666654,
      "v": 49
    },
    {
      "midi": 40,
      "hit": false,
      "t": 43993.037958333465,
      "d": 65.10414062500058,
      "v": 96
    },
    {
      "midi": 56,
      "hit": false,
      "t": 43993.037958333465,
      "d": 82.46524479166692,
      "v": 127
    },
    {
      "midi": 56,
      "hit": false,
      "t": 44201.37120833347,
      "d": 30.38193229166791,
      "v": 63
    },
    {
      "midi": 56,
      "hit": false,
      "t": 44409.70445833347,
      "d": 47.743036458334245,
      "v": 53
    },
    {
      "midi": 28,
      "hit": false,
      "t": 44618.03770833334,
      "d": 65.10414062500058,
      "v": 96
    },
    {
      "midi": 40,
      "hit": false,
      "t": 44622.37798437514,
      "d": 60.76386458333582,
      "v": 96
    },
    {
      "midi": 56,
      "hit": false,
      "t": 44622.37798437514,
      "d": 78.12496875000215,
      "v": 127
    },
    {
      "midi": 56,
      "hit": false,
      "t": 44822.03068229181,
      "d": 17.361104166666337,
      "v": 30
    },
    {
      "midi": 64,
      "hit": false,
      "t": 44995.641723958324,
      "d": 694.444166666668,
      "v": 96
    },
    {
      "midi": 59,
      "hit": false,
      "t": 44999.98199999999,
      "d": 690.1038906250033,
      "v": 96
    },
    {
      "midi": 28,
      "hit": false,
      "t": 45034.704208333336,
      "d": 1523.436890625002,
      "v": 96
    },
    {
      "midi": 56,
      "hit": false,
      "t": 45034.704208333475,
      "d": 47.743036458334245,
      "v": 44
    },
    {
      "midi": 74,
      "hit": false,
      "t": 45039.04448437499,
      "d": 685.7636145833385,
      "v": 96
    },
    {
      "midi": 59,
      "hit": false,
      "t": 45047.72503645832,
      "d": 1111.1106666666674,
      "v": 47
    },
    {
      "midi": 80,
      "hit": false,
      "t": 45065.08614062499,
      "d": 694.444166666668,
      "v": 96
    },
    {
      "midi": 71,
      "hit": false,
      "t": 45069.42641666666,
      "d": 1111.1106666666674,
      "v": 49
    },
    {
      "midi": 40,
      "hit": false,
      "t": 45243.03745833348,
      "d": 65.10414062500058,
      "v": 96
    },
    {
      "midi": 56,
      "hit": false,
      "t": 45243.03745833348,
      "d": 82.46524479166692,
      "v": 127
    },
    {
      "midi": 56,
      "hit": false,
      "t": 45451.37070833348,
      "d": 47.743036458334245,
      "v": 53
    },
    {
      "midi": 56,
      "hit": false,
      "t": 45659.703958333484,
      "d": 47.743036458334245,
      "v": 44
    },
    {
      "midi": 40,
      "hit": false,
      "t": 45868.03720833349,
      "d": 82.46524479166692,
      "v": 96
    },
    {
      "midi": 56,
      "hit": false,
      "t": 45872.37748437515,
      "d": 95.48607291666849,
      "v": 127
    },
    {
      "midi": 56,
      "hit": false,
      "t": 46076.37045833349,
      "d": 65.10414062500058,
      "v": 43
    },
    {
      "midi": 52,
      "hit": false,
      "t": 46219.59956770833,
      "d": 325.5207031250029,
      "v": 46
    },
    {
      "midi": 64,
      "hit": false,
      "t": 46241.300947916665,
      "d": 325.5207031250029,
      "v": 48
    },
    {
      "midi": 52,
      "hit": false,
      "t": 46284.703708333494,
      "d": 47.743036458334245,
      "v": 81
    },
    {
      "midi": 52,
      "hit": false,
      "t": 46493.0369583335,
      "d": 13.020828125001572,
      "v": 35
    },
    {
      "midi": 60,
      "hit": false,
      "t": 46562.481375000025,
      "d": 65.10414062500058,
      "v": 96
    },
    {
      "midi": 69,
      "hit": false,
      "t": 46562.481375000025,
      "d": 65.10414062500058,
      "v": 96
    },
    {
      "midi": 64,
      "hit": false,
      "t": 46566.82165104169,
      "d": 60.76386458333582,
      "v": 96
    },
    {
      "midi": 60,
      "hit": false,
      "t": 46631.92579166669,
      "d": 3276.908411458331,
      "v": 96
    },
    {
      "midi": 64,
      "hit": false,
      "t": 46631.92579166669,
      "d": 3276.908411458331,
      "v": 96
    },
    {
      "midi": 69,
      "hit": false,
      "t": 46631.92579166669,
      "d": 3276.908411458331,
      "v": 96
    },
    {
      "midi": 33,
      "hit": false,
      "t": 46710.05076041667,
      "d": 785.5899635416645,
      "v": 96
    },
    {
      "midi": 45,
      "hit": false,
      "t": 46714.3910364585,
      "d": 86.80552083333168,
      "v": 96
    },
    {
      "midi": 57,
      "hit": false,
      "t": 46714.3910364585,
      "d": 104.16662499999802,
      "v": 127
    },
    {
      "midi": 60,
      "hit": false,
      "t": 46718.73131249999,
      "d": 672.7427864583296,
      "v": 94
    },
    {
      "midi": 69,
      "hit": false,
      "t": 46718.73131249999,
      "d": 672.7427864583296,
      "v": 96
    },
    {
      "midi": 57,
      "hit": false,
      "t": 46718.73131249999,
      "d": 2369.7907187500023,
      "v": 46
    },
    {
      "midi": 45,
      "hit": false,
      "t": 46723.07158854166,
      "d": 668.4025104166649,
      "v": 97
    },
    {
      "midi": 76,
      "hit": false,
      "t": 46723.07158854166,
      "d": 668.4025104166649,
      "v": 85
    },
    {
      "midi": 69,
      "hit": false,
      "t": 46740.43269270833,
      "d": 2369.7907187500023,
      "v": 48
    },
    {
      "midi": 57,
      "hit": false,
      "t": 46905.36318229183,
      "d": 34.722208333332674,
      "v": 31
    },
    {
      "midi": 57,
      "hit": false,
      "t": 47113.69643229183,
      "d": 52.08331249999901,
      "v": 57
    },
    {
      "midi": 45,
      "hit": false,
      "t": 47326.3699583335,
      "d": 82.46524479166692,
      "v": 96
    },
    {
      "midi": 57,
      "hit": false,
      "t": 47326.3699583335,
      "d": 99.82634895833326,
      "v": 127
    },
    {
      "midi": 57,
      "hit": false,
      "t": 47534.7032083335,
      "d": 65.10414062500058,
      "v": 31
    },
    {
      "midi": 57,
      "hit": false,
      "t": 47743.0364583335,
      "d": 65.10414062500058,
      "v": 66
    },
    {
      "midi": 33,
      "hit": false,
      "t": 47951.36970833333,
      "d": 65.10414062500058,
      "v": 96
    },
    {
      "midi": 45,
      "hit": false,
      "t": 47955.70998437517,
      "d": 78.12496875000215,
      "v": 96
    },
    {
      "midi": 57,
      "hit": false,
      "t": 47955.70998437517,
      "d": 78.12496875000215,
      "v": 127
    },
    {
      "midi": 57,
      "hit": false,
      "t": 48155.36268229184,
      "d": 52.08331249999901,
      "v": 65
    },
    {
      "midi": 33,
      "hit": false,
      "t": 48368.03620833333,
      "d": 1523.436890625002,
      "v": 96
    },
    {
      "midi": 57,
      "hit": false,
      "t": 48368.036208333506,
      "d": 30.38193229166791,
      "v": 52
    },
    {
      "midi": 45,
      "hit": false,
      "t": 48572.02918229184,
      "d": 86.80552083333168,
      "v": 96
    },
    {
      "midi": 57,
      "hit": false,
      "t": 48576.3694583335,
      "d": 99.82634895833326,
      "v": 127
    },
    {
      "midi": 57,
      "hit": false,
      "t": 48784.702708333505,
      "d": 30.38193229166791,
      "v": 31
    },
    {
      "midi": 57,
      "hit": false,
      "t": 48993.03595833351,
      "d": 47.743036458334245,
      "v": 62
    },
    {
      "midi": 64,
      "hit": false,
      "t": 48997.37623437499,
      "d": 685.7636145833312,
      "v": 85
    },
    {
      "midi": 45,
      "hit": false,
      "t": 49201.36920833351,
      "d": 99.82634895833326,
      "v": 96
    },
    {
      "midi": 57,
      "hit": false,
      "t": 49201.36920833351,
      "d": 99.82634895833326,
      "v": 127
    },
    {
      "midi": 69,
      "hit": false,
      "t": 49409.702458333326,
      "d": 481.77064062499994,
      "v": 85
    },
    {
      "midi": 57,
      "hit": false,
      "t": 49409.702458333515,
      "d": 30.38193229166791,
      "v": 69
    },
    {
      "midi": 48,
      "hit": false,
      "t": 49622.37598437518,
      "d": 60.76386458333582,
      "v": 93
    },
    {
      "midi": 48,
      "hit": false,
      "t": 49826.36895833352,
      "d": 13.020828125001572,
      "v": 34
    },
    {
      "midi": 62,
      "hit": false,
      "t": 49913.174479166686,
      "d": 3263.887583333337,
      "v": 96
    },
    {
      "midi": 65,
      "hit": false,
      "t": 49913.174479166686,
      "d": 3263.887583333337,
      "v": 96
    },
    {
      "midi": 69,
      "hit": false,
      "t": 49913.174479166686,
      "d": 3263.887583333337,
      "v": 96
    },
    {
      "midi": 62,
      "hit": false,
      "t": 50021.68138020833,
      "d": 1345.4855729166666,
      "v": 46
    },
    {
      "midi": 38,
      "hit": false,
      "t": 50043.382760416665,
      "d": 781.2496874999997,
      "v": 96
    },
    {
      "midi": 74,
      "hit": false,
      "t": 50043.382760416665,
      "d": 1345.4855729166666,
      "v": 48
    },
    {
      "midi": 50,
      "hit": false,
      "t": 50047.72303645853,
      "d": 69.44441666666535,
      "v": 96
    },
    {
      "midi": 57,
      "hit": false,
      "t": 50047.72303645853,
      "d": 69.44441666666535,
      "v": 127
    },
    {
      "midi": 69,
      "hit": false,
      "t": 50052.063312499995,
      "d": 672.7427864583296,
      "v": 94
    },
    {
      "midi": 74,
      "hit": false,
      "t": 50052.063312499995,
      "d": 672.7427864583296,
      "v": 96
    },
    {
      "midi": 50,
      "hit": false,
      "t": 50056.40358854166,
      "d": 668.4025104166649,
      "v": 97
    },
    {
      "midi": 65,
      "hit": false,
      "t": 50056.40358854166,
      "d": 668.4025104166649,
      "v": 85
    },
    {
      "midi": 57,
      "hit": false,
      "t": 50238.695182291856,
      "d": 47.743036458334245,
      "v": 60
    },
    {
      "midi": 57,
      "hit": false,
      "t": 50447.02843229186,
      "d": 52.08331249999901,
      "v": 66
    },
    {
      "midi": 50,
      "hit": false,
      "t": 50659.70195833353,
      "d": 65.10414062500058,
      "v": 96
    },
    {
      "midi": 57,
      "hit": false,
      "t": 50659.70195833353,
      "d": 82.46524479166692,
      "v": 127
    },
    {
      "midi": 57,
      "hit": false,
      "t": 50868.03520833353,
      "d": 26.041656250003143,
      "v": 63
    },
    {
      "midi": 57,
      "hit": false,
      "t": 51076.368458333534,
      "d": 43.40276041666948,
      "v": 53
    },
    {
      "midi": 38,
      "hit": false,
      "t": 51284.701708333334,
      "d": 60.76386458333582,
      "v": 96
    },
    {
      "midi": 50,
      "hit": false,
      "t": 51289.0419843752,
      "d": 60.76386458333582,
      "v": 96
    },
    {
      "midi": 57,
      "hit": false,
      "t": 51289.0419843752,
      "d": 73.78469270833739,
      "v": 127
    },
    {
      "midi": 57,
      "hit": false,
      "t": 51488.694682291876,
      "d": 17.361104166666337,
      "v": 30
    },
    {
      "midi": 65,
      "hit": false,
      "t": 51679.666828124995,
      "d": 1093.749562500001,
      "v": 45
    },
    {
      "midi": 38,
      "hit": false,
      "t": 51701.36820833333,
      "d": 1471.353578125003,
      "v": 96
    },
    {
      "midi": 77,
      "hit": false,
      "t": 51701.36820833333,
      "d": 1093.749562500001,
      "v": 47
    },
    {
      "midi": 57,
      "hit": false,
      "t": 51701.368208333544,
      "d": 43.40276041666948,
      "v": 44
    },
    {
      "midi": 50,
      "hit": false,
      "t": 51905.36118229188,
      "d": 65.10414062500058,
      "v": 96
    },
    {
      "midi": 57,
      "hit": false,
      "t": 51909.70145833355,
      "d": 78.12496875000215,
      "v": 127
    },
    {
      "midi": 57,
      "hit": false,
      "t": 52118.03470833355,
      "d": 43.40276041666948,
      "v": 53
    },
    {
      "midi": 57,
      "hit": false,
      "t": 52322.02768229189,
      "d": 47.743036458334245,
      "v": 44
    },
    {
      "midi": 50,
      "hit": false,
      "t": 52534.70120833356,
      "d": 78.12496875000215,
      "v": 96
    },
    {
      "midi": 57,
      "hit": false,
      "t": 52534.70120833356,
      "d": 95.48607291666849,
      "v": 127
    },
    {
      "midi": 57,
      "hit": false,
      "t": 52743.03445833356,
      "d": 60.76386458333582,
      "v": 43
    },
    {
      "midi": 62,
      "hit": false,
      "t": 52951.367708333324,
      "d": 221.3540781250049,
      "v": 85
    },
    {
      "midi": 53,
      "hit": false,
      "t": 52955.70798437523,
      "d": 108.50690104167006,
      "v": 87
    },
    {
      "midi": 57,
      "hit": false,
      "t": 53159.70095833333,
      "d": 13.020828125001572,
      "v": 85
    },
    {
      "midi": 53,
      "hit": false,
      "t": 53159.70095833357,
      "d": 13.020828125001572,
      "v": 38
    },
    {
      "midi": 62,
      "hit": false,
      "t": 53177.06206250002,
      "d": 47.743036458334245,
      "v": 96
    },
    {
      "midi": 66,
      "hit": false,
      "t": 53181.40233854169,
      "d": 43.40276041666948,
      "v": 96
    },
    {
      "midi": 71,
      "hit": false,
      "t": 53181.40233854169,
      "d": 43.40276041666948,
      "v": 96
    },
    {
      "midi": 62,
      "hit": false,
      "t": 53229.14537500002,
      "d": 3311.630619791664,
      "v": 96
    },
    {
      "midi": 67,
      "hit": false,
      "t": 53229.14537500002,
      "d": 3311.630619791664,
      "v": 96
    },
    {
      "midi": 71,
      "hit": false,
      "t": 53229.14537500002,
      "d": 3311.630619791664,
      "v": 96
    },
    {
      "midi": 31,
      "hit": false,
      "t": 53376.71476041667,
      "d": 781.2496874999997,
      "v": 96
    },
    {
      "midi": 43,
      "hit": false,
      "t": 53381.05503645857,
      "d": 82.46524479166692,
      "v": 96
    },
    {
      "midi": 59,
      "hit": false,
      "t": 53381.05503645857,
      "d": 99.82634895833326,
      "v": 127
    },
    {
      "midi": 55,
      "hit": false,
      "t": 53385.39531249999,
      "d": 668.4025104166576,
      "v": 97
    },
    {
      "midi": 62,
      "hit": false,
      "t": 53385.39531249999,
      "d": 672.7427864583224,
      "v": 94
    },
    {
      "midi": 67,
      "hit": false,
      "t": 53385.39531249999,
      "d": 672.7427864583224,
      "v": 85
    },
    {
      "midi": 71,
      "hit": false,
      "t": 53389.735588541655,
      "d": 668.4025104166576,
      "v": 96
    },
    {
      "midi": 59,
      "hit": false,
      "t": 53424.457796874995,
      "d": 1319.4439166666634,
      "v": 46
    },
    {
      "midi": 71,
      "hit": false,
      "t": 53446.15917708333,
      "d": 1319.4439166666634,
      "v": 48
    },
    {
      "midi": 59,
      "hit": false,
      "t": 53572.0271822919,
      "d": 30.38193229166791,
      "v": 31
    },
    {
      "midi": 59,
      "hit": false,
      "t": 53780.360432291905,
      "d": 52.08331249999901,
      "v": 57
    },
    {
      "midi": 43,
      "hit": false,
      "t": 53993.03395833357,
      "d": 78.12496875000215,
      "v": 96
    },
    {
      "midi": 59,
      "hit": false,
      "t": 53993.03395833357,
      "d": 95.48607291666849,
      "v": 127
    },
    {
      "midi": 59,
      "hit": false,
      "t": 54201.36720833358,
      "d": 60.76386458333582,
      "v": 31
    },
    {
      "midi": 59,
      "hit": false,
      "t": 54405.360182291915,
      "d": 65.10414062500058,
      "v": 66
    },
    {
      "midi": 31,
      "hit": false,
      "t": 54618.033708333336,
      "d": 60.76386458333582,
      "v": 96
    },
    {
      "midi": 43,
      "hit": false,
      "t": 54618.03370833358,
      "d": 78.12496874999488,
      "v": 96
    },
    {
      "midi": 59,
      "hit": false,
      "t": 54622.37398437525,
      "d": 73.78469270833011,
      "v": 127
    },
    {
      "midi": 59,
      "hit": false,
      "t": 54822.026682291915,
      "d": 47.743036458334245,
      "v": 65
    },
    {
      "midi": 31,
      "hit": false,
      "t": 55030.35993229167,
      "d": 898.4371406249993,
      "v": 96
    },
    {
      "midi": 59,
      "hit": false,
      "t": 55034.70020833358,
      "d": 26.041656250003143,
      "v": 52
    },
    {
      "midi": 55,
      "hit": false,
      "t": 55073.762692708326,
      "d": 946.1801770833335,
      "v": 47
    },
    {
      "midi": 67,
      "hit": false,
      "t": 55095.464072916664,
      "d": 946.1801770833335,
      "v": 49
    },
    {
      "midi": 43,
      "hit": false,
      "t": 55238.69318229192,
      "d": 82.46524479166692,
      "v": 96
    },
    {
      "midi": 59,
      "hit": false,
      "t": 55243.033458333586,
      "d": 95.48607291666849,
      "v": 127
    },
    {
      "midi": 59,
      "hit": false,
      "t": 55447.026432291925,
      "d": 30.38193229166791,
      "v": 31
    },
    {
      "midi": 59,
      "hit": false,
      "t": 55655.35968229193,
      "d": 47.743036458334245,
      "v": 62
    },
    {
      "midi": 43,
      "hit": false,
      "t": 55868.033208333596,
      "d": 95.48607291666121,
      "v": 96
    },
    {
      "midi": 59,
      "hit": false,
      "t": 55872.37348437526,
      "d": 91.14579687499645,
      "v": 127
    },
    {
      "midi": 31,
      "hit": false,
      "t": 56076.36645833334,
      "d": 8.680552083336806,
      "v": 96
    },
    {
      "midi": 55,
      "hit": false,
      "t": 56076.36645833359,
      "d": 130.20828125000116,
      "v": 92
    },
    {
      "midi": 38,
      "hit": false,
      "t": 56284.69970833334,
      "d": 256.0762864583303,
      "v": 96
    },
    {
      "midi": 55,
      "hit": false,
      "t": 56284.699708333595,
      "d": 78.12496875000215,
      "v": 36
    },
    {
      "midi": 43,
      "hit": false,
      "t": 56488.692682291934,
      "d": 52.08331249999901,
      "v": 36
    },
    {
      "midi": 60,
      "hit": false,
      "t": 56710.04676041666,
      "d": 2165.7977447916637,
      "v": 46
    },
    {
      "midi": 36,
      "hit": false,
      "t": 56710.04676041667,
      "d": 781.2496874999997,
      "v": 96
    },
    {
      "midi": 48,
      "hit": false,
      "t": 56714.3870364586,
      "d": 65.10414062500058,
      "v": 96
    },
    {
      "midi": 55,
      "hit": false,
      "t": 56714.3870364586,
      "d": 65.10414062500058,
      "v": 127
    },
    {
      "midi": 52,
      "hit": false,
      "t": 56718.72731249997,
      "d": 668.4025104166649,
      "v": 97
    },
    {
      "midi": 60,
      "hit": false,
      "t": 56718.72731249997,
      "d": 672.7427864583296,
      "v": 85
    },
    {
      "midi": 64,
      "hit": false,
      "t": 56718.72731249997,
      "d": 672.7427864583296,
      "v": 94
    },
    {
      "midi": 67,
      "hit": false,
      "t": 56723.067588541635,
      "d": 668.4025104166649,
      "v": 96
    },
    {
      "midi": 60,
      "hit": false,
      "t": 56723.067588541686,
      "d": 6623.261239583335,
      "v": 96
    },
    {
      "midi": 64,
      "hit": false,
      "t": 56723.067588541686,
      "d": 6623.261239583335,
      "v": 96
    },
    {
      "midi": 67,
      "hit": false,
      "t": 56727.40786458335,
      "d": 6618.92096354167,
      "v": 96
    },
    {
      "midi": 72,
      "hit": false,
      "t": 56731.748140625,
      "d": 2165.7977447916637,
      "v": 48
    },
    {
      "midi": 55,
      "hit": false,
      "t": 56905.35918229193,
      "d": 47.743036458334245,
      "v": 60
    },
    {
      "midi": 55,
      "hit": false,
      "t": 57113.69243229194,
      "d": 47.743036458334245,
      "v": 66
    },
    {
      "midi": 48,
      "hit": false,
      "t": 57322.02568229194,
      "d": 65.10414062500058,
      "v": 96
    },
    {
      "midi": 55,
      "hit": false,
      "t": 57326.365958333605,
      "d": 78.12496875000215,
      "v": 127
    },
    {
      "midi": 55,
      "hit": false,
      "t": 57534.69920833361,
      "d": 26.041656250003143,
      "v": 63
    },
    {
      "midi": 55,
      "hit": false,
      "t": 57738.69218229195,
      "d": 47.743036458334245,
      "v": 53
    },
    {
      "midi": 36,
      "hit": false,
      "t": 57951.36570833334,
      "d": 60.76386458333582,
      "v": 96
    },
    {
      "midi": 48,
      "hit": false,
      "t": 57951.365708333615,
      "d": 60.76386458333582,
      "v": 96
    },
    {
      "midi": 55,
      "hit": false,
      "t": 57951.365708333615,
      "d": 78.12496875000215,
      "v": 127
    },
    {
      "midi": 55,
      "hit": false,
      "t": 58155.35868229195,
      "d": 13.020828125001572,
      "v": 30
    },
    {
      "midi": 64,
      "hit": false,
      "t": 58328.9697239583,
      "d": 690.103890624996,
      "v": 96
    },
    {
      "midi": 36,
      "hit": false,
      "t": 58363.69193229167,
      "d": 1523.436890625002,
      "v": 96
    },
    {
      "midi": 72,
      "hit": false,
      "t": 58368.032208333294,
      "d": 685.7636145833312,
      "v": 96
    },
    {
      "midi": 55,
      "hit": false,
      "t": 58368.03220833362,
      "d": 43.40276041666948,
      "v": 44
    },
    {
      "midi": 79,
      "hit": false,
      "t": 58398.41414062496,
      "d": 690.103890624996,
      "v": 96
    },
    {
      "midi": 48,
      "hit": false,
      "t": 58572.02518229196,
      "d": 65.10414062500058,
      "v": 96
    },
    {
      "midi": 55,
      "hit": false,
      "t": 58572.02518229196,
      "d": 82.46524479166692,
      "v": 127
    },
    {
      "midi": 55,
      "hit": false,
      "t": 58780.35843229196,
      "d": 47.743036458334245,
      "v": 53
    },
    {
      "midi": 55,
      "hit": false,
      "t": 58988.69168229197,
      "d": 47.743036458334245,
      "v": 44
    },
    {
      "midi": 67,
      "hit": false,
      "t": 59157.96244791666,
      "d": 789.9302395833365,
      "v": 46
    },
    {
      "midi": 79,
      "hit": false,
      "t": 59179.663828125,
      "d": 789.9302395833365,
      "v": 48
    },
    {
      "midi": 48,
      "hit": false,
      "t": 59197.02493229197,
      "d": 82.46524479166692,
      "v": 96
    },
    {
      "midi": 55,
      "hit": false,
      "t": 59201.365208333635,
      "d": 95.48607291666849,
      "v": 127
    },
    {
      "midi": 55,
      "hit": false,
      "t": 59405.35818229197,
      "d": 65.10414062500058,
      "v": 43
    },
    {
      "midi": 52,
      "hit": false,
      "t": 59613.69143229198,
      "d": 47.743036458334245,
      "v": 81
    },
    {
      "midi": 52,
      "hit": false,
      "t": 59822.02468229198,
      "d": 13.020828125001572,
      "v": 35
    },
    {
      "midi": 64,
      "hit": false,
      "t": 60017.33710416666,
      "d": 1532.1174427083315,
      "v": 44
    },
    {
      "midi": 76,
      "hit": false,
      "t": 60039.038484375,
      "d": 1532.1174427083315,
      "v": 46
    },
    {
      "midi": 36,
      "hit": false,
      "t": 60039.03848437501,
      "d": 785.5899635416645,
      "v": 96
    },
    {
      "midi": 48,
      "hit": false,
      "t": 60043.378760416985,
      "d": 86.80552083333168,
      "v": 96
    },
    {
      "midi": 52,
      "hit": false,
      "t": 60047.71903645829,
      "d": 672.7427864583296,
      "v": 97
    },
    {
      "midi": 60,
      "hit": false,
      "t": 60047.71903645829,
      "d": 672.7427864583296,
      "v": 94
    },
    {
      "midi": 55,
      "hit": false,
      "t": 60047.71903645865,
      "d": 99.82634895833326,
      "v": 127
    },
    {
      "midi": 67,
      "hit": false,
      "t": 60052.05931249996,
      "d": 668.4025104166649,
      "v": 96
    },
    {
      "midi": 76,
      "hit": false,
      "t": 60052.05931249996,
      "d": 672.7427864583296,
      "v": 85
    },
    {
      "midi": 55,
      "hit": false,
      "t": 60238.69118229198,
      "d": 30.38193229166791,
      "v": 31
    },
    {
      "midi": 55,
      "hit": false,
      "t": 60447.02443229198,
      "d": 47.743036458334245,
      "v": 57
    },
    {
      "midi": 48,
      "hit": false,
      "t": 60655.357682291986,
      "d": 82.46524479166692,
      "v": 96
    },
    {
      "midi": 55,
      "hit": false,
      "t": 60655.357682291986,
      "d": 99.82634895833326,
      "v": 127
    },
    {
      "midi": 55,
      "hit": false,
      "t": 60863.69093229199,
      "d": 65.10414062500058,
      "v": 31
    },
    {
      "midi": 55,
      "hit": false,
      "t": 61072.02418229199,
      "d": 65.10414062500058,
      "v": 66
    },
    {
      "midi": 36,
      "hit": false,
      "t": 61280.35743229167,
      "d": 65.10414062500058,
      "v": 96
    },
    {
      "midi": 48,
      "hit": false,
      "t": 61284.69770833366,
      "d": 78.12496875000215,
      "v": 96
    },
    {
      "midi": 55,
      "hit": false,
      "t": 61284.69770833366,
      "d": 78.12496875000215,
      "v": 127
    },
    {
      "midi": 55,
      "hit": false,
      "t": 61488.690682292,
      "d": 47.743036458334245,
      "v": 65
    },
    {
      "midi": 36,
      "hit": false,
      "t": 61697.02393229167,
      "d": 1523.436890625002,
      "v": 96
    },
    {
      "midi": 55,
      "hit": false,
      "t": 61701.36420833367,
      "d": 26.041656250003143,
      "v": 52
    },
    {
      "midi": 48,
      "hit": false,
      "t": 61905.357182292006,
      "d": 82.46524479166692,
      "v": 96
    },
    {
      "midi": 55,
      "hit": false,
      "t": 61905.357182292006,
      "d": 99.82634895833326,
      "v": 127
    },
    {
      "midi": 55,
      "hit": false,
      "t": 62113.69043229201,
      "d": 30.38193229166791,
      "v": 31
    },
    {
      "midi": 55,
      "hit": false,
      "t": 62322.02368229201,
      "d": 47.743036458334245,
      "v": 62
    },
    {
      "midi": 64,
      "hit": false,
      "t": 62326.363958333284,
      "d": 685.7636145833312,
      "v": 85
    },
    {
      "midi": 55,
      "hit": false,
      "t": 62521.67638020833,
      "d": 928.8190729166672,
      "v": 45
    },
    {
      "midi": 48,
      "hit": false,
      "t": 62530.356932292016,
      "d": 99.82634895833326,
      "v": 96
    },
    {
      "midi": 55,
      "hit": false,
      "t": 62534.69720833368,
      "d": 95.48607291666849,
      "v": 127
    },
    {
      "midi": 67,
      "hit": false,
      "t": 62543.37776041667,
      "d": 928.8190729166672,
      "v": 47
    },
    {
      "midi": 55,
      "hit": false,
      "t": 62738.69018229202,
      "d": 30.38193229166791,
      "v": 69
    },
    {
      "midi": 67,
      "hit": false,
      "t": 62743.03045833328,
      "d": 477.4303645833352,
      "v": 85
    },
    {
      "midi": 52,
      "hit": false,
      "t": 62947.02343229202,
      "d": 65.10414062500058,
      "v": 93
    },
    {
      "midi": 52,
      "hit": false,
      "t": 63155.356682292026,
      "d": 13.020828125001572,
      "v": 34
    },
    {
      "midi": 60,
      "hit": false,
      "t": 63333.308,
      "d": 2452.255963541662,
      "v": 45
    },
    {
      "midi": 72,
      "hit": false,
      "t": 63355.009380208336,
      "d": 2452.255963541662,
      "v": 47
    },
    {
      "midi": 52,
      "hit": false,
      "t": 63376.710760416616,
      "d": 677.0830624999944,
      "v": 97
    },
    {
      "midi": 60,
      "hit": false,
      "t": 63376.710760416616,
      "d": 677.0830624999944,
      "v": 85
    },
    {
      "midi": 64,
      "hit": false,
      "t": 63376.710760416616,
      "d": 677.0830624999944,
      "v": 94
    },
    {
      "midi": 67,
      "hit": false,
      "t": 63381.05103645828,
      "d": 677.0830624999944,
      "v": 96
    },
    {
      "midi": 72,
      "hit": false,
      "t": 63389.73158854161,
      "d": 668.4025104166649,
      "v": 96
    },
    {
      "midi": 36,
      "hit": false,
      "t": 63389.73158854167,
      "d": 2434.894859375003,
      "v": 96
    },
    {
      "midi": 55,
      "hit": false,
      "t": 63389.731588542025,
      "d": 2960.068260416665,
      "v": 56
    },
    {
      "midi": 72,
      "hit": false,
      "t": 63394.071864583355,
      "d": 2430.5545833333017,
      "v": 96
    },
    {
      "midi": 55,
      "hit": false,
      "t": 63398.41214062502,
      "d": 2426.214307291637,
      "v": 96
    },
    {
      "midi": 60,
      "hit": false,
      "t": 63398.41214062536,
      "d": 2951.387708333328,
      "v": 56
    },
    {
      "midi": 67,
      "hit": false,
      "t": 63398.41214062536,
      "d": 2951.387708333328,
      "v": 56
    },
    {
      "midi": 64,
      "hit": false,
      "t": 63402.752416666684,
      "d": 2421.874031249972,
      "v": 96
    },
    {
      "midi": 64,
      "hit": false,
      "t": 63402.75241666703,
      "d": 2947.0474322916634,
      "v": 56
    },
    {
      "midi": 36,
      "hit": false,
      "t": 66072.02218229166,
      "d": 65.10414062500058,
      "v": 96
    },
    {
      "midi": 31,
      "hit": false,
      "t": 66284.69570833333,
      "d": 60.76386458333582,
      "v": 96
    },
    {
      "midi": 28,
      "hit": false,
      "t": 66354.14012499999,
      "d": 8.68055208332953,
      "v": 96
    },
    {
      "midi": 28,
      "hit": false,
      "t": 66367.16095312499,
      "d": 290.79849479167024,
      "v": 96
    },
    {
      "midi": 59,
      "hit": false,
      "t": 66684.00110416666,
      "d": 2573.783692708341,
      "v": 46
    },
    {
      "midi": 71,
      "hit": false,
      "t": 66705.702484375,
      "d": 2573.783692708341,
      "v": 48
    },
    {
      "midi": 28,
      "hit": false,
      "t": 66710.04276041666,
      "d": 781.249687500007,
      "v": 96
    },
    {
      "midi": 40,
      "hit": false,
      "t": 66714.38303645869,
      "d": 65.10414062500058,
      "v": 96
    },
    {
      "midi": 56,
      "hit": false,
      "t": 66714.38303645869,
      "d": 65.10414062500058,
      "v": 127
    },
    {
      "midi": 64,
      "hit": false,
      "t": 66718.72331249995,
      "d": 668.4025104166649,
      "v": 94
    },
    {
      "midi": 68,
      "hit": false,
      "t": 66718.72331249995,
      "d": 668.4025104166649,
      "v": 96
    },
    {
      "midi": 59,
      "hit": false,
      "t": 66723.06358854166,
      "d": 3111.97792187499,
      "v": 96
    },
    {
      "midi": 64,
      "hit": false,
      "t": 66723.06358854166,
      "d": 3111.97792187499,
      "v": 96
    },
    {
      "midi": 68,
      "hit": false,
      "t": 66723.06358854166,
      "d": 3116.3181979166548,
      "v": 96
    },
    {
      "midi": 62,
      "hit": false,
      "t": 66727.40386458328,
      "d": 659.7219583333354,
      "v": 85
    },
    {
      "midi": 71,
      "hit": false,
      "t": 66731.74414062494,
      "d": 659.7219583333354,
      "v": 97
    },
    {
      "midi": 62,
      "hit": false,
      "t": 66731.74414062499,
      "d": 3107.637645833325,
      "v": 96
    },
    {
      "midi": 56,
      "hit": false,
      "t": 66901.01490625036,
      "d": 52.083312500006286,
      "v": 60
    },
    {
      "midi": 56,
      "hit": false,
      "t": 67109.34815625037,
      "d": 52.083312500006286,
      "v": 66
    },
    {
      "midi": 40,
      "hit": false,
      "t": 67322.02168229205,
      "d": 65.10414062500058,
      "v": 96
    },
    {
      "midi": 56,
      "hit": false,
      "t": 67322.02168229205,
      "d": 82.4652447916742,
      "v": 127
    },
    {
      "midi": 56,
      "hit": false,
      "t": 67530.35493229206,
      "d": 30.38193229166791,
      "v": 63
    },
    {
      "midi": 56,
      "hit": false,
      "t": 67738.68818229205,
      "d": 47.74303645832697,
      "v": 53
    },
    {
      "midi": 28,
      "hit": false,
      "t": 67947.02143229167,
      "d": 65.10414062500058,
      "v": 96
    },
    {
      "midi": 40,
      "hit": false,
      "t": 67951.36170833372,
      "d": 60.76386458333582,
      "v": 96
    },
    {
      "midi": 56,
      "hit": false,
      "t": 67951.36170833372,
      "d": 78.12496875000943,
      "v": 127
    },
    {
      "midi": 56,
      "hit": false,
      "t": 68151.0144062504,
      "d": 17.361104166673613,
      "v": 30
    },
    {
      "midi": 64,
      "hit": false,
      "t": 68324.62544791661,
      "d": 694.444166666668,
      "v": 96
    },
    {
      "midi": 59,
      "hit": false,
      "t": 68328.96572395827,
      "d": 690.1038906250033,
      "v": 96
    },
    {
      "midi": 28,
      "hit": false,
      "t": 68363.68793229168,
      "d": 1471.3535781249957,
      "v": 96
    },
    {
      "midi": 56,
      "hit": false,
      "t": 68363.68793229207,
      "d": 47.74303645832697,
      "v": 44
    },
    {
      "midi": 74,
      "hit": false,
      "t": 68368.02820833327,
      "d": 685.7636145833385,
      "v": 96
    },
    {
      "midi": 80,
      "hit": false,
      "t": 68394.06986458327,
      "d": 694.444166666668,
      "v": 96
    },
    {
      "midi": 40,
      "hit": false,
      "t": 68572.02118229207,
      "d": 65.10414062500058,
      "v": 96
    },
    {
      "midi": 56,
      "hit": false,
      "t": 68572.02118229207,
      "d": 82.4652447916742,
      "v": 127
    },
    {
      "midi": 56,
      "hit": false,
      "t": 68780.35443229208,
      "d": 47.74303645832697,
      "v": 53
    },
    {
      "midi": 56,
      "hit": false,
      "t": 68988.68768229207,
      "d": 47.74303645832697,
      "v": 44
    },
    {
      "midi": 40,
      "hit": false,
      "t": 69197.02093229207,
      "d": 82.46524479165964,
      "v": 96
    },
    {
      "midi": 56,
      "hit": false,
      "t": 69197.02093229207,
      "d": 99.82634895833326,
      "v": 127
    },
    {
      "midi": 56,
      "hit": false,
      "t": 69405.35418229207,
      "d": 65.10414062500058,
      "v": 43
    },
    {
      "midi": 52,
      "hit": false,
      "t": 69613.68743229206,
      "d": 47.74303645832697,
      "v": 81
    },
    {
      "midi": 52,
      "hit": false,
      "t": 69822.02068229206,
      "d": 13.020828124994296,
      "v": 35
    },
    {
      "midi": 60,
      "hit": false,
      "t": 69843.72206249998,
      "d": 26.041656250003143,
      "v": 96
    },
    {
      "midi": 64,
      "hit": false,
      "t": 69843.72206249998,
      "d": 26.041656250003143,
      "v": 96
    },
    {
      "midi": 67,
      "hit": false,
      "t": 69843.72206249998,
      "d": 26.041656250003143,
      "v": 96
    },
    {
      "midi": 60,
      "hit": false,
      "t": 69874.10399479164,
      "d": 47.74303645832697,
      "v": 96
    },
    {
      "midi": 64,
      "hit": false,
      "t": 69874.10399479164,
      "d": 47.74303645832697,
      "v": 96
    },
    {
      "midi": 67,
      "hit": false,
      "t": 69874.10399479164,
      "d": 47.74303645832697,
      "v": 96
    },
    {
      "midi": 60,
      "hit": false,
      "t": 69926.18730729164,
      "d": 3276.9084114583384,
      "v": 96
    },
    {
      "midi": 64,
      "hit": false,
      "t": 69926.18730729164,
      "d": 3276.9084114583384,
      "v": 96
    },
    {
      "midi": 67,
      "hit": false,
      "t": 69926.18730729164,
      "d": 3281.248687500003,
      "v": 96
    },
    {
      "midi": 36,
      "hit": false,
      "t": 70039.034484375,
      "d": 785.5899635416718,
      "v": 96
    },
    {
      "midi": 48,
      "hit": false,
      "t": 70043.37476041705,
      "d": 86.80552083333896,
      "v": 96
    },
    {
      "midi": 55,
      "hit": false,
      "t": 70043.37476041705,
      "d": 99.82634895833326,
      "v": 127
    },
    {
      "midi": 52,
      "hit": false,
      "t": 70047.71503645829,
      "d": 672.7427864583296,
      "v": 97
    },
    {
      "midi": 60,
      "hit": false,
      "t": 70047.71503645829,
      "d": 672.7427864583296,
      "v": 94
    },
    {
      "midi": 67,
      "hit": false,
      "t": 70047.71503645829,
      "d": 672.7427864583296,
      "v": 96
    },
    {
      "midi": 76,
      "hit": false,
      "t": 70047.71503645829,
      "d": 672.7427864583296,
      "v": 85
    },
    {
      "midi": 64,
      "hit": false,
      "t": 70121.49972916667,
      "d": 1046.006526041674,
      "v": 44
    },
    {
      "midi": 76,
      "hit": false,
      "t": 70143.201109375,
      "d": 1046.006526041674,
      "v": 46
    },
    {
      "midi": 55,
      "hit": false,
      "t": 70234.34690625039,
      "d": 30.38193229166791,
      "v": 31
    },
    {
      "midi": 55,
      "hit": false,
      "t": 70442.68015625038,
      "d": 52.083312500006286,
      "v": 57
    },
    {
      "midi": 48,
      "hit": false,
      "t": 70655.35368229206,
      "d": 82.46524479165964,
      "v": 96
    },
    {
      "midi": 55,
      "hit": false,
      "t": 70655.35368229206,
      "d": 95.48607291665394,
      "v": 127
    },
    {
      "midi": 55,
      "hit": false,
      "t": 70863.68693229204,
      "d": 65.10414062500058,
      "v": 31
    },
    {
      "midi": 55,
      "hit": false,
      "t": 71072.02018229204,
      "d": 65.10414062500058,
      "v": 66
    },
    {
      "midi": 36,
      "hit": false,
      "t": 71280.35343229168,
      "d": 60.76386458333582,
      "v": 96
    },
    {
      "midi": 48,
      "hit": false,
      "t": 71280.35343229203,
      "d": 78.12496874999488,
      "v": 96
    },
    {
      "midi": 55,
      "hit": false,
      "t": 71284.6937083337,
      "d": 78.12496874999488,
      "v": 127
    },
    {
      "midi": 65,
      "hit": false,
      "t": 71293.37426041668,
      "d": 169.2707656249986,
      "v": 44
    },
    {
      "midi": 77,
      "hit": false,
      "t": 71315.07564062501,
      "d": 169.2707656249986,
      "v": 46
    },
    {
      "midi": 55,
      "hit": false,
      "t": 71484.34640625036,
      "d": 47.74303645832697,
      "v": 65
    },
    {
      "midi": 53,
      "hit": false,
      "t": 71506.04778645834,
      "d": 13.020828124994296,
      "v": 44
    },
    {
      "midi": 67,
      "hit": false,
      "t": 71519.06861458333,
      "d": 182.2915937499929,
      "v": 44
    },
    {
      "midi": 65,
      "hit": false,
      "t": 71527.74916666668,
      "d": 13.020828124994296,
      "v": 46
    },
    {
      "midi": 79,
      "hit": false,
      "t": 71540.76999479167,
      "d": 182.2915937499929,
      "v": 46
    },
    {
      "midi": 36,
      "hit": false,
      "t": 71697.01993229169,
      "d": 1506.0757864583284,
      "v": 96
    },
    {
      "midi": 55,
      "hit": false,
      "t": 71697.01993229202,
      "d": 30.38193229166791,
      "v": 52
    },
    {
      "midi": 55,
      "hit": false,
      "t": 71753.44352083333,
      "d": 1249.9995000000054,
      "v": 46
    },
    {
      "midi": 67,
      "hit": false,
      "t": 71775.14490104167,
      "d": 1249.9995000000054,
      "v": 48
    },
    {
      "midi": 48,
      "hit": false,
      "t": 71901.01290625035,
      "d": 82.46524479165964,
      "v": 96
    },
    {
      "midi": 55,
      "hit": false,
      "t": 71905.35318229202,
      "d": 95.48607291666849,
      "v": 127
    },
    {
      "midi": 55,
      "hit": false,
      "t": 72109.34615625035,
      "d": 30.38193229166791,
      "v": 31
    },
    {
      "midi": 64,
      "hit": false,
      "t": 72322.01968229162,
      "d": 690.1038906250033,
      "v": 85
    },
    {
      "midi": 55,
      "hit": false,
      "t": 72322.01968229201,
      "d": 47.74303645832697,
      "v": 62
    },
    {
      "midi": 48,
      "hit": false,
      "t": 72530.35293229201,
      "d": 95.48607291666849,
      "v": 96
    },
    {
      "midi": 55,
      "hit": false,
      "t": 72530.35293229201,
      "d": 99.82634895833326,
      "v": 127
    },
    {
      "midi": 67,
      "hit": false,
      "t": 72738.68618229163,
      "d": 464.4095364583336,
      "v": 85
    },
    {
      "midi": 55,
      "hit": false,
      "t": 72738.686182292,
      "d": 26.041656250003143,
      "v": 69
    },
    {
      "midi": 52,
      "hit": false,
      "t": 72947.019432292,
      "d": 65.10414062500058,
      "v": 93
    },
    {
      "midi": 52,
      "hit": false,
      "t": 73155.352682292,
      "d": 13.020828124994296,
      "v": 34
    },
    {
      "midi": 59,
      "hit": false,
      "t": 73211.7762708333,
      "d": 26.041656250003143,
      "v": 96
    },
    {
      "midi": 64,
      "hit": false,
      "t": 73211.7762708333,
      "d": 26.041656250003143,
      "v": 96
    },
    {
      "midi": 68,
      "hit": false,
      "t": 73211.7762708333,
      "d": 26.041656250003143,
      "v": 96
    },
    {
      "midi": 59,
      "hit": false,
      "t": 73237.8179270833,
      "d": 17.36110416665906,
      "v": 96
    },
    {
      "midi": 64,
      "hit": false,
      "t": 73242.15820312497,
      "d": 13.020828124994296,
      "v": 96
    },
    {
      "midi": 68,
      "hit": false,
      "t": 73242.15820312497,
      "d": 13.020828124994296,
      "v": 96
    },
    {
      "midi": 59,
      "hit": false,
      "t": 73259.51930729163,
      "d": 3328.99172395833,
      "v": 96
    },
    {
      "midi": 62,
      "hit": false,
      "t": 73259.51930729163,
      "d": 3328.99172395833,
      "v": 96
    },
    {
      "midi": 64,
      "hit": false,
      "t": 73259.51930729163,
      "d": 3328.99172395833,
      "v": 96
    },
    {
      "midi": 68,
      "hit": false,
      "t": 73259.51930729163,
      "d": 3328.99172395833,
      "v": 96
    },
    {
      "midi": 28,
      "hit": false,
      "t": 73372.36648437502,
      "d": 781.249687500007,
      "v": 96
    },
    {
      "midi": 40,
      "hit": false,
      "t": 73376.70676041699,
      "d": 65.10414062500058,
      "v": 96
    },
    {
      "midi": 56,
      "hit": false,
      "t": 73376.70676041699,
      "d": 69.44441666666535,
      "v": 127
    },
    {
      "midi": 68,
      "hit": false,
      "t": 73381.04703645829,
      "d": 672.7427864583296,
      "v": 94
    },
    {
      "midi": 71,
      "hit": false,
      "t": 73381.04703645829,
      "d": 672.7427864583296,
      "v": 96
    },
    {
      "midi": 59,
      "hit": false,
      "t": 73385.38731249995,
      "d": 668.4025104166649,
      "v": 97
    },
    {
      "midi": 62,
      "hit": false,
      "t": 73385.38731249995,
      "d": 668.4025104166649,
      "v": 97
    },
    {
      "midi": 64,
      "hit": false,
      "t": 73385.38731249995,
      "d": 672.7427864583296,
      "v": 85
    },
    {
      "midi": 56,
      "hit": false,
      "t": 73567.67890625032,
      "d": 47.74303645832697,
      "v": 60
    },
    {
      "midi": 56,
      "hit": false,
      "t": 73776.01215625032,
      "d": 52.083312500006286,
      "v": 66
    },
    {
      "midi": 59,
      "hit": false,
      "t": 73823.75519270834,
      "d": 1167.5342552083312,
      "v": 45
    },
    {
      "midi": 71,
      "hit": false,
      "t": 73845.45657291668,
      "d": 1167.5342552083312,
      "v": 47
    },
    {
      "midi": 40,
      "hit": false,
      "t": 73988.685682292,
      "d": 60.76386458333582,
      "v": 96
    },
    {
      "midi": 56,
      "hit": false,
      "t": 73988.685682292,
      "d": 82.4652447916742,
      "v": 127
    },
    {
      "midi": 56,
      "hit": false,
      "t": 74197.018932292,
      "d": 26.041656250003143,
      "v": 63
    },
    {
      "midi": 56,
      "hit": false,
      "t": 74405.352182292,
      "d": 43.402760416662204,
      "v": 53
    },
    {
      "midi": 64,
      "hit": false,
      "t": 74513.85908333334,
      "d": 468.74981249999837,
      "v": 44
    },
    {
      "midi": 76,
      "hit": false,
      "t": 74535.56046354168,
      "d": 468.74981249999837,
      "v": 46
    },
    {
      "midi": 40,
      "hit": false,
      "t": 74613.685432292,
      "d": 65.10414062500058,
      "v": 96
    },
    {
      "midi": 56,
      "hit": false,
      "t": 74613.685432292,
      "d": 78.12496874999488,
      "v": 127
    },
    {
      "midi": 38,
      "hit": false,
      "t": 74622.36598437502,
      "d": 52.083312500006286,
      "v": 96
    },
    {
      "midi": 56,
      "hit": false,
      "t": 74817.67840625033,
      "d": 17.361104166673613,
      "v": 30
    },
    {
      "midi": 28,
      "hit": false,
      "t": 75026.01165625003,
      "d": 1523.436890625002,
      "v": 96
    },
    {
      "midi": 56,
      "hit": false,
      "t": 75030.351932292,
      "d": 43.402760416662204,
      "v": 44
    },
    {
      "midi": 40,
      "hit": false,
      "t": 75234.34490625034,
      "d": 65.10414062500058,
      "v": 96
    },
    {
      "midi": 56,
      "hit": false,
      "t": 75238.685182292,
      "d": 78.12496875000943,
      "v": 127
    },
    {
      "midi": 56,
      "hit": false,
      "t": 75442.67815625035,
      "d": 47.74303645832697,
      "v": 53
    },
    {
      "midi": 62,
      "hit": false,
      "t": 75486.08091666667,
      "d": 603.2983697916643,
      "v": 45
    },
    {
      "midi": 74,
      "hit": false,
      "t": 75507.78229687501,
      "d": 603.2983697916643,
      "v": 47
    },
    {
      "midi": 56,
      "hit": false,
      "t": 75655.351682292,
      "d": 43.402760416662204,
      "v": 44
    },
    {
      "midi": 40,
      "hit": false,
      "t": 75863.684932292,
      "d": 78.12496874999488,
      "v": 96
    },
    {
      "midi": 56,
      "hit": false,
      "t": 75863.684932292,
      "d": 95.48607291666849,
      "v": 127
    },
    {
      "midi": 56,
      "hit": false,
      "t": 76067.67790625033,
      "d": 65.10414062500058,
      "v": 43
    },
    {
      "midi": 64,
      "hit": false,
      "t": 76145.80287500001,
      "d": 1861.9784218749992,
      "v": 44
    },
    {
      "midi": 76,
      "hit": false,
      "t": 76167.50425520835,
      "d": 1861.9784218749992,
      "v": 46
    },
    {
      "midi": 52,
      "hit": false,
      "t": 76280.351432292,
      "d": 112.84717708332755,
      "v": 87
    },
    {
      "midi": 64,
      "hit": false,
      "t": 76284.69170833328,
      "d": 264.7568385416671,
      "v": 85
    },
    {
      "midi": 66,
      "hit": false,
      "t": 76488.68468229161,
      "d": 65.10414062500058,
      "v": 85
    },
    {
      "midi": 52,
      "hit": false,
      "t": 76488.68468229199,
      "d": 8.68055208332953,
      "v": 38
    },
    {
      "midi": 60,
      "hit": false,
      "t": 76592.85130729162,
      "d": 47.74303645832697,
      "v": 96
    },
    {
      "midi": 64,
      "hit": false,
      "t": 76592.85130729162,
      "d": 47.74303645832697,
      "v": 96
    },
    {
      "midi": 67,
      "hit": false,
      "t": 76597.19158333329,
      "d": 43.402760416662204,
      "v": 96
    },
    {
      "midi": 60,
      "hit": false,
      "t": 76644.93461979162,
      "d": 3068.575161458328,
      "v": 96
    },
    {
      "midi": 64,
      "hit": false,
      "t": 76644.93461979162,
      "d": 3068.575161458328,
      "v": 96
    },
    {
      "midi": 67,
      "hit": false,
      "t": 76644.93461979162,
      "d": 3068.575161458328,
      "v": 96
    },
    {
      "midi": 36,
      "hit": false,
      "t": 76705.69848437504,
      "d": 781.249687500007,
      "v": 96
    },
    {
      "midi": 48,
      "hit": false,
      "t": 76710.03876041698,
      "d": 82.46524479165964,
      "v": 96
    },
    {
      "midi": 55,
      "hit": false,
      "t": 76710.03876041698,
      "d": 99.82634895833326,
      "v": 127
    },
    {
      "midi": 52,
      "hit": false,
      "t": 76714.37903645828,
      "d": 668.4025104166649,
      "v": 97
    },
    {
      "midi": 60,
      "hit": false,
      "t": 76714.37903645828,
      "d": 672.7427864583296,
      "v": 94
    },
    {
      "midi": 64,
      "hit": false,
      "t": 76714.37903645828,
      "d": 672.7427864583296,
      "v": 85
    },
    {
      "midi": 67,
      "hit": false,
      "t": 76718.71931249995,
      "d": 668.4025104166649,
      "v": 96
    },
    {
      "midi": 55,
      "hit": false,
      "t": 76901.01090625032,
      "d": 30.38193229166791,
      "v": 31
    },
    {
      "midi": 55,
      "hit": false,
      "t": 77109.34415625031,
      "d": 47.74303645832697,
      "v": 57
    },
    {
      "midi": 48,
      "hit": false,
      "t": 77322.01768229197,
      "d": 78.12496874999488,
      "v": 96
    },
    {
      "midi": 55,
      "hit": false,
      "t": 77322.01768229197,
      "d": 95.48607291666849,
      "v": 127
    },
    {
      "midi": 55,
      "hit": false,
      "t": 77530.35093229197,
      "d": 60.76386458333582,
      "v": 31
    },
    {
      "midi": 55,
      "hit": false,
      "t": 77734.3439062503,
      "d": 65.10414062500058,
      "v": 66
    },
    {
      "midi": 36,
      "hit": false,
      "t": 77947.01743229172,
      "d": 60.76386458333582,
      "v": 96
    },
    {
      "midi": 48,
      "hit": false,
      "t": 77947.01743229196,
      "d": 78.12496874999488,
      "v": 96
    },
    {
      "midi": 55,
      "hit": false,
      "t": 77951.35770833363,
      "d": 73.78469270833011,
      "v": 127
    },
    {
      "midi": 55,
      "hit": false,
      "t": 78151.0104062503,
      "d": 47.74303645832697,
      "v": 65
    },
    {
      "midi": 36,
      "hit": false,
      "t": 78359.34365625006,
      "d": 898.4371406249993,
      "v": 96
    },
    {
      "midi": 55,
      "hit": false,
      "t": 78363.68393229195,
      "d": 26.041656250003143,
      "v": 52
    },
    {
      "midi": 48,
      "hit": false,
      "t": 78567.67690625029,
      "d": 82.46524479165964,
      "v": 96
    },
    {
      "midi": 55,
      "hit": false,
      "t": 78572.01718229195,
      "d": 95.48607291666849,
      "v": 127
    },
    {
      "midi": 55,
      "hit": false,
      "t": 78776.01015625028,
      "d": 30.38193229166791,
      "v": 31
    },
    {
      "midi": 55,
      "hit": false,
      "t": 78984.34340625028,
      "d": 47.74303645832697,
      "v": 62
    },
    {
      "midi": 48,
      "hit": false,
      "t": 79197.01693229194,
      "d": 95.48607291666849,
      "v": 96
    },
    {
      "midi": 55,
      "hit": false,
      "t": 79197.01693229194,
      "d": 95.48607291666849,
      "v": 127
    },
    {
      "midi": 36,
      "hit": false,
      "t": 79405.35018229172,
      "d": 8.68055208332953,
      "v": 96
    },
    {
      "midi": 52,
      "hit": false,
      "t": 79405.35018229194,
      "d": 130.20828125000116,
      "v": 92
    },
    {
      "midi": 31,
      "hit": false,
      "t": 79613.68343229171,
      "d": 95.48607291666849,
      "v": 96
    },
    {
      "midi": 52,
      "hit": false,
      "t": 79613.68343229193,
      "d": 78.12496874999488,
      "v": 36
    },
    {
      "midi": 61,
      "hit": false,
      "t": 79717.85005729161,
      "d": 47.74303645832697,
      "v": 96
    },
    {
      "midi": 33,
      "hit": false,
      "t": 79717.85005729171,
      "d": 43.402760416662204,
      "v": 96
    },
    {
      "midi": 64,
      "hit": false,
      "t": 79722.19033333327,
      "d": 43.402760416662204,
      "v": 96
    },
    {
      "midi": 69,
      "hit": false,
      "t": 79722.19033333327,
      "d": 43.402760416662204,
      "v": 96
    },
    {
      "midi": 33,
      "hit": false,
      "t": 79765.59309375004,
      "d": 52.083312500006286,
      "v": 96
    },
    {
      "midi": 60,
      "hit": false,
      "t": 79769.9333697916,
      "d": 47.74303645832697,
      "v": 96
    },
    {
      "midi": 64,
      "hit": false,
      "t": 79769.9333697916,
      "d": 52.083312499991735,
      "v": 96
    },
    {
      "midi": 69,
      "hit": false,
      "t": 79769.9333697916,
      "d": 52.083312499991735,
      "v": 96
    },
    {
      "midi": 45,
      "hit": false,
      "t": 79830.69723437526,
      "d": 69.44441666666535,
      "v": 36
    },
    {
      "midi": 57,
      "hit": false,
      "t": 80021.66938020835,
      "d": 1180.55508333334,
      "v": 48
    },
    {
      "midi": 33,
      "hit": false,
      "t": 80039.03048437505,
      "d": 781.249687500007,
      "v": 96
    },
    {
      "midi": 69,
      "hit": false,
      "t": 80043.37076041668,
      "d": 1180.55508333334,
      "v": 50
    },
    {
      "midi": 45,
      "hit": false,
      "t": 80043.37076041692,
      "d": 65.10414062500058,
      "v": 96
    },
    {
      "midi": 57,
      "hit": false,
      "t": 80043.37076041692,
      "d": 65.10414062500058,
      "v": 127
    },
    {
      "midi": 60,
      "hit": false,
      "t": 80047.71103645826,
      "d": 3120.658473958334,
      "v": 96
    },
    {
      "midi": 60,
      "hit": false,
      "t": 80047.71103645828,
      "d": 668.4025104166649,
      "v": 85
    },
    {
      "midi": 69,
      "hit": false,
      "t": 80047.71103645828,
      "d": 668.4025104166649,
      "v": 96
    },
    {
      "midi": 69,
      "hit": false,
      "t": 80052.05131249993,
      "d": 3116.3181979166693,
      "v": 96
    },
    {
      "midi": 64,
      "hit": false,
      "t": 80056.39158854159,
      "d": 3111.9779218750045,
      "v": 96
    },
    {
      "midi": 45,
      "hit": false,
      "t": 80056.3915885416,
      "d": 664.0622343750001,
      "v": 97
    },
    {
      "midi": 64,
      "hit": false,
      "t": 80056.3915885416,
      "d": 664.0622343750001,
      "v": 94
    },
    {
      "midi": 57,
      "hit": false,
      "t": 80234.34290625025,
      "d": 47.74303645832697,
      "v": 60
    },
    {
      "midi": 57,
      "hit": false,
      "t": 80442.67615625025,
      "d": 47.74303645832697,
      "v": 66
    },
    {
      "midi": 45,
      "hit": false,
      "t": 80651.00940625025,
      "d": 65.10414062500058,
      "v": 96
    },
    {
      "midi": 57,
      "hit": false,
      "t": 80651.00940625025,
      "d": 82.4652447916742,
      "v": 127
    },
    {
      "midi": 57,
      "hit": false,
      "t": 80859.34265625026,
      "d": 30.38193229166791,
      "v": 63
    },
    {
      "midi": 57,
      "hit": false,
      "t": 81067.67590625025,
      "d": 47.74303645832697,
      "v": 53
    },
    {
      "midi": 60,
      "hit": false,
      "t": 81280.34943229168,
      "d": 412.3262239583273,
      "v": 47
    },
    {
      "midi": 33,
      "hit": false,
      "t": 81280.34943229172,
      "d": 60.76386458333582,
      "v": 96
    },
    {
      "midi": 45,
      "hit": false,
      "t": 81280.34943229191,
      "d": 60.76386458333582,
      "v": 96
    },
    {
      "midi": 57,
      "hit": false,
      "t": 81280.34943229191,
      "d": 78.12496875000943,
      "v": 127
    },
    {
      "midi": 72,
      "hit": false,
      "t": 81302.05081250002,
      "d": 412.3262239583273,
      "v": 49
    },
    {
      "midi": 57,
      "hit": false,
      "t": 81484.34240625026,
      "d": 13.020828124994296,
      "v": 30
    },
    {
      "midi": 64,
      "hit": false,
      "t": 81657.9534479166,
      "d": 690.1038906250033,
      "v": 96
    },
    {
      "midi": 33,
      "hit": false,
      "t": 81692.67565625007,
      "d": 1471.3535781249957,
      "v": 96
    },
    {
      "midi": 72,
      "hit": false,
      "t": 81697.0159322916,
      "d": 685.7636145833385,
      "v": 96
    },
    {
      "midi": 57,
      "hit": false,
      "t": 81697.01593229192,
      "d": 43.402760416662204,
      "v": 44
    },
    {
      "midi": 81,
      "hit": false,
      "t": 81727.39786458327,
      "d": 690.1038906250033,
      "v": 96
    },
    {
      "midi": 64,
      "hit": false,
      "t": 81744.75896875001,
      "d": 1440.9716458333278,
      "v": 45
    },
    {
      "midi": 76,
      "hit": false,
      "t": 81766.46034895835,
      "d": 1440.9716458333278,
      "v": 47
    },
    {
      "midi": 45,
      "hit": false,
      "t": 81901.00890625025,
      "d": 69.44441666666535,
      "v": 96
    },
    {
      "midi": 57,
      "hit": false,
      "t": 81901.00890625025,
      "d": 82.46524479165964,
      "v": 127
    },
    {
      "midi": 57,
      "hit": false,
      "t": 82109.34215625025,
      "d": 47.74303645832697,
      "v": 53
    },
    {
      "midi": 57,
      "hit": false,
      "t": 82317.67540625024,
      "d": 47.74303645832697,
      "v": 44
    },
    {
      "midi": 45,
      "hit": false,
      "t": 82526.00865625024,
      "d": 82.46524479165964,
      "v": 96
    },
    {
      "midi": 57,
      "hit": false,
      "t": 82530.3489322919,
      "d": 95.48607291666849,
      "v": 127
    },
    {
      "midi": 57,
      "hit": false,
      "t": 82734.34190625024,
      "d": 65.10414062500058,
      "v": 43
    },
    {
      "midi": 48,
      "hit": false,
      "t": 82947.0154322919,
      "d": 43.402760416662204,
      "v": 81
    },
    {
      "midi": 48,
      "hit": false,
      "t": 83151.00840625023,
      "d": 13.020828124994296,
      "v": 35
    },
    {
      "midi": 61,
      "hit": false,
      "t": 83172.70978645826,
      "d": 26.041656250003143,
      "v": 96
    },
    {
      "midi": 64,
      "hit": false,
      "t": 83172.70978645826,
      "d": 26.041656250003143,
      "v": 96
    },
    {
      "midi": 69,
      "hit": false,
      "t": 83177.05006249993,
      "d": 26.041656250003143,
      "v": 96
    },
    {
      "midi": 62,
      "hit": false,
      "t": 83203.09171874993,
      "d": 47.74303645832697,
      "v": 96
    },
    {
      "midi": 66,
      "hit": false,
      "t": 83203.09171874993,
      "d": 52.083312499991735,
      "v": 96
    },
    {
      "midi": 69,
      "hit": false,
      "t": 83203.09171874993,
      "d": 52.083312499991735,
      "v": 96
    },
    {
      "midi": 62,
      "hit": false,
      "t": 83255.17503124992,
      "d": 3229.165374999997,
      "v": 96
    },
    {
      "midi": 65,
      "hit": false,
      "t": 83259.51530729159,
      "d": 3229.165374999997,
      "v": 96
    },
    {
      "midi": 69,
      "hit": false,
      "t": 83259.51530729159,
      "d": 3229.165374999997,
      "v": 96
    },
    {
      "midi": 38,
      "hit": false,
      "t": 83368.0222083334,
      "d": 785.5899635416718,
      "v": 96
    },
    {
      "midi": 50,
      "hit": false,
      "t": 83372.36248437522,
      "d": 86.80552083332441,
      "v": 96
    },
    {
      "midi": 62,
      "hit": false,
      "t": 83376.7027604166,
      "d": 672.7427864583296,
      "v": 94
    },
    {
      "midi": 69,
      "hit": false,
      "t": 83376.7027604166,
      "d": 672.7427864583296,
      "v": 96
    },
    {
      "midi": 57,
      "hit": false,
      "t": 83376.70276041688,
      "d": 99.82634895833326,
      "v": 127
    },
    {
      "midi": 50,
      "hit": false,
      "t": 83381.04303645827,
      "d": 668.4025104166649,
      "v": 97
    },
    {
      "midi": 77,
      "hit": false,
      "t": 83381.04303645827,
      "d": 672.7427864583296,
      "v": 85
    },
    {
      "midi": 65,
      "hit": false,
      "t": 83420.10552083334,
      "d": 1098.0898385416658,
      "v": 46
    },
    {
      "midi": 77,
      "hit": false,
      "t": 83441.80690104168,
      "d": 1098.0898385416658,
      "v": 48
    },
    {
      "midi": 57,
      "hit": false,
      "t": 83567.67490625022,
      "d": 30.38193229166791,
      "v": 31
    },
    {
      "midi": 57,
      "hit": false,
      "t": 83776.00815625022,
      "d": 47.74303645832697,
      "v": 57
    },
    {
      "midi": 50,
      "hit": false,
      "t": 83984.34140625021,
      "d": 82.46524479165964,
      "v": 96
    },
    {
      "midi": 57,
      "hit": false,
      "t": 83984.34140625021,
      "d": 99.82634895833326,
      "v": 127
    },
    {
      "midi": 57,
      "hit": false,
      "t": 84192.67465625021,
      "d": 65.10414062500058,
      "v": 31
    },
    {
      "midi": 57,
      "hit": false,
      "t": 84401.0079062502,
      "d": 65.10414062500058,
      "v": 66
    },
    {
      "midi": 38,
      "hit": false,
      "t": 84609.34115625007,
      "d": 65.10414062500058,
      "v": 96
    },
    {
      "midi": 50,
      "hit": false,
      "t": 84613.68143229187,
      "d": 78.12496874999488,
      "v": 96
    },
    {
      "midi": 57,
      "hit": false,
      "t": 84613.68143229187,
      "d": 78.12496874999488,
      "v": 127
    },
    {
      "midi": 57,
      "hit": false,
      "t": 84631.04253645834,
      "d": 364.58318750000035,
      "v": 46
    },
    {
      "midi": 69,
      "hit": false,
      "t": 84652.74391666667,
      "d": 364.58318750000035,
      "v": 48
    },
    {
      "midi": 57,
      "hit": false,
      "t": 84813.33413020853,
      "d": 52.083312500006286,
      "v": 65
    },
    {
      "midi": 38,
      "hit": false,
      "t": 85026.00765625008,
      "d": 1458.3327500000014,
      "v": 96
    },
    {
      "midi": 57,
      "hit": false,
      "t": 85026.0076562502,
      "d": 30.38193229166791,
      "v": 52
    },
    {
      "midi": 62,
      "hit": false,
      "t": 85108.47290104166,
      "d": 1219.6175677083374,
      "v": 46
    },
    {
      "midi": 74,
      "hit": false,
      "t": 85130.17428125,
      "d": 1219.6175677083374,
      "v": 48
    },
    {
      "midi": 50,
      "hit": false,
      "t": 85234.3409062502,
      "d": 82.46524479165964,
      "v": 96
    },
    {
      "midi": 57,
      "hit": false,
      "t": 85234.3409062502,
      "d": 99.82634895833326,
      "v": 127
    },
    {
      "midi": 57,
      "hit": false,
      "t": 85442.6741562502,
      "d": 30.38193229166791,
      "v": 31
    },
    {
      "midi": 57,
      "hit": false,
      "t": 85651.0074062502,
      "d": 47.74303645832697,
      "v": 62
    },
    {
      "midi": 65,
      "hit": false,
      "t": 85655.3476822916,
      "d": 685.7636145833385,
      "v": 85
    },
    {
      "midi": 50,
      "hit": false,
      "t": 85859.34065625019,
      "d": 99.82634895833326,
      "v": 96
    },
    {
      "midi": 57,
      "hit": false,
      "t": 85863.68093229186,
      "d": 95.48607291666849,
      "v": 127
    },
    {
      "midi": 57,
      "hit": false,
      "t": 86067.67390625019,
      "d": 30.38193229166791,
      "v": 69
    },
    {
      "midi": 69,
      "hit": false,
      "t": 86072.0141822916,
      "d": 412.3262239583273,
      "v": 85
    },
    {
      "midi": 53,
      "hit": false,
      "t": 86280.34743229185,
      "d": 60.76386458333582,
      "v": 93
    },
    {
      "midi": 62,
      "hit": false,
      "t": 86493.02095833325,
      "d": 21.701380208338378,
      "v": 96
    },
    {
      "midi": 67,
      "hit": false,
      "t": 86493.02095833325,
      "d": 21.701380208338378,
      "v": 96
    },
    {
      "midi": 71,
      "hit": false,
      "t": 86493.02095833325,
      "d": 21.701380208338378,
      "v": 96
    },
    {
      "midi": 55,
      "hit": false,
      "t": 86497.36123437519,
      "d": 4.340276041664765,
      "v": 34
    },
    {
      "midi": 62,
      "hit": false,
      "t": 86519.06261458325,
      "d": 13.020828124994296,
      "v": 96
    },
    {
      "midi": 67,
      "hit": false,
      "t": 86519.06261458325,
      "d": 13.020828124994296,
      "v": 96
    },
    {
      "midi": 71,
      "hit": false,
      "t": 86519.06261458325,
      "d": 17.36110416665906,
      "v": 96
    },
    {
      "midi": 62,
      "hit": false,
      "t": 86540.76399479157,
      "d": 3294.2695156249974,
      "v": 96
    },
    {
      "midi": 65,
      "hit": false,
      "t": 86540.76399479157,
      "d": 3294.2695156249974,
      "v": 96
    },
    {
      "midi": 67,
      "hit": false,
      "t": 86540.76399479157,
      "d": 3294.2695156249974,
      "v": 96
    },
    {
      "midi": 71,
      "hit": false,
      "t": 86540.76399479157,
      "d": 3294.2695156249974,
      "v": 96
    },
    {
      "midi": 31,
      "hit": false,
      "t": 86701.35420833342,
      "d": 785.5899635416718,
      "v": 96
    },
    {
      "midi": 43,
      "hit": false,
      "t": 86705.69448437518,
      "d": 69.44441666666535,
      "v": 96
    },
    {
      "midi": 71,
      "hit": false,
      "t": 86710.0347604166,
      "d": 672.7427864583296,
      "v": 94
    },
    {
      "midi": 74,
      "hit": false,
      "t": 86710.0347604166,
      "d": 672.7427864583296,
      "v": 96
    },
    {
      "midi": 59,
      "hit": false,
      "t": 86710.03476041685,
      "d": 65.10414062500058,
      "v": 127
    },
    {
      "midi": 65,
      "hit": false,
      "t": 86714.37503645827,
      "d": 668.4025104166649,
      "v": 97
    },
    {
      "midi": 62,
      "hit": false,
      "t": 86718.71531249993,
      "d": 668.4025104166649,
      "v": 97
    },
    {
      "midi": 67,
      "hit": false,
      "t": 86718.71531249993,
      "d": 668.4025104166649,
      "v": 85
    },
    {
      "midi": 55,
      "hit": false,
      "t": 86766.45834895833,
      "d": 2447.91568749999,
      "v": 47
    },
    {
      "midi": 67,
      "hit": false,
      "t": 86788.15972916667,
      "d": 2447.91568749999,
      "v": 49
    },
    {
      "midi": 59,
      "hit": false,
      "t": 86896.66663020852,
      "d": 52.083312500006286,
      "v": 60
    },
    {
      "midi": 59,
      "hit": false,
      "t": 87109.3401562502,
      "d": 47.74303645832697,
      "v": 66
    },
    {
      "midi": 43,
      "hit": false,
      "t": 87317.6734062502,
      "d": 65.10414062500058,
      "v": 96
    },
    {
      "midi": 59,
      "hit": false,
      "t": 87317.6734062502,
      "d": 82.4652447916742,
      "v": 127
    },
    {
      "midi": 59,
      "hit": false,
      "t": 87526.0066562502,
      "d": 30.38193229166791,
      "v": 63
    },
    {
      "midi": 59,
      "hit": false,
      "t": 87734.3399062502,
      "d": 47.74303645832697,
      "v": 53
    },
    {
      "midi": 43,
      "hit": false,
      "t": 87942.6731562502,
      "d": 65.10414062500058,
      "v": 96
    },
    {
      "midi": 59,
      "hit": false,
      "t": 87947.01343229186,
      "d": 78.12496875000943,
      "v": 127
    },
    {
      "midi": 29,
      "hit": false,
      "t": 87951.35370833342,
      "d": 56.42358854167105,
      "v": 96
    },
    {
      "midi": 59,
      "hit": false,
      "t": 88146.66613020854,
      "d": 17.361104166673613,
      "v": 30
    },
    {
      "midi": 31,
      "hit": false,
      "t": 88359.3396562501,
      "d": 1471.3535781249957,
      "v": 96
    },
    {
      "midi": 59,
      "hit": false,
      "t": 88359.33965625022,
      "d": 47.74303645832697,
      "v": 44
    },
    {
      "midi": 43,
      "hit": false,
      "t": 88567.67290625021,
      "d": 65.10414062500058,
      "v": 96
    },
    {
      "midi": 59,
      "hit": false,
      "t": 88567.67290625021,
      "d": 82.4652447916742,
      "v": 127
    },
    {
      "midi": 59,
      "hit": false,
      "t": 88767.32560416666,
      "d": 581.5969895833259,
      "v": 45
    },
    {
      "midi": 59,
      "hit": false,
      "t": 88776.00615625022,
      "d": 47.74303645832697,
      "v": 53
    },
    {
      "midi": 71,
      "hit": false,
      "t": 88789.026984375,
      "d": 581.5969895833259,
      "v": 47
    },
    {
      "midi": 59,
      "hit": false,
      "t": 88984.33940625022,
      "d": 47.74303645832697,
      "v": 44
    },
    {
      "midi": 43,
      "hit": false,
      "t": 89192.67265625022,
      "d": 82.46524479165964,
      "v": 96
    },
    {
      "midi": 59,
      "hit": false,
      "t": 89197.01293229188,
      "d": 95.48607291666849,
      "v": 127
    },
    {
      "midi": 59,
      "hit": false,
      "t": 89401.00590625021,
      "d": 65.10414062500058,
      "v": 43
    },
    {
      "midi": 62,
      "hit": false,
      "t": 89448.74894270832,
      "d": 455.7289843750041,
      "v": 44
    },
    {
      "midi": 74,
      "hit": false,
      "t": 89470.45032291666,
      "d": 455.7289843750041,
      "v": 46
    },
    {
      "midi": 55,
      "hit": false,
      "t": 89609.33915625021,
      "d": 117.18745312500687,
      "v": 87
    },
    {
      "midi": 67,
      "hit": false,
      "t": 89618.01970833326,
      "d": 212.6735260416608,
      "v": 85
    },
    {
      "midi": 55,
      "hit": false,
      "t": 89817.67240625022,
      "d": 13.020828124994296,
      "v": 38
    },
    {
      "midi": 69,
      "hit": false,
      "t": 89822.01268229159,
      "d": 13.020828124994296,
      "v": 85
    },
    {
      "midi": 60,
      "hit": false,
      "t": 89839.37378645824,
      "d": 26.041656250003143,
      "v": 96
    },
    {
      "midi": 64,
      "hit": false,
      "t": 89843.7140624999,
      "d": 21.701380208338378,
      "v": 96
    },
    {
      "midi": 67,
      "hit": false,
      "t": 89843.7140624999,
      "d": 21.701380208338378,
      "v": 96
    },
    {
      "midi": 60,
      "hit": false,
      "t": 89869.7557187499,
      "d": 13.020828124994296,
      "v": 96
    },
    {
      "midi": 64,
      "hit": false,
      "t": 89869.7557187499,
      "d": 13.020828124994296,
      "v": 96
    },
    {
      "midi": 67,
      "hit": false,
      "t": 89874.09599479157,
      "d": 8.68055208332953,
      "v": 96
    },
    {
      "midi": 60,
      "hit": false,
      "t": 89887.11682291656,
      "d": 3263.8875833333295,
      "v": 96
    },
    {
      "midi": 64,
      "hit": false,
      "t": 89887.11682291656,
      "d": 3263.8875833333295,
      "v": 96
    },
    {
      "midi": 67,
      "hit": false,
      "t": 89891.45709895823,
      "d": 3259.5473072916648,
      "v": 96
    },
    {
      "midi": 60,
      "hit": false,
      "t": 89973.92234374999,
      "d": 2287.3254739583354,
      "v": 46
    },
    {
      "midi": 72,
      "hit": false,
      "t": 89995.62372395833,
      "d": 2287.3254739583354,
      "v": 48
    },
    {
      "midi": 36,
      "hit": false,
      "t": 90034.68620833343,
      "d": 785.5899635416718,
      "v": 96
    },
    {
      "midi": 48,
      "hit": false,
      "t": 90039.02648437521,
      "d": 86.80552083332441,
      "v": 96
    },
    {
      "midi": 52,
      "hit": false,
      "t": 90043.3667604166,
      "d": 672.7427864583296,
      "v": 97
    },
    {
      "midi": 55,
      "hit": false,
      "t": 90043.36676041687,
      "d": 99.82634895833326,
      "v": 127
    },
    {
      "midi": 60,
      "hit": false,
      "t": 90047.70703645826,
      "d": 668.4025104166649,
      "v": 94
    },
    {
      "midi": 64,
      "hit": false,
      "t": 90047.70703645826,
      "d": 668.4025104166649,
      "v": 85
    },
    {
      "midi": 67,
      "hit": false,
      "t": 90047.70703645826,
      "d": 668.4025104166649,
      "v": 96
    },
    {
      "midi": 55,
      "hit": false,
      "t": 90229.99863020855,
      "d": 34.722208333332674,
      "v": 31
    },
    {
      "midi": 55,
      "hit": false,
      "t": 90438.33188020854,
      "d": 52.083312500006286,
      "v": 57
    },
    {
      "midi": 48,
      "hit": false,
      "t": 90651.00540625022,
      "d": 82.46524479165964,
      "v": 96
    },
    {
      "midi": 55,
      "hit": false,
      "t": 90651.00540625022,
      "d": 99.82634895833326,
      "v": 127
    },
    {
      "midi": 55,
      "hit": false,
      "t": 90859.33865625021,
      "d": 65.10414062500058,
      "v": 31
    },
    {
      "midi": 55,
      "hit": false,
      "t": 91067.67190625021,
      "d": 65.10414062500058,
      "v": 66
    },
    {
      "midi": 36,
      "hit": false,
      "t": 91276.0051562501,
      "d": 65.10414062500058,
      "v": 96
    },
    {
      "midi": 48,
      "hit": false,
      "t": 91280.34543229187,
      "d": 78.12496874999488,
      "v": 96
    },
    {
      "midi": 55,
      "hit": false,
      "t": 91280.34543229187,
      "d": 78.12496874999488,
      "v": 127
    },
    {
      "midi": 55,
      "hit": false,
      "t": 91479.99813020854,
      "d": 52.083312500006286,
      "v": 65
    },
    {
      "midi": 36,
      "hit": false,
      "t": 91692.67165625011,
      "d": 898.4371406249993,
      "v": 96
    },
    {
      "midi": 55,
      "hit": false,
      "t": 91692.67165625021,
      "d": 30.38193229166791,
      "v": 52
    },
    {
      "midi": 48,
      "hit": false,
      "t": 91901.00490625021,
      "d": 82.46524479165964,
      "v": 96
    },
    {
      "midi": 55,
      "hit": false,
      "t": 91901.00490625021,
      "d": 99.82634895833326,
      "v": 127
    },
    {
      "midi": 55,
      "hit": false,
      "t": 92109.3381562502,
      "d": 30.38193229166791,
      "v": 31
    },
    {
      "midi": 55,
      "hit": false,
      "t": 92317.6714062502,
      "d": 47.74303645832697,
      "v": 62
    },
    {
      "midi": 48,
      "hit": false,
      "t": 92526.0046562502,
      "d": 99.82634895833326,
      "v": 96
    },
    {
      "midi": 55,
      "hit": false,
      "t": 92530.34493229186,
      "d": 95.48607291666849,
      "v": 127
    },
    {
      "midi": 36,
      "hit": false,
      "t": 92734.3379062501,
      "d": 8.68055208332953,
      "v": 96
    },
    {
      "midi": 52,
      "hit": false,
      "t": 92734.33790625019,
      "d": 134.54855729166593,
      "v": 92
    },
    {
      "midi": 31,
      "hit": false,
      "t": 92942.6711562501,
      "d": 208.33324999999604,
      "v": 96
    },
    {
      "midi": 52,
      "hit": false,
      "t": 92942.67115625019,
      "d": 78.12496874999488,
      "v": 36
    },
    {
      "midi": 40,
      "hit": false,
      "t": 93155.34468229185,
      "d": 26.041656250003143,
      "v": 36
    },
    {
      "midi": 51,
      "hit": false,
      "t": 93259.51130729166,
      "d": 95.48607291666849,
      "v": 56
    },
    {
      "midi": 63,
      "hit": false,
      "t": 93281.2126875,
      "d": 95.48607291666849,
      "v": 58
    },
    {
      "midi": 52,
      "hit": false,
      "t": 93354.99738020833,
      "d": 1614.5826875000057,
      "v": 54
    },
    {
      "midi": 28,
      "hit": false,
      "t": 93368.01820833342,
      "d": 781.249687500007,
      "v": 96
    },
    {
      "midi": 40,
      "hit": false,
      "t": 93372.35848437519,
      "d": 65.10414062500058,
      "v": 96
    },
    {
      "midi": 56,
      "hit": false,
      "t": 93372.35848437519,
      "d": 69.44441666666535,
      "v": 127
    },
    {
      "midi": 64,
      "hit": false,
      "t": 93376.69876041658,
      "d": 672.7427864583296,
      "v": 94
    },
    {
      "midi": 68,
      "hit": false,
      "t": 93376.69876041658,
      "d": 672.7427864583296,
      "v": 96
    },
    {
      "midi": 64,
      "hit": false,
      "t": 93376.69876041666,
      "d": 1614.5826875000057,
      "v": 56
    },
    {
      "midi": 59,
      "hit": false,
      "t": 93381.03903645823,
      "d": 3185.7626145833347,
      "v": 96
    },
    {
      "midi": 64,
      "hit": false,
      "t": 93381.03903645823,
      "d": 3185.7626145833347,
      "v": 96
    },
    {
      "midi": 68,
      "hit": false,
      "t": 93381.03903645823,
      "d": 3185.7626145833347,
      "v": 96
    },
    {
      "midi": 62,
      "hit": false,
      "t": 93385.3793124999,
      "d": 664.0622343750001,
      "v": 85
    },
    {
      "midi": 62,
      "hit": false,
      "t": 93389.71958854156,
      "d": 3177.082062500005,
      "v": 96
    },
    {
      "midi": 71,
      "hit": false,
      "t": 93389.71958854157,
      "d": 659.7219583333354,
      "v": 97
    },
    {
      "midi": 56,
      "hit": false,
      "t": 93563.33063020853,
      "d": 47.74303645832697,
      "v": 60
    },
    {
      "midi": 56,
      "hit": false,
      "t": 93771.66388020852,
      "d": 52.083312500006286,
      "v": 66
    },
    {
      "midi": 40,
      "hit": false,
      "t": 93984.3374062502,
      "d": 60.76386458333582,
      "v": 96
    },
    {
      "midi": 56,
      "hit": false,
      "t": 93984.3374062502,
      "d": 78.12496875000943,
      "v": 127
    },
    {
      "midi": 56,
      "hit": false,
      "t": 94192.67065625021,
      "d": 26.041656250003143,
      "v": 63
    },
    {
      "midi": 56,
      "hit": false,
      "t": 94396.66363020854,
      "d": 47.74303645832697,
      "v": 53
    },
    {
      "midi": 28,
      "hit": false,
      "t": 94609.3371562501,
      "d": 60.76386458333582,
      "v": 96
    },
    {
      "midi": 40,
      "hit": false,
      "t": 94609.3371562502,
      "d": 65.10414062500058,
      "v": 96
    },
    {
      "midi": 56,
      "hit": false,
      "t": 94613.67743229186,
      "d": 73.78469270833011,
      "v": 127
    },
    {
      "midi": 56,
      "hit": false,
      "t": 94813.33013020853,
      "d": 17.361104166673613,
      "v": 30
    },
    {
      "midi": 64,
      "hit": false,
      "t": 94986.9411718749,
      "d": 690.1038906250033,
      "v": 96
    },
    {
      "midi": 59,
      "hit": false,
      "t": 94991.28144791657,
      "d": 690.1038906250033,
      "v": 96
    },
    {
      "midi": 56,
      "hit": false,
      "t": 94999.962,
      "d": 815.9718958333397,
      "v": 46
    },
    {
      "midi": 68,
      "hit": false,
      "t": 95021.66338020834,
      "d": 815.9718958333397,
      "v": 48
    },
    {
      "midi": 28,
      "hit": false,
      "t": 95026.0036562501,
      "d": 1519.0966145833372,
      "v": 96
    },
    {
      "midi": 56,
      "hit": false,
      "t": 95026.0036562502,
      "d": 43.402760416662204,
      "v": 44
    },
    {
      "midi": 74,
      "hit": false,
      "t": 95030.34393229157,
      "d": 681.4233385416737,
      "v": 96
    },
    {
      "midi": 80,
      "hit": false,
      "t": 95056.38558854157,
      "d": 690.1038906250033,
      "v": 96
    },
    {
      "midi": 40,
      "hit": false,
      "t": 95229.99663020854,
      "d": 65.10414062500058,
      "v": 96
    },
    {
      "midi": 56,
      "hit": false,
      "t": 95234.3369062502,
      "d": 78.12496875000943,
      "v": 127
    },
    {
      "midi": 56,
      "hit": false,
      "t": 95442.67015625021,
      "d": 43.402760416662204,
      "v": 53
    },
    {
      "midi": 56,
      "hit": false,
      "t": 95646.66313020854,
      "d": 47.74303645832697,
      "v": 44
    },
    {
      "midi": 57,
      "hit": false,
      "t": 95815.93389583334,
      "d": 13.020828124994296,
      "v": 46
    },
    {
      "midi": 69,
      "hit": false,
      "t": 95837.63527604168,
      "d": 13.020828124994296,
      "v": 48
    },
    {
      "midi": 52,
      "hit": false,
      "t": 95850.65610416667,
      "d": 594.6178177083348,
      "v": 48
    },
    {
      "midi": 40,
      "hit": false,
      "t": 95859.3366562502,
      "d": 78.12496874999488,
      "v": 96
    },
    {
      "midi": 56,
      "hit": false,
      "t": 95859.3366562502,
      "d": 95.48607291666849,
      "v": 127
    },
    {
      "midi": 64,
      "hit": false,
      "t": 95872.35748437501,
      "d": 594.6178177083348,
      "v": 50
    },
    {
      "midi": 56,
      "hit": false,
      "t": 96063.32963020854,
      "d": 65.10414062500058,
      "v": 43
    },
    {
      "midi": 52,
      "hit": false,
      "t": 96276.0031562502,
      "d": 43.402760416662204,
      "v": 81
    },
    {
      "midi": 52,
      "hit": false,
      "t": 96479.99613020853,
      "d": 13.020828124994296,
      "v": 35
    },
    {
      "midi": 61,
      "hit": false,
      "t": 96571.14192708323,
      "d": 30.38193229166791,
      "v": 96
    },
    {
      "midi": 64,
      "hit": false,
      "t": 96571.14192708323,
      "d": 30.38193229166791,
      "v": 96
    },
    {
      "midi": 69,
      "hit": false,
      "t": 96571.14192708323,
      "d": 30.38193229166791,
      "v": 96
    },
    {
      "midi": 60,
      "hit": false,
      "t": 96601.5238593749,
      "d": 17.36110416665906,
      "v": 96
    },
    {
      "midi": 64,
      "hit": false,
      "t": 96605.86413541656,
      "d": 13.020828124994296,
      "v": 96
    },
    {
      "midi": 69,
      "hit": false,
      "t": 96605.86413541656,
      "d": 13.020828124994296,
      "v": 96
    },
    {
      "midi": 60,
      "hit": false,
      "t": 96623.22523958322,
      "d": 3207.463994791673,
      "v": 96
    },
    {
      "midi": 64,
      "hit": false,
      "t": 96623.22523958322,
      "d": 3207.463994791673,
      "v": 96
    },
    {
      "midi": 69,
      "hit": false,
      "t": 96623.22523958322,
      "d": 3207.463994791673,
      "v": 96
    },
    {
      "midi": 57,
      "hit": false,
      "t": 96683.98910416667,
      "d": 2235.242161458329,
      "v": 47
    },
    {
      "midi": 33,
      "hit": false,
      "t": 96701.35020833343,
      "d": 781.249687500007,
      "v": 96
    },
    {
      "midi": 60,
      "hit": false,
      "t": 96705.6904843749,
      "d": 672.7427864583296,
      "v": 94
    },
    {
      "midi": 69,
      "hit": false,
      "t": 96705.69048437501,
      "d": 2235.242161458329,
      "v": 49
    },
    {
      "midi": 45,
      "hit": false,
      "t": 96705.69048437518,
      "d": 82.46524479165964,
      "v": 96
    },
    {
      "midi": 57,
      "hit": false,
      "t": 96705.69048437518,
      "d": 99.82634895833326,
      "v": 127
    },
    {
      "midi": 69,
      "hit": false,
      "t": 96710.03076041657,
      "d": 672.7427864583296,
      "v": 96
    },
    {
      "midi": 45,
      "hit": false,
      "t": 96714.37103645824,
      "d": 668.4025104166649,
      "v": 97
    },
    {
      "midi": 76,
      "hit": false,
      "t": 96714.37103645824,
      "d": 668.4025104166649,
      "v": 85
    },
    {
      "midi": 57,
      "hit": false,
      "t": 96896.66263020852,
      "d": 30.38193229166791,
      "v": 31
    },
    {
      "midi": 57,
      "hit": false,
      "t": 97104.99588020852,
      "d": 47.74303645832697,
      "v": 57
    },
    {
      "midi": 45,
      "hit": false,
      "t": 97317.66940625018,
      "d": 78.12496874999488,
      "v": 96
    },
    {
      "midi": 57,
      "hit": false,
      "t": 97317.66940625018,
      "d": 95.48607291666849,
      "v": 127
    },
    {
      "midi": 57,
      "hit": false,
      "t": 97526.00265625017,
      "d": 60.76386458333582,
      "v": 31
    },
    {
      "midi": 57,
      "hit": false,
      "t": 97729.9956302085,
      "d": 65.10414062500058,
      "v": 66
    },
    {
      "midi": 33,
      "hit": false,
      "t": 97942.66915625011,
      "d": 60.76386458333582,
      "v": 96
    },
    {
      "midi": 45,
      "hit": false,
      "t": 97942.66915625017,
      "d": 78.12496874999488,
      "v": 96
    },
    {
      "midi": 57,
      "hit": false,
      "t": 97947.00943229183,
      "d": 73.78469270833011,
      "v": 127
    },
    {
      "midi": 57,
      "hit": false,
      "t": 98146.6621302085,
      "d": 47.74303645832697,
      "v": 65
    },
    {
      "midi": 33,
      "hit": false,
      "t": 98354.99538020845,
      "d": 1471.3535781249957,
      "v": 96
    },
    {
      "midi": 57,
      "hit": false,
      "t": 98359.33565625016,
      "d": 26.041656250003143,
      "v": 52
    },
    {
      "midi": 45,
      "hit": false,
      "t": 98563.32863020849,
      "d": 82.46524479165964,
      "v": 96
    },
    {
      "midi": 57,
      "hit": false,
      "t": 98563.32863020849,
      "d": 99.82634895833326,
      "v": 127
    },
    {
      "midi": 57,
      "hit": false,
      "t": 98771.66188020848,
      "d": 30.38193229166791,
      "v": 31
    },
    {
      "midi": 64,
      "hit": false,
      "t": 98984.3354062499,
      "d": 685.7636145833385,
      "v": 85
    },
    {
      "midi": 57,
      "hit": false,
      "t": 98984.33540625015,
      "d": 43.402760416662204,
      "v": 62
    },
    {
      "midi": 45,
      "hit": false,
      "t": 99188.32838020848,
      "d": 99.82634895833326,
      "v": 96
    },
    {
      "midi": 57,
      "hit": false,
      "t": 99192.66865625014,
      "d": 95.48607291666849,
      "v": 127
    },
    {
      "midi": 69,
      "hit": false,
      "t": 99401.0019062499,
      "d": 429.68732812500093,
      "v": 85
    },
    {
      "midi": 57,
      "hit": false,
      "t": 99401.00190625014,
      "d": 26.041656250003143,
      "v": 69
    },
    {
      "midi": 48,
      "hit": false,
      "t": 99609.33515625013,
      "d": 60.76386458333582,
      "v": 93
    },
    {
      "midi": 48,
      "hit": false,
      "t": 99817.66840625013,
      "d": 13.020828124994296,
      "v": 34
    },
    {
      "midi": 62,
      "hit": false,
      "t": 99839.36978645822,
      "d": 3324.6514479166653,
      "v": 96
    },
    {
      "midi": 69,
      "hit": false,
      "t": 99839.36978645822,
      "d": 3324.6514479166653,
      "v": 96
    },
    {
      "midi": 65,
      "hit": false,
      "t": 99839.36978645822,
      "d": 3328.99172395833,
      "v": 96
    },
    {
      "midi": 62,
      "hit": false,
      "t": 99986.939171875,
      "d": 1640.6243437499943,
      "v": 46
    },
    {
      "midi": 74,
      "hit": false,
      "t": 100008.64055208334,
      "d": 1640.6243437499943,
      "v": 48
    },
    {
      "midi": 38,
      "hit": false,
      "t": 100034.68220833344,
      "d": 781.249687500007,
      "v": 96
    },
    {
      "midi": 69,
      "hit": false,
      "t": 100039.0224843749,
      "d": 677.0830624999944,
      "v": 94
    },
    {
      "midi": 50,
      "hit": false,
      "t": 100039.02248437512,
      "d": 65.10414062500058,
      "v": 96
    },
    {
      "midi": 57,
      "hit": false,
      "t": 100039.02248437512,
      "d": 65.10414062500058,
      "v": 127
    },
    {
      "midi": 74,
      "hit": false,
      "t": 100043.36276041657,
      "d": 672.7427864583296,
      "v": 96
    },
    {
      "midi": 50,
      "hit": false,
      "t": 100047.70303645823,
      "d": 668.4025104166649,
      "v": 97
    },
    {
      "midi": 65,
      "hit": false,
      "t": 100047.70303645823,
      "d": 668.4025104166649,
      "v": 85
    },
    {
      "midi": 57,
      "hit": false,
      "t": 100229.99463020846,
      "d": 47.74303645832697,
      "v": 60
    },
    {
      "midi": 57,
      "hit": false,
      "t": 100438.32788020845,
      "d": 47.74303645832697,
      "v": 66
    },
    {
      "midi": 50,
      "hit": false,
      "t": 100646.66113020845,
      "d": 65.10414062500058,
      "v": 96
    },
    {
      "midi": 57,
      "hit": false,
      "t": 100651.00140625011,
      "d": 78.12496875000943,
      "v": 127
    },
    {
      "midi": 57,
      "hit": false,
      "t": 100859.33465625012,
      "d": 26.041656250003143,
      "v": 63
    },
    {
      "midi": 57,
      "hit": false,
      "t": 101063.32763020846,
      "d": 47.74303645832697,
      "v": 53
    },
    {
      "midi": 50,
      "hit": false,
      "t": 101276.00115625012,
      "d": 60.76386458333582,
      "v": 96
    },
    {
      "midi": 38,
      "hit": false,
      "t": 101276.00115625012,
      "d": 60.76386458333582,
      "v": 96
    },
    {
      "midi": 57,
      "hit": false,
      "t": 101280.34143229178,
      "d": 73.78469270834466,
      "v": 127
    },
    {
      "midi": 57,
      "hit": false,
      "t": 101479.99413020846,
      "d": 13.020828124994296,
      "v": 30
    },
    {
      "midi": 57,
      "hit": false,
      "t": 101644.92461979167,
      "d": 1180.55508333334,
      "v": 47
    },
    {
      "midi": 69,
      "hit": false,
      "t": 101666.626,
      "d": 1180.55508333334,
      "v": 49
    },
    {
      "midi": 38,
      "hit": false,
      "t": 101688.32738020846,
      "d": 1471.3535781249957,
      "v": 96
    },
    {
      "midi": 57,
      "hit": false,
      "t": 101692.66765625012,
      "d": 43.402760416662204,
      "v": 44
    },
    {
      "midi": 50,
      "hit": false,
      "t": 101896.66063020845,
      "d": 65.10414062500058,
      "v": 96
    },
    {
      "midi": 57,
      "hit": false,
      "t": 101896.66063020845,
      "d": 82.4652447916742,
      "v": 127
    },
    {
      "midi": 57,
      "hit": false,
      "t": 102104.99388020847,
      "d": 47.74303645832697,
      "v": 53
    },
    {
      "midi": 57,
      "hit": false,
      "t": 102313.32713020846,
      "d": 47.74303645832697,
      "v": 44
    },
    {
      "midi": 50,
      "hit": false,
      "t": 102521.66038020846,
      "d": 82.46524479165964,
      "v": 96
    },
    {
      "midi": 57,
      "hit": false,
      "t": 102526.00065625012,
      "d": 95.48607291666849,
      "v": 127
    },
    {
      "midi": 57,
      "hit": false,
      "t": 102729.99363020845,
      "d": 65.10414062500058,
      "v": 43
    },
    {
      "midi": 56,
      "hit": false,
      "t": 102920.96577604167,
      "d": 442.7081562499952,
      "v": 45
    },
    {
      "midi": 62,
      "hit": false,
      "t": 102942.6671562499,
      "d": 221.3540781250049,
      "v": 85
    },
    {
      "midi": 68,
      "hit": false,
      "t": 102942.66715625001,
      "d": 442.7081562499952,
      "v": 47
    },
    {
      "midi": 53,
      "hit": false,
      "t": 102947.0074322918,
      "d": 108.50690104166279,
      "v": 87
    },
    {
      "midi": 57,
      "hit": false,
      "t": 103146.66013020823,
      "d": 17.361104166673613,
      "v": 85
    },
    {
      "midi": 53,
      "hit": false,
      "t": 103151.00040625012,
      "d": 13.020828124994296,
      "v": 38
    },
    {
      "midi": 62,
      "hit": false,
      "t": 103168.36151041655,
      "d": 26.041656250003143,
      "v": 96
    },
    {
      "midi": 71,
      "hit": false,
      "t": 103168.36151041655,
      "d": 26.041656250003143,
      "v": 96
    },
    {
      "midi": 66,
      "hit": false,
      "t": 103168.36151041655,
      "d": 30.38193229166791,
      "v": 96
    },
    {
      "midi": 62,
      "hit": false,
      "t": 103203.08371874988,
      "d": 3328.99172395833,
      "v": 96
    },
    {
      "midi": 67,
      "hit": false,
      "t": 103203.08371874988,
      "d": 3328.99172395833,
      "v": 96
    },
    {
      "midi": 71,
      "hit": false,
      "t": 103203.08371874988,
      "d": 3328.99172395833,
      "v": 96
    },
    {
      "midi": 43,
      "hit": false,
      "t": 103368.01420833345,
      "d": 86.80552083332441,
      "v": 96
    },
    {
      "midi": 31,
      "hit": false,
      "t": 103368.01420833345,
      "d": 781.249687500007,
      "v": 96
    },
    {
      "midi": 59,
      "hit": false,
      "t": 103372.35448437512,
      "d": 99.82634895833326,
      "v": 127
    },
    {
      "midi": 55,
      "hit": false,
      "t": 103376.69476041656,
      "d": 668.4025104166649,
      "v": 97
    },
    {
      "midi": 62,
      "hit": false,
      "t": 103376.69476041656,
      "d": 668.4025104166649,
      "v": 94
    },
    {
      "midi": 67,
      "hit": false,
      "t": 103376.69476041656,
      "d": 668.4025104166649,
      "v": 85
    },
    {
      "midi": 71,
      "hit": false,
      "t": 103381.03503645823,
      "d": 668.4025104166649,
      "v": 96
    },
    {
      "midi": 37,
      "hit": false,
      "t": 103433.11834895833,
      "d": 8.68055208332953,
      "v": 46
    },
    {
      "midi": 55,
      "hit": false,
      "t": 103446.13917708333,
      "d": 2365.4504427083302,
      "v": 46
    },
    {
      "midi": 49,
      "hit": false,
      "t": 103454.81972916667,
      "d": 8.68055208332953,
      "v": 48
    },
    {
      "midi": 67,
      "hit": false,
      "t": 103467.84055729167,
      "d": 2365.4504427083302,
      "v": 48
    },
    {
      "midi": 59,
      "hit": false,
      "t": 103563.32663020845,
      "d": 30.38193229166791,
      "v": 31
    },
    {
      "midi": 59,
      "hit": false,
      "t": 103771.65988020845,
      "d": 47.74303645832697,
      "v": 57
    },
    {
      "midi": 43,
      "hit": false,
      "t": 103979.99313020844,
      "d": 82.46524479165964,
      "v": 96
    },
    {
      "midi": 59,
      "hit": false,
      "t": 103984.33340625011,
      "d": 95.48607291666849,
      "v": 127
    },
    {
      "midi": 59,
      "hit": false,
      "t": 104188.32638020844,
      "d": 65.10414062500058,
      "v": 31
    },
    {
      "midi": 59,
      "hit": false,
      "t": 104396.65963020844,
      "d": 65.10414062500058,
      "v": 66
    },
    {
      "midi": 43,
      "hit": false,
      "t": 104609.3331562501,
      "d": 78.12496874999488,
      "v": 96
    },
    {
      "midi": 59,
      "hit": false,
      "t": 104609.3331562501,
      "d": 78.12496874999488,
      "v": 127
    },
    {
      "midi": 31,
      "hit": false,
      "t": 104609.33315625013,
      "d": 60.76386458333582,
      "v": 96
    },
    {
      "midi": 59,
      "hit": false,
      "t": 104813.32613020843,
      "d": 47.74303645832697,
      "v": 65
    },
    {
      "midi": 31,
      "hit": false,
      "t": 105021.65938020847,
      "d": 898.4371406249993,
      "v": 96
    },
    {
      "midi": 59,
      "hit": false,
      "t": 105025.99965625009,
      "d": 26.041656250003143,
      "v": 52
    },
    {
      "midi": 43,
      "hit": false,
      "t": 105229.99263020842,
      "d": 82.46524479165964,
      "v": 96
    },
    {
      "midi": 59,
      "hit": false,
      "t": 105229.99263020842,
      "d": 99.82634895833326,
      "v": 127
    },
    {
      "midi": 59,
      "hit": false,
      "t": 105438.32588020842,
      "d": 30.38193229166791,
      "v": 31
    },
    {
      "midi": 59,
      "hit": false,
      "t": 105646.65913020841,
      "d": 47.74303645832697,
      "v": 62
    },
    {
      "midi": 43,
      "hit": false,
      "t": 105854.99238020841,
      "d": 99.82634895833326,
      "v": 96
    },
    {
      "midi": 59,
      "hit": false,
      "t": 105859.33265625007,
      "d": 95.48607291666849,
      "v": 127
    },
    {
      "midi": 55,
      "hit": false,
      "t": 106067.66590625007,
      "d": 130.20828125000116,
      "v": 92
    },
    {
      "midi": 31,
      "hit": false,
      "t": 106067.66590625013,
      "d": 8.68055208332953,
      "v": 96
    },
    {
      "midi": 38,
      "hit": false,
      "t": 106271.65888020846,
      "d": 256.07628645833756,
      "v": 96
    },
    {
      "midi": 55,
      "hit": false,
      "t": 106275.99915625007,
      "d": 78.12496874999488,
      "v": 36
    },
    {
      "midi": 43,
      "hit": false,
      "t": 106479.9921302084,
      "d": 47.74303645832697,
      "v": 36
    },
    {
      "midi": 60,
      "hit": false,
      "t": 106649.26289583332,
      "d": 1840.2770416666608,
      "v": 44
    },
    {
      "midi": 72,
      "hit": false,
      "t": 106670.96427604166,
      "d": 1840.2770416666608,
      "v": 46
    },
    {
      "midi": 36,
      "hit": false,
      "t": 106701.34620833347,
      "d": 781.249687500007,
      "v": 96
    },
    {
      "midi": 52,
      "hit": false,
      "t": 106705.68648437489,
      "d": 672.7427864583296,
      "v": 97
    },
    {
      "midi": 48,
      "hit": false,
      "t": 106705.68648437505,
      "d": 65.10414062500058,
      "v": 96
    },
    {
      "midi": 55,
      "hit": false,
      "t": 106705.68648437505,
      "d": 65.10414062500058,
      "v": 127
    },
    {
      "midi": 60,
      "hit": false,
      "t": 106710.02676041656,
      "d": 668.4025104166649,
      "v": 85
    },
    {
      "midi": 64,
      "hit": false,
      "t": 106710.02676041656,
      "d": 668.4025104166649,
      "v": 94
    },
    {
      "midi": 67,
      "hit": false,
      "t": 106710.02676041656,
      "d": 672.7427864583296,
      "v": 96
    },
    {
      "midi": 60,
      "hit": false,
      "t": 106714.3670364582,
      "d": 6618.920963541663,
      "v": 96
    },
    {
      "midi": 64,
      "hit": false,
      "t": 106714.3670364582,
      "d": 6623.261239583328,
      "v": 96
    },
    {
      "midi": 67,
      "hit": false,
      "t": 106714.3670364582,
      "d": 6623.261239583328,
      "v": 96
    },
    {
      "midi": 55,
      "hit": false,
      "t": 106892.31835416672,
      "d": 52.083312500006286,
      "v": 60
    },
    {
      "midi": 55,
      "hit": false,
      "t": 107104.9918802084,
      "d": 47.74303645832697,
      "v": 66
    },
    {
      "midi": 48,
      "hit": false,
      "t": 107313.3251302084,
      "d": 65.10414062500058,
      "v": 96
    },
    {
      "midi": 55,
      "hit": false,
      "t": 107313.3251302084,
      "d": 82.4652447916742,
      "v": 127
    },
    {
      "midi": 55,
      "hit": false,
      "t": 107521.6583802084,
      "d": 30.38193229166791,
      "v": 63
    },
    {
      "midi": 55,
      "hit": false,
      "t": 107729.9916302084,
      "d": 47.74303645832697,
      "v": 53
    },
    {
      "midi": 36,
      "hit": false,
      "t": 107938.32488020849,
      "d": 65.10414062500058,
      "v": 96
    },
    {
      "midi": 48,
      "hit": false,
      "t": 107942.66515625006,
      "d": 60.76386458333582,
      "v": 96
    },
    {
      "midi": 55,
      "hit": false,
      "t": 107942.66515625006,
      "d": 78.12496875000943,
      "v": 127
    },
    {
      "midi": 55,
      "hit": false,
      "t": 108142.31785416674,
      "d": 17.361104166673613,
      "v": 30
    },
    {
      "midi": 64,
      "hit": false,
      "t": 108315.92889583322,
      "d": 694.444166666668,
      "v": 96
    },
    {
      "midi": 55,
      "hit": false,
      "t": 108354.99138020842,
      "d": 47.74303645832697,
      "v": 44
    },
    {
      "midi": 36,
      "hit": false,
      "t": 108354.99138020849,
      "d": 1523.436890625002,
      "v": 96
    },
    {
      "midi": 72,
      "hit": false,
      "t": 108359.33165624988,
      "d": 685.7636145833385,
      "v": 96
    },
    {
      "midi": 79,
      "hit": false,
      "t": 108385.37331249988,
      "d": 694.444166666668,
      "v": 96
    },
    {
      "midi": 48,
      "hit": false,
      "t": 108563.32463020842,
      "d": 65.10414062500058,
      "v": 96
    },
    {
      "midi": 55,
      "hit": false,
      "t": 108563.32463020842,
      "d": 82.4652447916742,
      "v": 127
    },
    {
      "midi": 55,
      "hit": false,
      "t": 108771.65788020843,
      "d": 47.74303645832697,
      "v": 53
    },
    {
      "midi": 55,
      "hit": false,
      "t": 108979.99113020842,
      "d": 47.74303645832697,
      "v": 44
    },
    {
      "midi": 48,
      "hit": false,
      "t": 109188.32438020842,
      "d": 82.46524479165964,
      "v": 96
    },
    {
      "midi": 55,
      "hit": false,
      "t": 109192.66465625008,
      "d": 95.48607291666849,
      "v": 127
    },
    {
      "midi": 55,
      "hit": false,
      "t": 109396.65763020841,
      "d": 65.10414062500058,
      "v": 43
    },
    {
      "midi": 52,
      "hit": false,
      "t": 109604.99088020841,
      "d": 47.74303645832697,
      "v": 81
    },
    {
      "midi": 52,
      "hit": false,
      "t": 109813.3241302084,
      "d": 13.020828124994296,
      "v": 35
    },
    {
      "midi": 67,
      "hit": false,
      "t": 110017.31710416665,
      "d": 1371.5272291666624,
      "v": 46
    },
    {
      "midi": 36,
      "hit": false,
      "t": 110030.33793229183,
      "d": 785.5899635416718,
      "v": 96
    },
    {
      "midi": 48,
      "hit": false,
      "t": 110034.6782083334,
      "d": 86.80552083333896,
      "v": 96
    },
    {
      "midi": 55,
      "hit": false,
      "t": 110034.6782083334,
      "d": 104.16662500001257,
      "v": 127
    },
    {
      "midi": 52,
      "hit": false,
      "t": 110039.01848437489,
      "d": 672.7427864583296,
      "v": 97
    },
    {
      "midi": 60,
      "hit": false,
      "t": 110039.01848437489,
      "d": 672.7427864583296,
      "v": 94
    },
    {
      "midi": 67,
      "hit": false,
      "t": 110039.01848437489,
      "d": 672.7427864583296,
      "v": 96
    },
    {
      "midi": 79,
      "hit": false,
      "t": 110039.01848437499,
      "d": 1371.5272291666624,
      "v": 48
    },
    {
      "midi": 76,
      "hit": false,
      "t": 110043.35876041655,
      "d": 668.4025104166649,
      "v": 85
    },
    {
      "midi": 55,
      "hit": false,
      "t": 110225.65035416675,
      "d": 34.722208333332674,
      "v": 31
    },
    {
      "midi": 55,
      "hit": false,
      "t": 110433.98360416674,
      "d": 52.083312500006286,
      "v": 57
    },
    {
      "midi": 48,
      "hit": false,
      "t": 110646.65713020842,
      "d": 82.46524479165964,
      "v": 96
    },
    {
      "midi": 55,
      "hit": false,
      "t": 110646.65713020842,
      "d": 99.82634895833326,
      "v": 127
    },
    {
      "midi": 55,
      "hit": false,
      "t": 110854.99038020842,
      "d": 65.10414062500058,
      "v": 31
    },
    {
      "midi": 55,
      "hit": false,
      "t": 111063.32363020841,
      "d": 65.10414062500058,
      "v": 66
    },
    {
      "midi": 36,
      "hit": false,
      "t": 111271.65688020851,
      "d": 65.10414062500058,
      "v": 96
    },
    {
      "midi": 48,
      "hit": false,
      "t": 111275.99715625007,
      "d": 78.12496874999488,
      "v": 96
    },
    {
      "midi": 55,
      "hit": false,
      "t": 111275.99715625007,
      "d": 78.12496874999488,
      "v": 127
    },
    {
      "midi": 55,
      "hit": false,
      "t": 111475.64985416674,
      "d": 52.083312500006286,
      "v": 65
    },
    {
      "midi": 55,
      "hit": false,
      "t": 111688.32338020841,
      "d": 30.38193229166791,
      "v": 52
    },
    {
      "midi": 36,
      "hit": false,
      "t": 111688.32338020852,
      "d": 1523.436890625002,
      "v": 96
    },
    {
      "midi": 48,
      "hit": false,
      "t": 111892.31635416675,
      "d": 86.80552083332441,
      "v": 96
    },
    {
      "midi": 55,
      "hit": false,
      "t": 111896.65663020841,
      "d": 99.82634895833326,
      "v": 127
    },
    {
      "midi": 55,
      "hit": false,
      "t": 112104.9898802084,
      "d": 30.38193229166791,
      "v": 31
    },
    {
      "midi": 64,
      "hit": false,
      "t": 112313.32313020821,
      "d": 690.1038906250033,
      "v": 85
    },
    {
      "midi": 55,
      "hit": false,
      "t": 112313.3231302084,
      "d": 47.74303645832697,
      "v": 62
    },
    {
      "midi": 55,
      "hit": false,
      "t": 112478.25361979165,
      "d": 2304.6865781249944,
      "v": 46
    },
    {
      "midi": 67,
      "hit": false,
      "t": 112499.95499999999,
      "d": 2304.6865781249944,
      "v": 48
    },
    {
      "midi": 48,
      "hit": false,
      "t": 112521.6563802084,
      "d": 99.82634895833326,
      "v": 96
    },
    {
      "midi": 55,
      "hit": false,
      "t": 112521.6563802084,
      "d": 99.82634895833326,
      "v": 127
    },
    {
      "midi": 67,
      "hit": false,
      "t": 112729.98963020822,
      "d": 481.77064062499267,
      "v": 85
    },
    {
      "midi": 55,
      "hit": false,
      "t": 112729.9896302084,
      "d": 30.38193229166791,
      "v": 69
    },
    {
      "midi": 52,
      "hit": false,
      "t": 112938.32288020839,
      "d": 65.10414062500058,
      "v": 93
    },
    {
      "midi": 52,
      "hit": false,
      "t": 113146.65613020839,
      "d": 13.020828124994296,
      "v": 34
    },
    {
      "midi": 60,
      "hit": false,
      "t": 113315.92689583331,
      "d": 2122.3949843750015,
      "v": 45
    },
    {
      "midi": 72,
      "hit": false,
      "t": 113337.62827604165,
      "d": 2122.3949843750015,
      "v": 47
    },
    {
      "midi": 52,
      "hit": false,
      "t": 113368.01020833322,
      "d": 677.0830624999944,
      "v": 97
    },
    {
      "midi": 60,
      "hit": false,
      "t": 113368.01020833322,
      "d": 677.0830624999944,
      "v": 85
    },
    {
      "midi": 64,
      "hit": false,
      "t": 113368.01020833322,
      "d": 677.0830624999944,
      "v": 94
    },
    {
      "midi": 67,
      "hit": false,
      "t": 113368.01020833322,
      "d": 677.0830624999944,
      "v": 96
    },
    {
      "midi": 36,
      "hit": false,
      "t": 113376.69076041685,
      "d": 2434.8948593749956,
      "v": 96
    },
    {
      "midi": 72,
      "hit": false,
      "t": 113381.0310364582,
      "d": 2434.8948593749665,
      "v": 96
    },
    {
      "midi": 72,
      "hit": false,
      "t": 113381.03103645821,
      "d": 664.0622343750001,
      "v": 96
    },
    {
      "midi": 55,
      "hit": false,
      "t": 113381.03103645839,
      "d": 2990.450192708333,
      "v": 56
    },
    {
      "midi": 60,
      "hit": false,
      "t": 113385.37131250005,
      "d": 2986.109916666668,
      "v": 56
    },
    {
      "midi": 55,
      "hit": false,
      "t": 113389.71158854153,
      "d": 2426.214307291637,
      "v": 96
    },
    {
      "midi": 64,
      "hit": false,
      "t": 113389.71158854153,
      "d": 2426.214307291637,
      "v": 96
    },
    {
      "midi": 67,
      "hit": false,
      "t": 113389.71158854172,
      "d": 2981.7696406250034,
      "v": 56
    },
    {
      "midi": 64,
      "hit": false,
      "t": 113394.05186458338,
      "d": 2981.7696406250034,
      "v": 56
    },
    {
      "midi": 36,
      "hit": false,
      "t": 116063.32163020852,
      "d": 60.76386458333582,
      "v": 96
    },
    {
      "midi": 31,
      "hit": false,
      "t": 116271.65488020852,
      "d": 99.82634895833326,
      "v": 96
    },
    {
      "midi": 28,
      "hit": false,
      "t": 116380.16178125018,
      "d": 26.041656250003143,
      "v": 96
    },
    {
      "midi": 28,
      "hit": false,
      "t": 116406.20343750018,
      "d": 238.71518229166395,
      "v": 96
    },
    {
      "midi": 28,
      "hit": false,
      "t": 116697.00193229185,
      "d": 781.249687500007,
      "v": 96
    },
    {
      "midi": 64,
      "hit": false,
      "t": 116705.68248437488,
      "d": 672.7427864583296,
      "v": 94
    },
    {
      "midi": 40,
      "hit": false,
      "t": 116705.68248437505,
      "d": 60.76386458333582,
      "v": 96
    },
    {
      "midi": 56,
      "hit": false,
      "t": 116705.68248437505,
      "d": 60.76386458333582,
      "v": 127
    },
    {
      "midi": 59,
      "hit": false,
      "t": 116710.0227604165,
      "d": 3103.2973697916605,
      "v": 96
    },
    {
      "midi": 64,
      "hit": false,
      "t": 116710.0227604165,
      "d": 3103.2973697916605,
      "v": 96
    },
    {
      "midi": 68,
      "hit": false,
      "t": 116710.02276041654,
      "d": 668.4025104166649,
      "v": 96
    },
    {
      "midi": 68,
      "hit": false,
      "t": 116714.36303645816,
      "d": 3098.9570937499957,
      "v": 96
    },
    {
      "midi": 62,
      "hit": false,
      "t": 116718.70331249987,
      "d": 659.7219583333354,
      "v": 85
    },
    {
      "midi": 71,
      "hit": false,
      "t": 116718.70331249987,
      "d": 659.7219583333354,
      "v": 97
    },
    {
      "midi": 62,
      "hit": false,
      "t": 116723.04358854149,
      "d": 3090.276541666666,
      "v": 96
    },
    {
      "midi": 56,
      "hit": false,
      "t": 116892.31435416672,
      "d": 47.74303645832697,
      "v": 60
    },
    {
      "midi": 56,
      "hit": false,
      "t": 117100.64760416672,
      "d": 47.74303645832697,
      "v": 66
    },
    {
      "midi": 59,
      "hit": false,
      "t": 117135.36981249998,
      "d": 1158.8537031250016,
      "v": 47
    },
    {
      "midi": 71,
      "hit": false,
      "t": 117157.07119270832,
      "d": 1158.8537031250016,
      "v": 49
    },
    {
      "midi": 40,
      "hit": false,
      "t": 117313.32113020838,
      "d": 60.76386458333582,
      "v": 96
    },
    {
      "midi": 56,
      "hit": false,
      "t": 117313.32113020838,
      "d": 78.12496875000943,
      "v": 127
    },
    {
      "midi": 56,
      "hit": false,
      "t": 117521.65438020839,
      "d": 26.041656250003143,
      "v": 63
    },
    {
      "midi": 56,
      "hit": false,
      "t": 117725.64735416672,
      "d": 47.74303645832697,
      "v": 53
    },
    {
      "midi": 64,
      "hit": false,
      "t": 117756.02928645832,
      "d": 1158.8537031250016,
      "v": 44
    },
    {
      "midi": 76,
      "hit": false,
      "t": 117777.73066666666,
      "d": 1158.8537031250016,
      "v": 46
    },
    {
      "midi": 40,
      "hit": false,
      "t": 117938.32088020838,
      "d": 65.10414062500058,
      "v": 96
    },
    {
      "midi": 28,
      "hit": false,
      "t": 117938.32088020853,
      "d": 60.76386458333582,
      "v": 96
    },
    {
      "midi": 56,
      "hit": false,
      "t": 117942.66115625005,
      "d": 73.78469270833011,
      "v": 127
    },
    {
      "midi": 56,
      "hit": false,
      "t": 118142.31385416671,
      "d": 17.361104166673613,
      "v": 30
    },
    {
      "midi": 64,
      "hit": false,
      "t": 118315.9248958332,
      "d": 690.1038906250033,
      "v": 96
    },
    {
      "midi": 59,
      "hit": false,
      "t": 118315.9248958332,
      "d": 694.444166666668,
      "v": 96
    },
    {
      "midi": 59,
      "hit": false,
      "t": 118346.30682812499,
      "d": 1488.7146822916548,
      "v": 46
    },
    {
      "midi": 56,
      "hit": false,
      "t": 118354.98738020839,
      "d": 43.402760416662204,
      "v": 44
    },
    {
      "midi": 28,
      "hit": false,
      "t": 118354.98738020853,
      "d": 1453.9924739583366,
      "v": 96
    },
    {
      "midi": 74,
      "hit": false,
      "t": 118359.32765624986,
      "d": 681.4233385416737,
      "v": 96
    },
    {
      "midi": 71,
      "hit": false,
      "t": 118368.00820833333,
      "d": 1488.7146822916548,
      "v": 48
    },
    {
      "midi": 80,
      "hit": false,
      "t": 118385.36931249987,
      "d": 690.1038906250033,
      "v": 96
    },
    {
      "midi": 40,
      "hit": false,
      "t": 118558.98035416672,
      "d": 65.10414062500058,
      "v": 96
    },
    {
      "midi": 56,
      "hit": false,
      "t": 118563.32063020839,
      "d": 78.12496875000943,
      "v": 127
    },
    {
      "midi": 56,
      "hit": false,
      "t": 118767.31360416673,
      "d": 47.74303645832697,
      "v": 53
    },
    {
      "midi": 64,
      "hit": false,
      "t": 118958.28574999998,
      "d": 842.0135520833282,
      "v": 44
    },
    {
      "midi": 56,
      "hit": false,
      "t": 118975.64685416673,
      "d": 47.74303645832697,
      "v": 44
    },
    {
      "midi": 76,
      "hit": false,
      "t": 118979.98713020832,
      "d": 842.0135520833282,
      "v": 46
    },
    {
      "midi": 40,
      "hit": false,
      "t": 119188.32038020839,
      "d": 78.12496874999488,
      "v": 96
    },
    {
      "midi": 56,
      "hit": false,
      "t": 119188.32038020839,
      "d": 95.48607291666849,
      "v": 127
    },
    {
      "midi": 56,
      "hit": false,
      "t": 119392.31335416672,
      "d": 65.10414062500058,
      "v": 43
    },
    {
      "midi": 52,
      "hit": false,
      "t": 119604.98688020838,
      "d": 43.402760416662204,
      "v": 81
    },
    {
      "midi": 60,
      "hit": false,
      "t": 119817.66040624982,
      "d": 26.041656250003143,
      "v": 96
    },
    {
      "midi": 64,
      "hit": false,
      "t": 119817.66040624982,
      "d": 26.041656250003143,
      "v": 96
    },
    {
      "midi": 67,
      "hit": false,
      "t": 119817.66040624982,
      "d": 26.041656250003143,
      "v": 96
    },
    {
      "midi": 52,
      "hit": false,
      "t": 119822.0006822917,
      "d": 4.340276041664765,
      "v": 35
    },
    {
      "midi": 60,
      "hit": false,
      "t": 119848.04233854149,
      "d": 43.402760416662204,
      "v": 96
    },
    {
      "midi": 64,
      "hit": false,
      "t": 119848.04233854149,
      "d": 47.74303645832697,
      "v": 96
    },
    {
      "midi": 67,
      "hit": false,
      "t": 119848.04233854149,
      "d": 47.74303645832697,
      "v": 96
    },
    {
      "midi": 60,
      "hit": false,
      "t": 119900.12565104148,
      "d": 3276.9084114583384,
      "v": 96
    },
    {
      "midi": 64,
      "hit": false,
      "t": 119900.12565104148,
      "d": 3276.9084114583384,
      "v": 96
    },
    {
      "midi": 67,
      "hit": false,
      "t": 119900.12565104148,
      "d": 3276.9084114583384,
      "v": 96
    },
    {
      "midi": 48,
      "hit": false,
      "t": 120030.3339322917,
      "d": 86.80552083332441,
      "v": 96
    },
    {
      "midi": 36,
      "hit": false,
      "t": 120030.33393229188,
      "d": 781.249687500007,
      "v": 96
    },
    {
      "midi": 52,
      "hit": false,
      "t": 120034.67420833319,
      "d": 672.7427864583296,
      "v": 97
    },
    {
      "midi": 60,
      "hit": false,
      "t": 120034.67420833319,
      "d": 672.7427864583296,
      "v": 94
    },
    {
      "midi": 55,
      "hit": false,
      "t": 120034.67420833337,
      "d": 99.82634895833326,
      "v": 127
    },
    {
      "midi": 67,
      "hit": false,
      "t": 120039.01448437486,
      "d": 672.7427864583296,
      "v": 96
    },
    {
      "midi": 76,
      "hit": false,
      "t": 120039.01448437486,
      "d": 672.7427864583296,
      "v": 85
    },
    {
      "midi": 55,
      "hit": false,
      "t": 120225.6463541667,
      "d": 30.38193229166791,
      "v": 31
    },
    {
      "midi": 55,
      "hit": false,
      "t": 120433.9796041667,
      "d": 47.74303645832697,
      "v": 57
    },
    {
      "midi": 60,
      "hit": false,
      "t": 120473.04208854164,
      "d": 303.81932291666453,
      "v": 44
    },
    {
      "midi": 72,
      "hit": false,
      "t": 120494.74346874998,
      "d": 303.81932291666453,
      "v": 46
    },
    {
      "midi": 48,
      "hit": false,
      "t": 120642.3128541667,
      "d": 82.46524479165964,
      "v": 96
    },
    {
      "midi": 55,
      "hit": false,
      "t": 120646.65313020836,
      "d": 95.48607291666849,
      "v": 127
    },
    {
      "midi": 64,
      "hit": false,
      "t": 120846.30582812497,
      "d": 1358.5064010416681,
      "v": 45
    },
    {
      "midi": 55,
      "hit": false,
      "t": 120854.98638020836,
      "d": 60.76386458333582,
      "v": 31
    },
    {
      "midi": 76,
      "hit": false,
      "t": 120868.0072083333,
      "d": 1358.5064010416681,
      "v": 47
    },
    {
      "midi": 55,
      "hit": false,
      "t": 121058.97935416669,
      "d": 65.10414062500058,
      "v": 66
    },
    {
      "midi": 48,
      "hit": false,
      "t": 121271.65288020835,
      "d": 78.12496874999488,
      "v": 96
    },
    {
      "midi": 55,
      "hit": false,
      "t": 121271.65288020835,
      "d": 78.12496874999488,
      "v": 127
    },
    {
      "midi": 36,
      "hit": false,
      "t": 121271.65288020855,
      "d": 60.76386458333582,
      "v": 96
    },
    {
      "midi": 55,
      "hit": false,
      "t": 121475.64585416668,
      "d": 47.74303645832697,
      "v": 65
    },
    {
      "midi": 36,
      "hit": false,
      "t": 121683.9791041669,
      "d": 1488.7146822916693,
      "v": 96
    },
    {
      "midi": 55,
      "hit": false,
      "t": 121688.31938020834,
      "d": 26.041656250003143,
      "v": 52
    },
    {
      "midi": 48,
      "hit": false,
      "t": 121892.31235416667,
      "d": 82.46524479165964,
      "v": 96
    },
    {
      "midi": 55,
      "hit": false,
      "t": 121892.31235416667,
      "d": 99.82634895833326,
      "v": 127
    },
    {
      "midi": 55,
      "hit": false,
      "t": 122100.64560416667,
      "d": 30.38193229166791,
      "v": 31
    },
    {
      "midi": 55,
      "hit": false,
      "t": 122308.97885416666,
      "d": 47.74303645832697,
      "v": 62
    },
    {
      "midi": 64,
      "hit": false,
      "t": 122313.31913020818,
      "d": 685.7636145833385,
      "v": 85
    },
    {
      "midi": 48,
      "hit": false,
      "t": 122517.31210416666,
      "d": 99.82634895833326,
      "v": 96
    },
    {
      "midi": 55,
      "hit": false,
      "t": 122521.65238020832,
      "d": 95.48607291666849,
      "v": 127
    },
    {
      "midi": 55,
      "hit": false,
      "t": 122725.64535416666,
      "d": 30.38193229166791,
      "v": 69
    },
    {
      "midi": 67,
      "hit": false,
      "t": 122729.98563020819,
      "d": 447.04843229166,
      "v": 85
    },
    {
      "midi": 52,
      "hit": false,
      "t": 122938.31888020832,
      "d": 60.76386458333582,
      "v": 93
    },
    {
      "midi": 52,
      "hit": false,
      "t": 123146.65213020831,
      "d": 8.68055208332953,
      "v": 34
    },
    {
      "midi": 62,
      "hit": false,
      "t": 123181.37433854149,
      "d": 43.402760416662204,
      "v": 96
    },
    {
      "midi": 68,
      "hit": false,
      "t": 123181.37433854149,
      "d": 47.74303645832697,
      "v": 96
    },
    {
      "midi": 65,
      "hit": false,
      "t": 123185.71461458315,
      "d": 43.402760416662204,
      "v": 96
    },
    {
      "midi": 71,
      "hit": false,
      "t": 123185.71461458315,
      "d": 43.402760416662204,
      "v": 96
    },
    {
      "midi": 51,
      "hit": false,
      "t": 123216.09654687496,
      "d": 125.8680052083364,
      "v": 53
    },
    {
      "midi": 59,
      "hit": false,
      "t": 123233.45765104148,
      "d": 3294.2695156249974,
      "v": 96
    },
    {
      "midi": 64,
      "hit": false,
      "t": 123233.45765104148,
      "d": 3294.2695156249974,
      "v": 96
    },
    {
      "midi": 62,
      "hit": false,
      "t": 123233.45765104148,
      "d": 3298.609791666662,
      "v": 96
    },
    {
      "midi": 68,
      "hit": false,
      "t": 123233.45765104148,
      "d": 3298.609791666662,
      "v": 96
    },
    {
      "midi": 63,
      "hit": false,
      "t": 123237.7979270833,
      "d": 125.8680052083364,
      "v": 55
    },
    {
      "midi": 52,
      "hit": false,
      "t": 123350.64510416663,
      "d": 546.8747812499932,
      "v": 53
    },
    {
      "midi": 40,
      "hit": false,
      "t": 123363.66593229164,
      "d": 69.44441666666535,
      "v": 96
    },
    {
      "midi": 28,
      "hit": false,
      "t": 123363.6659322919,
      "d": 781.249687500007,
      "v": 96
    },
    {
      "midi": 68,
      "hit": false,
      "t": 123368.00620833319,
      "d": 672.7427864583296,
      "v": 94
    },
    {
      "midi": 56,
      "hit": false,
      "t": 123368.0062083333,
      "d": 65.10414062500058,
      "v": 127
    },
    {
      "midi": 71,
      "hit": false,
      "t": 123372.34648437485,
      "d": 668.4025104166649,
      "v": 96
    },
    {
      "midi": 64,
      "hit": false,
      "t": 123372.34648437497,
      "d": 546.8747812499932,
      "v": 55
    },
    {
      "midi": 59,
      "hit": false,
      "t": 123376.68676041652,
      "d": 668.4025104166649,
      "v": 97
    },
    {
      "midi": 62,
      "hit": false,
      "t": 123376.68676041652,
      "d": 668.4025104166649,
      "v": 97
    },
    {
      "midi": 64,
      "hit": false,
      "t": 123376.68676041652,
      "d": 668.4025104166649,
      "v": 85
    },
    {
      "midi": 56,
      "hit": false,
      "t": 123558.97835416664,
      "d": 47.74303645832697,
      "v": 60
    },
    {
      "midi": 56,
      "hit": false,
      "t": 123767.31160416664,
      "d": 47.74303645832697,
      "v": 66
    },
    {
      "midi": 56,
      "hit": false,
      "t": 123958.28374999996,
      "d": 490.45119270833675,
      "v": 48
    },
    {
      "midi": 40,
      "hit": false,
      "t": 123975.64485416663,
      "d": 65.10414062500058,
      "v": 96
    },
    {
      "midi": 56,
      "hit": false,
      "t": 123979.9851302083,
      "d": 78.12496875000943,
      "v": 127
    },
    {
      "midi": 68,
      "hit": false,
      "t": 123979.9851302083,
      "d": 490.45119270833675,
      "v": 50
    },
    {
      "midi": 56,
      "hit": false,
      "t": 124183.97810416664,
      "d": 30.38193229166791,
      "v": 63
    },
    {
      "midi": 56,
      "hit": false,
      "t": 124392.31135416664,
      "d": 47.74303645832697,
      "v": 53
    },
    {
      "midi": 59,
      "hit": false,
      "t": 124513.8390833333,
      "d": 512.1525729166606,
      "v": 48
    },
    {
      "midi": 71,
      "hit": false,
      "t": 124535.54046354163,
      "d": 512.1525729166606,
      "v": 50
    },
    {
      "midi": 40,
      "hit": false,
      "t": 124604.9848802083,
      "d": 60.76386458333582,
      "v": 96
    },
    {
      "midi": 56,
      "hit": false,
      "t": 124604.9848802083,
      "d": 78.12496875000943,
      "v": 127
    },
    {
      "midi": 38,
      "hit": false,
      "t": 124609.32515625024,
      "d": 56.42358854167105,
      "v": 96
    },
    {
      "midi": 56,
      "hit": false,
      "t": 124808.97785416665,
      "d": 13.020828124994296,
      "v": 30
    },
    {
      "midi": 56,
      "hit": false,
      "t": 125017.31110416664,
      "d": 47.74303645832697,
      "v": 44
    },
    {
      "midi": 28,
      "hit": false,
      "t": 125017.31110416692,
      "d": 1506.0757864583284,
      "v": 96
    },
    {
      "midi": 56,
      "hit": false,
      "t": 125069.39441666662,
      "d": 1210.9370156249934,
      "v": 49
    },
    {
      "midi": 68,
      "hit": false,
      "t": 125091.09579687496,
      "d": 1210.9370156249934,
      "v": 51
    },
    {
      "midi": 40,
      "hit": false,
      "t": 125225.64435416664,
      "d": 65.10414062500058,
      "v": 96
    },
    {
      "midi": 56,
      "hit": false,
      "t": 125225.64435416664,
      "d": 82.4652447916742,
      "v": 127
    },
    {
      "midi": 56,
      "hit": false,
      "t": 125433.97760416665,
      "d": 47.74303645832697,
      "v": 53
    },
    {
      "midi": 56,
      "hit": false,
      "t": 125642.31085416664,
      "d": 47.74303645832697,
      "v": 44
    },
    {
      "midi": 40,
      "hit": false,
      "t": 125850.64410416664,
      "d": 82.46524479165964,
      "v": 96
    },
    {
      "midi": 56,
      "hit": false,
      "t": 125854.9843802083,
      "d": 95.48607291666849,
      "v": 127
    },
    {
      "midi": 56,
      "hit": false,
      "t": 126058.97735416664,
      "d": 65.10414062500058,
      "v": 43
    },
    {
      "midi": 52,
      "hit": false,
      "t": 126271.6508802083,
      "d": 112.84717708332755,
      "v": 87
    },
    {
      "midi": 64,
      "hit": false,
      "t": 126275.99115624985,
      "d": 251.73601041665825,
      "v": 85
    },
    {
      "midi": 52,
      "hit": false,
      "t": 126475.64385416663,
      "d": 13.020828124994296,
      "v": 38
    },
    {
      "midi": 66,
      "hit": false,
      "t": 126479.98413020818,
      "d": 47.74303645832697,
      "v": 85
    },
    {
      "midi": 60,
      "hit": false,
      "t": 126536.4077187498,
      "d": 39.06248437499744,
      "v": 96
    },
    {
      "midi": 64,
      "hit": false,
      "t": 126536.4077187498,
      "d": 43.402760416662204,
      "v": 96
    },
    {
      "midi": 67,
      "hit": false,
      "t": 126536.4077187498,
      "d": 43.402760416662204,
      "v": 96
    },
    {
      "midi": 60,
      "hit": false,
      "t": 126584.15075520813,
      "d": 3133.6793020833284,
      "v": 96
    },
    {
      "midi": 64,
      "hit": false,
      "t": 126584.15075520813,
      "d": 3133.6793020833284,
      "v": 96
    },
    {
      "midi": 67,
      "hit": false,
      "t": 126584.15075520813,
      "d": 3138.019578124993,
      "v": 96
    },
    {
      "midi": 36,
      "hit": false,
      "t": 126692.65765625025,
      "d": 785.5899635416718,
      "v": 96
    },
    {
      "midi": 48,
      "hit": false,
      "t": 126696.99793229162,
      "d": 86.80552083332441,
      "v": 96
    },
    {
      "midi": 52,
      "hit": false,
      "t": 126701.33820833318,
      "d": 672.7427864583296,
      "v": 97
    },
    {
      "midi": 55,
      "hit": false,
      "t": 126701.33820833328,
      "d": 99.82634895833326,
      "v": 127
    },
    {
      "midi": 60,
      "hit": false,
      "t": 126705.67848437485,
      "d": 668.4025104166649,
      "v": 94
    },
    {
      "midi": 64,
      "hit": false,
      "t": 126705.67848437485,
      "d": 668.4025104166649,
      "v": 85
    },
    {
      "midi": 67,
      "hit": false,
      "t": 126705.67848437485,
      "d": 672.7427864583296,
      "v": 96
    },
    {
      "midi": 55,
      "hit": false,
      "t": 126892.31035416662,
      "d": 30.38193229166791,
      "v": 31
    },
    {
      "midi": 55,
      "hit": false,
      "t": 127100.64360416662,
      "d": 47.74303645832697,
      "v": 57
    },
    {
      "midi": 64,
      "hit": false,
      "t": 127113.66443229161,
      "d": 117.18745312500687,
      "v": 44
    },
    {
      "midi": 76,
      "hit": false,
      "t": 127135.36581249995,
      "d": 117.18745312500687,
      "v": 46
    },
    {
      "midi": 65,
      "hit": false,
      "t": 127295.95602604162,
      "d": 160.59021354166907,
      "v": 43
    },
    {
      "midi": 48,
      "hit": false,
      "t": 127308.97685416661,
      "d": 82.46524479165964,
      "v": 96
    },
    {
      "midi": 55,
      "hit": false,
      "t": 127313.31713020828,
      "d": 95.48607291666849,
      "v": 127
    },
    {
      "midi": 77,
      "hit": false,
      "t": 127317.65740624996,
      "d": 160.59021354166907,
      "v": 45
    },
    {
      "midi": 67,
      "hit": false,
      "t": 127499.94899999995,
      "d": 386.2845677083387,
      "v": 46
    },
    {
      "midi": 55,
      "hit": false,
      "t": 127517.31010416661,
      "d": 65.10414062500058,
      "v": 31
    },
    {
      "midi": 79,
      "hit": false,
      "t": 127521.65038020829,
      "d": 386.2845677083387,
      "v": 48
    },
    {
      "midi": 55,
      "hit": false,
      "t": 127725.6433541666,
      "d": 65.10414062500058,
      "v": 66
    },
    {
      "midi": 55,
      "hit": false,
      "t": 127894.91411979162,
      "d": 1697.0479322916653,
      "v": 45
    },
    {
      "midi": 67,
      "hit": false,
      "t": 127916.61549999996,
      "d": 1697.0479322916653,
      "v": 47
    },
    {
      "midi": 48,
      "hit": false,
      "t": 127938.31688020827,
      "d": 78.12496874999488,
      "v": 96
    },
    {
      "midi": 55,
      "hit": false,
      "t": 127938.31688020827,
      "d": 78.12496874999488,
      "v": 127
    },
    {
      "midi": 36,
      "hit": false,
      "t": 127938.31688020859,
      "d": 60.76386458333582,
      "v": 96
    },
    {
      "midi": 59,
      "hit": false,
      "t": 127946.99743229162,
      "d": 1375.8675052083272,
      "v": 44
    },
    {
      "midi": 71,
      "hit": false,
      "t": 127968.69881249996,
      "d": 1375.8675052083272,
      "v": 46
    },
    {
      "midi": 55,
      "hit": false,
      "t": 128137.96957812493,
      "d": 52.083312500006286,
      "v": 65
    },
    {
      "midi": 55,
      "hit": false,
      "t": 128350.64310416661,
      "d": 30.38193229166791,
      "v": 52
    },
    {
      "midi": 36,
      "hit": false,
      "t": 128350.64310416693,
      "d": 898.4371406249993,
      "v": 96
    },
    {
      "midi": 48,
      "hit": false,
      "t": 128558.9763541666,
      "d": 82.46524479165964,
      "v": 96
    },
    {
      "midi": 55,
      "hit": false,
      "t": 128558.9763541666,
      "d": 99.82634895833326,
      "v": 127
    },
    {
      "midi": 55,
      "hit": false,
      "t": 128767.3096041666,
      "d": 30.38193229166791,
      "v": 31
    },
    {
      "midi": 55,
      "hit": false,
      "t": 128975.6428541666,
      "d": 47.74303645832697,
      "v": 62
    },
    {
      "midi": 48,
      "hit": false,
      "t": 129183.97610416659,
      "d": 99.82634895833326,
      "v": 96
    },
    {
      "midi": 55,
      "hit": false,
      "t": 129188.31638020826,
      "d": 95.48607291666849,
      "v": 127
    },
    {
      "midi": 36,
      "hit": false,
      "t": 129392.30935416692,
      "d": 13.020828124994296,
      "v": 96
    },
    {
      "midi": 52,
      "hit": false,
      "t": 129396.64963020825,
      "d": 130.20828125000116,
      "v": 92
    },
    {
      "midi": 31,
      "hit": false,
      "t": 129600.64260416692,
      "d": 117.18745312500687,
      "v": 96
    },
    {
      "midi": 52,
      "hit": false,
      "t": 129604.98288020825,
      "d": 78.12496874999488,
      "v": 36
    },
    {
      "midi": 61,
      "hit": false,
      "t": 129726.51060937479,
      "d": 43.402760416662204,
      "v": 96
    },
    {
      "midi": 64,
      "hit": false,
      "t": 129726.51060937479,
      "d": 43.402760416662204,
      "v": 96
    },
    {
      "midi": 69,
      "hit": false,
      "t": 129726.51060937479,
      "d": 47.74303645832697,
      "v": 96
    },
    {
      "midi": 33,
      "hit": false,
      "t": 129726.51060937525,
      "d": 43.402760416662204,
      "v": 96
    },
    {
      "midi": 60,
      "hit": false,
      "t": 129774.25364583312,
      "d": 52.083312499991735,
      "v": 96
    },
    {
      "midi": 33,
      "hit": false,
      "t": 129774.25364583358,
      "d": 47.74303645832697,
      "v": 96
    },
    {
      "midi": 64,
      "hit": false,
      "t": 129778.59392187478,
      "d": 47.74303645832697,
      "v": 96
    },
    {
      "midi": 69,
      "hit": false,
      "t": 129778.59392187478,
      "d": 47.74303645832697,
      "v": 96
    },
    {
      "midi": 45,
      "hit": false,
      "t": 129808.97585416658,
      "d": 13.020828124994296,
      "v": 36
    },
    {
      "midi": 33,
      "hit": false,
      "t": 130025.98965625024,
      "d": 785.5899635416718,
      "v": 96
    },
    {
      "midi": 60,
      "hit": false,
      "t": 130034.67020833318,
      "d": 672.7427864583296,
      "v": 85
    },
    {
      "midi": 45,
      "hit": false,
      "t": 130034.67020833323,
      "d": 65.10414062500058,
      "v": 96
    },
    {
      "midi": 57,
      "hit": false,
      "t": 130034.67020833323,
      "d": 65.10414062500058,
      "v": 127
    },
    {
      "midi": 60,
      "hit": false,
      "t": 130039.01048437477,
      "d": 3107.63764583334,
      "v": 96
    },
    {
      "midi": 69,
      "hit": false,
      "t": 130039.01048437484,
      "d": 668.4025104166649,
      "v": 96
    },
    {
      "midi": 69,
      "hit": false,
      "t": 130043.35076041643,
      "d": 3103.297369791675,
      "v": 96
    },
    {
      "midi": 45,
      "hit": false,
      "t": 130043.3507604165,
      "d": 664.0622343750001,
      "v": 97
    },
    {
      "midi": 64,
      "hit": false,
      "t": 130047.6910364581,
      "d": 3098.9570937500102,
      "v": 96
    },
    {
      "midi": 64,
      "hit": false,
      "t": 130047.69103645817,
      "d": 664.0622343750001,
      "v": 94
    },
    {
      "midi": 57,
      "hit": false,
      "t": 130221.3020781249,
      "d": 52.083312500006286,
      "v": 60
    },
    {
      "midi": 57,
      "hit": false,
      "t": 130429.63532812492,
      "d": 52.083312500006286,
      "v": 66
    },
    {
      "midi": 45,
      "hit": false,
      "t": 130642.3088541666,
      "d": 65.10414062500058,
      "v": 96
    },
    {
      "midi": 57,
      "hit": false,
      "t": 130642.3088541666,
      "d": 82.4652447916742,
      "v": 127
    },
    {
      "midi": 64,
      "hit": false,
      "t": 130824.60044791661,
      "d": 624.9997500000027,
      "v": 47
    },
    {
      "midi": 76,
      "hit": false,
      "t": 130846.30182812495,
      "d": 624.9997500000027,
      "v": 49
    },
    {
      "midi": 57,
      "hit": false,
      "t": 130850.6421041666,
      "d": 30.38193229166791,
      "v": 63
    },
    {
      "midi": 57,
      "hit": false,
      "t": 131058.9753541666,
      "d": 47.74303645834152,
      "v": 53
    },
    {
      "midi": 33,
      "hit": false,
      "t": 131267.3086041669,
      "d": 65.10414062498603,
      "v": 96
    },
    {
      "midi": 45,
      "hit": false,
      "t": 131271.64888020826,
      "d": 60.76386458333582,
      "v": 96
    },
    {
      "midi": 57,
      "hit": false,
      "t": 131271.64888020826,
      "d": 78.12496874999488,
      "v": 127
    },
    {
      "midi": 57,
      "hit": false,
      "t": 131471.30157812493,
      "d": 17.36110416665906,
      "v": 30
    },
    {
      "midi": 64,
      "hit": false,
      "t": 131644.91261979152,
      "d": 694.4441666666535,
      "v": 96
    },
    {
      "midi": 69,
      "hit": false,
      "t": 131679.63482812495,
      "d": 1180.55508333334,
      "v": 46
    },
    {
      "midi": 57,
      "hit": false,
      "t": 131683.97510416657,
      "d": 47.74303645832697,
      "v": 44
    },
    {
      "midi": 33,
      "hit": false,
      "t": 131683.9751041669,
      "d": 1458.3327500000014,
      "v": 96
    },
    {
      "midi": 72,
      "hit": false,
      "t": 131688.3153802082,
      "d": 685.7636145833239,
      "v": 96
    },
    {
      "midi": 81,
      "hit": false,
      "t": 131701.3362083333,
      "d": 1180.55508333334,
      "v": 48
    },
    {
      "midi": 81,
      "hit": false,
      "t": 131714.35703645818,
      "d": 694.4441666666826,
      "v": 96
    },
    {
      "midi": 45,
      "hit": false,
      "t": 131892.30835416657,
      "d": 65.10414062498603,
      "v": 96
    },
    {
      "midi": 57,
      "hit": false,
      "t": 131892.30835416657,
      "d": 82.46524479164509,
      "v": 127
    },
    {
      "midi": 57,
      "hit": false,
      "t": 132100.64160416654,
      "d": 47.74303645832697,
      "v": 53
    },
    {
      "midi": 57,
      "hit": false,
      "t": 132308.97485416653,
      "d": 47.74303645832697,
      "v": 44
    },
    {
      "midi": 45,
      "hit": false,
      "t": 132517.30810416653,
      "d": 82.4652447916742,
      "v": 96
    },
    {
      "midi": 57,
      "hit": false,
      "t": 132521.6483802082,
      "d": 95.48607291665394,
      "v": 127
    },
    {
      "midi": 57,
      "hit": false,
      "t": 132725.64135416652,
      "d": 65.10414062498603,
      "v": 43
    },
    {
      "midi": 48,
      "hit": false,
      "t": 132938.31488020817,
      "d": 43.402760416676756,
      "v": 81
    },
    {
      "midi": 62,
      "hit": false,
      "t": 133150.9884062498,
      "d": 39.06248437499744,
      "v": 96
    },
    {
      "midi": 66,
      "hit": false,
      "t": 133150.9884062498,
      "d": 39.06248437499744,
      "v": 96
    },
    {
      "midi": 69,
      "hit": false,
      "t": 133150.9884062498,
      "d": 39.06248437499744,
      "v": 96
    },
    {
      "midi": 54,
      "hit": false,
      "t": 133155.32868229153,
      "d": 4.340276041679317,
      "v": 35
    },
    {
      "midi": 62,
      "hit": false,
      "t": 133194.39116666646,
      "d": 3328.9917239583447,
      "v": 96
    },
    {
      "midi": 69,
      "hit": false,
      "t": 133194.39116666646,
      "d": 3328.9917239583447,
      "v": 96
    },
    {
      "midi": 65,
      "hit": false,
      "t": 133194.39116666646,
      "d": 3333.332000000024,
      "v": 96
    },
    {
      "midi": 38,
      "hit": false,
      "t": 133359.32165625022,
      "d": 785.5899635416572,
      "v": 96
    },
    {
      "midi": 50,
      "hit": false,
      "t": 133363.66193229155,
      "d": 86.80552083332441,
      "v": 96
    },
    {
      "midi": 57,
      "hit": false,
      "t": 133363.66193229155,
      "d": 104.16662499998347,
      "v": 127
    },
    {
      "midi": 62,
      "hit": false,
      "t": 133368.0022083332,
      "d": 672.7427864583442,
      "v": 94
    },
    {
      "midi": 69,
      "hit": false,
      "t": 133368.0022083332,
      "d": 672.7427864583442,
      "v": 96
    },
    {
      "midi": 50,
      "hit": false,
      "t": 133372.34248437488,
      "d": 668.4025104166649,
      "v": 97
    },
    {
      "midi": 77,
      "hit": false,
      "t": 133372.34248437488,
      "d": 668.4025104166649,
      "v": 85
    },
    {
      "midi": 57,
      "hit": false,
      "t": 133554.63407812486,
      "d": 34.722208333347226,
      "v": 31
    },
    {
      "midi": 57,
      "hit": false,
      "t": 133762.96732812488,
      "d": 52.083312500006286,
      "v": 57
    },
    {
      "midi": 57,
      "hit": false,
      "t": 133784.66870833328,
      "d": 1553.8188229166553,
      "v": 47
    },
    {
      "midi": 69,
      "hit": false,
      "t": 133806.37008854162,
      "d": 1553.8188229166553,
      "v": 49
    },
    {
      "midi": 50,
      "hit": false,
      "t": 133975.64085416656,
      "d": 82.4652447916742,
      "v": 96
    },
    {
      "midi": 57,
      "hit": false,
      "t": 133975.64085416656,
      "d": 99.82634895833326,
      "v": 127
    },
    {
      "midi": 57,
      "hit": false,
      "t": 134183.97410416655,
      "d": 65.10414062498603,
      "v": 31
    },
    {
      "midi": 57,
      "hit": false,
      "t": 134392.30735416655,
      "d": 65.10414062498603,
      "v": 66
    },
    {
      "midi": 50,
      "hit": false,
      "t": 134600.64060416655,
      "d": 82.4652447916742,
      "v": 96
    },
    {
      "midi": 38,
      "hit": false,
      "t": 134600.64060416687,
      "d": 65.10414062498603,
      "v": 96
    },
    {
      "midi": 57,
      "hit": false,
      "t": 134604.98088020823,
      "d": 78.12496874999488,
      "v": 127
    },
    {
      "midi": 57,
      "hit": false,
      "t": 134804.6335781249,
      "d": 47.74303645832697,
      "v": 65
    },
    {
      "midi": 57,
      "hit": false,
      "t": 135017.30710416654,
      "d": 30.38193229166791,
      "v": 52
    },
    {
      "midi": 38,
      "hit": false,
      "t": 135017.30710416686,
      "d": 1506.0757864583284,
      "v": 96
    },
    {
      "midi": 50,
      "hit": false,
      "t": 135221.30007812488,
      "d": 86.80552083335351,
      "v": 96
    },
    {
      "midi": 57,
      "hit": false,
      "t": 135225.64035416656,
      "d": 95.48607291668304,
      "v": 127
    },
    {
      "midi": 62,
      "hit": false,
      "t": 135394.9111197916,
      "d": 381.94429166667396,
      "v": 47
    },
    {
      "midi": 74,
      "hit": false,
      "t": 135416.61249999993,
      "d": 381.94429166667396,
      "v": 49
    },
    {
      "midi": 57,
      "hit": false,
      "t": 135433.9736041666,
      "d": 30.38193229166791,
      "v": 31
    },
    {
      "midi": 57,
      "hit": false,
      "t": 135642.30685416659,
      "d": 47.74303645832697,
      "v": 62
    },
    {
      "midi": 65,
      "hit": false,
      "t": 135646.6471302082,
      "d": 685.763614583353,
      "v": 85
    },
    {
      "midi": 60,
      "hit": false,
      "t": 135828.93872395827,
      "d": 325.52070312498836,
      "v": 46
    },
    {
      "midi": 50,
      "hit": false,
      "t": 135850.64010416658,
      "d": 95.48607291665394,
      "v": 96
    },
    {
      "midi": 57,
      "hit": false,
      "t": 135850.64010416658,
      "d": 99.82634895833326,
      "v": 127
    },
    {
      "midi": 72,
      "hit": false,
      "t": 135850.6401041666,
      "d": 325.52070312498836,
      "v": 48
    },
    {
      "midi": 69,
      "hit": false,
      "t": 136058.97335416655,
      "d": 464.40953645834816,
      "v": 85
    },
    {
      "midi": 57,
      "hit": false,
      "t": 136058.97335416658,
      "d": 26.04165624998859,
      "v": 69
    },
    {
      "midi": 57,
      "hit": false,
      "t": 136210.88301562492,
      "d": 390.6248437500035,
      "v": 45
    },
    {
      "midi": 69,
      "hit": false,
      "t": 136232.58439583326,
      "d": 390.6248437500035,
      "v": 47
    },
    {
      "midi": 53,
      "hit": false,
      "t": 136271.64688020822,
      "d": 60.76386458333582,
      "v": 93
    },
    {
      "midi": 53,
      "hit": false,
      "t": 136475.63985416657,
      "d": 13.020828125008848,
      "v": 34
    },
    {
      "midi": 62,
      "hit": false,
      "t": 136527.7231666665,
      "d": 3346.3528281250037,
      "v": 96
    },
    {
      "midi": 67,
      "hit": false,
      "t": 136532.06344270817,
      "d": 3342.0125520833244,
      "v": 96
    },
    {
      "midi": 65,
      "hit": false,
      "t": 136532.06344270817,
      "d": 3346.3528281250037,
      "v": 96
    },
    {
      "midi": 71,
      "hit": false,
      "t": 136532.06344270817,
      "d": 3346.3528281250037,
      "v": 96
    },
    {
      "midi": 59,
      "hit": false,
      "t": 136666.6119999999,
      "d": 1497.3952343749988,
      "v": 46
    },
    {
      "midi": 71,
      "hit": false,
      "t": 136688.31338020824,
      "d": 1497.3952343749988,
      "v": 48
    },
    {
      "midi": 31,
      "hit": false,
      "t": 136692.6536562502,
      "d": 781.249687500007,
      "v": 96
    },
    {
      "midi": 43,
      "hit": false,
      "t": 136696.99393229157,
      "d": 65.10414062498603,
      "v": 96
    },
    {
      "midi": 59,
      "hit": false,
      "t": 136696.99393229157,
      "d": 69.44441666666535,
      "v": 127
    },
    {
      "midi": 71,
      "hit": false,
      "t": 136701.33420833322,
      "d": 672.7427864583442,
      "v": 94
    },
    {
      "midi": 74,
      "hit": false,
      "t": 136701.33420833322,
      "d": 672.7427864583442,
      "v": 96
    },
    {
      "midi": 62,
      "hit": false,
      "t": 136705.6744843749,
      "d": 668.4025104166649,
      "v": 97
    },
    {
      "midi": 65,
      "hit": false,
      "t": 136705.6744843749,
      "d": 668.4025104166649,
      "v": 97
    },
    {
      "midi": 67,
      "hit": false,
      "t": 136710.01476041658,
      "d": 668.4025104166649,
      "v": 85
    },
    {
      "midi": 59,
      "hit": false,
      "t": 136887.9660781249,
      "d": 47.74303645832697,
      "v": 60
    },
    {
      "midi": 59,
      "hit": false,
      "t": 137096.2993281249,
      "d": 52.083312500006286,
      "v": 66
    },
    {
      "midi": 43,
      "hit": false,
      "t": 137308.97285416658,
      "d": 60.76386458333582,
      "v": 96
    },
    {
      "midi": 59,
      "hit": false,
      "t": 137308.97285416658,
      "d": 78.12496874999488,
      "v": 127
    },
    {
      "midi": 59,
      "hit": false,
      "t": 137517.30610416658,
      "d": 26.04165624998859,
      "v": 63
    },
    {
      "midi": 59,
      "hit": false,
      "t": 137725.63935416657,
      "d": 43.402760416676756,
      "v": 53
    },
    {
      "midi": 43,
      "hit": false,
      "t": 137933.97260416657,
      "d": 65.10414062498603,
      "v": 96
    },
    {
      "midi": 59,
      "hit": false,
      "t": 137933.97260416657,
      "d": 78.12496874999488,
      "v": 127
    },
    {
      "midi": 29,
      "hit": false,
      "t": 137942.6531562502,
      "d": 52.083312500006286,
      "v": 96
    },
    {
      "midi": 59,
      "hit": false,
      "t": 138137.9655781249,
      "d": 17.36110416665906,
      "v": 30
    },
    {
      "midi": 59,
      "hit": false,
      "t": 138350.63910416653,
      "d": 43.402760416676756,
      "v": 44
    },
    {
      "midi": 62,
      "hit": false,
      "t": 138350.63910416656,
      "d": 898.4371406249993,
      "v": 47
    },
    {
      "midi": 31,
      "hit": false,
      "t": 138350.63910416685,
      "d": 1519.0966145833372,
      "v": 96
    },
    {
      "midi": 74,
      "hit": false,
      "t": 138372.3404843749,
      "d": 898.4371406249993,
      "v": 49
    },
    {
      "midi": 43,
      "hit": false,
      "t": 138554.63207812488,
      "d": 65.10414062501513,
      "v": 96
    },
    {
      "midi": 59,
      "hit": false,
      "t": 138558.97235416656,
      "d": 78.12496874999488,
      "v": 127
    },
    {
      "midi": 59,
      "hit": false,
      "t": 138767.30560416655,
      "d": 43.402760416676756,
      "v": 53
    },
    {
      "midi": 59,
      "hit": false,
      "t": 138971.2985781249,
      "d": 47.74303645832697,
      "v": 44
    },
    {
      "midi": 43,
      "hit": false,
      "t": 139183.97210416655,
      "d": 78.12496874999488,
      "v": 96
    },
    {
      "midi": 59,
      "hit": false,
      "t": 139183.97210416655,
      "d": 95.48607291665394,
      "v": 127
    },
    {
      "midi": 59,
      "hit": false,
      "t": 139387.96507812486,
      "d": 65.10414062498603,
      "v": 43
    },
    {
      "midi": 55,
      "hit": false,
      "t": 139600.6386041665,
      "d": 112.8471770833421,
      "v": 87
    },
    {
      "midi": 67,
      "hit": false,
      "t": 139604.97888020825,
      "d": 269.09711458333186,
      "v": 85
    },
    {
      "midi": 55,
      "hit": false,
      "t": 139808.9718541665,
      "d": 13.020828125008848,
      "v": 38
    },
    {
      "midi": 69,
      "hit": false,
      "t": 139808.9718541666,
      "d": 65.10414062498603,
      "v": 85
    },
    {
      "midi": 60,
      "hit": false,
      "t": 139882.75654687485,
      "d": 60.76386458333582,
      "v": 96
    },
    {
      "midi": 64,
      "hit": false,
      "t": 139882.75654687485,
      "d": 60.76386458333582,
      "v": 96
    },
    {
      "midi": 67,
      "hit": false,
      "t": 139882.75654687485,
      "d": 60.76386458333582,
      "v": 96
    },
    {
      "midi": 60,
      "hit": false,
      "t": 139943.5204114582,
      "d": 3298.6097916666768,
      "v": 96
    },
    {
      "midi": 64,
      "hit": false,
      "t": 139943.5204114582,
      "d": 3298.6097916666768,
      "v": 96
    },
    {
      "midi": 67,
      "hit": false,
      "t": 139947.86068749987,
      "d": 3294.2695156249974,
      "v": 96
    },
    {
      "midi": 36,
      "hit": false,
      "t": 140025.98565625018,
      "d": 781.249687500007,
      "v": 96
    },
    {
      "midi": 48,
      "hit": false,
      "t": 140030.3259322915,
      "d": 82.4652447916742,
      "v": 96
    },
    {
      "midi": 55,
      "hit": false,
      "t": 140030.3259322915,
      "d": 99.82634895833326,
      "v": 127
    },
    {
      "midi": 52,
      "hit": false,
      "t": 140034.66620833322,
      "d": 668.402510416694,
      "v": 97
    },
    {
      "midi": 60,
      "hit": false,
      "t": 140034.66620833322,
      "d": 672.7427864583733,
      "v": 94
    },
    {
      "midi": 64,
      "hit": false,
      "t": 140034.66620833322,
      "d": 672.7427864583733,
      "v": 85
    },
    {
      "midi": 67,
      "hit": false,
      "t": 140039.0064843749,
      "d": 668.402510416694,
      "v": 96
    },
    {
      "midi": 55,
      "hit": false,
      "t": 140221.29807812485,
      "d": 30.38193229166791,
      "v": 31
    },
    {
      "midi": 55,
      "hit": false,
      "t": 140412.27022395824,
      "d": 386.2845677083242,
      "v": 47
    },
    {
      "midi": 55,
      "hit": false,
      "t": 140429.63132812484,
      "d": 47.74303645832697,
      "v": 57
    },
    {
      "midi": 67,
      "hit": false,
      "t": 140433.97160416658,
      "d": 386.2845677083242,
      "v": 49
    },
    {
      "midi": 48,
      "hit": false,
      "t": 140642.3048541665,
      "d": 78.12496874999488,
      "v": 96
    },
    {
      "midi": 55,
      "hit": false,
      "t": 140642.3048541665,
      "d": 95.48607291665394,
      "v": 127
    },
    {
      "midi": 57,
      "hit": false,
      "t": 140841.95755208324,
      "d": 355.90263541665627,
      "v": 45
    },
    {
      "midi": 55,
      "hit": false,
      "t": 140850.6381041665,
      "d": 60.76386458333582,
      "v": 31
    },
    {
      "midi": 69,
      "hit": false,
      "t": 140863.65893229158,
      "d": 355.90263541665627,
      "v": 47
    },
    {
      "midi": 55,
      "hit": false,
      "t": 141054.63107812483,
      "d": 65.10414062498603,
      "v": 66
    },
    {
      "midi": 55,
      "hit": false,
      "t": 141245.60322395823,
      "d": 889.7565885416698,
      "v": 45
    },
    {
      "midi": 48,
      "hit": false,
      "t": 141267.30460416648,
      "d": 78.12496875002398,
      "v": 96
    },
    {
      "midi": 67,
      "hit": false,
      "t": 141267.30460416657,
      "d": 889.7565885416698,
      "v": 47
    },
    {
      "midi": 36,
      "hit": false,
      "t": 141267.30460416686,
      "d": 60.76386458333582,
      "v": 96
    },
    {
      "midi": 55,
      "hit": false,
      "t": 141271.64488020816,
      "d": 73.78469270834466,
      "v": 127
    },
    {
      "midi": 55,
      "hit": false,
      "t": 141471.29757812482,
      "d": 47.74303645832697,
      "v": 65
    },
    {
      "midi": 36,
      "hit": false,
      "t": 141679.6308281252,
      "d": 898.4371406249993,
      "v": 96
    },
    {
      "midi": 55,
      "hit": false,
      "t": 141683.97110416647,
      "d": 26.04165624998859,
      "v": 52
    },
    {
      "midi": 48,
      "hit": false,
      "t": 141887.9640781248,
      "d": 82.4652447916742,
      "v": 96
    },
    {
      "midi": 55,
      "hit": false,
      "t": 141892.30435416647,
      "d": 99.82634895833326,
      "v": 127
    },
    {
      "midi": 55,
      "hit": false,
      "t": 142100.63760416646,
      "d": 26.04165624998859,
      "v": 31
    },
    {
      "midi": 51,
      "hit": false,
      "t": 142157.06119270824,
      "d": 91.14579687500373,
      "v": 47
    },
    {
      "midi": 63,
      "hit": false,
      "t": 142178.76257291657,
      "d": 91.14579687500373,
      "v": 49
    },
    {
      "midi": 52,
      "hit": false,
      "t": 142248.20698958324,
      "d": 672.7427864583442,
      "v": 47
    },
    {
      "midi": 64,
      "hit": false,
      "t": 142269.90836979158,
      "d": 672.7427864583442,
      "v": 49
    },
    {
      "midi": 55,
      "hit": false,
      "t": 142304.63057812478,
      "d": 47.74303645832697,
      "v": 62
    },
    {
      "midi": 48,
      "hit": false,
      "t": 142517.30410416643,
      "d": 95.48607291665394,
      "v": 96
    },
    {
      "midi": 55,
      "hit": false,
      "t": 142517.30410416643,
      "d": 95.48607291665394,
      "v": 127
    },
    {
      "midi": 52,
      "hit": false,
      "t": 142725.63735416642,
      "d": 130.20828125000116,
      "v": 92
    },
    {
      "midi": 36,
      "hit": false,
      "t": 142725.63735416686,
      "d": 8.68055208332953,
      "v": 96
    },
    {
      "midi": 52,
      "hit": false,
      "t": 142933.97060416642,
      "d": 78.12496874999488,
      "v": 36
    },
    {
      "midi": 31,
      "hit": false,
      "t": 142933.97060416685,
      "d": 303.8193229166791,
      "v": 96
    },
    {
      "midi": 48,
      "hit": false,
      "t": 143137.96357812473,
      "d": 82.4652447916742,
      "v": 36
    },
    {
      "midi": 32,
      "hit": false,
      "t": 143359.3176562502,
      "d": 781.249687500007,
      "v": 96
    },
    {
      "midi": 44,
      "hit": false,
      "t": 143363.65793229142,
      "d": 65.10414062498603,
      "v": 96
    },
    {
      "midi": 59,
      "hit": false,
      "t": 143363.65793229142,
      "d": 65.10414062498603,
      "v": 127
    },
    {
      "midi": 68,
      "hit": false,
      "t": 143367.99820833327,
      "d": 668.402510416694,
      "v": 94
    },
    {
      "midi": 71,
      "hit": false,
      "t": 143367.99820833327,
      "d": 672.7427864583733,
      "v": 96
    },
    {
      "midi": 62,
      "hit": false,
      "t": 143372.33848437486,
      "d": 3046.873781250004,
      "v": 96
    },
    {
      "midi": 68,
      "hit": false,
      "t": 143372.33848437486,
      "d": 3046.873781250004,
      "v": 96
    },
    {
      "midi": 71,
      "hit": false,
      "t": 143372.33848437486,
      "d": 3046.873781250004,
      "v": 96
    },
    {
      "midi": 65,
      "hit": false,
      "t": 143376.6787604166,
      "d": 664.0622343750438,
      "v": 85
    },
    {
      "midi": 65,
      "hit": false,
      "t": 143381.0190364582,
      "d": 3038.1932291666744,
      "v": 96
    },
    {
      "midi": 74,
      "hit": false,
      "t": 143381.01903645828,
      "d": 659.7219583333645,
      "v": 97
    },
    {
      "midi": 59,
      "hit": false,
      "t": 143554.63007812473,
      "d": 47.74303645832697,
      "v": 60
    },
    {
      "midi": 59,
      "hit": false,
      "t": 143762.96332812472,
      "d": 47.74303645832697,
      "v": 66
    },
    {
      "midi": 44,
      "hit": false,
      "t": 143971.29657812472,
      "d": 65.10414062498603,
      "v": 96
    },
    {
      "midi": 59,
      "hit": false,
      "t": 143971.29657812472,
      "d": 82.46524479164509,
      "v": 127
    },
    {
      "midi": 59,
      "hit": false,
      "t": 144183.97010416636,
      "d": 26.04165624998859,
      "v": 63
    },
    {
      "midi": 59,
      "hit": false,
      "t": 144205.6714843749,
      "d": 824.6524479166546,
      "v": 48
    },
    {
      "midi": 71,
      "hit": false,
      "t": 144227.37286458325,
      "d": 824.6524479166546,
      "v": 50
    },
    {
      "midi": 59,
      "hit": false,
      "t": 144387.96307812468,
      "d": 47.74303645832697,
      "v": 53
    },
    {
      "midi": 44,
      "hit": false,
      "t": 144600.63660416633,
      "d": 60.76386458333582,
      "v": 96
    },
    {
      "midi": 59,
      "hit": false,
      "t": 144600.63660416633,
      "d": 78.12496874999488,
      "v": 127
    },
    {
      "midi": 32,
      "hit": false,
      "t": 144600.63660416688,
      "d": 60.76386458333582,
      "v": 96
    },
    {
      "midi": 59,
      "hit": false,
      "t": 144804.62957812464,
      "d": 13.020828125008848,
      "v": 30
    },
    {
      "midi": 62,
      "hit": false,
      "t": 144978.24061979164,
      "d": 690.1038906250033,
      "v": 96
    },
    {
      "midi": 68,
      "hit": false,
      "t": 144978.24061979164,
      "d": 690.1038906250033,
      "v": 96
    },
    {
      "midi": 32,
      "hit": false,
      "t": 145012.96282812522,
      "d": 1401.909161458345,
      "v": 96
    },
    {
      "midi": 59,
      "hit": false,
      "t": 145017.30310416632,
      "d": 43.402760416676756,
      "v": 44
    },
    {
      "midi": 77,
      "hit": false,
      "t": 145021.64338020832,
      "d": 681.4233385416737,
      "v": 96
    },
    {
      "midi": 56,
      "hit": false,
      "t": 145047.68503645822,
      "d": 737.8469270833302,
      "v": 50
    },
    {
      "midi": 83,
      "hit": false,
      "t": 145047.6850364583,
      "d": 690.1038906250324,
      "v": 96
    },
    {
      "midi": 68,
      "hit": false,
      "t": 145069.38641666656,
      "d": 737.8469270833302,
      "v": 52
    },
    {
      "midi": 44,
      "hit": false,
      "t": 145221.29607812467,
      "d": 65.10414062498603,
      "v": 96
    },
    {
      "midi": 59,
      "hit": false,
      "t": 145221.29607812467,
      "d": 82.46524479164509,
      "v": 127
    },
    {
      "midi": 59,
      "hit": false,
      "t": 145429.62932812463,
      "d": 47.74303645832697,
      "v": 53
    },
    {
      "midi": 59,
      "hit": false,
      "t": 145637.96257812463,
      "d": 47.74303645832697,
      "v": 44
    },
    {
      "midi": 57,
      "hit": false,
      "t": 145789.87223958323,
      "d": 30.38193229166791,
      "v": 48
    },
    {
      "midi": 69,
      "hit": false,
      "t": 145811.57361979157,
      "d": 30.38193229166791,
      "v": 50
    },
    {
      "midi": 44,
      "hit": false,
      "t": 145846.29582812462,
      "d": 82.4652447916742,
      "v": 96
    },
    {
      "midi": 52,
      "hit": false,
      "t": 145846.2958281249,
      "d": 655.381682291656,
      "v": 59
    },
    {
      "midi": 59,
      "hit": false,
      "t": 145850.6361041663,
      "d": 95.48607291665394,
      "v": 127
    },
    {
      "midi": 64,
      "hit": false,
      "t": 145867.99720833322,
      "d": 655.381682291656,
      "v": 61
    },
    {
      "midi": 59,
      "hit": false,
      "t": 146054.62907812462,
      "d": 65.10414062498603,
      "v": 43
    },
    {
      "midi": 56,
      "hit": false,
      "t": 146262.96232812462,
      "d": 47.74303645832697,
      "v": 81
    },
    {
      "midi": 61,
      "hit": false,
      "t": 146423.55254166655,
      "d": 8.68055208332953,
      "v": 96
    },
    {
      "midi": 64,
      "hit": false,
      "t": 146423.55254166655,
      "d": 13.020828125008848,
      "v": 96
    },
    {
      "midi": 69,
      "hit": false,
      "t": 146423.55254166655,
      "d": 13.020828125008848,
      "v": 96
    },
    {
      "midi": 60,
      "hit": false,
      "t": 146436.57336979156,
      "d": 52.083312500006286,
      "v": 96
    },
    {
      "midi": 69,
      "hit": false,
      "t": 146436.57336979156,
      "d": 52.083312500006286,
      "v": 96
    },
    {
      "midi": 64,
      "hit": false,
      "t": 146440.91364583324,
      "d": 47.74303645832697,
      "v": 96
    },
    {
      "midi": 48,
      "hit": false,
      "t": 146471.2955781246,
      "d": 13.020828125008848,
      "v": 35
    },
    {
      "midi": 60,
      "hit": false,
      "t": 146492.99695833324,
      "d": 3328.9917239583447,
      "v": 96
    },
    {
      "midi": 64,
      "hit": false,
      "t": 146492.99695833324,
      "d": 3328.9917239583447,
      "v": 96
    },
    {
      "midi": 69,
      "hit": false,
      "t": 146492.99695833324,
      "d": 3328.9917239583447,
      "v": 96
    },
    {
      "midi": 33,
      "hit": false,
      "t": 146688.30938020858,
      "d": 785.5899635416572,
      "v": 96
    },
    {
      "midi": 45,
      "hit": false,
      "t": 146692.64965624962,
      "d": 86.80552083335351,
      "v": 96
    },
    {
      "midi": 57,
      "hit": false,
      "t": 146696.9899322913,
      "d": 99.82634895833326,
      "v": 127
    },
    {
      "midi": 60,
      "hit": false,
      "t": 146696.98993229168,
      "d": 672.7427864583733,
      "v": 94
    },
    {
      "midi": 69,
      "hit": false,
      "t": 146696.98993229168,
      "d": 672.7427864583733,
      "v": 96
    },
    {
      "midi": 45,
      "hit": false,
      "t": 146701.33020833335,
      "d": 668.402510416694,
      "v": 97
    },
    {
      "midi": 76,
      "hit": false,
      "t": 146705.67048437503,
      "d": 668.402510416694,
      "v": 85
    },
    {
      "midi": 57,
      "hit": false,
      "t": 146736.05241666656,
      "d": 1493.0549583333195,
      "v": 47
    },
    {
      "midi": 69,
      "hit": false,
      "t": 146757.7537968749,
      "d": 1493.0549583333195,
      "v": 49
    },
    {
      "midi": 57,
      "hit": false,
      "t": 146887.96207812463,
      "d": 30.38193229166791,
      "v": 31
    },
    {
      "midi": 57,
      "hit": false,
      "t": 147096.29532812463,
      "d": 47.74303645832697,
      "v": 57
    },
    {
      "midi": 45,
      "hit": false,
      "t": 147304.62857812463,
      "d": 82.4652447916742,
      "v": 96
    },
    {
      "midi": 57,
      "hit": false,
      "t": 147304.62857812463,
      "d": 99.82634895833326,
      "v": 127
    },
    {
      "midi": 57,
      "hit": false,
      "t": 147512.96182812462,
      "d": 65.10414062498603,
      "v": 31
    },
    {
      "midi": 57,
      "hit": false,
      "t": 147721.29507812462,
      "d": 65.10414062498603,
      "v": 66
    },
    {
      "midi": 33,
      "hit": false,
      "t": 147929.62832812523,
      "d": 65.10414062498603,
      "v": 96
    },
    {
      "midi": 45,
      "hit": false,
      "t": 147933.96860416626,
      "d": 78.12496874999488,
      "v": 96
    },
    {
      "midi": 57,
      "hit": false,
      "t": 147933.96860416626,
      "d": 78.12496874999488,
      "v": 127
    },
    {
      "midi": 57,
      "hit": false,
      "t": 148137.96157812458,
      "d": 47.74303645832697,
      "v": 65
    },
    {
      "midi": 63,
      "hit": false,
      "t": 148298.55179166654,
      "d": 69.44441666666535,
      "v": 47
    },
    {
      "midi": 75,
      "hit": false,
      "t": 148320.25317187488,
      "d": 69.44441666666535,
      "v": 49
    },
    {
      "midi": 33,
      "hit": false,
      "t": 148346.29482812522,
      "d": 1471.3535781250102,
      "v": 96
    },
    {
      "midi": 57,
      "hit": false,
      "t": 148350.63510416623,
      "d": 26.04165624998859,
      "v": 52
    },
    {
      "midi": 64,
      "hit": false,
      "t": 148367.9962083332,
      "d": 1115.4509427083249,
      "v": 45
    },
    {
      "midi": 76,
      "hit": false,
      "t": 148389.69758854154,
      "d": 1115.4509427083249,
      "v": 47
    },
    {
      "midi": 45,
      "hit": false,
      "t": 148554.62807812454,
      "d": 82.4652447916742,
      "v": 96
    },
    {
      "midi": 57,
      "hit": false,
      "t": 148554.62807812454,
      "d": 99.82634895833326,
      "v": 127
    },
    {
      "midi": 57,
      "hit": false,
      "t": 148762.96132812454,
      "d": 30.38193229166791,
      "v": 31
    },
    {
      "midi": 57,
      "hit": false,
      "t": 148971.29457812454,
      "d": 47.74303645832697,
      "v": 62
    },
    {
      "midi": 64,
      "hit": false,
      "t": 148975.63485416674,
      "d": 685.7636145833239,
      "v": 85
    },
    {
      "midi": 45,
      "hit": false,
      "t": 149179.62782812453,
      "d": 99.82634895833326,
      "v": 96
    },
    {
      "midi": 57,
      "hit": false,
      "t": 149183.9681041662,
      "d": 95.48607291665394,
      "v": 127
    },
    {
      "midi": 57,
      "hit": false,
      "t": 149387.96107812453,
      "d": 30.38193229166791,
      "v": 69
    },
    {
      "midi": 69,
      "hit": false,
      "t": 149392.30135416673,
      "d": 429.68732812500093,
      "v": 85
    },
    {
      "midi": 48,
      "hit": false,
      "t": 149600.6346041662,
      "d": 60.76386458333582,
      "v": 93
    },
    {
      "midi": 48,
      "hit": false,
      "t": 149804.62757812455,
      "d": 13.020828125008848,
      "v": 34
    },
    {
      "midi": 62,
      "hit": false,
      "t": 149826.32895833327,
      "d": 43.402760416676756,
      "v": 96
    },
    {
      "midi": 66,
      "hit": false,
      "t": 149826.32895833327,
      "d": 43.402760416676756,
      "v": 96
    },
    {
      "midi": 69,
      "hit": false,
      "t": 149826.32895833327,
      "d": 43.402760416676756,
      "v": 96
    },
    {
      "midi": 62,
      "hit": false,
      "t": 149874.07199479162,
      "d": 3346.3528281250037,
      "v": 96
    },
    {
      "midi": 65,
      "hit": false,
      "t": 149878.4122708333,
      "d": 3342.0125520833244,
      "v": 96
    },
    {
      "midi": 69,
      "hit": false,
      "t": 149878.4122708333,
      "d": 3342.0125520833244,
      "v": 96
    },
    {
      "midi": 38,
      "hit": false,
      "t": 150021.64138020854,
      "d": 785.5899635416572,
      "v": 96
    },
    {
      "midi": 50,
      "hit": false,
      "t": 150025.98165624955,
      "d": 69.44441666666535,
      "v": 96
    },
    {
      "midi": 57,
      "hit": false,
      "t": 150030.32193229123,
      "d": 65.10414062498603,
      "v": 127
    },
    {
      "midi": 69,
      "hit": false,
      "t": 150030.32193229176,
      "d": 672.7427864583733,
      "v": 94
    },
    {
      "midi": 74,
      "hit": false,
      "t": 150030.32193229176,
      "d": 672.7427864583733,
      "v": 96
    },
    {
      "midi": 50,
      "hit": false,
      "t": 150034.66220833344,
      "d": 668.402510416694,
      "v": 97
    },
    {
      "midi": 65,
      "hit": false,
      "t": 150039.00248437512,
      "d": 668.402510416694,
      "v": 85
    },
    {
      "midi": 57,
      "hit": false,
      "t": 150216.9538020829,
      "d": 52.083312500006286,
      "v": 60
    },
    {
      "midi": 62,
      "hit": false,
      "t": 150425.2870520832,
      "d": 750.8677552083391,
      "v": 47
    },
    {
      "midi": 57,
      "hit": false,
      "t": 150429.62732812457,
      "d": 47.74303645832697,
      "v": 66
    },
    {
      "midi": 74,
      "hit": false,
      "t": 150446.98843229155,
      "d": 750.8677552083391,
      "v": 49
    },
    {
      "midi": 50,
      "hit": false,
      "t": 150637.96057812456,
      "d": 65.10414062498603,
      "v": 96
    },
    {
      "midi": 57,
      "hit": false,
      "t": 150637.96057812456,
      "d": 82.46524479164509,
      "v": 127
    },
    {
      "midi": 57,
      "hit": false,
      "t": 150846.29382812453,
      "d": 30.38193229166791,
      "v": 63
    },
    {
      "midi": 57,
      "hit": false,
      "t": 151054.62707812453,
      "d": 47.74303645832697,
      "v": 53
    },
    {
      "midi": 60,
      "hit": false,
      "t": 151241.25894791653,
      "d": 386.2845677083242,
      "v": 46
    },
    {
      "midi": 72,
      "hit": false,
      "t": 151262.96032812487,
      "d": 386.2845677083242,
      "v": 48
    },
    {
      "midi": 38,
      "hit": false,
      "t": 151262.9603281252,
      "d": 65.10414062498603,
      "v": 96
    },
    {
      "midi": 50,
      "hit": false,
      "t": 151267.30060416617,
      "d": 60.76386458333582,
      "v": 96
    },
    {
      "midi": 57,
      "hit": false,
      "t": 151267.30060416617,
      "d": 78.12496874999488,
      "v": 127
    },
    {
      "midi": 57,
      "hit": false,
      "t": 151466.95330208284,
      "d": 17.36110416665906,
      "v": 30
    },
    {
      "midi": 57,
      "hit": false,
      "t": 151675.28655208318,
      "d": 1215.2772916666581,
      "v": 47
    },
    {
      "midi": 57,
      "hit": false,
      "t": 151679.62682812448,
      "d": 47.74303645832697,
      "v": 44
    },
    {
      "midi": 38,
      "hit": false,
      "t": 151679.62682812518,
      "d": 1523.4368906249874,
      "v": 96
    },
    {
      "midi": 69,
      "hit": false,
      "t": 151696.98793229152,
      "d": 1215.2772916666581,
      "v": 49
    },
    {
      "midi": 50,
      "hit": false,
      "t": 151887.96007812448,
      "d": 65.10414062498603,
      "v": 96
    },
    {
      "midi": 57,
      "hit": false,
      "t": 151887.96007812448,
      "d": 82.46524479164509,
      "v": 127
    },
    {
      "midi": 57,
      "hit": false,
      "t": 152096.29332812445,
      "d": 47.74303645832697,
      "v": 53
    },
    {
      "midi": 57,
      "hit": false,
      "t": 152304.62657812444,
      "d": 47.74303645832697,
      "v": 44
    },
    {
      "midi": 50,
      "hit": false,
      "t": 152512.95982812444,
      "d": 82.4652447916742,
      "v": 96
    },
    {
      "midi": 57,
      "hit": false,
      "t": 152517.30010416612,
      "d": 95.48607291665394,
      "v": 127
    },
    {
      "midi": 57,
      "hit": false,
      "t": 152721.29307812444,
      "d": 65.10414062498603,
      "v": 43
    },
    {
      "midi": 62,
      "hit": false,
      "t": 152933.9666041668,
      "d": 269.09711458333186,
      "v": 85
    },
    {
      "midi": 53,
      "hit": false,
      "t": 152938.30688020776,
      "d": 108.50690104166279,
      "v": 87
    },
    {
      "midi": 57,
      "hit": false,
      "t": 153137.95957812516,
      "d": 65.10414062498603,
      "v": 85
    },
    {
      "midi": 53,
      "hit": false,
      "t": 153142.29985416608,
      "d": 8.68055208332953,
      "v": 38
    },
    {
      "midi": 62,
      "hit": false,
      "t": 153224.7650989583,
      "d": 3328.9917239583447,
      "v": 96
    },
    {
      "midi": 67,
      "hit": false,
      "t": 153229.10537499998,
      "d": 3324.6514479166653,
      "v": 96
    },
    {
      "midi": 65,
      "hit": false,
      "t": 153229.10537499998,
      "d": 3328.9917239583447,
      "v": 96
    },
    {
      "midi": 71,
      "hit": false,
      "t": 153229.10537499998,
      "d": 3328.9917239583447,
      "v": 96
    },
    {
      "midi": 31,
      "hit": false,
      "t": 153354.9733802085,
      "d": 785.5899635416572,
      "v": 96
    },
    {
      "midi": 43,
      "hit": false,
      "t": 153359.3136562494,
      "d": 86.80552083335351,
      "v": 96
    },
    {
      "midi": 59,
      "hit": false,
      "t": 153363.65393229108,
      "d": 99.82634895833326,
      "v": 127
    },
    {
      "midi": 67,
      "hit": false,
      "t": 153363.6539322918,
      "d": 672.7427864583442,
      "v": 85
    },
    {
      "midi": 62,
      "hit": false,
      "t": 153367.9942083335,
      "d": 668.4025104166649,
      "v": 97
    },
    {
      "midi": 65,
      "hit": false,
      "t": 153367.9942083335,
      "d": 668.4025104166649,
      "v": 94
    },
    {
      "midi": 71,
      "hit": false,
      "t": 153367.9942083335,
      "d": 668.4025104166649,
      "v": 96
    },
    {
      "midi": 59,
      "hit": false,
      "t": 153550.28580208274,
      "d": 34.722208333347226,
      "v": 31
    },
    {
      "midi": 59,
      "hit": false,
      "t": 153758.61905208277,
      "d": 52.083312500006286,
      "v": 57
    },
    {
      "midi": 55,
      "hit": false,
      "t": 153784.66070833316,
      "d": 2421.8740312499867,
      "v": 49
    },
    {
      "midi": 67,
      "hit": false,
      "t": 153806.3620885415,
      "d": 2421.8740312499867,
      "v": 51
    },
    {
      "midi": 43,
      "hit": false,
      "t": 153971.29257812444,
      "d": 82.4652447916742,
      "v": 96
    },
    {
      "midi": 59,
      "hit": false,
      "t": 153971.29257812444,
      "d": 99.82634895833326,
      "v": 127
    },
    {
      "midi": 59,
      "hit": false,
      "t": 154179.62582812444,
      "d": 65.10414062498603,
      "v": 31
    },
    {
      "midi": 59,
      "hit": false,
      "t": 154387.95907812443,
      "d": 65.10414062498603,
      "v": 66
    },
    {
      "midi": 43,
      "hit": false,
      "t": 154596.29232812443,
      "d": 82.4652447916742,
      "v": 96
    },
    {
      "midi": 59,
      "hit": false,
      "t": 154600.6326041661,
      "d": 78.12496874999488,
      "v": 127
    },
    {
      "midi": 29,
      "hit": false,
      "t": 154604.9728802085,
      "d": 56.4235885416565,
      "v": 96
    },
    {
      "midi": 59,
      "hit": false,
      "t": 154800.28530208278,
      "d": 52.083312500006286,
      "v": 65
    },
    {
      "midi": 59,
      "hit": false,
      "t": 155012.95882812445,
      "d": 30.38193229166791,
      "v": 52
    },
    {
      "midi": 31,
      "hit": false,
      "t": 155012.95882812515,
      "d": 898.4371406249993,
      "v": 96
    },
    {
      "midi": 43,
      "hit": false,
      "t": 155221.29207812445,
      "d": 82.4652447916742,
      "v": 96
    },
    {
      "midi": 59,
      "hit": false,
      "t": 155221.29207812445,
      "d": 99.82634895833326,
      "v": 127
    },
    {
      "midi": 59,
      "hit": false,
      "t": 155429.62532812444,
      "d": 30.38193229166791,
      "v": 31
    },
    {
      "midi": 59,
      "hit": false,
      "t": 155637.95857812444,
      "d": 47.74303645832697,
      "v": 62
    },
    {
      "midi": 43,
      "hit": false,
      "t": 155846.29182812443,
      "d": 99.82634895833326,
      "v": 96
    },
    {
      "midi": 59,
      "hit": false,
      "t": 155850.6321041661,
      "d": 95.48607291665394,
      "v": 127
    },
    {
      "midi": 55,
      "hit": false,
      "t": 156054.62507812443,
      "d": 134.54855729168048,
      "v": 92
    },
    {
      "midi": 29,
      "hit": false,
      "t": 156058.9653541668,
      "d": 4.340276041679317,
      "v": 96
    },
    {
      "midi": 38,
      "hit": false,
      "t": 156262.95832812515,
      "d": 290.79849479167024,
      "v": 96
    },
    {
      "midi": 55,
      "hit": false,
      "t": 156267.2986041661,
      "d": 73.78469270834466,
      "v": 36
    },
    {
      "midi": 43,
      "hit": false,
      "t": 156471.29157812445,
      "d": 82.4652447916742,
      "v": 36
    },
    {
      "midi": 36,
      "hit": false,
      "t": 156688.3053802085,
      "d": 781.249687500007,
      "v": 96
    },
    {
      "midi": 48,
      "hit": false,
      "t": 156692.64565624946,
      "d": 69.44441666666535,
      "v": 96
    },
    {
      "midi": 55,
      "hit": false,
      "t": 156696.98593229114,
      "d": 65.10414062498603,
      "v": 127
    },
    {
      "midi": 52,
      "hit": false,
      "t": 156696.98593229183,
      "d": 672.7427864583442,
      "v": 97
    },
    {
      "midi": 60,
      "hit": false,
      "t": 156696.98593229183,
      "d": 672.7427864583442,
      "v": 85
    },
    {
      "midi": 60,
      "hit": false,
      "t": 156701.32620833334,
      "d": 6627.601515625021,
      "v": 96
    },
    {
      "midi": 64,
      "hit": false,
      "t": 156701.3262083335,
      "d": 668.4025104166649,
      "v": 94
    },
    {
      "midi": 67,
      "hit": false,
      "t": 156701.3262083335,
      "d": 668.4025104166649,
      "v": 96
    },
    {
      "midi": 60,
      "hit": false,
      "t": 156705.66648437481,
      "d": 1254.3397760416556,
      "v": 47
    },
    {
      "midi": 64,
      "hit": false,
      "t": 156705.66648437502,
      "d": 6623.261239583342,
      "v": 96
    },
    {
      "midi": 67,
      "hit": false,
      "t": 156705.66648437502,
      "d": 6627.601515625021,
      "v": 96
    },
    {
      "midi": 72,
      "hit": false,
      "t": 156727.36786458315,
      "d": 1254.3397760416556,
      "v": 49
    },
    {
      "midi": 55,
      "hit": false,
      "t": 156883.6178020828,
      "d": 52.083312500006286,
      "v": 60
    },
    {
      "midi": 55,
      "hit": false,
      "t": 157091.9510520828,
      "d": 52.083312500006286,
      "v": 66
    },
    {
      "midi": 48,
      "hit": false,
      "t": 157304.62457812447,
      "d": 65.10414062498603,
      "v": 96
    },
    {
      "midi": 55,
      "hit": false,
      "t": 157304.62457812447,
      "d": 82.46524479164509,
      "v": 127
    },
    {
      "midi": 55,
      "hit": false,
      "t": 157512.95782812443,
      "d": 26.04165624998859,
      "v": 63
    },
    {
      "midi": 55,
      "hit": false,
      "t": 157716.95080208275,
      "d": 47.74303645832697,
      "v": 53
    },
    {
      "midi": 48,
      "hit": false,
      "t": 157929.6243281244,
      "d": 65.10414062501513,
      "v": 96
    },
    {
      "midi": 36,
      "hit": false,
      "t": 157929.62432812518,
      "d": 60.76386458333582,
      "v": 96
    },
    {
      "midi": 55,
      "hit": false,
      "t": 157933.96460416607,
      "d": 73.78469270834466,
      "v": 127
    },
    {
      "midi": 55,
      "hit": false,
      "t": 158133.61730208274,
      "d": 17.36110416665906,
      "v": 30
    },
    {
      "midi": 64,
      "hit": false,
      "t": 158307.22834375018,
      "d": 690.1038906250033,
      "v": 96
    },
    {
      "midi": 55,
      "hit": false,
      "t": 158346.2908281244,
      "d": 43.402760416676756,
      "v": 44
    },
    {
      "midi": 72,
      "hit": false,
      "t": 158346.29082812517,
      "d": 685.763614583353,
      "v": 96
    },
    {
      "midi": 36,
      "hit": false,
      "t": 158346.29082812517,
      "d": 1519.0966145833372,
      "v": 96
    },
    {
      "midi": 69,
      "hit": false,
      "t": 158363.65193229148,
      "d": 1215.2772916666581,
      "v": 46
    },
    {
      "midi": 79,
      "hit": false,
      "t": 158376.67276041684,
      "d": 690.1038906250324,
      "v": 96
    },
    {
      "midi": 81,
      "hit": false,
      "t": 158385.35331249982,
      "d": 1215.2772916666581,
      "v": 48
    },
    {
      "midi": 48,
      "hit": false,
      "t": 158550.28380208273,
      "d": 65.10414062501513,
      "v": 96
    },
    {
      "midi": 55,
      "hit": false,
      "t": 158554.6240781244,
      "d": 78.12496874999488,
      "v": 127
    },
    {
      "midi": 55,
      "hit": false,
      "t": 158758.61705208273,
      "d": 47.74303645832697,
      "v": 53
    },
    {
      "midi": 55,
      "hit": false,
      "t": 158966.95030208273,
      "d": 52.083312500006286,
      "v": 44
    },
    {
      "midi": 48,
      "hit": false,
      "t": 159179.6238281244,
      "d": 78.12496874999488,
      "v": 96
    },
    {
      "midi": 55,
      "hit": false,
      "t": 159179.6238281244,
      "d": 95.48607291665394,
      "v": 127
    },
    {
      "midi": 55,
      "hit": false,
      "t": 159383.61680208272,
      "d": 65.10414062498603,
      "v": 43
    },
    {
      "midi": 52,
      "hit": false,
      "t": 159596.29032812436,
      "d": 43.402760416676756,
      "v": 81
    },
    {
      "midi": 52,
      "hit": false,
      "t": 159800.2833020827,
      "d": 13.020828125008848,
      "v": 35
    },
    {
      "midi": 64,
      "hit": false,
      "t": 160012.95682812482,
      "d": 655.381682291656,
      "v": 44
    },
    {
      "midi": 36,
      "hit": false,
      "t": 160021.6373802085,
      "d": 781.249687500007,
      "v": 96
    },
    {
      "midi": 48,
      "hit": false,
      "t": 160025.9776562494,
      "d": 82.4652447916742,
      "v": 96
    },
    {
      "midi": 55,
      "hit": false,
      "t": 160025.9776562494,
      "d": 99.82634895833326,
      "v": 127
    },
    {
      "midi": 52,
      "hit": false,
      "t": 160025.9776562502,
      "d": 672.7427864583733,
      "v": 97
    },
    {
      "midi": 60,
      "hit": false,
      "t": 160030.3179322919,
      "d": 672.7427864583733,
      "v": 94
    },
    {
      "midi": 67,
      "hit": false,
      "t": 160030.3179322919,
      "d": 672.7427864583733,
      "v": 96
    },
    {
      "midi": 76,
      "hit": false,
      "t": 160030.3179322919,
      "d": 672.7427864583733,
      "v": 85
    },
    {
      "midi": 76,
      "hit": false,
      "t": 160034.65820833316,
      "d": 655.381682291656,
      "v": 46
    },
    {
      "midi": 55,
      "hit": false,
      "t": 160216.94980208273,
      "d": 30.38193229166791,
      "v": 31
    },
    {
      "midi": 55,
      "hit": false,
      "t": 160425.28305208273,
      "d": 47.74303645832697,
      "v": 57
    },
    {
      "midi": 48,
      "hit": false,
      "t": 160637.95657812437,
      "d": 78.12496874999488,
      "v": 96
    },
    {
      "midi": 55,
      "hit": false,
      "t": 160637.95657812437,
      "d": 95.48607291665394,
      "v": 127
    },
    {
      "midi": 55,
      "hit": false,
      "t": 160846.28982812437,
      "d": 60.76386458333582,
      "v": 31
    },
    {
      "midi": 55,
      "hit": false,
      "t": 161050.28280208271,
      "d": 65.10414062498603,
      "v": 66
    },
    {
      "midi": 48,
      "hit": false,
      "t": 161262.95632812436,
      "d": 78.12496874999488,
      "v": 96
    },
    {
      "midi": 55,
      "hit": false,
      "t": 161262.95632812436,
      "d": 82.4652447916742,
      "v": 127
    },
    {
      "midi": 36,
      "hit": false,
      "t": 161262.95632812518,
      "d": 60.76386458333582,
      "v": 96
    },
    {
      "midi": 55,
      "hit": false,
      "t": 161466.9493020827,
      "d": 47.74303645832697,
      "v": 65
    },
    {
      "midi": 60,
      "hit": false,
      "t": 161675.28255208314,
      "d": 907.1176927083288,
      "v": 48
    },
    {
      "midi": 36,
      "hit": false,
      "t": 161675.28255208352,
      "d": 1523.4368906249874,
      "v": 96
    },
    {
      "midi": 55,
      "hit": false,
      "t": 161679.62282812435,
      "d": 26.04165624998859,
      "v": 52
    },
    {
      "midi": 72,
      "hit": false,
      "t": 161696.98393229148,
      "d": 907.1176927083288,
      "v": 50
    },
    {
      "midi": 48,
      "hit": false,
      "t": 161883.61580208267,
      "d": 82.4652447916742,
      "v": 96
    },
    {
      "midi": 55,
      "hit": false,
      "t": 161883.61580208267,
      "d": 99.82634895833326,
      "v": 127
    },
    {
      "midi": 55,
      "hit": false,
      "t": 162091.94905208267,
      "d": 30.38193229166791,
      "v": 31
    },
    {
      "midi": 55,
      "hit": false,
      "t": 162304.62257812434,
      "d": 43.402760416676756,
      "v": 62
    },
    {
      "midi": 64,
      "hit": false,
      "t": 162304.62257812527,
      "d": 685.7636145833239,
      "v": 85
    },
    {
      "midi": 48,
      "hit": false,
      "t": 162508.6155520827,
      "d": 99.82634895833326,
      "v": 96
    },
    {
      "midi": 55,
      "hit": false,
      "t": 162512.95582812437,
      "d": 95.48607291665394,
      "v": 127
    },
    {
      "midi": 55,
      "hit": false,
      "t": 162721.28907812436,
      "d": 26.04165624998859,
      "v": 69
    },
    {
      "midi": 67,
      "hit": false,
      "t": 162721.28907812526,
      "d": 477.4303645833279,
      "v": 85
    },
    {
      "midi": 52,
      "hit": false,
      "t": 162929.62232812436,
      "d": 60.76386458333582,
      "v": 93
    },
    {
      "midi": 55,
      "hit": false,
      "t": 162933.96260416647,
      "d": 494.79146874998696,
      "v": 46
    },
    {
      "midi": 67,
      "hit": false,
      "t": 162955.6639843748,
      "d": 494.79146874998696,
      "v": 48
    },
    {
      "midi": 52,
      "hit": false,
      "t": 163133.6153020827,
      "d": 13.020828125008848,
      "v": 34
    },
    {
      "midi": 52,
      "hit": false,
      "t": 163354.96938020858,
      "d": 677.0830625000235,
      "v": 97
    },
    {
      "midi": 64,
      "hit": false,
      "t": 163354.96938020858,
      "d": 681.4233385417028,
      "v": 94
    },
    {
      "midi": 60,
      "hit": false,
      "t": 163359.30965625026,
      "d": 677.0830625000235,
      "v": 85
    },
    {
      "midi": 67,
      "hit": false,
      "t": 163359.30965625026,
      "d": 677.0830625000235,
      "v": 96
    },
    {
      "midi": 55,
      "hit": false,
      "t": 163367.99020833272,
      "d": 3012.151572916686,
      "v": 56
    },
    {
      "midi": 36,
      "hit": false,
      "t": 163367.9902083335,
      "d": 2434.8948593749956,
      "v": 96
    },
    {
      "midi": 72,
      "hit": false,
      "t": 163372.33048437507,
      "d": 2430.5545833333163,
      "v": 96
    },
    {
      "midi": 72,
      "hit": false,
      "t": 163372.33048437527,
      "d": 664.0622343750147,
      "v": 96
    },
    {
      "midi": 60,
      "hit": false,
      "t": 163376.67076041605,
      "d": 3003.4710208333563,
      "v": 56
    },
    {
      "midi": 55,
      "hit": false,
      "t": 163376.67076041675,
      "d": 2430.5545833333163,
      "v": 96
    },
    {
      "midi": 64,
      "hit": false,
      "t": 163381.01103645773,
      "d": 2999.130744791677,
      "v": 56
    },
    {
      "midi": 67,
      "hit": false,
      "t": 163381.01103645773,
      "d": 2999.130744791677,
      "v": 56
    },
    {
      "midi": 60,
      "hit": false,
      "t": 163381.01103645813,
      "d": 2473.957343749993,
      "v": 45
    },
    {
      "midi": 64,
      "hit": false,
      "t": 163381.01103645843,
      "d": 2426.214307291637,
      "v": 96
    },
    {
      "midi": 72,
      "hit": false,
      "t": 163402.71241666647,
      "d": 2473.957343749993,
      "v": 47
    },
    {
      "midi": 36,
      "hit": false,
      "t": 166054.62107812517,
      "d": 60.76386458333582,
      "v": 96
    },
    {
      "midi": 31,
      "hit": false,
      "t": 166262.95432812517,
      "d": 112.8471770833421,
      "v": 96
    },
    {
      "midi": 28,
      "hit": false,
      "t": 166384.48205729184,
      "d": 47.74303645832697,
      "v": 96
    },
    {
      "midi": 28,
      "hit": false,
      "t": 166432.22509375017,
      "d": 203.99297395834583,
      "v": 96
    },
    {
      "midi": 28,
      "hit": false,
      "t": 166688.30138020852,
      "d": 781.249687500007,
      "v": 96
    },
    {
      "midi": 40,
      "hit": false,
      "t": 166692.6416562494,
      "d": 65.10414062501513,
      "v": 96
    },
    {
      "midi": 56,
      "hit": false,
      "t": 166696.9819322911,
      "d": 60.76386458333582,
      "v": 127
    },
    {
      "midi": 64,
      "hit": false,
      "t": 166696.98193229196,
      "d": 668.402510416694,
      "v": 94
    },
    {
      "midi": 59,
      "hit": false,
      "t": 166701.32220833338,
      "d": 3103.2973697916896,
      "v": 96
    },
    {
      "midi": 64,
      "hit": false,
      "t": 166701.32220833338,
      "d": 3103.2973697916896,
      "v": 96
    },
    {
      "midi": 68,
      "hit": false,
      "t": 166701.32220833364,
      "d": 664.0622343750147,
      "v": 96
    },
    {
      "midi": 68,
      "hit": false,
      "t": 166705.66248437506,
      "d": 3098.9570937500102,
      "v": 96
    },
    {
      "midi": 62,
      "hit": false,
      "t": 166710.00276041674,
      "d": 3094.616817708331,
      "v": 96
    },
    {
      "midi": 62,
      "hit": false,
      "t": 166710.00276041697,
      "d": 659.7219583333645,
      "v": 85
    },
    {
      "midi": 71,
      "hit": false,
      "t": 166710.00276041697,
      "d": 659.7219583333645,
      "v": 97
    },
    {
      "midi": 56,
      "hit": false,
      "t": 166883.61380208275,
      "d": 47.74303645832697,
      "v": 60
    },
    {
      "midi": 56,
      "hit": false,
      "t": 167091.94705208275,
      "d": 47.74303645832697,
      "v": 66
    },
    {
      "midi": 52,
      "hit": false,
      "t": 167183.09284895813,
      "d": 260.4165625000023,
      "v": 51
    },
    {
      "midi": 64,
      "hit": false,
      "t": 167204.79422916647,
      "d": 260.4165625000023,
      "v": 53
    },
    {
      "midi": 40,
      "hit": false,
      "t": 167300.28030208274,
      "d": 65.10414062501513,
      "v": 96
    },
    {
      "midi": 56,
      "hit": false,
      "t": 167304.62057812442,
      "d": 78.12496874999488,
      "v": 127
    },
    {
      "midi": 56,
      "hit": false,
      "t": 167478.23161979148,
      "d": 247.39573437499348,
      "v": 50
    },
    {
      "midi": 68,
      "hit": false,
      "t": 167499.93299999982,
      "d": 247.39573437499348,
      "v": 52
    },
    {
      "midi": 56,
      "hit": false,
      "t": 167508.61355208274,
      "d": 30.38193229166791,
      "v": 63
    },
    {
      "midi": 56,
      "hit": false,
      "t": 167716.94680208273,
      "d": 47.74303645832697,
      "v": 53
    },
    {
      "midi": 59,
      "hit": false,
      "t": 167747.3287343748,
      "d": 399.305395833333,
      "v": 47
    },
    {
      "midi": 71,
      "hit": false,
      "t": 167769.03011458315,
      "d": 399.305395833333,
      "v": 49
    },
    {
      "midi": 40,
      "hit": false,
      "t": 167929.62032812438,
      "d": 60.76386458333582,
      "v": 96
    },
    {
      "midi": 56,
      "hit": false,
      "t": 167929.62032812438,
      "d": 78.12496874999488,
      "v": 127
    },
    {
      "midi": 28,
      "hit": false,
      "t": 167929.6203281252,
      "d": 60.76386458333582,
      "v": 96
    },
    {
      "midi": 65,
      "hit": false,
      "t": 168046.8077812498,
      "d": 1158.8537031250016,
      "v": 45
    },
    {
      "midi": 77,
      "hit": false,
      "t": 168068.50916145815,
      "d": 1158.8537031250016,
      "v": 47
    },
    {
      "midi": 56,
      "hit": false,
      "t": 168133.6133020827,
      "d": 13.020828125008848,
      "v": 30
    },
    {
      "midi": 59,
      "hit": false,
      "t": 168307.22434375033,
      "d": 690.1038906250033,
      "v": 96
    },
    {
      "midi": 64,
      "hit": false,
      "t": 168307.22434375033,
      "d": 690.1038906250033,
      "v": 96
    },
    {
      "midi": 28,
      "hit": false,
      "t": 168341.94655208354,
      "d": 1458.3327500000014,
      "v": 96
    },
    {
      "midi": 56,
      "hit": false,
      "t": 168346.28682812437,
      "d": 43.402760416676756,
      "v": 44
    },
    {
      "midi": 74,
      "hit": false,
      "t": 168350.627104167,
      "d": 681.4233385416737,
      "v": 96
    },
    {
      "midi": 80,
      "hit": false,
      "t": 168372.32848437535,
      "d": 694.4441666666826,
      "v": 96
    },
    {
      "midi": 40,
      "hit": false,
      "t": 168550.27980208272,
      "d": 65.10414062498603,
      "v": 96
    },
    {
      "midi": 56,
      "hit": false,
      "t": 168550.27980208272,
      "d": 82.46524479164509,
      "v": 127
    },
    {
      "midi": 56,
      "hit": false,
      "t": 168758.61305208268,
      "d": 47.74303645832697,
      "v": 53
    },
    {
      "midi": 56,
      "hit": false,
      "t": 168966.94630208268,
      "d": 47.74303645832697,
      "v": 44
    },
    {
      "midi": 40,
      "hit": false,
      "t": 169175.27955208268,
      "d": 82.4652447916742,
      "v": 96
    },
    {
      "midi": 56,
      "hit": false,
      "t": 169179.61982812436,
      "d": 95.48607291665394,
      "v": 127
    },
    {
      "midi": 56,
      "hit": false,
      "t": 169383.61280208267,
      "d": 65.10414062498603,
      "v": 43
    },
    {
      "midi": 64,
      "hit": false,
      "t": 169396.63363020815,
      "d": 594.6178177083202,
      "v": 46
    },
    {
      "midi": 76,
      "hit": false,
      "t": 169418.3350104165,
      "d": 594.6178177083202,
      "v": 48
    },
    {
      "midi": 52,
      "hit": false,
      "t": 169591.94605208267,
      "d": 47.74303645832697,
      "v": 81
    },
    {
      "midi": 60,
      "hit": false,
      "t": 169808.95985416675,
      "d": 56.4235885416565,
      "v": 96
    },
    {
      "midi": 64,
      "hit": false,
      "t": 169808.95985416675,
      "d": 56.4235885416565,
      "v": 96
    },
    {
      "midi": 67,
      "hit": false,
      "t": 169808.95985416675,
      "d": 60.76386458333582,
      "v": 96
    },
    {
      "midi": 52,
      "hit": false,
      "t": 169813.30013020767,
      "d": 4.340276041679317,
      "v": 35
    },
    {
      "midi": 60,
      "hit": false,
      "t": 169869.7237187501,
      "d": 3333.332000000024,
      "v": 96
    },
    {
      "midi": 64,
      "hit": false,
      "t": 169874.06399479177,
      "d": 3328.9917239583447,
      "v": 96
    },
    {
      "midi": 67,
      "hit": false,
      "t": 169874.06399479177,
      "d": 3328.9917239583447,
      "v": 96
    },
    {
      "midi": 65,
      "hit": false,
      "t": 169991.25144791647,
      "d": 34.722208333347226,
      "v": 45
    },
    {
      "midi": 77,
      "hit": false,
      "t": 170012.9528281248,
      "d": 34.722208333347226,
      "v": 47
    },
    {
      "midi": 36,
      "hit": false,
      "t": 170017.29310416686,
      "d": 785.5899635416572,
      "v": 96
    },
    {
      "midi": 48,
      "hit": false,
      "t": 170021.6333802077,
      "d": 86.80552083335351,
      "v": 96
    },
    {
      "midi": 55,
      "hit": false,
      "t": 170025.97365624938,
      "d": 99.82634895833326,
      "v": 127
    },
    {
      "midi": 52,
      "hit": false,
      "t": 170025.97365625037,
      "d": 672.7427864583733,
      "v": 97
    },
    {
      "midi": 60,
      "hit": false,
      "t": 170025.97365625037,
      "d": 672.7427864583733,
      "v": 94
    },
    {
      "midi": 67,
      "hit": false,
      "t": 170025.97365625037,
      "d": 672.7427864583733,
      "v": 96
    },
    {
      "midi": 76,
      "hit": false,
      "t": 170030.31393229205,
      "d": 668.402510416694,
      "v": 85
    },
    {
      "midi": 60,
      "hit": false,
      "t": 170034.65420833314,
      "d": 737.8469270833302,
      "v": 46
    },
    {
      "midi": 72,
      "hit": false,
      "t": 170056.35558854148,
      "d": 737.8469270833302,
      "v": 48
    },
    {
      "midi": 55,
      "hit": false,
      "t": 170212.60552604104,
      "d": 34.722208333347226,
      "v": 31
    },
    {
      "midi": 55,
      "hit": false,
      "t": 170425.2790520827,
      "d": 47.74303645832697,
      "v": 57
    },
    {
      "midi": 48,
      "hit": false,
      "t": 170633.6123020827,
      "d": 82.4652447916742,
      "v": 96
    },
    {
      "midi": 55,
      "hit": false,
      "t": 170633.6123020827,
      "d": 99.82634895833326,
      "v": 127
    },
    {
      "midi": 55,
      "hit": false,
      "t": 170841.9455520827,
      "d": 65.10414062498603,
      "v": 31
    },
    {
      "midi": 55,
      "hit": false,
      "t": 171050.2788020827,
      "d": 65.10414062498603,
      "v": 66
    },
    {
      "midi": 36,
      "hit": false,
      "t": 171258.6120520835,
      "d": 65.10414062498603,
      "v": 96
    },
    {
      "midi": 48,
      "hit": false,
      "t": 171262.95232812435,
      "d": 78.12496874999488,
      "v": 96
    },
    {
      "midi": 55,
      "hit": false,
      "t": 171262.95232812435,
      "d": 78.12496874999488,
      "v": 127
    },
    {
      "midi": 69,
      "hit": false,
      "t": 171293.33426041648,
      "d": 147.56938541666023,
      "v": 46
    },
    {
      "midi": 81,
      "hit": false,
      "t": 171315.03564062482,
      "d": 147.56938541666023,
      "v": 48
    },
    {
      "midi": 55,
      "hit": false,
      "t": 171462.605026041,
      "d": 52.083312500006286,
      "v": 65
    },
    {
      "midi": 67,
      "hit": false,
      "t": 171497.3272343748,
      "d": 850.6941041666723,
      "v": 44
    },
    {
      "midi": 79,
      "hit": false,
      "t": 171519.02861458313,
      "d": 850.6941041666723,
      "v": 46
    },
    {
      "midi": 55,
      "hit": false,
      "t": 171675.2785520827,
      "d": 30.38193229166791,
      "v": 52
    },
    {
      "midi": 36,
      "hit": false,
      "t": 171675.2785520835,
      "d": 1523.4368906249874,
      "v": 96
    },
    {
      "midi": 48,
      "hit": false,
      "t": 171883.61180208268,
      "d": 82.4652447916742,
      "v": 96
    },
    {
      "midi": 55,
      "hit": false,
      "t": 171883.61180208268,
      "d": 99.82634895833326,
      "v": 127
    },
    {
      "midi": 55,
      "hit": false,
      "t": 172091.94505208268,
      "d": 30.38193229166791,
      "v": 31
    },
    {
      "midi": 55,
      "hit": false,
      "t": 172300.27830208268,
      "d": 47.74303645832697,
      "v": 62
    },
    {
      "midi": 64,
      "hit": false,
      "t": 172300.27830208375,
      "d": 690.1038906250033,
      "v": 85
    },
    {
      "midi": 48,
      "hit": false,
      "t": 172508.61155208267,
      "d": 99.82634895833326,
      "v": 96
    },
    {
      "midi": 55,
      "hit": false,
      "t": 172512.95182812435,
      "d": 95.48607291665394,
      "v": 127
    },
    {
      "midi": 55,
      "hit": false,
      "t": 172716.94480208267,
      "d": 30.38193229166791,
      "v": 69
    },
    {
      "midi": 67,
      "hit": false,
      "t": 172721.28507812542,
      "d": 477.4303645833279,
      "v": 85
    },
    {
      "midi": 52,
      "hit": false,
      "t": 172925.27805208266,
      "d": 65.10414062498603,
      "v": 93
    },
    {
      "midi": 52,
      "hit": false,
      "t": 173133.61130208266,
      "d": 13.020828125008848,
      "v": 34
    },
    {
      "midi": 59,
      "hit": false,
      "t": 173207.3959947918,
      "d": 43.402760416676756,
      "v": 96
    },
    {
      "midi": 64,
      "hit": false,
      "t": 173207.3959947918,
      "d": 43.402760416676756,
      "v": 96
    },
    {
      "midi": 68,
      "hit": false,
      "t": 173207.3959947918,
      "d": 43.402760416676756,
      "v": 96
    },
    {
      "midi": 59,
      "hit": false,
      "t": 173255.13903125015,
      "d": 3229.1653750000114,
      "v": 96
    },
    {
      "midi": 64,
      "hit": false,
      "t": 173255.13903125015,
      "d": 3229.1653750000114,
      "v": 96
    },
    {
      "midi": 62,
      "hit": false,
      "t": 173259.47930729183,
      "d": 3224.825098958332,
      "v": 96
    },
    {
      "midi": 68,
      "hit": false,
      "t": 173259.47930729183,
      "d": 3224.825098958332,
      "v": 96
    },
    {
      "midi": 28,
      "hit": false,
      "t": 173350.6251041668,
      "d": 785.5899635416572,
      "v": 96
    },
    {
      "midi": 40,
      "hit": false,
      "t": 173354.96538020766,
      "d": 69.44441666666535,
      "v": 96
    },
    {
      "midi": 56,
      "hit": false,
      "t": 173359.30565624934,
      "d": 65.10414062498603,
      "v": 127
    },
    {
      "midi": 68,
      "hit": false,
      "t": 173359.30565625042,
      "d": 672.7427864583442,
      "v": 94
    },
    {
      "midi": 71,
      "hit": false,
      "t": 173359.30565625042,
      "d": 672.7427864583442,
      "v": 96
    },
    {
      "midi": 62,
      "hit": false,
      "t": 173363.6459322921,
      "d": 668.4025104166649,
      "v": 97
    },
    {
      "midi": 59,
      "hit": false,
      "t": 173367.98620833378,
      "d": 668.4025104166649,
      "v": 97
    },
    {
      "midi": 64,
      "hit": false,
      "t": 173367.98620833378,
      "d": 668.4025104166649,
      "v": 85
    },
    {
      "midi": 56,
      "hit": false,
      "t": 173545.937526041,
      "d": 52.083312500006286,
      "v": 60
    },
    {
      "midi": 51,
      "hit": false,
      "t": 173545.93752604147,
      "d": 173.61104166667792,
      "v": 52
    },
    {
      "midi": 63,
      "hit": false,
      "t": 173567.6389062498,
      "d": 173.61104166667792,
      "v": 54
    },
    {
      "midi": 52,
      "hit": false,
      "t": 173754.2707760415,
      "d": 160.59021354166907,
      "v": 46
    },
    {
      "midi": 56,
      "hit": false,
      "t": 173758.61105208268,
      "d": 47.74303645832697,
      "v": 66
    },
    {
      "midi": 64,
      "hit": false,
      "t": 173775.97215624983,
      "d": 160.59021354166907,
      "v": 48
    },
    {
      "midi": 40,
      "hit": false,
      "t": 173966.94430208267,
      "d": 65.10414062498603,
      "v": 96
    },
    {
      "midi": 56,
      "hit": false,
      "t": 173966.94430208267,
      "d": 82.46524479164509,
      "v": 127
    },
    {
      "midi": 56,
      "hit": false,
      "t": 173971.28457812482,
      "d": 182.29159375000745,
      "v": 46
    },
    {
      "midi": 68,
      "hit": false,
      "t": 173992.98595833316,
      "d": 182.29159375000745,
      "v": 48
    },
    {
      "midi": 56,
      "hit": false,
      "t": 174175.27755208264,
      "d": 30.38193229166791,
      "v": 63
    },
    {
      "midi": 59,
      "hit": false,
      "t": 174192.63865624982,
      "d": 828.992723958334,
      "v": 45
    },
    {
      "midi": 71,
      "hit": false,
      "t": 174214.34003645816,
      "d": 828.992723958334,
      "v": 47
    },
    {
      "midi": 56,
      "hit": false,
      "t": 174383.61080208264,
      "d": 47.74303645832697,
      "v": 53
    },
    {
      "midi": 65,
      "hit": false,
      "t": 174448.71494270815,
      "d": 868.0552083333314,
      "v": 44
    },
    {
      "midi": 77,
      "hit": false,
      "t": 174470.41632291648,
      "d": 868.0552083333314,
      "v": 46
    },
    {
      "midi": 40,
      "hit": false,
      "t": 174591.94405208263,
      "d": 65.10414062501513,
      "v": 96
    },
    {
      "midi": 56,
      "hit": false,
      "t": 174596.2843281243,
      "d": 78.12496874999488,
      "v": 127
    },
    {
      "midi": 38,
      "hit": false,
      "t": 174600.62460416678,
      "d": 56.4235885416565,
      "v": 96
    },
    {
      "midi": 56,
      "hit": false,
      "t": 174795.93702604098,
      "d": 17.36110416665906,
      "v": 30
    },
    {
      "midi": 56,
      "hit": false,
      "t": 175008.61055208262,
      "d": 47.74303645832697,
      "v": 44
    },
    {
      "midi": 28,
      "hit": false,
      "t": 175008.61055208344,
      "d": 1471.3535781250102,
      "v": 96
    },
    {
      "midi": 40,
      "hit": false,
      "t": 175216.94380208262,
      "d": 65.10414062498603,
      "v": 96
    },
    {
      "midi": 56,
      "hit": false,
      "t": 175216.94380208262,
      "d": 82.46524479164509,
      "v": 127
    },
    {
      "midi": 64,
      "hit": false,
      "t": 175386.21456770814,
      "d": 95.48607291665394,
      "v": 44
    },
    {
      "midi": 76,
      "hit": false,
      "t": 175407.91594791648,
      "d": 95.48607291665394,
      "v": 46
    },
    {
      "midi": 56,
      "hit": false,
      "t": 175425.2770520826,
      "d": 47.74303645832697,
      "v": 53
    },
    {
      "midi": 65,
      "hit": false,
      "t": 175481.7006406248,
      "d": 91.14579687500373,
      "v": 44
    },
    {
      "midi": 77,
      "hit": false,
      "t": 175503.40202083313,
      "d": 91.14579687500373,
      "v": 46
    },
    {
      "midi": 64,
      "hit": false,
      "t": 175572.8464374998,
      "d": 117.18745312499232,
      "v": 44
    },
    {
      "midi": 76,
      "hit": false,
      "t": 175594.54781770814,
      "d": 117.18745312499232,
      "v": 46
    },
    {
      "midi": 56,
      "hit": false,
      "t": 175633.61030208258,
      "d": 47.74303645832697,
      "v": 44
    },
    {
      "midi": 40,
      "hit": false,
      "t": 175841.94355208258,
      "d": 82.4652447916742,
      "v": 96
    },
    {
      "midi": 56,
      "hit": false,
      "t": 175841.94355208258,
      "d": 99.82634895833326,
      "v": 127
    },
    {
      "midi": 56,
      "hit": false,
      "t": 176050.27680208258,
      "d": 65.10414062498603,
      "v": 43
    },
    {
      "midi": 62,
      "hit": false,
      "t": 176141.42259895813,
      "d": 481.7706406250072,
      "v": 45
    },
    {
      "midi": 74,
      "hit": false,
      "t": 176163.12397916647,
      "d": 481.7706406250072,
      "v": 47
    },
    {
      "midi": 52,
      "hit": false,
      "t": 176258.61005208257,
      "d": 117.18745312499232,
      "v": 87
    },
    {
      "midi": 64,
      "hit": false,
      "t": 176267.29060416712,
      "d": 212.67352604167536,
      "v": 85
    },
    {
      "midi": 52,
      "hit": false,
      "t": 176466.94330208257,
      "d": 13.020828125008848,
      "v": 38
    },
    {
      "midi": 66,
      "hit": false,
      "t": 176471.28357812547,
      "d": 8.68055208332953,
      "v": 85
    },
    {
      "midi": 59,
      "hit": false,
      "t": 176488.64468229184,
      "d": 60.76386458333582,
      "v": 96
    },
    {
      "midi": 64,
      "hit": false,
      "t": 176488.64468229184,
      "d": 60.76386458333582,
      "v": 96
    },
    {
      "midi": 68,
      "hit": false,
      "t": 176488.64468229184,
      "d": 60.76386458333582,
      "v": 96
    },
    {
      "midi": 60,
      "hit": false,
      "t": 176553.74882291685,
      "d": 3224.825098958332,
      "v": 96
    },
    {
      "midi": 64,
      "hit": false,
      "t": 176553.74882291685,
      "d": 3224.825098958332,
      "v": 96
    },
    {
      "midi": 67,
      "hit": false,
      "t": 176553.74882291685,
      "d": 3224.825098958332,
      "v": 96
    },
    {
      "midi": 60,
      "hit": false,
      "t": 176679.6168281248,
      "d": 1410.5897135416744,
      "v": 46
    },
    {
      "midi": 36,
      "hit": false,
      "t": 176683.9571041668,
      "d": 785.5899635416572,
      "v": 96
    },
    {
      "midi": 48,
      "hit": false,
      "t": 176688.29738020757,
      "d": 86.80552083335351,
      "v": 96
    },
    {
      "midi": 55,
      "hit": false,
      "t": 176692.63765624925,
      "d": 99.82634895833326,
      "v": 127
    },
    {
      "midi": 52,
      "hit": false,
      "t": 176692.63765625047,
      "d": 672.7427864583442,
      "v": 97
    },
    {
      "midi": 60,
      "hit": false,
      "t": 176692.63765625047,
      "d": 672.7427864583442,
      "v": 94
    },
    {
      "midi": 64,
      "hit": false,
      "t": 176696.97793229215,
      "d": 668.4025104166649,
      "v": 85
    },
    {
      "midi": 67,
      "hit": false,
      "t": 176696.97793229215,
      "d": 668.4025104166649,
      "v": 96
    },
    {
      "midi": 72,
      "hit": false,
      "t": 176701.31820833313,
      "d": 1410.5897135416744,
      "v": 48
    },
    {
      "midi": 55,
      "hit": false,
      "t": 176879.2695260409,
      "d": 34.722208333347226,
      "v": 31
    },
    {
      "midi": 55,
      "hit": false,
      "t": 177087.60277604093,
      "d": 52.083312500006286,
      "v": 57
    },
    {
      "midi": 48,
      "hit": false,
      "t": 177300.2763020826,
      "d": 82.4652447916742,
      "v": 96
    },
    {
      "midi": 55,
      "hit": false,
      "t": 177300.2763020826,
      "d": 99.82634895833326,
      "v": 127
    },
    {
      "midi": 55,
      "hit": false,
      "t": 177508.6095520826,
      "d": 65.10414062498603,
      "v": 31
    },
    {
      "midi": 55,
      "hit": false,
      "t": 177716.9428020826,
      "d": 65.10414062498603,
      "v": 66
    },
    {
      "midi": 36,
      "hit": false,
      "t": 177925.27605208344,
      "d": 65.10414062498603,
      "v": 96
    },
    {
      "midi": 48,
      "hit": false,
      "t": 177929.61632812425,
      "d": 78.12496874999488,
      "v": 96
    },
    {
      "midi": 55,
      "hit": false,
      "t": 177929.61632812425,
      "d": 78.12496874999488,
      "v": 127
    },
    {
      "midi": 55,
      "hit": false,
      "t": 178129.2690260409,
      "d": 47.74303645832697,
      "v": 65
    },
    {
      "midi": 55,
      "hit": false,
      "t": 178341.94255208256,
      "d": 30.38193229166791,
      "v": 52
    },
    {
      "midi": 36,
      "hit": false,
      "t": 178341.94255208343,
      "d": 894.09686458332,
      "v": 96
    },
    {
      "midi": 48,
      "hit": false,
      "t": 178550.27580208256,
      "d": 78.12496874999488,
      "v": 96
    },
    {
      "midi": 55,
      "hit": false,
      "t": 178550.27580208256,
      "d": 95.48607291665394,
      "v": 127
    },
    {
      "midi": 55,
      "hit": false,
      "t": 178758.60905208255,
      "d": 26.04165624998859,
      "v": 31
    },
    {
      "midi": 55,
      "hit": false,
      "t": 178966.94230208255,
      "d": 47.74303645832697,
      "v": 62
    },
    {
      "midi": 48,
      "hit": false,
      "t": 179175.27555208254,
      "d": 95.48607291668304,
      "v": 96
    },
    {
      "midi": 55,
      "hit": false,
      "t": 179179.61582812422,
      "d": 95.48607291668304,
      "v": 127
    },
    {
      "midi": 52,
      "hit": false,
      "t": 179383.60880208257,
      "d": 134.54855729168048,
      "v": 92
    },
    {
      "midi": 36,
      "hit": false,
      "t": 179383.6088020834,
      "d": 8.68055208332953,
      "v": 96
    },
    {
      "midi": 52,
      "hit": false,
      "t": 179591.9420520826,
      "d": 78.12496874999488,
      "v": 36
    },
    {
      "midi": 31,
      "hit": false,
      "t": 179591.9420520834,
      "d": 186.63186979165766,
      "v": 96
    },
    {
      "midi": 55,
      "hit": false,
      "t": 179739.5114374998,
      "d": 117.18745312499232,
      "v": 49
    },
    {
      "midi": 67,
      "hit": false,
      "t": 179761.21281770815,
      "d": 117.18745312499232,
      "v": 51
    },
    {
      "midi": 45,
      "hit": false,
      "t": 179800.2753020826,
      "d": 30.38193229166791,
      "v": 36
    },
    {
      "midi": 56,
      "hit": false,
      "t": 179856.6988906248,
      "d": 95.48607291665394,
      "v": 49
    },
    {
      "midi": 68,
      "hit": false,
      "t": 179878.40027083314,
      "d": 95.48607291665394,
      "v": 51
    },
    {
      "midi": 57,
      "hit": false,
      "t": 179952.18496354145,
      "d": 1232.6383958333463,
      "v": 49
    },
    {
      "midi": 69,
      "hit": false,
      "t": 179973.8863437498,
      "d": 1232.6383958333463,
      "v": 51
    },
    {
      "midi": 33,
      "hit": false,
      "t": 180017.28910416676,
      "d": 781.249687500007,
      "v": 96
    },
    {
      "midi": 45,
      "hit": false,
      "t": 180021.6293802076,
      "d": 65.10414062498603,
      "v": 96
    },
    {
      "midi": 57,
      "hit": false,
      "t": 180021.6293802076,
      "d": 69.44441666666535,
      "v": 127
    },
    {
      "midi": 60,
      "hit": false,
      "t": 180025.9696562505,
      "d": 672.7427864583151,
      "v": 85
    },
    {
      "midi": 69,
      "hit": false,
      "t": 180025.9696562505,
      "d": 672.7427864583151,
      "v": 96
    },
    {
      "midi": 60,
      "hit": false,
      "t": 180030.30993229186,
      "d": 3103.2973697916605,
      "v": 96
    },
    {
      "midi": 69,
      "hit": false,
      "t": 180030.30993229186,
      "d": 3103.2973697916605,
      "v": 96
    },
    {
      "midi": 45,
      "hit": false,
      "t": 180034.65020833383,
      "d": 664.0622343749856,
      "v": 97
    },
    {
      "midi": 64,
      "hit": false,
      "t": 180034.65020833383,
      "d": 664.0622343749856,
      "v": 94
    },
    {
      "midi": 64,
      "hit": false,
      "t": 180038.9904843752,
      "d": 3094.616817708331,
      "v": 96
    },
    {
      "midi": 57,
      "hit": false,
      "t": 180212.60152604093,
      "d": 47.74303645832697,
      "v": 60
    },
    {
      "midi": 57,
      "hit": false,
      "t": 180420.93477604093,
      "d": 47.74303645832697,
      "v": 66
    },
    {
      "midi": 45,
      "hit": false,
      "t": 180633.60830208258,
      "d": 60.76386458333582,
      "v": 96
    },
    {
      "midi": 57,
      "hit": false,
      "t": 180633.60830208258,
      "d": 78.12496874999488,
      "v": 127
    },
    {
      "midi": 57,
      "hit": false,
      "t": 180841.94155208257,
      "d": 26.04165624998859,
      "v": 63
    },
    {
      "midi": 57,
      "hit": false,
      "t": 181045.9345260409,
      "d": 47.74303645832697,
      "v": 53
    },
    {
      "midi": 60,
      "hit": false,
      "t": 181249.9274999998,
      "d": 1093.7495625000156,
      "v": 48
    },
    {
      "midi": 45,
      "hit": false,
      "t": 181258.60805208253,
      "d": 65.10414062501513,
      "v": 96
    },
    {
      "midi": 33,
      "hit": false,
      "t": 181258.60805208344,
      "d": 60.76386458333582,
      "v": 96
    },
    {
      "midi": 57,
      "hit": false,
      "t": 181262.9483281242,
      "d": 73.78469270834466,
      "v": 127
    },
    {
      "midi": 72,
      "hit": false,
      "t": 181271.62888020813,
      "d": 1093.7495625000156,
      "v": 50
    },
    {
      "midi": 57,
      "hit": false,
      "t": 181462.60102604088,
      "d": 17.36110416665906,
      "v": 30
    },
    {
      "midi": 64,
      "hit": false,
      "t": 181636.2120677088,
      "d": 690.1038906250033,
      "v": 96
    },
    {
      "midi": 57,
      "hit": false,
      "t": 181675.27455208253,
      "d": 43.402760416676756,
      "v": 44
    },
    {
      "midi": 33,
      "hit": false,
      "t": 181675.27455208343,
      "d": 1453.992473958322,
      "v": 96
    },
    {
      "midi": 72,
      "hit": false,
      "t": 181675.2745520838,
      "d": 685.763614583353,
      "v": 96
    },
    {
      "midi": 81,
      "hit": false,
      "t": 181705.65648437547,
      "d": 690.1038906250324,
      "v": 96
    },
    {
      "midi": 45,
      "hit": false,
      "t": 181879.26752604087,
      "d": 65.10414062501513,
      "v": 96
    },
    {
      "midi": 57,
      "hit": false,
      "t": 181883.60780208255,
      "d": 78.12496874999488,
      "v": 127
    },
    {
      "midi": 57,
      "hit": false,
      "t": 182087.60077604087,
      "d": 47.74303645832697,
      "v": 53
    },
    {
      "midi": 64,
      "hit": false,
      "t": 182087.60077604145,
      "d": 243.05545833334327,
      "v": 45
    },
    {
      "midi": 76,
      "hit": false,
      "t": 182109.3021562498,
      "d": 243.05545833334327,
      "v": 47
    },
    {
      "midi": 57,
      "hit": false,
      "t": 182295.93402604086,
      "d": 47.74303645832697,
      "v": 44
    },
    {
      "midi": 45,
      "hit": false,
      "t": 182508.6075520825,
      "d": 78.12496874999488,
      "v": 96
    },
    {
      "midi": 57,
      "hit": false,
      "t": 182508.6075520825,
      "d": 95.48607291665394,
      "v": 127
    },
    {
      "midi": 57,
      "hit": false,
      "t": 182712.60052604083,
      "d": 65.10414062498603,
      "v": 43
    },
    {
      "midi": 48,
      "hit": false,
      "t": 182925.27405208247,
      "d": 43.402760416676756,
      "v": 81
    },
    {
      "midi": 64,
      "hit": false,
      "t": 183064.16288541647,
      "d": 234.37490625001374,
      "v": 46
    },
    {
      "midi": 76,
      "hit": false,
      "t": 183085.8642656248,
      "d": 234.37490625001374,
      "v": 48
    },
    {
      "midi": 62,
      "hit": false,
      "t": 183133.60730208352,
      "d": 30.38193229166791,
      "v": 96
    },
    {
      "midi": 66,
      "hit": false,
      "t": 183137.9475781252,
      "d": 26.04165624998859,
      "v": 96
    },
    {
      "midi": 69,
      "hit": false,
      "t": 183137.9475781252,
      "d": 26.04165624998859,
      "v": 96
    },
    {
      "midi": 54,
      "hit": false,
      "t": 183142.28785416583,
      "d": 4.340276041679317,
      "v": 35
    },
    {
      "midi": 62,
      "hit": false,
      "t": 183168.32951041686,
      "d": 3259.5473072916793,
      "v": 96
    },
    {
      "midi": 65,
      "hit": false,
      "t": 183168.32951041686,
      "d": 3259.5473072916793,
      "v": 96
    },
    {
      "midi": 69,
      "hit": false,
      "t": 183168.32951041686,
      "d": 3259.5473072916793,
      "v": 96
    },
    {
      "midi": 65,
      "hit": false,
      "t": 183346.2808281248,
      "d": 1888.0200781250023,
      "v": 45
    },
    {
      "midi": 38,
      "hit": false,
      "t": 183350.62110416676,
      "d": 781.249687500007,
      "v": 96
    },
    {
      "midi": 50,
      "hit": false,
      "t": 183354.9613802075,
      "d": 82.4652447916742,
      "v": 96
    },
    {
      "midi": 57,
      "hit": false,
      "t": 183354.9613802075,
      "d": 99.82634895833326,
      "v": 127
    },
    {
      "midi": 62,
      "hit": false,
      "t": 183354.9613802088,
      "d": 672.7427864583733,
      "v": 94
    },
    {
      "midi": 50,
      "hit": false,
      "t": 183359.3016562505,
      "d": 672.7427864583733,
      "v": 97
    },
    {
      "midi": 69,
      "hit": false,
      "t": 183359.3016562505,
      "d": 672.7427864583733,
      "v": 96
    },
    {
      "midi": 77,
      "hit": false,
      "t": 183363.64193229217,
      "d": 668.402510416694,
      "v": 85
    },
    {
      "midi": 77,
      "hit": false,
      "t": 183367.98220833315,
      "d": 1888.0200781250023,
      "v": 47
    },
    {
      "midi": 57,
      "hit": false,
      "t": 183545.93352604084,
      "d": 30.38193229166791,
      "v": 31
    },
    {
      "midi": 57,
      "hit": false,
      "t": 183754.26677604084,
      "d": 47.74303645832697,
      "v": 57
    },
    {
      "midi": 50,
      "hit": false,
      "t": 183966.94030208248,
      "d": 78.12496874999488,
      "v": 96
    },
    {
      "midi": 57,
      "hit": false,
      "t": 183966.94030208248,
      "d": 95.48607291665394,
      "v": 127
    },
    {
      "midi": 57,
      "hit": false,
      "t": 184175.27355208248,
      "d": 60.76386458333582,
      "v": 31
    },
    {
      "midi": 57,
      "hit": false,
      "t": 184379.26652604082,
      "d": 65.10414062498603,
      "v": 66
    },
    {
      "midi": 50,
      "hit": false,
      "t": 184591.94005208247,
      "d": 78.12496874999488,
      "v": 96
    },
    {
      "midi": 57,
      "hit": false,
      "t": 184591.94005208247,
      "d": 78.12496874999488,
      "v": 127
    },
    {
      "midi": 38,
      "hit": false,
      "t": 184591.94005208343,
      "d": 60.76386458333582,
      "v": 96
    },
    {
      "midi": 57,
      "hit": false,
      "t": 184795.9330260408,
      "d": 47.74303645832697,
      "v": 65
    },
    {
      "midi": 38,
      "hit": false,
      "t": 185004.26627604177,
      "d": 1419.270265625004,
      "v": 96
    },
    {
      "midi": 57,
      "hit": false,
      "t": 185008.60655208243,
      "d": 26.04165624998859,
      "v": 52
    },
    {
      "midi": 50,
      "hit": false,
      "t": 185212.59952604075,
      "d": 82.4652447916742,
      "v": 96
    },
    {
      "midi": 57,
      "hit": false,
      "t": 185212.59952604075,
      "d": 99.82634895833326,
      "v": 127
    },
    {
      "midi": 57,
      "hit": false,
      "t": 185420.93277604075,
      "d": 30.38193229166791,
      "v": 31
    },
    {
      "midi": 57,
      "hit": false,
      "t": 185629.26602604074,
      "d": 47.74303645832697,
      "v": 62
    },
    {
      "midi": 65,
      "hit": false,
      "t": 185633.60630208388,
      "d": 685.7636145833239,
      "v": 85
    },
    {
      "midi": 50,
      "hit": false,
      "t": 185837.59927604074,
      "d": 99.82634895833326,
      "v": 96
    },
    {
      "midi": 57,
      "hit": false,
      "t": 185841.93955208242,
      "d": 95.48607291665394,
      "v": 127
    },
    {
      "midi": 57,
      "hit": false,
      "t": 186050.2728020824,
      "d": 26.04165624998859,
      "v": 69
    },
    {
      "midi": 69,
      "hit": false,
      "t": 186050.27280208387,
      "d": 377.60401562499464,
      "v": 85
    },
    {
      "midi": 53,
      "hit": false,
      "t": 186258.6060520824,
      "d": 60.76386458333582,
      "v": 93
    },
    {
      "midi": 62,
      "hit": false,
      "t": 186432.21709375022,
      "d": 8.680552083358634,
      "v": 96
    },
    {
      "midi": 67,
      "hit": false,
      "t": 186432.21709375022,
      "d": 13.020828125037951,
      "v": 96
    },
    {
      "midi": 71,
      "hit": false,
      "t": 186436.5573697919,
      "d": 8.680552083358634,
      "v": 96
    },
    {
      "midi": 62,
      "hit": false,
      "t": 186445.23792187526,
      "d": 47.74303645835607,
      "v": 96
    },
    {
      "midi": 67,
      "hit": false,
      "t": 186445.23792187526,
      "d": 52.08331250003539,
      "v": 96
    },
    {
      "midi": 71,
      "hit": false,
      "t": 186449.57819791694,
      "d": 47.74303645835607,
      "v": 96
    },
    {
      "midi": 55,
      "hit": false,
      "t": 186462.59902604076,
      "d": 13.020828125008848,
      "v": 34
    },
    {
      "midi": 62,
      "hit": false,
      "t": 186501.66151041698,
      "d": 3224.825098958332,
      "v": 96
    },
    {
      "midi": 65,
      "hit": false,
      "t": 186501.66151041698,
      "d": 3224.825098958332,
      "v": 96
    },
    {
      "midi": 67,
      "hit": false,
      "t": 186501.66151041698,
      "d": 3224.825098958332,
      "v": 96
    },
    {
      "midi": 71,
      "hit": false,
      "t": 186501.66151041698,
      "d": 3224.825098958332,
      "v": 96
    },
    {
      "midi": 43,
      "hit": false,
      "t": 186683.95310416576,
      "d": 69.44441666666535,
      "v": 96
    },
    {
      "midi": 31,
      "hit": false,
      "t": 186683.95310416675,
      "d": 781.249687500007,
      "v": 96
    },
    {
      "midi": 59,
      "hit": false,
      "t": 186688.29338020744,
      "d": 65.10414062498603,
      "v": 127
    },
    {
      "midi": 71,
      "hit": false,
      "t": 186688.29338020887,
      "d": 672.7427864583733,
      "v": 94
    },
    {
      "midi": 74,
      "hit": false,
      "t": 186692.63365625055,
      "d": 672.7427864583733,
      "v": 96
    },
    {
      "midi": 62,
      "hit": false,
      "t": 186696.97393229223,
      "d": 668.402510416694,
      "v": 97
    },
    {
      "midi": 65,
      "hit": false,
      "t": 186696.97393229223,
      "d": 668.402510416694,
      "v": 97
    },
    {
      "midi": 67,
      "hit": false,
      "t": 186696.97393229223,
      "d": 668.402510416694,
      "v": 85
    },
    {
      "midi": 59,
      "hit": false,
      "t": 186879.26552604075,
      "d": 47.74303645832697,
      "v": 60
    },
    {
      "midi": 59,
      "hit": false,
      "t": 187087.59877604074,
      "d": 47.74303645832697,
      "v": 66
    },
    {
      "midi": 67,
      "hit": false,
      "t": 187117.98070833314,
      "d": 1076.3884583333274,
      "v": 47
    },
    {
      "midi": 79,
      "hit": false,
      "t": 187139.68208854148,
      "d": 1076.3884583333274,
      "v": 49
    },
    {
      "midi": 43,
      "hit": false,
      "t": 187295.93202604074,
      "d": 65.10414062501513,
      "v": 96
    },
    {
      "midi": 59,
      "hit": false,
      "t": 187300.27230208242,
      "d": 78.12496874999488,
      "v": 127
    },
    {
      "midi": 59,
      "hit": false,
      "t": 187504.26527604074,
      "d": 30.38193229166791,
      "v": 63
    },
    {
      "midi": 59,
      "hit": false,
      "t": 187712.59852604073,
      "d": 47.74303645832697,
      "v": 53
    },
    {
      "midi": 43,
      "hit": false,
      "t": 187925.27205208238,
      "d": 60.76386458333582,
      "v": 96
    },
    {
      "midi": 59,
      "hit": false,
      "t": 187925.27205208238,
      "d": 78.12496874999488,
      "v": 127
    },
    {
      "midi": 29,
      "hit": false,
      "t": 187929.61232812508,
      "d": 56.4235885416565,
      "v": 96
    },
    {
      "midi": 59,
      "hit": false,
      "t": 188129.2650260407,
      "d": 13.020828125008848,
      "v": 30
    },
    {
      "midi": 31,
      "hit": false,
      "t": 188337.59827604174,
      "d": 1384.5480572916567,
      "v": 96
    },
    {
      "midi": 59,
      "hit": false,
      "t": 188341.93855208237,
      "d": 43.402760416676756,
      "v": 44
    },
    {
      "midi": 55,
      "hit": false,
      "t": 188341.93855208313,
      "d": 820.3121718750044,
      "v": 50
    },
    {
      "midi": 67,
      "hit": false,
      "t": 188363.63993229147,
      "d": 820.3121718750044,
      "v": 52
    },
    {
      "midi": 43,
      "hit": false,
      "t": 188545.93152604072,
      "d": 65.10414062498603,
      "v": 96
    },
    {
      "midi": 59,
      "hit": false,
      "t": 188545.93152604072,
      "d": 82.46524479164509,
      "v": 127
    },
    {
      "midi": 59,
      "hit": false,
      "t": 188754.26477604068,
      "d": 47.74303645832697,
      "v": 53
    },
    {
      "midi": 59,
      "hit": false,
      "t": 188962.59802604068,
      "d": 47.74303645832697,
      "v": 44
    },
    {
      "midi": 56,
      "hit": false,
      "t": 189162.25072395813,
      "d": 13.020828125008848,
      "v": 50
    },
    {
      "midi": 43,
      "hit": false,
      "t": 189170.93127604068,
      "d": 82.4652447916742,
      "v": 96
    },
    {
      "midi": 59,
      "hit": false,
      "t": 189175.27155208235,
      "d": 95.48607291665394,
      "v": 127
    },
    {
      "midi": 68,
      "hit": false,
      "t": 189183.95210416647,
      "d": 13.020828125008848,
      "v": 52
    },
    {
      "midi": 67,
      "hit": false,
      "t": 189227.35486458315,
      "d": 633.6803020833468,
      "v": 46
    },
    {
      "midi": 79,
      "hit": false,
      "t": 189249.05624479149,
      "d": 633.6803020833468,
      "v": 48
    },
    {
      "midi": 59,
      "hit": false,
      "t": 189379.26452604067,
      "d": 65.10414062498603,
      "v": 43
    },
    {
      "midi": 55,
      "hit": false,
      "t": 189591.93805208232,
      "d": 112.8471770833421,
      "v": 87
    },
    {
      "midi": 67,
      "hit": false,
      "t": 189596.2783281256,
      "d": 125.86800520832185,
      "v": 85
    },
    {
      "midi": 60,
      "hit": false,
      "t": 189730.826885417,
      "d": 43.402760416676756,
      "v": 96
    },
    {
      "midi": 64,
      "hit": false,
      "t": 189730.826885417,
      "d": 43.402760416676756,
      "v": 96
    },
    {
      "midi": 67,
      "hit": false,
      "t": 189730.826885417,
      "d": 47.74303645835607,
      "v": 96
    },
    {
      "midi": 60,
      "hit": false,
      "t": 189778.56992187534,
      "d": 17.361104166688165,
      "v": 96
    },
    {
      "midi": 64,
      "hit": false,
      "t": 189782.91019791702,
      "d": 13.020828125008848,
      "v": 96
    },
    {
      "midi": 67,
      "hit": false,
      "t": 189782.91019791702,
      "d": 17.361104166688165,
      "v": 96
    },
    {
      "midi": 60,
      "hit": false,
      "t": 189800.2713020837,
      "d": 3220.484822916682,
      "v": 96
    },
    {
      "midi": 64,
      "hit": false,
      "t": 189804.6115781254,
      "d": 3216.1445468750026,
      "v": 96
    },
    {
      "midi": 67,
      "hit": false,
      "t": 189804.6115781254,
      "d": 3220.484822916682,
      "v": 96
    },
    {
      "midi": 52,
      "hit": false,
      "t": 189808.95185416567,
      "d": 8.68055208332953,
      "v": 38
    },
    {
      "midi": 55,
      "hit": false,
      "t": 189813.29213020892,
      "d": 47.74303645832697,
      "v": 85
    },
    {
      "midi": 48,
      "hit": false,
      "t": 190017.28510416567,
      "d": 86.80552083335351,
      "v": 96
    },
    {
      "midi": 36,
      "hit": false,
      "t": 190017.28510416672,
      "d": 781.249687500007,
      "v": 96
    },
    {
      "midi": 55,
      "hit": false,
      "t": 190021.62538020735,
      "d": 99.82634895833326,
      "v": 127
    },
    {
      "midi": 52,
      "hit": false,
      "t": 190021.62538020892,
      "d": 672.7427864583733,
      "v": 97
    },
    {
      "midi": 60,
      "hit": false,
      "t": 190025.9656562506,
      "d": 668.402510416694,
      "v": 94
    },
    {
      "midi": 64,
      "hit": false,
      "t": 190025.9656562506,
      "d": 668.402510416694,
      "v": 85
    },
    {
      "midi": 67,
      "hit": false,
      "t": 190025.9656562506,
      "d": 672.7427864583733,
      "v": 96
    },
    {
      "midi": 64,
      "hit": false,
      "t": 190060.68786458316,
      "d": 1401.909161458345,
      "v": 44
    },
    {
      "midi": 76,
      "hit": false,
      "t": 190082.3892447915,
      "d": 1401.909161458345,
      "v": 46
    },
    {
      "midi": 55,
      "hit": false,
      "t": 190212.59752604068,
      "d": 30.38193229166791,
      "v": 31
    },
    {
      "midi": 55,
      "hit": false,
      "t": 190420.93077604068,
      "d": 47.74303645832697,
      "v": 57
    },
    {
      "midi": 48,
      "hit": false,
      "t": 190629.26402604068,
      "d": 82.4652447916742,
      "v": 96
    },
    {
      "midi": 55,
      "hit": false,
      "t": 190633.60430208236,
      "d": 95.48607291665394,
      "v": 127
    },
    {
      "midi": 55,
      "hit": false,
      "t": 190837.59727604067,
      "d": 65.10414062498603,
      "v": 31
    },
    {
      "midi": 55,
      "hit": false,
      "t": 191045.93052604067,
      "d": 65.10414062498603,
      "v": 66
    },
    {
      "midi": 48,
      "hit": false,
      "t": 191258.60405208232,
      "d": 78.12496874999488,
      "v": 96
    },
    {
      "midi": 55,
      "hit": false,
      "t": 191258.60405208232,
      "d": 78.12496874999488,
      "v": 127
    },
    {
      "midi": 36,
      "hit": false,
      "t": 191258.6040520834,
      "d": 60.76386458333582,
      "v": 96
    },
    {
      "midi": 55,
      "hit": false,
      "t": 191462.59702604063,
      "d": 47.74303645832697,
      "v": 65
    },
    {
      "midi": 36,
      "hit": false,
      "t": 191670.93027604173,
      "d": 898.4371406249993,
      "v": 96
    },
    {
      "midi": 55,
      "hit": false,
      "t": 191675.27055208228,
      "d": 26.04165624998859,
      "v": 52
    },
    {
      "midi": 48,
      "hit": false,
      "t": 191879.2635260406,
      "d": 82.4652447916742,
      "v": 96
    },
    {
      "midi": 55,
      "hit": false,
      "t": 191879.2635260406,
      "d": 99.82634895833326,
      "v": 127
    },
    {
      "midi": 55,
      "hit": false,
      "t": 192087.5967760406,
      "d": 30.38193229166791,
      "v": 31
    },
    {
      "midi": 55,
      "hit": false,
      "t": 192295.9300260406,
      "d": 47.74303645832697,
      "v": 62
    },
    {
      "midi": 48,
      "hit": false,
      "t": 192504.26327604058,
      "d": 99.82634895833326,
      "v": 96
    },
    {
      "midi": 55,
      "hit": false,
      "t": 192508.60355208226,
      "d": 95.48607291665394,
      "v": 127
    },
    {
      "midi": 52,
      "hit": false,
      "t": 192716.93680208226,
      "d": 130.20828125000116,
      "v": 92
    },
    {
      "midi": 36,
      "hit": false,
      "t": 192716.9368020834,
      "d": 8.68055208332953,
      "v": 96
    },
    {
      "midi": 31,
      "hit": false,
      "t": 192920.9297760417,
      "d": 99.82634895833326,
      "v": 96
    },
    {
      "midi": 52,
      "hit": false,
      "t": 192925.27005208225,
      "d": 78.12496874999488,
      "v": 36
    },
    {
      "midi": 28,
      "hit": false,
      "t": 193029.4366770834,
      "d": 60.76386458333582,
      "v": 96
    },
    {
      "midi": 59,
      "hit": false,
      "t": 193029.43667708375,
      "d": 60.76386458333582,
      "v": 96
    },
    {
      "midi": 64,
      "hit": false,
      "t": 193029.43667708375,
      "d": 60.76386458333582,
      "v": 96
    },
    {
      "midi": 68,
      "hit": false,
      "t": 193029.43667708375,
      "d": 65.10414062501513,
      "v": 96
    },
    {
      "midi": 28,
      "hit": false,
      "t": 193094.54081770842,
      "d": 47.74303645832697,
      "v": 96
    },
    {
      "midi": 59,
      "hit": false,
      "t": 193094.54081770877,
      "d": 52.083312500006286,
      "v": 96
    },
    {
      "midi": 64,
      "hit": false,
      "t": 193098.88109375045,
      "d": 47.74303645832697,
      "v": 96
    },
    {
      "midi": 68,
      "hit": false,
      "t": 193098.88109375045,
      "d": 47.74303645832697,
      "v": 96
    },
    {
      "midi": 40,
      "hit": false,
      "t": 193129.26302604057,
      "d": 13.020828125008848,
      "v": 36
    },
    {
      "midi": 28,
      "hit": false,
      "t": 193346.2768281251,
      "d": 785.5899635416572,
      "v": 96
    },
    {
      "midi": 40,
      "hit": false,
      "t": 193354.95738020726,
      "d": 65.10414062498603,
      "v": 96
    },
    {
      "midi": 56,
      "hit": false,
      "t": 193354.95738020726,
      "d": 65.10414062498603,
      "v": 127
    },
    {
      "midi": 64,
      "hit": false,
      "t": 193354.95738020897,
      "d": 672.7427864583442,
      "v": 94
    },
    {
      "midi": 59,
      "hit": false,
      "t": 193359.29765625045,
      "d": 3064.234885416663,
      "v": 96
    },
    {
      "midi": 68,
      "hit": false,
      "t": 193359.29765625065,
      "d": 668.4025104166649,
      "v": 96
    },
    {
      "midi": 64,
      "hit": false,
      "t": 193363.63793229213,
      "d": 3059.8946093749837,
      "v": 96
    },
    {
      "midi": 68,
      "hit": false,
      "t": 193363.63793229213,
      "d": 3064.234885416663,
      "v": 96
    },
    {
      "midi": 62,
      "hit": false,
      "t": 193367.97820833398,
      "d": 659.7219583333354,
      "v": 85
    },
    {
      "midi": 71,
      "hit": false,
      "t": 193367.97820833398,
      "d": 664.0622343750147,
      "v": 97
    },
    {
      "midi": 62,
      "hit": false,
      "t": 193372.31848437546,
      "d": 3055.5543333333335,
      "v": 96
    },
    {
      "midi": 56,
      "hit": false,
      "t": 193541.5892499989,
      "d": 52.083312500006286,
      "v": 60
    },
    {
      "midi": 56,
      "hit": false,
      "t": 193749.9224999989,
      "d": 52.083312500006286,
      "v": 66
    },
    {
      "midi": 51,
      "hit": false,
      "t": 193767.2836041665,
      "d": 807.2913437499956,
      "v": 53
    },
    {
      "midi": 63,
      "hit": false,
      "t": 193788.98498437484,
      "d": 807.2913437499956,
      "v": 55
    },
    {
      "midi": 40,
      "hit": false,
      "t": 193962.59602604058,
      "d": 65.10414062498603,
      "v": 96
    },
    {
      "midi": 56,
      "hit": false,
      "t": 193962.59602604058,
      "d": 82.46524479164509,
      "v": 127
    },
    {
      "midi": 56,
      "hit": false,
      "t": 194170.92927604055,
      "d": 30.38193229166791,
      "v": 63
    },
    {
      "midi": 56,
      "hit": false,
      "t": 194379.26252604055,
      "d": 47.74303645832697,
      "v": 53
    },
    {
      "midi": 28,
      "hit": false,
      "t": 194587.59577604174,
      "d": 65.10414062498603,
      "v": 96
    },
    {
      "midi": 40,
      "hit": false,
      "t": 194591.9360520822,
      "d": 60.76386458333582,
      "v": 96
    },
    {
      "midi": 56,
      "hit": false,
      "t": 194591.9360520822,
      "d": 78.12496874999488,
      "v": 127
    },
    {
      "midi": 52,
      "hit": false,
      "t": 194609.29715624984,
      "d": 1961.804770833347,
      "v": 58
    },
    {
      "midi": 64,
      "hit": false,
      "t": 194630.99853645818,
      "d": 1961.804770833347,
      "v": 60
    },
    {
      "midi": 56,
      "hit": false,
      "t": 194791.58874999886,
      "d": 17.36110416665906,
      "v": 30
    },
    {
      "midi": 64,
      "hit": false,
      "t": 194965.19979166734,
      "d": 694.4441666666535,
      "v": 96
    },
    {
      "midi": 59,
      "hit": false,
      "t": 194969.54006770902,
      "d": 690.1038906249742,
      "v": 96
    },
    {
      "midi": 56,
      "hit": false,
      "t": 195004.2622760405,
      "d": 47.74303645832697,
      "v": 44
    },
    {
      "midi": 28,
      "hit": false,
      "t": 195004.26227604173,
      "d": 1419.270265625004,
      "v": 96
    },
    {
      "midi": 74,
      "hit": false,
      "t": 195008.60255208402,
      "d": 685.7636145833239,
      "v": 96
    },
    {
      "midi": 80,
      "hit": false,
      "t": 195034.644208334,
      "d": 694.4441666666826,
      "v": 96
    },
    {
      "midi": 40,
      "hit": false,
      "t": 195212.5955260405,
      "d": 65.10414062498603,
      "v": 96
    },
    {
      "midi": 56,
      "hit": false,
      "t": 195212.5955260405,
      "d": 82.46524479164509,
      "v": 127
    },
    {
      "midi": 56,
      "hit": false,
      "t": 195420.92877604047,
      "d": 47.74303645832697,
      "v": 53
    },
    {
      "midi": 56,
      "hit": false,
      "t": 195629.26202604047,
      "d": 47.74303645832697,
      "v": 44
    },
    {
      "midi": 40,
      "hit": false,
      "t": 195837.59527604046,
      "d": 82.4652447916742,
      "v": 96
    },
    {
      "midi": 56,
      "hit": false,
      "t": 195841.93555208214,
      "d": 95.48607291665394,
      "v": 127
    },
    {
      "midi": 56,
      "hit": false,
      "t": 196045.92852604046,
      "d": 65.10414062498603,
      "v": 43
    },
    {
      "midi": 52,
      "hit": false,
      "t": 196254.26177604045,
      "d": 47.74303645832697,
      "v": 81
    },
    {
      "midi": 61,
      "hit": false,
      "t": 196432.21309375047,
      "d": 30.38193229166791,
      "v": 96
    },
    {
      "midi": 64,
      "hit": false,
      "t": 196432.21309375047,
      "d": 30.38193229166791,
      "v": 96
    },
    {
      "midi": 69,
      "hit": false,
      "t": 196432.21309375047,
      "d": 30.38193229166791,
      "v": 96
    },
    {
      "midi": 60,
      "hit": false,
      "t": 196466.93530208382,
      "d": 26.04165624998859,
      "v": 96
    },
    {
      "midi": 64,
      "hit": false,
      "t": 196466.93530208382,
      "d": 30.38193229166791,
      "v": 96
    },
    {
      "midi": 69,
      "hit": false,
      "t": 196466.93530208382,
      "d": 30.38193229166791,
      "v": 96
    },
    {
      "midi": 48,
      "hit": false,
      "t": 196471.27557812378,
      "d": 4.340276041679317,
      "v": 35
    },
    {
      "midi": 60,
      "hit": false,
      "t": 196497.31723437548,
      "d": 3259.5473072916793,
      "v": 96
    },
    {
      "midi": 69,
      "hit": false,
      "t": 196501.65751041716,
      "d": 3255.20703125,
      "v": 96
    },
    {
      "midi": 64,
      "hit": false,
      "t": 196501.65751041716,
      "d": 3259.5473072916793,
      "v": 96
    },
    {
      "midi": 33,
      "hit": false,
      "t": 196679.60882812508,
      "d": 785.5899635416572,
      "v": 96
    },
    {
      "midi": 45,
      "hit": false,
      "t": 196683.94910416545,
      "d": 86.80552083332441,
      "v": 96
    },
    {
      "midi": 57,
      "hit": false,
      "t": 196683.94910416545,
      "d": 104.16662499998347,
      "v": 127
    },
    {
      "midi": 60,
      "hit": false,
      "t": 196688.28938020903,
      "d": 672.7427864583442,
      "v": 94
    },
    {
      "midi": 69,
      "hit": false,
      "t": 196688.28938020903,
      "d": 672.7427864583442,
      "v": 96
    },
    {
      "midi": 45,
      "hit": false,
      "t": 196692.6296562507,
      "d": 668.4025104166649,
      "v": 97
    },
    {
      "midi": 76,
      "hit": false,
      "t": 196692.6296562507,
      "d": 668.4025104166649,
      "v": 85
    },
    {
      "midi": 57,
      "hit": false,
      "t": 196874.92124999876,
      "d": 34.722208333347226,
      "v": 31
    },
    {
      "midi": 57,
      "hit": false,
      "t": 197057.21284374985,
      "d": 169.2707656249986,
      "v": 44
    },
    {
      "midi": 69,
      "hit": false,
      "t": 197078.91422395819,
      "d": 169.2707656249986,
      "v": 46
    },
    {
      "midi": 57,
      "hit": false,
      "t": 197083.2544999988,
      "d": 52.083312500006286,
      "v": 57
    },
    {
      "midi": 59,
      "hit": false,
      "t": 197278.56692187485,
      "d": 190.97214583333698,
      "v": 46
    },
    {
      "midi": 45,
      "hit": false,
      "t": 197295.92802604046,
      "d": 82.4652447916742,
      "v": 96
    },
    {
      "midi": 57,
      "hit": false,
      "t": 197295.92802604046,
      "d": 99.82634895833326,
      "v": 127
    },
    {
      "midi": 71,
      "hit": false,
      "t": 197300.2683020832,
      "d": 190.97214583333698,
      "v": 48
    },
    {
      "midi": 57,
      "hit": false,
      "t": 197504.26127604046,
      "d": 65.10414062498603,
      "v": 31
    },
    {
      "midi": 60,
      "hit": false,
      "t": 197525.96265624985,
      "d": 1280.3814322916733,
      "v": 47
    },
    {
      "midi": 72,
      "hit": false,
      "t": 197547.66403645818,
      "d": 1280.3814322916733,
      "v": 49
    },
    {
      "midi": 57,
      "hit": false,
      "t": 197712.59452604046,
      "d": 65.10414062498603,
      "v": 66
    },
    {
      "midi": 45,
      "hit": false,
      "t": 197920.92777604045,
      "d": 82.4652447916742,
      "v": 96
    },
    {
      "midi": 33,
      "hit": false,
      "t": 197920.92777604173,
      "d": 65.10414062498603,
      "v": 96
    },
    {
      "midi": 57,
      "hit": false,
      "t": 197925.26805208213,
      "d": 78.12496874999488,
      "v": 127
    },
    {
      "midi": 64,
      "hit": false,
      "t": 197933.9486041665,
      "d": 390.6248437500035,
      "v": 46
    },
    {
      "midi": 76,
      "hit": false,
      "t": 197955.64998437485,
      "d": 390.6248437500035,
      "v": 48
    },
    {
      "midi": 57,
      "hit": false,
      "t": 198124.9207499988,
      "d": 52.083312500006286,
      "v": 65
    },
    {
      "midi": 57,
      "hit": false,
      "t": 198337.59427604047,
      "d": 30.38193229166791,
      "v": 52
    },
    {
      "midi": 33,
      "hit": false,
      "t": 198337.59427604172,
      "d": 1419.270265625004,
      "v": 96
    },
    {
      "midi": 45,
      "hit": false,
      "t": 198541.58724999882,
      "d": 86.80552083335351,
      "v": 96
    },
    {
      "midi": 57,
      "hit": false,
      "t": 198545.9275260405,
      "d": 99.82634895833326,
      "v": 127
    },
    {
      "midi": 57,
      "hit": false,
      "t": 198754.2607760405,
      "d": 30.38193229166791,
      "v": 31
    },
    {
      "midi": 60,
      "hit": false,
      "t": 198836.7260208332,
      "d": 572.9164375000109,
      "v": 45
    },
    {
      "midi": 72,
      "hit": false,
      "t": 198858.42740104152,
      "d": 572.9164375000109,
      "v": 47
    },
    {
      "midi": 57,
      "hit": false,
      "t": 198962.5940260405,
      "d": 47.74303645832697,
      "v": 62
    },
    {
      "midi": 64,
      "hit": false,
      "t": 198962.59402604238,
      "d": 690.1038906250033,
      "v": 85
    },
    {
      "midi": 45,
      "hit": false,
      "t": 199170.9272760405,
      "d": 95.48607291665394,
      "v": 96
    },
    {
      "midi": 57,
      "hit": false,
      "t": 199170.9272760405,
      "d": 99.82634895833326,
      "v": 127
    },
    {
      "midi": 57,
      "hit": false,
      "t": 199379.26052604048,
      "d": 30.38193229166791,
      "v": 69
    },
    {
      "midi": 69,
      "hit": false,
      "t": 199379.26052604237,
      "d": 377.60401562502375,
      "v": 85
    },
    {
      "midi": 57,
      "hit": false,
      "t": 199474.74659895818,
      "d": 260.4165625000023,
      "v": 46
    },
    {
      "midi": 69,
      "hit": false,
      "t": 199496.44797916652,
      "d": 260.4165625000023,
      "v": 48
    },
    {
      "midi": 48,
      "hit": false,
      "t": 199591.93405208216,
      "d": 60.76386458333582,
      "v": 93
    },
    {
      "midi": 62,
      "hit": false,
      "t": 199765.54509375052,
      "d": 43.402760416676756,
      "v": 96
    },
    {
      "midi": 66,
      "hit": false,
      "t": 199765.54509375052,
      "d": 43.402760416676756,
      "v": 96
    },
    {
      "midi": 69,
      "hit": false,
      "t": 199765.54509375052,
      "d": 43.402760416676756,
      "v": 96
    },
    {
      "midi": 54,
      "hit": false,
      "t": 199795.9270260405,
      "d": 13.020828125008848,
      "v": 34
    },
    {
      "midi": 62,
      "hit": false,
      "t": 199813.28813020888,
      "d": 3276.9084114583384,
      "v": 96
    },
    {
      "midi": 69,
      "hit": false,
      "t": 199813.28813020888,
      "d": 3276.9084114583384,
      "v": 96
    },
    {
      "midi": 65,
      "hit": false,
      "t": 199817.62840625056,
      "d": 3272.568135416659,
      "v": 96
    },
    {
      "midi": 62,
      "hit": false,
      "t": 200008.6005520832,
      "d": 1532.117442708346,
      "v": 47
    },
    {
      "midi": 38,
      "hit": false,
      "t": 200012.94082812505,
      "d": 781.249687500007,
      "v": 96
    },
    {
      "midi": 50,
      "hit": false,
      "t": 200017.2811041655,
      "d": 69.44441666666535,
      "v": 96
    },
    {
      "midi": 57,
      "hit": false,
      "t": 200017.2811041655,
      "d": 69.44441666666535,
      "v": 127
    },
    {
      "midi": 69,
      "hit": false,
      "t": 200021.62138020908,
      "d": 672.7427864583442,
      "v": 94
    },
    {
      "midi": 74,
      "hit": false,
      "t": 200021.62138020908,
      "d": 672.7427864583442,
      "v": 96
    },
    {
      "midi": 50,
      "hit": false,
      "t": 200025.96165625076,
      "d": 668.4025104166649,
      "v": 97
    },
    {
      "midi": 65,
      "hit": false,
      "t": 200025.96165625076,
      "d": 668.4025104166649,
      "v": 85
    },
    {
      "midi": 74,
      "hit": false,
      "t": 200030.30193229154,
      "d": 1532.117442708346,
      "v": 49
    },
    {
      "midi": 57,
      "hit": false,
      "t": 200208.25324999884,
      "d": 47.74303645832697,
      "v": 60
    },
    {
      "midi": 57,
      "hit": false,
      "t": 200416.58649999884,
      "d": 52.083312500006286,
      "v": 66
    },
    {
      "midi": 50,
      "hit": false,
      "t": 200629.26002604052,
      "d": 65.10414062498603,
      "v": 96
    },
    {
      "midi": 57,
      "hit": false,
      "t": 200629.26002604052,
      "d": 82.46524479164509,
      "v": 127
    },
    {
      "midi": 57,
      "hit": false,
      "t": 200837.59327604048,
      "d": 26.04165624998859,
      "v": 63
    },
    {
      "midi": 57,
      "hit": false,
      "t": 201045.92652604048,
      "d": 43.402760416676756,
      "v": 53
    },
    {
      "midi": 50,
      "hit": false,
      "t": 201254.25977604048,
      "d": 65.10414062501513,
      "v": 96
    },
    {
      "midi": 38,
      "hit": false,
      "t": 201254.25977604173,
      "d": 60.76386458333582,
      "v": 96
    },
    {
      "midi": 57,
      "hit": false,
      "t": 201258.60005208215,
      "d": 73.78469270834466,
      "v": 127
    },
    {
      "midi": 57,
      "hit": false,
      "t": 201458.25274999882,
      "d": 17.36110416665906,
      "v": 30
    },
    {
      "midi": 57,
      "hit": false,
      "t": 201610.1624114582,
      "d": 1245.659223958326,
      "v": 49
    },
    {
      "midi": 69,
      "hit": false,
      "t": 201631.86379166655,
      "d": 1245.659223958326,
      "v": 51
    },
    {
      "midi": 57,
      "hit": false,
      "t": 201670.92627604047,
      "d": 43.402760416676756,
      "v": 44
    },
    {
      "midi": 38,
      "hit": false,
      "t": 201670.92627604172,
      "d": 1419.270265625004,
      "v": 96
    },
    {
      "midi": 50,
      "hit": false,
      "t": 201874.9192499988,
      "d": 65.10414062501513,
      "v": 96
    },
    {
      "midi": 57,
      "hit": false,
      "t": 201879.2595260405,
      "d": 78.12496874999488,
      "v": 127
    },
    {
      "midi": 57,
      "hit": false,
      "t": 202083.2524999988,
      "d": 47.74303645832697,
      "v": 53
    },
    {
      "midi": 57,
      "hit": false,
      "t": 202291.5857499988,
      "d": 47.74303645832697,
      "v": 44
    },
    {
      "midi": 50,
      "hit": false,
      "t": 202504.25927604045,
      "d": 78.12496874999488,
      "v": 96
    },
    {
      "midi": 57,
      "hit": false,
      "t": 202504.25927604045,
      "d": 95.48607291665394,
      "v": 127
    },
    {
      "midi": 57,
      "hit": false,
      "t": 202712.59252604045,
      "d": 60.76386458333582,
      "v": 43
    },
    {
      "midi": 57,
      "hit": false,
      "t": 202890.54384374988,
      "d": 138.8888333333307,
      "v": 45
    },
    {
      "midi": 69,
      "hit": false,
      "t": 202912.24522395822,
      "d": 138.8888333333307,
      "v": 47
    },
    {
      "midi": 62,
      "hit": false,
      "t": 202920.92577604242,
      "d": 169.2707656249986,
      "v": 85
    },
    {
      "midi": 53,
      "hit": false,
      "t": 202925.26605208212,
      "d": 112.8471770833421,
      "v": 87
    },
    {
      "midi": 56,
      "hit": false,
      "t": 203085.85626562487,
      "d": 217.01380208332557,
      "v": 46
    },
    {
      "midi": 62,
      "hit": false,
      "t": 203094.5368177089,
      "d": 47.74303645835607,
      "v": 96
    },
    {
      "midi": 67,
      "hit": false,
      "t": 203094.5368177089,
      "d": 47.74303645835607,
      "v": 96
    },
    {
      "midi": 71,
      "hit": false,
      "t": 203098.87709375058,
      "d": 43.402760416676756,
      "v": 96
    },
    {
      "midi": 68,
      "hit": false,
      "t": 203107.5576458332,
      "d": 217.01380208332557,
      "v": 48
    },
    {
      "midi": 55,
      "hit": false,
      "t": 203129.25902604047,
      "d": 13.020828125008848,
      "v": 38
    },
    {
      "midi": 59,
      "hit": false,
      "t": 203129.25902604242,
      "d": 13.020828125008848,
      "v": 85
    },
    {
      "midi": 62,
      "hit": false,
      "t": 203146.62013020893,
      "d": 3328.9917239583447,
      "v": 96
    },
    {
      "midi": 67,
      "hit": false,
      "t": 203146.62013020893,
      "d": 3328.9917239583447,
      "v": 96
    },
    {
      "midi": 71,
      "hit": false,
      "t": 203150.9604062506,
      "d": 3324.6514479166653,
      "v": 96
    },
    {
      "midi": 65,
      "hit": false,
      "t": 203150.9604062506,
      "d": 3328.9917239583447,
      "v": 96
    },
    {
      "midi": 55,
      "hit": false,
      "t": 203346.27282812487,
      "d": 1657.985447916668,
      "v": 46
    },
    {
      "midi": 31,
      "hit": false,
      "t": 203346.27282812505,
      "d": 781.249687500007,
      "v": 96
    },
    {
      "midi": 43,
      "hit": false,
      "t": 203350.61310416547,
      "d": 82.4652447916742,
      "v": 96
    },
    {
      "midi": 59,
      "hit": false,
      "t": 203350.61310416547,
      "d": 99.82634895833326,
      "v": 127
    },
    {
      "midi": 67,
      "hit": false,
      "t": 203354.9533802091,
      "d": 668.402510416694,
      "v": 85
    },
    {
      "midi": 71,
      "hit": false,
      "t": 203354.9533802091,
      "d": 672.7427864583733,
      "v": 96
    },
    {
      "midi": 62,
      "hit": false,
      "t": 203359.29365625078,
      "d": 668.402510416694,
      "v": 97
    },
    {
      "midi": 65,
      "hit": false,
      "t": 203359.29365625078,
      "d": 668.402510416694,
      "v": 94
    },
    {
      "midi": 67,
      "hit": false,
      "t": 203367.9742083332,
      "d": 1657.985447916668,
      "v": 48
    },
    {
      "midi": 59,
      "hit": false,
      "t": 203541.5852499988,
      "d": 30.38193229166791,
      "v": 31
    },
    {
      "midi": 59,
      "hit": false,
      "t": 203749.9184999988,
      "d": 47.74303645832697,
      "v": 57
    },
    {
      "midi": 43,
      "hit": false,
      "t": 203962.59202604045,
      "d": 78.12496874999488,
      "v": 96
    },
    {
      "midi": 59,
      "hit": false,
      "t": 203962.59202604045,
      "d": 95.48607291665394,
      "v": 127
    },
    {
      "midi": 59,
      "hit": false,
      "t": 204170.92527604045,
      "d": 60.76386458333582,
      "v": 31
    },
    {
      "midi": 67,
      "hit": false,
      "t": 204175.2655520832,
      "d": 1792.5340052083484,
      "v": 45
    },
    {
      "midi": 79,
      "hit": false,
      "t": 204196.96693229154,
      "d": 1792.5340052083484,
      "v": 47
    },
    {
      "midi": 59,
      "hit": false,
      "t": 204374.9182499988,
      "d": 65.10414062498603,
      "v": 66
    },
    {
      "midi": 43,
      "hit": false,
      "t": 204587.59177604044,
      "d": 78.12496874999488,
      "v": 96
    },
    {
      "midi": 59,
      "hit": false,
      "t": 204587.59177604044,
      "d": 78.12496874999488,
      "v": 127
    },
    {
      "midi": 29,
      "hit": false,
      "t": 204596.27232812505,
      "d": 52.083312500006286,
      "v": 96
    },
    {
      "midi": 59,
      "hit": false,
      "t": 204791.58474999876,
      "d": 47.74303645832697,
      "v": 65
    },
    {
      "midi": 31,
      "hit": false,
      "t": 204999.91800000006,
      "d": 898.4371406249993,
      "v": 96
    },
    {
      "midi": 59,
      "hit": false,
      "t": 205004.2582760404,
      "d": 26.04165624998859,
      "v": 52
    },
    {
      "midi": 55,
      "hit": false,
      "t": 205056.34158854155,
      "d": 1223.9578437500168,
      "v": 46
    },
    {
      "midi": 67,
      "hit": false,
      "t": 205078.04296874988,
      "d": 1223.9578437500168,
      "v": 48
    },
    {
      "midi": 43,
      "hit": false,
      "t": 205208.25124999872,
      "d": 82.4652447916742,
      "v": 96
    },
    {
      "midi": 59,
      "hit": false,
      "t": 205212.5915260404,
      "d": 95.48607291665394,
      "v": 127
    },
    {
      "midi": 59,
      "hit": false,
      "t": 205416.58449999872,
      "d": 30.38193229166791,
      "v": 31
    },
    {
      "midi": 59,
      "hit": false,
      "t": 205624.9177499987,
      "d": 47.74303645832697,
      "v": 62
    },
    {
      "midi": 43,
      "hit": false,
      "t": 205837.59127604036,
      "d": 95.48607291665394,
      "v": 96
    },
    {
      "midi": 59,
      "hit": false,
      "t": 205837.59127604036,
      "d": 95.48607291665394,
      "v": 127
    },
    {
      "midi": 55,
      "hit": false,
      "t": 206045.92452604035,
      "d": 130.20828125000116,
      "v": 92
    },
    {
      "midi": 29,
      "hit": false,
      "t": 206050.2648020834,
      "d": 4.340276041679317,
      "v": 96
    },
    {
      "midi": 55,
      "hit": false,
      "t": 206254.25777604035,
      "d": 78.12496874999488,
      "v": 36
    },
    {
      "midi": 38,
      "hit": false,
      "t": 206254.25777604175,
      "d": 217.01380208332557,
      "v": 96
    },
    {
      "midi": 43,
      "hit": false,
      "t": 206458.25074999867,
      "d": 17.36110416665906,
      "v": 36
    },
    {
      "midi": 36,
      "hit": false,
      "t": 206679.60482812507,
      "d": 781.249687500007,
      "v": 96
    },
    {
      "midi": 48,
      "hit": false,
      "t": 206683.94510416532,
      "d": 65.10414062498603,
      "v": 96
    },
    {
      "midi": 55,
      "hit": false,
      "t": 206683.94510416532,
      "d": 65.10414062498603,
      "v": 127
    },
    {
      "midi": 52,
      "hit": false,
      "t": 206688.28538020913,
      "d": 668.402510416694,
      "v": 97
    },
    {
      "midi": 60,
      "hit": false,
      "t": 206688.28538020913,
      "d": 672.7427864583733,
      "v": 85
    },
    {
      "midi": 64,
      "hit": false,
      "t": 206688.28538020913,
      "d": 672.7427864583733,
      "v": 94
    },
    {
      "midi": 60,
      "hit": false,
      "t": 206692.62565625063,
      "d": 10117.183453125006,
      "v": 96
    },
    {
      "midi": 64,
      "hit": false,
      "t": 206692.62565625063,
      "d": 10117.183453125006,
      "v": 96
    },
    {
      "midi": 67,
      "hit": false,
      "t": 206692.6256562508,
      "d": 668.402510416694,
      "v": 96
    },
    {
      "midi": 67,
      "hit": false,
      "t": 206696.9659322923,
      "d": 10117.183453125006,
      "v": 96
    },
    {
      "midi": 55,
      "hit": false,
      "t": 206874.91724999863,
      "d": 47.74303645832697,
      "v": 60
    },
    {
      "midi": 55,
      "hit": false,
      "t": 207083.25049999863,
      "d": 47.74303645832697,
      "v": 66
    },
    {
      "midi": 48,
      "hit": false,
      "t": 207291.58374999862,
      "d": 65.10414062501513,
      "v": 96
    },
    {
      "midi": 55,
      "hit": false,
      "t": 207295.9240260403,
      "d": 78.12496874999488,
      "v": 127
    },
    {
      "midi": 55,
      "hit": false,
      "t": 207499.91699999862,
      "d": 30.38193229166791,
      "v": 63
    },
    {
      "midi": 55,
      "hit": false,
      "t": 207708.25024999861,
      "d": 47.74303645832697,
      "v": 53
    },
    {
      "midi": 48,
      "hit": false,
      "t": 207920.92377604026,
      "d": 60.76386458333582,
      "v": 96
    },
    {
      "midi": 55,
      "hit": false,
      "t": 207920.92377604026,
      "d": 78.12496874999488,
      "v": 127
    },
    {
      "midi": 36,
      "hit": false,
      "t": 207920.92377604175,
      "d": 60.76386458333582,
      "v": 96
    },
    {
      "midi": 55,
      "hit": false,
      "t": 208124.91674999858,
      "d": 13.020828125008848,
      "v": 30
    },
    {
      "midi": 64,
      "hit": false,
      "t": 208298.5277916675,
      "d": 690.1038906250033,
      "v": 96
    },
    {
      "midi": 36,
      "hit": false,
      "t": 208333.2500000001,
      "d": 1523.4368906249874,
      "v": 96
    },
    {
      "midi": 55,
      "hit": false,
      "t": 208337.59027604025,
      "d": 43.402760416676756,
      "v": 44
    },
    {
      "midi": 67,
      "hit": false,
      "t": 208337.59027604156,
      "d": 1440.9716458333423,
      "v": 46
    },
    {
      "midi": 72,
      "hit": false,
      "t": 208337.5902760425,
      "d": 685.763614583353,
      "v": 96
    },
    {
      "midi": 79,
      "hit": false,
      "t": 208359.2916562499,
      "d": 1440.9716458333423,
      "v": 48
    },
    {
      "midi": 79,
      "hit": false,
      "t": 208367.97220833416,
      "d": 690.1038906250324,
      "v": 96
    },
    {
      "midi": 48,
      "hit": false,
      "t": 208541.5832499986,
      "d": 65.10414062498603,
      "v": 96
    },
    {
      "midi": 55,
      "hit": false,
      "t": 208541.5832499986,
      "d": 82.46524479164509,
      "v": 127
    },
    {
      "midi": 55,
      "hit": false,
      "t": 208749.91649999857,
      "d": 47.74303645832697,
      "v": 53
    },
    {
      "midi": 55,
      "hit": false,
      "t": 208958.24974999856,
      "d": 47.74303645832697,
      "v": 44
    },
    {
      "midi": 48,
      "hit": false,
      "t": 209166.58299999856,
      "d": 82.4652447916742,
      "v": 96
    },
    {
      "midi": 55,
      "hit": false,
      "t": 209170.92327604024,
      "d": 95.48607291665394,
      "v": 127
    },
    {
      "midi": 55,
      "hit": false,
      "t": 209374.91624999855,
      "d": 65.10414062498603,
      "v": 43
    },
    {
      "midi": 52,
      "hit": false,
      "t": 209583.24949999855,
      "d": 47.74303645832697,
      "v": 81
    },
    {
      "midi": 52,
      "hit": false,
      "t": 209791.58274999855,
      "d": 13.020828125008848,
      "v": 35
    },
    {
      "midi": 36,
      "hit": false,
      "t": 210008.5965520834,
      "d": 785.5899635416572,
      "v": 96
    },
    {
      "midi": 48,
      "hit": false,
      "t": 210012.93682812355,
      "d": 86.80552083335351,
      "v": 96
    },
    {
      "midi": 55,
      "hit": false,
      "t": 210017.27710416523,
      "d": 99.82634895833326,
      "v": 127
    },
    {
      "midi": 52,
      "hit": false,
      "t": 210017.27710416753,
      "d": 672.7427864583733,
      "v": 97
    },
    {
      "midi": 60,
      "hit": false,
      "t": 210017.27710416753,
      "d": 672.7427864583733,
      "v": 94
    },
    {
      "midi": 67,
      "hit": false,
      "t": 210021.6173802092,
      "d": 668.402510416694,
      "v": 96
    },
    {
      "midi": 76,
      "hit": false,
      "t": 210021.6173802092,
      "d": 672.7427864583733,
      "v": 85
    },
    {
      "midi": 55,
      "hit": false,
      "t": 210208.24924999857,
      "d": 30.38193229166791,
      "v": 31
    },
    {
      "midi": 55,
      "hit": false,
      "t": 210416.58249999856,
      "d": 47.74303645832697,
      "v": 57
    },
    {
      "midi": 48,
      "hit": false,
      "t": 210624.91574999856,
      "d": 82.4652447916742,
      "v": 96
    },
    {
      "midi": 55,
      "hit": false,
      "t": 210624.91574999856,
      "d": 99.82634895833326,
      "v": 127
    },
    {
      "midi": 55,
      "hit": false,
      "t": 210833.24899999856,
      "d": 65.10414062498603,
      "v": 31
    },
    {
      "midi": 55,
      "hit": false,
      "t": 211041.58224999855,
      "d": 65.10414062498603,
      "v": 66
    },
    {
      "midi": 36,
      "hit": false,
      "t": 211249.91550000006,
      "d": 65.10414062498603,
      "v": 96
    },
    {
      "midi": 48,
      "hit": false,
      "t": 211254.2557760402,
      "d": 78.12496874999488,
      "v": 96
    },
    {
      "midi": 55,
      "hit": false,
      "t": 211254.2557760402,
      "d": 78.12496874999488,
      "v": 127
    },
    {
      "midi": 55,
      "hit": false,
      "t": 211458.2487499985,
      "d": 47.74303645832697,
      "v": 65
    },
    {
      "midi": 60,
      "hit": false,
      "t": 211657.90144791658,
      "d": 776.9094114583277,
      "v": 45
    },
    {
      "midi": 36,
      "hit": false,
      "t": 211666.58200000005,
      "d": 1523.4368906249874,
      "v": 96
    },
    {
      "midi": 55,
      "hit": false,
      "t": 211670.92227604016,
      "d": 26.04165624998859,
      "v": 52
    },
    {
      "midi": 72,
      "hit": false,
      "t": 211679.60282812492,
      "d": 776.9094114583277,
      "v": 47
    },
    {
      "midi": 48,
      "hit": false,
      "t": 211874.91524999848,
      "d": 82.4652447916742,
      "v": 96
    },
    {
      "midi": 55,
      "hit": false,
      "t": 211874.91524999848,
      "d": 99.82634895833326,
      "v": 127
    },
    {
      "midi": 55,
      "hit": false,
      "t": 212083.24849999847,
      "d": 30.38193229166791,
      "v": 31
    },
    {
      "midi": 55,
      "hit": false,
      "t": 212291.58174999847,
      "d": 47.74303645832697,
      "v": 62
    },
    {
      "midi": 64,
      "hit": false,
      "t": 212295.9220260426,
      "d": 685.7636145833239,
      "v": 85
    },
    {
      "midi": 67,
      "hit": false,
      "t": 212473.8733437499,
      "d": 733.50665104168,
      "v": 45
    },
    {
      "midi": 79,
      "hit": false,
      "t": 212495.57472395824,
      "d": 733.50665104168,
      "v": 47
    },
    {
      "midi": 48,
      "hit": false,
      "t": 212499.91499999847,
      "d": 99.82634895833326,
      "v": 96
    },
    {
      "midi": 55,
      "hit": false,
      "t": 212504.25527604014,
      "d": 95.48607291665394,
      "v": 127
    },
    {
      "midi": 55,
      "hit": false,
      "t": 212708.24824999846,
      "d": 30.38193229166791,
      "v": 69
    },
    {
      "midi": 67,
      "hit": false,
      "t": 212712.5885260426,
      "d": 477.4303645833279,
      "v": 85
    },
    {
      "midi": 52,
      "hit": false,
      "t": 212916.58149999846,
      "d": 65.10414062498603,
      "v": 93
    },
    {
      "midi": 52,
      "hit": false,
      "t": 213124.91474999845,
      "d": 13.020828125008848,
      "v": 34
    },
    {
      "midi": 55,
      "hit": false,
      "t": 213298.5257916666,
      "d": 1475.6938541666605,
      "v": 45
    },
    {
      "midi": 67,
      "hit": false,
      "t": 213320.22717187493,
      "d": 1475.6938541666605,
      "v": 47
    },
    {
      "midi": 36,
      "hit": false,
      "t": 213341.92855208338,
      "d": 785.5899635416572,
      "v": 96
    },
    {
      "midi": 48,
      "hit": false,
      "t": 213346.26882812346,
      "d": 69.44441666666535,
      "v": 96
    },
    {
      "midi": 55,
      "hit": false,
      "t": 213350.60910416514,
      "d": 65.10414062498603,
      "v": 127
    },
    {
      "midi": 52,
      "hit": false,
      "t": 213350.60910416758,
      "d": 672.7427864583733,
      "v": 97
    },
    {
      "midi": 60,
      "hit": false,
      "t": 213350.60910416758,
      "d": 672.7427864583733,
      "v": 85
    },
    {
      "midi": 67,
      "hit": false,
      "t": 213354.94938020926,
      "d": 668.402510416694,
      "v": 94
    },
    {
      "midi": 72,
      "hit": false,
      "t": 213354.94938020926,
      "d": 672.7427864583733,
      "v": 96
    },
    {
      "midi": 55,
      "hit": false,
      "t": 213537.2409739568,
      "d": 52.083312500006286,
      "v": 60
    },
    {
      "midi": 55,
      "hit": false,
      "t": 213749.91449999847,
      "d": 47.74303645832697,
      "v": 66
    },
    {
      "midi": 48,
      "hit": false,
      "t": 213958.24774999847,
      "d": 65.10414062498603,
      "v": 96
    },
    {
      "midi": 55,
      "hit": false,
      "t": 213958.24774999847,
      "d": 82.46524479164509,
      "v": 127
    },
    {
      "midi": 55,
      "hit": false,
      "t": 214166.58099999843,
      "d": 30.38193229166791,
      "v": 63
    },
    {
      "midi": 55,
      "hit": false,
      "t": 214374.91424999843,
      "d": 47.74303645832697,
      "v": 53
    },
    {
      "midi": 36,
      "hit": false,
      "t": 214583.24750000003,
      "d": 65.10414062498603,
      "v": 96
    },
    {
      "midi": 48,
      "hit": false,
      "t": 214587.58777604008,
      "d": 60.76386458333582,
      "v": 96
    },
    {
      "midi": 55,
      "hit": false,
      "t": 214587.58777604008,
      "d": 78.12496874999488,
      "v": 127
    },
    {
      "midi": 55,
      "hit": false,
      "t": 214787.24047395674,
      "d": 17.36110416665906,
      "v": 30
    },
    {
      "midi": 51,
      "hit": false,
      "t": 214787.24047395826,
      "d": 160.59021354166907,
      "v": 47
    },
    {
      "midi": 63,
      "hit": false,
      "t": 214808.9418541666,
      "d": 160.59021354166907,
      "v": 49
    },
    {
      "midi": 52,
      "hit": false,
      "t": 214947.83068749993,
      "d": 1384.5480572916567,
      "v": 47
    },
    {
      "midi": 64,
      "hit": false,
      "t": 214969.53206770826,
      "d": 1384.5480572916567,
      "v": 49
    },
    {
      "midi": 55,
      "hit": false,
      "t": 214999.9139999984,
      "d": 47.74303645832697,
      "v": 44
    },
    {
      "midi": 36,
      "hit": false,
      "t": 214999.91400000002,
      "d": 1523.4368906249874,
      "v": 96
    },
    {
      "midi": 48,
      "hit": false,
      "t": 215208.24724999839,
      "d": 65.10414062498603,
      "v": 96
    },
    {
      "midi": 55,
      "hit": false,
      "t": 215208.24724999839,
      "d": 82.46524479164509,
      "v": 127
    },
    {
      "midi": 55,
      "hit": false,
      "t": 215416.58049999835,
      "d": 47.74303645832697,
      "v": 53
    },
    {
      "midi": 55,
      "hit": false,
      "t": 215624.91374999835,
      "d": 47.74303645832697,
      "v": 44
    },
    {
      "midi": 48,
      "hit": false,
      "t": 215833.24699999834,
      "d": 82.4652447916742,
      "v": 96
    },
    {
      "midi": 55,
      "hit": false,
      "t": 215837.58727604002,
      "d": 95.48607291665394,
      "v": 127
    },
    {
      "midi": 55,
      "hit": false,
      "t": 216041.58024999834,
      "d": 65.10414062498603,
      "v": 43
    },
    {
      "midi": 52,
      "hit": false,
      "t": 216249.91349999834,
      "d": 117.18745312499232,
      "v": 87
    },
    {
      "midi": 60,
      "hit": false,
      "t": 216254.25377604263,
      "d": 269.09711458333186,
      "v": 85
    },
    {
      "midi": 52,
      "hit": false,
      "t": 216458.24674999833,
      "d": 13.020828125008848,
      "v": 38
    },
    {
      "midi": 55,
      "hit": false,
      "t": 216458.24675000098,
      "d": 65.10414062498603,
      "v": 85
    },
    {
      "midi": 59,
      "hit": false,
      "t": 216636.19806770826,
      "d": 2495.6587239583314,
      "v": 46
    },
    {
      "midi": 71,
      "hit": false,
      "t": 216657.8994479166,
      "d": 2495.6587239583314,
      "v": 48
    },
    {
      "midi": 36,
      "hit": false,
      "t": 216675.26055208335,
      "d": 130.20828125000116,
      "v": 96
    },
    {
      "midi": 48,
      "hit": false,
      "t": 216679.60082812334,
      "d": 86.80552083335351,
      "v": 96
    },
    {
      "midi": 55,
      "hit": false,
      "t": 216683.94110416502,
      "d": 99.82634895833326,
      "v": 127
    },
    {
      "midi": 52,
      "hit": false,
      "t": 216683.94110416764,
      "d": 121.52772916670074,
      "v": 97
    },
    {
      "midi": 60,
      "hit": false,
      "t": 216683.94110416764,
      "d": 125.86800520838005,
      "v": 94
    },
    {
      "midi": 64,
      "hit": false,
      "t": 216688.28138020932,
      "d": 121.52772916670074,
      "v": 85
    },
    {
      "midi": 67,
      "hit": false,
      "t": 216688.28138020932,
      "d": 121.52772916670074,
      "v": 96
    }
  ]
}