{
  "jsonPath": "Rock/Album Rock/Little River Band/the-night-owls-24-bit-remastered-99-1999-digital-remaster.json",
  "path": "Rock\\Album Rock\\Little River Band\\The Night Owls (24-Bit Remastered 99) (1999 Digital Remaster).mid",
  "name": "The Night Owls (24-Bit Remastered 99) (1999 Digital Remaster)",
  "difficulty": "Advanced",
  "bpm": 127.00025400050801,
  "notes": [
    {
      "midi": 28,
      "hit": false,
      "t": 3776.5672499999996,
      "d": 3518.693750000001,
      "v": 70
    },
    {
      "midi": 40,
      "hit": false,
      "t": 3776.5672499999996,
      "d": 3526.5677500000006,
      "v": 91
    },
    {
      "midi": 67,
      "hit": false,
      "t": 5191.91875,
      "d": 226.3774999999996,
      "v": 95
    },
    {
      "midi": 64,
      "hit": false,
      "t": 5191.91875,
      "d": 236.22000000000025,
      "v": 91
    },
    {
      "midi": 59,
      "hit": false,
      "t": 5193.88725,
      "d": 229.33024999999998,
      "v": 82
    },
    {
      "midi": 59,
      "hit": false,
      "t": 5501.9575,
      "d": 1936.0197500000004,
      "v": 92
    },
    {
      "midi": 67,
      "hit": false,
      "t": 5501.9575,
      "d": 1948.8150000000005,
      "v": 109
    },
    {
      "midi": 64,
      "hit": false,
      "t": 5503.926,
      "d": 1924.2087500000007,
      "v": 93
    },
    {
      "midi": 28,
      "hit": false,
      "t": 7391.717500000001,
      "d": 3363.1822500000017,
      "v": 70
    },
    {
      "midi": 40,
      "hit": false,
      "t": 7391.717500000001,
      "d": 3385.8200000000015,
      "v": 91
    },
    {
      "midi": 59,
      "hit": false,
      "t": 10226.357500000002,
      "d": 615.15625,
      "v": 92
    },
    {
      "midi": 67,
      "hit": false,
      "t": 10226.357500000002,
      "d": 661.4160000000011,
      "v": 109
    },
    {
      "midi": 64,
      "hit": false,
      "t": 10228.326000000003,
      "d": 623.0302499999998,
      "v": 93
    },
    {
      "midi": 28,
      "hit": false,
      "t": 10863.167250000002,
      "d": 216.53499999999985,
      "v": 68
    },
    {
      "midi": 40,
      "hit": false,
      "t": 10863.167250000002,
      "d": 239.17274999999972,
      "v": 73
    },
    {
      "midi": 28,
      "hit": false,
      "t": 11178.127250000001,
      "d": 3666.331250000001,
      "v": 70
    },
    {
      "midi": 40,
      "hit": false,
      "t": 11178.127250000001,
      "d": 3666.331250000001,
      "v": 91
    },
    {
      "midi": 67,
      "hit": false,
      "t": 12750.958750000002,
      "d": 226.3775000000005,
      "v": 95
    },
    {
      "midi": 64,
      "hit": false,
      "t": 12750.958750000002,
      "d": 236.21999999999935,
      "v": 91
    },
    {
      "midi": 59,
      "hit": false,
      "t": 12752.927250000002,
      "d": 229.33024999999907,
      "v": 82
    },
    {
      "midi": 59,
      "hit": false,
      "t": 13060.997500000001,
      "d": 1936.0197500000031,
      "v": 92
    },
    {
      "midi": 67,
      "hit": false,
      "t": 13060.997500000001,
      "d": 1948.8150000000023,
      "v": 109
    },
    {
      "midi": 64,
      "hit": false,
      "t": 13062.966000000002,
      "d": 1924.2087500000016,
      "v": 93
    },
    {
      "midi": 28,
      "hit": false,
      "t": 14950.757500000003,
      "d": 3658.4572499999995,
      "v": 70
    },
    {
      "midi": 40,
      "hit": false,
      "t": 14950.757500000003,
      "d": 3681.095000000001,
      "v": 91
    },
    {
      "midi": 59,
      "hit": false,
      "t": 17785.397500000003,
      "d": 959.6437499999993,
      "v": 92
    },
    {
      "midi": 67,
      "hit": false,
      "t": 17785.397500000003,
      "d": 959.6437499999993,
      "v": 109
    },
    {
      "midi": 64,
      "hit": false,
      "t": 17787.366,
      "d": 944.880000000001,
      "v": 93
    },
    {
      "midi": 43,
      "hit": false,
      "t": 18730.277500000004,
      "d": 169.29099999999744,
      "v": 66
    },
    {
      "midi": 55,
      "hit": false,
      "t": 18887.757500000003,
      "d": 3026.5687499999985,
      "v": 92
    },
    {
      "midi": 64,
      "hit": false,
      "t": 18887.757500000003,
      "d": 3026.5687499999985,
      "v": 109
    },
    {
      "midi": 36,
      "hit": false,
      "t": 18887.757500000003,
      "d": 3658.457249999996,
      "v": 70
    },
    {
      "midi": 48,
      "hit": false,
      "t": 18887.757500000003,
      "d": 3681.0949999999975,
      "v": 91
    },
    {
      "midi": 60,
      "hit": false,
      "t": 18889.726000000002,
      "d": 3026.5687499999985,
      "v": 93
    },
    {
      "midi": 57,
      "hit": false,
      "t": 22037.357500000002,
      "d": 590.5499999999993,
      "v": 92
    },
    {
      "midi": 66,
      "hit": false,
      "t": 22037.357500000002,
      "d": 590.5499999999993,
      "v": 109
    },
    {
      "midi": 62,
      "hit": false,
      "t": 22039.326,
      "d": 590.5499999999993,
      "v": 93
    },
    {
      "midi": 59,
      "hit": false,
      "t": 22667.2775,
      "d": 3026.5687499999985,
      "v": 92
    },
    {
      "midi": 67,
      "hit": false,
      "t": 22667.2775,
      "d": 3026.5687499999985,
      "v": 109
    },
    {
      "midi": 28,
      "hit": false,
      "t": 22667.2775,
      "d": 3658.457249999996,
      "v": 70
    },
    {
      "midi": 40,
      "hit": false,
      "t": 22667.2775,
      "d": 3681.0949999999975,
      "v": 91
    },
    {
      "midi": 64,
      "hit": false,
      "t": 22669.246,
      "d": 3026.5687499999985,
      "v": 93
    },
    {
      "midi": 54,
      "hit": false,
      "t": 25816.8775,
      "d": 590.5499999999993,
      "v": 92
    },
    {
      "midi": 62,
      "hit": false,
      "t": 25816.8775,
      "d": 590.5499999999993,
      "v": 109
    },
    {
      "midi": 57,
      "hit": false,
      "t": 25818.845999999998,
      "d": 590.5499999999993,
      "v": 93
    },
    {
      "midi": 36,
      "hit": false,
      "t": 26446.797499999997,
      "d": 3658.4572499999995,
      "v": 70
    },
    {
      "midi": 48,
      "hit": false,
      "t": 26446.797499999997,
      "d": 3681.095000000001,
      "v": 91
    },
    {
      "midi": 52,
      "hit": false,
      "t": 26446.797499999997,
      "d": 3690.9375,
      "v": 92
    },
    {
      "midi": 60,
      "hit": false,
      "t": 26446.797499999997,
      "d": 3690.9375,
      "v": 109
    },
    {
      "midi": 55,
      "hit": false,
      "t": 26448.765999999996,
      "d": 3690.9375,
      "v": 93
    },
    {
      "midi": 40,
      "hit": false,
      "t": 30226.317499999997,
      "d": 1648.6187499999978,
      "v": 91
    },
    {
      "midi": 55,
      "hit": false,
      "t": 30226.317499999997,
      "d": 1820.8624999999993,
      "v": 92
    },
    {
      "midi": 64,
      "hit": false,
      "t": 30226.317499999997,
      "d": 1820.8624999999993,
      "v": 109
    },
    {
      "midi": 28,
      "hit": false,
      "t": 30226.317499999997,
      "d": 3658.4572499999995,
      "v": 70
    },
    {
      "midi": 59,
      "hit": false,
      "t": 30228.285999999996,
      "d": 1820.8624999999993,
      "v": 93
    },
    {
      "midi": 40,
      "hit": false,
      "t": 31963.518749999996,
      "d": 823.8172500000001,
      "v": 82
    },
    {
      "midi": 59,
      "hit": false,
      "t": 32122.967249999994,
      "d": 211.61375000000044,
      "v": 91
    },
    {
      "midi": 64,
      "hit": false,
      "t": 32122.967249999994,
      "d": 226.3774999999987,
      "v": 100
    },
    {
      "midi": 71,
      "hit": false,
      "t": 32122.967249999994,
      "d": 226.3774999999987,
      "v": 108
    },
    {
      "midi": 67,
      "hit": false,
      "t": 32122.967249999994,
      "d": 229.33024999999907,
      "v": 88
    },
    {
      "midi": 71,
      "hit": false,
      "t": 32435.958749999994,
      "d": 511.8100000000013,
      "v": 91
    },
    {
      "midi": 59,
      "hit": false,
      "t": 32435.958749999994,
      "d": 531.494999999999,
      "v": 91
    },
    {
      "midi": 67,
      "hit": false,
      "t": 32435.958749999994,
      "d": 538.3847500000011,
      "v": 91
    },
    {
      "midi": 64,
      "hit": false,
      "t": 32435.958749999994,
      "d": 551.1800000000039,
      "v": 109
    },
    {
      "midi": 40,
      "hit": false,
      "t": 32910.367249999996,
      "d": 1031.4939999999988,
      "v": 79
    },
    {
      "midi": 69,
      "hit": false,
      "t": 33065.878749999996,
      "d": 211.61375000000407,
      "v": 100
    },
    {
      "midi": 57,
      "hit": false,
      "t": 33067.84725,
      "d": 209.6452500000014,
      "v": 100
    },
    {
      "midi": 66,
      "hit": false,
      "t": 33067.84725,
      "d": 236.22000000000116,
      "v": 91
    },
    {
      "midi": 62,
      "hit": false,
      "t": 33067.84725,
      "d": 239.1727499999979,
      "v": 100
    },
    {
      "midi": 62,
      "hit": false,
      "t": 33382.80725,
      "d": 593.5027499999997,
      "v": 109
    },
    {
      "midi": 57,
      "hit": false,
      "t": 33382.80725,
      "d": 600.3925000000017,
      "v": 91
    },
    {
      "midi": 69,
      "hit": false,
      "t": 33382.80725,
      "d": 600.3925000000017,
      "v": 91
    },
    {
      "midi": 66,
      "hit": false,
      "t": 33382.80725,
      "d": 620.0774999999994,
      "v": 100
    },
    {
      "midi": 55,
      "hit": false,
      "t": 34005.837499999994,
      "d": 3026.568750000006,
      "v": 92
    },
    {
      "midi": 64,
      "hit": false,
      "t": 34005.837499999994,
      "d": 3026.568750000006,
      "v": 109
    },
    {
      "midi": 36,
      "hit": false,
      "t": 34005.837499999994,
      "d": 3658.4572500000068,
      "v": 70
    },
    {
      "midi": 48,
      "hit": false,
      "t": 34005.837499999994,
      "d": 3681.0950000000084,
      "v": 91
    },
    {
      "midi": 60,
      "hit": false,
      "t": 34007.806,
      "d": 3026.568750000006,
      "v": 93
    },
    {
      "midi": 57,
      "hit": false,
      "t": 37155.4375,
      "d": 590.5500000000029,
      "v": 92
    },
    {
      "midi": 66,
      "hit": false,
      "t": 37155.4375,
      "d": 590.5500000000029,
      "v": 109
    },
    {
      "midi": 62,
      "hit": false,
      "t": 37157.406,
      "d": 590.5500000000029,
      "v": 93
    },
    {
      "midi": 55,
      "hit": false,
      "t": 37785.357500000006,
      "d": 3026.568750000006,
      "v": 92
    },
    {
      "midi": 64,
      "hit": false,
      "t": 37785.357500000006,
      "d": 3026.568750000006,
      "v": 109
    },
    {
      "midi": 40,
      "hit": false,
      "t": 37785.357500000006,
      "d": 3287.3950000000114,
      "v": 91
    },
    {
      "midi": 28,
      "hit": false,
      "t": 37785.357500000006,
      "d": 3289.363500000014,
      "v": 70
    },
    {
      "midi": 59,
      "hit": false,
      "t": 37787.32600000001,
      "d": 3026.568750000006,
      "v": 93
    },
    {
      "midi": 52,
      "hit": false,
      "t": 41104.248500000016,
      "d": 121.06274999999732,
      "v": 91
    },
    {
      "midi": 40,
      "hit": false,
      "t": 41261.72850000001,
      "d": 132.87374999999884,
      "v": 73
    },
    {
      "midi": 47,
      "hit": false,
      "t": 41409.36600000001,
      "d": 145.6690000000017,
      "v": 73
    },
    {
      "midi": 52,
      "hit": false,
      "t": 41564.87750000001,
      "d": 1786.4137499999997,
      "v": 92
    },
    {
      "midi": 60,
      "hit": false,
      "t": 41564.87750000001,
      "d": 1786.4137499999997,
      "v": 109
    },
    {
      "midi": 36,
      "hit": false,
      "t": 41564.87750000001,
      "d": 1820.862500000003,
      "v": 70
    },
    {
      "midi": 48,
      "hit": false,
      "t": 41564.87750000001,
      "d": 1820.862500000003,
      "v": 91
    },
    {
      "midi": 55,
      "hit": false,
      "t": 41566.84600000001,
      "d": 1786.4137499999997,
      "v": 93
    },
    {
      "midi": 54,
      "hit": false,
      "t": 43454.63750000001,
      "d": 1786.4137499999997,
      "v": 92
    },
    {
      "midi": 63,
      "hit": false,
      "t": 43454.63750000001,
      "d": 1786.4137499999997,
      "v": 109
    },
    {
      "midi": 35,
      "hit": false,
      "t": 43454.63750000001,
      "d": 1820.862500000003,
      "v": 70
    },
    {
      "midi": 47,
      "hit": false,
      "t": 43454.63750000001,
      "d": 1820.862500000003,
      "v": 91
    },
    {
      "midi": 59,
      "hit": false,
      "t": 43456.606000000014,
      "d": 1786.4137499999997,
      "v": 93
    },
    {
      "midi": 40,
      "hit": false,
      "t": 45344.397500000014,
      "d": 1648.6187500000015,
      "v": 91
    },
    {
      "midi": 28,
      "hit": false,
      "t": 45344.397500000014,
      "d": 1919.2874999999985,
      "v": 70
    },
    {
      "midi": 52,
      "hit": false,
      "t": 45344.397500000014,
      "d": 3666.33125000001,
      "v": 92
    },
    {
      "midi": 59,
      "hit": false,
      "t": 45344.397500000014,
      "d": 3666.33125000001,
      "v": 109
    },
    {
      "midi": 55,
      "hit": false,
      "t": 45346.366000000016,
      "d": 3666.33125000001,
      "v": 93
    },
    {
      "midi": 40,
      "hit": false,
      "t": 47239.078750000015,
      "d": 297.24349999999686,
      "v": 73
    },
    {
      "midi": 28,
      "hit": false,
      "t": 47551.08600000001,
      "d": 165.35400000000664,
      "v": 64
    },
    {
      "midi": 40,
      "hit": false,
      "t": 47708.56600000001,
      "d": 317.91275000000314,
      "v": 78
    },
    {
      "midi": 28,
      "hit": false,
      "t": 48023.52600000002,
      "d": 209.64524999999412,
      "v": 64
    },
    {
      "midi": 40,
      "hit": false,
      "t": 48181.006000000016,
      "d": 314.9599999999991,
      "v": 84
    },
    {
      "midi": 28,
      "hit": false,
      "t": 48495.966000000015,
      "d": 204.72400000000198,
      "v": 64
    },
    {
      "midi": 40,
      "hit": false,
      "t": 48656.398750000015,
      "d": 302.16475000000355,
      "v": 81
    },
    {
      "midi": 28,
      "hit": false,
      "t": 48966.43750000002,
      "d": 162.40125000000262,
      "v": 64
    },
    {
      "midi": 36,
      "hit": false,
      "t": 49125.88600000003,
      "d": 180.1177499999976,
      "v": 82
    },
    {
      "midi": 48,
      "hit": false,
      "t": 49443.79875000002,
      "d": 80.70850000000064,
      "v": 75
    },
    {
      "midi": 55,
      "hit": false,
      "t": 49445.767250000026,
      "d": 49.212500000001455,
      "v": 73
    },
    {
      "midi": 64,
      "hit": false,
      "t": 49445.767250000026,
      "d": 52.165249999998196,
      "v": 82
    },
    {
      "midi": 60,
      "hit": false,
      "t": 49445.767250000026,
      "d": 57.08649999999761,
      "v": 82
    },
    {
      "midi": 36,
      "hit": false,
      "t": 49593.40475000002,
      "d": 214.56650000000081,
      "v": 82
    },
    {
      "midi": 57,
      "hit": false,
      "t": 49596.35750000002,
      "d": 218.50350000000617,
      "v": 91
    },
    {
      "midi": 66,
      "hit": false,
      "t": 49596.35750000002,
      "d": 223.4247500000056,
      "v": 91
    },
    {
      "midi": 62,
      "hit": false,
      "t": 49598.32600000002,
      "d": 236.22000000000116,
      "v": 91
    },
    {
      "midi": 64,
      "hit": false,
      "t": 49913.28600000002,
      "d": 137.79499999999825,
      "v": 100
    },
    {
      "midi": 60,
      "hit": false,
      "t": 49916.23875000002,
      "d": 113.18875000000116,
      "v": 91
    },
    {
      "midi": 67,
      "hit": false,
      "t": 49916.23875000002,
      "d": 113.18875000000116,
      "v": 91
    },
    {
      "midi": 48,
      "hit": false,
      "t": 49918.20725000002,
      "d": 86.6140000000014,
      "v": 73
    },
    {
      "midi": 36,
      "hit": false,
      "t": 50065.84475000002,
      "d": 140.74775000000227,
      "v": 91
    },
    {
      "midi": 64,
      "hit": false,
      "t": 50388.67875000002,
      "d": 51.18100000000413,
      "v": 91
    },
    {
      "midi": 67,
      "hit": false,
      "t": 50388.67875000002,
      "d": 63.976250000006985,
      "v": 91
    },
    {
      "midi": 48,
      "hit": false,
      "t": 50388.67875000002,
      "d": 100.39350000000559,
      "v": 73
    },
    {
      "midi": 60,
      "hit": false,
      "t": 50390.64725000002,
      "d": 47.24399999999878,
      "v": 91
    },
    {
      "midi": 57,
      "hit": false,
      "t": 50536.316250000025,
      "d": 218.5034999999989,
      "v": 91
    },
    {
      "midi": 66,
      "hit": false,
      "t": 50536.316250000025,
      "d": 223.4247499999983,
      "v": 91
    },
    {
      "midi": 62,
      "hit": false,
      "t": 50536.316250000025,
      "d": 236.22000000000116,
      "v": 82
    },
    {
      "midi": 36,
      "hit": false,
      "t": 50538.28475000003,
      "d": 189.96024999999645,
      "v": 82
    },
    {
      "midi": 64,
      "hit": false,
      "t": 50851.276250000024,
      "d": 100.39349999999831,
      "v": 100
    },
    {
      "midi": 55,
      "hit": false,
      "t": 50851.276250000024,
      "d": 118.11000000000058,
      "v": 91
    },
    {
      "midi": 60,
      "hit": false,
      "t": 50851.276250000024,
      "d": 118.11000000000058,
      "v": 100
    },
    {
      "midi": 48,
      "hit": false,
      "t": 50861.11875000002,
      "d": 90.55099999999948,
      "v": 73
    },
    {
      "midi": 36,
      "hit": false,
      "t": 51015.64600000002,
      "d": 167.32250000000204,
      "v": 82
    },
    {
      "midi": 60,
      "hit": false,
      "t": 51333.558750000026,
      "d": 51.18100000000413,
      "v": 91
    },
    {
      "midi": 64,
      "hit": false,
      "t": 51333.558750000026,
      "d": 63.976250000006985,
      "v": 91
    },
    {
      "midi": 48,
      "hit": false,
      "t": 51333.558750000026,
      "d": 98.42500000001019,
      "v": 73
    },
    {
      "midi": 55,
      "hit": false,
      "t": 51335.52725000003,
      "d": 47.24399999999878,
      "v": 91
    },
    {
      "midi": 36,
      "hit": false,
      "t": 51481.19625000004,
      "d": 193.8972500000018,
      "v": 82
    },
    {
      "midi": 57,
      "hit": false,
      "t": 51486.11750000004,
      "d": 216.5350000000035,
      "v": 91
    },
    {
      "midi": 66,
      "hit": false,
      "t": 51486.11750000004,
      "d": 228.346000000005,
      "v": 82
    },
    {
      "midi": 62,
      "hit": false,
      "t": 51486.11750000004,
      "d": 243.10975000000326,
      "v": 73
    },
    {
      "midi": 60,
      "hit": false,
      "t": 51798.12475000004,
      "d": 125.98399999998946,
      "v": 91
    },
    {
      "midi": 64,
      "hit": false,
      "t": 51798.12475000004,
      "d": 130.90524999998888,
      "v": 100
    },
    {
      "midi": 67,
      "hit": false,
      "t": 51801.077500000036,
      "d": 108.26749999999447,
      "v": 100
    },
    {
      "midi": 48,
      "hit": false,
      "t": 51805.998750000035,
      "d": 100.39349999999831,
      "v": 82
    },
    {
      "midi": 36,
      "hit": false,
      "t": 51958.557500000024,
      "d": 177.16500000000087,
      "v": 82
    },
    {
      "midi": 48,
      "hit": false,
      "t": 52273.51750000002,
      "d": 98.42500000000291,
      "v": 82
    },
    {
      "midi": 64,
      "hit": false,
      "t": 52278.43875000002,
      "d": 51.18100000000413,
      "v": 91
    },
    {
      "midi": 67,
      "hit": false,
      "t": 52278.43875000002,
      "d": 63.976250000006985,
      "v": 91
    },
    {
      "midi": 60,
      "hit": false,
      "t": 52280.407250000026,
      "d": 47.24399999999878,
      "v": 91
    },
    {
      "midi": 57,
      "hit": false,
      "t": 52426.07625000003,
      "d": 218.5034999999989,
      "v": 91
    },
    {
      "midi": 66,
      "hit": false,
      "t": 52426.07625000003,
      "d": 223.4247499999983,
      "v": 91
    },
    {
      "midi": 62,
      "hit": false,
      "t": 52426.07625000003,
      "d": 236.22000000000116,
      "v": 82
    },
    {
      "midi": 36,
      "hit": false,
      "t": 52428.04475000003,
      "d": 187.0074999999997,
      "v": 82
    },
    {
      "midi": 64,
      "hit": false,
      "t": 52741.03625000003,
      "d": 100.39349999999831,
      "v": 100
    },
    {
      "midi": 55,
      "hit": false,
      "t": 52741.03625000003,
      "d": 118.1099999999933,
      "v": 91
    },
    {
      "midi": 60,
      "hit": false,
      "t": 52741.03625000003,
      "d": 118.1099999999933,
      "v": 100
    },
    {
      "midi": 48,
      "hit": false,
      "t": 52745.957500000026,
      "d": 98.42499999999563,
      "v": 82
    },
    {
      "midi": 28,
      "hit": false,
      "t": 52905.40600000002,
      "d": 180.1177499999976,
      "v": 82
    },
    {
      "midi": 40,
      "hit": false,
      "t": 53223.31875000001,
      "d": 80.70850000000064,
      "v": 75
    },
    {
      "midi": 55,
      "hit": false,
      "t": 53225.287250000016,
      "d": 49.212500000001455,
      "v": 73
    },
    {
      "midi": 64,
      "hit": false,
      "t": 53225.287250000016,
      "d": 52.165249999998196,
      "v": 82
    },
    {
      "midi": 59,
      "hit": false,
      "t": 53225.287250000016,
      "d": 57.08649999999761,
      "v": 82
    },
    {
      "midi": 28,
      "hit": false,
      "t": 53372.92475000001,
      "d": 214.56650000000081,
      "v": 82
    },
    {
      "midi": 57,
      "hit": false,
      "t": 53375.87750000001,
      "d": 218.50350000000617,
      "v": 91
    },
    {
      "midi": 66,
      "hit": false,
      "t": 53375.87750000001,
      "d": 223.4247500000056,
      "v": 91
    },
    {
      "midi": 62,
      "hit": false,
      "t": 53377.84600000001,
      "d": 236.22000000000116,
      "v": 91
    },
    {
      "midi": 64,
      "hit": false,
      "t": 53695.758750000015,
      "d": 137.79500000000553,
      "v": 100
    },
    {
      "midi": 40,
      "hit": false,
      "t": 53697.72725000002,
      "d": 86.6140000000014,
      "v": 73
    },
    {
      "midi": 59,
      "hit": false,
      "t": 53697.72725000002,
      "d": 113.18875000000116,
      "v": 91
    },
    {
      "midi": 67,
      "hit": false,
      "t": 53697.72725000002,
      "d": 113.18875000000116,
      "v": 91
    },
    {
      "midi": 28,
      "hit": false,
      "t": 53845.36475000002,
      "d": 140.74775000000227,
      "v": 91
    },
    {
      "midi": 64,
      "hit": false,
      "t": 54168.198750000025,
      "d": 51.18100000000413,
      "v": 91
    },
    {
      "midi": 67,
      "hit": false,
      "t": 54168.198750000025,
      "d": 63.976250000006985,
      "v": 91
    },
    {
      "midi": 40,
      "hit": false,
      "t": 54168.198750000025,
      "d": 100.39350000000559,
      "v": 73
    },
    {
      "midi": 59,
      "hit": false,
      "t": 54170.16725000003,
      "d": 47.24399999999878,
      "v": 91
    },
    {
      "midi": 57,
      "hit": false,
      "t": 54315.83625000003,
      "d": 218.5034999999989,
      "v": 91
    },
    {
      "midi": 66,
      "hit": false,
      "t": 54315.83625000003,
      "d": 223.4247499999983,
      "v": 91
    },
    {
      "midi": 62,
      "hit": false,
      "t": 54315.83625000003,
      "d": 236.22000000000116,
      "v": 82
    },
    {
      "midi": 28,
      "hit": false,
      "t": 54317.80475000003,
      "d": 189.96024999999645,
      "v": 82
    },
    {
      "midi": 64,
      "hit": false,
      "t": 54630.79625000003,
      "d": 100.39349999999831,
      "v": 100
    },
    {
      "midi": 55,
      "hit": false,
      "t": 54630.79625000003,
      "d": 118.11000000000058,
      "v": 91
    },
    {
      "midi": 59,
      "hit": false,
      "t": 54630.79625000003,
      "d": 118.11000000000058,
      "v": 100
    },
    {
      "midi": 40,
      "hit": false,
      "t": 54640.63875000003,
      "d": 90.55099999999948,
      "v": 73
    },
    {
      "midi": 28,
      "hit": false,
      "t": 54795.16600000003,
      "d": 167.32250000000204,
      "v": 82
    },
    {
      "midi": 59,
      "hit": false,
      "t": 55113.07875000003,
      "d": 51.18100000000413,
      "v": 91
    },
    {
      "midi": 64,
      "hit": false,
      "t": 55113.07875000003,
      "d": 63.976250000006985,
      "v": 91
    },
    {
      "midi": 40,
      "hit": false,
      "t": 55113.07875000003,
      "d": 98.42500000001019,
      "v": 73
    },
    {
      "midi": 55,
      "hit": false,
      "t": 55115.04725000003,
      "d": 47.24399999999878,
      "v": 91
    },
    {
      "midi": 28,
      "hit": false,
      "t": 55260.71625000004,
      "d": 193.8972500000018,
      "v": 82
    },
    {
      "midi": 54,
      "hit": false,
      "t": 55265.63750000004,
      "d": 216.5350000000035,
      "v": 91
    },
    {
      "midi": 62,
      "hit": false,
      "t": 55265.63750000004,
      "d": 228.346000000005,
      "v": 82
    },
    {
      "midi": 57,
      "hit": false,
      "t": 55265.63750000004,
      "d": 243.10975000000326,
      "v": 73
    },
    {
      "midi": 52,
      "hit": false,
      "t": 55577.64475000004,
      "d": 125.98399999998946,
      "v": 91
    },
    {
      "midi": 55,
      "hit": false,
      "t": 55577.64475000004,
      "d": 130.90524999998888,
      "v": 100
    },
    {
      "midi": 59,
      "hit": false,
      "t": 55580.59750000004,
      "d": 108.26749999999447,
      "v": 92
    },
    {
      "midi": 40,
      "hit": false,
      "t": 55585.51875000004,
      "d": 100.39349999999831,
      "v": 82
    },
    {
      "midi": 28,
      "hit": false,
      "t": 55738.07750000003,
      "d": 177.16500000000087,
      "v": 82
    },
    {
      "midi": 40,
      "hit": false,
      "t": 56053.03750000003,
      "d": 98.42500000000291,
      "v": 82
    },
    {
      "midi": 55,
      "hit": false,
      "t": 56057.95875000003,
      "d": 51.18100000000413,
      "v": 91
    },
    {
      "midi": 59,
      "hit": false,
      "t": 56057.95875000003,
      "d": 63.976250000006985,
      "v": 91
    },
    {
      "midi": 52,
      "hit": false,
      "t": 56059.92725000003,
      "d": 47.24399999999878,
      "v": 91
    },
    {
      "midi": 50,
      "hit": false,
      "t": 56205.59625000003,
      "d": 218.5034999999989,
      "v": 91
    },
    {
      "midi": 57,
      "hit": false,
      "t": 56205.59625000003,
      "d": 223.4247499999983,
      "v": 91
    },
    {
      "midi": 54,
      "hit": false,
      "t": 56205.59625000003,
      "d": 236.22000000000116,
      "v": 82
    },
    {
      "midi": 28,
      "hit": false,
      "t": 56207.564750000034,
      "d": 187.0074999999997,
      "v": 82
    },
    {
      "midi": 55,
      "hit": false,
      "t": 56520.55625000003,
      "d": 100.39349999999831,
      "v": 100
    },
    {
      "midi": 47,
      "hit": false,
      "t": 56520.55625000003,
      "d": 118.1099999999933,
      "v": 88
    },
    {
      "midi": 52,
      "hit": false,
      "t": 56520.55625000003,
      "d": 118.1099999999933,
      "v": 91
    },
    {
      "midi": 40,
      "hit": false,
      "t": 56525.47750000003,
      "d": 98.42499999999563,
      "v": 82
    },
    {
      "midi": 36,
      "hit": false,
      "t": 56684.92600000002,
      "d": 180.1177499999976,
      "v": 82
    },
    {
      "midi": 48,
      "hit": false,
      "t": 57002.83875000002,
      "d": 80.70850000000064,
      "v": 75
    },
    {
      "midi": 55,
      "hit": false,
      "t": 57004.80725000002,
      "d": 49.212500000001455,
      "v": 73
    },
    {
      "midi": 64,
      "hit": false,
      "t": 57004.80725000002,
      "d": 52.165249999998196,
      "v": 82
    },
    {
      "midi": 60,
      "hit": false,
      "t": 57004.80725000002,
      "d": 57.08649999999761,
      "v": 82
    },
    {
      "midi": 36,
      "hit": false,
      "t": 57152.44475000002,
      "d": 214.56650000000081,
      "v": 82
    },
    {
      "midi": 57,
      "hit": false,
      "t": 57155.397500000014,
      "d": 218.50350000000617,
      "v": 91
    },
    {
      "midi": 66,
      "hit": false,
      "t": 57155.397500000014,
      "d": 223.4247500000056,
      "v": 91
    },
    {
      "midi": 62,
      "hit": false,
      "t": 57157.366000000016,
      "d": 236.22000000000116,
      "v": 91
    },
    {
      "midi": 64,
      "hit": false,
      "t": 57475.27875000002,
      "d": 137.79500000000553,
      "v": 100
    },
    {
      "midi": 48,
      "hit": false,
      "t": 57477.24725000002,
      "d": 86.6140000000014,
      "v": 73
    },
    {
      "midi": 60,
      "hit": false,
      "t": 57477.24725000002,
      "d": 113.18875000000116,
      "v": 91
    },
    {
      "midi": 67,
      "hit": false,
      "t": 57477.24725000002,
      "d": 113.18875000000116,
      "v": 91
    },
    {
      "midi": 36,
      "hit": false,
      "t": 57624.88475000003,
      "d": 140.74775000000227,
      "v": 91
    },
    {
      "midi": 64,
      "hit": false,
      "t": 57947.71875000003,
      "d": 51.18100000000413,
      "v": 91
    },
    {
      "midi": 67,
      "hit": false,
      "t": 57947.71875000003,
      "d": 63.976250000006985,
      "v": 91
    },
    {
      "midi": 48,
      "hit": false,
      "t": 57947.71875000003,
      "d": 100.39350000000559,
      "v": 73
    },
    {
      "midi": 60,
      "hit": false,
      "t": 57949.68725000003,
      "d": 47.24399999999878,
      "v": 91
    },
    {
      "midi": 57,
      "hit": false,
      "t": 58095.35625000003,
      "d": 218.5034999999989,
      "v": 91
    },
    {
      "midi": 66,
      "hit": false,
      "t": 58095.35625000003,
      "d": 223.4247499999983,
      "v": 91
    },
    {
      "midi": 62,
      "hit": false,
      "t": 58095.35625000003,
      "d": 236.22000000000116,
      "v": 82
    },
    {
      "midi": 36,
      "hit": false,
      "t": 58097.324750000036,
      "d": 189.96024999999645,
      "v": 82
    },
    {
      "midi": 64,
      "hit": false,
      "t": 58410.31625000003,
      "d": 100.39349999999831,
      "v": 100
    },
    {
      "midi": 55,
      "hit": false,
      "t": 58410.31625000003,
      "d": 118.11000000000058,
      "v": 91
    },
    {
      "midi": 60,
      "hit": false,
      "t": 58410.31625000003,
      "d": 118.11000000000058,
      "v": 100
    },
    {
      "midi": 48,
      "hit": false,
      "t": 58420.15875000003,
      "d": 90.55099999999948,
      "v": 73
    },
    {
      "midi": 36,
      "hit": false,
      "t": 58574.68600000003,
      "d": 167.32250000000204,
      "v": 82
    },
    {
      "midi": 60,
      "hit": false,
      "t": 58892.598750000034,
      "d": 51.18100000000413,
      "v": 91
    },
    {
      "midi": 64,
      "hit": false,
      "t": 58892.598750000034,
      "d": 63.976250000006985,
      "v": 91
    },
    {
      "midi": 48,
      "hit": false,
      "t": 58892.598750000034,
      "d": 98.42500000001019,
      "v": 73
    },
    {
      "midi": 55,
      "hit": false,
      "t": 58894.56725000004,
      "d": 47.24399999999878,
      "v": 91
    },
    {
      "midi": 36,
      "hit": false,
      "t": 59040.236250000045,
      "d": 193.8972500000018,
      "v": 82
    },
    {
      "midi": 57,
      "hit": false,
      "t": 59045.157500000045,
      "d": 216.5350000000035,
      "v": 91
    },
    {
      "midi": 66,
      "hit": false,
      "t": 59045.157500000045,
      "d": 228.346000000005,
      "v": 82
    },
    {
      "midi": 62,
      "hit": false,
      "t": 59045.157500000045,
      "d": 243.10975000000326,
      "v": 73
    },
    {
      "midi": 60,
      "hit": false,
      "t": 59357.16475000005,
      "d": 125.98399999998946,
      "v": 91
    },
    {
      "midi": 64,
      "hit": false,
      "t": 59357.16475000005,
      "d": 130.90524999998888,
      "v": 100
    },
    {
      "midi": 67,
      "hit": false,
      "t": 59360.117500000044,
      "d": 108.26749999999447,
      "v": 100
    },
    {
      "midi": 48,
      "hit": false,
      "t": 59365.03875000004,
      "d": 100.39349999999831,
      "v": 82
    },
    {
      "midi": 36,
      "hit": false,
      "t": 59517.59750000003,
      "d": 177.16500000000087,
      "v": 82
    },
    {
      "midi": 48,
      "hit": false,
      "t": 59832.55750000003,
      "d": 98.42500000000291,
      "v": 82
    },
    {
      "midi": 64,
      "hit": false,
      "t": 59837.47875000003,
      "d": 51.18100000000413,
      "v": 91
    },
    {
      "midi": 67,
      "hit": false,
      "t": 59837.47875000003,
      "d": 63.976250000006985,
      "v": 91
    },
    {
      "midi": 60,
      "hit": false,
      "t": 59839.447250000034,
      "d": 47.24399999999878,
      "v": 91
    },
    {
      "midi": 57,
      "hit": false,
      "t": 59985.116250000036,
      "d": 218.5034999999989,
      "v": 91
    },
    {
      "midi": 66,
      "hit": false,
      "t": 59985.116250000036,
      "d": 223.4247499999983,
      "v": 91
    },
    {
      "midi": 62,
      "hit": false,
      "t": 59985.116250000036,
      "d": 236.22000000000116,
      "v": 82
    },
    {
      "midi": 36,
      "hit": false,
      "t": 59987.08475000004,
      "d": 187.0074999999997,
      "v": 82
    },
    {
      "midi": 64,
      "hit": false,
      "t": 60300.076250000035,
      "d": 100.39349999999831,
      "v": 100
    },
    {
      "midi": 55,
      "hit": false,
      "t": 60300.076250000035,
      "d": 118.1099999999933,
      "v": 91
    },
    {
      "midi": 60,
      "hit": false,
      "t": 60300.076250000035,
      "d": 118.1099999999933,
      "v": 100
    },
    {
      "midi": 48,
      "hit": false,
      "t": 60304.997500000034,
      "d": 98.42499999999563,
      "v": 82
    },
    {
      "midi": 28,
      "hit": false,
      "t": 60464.446000000025,
      "d": 180.1177499999976,
      "v": 82
    },
    {
      "midi": 40,
      "hit": false,
      "t": 60782.35875000002,
      "d": 80.70850000000064,
      "v": 75
    },
    {
      "midi": 55,
      "hit": false,
      "t": 60784.327250000024,
      "d": 49.212500000001455,
      "v": 73
    },
    {
      "midi": 64,
      "hit": false,
      "t": 60784.327250000024,
      "d": 52.165249999998196,
      "v": 82
    },
    {
      "midi": 59,
      "hit": false,
      "t": 60784.327250000024,
      "d": 57.08649999999761,
      "v": 82
    },
    {
      "midi": 28,
      "hit": false,
      "t": 60931.96475000002,
      "d": 214.56649999999354,
      "v": 82
    },
    {
      "midi": 57,
      "hit": false,
      "t": 60931.96475000002,
      "d": 219.48774999999296,
      "v": 91
    },
    {
      "midi": 62,
      "hit": false,
      "t": 60931.96475000002,
      "d": 236.2199999999939,
      "v": 91
    },
    {
      "midi": 66,
      "hit": false,
      "t": 60934.91750000002,
      "d": 223.4247499999983,
      "v": 91
    },
    {
      "midi": 64,
      "hit": false,
      "t": 61254.798750000016,
      "d": 137.79500000000553,
      "v": 100
    },
    {
      "midi": 40,
      "hit": false,
      "t": 61256.76725000002,
      "d": 86.6140000000014,
      "v": 73
    },
    {
      "midi": 59,
      "hit": false,
      "t": 61256.76725000002,
      "d": 113.18875000000116,
      "v": 91
    },
    {
      "midi": 67,
      "hit": false,
      "t": 61256.76725000002,
      "d": 113.18875000000116,
      "v": 91
    },
    {
      "midi": 28,
      "hit": false,
      "t": 61404.40475000002,
      "d": 140.74775000000227,
      "v": 91
    },
    {
      "midi": 64,
      "hit": false,
      "t": 61727.238750000026,
      "d": 51.18100000000413,
      "v": 91
    },
    {
      "midi": 67,
      "hit": false,
      "t": 61727.238750000026,
      "d": 63.976250000006985,
      "v": 91
    },
    {
      "midi": 40,
      "hit": false,
      "t": 61727.238750000026,
      "d": 100.39350000000559,
      "v": 73
    },
    {
      "midi": 59,
      "hit": false,
      "t": 61729.20725000003,
      "d": 47.24399999999878,
      "v": 91
    },
    {
      "midi": 57,
      "hit": false,
      "t": 61874.87625000003,
      "d": 218.5034999999989,
      "v": 91
    },
    {
      "midi": 66,
      "hit": false,
      "t": 61874.87625000003,
      "d": 223.4247499999983,
      "v": 91
    },
    {
      "midi": 62,
      "hit": false,
      "t": 61874.87625000003,
      "d": 236.22000000000116,
      "v": 82
    },
    {
      "midi": 28,
      "hit": false,
      "t": 61876.84475000003,
      "d": 189.96024999999645,
      "v": 82
    },
    {
      "midi": 64,
      "hit": false,
      "t": 62189.83625000003,
      "d": 100.39349999999831,
      "v": 100
    },
    {
      "midi": 55,
      "hit": false,
      "t": 62189.83625000003,
      "d": 118.11000000000058,
      "v": 91
    },
    {
      "midi": 59,
      "hit": false,
      "t": 62189.83625000003,
      "d": 118.11000000000058,
      "v": 100
    },
    {
      "midi": 40,
      "hit": false,
      "t": 62199.67875000003,
      "d": 90.55099999999948,
      "v": 73
    },
    {
      "midi": 28,
      "hit": false,
      "t": 62354.20600000003,
      "d": 167.32250000000204,
      "v": 82
    },
    {
      "midi": 59,
      "hit": false,
      "t": 62672.11875000003,
      "d": 51.18100000000413,
      "v": 91
    },
    {
      "midi": 64,
      "hit": false,
      "t": 62672.11875000003,
      "d": 63.976250000006985,
      "v": 91
    },
    {
      "midi": 40,
      "hit": false,
      "t": 62672.11875000003,
      "d": 98.42500000001019,
      "v": 73
    },
    {
      "midi": 55,
      "hit": false,
      "t": 62674.08725000003,
      "d": 47.24399999999878,
      "v": 91
    },
    {
      "midi": 28,
      "hit": false,
      "t": 62819.75625000004,
      "d": 193.8972500000018,
      "v": 82
    },
    {
      "midi": 54,
      "hit": false,
      "t": 62824.67750000004,
      "d": 216.5350000000035,
      "v": 91
    },
    {
      "midi": 62,
      "hit": false,
      "t": 62824.67750000004,
      "d": 228.346000000005,
      "v": 82
    },
    {
      "midi": 57,
      "hit": false,
      "t": 62824.67750000004,
      "d": 243.10975000000326,
      "v": 73
    },
    {
      "midi": 52,
      "hit": false,
      "t": 63136.684750000044,
      "d": 125.98399999998946,
      "v": 91
    },
    {
      "midi": 55,
      "hit": false,
      "t": 63136.684750000044,
      "d": 130.90524999998888,
      "v": 100
    },
    {
      "midi": 59,
      "hit": false,
      "t": 63139.63750000004,
      "d": 108.26749999999447,
      "v": 92
    },
    {
      "midi": 40,
      "hit": false,
      "t": 63144.55875000004,
      "d": 100.39349999999831,
      "v": 82
    },
    {
      "midi": 28,
      "hit": false,
      "t": 63297.11750000003,
      "d": 177.16500000000087,
      "v": 82
    },
    {
      "midi": 40,
      "hit": false,
      "t": 63612.07750000003,
      "d": 98.42500000000291,
      "v": 82
    },
    {
      "midi": 55,
      "hit": false,
      "t": 63616.99875000003,
      "d": 51.18100000000413,
      "v": 91
    },
    {
      "midi": 59,
      "hit": false,
      "t": 63616.99875000003,
      "d": 63.976250000006985,
      "v": 91
    },
    {
      "midi": 52,
      "hit": false,
      "t": 63618.96725000003,
      "d": 47.24399999999878,
      "v": 91
    },
    {
      "midi": 50,
      "hit": false,
      "t": 63764.63625000003,
      "d": 218.5034999999989,
      "v": 91
    },
    {
      "midi": 57,
      "hit": false,
      "t": 63764.63625000003,
      "d": 223.4247499999983,
      "v": 91
    },
    {
      "midi": 54,
      "hit": false,
      "t": 63764.63625000003,
      "d": 236.22000000000116,
      "v": 82
    },
    {
      "midi": 28,
      "hit": false,
      "t": 63766.604750000035,
      "d": 187.0074999999997,
      "v": 82
    },
    {
      "midi": 55,
      "hit": false,
      "t": 64079.59625000003,
      "d": 100.39349999999831,
      "v": 100
    },
    {
      "midi": 47,
      "hit": false,
      "t": 64079.59625000003,
      "d": 118.1099999999933,
      "v": 88
    },
    {
      "midi": 52,
      "hit": false,
      "t": 64079.59625000003,
      "d": 118.1099999999933,
      "v": 91
    },
    {
      "midi": 40,
      "hit": false,
      "t": 64084.51750000003,
      "d": 98.42499999999563,
      "v": 82
    },
    {
      "midi": 36,
      "hit": false,
      "t": 64243.96600000002,
      "d": 180.1177499999976,
      "v": 82
    },
    {
      "midi": 48,
      "hit": false,
      "t": 64561.87875000002,
      "d": 80.70850000000064,
      "v": 75
    },
    {
      "midi": 55,
      "hit": false,
      "t": 64563.84725000002,
      "d": 49.212500000001455,
      "v": 73
    },
    {
      "midi": 64,
      "hit": false,
      "t": 64563.84725000002,
      "d": 52.165249999998196,
      "v": 82
    },
    {
      "midi": 60,
      "hit": false,
      "t": 64563.84725000002,
      "d": 57.08649999999761,
      "v": 82
    },
    {
      "midi": 36,
      "hit": false,
      "t": 64711.48475000002,
      "d": 214.56650000000081,
      "v": 82
    },
    {
      "midi": 57,
      "hit": false,
      "t": 64714.437500000015,
      "d": 218.50350000000617,
      "v": 91
    },
    {
      "midi": 66,
      "hit": false,
      "t": 64714.437500000015,
      "d": 223.4247500000056,
      "v": 91
    },
    {
      "midi": 62,
      "hit": false,
      "t": 64716.40600000002,
      "d": 236.22000000000116,
      "v": 91
    },
    {
      "midi": 64,
      "hit": false,
      "t": 65034.31875000002,
      "d": 137.79500000000553,
      "v": 100
    },
    {
      "midi": 48,
      "hit": false,
      "t": 65036.28725000002,
      "d": 86.6140000000014,
      "v": 73
    },
    {
      "midi": 60,
      "hit": false,
      "t": 65036.28725000002,
      "d": 113.18875000000116,
      "v": 91
    },
    {
      "midi": 67,
      "hit": false,
      "t": 65036.28725000002,
      "d": 113.18875000000116,
      "v": 91
    },
    {
      "midi": 36,
      "hit": false,
      "t": 65183.92475000003,
      "d": 140.74775000000227,
      "v": 91
    },
    {
      "midi": 64,
      "hit": false,
      "t": 65506.75875000003,
      "d": 51.18100000000413,
      "v": 91
    },
    {
      "midi": 67,
      "hit": false,
      "t": 65506.75875000003,
      "d": 63.97624999999971,
      "v": 91
    },
    {
      "midi": 48,
      "hit": false,
      "t": 65506.75875000003,
      "d": 100.39349999999831,
      "v": 73
    },
    {
      "midi": 60,
      "hit": false,
      "t": 65508.72725000003,
      "d": 47.24399999999878,
      "v": 91
    },
    {
      "midi": 57,
      "hit": false,
      "t": 65654.39625000003,
      "d": 218.50350000000617,
      "v": 91
    },
    {
      "midi": 66,
      "hit": false,
      "t": 65654.39625000003,
      "d": 223.4247500000056,
      "v": 91
    },
    {
      "midi": 62,
      "hit": false,
      "t": 65654.39625000003,
      "d": 236.22000000000116,
      "v": 82
    },
    {
      "midi": 36,
      "hit": false,
      "t": 65656.36475000004,
      "d": 189.96025000000373,
      "v": 82
    },
    {
      "midi": 64,
      "hit": false,
      "t": 65969.35625000004,
      "d": 100.39350000000559,
      "v": 100
    },
    {
      "midi": 55,
      "hit": false,
      "t": 65969.35625000004,
      "d": 118.11000000000058,
      "v": 91
    },
    {
      "midi": 60,
      "hit": false,
      "t": 65969.35625000004,
      "d": 118.11000000000058,
      "v": 100
    },
    {
      "midi": 48,
      "hit": false,
      "t": 65979.19875000004,
      "d": 90.55100000000675,
      "v": 73
    },
    {
      "midi": 36,
      "hit": false,
      "t": 66133.72600000004,
      "d": 167.32249999999476,
      "v": 82
    },
    {
      "midi": 60,
      "hit": false,
      "t": 66451.63875000003,
      "d": 51.18100000001141,
      "v": 91
    },
    {
      "midi": 64,
      "hit": false,
      "t": 66451.63875000003,
      "d": 63.976250000006985,
      "v": 91
    },
    {
      "midi": 48,
      "hit": false,
      "t": 66451.63875000003,
      "d": 98.42500000000291,
      "v": 73
    },
    {
      "midi": 55,
      "hit": false,
      "t": 66453.60725000003,
      "d": 47.244000000006054,
      "v": 91
    },
    {
      "midi": 36,
      "hit": false,
      "t": 66599.27625000002,
      "d": 193.89724999999453,
      "v": 82
    },
    {
      "midi": 57,
      "hit": false,
      "t": 66604.19750000002,
      "d": 216.53499999998894,
      "v": 91
    },
    {
      "midi": 66,
      "hit": false,
      "t": 66604.19750000002,
      "d": 228.34599999999045,
      "v": 82
    },
    {
      "midi": 62,
      "hit": false,
      "t": 66604.19750000002,
      "d": 243.1097499999887,
      "v": 73
    },
    {
      "midi": 60,
      "hit": false,
      "t": 66916.20475000002,
      "d": 125.98399999999674,
      "v": 91
    },
    {
      "midi": 64,
      "hit": false,
      "t": 66916.20475000002,
      "d": 130.90524999999616,
      "v": 100
    },
    {
      "midi": 67,
      "hit": false,
      "t": 66919.15750000002,
      "d": 108.26750000000175,
      "v": 100
    },
    {
      "midi": 48,
      "hit": false,
      "t": 66924.07875000002,
      "d": 100.39350000000559,
      "v": 82
    },
    {
      "midi": 36,
      "hit": false,
      "t": 67076.63750000001,
      "d": 177.1649999999936,
      "v": 82
    },
    {
      "midi": 48,
      "hit": false,
      "t": 67391.5975,
      "d": 98.42500000000291,
      "v": 82
    },
    {
      "midi": 64,
      "hit": false,
      "t": 67396.51875,
      "d": 51.18100000001141,
      "v": 91
    },
    {
      "midi": 67,
      "hit": false,
      "t": 67396.51875,
      "d": 63.976250000006985,
      "v": 91
    },
    {
      "midi": 60,
      "hit": false,
      "t": 67398.48725,
      "d": 47.244000000006054,
      "v": 91
    },
    {
      "midi": 57,
      "hit": false,
      "t": 67544.15625,
      "d": 218.50350000000617,
      "v": 91
    },
    {
      "midi": 66,
      "hit": false,
      "t": 67544.15625,
      "d": 223.4247500000056,
      "v": 91
    },
    {
      "midi": 62,
      "hit": false,
      "t": 67544.15625,
      "d": 236.22000000000116,
      "v": 82
    },
    {
      "midi": 36,
      "hit": false,
      "t": 67546.12475,
      "d": 187.00750000000698,
      "v": 82
    },
    {
      "midi": 64,
      "hit": false,
      "t": 67859.11625,
      "d": 100.39350000000559,
      "v": 100
    },
    {
      "midi": 55,
      "hit": false,
      "t": 67859.11625,
      "d": 118.11000000000058,
      "v": 91
    },
    {
      "midi": 60,
      "hit": false,
      "t": 67859.11625,
      "d": 118.11000000000058,
      "v": 100
    },
    {
      "midi": 48,
      "hit": false,
      "t": 67864.0375,
      "d": 98.42500000000291,
      "v": 82
    },
    {
      "midi": 28,
      "hit": false,
      "t": 68023.486,
      "d": 180.1177500000049,
      "v": 82
    },
    {
      "midi": 40,
      "hit": false,
      "t": 68341.39875000001,
      "d": 80.70849999999336,
      "v": 75
    },
    {
      "midi": 55,
      "hit": false,
      "t": 68343.36725000001,
      "d": 49.21249999999418,
      "v": 73
    },
    {
      "midi": 64,
      "hit": false,
      "t": 68343.36725000001,
      "d": 52.16524999999092,
      "v": 82
    },
    {
      "midi": 59,
      "hit": false,
      "t": 68343.36725000001,
      "d": 57.08649999999034,
      "v": 82
    },
    {
      "midi": 28,
      "hit": false,
      "t": 68491.00475000001,
      "d": 214.56650000000081,
      "v": 82
    },
    {
      "midi": 57,
      "hit": false,
      "t": 68491.00475000001,
      "d": 219.48775000000023,
      "v": 91
    },
    {
      "midi": 62,
      "hit": false,
      "t": 68491.00475000001,
      "d": 236.22000000000116,
      "v": 91
    },
    {
      "midi": 66,
      "hit": false,
      "t": 68493.9575,
      "d": 223.4247500000056,
      "v": 91
    },
    {
      "midi": 64,
      "hit": false,
      "t": 68813.83875000001,
      "d": 137.79499999999825,
      "v": 100
    },
    {
      "midi": 40,
      "hit": false,
      "t": 68815.80725000001,
      "d": 86.6140000000014,
      "v": 73
    },
    {
      "midi": 59,
      "hit": false,
      "t": 68815.80725000001,
      "d": 113.18875000000116,
      "v": 91
    },
    {
      "midi": 67,
      "hit": false,
      "t": 68815.80725000001,
      "d": 113.18875000000116,
      "v": 91
    },
    {
      "midi": 28,
      "hit": false,
      "t": 68963.44475000001,
      "d": 140.747749999995,
      "v": 91
    },
    {
      "midi": 64,
      "hit": false,
      "t": 69286.27875,
      "d": 51.18100000001141,
      "v": 91
    },
    {
      "midi": 67,
      "hit": false,
      "t": 69286.27875,
      "d": 63.976250000006985,
      "v": 91
    },
    {
      "midi": 40,
      "hit": false,
      "t": 69286.27875,
      "d": 100.39350000000559,
      "v": 73
    },
    {
      "midi": 59,
      "hit": false,
      "t": 69288.24725,
      "d": 47.244000000006054,
      "v": 91
    },
    {
      "midi": 57,
      "hit": false,
      "t": 69433.91625000001,
      "d": 218.50350000000617,
      "v": 91
    },
    {
      "midi": 66,
      "hit": false,
      "t": 69433.91625000001,
      "d": 223.4247500000056,
      "v": 91
    },
    {
      "midi": 62,
      "hit": false,
      "t": 69433.91625000001,
      "d": 236.22000000000116,
      "v": 82
    },
    {
      "midi": 28,
      "hit": false,
      "t": 69435.88475000001,
      "d": 189.96025000000373,
      "v": 82
    },
    {
      "midi": 64,
      "hit": false,
      "t": 69748.87625000002,
      "d": 100.39350000000559,
      "v": 100
    },
    {
      "midi": 55,
      "hit": false,
      "t": 69748.87625000002,
      "d": 118.11000000000058,
      "v": 91
    },
    {
      "midi": 59,
      "hit": false,
      "t": 69748.87625000002,
      "d": 118.11000000000058,
      "v": 100
    },
    {
      "midi": 40,
      "hit": false,
      "t": 69758.71875000001,
      "d": 90.55100000000675,
      "v": 73
    },
    {
      "midi": 28,
      "hit": false,
      "t": 69913.24600000001,
      "d": 167.32249999999476,
      "v": 82
    },
    {
      "midi": 59,
      "hit": false,
      "t": 70231.15875,
      "d": 51.18100000001141,
      "v": 91
    },
    {
      "midi": 64,
      "hit": false,
      "t": 70231.15875,
      "d": 63.976250000006985,
      "v": 91
    },
    {
      "midi": 40,
      "hit": false,
      "t": 70231.15875,
      "d": 98.42500000000291,
      "v": 73
    },
    {
      "midi": 55,
      "hit": false,
      "t": 70233.12725,
      "d": 47.244000000006054,
      "v": 91
    },
    {
      "midi": 28,
      "hit": false,
      "t": 70378.79625,
      "d": 193.89724999999453,
      "v": 82
    },
    {
      "midi": 54,
      "hit": false,
      "t": 70383.7175,
      "d": 216.53499999998894,
      "v": 91
    },
    {
      "midi": 62,
      "hit": false,
      "t": 70383.7175,
      "d": 228.34599999999045,
      "v": 82
    },
    {
      "midi": 57,
      "hit": false,
      "t": 70383.7175,
      "d": 243.1097499999887,
      "v": 73
    },
    {
      "midi": 52,
      "hit": false,
      "t": 70695.72475,
      "d": 125.98399999999674,
      "v": 91
    },
    {
      "midi": 55,
      "hit": false,
      "t": 70695.72475,
      "d": 130.90524999999616,
      "v": 100
    },
    {
      "midi": 59,
      "hit": false,
      "t": 70698.67749999999,
      "d": 108.26750000000175,
      "v": 92
    },
    {
      "midi": 40,
      "hit": false,
      "t": 70703.59874999999,
      "d": 100.39350000000559,
      "v": 82
    },
    {
      "midi": 28,
      "hit": false,
      "t": 70856.15749999999,
      "d": 177.1649999999936,
      "v": 82
    },
    {
      "midi": 40,
      "hit": false,
      "t": 71171.11749999998,
      "d": 98.42500000000291,
      "v": 82
    },
    {
      "midi": 55,
      "hit": false,
      "t": 71176.03874999998,
      "d": 51.18100000001141,
      "v": 91
    },
    {
      "midi": 59,
      "hit": false,
      "t": 71176.03874999998,
      "d": 63.976250000006985,
      "v": 91
    },
    {
      "midi": 52,
      "hit": false,
      "t": 71178.00724999998,
      "d": 47.244000000006054,
      "v": 91
    },
    {
      "midi": 50,
      "hit": false,
      "t": 71323.67624999997,
      "d": 218.50350000000617,
      "v": 91
    },
    {
      "midi": 57,
      "hit": false,
      "t": 71323.67624999997,
      "d": 223.4247500000056,
      "v": 91
    },
    {
      "midi": 54,
      "hit": false,
      "t": 71323.67624999997,
      "d": 236.22000000000116,
      "v": 82
    },
    {
      "midi": 28,
      "hit": false,
      "t": 71325.64474999998,
      "d": 187.00750000000698,
      "v": 82
    },
    {
      "midi": 55,
      "hit": false,
      "t": 71638.63624999998,
      "d": 100.39350000000559,
      "v": 100
    },
    {
      "midi": 47,
      "hit": false,
      "t": 71638.63624999998,
      "d": 118.11000000000058,
      "v": 88
    },
    {
      "midi": 52,
      "hit": false,
      "t": 71638.63624999998,
      "d": 118.11000000000058,
      "v": 91
    },
    {
      "midi": 40,
      "hit": false,
      "t": 71643.55749999998,
      "d": 98.42500000000291,
      "v": 82
    },
    {
      "midi": 36,
      "hit": false,
      "t": 71791.19499999998,
      "d": 1855.3112499999988,
      "v": 73
    },
    {
      "midi": 48,
      "hit": false,
      "t": 71793.16349999998,
      "d": 1855.3112499999988,
      "v": 89
    },
    {
      "midi": 55,
      "hit": false,
      "t": 71796.11624999998,
      "d": 1837.5947500000038,
      "v": 98
    },
    {
      "midi": 64,
      "hit": false,
      "t": 71796.11624999998,
      "d": 1842.5160000000033,
      "v": 103
    },
    {
      "midi": 60,
      "hit": false,
      "t": 71798.08474999998,
      "d": 1863.185249999995,
      "v": 109
    },
    {
      "midi": 67,
      "hit": false,
      "t": 73690.79749999997,
      "d": 374.0149999999994,
      "v": 100
    },
    {
      "midi": 57,
      "hit": false,
      "t": 73690.79749999997,
      "d": 378.93624999999884,
      "v": 100
    },
    {
      "midi": 60,
      "hit": false,
      "t": 73690.79749999997,
      "d": 378.93624999999884,
      "v": 100
    },
    {
      "midi": 64,
      "hit": false,
      "t": 73690.79749999997,
      "d": 380.9047500000015,
      "v": 109
    },
    {
      "midi": 45,
      "hit": false,
      "t": 73695.71874999997,
      "d": 344.4875000000029,
      "v": 82
    },
    {
      "midi": 33,
      "hit": false,
      "t": 73695.71874999997,
      "d": 346.4560000000056,
      "v": 64
    },
    {
      "midi": 64,
      "hit": false,
      "t": 74163.23749999997,
      "d": 383.85749999999825,
      "v": 109
    },
    {
      "midi": 57,
      "hit": false,
      "t": 74163.23749999997,
      "d": 388.7787499999977,
      "v": 100
    },
    {
      "midi": 60,
      "hit": false,
      "t": 74163.23749999997,
      "d": 388.7787499999977,
      "v": 100
    },
    {
      "midi": 33,
      "hit": false,
      "t": 74165.20599999998,
      "d": 359.25125000000116,
      "v": 73
    },
    {
      "midi": 45,
      "hit": false,
      "t": 74165.20599999998,
      "d": 372.04649999999674,
      "v": 82
    },
    {
      "midi": 67,
      "hit": false,
      "t": 74165.20599999998,
      "d": 372.04649999999674,
      "v": 100
    },
    {
      "midi": 57,
      "hit": false,
      "t": 74635.67749999998,
      "d": 385.82600000000093,
      "v": 91
    },
    {
      "midi": 59,
      "hit": false,
      "t": 74635.67749999998,
      "d": 385.82600000000093,
      "v": 91
    },
    {
      "midi": 63,
      "hit": false,
      "t": 74635.67749999998,
      "d": 385.82600000000093,
      "v": 100
    },
    {
      "midi": 66,
      "hit": false,
      "t": 74637.64599999998,
      "d": 362.2039999999979,
      "v": 109
    },
    {
      "midi": 35,
      "hit": false,
      "t": 74640.59874999998,
      "d": 351.377250000005,
      "v": 73
    },
    {
      "midi": 47,
      "hit": false,
      "t": 74642.56724999998,
      "d": 349.4087500000023,
      "v": 82
    },
    {
      "midi": 35,
      "hit": false,
      "t": 75108.11749999998,
      "d": 356.2985000000044,
      "v": 76
    },
    {
      "midi": 47,
      "hit": false,
      "t": 75110.08599999998,
      "d": 327.755250000002,
      "v": 81
    },
    {
      "midi": 57,
      "hit": false,
      "t": 75110.08599999998,
      "d": 421.25900000000547,
      "v": 91
    },
    {
      "midi": 59,
      "hit": false,
      "t": 75110.08599999998,
      "d": 421.25900000000547,
      "v": 91
    },
    {
      "midi": 63,
      "hit": false,
      "t": 75110.08599999998,
      "d": 428.14875000000757,
      "v": 109
    },
    {
      "midi": 66,
      "hit": false,
      "t": 75113.03874999998,
      "d": 423.22750000000815,
      "v": 109
    },
    {
      "midi": 28,
      "hit": false,
      "t": 75587.44724999998,
      "d": 3518.6937500000204,
      "v": 70
    },
    {
      "midi": 40,
      "hit": false,
      "t": 75587.44724999998,
      "d": 3526.5677500000165,
      "v": 91
    },
    {
      "midi": 67,
      "hit": false,
      "t": 77002.79874999999,
      "d": 226.37750000000233,
      "v": 95
    },
    {
      "midi": 64,
      "hit": false,
      "t": 77002.79874999999,
      "d": 236.22000000000116,
      "v": 91
    },
    {
      "midi": 59,
      "hit": false,
      "t": 77004.76724999999,
      "d": 229.33024999999907,
      "v": 82
    },
    {
      "midi": 59,
      "hit": false,
      "t": 77312.8375,
      "d": 1936.0197500000068,
      "v": 92
    },
    {
      "midi": 67,
      "hit": false,
      "t": 77312.8375,
      "d": 1948.8150000000023,
      "v": 109
    },
    {
      "midi": 64,
      "hit": false,
      "t": 77314.806,
      "d": 1924.2087500000052,
      "v": 93
    },
    {
      "midi": 28,
      "hit": false,
      "t": 79202.5975,
      "d": 3363.182249999998,
      "v": 70
    },
    {
      "midi": 40,
      "hit": false,
      "t": 79202.5975,
      "d": 3385.8199999999924,
      "v": 91
    },
    {
      "midi": 67,
      "hit": false,
      "t": 82037.2375,
      "d": 610.234999999986,
      "v": 109
    },
    {
      "midi": 59,
      "hit": false,
      "t": 82037.2375,
      "d": 615.1562499999854,
      "v": 92
    },
    {
      "midi": 64,
      "hit": false,
      "t": 82039.206,
      "d": 598.4239999999845,
      "v": 93
    },
    {
      "midi": 60,
      "hit": false,
      "t": 82667.15749999999,
      "d": 233.26725000000442,
      "v": 73
    },
    {
      "midi": 64,
      "hit": false,
      "t": 82669.12599999999,
      "d": 211.61375000000407,
      "v": 64
    },
    {
      "midi": 55,
      "hit": false,
      "t": 82669.12599999999,
      "d": 239.1727499999979,
      "v": 73
    },
    {
      "midi": 36,
      "hit": false,
      "t": 82674.04724999999,
      "d": 216.5350000000035,
      "v": 68
    },
    {
      "midi": 48,
      "hit": false,
      "t": 82674.04724999999,
      "d": 239.1727499999979,
      "v": 73
    },
    {
      "midi": 55,
      "hit": false,
      "t": 82982.1175,
      "d": 3026.568750000006,
      "v": 92
    },
    {
      "midi": 64,
      "hit": false,
      "t": 82982.1175,
      "d": 3026.568750000006,
      "v": 109
    },
    {
      "midi": 36,
      "hit": false,
      "t": 82982.1175,
      "d": 3213.576250000013,
      "v": 70
    },
    {
      "midi": 48,
      "hit": false,
      "t": 82982.1175,
      "d": 3213.576250000013,
      "v": 91
    },
    {
      "midi": 60,
      "hit": false,
      "t": 82984.086,
      "d": 3026.568750000006,
      "v": 93
    },
    {
      "midi": 54,
      "hit": false,
      "t": 86289.19750000001,
      "d": 590.5500000000029,
      "v": 92
    },
    {
      "midi": 62,
      "hit": false,
      "t": 86289.19750000001,
      "d": 590.5500000000029,
      "v": 109
    },
    {
      "midi": 57,
      "hit": false,
      "t": 86291.16600000001,
      "d": 590.5500000000029,
      "v": 93
    },
    {
      "midi": 55,
      "hit": false,
      "t": 86919.11750000002,
      "d": 3026.568750000006,
      "v": 92
    },
    {
      "midi": 64,
      "hit": false,
      "t": 86919.11750000002,
      "d": 3026.568750000006,
      "v": 109
    },
    {
      "midi": 28,
      "hit": false,
      "t": 86919.11750000002,
      "d": 3658.4572500000068,
      "v": 70
    },
    {
      "midi": 40,
      "hit": false,
      "t": 86919.11750000002,
      "d": 3681.095000000001,
      "v": 91
    },
    {
      "midi": 59,
      "hit": false,
      "t": 86921.08600000002,
      "d": 3026.568750000006,
      "v": 93
    },
    {
      "midi": 57,
      "hit": false,
      "t": 90068.71750000003,
      "d": 590.5499999999884,
      "v": 92
    },
    {
      "midi": 66,
      "hit": false,
      "t": 90068.71750000003,
      "d": 590.5499999999884,
      "v": 109
    },
    {
      "midi": 62,
      "hit": false,
      "t": 90070.68600000003,
      "d": 590.5499999999884,
      "v": 93
    },
    {
      "midi": 36,
      "hit": false,
      "t": 90698.63750000003,
      "d": 3658.4572500000068,
      "v": 70
    },
    {
      "midi": 48,
      "hit": false,
      "t": 90698.63750000003,
      "d": 3681.095000000001,
      "v": 91
    },
    {
      "midi": 60,
      "hit": false,
      "t": 90698.63750000003,
      "d": 3690.9375,
      "v": 92
    },
    {
      "midi": 67,
      "hit": false,
      "t": 90698.63750000003,
      "d": 3690.9375,
      "v": 109
    },
    {
      "midi": 64,
      "hit": false,
      "t": 90700.60600000003,
      "d": 3690.9375,
      "v": 93
    },
    {
      "midi": 40,
      "hit": false,
      "t": 94478.15750000003,
      "d": 1648.6187500000087,
      "v": 91
    },
    {
      "midi": 55,
      "hit": false,
      "t": 94478.15750000003,
      "d": 1820.8625000000175,
      "v": 92
    },
    {
      "midi": 64,
      "hit": false,
      "t": 94478.15750000003,
      "d": 1820.8625000000175,
      "v": 109
    },
    {
      "midi": 28,
      "hit": false,
      "t": 94478.15750000003,
      "d": 3658.457250000036,
      "v": 70
    },
    {
      "midi": 59,
      "hit": false,
      "t": 94480.12600000003,
      "d": 1820.8625000000175,
      "v": 93
    },
    {
      "midi": 40,
      "hit": false,
      "t": 96215.35875000004,
      "d": 823.8172500000219,
      "v": 82
    },
    {
      "midi": 59,
      "hit": false,
      "t": 96374.80725000006,
      "d": 211.61375000000407,
      "v": 91
    },
    {
      "midi": 64,
      "hit": false,
      "t": 96374.80725000006,
      "d": 226.37750000000233,
      "v": 100
    },
    {
      "midi": 71,
      "hit": false,
      "t": 96374.80725000006,
      "d": 226.37750000000233,
      "v": 108
    },
    {
      "midi": 67,
      "hit": false,
      "t": 96374.80725000006,
      "d": 229.33024999999907,
      "v": 88
    },
    {
      "midi": 71,
      "hit": false,
      "t": 96687.79875000006,
      "d": 511.8100000000122,
      "v": 91
    },
    {
      "midi": 59,
      "hit": false,
      "t": 96687.79875000006,
      "d": 531.4950000000099,
      "v": 91
    },
    {
      "midi": 67,
      "hit": false,
      "t": 96687.79875000006,
      "d": 538.384750000012,
      "v": 91
    },
    {
      "midi": 64,
      "hit": false,
      "t": 96687.79875000006,
      "d": 551.1800000000076,
      "v": 109
    },
    {
      "midi": 40,
      "hit": false,
      "t": 97162.20725000006,
      "d": 1031.494000000006,
      "v": 79
    },
    {
      "midi": 69,
      "hit": false,
      "t": 97317.71875000007,
      "d": 211.61375000000407,
      "v": 100
    },
    {
      "midi": 57,
      "hit": false,
      "t": 97319.68725000008,
      "d": 209.6452500000014,
      "v": 100
    },
    {
      "midi": 66,
      "hit": false,
      "t": 97319.68725000008,
      "d": 236.22000000000116,
      "v": 91
    },
    {
      "midi": 62,
      "hit": false,
      "t": 97319.68725000008,
      "d": 239.1727499999979,
      "v": 100
    },
    {
      "midi": 62,
      "hit": false,
      "t": 97634.64725000007,
      "d": 593.5027499999997,
      "v": 109
    },
    {
      "midi": 57,
      "hit": false,
      "t": 97634.64725000007,
      "d": 600.3925000000017,
      "v": 91
    },
    {
      "midi": 69,
      "hit": false,
      "t": 97634.64725000007,
      "d": 600.3925000000017,
      "v": 91
    },
    {
      "midi": 66,
      "hit": false,
      "t": 97634.64725000007,
      "d": 620.0774999999994,
      "v": 100
    },
    {
      "midi": 55,
      "hit": false,
      "t": 98257.67750000006,
      "d": 3026.568750000006,
      "v": 92
    },
    {
      "midi": 64,
      "hit": false,
      "t": 98257.67750000006,
      "d": 3026.568750000006,
      "v": 109
    },
    {
      "midi": 36,
      "hit": false,
      "t": 98257.67750000006,
      "d": 3658.4572500000068,
      "v": 70
    },
    {
      "midi": 48,
      "hit": false,
      "t": 98257.67750000006,
      "d": 3681.095000000001,
      "v": 91
    },
    {
      "midi": 60,
      "hit": false,
      "t": 98259.64600000007,
      "d": 3026.568750000006,
      "v": 93
    },
    {
      "midi": 57,
      "hit": false,
      "t": 101407.27750000007,
      "d": 590.5499999999884,
      "v": 92
    },
    {
      "midi": 66,
      "hit": false,
      "t": 101407.27750000007,
      "d": 590.5499999999884,
      "v": 109
    },
    {
      "midi": 62,
      "hit": false,
      "t": 101409.24600000007,
      "d": 590.5499999999884,
      "v": 93
    },
    {
      "midi": 59,
      "hit": false,
      "t": 102037.19750000007,
      "d": 3026.568750000006,
      "v": 92
    },
    {
      "midi": 67,
      "hit": false,
      "t": 102037.19750000007,
      "d": 3026.568750000006,
      "v": 109
    },
    {
      "midi": 40,
      "hit": false,
      "t": 102037.19750000007,
      "d": 3631.882500000007,
      "v": 91
    },
    {
      "midi": 28,
      "hit": false,
      "t": 102037.19750000007,
      "d": 3633.8510000000097,
      "v": 70
    },
    {
      "midi": 64,
      "hit": false,
      "t": 102039.16600000007,
      "d": 3026.568750000006,
      "v": 93
    },
    {
      "midi": 47,
      "hit": false,
      "t": 105661.20600000008,
      "d": 145.6689999999944,
      "v": 73
    },
    {
      "midi": 52,
      "hit": false,
      "t": 105816.71750000007,
      "d": 1786.413750000007,
      "v": 92
    },
    {
      "midi": 60,
      "hit": false,
      "t": 105816.71750000007,
      "d": 1786.413750000007,
      "v": 109
    },
    {
      "midi": 36,
      "hit": false,
      "t": 105816.71750000007,
      "d": 1820.862500000003,
      "v": 70
    },
    {
      "midi": 48,
      "hit": false,
      "t": 105816.71750000007,
      "d": 1820.862500000003,
      "v": 91
    },
    {
      "midi": 55,
      "hit": false,
      "t": 105818.68600000007,
      "d": 1786.413750000007,
      "v": 93
    },
    {
      "midi": 54,
      "hit": false,
      "t": 107706.47750000008,
      "d": 1786.413750000007,
      "v": 92
    },
    {
      "midi": 63,
      "hit": false,
      "t": 107706.47750000008,
      "d": 1786.413750000007,
      "v": 109
    },
    {
      "midi": 35,
      "hit": false,
      "t": 107706.47750000008,
      "d": 1820.862500000003,
      "v": 70
    },
    {
      "midi": 47,
      "hit": false,
      "t": 107706.47750000008,
      "d": 1820.862500000003,
      "v": 91
    },
    {
      "midi": 59,
      "hit": false,
      "t": 107708.44600000008,
      "d": 1786.413750000007,
      "v": 93
    },
    {
      "midi": 40,
      "hit": false,
      "t": 109596.23750000009,
      "d": 1648.6187500000087,
      "v": 91
    },
    {
      "midi": 28,
      "hit": false,
      "t": 109596.23750000009,
      "d": 1919.2875000000058,
      "v": 70
    },
    {
      "midi": 52,
      "hit": false,
      "t": 109596.23750000009,
      "d": 3666.3312499999884,
      "v": 92
    },
    {
      "midi": 59,
      "hit": false,
      "t": 109596.23750000009,
      "d": 3666.3312499999884,
      "v": 109
    },
    {
      "midi": 55,
      "hit": false,
      "t": 109598.2060000001,
      "d": 3666.3312499999884,
      "v": 93
    },
    {
      "midi": 40,
      "hit": false,
      "t": 111490.9187500001,
      "d": 297.24349999999686,
      "v": 73
    },
    {
      "midi": 28,
      "hit": false,
      "t": 111802.9260000001,
      "d": 165.35399999999208,
      "v": 64
    },
    {
      "midi": 40,
      "hit": false,
      "t": 111960.40600000009,
      "d": 317.9127499999886,
      "v": 78
    },
    {
      "midi": 28,
      "hit": false,
      "t": 112275.36600000008,
      "d": 209.6452500000014,
      "v": 64
    },
    {
      "midi": 40,
      "hit": false,
      "t": 112432.84600000008,
      "d": 314.9600000000064,
      "v": 84
    },
    {
      "midi": 28,
      "hit": false,
      "t": 112747.80600000008,
      "d": 204.72400000000198,
      "v": 64
    },
    {
      "midi": 40,
      "hit": false,
      "t": 112908.23875000009,
      "d": 302.1647499999963,
      "v": 81
    },
    {
      "midi": 28,
      "hit": false,
      "t": 113218.27750000008,
      "d": 162.40124999999534,
      "v": 64
    },
    {
      "midi": 36,
      "hit": false,
      "t": 113377.72600000008,
      "d": 180.11774999999034,
      "v": 82
    },
    {
      "midi": 48,
      "hit": false,
      "t": 113695.63875000007,
      "d": 80.70849999999336,
      "v": 75
    },
    {
      "midi": 55,
      "hit": false,
      "t": 113697.60725000007,
      "d": 49.21249999999418,
      "v": 73
    },
    {
      "midi": 64,
      "hit": false,
      "t": 113697.60725000007,
      "d": 52.16524999999092,
      "v": 82
    },
    {
      "midi": 60,
      "hit": false,
      "t": 113697.60725000007,
      "d": 57.08649999999034,
      "v": 82
    },
    {
      "midi": 36,
      "hit": false,
      "t": 113845.24475000007,
      "d": 214.56650000000081,
      "v": 82
    },
    {
      "midi": 57,
      "hit": false,
      "t": 113848.19750000007,
      "d": 218.50350000000617,
      "v": 91
    },
    {
      "midi": 66,
      "hit": false,
      "t": 113848.19750000007,
      "d": 223.4247500000056,
      "v": 91
    },
    {
      "midi": 62,
      "hit": false,
      "t": 113850.16600000007,
      "d": 236.22000000000116,
      "v": 91
    },
    {
      "midi": 64,
      "hit": false,
      "t": 114165.12600000008,
      "d": 137.79499999999825,
      "v": 100
    },
    {
      "midi": 60,
      "hit": false,
      "t": 114168.07875000007,
      "d": 113.18875000000116,
      "v": 91
    },
    {
      "midi": 67,
      "hit": false,
      "t": 114168.07875000007,
      "d": 113.18875000000116,
      "v": 91
    },
    {
      "midi": 48,
      "hit": false,
      "t": 114170.04725000008,
      "d": 86.6140000000014,
      "v": 73
    },
    {
      "midi": 36,
      "hit": false,
      "t": 114317.68475000007,
      "d": 140.747749999995,
      "v": 91
    },
    {
      "midi": 64,
      "hit": false,
      "t": 114640.51875000006,
      "d": 51.18100000001141,
      "v": 91
    },
    {
      "midi": 67,
      "hit": false,
      "t": 114640.51875000006,
      "d": 63.976250000006985,
      "v": 91
    },
    {
      "midi": 48,
      "hit": false,
      "t": 114640.51875000006,
      "d": 100.39350000000559,
      "v": 73
    },
    {
      "midi": 60,
      "hit": false,
      "t": 114642.48725000006,
      "d": 47.244000000006054,
      "v": 91
    },
    {
      "midi": 57,
      "hit": false,
      "t": 114788.15625000007,
      "d": 218.50350000000617,
      "v": 91
    },
    {
      "midi": 66,
      "hit": false,
      "t": 114788.15625000007,
      "d": 223.4247500000056,
      "v": 91
    },
    {
      "midi": 62,
      "hit": false,
      "t": 114788.15625000007,
      "d": 236.22000000000116,
      "v": 82
    },
    {
      "midi": 36,
      "hit": false,
      "t": 114790.12475000008,
      "d": 189.96025000000373,
      "v": 82
    },
    {
      "midi": 64,
      "hit": false,
      "t": 115103.11625000008,
      "d": 100.39350000000559,
      "v": 100
    },
    {
      "midi": 55,
      "hit": false,
      "t": 115103.11625000008,
      "d": 118.11000000000058,
      "v": 91
    },
    {
      "midi": 60,
      "hit": false,
      "t": 115103.11625000008,
      "d": 118.11000000000058,
      "v": 100
    },
    {
      "midi": 48,
      "hit": false,
      "t": 115112.95875000008,
      "d": 90.55100000000675,
      "v": 73
    },
    {
      "midi": 36,
      "hit": false,
      "t": 115267.48600000008,
      "d": 167.32249999999476,
      "v": 82
    },
    {
      "midi": 60,
      "hit": false,
      "t": 115585.39875000007,
      "d": 51.18100000001141,
      "v": 91
    },
    {
      "midi": 64,
      "hit": false,
      "t": 115585.39875000007,
      "d": 63.976250000006985,
      "v": 91
    },
    {
      "midi": 48,
      "hit": false,
      "t": 115585.39875000007,
      "d": 98.42500000000291,
      "v": 73
    },
    {
      "midi": 55,
      "hit": false,
      "t": 115587.36725000007,
      "d": 47.244000000006054,
      "v": 91
    },
    {
      "midi": 36,
      "hit": false,
      "t": 115733.03625000006,
      "d": 193.89724999999453,
      "v": 82
    },
    {
      "midi": 57,
      "hit": false,
      "t": 115737.95750000006,
      "d": 216.53499999998894,
      "v": 91
    },
    {
      "midi": 66,
      "hit": false,
      "t": 115737.95750000006,
      "d": 228.34599999999045,
      "v": 82
    },
    {
      "midi": 62,
      "hit": false,
      "t": 115737.95750000006,
      "d": 243.1097499999887,
      "v": 73
    },
    {
      "midi": 60,
      "hit": false,
      "t": 116049.96475000006,
      "d": 125.98399999999674,
      "v": 91
    },
    {
      "midi": 64,
      "hit": false,
      "t": 116049.96475000006,
      "d": 130.90524999999616,
      "v": 100
    },
    {
      "midi": 67,
      "hit": false,
      "t": 116052.91750000005,
      "d": 108.26750000000175,
      "v": 100
    },
    {
      "midi": 48,
      "hit": false,
      "t": 116057.83875000005,
      "d": 100.39350000000559,
      "v": 82
    },
    {
      "midi": 36,
      "hit": false,
      "t": 116210.39750000005,
      "d": 177.1649999999936,
      "v": 82
    },
    {
      "midi": 48,
      "hit": false,
      "t": 116525.35750000004,
      "d": 98.42500000000291,
      "v": 82
    },
    {
      "midi": 64,
      "hit": false,
      "t": 116530.27875000004,
      "d": 51.18100000001141,
      "v": 91
    },
    {
      "midi": 67,
      "hit": false,
      "t": 116530.27875000004,
      "d": 63.976250000006985,
      "v": 91
    },
    {
      "midi": 60,
      "hit": false,
      "t": 116532.24725000004,
      "d": 47.244000000006054,
      "v": 91
    },
    {
      "midi": 57,
      "hit": false,
      "t": 116677.91625000004,
      "d": 218.50350000000617,
      "v": 91
    },
    {
      "midi": 66,
      "hit": false,
      "t": 116677.91625000004,
      "d": 223.4247500000056,
      "v": 91
    },
    {
      "midi": 62,
      "hit": false,
      "t": 116677.91625000004,
      "d": 236.22000000000116,
      "v": 82
    },
    {
      "midi": 36,
      "hit": false,
      "t": 116679.88475000004,
      "d": 187.00750000000698,
      "v": 82
    },
    {
      "midi": 64,
      "hit": false,
      "t": 116992.87625000004,
      "d": 100.39350000000559,
      "v": 100
    },
    {
      "midi": 55,
      "hit": false,
      "t": 116992.87625000004,
      "d": 118.11000000000058,
      "v": 91
    },
    {
      "midi": 60,
      "hit": false,
      "t": 116992.87625000004,
      "d": 118.11000000000058,
      "v": 100
    },
    {
      "midi": 48,
      "hit": false,
      "t": 116997.79750000004,
      "d": 98.42500000000291,
      "v": 82
    },
    {
      "midi": 28,
      "hit": false,
      "t": 117157.24600000004,
      "d": 180.1177500000049,
      "v": 82
    },
    {
      "midi": 40,
      "hit": false,
      "t": 117475.15875000005,
      "d": 80.70849999999336,
      "v": 75
    },
    {
      "midi": 55,
      "hit": false,
      "t": 117477.12725000005,
      "d": 49.21249999999418,
      "v": 73
    },
    {
      "midi": 64,
      "hit": false,
      "t": 117477.12725000005,
      "d": 52.16524999999092,
      "v": 82
    },
    {
      "midi": 59,
      "hit": false,
      "t": 117477.12725000005,
      "d": 57.08649999999034,
      "v": 82
    },
    {
      "midi": 28,
      "hit": false,
      "t": 117624.76475000005,
      "d": 214.56650000000081,
      "v": 82
    },
    {
      "midi": 57,
      "hit": false,
      "t": 117627.71750000004,
      "d": 218.50350000000617,
      "v": 91
    },
    {
      "midi": 66,
      "hit": false,
      "t": 117627.71750000004,
      "d": 223.4247500000056,
      "v": 91
    },
    {
      "midi": 62,
      "hit": false,
      "t": 117629.68600000005,
      "d": 236.22000000000116,
      "v": 91
    },
    {
      "midi": 64,
      "hit": false,
      "t": 117947.59875000005,
      "d": 137.79499999999825,
      "v": 100
    },
    {
      "midi": 40,
      "hit": false,
      "t": 117949.56725000005,
      "d": 86.6140000000014,
      "v": 73
    },
    {
      "midi": 59,
      "hit": false,
      "t": 117949.56725000005,
      "d": 113.18875000000116,
      "v": 91
    },
    {
      "midi": 67,
      "hit": false,
      "t": 117949.56725000005,
      "d": 113.18875000000116,
      "v": 91
    },
    {
      "midi": 28,
      "hit": false,
      "t": 118097.20475000005,
      "d": 140.747749999995,
      "v": 91
    },
    {
      "midi": 64,
      "hit": false,
      "t": 118420.03875000004,
      "d": 51.18100000001141,
      "v": 91
    },
    {
      "midi": 67,
      "hit": false,
      "t": 118420.03875000004,
      "d": 63.976250000006985,
      "v": 91
    },
    {
      "midi": 40,
      "hit": false,
      "t": 118420.03875000004,
      "d": 100.39350000000559,
      "v": 73
    },
    {
      "midi": 59,
      "hit": false,
      "t": 118422.00725000004,
      "d": 47.244000000006054,
      "v": 91
    },
    {
      "midi": 57,
      "hit": false,
      "t": 118567.67625000005,
      "d": 218.50350000000617,
      "v": 91
    },
    {
      "midi": 66,
      "hit": false,
      "t": 118567.67625000005,
      "d": 223.4247500000056,
      "v": 91
    },
    {
      "midi": 62,
      "hit": false,
      "t": 118567.67625000005,
      "d": 236.22000000000116,
      "v": 82
    },
    {
      "midi": 28,
      "hit": false,
      "t": 118569.64475000005,
      "d": 189.96025000000373,
      "v": 82
    },
    {
      "midi": 64,
      "hit": false,
      "t": 118882.63625000005,
      "d": 100.39350000000559,
      "v": 100
    },
    {
      "midi": 55,
      "hit": false,
      "t": 118882.63625000005,
      "d": 118.11000000000058,
      "v": 91
    },
    {
      "midi": 59,
      "hit": false,
      "t": 118882.63625000005,
      "d": 118.11000000000058,
      "v": 100
    },
    {
      "midi": 40,
      "hit": false,
      "t": 118892.47875000005,
      "d": 90.55100000000675,
      "v": 73
    },
    {
      "midi": 28,
      "hit": false,
      "t": 119047.00600000005,
      "d": 167.32249999999476,
      "v": 82
    },
    {
      "midi": 59,
      "hit": false,
      "t": 119364.91875000004,
      "d": 51.18100000001141,
      "v": 91
    },
    {
      "midi": 64,
      "hit": false,
      "t": 119364.91875000004,
      "d": 63.976250000006985,
      "v": 91
    },
    {
      "midi": 40,
      "hit": false,
      "t": 119364.91875000004,
      "d": 98.42500000000291,
      "v": 73
    },
    {
      "midi": 55,
      "hit": false,
      "t": 119366.88725000004,
      "d": 47.244000000006054,
      "v": 91
    },
    {
      "midi": 28,
      "hit": false,
      "t": 119512.55625000004,
      "d": 193.89724999999453,
      "v": 82
    },
    {
      "midi": 54,
      "hit": false,
      "t": 119517.47750000004,
      "d": 216.53499999998894,
      "v": 91
    },
    {
      "midi": 62,
      "hit": false,
      "t": 119517.47750000004,
      "d": 228.34599999999045,
      "v": 82
    },
    {
      "midi": 57,
      "hit": false,
      "t": 119517.47750000004,
      "d": 243.1097499999887,
      "v": 73
    },
    {
      "midi": 52,
      "hit": false,
      "t": 119829.48475000003,
      "d": 125.98399999999674,
      "v": 91
    },
    {
      "midi": 55,
      "hit": false,
      "t": 119829.48475000003,
      "d": 130.90524999999616,
      "v": 100
    },
    {
      "midi": 59,
      "hit": false,
      "t": 119832.43750000003,
      "d": 108.26750000000175,
      "v": 92
    },
    {
      "midi": 40,
      "hit": false,
      "t": 119837.35875000003,
      "d": 100.39350000000559,
      "v": 82
    },
    {
      "midi": 28,
      "hit": false,
      "t": 119989.91750000003,
      "d": 177.1649999999936,
      "v": 82
    },
    {
      "midi": 40,
      "hit": false,
      "t": 120304.87750000002,
      "d": 98.42500000000291,
      "v": 82
    },
    {
      "midi": 55,
      "hit": false,
      "t": 120309.79875000002,
      "d": 51.18100000001141,
      "v": 91
    },
    {
      "midi": 59,
      "hit": false,
      "t": 120309.79875000002,
      "d": 63.976250000006985,
      "v": 91
    },
    {
      "midi": 52,
      "hit": false,
      "t": 120311.76725000002,
      "d": 47.244000000006054,
      "v": 91
    },
    {
      "midi": 50,
      "hit": false,
      "t": 120457.43625000001,
      "d": 218.50350000000617,
      "v": 91
    },
    {
      "midi": 57,
      "hit": false,
      "t": 120457.43625000001,
      "d": 223.4247500000056,
      "v": 91
    },
    {
      "midi": 54,
      "hit": false,
      "t": 120457.43625000001,
      "d": 236.22000000000116,
      "v": 82
    },
    {
      "midi": 28,
      "hit": false,
      "t": 120459.40475000002,
      "d": 187.00750000000698,
      "v": 82
    },
    {
      "midi": 55,
      "hit": false,
      "t": 120772.39625000002,
      "d": 100.39350000000559,
      "v": 100
    },
    {
      "midi": 47,
      "hit": false,
      "t": 120772.39625000002,
      "d": 118.11000000000058,
      "v": 88
    },
    {
      "midi": 52,
      "hit": false,
      "t": 120772.39625000002,
      "d": 118.11000000000058,
      "v": 91
    },
    {
      "midi": 40,
      "hit": false,
      "t": 120777.31750000002,
      "d": 98.42500000000291,
      "v": 82
    },
    {
      "midi": 36,
      "hit": false,
      "t": 120936.76600000002,
      "d": 180.1177500000049,
      "v": 82
    },
    {
      "midi": 48,
      "hit": false,
      "t": 121254.67875000002,
      "d": 80.70849999999336,
      "v": 75
    },
    {
      "midi": 55,
      "hit": false,
      "t": 121256.64725000002,
      "d": 49.21249999999418,
      "v": 73
    },
    {
      "midi": 64,
      "hit": false,
      "t": 121256.64725000002,
      "d": 52.16524999999092,
      "v": 82
    },
    {
      "midi": 60,
      "hit": false,
      "t": 121256.64725000002,
      "d": 57.08649999999034,
      "v": 82
    },
    {
      "midi": 36,
      "hit": false,
      "t": 121404.28475000002,
      "d": 214.56650000000081,
      "v": 82
    },
    {
      "midi": 57,
      "hit": false,
      "t": 121407.23750000002,
      "d": 218.50350000000617,
      "v": 91
    },
    {
      "midi": 66,
      "hit": false,
      "t": 121407.23750000002,
      "d": 223.4247500000056,
      "v": 91
    },
    {
      "midi": 62,
      "hit": false,
      "t": 121409.20600000002,
      "d": 236.22000000000116,
      "v": 91
    },
    {
      "midi": 64,
      "hit": false,
      "t": 121727.11875000002,
      "d": 137.79499999999825,
      "v": 100
    },
    {
      "midi": 48,
      "hit": false,
      "t": 121729.08725000003,
      "d": 86.6140000000014,
      "v": 73
    },
    {
      "midi": 60,
      "hit": false,
      "t": 121729.08725000003,
      "d": 113.18875000000116,
      "v": 91
    },
    {
      "midi": 67,
      "hit": false,
      "t": 121729.08725000003,
      "d": 113.18875000000116,
      "v": 91
    },
    {
      "midi": 36,
      "hit": false,
      "t": 121876.72475000002,
      "d": 140.747749999995,
      "v": 91
    },
    {
      "midi": 64,
      "hit": false,
      "t": 122199.55875000001,
      "d": 51.18100000001141,
      "v": 91
    },
    {
      "midi": 67,
      "hit": false,
      "t": 122199.55875000001,
      "d": 63.976250000006985,
      "v": 91
    },
    {
      "midi": 48,
      "hit": false,
      "t": 122199.55875000001,
      "d": 100.39350000000559,
      "v": 73
    },
    {
      "midi": 60,
      "hit": false,
      "t": 122201.52725000001,
      "d": 47.244000000006054,
      "v": 91
    },
    {
      "midi": 57,
      "hit": false,
      "t": 122347.19625000002,
      "d": 218.50350000000617,
      "v": 91
    },
    {
      "midi": 66,
      "hit": false,
      "t": 122347.19625000002,
      "d": 223.4247500000056,
      "v": 91
    },
    {
      "midi": 62,
      "hit": false,
      "t": 122347.19625000002,
      "d": 236.22000000000116,
      "v": 82
    },
    {
      "midi": 36,
      "hit": false,
      "t": 122349.16475000003,
      "d": 189.96025000000373,
      "v": 82
    },
    {
      "midi": 64,
      "hit": false,
      "t": 122662.15625000003,
      "d": 100.39350000000559,
      "v": 100
    },
    {
      "midi": 55,
      "hit": false,
      "t": 122662.15625000003,
      "d": 118.11000000000058,
      "v": 91
    },
    {
      "midi": 60,
      "hit": false,
      "t": 122662.15625000003,
      "d": 118.11000000000058,
      "v": 100
    },
    {
      "midi": 48,
      "hit": false,
      "t": 122671.99875000003,
      "d": 90.55100000000675,
      "v": 73
    },
    {
      "midi": 36,
      "hit": false,
      "t": 122826.52600000003,
      "d": 167.32249999999476,
      "v": 82
    },
    {
      "midi": 60,
      "hit": false,
      "t": 123144.43875000002,
      "d": 51.18100000001141,
      "v": 91
    },
    {
      "midi": 64,
      "hit": false,
      "t": 123144.43875000002,
      "d": 63.976250000006985,
      "v": 91
    },
    {
      "midi": 48,
      "hit": false,
      "t": 123144.43875000002,
      "d": 98.42500000000291,
      "v": 73
    },
    {
      "midi": 55,
      "hit": false,
      "t": 123146.40725000002,
      "d": 47.244000000006054,
      "v": 91
    },
    {
      "midi": 36,
      "hit": false,
      "t": 123292.07625000001,
      "d": 193.89724999999453,
      "v": 82
    },
    {
      "midi": 57,
      "hit": false,
      "t": 123296.99750000001,
      "d": 216.53499999998894,
      "v": 91
    },
    {
      "midi": 66,
      "hit": false,
      "t": 123296.99750000001,
      "d": 228.34599999999045,
      "v": 82
    },
    {
      "midi": 62,
      "hit": false,
      "t": 123296.99750000001,
      "d": 243.1097499999887,
      "v": 73
    },
    {
      "midi": 60,
      "hit": false,
      "t": 123609.00475000001,
      "d": 125.98399999999674,
      "v": 91
    },
    {
      "midi": 64,
      "hit": false,
      "t": 123609.00475000001,
      "d": 130.90524999999616,
      "v": 100
    },
    {
      "midi": 67,
      "hit": false,
      "t": 123611.9575,
      "d": 108.26750000000175,
      "v": 100
    },
    {
      "midi": 48,
      "hit": false,
      "t": 123616.87875,
      "d": 100.39350000000559,
      "v": 82
    },
    {
      "midi": 36,
      "hit": false,
      "t": 123769.4375,
      "d": 177.1649999999936,
      "v": 82
    },
    {
      "midi": 48,
      "hit": false,
      "t": 124084.39749999999,
      "d": 98.42500000000291,
      "v": 82
    },
    {
      "midi": 64,
      "hit": false,
      "t": 124089.31874999999,
      "d": 51.18100000001141,
      "v": 91
    },
    {
      "midi": 67,
      "hit": false,
      "t": 124089.31874999999,
      "d": 63.976250000006985,
      "v": 91
    },
    {
      "midi": 60,
      "hit": false,
      "t": 124091.28725,
      "d": 47.244000000006054,
      "v": 91
    },
    {
      "midi": 57,
      "hit": false,
      "t": 124236.95624999999,
      "d": 218.50350000000617,
      "v": 91
    },
    {
      "midi": 66,
      "hit": false,
      "t": 124236.95624999999,
      "d": 223.4247500000056,
      "v": 91
    },
    {
      "midi": 62,
      "hit": false,
      "t": 124236.95624999999,
      "d": 236.22000000000116,
      "v": 82
    },
    {
      "midi": 36,
      "hit": false,
      "t": 124238.92474999999,
      "d": 187.00750000000698,
      "v": 82
    },
    {
      "midi": 64,
      "hit": false,
      "t": 124551.91625,
      "d": 100.39350000000559,
      "v": 100
    },
    {
      "midi": 55,
      "hit": false,
      "t": 124551.91625,
      "d": 118.11000000000058,
      "v": 91
    },
    {
      "midi": 60,
      "hit": false,
      "t": 124551.91625,
      "d": 118.11000000000058,
      "v": 100
    },
    {
      "midi": 48,
      "hit": false,
      "t": 124556.8375,
      "d": 98.42500000000291,
      "v": 82
    },
    {
      "midi": 28,
      "hit": false,
      "t": 124716.286,
      "d": 180.1177500000049,
      "v": 82
    },
    {
      "midi": 40,
      "hit": false,
      "t": 125034.19875,
      "d": 80.70849999999336,
      "v": 75
    },
    {
      "midi": 55,
      "hit": false,
      "t": 125036.16725,
      "d": 49.21249999999418,
      "v": 73
    },
    {
      "midi": 64,
      "hit": false,
      "t": 125036.16725,
      "d": 52.16524999999092,
      "v": 82
    },
    {
      "midi": 59,
      "hit": false,
      "t": 125036.16725,
      "d": 57.08649999999034,
      "v": 82
    },
    {
      "midi": 28,
      "hit": false,
      "t": 125183.80475,
      "d": 214.56650000000081,
      "v": 82
    },
    {
      "midi": 57,
      "hit": false,
      "t": 125183.80475,
      "d": 219.48775000000023,
      "v": 91
    },
    {
      "midi": 62,
      "hit": false,
      "t": 125183.80475,
      "d": 236.22000000000116,
      "v": 91
    },
    {
      "midi": 66,
      "hit": false,
      "t": 125186.75749999999,
      "d": 223.4247500000056,
      "v": 91
    },
    {
      "midi": 64,
      "hit": false,
      "t": 125506.63875,
      "d": 137.79499999999825,
      "v": 100
    },
    {
      "midi": 40,
      "hit": false,
      "t": 125508.60725,
      "d": 86.6140000000014,
      "v": 73
    },
    {
      "midi": 59,
      "hit": false,
      "t": 125508.60725,
      "d": 113.18875000000116,
      "v": 91
    },
    {
      "midi": 67,
      "hit": false,
      "t": 125508.60725,
      "d": 113.18875000000116,
      "v": 91
    },
    {
      "midi": 28,
      "hit": false,
      "t": 125656.24475,
      "d": 140.747749999995,
      "v": 91
    },
    {
      "midi": 64,
      "hit": false,
      "t": 125979.07874999999,
      "d": 51.18100000001141,
      "v": 91
    },
    {
      "midi": 67,
      "hit": false,
      "t": 125979.07874999999,
      "d": 63.976250000006985,
      "v": 91
    },
    {
      "midi": 40,
      "hit": false,
      "t": 125979.07874999999,
      "d": 100.39350000000559,
      "v": 73
    },
    {
      "midi": 59,
      "hit": false,
      "t": 125981.04724999999,
      "d": 47.244000000006054,
      "v": 91
    },
    {
      "midi": 57,
      "hit": false,
      "t": 126126.71625,
      "d": 218.50350000000617,
      "v": 91
    },
    {
      "midi": 66,
      "hit": false,
      "t": 126126.71625,
      "d": 223.4247500000056,
      "v": 91
    },
    {
      "midi": 62,
      "hit": false,
      "t": 126126.71625,
      "d": 236.22000000000116,
      "v": 82
    },
    {
      "midi": 28,
      "hit": false,
      "t": 126128.68475,
      "d": 189.96025000000373,
      "v": 82
    },
    {
      "midi": 64,
      "hit": false,
      "t": 126441.67625,
      "d": 100.39350000000559,
      "v": 100
    },
    {
      "midi": 55,
      "hit": false,
      "t": 126441.67625,
      "d": 118.11000000000058,
      "v": 91
    },
    {
      "midi": 59,
      "hit": false,
      "t": 126441.67625,
      "d": 118.11000000000058,
      "v": 100
    },
    {
      "midi": 40,
      "hit": false,
      "t": 126451.51875,
      "d": 90.55100000000675,
      "v": 73
    },
    {
      "midi": 28,
      "hit": false,
      "t": 126606.046,
      "d": 167.32249999999476,
      "v": 82
    },
    {
      "midi": 59,
      "hit": false,
      "t": 126923.95874999999,
      "d": 51.18100000001141,
      "v": 91
    },
    {
      "midi": 64,
      "hit": false,
      "t": 126923.95874999999,
      "d": 63.976250000006985,
      "v": 91
    },
    {
      "midi": 40,
      "hit": false,
      "t": 126923.95874999999,
      "d": 98.42500000000291,
      "v": 73
    },
    {
      "midi": 55,
      "hit": false,
      "t": 126925.92725,
      "d": 47.244000000006054,
      "v": 91
    },
    {
      "midi": 28,
      "hit": false,
      "t": 127071.59624999999,
      "d": 193.89724999999453,
      "v": 82
    },
    {
      "midi": 54,
      "hit": false,
      "t": 127076.51749999999,
      "d": 216.53499999998894,
      "v": 91
    },
    {
      "midi": 62,
      "hit": false,
      "t": 127076.51749999999,
      "d": 228.34599999999045,
      "v": 82
    },
    {
      "midi": 57,
      "hit": false,
      "t": 127076.51749999999,
      "d": 243.1097499999887,
      "v": 73
    },
    {
      "midi": 52,
      "hit": false,
      "t": 127388.52474999998,
      "d": 125.98399999999674,
      "v": 91
    },
    {
      "midi": 55,
      "hit": false,
      "t": 127388.52474999998,
      "d": 130.90524999999616,
      "v": 100
    },
    {
      "midi": 59,
      "hit": false,
      "t": 127391.47749999998,
      "d": 108.26750000000175,
      "v": 92
    },
    {
      "midi": 40,
      "hit": false,
      "t": 127396.39874999998,
      "d": 100.39350000000559,
      "v": 82
    },
    {
      "midi": 28,
      "hit": false,
      "t": 127548.95749999997,
      "d": 177.1649999999936,
      "v": 82
    },
    {
      "midi": 40,
      "hit": false,
      "t": 127863.91749999997,
      "d": 98.42500000000291,
      "v": 82
    },
    {
      "midi": 55,
      "hit": false,
      "t": 127868.83874999997,
      "d": 51.18100000001141,
      "v": 91
    },
    {
      "midi": 59,
      "hit": false,
      "t": 127868.83874999997,
      "d": 63.976250000006985,
      "v": 91
    },
    {
      "midi": 52,
      "hit": false,
      "t": 127870.80724999997,
      "d": 47.244000000006054,
      "v": 91
    },
    {
      "midi": 50,
      "hit": false,
      "t": 128016.47624999996,
      "d": 218.50350000000617,
      "v": 91
    },
    {
      "midi": 57,
      "hit": false,
      "t": 128016.47624999996,
      "d": 223.4247500000056,
      "v": 91
    },
    {
      "midi": 54,
      "hit": false,
      "t": 128016.47624999996,
      "d": 236.22000000000116,
      "v": 82
    },
    {
      "midi": 28,
      "hit": false,
      "t": 128018.44474999997,
      "d": 187.00750000000698,
      "v": 82
    },
    {
      "midi": 55,
      "hit": false,
      "t": 128331.43624999997,
      "d": 100.39350000000559,
      "v": 100
    },
    {
      "midi": 47,
      "hit": false,
      "t": 128331.43624999997,
      "d": 118.11000000000058,
      "v": 88
    },
    {
      "midi": 52,
      "hit": false,
      "t": 128331.43624999997,
      "d": 118.11000000000058,
      "v": 91
    },
    {
      "midi": 40,
      "hit": false,
      "t": 128336.35749999997,
      "d": 98.42500000000291,
      "v": 82
    },
    {
      "midi": 36,
      "hit": false,
      "t": 128495.80599999997,
      "d": 180.1177500000049,
      "v": 82
    },
    {
      "midi": 48,
      "hit": false,
      "t": 128813.71874999997,
      "d": 80.70849999999336,
      "v": 75
    },
    {
      "midi": 55,
      "hit": false,
      "t": 128815.68724999997,
      "d": 49.21249999999418,
      "v": 73
    },
    {
      "midi": 64,
      "hit": false,
      "t": 128815.68724999997,
      "d": 52.16524999999092,
      "v": 82
    },
    {
      "midi": 60,
      "hit": false,
      "t": 128815.68724999997,
      "d": 57.08649999999034,
      "v": 82
    },
    {
      "midi": 36,
      "hit": false,
      "t": 128963.32474999997,
      "d": 214.56650000000081,
      "v": 82
    },
    {
      "midi": 57,
      "hit": false,
      "t": 128966.27749999997,
      "d": 218.50350000000617,
      "v": 91
    },
    {
      "midi": 66,
      "hit": false,
      "t": 128966.27749999997,
      "d": 223.4247500000056,
      "v": 91
    },
    {
      "midi": 62,
      "hit": false,
      "t": 128968.24599999997,
      "d": 236.22000000000116,
      "v": 91
    },
    {
      "midi": 64,
      "hit": false,
      "t": 129286.15874999997,
      "d": 137.79499999999825,
      "v": 100
    },
    {
      "midi": 48,
      "hit": false,
      "t": 129288.12724999998,
      "d": 86.6140000000014,
      "v": 73
    },
    {
      "midi": 60,
      "hit": false,
      "t": 129288.12724999998,
      "d": 113.18875000000116,
      "v": 91
    },
    {
      "midi": 67,
      "hit": false,
      "t": 129288.12724999998,
      "d": 113.18875000000116,
      "v": 91
    },
    {
      "midi": 36,
      "hit": false,
      "t": 129435.76474999997,
      "d": 140.747749999995,
      "v": 91
    },
    {
      "midi": 64,
      "hit": false,
      "t": 129758.59874999996,
      "d": 51.18100000001141,
      "v": 91
    },
    {
      "midi": 67,
      "hit": false,
      "t": 129758.59874999996,
      "d": 63.976250000006985,
      "v": 91
    },
    {
      "midi": 48,
      "hit": false,
      "t": 129758.59874999996,
      "d": 100.39350000000559,
      "v": 73
    },
    {
      "midi": 60,
      "hit": false,
      "t": 129760.56724999996,
      "d": 47.244000000006054,
      "v": 91
    },
    {
      "midi": 57,
      "hit": false,
      "t": 129906.23624999997,
      "d": 218.50350000000617,
      "v": 91
    },
    {
      "midi": 66,
      "hit": false,
      "t": 129906.23624999997,
      "d": 223.4247500000056,
      "v": 91
    },
    {
      "midi": 62,
      "hit": false,
      "t": 129906.23624999997,
      "d": 236.22000000000116,
      "v": 82
    },
    {
      "midi": 36,
      "hit": false,
      "t": 129908.20474999998,
      "d": 189.96025000000373,
      "v": 82
    },
    {
      "midi": 64,
      "hit": false,
      "t": 130221.19624999998,
      "d": 100.39350000000559,
      "v": 100
    },
    {
      "midi": 55,
      "hit": false,
      "t": 130221.19624999998,
      "d": 118.11000000000058,
      "v": 91
    },
    {
      "midi": 60,
      "hit": false,
      "t": 130221.19624999998,
      "d": 118.11000000000058,
      "v": 100
    },
    {
      "midi": 48,
      "hit": false,
      "t": 130231.03874999998,
      "d": 90.55100000000675,
      "v": 73
    },
    {
      "midi": 36,
      "hit": false,
      "t": 130385.56599999998,
      "d": 167.32249999999476,
      "v": 82
    },
    {
      "midi": 60,
      "hit": false,
      "t": 130703.47874999997,
      "d": 51.18100000001141,
      "v": 91
    },
    {
      "midi": 64,
      "hit": false,
      "t": 130703.47874999997,
      "d": 63.976250000006985,
      "v": 91
    },
    {
      "midi": 48,
      "hit": false,
      "t": 130703.47874999997,
      "d": 98.42500000000291,
      "v": 73
    },
    {
      "midi": 55,
      "hit": false,
      "t": 130705.44724999997,
      "d": 47.244000000006054,
      "v": 91
    },
    {
      "midi": 36,
      "hit": false,
      "t": 130851.11624999996,
      "d": 193.89724999999453,
      "v": 82
    },
    {
      "midi": 57,
      "hit": false,
      "t": 130856.03749999996,
      "d": 216.53499999998894,
      "v": 91
    },
    {
      "midi": 66,
      "hit": false,
      "t": 130856.03749999996,
      "d": 228.3459999999759,
      "v": 82
    },
    {
      "midi": 62,
      "hit": false,
      "t": 130856.03749999996,
      "d": 243.1097499999887,
      "v": 73
    },
    {
      "midi": 60,
      "hit": false,
      "t": 131168.04474999994,
      "d": 125.98400000002584,
      "v": 91
    },
    {
      "midi": 64,
      "hit": false,
      "t": 131168.04474999994,
      "d": 130.9052500000398,
      "v": 100
    },
    {
      "midi": 67,
      "hit": false,
      "t": 131170.99749999994,
      "d": 108.2675000000163,
      "v": 100
    },
    {
      "midi": 48,
      "hit": false,
      "t": 131175.91874999995,
      "d": 100.39350000000559,
      "v": 82
    },
    {
      "midi": 36,
      "hit": false,
      "t": 131328.47749999998,
      "d": 177.16500000000815,
      "v": 82
    },
    {
      "midi": 48,
      "hit": false,
      "t": 131643.4375,
      "d": 98.42499999998836,
      "v": 82
    },
    {
      "midi": 64,
      "hit": false,
      "t": 131648.35875,
      "d": 51.180999999982305,
      "v": 91
    },
    {
      "midi": 67,
      "hit": false,
      "t": 131648.35875,
      "d": 63.97624999997788,
      "v": 91
    },
    {
      "midi": 60,
      "hit": false,
      "t": 131650.32725,
      "d": 47.244000000006054,
      "v": 91
    },
    {
      "midi": 57,
      "hit": false,
      "t": 131795.99625,
      "d": 218.50349999999162,
      "v": 91
    },
    {
      "midi": 66,
      "hit": false,
      "t": 131795.99625,
      "d": 223.4247500000056,
      "v": 91
    },
    {
      "midi": 62,
      "hit": false,
      "t": 131795.99625,
      "d": 236.22000000000116,
      "v": 82
    },
    {
      "midi": 36,
      "hit": false,
      "t": 131797.96474999998,
      "d": 187.00750000000698,
      "v": 82
    },
    {
      "midi": 64,
      "hit": false,
      "t": 132110.95625,
      "d": 100.39350000000559,
      "v": 100
    },
    {
      "midi": 55,
      "hit": false,
      "t": 132110.95625,
      "d": 118.11000000001513,
      "v": 91
    },
    {
      "midi": 60,
      "hit": false,
      "t": 132110.95625,
      "d": 118.11000000001513,
      "v": 100
    },
    {
      "midi": 48,
      "hit": false,
      "t": 132115.8775,
      "d": 98.42499999998836,
      "v": 82
    },
    {
      "midi": 28,
      "hit": false,
      "t": 132275.326,
      "d": 180.1177500000049,
      "v": 82
    },
    {
      "midi": 40,
      "hit": false,
      "t": 132593.23875000002,
      "d": 80.70849999997881,
      "v": 75
    },
    {
      "midi": 55,
      "hit": false,
      "t": 132595.20725,
      "d": 49.21249999999418,
      "v": 73
    },
    {
      "midi": 64,
      "hit": false,
      "t": 132595.20725,
      "d": 52.16524999999092,
      "v": 82
    },
    {
      "midi": 59,
      "hit": false,
      "t": 132595.20725,
      "d": 57.08650000000489,
      "v": 82
    },
    {
      "midi": 28,
      "hit": false,
      "t": 132742.84475,
      "d": 214.56649999998626,
      "v": 82
    },
    {
      "midi": 57,
      "hit": false,
      "t": 132742.84475,
      "d": 219.48775000000023,
      "v": 91
    },
    {
      "midi": 62,
      "hit": false,
      "t": 132742.84475,
      "d": 236.22000000000116,
      "v": 91
    },
    {
      "midi": 66,
      "hit": false,
      "t": 132745.7975,
      "d": 223.4247500000056,
      "v": 91
    },
    {
      "midi": 64,
      "hit": false,
      "t": 133065.67875,
      "d": 137.7949999999837,
      "v": 100
    },
    {
      "midi": 40,
      "hit": false,
      "t": 133067.64724999998,
      "d": 86.6140000000014,
      "v": 73
    },
    {
      "midi": 59,
      "hit": false,
      "t": 133067.64724999998,
      "d": 113.18875000000116,
      "v": 91
    },
    {
      "midi": 67,
      "hit": false,
      "t": 133067.64724999998,
      "d": 113.18875000000116,
      "v": 91
    },
    {
      "midi": 28,
      "hit": false,
      "t": 133215.28474999996,
      "d": 140.74775000000955,
      "v": 91
    },
    {
      "midi": 64,
      "hit": false,
      "t": 133538.11874999997,
      "d": 51.180999999982305,
      "v": 91
    },
    {
      "midi": 67,
      "hit": false,
      "t": 133538.11874999997,
      "d": 63.97624999997788,
      "v": 91
    },
    {
      "midi": 40,
      "hit": false,
      "t": 133538.11874999997,
      "d": 100.39349999997648,
      "v": 73
    },
    {
      "midi": 59,
      "hit": false,
      "t": 133540.08724999995,
      "d": 47.244000000006054,
      "v": 91
    },
    {
      "midi": 57,
      "hit": false,
      "t": 133685.75624999995,
      "d": 218.50349999999162,
      "v": 91
    },
    {
      "midi": 66,
      "hit": false,
      "t": 133685.75624999995,
      "d": 223.4247500000056,
      "v": 91
    },
    {
      "midi": 62,
      "hit": false,
      "t": 133685.75624999995,
      "d": 236.22000000000116,
      "v": 82
    },
    {
      "midi": 28,
      "hit": false,
      "t": 133687.72474999994,
      "d": 189.96025000000373,
      "v": 82
    },
    {
      "midi": 64,
      "hit": false,
      "t": 134000.71624999994,
      "d": 100.39350000000559,
      "v": 100
    },
    {
      "midi": 55,
      "hit": false,
      "t": 134000.71624999994,
      "d": 118.11000000001513,
      "v": 91
    },
    {
      "midi": 59,
      "hit": false,
      "t": 134000.71624999994,
      "d": 118.11000000001513,
      "v": 100
    },
    {
      "midi": 40,
      "hit": false,
      "t": 134010.55874999994,
      "d": 90.55100000000675,
      "v": 73
    },
    {
      "midi": 28,
      "hit": false,
      "t": 134165.08599999995,
      "d": 167.3225000000093,
      "v": 82
    },
    {
      "midi": 59,
      "hit": false,
      "t": 134482.99874999997,
      "d": 51.180999999982305,
      "v": 91
    },
    {
      "midi": 64,
      "hit": false,
      "t": 134482.99874999997,
      "d": 63.97624999997788,
      "v": 91
    },
    {
      "midi": 40,
      "hit": false,
      "t": 134482.99874999997,
      "d": 98.42499999998836,
      "v": 73
    },
    {
      "midi": 55,
      "hit": false,
      "t": 134484.96724999996,
      "d": 47.244000000006054,
      "v": 91
    },
    {
      "midi": 28,
      "hit": false,
      "t": 134630.63624999995,
      "d": 193.89725000000908,
      "v": 82
    },
    {
      "midi": 54,
      "hit": false,
      "t": 134635.55749999997,
      "d": 216.5350000000035,
      "v": 91
    },
    {
      "midi": 62,
      "hit": false,
      "t": 134635.55749999997,
      "d": 228.34599999999045,
      "v": 82
    },
    {
      "midi": 57,
      "hit": false,
      "t": 134635.55749999997,
      "d": 243.10975000000326,
      "v": 73
    },
    {
      "midi": 52,
      "hit": false,
      "t": 134947.56474999996,
      "d": 125.98400000002584,
      "v": 91
    },
    {
      "midi": 55,
      "hit": false,
      "t": 134947.56474999996,
      "d": 130.9052500000398,
      "v": 100
    },
    {
      "midi": 59,
      "hit": false,
      "t": 134950.51749999996,
      "d": 108.2675000000163,
      "v": 92
    },
    {
      "midi": 40,
      "hit": false,
      "t": 134955.43874999997,
      "d": 100.39350000000559,
      "v": 82
    },
    {
      "midi": 28,
      "hit": false,
      "t": 135107.9975,
      "d": 177.16500000000815,
      "v": 82
    },
    {
      "midi": 40,
      "hit": false,
      "t": 135422.95750000002,
      "d": 98.42499999998836,
      "v": 82
    },
    {
      "midi": 55,
      "hit": false,
      "t": 135427.87875000003,
      "d": 51.180999999982305,
      "v": 91
    },
    {
      "midi": 59,
      "hit": false,
      "t": 135427.87875000003,
      "d": 63.97624999997788,
      "v": 91
    },
    {
      "midi": 52,
      "hit": false,
      "t": 135429.84725000002,
      "d": 47.244000000006054,
      "v": 91
    },
    {
      "midi": 50,
      "hit": false,
      "t": 135575.51625000002,
      "d": 218.50349999999162,
      "v": 91
    },
    {
      "midi": 57,
      "hit": false,
      "t": 135575.51625000002,
      "d": 223.4247500000056,
      "v": 91
    },
    {
      "midi": 54,
      "hit": false,
      "t": 135575.51625000002,
      "d": 236.22000000000116,
      "v": 82
    },
    {
      "midi": 28,
      "hit": false,
      "t": 135577.48475,
      "d": 187.00750000000698,
      "v": 82
    },
    {
      "midi": 55,
      "hit": false,
      "t": 135890.47625,
      "d": 100.39350000000559,
      "v": 100
    },
    {
      "midi": 47,
      "hit": false,
      "t": 135890.47625,
      "d": 118.11000000001513,
      "v": 88
    },
    {
      "midi": 52,
      "hit": false,
      "t": 135890.47625,
      "d": 118.11000000001513,
      "v": 91
    },
    {
      "midi": 40,
      "hit": false,
      "t": 135895.39750000002,
      "d": 98.42499999998836,
      "v": 82
    },
    {
      "midi": 36,
      "hit": false,
      "t": 136043.03500000003,
      "d": 1855.3112499999988,
      "v": 73
    },
    {
      "midi": 48,
      "hit": false,
      "t": 136045.00350000002,
      "d": 1855.3112499999988,
      "v": 89
    },
    {
      "midi": 55,
      "hit": false,
      "t": 136047.95625000002,
      "d": 1837.5947499999893,
      "v": 98
    },
    {
      "midi": 64,
      "hit": false,
      "t": 136047.95625000002,
      "d": 1842.5160000000033,
      "v": 103
    },
    {
      "midi": 60,
      "hit": false,
      "t": 136049.92475,
      "d": 1863.1852500000095,
      "v": 109
    },
    {
      "midi": 67,
      "hit": false,
      "t": 137942.6375,
      "d": 374.01499999998487,
      "v": 100
    },
    {
      "midi": 57,
      "hit": false,
      "t": 137942.6375,
      "d": 378.93624999999884,
      "v": 100
    },
    {
      "midi": 60,
      "hit": false,
      "t": 137942.6375,
      "d": 378.93624999999884,
      "v": 100
    },
    {
      "midi": 64,
      "hit": false,
      "t": 137942.6375,
      "d": 380.90474999998696,
      "v": 109
    },
    {
      "midi": 45,
      "hit": false,
      "t": 137947.55875000003,
      "d": 344.48749999998836,
      "v": 82
    },
    {
      "midi": 33,
      "hit": false,
      "t": 137947.55875000003,
      "d": 346.4559999999765,
      "v": 64
    },
    {
      "midi": 64,
      "hit": false,
      "t": 138415.07749999998,
      "d": 383.8574999999837,
      "v": 109
    },
    {
      "midi": 57,
      "hit": false,
      "t": 138415.07749999998,
      "d": 388.7787499999977,
      "v": 100
    },
    {
      "midi": 60,
      "hit": false,
      "t": 138415.07749999998,
      "d": 388.7787499999977,
      "v": 100
    },
    {
      "midi": 33,
      "hit": false,
      "t": 138417.04599999997,
      "d": 359.25125000000116,
      "v": 73
    },
    {
      "midi": 45,
      "hit": false,
      "t": 138417.04599999997,
      "d": 372.04649999999674,
      "v": 82
    },
    {
      "midi": 67,
      "hit": false,
      "t": 138417.04599999997,
      "d": 372.04649999999674,
      "v": 100
    },
    {
      "midi": 57,
      "hit": false,
      "t": 138887.5175,
      "d": 385.8259999999718,
      "v": 91
    },
    {
      "midi": 59,
      "hit": false,
      "t": 138887.5175,
      "d": 385.8259999999718,
      "v": 91
    },
    {
      "midi": 63,
      "hit": false,
      "t": 138887.5175,
      "d": 385.8259999999718,
      "v": 100
    },
    {
      "midi": 66,
      "hit": false,
      "t": 138889.48599999998,
      "d": 362.2039999999979,
      "v": 109
    },
    {
      "midi": 35,
      "hit": false,
      "t": 138892.43874999997,
      "d": 351.37724999999045,
      "v": 73
    },
    {
      "midi": 47,
      "hit": false,
      "t": 138894.40724999996,
      "d": 349.4087500000023,
      "v": 82
    },
    {
      "midi": 35,
      "hit": false,
      "t": 139359.95749999996,
      "d": 356.2984999999753,
      "v": 76
    },
    {
      "midi": 47,
      "hit": false,
      "t": 139361.92599999995,
      "d": 327.7552499999874,
      "v": 81
    },
    {
      "midi": 57,
      "hit": false,
      "t": 139361.92599999995,
      "d": 421.2589999999909,
      "v": 91
    },
    {
      "midi": 59,
      "hit": false,
      "t": 139361.92599999995,
      "d": 421.2589999999909,
      "v": 91
    },
    {
      "midi": 63,
      "hit": false,
      "t": 139361.92599999995,
      "d": 428.148749999993,
      "v": 109
    },
    {
      "midi": 66,
      "hit": false,
      "t": 139364.87874999995,
      "d": 423.22750000000815,
      "v": 109
    },
    {
      "midi": 64,
      "hit": false,
      "t": 139832.39749999993,
      "d": 231.2987499999872,
      "v": 91
    },
    {
      "midi": 55,
      "hit": false,
      "t": 139832.39749999993,
      "d": 236.22000000000116,
      "v": 82
    },
    {
      "midi": 60,
      "hit": false,
      "t": 139832.39749999993,
      "d": 243.10975000000326,
      "v": 91
    },
    {
      "midi": 36,
      "hit": false,
      "t": 139834.36599999992,
      "d": 180.1177500000049,
      "v": 82
    },
    {
      "midi": 48,
      "hit": false,
      "t": 140152.27874999994,
      "d": 80.70849999997881,
      "v": 75
    },
    {
      "midi": 55,
      "hit": false,
      "t": 140154.24724999993,
      "d": 49.21249999999418,
      "v": 73
    },
    {
      "midi": 64,
      "hit": false,
      "t": 140154.24724999993,
      "d": 52.16524999999092,
      "v": 82
    },
    {
      "midi": 60,
      "hit": false,
      "t": 140154.24724999993,
      "d": 57.08650000000489,
      "v": 82
    },
    {
      "midi": 36,
      "hit": false,
      "t": 140301.8847499999,
      "d": 214.56649999998626,
      "v": 82
    },
    {
      "midi": 57,
      "hit": false,
      "t": 140304.8374999999,
      "d": 218.50349999999162,
      "v": 91
    },
    {
      "midi": 66,
      "hit": false,
      "t": 140304.8374999999,
      "d": 223.4247500000056,
      "v": 91
    },
    {
      "midi": 62,
      "hit": false,
      "t": 140306.8059999999,
      "d": 236.22000000003027,
      "v": 91
    },
    {
      "midi": 64,
      "hit": false,
      "t": 140621.76599999992,
      "d": 137.7949999999837,
      "v": 100
    },
    {
      "midi": 60,
      "hit": false,
      "t": 140624.7187499999,
      "d": 113.18875000000116,
      "v": 91
    },
    {
      "midi": 67,
      "hit": false,
      "t": 140624.7187499999,
      "d": 113.18875000000116,
      "v": 91
    },
    {
      "midi": 48,
      "hit": false,
      "t": 140626.6872499999,
      "d": 86.6140000000014,
      "v": 73
    },
    {
      "midi": 36,
      "hit": false,
      "t": 140774.3247499999,
      "d": 140.74775000000955,
      "v": 91
    },
    {
      "midi": 64,
      "hit": false,
      "t": 141097.15874999992,
      "d": 51.180999999982305,
      "v": 91
    },
    {
      "midi": 67,
      "hit": false,
      "t": 141097.15874999992,
      "d": 63.97624999997788,
      "v": 91
    },
    {
      "midi": 48,
      "hit": false,
      "t": 141097.15874999992,
      "d": 100.39349999997648,
      "v": 73
    },
    {
      "midi": 60,
      "hit": false,
      "t": 141099.1272499999,
      "d": 47.244000000006054,
      "v": 91
    },
    {
      "midi": 57,
      "hit": false,
      "t": 141244.7962499999,
      "d": 218.50349999999162,
      "v": 91
    },
    {
      "midi": 66,
      "hit": false,
      "t": 141244.7962499999,
      "d": 223.4247500000056,
      "v": 91
    },
    {
      "midi": 62,
      "hit": false,
      "t": 141244.7962499999,
      "d": 236.22000000000116,
      "v": 82
    },
    {
      "midi": 36,
      "hit": false,
      "t": 141246.7647499999,
      "d": 189.96025000000373,
      "v": 82
    },
    {
      "midi": 64,
      "hit": false,
      "t": 141559.7562499999,
      "d": 100.39350000000559,
      "v": 100
    },
    {
      "midi": 55,
      "hit": false,
      "t": 141559.7562499999,
      "d": 118.11000000001513,
      "v": 91
    },
    {
      "midi": 60,
      "hit": false,
      "t": 141559.7562499999,
      "d": 118.11000000001513,
      "v": 100
    },
    {
      "midi": 48,
      "hit": false,
      "t": 141569.5987499999,
      "d": 90.55100000000675,
      "v": 73
    },
    {
      "midi": 36,
      "hit": false,
      "t": 141724.1259999999,
      "d": 167.3225000000093,
      "v": 82
    },
    {
      "midi": 60,
      "hit": false,
      "t": 142042.03874999992,
      "d": 51.180999999982305,
      "v": 91
    },
    {
      "midi": 64,
      "hit": false,
      "t": 142042.03874999992,
      "d": 63.97624999997788,
      "v": 91
    },
    {
      "midi": 48,
      "hit": false,
      "t": 142042.03874999992,
      "d": 98.42499999998836,
      "v": 73
    },
    {
      "midi": 55,
      "hit": false,
      "t": 142044.0072499999,
      "d": 47.244000000006054,
      "v": 91
    },
    {
      "midi": 36,
      "hit": false,
      "t": 142189.6762499999,
      "d": 193.89725000000908,
      "v": 82
    },
    {
      "midi": 57,
      "hit": false,
      "t": 142194.59749999992,
      "d": 216.5350000000035,
      "v": 91
    },
    {
      "midi": 66,
      "hit": false,
      "t": 142194.59749999992,
      "d": 228.34599999999045,
      "v": 82
    },
    {
      "midi": 62,
      "hit": false,
      "t": 142194.59749999992,
      "d": 243.10975000000326,
      "v": 73
    },
    {
      "midi": 60,
      "hit": false,
      "t": 142506.6047499999,
      "d": 125.98400000002584,
      "v": 91
    },
    {
      "midi": 64,
      "hit": false,
      "t": 142506.6047499999,
      "d": 130.9052500000398,
      "v": 100
    },
    {
      "midi": 67,
      "hit": false,
      "t": 142509.5574999999,
      "d": 108.2675000000163,
      "v": 100
    },
    {
      "midi": 48,
      "hit": false,
      "t": 142514.47874999992,
      "d": 100.39350000000559,
      "v": 82
    },
    {
      "midi": 36,
      "hit": false,
      "t": 142667.03749999995,
      "d": 177.16500000000815,
      "v": 82
    },
    {
      "midi": 48,
      "hit": false,
      "t": 142981.99749999997,
      "d": 98.42499999998836,
      "v": 82
    },
    {
      "midi": 64,
      "hit": false,
      "t": 142986.91874999998,
      "d": 51.180999999982305,
      "v": 91
    },
    {
      "midi": 67,
      "hit": false,
      "t": 142986.91874999998,
      "d": 63.97624999997788,
      "v": 91
    },
    {
      "midi": 60,
      "hit": false,
      "t": 142988.88724999997,
      "d": 47.244000000006054,
      "v": 91
    },
    {
      "midi": 57,
      "hit": false,
      "t": 143134.55624999997,
      "d": 218.50349999999162,
      "v": 91
    },
    {
      "midi": 66,
      "hit": false,
      "t": 143134.55624999997,
      "d": 223.4247500000056,
      "v": 91
    },
    {
      "midi": 62,
      "hit": false,
      "t": 143134.55624999997,
      "d": 236.22000000000116,
      "v": 82
    },
    {
      "midi": 36,
      "hit": false,
      "t": 143136.52474999995,
      "d": 187.00750000000698,
      "v": 82
    },
    {
      "midi": 64,
      "hit": false,
      "t": 143449.51624999996,
      "d": 100.39350000000559,
      "v": 100
    },
    {
      "midi": 55,
      "hit": false,
      "t": 143449.51624999996,
      "d": 118.11000000001513,
      "v": 91
    },
    {
      "midi": 60,
      "hit": false,
      "t": 143449.51624999996,
      "d": 118.11000000001513,
      "v": 100
    },
    {
      "midi": 48,
      "hit": false,
      "t": 143454.43749999997,
      "d": 98.42499999998836,
      "v": 82
    },
    {
      "midi": 28,
      "hit": false,
      "t": 143613.88599999997,
      "d": 180.1177500000049,
      "v": 82
    },
    {
      "midi": 40,
      "hit": false,
      "t": 143931.79875,
      "d": 80.70849999997881,
      "v": 75
    },
    {
      "midi": 55,
      "hit": false,
      "t": 143933.76724999998,
      "d": 49.21249999999418,
      "v": 73
    },
    {
      "midi": 64,
      "hit": false,
      "t": 143933.76724999998,
      "d": 52.16524999999092,
      "v": 82
    },
    {
      "midi": 59,
      "hit": false,
      "t": 143933.76724999998,
      "d": 57.08650000000489,
      "v": 82
    },
    {
      "midi": 28,
      "hit": false,
      "t": 144081.40474999996,
      "d": 214.56649999998626,
      "v": 82
    },
    {
      "midi": 57,
      "hit": false,
      "t": 144084.35749999995,
      "d": 218.50349999999162,
      "v": 91
    },
    {
      "midi": 66,
      "hit": false,
      "t": 144084.35749999995,
      "d": 223.4247500000056,
      "v": 91
    },
    {
      "midi": 62,
      "hit": false,
      "t": 144086.32599999994,
      "d": 236.22000000003027,
      "v": 91
    },
    {
      "midi": 64,
      "hit": false,
      "t": 144404.23874999996,
      "d": 137.7949999999837,
      "v": 100
    },
    {
      "midi": 40,
      "hit": false,
      "t": 144406.20724999995,
      "d": 86.6140000000014,
      "v": 73
    },
    {
      "midi": 59,
      "hit": false,
      "t": 144406.20724999995,
      "d": 113.18875000000116,
      "v": 91
    },
    {
      "midi": 67,
      "hit": false,
      "t": 144406.20724999995,
      "d": 113.18875000000116,
      "v": 91
    },
    {
      "midi": 28,
      "hit": false,
      "t": 144553.84474999993,
      "d": 140.74775000000955,
      "v": 91
    },
    {
      "midi": 64,
      "hit": false,
      "t": 144876.67874999993,
      "d": 51.180999999982305,
      "v": 91
    },
    {
      "midi": 67,
      "hit": false,
      "t": 144876.67874999993,
      "d": 63.97624999997788,
      "v": 91
    },
    {
      "midi": 40,
      "hit": false,
      "t": 144876.67874999993,
      "d": 100.39349999997648,
      "v": 73
    },
    {
      "midi": 59,
      "hit": false,
      "t": 144878.64724999992,
      "d": 47.244000000006054,
      "v": 91
    },
    {
      "midi": 57,
      "hit": false,
      "t": 145024.31624999992,
      "d": 218.50349999999162,
      "v": 91
    },
    {
      "midi": 66,
      "hit": false,
      "t": 145024.31624999992,
      "d": 223.4247500000056,
      "v": 91
    },
    {
      "midi": 62,
      "hit": false,
      "t": 145024.31624999992,
      "d": 236.22000000000116,
      "v": 82
    },
    {
      "midi": 28,
      "hit": false,
      "t": 145026.2847499999,
      "d": 189.96025000000373,
      "v": 82
    },
    {
      "midi": 64,
      "hit": false,
      "t": 145339.2762499999,
      "d": 100.39350000000559,
      "v": 100
    },
    {
      "midi": 55,
      "hit": false,
      "t": 145339.2762499999,
      "d": 118.11000000001513,
      "v": 91
    },
    {
      "midi": 59,
      "hit": false,
      "t": 145339.2762499999,
      "d": 118.11000000001513,
      "v": 100
    },
    {
      "midi": 40,
      "hit": false,
      "t": 145349.1187499999,
      "d": 90.55100000000675,
      "v": 73
    },
    {
      "midi": 28,
      "hit": false,
      "t": 145503.64599999992,
      "d": 167.3225000000093,
      "v": 82
    },
    {
      "midi": 59,
      "hit": false,
      "t": 145821.55874999994,
      "d": 51.180999999982305,
      "v": 91
    },
    {
      "midi": 64,
      "hit": false,
      "t": 145821.55874999994,
      "d": 63.97624999997788,
      "v": 91
    },
    {
      "midi": 40,
      "hit": false,
      "t": 145821.55874999994,
      "d": 98.42499999998836,
      "v": 73
    },
    {
      "midi": 55,
      "hit": false,
      "t": 145823.52724999993,
      "d": 47.244000000006054,
      "v": 91
    },
    {
      "midi": 28,
      "hit": false,
      "t": 145969.19624999992,
      "d": 193.89725000000908,
      "v": 82
    },
    {
      "midi": 54,
      "hit": false,
      "t": 145974.11749999993,
      "d": 216.5350000000035,
      "v": 91
    },
    {
      "midi": 62,
      "hit": false,
      "t": 145974.11749999993,
      "d": 228.34599999999045,
      "v": 82
    },
    {
      "midi": 57,
      "hit": false,
      "t": 145974.11749999993,
      "d": 243.10975000000326,
      "v": 73
    },
    {
      "midi": 52,
      "hit": false,
      "t": 146286.12474999993,
      "d": 125.98400000002584,
      "v": 91
    },
    {
      "midi": 55,
      "hit": false,
      "t": 146286.12474999993,
      "d": 130.9052500000398,
      "v": 100
    },
    {
      "midi": 59,
      "hit": false,
      "t": 146289.07749999993,
      "d": 108.2675000000163,
      "v": 92
    },
    {
      "midi": 40,
      "hit": false,
      "t": 146293.99874999994,
      "d": 100.39350000000559,
      "v": 82
    },
    {
      "midi": 28,
      "hit": false,
      "t": 146446.55749999997,
      "d": 177.16500000000815,
      "v": 82
    },
    {
      "midi": 40,
      "hit": false,
      "t": 146761.5175,
      "d": 98.42499999998836,
      "v": 82
    },
    {
      "midi": 55,
      "hit": false,
      "t": 146766.43875,
      "d": 51.180999999982305,
      "v": 91
    },
    {
      "midi": 59,
      "hit": false,
      "t": 146766.43875,
      "d": 63.97624999997788,
      "v": 91
    },
    {
      "midi": 52,
      "hit": false,
      "t": 146768.40725,
      "d": 47.244000000006054,
      "v": 91
    },
    {
      "midi": 50,
      "hit": false,
      "t": 146914.07624999998,
      "d": 218.50349999999162,
      "v": 91
    },
    {
      "midi": 57,
      "hit": false,
      "t": 146914.07624999998,
      "d": 223.4247500000056,
      "v": 91
    },
    {
      "midi": 54,
      "hit": false,
      "t": 146914.07624999998,
      "d": 236.22000000000116,
      "v": 82
    },
    {
      "midi": 28,
      "hit": false,
      "t": 146916.04474999997,
      "d": 187.00750000000698,
      "v": 82
    },
    {
      "midi": 55,
      "hit": false,
      "t": 147229.03624999998,
      "d": 100.39350000000559,
      "v": 100
    },
    {
      "midi": 47,
      "hit": false,
      "t": 147229.03624999998,
      "d": 118.11000000001513,
      "v": 88
    },
    {
      "midi": 52,
      "hit": false,
      "t": 147229.03624999998,
      "d": 118.11000000001513,
      "v": 91
    },
    {
      "midi": 40,
      "hit": false,
      "t": 147233.9575,
      "d": 98.42499999998836,
      "v": 82
    },
    {
      "midi": 36,
      "hit": false,
      "t": 147393.406,
      "d": 180.1177500000049,
      "v": 82
    },
    {
      "midi": 48,
      "hit": false,
      "t": 147711.31875,
      "d": 80.70849999997881,
      "v": 75
    },
    {
      "midi": 55,
      "hit": false,
      "t": 147713.28725,
      "d": 49.21249999999418,
      "v": 73
    },
    {
      "midi": 64,
      "hit": false,
      "t": 147713.28725,
      "d": 52.16524999999092,
      "v": 82
    },
    {
      "midi": 60,
      "hit": false,
      "t": 147713.28725,
      "d": 57.08650000000489,
      "v": 82
    },
    {
      "midi": 36,
      "hit": false,
      "t": 147860.92474999998,
      "d": 214.56649999998626,
      "v": 82
    },
    {
      "midi": 57,
      "hit": false,
      "t": 147863.87749999997,
      "d": 218.50349999999162,
      "v": 91
    },
    {
      "midi": 66,
      "hit": false,
      "t": 147863.87749999997,
      "d": 223.4247500000056,
      "v": 91
    },
    {
      "midi": 62,
      "hit": false,
      "t": 147865.84599999996,
      "d": 236.22000000003027,
      "v": 91
    },
    {
      "midi": 64,
      "hit": false,
      "t": 148183.75874999998,
      "d": 137.7949999999837,
      "v": 100
    },
    {
      "midi": 48,
      "hit": false,
      "t": 148185.72724999997,
      "d": 86.6140000000014,
      "v": 73
    },
    {
      "midi": 60,
      "hit": false,
      "t": 148185.72724999997,
      "d": 113.18875000000116,
      "v": 91
    },
    {
      "midi": 67,
      "hit": false,
      "t": 148185.72724999997,
      "d": 113.18875000000116,
      "v": 91
    },
    {
      "midi": 36,
      "hit": false,
      "t": 148333.36474999995,
      "d": 140.74775000000955,
      "v": 91
    },
    {
      "midi": 64,
      "hit": false,
      "t": 148656.19874999995,
      "d": 51.180999999982305,
      "v": 91
    },
    {
      "midi": 67,
      "hit": false,
      "t": 148656.19874999995,
      "d": 63.97624999997788,
      "v": 91
    },
    {
      "midi": 48,
      "hit": false,
      "t": 148656.19874999995,
      "d": 100.39349999997648,
      "v": 73
    },
    {
      "midi": 60,
      "hit": false,
      "t": 148658.16724999994,
      "d": 47.244000000006054,
      "v": 91
    },
    {
      "midi": 57,
      "hit": false,
      "t": 148803.83624999993,
      "d": 218.50349999999162,
      "v": 91
    },
    {
      "midi": 66,
      "hit": false,
      "t": 148803.83624999993,
      "d": 223.4247500000056,
      "v": 91
    },
    {
      "midi": 62,
      "hit": false,
      "t": 148803.83624999993,
      "d": 236.22000000000116,
      "v": 82
    },
    {
      "midi": 36,
      "hit": false,
      "t": 148805.80474999992,
      "d": 189.96025000000373,
      "v": 82
    },
    {
      "midi": 64,
      "hit": false,
      "t": 149118.79624999993,
      "d": 100.39350000000559,
      "v": 100
    },
    {
      "midi": 55,
      "hit": false,
      "t": 149118.79624999993,
      "d": 118.11000000001513,
      "v": 91
    },
    {
      "midi": 60,
      "hit": false,
      "t": 149118.79624999993,
      "d": 118.11000000001513,
      "v": 100
    },
    {
      "midi": 48,
      "hit": false,
      "t": 149128.63874999993,
      "d": 90.55100000000675,
      "v": 73
    },
    {
      "midi": 36,
      "hit": false,
      "t": 149283.16599999994,
      "d": 167.3225000000093,
      "v": 82
    },
    {
      "midi": 60,
      "hit": false,
      "t": 149601.07874999996,
      "d": 51.180999999982305,
      "v": 91
    },
    {
      "midi": 64,
      "hit": false,
      "t": 149601.07874999996,
      "d": 63.97624999997788,
      "v": 91
    },
    {
      "midi": 48,
      "hit": false,
      "t": 149601.07874999996,
      "d": 98.42499999998836,
      "v": 73
    },
    {
      "midi": 55,
      "hit": false,
      "t": 149603.04724999995,
      "d": 47.244000000006054,
      "v": 91
    },
    {
      "midi": 36,
      "hit": false,
      "t": 149748.71624999994,
      "d": 193.89725000000908,
      "v": 82
    },
    {
      "midi": 57,
      "hit": false,
      "t": 149753.63749999995,
      "d": 216.5350000000035,
      "v": 91
    },
    {
      "midi": 66,
      "hit": false,
      "t": 149753.63749999995,
      "d": 228.34599999999045,
      "v": 82
    },
    {
      "midi": 62,
      "hit": false,
      "t": 149753.63749999995,
      "d": 243.10975000000326,
      "v": 73
    },
    {
      "midi": 60,
      "hit": false,
      "t": 150065.64474999995,
      "d": 125.98400000002584,
      "v": 91
    },
    {
      "midi": 64,
      "hit": false,
      "t": 150065.64474999995,
      "d": 130.9052500000398,
      "v": 100
    },
    {
      "midi": 67,
      "hit": false,
      "t": 150068.59749999995,
      "d": 108.2675000000163,
      "v": 100
    },
    {
      "midi": 48,
      "hit": false,
      "t": 150073.51874999996,
      "d": 100.39350000000559,
      "v": 82
    },
    {
      "midi": 36,
      "hit": false,
      "t": 150226.07749999998,
      "d": 177.16500000000815,
      "v": 82
    },
    {
      "midi": 48,
      "hit": false,
      "t": 150541.0375,
      "d": 98.42499999998836,
      "v": 82
    },
    {
      "midi": 64,
      "hit": false,
      "t": 150545.95875000002,
      "d": 51.180999999982305,
      "v": 91
    },
    {
      "midi": 67,
      "hit": false,
      "t": 150545.95875000002,
      "d": 63.97624999997788,
      "v": 91
    },
    {
      "midi": 60,
      "hit": false,
      "t": 150547.92725,
      "d": 47.244000000006054,
      "v": 91
    },
    {
      "midi": 57,
      "hit": false,
      "t": 150693.59625,
      "d": 218.50349999999162,
      "v": 91
    },
    {
      "midi": 66,
      "hit": false,
      "t": 150693.59625,
      "d": 223.4247500000056,
      "v": 91
    },
    {
      "midi": 62,
      "hit": false,
      "t": 150693.59625,
      "d": 236.22000000000116,
      "v": 82
    },
    {
      "midi": 36,
      "hit": false,
      "t": 150695.56475,
      "d": 187.00750000000698,
      "v": 82
    },
    {
      "midi": 64,
      "hit": false,
      "t": 151008.55625,
      "d": 100.39350000000559,
      "v": 100
    },
    {
      "midi": 55,
      "hit": false,
      "t": 151008.55625,
      "d": 118.11000000001513,
      "v": 91
    },
    {
      "midi": 60,
      "hit": false,
      "t": 151008.55625,
      "d": 118.11000000001513,
      "v": 100
    },
    {
      "midi": 48,
      "hit": false,
      "t": 151013.4775,
      "d": 98.42499999998836,
      "v": 82
    },
    {
      "midi": 28,
      "hit": false,
      "t": 151172.926,
      "d": 180.1177500000049,
      "v": 82
    },
    {
      "midi": 40,
      "hit": false,
      "t": 151490.83875000002,
      "d": 80.70849999997881,
      "v": 75
    },
    {
      "midi": 55,
      "hit": false,
      "t": 151492.80725,
      "d": 49.21249999999418,
      "v": 73
    },
    {
      "midi": 64,
      "hit": false,
      "t": 151492.80725,
      "d": 52.16524999999092,
      "v": 82
    },
    {
      "midi": 59,
      "hit": false,
      "t": 151492.80725,
      "d": 57.08650000000489,
      "v": 82
    },
    {
      "midi": 28,
      "hit": false,
      "t": 151640.44475,
      "d": 214.56649999998626,
      "v": 82
    },
    {
      "midi": 57,
      "hit": false,
      "t": 151640.44475,
      "d": 219.48775000000023,
      "v": 91
    },
    {
      "midi": 62,
      "hit": false,
      "t": 151640.44475,
      "d": 236.22000000000116,
      "v": 91
    },
    {
      "midi": 66,
      "hit": false,
      "t": 151643.3975,
      "d": 223.4247500000056,
      "v": 91
    },
    {
      "midi": 64,
      "hit": false,
      "t": 151963.27875,
      "d": 137.7949999999837,
      "v": 100
    },
    {
      "midi": 40,
      "hit": false,
      "t": 151965.24725,
      "d": 86.6140000000014,
      "v": 73
    },
    {
      "midi": 59,
      "hit": false,
      "t": 151965.24725,
      "d": 113.18875000000116,
      "v": 91
    },
    {
      "midi": 67,
      "hit": false,
      "t": 151965.24725,
      "d": 113.18875000000116,
      "v": 91
    },
    {
      "midi": 28,
      "hit": false,
      "t": 152112.88474999997,
      "d": 140.74775000000955,
      "v": 91
    },
    {
      "midi": 64,
      "hit": false,
      "t": 152435.71874999997,
      "d": 51.180999999982305,
      "v": 91
    },
    {
      "midi": 67,
      "hit": false,
      "t": 152435.71874999997,
      "d": 63.97624999997788,
      "v": 91
    },
    {
      "midi": 40,
      "hit": false,
      "t": 152435.71874999997,
      "d": 100.39349999997648,
      "v": 73
    },
    {
      "midi": 59,
      "hit": false,
      "t": 152437.68724999996,
      "d": 47.244000000006054,
      "v": 91
    },
    {
      "midi": 57,
      "hit": false,
      "t": 152583.35624999995,
      "d": 218.50349999999162,
      "v": 91
    },
    {
      "midi": 66,
      "hit": false,
      "t": 152583.35624999995,
      "d": 223.4247500000056,
      "v": 91
    },
    {
      "midi": 62,
      "hit": false,
      "t": 152583.35624999995,
      "d": 236.22000000000116,
      "v": 82
    },
    {
      "midi": 28,
      "hit": false,
      "t": 152585.32474999994,
      "d": 189.96025000000373,
      "v": 82
    },
    {
      "midi": 64,
      "hit": false,
      "t": 152898.31624999995,
      "d": 100.39350000000559,
      "v": 100
    },
    {
      "midi": 55,
      "hit": false,
      "t": 152898.31624999995,
      "d": 118.11000000001513,
      "v": 91
    },
    {
      "midi": 59,
      "hit": false,
      "t": 152898.31624999995,
      "d": 118.11000000001513,
      "v": 100
    },
    {
      "midi": 40,
      "hit": false,
      "t": 152908.15874999994,
      "d": 90.55100000000675,
      "v": 73
    },
    {
      "midi": 28,
      "hit": false,
      "t": 153062.68599999996,
      "d": 167.3225000000093,
      "v": 82
    },
    {
      "midi": 59,
      "hit": false,
      "t": 153380.59874999998,
      "d": 51.180999999982305,
      "v": 91
    },
    {
      "midi": 64,
      "hit": false,
      "t": 153380.59874999998,
      "d": 63.97624999997788,
      "v": 91
    },
    {
      "midi": 40,
      "hit": false,
      "t": 153380.59874999998,
      "d": 98.42499999998836,
      "v": 73
    },
    {
      "midi": 55,
      "hit": false,
      "t": 153382.56724999996,
      "d": 47.244000000006054,
      "v": 91
    },
    {
      "midi": 28,
      "hit": false,
      "t": 153528.23624999996,
      "d": 193.89725000000908,
      "v": 82
    },
    {
      "midi": 54,
      "hit": false,
      "t": 153533.15749999997,
      "d": 216.5350000000035,
      "v": 91
    },
    {
      "midi": 62,
      "hit": false,
      "t": 153533.15749999997,
      "d": 228.34599999999045,
      "v": 82
    },
    {
      "midi": 57,
      "hit": false,
      "t": 153533.15749999997,
      "d": 243.10975000000326,
      "v": 73
    },
    {
      "midi": 52,
      "hit": false,
      "t": 153845.16474999997,
      "d": 125.98400000002584,
      "v": 91
    },
    {
      "midi": 55,
      "hit": false,
      "t": 153845.16474999997,
      "d": 130.9052500000398,
      "v": 100
    },
    {
      "midi": 59,
      "hit": false,
      "t": 153848.11749999996,
      "d": 108.2675000000163,
      "v": 92
    },
    {
      "midi": 40,
      "hit": false,
      "t": 153853.03874999998,
      "d": 100.39350000000559,
      "v": 82
    },
    {
      "midi": 28,
      "hit": false,
      "t": 154005.5975,
      "d": 177.16500000000815,
      "v": 82
    },
    {
      "midi": 40,
      "hit": false,
      "t": 154320.55750000002,
      "d": 98.42499999998836,
      "v": 82
    },
    {
      "midi": 55,
      "hit": false,
      "t": 154325.47875000004,
      "d": 51.180999999982305,
      "v": 91
    },
    {
      "midi": 59,
      "hit": false,
      "t": 154325.47875000004,
      "d": 63.97624999997788,
      "v": 91
    },
    {
      "midi": 52,
      "hit": false,
      "t": 154327.44725000003,
      "d": 47.244000000006054,
      "v": 91
    },
    {
      "midi": 50,
      "hit": false,
      "t": 154473.11625000002,
      "d": 218.50349999999162,
      "v": 91
    },
    {
      "midi": 57,
      "hit": false,
      "t": 154473.11625000002,
      "d": 223.4247500000056,
      "v": 91
    },
    {
      "midi": 54,
      "hit": false,
      "t": 154473.11625000002,
      "d": 236.22000000000116,
      "v": 82
    },
    {
      "midi": 28,
      "hit": false,
      "t": 154475.08475,
      "d": 187.00750000000698,
      "v": 82
    },
    {
      "midi": 55,
      "hit": false,
      "t": 154788.07625,
      "d": 100.39350000000559,
      "v": 100
    },
    {
      "midi": 47,
      "hit": false,
      "t": 154788.07625,
      "d": 118.11000000001513,
      "v": 88
    },
    {
      "midi": 52,
      "hit": false,
      "t": 154788.07625,
      "d": 118.11000000001513,
      "v": 91
    },
    {
      "midi": 40,
      "hit": false,
      "t": 154792.99750000003,
      "d": 98.42499999998836,
      "v": 82
    },
    {
      "midi": 36,
      "hit": false,
      "t": 154952.44600000003,
      "d": 180.1177500000049,
      "v": 82
    },
    {
      "midi": 48,
      "hit": false,
      "t": 155270.35875000004,
      "d": 80.70849999997881,
      "v": 75
    },
    {
      "midi": 55,
      "hit": false,
      "t": 155272.32725000003,
      "d": 49.21249999999418,
      "v": 73
    },
    {
      "midi": 64,
      "hit": false,
      "t": 155272.32725000003,
      "d": 52.16524999999092,
      "v": 82
    },
    {
      "midi": 60,
      "hit": false,
      "t": 155272.32725000003,
      "d": 57.08650000000489,
      "v": 82
    },
    {
      "midi": 36,
      "hit": false,
      "t": 155419.96475,
      "d": 214.56649999998626,
      "v": 82
    },
    {
      "midi": 57,
      "hit": false,
      "t": 155422.9175,
      "d": 218.50349999999162,
      "v": 91
    },
    {
      "midi": 66,
      "hit": false,
      "t": 155422.9175,
      "d": 223.4247500000056,
      "v": 91
    },
    {
      "midi": 62,
      "hit": false,
      "t": 155424.886,
      "d": 236.22000000003027,
      "v": 91
    },
    {
      "midi": 64,
      "hit": false,
      "t": 155742.79875000002,
      "d": 137.7949999999837,
      "v": 100
    },
    {
      "midi": 48,
      "hit": false,
      "t": 155744.76725,
      "d": 86.6140000000014,
      "v": 73
    },
    {
      "midi": 60,
      "hit": false,
      "t": 155744.76725,
      "d": 113.18875000000116,
      "v": 91
    },
    {
      "midi": 67,
      "hit": false,
      "t": 155744.76725,
      "d": 113.18875000000116,
      "v": 91
    },
    {
      "midi": 36,
      "hit": false,
      "t": 155892.40475,
      "d": 140.74775000000955,
      "v": 91
    },
    {
      "midi": 64,
      "hit": false,
      "t": 156215.23875,
      "d": 51.180999999982305,
      "v": 91
    },
    {
      "midi": 67,
      "hit": false,
      "t": 156215.23875,
      "d": 63.97624999997788,
      "v": 91
    },
    {
      "midi": 48,
      "hit": false,
      "t": 156215.23875,
      "d": 100.39349999997648,
      "v": 73
    },
    {
      "midi": 60,
      "hit": false,
      "t": 156217.20724999998,
      "d": 47.244000000006054,
      "v": 91
    },
    {
      "midi": 57,
      "hit": false,
      "t": 156362.87624999997,
      "d": 218.50349999999162,
      "v": 91
    },
    {
      "midi": 66,
      "hit": false,
      "t": 156362.87624999997,
      "d": 223.4247500000056,
      "v": 91
    },
    {
      "midi": 62,
      "hit": false,
      "t": 156362.87624999997,
      "d": 236.22000000000116,
      "v": 82
    },
    {
      "midi": 36,
      "hit": false,
      "t": 156364.84474999996,
      "d": 189.96025000000373,
      "v": 82
    },
    {
      "midi": 64,
      "hit": false,
      "t": 156677.83624999996,
      "d": 100.39350000000559,
      "v": 100
    },
    {
      "midi": 55,
      "hit": false,
      "t": 156677.83624999996,
      "d": 118.11000000001513,
      "v": 91
    },
    {
      "midi": 60,
      "hit": false,
      "t": 156677.83624999996,
      "d": 118.11000000001513,
      "v": 100
    },
    {
      "midi": 48,
      "hit": false,
      "t": 156687.67874999996,
      "d": 90.55100000000675,
      "v": 73
    },
    {
      "midi": 36,
      "hit": false,
      "t": 156842.20599999998,
      "d": 167.3225000000093,
      "v": 82
    },
    {
      "midi": 60,
      "hit": false,
      "t": 157160.11875,
      "d": 51.180999999982305,
      "v": 91
    },
    {
      "midi": 64,
      "hit": false,
      "t": 157160.11875,
      "d": 63.97624999997788,
      "v": 91
    },
    {
      "midi": 48,
      "hit": false,
      "t": 157160.11875,
      "d": 98.42499999998836,
      "v": 73
    },
    {
      "midi": 55,
      "hit": false,
      "t": 157162.08724999998,
      "d": 47.244000000006054,
      "v": 91
    },
    {
      "midi": 36,
      "hit": false,
      "t": 157307.75624999998,
      "d": 193.89725000000908,
      "v": 82
    },
    {
      "midi": 57,
      "hit": false,
      "t": 157312.6775,
      "d": 216.5350000000035,
      "v": 91
    },
    {
      "midi": 66,
      "hit": false,
      "t": 157312.6775,
      "d": 228.34599999999045,
      "v": 82
    },
    {
      "midi": 62,
      "hit": false,
      "t": 157312.6775,
      "d": 243.10975000000326,
      "v": 73
    },
    {
      "midi": 60,
      "hit": false,
      "t": 157624.68475,
      "d": 125.98400000002584,
      "v": 91
    },
    {
      "midi": 64,
      "hit": false,
      "t": 157624.68475,
      "d": 130.9052500000398,
      "v": 100
    },
    {
      "midi": 67,
      "hit": false,
      "t": 157627.63749999998,
      "d": 108.2675000000163,
      "v": 100
    },
    {
      "midi": 48,
      "hit": false,
      "t": 157632.55875,
      "d": 100.39350000000559,
      "v": 82
    },
    {
      "midi": 36,
      "hit": false,
      "t": 157785.11750000002,
      "d": 177.16500000000815,
      "v": 82
    },
    {
      "midi": 48,
      "hit": false,
      "t": 158100.07750000004,
      "d": 98.42499999998836,
      "v": 82
    },
    {
      "midi": 64,
      "hit": false,
      "t": 158104.99875000006,
      "d": 51.180999999982305,
      "v": 91
    },
    {
      "midi": 67,
      "hit": false,
      "t": 158104.99875000006,
      "d": 63.97624999997788,
      "v": 91
    },
    {
      "midi": 60,
      "hit": false,
      "t": 158106.96725000005,
      "d": 47.244000000006054,
      "v": 91
    },
    {
      "midi": 57,
      "hit": false,
      "t": 158252.63625000004,
      "d": 218.50349999999162,
      "v": 91
    },
    {
      "midi": 66,
      "hit": false,
      "t": 158252.63625000004,
      "d": 223.4247500000056,
      "v": 91
    },
    {
      "midi": 62,
      "hit": false,
      "t": 158252.63625000004,
      "d": 236.22000000000116,
      "v": 82
    },
    {
      "midi": 36,
      "hit": false,
      "t": 158254.60475000003,
      "d": 187.00750000000698,
      "v": 82
    },
    {
      "midi": 64,
      "hit": false,
      "t": 158567.59625000003,
      "d": 100.39350000000559,
      "v": 100
    },
    {
      "midi": 55,
      "hit": false,
      "t": 158567.59625000003,
      "d": 118.11000000001513,
      "v": 91
    },
    {
      "midi": 60,
      "hit": false,
      "t": 158567.59625000003,
      "d": 118.11000000001513,
      "v": 100
    },
    {
      "midi": 48,
      "hit": false,
      "t": 158572.51750000005,
      "d": 98.42499999998836,
      "v": 82
    },
    {
      "midi": 28,
      "hit": false,
      "t": 158731.96600000004,
      "d": 180.1177500000049,
      "v": 82
    },
    {
      "midi": 40,
      "hit": false,
      "t": 159049.87875000006,
      "d": 80.70849999997881,
      "v": 75
    },
    {
      "midi": 55,
      "hit": false,
      "t": 159051.84725000005,
      "d": 49.21249999999418,
      "v": 73
    },
    {
      "midi": 64,
      "hit": false,
      "t": 159051.84725000005,
      "d": 52.16524999999092,
      "v": 82
    },
    {
      "midi": 59,
      "hit": false,
      "t": 159051.84725000005,
      "d": 57.08650000000489,
      "v": 82
    },
    {
      "midi": 28,
      "hit": false,
      "t": 159199.48475000003,
      "d": 214.56649999998626,
      "v": 82
    },
    {
      "midi": 57,
      "hit": false,
      "t": 159199.48475000003,
      "d": 219.48775000000023,
      "v": 91
    },
    {
      "midi": 62,
      "hit": false,
      "t": 159199.48475000003,
      "d": 236.22000000000116,
      "v": 91
    },
    {
      "midi": 66,
      "hit": false,
      "t": 159202.43750000003,
      "d": 223.4247500000056,
      "v": 91
    },
    {
      "midi": 64,
      "hit": false,
      "t": 159522.31875000003,
      "d": 137.7949999999837,
      "v": 100
    },
    {
      "midi": 40,
      "hit": false,
      "t": 159524.28725000002,
      "d": 86.6140000000014,
      "v": 73
    },
    {
      "midi": 59,
      "hit": false,
      "t": 159524.28725000002,
      "d": 113.18875000000116,
      "v": 91
    },
    {
      "midi": 67,
      "hit": false,
      "t": 159524.28725000002,
      "d": 113.18875000000116,
      "v": 91
    },
    {
      "midi": 28,
      "hit": false,
      "t": 159671.92475,
      "d": 140.74775000000955,
      "v": 91
    },
    {
      "midi": 64,
      "hit": false,
      "t": 159994.75875,
      "d": 51.180999999982305,
      "v": 91
    },
    {
      "midi": 67,
      "hit": false,
      "t": 159994.75875,
      "d": 63.97624999997788,
      "v": 91
    },
    {
      "midi": 40,
      "hit": false,
      "t": 159994.75875,
      "d": 100.39349999997648,
      "v": 73
    },
    {
      "midi": 59,
      "hit": false,
      "t": 159996.72725,
      "d": 47.244000000006054,
      "v": 91
    },
    {
      "midi": 57,
      "hit": false,
      "t": 160142.39625,
      "d": 218.50349999999162,
      "v": 91
    },
    {
      "midi": 66,
      "hit": false,
      "t": 160142.39625,
      "d": 223.4247500000056,
      "v": 91
    },
    {
      "midi": 62,
      "hit": false,
      "t": 160142.39625,
      "d": 236.22000000000116,
      "v": 82
    },
    {
      "midi": 28,
      "hit": false,
      "t": 160144.36474999998,
      "d": 189.96025000000373,
      "v": 82
    },
    {
      "midi": 64,
      "hit": false,
      "t": 160457.35624999998,
      "d": 100.39350000000559,
      "v": 100
    },
    {
      "midi": 55,
      "hit": false,
      "t": 160457.35624999998,
      "d": 118.11000000001513,
      "v": 91
    },
    {
      "midi": 59,
      "hit": false,
      "t": 160457.35624999998,
      "d": 118.11000000001513,
      "v": 100
    },
    {
      "midi": 40,
      "hit": false,
      "t": 160467.19874999998,
      "d": 90.55100000000675,
      "v": 73
    },
    {
      "midi": 28,
      "hit": false,
      "t": 160621.726,
      "d": 167.3225000000093,
      "v": 82
    },
    {
      "midi": 59,
      "hit": false,
      "t": 160939.63875,
      "d": 51.180999999982305,
      "v": 91
    },
    {
      "midi": 64,
      "hit": false,
      "t": 160939.63875,
      "d": 63.97624999997788,
      "v": 91
    },
    {
      "midi": 40,
      "hit": false,
      "t": 160939.63875,
      "d": 98.42499999998836,
      "v": 73
    },
    {
      "midi": 55,
      "hit": false,
      "t": 160941.60725,
      "d": 47.244000000006054,
      "v": 91
    },
    {
      "midi": 28,
      "hit": false,
      "t": 161087.27625,
      "d": 193.89725000000908,
      "v": 82
    },
    {
      "midi": 54,
      "hit": false,
      "t": 161092.1975,
      "d": 216.5350000000035,
      "v": 91
    },
    {
      "midi": 62,
      "hit": false,
      "t": 161092.1975,
      "d": 228.34599999999045,
      "v": 82
    },
    {
      "midi": 57,
      "hit": false,
      "t": 161092.1975,
      "d": 243.10975000000326,
      "v": 73
    },
    {
      "midi": 52,
      "hit": false,
      "t": 161404.20475,
      "d": 125.98400000002584,
      "v": 91
    },
    {
      "midi": 55,
      "hit": false,
      "t": 161404.20475,
      "d": 130.9052500000398,
      "v": 100
    },
    {
      "midi": 59,
      "hit": false,
      "t": 161407.1575,
      "d": 108.2675000000163,
      "v": 92
    },
    {
      "midi": 40,
      "hit": false,
      "t": 161412.07875000002,
      "d": 100.39350000000559,
      "v": 82
    },
    {
      "midi": 28,
      "hit": false,
      "t": 161564.63750000004,
      "d": 177.16500000000815,
      "v": 82
    },
    {
      "midi": 40,
      "hit": false,
      "t": 161879.59750000006,
      "d": 98.42499999998836,
      "v": 82
    },
    {
      "midi": 55,
      "hit": false,
      "t": 161884.51875000008,
      "d": 51.180999999982305,
      "v": 91
    },
    {
      "midi": 59,
      "hit": false,
      "t": 161884.51875000008,
      "d": 63.97624999997788,
      "v": 91
    },
    {
      "midi": 52,
      "hit": false,
      "t": 161886.48725000006,
      "d": 47.244000000006054,
      "v": 91
    },
    {
      "midi": 50,
      "hit": false,
      "t": 162032.15625000006,
      "d": 218.50349999999162,
      "v": 91
    },
    {
      "midi": 57,
      "hit": false,
      "t": 162032.15625000006,
      "d": 223.4247500000056,
      "v": 91
    },
    {
      "midi": 54,
      "hit": false,
      "t": 162032.15625000006,
      "d": 236.22000000000116,
      "v": 82
    },
    {
      "midi": 28,
      "hit": false,
      "t": 162034.12475000005,
      "d": 187.00750000000698,
      "v": 82
    },
    {
      "midi": 55,
      "hit": false,
      "t": 162347.11625000005,
      "d": 100.39350000000559,
      "v": 100
    },
    {
      "midi": 47,
      "hit": false,
      "t": 162347.11625000005,
      "d": 118.11000000001513,
      "v": 88
    },
    {
      "midi": 52,
      "hit": false,
      "t": 162347.11625000005,
      "d": 118.11000000001513,
      "v": 91
    },
    {
      "midi": 40,
      "hit": false,
      "t": 162352.03750000006,
      "d": 98.42499999998836,
      "v": 82
    },
    {
      "midi": 36,
      "hit": false,
      "t": 162499.67500000008,
      "d": 1855.3112499999988,
      "v": 73
    },
    {
      "midi": 48,
      "hit": false,
      "t": 162501.64350000006,
      "d": 1855.3112499999988,
      "v": 89
    },
    {
      "midi": 67,
      "hit": false,
      "t": 162504.59625000006,
      "d": 1835.6262500000012,
      "v": 102
    },
    {
      "midi": 55,
      "hit": false,
      "t": 162504.59625000006,
      "d": 1837.5947499999893,
      "v": 98
    },
    {
      "midi": 64,
      "hit": false,
      "t": 162504.59625000006,
      "d": 1842.5160000000033,
      "v": 103
    },
    {
      "midi": 60,
      "hit": false,
      "t": 162506.56475000005,
      "d": 1863.1852500000095,
      "v": 109
    },
    {
      "midi": 35,
      "hit": false,
      "t": 164389.43500000006,
      "d": 1855.3112499999697,
      "v": 73
    },
    {
      "midi": 47,
      "hit": false,
      "t": 164391.40350000004,
      "d": 1855.3112499999697,
      "v": 89
    },
    {
      "midi": 66,
      "hit": false,
      "t": 164394.35625000004,
      "d": 1835.626249999972,
      "v": 102
    },
    {
      "midi": 54,
      "hit": false,
      "t": 164394.35625000004,
      "d": 1837.5947499999602,
      "v": 98
    },
    {
      "midi": 63,
      "hit": false,
      "t": 164394.35625000004,
      "d": 1842.5159999999742,
      "v": 103
    },
    {
      "midi": 59,
      "hit": false,
      "t": 164396.32475000003,
      "d": 1813.9727499999863,
      "v": 109
    },
    {
      "midi": 59,
      "hit": false,
      "t": 166286.08475,
      "d": 1331.6902500000142,
      "v": 103
    },
    {
      "midi": 64,
      "hit": false,
      "t": 166286.08475,
      "d": 1341.532750000013,
      "v": 103
    },
    {
      "midi": 55,
      "hit": false,
      "t": 166289.0375,
      "d": 1323.8162500000035,
      "v": 101
    },
    {
      "midi": 40,
      "hit": false,
      "t": 166291.006,
      "d": 1267.7140000000072,
      "v": 88
    },
    {
      "midi": 28,
      "hit": false,
      "t": 166293.95875,
      "d": 1296.2572500000242,
      "v": 72
    },
    {
      "midi": 64,
      "hit": false,
      "t": 167703.40475000002,
      "d": 209.6452499999723,
      "v": 100
    },
    {
      "midi": 28,
      "hit": false,
      "t": 167706.3575,
      "d": 228.34599999999045,
      "v": 73
    },
    {
      "midi": 55,
      "hit": false,
      "t": 167708.326,
      "d": 201.7712499999907,
      "v": 91
    },
    {
      "midi": 40,
      "hit": false,
      "t": 167708.326,
      "d": 221.45624999998836,
      "v": 64
    },
    {
      "midi": 59,
      "hit": false,
      "t": 167711.27875,
      "d": 218.50349999999162,
      "v": 100
    },
    {
      "midi": 40,
      "hit": false,
      "t": 168021.3175,
      "d": 152.5587499999965,
      "v": 73
    },
    {
      "midi": 28,
      "hit": false,
      "t": 168023.286,
      "d": 162.40124999999534,
      "v": 82
    },
    {
      "midi": 55,
      "hit": false,
      "t": 168026.23875,
      "d": 132.87374999999884,
      "v": 100
    },
    {
      "midi": 59,
      "hit": false,
      "t": 168026.23875,
      "d": 132.87374999999884,
      "v": 109
    },
    {
      "midi": 64,
      "hit": false,
      "t": 168036.08125,
      "d": 123.03125,
      "v": 100
    },
    {
      "midi": 55,
      "hit": false,
      "t": 169911.07749999998,
      "d": 3026.5687499999767,
      "v": 92
    },
    {
      "midi": 64,
      "hit": false,
      "t": 169911.07749999998,
      "d": 3026.5687499999767,
      "v": 109
    },
    {
      "midi": 36,
      "hit": false,
      "t": 169911.07749999998,
      "d": 3213.5762499999546,
      "v": 70
    },
    {
      "midi": 48,
      "hit": false,
      "t": 169911.07749999998,
      "d": 3213.5762499999546,
      "v": 91
    },
    {
      "midi": 60,
      "hit": false,
      "t": 169913.04599999997,
      "d": 3026.5687499999767,
      "v": 93
    },
    {
      "midi": 57,
      "hit": false,
      "t": 173218.15749999994,
      "d": 590.5499999999884,
      "v": 92
    },
    {
      "midi": 66,
      "hit": false,
      "t": 173218.15749999994,
      "d": 590.5499999999884,
      "v": 109
    },
    {
      "midi": 38,
      "hit": false,
      "t": 173218.15749999994,
      "d": 600.3924999999872,
      "v": 68
    },
    {
      "midi": 62,
      "hit": false,
      "t": 173220.12599999993,
      "d": 590.5499999999884,
      "v": 93
    },
    {
      "midi": 50,
      "hit": false,
      "t": 173220.12599999993,
      "d": 615.15625,
      "v": 82
    },
    {
      "midi": 40,
      "hit": false,
      "t": 173848.07749999993,
      "d": 3016.726249999978,
      "v": 91
    },
    {
      "midi": 28,
      "hit": false,
      "t": 173848.07749999993,
      "d": 3018.694749999966,
      "v": 70
    },
    {
      "midi": 59,
      "hit": false,
      "t": 173848.07749999993,
      "d": 3026.5687499999767,
      "v": 92
    },
    {
      "midi": 67,
      "hit": false,
      "t": 173848.07749999993,
      "d": 3026.5687499999767,
      "v": 109
    },
    {
      "midi": 64,
      "hit": false,
      "t": 173850.04599999991,
      "d": 3026.5687499999767,
      "v": 93
    },
    {
      "midi": 54,
      "hit": false,
      "t": 176997.6774999999,
      "d": 590.5499999999884,
      "v": 92
    },
    {
      "midi": 62,
      "hit": false,
      "t": 176997.6774999999,
      "d": 590.5499999999884,
      "v": 109
    },
    {
      "midi": 38,
      "hit": false,
      "t": 176997.6774999999,
      "d": 600.3924999999872,
      "v": 68
    },
    {
      "midi": 57,
      "hit": false,
      "t": 176999.6459999999,
      "d": 590.5499999999884,
      "v": 93
    },
    {
      "midi": 50,
      "hit": false,
      "t": 176999.6459999999,
      "d": 615.15625,
      "v": 82
    },
    {
      "midi": 52,
      "hit": false,
      "t": 177627.5974999999,
      "d": 3001.962499999994,
      "v": 92
    },
    {
      "midi": 60,
      "hit": false,
      "t": 177627.5974999999,
      "d": 3001.962499999994,
      "v": 109
    },
    {
      "midi": 36,
      "hit": false,
      "t": 177627.5974999999,
      "d": 3026.5687499999767,
      "v": 70
    },
    {
      "midi": 48,
      "hit": false,
      "t": 177627.5974999999,
      "d": 3026.5687499999767,
      "v": 91
    },
    {
      "midi": 55,
      "hit": false,
      "t": 177629.56599999988,
      "d": 3001.962499999994,
      "v": 93
    },
    {
      "midi": 62,
      "hit": false,
      "t": 180777.19749999986,
      "d": 590.5499999999884,
      "v": 92
    },
    {
      "midi": 69,
      "hit": false,
      "t": 180777.19749999986,
      "d": 590.5499999999884,
      "v": 109
    },
    {
      "midi": 38,
      "hit": false,
      "t": 180777.19749999986,
      "d": 600.3924999999872,
      "v": 68
    },
    {
      "midi": 66,
      "hit": false,
      "t": 180779.16599999985,
      "d": 590.5499999999884,
      "v": 93
    },
    {
      "midi": 50,
      "hit": false,
      "t": 180779.16599999985,
      "d": 615.15625,
      "v": 82
    },
    {
      "midi": 57,
      "hit": false,
      "t": 180784.08724999987,
      "d": 570.8649999999907,
      "v": 90
    },
    {
      "midi": 40,
      "hit": false,
      "t": 181407.11749999985,
      "d": 1648.6187499999942,
      "v": 91
    },
    {
      "midi": 59,
      "hit": false,
      "t": 181407.11749999985,
      "d": 1812.9884999999776,
      "v": 82
    },
    {
      "midi": 64,
      "hit": false,
      "t": 181407.11749999985,
      "d": 1820.8624999999884,
      "v": 92
    },
    {
      "midi": 71,
      "hit": false,
      "t": 181407.11749999985,
      "d": 1820.8624999999884,
      "v": 109
    },
    {
      "midi": 28,
      "hit": false,
      "t": 181407.11749999985,
      "d": 3658.4572499999485,
      "v": 70
    },
    {
      "midi": 67,
      "hit": false,
      "t": 181409.08599999984,
      "d": 1820.8624999999884,
      "v": 93
    },
    {
      "midi": 40,
      "hit": false,
      "t": 183144.31874999983,
      "d": 823.8172499999928,
      "v": 82
    },
    {
      "midi": 59,
      "hit": false,
      "t": 183303.76724999983,
      "d": 211.61374999998952,
      "v": 91
    },
    {
      "midi": 64,
      "hit": false,
      "t": 183303.76724999983,
      "d": 226.37750000000233,
      "v": 100
    },
    {
      "midi": 71,
      "hit": false,
      "t": 183303.76724999983,
      "d": 226.37750000000233,
      "v": 108
    },
    {
      "midi": 67,
      "hit": false,
      "t": 183303.76724999983,
      "d": 229.33024999999907,
      "v": 88
    },
    {
      "midi": 71,
      "hit": false,
      "t": 183616.75874999983,
      "d": 511.8099999999977,
      "v": 91
    },
    {
      "midi": 59,
      "hit": false,
      "t": 183616.75874999983,
      "d": 531.4949999999953,
      "v": 91
    },
    {
      "midi": 67,
      "hit": false,
      "t": 183616.75874999983,
      "d": 538.3847499999974,
      "v": 91
    },
    {
      "midi": 64,
      "hit": false,
      "t": 183616.75874999983,
      "d": 551.179999999993,
      "v": 109
    },
    {
      "midi": 40,
      "hit": false,
      "t": 184091.16724999982,
      "d": 1031.493999999977,
      "v": 79
    },
    {
      "midi": 69,
      "hit": false,
      "t": 184246.67874999982,
      "d": 211.61374999998952,
      "v": 100
    },
    {
      "midi": 57,
      "hit": false,
      "t": 184248.6472499998,
      "d": 209.6452500000014,
      "v": 100
    },
    {
      "midi": 66,
      "hit": false,
      "t": 184248.6472499998,
      "d": 236.22000000000116,
      "v": 91
    },
    {
      "midi": 62,
      "hit": false,
      "t": 184248.6472499998,
      "d": 239.1727499999979,
      "v": 100
    },
    {
      "midi": 62,
      "hit": false,
      "t": 184563.6072499998,
      "d": 593.5027500000142,
      "v": 109
    },
    {
      "midi": 57,
      "hit": false,
      "t": 184563.6072499998,
      "d": 600.3925000000163,
      "v": 91
    },
    {
      "midi": 69,
      "hit": false,
      "t": 184563.6072499998,
      "d": 600.3925000000163,
      "v": 91
    },
    {
      "midi": 66,
      "hit": false,
      "t": 184563.6072499998,
      "d": 620.077500000014,
      "v": 100
    },
    {
      "midi": 55,
      "hit": false,
      "t": 185186.6374999998,
      "d": 1820.8624999999884,
      "v": 92
    },
    {
      "midi": 64,
      "hit": false,
      "t": 185186.6374999998,
      "d": 1820.8624999999884,
      "v": 109
    },
    {
      "midi": 67,
      "hit": false,
      "t": 185186.6374999998,
      "d": 1842.5159999999742,
      "v": 102
    },
    {
      "midi": 36,
      "hit": false,
      "t": 185186.6374999998,
      "d": 3658.4572499999485,
      "v": 70
    },
    {
      "midi": 48,
      "hit": false,
      "t": 185186.6374999998,
      "d": 3681.094999999943,
      "v": 91
    },
    {
      "midi": 60,
      "hit": false,
      "t": 185188.6059999998,
      "d": 1820.8624999999884,
      "v": 93
    },
    {
      "midi": 57,
      "hit": false,
      "t": 187076.3974999998,
      "d": 836.6124999999884,
      "v": 92
    },
    {
      "midi": 66,
      "hit": false,
      "t": 187076.3974999998,
      "d": 836.6124999999884,
      "v": 109
    },
    {
      "midi": 69,
      "hit": false,
      "t": 187076.3974999998,
      "d": 836.6124999999884,
      "v": 106
    },
    {
      "midi": 62,
      "hit": false,
      "t": 187078.36599999978,
      "d": 836.6124999999884,
      "v": 93
    },
    {
      "midi": 59,
      "hit": false,
      "t": 188021.27749999976,
      "d": 688.9749999999767,
      "v": 92
    },
    {
      "midi": 67,
      "hit": false,
      "t": 188021.27749999976,
      "d": 688.9749999999767,
      "v": 109
    },
    {
      "midi": 71,
      "hit": false,
      "t": 188021.27749999976,
      "d": 688.9749999999767,
      "v": 105
    },
    {
      "midi": 64,
      "hit": false,
      "t": 188023.24599999975,
      "d": 688.9749999999767,
      "v": 93
    },
    {
      "midi": 62,
      "hit": false,
      "t": 188808.67749999973,
      "d": 162.40124999999534,
      "v": 91
    },
    {
      "midi": 66,
      "hit": false,
      "t": 188813.59874999974,
      "d": 172.24374999999418,
      "v": 91
    },
    {
      "midi": 57,
      "hit": false,
      "t": 188820.48849999974,
      "d": 150.59024999997928,
      "v": 82
    },
    {
      "midi": 55,
      "hit": false,
      "t": 188966.15749999974,
      "d": 3026.568750000006,
      "v": 92
    },
    {
      "midi": 64,
      "hit": false,
      "t": 188966.15749999974,
      "d": 3026.568750000006,
      "v": 109
    },
    {
      "midi": 40,
      "hit": false,
      "t": 188966.15749999974,
      "d": 3631.882500000007,
      "v": 91
    },
    {
      "midi": 28,
      "hit": false,
      "t": 188966.15749999974,
      "d": 3633.850999999995,
      "v": 70
    },
    {
      "midi": 59,
      "hit": false,
      "t": 188968.12599999973,
      "d": 3026.568750000006,
      "v": 93
    },
    {
      "midi": 66,
      "hit": false,
      "t": 192115.75749999975,
      "d": 541.3374999999942,
      "v": 109
    },
    {
      "midi": 69,
      "hit": false,
      "t": 192115.75749999975,
      "d": 541.3374999999942,
      "v": 105
    },
    {
      "midi": 57,
      "hit": false,
      "t": 192115.75749999975,
      "d": 565.9437499999767,
      "v": 92
    },
    {
      "midi": 62,
      "hit": false,
      "t": 192117.72599999973,
      "d": 541.3374999999942,
      "v": 93
    },
    {
      "midi": 55,
      "hit": false,
      "t": 192745.67749999973,
      "d": 1786.4137499999779,
      "v": 92
    },
    {
      "midi": 64,
      "hit": false,
      "t": 192745.67749999973,
      "d": 1786.4137499999779,
      "v": 109
    },
    {
      "midi": 36,
      "hit": false,
      "t": 192745.67749999973,
      "d": 1820.8624999999593,
      "v": 70
    },
    {
      "midi": 48,
      "hit": false,
      "t": 192745.67749999973,
      "d": 1820.8624999999593,
      "v": 91
    },
    {
      "midi": 60,
      "hit": false,
      "t": 192747.64599999972,
      "d": 1786.4137499999779,
      "v": 93
    },
    {
      "midi": 67,
      "hit": false,
      "t": 192750.5987499997,
      "d": 1786.4137499999779,
      "v": 100
    },
    {
      "midi": 54,
      "hit": false,
      "t": 194635.43749999968,
      "d": 1786.4137499999779,
      "v": 92
    },
    {
      "midi": 63,
      "hit": false,
      "t": 194635.43749999968,
      "d": 1786.4137499999779,
      "v": 109
    },
    {
      "midi": 66,
      "hit": false,
      "t": 194635.43749999968,
      "d": 1801.1774999999616,
      "v": 91
    },
    {
      "midi": 35,
      "hit": false,
      "t": 194635.43749999968,
      "d": 1820.8624999999593,
      "v": 70
    },
    {
      "midi": 47,
      "hit": false,
      "t": 194635.43749999968,
      "d": 1820.8624999999593,
      "v": 91
    },
    {
      "midi": 59,
      "hit": false,
      "t": 194637.40599999967,
      "d": 1786.4137499999779,
      "v": 93
    },
    {
      "midi": 40,
      "hit": false,
      "t": 196525.19749999963,
      "d": 1648.6187499999942,
      "v": 91
    },
    {
      "midi": 64,
      "hit": false,
      "t": 196525.19749999963,
      "d": 1697.8312499999884,
      "v": 109
    },
    {
      "midi": 55,
      "hit": false,
      "t": 196525.19749999963,
      "d": 1722.4375,
      "v": 92
    },
    {
      "midi": 28,
      "hit": false,
      "t": 196525.19749999963,
      "d": 1919.2875000000058,
      "v": 70
    },
    {
      "midi": 59,
      "hit": false,
      "t": 196527.16599999962,
      "d": 1722.4375,
      "v": 93
    },
    {
      "midi": 67,
      "hit": false,
      "t": 196532.08724999963,
      "d": 1648.6187499999942,
      "v": 100
    },
    {
      "midi": 64,
      "hit": false,
      "t": 198269.28849999962,
      "d": 152.5587499999965,
      "v": 82
    },
    {
      "midi": 67,
      "hit": false,
      "t": 198269.28849999962,
      "d": 157.48000000001048,
      "v": 91
    },
    {
      "midi": 40,
      "hit": false,
      "t": 198419.87874999963,
      "d": 297.2435000000114,
      "v": 73
    },
    {
      "midi": 59,
      "hit": false,
      "t": 198419.87874999963,
      "d": 316.9285000000091,
      "v": 64
    },
    {
      "midi": 64,
      "hit": false,
      "t": 198726.96474999964,
      "d": 165.3540000000212,
      "v": 82
    },
    {
      "midi": 67,
      "hit": false,
      "t": 198729.91749999963,
      "d": 144.6847500000149,
      "v": 82
    },
    {
      "midi": 28,
      "hit": false,
      "t": 198731.88599999962,
      "d": 165.3540000000503,
      "v": 64
    },
    {
      "midi": 59,
      "hit": false,
      "t": 198884.44474999965,
      "d": 322.83400000000256,
      "v": 73
    },
    {
      "midi": 40,
      "hit": false,
      "t": 198889.36599999966,
      "d": 317.9127499999886,
      "v": 78
    },
    {
      "midi": 64,
      "hit": false,
      "t": 199202.35749999966,
      "d": 159.4484999999986,
      "v": 82
    },
    {
      "midi": 67,
      "hit": false,
      "t": 199202.35749999966,
      "d": 162.40124999999534,
      "v": 91
    },
    {
      "midi": 28,
      "hit": false,
      "t": 199204.32599999965,
      "d": 209.6452500000014,
      "v": 64
    },
    {
      "midi": 40,
      "hit": false,
      "t": 199361.80599999966,
      "d": 314.95999999999185,
      "v": 84
    },
    {
      "midi": 59,
      "hit": false,
      "t": 199361.80599999966,
      "d": 322.83400000000256,
      "v": 64
    },
    {
      "midi": 67,
      "hit": false,
      "t": 199676.76599999965,
      "d": 165.3540000000212,
      "v": 91
    },
    {
      "midi": 64,
      "hit": false,
      "t": 199676.76599999965,
      "d": 170.27525000003516,
      "v": 73
    },
    {
      "midi": 28,
      "hit": false,
      "t": 199676.76599999965,
      "d": 204.72400000004563,
      "v": 64
    },
    {
      "midi": 40,
      "hit": false,
      "t": 199837.19874999966,
      "d": 302.1647500000254,
      "v": 81
    },
    {
      "midi": 59,
      "hit": false,
      "t": 199842.11999999968,
      "d": 319.8812500000349,
      "v": 73
    },
    {
      "midi": 28,
      "hit": false,
      "t": 200147.2374999997,
      "d": 162.40124999999534,
      "v": 64
    },
    {
      "midi": 64,
      "hit": false,
      "t": 200154.1272499997,
      "d": 103.34625000000233,
      "v": 91
    },
    {
      "midi": 67,
      "hit": false,
      "t": 200157.0799999997,
      "d": 103.34625000000233,
      "v": 82
    },
    {
      "midi": 36,
      "hit": false,
      "t": 200306.6859999997,
      "d": 180.1177500000049,
      "v": 82
    },
    {
      "midi": 48,
      "hit": false,
      "t": 200624.5987499997,
      "d": 80.70849999997881,
      "v": 75
    },
    {
      "midi": 55,
      "hit": false,
      "t": 200626.5672499997,
      "d": 49.21249999999418,
      "v": 73
    },
    {
      "midi": 64,
      "hit": false,
      "t": 200626.5672499997,
      "d": 52.16524999999092,
      "v": 82
    },
    {
      "midi": 60,
      "hit": false,
      "t": 200626.5672499997,
      "d": 57.08650000000489,
      "v": 82
    },
    {
      "midi": 36,
      "hit": false,
      "t": 200774.20474999968,
      "d": 214.56649999998626,
      "v": 82
    },
    {
      "midi": 57,
      "hit": false,
      "t": 200777.15749999968,
      "d": 218.50349999999162,
      "v": 91
    },
    {
      "midi": 66,
      "hit": false,
      "t": 200777.15749999968,
      "d": 223.4247500000056,
      "v": 91
    },
    {
      "midi": 62,
      "hit": false,
      "t": 200779.12599999967,
      "d": 236.22000000003027,
      "v": 91
    },
    {
      "midi": 64,
      "hit": false,
      "t": 201094.0859999997,
      "d": 137.7949999999837,
      "v": 100
    },
    {
      "midi": 60,
      "hit": false,
      "t": 201097.0387499997,
      "d": 113.18875000000116,
      "v": 91
    },
    {
      "midi": 67,
      "hit": false,
      "t": 201097.0387499997,
      "d": 113.18875000000116,
      "v": 91
    },
    {
      "midi": 48,
      "hit": false,
      "t": 201099.00724999967,
      "d": 86.6140000000014,
      "v": 73
    },
    {
      "midi": 36,
      "hit": false,
      "t": 201246.6447499997,
      "d": 140.74775000000955,
      "v": 91
    },
    {
      "midi": 64,
      "hit": false,
      "t": 201569.4787499997,
      "d": 51.180999999982305,
      "v": 91
    },
    {
      "midi": 67,
      "hit": false,
      "t": 201569.4787499997,
      "d": 63.97624999997788,
      "v": 91
    },
    {
      "midi": 48,
      "hit": false,
      "t": 201569.4787499997,
      "d": 100.39349999997648,
      "v": 73
    },
    {
      "midi": 60,
      "hit": false,
      "t": 201571.44724999968,
      "d": 47.244000000006054,
      "v": 91
    },
    {
      "midi": 57,
      "hit": false,
      "t": 201717.11624999967,
      "d": 218.50349999999162,
      "v": 91
    },
    {
      "midi": 66,
      "hit": false,
      "t": 201717.11624999967,
      "d": 223.4247500000056,
      "v": 91
    },
    {
      "midi": 62,
      "hit": false,
      "t": 201717.11624999967,
      "d": 236.22000000000116,
      "v": 82
    },
    {
      "midi": 36,
      "hit": false,
      "t": 201719.08474999966,
      "d": 189.96025000000373,
      "v": 82
    },
    {
      "midi": 64,
      "hit": false,
      "t": 202032.07624999966,
      "d": 100.39350000000559,
      "v": 100
    },
    {
      "midi": 55,
      "hit": false,
      "t": 202032.07624999966,
      "d": 118.11000000001513,
      "v": 91
    },
    {
      "midi": 60,
      "hit": false,
      "t": 202032.07624999966,
      "d": 118.11000000001513,
      "v": 100
    },
    {
      "midi": 48,
      "hit": false,
      "t": 202041.91874999966,
      "d": 90.55100000000675,
      "v": 73
    },
    {
      "midi": 36,
      "hit": false,
      "t": 202196.44599999968,
      "d": 167.3225000000093,
      "v": 82
    },
    {
      "midi": 60,
      "hit": false,
      "t": 202514.3587499997,
      "d": 51.180999999982305,
      "v": 91
    },
    {
      "midi": 64,
      "hit": false,
      "t": 202514.3587499997,
      "d": 63.97624999997788,
      "v": 91
    },
    {
      "midi": 48,
      "hit": false,
      "t": 202514.3587499997,
      "d": 98.42499999998836,
      "v": 73
    },
    {
      "midi": 55,
      "hit": false,
      "t": 202516.32724999968,
      "d": 47.244000000006054,
      "v": 91
    },
    {
      "midi": 36,
      "hit": false,
      "t": 202661.99624999968,
      "d": 193.89725000000908,
      "v": 82
    },
    {
      "midi": 57,
      "hit": false,
      "t": 202666.9174999997,
      "d": 216.5350000000035,
      "v": 91
    },
    {
      "midi": 66,
      "hit": false,
      "t": 202666.9174999997,
      "d": 228.34599999999045,
      "v": 82
    },
    {
      "midi": 62,
      "hit": false,
      "t": 202666.9174999997,
      "d": 243.10975000000326,
      "v": 73
    },
    {
      "midi": 60,
      "hit": false,
      "t": 202978.92474999969,
      "d": 125.98400000002584,
      "v": 91
    },
    {
      "midi": 64,
      "hit": false,
      "t": 202978.92474999969,
      "d": 130.9052500000398,
      "v": 100
    },
    {
      "midi": 67,
      "hit": false,
      "t": 202981.87749999968,
      "d": 108.2675000000163,
      "v": 100
    },
    {
      "midi": 48,
      "hit": false,
      "t": 202986.7987499997,
      "d": 100.39350000000559,
      "v": 82
    },
    {
      "midi": 36,
      "hit": false,
      "t": 203139.35749999972,
      "d": 177.16500000000815,
      "v": 82
    },
    {
      "midi": 48,
      "hit": false,
      "t": 203454.31749999974,
      "d": 98.42499999998836,
      "v": 82
    },
    {
      "midi": 64,
      "hit": false,
      "t": 203459.23874999976,
      "d": 51.180999999982305,
      "v": 91
    },
    {
      "midi": 67,
      "hit": false,
      "t": 203459.23874999976,
      "d": 63.97624999997788,
      "v": 91
    },
    {
      "midi": 60,
      "hit": false,
      "t": 203461.20724999974,
      "d": 47.244000000006054,
      "v": 91
    },
    {
      "midi": 57,
      "hit": false,
      "t": 203606.87624999974,
      "d": 218.50349999999162,
      "v": 91
    },
    {
      "midi": 66,
      "hit": false,
      "t": 203606.87624999974,
      "d": 223.4247500000056,
      "v": 91
    },
    {
      "midi": 62,
      "hit": false,
      "t": 203606.87624999974,
      "d": 236.22000000000116,
      "v": 82
    },
    {
      "midi": 36,
      "hit": false,
      "t": 203608.84474999973,
      "d": 187.00750000000698,
      "v": 82
    },
    {
      "midi": 64,
      "hit": false,
      "t": 203921.83624999973,
      "d": 100.39350000000559,
      "v": 100
    },
    {
      "midi": 55,
      "hit": false,
      "t": 203921.83624999973,
      "d": 118.11000000001513,
      "v": 91
    },
    {
      "midi": 60,
      "hit": false,
      "t": 203921.83624999973,
      "d": 118.11000000001513,
      "v": 100
    },
    {
      "midi": 48,
      "hit": false,
      "t": 203926.75749999975,
      "d": 98.42499999998836,
      "v": 82
    },
    {
      "midi": 28,
      "hit": false,
      "t": 204086.20599999974,
      "d": 180.1177500000049,
      "v": 82
    },
    {
      "midi": 40,
      "hit": false,
      "t": 204404.11874999976,
      "d": 80.70849999997881,
      "v": 75
    },
    {
      "midi": 55,
      "hit": false,
      "t": 204406.08724999975,
      "d": 49.21249999999418,
      "v": 73
    },
    {
      "midi": 64,
      "hit": false,
      "t": 204406.08724999975,
      "d": 52.16524999999092,
      "v": 82
    },
    {
      "midi": 59,
      "hit": false,
      "t": 204406.08724999975,
      "d": 57.08650000000489,
      "v": 82
    },
    {
      "midi": 28,
      "hit": false,
      "t": 204553.72474999973,
      "d": 214.56649999998626,
      "v": 82
    },
    {
      "midi": 57,
      "hit": false,
      "t": 204556.67749999973,
      "d": 218.50349999999162,
      "v": 91
    },
    {
      "midi": 66,
      "hit": false,
      "t": 204556.67749999973,
      "d": 223.4247500000056,
      "v": 91
    },
    {
      "midi": 62,
      "hit": false,
      "t": 204558.64599999972,
      "d": 236.22000000003027,
      "v": 91
    },
    {
      "midi": 64,
      "hit": false,
      "t": 204876.55874999973,
      "d": 137.7949999999837,
      "v": 100
    },
    {
      "midi": 40,
      "hit": false,
      "t": 204878.52724999972,
      "d": 86.6140000000014,
      "v": 73
    },
    {
      "midi": 59,
      "hit": false,
      "t": 204878.52724999972,
      "d": 113.18875000000116,
      "v": 91
    },
    {
      "midi": 67,
      "hit": false,
      "t": 204878.52724999972,
      "d": 113.18875000000116,
      "v": 91
    },
    {
      "midi": 28,
      "hit": false,
      "t": 205026.1647499997,
      "d": 140.74775000000955,
      "v": 91
    },
    {
      "midi": 64,
      "hit": false,
      "t": 205348.9987499997,
      "d": 51.180999999982305,
      "v": 91
    },
    {
      "midi": 67,
      "hit": false,
      "t": 205348.9987499997,
      "d": 63.97624999997788,
      "v": 91
    },
    {
      "midi": 40,
      "hit": false,
      "t": 205348.9987499997,
      "d": 100.39349999997648,
      "v": 73
    },
    {
      "midi": 59,
      "hit": false,
      "t": 205350.9672499997,
      "d": 47.244000000006054,
      "v": 91
    },
    {
      "midi": 57,
      "hit": false,
      "t": 205496.6362499997,
      "d": 218.50349999999162,
      "v": 91
    },
    {
      "midi": 66,
      "hit": false,
      "t": 205496.6362499997,
      "d": 223.4247500000056,
      "v": 91
    },
    {
      "midi": 62,
      "hit": false,
      "t": 205496.6362499997,
      "d": 236.22000000000116,
      "v": 82
    },
    {
      "midi": 28,
      "hit": false,
      "t": 205498.60474999968,
      "d": 189.96025000000373,
      "v": 82
    },
    {
      "midi": 64,
      "hit": false,
      "t": 205811.59624999968,
      "d": 100.39350000000559,
      "v": 100
    },
    {
      "midi": 55,
      "hit": false,
      "t": 205811.59624999968,
      "d": 118.11000000001513,
      "v": 91
    },
    {
      "midi": 59,
      "hit": false,
      "t": 205811.59624999968,
      "d": 118.11000000001513,
      "v": 100
    },
    {
      "midi": 40,
      "hit": false,
      "t": 205821.43874999968,
      "d": 90.55100000000675,
      "v": 73
    },
    {
      "midi": 28,
      "hit": false,
      "t": 205975.9659999997,
      "d": 167.3225000000093,
      "v": 82
    },
    {
      "midi": 59,
      "hit": false,
      "t": 206293.8787499997,
      "d": 51.180999999982305,
      "v": 91
    },
    {
      "midi": 64,
      "hit": false,
      "t": 206293.8787499997,
      "d": 63.97624999997788,
      "v": 91
    },
    {
      "midi": 40,
      "hit": false,
      "t": 206293.8787499997,
      "d": 98.42499999998836,
      "v": 73
    },
    {
      "midi": 55,
      "hit": false,
      "t": 206295.8472499997,
      "d": 47.244000000006054,
      "v": 91
    },
    {
      "midi": 28,
      "hit": false,
      "t": 206441.5162499997,
      "d": 193.89725000000908,
      "v": 82
    },
    {
      "midi": 54,
      "hit": false,
      "t": 206446.4374999997,
      "d": 216.5350000000035,
      "v": 91
    },
    {
      "midi": 62,
      "hit": false,
      "t": 206446.4374999997,
      "d": 228.34599999999045,
      "v": 82
    },
    {
      "midi": 57,
      "hit": false,
      "t": 206446.4374999997,
      "d": 243.10975000000326,
      "v": 73
    },
    {
      "midi": 52,
      "hit": false,
      "t": 206758.4447499997,
      "d": 125.98400000002584,
      "v": 91
    },
    {
      "midi": 55,
      "hit": false,
      "t": 206758.4447499997,
      "d": 130.9052500000398,
      "v": 100
    },
    {
      "midi": 59,
      "hit": false,
      "t": 206761.3974999997,
      "d": 108.2675000000163,
      "v": 92
    },
    {
      "midi": 40,
      "hit": false,
      "t": 206766.31874999971,
      "d": 100.39350000000559,
      "v": 82
    },
    {
      "midi": 28,
      "hit": false,
      "t": 206918.87749999974,
      "d": 177.16500000000815,
      "v": 82
    },
    {
      "midi": 40,
      "hit": false,
      "t": 207233.83749999976,
      "d": 98.42499999998836,
      "v": 82
    },
    {
      "midi": 55,
      "hit": false,
      "t": 207238.75874999978,
      "d": 51.180999999982305,
      "v": 91
    },
    {
      "midi": 59,
      "hit": false,
      "t": 207238.75874999978,
      "d": 63.97624999997788,
      "v": 91
    },
    {
      "midi": 52,
      "hit": false,
      "t": 207240.72724999976,
      "d": 47.244000000006054,
      "v": 91
    },
    {
      "midi": 50,
      "hit": false,
      "t": 207386.39624999976,
      "d": 218.50349999999162,
      "v": 91
    },
    {
      "midi": 57,
      "hit": false,
      "t": 207386.39624999976,
      "d": 223.4247500000056,
      "v": 91
    },
    {
      "midi": 54,
      "hit": false,
      "t": 207386.39624999976,
      "d": 236.22000000000116,
      "v": 82
    },
    {
      "midi": 28,
      "hit": false,
      "t": 207388.36474999975,
      "d": 187.00750000000698,
      "v": 82
    },
    {
      "midi": 55,
      "hit": false,
      "t": 207701.35624999975,
      "d": 100.39350000000559,
      "v": 100
    },
    {
      "midi": 47,
      "hit": false,
      "t": 207701.35624999975,
      "d": 118.11000000001513,
      "v": 88
    },
    {
      "midi": 52,
      "hit": false,
      "t": 207701.35624999975,
      "d": 118.11000000001513,
      "v": 91
    },
    {
      "midi": 40,
      "hit": false,
      "t": 207706.27749999976,
      "d": 98.42499999998836,
      "v": 82
    },
    {
      "midi": 36,
      "hit": false,
      "t": 207865.72599999976,
      "d": 180.1177500000049,
      "v": 82
    },
    {
      "midi": 48,
      "hit": false,
      "t": 208183.63874999978,
      "d": 80.70849999997881,
      "v": 75
    },
    {
      "midi": 55,
      "hit": false,
      "t": 208185.60724999977,
      "d": 49.21249999999418,
      "v": 73
    },
    {
      "midi": 64,
      "hit": false,
      "t": 208185.60724999977,
      "d": 52.16524999999092,
      "v": 82
    },
    {
      "midi": 60,
      "hit": false,
      "t": 208185.60724999977,
      "d": 57.08650000000489,
      "v": 82
    },
    {
      "midi": 36,
      "hit": false,
      "t": 208333.24474999975,
      "d": 214.56649999998626,
      "v": 82
    },
    {
      "midi": 57,
      "hit": false,
      "t": 208336.19749999975,
      "d": 218.50349999999162,
      "v": 91
    },
    {
      "midi": 66,
      "hit": false,
      "t": 208336.19749999975,
      "d": 223.4247500000056,
      "v": 91
    },
    {
      "midi": 62,
      "hit": false,
      "t": 208338.16599999974,
      "d": 236.22000000003027,
      "v": 91
    },
    {
      "midi": 64,
      "hit": false,
      "t": 208656.07874999975,
      "d": 137.7949999999837,
      "v": 100
    },
    {
      "midi": 48,
      "hit": false,
      "t": 208658.04724999974,
      "d": 86.6140000000014,
      "v": 73
    },
    {
      "midi": 60,
      "hit": false,
      "t": 208658.04724999974,
      "d": 113.18875000000116,
      "v": 91
    },
    {
      "midi": 67,
      "hit": false,
      "t": 208658.04724999974,
      "d": 113.18875000000116,
      "v": 91
    },
    {
      "midi": 36,
      "hit": false,
      "t": 208805.68474999972,
      "d": 140.74775000000955,
      "v": 91
    },
    {
      "midi": 64,
      "hit": false,
      "t": 209128.51874999973,
      "d": 51.180999999982305,
      "v": 91
    },
    {
      "midi": 67,
      "hit": false,
      "t": 209128.51874999973,
      "d": 63.97624999997788,
      "v": 91
    },
    {
      "midi": 48,
      "hit": false,
      "t": 209128.51874999973,
      "d": 100.39349999997648,
      "v": 73
    },
    {
      "midi": 60,
      "hit": false,
      "t": 209130.4872499997,
      "d": 47.244000000006054,
      "v": 91
    },
    {
      "midi": 57,
      "hit": false,
      "t": 209276.1562499997,
      "d": 218.50349999999162,
      "v": 91
    },
    {
      "midi": 66,
      "hit": false,
      "t": 209276.1562499997,
      "d": 223.4247500000056,
      "v": 91
    },
    {
      "midi": 62,
      "hit": false,
      "t": 209276.1562499997,
      "d": 236.22000000000116,
      "v": 82
    },
    {
      "midi": 36,
      "hit": false,
      "t": 209278.1247499997,
      "d": 189.96025000000373,
      "v": 82
    },
    {
      "midi": 64,
      "hit": false,
      "t": 209591.1162499997,
      "d": 100.39350000000559,
      "v": 100
    },
    {
      "midi": 55,
      "hit": false,
      "t": 209591.1162499997,
      "d": 118.11000000001513,
      "v": 91
    },
    {
      "midi": 60,
      "hit": false,
      "t": 209591.1162499997,
      "d": 118.11000000001513,
      "v": 100
    },
    {
      "midi": 48,
      "hit": false,
      "t": 209600.9587499997,
      "d": 90.55100000000675,
      "v": 73
    },
    {
      "midi": 36,
      "hit": false,
      "t": 209755.4859999997,
      "d": 167.3225000000093,
      "v": 82
    },
    {
      "midi": 60,
      "hit": false,
      "t": 210073.39874999973,
      "d": 51.180999999982305,
      "v": 91
    },
    {
      "midi": 64,
      "hit": false,
      "t": 210073.39874999973,
      "d": 63.97624999997788,
      "v": 91
    },
    {
      "midi": 48,
      "hit": false,
      "t": 210073.39874999973,
      "d": 98.42499999998836,
      "v": 73
    },
    {
      "midi": 55,
      "hit": false,
      "t": 210075.36724999972,
      "d": 47.244000000006054,
      "v": 91
    },
    {
      "midi": 36,
      "hit": false,
      "t": 210221.0362499997,
      "d": 193.89725000000908,
      "v": 82
    },
    {
      "midi": 57,
      "hit": false,
      "t": 210225.95749999973,
      "d": 216.5350000000035,
      "v": 91
    },
    {
      "midi": 66,
      "hit": false,
      "t": 210225.95749999973,
      "d": 228.34599999999045,
      "v": 82
    },
    {
      "midi": 62,
      "hit": false,
      "t": 210225.95749999973,
      "d": 243.10975000000326,
      "v": 73
    },
    {
      "midi": 60,
      "hit": false,
      "t": 210537.96474999972,
      "d": 125.98400000002584,
      "v": 91
    },
    {
      "midi": 64,
      "hit": false,
      "t": 210537.96474999972,
      "d": 130.9052500000398,
      "v": 100
    },
    {
      "midi": 67,
      "hit": false,
      "t": 210540.91749999972,
      "d": 108.2675000000163,
      "v": 100
    },
    {
      "midi": 48,
      "hit": false,
      "t": 210545.83874999973,
      "d": 100.39350000000559,
      "v": 82
    },
    {
      "midi": 36,
      "hit": false,
      "t": 210698.39749999976,
      "d": 177.16500000000815,
      "v": 82
    },
    {
      "midi": 48,
      "hit": false,
      "t": 211013.35749999978,
      "d": 98.42499999998836,
      "v": 82
    },
    {
      "midi": 64,
      "hit": false,
      "t": 211018.2787499998,
      "d": 51.180999999982305,
      "v": 91
    },
    {
      "midi": 67,
      "hit": false,
      "t": 211018.2787499998,
      "d": 63.97624999997788,
      "v": 91
    },
    {
      "midi": 60,
      "hit": false,
      "t": 211020.24724999978,
      "d": 47.244000000006054,
      "v": 91
    },
    {
      "midi": 57,
      "hit": false,
      "t": 211165.91624999978,
      "d": 218.50349999999162,
      "v": 91
    },
    {
      "midi": 66,
      "hit": false,
      "t": 211165.91624999978,
      "d": 223.4247500000056,
      "v": 91
    },
    {
      "midi": 62,
      "hit": false,
      "t": 211165.91624999978,
      "d": 236.22000000000116,
      "v": 82
    },
    {
      "midi": 36,
      "hit": false,
      "t": 211167.88474999976,
      "d": 187.00750000000698,
      "v": 82
    },
    {
      "midi": 64,
      "hit": false,
      "t": 211480.87624999977,
      "d": 100.39350000000559,
      "v": 100
    },
    {
      "midi": 55,
      "hit": false,
      "t": 211480.87624999977,
      "d": 118.11000000001513,
      "v": 91
    },
    {
      "midi": 60,
      "hit": false,
      "t": 211480.87624999977,
      "d": 118.11000000001513,
      "v": 100
    },
    {
      "midi": 48,
      "hit": false,
      "t": 211485.79749999978,
      "d": 98.42499999998836,
      "v": 82
    },
    {
      "midi": 28,
      "hit": false,
      "t": 211645.24599999978,
      "d": 180.1177500000049,
      "v": 82
    },
    {
      "midi": 40,
      "hit": false,
      "t": 211963.1587499998,
      "d": 80.70849999997881,
      "v": 75
    },
    {
      "midi": 55,
      "hit": false,
      "t": 211965.1272499998,
      "d": 49.21249999999418,
      "v": 73
    },
    {
      "midi": 64,
      "hit": false,
      "t": 211965.1272499998,
      "d": 52.16524999999092,
      "v": 82
    },
    {
      "midi": 59,
      "hit": false,
      "t": 211965.1272499998,
      "d": 57.08650000000489,
      "v": 82
    },
    {
      "midi": 28,
      "hit": false,
      "t": 212112.76474999977,
      "d": 214.56649999998626,
      "v": 82
    },
    {
      "midi": 57,
      "hit": false,
      "t": 212112.76474999977,
      "d": 219.48775000000023,
      "v": 91
    },
    {
      "midi": 62,
      "hit": false,
      "t": 212112.76474999977,
      "d": 236.22000000000116,
      "v": 91
    },
    {
      "midi": 66,
      "hit": false,
      "t": 212115.71749999977,
      "d": 223.4247500000056,
      "v": 91
    },
    {
      "midi": 64,
      "hit": false,
      "t": 212435.59874999977,
      "d": 137.7949999999837,
      "v": 100
    },
    {
      "midi": 40,
      "hit": false,
      "t": 212437.56724999976,
      "d": 86.6140000000014,
      "v": 73
    },
    {
      "midi": 59,
      "hit": false,
      "t": 212437.56724999976,
      "d": 113.18875000000116,
      "v": 91
    },
    {
      "midi": 67,
      "hit": false,
      "t": 212437.56724999976,
      "d": 113.18875000000116,
      "v": 91
    },
    {
      "midi": 28,
      "hit": false,
      "t": 212585.20474999974,
      "d": 140.74775000000955,
      "v": 91
    },
    {
      "midi": 64,
      "hit": false,
      "t": 212908.03874999975,
      "d": 51.180999999982305,
      "v": 91
    },
    {
      "midi": 67,
      "hit": false,
      "t": 212908.03874999975,
      "d": 63.97624999997788,
      "v": 91
    },
    {
      "midi": 40,
      "hit": false,
      "t": 212908.03874999975,
      "d": 100.39349999997648,
      "v": 73
    },
    {
      "midi": 59,
      "hit": false,
      "t": 212910.00724999973,
      "d": 47.244000000006054,
      "v": 91
    },
    {
      "midi": 57,
      "hit": false,
      "t": 213055.67624999973,
      "d": 218.50349999999162,
      "v": 91
    },
    {
      "midi": 66,
      "hit": false,
      "t": 213055.67624999973,
      "d": 223.4247500000056,
      "v": 91
    },
    {
      "midi": 62,
      "hit": false,
      "t": 213055.67624999973,
      "d": 236.22000000000116,
      "v": 82
    },
    {
      "midi": 28,
      "hit": false,
      "t": 213057.64474999972,
      "d": 189.96025000000373,
      "v": 82
    },
    {
      "midi": 64,
      "hit": false,
      "t": 213370.63624999972,
      "d": 100.39350000000559,
      "v": 100
    },
    {
      "midi": 55,
      "hit": false,
      "t": 213370.63624999972,
      "d": 118.11000000001513,
      "v": 91
    },
    {
      "midi": 59,
      "hit": false,
      "t": 213370.63624999972,
      "d": 118.11000000001513,
      "v": 100
    },
    {
      "midi": 40,
      "hit": false,
      "t": 213380.47874999972,
      "d": 90.55100000000675,
      "v": 73
    },
    {
      "midi": 28,
      "hit": false,
      "t": 213535.00599999973,
      "d": 167.3225000000093,
      "v": 82
    },
    {
      "midi": 59,
      "hit": false,
      "t": 213852.91874999975,
      "d": 51.180999999982305,
      "v": 91
    },
    {
      "midi": 64,
      "hit": false,
      "t": 213852.91874999975,
      "d": 63.97624999997788,
      "v": 91
    },
    {
      "midi": 40,
      "hit": false,
      "t": 213852.91874999975,
      "d": 98.42499999998836,
      "v": 73
    },
    {
      "midi": 55,
      "hit": false,
      "t": 213854.88724999974,
      "d": 47.244000000006054,
      "v": 91
    },
    {
      "midi": 28,
      "hit": false,
      "t": 214000.55624999973,
      "d": 193.89725000000908,
      "v": 82
    },
    {
      "midi": 54,
      "hit": false,
      "t": 214005.47749999975,
      "d": 216.5350000000035,
      "v": 91
    },
    {
      "midi": 62,
      "hit": false,
      "t": 214005.47749999975,
      "d": 228.34599999999045,
      "v": 82
    },
    {
      "midi": 57,
      "hit": false,
      "t": 214005.47749999975,
      "d": 243.10975000000326,
      "v": 73
    },
    {
      "midi": 52,
      "hit": false,
      "t": 214317.48474999974,
      "d": 125.98400000002584,
      "v": 91
    },
    {
      "midi": 55,
      "hit": false,
      "t": 214317.48474999974,
      "d": 130.9052500000398,
      "v": 100
    },
    {
      "midi": 59,
      "hit": false,
      "t": 214320.43749999974,
      "d": 108.2675000000163,
      "v": 92
    },
    {
      "midi": 40,
      "hit": false,
      "t": 214325.35874999975,
      "d": 100.39350000000559,
      "v": 82
    },
    {
      "midi": 28,
      "hit": false,
      "t": 214477.91749999978,
      "d": 177.16500000000815,
      "v": 82
    },
    {
      "midi": 40,
      "hit": false,
      "t": 214792.8774999998,
      "d": 98.42499999998836,
      "v": 82
    },
    {
      "midi": 55,
      "hit": false,
      "t": 214797.7987499998,
      "d": 51.180999999982305,
      "v": 91
    },
    {
      "midi": 59,
      "hit": false,
      "t": 214797.7987499998,
      "d": 63.97624999997788,
      "v": 91
    },
    {
      "midi": 52,
      "hit": false,
      "t": 214799.7672499998,
      "d": 47.244000000006054,
      "v": 91
    },
    {
      "midi": 50,
      "hit": false,
      "t": 214945.4362499998,
      "d": 218.50349999999162,
      "v": 91
    },
    {
      "midi": 57,
      "hit": false,
      "t": 214945.4362499998,
      "d": 223.4247500000056,
      "v": 91
    },
    {
      "midi": 54,
      "hit": false,
      "t": 214945.4362499998,
      "d": 236.22000000000116,
      "v": 82
    },
    {
      "midi": 28,
      "hit": false,
      "t": 214947.40474999978,
      "d": 187.00750000000698,
      "v": 82
    },
    {
      "midi": 55,
      "hit": false,
      "t": 215260.3962499998,
      "d": 100.39350000000559,
      "v": 100
    },
    {
      "midi": 47,
      "hit": false,
      "t": 215260.3962499998,
      "d": 118.11000000001513,
      "v": 88
    },
    {
      "midi": 52,
      "hit": false,
      "t": 215260.3962499998,
      "d": 118.11000000001513,
      "v": 91
    },
    {
      "midi": 40,
      "hit": false,
      "t": 215265.3174999998,
      "d": 98.42499999998836,
      "v": 82
    },
    {
      "midi": 36,
      "hit": false,
      "t": 215424.7659999998,
      "d": 180.1177500000049,
      "v": 82
    },
    {
      "midi": 48,
      "hit": false,
      "t": 215742.67874999982,
      "d": 80.70849999997881,
      "v": 75
    },
    {
      "midi": 55,
      "hit": false,
      "t": 215744.6472499998,
      "d": 49.21249999999418,
      "v": 73
    },
    {
      "midi": 64,
      "hit": false,
      "t": 215744.6472499998,
      "d": 52.16524999999092,
      "v": 82
    },
    {
      "midi": 60,
      "hit": false,
      "t": 215744.6472499998,
      "d": 57.08650000000489,
      "v": 82
    },
    {
      "midi": 36,
      "hit": false,
      "t": 215892.2847499998,
      "d": 214.56649999998626,
      "v": 82
    },
    {
      "midi": 57,
      "hit": false,
      "t": 215895.23749999978,
      "d": 218.50349999999162,
      "v": 91
    },
    {
      "midi": 66,
      "hit": false,
      "t": 215895.23749999978,
      "d": 223.4247500000056,
      "v": 91
    },
    {
      "midi": 62,
      "hit": false,
      "t": 215897.20599999977,
      "d": 236.22000000003027,
      "v": 91
    },
    {
      "midi": 64,
      "hit": false,
      "t": 216215.1187499998,
      "d": 137.7949999999837,
      "v": 100
    },
    {
      "midi": 48,
      "hit": false,
      "t": 216217.08724999978,
      "d": 86.6140000000014,
      "v": 73
    },
    {
      "midi": 60,
      "hit": false,
      "t": 216217.08724999978,
      "d": 113.18875000000116,
      "v": 91
    },
    {
      "midi": 67,
      "hit": false,
      "t": 216217.08724999978,
      "d": 113.18875000000116,
      "v": 91
    },
    {
      "midi": 36,
      "hit": false,
      "t": 216364.72474999976,
      "d": 140.74775000000955,
      "v": 91
    },
    {
      "midi": 64,
      "hit": false,
      "t": 216687.55874999976,
      "d": 51.180999999982305,
      "v": 91
    },
    {
      "midi": 67,
      "hit": false,
      "t": 216687.55874999976,
      "d": 63.97624999997788,
      "v": 91
    },
    {
      "midi": 48,
      "hit": false,
      "t": 216687.55874999976,
      "d": 100.39349999997648,
      "v": 73
    },
    {
      "midi": 60,
      "hit": false,
      "t": 216689.52724999975,
      "d": 47.244000000006054,
      "v": 91
    },
    {
      "midi": 57,
      "hit": false,
      "t": 216835.19624999975,
      "d": 218.50349999999162,
      "v": 91
    },
    {
      "midi": 66,
      "hit": false,
      "t": 216835.19624999975,
      "d": 223.4247500000056,
      "v": 91
    },
    {
      "midi": 62,
      "hit": false,
      "t": 216835.19624999975,
      "d": 236.22000000000116,
      "v": 82
    },
    {
      "midi": 36,
      "hit": false,
      "t": 216837.16474999973,
      "d": 189.96025000000373,
      "v": 82
    },
    {
      "midi": 64,
      "hit": false,
      "t": 217150.15624999974,
      "d": 100.39350000000559,
      "v": 100
    },
    {
      "midi": 55,
      "hit": false,
      "t": 217150.15624999974,
      "d": 118.11000000001513,
      "v": 91
    },
    {
      "midi": 60,
      "hit": false,
      "t": 217150.15624999974,
      "d": 118.11000000001513,
      "v": 100
    },
    {
      "midi": 48,
      "hit": false,
      "t": 217159.99874999974,
      "d": 90.55100000000675,
      "v": 73
    },
    {
      "midi": 36,
      "hit": false,
      "t": 217314.52599999975,
      "d": 167.3225000000093,
      "v": 82
    },
    {
      "midi": 60,
      "hit": false,
      "t": 217632.43874999977,
      "d": 51.180999999982305,
      "v": 91
    },
    {
      "midi": 64,
      "hit": false,
      "t": 217632.43874999977,
      "d": 63.97624999997788,
      "v": 91
    },
    {
      "midi": 48,
      "hit": false,
      "t": 217632.43874999977,
      "d": 98.42499999998836,
      "v": 73
    },
    {
      "midi": 55,
      "hit": false,
      "t": 217634.40724999976,
      "d": 47.244000000006054,
      "v": 91
    },
    {
      "midi": 36,
      "hit": false,
      "t": 217780.07624999975,
      "d": 193.89725000000908,
      "v": 82
    },
    {
      "midi": 57,
      "hit": false,
      "t": 217784.99749999976,
      "d": 216.5350000000035,
      "v": 91
    },
    {
      "midi": 66,
      "hit": false,
      "t": 217784.99749999976,
      "d": 228.34599999999045,
      "v": 82
    },
    {
      "midi": 62,
      "hit": false,
      "t": 217784.99749999976,
      "d": 243.10975000000326,
      "v": 73
    },
    {
      "midi": 60,
      "hit": false,
      "t": 218097.00474999976,
      "d": 125.98400000002584,
      "v": 91
    },
    {
      "midi": 64,
      "hit": false,
      "t": 218097.00474999976,
      "d": 130.9052500000398,
      "v": 100
    },
    {
      "midi": 67,
      "hit": false,
      "t": 218099.95749999976,
      "d": 108.2675000000163,
      "v": 100
    },
    {
      "midi": 48,
      "hit": false,
      "t": 218104.87874999977,
      "d": 100.39350000000559,
      "v": 82
    },
    {
      "midi": 36,
      "hit": false,
      "t": 218257.4374999998,
      "d": 177.16500000000815,
      "v": 82
    },
    {
      "midi": 48,
      "hit": false,
      "t": 218572.39749999982,
      "d": 98.42499999998836,
      "v": 82
    },
    {
      "midi": 64,
      "hit": false,
      "t": 218577.31874999983,
      "d": 51.180999999982305,
      "v": 91
    },
    {
      "midi": 67,
      "hit": false,
      "t": 218577.31874999983,
      "d": 63.97624999997788,
      "v": 91
    },
    {
      "midi": 60,
      "hit": false,
      "t": 218579.28724999982,
      "d": 47.244000000006054,
      "v": 91
    },
    {
      "midi": 57,
      "hit": false,
      "t": 218724.9562499998,
      "d": 218.50349999999162,
      "v": 91
    },
    {
      "midi": 66,
      "hit": false,
      "t": 218724.9562499998,
      "d": 223.4247500000056,
      "v": 91
    },
    {
      "midi": 62,
      "hit": false,
      "t": 218724.9562499998,
      "d": 236.22000000000116,
      "v": 82
    },
    {
      "midi": 36,
      "hit": false,
      "t": 218726.9247499998,
      "d": 187.00750000000698,
      "v": 82
    },
    {
      "midi": 64,
      "hit": false,
      "t": 219039.9162499998,
      "d": 100.39350000000559,
      "v": 100
    },
    {
      "midi": 55,
      "hit": false,
      "t": 219039.9162499998,
      "d": 118.11000000001513,
      "v": 91
    },
    {
      "midi": 60,
      "hit": false,
      "t": 219039.9162499998,
      "d": 118.11000000001513,
      "v": 100
    },
    {
      "midi": 48,
      "hit": false,
      "t": 219044.83749999982,
      "d": 98.42499999998836,
      "v": 82
    },
    {
      "midi": 28,
      "hit": false,
      "t": 219204.28599999982,
      "d": 180.1177500000049,
      "v": 82
    },
    {
      "midi": 40,
      "hit": false,
      "t": 219522.19874999984,
      "d": 80.70849999997881,
      "v": 75
    },
    {
      "midi": 55,
      "hit": false,
      "t": 219524.16724999982,
      "d": 49.21249999999418,
      "v": 73
    },
    {
      "midi": 64,
      "hit": false,
      "t": 219524.16724999982,
      "d": 52.16524999999092,
      "v": 82
    },
    {
      "midi": 59,
      "hit": false,
      "t": 219524.16724999982,
      "d": 57.08650000000489,
      "v": 82
    },
    {
      "midi": 28,
      "hit": false,
      "t": 219671.8047499998,
      "d": 214.56649999998626,
      "v": 82
    },
    {
      "midi": 57,
      "hit": false,
      "t": 219671.8047499998,
      "d": 219.48775000000023,
      "v": 91
    },
    {
      "midi": 62,
      "hit": false,
      "t": 219671.8047499998,
      "d": 236.22000000000116,
      "v": 91
    },
    {
      "midi": 66,
      "hit": false,
      "t": 219674.7574999998,
      "d": 223.4247500000056,
      "v": 91
    },
    {
      "midi": 64,
      "hit": false,
      "t": 219994.6387499998,
      "d": 137.7949999999837,
      "v": 100
    },
    {
      "midi": 40,
      "hit": false,
      "t": 219996.6072499998,
      "d": 86.6140000000014,
      "v": 73
    },
    {
      "midi": 59,
      "hit": false,
      "t": 219996.6072499998,
      "d": 113.18875000000116,
      "v": 91
    },
    {
      "midi": 67,
      "hit": false,
      "t": 219996.6072499998,
      "d": 113.18875000000116,
      "v": 91
    },
    {
      "midi": 28,
      "hit": false,
      "t": 220144.24474999978,
      "d": 140.74775000000955,
      "v": 91
    },
    {
      "midi": 64,
      "hit": false,
      "t": 220467.07874999978,
      "d": 51.180999999982305,
      "v": 91
    },
    {
      "midi": 67,
      "hit": false,
      "t": 220467.07874999978,
      "d": 63.97624999997788,
      "v": 91
    },
    {
      "midi": 40,
      "hit": false,
      "t": 220467.07874999978,
      "d": 100.39349999997648,
      "v": 73
    },
    {
      "midi": 59,
      "hit": false,
      "t": 220469.04724999977,
      "d": 47.244000000006054,
      "v": 91
    },
    {
      "midi": 57,
      "hit": false,
      "t": 220614.71624999976,
      "d": 218.50349999999162,
      "v": 91
    },
    {
      "midi": 66,
      "hit": false,
      "t": 220614.71624999976,
      "d": 223.4247500000056,
      "v": 91
    },
    {
      "midi": 62,
      "hit": false,
      "t": 220614.71624999976,
      "d": 236.22000000000116,
      "v": 82
    },
    {
      "midi": 28,
      "hit": false,
      "t": 220616.68474999975,
      "d": 189.96025000000373,
      "v": 82
    },
    {
      "midi": 64,
      "hit": false,
      "t": 220929.67624999976,
      "d": 100.39350000000559,
      "v": 100
    },
    {
      "midi": 55,
      "hit": false,
      "t": 220929.67624999976,
      "d": 118.11000000001513,
      "v": 91
    },
    {
      "midi": 59,
      "hit": false,
      "t": 220929.67624999976,
      "d": 118.11000000001513,
      "v": 100
    },
    {
      "midi": 40,
      "hit": false,
      "t": 220939.51874999976,
      "d": 90.55100000000675,
      "v": 73
    },
    {
      "midi": 28,
      "hit": false,
      "t": 221094.04599999977,
      "d": 167.3225000000093,
      "v": 82
    },
    {
      "midi": 59,
      "hit": false,
      "t": 221411.9587499998,
      "d": 51.180999999982305,
      "v": 91
    },
    {
      "midi": 64,
      "hit": false,
      "t": 221411.9587499998,
      "d": 63.97624999997788,
      "v": 91
    },
    {
      "midi": 40,
      "hit": false,
      "t": 221411.9587499998,
      "d": 98.42499999998836,
      "v": 73
    },
    {
      "midi": 55,
      "hit": false,
      "t": 221413.92724999978,
      "d": 47.244000000006054,
      "v": 91
    },
    {
      "midi": 28,
      "hit": false,
      "t": 221559.59624999977,
      "d": 193.89725000000908,
      "v": 82
    },
    {
      "midi": 54,
      "hit": false,
      "t": 221564.51749999978,
      "d": 216.5350000000035,
      "v": 91
    },
    {
      "midi": 62,
      "hit": false,
      "t": 221564.51749999978,
      "d": 228.34599999999045,
      "v": 82
    },
    {
      "midi": 57,
      "hit": false,
      "t": 221564.51749999978,
      "d": 243.10975000000326,
      "v": 73
    },
    {
      "midi": 52,
      "hit": false,
      "t": 221876.52474999978,
      "d": 125.98400000002584,
      "v": 91
    },
    {
      "midi": 55,
      "hit": false,
      "t": 221876.52474999978,
      "d": 130.9052500000398,
      "v": 100
    },
    {
      "midi": 59,
      "hit": false,
      "t": 221879.47749999978,
      "d": 108.2675000000163,
      "v": 92
    },
    {
      "midi": 40,
      "hit": false,
      "t": 221884.3987499998,
      "d": 100.39350000000559,
      "v": 82
    },
    {
      "midi": 28,
      "hit": false,
      "t": 222036.95749999981,
      "d": 177.16500000000815,
      "v": 82
    },
    {
      "midi": 40,
      "hit": false,
      "t": 222351.91749999984,
      "d": 98.42499999998836,
      "v": 82
    },
    {
      "midi": 55,
      "hit": false,
      "t": 222356.83874999985,
      "d": 51.180999999982305,
      "v": 91
    },
    {
      "midi": 59,
      "hit": false,
      "t": 222356.83874999985,
      "d": 63.97624999997788,
      "v": 91
    },
    {
      "midi": 52,
      "hit": false,
      "t": 222358.80724999984,
      "d": 47.244000000006054,
      "v": 91
    },
    {
      "midi": 50,
      "hit": false,
      "t": 222504.47624999983,
      "d": 218.50349999999162,
      "v": 91
    },
    {
      "midi": 57,
      "hit": false,
      "t": 222504.47624999983,
      "d": 223.4247500000056,
      "v": 91
    },
    {
      "midi": 54,
      "hit": false,
      "t": 222504.47624999983,
      "d": 236.22000000000116,
      "v": 82
    },
    {
      "midi": 28,
      "hit": false,
      "t": 222506.44474999982,
      "d": 187.00750000000698,
      "v": 82
    },
    {
      "midi": 55,
      "hit": false,
      "t": 222819.43624999982,
      "d": 100.39350000000559,
      "v": 100
    },
    {
      "midi": 47,
      "hit": false,
      "t": 222819.43624999982,
      "d": 118.11000000001513,
      "v": 88
    },
    {
      "midi": 52,
      "hit": false,
      "t": 222819.43624999982,
      "d": 118.11000000001513,
      "v": 91
    },
    {
      "midi": 40,
      "hit": false,
      "t": 222824.35749999984,
      "d": 98.42499999998836,
      "v": 82
    },
    {
      "midi": 36,
      "hit": false,
      "t": 222971.99499999985,
      "d": 1855.3112499999988,
      "v": 73
    },
    {
      "midi": 48,
      "hit": false,
      "t": 222973.96349999984,
      "d": 1855.3112499999988,
      "v": 89
    },
    {
      "midi": 55,
      "hit": false,
      "t": 222976.91624999983,
      "d": 1837.5947499999893,
      "v": 98
    },
    {
      "midi": 64,
      "hit": false,
      "t": 222976.91624999983,
      "d": 1842.5160000000033,
      "v": 103
    },
    {
      "midi": 60,
      "hit": false,
      "t": 222978.88474999982,
      "d": 1863.1852500000095,
      "v": 109
    },
    {
      "midi": 63,
      "hit": false,
      "t": 224871.59749999983,
      "d": 374.01499999998487,
      "v": 100
    },
    {
      "midi": 54,
      "hit": false,
      "t": 224871.59749999983,
      "d": 378.93624999999884,
      "v": 100
    },
    {
      "midi": 59,
      "hit": false,
      "t": 224871.59749999983,
      "d": 380.90474999998696,
      "v": 109
    },
    {
      "midi": 47,
      "hit": false,
      "t": 224876.51874999984,
      "d": 344.48749999998836,
      "v": 82
    },
    {
      "midi": 35,
      "hit": false,
      "t": 224876.51874999984,
      "d": 346.4559999999765,
      "v": 64
    },
    {
      "midi": 59,
      "hit": false,
      "t": 225344.0374999998,
      "d": 383.8574999999837,
      "v": 109
    },
    {
      "midi": 54,
      "hit": false,
      "t": 225344.0374999998,
      "d": 388.7787499999977,
      "v": 100
    },
    {
      "midi": 35,
      "hit": false,
      "t": 225346.0059999998,
      "d": 359.25125000000116,
      "v": 73
    },
    {
      "midi": 47,
      "hit": false,
      "t": 225346.0059999998,
      "d": 372.04649999999674,
      "v": 82
    },
    {
      "midi": 63,
      "hit": false,
      "t": 225346.0059999998,
      "d": 372.04649999999674,
      "v": 100
    },
    {
      "midi": 54,
      "hit": false,
      "t": 225816.4774999998,
      "d": 385.8259999999718,
      "v": 91
    },
    {
      "midi": 59,
      "hit": false,
      "t": 225816.4774999998,
      "d": 385.8259999999718,
      "v": 100
    },
    {
      "midi": 63,
      "hit": false,
      "t": 225818.4459999998,
      "d": 362.2039999999979,
      "v": 109
    },
    {
      "midi": 35,
      "hit": false,
      "t": 225821.3987499998,
      "d": 351.37724999999045,
      "v": 73
    },
    {
      "midi": 47,
      "hit": false,
      "t": 225823.36724999978,
      "d": 349.4087500000023,
      "v": 82
    },
    {
      "midi": 35,
      "hit": false,
      "t": 226288.91749999978,
      "d": 356.2984999999753,
      "v": 76
    },
    {
      "midi": 47,
      "hit": false,
      "t": 226290.88599999977,
      "d": 327.7552499999874,
      "v": 81
    },
    {
      "midi": 54,
      "hit": false,
      "t": 226290.88599999977,
      "d": 421.2589999999909,
      "v": 91
    },
    {
      "midi": 59,
      "hit": false,
      "t": 226290.88599999977,
      "d": 428.148749999993,
      "v": 109
    },
    {
      "midi": 63,
      "hit": false,
      "t": 226293.83874999976,
      "d": 423.22750000000815,
      "v": 109
    },
    {
      "midi": 64,
      "hit": false,
      "t": 226761.35749999975,
      "d": 231.2987499999872,
      "v": 91
    },
    {
      "midi": 55,
      "hit": false,
      "t": 226761.35749999975,
      "d": 236.22000000000116,
      "v": 82
    },
    {
      "midi": 60,
      "hit": false,
      "t": 226761.35749999975,
      "d": 243.10975000000326,
      "v": 91
    },
    {
      "midi": 36,
      "hit": false,
      "t": 226763.32599999974,
      "d": 180.1177500000049,
      "v": 82
    },
    {
      "midi": 48,
      "hit": false,
      "t": 227081.23874999976,
      "d": 80.70849999997881,
      "v": 75
    },
    {
      "midi": 55,
      "hit": false,
      "t": 227083.20724999974,
      "d": 49.21249999999418,
      "v": 73
    },
    {
      "midi": 64,
      "hit": false,
      "t": 227083.20724999974,
      "d": 52.16524999999092,
      "v": 82
    },
    {
      "midi": 60,
      "hit": false,
      "t": 227083.20724999974,
      "d": 57.08650000000489,
      "v": 82
    },
    {
      "midi": 36,
      "hit": false,
      "t": 227230.84474999973,
      "d": 214.56649999998626,
      "v": 82
    },
    {
      "midi": 57,
      "hit": false,
      "t": 227233.79749999972,
      "d": 218.50349999999162,
      "v": 91
    },
    {
      "midi": 66,
      "hit": false,
      "t": 227233.79749999972,
      "d": 223.4247500000056,
      "v": 91
    },
    {
      "midi": 62,
      "hit": false,
      "t": 227235.7659999997,
      "d": 236.22000000003027,
      "v": 91
    },
    {
      "midi": 64,
      "hit": false,
      "t": 227550.72599999973,
      "d": 137.7949999999837,
      "v": 100
    },
    {
      "midi": 60,
      "hit": false,
      "t": 227553.67874999973,
      "d": 113.18875000000116,
      "v": 91
    },
    {
      "midi": 67,
      "hit": false,
      "t": 227553.67874999973,
      "d": 113.18875000000116,
      "v": 91
    },
    {
      "midi": 48,
      "hit": false,
      "t": 227555.64724999972,
      "d": 86.6140000000014,
      "v": 73
    },
    {
      "midi": 36,
      "hit": false,
      "t": 227703.28474999973,
      "d": 140.74775000000955,
      "v": 91
    },
    {
      "midi": 64,
      "hit": false,
      "t": 228026.11874999973,
      "d": 51.180999999982305,
      "v": 91
    },
    {
      "midi": 67,
      "hit": false,
      "t": 228026.11874999973,
      "d": 63.97624999997788,
      "v": 91
    },
    {
      "midi": 48,
      "hit": false,
      "t": 228026.11874999973,
      "d": 100.39349999997648,
      "v": 73
    },
    {
      "midi": 60,
      "hit": false,
      "t": 228028.08724999972,
      "d": 47.244000000006054,
      "v": 91
    },
    {
      "midi": 57,
      "hit": false,
      "t": 228173.75624999971,
      "d": 218.50349999999162,
      "v": 91
    },
    {
      "midi": 66,
      "hit": false,
      "t": 228173.75624999971,
      "d": 223.4247500000056,
      "v": 91
    },
    {
      "midi": 62,
      "hit": false,
      "t": 228173.75624999971,
      "d": 236.22000000000116,
      "v": 82
    },
    {
      "midi": 36,
      "hit": false,
      "t": 228175.7247499997,
      "d": 189.96025000000373,
      "v": 82
    },
    {
      "midi": 64,
      "hit": false,
      "t": 228488.7162499997,
      "d": 100.39350000000559,
      "v": 100
    },
    {
      "midi": 55,
      "hit": false,
      "t": 228488.7162499997,
      "d": 118.11000000001513,
      "v": 91
    },
    {
      "midi": 60,
      "hit": false,
      "t": 228488.7162499997,
      "d": 118.11000000001513,
      "v": 100
    },
    {
      "midi": 48,
      "hit": false,
      "t": 228498.5587499997,
      "d": 90.55100000000675,
      "v": 73
    },
    {
      "midi": 36,
      "hit": false,
      "t": 228653.08599999972,
      "d": 167.3225000000093,
      "v": 82
    },
    {
      "midi": 60,
      "hit": false,
      "t": 228970.99874999974,
      "d": 51.180999999982305,
      "v": 91
    },
    {
      "midi": 64,
      "hit": false,
      "t": 228970.99874999974,
      "d": 63.97624999997788,
      "v": 91
    },
    {
      "midi": 48,
      "hit": false,
      "t": 228970.99874999974,
      "d": 98.42499999998836,
      "v": 73
    },
    {
      "midi": 55,
      "hit": false,
      "t": 228972.96724999973,
      "d": 47.244000000006054,
      "v": 91
    },
    {
      "midi": 36,
      "hit": false,
      "t": 229118.63624999972,
      "d": 193.89725000000908,
      "v": 82
    },
    {
      "midi": 57,
      "hit": false,
      "t": 229123.55749999973,
      "d": 216.5350000000035,
      "v": 91
    },
    {
      "midi": 66,
      "hit": false,
      "t": 229123.55749999973,
      "d": 228.34599999999045,
      "v": 82
    },
    {
      "midi": 62,
      "hit": false,
      "t": 229123.55749999973,
      "d": 243.10975000000326,
      "v": 73
    },
    {
      "midi": 60,
      "hit": false,
      "t": 229435.56474999973,
      "d": 125.98400000002584,
      "v": 91
    },
    {
      "midi": 64,
      "hit": false,
      "t": 229435.56474999973,
      "d": 130.9052500000398,
      "v": 100
    },
    {
      "midi": 67,
      "hit": false,
      "t": 229438.51749999973,
      "d": 108.2675000000163,
      "v": 100
    },
    {
      "midi": 48,
      "hit": false,
      "t": 229443.43874999974,
      "d": 100.39350000000559,
      "v": 82
    },
    {
      "midi": 36,
      "hit": false,
      "t": 229595.99749999976,
      "d": 177.16500000000815,
      "v": 82
    },
    {
      "midi": 48,
      "hit": false,
      "t": 229910.9574999998,
      "d": 98.42499999998836,
      "v": 82
    },
    {
      "midi": 64,
      "hit": false,
      "t": 229915.8787499998,
      "d": 51.180999999982305,
      "v": 91
    },
    {
      "midi": 67,
      "hit": false,
      "t": 229915.8787499998,
      "d": 63.97624999997788,
      "v": 91
    },
    {
      "midi": 60,
      "hit": false,
      "t": 229917.8472499998,
      "d": 47.244000000006054,
      "v": 91
    },
    {
      "midi": 57,
      "hit": false,
      "t": 230063.51624999978,
      "d": 218.50349999999162,
      "v": 91
    },
    {
      "midi": 66,
      "hit": false,
      "t": 230063.51624999978,
      "d": 223.4247500000056,
      "v": 91
    },
    {
      "midi": 62,
      "hit": false,
      "t": 230063.51624999978,
      "d": 236.22000000000116,
      "v": 82
    },
    {
      "midi": 36,
      "hit": false,
      "t": 230065.48474999977,
      "d": 187.00750000000698,
      "v": 82
    },
    {
      "midi": 64,
      "hit": false,
      "t": 230378.47624999977,
      "d": 100.39350000000559,
      "v": 100
    },
    {
      "midi": 55,
      "hit": false,
      "t": 230378.47624999977,
      "d": 118.11000000001513,
      "v": 91
    },
    {
      "midi": 60,
      "hit": false,
      "t": 230378.47624999977,
      "d": 118.11000000001513,
      "v": 100
    },
    {
      "midi": 48,
      "hit": false,
      "t": 230383.3974999998,
      "d": 98.42499999998836,
      "v": 82
    },
    {
      "midi": 28,
      "hit": false,
      "t": 230542.8459999998,
      "d": 180.1177500000049,
      "v": 82
    },
    {
      "midi": 40,
      "hit": false,
      "t": 230860.7587499998,
      "d": 80.70849999997881,
      "v": 75
    },
    {
      "midi": 55,
      "hit": false,
      "t": 230862.7272499998,
      "d": 49.21249999999418,
      "v": 73
    },
    {
      "midi": 64,
      "hit": false,
      "t": 230862.7272499998,
      "d": 52.16524999999092,
      "v": 82
    },
    {
      "midi": 59,
      "hit": false,
      "t": 230862.7272499998,
      "d": 57.08650000000489,
      "v": 82
    },
    {
      "midi": 28,
      "hit": false,
      "t": 231010.36474999978,
      "d": 214.56649999998626,
      "v": 82
    },
    {
      "midi": 57,
      "hit": false,
      "t": 231013.31749999977,
      "d": 218.50349999999162,
      "v": 91
    },
    {
      "midi": 66,
      "hit": false,
      "t": 231013.31749999977,
      "d": 223.4247500000056,
      "v": 91
    },
    {
      "midi": 62,
      "hit": false,
      "t": 231015.28599999976,
      "d": 236.22000000003027,
      "v": 91
    },
    {
      "midi": 64,
      "hit": false,
      "t": 231333.19874999978,
      "d": 137.7949999999837,
      "v": 100
    },
    {
      "midi": 40,
      "hit": false,
      "t": 231335.16724999977,
      "d": 86.6140000000014,
      "v": 73
    },
    {
      "midi": 59,
      "hit": false,
      "t": 231335.16724999977,
      "d": 113.18875000000116,
      "v": 91
    },
    {
      "midi": 67,
      "hit": false,
      "t": 231335.16724999977,
      "d": 113.18875000000116,
      "v": 91
    },
    {
      "midi": 28,
      "hit": false,
      "t": 231482.80474999975,
      "d": 140.74775000000955,
      "v": 91
    },
    {
      "midi": 64,
      "hit": false,
      "t": 231805.63874999975,
      "d": 51.180999999982305,
      "v": 91
    },
    {
      "midi": 67,
      "hit": false,
      "t": 231805.63874999975,
      "d": 63.97624999997788,
      "v": 91
    },
    {
      "midi": 40,
      "hit": false,
      "t": 231805.63874999975,
      "d": 100.39349999997648,
      "v": 73
    },
    {
      "midi": 59,
      "hit": false,
      "t": 231807.60724999974,
      "d": 47.244000000006054,
      "v": 91
    },
    {
      "midi": 57,
      "hit": false,
      "t": 231953.27624999973,
      "d": 218.50349999999162,
      "v": 91
    },
    {
      "midi": 66,
      "hit": false,
      "t": 231953.27624999973,
      "d": 223.4247500000056,
      "v": 91
    },
    {
      "midi": 62,
      "hit": false,
      "t": 231953.27624999973,
      "d": 236.22000000000116,
      "v": 82
    },
    {
      "midi": 28,
      "hit": false,
      "t": 231955.24474999972,
      "d": 189.96025000000373,
      "v": 82
    },
    {
      "midi": 64,
      "hit": false,
      "t": 232268.23624999973,
      "d": 100.39350000000559,
      "v": 100
    },
    {
      "midi": 55,
      "hit": false,
      "t": 232268.23624999973,
      "d": 118.11000000001513,
      "v": 91
    },
    {
      "midi": 59,
      "hit": false,
      "t": 232268.23624999973,
      "d": 118.11000000001513,
      "v": 100
    },
    {
      "midi": 40,
      "hit": false,
      "t": 232278.07874999972,
      "d": 90.55100000000675,
      "v": 73
    },
    {
      "midi": 28,
      "hit": false,
      "t": 232432.60599999974,
      "d": 167.3225000000093,
      "v": 82
    },
    {
      "midi": 59,
      "hit": false,
      "t": 232750.51874999976,
      "d": 51.180999999982305,
      "v": 91
    },
    {
      "midi": 64,
      "hit": false,
      "t": 232750.51874999976,
      "d": 63.97624999997788,
      "v": 91
    },
    {
      "midi": 40,
      "hit": false,
      "t": 232750.51874999976,
      "d": 98.42499999998836,
      "v": 73
    },
    {
      "midi": 55,
      "hit": false,
      "t": 232752.48724999974,
      "d": 47.244000000006054,
      "v": 91
    },
    {
      "midi": 28,
      "hit": false,
      "t": 232898.15624999974,
      "d": 193.89725000000908,
      "v": 82
    },
    {
      "midi": 54,
      "hit": false,
      "t": 232903.07749999975,
      "d": 216.5350000000035,
      "v": 91
    },
    {
      "midi": 62,
      "hit": false,
      "t": 232903.07749999975,
      "d": 228.34599999999045,
      "v": 82
    },
    {
      "midi": 57,
      "hit": false,
      "t": 232903.07749999975,
      "d": 243.10975000000326,
      "v": 73
    },
    {
      "midi": 52,
      "hit": false,
      "t": 233215.08474999975,
      "d": 125.98400000002584,
      "v": 91
    },
    {
      "midi": 55,
      "hit": false,
      "t": 233215.08474999975,
      "d": 130.9052500000398,
      "v": 100
    },
    {
      "midi": 59,
      "hit": false,
      "t": 233218.03749999974,
      "d": 108.2675000000163,
      "v": 92
    },
    {
      "midi": 40,
      "hit": false,
      "t": 233222.95874999976,
      "d": 100.39350000000559,
      "v": 82
    },
    {
      "midi": 28,
      "hit": false,
      "t": 233375.51749999978,
      "d": 177.16500000000815,
      "v": 82
    },
    {
      "midi": 40,
      "hit": false,
      "t": 233690.4774999998,
      "d": 98.42499999998836,
      "v": 82
    },
    {
      "midi": 55,
      "hit": false,
      "t": 233695.39874999982,
      "d": 51.180999999982305,
      "v": 91
    },
    {
      "midi": 59,
      "hit": false,
      "t": 233695.39874999982,
      "d": 63.97624999997788,
      "v": 91
    },
    {
      "midi": 52,
      "hit": false,
      "t": 233697.3672499998,
      "d": 47.244000000006054,
      "v": 91
    },
    {
      "midi": 50,
      "hit": false,
      "t": 233843.0362499998,
      "d": 218.50349999999162,
      "v": 91
    },
    {
      "midi": 57,
      "hit": false,
      "t": 233843.0362499998,
      "d": 223.4247500000056,
      "v": 91
    },
    {
      "midi": 54,
      "hit": false,
      "t": 233843.0362499998,
      "d": 236.22000000000116,
      "v": 82
    },
    {
      "midi": 28,
      "hit": false,
      "t": 233845.0047499998,
      "d": 187.00750000000698,
      "v": 82
    },
    {
      "midi": 55,
      "hit": false,
      "t": 234157.9962499998,
      "d": 100.39350000000559,
      "v": 100
    },
    {
      "midi": 47,
      "hit": false,
      "t": 234157.9962499998,
      "d": 118.11000000001513,
      "v": 88
    },
    {
      "midi": 52,
      "hit": false,
      "t": 234157.9962499998,
      "d": 118.11000000001513,
      "v": 91
    },
    {
      "midi": 40,
      "hit": false,
      "t": 234162.9174999998,
      "d": 98.42499999998836,
      "v": 82
    },
    {
      "midi": 36,
      "hit": false,
      "t": 234322.3659999998,
      "d": 180.1177500000049,
      "v": 82
    },
    {
      "midi": 48,
      "hit": false,
      "t": 234640.27874999982,
      "d": 80.70849999997881,
      "v": 75
    },
    {
      "midi": 55,
      "hit": false,
      "t": 234642.2472499998,
      "d": 49.21249999999418,
      "v": 73
    },
    {
      "midi": 64,
      "hit": false,
      "t": 234642.2472499998,
      "d": 52.16524999999092,
      "v": 82
    },
    {
      "midi": 60,
      "hit": false,
      "t": 234642.2472499998,
      "d": 57.08650000000489,
      "v": 82
    },
    {
      "midi": 36,
      "hit": false,
      "t": 234789.8847499998,
      "d": 214.56649999998626,
      "v": 82
    },
    {
      "midi": 57,
      "hit": false,
      "t": 234792.8374999998,
      "d": 218.50349999999162,
      "v": 91
    },
    {
      "midi": 66,
      "hit": false,
      "t": 234792.8374999998,
      "d": 223.4247500000056,
      "v": 91
    },
    {
      "midi": 62,
      "hit": false,
      "t": 234794.80599999978,
      "d": 236.22000000003027,
      "v": 91
    },
    {
      "midi": 64,
      "hit": false,
      "t": 235112.7187499998,
      "d": 137.7949999999837,
      "v": 100
    },
    {
      "midi": 48,
      "hit": false,
      "t": 235114.68724999978,
      "d": 86.6140000000014,
      "v": 73
    },
    {
      "midi": 60,
      "hit": false,
      "t": 235114.68724999978,
      "d": 113.18875000000116,
      "v": 91
    },
    {
      "midi": 67,
      "hit": false,
      "t": 235114.68724999978,
      "d": 113.18875000000116,
      "v": 91
    },
    {
      "midi": 36,
      "hit": false,
      "t": 235262.32474999977,
      "d": 140.74775000000955,
      "v": 91
    },
    {
      "midi": 64,
      "hit": false,
      "t": 235585.15874999977,
      "d": 51.180999999982305,
      "v": 91
    },
    {
      "midi": 67,
      "hit": false,
      "t": 235585.15874999977,
      "d": 63.97624999997788,
      "v": 91
    },
    {
      "midi": 48,
      "hit": false,
      "t": 235585.15874999977,
      "d": 100.39349999997648,
      "v": 73
    },
    {
      "midi": 60,
      "hit": false,
      "t": 235587.12724999976,
      "d": 47.244000000006054,
      "v": 91
    },
    {
      "midi": 57,
      "hit": false,
      "t": 235732.79624999975,
      "d": 218.50349999999162,
      "v": 91
    },
    {
      "midi": 66,
      "hit": false,
      "t": 235732.79624999975,
      "d": 223.4247500000056,
      "v": 91
    },
    {
      "midi": 62,
      "hit": false,
      "t": 235732.79624999975,
      "d": 236.22000000000116,
      "v": 82
    },
    {
      "midi": 36,
      "hit": false,
      "t": 235734.76474999974,
      "d": 189.96025000000373,
      "v": 82
    },
    {
      "midi": 64,
      "hit": false,
      "t": 236047.75624999974,
      "d": 100.39350000000559,
      "v": 100
    },
    {
      "midi": 55,
      "hit": false,
      "t": 236047.75624999974,
      "d": 118.11000000001513,
      "v": 91
    },
    {
      "midi": 60,
      "hit": false,
      "t": 236047.75624999974,
      "d": 118.11000000001513,
      "v": 100
    },
    {
      "midi": 48,
      "hit": false,
      "t": 236057.59874999974,
      "d": 90.55100000000675,
      "v": 73
    },
    {
      "midi": 36,
      "hit": false,
      "t": 236212.12599999976,
      "d": 167.3225000000093,
      "v": 82
    },
    {
      "midi": 60,
      "hit": false,
      "t": 236530.03874999977,
      "d": 51.180999999982305,
      "v": 91
    },
    {
      "midi": 64,
      "hit": false,
      "t": 236530.03874999977,
      "d": 63.97624999997788,
      "v": 91
    },
    {
      "midi": 48,
      "hit": false,
      "t": 236530.03874999977,
      "d": 98.42499999998836,
      "v": 73
    },
    {
      "midi": 55,
      "hit": false,
      "t": 236532.00724999976,
      "d": 47.244000000006054,
      "v": 91
    },
    {
      "midi": 36,
      "hit": false,
      "t": 236677.67624999976,
      "d": 193.89725000000908,
      "v": 82
    },
    {
      "midi": 57,
      "hit": false,
      "t": 236682.59749999977,
      "d": 216.5350000000035,
      "v": 91
    },
    {
      "midi": 66,
      "hit": false,
      "t": 236682.59749999977,
      "d": 228.34599999999045,
      "v": 82
    },
    {
      "midi": 62,
      "hit": false,
      "t": 236682.59749999977,
      "d": 243.10975000000326,
      "v": 73
    },
    {
      "midi": 60,
      "hit": false,
      "t": 236994.60474999977,
      "d": 125.98400000002584,
      "v": 91
    },
    {
      "midi": 64,
      "hit": false,
      "t": 236994.60474999977,
      "d": 130.9052500000398,
      "v": 100
    },
    {
      "midi": 67,
      "hit": false,
      "t": 236997.55749999976,
      "d": 108.2675000000163,
      "v": 100
    },
    {
      "midi": 48,
      "hit": false,
      "t": 237002.47874999978,
      "d": 100.39350000000559,
      "v": 82
    },
    {
      "midi": 36,
      "hit": false,
      "t": 237155.0374999998,
      "d": 177.16500000000815,
      "v": 82
    },
    {
      "midi": 48,
      "hit": false,
      "t": 237469.99749999982,
      "d": 98.42499999998836,
      "v": 82
    },
    {
      "midi": 64,
      "hit": false,
      "t": 237474.91874999984,
      "d": 51.180999999982305,
      "v": 91
    },
    {
      "midi": 67,
      "hit": false,
      "t": 237474.91874999984,
      "d": 63.97624999997788,
      "v": 91
    },
    {
      "midi": 60,
      "hit": false,
      "t": 237476.88724999983,
      "d": 47.244000000006054,
      "v": 91
    },
    {
      "midi": 57,
      "hit": false,
      "t": 237622.55624999982,
      "d": 218.50349999999162,
      "v": 91
    },
    {
      "midi": 66,
      "hit": false,
      "t": 237622.55624999982,
      "d": 223.4247500000056,
      "v": 91
    },
    {
      "midi": 62,
      "hit": false,
      "t": 237622.55624999982,
      "d": 236.22000000000116,
      "v": 82
    },
    {
      "midi": 36,
      "hit": false,
      "t": 237624.5247499998,
      "d": 187.00750000000698,
      "v": 82
    },
    {
      "midi": 64,
      "hit": false,
      "t": 237937.5162499998,
      "d": 100.39350000000559,
      "v": 100
    },
    {
      "midi": 55,
      "hit": false,
      "t": 237937.5162499998,
      "d": 118.11000000001513,
      "v": 91
    },
    {
      "midi": 60,
      "hit": false,
      "t": 237937.5162499998,
      "d": 118.11000000001513,
      "v": 100
    },
    {
      "midi": 48,
      "hit": false,
      "t": 237942.43749999983,
      "d": 98.42499999998836,
      "v": 82
    },
    {
      "midi": 28,
      "hit": false,
      "t": 238101.88599999982,
      "d": 180.1177500000049,
      "v": 82
    },
    {
      "midi": 40,
      "hit": false,
      "t": 238419.79874999984,
      "d": 80.70849999997881,
      "v": 75
    },
    {
      "midi": 55,
      "hit": false,
      "t": 238421.76724999983,
      "d": 49.21249999999418,
      "v": 73
    },
    {
      "midi": 64,
      "hit": false,
      "t": 238421.76724999983,
      "d": 52.16524999999092,
      "v": 82
    },
    {
      "midi": 59,
      "hit": false,
      "t": 238421.76724999983,
      "d": 57.08650000000489,
      "v": 82
    },
    {
      "midi": 28,
      "hit": false,
      "t": 238569.4047499998,
      "d": 214.56649999998626,
      "v": 82
    },
    {
      "midi": 57,
      "hit": false,
      "t": 238569.4047499998,
      "d": 219.48775000000023,
      "v": 91
    },
    {
      "midi": 62,
      "hit": false,
      "t": 238569.4047499998,
      "d": 236.22000000000116,
      "v": 91
    },
    {
      "midi": 66,
      "hit": false,
      "t": 238572.3574999998,
      "d": 223.4247500000056,
      "v": 91
    },
    {
      "midi": 64,
      "hit": false,
      "t": 238892.23874999981,
      "d": 137.7949999999837,
      "v": 100
    },
    {
      "midi": 40,
      "hit": false,
      "t": 238894.2072499998,
      "d": 86.6140000000014,
      "v": 73
    },
    {
      "midi": 59,
      "hit": false,
      "t": 238894.2072499998,
      "d": 113.18875000000116,
      "v": 91
    },
    {
      "midi": 67,
      "hit": false,
      "t": 238894.2072499998,
      "d": 113.18875000000116,
      "v": 91
    },
    {
      "midi": 28,
      "hit": false,
      "t": 239041.8447499998,
      "d": 140.74775000000955,
      "v": 91
    },
    {
      "midi": 64,
      "hit": false,
      "t": 239364.6787499998,
      "d": 51.180999999982305,
      "v": 91
    },
    {
      "midi": 67,
      "hit": false,
      "t": 239364.6787499998,
      "d": 63.97624999997788,
      "v": 91
    },
    {
      "midi": 40,
      "hit": false,
      "t": 239364.6787499998,
      "d": 100.39349999997648,
      "v": 73
    },
    {
      "midi": 59,
      "hit": false,
      "t": 239366.64724999978,
      "d": 47.244000000006054,
      "v": 91
    },
    {
      "midi": 57,
      "hit": false,
      "t": 239512.31624999977,
      "d": 218.50349999999162,
      "v": 91
    },
    {
      "midi": 66,
      "hit": false,
      "t": 239512.31624999977,
      "d": 223.4247500000056,
      "v": 91
    },
    {
      "midi": 62,
      "hit": false,
      "t": 239512.31624999977,
      "d": 236.22000000000116,
      "v": 82
    },
    {
      "midi": 28,
      "hit": false,
      "t": 239514.28474999976,
      "d": 189.96025000000373,
      "v": 82
    },
    {
      "midi": 64,
      "hit": false,
      "t": 239827.27624999976,
      "d": 100.39350000000559,
      "v": 100
    },
    {
      "midi": 55,
      "hit": false,
      "t": 239827.27624999976,
      "d": 118.11000000001513,
      "v": 91
    },
    {
      "midi": 59,
      "hit": false,
      "t": 239827.27624999976,
      "d": 118.11000000001513,
      "v": 100
    },
    {
      "midi": 40,
      "hit": false,
      "t": 239837.11874999976,
      "d": 90.55100000000675,
      "v": 73
    },
    {
      "midi": 28,
      "hit": false,
      "t": 239991.64599999978,
      "d": 167.3225000000093,
      "v": 82
    },
    {
      "midi": 59,
      "hit": false,
      "t": 240309.5587499998,
      "d": 51.180999999982305,
      "v": 91
    },
    {
      "midi": 64,
      "hit": false,
      "t": 240309.5587499998,
      "d": 63.97624999997788,
      "v": 91
    },
    {
      "midi": 40,
      "hit": false,
      "t": 240309.5587499998,
      "d": 98.42499999998836,
      "v": 73
    },
    {
      "midi": 55,
      "hit": false,
      "t": 240311.52724999978,
      "d": 47.244000000006054,
      "v": 91
    },
    {
      "midi": 28,
      "hit": false,
      "t": 240457.19624999978,
      "d": 193.89725000000908,
      "v": 82
    },
    {
      "midi": 54,
      "hit": false,
      "t": 240462.1174999998,
      "d": 216.5350000000035,
      "v": 91
    },
    {
      "midi": 62,
      "hit": false,
      "t": 240462.1174999998,
      "d": 228.34599999999045,
      "v": 82
    },
    {
      "midi": 57,
      "hit": false,
      "t": 240462.1174999998,
      "d": 243.10975000000326,
      "v": 73
    },
    {
      "midi": 52,
      "hit": false,
      "t": 240774.12474999978,
      "d": 125.98400000002584,
      "v": 91
    },
    {
      "midi": 55,
      "hit": false,
      "t": 240774.12474999978,
      "d": 130.9052500000398,
      "v": 100
    },
    {
      "midi": 59,
      "hit": false,
      "t": 240777.07749999978,
      "d": 108.2675000000163,
      "v": 92
    },
    {
      "midi": 40,
      "hit": false,
      "t": 240781.9987499998,
      "d": 100.39350000000559,
      "v": 82
    },
    {
      "midi": 28,
      "hit": false,
      "t": 240934.55749999982,
      "d": 177.16500000000815,
      "v": 82
    },
    {
      "midi": 40,
      "hit": false,
      "t": 241249.51749999984,
      "d": 98.42499999998836,
      "v": 82
    },
    {
      "midi": 55,
      "hit": false,
      "t": 241254.43874999986,
      "d": 51.180999999982305,
      "v": 91
    },
    {
      "midi": 59,
      "hit": false,
      "t": 241254.43874999986,
      "d": 63.97624999997788,
      "v": 91
    },
    {
      "midi": 52,
      "hit": false,
      "t": 241256.40724999984,
      "d": 47.244000000006054,
      "v": 91
    },
    {
      "midi": 50,
      "hit": false,
      "t": 241402.07624999984,
      "d": 218.50349999999162,
      "v": 91
    },
    {
      "midi": 57,
      "hit": false,
      "t": 241402.07624999984,
      "d": 223.4247500000056,
      "v": 91
    },
    {
      "midi": 54,
      "hit": false,
      "t": 241402.07624999984,
      "d": 236.22000000000116,
      "v": 82
    },
    {
      "midi": 28,
      "hit": false,
      "t": 241404.04474999983,
      "d": 187.00750000000698,
      "v": 82
    },
    {
      "midi": 55,
      "hit": false,
      "t": 241717.03624999983,
      "d": 100.39350000000559,
      "v": 100
    },
    {
      "midi": 47,
      "hit": false,
      "t": 241717.03624999983,
      "d": 118.11000000001513,
      "v": 88
    },
    {
      "midi": 52,
      "hit": false,
      "t": 241717.03624999983,
      "d": 118.11000000001513,
      "v": 91
    },
    {
      "midi": 40,
      "hit": false,
      "t": 241721.95749999984,
      "d": 98.42499999998836,
      "v": 82
    },
    {
      "midi": 36,
      "hit": false,
      "t": 241881.40599999984,
      "d": 180.1177500000049,
      "v": 82
    },
    {
      "midi": 48,
      "hit": false,
      "t": 242199.31874999986,
      "d": 80.70849999997881,
      "v": 75
    },
    {
      "midi": 55,
      "hit": false,
      "t": 242201.28724999985,
      "d": 49.21249999999418,
      "v": 73
    },
    {
      "midi": 64,
      "hit": false,
      "t": 242201.28724999985,
      "d": 52.16524999999092,
      "v": 82
    },
    {
      "midi": 60,
      "hit": false,
      "t": 242201.28724999985,
      "d": 57.08650000000489,
      "v": 82
    },
    {
      "midi": 36,
      "hit": false,
      "t": 242348.92474999983,
      "d": 214.56649999998626,
      "v": 82
    },
    {
      "midi": 57,
      "hit": false,
      "t": 242351.87749999983,
      "d": 218.50349999999162,
      "v": 91
    },
    {
      "midi": 66,
      "hit": false,
      "t": 242351.87749999983,
      "d": 223.4247500000056,
      "v": 91
    },
    {
      "midi": 62,
      "hit": false,
      "t": 242353.84599999982,
      "d": 236.22000000003027,
      "v": 91
    },
    {
      "midi": 64,
      "hit": false,
      "t": 242668.80599999984,
      "d": 137.7949999999837,
      "v": 100
    },
    {
      "midi": 60,
      "hit": false,
      "t": 242671.75874999983,
      "d": 113.18875000000116,
      "v": 91
    },
    {
      "midi": 67,
      "hit": false,
      "t": 242671.75874999983,
      "d": 113.18875000000116,
      "v": 91
    },
    {
      "midi": 48,
      "hit": false,
      "t": 242673.72724999982,
      "d": 86.6140000000014,
      "v": 73
    },
    {
      "midi": 36,
      "hit": false,
      "t": 242821.36474999983,
      "d": 140.74775000000955,
      "v": 91
    },
    {
      "midi": 64,
      "hit": false,
      "t": 243144.19874999984,
      "d": 51.180999999982305,
      "v": 91
    },
    {
      "midi": 67,
      "hit": false,
      "t": 243144.19874999984,
      "d": 63.97624999997788,
      "v": 91
    },
    {
      "midi": 48,
      "hit": false,
      "t": 243144.19874999984,
      "d": 100.39349999997648,
      "v": 73
    },
    {
      "midi": 60,
      "hit": false,
      "t": 243146.16724999982,
      "d": 47.244000000006054,
      "v": 91
    },
    {
      "midi": 57,
      "hit": false,
      "t": 243291.83624999982,
      "d": 218.50349999999162,
      "v": 91
    },
    {
      "midi": 66,
      "hit": false,
      "t": 243291.83624999982,
      "d": 223.4247500000056,
      "v": 91
    },
    {
      "midi": 62,
      "hit": false,
      "t": 243291.83624999982,
      "d": 236.22000000000116,
      "v": 82
    },
    {
      "midi": 36,
      "hit": false,
      "t": 243293.8047499998,
      "d": 189.96025000000373,
      "v": 82
    },
    {
      "midi": 64,
      "hit": false,
      "t": 243606.7962499998,
      "d": 100.39350000000559,
      "v": 100
    },
    {
      "midi": 55,
      "hit": false,
      "t": 243606.7962499998,
      "d": 118.11000000001513,
      "v": 91
    },
    {
      "midi": 60,
      "hit": false,
      "t": 243606.7962499998,
      "d": 118.11000000001513,
      "v": 100
    },
    {
      "midi": 48,
      "hit": false,
      "t": 243616.6387499998,
      "d": 90.55100000000675,
      "v": 73
    },
    {
      "midi": 36,
      "hit": false,
      "t": 243771.16599999982,
      "d": 167.3225000000093,
      "v": 82
    },
    {
      "midi": 60,
      "hit": false,
      "t": 244089.07874999984,
      "d": 51.180999999982305,
      "v": 91
    },
    {
      "midi": 64,
      "hit": false,
      "t": 244089.07874999984,
      "d": 63.97624999997788,
      "v": 91
    },
    {
      "midi": 48,
      "hit": false,
      "t": 244089.07874999984,
      "d": 98.42499999998836,
      "v": 73
    },
    {
      "midi": 55,
      "hit": false,
      "t": 244091.04724999983,
      "d": 47.244000000006054,
      "v": 91
    },
    {
      "midi": 36,
      "hit": false,
      "t": 244236.71624999982,
      "d": 193.89725000000908,
      "v": 82
    },
    {
      "midi": 57,
      "hit": false,
      "t": 244241.63749999984,
      "d": 216.5350000000035,
      "v": 91
    },
    {
      "midi": 66,
      "hit": false,
      "t": 244241.63749999984,
      "d": 228.34599999999045,
      "v": 82
    },
    {
      "midi": 62,
      "hit": false,
      "t": 244241.63749999984,
      "d": 243.10975000000326,
      "v": 73
    },
    {
      "midi": 60,
      "hit": false,
      "t": 244553.64474999983,
      "d": 125.98400000002584,
      "v": 91
    },
    {
      "midi": 64,
      "hit": false,
      "t": 244553.64474999983,
      "d": 130.9052500000398,
      "v": 100
    },
    {
      "midi": 67,
      "hit": false,
      "t": 244556.59749999983,
      "d": 108.2675000000163,
      "v": 100
    },
    {
      "midi": 48,
      "hit": false,
      "t": 244561.51874999984,
      "d": 100.39350000000559,
      "v": 82
    },
    {
      "midi": 36,
      "hit": false,
      "t": 244714.07749999987,
      "d": 177.16500000000815,
      "v": 82
    },
    {
      "midi": 48,
      "hit": false,
      "t": 245029.0374999999,
      "d": 98.42499999998836,
      "v": 82
    },
    {
      "midi": 64,
      "hit": false,
      "t": 245033.9587499999,
      "d": 51.180999999982305,
      "v": 91
    },
    {
      "midi": 67,
      "hit": false,
      "t": 245033.9587499999,
      "d": 63.97624999997788,
      "v": 91
    },
    {
      "midi": 60,
      "hit": false,
      "t": 245035.9272499999,
      "d": 47.244000000006054,
      "v": 91
    },
    {
      "midi": 57,
      "hit": false,
      "t": 245181.5962499999,
      "d": 218.50349999999162,
      "v": 91
    },
    {
      "midi": 66,
      "hit": false,
      "t": 245181.5962499999,
      "d": 223.4247500000056,
      "v": 91
    },
    {
      "midi": 62,
      "hit": false,
      "t": 245181.5962499999,
      "d": 236.22000000000116,
      "v": 82
    },
    {
      "midi": 36,
      "hit": false,
      "t": 245183.56474999987,
      "d": 187.00750000000698,
      "v": 82
    },
    {
      "midi": 64,
      "hit": false,
      "t": 245496.55624999988,
      "d": 100.39350000000559,
      "v": 100
    },
    {
      "midi": 55,
      "hit": false,
      "t": 245496.55624999988,
      "d": 118.11000000001513,
      "v": 91
    },
    {
      "midi": 60,
      "hit": false,
      "t": 245496.55624999988,
      "d": 118.11000000001513,
      "v": 100
    },
    {
      "midi": 48,
      "hit": false,
      "t": 245501.4774999999,
      "d": 98.42499999998836,
      "v": 82
    },
    {
      "midi": 28,
      "hit": false,
      "t": 245660.9259999999,
      "d": 180.1177500000049,
      "v": 82
    },
    {
      "midi": 40,
      "hit": false,
      "t": 245978.8387499999,
      "d": 80.70849999997881,
      "v": 75
    },
    {
      "midi": 55,
      "hit": false,
      "t": 245980.8072499999,
      "d": 49.21249999999418,
      "v": 73
    },
    {
      "midi": 64,
      "hit": false,
      "t": 245980.8072499999,
      "d": 52.16524999999092,
      "v": 82
    },
    {
      "midi": 59,
      "hit": false,
      "t": 245980.8072499999,
      "d": 57.08650000000489,
      "v": 82
    },
    {
      "midi": 28,
      "hit": false,
      "t": 246128.44474999988,
      "d": 214.56649999998626,
      "v": 82
    },
    {
      "midi": 57,
      "hit": false,
      "t": 246131.39749999988,
      "d": 218.50349999999162,
      "v": 91
    },
    {
      "midi": 66,
      "hit": false,
      "t": 246131.39749999988,
      "d": 223.4247500000056,
      "v": 91
    },
    {
      "midi": 62,
      "hit": false,
      "t": 246133.36599999986,
      "d": 236.22000000003027,
      "v": 91
    },
    {
      "midi": 64,
      "hit": false,
      "t": 246451.27874999988,
      "d": 137.7949999999837,
      "v": 100
    },
    {
      "midi": 40,
      "hit": false,
      "t": 246453.24724999987,
      "d": 86.6140000000014,
      "v": 73
    },
    {
      "midi": 59,
      "hit": false,
      "t": 246453.24724999987,
      "d": 113.18875000000116,
      "v": 91
    },
    {
      "midi": 67,
      "hit": false,
      "t": 246453.24724999987,
      "d": 113.18875000000116,
      "v": 91
    },
    {
      "midi": 28,
      "hit": false,
      "t": 246600.88474999985,
      "d": 140.74775000000955,
      "v": 91
    },
    {
      "midi": 64,
      "hit": false,
      "t": 246923.71874999985,
      "d": 51.180999999982305,
      "v": 91
    },
    {
      "midi": 67,
      "hit": false,
      "t": 246923.71874999985,
      "d": 63.97624999997788,
      "v": 91
    },
    {
      "midi": 40,
      "hit": false,
      "t": 246923.71874999985,
      "d": 100.39349999997648,
      "v": 73
    },
    {
      "midi": 59,
      "hit": false,
      "t": 246925.68724999984,
      "d": 47.244000000006054,
      "v": 91
    },
    {
      "midi": 57,
      "hit": false,
      "t": 247071.35624999984,
      "d": 218.50349999999162,
      "v": 91
    },
    {
      "midi": 66,
      "hit": false,
      "t": 247071.35624999984,
      "d": 223.4247500000056,
      "v": 91
    },
    {
      "midi": 62,
      "hit": false,
      "t": 247071.35624999984,
      "d": 236.22000000000116,
      "v": 82
    },
    {
      "midi": 28,
      "hit": false,
      "t": 247073.32474999983,
      "d": 189.96025000000373,
      "v": 82
    },
    {
      "midi": 64,
      "hit": false,
      "t": 247386.31624999983,
      "d": 100.39350000000559,
      "v": 100
    },
    {
      "midi": 55,
      "hit": false,
      "t": 247386.31624999983,
      "d": 118.11000000001513,
      "v": 91
    },
    {
      "midi": 59,
      "hit": false,
      "t": 247386.31624999983,
      "d": 118.11000000001513,
      "v": 100
    },
    {
      "midi": 40,
      "hit": false,
      "t": 247396.15874999983,
      "d": 90.55100000000675,
      "v": 73
    },
    {
      "midi": 28,
      "hit": false,
      "t": 247550.68599999984,
      "d": 167.3225000000093,
      "v": 82
    },
    {
      "midi": 59,
      "hit": false,
      "t": 247868.59874999986,
      "d": 51.180999999982305,
      "v": 91
    },
    {
      "midi": 64,
      "hit": false,
      "t": 247868.59874999986,
      "d": 63.97624999997788,
      "v": 91
    },
    {
      "midi": 40,
      "hit": false,
      "t": 247868.59874999986,
      "d": 98.42499999998836,
      "v": 73
    },
    {
      "midi": 55,
      "hit": false,
      "t": 247870.56724999985,
      "d": 47.244000000006054,
      "v": 91
    },
    {
      "midi": 28,
      "hit": false,
      "t": 248016.23624999984,
      "d": 193.89725000000908,
      "v": 82
    },
    {
      "midi": 54,
      "hit": false,
      "t": 248021.15749999986,
      "d": 216.5350000000035,
      "v": 91
    },
    {
      "midi": 62,
      "hit": false,
      "t": 248021.15749999986,
      "d": 228.34599999999045,
      "v": 82
    },
    {
      "midi": 57,
      "hit": false,
      "t": 248021.15749999986,
      "d": 243.10975000000326,
      "v": 73
    },
    {
      "midi": 52,
      "hit": false,
      "t": 248333.16474999985,
      "d": 125.98400000002584,
      "v": 91
    },
    {
      "midi": 55,
      "hit": false,
      "t": 248333.16474999985,
      "d": 130.9052500000398,
      "v": 100
    },
    {
      "midi": 59,
      "hit": false,
      "t": 248336.11749999985,
      "d": 108.2675000000163,
      "v": 92
    },
    {
      "midi": 40,
      "hit": false,
      "t": 248341.03874999986,
      "d": 100.39350000000559,
      "v": 82
    },
    {
      "midi": 28,
      "hit": false,
      "t": 248493.5974999999,
      "d": 177.16500000000815,
      "v": 82
    },
    {
      "midi": 40,
      "hit": false,
      "t": 248808.5574999999,
      "d": 98.42499999998836,
      "v": 82
    },
    {
      "midi": 55,
      "hit": false,
      "t": 248813.47874999992,
      "d": 51.180999999982305,
      "v": 91
    },
    {
      "midi": 59,
      "hit": false,
      "t": 248813.47874999992,
      "d": 63.97624999997788,
      "v": 91
    },
    {
      "midi": 52,
      "hit": false,
      "t": 248815.4472499999,
      "d": 47.244000000006054,
      "v": 91
    },
    {
      "midi": 50,
      "hit": false,
      "t": 248961.1162499999,
      "d": 218.50349999999162,
      "v": 91
    },
    {
      "midi": 57,
      "hit": false,
      "t": 248961.1162499999,
      "d": 223.4247500000056,
      "v": 91
    },
    {
      "midi": 54,
      "hit": false,
      "t": 248961.1162499999,
      "d": 236.22000000000116,
      "v": 82
    },
    {
      "midi": 28,
      "hit": false,
      "t": 248963.0847499999,
      "d": 187.00750000000698,
      "v": 82
    },
    {
      "midi": 55,
      "hit": false,
      "t": 249276.0762499999,
      "d": 100.39350000000559,
      "v": 100
    },
    {
      "midi": 47,
      "hit": false,
      "t": 249276.0762499999,
      "d": 118.11000000001513,
      "v": 88
    },
    {
      "midi": 52,
      "hit": false,
      "t": 249276.0762499999,
      "d": 118.11000000001513,
      "v": 91
    },
    {
      "midi": 40,
      "hit": false,
      "t": 249280.9974999999,
      "d": 98.42499999998836,
      "v": 82
    },
    {
      "midi": 36,
      "hit": false,
      "t": 249440.4459999999,
      "d": 180.1177500000049,
      "v": 82
    },
    {
      "midi": 48,
      "hit": false,
      "t": 249758.35874999993,
      "d": 80.70849999997881,
      "v": 75
    },
    {
      "midi": 55,
      "hit": false,
      "t": 249760.32724999991,
      "d": 49.21249999999418,
      "v": 73
    },
    {
      "midi": 64,
      "hit": false,
      "t": 249760.32724999991,
      "d": 52.16524999999092,
      "v": 82
    },
    {
      "midi": 60,
      "hit": false,
      "t": 249760.32724999991,
      "d": 57.08650000000489,
      "v": 82
    },
    {
      "midi": 36,
      "hit": false,
      "t": 249907.9647499999,
      "d": 214.56649999998626,
      "v": 82
    },
    {
      "midi": 57,
      "hit": false,
      "t": 249910.9174999999,
      "d": 218.50349999999162,
      "v": 91
    },
    {
      "midi": 66,
      "hit": false,
      "t": 249910.9174999999,
      "d": 223.4247500000056,
      "v": 91
    },
    {
      "midi": 62,
      "hit": false,
      "t": 249912.88599999988,
      "d": 236.22000000003027,
      "v": 91
    },
    {
      "midi": 64,
      "hit": false,
      "t": 250230.7987499999,
      "d": 137.7949999999837,
      "v": 100
    },
    {
      "midi": 48,
      "hit": false,
      "t": 250232.7672499999,
      "d": 86.6140000000014,
      "v": 73
    },
    {
      "midi": 60,
      "hit": false,
      "t": 250232.7672499999,
      "d": 113.18875000000116,
      "v": 91
    },
    {
      "midi": 67,
      "hit": false,
      "t": 250232.7672499999,
      "d": 113.18875000000116,
      "v": 91
    },
    {
      "midi": 36,
      "hit": false,
      "t": 250380.40474999987,
      "d": 140.74775000000955,
      "v": 91
    },
    {
      "midi": 64,
      "hit": false,
      "t": 250703.23874999987,
      "d": 51.180999999982305,
      "v": 91
    },
    {
      "midi": 67,
      "hit": false,
      "t": 250703.23874999987,
      "d": 63.97624999997788,
      "v": 91
    },
    {
      "midi": 48,
      "hit": false,
      "t": 250703.23874999987,
      "d": 100.39349999997648,
      "v": 73
    },
    {
      "midi": 60,
      "hit": false,
      "t": 250705.20724999986,
      "d": 47.244000000006054,
      "v": 91
    },
    {
      "midi": 57,
      "hit": false,
      "t": 250850.87624999986,
      "d": 218.50349999999162,
      "v": 91
    },
    {
      "midi": 66,
      "hit": false,
      "t": 250850.87624999986,
      "d": 223.4247500000056,
      "v": 91
    },
    {
      "midi": 62,
      "hit": false,
      "t": 250850.87624999986,
      "d": 236.22000000000116,
      "v": 82
    },
    {
      "midi": 36,
      "hit": false,
      "t": 250852.84474999984,
      "d": 189.96025000000373,
      "v": 82
    },
    {
      "midi": 64,
      "hit": false,
      "t": 251165.83624999985,
      "d": 100.39350000000559,
      "v": 100
    },
    {
      "midi": 55,
      "hit": false,
      "t": 251165.83624999985,
      "d": 118.11000000001513,
      "v": 91
    },
    {
      "midi": 60,
      "hit": false,
      "t": 251165.83624999985,
      "d": 118.11000000001513,
      "v": 100
    },
    {
      "midi": 48,
      "hit": false,
      "t": 251175.67874999985,
      "d": 90.55100000000675,
      "v": 73
    },
    {
      "midi": 36,
      "hit": false,
      "t": 251330.20599999986,
      "d": 167.3225000000093,
      "v": 82
    },
    {
      "midi": 60,
      "hit": false,
      "t": 251648.11874999988,
      "d": 51.180999999982305,
      "v": 91
    },
    {
      "midi": 64,
      "hit": false,
      "t": 251648.11874999988,
      "d": 63.97624999997788,
      "v": 91
    },
    {
      "midi": 48,
      "hit": false,
      "t": 251648.11874999988,
      "d": 98.42499999998836,
      "v": 73
    },
    {
      "midi": 55,
      "hit": false,
      "t": 251650.08724999987,
      "d": 47.244000000006054,
      "v": 91
    },
    {
      "midi": 36,
      "hit": false,
      "t": 251795.75624999986,
      "d": 193.89725000000908,
      "v": 82
    },
    {
      "midi": 57,
      "hit": false,
      "t": 251800.67749999987,
      "d": 216.5350000000035,
      "v": 91
    },
    {
      "midi": 66,
      "hit": false,
      "t": 251800.67749999987,
      "d": 228.34599999999045,
      "v": 82
    },
    {
      "midi": 62,
      "hit": false,
      "t": 251800.67749999987,
      "d": 243.10975000000326,
      "v": 73
    },
    {
      "midi": 60,
      "hit": false,
      "t": 252112.68474999987,
      "d": 125.98400000002584,
      "v": 91
    },
    {
      "midi": 64,
      "hit": false,
      "t": 252112.68474999987,
      "d": 130.9052500000398,
      "v": 100
    },
    {
      "midi": 67,
      "hit": false,
      "t": 252115.63749999987,
      "d": 108.2675000000163,
      "v": 100
    },
    {
      "midi": 48,
      "hit": false,
      "t": 252120.55874999988,
      "d": 100.39350000000559,
      "v": 82
    },
    {
      "midi": 36,
      "hit": false,
      "t": 252273.1174999999,
      "d": 177.16500000000815,
      "v": 82
    },
    {
      "midi": 48,
      "hit": false,
      "t": 252588.07749999993,
      "d": 98.42499999998836,
      "v": 82
    },
    {
      "midi": 64,
      "hit": false,
      "t": 252592.99874999994,
      "d": 51.180999999982305,
      "v": 91
    },
    {
      "midi": 67,
      "hit": false,
      "t": 252592.99874999994,
      "d": 63.97624999997788,
      "v": 91
    },
    {
      "midi": 60,
      "hit": false,
      "t": 252594.96724999993,
      "d": 47.244000000006054,
      "v": 91
    },
    {
      "midi": 57,
      "hit": false,
      "t": 252740.63624999992,
      "d": 218.50349999999162,
      "v": 91
    },
    {
      "midi": 66,
      "hit": false,
      "t": 252740.63624999992,
      "d": 223.4247500000056,
      "v": 91
    },
    {
      "midi": 62,
      "hit": false,
      "t": 252740.63624999992,
      "d": 236.22000000000116,
      "v": 82
    },
    {
      "midi": 36,
      "hit": false,
      "t": 252742.6047499999,
      "d": 187.00750000000698,
      "v": 82
    },
    {
      "midi": 64,
      "hit": false,
      "t": 253055.59624999992,
      "d": 100.39350000000559,
      "v": 100
    },
    {
      "midi": 55,
      "hit": false,
      "t": 253055.59624999992,
      "d": 118.11000000001513,
      "v": 91
    },
    {
      "midi": 60,
      "hit": false,
      "t": 253055.59624999992,
      "d": 118.11000000001513,
      "v": 100
    },
    {
      "midi": 48,
      "hit": false,
      "t": 253060.51749999993,
      "d": 98.42499999998836,
      "v": 82
    },
    {
      "midi": 28,
      "hit": false,
      "t": 253219.96599999993,
      "d": 180.1177500000049,
      "v": 82
    },
    {
      "midi": 40,
      "hit": false,
      "t": 253537.87874999995,
      "d": 80.70849999997881,
      "v": 75
    },
    {
      "midi": 55,
      "hit": false,
      "t": 253539.84724999993,
      "d": 49.21249999999418,
      "v": 73
    },
    {
      "midi": 64,
      "hit": false,
      "t": 253539.84724999993,
      "d": 52.16524999999092,
      "v": 82
    },
    {
      "midi": 59,
      "hit": false,
      "t": 253539.84724999993,
      "d": 57.08650000000489,
      "v": 82
    },
    {
      "midi": 28,
      "hit": false,
      "t": 253687.48474999992,
      "d": 214.56649999998626,
      "v": 82
    },
    {
      "midi": 57,
      "hit": false,
      "t": 253687.48474999992,
      "d": 219.48775000000023,
      "v": 91
    },
    {
      "midi": 62,
      "hit": false,
      "t": 253687.48474999992,
      "d": 236.22000000000116,
      "v": 91
    },
    {
      "midi": 66,
      "hit": false,
      "t": 253690.4374999999,
      "d": 223.4247500000056,
      "v": 91
    },
    {
      "midi": 64,
      "hit": false,
      "t": 254010.31874999992,
      "d": 137.7949999999837,
      "v": 100
    },
    {
      "midi": 40,
      "hit": false,
      "t": 254012.2872499999,
      "d": 86.6140000000014,
      "v": 73
    },
    {
      "midi": 59,
      "hit": false,
      "t": 254012.2872499999,
      "d": 113.18875000000116,
      "v": 91
    },
    {
      "midi": 67,
      "hit": false,
      "t": 254012.2872499999,
      "d": 113.18875000000116,
      "v": 91
    },
    {
      "midi": 28,
      "hit": false,
      "t": 254159.9247499999,
      "d": 140.74775000000955,
      "v": 91
    },
    {
      "midi": 64,
      "hit": false,
      "t": 254482.7587499999,
      "d": 51.180999999982305,
      "v": 91
    },
    {
      "midi": 67,
      "hit": false,
      "t": 254482.7587499999,
      "d": 63.97624999997788,
      "v": 91
    },
    {
      "midi": 40,
      "hit": false,
      "t": 254482.7587499999,
      "d": 100.39349999997648,
      "v": 73
    },
    {
      "midi": 59,
      "hit": false,
      "t": 254484.72724999988,
      "d": 47.244000000006054,
      "v": 91
    },
    {
      "midi": 57,
      "hit": false,
      "t": 254630.39624999987,
      "d": 218.50349999999162,
      "v": 91
    },
    {
      "midi": 66,
      "hit": false,
      "t": 254630.39624999987,
      "d": 223.4247500000056,
      "v": 91
    },
    {
      "midi": 62,
      "hit": false,
      "t": 254630.39624999987,
      "d": 236.22000000000116,
      "v": 82
    },
    {
      "midi": 28,
      "hit": false,
      "t": 254632.36474999986,
      "d": 189.96025000000373,
      "v": 82
    },
    {
      "midi": 64,
      "hit": false,
      "t": 254945.35624999987,
      "d": 100.39350000000559,
      "v": 100
    },
    {
      "midi": 55,
      "hit": false,
      "t": 254945.35624999987,
      "d": 118.11000000001513,
      "v": 91
    },
    {
      "midi": 59,
      "hit": false,
      "t": 254945.35624999987,
      "d": 118.11000000001513,
      "v": 100
    },
    {
      "midi": 40,
      "hit": false,
      "t": 254955.19874999986,
      "d": 90.55100000000675,
      "v": 73
    },
    {
      "midi": 28,
      "hit": false,
      "t": 255109.72599999988,
      "d": 167.3225000000093,
      "v": 82
    },
    {
      "midi": 59,
      "hit": false,
      "t": 255427.6387499999,
      "d": 51.180999999982305,
      "v": 91
    },
    {
      "midi": 64,
      "hit": false,
      "t": 255427.6387499999,
      "d": 63.97624999997788,
      "v": 91
    },
    {
      "midi": 40,
      "hit": false,
      "t": 255427.6387499999,
      "d": 98.42499999998836,
      "v": 73
    },
    {
      "midi": 55,
      "hit": false,
      "t": 255429.60724999988,
      "d": 47.244000000006054,
      "v": 91
    },
    {
      "midi": 28,
      "hit": false,
      "t": 255575.27624999988,
      "d": 193.89725000000908,
      "v": 82
    },
    {
      "midi": 54,
      "hit": false,
      "t": 255580.1974999999,
      "d": 216.5350000000035,
      "v": 91
    },
    {
      "midi": 62,
      "hit": false,
      "t": 255580.1974999999,
      "d": 228.34599999999045,
      "v": 82
    },
    {
      "midi": 57,
      "hit": false,
      "t": 255580.1974999999,
      "d": 243.10975000000326,
      "v": 73
    },
    {
      "midi": 52,
      "hit": false,
      "t": 255892.2047499999,
      "d": 125.98400000002584,
      "v": 91
    },
    {
      "midi": 55,
      "hit": false,
      "t": 255892.2047499999,
      "d": 130.9052500000398,
      "v": 100
    },
    {
      "midi": 59,
      "hit": false,
      "t": 255895.15749999988,
      "d": 108.2675000000163,
      "v": 92
    },
    {
      "midi": 40,
      "hit": false,
      "t": 255900.0787499999,
      "d": 100.39350000000559,
      "v": 82
    },
    {
      "midi": 28,
      "hit": false,
      "t": 256052.63749999992,
      "d": 177.16500000000815,
      "v": 82
    },
    {
      "midi": 40,
      "hit": false,
      "t": 256367.59749999995,
      "d": 98.42499999998836,
      "v": 82
    },
    {
      "midi": 55,
      "hit": false,
      "t": 256372.51874999996,
      "d": 51.180999999982305,
      "v": 91
    },
    {
      "midi": 59,
      "hit": false,
      "t": 256372.51874999996,
      "d": 63.97624999997788,
      "v": 91
    },
    {
      "midi": 52,
      "hit": false,
      "t": 256374.48724999995,
      "d": 47.244000000006054,
      "v": 91
    },
    {
      "midi": 50,
      "hit": false,
      "t": 256520.15624999994,
      "d": 218.50349999999162,
      "v": 91
    },
    {
      "midi": 57,
      "hit": false,
      "t": 256520.15624999994,
      "d": 223.4247500000056,
      "v": 91
    },
    {
      "midi": 54,
      "hit": false,
      "t": 256520.15624999994,
      "d": 236.22000000000116,
      "v": 82
    },
    {
      "midi": 28,
      "hit": false,
      "t": 256522.12474999993,
      "d": 187.00750000000698,
      "v": 82
    },
    {
      "midi": 55,
      "hit": false,
      "t": 256835.11624999993,
      "d": 100.39350000000559,
      "v": 100
    },
    {
      "midi": 47,
      "hit": false,
      "t": 256835.11624999993,
      "d": 118.11000000001513,
      "v": 88
    },
    {
      "midi": 52,
      "hit": false,
      "t": 256835.11624999993,
      "d": 118.11000000001513,
      "v": 91
    },
    {
      "midi": 40,
      "hit": false,
      "t": 256840.03749999995,
      "d": 98.42499999998836,
      "v": 82
    },
    {
      "midi": 36,
      "hit": false,
      "t": 256999.48599999995,
      "d": 180.1177500000049,
      "v": 82
    },
    {
      "midi": 48,
      "hit": false,
      "t": 257317.39874999996,
      "d": 80.70849999997881,
      "v": 75
    },
    {
      "midi": 55,
      "hit": false,
      "t": 257319.36724999995,
      "d": 49.21249999999418,
      "v": 73
    },
    {
      "midi": 64,
      "hit": false,
      "t": 257319.36724999995,
      "d": 52.16524999999092,
      "v": 82
    },
    {
      "midi": 60,
      "hit": false,
      "t": 257319.36724999995,
      "d": 57.08650000000489,
      "v": 82
    },
    {
      "midi": 36,
      "hit": false,
      "t": 257467.00474999993,
      "d": 214.56649999998626,
      "v": 82
    },
    {
      "midi": 57,
      "hit": false,
      "t": 257469.95749999993,
      "d": 218.50349999999162,
      "v": 91
    },
    {
      "midi": 66,
      "hit": false,
      "t": 257469.95749999993,
      "d": 223.4247500000056,
      "v": 91
    },
    {
      "midi": 62,
      "hit": false,
      "t": 257471.92599999992,
      "d": 236.22000000003027,
      "v": 91
    },
    {
      "midi": 64,
      "hit": false,
      "t": 257786.88599999994,
      "d": 137.7949999999837,
      "v": 100
    },
    {
      "midi": 60,
      "hit": false,
      "t": 257789.83874999994,
      "d": 113.18875000000116,
      "v": 91
    },
    {
      "midi": 67,
      "hit": false,
      "t": 257789.83874999994,
      "d": 113.18875000000116,
      "v": 91
    },
    {
      "midi": 48,
      "hit": false,
      "t": 257791.80724999993,
      "d": 86.6140000000014,
      "v": 73
    },
    {
      "midi": 36,
      "hit": false,
      "t": 257939.44474999994,
      "d": 140.74775000000955,
      "v": 91
    },
    {
      "midi": 64,
      "hit": false,
      "t": 258262.27874999994,
      "d": 51.180999999982305,
      "v": 91
    },
    {
      "midi": 67,
      "hit": false,
      "t": 258262.27874999994,
      "d": 63.97624999997788,
      "v": 91
    },
    {
      "midi": 48,
      "hit": false,
      "t": 258262.27874999994,
      "d": 100.39349999997648,
      "v": 73
    },
    {
      "midi": 60,
      "hit": false,
      "t": 258264.24724999993,
      "d": 47.244000000006054,
      "v": 91
    },
    {
      "midi": 57,
      "hit": false,
      "t": 258409.91624999992,
      "d": 218.50349999999162,
      "v": 91
    },
    {
      "midi": 66,
      "hit": false,
      "t": 258409.91624999992,
      "d": 223.4247500000056,
      "v": 91
    },
    {
      "midi": 62,
      "hit": false,
      "t": 258409.91624999992,
      "d": 236.22000000000116,
      "v": 82
    },
    {
      "midi": 36,
      "hit": false,
      "t": 258411.8847499999,
      "d": 189.96025000000373,
      "v": 82
    },
    {
      "midi": 64,
      "hit": false,
      "t": 258724.8762499999,
      "d": 100.39350000000559,
      "v": 100
    },
    {
      "midi": 55,
      "hit": false,
      "t": 258724.8762499999,
      "d": 118.11000000001513,
      "v": 91
    },
    {
      "midi": 60,
      "hit": false,
      "t": 258724.8762499999,
      "d": 118.11000000001513,
      "v": 100
    },
    {
      "midi": 48,
      "hit": false,
      "t": 258734.7187499999,
      "d": 90.55100000000675,
      "v": 73
    },
    {
      "midi": 36,
      "hit": false,
      "t": 258889.24599999993,
      "d": 167.3225000000093,
      "v": 82
    },
    {
      "midi": 60,
      "hit": false,
      "t": 259207.15874999994,
      "d": 51.180999999982305,
      "v": 91
    },
    {
      "midi": 64,
      "hit": false,
      "t": 259207.15874999994,
      "d": 63.97624999997788,
      "v": 91
    },
    {
      "midi": 48,
      "hit": false,
      "t": 259207.15874999994,
      "d": 98.42499999998836,
      "v": 73
    },
    {
      "midi": 55,
      "hit": false,
      "t": 259209.12724999993,
      "d": 47.244000000006054,
      "v": 91
    },
    {
      "midi": 36,
      "hit": false,
      "t": 259354.79624999993,
      "d": 193.89725000000908,
      "v": 82
    },
    {
      "midi": 57,
      "hit": false,
      "t": 259359.71749999994,
      "d": 216.5350000000035,
      "v": 91
    },
    {
      "midi": 66,
      "hit": false,
      "t": 259359.71749999994,
      "d": 228.34599999999045,
      "v": 82
    },
    {
      "midi": 62,
      "hit": false,
      "t": 259359.71749999994,
      "d": 243.10975000000326,
      "v": 73
    },
    {
      "midi": 60,
      "hit": false,
      "t": 259671.72474999994,
      "d": 125.98400000002584,
      "v": 91
    },
    {
      "midi": 64,
      "hit": false,
      "t": 259671.72474999994,
      "d": 130.9052500000398,
      "v": 100
    },
    {
      "midi": 67,
      "hit": false,
      "t": 259674.67749999993,
      "d": 108.2675000000163,
      "v": 100
    },
    {
      "midi": 48,
      "hit": false,
      "t": 259679.59874999995,
      "d": 100.39350000000559,
      "v": 82
    },
    {
      "midi": 36,
      "hit": false,
      "t": 259832.15749999997,
      "d": 177.16500000000815,
      "v": 82
    },
    {
      "midi": 48,
      "hit": false,
      "t": 260147.1175,
      "d": 98.42499999998836,
      "v": 82
    },
    {
      "midi": 64,
      "hit": false,
      "t": 260152.03875,
      "d": 51.180999999982305,
      "v": 91
    },
    {
      "midi": 67,
      "hit": false,
      "t": 260152.03875,
      "d": 63.97624999997788,
      "v": 91
    },
    {
      "midi": 60,
      "hit": false,
      "t": 260154.00725,
      "d": 47.244000000006054,
      "v": 91
    },
    {
      "midi": 57,
      "hit": false,
      "t": 260299.67625,
      "d": 218.50349999999162,
      "v": 91
    },
    {
      "midi": 66,
      "hit": false,
      "t": 260299.67625,
      "d": 223.4247500000056,
      "v": 91
    },
    {
      "midi": 62,
      "hit": false,
      "t": 260299.67625,
      "d": 236.22000000000116,
      "v": 82
    },
    {
      "midi": 36,
      "hit": false,
      "t": 260301.64474999998,
      "d": 187.00750000000698,
      "v": 82
    },
    {
      "midi": 64,
      "hit": false,
      "t": 260614.63624999998,
      "d": 100.39350000000559,
      "v": 100
    },
    {
      "midi": 55,
      "hit": false,
      "t": 260614.63624999998,
      "d": 118.11000000001513,
      "v": 91
    },
    {
      "midi": 60,
      "hit": false,
      "t": 260614.63624999998,
      "d": 118.11000000001513,
      "v": 100
    },
    {
      "midi": 48,
      "hit": false,
      "t": 260619.5575,
      "d": 98.42499999998836,
      "v": 82
    },
    {
      "midi": 28,
      "hit": false,
      "t": 260779.006,
      "d": 180.1177500000049,
      "v": 82
    },
    {
      "midi": 40,
      "hit": false,
      "t": 261096.91875,
      "d": 80.70849999997881,
      "v": 75
    },
    {
      "midi": 55,
      "hit": false,
      "t": 261098.88725,
      "d": 49.21249999999418,
      "v": 73
    },
    {
      "midi": 64,
      "hit": false,
      "t": 261098.88725,
      "d": 52.16524999999092,
      "v": 82
    },
    {
      "midi": 59,
      "hit": false,
      "t": 261098.88725,
      "d": 57.08650000000489,
      "v": 82
    },
    {
      "midi": 28,
      "hit": false,
      "t": 261246.52474999998,
      "d": 214.56649999998626,
      "v": 82
    },
    {
      "midi": 57,
      "hit": false,
      "t": 261249.47749999998,
      "d": 218.50349999999162,
      "v": 91
    },
    {
      "midi": 66,
      "hit": false,
      "t": 261249.47749999998,
      "d": 223.4247500000056,
      "v": 91
    },
    {
      "midi": 62,
      "hit": false,
      "t": 261251.44599999997,
      "d": 236.22000000003027,
      "v": 91
    },
    {
      "midi": 64,
      "hit": false,
      "t": 261569.35874999998,
      "d": 137.7949999999837,
      "v": 100
    },
    {
      "midi": 40,
      "hit": false,
      "t": 261571.32724999997,
      "d": 86.6140000000014,
      "v": 73
    },
    {
      "midi": 59,
      "hit": false,
      "t": 261571.32724999997,
      "d": 113.18875000000116,
      "v": 91
    },
    {
      "midi": 67,
      "hit": false,
      "t": 261571.32724999997,
      "d": 113.18875000000116,
      "v": 91
    },
    {
      "midi": 28,
      "hit": false,
      "t": 261718.96474999996,
      "d": 140.74775000000955,
      "v": 91
    },
    {
      "midi": 64,
      "hit": false,
      "t": 262041.79874999996,
      "d": 51.180999999982305,
      "v": 91
    },
    {
      "midi": 67,
      "hit": false,
      "t": 262041.79874999996,
      "d": 63.97624999997788,
      "v": 91
    },
    {
      "midi": 40,
      "hit": false,
      "t": 262041.79874999996,
      "d": 100.39349999997648,
      "v": 73
    },
    {
      "midi": 59,
      "hit": false,
      "t": 262043.76724999995,
      "d": 47.244000000006054,
      "v": 91
    },
    {
      "midi": 57,
      "hit": false,
      "t": 262189.4362499999,
      "d": 218.50350000004983,
      "v": 91
    },
    {
      "midi": 66,
      "hit": false,
      "t": 262189.4362499999,
      "d": 223.4247500000638,
      "v": 91
    },
    {
      "midi": 62,
      "hit": false,
      "t": 262189.4362499999,
      "d": 236.22000000008848,
      "v": 82
    },
    {
      "midi": 28,
      "hit": false,
      "t": 262191.4047499999,
      "d": 189.96025000000373,
      "v": 82
    },
    {
      "midi": 64,
      "hit": false,
      "t": 262504.39625,
      "d": 100.39350000000559,
      "v": 100
    },
    {
      "midi": 55,
      "hit": false,
      "t": 262504.39625,
      "d": 118.10999999998603,
      "v": 91
    },
    {
      "midi": 59,
      "hit": false,
      "t": 262504.39625,
      "d": 118.10999999998603,
      "v": 100
    },
    {
      "midi": 40,
      "hit": false,
      "t": 262514.23875,
      "d": 90.55099999997765,
      "v": 73
    },
    {
      "midi": 28,
      "hit": false,
      "t": 262668.766,
      "d": 167.3225000000093,
      "v": 82
    },
    {
      "midi": 59,
      "hit": false,
      "t": 262986.67875,
      "d": 51.18100000004051,
      "v": 91
    },
    {
      "midi": 64,
      "hit": false,
      "t": 262986.67875,
      "d": 63.97625000006519,
      "v": 91
    },
    {
      "midi": 40,
      "hit": false,
      "t": 262986.67875,
      "d": 98.42500000004657,
      "v": 73
    },
    {
      "midi": 55,
      "hit": false,
      "t": 262988.64725000004,
      "d": 47.244000000006054,
      "v": 91
    },
    {
      "midi": 28,
      "hit": false,
      "t": 263134.3162500001,
      "d": 193.89725000003818,
      "v": 82
    },
    {
      "midi": 54,
      "hit": false,
      "t": 263139.2375000001,
      "d": 216.5350000000326,
      "v": 91
    },
    {
      "midi": 62,
      "hit": false,
      "t": 263139.2375000001,
      "d": 228.34600000001956,
      "v": 82
    },
    {
      "midi": 57,
      "hit": false,
      "t": 263139.2375000001,
      "d": 243.10975000000326,
      "v": 73
    },
    {
      "midi": 52,
      "hit": false,
      "t": 263451.2447500001,
      "d": 125.98399999999674,
      "v": 91
    },
    {
      "midi": 55,
      "hit": false,
      "t": 263451.2447500001,
      "d": 130.9052500000107,
      "v": 100
    },
    {
      "midi": 59,
      "hit": false,
      "t": 263454.1975000001,
      "d": 108.2675000000163,
      "v": 92
    },
    {
      "midi": 40,
      "hit": false,
      "t": 263459.11875000014,
      "d": 100.39350000000559,
      "v": 82
    },
    {
      "midi": 28,
      "hit": false,
      "t": 263611.67750000017,
      "d": 177.16499999997905,
      "v": 82
    },
    {
      "midi": 40,
      "hit": false,
      "t": 263926.6375000001,
      "d": 98.42500000010477,
      "v": 82
    },
    {
      "midi": 55,
      "hit": false,
      "t": 263931.55875000014,
      "d": 51.18100000004051,
      "v": 91
    },
    {
      "midi": 59,
      "hit": false,
      "t": 263931.55875000014,
      "d": 63.97625000006519,
      "v": 91
    },
    {
      "midi": 52,
      "hit": false,
      "t": 263933.52725000016,
      "d": 47.244000000006054,
      "v": 91
    },
    {
      "midi": 50,
      "hit": false,
      "t": 264079.1962500002,
      "d": 218.50350000004983,
      "v": 91
    },
    {
      "midi": 57,
      "hit": false,
      "t": 264079.1962500002,
      "d": 223.4247500000638,
      "v": 91
    },
    {
      "midi": 54,
      "hit": false,
      "t": 264079.1962500002,
      "d": 236.22000000008848,
      "v": 82
    },
    {
      "midi": 28,
      "hit": false,
      "t": 264081.16475000023,
      "d": 187.00750000000698,
      "v": 82
    },
    {
      "midi": 55,
      "hit": false,
      "t": 264394.1562500003,
      "d": 100.39350000000559,
      "v": 100
    },
    {
      "midi": 47,
      "hit": false,
      "t": 264394.1562500003,
      "d": 118.10999999998603,
      "v": 88
    },
    {
      "midi": 52,
      "hit": false,
      "t": 264394.1562500003,
      "d": 118.10999999998603,
      "v": 91
    },
    {
      "midi": 40,
      "hit": false,
      "t": 264399.0775000003,
      "d": 98.42499999998836,
      "v": 82
    },
    {
      "midi": 36,
      "hit": false,
      "t": 264558.5260000003,
      "d": 180.11774999997579,
      "v": 82
    },
    {
      "midi": 48,
      "hit": false,
      "t": 264876.43875000026,
      "d": 80.70850000006612,
      "v": 75
    },
    {
      "midi": 55,
      "hit": false,
      "t": 264878.4072500003,
      "d": 49.21250000002328,
      "v": 73
    },
    {
      "midi": 64,
      "hit": false,
      "t": 264878.4072500003,
      "d": 52.16525000002002,
      "v": 82
    },
    {
      "midi": 60,
      "hit": false,
      "t": 264878.4072500003,
      "d": 57.08650000003399,
      "v": 82
    },
    {
      "midi": 36,
      "hit": false,
      "t": 265026.04475000035,
      "d": 214.56650000001537,
      "v": 82
    },
    {
      "midi": 57,
      "hit": false,
      "t": 265028.99750000035,
      "d": 218.50349999999162,
      "v": 91
    },
    {
      "midi": 66,
      "hit": false,
      "t": 265028.99750000035,
      "d": 223.4247500000056,
      "v": 91
    },
    {
      "midi": 62,
      "hit": false,
      "t": 265030.96600000036,
      "d": 236.21999999997206,
      "v": 91
    },
    {
      "midi": 64,
      "hit": false,
      "t": 265348.8787500003,
      "d": 137.7950000000419,
      "v": 100
    },
    {
      "midi": 48,
      "hit": false,
      "t": 265350.84725000034,
      "d": 86.6140000000014,
      "v": 73
    },
    {
      "midi": 60,
      "hit": false,
      "t": 265350.84725000034,
      "d": 113.18875000003027,
      "v": 91
    },
    {
      "midi": 67,
      "hit": false,
      "t": 265350.84725000034,
      "d": 113.18875000003027,
      "v": 91
    },
    {
      "midi": 36,
      "hit": false,
      "t": 265498.48475000035,
      "d": 140.74774999998044,
      "v": 91
    },
    {
      "midi": 64,
      "hit": false,
      "t": 265821.3187500003,
      "d": 51.18100000004051,
      "v": 91
    },
    {
      "midi": 67,
      "hit": false,
      "t": 265821.3187500003,
      "d": 63.97625000006519,
      "v": 91
    },
    {
      "midi": 48,
      "hit": false,
      "t": 265821.3187500003,
      "d": 100.3935000000638,
      "v": 73
    },
    {
      "midi": 60,
      "hit": false,
      "t": 265823.28725000034,
      "d": 47.244000000006054,
      "v": 91
    },
    {
      "midi": 57,
      "hit": false,
      "t": 265968.9562500004,
      "d": 218.50350000004983,
      "v": 91
    },
    {
      "midi": 66,
      "hit": false,
      "t": 265968.9562500004,
      "d": 223.4247500000638,
      "v": 91
    },
    {
      "midi": 62,
      "hit": false,
      "t": 265968.9562500004,
      "d": 236.22000000008848,
      "v": 82
    },
    {
      "midi": 36,
      "hit": false,
      "t": 265970.9247500004,
      "d": 189.96025000000373,
      "v": 82
    },
    {
      "midi": 64,
      "hit": false,
      "t": 266283.9162500005,
      "d": 100.39350000000559,
      "v": 100
    },
    {
      "midi": 55,
      "hit": false,
      "t": 266283.9162500005,
      "d": 118.10999999998603,
      "v": 91
    },
    {
      "midi": 60,
      "hit": false,
      "t": 266283.9162500005,
      "d": 118.10999999998603,
      "v": 100
    },
    {
      "midi": 48,
      "hit": false,
      "t": 266293.7587500005,
      "d": 90.55099999997765,
      "v": 73
    },
    {
      "midi": 36,
      "hit": false,
      "t": 266448.2860000005,
      "d": 167.3225000000093,
      "v": 82
    },
    {
      "midi": 60,
      "hit": false,
      "t": 266766.1987500005,
      "d": 51.18100000004051,
      "v": 91
    },
    {
      "midi": 64,
      "hit": false,
      "t": 266766.1987500005,
      "d": 63.97625000006519,
      "v": 91
    },
    {
      "midi": 48,
      "hit": false,
      "t": 266766.1987500005,
      "d": 98.42500000004657,
      "v": 73
    },
    {
      "midi": 55,
      "hit": false,
      "t": 266768.1672500005,
      "d": 47.244000000006054,
      "v": 91
    },
    {
      "midi": 36,
      "hit": false,
      "t": 266913.8362500006,
      "d": 193.89725000003818,
      "v": 82
    },
    {
      "midi": 57,
      "hit": false,
      "t": 266918.7575000006,
      "d": 216.5350000000326,
      "v": 91
    },
    {
      "midi": 66,
      "hit": false,
      "t": 266918.7575000006,
      "d": 228.34600000001956,
      "v": 82
    },
    {
      "midi": 62,
      "hit": false,
      "t": 266918.7575000006,
      "d": 243.10975000000326,
      "v": 73
    },
    {
      "midi": 60,
      "hit": false,
      "t": 267230.7647500006,
      "d": 125.98399999999674,
      "v": 91
    },
    {
      "midi": 64,
      "hit": false,
      "t": 267230.7647500006,
      "d": 130.9052500000107,
      "v": 100
    },
    {
      "midi": 67,
      "hit": false,
      "t": 267233.7175000006,
      "d": 108.2675000000163,
      "v": 100
    },
    {
      "midi": 48,
      "hit": false,
      "t": 267238.6387500006,
      "d": 100.39350000000559,
      "v": 82
    },
    {
      "midi": 36,
      "hit": false,
      "t": 267391.19750000065,
      "d": 177.16499999997905,
      "v": 82
    },
    {
      "midi": 48,
      "hit": false,
      "t": 267706.1575000006,
      "d": 98.42500000010477,
      "v": 82
    },
    {
      "midi": 64,
      "hit": false,
      "t": 267711.0787500006,
      "d": 51.18100000004051,
      "v": 91
    },
    {
      "midi": 67,
      "hit": false,
      "t": 267711.0787500006,
      "d": 63.97625000006519,
      "v": 91
    },
    {
      "midi": 60,
      "hit": false,
      "t": 267713.04725000064,
      "d": 47.244000000006054,
      "v": 91
    },
    {
      "midi": 57,
      "hit": false,
      "t": 267858.7162500007,
      "d": 218.50350000004983,
      "v": 91
    },
    {
      "midi": 66,
      "hit": false,
      "t": 267858.7162500007,
      "d": 223.4247500000638,
      "v": 91
    },
    {
      "midi": 62,
      "hit": false,
      "t": 267858.7162500007,
      "d": 236.22000000008848,
      "v": 82
    },
    {
      "midi": 36,
      "hit": false,
      "t": 267860.6847500007,
      "d": 187.00750000000698,
      "v": 82
    },
    {
      "midi": 64,
      "hit": false,
      "t": 268173.6762500008,
      "d": 100.39350000000559,
      "v": 100
    },
    {
      "midi": 55,
      "hit": false,
      "t": 268173.6762500008,
      "d": 118.10999999998603,
      "v": 91
    },
    {
      "midi": 60,
      "hit": false,
      "t": 268173.6762500008,
      "d": 118.10999999998603,
      "v": 100
    },
    {
      "midi": 48,
      "hit": false,
      "t": 268178.5975000008,
      "d": 98.42499999998836,
      "v": 82
    },
    {
      "midi": 28,
      "hit": false,
      "t": 268338.0460000008,
      "d": 180.11774999997579,
      "v": 82
    },
    {
      "midi": 40,
      "hit": false,
      "t": 268655.95875000075,
      "d": 80.70850000006612,
      "v": 75
    },
    {
      "midi": 55,
      "hit": false,
      "t": 268657.92725000076,
      "d": 49.21250000002328,
      "v": 73
    },
    {
      "midi": 64,
      "hit": false,
      "t": 268657.92725000076,
      "d": 52.16525000002002,
      "v": 82
    },
    {
      "midi": 59,
      "hit": false,
      "t": 268657.92725000076,
      "d": 57.08650000003399,
      "v": 82
    },
    {
      "midi": 28,
      "hit": false,
      "t": 268805.56475000083,
      "d": 214.56650000001537,
      "v": 82
    },
    {
      "midi": 57,
      "hit": false,
      "t": 268805.56475000083,
      "d": 219.48775000002934,
      "v": 91
    },
    {
      "midi": 62,
      "hit": false,
      "t": 268805.56475000083,
      "d": 236.22000000003027,
      "v": 91
    },
    {
      "midi": 66,
      "hit": false,
      "t": 268808.51750000083,
      "d": 223.4247500000056,
      "v": 91
    },
    {
      "midi": 64,
      "hit": false,
      "t": 269128.39875000087,
      "d": 137.7950000000419,
      "v": 100
    },
    {
      "midi": 40,
      "hit": false,
      "t": 269130.3672500009,
      "d": 86.6140000000014,
      "v": 73
    },
    {
      "midi": 59,
      "hit": false,
      "t": 269130.3672500009,
      "d": 113.18875000003027,
      "v": 91
    },
    {
      "midi": 67,
      "hit": false,
      "t": 269130.3672500009,
      "d": 113.18875000003027,
      "v": 91
    },
    {
      "midi": 28,
      "hit": false,
      "t": 269278.0047500009,
      "d": 140.74774999998044,
      "v": 91
    },
    {
      "midi": 64,
      "hit": false,
      "t": 269600.83875000087,
      "d": 51.18100000004051,
      "v": 91
    },
    {
      "midi": 67,
      "hit": false,
      "t": 269600.83875000087,
      "d": 63.97625000006519,
      "v": 91
    },
    {
      "midi": 40,
      "hit": false,
      "t": 269600.83875000087,
      "d": 100.3935000000638,
      "v": 73
    },
    {
      "midi": 59,
      "hit": false,
      "t": 269602.8072500009,
      "d": 47.244000000006054,
      "v": 91
    },
    {
      "midi": 57,
      "hit": false,
      "t": 269748.47625000094,
      "d": 218.50350000004983,
      "v": 91
    },
    {
      "midi": 66,
      "hit": false,
      "t": 269748.47625000094,
      "d": 223.4247500000638,
      "v": 91
    },
    {
      "midi": 62,
      "hit": false,
      "t": 269748.47625000094,
      "d": 236.22000000008848,
      "v": 82
    },
    {
      "midi": 28,
      "hit": false,
      "t": 269750.44475000096,
      "d": 189.96025000000373,
      "v": 82
    },
    {
      "midi": 64,
      "hit": false,
      "t": 270063.436250001,
      "d": 100.39350000000559,
      "v": 100
    },
    {
      "midi": 55,
      "hit": false,
      "t": 270063.436250001,
      "d": 118.10999999998603,
      "v": 91
    },
    {
      "midi": 59,
      "hit": false,
      "t": 270063.436250001,
      "d": 118.10999999998603,
      "v": 100
    },
    {
      "midi": 40,
      "hit": false,
      "t": 270073.27875000105,
      "d": 90.55099999997765,
      "v": 73
    },
    {
      "midi": 28,
      "hit": false,
      "t": 270227.80600000103,
      "d": 167.3225000000093,
      "v": 82
    },
    {
      "midi": 59,
      "hit": false,
      "t": 270545.71875000105,
      "d": 51.18100000004051,
      "v": 91
    },
    {
      "midi": 64,
      "hit": false,
      "t": 270545.71875000105,
      "d": 63.97625000006519,
      "v": 91
    },
    {
      "midi": 40,
      "hit": false,
      "t": 270545.71875000105,
      "d": 98.42500000004657,
      "v": 73
    },
    {
      "midi": 55,
      "hit": false,
      "t": 270547.68725000106,
      "d": 47.244000000006054,
      "v": 91
    },
    {
      "midi": 28,
      "hit": false,
      "t": 270693.3562500011,
      "d": 193.89725000003818,
      "v": 82
    },
    {
      "midi": 54,
      "hit": false,
      "t": 270698.27750000113,
      "d": 216.5350000000326,
      "v": 91
    },
    {
      "midi": 62,
      "hit": false,
      "t": 270698.27750000113,
      "d": 228.34600000001956,
      "v": 82
    },
    {
      "midi": 57,
      "hit": false,
      "t": 270698.27750000113,
      "d": 243.10975000000326,
      "v": 73
    },
    {
      "midi": 52,
      "hit": false,
      "t": 271010.28475000116,
      "d": 125.98399999999674,
      "v": 91
    },
    {
      "midi": 55,
      "hit": false,
      "t": 271010.28475000116,
      "d": 130.9052500000107,
      "v": 100
    },
    {
      "midi": 59,
      "hit": false,
      "t": 271013.23750000115,
      "d": 108.2675000000163,
      "v": 92
    },
    {
      "midi": 40,
      "hit": false,
      "t": 271018.15875000117,
      "d": 100.39350000000559,
      "v": 82
    },
    {
      "midi": 28,
      "hit": false,
      "t": 271170.7175000012,
      "d": 177.16499999997905,
      "v": 82
    },
    {
      "midi": 40,
      "hit": false,
      "t": 271485.67750000115,
      "d": 98.42500000010477,
      "v": 82
    },
    {
      "midi": 55,
      "hit": false,
      "t": 271490.59875000117,
      "d": 51.18100000004051,
      "v": 91
    },
    {
      "midi": 59,
      "hit": false,
      "t": 271490.59875000117,
      "d": 63.97625000006519,
      "v": 91
    },
    {
      "midi": 52,
      "hit": false,
      "t": 271492.5672500012,
      "d": 47.244000000006054,
      "v": 91
    },
    {
      "midi": 50,
      "hit": false,
      "t": 271638.23625000124,
      "d": 218.50350000004983,
      "v": 91
    },
    {
      "midi": 57,
      "hit": false,
      "t": 271638.23625000124,
      "d": 223.4247500000638,
      "v": 91
    },
    {
      "midi": 54,
      "hit": false,
      "t": 271638.23625000124,
      "d": 236.22000000008848,
      "v": 82
    },
    {
      "midi": 28,
      "hit": false,
      "t": 271640.20475000126,
      "d": 187.00750000000698,
      "v": 82
    },
    {
      "midi": 55,
      "hit": false,
      "t": 271953.1962500013,
      "d": 100.39350000000559,
      "v": 100
    },
    {
      "midi": 47,
      "hit": false,
      "t": 271953.1962500013,
      "d": 118.10999999998603,
      "v": 88
    },
    {
      "midi": 52,
      "hit": false,
      "t": 271953.1962500013,
      "d": 118.10999999998603,
      "v": 91
    },
    {
      "midi": 40,
      "hit": false,
      "t": 271958.11750000133,
      "d": 98.42499999998836,
      "v": 82
    },
    {
      "midi": 36,
      "hit": false,
      "t": 272117.56600000133,
      "d": 180.11774999997579,
      "v": 82
    },
    {
      "midi": 48,
      "hit": false,
      "t": 272435.4787500013,
      "d": 80.70850000006612,
      "v": 75
    },
    {
      "midi": 55,
      "hit": false,
      "t": 272437.4472500013,
      "d": 49.21250000002328,
      "v": 73
    },
    {
      "midi": 64,
      "hit": false,
      "t": 272437.4472500013,
      "d": 52.16525000002002,
      "v": 82
    },
    {
      "midi": 60,
      "hit": false,
      "t": 272437.4472500013,
      "d": 57.08650000003399,
      "v": 82
    },
    {
      "midi": 36,
      "hit": false,
      "t": 272585.0847500014,
      "d": 214.56650000001537,
      "v": 82
    },
    {
      "midi": 57,
      "hit": false,
      "t": 272588.0375000014,
      "d": 218.50349999999162,
      "v": 91
    },
    {
      "midi": 66,
      "hit": false,
      "t": 272588.0375000014,
      "d": 223.4247500000056,
      "v": 91
    },
    {
      "midi": 62,
      "hit": false,
      "t": 272590.0060000014,
      "d": 236.21999999997206,
      "v": 91
    },
    {
      "midi": 64,
      "hit": false,
      "t": 272907.91875000135,
      "d": 137.7950000000419,
      "v": 100
    },
    {
      "midi": 48,
      "hit": false,
      "t": 272909.88725000137,
      "d": 86.6140000000014,
      "v": 73
    },
    {
      "midi": 60,
      "hit": false,
      "t": 272909.88725000137,
      "d": 113.18875000003027,
      "v": 91
    },
    {
      "midi": 67,
      "hit": false,
      "t": 272909.88725000137,
      "d": 113.18875000003027,
      "v": 91
    },
    {
      "midi": 36,
      "hit": false,
      "t": 273057.5247500014,
      "d": 140.74774999998044,
      "v": 91
    },
    {
      "midi": 64,
      "hit": false,
      "t": 273380.35875000135,
      "d": 51.18100000004051,
      "v": 91
    },
    {
      "midi": 67,
      "hit": false,
      "t": 273380.35875000135,
      "d": 63.97625000006519,
      "v": 91
    },
    {
      "midi": 48,
      "hit": false,
      "t": 273380.35875000135,
      "d": 100.3935000000638,
      "v": 73
    },
    {
      "midi": 60,
      "hit": false,
      "t": 273382.32725000137,
      "d": 47.244000000006054,
      "v": 91
    },
    {
      "midi": 57,
      "hit": false,
      "t": 273527.9962500014,
      "d": 218.50350000004983,
      "v": 91
    },
    {
      "midi": 66,
      "hit": false,
      "t": 273527.9962500014,
      "d": 223.4247500000638,
      "v": 91
    },
    {
      "midi": 62,
      "hit": false,
      "t": 273527.9962500014,
      "d": 236.22000000008848,
      "v": 82
    },
    {
      "midi": 36,
      "hit": false,
      "t": 273529.96475000144,
      "d": 189.96025000000373,
      "v": 82
    },
    {
      "midi": 64,
      "hit": false,
      "t": 273842.9562500015,
      "d": 100.39350000000559,
      "v": 100
    },
    {
      "midi": 55,
      "hit": false,
      "t": 273842.9562500015,
      "d": 118.10999999998603,
      "v": 91
    },
    {
      "midi": 60,
      "hit": false,
      "t": 273842.9562500015,
      "d": 118.10999999998603,
      "v": 100
    },
    {
      "midi": 48,
      "hit": false,
      "t": 273852.79875000153,
      "d": 90.55099999997765,
      "v": 73
    },
    {
      "midi": 36,
      "hit": false,
      "t": 274007.3260000015,
      "d": 167.3225000000093,
      "v": 82
    },
    {
      "midi": 60,
      "hit": false,
      "t": 274325.23875000153,
      "d": 51.18100000004051,
      "v": 91
    },
    {
      "midi": 64,
      "hit": false,
      "t": 274325.23875000153,
      "d": 63.97625000006519,
      "v": 91
    },
    {
      "midi": 48,
      "hit": false,
      "t": 274325.23875000153,
      "d": 98.42500000004657,
      "v": 73
    },
    {
      "midi": 55,
      "hit": false,
      "t": 274327.20725000155,
      "d": 47.244000000006054,
      "v": 91
    },
    {
      "midi": 36,
      "hit": false,
      "t": 274472.8762500016,
      "d": 193.89725000003818,
      "v": 82
    },
    {
      "midi": 57,
      "hit": false,
      "t": 274477.7975000016,
      "d": 216.5350000000326,
      "v": 91
    },
    {
      "midi": 66,
      "hit": false,
      "t": 274477.7975000016,
      "d": 228.34600000001956,
      "v": 82
    },
    {
      "midi": 62,
      "hit": false,
      "t": 274477.7975000016,
      "d": 243.10975000000326,
      "v": 73
    },
    {
      "midi": 60,
      "hit": false,
      "t": 274789.80475000164,
      "d": 125.98399999999674,
      "v": 91
    },
    {
      "midi": 64,
      "hit": false,
      "t": 274789.80475000164,
      "d": 130.9052500000107,
      "v": 100
    },
    {
      "midi": 67,
      "hit": false,
      "t": 274792.75750000164,
      "d": 108.2675000000163,
      "v": 100
    },
    {
      "midi": 48,
      "hit": false,
      "t": 274797.67875000165,
      "d": 100.39350000000559,
      "v": 82
    },
    {
      "midi": 36,
      "hit": false,
      "t": 274950.2375000017,
      "d": 177.16499999997905,
      "v": 82
    },
    {
      "midi": 48,
      "hit": false,
      "t": 275265.19750000164,
      "d": 98.42500000010477,
      "v": 82
    },
    {
      "midi": 64,
      "hit": false,
      "t": 275270.11875000165,
      "d": 51.18100000004051,
      "v": 91
    },
    {
      "midi": 67,
      "hit": false,
      "t": 275270.11875000165,
      "d": 63.97625000006519,
      "v": 91
    },
    {
      "midi": 60,
      "hit": false,
      "t": 275272.08725000167,
      "d": 47.244000000006054,
      "v": 91
    },
    {
      "midi": 57,
      "hit": false,
      "t": 275417.7562500017,
      "d": 218.50350000004983,
      "v": 91
    },
    {
      "midi": 66,
      "hit": false,
      "t": 275417.7562500017,
      "d": 223.4247500000638,
      "v": 91
    },
    {
      "midi": 62,
      "hit": false,
      "t": 275417.7562500017,
      "d": 236.22000000008848,
      "v": 82
    },
    {
      "midi": 36,
      "hit": false,
      "t": 275419.72475000174,
      "d": 187.00750000000698,
      "v": 82
    },
    {
      "midi": 64,
      "hit": false,
      "t": 275732.7162500018,
      "d": 100.39350000000559,
      "v": 100
    },
    {
      "midi": 55,
      "hit": false,
      "t": 275732.7162500018,
      "d": 118.10999999998603,
      "v": 91
    },
    {
      "midi": 60,
      "hit": false,
      "t": 275732.7162500018,
      "d": 118.10999999998603,
      "v": 100
    },
    {
      "midi": 48,
      "hit": false,
      "t": 275737.6375000018,
      "d": 98.42499999998836,
      "v": 82
    },
    {
      "midi": 28,
      "hit": false,
      "t": 275897.0860000018,
      "d": 180.11774999997579,
      "v": 82
    },
    {
      "midi": 40,
      "hit": false,
      "t": 276214.9987500018,
      "d": 80.70850000006612,
      "v": 75
    },
    {
      "midi": 55,
      "hit": false,
      "t": 276216.9672500018,
      "d": 49.21250000002328,
      "v": 73
    },
    {
      "midi": 64,
      "hit": false,
      "t": 276216.9672500018,
      "d": 52.16525000002002,
      "v": 82
    },
    {
      "midi": 59,
      "hit": false,
      "t": 276216.9672500018,
      "d": 57.08650000003399,
      "v": 82
    },
    {
      "midi": 28,
      "hit": false,
      "t": 276364.60475000186,
      "d": 214.56650000001537,
      "v": 82
    },
    {
      "midi": 57,
      "hit": false,
      "t": 276364.60475000186,
      "d": 219.48775000002934,
      "v": 91
    },
    {
      "midi": 62,
      "hit": false,
      "t": 276364.60475000186,
      "d": 236.22000000003027,
      "v": 91
    },
    {
      "midi": 66,
      "hit": false,
      "t": 276367.55750000186,
      "d": 223.4247500000056,
      "v": 91
    },
    {
      "midi": 64,
      "hit": false,
      "t": 276687.4387500019,
      "d": 137.7950000000419,
      "v": 100
    },
    {
      "midi": 40,
      "hit": false,
      "t": 276689.4072500019,
      "d": 86.6140000000014,
      "v": 73
    },
    {
      "midi": 59,
      "hit": false,
      "t": 276689.4072500019,
      "d": 113.18875000003027,
      "v": 91
    },
    {
      "midi": 67,
      "hit": false,
      "t": 276689.4072500019,
      "d": 113.18875000003027,
      "v": 91
    },
    {
      "midi": 28,
      "hit": false,
      "t": 276837.0447500019,
      "d": 140.74774999998044,
      "v": 91
    },
    {
      "midi": 64,
      "hit": false,
      "t": 277159.8787500019,
      "d": 51.18100000004051,
      "v": 91
    },
    {
      "midi": 67,
      "hit": false,
      "t": 277159.8787500019,
      "d": 63.97625000006519,
      "v": 91
    },
    {
      "midi": 40,
      "hit": false,
      "t": 277159.8787500019,
      "d": 100.3935000000638,
      "v": 73
    },
    {
      "midi": 59,
      "hit": false,
      "t": 277161.8472500019,
      "d": 47.244000000006054,
      "v": 91
    },
    {
      "midi": 57,
      "hit": false,
      "t": 277307.51625000197,
      "d": 218.50350000004983,
      "v": 91
    },
    {
      "midi": 66,
      "hit": false,
      "t": 277307.51625000197,
      "d": 223.4247500000638,
      "v": 91
    },
    {
      "midi": 62,
      "hit": false,
      "t": 277307.51625000197,
      "d": 236.22000000008848,
      "v": 82
    },
    {
      "midi": 28,
      "hit": false,
      "t": 277309.484750002,
      "d": 189.96025000000373,
      "v": 82
    },
    {
      "midi": 64,
      "hit": false,
      "t": 277622.47625000204,
      "d": 100.39350000000559,
      "v": 100
    },
    {
      "midi": 55,
      "hit": false,
      "t": 277622.47625000204,
      "d": 118.10999999998603,
      "v": 91
    },
    {
      "midi": 59,
      "hit": false,
      "t": 277622.47625000204,
      "d": 118.10999999998603,
      "v": 100
    },
    {
      "midi": 40,
      "hit": false,
      "t": 277632.3187500021,
      "d": 90.55099999997765,
      "v": 73
    },
    {
      "midi": 28,
      "hit": false,
      "t": 277786.84600000206,
      "d": 167.3225000000093,
      "v": 82
    },
    {
      "midi": 59,
      "hit": false,
      "t": 278104.7587500021,
      "d": 51.18100000004051,
      "v": 91
    },
    {
      "midi": 64,
      "hit": false,
      "t": 278104.7587500021,
      "d": 63.97625000006519,
      "v": 91
    },
    {
      "midi": 40,
      "hit": false,
      "t": 278104.7587500021,
      "d": 98.42500000004657,
      "v": 73
    },
    {
      "midi": 55,
      "hit": false,
      "t": 278106.7272500021,
      "d": 47.244000000006054,
      "v": 91
    },
    {
      "midi": 28,
      "hit": false,
      "t": 278252.39625000214,
      "d": 193.89725000003818,
      "v": 82
    },
    {
      "midi": 54,
      "hit": false,
      "t": 278257.31750000216,
      "d": 216.5350000000326,
      "v": 91
    },
    {
      "midi": 62,
      "hit": false,
      "t": 278257.31750000216,
      "d": 228.34600000001956,
      "v": 82
    },
    {
      "midi": 57,
      "hit": false,
      "t": 278257.31750000216,
      "d": 243.10975000000326,
      "v": 73
    },
    {
      "midi": 52,
      "hit": false,
      "t": 278569.3247500022,
      "d": 125.98399999999674,
      "v": 91
    },
    {
      "midi": 55,
      "hit": false,
      "t": 278569.3247500022,
      "d": 130.9052500000107,
      "v": 100
    },
    {
      "midi": 59,
      "hit": false,
      "t": 278572.2775000022,
      "d": 108.2675000000163,
      "v": 92
    },
    {
      "midi": 40,
      "hit": false,
      "t": 278577.1987500022,
      "d": 100.39350000000559,
      "v": 82
    },
    {
      "midi": 28,
      "hit": false,
      "t": 278729.7575000022,
      "d": 177.16499999997905,
      "v": 82
    },
    {
      "midi": 40,
      "hit": false,
      "t": 279044.7175000022,
      "d": 98.42500000010477,
      "v": 82
    },
    {
      "midi": 55,
      "hit": false,
      "t": 279049.6387500022,
      "d": 51.18100000004051,
      "v": 91
    },
    {
      "midi": 59,
      "hit": false,
      "t": 279049.6387500022,
      "d": 63.97625000006519,
      "v": 91
    },
    {
      "midi": 52,
      "hit": false,
      "t": 279051.6072500022,
      "d": 47.244000000006054,
      "v": 91
    },
    {
      "midi": 50,
      "hit": false,
      "t": 279197.27625000227,
      "d": 218.50350000004983,
      "v": 91
    },
    {
      "midi": 57,
      "hit": false,
      "t": 279197.27625000227,
      "d": 223.4247500000638,
      "v": 91
    },
    {
      "midi": 54,
      "hit": false,
      "t": 279197.27625000227,
      "d": 236.22000000008848,
      "v": 82
    },
    {
      "midi": 28,
      "hit": false,
      "t": 279199.2447500023,
      "d": 187.00750000000698,
      "v": 82
    },
    {
      "midi": 55,
      "hit": false,
      "t": 279512.23625000234,
      "d": 100.39350000000559,
      "v": 100
    },
    {
      "midi": 47,
      "hit": false,
      "t": 279512.23625000234,
      "d": 118.10999999998603,
      "v": 88
    },
    {
      "midi": 52,
      "hit": false,
      "t": 279512.23625000234,
      "d": 118.10999999998603,
      "v": 91
    },
    {
      "midi": 40,
      "hit": false,
      "t": 279517.15750000236,
      "d": 98.42499999998836,
      "v": 82
    },
    {
      "midi": 36,
      "hit": false,
      "t": 279664.7950000023,
      "d": 1855.3112500000861,
      "v": 73
    },
    {
      "midi": 48,
      "hit": false,
      "t": 279666.76350000233,
      "d": 1855.3112500000861,
      "v": 89
    },
    {
      "midi": 67,
      "hit": false,
      "t": 279669.7162500023,
      "d": 1835.6262500000303,
      "v": 102
    },
    {
      "midi": 55,
      "hit": false,
      "t": 279669.7162500023,
      "d": 1837.5947500000475,
      "v": 98
    },
    {
      "midi": 64,
      "hit": false,
      "t": 279669.7162500023,
      "d": 1842.5160000000615,
      "v": 103
    },
    {
      "midi": 60,
      "hit": false,
      "t": 279671.68475000234,
      "d": 1863.1852500000969,
      "v": 109
    },
    {
      "midi": 35,
      "hit": false,
      "t": 281554.55500000244,
      "d": 1855.3112500000861,
      "v": 73
    },
    {
      "midi": 47,
      "hit": false,
      "t": 281556.52350000245,
      "d": 1855.3112500000861,
      "v": 89
    },
    {
      "midi": 66,
      "hit": false,
      "t": 281559.47625000245,
      "d": 1835.6262500000303,
      "v": 102
    },
    {
      "midi": 54,
      "hit": false,
      "t": 281559.47625000245,
      "d": 1837.5947500000475,
      "v": 98
    },
    {
      "midi": 63,
      "hit": false,
      "t": 281559.47625000245,
      "d": 1842.5160000000615,
      "v": 103
    },
    {
      "midi": 59,
      "hit": false,
      "t": 281561.44475000247,
      "d": 1813.9727500000154,
      "v": 109
    },
    {
      "midi": 28,
      "hit": false,
      "t": 283461.04725000256,
      "d": 3518.693750000035,
      "v": 70
    },
    {
      "midi": 40,
      "hit": false,
      "t": 283461.04725000256,
      "d": 3526.5677500000456,
      "v": 91
    },
    {
      "midi": 67,
      "hit": false,
      "t": 284876.39875000255,
      "d": 226.37750000000233,
      "v": 95
    },
    {
      "midi": 64,
      "hit": false,
      "t": 284876.39875000255,
      "d": 236.22000000003027,
      "v": 91
    },
    {
      "midi": 59,
      "hit": false,
      "t": 284878.3672500026,
      "d": 229.33024999999907,
      "v": 82
    },
    {
      "midi": 59,
      "hit": false,
      "t": 285186.43750000256,
      "d": 1936.019750000094,
      "v": 92
    },
    {
      "midi": 67,
      "hit": false,
      "t": 285186.43750000256,
      "d": 1948.8150000001187,
      "v": 109
    },
    {
      "midi": 64,
      "hit": false,
      "t": 285188.4060000026,
      "d": 1924.208750000049,
      "v": 93
    },
    {
      "midi": 28,
      "hit": false,
      "t": 287076.1975000026,
      "d": 3363.182250000071,
      "v": 70
    },
    {
      "midi": 40,
      "hit": false,
      "t": 287076.1975000026,
      "d": 3385.820000000065,
      "v": 91
    },
    {
      "midi": 59,
      "hit": false,
      "t": 289910.8375000027,
      "d": 615.15625,
      "v": 92
    },
    {
      "midi": 67,
      "hit": false,
      "t": 289910.8375000027,
      "d": 661.4160000000265,
      "v": 109
    },
    {
      "midi": 64,
      "hit": false,
      "t": 289912.8060000027,
      "d": 623.0302500000107,
      "v": 93
    },
    {
      "midi": 28,
      "hit": false,
      "t": 290547.6472500027,
      "d": 216.5350000000326,
      "v": 68
    },
    {
      "midi": 40,
      "hit": false,
      "t": 290547.6472500027,
      "d": 239.172750000027,
      "v": 73
    },
    {
      "midi": 28,
      "hit": false,
      "t": 290862.60725000274,
      "d": 3666.3312499999884,
      "v": 70
    },
    {
      "midi": 40,
      "hit": false,
      "t": 290862.60725000274,
      "d": 3666.3312499999884,
      "v": 91
    },
    {
      "midi": 67,
      "hit": false,
      "t": 292435.4387500027,
      "d": 226.37750000000233,
      "v": 95
    },
    {
      "midi": 64,
      "hit": false,
      "t": 292435.4387500027,
      "d": 236.22000000003027,
      "v": 91
    },
    {
      "midi": 59,
      "hit": false,
      "t": 292437.4072500027,
      "d": 229.33024999999907,
      "v": 82
    },
    {
      "midi": 59,
      "hit": false,
      "t": 292745.4775000027,
      "d": 1936.0197500000359,
      "v": 92
    },
    {
      "midi": 67,
      "hit": false,
      "t": 292745.4775000027,
      "d": 1948.8150000000605,
      "v": 109
    },
    {
      "midi": 64,
      "hit": false,
      "t": 292747.44600000273,
      "d": 1924.2087499999907,
      "v": 93
    },
    {
      "midi": 40,
      "hit": false,
      "t": 294635.2375000027,
      "d": 3358.261000000115,
      "v": 91
    },
    {
      "midi": 28,
      "hit": false,
      "t": 294635.2375000027,
      "d": 3363.182250000129,
      "v": 70
    },
    {
      "midi": 59,
      "hit": false,
      "t": 297469.8775000028,
      "d": 959.6437500000466,
      "v": 92
    },
    {
      "midi": 67,
      "hit": false,
      "t": 297469.8775000028,
      "d": 959.6437500000466,
      "v": 109
    },
    {
      "midi": 64,
      "hit": false,
      "t": 297471.8460000028,
      "d": 944.8800000000047,
      "v": 93
    },
    {
      "midi": 33,
      "hit": false,
      "t": 297952.1600000028,
      "d": 157.48000000003958,
      "v": 32
    },
    {
      "midi": 28,
      "hit": false,
      "t": 298106.68725000287,
      "d": 216.5349999999744,
      "v": 68
    },
    {
      "midi": 40,
      "hit": false,
      "t": 298106.68725000287,
      "d": 239.1727499999688,
      "v": 73
    },
    {
      "midi": 28,
      "hit": false,
      "t": 298421.64725000283,
      "d": 541.3375000000233,
      "v": 70
    },
    {
      "midi": 40,
      "hit": false,
      "t": 298421.64725000283,
      "d": 541.3375000000233,
      "v": 91
    },
    {
      "midi": 28,
      "hit": false,
      "t": 299051.5672500029,
      "d": 216.5349999999744,
      "v": 68
    },
    {
      "midi": 40,
      "hit": false,
      "t": 299051.5672500029,
      "d": 239.1727499999688,
      "v": 73
    },
    {
      "midi": 28,
      "hit": false,
      "t": 299366.52725000284,
      "d": 541.3375000000233,
      "v": 70
    },
    {
      "midi": 40,
      "hit": false,
      "t": 299366.52725000284,
      "d": 541.3375000000233,
      "v": 91
    },
    {
      "midi": 28,
      "hit": false,
      "t": 299996.4472500029,
      "d": 216.5349999999744,
      "v": 68
    },
    {
      "midi": 40,
      "hit": false,
      "t": 299996.4472500029,
      "d": 239.1727499999688,
      "v": 73
    },
    {
      "midi": 28,
      "hit": false,
      "t": 300311.40725000284,
      "d": 541.3375000000233,
      "v": 70
    },
    {
      "midi": 40,
      "hit": false,
      "t": 300311.40725000284,
      "d": 541.3375000000233,
      "v": 91
    },
    {
      "midi": 28,
      "hit": false,
      "t": 300941.3272500029,
      "d": 216.5349999999744,
      "v": 68
    },
    {
      "midi": 40,
      "hit": false,
      "t": 300941.3272500029,
      "d": 239.1727499999688,
      "v": 73
    },
    {
      "midi": 28,
      "hit": false,
      "t": 301256.28725000285,
      "d": 541.3375000000233,
      "v": 70
    },
    {
      "midi": 40,
      "hit": false,
      "t": 301256.28725000285,
      "d": 541.3375000000233,
      "v": 91
    },
    {
      "midi": 33,
      "hit": false,
      "t": 301731.68000000285,
      "d": 157.48000000003958,
      "v": 32
    },
    {
      "midi": 28,
      "hit": false,
      "t": 301886.2072500029,
      "d": 216.5349999999744,
      "v": 68
    },
    {
      "midi": 40,
      "hit": false,
      "t": 301886.2072500029,
      "d": 239.1727499999688,
      "v": 73
    },
    {
      "midi": 28,
      "hit": false,
      "t": 302201.16725000285,
      "d": 541.3375000000233,
      "v": 70
    },
    {
      "midi": 40,
      "hit": false,
      "t": 302201.16725000285,
      "d": 541.3375000000233,
      "v": 91
    },
    {
      "midi": 28,
      "hit": false,
      "t": 302831.0872500029,
      "d": 216.5349999999744,
      "v": 68
    },
    {
      "midi": 40,
      "hit": false,
      "t": 302831.0872500029,
      "d": 239.1727499999688,
      "v": 73
    },
    {
      "midi": 28,
      "hit": false,
      "t": 303146.04725000286,
      "d": 541.3375000000233,
      "v": 70
    },
    {
      "midi": 40,
      "hit": false,
      "t": 303146.04725000286,
      "d": 541.3375000000233,
      "v": 91
    },
    {
      "midi": 28,
      "hit": false,
      "t": 303775.9672500029,
      "d": 216.5349999999744,
      "v": 68
    },
    {
      "midi": 40,
      "hit": false,
      "t": 303775.9672500029,
      "d": 239.1727499999688,
      "v": 73
    },
    {
      "midi": 28,
      "hit": false,
      "t": 304090.92725000286,
      "d": 541.3375000000233,
      "v": 70
    },
    {
      "midi": 40,
      "hit": false,
      "t": 304090.92725000286,
      "d": 541.3375000000233,
      "v": 91
    },
    {
      "midi": 28,
      "hit": false,
      "t": 304720.8472500029,
      "d": 216.5349999999744,
      "v": 68
    },
    {
      "midi": 40,
      "hit": false,
      "t": 304720.8472500029,
      "d": 239.1727499999688,
      "v": 73
    },
    {
      "midi": 28,
      "hit": false,
      "t": 305035.80725000286,
      "d": 541.3375000000233,
      "v": 70
    },
    {
      "midi": 40,
      "hit": false,
      "t": 305035.80725000286,
      "d": 541.3375000000233,
      "v": 91
    },
    {
      "midi": 33,
      "hit": false,
      "t": 305511.20000000286,
      "d": 157.48000000003958,
      "v": 32
    },
    {
      "midi": 28,
      "hit": false,
      "t": 305665.7272500029,
      "d": 216.5349999999744,
      "v": 68
    },
    {
      "midi": 40,
      "hit": false,
      "t": 305665.7272500029,
      "d": 239.1727499999688,
      "v": 73
    },
    {
      "midi": 28,
      "hit": false,
      "t": 305980.68725000287,
      "d": 541.3375000000233,
      "v": 70
    },
    {
      "midi": 40,
      "hit": false,
      "t": 305980.68725000287,
      "d": 541.3375000000233,
      "v": 91
    },
    {
      "midi": 28,
      "hit": false,
      "t": 306610.6072500029,
      "d": 216.5349999999744,
      "v": 68
    },
    {
      "midi": 40,
      "hit": false,
      "t": 306610.6072500029,
      "d": 239.1727499999688,
      "v": 73
    },
    {
      "midi": 28,
      "hit": false,
      "t": 306925.5672500029,
      "d": 541.3375000000233,
      "v": 70
    },
    {
      "midi": 40,
      "hit": false,
      "t": 306925.5672500029,
      "d": 541.3375000000233,
      "v": 91
    },
    {
      "midi": 28,
      "hit": false,
      "t": 307555.4872500029,
      "d": 216.5349999999744,
      "v": 68
    },
    {
      "midi": 40,
      "hit": false,
      "t": 307555.4872500029,
      "d": 239.1727499999688,
      "v": 73
    },
    {
      "midi": 28,
      "hit": false,
      "t": 307870.4472500029,
      "d": 541.3375000000233,
      "v": 70
    },
    {
      "midi": 40,
      "hit": false,
      "t": 307870.4472500029,
      "d": 541.3375000000233,
      "v": 91
    },
    {
      "midi": 28,
      "hit": false,
      "t": 308500.3672500029,
      "d": 216.5349999999744,
      "v": 68
    },
    {
      "midi": 40,
      "hit": false,
      "t": 308500.3672500029,
      "d": 239.1727499999688,
      "v": 73
    },
    {
      "midi": 28,
      "hit": false,
      "t": 308815.3272500029,
      "d": 541.3375000000233,
      "v": 70
    },
    {
      "midi": 40,
      "hit": false,
      "t": 308815.3272500029,
      "d": 541.3375000000233,
      "v": 91
    },
    {
      "midi": 28,
      "hit": false,
      "t": 309445.2472500029,
      "d": 216.5349999999744,
      "v": 68
    },
    {
      "midi": 40,
      "hit": false,
      "t": 309445.2472500029,
      "d": 239.1727499999688,
      "v": 73
    },
    {
      "midi": 28,
      "hit": false,
      "t": 309760.2072500029,
      "d": 541.3375000000233,
      "v": 70
    },
    {
      "midi": 40,
      "hit": false,
      "t": 309760.2072500029,
      "d": 541.3375000000233,
      "v": 91
    },
    {
      "midi": 28,
      "hit": false,
      "t": 310390.12725000293,
      "d": 216.5349999999744,
      "v": 68
    },
    {
      "midi": 40,
      "hit": false,
      "t": 310390.12725000293,
      "d": 239.1727499999688,
      "v": 73
    },
    {
      "midi": 28,
      "hit": false,
      "t": 310705.0872500029,
      "d": 541.3375000000233,
      "v": 70
    },
    {
      "midi": 40,
      "hit": false,
      "t": 310705.0872500029,
      "d": 541.3375000000233,
      "v": 91
    },
    {
      "midi": 28,
      "hit": false,
      "t": 311335.00725000293,
      "d": 216.5349999999744,
      "v": 68
    },
    {
      "midi": 40,
      "hit": false,
      "t": 311335.00725000293,
      "d": 239.1727499999688,
      "v": 73
    },
    {
      "midi": 28,
      "hit": false,
      "t": 311649.9672500029,
      "d": 541.3375000000233,
      "v": 70
    },
    {
      "midi": 40,
      "hit": false,
      "t": 311649.9672500029,
      "d": 541.3375000000233,
      "v": 91
    }
  ]
}