{
  "jsonPath": "Rap/Italian Hip Hop/883/come-mai.json",
  "path": "Rap\\Italian Hip Hop\\883\\Come Mai.mid",
  "name": "Come Mai",
  "difficulty": "Advanced",
  "bpm": 75,
  "notes": [
    {
      "midi": 77,
      "hit": false,
      "t": 3200.0000000000005,
      "d": 400,
      "v": 117
    },
    {
      "midi": 84,
      "hit": false,
      "t": 3600.0000000000005,
      "d": 200,
      "v": 121
    },
    {
      "midi": 84,
      "hit": false,
      "t": 3800.0000000000005,
      "d": 799.9999999999995,
      "v": 117
    },
    {
      "midi": 77,
      "hit": false,
      "t": 4600,
      "d": 200,
      "v": 106
    },
    {
      "midi": 76,
      "hit": false,
      "t": 4800,
      "d": 400,
      "v": 112
    },
    {
      "midi": 84,
      "hit": false,
      "t": 5200,
      "d": 200,
      "v": 124
    },
    {
      "midi": 84,
      "hit": false,
      "t": 5400,
      "d": 800,
      "v": 114
    },
    {
      "midi": 72,
      "hit": false,
      "t": 6200,
      "d": 200,
      "v": 112
    },
    {
      "midi": 70,
      "hit": false,
      "t": 6400,
      "d": 400,
      "v": 112
    },
    {
      "midi": 84,
      "hit": false,
      "t": 6800,
      "d": 400,
      "v": 119
    },
    {
      "midi": 84,
      "hit": false,
      "t": 7200,
      "d": 200,
      "v": 119
    },
    {
      "midi": 81,
      "hit": false,
      "t": 7400,
      "d": 200,
      "v": 99
    },
    {
      "midi": 79,
      "hit": false,
      "t": 7600,
      "d": 200,
      "v": 102
    },
    {
      "midi": 81,
      "hit": false,
      "t": 7800,
      "d": 1000,
      "v": 124
    },
    {
      "midi": 79,
      "hit": false,
      "t": 8800,
      "d": 400,
      "v": 110
    },
    {
      "midi": 81,
      "hit": false,
      "t": 9200,
      "d": 400,
      "v": 110
    },
    {
      "midi": 82,
      "hit": false,
      "t": 9600,
      "d": 400,
      "v": 116
    },
    {
      "midi": 81,
      "hit": false,
      "t": 10000,
      "d": 200,
      "v": 110
    },
    {
      "midi": 81,
      "hit": false,
      "t": 10200,
      "d": 400,
      "v": 110
    },
    {
      "midi": 79,
      "hit": false,
      "t": 10600,
      "d": 200,
      "v": 106
    },
    {
      "midi": 81,
      "hit": false,
      "t": 10800,
      "d": 200,
      "v": 114
    },
    {
      "midi": 79,
      "hit": false,
      "t": 11000,
      "d": 400,
      "v": 119
    },
    {
      "midi": 77,
      "hit": false,
      "t": 11400,
      "d": 200,
      "v": 108
    },
    {
      "midi": 72,
      "hit": false,
      "t": 11600,
      "d": 800,
      "v": 110
    },
    {
      "midi": 72,
      "hit": false,
      "t": 12400,
      "d": 200,
      "v": 117
    },
    {
      "midi": 77,
      "hit": false,
      "t": 12600,
      "d": 200,
      "v": 117
    },
    {
      "midi": 81,
      "hit": false,
      "t": 12800,
      "d": 400,
      "v": 121
    },
    {
      "midi": 79,
      "hit": false,
      "t": 13200,
      "d": 200,
      "v": 127
    },
    {
      "midi": 79,
      "hit": false,
      "t": 13400,
      "d": 400,
      "v": 110
    },
    {
      "midi": 77,
      "hit": false,
      "t": 13800,
      "d": 200,
      "v": 106
    },
    {
      "midi": 77,
      "hit": false,
      "t": 14000,
      "d": 400,
      "v": 103
    },
    {
      "midi": 77,
      "hit": false,
      "t": 14400,
      "d": 1558.333333333334,
      "v": 117
    },
    {
      "midi": 65,
      "hit": false,
      "t": 16000,
      "d": 1461.6666666666679,
      "v": 88
    },
    {
      "midi": 60,
      "hit": false,
      "t": 16000,
      "d": 1491.6666666666679,
      "v": 96
    },
    {
      "midi": 57,
      "hit": false,
      "t": 16000,
      "d": 1516.6666666666679,
      "v": 88
    },
    {
      "midi": 41,
      "hit": false,
      "t": 16000,
      "d": 1600,
      "v": 91
    },
    {
      "midi": 53,
      "hit": false,
      "t": 17600,
      "d": 1200,
      "v": 85
    },
    {
      "midi": 57,
      "hit": false,
      "t": 17600,
      "d": 1361.6666666666679,
      "v": 85
    },
    {
      "midi": 38,
      "hit": false,
      "t": 17600,
      "d": 1503.3333333333321,
      "v": 85
    },
    {
      "midi": 62,
      "hit": false,
      "t": 17600,
      "d": 1508.3333333333321,
      "v": 85
    },
    {
      "midi": 53,
      "hit": false,
      "t": 18800,
      "d": 200,
      "v": 90
    },
    {
      "midi": 57,
      "hit": false,
      "t": 19000,
      "d": 195,
      "v": 98
    },
    {
      "midi": 53,
      "hit": false,
      "t": 19200,
      "d": 1053.3333333333321,
      "v": 96
    },
    {
      "midi": 58,
      "hit": false,
      "t": 19200,
      "d": 1053.3333333333321,
      "v": 96
    },
    {
      "midi": 50,
      "hit": false,
      "t": 19200,
      "d": 1086.6666666666642,
      "v": 96
    },
    {
      "midi": 52,
      "hit": false,
      "t": 20399.999999999996,
      "d": 2000,
      "v": 91
    },
    {
      "midi": 55,
      "hit": false,
      "t": 20399.999999999996,
      "d": 2000,
      "v": 91
    },
    {
      "midi": 60,
      "hit": false,
      "t": 20399.999999999996,
      "d": 2000,
      "v": 91
    },
    {
      "midi": 60,
      "hit": false,
      "t": 22399.999999999996,
      "d": 1200,
      "v": 96
    },
    {
      "midi": 65,
      "hit": false,
      "t": 22399.999999999996,
      "d": 1200,
      "v": 96
    },
    {
      "midi": 57,
      "hit": false,
      "t": 22399.999999999996,
      "d": 1495,
      "v": 96
    },
    {
      "midi": 41,
      "hit": false,
      "t": 22399.999999999996,
      "d": 1583.3333333333321,
      "v": 88
    },
    {
      "midi": 60,
      "hit": false,
      "t": 23599.999999999996,
      "d": 428.3333333333321,
      "v": 96
    },
    {
      "midi": 65,
      "hit": false,
      "t": 23599.999999999996,
      "d": 433.3333333333321,
      "v": 90
    },
    {
      "midi": 69,
      "hit": false,
      "t": 23599.999999999996,
      "d": 433.3333333333321,
      "v": 86
    },
    {
      "midi": 38,
      "hit": false,
      "t": 23999.999999999996,
      "d": 1545,
      "v": 88
    },
    {
      "midi": 53,
      "hit": false,
      "t": 23999.999999999996,
      "d": 1600,
      "v": 96
    },
    {
      "midi": 57,
      "hit": false,
      "t": 23999.999999999996,
      "d": 1600,
      "v": 96
    },
    {
      "midi": 62,
      "hit": false,
      "t": 23999.999999999996,
      "d": 1600,
      "v": 96
    },
    {
      "midi": 62,
      "hit": false,
      "t": 25599.999999999996,
      "d": 600,
      "v": 91
    },
    {
      "midi": 65,
      "hit": false,
      "t": 25599.999999999996,
      "d": 600,
      "v": 91
    },
    {
      "midi": 70,
      "hit": false,
      "t": 25599.999999999996,
      "d": 600,
      "v": 91
    },
    {
      "midi": 46,
      "hit": false,
      "t": 25599.999999999996,
      "d": 1175,
      "v": 91
    },
    {
      "midi": 58,
      "hit": false,
      "t": 26199.999999999996,
      "d": 600,
      "v": 96
    },
    {
      "midi": 62,
      "hit": false,
      "t": 26199.999999999996,
      "d": 600,
      "v": 96
    },
    {
      "midi": 65,
      "hit": false,
      "t": 26199.999999999996,
      "d": 600,
      "v": 96
    },
    {
      "midi": 36,
      "hit": false,
      "t": 26799.999999999996,
      "d": 1733.3333333333321,
      "v": 88
    },
    {
      "midi": 64,
      "hit": false,
      "t": 26799.999999999996,
      "d": 1883.3333333333321,
      "v": 91
    },
    {
      "midi": 67,
      "hit": false,
      "t": 26799.999999999996,
      "d": 1911.6666666666642,
      "v": 91
    },
    {
      "midi": 60,
      "hit": false,
      "t": 26799.999999999996,
      "d": 1944.9999999999964,
      "v": 91
    },
    {
      "midi": 62,
      "hit": false,
      "t": 28799.999999999993,
      "d": 1400,
      "v": 94
    },
    {
      "midi": 70,
      "hit": false,
      "t": 28799.999999999993,
      "d": 1416.6666666666679,
      "v": 94
    },
    {
      "midi": 65,
      "hit": false,
      "t": 28799.999999999993,
      "d": 1433.3333333333358,
      "v": 94
    },
    {
      "midi": 46,
      "hit": false,
      "t": 28799.999999999993,
      "d": 1595.0000000000036,
      "v": 99
    },
    {
      "midi": 64,
      "hit": false,
      "t": 30399.999999999996,
      "d": 1495,
      "v": 94
    },
    {
      "midi": 67,
      "hit": false,
      "t": 30399.999999999996,
      "d": 1525,
      "v": 94
    },
    {
      "midi": 72,
      "hit": false,
      "t": 30399.999999999996,
      "d": 1525,
      "v": 94
    },
    {
      "midi": 48,
      "hit": false,
      "t": 30399.999999999996,
      "d": 1561.6666666666679,
      "v": 92
    },
    {
      "midi": 74,
      "hit": false,
      "t": 31999.999999999996,
      "d": 1370.0000000000036,
      "v": 94
    },
    {
      "midi": 65,
      "hit": false,
      "t": 31999.999999999996,
      "d": 1395.0000000000036,
      "v": 94
    },
    {
      "midi": 69,
      "hit": false,
      "t": 31999.999999999996,
      "d": 1403.3333333333394,
      "v": 94
    },
    {
      "midi": 50,
      "hit": false,
      "t": 31999.999999999996,
      "d": 1553.3333333333394,
      "v": 94
    },
    {
      "midi": 45,
      "hit": false,
      "t": 33600,
      "d": 1320,
      "v": 91
    },
    {
      "midi": 69,
      "hit": false,
      "t": 33600,
      "d": 1366.6666666666642,
      "v": 94
    },
    {
      "midi": 65,
      "hit": false,
      "t": 33600,
      "d": 1391.6666666666642,
      "v": 94
    },
    {
      "midi": 60,
      "hit": false,
      "t": 33600,
      "d": 1400,
      "v": 94
    },
    {
      "midi": 50,
      "hit": false,
      "t": 34800,
      "d": 191.66666666666424,
      "v": 101
    },
    {
      "midi": 48,
      "hit": false,
      "t": 35000,
      "d": 200,
      "v": 98
    },
    {
      "midi": 62,
      "hit": false,
      "t": 35200,
      "d": 3125,
      "v": 94
    },
    {
      "midi": 65,
      "hit": false,
      "t": 35200,
      "d": 3125,
      "v": 94
    },
    {
      "midi": 46,
      "hit": false,
      "t": 35200,
      "d": 3166.6666666666642,
      "v": 114
    },
    {
      "midi": 58,
      "hit": false,
      "t": 35200,
      "d": 3200,
      "v": 94
    },
    {
      "midi": 67,
      "hit": false,
      "t": 38400,
      "d": 1441.6666666666642,
      "v": 94
    },
    {
      "midi": 48,
      "hit": false,
      "t": 38400,
      "d": 3041.6666666666642,
      "v": 94
    },
    {
      "midi": 60,
      "hit": false,
      "t": 38400,
      "d": 3200,
      "v": 94
    },
    {
      "midi": 64,
      "hit": false,
      "t": 38400,
      "d": 3200,
      "v": 94
    },
    {
      "midi": 67,
      "hit": false,
      "t": 40000,
      "d": 1558.3333333333285,
      "v": 88
    },
    {
      "midi": 72,
      "hit": false,
      "t": 40000,
      "d": 1561.6666666666642,
      "v": 88
    },
    {
      "midi": 65,
      "hit": false,
      "t": 41600,
      "d": 1461.6666666666642,
      "v": 88
    },
    {
      "midi": 60,
      "hit": false,
      "t": 41600,
      "d": 1491.6666666666642,
      "v": 96
    },
    {
      "midi": 57,
      "hit": false,
      "t": 41600,
      "d": 1516.6666666666642,
      "v": 88
    },
    {
      "midi": 41,
      "hit": false,
      "t": 41600,
      "d": 1600,
      "v": 91
    },
    {
      "midi": 53,
      "hit": false,
      "t": 43200,
      "d": 1200,
      "v": 85
    },
    {
      "midi": 57,
      "hit": false,
      "t": 43200,
      "d": 1361.6666666666642,
      "v": 85
    },
    {
      "midi": 38,
      "hit": false,
      "t": 43200,
      "d": 1503.3333333333358,
      "v": 85
    },
    {
      "midi": 62,
      "hit": false,
      "t": 43200,
      "d": 1508.3333333333358,
      "v": 85
    },
    {
      "midi": 53,
      "hit": false,
      "t": 44400,
      "d": 200,
      "v": 90
    },
    {
      "midi": 57,
      "hit": false,
      "t": 44600,
      "d": 195,
      "v": 98
    },
    {
      "midi": 53,
      "hit": false,
      "t": 44800,
      "d": 1053.3333333333358,
      "v": 96
    },
    {
      "midi": 58,
      "hit": false,
      "t": 44800,
      "d": 1053.3333333333358,
      "v": 96
    },
    {
      "midi": 50,
      "hit": false,
      "t": 44800,
      "d": 1086.6666666666715,
      "v": 96
    },
    {
      "midi": 52,
      "hit": false,
      "t": 46000.00000000001,
      "d": 2000,
      "v": 91
    },
    {
      "midi": 55,
      "hit": false,
      "t": 46000.00000000001,
      "d": 2000,
      "v": 91
    },
    {
      "midi": 60,
      "hit": false,
      "t": 46000.00000000001,
      "d": 2000,
      "v": 91
    },
    {
      "midi": 60,
      "hit": false,
      "t": 48000.00000000001,
      "d": 1200,
      "v": 96
    },
    {
      "midi": 65,
      "hit": false,
      "t": 48000.00000000001,
      "d": 1200,
      "v": 96
    },
    {
      "midi": 57,
      "hit": false,
      "t": 48000.00000000001,
      "d": 1495,
      "v": 96
    },
    {
      "midi": 41,
      "hit": false,
      "t": 48000.00000000001,
      "d": 1583.3333333333358,
      "v": 88
    },
    {
      "midi": 60,
      "hit": false,
      "t": 49200.00000000001,
      "d": 428.33333333333576,
      "v": 96
    },
    {
      "midi": 65,
      "hit": false,
      "t": 49200.00000000001,
      "d": 433.33333333333576,
      "v": 90
    },
    {
      "midi": 69,
      "hit": false,
      "t": 49200.00000000001,
      "d": 433.33333333333576,
      "v": 86
    },
    {
      "midi": 38,
      "hit": false,
      "t": 49600.00000000001,
      "d": 1545,
      "v": 88
    },
    {
      "midi": 53,
      "hit": false,
      "t": 49600.00000000001,
      "d": 1600,
      "v": 96
    },
    {
      "midi": 57,
      "hit": false,
      "t": 49600.00000000001,
      "d": 1600,
      "v": 96
    },
    {
      "midi": 62,
      "hit": false,
      "t": 49600.00000000001,
      "d": 1600,
      "v": 96
    },
    {
      "midi": 62,
      "hit": false,
      "t": 51200.00000000001,
      "d": 600,
      "v": 91
    },
    {
      "midi": 65,
      "hit": false,
      "t": 51200.00000000001,
      "d": 600,
      "v": 91
    },
    {
      "midi": 70,
      "hit": false,
      "t": 51200.00000000001,
      "d": 600,
      "v": 91
    },
    {
      "midi": 46,
      "hit": false,
      "t": 51200.00000000001,
      "d": 1175,
      "v": 91
    },
    {
      "midi": 58,
      "hit": false,
      "t": 51800.00000000001,
      "d": 600,
      "v": 96
    },
    {
      "midi": 62,
      "hit": false,
      "t": 51800.00000000001,
      "d": 600,
      "v": 96
    },
    {
      "midi": 65,
      "hit": false,
      "t": 51800.00000000001,
      "d": 600,
      "v": 96
    },
    {
      "midi": 36,
      "hit": false,
      "t": 52400.00000000001,
      "d": 1733.3333333333358,
      "v": 88
    },
    {
      "midi": 64,
      "hit": false,
      "t": 52400.00000000001,
      "d": 1883.3333333333358,
      "v": 91
    },
    {
      "midi": 67,
      "hit": false,
      "t": 52400.00000000001,
      "d": 1911.6666666666715,
      "v": 91
    },
    {
      "midi": 60,
      "hit": false,
      "t": 52400.00000000001,
      "d": 1945.0000000000073,
      "v": 91
    },
    {
      "midi": 62,
      "hit": false,
      "t": 54400.000000000015,
      "d": 1400,
      "v": 94
    },
    {
      "midi": 70,
      "hit": false,
      "t": 54400.000000000015,
      "d": 1416.6666666666642,
      "v": 94
    },
    {
      "midi": 65,
      "hit": false,
      "t": 54400.000000000015,
      "d": 1433.3333333333285,
      "v": 94
    },
    {
      "midi": 46,
      "hit": false,
      "t": 54400.000000000015,
      "d": 1594.9999999999927,
      "v": 99
    },
    {
      "midi": 64,
      "hit": false,
      "t": 56000.00000000001,
      "d": 1495,
      "v": 94
    },
    {
      "midi": 67,
      "hit": false,
      "t": 56000.00000000001,
      "d": 1525,
      "v": 94
    },
    {
      "midi": 72,
      "hit": false,
      "t": 56000.00000000001,
      "d": 1525,
      "v": 94
    },
    {
      "midi": 48,
      "hit": false,
      "t": 56000.00000000001,
      "d": 1561.6666666666642,
      "v": 92
    },
    {
      "midi": 74,
      "hit": false,
      "t": 57600.00000000001,
      "d": 1370,
      "v": 94
    },
    {
      "midi": 65,
      "hit": false,
      "t": 57600.00000000001,
      "d": 1395,
      "v": 94
    },
    {
      "midi": 69,
      "hit": false,
      "t": 57600.00000000001,
      "d": 1403.3333333333358,
      "v": 94
    },
    {
      "midi": 50,
      "hit": false,
      "t": 57600.00000000001,
      "d": 1553.3333333333358,
      "v": 94
    },
    {
      "midi": 45,
      "hit": false,
      "t": 59200.00000000001,
      "d": 1320,
      "v": 91
    },
    {
      "midi": 69,
      "hit": false,
      "t": 59200.00000000001,
      "d": 1366.6666666666642,
      "v": 94
    },
    {
      "midi": 65,
      "hit": false,
      "t": 59200.00000000001,
      "d": 1391.6666666666642,
      "v": 94
    },
    {
      "midi": 60,
      "hit": false,
      "t": 59200.00000000001,
      "d": 1400,
      "v": 94
    },
    {
      "midi": 50,
      "hit": false,
      "t": 60400.00000000001,
      "d": 191.66666666666424,
      "v": 101
    },
    {
      "midi": 48,
      "hit": false,
      "t": 60600.00000000001,
      "d": 200,
      "v": 98
    },
    {
      "midi": 62,
      "hit": false,
      "t": 60800.00000000001,
      "d": 3125,
      "v": 94
    },
    {
      "midi": 65,
      "hit": false,
      "t": 60800.00000000001,
      "d": 3125,
      "v": 94
    },
    {
      "midi": 46,
      "hit": false,
      "t": 60800.00000000001,
      "d": 3166.6666666666642,
      "v": 114
    },
    {
      "midi": 58,
      "hit": false,
      "t": 60800.00000000001,
      "d": 3200,
      "v": 94
    },
    {
      "midi": 67,
      "hit": false,
      "t": 64000.00000000001,
      "d": 1441.6666666666642,
      "v": 94
    },
    {
      "midi": 48,
      "hit": false,
      "t": 64000.00000000001,
      "d": 3041.6666666666642,
      "v": 94
    },
    {
      "midi": 60,
      "hit": false,
      "t": 64000.00000000001,
      "d": 3199.9999999999927,
      "v": 94
    },
    {
      "midi": 64,
      "hit": false,
      "t": 64000.00000000001,
      "d": 3199.9999999999927,
      "v": 94
    },
    {
      "midi": 67,
      "hit": false,
      "t": 65600,
      "d": 1558.333333333343,
      "v": 88
    },
    {
      "midi": 72,
      "hit": false,
      "t": 65600,
      "d": 1561.6666666666715,
      "v": 88
    },
    {
      "midi": 53,
      "hit": false,
      "t": 67200,
      "d": 536.6666666666715,
      "v": 105
    },
    {
      "midi": 62,
      "hit": false,
      "t": 67200,
      "d": 541.6666666666715,
      "v": 93
    },
    {
      "midi": 70,
      "hit": false,
      "t": 67200,
      "d": 545,
      "v": 99
    },
    {
      "midi": 53,
      "hit": false,
      "t": 67800,
      "d": 136.66666666667152,
      "v": 100
    },
    {
      "midi": 70,
      "hit": false,
      "t": 67800,
      "d": 161.66666666667152,
      "v": 88
    },
    {
      "midi": 62,
      "hit": false,
      "t": 67800,
      "d": 166.66666666667152,
      "v": 90
    },
    {
      "midi": 60,
      "hit": false,
      "t": 68400,
      "d": 1745,
      "v": 96
    },
    {
      "midi": 69,
      "hit": false,
      "t": 68400,
      "d": 1800,
      "v": 93
    },
    {
      "midi": 53,
      "hit": false,
      "t": 68400,
      "d": 1825,
      "v": 100
    },
    {
      "midi": 53,
      "hit": false,
      "t": 70400,
      "d": 500,
      "v": 98
    },
    {
      "midi": 62,
      "hit": false,
      "t": 70400,
      "d": 500,
      "v": 99
    },
    {
      "midi": 70,
      "hit": false,
      "t": 70400,
      "d": 511.6666666666715,
      "v": 101
    },
    {
      "midi": 62,
      "hit": false,
      "t": 71000,
      "d": 266.6666666666715,
      "v": 85
    },
    {
      "midi": 70,
      "hit": false,
      "t": 71000,
      "d": 266.6666666666715,
      "v": 80
    },
    {
      "midi": 53,
      "hit": false,
      "t": 71000,
      "d": 270,
      "v": 98
    },
    {
      "midi": 69,
      "hit": false,
      "t": 71600,
      "d": 1800,
      "v": 90
    },
    {
      "midi": 60,
      "hit": false,
      "t": 71600,
      "d": 1833.3333333333285,
      "v": 88
    },
    {
      "midi": 53,
      "hit": false,
      "t": 71600,
      "d": 1850,
      "v": 98
    },
    {
      "midi": 70,
      "hit": false,
      "t": 73600,
      "d": 495,
      "v": 95
    },
    {
      "midi": 53,
      "hit": false,
      "t": 73600,
      "d": 500,
      "v": 95
    },
    {
      "midi": 62,
      "hit": false,
      "t": 73600,
      "d": 503.3333333333285,
      "v": 86
    },
    {
      "midi": 70,
      "hit": false,
      "t": 74200,
      "d": 358.3333333333285,
      "v": 78
    },
    {
      "midi": 53,
      "hit": false,
      "t": 74200,
      "d": 375,
      "v": 93
    },
    {
      "midi": 62,
      "hit": false,
      "t": 74200,
      "d": 378.3333333333285,
      "v": 84
    },
    {
      "midi": 69,
      "hit": false,
      "t": 74800,
      "d": 1870,
      "v": 91
    },
    {
      "midi": 53,
      "hit": false,
      "t": 74800,
      "d": 1883.3333333333285,
      "v": 105
    },
    {
      "midi": 60,
      "hit": false,
      "t": 74800,
      "d": 1883.3333333333285,
      "v": 92
    },
    {
      "midi": 52,
      "hit": false,
      "t": 76800,
      "d": 491.6666666666715,
      "v": 94
    },
    {
      "midi": 60,
      "hit": false,
      "t": 76800,
      "d": 503.33333333334303,
      "v": 87
    },
    {
      "midi": 67,
      "hit": false,
      "t": 76800,
      "d": 508.33333333334303,
      "v": 98
    },
    {
      "midi": 52,
      "hit": false,
      "t": 77400.00000000001,
      "d": 303.3333333333285,
      "v": 86
    },
    {
      "midi": 60,
      "hit": false,
      "t": 77400.00000000001,
      "d": 311.66666666665697,
      "v": 87
    },
    {
      "midi": 67,
      "hit": false,
      "t": 77400.00000000001,
      "d": 333.3333333333285,
      "v": 86
    },
    {
      "midi": 60,
      "hit": false,
      "t": 78000.00000000001,
      "d": 1686.6666666666715,
      "v": 90
    },
    {
      "midi": 52,
      "hit": false,
      "t": 78000.00000000001,
      "d": 1708.333333333343,
      "v": 92
    },
    {
      "midi": 67,
      "hit": false,
      "t": 78000.00000000001,
      "d": 1708.333333333343,
      "v": 98
    },
    {
      "midi": 62,
      "hit": false,
      "t": 80000.00000000003,
      "d": 475,
      "v": 93
    },
    {
      "midi": 53,
      "hit": false,
      "t": 80000.00000000003,
      "d": 483.3333333333285,
      "v": 105
    },
    {
      "midi": 70,
      "hit": false,
      "t": 80000.00000000003,
      "d": 486.66666666665697,
      "v": 77
    },
    {
      "midi": 62,
      "hit": false,
      "t": 80600.00000000001,
      "d": 166.66666666667152,
      "v": 92
    },
    {
      "midi": 70,
      "hit": false,
      "t": 80600.00000000001,
      "d": 166.66666666667152,
      "v": 82
    },
    {
      "midi": 53,
      "hit": false,
      "t": 80600.00000000001,
      "d": 170,
      "v": 95
    },
    {
      "midi": 69,
      "hit": false,
      "t": 81200.00000000001,
      "d": 1711.6666666666715,
      "v": 92
    },
    {
      "midi": 60,
      "hit": false,
      "t": 81200.00000000001,
      "d": 1741.6666666666715,
      "v": 92
    },
    {
      "midi": 53,
      "hit": false,
      "t": 81200.00000000001,
      "d": 1745,
      "v": 96
    },
    {
      "midi": 53,
      "hit": false,
      "t": 83200.00000000001,
      "d": 483.3333333333285,
      "v": 103
    },
    {
      "midi": 70,
      "hit": false,
      "t": 83200.00000000001,
      "d": 491.66666666665697,
      "v": 101
    },
    {
      "midi": 62,
      "hit": false,
      "t": 83200.00000000001,
      "d": 503.3333333333285,
      "v": 96
    },
    {
      "midi": 70,
      "hit": false,
      "t": 83800.00000000001,
      "d": 136.66666666667152,
      "v": 74
    },
    {
      "midi": 62,
      "hit": false,
      "t": 83800.00000000001,
      "d": 145,
      "v": 85
    },
    {
      "midi": 53,
      "hit": false,
      "t": 83800.00000000001,
      "d": 150,
      "v": 93
    },
    {
      "midi": 69,
      "hit": false,
      "t": 84400.00000000001,
      "d": 1716.6666666666715,
      "v": 89
    },
    {
      "midi": 60,
      "hit": false,
      "t": 84400.00000000001,
      "d": 1733.333333333343,
      "v": 95
    },
    {
      "midi": 53,
      "hit": false,
      "t": 84400.00000000001,
      "d": 1895.0000000000146,
      "v": 99
    },
    {
      "midi": 53,
      "hit": false,
      "t": 86400.00000000003,
      "d": 450,
      "v": 103
    },
    {
      "midi": 70,
      "hit": false,
      "t": 86400.00000000003,
      "d": 450,
      "v": 93
    },
    {
      "midi": 62,
      "hit": false,
      "t": 86400.00000000003,
      "d": 461.6666666666715,
      "v": 93
    },
    {
      "midi": 53,
      "hit": false,
      "t": 87000.00000000003,
      "d": 186.66666666667152,
      "v": 100
    },
    {
      "midi": 62,
      "hit": false,
      "t": 87000.00000000003,
      "d": 195,
      "v": 91
    },
    {
      "midi": 70,
      "hit": false,
      "t": 87000.00000000003,
      "d": 203.33333333332848,
      "v": 86
    },
    {
      "midi": 60,
      "hit": false,
      "t": 87600.00000000003,
      "d": 1850,
      "v": 98
    },
    {
      "midi": 69,
      "hit": false,
      "t": 87600.00000000003,
      "d": 1878.3333333333285,
      "v": 99
    },
    {
      "midi": 53,
      "hit": false,
      "t": 87600.00000000003,
      "d": 1891.666666666657,
      "v": 103
    },
    {
      "midi": 70,
      "hit": false,
      "t": 89600.00000000001,
      "d": 1400,
      "v": 97
    },
    {
      "midi": 53,
      "hit": false,
      "t": 89600.00000000001,
      "d": 1445,
      "v": 95
    },
    {
      "midi": 62,
      "hit": false,
      "t": 89600.00000000001,
      "d": 1450,
      "v": 89
    },
    {
      "midi": 60,
      "hit": false,
      "t": 91200.00000000001,
      "d": 1503.3333333333285,
      "v": 95
    },
    {
      "midi": 52,
      "hit": false,
      "t": 91200.00000000001,
      "d": 1508.3333333333285,
      "v": 92
    },
    {
      "midi": 67,
      "hit": false,
      "t": 91200.00000000001,
      "d": 1553.3333333333285,
      "v": 91
    },
    {
      "midi": 57,
      "hit": false,
      "t": 92800.00000000001,
      "d": 303.3333333333285,
      "v": 79
    },
    {
      "midi": 65,
      "hit": false,
      "t": 92800.00000000001,
      "d": 528.3333333333285,
      "v": 73
    },
    {
      "midi": 60,
      "hit": false,
      "t": 92800.00000000001,
      "d": 558.3333333333285,
      "v": 90
    },
    {
      "midi": 41,
      "hit": false,
      "t": 92800.00000000001,
      "d": 861.6666666666715,
      "v": 97
    },
    {
      "midi": 57,
      "hit": false,
      "t": 93200.00000000001,
      "d": 250,
      "v": 51
    },
    {
      "midi": 65,
      "hit": false,
      "t": 93600.00000000001,
      "d": 528.3333333333285,
      "v": 74
    },
    {
      "midi": 57,
      "hit": false,
      "t": 93600.00000000001,
      "d": 533.3333333333285,
      "v": 79
    },
    {
      "midi": 60,
      "hit": false,
      "t": 93600.00000000001,
      "d": 570,
      "v": 90
    },
    {
      "midi": 41,
      "hit": false,
      "t": 94000.00000000001,
      "d": 400,
      "v": 97
    },
    {
      "midi": 55,
      "hit": false,
      "t": 94400.00000000001,
      "d": 308.3333333333285,
      "v": 75
    },
    {
      "midi": 60,
      "hit": false,
      "t": 94400.00000000001,
      "d": 483.3333333333285,
      "v": 86
    },
    {
      "midi": 64,
      "hit": false,
      "t": 94400.00000000001,
      "d": 633.3333333333285,
      "v": 70
    },
    {
      "midi": 40,
      "hit": false,
      "t": 94400.00000000001,
      "d": 928.3333333333139,
      "v": 82
    },
    {
      "midi": 55,
      "hit": false,
      "t": 94800.00000000001,
      "d": 261.66666666665697,
      "v": 49
    },
    {
      "midi": 55,
      "hit": false,
      "t": 95200,
      "d": 400,
      "v": 80
    },
    {
      "midi": 60,
      "hit": false,
      "t": 95200,
      "d": 400,
      "v": 92
    },
    {
      "midi": 64,
      "hit": false,
      "t": 95200,
      "d": 400,
      "v": 78
    },
    {
      "midi": 40,
      "hit": false,
      "t": 95600,
      "d": 400,
      "v": 107
    },
    {
      "midi": 53,
      "hit": false,
      "t": 96000,
      "d": 345,
      "v": 79
    },
    {
      "midi": 58,
      "hit": false,
      "t": 96000,
      "d": 375,
      "v": 100
    },
    {
      "midi": 62,
      "hit": false,
      "t": 96000,
      "d": 375,
      "v": 90
    },
    {
      "midi": 38,
      "hit": false,
      "t": 96000,
      "d": 1095,
      "v": 99
    },
    {
      "midi": 58,
      "hit": false,
      "t": 96600,
      "d": 600,
      "v": 100
    },
    {
      "midi": 62,
      "hit": false,
      "t": 96600,
      "d": 600,
      "v": 83
    },
    {
      "midi": 65,
      "hit": false,
      "t": 96600,
      "d": 600,
      "v": 83
    },
    {
      "midi": 57,
      "hit": false,
      "t": 97200,
      "d": 611.6666666666715,
      "v": 90
    },
    {
      "midi": 60,
      "hit": false,
      "t": 97200,
      "d": 836.6666666666715,
      "v": 97
    },
    {
      "midi": 65,
      "hit": false,
      "t": 97200,
      "d": 1058.3333333333285,
      "v": 76
    },
    {
      "midi": 41,
      "hit": false,
      "t": 97200,
      "d": 1286.6666666666715,
      "v": 86
    },
    {
      "midi": 57,
      "hit": false,
      "t": 98000,
      "d": 758.3333333333285,
      "v": 74
    },
    {
      "midi": 60,
      "hit": false,
      "t": 98200,
      "d": 391.6666666666715,
      "v": 82
    },
    {
      "midi": 65,
      "hit": false,
      "t": 98400,
      "d": 691.666666666657,
      "v": 92
    },
    {
      "midi": 60,
      "hit": false,
      "t": 98600,
      "d": 308.3333333333285,
      "v": 94
    },
    {
      "midi": 41,
      "hit": false,
      "t": 98800,
      "d": 378.3333333333285,
      "v": 92
    },
    {
      "midi": 57,
      "hit": false,
      "t": 98800,
      "d": 400,
      "v": 76
    },
    {
      "midi": 58,
      "hit": false,
      "t": 99200,
      "d": 250,
      "v": 89
    },
    {
      "midi": 62,
      "hit": false,
      "t": 99200,
      "d": 466.6666666666715,
      "v": 94
    },
    {
      "midi": 65,
      "hit": false,
      "t": 99200,
      "d": 616.6666666666715,
      "v": 86
    },
    {
      "midi": 46,
      "hit": false,
      "t": 99200,
      "d": 953.333333333343,
      "v": 109
    },
    {
      "midi": 58,
      "hit": false,
      "t": 99600,
      "d": 258.33333333334303,
      "v": 55
    },
    {
      "midi": 58,
      "hit": false,
      "t": 100000.00000000001,
      "d": 400,
      "v": 89
    },
    {
      "midi": 62,
      "hit": false,
      "t": 100000.00000000001,
      "d": 403.3333333333285,
      "v": 86
    },
    {
      "midi": 65,
      "hit": false,
      "t": 100000.00000000001,
      "d": 425,
      "v": 85
    },
    {
      "midi": 46,
      "hit": false,
      "t": 100400.00000000001,
      "d": 328.33333333334303,
      "v": 109
    },
    {
      "midi": 57,
      "hit": false,
      "t": 100716.66666666669,
      "d": 325.00000000001455,
      "v": 72
    },
    {
      "midi": 60,
      "hit": false,
      "t": 100753.33333333336,
      "d": 416.6666666666715,
      "v": 90
    },
    {
      "midi": 41,
      "hit": false,
      "t": 100800.00000000003,
      "d": 1025,
      "v": 66
    },
    {
      "midi": 65,
      "hit": false,
      "t": 100825.00000000003,
      "d": 528.3333333333285,
      "v": 101
    },
    {
      "midi": 57,
      "hit": false,
      "t": 101183.33333333336,
      "d": 283.3333333333285,
      "v": 66
    },
    {
      "midi": 57,
      "hit": false,
      "t": 101603.33333333336,
      "d": 400,
      "v": 90
    },
    {
      "midi": 60,
      "hit": false,
      "t": 101608.33333333336,
      "d": 386.6666666666715,
      "v": 104
    },
    {
      "midi": 65,
      "hit": false,
      "t": 101608.33333333336,
      "d": 591.6666666666715,
      "v": 86
    },
    {
      "midi": 41,
      "hit": false,
      "t": 102000.00000000003,
      "d": 375,
      "v": 85
    },
    {
      "midi": 58,
      "hit": false,
      "t": 102400.00000000003,
      "d": 250,
      "v": 92
    },
    {
      "midi": 62,
      "hit": false,
      "t": 102400.00000000003,
      "d": 441.6666666666715,
      "v": 97
    },
    {
      "midi": 65,
      "hit": false,
      "t": 102400.00000000003,
      "d": 636.6666666666715,
      "v": 99
    },
    {
      "midi": 43,
      "hit": false,
      "t": 102400.00000000003,
      "d": 783.333333333343,
      "v": 94
    },
    {
      "midi": 58,
      "hit": false,
      "t": 103200.00000000004,
      "d": 8.333333333328483,
      "v": 89
    },
    {
      "midi": 62,
      "hit": false,
      "t": 103200.00000000004,
      "d": 408.3333333333285,
      "v": 92
    },
    {
      "midi": 65,
      "hit": false,
      "t": 103200.00000000004,
      "d": 420,
      "v": 94
    },
    {
      "midi": 43,
      "hit": false,
      "t": 103600.00000000004,
      "d": 395,
      "v": 99
    },
    {
      "midi": 60,
      "hit": false,
      "t": 104000.00000000004,
      "d": 225,
      "v": 88
    },
    {
      "midi": 64,
      "hit": false,
      "t": 104000.00000000004,
      "d": 433.3333333333285,
      "v": 83
    },
    {
      "midi": 67,
      "hit": false,
      "t": 104000.00000000004,
      "d": 466.66666666665697,
      "v": 99
    },
    {
      "midi": 48,
      "hit": false,
      "t": 104000.00000000004,
      "d": 941.666666666657,
      "v": 92
    },
    {
      "midi": 60,
      "hit": false,
      "t": 104400.00000000004,
      "d": 274.99999999998545,
      "v": 63
    },
    {
      "midi": 60,
      "hit": false,
      "t": 104800.00000000003,
      "d": 745,
      "v": 75
    },
    {
      "midi": 64,
      "hit": false,
      "t": 104800.00000000003,
      "d": 750,
      "v": 86
    },
    {
      "midi": 67,
      "hit": false,
      "t": 104800.00000000003,
      "d": 761.6666666666715,
      "v": 99
    },
    {
      "midi": 48,
      "hit": false,
      "t": 105200.00000000003,
      "d": 386.6666666666715,
      "v": 99
    },
    {
      "midi": 57,
      "hit": false,
      "t": 105600.00000000003,
      "d": 303.3333333333285,
      "v": 79
    },
    {
      "midi": 65,
      "hit": false,
      "t": 105600.00000000003,
      "d": 528.3333333333285,
      "v": 73
    },
    {
      "midi": 60,
      "hit": false,
      "t": 105600.00000000003,
      "d": 558.3333333333285,
      "v": 90
    },
    {
      "midi": 41,
      "hit": false,
      "t": 105600.00000000003,
      "d": 861.6666666666715,
      "v": 97
    },
    {
      "midi": 57,
      "hit": false,
      "t": 106000.00000000003,
      "d": 250,
      "v": 51
    },
    {
      "midi": 65,
      "hit": false,
      "t": 106400.00000000003,
      "d": 528.3333333333285,
      "v": 74
    },
    {
      "midi": 57,
      "hit": false,
      "t": 106400.00000000003,
      "d": 533.3333333333285,
      "v": 79
    },
    {
      "midi": 60,
      "hit": false,
      "t": 106400.00000000003,
      "d": 570,
      "v": 90
    },
    {
      "midi": 41,
      "hit": false,
      "t": 106800.00000000003,
      "d": 400,
      "v": 97
    },
    {
      "midi": 55,
      "hit": false,
      "t": 107200.00000000003,
      "d": 308.3333333333285,
      "v": 75
    },
    {
      "midi": 60,
      "hit": false,
      "t": 107200.00000000003,
      "d": 483.3333333333285,
      "v": 86
    },
    {
      "midi": 64,
      "hit": false,
      "t": 107200.00000000003,
      "d": 633.3333333333285,
      "v": 70
    },
    {
      "midi": 40,
      "hit": false,
      "t": 107200.00000000003,
      "d": 928.3333333333139,
      "v": 82
    },
    {
      "midi": 55,
      "hit": false,
      "t": 107600.00000000003,
      "d": 261.66666666665697,
      "v": 49
    },
    {
      "midi": 55,
      "hit": false,
      "t": 108000.00000000001,
      "d": 400,
      "v": 80
    },
    {
      "midi": 60,
      "hit": false,
      "t": 108000.00000000001,
      "d": 400,
      "v": 92
    },
    {
      "midi": 64,
      "hit": false,
      "t": 108000.00000000001,
      "d": 400,
      "v": 78
    },
    {
      "midi": 40,
      "hit": false,
      "t": 108400.00000000001,
      "d": 400,
      "v": 107
    },
    {
      "midi": 53,
      "hit": false,
      "t": 108800.00000000001,
      "d": 345,
      "v": 79
    },
    {
      "midi": 58,
      "hit": false,
      "t": 108800.00000000001,
      "d": 375,
      "v": 100
    },
    {
      "midi": 62,
      "hit": false,
      "t": 108800.00000000001,
      "d": 375,
      "v": 90
    },
    {
      "midi": 38,
      "hit": false,
      "t": 108800.00000000001,
      "d": 1095,
      "v": 99
    },
    {
      "midi": 58,
      "hit": false,
      "t": 109400.00000000001,
      "d": 600,
      "v": 100
    },
    {
      "midi": 62,
      "hit": false,
      "t": 109400.00000000001,
      "d": 600,
      "v": 83
    },
    {
      "midi": 65,
      "hit": false,
      "t": 109400.00000000001,
      "d": 600,
      "v": 83
    },
    {
      "midi": 57,
      "hit": false,
      "t": 110000.00000000001,
      "d": 611.6666666666715,
      "v": 90
    },
    {
      "midi": 60,
      "hit": false,
      "t": 110000.00000000001,
      "d": 836.6666666666715,
      "v": 97
    },
    {
      "midi": 65,
      "hit": false,
      "t": 110000.00000000001,
      "d": 1058.3333333333285,
      "v": 76
    },
    {
      "midi": 41,
      "hit": false,
      "t": 110000.00000000001,
      "d": 1286.6666666666715,
      "v": 86
    },
    {
      "midi": 57,
      "hit": false,
      "t": 110800.00000000001,
      "d": 758.3333333333285,
      "v": 74
    },
    {
      "midi": 60,
      "hit": false,
      "t": 111000.00000000001,
      "d": 391.6666666666715,
      "v": 82
    },
    {
      "midi": 65,
      "hit": false,
      "t": 111200.00000000001,
      "d": 691.666666666657,
      "v": 92
    },
    {
      "midi": 60,
      "hit": false,
      "t": 111400.00000000001,
      "d": 308.3333333333285,
      "v": 94
    },
    {
      "midi": 41,
      "hit": false,
      "t": 111600.00000000001,
      "d": 378.3333333333285,
      "v": 92
    },
    {
      "midi": 57,
      "hit": false,
      "t": 111600.00000000001,
      "d": 400,
      "v": 76
    },
    {
      "midi": 58,
      "hit": false,
      "t": 112000.00000000001,
      "d": 250,
      "v": 89
    },
    {
      "midi": 62,
      "hit": false,
      "t": 112000.00000000001,
      "d": 466.6666666666715,
      "v": 94
    },
    {
      "midi": 65,
      "hit": false,
      "t": 112000.00000000001,
      "d": 616.6666666666715,
      "v": 86
    },
    {
      "midi": 46,
      "hit": false,
      "t": 112000.00000000001,
      "d": 953.333333333343,
      "v": 109
    },
    {
      "midi": 58,
      "hit": false,
      "t": 112400.00000000001,
      "d": 258.33333333334303,
      "v": 55
    },
    {
      "midi": 58,
      "hit": false,
      "t": 112800.00000000003,
      "d": 400,
      "v": 89
    },
    {
      "midi": 62,
      "hit": false,
      "t": 112800.00000000003,
      "d": 403.3333333333285,
      "v": 86
    },
    {
      "midi": 65,
      "hit": false,
      "t": 112800.00000000003,
      "d": 425,
      "v": 85
    },
    {
      "midi": 46,
      "hit": false,
      "t": 113200.00000000003,
      "d": 328.3333333333285,
      "v": 109
    },
    {
      "midi": 57,
      "hit": false,
      "t": 113503.33333333336,
      "d": 325,
      "v": 43
    },
    {
      "midi": 60,
      "hit": false,
      "t": 113545.00000000003,
      "d": 446.66666666665697,
      "v": 74
    },
    {
      "midi": 65,
      "hit": false,
      "t": 113600.00000000003,
      "d": 528.3333333333139,
      "v": 88
    },
    {
      "midi": 41,
      "hit": false,
      "t": 113600.00000000003,
      "d": 1024.9999999999854,
      "v": 66
    },
    {
      "midi": 57,
      "hit": false,
      "t": 114000.00000000001,
      "d": 283.3333333333285,
      "v": 66
    },
    {
      "midi": 60,
      "hit": false,
      "t": 114400.00000000001,
      "d": 386.6666666666715,
      "v": 104
    },
    {
      "midi": 57,
      "hit": false,
      "t": 114400.00000000001,
      "d": 400,
      "v": 90
    },
    {
      "midi": 65,
      "hit": false,
      "t": 114400.00000000001,
      "d": 591.6666666666715,
      "v": 86
    },
    {
      "midi": 41,
      "hit": false,
      "t": 114800.00000000001,
      "d": 375,
      "v": 85
    },
    {
      "midi": 55,
      "hit": false,
      "t": 115200.00000000001,
      "d": 341.6666666666715,
      "v": 79
    },
    {
      "midi": 60,
      "hit": false,
      "t": 115200.00000000001,
      "d": 536.6666666666715,
      "v": 90
    },
    {
      "midi": 64,
      "hit": false,
      "t": 115200.00000000001,
      "d": 616.6666666666715,
      "v": 78
    },
    {
      "midi": 48,
      "hit": false,
      "t": 115200.00000000001,
      "d": 920,
      "v": 88
    },
    {
      "midi": 55,
      "hit": false,
      "t": 115600.00000000001,
      "d": 211.66666666667152,
      "v": 48
    },
    {
      "midi": 55,
      "hit": false,
      "t": 116000.00000000001,
      "d": 466.6666666666715,
      "v": 86
    },
    {
      "midi": 60,
      "hit": false,
      "t": 116000.00000000001,
      "d": 486.6666666666715,
      "v": 94
    },
    {
      "midi": 64,
      "hit": false,
      "t": 116000.00000000001,
      "d": 586.6666666666715,
      "v": 80
    },
    {
      "midi": 48,
      "hit": false,
      "t": 116400.00000000001,
      "d": 358.33333333334303,
      "v": 99
    },
    {
      "midi": 65,
      "hit": false,
      "t": 116800.00000000003,
      "d": 658.3333333333285,
      "v": 79
    },
    {
      "midi": 60,
      "hit": false,
      "t": 116800.00000000003,
      "d": 670,
      "v": 76
    },
    {
      "midi": 57,
      "hit": false,
      "t": 116800.00000000003,
      "d": 675,
      "v": 80
    },
    {
      "midi": 41,
      "hit": false,
      "t": 116800.00000000003,
      "d": 900,
      "v": 72
    },
    {
      "midi": 60,
      "hit": false,
      "t": 117600.00000000003,
      "d": 645,
      "v": 92
    },
    {
      "midi": 65,
      "hit": false,
      "t": 117600.00000000003,
      "d": 661.6666666666715,
      "v": 76
    },
    {
      "midi": 57,
      "hit": false,
      "t": 117600.00000000003,
      "d": 666.6666666666715,
      "v": 79
    },
    {
      "midi": 41,
      "hit": false,
      "t": 118000.00000000003,
      "d": 283.33333333334303,
      "v": 75
    },
    {
      "midi": 65,
      "hit": false,
      "t": 118400.00000000004,
      "d": 1461.6666666666715,
      "v": 88
    },
    {
      "midi": 60,
      "hit": false,
      "t": 118400.00000000004,
      "d": 1491.6666666666715,
      "v": 96
    },
    {
      "midi": 57,
      "hit": false,
      "t": 118400.00000000004,
      "d": 1516.6666666666715,
      "v": 88
    },
    {
      "midi": 41,
      "hit": false,
      "t": 118400.00000000004,
      "d": 1600,
      "v": 91
    },
    {
      "midi": 53,
      "hit": false,
      "t": 120000.00000000004,
      "d": 1200,
      "v": 85
    },
    {
      "midi": 57,
      "hit": false,
      "t": 120000.00000000004,
      "d": 1361.6666666666715,
      "v": 85
    },
    {
      "midi": 38,
      "hit": false,
      "t": 120000.00000000004,
      "d": 1503.3333333333285,
      "v": 85
    },
    {
      "midi": 62,
      "hit": false,
      "t": 120000.00000000004,
      "d": 1508.3333333333285,
      "v": 85
    },
    {
      "midi": 53,
      "hit": false,
      "t": 121200.00000000004,
      "d": 200,
      "v": 90
    },
    {
      "midi": 57,
      "hit": false,
      "t": 121400.00000000004,
      "d": 195,
      "v": 98
    },
    {
      "midi": 53,
      "hit": false,
      "t": 121600.00000000004,
      "d": 1053.3333333333285,
      "v": 96
    },
    {
      "midi": 58,
      "hit": false,
      "t": 121600.00000000004,
      "d": 1053.3333333333285,
      "v": 96
    },
    {
      "midi": 50,
      "hit": false,
      "t": 121600.00000000004,
      "d": 1086.666666666657,
      "v": 96
    },
    {
      "midi": 52,
      "hit": false,
      "t": 122800.00000000003,
      "d": 2000,
      "v": 91
    },
    {
      "midi": 55,
      "hit": false,
      "t": 122800.00000000003,
      "d": 2000,
      "v": 91
    },
    {
      "midi": 60,
      "hit": false,
      "t": 122800.00000000003,
      "d": 2000,
      "v": 91
    },
    {
      "midi": 60,
      "hit": false,
      "t": 124800.00000000003,
      "d": 1200,
      "v": 96
    },
    {
      "midi": 65,
      "hit": false,
      "t": 124800.00000000003,
      "d": 1200,
      "v": 96
    },
    {
      "midi": 57,
      "hit": false,
      "t": 124800.00000000003,
      "d": 1495,
      "v": 96
    },
    {
      "midi": 41,
      "hit": false,
      "t": 124800.00000000003,
      "d": 1583.3333333333285,
      "v": 88
    },
    {
      "midi": 60,
      "hit": false,
      "t": 126000.00000000003,
      "d": 428.3333333333285,
      "v": 96
    },
    {
      "midi": 65,
      "hit": false,
      "t": 126000.00000000003,
      "d": 433.3333333333285,
      "v": 90
    },
    {
      "midi": 69,
      "hit": false,
      "t": 126000.00000000003,
      "d": 433.3333333333285,
      "v": 86
    },
    {
      "midi": 38,
      "hit": false,
      "t": 126400.00000000003,
      "d": 1545,
      "v": 88
    },
    {
      "midi": 53,
      "hit": false,
      "t": 126400.00000000003,
      "d": 1600,
      "v": 96
    },
    {
      "midi": 57,
      "hit": false,
      "t": 126400.00000000003,
      "d": 1600,
      "v": 96
    },
    {
      "midi": 62,
      "hit": false,
      "t": 126400.00000000003,
      "d": 1600,
      "v": 96
    },
    {
      "midi": 62,
      "hit": false,
      "t": 128000.00000000003,
      "d": 600,
      "v": 91
    },
    {
      "midi": 65,
      "hit": false,
      "t": 128000.00000000003,
      "d": 600,
      "v": 91
    },
    {
      "midi": 70,
      "hit": false,
      "t": 128000.00000000003,
      "d": 600,
      "v": 91
    },
    {
      "midi": 46,
      "hit": false,
      "t": 128000.00000000003,
      "d": 1175,
      "v": 91
    },
    {
      "midi": 58,
      "hit": false,
      "t": 128600.00000000003,
      "d": 600,
      "v": 96
    },
    {
      "midi": 62,
      "hit": false,
      "t": 128600.00000000003,
      "d": 600,
      "v": 96
    },
    {
      "midi": 65,
      "hit": false,
      "t": 128600.00000000003,
      "d": 600,
      "v": 96
    },
    {
      "midi": 36,
      "hit": false,
      "t": 129200.00000000003,
      "d": 1733.3333333333285,
      "v": 88
    },
    {
      "midi": 64,
      "hit": false,
      "t": 129200.00000000003,
      "d": 1883.333333333343,
      "v": 91
    },
    {
      "midi": 67,
      "hit": false,
      "t": 129200.00000000003,
      "d": 1911.666666666686,
      "v": 91
    },
    {
      "midi": 60,
      "hit": false,
      "t": 129200.00000000003,
      "d": 1945.000000000029,
      "v": 91
    },
    {
      "midi": 62,
      "hit": false,
      "t": 131200.00000000006,
      "d": 1400,
      "v": 94
    },
    {
      "midi": 70,
      "hit": false,
      "t": 131200.00000000006,
      "d": 1416.666666666657,
      "v": 94
    },
    {
      "midi": 65,
      "hit": false,
      "t": 131200.00000000006,
      "d": 1433.333333333314,
      "v": 94
    },
    {
      "midi": 46,
      "hit": false,
      "t": 131200.00000000006,
      "d": 1594.999999999971,
      "v": 99
    },
    {
      "midi": 64,
      "hit": false,
      "t": 132800.00000000003,
      "d": 1495,
      "v": 94
    },
    {
      "midi": 67,
      "hit": false,
      "t": 132800.00000000003,
      "d": 1525,
      "v": 94
    },
    {
      "midi": 72,
      "hit": false,
      "t": 132800.00000000003,
      "d": 1525,
      "v": 94
    },
    {
      "midi": 48,
      "hit": false,
      "t": 132800.00000000003,
      "d": 1561.666666666657,
      "v": 92
    },
    {
      "midi": 74,
      "hit": false,
      "t": 134400.00000000003,
      "d": 1370,
      "v": 94
    },
    {
      "midi": 65,
      "hit": false,
      "t": 134400.00000000003,
      "d": 1395,
      "v": 94
    },
    {
      "midi": 69,
      "hit": false,
      "t": 134400.00000000003,
      "d": 1403.333333333343,
      "v": 94
    },
    {
      "midi": 50,
      "hit": false,
      "t": 134400.00000000003,
      "d": 1553.333333333343,
      "v": 94
    },
    {
      "midi": 45,
      "hit": false,
      "t": 136000.00000000003,
      "d": 1320,
      "v": 91
    },
    {
      "midi": 69,
      "hit": false,
      "t": 136000.00000000003,
      "d": 1366.666666666657,
      "v": 94
    },
    {
      "midi": 65,
      "hit": false,
      "t": 136000.00000000003,
      "d": 1391.666666666657,
      "v": 94
    },
    {
      "midi": 60,
      "hit": false,
      "t": 136000.00000000003,
      "d": 1400,
      "v": 94
    },
    {
      "midi": 50,
      "hit": false,
      "t": 137200.00000000003,
      "d": 191.66666666665697,
      "v": 101
    },
    {
      "midi": 48,
      "hit": false,
      "t": 137400.00000000003,
      "d": 200,
      "v": 98
    },
    {
      "midi": 62,
      "hit": false,
      "t": 137600.00000000003,
      "d": 3125,
      "v": 94
    },
    {
      "midi": 65,
      "hit": false,
      "t": 137600.00000000003,
      "d": 3125,
      "v": 94
    },
    {
      "midi": 46,
      "hit": false,
      "t": 137600.00000000003,
      "d": 3166.666666666657,
      "v": 114
    },
    {
      "midi": 58,
      "hit": false,
      "t": 137600.00000000003,
      "d": 3200,
      "v": 94
    },
    {
      "midi": 67,
      "hit": false,
      "t": 140800.00000000003,
      "d": 1441.666666666657,
      "v": 94
    },
    {
      "midi": 48,
      "hit": false,
      "t": 140800.00000000003,
      "d": 3041.666666666657,
      "v": 94
    },
    {
      "midi": 60,
      "hit": false,
      "t": 140800.00000000003,
      "d": 3200,
      "v": 94
    },
    {
      "midi": 64,
      "hit": false,
      "t": 140800.00000000003,
      "d": 3200,
      "v": 94
    },
    {
      "midi": 67,
      "hit": false,
      "t": 142400.00000000003,
      "d": 1558.333333333314,
      "v": 88
    },
    {
      "midi": 72,
      "hit": false,
      "t": 142400.00000000003,
      "d": 1561.666666666657,
      "v": 88
    },
    {
      "midi": 53,
      "hit": false,
      "t": 144000.00000000003,
      "d": 536.666666666657,
      "v": 105
    },
    {
      "midi": 62,
      "hit": false,
      "t": 144000.00000000003,
      "d": 541.666666666657,
      "v": 93
    },
    {
      "midi": 70,
      "hit": false,
      "t": 144000.00000000003,
      "d": 545,
      "v": 99
    },
    {
      "midi": 53,
      "hit": false,
      "t": 144600.00000000003,
      "d": 136.66666666665697,
      "v": 100
    },
    {
      "midi": 70,
      "hit": false,
      "t": 144600.00000000003,
      "d": 161.66666666665697,
      "v": 88
    },
    {
      "midi": 62,
      "hit": false,
      "t": 144600.00000000003,
      "d": 166.66666666665697,
      "v": 90
    },
    {
      "midi": 60,
      "hit": false,
      "t": 145200.00000000003,
      "d": 1745,
      "v": 96
    },
    {
      "midi": 69,
      "hit": false,
      "t": 145200.00000000003,
      "d": 1800,
      "v": 93
    },
    {
      "midi": 53,
      "hit": false,
      "t": 145200.00000000003,
      "d": 1825,
      "v": 100
    },
    {
      "midi": 53,
      "hit": false,
      "t": 147200.00000000003,
      "d": 500,
      "v": 98
    },
    {
      "midi": 62,
      "hit": false,
      "t": 147200.00000000003,
      "d": 500,
      "v": 99
    },
    {
      "midi": 70,
      "hit": false,
      "t": 147200.00000000003,
      "d": 511.66666666665697,
      "v": 101
    },
    {
      "midi": 62,
      "hit": false,
      "t": 147800.00000000003,
      "d": 266.66666666665697,
      "v": 85
    },
    {
      "midi": 70,
      "hit": false,
      "t": 147800.00000000003,
      "d": 266.66666666665697,
      "v": 80
    },
    {
      "midi": 53,
      "hit": false,
      "t": 147800.00000000003,
      "d": 270,
      "v": 98
    },
    {
      "midi": 69,
      "hit": false,
      "t": 148400.00000000003,
      "d": 1800,
      "v": 90
    },
    {
      "midi": 60,
      "hit": false,
      "t": 148400.00000000003,
      "d": 1833.333333333343,
      "v": 88
    },
    {
      "midi": 53,
      "hit": false,
      "t": 148400.00000000003,
      "d": 1850,
      "v": 98
    },
    {
      "midi": 70,
      "hit": false,
      "t": 150400.00000000003,
      "d": 495,
      "v": 95
    },
    {
      "midi": 53,
      "hit": false,
      "t": 150400.00000000003,
      "d": 500,
      "v": 95
    },
    {
      "midi": 62,
      "hit": false,
      "t": 150400.00000000003,
      "d": 503.33333333334303,
      "v": 86
    },
    {
      "midi": 70,
      "hit": false,
      "t": 151000.00000000003,
      "d": 358.33333333334303,
      "v": 78
    },
    {
      "midi": 53,
      "hit": false,
      "t": 151000.00000000003,
      "d": 375,
      "v": 93
    },
    {
      "midi": 62,
      "hit": false,
      "t": 151000.00000000003,
      "d": 378.33333333334303,
      "v": 84
    },
    {
      "midi": 69,
      "hit": false,
      "t": 151600.00000000003,
      "d": 1870,
      "v": 91
    },
    {
      "midi": 53,
      "hit": false,
      "t": 151600.00000000003,
      "d": 1883.333333333343,
      "v": 105
    },
    {
      "midi": 60,
      "hit": false,
      "t": 151600.00000000003,
      "d": 1883.333333333343,
      "v": 92
    },
    {
      "midi": 52,
      "hit": false,
      "t": 153600.00000000003,
      "d": 491.66666666665697,
      "v": 94
    },
    {
      "midi": 60,
      "hit": false,
      "t": 153600.00000000003,
      "d": 503.33333333331393,
      "v": 87
    },
    {
      "midi": 67,
      "hit": false,
      "t": 153600.00000000003,
      "d": 508.33333333331393,
      "v": 98
    },
    {
      "midi": 52,
      "hit": false,
      "t": 154200,
      "d": 303.33333333334303,
      "v": 86
    },
    {
      "midi": 60,
      "hit": false,
      "t": 154200,
      "d": 311.66666666668607,
      "v": 87
    },
    {
      "midi": 67,
      "hit": false,
      "t": 154200,
      "d": 333.33333333334303,
      "v": 86
    },
    {
      "midi": 60,
      "hit": false,
      "t": 154800,
      "d": 1686.666666666657,
      "v": 90
    },
    {
      "midi": 52,
      "hit": false,
      "t": 154800,
      "d": 1708.333333333314,
      "v": 92
    },
    {
      "midi": 67,
      "hit": false,
      "t": 154800,
      "d": 1708.333333333314,
      "v": 98
    },
    {
      "midi": 62,
      "hit": false,
      "t": 156799.99999999997,
      "d": 475,
      "v": 93
    },
    {
      "midi": 53,
      "hit": false,
      "t": 156799.99999999997,
      "d": 483.33333333334303,
      "v": 105
    },
    {
      "midi": 70,
      "hit": false,
      "t": 156799.99999999997,
      "d": 486.66666666668607,
      "v": 77
    },
    {
      "midi": 62,
      "hit": false,
      "t": 157400,
      "d": 166.66666666665697,
      "v": 92
    },
    {
      "midi": 70,
      "hit": false,
      "t": 157400,
      "d": 166.66666666665697,
      "v": 82
    },
    {
      "midi": 53,
      "hit": false,
      "t": 157400,
      "d": 170,
      "v": 95
    },
    {
      "midi": 69,
      "hit": false,
      "t": 158000,
      "d": 1711.666666666657,
      "v": 92
    },
    {
      "midi": 60,
      "hit": false,
      "t": 158000,
      "d": 1741.666666666657,
      "v": 92
    },
    {
      "midi": 53,
      "hit": false,
      "t": 158000,
      "d": 1745,
      "v": 96
    },
    {
      "midi": 53,
      "hit": false,
      "t": 160000,
      "d": 483.33333333334303,
      "v": 103
    },
    {
      "midi": 70,
      "hit": false,
      "t": 160000,
      "d": 491.66666666668607,
      "v": 101
    },
    {
      "midi": 62,
      "hit": false,
      "t": 160000,
      "d": 503.33333333334303,
      "v": 96
    },
    {
      "midi": 70,
      "hit": false,
      "t": 160600,
      "d": 136.66666666665697,
      "v": 74
    },
    {
      "midi": 62,
      "hit": false,
      "t": 160600,
      "d": 145,
      "v": 85
    },
    {
      "midi": 53,
      "hit": false,
      "t": 160600,
      "d": 150,
      "v": 93
    },
    {
      "midi": 69,
      "hit": false,
      "t": 161200,
      "d": 1716.666666666657,
      "v": 89
    },
    {
      "midi": 60,
      "hit": false,
      "t": 161200,
      "d": 1733.333333333314,
      "v": 95
    },
    {
      "midi": 53,
      "hit": false,
      "t": 161200,
      "d": 1894.999999999971,
      "v": 99
    },
    {
      "midi": 53,
      "hit": false,
      "t": 163199.99999999997,
      "d": 450,
      "v": 103
    },
    {
      "midi": 70,
      "hit": false,
      "t": 163199.99999999997,
      "d": 450,
      "v": 93
    },
    {
      "midi": 62,
      "hit": false,
      "t": 163199.99999999997,
      "d": 461.66666666665697,
      "v": 93
    },
    {
      "midi": 53,
      "hit": false,
      "t": 163799.99999999997,
      "d": 186.66666666665697,
      "v": 100
    },
    {
      "midi": 62,
      "hit": false,
      "t": 163799.99999999997,
      "d": 195,
      "v": 91
    },
    {
      "midi": 70,
      "hit": false,
      "t": 163799.99999999997,
      "d": 203.33333333334303,
      "v": 86
    },
    {
      "midi": 60,
      "hit": false,
      "t": 164399.99999999997,
      "d": 1850,
      "v": 98
    },
    {
      "midi": 69,
      "hit": false,
      "t": 164399.99999999997,
      "d": 1878.333333333343,
      "v": 99
    },
    {
      "midi": 53,
      "hit": false,
      "t": 164399.99999999997,
      "d": 1891.666666666686,
      "v": 103
    },
    {
      "midi": 70,
      "hit": false,
      "t": 166400,
      "d": 1400,
      "v": 97
    },
    {
      "midi": 53,
      "hit": false,
      "t": 166400,
      "d": 1445,
      "v": 95
    },
    {
      "midi": 62,
      "hit": false,
      "t": 166400,
      "d": 1450,
      "v": 89
    },
    {
      "midi": 60,
      "hit": false,
      "t": 168000,
      "d": 1503.333333333343,
      "v": 95
    },
    {
      "midi": 52,
      "hit": false,
      "t": 168000,
      "d": 1508.333333333343,
      "v": 92
    },
    {
      "midi": 67,
      "hit": false,
      "t": 168000,
      "d": 1553.333333333343,
      "v": 91
    },
    {
      "midi": 57,
      "hit": false,
      "t": 169600,
      "d": 303.33333333334303,
      "v": 79
    },
    {
      "midi": 65,
      "hit": false,
      "t": 169600,
      "d": 528.333333333343,
      "v": 73
    },
    {
      "midi": 60,
      "hit": false,
      "t": 169600,
      "d": 558.333333333343,
      "v": 90
    },
    {
      "midi": 41,
      "hit": false,
      "t": 169600,
      "d": 861.666666666657,
      "v": 97
    },
    {
      "midi": 57,
      "hit": false,
      "t": 170000,
      "d": 250,
      "v": 51
    },
    {
      "midi": 65,
      "hit": false,
      "t": 170400,
      "d": 528.333333333343,
      "v": 74
    },
    {
      "midi": 57,
      "hit": false,
      "t": 170400,
      "d": 533.333333333343,
      "v": 79
    },
    {
      "midi": 60,
      "hit": false,
      "t": 170400,
      "d": 570,
      "v": 90
    },
    {
      "midi": 41,
      "hit": false,
      "t": 170800,
      "d": 400,
      "v": 97
    },
    {
      "midi": 55,
      "hit": false,
      "t": 171200,
      "d": 308.33333333334303,
      "v": 75
    },
    {
      "midi": 60,
      "hit": false,
      "t": 171200,
      "d": 483.33333333334303,
      "v": 86
    },
    {
      "midi": 64,
      "hit": false,
      "t": 171200,
      "d": 633.333333333343,
      "v": 70
    },
    {
      "midi": 40,
      "hit": false,
      "t": 171200,
      "d": 928.3333333333721,
      "v": 82
    },
    {
      "midi": 55,
      "hit": false,
      "t": 171600,
      "d": 261.66666666668607,
      "v": 49
    },
    {
      "midi": 55,
      "hit": false,
      "t": 172000.00000000003,
      "d": 400,
      "v": 80
    },
    {
      "midi": 60,
      "hit": false,
      "t": 172000.00000000003,
      "d": 400,
      "v": 92
    },
    {
      "midi": 64,
      "hit": false,
      "t": 172000.00000000003,
      "d": 400,
      "v": 78
    },
    {
      "midi": 40,
      "hit": false,
      "t": 172400.00000000003,
      "d": 400,
      "v": 107
    },
    {
      "midi": 53,
      "hit": false,
      "t": 172800.00000000003,
      "d": 345,
      "v": 79
    },
    {
      "midi": 58,
      "hit": false,
      "t": 172800.00000000003,
      "d": 375,
      "v": 100
    },
    {
      "midi": 62,
      "hit": false,
      "t": 172800.00000000003,
      "d": 375,
      "v": 90
    },
    {
      "midi": 38,
      "hit": false,
      "t": 172800.00000000003,
      "d": 1095,
      "v": 99
    },
    {
      "midi": 58,
      "hit": false,
      "t": 173400.00000000003,
      "d": 600,
      "v": 100
    },
    {
      "midi": 62,
      "hit": false,
      "t": 173400.00000000003,
      "d": 600,
      "v": 83
    },
    {
      "midi": 65,
      "hit": false,
      "t": 173400.00000000003,
      "d": 600,
      "v": 83
    },
    {
      "midi": 57,
      "hit": false,
      "t": 174000.00000000003,
      "d": 611.666666666657,
      "v": 90
    },
    {
      "midi": 60,
      "hit": false,
      "t": 174000.00000000003,
      "d": 836.666666666657,
      "v": 97
    },
    {
      "midi": 65,
      "hit": false,
      "t": 174000.00000000003,
      "d": 1058.333333333343,
      "v": 76
    },
    {
      "midi": 41,
      "hit": false,
      "t": 174000.00000000003,
      "d": 1286.666666666657,
      "v": 86
    },
    {
      "midi": 57,
      "hit": false,
      "t": 174800.00000000003,
      "d": 758.333333333343,
      "v": 74
    },
    {
      "midi": 60,
      "hit": false,
      "t": 175000.00000000003,
      "d": 391.66666666665697,
      "v": 82
    },
    {
      "midi": 65,
      "hit": false,
      "t": 175200.00000000003,
      "d": 691.6666666666861,
      "v": 92
    },
    {
      "midi": 60,
      "hit": false,
      "t": 175400.00000000003,
      "d": 308.33333333334303,
      "v": 94
    },
    {
      "midi": 41,
      "hit": false,
      "t": 175600.00000000003,
      "d": 378.33333333334303,
      "v": 92
    },
    {
      "midi": 57,
      "hit": false,
      "t": 175600.00000000003,
      "d": 400,
      "v": 76
    },
    {
      "midi": 58,
      "hit": false,
      "t": 176000.00000000003,
      "d": 250,
      "v": 89
    },
    {
      "midi": 62,
      "hit": false,
      "t": 176000.00000000003,
      "d": 466.66666666665697,
      "v": 94
    },
    {
      "midi": 65,
      "hit": false,
      "t": 176000.00000000003,
      "d": 616.666666666657,
      "v": 86
    },
    {
      "midi": 46,
      "hit": false,
      "t": 176000.00000000003,
      "d": 953.3333333333139,
      "v": 109
    },
    {
      "midi": 58,
      "hit": false,
      "t": 176400.00000000003,
      "d": 258.33333333331393,
      "v": 55
    },
    {
      "midi": 58,
      "hit": false,
      "t": 176800,
      "d": 400,
      "v": 89
    },
    {
      "midi": 62,
      "hit": false,
      "t": 176800,
      "d": 403.33333333334303,
      "v": 86
    },
    {
      "midi": 65,
      "hit": false,
      "t": 176800,
      "d": 425,
      "v": 85
    },
    {
      "midi": 46,
      "hit": false,
      "t": 177200,
      "d": 328.33333333331393,
      "v": 109
    },
    {
      "midi": 57,
      "hit": false,
      "t": 177516.66666666666,
      "d": 324.9999999999709,
      "v": 72
    },
    {
      "midi": 60,
      "hit": false,
      "t": 177553.3333333333,
      "d": 416.66666666665697,
      "v": 90
    },
    {
      "midi": 41,
      "hit": false,
      "t": 177599.99999999997,
      "d": 1025,
      "v": 66
    },
    {
      "midi": 65,
      "hit": false,
      "t": 177624.99999999997,
      "d": 528.333333333343,
      "v": 101
    },
    {
      "midi": 57,
      "hit": false,
      "t": 177983.3333333333,
      "d": 283.33333333334303,
      "v": 66
    },
    {
      "midi": 57,
      "hit": false,
      "t": 178403.3333333333,
      "d": 400,
      "v": 90
    },
    {
      "midi": 60,
      "hit": false,
      "t": 178408.3333333333,
      "d": 386.66666666665697,
      "v": 104
    },
    {
      "midi": 65,
      "hit": false,
      "t": 178408.3333333333,
      "d": 591.666666666657,
      "v": 86
    },
    {
      "midi": 41,
      "hit": false,
      "t": 178799.99999999997,
      "d": 375,
      "v": 85
    },
    {
      "midi": 58,
      "hit": false,
      "t": 179199.99999999997,
      "d": 250,
      "v": 92
    },
    {
      "midi": 62,
      "hit": false,
      "t": 179199.99999999997,
      "d": 441.66666666665697,
      "v": 97
    },
    {
      "midi": 65,
      "hit": false,
      "t": 179199.99999999997,
      "d": 636.666666666657,
      "v": 99
    },
    {
      "midi": 43,
      "hit": false,
      "t": 179199.99999999997,
      "d": 783.3333333333139,
      "v": 94
    },
    {
      "midi": 58,
      "hit": false,
      "t": 179999.99999999994,
      "d": 8.333333333343035,
      "v": 89
    },
    {
      "midi": 62,
      "hit": false,
      "t": 179999.99999999994,
      "d": 408.33333333334303,
      "v": 92
    },
    {
      "midi": 65,
      "hit": false,
      "t": 179999.99999999994,
      "d": 420,
      "v": 94
    },
    {
      "midi": 43,
      "hit": false,
      "t": 180399.99999999994,
      "d": 395,
      "v": 99
    },
    {
      "midi": 60,
      "hit": false,
      "t": 180799.99999999994,
      "d": 225,
      "v": 88
    },
    {
      "midi": 64,
      "hit": false,
      "t": 180799.99999999994,
      "d": 433.33333333334303,
      "v": 83
    },
    {
      "midi": 67,
      "hit": false,
      "t": 180799.99999999994,
      "d": 466.66666666668607,
      "v": 99
    },
    {
      "midi": 48,
      "hit": false,
      "t": 180799.99999999994,
      "d": 941.6666666666861,
      "v": 92
    },
    {
      "midi": 60,
      "hit": false,
      "t": 181199.99999999994,
      "d": 275.0000000000291,
      "v": 63
    },
    {
      "midi": 60,
      "hit": false,
      "t": 181599.99999999997,
      "d": 745,
      "v": 75
    },
    {
      "midi": 64,
      "hit": false,
      "t": 181599.99999999997,
      "d": 750,
      "v": 86
    },
    {
      "midi": 67,
      "hit": false,
      "t": 181599.99999999997,
      "d": 761.666666666657,
      "v": 99
    },
    {
      "midi": 48,
      "hit": false,
      "t": 181999.99999999997,
      "d": 386.66666666665697,
      "v": 99
    },
    {
      "midi": 57,
      "hit": false,
      "t": 182399.99999999997,
      "d": 303.33333333334303,
      "v": 79
    },
    {
      "midi": 65,
      "hit": false,
      "t": 182399.99999999997,
      "d": 528.333333333343,
      "v": 73
    },
    {
      "midi": 60,
      "hit": false,
      "t": 182399.99999999997,
      "d": 558.333333333343,
      "v": 90
    },
    {
      "midi": 41,
      "hit": false,
      "t": 182399.99999999997,
      "d": 861.666666666657,
      "v": 97
    },
    {
      "midi": 57,
      "hit": false,
      "t": 182799.99999999997,
      "d": 250,
      "v": 51
    },
    {
      "midi": 65,
      "hit": false,
      "t": 183199.99999999997,
      "d": 528.333333333343,
      "v": 74
    },
    {
      "midi": 57,
      "hit": false,
      "t": 183199.99999999997,
      "d": 533.333333333343,
      "v": 79
    },
    {
      "midi": 60,
      "hit": false,
      "t": 183199.99999999997,
      "d": 570,
      "v": 90
    },
    {
      "midi": 41,
      "hit": false,
      "t": 183599.99999999997,
      "d": 400,
      "v": 97
    },
    {
      "midi": 55,
      "hit": false,
      "t": 183999.99999999997,
      "d": 308.33333333334303,
      "v": 75
    },
    {
      "midi": 60,
      "hit": false,
      "t": 183999.99999999997,
      "d": 483.33333333334303,
      "v": 86
    },
    {
      "midi": 64,
      "hit": false,
      "t": 183999.99999999997,
      "d": 633.333333333343,
      "v": 70
    },
    {
      "midi": 40,
      "hit": false,
      "t": 183999.99999999997,
      "d": 928.3333333333721,
      "v": 82
    },
    {
      "midi": 55,
      "hit": false,
      "t": 184399.99999999997,
      "d": 261.66666666668607,
      "v": 49
    },
    {
      "midi": 55,
      "hit": false,
      "t": 184800,
      "d": 400,
      "v": 80
    },
    {
      "midi": 60,
      "hit": false,
      "t": 184800,
      "d": 400,
      "v": 92
    },
    {
      "midi": 64,
      "hit": false,
      "t": 184800,
      "d": 400,
      "v": 78
    },
    {
      "midi": 40,
      "hit": false,
      "t": 185200,
      "d": 400,
      "v": 107
    },
    {
      "midi": 53,
      "hit": false,
      "t": 185600,
      "d": 345,
      "v": 79
    },
    {
      "midi": 58,
      "hit": false,
      "t": 185600,
      "d": 375,
      "v": 100
    },
    {
      "midi": 62,
      "hit": false,
      "t": 185600,
      "d": 375,
      "v": 90
    },
    {
      "midi": 38,
      "hit": false,
      "t": 185600,
      "d": 1095,
      "v": 99
    },
    {
      "midi": 58,
      "hit": false,
      "t": 186200,
      "d": 600,
      "v": 100
    },
    {
      "midi": 62,
      "hit": false,
      "t": 186200,
      "d": 600,
      "v": 83
    },
    {
      "midi": 65,
      "hit": false,
      "t": 186200,
      "d": 600,
      "v": 83
    },
    {
      "midi": 57,
      "hit": false,
      "t": 186800,
      "d": 611.666666666657,
      "v": 90
    },
    {
      "midi": 60,
      "hit": false,
      "t": 186800,
      "d": 836.666666666657,
      "v": 97
    },
    {
      "midi": 65,
      "hit": false,
      "t": 186800,
      "d": 1058.333333333343,
      "v": 76
    },
    {
      "midi": 41,
      "hit": false,
      "t": 186800,
      "d": 1286.666666666657,
      "v": 86
    },
    {
      "midi": 57,
      "hit": false,
      "t": 187600,
      "d": 758.333333333343,
      "v": 74
    },
    {
      "midi": 60,
      "hit": false,
      "t": 187800,
      "d": 391.66666666665697,
      "v": 82
    },
    {
      "midi": 65,
      "hit": false,
      "t": 188000,
      "d": 691.6666666666861,
      "v": 92
    },
    {
      "midi": 60,
      "hit": false,
      "t": 188200,
      "d": 308.33333333334303,
      "v": 94
    },
    {
      "midi": 41,
      "hit": false,
      "t": 188400,
      "d": 378.33333333334303,
      "v": 92
    },
    {
      "midi": 57,
      "hit": false,
      "t": 188400,
      "d": 400,
      "v": 76
    },
    {
      "midi": 58,
      "hit": false,
      "t": 188800,
      "d": 250,
      "v": 89
    },
    {
      "midi": 62,
      "hit": false,
      "t": 188800,
      "d": 466.66666666665697,
      "v": 94
    },
    {
      "midi": 65,
      "hit": false,
      "t": 188800,
      "d": 616.666666666657,
      "v": 86
    },
    {
      "midi": 46,
      "hit": false,
      "t": 188800,
      "d": 953.3333333333139,
      "v": 109
    },
    {
      "midi": 58,
      "hit": false,
      "t": 189200,
      "d": 258.33333333331393,
      "v": 55
    },
    {
      "midi": 58,
      "hit": false,
      "t": 189599.99999999997,
      "d": 400,
      "v": 89
    },
    {
      "midi": 62,
      "hit": false,
      "t": 189599.99999999997,
      "d": 403.33333333334303,
      "v": 86
    },
    {
      "midi": 65,
      "hit": false,
      "t": 189599.99999999997,
      "d": 425,
      "v": 85
    },
    {
      "midi": 46,
      "hit": false,
      "t": 189999.99999999997,
      "d": 328.33333333334303,
      "v": 109
    },
    {
      "midi": 57,
      "hit": false,
      "t": 190303.3333333333,
      "d": 325,
      "v": 43
    },
    {
      "midi": 60,
      "hit": false,
      "t": 190344.99999999997,
      "d": 446.66666666668607,
      "v": 74
    },
    {
      "midi": 65,
      "hit": false,
      "t": 190399.99999999997,
      "d": 528.3333333333721,
      "v": 88
    },
    {
      "midi": 41,
      "hit": false,
      "t": 190399.99999999997,
      "d": 1025.000000000029,
      "v": 66
    },
    {
      "midi": 57,
      "hit": false,
      "t": 190800,
      "d": 283.33333333334303,
      "v": 66
    },
    {
      "midi": 60,
      "hit": false,
      "t": 191200,
      "d": 386.66666666665697,
      "v": 104
    },
    {
      "midi": 57,
      "hit": false,
      "t": 191200,
      "d": 400,
      "v": 90
    },
    {
      "midi": 65,
      "hit": false,
      "t": 191200,
      "d": 591.666666666657,
      "v": 86
    },
    {
      "midi": 41,
      "hit": false,
      "t": 191600,
      "d": 375,
      "v": 85
    },
    {
      "midi": 55,
      "hit": false,
      "t": 192000,
      "d": 341.66666666665697,
      "v": 79
    },
    {
      "midi": 60,
      "hit": false,
      "t": 192000,
      "d": 536.666666666657,
      "v": 90
    },
    {
      "midi": 64,
      "hit": false,
      "t": 192000,
      "d": 616.666666666657,
      "v": 78
    },
    {
      "midi": 48,
      "hit": false,
      "t": 192000,
      "d": 920,
      "v": 88
    },
    {
      "midi": 55,
      "hit": false,
      "t": 192400,
      "d": 211.66666666665697,
      "v": 48
    },
    {
      "midi": 55,
      "hit": false,
      "t": 192800,
      "d": 466.66666666665697,
      "v": 86
    },
    {
      "midi": 60,
      "hit": false,
      "t": 192800,
      "d": 486.66666666665697,
      "v": 94
    },
    {
      "midi": 64,
      "hit": false,
      "t": 192800,
      "d": 586.666666666657,
      "v": 80
    },
    {
      "midi": 48,
      "hit": false,
      "t": 193200,
      "d": 358.33333333331393,
      "v": 99
    },
    {
      "midi": 65,
      "hit": false,
      "t": 193599.99999999997,
      "d": 658.333333333343,
      "v": 79
    },
    {
      "midi": 60,
      "hit": false,
      "t": 193599.99999999997,
      "d": 670,
      "v": 76
    },
    {
      "midi": 57,
      "hit": false,
      "t": 193599.99999999997,
      "d": 675,
      "v": 80
    },
    {
      "midi": 41,
      "hit": false,
      "t": 193599.99999999997,
      "d": 900,
      "v": 72
    },
    {
      "midi": 60,
      "hit": false,
      "t": 194399.99999999997,
      "d": 645,
      "v": 92
    },
    {
      "midi": 65,
      "hit": false,
      "t": 194399.99999999997,
      "d": 661.666666666657,
      "v": 76
    },
    {
      "midi": 57,
      "hit": false,
      "t": 194399.99999999997,
      "d": 666.666666666657,
      "v": 79
    },
    {
      "midi": 41,
      "hit": false,
      "t": 194799.99999999997,
      "d": 283.33333333331393,
      "v": 75
    },
    {
      "midi": 57,
      "hit": false,
      "t": 195199.99999999994,
      "d": 303.33333333334303,
      "v": 79
    },
    {
      "midi": 65,
      "hit": false,
      "t": 195199.99999999994,
      "d": 528.333333333343,
      "v": 73
    },
    {
      "midi": 60,
      "hit": false,
      "t": 195199.99999999994,
      "d": 558.333333333343,
      "v": 90
    },
    {
      "midi": 41,
      "hit": false,
      "t": 195199.99999999994,
      "d": 861.666666666657,
      "v": 97
    },
    {
      "midi": 57,
      "hit": false,
      "t": 195599.99999999994,
      "d": 250,
      "v": 51
    },
    {
      "midi": 65,
      "hit": false,
      "t": 195999.99999999994,
      "d": 528.333333333343,
      "v": 74
    },
    {
      "midi": 57,
      "hit": false,
      "t": 195999.99999999994,
      "d": 533.333333333343,
      "v": 79
    },
    {
      "midi": 60,
      "hit": false,
      "t": 195999.99999999994,
      "d": 570,
      "v": 90
    },
    {
      "midi": 41,
      "hit": false,
      "t": 196399.99999999994,
      "d": 400,
      "v": 97
    },
    {
      "midi": 55,
      "hit": false,
      "t": 196799.99999999994,
      "d": 308.33333333334303,
      "v": 75
    },
    {
      "midi": 60,
      "hit": false,
      "t": 196799.99999999994,
      "d": 483.33333333334303,
      "v": 86
    },
    {
      "midi": 64,
      "hit": false,
      "t": 196799.99999999994,
      "d": 633.333333333343,
      "v": 70
    },
    {
      "midi": 40,
      "hit": false,
      "t": 196799.99999999994,
      "d": 928.3333333333721,
      "v": 82
    },
    {
      "midi": 55,
      "hit": false,
      "t": 197199.99999999994,
      "d": 261.66666666668607,
      "v": 49
    },
    {
      "midi": 55,
      "hit": false,
      "t": 197599.99999999997,
      "d": 400,
      "v": 80
    },
    {
      "midi": 60,
      "hit": false,
      "t": 197599.99999999997,
      "d": 400,
      "v": 92
    },
    {
      "midi": 64,
      "hit": false,
      "t": 197599.99999999997,
      "d": 400,
      "v": 78
    },
    {
      "midi": 40,
      "hit": false,
      "t": 197999.99999999997,
      "d": 400,
      "v": 107
    },
    {
      "midi": 53,
      "hit": false,
      "t": 198399.99999999997,
      "d": 345,
      "v": 79
    },
    {
      "midi": 58,
      "hit": false,
      "t": 198399.99999999997,
      "d": 375,
      "v": 100
    },
    {
      "midi": 62,
      "hit": false,
      "t": 198399.99999999997,
      "d": 375,
      "v": 90
    },
    {
      "midi": 38,
      "hit": false,
      "t": 198399.99999999997,
      "d": 1095,
      "v": 99
    },
    {
      "midi": 58,
      "hit": false,
      "t": 198999.99999999997,
      "d": 600,
      "v": 100
    },
    {
      "midi": 62,
      "hit": false,
      "t": 198999.99999999997,
      "d": 600,
      "v": 83
    },
    {
      "midi": 65,
      "hit": false,
      "t": 198999.99999999997,
      "d": 600,
      "v": 83
    },
    {
      "midi": 57,
      "hit": false,
      "t": 199599.99999999997,
      "d": 611.666666666657,
      "v": 90
    },
    {
      "midi": 60,
      "hit": false,
      "t": 199599.99999999997,
      "d": 836.666666666657,
      "v": 97
    },
    {
      "midi": 65,
      "hit": false,
      "t": 199599.99999999997,
      "d": 1058.333333333343,
      "v": 76
    },
    {
      "midi": 41,
      "hit": false,
      "t": 199599.99999999997,
      "d": 1286.666666666657,
      "v": 86
    },
    {
      "midi": 57,
      "hit": false,
      "t": 200399.99999999997,
      "d": 758.333333333343,
      "v": 74
    },
    {
      "midi": 60,
      "hit": false,
      "t": 200599.99999999997,
      "d": 391.66666666665697,
      "v": 82
    },
    {
      "midi": 65,
      "hit": false,
      "t": 200799.99999999997,
      "d": 691.6666666666861,
      "v": 92
    },
    {
      "midi": 60,
      "hit": false,
      "t": 200999.99999999997,
      "d": 308.33333333334303,
      "v": 94
    },
    {
      "midi": 41,
      "hit": false,
      "t": 201199.99999999997,
      "d": 378.33333333334303,
      "v": 92
    },
    {
      "midi": 57,
      "hit": false,
      "t": 201199.99999999997,
      "d": 400,
      "v": 76
    },
    {
      "midi": 58,
      "hit": false,
      "t": 201599.99999999997,
      "d": 250,
      "v": 89
    },
    {
      "midi": 62,
      "hit": false,
      "t": 201599.99999999997,
      "d": 466.66666666665697,
      "v": 94
    },
    {
      "midi": 65,
      "hit": false,
      "t": 201599.99999999997,
      "d": 616.666666666657,
      "v": 86
    },
    {
      "midi": 46,
      "hit": false,
      "t": 201599.99999999997,
      "d": 953.3333333333139,
      "v": 109
    },
    {
      "midi": 58,
      "hit": false,
      "t": 201999.99999999997,
      "d": 258.33333333331393,
      "v": 55
    },
    {
      "midi": 58,
      "hit": false,
      "t": 202399.99999999994,
      "d": 400,
      "v": 89
    },
    {
      "midi": 62,
      "hit": false,
      "t": 202399.99999999994,
      "d": 403.33333333334303,
      "v": 86
    },
    {
      "midi": 65,
      "hit": false,
      "t": 202399.99999999994,
      "d": 425,
      "v": 85
    },
    {
      "midi": 46,
      "hit": false,
      "t": 202799.99999999994,
      "d": 328.33333333331393,
      "v": 109
    },
    {
      "midi": 57,
      "hit": false,
      "t": 203116.6666666666,
      "d": 324.9999999999709,
      "v": 72
    },
    {
      "midi": 60,
      "hit": false,
      "t": 203153.33333333326,
      "d": 416.66666666665697,
      "v": 90
    },
    {
      "midi": 41,
      "hit": false,
      "t": 203199.9999999999,
      "d": 1025,
      "v": 66
    },
    {
      "midi": 65,
      "hit": false,
      "t": 203224.9999999999,
      "d": 528.333333333343,
      "v": 101
    },
    {
      "midi": 57,
      "hit": false,
      "t": 203583.33333333326,
      "d": 283.33333333334303,
      "v": 66
    },
    {
      "midi": 57,
      "hit": false,
      "t": 204003.33333333326,
      "d": 400,
      "v": 90
    },
    {
      "midi": 60,
      "hit": false,
      "t": 204008.33333333326,
      "d": 386.66666666665697,
      "v": 104
    },
    {
      "midi": 65,
      "hit": false,
      "t": 204008.33333333326,
      "d": 591.666666666657,
      "v": 86
    },
    {
      "midi": 41,
      "hit": false,
      "t": 204399.9999999999,
      "d": 375,
      "v": 85
    },
    {
      "midi": 58,
      "hit": false,
      "t": 204799.9999999999,
      "d": 250,
      "v": 92
    },
    {
      "midi": 62,
      "hit": false,
      "t": 204799.9999999999,
      "d": 441.66666666665697,
      "v": 97
    },
    {
      "midi": 65,
      "hit": false,
      "t": 204799.9999999999,
      "d": 636.666666666657,
      "v": 99
    },
    {
      "midi": 43,
      "hit": false,
      "t": 204799.9999999999,
      "d": 783.3333333333139,
      "v": 94
    },
    {
      "midi": 58,
      "hit": false,
      "t": 205599.99999999988,
      "d": 8.333333333343035,
      "v": 89
    },
    {
      "midi": 62,
      "hit": false,
      "t": 205599.99999999988,
      "d": 408.33333333334303,
      "v": 92
    },
    {
      "midi": 65,
      "hit": false,
      "t": 205599.99999999988,
      "d": 420,
      "v": 94
    },
    {
      "midi": 43,
      "hit": false,
      "t": 205999.99999999988,
      "d": 395,
      "v": 99
    },
    {
      "midi": 60,
      "hit": false,
      "t": 206399.99999999988,
      "d": 225,
      "v": 88
    },
    {
      "midi": 64,
      "hit": false,
      "t": 206399.99999999988,
      "d": 433.33333333334303,
      "v": 83
    },
    {
      "midi": 67,
      "hit": false,
      "t": 206399.99999999988,
      "d": 466.66666666668607,
      "v": 99
    },
    {
      "midi": 48,
      "hit": false,
      "t": 206399.99999999988,
      "d": 941.6666666666861,
      "v": 92
    },
    {
      "midi": 60,
      "hit": false,
      "t": 206799.99999999988,
      "d": 275.0000000000291,
      "v": 63
    },
    {
      "midi": 60,
      "hit": false,
      "t": 207199.9999999999,
      "d": 745,
      "v": 75
    },
    {
      "midi": 64,
      "hit": false,
      "t": 207199.9999999999,
      "d": 750,
      "v": 86
    },
    {
      "midi": 67,
      "hit": false,
      "t": 207199.9999999999,
      "d": 761.666666666657,
      "v": 99
    },
    {
      "midi": 48,
      "hit": false,
      "t": 207599.9999999999,
      "d": 386.66666666665697,
      "v": 99
    },
    {
      "midi": 57,
      "hit": false,
      "t": 207999.9999999999,
      "d": 303.33333333334303,
      "v": 79
    },
    {
      "midi": 65,
      "hit": false,
      "t": 207999.9999999999,
      "d": 528.333333333343,
      "v": 73
    },
    {
      "midi": 60,
      "hit": false,
      "t": 207999.9999999999,
      "d": 558.333333333343,
      "v": 90
    },
    {
      "midi": 41,
      "hit": false,
      "t": 207999.9999999999,
      "d": 861.666666666657,
      "v": 97
    },
    {
      "midi": 57,
      "hit": false,
      "t": 208399.9999999999,
      "d": 250,
      "v": 51
    },
    {
      "midi": 65,
      "hit": false,
      "t": 208799.9999999999,
      "d": 528.333333333343,
      "v": 74
    },
    {
      "midi": 57,
      "hit": false,
      "t": 208799.9999999999,
      "d": 533.333333333343,
      "v": 79
    },
    {
      "midi": 60,
      "hit": false,
      "t": 208799.9999999999,
      "d": 570,
      "v": 90
    },
    {
      "midi": 41,
      "hit": false,
      "t": 209199.9999999999,
      "d": 400,
      "v": 97
    },
    {
      "midi": 55,
      "hit": false,
      "t": 209599.9999999999,
      "d": 308.33333333334303,
      "v": 75
    },
    {
      "midi": 60,
      "hit": false,
      "t": 209599.9999999999,
      "d": 483.33333333334303,
      "v": 86
    },
    {
      "midi": 64,
      "hit": false,
      "t": 209599.9999999999,
      "d": 633.333333333343,
      "v": 70
    },
    {
      "midi": 40,
      "hit": false,
      "t": 209599.9999999999,
      "d": 928.3333333333721,
      "v": 82
    },
    {
      "midi": 55,
      "hit": false,
      "t": 209999.9999999999,
      "d": 261.66666666668607,
      "v": 49
    },
    {
      "midi": 55,
      "hit": false,
      "t": 210399.99999999994,
      "d": 400,
      "v": 80
    },
    {
      "midi": 60,
      "hit": false,
      "t": 210399.99999999994,
      "d": 400,
      "v": 92
    },
    {
      "midi": 64,
      "hit": false,
      "t": 210399.99999999994,
      "d": 400,
      "v": 78
    },
    {
      "midi": 40,
      "hit": false,
      "t": 210799.99999999994,
      "d": 400,
      "v": 107
    },
    {
      "midi": 53,
      "hit": false,
      "t": 211199.99999999994,
      "d": 345,
      "v": 79
    },
    {
      "midi": 58,
      "hit": false,
      "t": 211199.99999999994,
      "d": 375,
      "v": 100
    },
    {
      "midi": 62,
      "hit": false,
      "t": 211199.99999999994,
      "d": 375,
      "v": 90
    },
    {
      "midi": 38,
      "hit": false,
      "t": 211199.99999999994,
      "d": 1095,
      "v": 99
    },
    {
      "midi": 58,
      "hit": false,
      "t": 211799.99999999994,
      "d": 600,
      "v": 100
    },
    {
      "midi": 62,
      "hit": false,
      "t": 211799.99999999994,
      "d": 600,
      "v": 83
    },
    {
      "midi": 65,
      "hit": false,
      "t": 211799.99999999994,
      "d": 600,
      "v": 83
    },
    {
      "midi": 57,
      "hit": false,
      "t": 212399.99999999994,
      "d": 611.666666666657,
      "v": 90
    },
    {
      "midi": 60,
      "hit": false,
      "t": 212399.99999999994,
      "d": 836.666666666657,
      "v": 97
    },
    {
      "midi": 65,
      "hit": false,
      "t": 212399.99999999994,
      "d": 1058.333333333343,
      "v": 76
    },
    {
      "midi": 41,
      "hit": false,
      "t": 212399.99999999994,
      "d": 1286.666666666657,
      "v": 86
    },
    {
      "midi": 57,
      "hit": false,
      "t": 213199.99999999994,
      "d": 758.333333333343,
      "v": 74
    },
    {
      "midi": 60,
      "hit": false,
      "t": 213399.99999999994,
      "d": 391.66666666665697,
      "v": 82
    },
    {
      "midi": 65,
      "hit": false,
      "t": 213599.99999999994,
      "d": 691.6666666666861,
      "v": 92
    },
    {
      "midi": 60,
      "hit": false,
      "t": 213799.99999999994,
      "d": 308.33333333334303,
      "v": 94
    },
    {
      "midi": 41,
      "hit": false,
      "t": 213999.99999999994,
      "d": 378.33333333334303,
      "v": 92
    },
    {
      "midi": 57,
      "hit": false,
      "t": 213999.99999999994,
      "d": 400,
      "v": 76
    },
    {
      "midi": 58,
      "hit": false,
      "t": 214399.99999999994,
      "d": 250,
      "v": 89
    },
    {
      "midi": 62,
      "hit": false,
      "t": 214399.99999999994,
      "d": 466.66666666665697,
      "v": 94
    },
    {
      "midi": 65,
      "hit": false,
      "t": 214399.99999999994,
      "d": 616.666666666657,
      "v": 86
    },
    {
      "midi": 46,
      "hit": false,
      "t": 214399.99999999994,
      "d": 953.3333333333139,
      "v": 109
    },
    {
      "midi": 58,
      "hit": false,
      "t": 214799.99999999994,
      "d": 258.33333333331393,
      "v": 55
    },
    {
      "midi": 58,
      "hit": false,
      "t": 215199.9999999999,
      "d": 400,
      "v": 89
    },
    {
      "midi": 62,
      "hit": false,
      "t": 215199.9999999999,
      "d": 403.33333333334303,
      "v": 86
    },
    {
      "midi": 65,
      "hit": false,
      "t": 215199.9999999999,
      "d": 425,
      "v": 85
    },
    {
      "midi": 46,
      "hit": false,
      "t": 215599.9999999999,
      "d": 328.33333333334303,
      "v": 109
    },
    {
      "midi": 57,
      "hit": false,
      "t": 215903.33333333326,
      "d": 325,
      "v": 43
    },
    {
      "midi": 60,
      "hit": false,
      "t": 215944.9999999999,
      "d": 446.66666666668607,
      "v": 74
    },
    {
      "midi": 65,
      "hit": false,
      "t": 215999.9999999999,
      "d": 528.3333333333721,
      "v": 88
    },
    {
      "midi": 41,
      "hit": false,
      "t": 215999.9999999999,
      "d": 1025.000000000029,
      "v": 66
    },
    {
      "midi": 57,
      "hit": false,
      "t": 216399.99999999994,
      "d": 283.33333333334303,
      "v": 66
    },
    {
      "midi": 60,
      "hit": false,
      "t": 216799.99999999994,
      "d": 386.66666666665697,
      "v": 104
    },
    {
      "midi": 57,
      "hit": false,
      "t": 216799.99999999994,
      "d": 400,
      "v": 90
    },
    {
      "midi": 65,
      "hit": false,
      "t": 216799.99999999994,
      "d": 591.666666666657,
      "v": 86
    },
    {
      "midi": 41,
      "hit": false,
      "t": 217199.99999999994,
      "d": 375,
      "v": 85
    },
    {
      "midi": 55,
      "hit": false,
      "t": 217599.99999999994,
      "d": 341.66666666665697,
      "v": 79
    },
    {
      "midi": 60,
      "hit": false,
      "t": 217599.99999999994,
      "d": 536.666666666657,
      "v": 90
    },
    {
      "midi": 64,
      "hit": false,
      "t": 217599.99999999994,
      "d": 616.666666666657,
      "v": 78
    },
    {
      "midi": 48,
      "hit": false,
      "t": 217599.99999999994,
      "d": 920,
      "v": 88
    },
    {
      "midi": 55,
      "hit": false,
      "t": 217999.99999999994,
      "d": 211.66666666665697,
      "v": 48
    },
    {
      "midi": 55,
      "hit": false,
      "t": 218399.99999999994,
      "d": 466.66666666665697,
      "v": 86
    },
    {
      "midi": 60,
      "hit": false,
      "t": 218399.99999999994,
      "d": 486.66666666665697,
      "v": 94
    },
    {
      "midi": 64,
      "hit": false,
      "t": 218399.99999999994,
      "d": 586.666666666657,
      "v": 80
    },
    {
      "midi": 48,
      "hit": false,
      "t": 218799.99999999994,
      "d": 358.33333333331393,
      "v": 99
    },
    {
      "midi": 65,
      "hit": false,
      "t": 219199.9999999999,
      "d": 658.333333333343,
      "v": 79
    },
    {
      "midi": 60,
      "hit": false,
      "t": 219199.9999999999,
      "d": 670,
      "v": 76
    },
    {
      "midi": 57,
      "hit": false,
      "t": 219199.9999999999,
      "d": 675,
      "v": 80
    },
    {
      "midi": 41,
      "hit": false,
      "t": 219199.9999999999,
      "d": 900,
      "v": 72
    },
    {
      "midi": 60,
      "hit": false,
      "t": 219999.9999999999,
      "d": 645,
      "v": 92
    },
    {
      "midi": 65,
      "hit": false,
      "t": 219999.9999999999,
      "d": 661.666666666657,
      "v": 76
    },
    {
      "midi": 57,
      "hit": false,
      "t": 219999.9999999999,
      "d": 666.666666666657,
      "v": 79
    },
    {
      "midi": 41,
      "hit": false,
      "t": 220399.9999999999,
      "d": 283.33333333331393,
      "v": 75
    },
    {
      "midi": 57,
      "hit": false,
      "t": 220799.99999999988,
      "d": 303.33333333334303,
      "v": 84
    },
    {
      "midi": 65,
      "hit": false,
      "t": 220799.99999999988,
      "d": 528.333333333343,
      "v": 78
    },
    {
      "midi": 60,
      "hit": false,
      "t": 220799.99999999988,
      "d": 558.333333333343,
      "v": 95
    },
    {
      "midi": 41,
      "hit": false,
      "t": 220799.99999999988,
      "d": 861.666666666657,
      "v": 102
    },
    {
      "midi": 57,
      "hit": false,
      "t": 221199.99999999988,
      "d": 250,
      "v": 56
    },
    {
      "midi": 65,
      "hit": false,
      "t": 221599.99999999988,
      "d": 528.333333333343,
      "v": 79
    },
    {
      "midi": 57,
      "hit": false,
      "t": 221599.99999999988,
      "d": 533.333333333343,
      "v": 84
    },
    {
      "midi": 60,
      "hit": false,
      "t": 221599.99999999988,
      "d": 570,
      "v": 95
    },
    {
      "midi": 41,
      "hit": false,
      "t": 221999.99999999988,
      "d": 400,
      "v": 102
    },
    {
      "midi": 55,
      "hit": false,
      "t": 222399.99999999988,
      "d": 308.33333333334303,
      "v": 80
    },
    {
      "midi": 60,
      "hit": false,
      "t": 222399.99999999988,
      "d": 483.33333333334303,
      "v": 91
    },
    {
      "midi": 64,
      "hit": false,
      "t": 222399.99999999988,
      "d": 633.333333333343,
      "v": 75
    },
    {
      "midi": 40,
      "hit": false,
      "t": 222399.99999999988,
      "d": 928.3333333333721,
      "v": 87
    },
    {
      "midi": 55,
      "hit": false,
      "t": 222799.99999999988,
      "d": 261.66666666668607,
      "v": 54
    },
    {
      "midi": 55,
      "hit": false,
      "t": 223199.9999999999,
      "d": 400,
      "v": 85
    },
    {
      "midi": 60,
      "hit": false,
      "t": 223199.9999999999,
      "d": 400,
      "v": 97
    },
    {
      "midi": 64,
      "hit": false,
      "t": 223199.9999999999,
      "d": 400,
      "v": 83
    },
    {
      "midi": 40,
      "hit": false,
      "t": 223599.9999999999,
      "d": 400,
      "v": 112
    },
    {
      "midi": 53,
      "hit": false,
      "t": 223999.9999999999,
      "d": 345,
      "v": 84
    },
    {
      "midi": 58,
      "hit": false,
      "t": 223999.9999999999,
      "d": 375,
      "v": 105
    },
    {
      "midi": 62,
      "hit": false,
      "t": 223999.9999999999,
      "d": 375,
      "v": 95
    },
    {
      "midi": 38,
      "hit": false,
      "t": 223999.9999999999,
      "d": 1095,
      "v": 104
    },
    {
      "midi": 58,
      "hit": false,
      "t": 224599.9999999999,
      "d": 600,
      "v": 105
    },
    {
      "midi": 62,
      "hit": false,
      "t": 224599.9999999999,
      "d": 600,
      "v": 88
    },
    {
      "midi": 65,
      "hit": false,
      "t": 224599.9999999999,
      "d": 600,
      "v": 88
    },
    {
      "midi": 57,
      "hit": false,
      "t": 225199.9999999999,
      "d": 611.666666666657,
      "v": 95
    },
    {
      "midi": 60,
      "hit": false,
      "t": 225199.9999999999,
      "d": 836.666666666657,
      "v": 102
    },
    {
      "midi": 65,
      "hit": false,
      "t": 225199.9999999999,
      "d": 1058.333333333343,
      "v": 81
    },
    {
      "midi": 41,
      "hit": false,
      "t": 225199.9999999999,
      "d": 1286.666666666657,
      "v": 91
    },
    {
      "midi": 57,
      "hit": false,
      "t": 225999.9999999999,
      "d": 758.333333333343,
      "v": 79
    },
    {
      "midi": 60,
      "hit": false,
      "t": 226199.9999999999,
      "d": 391.66666666665697,
      "v": 87
    },
    {
      "midi": 65,
      "hit": false,
      "t": 226399.9999999999,
      "d": 691.6666666666861,
      "v": 97
    },
    {
      "midi": 60,
      "hit": false,
      "t": 226599.9999999999,
      "d": 308.33333333334303,
      "v": 99
    },
    {
      "midi": 41,
      "hit": false,
      "t": 226799.9999999999,
      "d": 378.33333333334303,
      "v": 97
    },
    {
      "midi": 57,
      "hit": false,
      "t": 226799.9999999999,
      "d": 400,
      "v": 81
    },
    {
      "midi": 58,
      "hit": false,
      "t": 227199.9999999999,
      "d": 250,
      "v": 94
    },
    {
      "midi": 62,
      "hit": false,
      "t": 227199.9999999999,
      "d": 466.66666666665697,
      "v": 99
    },
    {
      "midi": 65,
      "hit": false,
      "t": 227199.9999999999,
      "d": 616.666666666657,
      "v": 91
    },
    {
      "midi": 46,
      "hit": false,
      "t": 227199.9999999999,
      "d": 953.3333333333139,
      "v": 114
    },
    {
      "midi": 58,
      "hit": false,
      "t": 227599.9999999999,
      "d": 258.33333333331393,
      "v": 60
    },
    {
      "midi": 58,
      "hit": false,
      "t": 227999.99999999988,
      "d": 400,
      "v": 94
    },
    {
      "midi": 62,
      "hit": false,
      "t": 227999.99999999988,
      "d": 403.33333333334303,
      "v": 91
    },
    {
      "midi": 65,
      "hit": false,
      "t": 227999.99999999988,
      "d": 425,
      "v": 90
    },
    {
      "midi": 46,
      "hit": false,
      "t": 228399.99999999988,
      "d": 328.33333333331393,
      "v": 114
    },
    {
      "midi": 57,
      "hit": false,
      "t": 228716.66666666654,
      "d": 324.9999999999709,
      "v": 77
    },
    {
      "midi": 60,
      "hit": false,
      "t": 228753.3333333332,
      "d": 416.66666666665697,
      "v": 95
    },
    {
      "midi": 41,
      "hit": false,
      "t": 228799.99999999985,
      "d": 1025,
      "v": 71
    },
    {
      "midi": 65,
      "hit": false,
      "t": 228824.99999999985,
      "d": 528.333333333343,
      "v": 106
    },
    {
      "midi": 57,
      "hit": false,
      "t": 229183.3333333332,
      "d": 283.33333333334303,
      "v": 71
    },
    {
      "midi": 57,
      "hit": false,
      "t": 229603.3333333332,
      "d": 400,
      "v": 95
    },
    {
      "midi": 60,
      "hit": false,
      "t": 229608.3333333332,
      "d": 386.66666666665697,
      "v": 109
    },
    {
      "midi": 65,
      "hit": false,
      "t": 229608.3333333332,
      "d": 591.666666666657,
      "v": 91
    },
    {
      "midi": 41,
      "hit": false,
      "t": 229999.99999999985,
      "d": 375,
      "v": 90
    },
    {
      "midi": 58,
      "hit": false,
      "t": 230399.99999999985,
      "d": 250,
      "v": 97
    },
    {
      "midi": 62,
      "hit": false,
      "t": 230399.99999999985,
      "d": 441.66666666665697,
      "v": 102
    },
    {
      "midi": 65,
      "hit": false,
      "t": 230399.99999999985,
      "d": 636.666666666657,
      "v": 104
    },
    {
      "midi": 43,
      "hit": false,
      "t": 230399.99999999985,
      "d": 783.3333333333139,
      "v": 99
    },
    {
      "midi": 58,
      "hit": false,
      "t": 231199.99999999983,
      "d": 8.333333333343035,
      "v": 94
    },
    {
      "midi": 62,
      "hit": false,
      "t": 231199.99999999983,
      "d": 408.33333333334303,
      "v": 97
    },
    {
      "midi": 65,
      "hit": false,
      "t": 231199.99999999983,
      "d": 420,
      "v": 99
    },
    {
      "midi": 43,
      "hit": false,
      "t": 231599.99999999983,
      "d": 395,
      "v": 104
    },
    {
      "midi": 60,
      "hit": false,
      "t": 231999.99999999983,
      "d": 225,
      "v": 93
    },
    {
      "midi": 64,
      "hit": false,
      "t": 231999.99999999983,
      "d": 433.33333333334303,
      "v": 88
    },
    {
      "midi": 67,
      "hit": false,
      "t": 231999.99999999983,
      "d": 466.66666666668607,
      "v": 104
    },
    {
      "midi": 48,
      "hit": false,
      "t": 231999.99999999983,
      "d": 941.6666666666861,
      "v": 97
    },
    {
      "midi": 60,
      "hit": false,
      "t": 232399.99999999983,
      "d": 275.0000000000291,
      "v": 68
    },
    {
      "midi": 60,
      "hit": false,
      "t": 232799.99999999985,
      "d": 745,
      "v": 80
    },
    {
      "midi": 64,
      "hit": false,
      "t": 232799.99999999985,
      "d": 750,
      "v": 91
    },
    {
      "midi": 67,
      "hit": false,
      "t": 232799.99999999985,
      "d": 761.666666666657,
      "v": 104
    },
    {
      "midi": 48,
      "hit": false,
      "t": 233199.99999999985,
      "d": 386.66666666665697,
      "v": 104
    },
    {
      "midi": 41,
      "hit": false,
      "t": 233599.99999999985,
      "d": 861.6666666666861,
      "v": 102
    },
    {
      "midi": 65,
      "hit": false,
      "t": 233799.99999999985,
      "d": 528.333333333343,
      "v": 92
    },
    {
      "midi": 69,
      "hit": false,
      "t": 233999.99999999985,
      "d": 600.0000000000291,
      "v": 92
    },
    {
      "midi": 72,
      "hit": false,
      "t": 234199.99999999985,
      "d": 1000.0000000000291,
      "v": 127
    },
    {
      "midi": 65,
      "hit": false,
      "t": 234599.99999999988,
      "d": 400,
      "v": 92
    },
    {
      "midi": 41,
      "hit": false,
      "t": 234799.99999999988,
      "d": 400,
      "v": 92
    },
    {
      "midi": 69,
      "hit": false,
      "t": 234799.99999999988,
      "d": 600,
      "v": 92
    },
    {
      "midi": 65,
      "hit": false,
      "t": 234999.99999999988,
      "d": 200,
      "v": 92
    },
    {
      "midi": 40,
      "hit": false,
      "t": 235199.99999999988,
      "d": 928.333333333343,
      "v": 87
    },
    {
      "midi": 64,
      "hit": false,
      "t": 235399.99999999988,
      "d": 633.333333333343,
      "v": 92
    },
    {
      "midi": 67,
      "hit": false,
      "t": 235599.99999999988,
      "d": 800,
      "v": 92
    },
    {
      "midi": 72,
      "hit": false,
      "t": 235799.99999999988,
      "d": 1000,
      "v": 127
    },
    {
      "midi": 64,
      "hit": false,
      "t": 236199.99999999988,
      "d": 400,
      "v": 83
    },
    {
      "midi": 40,
      "hit": false,
      "t": 236399.99999999988,
      "d": 400,
      "v": 112
    },
    {
      "midi": 53,
      "hit": false,
      "t": 236799.99999999988,
      "d": 345,
      "v": 84
    },
    {
      "midi": 58,
      "hit": false,
      "t": 236799.99999999988,
      "d": 375,
      "v": 105
    },
    {
      "midi": 62,
      "hit": false,
      "t": 236799.99999999988,
      "d": 375,
      "v": 95
    },
    {
      "midi": 38,
      "hit": false,
      "t": 236799.99999999988,
      "d": 1095,
      "v": 104
    },
    {
      "midi": 58,
      "hit": false,
      "t": 237399.99999999988,
      "d": 600,
      "v": 105
    },
    {
      "midi": 62,
      "hit": false,
      "t": 237399.99999999988,
      "d": 600,
      "v": 88
    },
    {
      "midi": 65,
      "hit": false,
      "t": 237399.99999999988,
      "d": 600,
      "v": 88
    },
    {
      "midi": 57,
      "hit": false,
      "t": 237999.99999999988,
      "d": 611.666666666657,
      "v": 95
    },
    {
      "midi": 60,
      "hit": false,
      "t": 237999.99999999988,
      "d": 836.666666666657,
      "v": 102
    },
    {
      "midi": 65,
      "hit": false,
      "t": 237999.99999999988,
      "d": 1058.333333333343,
      "v": 81
    },
    {
      "midi": 41,
      "hit": false,
      "t": 237999.99999999988,
      "d": 1286.666666666657,
      "v": 91
    },
    {
      "midi": 57,
      "hit": false,
      "t": 238799.99999999988,
      "d": 758.333333333343,
      "v": 79
    },
    {
      "midi": 60,
      "hit": false,
      "t": 238999.99999999988,
      "d": 391.66666666665697,
      "v": 87
    },
    {
      "midi": 65,
      "hit": false,
      "t": 239199.99999999988,
      "d": 691.6666666666861,
      "v": 97
    },
    {
      "midi": 60,
      "hit": false,
      "t": 239399.99999999988,
      "d": 308.33333333334303,
      "v": 99
    },
    {
      "midi": 41,
      "hit": false,
      "t": 239599.99999999988,
      "d": 378.33333333334303,
      "v": 97
    },
    {
      "midi": 57,
      "hit": false,
      "t": 239599.99999999988,
      "d": 400,
      "v": 81
    },
    {
      "midi": 58,
      "hit": false,
      "t": 239999.99999999988,
      "d": 250,
      "v": 94
    },
    {
      "midi": 62,
      "hit": false,
      "t": 239999.99999999988,
      "d": 466.66666666665697,
      "v": 99
    },
    {
      "midi": 65,
      "hit": false,
      "t": 239999.99999999988,
      "d": 616.666666666657,
      "v": 91
    },
    {
      "midi": 46,
      "hit": false,
      "t": 239999.99999999988,
      "d": 953.3333333333139,
      "v": 114
    },
    {
      "midi": 58,
      "hit": false,
      "t": 240399.99999999988,
      "d": 258.33333333331393,
      "v": 60
    },
    {
      "midi": 58,
      "hit": false,
      "t": 240799.99999999985,
      "d": 400,
      "v": 94
    },
    {
      "midi": 62,
      "hit": false,
      "t": 240799.99999999985,
      "d": 403.33333333334303,
      "v": 91
    },
    {
      "midi": 65,
      "hit": false,
      "t": 240799.99999999985,
      "d": 425,
      "v": 90
    },
    {
      "midi": 46,
      "hit": false,
      "t": 241199.99999999985,
      "d": 328.33333333334303,
      "v": 114
    },
    {
      "midi": 57,
      "hit": false,
      "t": 241503.3333333332,
      "d": 325,
      "v": 48
    },
    {
      "midi": 60,
      "hit": false,
      "t": 241544.99999999985,
      "d": 446.66666666668607,
      "v": 79
    },
    {
      "midi": 65,
      "hit": false,
      "t": 241599.99999999985,
      "d": 528.3333333333721,
      "v": 93
    },
    {
      "midi": 41,
      "hit": false,
      "t": 241599.99999999985,
      "d": 1025.000000000029,
      "v": 71
    },
    {
      "midi": 57,
      "hit": false,
      "t": 241999.99999999988,
      "d": 283.33333333334303,
      "v": 71
    },
    {
      "midi": 60,
      "hit": false,
      "t": 242399.99999999988,
      "d": 386.66666666665697,
      "v": 109
    },
    {
      "midi": 57,
      "hit": false,
      "t": 242399.99999999988,
      "d": 400,
      "v": 95
    },
    {
      "midi": 65,
      "hit": false,
      "t": 242399.99999999988,
      "d": 591.666666666657,
      "v": 91
    },
    {
      "midi": 41,
      "hit": false,
      "t": 242799.99999999988,
      "d": 375,
      "v": 90
    },
    {
      "midi": 55,
      "hit": false,
      "t": 243199.99999999988,
      "d": 341.66666666665697,
      "v": 84
    },
    {
      "midi": 60,
      "hit": false,
      "t": 243199.99999999988,
      "d": 536.666666666657,
      "v": 95
    },
    {
      "midi": 64,
      "hit": false,
      "t": 243199.99999999988,
      "d": 616.666666666657,
      "v": 83
    },
    {
      "midi": 48,
      "hit": false,
      "t": 243199.99999999988,
      "d": 920,
      "v": 93
    },
    {
      "midi": 55,
      "hit": false,
      "t": 243599.99999999988,
      "d": 211.66666666665697,
      "v": 53
    },
    {
      "midi": 55,
      "hit": false,
      "t": 243999.99999999988,
      "d": 400,
      "v": 91
    },
    {
      "midi": 60,
      "hit": false,
      "t": 243999.99999999988,
      "d": 400,
      "v": 99
    },
    {
      "midi": 64,
      "hit": false,
      "t": 243999.99999999988,
      "d": 400,
      "v": 85
    },
    {
      "midi": 41,
      "hit": false,
      "t": 244399.99999999988,
      "d": 5200,
      "v": 77
    },
    {
      "midi": 57,
      "hit": false,
      "t": 244399.99999999988,
      "d": 5200,
      "v": 85
    },
    {
      "midi": 60,
      "hit": false,
      "t": 244399.99999999988,
      "d": 5200,
      "v": 81
    },
    {
      "midi": 65,
      "hit": false,
      "t": 244399.99999999988,
      "d": 5200,
      "v": 84
    }
  ]
}