{
  "jsonPath": "Rap/Italian Hip Hop/883/come-deve-andare.json",
  "path": "Rap\\Italian Hip Hop\\883\\Come deve andare.mid",
  "name": "Come deve andare",
  "difficulty": "Advanced",
  "bpm": 71.00003550001774,
  "notes": [
    {
      "midi": 65,
      "hit": false,
      "t": 30431.322812500002,
      "d": 1223.5909375000083,
      "v": 108
    },
    {
      "midi": 60,
      "hit": false,
      "t": 30862.660625000004,
      "d": 1531.689375000009,
      "v": 109
    },
    {
      "midi": 53,
      "hit": false,
      "t": 31302.801250000008,
      "d": 1562.4992187500065,
      "v": 101
    },
    {
      "midi": 64,
      "hit": false,
      "t": 31690.12500000001,
      "d": 2007.041250000013,
      "v": 105
    },
    {
      "midi": 60,
      "hit": false,
      "t": 32535.195000000014,
      "d": 1179.576875000006,
      "v": 109
    },
    {
      "midi": 53,
      "hit": false,
      "t": 32984.13843750002,
      "d": 730.6334375000006,
      "v": 106
    },
    {
      "midi": 63,
      "hit": false,
      "t": 33811.60281250002,
      "d": 1122.3585937499884,
      "v": 109
    },
    {
      "midi": 58,
      "hit": false,
      "t": 34225.33500000002,
      "d": 1470.0696874999921,
      "v": 105
    },
    {
      "midi": 53,
      "hit": false,
      "t": 34647.87000000002,
      "d": 1593.3090624999968,
      "v": 103
    },
    {
      "midi": 62,
      "hit": false,
      "t": 35088.01062500001,
      "d": 2059.858125000006,
      "v": 107
    },
    {
      "midi": 58,
      "hit": false,
      "t": 35915.47500000001,
      "d": 1236.795156250002,
      "v": 108
    },
    {
      "midi": 53,
      "hit": false,
      "t": 36351.214218750014,
      "d": 796.654531250002,
      "v": 109
    },
    {
      "midi": 65,
      "hit": false,
      "t": 37187.481406250015,
      "d": 1227.9923437500038,
      "v": 108
    },
    {
      "midi": 60,
      "hit": false,
      "t": 37623.220625000016,
      "d": 1531.689375000009,
      "v": 109
    },
    {
      "midi": 53,
      "hit": false,
      "t": 38063.361250000016,
      "d": 1566.9006250000093,
      "v": 101
    },
    {
      "midi": 64,
      "hit": false,
      "t": 38450.68500000002,
      "d": 2007.0412500000093,
      "v": 105
    },
    {
      "midi": 60,
      "hit": false,
      "t": 39295.75500000003,
      "d": 1179.5768749999988,
      "v": 109
    },
    {
      "midi": 53,
      "hit": false,
      "t": 39744.698437500025,
      "d": 730.6334375000006,
      "v": 106
    },
    {
      "midi": 63,
      "hit": false,
      "t": 40572.16281250003,
      "d": 1122.3585937499956,
      "v": 109
    },
    {
      "midi": 58,
      "hit": false,
      "t": 40985.895000000026,
      "d": 1470.0696874999994,
      "v": 105
    },
    {
      "midi": 53,
      "hit": false,
      "t": 41408.43000000002,
      "d": 1593.309062500004,
      "v": 103
    },
    {
      "midi": 62,
      "hit": false,
      "t": 41848.57062500002,
      "d": 2059.858125000006,
      "v": 107
    },
    {
      "midi": 58,
      "hit": false,
      "t": 42676.035000000025,
      "d": 1241.1965625000012,
      "v": 108
    },
    {
      "midi": 53,
      "hit": false,
      "t": 43116.175625000025,
      "d": 792.2531250000029,
      "v": 109
    },
    {
      "midi": 65,
      "hit": false,
      "t": 43948.04140625003,
      "d": 1227.9923437500038,
      "v": 108
    },
    {
      "midi": 60,
      "hit": false,
      "t": 44379.37921875003,
      "d": 1536.0907812500081,
      "v": 109
    },
    {
      "midi": 53,
      "hit": false,
      "t": 44823.92125000003,
      "d": 1562.4992187500102,
      "v": 101
    },
    {
      "midi": 64,
      "hit": false,
      "t": 45211.24500000003,
      "d": 1681.3371875000157,
      "v": 105
    },
    {
      "midi": 60,
      "hit": false,
      "t": 46060.71640625004,
      "d": 845.070000000007,
      "v": 109
    },
    {
      "midi": 53,
      "hit": false,
      "t": 46478.85000000004,
      "d": 1241.1965625000084,
      "v": 106
    },
    {
      "midi": 63,
      "hit": false,
      "t": 46901.385000000046,
      "d": 1117.9571875000038,
      "v": 109
    },
    {
      "midi": 58,
      "hit": false,
      "t": 47746.45500000005,
      "d": 1470.0696874999994,
      "v": 105
    },
    {
      "midi": 53,
      "hit": false,
      "t": 48168.99000000005,
      "d": 1593.309062500004,
      "v": 103
    },
    {
      "midi": 62,
      "hit": false,
      "t": 48609.13062500005,
      "d": 2059.858125000006,
      "v": 107
    },
    {
      "midi": 58,
      "hit": false,
      "t": 49436.59500000005,
      "d": 1241.1965625000012,
      "v": 108
    },
    {
      "midi": 53,
      "hit": false,
      "t": 49876.73562500005,
      "d": 792.2531250000029,
      "v": 109
    },
    {
      "midi": 60,
      "hit": false,
      "t": 50686.59437500005,
      "d": 1236.7951562500093,
      "v": 115
    },
    {
      "midi": 65,
      "hit": false,
      "t": 50686.59437500005,
      "d": 1236.7951562500093,
      "v": 76
    },
    {
      "midi": 57,
      "hit": false,
      "t": 50686.59437500005,
      "d": 1254.4007812500058,
      "v": 91
    },
    {
      "midi": 65,
      "hit": false,
      "t": 51980.60781250006,
      "d": 2024.646875000013,
      "v": 121
    },
    {
      "midi": 69,
      "hit": false,
      "t": 51980.60781250006,
      "d": 2055.4567187500143,
      "v": 92
    },
    {
      "midi": 58,
      "hit": false,
      "t": 51980.60781250006,
      "d": 2081.865156250009,
      "v": 111
    },
    {
      "midi": 62,
      "hit": false,
      "t": 51985.009218750056,
      "d": 2068.6609375000116,
      "v": 108
    },
    {
      "midi": 65,
      "hit": false,
      "t": 54075.67718750006,
      "d": 1241.1965625000084,
      "v": 82
    },
    {
      "midi": 60,
      "hit": false,
      "t": 54075.67718750006,
      "d": 1249.9993750000067,
      "v": 113
    },
    {
      "midi": 57,
      "hit": false,
      "t": 54075.67718750006,
      "d": 1263.203593750004,
      "v": 98
    },
    {
      "midi": 67,
      "hit": false,
      "t": 55352.085000000065,
      "d": 2117.076406250002,
      "v": 81
    },
    {
      "midi": 55,
      "hit": false,
      "t": 55360.88781250006,
      "d": 1117.957187500011,
      "v": 98
    },
    {
      "midi": 62,
      "hit": false,
      "t": 55360.88781250006,
      "d": 1307.21765625001,
      "v": 104
    },
    {
      "midi": 55,
      "hit": false,
      "t": 56619.690000000075,
      "d": 862.6756249999889,
      "v": 76
    },
    {
      "midi": 60,
      "hit": false,
      "t": 56822.15468750008,
      "d": 660.2109374999854,
      "v": 100
    },
    {
      "midi": 62,
      "hit": false,
      "t": 57029.020781250074,
      "d": 382.9223437499968,
      "v": 68
    },
    {
      "midi": 57,
      "hit": false,
      "t": 57455.95718750007,
      "d": 1135.5628125000003,
      "v": 87
    },
    {
      "midi": 65,
      "hit": false,
      "t": 57455.95718750007,
      "d": 1161.9712500000023,
      "v": 85
    },
    {
      "midi": 62,
      "hit": false,
      "t": 57455.95718750007,
      "d": 1201.5839062500017,
      "v": 110
    },
    {
      "midi": 69,
      "hit": false,
      "t": 58719.16078125007,
      "d": 2011.4426562500084,
      "v": 94
    },
    {
      "midi": 62,
      "hit": false,
      "t": 58719.16078125007,
      "d": 2020.2454687500067,
      "v": 108
    },
    {
      "midi": 58,
      "hit": false,
      "t": 58719.16078125007,
      "d": 2042.2525000000096,
      "v": 100
    },
    {
      "midi": 65,
      "hit": false,
      "t": 60827.434375000084,
      "d": 726.2320312500015,
      "v": 79
    },
    {
      "midi": 57,
      "hit": false,
      "t": 60827.434375000084,
      "d": 757.0418750000026,
      "v": 92
    },
    {
      "midi": 60,
      "hit": false,
      "t": 60827.434375000084,
      "d": 765.8446875000009,
      "v": 111
    },
    {
      "midi": 77,
      "hit": false,
      "t": 61227.962343750085,
      "d": 845.0699999999997,
      "v": 110
    },
    {
      "midi": 60,
      "hit": false,
      "t": 61663.701562500086,
      "d": 783.4503124999974,
      "v": 84
    },
    {
      "midi": 64,
      "hit": false,
      "t": 61663.701562500086,
      "d": 783.4503124999974,
      "v": 71
    },
    {
      "midi": 55,
      "hit": false,
      "t": 61676.90578125008,
      "d": 787.8517187499965,
      "v": 91
    },
    {
      "midi": 72,
      "hit": false,
      "t": 62086.23656250008,
      "d": 862.6756249999962,
      "v": 111
    },
    {
      "midi": 53,
      "hit": false,
      "t": 62526.37718750008,
      "d": 836.2671874999942,
      "v": 73
    },
    {
      "midi": 58,
      "hit": false,
      "t": 62535.18000000008,
      "d": 814.2601562499985,
      "v": 90
    },
    {
      "midi": 62,
      "hit": false,
      "t": 62535.18000000008,
      "d": 827.4643749999959,
      "v": 76
    },
    {
      "midi": 70,
      "hit": false,
      "t": 62962.116406250076,
      "d": 805.4573437500003,
      "v": 103
    },
    {
      "midi": 64,
      "hit": false,
      "t": 63367.045781250075,
      "d": 792.2531249999956,
      "v": 79
    },
    {
      "midi": 60,
      "hit": false,
      "t": 63367.045781250075,
      "d": 805.457343749993,
      "v": 94
    },
    {
      "midi": 55,
      "hit": false,
      "t": 63367.045781250075,
      "d": 809.8587499999921,
      "v": 74
    },
    {
      "midi": 69,
      "hit": false,
      "t": 63789.58078125007,
      "d": 576.5842187499875,
      "v": 98
    },
    {
      "midi": 65,
      "hit": false,
      "t": 64194.510156250064,
      "d": 3349.4701562499686,
      "v": 74
    },
    {
      "midi": 57,
      "hit": false,
      "t": 64203.31296875006,
      "d": 3358.272968749967,
      "v": 106
    },
    {
      "midi": 60,
      "hit": false,
      "t": 64203.31296875006,
      "d": 3358.272968749967,
      "v": 98
    },
    {
      "midi": 53,
      "hit": false,
      "t": 64203.31296875006,
      "d": 3371.4771874999715,
      "v": 98
    },
    {
      "midi": 41,
      "hit": false,
      "t": 67605.60000000003,
      "d": 1993.83703124999,
      "v": 106
    },
    {
      "midi": 57,
      "hit": false,
      "t": 67623.20562500003,
      "d": 748.2390625000116,
      "v": 102
    },
    {
      "midi": 60,
      "hit": false,
      "t": 67623.20562500003,
      "d": 950.7037500000151,
      "v": 110
    },
    {
      "midi": 65,
      "hit": false,
      "t": 67623.20562500003,
      "d": 2403.1678124999744,
      "v": 85
    },
    {
      "midi": 57,
      "hit": false,
      "t": 68459.47281250004,
      "d": 1342.4289062499738,
      "v": 91
    },
    {
      "midi": 60,
      "hit": false,
      "t": 68890.81062500003,
      "d": 1166.3726562499796,
      "v": 91
    },
    {
      "midi": 41,
      "hit": false,
      "t": 69753.48625000002,
      "d": 343.3096874999901,
      "v": 106
    },
    {
      "midi": 57,
      "hit": false,
      "t": 69938.34531250001,
      "d": 105.6337499999936,
      "v": 71
    },
    {
      "midi": 40,
      "hit": false,
      "t": 70132.0071875,
      "d": 783.4503125000047,
      "v": 111
    },
    {
      "midi": 60,
      "hit": false,
      "t": 70132.0071875,
      "d": 801.0559375000012,
      "v": 89
    },
    {
      "midi": 55,
      "hit": false,
      "t": 70145.21140625,
      "d": 743.8376562500052,
      "v": 104
    },
    {
      "midi": 64,
      "hit": false,
      "t": 70145.21140625,
      "d": 752.6404687500035,
      "v": 81
    },
    {
      "midi": 57,
      "hit": false,
      "t": 71003.48562499999,
      "d": 673.4151562499756,
      "v": 91
    },
    {
      "midi": 65,
      "hit": false,
      "t": 71003.48562499999,
      "d": 1161.9712499999732,
      "v": 98
    },
    {
      "midi": 38,
      "hit": false,
      "t": 71003.48562499999,
      "d": 1223.5909374999756,
      "v": 115
    },
    {
      "midi": 60,
      "hit": false,
      "t": 71003.48562499999,
      "d": 1223.5909374999756,
      "v": 102
    },
    {
      "midi": 57,
      "hit": false,
      "t": 71835.35140624996,
      "d": 396.12656250000873,
      "v": 96
    },
    {
      "midi": 58,
      "hit": false,
      "t": 72231.47796874997,
      "d": 915.4925000000076,
      "v": 88
    },
    {
      "midi": 65,
      "hit": false,
      "t": 72231.47796874997,
      "d": 999.1192187500128,
      "v": 79
    },
    {
      "midi": 60,
      "hit": false,
      "t": 72231.47796874997,
      "d": 1025.5276562500076,
      "v": 117
    },
    {
      "midi": 46,
      "hit": false,
      "t": 73107.35781249998,
      "d": 695.422187499993,
      "v": 74
    },
    {
      "midi": 58,
      "hit": false,
      "t": 73292.21687499997,
      "d": 1038.7318749999977,
      "v": 72
    },
    {
      "midi": 60,
      "hit": false,
      "t": 73499.08296874996,
      "d": 827.4643749999959,
      "v": 102
    },
    {
      "midi": 65,
      "hit": false,
      "t": 73701.54765624997,
      "d": 624.9996874999924,
      "v": 72
    },
    {
      "midi": 46,
      "hit": false,
      "t": 73943.62499999997,
      "d": 387.3237499999959,
      "v": 88
    },
    {
      "midi": 60,
      "hit": false,
      "t": 74357.35718749996,
      "d": 1060.738906249986,
      "v": 111
    },
    {
      "midi": 57,
      "hit": false,
      "t": 74366.15999999996,
      "d": 911.0910937499866,
      "v": 91
    },
    {
      "midi": 65,
      "hit": false,
      "t": 74366.15999999996,
      "d": 1654.9287499999627,
      "v": 92
    },
    {
      "midi": 41,
      "hit": false,
      "t": 74370.56140624997,
      "d": 739.4362499999843,
      "v": 94
    },
    {
      "midi": 41,
      "hit": false,
      "t": 75211.22999999995,
      "d": 809.8587499999703,
      "v": 85
    },
    {
      "midi": 57,
      "hit": false,
      "t": 75382.88484374995,
      "d": 655.8095312499645,
      "v": 67
    },
    {
      "midi": 60,
      "hit": false,
      "t": 75616.15937499994,
      "d": 404.9293749999779,
      "v": 98
    },
    {
      "midi": 48,
      "hit": false,
      "t": 76065.10281249991,
      "d": 347.7110937499965,
      "v": 89
    },
    {
      "midi": 64,
      "hit": false,
      "t": 76065.10281249991,
      "d": 695.4221874999785,
      "v": 89
    },
    {
      "midi": 60,
      "hit": false,
      "t": 76065.10281249991,
      "d": 726.2320312499796,
      "v": 106
    },
    {
      "midi": 55,
      "hit": false,
      "t": 76073.90562499991,
      "d": 501.7603125000023,
      "v": 91
    },
    {
      "midi": 48,
      "hit": false,
      "t": 76496.44062499992,
      "d": 1183.9782812499616,
      "v": 79
    },
    {
      "midi": 55,
      "hit": false,
      "t": 76690.1024999999,
      "d": 123.2393749999901,
      "v": 78
    },
    {
      "midi": 55,
      "hit": false,
      "t": 76888.16578124989,
      "d": 365.316718749993,
      "v": 94
    },
    {
      "midi": 60,
      "hit": false,
      "t": 76888.16578124989,
      "d": 805.457343749993,
      "v": 92
    },
    {
      "midi": 65,
      "hit": false,
      "t": 76901.3699999999,
      "d": 127.64078124999651,
      "v": 108
    },
    {
      "midi": 64,
      "hit": false,
      "t": 77086.22906249989,
      "d": 594.1898437499913,
      "v": 98
    },
    {
      "midi": 55,
      "hit": false,
      "t": 77363.51765624988,
      "d": 316.90124999999534,
      "v": 79
    },
    {
      "midi": 46,
      "hit": false,
      "t": 77750.84140624988,
      "d": 334.5068750000064,
      "v": 100
    },
    {
      "midi": 65,
      "hit": false,
      "t": 77755.24281249988,
      "d": 514.964531250007,
      "v": 89
    },
    {
      "midi": 60,
      "hit": false,
      "t": 77755.24281249988,
      "d": 536.9715625000099,
      "v": 100
    },
    {
      "midi": 58,
      "hit": false,
      "t": 77755.24281249988,
      "d": 677.8165625000256,
      "v": 100
    },
    {
      "midi": 46,
      "hit": false,
      "t": 78155.77078124988,
      "d": 1632.9217187500035,
      "v": 55
    },
    {
      "midi": 65,
      "hit": false,
      "t": 78349.4326562499,
      "d": 1848.5906249999825,
      "v": 59
    },
    {
      "midi": 62,
      "hit": false,
      "t": 78358.2354687499,
      "d": 1729.7526562499843,
      "v": 115
    },
    {
      "midi": 58,
      "hit": false,
      "t": 78833.5873437499,
      "d": 1082.745937499989,
      "v": 72
    },
    {
      "midi": 46,
      "hit": false,
      "t": 79881.12203124989,
      "d": 1210.3867187499854,
      "v": 103
    },
    {
      "midi": 58,
      "hit": false,
      "t": 80035.17124999988,
      "d": 286.0914062499942,
      "v": 71
    },
    {
      "midi": 60,
      "hit": false,
      "t": 80246.43874999988,
      "d": 272.8871874999895,
      "v": 100
    },
    {
      "midi": 62,
      "hit": false,
      "t": 80462.10765624988,
      "d": 629.4010937499988,
      "v": 94
    },
    {
      "midi": 66,
      "hit": false,
      "t": 80704.18499999988,
      "d": 48.41546874999767,
      "v": 72
    },
    {
      "midi": 58,
      "hit": false,
      "t": 80708.58640624989,
      "d": 382.9223437499895,
      "v": 111
    },
    {
      "midi": 65,
      "hit": false,
      "t": 80743.79765624988,
      "d": 26.40843749999476,
      "v": 43
    },
    {
      "midi": 41,
      "hit": false,
      "t": 81126.71999999987,
      "d": 1998.238437499982,
      "v": 106
    },
    {
      "midi": 57,
      "hit": false,
      "t": 81144.32562499987,
      "d": 743.8376562499907,
      "v": 102
    },
    {
      "midi": 60,
      "hit": false,
      "t": 81144.32562499987,
      "d": 946.3023437499942,
      "v": 110
    },
    {
      "midi": 65,
      "hit": false,
      "t": 81144.32562499987,
      "d": 2398.7664062499825,
      "v": 85
    },
    {
      "midi": 57,
      "hit": false,
      "t": 81980.59281249986,
      "d": 1342.4289062499884,
      "v": 91
    },
    {
      "midi": 60,
      "hit": false,
      "t": 82411.93062499986,
      "d": 1166.3726562499942,
      "v": 91
    },
    {
      "midi": 41,
      "hit": false,
      "t": 83274.60624999985,
      "d": 343.30968750000466,
      "v": 106
    },
    {
      "midi": 57,
      "hit": false,
      "t": 83459.46531249984,
      "d": 105.63375000000815,
      "v": 71
    },
    {
      "midi": 40,
      "hit": false,
      "t": 83648.72578124986,
      "d": 787.8517187500111,
      "v": 111
    },
    {
      "midi": 60,
      "hit": false,
      "t": 83648.72578124986,
      "d": 801.0559375000157,
      "v": 89
    },
    {
      "midi": 64,
      "hit": false,
      "t": 83666.33140624985,
      "d": 752.640468750018,
      "v": 81
    },
    {
      "midi": 55,
      "hit": false,
      "t": 83670.73281249986,
      "d": 739.4362500000134,
      "v": 104
    },
    {
      "midi": 57,
      "hit": false,
      "t": 84524.60562499987,
      "d": 673.4151562499901,
      "v": 91
    },
    {
      "midi": 65,
      "hit": false,
      "t": 84524.60562499987,
      "d": 1157.5698437499814,
      "v": 98
    },
    {
      "midi": 38,
      "hit": false,
      "t": 84524.60562499987,
      "d": 1223.5909374999756,
      "v": 115
    },
    {
      "midi": 60,
      "hit": false,
      "t": 84524.60562499987,
      "d": 1223.5909374999756,
      "v": 102
    },
    {
      "midi": 57,
      "hit": false,
      "t": 85356.47140624985,
      "d": 400.52796874998603,
      "v": 96
    },
    {
      "midi": 58,
      "hit": false,
      "t": 85756.99937499984,
      "d": 911.0910937500012,
      "v": 88
    },
    {
      "midi": 65,
      "hit": false,
      "t": 85756.99937499984,
      "d": 994.7178125000064,
      "v": 79
    },
    {
      "midi": 60,
      "hit": false,
      "t": 85756.99937499984,
      "d": 1021.1262500000012,
      "v": 117
    },
    {
      "midi": 46,
      "hit": false,
      "t": 86628.47781249984,
      "d": 695.4221875000076,
      "v": 74
    },
    {
      "midi": 58,
      "hit": false,
      "t": 86808.93546874984,
      "d": 1043.133281250004,
      "v": 72
    },
    {
      "midi": 60,
      "hit": false,
      "t": 87020.20296874984,
      "d": 823.0629687500041,
      "v": 102
    },
    {
      "midi": 65,
      "hit": false,
      "t": 87227.06906249985,
      "d": 616.1968749999942,
      "v": 72
    },
    {
      "midi": 46,
      "hit": false,
      "t": 87464.74499999985,
      "d": 387.3237499999959,
      "v": 88
    },
    {
      "midi": 60,
      "hit": false,
      "t": 87878.47718749984,
      "d": 1065.1403124999779,
      "v": 111
    },
    {
      "midi": 57,
      "hit": false,
      "t": 87887.27999999984,
      "d": 911.0910937499866,
      "v": 91
    },
    {
      "midi": 65,
      "hit": false,
      "t": 87887.27999999984,
      "d": 1654.9287499999773,
      "v": 92
    },
    {
      "midi": 41,
      "hit": false,
      "t": 87891.68140624985,
      "d": 743.8376562499907,
      "v": 94
    },
    {
      "midi": 41,
      "hit": false,
      "t": 88732.34999999983,
      "d": 809.8587499999849,
      "v": 85
    },
    {
      "midi": 57,
      "hit": false,
      "t": 88908.40624999983,
      "d": 651.4081249999872,
      "v": 67
    },
    {
      "midi": 60,
      "hit": false,
      "t": 89137.27937499982,
      "d": 404.92937499999243,
      "v": 98
    },
    {
      "midi": 48,
      "hit": false,
      "t": 89586.22281249981,
      "d": 347.7110937499965,
      "v": 89
    },
    {
      "midi": 64,
      "hit": false,
      "t": 89586.22281249981,
      "d": 695.4221874999785,
      "v": 89
    },
    {
      "midi": 60,
      "hit": false,
      "t": 89586.22281249981,
      "d": 730.6334374999715,
      "v": 106
    },
    {
      "midi": 55,
      "hit": false,
      "t": 89595.0256249998,
      "d": 497.3589062499959,
      "v": 91
    },
    {
      "midi": 48,
      "hit": false,
      "t": 90013.1592187498,
      "d": 1192.7810937499744,
      "v": 79
    },
    {
      "midi": 55,
      "hit": false,
      "t": 90211.2224999998,
      "d": 118.8379687499837,
      "v": 78
    },
    {
      "midi": 55,
      "hit": false,
      "t": 90409.28578124978,
      "d": 360.91531250000116,
      "v": 94
    },
    {
      "midi": 60,
      "hit": false,
      "t": 90409.28578124978,
      "d": 801.0559375000012,
      "v": 92
    },
    {
      "midi": 65,
      "hit": false,
      "t": 90422.48999999979,
      "d": 127.64078124999651,
      "v": 108
    },
    {
      "midi": 64,
      "hit": false,
      "t": 90602.94765624979,
      "d": 602.9926562499895,
      "v": 98
    },
    {
      "midi": 55,
      "hit": false,
      "t": 90884.63765624978,
      "d": 321.30265625000175,
      "v": 79
    },
    {
      "midi": 46,
      "hit": false,
      "t": 91271.96140624979,
      "d": 334.5068750000064,
      "v": 100
    },
    {
      "midi": 65,
      "hit": false,
      "t": 91276.36281249979,
      "d": 519.3659374999988,
      "v": 89
    },
    {
      "midi": 60,
      "hit": false,
      "t": 91276.36281249979,
      "d": 532.5701562500035,
      "v": 100
    },
    {
      "midi": 58,
      "hit": false,
      "t": 91276.36281249979,
      "d": 673.4151562500047,
      "v": 100
    },
    {
      "midi": 46,
      "hit": false,
      "t": 91681.2921874998,
      "d": 2966.5478124999354,
      "v": 55
    },
    {
      "midi": 65,
      "hit": false,
      "t": 91870.5526562498,
      "d": 2777.2873437499366,
      "v": 59
    },
    {
      "midi": 62,
      "hit": false,
      "t": 91879.3554687498,
      "d": 2768.4845312499383,
      "v": 115
    },
    {
      "midi": 58,
      "hit": false,
      "t": 92354.70734374979,
      "d": 2293.1326562499453,
      "v": 72
    },
    {
      "midi": 65,
      "hit": false,
      "t": 94656.64281249973,
      "d": 1219.1895312499983,
      "v": 108
    },
    {
      "midi": 60,
      "hit": false,
      "t": 95087.98062499973,
      "d": 1531.6893750000017,
      "v": 109
    },
    {
      "midi": 53,
      "hit": false,
      "t": 95528.12124999973,
      "d": 1566.9006250000093,
      "v": 101
    },
    {
      "midi": 64,
      "hit": false,
      "t": 95915.44499999973,
      "d": 2007.0412500000093,
      "v": 105
    },
    {
      "midi": 60,
      "hit": false,
      "t": 96760.51499999974,
      "d": 1179.5768749999988,
      "v": 109
    },
    {
      "midi": 53,
      "hit": false,
      "t": 97209.45843749974,
      "d": 730.6334375000006,
      "v": 106
    },
    {
      "midi": 63,
      "hit": false,
      "t": 98036.92281249973,
      "d": 1126.7599999999948,
      "v": 109
    },
    {
      "midi": 58,
      "hit": false,
      "t": 98450.65499999974,
      "d": 1470.0696874999849,
      "v": 105
    },
    {
      "midi": 53,
      "hit": false,
      "t": 98873.18999999974,
      "d": 1593.309062499975,
      "v": 103
    },
    {
      "midi": 62,
      "hit": false,
      "t": 99313.33062499973,
      "d": 2059.8581249999843,
      "v": 107
    },
    {
      "midi": 58,
      "hit": false,
      "t": 100140.79499999972,
      "d": 1236.7951562499948,
      "v": 108
    },
    {
      "midi": 53,
      "hit": false,
      "t": 100585.33703124971,
      "d": 787.8517187499965,
      "v": 109
    },
    {
      "midi": 65,
      "hit": false,
      "t": 101412.80140624972,
      "d": 1227.992343749982,
      "v": 108
    },
    {
      "midi": 60,
      "hit": false,
      "t": 101848.54062499972,
      "d": 1531.6893749999872,
      "v": 109
    },
    {
      "midi": 53,
      "hit": false,
      "t": 102288.68124999972,
      "d": 1562.4992187499884,
      "v": 101
    },
    {
      "midi": 64,
      "hit": false,
      "t": 102676.0049999997,
      "d": 1681.3371875000157,
      "v": 105
    },
    {
      "midi": 60,
      "hit": false,
      "t": 103521.0749999997,
      "d": 849.4714062500134,
      "v": 109
    },
    {
      "midi": 53,
      "hit": false,
      "t": 103943.60999999971,
      "d": 1236.7951562500093,
      "v": 106
    },
    {
      "midi": 63,
      "hit": false,
      "t": 104366.14499999971,
      "d": 1122.358593750003,
      "v": 109
    },
    {
      "midi": 58,
      "hit": false,
      "t": 105211.21499999972,
      "d": 1474.4710937499913,
      "v": 105
    },
    {
      "midi": 53,
      "hit": false,
      "t": 105633.74999999972,
      "d": 1593.3090624999895,
      "v": 103
    },
    {
      "midi": 62,
      "hit": false,
      "t": 106073.89062499972,
      "d": 2059.858124999999,
      "v": 107
    },
    {
      "midi": 58,
      "hit": false,
      "t": 106901.35499999972,
      "d": 1241.1965625000012,
      "v": 108
    },
    {
      "midi": 53,
      "hit": false,
      "t": 107341.49562499972,
      "d": 792.2531250000029,
      "v": 109
    },
    {
      "midi": 60,
      "hit": false,
      "t": 108151.35437499972,
      "d": 1241.1965624999866,
      "v": 115
    },
    {
      "midi": 65,
      "hit": false,
      "t": 108151.35437499972,
      "d": 1241.1965624999866,
      "v": 76
    },
    {
      "midi": 57,
      "hit": false,
      "t": 108151.35437499972,
      "d": 1254.4007812499913,
      "v": 91
    },
    {
      "midi": 65,
      "hit": false,
      "t": 109445.36781249971,
      "d": 2020.2454687499994,
      "v": 121
    },
    {
      "midi": 69,
      "hit": false,
      "t": 109445.36781249971,
      "d": 2059.858124999999,
      "v": 92
    },
    {
      "midi": 58,
      "hit": false,
      "t": 109445.36781249971,
      "d": 2086.266562500008,
      "v": 111
    },
    {
      "midi": 62,
      "hit": false,
      "t": 109449.76921874972,
      "d": 2068.660937499997,
      "v": 108
    },
    {
      "midi": 65,
      "hit": false,
      "t": 111540.43718749972,
      "d": 1241.1965624999866,
      "v": 82
    },
    {
      "midi": 60,
      "hit": false,
      "t": 111540.43718749972,
      "d": 1249.9993749999849,
      "v": 113
    },
    {
      "midi": 57,
      "hit": false,
      "t": 111540.43718749972,
      "d": 1258.8021874999831,
      "v": 98
    },
    {
      "midi": 67,
      "hit": false,
      "t": 112816.8449999997,
      "d": 2121.4778125000303,
      "v": 81
    },
    {
      "midi": 55,
      "hit": false,
      "t": 112821.2464062497,
      "d": 1122.358593750003,
      "v": 98
    },
    {
      "midi": 62,
      "hit": false,
      "t": 112821.2464062497,
      "d": 1316.0204687500081,
      "v": 104
    },
    {
      "midi": 55,
      "hit": false,
      "t": 114084.4499999997,
      "d": 862.675625000018,
      "v": 76
    },
    {
      "midi": 60,
      "hit": false,
      "t": 114286.91468749971,
      "d": 660.2109375000146,
      "v": 100
    },
    {
      "midi": 62,
      "hit": false,
      "t": 114498.18218749971,
      "d": 378.5209374999977,
      "v": 68
    },
    {
      "midi": 57,
      "hit": false,
      "t": 114920.71718749971,
      "d": 1135.562812499993,
      "v": 87
    },
    {
      "midi": 65,
      "hit": false,
      "t": 114920.71718749971,
      "d": 1161.9712499999878,
      "v": 85
    },
    {
      "midi": 62,
      "hit": false,
      "t": 114920.71718749971,
      "d": 1205.9853124999936,
      "v": 110
    },
    {
      "midi": 69,
      "hit": false,
      "t": 116188.32218749971,
      "d": 2007.0412499999802,
      "v": 94
    },
    {
      "midi": 62,
      "hit": false,
      "t": 116188.32218749971,
      "d": 2015.8440624999785,
      "v": 108
    },
    {
      "midi": 58,
      "hit": false,
      "t": 116188.32218749971,
      "d": 2037.8510937499814,
      "v": 100
    },
    {
      "midi": 65,
      "hit": false,
      "t": 118309.7999999997,
      "d": 1562.4992187499884,
      "v": 104
    },
    {
      "midi": 60,
      "hit": false,
      "t": 119137.2643749997,
      "d": 1566.9006249999802,
      "v": 98
    },
    {
      "midi": 65,
      "hit": false,
      "t": 119999.93999999968,
      "d": 1571.3020312500012,
      "v": 78
    },
    {
      "midi": 60,
      "hit": false,
      "t": 120849.41140624968,
      "d": 4194.540156250005,
      "v": 78
    },
    {
      "midi": 65,
      "hit": false,
      "t": 121707.68562499968,
      "d": 3314.2589062500047,
      "v": 84
    },
    {
      "midi": 72,
      "hit": false,
      "t": 122521.94578124968,
      "d": 2499.998749999999,
      "v": 74
    },
    {
      "midi": 65,
      "hit": false,
      "t": 125074.76140624969,
      "d": 1227.9923437499674,
      "v": 108
    },
    {
      "midi": 60,
      "hit": false,
      "t": 125510.50062499968,
      "d": 1531.6893749999726,
      "v": 109
    },
    {
      "midi": 53,
      "hit": false,
      "t": 125950.64124999967,
      "d": 1562.4992187499884,
      "v": 101
    },
    {
      "midi": 64,
      "hit": false,
      "t": 126337.96499999965,
      "d": 2007.0412500000093,
      "v": 105
    },
    {
      "midi": 60,
      "hit": false,
      "t": 127183.03499999965,
      "d": 1179.5768749999988,
      "v": 109
    },
    {
      "midi": 53,
      "hit": false,
      "t": 127631.97843749965,
      "d": 730.6334375000006,
      "v": 106
    },
    {
      "midi": 63,
      "hit": false,
      "t": 128459.44281249965,
      "d": 1126.7600000000093,
      "v": 109
    },
    {
      "midi": 58,
      "hit": false,
      "t": 128873.17499999965,
      "d": 1470.0696874999994,
      "v": 105
    },
    {
      "midi": 53,
      "hit": false,
      "t": 129300.11140624965,
      "d": 1588.9076562499977,
      "v": 103
    },
    {
      "midi": 62,
      "hit": false,
      "t": 129735.85062499966,
      "d": 2059.8581250000134,
      "v": 107
    },
    {
      "midi": 58,
      "hit": false,
      "t": 130563.31499999965,
      "d": 1241.1965625000303,
      "v": 108
    },
    {
      "midi": 53,
      "hit": false,
      "t": 131003.45562499965,
      "d": 792.2531250000175,
      "v": 109
    },
    {
      "midi": 65,
      "hit": false,
      "t": 131835.32140624968,
      "d": 1227.9923437500256,
      "v": 108
    },
    {
      "midi": 60,
      "hit": false,
      "t": 132271.0606249997,
      "d": 1531.6893750000163,
      "v": 109
    },
    {
      "midi": 53,
      "hit": false,
      "t": 132711.2012499997,
      "d": 1566.9006250000093,
      "v": 101
    },
    {
      "midi": 64,
      "hit": false,
      "t": 133098.5249999997,
      "d": 1681.3371875000303,
      "v": 105
    },
    {
      "midi": 60,
      "hit": false,
      "t": 133943.5949999997,
      "d": 849.4714062500279,
      "v": 109
    },
    {
      "midi": 53,
      "hit": false,
      "t": 134366.1299999997,
      "d": 1241.1965625000303,
      "v": 106
    },
    {
      "midi": 63,
      "hit": false,
      "t": 134788.66499999975,
      "d": 1117.9571874999965,
      "v": 109
    },
    {
      "midi": 58,
      "hit": false,
      "t": 135633.73499999975,
      "d": 1470.069687500014,
      "v": 105
    },
    {
      "midi": 53,
      "hit": false,
      "t": 136060.67140624975,
      "d": 1584.5062500000058,
      "v": 103
    },
    {
      "midi": 62,
      "hit": false,
      "t": 136496.41062499976,
      "d": 2059.858125000028,
      "v": 107
    },
    {
      "midi": 58,
      "hit": false,
      "t": 137323.87499999977,
      "d": 1241.1965625000303,
      "v": 108
    },
    {
      "midi": 53,
      "hit": false,
      "t": 137764.01562499977,
      "d": 792.2531250000175,
      "v": 109
    },
    {
      "midi": 60,
      "hit": false,
      "t": 138573.8743749998,
      "d": 1236.7951562500093,
      "v": 115
    },
    {
      "midi": 65,
      "hit": false,
      "t": 138573.8743749998,
      "d": 1236.7951562500093,
      "v": 76
    },
    {
      "midi": 57,
      "hit": false,
      "t": 138573.8743749998,
      "d": 1254.4007812500058,
      "v": 91
    },
    {
      "midi": 65,
      "hit": false,
      "t": 139867.8878124998,
      "d": 2020.245468750014,
      "v": 121
    },
    {
      "midi": 69,
      "hit": false,
      "t": 139867.8878124998,
      "d": 2059.858125000028,
      "v": 92
    },
    {
      "midi": 58,
      "hit": false,
      "t": 139867.8878124998,
      "d": 2081.8651562500454,
      "v": 111
    },
    {
      "midi": 62,
      "hit": false,
      "t": 139872.2892187498,
      "d": 2068.6609375000407,
      "v": 108
    },
    {
      "midi": 65,
      "hit": false,
      "t": 141962.95718749985,
      "d": 1241.1965625000303,
      "v": 82
    },
    {
      "midi": 60,
      "hit": false,
      "t": 141962.95718749985,
      "d": 1249.999375000043,
      "v": 113
    },
    {
      "midi": 57,
      "hit": false,
      "t": 141962.95718749985,
      "d": 1258.8021875000559,
      "v": 98
    },
    {
      "midi": 67,
      "hit": false,
      "t": 143239.3649999999,
      "d": 2117.0764062500093,
      "v": 81
    },
    {
      "midi": 55,
      "hit": false,
      "t": 143243.7664062499,
      "d": 1122.3585937500175,
      "v": 98
    },
    {
      "midi": 62,
      "hit": false,
      "t": 143243.7664062499,
      "d": 1311.6190625000163,
      "v": 104
    },
    {
      "midi": 55,
      "hit": false,
      "t": 144506.9699999999,
      "d": 862.6756250000035,
      "v": 76
    },
    {
      "midi": 60,
      "hit": false,
      "t": 144709.43468749992,
      "d": 660.2109375,
      "v": 100
    },
    {
      "midi": 62,
      "hit": false,
      "t": 144920.7021874999,
      "d": 378.5209375000268,
      "v": 68
    },
    {
      "midi": 57,
      "hit": false,
      "t": 145347.63859374993,
      "d": 1126.7600000000093,
      "v": 87
    },
    {
      "midi": 65,
      "hit": false,
      "t": 145347.63859374993,
      "d": 1153.1684375000186,
      "v": 85
    },
    {
      "midi": 62,
      "hit": false,
      "t": 145347.63859374993,
      "d": 1201.5839062500163,
      "v": 110
    },
    {
      "midi": 69,
      "hit": false,
      "t": 146610.84218749995,
      "d": 2007.0412500000384,
      "v": 94
    },
    {
      "midi": 62,
      "hit": false,
      "t": 146610.84218749995,
      "d": 2015.8440625000512,
      "v": 108
    },
    {
      "midi": 58,
      "hit": false,
      "t": 146610.84218749995,
      "d": 2042.2525000000605,
      "v": 100
    },
    {
      "midi": 65,
      "hit": false,
      "t": 148710.31296875002,
      "d": 730.6334375000442,
      "v": 79
    },
    {
      "midi": 57,
      "hit": false,
      "t": 148710.31296875002,
      "d": 757.0418750000536,
      "v": 92
    },
    {
      "midi": 60,
      "hit": false,
      "t": 148710.31296875002,
      "d": 770.2460937500582,
      "v": 111
    },
    {
      "midi": 77,
      "hit": false,
      "t": 149119.64375000005,
      "d": 840.6685937500151,
      "v": 110
    },
    {
      "midi": 60,
      "hit": false,
      "t": 149550.98156250006,
      "d": 783.4503125000047,
      "v": 84
    },
    {
      "midi": 64,
      "hit": false,
      "t": 149550.98156250006,
      "d": 783.4503125000047,
      "v": 71
    },
    {
      "midi": 55,
      "hit": false,
      "t": 149568.58718750006,
      "d": 783.4503125000047,
      "v": 91
    },
    {
      "midi": 72,
      "hit": false,
      "t": 149973.51656250007,
      "d": 862.6756250000035,
      "v": 111
    },
    {
      "midi": 53,
      "hit": false,
      "t": 150413.65718750007,
      "d": 836.2671875000233,
      "v": 73
    },
    {
      "midi": 58,
      "hit": false,
      "t": 150426.86140625007,
      "d": 814.2601562500058,
      "v": 90
    },
    {
      "midi": 62,
      "hit": false,
      "t": 150426.86140625007,
      "d": 823.0629687500186,
      "v": 76
    },
    {
      "midi": 70,
      "hit": false,
      "t": 150849.39640625007,
      "d": 805.4573437500512,
      "v": 103
    },
    {
      "midi": 64,
      "hit": false,
      "t": 151258.7271875001,
      "d": 792.2531250000175,
      "v": 79
    },
    {
      "midi": 60,
      "hit": false,
      "t": 151258.7271875001,
      "d": 796.6545312500093,
      "v": 94
    },
    {
      "midi": 55,
      "hit": false,
      "t": 151258.7271875001,
      "d": 809.858750000014,
      "v": 74
    },
    {
      "midi": 69,
      "hit": false,
      "t": 151681.2621875001,
      "d": 572.1828125000466,
      "v": 98
    },
    {
      "midi": 65,
      "hit": false,
      "t": 152081.79015625012,
      "d": 3349.470156250056,
      "v": 74
    },
    {
      "midi": 57,
      "hit": false,
      "t": 152094.99437500013,
      "d": 3353.8715625000477,
      "v": 106
    },
    {
      "midi": 60,
      "hit": false,
      "t": 152094.99437500013,
      "d": 3353.8715625000477,
      "v": 98
    },
    {
      "midi": 53,
      "hit": false,
      "t": 152094.99437500013,
      "d": 3367.0757812500524,
      "v": 98
    },
    {
      "midi": 41,
      "hit": false,
      "t": 155492.88000000018,
      "d": 1998.2384375000256,
      "v": 106
    },
    {
      "midi": 57,
      "hit": false,
      "t": 155510.48562500018,
      "d": 748.2390625000116,
      "v": 102
    },
    {
      "midi": 60,
      "hit": false,
      "t": 155510.48562500018,
      "d": 950.7037500000151,
      "v": 110
    },
    {
      "midi": 65,
      "hit": false,
      "t": 155510.48562500018,
      "d": 2398.7664062500116,
      "v": 85
    },
    {
      "midi": 57,
      "hit": false,
      "t": 156342.35140625018,
      "d": 1346.8303125000093,
      "v": 91
    },
    {
      "midi": 60,
      "hit": false,
      "t": 156773.6892187502,
      "d": 1170.774062499986,
      "v": 91
    },
    {
      "midi": 41,
      "hit": false,
      "t": 157640.7662500002,
      "d": 343.30968750000466,
      "v": 106
    },
    {
      "midi": 57,
      "hit": false,
      "t": 157825.6253125002,
      "d": 105.63374999997905,
      "v": 71
    },
    {
      "midi": 40,
      "hit": false,
      "t": 158019.2871875002,
      "d": 783.4503125000338,
      "v": 111
    },
    {
      "midi": 60,
      "hit": false,
      "t": 158019.2871875002,
      "d": 796.6545312500384,
      "v": 89
    },
    {
      "midi": 64,
      "hit": false,
      "t": 158028.0900000002,
      "d": 757.0418750000244,
      "v": 81
    },
    {
      "midi": 55,
      "hit": false,
      "t": 158032.4914062502,
      "d": 743.8376562500198,
      "v": 104
    },
    {
      "midi": 57,
      "hit": false,
      "t": 158895.16703125025,
      "d": 673.4151562500047,
      "v": 91
    },
    {
      "midi": 65,
      "hit": false,
      "t": 158895.16703125025,
      "d": 1153.1684374999895,
      "v": 98
    },
    {
      "midi": 38,
      "hit": false,
      "t": 158895.16703125025,
      "d": 1219.1895312499837,
      "v": 115
    },
    {
      "midi": 60,
      "hit": false,
      "t": 158895.16703125025,
      "d": 1219.1895312499837,
      "v": 102
    },
    {
      "midi": 57,
      "hit": false,
      "t": 159727.03281250026,
      "d": 404.929375000007,
      "v": 96
    },
    {
      "midi": 58,
      "hit": false,
      "t": 160123.15937500025,
      "d": 911.0910937500012,
      "v": 88
    },
    {
      "midi": 65,
      "hit": false,
      "t": 160123.15937500025,
      "d": 990.31640625,
      "v": 79
    },
    {
      "midi": 60,
      "hit": false,
      "t": 160123.15937500025,
      "d": 1021.1262500000012,
      "v": 117
    },
    {
      "midi": 46,
      "hit": false,
      "t": 160994.63781250024,
      "d": 695.4221875000221,
      "v": 74
    },
    {
      "midi": 58,
      "hit": false,
      "t": 161175.09546875025,
      "d": 1043.1332812500186,
      "v": 72
    },
    {
      "midi": 60,
      "hit": false,
      "t": 161390.76437500026,
      "d": 818.6615624999977,
      "v": 102
    },
    {
      "midi": 65,
      "hit": false,
      "t": 161588.82765625027,
      "d": 620.598281249986,
      "v": 72
    },
    {
      "midi": 46,
      "hit": false,
      "t": 161830.90500000026,
      "d": 387.3237500000105,
      "v": 88
    },
    {
      "midi": 60,
      "hit": false,
      "t": 162244.63718750028,
      "d": 1065.140312500036,
      "v": 111
    },
    {
      "midi": 57,
      "hit": false,
      "t": 162253.4400000003,
      "d": 911.0910937500012,
      "v": 91
    },
    {
      "midi": 65,
      "hit": false,
      "t": 162253.4400000003,
      "d": 1654.928750000021,
      "v": 92
    },
    {
      "midi": 41,
      "hit": false,
      "t": 162257.84140625029,
      "d": 739.4362500000279,
      "v": 94
    },
    {
      "midi": 41,
      "hit": false,
      "t": 163098.5100000003,
      "d": 809.858750000014,
      "v": 85
    },
    {
      "midi": 57,
      "hit": false,
      "t": 163270.1648437503,
      "d": 655.8095312500081,
      "v": 67
    },
    {
      "midi": 60,
      "hit": false,
      "t": 163499.03796875032,
      "d": 409.33078124999884,
      "v": 98
    },
    {
      "midi": 48,
      "hit": false,
      "t": 163956.7842187503,
      "d": 347.7110937499674,
      "v": 89
    },
    {
      "midi": 64,
      "hit": false,
      "t": 163956.7842187503,
      "d": 686.6193749999802,
      "v": 89
    },
    {
      "midi": 60,
      "hit": false,
      "t": 163956.7842187503,
      "d": 721.8306249999732,
      "v": 106
    },
    {
      "midi": 55,
      "hit": false,
      "t": 163961.1856250003,
      "d": 501.7603124999732,
      "v": 91
    },
    {
      "midi": 48,
      "hit": false,
      "t": 164383.72062500028,
      "d": 1188.3796875000116,
      "v": 79
    },
    {
      "midi": 55,
      "hit": false,
      "t": 164577.3825000003,
      "d": 118.8379687499837,
      "v": 78
    },
    {
      "midi": 55,
      "hit": false,
      "t": 164775.44578125028,
      "d": 360.91531250000116,
      "v": 94
    },
    {
      "midi": 60,
      "hit": false,
      "t": 164775.44578125028,
      "d": 805.4573437500221,
      "v": 92
    },
    {
      "midi": 65,
      "hit": false,
      "t": 164788.65000000029,
      "d": 132.04218750001746,
      "v": 108
    },
    {
      "midi": 64,
      "hit": false,
      "t": 164973.5090625003,
      "d": 598.5912499999977,
      "v": 98
    },
    {
      "midi": 55,
      "hit": false,
      "t": 165255.1990625003,
      "d": 316.90124999999534,
      "v": 79
    },
    {
      "midi": 46,
      "hit": false,
      "t": 165633.7200000003,
      "d": 338.9082812500128,
      "v": 100
    },
    {
      "midi": 65,
      "hit": false,
      "t": 165642.5228125003,
      "d": 514.9645312499779,
      "v": 89
    },
    {
      "midi": 60,
      "hit": false,
      "t": 165642.5228125003,
      "d": 536.9715624999662,
      "v": 100
    },
    {
      "midi": 58,
      "hit": false,
      "t": 165642.5228125003,
      "d": 673.4151562499756,
      "v": 100
    },
    {
      "midi": 46,
      "hit": false,
      "t": 166043.0507812503,
      "d": 1632.9217187499744,
      "v": 55
    },
    {
      "midi": 65,
      "hit": false,
      "t": 166236.71265625028,
      "d": 1852.9920312499162,
      "v": 59
    },
    {
      "midi": 62,
      "hit": false,
      "t": 166245.5154687503,
      "d": 1729.7526562499115,
      "v": 115
    },
    {
      "midi": 58,
      "hit": false,
      "t": 166725.26875000028,
      "d": 1078.3445312499534,
      "v": 72
    },
    {
      "midi": 46,
      "hit": false,
      "t": 167768.40203125024,
      "d": 1210.386718749971,
      "v": 103
    },
    {
      "midi": 58,
      "hit": false,
      "t": 167922.45125000022,
      "d": 286.0914062499942,
      "v": 71
    },
    {
      "midi": 60,
      "hit": false,
      "t": 168133.7187500002,
      "d": 268.4857812499977,
      "v": 100
    },
    {
      "midi": 62,
      "hit": false,
      "t": 168349.3876562502,
      "d": 629.4010937499988,
      "v": 94
    },
    {
      "midi": 66,
      "hit": false,
      "t": 168591.4650000002,
      "d": 48.415468750026776,
      "v": 72
    },
    {
      "midi": 58,
      "hit": false,
      "t": 168600.2678125002,
      "d": 378.5209374999977,
      "v": 111
    },
    {
      "midi": 65,
      "hit": false,
      "t": 168631.0776562502,
      "d": 30.809843750001164,
      "v": 43
    },
    {
      "midi": 41,
      "hit": false,
      "t": 169014.0000000002,
      "d": 1993.8370312500047,
      "v": 106
    },
    {
      "midi": 57,
      "hit": false,
      "t": 169027.2042187502,
      "d": 752.6404687500035,
      "v": 102
    },
    {
      "midi": 60,
      "hit": false,
      "t": 169027.2042187502,
      "d": 955.105156250007,
      "v": 110
    },
    {
      "midi": 65,
      "hit": false,
      "t": 169027.2042187502,
      "d": 2403.1678124999744,
      "v": 85
    },
    {
      "midi": 57,
      "hit": false,
      "t": 169867.87281250022,
      "d": 1346.8303124999802,
      "v": 91
    },
    {
      "midi": 60,
      "hit": false,
      "t": 170299.2106250002,
      "d": 1170.774062499957,
      "v": 91
    },
    {
      "midi": 41,
      "hit": false,
      "t": 171161.8862500002,
      "d": 343.30968749994645,
      "v": 106
    },
    {
      "midi": 57,
      "hit": false,
      "t": 171342.3439062502,
      "d": 110.0351562499709,
      "v": 71
    },
    {
      "midi": 40,
      "hit": false,
      "t": 171540.40718750015,
      "d": 783.4503125000047,
      "v": 111
    },
    {
      "midi": 60,
      "hit": false,
      "t": 171540.40718750015,
      "d": 801.0559375000012,
      "v": 89
    },
    {
      "midi": 64,
      "hit": false,
      "t": 171549.21000000017,
      "d": 752.6404687500035,
      "v": 81
    },
    {
      "midi": 55,
      "hit": false,
      "t": 171553.61140625016,
      "d": 743.8376562500198,
      "v": 104
    },
    {
      "midi": 57,
      "hit": false,
      "t": 172411.88562500014,
      "d": 677.8165624999965,
      "v": 91
    },
    {
      "midi": 65,
      "hit": false,
      "t": 172411.88562500014,
      "d": 1157.5698437499814,
      "v": 98
    },
    {
      "midi": 38,
      "hit": false,
      "t": 172411.88562500014,
      "d": 1223.5909374999756,
      "v": 115
    },
    {
      "midi": 60,
      "hit": false,
      "t": 172411.88562500014,
      "d": 1223.5909374999756,
      "v": 102
    },
    {
      "midi": 57,
      "hit": false,
      "t": 173248.15281250014,
      "d": 400.52796874998603,
      "v": 96
    },
    {
      "midi": 58,
      "hit": false,
      "t": 173648.68078125012,
      "d": 906.6896875000093,
      "v": 88
    },
    {
      "midi": 65,
      "hit": false,
      "t": 173648.68078125012,
      "d": 990.31640625,
      "v": 79
    },
    {
      "midi": 60,
      "hit": false,
      "t": 173648.68078125012,
      "d": 1012.3234374999884,
      "v": 117
    },
    {
      "midi": 46,
      "hit": false,
      "t": 174511.35640625012,
      "d": 699.8235937499558,
      "v": 74
    },
    {
      "midi": 58,
      "hit": false,
      "t": 174696.2154687501,
      "d": 1043.1332812499895,
      "v": 72
    },
    {
      "midi": 60,
      "hit": false,
      "t": 174911.8843750001,
      "d": 818.6615624999686,
      "v": 102
    },
    {
      "midi": 65,
      "hit": false,
      "t": 175109.9476562501,
      "d": 620.598281249986,
      "v": 72
    },
    {
      "midi": 46,
      "hit": false,
      "t": 175352.02500000008,
      "d": 387.3237500000105,
      "v": 88
    },
    {
      "midi": 60,
      "hit": false,
      "t": 175765.7571875001,
      "d": 1065.1403124999779,
      "v": 111
    },
    {
      "midi": 57,
      "hit": false,
      "t": 175774.5600000001,
      "d": 915.492499999993,
      "v": 91
    },
    {
      "midi": 65,
      "hit": false,
      "t": 175774.5600000001,
      "d": 1654.9287499999627,
      "v": 92
    },
    {
      "midi": 41,
      "hit": false,
      "t": 175778.9614062501,
      "d": 739.4362500000279,
      "v": 94
    },
    {
      "midi": 41,
      "hit": false,
      "t": 176619.63000000012,
      "d": 809.8587499999558,
      "v": 85
    },
    {
      "midi": 57,
      "hit": false,
      "t": 176795.6862500001,
      "d": 647.0067187499953,
      "v": 67
    },
    {
      "midi": 60,
      "hit": false,
      "t": 177020.15796875008,
      "d": 409.33078124999884,
      "v": 98
    },
    {
      "midi": 48,
      "hit": false,
      "t": 177473.50281250008,
      "d": 347.7110937500256,
      "v": 89
    },
    {
      "midi": 64,
      "hit": false,
      "t": 177473.50281250008,
      "d": 691.0207812500012,
      "v": 89
    },
    {
      "midi": 60,
      "hit": false,
      "t": 177473.50281250008,
      "d": 726.2320312499942,
      "v": 106
    },
    {
      "midi": 55,
      "hit": false,
      "t": 177482.3056250001,
      "d": 501.7603125000023,
      "v": 91
    },
    {
      "midi": 48,
      "hit": false,
      "t": 177904.8406250001,
      "d": 1192.7810937499744,
      "v": 79
    },
    {
      "midi": 55,
      "hit": false,
      "t": 178098.5025000001,
      "d": 118.8379687499837,
      "v": 78
    },
    {
      "midi": 55,
      "hit": false,
      "t": 178296.56578125007,
      "d": 360.91531249997206,
      "v": 94
    },
    {
      "midi": 60,
      "hit": false,
      "t": 178296.56578125007,
      "d": 805.457343749993,
      "v": 92
    },
    {
      "midi": 65,
      "hit": false,
      "t": 178309.77000000008,
      "d": 127.64078124999651,
      "v": 108
    },
    {
      "midi": 64,
      "hit": false,
      "t": 178490.22765625006,
      "d": 607.3940625000105,
      "v": 98
    },
    {
      "midi": 55,
      "hit": false,
      "t": 178776.31906250006,
      "d": 321.3026562500163,
      "v": 79
    },
    {
      "midi": 46,
      "hit": false,
      "t": 179159.24140625008,
      "d": 334.50687499999185,
      "v": 100
    },
    {
      "midi": 65,
      "hit": false,
      "t": 179163.64281250007,
      "d": 519.3659374999988,
      "v": 89
    },
    {
      "midi": 60,
      "hit": false,
      "t": 179163.64281250007,
      "d": 528.1687500000116,
      "v": 100
    },
    {
      "midi": 58,
      "hit": false,
      "t": 179163.64281250007,
      "d": 673.4151562500047,
      "v": 100
    },
    {
      "midi": 46,
      "hit": false,
      "t": 179564.17078125005,
      "d": 2975.350625000021,
      "v": 55
    },
    {
      "midi": 65,
      "hit": false,
      "t": 179762.2340625001,
      "d": 2777.28734374998,
      "v": 59
    },
    {
      "midi": 62,
      "hit": false,
      "t": 179766.6354687501,
      "d": 2772.8859374999884,
      "v": 115
    },
    {
      "midi": 58,
      "hit": false,
      "t": 180246.38875000007,
      "d": 2293.1326562500035,
      "v": 72
    },
    {
      "midi": 41,
      "hit": false,
      "t": 182381.07078125008,
      "d": 3287.8504687499953,
      "v": 78
    },
    {
      "midi": 43,
      "hit": false,
      "t": 182420.6834375001,
      "d": 3248.2378124999814,
      "v": 67
    },
    {
      "midi": 48,
      "hit": false,
      "t": 182451.4932812501,
      "d": 3217.42796874998,
      "v": 78
    },
    {
      "midi": 53,
      "hit": false,
      "t": 182543.92281250007,
      "d": 3107.3928125000093,
      "v": 64
    },
    {
      "midi": 64,
      "hit": false,
      "t": 185074.73140625007,
      "d": 809.858750000014,
      "v": 92
    },
    {
      "midi": 63,
      "hit": false,
      "t": 185915.40000000008,
      "d": 1161.9712500000314,
      "v": 107
    },
    {
      "midi": 62,
      "hit": false,
      "t": 187169.80078125012,
      "d": 1985.0342187499919,
      "v": 98
    },
    {
      "midi": 41,
      "hit": false,
      "t": 189141.6307812501,
      "d": 2715.667656250065,
      "v": 73
    },
    {
      "midi": 43,
      "hit": false,
      "t": 189220.8560937501,
      "d": 2627.6395312500536,
      "v": 71
    },
    {
      "midi": 48,
      "hit": false,
      "t": 189269.2715625001,
      "d": 2579.224062500056,
      "v": 84
    },
    {
      "midi": 53,
      "hit": false,
      "t": 189344.0954687501,
      "d": 2504.400156250049,
      "v": 89
    },
    {
      "midi": 65,
      "hit": false,
      "t": 190162.75703125013,
      "d": 444.54203124999185,
      "v": 104
    },
    {
      "midi": 64,
      "hit": false,
      "t": 190620.50328125013,
      "d": 765.8446875000081,
      "v": 106
    },
    {
      "midi": 60,
      "hit": false,
      "t": 191425.96062500015,
      "d": 757.0418749999953,
      "v": 96
    },
    {
      "midi": 48,
      "hit": false,
      "t": 192222.61515625016,
      "d": 242.07734375001746,
      "v": 85
    },
    {
      "midi": 50,
      "hit": false,
      "t": 192433.88265625018,
      "d": 224.47171875002095,
      "v": 87
    },
    {
      "midi": 51,
      "hit": false,
      "t": 192658.3543750002,
      "d": 1043.1332812500186,
      "v": 109
    },
    {
      "midi": 50,
      "hit": false,
      "t": 193917.1565625002,
      "d": 1258.8021875000268,
      "v": 115
    },
    {
      "midi": 46,
      "hit": false,
      "t": 195189.16296875023,
      "d": 836.2671874999942,
      "v": 113
    },
    {
      "midi": 65,
      "hit": false,
      "t": 196056.24000000022,
      "d": 1166.3726562500233,
      "v": 94
    },
    {
      "midi": 60,
      "hit": false,
      "t": 196456.76796875024,
      "d": 792.2531250000175,
      "v": 85
    },
    {
      "midi": 53,
      "hit": false,
      "t": 196888.10578125023,
      "d": 1069.541718750028,
      "v": 84
    },
    {
      "midi": 64,
      "hit": false,
      "t": 197297.43656250025,
      "d": 1183.9782812499907,
      "v": 92
    },
    {
      "midi": 60,
      "hit": false,
      "t": 197728.77437500027,
      "d": 783.4503124999756,
      "v": 71
    },
    {
      "midi": 53,
      "hit": false,
      "t": 198168.91500000024,
      "d": 633.8024999999907,
      "v": 85
    },
    {
      "midi": 62,
      "hit": false,
      "t": 198591.45000000024,
      "d": 818.6615624999686,
      "v": 87
    },
    {
      "midi": 53,
      "hit": false,
      "t": 199005.1821875002,
      "d": 431.3378125000163,
      "v": 89
    },
    {
      "midi": 60,
      "hit": false,
      "t": 199427.7171875002,
      "d": 1214.788125000021,
      "v": 106
    },
    {
      "midi": 57,
      "hit": false,
      "t": 199859.05500000023,
      "d": 880.28125,
      "v": 89
    },
    {
      "midi": 53,
      "hit": false,
      "t": 200268.38578125022,
      "d": 479.75328125001397,
      "v": 84
    },
    {
      "midi": 60,
      "hit": false,
      "t": 200721.73062500023,
      "d": 2068.6609375000116,
      "v": 87
    },
    {
      "midi": 55,
      "hit": false,
      "t": 201549.19500000024,
      "d": 642.6053125000035,
      "v": 87
    },
    {
      "midi": 52,
      "hit": false,
      "t": 201954.12437500025,
      "d": 836.2671874999942,
      "v": 75
    },
    {
      "midi": 55,
      "hit": false,
      "t": 202385.46218750026,
      "d": 369.71812499998487,
      "v": 78
    },
    {
      "midi": 65,
      "hit": false,
      "t": 202816.80000000025,
      "d": 1170.7740625000151,
      "v": 94
    },
    {
      "midi": 60,
      "hit": false,
      "t": 203221.72937500026,
      "d": 787.8517187499965,
      "v": 85
    },
    {
      "midi": 53,
      "hit": false,
      "t": 203653.06718750024,
      "d": 1065.140312500007,
      "v": 84
    },
    {
      "midi": 64,
      "hit": false,
      "t": 204053.59515625026,
      "d": 1179.5768749999697,
      "v": 92
    },
    {
      "midi": 60,
      "hit": false,
      "t": 204489.33437500027,
      "d": 779.0489062499546,
      "v": 71
    },
    {
      "midi": 53,
      "hit": false,
      "t": 204929.47500000024,
      "d": 633.8024999999616,
      "v": 85
    },
    {
      "midi": 62,
      "hit": false,
      "t": 205352.0100000002,
      "d": 814.2601562499767,
      "v": 87
    },
    {
      "midi": 53,
      "hit": false,
      "t": 205761.34078125018,
      "d": 444.54203124999185,
      "v": 89
    },
    {
      "midi": 60,
      "hit": false,
      "t": 206188.27718750018,
      "d": 4.401406249991851,
      "v": 106
    },
    {
      "midi": 57,
      "hit": false,
      "t": 206197.08000000016,
      "d": 774.647500000021,
      "v": 71
    },
    {
      "midi": 60,
      "hit": false,
      "t": 206197.08000000016,
      "d": 774.647500000021,
      "v": 71
    },
    {
      "midi": 65,
      "hit": false,
      "t": 206205.88281250017,
      "d": 765.8446875000081,
      "v": 71
    },
    {
      "midi": 77,
      "hit": false,
      "t": 206584.40375000017,
      "d": 840.6685937500151,
      "v": 110
    },
    {
      "midi": 60,
      "hit": false,
      "t": 207011.3401562502,
      "d": 787.8517187499965,
      "v": 84
    },
    {
      "midi": 64,
      "hit": false,
      "t": 207011.3401562502,
      "d": 787.8517187499965,
      "v": 71
    },
    {
      "midi": 55,
      "hit": false,
      "t": 207033.34718750019,
      "d": 779.0489062500128,
      "v": 91
    },
    {
      "midi": 72,
      "hit": false,
      "t": 207438.2765625002,
      "d": 862.6756250000035,
      "v": 111
    },
    {
      "midi": 53,
      "hit": false,
      "t": 207878.4171875002,
      "d": 836.2671875000233,
      "v": 73
    },
    {
      "midi": 58,
      "hit": false,
      "t": 207887.2200000002,
      "d": 818.6615624999977,
      "v": 90
    },
    {
      "midi": 62,
      "hit": false,
      "t": 207887.2200000002,
      "d": 827.4643750000105,
      "v": 76
    },
    {
      "midi": 70,
      "hit": false,
      "t": 208314.1564062502,
      "d": 801.0559375000303,
      "v": 103
    },
    {
      "midi": 64,
      "hit": false,
      "t": 208723.48718750023,
      "d": 787.8517187499965,
      "v": 79
    },
    {
      "midi": 60,
      "hit": false,
      "t": 208723.48718750023,
      "d": 801.0559375000012,
      "v": 94
    },
    {
      "midi": 55,
      "hit": false,
      "t": 208723.48718750023,
      "d": 805.457343749993,
      "v": 74
    },
    {
      "midi": 69,
      "hit": false,
      "t": 209141.62078125024,
      "d": 576.5842187500093,
      "v": 98
    },
    {
      "midi": 65,
      "hit": false,
      "t": 209546.55015625022,
      "d": 3345.068750000064,
      "v": 74
    },
    {
      "midi": 57,
      "hit": false,
      "t": 209555.35296875023,
      "d": 3353.8715625000477,
      "v": 106
    },
    {
      "midi": 60,
      "hit": false,
      "t": 209555.35296875023,
      "d": 3353.8715625000477,
      "v": 98
    },
    {
      "midi": 53,
      "hit": false,
      "t": 209555.35296875023,
      "d": 3375.878593750036,
      "v": 98
    },
    {
      "midi": 41,
      "hit": false,
      "t": 212957.64000000028,
      "d": 1998.2384375000256,
      "v": 106
    },
    {
      "midi": 57,
      "hit": false,
      "t": 212975.24562500027,
      "d": 743.8376562500198,
      "v": 102
    },
    {
      "midi": 60,
      "hit": false,
      "t": 212975.24562500027,
      "d": 950.7037500000151,
      "v": 110
    },
    {
      "midi": 65,
      "hit": false,
      "t": 212975.24562500027,
      "d": 2403.1678125000326,
      "v": 85
    },
    {
      "midi": 57,
      "hit": false,
      "t": 213811.5128125003,
      "d": 1342.4289062499884,
      "v": 91
    },
    {
      "midi": 60,
      "hit": false,
      "t": 214242.85062500028,
      "d": 1166.3726562500233,
      "v": 91
    },
    {
      "midi": 41,
      "hit": false,
      "t": 215105.5262500003,
      "d": 343.30968750003376,
      "v": 106
    },
    {
      "midi": 57,
      "hit": false,
      "t": 215285.9839062503,
      "d": 110.03515625,
      "v": 71
    },
    {
      "midi": 40,
      "hit": false,
      "t": 215484.0471875003,
      "d": 783.4503125000338,
      "v": 111
    },
    {
      "midi": 60,
      "hit": false,
      "t": 215484.0471875003,
      "d": 796.6545312500384,
      "v": 89
    },
    {
      "midi": 64,
      "hit": false,
      "t": 215492.85000000033,
      "d": 757.0418750000244,
      "v": 81
    },
    {
      "midi": 55,
      "hit": false,
      "t": 215501.65281250034,
      "d": 739.4362499999988,
      "v": 104
    },
    {
      "midi": 57,
      "hit": false,
      "t": 216355.52562500036,
      "d": 673.4151562500047,
      "v": 91
    },
    {
      "midi": 65,
      "hit": false,
      "t": 216355.52562500036,
      "d": 1157.5698437500105,
      "v": 98
    },
    {
      "midi": 38,
      "hit": false,
      "t": 216355.52562500036,
      "d": 1223.5909375000047,
      "v": 115
    },
    {
      "midi": 60,
      "hit": false,
      "t": 216355.52562500036,
      "d": 1223.5909375000047,
      "v": 102
    },
    {
      "midi": 57,
      "hit": false,
      "t": 217187.39140625036,
      "d": 400.52796875001513,
      "v": 96
    },
    {
      "midi": 58,
      "hit": false,
      "t": 217587.91937500038,
      "d": 911.0910937500012,
      "v": 88
    },
    {
      "midi": 65,
      "hit": false,
      "t": 217587.91937500038,
      "d": 990.31640625,
      "v": 79
    },
    {
      "midi": 60,
      "hit": false,
      "t": 217587.91937500038,
      "d": 1021.1262500000012,
      "v": 117
    },
    {
      "midi": 46,
      "hit": false,
      "t": 218459.39781250036,
      "d": 691.0207812500303,
      "v": 74
    },
    {
      "midi": 58,
      "hit": false,
      "t": 218639.85546875038,
      "d": 1043.1332812500186,
      "v": 72
    },
    {
      "midi": 60,
      "hit": false,
      "t": 218851.12296875037,
      "d": 823.0629687500186,
      "v": 102
    },
    {
      "midi": 65,
      "hit": false,
      "t": 219053.5876562504,
      "d": 620.598281249986,
      "v": 72
    },
    {
      "midi": 46,
      "hit": false,
      "t": 219295.6650000004,
      "d": 387.3237500000105,
      "v": 88
    },
    {
      "midi": 60,
      "hit": false,
      "t": 219709.3971875004,
      "d": 1065.140312500036,
      "v": 111
    },
    {
      "midi": 57,
      "hit": false,
      "t": 219718.20000000042,
      "d": 911.0910937500012,
      "v": 91
    },
    {
      "midi": 65,
      "hit": false,
      "t": 219718.20000000042,
      "d": 1659.3301562500128,
      "v": 92
    },
    {
      "midi": 41,
      "hit": false,
      "t": 219722.6014062504,
      "d": 743.8376562500198,
      "v": 94
    },
    {
      "midi": 41,
      "hit": false,
      "t": 220563.27000000043,
      "d": 814.2601562500058,
      "v": 85
    },
    {
      "midi": 57,
      "hit": false,
      "t": 220734.92484375043,
      "d": 651.4081250000163,
      "v": 67
    },
    {
      "midi": 60,
      "hit": false,
      "t": 220963.79796875044,
      "d": 413.7321874999907,
      "v": 98
    },
    {
      "midi": 48,
      "hit": false,
      "t": 221417.14281250045,
      "d": 347.7110937499965,
      "v": 89
    },
    {
      "midi": 64,
      "hit": false,
      "t": 221417.14281250045,
      "d": 691.0207812499721,
      "v": 89
    },
    {
      "midi": 60,
      "hit": false,
      "t": 221417.14281250045,
      "d": 730.633437499986,
      "v": 106
    },
    {
      "midi": 55,
      "hit": false,
      "t": 221421.54421875044,
      "d": 506.1617187499942,
      "v": 91
    },
    {
      "midi": 48,
      "hit": false,
      "t": 221848.48062500043,
      "d": 1188.3796874999825,
      "v": 79
    },
    {
      "midi": 55,
      "hit": false,
      "t": 222042.14250000042,
      "d": 118.8379687500128,
      "v": 78
    },
    {
      "midi": 55,
      "hit": false,
      "t": 222240.20578125044,
      "d": 360.91531249997206,
      "v": 94
    },
    {
      "midi": 60,
      "hit": false,
      "t": 222240.20578125044,
      "d": 801.0559374999721,
      "v": 92
    },
    {
      "midi": 65,
      "hit": false,
      "t": 222253.41000000044,
      "d": 127.64078124999651,
      "v": 108
    },
    {
      "midi": 64,
      "hit": false,
      "t": 222433.86765625043,
      "d": 602.9926562499895,
      "v": 98
    },
    {
      "midi": 55,
      "hit": false,
      "t": 222715.55765625043,
      "d": 321.3026562499872,
      "v": 79
    },
    {
      "midi": 46,
      "hit": false,
      "t": 223098.48000000042,
      "d": 338.9082812500128,
      "v": 100
    },
    {
      "midi": 65,
      "hit": false,
      "t": 223107.28281250043,
      "d": 519.3659375000279,
      "v": 89
    },
    {
      "midi": 60,
      "hit": false,
      "t": 223107.28281250043,
      "d": 532.5701562500326,
      "v": 100
    },
    {
      "midi": 58,
      "hit": false,
      "t": 223107.28281250043,
      "d": 673.4151562500338,
      "v": 100
    },
    {
      "midi": 46,
      "hit": false,
      "t": 223512.21218750044,
      "d": 1624.1189062500198,
      "v": 55
    },
    {
      "midi": 65,
      "hit": false,
      "t": 223701.47265625047,
      "d": 1848.5906249999825,
      "v": 59
    },
    {
      "midi": 62,
      "hit": false,
      "t": 223710.27546875048,
      "d": 1725.3512499999488,
      "v": 115
    },
    {
      "midi": 58,
      "hit": false,
      "t": 224190.02875000046,
      "d": 1078.3445312499825,
      "v": 72
    },
    {
      "midi": 46,
      "hit": false,
      "t": 225233.16203125045,
      "d": 1210.38671875,
      "v": 103
    },
    {
      "midi": 58,
      "hit": false,
      "t": 225382.80984375044,
      "d": 294.8942187500361,
      "v": 71
    },
    {
      "midi": 60,
      "hit": false,
      "t": 225594.07734375045,
      "d": 272.8871875000186,
      "v": 100
    },
    {
      "midi": 62,
      "hit": false,
      "t": 225814.14765625048,
      "d": 629.4010937499697,
      "v": 94
    },
    {
      "midi": 66,
      "hit": false,
      "t": 226056.22500000047,
      "d": 48.41546874999767,
      "v": 72
    },
    {
      "midi": 58,
      "hit": false,
      "t": 226060.62640625046,
      "d": 382.9223437499895,
      "v": 111
    },
    {
      "midi": 65,
      "hit": false,
      "t": 226095.83765625046,
      "d": 30.809843750001164,
      "v": 43
    },
    {
      "midi": 41,
      "hit": false,
      "t": 226478.76000000045,
      "d": 1998.2384375000256,
      "v": 106
    },
    {
      "midi": 57,
      "hit": false,
      "t": 226496.36562500044,
      "d": 748.2390625000116,
      "v": 102
    },
    {
      "midi": 60,
      "hit": false,
      "t": 226496.36562500044,
      "d": 946.3023437500233,
      "v": 110
    },
    {
      "midi": 65,
      "hit": false,
      "t": 226496.36562500044,
      "d": 2403.1678125000326,
      "v": 85
    },
    {
      "midi": 57,
      "hit": false,
      "t": 227332.63281250047,
      "d": 1346.8303125000093,
      "v": 91
    },
    {
      "midi": 60,
      "hit": false,
      "t": 227763.97062500045,
      "d": 1166.3726562500233,
      "v": 91
    },
    {
      "midi": 41,
      "hit": false,
      "t": 228622.24484375046,
      "d": 347.7110937500256,
      "v": 106
    },
    {
      "midi": 57,
      "hit": false,
      "t": 228807.10390625047,
      "d": 110.03515625,
      "v": 71
    },
    {
      "midi": 40,
      "hit": false,
      "t": 229005.16718750048,
      "d": 783.4503125000338,
      "v": 111
    },
    {
      "midi": 60,
      "hit": false,
      "t": 229005.16718750048,
      "d": 801.0559375000303,
      "v": 89
    },
    {
      "midi": 64,
      "hit": false,
      "t": 229013.9700000005,
      "d": 757.0418750000244,
      "v": 81
    },
    {
      "midi": 55,
      "hit": false,
      "t": 229018.3714062505,
      "d": 743.8376562500198,
      "v": 104
    },
    {
      "midi": 57,
      "hit": false,
      "t": 229876.6456250005,
      "d": 673.4151562500338,
      "v": 91
    },
    {
      "midi": 65,
      "hit": false,
      "t": 229876.6456250005,
      "d": 1157.5698437500105,
      "v": 98
    },
    {
      "midi": 38,
      "hit": false,
      "t": 229876.6456250005,
      "d": 1223.5909375000047,
      "v": 115
    },
    {
      "midi": 60,
      "hit": false,
      "t": 229876.6456250005,
      "d": 1223.5909375000047,
      "v": 102
    },
    {
      "midi": 57,
      "hit": false,
      "t": 230712.91281250052,
      "d": 400.52796874998603,
      "v": 96
    },
    {
      "midi": 58,
      "hit": false,
      "t": 231113.4407812505,
      "d": 906.6896875000093,
      "v": 88
    },
    {
      "midi": 65,
      "hit": false,
      "t": 231113.4407812505,
      "d": 985.9150000000081,
      "v": 79
    },
    {
      "midi": 60,
      "hit": false,
      "t": 231113.4407812505,
      "d": 1021.1262500000012,
      "v": 117
    },
    {
      "midi": 46,
      "hit": false,
      "t": 231980.5178125005,
      "d": 695.4221875000221,
      "v": 74
    },
    {
      "midi": 58,
      "hit": false,
      "t": 232160.97546875052,
      "d": 1043.1332812500186,
      "v": 72
    },
    {
      "midi": 60,
      "hit": false,
      "t": 232372.2429687505,
      "d": 823.0629687500186,
      "v": 102
    },
    {
      "midi": 65,
      "hit": false,
      "t": 232579.10906250053,
      "d": 616.1968749999942,
      "v": 72
    },
    {
      "midi": 46,
      "hit": false,
      "t": 232816.78500000053,
      "d": 387.3237500000105,
      "v": 88
    },
    {
      "midi": 60,
      "hit": false,
      "t": 233230.51718750055,
      "d": 1065.140312500007,
      "v": 111
    },
    {
      "midi": 57,
      "hit": false,
      "t": 233239.32000000056,
      "d": 911.0910937500012,
      "v": 91
    },
    {
      "midi": 65,
      "hit": false,
      "t": 233239.32000000056,
      "d": 1659.3301562499837,
      "v": 92
    },
    {
      "midi": 41,
      "hit": false,
      "t": 233243.72140625055,
      "d": 739.4362500000279,
      "v": 94
    },
    {
      "midi": 41,
      "hit": false,
      "t": 234084.39000000057,
      "d": 814.2601562499767,
      "v": 85
    },
    {
      "midi": 57,
      "hit": false,
      "t": 234260.44625000056,
      "d": 651.4081249999872,
      "v": 67
    },
    {
      "midi": 60,
      "hit": false,
      "t": 234489.31937500054,
      "d": 409.33078124999884,
      "v": 98
    },
    {
      "midi": 48,
      "hit": false,
      "t": 234938.26281250056,
      "d": 352.11249999998836,
      "v": 89
    },
    {
      "midi": 64,
      "hit": false,
      "t": 234938.26281250056,
      "d": 695.422187499993,
      "v": 89
    },
    {
      "midi": 60,
      "hit": false,
      "t": 234938.26281250056,
      "d": 730.633437499986,
      "v": 106
    },
    {
      "midi": 55,
      "hit": false,
      "t": 234942.66421875055,
      "d": 501.7603125000023,
      "v": 91
    },
    {
      "midi": 48,
      "hit": false,
      "t": 235365.19921875055,
      "d": 1192.7810937499744,
      "v": 79
    },
    {
      "midi": 55,
      "hit": false,
      "t": 235563.26250000056,
      "d": 118.8379687499837,
      "v": 78
    },
    {
      "midi": 55,
      "hit": false,
      "t": 235761.32578125055,
      "d": 365.316718749993,
      "v": 94
    },
    {
      "midi": 60,
      "hit": false,
      "t": 235761.32578125055,
      "d": 805.457343749993,
      "v": 92
    },
    {
      "midi": 65,
      "hit": false,
      "t": 235774.53000000055,
      "d": 127.64078124999651,
      "v": 108
    },
    {
      "midi": 64,
      "hit": false,
      "t": 235954.98765625054,
      "d": 602.9926562499895,
      "v": 98
    },
    {
      "midi": 55,
      "hit": false,
      "t": 236236.67765625054,
      "d": 321.3026562499872,
      "v": 79
    },
    {
      "midi": 46,
      "hit": false,
      "t": 236624.00140625055,
      "d": 334.50687500002095,
      "v": 100
    },
    {
      "midi": 65,
      "hit": false,
      "t": 236632.80421875056,
      "d": 510.56312499998603,
      "v": 89
    },
    {
      "midi": 60,
      "hit": false,
      "t": 236632.80421875056,
      "d": 532.5701562499744,
      "v": 100
    },
    {
      "midi": 58,
      "hit": false,
      "t": 236632.80421875056,
      "d": 673.4151562500047,
      "v": 100
    },
    {
      "midi": 46,
      "hit": false,
      "t": 237028.93078125056,
      "d": 2984.1534375000338,
      "v": 55
    },
    {
      "midi": 65,
      "hit": false,
      "t": 237226.99406250057,
      "d": 2786.090156250022,
      "v": 59
    },
    {
      "midi": 62,
      "hit": false,
      "t": 237235.79687500058,
      "d": 2777.2873437500093,
      "v": 115
    },
    {
      "midi": 58,
      "hit": false,
      "t": 237706.74734375058,
      "d": 2306.336875000008,
      "v": 72
    },
    {
      "midi": 41,
      "hit": false,
      "t": 239999.8800000006,
      "d": 1993.8370312500338,
      "v": 106
    },
    {
      "midi": 57,
      "hit": false,
      "t": 240017.48562500058,
      "d": 748.2390625000116,
      "v": 102
    },
    {
      "midi": 60,
      "hit": false,
      "t": 240017.48562500058,
      "d": 950.7037500000151,
      "v": 110
    },
    {
      "midi": 65,
      "hit": false,
      "t": 240017.48562500058,
      "d": 2403.1678125000617,
      "v": 85
    },
    {
      "midi": 57,
      "hit": false,
      "t": 240853.7528125006,
      "d": 1342.4289062500175,
      "v": 91
    },
    {
      "midi": 60,
      "hit": false,
      "t": 241285.0906250006,
      "d": 1170.7740625000442,
      "v": 91
    },
    {
      "midi": 41,
      "hit": false,
      "t": 242147.76625000063,
      "d": 343.30968750000466,
      "v": 106
    },
    {
      "midi": 57,
      "hit": false,
      "t": 242328.22390625064,
      "d": 105.63375000000815,
      "v": 71
    },
    {
      "midi": 40,
      "hit": false,
      "t": 242521.88578125063,
      "d": 787.8517187499965,
      "v": 111
    },
    {
      "midi": 60,
      "hit": false,
      "t": 242521.88578125063,
      "d": 805.457343749993,
      "v": 89
    },
    {
      "midi": 64,
      "hit": false,
      "t": 242535.09000000064,
      "d": 752.6404687500035,
      "v": 81
    },
    {
      "midi": 55,
      "hit": false,
      "t": 242539.49140625063,
      "d": 743.8376562500198,
      "v": 104
    },
    {
      "midi": 57,
      "hit": false,
      "t": 243397.7656250006,
      "d": 673.4151562500047,
      "v": 91
    },
    {
      "midi": 65,
      "hit": false,
      "t": 243397.7656250006,
      "d": 1161.9712500000314,
      "v": 98
    },
    {
      "midi": 38,
      "hit": false,
      "t": 243397.7656250006,
      "d": 1223.5909375000338,
      "v": 115
    },
    {
      "midi": 60,
      "hit": false,
      "t": 243397.7656250006,
      "d": 1223.5909375000338,
      "v": 102
    },
    {
      "midi": 57,
      "hit": false,
      "t": 244229.6314062506,
      "d": 404.9293750000361,
      "v": 96
    },
    {
      "midi": 58,
      "hit": false,
      "t": 244634.56078125065,
      "d": 906.6896875000093,
      "v": 88
    },
    {
      "midi": 65,
      "hit": false,
      "t": 244634.56078125065,
      "d": 985.9150000000081,
      "v": 79
    },
    {
      "midi": 60,
      "hit": false,
      "t": 244634.56078125065,
      "d": 1016.7248437500093,
      "v": 117
    },
    {
      "midi": 46,
      "hit": false,
      "t": 245497.23640625065,
      "d": 695.422187499993,
      "v": 74
    },
    {
      "midi": 58,
      "hit": false,
      "t": 245682.09546875066,
      "d": 1043.1332812499895,
      "v": 72
    },
    {
      "midi": 60,
      "hit": false,
      "t": 245893.36296875065,
      "d": 823.0629687499895,
      "v": 102
    },
    {
      "midi": 65,
      "hit": false,
      "t": 246100.22906250064,
      "d": 616.1968749999942,
      "v": 72
    },
    {
      "midi": 46,
      "hit": false,
      "t": 246337.90500000064,
      "d": 387.3237500000105,
      "v": 88
    },
    {
      "midi": 60,
      "hit": false,
      "t": 246751.63718750066,
      "d": 1065.140312500007,
      "v": 111
    },
    {
      "midi": 57,
      "hit": false,
      "t": 246760.44000000067,
      "d": 915.492499999993,
      "v": 91
    },
    {
      "midi": 65,
      "hit": false,
      "t": 246760.44000000067,
      "d": 1654.9287499999919,
      "v": 92
    },
    {
      "midi": 41,
      "hit": false,
      "t": 246764.84140625066,
      "d": 739.4362500000279,
      "v": 94
    },
    {
      "midi": 41,
      "hit": false,
      "t": 247605.51000000068,
      "d": 809.8587499999849,
      "v": 85
    },
    {
      "midi": 57,
      "hit": false,
      "t": 247777.16484375065,
      "d": 655.8095312500081,
      "v": 67
    },
    {
      "midi": 60,
      "hit": false,
      "t": 248010.43937500066,
      "d": 404.929375000007,
      "v": 98
    },
    {
      "midi": 48,
      "hit": false,
      "t": 248459.38281250067,
      "d": 352.11249999998836,
      "v": 89
    },
    {
      "midi": 64,
      "hit": false,
      "t": 248459.38281250067,
      "d": 691.0207812500012,
      "v": 89
    },
    {
      "midi": 60,
      "hit": false,
      "t": 248459.38281250067,
      "d": 730.6334375000151,
      "v": 106
    },
    {
      "midi": 55,
      "hit": false,
      "t": 248463.78421875066,
      "d": 506.1617187499942,
      "v": 91
    },
    {
      "midi": 48,
      "hit": false,
      "t": 248890.72062500066,
      "d": 1188.3796874999825,
      "v": 79
    },
    {
      "midi": 55,
      "hit": false,
      "t": 249084.38250000068,
      "d": 123.23937500000466,
      "v": 78
    },
    {
      "midi": 55,
      "hit": false,
      "t": 249282.44578125066,
      "d": 360.91531249997206,
      "v": 94
    },
    {
      "midi": 60,
      "hit": false,
      "t": 249282.44578125066,
      "d": 805.457343749993,
      "v": 92
    },
    {
      "midi": 65,
      "hit": false,
      "t": 249295.65000000066,
      "d": 127.64078124999651,
      "v": 108
    },
    {
      "midi": 64,
      "hit": false,
      "t": 249476.10765625065,
      "d": 602.9926562499895,
      "v": 98
    },
    {
      "midi": 55,
      "hit": false,
      "t": 249757.79765625065,
      "d": 321.3026562499872,
      "v": 79
    },
    {
      "midi": 46,
      "hit": false,
      "t": 250140.72000000064,
      "d": 343.30968750000466,
      "v": 100
    },
    {
      "midi": 65,
      "hit": false,
      "t": 250149.52281250065,
      "d": 519.3659374999988,
      "v": 89
    },
    {
      "midi": 60,
      "hit": false,
      "t": 250149.52281250065,
      "d": 532.5701562500035,
      "v": 100
    },
    {
      "midi": 58,
      "hit": false,
      "t": 250149.52281250065,
      "d": 677.8165624999965,
      "v": 100
    },
    {
      "midi": 46,
      "hit": false,
      "t": 250550.05078125064,
      "d": 1628.5203125000116,
      "v": 55
    },
    {
      "midi": 65,
      "hit": false,
      "t": 250743.71265625066,
      "d": 1852.9920312500035,
      "v": 59
    },
    {
      "midi": 62,
      "hit": false,
      "t": 250756.91687500066,
      "d": 1725.351250000007,
      "v": 115
    },
    {
      "midi": 58,
      "hit": false,
      "t": 251232.26875000066,
      "d": 1082.7459375000035,
      "v": 72
    },
    {
      "midi": 46,
      "hit": false,
      "t": 252275.40203125065,
      "d": 1210.3867187500582,
      "v": 103
    },
    {
      "midi": 58,
      "hit": false,
      "t": 252429.45125000068,
      "d": 290.49281249998603,
      "v": 71
    },
    {
      "midi": 60,
      "hit": false,
      "t": 252640.71875000067,
      "d": 272.8871875000186,
      "v": 100
    },
    {
      "midi": 62,
      "hit": false,
      "t": 252856.38765625068,
      "d": 629.4010937500279,
      "v": 94
    },
    {
      "midi": 66,
      "hit": false,
      "t": 253098.4650000007,
      "d": 52.81687500001863,
      "v": 72
    },
    {
      "midi": 58,
      "hit": false,
      "t": 253102.8664062507,
      "d": 382.9223437500186,
      "v": 111
    },
    {
      "midi": 65,
      "hit": false,
      "t": 253142.4790625007,
      "d": 26.408437500009313,
      "v": 43
    },
    {
      "midi": 41,
      "hit": false,
      "t": 253521.0000000007,
      "d": 1993.8370312500047,
      "v": 106
    },
    {
      "midi": 57,
      "hit": false,
      "t": 253538.6056250007,
      "d": 748.2390625000116,
      "v": 102
    },
    {
      "midi": 60,
      "hit": false,
      "t": 253538.6056250007,
      "d": 946.3023437500233,
      "v": 110
    },
    {
      "midi": 65,
      "hit": false,
      "t": 253538.6056250007,
      "d": 2403.1678125000326,
      "v": 85
    },
    {
      "midi": 57,
      "hit": false,
      "t": 254379.2742187507,
      "d": 1338.0274999999965,
      "v": 91
    },
    {
      "midi": 60,
      "hit": false,
      "t": 254806.2106250007,
      "d": 1166.3726562500233,
      "v": 91
    },
    {
      "midi": 41,
      "hit": false,
      "t": 255668.8862500007,
      "d": 343.30968750003376,
      "v": 106
    },
    {
      "midi": 57,
      "hit": false,
      "t": 255853.74531250072,
      "d": 105.63375000000815,
      "v": 71
    },
    {
      "midi": 40,
      "hit": false,
      "t": 256043.00578125074,
      "d": 787.8517187500256,
      "v": 111
    },
    {
      "midi": 60,
      "hit": false,
      "t": 256043.00578125074,
      "d": 805.4573437500221,
      "v": 89
    },
    {
      "midi": 64,
      "hit": false,
      "t": 256056.21000000075,
      "d": 752.6404687500326,
      "v": 81
    },
    {
      "midi": 55,
      "hit": false,
      "t": 256060.61140625074,
      "d": 739.4362500000279,
      "v": 104
    },
    {
      "midi": 57,
      "hit": false,
      "t": 256918.88562500075,
      "d": 673.4151562499756,
      "v": 91
    },
    {
      "midi": 65,
      "hit": false,
      "t": 256918.88562500075,
      "d": 1157.5698437499523,
      "v": 98
    },
    {
      "midi": 38,
      "hit": false,
      "t": 256918.88562500075,
      "d": 1223.5909374999464,
      "v": 115
    },
    {
      "midi": 60,
      "hit": false,
      "t": 256918.88562500075,
      "d": 1223.5909374999464,
      "v": 102
    },
    {
      "midi": 57,
      "hit": false,
      "t": 257750.75140625073,
      "d": 404.9293749999779,
      "v": 96
    },
    {
      "midi": 58,
      "hit": false,
      "t": 258155.6807812507,
      "d": 906.6896874999511,
      "v": 88
    },
    {
      "midi": 65,
      "hit": false,
      "t": 258155.6807812507,
      "d": 985.9149999999499,
      "v": 79
    },
    {
      "midi": 60,
      "hit": false,
      "t": 258155.6807812507,
      "d": 1016.7248437499511,
      "v": 117
    },
    {
      "midi": 46,
      "hit": false,
      "t": 259018.35640625065,
      "d": 695.4221875000221,
      "v": 74
    },
    {
      "midi": 58,
      "hit": false,
      "t": 259203.21546875066,
      "d": 1043.1332812500186,
      "v": 72
    },
    {
      "midi": 60,
      "hit": false,
      "t": 259418.88437500066,
      "d": 818.6615624999977,
      "v": 102
    },
    {
      "midi": 65,
      "hit": false,
      "t": 259616.94765625068,
      "d": 620.598281249986,
      "v": 72
    },
    {
      "midi": 46,
      "hit": false,
      "t": 259859.02500000066,
      "d": 387.3237500000105,
      "v": 88
    },
    {
      "midi": 60,
      "hit": false,
      "t": 260272.75718750068,
      "d": 1065.1403124999779,
      "v": 111
    },
    {
      "midi": 57,
      "hit": false,
      "t": 260281.5600000007,
      "d": 915.492499999993,
      "v": 91
    },
    {
      "midi": 65,
      "hit": false,
      "t": 260281.5600000007,
      "d": 1659.3301562499546,
      "v": 92
    },
    {
      "midi": 41,
      "hit": false,
      "t": 260285.9614062507,
      "d": 743.8376562500198,
      "v": 94
    },
    {
      "midi": 41,
      "hit": false,
      "t": 261131.0314062507,
      "d": 809.8587499999558,
      "v": 85
    },
    {
      "midi": 57,
      "hit": false,
      "t": 261302.68625000067,
      "d": 647.0067187499953,
      "v": 67
    },
    {
      "midi": 60,
      "hit": false,
      "t": 261531.55937500065,
      "d": 404.929375000007,
      "v": 98
    },
    {
      "midi": 48,
      "hit": false,
      "t": 261980.50281250066,
      "d": 347.7110937500547,
      "v": 89
    },
    {
      "midi": 64,
      "hit": false,
      "t": 261980.50281250066,
      "d": 691.0207812501176,
      "v": 89
    },
    {
      "midi": 60,
      "hit": false,
      "t": 261980.50281250066,
      "d": 730.6334375001315,
      "v": 106
    },
    {
      "midi": 55,
      "hit": false,
      "t": 261989.30562500068,
      "d": 497.3589062500978,
      "v": 91
    },
    {
      "midi": 48,
      "hit": false,
      "t": 262407.43921875075,
      "d": 1192.7810937500326,
      "v": 79
    },
    {
      "midi": 55,
      "hit": false,
      "t": 262601.1010937508,
      "d": 123.23937500000466,
      "v": 78
    },
    {
      "midi": 55,
      "hit": false,
      "t": 262807.9671875008,
      "d": 360.91531249997206,
      "v": 94
    },
    {
      "midi": 60,
      "hit": false,
      "t": 262807.9671875008,
      "d": 801.0559374999721,
      "v": 92
    },
    {
      "midi": 65,
      "hit": false,
      "t": 262816.7700000008,
      "d": 127.6407812499674,
      "v": 108
    },
    {
      "midi": 64,
      "hit": false,
      "t": 262997.22765625076,
      "d": 602.9926562500186,
      "v": 98
    },
    {
      "midi": 55,
      "hit": false,
      "t": 263283.3190625008,
      "d": 316.90124999999534,
      "v": 79
    },
    {
      "midi": 46,
      "hit": false,
      "t": 263661.8400000008,
      "d": 343.30968749994645,
      "v": 100
    },
    {
      "midi": 65,
      "hit": false,
      "t": 263670.64281250077,
      "d": 514.964531250007,
      "v": 89
    },
    {
      "midi": 60,
      "hit": false,
      "t": 263670.64281250077,
      "d": 532.5701562500326,
      "v": 100
    },
    {
      "midi": 58,
      "hit": false,
      "t": 263670.64281250077,
      "d": 673.4151562500629,
      "v": 100
    },
    {
      "midi": 46,
      "hit": false,
      "t": 264071.17078125075,
      "d": 2975.3506249998463,
      "v": 55
    },
    {
      "midi": 65,
      "hit": false,
      "t": 264269.2340625008,
      "d": 2777.2873437497765,
      "v": 59
    },
    {
      "midi": 62,
      "hit": false,
      "t": 264278.0368750008,
      "d": 2768.484531249793,
      "v": 115
    },
    {
      "midi": 58,
      "hit": false,
      "t": 264753.3887500008,
      "d": 2293.1326562497998,
      "v": 72
    },
    {
      "midi": 55,
      "hit": false,
      "t": 266927.68343750056,
      "d": 5193.659375000047,
      "v": 115
    },
    {
      "midi": 60,
      "hit": false,
      "t": 267024.51437500055,
      "d": 5088.0256250000675,
      "v": 69
    },
    {
      "midi": 65,
      "hit": false,
      "t": 267099.3382812506,
      "d": 5022.004531249986,
      "v": 40
    },
    {
      "midi": 67,
      "hit": false,
      "t": 267200.57062500063,
      "d": 4920.77218749997,
      "v": 71
    }
  ]
}