{
  "jsonPath": "Unknown/Unknown/George MichaelWham/if-you-were-there.json",
  "path": "Unknown\\Unknown\\George MichaelWham\\If You Were There.mid",
  "name": "If You Were There",
  "difficulty": "Advanced",
  "bpm": 127.00025400050801,
  "notes": [
    {
      "midi": 64,
      "hit": false,
      "t": 1889.7599999999998,
      "d": 922.734375,
      "v": 91
    },
    {
      "midi": 61,
      "hit": false,
      "t": 1889.7599999999998,
      "d": 930.11625,
      "v": 113
    },
    {
      "midi": 57,
      "hit": false,
      "t": 1889.7599999999998,
      "d": 981.7893750000003,
      "v": 91
    },
    {
      "midi": 45,
      "hit": false,
      "t": 1897.1418749999998,
      "d": 1186.0212500000002,
      "v": 108
    },
    {
      "midi": 64,
      "hit": false,
      "t": 2829.71875,
      "d": 201.77124999999978,
      "v": 105
    },
    {
      "midi": 47,
      "hit": false,
      "t": 2832.179375,
      "d": 179.62562499999967,
      "v": 97
    },
    {
      "midi": 61,
      "hit": false,
      "t": 2832.179375,
      "d": 184.54687499999955,
      "v": 124
    },
    {
      "midi": 59,
      "hit": false,
      "t": 2832.179375,
      "d": 196.84999999999945,
      "v": 97
    },
    {
      "midi": 61,
      "hit": false,
      "t": 3075.78125,
      "d": 187.00750000000016,
      "v": 103
    },
    {
      "midi": 64,
      "hit": false,
      "t": 3080.7025,
      "d": 174.70437500000025,
      "v": 93
    },
    {
      "midi": 68,
      "hit": false,
      "t": 3080.7025,
      "d": 179.62562500000013,
      "v": 85
    },
    {
      "midi": 49,
      "hit": false,
      "t": 3083.163125,
      "d": 118.11000000000013,
      "v": 124
    },
    {
      "midi": 49,
      "hit": false,
      "t": 3540.839375,
      "d": 885.8250000000003,
      "v": 96
    },
    {
      "midi": 68,
      "hit": false,
      "t": 3550.681875,
      "d": 430.609375,
      "v": 113
    },
    {
      "midi": 64,
      "hit": false,
      "t": 3550.681875,
      "d": 435.5306249999999,
      "v": 105
    },
    {
      "midi": 59,
      "hit": false,
      "t": 3553.1425000000004,
      "d": 437.9912499999996,
      "v": 105
    },
    {
      "midi": 37,
      "hit": false,
      "t": 4013.279375,
      "d": 484.74312499999996,
      "v": 113
    },
    {
      "midi": 42,
      "hit": false,
      "t": 4483.25875,
      "d": 1190.9425,
      "v": 96
    },
    {
      "midi": 54,
      "hit": false,
      "t": 4490.640625,
      "d": 1193.4031250000007,
      "v": 106
    },
    {
      "midi": 57,
      "hit": false,
      "t": 5669.28,
      "d": 9.842500000000655,
      "v": 91
    },
    {
      "midi": 61,
      "hit": false,
      "t": 5669.28,
      "d": 19.68500000000131,
      "v": 113
    },
    {
      "midi": 64,
      "hit": false,
      "t": 5669.28,
      "d": 917.8131250000015,
      "v": 91
    },
    {
      "midi": 45,
      "hit": false,
      "t": 5674.20125,
      "d": 1186.0212500000007,
      "v": 108
    },
    {
      "midi": 47,
      "hit": false,
      "t": 6611.699375000001,
      "d": 179.62562499999967,
      "v": 97
    },
    {
      "midi": 61,
      "hit": false,
      "t": 6611.699375000001,
      "d": 184.546875,
      "v": 124
    },
    {
      "midi": 59,
      "hit": false,
      "t": 6611.699375000001,
      "d": 196.85000000000036,
      "v": 97
    },
    {
      "midi": 64,
      "hit": false,
      "t": 6611.699375000001,
      "d": 201.7712500000007,
      "v": 105
    },
    {
      "midi": 61,
      "hit": false,
      "t": 6852.840625000002,
      "d": 187.0074999999997,
      "v": 103
    },
    {
      "midi": 64,
      "hit": false,
      "t": 6855.301250000001,
      "d": 174.70437499999935,
      "v": 93
    },
    {
      "midi": 68,
      "hit": false,
      "t": 6855.301250000001,
      "d": 179.62562499999967,
      "v": 85
    },
    {
      "midi": 49,
      "hit": false,
      "t": 6857.761875000001,
      "d": 118.10999999999967,
      "v": 124
    },
    {
      "midi": 64,
      "hit": false,
      "t": 7091.521250000002,
      "d": 61.515625,
      "v": 95
    },
    {
      "midi": 49,
      "hit": false,
      "t": 7320.359375000002,
      "d": 885.8250000000007,
      "v": 96
    },
    {
      "midi": 68,
      "hit": false,
      "t": 7327.741250000002,
      "d": 428.1487500000003,
      "v": 113
    },
    {
      "midi": 64,
      "hit": false,
      "t": 7327.741250000002,
      "d": 433.0700000000006,
      "v": 105
    },
    {
      "midi": 59,
      "hit": false,
      "t": 7327.741250000002,
      "d": 437.99125000000095,
      "v": 105
    },
    {
      "midi": 71,
      "hit": false,
      "t": 7790.338750000003,
      "d": 76.27937500000007,
      "v": 97
    },
    {
      "midi": 37,
      "hit": false,
      "t": 7792.799375000002,
      "d": 238.68062499999996,
      "v": 113
    },
    {
      "midi": 42,
      "hit": false,
      "t": 8267.700000000003,
      "d": 447.8337499999998,
      "v": 96
    },
    {
      "midi": 57,
      "hit": false,
      "t": 8267.700000000003,
      "d": 1181.1000000000004,
      "v": 88
    },
    {
      "midi": 54,
      "hit": false,
      "t": 8267.700000000003,
      "d": 1190.9424999999992,
      "v": 106
    },
    {
      "midi": 42,
      "hit": false,
      "t": 8740.140000000003,
      "d": 649.6049999999996,
      "v": 103
    },
    {
      "midi": 61,
      "hit": false,
      "t": 9448.800000000003,
      "d": 9.842499999998836,
      "v": 113
    },
    {
      "midi": 64,
      "hit": false,
      "t": 9448.800000000003,
      "d": 922.7343749999982,
      "v": 91
    },
    {
      "midi": 57,
      "hit": false,
      "t": 9448.800000000003,
      "d": 981.7893749999985,
      "v": 91
    },
    {
      "midi": 45,
      "hit": false,
      "t": 9456.181875000002,
      "d": 1186.021249999998,
      "v": 108
    },
    {
      "midi": 64,
      "hit": false,
      "t": 10388.75875,
      "d": 201.77124999999978,
      "v": 105
    },
    {
      "midi": 47,
      "hit": false,
      "t": 10391.219375,
      "d": 179.62562500000058,
      "v": 97
    },
    {
      "midi": 61,
      "hit": false,
      "t": 10391.219375,
      "d": 184.546875,
      "v": 124
    },
    {
      "midi": 59,
      "hit": false,
      "t": 10391.219375,
      "d": 196.85000000000036,
      "v": 97
    },
    {
      "midi": 61,
      "hit": false,
      "t": 10634.82125,
      "d": 187.0074999999997,
      "v": 103
    },
    {
      "midi": 64,
      "hit": false,
      "t": 10639.7425,
      "d": 174.70437500000116,
      "v": 93
    },
    {
      "midi": 68,
      "hit": false,
      "t": 10639.7425,
      "d": 179.62562500000058,
      "v": 85
    },
    {
      "midi": 49,
      "hit": false,
      "t": 10642.203125,
      "d": 118.11000000000058,
      "v": 124
    },
    {
      "midi": 49,
      "hit": false,
      "t": 11099.879375,
      "d": 885.8249999999989,
      "v": 96
    },
    {
      "midi": 68,
      "hit": false,
      "t": 11109.721875000001,
      "d": 430.609375,
      "v": 113
    },
    {
      "midi": 64,
      "hit": false,
      "t": 11109.721875000001,
      "d": 435.5306249999994,
      "v": 105
    },
    {
      "midi": 59,
      "hit": false,
      "t": 11112.1825,
      "d": 437.9912499999991,
      "v": 105
    },
    {
      "midi": 37,
      "hit": false,
      "t": 11572.319375,
      "d": 484.74312499999905,
      "v": 113
    },
    {
      "midi": 42,
      "hit": false,
      "t": 12042.29875,
      "d": 1190.9424999999974,
      "v": 96
    },
    {
      "midi": 54,
      "hit": false,
      "t": 12049.680624999999,
      "d": 1193.403124999997,
      "v": 106
    },
    {
      "midi": 57,
      "hit": false,
      "t": 13228.319999999998,
      "d": 9.842499999998836,
      "v": 91
    },
    {
      "midi": 61,
      "hit": false,
      "t": 13228.319999999998,
      "d": 19.68499999999767,
      "v": 113
    },
    {
      "midi": 64,
      "hit": false,
      "t": 13228.319999999998,
      "d": 917.813124999997,
      "v": 91
    },
    {
      "midi": 45,
      "hit": false,
      "t": 13233.241249999997,
      "d": 1186.021249999998,
      "v": 108
    },
    {
      "midi": 47,
      "hit": false,
      "t": 14170.739374999996,
      "d": 179.62562500000058,
      "v": 97
    },
    {
      "midi": 61,
      "hit": false,
      "t": 14170.739374999996,
      "d": 184.546875,
      "v": 124
    },
    {
      "midi": 59,
      "hit": false,
      "t": 14170.739374999996,
      "d": 196.85000000000036,
      "v": 97
    },
    {
      "midi": 64,
      "hit": false,
      "t": 14170.739374999996,
      "d": 201.77124999999978,
      "v": 105
    },
    {
      "midi": 61,
      "hit": false,
      "t": 14411.880624999996,
      "d": 187.0074999999997,
      "v": 103
    },
    {
      "midi": 64,
      "hit": false,
      "t": 14414.341249999996,
      "d": 174.70437500000116,
      "v": 93
    },
    {
      "midi": 68,
      "hit": false,
      "t": 14414.341249999996,
      "d": 179.62562500000058,
      "v": 85
    },
    {
      "midi": 49,
      "hit": false,
      "t": 14416.801874999996,
      "d": 118.11000000000058,
      "v": 124
    },
    {
      "midi": 64,
      "hit": false,
      "t": 14650.561249999995,
      "d": 61.515625,
      "v": 95
    },
    {
      "midi": 49,
      "hit": false,
      "t": 14879.399374999995,
      "d": 885.8249999999989,
      "v": 96
    },
    {
      "midi": 68,
      "hit": false,
      "t": 14886.781249999995,
      "d": 428.1487500000003,
      "v": 113
    },
    {
      "midi": 64,
      "hit": false,
      "t": 14886.781249999995,
      "d": 433.0699999999997,
      "v": 105
    },
    {
      "midi": 59,
      "hit": false,
      "t": 14886.781249999995,
      "d": 437.9912499999991,
      "v": 105
    },
    {
      "midi": 71,
      "hit": false,
      "t": 15349.378749999994,
      "d": 76.27937500000007,
      "v": 97
    },
    {
      "midi": 37,
      "hit": false,
      "t": 15351.839374999994,
      "d": 238.68062500000087,
      "v": 113
    },
    {
      "midi": 42,
      "hit": false,
      "t": 15826.739999999994,
      "d": 447.8337499999998,
      "v": 96
    },
    {
      "midi": 57,
      "hit": false,
      "t": 15826.739999999994,
      "d": 1181.1000000000022,
      "v": 88
    },
    {
      "midi": 54,
      "hit": false,
      "t": 15826.739999999994,
      "d": 1190.942500000001,
      "v": 106
    },
    {
      "midi": 42,
      "hit": false,
      "t": 16299.179999999995,
      "d": 649.6050000000014,
      "v": 103
    },
    {
      "midi": 61,
      "hit": false,
      "t": 17007.839999999997,
      "d": 9.842499999998836,
      "v": 113
    },
    {
      "midi": 64,
      "hit": false,
      "t": 17007.839999999997,
      "d": 922.734375,
      "v": 91
    },
    {
      "midi": 57,
      "hit": false,
      "t": 17007.839999999997,
      "d": 981.7893750000003,
      "v": 91
    },
    {
      "midi": 45,
      "hit": false,
      "t": 17015.221874999996,
      "d": 1186.0212500000016,
      "v": 108
    },
    {
      "midi": 47,
      "hit": false,
      "t": 17950.259374999998,
      "d": 179.62562500000058,
      "v": 103
    },
    {
      "midi": 62,
      "hit": false,
      "t": 17952.719999999998,
      "d": 206.69250000000102,
      "v": 99
    },
    {
      "midi": 59,
      "hit": false,
      "t": 17952.719999999998,
      "d": 216.53499999999985,
      "v": 96
    },
    {
      "midi": 61,
      "hit": false,
      "t": 18191.400625,
      "d": 187.0074999999997,
      "v": 103
    },
    {
      "midi": 64,
      "hit": false,
      "t": 18193.861249999998,
      "d": 174.70437500000116,
      "v": 93
    },
    {
      "midi": 49,
      "hit": false,
      "t": 18196.321874999998,
      "d": 118.11000000000058,
      "v": 118
    },
    {
      "midi": 49,
      "hit": false,
      "t": 18661.379999999997,
      "d": 885.8249999999971,
      "v": 96
    },
    {
      "midi": 59,
      "hit": false,
      "t": 18661.379999999997,
      "d": 920.2737499999967,
      "v": 105
    },
    {
      "midi": 64,
      "hit": false,
      "t": 18661.379999999997,
      "d": 920.2737499999967,
      "v": 105
    },
    {
      "midi": 68,
      "hit": false,
      "t": 18661.379999999997,
      "d": 920.2737499999967,
      "v": 113
    },
    {
      "midi": 37,
      "hit": false,
      "t": 19133.819999999996,
      "d": 484.74312499999724,
      "v": 113
    },
    {
      "midi": 61,
      "hit": false,
      "t": 19606.259999999995,
      "d": 1154.033124999998,
      "v": 108
    },
    {
      "midi": 42,
      "hit": false,
      "t": 19606.259999999995,
      "d": 1161.4149999999972,
      "v": 102
    },
    {
      "midi": 57,
      "hit": false,
      "t": 19606.259999999995,
      "d": 1163.875624999997,
      "v": 98
    },
    {
      "midi": 54,
      "hit": false,
      "t": 19606.259999999995,
      "d": 1166.3362499999967,
      "v": 106
    },
    {
      "midi": 64,
      "hit": false,
      "t": 20787.35999999999,
      "d": 922.734375,
      "v": 91
    },
    {
      "midi": 61,
      "hit": false,
      "t": 20787.35999999999,
      "d": 930.1162499999991,
      "v": 113
    },
    {
      "midi": 57,
      "hit": false,
      "t": 20787.35999999999,
      "d": 981.7893749999967,
      "v": 91
    },
    {
      "midi": 45,
      "hit": false,
      "t": 20794.74187499999,
      "d": 1186.021249999998,
      "v": 108
    },
    {
      "midi": 47,
      "hit": false,
      "t": 21729.779374999987,
      "d": 179.62562500000058,
      "v": 103
    },
    {
      "midi": 62,
      "hit": false,
      "t": 21732.239999999987,
      "d": 206.69250000000102,
      "v": 99
    },
    {
      "midi": 59,
      "hit": false,
      "t": 21732.239999999987,
      "d": 216.53499999999985,
      "v": 96
    },
    {
      "midi": 61,
      "hit": false,
      "t": 21970.920624999988,
      "d": 187.0074999999997,
      "v": 103
    },
    {
      "midi": 64,
      "hit": false,
      "t": 21973.381249999988,
      "d": 174.70437500000116,
      "v": 93
    },
    {
      "midi": 49,
      "hit": false,
      "t": 21975.841874999987,
      "d": 118.11000000000058,
      "v": 118
    },
    {
      "midi": 68,
      "hit": false,
      "t": 22440.899999999987,
      "d": 418.30625000000146,
      "v": 113
    },
    {
      "midi": 49,
      "hit": false,
      "t": 22440.899999999987,
      "d": 885.8250000000007,
      "v": 96
    },
    {
      "midi": 59,
      "hit": false,
      "t": 22440.899999999987,
      "d": 920.2737500000003,
      "v": 105
    },
    {
      "midi": 64,
      "hit": false,
      "t": 22440.899999999987,
      "d": 920.2737500000003,
      "v": 105
    },
    {
      "midi": 68,
      "hit": false,
      "t": 22913.33999999999,
      "d": 105.8068749999984,
      "v": 97
    },
    {
      "midi": 71,
      "hit": false,
      "t": 22925.643124999988,
      "d": 105.8068749999984,
      "v": 97
    },
    {
      "midi": 61,
      "hit": false,
      "t": 23385.779999999988,
      "d": 1154.033124999998,
      "v": 108
    },
    {
      "midi": 42,
      "hit": false,
      "t": 23385.779999999988,
      "d": 1161.4149999999972,
      "v": 102
    },
    {
      "midi": 57,
      "hit": false,
      "t": 23385.779999999988,
      "d": 1163.875624999997,
      "v": 98
    },
    {
      "midi": 54,
      "hit": false,
      "t": 23385.779999999988,
      "d": 1166.3362499999967,
      "v": 106
    },
    {
      "midi": 30,
      "hit": false,
      "t": 23858.219999999987,
      "d": 437.9912499999991,
      "v": 94
    },
    {
      "midi": 32,
      "hit": false,
      "t": 24330.659999999985,
      "d": 191.92874999999913,
      "v": 92
    },
    {
      "midi": 64,
      "hit": false,
      "t": 24566.879999999983,
      "d": 922.734375,
      "v": 91
    },
    {
      "midi": 61,
      "hit": false,
      "t": 24566.879999999983,
      "d": 930.1162499999991,
      "v": 113
    },
    {
      "midi": 57,
      "hit": false,
      "t": 24566.879999999983,
      "d": 981.7893749999967,
      "v": 91
    },
    {
      "midi": 45,
      "hit": false,
      "t": 24574.261874999982,
      "d": 1186.021249999998,
      "v": 108
    },
    {
      "midi": 47,
      "hit": false,
      "t": 25509.29937499998,
      "d": 179.62562500000058,
      "v": 103
    },
    {
      "midi": 62,
      "hit": false,
      "t": 25511.75999999998,
      "d": 206.69250000000102,
      "v": 99
    },
    {
      "midi": 59,
      "hit": false,
      "t": 25511.75999999998,
      "d": 216.53499999999985,
      "v": 96
    },
    {
      "midi": 61,
      "hit": false,
      "t": 25750.44062499998,
      "d": 187.0074999999997,
      "v": 103
    },
    {
      "midi": 64,
      "hit": false,
      "t": 25752.90124999998,
      "d": 174.70437500000116,
      "v": 93
    },
    {
      "midi": 49,
      "hit": false,
      "t": 25755.36187499998,
      "d": 118.11000000000058,
      "v": 118
    },
    {
      "midi": 49,
      "hit": false,
      "t": 26220.41999999998,
      "d": 885.8249999999971,
      "v": 96
    },
    {
      "midi": 59,
      "hit": false,
      "t": 26220.41999999998,
      "d": 920.2737499999967,
      "v": 105
    },
    {
      "midi": 64,
      "hit": false,
      "t": 26220.41999999998,
      "d": 920.2737499999967,
      "v": 105
    },
    {
      "midi": 68,
      "hit": false,
      "t": 26220.41999999998,
      "d": 920.2737499999967,
      "v": 113
    },
    {
      "midi": 37,
      "hit": false,
      "t": 26692.85999999998,
      "d": 484.74312499999724,
      "v": 113
    },
    {
      "midi": 61,
      "hit": false,
      "t": 27165.299999999977,
      "d": 1154.033124999998,
      "v": 108
    },
    {
      "midi": 42,
      "hit": false,
      "t": 27165.299999999977,
      "d": 1161.4149999999972,
      "v": 102
    },
    {
      "midi": 57,
      "hit": false,
      "t": 27165.299999999977,
      "d": 1163.875624999997,
      "v": 98
    },
    {
      "midi": 54,
      "hit": false,
      "t": 27165.299999999977,
      "d": 1166.3362499999967,
      "v": 106
    },
    {
      "midi": 64,
      "hit": false,
      "t": 28346.399999999972,
      "d": 922.734375,
      "v": 91
    },
    {
      "midi": 61,
      "hit": false,
      "t": 28346.399999999972,
      "d": 930.1162499999991,
      "v": 113
    },
    {
      "midi": 57,
      "hit": false,
      "t": 28346.399999999972,
      "d": 981.7893749999967,
      "v": 91
    },
    {
      "midi": 45,
      "hit": false,
      "t": 28353.78187499997,
      "d": 1186.021249999998,
      "v": 108
    },
    {
      "midi": 47,
      "hit": false,
      "t": 29288.81937499997,
      "d": 179.62562500000058,
      "v": 103
    },
    {
      "midi": 62,
      "hit": false,
      "t": 29291.27999999997,
      "d": 206.69250000000102,
      "v": 99
    },
    {
      "midi": 59,
      "hit": false,
      "t": 29291.27999999997,
      "d": 216.53499999999985,
      "v": 96
    },
    {
      "midi": 61,
      "hit": false,
      "t": 29529.96062499997,
      "d": 187.0074999999997,
      "v": 103
    },
    {
      "midi": 64,
      "hit": false,
      "t": 29532.42124999997,
      "d": 174.70437500000116,
      "v": 93
    },
    {
      "midi": 49,
      "hit": false,
      "t": 29534.88187499997,
      "d": 118.11000000000058,
      "v": 118
    },
    {
      "midi": 68,
      "hit": false,
      "t": 29999.93999999997,
      "d": 418.30625000000146,
      "v": 113
    },
    {
      "midi": 49,
      "hit": false,
      "t": 29999.93999999997,
      "d": 885.8250000000007,
      "v": 96
    },
    {
      "midi": 59,
      "hit": false,
      "t": 29999.93999999997,
      "d": 920.2737500000003,
      "v": 105
    },
    {
      "midi": 64,
      "hit": false,
      "t": 29999.93999999997,
      "d": 920.2737500000003,
      "v": 105
    },
    {
      "midi": 68,
      "hit": false,
      "t": 30472.379999999972,
      "d": 105.8068749999984,
      "v": 97
    },
    {
      "midi": 71,
      "hit": false,
      "t": 30484.68312499997,
      "d": 105.8068749999984,
      "v": 97
    },
    {
      "midi": 61,
      "hit": false,
      "t": 30944.81999999997,
      "d": 1154.033124999998,
      "v": 108
    },
    {
      "midi": 42,
      "hit": false,
      "t": 30944.81999999997,
      "d": 1161.4149999999972,
      "v": 102
    },
    {
      "midi": 57,
      "hit": false,
      "t": 30944.81999999997,
      "d": 1163.875624999997,
      "v": 98
    },
    {
      "midi": 54,
      "hit": false,
      "t": 30944.81999999997,
      "d": 1166.3362499999967,
      "v": 106
    },
    {
      "midi": 30,
      "hit": false,
      "t": 31417.25999999997,
      "d": 437.9912499999991,
      "v": 94
    },
    {
      "midi": 32,
      "hit": false,
      "t": 31889.699999999968,
      "d": 191.92874999999913,
      "v": 92
    },
    {
      "midi": 64,
      "hit": false,
      "t": 32125.919999999966,
      "d": 922.7343749999964,
      "v": 91
    },
    {
      "midi": 61,
      "hit": false,
      "t": 32125.919999999966,
      "d": 930.1162499999955,
      "v": 113
    },
    {
      "midi": 57,
      "hit": false,
      "t": 32125.919999999966,
      "d": 981.7893749999967,
      "v": 91
    },
    {
      "midi": 45,
      "hit": false,
      "t": 32133.301874999965,
      "d": 1186.021249999987,
      "v": 108
    },
    {
      "midi": 47,
      "hit": false,
      "t": 33068.33937499996,
      "d": 179.62562500000058,
      "v": 103
    },
    {
      "midi": 62,
      "hit": false,
      "t": 33070.79999999996,
      "d": 206.69249999999738,
      "v": 99
    },
    {
      "midi": 59,
      "hit": false,
      "t": 33070.79999999996,
      "d": 216.53499999999622,
      "v": 96
    },
    {
      "midi": 61,
      "hit": false,
      "t": 33309.48062499995,
      "d": 187.0074999999997,
      "v": 103
    },
    {
      "midi": 64,
      "hit": false,
      "t": 33311.94124999995,
      "d": 174.70437500000116,
      "v": 93
    },
    {
      "midi": 49,
      "hit": false,
      "t": 33314.40187499995,
      "d": 118.11000000000058,
      "v": 118
    },
    {
      "midi": 49,
      "hit": false,
      "t": 33779.459999999955,
      "d": 885.8250000000044,
      "v": 96
    },
    {
      "midi": 59,
      "hit": false,
      "t": 33779.459999999955,
      "d": 920.2737500000076,
      "v": 105
    },
    {
      "midi": 64,
      "hit": false,
      "t": 33779.459999999955,
      "d": 920.2737500000076,
      "v": 105
    },
    {
      "midi": 68,
      "hit": false,
      "t": 33779.459999999955,
      "d": 920.2737500000076,
      "v": 113
    },
    {
      "midi": 37,
      "hit": false,
      "t": 34251.89999999996,
      "d": 484.7431250000009,
      "v": 113
    },
    {
      "midi": 61,
      "hit": false,
      "t": 34724.33999999996,
      "d": 1154.0331250000017,
      "v": 108
    },
    {
      "midi": 42,
      "hit": false,
      "t": 34724.33999999996,
      "d": 1161.4150000000009,
      "v": 102
    },
    {
      "midi": 57,
      "hit": false,
      "t": 34724.33999999996,
      "d": 1163.8756250000006,
      "v": 98
    },
    {
      "midi": 54,
      "hit": false,
      "t": 34724.33999999996,
      "d": 1166.3362500000003,
      "v": 106
    },
    {
      "midi": 59,
      "hit": false,
      "t": 35905.43999999996,
      "d": 334.6449999999968,
      "v": 79
    },
    {
      "midi": 62,
      "hit": false,
      "t": 35905.43999999996,
      "d": 374.0149999999994,
      "v": 79
    },
    {
      "midi": 47,
      "hit": false,
      "t": 35905.43999999996,
      "d": 1611.7093749999985,
      "v": 112
    },
    {
      "midi": 57,
      "hit": false,
      "t": 36377.87999999996,
      "d": 369.09375,
      "v": 115
    },
    {
      "midi": 62,
      "hit": false,
      "t": 36377.87999999996,
      "d": 371.5543749999997,
      "v": 115
    },
    {
      "midi": 62,
      "hit": false,
      "t": 37086.53999999996,
      "d": 243.6018750000003,
      "v": 95
    },
    {
      "midi": 57,
      "hit": false,
      "t": 37086.53999999996,
      "d": 265.7474999999977,
      "v": 105
    },
    {
      "midi": 52,
      "hit": false,
      "t": 37558.97999999996,
      "d": 374.0149999999994,
      "v": 108
    },
    {
      "midi": 57,
      "hit": false,
      "t": 37558.97999999996,
      "d": 462.5974999999962,
      "v": 102
    },
    {
      "midi": 64,
      "hit": false,
      "t": 37558.97999999996,
      "d": 880.9037499999977,
      "v": 95
    },
    {
      "midi": 52,
      "hit": false,
      "t": 38031.419999999955,
      "d": 406.0031250000029,
      "v": 88
    },
    {
      "midi": 56,
      "hit": false,
      "t": 38031.419999999955,
      "d": 450.29437500000495,
      "v": 109
    },
    {
      "midi": 52,
      "hit": false,
      "t": 38503.85999999996,
      "d": 310.0387499999997,
      "v": 105
    },
    {
      "midi": 64,
      "hit": false,
      "t": 38740.07999999996,
      "d": 221.45624999999563,
      "v": 108
    },
    {
      "midi": 59,
      "hit": false,
      "t": 38740.07999999996,
      "d": 226.37749999999505,
      "v": 108
    },
    {
      "midi": 52,
      "hit": false,
      "t": 38976.29999999995,
      "d": 273.1293750000041,
      "v": 97
    },
    {
      "midi": 56,
      "hit": false,
      "t": 39212.51999999995,
      "d": 415.84562500000175,
      "v": 96
    },
    {
      "midi": 64,
      "hit": false,
      "t": 39684.959999999955,
      "d": 922.734375,
      "v": 91
    },
    {
      "midi": 61,
      "hit": false,
      "t": 39684.959999999955,
      "d": 930.1162499999991,
      "v": 113
    },
    {
      "midi": 57,
      "hit": false,
      "t": 39684.959999999955,
      "d": 981.7893750000003,
      "v": 91
    },
    {
      "midi": 45,
      "hit": false,
      "t": 39692.341874999955,
      "d": 1186.0212499999907,
      "v": 108
    },
    {
      "midi": 47,
      "hit": false,
      "t": 40627.37937499995,
      "d": 179.62562500000058,
      "v": 103
    },
    {
      "midi": 62,
      "hit": false,
      "t": 40629.83999999995,
      "d": 206.69249999999738,
      "v": 99
    },
    {
      "midi": 59,
      "hit": false,
      "t": 40629.83999999995,
      "d": 216.53499999999622,
      "v": 96
    },
    {
      "midi": 61,
      "hit": false,
      "t": 40868.52062499995,
      "d": 187.0074999999997,
      "v": 103
    },
    {
      "midi": 64,
      "hit": false,
      "t": 40870.981249999946,
      "d": 174.70437500000116,
      "v": 93
    },
    {
      "midi": 49,
      "hit": false,
      "t": 40873.441874999946,
      "d": 118.11000000000058,
      "v": 118
    },
    {
      "midi": 49,
      "hit": false,
      "t": 41338.49999999995,
      "d": 885.8250000000044,
      "v": 96
    },
    {
      "midi": 59,
      "hit": false,
      "t": 41338.49999999995,
      "d": 920.2737500000076,
      "v": 105
    },
    {
      "midi": 64,
      "hit": false,
      "t": 41338.49999999995,
      "d": 920.2737500000076,
      "v": 105
    },
    {
      "midi": 68,
      "hit": false,
      "t": 41338.49999999995,
      "d": 920.2737500000076,
      "v": 113
    },
    {
      "midi": 37,
      "hit": false,
      "t": 41810.93999999995,
      "d": 484.7431250000009,
      "v": 113
    },
    {
      "midi": 61,
      "hit": false,
      "t": 42283.379999999954,
      "d": 1154.0331250000017,
      "v": 108
    },
    {
      "midi": 42,
      "hit": false,
      "t": 42283.379999999954,
      "d": 1161.4150000000009,
      "v": 102
    },
    {
      "midi": 57,
      "hit": false,
      "t": 42283.379999999954,
      "d": 1163.8756250000006,
      "v": 98
    },
    {
      "midi": 54,
      "hit": false,
      "t": 42283.379999999954,
      "d": 1166.3362500000003,
      "v": 106
    },
    {
      "midi": 59,
      "hit": false,
      "t": 43464.47999999995,
      "d": 334.6449999999968,
      "v": 79
    },
    {
      "midi": 62,
      "hit": false,
      "t": 43464.47999999995,
      "d": 374.0149999999994,
      "v": 79
    },
    {
      "midi": 47,
      "hit": false,
      "t": 43464.47999999995,
      "d": 1611.7093749999985,
      "v": 112
    },
    {
      "midi": 57,
      "hit": false,
      "t": 43936.919999999955,
      "d": 369.09375,
      "v": 115
    },
    {
      "midi": 62,
      "hit": false,
      "t": 43936.919999999955,
      "d": 371.5543749999997,
      "v": 115
    },
    {
      "midi": 62,
      "hit": false,
      "t": 44645.57999999995,
      "d": 243.6018750000003,
      "v": 95
    },
    {
      "midi": 57,
      "hit": false,
      "t": 44645.57999999995,
      "d": 265.7474999999977,
      "v": 105
    },
    {
      "midi": 52,
      "hit": false,
      "t": 45118.01999999995,
      "d": 374.0149999999994,
      "v": 108
    },
    {
      "midi": 57,
      "hit": false,
      "t": 45118.01999999995,
      "d": 462.5974999999962,
      "v": 102
    },
    {
      "midi": 64,
      "hit": false,
      "t": 45118.01999999995,
      "d": 880.9037499999977,
      "v": 95
    },
    {
      "midi": 52,
      "hit": false,
      "t": 45590.45999999995,
      "d": 406.0031250000029,
      "v": 88
    },
    {
      "midi": 56,
      "hit": false,
      "t": 45590.45999999995,
      "d": 450.29437500000495,
      "v": 109
    },
    {
      "midi": 52,
      "hit": false,
      "t": 46062.89999999995,
      "d": 310.0387499999997,
      "v": 105
    },
    {
      "midi": 64,
      "hit": false,
      "t": 46299.11999999995,
      "d": 221.45624999999563,
      "v": 108
    },
    {
      "midi": 59,
      "hit": false,
      "t": 46299.11999999995,
      "d": 226.37749999999505,
      "v": 108
    },
    {
      "midi": 52,
      "hit": false,
      "t": 46535.339999999946,
      "d": 273.1293750000041,
      "v": 97
    },
    {
      "midi": 56,
      "hit": false,
      "t": 46771.55999999995,
      "d": 415.84562500000175,
      "v": 96
    },
    {
      "midi": 38,
      "hit": false,
      "t": 47243.99999999995,
      "d": 730.8056250000009,
      "v": 93
    },
    {
      "midi": 73,
      "hit": false,
      "t": 47716.43999999995,
      "d": 248.5231249999997,
      "v": 89
    },
    {
      "midi": 66,
      "hit": false,
      "t": 47716.43999999995,
      "d": 260.82624999999825,
      "v": 96
    },
    {
      "midi": 69,
      "hit": false,
      "t": 47716.43999999995,
      "d": 260.82624999999825,
      "v": 91
    },
    {
      "midi": 57,
      "hit": false,
      "t": 48425.09999999995,
      "d": 216.5350000000035,
      "v": 86
    },
    {
      "midi": 66,
      "hit": false,
      "t": 48425.09999999995,
      "d": 221.4562500000029,
      "v": 92
    },
    {
      "midi": 68,
      "hit": false,
      "t": 48661.31999999995,
      "d": 86.12187499999709,
      "v": 83
    },
    {
      "midi": 59,
      "hit": false,
      "t": 48661.31999999995,
      "d": 105.80687499999476,
      "v": 67
    },
    {
      "midi": 62,
      "hit": false,
      "t": 48897.53999999994,
      "d": 359.25125000000116,
      "v": 76
    },
    {
      "midi": 69,
      "hit": false,
      "t": 48897.53999999994,
      "d": 467.5187500000029,
      "v": 88
    },
    {
      "midi": 66,
      "hit": false,
      "t": 48897.53999999994,
      "d": 477.36125000000175,
      "v": 109
    },
    {
      "midi": 68,
      "hit": false,
      "t": 49606.199999999946,
      "d": 152.5587499999965,
      "v": 103
    },
    {
      "midi": 64,
      "hit": false,
      "t": 49606.199999999946,
      "d": 162.40124999999534,
      "v": 74
    },
    {
      "midi": 66,
      "hit": false,
      "t": 49842.41999999994,
      "d": 314.9599999999991,
      "v": 106
    },
    {
      "midi": 62,
      "hit": false,
      "t": 49842.41999999994,
      "d": 332.1843749999971,
      "v": 82
    },
    {
      "midi": 50,
      "hit": false,
      "t": 50314.859999999935,
      "d": 494.5856249999997,
      "v": 105
    },
    {
      "midi": 47,
      "hit": false,
      "t": 51023.51999999993,
      "d": 1173.7181249999921,
      "v": 95
    },
    {
      "midi": 59,
      "hit": false,
      "t": 51274.50374999993,
      "d": 142.71624999999767,
      "v": 86
    },
    {
      "midi": 62,
      "hit": false,
      "t": 51274.50374999993,
      "d": 142.71624999999767,
      "v": 78
    },
    {
      "midi": 57,
      "hit": false,
      "t": 51495.95999999993,
      "d": 366.6331250000003,
      "v": 86
    },
    {
      "midi": 62,
      "hit": false,
      "t": 51495.95999999993,
      "d": 369.09375,
      "v": 91
    },
    {
      "midi": 66,
      "hit": false,
      "t": 51495.95999999993,
      "d": 381.39687499999854,
      "v": 96
    },
    {
      "midi": 62,
      "hit": false,
      "t": 52204.61999999992,
      "d": 260.82624999999825,
      "v": 91
    },
    {
      "midi": 66,
      "hit": false,
      "t": 52204.61999999992,
      "d": 268.2081249999974,
      "v": 103
    },
    {
      "midi": 57,
      "hit": false,
      "t": 52204.61999999992,
      "d": 280.5112499999959,
      "v": 97
    },
    {
      "midi": 66,
      "hit": false,
      "t": 52677.05999999992,
      "d": 386.31812499999796,
      "v": 92
    },
    {
      "midi": 69,
      "hit": false,
      "t": 52677.05999999992,
      "d": 406.00312499999563,
      "v": 79
    },
    {
      "midi": 68,
      "hit": false,
      "t": 53149.49999999991,
      "d": 253.44437499999913,
      "v": 103
    },
    {
      "midi": 64,
      "hit": false,
      "t": 53149.49999999991,
      "d": 300.1962500000009,
      "v": 78
    },
    {
      "midi": 66,
      "hit": false,
      "t": 53621.939999999915,
      "d": 484.7431250000009,
      "v": 109
    },
    {
      "midi": 62,
      "hit": false,
      "t": 53621.939999999915,
      "d": 519.1918750000041,
      "v": 77
    },
    {
      "midi": 68,
      "hit": false,
      "t": 54094.37999999992,
      "d": 519.1918750000041,
      "v": 94
    },
    {
      "midi": 64,
      "hit": false,
      "t": 54094.37999999992,
      "d": 556.101250000007,
      "v": 82
    },
    {
      "midi": 38,
      "hit": false,
      "t": 54803.03999999992,
      "d": 730.8056250000009,
      "v": 93
    },
    {
      "midi": 73,
      "hit": false,
      "t": 55275.47999999992,
      "d": 248.5231249999997,
      "v": 89
    },
    {
      "midi": 66,
      "hit": false,
      "t": 55275.47999999992,
      "d": 260.82624999999825,
      "v": 96
    },
    {
      "midi": 69,
      "hit": false,
      "t": 55275.47999999992,
      "d": 260.82624999999825,
      "v": 91
    },
    {
      "midi": 57,
      "hit": false,
      "t": 55984.13999999992,
      "d": 216.5350000000035,
      "v": 86
    },
    {
      "midi": 66,
      "hit": false,
      "t": 55984.13999999992,
      "d": 221.4562500000029,
      "v": 92
    },
    {
      "midi": 68,
      "hit": false,
      "t": 56220.35999999992,
      "d": 86.12187499999709,
      "v": 83
    },
    {
      "midi": 59,
      "hit": false,
      "t": 56220.35999999992,
      "d": 105.80687499999476,
      "v": 70
    },
    {
      "midi": 61,
      "hit": false,
      "t": 56456.579999999914,
      "d": 359.25125000000116,
      "v": 81
    },
    {
      "midi": 69,
      "hit": false,
      "t": 56456.579999999914,
      "d": 467.5187500000029,
      "v": 88
    },
    {
      "midi": 66,
      "hit": false,
      "t": 56456.579999999914,
      "d": 477.36125000000175,
      "v": 109
    },
    {
      "midi": 68,
      "hit": false,
      "t": 57165.23999999992,
      "d": 152.5587499999965,
      "v": 103
    },
    {
      "midi": 64,
      "hit": false,
      "t": 57165.23999999992,
      "d": 162.40124999999534,
      "v": 74
    },
    {
      "midi": 66,
      "hit": false,
      "t": 57401.45999999991,
      "d": 314.9599999999991,
      "v": 106
    },
    {
      "midi": 62,
      "hit": false,
      "t": 57401.45999999991,
      "d": 332.1843749999971,
      "v": 82
    },
    {
      "midi": 50,
      "hit": false,
      "t": 57873.89999999991,
      "d": 494.5856249999997,
      "v": 105
    },
    {
      "midi": 49,
      "hit": false,
      "t": 58353.72187499991,
      "d": 221.45624999999563,
      "v": 96
    },
    {
      "midi": 47,
      "hit": false,
      "t": 58582.5599999999,
      "d": 708.6600000000035,
      "v": 95
    },
    {
      "midi": 59,
      "hit": false,
      "t": 58818.779999999904,
      "d": 142.71624999999767,
      "v": 86
    },
    {
      "midi": 62,
      "hit": false,
      "t": 58818.779999999904,
      "d": 142.71624999999767,
      "v": 78
    },
    {
      "midi": 66,
      "hit": false,
      "t": 59054.999999999905,
      "d": 450.2943749999977,
      "v": 96
    },
    {
      "midi": 69,
      "hit": false,
      "t": 59054.999999999905,
      "d": 460.1368749999965,
      "v": 91
    },
    {
      "midi": 62,
      "hit": false,
      "t": 59054.999999999905,
      "d": 474.90062499999476,
      "v": 84
    },
    {
      "midi": 66,
      "hit": false,
      "t": 59527.4399999999,
      "d": 243.6018750000003,
      "v": 92
    },
    {
      "midi": 47,
      "hit": false,
      "t": 59527.4399999999,
      "d": 246.0625,
      "v": 91
    },
    {
      "midi": 69,
      "hit": false,
      "t": 59527.4399999999,
      "d": 258.36562499999854,
      "v": 82
    },
    {
      "midi": 71,
      "hit": false,
      "t": 59780.8843749999,
      "d": 278.0506249999962,
      "v": 105
    },
    {
      "midi": 62,
      "hit": false,
      "t": 59780.8843749999,
      "d": 297.7356249999939,
      "v": 88
    },
    {
      "midi": 62,
      "hit": false,
      "t": 60245.942499999896,
      "d": 312.4993749999994,
      "v": 86
    },
    {
      "midi": 66,
      "hit": false,
      "t": 60248.403124999895,
      "d": 282.9718750000029,
      "v": 113
    },
    {
      "midi": 69,
      "hit": false,
      "t": 60248.403124999895,
      "d": 292.81437500000175,
      "v": 93
    },
    {
      "midi": 69,
      "hit": false,
      "t": 60708.53999999989,
      "d": 295.2749999999942,
      "v": 88
    },
    {
      "midi": 66,
      "hit": false,
      "t": 60711.00062499989,
      "d": 280.5112499999959,
      "v": 98
    },
    {
      "midi": 62,
      "hit": false,
      "t": 60713.46124999989,
      "d": 275.5899999999965,
      "v": 83
    },
    {
      "midi": 62,
      "hit": false,
      "t": 61180.97999999989,
      "d": 447.83374999999796,
      "v": 85
    },
    {
      "midi": 66,
      "hit": false,
      "t": 61180.97999999989,
      "d": 484.7431249999936,
      "v": 109
    },
    {
      "midi": 68,
      "hit": false,
      "t": 61653.41999999988,
      "d": 519.1918749999968,
      "v": 101
    },
    {
      "midi": 64,
      "hit": false,
      "t": 61653.41999999988,
      "d": 556.1012499999997,
      "v": 92
    },
    {
      "midi": 38,
      "hit": false,
      "t": 62362.07999999988,
      "d": 831.6912499999962,
      "v": 95
    },
    {
      "midi": 66,
      "hit": false,
      "t": 62834.51999999988,
      "d": 307.578125,
      "v": 82
    },
    {
      "midi": 69,
      "hit": false,
      "t": 62834.51999999988,
      "d": 334.6449999999968,
      "v": 76
    },
    {
      "midi": 61,
      "hit": false,
      "t": 62834.51999999988,
      "d": 342.0268749999959,
      "v": 80
    },
    {
      "midi": 66,
      "hit": false,
      "t": 63543.17999999988,
      "d": 287.8931250000023,
      "v": 96
    },
    {
      "midi": 61,
      "hit": false,
      "t": 63543.17999999988,
      "d": 317.42062499999884,
      "v": 103
    },
    {
      "midi": 69,
      "hit": false,
      "t": 63543.17999999988,
      "d": 322.34187499999825,
      "v": 86
    },
    {
      "midi": 47,
      "hit": false,
      "t": 64015.61999999987,
      "d": 221.4562500000029,
      "v": 81
    },
    {
      "midi": 49,
      "hit": false,
      "t": 64251.83999999987,
      "d": 834.1518749999959,
      "v": 94
    },
    {
      "midi": 64,
      "hit": false,
      "t": 64488.059999999874,
      "d": 314.9599999999991,
      "v": 86
    },
    {
      "midi": 68,
      "hit": false,
      "t": 64488.059999999874,
      "d": 334.6449999999968,
      "v": 90
    },
    {
      "midi": 59,
      "hit": false,
      "t": 64488.059999999874,
      "d": 349.40874999999505,
      "v": 82
    },
    {
      "midi": 59,
      "hit": false,
      "t": 64960.49999999987,
      "d": 661.9081250000017,
      "v": 82
    },
    {
      "midi": 56,
      "hit": false,
      "t": 64960.49999999987,
      "d": 671.7506250000006,
      "v": 92
    },
    {
      "midi": 47,
      "hit": false,
      "t": 66141.59999999987,
      "d": 696.3568749999977,
      "v": 105
    },
    {
      "midi": 69,
      "hit": false,
      "t": 66614.03999999988,
      "d": 440.45187499999884,
      "v": 82
    },
    {
      "midi": 66,
      "hit": false,
      "t": 66614.03999999988,
      "d": 455.2156249999971,
      "v": 103
    },
    {
      "midi": 62,
      "hit": false,
      "t": 66614.03999999988,
      "d": 467.5187500000029,
      "v": 86
    },
    {
      "midi": 62,
      "hit": false,
      "t": 67322.69999999988,
      "d": 307.578125,
      "v": 88
    },
    {
      "midi": 66,
      "hit": false,
      "t": 67322.69999999988,
      "d": 314.9600000000064,
      "v": 103
    },
    {
      "midi": 59,
      "hit": false,
      "t": 67322.69999999988,
      "d": 324.80250000000524,
      "v": 84
    },
    {
      "midi": 64,
      "hit": false,
      "t": 67795.13999999988,
      "d": 410.9243750000023,
      "v": 97
    },
    {
      "midi": 69,
      "hit": false,
      "t": 67795.13999999988,
      "d": 410.9243750000023,
      "v": 91
    },
    {
      "midi": 61,
      "hit": false,
      "t": 67795.13999999988,
      "d": 447.83375000000524,
      "v": 107
    },
    {
      "midi": 52,
      "hit": false,
      "t": 68267.57999999989,
      "d": 447.83375000000524,
      "v": 102
    },
    {
      "midi": 69,
      "hit": false,
      "t": 68740.01999999989,
      "d": 447.83375000000524,
      "v": 93
    },
    {
      "midi": 64,
      "hit": false,
      "t": 68740.01999999989,
      "d": 455.21562500001164,
      "v": 97
    },
    {
      "midi": 59,
      "hit": false,
      "t": 68740.01999999989,
      "d": 465.0581250000105,
      "v": 94
    },
    {
      "midi": 52,
      "hit": false,
      "t": 69212.4599999999,
      "d": 494.585625000007,
      "v": 93
    },
    {
      "midi": 38,
      "hit": false,
      "t": 69921.11999999991,
      "d": 831.691250000018,
      "v": 95
    },
    {
      "midi": 66,
      "hit": false,
      "t": 70393.55999999991,
      "d": 307.578125,
      "v": 82
    },
    {
      "midi": 69,
      "hit": false,
      "t": 70393.55999999991,
      "d": 334.6450000000041,
      "v": 76
    },
    {
      "midi": 61,
      "hit": false,
      "t": 70393.55999999991,
      "d": 342.0268750000105,
      "v": 80
    },
    {
      "midi": 66,
      "hit": false,
      "t": 71102.21999999993,
      "d": 287.8931250000023,
      "v": 96
    },
    {
      "midi": 61,
      "hit": false,
      "t": 71102.21999999993,
      "d": 317.42062499999884,
      "v": 103
    },
    {
      "midi": 69,
      "hit": false,
      "t": 71102.21999999993,
      "d": 322.34187499999825,
      "v": 86
    },
    {
      "midi": 47,
      "hit": false,
      "t": 71574.65999999993,
      "d": 221.4562500000029,
      "v": 81
    },
    {
      "midi": 49,
      "hit": false,
      "t": 71810.87999999993,
      "d": 834.1518750000105,
      "v": 94
    },
    {
      "midi": 64,
      "hit": false,
      "t": 72047.09999999993,
      "d": 314.9600000000064,
      "v": 86
    },
    {
      "midi": 68,
      "hit": false,
      "t": 72047.09999999993,
      "d": 334.6450000000041,
      "v": 90
    },
    {
      "midi": 59,
      "hit": false,
      "t": 72047.09999999993,
      "d": 349.4087500000023,
      "v": 82
    },
    {
      "midi": 59,
      "hit": false,
      "t": 72519.53999999994,
      "d": 661.9081250000017,
      "v": 82
    },
    {
      "midi": 56,
      "hit": false,
      "t": 72519.53999999994,
      "d": 671.7506250000006,
      "v": 92
    },
    {
      "midi": 47,
      "hit": false,
      "t": 73700.63999999994,
      "d": 696.3568749999977,
      "v": 105
    },
    {
      "midi": 69,
      "hit": false,
      "t": 74173.07999999994,
      "d": 440.45187499999884,
      "v": 82
    },
    {
      "midi": 66,
      "hit": false,
      "t": 74173.07999999994,
      "d": 455.2156249999971,
      "v": 103
    },
    {
      "midi": 62,
      "hit": false,
      "t": 74173.07999999994,
      "d": 467.5187500000029,
      "v": 86
    },
    {
      "midi": 62,
      "hit": false,
      "t": 74881.73999999995,
      "d": 307.578125,
      "v": 88
    },
    {
      "midi": 66,
      "hit": false,
      "t": 74881.73999999995,
      "d": 314.9600000000064,
      "v": 103
    },
    {
      "midi": 59,
      "hit": false,
      "t": 74881.73999999995,
      "d": 324.80250000000524,
      "v": 84
    },
    {
      "midi": 64,
      "hit": false,
      "t": 75354.17999999995,
      "d": 410.9243750000023,
      "v": 97
    },
    {
      "midi": 69,
      "hit": false,
      "t": 75354.17999999995,
      "d": 410.9243750000023,
      "v": 91
    },
    {
      "midi": 61,
      "hit": false,
      "t": 75354.17999999995,
      "d": 447.83375000000524,
      "v": 107
    },
    {
      "midi": 52,
      "hit": false,
      "t": 75826.61999999995,
      "d": 447.83375000000524,
      "v": 102
    },
    {
      "midi": 69,
      "hit": false,
      "t": 76299.05999999995,
      "d": 447.83375000000524,
      "v": 93
    },
    {
      "midi": 64,
      "hit": false,
      "t": 76299.05999999995,
      "d": 455.21562500001164,
      "v": 97
    },
    {
      "midi": 59,
      "hit": false,
      "t": 76299.05999999995,
      "d": 465.0581250000105,
      "v": 94
    },
    {
      "midi": 52,
      "hit": false,
      "t": 76771.49999999997,
      "d": 494.585625000007,
      "v": 93
    },
    {
      "midi": 64,
      "hit": false,
      "t": 77480.15999999997,
      "d": 922.734375,
      "v": 91
    },
    {
      "midi": 61,
      "hit": false,
      "t": 77480.15999999997,
      "d": 930.1162500000064,
      "v": 113
    },
    {
      "midi": 57,
      "hit": false,
      "t": 77480.15999999997,
      "d": 981.7893750000221,
      "v": 91
    },
    {
      "midi": 45,
      "hit": false,
      "t": 77487.54187499998,
      "d": 1186.0212500000343,
      "v": 108
    },
    {
      "midi": 47,
      "hit": false,
      "t": 78422.57937499999,
      "d": 179.62562500001513,
      "v": 103
    },
    {
      "midi": 62,
      "hit": false,
      "t": 78425.04,
      "d": 206.69250000000466,
      "v": 99
    },
    {
      "midi": 59,
      "hit": false,
      "t": 78425.04,
      "d": 216.5350000000035,
      "v": 96
    },
    {
      "midi": 61,
      "hit": false,
      "t": 78663.720625,
      "d": 187.00750000000698,
      "v": 103
    },
    {
      "midi": 64,
      "hit": false,
      "t": 78666.18125000001,
      "d": 174.70437500000116,
      "v": 93
    },
    {
      "midi": 49,
      "hit": false,
      "t": 78668.64187500002,
      "d": 118.11000000000058,
      "v": 118
    },
    {
      "midi": 49,
      "hit": false,
      "t": 79133.70000000001,
      "d": 885.8249999999971,
      "v": 96
    },
    {
      "midi": 59,
      "hit": false,
      "t": 79133.70000000001,
      "d": 920.273749999993,
      "v": 105
    },
    {
      "midi": 64,
      "hit": false,
      "t": 79133.70000000001,
      "d": 920.273749999993,
      "v": 105
    },
    {
      "midi": 68,
      "hit": false,
      "t": 79133.70000000001,
      "d": 920.273749999993,
      "v": 113
    },
    {
      "midi": 37,
      "hit": false,
      "t": 79606.14000000001,
      "d": 484.7431249999936,
      "v": 113
    },
    {
      "midi": 61,
      "hit": false,
      "t": 80078.58,
      "d": 1154.0331250000017,
      "v": 108
    },
    {
      "midi": 42,
      "hit": false,
      "t": 80078.58,
      "d": 1161.4150000000081,
      "v": 102
    },
    {
      "midi": 57,
      "hit": false,
      "t": 80078.58,
      "d": 1163.8756250000151,
      "v": 98
    },
    {
      "midi": 54,
      "hit": false,
      "t": 80078.58,
      "d": 1166.3362500000221,
      "v": 106
    },
    {
      "midi": 59,
      "hit": false,
      "t": 81259.68000000002,
      "d": 334.6450000000041,
      "v": 79
    },
    {
      "midi": 62,
      "hit": false,
      "t": 81259.68000000002,
      "d": 374.0149999999994,
      "v": 79
    },
    {
      "midi": 47,
      "hit": false,
      "t": 81259.68000000002,
      "d": 1611.7093750000058,
      "v": 112
    },
    {
      "midi": 57,
      "hit": false,
      "t": 81732.12000000002,
      "d": 369.09375,
      "v": 115
    },
    {
      "midi": 62,
      "hit": false,
      "t": 81732.12000000002,
      "d": 371.554375000007,
      "v": 115
    },
    {
      "midi": 62,
      "hit": false,
      "t": 82440.78000000003,
      "d": 243.60187499999302,
      "v": 95
    },
    {
      "midi": 57,
      "hit": false,
      "t": 82440.78000000003,
      "d": 265.7474999999977,
      "v": 105
    },
    {
      "midi": 52,
      "hit": false,
      "t": 82913.22000000003,
      "d": 374.0149999999994,
      "v": 108
    },
    {
      "midi": 57,
      "hit": false,
      "t": 82913.22000000003,
      "d": 462.5975000000035,
      "v": 102
    },
    {
      "midi": 64,
      "hit": false,
      "t": 82913.22000000003,
      "d": 880.9037500000122,
      "v": 95
    },
    {
      "midi": 52,
      "hit": false,
      "t": 83385.66000000003,
      "d": 406.0031250000029,
      "v": 88
    },
    {
      "midi": 56,
      "hit": false,
      "t": 83385.66000000003,
      "d": 450.2943750000122,
      "v": 109
    },
    {
      "midi": 52,
      "hit": false,
      "t": 83858.10000000005,
      "d": 310.038750000007,
      "v": 105
    },
    {
      "midi": 64,
      "hit": false,
      "t": 84094.32000000005,
      "d": 221.4562500000029,
      "v": 108
    },
    {
      "midi": 59,
      "hit": false,
      "t": 84094.32000000005,
      "d": 226.37750000000233,
      "v": 108
    },
    {
      "midi": 52,
      "hit": false,
      "t": 84330.54000000005,
      "d": 273.1293750000041,
      "v": 97
    },
    {
      "midi": 56,
      "hit": false,
      "t": 84566.76000000005,
      "d": 415.84562500000175,
      "v": 96
    },
    {
      "midi": 64,
      "hit": false,
      "t": 85039.20000000006,
      "d": 922.734375,
      "v": 91
    },
    {
      "midi": 61,
      "hit": false,
      "t": 85039.20000000006,
      "d": 930.1162500000064,
      "v": 113
    },
    {
      "midi": 57,
      "hit": false,
      "t": 85039.20000000006,
      "d": 981.7893750000221,
      "v": 91
    },
    {
      "midi": 45,
      "hit": false,
      "t": 85046.58187500006,
      "d": 1186.0212500000343,
      "v": 108
    },
    {
      "midi": 47,
      "hit": false,
      "t": 85981.61937500007,
      "d": 179.62562500001513,
      "v": 103
    },
    {
      "midi": 62,
      "hit": false,
      "t": 85984.08000000007,
      "d": 206.69250000000466,
      "v": 99
    },
    {
      "midi": 59,
      "hit": false,
      "t": 85984.08000000007,
      "d": 216.5350000000035,
      "v": 96
    },
    {
      "midi": 61,
      "hit": false,
      "t": 86222.76062500008,
      "d": 187.00750000000698,
      "v": 103
    },
    {
      "midi": 64,
      "hit": false,
      "t": 86225.22125000009,
      "d": 174.70437500000116,
      "v": 93
    },
    {
      "midi": 49,
      "hit": false,
      "t": 86227.6818750001,
      "d": 118.11000000000058,
      "v": 118
    },
    {
      "midi": 49,
      "hit": false,
      "t": 86692.74000000009,
      "d": 885.8249999999971,
      "v": 96
    },
    {
      "midi": 59,
      "hit": false,
      "t": 86692.74000000009,
      "d": 920.273749999993,
      "v": 105
    },
    {
      "midi": 64,
      "hit": false,
      "t": 86692.74000000009,
      "d": 920.273749999993,
      "v": 105
    },
    {
      "midi": 68,
      "hit": false,
      "t": 86692.74000000009,
      "d": 920.273749999993,
      "v": 113
    },
    {
      "midi": 37,
      "hit": false,
      "t": 87165.1800000001,
      "d": 484.7431249999936,
      "v": 113
    },
    {
      "midi": 61,
      "hit": false,
      "t": 87637.62000000008,
      "d": 1154.0331250000017,
      "v": 108
    },
    {
      "midi": 42,
      "hit": false,
      "t": 87637.62000000008,
      "d": 1161.4150000000081,
      "v": 102
    },
    {
      "midi": 57,
      "hit": false,
      "t": 87637.62000000008,
      "d": 1163.8756250000151,
      "v": 98
    },
    {
      "midi": 54,
      "hit": false,
      "t": 87637.62000000008,
      "d": 1166.3362500000221,
      "v": 106
    },
    {
      "midi": 59,
      "hit": false,
      "t": 88818.7200000001,
      "d": 334.6450000000041,
      "v": 79
    },
    {
      "midi": 62,
      "hit": false,
      "t": 88818.7200000001,
      "d": 374.0149999999994,
      "v": 79
    },
    {
      "midi": 47,
      "hit": false,
      "t": 88818.7200000001,
      "d": 1611.7093750000058,
      "v": 112
    },
    {
      "midi": 57,
      "hit": false,
      "t": 89291.1600000001,
      "d": 369.09375,
      "v": 115
    },
    {
      "midi": 62,
      "hit": false,
      "t": 89291.1600000001,
      "d": 371.554375000007,
      "v": 115
    },
    {
      "midi": 62,
      "hit": false,
      "t": 89999.82000000011,
      "d": 243.60187499999302,
      "v": 95
    },
    {
      "midi": 57,
      "hit": false,
      "t": 89999.82000000011,
      "d": 265.7474999999977,
      "v": 105
    },
    {
      "midi": 52,
      "hit": false,
      "t": 90472.26000000011,
      "d": 374.0149999999994,
      "v": 108
    },
    {
      "midi": 57,
      "hit": false,
      "t": 90472.26000000011,
      "d": 462.5975000000035,
      "v": 102
    },
    {
      "midi": 64,
      "hit": false,
      "t": 90472.26000000011,
      "d": 880.9037500000122,
      "v": 95
    },
    {
      "midi": 52,
      "hit": false,
      "t": 90944.70000000011,
      "d": 406.0031250000029,
      "v": 88
    },
    {
      "midi": 56,
      "hit": false,
      "t": 90944.70000000011,
      "d": 450.2943750000122,
      "v": 109
    },
    {
      "midi": 52,
      "hit": false,
      "t": 91417.14000000013,
      "d": 310.038750000007,
      "v": 105
    },
    {
      "midi": 64,
      "hit": false,
      "t": 91653.36000000013,
      "d": 221.4562500000029,
      "v": 108
    },
    {
      "midi": 59,
      "hit": false,
      "t": 91653.36000000013,
      "d": 226.37750000000233,
      "v": 108
    },
    {
      "midi": 52,
      "hit": false,
      "t": 91889.58000000013,
      "d": 273.1293750000041,
      "v": 97
    },
    {
      "midi": 56,
      "hit": false,
      "t": 92125.80000000013,
      "d": 415.84562500000175,
      "v": 96
    },
    {
      "midi": 38,
      "hit": false,
      "t": 92598.24000000014,
      "d": 730.8056250000081,
      "v": 93
    },
    {
      "midi": 73,
      "hit": false,
      "t": 93070.68000000014,
      "d": 248.52312500000698,
      "v": 89
    },
    {
      "midi": 66,
      "hit": false,
      "t": 93070.68000000014,
      "d": 260.8262500000128,
      "v": 96
    },
    {
      "midi": 69,
      "hit": false,
      "t": 93070.68000000014,
      "d": 260.8262500000128,
      "v": 91
    },
    {
      "midi": 57,
      "hit": false,
      "t": 93779.34000000016,
      "d": 216.5350000000035,
      "v": 86
    },
    {
      "midi": 66,
      "hit": false,
      "t": 93779.34000000016,
      "d": 221.4562500000029,
      "v": 92
    },
    {
      "midi": 68,
      "hit": false,
      "t": 94015.56000000016,
      "d": 86.12187499999709,
      "v": 83
    },
    {
      "midi": 59,
      "hit": false,
      "t": 94015.56000000016,
      "d": 105.80687499999476,
      "v": 67
    },
    {
      "midi": 62,
      "hit": false,
      "t": 94251.78000000016,
      "d": 359.25125000000116,
      "v": 76
    },
    {
      "midi": 69,
      "hit": false,
      "t": 94251.78000000016,
      "d": 467.5187500000029,
      "v": 88
    },
    {
      "midi": 66,
      "hit": false,
      "t": 94251.78000000016,
      "d": 477.36125000000175,
      "v": 109
    },
    {
      "midi": 68,
      "hit": false,
      "t": 94960.44000000016,
      "d": 152.5587499999965,
      "v": 103
    },
    {
      "midi": 64,
      "hit": false,
      "t": 94960.44000000016,
      "d": 162.40124999999534,
      "v": 74
    },
    {
      "midi": 66,
      "hit": false,
      "t": 95196.66000000016,
      "d": 314.9600000000064,
      "v": 106
    },
    {
      "midi": 62,
      "hit": false,
      "t": 95196.66000000016,
      "d": 332.18437500001164,
      "v": 82
    },
    {
      "midi": 50,
      "hit": false,
      "t": 95669.10000000018,
      "d": 494.585625000007,
      "v": 105
    },
    {
      "midi": 47,
      "hit": false,
      "t": 96377.76000000018,
      "d": 1173.718125000014,
      "v": 95
    },
    {
      "midi": 59,
      "hit": false,
      "t": 96628.74375000018,
      "d": 142.71624999999767,
      "v": 86
    },
    {
      "midi": 62,
      "hit": false,
      "t": 96628.74375000018,
      "d": 142.71624999999767,
      "v": 78
    },
    {
      "midi": 57,
      "hit": false,
      "t": 96850.20000000019,
      "d": 366.633124999993,
      "v": 86
    },
    {
      "midi": 62,
      "hit": false,
      "t": 96850.20000000019,
      "d": 369.09375,
      "v": 91
    },
    {
      "midi": 66,
      "hit": false,
      "t": 96850.20000000019,
      "d": 381.3968750000058,
      "v": 96
    },
    {
      "midi": 62,
      "hit": false,
      "t": 97558.8600000002,
      "d": 260.82624999999825,
      "v": 91
    },
    {
      "midi": 66,
      "hit": false,
      "t": 97558.8600000002,
      "d": 268.20812500000466,
      "v": 103
    },
    {
      "midi": 57,
      "hit": false,
      "t": 97558.8600000002,
      "d": 280.5112500000105,
      "v": 97
    },
    {
      "midi": 66,
      "hit": false,
      "t": 98031.30000000022,
      "d": 386.31812500000524,
      "v": 92
    },
    {
      "midi": 69,
      "hit": false,
      "t": 98031.30000000022,
      "d": 406.0031250000029,
      "v": 79
    },
    {
      "midi": 56,
      "hit": false,
      "t": 98503.74000000022,
      "d": 253.4443750000064,
      "v": 103
    },
    {
      "midi": 52,
      "hit": false,
      "t": 98503.74000000022,
      "d": 300.19625000000815,
      "v": 78
    },
    {
      "midi": 54,
      "hit": false,
      "t": 98976.18000000023,
      "d": 484.74312500000815,
      "v": 109
    },
    {
      "midi": 50,
      "hit": false,
      "t": 98976.18000000023,
      "d": 519.1918750000041,
      "v": 77
    },
    {
      "midi": 56,
      "hit": false,
      "t": 99448.62000000023,
      "d": 519.1918750000041,
      "v": 94
    },
    {
      "midi": 52,
      "hit": false,
      "t": 99448.62000000023,
      "d": 556.101250000007,
      "v": 82
    },
    {
      "midi": 38,
      "hit": false,
      "t": 100157.28000000023,
      "d": 730.8056250000081,
      "v": 93
    },
    {
      "midi": 73,
      "hit": false,
      "t": 100629.72000000023,
      "d": 248.52312500000698,
      "v": 89
    },
    {
      "midi": 66,
      "hit": false,
      "t": 100629.72000000023,
      "d": 260.8262500000128,
      "v": 96
    },
    {
      "midi": 69,
      "hit": false,
      "t": 100629.72000000023,
      "d": 260.8262500000128,
      "v": 91
    },
    {
      "midi": 57,
      "hit": false,
      "t": 101338.38000000025,
      "d": 216.5350000000035,
      "v": 86
    },
    {
      "midi": 66,
      "hit": false,
      "t": 101338.38000000025,
      "d": 221.4562500000029,
      "v": 92
    },
    {
      "midi": 68,
      "hit": false,
      "t": 101574.60000000025,
      "d": 86.12187499999709,
      "v": 83
    },
    {
      "midi": 59,
      "hit": false,
      "t": 101574.60000000025,
      "d": 105.80687499999476,
      "v": 70
    },
    {
      "midi": 61,
      "hit": false,
      "t": 101810.82000000025,
      "d": 359.25125000000116,
      "v": 81
    },
    {
      "midi": 69,
      "hit": false,
      "t": 101810.82000000025,
      "d": 467.5187500000029,
      "v": 88
    },
    {
      "midi": 66,
      "hit": false,
      "t": 101810.82000000025,
      "d": 477.36125000000175,
      "v": 109
    },
    {
      "midi": 68,
      "hit": false,
      "t": 102519.48000000026,
      "d": 152.5587499999965,
      "v": 103
    },
    {
      "midi": 64,
      "hit": false,
      "t": 102519.48000000026,
      "d": 162.40124999999534,
      "v": 74
    },
    {
      "midi": 66,
      "hit": false,
      "t": 102755.70000000026,
      "d": 314.9600000000064,
      "v": 106
    },
    {
      "midi": 62,
      "hit": false,
      "t": 102755.70000000026,
      "d": 332.18437500001164,
      "v": 82
    },
    {
      "midi": 50,
      "hit": false,
      "t": 103228.14000000028,
      "d": 494.58562499999243,
      "v": 105
    },
    {
      "midi": 49,
      "hit": false,
      "t": 103707.96187500027,
      "d": 221.4562500000029,
      "v": 96
    },
    {
      "midi": 47,
      "hit": false,
      "t": 103936.80000000028,
      "d": 708.6600000000035,
      "v": 95
    },
    {
      "midi": 59,
      "hit": false,
      "t": 104173.02000000028,
      "d": 142.71624999999767,
      "v": 86
    },
    {
      "midi": 62,
      "hit": false,
      "t": 104173.02000000028,
      "d": 142.71624999999767,
      "v": 78
    },
    {
      "midi": 66,
      "hit": false,
      "t": 104409.24000000028,
      "d": 450.2943749999977,
      "v": 96
    },
    {
      "midi": 69,
      "hit": false,
      "t": 104409.24000000028,
      "d": 460.1368749999965,
      "v": 91
    },
    {
      "midi": 62,
      "hit": false,
      "t": 104409.24000000028,
      "d": 474.9006250000093,
      "v": 84
    },
    {
      "midi": 66,
      "hit": false,
      "t": 104881.68000000028,
      "d": 243.60187500000757,
      "v": 92
    },
    {
      "midi": 47,
      "hit": false,
      "t": 104881.68000000028,
      "d": 246.06250000001455,
      "v": 91
    },
    {
      "midi": 69,
      "hit": false,
      "t": 104881.68000000028,
      "d": 258.3656250000204,
      "v": 82
    },
    {
      "midi": 71,
      "hit": false,
      "t": 105135.1243750003,
      "d": 278.0506250000035,
      "v": 105
    },
    {
      "midi": 62,
      "hit": false,
      "t": 105135.1243750003,
      "d": 297.73562500000116,
      "v": 88
    },
    {
      "midi": 62,
      "hit": false,
      "t": 105600.1825000003,
      "d": 312.49937500001397,
      "v": 86
    },
    {
      "midi": 66,
      "hit": false,
      "t": 105602.64312500031,
      "d": 282.9718750000029,
      "v": 113
    },
    {
      "midi": 69,
      "hit": false,
      "t": 105602.64312500031,
      "d": 292.81437500000175,
      "v": 93
    },
    {
      "midi": 69,
      "hit": false,
      "t": 106062.78000000032,
      "d": 295.2750000000233,
      "v": 88
    },
    {
      "midi": 66,
      "hit": false,
      "t": 106065.24062500033,
      "d": 280.5112500000105,
      "v": 98
    },
    {
      "midi": 62,
      "hit": false,
      "t": 106067.70125000033,
      "d": 275.5899999999965,
      "v": 83
    },
    {
      "midi": 62,
      "hit": false,
      "t": 106535.22000000034,
      "d": 447.83375000000524,
      "v": 85
    },
    {
      "midi": 66,
      "hit": false,
      "t": 106535.22000000034,
      "d": 484.74312500000815,
      "v": 109
    },
    {
      "midi": 68,
      "hit": false,
      "t": 107007.66000000034,
      "d": 519.1918750000041,
      "v": 101
    },
    {
      "midi": 64,
      "hit": false,
      "t": 107007.66000000034,
      "d": 556.101250000007,
      "v": 92
    },
    {
      "midi": 38,
      "hit": false,
      "t": 107716.32000000034,
      "d": 831.691250000018,
      "v": 95
    },
    {
      "midi": 66,
      "hit": false,
      "t": 108188.76000000034,
      "d": 307.578125,
      "v": 82
    },
    {
      "midi": 69,
      "hit": false,
      "t": 108188.76000000034,
      "d": 334.6450000000041,
      "v": 76
    },
    {
      "midi": 61,
      "hit": false,
      "t": 108188.76000000034,
      "d": 342.0268750000105,
      "v": 80
    },
    {
      "midi": 66,
      "hit": false,
      "t": 108897.42000000036,
      "d": 287.8931250000023,
      "v": 96
    },
    {
      "midi": 61,
      "hit": false,
      "t": 108897.42000000036,
      "d": 317.42062499999884,
      "v": 103
    },
    {
      "midi": 69,
      "hit": false,
      "t": 108897.42000000036,
      "d": 322.34187499999825,
      "v": 86
    },
    {
      "midi": 47,
      "hit": false,
      "t": 109369.86000000036,
      "d": 221.4562500000029,
      "v": 81
    },
    {
      "midi": 49,
      "hit": false,
      "t": 109606.08000000037,
      "d": 834.1518750000105,
      "v": 94
    },
    {
      "midi": 64,
      "hit": false,
      "t": 109842.30000000037,
      "d": 314.9600000000064,
      "v": 86
    },
    {
      "midi": 68,
      "hit": false,
      "t": 109842.30000000037,
      "d": 334.6450000000041,
      "v": 90
    },
    {
      "midi": 59,
      "hit": false,
      "t": 109842.30000000037,
      "d": 349.4087500000023,
      "v": 82
    },
    {
      "midi": 59,
      "hit": false,
      "t": 110314.74000000037,
      "d": 661.9081250000017,
      "v": 82
    },
    {
      "midi": 56,
      "hit": false,
      "t": 110314.74000000037,
      "d": 671.7506250000006,
      "v": 92
    },
    {
      "midi": 47,
      "hit": false,
      "t": 111495.84000000037,
      "d": 696.3568749999977,
      "v": 105
    },
    {
      "midi": 69,
      "hit": false,
      "t": 111968.28000000038,
      "d": 440.45187499999884,
      "v": 82
    },
    {
      "midi": 66,
      "hit": false,
      "t": 111968.28000000038,
      "d": 455.2156249999971,
      "v": 103
    },
    {
      "midi": 62,
      "hit": false,
      "t": 111968.28000000038,
      "d": 467.5187500000029,
      "v": 86
    },
    {
      "midi": 62,
      "hit": false,
      "t": 112676.94000000038,
      "d": 307.578125,
      "v": 88
    },
    {
      "midi": 66,
      "hit": false,
      "t": 112676.94000000038,
      "d": 314.9600000000064,
      "v": 103
    },
    {
      "midi": 59,
      "hit": false,
      "t": 112676.94000000038,
      "d": 324.80250000000524,
      "v": 84
    },
    {
      "midi": 64,
      "hit": false,
      "t": 113149.38000000038,
      "d": 410.9243750000023,
      "v": 97
    },
    {
      "midi": 69,
      "hit": false,
      "t": 113149.38000000038,
      "d": 410.9243750000023,
      "v": 91
    },
    {
      "midi": 61,
      "hit": false,
      "t": 113149.38000000038,
      "d": 447.83375000000524,
      "v": 107
    },
    {
      "midi": 52,
      "hit": false,
      "t": 113621.82000000039,
      "d": 447.83375000000524,
      "v": 102
    },
    {
      "midi": 69,
      "hit": false,
      "t": 114094.26000000039,
      "d": 447.83375000000524,
      "v": 93
    },
    {
      "midi": 64,
      "hit": false,
      "t": 114094.26000000039,
      "d": 455.21562500001164,
      "v": 97
    },
    {
      "midi": 59,
      "hit": false,
      "t": 114094.26000000039,
      "d": 465.0581250000105,
      "v": 94
    },
    {
      "midi": 52,
      "hit": false,
      "t": 114566.7000000004,
      "d": 494.585625000007,
      "v": 93
    },
    {
      "midi": 38,
      "hit": false,
      "t": 115275.36000000041,
      "d": 831.691250000018,
      "v": 95
    },
    {
      "midi": 66,
      "hit": false,
      "t": 115747.80000000041,
      "d": 307.578125,
      "v": 82
    },
    {
      "midi": 69,
      "hit": false,
      "t": 115747.80000000041,
      "d": 334.6450000000041,
      "v": 76
    },
    {
      "midi": 61,
      "hit": false,
      "t": 115747.80000000041,
      "d": 342.0268750000105,
      "v": 80
    },
    {
      "midi": 66,
      "hit": false,
      "t": 116456.46000000043,
      "d": 287.8931250000023,
      "v": 96
    },
    {
      "midi": 61,
      "hit": false,
      "t": 116456.46000000043,
      "d": 317.42062499999884,
      "v": 103
    },
    {
      "midi": 69,
      "hit": false,
      "t": 116456.46000000043,
      "d": 322.34187499999825,
      "v": 86
    },
    {
      "midi": 47,
      "hit": false,
      "t": 116928.90000000043,
      "d": 221.4562500000029,
      "v": 81
    },
    {
      "midi": 49,
      "hit": false,
      "t": 117165.12000000043,
      "d": 834.1518750000105,
      "v": 94
    },
    {
      "midi": 64,
      "hit": false,
      "t": 117401.34000000043,
      "d": 314.9600000000064,
      "v": 86
    },
    {
      "midi": 68,
      "hit": false,
      "t": 117401.34000000043,
      "d": 334.6450000000041,
      "v": 90
    },
    {
      "midi": 59,
      "hit": false,
      "t": 117401.34000000043,
      "d": 349.4087500000023,
      "v": 82
    },
    {
      "midi": 59,
      "hit": false,
      "t": 117873.78000000044,
      "d": 661.9081250000017,
      "v": 82
    },
    {
      "midi": 56,
      "hit": false,
      "t": 117873.78000000044,
      "d": 671.7506250000006,
      "v": 92
    },
    {
      "midi": 47,
      "hit": false,
      "t": 119054.88000000044,
      "d": 696.3568749999977,
      "v": 105
    },
    {
      "midi": 69,
      "hit": false,
      "t": 119527.32000000044,
      "d": 440.45187499999884,
      "v": 82
    },
    {
      "midi": 66,
      "hit": false,
      "t": 119527.32000000044,
      "d": 455.2156249999971,
      "v": 103
    },
    {
      "midi": 62,
      "hit": false,
      "t": 119527.32000000044,
      "d": 467.5187500000029,
      "v": 86
    },
    {
      "midi": 62,
      "hit": false,
      "t": 120235.98000000045,
      "d": 307.578125,
      "v": 88
    },
    {
      "midi": 66,
      "hit": false,
      "t": 120235.98000000045,
      "d": 314.9600000000064,
      "v": 103
    },
    {
      "midi": 59,
      "hit": false,
      "t": 120235.98000000045,
      "d": 324.80250000000524,
      "v": 84
    },
    {
      "midi": 64,
      "hit": false,
      "t": 120708.42000000045,
      "d": 410.9243750000023,
      "v": 97
    },
    {
      "midi": 69,
      "hit": false,
      "t": 120708.42000000045,
      "d": 410.9243750000023,
      "v": 91
    },
    {
      "midi": 61,
      "hit": false,
      "t": 120708.42000000045,
      "d": 447.83375000000524,
      "v": 107
    },
    {
      "midi": 52,
      "hit": false,
      "t": 121180.86000000045,
      "d": 447.83375000000524,
      "v": 102
    },
    {
      "midi": 69,
      "hit": false,
      "t": 121653.30000000045,
      "d": 447.83375000000524,
      "v": 93
    },
    {
      "midi": 64,
      "hit": false,
      "t": 121653.30000000045,
      "d": 455.21562500001164,
      "v": 97
    },
    {
      "midi": 59,
      "hit": false,
      "t": 121653.30000000045,
      "d": 465.0581250000105,
      "v": 94
    },
    {
      "midi": 52,
      "hit": false,
      "t": 122125.74000000047,
      "d": 494.585625000007,
      "v": 93
    },
    {
      "midi": 64,
      "hit": false,
      "t": 122834.40000000047,
      "d": 922.734375,
      "v": 91
    },
    {
      "midi": 61,
      "hit": false,
      "t": 122834.40000000047,
      "d": 930.1162500000064,
      "v": 113
    },
    {
      "midi": 57,
      "hit": false,
      "t": 122834.40000000047,
      "d": 981.7893750000221,
      "v": 91
    },
    {
      "midi": 45,
      "hit": false,
      "t": 122841.78187500048,
      "d": 1186.0212500000343,
      "v": 108
    },
    {
      "midi": 47,
      "hit": false,
      "t": 123776.81937500049,
      "d": 179.62562500001513,
      "v": 103
    },
    {
      "midi": 62,
      "hit": false,
      "t": 123779.2800000005,
      "d": 206.69250000000466,
      "v": 99
    },
    {
      "midi": 59,
      "hit": false,
      "t": 123779.2800000005,
      "d": 216.5350000000035,
      "v": 96
    },
    {
      "midi": 61,
      "hit": false,
      "t": 124017.9606250005,
      "d": 187.00750000000698,
      "v": 103
    },
    {
      "midi": 64,
      "hit": false,
      "t": 124020.42125000051,
      "d": 174.70437500000116,
      "v": 93
    },
    {
      "midi": 49,
      "hit": false,
      "t": 124022.88187500052,
      "d": 118.11000000000058,
      "v": 118
    },
    {
      "midi": 49,
      "hit": false,
      "t": 124487.94000000051,
      "d": 885.8249999999971,
      "v": 96
    },
    {
      "midi": 59,
      "hit": false,
      "t": 124487.94000000051,
      "d": 920.273749999993,
      "v": 105
    },
    {
      "midi": 64,
      "hit": false,
      "t": 124487.94000000051,
      "d": 920.273749999993,
      "v": 105
    },
    {
      "midi": 68,
      "hit": false,
      "t": 124487.94000000051,
      "d": 920.273749999993,
      "v": 113
    },
    {
      "midi": 37,
      "hit": false,
      "t": 124960.38000000051,
      "d": 484.7431249999936,
      "v": 113
    },
    {
      "midi": 61,
      "hit": false,
      "t": 125432.8200000005,
      "d": 1154.0331250000017,
      "v": 108
    },
    {
      "midi": 42,
      "hit": false,
      "t": 125432.8200000005,
      "d": 1161.4150000000081,
      "v": 102
    },
    {
      "midi": 57,
      "hit": false,
      "t": 125432.8200000005,
      "d": 1163.8756250000151,
      "v": 98
    },
    {
      "midi": 54,
      "hit": false,
      "t": 125432.8200000005,
      "d": 1166.3362500000221,
      "v": 106
    },
    {
      "midi": 64,
      "hit": false,
      "t": 126613.92000000052,
      "d": 922.734375,
      "v": 91
    },
    {
      "midi": 61,
      "hit": false,
      "t": 126613.92000000052,
      "d": 930.1162500000064,
      "v": 113
    },
    {
      "midi": 57,
      "hit": false,
      "t": 126613.92000000052,
      "d": 981.7893750000221,
      "v": 91
    },
    {
      "midi": 45,
      "hit": false,
      "t": 126621.30187500053,
      "d": 1186.0212500000343,
      "v": 108
    },
    {
      "midi": 47,
      "hit": false,
      "t": 127556.33937500053,
      "d": 179.62562500001513,
      "v": 103
    },
    {
      "midi": 62,
      "hit": false,
      "t": 127558.80000000054,
      "d": 206.69250000000466,
      "v": 99
    },
    {
      "midi": 59,
      "hit": false,
      "t": 127558.80000000054,
      "d": 216.5350000000035,
      "v": 96
    },
    {
      "midi": 61,
      "hit": false,
      "t": 127797.48062500055,
      "d": 187.00750000000698,
      "v": 103
    },
    {
      "midi": 64,
      "hit": false,
      "t": 127799.94125000056,
      "d": 174.70437500000116,
      "v": 93
    },
    {
      "midi": 49,
      "hit": false,
      "t": 127802.40187500056,
      "d": 118.11000000000058,
      "v": 118
    },
    {
      "midi": 68,
      "hit": false,
      "t": 128267.46000000056,
      "d": 418.3062499999942,
      "v": 113
    },
    {
      "midi": 49,
      "hit": false,
      "t": 128267.46000000056,
      "d": 885.8249999999971,
      "v": 96
    },
    {
      "midi": 59,
      "hit": false,
      "t": 128267.46000000056,
      "d": 920.273749999993,
      "v": 105
    },
    {
      "midi": 64,
      "hit": false,
      "t": 128267.46000000056,
      "d": 920.273749999993,
      "v": 105
    },
    {
      "midi": 68,
      "hit": false,
      "t": 128739.90000000055,
      "d": 105.80687500000931,
      "v": 97
    },
    {
      "midi": 71,
      "hit": false,
      "t": 128752.20312500055,
      "d": 105.80687500000931,
      "v": 97
    },
    {
      "midi": 61,
      "hit": false,
      "t": 129212.34000000055,
      "d": 1154.0331250000163,
      "v": 108
    },
    {
      "midi": 42,
      "hit": false,
      "t": 129212.34000000055,
      "d": 1161.4150000000227,
      "v": 102
    },
    {
      "midi": 57,
      "hit": false,
      "t": 129212.34000000055,
      "d": 1163.8756250000297,
      "v": 98
    },
    {
      "midi": 54,
      "hit": false,
      "t": 129212.34000000055,
      "d": 1166.3362500000367,
      "v": 106
    },
    {
      "midi": 30,
      "hit": false,
      "t": 129684.78000000055,
      "d": 437.9912500000064,
      "v": 94
    },
    {
      "midi": 32,
      "hit": false,
      "t": 130157.22000000055,
      "d": 191.9287500000064,
      "v": 92
    },
    {
      "midi": 64,
      "hit": false,
      "t": 130393.44000000058,
      "d": 922.734375,
      "v": 91
    },
    {
      "midi": 61,
      "hit": false,
      "t": 130393.44000000058,
      "d": 930.1162499999919,
      "v": 113
    },
    {
      "midi": 57,
      "hit": false,
      "t": 130393.44000000058,
      "d": 981.789374999993,
      "v": 91
    },
    {
      "midi": 45,
      "hit": false,
      "t": 130400.82187500059,
      "d": 1186.0212500000052,
      "v": 108
    },
    {
      "midi": 47,
      "hit": false,
      "t": 131335.85937500058,
      "d": 179.62562499998603,
      "v": 103
    },
    {
      "midi": 62,
      "hit": false,
      "t": 131338.3200000006,
      "d": 206.69249999997555,
      "v": 99
    },
    {
      "midi": 59,
      "hit": false,
      "t": 131338.3200000006,
      "d": 216.5349999999744,
      "v": 96
    },
    {
      "midi": 61,
      "hit": false,
      "t": 131577.00062500057,
      "d": 187.0075000000361,
      "v": 103
    },
    {
      "midi": 64,
      "hit": false,
      "t": 131579.46125000058,
      "d": 174.70437500003027,
      "v": 93
    },
    {
      "midi": 49,
      "hit": false,
      "t": 131581.92187500058,
      "d": 118.11000000001513,
      "v": 118
    },
    {
      "midi": 49,
      "hit": false,
      "t": 132046.9800000006,
      "d": 885.8250000000116,
      "v": 96
    },
    {
      "midi": 59,
      "hit": false,
      "t": 132046.9800000006,
      "d": 920.2737500000221,
      "v": 105
    },
    {
      "midi": 64,
      "hit": false,
      "t": 132046.9800000006,
      "d": 920.2737500000221,
      "v": 105
    },
    {
      "midi": 68,
      "hit": false,
      "t": 132046.9800000006,
      "d": 920.2737500000221,
      "v": 113
    },
    {
      "midi": 37,
      "hit": false,
      "t": 132519.4200000006,
      "d": 484.74312500003725,
      "v": 113
    },
    {
      "midi": 61,
      "hit": false,
      "t": 132991.86000000063,
      "d": 1154.0331250000163,
      "v": 108
    },
    {
      "midi": 42,
      "hit": false,
      "t": 132991.86000000063,
      "d": 1161.4150000000081,
      "v": 102
    },
    {
      "midi": 57,
      "hit": false,
      "t": 132991.86000000063,
      "d": 1163.8756250000151,
      "v": 98
    },
    {
      "midi": 54,
      "hit": false,
      "t": 132991.86000000063,
      "d": 1166.3362500000221,
      "v": 106
    },
    {
      "midi": 64,
      "hit": false,
      "t": 134172.96000000066,
      "d": 922.734375,
      "v": 91
    },
    {
      "midi": 61,
      "hit": false,
      "t": 134172.96000000066,
      "d": 930.1162499999919,
      "v": 113
    },
    {
      "midi": 57,
      "hit": false,
      "t": 134172.96000000066,
      "d": 981.789374999993,
      "v": 91
    },
    {
      "midi": 45,
      "hit": false,
      "t": 134180.34187500065,
      "d": 1186.0212500000198,
      "v": 108
    },
    {
      "midi": 47,
      "hit": false,
      "t": 135115.37937500066,
      "d": 179.62562499998603,
      "v": 103
    },
    {
      "midi": 62,
      "hit": false,
      "t": 135117.84000000067,
      "d": 206.69249999997555,
      "v": 99
    },
    {
      "midi": 59,
      "hit": false,
      "t": 135117.84000000067,
      "d": 216.5349999999744,
      "v": 96
    },
    {
      "midi": 61,
      "hit": false,
      "t": 135356.52062500064,
      "d": 187.0075000000361,
      "v": 103
    },
    {
      "midi": 64,
      "hit": false,
      "t": 135358.98125000065,
      "d": 174.70437500003027,
      "v": 93
    },
    {
      "midi": 49,
      "hit": false,
      "t": 135361.44187500066,
      "d": 118.11000000001513,
      "v": 118
    },
    {
      "midi": 68,
      "hit": false,
      "t": 135826.50000000067,
      "d": 418.3062499999942,
      "v": 113
    },
    {
      "midi": 49,
      "hit": false,
      "t": 135826.50000000067,
      "d": 885.8250000000116,
      "v": 96
    },
    {
      "midi": 59,
      "hit": false,
      "t": 135826.50000000067,
      "d": 920.2737500000221,
      "v": 105
    },
    {
      "midi": 64,
      "hit": false,
      "t": 135826.50000000067,
      "d": 920.2737500000221,
      "v": 105
    },
    {
      "midi": 68,
      "hit": false,
      "t": 136298.94000000067,
      "d": 105.80687500000931,
      "v": 97
    },
    {
      "midi": 71,
      "hit": false,
      "t": 136311.24312500068,
      "d": 105.80687500000931,
      "v": 97
    },
    {
      "midi": 61,
      "hit": false,
      "t": 136771.3800000007,
      "d": 1154.0331249999872,
      "v": 108
    },
    {
      "midi": 42,
      "hit": false,
      "t": 136771.3800000007,
      "d": 1161.414999999979,
      "v": 102
    },
    {
      "midi": 57,
      "hit": false,
      "t": 136771.3800000007,
      "d": 1163.875624999986,
      "v": 98
    },
    {
      "midi": 54,
      "hit": false,
      "t": 136771.3800000007,
      "d": 1166.336249999993,
      "v": 106
    },
    {
      "midi": 30,
      "hit": false,
      "t": 137243.8200000007,
      "d": 437.99124999999185,
      "v": 94
    },
    {
      "midi": 32,
      "hit": false,
      "t": 137716.2600000007,
      "d": 191.92874999999185,
      "v": 92
    },
    {
      "midi": 64,
      "hit": false,
      "t": 137952.4800000007,
      "d": 922.734375,
      "v": 91
    },
    {
      "midi": 61,
      "hit": false,
      "t": 137952.4800000007,
      "d": 930.1162499999919,
      "v": 113
    },
    {
      "midi": 57,
      "hit": false,
      "t": 137952.4800000007,
      "d": 981.789374999993,
      "v": 91
    },
    {
      "midi": 45,
      "hit": false,
      "t": 137959.8618750007,
      "d": 1186.0212500000198,
      "v": 108
    },
    {
      "midi": 47,
      "hit": false,
      "t": 138894.8993750007,
      "d": 179.62562499998603,
      "v": 103
    },
    {
      "midi": 62,
      "hit": false,
      "t": 138897.3600000007,
      "d": 206.69249999997555,
      "v": 99
    },
    {
      "midi": 59,
      "hit": false,
      "t": 138897.3600000007,
      "d": 216.5349999999744,
      "v": 96
    },
    {
      "midi": 61,
      "hit": false,
      "t": 139136.0406250007,
      "d": 187.0075000000361,
      "v": 103
    },
    {
      "midi": 64,
      "hit": false,
      "t": 139138.5012500007,
      "d": 174.70437500003027,
      "v": 93
    },
    {
      "midi": 49,
      "hit": false,
      "t": 139140.9618750007,
      "d": 118.11000000001513,
      "v": 118
    },
    {
      "midi": 49,
      "hit": false,
      "t": 139606.02000000072,
      "d": 885.8250000000116,
      "v": 96
    },
    {
      "midi": 59,
      "hit": false,
      "t": 139606.02000000072,
      "d": 920.2737500000221,
      "v": 105
    },
    {
      "midi": 64,
      "hit": false,
      "t": 139606.02000000072,
      "d": 920.2737500000221,
      "v": 105
    },
    {
      "midi": 68,
      "hit": false,
      "t": 139606.02000000072,
      "d": 920.2737500000221,
      "v": 113
    },
    {
      "midi": 37,
      "hit": false,
      "t": 140078.46000000072,
      "d": 484.74312500003725,
      "v": 113
    },
    {
      "midi": 61,
      "hit": false,
      "t": 140550.90000000075,
      "d": 1154.0331250000163,
      "v": 108
    },
    {
      "midi": 42,
      "hit": false,
      "t": 140550.90000000075,
      "d": 1161.4150000000081,
      "v": 102
    },
    {
      "midi": 57,
      "hit": false,
      "t": 140550.90000000075,
      "d": 1163.8756250000151,
      "v": 98
    },
    {
      "midi": 54,
      "hit": false,
      "t": 140550.90000000075,
      "d": 1166.3362500000221,
      "v": 106
    },
    {
      "midi": 59,
      "hit": false,
      "t": 141732.0000000008,
      "d": 334.6449999999895,
      "v": 79
    },
    {
      "midi": 62,
      "hit": false,
      "t": 141732.0000000008,
      "d": 374.01499999998487,
      "v": 79
    },
    {
      "midi": 47,
      "hit": false,
      "t": 141732.0000000008,
      "d": 1611.7093749999767,
      "v": 112
    },
    {
      "midi": 57,
      "hit": false,
      "t": 142204.44000000076,
      "d": 369.09375,
      "v": 115
    },
    {
      "midi": 62,
      "hit": false,
      "t": 142204.44000000076,
      "d": 371.554375000007,
      "v": 115
    },
    {
      "midi": 62,
      "hit": false,
      "t": 142913.10000000076,
      "d": 243.60187499999302,
      "v": 95
    },
    {
      "midi": 57,
      "hit": false,
      "t": 142913.10000000076,
      "d": 265.7474999999977,
      "v": 105
    },
    {
      "midi": 52,
      "hit": false,
      "t": 143385.54000000076,
      "d": 374.01500000001397,
      "v": 108
    },
    {
      "midi": 57,
      "hit": false,
      "t": 143385.54000000076,
      "d": 462.5975000000035,
      "v": 102
    },
    {
      "midi": 64,
      "hit": false,
      "t": 143385.54000000076,
      "d": 880.9037499999977,
      "v": 95
    },
    {
      "midi": 52,
      "hit": false,
      "t": 143857.98000000077,
      "d": 406.00312499998836,
      "v": 88
    },
    {
      "midi": 56,
      "hit": false,
      "t": 143857.98000000077,
      "d": 450.2943749999977,
      "v": 109
    },
    {
      "midi": 52,
      "hit": false,
      "t": 144330.42000000077,
      "d": 310.038750000007,
      "v": 105
    },
    {
      "midi": 64,
      "hit": false,
      "t": 144566.64000000077,
      "d": 221.45625000001746,
      "v": 108
    },
    {
      "midi": 59,
      "hit": false,
      "t": 144566.64000000077,
      "d": 226.37750000003143,
      "v": 108
    },
    {
      "midi": 52,
      "hit": false,
      "t": 144802.8600000008,
      "d": 273.1293749999895,
      "v": 97
    },
    {
      "midi": 56,
      "hit": false,
      "t": 145039.0800000008,
      "d": 415.8456249999872,
      "v": 96
    },
    {
      "midi": 64,
      "hit": false,
      "t": 145511.52000000078,
      "d": 922.734375,
      "v": 91
    },
    {
      "midi": 61,
      "hit": false,
      "t": 145511.52000000078,
      "d": 930.1162499999919,
      "v": 113
    },
    {
      "midi": 57,
      "hit": false,
      "t": 145511.52000000078,
      "d": 981.789374999993,
      "v": 91
    },
    {
      "midi": 45,
      "hit": false,
      "t": 145518.90187500077,
      "d": 1186.0212500000198,
      "v": 108
    },
    {
      "midi": 47,
      "hit": false,
      "t": 146453.93937500077,
      "d": 179.62562499998603,
      "v": 103
    },
    {
      "midi": 62,
      "hit": false,
      "t": 146456.40000000078,
      "d": 206.69249999997555,
      "v": 99
    },
    {
      "midi": 59,
      "hit": false,
      "t": 146456.40000000078,
      "d": 216.5349999999744,
      "v": 96
    },
    {
      "midi": 61,
      "hit": false,
      "t": 146695.08062500076,
      "d": 187.0075000000361,
      "v": 103
    },
    {
      "midi": 64,
      "hit": false,
      "t": 146697.54125000077,
      "d": 174.70437500003027,
      "v": 93
    },
    {
      "midi": 49,
      "hit": false,
      "t": 146700.00187500077,
      "d": 118.11000000001513,
      "v": 118
    },
    {
      "midi": 49,
      "hit": false,
      "t": 147165.06000000078,
      "d": 885.8250000000116,
      "v": 96
    },
    {
      "midi": 59,
      "hit": false,
      "t": 147165.06000000078,
      "d": 920.2737500000221,
      "v": 105
    },
    {
      "midi": 64,
      "hit": false,
      "t": 147165.06000000078,
      "d": 920.2737500000221,
      "v": 105
    },
    {
      "midi": 68,
      "hit": false,
      "t": 147165.06000000078,
      "d": 920.2737500000221,
      "v": 113
    },
    {
      "midi": 37,
      "hit": false,
      "t": 147637.5000000008,
      "d": 484.74312500003725,
      "v": 113
    },
    {
      "midi": 61,
      "hit": false,
      "t": 148109.94000000082,
      "d": 1154.0331250000163,
      "v": 108
    },
    {
      "midi": 42,
      "hit": false,
      "t": 148109.94000000082,
      "d": 1161.4150000000081,
      "v": 102
    },
    {
      "midi": 57,
      "hit": false,
      "t": 148109.94000000082,
      "d": 1163.8756250000151,
      "v": 98
    },
    {
      "midi": 54,
      "hit": false,
      "t": 148109.94000000082,
      "d": 1166.3362500000221,
      "v": 106
    },
    {
      "midi": 59,
      "hit": false,
      "t": 149291.04000000085,
      "d": 334.6449999999895,
      "v": 79
    },
    {
      "midi": 62,
      "hit": false,
      "t": 149291.04000000085,
      "d": 374.01499999998487,
      "v": 79
    },
    {
      "midi": 47,
      "hit": false,
      "t": 149291.04000000085,
      "d": 1611.7093749999767,
      "v": 112
    },
    {
      "midi": 57,
      "hit": false,
      "t": 149763.48000000083,
      "d": 369.09375,
      "v": 115
    },
    {
      "midi": 62,
      "hit": false,
      "t": 149763.48000000083,
      "d": 371.554375000007,
      "v": 115
    },
    {
      "midi": 62,
      "hit": false,
      "t": 150472.14000000083,
      "d": 243.60187499999302,
      "v": 95
    },
    {
      "midi": 57,
      "hit": false,
      "t": 150472.14000000083,
      "d": 265.7474999999977,
      "v": 105
    },
    {
      "midi": 52,
      "hit": false,
      "t": 150944.58000000083,
      "d": 374.01500000001397,
      "v": 108
    },
    {
      "midi": 57,
      "hit": false,
      "t": 150944.58000000083,
      "d": 462.5975000000035,
      "v": 102
    },
    {
      "midi": 64,
      "hit": false,
      "t": 150944.58000000083,
      "d": 880.9037499999977,
      "v": 95
    },
    {
      "midi": 52,
      "hit": false,
      "t": 151417.02000000083,
      "d": 406.00312499998836,
      "v": 88
    },
    {
      "midi": 56,
      "hit": false,
      "t": 151417.02000000083,
      "d": 450.2943749999977,
      "v": 109
    },
    {
      "midi": 52,
      "hit": false,
      "t": 151889.46000000084,
      "d": 310.038750000007,
      "v": 105
    },
    {
      "midi": 64,
      "hit": false,
      "t": 152125.68000000084,
      "d": 221.45625000001746,
      "v": 108
    },
    {
      "midi": 59,
      "hit": false,
      "t": 152125.68000000084,
      "d": 226.37750000003143,
      "v": 108
    },
    {
      "midi": 52,
      "hit": false,
      "t": 152361.90000000087,
      "d": 273.1293749999895,
      "v": 97
    },
    {
      "midi": 56,
      "hit": false,
      "t": 152598.12000000087,
      "d": 415.8456249999872,
      "v": 96
    },
    {
      "midi": 38,
      "hit": false,
      "t": 153070.56000000084,
      "d": 730.8056250000081,
      "v": 93
    },
    {
      "midi": 73,
      "hit": false,
      "t": 153543.00000000084,
      "d": 248.52312500000698,
      "v": 89
    },
    {
      "midi": 66,
      "hit": false,
      "t": 153543.00000000084,
      "d": 260.8262500000128,
      "v": 96
    },
    {
      "midi": 69,
      "hit": false,
      "t": 153543.00000000084,
      "d": 260.8262500000128,
      "v": 91
    },
    {
      "midi": 57,
      "hit": false,
      "t": 154251.66000000085,
      "d": 216.5350000000035,
      "v": 86
    },
    {
      "midi": 66,
      "hit": false,
      "t": 154251.66000000085,
      "d": 221.45625000001746,
      "v": 92
    },
    {
      "midi": 68,
      "hit": false,
      "t": 154487.88000000088,
      "d": 86.12187500001164,
      "v": 83
    },
    {
      "midi": 59,
      "hit": false,
      "t": 154487.88000000088,
      "d": 105.80687500000931,
      "v": 67
    },
    {
      "midi": 62,
      "hit": false,
      "t": 154724.10000000088,
      "d": 359.25125000000116,
      "v": 76
    },
    {
      "midi": 69,
      "hit": false,
      "t": 154724.10000000088,
      "d": 467.51874999998836,
      "v": 88
    },
    {
      "midi": 66,
      "hit": false,
      "t": 154724.10000000088,
      "d": 477.3612499999872,
      "v": 109
    },
    {
      "midi": 68,
      "hit": false,
      "t": 155432.76000000085,
      "d": 152.5587499999965,
      "v": 103
    },
    {
      "midi": 64,
      "hit": false,
      "t": 155432.76000000085,
      "d": 162.40124999999534,
      "v": 74
    },
    {
      "midi": 66,
      "hit": false,
      "t": 155668.98000000085,
      "d": 314.95999999999185,
      "v": 106
    },
    {
      "midi": 62,
      "hit": false,
      "t": 155668.98000000085,
      "d": 332.18437499998254,
      "v": 82
    },
    {
      "midi": 50,
      "hit": false,
      "t": 156141.42000000083,
      "d": 494.585625000007,
      "v": 105
    },
    {
      "midi": 47,
      "hit": false,
      "t": 156850.08000000083,
      "d": 1173.718125000014,
      "v": 95
    },
    {
      "midi": 59,
      "hit": false,
      "t": 157101.06375000085,
      "d": 142.71624999999767,
      "v": 86
    },
    {
      "midi": 62,
      "hit": false,
      "t": 157101.06375000085,
      "d": 142.71624999999767,
      "v": 78
    },
    {
      "midi": 57,
      "hit": false,
      "t": 157322.52000000083,
      "d": 366.633124999993,
      "v": 86
    },
    {
      "midi": 62,
      "hit": false,
      "t": 157322.52000000083,
      "d": 369.09375,
      "v": 91
    },
    {
      "midi": 66,
      "hit": false,
      "t": 157322.52000000083,
      "d": 381.3968750000058,
      "v": 96
    },
    {
      "midi": 62,
      "hit": false,
      "t": 158031.18000000084,
      "d": 260.8262500000128,
      "v": 91
    },
    {
      "midi": 66,
      "hit": false,
      "t": 158031.18000000084,
      "d": 268.20812500000466,
      "v": 103
    },
    {
      "midi": 57,
      "hit": false,
      "t": 158031.18000000084,
      "d": 280.5112500000105,
      "v": 97
    },
    {
      "midi": 66,
      "hit": false,
      "t": 158503.62000000084,
      "d": 386.3181249999907,
      "v": 92
    },
    {
      "midi": 69,
      "hit": false,
      "t": 158503.62000000084,
      "d": 406.00312499998836,
      "v": 79
    },
    {
      "midi": 68,
      "hit": false,
      "t": 158976.06000000084,
      "d": 253.44437499999185,
      "v": 103
    },
    {
      "midi": 64,
      "hit": false,
      "t": 158976.06000000084,
      "d": 300.19624999997905,
      "v": 78
    },
    {
      "midi": 66,
      "hit": false,
      "t": 159448.50000000081,
      "d": 484.74312500000815,
      "v": 109
    },
    {
      "midi": 62,
      "hit": false,
      "t": 159448.50000000081,
      "d": 519.1918750000186,
      "v": 77
    },
    {
      "midi": 68,
      "hit": false,
      "t": 159920.94000000082,
      "d": 519.1918750000186,
      "v": 94
    },
    {
      "midi": 64,
      "hit": false,
      "t": 159920.94000000082,
      "d": 556.101250000007,
      "v": 82
    },
    {
      "midi": 38,
      "hit": false,
      "t": 160629.60000000082,
      "d": 730.8056250000081,
      "v": 93
    },
    {
      "midi": 73,
      "hit": false,
      "t": 161102.04000000082,
      "d": 248.52312500000698,
      "v": 89
    },
    {
      "midi": 66,
      "hit": false,
      "t": 161102.04000000082,
      "d": 260.8262500000128,
      "v": 96
    },
    {
      "midi": 69,
      "hit": false,
      "t": 161102.04000000082,
      "d": 260.8262500000128,
      "v": 91
    },
    {
      "midi": 57,
      "hit": false,
      "t": 161810.70000000083,
      "d": 216.5350000000035,
      "v": 86
    },
    {
      "midi": 66,
      "hit": false,
      "t": 161810.70000000083,
      "d": 221.45625000001746,
      "v": 92
    },
    {
      "midi": 68,
      "hit": false,
      "t": 162046.92000000086,
      "d": 86.12187500001164,
      "v": 83
    },
    {
      "midi": 59,
      "hit": false,
      "t": 162046.92000000086,
      "d": 105.80687500000931,
      "v": 70
    },
    {
      "midi": 61,
      "hit": false,
      "t": 162283.14000000086,
      "d": 359.25125000000116,
      "v": 81
    },
    {
      "midi": 69,
      "hit": false,
      "t": 162283.14000000086,
      "d": 467.51874999998836,
      "v": 88
    },
    {
      "midi": 66,
      "hit": false,
      "t": 162283.14000000086,
      "d": 477.3612499999872,
      "v": 109
    },
    {
      "midi": 68,
      "hit": false,
      "t": 162991.80000000083,
      "d": 152.5587499999965,
      "v": 103
    },
    {
      "midi": 64,
      "hit": false,
      "t": 162991.80000000083,
      "d": 162.40124999999534,
      "v": 74
    },
    {
      "midi": 66,
      "hit": false,
      "t": 163228.02000000083,
      "d": 314.95999999999185,
      "v": 106
    },
    {
      "midi": 62,
      "hit": false,
      "t": 163228.02000000083,
      "d": 332.18437499998254,
      "v": 82
    },
    {
      "midi": 50,
      "hit": false,
      "t": 163700.4600000008,
      "d": 494.585625000007,
      "v": 105
    },
    {
      "midi": 49,
      "hit": false,
      "t": 164180.2818750008,
      "d": 221.45625000001746,
      "v": 96
    },
    {
      "midi": 47,
      "hit": false,
      "t": 164409.1200000008,
      "d": 708.6600000000035,
      "v": 95
    },
    {
      "midi": 59,
      "hit": false,
      "t": 164645.3400000008,
      "d": 142.71624999999767,
      "v": 86
    },
    {
      "midi": 62,
      "hit": false,
      "t": 164645.3400000008,
      "d": 142.71624999999767,
      "v": 78
    },
    {
      "midi": 66,
      "hit": false,
      "t": 164881.5600000008,
      "d": 450.2943749999977,
      "v": 96
    },
    {
      "midi": 69,
      "hit": false,
      "t": 164881.5600000008,
      "d": 460.1368749999965,
      "v": 91
    },
    {
      "midi": 62,
      "hit": false,
      "t": 164881.5600000008,
      "d": 474.9006250000093,
      "v": 84
    },
    {
      "midi": 66,
      "hit": false,
      "t": 165354.00000000081,
      "d": 243.60187499999302,
      "v": 92
    },
    {
      "midi": 47,
      "hit": false,
      "t": 165354.00000000081,
      "d": 246.0625,
      "v": 91
    },
    {
      "midi": 69,
      "hit": false,
      "t": 165354.00000000081,
      "d": 258.3656250000058,
      "v": 82
    },
    {
      "midi": 71,
      "hit": false,
      "t": 165607.4443750008,
      "d": 278.0506250000035,
      "v": 105
    },
    {
      "midi": 62,
      "hit": false,
      "t": 165607.4443750008,
      "d": 297.73562500000116,
      "v": 88
    },
    {
      "midi": 62,
      "hit": false,
      "t": 166072.50250000082,
      "d": 312.49937499998487,
      "v": 86
    },
    {
      "midi": 66,
      "hit": false,
      "t": 166074.96312500082,
      "d": 282.97187499998836,
      "v": 113
    },
    {
      "midi": 69,
      "hit": false,
      "t": 166074.96312500082,
      "d": 292.8143749999872,
      "v": 93
    },
    {
      "midi": 69,
      "hit": false,
      "t": 166535.1000000008,
      "d": 295.2750000000233,
      "v": 88
    },
    {
      "midi": 66,
      "hit": false,
      "t": 166537.5606250008,
      "d": 280.5112500000105,
      "v": 98
    },
    {
      "midi": 62,
      "hit": false,
      "t": 166540.0212500008,
      "d": 275.5899999999965,
      "v": 83
    },
    {
      "midi": 62,
      "hit": false,
      "t": 167007.54000000082,
      "d": 447.8337499999907,
      "v": 85
    },
    {
      "midi": 66,
      "hit": false,
      "t": 167007.54000000082,
      "d": 484.74312500000815,
      "v": 109
    },
    {
      "midi": 68,
      "hit": false,
      "t": 167479.98000000083,
      "d": 519.1918750000186,
      "v": 101
    },
    {
      "midi": 64,
      "hit": false,
      "t": 167479.98000000083,
      "d": 556.101250000007,
      "v": 92
    },
    {
      "midi": 38,
      "hit": false,
      "t": 168188.64000000083,
      "d": 831.6912499999744,
      "v": 95
    },
    {
      "midi": 66,
      "hit": false,
      "t": 168661.08000000083,
      "d": 307.578125,
      "v": 82
    },
    {
      "midi": 69,
      "hit": false,
      "t": 168661.08000000083,
      "d": 334.6449999999895,
      "v": 76
    },
    {
      "midi": 61,
      "hit": false,
      "t": 168661.08000000083,
      "d": 342.0268749999814,
      "v": 80
    },
    {
      "midi": 66,
      "hit": false,
      "t": 169369.7400000008,
      "d": 287.8931250000023,
      "v": 96
    },
    {
      "midi": 61,
      "hit": false,
      "t": 169369.7400000008,
      "d": 317.42062499999884,
      "v": 103
    },
    {
      "midi": 69,
      "hit": false,
      "t": 169369.7400000008,
      "d": 322.3418750000128,
      "v": 86
    },
    {
      "midi": 47,
      "hit": false,
      "t": 169842.1800000008,
      "d": 221.45624999998836,
      "v": 81
    },
    {
      "midi": 49,
      "hit": false,
      "t": 170078.4000000008,
      "d": 834.1518750000105,
      "v": 94
    },
    {
      "midi": 64,
      "hit": false,
      "t": 170314.6200000008,
      "d": 314.95999999999185,
      "v": 86
    },
    {
      "midi": 68,
      "hit": false,
      "t": 170314.6200000008,
      "d": 334.6449999999895,
      "v": 90
    },
    {
      "midi": 59,
      "hit": false,
      "t": 170314.6200000008,
      "d": 349.4087500000023,
      "v": 82
    },
    {
      "midi": 59,
      "hit": false,
      "t": 170787.0600000008,
      "d": 661.9081250000163,
      "v": 82
    },
    {
      "midi": 56,
      "hit": false,
      "t": 170787.0600000008,
      "d": 671.7506250000151,
      "v": 92
    },
    {
      "midi": 47,
      "hit": false,
      "t": 171968.16000000082,
      "d": 696.3568749999977,
      "v": 105
    },
    {
      "midi": 69,
      "hit": false,
      "t": 172440.60000000082,
      "d": 440.45187499999884,
      "v": 82
    },
    {
      "midi": 66,
      "hit": false,
      "t": 172440.60000000082,
      "d": 455.21562500001164,
      "v": 103
    },
    {
      "midi": 62,
      "hit": false,
      "t": 172440.60000000082,
      "d": 467.51875000001746,
      "v": 86
    },
    {
      "midi": 62,
      "hit": false,
      "t": 173149.26000000082,
      "d": 307.578125,
      "v": 88
    },
    {
      "midi": 66,
      "hit": false,
      "t": 173149.26000000082,
      "d": 314.95999999999185,
      "v": 103
    },
    {
      "midi": 59,
      "hit": false,
      "t": 173149.26000000082,
      "d": 324.8024999999907,
      "v": 84
    },
    {
      "midi": 64,
      "hit": false,
      "t": 173621.70000000083,
      "d": 410.9243750000023,
      "v": 97
    },
    {
      "midi": 69,
      "hit": false,
      "t": 173621.70000000083,
      "d": 410.9243750000023,
      "v": 91
    },
    {
      "midi": 61,
      "hit": false,
      "t": 173621.70000000083,
      "d": 447.8337499999907,
      "v": 107
    },
    {
      "midi": 52,
      "hit": false,
      "t": 174094.14000000083,
      "d": 447.8337499999907,
      "v": 102
    },
    {
      "midi": 69,
      "hit": false,
      "t": 174566.58000000083,
      "d": 447.8337499999907,
      "v": 93
    },
    {
      "midi": 64,
      "hit": false,
      "t": 174566.58000000083,
      "d": 455.21562499998254,
      "v": 97
    },
    {
      "midi": 59,
      "hit": false,
      "t": 174566.58000000083,
      "d": 465.0581249999814,
      "v": 94
    },
    {
      "midi": 52,
      "hit": false,
      "t": 175039.0200000008,
      "d": 494.585625000007,
      "v": 93
    },
    {
      "midi": 38,
      "hit": false,
      "t": 175747.6800000008,
      "d": 831.6912499999744,
      "v": 95
    },
    {
      "midi": 66,
      "hit": false,
      "t": 176220.1200000008,
      "d": 307.578125,
      "v": 82
    },
    {
      "midi": 69,
      "hit": false,
      "t": 176220.1200000008,
      "d": 334.6449999999895,
      "v": 76
    },
    {
      "midi": 61,
      "hit": false,
      "t": 176220.1200000008,
      "d": 342.0268749999814,
      "v": 80
    },
    {
      "midi": 66,
      "hit": false,
      "t": 176928.78000000078,
      "d": 287.8931250000023,
      "v": 96
    },
    {
      "midi": 61,
      "hit": false,
      "t": 176928.78000000078,
      "d": 317.42062499999884,
      "v": 103
    },
    {
      "midi": 69,
      "hit": false,
      "t": 176928.78000000078,
      "d": 322.3418750000128,
      "v": 86
    },
    {
      "midi": 47,
      "hit": false,
      "t": 177401.2200000008,
      "d": 221.45624999998836,
      "v": 81
    },
    {
      "midi": 49,
      "hit": false,
      "t": 177637.4400000008,
      "d": 834.1518750000105,
      "v": 94
    },
    {
      "midi": 64,
      "hit": false,
      "t": 177873.6600000008,
      "d": 314.95999999999185,
      "v": 86
    },
    {
      "midi": 68,
      "hit": false,
      "t": 177873.6600000008,
      "d": 334.6449999999895,
      "v": 90
    },
    {
      "midi": 59,
      "hit": false,
      "t": 177873.6600000008,
      "d": 349.4087500000023,
      "v": 82
    },
    {
      "midi": 59,
      "hit": false,
      "t": 178346.1000000008,
      "d": 661.9081250000163,
      "v": 82
    },
    {
      "midi": 56,
      "hit": false,
      "t": 178346.1000000008,
      "d": 671.7506250000151,
      "v": 92
    },
    {
      "midi": 47,
      "hit": false,
      "t": 179527.2000000008,
      "d": 696.3568749999977,
      "v": 105
    },
    {
      "midi": 69,
      "hit": false,
      "t": 179999.6400000008,
      "d": 440.45187499999884,
      "v": 82
    },
    {
      "midi": 66,
      "hit": false,
      "t": 179999.6400000008,
      "d": 455.21562500001164,
      "v": 103
    },
    {
      "midi": 62,
      "hit": false,
      "t": 179999.6400000008,
      "d": 467.51875000001746,
      "v": 86
    },
    {
      "midi": 62,
      "hit": false,
      "t": 180708.3000000008,
      "d": 307.578125,
      "v": 88
    },
    {
      "midi": 66,
      "hit": false,
      "t": 180708.3000000008,
      "d": 314.95999999999185,
      "v": 103
    },
    {
      "midi": 59,
      "hit": false,
      "t": 180708.3000000008,
      "d": 324.8024999999907,
      "v": 84
    },
    {
      "midi": 64,
      "hit": false,
      "t": 181180.7400000008,
      "d": 410.9243750000023,
      "v": 97
    },
    {
      "midi": 69,
      "hit": false,
      "t": 181180.7400000008,
      "d": 410.9243750000023,
      "v": 91
    },
    {
      "midi": 61,
      "hit": false,
      "t": 181180.7400000008,
      "d": 447.8337499999907,
      "v": 107
    },
    {
      "midi": 52,
      "hit": false,
      "t": 181653.1800000008,
      "d": 447.8337499999907,
      "v": 102
    },
    {
      "midi": 69,
      "hit": false,
      "t": 182125.6200000008,
      "d": 447.8337499999907,
      "v": 93
    },
    {
      "midi": 64,
      "hit": false,
      "t": 182125.6200000008,
      "d": 455.21562499998254,
      "v": 97
    },
    {
      "midi": 59,
      "hit": false,
      "t": 182125.6200000008,
      "d": 465.0581249999814,
      "v": 94
    },
    {
      "midi": 52,
      "hit": false,
      "t": 182598.06000000078,
      "d": 494.585625000007,
      "v": 93
    },
    {
      "midi": 64,
      "hit": false,
      "t": 183306.7200000008,
      "d": 922.734375,
      "v": 91
    },
    {
      "midi": 61,
      "hit": false,
      "t": 183306.7200000008,
      "d": 930.1162499999919,
      "v": 113
    },
    {
      "midi": 57,
      "hit": false,
      "t": 183306.7200000008,
      "d": 981.789374999993,
      "v": 91
    },
    {
      "midi": 45,
      "hit": false,
      "t": 183314.10187500078,
      "d": 1186.0212500000198,
      "v": 108
    },
    {
      "midi": 47,
      "hit": false,
      "t": 184249.13937500078,
      "d": 179.62562499998603,
      "v": 103
    },
    {
      "midi": 62,
      "hit": false,
      "t": 184251.6000000008,
      "d": 206.69249999997555,
      "v": 99
    },
    {
      "midi": 59,
      "hit": false,
      "t": 184251.6000000008,
      "d": 216.5349999999744,
      "v": 96
    },
    {
      "midi": 61,
      "hit": false,
      "t": 184490.28062500077,
      "d": 187.0075000000361,
      "v": 103
    },
    {
      "midi": 64,
      "hit": false,
      "t": 184492.74125000078,
      "d": 174.70437500003027,
      "v": 93
    },
    {
      "midi": 49,
      "hit": false,
      "t": 184495.20187500078,
      "d": 118.11000000001513,
      "v": 118
    },
    {
      "midi": 49,
      "hit": false,
      "t": 184960.2600000008,
      "d": 885.8250000000116,
      "v": 96
    },
    {
      "midi": 59,
      "hit": false,
      "t": 184960.2600000008,
      "d": 920.2737500000221,
      "v": 105
    },
    {
      "midi": 64,
      "hit": false,
      "t": 184960.2600000008,
      "d": 920.2737500000221,
      "v": 105
    },
    {
      "midi": 68,
      "hit": false,
      "t": 184960.2600000008,
      "d": 920.2737500000221,
      "v": 113
    },
    {
      "midi": 37,
      "hit": false,
      "t": 185432.7000000008,
      "d": 484.74312500003725,
      "v": 113
    },
    {
      "midi": 61,
      "hit": false,
      "t": 185905.14000000083,
      "d": 1154.0331250000163,
      "v": 108
    },
    {
      "midi": 42,
      "hit": false,
      "t": 185905.14000000083,
      "d": 1161.4150000000081,
      "v": 102
    },
    {
      "midi": 57,
      "hit": false,
      "t": 185905.14000000083,
      "d": 1163.8756250000151,
      "v": 98
    },
    {
      "midi": 54,
      "hit": false,
      "t": 185905.14000000083,
      "d": 1166.3362500000221,
      "v": 106
    },
    {
      "midi": 64,
      "hit": false,
      "t": 187086.24000000086,
      "d": 922.734375,
      "v": 91
    },
    {
      "midi": 61,
      "hit": false,
      "t": 187086.24000000086,
      "d": 930.1162499999919,
      "v": 113
    },
    {
      "midi": 57,
      "hit": false,
      "t": 187086.24000000086,
      "d": 981.789374999993,
      "v": 91
    },
    {
      "midi": 45,
      "hit": false,
      "t": 187093.62187500086,
      "d": 1186.0212500000198,
      "v": 108
    },
    {
      "midi": 47,
      "hit": false,
      "t": 188028.65937500086,
      "d": 179.62562499998603,
      "v": 103
    },
    {
      "midi": 62,
      "hit": false,
      "t": 188031.12000000087,
      "d": 206.69249999997555,
      "v": 99
    },
    {
      "midi": 59,
      "hit": false,
      "t": 188031.12000000087,
      "d": 216.5349999999744,
      "v": 96
    },
    {
      "midi": 61,
      "hit": false,
      "t": 188269.80062500085,
      "d": 187.0075000000361,
      "v": 103
    },
    {
      "midi": 64,
      "hit": false,
      "t": 188272.26125000085,
      "d": 174.70437500003027,
      "v": 93
    },
    {
      "midi": 49,
      "hit": false,
      "t": 188274.72187500086,
      "d": 118.11000000001513,
      "v": 118
    },
    {
      "midi": 68,
      "hit": false,
      "t": 188739.78000000087,
      "d": 418.3062499999942,
      "v": 113
    },
    {
      "midi": 49,
      "hit": false,
      "t": 188739.78000000087,
      "d": 885.8250000000116,
      "v": 96
    },
    {
      "midi": 59,
      "hit": false,
      "t": 188739.78000000087,
      "d": 920.2737500000221,
      "v": 105
    },
    {
      "midi": 64,
      "hit": false,
      "t": 188739.78000000087,
      "d": 920.2737500000221,
      "v": 105
    },
    {
      "midi": 68,
      "hit": false,
      "t": 189212.22000000087,
      "d": 105.80687500000931,
      "v": 97
    },
    {
      "midi": 71,
      "hit": false,
      "t": 189224.52312500088,
      "d": 105.80687500000931,
      "v": 97
    },
    {
      "midi": 61,
      "hit": false,
      "t": 189684.6600000009,
      "d": 1154.0331249999872,
      "v": 108
    },
    {
      "midi": 42,
      "hit": false,
      "t": 189684.6600000009,
      "d": 1161.414999999979,
      "v": 102
    },
    {
      "midi": 57,
      "hit": false,
      "t": 189684.6600000009,
      "d": 1163.875624999986,
      "v": 98
    },
    {
      "midi": 54,
      "hit": false,
      "t": 189684.6600000009,
      "d": 1166.336249999993,
      "v": 106
    },
    {
      "midi": 30,
      "hit": false,
      "t": 190157.1000000009,
      "d": 437.99124999999185,
      "v": 94
    },
    {
      "midi": 32,
      "hit": false,
      "t": 190629.5400000009,
      "d": 191.92874999999185,
      "v": 92
    },
    {
      "midi": 64,
      "hit": false,
      "t": 190865.7600000009,
      "d": 922.734375,
      "v": 91
    },
    {
      "midi": 61,
      "hit": false,
      "t": 190865.7600000009,
      "d": 930.1162499999919,
      "v": 113
    },
    {
      "midi": 57,
      "hit": false,
      "t": 190865.7600000009,
      "d": 981.789374999993,
      "v": 91
    },
    {
      "midi": 45,
      "hit": false,
      "t": 190873.1418750009,
      "d": 1186.0212500000198,
      "v": 108
    },
    {
      "midi": 47,
      "hit": false,
      "t": 191808.1793750009,
      "d": 179.62562499998603,
      "v": 103
    },
    {
      "midi": 62,
      "hit": false,
      "t": 191810.64000000092,
      "d": 206.69249999997555,
      "v": 99
    },
    {
      "midi": 59,
      "hit": false,
      "t": 191810.64000000092,
      "d": 216.5349999999744,
      "v": 96
    },
    {
      "midi": 61,
      "hit": false,
      "t": 192049.3206250009,
      "d": 187.0075000000361,
      "v": 103
    },
    {
      "midi": 64,
      "hit": false,
      "t": 192051.7812500009,
      "d": 174.70437500003027,
      "v": 93
    },
    {
      "midi": 49,
      "hit": false,
      "t": 192054.2418750009,
      "d": 118.11000000001513,
      "v": 118
    },
    {
      "midi": 49,
      "hit": false,
      "t": 192519.30000000092,
      "d": 885.8250000000116,
      "v": 96
    },
    {
      "midi": 59,
      "hit": false,
      "t": 192519.30000000092,
      "d": 920.2737500000221,
      "v": 105
    },
    {
      "midi": 64,
      "hit": false,
      "t": 192519.30000000092,
      "d": 920.2737500000221,
      "v": 105
    },
    {
      "midi": 68,
      "hit": false,
      "t": 192519.30000000092,
      "d": 920.2737500000221,
      "v": 113
    },
    {
      "midi": 37,
      "hit": false,
      "t": 192991.74000000092,
      "d": 484.74312500003725,
      "v": 113
    },
    {
      "midi": 61,
      "hit": false,
      "t": 193464.18000000095,
      "d": 1154.0331250000163,
      "v": 108
    },
    {
      "midi": 42,
      "hit": false,
      "t": 193464.18000000095,
      "d": 1161.4150000000081,
      "v": 102
    },
    {
      "midi": 57,
      "hit": false,
      "t": 193464.18000000095,
      "d": 1163.8756250000151,
      "v": 98
    },
    {
      "midi": 54,
      "hit": false,
      "t": 193464.18000000095,
      "d": 1166.3362500000221,
      "v": 106
    },
    {
      "midi": 64,
      "hit": false,
      "t": 194645.280000001,
      "d": 922.734375,
      "v": 91
    },
    {
      "midi": 61,
      "hit": false,
      "t": 194645.280000001,
      "d": 930.1162499999919,
      "v": 113
    },
    {
      "midi": 57,
      "hit": false,
      "t": 194645.280000001,
      "d": 981.789374999993,
      "v": 91
    },
    {
      "midi": 45,
      "hit": false,
      "t": 194652.66187500098,
      "d": 1186.0212500000198,
      "v": 108
    },
    {
      "midi": 47,
      "hit": false,
      "t": 195587.699375001,
      "d": 179.62562499998603,
      "v": 103
    },
    {
      "midi": 62,
      "hit": false,
      "t": 195590.160000001,
      "d": 206.69249999997555,
      "v": 99
    },
    {
      "midi": 59,
      "hit": false,
      "t": 195590.160000001,
      "d": 216.5349999999744,
      "v": 96
    },
    {
      "midi": 61,
      "hit": false,
      "t": 195828.84062500097,
      "d": 187.0075000000361,
      "v": 103
    },
    {
      "midi": 64,
      "hit": false,
      "t": 195831.30125000098,
      "d": 174.70437500003027,
      "v": 93
    },
    {
      "midi": 49,
      "hit": false,
      "t": 195833.761875001,
      "d": 118.11000000001513,
      "v": 118
    },
    {
      "midi": 68,
      "hit": false,
      "t": 196298.820000001,
      "d": 418.3062499999942,
      "v": 113
    },
    {
      "midi": 49,
      "hit": false,
      "t": 196298.820000001,
      "d": 885.8250000000116,
      "v": 96
    },
    {
      "midi": 59,
      "hit": false,
      "t": 196298.820000001,
      "d": 920.2737500000221,
      "v": 105
    },
    {
      "midi": 64,
      "hit": false,
      "t": 196298.820000001,
      "d": 920.2737500000221,
      "v": 105
    },
    {
      "midi": 68,
      "hit": false,
      "t": 196771.260000001,
      "d": 105.80687500000931,
      "v": 97
    },
    {
      "midi": 71,
      "hit": false,
      "t": 196783.563125001,
      "d": 105.80687500000931,
      "v": 97
    },
    {
      "midi": 61,
      "hit": false,
      "t": 197243.70000000103,
      "d": 1154.0331249999872,
      "v": 108
    },
    {
      "midi": 42,
      "hit": false,
      "t": 197243.70000000103,
      "d": 1161.414999999979,
      "v": 102
    },
    {
      "midi": 57,
      "hit": false,
      "t": 197243.70000000103,
      "d": 1163.875624999986,
      "v": 98
    },
    {
      "midi": 54,
      "hit": false,
      "t": 197243.70000000103,
      "d": 1166.336249999993,
      "v": 106
    },
    {
      "midi": 30,
      "hit": false,
      "t": 197716.14000000103,
      "d": 437.99124999999185,
      "v": 94
    },
    {
      "midi": 32,
      "hit": false,
      "t": 198188.58000000103,
      "d": 191.92874999999185,
      "v": 92
    },
    {
      "midi": 64,
      "hit": false,
      "t": 198424.80000000104,
      "d": 922.734375,
      "v": 91
    },
    {
      "midi": 61,
      "hit": false,
      "t": 198424.80000000104,
      "d": 930.1162499999919,
      "v": 113
    },
    {
      "midi": 57,
      "hit": false,
      "t": 198424.80000000104,
      "d": 981.789374999993,
      "v": 91
    },
    {
      "midi": 45,
      "hit": false,
      "t": 198432.18187500103,
      "d": 1186.0212500000198,
      "v": 108
    },
    {
      "midi": 47,
      "hit": false,
      "t": 199367.21937500103,
      "d": 179.62562499998603,
      "v": 103
    },
    {
      "midi": 62,
      "hit": false,
      "t": 199369.68000000104,
      "d": 206.69249999997555,
      "v": 99
    },
    {
      "midi": 59,
      "hit": false,
      "t": 199369.68000000104,
      "d": 216.5349999999744,
      "v": 96
    },
    {
      "midi": 61,
      "hit": false,
      "t": 199608.36062500102,
      "d": 187.0075000000361,
      "v": 103
    },
    {
      "midi": 64,
      "hit": false,
      "t": 199610.82125000103,
      "d": 174.70437500003027,
      "v": 93
    },
    {
      "midi": 49,
      "hit": false,
      "t": 199613.28187500103,
      "d": 118.11000000001513,
      "v": 118
    },
    {
      "midi": 49,
      "hit": false,
      "t": 200078.34000000104,
      "d": 885.8250000000116,
      "v": 96
    },
    {
      "midi": 59,
      "hit": false,
      "t": 200078.34000000104,
      "d": 920.2737500000221,
      "v": 105
    },
    {
      "midi": 64,
      "hit": false,
      "t": 200078.34000000104,
      "d": 920.2737500000221,
      "v": 105
    },
    {
      "midi": 68,
      "hit": false,
      "t": 200078.34000000104,
      "d": 920.2737500000221,
      "v": 113
    },
    {
      "midi": 37,
      "hit": false,
      "t": 200550.78000000105,
      "d": 484.74312500003725,
      "v": 113
    },
    {
      "midi": 61,
      "hit": false,
      "t": 201023.22000000108,
      "d": 1154.0331250000163,
      "v": 108
    },
    {
      "midi": 42,
      "hit": false,
      "t": 201023.22000000108,
      "d": 1161.4150000000081,
      "v": 102
    },
    {
      "midi": 57,
      "hit": false,
      "t": 201023.22000000108,
      "d": 1163.8756250000151,
      "v": 98
    },
    {
      "midi": 54,
      "hit": false,
      "t": 201023.22000000108,
      "d": 1166.3362500000221,
      "v": 106
    },
    {
      "midi": 64,
      "hit": false,
      "t": 202204.3200000011,
      "d": 922.734375,
      "v": 91
    },
    {
      "midi": 61,
      "hit": false,
      "t": 202204.3200000011,
      "d": 930.1162499999919,
      "v": 113
    },
    {
      "midi": 57,
      "hit": false,
      "t": 202204.3200000011,
      "d": 981.789374999993,
      "v": 91
    },
    {
      "midi": 45,
      "hit": false,
      "t": 202211.7018750011,
      "d": 1186.0212500000198,
      "v": 108
    },
    {
      "midi": 47,
      "hit": false,
      "t": 203146.7393750011,
      "d": 179.62562499998603,
      "v": 103
    },
    {
      "midi": 62,
      "hit": false,
      "t": 203149.20000000112,
      "d": 206.69249999997555,
      "v": 99
    },
    {
      "midi": 59,
      "hit": false,
      "t": 203149.20000000112,
      "d": 216.5349999999744,
      "v": 96
    },
    {
      "midi": 61,
      "hit": false,
      "t": 203387.8806250011,
      "d": 187.0075000000361,
      "v": 103
    },
    {
      "midi": 64,
      "hit": false,
      "t": 203390.3412500011,
      "d": 174.70437500003027,
      "v": 93
    },
    {
      "midi": 49,
      "hit": false,
      "t": 203392.8018750011,
      "d": 118.11000000001513,
      "v": 118
    },
    {
      "midi": 68,
      "hit": false,
      "t": 203857.86000000112,
      "d": 418.3062499999942,
      "v": 113
    },
    {
      "midi": 49,
      "hit": false,
      "t": 203857.86000000112,
      "d": 885.8250000000116,
      "v": 96
    },
    {
      "midi": 59,
      "hit": false,
      "t": 203857.86000000112,
      "d": 920.2737500000221,
      "v": 105
    },
    {
      "midi": 64,
      "hit": false,
      "t": 203857.86000000112,
      "d": 920.2737500000221,
      "v": 105
    },
    {
      "midi": 68,
      "hit": false,
      "t": 204330.30000000112,
      "d": 105.80687500000931,
      "v": 97
    },
    {
      "midi": 71,
      "hit": false,
      "t": 204342.60312500113,
      "d": 105.80687500000931,
      "v": 97
    },
    {
      "midi": 61,
      "hit": false,
      "t": 204802.74000000115,
      "d": 1154.0331250000163,
      "v": 108
    },
    {
      "midi": 42,
      "hit": false,
      "t": 204802.74000000115,
      "d": 1161.4150000000081,
      "v": 102
    },
    {
      "midi": 57,
      "hit": false,
      "t": 204802.74000000115,
      "d": 1163.8756250000151,
      "v": 98
    },
    {
      "midi": 54,
      "hit": false,
      "t": 204802.74000000115,
      "d": 1166.3362500000221,
      "v": 106
    },
    {
      "midi": 30,
      "hit": false,
      "t": 205511.40000000116,
      "d": 236.22000000000116,
      "v": 94
    },
    {
      "midi": 64,
      "hit": false,
      "t": 205983.8400000012,
      "d": 922.734375,
      "v": 91
    },
    {
      "midi": 61,
      "hit": false,
      "t": 205983.8400000012,
      "d": 930.1162499999919,
      "v": 113
    },
    {
      "midi": 57,
      "hit": false,
      "t": 205983.8400000012,
      "d": 981.789374999993,
      "v": 91
    },
    {
      "midi": 45,
      "hit": false,
      "t": 205991.22187500118,
      "d": 1186.0212500000198,
      "v": 108
    },
    {
      "midi": 47,
      "hit": false,
      "t": 206926.2593750012,
      "d": 179.62562499998603,
      "v": 103
    },
    {
      "midi": 62,
      "hit": false,
      "t": 206928.7200000012,
      "d": 206.69249999997555,
      "v": 99
    },
    {
      "midi": 59,
      "hit": false,
      "t": 206928.7200000012,
      "d": 216.5349999999744,
      "v": 96
    },
    {
      "midi": 61,
      "hit": false,
      "t": 207167.40062500117,
      "d": 187.0075000000361,
      "v": 103
    },
    {
      "midi": 64,
      "hit": false,
      "t": 207169.86125000118,
      "d": 174.70437500003027,
      "v": 93
    },
    {
      "midi": 49,
      "hit": false,
      "t": 207172.3218750012,
      "d": 118.11000000001513,
      "v": 118
    },
    {
      "midi": 49,
      "hit": false,
      "t": 207637.3800000012,
      "d": 885.8250000000116,
      "v": 96
    },
    {
      "midi": 59,
      "hit": false,
      "t": 207637.3800000012,
      "d": 920.2737500000221,
      "v": 105
    },
    {
      "midi": 64,
      "hit": false,
      "t": 207637.3800000012,
      "d": 920.2737500000221,
      "v": 105
    },
    {
      "midi": 68,
      "hit": false,
      "t": 207637.3800000012,
      "d": 920.2737500000221,
      "v": 113
    },
    {
      "midi": 37,
      "hit": false,
      "t": 208109.8200000012,
      "d": 484.74312500003725,
      "v": 113
    },
    {
      "midi": 61,
      "hit": false,
      "t": 208582.26000000123,
      "d": 1154.0331250000163,
      "v": 108
    },
    {
      "midi": 42,
      "hit": false,
      "t": 208582.26000000123,
      "d": 1161.4150000000081,
      "v": 102
    },
    {
      "midi": 57,
      "hit": false,
      "t": 208582.26000000123,
      "d": 1163.8756250000151,
      "v": 98
    },
    {
      "midi": 54,
      "hit": false,
      "t": 208582.26000000123,
      "d": 1166.3362500000221,
      "v": 106
    },
    {
      "midi": 64,
      "hit": false,
      "t": 209763.36000000127,
      "d": 922.734375,
      "v": 91
    },
    {
      "midi": 61,
      "hit": false,
      "t": 209763.36000000127,
      "d": 930.1162499999919,
      "v": 113
    },
    {
      "midi": 57,
      "hit": false,
      "t": 209763.36000000127,
      "d": 981.789374999993,
      "v": 91
    },
    {
      "midi": 45,
      "hit": false,
      "t": 209763.36000000127,
      "d": 1186.0212499999907,
      "v": 108
    },
    {
      "midi": 47,
      "hit": false,
      "t": 210708.24000000127,
      "d": 179.62562499998603,
      "v": 103
    },
    {
      "midi": 62,
      "hit": false,
      "t": 210708.24000000127,
      "d": 206.69249999997555,
      "v": 99
    },
    {
      "midi": 59,
      "hit": false,
      "t": 210708.24000000127,
      "d": 216.5349999999744,
      "v": 96
    },
    {
      "midi": 49,
      "hit": false,
      "t": 210944.46000000124,
      "d": 118.11000000001513,
      "v": 118
    },
    {
      "midi": 64,
      "hit": false,
      "t": 210944.46000000124,
      "d": 172.24375000002328,
      "v": 93
    },
    {
      "midi": 61,
      "hit": false,
      "t": 210944.46000000124,
      "d": 184.5468750000291,
      "v": 103
    },
    {
      "midi": 68,
      "hit": false,
      "t": 211416.90000000127,
      "d": 418.3062499999942,
      "v": 113
    },
    {
      "midi": 49,
      "hit": false,
      "t": 211416.90000000127,
      "d": 472.4400000000023,
      "v": 96
    },
    {
      "midi": 59,
      "hit": false,
      "t": 211416.90000000127,
      "d": 472.4400000000023,
      "v": 105
    },
    {
      "midi": 64,
      "hit": false,
      "t": 211416.90000000127,
      "d": 472.4400000000023,
      "v": 105
    },
    {
      "midi": 52,
      "hit": false,
      "t": 211889.34000000128,
      "d": 174.70437500000116,
      "v": 88
    },
    {
      "midi": 66,
      "hit": false,
      "t": 211889.34000000128,
      "d": 179.62562500001513,
      "v": 86
    },
    {
      "midi": 56,
      "hit": false,
      "t": 211889.34000000128,
      "d": 182.08625000002212,
      "v": 103
    },
    {
      "midi": 71,
      "hit": false,
      "t": 211889.34000000128,
      "d": 418.3062500000233,
      "v": 104
    },
    {
      "midi": 42,
      "hit": false,
      "t": 212361.7800000013,
      "d": 2588.577500000014,
      "v": 102
    },
    {
      "midi": 54,
      "hit": false,
      "t": 212361.7800000013,
      "d": 2588.577500000014,
      "v": 106
    },
    {
      "midi": 57,
      "hit": false,
      "t": 212361.7800000013,
      "d": 2588.577500000014,
      "v": 98
    },
    {
      "midi": 61,
      "hit": false,
      "t": 212361.7800000013,
      "d": 2588.577500000014,
      "v": 108
    },
    {
      "midi": 69,
      "hit": false,
      "t": 212361.7800000013,
      "d": 2588.577500000014,
      "v": 104
    }
  ]
}