{
  "jsonPath": "Soundtracks/Video Game Music/Legend of Mana/legend-of-mana-mysticcitygeo.json",
  "path": "Soundtracks\\Video Game Music\\Legend of Mana\\Legend_of_Mana_MysticCityGeo.mid",
  "name": "Legend_of_Mana_MysticCityGeo",
  "difficulty": "Advanced",
  "bpm": 100,
  "notes": [
    {
      "midi": 64,
      "hit": false,
      "t": 5.859375,
      "d": 158.7890625,
      "v": 61
    },
    {
      "midi": 67,
      "hit": false,
      "t": 5.859375,
      "d": 158.7890625,
      "v": 75
    },
    {
      "midi": 72,
      "hit": false,
      "t": 174.0234375,
      "d": 136.5234375,
      "v": 64
    },
    {
      "midi": 71,
      "hit": false,
      "t": 319.921875,
      "d": 136.5234375,
      "v": 64
    },
    {
      "midi": 72,
      "hit": false,
      "t": 465.8203125,
      "d": 142.3828125,
      "v": 64
    },
    {
      "midi": 62,
      "hit": false,
      "t": 617.578125,
      "d": 141.796875,
      "v": 57
    },
    {
      "midi": 65,
      "hit": false,
      "t": 617.578125,
      "d": 141.796875,
      "v": 71
    },
    {
      "midi": 72,
      "hit": false,
      "t": 768.75,
      "d": 135.3515625,
      "v": 64
    },
    {
      "midi": 71,
      "hit": false,
      "t": 913.4765625,
      "d": 135.9375,
      "v": 64
    },
    {
      "midi": 72,
      "hit": false,
      "t": 1058.7890625,
      "d": 144.140625,
      "v": 64
    },
    {
      "midi": 64,
      "hit": false,
      "t": 1212.3046875,
      "d": 144.7265625,
      "v": 59
    },
    {
      "midi": 67,
      "hit": false,
      "t": 1212.3046875,
      "d": 144.7265625,
      "v": 73
    },
    {
      "midi": 72,
      "hit": false,
      "t": 1366.40625,
      "d": 135.3515625,
      "v": 64
    },
    {
      "midi": 71,
      "hit": false,
      "t": 1511.1328125,
      "d": 135.9375,
      "v": 64
    },
    {
      "midi": 72,
      "hit": false,
      "t": 1656.4453125,
      "d": 141.2109375,
      "v": 64
    },
    {
      "midi": 62,
      "hit": false,
      "t": 1807.03125,
      "d": 141.2109375,
      "v": 57
    },
    {
      "midi": 65,
      "hit": false,
      "t": 1807.03125,
      "d": 141.2109375,
      "v": 71
    },
    {
      "midi": 72,
      "hit": false,
      "t": 1957.6171875,
      "d": 135.9375,
      "v": 64
    },
    {
      "midi": 71,
      "hit": false,
      "t": 2102.9296875,
      "d": 135.9375,
      "v": 64
    },
    {
      "midi": 72,
      "hit": false,
      "t": 2248.2421875,
      "d": 142.3828125,
      "v": 64
    },
    {
      "midi": 64,
      "hit": false,
      "t": 2402.34375,
      "d": 162.3046875,
      "v": 61
    },
    {
      "midi": 67,
      "hit": false,
      "t": 2402.34375,
      "d": 162.3046875,
      "v": 75
    },
    {
      "midi": 72,
      "hit": false,
      "t": 2574.0234375,
      "d": 136.5234375,
      "v": 64
    },
    {
      "midi": 71,
      "hit": false,
      "t": 2719.921875,
      "d": 136.5234375,
      "v": 64
    },
    {
      "midi": 72,
      "hit": false,
      "t": 2865.8203125,
      "d": 142.3828125,
      "v": 64
    },
    {
      "midi": 62,
      "hit": false,
      "t": 3017.578125,
      "d": 141.796875,
      "v": 57
    },
    {
      "midi": 65,
      "hit": false,
      "t": 3017.578125,
      "d": 141.796875,
      "v": 71
    },
    {
      "midi": 72,
      "hit": false,
      "t": 3168.75,
      "d": 135.3515625,
      "v": 64
    },
    {
      "midi": 71,
      "hit": false,
      "t": 3313.4765625,
      "d": 135.9375,
      "v": 64
    },
    {
      "midi": 72,
      "hit": false,
      "t": 3458.7890625,
      "d": 144.140625,
      "v": 64
    },
    {
      "midi": 64,
      "hit": false,
      "t": 3612.3046875,
      "d": 144.7265625,
      "v": 59
    },
    {
      "midi": 67,
      "hit": false,
      "t": 3612.3046875,
      "d": 144.7265625,
      "v": 73
    },
    {
      "midi": 72,
      "hit": false,
      "t": 3766.40625,
      "d": 135.3515625,
      "v": 64
    },
    {
      "midi": 71,
      "hit": false,
      "t": 3911.1328125,
      "d": 135.9375,
      "v": 64
    },
    {
      "midi": 72,
      "hit": false,
      "t": 4056.4453125,
      "d": 141.2109375,
      "v": 64
    },
    {
      "midi": 62,
      "hit": false,
      "t": 4207.03125,
      "d": 141.2109375,
      "v": 57
    },
    {
      "midi": 65,
      "hit": false,
      "t": 4207.03125,
      "d": 141.2109375,
      "v": 71
    },
    {
      "midi": 72,
      "hit": false,
      "t": 4357.6171875,
      "d": 135.9375,
      "v": 64
    },
    {
      "midi": 71,
      "hit": false,
      "t": 4502.9296875,
      "d": 135.9375,
      "v": 64
    },
    {
      "midi": 72,
      "hit": false,
      "t": 4648.2421875,
      "d": 142.3828125,
      "v": 64
    },
    {
      "midi": 64,
      "hit": false,
      "t": 4802.34375,
      "d": 162.3046875,
      "v": 61
    },
    {
      "midi": 67,
      "hit": false,
      "t": 4802.34375,
      "d": 162.3046875,
      "v": 75
    },
    {
      "midi": 48,
      "hit": false,
      "t": 4802.34375,
      "d": 162.3046875,
      "v": 69
    },
    {
      "midi": 72,
      "hit": false,
      "t": 4974.0234375,
      "d": 136.5234375,
      "v": 64
    },
    {
      "midi": 55,
      "hit": false,
      "t": 4974.0234375,
      "d": 136.5234375,
      "v": 64
    },
    {
      "midi": 71,
      "hit": false,
      "t": 5119.921875,
      "d": 136.5234375,
      "v": 64
    },
    {
      "midi": 60,
      "hit": false,
      "t": 5119.921875,
      "d": 136.5234375,
      "v": 64
    },
    {
      "midi": 72,
      "hit": false,
      "t": 5265.8203125,
      "d": 142.3828125,
      "v": 64
    },
    {
      "midi": 59,
      "hit": false,
      "t": 5265.8203125,
      "d": 142.3828125,
      "v": 64
    },
    {
      "midi": 62,
      "hit": false,
      "t": 5417.578125,
      "d": 141.796875,
      "v": 57
    },
    {
      "midi": 65,
      "hit": false,
      "t": 5417.578125,
      "d": 141.796875,
      "v": 71
    },
    {
      "midi": 60,
      "hit": false,
      "t": 5417.578125,
      "d": 277.734375,
      "v": 65
    },
    {
      "midi": 72,
      "hit": false,
      "t": 5568.75,
      "d": 135.3515625,
      "v": 64
    },
    {
      "midi": 71,
      "hit": false,
      "t": 5713.4765625,
      "d": 135.9375,
      "v": 64
    },
    {
      "midi": 57,
      "hit": false,
      "t": 5713.4765625,
      "d": 135.9375,
      "v": 64
    },
    {
      "midi": 72,
      "hit": false,
      "t": 5858.7890625,
      "d": 144.140625,
      "v": 64
    },
    {
      "midi": 59,
      "hit": false,
      "t": 5858.7890625,
      "d": 144.140625,
      "v": 64
    },
    {
      "midi": 64,
      "hit": false,
      "t": 6012.3046875,
      "d": 144.7265625,
      "v": 59
    },
    {
      "midi": 67,
      "hit": false,
      "t": 6012.3046875,
      "d": 144.7265625,
      "v": 73
    },
    {
      "midi": 60,
      "hit": false,
      "t": 6012.3046875,
      "d": 280.6640625,
      "v": 67
    },
    {
      "midi": 72,
      "hit": false,
      "t": 6166.40625,
      "d": 135.3515625,
      "v": 64
    },
    {
      "midi": 71,
      "hit": false,
      "t": 6311.1328125,
      "d": 135.9375,
      "v": 64
    },
    {
      "midi": 55,
      "hit": false,
      "t": 6311.1328125,
      "d": 277.734375,
      "v": 64
    },
    {
      "midi": 72,
      "hit": false,
      "t": 6456.4453125,
      "d": 141.2109375,
      "v": 64
    },
    {
      "midi": 62,
      "hit": false,
      "t": 6607.03125,
      "d": 141.2109375,
      "v": 57
    },
    {
      "midi": 65,
      "hit": false,
      "t": 6607.03125,
      "d": 141.2109375,
      "v": 71
    },
    {
      "midi": 57,
      "hit": false,
      "t": 6607.03125,
      "d": 592.3828125,
      "v": 65
    },
    {
      "midi": 72,
      "hit": false,
      "t": 6757.6171875,
      "d": 135.9375,
      "v": 64
    },
    {
      "midi": 71,
      "hit": false,
      "t": 6902.9296875,
      "d": 135.9375,
      "v": 64
    },
    {
      "midi": 72,
      "hit": false,
      "t": 7048.2421875,
      "d": 142.3828125,
      "v": 64
    },
    {
      "midi": 64,
      "hit": false,
      "t": 7202.34375,
      "d": 162.3046875,
      "v": 61
    },
    {
      "midi": 67,
      "hit": false,
      "t": 7202.34375,
      "d": 162.3046875,
      "v": 75
    },
    {
      "midi": 48,
      "hit": false,
      "t": 7202.34375,
      "d": 162.3046875,
      "v": 69
    },
    {
      "midi": 72,
      "hit": false,
      "t": 7374.0234375,
      "d": 136.5234375,
      "v": 64
    },
    {
      "midi": 55,
      "hit": false,
      "t": 7374.0234375,
      "d": 136.5234375,
      "v": 64
    },
    {
      "midi": 71,
      "hit": false,
      "t": 7519.921875,
      "d": 136.5234375,
      "v": 64
    },
    {
      "midi": 60,
      "hit": false,
      "t": 7519.921875,
      "d": 136.5234375,
      "v": 64
    },
    {
      "midi": 72,
      "hit": false,
      "t": 7665.8203125,
      "d": 142.3828125,
      "v": 64
    },
    {
      "midi": 59,
      "hit": false,
      "t": 7665.8203125,
      "d": 142.3828125,
      "v": 64
    },
    {
      "midi": 62,
      "hit": false,
      "t": 7817.578125,
      "d": 141.796875,
      "v": 57
    },
    {
      "midi": 65,
      "hit": false,
      "t": 7817.578125,
      "d": 141.796875,
      "v": 71
    },
    {
      "midi": 60,
      "hit": false,
      "t": 7817.578125,
      "d": 277.734375,
      "v": 65
    },
    {
      "midi": 72,
      "hit": false,
      "t": 7968.75,
      "d": 135.3515625,
      "v": 64
    },
    {
      "midi": 71,
      "hit": false,
      "t": 8113.4765625,
      "d": 135.9375,
      "v": 64
    },
    {
      "midi": 57,
      "hit": false,
      "t": 8113.4765625,
      "d": 135.9375,
      "v": 64
    },
    {
      "midi": 72,
      "hit": false,
      "t": 8258.7890625,
      "d": 144.140625,
      "v": 64
    },
    {
      "midi": 59,
      "hit": false,
      "t": 8258.7890625,
      "d": 144.140625,
      "v": 64
    },
    {
      "midi": 64,
      "hit": false,
      "t": 8412.3046875,
      "d": 144.7265625,
      "v": 59
    },
    {
      "midi": 67,
      "hit": false,
      "t": 8412.3046875,
      "d": 144.7265625,
      "v": 73
    },
    {
      "midi": 60,
      "hit": false,
      "t": 8412.3046875,
      "d": 280.6640625,
      "v": 67
    },
    {
      "midi": 72,
      "hit": false,
      "t": 8566.40625,
      "d": 135.3515625,
      "v": 64
    },
    {
      "midi": 71,
      "hit": false,
      "t": 8711.1328125,
      "d": 135.9375,
      "v": 64
    },
    {
      "midi": 55,
      "hit": false,
      "t": 8711.1328125,
      "d": 277.734375,
      "v": 64
    },
    {
      "midi": 72,
      "hit": false,
      "t": 8856.4453125,
      "d": 141.2109375,
      "v": 64
    },
    {
      "midi": 62,
      "hit": false,
      "t": 9007.03125,
      "d": 141.2109375,
      "v": 57
    },
    {
      "midi": 65,
      "hit": false,
      "t": 9007.03125,
      "d": 141.2109375,
      "v": 71
    },
    {
      "midi": 57,
      "hit": false,
      "t": 9007.03125,
      "d": 592.3828125,
      "v": 65
    },
    {
      "midi": 72,
      "hit": false,
      "t": 9157.6171875,
      "d": 135.9375,
      "v": 64
    },
    {
      "midi": 71,
      "hit": false,
      "t": 9302.9296875,
      "d": 135.9375,
      "v": 64
    },
    {
      "midi": 72,
      "hit": false,
      "t": 9448.2421875,
      "d": 142.3828125,
      "v": 64
    },
    {
      "midi": 64,
      "hit": false,
      "t": 9602.34375,
      "d": 162.3046875,
      "v": 61
    },
    {
      "midi": 67,
      "hit": false,
      "t": 9602.34375,
      "d": 162.3046875,
      "v": 75
    },
    {
      "midi": 53,
      "hit": false,
      "t": 9602.34375,
      "d": 162.3046875,
      "v": 69
    },
    {
      "midi": 72,
      "hit": false,
      "t": 9774.0234375,
      "d": 136.5234375,
      "v": 64
    },
    {
      "midi": 55,
      "hit": false,
      "t": 9774.0234375,
      "d": 136.5234375,
      "v": 64
    },
    {
      "midi": 71,
      "hit": false,
      "t": 9919.921875,
      "d": 136.5234375,
      "v": 64
    },
    {
      "midi": 53,
      "hit": false,
      "t": 9919.921875,
      "d": 136.5234375,
      "v": 64
    },
    {
      "midi": 72,
      "hit": false,
      "t": 10065.8203125,
      "d": 142.3828125,
      "v": 64
    },
    {
      "midi": 52,
      "hit": false,
      "t": 10065.8203125,
      "d": 142.3828125,
      "v": 64
    },
    {
      "midi": 62,
      "hit": false,
      "t": 10217.578125,
      "d": 141.796875,
      "v": 57
    },
    {
      "midi": 65,
      "hit": false,
      "t": 10217.578125,
      "d": 141.796875,
      "v": 71
    },
    {
      "midi": 50,
      "hit": false,
      "t": 10217.578125,
      "d": 277.734375,
      "v": 65
    },
    {
      "midi": 72,
      "hit": false,
      "t": 10368.75,
      "d": 135.3515625,
      "v": 64
    },
    {
      "midi": 71,
      "hit": false,
      "t": 10513.4765625,
      "d": 135.9375,
      "v": 64
    },
    {
      "midi": 55,
      "hit": false,
      "t": 10513.4765625,
      "d": 280.6640625,
      "v": 64
    },
    {
      "midi": 72,
      "hit": false,
      "t": 10658.7890625,
      "d": 144.140625,
      "v": 64
    },
    {
      "midi": 64,
      "hit": false,
      "t": 10812.3046875,
      "d": 144.7265625,
      "v": 59
    },
    {
      "midi": 67,
      "hit": false,
      "t": 10812.3046875,
      "d": 144.7265625,
      "v": 73
    },
    {
      "midi": 52,
      "hit": false,
      "t": 10812.3046875,
      "d": 144.7265625,
      "v": 67
    },
    {
      "midi": 72,
      "hit": false,
      "t": 10966.40625,
      "d": 135.3515625,
      "v": 64
    },
    {
      "midi": 53,
      "hit": false,
      "t": 10966.40625,
      "d": 135.3515625,
      "v": 64
    },
    {
      "midi": 71,
      "hit": false,
      "t": 11111.1328125,
      "d": 135.9375,
      "v": 64
    },
    {
      "midi": 52,
      "hit": false,
      "t": 11111.1328125,
      "d": 135.9375,
      "v": 64
    },
    {
      "midi": 72,
      "hit": false,
      "t": 11256.4453125,
      "d": 141.2109375,
      "v": 64
    },
    {
      "midi": 50,
      "hit": false,
      "t": 11256.4453125,
      "d": 141.2109375,
      "v": 64
    },
    {
      "midi": 62,
      "hit": false,
      "t": 11407.03125,
      "d": 141.2109375,
      "v": 57
    },
    {
      "midi": 65,
      "hit": false,
      "t": 11407.03125,
      "d": 141.2109375,
      "v": 71
    },
    {
      "midi": 48,
      "hit": false,
      "t": 11407.03125,
      "d": 277.734375,
      "v": 65
    },
    {
      "midi": 72,
      "hit": false,
      "t": 11557.6171875,
      "d": 135.9375,
      "v": 64
    },
    {
      "midi": 71,
      "hit": false,
      "t": 11702.9296875,
      "d": 135.9375,
      "v": 64
    },
    {
      "midi": 60,
      "hit": false,
      "t": 11702.9296875,
      "d": 278.90625,
      "v": 64
    },
    {
      "midi": 72,
      "hit": false,
      "t": 11848.2421875,
      "d": 142.3828125,
      "v": 64
    },
    {
      "midi": 64,
      "hit": false,
      "t": 12002.34375,
      "d": 162.3046875,
      "v": 61
    },
    {
      "midi": 67,
      "hit": false,
      "t": 12002.34375,
      "d": 162.3046875,
      "v": 75
    },
    {
      "midi": 59,
      "hit": false,
      "t": 12002.34375,
      "d": 162.3046875,
      "v": 69
    },
    {
      "midi": 72,
      "hit": false,
      "t": 12174.0234375,
      "d": 136.5234375,
      "v": 64
    },
    {
      "midi": 60,
      "hit": false,
      "t": 12174.0234375,
      "d": 136.5234375,
      "v": 64
    },
    {
      "midi": 71,
      "hit": false,
      "t": 12319.921875,
      "d": 136.5234375,
      "v": 64
    },
    {
      "midi": 62,
      "hit": false,
      "t": 12319.921875,
      "d": 136.5234375,
      "v": 64
    },
    {
      "midi": 72,
      "hit": false,
      "t": 12465.8203125,
      "d": 142.3828125,
      "v": 64
    },
    {
      "midi": 60,
      "hit": false,
      "t": 12465.8203125,
      "d": 142.3828125,
      "v": 64
    },
    {
      "midi": 62,
      "hit": false,
      "t": 12617.578125,
      "d": 141.796875,
      "v": 57
    },
    {
      "midi": 65,
      "hit": false,
      "t": 12617.578125,
      "d": 141.796875,
      "v": 71
    },
    {
      "midi": 59,
      "hit": false,
      "t": 12617.578125,
      "d": 141.796875,
      "v": 65
    },
    {
      "midi": 72,
      "hit": false,
      "t": 12768.75,
      "d": 135.3515625,
      "v": 64
    },
    {
      "midi": 60,
      "hit": false,
      "t": 12768.75,
      "d": 135.3515625,
      "v": 64
    },
    {
      "midi": 71,
      "hit": false,
      "t": 12913.4765625,
      "d": 135.9375,
      "v": 64
    },
    {
      "midi": 59,
      "hit": false,
      "t": 12913.4765625,
      "d": 135.9375,
      "v": 64
    },
    {
      "midi": 72,
      "hit": false,
      "t": 13058.7890625,
      "d": 144.140625,
      "v": 64
    },
    {
      "midi": 57,
      "hit": false,
      "t": 13058.7890625,
      "d": 144.140625,
      "v": 64
    },
    {
      "midi": 64,
      "hit": false,
      "t": 13212.3046875,
      "d": 144.7265625,
      "v": 59
    },
    {
      "midi": 67,
      "hit": false,
      "t": 13212.3046875,
      "d": 144.7265625,
      "v": 73
    },
    {
      "midi": 55,
      "hit": false,
      "t": 13212.3046875,
      "d": 280.6640625,
      "v": 67
    },
    {
      "midi": 72,
      "hit": false,
      "t": 13366.40625,
      "d": 135.3515625,
      "v": 64
    },
    {
      "midi": 71,
      "hit": false,
      "t": 13511.1328125,
      "d": 135.9375,
      "v": 64
    },
    {
      "midi": 72,
      "hit": false,
      "t": 13656.4453125,
      "d": 141.2109375,
      "v": 64
    },
    {
      "midi": 62,
      "hit": false,
      "t": 13807.03125,
      "d": 141.2109375,
      "v": 57
    },
    {
      "midi": 65,
      "hit": false,
      "t": 13807.03125,
      "d": 141.2109375,
      "v": 71
    },
    {
      "midi": 72,
      "hit": false,
      "t": 13957.6171875,
      "d": 135.9375,
      "v": 64
    },
    {
      "midi": 71,
      "hit": false,
      "t": 14102.9296875,
      "d": 135.9375,
      "v": 64
    },
    {
      "midi": 72,
      "hit": false,
      "t": 14248.2421875,
      "d": 142.3828125,
      "v": 64
    },
    {
      "midi": 55,
      "hit": false,
      "t": 14248.2421875,
      "d": 45.1171875,
      "v": 64
    },
    {
      "midi": 57,
      "hit": false,
      "t": 14296.875,
      "d": 46.2890625,
      "v": 64
    },
    {
      "midi": 59,
      "hit": false,
      "t": 14346.6796875,
      "d": 49.8046875,
      "v": 64
    },
    {
      "midi": 69,
      "hit": false,
      "t": 14402.34375,
      "d": 162.3046875,
      "v": 69
    },
    {
      "midi": 36,
      "hit": false,
      "t": 14402.34375,
      "d": 299.4140625,
      "v": 59
    },
    {
      "midi": 48,
      "hit": false,
      "t": 14402.34375,
      "d": 299.4140625,
      "v": 75
    },
    {
      "midi": 79,
      "hit": false,
      "t": 14574.0234375,
      "d": 136.5234375,
      "v": 64
    },
    {
      "midi": 84,
      "hit": false,
      "t": 14719.921875,
      "d": 136.5234375,
      "v": 64
    },
    {
      "midi": 60,
      "hit": false,
      "t": 14719.921875,
      "d": 592.96875,
      "v": 56
    },
    {
      "midi": 64,
      "hit": false,
      "t": 14719.921875,
      "d": 592.96875,
      "v": 70
    },
    {
      "midi": 83,
      "hit": false,
      "t": 14865.8203125,
      "d": 142.3828125,
      "v": 64
    },
    {
      "midi": 84,
      "hit": false,
      "t": 15017.578125,
      "d": 277.734375,
      "v": 65
    },
    {
      "midi": 81,
      "hit": false,
      "t": 15313.4765625,
      "d": 135.9375,
      "v": 64
    },
    {
      "midi": 60,
      "hit": false,
      "t": 15313.4765625,
      "d": 280.6640625,
      "v": 56
    },
    {
      "midi": 64,
      "hit": false,
      "t": 15313.4765625,
      "d": 280.6640625,
      "v": 70
    },
    {
      "midi": 83,
      "hit": false,
      "t": 15458.7890625,
      "d": 144.140625,
      "v": 64
    },
    {
      "midi": 84,
      "hit": false,
      "t": 15612.3046875,
      "d": 280.6640625,
      "v": 67
    },
    {
      "midi": 36,
      "hit": false,
      "t": 15612.3046875,
      "d": 280.6640625,
      "v": 57
    },
    {
      "midi": 48,
      "hit": false,
      "t": 15612.3046875,
      "d": 280.6640625,
      "v": 73
    },
    {
      "midi": 79,
      "hit": false,
      "t": 15911.1328125,
      "d": 277.734375,
      "v": 64
    },
    {
      "midi": 60,
      "hit": false,
      "t": 15911.1328125,
      "d": 591.2109375,
      "v": 56
    },
    {
      "midi": 65,
      "hit": false,
      "t": 15911.1328125,
      "d": 591.2109375,
      "v": 70
    },
    {
      "midi": 81,
      "hit": false,
      "t": 16207.03125,
      "d": 592.3828125,
      "v": 65
    },
    {
      "midi": 60,
      "hit": false,
      "t": 16502.9296875,
      "d": 278.90625,
      "v": 56
    },
    {
      "midi": 64,
      "hit": false,
      "t": 16502.9296875,
      "d": 278.90625,
      "v": 70
    },
    {
      "midi": 69,
      "hit": false,
      "t": 16802.34375,
      "d": 162.3046875,
      "v": 69
    },
    {
      "midi": 36,
      "hit": false,
      "t": 16802.34375,
      "d": 299.4140625,
      "v": 59
    },
    {
      "midi": 48,
      "hit": false,
      "t": 16802.34375,
      "d": 299.4140625,
      "v": 75
    },
    {
      "midi": 79,
      "hit": false,
      "t": 16974.0234375,
      "d": 136.5234375,
      "v": 64
    },
    {
      "midi": 84,
      "hit": false,
      "t": 17119.921875,
      "d": 136.5234375,
      "v": 64
    },
    {
      "midi": 60,
      "hit": false,
      "t": 17119.921875,
      "d": 592.96875,
      "v": 56
    },
    {
      "midi": 64,
      "hit": false,
      "t": 17119.921875,
      "d": 592.96875,
      "v": 70
    },
    {
      "midi": 83,
      "hit": false,
      "t": 17265.8203125,
      "d": 142.3828125,
      "v": 64
    },
    {
      "midi": 84,
      "hit": false,
      "t": 17417.578125,
      "d": 277.734375,
      "v": 65
    },
    {
      "midi": 81,
      "hit": false,
      "t": 17713.4765625,
      "d": 135.9375,
      "v": 64
    },
    {
      "midi": 60,
      "hit": false,
      "t": 17713.4765625,
      "d": 280.6640625,
      "v": 56
    },
    {
      "midi": 64,
      "hit": false,
      "t": 17713.4765625,
      "d": 280.6640625,
      "v": 70
    },
    {
      "midi": 83,
      "hit": false,
      "t": 17858.7890625,
      "d": 144.140625,
      "v": 64
    },
    {
      "midi": 84,
      "hit": false,
      "t": 18012.3046875,
      "d": 280.6640625,
      "v": 67
    },
    {
      "midi": 36,
      "hit": false,
      "t": 18012.3046875,
      "d": 280.6640625,
      "v": 57
    },
    {
      "midi": 48,
      "hit": false,
      "t": 18012.3046875,
      "d": 280.6640625,
      "v": 73
    },
    {
      "midi": 79,
      "hit": false,
      "t": 18311.1328125,
      "d": 277.734375,
      "v": 64
    },
    {
      "midi": 60,
      "hit": false,
      "t": 18311.1328125,
      "d": 591.2109375,
      "v": 56
    },
    {
      "midi": 65,
      "hit": false,
      "t": 18311.1328125,
      "d": 591.2109375,
      "v": 70
    },
    {
      "midi": 81,
      "hit": false,
      "t": 18607.03125,
      "d": 592.3828125,
      "v": 65
    },
    {
      "midi": 60,
      "hit": false,
      "t": 18902.9296875,
      "d": 278.90625,
      "v": 56
    },
    {
      "midi": 64,
      "hit": false,
      "t": 18902.9296875,
      "d": 278.90625,
      "v": 70
    },
    {
      "midi": 77,
      "hit": false,
      "t": 19202.34375,
      "d": 162.3046875,
      "v": 69
    },
    {
      "midi": 41,
      "hit": false,
      "t": 19202.34375,
      "d": 299.4140625,
      "v": 61
    },
    {
      "midi": 53,
      "hit": false,
      "t": 19202.34375,
      "d": 299.4140625,
      "v": 75
    },
    {
      "midi": 79,
      "hit": false,
      "t": 19374.0234375,
      "d": 136.5234375,
      "v": 64
    },
    {
      "midi": 77,
      "hit": false,
      "t": 19519.921875,
      "d": 136.5234375,
      "v": 64
    },
    {
      "midi": 60,
      "hit": false,
      "t": 19519.921875,
      "d": 592.96875,
      "v": 56
    },
    {
      "midi": 65,
      "hit": false,
      "t": 19519.921875,
      "d": 592.96875,
      "v": 70
    },
    {
      "midi": 76,
      "hit": false,
      "t": 19665.8203125,
      "d": 142.3828125,
      "v": 64
    },
    {
      "midi": 74,
      "hit": false,
      "t": 19817.578125,
      "d": 277.734375,
      "v": 65
    },
    {
      "midi": 79,
      "hit": false,
      "t": 20113.4765625,
      "d": 280.6640625,
      "v": 64
    },
    {
      "midi": 60,
      "hit": false,
      "t": 20113.4765625,
      "d": 280.6640625,
      "v": 56
    },
    {
      "midi": 65,
      "hit": false,
      "t": 20113.4765625,
      "d": 280.6640625,
      "v": 70
    },
    {
      "midi": 76,
      "hit": false,
      "t": 20412.3046875,
      "d": 144.7265625,
      "v": 67
    },
    {
      "midi": 36,
      "hit": false,
      "t": 20412.3046875,
      "d": 280.6640625,
      "v": 57
    },
    {
      "midi": 48,
      "hit": false,
      "t": 20412.3046875,
      "d": 280.6640625,
      "v": 73
    },
    {
      "midi": 77,
      "hit": false,
      "t": 20566.40625,
      "d": 135.3515625,
      "v": 64
    },
    {
      "midi": 76,
      "hit": false,
      "t": 20711.1328125,
      "d": 135.9375,
      "v": 64
    },
    {
      "midi": 60,
      "hit": false,
      "t": 20711.1328125,
      "d": 591.2109375,
      "v": 56
    },
    {
      "midi": 67,
      "hit": false,
      "t": 20711.1328125,
      "d": 591.2109375,
      "v": 70
    },
    {
      "midi": 74,
      "hit": false,
      "t": 20856.4453125,
      "d": 141.2109375,
      "v": 64
    },
    {
      "midi": 72,
      "hit": false,
      "t": 21007.03125,
      "d": 277.734375,
      "v": 65
    },
    {
      "midi": 84,
      "hit": false,
      "t": 21302.9296875,
      "d": 278.90625,
      "v": 64
    },
    {
      "midi": 60,
      "hit": false,
      "t": 21302.9296875,
      "d": 278.90625,
      "v": 56
    },
    {
      "midi": 67,
      "hit": false,
      "t": 21302.9296875,
      "d": 278.90625,
      "v": 70
    },
    {
      "midi": 83,
      "hit": false,
      "t": 21602.34375,
      "d": 162.3046875,
      "v": 69
    },
    {
      "midi": 38,
      "hit": false,
      "t": 21602.34375,
      "d": 299.4140625,
      "v": 60
    },
    {
      "midi": 50,
      "hit": false,
      "t": 21602.34375,
      "d": 299.4140625,
      "v": 75
    },
    {
      "midi": 84,
      "hit": false,
      "t": 21774.0234375,
      "d": 136.5234375,
      "v": 64
    },
    {
      "midi": 86,
      "hit": false,
      "t": 21919.921875,
      "d": 136.5234375,
      "v": 64
    },
    {
      "midi": 62,
      "hit": false,
      "t": 21919.921875,
      "d": 592.96875,
      "v": 56
    },
    {
      "midi": 65,
      "hit": false,
      "t": 21919.921875,
      "d": 592.96875,
      "v": 70
    },
    {
      "midi": 84,
      "hit": false,
      "t": 22065.8203125,
      "d": 142.3828125,
      "v": 64
    },
    {
      "midi": 83,
      "hit": false,
      "t": 22217.578125,
      "d": 141.796875,
      "v": 65
    },
    {
      "midi": 84,
      "hit": false,
      "t": 22368.75,
      "d": 135.3515625,
      "v": 64
    },
    {
      "midi": 83,
      "hit": false,
      "t": 22513.4765625,
      "d": 135.9375,
      "v": 64
    },
    {
      "midi": 62,
      "hit": false,
      "t": 22513.4765625,
      "d": 280.6640625,
      "v": 56
    },
    {
      "midi": 65,
      "hit": false,
      "t": 22513.4765625,
      "d": 280.6640625,
      "v": 70
    },
    {
      "midi": 81,
      "hit": false,
      "t": 22658.7890625,
      "d": 144.140625,
      "v": 64
    },
    {
      "midi": 79,
      "hit": false,
      "t": 22812.3046875,
      "d": 280.6640625,
      "v": 67
    },
    {
      "midi": 43,
      "hit": false,
      "t": 22812.3046875,
      "d": 280.6640625,
      "v": 59
    },
    {
      "midi": 55,
      "hit": false,
      "t": 22812.3046875,
      "d": 280.6640625,
      "v": 73
    },
    {
      "midi": 91,
      "hit": false,
      "t": 23111.1328125,
      "d": 277.734375,
      "v": 64
    },
    {
      "midi": 62,
      "hit": false,
      "t": 23111.1328125,
      "d": 591.2109375,
      "v": 56
    },
    {
      "midi": 67,
      "hit": false,
      "t": 23111.1328125,
      "d": 591.2109375,
      "v": 70
    },
    {
      "midi": 62,
      "hit": false,
      "t": 23702.9296875,
      "d": 278.90625,
      "v": 56
    },
    {
      "midi": 67,
      "hit": false,
      "t": 23702.9296875,
      "d": 278.90625,
      "v": 66
    },
    {
      "midi": 58,
      "hit": false,
      "t": 23848.2421875,
      "d": 45.1171875,
      "v": 64
    },
    {
      "midi": 60,
      "hit": false,
      "t": 23896.875,
      "d": 46.2890625,
      "v": 64
    },
    {
      "midi": 62,
      "hit": false,
      "t": 23946.6796875,
      "d": 49.8046875,
      "v": 64
    },
    {
      "midi": 63,
      "hit": false,
      "t": 24002.34375,
      "d": 162.3046875,
      "v": 69
    },
    {
      "midi": 39,
      "hit": false,
      "t": 24002.34375,
      "d": 614.6484375,
      "v": 68
    },
    {
      "midi": 70,
      "hit": false,
      "t": 24174.0234375,
      "d": 136.5234375,
      "v": 64
    },
    {
      "midi": 75,
      "hit": false,
      "t": 24319.921875,
      "d": 136.5234375,
      "v": 64
    },
    {
      "midi": 74,
      "hit": false,
      "t": 24465.8203125,
      "d": 142.3828125,
      "v": 64
    },
    {
      "midi": 75,
      "hit": false,
      "t": 24617.578125,
      "d": 277.734375,
      "v": 65
    },
    {
      "midi": 72,
      "hit": false,
      "t": 24913.4765625,
      "d": 135.9375,
      "v": 64
    },
    {
      "midi": 74,
      "hit": false,
      "t": 25058.7890625,
      "d": 144.140625,
      "v": 64
    },
    {
      "midi": 75,
      "hit": false,
      "t": 25212.3046875,
      "d": 280.6640625,
      "v": 67
    },
    {
      "midi": 39,
      "hit": false,
      "t": 25212.3046875,
      "d": 594.140625,
      "v": 66
    },
    {
      "midi": 70,
      "hit": false,
      "t": 25511.1328125,
      "d": 277.734375,
      "v": 64
    },
    {
      "midi": 72,
      "hit": false,
      "t": 25807.03125,
      "d": 592.3828125,
      "v": 65
    },
    {
      "midi": 63,
      "hit": false,
      "t": 26402.34375,
      "d": 162.3046875,
      "v": 69
    },
    {
      "midi": 39,
      "hit": false,
      "t": 26402.34375,
      "d": 614.6484375,
      "v": 68
    },
    {
      "midi": 70,
      "hit": false,
      "t": 26574.0234375,
      "d": 136.5234375,
      "v": 64
    },
    {
      "midi": 75,
      "hit": false,
      "t": 26719.921875,
      "d": 136.5234375,
      "v": 64
    },
    {
      "midi": 74,
      "hit": false,
      "t": 26865.8203125,
      "d": 142.3828125,
      "v": 64
    },
    {
      "midi": 75,
      "hit": false,
      "t": 27017.578125,
      "d": 277.734375,
      "v": 65
    },
    {
      "midi": 72,
      "hit": false,
      "t": 27313.4765625,
      "d": 135.9375,
      "v": 64
    },
    {
      "midi": 74,
      "hit": false,
      "t": 27458.7890625,
      "d": 144.140625,
      "v": 64
    },
    {
      "midi": 75,
      "hit": false,
      "t": 27612.3046875,
      "d": 280.6640625,
      "v": 67
    },
    {
      "midi": 39,
      "hit": false,
      "t": 27612.3046875,
      "d": 594.140625,
      "v": 66
    },
    {
      "midi": 70,
      "hit": false,
      "t": 27911.1328125,
      "d": 277.734375,
      "v": 64
    },
    {
      "midi": 72,
      "hit": false,
      "t": 28207.03125,
      "d": 592.3828125,
      "v": 65
    },
    {
      "midi": 68,
      "hit": false,
      "t": 28802.34375,
      "d": 162.3046875,
      "v": 69
    },
    {
      "midi": 44,
      "hit": false,
      "t": 28802.34375,
      "d": 614.6484375,
      "v": 69
    },
    {
      "midi": 70,
      "hit": false,
      "t": 28974.0234375,
      "d": 136.5234375,
      "v": 64
    },
    {
      "midi": 68,
      "hit": false,
      "t": 29119.921875,
      "d": 136.5234375,
      "v": 64
    },
    {
      "midi": 67,
      "hit": false,
      "t": 29265.8203125,
      "d": 142.3828125,
      "v": 64
    },
    {
      "midi": 65,
      "hit": false,
      "t": 29417.578125,
      "d": 277.734375,
      "v": 65
    },
    {
      "midi": 70,
      "hit": false,
      "t": 29713.4765625,
      "d": 280.6640625,
      "v": 64
    },
    {
      "midi": 67,
      "hit": false,
      "t": 30012.3046875,
      "d": 144.7265625,
      "v": 67
    },
    {
      "midi": 39,
      "hit": false,
      "t": 30012.3046875,
      "d": 594.140625,
      "v": 66
    },
    {
      "midi": 68,
      "hit": false,
      "t": 30166.40625,
      "d": 135.3515625,
      "v": 64
    },
    {
      "midi": 67,
      "hit": false,
      "t": 30311.1328125,
      "d": 135.9375,
      "v": 64
    },
    {
      "midi": 65,
      "hit": false,
      "t": 30456.4453125,
      "d": 141.2109375,
      "v": 64
    },
    {
      "midi": 63,
      "hit": false,
      "t": 30607.03125,
      "d": 277.734375,
      "v": 65
    },
    {
      "midi": 75,
      "hit": false,
      "t": 30902.9296875,
      "d": 278.90625,
      "v": 64
    },
    {
      "midi": 74,
      "hit": false,
      "t": 31202.34375,
      "d": 162.3046875,
      "v": 69
    },
    {
      "midi": 41,
      "hit": false,
      "t": 31202.34375,
      "d": 614.6484375,
      "v": 69
    },
    {
      "midi": 75,
      "hit": false,
      "t": 31374.0234375,
      "d": 136.5234375,
      "v": 64
    },
    {
      "midi": 77,
      "hit": false,
      "t": 31519.921875,
      "d": 136.5234375,
      "v": 64
    },
    {
      "midi": 75,
      "hit": false,
      "t": 31665.8203125,
      "d": 142.3828125,
      "v": 64
    },
    {
      "midi": 74,
      "hit": false,
      "t": 31817.578125,
      "d": 141.796875,
      "v": 65
    },
    {
      "midi": 75,
      "hit": false,
      "t": 31968.75,
      "d": 135.3515625,
      "v": 64
    },
    {
      "midi": 74,
      "hit": false,
      "t": 32113.4765625,
      "d": 135.9375,
      "v": 64
    },
    {
      "midi": 72,
      "hit": false,
      "t": 32258.7890625,
      "d": 144.140625,
      "v": 64
    },
    {
      "midi": 70,
      "hit": false,
      "t": 32412.3046875,
      "d": 280.6640625,
      "v": 67
    },
    {
      "midi": 34,
      "hit": false,
      "t": 32412.3046875,
      "d": 594.140625,
      "v": 65
    },
    {
      "midi": 82,
      "hit": false,
      "t": 32711.1328125,
      "d": 277.734375,
      "v": 64
    },
    {
      "midi": 79,
      "hit": false,
      "t": 33302.9296875,
      "d": 135.9375,
      "v": 64
    },
    {
      "midi": 80,
      "hit": false,
      "t": 33448.2421875,
      "d": 142.3828125,
      "v": 64
    },
    {
      "midi": 82,
      "hit": false,
      "t": 33602.34375,
      "d": 162.3046875,
      "v": 69
    },
    {
      "midi": 39,
      "hit": false,
      "t": 33602.34375,
      "d": 162.3046875,
      "v": 68
    },
    {
      "midi": 80,
      "hit": false,
      "t": 33774.0234375,
      "d": 136.5234375,
      "v": 64
    },
    {
      "midi": 46,
      "hit": false,
      "t": 33774.0234375,
      "d": 136.5234375,
      "v": 64
    },
    {
      "midi": 79,
      "hit": false,
      "t": 33919.921875,
      "d": 136.5234375,
      "v": 64
    },
    {
      "midi": 51,
      "hit": false,
      "t": 33919.921875,
      "d": 136.5234375,
      "v": 64
    },
    {
      "midi": 80,
      "hit": false,
      "t": 34065.8203125,
      "d": 142.3828125,
      "v": 64
    },
    {
      "midi": 50,
      "hit": false,
      "t": 34065.8203125,
      "d": 142.3828125,
      "v": 64
    },
    {
      "midi": 79,
      "hit": false,
      "t": 34217.578125,
      "d": 277.734375,
      "v": 65
    },
    {
      "midi": 51,
      "hit": false,
      "t": 34217.578125,
      "d": 277.734375,
      "v": 65
    },
    {
      "midi": 77,
      "hit": false,
      "t": 34513.4765625,
      "d": 280.6640625,
      "v": 64
    },
    {
      "midi": 48,
      "hit": false,
      "t": 34513.4765625,
      "d": 135.9375,
      "v": 64
    },
    {
      "midi": 50,
      "hit": false,
      "t": 34658.7890625,
      "d": 144.140625,
      "v": 64
    },
    {
      "midi": 79,
      "hit": false,
      "t": 34812.3046875,
      "d": 280.6640625,
      "v": 67
    },
    {
      "midi": 39,
      "hit": false,
      "t": 34812.3046875,
      "d": 280.6640625,
      "v": 58
    },
    {
      "midi": 51,
      "hit": false,
      "t": 34812.3046875,
      "d": 280.6640625,
      "v": 73
    },
    {
      "midi": 80,
      "hit": false,
      "t": 35111.1328125,
      "d": 135.9375,
      "v": 64
    },
    {
      "midi": 46,
      "hit": false,
      "t": 35111.1328125,
      "d": 277.734375,
      "v": 64
    },
    {
      "midi": 79,
      "hit": false,
      "t": 35256.4453125,
      "d": 141.2109375,
      "v": 64
    },
    {
      "midi": 77,
      "hit": false,
      "t": 35407.03125,
      "d": 141.2109375,
      "v": 65
    },
    {
      "midi": 48,
      "hit": false,
      "t": 35407.03125,
      "d": 592.3828125,
      "v": 65
    },
    {
      "midi": 75,
      "hit": false,
      "t": 35557.6171875,
      "d": 135.9375,
      "v": 64
    },
    {
      "midi": 74,
      "hit": false,
      "t": 35702.9296875,
      "d": 135.9375,
      "v": 64
    },
    {
      "midi": 70,
      "hit": false,
      "t": 35848.2421875,
      "d": 142.3828125,
      "v": 64
    },
    {
      "midi": 79,
      "hit": false,
      "t": 36002.34375,
      "d": 162.3046875,
      "v": 69
    },
    {
      "midi": 39,
      "hit": false,
      "t": 36002.34375,
      "d": 162.3046875,
      "v": 68
    },
    {
      "midi": 80,
      "hit": false,
      "t": 36174.0234375,
      "d": 136.5234375,
      "v": 64
    },
    {
      "midi": 46,
      "hit": false,
      "t": 36174.0234375,
      "d": 136.5234375,
      "v": 64
    },
    {
      "midi": 79,
      "hit": false,
      "t": 36319.921875,
      "d": 136.5234375,
      "v": 64
    },
    {
      "midi": 51,
      "hit": false,
      "t": 36319.921875,
      "d": 136.5234375,
      "v": 64
    },
    {
      "midi": 80,
      "hit": false,
      "t": 36465.8203125,
      "d": 142.3828125,
      "v": 64
    },
    {
      "midi": 50,
      "hit": false,
      "t": 36465.8203125,
      "d": 142.3828125,
      "v": 64
    },
    {
      "midi": 82,
      "hit": false,
      "t": 36617.578125,
      "d": 277.734375,
      "v": 65
    },
    {
      "midi": 51,
      "hit": false,
      "t": 36617.578125,
      "d": 277.734375,
      "v": 65
    },
    {
      "midi": 75,
      "hit": false,
      "t": 36913.4765625,
      "d": 280.6640625,
      "v": 64
    },
    {
      "midi": 48,
      "hit": false,
      "t": 36913.4765625,
      "d": 135.9375,
      "v": 64
    },
    {
      "midi": 50,
      "hit": false,
      "t": 37058.7890625,
      "d": 144.140625,
      "v": 64
    },
    {
      "midi": 84,
      "hit": false,
      "t": 37212.3046875,
      "d": 144.7265625,
      "v": 67
    },
    {
      "midi": 39,
      "hit": false,
      "t": 37212.3046875,
      "d": 280.6640625,
      "v": 58
    },
    {
      "midi": 51,
      "hit": false,
      "t": 37212.3046875,
      "d": 280.6640625,
      "v": 73
    },
    {
      "midi": 82,
      "hit": false,
      "t": 37366.40625,
      "d": 135.3515625,
      "v": 64
    },
    {
      "midi": 80,
      "hit": false,
      "t": 37511.1328125,
      "d": 135.9375,
      "v": 64
    },
    {
      "midi": 46,
      "hit": false,
      "t": 37511.1328125,
      "d": 277.734375,
      "v": 64
    },
    {
      "midi": 79,
      "hit": false,
      "t": 37656.4453125,
      "d": 141.2109375,
      "v": 64
    },
    {
      "midi": 77,
      "hit": false,
      "t": 37807.03125,
      "d": 141.2109375,
      "v": 65
    },
    {
      "midi": 48,
      "hit": false,
      "t": 37807.03125,
      "d": 592.3828125,
      "v": 65
    },
    {
      "midi": 75,
      "hit": false,
      "t": 37957.6171875,
      "d": 135.9375,
      "v": 64
    },
    {
      "midi": 74,
      "hit": false,
      "t": 38102.9296875,
      "d": 135.9375,
      "v": 64
    },
    {
      "midi": 70,
      "hit": false,
      "t": 38248.2421875,
      "d": 142.3828125,
      "v": 64
    },
    {
      "midi": 77,
      "hit": false,
      "t": 38402.34375,
      "d": 69.140625,
      "v": 69
    },
    {
      "midi": 44,
      "hit": false,
      "t": 38402.34375,
      "d": 162.3046875,
      "v": 69
    },
    {
      "midi": 79,
      "hit": false,
      "t": 38475,
      "d": 46.875,
      "v": 64
    },
    {
      "midi": 80,
      "hit": false,
      "t": 38525.390625,
      "d": 45.1171875,
      "v": 64
    },
    {
      "midi": 82,
      "hit": false,
      "t": 38574.0234375,
      "d": 1037.6953125,
      "v": 64
    },
    {
      "midi": 46,
      "hit": false,
      "t": 38574.0234375,
      "d": 136.5234375,
      "v": 64
    },
    {
      "midi": 44,
      "hit": false,
      "t": 38719.921875,
      "d": 136.5234375,
      "v": 64
    },
    {
      "midi": 43,
      "hit": false,
      "t": 38865.8203125,
      "d": 142.3828125,
      "v": 64
    },
    {
      "midi": 41,
      "hit": false,
      "t": 39017.578125,
      "d": 277.734375,
      "v": 65
    },
    {
      "midi": 46,
      "hit": false,
      "t": 39313.4765625,
      "d": 280.6640625,
      "v": 64
    },
    {
      "midi": 80,
      "hit": false,
      "t": 39612.3046875,
      "d": 1187.109375,
      "v": 67
    },
    {
      "midi": 39,
      "hit": false,
      "t": 39612.3046875,
      "d": 144.7265625,
      "v": 58
    },
    {
      "midi": 43,
      "hit": false,
      "t": 39612.3046875,
      "d": 144.7265625,
      "v": 73
    },
    {
      "midi": 44,
      "hit": false,
      "t": 39766.40625,
      "d": 135.3515625,
      "v": 64
    },
    {
      "midi": 43,
      "hit": false,
      "t": 39911.1328125,
      "d": 135.9375,
      "v": 64
    },
    {
      "midi": 41,
      "hit": false,
      "t": 40056.4453125,
      "d": 141.2109375,
      "v": 64
    },
    {
      "midi": 39,
      "hit": false,
      "t": 40207.03125,
      "d": 277.734375,
      "v": 64
    },
    {
      "midi": 51,
      "hit": false,
      "t": 40502.9296875,
      "d": 278.90625,
      "v": 64
    },
    {
      "midi": 79,
      "hit": false,
      "t": 40802.34375,
      "d": 614.6484375,
      "v": 69
    },
    {
      "midi": 41,
      "hit": false,
      "t": 40802.34375,
      "d": 162.3046875,
      "v": 61
    },
    {
      "midi": 50,
      "hit": false,
      "t": 40802.34375,
      "d": 162.3046875,
      "v": 75
    },
    {
      "midi": 51,
      "hit": false,
      "t": 40974.0234375,
      "d": 136.5234375,
      "v": 64
    },
    {
      "midi": 53,
      "hit": false,
      "t": 41119.921875,
      "d": 136.5234375,
      "v": 64
    },
    {
      "midi": 51,
      "hit": false,
      "t": 41265.8203125,
      "d": 142.3828125,
      "v": 64
    },
    {
      "midi": 77,
      "hit": false,
      "t": 41417.578125,
      "d": 594.140625,
      "v": 65
    },
    {
      "midi": 50,
      "hit": false,
      "t": 41417.578125,
      "d": 141.796875,
      "v": 65
    },
    {
      "midi": 51,
      "hit": false,
      "t": 41568.75,
      "d": 135.3515625,
      "v": 64
    },
    {
      "midi": 50,
      "hit": false,
      "t": 41713.4765625,
      "d": 135.9375,
      "v": 64
    },
    {
      "midi": 48,
      "hit": false,
      "t": 41858.7890625,
      "d": 144.140625,
      "v": 64
    },
    {
      "midi": 75,
      "hit": false,
      "t": 42012.3046875,
      "d": 594.140625,
      "v": 67
    },
    {
      "midi": 46,
      "hit": false,
      "t": 42012.3046875,
      "d": 280.6640625,
      "v": 67
    },
    {
      "midi": 58,
      "hit": false,
      "t": 42311.1328125,
      "d": 277.734375,
      "v": 64
    },
    {
      "midi": 74,
      "hit": false,
      "t": 42607.03125,
      "d": 592.3828125,
      "v": 65
    },
    {
      "midi": 55,
      "hit": false,
      "t": 42902.9296875,
      "d": 135.9375,
      "v": 64
    },
    {
      "midi": 56,
      "hit": false,
      "t": 43048.2421875,
      "d": 142.3828125,
      "v": 64
    },
    {
      "midi": 63,
      "hit": false,
      "t": 43202.34375,
      "d": 162.3046875,
      "v": 69
    },
    {
      "midi": 51,
      "hit": false,
      "t": 43202.34375,
      "d": 162.3046875,
      "v": 61
    },
    {
      "midi": 58,
      "hit": false,
      "t": 43202.34375,
      "d": 162.3046875,
      "v": 75
    },
    {
      "midi": 70,
      "hit": false,
      "t": 43374.0234375,
      "d": 136.5234375,
      "v": 64
    },
    {
      "midi": 56,
      "hit": false,
      "t": 43374.0234375,
      "d": 136.5234375,
      "v": 64
    },
    {
      "midi": 75,
      "hit": false,
      "t": 43519.921875,
      "d": 136.5234375,
      "v": 64
    },
    {
      "midi": 55,
      "hit": false,
      "t": 43519.921875,
      "d": 136.5234375,
      "v": 64
    },
    {
      "midi": 74,
      "hit": false,
      "t": 43665.8203125,
      "d": 142.3828125,
      "v": 64
    },
    {
      "midi": 56,
      "hit": false,
      "t": 43665.8203125,
      "d": 142.3828125,
      "v": 64
    },
    {
      "midi": 75,
      "hit": false,
      "t": 43817.578125,
      "d": 277.734375,
      "v": 65
    },
    {
      "midi": 55,
      "hit": false,
      "t": 43817.578125,
      "d": 277.734375,
      "v": 65
    },
    {
      "midi": 72,
      "hit": false,
      "t": 44113.4765625,
      "d": 135.9375,
      "v": 64
    },
    {
      "midi": 53,
      "hit": false,
      "t": 44113.4765625,
      "d": 280.6640625,
      "v": 64
    },
    {
      "midi": 74,
      "hit": false,
      "t": 44258.7890625,
      "d": 144.140625,
      "v": 64
    },
    {
      "midi": 75,
      "hit": false,
      "t": 44412.3046875,
      "d": 280.6640625,
      "v": 67
    },
    {
      "midi": 51,
      "hit": false,
      "t": 44412.3046875,
      "d": 280.6640625,
      "v": 59
    },
    {
      "midi": 55,
      "hit": false,
      "t": 44412.3046875,
      "d": 280.6640625,
      "v": 73
    },
    {
      "midi": 70,
      "hit": false,
      "t": 44711.1328125,
      "d": 277.734375,
      "v": 64
    },
    {
      "midi": 56,
      "hit": false,
      "t": 44711.1328125,
      "d": 135.9375,
      "v": 64
    },
    {
      "midi": 55,
      "hit": false,
      "t": 44856.4453125,
      "d": 141.2109375,
      "v": 64
    },
    {
      "midi": 72,
      "hit": false,
      "t": 45007.03125,
      "d": 592.3828125,
      "v": 65
    },
    {
      "midi": 53,
      "hit": false,
      "t": 45007.03125,
      "d": 141.2109375,
      "v": 65
    },
    {
      "midi": 51,
      "hit": false,
      "t": 45157.6171875,
      "d": 135.9375,
      "v": 64
    },
    {
      "midi": 50,
      "hit": false,
      "t": 45302.9296875,
      "d": 135.9375,
      "v": 64
    },
    {
      "midi": 46,
      "hit": false,
      "t": 45448.2421875,
      "d": 142.3828125,
      "v": 64
    },
    {
      "midi": 63,
      "hit": false,
      "t": 45602.34375,
      "d": 162.3046875,
      "v": 69
    },
    {
      "midi": 51,
      "hit": false,
      "t": 45602.34375,
      "d": 162.3046875,
      "v": 61
    },
    {
      "midi": 55,
      "hit": false,
      "t": 45602.34375,
      "d": 162.3046875,
      "v": 75
    },
    {
      "midi": 70,
      "hit": false,
      "t": 45774.0234375,
      "d": 136.5234375,
      "v": 64
    },
    {
      "midi": 56,
      "hit": false,
      "t": 45774.0234375,
      "d": 136.5234375,
      "v": 64
    },
    {
      "midi": 75,
      "hit": false,
      "t": 45919.921875,
      "d": 136.5234375,
      "v": 64
    },
    {
      "midi": 55,
      "hit": false,
      "t": 45919.921875,
      "d": 136.5234375,
      "v": 64
    },
    {
      "midi": 74,
      "hit": false,
      "t": 46065.8203125,
      "d": 142.3828125,
      "v": 64
    },
    {
      "midi": 56,
      "hit": false,
      "t": 46065.8203125,
      "d": 142.3828125,
      "v": 64
    },
    {
      "midi": 75,
      "hit": false,
      "t": 46217.578125,
      "d": 277.734375,
      "v": 65
    },
    {
      "midi": 58,
      "hit": false,
      "t": 46217.578125,
      "d": 277.734375,
      "v": 65
    },
    {
      "midi": 72,
      "hit": false,
      "t": 46513.4765625,
      "d": 135.9375,
      "v": 64
    },
    {
      "midi": 53,
      "hit": false,
      "t": 46513.4765625,
      "d": 280.6640625,
      "v": 64
    },
    {
      "midi": 74,
      "hit": false,
      "t": 46658.7890625,
      "d": 144.140625,
      "v": 64
    },
    {
      "midi": 75,
      "hit": false,
      "t": 46812.3046875,
      "d": 280.6640625,
      "v": 67
    },
    {
      "midi": 51,
      "hit": false,
      "t": 46812.3046875,
      "d": 280.6640625,
      "v": 59
    },
    {
      "midi": 60,
      "hit": false,
      "t": 46812.3046875,
      "d": 280.6640625,
      "v": 73
    },
    {
      "midi": 70,
      "hit": false,
      "t": 47111.1328125,
      "d": 277.734375,
      "v": 64
    },
    {
      "midi": 56,
      "hit": false,
      "t": 47111.1328125,
      "d": 135.9375,
      "v": 64
    },
    {
      "midi": 55,
      "hit": false,
      "t": 47256.4453125,
      "d": 141.2109375,
      "v": 64
    },
    {
      "midi": 72,
      "hit": false,
      "t": 47407.03125,
      "d": 592.3828125,
      "v": 65
    },
    {
      "midi": 53,
      "hit": false,
      "t": 47407.03125,
      "d": 141.2109375,
      "v": 65
    },
    {
      "midi": 51,
      "hit": false,
      "t": 47557.6171875,
      "d": 135.9375,
      "v": 64
    },
    {
      "midi": 50,
      "hit": false,
      "t": 47702.9296875,
      "d": 135.9375,
      "v": 64
    },
    {
      "midi": 46,
      "hit": false,
      "t": 47848.2421875,
      "d": 142.3828125,
      "v": 64
    },
    {
      "midi": 68,
      "hit": false,
      "t": 48002.34375,
      "d": 162.3046875,
      "v": 69
    },
    {
      "midi": 52,
      "hit": false,
      "t": 48002.34375,
      "d": 69.140625,
      "v": 69
    },
    {
      "midi": 55,
      "hit": false,
      "t": 48075,
      "d": 46.875,
      "v": 64
    },
    {
      "midi": 56,
      "hit": false,
      "t": 48125.390625,
      "d": 45.1171875,
      "v": 64
    },
    {
      "midi": 70,
      "hit": false,
      "t": 48174.0234375,
      "d": 136.5234375,
      "v": 64
    },
    {
      "midi": 56,
      "hit": false,
      "t": 48174.0234375,
      "d": 1037.6953125,
      "v": 56
    },
    {
      "midi": 59,
      "hit": false,
      "t": 48174.0234375,
      "d": 1037.6953125,
      "v": 70
    },
    {
      "midi": 68,
      "hit": false,
      "t": 48319.921875,
      "d": 136.5234375,
      "v": 64
    },
    {
      "midi": 67,
      "hit": false,
      "t": 48465.8203125,
      "d": 142.3828125,
      "v": 64
    },
    {
      "midi": 65,
      "hit": false,
      "t": 48617.578125,
      "d": 277.734375,
      "v": 65
    },
    {
      "midi": 70,
      "hit": false,
      "t": 48913.4765625,
      "d": 280.6640625,
      "v": 64
    },
    {
      "midi": 67,
      "hit": false,
      "t": 49212.3046875,
      "d": 144.7265625,
      "v": 67
    },
    {
      "midi": 56,
      "hit": false,
      "t": 49212.3046875,
      "d": 1187.109375,
      "v": 67
    },
    {
      "midi": 68,
      "hit": false,
      "t": 49366.40625,
      "d": 135.3515625,
      "v": 64
    },
    {
      "midi": 67,
      "hit": false,
      "t": 49511.1328125,
      "d": 135.9375,
      "v": 64
    },
    {
      "midi": 65,
      "hit": false,
      "t": 49656.4453125,
      "d": 141.2109375,
      "v": 64
    },
    {
      "midi": 63,
      "hit": false,
      "t": 49807.03125,
      "d": 277.734375,
      "v": 65
    },
    {
      "midi": 75,
      "hit": false,
      "t": 50102.9296875,
      "d": 278.90625,
      "v": 64
    },
    {
      "midi": 74,
      "hit": false,
      "t": 50402.34375,
      "d": 162.3046875,
      "v": 69
    },
    {
      "midi": 55,
      "hit": false,
      "t": 50402.34375,
      "d": 614.6484375,
      "v": 61
    },
    {
      "midi": 56,
      "hit": false,
      "t": 50402.34375,
      "d": 614.6484375,
      "v": 75
    },
    {
      "midi": 75,
      "hit": false,
      "t": 50574.0234375,
      "d": 136.5234375,
      "v": 64
    },
    {
      "midi": 77,
      "hit": false,
      "t": 50719.921875,
      "d": 136.5234375,
      "v": 64
    },
    {
      "midi": 75,
      "hit": false,
      "t": 50865.8203125,
      "d": 142.3828125,
      "v": 64
    },
    {
      "midi": 74,
      "hit": false,
      "t": 51017.578125,
      "d": 141.796875,
      "v": 65
    },
    {
      "midi": 53,
      "hit": false,
      "t": 51017.578125,
      "d": 594.140625,
      "v": 65
    },
    {
      "midi": 75,
      "hit": false,
      "t": 51168.75,
      "d": 135.3515625,
      "v": 64
    },
    {
      "midi": 74,
      "hit": false,
      "t": 51313.4765625,
      "d": 135.9375,
      "v": 64
    },
    {
      "midi": 72,
      "hit": false,
      "t": 51458.7890625,
      "d": 144.140625,
      "v": 64
    },
    {
      "midi": 70,
      "hit": false,
      "t": 51612.3046875,
      "d": 280.6640625,
      "v": 67
    },
    {
      "midi": 46,
      "hit": false,
      "t": 51612.3046875,
      "d": 594.140625,
      "v": 59
    },
    {
      "midi": 51,
      "hit": false,
      "t": 51612.3046875,
      "d": 594.140625,
      "v": 73
    },
    {
      "midi": 82,
      "hit": false,
      "t": 51911.1328125,
      "d": 277.734375,
      "v": 64
    },
    {
      "midi": 50,
      "hit": false,
      "t": 52207.03125,
      "d": 592.3828125,
      "v": 65
    },
    {
      "midi": 75,
      "hit": false,
      "t": 52802.34375,
      "d": 299.4140625,
      "v": 69
    },
    {
      "midi": 67,
      "hit": false,
      "t": 52802.34375,
      "d": 162.3046875,
      "v": 61
    },
    {
      "midi": 70,
      "hit": false,
      "t": 52802.34375,
      "d": 162.3046875,
      "v": 75
    },
    {
      "midi": 75,
      "hit": false,
      "t": 52974.0234375,
      "d": 136.5234375,
      "v": 64
    },
    {
      "midi": 74,
      "hit": false,
      "t": 53119.921875,
      "d": 136.5234375,
      "v": 64
    },
    {
      "midi": 74,
      "hit": false,
      "t": 53119.921875,
      "d": 136.5234375,
      "v": 64
    },
    {
      "midi": 75,
      "hit": false,
      "t": 53265.8203125,
      "d": 142.3828125,
      "v": 64
    },
    {
      "midi": 75,
      "hit": false,
      "t": 53265.8203125,
      "d": 142.3828125,
      "v": 64
    },
    {
      "midi": 87,
      "hit": false,
      "t": 53417.578125,
      "d": 594.140625,
      "v": 65
    },
    {
      "midi": 65,
      "hit": false,
      "t": 53417.578125,
      "d": 141.796875,
      "v": 57
    },
    {
      "midi": 68,
      "hit": false,
      "t": 53417.578125,
      "d": 141.796875,
      "v": 71
    },
    {
      "midi": 75,
      "hit": false,
      "t": 53568.75,
      "d": 135.3515625,
      "v": 64
    },
    {
      "midi": 74,
      "hit": false,
      "t": 53713.4765625,
      "d": 135.9375,
      "v": 64
    },
    {
      "midi": 75,
      "hit": false,
      "t": 53858.7890625,
      "d": 144.140625,
      "v": 64
    },
    {
      "midi": 86,
      "hit": false,
      "t": 54012.3046875,
      "d": 280.6640625,
      "v": 67
    },
    {
      "midi": 67,
      "hit": false,
      "t": 54012.3046875,
      "d": 144.7265625,
      "v": 59
    },
    {
      "midi": 70,
      "hit": false,
      "t": 54012.3046875,
      "d": 144.7265625,
      "v": 73
    },
    {
      "midi": 75,
      "hit": false,
      "t": 54166.40625,
      "d": 135.3515625,
      "v": 64
    },
    {
      "midi": 84,
      "hit": false,
      "t": 54311.1328125,
      "d": 135.9375,
      "v": 64
    },
    {
      "midi": 74,
      "hit": false,
      "t": 54311.1328125,
      "d": 135.9375,
      "v": 64
    },
    {
      "midi": 82,
      "hit": false,
      "t": 54456.4453125,
      "d": 141.2109375,
      "v": 64
    },
    {
      "midi": 75,
      "hit": false,
      "t": 54456.4453125,
      "d": 141.2109375,
      "v": 64
    },
    {
      "midi": 84,
      "hit": false,
      "t": 54607.03125,
      "d": 277.734375,
      "v": 65
    },
    {
      "midi": 65,
      "hit": false,
      "t": 54607.03125,
      "d": 141.2109375,
      "v": 57
    },
    {
      "midi": 68,
      "hit": false,
      "t": 54607.03125,
      "d": 141.2109375,
      "v": 71
    },
    {
      "midi": 75,
      "hit": false,
      "t": 54757.6171875,
      "d": 135.9375,
      "v": 64
    },
    {
      "midi": 80,
      "hit": false,
      "t": 54902.9296875,
      "d": 278.90625,
      "v": 64
    },
    {
      "midi": 74,
      "hit": false,
      "t": 54902.9296875,
      "d": 135.9375,
      "v": 64
    },
    {
      "midi": 75,
      "hit": false,
      "t": 55048.2421875,
      "d": 142.3828125,
      "v": 64
    },
    {
      "midi": 82,
      "hit": false,
      "t": 55202.34375,
      "d": 299.4140625,
      "v": 69
    },
    {
      "midi": 67,
      "hit": false,
      "t": 55202.34375,
      "d": 162.3046875,
      "v": 61
    },
    {
      "midi": 70,
      "hit": false,
      "t": 55202.34375,
      "d": 162.3046875,
      "v": 75
    },
    {
      "midi": 75,
      "hit": false,
      "t": 55374.0234375,
      "d": 136.5234375,
      "v": 64
    },
    {
      "midi": 80,
      "hit": false,
      "t": 55519.921875,
      "d": 136.5234375,
      "v": 64
    },
    {
      "midi": 74,
      "hit": false,
      "t": 55519.921875,
      "d": 136.5234375,
      "v": 64
    },
    {
      "midi": 79,
      "hit": false,
      "t": 55665.8203125,
      "d": 142.3828125,
      "v": 64
    },
    {
      "midi": 75,
      "hit": false,
      "t": 55665.8203125,
      "d": 142.3828125,
      "v": 64
    },
    {
      "midi": 80,
      "hit": false,
      "t": 55817.578125,
      "d": 277.734375,
      "v": 65
    },
    {
      "midi": 65,
      "hit": false,
      "t": 55817.578125,
      "d": 141.796875,
      "v": 57
    },
    {
      "midi": 68,
      "hit": false,
      "t": 55817.578125,
      "d": 141.796875,
      "v": 71
    },
    {
      "midi": 75,
      "hit": false,
      "t": 55968.75,
      "d": 135.3515625,
      "v": 64
    },
    {
      "midi": 77,
      "hit": false,
      "t": 56113.4765625,
      "d": 280.6640625,
      "v": 64
    },
    {
      "midi": 74,
      "hit": false,
      "t": 56113.4765625,
      "d": 135.9375,
      "v": 64
    },
    {
      "midi": 75,
      "hit": false,
      "t": 56258.7890625,
      "d": 144.140625,
      "v": 64
    },
    {
      "midi": 79,
      "hit": false,
      "t": 56412.3046875,
      "d": 280.6640625,
      "v": 67
    },
    {
      "midi": 67,
      "hit": false,
      "t": 56412.3046875,
      "d": 144.7265625,
      "v": 59
    },
    {
      "midi": 70,
      "hit": false,
      "t": 56412.3046875,
      "d": 144.7265625,
      "v": 73
    },
    {
      "midi": 75,
      "hit": false,
      "t": 56566.40625,
      "d": 135.3515625,
      "v": 64
    },
    {
      "midi": 87,
      "hit": false,
      "t": 56711.1328125,
      "d": 591.2109375,
      "v": 64
    },
    {
      "midi": 74,
      "hit": false,
      "t": 56711.1328125,
      "d": 135.9375,
      "v": 64
    },
    {
      "midi": 75,
      "hit": false,
      "t": 56856.4453125,
      "d": 141.2109375,
      "v": 64
    },
    {
      "midi": 65,
      "hit": false,
      "t": 57007.03125,
      "d": 141.2109375,
      "v": 57
    },
    {
      "midi": 68,
      "hit": false,
      "t": 57007.03125,
      "d": 141.2109375,
      "v": 71
    },
    {
      "midi": 75,
      "hit": false,
      "t": 57157.6171875,
      "d": 135.9375,
      "v": 64
    },
    {
      "midi": 87,
      "hit": false,
      "t": 57302.9296875,
      "d": 278.90625,
      "v": 64
    },
    {
      "midi": 74,
      "hit": false,
      "t": 57302.9296875,
      "d": 135.9375,
      "v": 64
    },
    {
      "midi": 75,
      "hit": false,
      "t": 57448.2421875,
      "d": 142.3828125,
      "v": 64
    },
    {
      "midi": 75,
      "hit": false,
      "t": 57602.34375,
      "d": 299.4140625,
      "v": 69
    },
    {
      "midi": 67,
      "hit": false,
      "t": 57602.34375,
      "d": 162.3046875,
      "v": 61
    },
    {
      "midi": 70,
      "hit": false,
      "t": 57602.34375,
      "d": 162.3046875,
      "v": 75
    },
    {
      "midi": 75,
      "hit": false,
      "t": 57774.0234375,
      "d": 136.5234375,
      "v": 64
    },
    {
      "midi": 74,
      "hit": false,
      "t": 57919.921875,
      "d": 136.5234375,
      "v": 64
    },
    {
      "midi": 74,
      "hit": false,
      "t": 57919.921875,
      "d": 136.5234375,
      "v": 64
    },
    {
      "midi": 75,
      "hit": false,
      "t": 58065.8203125,
      "d": 142.3828125,
      "v": 64
    },
    {
      "midi": 75,
      "hit": false,
      "t": 58065.8203125,
      "d": 142.3828125,
      "v": 64
    },
    {
      "midi": 87,
      "hit": false,
      "t": 58217.578125,
      "d": 594.140625,
      "v": 65
    },
    {
      "midi": 65,
      "hit": false,
      "t": 58217.578125,
      "d": 141.796875,
      "v": 57
    },
    {
      "midi": 68,
      "hit": false,
      "t": 58217.578125,
      "d": 141.796875,
      "v": 71
    },
    {
      "midi": 75,
      "hit": false,
      "t": 58368.75,
      "d": 135.3515625,
      "v": 64
    },
    {
      "midi": 74,
      "hit": false,
      "t": 58513.4765625,
      "d": 135.9375,
      "v": 64
    },
    {
      "midi": 75,
      "hit": false,
      "t": 58658.7890625,
      "d": 144.140625,
      "v": 64
    },
    {
      "midi": 86,
      "hit": false,
      "t": 58812.3046875,
      "d": 280.6640625,
      "v": 67
    },
    {
      "midi": 67,
      "hit": false,
      "t": 58812.3046875,
      "d": 144.7265625,
      "v": 59
    },
    {
      "midi": 70,
      "hit": false,
      "t": 58812.3046875,
      "d": 144.7265625,
      "v": 73
    },
    {
      "midi": 75,
      "hit": false,
      "t": 58966.40625,
      "d": 135.3515625,
      "v": 64
    },
    {
      "midi": 84,
      "hit": false,
      "t": 59111.1328125,
      "d": 135.9375,
      "v": 64
    },
    {
      "midi": 74,
      "hit": false,
      "t": 59111.1328125,
      "d": 135.9375,
      "v": 64
    },
    {
      "midi": 82,
      "hit": false,
      "t": 59256.4453125,
      "d": 141.2109375,
      "v": 64
    },
    {
      "midi": 75,
      "hit": false,
      "t": 59256.4453125,
      "d": 141.2109375,
      "v": 64
    },
    {
      "midi": 84,
      "hit": false,
      "t": 59407.03125,
      "d": 277.734375,
      "v": 65
    },
    {
      "midi": 65,
      "hit": false,
      "t": 59407.03125,
      "d": 141.2109375,
      "v": 57
    },
    {
      "midi": 68,
      "hit": false,
      "t": 59407.03125,
      "d": 141.2109375,
      "v": 71
    },
    {
      "midi": 75,
      "hit": false,
      "t": 59557.6171875,
      "d": 135.9375,
      "v": 64
    },
    {
      "midi": 80,
      "hit": false,
      "t": 59702.9296875,
      "d": 278.90625,
      "v": 64
    },
    {
      "midi": 74,
      "hit": false,
      "t": 59702.9296875,
      "d": 135.9375,
      "v": 64
    },
    {
      "midi": 75,
      "hit": false,
      "t": 59848.2421875,
      "d": 142.3828125,
      "v": 64
    },
    {
      "midi": 82,
      "hit": false,
      "t": 60002.34375,
      "d": 299.4140625,
      "v": 69
    },
    {
      "midi": 67,
      "hit": false,
      "t": 60002.34375,
      "d": 162.3046875,
      "v": 61
    },
    {
      "midi": 70,
      "hit": false,
      "t": 60002.34375,
      "d": 162.3046875,
      "v": 75
    },
    {
      "midi": 75,
      "hit": false,
      "t": 60174.0234375,
      "d": 136.5234375,
      "v": 64
    },
    {
      "midi": 80,
      "hit": false,
      "t": 60319.921875,
      "d": 136.5234375,
      "v": 64
    },
    {
      "midi": 74,
      "hit": false,
      "t": 60319.921875,
      "d": 136.5234375,
      "v": 64
    },
    {
      "midi": 79,
      "hit": false,
      "t": 60465.8203125,
      "d": 142.3828125,
      "v": 64
    },
    {
      "midi": 75,
      "hit": false,
      "t": 60465.8203125,
      "d": 142.3828125,
      "v": 64
    },
    {
      "midi": 80,
      "hit": false,
      "t": 60617.578125,
      "d": 277.734375,
      "v": 65
    },
    {
      "midi": 65,
      "hit": false,
      "t": 60617.578125,
      "d": 141.796875,
      "v": 57
    },
    {
      "midi": 68,
      "hit": false,
      "t": 60617.578125,
      "d": 141.796875,
      "v": 71
    },
    {
      "midi": 75,
      "hit": false,
      "t": 60768.75,
      "d": 135.3515625,
      "v": 64
    },
    {
      "midi": 77,
      "hit": false,
      "t": 60913.4765625,
      "d": 280.6640625,
      "v": 64
    },
    {
      "midi": 74,
      "hit": false,
      "t": 60913.4765625,
      "d": 135.9375,
      "v": 64
    },
    {
      "midi": 75,
      "hit": false,
      "t": 61058.7890625,
      "d": 144.140625,
      "v": 64
    },
    {
      "midi": 79,
      "hit": false,
      "t": 61212.3046875,
      "d": 594.140625,
      "v": 67
    },
    {
      "midi": 67,
      "hit": false,
      "t": 61212.3046875,
      "d": 144.7265625,
      "v": 59
    },
    {
      "midi": 70,
      "hit": false,
      "t": 61212.3046875,
      "d": 144.7265625,
      "v": 73
    },
    {
      "midi": 75,
      "hit": false,
      "t": 61366.40625,
      "d": 135.3515625,
      "v": 64
    },
    {
      "midi": 74,
      "hit": false,
      "t": 61511.1328125,
      "d": 135.9375,
      "v": 64
    },
    {
      "midi": 75,
      "hit": false,
      "t": 61656.4453125,
      "d": 141.2109375,
      "v": 64
    },
    {
      "midi": 87,
      "hit": false,
      "t": 61807.03125,
      "d": 592.3828125,
      "v": 65
    },
    {
      "midi": 64,
      "hit": false,
      "t": 61807.03125,
      "d": 141.2109375,
      "v": 57
    },
    {
      "midi": 67,
      "hit": false,
      "t": 61807.03125,
      "d": 141.2109375,
      "v": 71
    },
    {
      "midi": 75,
      "hit": false,
      "t": 61957.6171875,
      "d": 135.9375,
      "v": 64
    },
    {
      "midi": 74,
      "hit": false,
      "t": 62102.9296875,
      "d": 135.9375,
      "v": 64
    },
    {
      "midi": 75,
      "hit": false,
      "t": 62248.2421875,
      "d": 142.3828125,
      "v": 64
    },
    {
      "midi": 72,
      "hit": false,
      "t": 62402.34375,
      "d": 299.4140625,
      "v": 69
    },
    {
      "midi": 36,
      "hit": false,
      "t": 62402.34375,
      "d": 162.3046875,
      "v": 67
    },
    {
      "midi": 43,
      "hit": false,
      "t": 62574.0234375,
      "d": 136.5234375,
      "v": 64
    },
    {
      "midi": 71,
      "hit": false,
      "t": 62719.921875,
      "d": 136.5234375,
      "v": 64
    },
    {
      "midi": 48,
      "hit": false,
      "t": 62719.921875,
      "d": 136.5234375,
      "v": 64
    },
    {
      "midi": 72,
      "hit": false,
      "t": 62865.8203125,
      "d": 142.3828125,
      "v": 64
    },
    {
      "midi": 47,
      "hit": false,
      "t": 62865.8203125,
      "d": 142.3828125,
      "v": 64
    },
    {
      "midi": 84,
      "hit": false,
      "t": 63017.578125,
      "d": 594.140625,
      "v": 65
    },
    {
      "midi": 48,
      "hit": false,
      "t": 63017.578125,
      "d": 141.796875,
      "v": 65
    },
    {
      "midi": 55,
      "hit": false,
      "t": 63168.75,
      "d": 135.3515625,
      "v": 64
    },
    {
      "midi": 60,
      "hit": false,
      "t": 63313.4765625,
      "d": 135.9375,
      "v": 64
    },
    {
      "midi": 59,
      "hit": false,
      "t": 63458.7890625,
      "d": 144.140625,
      "v": 64
    },
    {
      "midi": 83,
      "hit": false,
      "t": 63612.3046875,
      "d": 280.6640625,
      "v": 67
    },
    {
      "midi": 64,
      "hit": false,
      "t": 63612.3046875,
      "d": 144.7265625,
      "v": 59
    },
    {
      "midi": 67,
      "hit": false,
      "t": 63612.3046875,
      "d": 144.7265625,
      "v": 59
    },
    {
      "midi": 71,
      "hit": false,
      "t": 63612.3046875,
      "d": 144.7265625,
      "v": 73
    },
    {
      "midi": 72,
      "hit": false,
      "t": 63766.40625,
      "d": 135.3515625,
      "v": 64
    },
    {
      "midi": 81,
      "hit": false,
      "t": 63911.1328125,
      "d": 135.9375,
      "v": 64
    },
    {
      "midi": 71,
      "hit": false,
      "t": 63911.1328125,
      "d": 135.9375,
      "v": 64
    },
    {
      "midi": 79,
      "hit": false,
      "t": 64056.4453125,
      "d": 141.2109375,
      "v": 64
    },
    {
      "midi": 72,
      "hit": false,
      "t": 64056.4453125,
      "d": 141.2109375,
      "v": 64
    },
    {
      "midi": 81,
      "hit": false,
      "t": 64207.03125,
      "d": 277.734375,
      "v": 65
    },
    {
      "midi": 62,
      "hit": false,
      "t": 64207.03125,
      "d": 141.2109375,
      "v": 57
    },
    {
      "midi": 65,
      "hit": false,
      "t": 64207.03125,
      "d": 141.2109375,
      "v": 71
    },
    {
      "midi": 72,
      "hit": false,
      "t": 64357.6171875,
      "d": 135.9375,
      "v": 64
    },
    {
      "midi": 77,
      "hit": false,
      "t": 64502.9296875,
      "d": 278.90625,
      "v": 64
    },
    {
      "midi": 71,
      "hit": false,
      "t": 64502.9296875,
      "d": 135.9375,
      "v": 64
    },
    {
      "midi": 72,
      "hit": false,
      "t": 64648.2421875,
      "d": 142.3828125,
      "v": 64
    },
    {
      "midi": 79,
      "hit": false,
      "t": 64802.34375,
      "d": 299.4140625,
      "v": 69
    },
    {
      "midi": 64,
      "hit": false,
      "t": 64802.34375,
      "d": 162.3046875,
      "v": 61
    },
    {
      "midi": 67,
      "hit": false,
      "t": 64802.34375,
      "d": 162.3046875,
      "v": 75
    },
    {
      "midi": 72,
      "hit": false,
      "t": 64974.0234375,
      "d": 136.5234375,
      "v": 64
    },
    {
      "midi": 77,
      "hit": false,
      "t": 65119.921875,
      "d": 136.5234375,
      "v": 64
    },
    {
      "midi": 71,
      "hit": false,
      "t": 65119.921875,
      "d": 136.5234375,
      "v": 64
    },
    {
      "midi": 76,
      "hit": false,
      "t": 65265.8203125,
      "d": 142.3828125,
      "v": 64
    },
    {
      "midi": 72,
      "hit": false,
      "t": 65265.8203125,
      "d": 142.3828125,
      "v": 64
    },
    {
      "midi": 77,
      "hit": false,
      "t": 65417.578125,
      "d": 277.734375,
      "v": 65
    },
    {
      "midi": 62,
      "hit": false,
      "t": 65417.578125,
      "d": 141.796875,
      "v": 57
    },
    {
      "midi": 65,
      "hit": false,
      "t": 65417.578125,
      "d": 141.796875,
      "v": 71
    },
    {
      "midi": 72,
      "hit": false,
      "t": 65568.75,
      "d": 135.3515625,
      "v": 64
    },
    {
      "midi": 74,
      "hit": false,
      "t": 65713.4765625,
      "d": 280.6640625,
      "v": 64
    },
    {
      "midi": 71,
      "hit": false,
      "t": 65713.4765625,
      "d": 135.9375,
      "v": 64
    },
    {
      "midi": 72,
      "hit": false,
      "t": 65858.7890625,
      "d": 144.140625,
      "v": 64
    },
    {
      "midi": 76,
      "hit": false,
      "t": 66012.3046875,
      "d": 280.6640625,
      "v": 67
    },
    {
      "midi": 64,
      "hit": false,
      "t": 66012.3046875,
      "d": 144.7265625,
      "v": 59
    },
    {
      "midi": 67,
      "hit": false,
      "t": 66012.3046875,
      "d": 144.7265625,
      "v": 73
    },
    {
      "midi": 72,
      "hit": false,
      "t": 66166.40625,
      "d": 135.3515625,
      "v": 64
    },
    {
      "midi": 84,
      "hit": false,
      "t": 66311.1328125,
      "d": 591.2109375,
      "v": 64
    },
    {
      "midi": 71,
      "hit": false,
      "t": 66311.1328125,
      "d": 135.9375,
      "v": 64
    },
    {
      "midi": 72,
      "hit": false,
      "t": 66456.4453125,
      "d": 141.2109375,
      "v": 64
    },
    {
      "midi": 62,
      "hit": false,
      "t": 66607.03125,
      "d": 141.2109375,
      "v": 57
    },
    {
      "midi": 65,
      "hit": false,
      "t": 66607.03125,
      "d": 141.2109375,
      "v": 71
    },
    {
      "midi": 72,
      "hit": false,
      "t": 66757.6171875,
      "d": 135.9375,
      "v": 64
    },
    {
      "midi": 84,
      "hit": false,
      "t": 66902.9296875,
      "d": 278.90625,
      "v": 64
    },
    {
      "midi": 71,
      "hit": false,
      "t": 66902.9296875,
      "d": 135.9375,
      "v": 64
    },
    {
      "midi": 72,
      "hit": false,
      "t": 67048.2421875,
      "d": 142.3828125,
      "v": 64
    },
    {
      "midi": 72,
      "hit": false,
      "t": 67202.34375,
      "d": 299.4140625,
      "v": 69
    },
    {
      "midi": 36,
      "hit": false,
      "t": 67202.34375,
      "d": 162.3046875,
      "v": 67
    },
    {
      "midi": 43,
      "hit": false,
      "t": 67374.0234375,
      "d": 136.5234375,
      "v": 64
    },
    {
      "midi": 71,
      "hit": false,
      "t": 67519.921875,
      "d": 136.5234375,
      "v": 64
    },
    {
      "midi": 48,
      "hit": false,
      "t": 67519.921875,
      "d": 136.5234375,
      "v": 64
    },
    {
      "midi": 72,
      "hit": false,
      "t": 67665.8203125,
      "d": 142.3828125,
      "v": 64
    },
    {
      "midi": 47,
      "hit": false,
      "t": 67665.8203125,
      "d": 142.3828125,
      "v": 64
    },
    {
      "midi": 84,
      "hit": false,
      "t": 67817.578125,
      "d": 594.140625,
      "v": 65
    },
    {
      "midi": 48,
      "hit": false,
      "t": 67817.578125,
      "d": 141.796875,
      "v": 65
    },
    {
      "midi": 55,
      "hit": false,
      "t": 67968.75,
      "d": 135.3515625,
      "v": 64
    },
    {
      "midi": 60,
      "hit": false,
      "t": 68113.4765625,
      "d": 135.9375,
      "v": 64
    },
    {
      "midi": 59,
      "hit": false,
      "t": 68258.7890625,
      "d": 144.140625,
      "v": 64
    },
    {
      "midi": 83,
      "hit": false,
      "t": 68412.3046875,
      "d": 280.6640625,
      "v": 67
    },
    {
      "midi": 64,
      "hit": false,
      "t": 68412.3046875,
      "d": 144.7265625,
      "v": 59
    },
    {
      "midi": 67,
      "hit": false,
      "t": 68412.3046875,
      "d": 144.7265625,
      "v": 59
    },
    {
      "midi": 71,
      "hit": false,
      "t": 68412.3046875,
      "d": 144.7265625,
      "v": 73
    },
    {
      "midi": 72,
      "hit": false,
      "t": 68566.40625,
      "d": 135.3515625,
      "v": 64
    },
    {
      "midi": 81,
      "hit": false,
      "t": 68711.1328125,
      "d": 135.9375,
      "v": 64
    },
    {
      "midi": 71,
      "hit": false,
      "t": 68711.1328125,
      "d": 135.9375,
      "v": 64
    },
    {
      "midi": 79,
      "hit": false,
      "t": 68856.4453125,
      "d": 141.2109375,
      "v": 64
    },
    {
      "midi": 72,
      "hit": false,
      "t": 68856.4453125,
      "d": 141.2109375,
      "v": 64
    },
    {
      "midi": 81,
      "hit": false,
      "t": 69007.03125,
      "d": 277.734375,
      "v": 65
    },
    {
      "midi": 62,
      "hit": false,
      "t": 69007.03125,
      "d": 141.2109375,
      "v": 57
    },
    {
      "midi": 65,
      "hit": false,
      "t": 69007.03125,
      "d": 141.2109375,
      "v": 71
    },
    {
      "midi": 72,
      "hit": false,
      "t": 69157.6171875,
      "d": 135.9375,
      "v": 64
    },
    {
      "midi": 77,
      "hit": false,
      "t": 69302.9296875,
      "d": 278.90625,
      "v": 64
    },
    {
      "midi": 71,
      "hit": false,
      "t": 69302.9296875,
      "d": 135.9375,
      "v": 64
    },
    {
      "midi": 72,
      "hit": false,
      "t": 69448.2421875,
      "d": 142.3828125,
      "v": 64
    },
    {
      "midi": 79,
      "hit": false,
      "t": 69602.34375,
      "d": 299.4140625,
      "v": 69
    },
    {
      "midi": 64,
      "hit": false,
      "t": 69602.34375,
      "d": 162.3046875,
      "v": 61
    },
    {
      "midi": 67,
      "hit": false,
      "t": 69602.34375,
      "d": 162.3046875,
      "v": 75
    },
    {
      "midi": 72,
      "hit": false,
      "t": 69774.0234375,
      "d": 136.5234375,
      "v": 64
    },
    {
      "midi": 77,
      "hit": false,
      "t": 69919.921875,
      "d": 136.5234375,
      "v": 64
    },
    {
      "midi": 71,
      "hit": false,
      "t": 69919.921875,
      "d": 136.5234375,
      "v": 64
    },
    {
      "midi": 76,
      "hit": false,
      "t": 70065.8203125,
      "d": 142.3828125,
      "v": 64
    },
    {
      "midi": 72,
      "hit": false,
      "t": 70065.8203125,
      "d": 142.3828125,
      "v": 64
    },
    {
      "midi": 77,
      "hit": false,
      "t": 70217.578125,
      "d": 277.734375,
      "v": 65
    },
    {
      "midi": 62,
      "hit": false,
      "t": 70217.578125,
      "d": 141.796875,
      "v": 57
    },
    {
      "midi": 65,
      "hit": false,
      "t": 70217.578125,
      "d": 141.796875,
      "v": 71
    },
    {
      "midi": 72,
      "hit": false,
      "t": 70368.75,
      "d": 135.3515625,
      "v": 64
    },
    {
      "midi": 74,
      "hit": false,
      "t": 70513.4765625,
      "d": 280.6640625,
      "v": 64
    },
    {
      "midi": 71,
      "hit": false,
      "t": 70513.4765625,
      "d": 135.9375,
      "v": 64
    },
    {
      "midi": 72,
      "hit": false,
      "t": 70658.7890625,
      "d": 144.140625,
      "v": 64
    },
    {
      "midi": 72,
      "hit": false,
      "t": 70812.3046875,
      "d": 594.140625,
      "v": 67
    },
    {
      "midi": 64,
      "hit": false,
      "t": 70812.3046875,
      "d": 144.7265625,
      "v": 59
    },
    {
      "midi": 67,
      "hit": false,
      "t": 70812.3046875,
      "d": 144.7265625,
      "v": 73
    },
    {
      "midi": 72,
      "hit": false,
      "t": 70966.40625,
      "d": 135.3515625,
      "v": 64
    },
    {
      "midi": 71,
      "hit": false,
      "t": 71111.1328125,
      "d": 135.9375,
      "v": 64
    },
    {
      "midi": 72,
      "hit": false,
      "t": 71256.4453125,
      "d": 141.2109375,
      "v": 64
    },
    {
      "midi": 84,
      "hit": false,
      "t": 71407.03125,
      "d": 592.3828125,
      "v": 65
    },
    {
      "midi": 62,
      "hit": false,
      "t": 71407.03125,
      "d": 141.2109375,
      "v": 57
    },
    {
      "midi": 65,
      "hit": false,
      "t": 71407.03125,
      "d": 141.2109375,
      "v": 71
    },
    {
      "midi": 72,
      "hit": false,
      "t": 71557.6171875,
      "d": 135.9375,
      "v": 64
    },
    {
      "midi": 71,
      "hit": false,
      "t": 71702.9296875,
      "d": 135.9375,
      "v": 64
    },
    {
      "midi": 72,
      "hit": false,
      "t": 71848.2421875,
      "d": 142.3828125,
      "v": 64
    },
    {
      "midi": 64,
      "hit": false,
      "t": 72002.34375,
      "d": 162.3046875,
      "v": 61
    },
    {
      "midi": 67,
      "hit": false,
      "t": 72002.34375,
      "d": 162.3046875,
      "v": 75
    },
    {
      "midi": 72,
      "hit": false,
      "t": 72174.0234375,
      "d": 136.5234375,
      "v": 64
    },
    {
      "midi": 71,
      "hit": false,
      "t": 72319.921875,
      "d": 136.5234375,
      "v": 64
    },
    {
      "midi": 72,
      "hit": false,
      "t": 72465.8203125,
      "d": 142.3828125,
      "v": 64
    },
    {
      "midi": 62,
      "hit": false,
      "t": 72617.578125,
      "d": 141.796875,
      "v": 57
    },
    {
      "midi": 65,
      "hit": false,
      "t": 72617.578125,
      "d": 141.796875,
      "v": 71
    },
    {
      "midi": 72,
      "hit": false,
      "t": 72768.75,
      "d": 135.3515625,
      "v": 64
    },
    {
      "midi": 71,
      "hit": false,
      "t": 72913.4765625,
      "d": 135.9375,
      "v": 64
    },
    {
      "midi": 72,
      "hit": false,
      "t": 73058.7890625,
      "d": 144.140625,
      "v": 64
    },
    {
      "midi": 64,
      "hit": false,
      "t": 73212.3046875,
      "d": 144.7265625,
      "v": 59
    },
    {
      "midi": 67,
      "hit": false,
      "t": 73212.3046875,
      "d": 144.7265625,
      "v": 73
    },
    {
      "midi": 72,
      "hit": false,
      "t": 73366.40625,
      "d": 135.3515625,
      "v": 64
    },
    {
      "midi": 71,
      "hit": false,
      "t": 73511.1328125,
      "d": 135.9375,
      "v": 64
    },
    {
      "midi": 72,
      "hit": false,
      "t": 73656.4453125,
      "d": 141.2109375,
      "v": 64
    },
    {
      "midi": 62,
      "hit": false,
      "t": 73807.03125,
      "d": 141.2109375,
      "v": 57
    },
    {
      "midi": 65,
      "hit": false,
      "t": 73807.03125,
      "d": 141.2109375,
      "v": 71
    },
    {
      "midi": 72,
      "hit": false,
      "t": 73957.6171875,
      "d": 135.9375,
      "v": 64
    },
    {
      "midi": 71,
      "hit": false,
      "t": 74102.9296875,
      "d": 135.9375,
      "v": 64
    },
    {
      "midi": 72,
      "hit": false,
      "t": 74248.2421875,
      "d": 142.3828125,
      "v": 64
    },
    {
      "midi": 64,
      "hit": false,
      "t": 74402.34375,
      "d": 162.3046875,
      "v": 61
    },
    {
      "midi": 67,
      "hit": false,
      "t": 74402.34375,
      "d": 162.3046875,
      "v": 75
    },
    {
      "midi": 72,
      "hit": false,
      "t": 74574.0234375,
      "d": 136.5234375,
      "v": 64
    },
    {
      "midi": 71,
      "hit": false,
      "t": 74719.921875,
      "d": 136.5234375,
      "v": 64
    },
    {
      "midi": 72,
      "hit": false,
      "t": 74865.8203125,
      "d": 142.3828125,
      "v": 64
    },
    {
      "midi": 62,
      "hit": false,
      "t": 75017.578125,
      "d": 141.796875,
      "v": 57
    },
    {
      "midi": 65,
      "hit": false,
      "t": 75017.578125,
      "d": 141.796875,
      "v": 71
    },
    {
      "midi": 72,
      "hit": false,
      "t": 75168.75,
      "d": 135.3515625,
      "v": 64
    },
    {
      "midi": 71,
      "hit": false,
      "t": 75313.4765625,
      "d": 135.9375,
      "v": 64
    },
    {
      "midi": 72,
      "hit": false,
      "t": 75458.7890625,
      "d": 144.140625,
      "v": 64
    },
    {
      "midi": 64,
      "hit": false,
      "t": 75612.3046875,
      "d": 144.7265625,
      "v": 59
    },
    {
      "midi": 67,
      "hit": false,
      "t": 75612.3046875,
      "d": 144.7265625,
      "v": 73
    },
    {
      "midi": 72,
      "hit": false,
      "t": 75766.40625,
      "d": 135.3515625,
      "v": 64
    },
    {
      "midi": 71,
      "hit": false,
      "t": 75911.1328125,
      "d": 135.9375,
      "v": 64
    },
    {
      "midi": 72,
      "hit": false,
      "t": 76056.4453125,
      "d": 141.2109375,
      "v": 64
    },
    {
      "midi": 62,
      "hit": false,
      "t": 76207.03125,
      "d": 141.2109375,
      "v": 57
    },
    {
      "midi": 65,
      "hit": false,
      "t": 76207.03125,
      "d": 141.2109375,
      "v": 71
    },
    {
      "midi": 72,
      "hit": false,
      "t": 76357.6171875,
      "d": 135.9375,
      "v": 64
    },
    {
      "midi": 71,
      "hit": false,
      "t": 76502.9296875,
      "d": 135.9375,
      "v": 64
    },
    {
      "midi": 72,
      "hit": false,
      "t": 76648.2421875,
      "d": 142.3828125,
      "v": 64
    },
    {
      "midi": 64,
      "hit": false,
      "t": 76802.34375,
      "d": 162.3046875,
      "v": 61
    },
    {
      "midi": 67,
      "hit": false,
      "t": 76802.34375,
      "d": 162.3046875,
      "v": 75
    },
    {
      "midi": 48,
      "hit": false,
      "t": 76802.34375,
      "d": 162.3046875,
      "v": 69
    },
    {
      "midi": 72,
      "hit": false,
      "t": 76974.0234375,
      "d": 136.5234375,
      "v": 64
    },
    {
      "midi": 55,
      "hit": false,
      "t": 76974.0234375,
      "d": 136.5234375,
      "v": 64
    },
    {
      "midi": 71,
      "hit": false,
      "t": 77119.921875,
      "d": 136.5234375,
      "v": 64
    },
    {
      "midi": 60,
      "hit": false,
      "t": 77119.921875,
      "d": 136.5234375,
      "v": 64
    },
    {
      "midi": 72,
      "hit": false,
      "t": 77265.8203125,
      "d": 142.3828125,
      "v": 64
    },
    {
      "midi": 59,
      "hit": false,
      "t": 77265.8203125,
      "d": 142.3828125,
      "v": 64
    },
    {
      "midi": 62,
      "hit": false,
      "t": 77417.578125,
      "d": 141.796875,
      "v": 57
    },
    {
      "midi": 65,
      "hit": false,
      "t": 77417.578125,
      "d": 141.796875,
      "v": 71
    },
    {
      "midi": 60,
      "hit": false,
      "t": 77417.578125,
      "d": 277.734375,
      "v": 65
    },
    {
      "midi": 72,
      "hit": false,
      "t": 77568.75,
      "d": 135.3515625,
      "v": 64
    },
    {
      "midi": 71,
      "hit": false,
      "t": 77713.4765625,
      "d": 135.9375,
      "v": 64
    },
    {
      "midi": 57,
      "hit": false,
      "t": 77713.4765625,
      "d": 135.9375,
      "v": 64
    },
    {
      "midi": 72,
      "hit": false,
      "t": 77858.7890625,
      "d": 144.140625,
      "v": 64
    },
    {
      "midi": 59,
      "hit": false,
      "t": 77858.7890625,
      "d": 144.140625,
      "v": 64
    },
    {
      "midi": 64,
      "hit": false,
      "t": 78012.3046875,
      "d": 144.7265625,
      "v": 59
    },
    {
      "midi": 67,
      "hit": false,
      "t": 78012.3046875,
      "d": 144.7265625,
      "v": 73
    },
    {
      "midi": 60,
      "hit": false,
      "t": 78012.3046875,
      "d": 280.6640625,
      "v": 67
    },
    {
      "midi": 72,
      "hit": false,
      "t": 78166.40625,
      "d": 135.3515625,
      "v": 64
    },
    {
      "midi": 71,
      "hit": false,
      "t": 78311.1328125,
      "d": 135.9375,
      "v": 64
    },
    {
      "midi": 55,
      "hit": false,
      "t": 78311.1328125,
      "d": 277.734375,
      "v": 64
    },
    {
      "midi": 72,
      "hit": false,
      "t": 78456.4453125,
      "d": 141.2109375,
      "v": 64
    },
    {
      "midi": 62,
      "hit": false,
      "t": 78607.03125,
      "d": 141.2109375,
      "v": 57
    },
    {
      "midi": 65,
      "hit": false,
      "t": 78607.03125,
      "d": 141.2109375,
      "v": 71
    },
    {
      "midi": 57,
      "hit": false,
      "t": 78607.03125,
      "d": 592.3828125,
      "v": 65
    },
    {
      "midi": 72,
      "hit": false,
      "t": 78757.6171875,
      "d": 135.9375,
      "v": 64
    },
    {
      "midi": 71,
      "hit": false,
      "t": 78902.9296875,
      "d": 135.9375,
      "v": 64
    },
    {
      "midi": 72,
      "hit": false,
      "t": 79048.2421875,
      "d": 142.3828125,
      "v": 64
    },
    {
      "midi": 64,
      "hit": false,
      "t": 79202.34375,
      "d": 162.3046875,
      "v": 61
    },
    {
      "midi": 67,
      "hit": false,
      "t": 79202.34375,
      "d": 162.3046875,
      "v": 75
    },
    {
      "midi": 48,
      "hit": false,
      "t": 79202.34375,
      "d": 162.3046875,
      "v": 69
    },
    {
      "midi": 72,
      "hit": false,
      "t": 79374.0234375,
      "d": 136.5234375,
      "v": 64
    },
    {
      "midi": 55,
      "hit": false,
      "t": 79374.0234375,
      "d": 136.5234375,
      "v": 64
    },
    {
      "midi": 71,
      "hit": false,
      "t": 79519.921875,
      "d": 136.5234375,
      "v": 64
    },
    {
      "midi": 60,
      "hit": false,
      "t": 79519.921875,
      "d": 136.5234375,
      "v": 64
    },
    {
      "midi": 72,
      "hit": false,
      "t": 79665.8203125,
      "d": 142.3828125,
      "v": 64
    },
    {
      "midi": 59,
      "hit": false,
      "t": 79665.8203125,
      "d": 142.3828125,
      "v": 64
    },
    {
      "midi": 62,
      "hit": false,
      "t": 79817.578125,
      "d": 141.796875,
      "v": 57
    },
    {
      "midi": 65,
      "hit": false,
      "t": 79817.578125,
      "d": 141.796875,
      "v": 71
    },
    {
      "midi": 60,
      "hit": false,
      "t": 79817.578125,
      "d": 277.734375,
      "v": 65
    },
    {
      "midi": 72,
      "hit": false,
      "t": 79968.75,
      "d": 135.3515625,
      "v": 64
    },
    {
      "midi": 71,
      "hit": false,
      "t": 80113.4765625,
      "d": 135.9375,
      "v": 64
    },
    {
      "midi": 57,
      "hit": false,
      "t": 80113.4765625,
      "d": 135.9375,
      "v": 64
    },
    {
      "midi": 72,
      "hit": false,
      "t": 80258.7890625,
      "d": 144.140625,
      "v": 64
    },
    {
      "midi": 59,
      "hit": false,
      "t": 80258.7890625,
      "d": 144.140625,
      "v": 64
    },
    {
      "midi": 64,
      "hit": false,
      "t": 80412.3046875,
      "d": 144.7265625,
      "v": 59
    },
    {
      "midi": 67,
      "hit": false,
      "t": 80412.3046875,
      "d": 144.7265625,
      "v": 73
    },
    {
      "midi": 60,
      "hit": false,
      "t": 80412.3046875,
      "d": 280.6640625,
      "v": 67
    },
    {
      "midi": 72,
      "hit": false,
      "t": 80566.40625,
      "d": 135.3515625,
      "v": 64
    },
    {
      "midi": 71,
      "hit": false,
      "t": 80711.1328125,
      "d": 135.9375,
      "v": 64
    },
    {
      "midi": 55,
      "hit": false,
      "t": 80711.1328125,
      "d": 277.734375,
      "v": 64
    },
    {
      "midi": 72,
      "hit": false,
      "t": 80856.4453125,
      "d": 141.2109375,
      "v": 64
    },
    {
      "midi": 62,
      "hit": false,
      "t": 81007.03125,
      "d": 141.2109375,
      "v": 57
    },
    {
      "midi": 65,
      "hit": false,
      "t": 81007.03125,
      "d": 141.2109375,
      "v": 71
    },
    {
      "midi": 57,
      "hit": false,
      "t": 81007.03125,
      "d": 592.3828125,
      "v": 65
    },
    {
      "midi": 72,
      "hit": false,
      "t": 81157.6171875,
      "d": 135.9375,
      "v": 64
    },
    {
      "midi": 71,
      "hit": false,
      "t": 81302.9296875,
      "d": 135.9375,
      "v": 64
    },
    {
      "midi": 72,
      "hit": false,
      "t": 81448.2421875,
      "d": 142.3828125,
      "v": 64
    },
    {
      "midi": 64,
      "hit": false,
      "t": 81602.34375,
      "d": 162.3046875,
      "v": 61
    },
    {
      "midi": 67,
      "hit": false,
      "t": 81602.34375,
      "d": 162.3046875,
      "v": 75
    },
    {
      "midi": 53,
      "hit": false,
      "t": 81602.34375,
      "d": 162.3046875,
      "v": 69
    },
    {
      "midi": 72,
      "hit": false,
      "t": 81774.0234375,
      "d": 136.5234375,
      "v": 64
    },
    {
      "midi": 55,
      "hit": false,
      "t": 81774.0234375,
      "d": 136.5234375,
      "v": 64
    },
    {
      "midi": 71,
      "hit": false,
      "t": 81919.921875,
      "d": 136.5234375,
      "v": 64
    },
    {
      "midi": 53,
      "hit": false,
      "t": 81919.921875,
      "d": 136.5234375,
      "v": 64
    },
    {
      "midi": 72,
      "hit": false,
      "t": 82065.8203125,
      "d": 142.3828125,
      "v": 64
    },
    {
      "midi": 52,
      "hit": false,
      "t": 82065.8203125,
      "d": 142.3828125,
      "v": 64
    },
    {
      "midi": 62,
      "hit": false,
      "t": 82217.578125,
      "d": 141.796875,
      "v": 57
    },
    {
      "midi": 65,
      "hit": false,
      "t": 82217.578125,
      "d": 141.796875,
      "v": 71
    },
    {
      "midi": 50,
      "hit": false,
      "t": 82217.578125,
      "d": 277.734375,
      "v": 65
    },
    {
      "midi": 72,
      "hit": false,
      "t": 82368.75,
      "d": 135.3515625,
      "v": 64
    },
    {
      "midi": 71,
      "hit": false,
      "t": 82513.4765625,
      "d": 135.9375,
      "v": 64
    },
    {
      "midi": 55,
      "hit": false,
      "t": 82513.4765625,
      "d": 280.6640625,
      "v": 64
    },
    {
      "midi": 72,
      "hit": false,
      "t": 82658.7890625,
      "d": 144.140625,
      "v": 64
    },
    {
      "midi": 64,
      "hit": false,
      "t": 82812.3046875,
      "d": 144.7265625,
      "v": 59
    },
    {
      "midi": 67,
      "hit": false,
      "t": 82812.3046875,
      "d": 144.7265625,
      "v": 73
    },
    {
      "midi": 52,
      "hit": false,
      "t": 82812.3046875,
      "d": 144.7265625,
      "v": 67
    },
    {
      "midi": 72,
      "hit": false,
      "t": 82966.40625,
      "d": 135.3515625,
      "v": 64
    },
    {
      "midi": 53,
      "hit": false,
      "t": 82966.40625,
      "d": 135.3515625,
      "v": 64
    },
    {
      "midi": 71,
      "hit": false,
      "t": 83111.1328125,
      "d": 135.9375,
      "v": 64
    },
    {
      "midi": 52,
      "hit": false,
      "t": 83111.1328125,
      "d": 135.9375,
      "v": 64
    },
    {
      "midi": 72,
      "hit": false,
      "t": 83256.4453125,
      "d": 141.2109375,
      "v": 64
    },
    {
      "midi": 50,
      "hit": false,
      "t": 83256.4453125,
      "d": 141.2109375,
      "v": 64
    },
    {
      "midi": 62,
      "hit": false,
      "t": 83407.03125,
      "d": 141.2109375,
      "v": 57
    },
    {
      "midi": 65,
      "hit": false,
      "t": 83407.03125,
      "d": 141.2109375,
      "v": 71
    },
    {
      "midi": 48,
      "hit": false,
      "t": 83407.03125,
      "d": 277.734375,
      "v": 65
    },
    {
      "midi": 72,
      "hit": false,
      "t": 83557.6171875,
      "d": 135.9375,
      "v": 64
    },
    {
      "midi": 71,
      "hit": false,
      "t": 83702.9296875,
      "d": 135.9375,
      "v": 64
    },
    {
      "midi": 60,
      "hit": false,
      "t": 83702.9296875,
      "d": 278.90625,
      "v": 64
    },
    {
      "midi": 72,
      "hit": false,
      "t": 83848.2421875,
      "d": 142.3828125,
      "v": 64
    },
    {
      "midi": 64,
      "hit": false,
      "t": 84002.34375,
      "d": 162.3046875,
      "v": 61
    },
    {
      "midi": 67,
      "hit": false,
      "t": 84002.34375,
      "d": 162.3046875,
      "v": 75
    },
    {
      "midi": 59,
      "hit": false,
      "t": 84002.34375,
      "d": 162.3046875,
      "v": 69
    },
    {
      "midi": 72,
      "hit": false,
      "t": 84174.0234375,
      "d": 136.5234375,
      "v": 64
    },
    {
      "midi": 60,
      "hit": false,
      "t": 84174.0234375,
      "d": 136.5234375,
      "v": 64
    },
    {
      "midi": 71,
      "hit": false,
      "t": 84319.921875,
      "d": 136.5234375,
      "v": 64
    },
    {
      "midi": 62,
      "hit": false,
      "t": 84319.921875,
      "d": 136.5234375,
      "v": 64
    },
    {
      "midi": 72,
      "hit": false,
      "t": 84465.8203125,
      "d": 142.3828125,
      "v": 64
    },
    {
      "midi": 60,
      "hit": false,
      "t": 84465.8203125,
      "d": 142.3828125,
      "v": 64
    },
    {
      "midi": 62,
      "hit": false,
      "t": 84617.578125,
      "d": 141.796875,
      "v": 57
    },
    {
      "midi": 65,
      "hit": false,
      "t": 84617.578125,
      "d": 141.796875,
      "v": 71
    },
    {
      "midi": 59,
      "hit": false,
      "t": 84617.578125,
      "d": 141.796875,
      "v": 65
    },
    {
      "midi": 72,
      "hit": false,
      "t": 84768.75,
      "d": 135.3515625,
      "v": 64
    },
    {
      "midi": 60,
      "hit": false,
      "t": 84768.75,
      "d": 135.3515625,
      "v": 64
    },
    {
      "midi": 71,
      "hit": false,
      "t": 84913.4765625,
      "d": 135.9375,
      "v": 64
    },
    {
      "midi": 59,
      "hit": false,
      "t": 84913.4765625,
      "d": 135.9375,
      "v": 64
    },
    {
      "midi": 72,
      "hit": false,
      "t": 85058.7890625,
      "d": 144.140625,
      "v": 64
    },
    {
      "midi": 57,
      "hit": false,
      "t": 85058.7890625,
      "d": 144.140625,
      "v": 64
    },
    {
      "midi": 64,
      "hit": false,
      "t": 85212.3046875,
      "d": 144.7265625,
      "v": 59
    },
    {
      "midi": 67,
      "hit": false,
      "t": 85212.3046875,
      "d": 144.7265625,
      "v": 73
    },
    {
      "midi": 55,
      "hit": false,
      "t": 85212.3046875,
      "d": 280.6640625,
      "v": 67
    },
    {
      "midi": 72,
      "hit": false,
      "t": 85366.40625,
      "d": 135.3515625,
      "v": 64
    },
    {
      "midi": 71,
      "hit": false,
      "t": 85511.1328125,
      "d": 135.9375,
      "v": 64
    },
    {
      "midi": 72,
      "hit": false,
      "t": 85656.4453125,
      "d": 141.2109375,
      "v": 64
    },
    {
      "midi": 62,
      "hit": false,
      "t": 85807.03125,
      "d": 141.2109375,
      "v": 57
    },
    {
      "midi": 65,
      "hit": false,
      "t": 85807.03125,
      "d": 141.2109375,
      "v": 71
    },
    {
      "midi": 72,
      "hit": false,
      "t": 85957.6171875,
      "d": 135.9375,
      "v": 64
    },
    {
      "midi": 71,
      "hit": false,
      "t": 86102.9296875,
      "d": 135.9375,
      "v": 64
    },
    {
      "midi": 72,
      "hit": false,
      "t": 86248.2421875,
      "d": 142.3828125,
      "v": 64
    },
    {
      "midi": 55,
      "hit": false,
      "t": 86248.2421875,
      "d": 45.1171875,
      "v": 64
    },
    {
      "midi": 57,
      "hit": false,
      "t": 86296.875,
      "d": 46.2890625,
      "v": 64
    },
    {
      "midi": 59,
      "hit": false,
      "t": 86346.6796875,
      "d": 49.8046875,
      "v": 64
    },
    {
      "midi": 69,
      "hit": false,
      "t": 86402.34375,
      "d": 162.3046875,
      "v": 69
    },
    {
      "midi": 36,
      "hit": false,
      "t": 86402.34375,
      "d": 299.4140625,
      "v": 59
    },
    {
      "midi": 48,
      "hit": false,
      "t": 86402.34375,
      "d": 299.4140625,
      "v": 75
    },
    {
      "midi": 79,
      "hit": false,
      "t": 86574.0234375,
      "d": 136.5234375,
      "v": 64
    },
    {
      "midi": 84,
      "hit": false,
      "t": 86719.921875,
      "d": 136.5234375,
      "v": 64
    },
    {
      "midi": 60,
      "hit": false,
      "t": 86719.921875,
      "d": 592.96875,
      "v": 56
    },
    {
      "midi": 64,
      "hit": false,
      "t": 86719.921875,
      "d": 592.96875,
      "v": 70
    },
    {
      "midi": 83,
      "hit": false,
      "t": 86865.8203125,
      "d": 142.3828125,
      "v": 64
    },
    {
      "midi": 84,
      "hit": false,
      "t": 87017.578125,
      "d": 277.734375,
      "v": 65
    },
    {
      "midi": 81,
      "hit": false,
      "t": 87313.4765625,
      "d": 135.9375,
      "v": 64
    },
    {
      "midi": 60,
      "hit": false,
      "t": 87313.4765625,
      "d": 280.6640625,
      "v": 56
    },
    {
      "midi": 64,
      "hit": false,
      "t": 87313.4765625,
      "d": 280.6640625,
      "v": 70
    },
    {
      "midi": 83,
      "hit": false,
      "t": 87458.7890625,
      "d": 144.140625,
      "v": 64
    },
    {
      "midi": 84,
      "hit": false,
      "t": 87612.3046875,
      "d": 280.6640625,
      "v": 67
    },
    {
      "midi": 36,
      "hit": false,
      "t": 87612.3046875,
      "d": 280.6640625,
      "v": 57
    },
    {
      "midi": 48,
      "hit": false,
      "t": 87612.3046875,
      "d": 280.6640625,
      "v": 73
    },
    {
      "midi": 79,
      "hit": false,
      "t": 87911.1328125,
      "d": 277.734375,
      "v": 64
    },
    {
      "midi": 60,
      "hit": false,
      "t": 87911.1328125,
      "d": 591.2109375,
      "v": 56
    },
    {
      "midi": 65,
      "hit": false,
      "t": 87911.1328125,
      "d": 591.2109375,
      "v": 70
    },
    {
      "midi": 81,
      "hit": false,
      "t": 88207.03125,
      "d": 592.3828125,
      "v": 65
    },
    {
      "midi": 60,
      "hit": false,
      "t": 88502.9296875,
      "d": 278.90625,
      "v": 56
    },
    {
      "midi": 64,
      "hit": false,
      "t": 88502.9296875,
      "d": 278.90625,
      "v": 70
    },
    {
      "midi": 69,
      "hit": false,
      "t": 88802.34375,
      "d": 162.3046875,
      "v": 69
    },
    {
      "midi": 36,
      "hit": false,
      "t": 88802.34375,
      "d": 299.4140625,
      "v": 59
    },
    {
      "midi": 48,
      "hit": false,
      "t": 88802.34375,
      "d": 299.4140625,
      "v": 75
    },
    {
      "midi": 79,
      "hit": false,
      "t": 88974.0234375,
      "d": 136.5234375,
      "v": 64
    },
    {
      "midi": 84,
      "hit": false,
      "t": 89119.921875,
      "d": 136.5234375,
      "v": 64
    },
    {
      "midi": 60,
      "hit": false,
      "t": 89119.921875,
      "d": 592.96875,
      "v": 56
    },
    {
      "midi": 64,
      "hit": false,
      "t": 89119.921875,
      "d": 592.96875,
      "v": 70
    },
    {
      "midi": 83,
      "hit": false,
      "t": 89265.8203125,
      "d": 142.3828125,
      "v": 64
    },
    {
      "midi": 84,
      "hit": false,
      "t": 89417.578125,
      "d": 277.734375,
      "v": 65
    },
    {
      "midi": 81,
      "hit": false,
      "t": 89713.4765625,
      "d": 135.9375,
      "v": 64
    },
    {
      "midi": 60,
      "hit": false,
      "t": 89713.4765625,
      "d": 280.6640625,
      "v": 56
    },
    {
      "midi": 64,
      "hit": false,
      "t": 89713.4765625,
      "d": 280.6640625,
      "v": 70
    },
    {
      "midi": 83,
      "hit": false,
      "t": 89858.7890625,
      "d": 144.140625,
      "v": 64
    },
    {
      "midi": 84,
      "hit": false,
      "t": 90012.3046875,
      "d": 280.6640625,
      "v": 67
    },
    {
      "midi": 36,
      "hit": false,
      "t": 90012.3046875,
      "d": 280.6640625,
      "v": 57
    },
    {
      "midi": 48,
      "hit": false,
      "t": 90012.3046875,
      "d": 280.6640625,
      "v": 73
    },
    {
      "midi": 79,
      "hit": false,
      "t": 90311.1328125,
      "d": 277.734375,
      "v": 64
    },
    {
      "midi": 60,
      "hit": false,
      "t": 90311.1328125,
      "d": 591.2109375,
      "v": 56
    },
    {
      "midi": 65,
      "hit": false,
      "t": 90311.1328125,
      "d": 591.2109375,
      "v": 70
    },
    {
      "midi": 81,
      "hit": false,
      "t": 90607.03125,
      "d": 592.3828125,
      "v": 65
    },
    {
      "midi": 60,
      "hit": false,
      "t": 90902.9296875,
      "d": 278.90625,
      "v": 56
    },
    {
      "midi": 64,
      "hit": false,
      "t": 90902.9296875,
      "d": 278.90625,
      "v": 70
    },
    {
      "midi": 77,
      "hit": false,
      "t": 91202.34375,
      "d": 162.3046875,
      "v": 69
    },
    {
      "midi": 41,
      "hit": false,
      "t": 91202.34375,
      "d": 299.4140625,
      "v": 61
    },
    {
      "midi": 53,
      "hit": false,
      "t": 91202.34375,
      "d": 299.4140625,
      "v": 75
    },
    {
      "midi": 79,
      "hit": false,
      "t": 91374.0234375,
      "d": 136.5234375,
      "v": 64
    },
    {
      "midi": 77,
      "hit": false,
      "t": 91519.921875,
      "d": 136.5234375,
      "v": 64
    },
    {
      "midi": 60,
      "hit": false,
      "t": 91519.921875,
      "d": 592.96875,
      "v": 56
    },
    {
      "midi": 65,
      "hit": false,
      "t": 91519.921875,
      "d": 592.96875,
      "v": 70
    },
    {
      "midi": 76,
      "hit": false,
      "t": 91665.8203125,
      "d": 142.3828125,
      "v": 64
    },
    {
      "midi": 74,
      "hit": false,
      "t": 91817.578125,
      "d": 277.734375,
      "v": 65
    },
    {
      "midi": 79,
      "hit": false,
      "t": 92113.4765625,
      "d": 280.6640625,
      "v": 64
    },
    {
      "midi": 60,
      "hit": false,
      "t": 92113.4765625,
      "d": 280.6640625,
      "v": 56
    },
    {
      "midi": 65,
      "hit": false,
      "t": 92113.4765625,
      "d": 280.6640625,
      "v": 70
    },
    {
      "midi": 76,
      "hit": false,
      "t": 92412.3046875,
      "d": 144.7265625,
      "v": 67
    },
    {
      "midi": 36,
      "hit": false,
      "t": 92412.3046875,
      "d": 280.6640625,
      "v": 57
    },
    {
      "midi": 48,
      "hit": false,
      "t": 92412.3046875,
      "d": 280.6640625,
      "v": 73
    },
    {
      "midi": 77,
      "hit": false,
      "t": 92566.40625,
      "d": 135.3515625,
      "v": 64
    },
    {
      "midi": 76,
      "hit": false,
      "t": 92711.1328125,
      "d": 135.9375,
      "v": 64
    },
    {
      "midi": 60,
      "hit": false,
      "t": 92711.1328125,
      "d": 591.2109375,
      "v": 56
    },
    {
      "midi": 67,
      "hit": false,
      "t": 92711.1328125,
      "d": 591.2109375,
      "v": 70
    },
    {
      "midi": 74,
      "hit": false,
      "t": 92856.4453125,
      "d": 141.2109375,
      "v": 64
    },
    {
      "midi": 72,
      "hit": false,
      "t": 93007.03125,
      "d": 277.734375,
      "v": 65
    },
    {
      "midi": 84,
      "hit": false,
      "t": 93302.9296875,
      "d": 278.90625,
      "v": 64
    },
    {
      "midi": 60,
      "hit": false,
      "t": 93302.9296875,
      "d": 278.90625,
      "v": 56
    },
    {
      "midi": 67,
      "hit": false,
      "t": 93302.9296875,
      "d": 278.90625,
      "v": 70
    },
    {
      "midi": 83,
      "hit": false,
      "t": 93602.34375,
      "d": 162.3046875,
      "v": 69
    },
    {
      "midi": 38,
      "hit": false,
      "t": 93602.34375,
      "d": 299.4140625,
      "v": 60
    },
    {
      "midi": 50,
      "hit": false,
      "t": 93602.34375,
      "d": 299.4140625,
      "v": 75
    },
    {
      "midi": 84,
      "hit": false,
      "t": 93774.0234375,
      "d": 136.5234375,
      "v": 64
    },
    {
      "midi": 86,
      "hit": false,
      "t": 93919.921875,
      "d": 136.5234375,
      "v": 64
    },
    {
      "midi": 62,
      "hit": false,
      "t": 93919.921875,
      "d": 592.96875,
      "v": 56
    },
    {
      "midi": 65,
      "hit": false,
      "t": 93919.921875,
      "d": 592.96875,
      "v": 70
    },
    {
      "midi": 84,
      "hit": false,
      "t": 94065.8203125,
      "d": 142.3828125,
      "v": 64
    },
    {
      "midi": 83,
      "hit": false,
      "t": 94217.578125,
      "d": 141.796875,
      "v": 65
    },
    {
      "midi": 84,
      "hit": false,
      "t": 94368.75,
      "d": 135.3515625,
      "v": 64
    },
    {
      "midi": 83,
      "hit": false,
      "t": 94513.4765625,
      "d": 135.9375,
      "v": 64
    },
    {
      "midi": 62,
      "hit": false,
      "t": 94513.4765625,
      "d": 280.6640625,
      "v": 56
    },
    {
      "midi": 65,
      "hit": false,
      "t": 94513.4765625,
      "d": 280.6640625,
      "v": 70
    },
    {
      "midi": 81,
      "hit": false,
      "t": 94658.7890625,
      "d": 144.140625,
      "v": 64
    },
    {
      "midi": 79,
      "hit": false,
      "t": 94812.3046875,
      "d": 280.6640625,
      "v": 67
    },
    {
      "midi": 43,
      "hit": false,
      "t": 94812.3046875,
      "d": 280.6640625,
      "v": 59
    },
    {
      "midi": 55,
      "hit": false,
      "t": 94812.3046875,
      "d": 280.6640625,
      "v": 73
    },
    {
      "midi": 91,
      "hit": false,
      "t": 95111.1328125,
      "d": 277.734375,
      "v": 64
    },
    {
      "midi": 62,
      "hit": false,
      "t": 95111.1328125,
      "d": 591.2109375,
      "v": 56
    },
    {
      "midi": 67,
      "hit": false,
      "t": 95111.1328125,
      "d": 591.2109375,
      "v": 70
    },
    {
      "midi": 62,
      "hit": false,
      "t": 95702.9296875,
      "d": 278.90625,
      "v": 56
    },
    {
      "midi": 67,
      "hit": false,
      "t": 95702.9296875,
      "d": 278.90625,
      "v": 66
    },
    {
      "midi": 58,
      "hit": false,
      "t": 95848.2421875,
      "d": 45.1171875,
      "v": 64
    },
    {
      "midi": 60,
      "hit": false,
      "t": 95896.875,
      "d": 46.2890625,
      "v": 64
    },
    {
      "midi": 62,
      "hit": false,
      "t": 95946.6796875,
      "d": 49.8046875,
      "v": 64
    },
    {
      "midi": 63,
      "hit": false,
      "t": 96002.34375,
      "d": 162.3046875,
      "v": 69
    },
    {
      "midi": 39,
      "hit": false,
      "t": 96002.34375,
      "d": 614.6484375,
      "v": 68
    },
    {
      "midi": 70,
      "hit": false,
      "t": 96174.0234375,
      "d": 136.5234375,
      "v": 64
    },
    {
      "midi": 75,
      "hit": false,
      "t": 96319.921875,
      "d": 136.5234375,
      "v": 64
    },
    {
      "midi": 74,
      "hit": false,
      "t": 96465.8203125,
      "d": 142.3828125,
      "v": 64
    },
    {
      "midi": 75,
      "hit": false,
      "t": 96617.578125,
      "d": 277.734375,
      "v": 65
    },
    {
      "midi": 72,
      "hit": false,
      "t": 96913.4765625,
      "d": 135.9375,
      "v": 64
    },
    {
      "midi": 74,
      "hit": false,
      "t": 97058.7890625,
      "d": 144.140625,
      "v": 64
    },
    {
      "midi": 75,
      "hit": false,
      "t": 97212.3046875,
      "d": 280.6640625,
      "v": 67
    },
    {
      "midi": 39,
      "hit": false,
      "t": 97212.3046875,
      "d": 594.140625,
      "v": 66
    },
    {
      "midi": 70,
      "hit": false,
      "t": 97511.1328125,
      "d": 277.734375,
      "v": 64
    },
    {
      "midi": 72,
      "hit": false,
      "t": 97807.03125,
      "d": 592.3828125,
      "v": 65
    },
    {
      "midi": 63,
      "hit": false,
      "t": 98402.34375,
      "d": 162.3046875,
      "v": 69
    },
    {
      "midi": 39,
      "hit": false,
      "t": 98402.34375,
      "d": 614.6484375,
      "v": 68
    },
    {
      "midi": 70,
      "hit": false,
      "t": 98574.0234375,
      "d": 136.5234375,
      "v": 64
    },
    {
      "midi": 75,
      "hit": false,
      "t": 98719.921875,
      "d": 136.5234375,
      "v": 64
    },
    {
      "midi": 74,
      "hit": false,
      "t": 98865.8203125,
      "d": 142.3828125,
      "v": 64
    },
    {
      "midi": 75,
      "hit": false,
      "t": 99017.578125,
      "d": 277.734375,
      "v": 65
    },
    {
      "midi": 72,
      "hit": false,
      "t": 99313.4765625,
      "d": 135.9375,
      "v": 64
    },
    {
      "midi": 74,
      "hit": false,
      "t": 99458.7890625,
      "d": 144.140625,
      "v": 64
    },
    {
      "midi": 75,
      "hit": false,
      "t": 99612.3046875,
      "d": 280.6640625,
      "v": 67
    },
    {
      "midi": 39,
      "hit": false,
      "t": 99612.3046875,
      "d": 594.140625,
      "v": 66
    },
    {
      "midi": 70,
      "hit": false,
      "t": 99911.1328125,
      "d": 277.734375,
      "v": 64
    },
    {
      "midi": 72,
      "hit": false,
      "t": 100207.03125,
      "d": 592.3828125,
      "v": 65
    },
    {
      "midi": 68,
      "hit": false,
      "t": 100802.34375,
      "d": 162.3046875,
      "v": 69
    },
    {
      "midi": 44,
      "hit": false,
      "t": 100802.34375,
      "d": 614.6484375,
      "v": 69
    },
    {
      "midi": 70,
      "hit": false,
      "t": 100974.0234375,
      "d": 136.5234375,
      "v": 64
    },
    {
      "midi": 68,
      "hit": false,
      "t": 101119.921875,
      "d": 136.5234375,
      "v": 64
    },
    {
      "midi": 67,
      "hit": false,
      "t": 101265.8203125,
      "d": 142.3828125,
      "v": 64
    },
    {
      "midi": 65,
      "hit": false,
      "t": 101417.578125,
      "d": 277.734375,
      "v": 65
    },
    {
      "midi": 70,
      "hit": false,
      "t": 101713.4765625,
      "d": 280.6640625,
      "v": 64
    },
    {
      "midi": 67,
      "hit": false,
      "t": 102012.3046875,
      "d": 144.7265625,
      "v": 67
    },
    {
      "midi": 39,
      "hit": false,
      "t": 102012.3046875,
      "d": 594.140625,
      "v": 66
    },
    {
      "midi": 68,
      "hit": false,
      "t": 102166.40625,
      "d": 135.3515625,
      "v": 64
    },
    {
      "midi": 67,
      "hit": false,
      "t": 102311.1328125,
      "d": 135.9375,
      "v": 64
    },
    {
      "midi": 65,
      "hit": false,
      "t": 102456.4453125,
      "d": 141.2109375,
      "v": 64
    },
    {
      "midi": 63,
      "hit": false,
      "t": 102607.03125,
      "d": 277.734375,
      "v": 65
    },
    {
      "midi": 75,
      "hit": false,
      "t": 102902.9296875,
      "d": 278.90625,
      "v": 64
    },
    {
      "midi": 74,
      "hit": false,
      "t": 103202.34375,
      "d": 162.3046875,
      "v": 69
    },
    {
      "midi": 41,
      "hit": false,
      "t": 103202.34375,
      "d": 614.6484375,
      "v": 69
    },
    {
      "midi": 75,
      "hit": false,
      "t": 103374.0234375,
      "d": 136.5234375,
      "v": 64
    },
    {
      "midi": 77,
      "hit": false,
      "t": 103519.921875,
      "d": 136.5234375,
      "v": 64
    },
    {
      "midi": 75,
      "hit": false,
      "t": 103665.8203125,
      "d": 142.3828125,
      "v": 64
    },
    {
      "midi": 74,
      "hit": false,
      "t": 103817.578125,
      "d": 141.796875,
      "v": 65
    },
    {
      "midi": 75,
      "hit": false,
      "t": 103968.75,
      "d": 135.3515625,
      "v": 64
    },
    {
      "midi": 74,
      "hit": false,
      "t": 104113.4765625,
      "d": 135.9375,
      "v": 64
    },
    {
      "midi": 72,
      "hit": false,
      "t": 104258.7890625,
      "d": 144.140625,
      "v": 64
    },
    {
      "midi": 70,
      "hit": false,
      "t": 104412.3046875,
      "d": 280.6640625,
      "v": 67
    },
    {
      "midi": 34,
      "hit": false,
      "t": 104412.3046875,
      "d": 594.140625,
      "v": 65
    },
    {
      "midi": 82,
      "hit": false,
      "t": 104711.1328125,
      "d": 277.734375,
      "v": 64
    },
    {
      "midi": 79,
      "hit": false,
      "t": 105302.9296875,
      "d": 135.9375,
      "v": 64
    },
    {
      "midi": 80,
      "hit": false,
      "t": 105448.2421875,
      "d": 142.3828125,
      "v": 64
    },
    {
      "midi": 82,
      "hit": false,
      "t": 105602.34375,
      "d": 162.3046875,
      "v": 69
    },
    {
      "midi": 39,
      "hit": false,
      "t": 105602.34375,
      "d": 162.3046875,
      "v": 68
    },
    {
      "midi": 80,
      "hit": false,
      "t": 105774.0234375,
      "d": 136.5234375,
      "v": 64
    },
    {
      "midi": 46,
      "hit": false,
      "t": 105774.0234375,
      "d": 136.5234375,
      "v": 64
    },
    {
      "midi": 79,
      "hit": false,
      "t": 105919.921875,
      "d": 136.5234375,
      "v": 64
    },
    {
      "midi": 51,
      "hit": false,
      "t": 105919.921875,
      "d": 136.5234375,
      "v": 64
    },
    {
      "midi": 80,
      "hit": false,
      "t": 106065.8203125,
      "d": 142.3828125,
      "v": 64
    },
    {
      "midi": 50,
      "hit": false,
      "t": 106065.8203125,
      "d": 142.3828125,
      "v": 64
    },
    {
      "midi": 79,
      "hit": false,
      "t": 106217.578125,
      "d": 277.734375,
      "v": 65
    },
    {
      "midi": 51,
      "hit": false,
      "t": 106217.578125,
      "d": 277.734375,
      "v": 65
    },
    {
      "midi": 77,
      "hit": false,
      "t": 106513.4765625,
      "d": 280.6640625,
      "v": 64
    },
    {
      "midi": 48,
      "hit": false,
      "t": 106513.4765625,
      "d": 135.9375,
      "v": 64
    },
    {
      "midi": 50,
      "hit": false,
      "t": 106658.7890625,
      "d": 144.140625,
      "v": 64
    },
    {
      "midi": 79,
      "hit": false,
      "t": 106812.3046875,
      "d": 280.6640625,
      "v": 67
    },
    {
      "midi": 39,
      "hit": false,
      "t": 106812.3046875,
      "d": 280.6640625,
      "v": 58
    },
    {
      "midi": 51,
      "hit": false,
      "t": 106812.3046875,
      "d": 280.6640625,
      "v": 73
    },
    {
      "midi": 80,
      "hit": false,
      "t": 107111.1328125,
      "d": 135.9375,
      "v": 64
    },
    {
      "midi": 46,
      "hit": false,
      "t": 107111.1328125,
      "d": 277.734375,
      "v": 64
    },
    {
      "midi": 79,
      "hit": false,
      "t": 107256.4453125,
      "d": 141.2109375,
      "v": 64
    },
    {
      "midi": 77,
      "hit": false,
      "t": 107407.03125,
      "d": 141.2109375,
      "v": 65
    },
    {
      "midi": 48,
      "hit": false,
      "t": 107407.03125,
      "d": 592.3828125,
      "v": 65
    },
    {
      "midi": 75,
      "hit": false,
      "t": 107557.6171875,
      "d": 135.9375,
      "v": 64
    },
    {
      "midi": 74,
      "hit": false,
      "t": 107702.9296875,
      "d": 135.9375,
      "v": 64
    },
    {
      "midi": 70,
      "hit": false,
      "t": 107848.2421875,
      "d": 142.3828125,
      "v": 64
    },
    {
      "midi": 79,
      "hit": false,
      "t": 108002.34375,
      "d": 162.3046875,
      "v": 69
    },
    {
      "midi": 39,
      "hit": false,
      "t": 108002.34375,
      "d": 162.3046875,
      "v": 68
    },
    {
      "midi": 80,
      "hit": false,
      "t": 108174.0234375,
      "d": 136.5234375,
      "v": 64
    },
    {
      "midi": 46,
      "hit": false,
      "t": 108174.0234375,
      "d": 136.5234375,
      "v": 64
    },
    {
      "midi": 79,
      "hit": false,
      "t": 108319.921875,
      "d": 136.5234375,
      "v": 64
    },
    {
      "midi": 51,
      "hit": false,
      "t": 108319.921875,
      "d": 136.5234375,
      "v": 64
    },
    {
      "midi": 80,
      "hit": false,
      "t": 108465.8203125,
      "d": 142.3828125,
      "v": 64
    },
    {
      "midi": 50,
      "hit": false,
      "t": 108465.8203125,
      "d": 142.3828125,
      "v": 64
    },
    {
      "midi": 82,
      "hit": false,
      "t": 108617.578125,
      "d": 277.734375,
      "v": 65
    },
    {
      "midi": 51,
      "hit": false,
      "t": 108617.578125,
      "d": 277.734375,
      "v": 65
    },
    {
      "midi": 75,
      "hit": false,
      "t": 108913.4765625,
      "d": 280.6640625,
      "v": 64
    },
    {
      "midi": 48,
      "hit": false,
      "t": 108913.4765625,
      "d": 135.9375,
      "v": 64
    },
    {
      "midi": 50,
      "hit": false,
      "t": 109058.7890625,
      "d": 144.140625,
      "v": 64
    },
    {
      "midi": 84,
      "hit": false,
      "t": 109212.3046875,
      "d": 144.7265625,
      "v": 67
    },
    {
      "midi": 39,
      "hit": false,
      "t": 109212.3046875,
      "d": 280.6640625,
      "v": 58
    },
    {
      "midi": 51,
      "hit": false,
      "t": 109212.3046875,
      "d": 280.6640625,
      "v": 73
    },
    {
      "midi": 82,
      "hit": false,
      "t": 109366.40625,
      "d": 135.3515625,
      "v": 64
    },
    {
      "midi": 80,
      "hit": false,
      "t": 109511.1328125,
      "d": 135.9375,
      "v": 64
    },
    {
      "midi": 46,
      "hit": false,
      "t": 109511.1328125,
      "d": 277.734375,
      "v": 64
    },
    {
      "midi": 79,
      "hit": false,
      "t": 109656.4453125,
      "d": 141.2109375,
      "v": 64
    },
    {
      "midi": 77,
      "hit": false,
      "t": 109807.03125,
      "d": 141.2109375,
      "v": 65
    },
    {
      "midi": 48,
      "hit": false,
      "t": 109807.03125,
      "d": 592.3828125,
      "v": 65
    },
    {
      "midi": 75,
      "hit": false,
      "t": 109957.6171875,
      "d": 135.9375,
      "v": 64
    },
    {
      "midi": 74,
      "hit": false,
      "t": 110102.9296875,
      "d": 135.9375,
      "v": 64
    },
    {
      "midi": 70,
      "hit": false,
      "t": 110248.2421875,
      "d": 142.3828125,
      "v": 64
    },
    {
      "midi": 77,
      "hit": false,
      "t": 110402.34375,
      "d": 69.140625,
      "v": 69
    },
    {
      "midi": 44,
      "hit": false,
      "t": 110402.34375,
      "d": 162.3046875,
      "v": 69
    },
    {
      "midi": 79,
      "hit": false,
      "t": 110475,
      "d": 46.875,
      "v": 64
    },
    {
      "midi": 80,
      "hit": false,
      "t": 110525.390625,
      "d": 45.1171875,
      "v": 64
    },
    {
      "midi": 82,
      "hit": false,
      "t": 110574.0234375,
      "d": 1037.6953125,
      "v": 64
    },
    {
      "midi": 46,
      "hit": false,
      "t": 110574.0234375,
      "d": 136.5234375,
      "v": 64
    },
    {
      "midi": 44,
      "hit": false,
      "t": 110719.921875,
      "d": 136.5234375,
      "v": 64
    },
    {
      "midi": 43,
      "hit": false,
      "t": 110865.8203125,
      "d": 142.3828125,
      "v": 64
    },
    {
      "midi": 41,
      "hit": false,
      "t": 111017.578125,
      "d": 277.734375,
      "v": 65
    },
    {
      "midi": 46,
      "hit": false,
      "t": 111313.4765625,
      "d": 280.6640625,
      "v": 64
    },
    {
      "midi": 80,
      "hit": false,
      "t": 111612.3046875,
      "d": 1187.109375,
      "v": 67
    },
    {
      "midi": 39,
      "hit": false,
      "t": 111612.3046875,
      "d": 144.7265625,
      "v": 58
    },
    {
      "midi": 43,
      "hit": false,
      "t": 111612.3046875,
      "d": 144.7265625,
      "v": 73
    },
    {
      "midi": 44,
      "hit": false,
      "t": 111766.40625,
      "d": 135.3515625,
      "v": 64
    },
    {
      "midi": 43,
      "hit": false,
      "t": 111911.1328125,
      "d": 135.9375,
      "v": 64
    },
    {
      "midi": 41,
      "hit": false,
      "t": 112056.4453125,
      "d": 141.2109375,
      "v": 64
    },
    {
      "midi": 39,
      "hit": false,
      "t": 112207.03125,
      "d": 277.734375,
      "v": 64
    },
    {
      "midi": 51,
      "hit": false,
      "t": 112502.9296875,
      "d": 278.90625,
      "v": 64
    },
    {
      "midi": 79,
      "hit": false,
      "t": 112802.34375,
      "d": 614.6484375,
      "v": 69
    },
    {
      "midi": 41,
      "hit": false,
      "t": 112802.34375,
      "d": 162.3046875,
      "v": 61
    },
    {
      "midi": 50,
      "hit": false,
      "t": 112802.34375,
      "d": 162.3046875,
      "v": 75
    },
    {
      "midi": 51,
      "hit": false,
      "t": 112974.0234375,
      "d": 136.5234375,
      "v": 64
    },
    {
      "midi": 53,
      "hit": false,
      "t": 113119.921875,
      "d": 136.5234375,
      "v": 64
    },
    {
      "midi": 51,
      "hit": false,
      "t": 113265.8203125,
      "d": 142.3828125,
      "v": 64
    },
    {
      "midi": 77,
      "hit": false,
      "t": 113417.578125,
      "d": 594.140625,
      "v": 65
    },
    {
      "midi": 50,
      "hit": false,
      "t": 113417.578125,
      "d": 141.796875,
      "v": 65
    },
    {
      "midi": 51,
      "hit": false,
      "t": 113568.75,
      "d": 135.3515625,
      "v": 64
    },
    {
      "midi": 50,
      "hit": false,
      "t": 113713.4765625,
      "d": 135.9375,
      "v": 64
    },
    {
      "midi": 48,
      "hit": false,
      "t": 113858.7890625,
      "d": 144.140625,
      "v": 64
    },
    {
      "midi": 75,
      "hit": false,
      "t": 114012.3046875,
      "d": 594.140625,
      "v": 67
    },
    {
      "midi": 46,
      "hit": false,
      "t": 114012.3046875,
      "d": 280.6640625,
      "v": 67
    },
    {
      "midi": 58,
      "hit": false,
      "t": 114311.1328125,
      "d": 277.734375,
      "v": 64
    },
    {
      "midi": 74,
      "hit": false,
      "t": 114607.03125,
      "d": 592.3828125,
      "v": 65
    },
    {
      "midi": 55,
      "hit": false,
      "t": 114902.9296875,
      "d": 135.9375,
      "v": 64
    },
    {
      "midi": 56,
      "hit": false,
      "t": 115048.2421875,
      "d": 142.3828125,
      "v": 64
    },
    {
      "midi": 63,
      "hit": false,
      "t": 115202.34375,
      "d": 162.3046875,
      "v": 69
    },
    {
      "midi": 51,
      "hit": false,
      "t": 115202.34375,
      "d": 162.3046875,
      "v": 61
    },
    {
      "midi": 58,
      "hit": false,
      "t": 115202.34375,
      "d": 162.3046875,
      "v": 75
    },
    {
      "midi": 70,
      "hit": false,
      "t": 115374.0234375,
      "d": 136.5234375,
      "v": 64
    },
    {
      "midi": 56,
      "hit": false,
      "t": 115374.0234375,
      "d": 136.5234375,
      "v": 64
    },
    {
      "midi": 75,
      "hit": false,
      "t": 115519.921875,
      "d": 136.5234375,
      "v": 64
    },
    {
      "midi": 55,
      "hit": false,
      "t": 115519.921875,
      "d": 136.5234375,
      "v": 64
    },
    {
      "midi": 74,
      "hit": false,
      "t": 115665.8203125,
      "d": 142.3828125,
      "v": 64
    },
    {
      "midi": 56,
      "hit": false,
      "t": 115665.8203125,
      "d": 142.3828125,
      "v": 64
    },
    {
      "midi": 75,
      "hit": false,
      "t": 115817.578125,
      "d": 277.734375,
      "v": 65
    },
    {
      "midi": 55,
      "hit": false,
      "t": 115817.578125,
      "d": 277.734375,
      "v": 65
    },
    {
      "midi": 72,
      "hit": false,
      "t": 116113.4765625,
      "d": 135.9375,
      "v": 64
    },
    {
      "midi": 53,
      "hit": false,
      "t": 116113.4765625,
      "d": 280.6640625,
      "v": 64
    },
    {
      "midi": 74,
      "hit": false,
      "t": 116258.7890625,
      "d": 144.140625,
      "v": 64
    },
    {
      "midi": 75,
      "hit": false,
      "t": 116412.3046875,
      "d": 280.6640625,
      "v": 67
    },
    {
      "midi": 51,
      "hit": false,
      "t": 116412.3046875,
      "d": 280.6640625,
      "v": 59
    },
    {
      "midi": 55,
      "hit": false,
      "t": 116412.3046875,
      "d": 280.6640625,
      "v": 73
    },
    {
      "midi": 70,
      "hit": false,
      "t": 116711.1328125,
      "d": 277.734375,
      "v": 64
    },
    {
      "midi": 56,
      "hit": false,
      "t": 116711.1328125,
      "d": 135.9375,
      "v": 64
    },
    {
      "midi": 55,
      "hit": false,
      "t": 116856.4453125,
      "d": 141.2109375,
      "v": 64
    },
    {
      "midi": 72,
      "hit": false,
      "t": 117007.03125,
      "d": 592.3828125,
      "v": 65
    },
    {
      "midi": 53,
      "hit": false,
      "t": 117007.03125,
      "d": 141.2109375,
      "v": 65
    },
    {
      "midi": 51,
      "hit": false,
      "t": 117157.6171875,
      "d": 135.9375,
      "v": 64
    },
    {
      "midi": 50,
      "hit": false,
      "t": 117302.9296875,
      "d": 135.9375,
      "v": 64
    },
    {
      "midi": 46,
      "hit": false,
      "t": 117448.2421875,
      "d": 142.3828125,
      "v": 64
    },
    {
      "midi": 63,
      "hit": false,
      "t": 117602.34375,
      "d": 162.3046875,
      "v": 69
    },
    {
      "midi": 51,
      "hit": false,
      "t": 117602.34375,
      "d": 162.3046875,
      "v": 61
    },
    {
      "midi": 55,
      "hit": false,
      "t": 117602.34375,
      "d": 162.3046875,
      "v": 75
    },
    {
      "midi": 70,
      "hit": false,
      "t": 117774.0234375,
      "d": 136.5234375,
      "v": 64
    },
    {
      "midi": 56,
      "hit": false,
      "t": 117774.0234375,
      "d": 136.5234375,
      "v": 64
    },
    {
      "midi": 75,
      "hit": false,
      "t": 117919.921875,
      "d": 136.5234375,
      "v": 64
    },
    {
      "midi": 55,
      "hit": false,
      "t": 117919.921875,
      "d": 136.5234375,
      "v": 64
    },
    {
      "midi": 74,
      "hit": false,
      "t": 118065.8203125,
      "d": 142.3828125,
      "v": 64
    },
    {
      "midi": 56,
      "hit": false,
      "t": 118065.8203125,
      "d": 142.3828125,
      "v": 64
    },
    {
      "midi": 75,
      "hit": false,
      "t": 118217.578125,
      "d": 277.734375,
      "v": 65
    },
    {
      "midi": 58,
      "hit": false,
      "t": 118217.578125,
      "d": 277.734375,
      "v": 65
    },
    {
      "midi": 72,
      "hit": false,
      "t": 118513.4765625,
      "d": 135.9375,
      "v": 64
    },
    {
      "midi": 53,
      "hit": false,
      "t": 118513.4765625,
      "d": 280.6640625,
      "v": 64
    },
    {
      "midi": 74,
      "hit": false,
      "t": 118658.7890625,
      "d": 144.140625,
      "v": 64
    },
    {
      "midi": 75,
      "hit": false,
      "t": 118812.3046875,
      "d": 280.6640625,
      "v": 67
    },
    {
      "midi": 51,
      "hit": false,
      "t": 118812.3046875,
      "d": 280.6640625,
      "v": 59
    },
    {
      "midi": 60,
      "hit": false,
      "t": 118812.3046875,
      "d": 280.6640625,
      "v": 73
    },
    {
      "midi": 70,
      "hit": false,
      "t": 119111.1328125,
      "d": 277.734375,
      "v": 64
    },
    {
      "midi": 56,
      "hit": false,
      "t": 119111.1328125,
      "d": 135.9375,
      "v": 64
    },
    {
      "midi": 55,
      "hit": false,
      "t": 119256.4453125,
      "d": 141.2109375,
      "v": 64
    },
    {
      "midi": 72,
      "hit": false,
      "t": 119407.03125,
      "d": 592.3828125,
      "v": 65
    },
    {
      "midi": 53,
      "hit": false,
      "t": 119407.03125,
      "d": 141.2109375,
      "v": 65
    },
    {
      "midi": 51,
      "hit": false,
      "t": 119557.6171875,
      "d": 135.9375,
      "v": 64
    },
    {
      "midi": 50,
      "hit": false,
      "t": 119702.9296875,
      "d": 135.9375,
      "v": 64
    },
    {
      "midi": 46,
      "hit": false,
      "t": 119848.2421875,
      "d": 142.3828125,
      "v": 64
    },
    {
      "midi": 68,
      "hit": false,
      "t": 120002.34375,
      "d": 162.3046875,
      "v": 69
    },
    {
      "midi": 52,
      "hit": false,
      "t": 120002.34375,
      "d": 69.140625,
      "v": 69
    },
    {
      "midi": 55,
      "hit": false,
      "t": 120075,
      "d": 46.875,
      "v": 64
    },
    {
      "midi": 56,
      "hit": false,
      "t": 120125.390625,
      "d": 45.1171875,
      "v": 64
    },
    {
      "midi": 70,
      "hit": false,
      "t": 120174.0234375,
      "d": 136.5234375,
      "v": 64
    },
    {
      "midi": 56,
      "hit": false,
      "t": 120174.0234375,
      "d": 1037.6953125,
      "v": 56
    },
    {
      "midi": 59,
      "hit": false,
      "t": 120174.0234375,
      "d": 1037.6953125,
      "v": 70
    },
    {
      "midi": 68,
      "hit": false,
      "t": 120319.921875,
      "d": 136.5234375,
      "v": 64
    },
    {
      "midi": 67,
      "hit": false,
      "t": 120465.8203125,
      "d": 142.3828125,
      "v": 64
    },
    {
      "midi": 65,
      "hit": false,
      "t": 120617.578125,
      "d": 277.734375,
      "v": 65
    },
    {
      "midi": 70,
      "hit": false,
      "t": 120913.4765625,
      "d": 280.6640625,
      "v": 64
    },
    {
      "midi": 67,
      "hit": false,
      "t": 121212.3046875,
      "d": 144.7265625,
      "v": 67
    },
    {
      "midi": 56,
      "hit": false,
      "t": 121212.3046875,
      "d": 1187.109375,
      "v": 67
    },
    {
      "midi": 68,
      "hit": false,
      "t": 121366.40625,
      "d": 135.3515625,
      "v": 64
    },
    {
      "midi": 67,
      "hit": false,
      "t": 121511.1328125,
      "d": 135.9375,
      "v": 64
    },
    {
      "midi": 65,
      "hit": false,
      "t": 121656.4453125,
      "d": 141.2109375,
      "v": 64
    },
    {
      "midi": 63,
      "hit": false,
      "t": 121807.03125,
      "d": 277.734375,
      "v": 65
    },
    {
      "midi": 75,
      "hit": false,
      "t": 122102.9296875,
      "d": 278.90625,
      "v": 64
    },
    {
      "midi": 74,
      "hit": false,
      "t": 122402.34375,
      "d": 162.3046875,
      "v": 69
    },
    {
      "midi": 55,
      "hit": false,
      "t": 122402.34375,
      "d": 614.6484375,
      "v": 61
    },
    {
      "midi": 56,
      "hit": false,
      "t": 122402.34375,
      "d": 614.6484375,
      "v": 75
    },
    {
      "midi": 75,
      "hit": false,
      "t": 122574.0234375,
      "d": 136.5234375,
      "v": 64
    },
    {
      "midi": 77,
      "hit": false,
      "t": 122719.921875,
      "d": 136.5234375,
      "v": 64
    },
    {
      "midi": 75,
      "hit": false,
      "t": 122865.8203125,
      "d": 142.3828125,
      "v": 64
    },
    {
      "midi": 74,
      "hit": false,
      "t": 123017.578125,
      "d": 141.796875,
      "v": 65
    },
    {
      "midi": 53,
      "hit": false,
      "t": 123017.578125,
      "d": 594.140625,
      "v": 65
    },
    {
      "midi": 75,
      "hit": false,
      "t": 123168.75,
      "d": 135.3515625,
      "v": 64
    },
    {
      "midi": 74,
      "hit": false,
      "t": 123313.4765625,
      "d": 135.9375,
      "v": 64
    },
    {
      "midi": 72,
      "hit": false,
      "t": 123458.7890625,
      "d": 144.140625,
      "v": 64
    },
    {
      "midi": 70,
      "hit": false,
      "t": 123612.3046875,
      "d": 280.6640625,
      "v": 67
    },
    {
      "midi": 46,
      "hit": false,
      "t": 123612.3046875,
      "d": 594.140625,
      "v": 59
    },
    {
      "midi": 51,
      "hit": false,
      "t": 123612.3046875,
      "d": 594.140625,
      "v": 73
    },
    {
      "midi": 82,
      "hit": false,
      "t": 123911.1328125,
      "d": 277.734375,
      "v": 64
    },
    {
      "midi": 50,
      "hit": false,
      "t": 124207.03125,
      "d": 592.3828125,
      "v": 65
    },
    {
      "midi": 75,
      "hit": false,
      "t": 124802.34375,
      "d": 299.4140625,
      "v": 69
    },
    {
      "midi": 67,
      "hit": false,
      "t": 124802.34375,
      "d": 162.3046875,
      "v": 61
    },
    {
      "midi": 70,
      "hit": false,
      "t": 124802.34375,
      "d": 162.3046875,
      "v": 75
    },
    {
      "midi": 75,
      "hit": false,
      "t": 124974.0234375,
      "d": 136.5234375,
      "v": 64
    },
    {
      "midi": 74,
      "hit": false,
      "t": 125119.921875,
      "d": 136.5234375,
      "v": 64
    },
    {
      "midi": 74,
      "hit": false,
      "t": 125119.921875,
      "d": 136.5234375,
      "v": 64
    },
    {
      "midi": 75,
      "hit": false,
      "t": 125265.8203125,
      "d": 142.3828125,
      "v": 64
    },
    {
      "midi": 75,
      "hit": false,
      "t": 125265.8203125,
      "d": 142.3828125,
      "v": 64
    },
    {
      "midi": 87,
      "hit": false,
      "t": 125417.578125,
      "d": 594.140625,
      "v": 65
    },
    {
      "midi": 65,
      "hit": false,
      "t": 125417.578125,
      "d": 141.796875,
      "v": 57
    },
    {
      "midi": 68,
      "hit": false,
      "t": 125417.578125,
      "d": 141.796875,
      "v": 71
    },
    {
      "midi": 75,
      "hit": false,
      "t": 125568.75,
      "d": 135.3515625,
      "v": 64
    },
    {
      "midi": 74,
      "hit": false,
      "t": 125713.4765625,
      "d": 135.9375,
      "v": 64
    },
    {
      "midi": 75,
      "hit": false,
      "t": 125858.7890625,
      "d": 144.140625,
      "v": 64
    },
    {
      "midi": 86,
      "hit": false,
      "t": 126012.3046875,
      "d": 280.6640625,
      "v": 67
    },
    {
      "midi": 67,
      "hit": false,
      "t": 126012.3046875,
      "d": 144.7265625,
      "v": 59
    },
    {
      "midi": 70,
      "hit": false,
      "t": 126012.3046875,
      "d": 144.7265625,
      "v": 73
    },
    {
      "midi": 75,
      "hit": false,
      "t": 126166.40625,
      "d": 135.3515625,
      "v": 64
    },
    {
      "midi": 84,
      "hit": false,
      "t": 126311.1328125,
      "d": 135.9375,
      "v": 64
    },
    {
      "midi": 74,
      "hit": false,
      "t": 126311.1328125,
      "d": 135.9375,
      "v": 64
    },
    {
      "midi": 82,
      "hit": false,
      "t": 126456.4453125,
      "d": 141.2109375,
      "v": 64
    },
    {
      "midi": 75,
      "hit": false,
      "t": 126456.4453125,
      "d": 141.2109375,
      "v": 64
    },
    {
      "midi": 84,
      "hit": false,
      "t": 126607.03125,
      "d": 277.734375,
      "v": 65
    },
    {
      "midi": 65,
      "hit": false,
      "t": 126607.03125,
      "d": 141.2109375,
      "v": 57
    },
    {
      "midi": 68,
      "hit": false,
      "t": 126607.03125,
      "d": 141.2109375,
      "v": 71
    },
    {
      "midi": 75,
      "hit": false,
      "t": 126757.6171875,
      "d": 135.9375,
      "v": 64
    },
    {
      "midi": 80,
      "hit": false,
      "t": 126902.9296875,
      "d": 278.90625,
      "v": 64
    },
    {
      "midi": 74,
      "hit": false,
      "t": 126902.9296875,
      "d": 135.9375,
      "v": 64
    },
    {
      "midi": 75,
      "hit": false,
      "t": 127048.2421875,
      "d": 142.3828125,
      "v": 64
    },
    {
      "midi": 82,
      "hit": false,
      "t": 127202.34375,
      "d": 299.4140625,
      "v": 69
    },
    {
      "midi": 67,
      "hit": false,
      "t": 127202.34375,
      "d": 162.3046875,
      "v": 61
    },
    {
      "midi": 70,
      "hit": false,
      "t": 127202.34375,
      "d": 162.3046875,
      "v": 75
    },
    {
      "midi": 75,
      "hit": false,
      "t": 127374.0234375,
      "d": 136.5234375,
      "v": 64
    },
    {
      "midi": 80,
      "hit": false,
      "t": 127519.921875,
      "d": 136.5234375,
      "v": 64
    },
    {
      "midi": 74,
      "hit": false,
      "t": 127519.921875,
      "d": 136.5234375,
      "v": 64
    },
    {
      "midi": 79,
      "hit": false,
      "t": 127665.8203125,
      "d": 142.3828125,
      "v": 64
    },
    {
      "midi": 75,
      "hit": false,
      "t": 127665.8203125,
      "d": 142.3828125,
      "v": 64
    },
    {
      "midi": 80,
      "hit": false,
      "t": 127817.578125,
      "d": 277.734375,
      "v": 65
    },
    {
      "midi": 65,
      "hit": false,
      "t": 127817.578125,
      "d": 141.796875,
      "v": 57
    },
    {
      "midi": 68,
      "hit": false,
      "t": 127817.578125,
      "d": 141.796875,
      "v": 71
    },
    {
      "midi": 75,
      "hit": false,
      "t": 127968.75,
      "d": 135.3515625,
      "v": 64
    },
    {
      "midi": 77,
      "hit": false,
      "t": 128113.4765625,
      "d": 280.6640625,
      "v": 64
    },
    {
      "midi": 74,
      "hit": false,
      "t": 128113.4765625,
      "d": 135.9375,
      "v": 64
    },
    {
      "midi": 75,
      "hit": false,
      "t": 128258.7890625,
      "d": 144.140625,
      "v": 64
    },
    {
      "midi": 79,
      "hit": false,
      "t": 128412.3046875,
      "d": 280.6640625,
      "v": 67
    },
    {
      "midi": 67,
      "hit": false,
      "t": 128412.3046875,
      "d": 144.7265625,
      "v": 59
    },
    {
      "midi": 70,
      "hit": false,
      "t": 128412.3046875,
      "d": 144.7265625,
      "v": 73
    },
    {
      "midi": 75,
      "hit": false,
      "t": 128566.40625,
      "d": 135.3515625,
      "v": 64
    },
    {
      "midi": 87,
      "hit": false,
      "t": 128711.1328125,
      "d": 591.2109375,
      "v": 64
    },
    {
      "midi": 74,
      "hit": false,
      "t": 128711.1328125,
      "d": 135.9375,
      "v": 64
    },
    {
      "midi": 75,
      "hit": false,
      "t": 128856.4453125,
      "d": 141.2109375,
      "v": 64
    },
    {
      "midi": 65,
      "hit": false,
      "t": 129007.03125,
      "d": 141.2109375,
      "v": 57
    },
    {
      "midi": 68,
      "hit": false,
      "t": 129007.03125,
      "d": 141.2109375,
      "v": 71
    },
    {
      "midi": 75,
      "hit": false,
      "t": 129157.6171875,
      "d": 135.9375,
      "v": 64
    },
    {
      "midi": 87,
      "hit": false,
      "t": 129302.9296875,
      "d": 278.90625,
      "v": 64
    },
    {
      "midi": 74,
      "hit": false,
      "t": 129302.9296875,
      "d": 135.9375,
      "v": 64
    },
    {
      "midi": 75,
      "hit": false,
      "t": 129448.2421875,
      "d": 142.3828125,
      "v": 64
    },
    {
      "midi": 75,
      "hit": false,
      "t": 129602.34375,
      "d": 299.4140625,
      "v": 69
    },
    {
      "midi": 67,
      "hit": false,
      "t": 129602.34375,
      "d": 162.3046875,
      "v": 61
    },
    {
      "midi": 70,
      "hit": false,
      "t": 129602.34375,
      "d": 162.3046875,
      "v": 75
    },
    {
      "midi": 75,
      "hit": false,
      "t": 129774.0234375,
      "d": 136.5234375,
      "v": 64
    },
    {
      "midi": 74,
      "hit": false,
      "t": 129919.921875,
      "d": 136.5234375,
      "v": 64
    },
    {
      "midi": 74,
      "hit": false,
      "t": 129919.921875,
      "d": 136.5234375,
      "v": 64
    },
    {
      "midi": 75,
      "hit": false,
      "t": 130065.8203125,
      "d": 142.3828125,
      "v": 64
    },
    {
      "midi": 75,
      "hit": false,
      "t": 130065.8203125,
      "d": 142.3828125,
      "v": 64
    },
    {
      "midi": 87,
      "hit": false,
      "t": 130217.578125,
      "d": 594.140625,
      "v": 65
    },
    {
      "midi": 65,
      "hit": false,
      "t": 130217.578125,
      "d": 141.796875,
      "v": 57
    },
    {
      "midi": 68,
      "hit": false,
      "t": 130217.578125,
      "d": 141.796875,
      "v": 71
    },
    {
      "midi": 75,
      "hit": false,
      "t": 130368.75,
      "d": 135.3515625,
      "v": 64
    },
    {
      "midi": 74,
      "hit": false,
      "t": 130513.4765625,
      "d": 135.9375,
      "v": 64
    },
    {
      "midi": 75,
      "hit": false,
      "t": 130658.7890625,
      "d": 144.140625,
      "v": 64
    },
    {
      "midi": 86,
      "hit": false,
      "t": 130812.3046875,
      "d": 280.6640625,
      "v": 67
    },
    {
      "midi": 67,
      "hit": false,
      "t": 130812.3046875,
      "d": 144.7265625,
      "v": 59
    },
    {
      "midi": 70,
      "hit": false,
      "t": 130812.3046875,
      "d": 144.7265625,
      "v": 73
    },
    {
      "midi": 75,
      "hit": false,
      "t": 130966.40625,
      "d": 135.3515625,
      "v": 64
    },
    {
      "midi": 84,
      "hit": false,
      "t": 131111.1328125,
      "d": 135.9375,
      "v": 64
    },
    {
      "midi": 74,
      "hit": false,
      "t": 131111.1328125,
      "d": 135.9375,
      "v": 64
    },
    {
      "midi": 82,
      "hit": false,
      "t": 131256.4453125,
      "d": 141.2109375,
      "v": 64
    },
    {
      "midi": 75,
      "hit": false,
      "t": 131256.4453125,
      "d": 141.2109375,
      "v": 64
    },
    {
      "midi": 84,
      "hit": false,
      "t": 131407.03125,
      "d": 277.734375,
      "v": 65
    },
    {
      "midi": 65,
      "hit": false,
      "t": 131407.03125,
      "d": 141.2109375,
      "v": 57
    },
    {
      "midi": 68,
      "hit": false,
      "t": 131407.03125,
      "d": 141.2109375,
      "v": 71
    },
    {
      "midi": 75,
      "hit": false,
      "t": 131557.6171875,
      "d": 135.9375,
      "v": 64
    },
    {
      "midi": 80,
      "hit": false,
      "t": 131702.9296875,
      "d": 278.90625,
      "v": 64
    },
    {
      "midi": 74,
      "hit": false,
      "t": 131702.9296875,
      "d": 135.9375,
      "v": 64
    },
    {
      "midi": 75,
      "hit": false,
      "t": 131848.2421875,
      "d": 142.3828125,
      "v": 64
    },
    {
      "midi": 82,
      "hit": false,
      "t": 132002.34375,
      "d": 299.4140625,
      "v": 69
    },
    {
      "midi": 67,
      "hit": false,
      "t": 132002.34375,
      "d": 162.3046875,
      "v": 61
    },
    {
      "midi": 70,
      "hit": false,
      "t": 132002.34375,
      "d": 162.3046875,
      "v": 75
    },
    {
      "midi": 75,
      "hit": false,
      "t": 132174.0234375,
      "d": 136.5234375,
      "v": 64
    },
    {
      "midi": 80,
      "hit": false,
      "t": 132319.921875,
      "d": 136.5234375,
      "v": 64
    },
    {
      "midi": 74,
      "hit": false,
      "t": 132319.921875,
      "d": 136.5234375,
      "v": 64
    },
    {
      "midi": 79,
      "hit": false,
      "t": 132465.8203125,
      "d": 142.3828125,
      "v": 64
    },
    {
      "midi": 75,
      "hit": false,
      "t": 132465.8203125,
      "d": 142.3828125,
      "v": 64
    },
    {
      "midi": 80,
      "hit": false,
      "t": 132617.578125,
      "d": 277.734375,
      "v": 65
    },
    {
      "midi": 65,
      "hit": false,
      "t": 132617.578125,
      "d": 141.796875,
      "v": 57
    },
    {
      "midi": 68,
      "hit": false,
      "t": 132617.578125,
      "d": 141.796875,
      "v": 71
    },
    {
      "midi": 75,
      "hit": false,
      "t": 132768.75,
      "d": 135.3515625,
      "v": 64
    },
    {
      "midi": 77,
      "hit": false,
      "t": 132913.4765625,
      "d": 280.6640625,
      "v": 64
    },
    {
      "midi": 74,
      "hit": false,
      "t": 132913.4765625,
      "d": 135.9375,
      "v": 64
    },
    {
      "midi": 75,
      "hit": false,
      "t": 133058.7890625,
      "d": 144.140625,
      "v": 64
    },
    {
      "midi": 79,
      "hit": false,
      "t": 133212.3046875,
      "d": 594.140625,
      "v": 67
    },
    {
      "midi": 67,
      "hit": false,
      "t": 133212.3046875,
      "d": 144.7265625,
      "v": 59
    },
    {
      "midi": 70,
      "hit": false,
      "t": 133212.3046875,
      "d": 144.7265625,
      "v": 73
    },
    {
      "midi": 75,
      "hit": false,
      "t": 133366.40625,
      "d": 135.3515625,
      "v": 64
    },
    {
      "midi": 74,
      "hit": false,
      "t": 133511.1328125,
      "d": 135.9375,
      "v": 64
    },
    {
      "midi": 75,
      "hit": false,
      "t": 133656.4453125,
      "d": 141.2109375,
      "v": 64
    },
    {
      "midi": 87,
      "hit": false,
      "t": 133807.03125,
      "d": 592.3828125,
      "v": 65
    },
    {
      "midi": 64,
      "hit": false,
      "t": 133807.03125,
      "d": 141.2109375,
      "v": 57
    },
    {
      "midi": 67,
      "hit": false,
      "t": 133807.03125,
      "d": 141.2109375,
      "v": 71
    },
    {
      "midi": 75,
      "hit": false,
      "t": 133957.6171875,
      "d": 135.9375,
      "v": 64
    },
    {
      "midi": 74,
      "hit": false,
      "t": 134102.9296875,
      "d": 135.9375,
      "v": 64
    },
    {
      "midi": 75,
      "hit": false,
      "t": 134248.2421875,
      "d": 142.3828125,
      "v": 64
    },
    {
      "midi": 72,
      "hit": false,
      "t": 134402.34375,
      "d": 299.4140625,
      "v": 69
    },
    {
      "midi": 36,
      "hit": false,
      "t": 134402.34375,
      "d": 162.3046875,
      "v": 67
    },
    {
      "midi": 43,
      "hit": false,
      "t": 134574.0234375,
      "d": 136.5234375,
      "v": 64
    },
    {
      "midi": 71,
      "hit": false,
      "t": 134719.921875,
      "d": 136.5234375,
      "v": 64
    },
    {
      "midi": 48,
      "hit": false,
      "t": 134719.921875,
      "d": 136.5234375,
      "v": 64
    },
    {
      "midi": 72,
      "hit": false,
      "t": 134865.8203125,
      "d": 142.3828125,
      "v": 64
    },
    {
      "midi": 47,
      "hit": false,
      "t": 134865.8203125,
      "d": 142.3828125,
      "v": 64
    },
    {
      "midi": 84,
      "hit": false,
      "t": 135017.578125,
      "d": 594.140625,
      "v": 65
    },
    {
      "midi": 48,
      "hit": false,
      "t": 135017.578125,
      "d": 141.796875,
      "v": 65
    },
    {
      "midi": 55,
      "hit": false,
      "t": 135168.75,
      "d": 135.3515625,
      "v": 64
    },
    {
      "midi": 60,
      "hit": false,
      "t": 135313.4765625,
      "d": 135.9375,
      "v": 64
    },
    {
      "midi": 59,
      "hit": false,
      "t": 135458.7890625,
      "d": 144.140625,
      "v": 64
    },
    {
      "midi": 83,
      "hit": false,
      "t": 135612.3046875,
      "d": 280.6640625,
      "v": 67
    },
    {
      "midi": 64,
      "hit": false,
      "t": 135612.3046875,
      "d": 144.7265625,
      "v": 59
    },
    {
      "midi": 67,
      "hit": false,
      "t": 135612.3046875,
      "d": 144.7265625,
      "v": 59
    },
    {
      "midi": 71,
      "hit": false,
      "t": 135612.3046875,
      "d": 144.7265625,
      "v": 73
    },
    {
      "midi": 72,
      "hit": false,
      "t": 135766.40625,
      "d": 135.3515625,
      "v": 64
    },
    {
      "midi": 81,
      "hit": false,
      "t": 135911.1328125,
      "d": 135.9375,
      "v": 64
    },
    {
      "midi": 71,
      "hit": false,
      "t": 135911.1328125,
      "d": 135.9375,
      "v": 64
    },
    {
      "midi": 79,
      "hit": false,
      "t": 136056.4453125,
      "d": 141.2109375,
      "v": 64
    },
    {
      "midi": 72,
      "hit": false,
      "t": 136056.4453125,
      "d": 141.2109375,
      "v": 64
    },
    {
      "midi": 81,
      "hit": false,
      "t": 136207.03125,
      "d": 277.734375,
      "v": 65
    },
    {
      "midi": 62,
      "hit": false,
      "t": 136207.03125,
      "d": 141.2109375,
      "v": 57
    },
    {
      "midi": 65,
      "hit": false,
      "t": 136207.03125,
      "d": 141.2109375,
      "v": 71
    },
    {
      "midi": 72,
      "hit": false,
      "t": 136357.6171875,
      "d": 135.9375,
      "v": 64
    },
    {
      "midi": 77,
      "hit": false,
      "t": 136502.9296875,
      "d": 278.90625,
      "v": 64
    },
    {
      "midi": 71,
      "hit": false,
      "t": 136502.9296875,
      "d": 135.9375,
      "v": 64
    },
    {
      "midi": 72,
      "hit": false,
      "t": 136648.2421875,
      "d": 142.3828125,
      "v": 64
    },
    {
      "midi": 79,
      "hit": false,
      "t": 136802.34375,
      "d": 299.4140625,
      "v": 69
    },
    {
      "midi": 64,
      "hit": false,
      "t": 136802.34375,
      "d": 162.3046875,
      "v": 61
    },
    {
      "midi": 67,
      "hit": false,
      "t": 136802.34375,
      "d": 162.3046875,
      "v": 75
    },
    {
      "midi": 72,
      "hit": false,
      "t": 136974.0234375,
      "d": 136.5234375,
      "v": 64
    },
    {
      "midi": 77,
      "hit": false,
      "t": 137119.921875,
      "d": 136.5234375,
      "v": 64
    },
    {
      "midi": 71,
      "hit": false,
      "t": 137119.921875,
      "d": 136.5234375,
      "v": 64
    },
    {
      "midi": 76,
      "hit": false,
      "t": 137265.8203125,
      "d": 142.3828125,
      "v": 64
    },
    {
      "midi": 72,
      "hit": false,
      "t": 137265.8203125,
      "d": 142.3828125,
      "v": 64
    },
    {
      "midi": 77,
      "hit": false,
      "t": 137417.578125,
      "d": 277.734375,
      "v": 65
    },
    {
      "midi": 62,
      "hit": false,
      "t": 137417.578125,
      "d": 141.796875,
      "v": 57
    },
    {
      "midi": 65,
      "hit": false,
      "t": 137417.578125,
      "d": 141.796875,
      "v": 71
    },
    {
      "midi": 72,
      "hit": false,
      "t": 137568.75,
      "d": 135.3515625,
      "v": 64
    },
    {
      "midi": 74,
      "hit": false,
      "t": 137713.4765625,
      "d": 280.6640625,
      "v": 64
    },
    {
      "midi": 71,
      "hit": false,
      "t": 137713.4765625,
      "d": 135.9375,
      "v": 64
    },
    {
      "midi": 72,
      "hit": false,
      "t": 137858.7890625,
      "d": 144.140625,
      "v": 64
    },
    {
      "midi": 76,
      "hit": false,
      "t": 138012.3046875,
      "d": 280.6640625,
      "v": 67
    },
    {
      "midi": 64,
      "hit": false,
      "t": 138012.3046875,
      "d": 144.7265625,
      "v": 59
    },
    {
      "midi": 67,
      "hit": false,
      "t": 138012.3046875,
      "d": 144.7265625,
      "v": 73
    },
    {
      "midi": 72,
      "hit": false,
      "t": 138166.40625,
      "d": 135.3515625,
      "v": 64
    },
    {
      "midi": 84,
      "hit": false,
      "t": 138311.1328125,
      "d": 591.2109375,
      "v": 64
    },
    {
      "midi": 71,
      "hit": false,
      "t": 138311.1328125,
      "d": 135.9375,
      "v": 64
    },
    {
      "midi": 72,
      "hit": false,
      "t": 138456.4453125,
      "d": 141.2109375,
      "v": 64
    },
    {
      "midi": 62,
      "hit": false,
      "t": 138607.03125,
      "d": 141.2109375,
      "v": 57
    },
    {
      "midi": 65,
      "hit": false,
      "t": 138607.03125,
      "d": 141.2109375,
      "v": 71
    },
    {
      "midi": 72,
      "hit": false,
      "t": 138757.6171875,
      "d": 135.9375,
      "v": 64
    },
    {
      "midi": 84,
      "hit": false,
      "t": 138902.9296875,
      "d": 278.90625,
      "v": 64
    },
    {
      "midi": 71,
      "hit": false,
      "t": 138902.9296875,
      "d": 135.9375,
      "v": 64
    },
    {
      "midi": 72,
      "hit": false,
      "t": 139048.2421875,
      "d": 142.3828125,
      "v": 64
    },
    {
      "midi": 72,
      "hit": false,
      "t": 139202.34375,
      "d": 299.4140625,
      "v": 69
    },
    {
      "midi": 36,
      "hit": false,
      "t": 139202.34375,
      "d": 162.3046875,
      "v": 67
    },
    {
      "midi": 43,
      "hit": false,
      "t": 139374.0234375,
      "d": 136.5234375,
      "v": 64
    },
    {
      "midi": 71,
      "hit": false,
      "t": 139519.921875,
      "d": 136.5234375,
      "v": 64
    },
    {
      "midi": 48,
      "hit": false,
      "t": 139519.921875,
      "d": 136.5234375,
      "v": 64
    },
    {
      "midi": 72,
      "hit": false,
      "t": 139665.8203125,
      "d": 142.3828125,
      "v": 64
    },
    {
      "midi": 47,
      "hit": false,
      "t": 139665.8203125,
      "d": 142.3828125,
      "v": 64
    },
    {
      "midi": 84,
      "hit": false,
      "t": 139817.578125,
      "d": 594.140625,
      "v": 65
    },
    {
      "midi": 48,
      "hit": false,
      "t": 139817.578125,
      "d": 141.796875,
      "v": 65
    },
    {
      "midi": 55,
      "hit": false,
      "t": 139968.75,
      "d": 135.3515625,
      "v": 64
    },
    {
      "midi": 60,
      "hit": false,
      "t": 140113.4765625,
      "d": 135.9375,
      "v": 64
    },
    {
      "midi": 59,
      "hit": false,
      "t": 140258.7890625,
      "d": 144.140625,
      "v": 64
    },
    {
      "midi": 83,
      "hit": false,
      "t": 140412.3046875,
      "d": 280.6640625,
      "v": 67
    },
    {
      "midi": 64,
      "hit": false,
      "t": 140412.3046875,
      "d": 144.7265625,
      "v": 59
    },
    {
      "midi": 67,
      "hit": false,
      "t": 140412.3046875,
      "d": 144.7265625,
      "v": 59
    },
    {
      "midi": 71,
      "hit": false,
      "t": 140412.3046875,
      "d": 144.7265625,
      "v": 73
    },
    {
      "midi": 72,
      "hit": false,
      "t": 140566.40625,
      "d": 135.3515625,
      "v": 64
    },
    {
      "midi": 81,
      "hit": false,
      "t": 140711.1328125,
      "d": 135.9375,
      "v": 64
    },
    {
      "midi": 71,
      "hit": false,
      "t": 140711.1328125,
      "d": 135.9375,
      "v": 64
    },
    {
      "midi": 79,
      "hit": false,
      "t": 140856.4453125,
      "d": 141.2109375,
      "v": 64
    },
    {
      "midi": 72,
      "hit": false,
      "t": 140856.4453125,
      "d": 141.2109375,
      "v": 64
    },
    {
      "midi": 81,
      "hit": false,
      "t": 141007.03125,
      "d": 277.734375,
      "v": 65
    },
    {
      "midi": 62,
      "hit": false,
      "t": 141007.03125,
      "d": 141.2109375,
      "v": 57
    },
    {
      "midi": 65,
      "hit": false,
      "t": 141007.03125,
      "d": 141.2109375,
      "v": 71
    },
    {
      "midi": 72,
      "hit": false,
      "t": 141157.6171875,
      "d": 135.9375,
      "v": 64
    },
    {
      "midi": 77,
      "hit": false,
      "t": 141302.9296875,
      "d": 278.90625,
      "v": 64
    },
    {
      "midi": 71,
      "hit": false,
      "t": 141302.9296875,
      "d": 135.9375,
      "v": 64
    },
    {
      "midi": 72,
      "hit": false,
      "t": 141448.2421875,
      "d": 142.3828125,
      "v": 64
    },
    {
      "midi": 79,
      "hit": false,
      "t": 141602.34375,
      "d": 299.4140625,
      "v": 69
    },
    {
      "midi": 64,
      "hit": false,
      "t": 141602.34375,
      "d": 162.3046875,
      "v": 61
    },
    {
      "midi": 67,
      "hit": false,
      "t": 141602.34375,
      "d": 162.3046875,
      "v": 75
    },
    {
      "midi": 72,
      "hit": false,
      "t": 141774.0234375,
      "d": 136.5234375,
      "v": 64
    },
    {
      "midi": 77,
      "hit": false,
      "t": 141919.921875,
      "d": 136.5234375,
      "v": 64
    },
    {
      "midi": 71,
      "hit": false,
      "t": 141919.921875,
      "d": 136.5234375,
      "v": 64
    },
    {
      "midi": 76,
      "hit": false,
      "t": 142065.8203125,
      "d": 142.3828125,
      "v": 64
    },
    {
      "midi": 72,
      "hit": false,
      "t": 142065.8203125,
      "d": 142.3828125,
      "v": 64
    },
    {
      "midi": 77,
      "hit": false,
      "t": 142217.578125,
      "d": 277.734375,
      "v": 65
    },
    {
      "midi": 62,
      "hit": false,
      "t": 142217.578125,
      "d": 141.796875,
      "v": 57
    },
    {
      "midi": 65,
      "hit": false,
      "t": 142217.578125,
      "d": 141.796875,
      "v": 71
    },
    {
      "midi": 72,
      "hit": false,
      "t": 142368.75,
      "d": 135.3515625,
      "v": 64
    },
    {
      "midi": 74,
      "hit": false,
      "t": 142513.4765625,
      "d": 280.6640625,
      "v": 64
    },
    {
      "midi": 71,
      "hit": false,
      "t": 142513.4765625,
      "d": 135.9375,
      "v": 64
    },
    {
      "midi": 72,
      "hit": false,
      "t": 142658.7890625,
      "d": 144.140625,
      "v": 64
    },
    {
      "midi": 72,
      "hit": false,
      "t": 142812.3046875,
      "d": 594.140625,
      "v": 67
    },
    {
      "midi": 64,
      "hit": false,
      "t": 142812.3046875,
      "d": 144.7265625,
      "v": 59
    },
    {
      "midi": 67,
      "hit": false,
      "t": 142812.3046875,
      "d": 144.7265625,
      "v": 73
    },
    {
      "midi": 72,
      "hit": false,
      "t": 142966.40625,
      "d": 135.3515625,
      "v": 64
    },
    {
      "midi": 71,
      "hit": false,
      "t": 143111.1328125,
      "d": 135.9375,
      "v": 64
    },
    {
      "midi": 72,
      "hit": false,
      "t": 143256.4453125,
      "d": 141.2109375,
      "v": 64
    },
    {
      "midi": 84,
      "hit": false,
      "t": 143407.03125,
      "d": 592.3828125,
      "v": 65
    },
    {
      "midi": 62,
      "hit": false,
      "t": 143407.03125,
      "d": 141.2109375,
      "v": 57
    },
    {
      "midi": 65,
      "hit": false,
      "t": 143407.03125,
      "d": 141.2109375,
      "v": 71
    },
    {
      "midi": 72,
      "hit": false,
      "t": 143557.6171875,
      "d": 135.9375,
      "v": 64
    },
    {
      "midi": 71,
      "hit": false,
      "t": 143702.9296875,
      "d": 135.9375,
      "v": 64
    },
    {
      "midi": 72,
      "hit": false,
      "t": 143848.2421875,
      "d": 142.3828125,
      "v": 64
    }
  ]
}