{
  "jsonPath": "Soundtracks/Video Game Music/Legend of Mana/legend-of-mana-diddlesorgan.json",
  "path": "Soundtracks\\Video Game Music\\Legend of Mana\\Legend_of_Mana_DiddlesOrgan.mid",
  "name": "Legend_of_Mana_DiddlesOrgan",
  "difficulty": "Advanced",
  "bpm": 125,
  "notes": [
    {
      "midi": 60,
      "hit": false,
      "t": 4.6875,
      "d": 236.71875,
      "v": 69
    },
    {
      "midi": 41,
      "hit": false,
      "t": 4.6875,
      "d": 236.71875,
      "v": 69
    },
    {
      "midi": 65,
      "hit": false,
      "t": 255.9375,
      "d": 474.375,
      "v": 64
    },
    {
      "midi": 41,
      "hit": false,
      "t": 255.9375,
      "d": 223.59375,
      "v": 56
    },
    {
      "midi": 48,
      "hit": false,
      "t": 255.9375,
      "d": 223.59375,
      "v": 56
    },
    {
      "midi": 53,
      "hit": false,
      "t": 255.9375,
      "d": 223.59375,
      "v": 66
    },
    {
      "midi": 67,
      "hit": false,
      "t": 730.78125,
      "d": 224.53125,
      "v": 64
    },
    {
      "midi": 41,
      "hit": false,
      "t": 730.78125,
      "d": 224.53125,
      "v": 56
    },
    {
      "midi": 48,
      "hit": false,
      "t": 730.78125,
      "d": 224.53125,
      "v": 56
    },
    {
      "midi": 53,
      "hit": false,
      "t": 730.78125,
      "d": 224.53125,
      "v": 66
    },
    {
      "midi": 68,
      "hit": false,
      "t": 969.84375,
      "d": 475.3125,
      "v": 67
    },
    {
      "midi": 37,
      "hit": false,
      "t": 969.84375,
      "d": 224.53125,
      "v": 66
    },
    {
      "midi": 37,
      "hit": false,
      "t": 1208.90625,
      "d": 222.1875,
      "v": 55
    },
    {
      "midi": 44,
      "hit": false,
      "t": 1208.90625,
      "d": 222.1875,
      "v": 56
    },
    {
      "midi": 49,
      "hit": false,
      "t": 1208.90625,
      "d": 222.1875,
      "v": 66
    },
    {
      "midi": 70,
      "hit": false,
      "t": 1445.625,
      "d": 352.5,
      "v": 65
    },
    {
      "midi": 37,
      "hit": false,
      "t": 1682.34375,
      "d": 223.125,
      "v": 55
    },
    {
      "midi": 44,
      "hit": false,
      "t": 1682.34375,
      "d": 223.125,
      "v": 56
    },
    {
      "midi": 49,
      "hit": false,
      "t": 1682.34375,
      "d": 223.125,
      "v": 66
    },
    {
      "midi": 68,
      "hit": false,
      "t": 1798.59375,
      "d": 113.90625,
      "v": 64
    },
    {
      "midi": 72,
      "hit": false,
      "t": 1921.875,
      "d": 491.71875,
      "v": 69
    },
    {
      "midi": 44,
      "hit": false,
      "t": 1921.875,
      "d": 239.53125,
      "v": 69
    },
    {
      "midi": 44,
      "hit": false,
      "t": 2175.9375,
      "d": 223.59375,
      "v": 56
    },
    {
      "midi": 51,
      "hit": false,
      "t": 2175.9375,
      "d": 223.59375,
      "v": 56
    },
    {
      "midi": 56,
      "hit": false,
      "t": 2175.9375,
      "d": 223.59375,
      "v": 66
    },
    {
      "midi": 70,
      "hit": false,
      "t": 2414.0625,
      "d": 352.5,
      "v": 65
    },
    {
      "midi": 44,
      "hit": false,
      "t": 2650.78125,
      "d": 224.53125,
      "v": 56
    },
    {
      "midi": 51,
      "hit": false,
      "t": 2650.78125,
      "d": 224.53125,
      "v": 56
    },
    {
      "midi": 56,
      "hit": false,
      "t": 2650.78125,
      "d": 224.53125,
      "v": 66
    },
    {
      "midi": 71,
      "hit": false,
      "t": 2767.03125,
      "d": 115.3125,
      "v": 64
    },
    {
      "midi": 70,
      "hit": false,
      "t": 2889.84375,
      "d": 60.46875,
      "v": 67
    },
    {
      "midi": 39,
      "hit": false,
      "t": 2889.84375,
      "d": 224.53125,
      "v": 66
    },
    {
      "midi": 68,
      "hit": false,
      "t": 2954.0625,
      "d": 55.3125,
      "v": 64
    },
    {
      "midi": 67,
      "hit": false,
      "t": 3013.125,
      "d": 108.28125,
      "v": 64
    },
    {
      "midi": 67,
      "hit": false,
      "t": 3128.90625,
      "d": 465.9375,
      "v": 64
    },
    {
      "midi": 39,
      "hit": false,
      "t": 3128.90625,
      "d": 222.1875,
      "v": 55
    },
    {
      "midi": 46,
      "hit": false,
      "t": 3128.90625,
      "d": 222.1875,
      "v": 56
    },
    {
      "midi": 51,
      "hit": false,
      "t": 3128.90625,
      "d": 222.1875,
      "v": 66
    },
    {
      "midi": 67,
      "hit": false,
      "t": 3602.34375,
      "d": 223.125,
      "v": 64
    },
    {
      "midi": 39,
      "hit": false,
      "t": 3602.34375,
      "d": 223.125,
      "v": 55
    },
    {
      "midi": 46,
      "hit": false,
      "t": 3602.34375,
      "d": 223.125,
      "v": 56
    },
    {
      "midi": 51,
      "hit": false,
      "t": 3602.34375,
      "d": 223.125,
      "v": 66
    },
    {
      "midi": 61,
      "hit": false,
      "t": 3841.875,
      "d": 491.71875,
      "v": 61
    },
    {
      "midi": 65,
      "hit": false,
      "t": 3841.875,
      "d": 491.71875,
      "v": 75
    },
    {
      "midi": 37,
      "hit": false,
      "t": 3841.875,
      "d": 239.53125,
      "v": 68
    },
    {
      "midi": 37,
      "hit": false,
      "t": 4095.9375,
      "d": 223.59375,
      "v": 55
    },
    {
      "midi": 44,
      "hit": false,
      "t": 4095.9375,
      "d": 223.59375,
      "v": 56
    },
    {
      "midi": 49,
      "hit": false,
      "t": 4095.9375,
      "d": 223.59375,
      "v": 66
    },
    {
      "midi": 68,
      "hit": false,
      "t": 4334.0625,
      "d": 475.3125,
      "v": 57
    },
    {
      "midi": 72,
      "hit": false,
      "t": 4334.0625,
      "d": 475.3125,
      "v": 71
    },
    {
      "midi": 37,
      "hit": false,
      "t": 4570.78125,
      "d": 224.53125,
      "v": 55
    },
    {
      "midi": 44,
      "hit": false,
      "t": 4570.78125,
      "d": 224.53125,
      "v": 56
    },
    {
      "midi": 49,
      "hit": false,
      "t": 4570.78125,
      "d": 224.53125,
      "v": 66
    },
    {
      "midi": 63,
      "hit": false,
      "t": 4809.84375,
      "d": 712.03125,
      "v": 59
    },
    {
      "midi": 67,
      "hit": false,
      "t": 4809.84375,
      "d": 712.03125,
      "v": 73
    },
    {
      "midi": 39,
      "hit": false,
      "t": 4809.84375,
      "d": 224.53125,
      "v": 66
    },
    {
      "midi": 39,
      "hit": false,
      "t": 5048.90625,
      "d": 222.1875,
      "v": 55
    },
    {
      "midi": 46,
      "hit": false,
      "t": 5048.90625,
      "d": 222.1875,
      "v": 56
    },
    {
      "midi": 51,
      "hit": false,
      "t": 5048.90625,
      "d": 222.1875,
      "v": 66
    },
    {
      "midi": 67,
      "hit": false,
      "t": 5522.34375,
      "d": 223.125,
      "v": 64
    },
    {
      "midi": 39,
      "hit": false,
      "t": 5522.34375,
      "d": 223.125,
      "v": 55
    },
    {
      "midi": 46,
      "hit": false,
      "t": 5522.34375,
      "d": 223.125,
      "v": 56
    },
    {
      "midi": 51,
      "hit": false,
      "t": 5522.34375,
      "d": 223.125,
      "v": 66
    },
    {
      "midi": 61,
      "hit": false,
      "t": 5761.875,
      "d": 239.53125,
      "v": 61
    },
    {
      "midi": 65,
      "hit": false,
      "t": 5761.875,
      "d": 239.53125,
      "v": 75
    },
    {
      "midi": 37,
      "hit": false,
      "t": 5761.875,
      "d": 239.53125,
      "v": 68
    },
    {
      "midi": 68,
      "hit": false,
      "t": 6015.9375,
      "d": 223.59375,
      "v": 56
    },
    {
      "midi": 72,
      "hit": false,
      "t": 6015.9375,
      "d": 223.59375,
      "v": 70
    },
    {
      "midi": 37,
      "hit": false,
      "t": 6015.9375,
      "d": 223.59375,
      "v": 55
    },
    {
      "midi": 44,
      "hit": false,
      "t": 6015.9375,
      "d": 223.59375,
      "v": 56
    },
    {
      "midi": 49,
      "hit": false,
      "t": 6015.9375,
      "d": 223.59375,
      "v": 66
    },
    {
      "midi": 72,
      "hit": false,
      "t": 6490.78125,
      "d": 54.375,
      "v": 64
    },
    {
      "midi": 37,
      "hit": false,
      "t": 6490.78125,
      "d": 224.53125,
      "v": 55
    },
    {
      "midi": 44,
      "hit": false,
      "t": 6490.78125,
      "d": 224.53125,
      "v": 56
    },
    {
      "midi": 49,
      "hit": false,
      "t": 6490.78125,
      "d": 224.53125,
      "v": 66
    },
    {
      "midi": 71,
      "hit": false,
      "t": 6548.90625,
      "d": 54.375,
      "v": 64
    },
    {
      "midi": 70,
      "hit": false,
      "t": 6607.03125,
      "d": 54.84375,
      "v": 64
    },
    {
      "midi": 68,
      "hit": false,
      "t": 6665.625,
      "d": 60.46875,
      "v": 64
    },
    {
      "midi": 63,
      "hit": false,
      "t": 6729.84375,
      "d": 712.03125,
      "v": 59
    },
    {
      "midi": 67,
      "hit": false,
      "t": 6729.84375,
      "d": 712.03125,
      "v": 69
    },
    {
      "midi": 39,
      "hit": false,
      "t": 6729.84375,
      "d": 224.53125,
      "v": 66
    },
    {
      "midi": 39,
      "hit": false,
      "t": 6968.90625,
      "d": 222.1875,
      "v": 55
    },
    {
      "midi": 46,
      "hit": false,
      "t": 6968.90625,
      "d": 222.1875,
      "v": 56
    },
    {
      "midi": 51,
      "hit": false,
      "t": 6968.90625,
      "d": 222.1875,
      "v": 66
    },
    {
      "midi": 63,
      "hit": false,
      "t": 7442.34375,
      "d": 223.125,
      "v": 56
    },
    {
      "midi": 67,
      "hit": false,
      "t": 7442.34375,
      "d": 223.125,
      "v": 66
    },
    {
      "midi": 39,
      "hit": false,
      "t": 7442.34375,
      "d": 223.125,
      "v": 55
    },
    {
      "midi": 46,
      "hit": false,
      "t": 7442.34375,
      "d": 223.125,
      "v": 56
    },
    {
      "midi": 51,
      "hit": false,
      "t": 7442.34375,
      "d": 223.125,
      "v": 66
    },
    {
      "midi": 60,
      "hit": false,
      "t": 7681.875,
      "d": 239.53125,
      "v": 69
    },
    {
      "midi": 41,
      "hit": false,
      "t": 7681.875,
      "d": 239.53125,
      "v": 69
    },
    {
      "midi": 60,
      "hit": false,
      "t": 7935.9375,
      "d": 474.375,
      "v": 56
    },
    {
      "midi": 65,
      "hit": false,
      "t": 7935.9375,
      "d": 474.375,
      "v": 70
    },
    {
      "midi": 41,
      "hit": false,
      "t": 7935.9375,
      "d": 223.59375,
      "v": 56
    },
    {
      "midi": 48,
      "hit": false,
      "t": 7935.9375,
      "d": 223.59375,
      "v": 56
    },
    {
      "midi": 53,
      "hit": false,
      "t": 7935.9375,
      "d": 223.59375,
      "v": 66
    },
    {
      "midi": 63,
      "hit": false,
      "t": 8410.78125,
      "d": 224.53125,
      "v": 56
    },
    {
      "midi": 67,
      "hit": false,
      "t": 8410.78125,
      "d": 224.53125,
      "v": 70
    },
    {
      "midi": 41,
      "hit": false,
      "t": 8410.78125,
      "d": 224.53125,
      "v": 56
    },
    {
      "midi": 48,
      "hit": false,
      "t": 8410.78125,
      "d": 224.53125,
      "v": 56
    },
    {
      "midi": 53,
      "hit": false,
      "t": 8410.78125,
      "d": 224.53125,
      "v": 66
    },
    {
      "midi": 65,
      "hit": false,
      "t": 8649.84375,
      "d": 475.3125,
      "v": 59
    },
    {
      "midi": 68,
      "hit": false,
      "t": 8649.84375,
      "d": 475.3125,
      "v": 73
    },
    {
      "midi": 37,
      "hit": false,
      "t": 8649.84375,
      "d": 224.53125,
      "v": 66
    },
    {
      "midi": 37,
      "hit": false,
      "t": 8888.90625,
      "d": 222.1875,
      "v": 55
    },
    {
      "midi": 44,
      "hit": false,
      "t": 8888.90625,
      "d": 222.1875,
      "v": 56
    },
    {
      "midi": 49,
      "hit": false,
      "t": 8888.90625,
      "d": 222.1875,
      "v": 66
    },
    {
      "midi": 67,
      "hit": false,
      "t": 9125.625,
      "d": 352.5,
      "v": 57
    },
    {
      "midi": 70,
      "hit": false,
      "t": 9125.625,
      "d": 352.5,
      "v": 71
    },
    {
      "midi": 37,
      "hit": false,
      "t": 9362.34375,
      "d": 223.125,
      "v": 55
    },
    {
      "midi": 44,
      "hit": false,
      "t": 9362.34375,
      "d": 223.125,
      "v": 56
    },
    {
      "midi": 49,
      "hit": false,
      "t": 9362.34375,
      "d": 223.125,
      "v": 66
    },
    {
      "midi": 67,
      "hit": false,
      "t": 9478.59375,
      "d": 113.90625,
      "v": 56
    },
    {
      "midi": 68,
      "hit": false,
      "t": 9478.59375,
      "d": 113.90625,
      "v": 70
    },
    {
      "midi": 68,
      "hit": false,
      "t": 9601.875,
      "d": 491.71875,
      "v": 61
    },
    {
      "midi": 72,
      "hit": false,
      "t": 9601.875,
      "d": 491.71875,
      "v": 75
    },
    {
      "midi": 44,
      "hit": false,
      "t": 9601.875,
      "d": 239.53125,
      "v": 69
    },
    {
      "midi": 44,
      "hit": false,
      "t": 9855.9375,
      "d": 223.59375,
      "v": 56
    },
    {
      "midi": 51,
      "hit": false,
      "t": 9855.9375,
      "d": 223.59375,
      "v": 56
    },
    {
      "midi": 56,
      "hit": false,
      "t": 9855.9375,
      "d": 223.59375,
      "v": 66
    },
    {
      "midi": 67,
      "hit": false,
      "t": 10094.0625,
      "d": 352.5,
      "v": 57
    },
    {
      "midi": 70,
      "hit": false,
      "t": 10094.0625,
      "d": 352.5,
      "v": 71
    },
    {
      "midi": 44,
      "hit": false,
      "t": 10330.78125,
      "d": 224.53125,
      "v": 56
    },
    {
      "midi": 51,
      "hit": false,
      "t": 10330.78125,
      "d": 224.53125,
      "v": 56
    },
    {
      "midi": 56,
      "hit": false,
      "t": 10330.78125,
      "d": 224.53125,
      "v": 66
    },
    {
      "midi": 67,
      "hit": false,
      "t": 10447.03125,
      "d": 115.3125,
      "v": 56
    },
    {
      "midi": 70,
      "hit": false,
      "t": 10447.03125,
      "d": 115.3125,
      "v": 70
    },
    {
      "midi": 65,
      "hit": false,
      "t": 10569.84375,
      "d": 60.46875,
      "v": 59
    },
    {
      "midi": 69,
      "hit": false,
      "t": 10569.84375,
      "d": 60.46875,
      "v": 73
    },
    {
      "midi": 39,
      "hit": false,
      "t": 10569.84375,
      "d": 224.53125,
      "v": 66
    },
    {
      "midi": 64,
      "hit": false,
      "t": 10634.0625,
      "d": 55.3125,
      "v": 56
    },
    {
      "midi": 68,
      "hit": false,
      "t": 10634.0625,
      "d": 55.3125,
      "v": 70
    },
    {
      "midi": 63,
      "hit": false,
      "t": 10693.125,
      "d": 108.28125,
      "v": 56
    },
    {
      "midi": 67,
      "hit": false,
      "t": 10693.125,
      "d": 108.28125,
      "v": 70
    },
    {
      "midi": 63,
      "hit": false,
      "t": 10808.90625,
      "d": 465.9375,
      "v": 56
    },
    {
      "midi": 67,
      "hit": false,
      "t": 10808.90625,
      "d": 465.9375,
      "v": 66
    },
    {
      "midi": 39,
      "hit": false,
      "t": 10808.90625,
      "d": 222.1875,
      "v": 55
    },
    {
      "midi": 46,
      "hit": false,
      "t": 10808.90625,
      "d": 222.1875,
      "v": 56
    },
    {
      "midi": 51,
      "hit": false,
      "t": 10808.90625,
      "d": 222.1875,
      "v": 66
    },
    {
      "midi": 67,
      "hit": false,
      "t": 11282.34375,
      "d": 223.125,
      "v": 64
    },
    {
      "midi": 39,
      "hit": false,
      "t": 11282.34375,
      "d": 223.125,
      "v": 55
    },
    {
      "midi": 46,
      "hit": false,
      "t": 11282.34375,
      "d": 223.125,
      "v": 56
    },
    {
      "midi": 51,
      "hit": false,
      "t": 11282.34375,
      "d": 223.125,
      "v": 66
    },
    {
      "midi": 61,
      "hit": false,
      "t": 11521.875,
      "d": 491.71875,
      "v": 61
    },
    {
      "midi": 65,
      "hit": false,
      "t": 11521.875,
      "d": 491.71875,
      "v": 75
    },
    {
      "midi": 37,
      "hit": false,
      "t": 11521.875,
      "d": 239.53125,
      "v": 68
    },
    {
      "midi": 37,
      "hit": false,
      "t": 11775.9375,
      "d": 223.59375,
      "v": 55
    },
    {
      "midi": 44,
      "hit": false,
      "t": 11775.9375,
      "d": 223.59375,
      "v": 56
    },
    {
      "midi": 49,
      "hit": false,
      "t": 11775.9375,
      "d": 223.59375,
      "v": 66
    },
    {
      "midi": 68,
      "hit": false,
      "t": 12014.0625,
      "d": 475.3125,
      "v": 57
    },
    {
      "midi": 72,
      "hit": false,
      "t": 12014.0625,
      "d": 475.3125,
      "v": 71
    },
    {
      "midi": 37,
      "hit": false,
      "t": 12250.78125,
      "d": 224.53125,
      "v": 55
    },
    {
      "midi": 44,
      "hit": false,
      "t": 12250.78125,
      "d": 224.53125,
      "v": 56
    },
    {
      "midi": 49,
      "hit": false,
      "t": 12250.78125,
      "d": 224.53125,
      "v": 66
    },
    {
      "midi": 63,
      "hit": false,
      "t": 12489.84375,
      "d": 712.03125,
      "v": 59
    },
    {
      "midi": 67,
      "hit": false,
      "t": 12489.84375,
      "d": 712.03125,
      "v": 73
    },
    {
      "midi": 39,
      "hit": false,
      "t": 12489.84375,
      "d": 224.53125,
      "v": 66
    },
    {
      "midi": 39,
      "hit": false,
      "t": 12728.90625,
      "d": 222.1875,
      "v": 55
    },
    {
      "midi": 46,
      "hit": false,
      "t": 12728.90625,
      "d": 222.1875,
      "v": 56
    },
    {
      "midi": 51,
      "hit": false,
      "t": 12728.90625,
      "d": 222.1875,
      "v": 66
    },
    {
      "midi": 67,
      "hit": false,
      "t": 13202.34375,
      "d": 223.125,
      "v": 64
    },
    {
      "midi": 39,
      "hit": false,
      "t": 13202.34375,
      "d": 223.125,
      "v": 55
    },
    {
      "midi": 46,
      "hit": false,
      "t": 13202.34375,
      "d": 223.125,
      "v": 56
    },
    {
      "midi": 51,
      "hit": false,
      "t": 13202.34375,
      "d": 223.125,
      "v": 66
    },
    {
      "midi": 61,
      "hit": false,
      "t": 13441.875,
      "d": 239.53125,
      "v": 61
    },
    {
      "midi": 65,
      "hit": false,
      "t": 13441.875,
      "d": 239.53125,
      "v": 75
    },
    {
      "midi": 37,
      "hit": false,
      "t": 13441.875,
      "d": 239.53125,
      "v": 68
    },
    {
      "midi": 68,
      "hit": false,
      "t": 13695.9375,
      "d": 223.59375,
      "v": 56
    },
    {
      "midi": 72,
      "hit": false,
      "t": 13695.9375,
      "d": 223.59375,
      "v": 70
    },
    {
      "midi": 37,
      "hit": false,
      "t": 13695.9375,
      "d": 223.59375,
      "v": 55
    },
    {
      "midi": 44,
      "hit": false,
      "t": 13695.9375,
      "d": 223.59375,
      "v": 56
    },
    {
      "midi": 49,
      "hit": false,
      "t": 13695.9375,
      "d": 223.59375,
      "v": 66
    },
    {
      "midi": 72,
      "hit": false,
      "t": 14170.78125,
      "d": 54.375,
      "v": 64
    },
    {
      "midi": 61,
      "hit": false,
      "t": 14170.78125,
      "d": 224.53125,
      "v": 64
    },
    {
      "midi": 37,
      "hit": false,
      "t": 14170.78125,
      "d": 224.53125,
      "v": 55
    },
    {
      "midi": 44,
      "hit": false,
      "t": 14170.78125,
      "d": 224.53125,
      "v": 56
    },
    {
      "midi": 49,
      "hit": false,
      "t": 14170.78125,
      "d": 224.53125,
      "v": 66
    },
    {
      "midi": 71,
      "hit": false,
      "t": 14228.90625,
      "d": 54.375,
      "v": 64
    },
    {
      "midi": 70,
      "hit": false,
      "t": 14287.03125,
      "d": 54.84375,
      "v": 64
    },
    {
      "midi": 68,
      "hit": false,
      "t": 14345.625,
      "d": 60.46875,
      "v": 64
    },
    {
      "midi": 63,
      "hit": false,
      "t": 14409.84375,
      "d": 712.03125,
      "v": 59
    },
    {
      "midi": 67,
      "hit": false,
      "t": 14409.84375,
      "d": 712.03125,
      "v": 69
    },
    {
      "midi": 39,
      "hit": false,
      "t": 14409.84375,
      "d": 224.53125,
      "v": 66
    },
    {
      "midi": 39,
      "hit": false,
      "t": 14648.90625,
      "d": 222.1875,
      "v": 55
    },
    {
      "midi": 46,
      "hit": false,
      "t": 14648.90625,
      "d": 222.1875,
      "v": 56
    },
    {
      "midi": 51,
      "hit": false,
      "t": 14648.90625,
      "d": 222.1875,
      "v": 66
    },
    {
      "midi": 63,
      "hit": false,
      "t": 15122.34375,
      "d": 223.125,
      "v": 56
    },
    {
      "midi": 67,
      "hit": false,
      "t": 15122.34375,
      "d": 223.125,
      "v": 70
    },
    {
      "midi": 39,
      "hit": false,
      "t": 15122.34375,
      "d": 223.125,
      "v": 55
    },
    {
      "midi": 46,
      "hit": false,
      "t": 15122.34375,
      "d": 223.125,
      "v": 56
    },
    {
      "midi": 51,
      "hit": false,
      "t": 15122.34375,
      "d": 223.125,
      "v": 66
    },
    {
      "midi": 63,
      "hit": false,
      "t": 15361.875,
      "d": 728.4375,
      "v": 61
    },
    {
      "midi": 68,
      "hit": false,
      "t": 15361.875,
      "d": 728.4375,
      "v": 61
    },
    {
      "midi": 72,
      "hit": false,
      "t": 15361.875,
      "d": 728.4375,
      "v": 75
    },
    {
      "midi": 44,
      "hit": false,
      "t": 15361.875,
      "d": 239.53125,
      "v": 69
    },
    {
      "midi": 44,
      "hit": false,
      "t": 15615.9375,
      "d": 223.59375,
      "v": 56
    },
    {
      "midi": 51,
      "hit": false,
      "t": 15615.9375,
      "d": 223.59375,
      "v": 66
    },
    {
      "midi": 70,
      "hit": false,
      "t": 16090.78125,
      "d": 108.75,
      "v": 64
    },
    {
      "midi": 44,
      "hit": false,
      "t": 16090.78125,
      "d": 224.53125,
      "v": 56
    },
    {
      "midi": 51,
      "hit": false,
      "t": 16090.78125,
      "d": 224.53125,
      "v": 66
    },
    {
      "midi": 68,
      "hit": false,
      "t": 16207.03125,
      "d": 115.3125,
      "v": 64
    },
    {
      "midi": 70,
      "hit": false,
      "t": 16329.84375,
      "d": 475.3125,
      "v": 59
    },
    {
      "midi": 73,
      "hit": false,
      "t": 16329.84375,
      "d": 475.3125,
      "v": 73
    },
    {
      "midi": 42,
      "hit": false,
      "t": 16329.84375,
      "d": 224.53125,
      "v": 67
    },
    {
      "midi": 42,
      "hit": false,
      "t": 16568.90625,
      "d": 222.1875,
      "v": 56
    },
    {
      "midi": 49,
      "hit": false,
      "t": 16568.90625,
      "d": 222.1875,
      "v": 66
    },
    {
      "midi": 68,
      "hit": false,
      "t": 16805.625,
      "d": 352.5,
      "v": 57
    },
    {
      "midi": 72,
      "hit": false,
      "t": 16805.625,
      "d": 352.5,
      "v": 71
    },
    {
      "midi": 42,
      "hit": false,
      "t": 17042.34375,
      "d": 223.125,
      "v": 56
    },
    {
      "midi": 49,
      "hit": false,
      "t": 17042.34375,
      "d": 223.125,
      "v": 66
    },
    {
      "midi": 63,
      "hit": false,
      "t": 17158.59375,
      "d": 113.90625,
      "v": 56
    },
    {
      "midi": 70,
      "hit": false,
      "t": 17158.59375,
      "d": 113.90625,
      "v": 70
    },
    {
      "midi": 63,
      "hit": false,
      "t": 17281.875,
      "d": 728.4375,
      "v": 61
    },
    {
      "midi": 68,
      "hit": false,
      "t": 17281.875,
      "d": 728.4375,
      "v": 61
    },
    {
      "midi": 72,
      "hit": false,
      "t": 17281.875,
      "d": 728.4375,
      "v": 75
    },
    {
      "midi": 44,
      "hit": false,
      "t": 17281.875,
      "d": 239.53125,
      "v": 69
    },
    {
      "midi": 44,
      "hit": false,
      "t": 17535.9375,
      "d": 223.59375,
      "v": 56
    },
    {
      "midi": 51,
      "hit": false,
      "t": 17535.9375,
      "d": 223.59375,
      "v": 66
    },
    {
      "midi": 70,
      "hit": false,
      "t": 18010.78125,
      "d": 108.75,
      "v": 64
    },
    {
      "midi": 44,
      "hit": false,
      "t": 18010.78125,
      "d": 224.53125,
      "v": 56
    },
    {
      "midi": 51,
      "hit": false,
      "t": 18010.78125,
      "d": 224.53125,
      "v": 66
    },
    {
      "midi": 68,
      "hit": false,
      "t": 18127.03125,
      "d": 115.3125,
      "v": 64
    },
    {
      "midi": 70,
      "hit": false,
      "t": 18249.84375,
      "d": 475.3125,
      "v": 59
    },
    {
      "midi": 73,
      "hit": false,
      "t": 18249.84375,
      "d": 475.3125,
      "v": 73
    },
    {
      "midi": 42,
      "hit": false,
      "t": 18249.84375,
      "d": 224.53125,
      "v": 67
    },
    {
      "midi": 42,
      "hit": false,
      "t": 18488.90625,
      "d": 222.1875,
      "v": 56
    },
    {
      "midi": 49,
      "hit": false,
      "t": 18488.90625,
      "d": 222.1875,
      "v": 66
    },
    {
      "midi": 72,
      "hit": false,
      "t": 18725.625,
      "d": 222.1875,
      "v": 57
    },
    {
      "midi": 75,
      "hit": false,
      "t": 18725.625,
      "d": 222.1875,
      "v": 71
    },
    {
      "midi": 73,
      "hit": false,
      "t": 18962.34375,
      "d": 223.125,
      "v": 56
    },
    {
      "midi": 77,
      "hit": false,
      "t": 18962.34375,
      "d": 223.125,
      "v": 70
    },
    {
      "midi": 42,
      "hit": false,
      "t": 18962.34375,
      "d": 223.125,
      "v": 56
    },
    {
      "midi": 49,
      "hit": false,
      "t": 18962.34375,
      "d": 223.125,
      "v": 66
    },
    {
      "midi": 63,
      "hit": false,
      "t": 19201.875,
      "d": 728.4375,
      "v": 61
    },
    {
      "midi": 68,
      "hit": false,
      "t": 19201.875,
      "d": 728.4375,
      "v": 61
    },
    {
      "midi": 72,
      "hit": false,
      "t": 19201.875,
      "d": 728.4375,
      "v": 75
    },
    {
      "midi": 44,
      "hit": false,
      "t": 19201.875,
      "d": 239.53125,
      "v": 69
    },
    {
      "midi": 44,
      "hit": false,
      "t": 19455.9375,
      "d": 223.59375,
      "v": 56
    },
    {
      "midi": 51,
      "hit": false,
      "t": 19455.9375,
      "d": 223.59375,
      "v": 66
    },
    {
      "midi": 70,
      "hit": false,
      "t": 19930.78125,
      "d": 108.75,
      "v": 64
    },
    {
      "midi": 44,
      "hit": false,
      "t": 19930.78125,
      "d": 224.53125,
      "v": 56
    },
    {
      "midi": 51,
      "hit": false,
      "t": 19930.78125,
      "d": 224.53125,
      "v": 66
    },
    {
      "midi": 68,
      "hit": false,
      "t": 20047.03125,
      "d": 115.3125,
      "v": 64
    },
    {
      "midi": 70,
      "hit": false,
      "t": 20169.84375,
      "d": 475.3125,
      "v": 59
    },
    {
      "midi": 73,
      "hit": false,
      "t": 20169.84375,
      "d": 475.3125,
      "v": 73
    },
    {
      "midi": 43,
      "hit": false,
      "t": 20169.84375,
      "d": 224.53125,
      "v": 67
    },
    {
      "midi": 43,
      "hit": false,
      "t": 20408.90625,
      "d": 222.1875,
      "v": 56
    },
    {
      "midi": 51,
      "hit": false,
      "t": 20408.90625,
      "d": 222.1875,
      "v": 66
    },
    {
      "midi": 68,
      "hit": false,
      "t": 20645.625,
      "d": 352.5,
      "v": 57
    },
    {
      "midi": 72,
      "hit": false,
      "t": 20645.625,
      "d": 352.5,
      "v": 71
    },
    {
      "midi": 43,
      "hit": false,
      "t": 20882.34375,
      "d": 223.125,
      "v": 56
    },
    {
      "midi": 51,
      "hit": false,
      "t": 20882.34375,
      "d": 223.125,
      "v": 66
    },
    {
      "midi": 68,
      "hit": false,
      "t": 20998.59375,
      "d": 113.90625,
      "v": 56
    },
    {
      "midi": 70,
      "hit": false,
      "t": 20998.59375,
      "d": 113.90625,
      "v": 70
    },
    {
      "midi": 68,
      "hit": false,
      "t": 21121.875,
      "d": 491.71875,
      "v": 61
    },
    {
      "midi": 72,
      "hit": false,
      "t": 21121.875,
      "d": 491.71875,
      "v": 75
    },
    {
      "midi": 41,
      "hit": false,
      "t": 21121.875,
      "d": 239.53125,
      "v": 69
    },
    {
      "midi": 41,
      "hit": false,
      "t": 21375.9375,
      "d": 223.59375,
      "v": 56
    },
    {
      "midi": 48,
      "hit": false,
      "t": 21375.9375,
      "d": 223.59375,
      "v": 56
    },
    {
      "midi": 53,
      "hit": false,
      "t": 21375.9375,
      "d": 223.59375,
      "v": 66
    },
    {
      "midi": 67,
      "hit": false,
      "t": 21614.0625,
      "d": 475.3125,
      "v": 57
    },
    {
      "midi": 70,
      "hit": false,
      "t": 21614.0625,
      "d": 475.3125,
      "v": 71
    },
    {
      "midi": 41,
      "hit": false,
      "t": 21850.78125,
      "d": 224.53125,
      "v": 56
    },
    {
      "midi": 48,
      "hit": false,
      "t": 21850.78125,
      "d": 224.53125,
      "v": 56
    },
    {
      "midi": 53,
      "hit": false,
      "t": 21850.78125,
      "d": 224.53125,
      "v": 66
    },
    {
      "midi": 65,
      "hit": false,
      "t": 22089.84375,
      "d": 475.3125,
      "v": 59
    },
    {
      "midi": 68,
      "hit": false,
      "t": 22089.84375,
      "d": 475.3125,
      "v": 73
    },
    {
      "midi": 39,
      "hit": false,
      "t": 22089.84375,
      "d": 224.53125,
      "v": 66
    },
    {
      "midi": 39,
      "hit": false,
      "t": 22328.90625,
      "d": 222.1875,
      "v": 55
    },
    {
      "midi": 48,
      "hit": false,
      "t": 22328.90625,
      "d": 222.1875,
      "v": 56
    },
    {
      "midi": 53,
      "hit": false,
      "t": 22328.90625,
      "d": 222.1875,
      "v": 66
    },
    {
      "midi": 64,
      "hit": false,
      "t": 22565.625,
      "d": 473.90625,
      "v": 57
    },
    {
      "midi": 67,
      "hit": false,
      "t": 22565.625,
      "d": 473.90625,
      "v": 71
    },
    {
      "midi": 39,
      "hit": false,
      "t": 22802.34375,
      "d": 223.125,
      "v": 55
    },
    {
      "midi": 48,
      "hit": false,
      "t": 22802.34375,
      "d": 223.125,
      "v": 56
    },
    {
      "midi": 53,
      "hit": false,
      "t": 22802.34375,
      "d": 223.125,
      "v": 66
    },
    {
      "midi": 60,
      "hit": false,
      "t": 23041.875,
      "d": 239.53125,
      "v": 69
    },
    {
      "midi": 41,
      "hit": false,
      "t": 23041.875,
      "d": 239.53125,
      "v": 69
    },
    {
      "midi": 65,
      "hit": false,
      "t": 23295.9375,
      "d": 474.375,
      "v": 64
    },
    {
      "midi": 41,
      "hit": false,
      "t": 23295.9375,
      "d": 223.59375,
      "v": 56
    },
    {
      "midi": 48,
      "hit": false,
      "t": 23295.9375,
      "d": 223.59375,
      "v": 56
    },
    {
      "midi": 53,
      "hit": false,
      "t": 23295.9375,
      "d": 223.59375,
      "v": 66
    },
    {
      "midi": 67,
      "hit": false,
      "t": 23770.78125,
      "d": 224.53125,
      "v": 64
    },
    {
      "midi": 41,
      "hit": false,
      "t": 23770.78125,
      "d": 224.53125,
      "v": 56
    },
    {
      "midi": 48,
      "hit": false,
      "t": 23770.78125,
      "d": 224.53125,
      "v": 56
    },
    {
      "midi": 53,
      "hit": false,
      "t": 23770.78125,
      "d": 224.53125,
      "v": 66
    },
    {
      "midi": 68,
      "hit": false,
      "t": 24009.84375,
      "d": 475.3125,
      "v": 67
    },
    {
      "midi": 37,
      "hit": false,
      "t": 24009.84375,
      "d": 224.53125,
      "v": 66
    },
    {
      "midi": 37,
      "hit": false,
      "t": 24248.90625,
      "d": 222.1875,
      "v": 55
    },
    {
      "midi": 44,
      "hit": false,
      "t": 24248.90625,
      "d": 222.1875,
      "v": 56
    },
    {
      "midi": 49,
      "hit": false,
      "t": 24248.90625,
      "d": 222.1875,
      "v": 66
    },
    {
      "midi": 70,
      "hit": false,
      "t": 24485.625,
      "d": 352.5,
      "v": 65
    },
    {
      "midi": 37,
      "hit": false,
      "t": 24722.34375,
      "d": 223.125,
      "v": 55
    },
    {
      "midi": 44,
      "hit": false,
      "t": 24722.34375,
      "d": 223.125,
      "v": 56
    },
    {
      "midi": 49,
      "hit": false,
      "t": 24722.34375,
      "d": 223.125,
      "v": 66
    },
    {
      "midi": 68,
      "hit": false,
      "t": 24838.59375,
      "d": 113.90625,
      "v": 64
    },
    {
      "midi": 72,
      "hit": false,
      "t": 24961.875,
      "d": 491.71875,
      "v": 69
    },
    {
      "midi": 44,
      "hit": false,
      "t": 24961.875,
      "d": 239.53125,
      "v": 69
    },
    {
      "midi": 44,
      "hit": false,
      "t": 25215.9375,
      "d": 223.59375,
      "v": 56
    },
    {
      "midi": 51,
      "hit": false,
      "t": 25215.9375,
      "d": 223.59375,
      "v": 56
    },
    {
      "midi": 56,
      "hit": false,
      "t": 25215.9375,
      "d": 223.59375,
      "v": 66
    },
    {
      "midi": 70,
      "hit": false,
      "t": 25454.0625,
      "d": 352.5,
      "v": 65
    },
    {
      "midi": 44,
      "hit": false,
      "t": 25690.78125,
      "d": 224.53125,
      "v": 56
    },
    {
      "midi": 51,
      "hit": false,
      "t": 25690.78125,
      "d": 224.53125,
      "v": 56
    },
    {
      "midi": 56,
      "hit": false,
      "t": 25690.78125,
      "d": 224.53125,
      "v": 66
    },
    {
      "midi": 71,
      "hit": false,
      "t": 25807.03125,
      "d": 115.3125,
      "v": 64
    },
    {
      "midi": 70,
      "hit": false,
      "t": 25929.84375,
      "d": 60.46875,
      "v": 67
    },
    {
      "midi": 39,
      "hit": false,
      "t": 25929.84375,
      "d": 224.53125,
      "v": 66
    },
    {
      "midi": 68,
      "hit": false,
      "t": 25994.0625,
      "d": 55.3125,
      "v": 64
    },
    {
      "midi": 67,
      "hit": false,
      "t": 26053.125,
      "d": 108.28125,
      "v": 64
    },
    {
      "midi": 67,
      "hit": false,
      "t": 26168.90625,
      "d": 465.9375,
      "v": 64
    },
    {
      "midi": 39,
      "hit": false,
      "t": 26168.90625,
      "d": 222.1875,
      "v": 55
    },
    {
      "midi": 46,
      "hit": false,
      "t": 26168.90625,
      "d": 222.1875,
      "v": 56
    },
    {
      "midi": 51,
      "hit": false,
      "t": 26168.90625,
      "d": 222.1875,
      "v": 66
    },
    {
      "midi": 67,
      "hit": false,
      "t": 26642.34375,
      "d": 223.125,
      "v": 64
    },
    {
      "midi": 39,
      "hit": false,
      "t": 26642.34375,
      "d": 223.125,
      "v": 55
    },
    {
      "midi": 46,
      "hit": false,
      "t": 26642.34375,
      "d": 223.125,
      "v": 56
    },
    {
      "midi": 51,
      "hit": false,
      "t": 26642.34375,
      "d": 223.125,
      "v": 66
    },
    {
      "midi": 61,
      "hit": false,
      "t": 26881.875,
      "d": 491.71875,
      "v": 61
    },
    {
      "midi": 65,
      "hit": false,
      "t": 26881.875,
      "d": 491.71875,
      "v": 75
    },
    {
      "midi": 37,
      "hit": false,
      "t": 26881.875,
      "d": 239.53125,
      "v": 68
    },
    {
      "midi": 37,
      "hit": false,
      "t": 27135.9375,
      "d": 223.59375,
      "v": 63
    },
    {
      "midi": 68,
      "hit": false,
      "t": 27374.0625,
      "d": 475.3125,
      "v": 57
    },
    {
      "midi": 72,
      "hit": false,
      "t": 27374.0625,
      "d": 475.3125,
      "v": 71
    },
    {
      "midi": 37,
      "hit": false,
      "t": 27610.78125,
      "d": 224.53125,
      "v": 55
    },
    {
      "midi": 44,
      "hit": false,
      "t": 27610.78125,
      "d": 224.53125,
      "v": 56
    },
    {
      "midi": 49,
      "hit": false,
      "t": 27610.78125,
      "d": 224.53125,
      "v": 70
    },
    {
      "midi": 63,
      "hit": false,
      "t": 27849.84375,
      "d": 712.03125,
      "v": 59
    },
    {
      "midi": 67,
      "hit": false,
      "t": 27849.84375,
      "d": 712.03125,
      "v": 73
    },
    {
      "midi": 39,
      "hit": false,
      "t": 27849.84375,
      "d": 224.53125,
      "v": 66
    },
    {
      "midi": 39,
      "hit": false,
      "t": 28088.90625,
      "d": 222.1875,
      "v": 55
    },
    {
      "midi": 46,
      "hit": false,
      "t": 28088.90625,
      "d": 222.1875,
      "v": 56
    },
    {
      "midi": 51,
      "hit": false,
      "t": 28088.90625,
      "d": 222.1875,
      "v": 66
    },
    {
      "midi": 67,
      "hit": false,
      "t": 28562.34375,
      "d": 223.125,
      "v": 64
    },
    {
      "midi": 39,
      "hit": false,
      "t": 28562.34375,
      "d": 223.125,
      "v": 55
    },
    {
      "midi": 46,
      "hit": false,
      "t": 28562.34375,
      "d": 223.125,
      "v": 56
    },
    {
      "midi": 51,
      "hit": false,
      "t": 28562.34375,
      "d": 223.125,
      "v": 66
    },
    {
      "midi": 61,
      "hit": false,
      "t": 28801.875,
      "d": 239.53125,
      "v": 61
    },
    {
      "midi": 65,
      "hit": false,
      "t": 28801.875,
      "d": 239.53125,
      "v": 75
    },
    {
      "midi": 37,
      "hit": false,
      "t": 28801.875,
      "d": 239.53125,
      "v": 68
    },
    {
      "midi": 68,
      "hit": false,
      "t": 29055.9375,
      "d": 223.59375,
      "v": 56
    },
    {
      "midi": 72,
      "hit": false,
      "t": 29055.9375,
      "d": 223.59375,
      "v": 70
    },
    {
      "midi": 37,
      "hit": false,
      "t": 29055.9375,
      "d": 223.59375,
      "v": 55
    },
    {
      "midi": 44,
      "hit": false,
      "t": 29055.9375,
      "d": 223.59375,
      "v": 56
    },
    {
      "midi": 49,
      "hit": false,
      "t": 29055.9375,
      "d": 223.59375,
      "v": 66
    },
    {
      "midi": 72,
      "hit": false,
      "t": 29530.78125,
      "d": 54.375,
      "v": 64
    },
    {
      "midi": 61,
      "hit": false,
      "t": 29530.78125,
      "d": 224.53125,
      "v": 64
    },
    {
      "midi": 37,
      "hit": false,
      "t": 29530.78125,
      "d": 224.53125,
      "v": 55
    },
    {
      "midi": 44,
      "hit": false,
      "t": 29530.78125,
      "d": 224.53125,
      "v": 56
    },
    {
      "midi": 49,
      "hit": false,
      "t": 29530.78125,
      "d": 224.53125,
      "v": 66
    },
    {
      "midi": 71,
      "hit": false,
      "t": 29588.90625,
      "d": 54.375,
      "v": 64
    },
    {
      "midi": 70,
      "hit": false,
      "t": 29647.03125,
      "d": 54.84375,
      "v": 64
    },
    {
      "midi": 68,
      "hit": false,
      "t": 29705.625,
      "d": 60.46875,
      "v": 64
    },
    {
      "midi": 63,
      "hit": false,
      "t": 29769.84375,
      "d": 712.03125,
      "v": 59
    },
    {
      "midi": 67,
      "hit": false,
      "t": 29769.84375,
      "d": 712.03125,
      "v": 69
    },
    {
      "midi": 39,
      "hit": false,
      "t": 29769.84375,
      "d": 224.53125,
      "v": 66
    },
    {
      "midi": 39,
      "hit": false,
      "t": 30008.90625,
      "d": 222.1875,
      "v": 55
    },
    {
      "midi": 46,
      "hit": false,
      "t": 30008.90625,
      "d": 222.1875,
      "v": 56
    },
    {
      "midi": 51,
      "hit": false,
      "t": 30008.90625,
      "d": 222.1875,
      "v": 66
    },
    {
      "midi": 63,
      "hit": false,
      "t": 30482.34375,
      "d": 223.125,
      "v": 56
    },
    {
      "midi": 67,
      "hit": false,
      "t": 30482.34375,
      "d": 223.125,
      "v": 66
    },
    {
      "midi": 39,
      "hit": false,
      "t": 30482.34375,
      "d": 223.125,
      "v": 55
    },
    {
      "midi": 46,
      "hit": false,
      "t": 30482.34375,
      "d": 223.125,
      "v": 56
    },
    {
      "midi": 51,
      "hit": false,
      "t": 30482.34375,
      "d": 223.125,
      "v": 66
    },
    {
      "midi": 60,
      "hit": false,
      "t": 30721.875,
      "d": 239.53125,
      "v": 69
    },
    {
      "midi": 41,
      "hit": false,
      "t": 30721.875,
      "d": 239.53125,
      "v": 69
    },
    {
      "midi": 60,
      "hit": false,
      "t": 30975.9375,
      "d": 474.375,
      "v": 56
    },
    {
      "midi": 65,
      "hit": false,
      "t": 30975.9375,
      "d": 474.375,
      "v": 70
    },
    {
      "midi": 41,
      "hit": false,
      "t": 30975.9375,
      "d": 223.59375,
      "v": 56
    },
    {
      "midi": 48,
      "hit": false,
      "t": 30975.9375,
      "d": 223.59375,
      "v": 56
    },
    {
      "midi": 53,
      "hit": false,
      "t": 30975.9375,
      "d": 223.59375,
      "v": 66
    },
    {
      "midi": 63,
      "hit": false,
      "t": 31450.78125,
      "d": 224.53125,
      "v": 56
    },
    {
      "midi": 67,
      "hit": false,
      "t": 31450.78125,
      "d": 224.53125,
      "v": 70
    },
    {
      "midi": 41,
      "hit": false,
      "t": 31450.78125,
      "d": 224.53125,
      "v": 56
    },
    {
      "midi": 48,
      "hit": false,
      "t": 31450.78125,
      "d": 224.53125,
      "v": 56
    },
    {
      "midi": 53,
      "hit": false,
      "t": 31450.78125,
      "d": 224.53125,
      "v": 66
    },
    {
      "midi": 65,
      "hit": false,
      "t": 31689.84375,
      "d": 475.3125,
      "v": 59
    },
    {
      "midi": 68,
      "hit": false,
      "t": 31689.84375,
      "d": 475.3125,
      "v": 73
    },
    {
      "midi": 37,
      "hit": false,
      "t": 31689.84375,
      "d": 224.53125,
      "v": 66
    },
    {
      "midi": 37,
      "hit": false,
      "t": 31928.90625,
      "d": 222.1875,
      "v": 55
    },
    {
      "midi": 44,
      "hit": false,
      "t": 31928.90625,
      "d": 222.1875,
      "v": 56
    },
    {
      "midi": 49,
      "hit": false,
      "t": 31928.90625,
      "d": 222.1875,
      "v": 66
    },
    {
      "midi": 67,
      "hit": false,
      "t": 32165.625,
      "d": 352.5,
      "v": 57
    },
    {
      "midi": 70,
      "hit": false,
      "t": 32165.625,
      "d": 352.5,
      "v": 71
    },
    {
      "midi": 37,
      "hit": false,
      "t": 32402.34375,
      "d": 223.125,
      "v": 55
    },
    {
      "midi": 44,
      "hit": false,
      "t": 32402.34375,
      "d": 223.125,
      "v": 56
    },
    {
      "midi": 49,
      "hit": false,
      "t": 32402.34375,
      "d": 223.125,
      "v": 66
    },
    {
      "midi": 67,
      "hit": false,
      "t": 32518.59375,
      "d": 113.90625,
      "v": 56
    },
    {
      "midi": 68,
      "hit": false,
      "t": 32518.59375,
      "d": 113.90625,
      "v": 70
    },
    {
      "midi": 68,
      "hit": false,
      "t": 32641.875,
      "d": 491.71875,
      "v": 61
    },
    {
      "midi": 72,
      "hit": false,
      "t": 32641.875,
      "d": 491.71875,
      "v": 75
    },
    {
      "midi": 44,
      "hit": false,
      "t": 32641.875,
      "d": 239.53125,
      "v": 69
    },
    {
      "midi": 44,
      "hit": false,
      "t": 32895.9375,
      "d": 223.59375,
      "v": 56
    },
    {
      "midi": 51,
      "hit": false,
      "t": 32895.9375,
      "d": 223.59375,
      "v": 56
    },
    {
      "midi": 56,
      "hit": false,
      "t": 32895.9375,
      "d": 223.59375,
      "v": 66
    },
    {
      "midi": 67,
      "hit": false,
      "t": 33134.0625,
      "d": 352.5,
      "v": 57
    },
    {
      "midi": 70,
      "hit": false,
      "t": 33134.0625,
      "d": 352.5,
      "v": 71
    },
    {
      "midi": 44,
      "hit": false,
      "t": 33370.78125,
      "d": 224.53125,
      "v": 56
    },
    {
      "midi": 51,
      "hit": false,
      "t": 33370.78125,
      "d": 224.53125,
      "v": 56
    },
    {
      "midi": 56,
      "hit": false,
      "t": 33370.78125,
      "d": 224.53125,
      "v": 66
    },
    {
      "midi": 67,
      "hit": false,
      "t": 33487.03125,
      "d": 115.3125,
      "v": 56
    },
    {
      "midi": 70,
      "hit": false,
      "t": 33487.03125,
      "d": 115.3125,
      "v": 70
    },
    {
      "midi": 65,
      "hit": false,
      "t": 33609.84375,
      "d": 60.46875,
      "v": 59
    },
    {
      "midi": 69,
      "hit": false,
      "t": 33609.84375,
      "d": 60.46875,
      "v": 73
    },
    {
      "midi": 39,
      "hit": false,
      "t": 33609.84375,
      "d": 224.53125,
      "v": 66
    },
    {
      "midi": 64,
      "hit": false,
      "t": 33674.0625,
      "d": 55.3125,
      "v": 56
    },
    {
      "midi": 68,
      "hit": false,
      "t": 33674.0625,
      "d": 55.3125,
      "v": 70
    },
    {
      "midi": 63,
      "hit": false,
      "t": 33733.125,
      "d": 108.28125,
      "v": 56
    },
    {
      "midi": 67,
      "hit": false,
      "t": 33733.125,
      "d": 108.28125,
      "v": 70
    },
    {
      "midi": 63,
      "hit": false,
      "t": 33848.90625,
      "d": 465.9375,
      "v": 56
    },
    {
      "midi": 67,
      "hit": false,
      "t": 33848.90625,
      "d": 465.9375,
      "v": 66
    },
    {
      "midi": 39,
      "hit": false,
      "t": 33848.90625,
      "d": 222.1875,
      "v": 55
    },
    {
      "midi": 46,
      "hit": false,
      "t": 33848.90625,
      "d": 222.1875,
      "v": 56
    },
    {
      "midi": 51,
      "hit": false,
      "t": 33848.90625,
      "d": 222.1875,
      "v": 66
    },
    {
      "midi": 67,
      "hit": false,
      "t": 34322.34375,
      "d": 223.125,
      "v": 64
    },
    {
      "midi": 39,
      "hit": false,
      "t": 34322.34375,
      "d": 223.125,
      "v": 55
    },
    {
      "midi": 46,
      "hit": false,
      "t": 34322.34375,
      "d": 223.125,
      "v": 56
    },
    {
      "midi": 51,
      "hit": false,
      "t": 34322.34375,
      "d": 223.125,
      "v": 66
    },
    {
      "midi": 61,
      "hit": false,
      "t": 34561.875,
      "d": 491.71875,
      "v": 61
    },
    {
      "midi": 65,
      "hit": false,
      "t": 34561.875,
      "d": 491.71875,
      "v": 75
    },
    {
      "midi": 37,
      "hit": false,
      "t": 34561.875,
      "d": 239.53125,
      "v": 68
    },
    {
      "midi": 37,
      "hit": false,
      "t": 34815.9375,
      "d": 223.59375,
      "v": 55
    },
    {
      "midi": 44,
      "hit": false,
      "t": 34815.9375,
      "d": 223.59375,
      "v": 56
    },
    {
      "midi": 49,
      "hit": false,
      "t": 34815.9375,
      "d": 223.59375,
      "v": 66
    },
    {
      "midi": 68,
      "hit": false,
      "t": 35054.0625,
      "d": 475.3125,
      "v": 57
    },
    {
      "midi": 72,
      "hit": false,
      "t": 35054.0625,
      "d": 475.3125,
      "v": 71
    },
    {
      "midi": 37,
      "hit": false,
      "t": 35290.78125,
      "d": 224.53125,
      "v": 55
    },
    {
      "midi": 44,
      "hit": false,
      "t": 35290.78125,
      "d": 224.53125,
      "v": 56
    },
    {
      "midi": 49,
      "hit": false,
      "t": 35290.78125,
      "d": 224.53125,
      "v": 66
    },
    {
      "midi": 63,
      "hit": false,
      "t": 35529.84375,
      "d": 712.03125,
      "v": 59
    },
    {
      "midi": 67,
      "hit": false,
      "t": 35529.84375,
      "d": 712.03125,
      "v": 73
    },
    {
      "midi": 39,
      "hit": false,
      "t": 35529.84375,
      "d": 224.53125,
      "v": 66
    },
    {
      "midi": 39,
      "hit": false,
      "t": 35768.90625,
      "d": 222.1875,
      "v": 55
    },
    {
      "midi": 46,
      "hit": false,
      "t": 35768.90625,
      "d": 222.1875,
      "v": 56
    },
    {
      "midi": 51,
      "hit": false,
      "t": 35768.90625,
      "d": 222.1875,
      "v": 66
    },
    {
      "midi": 67,
      "hit": false,
      "t": 36242.34375,
      "d": 223.125,
      "v": 64
    },
    {
      "midi": 39,
      "hit": false,
      "t": 36242.34375,
      "d": 223.125,
      "v": 55
    },
    {
      "midi": 46,
      "hit": false,
      "t": 36242.34375,
      "d": 223.125,
      "v": 56
    },
    {
      "midi": 51,
      "hit": false,
      "t": 36242.34375,
      "d": 223.125,
      "v": 66
    },
    {
      "midi": 61,
      "hit": false,
      "t": 36481.875,
      "d": 239.53125,
      "v": 61
    },
    {
      "midi": 65,
      "hit": false,
      "t": 36481.875,
      "d": 239.53125,
      "v": 75
    },
    {
      "midi": 37,
      "hit": false,
      "t": 36481.875,
      "d": 239.53125,
      "v": 68
    },
    {
      "midi": 68,
      "hit": false,
      "t": 36735.9375,
      "d": 223.59375,
      "v": 56
    },
    {
      "midi": 72,
      "hit": false,
      "t": 36735.9375,
      "d": 223.59375,
      "v": 70
    },
    {
      "midi": 37,
      "hit": false,
      "t": 36735.9375,
      "d": 223.59375,
      "v": 55
    },
    {
      "midi": 44,
      "hit": false,
      "t": 36735.9375,
      "d": 223.59375,
      "v": 56
    },
    {
      "midi": 49,
      "hit": false,
      "t": 36735.9375,
      "d": 223.59375,
      "v": 66
    },
    {
      "midi": 72,
      "hit": false,
      "t": 37210.78125,
      "d": 54.375,
      "v": 64
    },
    {
      "midi": 61,
      "hit": false,
      "t": 37210.78125,
      "d": 224.53125,
      "v": 64
    },
    {
      "midi": 37,
      "hit": false,
      "t": 37210.78125,
      "d": 224.53125,
      "v": 55
    },
    {
      "midi": 44,
      "hit": false,
      "t": 37210.78125,
      "d": 224.53125,
      "v": 56
    },
    {
      "midi": 49,
      "hit": false,
      "t": 37210.78125,
      "d": 224.53125,
      "v": 66
    },
    {
      "midi": 71,
      "hit": false,
      "t": 37268.90625,
      "d": 54.375,
      "v": 64
    },
    {
      "midi": 70,
      "hit": false,
      "t": 37327.03125,
      "d": 54.84375,
      "v": 64
    },
    {
      "midi": 68,
      "hit": false,
      "t": 37385.625,
      "d": 60.46875,
      "v": 64
    },
    {
      "midi": 63,
      "hit": false,
      "t": 37449.84375,
      "d": 712.03125,
      "v": 59
    },
    {
      "midi": 67,
      "hit": false,
      "t": 37449.84375,
      "d": 712.03125,
      "v": 69
    },
    {
      "midi": 39,
      "hit": false,
      "t": 37449.84375,
      "d": 224.53125,
      "v": 66
    },
    {
      "midi": 39,
      "hit": false,
      "t": 37688.90625,
      "d": 222.1875,
      "v": 55
    },
    {
      "midi": 46,
      "hit": false,
      "t": 37688.90625,
      "d": 222.1875,
      "v": 56
    },
    {
      "midi": 51,
      "hit": false,
      "t": 37688.90625,
      "d": 222.1875,
      "v": 66
    },
    {
      "midi": 63,
      "hit": false,
      "t": 38162.34375,
      "d": 223.125,
      "v": 56
    },
    {
      "midi": 67,
      "hit": false,
      "t": 38162.34375,
      "d": 223.125,
      "v": 70
    },
    {
      "midi": 39,
      "hit": false,
      "t": 38162.34375,
      "d": 223.125,
      "v": 55
    },
    {
      "midi": 46,
      "hit": false,
      "t": 38162.34375,
      "d": 223.125,
      "v": 56
    },
    {
      "midi": 51,
      "hit": false,
      "t": 38162.34375,
      "d": 223.125,
      "v": 66
    },
    {
      "midi": 63,
      "hit": false,
      "t": 38401.875,
      "d": 728.4375,
      "v": 61
    },
    {
      "midi": 68,
      "hit": false,
      "t": 38401.875,
      "d": 728.4375,
      "v": 61
    },
    {
      "midi": 72,
      "hit": false,
      "t": 38401.875,
      "d": 728.4375,
      "v": 75
    },
    {
      "midi": 44,
      "hit": false,
      "t": 38401.875,
      "d": 239.53125,
      "v": 69
    },
    {
      "midi": 44,
      "hit": false,
      "t": 38655.9375,
      "d": 223.59375,
      "v": 56
    },
    {
      "midi": 51,
      "hit": false,
      "t": 38655.9375,
      "d": 223.59375,
      "v": 66
    },
    {
      "midi": 70,
      "hit": false,
      "t": 39130.78125,
      "d": 108.75,
      "v": 64
    },
    {
      "midi": 44,
      "hit": false,
      "t": 39130.78125,
      "d": 224.53125,
      "v": 56
    },
    {
      "midi": 51,
      "hit": false,
      "t": 39130.78125,
      "d": 224.53125,
      "v": 66
    },
    {
      "midi": 68,
      "hit": false,
      "t": 39247.03125,
      "d": 115.3125,
      "v": 64
    },
    {
      "midi": 70,
      "hit": false,
      "t": 39369.84375,
      "d": 475.3125,
      "v": 59
    },
    {
      "midi": 73,
      "hit": false,
      "t": 39369.84375,
      "d": 475.3125,
      "v": 73
    },
    {
      "midi": 42,
      "hit": false,
      "t": 39369.84375,
      "d": 224.53125,
      "v": 67
    },
    {
      "midi": 42,
      "hit": false,
      "t": 39608.90625,
      "d": 222.1875,
      "v": 56
    },
    {
      "midi": 49,
      "hit": false,
      "t": 39608.90625,
      "d": 222.1875,
      "v": 66
    },
    {
      "midi": 68,
      "hit": false,
      "t": 39845.625,
      "d": 352.5,
      "v": 57
    },
    {
      "midi": 72,
      "hit": false,
      "t": 39845.625,
      "d": 352.5,
      "v": 71
    },
    {
      "midi": 42,
      "hit": false,
      "t": 40082.34375,
      "d": 223.125,
      "v": 56
    },
    {
      "midi": 49,
      "hit": false,
      "t": 40082.34375,
      "d": 223.125,
      "v": 66
    },
    {
      "midi": 63,
      "hit": false,
      "t": 40198.59375,
      "d": 113.90625,
      "v": 56
    },
    {
      "midi": 70,
      "hit": false,
      "t": 40198.59375,
      "d": 113.90625,
      "v": 70
    },
    {
      "midi": 63,
      "hit": false,
      "t": 40321.875,
      "d": 728.4375,
      "v": 61
    },
    {
      "midi": 68,
      "hit": false,
      "t": 40321.875,
      "d": 728.4375,
      "v": 61
    },
    {
      "midi": 72,
      "hit": false,
      "t": 40321.875,
      "d": 728.4375,
      "v": 75
    },
    {
      "midi": 44,
      "hit": false,
      "t": 40321.875,
      "d": 239.53125,
      "v": 69
    },
    {
      "midi": 44,
      "hit": false,
      "t": 40575.9375,
      "d": 223.59375,
      "v": 56
    },
    {
      "midi": 51,
      "hit": false,
      "t": 40575.9375,
      "d": 223.59375,
      "v": 66
    },
    {
      "midi": 70,
      "hit": false,
      "t": 41050.78125,
      "d": 108.75,
      "v": 64
    },
    {
      "midi": 44,
      "hit": false,
      "t": 41050.78125,
      "d": 224.53125,
      "v": 56
    },
    {
      "midi": 51,
      "hit": false,
      "t": 41050.78125,
      "d": 224.53125,
      "v": 66
    },
    {
      "midi": 68,
      "hit": false,
      "t": 41167.03125,
      "d": 115.3125,
      "v": 64
    },
    {
      "midi": 70,
      "hit": false,
      "t": 41289.84375,
      "d": 475.3125,
      "v": 59
    },
    {
      "midi": 73,
      "hit": false,
      "t": 41289.84375,
      "d": 475.3125,
      "v": 73
    },
    {
      "midi": 42,
      "hit": false,
      "t": 41289.84375,
      "d": 224.53125,
      "v": 67
    },
    {
      "midi": 42,
      "hit": false,
      "t": 41528.90625,
      "d": 222.1875,
      "v": 56
    },
    {
      "midi": 51,
      "hit": false,
      "t": 41528.90625,
      "d": 222.1875,
      "v": 66
    },
    {
      "midi": 72,
      "hit": false,
      "t": 41765.625,
      "d": 222.1875,
      "v": 57
    },
    {
      "midi": 75,
      "hit": false,
      "t": 41765.625,
      "d": 222.1875,
      "v": 71
    },
    {
      "midi": 73,
      "hit": false,
      "t": 42002.34375,
      "d": 223.125,
      "v": 56
    },
    {
      "midi": 77,
      "hit": false,
      "t": 42002.34375,
      "d": 223.125,
      "v": 70
    },
    {
      "midi": 42,
      "hit": false,
      "t": 42002.34375,
      "d": 223.125,
      "v": 56
    },
    {
      "midi": 51,
      "hit": false,
      "t": 42002.34375,
      "d": 223.125,
      "v": 66
    },
    {
      "midi": 63,
      "hit": false,
      "t": 42241.875,
      "d": 728.4375,
      "v": 61
    },
    {
      "midi": 68,
      "hit": false,
      "t": 42241.875,
      "d": 728.4375,
      "v": 61
    },
    {
      "midi": 72,
      "hit": false,
      "t": 42241.875,
      "d": 728.4375,
      "v": 75
    },
    {
      "midi": 44,
      "hit": false,
      "t": 42241.875,
      "d": 239.53125,
      "v": 69
    },
    {
      "midi": 44,
      "hit": false,
      "t": 42495.9375,
      "d": 223.59375,
      "v": 56
    },
    {
      "midi": 51,
      "hit": false,
      "t": 42495.9375,
      "d": 223.59375,
      "v": 66
    },
    {
      "midi": 70,
      "hit": false,
      "t": 42970.78125,
      "d": 108.75,
      "v": 64
    },
    {
      "midi": 44,
      "hit": false,
      "t": 42970.78125,
      "d": 224.53125,
      "v": 56
    },
    {
      "midi": 51,
      "hit": false,
      "t": 42970.78125,
      "d": 224.53125,
      "v": 66
    },
    {
      "midi": 68,
      "hit": false,
      "t": 43087.03125,
      "d": 115.3125,
      "v": 64
    },
    {
      "midi": 70,
      "hit": false,
      "t": 43209.84375,
      "d": 475.3125,
      "v": 59
    },
    {
      "midi": 73,
      "hit": false,
      "t": 43209.84375,
      "d": 475.3125,
      "v": 73
    },
    {
      "midi": 43,
      "hit": false,
      "t": 43209.84375,
      "d": 224.53125,
      "v": 67
    },
    {
      "midi": 43,
      "hit": false,
      "t": 43448.90625,
      "d": 222.1875,
      "v": 56
    },
    {
      "midi": 51,
      "hit": false,
      "t": 43448.90625,
      "d": 222.1875,
      "v": 66
    },
    {
      "midi": 68,
      "hit": false,
      "t": 43685.625,
      "d": 352.5,
      "v": 57
    },
    {
      "midi": 72,
      "hit": false,
      "t": 43685.625,
      "d": 352.5,
      "v": 71
    },
    {
      "midi": 43,
      "hit": false,
      "t": 43922.34375,
      "d": 223.125,
      "v": 56
    },
    {
      "midi": 51,
      "hit": false,
      "t": 43922.34375,
      "d": 223.125,
      "v": 66
    },
    {
      "midi": 68,
      "hit": false,
      "t": 44038.59375,
      "d": 113.90625,
      "v": 56
    },
    {
      "midi": 70,
      "hit": false,
      "t": 44038.59375,
      "d": 113.90625,
      "v": 70
    },
    {
      "midi": 68,
      "hit": false,
      "t": 44161.875,
      "d": 491.71875,
      "v": 61
    },
    {
      "midi": 72,
      "hit": false,
      "t": 44161.875,
      "d": 491.71875,
      "v": 75
    },
    {
      "midi": 41,
      "hit": false,
      "t": 44161.875,
      "d": 239.53125,
      "v": 69
    },
    {
      "midi": 41,
      "hit": false,
      "t": 44415.9375,
      "d": 223.59375,
      "v": 56
    },
    {
      "midi": 48,
      "hit": false,
      "t": 44415.9375,
      "d": 223.59375,
      "v": 56
    },
    {
      "midi": 53,
      "hit": false,
      "t": 44415.9375,
      "d": 223.59375,
      "v": 66
    },
    {
      "midi": 67,
      "hit": false,
      "t": 44654.0625,
      "d": 475.3125,
      "v": 57
    },
    {
      "midi": 70,
      "hit": false,
      "t": 44654.0625,
      "d": 475.3125,
      "v": 71
    },
    {
      "midi": 41,
      "hit": false,
      "t": 44890.78125,
      "d": 224.53125,
      "v": 56
    },
    {
      "midi": 48,
      "hit": false,
      "t": 44890.78125,
      "d": 224.53125,
      "v": 56
    },
    {
      "midi": 53,
      "hit": false,
      "t": 44890.78125,
      "d": 224.53125,
      "v": 66
    },
    {
      "midi": 65,
      "hit": false,
      "t": 45129.84375,
      "d": 475.3125,
      "v": 59
    },
    {
      "midi": 68,
      "hit": false,
      "t": 45129.84375,
      "d": 475.3125,
      "v": 73
    },
    {
      "midi": 39,
      "hit": false,
      "t": 45129.84375,
      "d": 224.53125,
      "v": 66
    },
    {
      "midi": 39,
      "hit": false,
      "t": 45368.90625,
      "d": 222.1875,
      "v": 55
    },
    {
      "midi": 48,
      "hit": false,
      "t": 45368.90625,
      "d": 222.1875,
      "v": 56
    },
    {
      "midi": 53,
      "hit": false,
      "t": 45368.90625,
      "d": 222.1875,
      "v": 66
    },
    {
      "midi": 64,
      "hit": false,
      "t": 45605.625,
      "d": 473.90625,
      "v": 57
    },
    {
      "midi": 67,
      "hit": false,
      "t": 45605.625,
      "d": 473.90625,
      "v": 71
    },
    {
      "midi": 39,
      "hit": false,
      "t": 45842.34375,
      "d": 223.125,
      "v": 55
    },
    {
      "midi": 48,
      "hit": false,
      "t": 45842.34375,
      "d": 223.125,
      "v": 56
    },
    {
      "midi": 53,
      "hit": false,
      "t": 45842.34375,
      "d": 223.125,
      "v": 66
    },
    {
      "midi": 60,
      "hit": false,
      "t": 46081.875,
      "d": 239.53125,
      "v": 69
    },
    {
      "midi": 41,
      "hit": false,
      "t": 46081.875,
      "d": 239.53125,
      "v": 69
    },
    {
      "midi": 65,
      "hit": false,
      "t": 46335.9375,
      "d": 474.375,
      "v": 64
    },
    {
      "midi": 41,
      "hit": false,
      "t": 46335.9375,
      "d": 223.59375,
      "v": 56
    },
    {
      "midi": 48,
      "hit": false,
      "t": 46335.9375,
      "d": 223.59375,
      "v": 56
    },
    {
      "midi": 53,
      "hit": false,
      "t": 46335.9375,
      "d": 223.59375,
      "v": 66
    },
    {
      "midi": 67,
      "hit": false,
      "t": 46810.78125,
      "d": 224.53125,
      "v": 64
    },
    {
      "midi": 41,
      "hit": false,
      "t": 46810.78125,
      "d": 224.53125,
      "v": 56
    },
    {
      "midi": 48,
      "hit": false,
      "t": 46810.78125,
      "d": 224.53125,
      "v": 56
    },
    {
      "midi": 53,
      "hit": false,
      "t": 46810.78125,
      "d": 224.53125,
      "v": 66
    },
    {
      "midi": 68,
      "hit": false,
      "t": 47049.84375,
      "d": 475.3125,
      "v": 67
    },
    {
      "midi": 37,
      "hit": false,
      "t": 47049.84375,
      "d": 224.53125,
      "v": 66
    },
    {
      "midi": 37,
      "hit": false,
      "t": 47288.90625,
      "d": 222.1875,
      "v": 55
    },
    {
      "midi": 44,
      "hit": false,
      "t": 47288.90625,
      "d": 222.1875,
      "v": 56
    },
    {
      "midi": 49,
      "hit": false,
      "t": 47288.90625,
      "d": 222.1875,
      "v": 66
    },
    {
      "midi": 70,
      "hit": false,
      "t": 47525.625,
      "d": 352.5,
      "v": 65
    },
    {
      "midi": 37,
      "hit": false,
      "t": 47762.34375,
      "d": 223.125,
      "v": 55
    },
    {
      "midi": 44,
      "hit": false,
      "t": 47762.34375,
      "d": 223.125,
      "v": 56
    },
    {
      "midi": 49,
      "hit": false,
      "t": 47762.34375,
      "d": 223.125,
      "v": 66
    },
    {
      "midi": 68,
      "hit": false,
      "t": 47878.59375,
      "d": 113.90625,
      "v": 64
    },
    {
      "midi": 72,
      "hit": false,
      "t": 48001.875,
      "d": 491.71875,
      "v": 69
    },
    {
      "midi": 44,
      "hit": false,
      "t": 48001.875,
      "d": 239.53125,
      "v": 69
    },
    {
      "midi": 44,
      "hit": false,
      "t": 48255.9375,
      "d": 223.59375,
      "v": 56
    },
    {
      "midi": 51,
      "hit": false,
      "t": 48255.9375,
      "d": 223.59375,
      "v": 56
    },
    {
      "midi": 56,
      "hit": false,
      "t": 48255.9375,
      "d": 223.59375,
      "v": 66
    },
    {
      "midi": 70,
      "hit": false,
      "t": 48494.0625,
      "d": 352.5,
      "v": 65
    },
    {
      "midi": 44,
      "hit": false,
      "t": 48730.78125,
      "d": 224.53125,
      "v": 56
    },
    {
      "midi": 51,
      "hit": false,
      "t": 48730.78125,
      "d": 224.53125,
      "v": 56
    },
    {
      "midi": 56,
      "hit": false,
      "t": 48730.78125,
      "d": 224.53125,
      "v": 66
    },
    {
      "midi": 71,
      "hit": false,
      "t": 48847.03125,
      "d": 115.3125,
      "v": 64
    },
    {
      "midi": 70,
      "hit": false,
      "t": 48969.84375,
      "d": 60.46875,
      "v": 67
    },
    {
      "midi": 39,
      "hit": false,
      "t": 48969.84375,
      "d": 224.53125,
      "v": 66
    },
    {
      "midi": 68,
      "hit": false,
      "t": 49034.0625,
      "d": 55.3125,
      "v": 64
    },
    {
      "midi": 67,
      "hit": false,
      "t": 49093.125,
      "d": 108.28125,
      "v": 64
    },
    {
      "midi": 67,
      "hit": false,
      "t": 49208.90625,
      "d": 465.9375,
      "v": 64
    },
    {
      "midi": 39,
      "hit": false,
      "t": 49208.90625,
      "d": 222.1875,
      "v": 55
    },
    {
      "midi": 46,
      "hit": false,
      "t": 49208.90625,
      "d": 222.1875,
      "v": 56
    },
    {
      "midi": 51,
      "hit": false,
      "t": 49208.90625,
      "d": 222.1875,
      "v": 66
    },
    {
      "midi": 67,
      "hit": false,
      "t": 49682.34375,
      "d": 223.125,
      "v": 64
    },
    {
      "midi": 39,
      "hit": false,
      "t": 49682.34375,
      "d": 223.125,
      "v": 55
    },
    {
      "midi": 46,
      "hit": false,
      "t": 49682.34375,
      "d": 223.125,
      "v": 56
    },
    {
      "midi": 51,
      "hit": false,
      "t": 49682.34375,
      "d": 223.125,
      "v": 66
    },
    {
      "midi": 61,
      "hit": false,
      "t": 49921.875,
      "d": 491.71875,
      "v": 61
    },
    {
      "midi": 65,
      "hit": false,
      "t": 49921.875,
      "d": 491.71875,
      "v": 75
    },
    {
      "midi": 37,
      "hit": false,
      "t": 49921.875,
      "d": 239.53125,
      "v": 68
    },
    {
      "midi": 37,
      "hit": false,
      "t": 50175.9375,
      "d": 223.59375,
      "v": 55
    },
    {
      "midi": 44,
      "hit": false,
      "t": 50175.9375,
      "d": 223.59375,
      "v": 56
    },
    {
      "midi": 49,
      "hit": false,
      "t": 50175.9375,
      "d": 223.59375,
      "v": 66
    },
    {
      "midi": 68,
      "hit": false,
      "t": 50414.0625,
      "d": 475.3125,
      "v": 57
    },
    {
      "midi": 72,
      "hit": false,
      "t": 50414.0625,
      "d": 475.3125,
      "v": 71
    },
    {
      "midi": 37,
      "hit": false,
      "t": 50650.78125,
      "d": 224.53125,
      "v": 55
    },
    {
      "midi": 44,
      "hit": false,
      "t": 50650.78125,
      "d": 224.53125,
      "v": 56
    },
    {
      "midi": 49,
      "hit": false,
      "t": 50650.78125,
      "d": 224.53125,
      "v": 66
    },
    {
      "midi": 63,
      "hit": false,
      "t": 50889.84375,
      "d": 712.03125,
      "v": 59
    },
    {
      "midi": 67,
      "hit": false,
      "t": 50889.84375,
      "d": 712.03125,
      "v": 73
    },
    {
      "midi": 39,
      "hit": false,
      "t": 50889.84375,
      "d": 224.53125,
      "v": 66
    },
    {
      "midi": 39,
      "hit": false,
      "t": 51128.90625,
      "d": 222.1875,
      "v": 55
    },
    {
      "midi": 46,
      "hit": false,
      "t": 51128.90625,
      "d": 222.1875,
      "v": 56
    },
    {
      "midi": 51,
      "hit": false,
      "t": 51128.90625,
      "d": 222.1875,
      "v": 66
    },
    {
      "midi": 67,
      "hit": false,
      "t": 51602.34375,
      "d": 223.125,
      "v": 64
    },
    {
      "midi": 39,
      "hit": false,
      "t": 51602.34375,
      "d": 223.125,
      "v": 55
    },
    {
      "midi": 46,
      "hit": false,
      "t": 51602.34375,
      "d": 223.125,
      "v": 56
    },
    {
      "midi": 51,
      "hit": false,
      "t": 51602.34375,
      "d": 223.125,
      "v": 66
    },
    {
      "midi": 61,
      "hit": false,
      "t": 51841.875,
      "d": 239.53125,
      "v": 61
    },
    {
      "midi": 65,
      "hit": false,
      "t": 51841.875,
      "d": 239.53125,
      "v": 75
    },
    {
      "midi": 37,
      "hit": false,
      "t": 51841.875,
      "d": 239.53125,
      "v": 68
    },
    {
      "midi": 68,
      "hit": false,
      "t": 52095.9375,
      "d": 223.59375,
      "v": 56
    },
    {
      "midi": 72,
      "hit": false,
      "t": 52095.9375,
      "d": 223.59375,
      "v": 70
    },
    {
      "midi": 37,
      "hit": false,
      "t": 52095.9375,
      "d": 223.59375,
      "v": 55
    },
    {
      "midi": 44,
      "hit": false,
      "t": 52095.9375,
      "d": 223.59375,
      "v": 56
    },
    {
      "midi": 49,
      "hit": false,
      "t": 52095.9375,
      "d": 223.59375,
      "v": 66
    },
    {
      "midi": 72,
      "hit": false,
      "t": 52570.78125,
      "d": 54.375,
      "v": 64
    },
    {
      "midi": 61,
      "hit": false,
      "t": 52570.78125,
      "d": 224.53125,
      "v": 64
    },
    {
      "midi": 37,
      "hit": false,
      "t": 52570.78125,
      "d": 224.53125,
      "v": 55
    },
    {
      "midi": 44,
      "hit": false,
      "t": 52570.78125,
      "d": 224.53125,
      "v": 56
    },
    {
      "midi": 49,
      "hit": false,
      "t": 52570.78125,
      "d": 224.53125,
      "v": 66
    },
    {
      "midi": 71,
      "hit": false,
      "t": 52628.90625,
      "d": 54.375,
      "v": 64
    },
    {
      "midi": 70,
      "hit": false,
      "t": 52687.03125,
      "d": 54.84375,
      "v": 64
    },
    {
      "midi": 68,
      "hit": false,
      "t": 52745.625,
      "d": 60.46875,
      "v": 64
    },
    {
      "midi": 63,
      "hit": false,
      "t": 52809.84375,
      "d": 712.03125,
      "v": 59
    },
    {
      "midi": 67,
      "hit": false,
      "t": 52809.84375,
      "d": 712.03125,
      "v": 69
    },
    {
      "midi": 39,
      "hit": false,
      "t": 52809.84375,
      "d": 224.53125,
      "v": 66
    },
    {
      "midi": 39,
      "hit": false,
      "t": 53048.90625,
      "d": 222.1875,
      "v": 55
    },
    {
      "midi": 46,
      "hit": false,
      "t": 53048.90625,
      "d": 222.1875,
      "v": 56
    },
    {
      "midi": 51,
      "hit": false,
      "t": 53048.90625,
      "d": 222.1875,
      "v": 66
    },
    {
      "midi": 63,
      "hit": false,
      "t": 53522.34375,
      "d": 223.125,
      "v": 56
    },
    {
      "midi": 67,
      "hit": false,
      "t": 53522.34375,
      "d": 223.125,
      "v": 66
    },
    {
      "midi": 39,
      "hit": false,
      "t": 53522.34375,
      "d": 223.125,
      "v": 55
    },
    {
      "midi": 46,
      "hit": false,
      "t": 53522.34375,
      "d": 223.125,
      "v": 56
    },
    {
      "midi": 51,
      "hit": false,
      "t": 53522.34375,
      "d": 223.125,
      "v": 66
    }
  ]
}