{
  "jsonPath": "Soundtracks/Video Game Music/Legend of Mana/legend-of-mana-joyfulsong.json",
  "path": "Soundtracks\\Video Game Music\\Legend of Mana\\Legend_of_Mana_JoyfulSong.mid",
  "name": "Legend_of_Mana_JoyfulSong",
  "difficulty": "Advanced",
  "bpm": 120,
  "notes": [
    {
      "midi": 57,
      "hit": false,
      "t": 0,
      "d": 992.7083333333334,
      "v": 96
    },
    {
      "midi": 76,
      "hit": false,
      "t": 250,
      "d": 117.70833333333331,
      "v": 96
    },
    {
      "midi": 73,
      "hit": false,
      "t": 250,
      "d": 117.70833333333331,
      "v": 96
    },
    {
      "midi": 74,
      "hit": false,
      "t": 375,
      "d": 117.70833333333331,
      "v": 96
    },
    {
      "midi": 78,
      "hit": false,
      "t": 375,
      "d": 117.70833333333331,
      "v": 96
    },
    {
      "midi": 73,
      "hit": false,
      "t": 500,
      "d": 242.70833333333337,
      "v": 96
    },
    {
      "midi": 76,
      "hit": false,
      "t": 500,
      "d": 242.70833333333337,
      "v": 96
    },
    {
      "midi": 71,
      "hit": false,
      "t": 750,
      "d": 242.70833333333337,
      "v": 96
    },
    {
      "midi": 74,
      "hit": false,
      "t": 750,
      "d": 242.70833333333337,
      "v": 96
    },
    {
      "midi": 73,
      "hit": false,
      "t": 1000,
      "d": 242.70833333333326,
      "v": 96
    },
    {
      "midi": 76,
      "hit": false,
      "t": 1000,
      "d": 242.70833333333326,
      "v": 96
    },
    {
      "midi": 52,
      "hit": false,
      "t": 1000,
      "d": 992.7083333333335,
      "v": 96
    },
    {
      "midi": 69,
      "hit": false,
      "t": 1250,
      "d": 242.70833333333326,
      "v": 96
    },
    {
      "midi": 73,
      "hit": false,
      "t": 1250,
      "d": 242.70833333333326,
      "v": 96
    },
    {
      "midi": 71,
      "hit": false,
      "t": 1500,
      "d": 242.70833333333326,
      "v": 96
    },
    {
      "midi": 74,
      "hit": false,
      "t": 1500,
      "d": 242.70833333333326,
      "v": 96
    },
    {
      "midi": 69,
      "hit": false,
      "t": 1750,
      "d": 242.70833333333326,
      "v": 96
    },
    {
      "midi": 73,
      "hit": false,
      "t": 1750,
      "d": 242.70833333333326,
      "v": 96
    },
    {
      "midi": 67,
      "hit": false,
      "t": 2000,
      "d": 242.70833333333348,
      "v": 96
    },
    {
      "midi": 71,
      "hit": false,
      "t": 2000,
      "d": 242.70833333333348,
      "v": 96
    },
    {
      "midi": 55,
      "hit": false,
      "t": 2000.0000000000002,
      "d": 992.7083333333333,
      "v": 96
    },
    {
      "midi": 74,
      "hit": false,
      "t": 2250,
      "d": 242.70833333333348,
      "v": 96
    },
    {
      "midi": 71,
      "hit": false,
      "t": 2250,
      "d": 242.70833333333348,
      "v": 96
    },
    {
      "midi": 79,
      "hit": false,
      "t": 2500,
      "d": 1492.708333333333,
      "v": 96
    },
    {
      "midi": 74,
      "hit": false,
      "t": 2500,
      "d": 1492.708333333333,
      "v": 96
    },
    {
      "midi": 50,
      "hit": false,
      "t": 3000,
      "d": 992.7083333333335,
      "v": 96
    },
    {
      "midi": 57,
      "hit": false,
      "t": 4000,
      "d": 992.708333333333,
      "v": 96
    },
    {
      "midi": 76,
      "hit": false,
      "t": 4250,
      "d": 117.70833333333303,
      "v": 96
    },
    {
      "midi": 73,
      "hit": false,
      "t": 4250,
      "d": 117.70833333333303,
      "v": 96
    },
    {
      "midi": 74,
      "hit": false,
      "t": 4375,
      "d": 117.70833333333303,
      "v": 96
    },
    {
      "midi": 78,
      "hit": false,
      "t": 4375,
      "d": 117.70833333333303,
      "v": 96
    },
    {
      "midi": 73,
      "hit": false,
      "t": 4500,
      "d": 242.70833333333303,
      "v": 96
    },
    {
      "midi": 76,
      "hit": false,
      "t": 4500,
      "d": 242.70833333333303,
      "v": 96
    },
    {
      "midi": 71,
      "hit": false,
      "t": 4750,
      "d": 242.70833333333303,
      "v": 96
    },
    {
      "midi": 74,
      "hit": false,
      "t": 4750,
      "d": 242.70833333333303,
      "v": 96
    },
    {
      "midi": 73,
      "hit": false,
      "t": 5000,
      "d": 242.70833333333303,
      "v": 96
    },
    {
      "midi": 76,
      "hit": false,
      "t": 5000,
      "d": 242.70833333333303,
      "v": 96
    },
    {
      "midi": 52,
      "hit": false,
      "t": 5000,
      "d": 992.708333333333,
      "v": 96
    },
    {
      "midi": 69,
      "hit": false,
      "t": 5250,
      "d": 242.70833333333303,
      "v": 96
    },
    {
      "midi": 73,
      "hit": false,
      "t": 5250,
      "d": 242.70833333333303,
      "v": 96
    },
    {
      "midi": 71,
      "hit": false,
      "t": 5500,
      "d": 242.70833333333303,
      "v": 96
    },
    {
      "midi": 74,
      "hit": false,
      "t": 5500,
      "d": 242.70833333333303,
      "v": 96
    },
    {
      "midi": 69,
      "hit": false,
      "t": 5750,
      "d": 242.70833333333303,
      "v": 96
    },
    {
      "midi": 73,
      "hit": false,
      "t": 5750,
      "d": 242.70833333333303,
      "v": 96
    },
    {
      "midi": 67,
      "hit": false,
      "t": 6000,
      "d": 242.70833333333303,
      "v": 96
    },
    {
      "midi": 71,
      "hit": false,
      "t": 6000,
      "d": 242.70833333333303,
      "v": 96
    },
    {
      "midi": 55,
      "hit": false,
      "t": 6000,
      "d": 992.708333333333,
      "v": 96
    },
    {
      "midi": 71,
      "hit": false,
      "t": 6250,
      "d": 242.70833333333303,
      "v": 96
    },
    {
      "midi": 74,
      "hit": false,
      "t": 6250,
      "d": 242.70833333333303,
      "v": 96
    },
    {
      "midi": 79,
      "hit": false,
      "t": 6500,
      "d": 1492.708333333333,
      "v": 96
    },
    {
      "midi": 83,
      "hit": false,
      "t": 6500,
      "d": 1492.708333333333,
      "v": 96
    },
    {
      "midi": 50,
      "hit": false,
      "t": 7000,
      "d": 992.708333333333,
      "v": 96
    },
    {
      "midi": 53,
      "hit": false,
      "t": 8000,
      "d": 992.7083333333339,
      "v": 96
    },
    {
      "midi": 77,
      "hit": false,
      "t": 8250,
      "d": 117.70833333333394,
      "v": 96
    },
    {
      "midi": 81,
      "hit": false,
      "t": 8250,
      "d": 117.70833333333394,
      "v": 96
    },
    {
      "midi": 79,
      "hit": false,
      "t": 8375,
      "d": 117.70833333333394,
      "v": 96
    },
    {
      "midi": 83,
      "hit": false,
      "t": 8375,
      "d": 117.70833333333394,
      "v": 96
    },
    {
      "midi": 77,
      "hit": false,
      "t": 8500,
      "d": 242.70833333333394,
      "v": 96
    },
    {
      "midi": 81,
      "hit": false,
      "t": 8500,
      "d": 242.70833333333394,
      "v": 96
    },
    {
      "midi": 76,
      "hit": false,
      "t": 8750,
      "d": 242.70833333333394,
      "v": 96
    },
    {
      "midi": 79,
      "hit": false,
      "t": 8750,
      "d": 242.70833333333394,
      "v": 96
    },
    {
      "midi": 77,
      "hit": false,
      "t": 9000,
      "d": 242.70833333333394,
      "v": 96
    },
    {
      "midi": 81,
      "hit": false,
      "t": 9000,
      "d": 242.70833333333394,
      "v": 96
    },
    {
      "midi": 52,
      "hit": false,
      "t": 9000,
      "d": 992.7083333333339,
      "v": 96
    },
    {
      "midi": 75,
      "hit": false,
      "t": 9250,
      "d": 242.70833333333394,
      "v": 96
    },
    {
      "midi": 78,
      "hit": false,
      "t": 9250,
      "d": 242.70833333333394,
      "v": 96
    },
    {
      "midi": 76,
      "hit": false,
      "t": 9500,
      "d": 242.70833333333394,
      "v": 96
    },
    {
      "midi": 79,
      "hit": false,
      "t": 9500,
      "d": 242.70833333333394,
      "v": 96
    },
    {
      "midi": 73,
      "hit": false,
      "t": 9750,
      "d": 242.70833333333394,
      "v": 96
    },
    {
      "midi": 76,
      "hit": false,
      "t": 9750,
      "d": 242.70833333333394,
      "v": 96
    },
    {
      "midi": 75,
      "hit": false,
      "t": 10000,
      "d": 242.70833333333394,
      "v": 96
    },
    {
      "midi": 78,
      "hit": false,
      "t": 10000,
      "d": 242.70833333333394,
      "v": 96
    },
    {
      "midi": 51,
      "hit": false,
      "t": 10000,
      "d": 992.7083333333339,
      "v": 96
    },
    {
      "midi": 71,
      "hit": false,
      "t": 10250,
      "d": 242.70833333333394,
      "v": 96
    },
    {
      "midi": 75,
      "hit": false,
      "t": 10250,
      "d": 242.70833333333394,
      "v": 96
    },
    {
      "midi": 73,
      "hit": false,
      "t": 10500,
      "d": 242.70833333333394,
      "v": 96
    },
    {
      "midi": 76,
      "hit": false,
      "t": 10500,
      "d": 242.70833333333394,
      "v": 96
    },
    {
      "midi": 69,
      "hit": false,
      "t": 10750,
      "d": 242.70833333333394,
      "v": 96
    },
    {
      "midi": 73,
      "hit": false,
      "t": 10750,
      "d": 242.70833333333394,
      "v": 96
    },
    {
      "midi": 64,
      "hit": false,
      "t": 11000,
      "d": 492.70833333333394,
      "v": 96
    },
    {
      "midi": 69,
      "hit": false,
      "t": 11000,
      "d": 492.70833333333394,
      "v": 96
    },
    {
      "midi": 52,
      "hit": false,
      "t": 11000,
      "d": 992.7083333333339,
      "v": 96
    },
    {
      "midi": 81,
      "hit": false,
      "t": 11500,
      "d": 492.70833333333394,
      "v": 96
    },
    {
      "midi": 76,
      "hit": false,
      "t": 11500,
      "d": 492.70833333333394,
      "v": 96
    },
    {
      "midi": 57,
      "hit": false,
      "t": 12000,
      "d": 992.7083333333339,
      "v": 96
    },
    {
      "midi": 76,
      "hit": false,
      "t": 12250,
      "d": 117.70833333333394,
      "v": 96
    },
    {
      "midi": 73,
      "hit": false,
      "t": 12250,
      "d": 117.70833333333394,
      "v": 96
    },
    {
      "midi": 74,
      "hit": false,
      "t": 12375,
      "d": 117.70833333333394,
      "v": 96
    },
    {
      "midi": 78,
      "hit": false,
      "t": 12375,
      "d": 117.70833333333394,
      "v": 96
    },
    {
      "midi": 73,
      "hit": false,
      "t": 12500,
      "d": 242.70833333333394,
      "v": 96
    },
    {
      "midi": 76,
      "hit": false,
      "t": 12500,
      "d": 242.70833333333394,
      "v": 96
    },
    {
      "midi": 71,
      "hit": false,
      "t": 12750,
      "d": 242.70833333333394,
      "v": 96
    },
    {
      "midi": 74,
      "hit": false,
      "t": 12750,
      "d": 242.70833333333394,
      "v": 96
    },
    {
      "midi": 73,
      "hit": false,
      "t": 13000,
      "d": 242.70833333333394,
      "v": 96
    },
    {
      "midi": 76,
      "hit": false,
      "t": 13000,
      "d": 242.70833333333394,
      "v": 96
    },
    {
      "midi": 52,
      "hit": false,
      "t": 13000,
      "d": 992.7083333333339,
      "v": 96
    },
    {
      "midi": 69,
      "hit": false,
      "t": 13250,
      "d": 242.70833333333394,
      "v": 96
    },
    {
      "midi": 73,
      "hit": false,
      "t": 13250,
      "d": 242.70833333333394,
      "v": 96
    },
    {
      "midi": 71,
      "hit": false,
      "t": 13500,
      "d": 242.70833333333394,
      "v": 96
    },
    {
      "midi": 74,
      "hit": false,
      "t": 13500,
      "d": 242.70833333333394,
      "v": 96
    },
    {
      "midi": 69,
      "hit": false,
      "t": 13750,
      "d": 242.70833333333394,
      "v": 96
    },
    {
      "midi": 73,
      "hit": false,
      "t": 13750,
      "d": 242.70833333333394,
      "v": 96
    },
    {
      "midi": 67,
      "hit": false,
      "t": 14000,
      "d": 242.70833333333394,
      "v": 96
    },
    {
      "midi": 71,
      "hit": false,
      "t": 14000,
      "d": 242.70833333333394,
      "v": 96
    },
    {
      "midi": 55,
      "hit": false,
      "t": 14000,
      "d": 992.7083333333339,
      "v": 96
    },
    {
      "midi": 74,
      "hit": false,
      "t": 14250,
      "d": 242.70833333333394,
      "v": 96
    },
    {
      "midi": 71,
      "hit": false,
      "t": 14250,
      "d": 242.70833333333394,
      "v": 96
    },
    {
      "midi": 79,
      "hit": false,
      "t": 14500,
      "d": 1492.708333333334,
      "v": 96
    },
    {
      "midi": 74,
      "hit": false,
      "t": 14500,
      "d": 1492.708333333334,
      "v": 96
    },
    {
      "midi": 50,
      "hit": false,
      "t": 15000,
      "d": 992.7083333333339,
      "v": 96
    },
    {
      "midi": 57,
      "hit": false,
      "t": 16000,
      "d": 992.7083333333321,
      "v": 96
    },
    {
      "midi": 76,
      "hit": false,
      "t": 16250,
      "d": 117.70833333333394,
      "v": 96
    },
    {
      "midi": 73,
      "hit": false,
      "t": 16250,
      "d": 117.70833333333394,
      "v": 96
    },
    {
      "midi": 74,
      "hit": false,
      "t": 16375,
      "d": 117.70833333333212,
      "v": 96
    },
    {
      "midi": 78,
      "hit": false,
      "t": 16375,
      "d": 117.70833333333212,
      "v": 96
    },
    {
      "midi": 73,
      "hit": false,
      "t": 16500,
      "d": 242.70833333333212,
      "v": 96
    },
    {
      "midi": 76,
      "hit": false,
      "t": 16500,
      "d": 242.70833333333212,
      "v": 96
    },
    {
      "midi": 71,
      "hit": false,
      "t": 16750,
      "d": 242.70833333333212,
      "v": 96
    },
    {
      "midi": 74,
      "hit": false,
      "t": 16750,
      "d": 242.70833333333212,
      "v": 96
    },
    {
      "midi": 73,
      "hit": false,
      "t": 17000,
      "d": 242.70833333333212,
      "v": 96
    },
    {
      "midi": 76,
      "hit": false,
      "t": 17000,
      "d": 242.70833333333212,
      "v": 96
    },
    {
      "midi": 52,
      "hit": false,
      "t": 17000,
      "d": 992.7083333333321,
      "v": 96
    },
    {
      "midi": 69,
      "hit": false,
      "t": 17250,
      "d": 242.70833333333212,
      "v": 96
    },
    {
      "midi": 73,
      "hit": false,
      "t": 17250,
      "d": 242.70833333333212,
      "v": 96
    },
    {
      "midi": 71,
      "hit": false,
      "t": 17500,
      "d": 242.70833333333212,
      "v": 96
    },
    {
      "midi": 74,
      "hit": false,
      "t": 17500,
      "d": 242.70833333333212,
      "v": 96
    },
    {
      "midi": 69,
      "hit": false,
      "t": 17750,
      "d": 242.70833333333212,
      "v": 96
    },
    {
      "midi": 73,
      "hit": false,
      "t": 17750,
      "d": 242.70833333333212,
      "v": 96
    },
    {
      "midi": 67,
      "hit": false,
      "t": 18000,
      "d": 242.70833333333212,
      "v": 96
    },
    {
      "midi": 71,
      "hit": false,
      "t": 18000,
      "d": 242.70833333333212,
      "v": 96
    },
    {
      "midi": 55,
      "hit": false,
      "t": 18000,
      "d": 992.7083333333321,
      "v": 96
    },
    {
      "midi": 71,
      "hit": false,
      "t": 18250,
      "d": 242.70833333333212,
      "v": 96
    },
    {
      "midi": 74,
      "hit": false,
      "t": 18250,
      "d": 242.70833333333212,
      "v": 96
    },
    {
      "midi": 79,
      "hit": false,
      "t": 18500,
      "d": 1492.7083333333321,
      "v": 96
    },
    {
      "midi": 83,
      "hit": false,
      "t": 18500,
      "d": 1492.7083333333321,
      "v": 96
    },
    {
      "midi": 50,
      "hit": false,
      "t": 19000,
      "d": 992.7083333333321,
      "v": 96
    },
    {
      "midi": 53,
      "hit": false,
      "t": 20000,
      "d": 992.7083333333321,
      "v": 96
    },
    {
      "midi": 81,
      "hit": false,
      "t": 20250,
      "d": 117.70833333333212,
      "v": 96
    },
    {
      "midi": 77,
      "hit": false,
      "t": 20250,
      "d": 117.70833333333212,
      "v": 96
    },
    {
      "midi": 83,
      "hit": false,
      "t": 20375,
      "d": 117.70833333333212,
      "v": 96
    },
    {
      "midi": 79,
      "hit": false,
      "t": 20375,
      "d": 117.70833333333212,
      "v": 96
    },
    {
      "midi": 77,
      "hit": false,
      "t": 20500,
      "d": 242.70833333333212,
      "v": 96
    },
    {
      "midi": 81,
      "hit": false,
      "t": 20500,
      "d": 242.70833333333212,
      "v": 96
    },
    {
      "midi": 76,
      "hit": false,
      "t": 20750,
      "d": 242.70833333333212,
      "v": 96
    },
    {
      "midi": 79,
      "hit": false,
      "t": 20750,
      "d": 242.70833333333212,
      "v": 96
    },
    {
      "midi": 77,
      "hit": false,
      "t": 21000,
      "d": 242.70833333333212,
      "v": 96
    },
    {
      "midi": 81,
      "hit": false,
      "t": 21000,
      "d": 242.70833333333212,
      "v": 96
    },
    {
      "midi": 55,
      "hit": false,
      "t": 21000,
      "d": 992.7083333333321,
      "v": 96
    },
    {
      "midi": 79,
      "hit": false,
      "t": 21250,
      "d": 242.70833333333212,
      "v": 96
    },
    {
      "midi": 83,
      "hit": false,
      "t": 21250,
      "d": 242.70833333333212,
      "v": 96
    },
    {
      "midi": 84,
      "hit": false,
      "t": 21500,
      "d": 242.70833333333212,
      "v": 96
    },
    {
      "midi": 81,
      "hit": false,
      "t": 21500,
      "d": 242.70833333333212,
      "v": 96
    },
    {
      "midi": 83,
      "hit": false,
      "t": 21750,
      "d": 242.70833333333212,
      "v": 96
    },
    {
      "midi": 86,
      "hit": false,
      "t": 21750,
      "d": 242.70833333333212,
      "v": 96
    },
    {
      "midi": 88,
      "hit": false,
      "t": 22000,
      "d": 242.70833333333212,
      "v": 96
    },
    {
      "midi": 84,
      "hit": false,
      "t": 22000,
      "d": 242.70833333333212,
      "v": 96
    },
    {
      "midi": 60,
      "hit": false,
      "t": 22000,
      "d": 992.7083333333321,
      "v": 96
    },
    {
      "midi": 83,
      "hit": false,
      "t": 22250,
      "d": 242.70833333333212,
      "v": 96
    },
    {
      "midi": 86,
      "hit": false,
      "t": 22250,
      "d": 242.70833333333212,
      "v": 96
    },
    {
      "midi": 81,
      "hit": false,
      "t": 22500,
      "d": 242.70833333333212,
      "v": 96
    },
    {
      "midi": 84,
      "hit": false,
      "t": 22500,
      "d": 242.70833333333212,
      "v": 96
    },
    {
      "midi": 79,
      "hit": false,
      "t": 22750,
      "d": 242.70833333333212,
      "v": 96
    },
    {
      "midi": 83,
      "hit": false,
      "t": 22750,
      "d": 242.70833333333212,
      "v": 96
    },
    {
      "midi": 77,
      "hit": false,
      "t": 23000,
      "d": 492.7083333333321,
      "v": 96
    },
    {
      "midi": 81,
      "hit": false,
      "t": 23000,
      "d": 492.7083333333321,
      "v": 96
    },
    {
      "midi": 53,
      "hit": false,
      "t": 23000,
      "d": 992.7083333333321,
      "v": 96
    },
    {
      "midi": 83,
      "hit": false,
      "t": 23500,
      "d": 242.70833333333212,
      "v": 96
    },
    {
      "midi": 79,
      "hit": false,
      "t": 23500,
      "d": 242.70833333333212,
      "v": 96
    },
    {
      "midi": 84,
      "hit": false,
      "t": 23750,
      "d": 242.70833333333212,
      "v": 96
    },
    {
      "midi": 81,
      "hit": false,
      "t": 23750,
      "d": 242.70833333333212,
      "v": 96
    },
    {
      "midi": 55,
      "hit": false,
      "t": 24000,
      "d": 992.7083333333321,
      "v": 96
    },
    {
      "midi": 86,
      "hit": false,
      "t": 24250,
      "d": 117.70833333333212,
      "v": 96
    },
    {
      "midi": 83,
      "hit": false,
      "t": 24250,
      "d": 117.70833333333212,
      "v": 96
    },
    {
      "midi": 85,
      "hit": false,
      "t": 24375,
      "d": 117.70833333333212,
      "v": 96
    },
    {
      "midi": 88,
      "hit": false,
      "t": 24375,
      "d": 117.70833333333212,
      "v": 96
    },
    {
      "midi": 83,
      "hit": false,
      "t": 24500,
      "d": 242.70833333333212,
      "v": 96
    },
    {
      "midi": 86,
      "hit": false,
      "t": 24500,
      "d": 242.70833333333212,
      "v": 96
    },
    {
      "midi": 81,
      "hit": false,
      "t": 24750,
      "d": 242.70833333333212,
      "v": 96
    },
    {
      "midi": 85,
      "hit": false,
      "t": 24750,
      "d": 242.70833333333212,
      "v": 96
    },
    {
      "midi": 83,
      "hit": false,
      "t": 25000,
      "d": 242.70833333333212,
      "v": 96
    },
    {
      "midi": 86,
      "hit": false,
      "t": 25000,
      "d": 242.70833333333212,
      "v": 96
    },
    {
      "midi": 55,
      "hit": false,
      "t": 25000,
      "d": 992.7083333333321,
      "v": 96
    },
    {
      "midi": 81,
      "hit": false,
      "t": 25250,
      "d": 242.70833333333212,
      "v": 96
    },
    {
      "midi": 85,
      "hit": false,
      "t": 25250,
      "d": 242.70833333333212,
      "v": 96
    },
    {
      "midi": 79,
      "hit": false,
      "t": 25500,
      "d": 242.70833333333212,
      "v": 96
    },
    {
      "midi": 83,
      "hit": false,
      "t": 25500,
      "d": 242.70833333333212,
      "v": 96
    },
    {
      "midi": 76,
      "hit": false,
      "t": 25750,
      "d": 242.70833333333212,
      "v": 96
    },
    {
      "midi": 79,
      "hit": false,
      "t": 25750,
      "d": 242.70833333333212,
      "v": 96
    },
    {
      "midi": 73,
      "hit": false,
      "t": 26000,
      "d": 242.70833333333212,
      "v": 96
    },
    {
      "midi": 81,
      "hit": false,
      "t": 26000,
      "d": 242.70833333333212,
      "v": 96
    },
    {
      "midi": 57,
      "hit": false,
      "t": 26000,
      "d": 1992.7083333333321,
      "v": 96
    },
    {
      "midi": 69,
      "hit": false,
      "t": 26250,
      "d": 242.70833333333212,
      "v": 96
    },
    {
      "midi": 71,
      "hit": false,
      "t": 26500,
      "d": 242.70833333333212,
      "v": 96
    },
    {
      "midi": 73,
      "hit": false,
      "t": 26750,
      "d": 242.70833333333212,
      "v": 96
    },
    {
      "midi": 76,
      "hit": false,
      "t": 27000,
      "d": 992.7083333333321,
      "v": 96
    }
  ]
}