{
  "jsonPath": "Soundtracks/Video Game Music/Legend of Mana/legend-of-mana-hometowndomina.json",
  "path": "Soundtracks\\Video Game Music\\Legend of Mana\\Legend_of_Mana_HometownDomina.mid",
  "name": "Legend_of_Mana_HometownDomina",
  "difficulty": "Advanced",
  "bpm": 115.00002875000719,
  "notes": [
    {
      "midi": 78,
      "hit": false,
      "t": 0,
      "d": 260.8695,
      "v": 110
    },
    {
      "midi": 80,
      "hit": false,
      "t": 260.8695,
      "d": 260.8695,
      "v": 110
    },
    {
      "midi": 42,
      "hit": false,
      "t": 521.739,
      "d": 260.8695,
      "v": 100
    },
    {
      "midi": 81,
      "hit": false,
      "t": 521.739,
      "d": 782.6084999999998,
      "v": 110
    },
    {
      "midi": 49,
      "hit": false,
      "t": 782.6085,
      "d": 260.8695,
      "v": 100
    },
    {
      "midi": 54,
      "hit": false,
      "t": 1043.478,
      "d": 260.8695,
      "v": 100
    },
    {
      "midi": 57,
      "hit": false,
      "t": 1043.478,
      "d": 260.8695,
      "v": 100
    },
    {
      "midi": 49,
      "hit": false,
      "t": 1304.3475,
      "d": 260.8695,
      "v": 100
    },
    {
      "midi": 83,
      "hit": false,
      "t": 1434.7822499999997,
      "d": 65.21737499999995,
      "v": 110
    },
    {
      "midi": 85,
      "hit": false,
      "t": 1499.9996249999997,
      "d": 65.21737499999995,
      "v": 110
    },
    {
      "midi": 83,
      "hit": false,
      "t": 1565.2169999999996,
      "d": 521.739,
      "v": 110
    },
    {
      "midi": 47,
      "hit": false,
      "t": 1565.217,
      "d": 260.8695,
      "v": 100
    },
    {
      "midi": 54,
      "hit": false,
      "t": 1826.0865000000001,
      "d": 260.8695,
      "v": 100
    },
    {
      "midi": 81,
      "hit": false,
      "t": 2086.9559999999997,
      "d": 260.86950000000024,
      "v": 110
    },
    {
      "midi": 59,
      "hit": false,
      "t": 2086.956,
      "d": 260.8694999999998,
      "v": 100
    },
    {
      "midi": 62,
      "hit": false,
      "t": 2086.956,
      "d": 260.8694999999998,
      "v": 100
    },
    {
      "midi": 54,
      "hit": false,
      "t": 2347.8255,
      "d": 260.8694999999998,
      "v": 100
    },
    {
      "midi": 80,
      "hit": false,
      "t": 2347.8255,
      "d": 260.8694999999998,
      "v": 110
    },
    {
      "midi": 40,
      "hit": false,
      "t": 2608.6949999999997,
      "d": 260.8694999999998,
      "v": 100
    },
    {
      "midi": 78,
      "hit": false,
      "t": 2608.6949999999997,
      "d": 521.739,
      "v": 110
    },
    {
      "midi": 47,
      "hit": false,
      "t": 2869.5644999999995,
      "d": 260.8694999999998,
      "v": 100
    },
    {
      "midi": 52,
      "hit": false,
      "t": 3130.4339999999993,
      "d": 260.8694999999998,
      "v": 100
    },
    {
      "midi": 56,
      "hit": false,
      "t": 3130.4339999999993,
      "d": 260.8694999999998,
      "v": 100
    },
    {
      "midi": 76,
      "hit": false,
      "t": 3130.4339999999997,
      "d": 521.739,
      "v": 110
    },
    {
      "midi": 47,
      "hit": false,
      "t": 3391.303499999999,
      "d": 260.8694999999998,
      "v": 100
    },
    {
      "midi": 45,
      "hit": false,
      "t": 3652.172999999999,
      "d": 260.8694999999998,
      "v": 100
    },
    {
      "midi": 73,
      "hit": false,
      "t": 3652.173,
      "d": 782.6085000000003,
      "v": 110
    },
    {
      "midi": 52,
      "hit": false,
      "t": 3913.0424999999987,
      "d": 260.8694999999998,
      "v": 100
    },
    {
      "midi": 57,
      "hit": false,
      "t": 4173.911999999998,
      "d": 260.8694999999998,
      "v": 100
    },
    {
      "midi": 61,
      "hit": false,
      "t": 4173.911999999998,
      "d": 260.8694999999998,
      "v": 100
    },
    {
      "midi": 52,
      "hit": false,
      "t": 4434.781499999998,
      "d": 260.8694999999998,
      "v": 100
    },
    {
      "midi": 73,
      "hit": false,
      "t": 4434.7815,
      "d": 260.8694999999998,
      "v": 110
    },
    {
      "midi": 38,
      "hit": false,
      "t": 4695.650999999998,
      "d": 260.8694999999998,
      "v": 100
    },
    {
      "midi": 71,
      "hit": false,
      "t": 4695.651,
      "d": 260.8694999999998,
      "v": 110
    },
    {
      "midi": 45,
      "hit": false,
      "t": 4956.520499999998,
      "d": 260.8694999999998,
      "v": 100
    },
    {
      "midi": 73,
      "hit": false,
      "t": 4956.5205,
      "d": 260.8694999999998,
      "v": 110
    },
    {
      "midi": 50,
      "hit": false,
      "t": 5217.389999999998,
      "d": 260.8694999999998,
      "v": 100
    },
    {
      "midi": 54,
      "hit": false,
      "t": 5217.389999999998,
      "d": 260.8694999999998,
      "v": 100
    },
    {
      "midi": 74,
      "hit": false,
      "t": 5217.389999999999,
      "d": 260.8694999999998,
      "v": 110
    },
    {
      "midi": 45,
      "hit": false,
      "t": 5478.259499999997,
      "d": 260.8694999999998,
      "v": 100
    },
    {
      "midi": 78,
      "hit": false,
      "t": 5478.259499999999,
      "d": 260.8694999999998,
      "v": 110
    },
    {
      "midi": 40,
      "hit": false,
      "t": 5739.128999999997,
      "d": 260.8694999999998,
      "v": 100
    },
    {
      "midi": 80,
      "hit": false,
      "t": 5739.128999999999,
      "d": 521.7389999999996,
      "v": 110
    },
    {
      "midi": 47,
      "hit": false,
      "t": 5999.998499999997,
      "d": 260.8694999999998,
      "v": 100
    },
    {
      "midi": 52,
      "hit": false,
      "t": 6260.867999999997,
      "d": 260.8694999999998,
      "v": 100
    },
    {
      "midi": 56,
      "hit": false,
      "t": 6260.867999999997,
      "d": 260.8694999999998,
      "v": 100
    },
    {
      "midi": 76,
      "hit": false,
      "t": 6260.867999999999,
      "d": 521.7390000000005,
      "v": 110
    },
    {
      "midi": 47,
      "hit": false,
      "t": 6521.7374999999965,
      "d": 260.8694999999998,
      "v": 100
    },
    {
      "midi": 73,
      "hit": false,
      "t": 6652.172249999999,
      "d": 65.21737500000017,
      "v": 110
    },
    {
      "midi": 74,
      "hit": false,
      "t": 6717.389624999999,
      "d": 65.21737500000017,
      "v": 110
    },
    {
      "midi": 45,
      "hit": false,
      "t": 6782.606999999996,
      "d": 260.8694999999998,
      "v": 100
    },
    {
      "midi": 73,
      "hit": false,
      "t": 6782.606999999999,
      "d": 521.7390000000005,
      "v": 110
    },
    {
      "midi": 52,
      "hit": false,
      "t": 7043.476499999996,
      "d": 260.8694999999998,
      "v": 100
    },
    {
      "midi": 57,
      "hit": false,
      "t": 7304.345999999996,
      "d": 260.8694999999998,
      "v": 100
    },
    {
      "midi": 61,
      "hit": false,
      "t": 7304.345999999996,
      "d": 260.8694999999998,
      "v": 100
    },
    {
      "midi": 71,
      "hit": false,
      "t": 7304.346,
      "d": 521.7389999999996,
      "v": 110
    },
    {
      "midi": 52,
      "hit": false,
      "t": 7565.215499999996,
      "d": 260.8694999999998,
      "v": 100
    },
    {
      "midi": 44,
      "hit": false,
      "t": 7826.0849999999955,
      "d": 260.8694999999998,
      "v": 100
    },
    {
      "midi": 73,
      "hit": false,
      "t": 7826.084999999999,
      "d": 521.7389999999996,
      "v": 110
    },
    {
      "midi": 47,
      "hit": false,
      "t": 8086.954499999995,
      "d": 260.8694999999998,
      "v": 100
    },
    {
      "midi": 50,
      "hit": false,
      "t": 8347.823999999995,
      "d": 260.8695000000007,
      "v": 100
    },
    {
      "midi": 54,
      "hit": false,
      "t": 8347.823999999995,
      "d": 260.8695000000007,
      "v": 100
    },
    {
      "midi": 78,
      "hit": false,
      "t": 8347.823999999999,
      "d": 260.8695000000007,
      "v": 110
    },
    {
      "midi": 47,
      "hit": false,
      "t": 8608.693499999996,
      "d": 260.8695000000007,
      "v": 100
    },
    {
      "midi": 80,
      "hit": false,
      "t": 8608.6935,
      "d": 260.8695000000007,
      "v": 110
    },
    {
      "midi": 42,
      "hit": false,
      "t": 8869.562999999996,
      "d": 260.8695000000007,
      "v": 100
    },
    {
      "midi": 81,
      "hit": false,
      "t": 8869.563,
      "d": 782.6085000000003,
      "v": 110
    },
    {
      "midi": 49,
      "hit": false,
      "t": 9130.432499999997,
      "d": 260.8695000000007,
      "v": 100
    },
    {
      "midi": 54,
      "hit": false,
      "t": 9391.301999999998,
      "d": 260.8695000000007,
      "v": 100
    },
    {
      "midi": 57,
      "hit": false,
      "t": 9391.301999999998,
      "d": 260.8695000000007,
      "v": 100
    },
    {
      "midi": 49,
      "hit": false,
      "t": 9652.171499999999,
      "d": 260.8695000000007,
      "v": 100
    },
    {
      "midi": 83,
      "hit": false,
      "t": 9782.60625,
      "d": 65.21737500000017,
      "v": 110
    },
    {
      "midi": 85,
      "hit": false,
      "t": 9847.823625,
      "d": 65.21737500000017,
      "v": 110
    },
    {
      "midi": 47,
      "hit": false,
      "t": 9913.041,
      "d": 260.8695000000007,
      "v": 100
    },
    {
      "midi": 83,
      "hit": false,
      "t": 9913.041000000001,
      "d": 521.7389999999996,
      "v": 110
    },
    {
      "midi": 54,
      "hit": false,
      "t": 10173.9105,
      "d": 260.8695000000007,
      "v": 100
    },
    {
      "midi": 59,
      "hit": false,
      "t": 10434.78,
      "d": 260.8695000000007,
      "v": 100
    },
    {
      "midi": 62,
      "hit": false,
      "t": 10434.78,
      "d": 260.8695000000007,
      "v": 100
    },
    {
      "midi": 81,
      "hit": false,
      "t": 10434.78,
      "d": 260.8695000000007,
      "v": 110
    },
    {
      "midi": 54,
      "hit": false,
      "t": 10695.649500000001,
      "d": 260.8695000000007,
      "v": 100
    },
    {
      "midi": 80,
      "hit": false,
      "t": 10695.649500000001,
      "d": 260.8695000000007,
      "v": 110
    },
    {
      "midi": 40,
      "hit": false,
      "t": 10956.519000000002,
      "d": 260.8695000000007,
      "v": 100
    },
    {
      "midi": 78,
      "hit": false,
      "t": 10956.519000000002,
      "d": 521.7389999999996,
      "v": 110
    },
    {
      "midi": 47,
      "hit": false,
      "t": 11217.388500000003,
      "d": 260.8695000000007,
      "v": 100
    },
    {
      "midi": 76,
      "hit": false,
      "t": 11478.258000000002,
      "d": 521.7389999999996,
      "v": 110
    },
    {
      "midi": 52,
      "hit": false,
      "t": 11478.258000000003,
      "d": 260.8695000000007,
      "v": 100
    },
    {
      "midi": 56,
      "hit": false,
      "t": 11478.258000000003,
      "d": 260.8695000000007,
      "v": 100
    },
    {
      "midi": 47,
      "hit": false,
      "t": 11739.127500000004,
      "d": 260.8695000000007,
      "v": 100
    },
    {
      "midi": 73,
      "hit": false,
      "t": 11999.997000000001,
      "d": 782.6085000000003,
      "v": 110
    },
    {
      "midi": 45,
      "hit": false,
      "t": 11999.997000000005,
      "d": 260.8695000000007,
      "v": 100
    },
    {
      "midi": 52,
      "hit": false,
      "t": 12260.866500000006,
      "d": 260.8695000000007,
      "v": 100
    },
    {
      "midi": 57,
      "hit": false,
      "t": 12521.736000000006,
      "d": 260.8695000000007,
      "v": 100
    },
    {
      "midi": 61,
      "hit": false,
      "t": 12521.736000000006,
      "d": 260.8695000000007,
      "v": 100
    },
    {
      "midi": 73,
      "hit": false,
      "t": 12782.605500000001,
      "d": 260.8695000000007,
      "v": 110
    },
    {
      "midi": 52,
      "hit": false,
      "t": 12782.605500000007,
      "d": 260.8695000000007,
      "v": 100
    },
    {
      "midi": 71,
      "hit": false,
      "t": 13043.475000000002,
      "d": 260.8695000000007,
      "v": 110
    },
    {
      "midi": 38,
      "hit": false,
      "t": 13043.475000000008,
      "d": 260.8695000000007,
      "v": 100
    },
    {
      "midi": 73,
      "hit": false,
      "t": 13304.344500000003,
      "d": 260.8695000000007,
      "v": 110
    },
    {
      "midi": 45,
      "hit": false,
      "t": 13304.344500000008,
      "d": 260.8695000000007,
      "v": 100
    },
    {
      "midi": 74,
      "hit": false,
      "t": 13565.214000000004,
      "d": 260.8695000000007,
      "v": 110
    },
    {
      "midi": 50,
      "hit": false,
      "t": 13565.214000000009,
      "d": 260.8695000000007,
      "v": 100
    },
    {
      "midi": 54,
      "hit": false,
      "t": 13565.214000000009,
      "d": 260.8695000000007,
      "v": 100
    },
    {
      "midi": 78,
      "hit": false,
      "t": 13826.083500000004,
      "d": 260.8695000000007,
      "v": 110
    },
    {
      "midi": 45,
      "hit": false,
      "t": 13826.08350000001,
      "d": 260.8695000000007,
      "v": 100
    },
    {
      "midi": 80,
      "hit": false,
      "t": 13956.518250000005,
      "d": 65.21737500000017,
      "v": 110
    },
    {
      "midi": 81,
      "hit": false,
      "t": 14021.735625000005,
      "d": 65.21737500000017,
      "v": 110
    },
    {
      "midi": 80,
      "hit": false,
      "t": 14086.953000000005,
      "d": 521.7389999999996,
      "v": 110
    },
    {
      "midi": 40,
      "hit": false,
      "t": 14086.95300000001,
      "d": 260.8695000000007,
      "v": 100
    },
    {
      "midi": 47,
      "hit": false,
      "t": 14347.822500000011,
      "d": 260.8695000000007,
      "v": 100
    },
    {
      "midi": 78,
      "hit": false,
      "t": 14608.692000000005,
      "d": 260.8695000000007,
      "v": 110
    },
    {
      "midi": 52,
      "hit": false,
      "t": 14608.692000000012,
      "d": 260.8695000000007,
      "v": 100
    },
    {
      "midi": 56,
      "hit": false,
      "t": 14608.692000000012,
      "d": 260.8695000000007,
      "v": 100
    },
    {
      "midi": 76,
      "hit": false,
      "t": 14869.561500000005,
      "d": 260.8695000000007,
      "v": 110
    },
    {
      "midi": 47,
      "hit": false,
      "t": 14869.561500000013,
      "d": 260.8695000000007,
      "v": 100
    },
    {
      "midi": 78,
      "hit": false,
      "t": 15130.431000000006,
      "d": 1565.2169999999987,
      "v": 110
    },
    {
      "midi": 42,
      "hit": false,
      "t": 15130.431000000013,
      "d": 260.8695000000007,
      "v": 100
    },
    {
      "midi": 49,
      "hit": false,
      "t": 15391.300500000014,
      "d": 260.8695000000007,
      "v": 100
    },
    {
      "midi": 54,
      "hit": false,
      "t": 15652.170000000015,
      "d": 260.8695000000007,
      "v": 100
    },
    {
      "midi": 57,
      "hit": false,
      "t": 15652.170000000015,
      "d": 260.8695000000007,
      "v": 100
    },
    {
      "midi": 49,
      "hit": false,
      "t": 15913.039500000015,
      "d": 260.8695000000007,
      "v": 100
    },
    {
      "midi": 49,
      "hit": false,
      "t": 16173.909000000016,
      "d": 1043.478000000001,
      "v": 100
    },
    {
      "midi": 54,
      "hit": false,
      "t": 16173.909000000016,
      "d": 1043.478000000001,
      "v": 100
    },
    {
      "midi": 57,
      "hit": false,
      "t": 16173.909000000016,
      "d": 1043.478000000001,
      "v": 100
    },
    {
      "midi": 78,
      "hit": false,
      "t": 16695.648000000005,
      "d": 260.8695000000007,
      "v": 110
    },
    {
      "midi": 81,
      "hit": false,
      "t": 16695.648000000005,
      "d": 260.8695000000007,
      "v": 110
    },
    {
      "midi": 76,
      "hit": false,
      "t": 16956.517500000005,
      "d": 260.8695000000007,
      "v": 110
    },
    {
      "midi": 80,
      "hit": false,
      "t": 16956.517500000005,
      "d": 260.8695000000007,
      "v": 110
    },
    {
      "midi": 74,
      "hit": false,
      "t": 17217.387000000006,
      "d": 260.8695000000007,
      "v": 110
    },
    {
      "midi": 78,
      "hit": false,
      "t": 17217.387000000006,
      "d": 260.8695000000007,
      "v": 110
    },
    {
      "midi": 47,
      "hit": false,
      "t": 17217.387000000017,
      "d": 260.8695000000007,
      "v": 100
    },
    {
      "midi": 76,
      "hit": false,
      "t": 17478.256500000007,
      "d": 260.8695000000007,
      "v": 110
    },
    {
      "midi": 80,
      "hit": false,
      "t": 17478.256500000007,
      "d": 260.8695000000007,
      "v": 110
    },
    {
      "midi": 54,
      "hit": false,
      "t": 17478.256500000018,
      "d": 260.8695000000007,
      "v": 100
    },
    {
      "midi": 78,
      "hit": false,
      "t": 17739.126000000007,
      "d": 260.8695000000007,
      "v": 110
    },
    {
      "midi": 81,
      "hit": false,
      "t": 17739.126000000007,
      "d": 260.8695000000007,
      "v": 110
    },
    {
      "midi": 59,
      "hit": false,
      "t": 17739.12600000002,
      "d": 260.8695000000007,
      "v": 100
    },
    {
      "midi": 62,
      "hit": false,
      "t": 17739.12600000002,
      "d": 260.8695000000007,
      "v": 100
    },
    {
      "midi": 81,
      "hit": false,
      "t": 17999.995500000008,
      "d": 260.8695000000007,
      "v": 110
    },
    {
      "midi": 85,
      "hit": false,
      "t": 17999.995500000008,
      "d": 260.8695000000007,
      "v": 110
    },
    {
      "midi": 54,
      "hit": false,
      "t": 17999.99550000002,
      "d": 260.8695000000007,
      "v": 100
    },
    {
      "midi": 80,
      "hit": false,
      "t": 18260.86500000001,
      "d": 782.6084999999985,
      "v": 110
    },
    {
      "midi": 83,
      "hit": false,
      "t": 18260.86500000001,
      "d": 782.6084999999985,
      "v": 110
    },
    {
      "midi": 52,
      "hit": false,
      "t": 18260.86500000002,
      "d": 260.8695000000007,
      "v": 100
    },
    {
      "midi": 56,
      "hit": false,
      "t": 18521.73450000002,
      "d": 260.8695000000007,
      "v": 100
    },
    {
      "midi": 59,
      "hit": false,
      "t": 18521.73450000002,
      "d": 260.8695000000007,
      "v": 100
    },
    {
      "midi": 56,
      "hit": false,
      "t": 18782.60400000002,
      "d": 521.7390000000014,
      "v": 100
    },
    {
      "midi": 59,
      "hit": false,
      "t": 18782.60400000002,
      "d": 521.7390000000014,
      "v": 100
    },
    {
      "midi": 78,
      "hit": false,
      "t": 19043.473500000007,
      "d": 260.8695000000007,
      "v": 110
    },
    {
      "midi": 81,
      "hit": false,
      "t": 19043.473500000007,
      "d": 260.8695000000007,
      "v": 110
    },
    {
      "midi": 76,
      "hit": false,
      "t": 19304.343000000008,
      "d": 521.7390000000014,
      "v": 110
    },
    {
      "midi": 45,
      "hit": false,
      "t": 19304.343000000023,
      "d": 260.8695000000007,
      "v": 100
    },
    {
      "midi": 52,
      "hit": false,
      "t": 19565.212500000023,
      "d": 260.8695000000007,
      "v": 100
    },
    {
      "midi": 73,
      "hit": false,
      "t": 19760.86462500001,
      "d": 65.21737500000017,
      "v": 110
    },
    {
      "midi": 71,
      "hit": false,
      "t": 19826.08200000001,
      "d": 521.7390000000014,
      "v": 110
    },
    {
      "midi": 74,
      "hit": false,
      "t": 19826.08200000001,
      "d": 521.7390000000014,
      "v": 110
    },
    {
      "midi": 57,
      "hit": false,
      "t": 19826.082000000024,
      "d": 260.8695000000007,
      "v": 100
    },
    {
      "midi": 61,
      "hit": false,
      "t": 19826.082000000024,
      "d": 260.8695000000007,
      "v": 100
    },
    {
      "midi": 52,
      "hit": false,
      "t": 20086.951500000025,
      "d": 260.8695000000007,
      "v": 100
    },
    {
      "midi": 73,
      "hit": false,
      "t": 20347.82100000001,
      "d": 782.6084999999985,
      "v": 110
    },
    {
      "midi": 76,
      "hit": false,
      "t": 20347.82100000001,
      "d": 782.6084999999985,
      "v": 110
    },
    {
      "midi": 50,
      "hit": false,
      "t": 20347.821000000025,
      "d": 260.8695000000007,
      "v": 100
    },
    {
      "midi": 54,
      "hit": false,
      "t": 20608.690500000026,
      "d": 260.8695000000007,
      "v": 100
    },
    {
      "midi": 57,
      "hit": false,
      "t": 20608.690500000026,
      "d": 260.8695000000007,
      "v": 100
    },
    {
      "midi": 54,
      "hit": false,
      "t": 20869.560000000027,
      "d": 521.7390000000014,
      "v": 100
    },
    {
      "midi": 57,
      "hit": false,
      "t": 20869.560000000027,
      "d": 521.7390000000014,
      "v": 100
    },
    {
      "midi": 73,
      "hit": false,
      "t": 21130.42950000001,
      "d": 260.8695000000007,
      "v": 110
    },
    {
      "midi": 76,
      "hit": false,
      "t": 21130.42950000001,
      "d": 260.8695000000007,
      "v": 110
    },
    {
      "midi": 71,
      "hit": false,
      "t": 21391.29900000001,
      "d": 260.8695000000007,
      "v": 110
    },
    {
      "midi": 74,
      "hit": false,
      "t": 21391.29900000001,
      "d": 260.8695000000007,
      "v": 110
    },
    {
      "midi": 47,
      "hit": false,
      "t": 21391.299000000028,
      "d": 260.8695000000007,
      "v": 100
    },
    {
      "midi": 73,
      "hit": false,
      "t": 21652.16850000001,
      "d": 260.8695000000007,
      "v": 110
    },
    {
      "midi": 76,
      "hit": false,
      "t": 21652.16850000001,
      "d": 260.8695000000007,
      "v": 110
    },
    {
      "midi": 54,
      "hit": false,
      "t": 21652.16850000003,
      "d": 260.8695000000007,
      "v": 100
    },
    {
      "midi": 74,
      "hit": false,
      "t": 21913.03800000001,
      "d": 260.8695000000007,
      "v": 110
    },
    {
      "midi": 78,
      "hit": false,
      "t": 21913.03800000001,
      "d": 260.8695000000007,
      "v": 110
    },
    {
      "midi": 59,
      "hit": false,
      "t": 21913.03800000003,
      "d": 260.8695000000007,
      "v": 100
    },
    {
      "midi": 62,
      "hit": false,
      "t": 21913.03800000003,
      "d": 260.8695000000007,
      "v": 100
    },
    {
      "midi": 78,
      "hit": false,
      "t": 22173.907500000012,
      "d": 260.8695000000007,
      "v": 110
    },
    {
      "midi": 81,
      "hit": false,
      "t": 22173.907500000012,
      "d": 260.8695000000007,
      "v": 110
    },
    {
      "midi": 54,
      "hit": false,
      "t": 22173.90750000003,
      "d": 260.8695000000007,
      "v": 100
    },
    {
      "midi": 80,
      "hit": false,
      "t": 22434.777000000013,
      "d": 521.7390000000014,
      "v": 110
    },
    {
      "midi": 83,
      "hit": false,
      "t": 22434.777000000013,
      "d": 521.7390000000014,
      "v": 110
    },
    {
      "midi": 40,
      "hit": false,
      "t": 22434.77700000003,
      "d": 260.8695000000007,
      "v": 100
    },
    {
      "midi": 47,
      "hit": false,
      "t": 22695.64650000003,
      "d": 260.8695000000007,
      "v": 100
    },
    {
      "midi": 76,
      "hit": false,
      "t": 22956.516000000014,
      "d": 521.7390000000014,
      "v": 110
    },
    {
      "midi": 80,
      "hit": false,
      "t": 22956.516000000014,
      "d": 521.7390000000014,
      "v": 110
    },
    {
      "midi": 52,
      "hit": false,
      "t": 22956.516000000032,
      "d": 260.8695000000007,
      "v": 100
    },
    {
      "midi": 56,
      "hit": false,
      "t": 22956.516000000032,
      "d": 260.8695000000007,
      "v": 100
    },
    {
      "midi": 47,
      "hit": false,
      "t": 23217.385500000033,
      "d": 260.8695000000007,
      "v": 100
    },
    {
      "midi": 69,
      "hit": false,
      "t": 23478.255000000016,
      "d": 1565.2170000000006,
      "v": 110
    },
    {
      "midi": 73,
      "hit": false,
      "t": 23478.255000000016,
      "d": 1565.2170000000006,
      "v": 110
    },
    {
      "midi": 76,
      "hit": false,
      "t": 23478.255000000016,
      "d": 1565.2170000000006,
      "v": 110
    },
    {
      "midi": 45,
      "hit": false,
      "t": 23478.255000000034,
      "d": 260.8695000000007,
      "v": 100
    },
    {
      "midi": 52,
      "hit": false,
      "t": 23739.124500000034,
      "d": 260.8695000000007,
      "v": 100
    },
    {
      "midi": 57,
      "hit": false,
      "t": 23999.994000000035,
      "d": 260.8695000000007,
      "v": 100
    },
    {
      "midi": 61,
      "hit": false,
      "t": 23999.994000000035,
      "d": 260.8695000000007,
      "v": 100
    },
    {
      "midi": 52,
      "hit": false,
      "t": 24260.863500000036,
      "d": 260.8695000000007,
      "v": 100
    },
    {
      "midi": 44,
      "hit": false,
      "t": 24521.733000000037,
      "d": 260.8695000000007,
      "v": 100
    },
    {
      "midi": 52,
      "hit": false,
      "t": 24782.602500000037,
      "d": 260.8695000000007,
      "v": 100
    },
    {
      "midi": 56,
      "hit": false,
      "t": 25043.472000000038,
      "d": 260.8695000000007,
      "v": 100
    },
    {
      "midi": 59,
      "hit": false,
      "t": 25043.472000000038,
      "d": 260.8695000000007,
      "v": 100
    },
    {
      "midi": 69,
      "hit": false,
      "t": 25304.341500000017,
      "d": 260.8695000000007,
      "v": 110
    },
    {
      "midi": 73,
      "hit": false,
      "t": 25304.341500000017,
      "d": 260.8695000000007,
      "v": 110
    },
    {
      "midi": 52,
      "hit": false,
      "t": 25304.34150000004,
      "d": 260.8695000000007,
      "v": 100
    },
    {
      "midi": 68,
      "hit": false,
      "t": 25565.211000000018,
      "d": 260.8695000000007,
      "v": 110
    },
    {
      "midi": 71,
      "hit": false,
      "t": 25565.211000000018,
      "d": 260.8695000000007,
      "v": 110
    },
    {
      "midi": 38,
      "hit": false,
      "t": 25565.21100000004,
      "d": 260.8695000000007,
      "v": 100
    },
    {
      "midi": 69,
      "hit": false,
      "t": 25826.08050000002,
      "d": 260.8695000000007,
      "v": 110
    },
    {
      "midi": 73,
      "hit": false,
      "t": 25826.08050000002,
      "d": 260.8695000000007,
      "v": 110
    },
    {
      "midi": 45,
      "hit": false,
      "t": 25826.08050000004,
      "d": 260.8695000000007,
      "v": 100
    },
    {
      "midi": 71,
      "hit": false,
      "t": 26086.95000000002,
      "d": 260.8695000000007,
      "v": 110
    },
    {
      "midi": 74,
      "hit": false,
      "t": 26086.95000000002,
      "d": 260.8695000000007,
      "v": 110
    },
    {
      "midi": 50,
      "hit": false,
      "t": 26086.95000000004,
      "d": 260.8695000000007,
      "v": 100
    },
    {
      "midi": 54,
      "hit": false,
      "t": 26086.95000000004,
      "d": 260.8695000000007,
      "v": 100
    },
    {
      "midi": 78,
      "hit": false,
      "t": 26347.81950000002,
      "d": 260.8695000000007,
      "v": 110
    },
    {
      "midi": 81,
      "hit": false,
      "t": 26347.81950000002,
      "d": 260.8695000000007,
      "v": 110
    },
    {
      "midi": 45,
      "hit": false,
      "t": 26347.81950000004,
      "d": 260.8695000000007,
      "v": 100
    },
    {
      "midi": 76,
      "hit": false,
      "t": 26608.68900000002,
      "d": 782.6084999999985,
      "v": 110
    },
    {
      "midi": 80,
      "hit": false,
      "t": 26608.68900000002,
      "d": 782.6084999999985,
      "v": 110
    },
    {
      "midi": 40,
      "hit": false,
      "t": 26608.689000000042,
      "d": 260.8695000000007,
      "v": 100
    },
    {
      "midi": 47,
      "hit": false,
      "t": 26869.558500000043,
      "d": 260.8695000000007,
      "v": 100
    },
    {
      "midi": 52,
      "hit": false,
      "t": 27130.428000000044,
      "d": 260.8695000000007,
      "v": 100
    },
    {
      "midi": 56,
      "hit": false,
      "t": 27130.428000000044,
      "d": 260.8695000000007,
      "v": 100
    },
    {
      "midi": 74,
      "hit": false,
      "t": 27391.29750000002,
      "d": 260.8695000000007,
      "v": 110
    },
    {
      "midi": 78,
      "hit": false,
      "t": 27391.29750000002,
      "d": 260.8695000000007,
      "v": 110
    },
    {
      "midi": 47,
      "hit": false,
      "t": 27391.297500000044,
      "d": 260.8695000000007,
      "v": 100
    },
    {
      "midi": 69,
      "hit": false,
      "t": 27652.16700000002,
      "d": 260.8695000000007,
      "v": 110
    },
    {
      "midi": 73,
      "hit": false,
      "t": 27652.16700000002,
      "d": 260.8695000000007,
      "v": 110
    },
    {
      "midi": 41,
      "hit": false,
      "t": 27652.167000000045,
      "d": 260.8695000000007,
      "v": 100
    },
    {
      "midi": 71,
      "hit": false,
      "t": 27913.03650000002,
      "d": 260.8695000000007,
      "v": 110
    },
    {
      "midi": 75,
      "hit": false,
      "t": 27913.03650000002,
      "d": 260.8695000000007,
      "v": 110
    },
    {
      "midi": 47,
      "hit": false,
      "t": 27913.036500000046,
      "d": 260.8695000000007,
      "v": 100
    },
    {
      "midi": 73,
      "hit": false,
      "t": 28173.90600000002,
      "d": 260.8695000000007,
      "v": 110
    },
    {
      "midi": 77,
      "hit": false,
      "t": 28173.90600000002,
      "d": 260.8695000000007,
      "v": 110
    },
    {
      "midi": 49,
      "hit": false,
      "t": 28173.906000000046,
      "d": 260.8695000000007,
      "v": 100
    },
    {
      "midi": 53,
      "hit": false,
      "t": 28173.906000000046,
      "d": 260.8695000000007,
      "v": 100
    },
    {
      "midi": 80,
      "hit": false,
      "t": 28434.77550000002,
      "d": 260.8695000000007,
      "v": 110
    },
    {
      "midi": 83,
      "hit": false,
      "t": 28434.77550000002,
      "d": 260.8695000000007,
      "v": 110
    },
    {
      "midi": 47,
      "hit": false,
      "t": 28434.775500000047,
      "d": 260.8695000000007,
      "v": 100
    },
    {
      "midi": 78,
      "hit": false,
      "t": 28695.645000000022,
      "d": 521.7390000000014,
      "v": 110
    },
    {
      "midi": 81,
      "hit": false,
      "t": 28695.645000000022,
      "d": 521.7390000000014,
      "v": 110
    },
    {
      "midi": 42,
      "hit": false,
      "t": 28695.645000000048,
      "d": 260.8695000000007,
      "v": 100
    },
    {
      "midi": 49,
      "hit": false,
      "t": 28956.51450000005,
      "d": 260.8695000000007,
      "v": 100
    },
    {
      "midi": 73,
      "hit": false,
      "t": 29217.384000000024,
      "d": 260.8695000000007,
      "v": 110
    },
    {
      "midi": 78,
      "hit": false,
      "t": 29217.384000000024,
      "d": 260.8695000000007,
      "v": 110
    },
    {
      "midi": 81,
      "hit": false,
      "t": 29217.384000000024,
      "d": 260.8695000000007,
      "v": 110
    },
    {
      "midi": 54,
      "hit": false,
      "t": 29217.38400000005,
      "d": 260.8695000000007,
      "v": 100
    },
    {
      "midi": 57,
      "hit": false,
      "t": 29217.38400000005,
      "d": 260.8695000000007,
      "v": 100
    },
    {
      "midi": 74,
      "hit": false,
      "t": 29478.253500000024,
      "d": 260.8695000000007,
      "v": 110
    },
    {
      "midi": 80,
      "hit": false,
      "t": 29478.253500000024,
      "d": 260.8695000000007,
      "v": 110
    },
    {
      "midi": 83,
      "hit": false,
      "t": 29478.253500000024,
      "d": 260.8695000000007,
      "v": 110
    },
    {
      "midi": 49,
      "hit": false,
      "t": 29478.25350000005,
      "d": 260.8695000000007,
      "v": 100
    },
    {
      "midi": 76,
      "hit": false,
      "t": 29739.123000000025,
      "d": 521.7390000000014,
      "v": 110
    },
    {
      "midi": 81,
      "hit": false,
      "t": 29739.123000000025,
      "d": 521.7390000000014,
      "v": 110
    },
    {
      "midi": 85,
      "hit": false,
      "t": 29739.123000000025,
      "d": 521.7390000000014,
      "v": 110
    },
    {
      "midi": 38,
      "hit": false,
      "t": 29739.12300000005,
      "d": 260.8695000000007,
      "v": 100
    },
    {
      "midi": 45,
      "hit": false,
      "t": 29999.99250000005,
      "d": 260.8695000000007,
      "v": 100
    },
    {
      "midi": 74,
      "hit": false,
      "t": 30260.862000000026,
      "d": 260.8695000000007,
      "v": 110
    },
    {
      "midi": 80,
      "hit": false,
      "t": 30260.862000000026,
      "d": 260.8695000000007,
      "v": 110
    },
    {
      "midi": 83,
      "hit": false,
      "t": 30260.862000000026,
      "d": 260.8695000000007,
      "v": 110
    },
    {
      "midi": 50,
      "hit": false,
      "t": 30260.862000000052,
      "d": 260.8695000000007,
      "v": 100
    },
    {
      "midi": 54,
      "hit": false,
      "t": 30260.862000000052,
      "d": 260.8695000000007,
      "v": 100
    },
    {
      "midi": 73,
      "hit": false,
      "t": 30521.731500000027,
      "d": 260.8695000000007,
      "v": 110
    },
    {
      "midi": 78,
      "hit": false,
      "t": 30521.731500000027,
      "d": 260.8695000000007,
      "v": 110
    },
    {
      "midi": 81,
      "hit": false,
      "t": 30521.731500000027,
      "d": 260.8695000000007,
      "v": 110
    },
    {
      "midi": 45,
      "hit": false,
      "t": 30521.731500000053,
      "d": 260.8695000000007,
      "v": 100
    },
    {
      "midi": 71,
      "hit": false,
      "t": 30782.601000000028,
      "d": 521.7390000000014,
      "v": 110
    },
    {
      "midi": 76,
      "hit": false,
      "t": 30782.601000000028,
      "d": 521.7390000000014,
      "v": 110
    },
    {
      "midi": 80,
      "hit": false,
      "t": 30782.601000000028,
      "d": 521.7390000000014,
      "v": 110
    },
    {
      "midi": 40,
      "hit": false,
      "t": 30782.601000000053,
      "d": 260.8695000000007,
      "v": 100
    },
    {
      "midi": 47,
      "hit": false,
      "t": 31043.470500000054,
      "d": 260.8695000000007,
      "v": 100
    },
    {
      "midi": 68,
      "hit": false,
      "t": 31304.34000000003,
      "d": 521.7390000000014,
      "v": 110
    },
    {
      "midi": 73,
      "hit": false,
      "t": 31304.34000000003,
      "d": 521.7390000000014,
      "v": 110
    },
    {
      "midi": 76,
      "hit": false,
      "t": 31304.34000000003,
      "d": 521.7390000000014,
      "v": 110
    },
    {
      "midi": 52,
      "hit": false,
      "t": 31304.340000000055,
      "d": 260.8695000000007,
      "v": 100
    },
    {
      "midi": 56,
      "hit": false,
      "t": 31304.340000000055,
      "d": 260.8695000000007,
      "v": 100
    },
    {
      "midi": 47,
      "hit": false,
      "t": 31565.209500000055,
      "d": 260.8695000000007,
      "v": 100
    },
    {
      "midi": 66,
      "hit": false,
      "t": 31826.07900000003,
      "d": 1565.2170000000006,
      "v": 110
    },
    {
      "midi": 69,
      "hit": false,
      "t": 31826.07900000003,
      "d": 1565.2170000000006,
      "v": 110
    },
    {
      "midi": 73,
      "hit": false,
      "t": 31826.07900000003,
      "d": 1565.2170000000006,
      "v": 110
    },
    {
      "midi": 78,
      "hit": false,
      "t": 31826.07900000003,
      "d": 1565.2170000000006,
      "v": 110
    },
    {
      "midi": 42,
      "hit": false,
      "t": 31826.079000000056,
      "d": 260.8695000000007,
      "v": 100
    },
    {
      "midi": 49,
      "hit": false,
      "t": 32086.948500000057,
      "d": 260.8695000000007,
      "v": 100
    },
    {
      "midi": 54,
      "hit": false,
      "t": 32347.818000000058,
      "d": 260.8695000000007,
      "v": 100
    },
    {
      "midi": 57,
      "hit": false,
      "t": 32347.818000000058,
      "d": 260.8695000000007,
      "v": 100
    },
    {
      "midi": 49,
      "hit": false,
      "t": 32608.68750000006,
      "d": 260.8695000000007,
      "v": 100
    },
    {
      "midi": 49,
      "hit": false,
      "t": 32869.55700000006,
      "d": 1043.4780000000028,
      "v": 100
    },
    {
      "midi": 54,
      "hit": false,
      "t": 32869.55700000006,
      "d": 1043.4780000000028,
      "v": 100
    },
    {
      "midi": 57,
      "hit": false,
      "t": 32869.55700000006,
      "d": 1043.4780000000028,
      "v": 100
    },
    {
      "midi": 78,
      "hit": false,
      "t": 33391.29600000003,
      "d": 260.8695000000007,
      "v": 110
    },
    {
      "midi": 80,
      "hit": false,
      "t": 33652.16550000003,
      "d": 260.8695000000007,
      "v": 110
    },
    {
      "midi": 81,
      "hit": false,
      "t": 33913.03500000003,
      "d": 782.6085000000021,
      "v": 110
    },
    {
      "midi": 42,
      "hit": false,
      "t": 33913.03500000006,
      "d": 260.8695000000007,
      "v": 100
    },
    {
      "midi": 49,
      "hit": false,
      "t": 34173.90450000006,
      "d": 260.8695000000007,
      "v": 100
    },
    {
      "midi": 54,
      "hit": false,
      "t": 34434.77400000006,
      "d": 260.8695000000007,
      "v": 100
    },
    {
      "midi": 57,
      "hit": false,
      "t": 34434.77400000006,
      "d": 260.8695000000007,
      "v": 100
    },
    {
      "midi": 49,
      "hit": false,
      "t": 34695.643500000064,
      "d": 260.8695000000007,
      "v": 100
    },
    {
      "midi": 83,
      "hit": false,
      "t": 34826.078250000035,
      "d": 65.21737500000017,
      "v": 110
    },
    {
      "midi": 85,
      "hit": false,
      "t": 34891.295625000035,
      "d": 65.21737500000017,
      "v": 110
    },
    {
      "midi": 83,
      "hit": false,
      "t": 34956.513000000035,
      "d": 521.7390000000014,
      "v": 110
    },
    {
      "midi": 47,
      "hit": false,
      "t": 34956.513000000064,
      "d": 260.8695000000007,
      "v": 100
    },
    {
      "midi": 54,
      "hit": false,
      "t": 35217.382500000065,
      "d": 260.8695000000007,
      "v": 100
    },
    {
      "midi": 81,
      "hit": false,
      "t": 35478.25200000004,
      "d": 260.8695000000007,
      "v": 110
    },
    {
      "midi": 59,
      "hit": false,
      "t": 35478.252000000066,
      "d": 260.8695000000007,
      "v": 100
    },
    {
      "midi": 62,
      "hit": false,
      "t": 35478.252000000066,
      "d": 260.8695000000007,
      "v": 100
    },
    {
      "midi": 80,
      "hit": false,
      "t": 35739.12150000004,
      "d": 260.8695000000007,
      "v": 110
    },
    {
      "midi": 54,
      "hit": false,
      "t": 35739.12150000007,
      "d": 260.8695000000007,
      "v": 100
    },
    {
      "midi": 78,
      "hit": false,
      "t": 35999.99100000004,
      "d": 521.7390000000014,
      "v": 110
    },
    {
      "midi": 40,
      "hit": false,
      "t": 35999.99100000007,
      "d": 260.8695000000007,
      "v": 100
    },
    {
      "midi": 47,
      "hit": false,
      "t": 36260.86050000007,
      "d": 260.8695000000007,
      "v": 100
    },
    {
      "midi": 76,
      "hit": false,
      "t": 36521.73000000004,
      "d": 521.7390000000014,
      "v": 110
    },
    {
      "midi": 52,
      "hit": false,
      "t": 36521.73000000007,
      "d": 260.8695000000007,
      "v": 100
    },
    {
      "midi": 56,
      "hit": false,
      "t": 36521.73000000007,
      "d": 260.8695000000007,
      "v": 100
    },
    {
      "midi": 47,
      "hit": false,
      "t": 36782.59950000007,
      "d": 260.8695000000007,
      "v": 100
    },
    {
      "midi": 73,
      "hit": false,
      "t": 37043.46900000004,
      "d": 782.6085000000021,
      "v": 110
    },
    {
      "midi": 45,
      "hit": false,
      "t": 37043.46900000007,
      "d": 260.8695000000007,
      "v": 100
    },
    {
      "midi": 52,
      "hit": false,
      "t": 37304.33850000007,
      "d": 260.8695000000007,
      "v": 100
    },
    {
      "midi": 57,
      "hit": false,
      "t": 37565.20800000007,
      "d": 260.8695000000007,
      "v": 100
    },
    {
      "midi": 61,
      "hit": false,
      "t": 37565.20800000007,
      "d": 260.8695000000007,
      "v": 100
    },
    {
      "midi": 73,
      "hit": false,
      "t": 37826.07750000004,
      "d": 260.8695000000007,
      "v": 110
    },
    {
      "midi": 52,
      "hit": false,
      "t": 37826.07750000007,
      "d": 260.8695000000007,
      "v": 100
    },
    {
      "midi": 71,
      "hit": false,
      "t": 38086.947000000044,
      "d": 260.8695000000007,
      "v": 110
    },
    {
      "midi": 38,
      "hit": false,
      "t": 38086.94700000007,
      "d": 260.8695000000007,
      "v": 100
    },
    {
      "midi": 73,
      "hit": false,
      "t": 38347.816500000044,
      "d": 260.8695000000007,
      "v": 110
    },
    {
      "midi": 45,
      "hit": false,
      "t": 38347.81650000007,
      "d": 260.8695000000007,
      "v": 100
    },
    {
      "midi": 74,
      "hit": false,
      "t": 38608.686000000045,
      "d": 260.8695000000007,
      "v": 110
    },
    {
      "midi": 50,
      "hit": false,
      "t": 38608.686000000074,
      "d": 260.8695000000007,
      "v": 100
    },
    {
      "midi": 54,
      "hit": false,
      "t": 38608.686000000074,
      "d": 260.8695000000007,
      "v": 100
    },
    {
      "midi": 78,
      "hit": false,
      "t": 38869.555500000046,
      "d": 260.8695000000007,
      "v": 110
    },
    {
      "midi": 45,
      "hit": false,
      "t": 38869.555500000075,
      "d": 260.8695000000007,
      "v": 100
    },
    {
      "midi": 80,
      "hit": false,
      "t": 39130.42500000005,
      "d": 521.7390000000014,
      "v": 110
    },
    {
      "midi": 40,
      "hit": false,
      "t": 39130.425000000076,
      "d": 260.8695000000007,
      "v": 100
    },
    {
      "midi": 47,
      "hit": false,
      "t": 39391.29450000008,
      "d": 260.8695000000007,
      "v": 100
    },
    {
      "midi": 76,
      "hit": false,
      "t": 39652.16400000005,
      "d": 521.7390000000014,
      "v": 110
    },
    {
      "midi": 52,
      "hit": false,
      "t": 39652.16400000008,
      "d": 260.8695000000007,
      "v": 100
    },
    {
      "midi": 56,
      "hit": false,
      "t": 39652.16400000008,
      "d": 260.8695000000007,
      "v": 100
    },
    {
      "midi": 47,
      "hit": false,
      "t": 39913.03350000008,
      "d": 260.8695000000007,
      "v": 100
    },
    {
      "midi": 73,
      "hit": false,
      "t": 40043.46825000005,
      "d": 65.21737500000017,
      "v": 110
    },
    {
      "midi": 74,
      "hit": false,
      "t": 40108.68562500005,
      "d": 65.21737500000017,
      "v": 110
    },
    {
      "midi": 73,
      "hit": false,
      "t": 40173.90300000005,
      "d": 521.7390000000014,
      "v": 110
    },
    {
      "midi": 45,
      "hit": false,
      "t": 40173.90300000008,
      "d": 260.8695000000007,
      "v": 100
    },
    {
      "midi": 52,
      "hit": false,
      "t": 40434.77250000008,
      "d": 260.8695000000007,
      "v": 100
    },
    {
      "midi": 71,
      "hit": false,
      "t": 40695.64200000005,
      "d": 521.7390000000014,
      "v": 110
    },
    {
      "midi": 57,
      "hit": false,
      "t": 40695.64200000008,
      "d": 260.8695000000007,
      "v": 100
    },
    {
      "midi": 61,
      "hit": false,
      "t": 40695.64200000008,
      "d": 260.8695000000007,
      "v": 100
    },
    {
      "midi": 52,
      "hit": false,
      "t": 40956.51150000008,
      "d": 260.8695000000007,
      "v": 100
    },
    {
      "midi": 73,
      "hit": false,
      "t": 41217.38100000005,
      "d": 521.7390000000014,
      "v": 110
    },
    {
      "midi": 44,
      "hit": false,
      "t": 41217.38100000008,
      "d": 260.8695000000007,
      "v": 100
    },
    {
      "midi": 47,
      "hit": false,
      "t": 41478.25050000008,
      "d": 260.8695000000007,
      "v": 100
    },
    {
      "midi": 78,
      "hit": false,
      "t": 41739.12000000005,
      "d": 260.8695000000007,
      "v": 110
    },
    {
      "midi": 50,
      "hit": false,
      "t": 41739.12000000008,
      "d": 260.8695000000007,
      "v": 100
    },
    {
      "midi": 54,
      "hit": false,
      "t": 41739.12000000008,
      "d": 260.8695000000007,
      "v": 100
    },
    {
      "midi": 80,
      "hit": false,
      "t": 41999.989500000054,
      "d": 260.8695000000007,
      "v": 110
    },
    {
      "midi": 47,
      "hit": false,
      "t": 41999.98950000008,
      "d": 260.8695000000007,
      "v": 100
    },
    {
      "midi": 81,
      "hit": false,
      "t": 42260.859000000055,
      "d": 782.6085000000021,
      "v": 110
    },
    {
      "midi": 42,
      "hit": false,
      "t": 42260.859000000084,
      "d": 260.8695000000007,
      "v": 100
    },
    {
      "midi": 49,
      "hit": false,
      "t": 42521.728500000085,
      "d": 260.8695000000007,
      "v": 100
    },
    {
      "midi": 54,
      "hit": false,
      "t": 42782.598000000085,
      "d": 260.8695000000007,
      "v": 100
    },
    {
      "midi": 57,
      "hit": false,
      "t": 42782.598000000085,
      "d": 260.8695000000007,
      "v": 100
    },
    {
      "midi": 49,
      "hit": false,
      "t": 43043.467500000086,
      "d": 260.8695000000007,
      "v": 100
    },
    {
      "midi": 83,
      "hit": false,
      "t": 43173.90225000006,
      "d": 65.21737500000017,
      "v": 110
    },
    {
      "midi": 85,
      "hit": false,
      "t": 43239.11962500006,
      "d": 65.21737500000017,
      "v": 110
    },
    {
      "midi": 83,
      "hit": false,
      "t": 43304.33700000006,
      "d": 521.7390000000014,
      "v": 110
    },
    {
      "midi": 47,
      "hit": false,
      "t": 43304.33700000009,
      "d": 260.8695000000007,
      "v": 100
    },
    {
      "midi": 54,
      "hit": false,
      "t": 43565.20650000009,
      "d": 260.8695000000007,
      "v": 100
    },
    {
      "midi": 81,
      "hit": false,
      "t": 43826.07600000006,
      "d": 260.8695000000007,
      "v": 110
    },
    {
      "midi": 59,
      "hit": false,
      "t": 43826.07600000009,
      "d": 260.8695000000007,
      "v": 100
    },
    {
      "midi": 62,
      "hit": false,
      "t": 43826.07600000009,
      "d": 260.8695000000007,
      "v": 100
    },
    {
      "midi": 80,
      "hit": false,
      "t": 44086.94550000006,
      "d": 260.8695000000007,
      "v": 110
    },
    {
      "midi": 54,
      "hit": false,
      "t": 44086.94550000009,
      "d": 260.8695000000007,
      "v": 100
    },
    {
      "midi": 78,
      "hit": false,
      "t": 44347.81500000006,
      "d": 521.7390000000014,
      "v": 110
    },
    {
      "midi": 40,
      "hit": false,
      "t": 44347.81500000009,
      "d": 260.8695000000007,
      "v": 100
    },
    {
      "midi": 47,
      "hit": false,
      "t": 44608.68450000009,
      "d": 260.8695000000007,
      "v": 100
    },
    {
      "midi": 76,
      "hit": false,
      "t": 44869.55400000006,
      "d": 521.7390000000014,
      "v": 110
    },
    {
      "midi": 52,
      "hit": false,
      "t": 44869.55400000009,
      "d": 260.8695000000007,
      "v": 100
    },
    {
      "midi": 56,
      "hit": false,
      "t": 44869.55400000009,
      "d": 260.8695000000007,
      "v": 100
    },
    {
      "midi": 47,
      "hit": false,
      "t": 45130.42350000009,
      "d": 260.8695000000007,
      "v": 100
    },
    {
      "midi": 73,
      "hit": false,
      "t": 45391.29300000006,
      "d": 782.6085000000021,
      "v": 110
    },
    {
      "midi": 45,
      "hit": false,
      "t": 45391.29300000009,
      "d": 260.8695000000007,
      "v": 100
    },
    {
      "midi": 52,
      "hit": false,
      "t": 45652.16250000009,
      "d": 260.8695000000007,
      "v": 100
    },
    {
      "midi": 57,
      "hit": false,
      "t": 45913.032000000094,
      "d": 260.8695000000007,
      "v": 100
    },
    {
      "midi": 61,
      "hit": false,
      "t": 45913.032000000094,
      "d": 260.8695000000007,
      "v": 100
    },
    {
      "midi": 73,
      "hit": false,
      "t": 46173.901500000065,
      "d": 260.8695000000007,
      "v": 110
    },
    {
      "midi": 52,
      "hit": false,
      "t": 46173.901500000095,
      "d": 260.8695000000007,
      "v": 100
    },
    {
      "midi": 71,
      "hit": false,
      "t": 46434.771000000066,
      "d": 260.8695000000007,
      "v": 110
    },
    {
      "midi": 38,
      "hit": false,
      "t": 46434.771000000095,
      "d": 260.8695000000007,
      "v": 100
    },
    {
      "midi": 73,
      "hit": false,
      "t": 46695.64050000007,
      "d": 260.8695000000007,
      "v": 110
    },
    {
      "midi": 45,
      "hit": false,
      "t": 46695.640500000096,
      "d": 260.8695000000007,
      "v": 100
    },
    {
      "midi": 74,
      "hit": false,
      "t": 46956.51000000007,
      "d": 260.8695000000007,
      "v": 110
    },
    {
      "midi": 50,
      "hit": false,
      "t": 46956.5100000001,
      "d": 260.8695000000007,
      "v": 100
    },
    {
      "midi": 54,
      "hit": false,
      "t": 46956.5100000001,
      "d": 260.8695000000007,
      "v": 100
    },
    {
      "midi": 78,
      "hit": false,
      "t": 47217.37950000007,
      "d": 260.8695000000007,
      "v": 110
    },
    {
      "midi": 45,
      "hit": false,
      "t": 47217.3795000001,
      "d": 260.8695000000007,
      "v": 100
    },
    {
      "midi": 80,
      "hit": false,
      "t": 47347.81425000007,
      "d": 65.21737500000017,
      "v": 110
    },
    {
      "midi": 81,
      "hit": false,
      "t": 47413.03162500007,
      "d": 65.21737500000017,
      "v": 110
    },
    {
      "midi": 80,
      "hit": false,
      "t": 47478.24900000007,
      "d": 521.7390000000014,
      "v": 110
    },
    {
      "midi": 40,
      "hit": false,
      "t": 47478.2490000001,
      "d": 260.8695000000007,
      "v": 100
    },
    {
      "midi": 47,
      "hit": false,
      "t": 47739.1185000001,
      "d": 260.8695000000007,
      "v": 100
    },
    {
      "midi": 78,
      "hit": false,
      "t": 47999.98800000007,
      "d": 260.8695000000007,
      "v": 110
    },
    {
      "midi": 52,
      "hit": false,
      "t": 47999.9880000001,
      "d": 260.8695000000007,
      "v": 100
    },
    {
      "midi": 56,
      "hit": false,
      "t": 47999.9880000001,
      "d": 260.8695000000007,
      "v": 100
    },
    {
      "midi": 76,
      "hit": false,
      "t": 48260.85750000007,
      "d": 260.8695000000007,
      "v": 110
    },
    {
      "midi": 47,
      "hit": false,
      "t": 48260.8575000001,
      "d": 260.8695000000007,
      "v": 100
    },
    {
      "midi": 78,
      "hit": false,
      "t": 48521.72700000007,
      "d": 1565.216999999997,
      "v": 110
    },
    {
      "midi": 42,
      "hit": false,
      "t": 48521.7270000001,
      "d": 260.8695000000007,
      "v": 100
    },
    {
      "midi": 49,
      "hit": false,
      "t": 48782.5965000001,
      "d": 260.8695000000007,
      "v": 100
    },
    {
      "midi": 54,
      "hit": false,
      "t": 49043.4660000001,
      "d": 260.8695000000007,
      "v": 100
    },
    {
      "midi": 57,
      "hit": false,
      "t": 49043.4660000001,
      "d": 260.8695000000007,
      "v": 100
    },
    {
      "midi": 49,
      "hit": false,
      "t": 49304.3355000001,
      "d": 260.8695000000007,
      "v": 100
    },
    {
      "midi": 49,
      "hit": false,
      "t": 49565.2050000001,
      "d": 1043.4780000000028,
      "v": 100
    },
    {
      "midi": 54,
      "hit": false,
      "t": 49565.2050000001,
      "d": 1043.4780000000028,
      "v": 100
    },
    {
      "midi": 57,
      "hit": false,
      "t": 49565.2050000001,
      "d": 1043.4780000000028,
      "v": 100
    },
    {
      "midi": 78,
      "hit": false,
      "t": 50086.94400000007,
      "d": 260.8695000000007,
      "v": 110
    },
    {
      "midi": 81,
      "hit": false,
      "t": 50086.94400000007,
      "d": 260.8695000000007,
      "v": 110
    },
    {
      "midi": 76,
      "hit": false,
      "t": 50347.81350000007,
      "d": 260.8695000000007,
      "v": 110
    },
    {
      "midi": 80,
      "hit": false,
      "t": 50347.81350000007,
      "d": 260.8695000000007,
      "v": 110
    },
    {
      "midi": 74,
      "hit": false,
      "t": 50608.68300000007,
      "d": 260.8695000000007,
      "v": 110
    },
    {
      "midi": 78,
      "hit": false,
      "t": 50608.68300000007,
      "d": 260.8695000000007,
      "v": 110
    },
    {
      "midi": 47,
      "hit": false,
      "t": 50608.68300000011,
      "d": 260.8695000000007,
      "v": 100
    },
    {
      "midi": 76,
      "hit": false,
      "t": 50869.55250000007,
      "d": 260.8695000000007,
      "v": 110
    },
    {
      "midi": 80,
      "hit": false,
      "t": 50869.55250000007,
      "d": 260.8695000000007,
      "v": 110
    },
    {
      "midi": 54,
      "hit": false,
      "t": 50869.55250000011,
      "d": 260.8695000000007,
      "v": 100
    },
    {
      "midi": 78,
      "hit": false,
      "t": 51130.42200000007,
      "d": 260.8695000000007,
      "v": 110
    },
    {
      "midi": 81,
      "hit": false,
      "t": 51130.42200000007,
      "d": 260.8695000000007,
      "v": 110
    },
    {
      "midi": 59,
      "hit": false,
      "t": 51130.42200000011,
      "d": 260.8695000000007,
      "v": 100
    },
    {
      "midi": 62,
      "hit": false,
      "t": 51130.42200000011,
      "d": 260.8695000000007,
      "v": 100
    },
    {
      "midi": 81,
      "hit": false,
      "t": 51391.29150000007,
      "d": 260.8695000000007,
      "v": 110
    },
    {
      "midi": 85,
      "hit": false,
      "t": 51391.29150000007,
      "d": 260.8695000000007,
      "v": 110
    },
    {
      "midi": 54,
      "hit": false,
      "t": 51391.29150000011,
      "d": 260.8695000000007,
      "v": 100
    },
    {
      "midi": 80,
      "hit": false,
      "t": 51652.16100000007,
      "d": 782.6085000000021,
      "v": 110
    },
    {
      "midi": 83,
      "hit": false,
      "t": 51652.16100000007,
      "d": 782.6085000000021,
      "v": 110
    },
    {
      "midi": 52,
      "hit": false,
      "t": 51652.16100000011,
      "d": 260.8695000000007,
      "v": 100
    },
    {
      "midi": 56,
      "hit": false,
      "t": 51913.03050000011,
      "d": 260.8695000000007,
      "v": 100
    },
    {
      "midi": 59,
      "hit": false,
      "t": 51913.03050000011,
      "d": 260.8695000000007,
      "v": 100
    },
    {
      "midi": 56,
      "hit": false,
      "t": 52173.90000000011,
      "d": 521.7390000000014,
      "v": 100
    },
    {
      "midi": 59,
      "hit": false,
      "t": 52173.90000000011,
      "d": 521.7390000000014,
      "v": 100
    },
    {
      "midi": 78,
      "hit": false,
      "t": 52434.769500000075,
      "d": 260.8695000000007,
      "v": 110
    },
    {
      "midi": 81,
      "hit": false,
      "t": 52434.769500000075,
      "d": 260.8695000000007,
      "v": 110
    },
    {
      "midi": 76,
      "hit": false,
      "t": 52695.639000000076,
      "d": 521.7390000000014,
      "v": 110
    },
    {
      "midi": 45,
      "hit": false,
      "t": 52695.63900000011,
      "d": 260.8695000000007,
      "v": 100
    },
    {
      "midi": 52,
      "hit": false,
      "t": 52956.50850000011,
      "d": 260.8695000000007,
      "v": 100
    },
    {
      "midi": 73,
      "hit": false,
      "t": 53152.16062500008,
      "d": 65.21737500000017,
      "v": 110
    },
    {
      "midi": 71,
      "hit": false,
      "t": 53217.37800000008,
      "d": 521.7390000000014,
      "v": 110
    },
    {
      "midi": 74,
      "hit": false,
      "t": 53217.37800000008,
      "d": 521.7390000000014,
      "v": 110
    },
    {
      "midi": 57,
      "hit": false,
      "t": 53217.37800000011,
      "d": 260.8695000000007,
      "v": 100
    },
    {
      "midi": 61,
      "hit": false,
      "t": 53217.37800000011,
      "d": 260.8695000000007,
      "v": 100
    },
    {
      "midi": 52,
      "hit": false,
      "t": 53478.247500000114,
      "d": 260.8695000000007,
      "v": 100
    },
    {
      "midi": 73,
      "hit": false,
      "t": 53739.11700000008,
      "d": 782.6085000000021,
      "v": 110
    },
    {
      "midi": 76,
      "hit": false,
      "t": 53739.11700000008,
      "d": 782.6085000000021,
      "v": 110
    },
    {
      "midi": 50,
      "hit": false,
      "t": 53739.117000000115,
      "d": 260.8695000000007,
      "v": 100
    },
    {
      "midi": 54,
      "hit": false,
      "t": 53999.986500000115,
      "d": 260.8695000000007,
      "v": 100
    },
    {
      "midi": 57,
      "hit": false,
      "t": 53999.986500000115,
      "d": 260.8695000000007,
      "v": 100
    },
    {
      "midi": 54,
      "hit": false,
      "t": 54260.856000000116,
      "d": 521.7390000000014,
      "v": 100
    },
    {
      "midi": 57,
      "hit": false,
      "t": 54260.856000000116,
      "d": 521.7390000000014,
      "v": 100
    },
    {
      "midi": 73,
      "hit": false,
      "t": 54521.72550000008,
      "d": 260.8695000000007,
      "v": 110
    },
    {
      "midi": 76,
      "hit": false,
      "t": 54521.72550000008,
      "d": 260.8695000000007,
      "v": 110
    },
    {
      "midi": 71,
      "hit": false,
      "t": 54782.59500000008,
      "d": 260.8695000000007,
      "v": 110
    },
    {
      "midi": 74,
      "hit": false,
      "t": 54782.59500000008,
      "d": 260.8695000000007,
      "v": 110
    },
    {
      "midi": 47,
      "hit": false,
      "t": 54782.59500000012,
      "d": 260.8695000000007,
      "v": 100
    },
    {
      "midi": 73,
      "hit": false,
      "t": 55043.46450000008,
      "d": 260.8695000000007,
      "v": 110
    },
    {
      "midi": 76,
      "hit": false,
      "t": 55043.46450000008,
      "d": 260.8695000000007,
      "v": 110
    },
    {
      "midi": 54,
      "hit": false,
      "t": 55043.46450000012,
      "d": 260.8695000000007,
      "v": 100
    },
    {
      "midi": 74,
      "hit": false,
      "t": 55304.33400000008,
      "d": 260.8695000000007,
      "v": 110
    },
    {
      "midi": 78,
      "hit": false,
      "t": 55304.33400000008,
      "d": 260.8695000000007,
      "v": 110
    },
    {
      "midi": 59,
      "hit": false,
      "t": 55304.33400000012,
      "d": 260.8695000000007,
      "v": 100
    },
    {
      "midi": 62,
      "hit": false,
      "t": 55304.33400000012,
      "d": 260.8695000000007,
      "v": 100
    },
    {
      "midi": 78,
      "hit": false,
      "t": 55565.20350000008,
      "d": 260.8695000000007,
      "v": 110
    },
    {
      "midi": 81,
      "hit": false,
      "t": 55565.20350000008,
      "d": 260.8695000000007,
      "v": 110
    },
    {
      "midi": 54,
      "hit": false,
      "t": 55565.20350000012,
      "d": 260.8695000000007,
      "v": 100
    },
    {
      "midi": 80,
      "hit": false,
      "t": 55826.073000000084,
      "d": 521.7390000000014,
      "v": 110
    },
    {
      "midi": 83,
      "hit": false,
      "t": 55826.073000000084,
      "d": 521.7390000000014,
      "v": 110
    },
    {
      "midi": 40,
      "hit": false,
      "t": 55826.07300000012,
      "d": 260.8695000000007,
      "v": 100
    },
    {
      "midi": 47,
      "hit": false,
      "t": 56086.94250000012,
      "d": 260.8695000000007,
      "v": 100
    },
    {
      "midi": 76,
      "hit": false,
      "t": 56347.812000000085,
      "d": 521.7390000000014,
      "v": 110
    },
    {
      "midi": 80,
      "hit": false,
      "t": 56347.812000000085,
      "d": 521.7390000000014,
      "v": 110
    },
    {
      "midi": 52,
      "hit": false,
      "t": 56347.81200000012,
      "d": 260.8695000000007,
      "v": 100
    },
    {
      "midi": 56,
      "hit": false,
      "t": 56347.81200000012,
      "d": 260.8695000000007,
      "v": 100
    },
    {
      "midi": 47,
      "hit": false,
      "t": 56608.68150000012,
      "d": 260.8695000000007,
      "v": 100
    },
    {
      "midi": 69,
      "hit": false,
      "t": 56869.55100000009,
      "d": 1565.216999999997,
      "v": 110
    },
    {
      "midi": 73,
      "hit": false,
      "t": 56869.55100000009,
      "d": 1565.216999999997,
      "v": 110
    },
    {
      "midi": 76,
      "hit": false,
      "t": 56869.55100000009,
      "d": 1565.216999999997,
      "v": 110
    },
    {
      "midi": 45,
      "hit": false,
      "t": 56869.55100000012,
      "d": 260.8695000000007,
      "v": 100
    },
    {
      "midi": 52,
      "hit": false,
      "t": 57130.420500000124,
      "d": 260.8695000000007,
      "v": 100
    },
    {
      "midi": 57,
      "hit": false,
      "t": 57391.290000000125,
      "d": 260.8695000000007,
      "v": 100
    },
    {
      "midi": 61,
      "hit": false,
      "t": 57391.290000000125,
      "d": 260.8695000000007,
      "v": 100
    },
    {
      "midi": 52,
      "hit": false,
      "t": 57652.159500000125,
      "d": 260.8695000000007,
      "v": 100
    },
    {
      "midi": 44,
      "hit": false,
      "t": 57913.029000000126,
      "d": 260.8695000000007,
      "v": 100
    },
    {
      "midi": 52,
      "hit": false,
      "t": 58173.89850000013,
      "d": 260.8695000000007,
      "v": 100
    },
    {
      "midi": 56,
      "hit": false,
      "t": 58434.76800000013,
      "d": 260.8695000000007,
      "v": 100
    },
    {
      "midi": 59,
      "hit": false,
      "t": 58434.76800000013,
      "d": 260.8695000000007,
      "v": 100
    },
    {
      "midi": 69,
      "hit": false,
      "t": 58695.637500000084,
      "d": 260.8695000000007,
      "v": 110
    },
    {
      "midi": 73,
      "hit": false,
      "t": 58695.637500000084,
      "d": 260.8695000000007,
      "v": 110
    },
    {
      "midi": 52,
      "hit": false,
      "t": 58695.63750000013,
      "d": 260.8695000000007,
      "v": 100
    },
    {
      "midi": 68,
      "hit": false,
      "t": 58956.507000000085,
      "d": 260.8695000000007,
      "v": 110
    },
    {
      "midi": 71,
      "hit": false,
      "t": 58956.507000000085,
      "d": 260.8695000000007,
      "v": 110
    },
    {
      "midi": 38,
      "hit": false,
      "t": 58956.50700000013,
      "d": 260.8695000000007,
      "v": 100
    },
    {
      "midi": 69,
      "hit": false,
      "t": 59217.376500000086,
      "d": 260.8695000000007,
      "v": 110
    },
    {
      "midi": 73,
      "hit": false,
      "t": 59217.376500000086,
      "d": 260.8695000000007,
      "v": 110
    },
    {
      "midi": 45,
      "hit": false,
      "t": 59217.37650000013,
      "d": 260.8695000000007,
      "v": 100
    },
    {
      "midi": 71,
      "hit": false,
      "t": 59478.24600000009,
      "d": 260.8695000000007,
      "v": 110
    },
    {
      "midi": 74,
      "hit": false,
      "t": 59478.24600000009,
      "d": 260.8695000000007,
      "v": 110
    },
    {
      "midi": 50,
      "hit": false,
      "t": 59478.24600000013,
      "d": 260.8695000000007,
      "v": 100
    },
    {
      "midi": 54,
      "hit": false,
      "t": 59478.24600000013,
      "d": 260.8695000000007,
      "v": 100
    },
    {
      "midi": 78,
      "hit": false,
      "t": 59739.11550000009,
      "d": 260.8695000000007,
      "v": 110
    },
    {
      "midi": 81,
      "hit": false,
      "t": 59739.11550000009,
      "d": 260.8695000000007,
      "v": 110
    },
    {
      "midi": 45,
      "hit": false,
      "t": 59739.11550000013,
      "d": 260.8695000000007,
      "v": 100
    },
    {
      "midi": 76,
      "hit": false,
      "t": 59999.98500000009,
      "d": 782.6085000000021,
      "v": 110
    },
    {
      "midi": 80,
      "hit": false,
      "t": 59999.98500000009,
      "d": 782.6085000000021,
      "v": 110
    },
    {
      "midi": 40,
      "hit": false,
      "t": 59999.98500000013,
      "d": 260.8695000000007,
      "v": 100
    },
    {
      "midi": 47,
      "hit": false,
      "t": 60260.85450000013,
      "d": 260.8695000000007,
      "v": 100
    },
    {
      "midi": 52,
      "hit": false,
      "t": 60521.72400000013,
      "d": 260.8695000000007,
      "v": 100
    },
    {
      "midi": 56,
      "hit": false,
      "t": 60521.72400000013,
      "d": 260.8695000000007,
      "v": 100
    },
    {
      "midi": 74,
      "hit": false,
      "t": 60782.59350000009,
      "d": 260.8695000000007,
      "v": 110
    },
    {
      "midi": 78,
      "hit": false,
      "t": 60782.59350000009,
      "d": 260.8695000000007,
      "v": 110
    },
    {
      "midi": 47,
      "hit": false,
      "t": 60782.593500000134,
      "d": 260.8695000000007,
      "v": 100
    },
    {
      "midi": 69,
      "hit": false,
      "t": 61043.46300000009,
      "d": 260.8695000000007,
      "v": 110
    },
    {
      "midi": 73,
      "hit": false,
      "t": 61043.46300000009,
      "d": 260.8695000000007,
      "v": 110
    },
    {
      "midi": 41,
      "hit": false,
      "t": 61043.463000000134,
      "d": 260.8695000000007,
      "v": 100
    },
    {
      "midi": 71,
      "hit": false,
      "t": 61304.33250000009,
      "d": 260.8695000000007,
      "v": 110
    },
    {
      "midi": 75,
      "hit": false,
      "t": 61304.33250000009,
      "d": 260.8695000000007,
      "v": 110
    },
    {
      "midi": 47,
      "hit": false,
      "t": 61304.332500000135,
      "d": 260.8695000000007,
      "v": 100
    },
    {
      "midi": 73,
      "hit": false,
      "t": 61565.20200000009,
      "d": 260.8695000000007,
      "v": 110
    },
    {
      "midi": 77,
      "hit": false,
      "t": 61565.20200000009,
      "d": 260.8695000000007,
      "v": 110
    },
    {
      "midi": 49,
      "hit": false,
      "t": 61565.202000000136,
      "d": 260.8695000000007,
      "v": 100
    },
    {
      "midi": 53,
      "hit": false,
      "t": 61565.202000000136,
      "d": 260.8695000000007,
      "v": 100
    },
    {
      "midi": 80,
      "hit": false,
      "t": 61826.07150000009,
      "d": 260.8695000000007,
      "v": 110
    },
    {
      "midi": 83,
      "hit": false,
      "t": 61826.07150000009,
      "d": 260.8695000000007,
      "v": 110
    },
    {
      "midi": 47,
      "hit": false,
      "t": 61826.07150000014,
      "d": 260.8695000000007,
      "v": 100
    },
    {
      "midi": 78,
      "hit": false,
      "t": 62086.94100000009,
      "d": 521.7390000000014,
      "v": 110
    },
    {
      "midi": 81,
      "hit": false,
      "t": 62086.94100000009,
      "d": 521.7390000000014,
      "v": 110
    },
    {
      "midi": 42,
      "hit": false,
      "t": 62086.94100000014,
      "d": 260.8695000000007,
      "v": 100
    },
    {
      "midi": 49,
      "hit": false,
      "t": 62347.81050000014,
      "d": 260.8695000000007,
      "v": 100
    },
    {
      "midi": 73,
      "hit": false,
      "t": 62608.680000000095,
      "d": 260.8695000000007,
      "v": 110
    },
    {
      "midi": 78,
      "hit": false,
      "t": 62608.680000000095,
      "d": 260.8695000000007,
      "v": 110
    },
    {
      "midi": 81,
      "hit": false,
      "t": 62608.680000000095,
      "d": 260.8695000000007,
      "v": 110
    },
    {
      "midi": 54,
      "hit": false,
      "t": 62608.68000000014,
      "d": 260.8695000000007,
      "v": 100
    },
    {
      "midi": 57,
      "hit": false,
      "t": 62608.68000000014,
      "d": 260.8695000000007,
      "v": 100
    },
    {
      "midi": 74,
      "hit": false,
      "t": 62869.549500000096,
      "d": 260.8695000000007,
      "v": 110
    },
    {
      "midi": 80,
      "hit": false,
      "t": 62869.549500000096,
      "d": 260.8695000000007,
      "v": 110
    },
    {
      "midi": 83,
      "hit": false,
      "t": 62869.549500000096,
      "d": 260.8695000000007,
      "v": 110
    },
    {
      "midi": 49,
      "hit": false,
      "t": 62869.54950000014,
      "d": 260.8695000000007,
      "v": 100
    },
    {
      "midi": 76,
      "hit": false,
      "t": 63130.419000000096,
      "d": 521.7390000000014,
      "v": 110
    },
    {
      "midi": 81,
      "hit": false,
      "t": 63130.419000000096,
      "d": 521.7390000000014,
      "v": 110
    },
    {
      "midi": 85,
      "hit": false,
      "t": 63130.419000000096,
      "d": 521.7390000000014,
      "v": 110
    },
    {
      "midi": 38,
      "hit": false,
      "t": 63130.41900000014,
      "d": 260.8695000000007,
      "v": 100
    },
    {
      "midi": 45,
      "hit": false,
      "t": 63391.28850000014,
      "d": 260.8695000000007,
      "v": 100
    },
    {
      "midi": 74,
      "hit": false,
      "t": 63652.1580000001,
      "d": 260.8695000000007,
      "v": 110
    },
    {
      "midi": 80,
      "hit": false,
      "t": 63652.1580000001,
      "d": 260.8695000000007,
      "v": 110
    },
    {
      "midi": 83,
      "hit": false,
      "t": 63652.1580000001,
      "d": 260.8695000000007,
      "v": 110
    },
    {
      "midi": 50,
      "hit": false,
      "t": 63652.15800000014,
      "d": 260.8695000000007,
      "v": 100
    },
    {
      "midi": 54,
      "hit": false,
      "t": 63652.15800000014,
      "d": 260.8695000000007,
      "v": 100
    },
    {
      "midi": 73,
      "hit": false,
      "t": 63913.0275000001,
      "d": 260.8695000000007,
      "v": 110
    },
    {
      "midi": 78,
      "hit": false,
      "t": 63913.0275000001,
      "d": 260.8695000000007,
      "v": 110
    },
    {
      "midi": 81,
      "hit": false,
      "t": 63913.0275000001,
      "d": 260.8695000000007,
      "v": 110
    },
    {
      "midi": 45,
      "hit": false,
      "t": 63913.02750000014,
      "d": 260.8695000000007,
      "v": 100
    },
    {
      "midi": 71,
      "hit": false,
      "t": 64173.8970000001,
      "d": 521.7390000000014,
      "v": 110
    },
    {
      "midi": 76,
      "hit": false,
      "t": 64173.8970000001,
      "d": 521.7390000000014,
      "v": 110
    },
    {
      "midi": 80,
      "hit": false,
      "t": 64173.8970000001,
      "d": 521.7390000000014,
      "v": 110
    },
    {
      "midi": 40,
      "hit": false,
      "t": 64173.89700000014,
      "d": 260.8695000000007,
      "v": 100
    },
    {
      "midi": 47,
      "hit": false,
      "t": 64434.76650000014,
      "d": 260.8695000000007,
      "v": 100
    },
    {
      "midi": 68,
      "hit": false,
      "t": 64695.6360000001,
      "d": 521.7390000000014,
      "v": 110
    },
    {
      "midi": 73,
      "hit": false,
      "t": 64695.6360000001,
      "d": 521.7390000000014,
      "v": 110
    },
    {
      "midi": 76,
      "hit": false,
      "t": 64695.6360000001,
      "d": 521.7390000000014,
      "v": 110
    },
    {
      "midi": 52,
      "hit": false,
      "t": 64695.636000000144,
      "d": 260.8695000000007,
      "v": 100
    },
    {
      "midi": 56,
      "hit": false,
      "t": 64695.636000000144,
      "d": 260.8695000000007,
      "v": 100
    },
    {
      "midi": 47,
      "hit": false,
      "t": 64956.505500000145,
      "d": 260.8695000000007,
      "v": 100
    },
    {
      "midi": 66,
      "hit": false,
      "t": 65217.3750000001,
      "d": 2086.9560000000056,
      "v": 110
    },
    {
      "midi": 69,
      "hit": false,
      "t": 65217.3750000001,
      "d": 2086.9560000000056,
      "v": 110
    },
    {
      "midi": 73,
      "hit": false,
      "t": 65217.3750000001,
      "d": 2086.9560000000056,
      "v": 110
    },
    {
      "midi": 78,
      "hit": false,
      "t": 65217.3750000001,
      "d": 2086.9560000000056,
      "v": 110
    },
    {
      "midi": 42,
      "hit": false,
      "t": 65217.375000000146,
      "d": 260.8695000000007,
      "v": 100
    },
    {
      "midi": 49,
      "hit": false,
      "t": 65478.244500000146,
      "d": 260.8695000000007,
      "v": 100
    },
    {
      "midi": 54,
      "hit": false,
      "t": 65739.11400000015,
      "d": 260.8695000000007,
      "v": 100
    },
    {
      "midi": 57,
      "hit": false,
      "t": 65739.11400000015,
      "d": 260.8695000000007,
      "v": 100
    },
    {
      "midi": 49,
      "hit": false,
      "t": 65999.98350000015,
      "d": 260.8695000000007,
      "v": 100
    },
    {
      "midi": 49,
      "hit": false,
      "t": 66260.85300000015,
      "d": 1043.4780000000028,
      "v": 100
    },
    {
      "midi": 54,
      "hit": false,
      "t": 66260.85300000015,
      "d": 1043.4780000000028,
      "v": 100
    },
    {
      "midi": 57,
      "hit": false,
      "t": 66260.85300000015,
      "d": 1043.4780000000028,
      "v": 100
    }
  ]
}