{
  "jsonPath": "Soundtracks/Video Game Music/Legend of Mana/legend-of-mana-pastoral.json",
  "path": "Soundtracks\\Video Game Music\\Legend of Mana\\Legend_of_Mana_Pastoral.mid",
  "name": "Legend_of_Mana_Pastoral",
  "difficulty": "Advanced",
  "bpm": 106.00013780017915,
  "notes": [
    {
      "midi": 76,
      "hit": false,
      "t": 5.527705078124999,
      "d": 278.0435654296875,
      "v": 69
    },
    {
      "midi": 40,
      "hit": false,
      "t": 5.527705078124999,
      "d": 311.76256640624996,
      "v": 56
    },
    {
      "midi": 47,
      "hit": false,
      "t": 300.70715624999997,
      "d": 296.2849921874999,
      "v": 52
    },
    {
      "midi": 71,
      "hit": false,
      "t": 437.24147167968744,
      "d": 134.32323339843748,
      "v": 64
    },
    {
      "midi": 71,
      "hit": false,
      "t": 580.4090332031249,
      "d": 264.224302734375,
      "v": 65
    },
    {
      "midi": 56,
      "hit": false,
      "t": 580.4090332031249,
      "d": 297.94330371093747,
      "v": 53
    },
    {
      "midi": 73,
      "hit": false,
      "t": 861.7692216796873,
      "d": 263.1187617187501,
      "v": 64
    },
    {
      "midi": 38,
      "hit": false,
      "t": 861.7692216796873,
      "d": 296.83776269531256,
      "v": 51
    },
    {
      "midi": 71,
      "hit": false,
      "t": 1142.0238691406248,
      "d": 259.8021386718751,
      "v": 67
    },
    {
      "midi": 45,
      "hit": false,
      "t": 1142.0238691406248,
      "d": 293.5211396484376,
      "v": 55
    },
    {
      "midi": 69,
      "hit": false,
      "t": 1418.9618935546873,
      "d": 262.01322070312517,
      "v": 64
    },
    {
      "midi": 54,
      "hit": false,
      "t": 1418.9618935546873,
      "d": 295.73222167968765,
      "v": 52
    },
    {
      "midi": 76,
      "hit": false,
      "t": 1700.32208203125,
      "d": 281.3601884765626,
      "v": 69
    },
    {
      "midi": 40,
      "hit": false,
      "t": 1700.32208203125,
      "d": 315.0791894531251,
      "v": 56
    },
    {
      "midi": 47,
      "hit": false,
      "t": 1998.81815625,
      "d": 296.28499218749994,
      "v": 52
    },
    {
      "midi": 71,
      "hit": false,
      "t": 2135.3524716796874,
      "d": 134.32323339843742,
      "v": 64
    },
    {
      "midi": 71,
      "hit": false,
      "t": 2278.520033203125,
      "d": 264.22430273437476,
      "v": 65
    },
    {
      "midi": 56,
      "hit": false,
      "t": 2278.520033203125,
      "d": 297.943303710937,
      "v": 53
    },
    {
      "midi": 73,
      "hit": false,
      "t": 2559.880221679687,
      "d": 263.11876171874974,
      "v": 64
    },
    {
      "midi": 38,
      "hit": false,
      "t": 2559.880221679687,
      "d": 296.837762695312,
      "v": 51
    },
    {
      "midi": 71,
      "hit": false,
      "t": 2840.1348691406242,
      "d": 259.8021386718747,
      "v": 67
    },
    {
      "midi": 45,
      "hit": false,
      "t": 2840.1348691406242,
      "d": 293.52113964843693,
      "v": 55
    },
    {
      "midi": 69,
      "hit": false,
      "t": 3117.0728935546863,
      "d": 262.0132207031247,
      "v": 64
    },
    {
      "midi": 54,
      "hit": false,
      "t": 3117.0728935546863,
      "d": 295.732221679687,
      "v": 52
    },
    {
      "midi": 71,
      "hit": false,
      "t": 3398.4330820312484,
      "d": 281.36018847656214,
      "v": 69
    },
    {
      "midi": 40,
      "hit": false,
      "t": 3398.4330820312484,
      "d": 315.0791894531244,
      "v": 56
    },
    {
      "midi": 47,
      "hit": false,
      "t": 3696.929156249998,
      "d": 296.2849921874995,
      "v": 52
    },
    {
      "midi": 76,
      "hit": false,
      "t": 3696.929156249998,
      "d": 1680.9751142578139,
      "v": 64
    },
    {
      "midi": 56,
      "hit": false,
      "t": 3976.6310332031226,
      "d": 297.94330371093747,
      "v": 53
    },
    {
      "midi": 38,
      "hit": false,
      "t": 4257.991221679685,
      "d": 296.83776269531336,
      "v": 51
    },
    {
      "midi": 45,
      "hit": false,
      "t": 4538.245869140623,
      "d": 293.5211396484383,
      "v": 55
    },
    {
      "midi": 54,
      "hit": false,
      "t": 4815.183893554686,
      "d": 295.73222167968834,
      "v": 52
    },
    {
      "midi": 40,
      "hit": false,
      "t": 5096.544082031249,
      "d": 315.07918945312576,
      "v": 56
    },
    {
      "midi": 78,
      "hit": false,
      "t": 5395.040156249999,
      "d": 262.5659912109377,
      "v": 64
    },
    {
      "midi": 47,
      "hit": false,
      "t": 5395.040156249999,
      "d": 296.2849921875004,
      "v": 52
    },
    {
      "midi": 76,
      "hit": false,
      "t": 5674.742033203124,
      "d": 264.22430273437567,
      "v": 65
    },
    {
      "midi": 56,
      "hit": false,
      "t": 5674.742033203124,
      "d": 297.9433037109384,
      "v": 53
    },
    {
      "midi": 74,
      "hit": false,
      "t": 5956.102221679687,
      "d": 263.11876171875065,
      "v": 64
    },
    {
      "midi": 38,
      "hit": false,
      "t": 5956.102221679687,
      "d": 296.83776269531336,
      "v": 51
    },
    {
      "midi": 73,
      "hit": false,
      "t": 6236.356869140625,
      "d": 44.77441113281293,
      "v": 67
    },
    {
      "midi": 45,
      "hit": false,
      "t": 6236.356869140625,
      "d": 293.5211396484392,
      "v": 55
    },
    {
      "midi": 74,
      "hit": false,
      "t": 6284.447903320313,
      "d": 43.66887011718791,
      "v": 64
    },
    {
      "midi": 73,
      "hit": false,
      "t": 6331.433396484376,
      "d": 173.01716894531273,
      "v": 64
    },
    {
      "midi": 71,
      "hit": false,
      "t": 6513.294893554689,
      "d": 262.0132207031256,
      "v": 64
    },
    {
      "midi": 54,
      "hit": false,
      "t": 6513.294893554689,
      "d": 295.73222167968834,
      "v": 52
    },
    {
      "midi": 76,
      "hit": false,
      "t": 6794.655082031252,
      "d": 281.36018847656305,
      "v": 69
    },
    {
      "midi": 40,
      "hit": false,
      "t": 6794.655082031252,
      "d": 315.07918945312576,
      "v": 56
    },
    {
      "midi": 47,
      "hit": false,
      "t": 7093.151156250003,
      "d": 296.2849921875013,
      "v": 52
    },
    {
      "midi": 71,
      "hit": false,
      "t": 7229.685471679691,
      "d": 134.32323339843788,
      "v": 64
    },
    {
      "midi": 71,
      "hit": false,
      "t": 7372.853033203129,
      "d": 264.22430273437567,
      "v": 65
    },
    {
      "midi": 56,
      "hit": false,
      "t": 7372.853033203129,
      "d": 297.9433037109384,
      "v": 53
    },
    {
      "midi": 73,
      "hit": false,
      "t": 7654.213221679692,
      "d": 263.11876171875065,
      "v": 64
    },
    {
      "midi": 38,
      "hit": false,
      "t": 7654.213221679692,
      "d": 296.83776269531336,
      "v": 51
    },
    {
      "midi": 71,
      "hit": false,
      "t": 7934.46786914063,
      "d": 259.8021386718756,
      "v": 67
    },
    {
      "midi": 45,
      "hit": false,
      "t": 7934.46786914063,
      "d": 293.5211396484374,
      "v": 55
    },
    {
      "midi": 69,
      "hit": false,
      "t": 8211.405893554693,
      "d": 262.0132207031238,
      "v": 64
    },
    {
      "midi": 54,
      "hit": false,
      "t": 8211.405893554693,
      "d": 295.7322216796856,
      "v": 52
    },
    {
      "midi": 76,
      "hit": false,
      "t": 8492.766082031254,
      "d": 281.36018847656123,
      "v": 69
    },
    {
      "midi": 40,
      "hit": false,
      "t": 8492.766082031254,
      "d": 315.07918945312304,
      "v": 56
    },
    {
      "midi": 47,
      "hit": false,
      "t": 8791.262156250003,
      "d": 296.2849921874986,
      "v": 52
    },
    {
      "midi": 71,
      "hit": false,
      "t": 8927.796471679689,
      "d": 134.32323339843788,
      "v": 64
    },
    {
      "midi": 71,
      "hit": false,
      "t": 9070.964033203127,
      "d": 264.22430273437385,
      "v": 65
    },
    {
      "midi": 56,
      "hit": false,
      "t": 9070.964033203127,
      "d": 297.94330371093565,
      "v": 53
    },
    {
      "midi": 73,
      "hit": false,
      "t": 9352.324221679688,
      "d": 263.11876171874974,
      "v": 64
    },
    {
      "midi": 38,
      "hit": false,
      "t": 9352.324221679688,
      "d": 296.83776269531154,
      "v": 51
    },
    {
      "midi": 71,
      "hit": false,
      "t": 9632.578869140625,
      "d": 259.80213867187376,
      "v": 67
    },
    {
      "midi": 45,
      "hit": false,
      "t": 9632.578869140625,
      "d": 293.52113964843556,
      "v": 55
    },
    {
      "midi": 69,
      "hit": false,
      "t": 9909.516893554686,
      "d": 262.0132207031238,
      "v": 64
    },
    {
      "midi": 54,
      "hit": false,
      "t": 9909.516893554686,
      "d": 295.7322216796856,
      "v": 52
    },
    {
      "midi": 71,
      "hit": false,
      "t": 10190.877082031247,
      "d": 281.36018847656123,
      "v": 69
    },
    {
      "midi": 40,
      "hit": false,
      "t": 10190.877082031247,
      "d": 315.07918945312304,
      "v": 56
    },
    {
      "midi": 47,
      "hit": false,
      "t": 10489.373156249996,
      "d": 296.2849921874986,
      "v": 52
    },
    {
      "midi": 76,
      "hit": false,
      "t": 10489.373156249996,
      "d": 1680.9751142578061,
      "v": 64
    },
    {
      "midi": 56,
      "hit": false,
      "t": 10769.07503320312,
      "d": 297.94330371093565,
      "v": 53
    },
    {
      "midi": 38,
      "hit": false,
      "t": 11050.435221679681,
      "d": 296.83776269531154,
      "v": 51
    },
    {
      "midi": 45,
      "hit": false,
      "t": 11330.689869140619,
      "d": 293.52113964843556,
      "v": 55
    },
    {
      "midi": 54,
      "hit": false,
      "t": 11607.62789355468,
      "d": 295.7322216796856,
      "v": 52
    },
    {
      "midi": 40,
      "hit": false,
      "t": 11888.988082031241,
      "d": 315.07918945312304,
      "v": 56
    },
    {
      "midi": 78,
      "hit": false,
      "t": 12187.48415624999,
      "d": 262.5659912109368,
      "v": 64
    },
    {
      "midi": 47,
      "hit": false,
      "t": 12187.48415624999,
      "d": 296.2849921874986,
      "v": 52
    },
    {
      "midi": 80,
      "hit": false,
      "t": 12467.186033203114,
      "d": 264.22430273437385,
      "v": 65
    },
    {
      "midi": 56,
      "hit": false,
      "t": 12467.186033203114,
      "d": 297.94330371093565,
      "v": 53
    },
    {
      "midi": 81,
      "hit": false,
      "t": 12748.546221679675,
      "d": 263.11876171874974,
      "v": 64
    },
    {
      "midi": 38,
      "hit": false,
      "t": 12748.546221679675,
      "d": 296.83776269531154,
      "v": 51
    },
    {
      "midi": 80,
      "hit": false,
      "t": 13028.800869140612,
      "d": 44.77441113281202,
      "v": 67
    },
    {
      "midi": 45,
      "hit": false,
      "t": 13028.800869140612,
      "d": 293.52113964843556,
      "v": 55
    },
    {
      "midi": 81,
      "hit": false,
      "t": 13076.891903320298,
      "d": 43.66887011718791,
      "v": 64
    },
    {
      "midi": 80,
      "hit": false,
      "t": 13123.87739648436,
      "d": 173.01716894531273,
      "v": 64
    },
    {
      "midi": 78,
      "hit": false,
      "t": 13305.738893554673,
      "d": 262.0132207031238,
      "v": 64
    },
    {
      "midi": 54,
      "hit": false,
      "t": 13305.738893554673,
      "d": 295.7322216796856,
      "v": 52
    },
    {
      "midi": 43,
      "hit": false,
      "t": 13587.099082031235,
      "d": 315.07918945312304,
      "v": 57
    },
    {
      "midi": 73,
      "hit": false,
      "t": 13587.099082031235,
      "d": 577.6451806640598,
      "v": 69
    },
    {
      "midi": 50,
      "hit": false,
      "t": 13885.595156249983,
      "d": 296.2849921874986,
      "v": 52
    },
    {
      "midi": 74,
      "hit": false,
      "t": 14165.297033203107,
      "d": 264.22430273437385,
      "v": 65
    },
    {
      "midi": 59,
      "hit": false,
      "t": 14165.297033203107,
      "d": 297.94330371093565,
      "v": 53
    },
    {
      "midi": 43,
      "hit": false,
      "t": 14446.657221679669,
      "d": 296.83776269531154,
      "v": 52
    },
    {
      "midi": 76,
      "hit": false,
      "t": 14446.657221679669,
      "d": 1119.9130488281207,
      "v": 64
    },
    {
      "midi": 50,
      "hit": false,
      "t": 14726.911869140606,
      "d": 293.52113964843556,
      "v": 55
    },
    {
      "midi": 59,
      "hit": false,
      "t": 15003.849893554667,
      "d": 295.7322216796856,
      "v": 52
    },
    {
      "midi": 43,
      "hit": false,
      "t": 15285.210082031228,
      "d": 315.07918945312304,
      "v": 57
    },
    {
      "midi": 73,
      "hit": false,
      "t": 15583.706156249977,
      "d": 262.5659912109368,
      "v": 64
    },
    {
      "midi": 50,
      "hit": false,
      "t": 15583.706156249977,
      "d": 296.2849921874986,
      "v": 52
    },
    {
      "midi": 74,
      "hit": false,
      "t": 15863.4080332031,
      "d": 264.22430273437385,
      "v": 65
    },
    {
      "midi": 59,
      "hit": false,
      "t": 15863.4080332031,
      "d": 297.94330371093565,
      "v": 53
    },
    {
      "midi": 76,
      "hit": false,
      "t": 16144.768221679662,
      "d": 263.1187617187479,
      "v": 64
    },
    {
      "midi": 43,
      "hit": false,
      "t": 16144.768221679662,
      "d": 296.8377626953097,
      "v": 52
    },
    {
      "midi": 74,
      "hit": false,
      "t": 16425.022869140597,
      "d": 259.8021386718756,
      "v": 67
    },
    {
      "midi": 50,
      "hit": false,
      "t": 16425.022869140597,
      "d": 293.5211396484374,
      "v": 55
    },
    {
      "midi": 73,
      "hit": false,
      "t": 16701.96089355466,
      "d": 262.0132207031238,
      "v": 64
    },
    {
      "midi": 59,
      "hit": false,
      "t": 16701.96089355466,
      "d": 295.73222167968925,
      "v": 52
    },
    {
      "midi": 42,
      "hit": false,
      "t": 16983.321082031223,
      "d": 315.07918945312485,
      "v": 57
    },
    {
      "midi": 71,
      "hit": false,
      "t": 16983.321082031223,
      "d": 577.6451806640616,
      "v": 69
    },
    {
      "midi": 50,
      "hit": false,
      "t": 17281.817156249974,
      "d": 296.2849921874986,
      "v": 52
    },
    {
      "midi": 73,
      "hit": false,
      "t": 17561.519033203098,
      "d": 134.32323339843788,
      "v": 65
    },
    {
      "midi": 57,
      "hit": false,
      "t": 17561.519033203098,
      "d": 297.94330371093747,
      "v": 53
    },
    {
      "midi": 71,
      "hit": false,
      "t": 17704.686594726536,
      "d": 129.34829882812483,
      "v": 64
    },
    {
      "midi": 42,
      "hit": false,
      "t": 17842.87922167966,
      "d": 296.83776269531154,
      "v": 52
    },
    {
      "midi": 69,
      "hit": false,
      "t": 17842.87922167966,
      "d": 2220.479129882813,
      "v": 64
    },
    {
      "midi": 50,
      "hit": false,
      "t": 18123.133869140598,
      "d": 293.5211396484374,
      "v": 55
    },
    {
      "midi": 57,
      "hit": false,
      "t": 18400.07189355466,
      "d": 295.73222167968925,
      "v": 52
    },
    {
      "midi": 42,
      "hit": false,
      "t": 18681.432082031224,
      "d": 315.07918945312485,
      "v": 57
    },
    {
      "midi": 50,
      "hit": false,
      "t": 18979.928156249975,
      "d": 296.2849921874986,
      "v": 52
    },
    {
      "midi": 57,
      "hit": false,
      "t": 19259.6300332031,
      "d": 297.94330371093747,
      "v": 53
    },
    {
      "midi": 42,
      "hit": false,
      "t": 19540.99022167966,
      "d": 296.83776269531154,
      "v": 52
    },
    {
      "midi": 50,
      "hit": false,
      "t": 19821.2448691406,
      "d": 293.5211396484374,
      "v": 55
    },
    {
      "midi": 69,
      "hit": false,
      "t": 20098.182893554662,
      "d": 244.32456445312346,
      "v": 52
    },
    {
      "midi": 57,
      "hit": false,
      "t": 20098.182893554662,
      "d": 295.7322216796856,
      "v": 52
    },
    {
      "midi": 40,
      "hit": false,
      "t": 20379.54308203122,
      "d": 315.07918945312485,
      "v": 56
    },
    {
      "midi": 69,
      "hit": false,
      "t": 20379.54308203122,
      "d": 842.4222539062503,
      "v": 69
    },
    {
      "midi": 47,
      "hit": false,
      "t": 20678.03915624997,
      "d": 296.2849921874986,
      "v": 52
    },
    {
      "midi": 55,
      "hit": false,
      "t": 20957.741033203096,
      "d": 297.94330371093747,
      "v": 53
    },
    {
      "midi": 40,
      "hit": false,
      "t": 21239.10122167966,
      "d": 296.83776269531154,
      "v": 51
    },
    {
      "midi": 67,
      "hit": false,
      "t": 21239.10122167966,
      "d": 1119.9130488281262,
      "v": 64
    },
    {
      "midi": 47,
      "hit": false,
      "t": 21519.355869140596,
      "d": 293.5211396484374,
      "v": 55
    },
    {
      "midi": 55,
      "hit": false,
      "t": 21796.29389355466,
      "d": 295.73222167968925,
      "v": 52
    },
    {
      "midi": 40,
      "hit": false,
      "t": 22077.654082031222,
      "d": 315.07918945312485,
      "v": 56
    },
    {
      "midi": 66,
      "hit": false,
      "t": 22376.150156249972,
      "d": 262.5659912109368,
      "v": 64
    },
    {
      "midi": 47,
      "hit": false,
      "t": 22376.150156249972,
      "d": 296.2849921874986,
      "v": 52
    },
    {
      "midi": 67,
      "hit": false,
      "t": 22655.852033203097,
      "d": 264.22430273437567,
      "v": 65
    },
    {
      "midi": 55,
      "hit": false,
      "t": 22655.852033203097,
      "d": 297.94330371093747,
      "v": 53
    },
    {
      "midi": 71,
      "hit": false,
      "t": 22937.21222167966,
      "d": 263.11876171874974,
      "v": 64
    },
    {
      "midi": 40,
      "hit": false,
      "t": 22937.21222167966,
      "d": 296.83776269531154,
      "v": 51
    },
    {
      "midi": 69,
      "hit": false,
      "t": 23217.466869140597,
      "d": 259.8021386718756,
      "v": 67
    },
    {
      "midi": 47,
      "hit": false,
      "t": 23217.466869140597,
      "d": 293.5211396484374,
      "v": 55
    },
    {
      "midi": 67,
      "hit": false,
      "t": 23494.40489355466,
      "d": 262.0132207031238,
      "v": 64
    },
    {
      "midi": 55,
      "hit": false,
      "t": 23494.40489355466,
      "d": 295.73222167968925,
      "v": 52
    },
    {
      "midi": 38,
      "hit": false,
      "t": 23775.765082031223,
      "d": 315.07918945312485,
      "v": 56
    },
    {
      "midi": 66,
      "hit": false,
      "t": 23775.765082031223,
      "d": 1399.6149257812503,
      "v": 64
    },
    {
      "midi": 45,
      "hit": false,
      "t": 24074.261156249973,
      "d": 296.2849921874986,
      "v": 52
    },
    {
      "midi": 54,
      "hit": false,
      "t": 24353.963033203097,
      "d": 297.94330371093747,
      "v": 53
    },
    {
      "midi": 38,
      "hit": false,
      "t": 24635.32322167966,
      "d": 296.83776269531154,
      "v": 51
    },
    {
      "midi": 45,
      "hit": false,
      "t": 24915.577869140598,
      "d": 293.5211396484374,
      "v": 55
    },
    {
      "midi": 67,
      "hit": false,
      "t": 25192.51589355466,
      "d": 262.0132207031238,
      "v": 64
    },
    {
      "midi": 54,
      "hit": false,
      "t": 25192.51589355466,
      "d": 295.73222167968925,
      "v": 52
    },
    {
      "midi": 42,
      "hit": false,
      "t": 25473.876082031224,
      "d": 315.07918945312485,
      "v": 57
    },
    {
      "midi": 69,
      "hit": false,
      "t": 25473.876082031224,
      "d": 1381.92626953125,
      "v": 64
    },
    {
      "midi": 50,
      "hit": false,
      "t": 25772.372156249974,
      "d": 296.2849921874986,
      "v": 52
    },
    {
      "midi": 57,
      "hit": false,
      "t": 26052.0740332031,
      "d": 297.94330371093747,
      "v": 53
    },
    {
      "midi": 42,
      "hit": false,
      "t": 26333.43422167966,
      "d": 296.83776269531154,
      "v": 52
    },
    {
      "midi": 50,
      "hit": false,
      "t": 26613.6888691406,
      "d": 293.5211396484374,
      "v": 55
    },
    {
      "midi": 69,
      "hit": false,
      "t": 26890.62689355466,
      "d": 295.73222167968925,
      "v": 52
    },
    {
      "midi": 57,
      "hit": false,
      "t": 26890.62689355466,
      "d": 295.73222167968925,
      "v": 52
    },
    {
      "midi": 43,
      "hit": false,
      "t": 27171.987082031224,
      "d": 315.07918945312485,
      "v": 57
    },
    {
      "midi": 71,
      "hit": false,
      "t": 27171.987082031224,
      "d": 577.6451806640616,
      "v": 69
    },
    {
      "midi": 50,
      "hit": false,
      "t": 27470.483156249975,
      "d": 296.2849921874986,
      "v": 52
    },
    {
      "midi": 78,
      "hit": false,
      "t": 27750.1850332031,
      "d": 264.22430273437567,
      "v": 65
    },
    {
      "midi": 59,
      "hit": false,
      "t": 27750.1850332031,
      "d": 297.94330371093747,
      "v": 53
    },
    {
      "midi": 43,
      "hit": false,
      "t": 28031.545221679662,
      "d": 296.83776269531154,
      "v": 52
    },
    {
      "midi": 78,
      "hit": false,
      "t": 28031.545221679662,
      "d": 1119.9130488281262,
      "v": 64
    },
    {
      "midi": 50,
      "hit": false,
      "t": 28311.7998691406,
      "d": 293.5211396484374,
      "v": 55
    },
    {
      "midi": 59,
      "hit": false,
      "t": 28588.737893554662,
      "d": 295.73222167968925,
      "v": 52
    },
    {
      "midi": 43,
      "hit": false,
      "t": 28870.098082031225,
      "d": 315.07918945312485,
      "v": 57
    },
    {
      "midi": 76,
      "hit": false,
      "t": 29168.594156249976,
      "d": 262.5659912109368,
      "v": 64
    },
    {
      "midi": 50,
      "hit": false,
      "t": 29168.594156249976,
      "d": 296.2849921874986,
      "v": 52
    },
    {
      "midi": 78,
      "hit": false,
      "t": 29448.2960332031,
      "d": 264.22430273437567,
      "v": 65
    },
    {
      "midi": 59,
      "hit": false,
      "t": 29448.2960332031,
      "d": 297.94330371093747,
      "v": 53
    },
    {
      "midi": 76,
      "hit": false,
      "t": 29729.656221679663,
      "d": 263.11876171874974,
      "v": 64
    },
    {
      "midi": 43,
      "hit": false,
      "t": 29729.656221679663,
      "d": 296.83776269531154,
      "v": 52
    },
    {
      "midi": 74,
      "hit": false,
      "t": 30009.9108691406,
      "d": 259.8021386718756,
      "v": 67
    },
    {
      "midi": 50,
      "hit": false,
      "t": 30009.9108691406,
      "d": 293.5211396484374,
      "v": 55
    },
    {
      "midi": 73,
      "hit": false,
      "t": 30286.848893554663,
      "d": 262.0132207031238,
      "v": 64
    },
    {
      "midi": 59,
      "hit": false,
      "t": 30286.848893554663,
      "d": 295.73222167968925,
      "v": 52
    },
    {
      "midi": 42,
      "hit": false,
      "t": 30568.209082031226,
      "d": 315.07918945312485,
      "v": 57
    },
    {
      "midi": 71,
      "hit": false,
      "t": 30568.209082031226,
      "d": 577.6451806640616,
      "v": 69
    },
    {
      "midi": 50,
      "hit": false,
      "t": 30866.705156249976,
      "d": 296.2849921874986,
      "v": 52
    },
    {
      "midi": 73,
      "hit": false,
      "t": 31146.4070332031,
      "d": 134.32323339843788,
      "v": 65
    },
    {
      "midi": 57,
      "hit": false,
      "t": 31146.4070332031,
      "d": 297.94330371093747,
      "v": 53
    },
    {
      "midi": 74,
      "hit": false,
      "t": 31289.57459472654,
      "d": 129.34829882812483,
      "v": 64
    },
    {
      "midi": 42,
      "hit": false,
      "t": 31427.767221679664,
      "d": 296.83776269531154,
      "v": 52
    },
    {
      "midi": 73,
      "hit": false,
      "t": 31427.767221679664,
      "d": 2220.479129882806,
      "v": 64
    },
    {
      "midi": 50,
      "hit": false,
      "t": 31708.0218691406,
      "d": 293.5211396484374,
      "v": 55
    },
    {
      "midi": 57,
      "hit": false,
      "t": 31984.959893554664,
      "d": 295.73222167968925,
      "v": 52
    },
    {
      "midi": 42,
      "hit": false,
      "t": 32266.320082031227,
      "d": 315.07918945312485,
      "v": 57
    },
    {
      "midi": 50,
      "hit": false,
      "t": 32564.816156249977,
      "d": 296.2849921874986,
      "v": 52
    },
    {
      "midi": 57,
      "hit": false,
      "t": 32844.5180332031,
      "d": 297.94330371093383,
      "v": 53
    },
    {
      "midi": 42,
      "hit": false,
      "t": 33125.87822167966,
      "d": 296.8377626953079,
      "v": 52
    },
    {
      "midi": 50,
      "hit": false,
      "t": 33406.132869140594,
      "d": 293.5211396484374,
      "v": 55
    },
    {
      "midi": 73,
      "hit": false,
      "t": 33683.07089355466,
      "d": 295.73222167968197,
      "v": 52
    },
    {
      "midi": 57,
      "hit": false,
      "t": 33683.07089355466,
      "d": 295.73222167968197,
      "v": 52
    },
    {
      "midi": 41,
      "hit": false,
      "t": 33964.43108203122,
      "d": 315.0791894531212,
      "v": 57
    },
    {
      "midi": 72,
      "hit": false,
      "t": 33964.43108203122,
      "d": 577.6451806640616,
      "v": 69
    },
    {
      "midi": 48,
      "hit": false,
      "t": 34262.92715624996,
      "d": 296.2849921875022,
      "v": 52
    },
    {
      "midi": 81,
      "hit": false,
      "t": 34542.62903320309,
      "d": 264.22430273437203,
      "v": 65
    },
    {
      "midi": 57,
      "hit": false,
      "t": 34542.62903320309,
      "d": 297.94330371093383,
      "v": 53
    },
    {
      "midi": 41,
      "hit": false,
      "t": 34823.98922167965,
      "d": 296.8377626953079,
      "v": 52
    },
    {
      "midi": 81,
      "hit": false,
      "t": 34823.98922167965,
      "d": 1119.9130488281153,
      "v": 64
    },
    {
      "midi": 48,
      "hit": false,
      "t": 35104.243869140584,
      "d": 293.5211396484374,
      "v": 55
    },
    {
      "midi": 57,
      "hit": false,
      "t": 35381.18189355465,
      "d": 295.73222167968197,
      "v": 52
    },
    {
      "midi": 41,
      "hit": false,
      "t": 35662.54208203121,
      "d": 315.0791894531212,
      "v": 57
    },
    {
      "midi": 79,
      "hit": false,
      "t": 35961.03815624995,
      "d": 262.5659912109404,
      "v": 64
    },
    {
      "midi": 48,
      "hit": false,
      "t": 35961.03815624995,
      "d": 296.2849921875022,
      "v": 52
    },
    {
      "midi": 77,
      "hit": false,
      "t": 36240.74003320308,
      "d": 264.22430273437203,
      "v": 65
    },
    {
      "midi": 57,
      "hit": false,
      "t": 36240.74003320308,
      "d": 297.94330371093383,
      "v": 53
    },
    {
      "midi": 76,
      "hit": false,
      "t": 36522.10022167964,
      "d": 263.1187617187461,
      "v": 64
    },
    {
      "midi": 41,
      "hit": false,
      "t": 36522.10022167964,
      "d": 296.8377626953079,
      "v": 52
    },
    {
      "midi": 74,
      "hit": false,
      "t": 36802.354869140574,
      "d": 259.8021386718756,
      "v": 67
    },
    {
      "midi": 48,
      "hit": false,
      "t": 36802.354869140574,
      "d": 293.5211396484374,
      "v": 55
    },
    {
      "midi": 72,
      "hit": false,
      "t": 37079.29289355464,
      "d": 262.01322070312744,
      "v": 64
    },
    {
      "midi": 57,
      "hit": false,
      "t": 37079.29289355464,
      "d": 295.73222167968925,
      "v": 52
    },
    {
      "midi": 40,
      "hit": false,
      "t": 37360.653082031204,
      "d": 315.0791894531212,
      "v": 56
    },
    {
      "midi": 71,
      "hit": false,
      "t": 37360.653082031204,
      "d": 3393.458147460922,
      "v": 64
    },
    {
      "midi": 47,
      "hit": false,
      "t": 37659.14915624995,
      "d": 296.2849921875022,
      "v": 52
    },
    {
      "midi": 56,
      "hit": false,
      "t": 37938.85103320308,
      "d": 297.94330371093383,
      "v": 53
    },
    {
      "midi": 38,
      "hit": false,
      "t": 38220.21122167964,
      "d": 296.8377626953079,
      "v": 51
    },
    {
      "midi": 45,
      "hit": false,
      "t": 38500.46586914057,
      "d": 293.5211396484374,
      "v": 55
    },
    {
      "midi": 54,
      "hit": false,
      "t": 38777.403893554634,
      "d": 295.73222167968197,
      "v": 52
    },
    {
      "midi": 40,
      "hit": false,
      "t": 39058.76408203119,
      "d": 315.0791894531212,
      "v": 56
    },
    {
      "midi": 47,
      "hit": false,
      "t": 39357.26015624994,
      "d": 296.2849921875022,
      "v": 52
    },
    {
      "midi": 56,
      "hit": false,
      "t": 39636.96203320307,
      "d": 297.94330371093383,
      "v": 53
    },
    {
      "midi": 38,
      "hit": false,
      "t": 39918.32222167963,
      "d": 296.8377626953079,
      "v": 51
    },
    {
      "midi": 45,
      "hit": false,
      "t": 40198.57686914056,
      "d": 293.5211396484374,
      "v": 55
    },
    {
      "midi": 54,
      "hit": false,
      "t": 40475.514893554624,
      "d": 295.73222167968925,
      "v": 52
    },
    {
      "midi": 40,
      "hit": false,
      "t": 40756.87508203119,
      "d": 315.0791894531212,
      "v": 56
    },
    {
      "midi": 47,
      "hit": false,
      "t": 41055.37115624994,
      "d": 296.2849921875022,
      "v": 52
    },
    {
      "midi": 56,
      "hit": false,
      "t": 41335.073033203065,
      "d": 297.94330371093383,
      "v": 53
    },
    {
      "midi": 38,
      "hit": false,
      "t": 41616.433221679625,
      "d": 296.8377626953079,
      "v": 51
    },
    {
      "midi": 45,
      "hit": false,
      "t": 41896.68786914056,
      "d": 293.5211396484374,
      "v": 55
    },
    {
      "midi": 54,
      "hit": false,
      "t": 42173.62589355462,
      "d": 295.73222167968197,
      "v": 52
    },
    {
      "midi": 40,
      "hit": false,
      "t": 42454.98608203118,
      "d": 315.0791894531212,
      "v": 56
    },
    {
      "midi": 47,
      "hit": false,
      "t": 42753.48215624993,
      "d": 296.2849921875022,
      "v": 52
    },
    {
      "midi": 56,
      "hit": false,
      "t": 43033.184033203055,
      "d": 297.94330371093383,
      "v": 53
    },
    {
      "midi": 38,
      "hit": false,
      "t": 43314.544221679615,
      "d": 296.8377626953079,
      "v": 51
    },
    {
      "midi": 71,
      "hit": false,
      "t": 43594.79886914055,
      "d": 132.11215136718965,
      "v": 67
    },
    {
      "midi": 45,
      "hit": false,
      "t": 43594.79886914055,
      "d": 293.5211396484374,
      "v": 55
    },
    {
      "midi": 73,
      "hit": false,
      "t": 43735.75534863274,
      "d": 127.13721679687296,
      "v": 64
    },
    {
      "midi": 74,
      "hit": false,
      "t": 43871.73689355461,
      "d": 127.13721679687296,
      "v": 64
    },
    {
      "midi": 54,
      "hit": false,
      "t": 43871.73689355461,
      "d": 295.73222167968197,
      "v": 52
    },
    {
      "midi": 78,
      "hit": false,
      "t": 44007.718438476484,
      "d": 134.32323339843424,
      "v": 64
    }
  ]
}