{
  "jsonPath": "Rock/Album Rock/Starship/nothings-gonna-stop-us-now.json",
  "path": "Rock\\Album Rock\\Starship\\Nothings Gonna Stop Us Now.mid",
  "name": "Nothings Gonna Stop Us Now",
  "difficulty": "Advanced",
  "bpm": 96,
  "notes": [
    {
      "midi": 50,
      "hit": false,
      "t": 6093.75,
      "d": 55.33854166666697,
      "v": 116
    },
    {
      "midi": 50,
      "hit": false,
      "t": 6250,
      "d": 104.16666666666697,
      "v": 127
    },
    {
      "midi": 47,
      "hit": false,
      "t": 6562.5,
      "d": 65.10416666666697,
      "v": 127
    },
    {
      "midi": 45,
      "hit": false,
      "t": 6875,
      "d": 45.57291666666697,
      "v": 119
    },
    {
      "midi": 45,
      "hit": false,
      "t": 7031.25,
      "d": 61.84895833333303,
      "v": 110
    },
    {
      "midi": 43,
      "hit": false,
      "t": 7187.5,
      "d": 175.78125,
      "v": 127
    },
    {
      "midi": 42,
      "hit": false,
      "t": 7496.744791666666,
      "d": 2187.5,
      "v": 127
    },
    {
      "midi": 49,
      "hit": false,
      "t": 7496.744791666666,
      "d": 2187.5,
      "v": 127
    },
    {
      "midi": 54,
      "hit": false,
      "t": 7496.744791666666,
      "d": 2187.5,
      "v": 127
    },
    {
      "midi": 58,
      "hit": false,
      "t": 7496.744791666666,
      "d": 2187.5,
      "v": 127
    },
    {
      "midi": 36,
      "hit": false,
      "t": 7500,
      "d": 585.9375,
      "v": 127
    },
    {
      "midi": 36,
      "hit": false,
      "t": 8125,
      "d": 585.9375,
      "v": 84
    },
    {
      "midi": 36,
      "hit": false,
      "t": 8750,
      "d": 585.9375,
      "v": 127
    },
    {
      "midi": 36,
      "hit": false,
      "t": 9375,
      "d": 585.9375,
      "v": 84
    },
    {
      "midi": 39,
      "hit": false,
      "t": 9684.244791666666,
      "d": 2812.5,
      "v": 127
    },
    {
      "midi": 53,
      "hit": false,
      "t": 9684.244791666666,
      "d": 2812.5,
      "v": 120
    },
    {
      "midi": 54,
      "hit": false,
      "t": 9684.244791666666,
      "d": 2812.5,
      "v": 127
    },
    {
      "midi": 61,
      "hit": false,
      "t": 9684.244791666666,
      "d": 2812.5,
      "v": 127
    },
    {
      "midi": 36,
      "hit": false,
      "t": 10000,
      "d": 585.9375,
      "v": 127
    },
    {
      "midi": 36,
      "hit": false,
      "t": 10625,
      "d": 585.9375,
      "v": 84
    },
    {
      "midi": 36,
      "hit": false,
      "t": 11250,
      "d": 585.9375,
      "v": 127
    },
    {
      "midi": 36,
      "hit": false,
      "t": 11875,
      "d": 585.9375,
      "v": 84
    },
    {
      "midi": 47,
      "hit": false,
      "t": 12496.744791666666,
      "d": 2187.5,
      "v": 120
    },
    {
      "midi": 54,
      "hit": false,
      "t": 12496.744791666666,
      "d": 2187.5,
      "v": 127
    },
    {
      "midi": 59,
      "hit": false,
      "t": 12496.744791666666,
      "d": 2187.5,
      "v": 127
    },
    {
      "midi": 61,
      "hit": false,
      "t": 12496.744791666666,
      "d": 2187.5,
      "v": 127
    },
    {
      "midi": 63,
      "hit": false,
      "t": 12496.744791666666,
      "d": 2187.5,
      "v": 127
    },
    {
      "midi": 36,
      "hit": false,
      "t": 12500,
      "d": 585.9375,
      "v": 127
    },
    {
      "midi": 36,
      "hit": false,
      "t": 13125,
      "d": 585.9375,
      "v": 84
    },
    {
      "midi": 36,
      "hit": false,
      "t": 13750,
      "d": 585.9375,
      "v": 127
    },
    {
      "midi": 36,
      "hit": false,
      "t": 14375,
      "d": 585.9375,
      "v": 84
    },
    {
      "midi": 58,
      "hit": false,
      "t": 14684.244791666666,
      "d": 156.25,
      "v": 127
    },
    {
      "midi": 49,
      "hit": false,
      "t": 14684.244791666666,
      "d": 1562.5,
      "v": 127
    },
    {
      "midi": 56,
      "hit": false,
      "t": 14684.244791666666,
      "d": 1562.5,
      "v": 127
    },
    {
      "midi": 61,
      "hit": false,
      "t": 14684.244791666666,
      "d": 1562.5,
      "v": 127
    },
    {
      "midi": 66,
      "hit": false,
      "t": 14684.244791666666,
      "d": 1562.5,
      "v": 127
    },
    {
      "midi": 36,
      "hit": false,
      "t": 15000,
      "d": 585.9375,
      "v": 127
    },
    {
      "midi": 36,
      "hit": false,
      "t": 15625,
      "d": 585.9375,
      "v": 84
    },
    {
      "midi": 37,
      "hit": false,
      "t": 16246.744791666666,
      "d": 1249.9999999999982,
      "v": 112
    },
    {
      "midi": 53,
      "hit": false,
      "t": 16246.744791666666,
      "d": 1249.9999999999982,
      "v": 127
    },
    {
      "midi": 56,
      "hit": false,
      "t": 16246.744791666666,
      "d": 1249.9999999999982,
      "v": 127
    },
    {
      "midi": 61,
      "hit": false,
      "t": 16246.744791666666,
      "d": 1249.9999999999982,
      "v": 127
    },
    {
      "midi": 36,
      "hit": false,
      "t": 16250,
      "d": 585.9375,
      "v": 127
    },
    {
      "midi": 36,
      "hit": false,
      "t": 16875,
      "d": 585.9375,
      "v": 84
    },
    {
      "midi": 42,
      "hit": false,
      "t": 17496.744791666664,
      "d": 2187.5,
      "v": 127
    },
    {
      "midi": 49,
      "hit": false,
      "t": 17496.744791666664,
      "d": 2187.5,
      "v": 127
    },
    {
      "midi": 54,
      "hit": false,
      "t": 17496.744791666664,
      "d": 2187.5,
      "v": 127
    },
    {
      "midi": 58,
      "hit": false,
      "t": 17496.744791666664,
      "d": 2187.5,
      "v": 127
    },
    {
      "midi": 36,
      "hit": false,
      "t": 17500,
      "d": 585.9375,
      "v": 127
    },
    {
      "midi": 36,
      "hit": false,
      "t": 18125,
      "d": 585.9375,
      "v": 84
    },
    {
      "midi": 36,
      "hit": false,
      "t": 18750,
      "d": 585.9375,
      "v": 127
    },
    {
      "midi": 36,
      "hit": false,
      "t": 19375,
      "d": 585.9375,
      "v": 84
    },
    {
      "midi": 39,
      "hit": false,
      "t": 19684.244791666664,
      "d": 2812.5,
      "v": 127
    },
    {
      "midi": 53,
      "hit": false,
      "t": 19684.244791666664,
      "d": 2812.5,
      "v": 120
    },
    {
      "midi": 54,
      "hit": false,
      "t": 19684.244791666664,
      "d": 2812.5,
      "v": 127
    },
    {
      "midi": 61,
      "hit": false,
      "t": 19684.244791666664,
      "d": 2812.5,
      "v": 127
    },
    {
      "midi": 36,
      "hit": false,
      "t": 20000,
      "d": 585.9375,
      "v": 127
    },
    {
      "midi": 36,
      "hit": false,
      "t": 20625,
      "d": 585.9375,
      "v": 84
    },
    {
      "midi": 36,
      "hit": false,
      "t": 21250,
      "d": 585.9375,
      "v": 127
    },
    {
      "midi": 36,
      "hit": false,
      "t": 21875,
      "d": 585.9375,
      "v": 84
    },
    {
      "midi": 47,
      "hit": false,
      "t": 22496.744791666664,
      "d": 2187.5,
      "v": 120
    },
    {
      "midi": 54,
      "hit": false,
      "t": 22496.744791666664,
      "d": 2187.5,
      "v": 127
    },
    {
      "midi": 59,
      "hit": false,
      "t": 22496.744791666664,
      "d": 2187.5,
      "v": 127
    },
    {
      "midi": 61,
      "hit": false,
      "t": 22496.744791666664,
      "d": 2187.5,
      "v": 127
    },
    {
      "midi": 63,
      "hit": false,
      "t": 22496.744791666664,
      "d": 2187.5,
      "v": 127
    },
    {
      "midi": 36,
      "hit": false,
      "t": 22500,
      "d": 585.9375,
      "v": 127
    },
    {
      "midi": 36,
      "hit": false,
      "t": 23125,
      "d": 585.9375,
      "v": 84
    },
    {
      "midi": 36,
      "hit": false,
      "t": 23750,
      "d": 585.9375,
      "v": 127
    },
    {
      "midi": 36,
      "hit": false,
      "t": 24375,
      "d": 585.9375,
      "v": 84
    },
    {
      "midi": 58,
      "hit": false,
      "t": 24684.244791666664,
      "d": 156.25,
      "v": 127
    },
    {
      "midi": 61,
      "hit": false,
      "t": 24684.244791666664,
      "d": 1123.046875,
      "v": 127
    },
    {
      "midi": 66,
      "hit": false,
      "t": 24684.244791666664,
      "d": 1123.046875,
      "v": 127
    },
    {
      "midi": 56,
      "hit": false,
      "t": 24684.244791666664,
      "d": 1139.3229166666679,
      "v": 127
    },
    {
      "midi": 49,
      "hit": false,
      "t": 24684.244791666664,
      "d": 2779.947916666668,
      "v": 127
    },
    {
      "midi": 36,
      "hit": false,
      "t": 25000,
      "d": 585.9375,
      "v": 127
    },
    {
      "midi": 36,
      "hit": false,
      "t": 25625,
      "d": 585.9375,
      "v": 84
    },
    {
      "midi": 37,
      "hit": false,
      "t": 26246.744791666664,
      "d": 1250,
      "v": 112
    },
    {
      "midi": 53,
      "hit": false,
      "t": 26246.744791666664,
      "d": 1250,
      "v": 127
    },
    {
      "midi": 56,
      "hit": false,
      "t": 26246.744791666664,
      "d": 1250,
      "v": 127
    },
    {
      "midi": 61,
      "hit": false,
      "t": 26246.744791666664,
      "d": 1250,
      "v": 127
    },
    {
      "midi": 36,
      "hit": false,
      "t": 26250,
      "d": 585.9374999999964,
      "v": 127
    },
    {
      "midi": 45,
      "hit": false,
      "t": 26562.5,
      "d": 81.38020833333212,
      "v": 120
    },
    {
      "midi": 41,
      "hit": false,
      "t": 26562.5,
      "d": 94.40104166666424,
      "v": 100
    },
    {
      "midi": 43,
      "hit": false,
      "t": 26874.999999999996,
      "d": 55.33854166666788,
      "v": 112
    },
    {
      "midi": 48,
      "hit": false,
      "t": 26874.999999999996,
      "d": 58.59375,
      "v": 112
    },
    {
      "midi": 36,
      "hit": false,
      "t": 26874.999999999996,
      "d": 585.9375,
      "v": 84
    },
    {
      "midi": 42,
      "hit": false,
      "t": 27496.744791666664,
      "d": 2187.5,
      "v": 127
    },
    {
      "midi": 49,
      "hit": false,
      "t": 27496.744791666664,
      "d": 2187.5,
      "v": 127
    },
    {
      "midi": 54,
      "hit": false,
      "t": 27496.744791666664,
      "d": 2187.5,
      "v": 106
    },
    {
      "midi": 58,
      "hit": false,
      "t": 27496.744791666664,
      "d": 2187.5,
      "v": 83
    },
    {
      "midi": 61,
      "hit": false,
      "t": 27496.744791666664,
      "d": 2187.5,
      "v": 100
    },
    {
      "midi": 36,
      "hit": false,
      "t": 27499.999999999996,
      "d": 585.9375,
      "v": 127
    },
    {
      "midi": 36,
      "hit": false,
      "t": 28124.999999999996,
      "d": 585.9375,
      "v": 84
    },
    {
      "midi": 36,
      "hit": false,
      "t": 28749.999999999996,
      "d": 585.9375,
      "v": 127
    },
    {
      "midi": 36,
      "hit": false,
      "t": 29374.999999999996,
      "d": 585.9375,
      "v": 84
    },
    {
      "midi": 65,
      "hit": false,
      "t": 29684.244791666664,
      "d": 2187.5,
      "v": 127
    },
    {
      "midi": 39,
      "hit": false,
      "t": 29684.244791666664,
      "d": 2578.125,
      "v": 127
    },
    {
      "midi": 54,
      "hit": false,
      "t": 29684.244791666664,
      "d": 2812.5,
      "v": 127
    },
    {
      "midi": 58,
      "hit": false,
      "t": 29684.244791666664,
      "d": 2812.5,
      "v": 127
    },
    {
      "midi": 61,
      "hit": false,
      "t": 29684.244791666664,
      "d": 2812.5,
      "v": 106
    },
    {
      "midi": 36,
      "hit": false,
      "t": 29999.999999999996,
      "d": 585.9375,
      "v": 127
    },
    {
      "midi": 36,
      "hit": false,
      "t": 30624.999999999996,
      "d": 585.9375,
      "v": 84
    },
    {
      "midi": 36,
      "hit": false,
      "t": 31249.999999999996,
      "d": 585.9375,
      "v": 127
    },
    {
      "midi": 66,
      "hit": false,
      "t": 31871.744791666664,
      "d": 625,
      "v": 127
    },
    {
      "midi": 36,
      "hit": false,
      "t": 31874.999999999996,
      "d": 585.9375,
      "v": 84
    },
    {
      "midi": 47,
      "hit": false,
      "t": 32496.744791666664,
      "d": 2187.5,
      "v": 92
    },
    {
      "midi": 54,
      "hit": false,
      "t": 32496.744791666664,
      "d": 2187.5,
      "v": 127
    },
    {
      "midi": 59,
      "hit": false,
      "t": 32496.744791666664,
      "d": 2187.5,
      "v": 92
    },
    {
      "midi": 61,
      "hit": false,
      "t": 32496.744791666664,
      "d": 2187.5,
      "v": 83
    },
    {
      "midi": 63,
      "hit": false,
      "t": 32496.744791666664,
      "d": 2187.5,
      "v": 96
    },
    {
      "midi": 36,
      "hit": false,
      "t": 32499.999999999996,
      "d": 585.9375000000036,
      "v": 127
    },
    {
      "midi": 36,
      "hit": false,
      "t": 33125,
      "d": 585.9375,
      "v": 84
    },
    {
      "midi": 36,
      "hit": false,
      "t": 33750,
      "d": 585.9375,
      "v": 127
    },
    {
      "midi": 36,
      "hit": false,
      "t": 34375,
      "d": 585.9375,
      "v": 84
    },
    {
      "midi": 37,
      "hit": false,
      "t": 34684.244791666664,
      "d": 1562.5,
      "v": 93
    },
    {
      "midi": 56,
      "hit": false,
      "t": 34684.244791666664,
      "d": 1562.5,
      "v": 127
    },
    {
      "midi": 61,
      "hit": false,
      "t": 34684.244791666664,
      "d": 1562.5,
      "v": 112
    },
    {
      "midi": 66,
      "hit": false,
      "t": 34684.244791666664,
      "d": 1562.5,
      "v": 127
    },
    {
      "midi": 36,
      "hit": false,
      "t": 35000,
      "d": 585.9375,
      "v": 127
    },
    {
      "midi": 36,
      "hit": false,
      "t": 35625,
      "d": 585.9375,
      "v": 84
    },
    {
      "midi": 37,
      "hit": false,
      "t": 36246.744791666664,
      "d": 1250,
      "v": 127
    },
    {
      "midi": 56,
      "hit": false,
      "t": 36246.744791666664,
      "d": 1250,
      "v": 127
    },
    {
      "midi": 61,
      "hit": false,
      "t": 36246.744791666664,
      "d": 1250,
      "v": 127
    },
    {
      "midi": 65,
      "hit": false,
      "t": 36246.744791666664,
      "d": 1250,
      "v": 127
    },
    {
      "midi": 36,
      "hit": false,
      "t": 36250,
      "d": 585.9375,
      "v": 127
    },
    {
      "midi": 36,
      "hit": false,
      "t": 36875,
      "d": 585.9375,
      "v": 84
    },
    {
      "midi": 42,
      "hit": false,
      "t": 37496.744791666664,
      "d": 2187.5,
      "v": 127
    },
    {
      "midi": 49,
      "hit": false,
      "t": 37496.744791666664,
      "d": 2187.5,
      "v": 127
    },
    {
      "midi": 54,
      "hit": false,
      "t": 37496.744791666664,
      "d": 2187.5,
      "v": 106
    },
    {
      "midi": 58,
      "hit": false,
      "t": 37496.744791666664,
      "d": 2187.5,
      "v": 83
    },
    {
      "midi": 61,
      "hit": false,
      "t": 37496.744791666664,
      "d": 2187.5,
      "v": 100
    },
    {
      "midi": 36,
      "hit": false,
      "t": 37500,
      "d": 585.9375,
      "v": 127
    },
    {
      "midi": 36,
      "hit": false,
      "t": 38125,
      "d": 585.9375,
      "v": 84
    },
    {
      "midi": 36,
      "hit": false,
      "t": 38750,
      "d": 585.9375,
      "v": 127
    },
    {
      "midi": 36,
      "hit": false,
      "t": 39375,
      "d": 585.9375,
      "v": 84
    },
    {
      "midi": 65,
      "hit": false,
      "t": 39684.244791666664,
      "d": 2031.25,
      "v": 127
    },
    {
      "midi": 58,
      "hit": false,
      "t": 39684.244791666664,
      "d": 2542.3177083333358,
      "v": 127
    },
    {
      "midi": 61,
      "hit": false,
      "t": 39684.244791666664,
      "d": 2548.828125,
      "v": 106
    },
    {
      "midi": 39,
      "hit": false,
      "t": 39684.244791666664,
      "d": 2578.125,
      "v": 127
    },
    {
      "midi": 54,
      "hit": false,
      "t": 39684.244791666664,
      "d": 2600.9114583333358,
      "v": 127
    },
    {
      "midi": 36,
      "hit": false,
      "t": 40000,
      "d": 585.9375,
      "v": 127
    },
    {
      "midi": 36,
      "hit": false,
      "t": 40625,
      "d": 585.9375,
      "v": 84
    },
    {
      "midi": 36,
      "hit": false,
      "t": 41250,
      "d": 585.9375,
      "v": 127
    },
    {
      "midi": 66,
      "hit": false,
      "t": 41871.744791666664,
      "d": 625,
      "v": 127
    },
    {
      "midi": 36,
      "hit": false,
      "t": 41875,
      "d": 585.9375,
      "v": 84
    },
    {
      "midi": 47,
      "hit": false,
      "t": 42496.744791666664,
      "d": 2187.5,
      "v": 92
    },
    {
      "midi": 54,
      "hit": false,
      "t": 42496.744791666664,
      "d": 2187.5,
      "v": 127
    },
    {
      "midi": 59,
      "hit": false,
      "t": 42496.744791666664,
      "d": 2187.5,
      "v": 92
    },
    {
      "midi": 61,
      "hit": false,
      "t": 42496.744791666664,
      "d": 2187.5,
      "v": 83
    },
    {
      "midi": 63,
      "hit": false,
      "t": 42496.744791666664,
      "d": 2187.5,
      "v": 96
    },
    {
      "midi": 36,
      "hit": false,
      "t": 42500,
      "d": 585.9375,
      "v": 127
    },
    {
      "midi": 36,
      "hit": false,
      "t": 43125,
      "d": 585.9375,
      "v": 84
    },
    {
      "midi": 36,
      "hit": false,
      "t": 43750,
      "d": 585.9375,
      "v": 127
    },
    {
      "midi": 36,
      "hit": false,
      "t": 44375,
      "d": 585.9375,
      "v": 84
    },
    {
      "midi": 37,
      "hit": false,
      "t": 44684.244791666664,
      "d": 445.96354166666424,
      "v": 80
    },
    {
      "midi": 56,
      "hit": false,
      "t": 44684.244791666664,
      "d": 1562.5,
      "v": 127
    },
    {
      "midi": 61,
      "hit": false,
      "t": 44684.244791666664,
      "d": 1562.5,
      "v": 112
    },
    {
      "midi": 66,
      "hit": false,
      "t": 44684.244791666664,
      "d": 1562.5,
      "v": 127
    },
    {
      "midi": 25,
      "hit": false,
      "t": 44996.744791666664,
      "d": 787.7604166666642,
      "v": 64
    },
    {
      "midi": 36,
      "hit": false,
      "t": 45000,
      "d": 585.9375,
      "v": 127
    },
    {
      "midi": 37,
      "hit": false,
      "t": 45309.244791666664,
      "d": 224.609375,
      "v": 127
    },
    {
      "midi": 37,
      "hit": false,
      "t": 45621.744791666664,
      "d": 498.046875,
      "v": 127
    },
    {
      "midi": 36,
      "hit": false,
      "t": 45625,
      "d": 585.9375,
      "v": 84
    },
    {
      "midi": 25,
      "hit": false,
      "t": 45934.244791666664,
      "d": 511.06770833333576,
      "v": 127
    },
    {
      "midi": 37,
      "hit": false,
      "t": 46246.744791666664,
      "d": 537.109375,
      "v": 127
    },
    {
      "midi": 56,
      "hit": false,
      "t": 46246.744791666664,
      "d": 1250,
      "v": 127
    },
    {
      "midi": 61,
      "hit": false,
      "t": 46246.744791666664,
      "d": 1250,
      "v": 127
    },
    {
      "midi": 65,
      "hit": false,
      "t": 46246.744791666664,
      "d": 1250,
      "v": 127
    },
    {
      "midi": 36,
      "hit": false,
      "t": 46250,
      "d": 585.9375,
      "v": 127
    },
    {
      "midi": 25,
      "hit": false,
      "t": 46559.244791666664,
      "d": 481.77083333333576,
      "v": 112
    },
    {
      "midi": 37,
      "hit": false,
      "t": 46871.744791666664,
      "d": 615.234375,
      "v": 127
    },
    {
      "midi": 36,
      "hit": false,
      "t": 46875,
      "d": 156.25,
      "v": 84
    },
    {
      "midi": 25,
      "hit": false,
      "t": 47184.244791666664,
      "d": 341.796875,
      "v": 106
    },
    {
      "midi": 42,
      "hit": false,
      "t": 47496.744791666664,
      "d": 2187.5,
      "v": 127
    },
    {
      "midi": 49,
      "hit": false,
      "t": 47496.744791666664,
      "d": 2187.5,
      "v": 127
    },
    {
      "midi": 54,
      "hit": false,
      "t": 47496.744791666664,
      "d": 2187.5,
      "v": 106
    },
    {
      "midi": 58,
      "hit": false,
      "t": 47496.744791666664,
      "d": 2187.5,
      "v": 83
    },
    {
      "midi": 61,
      "hit": false,
      "t": 47496.744791666664,
      "d": 2187.5,
      "v": 100
    },
    {
      "midi": 36,
      "hit": false,
      "t": 47500,
      "d": 273.4375,
      "v": 127
    },
    {
      "midi": 36,
      "hit": false,
      "t": 48125,
      "d": 585.9375,
      "v": 84
    },
    {
      "midi": 36,
      "hit": false,
      "t": 48750,
      "d": 585.9375,
      "v": 127
    },
    {
      "midi": 36,
      "hit": false,
      "t": 49375,
      "d": 585.9375,
      "v": 84
    },
    {
      "midi": 65,
      "hit": false,
      "t": 49684.244791666664,
      "d": 2187.5,
      "v": 127
    },
    {
      "midi": 39,
      "hit": false,
      "t": 49684.244791666664,
      "d": 2578.125,
      "v": 127
    },
    {
      "midi": 54,
      "hit": false,
      "t": 49684.244791666664,
      "d": 2812.5,
      "v": 127
    },
    {
      "midi": 58,
      "hit": false,
      "t": 49684.244791666664,
      "d": 2812.5,
      "v": 127
    },
    {
      "midi": 61,
      "hit": false,
      "t": 49684.244791666664,
      "d": 2812.5,
      "v": 106
    },
    {
      "midi": 36,
      "hit": false,
      "t": 50000,
      "d": 585.9375,
      "v": 127
    },
    {
      "midi": 36,
      "hit": false,
      "t": 50625,
      "d": 585.9375,
      "v": 84
    },
    {
      "midi": 36,
      "hit": false,
      "t": 51250,
      "d": 585.9375,
      "v": 127
    },
    {
      "midi": 66,
      "hit": false,
      "t": 51871.744791666664,
      "d": 625,
      "v": 127
    },
    {
      "midi": 36,
      "hit": false,
      "t": 51875,
      "d": 585.9375,
      "v": 84
    },
    {
      "midi": 47,
      "hit": false,
      "t": 52496.744791666664,
      "d": 2187.5,
      "v": 92
    },
    {
      "midi": 54,
      "hit": false,
      "t": 52496.744791666664,
      "d": 2187.5,
      "v": 127
    },
    {
      "midi": 59,
      "hit": false,
      "t": 52496.744791666664,
      "d": 2187.5,
      "v": 92
    },
    {
      "midi": 61,
      "hit": false,
      "t": 52496.744791666664,
      "d": 2187.5,
      "v": 83
    },
    {
      "midi": 63,
      "hit": false,
      "t": 52496.744791666664,
      "d": 2187.5,
      "v": 96
    },
    {
      "midi": 36,
      "hit": false,
      "t": 52500,
      "d": 585.9375,
      "v": 127
    },
    {
      "midi": 36,
      "hit": false,
      "t": 53125,
      "d": 585.9375,
      "v": 84
    },
    {
      "midi": 36,
      "hit": false,
      "t": 53750,
      "d": 585.9375,
      "v": 127
    },
    {
      "midi": 36,
      "hit": false,
      "t": 54375,
      "d": 585.9375,
      "v": 84
    },
    {
      "midi": 37,
      "hit": false,
      "t": 54684.244791666664,
      "d": 1562.5,
      "v": 93
    },
    {
      "midi": 56,
      "hit": false,
      "t": 54684.244791666664,
      "d": 1562.5,
      "v": 127
    },
    {
      "midi": 61,
      "hit": false,
      "t": 54684.244791666664,
      "d": 1562.5,
      "v": 112
    },
    {
      "midi": 66,
      "hit": false,
      "t": 54684.244791666664,
      "d": 1562.5,
      "v": 127
    },
    {
      "midi": 36,
      "hit": false,
      "t": 55000,
      "d": 585.9375,
      "v": 127
    },
    {
      "midi": 36,
      "hit": false,
      "t": 55625,
      "d": 585.9375,
      "v": 84
    },
    {
      "midi": 37,
      "hit": false,
      "t": 56246.744791666664,
      "d": 1250,
      "v": 127
    },
    {
      "midi": 56,
      "hit": false,
      "t": 56246.744791666664,
      "d": 1250,
      "v": 127
    },
    {
      "midi": 61,
      "hit": false,
      "t": 56246.744791666664,
      "d": 1250,
      "v": 127
    },
    {
      "midi": 65,
      "hit": false,
      "t": 56246.744791666664,
      "d": 1250,
      "v": 127
    },
    {
      "midi": 36,
      "hit": false,
      "t": 56250,
      "d": 585.9375,
      "v": 127
    },
    {
      "midi": 36,
      "hit": false,
      "t": 56875,
      "d": 585.9375,
      "v": 84
    },
    {
      "midi": 42,
      "hit": false,
      "t": 57496.744791666664,
      "d": 2187.5,
      "v": 127
    },
    {
      "midi": 49,
      "hit": false,
      "t": 57496.744791666664,
      "d": 2187.5,
      "v": 127
    },
    {
      "midi": 54,
      "hit": false,
      "t": 57496.744791666664,
      "d": 2187.5,
      "v": 106
    },
    {
      "midi": 58,
      "hit": false,
      "t": 57496.744791666664,
      "d": 2187.5,
      "v": 83
    },
    {
      "midi": 61,
      "hit": false,
      "t": 57496.744791666664,
      "d": 2187.5,
      "v": 100
    },
    {
      "midi": 36,
      "hit": false,
      "t": 57500,
      "d": 585.9375,
      "v": 127
    },
    {
      "midi": 36,
      "hit": false,
      "t": 58125,
      "d": 585.9375,
      "v": 84
    },
    {
      "midi": 36,
      "hit": false,
      "t": 58750,
      "d": 585.9375,
      "v": 127
    },
    {
      "midi": 36,
      "hit": false,
      "t": 59375,
      "d": 585.9375,
      "v": 84
    },
    {
      "midi": 65,
      "hit": false,
      "t": 59684.244791666664,
      "d": 2031.25,
      "v": 127
    },
    {
      "midi": 58,
      "hit": false,
      "t": 59684.244791666664,
      "d": 2542.3177083333358,
      "v": 127
    },
    {
      "midi": 61,
      "hit": false,
      "t": 59684.244791666664,
      "d": 2548.828125,
      "v": 106
    },
    {
      "midi": 39,
      "hit": false,
      "t": 59684.244791666664,
      "d": 2578.125,
      "v": 127
    },
    {
      "midi": 54,
      "hit": false,
      "t": 59684.244791666664,
      "d": 2600.9114583333358,
      "v": 127
    },
    {
      "midi": 36,
      "hit": false,
      "t": 60000,
      "d": 585.9375,
      "v": 127
    },
    {
      "midi": 36,
      "hit": false,
      "t": 60625,
      "d": 585.9375,
      "v": 84
    },
    {
      "midi": 36,
      "hit": false,
      "t": 61250,
      "d": 585.9375,
      "v": 127
    },
    {
      "midi": 66,
      "hit": false,
      "t": 61871.744791666664,
      "d": 625,
      "v": 127
    },
    {
      "midi": 36,
      "hit": false,
      "t": 61875,
      "d": 585.9375,
      "v": 84
    },
    {
      "midi": 47,
      "hit": false,
      "t": 62496.744791666664,
      "d": 2187.5,
      "v": 92
    },
    {
      "midi": 54,
      "hit": false,
      "t": 62496.744791666664,
      "d": 2187.5,
      "v": 127
    },
    {
      "midi": 59,
      "hit": false,
      "t": 62496.744791666664,
      "d": 2187.5,
      "v": 92
    },
    {
      "midi": 63,
      "hit": false,
      "t": 62496.744791666664,
      "d": 2187.5,
      "v": 96
    },
    {
      "midi": 80,
      "hit": false,
      "t": 62496.744791666664,
      "d": 2187.5,
      "v": 83
    },
    {
      "midi": 36,
      "hit": false,
      "t": 62500,
      "d": 585.9375,
      "v": 127
    },
    {
      "midi": 36,
      "hit": false,
      "t": 63125,
      "d": 585.9375,
      "v": 84
    },
    {
      "midi": 36,
      "hit": false,
      "t": 63750,
      "d": 585.9375,
      "v": 127
    },
    {
      "midi": 36,
      "hit": false,
      "t": 64375,
      "d": 585.9375,
      "v": 84
    },
    {
      "midi": 28,
      "hit": false,
      "t": 64996.744791666664,
      "d": 2285.1562499999927,
      "v": 92
    },
    {
      "midi": 40,
      "hit": false,
      "t": 64996.744791666664,
      "d": 2499.9999999999927,
      "v": 120
    },
    {
      "midi": 47,
      "hit": false,
      "t": 64996.744791666664,
      "d": 2499.9999999999927,
      "v": 127
    },
    {
      "midi": 52,
      "hit": false,
      "t": 64996.744791666664,
      "d": 2499.9999999999927,
      "v": 127
    },
    {
      "midi": 56,
      "hit": false,
      "t": 64996.744791666664,
      "d": 2499.9999999999927,
      "v": 112
    },
    {
      "midi": 36,
      "hit": false,
      "t": 65000,
      "d": 585.9375,
      "v": 127
    },
    {
      "midi": 59,
      "hit": false,
      "t": 65621.74479166666,
      "d": 1250,
      "v": 127
    },
    {
      "midi": 71,
      "hit": false,
      "t": 65621.74479166666,
      "d": 1250,
      "v": 127
    },
    {
      "midi": 36,
      "hit": false,
      "t": 65625,
      "d": 585.9375,
      "v": 84
    },
    {
      "midi": 64,
      "hit": false,
      "t": 66246.74479166666,
      "d": 1250,
      "v": 127
    },
    {
      "midi": 76,
      "hit": false,
      "t": 66246.74479166666,
      "d": 1250,
      "v": 127
    },
    {
      "midi": 36,
      "hit": false,
      "t": 66250,
      "d": 585.9375,
      "v": 127
    },
    {
      "midi": 59,
      "hit": false,
      "t": 66871.74479166666,
      "d": 625,
      "v": 127
    },
    {
      "midi": 71,
      "hit": false,
      "t": 66871.74479166666,
      "d": 625,
      "v": 127
    },
    {
      "midi": 36,
      "hit": false,
      "t": 66875,
      "d": 156.25,
      "v": 84
    },
    {
      "midi": 56,
      "hit": false,
      "t": 67496.74479166666,
      "d": 625,
      "v": 127
    },
    {
      "midi": 61,
      "hit": false,
      "t": 67496.74479166666,
      "d": 1250,
      "v": 127
    },
    {
      "midi": 37,
      "hit": false,
      "t": 67496.74479166666,
      "d": 2500,
      "v": 127
    },
    {
      "midi": 53,
      "hit": false,
      "t": 67496.74479166666,
      "d": 2500,
      "v": 127
    },
    {
      "midi": 36,
      "hit": false,
      "t": 67500,
      "d": 585.9375,
      "v": 127
    },
    {
      "midi": 68,
      "hit": false,
      "t": 68121.74479166666,
      "d": 1250,
      "v": 127
    },
    {
      "midi": 56,
      "hit": false,
      "t": 68121.74479166666,
      "d": 2031.25,
      "v": 127
    },
    {
      "midi": 36,
      "hit": false,
      "t": 68125,
      "d": 585.9375,
      "v": 84
    },
    {
      "midi": 61,
      "hit": false,
      "t": 68746.74479166666,
      "d": 1250,
      "v": 127
    },
    {
      "midi": 73,
      "hit": false,
      "t": 68746.74479166666,
      "d": 1250,
      "v": 127
    },
    {
      "midi": 36,
      "hit": false,
      "t": 68750,
      "d": 585.9375,
      "v": 127
    },
    {
      "midi": 45,
      "hit": false,
      "t": 69062.5,
      "d": 634.765625,
      "v": 125
    },
    {
      "midi": 68,
      "hit": false,
      "t": 69371.74479166666,
      "d": 625,
      "v": 127
    },
    {
      "midi": 80,
      "hit": false,
      "t": 69371.74479166666,
      "d": 625,
      "v": 127
    },
    {
      "midi": 48,
      "hit": false,
      "t": 69397.78645833333,
      "d": 390.625,
      "v": 127
    },
    {
      "midi": 36,
      "hit": false,
      "t": 69687.5,
      "d": 273.4375,
      "v": 127
    },
    {
      "midi": 42,
      "hit": false,
      "t": 69996.74479166666,
      "d": 2187.5,
      "v": 127
    },
    {
      "midi": 54,
      "hit": false,
      "t": 69996.74479166666,
      "d": 2187.5,
      "v": 127
    },
    {
      "midi": 58,
      "hit": false,
      "t": 69996.74479166666,
      "d": 2187.5,
      "v": 127
    },
    {
      "midi": 61,
      "hit": false,
      "t": 69996.74479166666,
      "d": 2187.5,
      "v": 127
    },
    {
      "midi": 66,
      "hit": false,
      "t": 69996.74479166666,
      "d": 2187.5,
      "v": 127
    },
    {
      "midi": 36,
      "hit": false,
      "t": 70000,
      "d": 273.4375,
      "v": 127
    },
    {
      "midi": 36,
      "hit": false,
      "t": 70625,
      "d": 585.9375,
      "v": 84
    },
    {
      "midi": 36,
      "hit": false,
      "t": 71250,
      "d": 585.9375,
      "v": 127
    },
    {
      "midi": 36,
      "hit": false,
      "t": 71875,
      "d": 585.9375,
      "v": 84
    },
    {
      "midi": 39,
      "hit": false,
      "t": 72184.24479166666,
      "d": 2812.5,
      "v": 127
    },
    {
      "midi": 51,
      "hit": false,
      "t": 72184.24479166666,
      "d": 2812.5,
      "v": 127
    },
    {
      "midi": 58,
      "hit": false,
      "t": 72184.24479166666,
      "d": 2812.5,
      "v": 127
    },
    {
      "midi": 61,
      "hit": false,
      "t": 72184.24479166666,
      "d": 2812.5,
      "v": 127
    },
    {
      "midi": 63,
      "hit": false,
      "t": 72184.24479166666,
      "d": 2812.5,
      "v": 106
    },
    {
      "midi": 66,
      "hit": false,
      "t": 72184.24479166666,
      "d": 2812.5,
      "v": 127
    },
    {
      "midi": 36,
      "hit": false,
      "t": 72500,
      "d": 585.9375,
      "v": 127
    },
    {
      "midi": 36,
      "hit": false,
      "t": 73125,
      "d": 585.9375,
      "v": 84
    },
    {
      "midi": 36,
      "hit": false,
      "t": 73750,
      "d": 585.9375,
      "v": 127
    },
    {
      "midi": 36,
      "hit": false,
      "t": 74375,
      "d": 585.9375,
      "v": 84
    },
    {
      "midi": 35,
      "hit": false,
      "t": 74996.74479166666,
      "d": 2187.5,
      "v": 127
    },
    {
      "midi": 47,
      "hit": false,
      "t": 74996.74479166666,
      "d": 2187.5,
      "v": 127
    },
    {
      "midi": 59,
      "hit": false,
      "t": 74996.74479166666,
      "d": 2187.5,
      "v": 127
    },
    {
      "midi": 61,
      "hit": false,
      "t": 74996.74479166666,
      "d": 2187.5,
      "v": 127
    },
    {
      "midi": 66,
      "hit": false,
      "t": 74996.74479166666,
      "d": 2187.5,
      "v": 127
    },
    {
      "midi": 36,
      "hit": false,
      "t": 75000,
      "d": 585.9375,
      "v": 127
    },
    {
      "midi": 36,
      "hit": false,
      "t": 75625,
      "d": 585.9375,
      "v": 84
    },
    {
      "midi": 36,
      "hit": false,
      "t": 76250,
      "d": 585.9375,
      "v": 127
    },
    {
      "midi": 36,
      "hit": false,
      "t": 76875,
      "d": 585.9375,
      "v": 84
    },
    {
      "midi": 56,
      "hit": false,
      "t": 77184.24479166666,
      "d": 1562.5,
      "v": 127
    },
    {
      "midi": 61,
      "hit": false,
      "t": 77184.24479166666,
      "d": 1562.5,
      "v": 127
    },
    {
      "midi": 66,
      "hit": false,
      "t": 77184.24479166666,
      "d": 1562.5,
      "v": 127
    },
    {
      "midi": 37,
      "hit": false,
      "t": 77184.24479166666,
      "d": 2812.5,
      "v": 127
    },
    {
      "midi": 49,
      "hit": false,
      "t": 77184.24479166666,
      "d": 2812.5,
      "v": 127
    },
    {
      "midi": 36,
      "hit": false,
      "t": 77500,
      "d": 585.9375,
      "v": 127
    },
    {
      "midi": 36,
      "hit": false,
      "t": 78125,
      "d": 585.9375,
      "v": 84
    },
    {
      "midi": 56,
      "hit": false,
      "t": 78746.74479166666,
      "d": 1250,
      "v": 112
    },
    {
      "midi": 61,
      "hit": false,
      "t": 78746.74479166666,
      "d": 1250,
      "v": 106
    },
    {
      "midi": 65,
      "hit": false,
      "t": 78746.74479166666,
      "d": 1250,
      "v": 127
    },
    {
      "midi": 36,
      "hit": false,
      "t": 78750,
      "d": 585.9375,
      "v": 127
    },
    {
      "midi": 36,
      "hit": false,
      "t": 79375,
      "d": 205.078125,
      "v": 84
    },
    {
      "midi": 36,
      "hit": false,
      "t": 79687.5,
      "d": 156.25,
      "v": 127
    },
    {
      "midi": 42,
      "hit": false,
      "t": 79996.74479166666,
      "d": 2187.5,
      "v": 127
    },
    {
      "midi": 54,
      "hit": false,
      "t": 79996.74479166666,
      "d": 2187.5,
      "v": 127
    },
    {
      "midi": 58,
      "hit": false,
      "t": 79996.74479166666,
      "d": 2187.5,
      "v": 127
    },
    {
      "midi": 61,
      "hit": false,
      "t": 79996.74479166666,
      "d": 2187.5,
      "v": 127
    },
    {
      "midi": 66,
      "hit": false,
      "t": 79996.74479166666,
      "d": 2187.5,
      "v": 127
    },
    {
      "midi": 36,
      "hit": false,
      "t": 80000,
      "d": 585.9375,
      "v": 127
    },
    {
      "midi": 36,
      "hit": false,
      "t": 80625,
      "d": 585.9375,
      "v": 84
    },
    {
      "midi": 36,
      "hit": false,
      "t": 81250,
      "d": 585.9375,
      "v": 127
    },
    {
      "midi": 36,
      "hit": false,
      "t": 81875,
      "d": 585.9375,
      "v": 84
    },
    {
      "midi": 39,
      "hit": false,
      "t": 82184.24479166666,
      "d": 2812.5,
      "v": 127
    },
    {
      "midi": 51,
      "hit": false,
      "t": 82184.24479166666,
      "d": 2812.5,
      "v": 127
    },
    {
      "midi": 58,
      "hit": false,
      "t": 82184.24479166666,
      "d": 2812.5,
      "v": 127
    },
    {
      "midi": 61,
      "hit": false,
      "t": 82184.24479166666,
      "d": 2812.5,
      "v": 127
    },
    {
      "midi": 66,
      "hit": false,
      "t": 82184.24479166666,
      "d": 2812.5,
      "v": 127
    },
    {
      "midi": 36,
      "hit": false,
      "t": 82500,
      "d": 585.9375,
      "v": 127
    },
    {
      "midi": 36,
      "hit": false,
      "t": 83125,
      "d": 585.9375,
      "v": 84
    },
    {
      "midi": 36,
      "hit": false,
      "t": 83750,
      "d": 585.9375,
      "v": 127
    },
    {
      "midi": 36,
      "hit": false,
      "t": 84375,
      "d": 585.9375,
      "v": 84
    },
    {
      "midi": 35,
      "hit": false,
      "t": 84996.74479166666,
      "d": 2187.5,
      "v": 127
    },
    {
      "midi": 47,
      "hit": false,
      "t": 84996.74479166666,
      "d": 2187.5,
      "v": 127
    },
    {
      "midi": 59,
      "hit": false,
      "t": 84996.74479166666,
      "d": 2187.5,
      "v": 127
    },
    {
      "midi": 61,
      "hit": false,
      "t": 84996.74479166666,
      "d": 2187.5,
      "v": 127
    },
    {
      "midi": 66,
      "hit": false,
      "t": 84996.74479166666,
      "d": 2187.5,
      "v": 127
    },
    {
      "midi": 36,
      "hit": false,
      "t": 85000,
      "d": 585.9375,
      "v": 127
    },
    {
      "midi": 36,
      "hit": false,
      "t": 85625,
      "d": 585.9375,
      "v": 84
    },
    {
      "midi": 36,
      "hit": false,
      "t": 86250,
      "d": 585.9375,
      "v": 127
    },
    {
      "midi": 36,
      "hit": false,
      "t": 86875,
      "d": 585.9375,
      "v": 84
    },
    {
      "midi": 56,
      "hit": false,
      "t": 87184.24479166666,
      "d": 1516.9270833333285,
      "v": 127
    },
    {
      "midi": 66,
      "hit": false,
      "t": 87184.24479166666,
      "d": 1529.947916666657,
      "v": 127
    },
    {
      "midi": 61,
      "hit": false,
      "t": 87184.24479166666,
      "d": 1562.4999999999854,
      "v": 127
    },
    {
      "midi": 49,
      "hit": false,
      "t": 87184.24479166666,
      "d": 2610.677083333314,
      "v": 127
    },
    {
      "midi": 37,
      "hit": false,
      "t": 87184.24479166666,
      "d": 2636.7187499999854,
      "v": 127
    },
    {
      "midi": 36,
      "hit": false,
      "t": 87500,
      "d": 585.9375,
      "v": 127
    },
    {
      "midi": 36,
      "hit": false,
      "t": 88125,
      "d": 585.9375,
      "v": 84
    },
    {
      "midi": 56,
      "hit": false,
      "t": 88746.74479166664,
      "d": 1250,
      "v": 127
    },
    {
      "midi": 61,
      "hit": false,
      "t": 88746.74479166664,
      "d": 1250,
      "v": 127
    },
    {
      "midi": 65,
      "hit": false,
      "t": 88746.74479166664,
      "d": 1250,
      "v": 127
    },
    {
      "midi": 36,
      "hit": false,
      "t": 88750,
      "d": 585.9375,
      "v": 127
    },
    {
      "midi": 43,
      "hit": false,
      "t": 89062.5,
      "d": 58.59375,
      "v": 113
    },
    {
      "midi": 48,
      "hit": false,
      "t": 89375,
      "d": 68.359375,
      "v": 94
    },
    {
      "midi": 36,
      "hit": false,
      "t": 89375,
      "d": 156.25,
      "v": 84
    },
    {
      "midi": 36,
      "hit": false,
      "t": 89687.5,
      "d": 156.25,
      "v": 127
    },
    {
      "midi": 28,
      "hit": false,
      "t": 89996.74479166664,
      "d": 5000,
      "v": 127
    },
    {
      "midi": 40,
      "hit": false,
      "t": 89996.74479166664,
      "d": 5000,
      "v": 127
    },
    {
      "midi": 56,
      "hit": false,
      "t": 89996.74479166664,
      "d": 5000,
      "v": 127
    },
    {
      "midi": 59,
      "hit": false,
      "t": 89996.74479166664,
      "d": 5000,
      "v": 127
    },
    {
      "midi": 64,
      "hit": false,
      "t": 89996.74479166664,
      "d": 5000,
      "v": 127
    },
    {
      "midi": 36,
      "hit": false,
      "t": 90000,
      "d": 585.9375,
      "v": 127
    },
    {
      "midi": 57,
      "hit": false,
      "t": 90000,
      "d": 1188.1510416666715,
      "v": 41
    },
    {
      "midi": 49,
      "hit": false,
      "t": 90003.25520833333,
      "d": 1184.895833333343,
      "v": 60
    },
    {
      "midi": 36,
      "hit": false,
      "t": 90625,
      "d": 585.9375,
      "v": 84
    },
    {
      "midi": 36,
      "hit": false,
      "t": 91250,
      "d": 585.9375,
      "v": 127
    },
    {
      "midi": 36,
      "hit": false,
      "t": 91875,
      "d": 39.0625,
      "v": 84
    },
    {
      "midi": 36,
      "hit": false,
      "t": 92187.5,
      "d": 68.359375,
      "v": 120
    },
    {
      "midi": 36,
      "hit": false,
      "t": 92343.75,
      "d": 156.25,
      "v": 127
    },
    {
      "midi": 36,
      "hit": false,
      "t": 92500,
      "d": 585.9375,
      "v": 88
    },
    {
      "midi": 45,
      "hit": false,
      "t": 93750,
      "d": 292.96875,
      "v": 127
    },
    {
      "midi": 43,
      "hit": false,
      "t": 94062.5,
      "d": 162.76041666667152,
      "v": 63
    },
    {
      "midi": 36,
      "hit": false,
      "t": 94687.5,
      "d": 156.25,
      "v": 127
    },
    {
      "midi": 42,
      "hit": false,
      "t": 94996.74479166664,
      "d": 2187.5,
      "v": 127
    },
    {
      "midi": 49,
      "hit": false,
      "t": 94996.74479166664,
      "d": 2187.5,
      "v": 127
    },
    {
      "midi": 54,
      "hit": false,
      "t": 94996.74479166664,
      "d": 2187.5,
      "v": 106
    },
    {
      "midi": 58,
      "hit": false,
      "t": 94996.74479166664,
      "d": 2187.5,
      "v": 83
    },
    {
      "midi": 61,
      "hit": false,
      "t": 94996.74479166664,
      "d": 2187.5,
      "v": 100
    },
    {
      "midi": 36,
      "hit": false,
      "t": 95000,
      "d": 585.9375,
      "v": 127
    },
    {
      "midi": 36,
      "hit": false,
      "t": 95625,
      "d": 585.9375,
      "v": 84
    },
    {
      "midi": 36,
      "hit": false,
      "t": 96250,
      "d": 585.9375,
      "v": 127
    },
    {
      "midi": 36,
      "hit": false,
      "t": 96875,
      "d": 585.9375,
      "v": 84
    },
    {
      "midi": 65,
      "hit": false,
      "t": 97184.24479166664,
      "d": 2187.5,
      "v": 127
    },
    {
      "midi": 39,
      "hit": false,
      "t": 97184.24479166664,
      "d": 2578.125,
      "v": 127
    },
    {
      "midi": 54,
      "hit": false,
      "t": 97184.24479166664,
      "d": 2812.5,
      "v": 127
    },
    {
      "midi": 58,
      "hit": false,
      "t": 97184.24479166664,
      "d": 2812.5,
      "v": 127
    },
    {
      "midi": 61,
      "hit": false,
      "t": 97184.24479166664,
      "d": 2812.5,
      "v": 106
    },
    {
      "midi": 36,
      "hit": false,
      "t": 97500,
      "d": 585.9375,
      "v": 127
    },
    {
      "midi": 36,
      "hit": false,
      "t": 98125,
      "d": 585.9375,
      "v": 84
    },
    {
      "midi": 36,
      "hit": false,
      "t": 98750,
      "d": 585.9375,
      "v": 127
    },
    {
      "midi": 66,
      "hit": false,
      "t": 99371.74479166664,
      "d": 625,
      "v": 127
    },
    {
      "midi": 36,
      "hit": false,
      "t": 99375,
      "d": 585.9375,
      "v": 84
    },
    {
      "midi": 47,
      "hit": false,
      "t": 99996.74479166664,
      "d": 2187.5,
      "v": 92
    },
    {
      "midi": 54,
      "hit": false,
      "t": 99996.74479166664,
      "d": 2187.5,
      "v": 127
    },
    {
      "midi": 59,
      "hit": false,
      "t": 99996.74479166664,
      "d": 2187.5,
      "v": 92
    },
    {
      "midi": 61,
      "hit": false,
      "t": 99996.74479166664,
      "d": 2187.5,
      "v": 83
    },
    {
      "midi": 63,
      "hit": false,
      "t": 99996.74479166664,
      "d": 2187.5,
      "v": 96
    },
    {
      "midi": 36,
      "hit": false,
      "t": 100000,
      "d": 585.9375,
      "v": 127
    },
    {
      "midi": 36,
      "hit": false,
      "t": 100625,
      "d": 585.9375,
      "v": 84
    },
    {
      "midi": 36,
      "hit": false,
      "t": 101250,
      "d": 585.9375,
      "v": 127
    },
    {
      "midi": 36,
      "hit": false,
      "t": 101875,
      "d": 585.9375,
      "v": 84
    },
    {
      "midi": 37,
      "hit": false,
      "t": 102184.24479166664,
      "d": 1562.5,
      "v": 93
    },
    {
      "midi": 56,
      "hit": false,
      "t": 102184.24479166664,
      "d": 1562.5,
      "v": 127
    },
    {
      "midi": 61,
      "hit": false,
      "t": 102184.24479166664,
      "d": 1562.5,
      "v": 112
    },
    {
      "midi": 66,
      "hit": false,
      "t": 102184.24479166664,
      "d": 1562.5,
      "v": 127
    },
    {
      "midi": 36,
      "hit": false,
      "t": 102500,
      "d": 585.9375,
      "v": 127
    },
    {
      "midi": 36,
      "hit": false,
      "t": 103125,
      "d": 585.9375,
      "v": 84
    },
    {
      "midi": 37,
      "hit": false,
      "t": 103746.74479166664,
      "d": 1250,
      "v": 127
    },
    {
      "midi": 56,
      "hit": false,
      "t": 103746.74479166664,
      "d": 1250,
      "v": 127
    },
    {
      "midi": 61,
      "hit": false,
      "t": 103746.74479166664,
      "d": 1250,
      "v": 127
    },
    {
      "midi": 65,
      "hit": false,
      "t": 103746.74479166664,
      "d": 1250,
      "v": 127
    },
    {
      "midi": 36,
      "hit": false,
      "t": 103750,
      "d": 585.9375,
      "v": 127
    },
    {
      "midi": 36,
      "hit": false,
      "t": 104375,
      "d": 585.9375,
      "v": 84
    },
    {
      "midi": 42,
      "hit": false,
      "t": 104996.74479166664,
      "d": 2187.5,
      "v": 127
    },
    {
      "midi": 49,
      "hit": false,
      "t": 104996.74479166664,
      "d": 2187.5,
      "v": 127
    },
    {
      "midi": 54,
      "hit": false,
      "t": 104996.74479166664,
      "d": 2187.5,
      "v": 106
    },
    {
      "midi": 58,
      "hit": false,
      "t": 104996.74479166664,
      "d": 2187.5,
      "v": 83
    },
    {
      "midi": 61,
      "hit": false,
      "t": 104996.74479166664,
      "d": 2187.5,
      "v": 100
    },
    {
      "midi": 36,
      "hit": false,
      "t": 105000,
      "d": 585.9375,
      "v": 127
    },
    {
      "midi": 36,
      "hit": false,
      "t": 105625,
      "d": 585.9375,
      "v": 84
    },
    {
      "midi": 36,
      "hit": false,
      "t": 106250,
      "d": 585.9375,
      "v": 127
    },
    {
      "midi": 36,
      "hit": false,
      "t": 106875,
      "d": 585.9375,
      "v": 84
    },
    {
      "midi": 65,
      "hit": false,
      "t": 107184.24479166664,
      "d": 2031.25,
      "v": 127
    },
    {
      "midi": 58,
      "hit": false,
      "t": 107184.24479166664,
      "d": 2542.3177083333285,
      "v": 127
    },
    {
      "midi": 61,
      "hit": false,
      "t": 107184.24479166664,
      "d": 2548.828125,
      "v": 106
    },
    {
      "midi": 39,
      "hit": false,
      "t": 107184.24479166664,
      "d": 2578.125,
      "v": 127
    },
    {
      "midi": 54,
      "hit": false,
      "t": 107184.24479166664,
      "d": 2600.9114583333285,
      "v": 127
    },
    {
      "midi": 36,
      "hit": false,
      "t": 107500,
      "d": 585.9375,
      "v": 127
    },
    {
      "midi": 36,
      "hit": false,
      "t": 108125,
      "d": 585.9375,
      "v": 84
    },
    {
      "midi": 36,
      "hit": false,
      "t": 108750,
      "d": 585.9375,
      "v": 127
    },
    {
      "midi": 66,
      "hit": false,
      "t": 109371.74479166664,
      "d": 625,
      "v": 127
    },
    {
      "midi": 36,
      "hit": false,
      "t": 109375,
      "d": 585.9375,
      "v": 84
    },
    {
      "midi": 47,
      "hit": false,
      "t": 109996.74479166664,
      "d": 2187.5,
      "v": 92
    },
    {
      "midi": 54,
      "hit": false,
      "t": 109996.74479166664,
      "d": 2187.5,
      "v": 127
    },
    {
      "midi": 59,
      "hit": false,
      "t": 109996.74479166664,
      "d": 2187.5,
      "v": 92
    },
    {
      "midi": 61,
      "hit": false,
      "t": 109996.74479166664,
      "d": 2187.5,
      "v": 83
    },
    {
      "midi": 63,
      "hit": false,
      "t": 109996.74479166664,
      "d": 2187.5,
      "v": 96
    },
    {
      "midi": 36,
      "hit": false,
      "t": 110000,
      "d": 585.9375,
      "v": 127
    },
    {
      "midi": 36,
      "hit": false,
      "t": 110625,
      "d": 585.9375,
      "v": 84
    },
    {
      "midi": 36,
      "hit": false,
      "t": 111250,
      "d": 585.9375,
      "v": 127
    },
    {
      "midi": 36,
      "hit": false,
      "t": 111875,
      "d": 585.9375,
      "v": 84
    },
    {
      "midi": 37,
      "hit": false,
      "t": 112184.24479166664,
      "d": 445.9635416666715,
      "v": 80
    },
    {
      "midi": 56,
      "hit": false,
      "t": 112184.24479166664,
      "d": 1562.5,
      "v": 127
    },
    {
      "midi": 61,
      "hit": false,
      "t": 112184.24479166664,
      "d": 1562.5,
      "v": 112
    },
    {
      "midi": 66,
      "hit": false,
      "t": 112184.24479166664,
      "d": 1562.5,
      "v": 127
    },
    {
      "midi": 25,
      "hit": false,
      "t": 112496.74479166664,
      "d": 787.7604166666715,
      "v": 64
    },
    {
      "midi": 36,
      "hit": false,
      "t": 112500,
      "d": 585.9375,
      "v": 127
    },
    {
      "midi": 37,
      "hit": false,
      "t": 112809.24479166664,
      "d": 224.609375,
      "v": 127
    },
    {
      "midi": 37,
      "hit": false,
      "t": 113121.74479166664,
      "d": 498.046875,
      "v": 127
    },
    {
      "midi": 36,
      "hit": false,
      "t": 113125,
      "d": 585.9375,
      "v": 84
    },
    {
      "midi": 25,
      "hit": false,
      "t": 113434.24479166664,
      "d": 511.0677083333285,
      "v": 127
    },
    {
      "midi": 37,
      "hit": false,
      "t": 113746.74479166664,
      "d": 537.109375,
      "v": 127
    },
    {
      "midi": 56,
      "hit": false,
      "t": 113746.74479166664,
      "d": 1250,
      "v": 127
    },
    {
      "midi": 61,
      "hit": false,
      "t": 113746.74479166664,
      "d": 1250,
      "v": 127
    },
    {
      "midi": 65,
      "hit": false,
      "t": 113746.74479166664,
      "d": 1250,
      "v": 127
    },
    {
      "midi": 36,
      "hit": false,
      "t": 113750,
      "d": 585.9375,
      "v": 127
    },
    {
      "midi": 25,
      "hit": false,
      "t": 114059.24479166664,
      "d": 481.7708333333285,
      "v": 112
    },
    {
      "midi": 37,
      "hit": false,
      "t": 114371.74479166664,
      "d": 615.234375,
      "v": 127
    },
    {
      "midi": 36,
      "hit": false,
      "t": 114375,
      "d": 156.25,
      "v": 84
    },
    {
      "midi": 25,
      "hit": false,
      "t": 114684.24479166664,
      "d": 341.796875,
      "v": 106
    },
    {
      "midi": 42,
      "hit": false,
      "t": 114996.74479166664,
      "d": 2187.5,
      "v": 127
    },
    {
      "midi": 49,
      "hit": false,
      "t": 114996.74479166664,
      "d": 2187.5,
      "v": 127
    },
    {
      "midi": 54,
      "hit": false,
      "t": 114996.74479166664,
      "d": 2187.5,
      "v": 106
    },
    {
      "midi": 58,
      "hit": false,
      "t": 114996.74479166664,
      "d": 2187.5,
      "v": 83
    },
    {
      "midi": 61,
      "hit": false,
      "t": 114996.74479166664,
      "d": 2187.5,
      "v": 100
    },
    {
      "midi": 36,
      "hit": false,
      "t": 115000,
      "d": 273.4375,
      "v": 127
    },
    {
      "midi": 36,
      "hit": false,
      "t": 115625,
      "d": 585.9375,
      "v": 84
    },
    {
      "midi": 36,
      "hit": false,
      "t": 116250,
      "d": 585.9375,
      "v": 127
    },
    {
      "midi": 36,
      "hit": false,
      "t": 116875,
      "d": 585.9375,
      "v": 84
    },
    {
      "midi": 65,
      "hit": false,
      "t": 117184.24479166664,
      "d": 2187.5,
      "v": 127
    },
    {
      "midi": 39,
      "hit": false,
      "t": 117184.24479166664,
      "d": 2578.125,
      "v": 127
    },
    {
      "midi": 54,
      "hit": false,
      "t": 117184.24479166664,
      "d": 2812.5,
      "v": 127
    },
    {
      "midi": 58,
      "hit": false,
      "t": 117184.24479166664,
      "d": 2812.5,
      "v": 127
    },
    {
      "midi": 61,
      "hit": false,
      "t": 117184.24479166664,
      "d": 2812.5,
      "v": 106
    },
    {
      "midi": 36,
      "hit": false,
      "t": 117500,
      "d": 585.9375,
      "v": 127
    },
    {
      "midi": 36,
      "hit": false,
      "t": 118125,
      "d": 585.9375,
      "v": 84
    },
    {
      "midi": 36,
      "hit": false,
      "t": 118750,
      "d": 585.9375,
      "v": 127
    },
    {
      "midi": 66,
      "hit": false,
      "t": 119371.74479166664,
      "d": 625,
      "v": 127
    },
    {
      "midi": 36,
      "hit": false,
      "t": 119375,
      "d": 585.9375,
      "v": 84
    },
    {
      "midi": 47,
      "hit": false,
      "t": 119996.74479166664,
      "d": 2187.5,
      "v": 92
    },
    {
      "midi": 54,
      "hit": false,
      "t": 119996.74479166664,
      "d": 2187.5,
      "v": 127
    },
    {
      "midi": 59,
      "hit": false,
      "t": 119996.74479166664,
      "d": 2187.5,
      "v": 92
    },
    {
      "midi": 61,
      "hit": false,
      "t": 119996.74479166664,
      "d": 2187.5,
      "v": 83
    },
    {
      "midi": 63,
      "hit": false,
      "t": 119996.74479166664,
      "d": 2187.5,
      "v": 96
    },
    {
      "midi": 36,
      "hit": false,
      "t": 120000,
      "d": 585.9375,
      "v": 127
    },
    {
      "midi": 36,
      "hit": false,
      "t": 120625,
      "d": 585.9375,
      "v": 84
    },
    {
      "midi": 36,
      "hit": false,
      "t": 121250,
      "d": 585.9375,
      "v": 127
    },
    {
      "midi": 36,
      "hit": false,
      "t": 121875,
      "d": 585.9375,
      "v": 84
    },
    {
      "midi": 37,
      "hit": false,
      "t": 122184.24479166664,
      "d": 1562.5,
      "v": 93
    },
    {
      "midi": 56,
      "hit": false,
      "t": 122184.24479166664,
      "d": 1562.5,
      "v": 127
    },
    {
      "midi": 61,
      "hit": false,
      "t": 122184.24479166664,
      "d": 1562.5,
      "v": 112
    },
    {
      "midi": 66,
      "hit": false,
      "t": 122184.24479166664,
      "d": 1562.5,
      "v": 127
    },
    {
      "midi": 36,
      "hit": false,
      "t": 122500,
      "d": 585.9375,
      "v": 127
    },
    {
      "midi": 36,
      "hit": false,
      "t": 123125,
      "d": 585.9375,
      "v": 84
    },
    {
      "midi": 37,
      "hit": false,
      "t": 123746.74479166664,
      "d": 1250,
      "v": 127
    },
    {
      "midi": 56,
      "hit": false,
      "t": 123746.74479166664,
      "d": 1250,
      "v": 127
    },
    {
      "midi": 61,
      "hit": false,
      "t": 123746.74479166664,
      "d": 1250,
      "v": 127
    },
    {
      "midi": 65,
      "hit": false,
      "t": 123746.74479166664,
      "d": 1250,
      "v": 127
    },
    {
      "midi": 36,
      "hit": false,
      "t": 123750,
      "d": 585.9375,
      "v": 127
    },
    {
      "midi": 36,
      "hit": false,
      "t": 124375,
      "d": 585.9375,
      "v": 84
    },
    {
      "midi": 42,
      "hit": false,
      "t": 124996.74479166664,
      "d": 2187.5,
      "v": 127
    },
    {
      "midi": 49,
      "hit": false,
      "t": 124996.74479166664,
      "d": 2187.5,
      "v": 127
    },
    {
      "midi": 54,
      "hit": false,
      "t": 124996.74479166664,
      "d": 2187.5,
      "v": 106
    },
    {
      "midi": 58,
      "hit": false,
      "t": 124996.74479166664,
      "d": 2187.5,
      "v": 83
    },
    {
      "midi": 61,
      "hit": false,
      "t": 124996.74479166664,
      "d": 2187.5,
      "v": 100
    },
    {
      "midi": 36,
      "hit": false,
      "t": 125000,
      "d": 585.9375,
      "v": 127
    },
    {
      "midi": 36,
      "hit": false,
      "t": 125625,
      "d": 585.9375,
      "v": 84
    },
    {
      "midi": 36,
      "hit": false,
      "t": 126250,
      "d": 585.9375,
      "v": 127
    },
    {
      "midi": 36,
      "hit": false,
      "t": 126875,
      "d": 585.9375,
      "v": 84
    },
    {
      "midi": 65,
      "hit": false,
      "t": 127184.24479166664,
      "d": 2031.25,
      "v": 127
    },
    {
      "midi": 58,
      "hit": false,
      "t": 127184.24479166664,
      "d": 2542.3177083333285,
      "v": 127
    },
    {
      "midi": 61,
      "hit": false,
      "t": 127184.24479166664,
      "d": 2548.828125,
      "v": 106
    },
    {
      "midi": 39,
      "hit": false,
      "t": 127184.24479166664,
      "d": 2578.125,
      "v": 127
    },
    {
      "midi": 54,
      "hit": false,
      "t": 127184.24479166664,
      "d": 2600.9114583333285,
      "v": 127
    },
    {
      "midi": 36,
      "hit": false,
      "t": 127500,
      "d": 585.9375,
      "v": 127
    },
    {
      "midi": 36,
      "hit": false,
      "t": 128125,
      "d": 585.9375,
      "v": 84
    },
    {
      "midi": 36,
      "hit": false,
      "t": 128750,
      "d": 585.9375,
      "v": 127
    },
    {
      "midi": 66,
      "hit": false,
      "t": 129371.74479166664,
      "d": 625,
      "v": 127
    },
    {
      "midi": 36,
      "hit": false,
      "t": 129375,
      "d": 585.9375,
      "v": 84
    },
    {
      "midi": 47,
      "hit": false,
      "t": 129996.74479166664,
      "d": 2187.4999999999854,
      "v": 92
    },
    {
      "midi": 54,
      "hit": false,
      "t": 129996.74479166664,
      "d": 2187.4999999999854,
      "v": 127
    },
    {
      "midi": 59,
      "hit": false,
      "t": 129996.74479166664,
      "d": 2187.4999999999854,
      "v": 92
    },
    {
      "midi": 63,
      "hit": false,
      "t": 129996.74479166664,
      "d": 2187.4999999999854,
      "v": 96
    },
    {
      "midi": 80,
      "hit": false,
      "t": 129996.74479166664,
      "d": 2187.4999999999854,
      "v": 83
    },
    {
      "midi": 36,
      "hit": false,
      "t": 130000,
      "d": 585.9375,
      "v": 127
    },
    {
      "midi": 36,
      "hit": false,
      "t": 130625,
      "d": 585.9375,
      "v": 84
    },
    {
      "midi": 36,
      "hit": false,
      "t": 131250,
      "d": 585.9375,
      "v": 127
    },
    {
      "midi": 36,
      "hit": false,
      "t": 131875,
      "d": 585.9375,
      "v": 84
    },
    {
      "midi": 28,
      "hit": false,
      "t": 132496.74479166663,
      "d": 2285.15625,
      "v": 92
    },
    {
      "midi": 40,
      "hit": false,
      "t": 132496.74479166663,
      "d": 2500,
      "v": 120
    },
    {
      "midi": 47,
      "hit": false,
      "t": 132496.74479166663,
      "d": 2500,
      "v": 127
    },
    {
      "midi": 52,
      "hit": false,
      "t": 132496.74479166663,
      "d": 2500,
      "v": 127
    },
    {
      "midi": 56,
      "hit": false,
      "t": 132496.74479166663,
      "d": 2500,
      "v": 112
    },
    {
      "midi": 36,
      "hit": false,
      "t": 132500,
      "d": 585.9375,
      "v": 127
    },
    {
      "midi": 59,
      "hit": false,
      "t": 133121.74479166663,
      "d": 1250,
      "v": 127
    },
    {
      "midi": 71,
      "hit": false,
      "t": 133121.74479166663,
      "d": 1250,
      "v": 127
    },
    {
      "midi": 36,
      "hit": false,
      "t": 133125,
      "d": 585.9375,
      "v": 84
    },
    {
      "midi": 64,
      "hit": false,
      "t": 133746.74479166663,
      "d": 1250,
      "v": 127
    },
    {
      "midi": 76,
      "hit": false,
      "t": 133746.74479166663,
      "d": 1250,
      "v": 127
    },
    {
      "midi": 36,
      "hit": false,
      "t": 133750,
      "d": 585.9375,
      "v": 127
    },
    {
      "midi": 59,
      "hit": false,
      "t": 134371.74479166663,
      "d": 625,
      "v": 127
    },
    {
      "midi": 71,
      "hit": false,
      "t": 134371.74479166663,
      "d": 625,
      "v": 127
    },
    {
      "midi": 36,
      "hit": false,
      "t": 134375,
      "d": 156.25,
      "v": 84
    },
    {
      "midi": 56,
      "hit": false,
      "t": 134996.74479166663,
      "d": 625,
      "v": 127
    },
    {
      "midi": 61,
      "hit": false,
      "t": 134996.74479166663,
      "d": 1250,
      "v": 127
    },
    {
      "midi": 37,
      "hit": false,
      "t": 134996.74479166663,
      "d": 2500,
      "v": 127
    },
    {
      "midi": 53,
      "hit": false,
      "t": 134996.74479166663,
      "d": 2500,
      "v": 127
    },
    {
      "midi": 36,
      "hit": false,
      "t": 135000,
      "d": 585.9375,
      "v": 127
    },
    {
      "midi": 68,
      "hit": false,
      "t": 135621.74479166663,
      "d": 1250,
      "v": 127
    },
    {
      "midi": 56,
      "hit": false,
      "t": 135621.74479166663,
      "d": 2031.25,
      "v": 127
    },
    {
      "midi": 36,
      "hit": false,
      "t": 135625,
      "d": 585.9375,
      "v": 84
    },
    {
      "midi": 48,
      "hit": false,
      "t": 135937.5,
      "d": 78.125,
      "v": 115
    },
    {
      "midi": 61,
      "hit": false,
      "t": 136246.74479166663,
      "d": 1250,
      "v": 127
    },
    {
      "midi": 73,
      "hit": false,
      "t": 136246.74479166663,
      "d": 1250,
      "v": 127
    },
    {
      "midi": 48,
      "hit": false,
      "t": 136250,
      "d": 218.09895833334303,
      "v": 124
    },
    {
      "midi": 36,
      "hit": false,
      "t": 136250,
      "d": 585.9375,
      "v": 127
    },
    {
      "midi": 47,
      "hit": false,
      "t": 136562.5,
      "d": 110.67708333334303,
      "v": 115
    },
    {
      "midi": 68,
      "hit": false,
      "t": 136871.74479166663,
      "d": 625,
      "v": 127
    },
    {
      "midi": 80,
      "hit": false,
      "t": 136871.74479166663,
      "d": 625,
      "v": 127
    },
    {
      "midi": 45,
      "hit": false,
      "t": 136875,
      "d": 143.22916666665697,
      "v": 115
    },
    {
      "midi": 43,
      "hit": false,
      "t": 137031.25,
      "d": 61.848958333343035,
      "v": 106
    },
    {
      "midi": 43,
      "hit": false,
      "t": 137187.5,
      "d": 104.16666666665697,
      "v": 118
    },
    {
      "midi": 36,
      "hit": false,
      "t": 137187.5,
      "d": 273.4375,
      "v": 127
    },
    {
      "midi": 41,
      "hit": false,
      "t": 137343.75,
      "d": 68.359375,
      "v": 112
    },
    {
      "midi": 42,
      "hit": false,
      "t": 137496.74479166663,
      "d": 2187.5,
      "v": 127
    },
    {
      "midi": 54,
      "hit": false,
      "t": 137496.74479166663,
      "d": 2187.5,
      "v": 127
    },
    {
      "midi": 58,
      "hit": false,
      "t": 137496.74479166663,
      "d": 2187.5,
      "v": 127
    },
    {
      "midi": 61,
      "hit": false,
      "t": 137496.74479166663,
      "d": 2187.5,
      "v": 127
    },
    {
      "midi": 66,
      "hit": false,
      "t": 137496.74479166663,
      "d": 2187.5,
      "v": 127
    },
    {
      "midi": 36,
      "hit": false,
      "t": 137500,
      "d": 273.4375,
      "v": 127
    },
    {
      "midi": 36,
      "hit": false,
      "t": 138125,
      "d": 585.9375,
      "v": 84
    },
    {
      "midi": 36,
      "hit": false,
      "t": 138750,
      "d": 585.9375,
      "v": 127
    },
    {
      "midi": 36,
      "hit": false,
      "t": 139375,
      "d": 585.9375,
      "v": 84
    },
    {
      "midi": 39,
      "hit": false,
      "t": 139684.24479166663,
      "d": 2812.5,
      "v": 127
    },
    {
      "midi": 51,
      "hit": false,
      "t": 139684.24479166663,
      "d": 2812.5,
      "v": 127
    },
    {
      "midi": 58,
      "hit": false,
      "t": 139684.24479166663,
      "d": 2812.5,
      "v": 127
    },
    {
      "midi": 61,
      "hit": false,
      "t": 139684.24479166663,
      "d": 2812.5,
      "v": 127
    },
    {
      "midi": 63,
      "hit": false,
      "t": 139684.24479166663,
      "d": 2812.5,
      "v": 106
    },
    {
      "midi": 66,
      "hit": false,
      "t": 139684.24479166663,
      "d": 2812.5,
      "v": 127
    },
    {
      "midi": 36,
      "hit": false,
      "t": 140000,
      "d": 585.9375,
      "v": 127
    },
    {
      "midi": 36,
      "hit": false,
      "t": 140625,
      "d": 585.9375,
      "v": 84
    },
    {
      "midi": 36,
      "hit": false,
      "t": 141250,
      "d": 585.9375,
      "v": 127
    },
    {
      "midi": 36,
      "hit": false,
      "t": 141875,
      "d": 585.9375,
      "v": 84
    },
    {
      "midi": 35,
      "hit": false,
      "t": 142496.74479166663,
      "d": 2187.5,
      "v": 127
    },
    {
      "midi": 47,
      "hit": false,
      "t": 142496.74479166663,
      "d": 2187.5,
      "v": 127
    },
    {
      "midi": 59,
      "hit": false,
      "t": 142496.74479166663,
      "d": 2187.5,
      "v": 127
    },
    {
      "midi": 61,
      "hit": false,
      "t": 142496.74479166663,
      "d": 2187.5,
      "v": 127
    },
    {
      "midi": 66,
      "hit": false,
      "t": 142496.74479166663,
      "d": 2187.5,
      "v": 127
    },
    {
      "midi": 36,
      "hit": false,
      "t": 142500,
      "d": 585.9375,
      "v": 127
    },
    {
      "midi": 36,
      "hit": false,
      "t": 143125,
      "d": 585.9375,
      "v": 84
    },
    {
      "midi": 36,
      "hit": false,
      "t": 143750,
      "d": 585.9375,
      "v": 127
    },
    {
      "midi": 36,
      "hit": false,
      "t": 144375,
      "d": 585.9375,
      "v": 84
    },
    {
      "midi": 56,
      "hit": false,
      "t": 144684.24479166663,
      "d": 1562.5,
      "v": 127
    },
    {
      "midi": 61,
      "hit": false,
      "t": 144684.24479166663,
      "d": 1562.5,
      "v": 127
    },
    {
      "midi": 66,
      "hit": false,
      "t": 144684.24479166663,
      "d": 1562.5,
      "v": 127
    },
    {
      "midi": 37,
      "hit": false,
      "t": 144684.24479166663,
      "d": 2812.5,
      "v": 127
    },
    {
      "midi": 49,
      "hit": false,
      "t": 144684.24479166663,
      "d": 2812.5,
      "v": 127
    },
    {
      "midi": 36,
      "hit": false,
      "t": 145000,
      "d": 585.9375,
      "v": 127
    },
    {
      "midi": 36,
      "hit": false,
      "t": 145625,
      "d": 585.9375,
      "v": 84
    },
    {
      "midi": 56,
      "hit": false,
      "t": 146246.74479166663,
      "d": 1250,
      "v": 112
    },
    {
      "midi": 61,
      "hit": false,
      "t": 146246.74479166663,
      "d": 1250,
      "v": 106
    },
    {
      "midi": 65,
      "hit": false,
      "t": 146246.74479166663,
      "d": 1250,
      "v": 127
    },
    {
      "midi": 36,
      "hit": false,
      "t": 146250,
      "d": 585.9375,
      "v": 127
    },
    {
      "midi": 36,
      "hit": false,
      "t": 146875,
      "d": 205.078125,
      "v": 84
    },
    {
      "midi": 36,
      "hit": false,
      "t": 147187.5,
      "d": 156.25,
      "v": 127
    },
    {
      "midi": 42,
      "hit": false,
      "t": 147496.74479166663,
      "d": 2187.5,
      "v": 127
    },
    {
      "midi": 54,
      "hit": false,
      "t": 147496.74479166663,
      "d": 2187.5,
      "v": 127
    },
    {
      "midi": 58,
      "hit": false,
      "t": 147496.74479166663,
      "d": 2187.5,
      "v": 127
    },
    {
      "midi": 61,
      "hit": false,
      "t": 147496.74479166663,
      "d": 2187.5,
      "v": 127
    },
    {
      "midi": 66,
      "hit": false,
      "t": 147496.74479166663,
      "d": 2187.5,
      "v": 127
    },
    {
      "midi": 36,
      "hit": false,
      "t": 147500,
      "d": 585.9375,
      "v": 127
    },
    {
      "midi": 36,
      "hit": false,
      "t": 148125,
      "d": 585.9375,
      "v": 84
    },
    {
      "midi": 36,
      "hit": false,
      "t": 148750,
      "d": 585.9375,
      "v": 127
    },
    {
      "midi": 36,
      "hit": false,
      "t": 149375,
      "d": 585.9375,
      "v": 84
    },
    {
      "midi": 39,
      "hit": false,
      "t": 149684.24479166663,
      "d": 2812.5,
      "v": 127
    },
    {
      "midi": 51,
      "hit": false,
      "t": 149684.24479166663,
      "d": 2812.5,
      "v": 127
    },
    {
      "midi": 58,
      "hit": false,
      "t": 149684.24479166663,
      "d": 2812.5,
      "v": 127
    },
    {
      "midi": 61,
      "hit": false,
      "t": 149684.24479166663,
      "d": 2812.5,
      "v": 127
    },
    {
      "midi": 66,
      "hit": false,
      "t": 149684.24479166663,
      "d": 2812.5,
      "v": 127
    },
    {
      "midi": 36,
      "hit": false,
      "t": 150000,
      "d": 585.9375,
      "v": 127
    },
    {
      "midi": 36,
      "hit": false,
      "t": 150625,
      "d": 585.9375,
      "v": 84
    },
    {
      "midi": 36,
      "hit": false,
      "t": 151250,
      "d": 585.9375,
      "v": 127
    },
    {
      "midi": 36,
      "hit": false,
      "t": 151875,
      "d": 585.9375,
      "v": 84
    },
    {
      "midi": 35,
      "hit": false,
      "t": 152496.74479166663,
      "d": 2187.5,
      "v": 127
    },
    {
      "midi": 47,
      "hit": false,
      "t": 152496.74479166663,
      "d": 2187.5,
      "v": 127
    },
    {
      "midi": 59,
      "hit": false,
      "t": 152496.74479166663,
      "d": 2187.5,
      "v": 127
    },
    {
      "midi": 61,
      "hit": false,
      "t": 152496.74479166663,
      "d": 2187.5,
      "v": 127
    },
    {
      "midi": 66,
      "hit": false,
      "t": 152496.74479166663,
      "d": 2187.5,
      "v": 127
    },
    {
      "midi": 36,
      "hit": false,
      "t": 152500,
      "d": 585.9375,
      "v": 127
    },
    {
      "midi": 36,
      "hit": false,
      "t": 153125,
      "d": 585.9375,
      "v": 84
    },
    {
      "midi": 36,
      "hit": false,
      "t": 153750,
      "d": 585.9375,
      "v": 127
    },
    {
      "midi": 36,
      "hit": false,
      "t": 154375,
      "d": 585.9375,
      "v": 84
    },
    {
      "midi": 56,
      "hit": false,
      "t": 154684.24479166663,
      "d": 1516.927083333343,
      "v": 127
    },
    {
      "midi": 66,
      "hit": false,
      "t": 154684.24479166663,
      "d": 1529.947916666686,
      "v": 127
    },
    {
      "midi": 61,
      "hit": false,
      "t": 154684.24479166663,
      "d": 1562.500000000029,
      "v": 127
    },
    {
      "midi": 49,
      "hit": false,
      "t": 154684.24479166663,
      "d": 2610.677083333372,
      "v": 127
    },
    {
      "midi": 37,
      "hit": false,
      "t": 154684.24479166663,
      "d": 2636.718750000029,
      "v": 127
    },
    {
      "midi": 36,
      "hit": false,
      "t": 155000,
      "d": 585.9375,
      "v": 127
    },
    {
      "midi": 36,
      "hit": false,
      "t": 155625,
      "d": 585.9375,
      "v": 84
    },
    {
      "midi": 56,
      "hit": false,
      "t": 156246.74479166666,
      "d": 1250,
      "v": 127
    },
    {
      "midi": 61,
      "hit": false,
      "t": 156246.74479166666,
      "d": 1250,
      "v": 127
    },
    {
      "midi": 65,
      "hit": false,
      "t": 156246.74479166666,
      "d": 1250,
      "v": 127
    },
    {
      "midi": 36,
      "hit": false,
      "t": 156250,
      "d": 585.9375,
      "v": 127
    },
    {
      "midi": 43,
      "hit": false,
      "t": 156562.5,
      "d": 58.59375,
      "v": 113
    },
    {
      "midi": 48,
      "hit": false,
      "t": 156875,
      "d": 68.359375,
      "v": 94
    },
    {
      "midi": 36,
      "hit": false,
      "t": 156875,
      "d": 156.25,
      "v": 84
    },
    {
      "midi": 36,
      "hit": false,
      "t": 157187.5,
      "d": 156.25,
      "v": 127
    },
    {
      "midi": 42,
      "hit": false,
      "t": 157496.74479166666,
      "d": 2500,
      "v": 127
    },
    {
      "midi": 54,
      "hit": false,
      "t": 157496.74479166666,
      "d": 2500,
      "v": 127
    },
    {
      "midi": 58,
      "hit": false,
      "t": 157496.74479166666,
      "d": 2500,
      "v": 127
    },
    {
      "midi": 61,
      "hit": false,
      "t": 157496.74479166666,
      "d": 2500,
      "v": 127
    },
    {
      "midi": 36,
      "hit": false,
      "t": 157500,
      "d": 585.9375,
      "v": 127
    },
    {
      "midi": 36,
      "hit": false,
      "t": 158125,
      "d": 585.9375,
      "v": 84
    },
    {
      "midi": 36,
      "hit": false,
      "t": 158750,
      "d": 585.9375,
      "v": 127
    },
    {
      "midi": 36,
      "hit": false,
      "t": 159375,
      "d": 585.9375,
      "v": 84
    },
    {
      "midi": 53,
      "hit": false,
      "t": 159996.74479166666,
      "d": 1754.557291666657,
      "v": 127
    },
    {
      "midi": 56,
      "hit": false,
      "t": 159996.74479166666,
      "d": 1764.322916666657,
      "v": 127
    },
    {
      "midi": 61,
      "hit": false,
      "t": 159996.74479166666,
      "d": 1774.088541666657,
      "v": 127
    },
    {
      "midi": 46,
      "hit": false,
      "t": 159996.74479166666,
      "d": 2503.255208333343,
      "v": 127
    },
    {
      "midi": 36,
      "hit": false,
      "t": 160000,
      "d": 585.9375,
      "v": 127
    },
    {
      "midi": 36,
      "hit": false,
      "t": 160625,
      "d": 585.9375,
      "v": 84
    },
    {
      "midi": 36,
      "hit": false,
      "t": 161250,
      "d": 585.9375,
      "v": 127
    },
    {
      "midi": 54,
      "hit": false,
      "t": 161871.74479166666,
      "d": 550.130208333343,
      "v": 127
    },
    {
      "midi": 61,
      "hit": false,
      "t": 161871.74479166666,
      "d": 556.640625,
      "v": 127
    },
    {
      "midi": 36,
      "hit": false,
      "t": 161875,
      "d": 585.9375,
      "v": 84
    },
    {
      "midi": 47,
      "hit": false,
      "t": 162496.74479166666,
      "d": 2500,
      "v": 100
    },
    {
      "midi": 54,
      "hit": false,
      "t": 162496.74479166666,
      "d": 2500,
      "v": 127
    },
    {
      "midi": 59,
      "hit": false,
      "t": 162496.74479166666,
      "d": 2500,
      "v": 127
    },
    {
      "midi": 61,
      "hit": false,
      "t": 162496.74479166666,
      "d": 2500,
      "v": 34
    },
    {
      "midi": 63,
      "hit": false,
      "t": 162496.74479166666,
      "d": 2500,
      "v": 127
    },
    {
      "midi": 36,
      "hit": false,
      "t": 162500,
      "d": 585.9375,
      "v": 127
    },
    {
      "midi": 36,
      "hit": false,
      "t": 163125,
      "d": 585.9375,
      "v": 84
    },
    {
      "midi": 36,
      "hit": false,
      "t": 163750,
      "d": 585.9375,
      "v": 127
    },
    {
      "midi": 36,
      "hit": false,
      "t": 164375,
      "d": 585.9375,
      "v": 84
    },
    {
      "midi": 44,
      "hit": false,
      "t": 164996.74479166666,
      "d": 1803.385416666657,
      "v": 112
    },
    {
      "midi": 59,
      "hit": false,
      "t": 164996.74479166666,
      "d": 2373.046875,
      "v": 127
    },
    {
      "midi": 66,
      "hit": false,
      "t": 164996.74479166666,
      "d": 2376.302083333343,
      "v": 127
    },
    {
      "midi": 63,
      "hit": false,
      "t": 164996.74479166666,
      "d": 2382.8125,
      "v": 127
    },
    {
      "midi": 36,
      "hit": false,
      "t": 165000,
      "d": 585.9375,
      "v": 127
    },
    {
      "midi": 36,
      "hit": false,
      "t": 165625,
      "d": 585.9375,
      "v": 84
    },
    {
      "midi": 36,
      "hit": false,
      "t": 166250,
      "d": 585.9375,
      "v": 127
    },
    {
      "midi": 49,
      "hit": false,
      "t": 166871.74479166666,
      "d": 625,
      "v": 127
    },
    {
      "midi": 36,
      "hit": false,
      "t": 166875,
      "d": 156.25,
      "v": 84
    },
    {
      "midi": 36,
      "hit": false,
      "t": 167187.5,
      "d": 156.25,
      "v": 127
    },
    {
      "midi": 58,
      "hit": false,
      "t": 167496.74479166666,
      "d": 1562.5,
      "v": 127
    },
    {
      "midi": 61,
      "hit": false,
      "t": 167496.74479166666,
      "d": 1875,
      "v": 127
    },
    {
      "midi": 42,
      "hit": false,
      "t": 167496.74479166666,
      "d": 2500,
      "v": 127
    },
    {
      "midi": 54,
      "hit": false,
      "t": 167496.74479166666,
      "d": 2500,
      "v": 127
    },
    {
      "midi": 36,
      "hit": false,
      "t": 167500,
      "d": 585.9375,
      "v": 127
    },
    {
      "midi": 36,
      "hit": false,
      "t": 168125,
      "d": 585.9375,
      "v": 84
    },
    {
      "midi": 36,
      "hit": false,
      "t": 168750,
      "d": 585.9375,
      "v": 127
    },
    {
      "midi": 58,
      "hit": false,
      "t": 169059.24479166666,
      "d": 937.5,
      "v": 127
    },
    {
      "midi": 61,
      "hit": false,
      "t": 169371.74479166666,
      "d": 625,
      "v": 106
    },
    {
      "midi": 36,
      "hit": false,
      "t": 169375,
      "d": 585.9375,
      "v": 84
    },
    {
      "midi": 66,
      "hit": false,
      "t": 169684.24479166666,
      "d": 312.5,
      "v": 127
    },
    {
      "midi": 56,
      "hit": false,
      "t": 169996.74479166666,
      "d": 625,
      "v": 127
    },
    {
      "midi": 61,
      "hit": false,
      "t": 169996.74479166666,
      "d": 625,
      "v": 127
    },
    {
      "midi": 65,
      "hit": false,
      "t": 169996.74479166666,
      "d": 625,
      "v": 127
    },
    {
      "midi": 46,
      "hit": false,
      "t": 169996.74479166666,
      "d": 2500,
      "v": 127
    },
    {
      "midi": 36,
      "hit": false,
      "t": 170000,
      "d": 585.9375,
      "v": 127
    },
    {
      "midi": 56,
      "hit": false,
      "t": 170621.74479166666,
      "d": 625,
      "v": 127
    },
    {
      "midi": 61,
      "hit": false,
      "t": 170621.74479166666,
      "d": 625,
      "v": 127
    },
    {
      "midi": 66,
      "hit": false,
      "t": 170621.74479166666,
      "d": 625,
      "v": 127
    },
    {
      "midi": 36,
      "hit": false,
      "t": 170625,
      "d": 585.9375,
      "v": 84
    },
    {
      "midi": 56,
      "hit": false,
      "t": 171246.74479166666,
      "d": 1250,
      "v": 127
    },
    {
      "midi": 61,
      "hit": false,
      "t": 171246.74479166666,
      "d": 1250,
      "v": 127
    },
    {
      "midi": 65,
      "hit": false,
      "t": 171246.74479166666,
      "d": 1250,
      "v": 127
    },
    {
      "midi": 36,
      "hit": false,
      "t": 171250,
      "d": 585.9375,
      "v": 127
    },
    {
      "midi": 36,
      "hit": false,
      "t": 171875,
      "d": 585.9375,
      "v": 84
    },
    {
      "midi": 61,
      "hit": false,
      "t": 172496.74479166666,
      "d": 2343.75,
      "v": 32
    },
    {
      "midi": 47,
      "hit": false,
      "t": 172496.74479166666,
      "d": 2500,
      "v": 127
    },
    {
      "midi": 54,
      "hit": false,
      "t": 172496.74479166666,
      "d": 2500,
      "v": 127
    },
    {
      "midi": 59,
      "hit": false,
      "t": 172496.74479166666,
      "d": 2500,
      "v": 120
    },
    {
      "midi": 63,
      "hit": false,
      "t": 172496.74479166666,
      "d": 2500,
      "v": 127
    },
    {
      "midi": 36,
      "hit": false,
      "t": 172500,
      "d": 585.9375,
      "v": 127
    },
    {
      "midi": 36,
      "hit": false,
      "t": 173125,
      "d": 585.9375,
      "v": 84
    },
    {
      "midi": 36,
      "hit": false,
      "t": 173750,
      "d": 585.9375,
      "v": 127
    },
    {
      "midi": 36,
      "hit": false,
      "t": 174375,
      "d": 585.9375,
      "v": 84
    },
    {
      "midi": 59,
      "hit": false,
      "t": 174996.74479166666,
      "d": 1419.270833333343,
      "v": 127
    },
    {
      "midi": 66,
      "hit": false,
      "t": 174996.74479166666,
      "d": 1796.875,
      "v": 127
    },
    {
      "midi": 63,
      "hit": false,
      "t": 174996.74479166666,
      "d": 1806.640625,
      "v": 127
    },
    {
      "midi": 44,
      "hit": false,
      "t": 174996.74479166666,
      "d": 2008.463541666657,
      "v": 127
    },
    {
      "midi": 36,
      "hit": false,
      "t": 175000,
      "d": 585.9375,
      "v": 127
    },
    {
      "midi": 36,
      "hit": false,
      "t": 175625,
      "d": 585.9375,
      "v": 84
    },
    {
      "midi": 36,
      "hit": false,
      "t": 176250,
      "d": 585.9375,
      "v": 127
    },
    {
      "midi": 59,
      "hit": false,
      "t": 176559.24479166666,
      "d": 279.94791666665697,
      "v": 63
    },
    {
      "midi": 59,
      "hit": false,
      "t": 176871.74479166666,
      "d": 514.322916666657,
      "v": 92
    },
    {
      "midi": 66,
      "hit": false,
      "t": 176871.74479166666,
      "d": 514.322916666657,
      "v": 127
    },
    {
      "midi": 63,
      "hit": false,
      "t": 176871.74479166666,
      "d": 524.088541666657,
      "v": 127
    },
    {
      "midi": 36,
      "hit": false,
      "t": 176875,
      "d": 156.25,
      "v": 84
    },
    {
      "midi": 44,
      "hit": false,
      "t": 177184.24479166666,
      "d": 312.5,
      "v": 127
    },
    {
      "midi": 36,
      "hit": false,
      "t": 177187.5,
      "d": 156.25,
      "v": 127
    },
    {
      "midi": 59,
      "hit": false,
      "t": 177496.74479166666,
      "d": 2034.505208333343,
      "v": 127
    },
    {
      "midi": 63,
      "hit": false,
      "t": 177496.74479166666,
      "d": 2356.770833333343,
      "v": 127
    },
    {
      "midi": 49,
      "hit": false,
      "t": 177496.74479166666,
      "d": 2360.026041666686,
      "v": 127
    },
    {
      "midi": 66,
      "hit": false,
      "t": 177496.74479166666,
      "d": 2376.302083333343,
      "v": 127
    },
    {
      "midi": 36,
      "hit": false,
      "t": 177500,
      "d": 585.9375,
      "v": 127
    },
    {
      "midi": 36,
      "hit": false,
      "t": 178125,
      "d": 585.9375,
      "v": 84
    },
    {
      "midi": 36,
      "hit": false,
      "t": 178750,
      "d": 585.9375,
      "v": 127
    },
    {
      "midi": 36,
      "hit": false,
      "t": 179375,
      "d": 585.9375,
      "v": 84
    },
    {
      "midi": 59,
      "hit": false,
      "t": 179684.24479166666,
      "d": 312.5,
      "v": 100
    },
    {
      "midi": 25,
      "hit": false,
      "t": 179996.74479166666,
      "d": 214.84375,
      "v": 127
    },
    {
      "midi": 37,
      "hit": false,
      "t": 179996.74479166666,
      "d": 214.84375,
      "v": 127
    },
    {
      "midi": 49,
      "hit": false,
      "t": 179996.74479166666,
      "d": 214.84375,
      "v": 127
    },
    {
      "midi": 59,
      "hit": false,
      "t": 179996.74479166666,
      "d": 214.84375,
      "v": 127
    },
    {
      "midi": 63,
      "hit": false,
      "t": 179996.74479166666,
      "d": 214.84375,
      "v": 127
    },
    {
      "midi": 66,
      "hit": false,
      "t": 179996.74479166666,
      "d": 214.84375,
      "v": 127
    },
    {
      "midi": 36,
      "hit": false,
      "t": 180000,
      "d": 113.93229166665697,
      "v": 127
    },
    {
      "midi": 41,
      "hit": false,
      "t": 180000,
      "d": 172.52604166665697,
      "v": 127
    },
    {
      "midi": 25,
      "hit": false,
      "t": 180309.24479166666,
      "d": 214.84375,
      "v": 127
    },
    {
      "midi": 37,
      "hit": false,
      "t": 180309.24479166666,
      "d": 214.84375,
      "v": 127
    },
    {
      "midi": 49,
      "hit": false,
      "t": 180309.24479166666,
      "d": 214.84375,
      "v": 127
    },
    {
      "midi": 59,
      "hit": false,
      "t": 180309.24479166666,
      "d": 214.84375,
      "v": 127
    },
    {
      "midi": 63,
      "hit": false,
      "t": 180309.24479166666,
      "d": 214.84375,
      "v": 127
    },
    {
      "midi": 66,
      "hit": false,
      "t": 180309.24479166666,
      "d": 214.84375,
      "v": 127
    },
    {
      "midi": 36,
      "hit": false,
      "t": 180312.5,
      "d": 107.421875,
      "v": 85
    },
    {
      "midi": 41,
      "hit": false,
      "t": 180312.5,
      "d": 162.76041666665697,
      "v": 100
    },
    {
      "midi": 25,
      "hit": false,
      "t": 180621.74479166666,
      "d": 234.375,
      "v": 127
    },
    {
      "midi": 37,
      "hit": false,
      "t": 180621.74479166666,
      "d": 234.375,
      "v": 127
    },
    {
      "midi": 49,
      "hit": false,
      "t": 180621.74479166666,
      "d": 234.375,
      "v": 127
    },
    {
      "midi": 59,
      "hit": false,
      "t": 180621.74479166666,
      "d": 234.375,
      "v": 127
    },
    {
      "midi": 63,
      "hit": false,
      "t": 180621.74479166666,
      "d": 234.375,
      "v": 127
    },
    {
      "midi": 66,
      "hit": false,
      "t": 180621.74479166666,
      "d": 234.375,
      "v": 127
    },
    {
      "midi": 36,
      "hit": false,
      "t": 180625,
      "d": 149.73958333334303,
      "v": 100
    },
    {
      "midi": 41,
      "hit": false,
      "t": 180625,
      "d": 175.78125,
      "v": 127
    },
    {
      "midi": 26,
      "hit": false,
      "t": 181246.74479166666,
      "d": 371.09375,
      "v": 127
    },
    {
      "midi": 38,
      "hit": false,
      "t": 181246.74479166666,
      "d": 371.09375,
      "v": 127
    },
    {
      "midi": 50,
      "hit": false,
      "t": 181246.74479166666,
      "d": 371.09375,
      "v": 127
    },
    {
      "midi": 60,
      "hit": false,
      "t": 181246.74479166666,
      "d": 371.09375,
      "v": 127
    },
    {
      "midi": 64,
      "hit": false,
      "t": 181246.74479166666,
      "d": 371.09375,
      "v": 127
    },
    {
      "midi": 67,
      "hit": false,
      "t": 181246.74479166666,
      "d": 371.09375,
      "v": 127
    },
    {
      "midi": 48,
      "hit": false,
      "t": 181246.74479166666,
      "d": 133.46354166668607,
      "v": 85
    },
    {
      "midi": 36,
      "hit": false,
      "t": 181250,
      "d": 182.29166666668607,
      "v": 127
    },
    {
      "midi": 50,
      "hit": false,
      "t": 181282.55208333334,
      "d": 152.99479166668607,
      "v": 112
    },
    {
      "midi": 26,
      "hit": false,
      "t": 181715.49479166666,
      "d": 371.09375,
      "v": 127
    },
    {
      "midi": 38,
      "hit": false,
      "t": 181715.49479166666,
      "d": 371.09375,
      "v": 127
    },
    {
      "midi": 50,
      "hit": false,
      "t": 181715.49479166666,
      "d": 371.09375,
      "v": 127
    },
    {
      "midi": 60,
      "hit": false,
      "t": 181715.49479166666,
      "d": 371.09375,
      "v": 127
    },
    {
      "midi": 64,
      "hit": false,
      "t": 181715.49479166666,
      "d": 371.09375,
      "v": 127
    },
    {
      "midi": 67,
      "hit": false,
      "t": 181715.49479166666,
      "d": 371.09375,
      "v": 127
    },
    {
      "midi": 47,
      "hit": false,
      "t": 181715.4947916667,
      "d": 74.86979166668607,
      "v": 85
    },
    {
      "midi": 36,
      "hit": false,
      "t": 181718.75000000003,
      "d": 198.56770833334303,
      "v": 127
    },
    {
      "midi": 48,
      "hit": false,
      "t": 181741.53645833337,
      "d": 117.1875,
      "v": 113
    },
    {
      "midi": 45,
      "hit": false,
      "t": 182180.98958333337,
      "d": 84.63541666665697,
      "v": 85
    },
    {
      "midi": 26,
      "hit": false,
      "t": 182184.24479166666,
      "d": 214.84375,
      "v": 127
    },
    {
      "midi": 38,
      "hit": false,
      "t": 182184.24479166666,
      "d": 214.84375,
      "v": 127
    },
    {
      "midi": 50,
      "hit": false,
      "t": 182184.24479166666,
      "d": 214.84375,
      "v": 127
    },
    {
      "midi": 60,
      "hit": false,
      "t": 182184.24479166666,
      "d": 214.84375,
      "v": 127
    },
    {
      "midi": 64,
      "hit": false,
      "t": 182184.24479166666,
      "d": 214.84375,
      "v": 127
    },
    {
      "midi": 67,
      "hit": false,
      "t": 182184.24479166666,
      "d": 214.84375,
      "v": 127
    },
    {
      "midi": 36,
      "hit": false,
      "t": 182187.50000000003,
      "d": 159.50520833334303,
      "v": 127
    },
    {
      "midi": 47,
      "hit": false,
      "t": 182200.52083333337,
      "d": 97.65625,
      "v": 116
    },
    {
      "midi": 41,
      "hit": false,
      "t": 182500.00000000003,
      "d": 55.338541666656965,
      "v": 90
    },
    {
      "midi": 43,
      "hit": false,
      "t": 182500.00000000003,
      "d": 68.359375,
      "v": 97
    },
    {
      "midi": 36,
      "hit": false,
      "t": 182812.50000000003,
      "d": 227.86458333334303,
      "v": 127
    },
    {
      "midi": 43,
      "hit": false,
      "t": 183121.74479166666,
      "d": 2187.5,
      "v": 127
    },
    {
      "midi": 55,
      "hit": false,
      "t": 183121.74479166666,
      "d": 2187.5,
      "v": 127
    },
    {
      "midi": 36,
      "hit": false,
      "t": 183125.00000000003,
      "d": 585.9375,
      "v": 84
    },
    {
      "midi": 36,
      "hit": false,
      "t": 183750.00000000003,
      "d": 585.9375,
      "v": 127
    },
    {
      "midi": 36,
      "hit": false,
      "t": 184375.00000000003,
      "d": 585.9375,
      "v": 84
    },
    {
      "midi": 59,
      "hit": false,
      "t": 184684.24479166666,
      "d": 625,
      "v": 127
    },
    {
      "midi": 62,
      "hit": false,
      "t": 184684.24479166666,
      "d": 625,
      "v": 127
    },
    {
      "midi": 67,
      "hit": false,
      "t": 184684.24479166666,
      "d": 625,
      "v": 127
    },
    {
      "midi": 40,
      "hit": false,
      "t": 184684.24479166666,
      "d": 2812.5,
      "v": 127
    },
    {
      "midi": 52,
      "hit": false,
      "t": 184684.24479166666,
      "d": 2812.5,
      "v": 127
    },
    {
      "midi": 64,
      "hit": false,
      "t": 184684.24479166666,
      "d": 2812.5,
      "v": 106
    },
    {
      "midi": 36,
      "hit": false,
      "t": 185000.00000000003,
      "d": 585.9375,
      "v": 127
    },
    {
      "midi": 36,
      "hit": false,
      "t": 185625.00000000003,
      "d": 585.9375,
      "v": 84
    },
    {
      "midi": 36,
      "hit": false,
      "t": 186250.00000000003,
      "d": 585.9375,
      "v": 127
    },
    {
      "midi": 36,
      "hit": false,
      "t": 186875.00000000003,
      "d": 585.9375,
      "v": 84
    },
    {
      "midi": 36,
      "hit": false,
      "t": 187496.74479166666,
      "d": 2187.5,
      "v": 127
    },
    {
      "midi": 48,
      "hit": false,
      "t": 187496.74479166666,
      "d": 2187.5,
      "v": 127
    },
    {
      "midi": 60,
      "hit": false,
      "t": 187496.74479166666,
      "d": 2187.5,
      "v": 127
    },
    {
      "midi": 62,
      "hit": false,
      "t": 187496.74479166666,
      "d": 2187.5,
      "v": 127
    },
    {
      "midi": 67,
      "hit": false,
      "t": 187496.74479166666,
      "d": 2187.5,
      "v": 127
    },
    {
      "midi": 36,
      "hit": false,
      "t": 187500.00000000003,
      "d": 585.9375,
      "v": 127
    },
    {
      "midi": 36,
      "hit": false,
      "t": 188125.00000000003,
      "d": 585.9375,
      "v": 84
    },
    {
      "midi": 36,
      "hit": false,
      "t": 188750.00000000003,
      "d": 585.9375,
      "v": 127
    },
    {
      "midi": 36,
      "hit": false,
      "t": 189375.00000000003,
      "d": 585.9375,
      "v": 84
    },
    {
      "midi": 57,
      "hit": false,
      "t": 189684.24479166666,
      "d": 1562.5,
      "v": 127
    },
    {
      "midi": 62,
      "hit": false,
      "t": 189684.24479166666,
      "d": 1562.5,
      "v": 127
    },
    {
      "midi": 67,
      "hit": false,
      "t": 189684.24479166666,
      "d": 1562.5,
      "v": 127
    },
    {
      "midi": 38,
      "hit": false,
      "t": 189684.24479166666,
      "d": 2812.5,
      "v": 127
    },
    {
      "midi": 50,
      "hit": false,
      "t": 189684.24479166666,
      "d": 2812.5,
      "v": 127
    },
    {
      "midi": 36,
      "hit": false,
      "t": 190000.00000000003,
      "d": 585.9375,
      "v": 127
    },
    {
      "midi": 36,
      "hit": false,
      "t": 190625.00000000003,
      "d": 585.9375,
      "v": 84
    },
    {
      "midi": 57,
      "hit": false,
      "t": 191246.74479166666,
      "d": 1250,
      "v": 112
    },
    {
      "midi": 62,
      "hit": false,
      "t": 191246.74479166666,
      "d": 1250,
      "v": 106
    },
    {
      "midi": 66,
      "hit": false,
      "t": 191246.74479166666,
      "d": 1250,
      "v": 127
    },
    {
      "midi": 36,
      "hit": false,
      "t": 191250.00000000003,
      "d": 585.9375,
      "v": 127
    },
    {
      "midi": 36,
      "hit": false,
      "t": 191875.00000000003,
      "d": 205.078125,
      "v": 84
    },
    {
      "midi": 36,
      "hit": false,
      "t": 192187.50000000003,
      "d": 156.25,
      "v": 127
    },
    {
      "midi": 43,
      "hit": false,
      "t": 192496.74479166666,
      "d": 2187.5,
      "v": 127
    },
    {
      "midi": 55,
      "hit": false,
      "t": 192496.74479166666,
      "d": 2187.5,
      "v": 127
    },
    {
      "midi": 59,
      "hit": false,
      "t": 192496.74479166666,
      "d": 2187.5,
      "v": 127
    },
    {
      "midi": 62,
      "hit": false,
      "t": 192496.74479166666,
      "d": 2187.5,
      "v": 127
    },
    {
      "midi": 67,
      "hit": false,
      "t": 192496.74479166666,
      "d": 2187.5,
      "v": 127
    },
    {
      "midi": 36,
      "hit": false,
      "t": 192500.00000000003,
      "d": 585.9375,
      "v": 127
    },
    {
      "midi": 36,
      "hit": false,
      "t": 193125.00000000003,
      "d": 585.9375,
      "v": 84
    },
    {
      "midi": 36,
      "hit": false,
      "t": 193750.00000000003,
      "d": 585.9375,
      "v": 127
    },
    {
      "midi": 36,
      "hit": false,
      "t": 194375.00000000003,
      "d": 585.9375,
      "v": 84
    },
    {
      "midi": 40,
      "hit": false,
      "t": 194684.24479166666,
      "d": 2812.5,
      "v": 127
    },
    {
      "midi": 52,
      "hit": false,
      "t": 194684.24479166666,
      "d": 2812.5,
      "v": 127
    },
    {
      "midi": 59,
      "hit": false,
      "t": 194684.24479166666,
      "d": 2812.5,
      "v": 127
    },
    {
      "midi": 62,
      "hit": false,
      "t": 194684.24479166666,
      "d": 2812.5,
      "v": 127
    },
    {
      "midi": 67,
      "hit": false,
      "t": 194684.24479166666,
      "d": 2812.5,
      "v": 127
    },
    {
      "midi": 36,
      "hit": false,
      "t": 195000.00000000003,
      "d": 585.9375,
      "v": 127
    },
    {
      "midi": 36,
      "hit": false,
      "t": 195625.00000000003,
      "d": 585.9375,
      "v": 84
    },
    {
      "midi": 36,
      "hit": false,
      "t": 196250.00000000003,
      "d": 585.9375,
      "v": 127
    },
    {
      "midi": 36,
      "hit": false,
      "t": 196875.00000000003,
      "d": 585.9375,
      "v": 84
    },
    {
      "midi": 36,
      "hit": false,
      "t": 197496.74479166666,
      "d": 2187.5,
      "v": 127
    },
    {
      "midi": 48,
      "hit": false,
      "t": 197496.74479166666,
      "d": 2187.5,
      "v": 127
    },
    {
      "midi": 60,
      "hit": false,
      "t": 197496.74479166666,
      "d": 2187.5,
      "v": 127
    },
    {
      "midi": 62,
      "hit": false,
      "t": 197496.74479166666,
      "d": 2187.5,
      "v": 127
    },
    {
      "midi": 67,
      "hit": false,
      "t": 197496.74479166666,
      "d": 2187.5,
      "v": 127
    },
    {
      "midi": 36,
      "hit": false,
      "t": 197500.00000000003,
      "d": 585.9375,
      "v": 127
    },
    {
      "midi": 36,
      "hit": false,
      "t": 198125.00000000003,
      "d": 585.9375,
      "v": 84
    },
    {
      "midi": 36,
      "hit": false,
      "t": 198750.00000000003,
      "d": 585.9375,
      "v": 127
    },
    {
      "midi": 36,
      "hit": false,
      "t": 199375.00000000003,
      "d": 279.94791666665697,
      "v": 84
    },
    {
      "midi": 57,
      "hit": false,
      "t": 199684.24479166666,
      "d": 1516.927083333343,
      "v": 127
    },
    {
      "midi": 67,
      "hit": false,
      "t": 199684.24479166666,
      "d": 1529.947916666686,
      "v": 127
    },
    {
      "midi": 62,
      "hit": false,
      "t": 199684.24479166666,
      "d": 1562.500000000029,
      "v": 127
    },
    {
      "midi": 50,
      "hit": false,
      "t": 199684.24479166666,
      "d": 2610.677083333372,
      "v": 127
    },
    {
      "midi": 38,
      "hit": false,
      "t": 199684.24479166666,
      "d": 2636.718750000029,
      "v": 127
    },
    {
      "midi": 36,
      "hit": false,
      "t": 199687.50000000003,
      "d": 1.6276041666569654,
      "v": 111
    },
    {
      "midi": 36,
      "hit": false,
      "t": 200000.00000000003,
      "d": 234.375,
      "v": 127
    },
    {
      "midi": 36,
      "hit": false,
      "t": 200312.50000000003,
      "d": 32.552083333343035,
      "v": 84
    },
    {
      "midi": 36,
      "hit": false,
      "t": 200625.00000000003,
      "d": 266.92708333334303,
      "v": 106
    },
    {
      "midi": 36,
      "hit": false,
      "t": 200937.50000000003,
      "d": 45.572916666656965,
      "v": 78
    },
    {
      "midi": 57,
      "hit": false,
      "t": 201246.7447916667,
      "d": 1250,
      "v": 127
    },
    {
      "midi": 62,
      "hit": false,
      "t": 201246.7447916667,
      "d": 1250,
      "v": 127
    },
    {
      "midi": 66,
      "hit": false,
      "t": 201246.7447916667,
      "d": 1250,
      "v": 127
    },
    {
      "midi": 36,
      "hit": false,
      "t": 201250.00000000003,
      "d": 253.90625,
      "v": 127
    },
    {
      "midi": 36,
      "hit": false,
      "t": 201562.50000000003,
      "d": 32.552083333343035,
      "v": 89
    },
    {
      "midi": 36,
      "hit": false,
      "t": 201875.00000000003,
      "d": 156.25,
      "v": 106
    },
    {
      "midi": 36,
      "hit": false,
      "t": 202187.50000000003,
      "d": 156.25,
      "v": 127
    },
    {
      "midi": 43,
      "hit": false,
      "t": 202496.7447916667,
      "d": 2187.5,
      "v": 127
    },
    {
      "midi": 55,
      "hit": false,
      "t": 202496.7447916667,
      "d": 2187.5,
      "v": 127
    },
    {
      "midi": 59,
      "hit": false,
      "t": 202496.7447916667,
      "d": 2187.5,
      "v": 127
    },
    {
      "midi": 62,
      "hit": false,
      "t": 202496.7447916667,
      "d": 2187.5,
      "v": 127
    },
    {
      "midi": 67,
      "hit": false,
      "t": 202496.7447916667,
      "d": 2187.5,
      "v": 127
    },
    {
      "midi": 36,
      "hit": false,
      "t": 202500.00000000003,
      "d": 585.9375,
      "v": 127
    },
    {
      "midi": 36,
      "hit": false,
      "t": 203125.00000000003,
      "d": 585.9375,
      "v": 84
    },
    {
      "midi": 36,
      "hit": false,
      "t": 203750.00000000003,
      "d": 585.9375,
      "v": 127
    },
    {
      "midi": 36,
      "hit": false,
      "t": 204375.00000000003,
      "d": 585.9375,
      "v": 84
    },
    {
      "midi": 40,
      "hit": false,
      "t": 204684.2447916667,
      "d": 2812.5,
      "v": 127
    },
    {
      "midi": 52,
      "hit": false,
      "t": 204684.2447916667,
      "d": 2812.5,
      "v": 127
    },
    {
      "midi": 59,
      "hit": false,
      "t": 204684.2447916667,
      "d": 2812.5,
      "v": 127
    },
    {
      "midi": 62,
      "hit": false,
      "t": 204684.2447916667,
      "d": 2812.5,
      "v": 127
    },
    {
      "midi": 64,
      "hit": false,
      "t": 204684.2447916667,
      "d": 2812.5,
      "v": 106
    },
    {
      "midi": 67,
      "hit": false,
      "t": 204684.2447916667,
      "d": 2812.5,
      "v": 127
    },
    {
      "midi": 36,
      "hit": false,
      "t": 205000.00000000003,
      "d": 585.9375,
      "v": 127
    },
    {
      "midi": 36,
      "hit": false,
      "t": 205625.00000000003,
      "d": 585.9375,
      "v": 84
    },
    {
      "midi": 36,
      "hit": false,
      "t": 206250.00000000003,
      "d": 585.9375,
      "v": 127
    },
    {
      "midi": 36,
      "hit": false,
      "t": 206875.00000000003,
      "d": 585.9375,
      "v": 84
    },
    {
      "midi": 36,
      "hit": false,
      "t": 207496.7447916667,
      "d": 2187.5,
      "v": 127
    },
    {
      "midi": 48,
      "hit": false,
      "t": 207496.7447916667,
      "d": 2187.5,
      "v": 127
    },
    {
      "midi": 60,
      "hit": false,
      "t": 207496.7447916667,
      "d": 2187.5,
      "v": 127
    },
    {
      "midi": 62,
      "hit": false,
      "t": 207496.7447916667,
      "d": 2187.5,
      "v": 127
    },
    {
      "midi": 67,
      "hit": false,
      "t": 207496.7447916667,
      "d": 2187.5,
      "v": 127
    },
    {
      "midi": 36,
      "hit": false,
      "t": 207500.00000000003,
      "d": 585.9375,
      "v": 127
    },
    {
      "midi": 36,
      "hit": false,
      "t": 208125.00000000003,
      "d": 585.9375,
      "v": 84
    },
    {
      "midi": 36,
      "hit": false,
      "t": 208750.00000000003,
      "d": 585.9375,
      "v": 127
    },
    {
      "midi": 36,
      "hit": false,
      "t": 209375.00000000003,
      "d": 585.9375,
      "v": 84
    },
    {
      "midi": 57,
      "hit": false,
      "t": 209684.2447916667,
      "d": 1562.5,
      "v": 127
    },
    {
      "midi": 62,
      "hit": false,
      "t": 209684.2447916667,
      "d": 1562.5,
      "v": 127
    },
    {
      "midi": 67,
      "hit": false,
      "t": 209684.2447916667,
      "d": 1562.5,
      "v": 127
    },
    {
      "midi": 38,
      "hit": false,
      "t": 209684.2447916667,
      "d": 2812.5,
      "v": 127
    },
    {
      "midi": 50,
      "hit": false,
      "t": 209684.2447916667,
      "d": 2812.5,
      "v": 127
    },
    {
      "midi": 36,
      "hit": false,
      "t": 210000.00000000003,
      "d": 585.9375,
      "v": 127
    },
    {
      "midi": 36,
      "hit": false,
      "t": 210625.00000000003,
      "d": 585.9375,
      "v": 84
    },
    {
      "midi": 57,
      "hit": false,
      "t": 211246.7447916667,
      "d": 1250,
      "v": 112
    },
    {
      "midi": 62,
      "hit": false,
      "t": 211246.7447916667,
      "d": 1250,
      "v": 106
    },
    {
      "midi": 66,
      "hit": false,
      "t": 211246.7447916667,
      "d": 1250,
      "v": 127
    },
    {
      "midi": 36,
      "hit": false,
      "t": 211250.00000000003,
      "d": 585.9375,
      "v": 127
    },
    {
      "midi": 36,
      "hit": false,
      "t": 211875.00000000003,
      "d": 205.078125,
      "v": 84
    },
    {
      "midi": 36,
      "hit": false,
      "t": 212187.50000000003,
      "d": 156.25,
      "v": 127
    },
    {
      "midi": 43,
      "hit": false,
      "t": 212496.7447916667,
      "d": 2187.5,
      "v": 127
    },
    {
      "midi": 55,
      "hit": false,
      "t": 212496.7447916667,
      "d": 2187.5,
      "v": 127
    },
    {
      "midi": 59,
      "hit": false,
      "t": 212496.7447916667,
      "d": 2187.5,
      "v": 127
    },
    {
      "midi": 62,
      "hit": false,
      "t": 212496.7447916667,
      "d": 2187.5,
      "v": 127
    },
    {
      "midi": 67,
      "hit": false,
      "t": 212496.7447916667,
      "d": 2187.5,
      "v": 127
    },
    {
      "midi": 36,
      "hit": false,
      "t": 212500.00000000003,
      "d": 585.9375,
      "v": 127
    },
    {
      "midi": 36,
      "hit": false,
      "t": 213125.00000000003,
      "d": 585.9375,
      "v": 84
    },
    {
      "midi": 36,
      "hit": false,
      "t": 213750.00000000003,
      "d": 585.9375,
      "v": 127
    },
    {
      "midi": 36,
      "hit": false,
      "t": 214375.00000000003,
      "d": 585.9375,
      "v": 84
    },
    {
      "midi": 40,
      "hit": false,
      "t": 214684.2447916667,
      "d": 2812.5,
      "v": 127
    },
    {
      "midi": 52,
      "hit": false,
      "t": 214684.2447916667,
      "d": 2812.5,
      "v": 127
    },
    {
      "midi": 59,
      "hit": false,
      "t": 214684.2447916667,
      "d": 2812.5,
      "v": 127
    },
    {
      "midi": 62,
      "hit": false,
      "t": 214684.2447916667,
      "d": 2812.5,
      "v": 127
    },
    {
      "midi": 67,
      "hit": false,
      "t": 214684.2447916667,
      "d": 2812.5,
      "v": 127
    },
    {
      "midi": 36,
      "hit": false,
      "t": 215000.00000000003,
      "d": 585.9375,
      "v": 127
    },
    {
      "midi": 36,
      "hit": false,
      "t": 215625.00000000003,
      "d": 585.9375,
      "v": 84
    },
    {
      "midi": 36,
      "hit": false,
      "t": 216250.00000000003,
      "d": 585.9375,
      "v": 127
    },
    {
      "midi": 36,
      "hit": false,
      "t": 216875.00000000003,
      "d": 585.9375,
      "v": 84
    },
    {
      "midi": 36,
      "hit": false,
      "t": 217496.7447916667,
      "d": 2187.5,
      "v": 127
    },
    {
      "midi": 48,
      "hit": false,
      "t": 217496.7447916667,
      "d": 2187.5,
      "v": 127
    },
    {
      "midi": 60,
      "hit": false,
      "t": 217496.7447916667,
      "d": 2187.5,
      "v": 127
    },
    {
      "midi": 62,
      "hit": false,
      "t": 217496.7447916667,
      "d": 2187.5,
      "v": 127
    },
    {
      "midi": 67,
      "hit": false,
      "t": 217496.7447916667,
      "d": 2187.5,
      "v": 127
    },
    {
      "midi": 36,
      "hit": false,
      "t": 217500.00000000003,
      "d": 585.9375,
      "v": 127
    },
    {
      "midi": 36,
      "hit": false,
      "t": 218125.00000000003,
      "d": 585.9375,
      "v": 84
    },
    {
      "midi": 36,
      "hit": false,
      "t": 218750.00000000003,
      "d": 585.9375,
      "v": 127
    },
    {
      "midi": 36,
      "hit": false,
      "t": 219375.00000000003,
      "d": 585.9375,
      "v": 84
    },
    {
      "midi": 57,
      "hit": false,
      "t": 219684.2447916667,
      "d": 1516.927083333343,
      "v": 127
    },
    {
      "midi": 67,
      "hit": false,
      "t": 219684.2447916667,
      "d": 1529.947916666686,
      "v": 127
    },
    {
      "midi": 62,
      "hit": false,
      "t": 219684.2447916667,
      "d": 1562.500000000029,
      "v": 127
    },
    {
      "midi": 50,
      "hit": false,
      "t": 219684.2447916667,
      "d": 2610.677083333372,
      "v": 127
    },
    {
      "midi": 38,
      "hit": false,
      "t": 219684.2447916667,
      "d": 2636.718750000029,
      "v": 127
    },
    {
      "midi": 36,
      "hit": false,
      "t": 220000.00000000003,
      "d": 585.9375,
      "v": 127
    },
    {
      "midi": 36,
      "hit": false,
      "t": 220625.00000000003,
      "d": 585.9375,
      "v": 84
    },
    {
      "midi": 57,
      "hit": false,
      "t": 221246.74479166672,
      "d": 1250,
      "v": 127
    },
    {
      "midi": 62,
      "hit": false,
      "t": 221246.74479166672,
      "d": 1250,
      "v": 127
    },
    {
      "midi": 66,
      "hit": false,
      "t": 221246.74479166672,
      "d": 1250,
      "v": 127
    },
    {
      "midi": 36,
      "hit": false,
      "t": 221250.00000000003,
      "d": 585.9375,
      "v": 127
    },
    {
      "midi": 43,
      "hit": false,
      "t": 221562.50000000003,
      "d": 58.59375,
      "v": 113
    },
    {
      "midi": 48,
      "hit": false,
      "t": 221875.00000000003,
      "d": 68.359375,
      "v": 94
    },
    {
      "midi": 36,
      "hit": false,
      "t": 221875.00000000003,
      "d": 156.25,
      "v": 84
    },
    {
      "midi": 45,
      "hit": false,
      "t": 222187.50000000003,
      "d": 39.0625,
      "v": 117
    },
    {
      "midi": 36,
      "hit": false,
      "t": 222187.50000000003,
      "d": 156.25,
      "v": 127
    },
    {
      "midi": 43,
      "hit": false,
      "t": 222343.75000000003,
      "d": 39.0625,
      "v": 117
    },
    {
      "midi": 43,
      "hit": false,
      "t": 222496.74479166672,
      "d": 2187.5,
      "v": 127
    },
    {
      "midi": 55,
      "hit": false,
      "t": 222496.74479166672,
      "d": 2187.5,
      "v": 127
    },
    {
      "midi": 59,
      "hit": false,
      "t": 222496.74479166672,
      "d": 2187.5,
      "v": 127
    },
    {
      "midi": 62,
      "hit": false,
      "t": 222496.74479166672,
      "d": 2187.5,
      "v": 127
    },
    {
      "midi": 67,
      "hit": false,
      "t": 222496.74479166672,
      "d": 2187.5,
      "v": 127
    },
    {
      "midi": 36,
      "hit": false,
      "t": 222500.00000000003,
      "d": 585.9375,
      "v": 127
    },
    {
      "midi": 36,
      "hit": false,
      "t": 223125.00000000003,
      "d": 585.9375,
      "v": 84
    },
    {
      "midi": 36,
      "hit": false,
      "t": 223750.00000000003,
      "d": 585.9375,
      "v": 127
    },
    {
      "midi": 36,
      "hit": false,
      "t": 224375.00000000003,
      "d": 585.9375,
      "v": 84
    },
    {
      "midi": 40,
      "hit": false,
      "t": 224684.24479166672,
      "d": 2812.5,
      "v": 127
    },
    {
      "midi": 52,
      "hit": false,
      "t": 224684.24479166672,
      "d": 2812.5,
      "v": 127
    },
    {
      "midi": 59,
      "hit": false,
      "t": 224684.24479166672,
      "d": 2812.5,
      "v": 127
    },
    {
      "midi": 62,
      "hit": false,
      "t": 224684.24479166672,
      "d": 2812.5,
      "v": 127
    },
    {
      "midi": 64,
      "hit": false,
      "t": 224684.24479166672,
      "d": 2812.5,
      "v": 106
    },
    {
      "midi": 67,
      "hit": false,
      "t": 224684.24479166672,
      "d": 2812.5,
      "v": 127
    },
    {
      "midi": 36,
      "hit": false,
      "t": 225000.00000000003,
      "d": 585.9375,
      "v": 127
    },
    {
      "midi": 36,
      "hit": false,
      "t": 225625.00000000003,
      "d": 585.9375,
      "v": 84
    },
    {
      "midi": 36,
      "hit": false,
      "t": 226250.00000000003,
      "d": 585.9375,
      "v": 127
    },
    {
      "midi": 36,
      "hit": false,
      "t": 226875.00000000003,
      "d": 585.9375,
      "v": 84
    },
    {
      "midi": 36,
      "hit": false,
      "t": 227496.74479166672,
      "d": 2187.5,
      "v": 127
    },
    {
      "midi": 48,
      "hit": false,
      "t": 227496.74479166672,
      "d": 2187.5,
      "v": 127
    },
    {
      "midi": 60,
      "hit": false,
      "t": 227496.74479166672,
      "d": 2187.5,
      "v": 127
    },
    {
      "midi": 62,
      "hit": false,
      "t": 227496.74479166672,
      "d": 2187.5,
      "v": 127
    },
    {
      "midi": 67,
      "hit": false,
      "t": 227496.74479166672,
      "d": 2187.5,
      "v": 127
    },
    {
      "midi": 36,
      "hit": false,
      "t": 227500.00000000003,
      "d": 585.9375,
      "v": 127
    },
    {
      "midi": 36,
      "hit": false,
      "t": 228125.00000000003,
      "d": 585.9375,
      "v": 84
    },
    {
      "midi": 36,
      "hit": false,
      "t": 228750.00000000003,
      "d": 585.9375,
      "v": 127
    },
    {
      "midi": 36,
      "hit": false,
      "t": 229375.00000000003,
      "d": 585.9375,
      "v": 84
    },
    {
      "midi": 57,
      "hit": false,
      "t": 229684.24479166672,
      "d": 1562.5,
      "v": 127
    },
    {
      "midi": 62,
      "hit": false,
      "t": 229684.24479166672,
      "d": 1562.5,
      "v": 127
    },
    {
      "midi": 67,
      "hit": false,
      "t": 229684.24479166672,
      "d": 1562.5,
      "v": 127
    },
    {
      "midi": 38,
      "hit": false,
      "t": 229684.24479166672,
      "d": 2812.5,
      "v": 127
    },
    {
      "midi": 50,
      "hit": false,
      "t": 229684.24479166672,
      "d": 2812.5,
      "v": 127
    },
    {
      "midi": 36,
      "hit": false,
      "t": 230000.00000000003,
      "d": 585.9375,
      "v": 127
    },
    {
      "midi": 36,
      "hit": false,
      "t": 230625.00000000003,
      "d": 585.9375,
      "v": 84
    },
    {
      "midi": 57,
      "hit": false,
      "t": 231246.74479166672,
      "d": 1250,
      "v": 112
    },
    {
      "midi": 62,
      "hit": false,
      "t": 231246.74479166672,
      "d": 1250,
      "v": 106
    },
    {
      "midi": 66,
      "hit": false,
      "t": 231246.74479166672,
      "d": 1250,
      "v": 127
    },
    {
      "midi": 36,
      "hit": false,
      "t": 231250.00000000003,
      "d": 585.9375,
      "v": 127
    },
    {
      "midi": 36,
      "hit": false,
      "t": 231875.00000000003,
      "d": 205.078125,
      "v": 84
    },
    {
      "midi": 36,
      "hit": false,
      "t": 232187.50000000003,
      "d": 156.25,
      "v": 127
    },
    {
      "midi": 43,
      "hit": false,
      "t": 232496.74479166672,
      "d": 2187.5,
      "v": 127
    },
    {
      "midi": 55,
      "hit": false,
      "t": 232496.74479166672,
      "d": 2187.5,
      "v": 127
    },
    {
      "midi": 59,
      "hit": false,
      "t": 232496.74479166672,
      "d": 2187.5,
      "v": 127
    },
    {
      "midi": 62,
      "hit": false,
      "t": 232496.74479166672,
      "d": 2187.5,
      "v": 127
    },
    {
      "midi": 67,
      "hit": false,
      "t": 232496.74479166672,
      "d": 2187.5,
      "v": 127
    },
    {
      "midi": 36,
      "hit": false,
      "t": 232500.00000000003,
      "d": 585.9375,
      "v": 127
    },
    {
      "midi": 36,
      "hit": false,
      "t": 233125.00000000003,
      "d": 585.9375,
      "v": 84
    },
    {
      "midi": 36,
      "hit": false,
      "t": 233750.00000000003,
      "d": 585.9375,
      "v": 127
    },
    {
      "midi": 36,
      "hit": false,
      "t": 234375.00000000003,
      "d": 585.9375,
      "v": 84
    },
    {
      "midi": 40,
      "hit": false,
      "t": 234684.24479166672,
      "d": 2812.5,
      "v": 127
    },
    {
      "midi": 52,
      "hit": false,
      "t": 234684.24479166672,
      "d": 2812.5,
      "v": 127
    },
    {
      "midi": 59,
      "hit": false,
      "t": 234684.24479166672,
      "d": 2812.5,
      "v": 127
    },
    {
      "midi": 62,
      "hit": false,
      "t": 234684.24479166672,
      "d": 2812.5,
      "v": 127
    },
    {
      "midi": 67,
      "hit": false,
      "t": 234684.24479166672,
      "d": 2812.5,
      "v": 127
    },
    {
      "midi": 36,
      "hit": false,
      "t": 235000.00000000003,
      "d": 585.9375,
      "v": 127
    },
    {
      "midi": 36,
      "hit": false,
      "t": 235625.00000000003,
      "d": 585.9375,
      "v": 84
    },
    {
      "midi": 36,
      "hit": false,
      "t": 236250.00000000003,
      "d": 585.9375,
      "v": 127
    },
    {
      "midi": 36,
      "hit": false,
      "t": 236875.00000000003,
      "d": 585.9375,
      "v": 84
    },
    {
      "midi": 36,
      "hit": false,
      "t": 237496.74479166672,
      "d": 2187.5,
      "v": 127
    },
    {
      "midi": 48,
      "hit": false,
      "t": 237496.74479166672,
      "d": 2187.5,
      "v": 127
    },
    {
      "midi": 60,
      "hit": false,
      "t": 237496.74479166672,
      "d": 2187.5,
      "v": 127
    },
    {
      "midi": 62,
      "hit": false,
      "t": 237496.74479166672,
      "d": 2187.5,
      "v": 127
    },
    {
      "midi": 67,
      "hit": false,
      "t": 237496.74479166672,
      "d": 2187.5,
      "v": 127
    },
    {
      "midi": 36,
      "hit": false,
      "t": 237500.00000000003,
      "d": 585.9375,
      "v": 127
    },
    {
      "midi": 36,
      "hit": false,
      "t": 238125.00000000003,
      "d": 585.9375,
      "v": 84
    },
    {
      "midi": 36,
      "hit": false,
      "t": 238750.00000000003,
      "d": 585.9375,
      "v": 127
    },
    {
      "midi": 36,
      "hit": false,
      "t": 239375.00000000003,
      "d": 585.9375,
      "v": 84
    },
    {
      "midi": 57,
      "hit": false,
      "t": 239684.24479166672,
      "d": 1516.927083333343,
      "v": 127
    },
    {
      "midi": 67,
      "hit": false,
      "t": 239684.24479166672,
      "d": 1529.947916666686,
      "v": 127
    },
    {
      "midi": 62,
      "hit": false,
      "t": 239684.24479166672,
      "d": 1562.500000000029,
      "v": 127
    },
    {
      "midi": 50,
      "hit": false,
      "t": 239684.24479166672,
      "d": 2610.677083333372,
      "v": 127
    },
    {
      "midi": 38,
      "hit": false,
      "t": 239684.24479166672,
      "d": 2636.718750000029,
      "v": 127
    },
    {
      "midi": 36,
      "hit": false,
      "t": 240000.00000000003,
      "d": 585.9375,
      "v": 127
    },
    {
      "midi": 36,
      "hit": false,
      "t": 240625.00000000003,
      "d": 585.9375,
      "v": 84
    },
    {
      "midi": 57,
      "hit": false,
      "t": 241246.74479166674,
      "d": 1250,
      "v": 127
    },
    {
      "midi": 62,
      "hit": false,
      "t": 241246.74479166674,
      "d": 1250,
      "v": 127
    },
    {
      "midi": 66,
      "hit": false,
      "t": 241246.74479166674,
      "d": 1250,
      "v": 127
    },
    {
      "midi": 36,
      "hit": false,
      "t": 241250.00000000003,
      "d": 585.9375,
      "v": 127
    },
    {
      "midi": 47,
      "hit": false,
      "t": 241406.25000000003,
      "d": 52.083333333343035,
      "v": 87
    },
    {
      "midi": 45,
      "hit": false,
      "t": 241562.50000000003,
      "d": 65.10416666665697,
      "v": 94
    },
    {
      "midi": 45,
      "hit": false,
      "t": 241875.00000000003,
      "d": 74.86979166665697,
      "v": 127
    },
    {
      "midi": 36,
      "hit": false,
      "t": 241875.00000000003,
      "d": 156.25,
      "v": 84
    },
    {
      "midi": 43,
      "hit": false,
      "t": 242187.50000000003,
      "d": 55.338541666656965,
      "v": 127
    },
    {
      "midi": 36,
      "hit": false,
      "t": 242187.50000000003,
      "d": 156.25,
      "v": 127
    },
    {
      "midi": 43,
      "hit": false,
      "t": 242343.75000000003,
      "d": 39.0625,
      "v": 100
    },
    {
      "midi": 41,
      "hit": false,
      "t": 242343.75000000003,
      "d": 48.828125,
      "v": 127
    },
    {
      "midi": 43,
      "hit": false,
      "t": 242496.74479166674,
      "d": 2187.5,
      "v": 127
    },
    {
      "midi": 55,
      "hit": false,
      "t": 242496.74479166674,
      "d": 2187.5,
      "v": 127
    },
    {
      "midi": 59,
      "hit": false,
      "t": 242496.74479166674,
      "d": 2187.5,
      "v": 127
    },
    {
      "midi": 62,
      "hit": false,
      "t": 242496.74479166674,
      "d": 2187.5,
      "v": 127
    },
    {
      "midi": 67,
      "hit": false,
      "t": 242496.74479166674,
      "d": 2187.5,
      "v": 127
    },
    {
      "midi": 36,
      "hit": false,
      "t": 242500.00000000003,
      "d": 312.5,
      "v": 127
    },
    {
      "midi": 36,
      "hit": false,
      "t": 242812.50000000003,
      "d": 156.25,
      "v": 127
    },
    {
      "midi": 36,
      "hit": false,
      "t": 243125.00000000003,
      "d": 585.9375,
      "v": 84
    },
    {
      "midi": 36,
      "hit": false,
      "t": 243750.00000000003,
      "d": 585.9375,
      "v": 127
    },
    {
      "midi": 36,
      "hit": false,
      "t": 244375.00000000003,
      "d": 585.9375,
      "v": 84
    },
    {
      "midi": 40,
      "hit": false,
      "t": 244684.24479166674,
      "d": 2812.5,
      "v": 127
    },
    {
      "midi": 52,
      "hit": false,
      "t": 244684.24479166674,
      "d": 2812.5,
      "v": 127
    },
    {
      "midi": 59,
      "hit": false,
      "t": 244684.24479166674,
      "d": 2812.5,
      "v": 127
    },
    {
      "midi": 62,
      "hit": false,
      "t": 244684.24479166674,
      "d": 2812.5,
      "v": 127
    },
    {
      "midi": 64,
      "hit": false,
      "t": 244684.24479166674,
      "d": 2812.5,
      "v": 106
    },
    {
      "midi": 67,
      "hit": false,
      "t": 244684.24479166674,
      "d": 2812.5,
      "v": 127
    },
    {
      "midi": 36,
      "hit": false,
      "t": 245000.00000000003,
      "d": 585.9375,
      "v": 127
    },
    {
      "midi": 36,
      "hit": false,
      "t": 245625.00000000003,
      "d": 585.9375,
      "v": 84
    },
    {
      "midi": 36,
      "hit": false,
      "t": 246250.00000000003,
      "d": 585.9375,
      "v": 127
    },
    {
      "midi": 36,
      "hit": false,
      "t": 246875.00000000003,
      "d": 585.9375,
      "v": 84
    },
    {
      "midi": 36,
      "hit": false,
      "t": 247496.74479166674,
      "d": 2187.5,
      "v": 127
    },
    {
      "midi": 48,
      "hit": false,
      "t": 247496.74479166674,
      "d": 2187.5,
      "v": 127
    },
    {
      "midi": 60,
      "hit": false,
      "t": 247496.74479166674,
      "d": 2187.5,
      "v": 127
    },
    {
      "midi": 62,
      "hit": false,
      "t": 247496.74479166674,
      "d": 2187.5,
      "v": 127
    },
    {
      "midi": 67,
      "hit": false,
      "t": 247496.74479166674,
      "d": 2187.5,
      "v": 127
    },
    {
      "midi": 36,
      "hit": false,
      "t": 247500.00000000003,
      "d": 585.9375,
      "v": 127
    },
    {
      "midi": 36,
      "hit": false,
      "t": 248125.00000000003,
      "d": 585.9375,
      "v": 84
    },
    {
      "midi": 36,
      "hit": false,
      "t": 248750.00000000003,
      "d": 585.9375,
      "v": 127
    },
    {
      "midi": 36,
      "hit": false,
      "t": 249375.00000000003,
      "d": 585.9375,
      "v": 84
    },
    {
      "midi": 57,
      "hit": false,
      "t": 249684.24479166674,
      "d": 1562.5,
      "v": 127
    },
    {
      "midi": 62,
      "hit": false,
      "t": 249684.24479166674,
      "d": 1562.5,
      "v": 127
    },
    {
      "midi": 67,
      "hit": false,
      "t": 249684.24479166674,
      "d": 1562.5,
      "v": 127
    },
    {
      "midi": 38,
      "hit": false,
      "t": 249684.24479166674,
      "d": 2812.5,
      "v": 127
    },
    {
      "midi": 50,
      "hit": false,
      "t": 249684.24479166674,
      "d": 2812.5,
      "v": 127
    },
    {
      "midi": 36,
      "hit": false,
      "t": 250000.00000000003,
      "d": 585.9375,
      "v": 127
    },
    {
      "midi": 36,
      "hit": false,
      "t": 250625.00000000003,
      "d": 585.9375,
      "v": 84
    },
    {
      "midi": 57,
      "hit": false,
      "t": 251246.74479166674,
      "d": 1250,
      "v": 112
    },
    {
      "midi": 62,
      "hit": false,
      "t": 251246.74479166674,
      "d": 1250,
      "v": 106
    },
    {
      "midi": 66,
      "hit": false,
      "t": 251246.74479166674,
      "d": 1250,
      "v": 127
    },
    {
      "midi": 36,
      "hit": false,
      "t": 251250.00000000003,
      "d": 468.75,
      "v": 127
    },
    {
      "midi": 36,
      "hit": false,
      "t": 251718.75000000003,
      "d": 39.0625,
      "v": 106
    },
    {
      "midi": 36,
      "hit": false,
      "t": 251875.00000000003,
      "d": 205.078125,
      "v": 84
    },
    {
      "midi": 36,
      "hit": false,
      "t": 252187.50000000003,
      "d": 156.25,
      "v": 127
    },
    {
      "midi": 43,
      "hit": false,
      "t": 252496.74479166674,
      "d": 2187.5,
      "v": 127
    },
    {
      "midi": 55,
      "hit": false,
      "t": 252496.74479166674,
      "d": 2187.5,
      "v": 127
    },
    {
      "midi": 59,
      "hit": false,
      "t": 252496.74479166674,
      "d": 2187.5,
      "v": 127
    },
    {
      "midi": 62,
      "hit": false,
      "t": 252496.74479166674,
      "d": 2187.5,
      "v": 127
    },
    {
      "midi": 67,
      "hit": false,
      "t": 252496.74479166674,
      "d": 2187.5,
      "v": 127
    },
    {
      "midi": 36,
      "hit": false,
      "t": 252500.00000000003,
      "d": 585.9375,
      "v": 127
    },
    {
      "midi": 36,
      "hit": false,
      "t": 253125.00000000003,
      "d": 585.9375,
      "v": 84
    },
    {
      "midi": 36,
      "hit": false,
      "t": 253750.00000000003,
      "d": 585.9375,
      "v": 127
    },
    {
      "midi": 36,
      "hit": false,
      "t": 254375.00000000003,
      "d": 585.9375,
      "v": 84
    },
    {
      "midi": 40,
      "hit": false,
      "t": 254684.24479166674,
      "d": 2812.4999999998836,
      "v": 127
    },
    {
      "midi": 52,
      "hit": false,
      "t": 254684.24479166674,
      "d": 2812.4999999998836,
      "v": 127
    },
    {
      "midi": 59,
      "hit": false,
      "t": 254684.24479166674,
      "d": 2812.4999999998836,
      "v": 127
    },
    {
      "midi": 62,
      "hit": false,
      "t": 254684.24479166674,
      "d": 2812.4999999998836,
      "v": 127
    },
    {
      "midi": 67,
      "hit": false,
      "t": 254684.24479166674,
      "d": 2812.4999999998836,
      "v": 127
    },
    {
      "midi": 36,
      "hit": false,
      "t": 255000.00000000003,
      "d": 585.9374999999709,
      "v": 127
    },
    {
      "midi": 36,
      "hit": false,
      "t": 255625,
      "d": 585.9374999999709,
      "v": 84
    },
    {
      "midi": 36,
      "hit": false,
      "t": 256249.99999999997,
      "d": 585.9374999999709,
      "v": 127
    },
    {
      "midi": 36,
      "hit": false,
      "t": 256874.99999999994,
      "d": 585.9374999999709,
      "v": 84
    },
    {
      "midi": 36,
      "hit": false,
      "t": 257496.74479166663,
      "d": 2187.4999999999127,
      "v": 127
    },
    {
      "midi": 48,
      "hit": false,
      "t": 257496.74479166663,
      "d": 2187.4999999999127,
      "v": 127
    },
    {
      "midi": 60,
      "hit": false,
      "t": 257496.74479166663,
      "d": 2187.4999999999127,
      "v": 127
    },
    {
      "midi": 62,
      "hit": false,
      "t": 257496.74479166663,
      "d": 2187.4999999999127,
      "v": 127
    },
    {
      "midi": 67,
      "hit": false,
      "t": 257496.74479166663,
      "d": 2187.4999999999127,
      "v": 127
    },
    {
      "midi": 36,
      "hit": false,
      "t": 257499.9999999999,
      "d": 585.9374999999709,
      "v": 127
    },
    {
      "midi": 36,
      "hit": false,
      "t": 258124.99999999988,
      "d": 585.9374999999709,
      "v": 84
    },
    {
      "midi": 36,
      "hit": false,
      "t": 258749.99999999985,
      "d": 585.9374999999709,
      "v": 127
    },
    {
      "midi": 36,
      "hit": false,
      "t": 259374.99999999983,
      "d": 585.9374999999709,
      "v": 84
    },
    {
      "midi": 57,
      "hit": false,
      "t": 259684.24479166654,
      "d": 1516.9270833332848,
      "v": 127
    },
    {
      "midi": 67,
      "hit": false,
      "t": 259684.24479166654,
      "d": 1529.9479166666279,
      "v": 127
    },
    {
      "midi": 62,
      "hit": false,
      "t": 259684.24479166654,
      "d": 1562.499999999971,
      "v": 127
    },
    {
      "midi": 50,
      "hit": false,
      "t": 259684.24479166654,
      "d": 2610.677083333285,
      "v": 127
    },
    {
      "midi": 38,
      "hit": false,
      "t": 259684.24479166654,
      "d": 2636.718749999971,
      "v": 127
    },
    {
      "midi": 36,
      "hit": false,
      "t": 259999.9999999998,
      "d": 585.9374999999709,
      "v": 127
    },
    {
      "midi": 36,
      "hit": false,
      "t": 260624.99999999977,
      "d": 585.9374999999709,
      "v": 84
    },
    {
      "midi": 57,
      "hit": false,
      "t": 261246.7447916665,
      "d": 1250,
      "v": 127
    },
    {
      "midi": 62,
      "hit": false,
      "t": 261246.7447916665,
      "d": 1250,
      "v": 127
    },
    {
      "midi": 66,
      "hit": false,
      "t": 261246.7447916665,
      "d": 1250,
      "v": 127
    },
    {
      "midi": 36,
      "hit": false,
      "t": 261249.99999999974,
      "d": 585.9375,
      "v": 127
    },
    {
      "midi": 47,
      "hit": false,
      "t": 261406.24999999974,
      "d": 52.083333333343035,
      "v": 87
    },
    {
      "midi": 45,
      "hit": false,
      "t": 261562.49999999974,
      "d": 65.10416666665697,
      "v": 94
    },
    {
      "midi": 45,
      "hit": false,
      "t": 261874.99999999974,
      "d": 74.86979166665697,
      "v": 127
    },
    {
      "midi": 36,
      "hit": false,
      "t": 261874.99999999974,
      "d": 156.25,
      "v": 84
    },
    {
      "midi": 43,
      "hit": false,
      "t": 262187.49999999977,
      "d": 55.33854166668607,
      "v": 127
    },
    {
      "midi": 36,
      "hit": false,
      "t": 262187.49999999977,
      "d": 156.25,
      "v": 127
    },
    {
      "midi": 43,
      "hit": false,
      "t": 262343.74999999977,
      "d": 39.0625,
      "v": 100
    },
    {
      "midi": 41,
      "hit": false,
      "t": 262343.74999999977,
      "d": 48.828125,
      "v": 127
    },
    {
      "midi": 43,
      "hit": false,
      "t": 262496.7447916665,
      "d": 2187.5000000001746,
      "v": 127
    },
    {
      "midi": 55,
      "hit": false,
      "t": 262496.7447916665,
      "d": 2187.5000000001746,
      "v": 127
    },
    {
      "midi": 59,
      "hit": false,
      "t": 262496.7447916665,
      "d": 2187.5000000001746,
      "v": 127
    },
    {
      "midi": 62,
      "hit": false,
      "t": 262496.7447916665,
      "d": 2187.5000000001746,
      "v": 127
    },
    {
      "midi": 67,
      "hit": false,
      "t": 262496.7447916665,
      "d": 2187.5000000001746,
      "v": 127
    },
    {
      "midi": 36,
      "hit": false,
      "t": 262499.99999999977,
      "d": 312.5000000000582,
      "v": 127
    },
    {
      "midi": 36,
      "hit": false,
      "t": 262812.4999999998,
      "d": 156.25,
      "v": 127
    },
    {
      "midi": 36,
      "hit": false,
      "t": 263124.9999999998,
      "d": 585.9375000000582,
      "v": 84
    },
    {
      "midi": 36,
      "hit": false,
      "t": 263749.9999999999,
      "d": 585.9375000000582,
      "v": 127
    },
    {
      "midi": 36,
      "hit": false,
      "t": 264374.99999999994,
      "d": 585.9375000000582,
      "v": 84
    },
    {
      "midi": 40,
      "hit": false,
      "t": 264684.2447916667,
      "d": 2812.500000000233,
      "v": 127
    },
    {
      "midi": 52,
      "hit": false,
      "t": 264684.2447916667,
      "d": 2812.500000000233,
      "v": 127
    },
    {
      "midi": 59,
      "hit": false,
      "t": 264684.2447916667,
      "d": 2812.500000000233,
      "v": 127
    },
    {
      "midi": 62,
      "hit": false,
      "t": 264684.2447916667,
      "d": 2812.500000000233,
      "v": 127
    },
    {
      "midi": 64,
      "hit": false,
      "t": 264684.2447916667,
      "d": 2812.500000000233,
      "v": 106
    },
    {
      "midi": 67,
      "hit": false,
      "t": 264684.2447916667,
      "d": 2812.500000000233,
      "v": 127
    },
    {
      "midi": 36,
      "hit": false,
      "t": 265000,
      "d": 585.9375000000582,
      "v": 127
    },
    {
      "midi": 36,
      "hit": false,
      "t": 265625.00000000006,
      "d": 585.9375000000582,
      "v": 84
    },
    {
      "midi": 36,
      "hit": false,
      "t": 266250.0000000001,
      "d": 585.9375000000582,
      "v": 127
    },
    {
      "midi": 36,
      "hit": false,
      "t": 266875.0000000002,
      "d": 585.9375000000582,
      "v": 84
    },
    {
      "midi": 36,
      "hit": false,
      "t": 267496.7447916669,
      "d": 2187.5000000001746,
      "v": 127
    },
    {
      "midi": 48,
      "hit": false,
      "t": 267496.7447916669,
      "d": 2187.5000000001746,
      "v": 127
    },
    {
      "midi": 60,
      "hit": false,
      "t": 267496.7447916669,
      "d": 2187.5000000001746,
      "v": 127
    },
    {
      "midi": 62,
      "hit": false,
      "t": 267496.7447916669,
      "d": 2187.5000000001746,
      "v": 127
    },
    {
      "midi": 67,
      "hit": false,
      "t": 267496.7447916669,
      "d": 2187.5000000001746,
      "v": 127
    },
    {
      "midi": 36,
      "hit": false,
      "t": 267500.00000000023,
      "d": 585.9375000000582,
      "v": 127
    },
    {
      "midi": 36,
      "hit": false,
      "t": 268125.0000000003,
      "d": 585.9375000000582,
      "v": 84
    },
    {
      "midi": 36,
      "hit": false,
      "t": 268750.00000000035,
      "d": 585.9375000000582,
      "v": 127
    },
    {
      "midi": 36,
      "hit": false,
      "t": 269375.0000000004,
      "d": 585.9375000000582,
      "v": 84
    },
    {
      "midi": 57,
      "hit": false,
      "t": 269684.2447916671,
      "d": 1562.5000000001164,
      "v": 127
    },
    {
      "midi": 62,
      "hit": false,
      "t": 269684.2447916671,
      "d": 1562.5000000001164,
      "v": 127
    },
    {
      "midi": 67,
      "hit": false,
      "t": 269684.2447916671,
      "d": 1562.5000000001164,
      "v": 127
    },
    {
      "midi": 38,
      "hit": false,
      "t": 269684.2447916671,
      "d": 2812.5000000001746,
      "v": 127
    },
    {
      "midi": 50,
      "hit": false,
      "t": 269684.2447916671,
      "d": 2812.5000000001746,
      "v": 127
    },
    {
      "midi": 36,
      "hit": false,
      "t": 270000.00000000047,
      "d": 585.9375000000582,
      "v": 127
    },
    {
      "midi": 36,
      "hit": false,
      "t": 270625.0000000005,
      "d": 585.9375000000582,
      "v": 84
    },
    {
      "midi": 57,
      "hit": false,
      "t": 271246.7447916672,
      "d": 1250.0000000000582,
      "v": 112
    },
    {
      "midi": 62,
      "hit": false,
      "t": 271246.7447916672,
      "d": 1250.0000000000582,
      "v": 106
    },
    {
      "midi": 66,
      "hit": false,
      "t": 271246.7447916672,
      "d": 1250.0000000000582,
      "v": 127
    },
    {
      "midi": 36,
      "hit": false,
      "t": 271250.0000000006,
      "d": 468.7500000000582,
      "v": 127
    },
    {
      "midi": 36,
      "hit": false,
      "t": 271718.75000000064,
      "d": 39.0625,
      "v": 106
    },
    {
      "midi": 36,
      "hit": false,
      "t": 271875.00000000064,
      "d": 205.0781250000582,
      "v": 84
    },
    {
      "midi": 36,
      "hit": false,
      "t": 272187.5000000007,
      "d": 156.25,
      "v": 127
    }
  ]
}