{
  "jsonPath": "Rock/Hard Rock/HAMMERFALL/glory-to-the-brave.json",
  "path": "Rock\\Hard Rock\\HAMMERFALL\\Glory to the brave.mid",
  "name": "Glory to the brave",
  "difficulty": "Advanced",
  "bpm": 120,
  "notes": [
    {
      "midi": 57,
      "hit": false,
      "t": 0,
      "d": 500,
      "v": 95
    },
    {
      "midi": 62,
      "hit": false,
      "t": 0,
      "d": 500,
      "v": 95
    },
    {
      "midi": 65,
      "hit": false,
      "t": 0,
      "d": 500,
      "v": 95
    },
    {
      "midi": 50,
      "hit": false,
      "t": 0,
      "d": 1000,
      "v": 95
    },
    {
      "midi": 57,
      "hit": false,
      "t": 0,
      "d": 1000,
      "v": 95
    },
    {
      "midi": 62,
      "hit": false,
      "t": 0,
      "d": 1000,
      "v": 95
    },
    {
      "midi": 65,
      "hit": false,
      "t": 0,
      "d": 1000,
      "v": 95
    },
    {
      "midi": 62,
      "hit": false,
      "t": 500,
      "d": 250,
      "v": 95
    },
    {
      "midi": 57,
      "hit": false,
      "t": 750,
      "d": 250,
      "v": 95
    },
    {
      "midi": 65,
      "hit": false,
      "t": 1000,
      "d": 333.33333333333326,
      "v": 95
    },
    {
      "midi": 50,
      "hit": false,
      "t": 1000,
      "d": 333.33333333333326,
      "v": 95
    },
    {
      "midi": 57,
      "hit": false,
      "t": 1000,
      "d": 333.33333333333326,
      "v": 95
    },
    {
      "midi": 62,
      "hit": false,
      "t": 1000,
      "d": 333.33333333333326,
      "v": 95
    },
    {
      "midi": 65,
      "hit": false,
      "t": 1000,
      "d": 333.33333333333326,
      "v": 95
    },
    {
      "midi": 64,
      "hit": false,
      "t": 1333.3333333333333,
      "d": 333.33333333333326,
      "v": 95
    },
    {
      "midi": 50,
      "hit": false,
      "t": 1333.3333333333333,
      "d": 333.33333333333326,
      "v": 95
    },
    {
      "midi": 57,
      "hit": false,
      "t": 1333.3333333333333,
      "d": 333.33333333333326,
      "v": 95
    },
    {
      "midi": 62,
      "hit": false,
      "t": 1333.3333333333333,
      "d": 333.33333333333326,
      "v": 95
    },
    {
      "midi": 64,
      "hit": false,
      "t": 1333.3333333333333,
      "d": 333.33333333333326,
      "v": 95
    },
    {
      "midi": 62,
      "hit": false,
      "t": 1666.6666666666665,
      "d": 333.33333333333326,
      "v": 95
    },
    {
      "midi": 62,
      "hit": false,
      "t": 1666.6666666666665,
      "d": 333.33333333333326,
      "v": 95
    },
    {
      "midi": 52,
      "hit": false,
      "t": 1999.9999999999998,
      "d": 500.0000000000002,
      "v": 95
    },
    {
      "midi": 57,
      "hit": false,
      "t": 1999.9999999999998,
      "d": 500.0000000000002,
      "v": 95
    },
    {
      "midi": 60,
      "hit": false,
      "t": 1999.9999999999998,
      "d": 500.0000000000002,
      "v": 95
    },
    {
      "midi": 45,
      "hit": false,
      "t": 1999.9999999999998,
      "d": 1000.0000000000002,
      "v": 95
    },
    {
      "midi": 52,
      "hit": false,
      "t": 1999.9999999999998,
      "d": 1000.0000000000002,
      "v": 95
    },
    {
      "midi": 57,
      "hit": false,
      "t": 1999.9999999999998,
      "d": 1000.0000000000002,
      "v": 95
    },
    {
      "midi": 60,
      "hit": false,
      "t": 1999.9999999999998,
      "d": 1000.0000000000002,
      "v": 95
    },
    {
      "midi": 64,
      "hit": false,
      "t": 1999.9999999999998,
      "d": 1000.0000000000002,
      "v": 95
    },
    {
      "midi": 57,
      "hit": false,
      "t": 2500,
      "d": 250,
      "v": 95
    },
    {
      "midi": 52,
      "hit": false,
      "t": 2750,
      "d": 250,
      "v": 95
    },
    {
      "midi": 64,
      "hit": false,
      "t": 3000,
      "d": 250,
      "v": 95
    },
    {
      "midi": 45,
      "hit": false,
      "t": 3000,
      "d": 1000,
      "v": 95
    },
    {
      "midi": 52,
      "hit": false,
      "t": 3000,
      "d": 1000,
      "v": 95
    },
    {
      "midi": 57,
      "hit": false,
      "t": 3000,
      "d": 1000,
      "v": 95
    },
    {
      "midi": 60,
      "hit": false,
      "t": 3000,
      "d": 1000,
      "v": 95
    },
    {
      "midi": 64,
      "hit": false,
      "t": 3000,
      "d": 1000,
      "v": 95
    },
    {
      "midi": 60,
      "hit": false,
      "t": 3250,
      "d": 250,
      "v": 95
    },
    {
      "midi": 57,
      "hit": false,
      "t": 3500,
      "d": 250,
      "v": 95
    },
    {
      "midi": 60,
      "hit": false,
      "t": 3750,
      "d": 250,
      "v": 95
    },
    {
      "midi": 53,
      "hit": false,
      "t": 4000,
      "d": 500,
      "v": 95
    },
    {
      "midi": 58,
      "hit": false,
      "t": 4000,
      "d": 500,
      "v": 95
    },
    {
      "midi": 62,
      "hit": false,
      "t": 4000,
      "d": 500,
      "v": 95
    },
    {
      "midi": 46,
      "hit": false,
      "t": 4000,
      "d": 1000,
      "v": 95
    },
    {
      "midi": 50,
      "hit": false,
      "t": 4000,
      "d": 1000,
      "v": 95
    },
    {
      "midi": 58,
      "hit": false,
      "t": 4000,
      "d": 1000,
      "v": 95
    },
    {
      "midi": 62,
      "hit": false,
      "t": 4000,
      "d": 1000,
      "v": 95
    },
    {
      "midi": 65,
      "hit": false,
      "t": 4000,
      "d": 1000,
      "v": 95
    },
    {
      "midi": 58,
      "hit": false,
      "t": 4500,
      "d": 250,
      "v": 95
    },
    {
      "midi": 53,
      "hit": false,
      "t": 4750,
      "d": 250,
      "v": 95
    },
    {
      "midi": 62,
      "hit": false,
      "t": 5000,
      "d": 333.33333333333303,
      "v": 95
    },
    {
      "midi": 53,
      "hit": false,
      "t": 5000,
      "d": 333.33333333333303,
      "v": 95
    },
    {
      "midi": 58,
      "hit": false,
      "t": 5000,
      "d": 333.33333333333303,
      "v": 95
    },
    {
      "midi": 62,
      "hit": false,
      "t": 5000,
      "d": 333.33333333333303,
      "v": 95
    },
    {
      "midi": 60,
      "hit": false,
      "t": 5333.333333333333,
      "d": 333.33333333333303,
      "v": 95
    },
    {
      "midi": 53,
      "hit": false,
      "t": 5333.333333333333,
      "d": 333.33333333333303,
      "v": 95
    },
    {
      "midi": 58,
      "hit": false,
      "t": 5333.333333333333,
      "d": 333.33333333333303,
      "v": 95
    },
    {
      "midi": 60,
      "hit": false,
      "t": 5333.333333333333,
      "d": 333.33333333333303,
      "v": 95
    },
    {
      "midi": 62,
      "hit": false,
      "t": 5666.666666666666,
      "d": 333.33333333333303,
      "v": 95
    },
    {
      "midi": 53,
      "hit": false,
      "t": 5666.666666666666,
      "d": 333.33333333333303,
      "v": 95
    },
    {
      "midi": 58,
      "hit": false,
      "t": 5666.666666666666,
      "d": 333.33333333333303,
      "v": 95
    },
    {
      "midi": 62,
      "hit": false,
      "t": 5666.666666666666,
      "d": 333.33333333333303,
      "v": 95
    },
    {
      "midi": 53,
      "hit": false,
      "t": 5999.999999999999,
      "d": 250,
      "v": 95
    },
    {
      "midi": 57,
      "hit": false,
      "t": 5999.999999999999,
      "d": 250,
      "v": 95
    },
    {
      "midi": 60,
      "hit": false,
      "t": 5999.999999999999,
      "d": 250,
      "v": 95
    },
    {
      "midi": 41,
      "hit": false,
      "t": 5999.999999999999,
      "d": 1000,
      "v": 95
    },
    {
      "midi": 53,
      "hit": false,
      "t": 5999.999999999999,
      "d": 1000,
      "v": 95
    },
    {
      "midi": 57,
      "hit": false,
      "t": 5999.999999999999,
      "d": 1000,
      "v": 95
    },
    {
      "midi": 60,
      "hit": false,
      "t": 5999.999999999999,
      "d": 1000,
      "v": 95
    },
    {
      "midi": 65,
      "hit": false,
      "t": 5999.999999999999,
      "d": 1000,
      "v": 95
    },
    {
      "midi": 53,
      "hit": false,
      "t": 6249.999999999999,
      "d": 250,
      "v": 95
    },
    {
      "midi": 57,
      "hit": false,
      "t": 6499.999999999999,
      "d": 250,
      "v": 95
    },
    {
      "midi": 53,
      "hit": false,
      "t": 6749.999999999999,
      "d": 250,
      "v": 95
    },
    {
      "midi": 52,
      "hit": false,
      "t": 6999.999999999999,
      "d": 250,
      "v": 95
    },
    {
      "midi": 55,
      "hit": false,
      "t": 6999.999999999999,
      "d": 250,
      "v": 95
    },
    {
      "midi": 60,
      "hit": false,
      "t": 6999.999999999999,
      "d": 250,
      "v": 95
    },
    {
      "midi": 48,
      "hit": false,
      "t": 6999.999999999999,
      "d": 1000,
      "v": 95
    },
    {
      "midi": 52,
      "hit": false,
      "t": 6999.999999999999,
      "d": 1000,
      "v": 95
    },
    {
      "midi": 55,
      "hit": false,
      "t": 6999.999999999999,
      "d": 1000,
      "v": 95
    },
    {
      "midi": 60,
      "hit": false,
      "t": 6999.999999999999,
      "d": 1000,
      "v": 95
    },
    {
      "midi": 64,
      "hit": false,
      "t": 6999.999999999999,
      "d": 1000,
      "v": 95
    },
    {
      "midi": 52,
      "hit": false,
      "t": 7249.999999999999,
      "d": 250,
      "v": 95
    },
    {
      "midi": 55,
      "hit": false,
      "t": 7499.999999999999,
      "d": 250,
      "v": 95
    },
    {
      "midi": 52,
      "hit": false,
      "t": 7749.999999999999,
      "d": 250,
      "v": 95
    },
    {
      "midi": 57,
      "hit": false,
      "t": 7999.999999999999,
      "d": 500.0000000000009,
      "v": 95
    },
    {
      "midi": 62,
      "hit": false,
      "t": 7999.999999999999,
      "d": 500.0000000000009,
      "v": 95
    },
    {
      "midi": 65,
      "hit": false,
      "t": 7999.999999999999,
      "d": 500.0000000000009,
      "v": 95
    },
    {
      "midi": 50,
      "hit": false,
      "t": 7999.999999999999,
      "d": 1000.0000000000009,
      "v": 95
    },
    {
      "midi": 57,
      "hit": false,
      "t": 7999.999999999999,
      "d": 1000.0000000000009,
      "v": 95
    },
    {
      "midi": 62,
      "hit": false,
      "t": 7999.999999999999,
      "d": 1000.0000000000009,
      "v": 95
    },
    {
      "midi": 65,
      "hit": false,
      "t": 7999.999999999999,
      "d": 1000.0000000000009,
      "v": 95
    },
    {
      "midi": 57,
      "hit": false,
      "t": 8500,
      "d": 250,
      "v": 95
    },
    {
      "midi": 62,
      "hit": false,
      "t": 8750,
      "d": 125,
      "v": 95
    },
    {
      "midi": 64,
      "hit": false,
      "t": 8875,
      "d": 125,
      "v": 95
    },
    {
      "midi": 65,
      "hit": false,
      "t": 9000,
      "d": 250,
      "v": 95
    },
    {
      "midi": 50,
      "hit": false,
      "t": 9000,
      "d": 1000,
      "v": 95
    },
    {
      "midi": 57,
      "hit": false,
      "t": 9000,
      "d": 1000,
      "v": 95
    },
    {
      "midi": 62,
      "hit": false,
      "t": 9000,
      "d": 1000,
      "v": 95
    },
    {
      "midi": 64,
      "hit": false,
      "t": 9000,
      "d": 1000,
      "v": 95
    },
    {
      "midi": 64,
      "hit": false,
      "t": 9250,
      "d": 250,
      "v": 95
    },
    {
      "midi": 62,
      "hit": false,
      "t": 9500,
      "d": 250,
      "v": 95
    },
    {
      "midi": 64,
      "hit": false,
      "t": 9750,
      "d": 250,
      "v": 95
    },
    {
      "midi": 60,
      "hit": false,
      "t": 10000,
      "d": 125,
      "v": 95
    },
    {
      "midi": 45,
      "hit": false,
      "t": 10000,
      "d": 1000,
      "v": 95
    },
    {
      "midi": 52,
      "hit": false,
      "t": 10000,
      "d": 1000,
      "v": 95
    },
    {
      "midi": 57,
      "hit": false,
      "t": 10000,
      "d": 1000,
      "v": 95
    },
    {
      "midi": 60,
      "hit": false,
      "t": 10000,
      "d": 1000,
      "v": 95
    },
    {
      "midi": 64,
      "hit": false,
      "t": 10000,
      "d": 1000,
      "v": 95
    },
    {
      "midi": 62,
      "hit": false,
      "t": 10125,
      "d": 125,
      "v": 95
    },
    {
      "midi": 64,
      "hit": false,
      "t": 10250,
      "d": 500,
      "v": 95
    },
    {
      "midi": 60,
      "hit": false,
      "t": 10750,
      "d": 250,
      "v": 95
    },
    {
      "midi": 57,
      "hit": false,
      "t": 11000,
      "d": 250,
      "v": 95
    },
    {
      "midi": 45,
      "hit": false,
      "t": 11000,
      "d": 500,
      "v": 95
    },
    {
      "midi": 52,
      "hit": false,
      "t": 11000,
      "d": 500,
      "v": 95
    },
    {
      "midi": 57,
      "hit": false,
      "t": 11000,
      "d": 500,
      "v": 95
    },
    {
      "midi": 60,
      "hit": false,
      "t": 11000,
      "d": 500,
      "v": 95
    },
    {
      "midi": 64,
      "hit": false,
      "t": 11000,
      "d": 500,
      "v": 95
    },
    {
      "midi": 52,
      "hit": false,
      "t": 11250,
      "d": 250,
      "v": 95
    },
    {
      "midi": 57,
      "hit": false,
      "t": 11500,
      "d": 250,
      "v": 95
    },
    {
      "midi": 45,
      "hit": false,
      "t": 11500,
      "d": 500,
      "v": 95
    },
    {
      "midi": 52,
      "hit": false,
      "t": 11500,
      "d": 500,
      "v": 95
    },
    {
      "midi": 57,
      "hit": false,
      "t": 11500,
      "d": 500,
      "v": 95
    },
    {
      "midi": 60,
      "hit": false,
      "t": 11500,
      "d": 500,
      "v": 95
    },
    {
      "midi": 64,
      "hit": false,
      "t": 11500,
      "d": 500,
      "v": 95
    },
    {
      "midi": 60,
      "hit": false,
      "t": 11750,
      "d": 250,
      "v": 95
    },
    {
      "midi": 53,
      "hit": false,
      "t": 12000,
      "d": 333.33333333333394,
      "v": 95
    },
    {
      "midi": 58,
      "hit": false,
      "t": 12000,
      "d": 333.33333333333394,
      "v": 95
    },
    {
      "midi": 62,
      "hit": false,
      "t": 12000,
      "d": 333.33333333333394,
      "v": 95
    },
    {
      "midi": 46,
      "hit": false,
      "t": 12000,
      "d": 2000,
      "v": 95
    },
    {
      "midi": 50,
      "hit": false,
      "t": 12000,
      "d": 2000,
      "v": 95
    },
    {
      "midi": 58,
      "hit": false,
      "t": 12000,
      "d": 2000,
      "v": 95
    },
    {
      "midi": 62,
      "hit": false,
      "t": 12000,
      "d": 2000,
      "v": 95
    },
    {
      "midi": 65,
      "hit": false,
      "t": 12000,
      "d": 2000,
      "v": 95
    },
    {
      "midi": 62,
      "hit": false,
      "t": 12333.333333333334,
      "d": 333.33333333333394,
      "v": 95
    },
    {
      "midi": 62,
      "hit": false,
      "t": 12666.666666666668,
      "d": 333.33333333333394,
      "v": 95
    },
    {
      "midi": 62,
      "hit": false,
      "t": 13000.000000000002,
      "d": 333.33333333333394,
      "v": 95
    },
    {
      "midi": 64,
      "hit": false,
      "t": 13333.333333333336,
      "d": 333.33333333333394,
      "v": 95
    },
    {
      "midi": 65,
      "hit": false,
      "t": 13666.66666666667,
      "d": 333.33333333333394,
      "v": 95
    },
    {
      "midi": 41,
      "hit": false,
      "t": 14000,
      "d": 1000,
      "v": 95
    },
    {
      "midi": 53,
      "hit": false,
      "t": 14000,
      "d": 1000,
      "v": 95
    },
    {
      "midi": 57,
      "hit": false,
      "t": 14000,
      "d": 1000,
      "v": 95
    },
    {
      "midi": 60,
      "hit": false,
      "t": 14000,
      "d": 1000,
      "v": 95
    },
    {
      "midi": 65,
      "hit": false,
      "t": 14000,
      "d": 1000,
      "v": 95
    },
    {
      "midi": 67,
      "hit": false,
      "t": 14000.000000000004,
      "d": 250,
      "v": 95
    },
    {
      "midi": 53,
      "hit": false,
      "t": 14250.000000000004,
      "d": 250,
      "v": 95
    },
    {
      "midi": 57,
      "hit": false,
      "t": 14500.000000000004,
      "d": 250,
      "v": 95
    },
    {
      "midi": 60,
      "hit": false,
      "t": 14750.000000000004,
      "d": 250,
      "v": 95
    },
    {
      "midi": 48,
      "hit": false,
      "t": 15000,
      "d": 1000,
      "v": 95
    },
    {
      "midi": 52,
      "hit": false,
      "t": 15000,
      "d": 1000,
      "v": 95
    },
    {
      "midi": 55,
      "hit": false,
      "t": 15000,
      "d": 1000,
      "v": 95
    },
    {
      "midi": 60,
      "hit": false,
      "t": 15000,
      "d": 1000,
      "v": 95
    },
    {
      "midi": 64,
      "hit": false,
      "t": 15000,
      "d": 1000,
      "v": 95
    },
    {
      "midi": 53,
      "hit": false,
      "t": 15000.000000000004,
      "d": 250,
      "v": 95
    },
    {
      "midi": 52,
      "hit": false,
      "t": 15250.000000000004,
      "d": 250,
      "v": 95
    },
    {
      "midi": 55,
      "hit": false,
      "t": 15500.000000000004,
      "d": 250,
      "v": 95
    },
    {
      "midi": 60,
      "hit": false,
      "t": 15750.000000000004,
      "d": 250,
      "v": 95
    },
    {
      "midi": 50,
      "hit": false,
      "t": 16000,
      "d": 1000,
      "v": 95
    },
    {
      "midi": 57,
      "hit": false,
      "t": 16000,
      "d": 2000,
      "v": 95
    },
    {
      "midi": 62,
      "hit": false,
      "t": 16000,
      "d": 2000,
      "v": 95
    },
    {
      "midi": 45,
      "hit": false,
      "t": 18000,
      "d": 2000,
      "v": 95
    },
    {
      "midi": 52,
      "hit": false,
      "t": 18000,
      "d": 2000,
      "v": 95
    },
    {
      "midi": 57,
      "hit": false,
      "t": 18000,
      "d": 2000,
      "v": 95
    },
    {
      "midi": 46,
      "hit": false,
      "t": 20000,
      "d": 2000,
      "v": 95
    },
    {
      "midi": 53,
      "hit": false,
      "t": 20000,
      "d": 2000,
      "v": 95
    },
    {
      "midi": 58,
      "hit": false,
      "t": 20000,
      "d": 2000,
      "v": 95
    },
    {
      "midi": 41,
      "hit": false,
      "t": 22000,
      "d": 1000,
      "v": 95
    },
    {
      "midi": 48,
      "hit": false,
      "t": 22000,
      "d": 1000,
      "v": 95
    },
    {
      "midi": 53,
      "hit": false,
      "t": 22000,
      "d": 1000,
      "v": 95
    },
    {
      "midi": 48,
      "hit": false,
      "t": 23000,
      "d": 1000,
      "v": 95
    },
    {
      "midi": 55,
      "hit": false,
      "t": 23000,
      "d": 1000,
      "v": 95
    },
    {
      "midi": 60,
      "hit": false,
      "t": 23000,
      "d": 1000,
      "v": 95
    },
    {
      "midi": 50,
      "hit": false,
      "t": 24000,
      "d": 2000,
      "v": 95
    },
    {
      "midi": 57,
      "hit": false,
      "t": 24000,
      "d": 2000,
      "v": 95
    },
    {
      "midi": 62,
      "hit": false,
      "t": 24000,
      "d": 2000,
      "v": 95
    },
    {
      "midi": 45,
      "hit": false,
      "t": 26000,
      "d": 2000,
      "v": 95
    },
    {
      "midi": 52,
      "hit": false,
      "t": 26000,
      "d": 2000,
      "v": 95
    },
    {
      "midi": 57,
      "hit": false,
      "t": 26000,
      "d": 2000,
      "v": 95
    },
    {
      "midi": 46,
      "hit": false,
      "t": 28000,
      "d": 2000,
      "v": 95
    },
    {
      "midi": 53,
      "hit": false,
      "t": 28000,
      "d": 2000,
      "v": 95
    },
    {
      "midi": 58,
      "hit": false,
      "t": 28000,
      "d": 2000,
      "v": 95
    },
    {
      "midi": 48,
      "hit": false,
      "t": 30000,
      "d": 2000,
      "v": 95
    },
    {
      "midi": 55,
      "hit": false,
      "t": 30000,
      "d": 2000,
      "v": 95
    },
    {
      "midi": 60,
      "hit": false,
      "t": 30000,
      "d": 2000,
      "v": 95
    },
    {
      "midi": 50,
      "hit": false,
      "t": 32000,
      "d": 4000,
      "v": 95
    },
    {
      "midi": 57,
      "hit": false,
      "t": 32000,
      "d": 4000,
      "v": 95
    },
    {
      "midi": 62,
      "hit": false,
      "t": 32000,
      "d": 4000,
      "v": 95
    },
    {
      "midi": 57,
      "hit": false,
      "t": 358000,
      "d": 500,
      "v": 95
    },
    {
      "midi": 62,
      "hit": false,
      "t": 358000,
      "d": 500,
      "v": 95
    },
    {
      "midi": 65,
      "hit": false,
      "t": 358000,
      "d": 500,
      "v": 95
    },
    {
      "midi": 50,
      "hit": false,
      "t": 358000,
      "d": 1000,
      "v": 95
    },
    {
      "midi": 57,
      "hit": false,
      "t": 358000,
      "d": 1000,
      "v": 95
    },
    {
      "midi": 62,
      "hit": false,
      "t": 358000,
      "d": 1000,
      "v": 95
    },
    {
      "midi": 65,
      "hit": false,
      "t": 358000,
      "d": 1000,
      "v": 95
    },
    {
      "midi": 62,
      "hit": false,
      "t": 358500,
      "d": 250,
      "v": 95
    },
    {
      "midi": 57,
      "hit": false,
      "t": 358750,
      "d": 250,
      "v": 95
    },
    {
      "midi": 65,
      "hit": false,
      "t": 359000,
      "d": 333.33333333331393,
      "v": 95
    },
    {
      "midi": 50,
      "hit": false,
      "t": 359000,
      "d": 333.33333333331393,
      "v": 95
    },
    {
      "midi": 57,
      "hit": false,
      "t": 359000,
      "d": 333.33333333331393,
      "v": 95
    },
    {
      "midi": 62,
      "hit": false,
      "t": 359000,
      "d": 333.33333333331393,
      "v": 95
    },
    {
      "midi": 65,
      "hit": false,
      "t": 359000,
      "d": 333.33333333331393,
      "v": 95
    },
    {
      "midi": 64,
      "hit": false,
      "t": 359333.3333333333,
      "d": 333.33333333331393,
      "v": 95
    },
    {
      "midi": 50,
      "hit": false,
      "t": 359333.3333333333,
      "d": 333.33333333331393,
      "v": 95
    },
    {
      "midi": 57,
      "hit": false,
      "t": 359333.3333333333,
      "d": 333.33333333331393,
      "v": 95
    },
    {
      "midi": 62,
      "hit": false,
      "t": 359333.3333333333,
      "d": 333.33333333331393,
      "v": 95
    },
    {
      "midi": 64,
      "hit": false,
      "t": 359333.3333333333,
      "d": 333.33333333331393,
      "v": 95
    },
    {
      "midi": 62,
      "hit": false,
      "t": 359666.6666666666,
      "d": 333.33333333331393,
      "v": 95
    },
    {
      "midi": 62,
      "hit": false,
      "t": 359666.6666666666,
      "d": 333.33333333331393,
      "v": 95
    },
    {
      "midi": 52,
      "hit": false,
      "t": 359999.99999999994,
      "d": 500,
      "v": 95
    },
    {
      "midi": 57,
      "hit": false,
      "t": 359999.99999999994,
      "d": 500,
      "v": 95
    },
    {
      "midi": 60,
      "hit": false,
      "t": 359999.99999999994,
      "d": 500,
      "v": 95
    },
    {
      "midi": 45,
      "hit": false,
      "t": 359999.99999999994,
      "d": 1000,
      "v": 95
    },
    {
      "midi": 52,
      "hit": false,
      "t": 359999.99999999994,
      "d": 1000,
      "v": 95
    },
    {
      "midi": 57,
      "hit": false,
      "t": 359999.99999999994,
      "d": 1000,
      "v": 95
    },
    {
      "midi": 60,
      "hit": false,
      "t": 359999.99999999994,
      "d": 1000,
      "v": 95
    },
    {
      "midi": 64,
      "hit": false,
      "t": 359999.99999999994,
      "d": 1000,
      "v": 95
    },
    {
      "midi": 57,
      "hit": false,
      "t": 360499.99999999994,
      "d": 250,
      "v": 95
    },
    {
      "midi": 52,
      "hit": false,
      "t": 360749.99999999994,
      "d": 250,
      "v": 95
    },
    {
      "midi": 64,
      "hit": false,
      "t": 360999.99999999994,
      "d": 250,
      "v": 95
    },
    {
      "midi": 45,
      "hit": false,
      "t": 360999.99999999994,
      "d": 1000,
      "v": 95
    },
    {
      "midi": 52,
      "hit": false,
      "t": 360999.99999999994,
      "d": 1000,
      "v": 95
    },
    {
      "midi": 57,
      "hit": false,
      "t": 360999.99999999994,
      "d": 1000,
      "v": 95
    },
    {
      "midi": 60,
      "hit": false,
      "t": 360999.99999999994,
      "d": 1000,
      "v": 95
    },
    {
      "midi": 64,
      "hit": false,
      "t": 360999.99999999994,
      "d": 1000,
      "v": 95
    },
    {
      "midi": 60,
      "hit": false,
      "t": 361249.99999999994,
      "d": 250,
      "v": 95
    },
    {
      "midi": 57,
      "hit": false,
      "t": 361499.99999999994,
      "d": 250,
      "v": 95
    },
    {
      "midi": 60,
      "hit": false,
      "t": 361749.99999999994,
      "d": 250,
      "v": 95
    },
    {
      "midi": 53,
      "hit": false,
      "t": 361999.99999999994,
      "d": 500,
      "v": 95
    },
    {
      "midi": 58,
      "hit": false,
      "t": 361999.99999999994,
      "d": 500,
      "v": 95
    },
    {
      "midi": 62,
      "hit": false,
      "t": 361999.99999999994,
      "d": 500,
      "v": 95
    },
    {
      "midi": 46,
      "hit": false,
      "t": 361999.99999999994,
      "d": 1000,
      "v": 95
    },
    {
      "midi": 50,
      "hit": false,
      "t": 361999.99999999994,
      "d": 1000,
      "v": 95
    },
    {
      "midi": 58,
      "hit": false,
      "t": 361999.99999999994,
      "d": 1000,
      "v": 95
    },
    {
      "midi": 62,
      "hit": false,
      "t": 361999.99999999994,
      "d": 1000,
      "v": 95
    },
    {
      "midi": 65,
      "hit": false,
      "t": 361999.99999999994,
      "d": 1000,
      "v": 95
    },
    {
      "midi": 58,
      "hit": false,
      "t": 362499.99999999994,
      "d": 250,
      "v": 95
    },
    {
      "midi": 53,
      "hit": false,
      "t": 362749.99999999994,
      "d": 250,
      "v": 95
    },
    {
      "midi": 62,
      "hit": false,
      "t": 362999.99999999994,
      "d": 333.33333333331393,
      "v": 95
    },
    {
      "midi": 53,
      "hit": false,
      "t": 362999.99999999994,
      "d": 333.33333333331393,
      "v": 95
    },
    {
      "midi": 58,
      "hit": false,
      "t": 362999.99999999994,
      "d": 333.33333333331393,
      "v": 95
    },
    {
      "midi": 62,
      "hit": false,
      "t": 362999.99999999994,
      "d": 333.33333333331393,
      "v": 95
    },
    {
      "midi": 60,
      "hit": false,
      "t": 363333.33333333326,
      "d": 333.33333333331393,
      "v": 95
    },
    {
      "midi": 53,
      "hit": false,
      "t": 363333.33333333326,
      "d": 333.33333333331393,
      "v": 95
    },
    {
      "midi": 58,
      "hit": false,
      "t": 363333.33333333326,
      "d": 333.33333333331393,
      "v": 95
    },
    {
      "midi": 60,
      "hit": false,
      "t": 363333.33333333326,
      "d": 333.33333333331393,
      "v": 95
    },
    {
      "midi": 62,
      "hit": false,
      "t": 363666.66666666657,
      "d": 333.33333333331393,
      "v": 95
    },
    {
      "midi": 53,
      "hit": false,
      "t": 363666.66666666657,
      "d": 333.33333333331393,
      "v": 95
    },
    {
      "midi": 58,
      "hit": false,
      "t": 363666.66666666657,
      "d": 333.33333333331393,
      "v": 95
    },
    {
      "midi": 62,
      "hit": false,
      "t": 363666.66666666657,
      "d": 333.33333333331393,
      "v": 95
    },
    {
      "midi": 53,
      "hit": false,
      "t": 363999.9999999999,
      "d": 250,
      "v": 95
    },
    {
      "midi": 57,
      "hit": false,
      "t": 363999.9999999999,
      "d": 250,
      "v": 95
    },
    {
      "midi": 60,
      "hit": false,
      "t": 363999.9999999999,
      "d": 250,
      "v": 95
    },
    {
      "midi": 41,
      "hit": false,
      "t": 363999.9999999999,
      "d": 1000,
      "v": 95
    },
    {
      "midi": 53,
      "hit": false,
      "t": 363999.9999999999,
      "d": 1000,
      "v": 95
    },
    {
      "midi": 57,
      "hit": false,
      "t": 363999.9999999999,
      "d": 1000,
      "v": 95
    },
    {
      "midi": 60,
      "hit": false,
      "t": 363999.9999999999,
      "d": 1000,
      "v": 95
    },
    {
      "midi": 65,
      "hit": false,
      "t": 363999.9999999999,
      "d": 1000,
      "v": 95
    },
    {
      "midi": 53,
      "hit": false,
      "t": 364249.9999999999,
      "d": 250,
      "v": 95
    },
    {
      "midi": 57,
      "hit": false,
      "t": 364499.9999999999,
      "d": 250,
      "v": 95
    },
    {
      "midi": 53,
      "hit": false,
      "t": 364749.9999999999,
      "d": 250,
      "v": 95
    },
    {
      "midi": 52,
      "hit": false,
      "t": 364999.9999999999,
      "d": 250,
      "v": 95
    },
    {
      "midi": 55,
      "hit": false,
      "t": 364999.9999999999,
      "d": 250,
      "v": 95
    },
    {
      "midi": 60,
      "hit": false,
      "t": 364999.9999999999,
      "d": 250,
      "v": 95
    },
    {
      "midi": 48,
      "hit": false,
      "t": 364999.9999999999,
      "d": 1000,
      "v": 95
    },
    {
      "midi": 52,
      "hit": false,
      "t": 364999.9999999999,
      "d": 1000,
      "v": 95
    },
    {
      "midi": 55,
      "hit": false,
      "t": 364999.9999999999,
      "d": 1000,
      "v": 95
    },
    {
      "midi": 60,
      "hit": false,
      "t": 364999.9999999999,
      "d": 1000,
      "v": 95
    },
    {
      "midi": 64,
      "hit": false,
      "t": 364999.9999999999,
      "d": 1000,
      "v": 95
    },
    {
      "midi": 52,
      "hit": false,
      "t": 365249.9999999999,
      "d": 250,
      "v": 95
    },
    {
      "midi": 55,
      "hit": false,
      "t": 365499.9999999999,
      "d": 250,
      "v": 95
    },
    {
      "midi": 52,
      "hit": false,
      "t": 365749.9999999999,
      "d": 250,
      "v": 95
    },
    {
      "midi": 57,
      "hit": false,
      "t": 365999.9999999999,
      "d": 500,
      "v": 95
    },
    {
      "midi": 62,
      "hit": false,
      "t": 365999.9999999999,
      "d": 500,
      "v": 95
    },
    {
      "midi": 65,
      "hit": false,
      "t": 365999.9999999999,
      "d": 500,
      "v": 95
    },
    {
      "midi": 50,
      "hit": false,
      "t": 365999.9999999999,
      "d": 1000,
      "v": 95
    },
    {
      "midi": 57,
      "hit": false,
      "t": 365999.9999999999,
      "d": 1000,
      "v": 95
    },
    {
      "midi": 62,
      "hit": false,
      "t": 365999.9999999999,
      "d": 1000,
      "v": 95
    },
    {
      "midi": 65,
      "hit": false,
      "t": 365999.9999999999,
      "d": 1000,
      "v": 95
    },
    {
      "midi": 57,
      "hit": false,
      "t": 366499.9999999999,
      "d": 250,
      "v": 95
    },
    {
      "midi": 62,
      "hit": false,
      "t": 366749.9999999999,
      "d": 125,
      "v": 95
    },
    {
      "midi": 64,
      "hit": false,
      "t": 366874.9999999999,
      "d": 125,
      "v": 95
    },
    {
      "midi": 65,
      "hit": false,
      "t": 366999.9999999999,
      "d": 250,
      "v": 95
    },
    {
      "midi": 50,
      "hit": false,
      "t": 366999.9999999999,
      "d": 1000,
      "v": 95
    },
    {
      "midi": 57,
      "hit": false,
      "t": 366999.9999999999,
      "d": 1000,
      "v": 95
    },
    {
      "midi": 62,
      "hit": false,
      "t": 366999.9999999999,
      "d": 1000,
      "v": 95
    },
    {
      "midi": 64,
      "hit": false,
      "t": 366999.9999999999,
      "d": 1000,
      "v": 95
    },
    {
      "midi": 64,
      "hit": false,
      "t": 367249.9999999999,
      "d": 250,
      "v": 95
    },
    {
      "midi": 62,
      "hit": false,
      "t": 367499.9999999999,
      "d": 250,
      "v": 95
    },
    {
      "midi": 64,
      "hit": false,
      "t": 367749.9999999999,
      "d": 250,
      "v": 95
    },
    {
      "midi": 60,
      "hit": false,
      "t": 367999.9999999999,
      "d": 125,
      "v": 95
    },
    {
      "midi": 45,
      "hit": false,
      "t": 367999.9999999999,
      "d": 1000,
      "v": 95
    },
    {
      "midi": 52,
      "hit": false,
      "t": 367999.9999999999,
      "d": 1000,
      "v": 95
    },
    {
      "midi": 57,
      "hit": false,
      "t": 367999.9999999999,
      "d": 1000,
      "v": 95
    },
    {
      "midi": 60,
      "hit": false,
      "t": 367999.9999999999,
      "d": 1000,
      "v": 95
    },
    {
      "midi": 64,
      "hit": false,
      "t": 367999.9999999999,
      "d": 1000,
      "v": 95
    },
    {
      "midi": 62,
      "hit": false,
      "t": 368124.9999999999,
      "d": 125,
      "v": 95
    },
    {
      "midi": 64,
      "hit": false,
      "t": 368249.9999999999,
      "d": 500,
      "v": 95
    },
    {
      "midi": 60,
      "hit": false,
      "t": 368749.9999999999,
      "d": 250,
      "v": 95
    },
    {
      "midi": 57,
      "hit": false,
      "t": 368999.9999999999,
      "d": 250,
      "v": 95
    },
    {
      "midi": 45,
      "hit": false,
      "t": 368999.9999999999,
      "d": 500,
      "v": 95
    },
    {
      "midi": 52,
      "hit": false,
      "t": 368999.9999999999,
      "d": 500,
      "v": 95
    },
    {
      "midi": 57,
      "hit": false,
      "t": 368999.9999999999,
      "d": 500,
      "v": 95
    },
    {
      "midi": 60,
      "hit": false,
      "t": 368999.9999999999,
      "d": 500,
      "v": 95
    },
    {
      "midi": 64,
      "hit": false,
      "t": 368999.9999999999,
      "d": 500,
      "v": 95
    },
    {
      "midi": 52,
      "hit": false,
      "t": 369249.9999999999,
      "d": 250,
      "v": 95
    },
    {
      "midi": 57,
      "hit": false,
      "t": 369499.9999999999,
      "d": 250,
      "v": 95
    },
    {
      "midi": 45,
      "hit": false,
      "t": 369499.9999999999,
      "d": 500,
      "v": 95
    },
    {
      "midi": 52,
      "hit": false,
      "t": 369499.9999999999,
      "d": 500,
      "v": 95
    },
    {
      "midi": 57,
      "hit": false,
      "t": 369499.9999999999,
      "d": 500,
      "v": 95
    },
    {
      "midi": 60,
      "hit": false,
      "t": 369499.9999999999,
      "d": 500,
      "v": 95
    },
    {
      "midi": 64,
      "hit": false,
      "t": 369499.9999999999,
      "d": 500,
      "v": 95
    },
    {
      "midi": 60,
      "hit": false,
      "t": 369749.9999999999,
      "d": 250,
      "v": 95
    },
    {
      "midi": 53,
      "hit": false,
      "t": 369999.9999999999,
      "d": 333.33333333331393,
      "v": 95
    },
    {
      "midi": 58,
      "hit": false,
      "t": 369999.9999999999,
      "d": 333.33333333331393,
      "v": 95
    },
    {
      "midi": 62,
      "hit": false,
      "t": 369999.9999999999,
      "d": 333.33333333331393,
      "v": 95
    },
    {
      "midi": 46,
      "hit": false,
      "t": 369999.9999999999,
      "d": 2000,
      "v": 95
    },
    {
      "midi": 50,
      "hit": false,
      "t": 369999.9999999999,
      "d": 2000,
      "v": 95
    },
    {
      "midi": 58,
      "hit": false,
      "t": 369999.9999999999,
      "d": 2000,
      "v": 95
    },
    {
      "midi": 62,
      "hit": false,
      "t": 369999.9999999999,
      "d": 2000,
      "v": 95
    },
    {
      "midi": 65,
      "hit": false,
      "t": 369999.9999999999,
      "d": 2000,
      "v": 95
    },
    {
      "midi": 62,
      "hit": false,
      "t": 370333.3333333332,
      "d": 333.33333333331393,
      "v": 95
    },
    {
      "midi": 62,
      "hit": false,
      "t": 370666.6666666665,
      "d": 333.33333333331393,
      "v": 95
    },
    {
      "midi": 62,
      "hit": false,
      "t": 370999.9999999998,
      "d": 333.33333333331393,
      "v": 95
    },
    {
      "midi": 64,
      "hit": false,
      "t": 371333.33333333314,
      "d": 333.33333333331393,
      "v": 95
    },
    {
      "midi": 65,
      "hit": false,
      "t": 371666.66666666645,
      "d": 333.33333333331393,
      "v": 95
    },
    {
      "midi": 67,
      "hit": false,
      "t": 371999.99999999977,
      "d": 250,
      "v": 95
    },
    {
      "midi": 48,
      "hit": false,
      "t": 371999.9999999999,
      "d": 2000,
      "v": 95
    },
    {
      "midi": 52,
      "hit": false,
      "t": 371999.9999999999,
      "d": 2000,
      "v": 95
    },
    {
      "midi": 55,
      "hit": false,
      "t": 371999.9999999999,
      "d": 2000,
      "v": 95
    },
    {
      "midi": 60,
      "hit": false,
      "t": 371999.9999999999,
      "d": 2000,
      "v": 95
    },
    {
      "midi": 64,
      "hit": false,
      "t": 371999.9999999999,
      "d": 2000,
      "v": 95
    },
    {
      "midi": 48,
      "hit": false,
      "t": 372249.99999999977,
      "d": 250,
      "v": 95
    },
    {
      "midi": 52,
      "hit": false,
      "t": 372499.99999999977,
      "d": 250,
      "v": 95
    },
    {
      "midi": 55,
      "hit": false,
      "t": 372749.99999999977,
      "d": 250,
      "v": 95
    },
    {
      "midi": 53,
      "hit": false,
      "t": 372999.99999999977,
      "d": 250,
      "v": 95
    },
    {
      "midi": 52,
      "hit": false,
      "t": 373249.99999999977,
      "d": 250,
      "v": 95
    },
    {
      "midi": 55,
      "hit": false,
      "t": 373499.99999999977,
      "d": 250,
      "v": 95
    },
    {
      "midi": 60,
      "hit": false,
      "t": 373749.99999999977,
      "d": 250,
      "v": 95
    },
    {
      "midi": 57,
      "hit": false,
      "t": 373999.99999999977,
      "d": 500,
      "v": 95
    },
    {
      "midi": 62,
      "hit": false,
      "t": 373999.99999999977,
      "d": 500,
      "v": 95
    },
    {
      "midi": 65,
      "hit": false,
      "t": 373999.99999999977,
      "d": 500,
      "v": 95
    },
    {
      "midi": 50,
      "hit": false,
      "t": 373999.9999999999,
      "d": 1000,
      "v": 95
    },
    {
      "midi": 57,
      "hit": false,
      "t": 373999.9999999999,
      "d": 1000,
      "v": 95
    },
    {
      "midi": 62,
      "hit": false,
      "t": 373999.9999999999,
      "d": 1000,
      "v": 95
    },
    {
      "midi": 65,
      "hit": false,
      "t": 373999.9999999999,
      "d": 1000,
      "v": 95
    },
    {
      "midi": 62,
      "hit": false,
      "t": 374499.99999999977,
      "d": 250,
      "v": 95
    },
    {
      "midi": 57,
      "hit": false,
      "t": 374749.99999999977,
      "d": 250,
      "v": 95
    },
    {
      "midi": 65,
      "hit": false,
      "t": 374999.99999999977,
      "d": 333.33333333331393,
      "v": 95
    },
    {
      "midi": 50,
      "hit": false,
      "t": 374999.9999999999,
      "d": 333.33333333331393,
      "v": 95
    },
    {
      "midi": 57,
      "hit": false,
      "t": 374999.9999999999,
      "d": 333.33333333331393,
      "v": 95
    },
    {
      "midi": 62,
      "hit": false,
      "t": 374999.9999999999,
      "d": 333.33333333331393,
      "v": 95
    },
    {
      "midi": 65,
      "hit": false,
      "t": 374999.9999999999,
      "d": 333.33333333331393,
      "v": 95
    },
    {
      "midi": 64,
      "hit": false,
      "t": 375333.3333333331,
      "d": 333.33333333331393,
      "v": 95
    },
    {
      "midi": 50,
      "hit": false,
      "t": 375333.3333333332,
      "d": 333.33333333331393,
      "v": 95
    },
    {
      "midi": 57,
      "hit": false,
      "t": 375333.3333333332,
      "d": 333.33333333331393,
      "v": 95
    },
    {
      "midi": 62,
      "hit": false,
      "t": 375333.3333333332,
      "d": 333.33333333331393,
      "v": 95
    },
    {
      "midi": 64,
      "hit": false,
      "t": 375333.3333333332,
      "d": 333.33333333331393,
      "v": 95
    },
    {
      "midi": 62,
      "hit": false,
      "t": 375666.6666666664,
      "d": 333.33333333331393,
      "v": 95
    },
    {
      "midi": 62,
      "hit": false,
      "t": 375666.6666666665,
      "d": 333.33333333331393,
      "v": 95
    },
    {
      "midi": 52,
      "hit": false,
      "t": 375999.9999999997,
      "d": 500,
      "v": 95
    },
    {
      "midi": 57,
      "hit": false,
      "t": 375999.9999999997,
      "d": 500,
      "v": 95
    },
    {
      "midi": 60,
      "hit": false,
      "t": 375999.9999999997,
      "d": 500,
      "v": 95
    },
    {
      "midi": 45,
      "hit": false,
      "t": 375999.9999999998,
      "d": 1000,
      "v": 95
    },
    {
      "midi": 52,
      "hit": false,
      "t": 375999.9999999998,
      "d": 1000,
      "v": 95
    },
    {
      "midi": 57,
      "hit": false,
      "t": 375999.9999999998,
      "d": 1000,
      "v": 95
    },
    {
      "midi": 60,
      "hit": false,
      "t": 375999.9999999998,
      "d": 1000,
      "v": 95
    },
    {
      "midi": 64,
      "hit": false,
      "t": 375999.9999999998,
      "d": 1000,
      "v": 95
    },
    {
      "midi": 57,
      "hit": false,
      "t": 376499.9999999997,
      "d": 250,
      "v": 95
    },
    {
      "midi": 52,
      "hit": false,
      "t": 376749.9999999997,
      "d": 250,
      "v": 95
    },
    {
      "midi": 64,
      "hit": false,
      "t": 376999.9999999997,
      "d": 250,
      "v": 95
    },
    {
      "midi": 45,
      "hit": false,
      "t": 376999.9999999998,
      "d": 1000,
      "v": 95
    },
    {
      "midi": 52,
      "hit": false,
      "t": 376999.9999999998,
      "d": 1000,
      "v": 95
    },
    {
      "midi": 57,
      "hit": false,
      "t": 376999.9999999998,
      "d": 1000,
      "v": 95
    },
    {
      "midi": 60,
      "hit": false,
      "t": 376999.9999999998,
      "d": 1000,
      "v": 95
    },
    {
      "midi": 64,
      "hit": false,
      "t": 376999.9999999998,
      "d": 1000,
      "v": 95
    },
    {
      "midi": 60,
      "hit": false,
      "t": 377249.9999999997,
      "d": 250,
      "v": 95
    },
    {
      "midi": 57,
      "hit": false,
      "t": 377499.9999999997,
      "d": 250,
      "v": 95
    },
    {
      "midi": 60,
      "hit": false,
      "t": 377749.9999999997,
      "d": 250,
      "v": 95
    },
    {
      "midi": 53,
      "hit": false,
      "t": 377999.9999999997,
      "d": 500,
      "v": 95
    },
    {
      "midi": 58,
      "hit": false,
      "t": 377999.9999999997,
      "d": 500,
      "v": 95
    },
    {
      "midi": 62,
      "hit": false,
      "t": 377999.9999999997,
      "d": 500,
      "v": 95
    },
    {
      "midi": 46,
      "hit": false,
      "t": 377999.9999999998,
      "d": 1000,
      "v": 95
    },
    {
      "midi": 50,
      "hit": false,
      "t": 377999.9999999998,
      "d": 1000,
      "v": 95
    },
    {
      "midi": 58,
      "hit": false,
      "t": 377999.9999999998,
      "d": 1000,
      "v": 95
    },
    {
      "midi": 62,
      "hit": false,
      "t": 377999.9999999998,
      "d": 1000,
      "v": 95
    },
    {
      "midi": 65,
      "hit": false,
      "t": 377999.9999999998,
      "d": 1000,
      "v": 95
    },
    {
      "midi": 58,
      "hit": false,
      "t": 378499.9999999997,
      "d": 250,
      "v": 95
    },
    {
      "midi": 53,
      "hit": false,
      "t": 378749.9999999997,
      "d": 250,
      "v": 95
    },
    {
      "midi": 62,
      "hit": false,
      "t": 378999.9999999997,
      "d": 333.33333333331393,
      "v": 95
    },
    {
      "midi": 53,
      "hit": false,
      "t": 378999.9999999998,
      "d": 333.33333333331393,
      "v": 95
    },
    {
      "midi": 58,
      "hit": false,
      "t": 378999.9999999998,
      "d": 333.33333333331393,
      "v": 95
    },
    {
      "midi": 62,
      "hit": false,
      "t": 378999.9999999998,
      "d": 333.33333333331393,
      "v": 95
    },
    {
      "midi": 60,
      "hit": false,
      "t": 379333.333333333,
      "d": 333.33333333331393,
      "v": 95
    },
    {
      "midi": 53,
      "hit": false,
      "t": 379333.33333333314,
      "d": 333.33333333331393,
      "v": 95
    },
    {
      "midi": 58,
      "hit": false,
      "t": 379333.33333333314,
      "d": 333.33333333331393,
      "v": 95
    },
    {
      "midi": 60,
      "hit": false,
      "t": 379333.33333333314,
      "d": 333.33333333331393,
      "v": 95
    },
    {
      "midi": 62,
      "hit": false,
      "t": 379666.66666666634,
      "d": 333.33333333331393,
      "v": 95
    },
    {
      "midi": 53,
      "hit": false,
      "t": 379666.66666666645,
      "d": 333.33333333331393,
      "v": 95
    },
    {
      "midi": 58,
      "hit": false,
      "t": 379666.66666666645,
      "d": 333.33333333331393,
      "v": 95
    },
    {
      "midi": 62,
      "hit": false,
      "t": 379666.66666666645,
      "d": 333.33333333331393,
      "v": 95
    },
    {
      "midi": 53,
      "hit": false,
      "t": 379999.99999999965,
      "d": 250,
      "v": 95
    },
    {
      "midi": 57,
      "hit": false,
      "t": 379999.99999999965,
      "d": 250,
      "v": 95
    },
    {
      "midi": 60,
      "hit": false,
      "t": 379999.99999999965,
      "d": 250,
      "v": 95
    },
    {
      "midi": 41,
      "hit": false,
      "t": 379999.99999999977,
      "d": 1000,
      "v": 95
    },
    {
      "midi": 53,
      "hit": false,
      "t": 379999.99999999977,
      "d": 1000,
      "v": 95
    },
    {
      "midi": 57,
      "hit": false,
      "t": 379999.99999999977,
      "d": 1000,
      "v": 95
    },
    {
      "midi": 60,
      "hit": false,
      "t": 379999.99999999977,
      "d": 1000,
      "v": 95
    },
    {
      "midi": 65,
      "hit": false,
      "t": 379999.99999999977,
      "d": 1000,
      "v": 95
    },
    {
      "midi": 53,
      "hit": false,
      "t": 380249.99999999965,
      "d": 250,
      "v": 95
    },
    {
      "midi": 57,
      "hit": false,
      "t": 380499.99999999965,
      "d": 250,
      "v": 95
    },
    {
      "midi": 53,
      "hit": false,
      "t": 380749.99999999965,
      "d": 250,
      "v": 95
    },
    {
      "midi": 52,
      "hit": false,
      "t": 380999.99999999965,
      "d": 250,
      "v": 95
    },
    {
      "midi": 55,
      "hit": false,
      "t": 380999.99999999965,
      "d": 250,
      "v": 95
    },
    {
      "midi": 60,
      "hit": false,
      "t": 380999.99999999965,
      "d": 250,
      "v": 95
    },
    {
      "midi": 48,
      "hit": false,
      "t": 380999.99999999977,
      "d": 1000,
      "v": 95
    },
    {
      "midi": 52,
      "hit": false,
      "t": 380999.99999999977,
      "d": 1000,
      "v": 95
    },
    {
      "midi": 55,
      "hit": false,
      "t": 380999.99999999977,
      "d": 1000,
      "v": 95
    },
    {
      "midi": 60,
      "hit": false,
      "t": 380999.99999999977,
      "d": 1000,
      "v": 95
    },
    {
      "midi": 64,
      "hit": false,
      "t": 380999.99999999977,
      "d": 1000,
      "v": 95
    },
    {
      "midi": 52,
      "hit": false,
      "t": 381249.99999999965,
      "d": 250,
      "v": 95
    },
    {
      "midi": 55,
      "hit": false,
      "t": 381499.99999999965,
      "d": 250,
      "v": 95
    },
    {
      "midi": 52,
      "hit": false,
      "t": 381749.99999999965,
      "d": 250,
      "v": 95
    },
    {
      "midi": 57,
      "hit": false,
      "t": 381999.99999999965,
      "d": 500,
      "v": 95
    },
    {
      "midi": 62,
      "hit": false,
      "t": 381999.99999999965,
      "d": 500,
      "v": 95
    },
    {
      "midi": 65,
      "hit": false,
      "t": 381999.99999999965,
      "d": 500,
      "v": 95
    },
    {
      "midi": 50,
      "hit": false,
      "t": 381999.99999999977,
      "d": 1000,
      "v": 95
    },
    {
      "midi": 57,
      "hit": false,
      "t": 381999.99999999977,
      "d": 1000,
      "v": 95
    },
    {
      "midi": 62,
      "hit": false,
      "t": 381999.99999999977,
      "d": 1000,
      "v": 95
    },
    {
      "midi": 65,
      "hit": false,
      "t": 381999.99999999977,
      "d": 1000,
      "v": 95
    },
    {
      "midi": 57,
      "hit": false,
      "t": 382499.99999999965,
      "d": 250,
      "v": 95
    },
    {
      "midi": 62,
      "hit": false,
      "t": 382749.99999999965,
      "d": 125,
      "v": 95
    },
    {
      "midi": 64,
      "hit": false,
      "t": 382874.99999999965,
      "d": 125,
      "v": 95
    },
    {
      "midi": 65,
      "hit": false,
      "t": 382999.99999999965,
      "d": 250,
      "v": 95
    },
    {
      "midi": 50,
      "hit": false,
      "t": 382999.99999999977,
      "d": 1000,
      "v": 95
    },
    {
      "midi": 57,
      "hit": false,
      "t": 382999.99999999977,
      "d": 1000,
      "v": 95
    },
    {
      "midi": 62,
      "hit": false,
      "t": 382999.99999999977,
      "d": 1000,
      "v": 95
    },
    {
      "midi": 64,
      "hit": false,
      "t": 382999.99999999977,
      "d": 1000,
      "v": 95
    },
    {
      "midi": 64,
      "hit": false,
      "t": 383249.99999999965,
      "d": 250,
      "v": 95
    },
    {
      "midi": 62,
      "hit": false,
      "t": 383499.99999999965,
      "d": 250,
      "v": 95
    },
    {
      "midi": 64,
      "hit": false,
      "t": 383749.99999999965,
      "d": 250,
      "v": 95
    },
    {
      "midi": 60,
      "hit": false,
      "t": 383999.99999999965,
      "d": 125,
      "v": 95
    },
    {
      "midi": 45,
      "hit": false,
      "t": 383999.99999999977,
      "d": 1000,
      "v": 95
    },
    {
      "midi": 52,
      "hit": false,
      "t": 383999.99999999977,
      "d": 1000,
      "v": 95
    },
    {
      "midi": 57,
      "hit": false,
      "t": 383999.99999999977,
      "d": 1000,
      "v": 95
    },
    {
      "midi": 60,
      "hit": false,
      "t": 383999.99999999977,
      "d": 1000,
      "v": 95
    },
    {
      "midi": 64,
      "hit": false,
      "t": 383999.99999999977,
      "d": 1000,
      "v": 95
    },
    {
      "midi": 62,
      "hit": false,
      "t": 384124.99999999965,
      "d": 125,
      "v": 95
    },
    {
      "midi": 64,
      "hit": false,
      "t": 384249.99999999965,
      "d": 500,
      "v": 95
    },
    {
      "midi": 60,
      "hit": false,
      "t": 384749.99999999965,
      "d": 250,
      "v": 95
    },
    {
      "midi": 57,
      "hit": false,
      "t": 384999.99999999965,
      "d": 250,
      "v": 95
    },
    {
      "midi": 45,
      "hit": false,
      "t": 384999.99999999977,
      "d": 500,
      "v": 95
    },
    {
      "midi": 52,
      "hit": false,
      "t": 384999.99999999977,
      "d": 500,
      "v": 95
    },
    {
      "midi": 57,
      "hit": false,
      "t": 384999.99999999977,
      "d": 500,
      "v": 95
    },
    {
      "midi": 60,
      "hit": false,
      "t": 384999.99999999977,
      "d": 500,
      "v": 95
    },
    {
      "midi": 64,
      "hit": false,
      "t": 384999.99999999977,
      "d": 500,
      "v": 95
    },
    {
      "midi": 52,
      "hit": false,
      "t": 385249.99999999965,
      "d": 250,
      "v": 95
    },
    {
      "midi": 57,
      "hit": false,
      "t": 385499.99999999965,
      "d": 250,
      "v": 95
    },
    {
      "midi": 45,
      "hit": false,
      "t": 385499.99999999977,
      "d": 500,
      "v": 95
    },
    {
      "midi": 52,
      "hit": false,
      "t": 385499.99999999977,
      "d": 500,
      "v": 95
    },
    {
      "midi": 57,
      "hit": false,
      "t": 385499.99999999977,
      "d": 500,
      "v": 95
    },
    {
      "midi": 60,
      "hit": false,
      "t": 385499.99999999977,
      "d": 500,
      "v": 95
    },
    {
      "midi": 64,
      "hit": false,
      "t": 385499.99999999977,
      "d": 500,
      "v": 95
    },
    {
      "midi": 60,
      "hit": false,
      "t": 385749.99999999965,
      "d": 250,
      "v": 95
    },
    {
      "midi": 53,
      "hit": false,
      "t": 385999.99999999965,
      "d": 333.33333333331393,
      "v": 95
    },
    {
      "midi": 58,
      "hit": false,
      "t": 385999.99999999965,
      "d": 333.33333333331393,
      "v": 95
    },
    {
      "midi": 62,
      "hit": false,
      "t": 385999.99999999965,
      "d": 333.33333333331393,
      "v": 95
    },
    {
      "midi": 46,
      "hit": false,
      "t": 385999.99999999977,
      "d": 2000,
      "v": 95
    },
    {
      "midi": 50,
      "hit": false,
      "t": 385999.99999999977,
      "d": 2000,
      "v": 95
    },
    {
      "midi": 58,
      "hit": false,
      "t": 385999.99999999977,
      "d": 2000,
      "v": 95
    },
    {
      "midi": 62,
      "hit": false,
      "t": 385999.99999999977,
      "d": 2000,
      "v": 95
    },
    {
      "midi": 65,
      "hit": false,
      "t": 385999.99999999977,
      "d": 2000,
      "v": 95
    },
    {
      "midi": 62,
      "hit": false,
      "t": 386333.33333333296,
      "d": 333.33333333331393,
      "v": 95
    },
    {
      "midi": 62,
      "hit": false,
      "t": 386666.6666666663,
      "d": 333.33333333331393,
      "v": 95
    },
    {
      "midi": 62,
      "hit": false,
      "t": 386999.9999999996,
      "d": 333.33333333331393,
      "v": 95
    },
    {
      "midi": 64,
      "hit": false,
      "t": 387333.3333333329,
      "d": 333.33333333331393,
      "v": 95
    },
    {
      "midi": 65,
      "hit": false,
      "t": 387666.6666666662,
      "d": 333.33333333331393,
      "v": 95
    },
    {
      "midi": 67,
      "hit": false,
      "t": 387999.99999999953,
      "d": 250,
      "v": 95
    },
    {
      "midi": 48,
      "hit": false,
      "t": 387999.99999999977,
      "d": 2000,
      "v": 95
    },
    {
      "midi": 52,
      "hit": false,
      "t": 387999.99999999977,
      "d": 2000,
      "v": 95
    },
    {
      "midi": 55,
      "hit": false,
      "t": 387999.99999999977,
      "d": 2000,
      "v": 95
    },
    {
      "midi": 60,
      "hit": false,
      "t": 387999.99999999977,
      "d": 2000,
      "v": 95
    },
    {
      "midi": 64,
      "hit": false,
      "t": 387999.99999999977,
      "d": 2000,
      "v": 95
    },
    {
      "midi": 48,
      "hit": false,
      "t": 388249.99999999953,
      "d": 250,
      "v": 95
    },
    {
      "midi": 52,
      "hit": false,
      "t": 388499.99999999953,
      "d": 250,
      "v": 95
    },
    {
      "midi": 55,
      "hit": false,
      "t": 388749.99999999953,
      "d": 250,
      "v": 95
    },
    {
      "midi": 53,
      "hit": false,
      "t": 388999.99999999953,
      "d": 250,
      "v": 95
    },
    {
      "midi": 52,
      "hit": false,
      "t": 389249.99999999953,
      "d": 250,
      "v": 95
    },
    {
      "midi": 55,
      "hit": false,
      "t": 389499.99999999953,
      "d": 250,
      "v": 95
    },
    {
      "midi": 60,
      "hit": false,
      "t": 389749.99999999953,
      "d": 250,
      "v": 95
    },
    {
      "midi": 57,
      "hit": false,
      "t": 389999.99999999953,
      "d": 500,
      "v": 95
    },
    {
      "midi": 62,
      "hit": false,
      "t": 389999.99999999953,
      "d": 500,
      "v": 95
    },
    {
      "midi": 65,
      "hit": false,
      "t": 389999.99999999953,
      "d": 500,
      "v": 95
    },
    {
      "midi": 50,
      "hit": false,
      "t": 389999.99999999977,
      "d": 1000,
      "v": 95
    },
    {
      "midi": 57,
      "hit": false,
      "t": 389999.99999999977,
      "d": 1000,
      "v": 95
    },
    {
      "midi": 62,
      "hit": false,
      "t": 389999.99999999977,
      "d": 1000,
      "v": 95
    },
    {
      "midi": 65,
      "hit": false,
      "t": 389999.99999999977,
      "d": 1000,
      "v": 95
    },
    {
      "midi": 62,
      "hit": false,
      "t": 390499.99999999953,
      "d": 250,
      "v": 95
    },
    {
      "midi": 57,
      "hit": false,
      "t": 390749.99999999953,
      "d": 250,
      "v": 95
    },
    {
      "midi": 65,
      "hit": false,
      "t": 390999.99999999953,
      "d": 333.33333333331393,
      "v": 95
    },
    {
      "midi": 50,
      "hit": false,
      "t": 390999.99999999977,
      "d": 333.33333333331393,
      "v": 95
    },
    {
      "midi": 57,
      "hit": false,
      "t": 390999.99999999977,
      "d": 333.33333333331393,
      "v": 95
    },
    {
      "midi": 62,
      "hit": false,
      "t": 390999.99999999977,
      "d": 333.33333333331393,
      "v": 95
    },
    {
      "midi": 65,
      "hit": false,
      "t": 390999.99999999977,
      "d": 333.33333333331393,
      "v": 95
    },
    {
      "midi": 64,
      "hit": false,
      "t": 391333.33333333285,
      "d": 333.33333333331393,
      "v": 95
    },
    {
      "midi": 50,
      "hit": false,
      "t": 391333.3333333331,
      "d": 333.33333333331393,
      "v": 95
    },
    {
      "midi": 57,
      "hit": false,
      "t": 391333.3333333331,
      "d": 333.33333333331393,
      "v": 95
    },
    {
      "midi": 62,
      "hit": false,
      "t": 391333.3333333331,
      "d": 333.33333333331393,
      "v": 95
    },
    {
      "midi": 64,
      "hit": false,
      "t": 391333.3333333331,
      "d": 333.33333333331393,
      "v": 95
    },
    {
      "midi": 62,
      "hit": false,
      "t": 391666.66666666616,
      "d": 333.33333333331393,
      "v": 95
    },
    {
      "midi": 62,
      "hit": false,
      "t": 391666.6666666664,
      "d": 333.33333333331393,
      "v": 95
    },
    {
      "midi": 52,
      "hit": false,
      "t": 391999.9999999995,
      "d": 500,
      "v": 95
    },
    {
      "midi": 57,
      "hit": false,
      "t": 391999.9999999995,
      "d": 500,
      "v": 95
    },
    {
      "midi": 60,
      "hit": false,
      "t": 391999.9999999995,
      "d": 500,
      "v": 95
    },
    {
      "midi": 45,
      "hit": false,
      "t": 391999.9999999997,
      "d": 1000,
      "v": 95
    },
    {
      "midi": 52,
      "hit": false,
      "t": 391999.9999999997,
      "d": 1000,
      "v": 95
    },
    {
      "midi": 57,
      "hit": false,
      "t": 391999.9999999997,
      "d": 1000,
      "v": 95
    },
    {
      "midi": 60,
      "hit": false,
      "t": 391999.9999999997,
      "d": 1000,
      "v": 95
    },
    {
      "midi": 64,
      "hit": false,
      "t": 391999.9999999997,
      "d": 1000,
      "v": 95
    },
    {
      "midi": 57,
      "hit": false,
      "t": 392499.9999999995,
      "d": 250,
      "v": 95
    },
    {
      "midi": 52,
      "hit": false,
      "t": 392749.9999999995,
      "d": 250,
      "v": 95
    },
    {
      "midi": 64,
      "hit": false,
      "t": 392999.9999999995,
      "d": 250,
      "v": 95
    },
    {
      "midi": 45,
      "hit": false,
      "t": 392999.9999999997,
      "d": 1000,
      "v": 95
    },
    {
      "midi": 52,
      "hit": false,
      "t": 392999.9999999997,
      "d": 1000,
      "v": 95
    },
    {
      "midi": 57,
      "hit": false,
      "t": 392999.9999999997,
      "d": 1000,
      "v": 95
    },
    {
      "midi": 60,
      "hit": false,
      "t": 392999.9999999997,
      "d": 1000,
      "v": 95
    },
    {
      "midi": 64,
      "hit": false,
      "t": 392999.9999999997,
      "d": 1000,
      "v": 95
    },
    {
      "midi": 60,
      "hit": false,
      "t": 393249.9999999995,
      "d": 250,
      "v": 95
    },
    {
      "midi": 57,
      "hit": false,
      "t": 393499.9999999995,
      "d": 250,
      "v": 95
    },
    {
      "midi": 60,
      "hit": false,
      "t": 393749.9999999995,
      "d": 250,
      "v": 95
    },
    {
      "midi": 53,
      "hit": false,
      "t": 393999.9999999995,
      "d": 500,
      "v": 95
    },
    {
      "midi": 58,
      "hit": false,
      "t": 393999.9999999995,
      "d": 500,
      "v": 95
    },
    {
      "midi": 62,
      "hit": false,
      "t": 393999.9999999995,
      "d": 500,
      "v": 95
    },
    {
      "midi": 46,
      "hit": false,
      "t": 393999.9999999997,
      "d": 1000,
      "v": 95
    },
    {
      "midi": 50,
      "hit": false,
      "t": 393999.9999999997,
      "d": 1000,
      "v": 95
    },
    {
      "midi": 58,
      "hit": false,
      "t": 393999.9999999997,
      "d": 1000,
      "v": 95
    },
    {
      "midi": 62,
      "hit": false,
      "t": 393999.9999999997,
      "d": 1000,
      "v": 95
    },
    {
      "midi": 65,
      "hit": false,
      "t": 393999.9999999997,
      "d": 1000,
      "v": 95
    },
    {
      "midi": 58,
      "hit": false,
      "t": 394499.9999999995,
      "d": 250,
      "v": 95
    },
    {
      "midi": 53,
      "hit": false,
      "t": 394749.9999999995,
      "d": 250,
      "v": 95
    },
    {
      "midi": 62,
      "hit": false,
      "t": 394999.9999999995,
      "d": 333.33333333331393,
      "v": 95
    },
    {
      "midi": 53,
      "hit": false,
      "t": 394999.9999999997,
      "d": 333.33333333331393,
      "v": 95
    },
    {
      "midi": 58,
      "hit": false,
      "t": 394999.9999999997,
      "d": 333.33333333331393,
      "v": 95
    },
    {
      "midi": 62,
      "hit": false,
      "t": 394999.9999999997,
      "d": 333.33333333331393,
      "v": 95
    },
    {
      "midi": 60,
      "hit": false,
      "t": 395333.3333333328,
      "d": 333.33333333331393,
      "v": 95
    },
    {
      "midi": 53,
      "hit": false,
      "t": 395333.333333333,
      "d": 333.33333333331393,
      "v": 95
    },
    {
      "midi": 58,
      "hit": false,
      "t": 395333.333333333,
      "d": 333.33333333331393,
      "v": 95
    },
    {
      "midi": 60,
      "hit": false,
      "t": 395333.333333333,
      "d": 333.33333333331393,
      "v": 95
    },
    {
      "midi": 62,
      "hit": false,
      "t": 395666.6666666661,
      "d": 333.33333333331393,
      "v": 95
    },
    {
      "midi": 53,
      "hit": false,
      "t": 395666.66666666634,
      "d": 333.33333333331393,
      "v": 95
    },
    {
      "midi": 58,
      "hit": false,
      "t": 395666.66666666634,
      "d": 333.33333333331393,
      "v": 95
    },
    {
      "midi": 62,
      "hit": false,
      "t": 395666.66666666634,
      "d": 333.33333333331393,
      "v": 95
    },
    {
      "midi": 53,
      "hit": false,
      "t": 395999.9999999994,
      "d": 250,
      "v": 95
    },
    {
      "midi": 57,
      "hit": false,
      "t": 395999.9999999994,
      "d": 250,
      "v": 95
    },
    {
      "midi": 60,
      "hit": false,
      "t": 395999.9999999994,
      "d": 250,
      "v": 95
    },
    {
      "midi": 41,
      "hit": false,
      "t": 395999.99999999965,
      "d": 1000,
      "v": 95
    },
    {
      "midi": 53,
      "hit": false,
      "t": 395999.99999999965,
      "d": 1000,
      "v": 95
    },
    {
      "midi": 57,
      "hit": false,
      "t": 395999.99999999965,
      "d": 1000,
      "v": 95
    },
    {
      "midi": 60,
      "hit": false,
      "t": 395999.99999999965,
      "d": 1000,
      "v": 95
    },
    {
      "midi": 65,
      "hit": false,
      "t": 395999.99999999965,
      "d": 1000,
      "v": 95
    },
    {
      "midi": 53,
      "hit": false,
      "t": 396249.9999999994,
      "d": 250,
      "v": 95
    },
    {
      "midi": 57,
      "hit": false,
      "t": 396499.9999999994,
      "d": 250,
      "v": 95
    },
    {
      "midi": 53,
      "hit": false,
      "t": 396749.9999999994,
      "d": 250,
      "v": 95
    },
    {
      "midi": 52,
      "hit": false,
      "t": 396999.9999999994,
      "d": 250,
      "v": 95
    },
    {
      "midi": 55,
      "hit": false,
      "t": 396999.9999999994,
      "d": 250,
      "v": 95
    },
    {
      "midi": 60,
      "hit": false,
      "t": 396999.9999999994,
      "d": 250,
      "v": 95
    },
    {
      "midi": 48,
      "hit": false,
      "t": 396999.99999999965,
      "d": 1000,
      "v": 95
    },
    {
      "midi": 52,
      "hit": false,
      "t": 396999.99999999965,
      "d": 1000,
      "v": 95
    },
    {
      "midi": 55,
      "hit": false,
      "t": 396999.99999999965,
      "d": 1000,
      "v": 95
    },
    {
      "midi": 60,
      "hit": false,
      "t": 396999.99999999965,
      "d": 1000,
      "v": 95
    },
    {
      "midi": 64,
      "hit": false,
      "t": 396999.99999999965,
      "d": 1000,
      "v": 95
    },
    {
      "midi": 52,
      "hit": false,
      "t": 397249.9999999994,
      "d": 250,
      "v": 95
    },
    {
      "midi": 55,
      "hit": false,
      "t": 397499.9999999994,
      "d": 250,
      "v": 95
    },
    {
      "midi": 52,
      "hit": false,
      "t": 397749.9999999994,
      "d": 250,
      "v": 95
    },
    {
      "midi": 57,
      "hit": false,
      "t": 397999.9999999994,
      "d": 500,
      "v": 95
    },
    {
      "midi": 62,
      "hit": false,
      "t": 397999.9999999994,
      "d": 500,
      "v": 95
    },
    {
      "midi": 65,
      "hit": false,
      "t": 397999.9999999994,
      "d": 500,
      "v": 95
    },
    {
      "midi": 50,
      "hit": false,
      "t": 397999.99999999965,
      "d": 1000,
      "v": 95
    },
    {
      "midi": 57,
      "hit": false,
      "t": 397999.99999999965,
      "d": 1000,
      "v": 95
    },
    {
      "midi": 62,
      "hit": false,
      "t": 397999.99999999965,
      "d": 1000,
      "v": 95
    },
    {
      "midi": 65,
      "hit": false,
      "t": 397999.99999999965,
      "d": 1000,
      "v": 95
    },
    {
      "midi": 57,
      "hit": false,
      "t": 398499.9999999994,
      "d": 250,
      "v": 95
    },
    {
      "midi": 62,
      "hit": false,
      "t": 398749.9999999994,
      "d": 125,
      "v": 95
    },
    {
      "midi": 64,
      "hit": false,
      "t": 398874.9999999994,
      "d": 125,
      "v": 95
    },
    {
      "midi": 65,
      "hit": false,
      "t": 398999.9999999994,
      "d": 250,
      "v": 95
    },
    {
      "midi": 50,
      "hit": false,
      "t": 398999.99999999965,
      "d": 1000,
      "v": 95
    },
    {
      "midi": 57,
      "hit": false,
      "t": 398999.99999999965,
      "d": 1000,
      "v": 95
    },
    {
      "midi": 62,
      "hit": false,
      "t": 398999.99999999965,
      "d": 1000,
      "v": 95
    },
    {
      "midi": 64,
      "hit": false,
      "t": 398999.99999999965,
      "d": 1000,
      "v": 95
    },
    {
      "midi": 64,
      "hit": false,
      "t": 399249.9999999994,
      "d": 250,
      "v": 95
    },
    {
      "midi": 62,
      "hit": false,
      "t": 399499.9999999994,
      "d": 250,
      "v": 95
    },
    {
      "midi": 64,
      "hit": false,
      "t": 399749.9999999994,
      "d": 250,
      "v": 95
    },
    {
      "midi": 60,
      "hit": false,
      "t": 399999.9999999994,
      "d": 125,
      "v": 95
    },
    {
      "midi": 45,
      "hit": false,
      "t": 399999.99999999965,
      "d": 1000,
      "v": 95
    },
    {
      "midi": 52,
      "hit": false,
      "t": 399999.99999999965,
      "d": 1000,
      "v": 95
    },
    {
      "midi": 57,
      "hit": false,
      "t": 399999.99999999965,
      "d": 1000,
      "v": 95
    },
    {
      "midi": 60,
      "hit": false,
      "t": 399999.99999999965,
      "d": 1000,
      "v": 95
    },
    {
      "midi": 64,
      "hit": false,
      "t": 399999.99999999965,
      "d": 1000,
      "v": 95
    },
    {
      "midi": 62,
      "hit": false,
      "t": 400124.9999999994,
      "d": 125,
      "v": 95
    },
    {
      "midi": 64,
      "hit": false,
      "t": 400249.9999999994,
      "d": 500,
      "v": 95
    },
    {
      "midi": 60,
      "hit": false,
      "t": 400749.9999999994,
      "d": 250,
      "v": 95
    },
    {
      "midi": 57,
      "hit": false,
      "t": 400999.9999999994,
      "d": 250,
      "v": 95
    },
    {
      "midi": 45,
      "hit": false,
      "t": 400999.99999999965,
      "d": 500,
      "v": 95
    },
    {
      "midi": 52,
      "hit": false,
      "t": 400999.99999999965,
      "d": 500,
      "v": 95
    },
    {
      "midi": 57,
      "hit": false,
      "t": 400999.99999999965,
      "d": 500,
      "v": 95
    },
    {
      "midi": 60,
      "hit": false,
      "t": 400999.99999999965,
      "d": 500,
      "v": 95
    },
    {
      "midi": 64,
      "hit": false,
      "t": 400999.99999999965,
      "d": 500,
      "v": 95
    },
    {
      "midi": 52,
      "hit": false,
      "t": 401249.9999999994,
      "d": 250,
      "v": 95
    },
    {
      "midi": 57,
      "hit": false,
      "t": 401499.9999999994,
      "d": 250,
      "v": 95
    },
    {
      "midi": 45,
      "hit": false,
      "t": 401499.99999999965,
      "d": 500,
      "v": 95
    },
    {
      "midi": 52,
      "hit": false,
      "t": 401499.99999999965,
      "d": 500,
      "v": 95
    },
    {
      "midi": 57,
      "hit": false,
      "t": 401499.99999999965,
      "d": 500,
      "v": 95
    },
    {
      "midi": 60,
      "hit": false,
      "t": 401499.99999999965,
      "d": 500,
      "v": 95
    },
    {
      "midi": 64,
      "hit": false,
      "t": 401499.99999999965,
      "d": 500,
      "v": 95
    },
    {
      "midi": 60,
      "hit": false,
      "t": 401749.9999999994,
      "d": 250,
      "v": 95
    },
    {
      "midi": 53,
      "hit": false,
      "t": 401999.9999999994,
      "d": 333.33333333331393,
      "v": 95
    },
    {
      "midi": 58,
      "hit": false,
      "t": 401999.9999999994,
      "d": 333.33333333331393,
      "v": 95
    },
    {
      "midi": 62,
      "hit": false,
      "t": 401999.9999999994,
      "d": 333.33333333331393,
      "v": 95
    },
    {
      "midi": 46,
      "hit": false,
      "t": 401999.99999999965,
      "d": 2000,
      "v": 95
    },
    {
      "midi": 50,
      "hit": false,
      "t": 401999.99999999965,
      "d": 2000,
      "v": 95
    },
    {
      "midi": 58,
      "hit": false,
      "t": 401999.99999999965,
      "d": 2000,
      "v": 95
    },
    {
      "midi": 62,
      "hit": false,
      "t": 401999.99999999965,
      "d": 2000,
      "v": 95
    },
    {
      "midi": 65,
      "hit": false,
      "t": 401999.99999999965,
      "d": 2000,
      "v": 95
    },
    {
      "midi": 62,
      "hit": false,
      "t": 402333.33333333273,
      "d": 333.33333333331393,
      "v": 95
    },
    {
      "midi": 62,
      "hit": false,
      "t": 402666.66666666605,
      "d": 333.33333333331393,
      "v": 95
    },
    {
      "midi": 62,
      "hit": false,
      "t": 402999.99999999936,
      "d": 333.33333333331393,
      "v": 95
    },
    {
      "midi": 64,
      "hit": false,
      "t": 403333.3333333327,
      "d": 333.33333333331393,
      "v": 95
    },
    {
      "midi": 65,
      "hit": false,
      "t": 403666.666666666,
      "d": 583.3333333333139,
      "v": 95
    },
    {
      "midi": 48,
      "hit": false,
      "t": 403999.99999999965,
      "d": 2000,
      "v": 95
    },
    {
      "midi": 52,
      "hit": false,
      "t": 403999.99999999965,
      "d": 2000,
      "v": 95
    },
    {
      "midi": 55,
      "hit": false,
      "t": 403999.99999999965,
      "d": 2000,
      "v": 95
    },
    {
      "midi": 60,
      "hit": false,
      "t": 403999.99999999965,
      "d": 2000,
      "v": 95
    },
    {
      "midi": 64,
      "hit": false,
      "t": 403999.99999999965,
      "d": 2000,
      "v": 95
    },
    {
      "midi": 53,
      "hit": false,
      "t": 404249.9999999993,
      "d": 250,
      "v": 95
    },
    {
      "midi": 57,
      "hit": false,
      "t": 404499.9999999993,
      "d": 250,
      "v": 95
    },
    {
      "midi": 60,
      "hit": false,
      "t": 404749.9999999993,
      "d": 250,
      "v": 95
    },
    {
      "midi": 53,
      "hit": false,
      "t": 404999.9999999993,
      "d": 250,
      "v": 95
    },
    {
      "midi": 52,
      "hit": false,
      "t": 405249.9999999993,
      "d": 250,
      "v": 95
    },
    {
      "midi": 55,
      "hit": false,
      "t": 405499.9999999993,
      "d": 250,
      "v": 95
    },
    {
      "midi": 60,
      "hit": false,
      "t": 405749.9999999993,
      "d": 250,
      "v": 95
    },
    {
      "midi": 57,
      "hit": false,
      "t": 405999.9999999993,
      "d": 500,
      "v": 95
    },
    {
      "midi": 62,
      "hit": false,
      "t": 405999.9999999993,
      "d": 500,
      "v": 95
    },
    {
      "midi": 65,
      "hit": false,
      "t": 405999.9999999993,
      "d": 500,
      "v": 95
    },
    {
      "midi": 50,
      "hit": false,
      "t": 405999.99999999965,
      "d": 1000,
      "v": 95
    },
    {
      "midi": 57,
      "hit": false,
      "t": 405999.99999999965,
      "d": 1000,
      "v": 95
    },
    {
      "midi": 62,
      "hit": false,
      "t": 405999.99999999965,
      "d": 1000,
      "v": 95
    },
    {
      "midi": 65,
      "hit": false,
      "t": 405999.99999999965,
      "d": 1000,
      "v": 95
    },
    {
      "midi": 62,
      "hit": false,
      "t": 406499.9999999993,
      "d": 250,
      "v": 95
    },
    {
      "midi": 57,
      "hit": false,
      "t": 406749.9999999993,
      "d": 250,
      "v": 95
    },
    {
      "midi": 65,
      "hit": false,
      "t": 406999.9999999993,
      "d": 333.33333333331393,
      "v": 95
    },
    {
      "midi": 50,
      "hit": false,
      "t": 406999.99999999965,
      "d": 333.33333333331393,
      "v": 95
    },
    {
      "midi": 57,
      "hit": false,
      "t": 406999.99999999965,
      "d": 333.33333333331393,
      "v": 95
    },
    {
      "midi": 62,
      "hit": false,
      "t": 406999.99999999965,
      "d": 333.33333333331393,
      "v": 95
    },
    {
      "midi": 65,
      "hit": false,
      "t": 406999.99999999965,
      "d": 333.33333333331393,
      "v": 95
    },
    {
      "midi": 64,
      "hit": false,
      "t": 407333.3333333326,
      "d": 333.33333333331393,
      "v": 95
    },
    {
      "midi": 50,
      "hit": false,
      "t": 407333.33333333296,
      "d": 333.33333333331393,
      "v": 95
    },
    {
      "midi": 57,
      "hit": false,
      "t": 407333.33333333296,
      "d": 333.33333333331393,
      "v": 95
    },
    {
      "midi": 62,
      "hit": false,
      "t": 407333.33333333296,
      "d": 333.33333333331393,
      "v": 95
    },
    {
      "midi": 64,
      "hit": false,
      "t": 407333.33333333296,
      "d": 333.33333333331393,
      "v": 95
    },
    {
      "midi": 62,
      "hit": false,
      "t": 407666.66666666593,
      "d": 333.33333333331393,
      "v": 95
    },
    {
      "midi": 62,
      "hit": false,
      "t": 407666.6666666663,
      "d": 333.33333333331393,
      "v": 95
    },
    {
      "midi": 52,
      "hit": false,
      "t": 407999.99999999924,
      "d": 500,
      "v": 95
    },
    {
      "midi": 57,
      "hit": false,
      "t": 407999.99999999924,
      "d": 500,
      "v": 95
    },
    {
      "midi": 60,
      "hit": false,
      "t": 407999.99999999924,
      "d": 500,
      "v": 95
    },
    {
      "midi": 45,
      "hit": false,
      "t": 407999.9999999996,
      "d": 1000,
      "v": 95
    },
    {
      "midi": 52,
      "hit": false,
      "t": 407999.9999999996,
      "d": 1000,
      "v": 95
    },
    {
      "midi": 57,
      "hit": false,
      "t": 407999.9999999996,
      "d": 1000,
      "v": 95
    },
    {
      "midi": 60,
      "hit": false,
      "t": 407999.9999999996,
      "d": 1000,
      "v": 95
    },
    {
      "midi": 64,
      "hit": false,
      "t": 407999.9999999996,
      "d": 1000,
      "v": 95
    },
    {
      "midi": 57,
      "hit": false,
      "t": 408499.99999999924,
      "d": 250,
      "v": 95
    },
    {
      "midi": 52,
      "hit": false,
      "t": 408749.99999999924,
      "d": 250,
      "v": 95
    },
    {
      "midi": 64,
      "hit": false,
      "t": 408999.99999999924,
      "d": 250,
      "v": 95
    },
    {
      "midi": 45,
      "hit": false,
      "t": 408999.9999999996,
      "d": 1000,
      "v": 95
    },
    {
      "midi": 52,
      "hit": false,
      "t": 408999.9999999996,
      "d": 1000,
      "v": 95
    },
    {
      "midi": 57,
      "hit": false,
      "t": 408999.9999999996,
      "d": 1000,
      "v": 95
    },
    {
      "midi": 60,
      "hit": false,
      "t": 408999.9999999996,
      "d": 1000,
      "v": 95
    },
    {
      "midi": 64,
      "hit": false,
      "t": 408999.9999999996,
      "d": 1000,
      "v": 95
    },
    {
      "midi": 60,
      "hit": false,
      "t": 409249.99999999924,
      "d": 250,
      "v": 95
    },
    {
      "midi": 57,
      "hit": false,
      "t": 409499.99999999924,
      "d": 250,
      "v": 95
    },
    {
      "midi": 60,
      "hit": false,
      "t": 409749.99999999924,
      "d": 250,
      "v": 95
    },
    {
      "midi": 53,
      "hit": false,
      "t": 409999.99999999924,
      "d": 500,
      "v": 95
    },
    {
      "midi": 58,
      "hit": false,
      "t": 409999.99999999924,
      "d": 500,
      "v": 95
    },
    {
      "midi": 62,
      "hit": false,
      "t": 409999.99999999924,
      "d": 500,
      "v": 95
    },
    {
      "midi": 46,
      "hit": false,
      "t": 409999.9999999996,
      "d": 1000,
      "v": 95
    },
    {
      "midi": 50,
      "hit": false,
      "t": 409999.9999999996,
      "d": 1000,
      "v": 95
    },
    {
      "midi": 58,
      "hit": false,
      "t": 409999.9999999996,
      "d": 1000,
      "v": 95
    },
    {
      "midi": 62,
      "hit": false,
      "t": 409999.9999999996,
      "d": 1000,
      "v": 95
    },
    {
      "midi": 65,
      "hit": false,
      "t": 409999.9999999996,
      "d": 1000,
      "v": 95
    },
    {
      "midi": 58,
      "hit": false,
      "t": 410499.99999999924,
      "d": 250,
      "v": 95
    },
    {
      "midi": 53,
      "hit": false,
      "t": 410749.99999999924,
      "d": 250,
      "v": 95
    },
    {
      "midi": 62,
      "hit": false,
      "t": 410999.99999999924,
      "d": 333.33333333331393,
      "v": 95
    },
    {
      "midi": 53,
      "hit": false,
      "t": 410999.9999999996,
      "d": 333.33333333331393,
      "v": 95
    },
    {
      "midi": 58,
      "hit": false,
      "t": 410999.9999999996,
      "d": 333.33333333331393,
      "v": 95
    },
    {
      "midi": 62,
      "hit": false,
      "t": 410999.9999999996,
      "d": 333.33333333331393,
      "v": 95
    },
    {
      "midi": 60,
      "hit": false,
      "t": 411333.33333333256,
      "d": 333.33333333331393,
      "v": 95
    },
    {
      "midi": 53,
      "hit": false,
      "t": 411333.3333333329,
      "d": 333.33333333331393,
      "v": 95
    },
    {
      "midi": 58,
      "hit": false,
      "t": 411333.3333333329,
      "d": 333.33333333331393,
      "v": 95
    },
    {
      "midi": 60,
      "hit": false,
      "t": 411333.3333333329,
      "d": 333.33333333331393,
      "v": 95
    },
    {
      "midi": 62,
      "hit": false,
      "t": 411666.6666666659,
      "d": 333.33333333331393,
      "v": 95
    },
    {
      "midi": 53,
      "hit": false,
      "t": 411666.6666666662,
      "d": 333.33333333331393,
      "v": 95
    },
    {
      "midi": 58,
      "hit": false,
      "t": 411666.6666666662,
      "d": 333.33333333331393,
      "v": 95
    },
    {
      "midi": 62,
      "hit": false,
      "t": 411666.6666666662,
      "d": 333.33333333331393,
      "v": 95
    },
    {
      "midi": 53,
      "hit": false,
      "t": 411999.9999999992,
      "d": 250,
      "v": 95
    },
    {
      "midi": 57,
      "hit": false,
      "t": 411999.9999999992,
      "d": 250,
      "v": 95
    },
    {
      "midi": 60,
      "hit": false,
      "t": 411999.9999999992,
      "d": 250,
      "v": 95
    },
    {
      "midi": 41,
      "hit": false,
      "t": 411999.99999999953,
      "d": 1000,
      "v": 95
    },
    {
      "midi": 53,
      "hit": false,
      "t": 411999.99999999953,
      "d": 1000,
      "v": 95
    },
    {
      "midi": 57,
      "hit": false,
      "t": 411999.99999999953,
      "d": 1000,
      "v": 95
    },
    {
      "midi": 60,
      "hit": false,
      "t": 411999.99999999953,
      "d": 1000,
      "v": 95
    },
    {
      "midi": 65,
      "hit": false,
      "t": 411999.99999999953,
      "d": 1000,
      "v": 95
    },
    {
      "midi": 53,
      "hit": false,
      "t": 412249.9999999992,
      "d": 250,
      "v": 95
    },
    {
      "midi": 57,
      "hit": false,
      "t": 412499.9999999992,
      "d": 250,
      "v": 95
    },
    {
      "midi": 53,
      "hit": false,
      "t": 412749.9999999992,
      "d": 250,
      "v": 95
    },
    {
      "midi": 52,
      "hit": false,
      "t": 412999.9999999992,
      "d": 250,
      "v": 95
    },
    {
      "midi": 55,
      "hit": false,
      "t": 412999.9999999992,
      "d": 250,
      "v": 95
    },
    {
      "midi": 60,
      "hit": false,
      "t": 412999.9999999992,
      "d": 250,
      "v": 95
    },
    {
      "midi": 48,
      "hit": false,
      "t": 412999.99999999953,
      "d": 1000,
      "v": 95
    },
    {
      "midi": 52,
      "hit": false,
      "t": 412999.99999999953,
      "d": 1000,
      "v": 95
    },
    {
      "midi": 55,
      "hit": false,
      "t": 412999.99999999953,
      "d": 1000,
      "v": 95
    },
    {
      "midi": 60,
      "hit": false,
      "t": 412999.99999999953,
      "d": 1000,
      "v": 95
    },
    {
      "midi": 64,
      "hit": false,
      "t": 412999.99999999953,
      "d": 1000,
      "v": 95
    },
    {
      "midi": 52,
      "hit": false,
      "t": 413249.9999999992,
      "d": 250,
      "v": 95
    },
    {
      "midi": 55,
      "hit": false,
      "t": 413499.9999999992,
      "d": 250,
      "v": 95
    },
    {
      "midi": 52,
      "hit": false,
      "t": 413749.9999999992,
      "d": 250,
      "v": 95
    },
    {
      "midi": 57,
      "hit": false,
      "t": 413999.9999999992,
      "d": 500,
      "v": 95
    },
    {
      "midi": 62,
      "hit": false,
      "t": 413999.9999999992,
      "d": 500,
      "v": 95
    },
    {
      "midi": 65,
      "hit": false,
      "t": 413999.9999999992,
      "d": 500,
      "v": 95
    },
    {
      "midi": 50,
      "hit": false,
      "t": 413999.99999999953,
      "d": 1000,
      "v": 95
    },
    {
      "midi": 57,
      "hit": false,
      "t": 413999.99999999953,
      "d": 1000,
      "v": 95
    },
    {
      "midi": 62,
      "hit": false,
      "t": 413999.99999999953,
      "d": 1000,
      "v": 95
    },
    {
      "midi": 65,
      "hit": false,
      "t": 413999.99999999953,
      "d": 1000,
      "v": 95
    },
    {
      "midi": 57,
      "hit": false,
      "t": 414499.9999999992,
      "d": 250,
      "v": 95
    },
    {
      "midi": 62,
      "hit": false,
      "t": 414749.9999999992,
      "d": 125,
      "v": 95
    },
    {
      "midi": 64,
      "hit": false,
      "t": 414874.9999999992,
      "d": 125,
      "v": 95
    },
    {
      "midi": 65,
      "hit": false,
      "t": 414999.9999999992,
      "d": 250,
      "v": 95
    },
    {
      "midi": 50,
      "hit": false,
      "t": 414999.99999999953,
      "d": 1000,
      "v": 95
    },
    {
      "midi": 57,
      "hit": false,
      "t": 414999.99999999953,
      "d": 1000,
      "v": 95
    },
    {
      "midi": 62,
      "hit": false,
      "t": 414999.99999999953,
      "d": 1000,
      "v": 95
    },
    {
      "midi": 64,
      "hit": false,
      "t": 414999.99999999953,
      "d": 1000,
      "v": 95
    },
    {
      "midi": 64,
      "hit": false,
      "t": 415249.9999999992,
      "d": 250,
      "v": 95
    },
    {
      "midi": 62,
      "hit": false,
      "t": 415499.9999999992,
      "d": 250,
      "v": 95
    },
    {
      "midi": 64,
      "hit": false,
      "t": 415749.9999999992,
      "d": 250,
      "v": 95
    },
    {
      "midi": 60,
      "hit": false,
      "t": 415999.9999999992,
      "d": 125,
      "v": 95
    },
    {
      "midi": 45,
      "hit": false,
      "t": 415999.99999999953,
      "d": 1000,
      "v": 95
    },
    {
      "midi": 52,
      "hit": false,
      "t": 415999.99999999953,
      "d": 1000,
      "v": 95
    },
    {
      "midi": 57,
      "hit": false,
      "t": 415999.99999999953,
      "d": 1000,
      "v": 95
    },
    {
      "midi": 60,
      "hit": false,
      "t": 415999.99999999953,
      "d": 1000,
      "v": 95
    },
    {
      "midi": 64,
      "hit": false,
      "t": 415999.99999999953,
      "d": 1000,
      "v": 95
    },
    {
      "midi": 62,
      "hit": false,
      "t": 416124.9999999992,
      "d": 125,
      "v": 95
    },
    {
      "midi": 64,
      "hit": false,
      "t": 416249.9999999992,
      "d": 500,
      "v": 95
    },
    {
      "midi": 60,
      "hit": false,
      "t": 416749.9999999992,
      "d": 250,
      "v": 95
    },
    {
      "midi": 57,
      "hit": false,
      "t": 416999.9999999992,
      "d": 250,
      "v": 95
    },
    {
      "midi": 45,
      "hit": false,
      "t": 416999.99999999953,
      "d": 500,
      "v": 95
    },
    {
      "midi": 52,
      "hit": false,
      "t": 416999.99999999953,
      "d": 500,
      "v": 95
    },
    {
      "midi": 57,
      "hit": false,
      "t": 416999.99999999953,
      "d": 500,
      "v": 95
    },
    {
      "midi": 60,
      "hit": false,
      "t": 416999.99999999953,
      "d": 500,
      "v": 95
    },
    {
      "midi": 64,
      "hit": false,
      "t": 416999.99999999953,
      "d": 500,
      "v": 95
    },
    {
      "midi": 52,
      "hit": false,
      "t": 417249.9999999992,
      "d": 250,
      "v": 95
    },
    {
      "midi": 57,
      "hit": false,
      "t": 417499.9999999992,
      "d": 250,
      "v": 95
    },
    {
      "midi": 45,
      "hit": false,
      "t": 417499.99999999953,
      "d": 500,
      "v": 95
    },
    {
      "midi": 52,
      "hit": false,
      "t": 417499.99999999953,
      "d": 500,
      "v": 95
    },
    {
      "midi": 57,
      "hit": false,
      "t": 417499.99999999953,
      "d": 500,
      "v": 95
    },
    {
      "midi": 60,
      "hit": false,
      "t": 417499.99999999953,
      "d": 500,
      "v": 95
    },
    {
      "midi": 64,
      "hit": false,
      "t": 417499.99999999953,
      "d": 500,
      "v": 95
    },
    {
      "midi": 60,
      "hit": false,
      "t": 417749.9999999992,
      "d": 250,
      "v": 95
    },
    {
      "midi": 53,
      "hit": false,
      "t": 417999.9999999992,
      "d": 333.33333333331393,
      "v": 95
    },
    {
      "midi": 58,
      "hit": false,
      "t": 417999.9999999992,
      "d": 333.33333333331393,
      "v": 95
    },
    {
      "midi": 62,
      "hit": false,
      "t": 417999.9999999992,
      "d": 333.33333333331393,
      "v": 95
    },
    {
      "midi": 46,
      "hit": false,
      "t": 417999.99999999953,
      "d": 2000,
      "v": 95
    },
    {
      "midi": 50,
      "hit": false,
      "t": 417999.99999999953,
      "d": 2000,
      "v": 95
    },
    {
      "midi": 58,
      "hit": false,
      "t": 417999.99999999953,
      "d": 2000,
      "v": 95
    },
    {
      "midi": 62,
      "hit": false,
      "t": 417999.99999999953,
      "d": 2000,
      "v": 95
    },
    {
      "midi": 65,
      "hit": false,
      "t": 417999.99999999953,
      "d": 2000,
      "v": 95
    },
    {
      "midi": 62,
      "hit": false,
      "t": 418333.3333333325,
      "d": 333.33333333331393,
      "v": 95
    },
    {
      "midi": 62,
      "hit": false,
      "t": 418666.6666666658,
      "d": 333.33333333331393,
      "v": 95
    },
    {
      "midi": 62,
      "hit": false,
      "t": 418999.9999999991,
      "d": 333.33333333331393,
      "v": 95
    },
    {
      "midi": 64,
      "hit": false,
      "t": 419333.33333333244,
      "d": 333.33333333331393,
      "v": 95
    },
    {
      "midi": 65,
      "hit": false,
      "t": 419666.66666666575,
      "d": 583.3333333333139,
      "v": 95
    },
    {
      "midi": 48,
      "hit": false,
      "t": 419999.99999999953,
      "d": 2000,
      "v": 95
    },
    {
      "midi": 52,
      "hit": false,
      "t": 419999.99999999953,
      "d": 2000,
      "v": 95
    },
    {
      "midi": 55,
      "hit": false,
      "t": 419999.99999999953,
      "d": 2000,
      "v": 95
    },
    {
      "midi": 60,
      "hit": false,
      "t": 419999.99999999953,
      "d": 2000,
      "v": 95
    },
    {
      "midi": 64,
      "hit": false,
      "t": 419999.99999999953,
      "d": 2000,
      "v": 95
    },
    {
      "midi": 53,
      "hit": false,
      "t": 420249.99999999907,
      "d": 250,
      "v": 95
    },
    {
      "midi": 57,
      "hit": false,
      "t": 420499.99999999907,
      "d": 250,
      "v": 95
    },
    {
      "midi": 60,
      "hit": false,
      "t": 420749.99999999907,
      "d": 250,
      "v": 95
    },
    {
      "midi": 53,
      "hit": false,
      "t": 420999.99999999907,
      "d": 250,
      "v": 95
    },
    {
      "midi": 52,
      "hit": false,
      "t": 421249.99999999907,
      "d": 250,
      "v": 95
    },
    {
      "midi": 55,
      "hit": false,
      "t": 421499.99999999907,
      "d": 250,
      "v": 95
    },
    {
      "midi": 60,
      "hit": false,
      "t": 421749.99999999907,
      "d": 250,
      "v": 95
    }
  ]
}