{
  "jsonPath": "Soundtracks/Video Game Music/Final Fantasy 9/final-fantasy-9-aplacetocallhome.json",
  "path": "Soundtracks\\Video Game Music\\Final Fantasy 9\\Final_Fantasy_9_APlacetoCallHome.mid",
  "name": "Final_Fantasy_9_APlacetoCallHome",
  "difficulty": "Advanced",
  "bpm": 69.99998833333528,
  "notes": [
    {
      "midi": 74,
      "hit": false,
      "t": 0,
      "d": 642.85725,
      "v": 100
    },
    {
      "midi": 76,
      "hit": false,
      "t": 642.85725,
      "d": 214.28575,
      "v": 100
    },
    {
      "midi": 62,
      "hit": false,
      "t": 857.143,
      "d": 428.5715,
      "v": 100
    },
    {
      "midi": 69,
      "hit": false,
      "t": 857.143,
      "d": 428.5715,
      "v": 100
    },
    {
      "midi": 77,
      "hit": false,
      "t": 857.143,
      "d": 428.5715,
      "v": 100
    },
    {
      "midi": 64,
      "hit": false,
      "t": 1285.7145,
      "d": 428.5715,
      "v": 100
    },
    {
      "midi": 72,
      "hit": false,
      "t": 1285.7145,
      "d": 428.5715,
      "v": 100
    },
    {
      "midi": 79,
      "hit": false,
      "t": 1285.7145,
      "d": 428.5715,
      "v": 100
    },
    {
      "midi": 69,
      "hit": false,
      "t": 1714.286,
      "d": 857.143,
      "v": 100
    },
    {
      "midi": 62,
      "hit": false,
      "t": 1714.286,
      "d": 857.143,
      "v": 100
    },
    {
      "midi": 81,
      "hit": false,
      "t": 1714.286,
      "d": 1285.7145,
      "v": 100
    },
    {
      "midi": 72,
      "hit": false,
      "t": 1928.57175,
      "d": 214.28575,
      "v": 100
    },
    {
      "midi": 74,
      "hit": false,
      "t": 2142.8575,
      "d": 214.28575,
      "v": 100
    },
    {
      "midi": 76,
      "hit": false,
      "t": 2357.14325,
      "d": 214.28575,
      "v": 100
    },
    {
      "midi": 72,
      "hit": false,
      "t": 2571.429,
      "d": 428.5715,
      "v": 100
    },
    {
      "midi": 69,
      "hit": false,
      "t": 2571.429,
      "d": 428.5715,
      "v": 100
    },
    {
      "midi": 77,
      "hit": false,
      "t": 2571.429,
      "d": 857.143,
      "v": 100
    },
    {
      "midi": 83,
      "hit": false,
      "t": 3000.0005,
      "d": 214.28575,
      "v": 100
    },
    {
      "midi": 71,
      "hit": false,
      "t": 3000.0005,
      "d": 428.5715,
      "v": 100
    },
    {
      "midi": 67,
      "hit": false,
      "t": 3000.0005,
      "d": 428.5715,
      "v": 100
    },
    {
      "midi": 84,
      "hit": false,
      "t": 3214.28625,
      "d": 214.28575,
      "v": 100
    },
    {
      "midi": 64,
      "hit": false,
      "t": 3428.572,
      "d": 428.5715,
      "v": 100
    },
    {
      "midi": 71,
      "hit": false,
      "t": 3428.572,
      "d": 428.5715,
      "v": 100
    },
    {
      "midi": 83,
      "hit": false,
      "t": 3428.572,
      "d": 428.5715,
      "v": 100
    },
    {
      "midi": 64,
      "hit": false,
      "t": 3857.1435,
      "d": 428.5715,
      "v": 100
    },
    {
      "midi": 72,
      "hit": false,
      "t": 3857.1435,
      "d": 428.5715,
      "v": 100
    },
    {
      "midi": 81,
      "hit": false,
      "t": 3857.1435,
      "d": 428.5715,
      "v": 100
    },
    {
      "midi": 71,
      "hit": false,
      "t": 4285.715,
      "d": 428.5715,
      "v": 100
    },
    {
      "midi": 64,
      "hit": false,
      "t": 4285.715,
      "d": 428.5715,
      "v": 100
    },
    {
      "midi": 79,
      "hit": false,
      "t": 4285.715,
      "d": 642.85725,
      "v": 100
    },
    {
      "midi": 74,
      "hit": false,
      "t": 4714.2865,
      "d": 857.143,
      "v": 100
    },
    {
      "midi": 62,
      "hit": false,
      "t": 4714.2865,
      "d": 2142.8575,
      "v": 100
    },
    {
      "midi": 81,
      "hit": false,
      "t": 4928.57225,
      "d": 214.28575,
      "v": 100
    },
    {
      "midi": 77,
      "hit": false,
      "t": 5142.858,
      "d": 428.5715,
      "v": 100
    },
    {
      "midi": 72,
      "hit": false,
      "t": 5571.4295,
      "d": 428.5715,
      "v": 100
    },
    {
      "midi": 76,
      "hit": false,
      "t": 5571.4295,
      "d": 428.5715,
      "v": 100
    },
    {
      "midi": 74,
      "hit": false,
      "t": 6000.001,
      "d": 428.5715,
      "v": 100
    },
    {
      "midi": 69,
      "hit": false,
      "t": 6000.001,
      "d": 857.143,
      "v": 100
    },
    {
      "midi": 65,
      "hit": false,
      "t": 6000.001,
      "d": 857.143,
      "v": 100
    },
    {
      "midi": 72,
      "hit": false,
      "t": 6428.5725,
      "d": 428.5715,
      "v": 100
    },
    {
      "midi": 74,
      "hit": false,
      "t": 6857.144,
      "d": 642.85725,
      "v": 100
    },
    {
      "midi": 69,
      "hit": false,
      "t": 6857.144,
      "d": 857.143,
      "v": 100
    },
    {
      "midi": 62,
      "hit": false,
      "t": 6857.144,
      "d": 857.143,
      "v": 100
    },
    {
      "midi": 76,
      "hit": false,
      "t": 7500.00125,
      "d": 214.28575,
      "v": 100
    },
    {
      "midi": 72,
      "hit": false,
      "t": 7714.287,
      "d": 428.5715,
      "v": 100
    },
    {
      "midi": 62,
      "hit": false,
      "t": 7714.287,
      "d": 428.5715,
      "v": 100
    },
    {
      "midi": 77,
      "hit": false,
      "t": 7714.287,
      "d": 428.5715,
      "v": 100
    },
    {
      "midi": 72,
      "hit": false,
      "t": 8142.8585,
      "d": 428.5715,
      "v": 100
    },
    {
      "midi": 64,
      "hit": false,
      "t": 8142.8585,
      "d": 428.5715,
      "v": 100
    },
    {
      "midi": 79,
      "hit": false,
      "t": 8142.8585,
      "d": 428.5715,
      "v": 100
    },
    {
      "midi": 69,
      "hit": false,
      "t": 8571.43,
      "d": 857.143,
      "v": 100
    },
    {
      "midi": 62,
      "hit": false,
      "t": 8571.43,
      "d": 857.143,
      "v": 100
    },
    {
      "midi": 81,
      "hit": false,
      "t": 8571.43,
      "d": 1285.7145,
      "v": 100
    },
    {
      "midi": 72,
      "hit": false,
      "t": 9428.573,
      "d": 428.5715,
      "v": 100
    },
    {
      "midi": 62,
      "hit": false,
      "t": 9428.573,
      "d": 428.5715,
      "v": 100
    },
    {
      "midi": 83,
      "hit": false,
      "t": 9857.1445,
      "d": 214.2857499999991,
      "v": 100
    },
    {
      "midi": 71,
      "hit": false,
      "t": 9857.1445,
      "d": 428.5714999999982,
      "v": 100
    },
    {
      "midi": 64,
      "hit": false,
      "t": 9857.1445,
      "d": 428.5714999999982,
      "v": 100
    },
    {
      "midi": 84,
      "hit": false,
      "t": 10071.43025,
      "d": 214.2857499999991,
      "v": 100
    },
    {
      "midi": 71,
      "hit": false,
      "t": 10285.715999999999,
      "d": 428.5715,
      "v": 100
    },
    {
      "midi": 83,
      "hit": false,
      "t": 10285.715999999999,
      "d": 428.5715,
      "v": 100
    },
    {
      "midi": 64,
      "hit": false,
      "t": 10285.715999999999,
      "d": 857.143,
      "v": 100
    },
    {
      "midi": 72,
      "hit": false,
      "t": 10714.287499999999,
      "d": 428.5715,
      "v": 100
    },
    {
      "midi": 81,
      "hit": false,
      "t": 10714.287499999999,
      "d": 428.5715,
      "v": 100
    },
    {
      "midi": 74,
      "hit": false,
      "t": 11142.858999999999,
      "d": 428.5715,
      "v": 100
    },
    {
      "midi": 62,
      "hit": false,
      "t": 11142.858999999999,
      "d": 428.5715,
      "v": 100
    },
    {
      "midi": 81,
      "hit": false,
      "t": 11142.858999999999,
      "d": 428.5715,
      "v": 100
    },
    {
      "midi": 76,
      "hit": false,
      "t": 11571.430499999999,
      "d": 428.5715,
      "v": 100
    },
    {
      "midi": 64,
      "hit": false,
      "t": 11571.430499999999,
      "d": 428.5715,
      "v": 100
    },
    {
      "midi": 80,
      "hit": false,
      "t": 11571.430499999999,
      "d": 428.5715,
      "v": 100
    },
    {
      "midi": 72,
      "hit": false,
      "t": 12000.001999999999,
      "d": 428.5715,
      "v": 100
    },
    {
      "midi": 64,
      "hit": false,
      "t": 12000.001999999999,
      "d": 428.5715,
      "v": 100
    },
    {
      "midi": 81,
      "hit": false,
      "t": 12000.001999999999,
      "d": 1714.2859999999982,
      "v": 100
    },
    {
      "midi": 65,
      "hit": false,
      "t": 12428.573499999999,
      "d": 214.2857499999991,
      "v": 100
    },
    {
      "midi": 74,
      "hit": false,
      "t": 12428.573499999999,
      "d": 428.5714999999982,
      "v": 100
    },
    {
      "midi": 67,
      "hit": false,
      "t": 12642.859249999998,
      "d": 214.2857499999991,
      "v": 100
    },
    {
      "midi": 69,
      "hit": false,
      "t": 12857.144999999997,
      "d": 857.143,
      "v": 100
    },
    {
      "midi": 76,
      "hit": false,
      "t": 12857.144999999997,
      "d": 857.143,
      "v": 100
    },
    {
      "midi": 73,
      "hit": false,
      "t": 12857.144999999997,
      "d": 857.143,
      "v": 100
    },
    {
      "midi": 74,
      "hit": false,
      "t": 13714.287999999997,
      "d": 642.8572500000009,
      "v": 100
    },
    {
      "midi": 76,
      "hit": false,
      "t": 14357.145249999998,
      "d": 214.2857499999991,
      "v": 100
    },
    {
      "midi": 62,
      "hit": false,
      "t": 14571.430999999997,
      "d": 428.5715,
      "v": 100
    },
    {
      "midi": 69,
      "hit": false,
      "t": 14571.430999999997,
      "d": 428.5715,
      "v": 100
    },
    {
      "midi": 77,
      "hit": false,
      "t": 14571.430999999997,
      "d": 428.5715,
      "v": 100
    },
    {
      "midi": 64,
      "hit": false,
      "t": 15000.002499999997,
      "d": 428.5715,
      "v": 100
    },
    {
      "midi": 72,
      "hit": false,
      "t": 15000.002499999997,
      "d": 428.5715,
      "v": 100
    },
    {
      "midi": 79,
      "hit": false,
      "t": 15000.002499999997,
      "d": 428.5715,
      "v": 100
    },
    {
      "midi": 69,
      "hit": false,
      "t": 15428.573999999997,
      "d": 857.1429999999964,
      "v": 100
    },
    {
      "midi": 62,
      "hit": false,
      "t": 15428.573999999997,
      "d": 857.1429999999964,
      "v": 100
    },
    {
      "midi": 81,
      "hit": false,
      "t": 15428.573999999997,
      "d": 1285.7144999999946,
      "v": 100
    },
    {
      "midi": 72,
      "hit": false,
      "t": 15642.859749999996,
      "d": 214.2857499999991,
      "v": 100
    },
    {
      "midi": 74,
      "hit": false,
      "t": 15857.145499999995,
      "d": 214.2857499999991,
      "v": 100
    },
    {
      "midi": 76,
      "hit": false,
      "t": 16071.431249999994,
      "d": 214.2857499999991,
      "v": 100
    },
    {
      "midi": 72,
      "hit": false,
      "t": 16285.716999999993,
      "d": 428.5714999999982,
      "v": 100
    },
    {
      "midi": 69,
      "hit": false,
      "t": 16285.716999999993,
      "d": 428.5714999999982,
      "v": 100
    },
    {
      "midi": 77,
      "hit": false,
      "t": 16285.716999999993,
      "d": 857.1429999999964,
      "v": 100
    },
    {
      "midi": 83,
      "hit": false,
      "t": 16714.28849999999,
      "d": 214.2857499999991,
      "v": 100
    },
    {
      "midi": 67,
      "hit": false,
      "t": 16714.28849999999,
      "d": 428.5714999999982,
      "v": 100
    },
    {
      "midi": 71,
      "hit": false,
      "t": 16714.28849999999,
      "d": 428.5714999999982,
      "v": 100
    },
    {
      "midi": 84,
      "hit": false,
      "t": 16928.57424999999,
      "d": 214.2857499999991,
      "v": 100
    },
    {
      "midi": 64,
      "hit": false,
      "t": 17142.85999999999,
      "d": 428.5714999999982,
      "v": 100
    },
    {
      "midi": 71,
      "hit": false,
      "t": 17142.85999999999,
      "d": 428.5714999999982,
      "v": 100
    },
    {
      "midi": 83,
      "hit": false,
      "t": 17142.85999999999,
      "d": 428.5714999999982,
      "v": 100
    },
    {
      "midi": 72,
      "hit": false,
      "t": 17571.431499999988,
      "d": 428.5714999999982,
      "v": 100
    },
    {
      "midi": 64,
      "hit": false,
      "t": 17571.431499999988,
      "d": 428.5714999999982,
      "v": 100
    },
    {
      "midi": 81,
      "hit": false,
      "t": 17571.431499999988,
      "d": 428.5714999999982,
      "v": 100
    },
    {
      "midi": 64,
      "hit": false,
      "t": 18000.002999999986,
      "d": 428.5714999999982,
      "v": 100
    },
    {
      "midi": 71,
      "hit": false,
      "t": 18000.002999999986,
      "d": 428.5714999999982,
      "v": 100
    },
    {
      "midi": 79,
      "hit": false,
      "t": 18000.002999999986,
      "d": 642.8572499999973,
      "v": 100
    },
    {
      "midi": 74,
      "hit": false,
      "t": 18428.574499999984,
      "d": 857.1429999999964,
      "v": 100
    },
    {
      "midi": 62,
      "hit": false,
      "t": 18428.574499999984,
      "d": 2142.857499999991,
      "v": 100
    },
    {
      "midi": 81,
      "hit": false,
      "t": 18642.860249999983,
      "d": 214.2857499999991,
      "v": 100
    },
    {
      "midi": 77,
      "hit": false,
      "t": 18857.145999999982,
      "d": 428.5714999999982,
      "v": 100
    },
    {
      "midi": 72,
      "hit": false,
      "t": 19285.71749999998,
      "d": 428.5714999999982,
      "v": 100
    },
    {
      "midi": 76,
      "hit": false,
      "t": 19285.71749999998,
      "d": 428.5714999999982,
      "v": 100
    },
    {
      "midi": 74,
      "hit": false,
      "t": 19714.28899999998,
      "d": 428.5714999999982,
      "v": 100
    },
    {
      "midi": 69,
      "hit": false,
      "t": 19714.28899999998,
      "d": 857.1429999999964,
      "v": 100
    },
    {
      "midi": 65,
      "hit": false,
      "t": 19714.28899999998,
      "d": 857.1429999999964,
      "v": 100
    },
    {
      "midi": 72,
      "hit": false,
      "t": 20142.860499999977,
      "d": 428.5714999999982,
      "v": 100
    },
    {
      "midi": 69,
      "hit": false,
      "t": 20571.431999999975,
      "d": 428.5714999999982,
      "v": 100
    },
    {
      "midi": 77,
      "hit": false,
      "t": 20571.431999999975,
      "d": 642.8572499999973,
      "v": 100
    },
    {
      "midi": 62,
      "hit": false,
      "t": 20571.431999999975,
      "d": 857.1429999999964,
      "v": 100
    },
    {
      "midi": 72,
      "hit": false,
      "t": 21000.003499999973,
      "d": 428.5714999999982,
      "v": 100
    },
    {
      "midi": 77,
      "hit": false,
      "t": 21214.289249999973,
      "d": 214.2857499999991,
      "v": 100
    },
    {
      "midi": 79,
      "hit": false,
      "t": 21428.57499999997,
      "d": 214.2857499999991,
      "v": 100
    },
    {
      "midi": 74,
      "hit": false,
      "t": 21428.57499999997,
      "d": 428.5714999999982,
      "v": 100
    },
    {
      "midi": 64,
      "hit": false,
      "t": 21428.57499999997,
      "d": 857.1429999999964,
      "v": 100
    },
    {
      "midi": 77,
      "hit": false,
      "t": 21642.86074999997,
      "d": 214.2857499999991,
      "v": 100
    },
    {
      "midi": 76,
      "hit": false,
      "t": 21857.14649999997,
      "d": 214.2857499999991,
      "v": 100
    },
    {
      "midi": 71,
      "hit": false,
      "t": 21857.14649999997,
      "d": 428.5714999999982,
      "v": 100
    },
    {
      "midi": 74,
      "hit": false,
      "t": 22071.43224999997,
      "d": 214.2857499999991,
      "v": 100
    },
    {
      "midi": 72,
      "hit": false,
      "t": 22285.717999999968,
      "d": 428.5714999999982,
      "v": 100
    },
    {
      "midi": 69,
      "hit": false,
      "t": 22714.289499999966,
      "d": 428.5714999999982,
      "v": 100
    },
    {
      "midi": 62,
      "hit": false,
      "t": 22714.289499999966,
      "d": 428.5714999999982,
      "v": 100
    },
    {
      "midi": 81,
      "hit": false,
      "t": 22714.289499999966,
      "d": 428.5714999999982,
      "v": 100
    },
    {
      "midi": 64,
      "hit": false,
      "t": 23142.860999999964,
      "d": 428.5714999999982,
      "v": 100
    },
    {
      "midi": 72,
      "hit": false,
      "t": 23142.860999999964,
      "d": 428.5714999999982,
      "v": 100
    },
    {
      "midi": 76,
      "hit": false,
      "t": 23142.860999999964,
      "d": 642.8572499999973,
      "v": 100
    },
    {
      "midi": 71,
      "hit": false,
      "t": 23571.432499999963,
      "d": 428.5714999999982,
      "v": 100
    },
    {
      "midi": 67,
      "hit": false,
      "t": 23571.432499999963,
      "d": 428.5714999999982,
      "v": 100
    },
    {
      "midi": 79,
      "hit": false,
      "t": 23785.71824999996,
      "d": 214.2857499999991,
      "v": 100
    },
    {
      "midi": 69,
      "hit": false,
      "t": 24000.00399999996,
      "d": 428.5714999999982,
      "v": 100
    },
    {
      "midi": 77,
      "hit": false,
      "t": 24000.00399999996,
      "d": 428.5714999999982,
      "v": 100
    },
    {
      "midi": 62,
      "hit": false,
      "t": 24000.00399999996,
      "d": 1285.7144999999946,
      "v": 100
    },
    {
      "midi": 72,
      "hit": false,
      "t": 24428.57549999996,
      "d": 428.5714999999982,
      "v": 100
    },
    {
      "midi": 76,
      "hit": false,
      "t": 24428.57549999996,
      "d": 428.5714999999982,
      "v": 100
    },
    {
      "midi": 67,
      "hit": false,
      "t": 24857.146999999957,
      "d": 428.5714999999982,
      "v": 100
    },
    {
      "midi": 76,
      "hit": false,
      "t": 24857.146999999957,
      "d": 428.5714999999982,
      "v": 100
    },
    {
      "midi": 73,
      "hit": false,
      "t": 25285.718499999955,
      "d": 428.5714999999982,
      "v": 100
    },
    {
      "midi": 64,
      "hit": false,
      "t": 25285.718499999955,
      "d": 428.5714999999982,
      "v": 100
    },
    {
      "midi": 76,
      "hit": false,
      "t": 25285.718499999955,
      "d": 428.5714999999982,
      "v": 100
    },
    {
      "midi": 71,
      "hit": false,
      "t": 25714.289999999954,
      "d": 428.5714999999982,
      "v": 100
    },
    {
      "midi": 62,
      "hit": false,
      "t": 25714.289999999954,
      "d": 1714.2859999999964,
      "v": 100
    },
    {
      "midi": 74,
      "hit": false,
      "t": 25714.289999999954,
      "d": 1714.2859999999964,
      "v": 100
    },
    {
      "midi": 69,
      "hit": false,
      "t": 26142.86149999995,
      "d": 214.2857499999991,
      "v": 100
    },
    {
      "midi": 67,
      "hit": false,
      "t": 26357.14724999995,
      "d": 214.2857499999991,
      "v": 100
    },
    {
      "midi": 66,
      "hit": false,
      "t": 26571.43299999995,
      "d": 857.143,
      "v": 100
    },
    {
      "midi": 69,
      "hit": false,
      "t": 27428.57599999995,
      "d": 857.143,
      "v": 100
    },
    {
      "midi": 62,
      "hit": false,
      "t": 27428.57599999995,
      "d": 857.143,
      "v": 100
    },
    {
      "midi": 86,
      "hit": false,
      "t": 27428.57599999995,
      "d": 857.143,
      "v": 100
    },
    {
      "midi": 72,
      "hit": false,
      "t": 28285.71899999995,
      "d": 428.5714999999982,
      "v": 100
    },
    {
      "midi": 64,
      "hit": false,
      "t": 28285.71899999995,
      "d": 428.5714999999982,
      "v": 100
    },
    {
      "midi": 81,
      "hit": false,
      "t": 28285.71899999995,
      "d": 428.5714999999982,
      "v": 100
    },
    {
      "midi": 74,
      "hit": false,
      "t": 28714.29049999995,
      "d": 428.5714999999982,
      "v": 100
    },
    {
      "midi": 65,
      "hit": false,
      "t": 28714.29049999995,
      "d": 428.5714999999982,
      "v": 100
    },
    {
      "midi": 86,
      "hit": false,
      "t": 28714.29049999995,
      "d": 428.5714999999982,
      "v": 100
    },
    {
      "midi": 72,
      "hit": false,
      "t": 29142.861999999946,
      "d": 428.5714999999982,
      "v": 100
    },
    {
      "midi": 64,
      "hit": false,
      "t": 29142.861999999946,
      "d": 428.5714999999982,
      "v": 100
    },
    {
      "midi": 84,
      "hit": false,
      "t": 29142.861999999946,
      "d": 642.8572499999973,
      "v": 100
    },
    {
      "midi": 74,
      "hit": false,
      "t": 29571.433499999945,
      "d": 428.5714999999982,
      "v": 100
    },
    {
      "midi": 65,
      "hit": false,
      "t": 29571.433499999945,
      "d": 428.5714999999982,
      "v": 100
    },
    {
      "midi": 83,
      "hit": false,
      "t": 29785.719249999944,
      "d": 214.2857499999991,
      "v": 100
    },
    {
      "midi": 69,
      "hit": false,
      "t": 30000.004999999943,
      "d": 428.5714999999982,
      "v": 100
    },
    {
      "midi": 81,
      "hit": false,
      "t": 30000.004999999943,
      "d": 428.5714999999982,
      "v": 100
    },
    {
      "midi": 62,
      "hit": false,
      "t": 30000.004999999943,
      "d": 857.1429999999964,
      "v": 100
    },
    {
      "midi": 71,
      "hit": false,
      "t": 30428.57649999994,
      "d": 428.5714999999982,
      "v": 100
    },
    {
      "midi": 79,
      "hit": false,
      "t": 30428.57649999994,
      "d": 428.5714999999982,
      "v": 100
    },
    {
      "midi": 81,
      "hit": false,
      "t": 30857.14799999994,
      "d": 428.5714999999982,
      "v": 100
    },
    {
      "midi": 74,
      "hit": false,
      "t": 30857.14799999994,
      "d": 857.1429999999964,
      "v": 100
    },
    {
      "midi": 62,
      "hit": false,
      "t": 30857.14799999994,
      "d": 857.1429999999964,
      "v": 100
    },
    {
      "midi": 77,
      "hit": false,
      "t": 31285.719499999937,
      "d": 214.2857499999991,
      "v": 100
    },
    {
      "midi": 79,
      "hit": false,
      "t": 31500.005249999936,
      "d": 214.2857499999991,
      "v": 100
    },
    {
      "midi": 69,
      "hit": false,
      "t": 31714.290999999936,
      "d": 428.5714999999982,
      "v": 100
    },
    {
      "midi": 65,
      "hit": false,
      "t": 31714.290999999936,
      "d": 428.5714999999982,
      "v": 100
    },
    {
      "midi": 81,
      "hit": false,
      "t": 31714.290999999936,
      "d": 428.5714999999982,
      "v": 100
    },
    {
      "midi": 68,
      "hit": false,
      "t": 32142.862499999934,
      "d": 428.5714999999982,
      "v": 100
    },
    {
      "midi": 71,
      "hit": false,
      "t": 32142.862499999934,
      "d": 428.5714999999982,
      "v": 100
    },
    {
      "midi": 83,
      "hit": false,
      "t": 32142.862499999934,
      "d": 428.5714999999982,
      "v": 100
    },
    {
      "midi": 72,
      "hit": false,
      "t": 32571.433999999932,
      "d": 857.143,
      "v": 100
    },
    {
      "midi": 64,
      "hit": false,
      "t": 32571.433999999932,
      "d": 857.143,
      "v": 100
    },
    {
      "midi": 84,
      "hit": false,
      "t": 32571.433999999932,
      "d": 857.143,
      "v": 100
    },
    {
      "midi": 76,
      "hit": false,
      "t": 33428.57699999993,
      "d": 857.1429999999964,
      "v": 100
    },
    {
      "midi": 69,
      "hit": false,
      "t": 33428.57699999993,
      "d": 857.1429999999964,
      "v": 100
    },
    {
      "midi": 84,
      "hit": false,
      "t": 33428.57699999993,
      "d": 857.1429999999964,
      "v": 100
    },
    {
      "midi": 69,
      "hit": false,
      "t": 34285.71999999993,
      "d": 857.1429999999964,
      "v": 100
    },
    {
      "midi": 62,
      "hit": false,
      "t": 34285.71999999993,
      "d": 857.1429999999964,
      "v": 100
    },
    {
      "midi": 86,
      "hit": false,
      "t": 34285.71999999993,
      "d": 857.1429999999964,
      "v": 100
    },
    {
      "midi": 64,
      "hit": false,
      "t": 35142.862999999925,
      "d": 428.5714999999982,
      "v": 100
    },
    {
      "midi": 72,
      "hit": false,
      "t": 35142.862999999925,
      "d": 428.5714999999982,
      "v": 100
    },
    {
      "midi": 81,
      "hit": false,
      "t": 35142.862999999925,
      "d": 428.5714999999982,
      "v": 100
    },
    {
      "midi": 65,
      "hit": false,
      "t": 35571.43449999992,
      "d": 428.5714999999982,
      "v": 100
    },
    {
      "midi": 74,
      "hit": false,
      "t": 35571.43449999992,
      "d": 428.5714999999982,
      "v": 100
    },
    {
      "midi": 86,
      "hit": false,
      "t": 35571.43449999992,
      "d": 428.5714999999982,
      "v": 100
    },
    {
      "midi": 72,
      "hit": false,
      "t": 36000.00599999992,
      "d": 428.5714999999982,
      "v": 100
    },
    {
      "midi": 64,
      "hit": false,
      "t": 36000.00599999992,
      "d": 428.5714999999982,
      "v": 100
    },
    {
      "midi": 84,
      "hit": false,
      "t": 36000.00599999992,
      "d": 642.8572500000009,
      "v": 100
    },
    {
      "midi": 74,
      "hit": false,
      "t": 36428.57749999992,
      "d": 428.57150000000547,
      "v": 100
    },
    {
      "midi": 65,
      "hit": false,
      "t": 36428.57749999992,
      "d": 428.57150000000547,
      "v": 100
    },
    {
      "midi": 83,
      "hit": false,
      "t": 36642.86324999992,
      "d": 214.28575000000274,
      "v": 100
    },
    {
      "midi": 69,
      "hit": false,
      "t": 36857.148999999925,
      "d": 428.5714999999982,
      "v": 100
    },
    {
      "midi": 81,
      "hit": false,
      "t": 36857.148999999925,
      "d": 428.5714999999982,
      "v": 100
    },
    {
      "midi": 62,
      "hit": false,
      "t": 36857.148999999925,
      "d": 857.1429999999964,
      "v": 100
    },
    {
      "midi": 71,
      "hit": false,
      "t": 37285.72049999992,
      "d": 428.5714999999982,
      "v": 100
    },
    {
      "midi": 79,
      "hit": false,
      "t": 37285.72049999992,
      "d": 428.5714999999982,
      "v": 100
    },
    {
      "midi": 65,
      "hit": false,
      "t": 37714.29199999992,
      "d": 428.5714999999982,
      "v": 100
    },
    {
      "midi": 77,
      "hit": false,
      "t": 37714.29199999992,
      "d": 428.5714999999982,
      "v": 100
    },
    {
      "midi": 69,
      "hit": false,
      "t": 37714.29199999992,
      "d": 857.1429999999964,
      "v": 100
    },
    {
      "midi": 62,
      "hit": false,
      "t": 38142.86349999992,
      "d": 428.5714999999982,
      "v": 100
    },
    {
      "midi": 81,
      "hit": false,
      "t": 38142.86349999992,
      "d": 428.5714999999982,
      "v": 100
    },
    {
      "midi": 64,
      "hit": false,
      "t": 38571.43499999992,
      "d": 428.5714999999982,
      "v": 100
    },
    {
      "midi": 71,
      "hit": false,
      "t": 38571.43499999992,
      "d": 428.5714999999982,
      "v": 100
    },
    {
      "midi": 76,
      "hit": false,
      "t": 38571.43499999992,
      "d": 428.5714999999982,
      "v": 100
    },
    {
      "midi": 74,
      "hit": false,
      "t": 39000.006499999916,
      "d": 214.28575000000274,
      "v": 100
    },
    {
      "midi": 64,
      "hit": false,
      "t": 39000.006499999916,
      "d": 428.57150000000547,
      "v": 100
    },
    {
      "midi": 69,
      "hit": false,
      "t": 39000.006499999916,
      "d": 428.57150000000547,
      "v": 100
    },
    {
      "midi": 73,
      "hit": false,
      "t": 39214.29224999992,
      "d": 214.28575000000274,
      "v": 100
    },
    {
      "midi": 69,
      "hit": false,
      "t": 39428.57799999992,
      "d": 857.1429999999964,
      "v": 100
    },
    {
      "midi": 62,
      "hit": false,
      "t": 39428.57799999992,
      "d": 857.1429999999964,
      "v": 100
    },
    {
      "midi": 74,
      "hit": false,
      "t": 39428.57799999992,
      "d": 857.1429999999964,
      "v": 100
    },
    {
      "midi": 62,
      "hit": false,
      "t": 40285.72099999992,
      "d": 857.1429999999964,
      "v": 100
    },
    {
      "midi": 69,
      "hit": false,
      "t": 40285.72099999992,
      "d": 857.1429999999964,
      "v": 100
    },
    {
      "midi": 74,
      "hit": false,
      "t": 40285.72099999992,
      "d": 857.1429999999964,
      "v": 100
    },
    {
      "midi": 69,
      "hit": false,
      "t": 41142.863999999914,
      "d": 857.1429999999964,
      "v": 100
    },
    {
      "midi": 62,
      "hit": false,
      "t": 41142.863999999914,
      "d": 857.1429999999964,
      "v": 100
    },
    {
      "midi": 86,
      "hit": false,
      "t": 41142.863999999914,
      "d": 857.1429999999964,
      "v": 100
    },
    {
      "midi": 72,
      "hit": false,
      "t": 42000.00699999991,
      "d": 428.5714999999982,
      "v": 100
    },
    {
      "midi": 64,
      "hit": false,
      "t": 42000.00699999991,
      "d": 428.5714999999982,
      "v": 100
    },
    {
      "midi": 81,
      "hit": false,
      "t": 42000.00699999991,
      "d": 428.5714999999982,
      "v": 100
    },
    {
      "midi": 74,
      "hit": false,
      "t": 42428.57849999991,
      "d": 428.5714999999982,
      "v": 100
    },
    {
      "midi": 65,
      "hit": false,
      "t": 42428.57849999991,
      "d": 428.5714999999982,
      "v": 100
    },
    {
      "midi": 86,
      "hit": false,
      "t": 42428.57849999991,
      "d": 428.5714999999982,
      "v": 100
    },
    {
      "midi": 64,
      "hit": false,
      "t": 42857.14999999991,
      "d": 428.5714999999982,
      "v": 100
    },
    {
      "midi": 72,
      "hit": false,
      "t": 42857.14999999991,
      "d": 428.5714999999982,
      "v": 100
    },
    {
      "midi": 84,
      "hit": false,
      "t": 42857.14999999991,
      "d": 642.8572500000009,
      "v": 100
    },
    {
      "midi": 65,
      "hit": false,
      "t": 43285.721499999905,
      "d": 428.57150000000547,
      "v": 100
    },
    {
      "midi": 74,
      "hit": false,
      "t": 43285.721499999905,
      "d": 428.57150000000547,
      "v": 100
    },
    {
      "midi": 83,
      "hit": false,
      "t": 43500.00724999991,
      "d": 214.28575000000274,
      "v": 100
    },
    {
      "midi": 69,
      "hit": false,
      "t": 43714.29299999991,
      "d": 428.5714999999982,
      "v": 100
    },
    {
      "midi": 81,
      "hit": false,
      "t": 43714.29299999991,
      "d": 428.5714999999982,
      "v": 100
    },
    {
      "midi": 62,
      "hit": false,
      "t": 43714.29299999991,
      "d": 857.1429999999964,
      "v": 100
    },
    {
      "midi": 71,
      "hit": false,
      "t": 44142.86449999991,
      "d": 428.5714999999982,
      "v": 100
    },
    {
      "midi": 79,
      "hit": false,
      "t": 44142.86449999991,
      "d": 428.5714999999982,
      "v": 100
    },
    {
      "midi": 81,
      "hit": false,
      "t": 44571.43599999991,
      "d": 428.5714999999982,
      "v": 100
    },
    {
      "midi": 74,
      "hit": false,
      "t": 44571.43599999991,
      "d": 857.1430000000037,
      "v": 100
    },
    {
      "midi": 62,
      "hit": false,
      "t": 44571.43599999991,
      "d": 857.1430000000037,
      "v": 100
    },
    {
      "midi": 77,
      "hit": false,
      "t": 45000.007499999905,
      "d": 214.28575000000274,
      "v": 100
    },
    {
      "midi": 79,
      "hit": false,
      "t": 45214.29324999991,
      "d": 214.28575000000274,
      "v": 100
    },
    {
      "midi": 65,
      "hit": false,
      "t": 45428.57899999991,
      "d": 428.5714999999982,
      "v": 100
    },
    {
      "midi": 69,
      "hit": false,
      "t": 45428.57899999991,
      "d": 428.5714999999982,
      "v": 100
    },
    {
      "midi": 81,
      "hit": false,
      "t": 45428.57899999991,
      "d": 428.5714999999982,
      "v": 100
    },
    {
      "midi": 71,
      "hit": false,
      "t": 45857.15049999991,
      "d": 428.5714999999982,
      "v": 100
    },
    {
      "midi": 68,
      "hit": false,
      "t": 45857.15049999991,
      "d": 428.5714999999982,
      "v": 100
    },
    {
      "midi": 83,
      "hit": false,
      "t": 45857.15049999991,
      "d": 428.5714999999982,
      "v": 100
    },
    {
      "midi": 72,
      "hit": false,
      "t": 46285.72199999991,
      "d": 857.1429999999964,
      "v": 100
    },
    {
      "midi": 64,
      "hit": false,
      "t": 46285.72199999991,
      "d": 857.1429999999964,
      "v": 100
    },
    {
      "midi": 84,
      "hit": false,
      "t": 46285.72199999991,
      "d": 857.1429999999964,
      "v": 100
    },
    {
      "midi": 69,
      "hit": false,
      "t": 47142.8649999999,
      "d": 857.1429999999964,
      "v": 100
    },
    {
      "midi": 76,
      "hit": false,
      "t": 47142.8649999999,
      "d": 857.1429999999964,
      "v": 100
    },
    {
      "midi": 84,
      "hit": false,
      "t": 47142.8649999999,
      "d": 857.1429999999964,
      "v": 100
    },
    {
      "midi": 69,
      "hit": false,
      "t": 48000.0079999999,
      "d": 857.1429999999964,
      "v": 100
    },
    {
      "midi": 62,
      "hit": false,
      "t": 48000.0079999999,
      "d": 857.1429999999964,
      "v": 100
    },
    {
      "midi": 86,
      "hit": false,
      "t": 48000.0079999999,
      "d": 857.1429999999964,
      "v": 100
    },
    {
      "midi": 72,
      "hit": false,
      "t": 48857.150999999896,
      "d": 428.5714999999982,
      "v": 100
    },
    {
      "midi": 64,
      "hit": false,
      "t": 48857.150999999896,
      "d": 428.5714999999982,
      "v": 100
    },
    {
      "midi": 81,
      "hit": false,
      "t": 48857.150999999896,
      "d": 428.5714999999982,
      "v": 100
    },
    {
      "midi": 74,
      "hit": false,
      "t": 49285.722499999894,
      "d": 428.5714999999982,
      "v": 100
    },
    {
      "midi": 65,
      "hit": false,
      "t": 49285.722499999894,
      "d": 428.5714999999982,
      "v": 100
    },
    {
      "midi": 86,
      "hit": false,
      "t": 49285.722499999894,
      "d": 428.5714999999982,
      "v": 100
    },
    {
      "midi": 64,
      "hit": false,
      "t": 49714.29399999989,
      "d": 428.5714999999982,
      "v": 100
    },
    {
      "midi": 72,
      "hit": false,
      "t": 49714.29399999989,
      "d": 428.5714999999982,
      "v": 100
    },
    {
      "midi": 84,
      "hit": false,
      "t": 49714.29399999989,
      "d": 642.8572500000009,
      "v": 100
    },
    {
      "midi": 65,
      "hit": false,
      "t": 50142.86549999989,
      "d": 428.57150000000547,
      "v": 100
    },
    {
      "midi": 74,
      "hit": false,
      "t": 50142.86549999989,
      "d": 428.57150000000547,
      "v": 100
    },
    {
      "midi": 83,
      "hit": false,
      "t": 50357.15124999989,
      "d": 214.28575000000274,
      "v": 100
    },
    {
      "midi": 69,
      "hit": false,
      "t": 50571.436999999896,
      "d": 428.5714999999982,
      "v": 100
    },
    {
      "midi": 81,
      "hit": false,
      "t": 50571.436999999896,
      "d": 428.5714999999982,
      "v": 100
    },
    {
      "midi": 62,
      "hit": false,
      "t": 50571.436999999896,
      "d": 857.1429999999964,
      "v": 100
    },
    {
      "midi": 71,
      "hit": false,
      "t": 51000.008499999894,
      "d": 428.5714999999982,
      "v": 100
    },
    {
      "midi": 79,
      "hit": false,
      "t": 51000.008499999894,
      "d": 428.5714999999982,
      "v": 100
    },
    {
      "midi": 65,
      "hit": false,
      "t": 51428.57999999989,
      "d": 428.5714999999982,
      "v": 100
    },
    {
      "midi": 77,
      "hit": false,
      "t": 51428.57999999989,
      "d": 428.5714999999982,
      "v": 100
    },
    {
      "midi": 69,
      "hit": false,
      "t": 51428.57999999989,
      "d": 857.1429999999964,
      "v": 100
    },
    {
      "midi": 62,
      "hit": false,
      "t": 51857.15149999989,
      "d": 428.5714999999982,
      "v": 100
    },
    {
      "midi": 81,
      "hit": false,
      "t": 51857.15149999989,
      "d": 428.5714999999982,
      "v": 100
    },
    {
      "midi": 71,
      "hit": false,
      "t": 52285.72299999989,
      "d": 428.5714999999982,
      "v": 100
    },
    {
      "midi": 64,
      "hit": false,
      "t": 52285.72299999989,
      "d": 428.5714999999982,
      "v": 100
    },
    {
      "midi": 76,
      "hit": false,
      "t": 52285.72299999989,
      "d": 428.5714999999982,
      "v": 100
    },
    {
      "midi": 74,
      "hit": false,
      "t": 52714.29449999989,
      "d": 214.28575000000274,
      "v": 100
    },
    {
      "midi": 69,
      "hit": false,
      "t": 52714.29449999989,
      "d": 428.57150000000547,
      "v": 100
    },
    {
      "midi": 64,
      "hit": false,
      "t": 52714.29449999989,
      "d": 428.57150000000547,
      "v": 100
    },
    {
      "midi": 73,
      "hit": false,
      "t": 52928.58024999989,
      "d": 214.28575000000274,
      "v": 100
    },
    {
      "midi": 69,
      "hit": false,
      "t": 53142.86599999989,
      "d": 1714.286,
      "v": 100
    },
    {
      "midi": 74,
      "hit": false,
      "t": 53142.86599999989,
      "d": 1714.286,
      "v": 100
    },
    {
      "midi": 62,
      "hit": false,
      "t": 53142.86599999989,
      "d": 1714.286,
      "v": 100
    },
    {
      "midi": 66,
      "hit": false,
      "t": 53142.86599999989,
      "d": 1714.286,
      "v": 100
    },
    {
      "midi": 74,
      "hit": false,
      "t": 54857.15199999989,
      "d": 642.8572500000009,
      "v": 100
    },
    {
      "midi": 76,
      "hit": false,
      "t": 55500.009249999894,
      "d": 214.28575000000274,
      "v": 100
    },
    {
      "midi": 62,
      "hit": false,
      "t": 55714.2949999999,
      "d": 428.5714999999982,
      "v": 100
    },
    {
      "midi": 69,
      "hit": false,
      "t": 55714.2949999999,
      "d": 428.5714999999982,
      "v": 100
    },
    {
      "midi": 77,
      "hit": false,
      "t": 55714.2949999999,
      "d": 428.5714999999982,
      "v": 100
    },
    {
      "midi": 64,
      "hit": false,
      "t": 56142.866499999895,
      "d": 428.5714999999982,
      "v": 100
    },
    {
      "midi": 72,
      "hit": false,
      "t": 56142.866499999895,
      "d": 428.5714999999982,
      "v": 100
    },
    {
      "midi": 79,
      "hit": false,
      "t": 56142.866499999895,
      "d": 428.5714999999982,
      "v": 100
    },
    {
      "midi": 69,
      "hit": false,
      "t": 56571.43799999989,
      "d": 857.1430000000109,
      "v": 100
    },
    {
      "midi": 62,
      "hit": false,
      "t": 56571.43799999989,
      "d": 857.1430000000109,
      "v": 100
    },
    {
      "midi": 81,
      "hit": false,
      "t": 56571.43799999989,
      "d": 1285.7145000000091,
      "v": 100
    },
    {
      "midi": 72,
      "hit": false,
      "t": 56785.723749999896,
      "d": 214.28575000000274,
      "v": 100
    },
    {
      "midi": 74,
      "hit": false,
      "t": 57000.0094999999,
      "d": 214.28575000000274,
      "v": 100
    },
    {
      "midi": 76,
      "hit": false,
      "t": 57214.2952499999,
      "d": 214.28575000000274,
      "v": 100
    },
    {
      "midi": 72,
      "hit": false,
      "t": 57428.580999999904,
      "d": 428.5714999999982,
      "v": 100
    },
    {
      "midi": 69,
      "hit": false,
      "t": 57428.580999999904,
      "d": 428.5714999999982,
      "v": 100
    },
    {
      "midi": 77,
      "hit": false,
      "t": 57428.580999999904,
      "d": 857.1430000000037,
      "v": 100
    },
    {
      "midi": 83,
      "hit": false,
      "t": 57857.1524999999,
      "d": 214.28575000000274,
      "v": 100
    },
    {
      "midi": 71,
      "hit": false,
      "t": 57857.1524999999,
      "d": 428.57150000000547,
      "v": 100
    },
    {
      "midi": 67,
      "hit": false,
      "t": 57857.1524999999,
      "d": 428.57150000000547,
      "v": 100
    },
    {
      "midi": 84,
      "hit": false,
      "t": 58071.438249999905,
      "d": 214.28575000000274,
      "v": 100
    },
    {
      "midi": 64,
      "hit": false,
      "t": 58285.72399999991,
      "d": 428.5714999999982,
      "v": 100
    },
    {
      "midi": 71,
      "hit": false,
      "t": 58285.72399999991,
      "d": 428.5714999999982,
      "v": 100
    },
    {
      "midi": 83,
      "hit": false,
      "t": 58285.72399999991,
      "d": 428.5714999999982,
      "v": 100
    },
    {
      "midi": 64,
      "hit": false,
      "t": 58714.295499999906,
      "d": 428.5714999999982,
      "v": 100
    },
    {
      "midi": 72,
      "hit": false,
      "t": 58714.295499999906,
      "d": 428.5714999999982,
      "v": 100
    },
    {
      "midi": 81,
      "hit": false,
      "t": 58714.295499999906,
      "d": 428.5714999999982,
      "v": 100
    },
    {
      "midi": 71,
      "hit": false,
      "t": 59142.866999999904,
      "d": 428.5714999999982,
      "v": 100
    },
    {
      "midi": 64,
      "hit": false,
      "t": 59142.866999999904,
      "d": 428.5714999999982,
      "v": 100
    },
    {
      "midi": 79,
      "hit": false,
      "t": 59142.866999999904,
      "d": 642.8572500000009,
      "v": 100
    },
    {
      "midi": 74,
      "hit": false,
      "t": 59571.4384999999,
      "d": 857.1430000000037,
      "v": 100
    },
    {
      "midi": 62,
      "hit": false,
      "t": 59571.4384999999,
      "d": 2142.8574999999983,
      "v": 100
    },
    {
      "midi": 81,
      "hit": false,
      "t": 59785.724249999905,
      "d": 214.28575000000274,
      "v": 100
    },
    {
      "midi": 77,
      "hit": false,
      "t": 60000.00999999991,
      "d": 428.5714999999982,
      "v": 100
    },
    {
      "midi": 72,
      "hit": false,
      "t": 60428.581499999906,
      "d": 428.5714999999982,
      "v": 100
    },
    {
      "midi": 76,
      "hit": false,
      "t": 60428.581499999906,
      "d": 428.5714999999982,
      "v": 100
    },
    {
      "midi": 74,
      "hit": false,
      "t": 60857.152999999904,
      "d": 428.5714999999982,
      "v": 100
    },
    {
      "midi": 69,
      "hit": false,
      "t": 60857.152999999904,
      "d": 857.1429999999964,
      "v": 100
    },
    {
      "midi": 65,
      "hit": false,
      "t": 60857.152999999904,
      "d": 857.1429999999964,
      "v": 100
    },
    {
      "midi": 72,
      "hit": false,
      "t": 61285.7244999999,
      "d": 428.5714999999982,
      "v": 100
    },
    {
      "midi": 74,
      "hit": false,
      "t": 61714.2959999999,
      "d": 642.8572500000009,
      "v": 100
    },
    {
      "midi": 69,
      "hit": false,
      "t": 61714.2959999999,
      "d": 857.1430000000037,
      "v": 100
    },
    {
      "midi": 62,
      "hit": false,
      "t": 61714.2959999999,
      "d": 857.1430000000037,
      "v": 100
    },
    {
      "midi": 76,
      "hit": false,
      "t": 62357.1532499999,
      "d": 214.28575000000274,
      "v": 100
    },
    {
      "midi": 72,
      "hit": false,
      "t": 62571.438999999904,
      "d": 428.5714999999982,
      "v": 100
    },
    {
      "midi": 62,
      "hit": false,
      "t": 62571.438999999904,
      "d": 428.5714999999982,
      "v": 100
    },
    {
      "midi": 77,
      "hit": false,
      "t": 62571.438999999904,
      "d": 428.5714999999982,
      "v": 100
    },
    {
      "midi": 72,
      "hit": false,
      "t": 63000.0104999999,
      "d": 428.5714999999982,
      "v": 100
    },
    {
      "midi": 64,
      "hit": false,
      "t": 63000.0104999999,
      "d": 428.5714999999982,
      "v": 100
    },
    {
      "midi": 79,
      "hit": false,
      "t": 63000.0104999999,
      "d": 428.5714999999982,
      "v": 100
    },
    {
      "midi": 69,
      "hit": false,
      "t": 63428.5819999999,
      "d": 857.1429999999964,
      "v": 100
    },
    {
      "midi": 62,
      "hit": false,
      "t": 63428.5819999999,
      "d": 857.1429999999964,
      "v": 100
    },
    {
      "midi": 81,
      "hit": false,
      "t": 63428.5819999999,
      "d": 1285.7144999999946,
      "v": 100
    },
    {
      "midi": 72,
      "hit": false,
      "t": 64285.7249999999,
      "d": 428.5714999999982,
      "v": 100
    },
    {
      "midi": 62,
      "hit": false,
      "t": 64285.7249999999,
      "d": 428.5714999999982,
      "v": 100
    },
    {
      "midi": 83,
      "hit": false,
      "t": 64714.296499999895,
      "d": 214.28575000000274,
      "v": 100
    },
    {
      "midi": 71,
      "hit": false,
      "t": 64714.296499999895,
      "d": 428.57150000000547,
      "v": 100
    },
    {
      "midi": 64,
      "hit": false,
      "t": 64714.296499999895,
      "d": 428.57150000000547,
      "v": 100
    },
    {
      "midi": 84,
      "hit": false,
      "t": 64928.5822499999,
      "d": 214.28575000000274,
      "v": 100
    },
    {
      "midi": 71,
      "hit": false,
      "t": 65142.8679999999,
      "d": 428.57150000000547,
      "v": 100
    },
    {
      "midi": 83,
      "hit": false,
      "t": 65142.8679999999,
      "d": 428.57150000000547,
      "v": 100
    },
    {
      "midi": 64,
      "hit": false,
      "t": 65142.8679999999,
      "d": 857.1430000000109,
      "v": 100
    },
    {
      "midi": 72,
      "hit": false,
      "t": 65571.4394999999,
      "d": 428.57150000000547,
      "v": 100
    },
    {
      "midi": 81,
      "hit": false,
      "t": 65571.4394999999,
      "d": 428.57150000000547,
      "v": 100
    },
    {
      "midi": 74,
      "hit": false,
      "t": 66000.01099999991,
      "d": 428.57150000000547,
      "v": 100
    },
    {
      "midi": 62,
      "hit": false,
      "t": 66000.01099999991,
      "d": 428.57150000000547,
      "v": 100
    },
    {
      "midi": 81,
      "hit": false,
      "t": 66000.01099999991,
      "d": 428.57150000000547,
      "v": 100
    },
    {
      "midi": 76,
      "hit": false,
      "t": 66428.58249999992,
      "d": 428.57150000000547,
      "v": 100
    },
    {
      "midi": 64,
      "hit": false,
      "t": 66428.58249999992,
      "d": 428.57150000000547,
      "v": 100
    },
    {
      "midi": 80,
      "hit": false,
      "t": 66428.58249999992,
      "d": 428.57150000000547,
      "v": 100
    },
    {
      "midi": 72,
      "hit": false,
      "t": 66857.15399999992,
      "d": 428.57150000000547,
      "v": 100
    },
    {
      "midi": 64,
      "hit": false,
      "t": 66857.15399999992,
      "d": 428.57150000000547,
      "v": 100
    },
    {
      "midi": 81,
      "hit": false,
      "t": 66857.15399999992,
      "d": 1714.2859999999928,
      "v": 100
    },
    {
      "midi": 65,
      "hit": false,
      "t": 67285.72549999993,
      "d": 214.28574999999546,
      "v": 100
    },
    {
      "midi": 74,
      "hit": false,
      "t": 67285.72549999993,
      "d": 428.5714999999909,
      "v": 100
    },
    {
      "midi": 67,
      "hit": false,
      "t": 67500.01124999992,
      "d": 214.28574999999546,
      "v": 100
    },
    {
      "midi": 69,
      "hit": false,
      "t": 67714.29699999992,
      "d": 857.1429999999964,
      "v": 100
    },
    {
      "midi": 76,
      "hit": false,
      "t": 67714.29699999992,
      "d": 857.1429999999964,
      "v": 100
    },
    {
      "midi": 73,
      "hit": false,
      "t": 67714.29699999992,
      "d": 857.1429999999964,
      "v": 100
    },
    {
      "midi": 74,
      "hit": false,
      "t": 68571.43999999992,
      "d": 642.8572500000009,
      "v": 100
    },
    {
      "midi": 76,
      "hit": false,
      "t": 69214.29724999992,
      "d": 214.28574999999546,
      "v": 100
    },
    {
      "midi": 62,
      "hit": false,
      "t": 69428.58299999991,
      "d": 428.57150000000547,
      "v": 100
    },
    {
      "midi": 69,
      "hit": false,
      "t": 69428.58299999991,
      "d": 428.57150000000547,
      "v": 100
    },
    {
      "midi": 77,
      "hit": false,
      "t": 69428.58299999991,
      "d": 428.57150000000547,
      "v": 100
    },
    {
      "midi": 64,
      "hit": false,
      "t": 69857.15449999992,
      "d": 428.57150000000547,
      "v": 100
    },
    {
      "midi": 72,
      "hit": false,
      "t": 69857.15449999992,
      "d": 428.57150000000547,
      "v": 100
    },
    {
      "midi": 79,
      "hit": false,
      "t": 69857.15449999992,
      "d": 428.57150000000547,
      "v": 100
    },
    {
      "midi": 69,
      "hit": false,
      "t": 70285.72599999992,
      "d": 857.1429999999818,
      "v": 100
    },
    {
      "midi": 62,
      "hit": false,
      "t": 70285.72599999992,
      "d": 857.1429999999818,
      "v": 100
    },
    {
      "midi": 81,
      "hit": false,
      "t": 70285.72599999992,
      "d": 1285.7144999999873,
      "v": 100
    },
    {
      "midi": 72,
      "hit": false,
      "t": 70500.01174999992,
      "d": 214.28574999999546,
      "v": 100
    },
    {
      "midi": 74,
      "hit": false,
      "t": 70714.29749999991,
      "d": 214.28574999999546,
      "v": 100
    },
    {
      "midi": 76,
      "hit": false,
      "t": 70928.58324999991,
      "d": 214.28574999999546,
      "v": 100
    },
    {
      "midi": 72,
      "hit": false,
      "t": 71142.8689999999,
      "d": 428.57150000000547,
      "v": 100
    },
    {
      "midi": 69,
      "hit": false,
      "t": 71142.8689999999,
      "d": 428.57150000000547,
      "v": 100
    },
    {
      "midi": 77,
      "hit": false,
      "t": 71142.8689999999,
      "d": 857.1429999999964,
      "v": 100
    },
    {
      "midi": 83,
      "hit": false,
      "t": 71571.44049999991,
      "d": 214.28574999999546,
      "v": 100
    },
    {
      "midi": 67,
      "hit": false,
      "t": 71571.44049999991,
      "d": 428.5714999999909,
      "v": 100
    },
    {
      "midi": 71,
      "hit": false,
      "t": 71571.44049999991,
      "d": 428.5714999999909,
      "v": 100
    },
    {
      "midi": 84,
      "hit": false,
      "t": 71785.7262499999,
      "d": 214.28574999999546,
      "v": 100
    },
    {
      "midi": 64,
      "hit": false,
      "t": 72000.0119999999,
      "d": 428.57150000000547,
      "v": 100
    },
    {
      "midi": 71,
      "hit": false,
      "t": 72000.0119999999,
      "d": 428.57150000000547,
      "v": 100
    },
    {
      "midi": 83,
      "hit": false,
      "t": 72000.0119999999,
      "d": 428.57150000000547,
      "v": 100
    },
    {
      "midi": 72,
      "hit": false,
      "t": 72428.5834999999,
      "d": 428.57150000000547,
      "v": 100
    },
    {
      "midi": 64,
      "hit": false,
      "t": 72428.5834999999,
      "d": 428.57150000000547,
      "v": 100
    },
    {
      "midi": 81,
      "hit": false,
      "t": 72428.5834999999,
      "d": 428.57150000000547,
      "v": 100
    },
    {
      "midi": 64,
      "hit": false,
      "t": 72857.15499999991,
      "d": 428.57150000000547,
      "v": 100
    },
    {
      "midi": 71,
      "hit": false,
      "t": 72857.15499999991,
      "d": 428.57150000000547,
      "v": 100
    },
    {
      "midi": 79,
      "hit": false,
      "t": 72857.15499999991,
      "d": 642.8572500000009,
      "v": 100
    },
    {
      "midi": 74,
      "hit": false,
      "t": 73285.72649999992,
      "d": 857.1429999999964,
      "v": 100
    },
    {
      "midi": 62,
      "hit": false,
      "t": 73285.72649999992,
      "d": 2142.857500000013,
      "v": 100
    },
    {
      "midi": 81,
      "hit": false,
      "t": 73500.01224999991,
      "d": 214.28574999999546,
      "v": 100
    },
    {
      "midi": 77,
      "hit": false,
      "t": 73714.29799999991,
      "d": 428.57150000000547,
      "v": 100
    },
    {
      "midi": 72,
      "hit": false,
      "t": 74142.86949999991,
      "d": 428.57150000000547,
      "v": 100
    },
    {
      "midi": 76,
      "hit": false,
      "t": 74142.86949999991,
      "d": 428.57150000000547,
      "v": 100
    },
    {
      "midi": 74,
      "hit": false,
      "t": 74571.44099999992,
      "d": 428.57150000000547,
      "v": 100
    },
    {
      "midi": 69,
      "hit": false,
      "t": 74571.44099999992,
      "d": 857.1430000000109,
      "v": 100
    },
    {
      "midi": 65,
      "hit": false,
      "t": 74571.44099999992,
      "d": 857.1430000000109,
      "v": 100
    },
    {
      "midi": 72,
      "hit": false,
      "t": 75000.01249999992,
      "d": 428.57150000000547,
      "v": 100
    },
    {
      "midi": 69,
      "hit": false,
      "t": 75428.58399999993,
      "d": 428.57150000000547,
      "v": 100
    },
    {
      "midi": 77,
      "hit": false,
      "t": 75428.58399999993,
      "d": 642.8572500000009,
      "v": 100
    },
    {
      "midi": 62,
      "hit": false,
      "t": 75428.58399999993,
      "d": 857.1429999999964,
      "v": 100
    },
    {
      "midi": 72,
      "hit": false,
      "t": 75857.15549999994,
      "d": 428.5714999999909,
      "v": 100
    },
    {
      "midi": 77,
      "hit": false,
      "t": 76071.44124999993,
      "d": 214.28574999999546,
      "v": 100
    },
    {
      "midi": 79,
      "hit": false,
      "t": 76285.72699999993,
      "d": 214.28574999999546,
      "v": 100
    },
    {
      "midi": 74,
      "hit": false,
      "t": 76285.72699999993,
      "d": 428.5714999999909,
      "v": 100
    },
    {
      "midi": 64,
      "hit": false,
      "t": 76285.72699999993,
      "d": 857.1429999999818,
      "v": 100
    },
    {
      "midi": 77,
      "hit": false,
      "t": 76500.01274999992,
      "d": 214.28574999999546,
      "v": 100
    },
    {
      "midi": 76,
      "hit": false,
      "t": 76714.29849999992,
      "d": 214.28574999999546,
      "v": 100
    },
    {
      "midi": 71,
      "hit": false,
      "t": 76714.29849999992,
      "d": 428.5714999999909,
      "v": 100
    },
    {
      "midi": 74,
      "hit": false,
      "t": 76928.58424999991,
      "d": 214.28574999999546,
      "v": 100
    },
    {
      "midi": 72,
      "hit": false,
      "t": 77142.86999999991,
      "d": 428.57150000000547,
      "v": 100
    },
    {
      "midi": 69,
      "hit": false,
      "t": 77571.44149999991,
      "d": 428.57150000000547,
      "v": 100
    },
    {
      "midi": 62,
      "hit": false,
      "t": 77571.44149999991,
      "d": 428.57150000000547,
      "v": 100
    },
    {
      "midi": 81,
      "hit": false,
      "t": 77571.44149999991,
      "d": 428.57150000000547,
      "v": 100
    },
    {
      "midi": 64,
      "hit": false,
      "t": 78000.01299999992,
      "d": 428.57150000000547,
      "v": 100
    },
    {
      "midi": 72,
      "hit": false,
      "t": 78000.01299999992,
      "d": 428.57150000000547,
      "v": 100
    },
    {
      "midi": 76,
      "hit": false,
      "t": 78000.01299999992,
      "d": 642.8572500000009,
      "v": 100
    },
    {
      "midi": 71,
      "hit": false,
      "t": 78428.58449999992,
      "d": 428.5714999999909,
      "v": 100
    },
    {
      "midi": 67,
      "hit": false,
      "t": 78428.58449999992,
      "d": 428.5714999999909,
      "v": 100
    },
    {
      "midi": 79,
      "hit": false,
      "t": 78642.87024999992,
      "d": 214.28574999999546,
      "v": 100
    },
    {
      "midi": 69,
      "hit": false,
      "t": 78857.15599999992,
      "d": 428.57150000000547,
      "v": 100
    },
    {
      "midi": 77,
      "hit": false,
      "t": 78857.15599999992,
      "d": 428.57150000000547,
      "v": 100
    },
    {
      "midi": 62,
      "hit": false,
      "t": 78857.15599999992,
      "d": 1285.7145000000164,
      "v": 100
    },
    {
      "midi": 72,
      "hit": false,
      "t": 79285.72749999992,
      "d": 428.57150000000547,
      "v": 100
    },
    {
      "midi": 76,
      "hit": false,
      "t": 79285.72749999992,
      "d": 428.57150000000547,
      "v": 100
    },
    {
      "midi": 67,
      "hit": false,
      "t": 79714.29899999993,
      "d": 428.57150000000547,
      "v": 100
    },
    {
      "midi": 76,
      "hit": false,
      "t": 79714.29899999993,
      "d": 428.57150000000547,
      "v": 100
    },
    {
      "midi": 73,
      "hit": false,
      "t": 80142.87049999993,
      "d": 428.57150000000547,
      "v": 100
    },
    {
      "midi": 64,
      "hit": false,
      "t": 80142.87049999993,
      "d": 428.57150000000547,
      "v": 100
    },
    {
      "midi": 76,
      "hit": false,
      "t": 80142.87049999993,
      "d": 428.57150000000547,
      "v": 100
    },
    {
      "midi": 71,
      "hit": false,
      "t": 80571.44199999994,
      "d": 428.57150000000547,
      "v": 100
    },
    {
      "midi": 62,
      "hit": false,
      "t": 80571.44199999994,
      "d": 1714.2859999999928,
      "v": 100
    },
    {
      "midi": 74,
      "hit": false,
      "t": 80571.44199999994,
      "d": 1714.2859999999928,
      "v": 100
    },
    {
      "midi": 69,
      "hit": false,
      "t": 81000.01349999994,
      "d": 214.28574999999546,
      "v": 100
    },
    {
      "midi": 67,
      "hit": false,
      "t": 81214.29924999994,
      "d": 214.28574999999546,
      "v": 100
    },
    {
      "midi": 66,
      "hit": false,
      "t": 81428.58499999993,
      "d": 857.1429999999964,
      "v": 100
    },
    {
      "midi": 69,
      "hit": false,
      "t": 82285.72799999993,
      "d": 857.1429999999964,
      "v": 100
    },
    {
      "midi": 62,
      "hit": false,
      "t": 82285.72799999993,
      "d": 857.1429999999964,
      "v": 100
    },
    {
      "midi": 86,
      "hit": false,
      "t": 82285.72799999993,
      "d": 857.1429999999964,
      "v": 100
    },
    {
      "midi": 72,
      "hit": false,
      "t": 83142.87099999993,
      "d": 428.57150000000547,
      "v": 100
    },
    {
      "midi": 64,
      "hit": false,
      "t": 83142.87099999993,
      "d": 428.57150000000547,
      "v": 100
    },
    {
      "midi": 81,
      "hit": false,
      "t": 83142.87099999993,
      "d": 428.57150000000547,
      "v": 100
    },
    {
      "midi": 74,
      "hit": false,
      "t": 83571.44249999993,
      "d": 428.57150000000547,
      "v": 100
    },
    {
      "midi": 65,
      "hit": false,
      "t": 83571.44249999993,
      "d": 428.57150000000547,
      "v": 100
    },
    {
      "midi": 86,
      "hit": false,
      "t": 83571.44249999993,
      "d": 428.57150000000547,
      "v": 100
    },
    {
      "midi": 72,
      "hit": false,
      "t": 84000.01399999994,
      "d": 428.57150000000547,
      "v": 100
    },
    {
      "midi": 64,
      "hit": false,
      "t": 84000.01399999994,
      "d": 428.57150000000547,
      "v": 100
    },
    {
      "midi": 84,
      "hit": false,
      "t": 84000.01399999994,
      "d": 642.8572500000009,
      "v": 100
    },
    {
      "midi": 74,
      "hit": false,
      "t": 84428.58549999994,
      "d": 428.5714999999909,
      "v": 100
    },
    {
      "midi": 65,
      "hit": false,
      "t": 84428.58549999994,
      "d": 428.5714999999909,
      "v": 100
    },
    {
      "midi": 83,
      "hit": false,
      "t": 84642.87124999994,
      "d": 214.28574999999546,
      "v": 100
    },
    {
      "midi": 69,
      "hit": false,
      "t": 84857.15699999993,
      "d": 428.57150000000547,
      "v": 100
    },
    {
      "midi": 81,
      "hit": false,
      "t": 84857.15699999993,
      "d": 428.57150000000547,
      "v": 100
    },
    {
      "midi": 62,
      "hit": false,
      "t": 84857.15699999993,
      "d": 857.1430000000109,
      "v": 100
    },
    {
      "midi": 71,
      "hit": false,
      "t": 85285.72849999994,
      "d": 428.57150000000547,
      "v": 100
    },
    {
      "midi": 79,
      "hit": false,
      "t": 85285.72849999994,
      "d": 428.57150000000547,
      "v": 100
    },
    {
      "midi": 81,
      "hit": false,
      "t": 85714.29999999994,
      "d": 428.57150000000547,
      "v": 100
    },
    {
      "midi": 74,
      "hit": false,
      "t": 85714.29999999994,
      "d": 857.1429999999964,
      "v": 100
    },
    {
      "midi": 62,
      "hit": false,
      "t": 85714.29999999994,
      "d": 857.1429999999964,
      "v": 100
    },
    {
      "midi": 77,
      "hit": false,
      "t": 86142.87149999995,
      "d": 214.28574999999546,
      "v": 100
    },
    {
      "midi": 79,
      "hit": false,
      "t": 86357.15724999995,
      "d": 214.28574999999546,
      "v": 100
    },
    {
      "midi": 69,
      "hit": false,
      "t": 86571.44299999994,
      "d": 428.57150000000547,
      "v": 100
    },
    {
      "midi": 65,
      "hit": false,
      "t": 86571.44299999994,
      "d": 428.57150000000547,
      "v": 100
    },
    {
      "midi": 81,
      "hit": false,
      "t": 86571.44299999994,
      "d": 428.57150000000547,
      "v": 100
    },
    {
      "midi": 68,
      "hit": false,
      "t": 87000.01449999995,
      "d": 428.57150000000547,
      "v": 100
    },
    {
      "midi": 71,
      "hit": false,
      "t": 87000.01449999995,
      "d": 428.57150000000547,
      "v": 100
    },
    {
      "midi": 83,
      "hit": false,
      "t": 87000.01449999995,
      "d": 428.57150000000547,
      "v": 100
    },
    {
      "midi": 72,
      "hit": false,
      "t": 87428.58599999995,
      "d": 857.1429999999964,
      "v": 100
    },
    {
      "midi": 64,
      "hit": false,
      "t": 87428.58599999995,
      "d": 857.1429999999964,
      "v": 100
    },
    {
      "midi": 84,
      "hit": false,
      "t": 87428.58599999995,
      "d": 857.1429999999964,
      "v": 100
    },
    {
      "midi": 76,
      "hit": false,
      "t": 88285.72899999995,
      "d": 857.1429999999964,
      "v": 100
    },
    {
      "midi": 69,
      "hit": false,
      "t": 88285.72899999995,
      "d": 857.1429999999964,
      "v": 100
    },
    {
      "midi": 84,
      "hit": false,
      "t": 88285.72899999995,
      "d": 857.1429999999964,
      "v": 100
    },
    {
      "midi": 69,
      "hit": false,
      "t": 89142.87199999994,
      "d": 857.1429999999964,
      "v": 100
    },
    {
      "midi": 62,
      "hit": false,
      "t": 89142.87199999994,
      "d": 857.1429999999964,
      "v": 100
    },
    {
      "midi": 86,
      "hit": false,
      "t": 89142.87199999994,
      "d": 857.1429999999964,
      "v": 100
    },
    {
      "midi": 64,
      "hit": false,
      "t": 90000.01499999994,
      "d": 428.57150000000547,
      "v": 100
    },
    {
      "midi": 72,
      "hit": false,
      "t": 90000.01499999994,
      "d": 428.57150000000547,
      "v": 100
    },
    {
      "midi": 81,
      "hit": false,
      "t": 90000.01499999994,
      "d": 428.57150000000547,
      "v": 100
    },
    {
      "midi": 65,
      "hit": false,
      "t": 90428.58649999995,
      "d": 428.57150000000547,
      "v": 100
    },
    {
      "midi": 74,
      "hit": false,
      "t": 90428.58649999995,
      "d": 428.57150000000547,
      "v": 100
    },
    {
      "midi": 86,
      "hit": false,
      "t": 90428.58649999995,
      "d": 428.57150000000547,
      "v": 100
    },
    {
      "midi": 72,
      "hit": false,
      "t": 90857.15799999995,
      "d": 428.57150000000547,
      "v": 100
    },
    {
      "midi": 64,
      "hit": false,
      "t": 90857.15799999995,
      "d": 428.57150000000547,
      "v": 100
    },
    {
      "midi": 84,
      "hit": false,
      "t": 90857.15799999995,
      "d": 642.8572500000009,
      "v": 100
    },
    {
      "midi": 74,
      "hit": false,
      "t": 91285.72949999996,
      "d": 428.5714999999909,
      "v": 100
    },
    {
      "midi": 65,
      "hit": false,
      "t": 91285.72949999996,
      "d": 428.5714999999909,
      "v": 100
    },
    {
      "midi": 83,
      "hit": false,
      "t": 91500.01524999995,
      "d": 214.28574999999546,
      "v": 100
    },
    {
      "midi": 69,
      "hit": false,
      "t": 91714.30099999995,
      "d": 428.57150000000547,
      "v": 100
    },
    {
      "midi": 81,
      "hit": false,
      "t": 91714.30099999995,
      "d": 428.57150000000547,
      "v": 100
    },
    {
      "midi": 62,
      "hit": false,
      "t": 91714.30099999995,
      "d": 857.1430000000109,
      "v": 100
    },
    {
      "midi": 71,
      "hit": false,
      "t": 92142.87249999995,
      "d": 428.57150000000547,
      "v": 100
    },
    {
      "midi": 79,
      "hit": false,
      "t": 92142.87249999995,
      "d": 428.57150000000547,
      "v": 100
    },
    {
      "midi": 65,
      "hit": false,
      "t": 92571.44399999996,
      "d": 428.57150000000547,
      "v": 100
    },
    {
      "midi": 77,
      "hit": false,
      "t": 92571.44399999996,
      "d": 428.57150000000547,
      "v": 100
    },
    {
      "midi": 69,
      "hit": false,
      "t": 92571.44399999996,
      "d": 857.1430000000109,
      "v": 100
    },
    {
      "midi": 62,
      "hit": false,
      "t": 93000.01549999996,
      "d": 428.57150000000547,
      "v": 100
    },
    {
      "midi": 81,
      "hit": false,
      "t": 93000.01549999996,
      "d": 428.57150000000547,
      "v": 100
    },
    {
      "midi": 64,
      "hit": false,
      "t": 93428.58699999997,
      "d": 428.57150000000547,
      "v": 100
    },
    {
      "midi": 71,
      "hit": false,
      "t": 93428.58699999997,
      "d": 428.57150000000547,
      "v": 100
    },
    {
      "midi": 76,
      "hit": false,
      "t": 93428.58699999997,
      "d": 428.57150000000547,
      "v": 100
    },
    {
      "midi": 74,
      "hit": false,
      "t": 93857.15849999998,
      "d": 214.28574999999546,
      "v": 100
    },
    {
      "midi": 64,
      "hit": false,
      "t": 93857.15849999998,
      "d": 428.5714999999909,
      "v": 100
    },
    {
      "midi": 69,
      "hit": false,
      "t": 93857.15849999998,
      "d": 428.5714999999909,
      "v": 100
    },
    {
      "midi": 73,
      "hit": false,
      "t": 94071.44424999997,
      "d": 214.28574999999546,
      "v": 100
    },
    {
      "midi": 69,
      "hit": false,
      "t": 94285.72999999997,
      "d": 857.1429999999964,
      "v": 100
    },
    {
      "midi": 62,
      "hit": false,
      "t": 94285.72999999997,
      "d": 857.1429999999964,
      "v": 100
    },
    {
      "midi": 74,
      "hit": false,
      "t": 94285.72999999997,
      "d": 857.1429999999964,
      "v": 100
    },
    {
      "midi": 62,
      "hit": false,
      "t": 95142.87299999996,
      "d": 857.1429999999964,
      "v": 100
    },
    {
      "midi": 69,
      "hit": false,
      "t": 95142.87299999996,
      "d": 857.1429999999964,
      "v": 100
    },
    {
      "midi": 74,
      "hit": false,
      "t": 95142.87299999996,
      "d": 857.1429999999964,
      "v": 100
    },
    {
      "midi": 69,
      "hit": false,
      "t": 96000.01599999996,
      "d": 857.1429999999964,
      "v": 100
    },
    {
      "midi": 62,
      "hit": false,
      "t": 96000.01599999996,
      "d": 857.1429999999964,
      "v": 100
    },
    {
      "midi": 86,
      "hit": false,
      "t": 96000.01599999996,
      "d": 857.1429999999964,
      "v": 100
    },
    {
      "midi": 72,
      "hit": false,
      "t": 96857.15899999996,
      "d": 428.57150000000547,
      "v": 100
    },
    {
      "midi": 64,
      "hit": false,
      "t": 96857.15899999996,
      "d": 428.57150000000547,
      "v": 100
    },
    {
      "midi": 81,
      "hit": false,
      "t": 96857.15899999996,
      "d": 428.57150000000547,
      "v": 100
    },
    {
      "midi": 74,
      "hit": false,
      "t": 97285.73049999996,
      "d": 428.57150000000547,
      "v": 100
    },
    {
      "midi": 65,
      "hit": false,
      "t": 97285.73049999996,
      "d": 428.57150000000547,
      "v": 100
    },
    {
      "midi": 86,
      "hit": false,
      "t": 97285.73049999996,
      "d": 428.57150000000547,
      "v": 100
    },
    {
      "midi": 64,
      "hit": false,
      "t": 97714.30199999997,
      "d": 428.57150000000547,
      "v": 100
    },
    {
      "midi": 72,
      "hit": false,
      "t": 97714.30199999997,
      "d": 428.57150000000547,
      "v": 100
    },
    {
      "midi": 84,
      "hit": false,
      "t": 97714.30199999997,
      "d": 642.8572500000009,
      "v": 100
    },
    {
      "midi": 65,
      "hit": false,
      "t": 98142.87349999997,
      "d": 428.5714999999909,
      "v": 100
    },
    {
      "midi": 74,
      "hit": false,
      "t": 98142.87349999997,
      "d": 428.5714999999909,
      "v": 100
    },
    {
      "midi": 83,
      "hit": false,
      "t": 98357.15924999997,
      "d": 214.28574999999546,
      "v": 100
    },
    {
      "midi": 69,
      "hit": false,
      "t": 98571.44499999996,
      "d": 428.57150000000547,
      "v": 100
    },
    {
      "midi": 81,
      "hit": false,
      "t": 98571.44499999996,
      "d": 428.57150000000547,
      "v": 100
    },
    {
      "midi": 62,
      "hit": false,
      "t": 98571.44499999996,
      "d": 857.1430000000109,
      "v": 100
    },
    {
      "midi": 71,
      "hit": false,
      "t": 99000.01649999997,
      "d": 428.57150000000547,
      "v": 100
    },
    {
      "midi": 79,
      "hit": false,
      "t": 99000.01649999997,
      "d": 428.57150000000547,
      "v": 100
    },
    {
      "midi": 81,
      "hit": false,
      "t": 99428.58799999997,
      "d": 428.57150000000547,
      "v": 100
    },
    {
      "midi": 74,
      "hit": false,
      "t": 99428.58799999997,
      "d": 857.1429999999964,
      "v": 100
    },
    {
      "midi": 62,
      "hit": false,
      "t": 99428.58799999997,
      "d": 857.1429999999964,
      "v": 100
    },
    {
      "midi": 77,
      "hit": false,
      "t": 99857.15949999998,
      "d": 214.28574999999546,
      "v": 100
    },
    {
      "midi": 79,
      "hit": false,
      "t": 100071.44524999998,
      "d": 214.28574999999546,
      "v": 100
    },
    {
      "midi": 65,
      "hit": false,
      "t": 100285.73099999997,
      "d": 428.57150000000547,
      "v": 100
    },
    {
      "midi": 69,
      "hit": false,
      "t": 100285.73099999997,
      "d": 428.57150000000547,
      "v": 100
    },
    {
      "midi": 81,
      "hit": false,
      "t": 100285.73099999997,
      "d": 428.57150000000547,
      "v": 100
    },
    {
      "midi": 71,
      "hit": false,
      "t": 100714.30249999998,
      "d": 428.57150000000547,
      "v": 100
    },
    {
      "midi": 68,
      "hit": false,
      "t": 100714.30249999998,
      "d": 428.57150000000547,
      "v": 100
    },
    {
      "midi": 83,
      "hit": false,
      "t": 100714.30249999998,
      "d": 428.57150000000547,
      "v": 100
    },
    {
      "midi": 72,
      "hit": false,
      "t": 101142.87399999998,
      "d": 857.1429999999964,
      "v": 100
    },
    {
      "midi": 64,
      "hit": false,
      "t": 101142.87399999998,
      "d": 857.1429999999964,
      "v": 100
    },
    {
      "midi": 84,
      "hit": false,
      "t": 101142.87399999998,
      "d": 857.1429999999964,
      "v": 100
    },
    {
      "midi": 69,
      "hit": false,
      "t": 102000.01699999998,
      "d": 857.1429999999964,
      "v": 100
    },
    {
      "midi": 76,
      "hit": false,
      "t": 102000.01699999998,
      "d": 857.1429999999964,
      "v": 100
    },
    {
      "midi": 84,
      "hit": false,
      "t": 102000.01699999998,
      "d": 857.1429999999964,
      "v": 100
    },
    {
      "midi": 69,
      "hit": false,
      "t": 102857.15999999997,
      "d": 857.1429999999964,
      "v": 100
    },
    {
      "midi": 62,
      "hit": false,
      "t": 102857.15999999997,
      "d": 857.1429999999964,
      "v": 100
    },
    {
      "midi": 86,
      "hit": false,
      "t": 102857.15999999997,
      "d": 857.1429999999964,
      "v": 100
    },
    {
      "midi": 72,
      "hit": false,
      "t": 103714.30299999997,
      "d": 428.57150000000547,
      "v": 100
    },
    {
      "midi": 64,
      "hit": false,
      "t": 103714.30299999997,
      "d": 428.57150000000547,
      "v": 100
    },
    {
      "midi": 81,
      "hit": false,
      "t": 103714.30299999997,
      "d": 428.57150000000547,
      "v": 100
    },
    {
      "midi": 74,
      "hit": false,
      "t": 104142.87449999998,
      "d": 428.57150000000547,
      "v": 100
    },
    {
      "midi": 65,
      "hit": false,
      "t": 104142.87449999998,
      "d": 428.57150000000547,
      "v": 100
    },
    {
      "midi": 86,
      "hit": false,
      "t": 104142.87449999998,
      "d": 428.57150000000547,
      "v": 100
    },
    {
      "midi": 64,
      "hit": false,
      "t": 104571.44599999998,
      "d": 428.57150000000547,
      "v": 100
    },
    {
      "midi": 72,
      "hit": false,
      "t": 104571.44599999998,
      "d": 428.57150000000547,
      "v": 100
    },
    {
      "midi": 84,
      "hit": false,
      "t": 104571.44599999998,
      "d": 642.8572500000009,
      "v": 100
    },
    {
      "midi": 65,
      "hit": false,
      "t": 105000.01749999999,
      "d": 428.5714999999909,
      "v": 100
    },
    {
      "midi": 74,
      "hit": false,
      "t": 105000.01749999999,
      "d": 428.5714999999909,
      "v": 100
    },
    {
      "midi": 83,
      "hit": false,
      "t": 105214.30324999998,
      "d": 214.28574999999546,
      "v": 100
    },
    {
      "midi": 69,
      "hit": false,
      "t": 105428.58899999998,
      "d": 428.57150000000547,
      "v": 100
    },
    {
      "midi": 81,
      "hit": false,
      "t": 105428.58899999998,
      "d": 428.57150000000547,
      "v": 100
    },
    {
      "midi": 62,
      "hit": false,
      "t": 105428.58899999998,
      "d": 857.1430000000109,
      "v": 100
    },
    {
      "midi": 71,
      "hit": false,
      "t": 105857.16049999998,
      "d": 428.57150000000547,
      "v": 100
    },
    {
      "midi": 79,
      "hit": false,
      "t": 105857.16049999998,
      "d": 428.57150000000547,
      "v": 100
    },
    {
      "midi": 65,
      "hit": false,
      "t": 106285.73199999999,
      "d": 428.57150000000547,
      "v": 100
    },
    {
      "midi": 77,
      "hit": false,
      "t": 106285.73199999999,
      "d": 428.57150000000547,
      "v": 100
    },
    {
      "midi": 69,
      "hit": false,
      "t": 106285.73199999999,
      "d": 857.1430000000109,
      "v": 100
    },
    {
      "midi": 62,
      "hit": false,
      "t": 106714.3035,
      "d": 428.57150000000547,
      "v": 100
    },
    {
      "midi": 81,
      "hit": false,
      "t": 106714.3035,
      "d": 428.57150000000547,
      "v": 100
    },
    {
      "midi": 71,
      "hit": false,
      "t": 107142.875,
      "d": 428.57150000000547,
      "v": 100
    },
    {
      "midi": 64,
      "hit": false,
      "t": 107142.875,
      "d": 428.57150000000547,
      "v": 100
    },
    {
      "midi": 76,
      "hit": false,
      "t": 107142.875,
      "d": 428.57150000000547,
      "v": 100
    },
    {
      "midi": 74,
      "hit": false,
      "t": 107571.4465,
      "d": 214.28574999999546,
      "v": 100
    },
    {
      "midi": 69,
      "hit": false,
      "t": 107571.4465,
      "d": 428.5714999999909,
      "v": 100
    },
    {
      "midi": 64,
      "hit": false,
      "t": 107571.4465,
      "d": 428.5714999999909,
      "v": 100
    },
    {
      "midi": 73,
      "hit": false,
      "t": 107785.73225,
      "d": 214.28574999999546,
      "v": 100
    },
    {
      "midi": 69,
      "hit": false,
      "t": 108000.018,
      "d": 1714.2859999999928,
      "v": 100
    },
    {
      "midi": 74,
      "hit": false,
      "t": 108000.018,
      "d": 1714.2859999999928,
      "v": 100
    },
    {
      "midi": 62,
      "hit": false,
      "t": 108000.018,
      "d": 1714.2859999999928,
      "v": 100
    },
    {
      "midi": 66,
      "hit": false,
      "t": 108000.018,
      "d": 1714.2859999999928,
      "v": 100
    }
  ]
}