{
  "jsonPath": "Latin/Latin/Rosana/pa-calor.json",
  "path": "Latin\\Latin\\Rosana\\Pa Calor.mid",
  "name": "Pa Calor",
  "difficulty": "Advanced",
  "bpm": 132.000132000132,
  "notes": [
    {
      "midi": 43,
      "hit": false,
      "t": 10909.08,
      "d": 568.1812499999996,
      "v": 78
    },
    {
      "midi": 53,
      "hit": false,
      "t": 10909.08,
      "d": 568.1812499999996,
      "v": 88
    },
    {
      "midi": 60,
      "hit": false,
      "t": 10909.08,
      "d": 568.1812499999996,
      "v": 91
    },
    {
      "midi": 48,
      "hit": false,
      "t": 11590.8975,
      "d": 795.4537500000006,
      "v": 83
    },
    {
      "midi": 52,
      "hit": false,
      "t": 11590.8975,
      "d": 795.4537500000006,
      "v": 95
    },
    {
      "midi": 60,
      "hit": false,
      "t": 11590.8975,
      "d": 795.4537500000006,
      "v": 68
    },
    {
      "midi": 41,
      "hit": false,
      "t": 12499.9875,
      "d": 454.5450000000001,
      "v": 78
    },
    {
      "midi": 53,
      "hit": false,
      "t": 12499.9875,
      "d": 454.5450000000001,
      "v": 85
    },
    {
      "midi": 57,
      "hit": false,
      "t": 12499.9875,
      "d": 454.5450000000001,
      "v": 91
    },
    {
      "midi": 53,
      "hit": false,
      "t": 12954.5325,
      "d": 113.63624999999956,
      "v": 95
    },
    {
      "midi": 60,
      "hit": false,
      "t": 12954.5325,
      "d": 113.63624999999956,
      "v": 95
    },
    {
      "midi": 67,
      "hit": false,
      "t": 13409.0775,
      "d": 568.1812499999996,
      "v": 93
    },
    {
      "midi": 47,
      "hit": false,
      "t": 13409.0775,
      "d": 681.8174999999992,
      "v": 74
    },
    {
      "midi": 56,
      "hit": false,
      "t": 13409.0775,
      "d": 681.8174999999992,
      "v": 93
    },
    {
      "midi": 62,
      "hit": false,
      "t": 13409.0775,
      "d": 681.8174999999992,
      "v": 93
    },
    {
      "midi": 56,
      "hit": false,
      "t": 14090.894999999999,
      "d": 340.9087499999987,
      "v": 77
    },
    {
      "midi": 62,
      "hit": false,
      "t": 14318.167499999998,
      "d": 113.63624999999956,
      "v": 97
    },
    {
      "midi": 65,
      "hit": false,
      "t": 14318.167499999998,
      "d": 113.63624999999956,
      "v": 97
    },
    {
      "midi": 43,
      "hit": false,
      "t": 14545.439999999997,
      "d": 795.4537500000006,
      "v": 76
    },
    {
      "midi": 55,
      "hit": false,
      "t": 14545.439999999997,
      "d": 795.4537500000006,
      "v": 82
    },
    {
      "midi": 60,
      "hit": false,
      "t": 14545.439999999997,
      "d": 795.4537500000006,
      "v": 91
    },
    {
      "midi": 48,
      "hit": false,
      "t": 15454.529999999997,
      "d": 227.27249999999913,
      "v": 62
    },
    {
      "midi": 43,
      "hit": false,
      "t": 15681.802499999996,
      "d": 113.63624999999956,
      "v": 83
    },
    {
      "midi": 55,
      "hit": false,
      "t": 15681.802499999996,
      "d": 113.63624999999956,
      "v": 109
    },
    {
      "midi": 60,
      "hit": false,
      "t": 15681.802499999996,
      "d": 113.63624999999956,
      "v": 109
    },
    {
      "midi": 44,
      "hit": false,
      "t": 15909.074999999995,
      "d": 113.63624999999956,
      "v": 76
    },
    {
      "midi": 45,
      "hit": false,
      "t": 16136.347499999994,
      "d": 454.5450000000001,
      "v": 78
    },
    {
      "midi": 55,
      "hit": false,
      "t": 16136.347499999994,
      "d": 454.5450000000001,
      "v": 80
    },
    {
      "midi": 55,
      "hit": false,
      "t": 16590.892499999994,
      "d": 113.63624999999956,
      "v": 109
    },
    {
      "midi": 60,
      "hit": false,
      "t": 16590.892499999994,
      "d": 113.63624999999956,
      "v": 98
    },
    {
      "midi": 44,
      "hit": false,
      "t": 17045.437499999993,
      "d": 454.54499999999825,
      "v": 83
    },
    {
      "midi": 60,
      "hit": false,
      "t": 17499.98249999999,
      "d": 568.1812499999978,
      "v": 98
    },
    {
      "midi": 54,
      "hit": false,
      "t": 17727.25499999999,
      "d": 340.9087499999987,
      "v": 82
    },
    {
      "midi": 44,
      "hit": false,
      "t": 17954.52749999999,
      "d": 113.63624999999956,
      "v": 87
    },
    {
      "midi": 58,
      "hit": false,
      "t": 18177.065156249988,
      "d": 189.39374999999927,
      "v": 78
    },
    {
      "midi": 53,
      "hit": false,
      "t": 18181.79999999999,
      "d": 208.33312499999738,
      "v": 78
    },
    {
      "midi": 43,
      "hit": false,
      "t": 18181.79999999999,
      "d": 454.54499999999825,
      "v": 87
    },
    {
      "midi": 58,
      "hit": false,
      "t": 18643.447265624985,
      "d": 230.82363281249854,
      "v": 91
    },
    {
      "midi": 53,
      "hit": false,
      "t": 18646.998398437485,
      "d": 189.39374999999927,
      "v": 78
    },
    {
      "midi": 43,
      "hit": false,
      "t": 18863.617499999986,
      "d": 113.63624999999956,
      "v": 83
    },
    {
      "midi": 48,
      "hit": false,
      "t": 19090.889999999985,
      "d": 227.27249999999913,
      "v": 87
    },
    {
      "midi": 58,
      "hit": false,
      "t": 19306.325390624985,
      "d": 284.0906249999971,
      "v": 95
    },
    {
      "midi": 60,
      "hit": false,
      "t": 19309.876523437484,
      "d": 295.92773437499636,
      "v": 95
    },
    {
      "midi": 43,
      "hit": false,
      "t": 19545.434999999983,
      "d": 113.63624999999593,
      "v": 72
    },
    {
      "midi": 55,
      "hit": false,
      "t": 19757.31925781248,
      "d": 249.7630078125003,
      "v": 91
    },
    {
      "midi": 45,
      "hit": false,
      "t": 19772.70749999998,
      "d": 568.1812500000015,
      "v": 87
    },
    {
      "midi": 55,
      "hit": false,
      "t": 20196.47601562498,
      "d": 344.45988281250175,
      "v": 91
    },
    {
      "midi": 36,
      "hit": false,
      "t": 20681.797499999982,
      "d": 227.27249999999913,
      "v": 72
    },
    {
      "midi": 38,
      "hit": false,
      "t": 20909.06999999998,
      "d": 113.63624999999956,
      "v": 65
    },
    {
      "midi": 46,
      "hit": false,
      "t": 21136.34249999998,
      "d": 227.27249999999913,
      "v": 65
    },
    {
      "midi": 54,
      "hit": false,
      "t": 21136.34249999998,
      "d": 227.27249999999913,
      "v": 91
    },
    {
      "midi": 58,
      "hit": false,
      "t": 21136.34249999998,
      "d": 227.27249999999913,
      "v": 91
    },
    {
      "midi": 60,
      "hit": false,
      "t": 21136.34249999998,
      "d": 227.27249999999913,
      "v": 95
    },
    {
      "midi": 41,
      "hit": false,
      "t": 21590.88749999998,
      "d": 227.27249999999913,
      "v": 72
    },
    {
      "midi": 43,
      "hit": false,
      "t": 21818.159999999978,
      "d": 909.0900000000001,
      "v": 79
    },
    {
      "midi": 53,
      "hit": false,
      "t": 21818.159999999978,
      "d": 909.0900000000001,
      "v": 99
    },
    {
      "midi": 48,
      "hit": false,
      "t": 22727.249999999978,
      "d": 795.4537500000006,
      "v": 70
    },
    {
      "midi": 52,
      "hit": false,
      "t": 22727.249999999978,
      "d": 795.4537500000006,
      "v": 88
    },
    {
      "midi": 60,
      "hit": false,
      "t": 22727.249999999978,
      "d": 795.4537500000006,
      "v": 80
    },
    {
      "midi": 53,
      "hit": false,
      "t": 23636.33999999998,
      "d": 1363.6349999999984,
      "v": 85
    },
    {
      "midi": 57,
      "hit": false,
      "t": 23636.33999999998,
      "d": 1363.6349999999984,
      "v": 68
    },
    {
      "midi": 55,
      "hit": false,
      "t": 25909.064999999977,
      "d": 227.27249999999913,
      "v": 124
    },
    {
      "midi": 60,
      "hit": false,
      "t": 25909.064999999977,
      "d": 227.27249999999913,
      "v": 109
    },
    {
      "midi": 55,
      "hit": false,
      "t": 28636.334999999977,
      "d": 113.63624999999956,
      "v": 104
    },
    {
      "midi": 60,
      "hit": false,
      "t": 28636.334999999977,
      "d": 113.63624999999956,
      "v": 98
    },
    {
      "midi": 55,
      "hit": false,
      "t": 29090.879999999976,
      "d": 1022.7262499999997,
      "v": 104
    },
    {
      "midi": 60,
      "hit": false,
      "t": 29090.879999999976,
      "d": 1022.7262499999997,
      "v": 104
    },
    {
      "midi": 55,
      "hit": false,
      "t": 30227.242499999975,
      "d": 113.63624999999956,
      "v": 91
    },
    {
      "midi": 60,
      "hit": false,
      "t": 30227.242499999975,
      "d": 113.63624999999956,
      "v": 91
    },
    {
      "midi": 55,
      "hit": false,
      "t": 31136.332499999975,
      "d": 113.63624999999956,
      "v": 120
    },
    {
      "midi": 60,
      "hit": false,
      "t": 31136.332499999975,
      "d": 113.63624999999956,
      "v": 109
    },
    {
      "midi": 55,
      "hit": false,
      "t": 32045.422499999975,
      "d": 454.54499999999825,
      "v": 109
    },
    {
      "midi": 60,
      "hit": false,
      "t": 32045.422499999975,
      "d": 454.54499999999825,
      "v": 104
    },
    {
      "midi": 55,
      "hit": false,
      "t": 32499.967499999973,
      "d": 113.63624999999956,
      "v": 85
    },
    {
      "midi": 60,
      "hit": false,
      "t": 32499.967499999973,
      "d": 113.63624999999956,
      "v": 88
    },
    {
      "midi": 55,
      "hit": false,
      "t": 32727.239999999972,
      "d": 113.63624999999956,
      "v": 88
    },
    {
      "midi": 60,
      "hit": false,
      "t": 32727.239999999972,
      "d": 113.63624999999956,
      "v": 85
    },
    {
      "midi": 55,
      "hit": false,
      "t": 32954.512499999975,
      "d": 113.6362500000032,
      "v": 95
    },
    {
      "midi": 60,
      "hit": false,
      "t": 32954.512499999975,
      "d": 113.6362500000032,
      "v": 82
    },
    {
      "midi": 55,
      "hit": false,
      "t": 33409.05749999998,
      "d": 113.6362500000032,
      "v": 88
    },
    {
      "midi": 60,
      "hit": false,
      "t": 33409.05749999998,
      "d": 113.6362500000032,
      "v": 85
    },
    {
      "midi": 55,
      "hit": false,
      "t": 33636.32999999999,
      "d": 113.6362500000032,
      "v": 91
    },
    {
      "midi": 60,
      "hit": false,
      "t": 33636.32999999999,
      "d": 113.6362500000032,
      "v": 88
    },
    {
      "midi": 55,
      "hit": false,
      "t": 33863.60249999999,
      "d": 113.6362500000032,
      "v": 104
    },
    {
      "midi": 60,
      "hit": false,
      "t": 33863.60249999999,
      "d": 113.6362500000032,
      "v": 95
    },
    {
      "midi": 55,
      "hit": false,
      "t": 34545.42,
      "d": 340.9087500000023,
      "v": 114
    },
    {
      "midi": 60,
      "hit": false,
      "t": 34772.6925,
      "d": 340.9087500000096,
      "v": 109
    },
    {
      "midi": 55,
      "hit": false,
      "t": 34999.965000000004,
      "d": 113.6362500000032,
      "v": 100
    },
    {
      "midi": 54,
      "hit": false,
      "t": 35227.23750000001,
      "d": 1022.7262499999997,
      "v": 103
    },
    {
      "midi": 60,
      "hit": false,
      "t": 35681.78250000001,
      "d": 568.1812500000015,
      "v": 109
    },
    {
      "midi": 55,
      "hit": false,
      "t": 36363.60000000001,
      "d": 113.6362500000032,
      "v": 85
    },
    {
      "midi": 60,
      "hit": false,
      "t": 36363.60000000001,
      "d": 113.6362500000032,
      "v": 98
    },
    {
      "midi": 55,
      "hit": false,
      "t": 36590.87250000002,
      "d": 113.6362500000032,
      "v": 78
    },
    {
      "midi": 60,
      "hit": false,
      "t": 36590.87250000002,
      "d": 113.6362500000032,
      "v": 91
    },
    {
      "midi": 58,
      "hit": false,
      "t": 36818.145000000026,
      "d": 113.6362500000032,
      "v": 88
    },
    {
      "midi": 62,
      "hit": false,
      "t": 36818.145000000026,
      "d": 113.6362500000032,
      "v": 95
    },
    {
      "midi": 55,
      "hit": false,
      "t": 37272.69000000003,
      "d": 227.27249999999913,
      "v": 85
    },
    {
      "midi": 60,
      "hit": false,
      "t": 37272.69000000003,
      "d": 227.27249999999913,
      "v": 95
    },
    {
      "midi": 57,
      "hit": false,
      "t": 38636.32500000003,
      "d": 113.6362500000032,
      "v": 114
    },
    {
      "midi": 60,
      "hit": false,
      "t": 38636.32500000003,
      "d": 113.6362500000032,
      "v": 114
    },
    {
      "midi": 62,
      "hit": false,
      "t": 38636.32500000003,
      "d": 113.6362500000032,
      "v": 95
    },
    {
      "midi": 57,
      "hit": false,
      "t": 38863.59750000004,
      "d": 113.6362500000032,
      "v": 109
    },
    {
      "midi": 60,
      "hit": false,
      "t": 38863.59750000004,
      "d": 113.6362500000032,
      "v": 104
    },
    {
      "midi": 62,
      "hit": false,
      "t": 38863.59750000004,
      "d": 113.6362500000032,
      "v": 91
    },
    {
      "midi": 57,
      "hit": false,
      "t": 39090.870000000046,
      "d": 113.6362500000032,
      "v": 120
    },
    {
      "midi": 60,
      "hit": false,
      "t": 39090.870000000046,
      "d": 113.6362500000032,
      "v": 120
    },
    {
      "midi": 62,
      "hit": false,
      "t": 39090.870000000046,
      "d": 113.6362500000032,
      "v": 114
    },
    {
      "midi": 60,
      "hit": false,
      "t": 39999.96000000005,
      "d": 227.27249999999913,
      "v": 110
    },
    {
      "midi": 62,
      "hit": false,
      "t": 39999.96000000005,
      "d": 227.27249999999913,
      "v": 110
    },
    {
      "midi": 60,
      "hit": false,
      "t": 40454.50500000005,
      "d": 227.27249999999913,
      "v": 110
    },
    {
      "midi": 62,
      "hit": false,
      "t": 40454.50500000005,
      "d": 227.27249999999913,
      "v": 110
    },
    {
      "midi": 60,
      "hit": false,
      "t": 44090.86500000005,
      "d": 227.27249999999913,
      "v": 110
    },
    {
      "midi": 62,
      "hit": false,
      "t": 44090.86500000005,
      "d": 227.27249999999913,
      "v": 110
    },
    {
      "midi": 60,
      "hit": false,
      "t": 47727.22500000005,
      "d": 227.27249999999913,
      "v": 110
    },
    {
      "midi": 62,
      "hit": false,
      "t": 47727.22500000005,
      "d": 227.27249999999913,
      "v": 110
    },
    {
      "midi": 60,
      "hit": false,
      "t": 54545.40000000005,
      "d": 227.27249999999913,
      "v": 110
    },
    {
      "midi": 62,
      "hit": false,
      "t": 54545.40000000005,
      "d": 227.27249999999913,
      "v": 110
    },
    {
      "midi": 60,
      "hit": false,
      "t": 54999.94500000005,
      "d": 227.27249999999913,
      "v": 110
    },
    {
      "midi": 62,
      "hit": false,
      "t": 54999.94500000005,
      "d": 227.27249999999913,
      "v": 110
    },
    {
      "midi": 60,
      "hit": false,
      "t": 58636.30500000005,
      "d": 227.27249999999913,
      "v": 110
    },
    {
      "midi": 62,
      "hit": false,
      "t": 58636.30500000005,
      "d": 227.27249999999913,
      "v": 110
    },
    {
      "midi": 60,
      "hit": false,
      "t": 62272.66500000005,
      "d": 227.27249999999913,
      "v": 110
    },
    {
      "midi": 62,
      "hit": false,
      "t": 62272.66500000005,
      "d": 227.27249999999913,
      "v": 110
    },
    {
      "midi": 58,
      "hit": false,
      "t": 69090.84000000005,
      "d": 3636.360000000248,
      "v": 114
    },
    {
      "midi": 62,
      "hit": false,
      "t": 69090.84000000005,
      "d": 3636.360000000248,
      "v": 120
    },
    {
      "midi": 67,
      "hit": false,
      "t": 69090.84000000005,
      "d": 3655.2993750002497,
      "v": 114
    },
    {
      "midi": 58,
      "hit": false,
      "t": 76363.5600000003,
      "d": 3636.360000000248,
      "v": 114
    },
    {
      "midi": 62,
      "hit": false,
      "t": 76363.5600000003,
      "d": 3636.360000000248,
      "v": 120
    },
    {
      "midi": 67,
      "hit": false,
      "t": 76363.5600000003,
      "d": 3655.2993750002497,
      "v": 114
    },
    {
      "midi": 58,
      "hit": false,
      "t": 83636.28000000055,
      "d": 3636.360000000248,
      "v": 114
    },
    {
      "midi": 62,
      "hit": false,
      "t": 83636.28000000055,
      "d": 3636.360000000248,
      "v": 120
    },
    {
      "midi": 67,
      "hit": false,
      "t": 83636.28000000055,
      "d": 3655.2993750002497,
      "v": 114
    },
    {
      "midi": 58,
      "hit": false,
      "t": 90909.0000000008,
      "d": 3636.360000000248,
      "v": 114
    },
    {
      "midi": 62,
      "hit": false,
      "t": 90909.0000000008,
      "d": 3636.360000000248,
      "v": 120
    },
    {
      "midi": 67,
      "hit": false,
      "t": 90909.0000000008,
      "d": 3655.2993750002497,
      "v": 114
    },
    {
      "midi": 60,
      "hit": false,
      "t": 98181.72000000105,
      "d": 227.2725000000064,
      "v": 110
    },
    {
      "midi": 62,
      "hit": false,
      "t": 98181.72000000105,
      "d": 227.2725000000064,
      "v": 110
    },
    {
      "midi": 60,
      "hit": false,
      "t": 98636.26500000106,
      "d": 227.2725000000064,
      "v": 110
    },
    {
      "midi": 62,
      "hit": false,
      "t": 98636.26500000106,
      "d": 227.2725000000064,
      "v": 110
    },
    {
      "midi": 60,
      "hit": false,
      "t": 102272.62500000106,
      "d": 227.2725000000064,
      "v": 110
    },
    {
      "midi": 62,
      "hit": false,
      "t": 102272.62500000106,
      "d": 227.2725000000064,
      "v": 110
    },
    {
      "midi": 60,
      "hit": false,
      "t": 105908.98500000106,
      "d": 227.2725000000064,
      "v": 110
    },
    {
      "midi": 62,
      "hit": false,
      "t": 105908.98500000106,
      "d": 227.2725000000064,
      "v": 110
    },
    {
      "midi": 60,
      "hit": false,
      "t": 112727.16000000107,
      "d": 227.2725000000064,
      "v": 110
    },
    {
      "midi": 62,
      "hit": false,
      "t": 112727.16000000107,
      "d": 227.2725000000064,
      "v": 110
    },
    {
      "midi": 60,
      "hit": false,
      "t": 113181.70500000108,
      "d": 227.2725000000064,
      "v": 110
    },
    {
      "midi": 62,
      "hit": false,
      "t": 113181.70500000108,
      "d": 227.2725000000064,
      "v": 110
    },
    {
      "midi": 60,
      "hit": false,
      "t": 116818.06500000108,
      "d": 227.2725000000064,
      "v": 110
    },
    {
      "midi": 62,
      "hit": false,
      "t": 116818.06500000108,
      "d": 227.2725000000064,
      "v": 110
    },
    {
      "midi": 60,
      "hit": false,
      "t": 120454.42500000108,
      "d": 227.2725000000064,
      "v": 110
    },
    {
      "midi": 62,
      "hit": false,
      "t": 120454.42500000108,
      "d": 227.2725000000064,
      "v": 110
    },
    {
      "midi": 65,
      "hit": false,
      "t": 126818.05500000108,
      "d": 227.2725000000064,
      "v": 114
    },
    {
      "midi": 62,
      "hit": false,
      "t": 127045.32750000109,
      "d": 227.2725000000064,
      "v": 95
    },
    {
      "midi": 68,
      "hit": false,
      "t": 127272.6000000011,
      "d": 227.2725000000064,
      "v": 114
    },
    {
      "midi": 60,
      "hit": false,
      "t": 127727.14500000111,
      "d": 227.2725000000064,
      "v": 109
    },
    {
      "midi": 61,
      "hit": false,
      "t": 127727.14500000111,
      "d": 227.2725000000064,
      "v": 114
    },
    {
      "midi": 65,
      "hit": false,
      "t": 127727.14500000111,
      "d": 227.2725000000064,
      "v": 109
    },
    {
      "midi": 65,
      "hit": false,
      "t": 128181.69000000112,
      "d": 227.2725000000064,
      "v": 124
    },
    {
      "midi": 60,
      "hit": false,
      "t": 128408.96250000113,
      "d": 227.2725000000064,
      "v": 109
    },
    {
      "midi": 61,
      "hit": false,
      "t": 128408.96250000113,
      "d": 227.2725000000064,
      "v": 84
    },
    {
      "midi": 65,
      "hit": false,
      "t": 128408.96250000113,
      "d": 227.2725000000064,
      "v": 109
    },
    {
      "midi": 60,
      "hit": false,
      "t": 128863.50750000114,
      "d": 227.2725000000064,
      "v": 115
    },
    {
      "midi": 61,
      "hit": false,
      "t": 128863.50750000114,
      "d": 227.2725000000064,
      "v": 89
    },
    {
      "midi": 65,
      "hit": false,
      "t": 128863.50750000114,
      "d": 227.2725000000064,
      "v": 114
    },
    {
      "midi": 65,
      "hit": false,
      "t": 129318.05250000115,
      "d": 227.2725000000064,
      "v": 124
    },
    {
      "midi": 60,
      "hit": false,
      "t": 129772.59750000117,
      "d": 227.2725000000064,
      "v": 126
    },
    {
      "midi": 61,
      "hit": false,
      "t": 129772.59750000117,
      "d": 227.2725000000064,
      "v": 90
    },
    {
      "midi": 65,
      "hit": false,
      "t": 129772.59750000117,
      "d": 227.2725000000064,
      "v": 104
    },
    {
      "midi": 65,
      "hit": false,
      "t": 130227.14250000118,
      "d": 227.2725000000064,
      "v": 124
    },
    {
      "midi": 80,
      "hit": false,
      "t": 130695.89203125119,
      "d": 46.164726562506985,
      "v": 124
    },
    {
      "midi": 74,
      "hit": false,
      "t": 130695.89203125119,
      "d": 239.1096093750093,
      "v": 95
    },
    {
      "midi": 81,
      "hit": false,
      "t": 130749.1590234387,
      "d": 230.82363281250582,
      "v": 95
    },
    {
      "midi": 84,
      "hit": false,
      "t": 131109.00714843872,
      "d": 79.30863281249185,
      "v": 95
    },
    {
      "midi": 68,
      "hit": false,
      "t": 131348.1167578137,
      "d": 44.98101562500233,
      "v": 127
    },
    {
      "midi": 69,
      "hit": false,
      "t": 131393.0977734387,
      "d": 242.66074218749418,
      "v": 120
    },
    {
      "midi": 72,
      "hit": false,
      "t": 131818.05000000118,
      "d": 227.27249999999185,
      "v": 120
    },
    {
      "midi": 77,
      "hit": false,
      "t": 132045.32250000117,
      "d": 113.63625000001048,
      "v": 120
    },
    {
      "midi": 76,
      "hit": false,
      "t": 132272.5950000012,
      "d": 113.63625000001048,
      "v": 114
    },
    {
      "midi": 72,
      "hit": false,
      "t": 132499.86750000122,
      "d": 454.5449999999837,
      "v": 114
    },
    {
      "midi": 75,
      "hit": false,
      "t": 132499.86750000122,
      "d": 454.5449999999837,
      "v": 124
    },
    {
      "midi": 77,
      "hit": false,
      "t": 132942.5753906262,
      "d": 144.41273437498603,
      "v": 95
    },
    {
      "midi": 73,
      "hit": false,
      "t": 133162.7456250012,
      "d": 41.42988281248836,
      "v": 104
    },
    {
      "midi": 74,
      "hit": false,
      "t": 133207.7266406262,
      "d": 139.6778906249965,
      "v": 95
    },
    {
      "midi": 63,
      "hit": false,
      "t": 133393.5692578137,
      "d": 469.93324218748603,
      "v": 114
    },
    {
      "midi": 73,
      "hit": false,
      "t": 133609.0046484387,
      "d": 46.16472656247788,
      "v": 124
    },
    {
      "midi": 65,
      "hit": false,
      "t": 133636.2300000012,
      "d": 227.27249999999185,
      "v": 114
    },
    {
      "midi": 74,
      "hit": false,
      "t": 133655.1693750012,
      "d": 162.16839843749767,
      "v": 109
    },
    {
      "midi": 77,
      "hit": false,
      "t": 133863.5025000012,
      "d": 227.27249999999185,
      "v": 82
    },
    {
      "midi": 63,
      "hit": false,
      "t": 134090.7750000012,
      "d": 227.27249999999185,
      "v": 95
    },
    {
      "midi": 69,
      "hit": false,
      "t": 134090.7750000012,
      "d": 227.27249999999185,
      "v": 95
    },
    {
      "midi": 79,
      "hit": false,
      "t": 134090.7750000012,
      "d": 227.27249999999185,
      "v": 98
    },
    {
      "midi": 73,
      "hit": false,
      "t": 134347.64027343868,
      "d": 60.36925781250466,
      "v": 114
    },
    {
      "midi": 74,
      "hit": false,
      "t": 134393.8050000012,
      "d": 378.7874999999767,
      "v": 98
    },
    {
      "midi": 65,
      "hit": false,
      "t": 134545.32000000117,
      "d": 227.27249999999185,
      "v": 109
    },
    {
      "midi": 62,
      "hit": false,
      "t": 134772.59250000116,
      "d": 227.27249999999185,
      "v": 95
    },
    {
      "midi": 79,
      "hit": false,
      "t": 134772.59250000116,
      "d": 227.27249999999185,
      "v": 98
    },
    {
      "midi": 77,
      "hit": false,
      "t": 134999.86500000115,
      "d": 227.27249999999185,
      "v": 104
    },
    {
      "midi": 62,
      "hit": false,
      "t": 135227.13750000115,
      "d": 227.27249999999185,
      "v": 109
    },
    {
      "midi": 79,
      "hit": false,
      "t": 135227.13750000115,
      "d": 227.27249999999185,
      "v": 109
    },
    {
      "midi": 70,
      "hit": false,
      "t": 135681.68250000113,
      "d": 227.27249999999185,
      "v": 87
    },
    {
      "midi": 73,
      "hit": false,
      "t": 135681.68250000113,
      "d": 227.27249999999185,
      "v": 87
    },
    {
      "midi": 79,
      "hit": false,
      "t": 135681.68250000113,
      "d": 227.27249999999185,
      "v": 98
    },
    {
      "midi": 77,
      "hit": false,
      "t": 135908.95500000112,
      "d": 113.63625000001048,
      "v": 109
    },
    {
      "midi": 80,
      "hit": false,
      "t": 136105.45101562614,
      "d": 113.63625000001048,
      "v": 76
    },
    {
      "midi": 69,
      "hit": false,
      "t": 136136.22750000114,
      "d": 227.27249999999185,
      "v": 83
    },
    {
      "midi": 72,
      "hit": false,
      "t": 136136.22750000114,
      "d": 227.27249999999185,
      "v": 83
    },
    {
      "midi": 77,
      "hit": false,
      "t": 136136.22750000114,
      "d": 227.27249999999185,
      "v": 65
    },
    {
      "midi": 81,
      "hit": false,
      "t": 136136.22750000114,
      "d": 227.27249999999185,
      "v": 72
    },
    {
      "midi": 86,
      "hit": false,
      "t": 136136.22750000114,
      "d": 227.27249999999185,
      "v": 90
    },
    {
      "midi": 60,
      "hit": false,
      "t": 136590.77250000113,
      "d": 227.27249999999185,
      "v": 95
    },
    {
      "midi": 61,
      "hit": false,
      "t": 136590.77250000113,
      "d": 227.27249999999185,
      "v": 109
    },
    {
      "midi": 65,
      "hit": false,
      "t": 136590.77250000113,
      "d": 227.27249999999185,
      "v": 114
    },
    {
      "midi": 80,
      "hit": false,
      "t": 136802.65675781362,
      "d": 113.63625000001048,
      "v": 87
    },
    {
      "midi": 77,
      "hit": false,
      "t": 136818.04500000112,
      "d": 227.27250000002095,
      "v": 65
    },
    {
      "midi": 81,
      "hit": false,
      "t": 136818.04500000112,
      "d": 227.27250000002095,
      "v": 72
    },
    {
      "midi": 86,
      "hit": false,
      "t": 136818.04500000112,
      "d": 227.27250000002095,
      "v": 90
    },
    {
      "midi": 60,
      "hit": false,
      "t": 137045.31750000114,
      "d": 227.27250000002095,
      "v": 95
    },
    {
      "midi": 61,
      "hit": false,
      "t": 137045.31750000114,
      "d": 227.27250000002095,
      "v": 78
    },
    {
      "midi": 65,
      "hit": false,
      "t": 137045.31750000114,
      "d": 227.27250000002095,
      "v": 119
    },
    {
      "midi": 80,
      "hit": false,
      "t": 137226.42527343865,
      "d": 113.63625000001048,
      "v": 91
    },
    {
      "midi": 77,
      "hit": false,
      "t": 137272.59000000116,
      "d": 227.27249999999185,
      "v": 68
    },
    {
      "midi": 81,
      "hit": false,
      "t": 137272.59000000116,
      "d": 227.27249999999185,
      "v": 72
    },
    {
      "midi": 86,
      "hit": false,
      "t": 137272.59000000116,
      "d": 227.27249999999185,
      "v": 90
    },
    {
      "midi": 77,
      "hit": false,
      "t": 137522.35300781365,
      "d": 204.7819921874907,
      "v": 120
    },
    {
      "midi": 72,
      "hit": false,
      "t": 137708.19562500116,
      "d": 60.36925781250466,
      "v": 109
    },
    {
      "midi": 73,
      "hit": false,
      "t": 137746.07437500113,
      "d": 14.204531250026776,
      "v": 127
    },
    {
      "midi": 74,
      "hit": false,
      "t": 137756.72777343864,
      "d": 144.41273437501513,
      "v": 120
    },
    {
      "midi": 77,
      "hit": false,
      "t": 137927.18214843865,
      "d": 235.55847656249534,
      "v": 114
    },
    {
      "midi": 57,
      "hit": false,
      "t": 138181.68000000113,
      "d": 681.8175000000047,
      "v": 101
    },
    {
      "midi": 58,
      "hit": false,
      "t": 138181.68000000113,
      "d": 681.8175000000047,
      "v": 101
    },
    {
      "midi": 62,
      "hit": false,
      "t": 138181.68000000113,
      "d": 681.8175000000047,
      "v": 101
    },
    {
      "midi": 72,
      "hit": false,
      "t": 138408.95250000112,
      "d": 113.63625000001048,
      "v": 95
    },
    {
      "midi": 80,
      "hit": false,
      "t": 138636.22500000114,
      "d": 227.27249999999185,
      "v": 109
    },
    {
      "midi": 81,
      "hit": false,
      "t": 138863.49750000113,
      "d": 113.63625000001048,
      "v": 88
    },
    {
      "midi": 76,
      "hit": false,
      "t": 139090.77000000115,
      "d": 227.27249999999185,
      "v": 120
    },
    {
      "midi": 77,
      "hit": false,
      "t": 139090.77000000115,
      "d": 227.27249999999185,
      "v": 95
    },
    {
      "midi": 55,
      "hit": false,
      "t": 139090.77000000115,
      "d": 568.1812500000233,
      "v": 117
    },
    {
      "midi": 57,
      "hit": false,
      "t": 139090.77000000115,
      "d": 568.1812500000233,
      "v": 94
    },
    {
      "midi": 58,
      "hit": false,
      "t": 139090.77000000115,
      "d": 568.1812500000233,
      "v": 94
    },
    {
      "midi": 62,
      "hit": false,
      "t": 139090.77000000115,
      "d": 568.1812500000233,
      "v": 94
    },
    {
      "midi": 72,
      "hit": false,
      "t": 139318.04250000115,
      "d": 113.63625000001048,
      "v": 95
    },
    {
      "midi": 70,
      "hit": false,
      "t": 139545.31500000117,
      "d": 113.63625000001048,
      "v": 127
    },
    {
      "midi": 77,
      "hit": false,
      "t": 139545.31500000117,
      "d": 113.63625000001048,
      "v": 109
    },
    {
      "midi": 57,
      "hit": false,
      "t": 139772.5875000012,
      "d": 227.27249999999185,
      "v": 103
    },
    {
      "midi": 58,
      "hit": false,
      "t": 139772.5875000012,
      "d": 227.27249999999185,
      "v": 103
    },
    {
      "midi": 62,
      "hit": false,
      "t": 139772.5875000012,
      "d": 227.27249999999185,
      "v": 103
    },
    {
      "midi": 68,
      "hit": false,
      "t": 139772.5875000012,
      "d": 340.9087500000023,
      "v": 114
    },
    {
      "midi": 77,
      "hit": false,
      "t": 139772.5875000012,
      "d": 454.5450000000128,
      "v": 109
    },
    {
      "midi": 69,
      "hit": false,
      "t": 140113.4962500012,
      "d": 113.63625000001048,
      "v": 109
    },
    {
      "midi": 65,
      "hit": false,
      "t": 140227.1325000012,
      "d": 113.63625000001048,
      "v": 88
    },
    {
      "midi": 62,
      "hit": false,
      "t": 140340.7687500012,
      "d": 113.63625000001048,
      "v": 80
    },
    {
      "midi": 60,
      "hit": false,
      "t": 140454.40500000122,
      "d": 227.27249999999185,
      "v": 104
    },
    {
      "midi": 62,
      "hit": false,
      "t": 140681.6775000012,
      "d": 113.63625000001048,
      "v": 93
    },
    {
      "midi": 65,
      "hit": false,
      "t": 140681.6775000012,
      "d": 113.63625000001048,
      "v": 114
    },
    {
      "midi": 62,
      "hit": false,
      "t": 140908.95000000123,
      "d": 227.27249999999185,
      "v": 98
    },
    {
      "midi": 65,
      "hit": false,
      "t": 140908.95000000123,
      "d": 227.27249999999185,
      "v": 114
    },
    {
      "midi": 70,
      "hit": false,
      "t": 141818.04000000123,
      "d": 3636.359999999375,
      "v": 114
    },
    {
      "midi": 74,
      "hit": false,
      "t": 141818.04000000123,
      "d": 3636.359999999375,
      "v": 120
    },
    {
      "midi": 67,
      "hit": false,
      "t": 141818.04000000123,
      "d": 3655.299374999362,
      "v": 114
    },
    {
      "midi": 70,
      "hit": false,
      "t": 149090.7600000006,
      "d": 3636.359999999375,
      "v": 114
    },
    {
      "midi": 74,
      "hit": false,
      "t": 149090.7600000006,
      "d": 3636.359999999375,
      "v": 120
    },
    {
      "midi": 67,
      "hit": false,
      "t": 149090.7600000006,
      "d": 3655.299374999362,
      "v": 114
    },
    {
      "midi": 60,
      "hit": false,
      "t": 156363.47999999995,
      "d": 227.27249999999185,
      "v": 110
    },
    {
      "midi": 62,
      "hit": false,
      "t": 156363.47999999995,
      "d": 227.27249999999185,
      "v": 110
    },
    {
      "midi": 60,
      "hit": false,
      "t": 156818.02499999994,
      "d": 227.27249999999185,
      "v": 110
    },
    {
      "midi": 62,
      "hit": false,
      "t": 156818.02499999994,
      "d": 227.27249999999185,
      "v": 110
    },
    {
      "midi": 60,
      "hit": false,
      "t": 160454.38499999992,
      "d": 227.27249999999185,
      "v": 110
    },
    {
      "midi": 62,
      "hit": false,
      "t": 160454.38499999992,
      "d": 227.27249999999185,
      "v": 110
    },
    {
      "midi": 60,
      "hit": false,
      "t": 164090.7449999999,
      "d": 227.27249999999185,
      "v": 110
    },
    {
      "midi": 62,
      "hit": false,
      "t": 164090.7449999999,
      "d": 227.27249999999185,
      "v": 110
    },
    {
      "midi": 60,
      "hit": false,
      "t": 170908.9199999999,
      "d": 227.27249999999185,
      "v": 110
    },
    {
      "midi": 62,
      "hit": false,
      "t": 170908.9199999999,
      "d": 227.27249999999185,
      "v": 110
    },
    {
      "midi": 60,
      "hit": false,
      "t": 171363.46499999988,
      "d": 227.27249999999185,
      "v": 110
    },
    {
      "midi": 62,
      "hit": false,
      "t": 171363.46499999988,
      "d": 227.27249999999185,
      "v": 110
    },
    {
      "midi": 60,
      "hit": false,
      "t": 174999.82499999987,
      "d": 227.27249999999185,
      "v": 110
    },
    {
      "midi": 62,
      "hit": false,
      "t": 174999.82499999987,
      "d": 227.27249999999185,
      "v": 110
    },
    {
      "midi": 60,
      "hit": false,
      "t": 178636.18499999985,
      "d": 227.27249999999185,
      "v": 110
    },
    {
      "midi": 62,
      "hit": false,
      "t": 178636.18499999985,
      "d": 227.27249999999185,
      "v": 110
    },
    {
      "midi": 50,
      "hit": false,
      "t": 181817.99999999985,
      "d": 909.0899999999965,
      "v": 97
    },
    {
      "midi": 55,
      "hit": false,
      "t": 181817.99999999985,
      "d": 909.0899999999965,
      "v": 97
    },
    {
      "midi": 58,
      "hit": false,
      "t": 181817.99999999985,
      "d": 909.0899999999965,
      "v": 97
    },
    {
      "midi": 48,
      "hit": false,
      "t": 182727.08999999985,
      "d": 909.0899999999965,
      "v": 75
    },
    {
      "midi": 52,
      "hit": false,
      "t": 182727.08999999985,
      "d": 909.0899999999965,
      "v": 94
    },
    {
      "midi": 55,
      "hit": false,
      "t": 182727.08999999985,
      "d": 909.0899999999965,
      "v": 94
    },
    {
      "midi": 60,
      "hit": false,
      "t": 182727.08999999985,
      "d": 909.0899999999965,
      "v": 97
    }
  ]
}