{
  "jsonPath": "Jazz/Jazz Funk/Pat Metheny Group/last-train-home.json",
  "path": "Jazz\\Jazz Funk\\Pat Metheny Group\\Last Train Home.mid",
  "name": "Last Train Home",
  "difficulty": "Advanced",
  "bpm": 159.0002067002687,
  "notes": [
    {
      "midi": 34,
      "hit": false,
      "t": 4825,
      "d": 16793.75,
      "v": 77
    },
    {
      "midi": 46,
      "hit": false,
      "t": 4825,
      "d": 16793.75,
      "v": 77
    },
    {
      "midi": 58,
      "hit": false,
      "t": 4825,
      "d": 16793.75,
      "v": 77
    },
    {
      "midi": 53,
      "hit": false,
      "t": 21631.25,
      "d": 2387.5,
      "v": 79
    },
    {
      "midi": 58,
      "hit": false,
      "t": 21631.25,
      "d": 2387.5,
      "v": 73
    },
    {
      "midi": 62,
      "hit": false,
      "t": 21631.25,
      "d": 2387.5,
      "v": 77
    },
    {
      "midi": 52,
      "hit": false,
      "t": 24025,
      "d": 2393.75,
      "v": 79
    },
    {
      "midi": 55,
      "hit": false,
      "t": 24025,
      "d": 2393.75,
      "v": 90
    },
    {
      "midi": 60,
      "hit": false,
      "t": 24025,
      "d": 2393.75,
      "v": 76
    },
    {
      "midi": 51,
      "hit": false,
      "t": 26425,
      "d": 2393.75,
      "v": 90
    },
    {
      "midi": 56,
      "hit": false,
      "t": 26425,
      "d": 2393.75,
      "v": 90
    },
    {
      "midi": 60,
      "hit": false,
      "t": 26425,
      "d": 2393.75,
      "v": 83
    },
    {
      "midi": 46,
      "hit": false,
      "t": 28825,
      "d": 2093.75,
      "v": 80
    },
    {
      "midi": 34,
      "hit": false,
      "t": 28825,
      "d": 2100,
      "v": 70
    },
    {
      "midi": 53,
      "hit": false,
      "t": 28825,
      "d": 4793.75,
      "v": 79
    },
    {
      "midi": 58,
      "hit": false,
      "t": 28825,
      "d": 4793.75,
      "v": 82
    },
    {
      "midi": 62,
      "hit": false,
      "t": 28825,
      "d": 4793.75,
      "v": 79
    },
    {
      "midi": 34,
      "hit": false,
      "t": 31225,
      "d": 1493.75,
      "v": 73
    },
    {
      "midi": 46,
      "hit": false,
      "t": 31225,
      "d": 2393.75,
      "v": 72
    },
    {
      "midi": 34,
      "hit": false,
      "t": 32725,
      "d": 893.75,
      "v": 74
    },
    {
      "midi": 53,
      "hit": false,
      "t": 33625,
      "d": 1193.75,
      "v": 83
    },
    {
      "midi": 57,
      "hit": false,
      "t": 33625,
      "d": 1193.75,
      "v": 82
    },
    {
      "midi": 62,
      "hit": false,
      "t": 33625,
      "d": 1193.75,
      "v": 87
    },
    {
      "midi": 53,
      "hit": false,
      "t": 34825,
      "d": 1193.75,
      "v": 77
    },
    {
      "midi": 57,
      "hit": false,
      "t": 34825,
      "d": 1193.75,
      "v": 87
    },
    {
      "midi": 60,
      "hit": false,
      "t": 34825,
      "d": 1193.75,
      "v": 90
    },
    {
      "midi": 53,
      "hit": false,
      "t": 36025,
      "d": 2393.75,
      "v": 87
    },
    {
      "midi": 58,
      "hit": false,
      "t": 36025,
      "d": 2393.75,
      "v": 88
    },
    {
      "midi": 62,
      "hit": false,
      "t": 36025,
      "d": 2393.75,
      "v": 84
    },
    {
      "midi": 53,
      "hit": false,
      "t": 38425,
      "d": 2393.75,
      "v": 81
    },
    {
      "midi": 55,
      "hit": false,
      "t": 38425,
      "d": 2393.75,
      "v": 88
    },
    {
      "midi": 58,
      "hit": false,
      "t": 38425,
      "d": 2393.75,
      "v": 90
    },
    {
      "midi": 53,
      "hit": false,
      "t": 40825,
      "d": 2393.75,
      "v": 82
    },
    {
      "midi": 58,
      "hit": false,
      "t": 40825,
      "d": 2393.75,
      "v": 90
    },
    {
      "midi": 60,
      "hit": false,
      "t": 40825,
      "d": 2393.75,
      "v": 88
    },
    {
      "midi": 53,
      "hit": false,
      "t": 43225,
      "d": 2393.75,
      "v": 64
    },
    {
      "midi": 58,
      "hit": false,
      "t": 43225,
      "d": 2393.75,
      "v": 64
    },
    {
      "midi": 60,
      "hit": false,
      "t": 43225,
      "d": 2393.75,
      "v": 64
    },
    {
      "midi": 41,
      "hit": false,
      "t": 45625,
      "d": 2393.75,
      "v": 72
    },
    {
      "midi": 53,
      "hit": false,
      "t": 45625,
      "d": 2393.75,
      "v": 72
    },
    {
      "midi": 57,
      "hit": false,
      "t": 45625,
      "d": 2393.75,
      "v": 72
    },
    {
      "midi": 60,
      "hit": false,
      "t": 45625,
      "d": 2393.75,
      "v": 72
    },
    {
      "midi": 43,
      "hit": false,
      "t": 48025,
      "d": 2393.75,
      "v": 77
    },
    {
      "midi": 53,
      "hit": false,
      "t": 48025,
      "d": 2393.75,
      "v": 81
    },
    {
      "midi": 58,
      "hit": false,
      "t": 48025,
      "d": 2393.75,
      "v": 82
    },
    {
      "midi": 62,
      "hit": false,
      "t": 48025,
      "d": 2393.75,
      "v": 73
    },
    {
      "midi": 42,
      "hit": false,
      "t": 50425,
      "d": 1193.75,
      "v": 87
    },
    {
      "midi": 54,
      "hit": false,
      "t": 50425,
      "d": 1193.75,
      "v": 81
    },
    {
      "midi": 57,
      "hit": false,
      "t": 50425,
      "d": 1193.75,
      "v": 90
    },
    {
      "midi": 62,
      "hit": false,
      "t": 50425,
      "d": 1193.75,
      "v": 82
    },
    {
      "midi": 42,
      "hit": false,
      "t": 51625,
      "d": 1193.75,
      "v": 79
    },
    {
      "midi": 57,
      "hit": false,
      "t": 51625,
      "d": 1193.75,
      "v": 88
    },
    {
      "midi": 60,
      "hit": false,
      "t": 51625,
      "d": 1193.75,
      "v": 87
    },
    {
      "midi": 66,
      "hit": false,
      "t": 51625,
      "d": 1193.75,
      "v": 90
    },
    {
      "midi": 41,
      "hit": false,
      "t": 52825,
      "d": 2393.75,
      "v": 79
    },
    {
      "midi": 53,
      "hit": false,
      "t": 52825,
      "d": 2393.75,
      "v": 76
    },
    {
      "midi": 58,
      "hit": false,
      "t": 52825,
      "d": 2393.75,
      "v": 79
    },
    {
      "midi": 62,
      "hit": false,
      "t": 52825,
      "d": 2393.75,
      "v": 69
    },
    {
      "midi": 65,
      "hit": false,
      "t": 52825,
      "d": 2393.75,
      "v": 78
    },
    {
      "midi": 55,
      "hit": false,
      "t": 55225,
      "d": 1193.75,
      "v": 84
    },
    {
      "midi": 58,
      "hit": false,
      "t": 55225,
      "d": 1193.75,
      "v": 84
    },
    {
      "midi": 62,
      "hit": false,
      "t": 55225,
      "d": 1193.75,
      "v": 84
    },
    {
      "midi": 63,
      "hit": false,
      "t": 55225,
      "d": 1193.75,
      "v": 84
    },
    {
      "midi": 67,
      "hit": false,
      "t": 55225,
      "d": 1193.75,
      "v": 89
    },
    {
      "midi": 55,
      "hit": false,
      "t": 57437.5,
      "d": 2131.25,
      "v": 77
    },
    {
      "midi": 58,
      "hit": false,
      "t": 57475,
      "d": 2068.75,
      "v": 60
    },
    {
      "midi": 62,
      "hit": false,
      "t": 57568.75,
      "d": 1981.25,
      "v": 74
    },
    {
      "midi": 65,
      "hit": false,
      "t": 57587.5,
      "d": 1975,
      "v": 70
    },
    {
      "midi": 67,
      "hit": false,
      "t": 57662.5,
      "d": 1887.5,
      "v": 60
    },
    {
      "midi": 70,
      "hit": false,
      "t": 57731.25,
      "d": 1818.75,
      "v": 75
    },
    {
      "midi": 53,
      "hit": false,
      "t": 60025,
      "d": 1193.75,
      "v": 82
    },
    {
      "midi": 57,
      "hit": false,
      "t": 60025,
      "d": 1193.75,
      "v": 79
    },
    {
      "midi": 62,
      "hit": false,
      "t": 60025,
      "d": 1193.75,
      "v": 84
    },
    {
      "midi": 53,
      "hit": false,
      "t": 61225,
      "d": 1193.75,
      "v": 82
    },
    {
      "midi": 57,
      "hit": false,
      "t": 61225,
      "d": 1193.75,
      "v": 87
    },
    {
      "midi": 60,
      "hit": false,
      "t": 61225,
      "d": 1193.75,
      "v": 90
    },
    {
      "midi": 53,
      "hit": false,
      "t": 62425,
      "d": 2393.75,
      "v": 81
    },
    {
      "midi": 58,
      "hit": false,
      "t": 62425,
      "d": 2393.75,
      "v": 82
    },
    {
      "midi": 62,
      "hit": false,
      "t": 62425,
      "d": 2393.75,
      "v": 84
    },
    {
      "midi": 53,
      "hit": false,
      "t": 64825,
      "d": 1193.75,
      "v": 74
    },
    {
      "midi": 57,
      "hit": false,
      "t": 64825,
      "d": 1193.75,
      "v": 81
    },
    {
      "midi": 62,
      "hit": false,
      "t": 64825,
      "d": 1193.75,
      "v": 78
    },
    {
      "midi": 53,
      "hit": false,
      "t": 66025,
      "d": 1193.75,
      "v": 79
    },
    {
      "midi": 57,
      "hit": false,
      "t": 66025,
      "d": 1193.75,
      "v": 90
    },
    {
      "midi": 60,
      "hit": false,
      "t": 66025,
      "d": 1193.75,
      "v": 82
    },
    {
      "midi": 62,
      "hit": false,
      "t": 67225,
      "d": 2393.75,
      "v": 77
    },
    {
      "midi": 53,
      "hit": false,
      "t": 67225,
      "d": 4193.75,
      "v": 74
    },
    {
      "midi": 58,
      "hit": false,
      "t": 67225,
      "d": 4193.75,
      "v": 83
    },
    {
      "midi": 62,
      "hit": false,
      "t": 69625,
      "d": 1793.75,
      "v": 73
    },
    {
      "midi": 67,
      "hit": false,
      "t": 69625,
      "d": 1793.75,
      "v": 73
    },
    {
      "midi": 62,
      "hit": false,
      "t": 71425,
      "d": 306.25,
      "v": 93
    },
    {
      "midi": 67,
      "hit": false,
      "t": 71425,
      "d": 306.25,
      "v": 95
    },
    {
      "midi": 60,
      "hit": false,
      "t": 72025,
      "d": 1193.75,
      "v": 100
    },
    {
      "midi": 65,
      "hit": false,
      "t": 72025,
      "d": 1193.75,
      "v": 101
    },
    {
      "midi": 57,
      "hit": false,
      "t": 73225,
      "d": 1193.75,
      "v": 99
    },
    {
      "midi": 62,
      "hit": false,
      "t": 73225,
      "d": 1193.75,
      "v": 95
    },
    {
      "midi": 60,
      "hit": false,
      "t": 74425,
      "d": 243.75,
      "v": 103
    },
    {
      "midi": 65,
      "hit": false,
      "t": 74425,
      "d": 243.75,
      "v": 101
    },
    {
      "midi": 60,
      "hit": false,
      "t": 75025,
      "d": 556.25,
      "v": 103
    },
    {
      "midi": 65,
      "hit": false,
      "t": 75025,
      "d": 556.25,
      "v": 101
    },
    {
      "midi": 57,
      "hit": false,
      "t": 75625,
      "d": 2993.75,
      "v": 94
    },
    {
      "midi": 62,
      "hit": false,
      "t": 75625,
      "d": 2993.75,
      "v": 82
    },
    {
      "midi": 62,
      "hit": false,
      "t": 78625,
      "d": 268.75,
      "v": 103
    },
    {
      "midi": 67,
      "hit": false,
      "t": 78625,
      "d": 268.75,
      "v": 103
    },
    {
      "midi": 60,
      "hit": false,
      "t": 79225,
      "d": 1193.75,
      "v": 91
    },
    {
      "midi": 65,
      "hit": false,
      "t": 79225,
      "d": 1193.75,
      "v": 91
    },
    {
      "midi": 57,
      "hit": false,
      "t": 80425,
      "d": 1193.75,
      "v": 91
    },
    {
      "midi": 62,
      "hit": false,
      "t": 80425,
      "d": 1193.75,
      "v": 86
    },
    {
      "midi": 53,
      "hit": false,
      "t": 81625,
      "d": 1793.75,
      "v": 68
    },
    {
      "midi": 58,
      "hit": false,
      "t": 81625,
      "d": 1793.75,
      "v": 90
    },
    {
      "midi": 62,
      "hit": false,
      "t": 81625,
      "d": 1793.75,
      "v": 80
    },
    {
      "midi": 46,
      "hit": false,
      "t": 81625,
      "d": 4793.75,
      "v": 74
    },
    {
      "midi": 65,
      "hit": false,
      "t": 82525,
      "d": 893.75,
      "v": 79
    },
    {
      "midi": 60,
      "hit": false,
      "t": 83425,
      "d": 2093.75,
      "v": 79
    },
    {
      "midi": 53,
      "hit": false,
      "t": 83425,
      "d": 2993.75,
      "v": 68
    },
    {
      "midi": 57,
      "hit": false,
      "t": 83425,
      "d": 2993.75,
      "v": 78
    },
    {
      "midi": 60,
      "hit": false,
      "t": 85525,
      "d": 893.75,
      "v": 67
    },
    {
      "midi": 65,
      "hit": false,
      "t": 85825,
      "d": 593.75,
      "v": 79
    },
    {
      "midi": 53,
      "hit": false,
      "t": 86425,
      "d": 1793.75,
      "v": 67
    },
    {
      "midi": 58,
      "hit": false,
      "t": 86425,
      "d": 1793.75,
      "v": 73
    },
    {
      "midi": 62,
      "hit": false,
      "t": 86425,
      "d": 1793.75,
      "v": 73
    },
    {
      "midi": 43,
      "hit": false,
      "t": 86425,
      "d": 4793.75,
      "v": 79
    },
    {
      "midi": 60,
      "hit": false,
      "t": 88225,
      "d": 2012.5,
      "v": 91
    },
    {
      "midi": 53,
      "hit": false,
      "t": 88225,
      "d": 2993.75,
      "v": 64
    },
    {
      "midi": 57,
      "hit": false,
      "t": 88225,
      "d": 2993.75,
      "v": 78
    },
    {
      "midi": 60,
      "hit": false,
      "t": 90325,
      "d": 893.75,
      "v": 60
    },
    {
      "midi": 65,
      "hit": false,
      "t": 90625,
      "d": 575,
      "v": 68
    },
    {
      "midi": 53,
      "hit": false,
      "t": 91225,
      "d": 1793.75,
      "v": 80
    },
    {
      "midi": 58,
      "hit": false,
      "t": 91225,
      "d": 1793.75,
      "v": 80
    },
    {
      "midi": 62,
      "hit": false,
      "t": 91225,
      "d": 1793.75,
      "v": 70
    },
    {
      "midi": 46,
      "hit": false,
      "t": 91225,
      "d": 4787.5,
      "v": 80
    },
    {
      "midi": 65,
      "hit": false,
      "t": 92125,
      "d": 887.5,
      "v": 80
    },
    {
      "midi": 53,
      "hit": false,
      "t": 93025,
      "d": 2987.5,
      "v": 65
    },
    {
      "midi": 57,
      "hit": false,
      "t": 93025,
      "d": 2987.5,
      "v": 74
    },
    {
      "midi": 60,
      "hit": false,
      "t": 93025,
      "d": 2993.75,
      "v": 78
    },
    {
      "midi": 65,
      "hit": false,
      "t": 95425,
      "d": 587.5,
      "v": 74
    },
    {
      "midi": 53,
      "hit": false,
      "t": 96025,
      "d": 1793.75,
      "v": 79
    },
    {
      "midi": 58,
      "hit": false,
      "t": 96025,
      "d": 1793.75,
      "v": 80
    },
    {
      "midi": 62,
      "hit": false,
      "t": 96025,
      "d": 1793.75,
      "v": 74
    },
    {
      "midi": 43,
      "hit": false,
      "t": 96025,
      "d": 4793.75,
      "v": 79
    },
    {
      "midi": 65,
      "hit": false,
      "t": 96925,
      "d": 893.75,
      "v": 79
    },
    {
      "midi": 53,
      "hit": false,
      "t": 97825,
      "d": 2993.75,
      "v": 65
    },
    {
      "midi": 57,
      "hit": false,
      "t": 97825,
      "d": 2993.75,
      "v": 71
    },
    {
      "midi": 60,
      "hit": false,
      "t": 97825,
      "d": 2993.75,
      "v": 69
    },
    {
      "midi": 65,
      "hit": false,
      "t": 100225,
      "d": 525,
      "v": 70
    },
    {
      "midi": 46,
      "hit": false,
      "t": 100825,
      "d": 2393.75,
      "v": 88
    },
    {
      "midi": 53,
      "hit": false,
      "t": 100825,
      "d": 2393.75,
      "v": 77
    },
    {
      "midi": 58,
      "hit": false,
      "t": 100825,
      "d": 2393.75,
      "v": 73
    },
    {
      "midi": 62,
      "hit": false,
      "t": 100825,
      "d": 2393.75,
      "v": 77
    },
    {
      "midi": 65,
      "hit": false,
      "t": 102625,
      "d": 593.75,
      "v": 83
    },
    {
      "midi": 46,
      "hit": false,
      "t": 103225,
      "d": 2393.75,
      "v": 77
    },
    {
      "midi": 55,
      "hit": false,
      "t": 103225,
      "d": 2393.75,
      "v": 88
    },
    {
      "midi": 60,
      "hit": false,
      "t": 103225,
      "d": 2393.75,
      "v": 79
    },
    {
      "midi": 64,
      "hit": false,
      "t": 103225,
      "d": 2393.75,
      "v": 90
    },
    {
      "midi": 67,
      "hit": false,
      "t": 103225,
      "d": 2393.75,
      "v": 90
    },
    {
      "midi": 44,
      "hit": false,
      "t": 105625,
      "d": 2393.75,
      "v": 83
    },
    {
      "midi": 56,
      "hit": false,
      "t": 105625,
      "d": 2393.75,
      "v": 77
    },
    {
      "midi": 60,
      "hit": false,
      "t": 105625,
      "d": 2393.75,
      "v": 79
    },
    {
      "midi": 63,
      "hit": false,
      "t": 105625,
      "d": 2393.75,
      "v": 74
    },
    {
      "midi": 46,
      "hit": false,
      "t": 108025,
      "d": 2393.75,
      "v": 70
    },
    {
      "midi": 53,
      "hit": false,
      "t": 108025,
      "d": 2393.75,
      "v": 90
    },
    {
      "midi": 58,
      "hit": false,
      "t": 108025,
      "d": 2393.75,
      "v": 90
    },
    {
      "midi": 62,
      "hit": false,
      "t": 108025,
      "d": 2393.75,
      "v": 82
    },
    {
      "midi": 46,
      "hit": false,
      "t": 110425,
      "d": 1193.75,
      "v": 90
    },
    {
      "midi": 55,
      "hit": false,
      "t": 110425,
      "d": 1193.75,
      "v": 90
    },
    {
      "midi": 58,
      "hit": false,
      "t": 110425,
      "d": 1193.75,
      "v": 90
    },
    {
      "midi": 63,
      "hit": false,
      "t": 110425,
      "d": 1193.75,
      "v": 90
    },
    {
      "midi": 46,
      "hit": false,
      "t": 111625,
      "d": 1193.75,
      "v": 90
    },
    {
      "midi": 53,
      "hit": false,
      "t": 111625,
      "d": 1193.75,
      "v": 90
    },
    {
      "midi": 58,
      "hit": false,
      "t": 111625,
      "d": 1193.75,
      "v": 90
    },
    {
      "midi": 62,
      "hit": false,
      "t": 111625,
      "d": 1193.75,
      "v": 90
    },
    {
      "midi": 38,
      "hit": false,
      "t": 112825,
      "d": 2393.75,
      "v": 80
    },
    {
      "midi": 53,
      "hit": false,
      "t": 112825,
      "d": 2393.75,
      "v": 81
    },
    {
      "midi": 57,
      "hit": false,
      "t": 112825,
      "d": 2393.75,
      "v": 82
    },
    {
      "midi": 60,
      "hit": false,
      "t": 112825,
      "d": 2393.75,
      "v": 82
    },
    {
      "midi": 65,
      "hit": false,
      "t": 114025,
      "d": 1193.75,
      "v": 87
    },
    {
      "midi": 53,
      "hit": false,
      "t": 115225,
      "d": 2393.75,
      "v": 82
    },
    {
      "midi": 58,
      "hit": false,
      "t": 115225,
      "d": 2393.75,
      "v": 82
    },
    {
      "midi": 62,
      "hit": false,
      "t": 115225,
      "d": 2393.75,
      "v": 83
    },
    {
      "midi": 55,
      "hit": false,
      "t": 117025,
      "d": 593.75,
      "v": 86
    },
    {
      "midi": 67,
      "hit": false,
      "t": 117025,
      "d": 593.75,
      "v": 88
    },
    {
      "midi": 51,
      "hit": false,
      "t": 117625,
      "d": 2393.75,
      "v": 93
    },
    {
      "midi": 58,
      "hit": false,
      "t": 117625,
      "d": 2393.75,
      "v": 73
    },
    {
      "midi": 62,
      "hit": false,
      "t": 117625,
      "d": 2393.75,
      "v": 87
    },
    {
      "midi": 67,
      "hit": false,
      "t": 117625,
      "d": 2393.75,
      "v": 75
    },
    {
      "midi": 53,
      "hit": false,
      "t": 120025,
      "d": 5993.75,
      "v": 93
    },
    {
      "midi": 58,
      "hit": false,
      "t": 120025,
      "d": 5993.75,
      "v": 91
    },
    {
      "midi": 60,
      "hit": false,
      "t": 120025,
      "d": 5993.75,
      "v": 90
    },
    {
      "midi": 53,
      "hit": false,
      "t": 126025,
      "d": 1193.75,
      "v": 88
    },
    {
      "midi": 57,
      "hit": false,
      "t": 126025,
      "d": 1193.75,
      "v": 95
    },
    {
      "midi": 60,
      "hit": false,
      "t": 126025,
      "d": 1193.75,
      "v": 95
    },
    {
      "midi": 43,
      "hit": false,
      "t": 127225,
      "d": 2393.75,
      "v": 75
    },
    {
      "midi": 53,
      "hit": false,
      "t": 127225,
      "d": 2393.75,
      "v": 87
    },
    {
      "midi": 58,
      "hit": false,
      "t": 127225,
      "d": 2393.75,
      "v": 88
    },
    {
      "midi": 62,
      "hit": false,
      "t": 127225,
      "d": 2393.75,
      "v": 83
    },
    {
      "midi": 54,
      "hit": false,
      "t": 129625,
      "d": 1793.75,
      "v": 77
    },
    {
      "midi": 57,
      "hit": false,
      "t": 129625,
      "d": 1793.75,
      "v": 85
    },
    {
      "midi": 62,
      "hit": false,
      "t": 129625,
      "d": 1793.75,
      "v": 73
    },
    {
      "midi": 42,
      "hit": false,
      "t": 129625,
      "d": 2393.75,
      "v": 73
    },
    {
      "midi": 54,
      "hit": false,
      "t": 131425,
      "d": 593.75,
      "v": 75
    },
    {
      "midi": 57,
      "hit": false,
      "t": 131425,
      "d": 593.75,
      "v": 93
    },
    {
      "midi": 60,
      "hit": false,
      "t": 131425,
      "d": 593.75,
      "v": 95
    },
    {
      "midi": 41,
      "hit": false,
      "t": 132025,
      "d": 2393.75,
      "v": 89
    },
    {
      "midi": 53,
      "hit": false,
      "t": 132025,
      "d": 2393.75,
      "v": 83
    },
    {
      "midi": 58,
      "hit": false,
      "t": 132025,
      "d": 2393.75,
      "v": 80
    },
    {
      "midi": 62,
      "hit": false,
      "t": 132025,
      "d": 2393.75,
      "v": 82
    },
    {
      "midi": 55,
      "hit": false,
      "t": 134425,
      "d": 1193.75,
      "v": 79
    },
    {
      "midi": 62,
      "hit": false,
      "t": 134425,
      "d": 2393.75,
      "v": 91
    },
    {
      "midi": 63,
      "hit": false,
      "t": 134425,
      "d": 2393.75,
      "v": 91
    },
    {
      "midi": 58,
      "hit": false,
      "t": 134425,
      "d": 4793.75,
      "v": 79
    },
    {
      "midi": 55,
      "hit": false,
      "t": 135625,
      "d": 1193.75,
      "v": 86
    },
    {
      "midi": 67,
      "hit": false,
      "t": 135625,
      "d": 1193.75,
      "v": 86
    },
    {
      "midi": 62,
      "hit": false,
      "t": 136825,
      "d": 2393.75,
      "v": 90
    },
    {
      "midi": 63,
      "hit": false,
      "t": 136825,
      "d": 2393.75,
      "v": 90
    },
    {
      "midi": 67,
      "hit": false,
      "t": 136825,
      "d": 2393.75,
      "v": 90
    },
    {
      "midi": 70,
      "hit": false,
      "t": 136825,
      "d": 2393.75,
      "v": 90
    },
    {
      "midi": 74,
      "hit": false,
      "t": 136825,
      "d": 2393.75,
      "v": 90
    },
    {
      "midi": 53,
      "hit": false,
      "t": 139225,
      "d": 2393.75,
      "v": 77
    },
    {
      "midi": 57,
      "hit": false,
      "t": 139225,
      "d": 2393.75,
      "v": 91
    },
    {
      "midi": 60,
      "hit": false,
      "t": 139225,
      "d": 2393.75,
      "v": 90
    },
    {
      "midi": 53,
      "hit": false,
      "t": 141625,
      "d": 2393.75,
      "v": 77
    },
    {
      "midi": 58,
      "hit": false,
      "t": 141625,
      "d": 2393.75,
      "v": 73
    },
    {
      "midi": 62,
      "hit": false,
      "t": 141625,
      "d": 2393.75,
      "v": 83
    },
    {
      "midi": 53,
      "hit": false,
      "t": 144025,
      "d": 2393.75,
      "v": 66
    },
    {
      "midi": 57,
      "hit": false,
      "t": 144025,
      "d": 2393.75,
      "v": 81
    },
    {
      "midi": 60,
      "hit": false,
      "t": 144025,
      "d": 2393.75,
      "v": 87
    },
    {
      "midi": 53,
      "hit": false,
      "t": 146425,
      "d": 4193.75,
      "v": 77
    },
    {
      "midi": 58,
      "hit": false,
      "t": 146425,
      "d": 4193.75,
      "v": 70
    },
    {
      "midi": 62,
      "hit": false,
      "t": 146425,
      "d": 4193.75,
      "v": 75
    },
    {
      "midi": 62,
      "hit": false,
      "t": 150625,
      "d": 306.25,
      "v": 93
    },
    {
      "midi": 67,
      "hit": false,
      "t": 150625,
      "d": 306.25,
      "v": 95
    },
    {
      "midi": 60,
      "hit": false,
      "t": 151225,
      "d": 1193.75,
      "v": 100
    },
    {
      "midi": 65,
      "hit": false,
      "t": 151225,
      "d": 1193.75,
      "v": 101
    },
    {
      "midi": 57,
      "hit": false,
      "t": 152425,
      "d": 1193.75,
      "v": 99
    },
    {
      "midi": 62,
      "hit": false,
      "t": 152425,
      "d": 1193.75,
      "v": 95
    },
    {
      "midi": 60,
      "hit": false,
      "t": 153625,
      "d": 243.75,
      "v": 103
    },
    {
      "midi": 65,
      "hit": false,
      "t": 153625,
      "d": 243.75,
      "v": 101
    },
    {
      "midi": 60,
      "hit": false,
      "t": 154225,
      "d": 556.25,
      "v": 103
    },
    {
      "midi": 65,
      "hit": false,
      "t": 154225,
      "d": 556.25,
      "v": 101
    },
    {
      "midi": 57,
      "hit": false,
      "t": 154825,
      "d": 2993.75,
      "v": 94
    },
    {
      "midi": 62,
      "hit": false,
      "t": 154825,
      "d": 2993.75,
      "v": 82
    },
    {
      "midi": 62,
      "hit": false,
      "t": 157825,
      "d": 268.75,
      "v": 103
    },
    {
      "midi": 67,
      "hit": false,
      "t": 157825,
      "d": 268.75,
      "v": 103
    },
    {
      "midi": 60,
      "hit": false,
      "t": 158425,
      "d": 1193.75,
      "v": 103
    },
    {
      "midi": 65,
      "hit": false,
      "t": 158425,
      "d": 1193.75,
      "v": 103
    },
    {
      "midi": 57,
      "hit": false,
      "t": 159625,
      "d": 1193.75,
      "v": 103
    },
    {
      "midi": 62,
      "hit": false,
      "t": 159625,
      "d": 1193.75,
      "v": 97
    },
    {
      "midi": 53,
      "hit": false,
      "t": 160825,
      "d": 1793.75,
      "v": 76
    },
    {
      "midi": 58,
      "hit": false,
      "t": 160825,
      "d": 1793.75,
      "v": 89
    },
    {
      "midi": 62,
      "hit": false,
      "t": 160825,
      "d": 1793.75,
      "v": 89
    },
    {
      "midi": 46,
      "hit": false,
      "t": 160825,
      "d": 4793.75,
      "v": 83
    },
    {
      "midi": 65,
      "hit": false,
      "t": 161725,
      "d": 893.75,
      "v": 88
    },
    {
      "midi": 60,
      "hit": false,
      "t": 162625,
      "d": 2093.75,
      "v": 88
    },
    {
      "midi": 53,
      "hit": false,
      "t": 162625,
      "d": 2993.75,
      "v": 76
    },
    {
      "midi": 57,
      "hit": false,
      "t": 162625,
      "d": 2993.75,
      "v": 87
    },
    {
      "midi": 60,
      "hit": false,
      "t": 164725,
      "d": 893.75,
      "v": 74
    },
    {
      "midi": 65,
      "hit": false,
      "t": 165025,
      "d": 593.75,
      "v": 88
    },
    {
      "midi": 53,
      "hit": false,
      "t": 165625,
      "d": 1793.75,
      "v": 74
    },
    {
      "midi": 58,
      "hit": false,
      "t": 165625,
      "d": 1793.75,
      "v": 82
    },
    {
      "midi": 62,
      "hit": false,
      "t": 165625,
      "d": 1793.75,
      "v": 82
    },
    {
      "midi": 43,
      "hit": false,
      "t": 165625,
      "d": 4793.75,
      "v": 88
    },
    {
      "midi": 60,
      "hit": false,
      "t": 167425,
      "d": 2012.5,
      "v": 89
    },
    {
      "midi": 53,
      "hit": false,
      "t": 167425,
      "d": 2993.75,
      "v": 72
    },
    {
      "midi": 57,
      "hit": false,
      "t": 167425,
      "d": 2993.75,
      "v": 87
    },
    {
      "midi": 60,
      "hit": false,
      "t": 169525,
      "d": 893.75,
      "v": 66
    },
    {
      "midi": 65,
      "hit": false,
      "t": 169825,
      "d": 575,
      "v": 75
    },
    {
      "midi": 53,
      "hit": false,
      "t": 170425,
      "d": 1793.75,
      "v": 89
    },
    {
      "midi": 58,
      "hit": false,
      "t": 170425,
      "d": 1793.75,
      "v": 89
    },
    {
      "midi": 62,
      "hit": false,
      "t": 170425,
      "d": 1793.75,
      "v": 78
    },
    {
      "midi": 46,
      "hit": false,
      "t": 170425,
      "d": 4787.5,
      "v": 89
    },
    {
      "midi": 65,
      "hit": false,
      "t": 171325,
      "d": 887.5,
      "v": 89
    },
    {
      "midi": 53,
      "hit": false,
      "t": 172225,
      "d": 2987.5,
      "v": 73
    },
    {
      "midi": 57,
      "hit": false,
      "t": 172225,
      "d": 2987.5,
      "v": 83
    },
    {
      "midi": 60,
      "hit": false,
      "t": 172225,
      "d": 2993.75,
      "v": 87
    },
    {
      "midi": 65,
      "hit": false,
      "t": 174625,
      "d": 587.5,
      "v": 83
    },
    {
      "midi": 53,
      "hit": false,
      "t": 175225,
      "d": 1793.75,
      "v": 88
    },
    {
      "midi": 58,
      "hit": false,
      "t": 175225,
      "d": 1793.75,
      "v": 89
    },
    {
      "midi": 62,
      "hit": false,
      "t": 175225,
      "d": 1793.75,
      "v": 83
    },
    {
      "midi": 43,
      "hit": false,
      "t": 175225,
      "d": 4193.75,
      "v": 88
    },
    {
      "midi": 65,
      "hit": false,
      "t": 176125,
      "d": 893.75,
      "v": 88
    },
    {
      "midi": 53,
      "hit": false,
      "t": 177025,
      "d": 2393.75,
      "v": 73
    },
    {
      "midi": 57,
      "hit": false,
      "t": 177025,
      "d": 2393.75,
      "v": 79
    },
    {
      "midi": 60,
      "hit": false,
      "t": 177025,
      "d": 2393.75,
      "v": 77
    },
    {
      "midi": 55,
      "hit": false,
      "t": 179425,
      "d": 593.75,
      "v": 80
    },
    {
      "midi": 58,
      "hit": false,
      "t": 179425,
      "d": 593.75,
      "v": 80
    },
    {
      "midi": 63,
      "hit": false,
      "t": 179425,
      "d": 593.75,
      "v": 80
    },
    {
      "midi": 46,
      "hit": false,
      "t": 180025,
      "d": 2393.75,
      "v": 92
    },
    {
      "midi": 53,
      "hit": false,
      "t": 180025,
      "d": 2393.75,
      "v": 95
    },
    {
      "midi": 65,
      "hit": false,
      "t": 180025,
      "d": 2393.75,
      "v": 99
    },
    {
      "midi": 62,
      "hit": false,
      "t": 180150,
      "d": 1668.75,
      "v": 84
    },
    {
      "midi": 58,
      "hit": false,
      "t": 180925,
      "d": 893.75,
      "v": 89
    },
    {
      "midi": 58,
      "hit": false,
      "t": 181825,
      "d": 593.75,
      "v": 84
    },
    {
      "midi": 62,
      "hit": false,
      "t": 181825,
      "d": 593.75,
      "v": 84
    },
    {
      "midi": 60,
      "hit": false,
      "t": 182425,
      "d": 1793.75,
      "v": 91
    },
    {
      "midi": 46,
      "hit": false,
      "t": 182425,
      "d": 2393.75,
      "v": 99
    },
    {
      "midi": 64,
      "hit": false,
      "t": 182425,
      "d": 2393.75,
      "v": 99
    },
    {
      "midi": 67,
      "hit": false,
      "t": 182425,
      "d": 2393.75,
      "v": 94
    },
    {
      "midi": 60,
      "hit": false,
      "t": 184225,
      "d": 593.75,
      "v": 93
    },
    {
      "midi": 60,
      "hit": false,
      "t": 184825,
      "d": 1200,
      "v": 97
    },
    {
      "midi": 44,
      "hit": false,
      "t": 184825,
      "d": 2393.75,
      "v": 99
    },
    {
      "midi": 63,
      "hit": false,
      "t": 184825,
      "d": 2393.75,
      "v": 99
    },
    {
      "midi": 67,
      "hit": false,
      "t": 184825,
      "d": 2393.75,
      "v": 91
    },
    {
      "midi": 60,
      "hit": false,
      "t": 186025,
      "d": 1193.75,
      "v": 99
    },
    {
      "midi": 60,
      "hit": false,
      "t": 187225,
      "d": 1793.75,
      "v": 90
    },
    {
      "midi": 62,
      "hit": false,
      "t": 187225,
      "d": 1793.75,
      "v": 88
    },
    {
      "midi": 65,
      "hit": false,
      "t": 187225,
      "d": 1793.75,
      "v": 94
    },
    {
      "midi": 46,
      "hit": false,
      "t": 187225,
      "d": 4793.75,
      "v": 99
    },
    {
      "midi": 62,
      "hit": false,
      "t": 189025,
      "d": 593.75,
      "v": 90
    },
    {
      "midi": 65,
      "hit": false,
      "t": 189025,
      "d": 593.75,
      "v": 90
    },
    {
      "midi": 74,
      "hit": false,
      "t": 189025,
      "d": 593.75,
      "v": 90
    },
    {
      "midi": 55,
      "hit": false,
      "t": 189625,
      "d": 1193.75,
      "v": 90
    },
    {
      "midi": 58,
      "hit": false,
      "t": 189625,
      "d": 1193.75,
      "v": 90
    },
    {
      "midi": 63,
      "hit": false,
      "t": 189625,
      "d": 1193.75,
      "v": 90
    },
    {
      "midi": 53,
      "hit": false,
      "t": 190825,
      "d": 1193.75,
      "v": 90
    },
    {
      "midi": 58,
      "hit": false,
      "t": 190825,
      "d": 1193.75,
      "v": 90
    },
    {
      "midi": 62,
      "hit": false,
      "t": 190825,
      "d": 1193.75,
      "v": 90
    },
    {
      "midi": 57,
      "hit": false,
      "t": 192025,
      "d": 1193.75,
      "v": 99
    },
    {
      "midi": 38,
      "hit": false,
      "t": 192025,
      "d": 2393.75,
      "v": 85
    },
    {
      "midi": 53,
      "hit": false,
      "t": 192025,
      "d": 2393.75,
      "v": 90
    },
    {
      "midi": 60,
      "hit": false,
      "t": 192025,
      "d": 2393.75,
      "v": 81
    },
    {
      "midi": 57,
      "hit": false,
      "t": 193225,
      "d": 1193.75,
      "v": 93
    },
    {
      "midi": 53,
      "hit": false,
      "t": 194425,
      "d": 1793.75,
      "v": 90
    },
    {
      "midi": 58,
      "hit": false,
      "t": 194425,
      "d": 1793.75,
      "v": 99
    },
    {
      "midi": 62,
      "hit": false,
      "t": 194425,
      "d": 1793.75,
      "v": 94
    },
    {
      "midi": 43,
      "hit": false,
      "t": 194425,
      "d": 2393.75,
      "v": 87
    },
    {
      "midi": 65,
      "hit": false,
      "t": 196225,
      "d": 593.75,
      "v": 84
    },
    {
      "midi": 70,
      "hit": false,
      "t": 196225,
      "d": 593.75,
      "v": 84
    },
    {
      "midi": 74,
      "hit": false,
      "t": 196225,
      "d": 593.75,
      "v": 84
    },
    {
      "midi": 55,
      "hit": false,
      "t": 196825,
      "d": 2393.75,
      "v": 77
    },
    {
      "midi": 58,
      "hit": false,
      "t": 196825,
      "d": 2393.75,
      "v": 86
    },
    {
      "midi": 62,
      "hit": false,
      "t": 196825,
      "d": 2393.75,
      "v": 97
    },
    {
      "midi": 67,
      "hit": false,
      "t": 196825,
      "d": 2393.75,
      "v": 85
    },
    {
      "midi": 60,
      "hit": false,
      "t": 199225,
      "d": 2393.75,
      "v": 90
    },
    {
      "midi": 65,
      "hit": false,
      "t": 199225,
      "d": 2393.75,
      "v": 90
    },
    {
      "midi": 70,
      "hit": false,
      "t": 199225,
      "d": 2393.75,
      "v": 90
    },
    {
      "midi": 53,
      "hit": false,
      "t": 199225,
      "d": 4793.75,
      "v": 90
    },
    {
      "midi": 60,
      "hit": false,
      "t": 201625,
      "d": 2393.75,
      "v": 82
    },
    {
      "midi": 65,
      "hit": false,
      "t": 201625,
      "d": 2393.75,
      "v": 85
    },
    {
      "midi": 67,
      "hit": false,
      "t": 201625,
      "d": 2393.75,
      "v": 85
    },
    {
      "midi": 57,
      "hit": false,
      "t": 204025,
      "d": 1193.75,
      "v": 99
    },
    {
      "midi": 60,
      "hit": false,
      "t": 204025,
      "d": 1193.75,
      "v": 88
    },
    {
      "midi": 65,
      "hit": false,
      "t": 204025,
      "d": 1193.75,
      "v": 73
    },
    {
      "midi": 41,
      "hit": false,
      "t": 204025,
      "d": 2393.75,
      "v": 52
    },
    {
      "midi": 57,
      "hit": false,
      "t": 205225,
      "d": 1193.75,
      "v": 99
    },
    {
      "midi": 60,
      "hit": false,
      "t": 205225,
      "d": 1193.75,
      "v": 88
    },
    {
      "midi": 65,
      "hit": false,
      "t": 205225,
      "d": 1193.75,
      "v": 73
    },
    {
      "midi": 43,
      "hit": false,
      "t": 206425,
      "d": 2393.75,
      "v": 68
    },
    {
      "midi": 53,
      "hit": false,
      "t": 206425,
      "d": 2393.75,
      "v": 77
    },
    {
      "midi": 58,
      "hit": false,
      "t": 206425,
      "d": 2393.75,
      "v": 73
    },
    {
      "midi": 62,
      "hit": false,
      "t": 206425,
      "d": 2393.75,
      "v": 80
    },
    {
      "midi": 42,
      "hit": false,
      "t": 208825,
      "d": 2393.75,
      "v": 71
    },
    {
      "midi": 57,
      "hit": false,
      "t": 208825,
      "d": 2393.75,
      "v": 83
    },
    {
      "midi": 62,
      "hit": false,
      "t": 208825,
      "d": 2393.75,
      "v": 80
    },
    {
      "midi": 41,
      "hit": false,
      "t": 211225,
      "d": 2393.75,
      "v": 84
    },
    {
      "midi": 58,
      "hit": false,
      "t": 211225,
      "d": 2393.75,
      "v": 85
    },
    {
      "midi": 62,
      "hit": false,
      "t": 211225,
      "d": 2393.75,
      "v": 99
    },
    {
      "midi": 67,
      "hit": false,
      "t": 211225,
      "d": 2393.75,
      "v": 97
    },
    {
      "midi": 58,
      "hit": false,
      "t": 213625,
      "d": 1193.75,
      "v": 78
    },
    {
      "midi": 39,
      "hit": false,
      "t": 213625,
      "d": 2393.75,
      "v": 75
    },
    {
      "midi": 53,
      "hit": false,
      "t": 213625,
      "d": 4793.75,
      "v": 75
    },
    {
      "midi": 55,
      "hit": false,
      "t": 213625,
      "d": 4793.75,
      "v": 84
    },
    {
      "midi": 62,
      "hit": false,
      "t": 213625,
      "d": 4793.75,
      "v": 75
    },
    {
      "midi": 67,
      "hit": false,
      "t": 214825,
      "d": 1193.75,
      "v": 90
    },
    {
      "midi": 74,
      "hit": false,
      "t": 214825,
      "d": 1193.75,
      "v": 90
    },
    {
      "midi": 58,
      "hit": false,
      "t": 214825,
      "d": 3593.75,
      "v": 81
    },
    {
      "midi": 67,
      "hit": false,
      "t": 216025,
      "d": 1193.75,
      "v": 93
    },
    {
      "midi": 70,
      "hit": false,
      "t": 216025,
      "d": 1193.75,
      "v": 93
    },
    {
      "midi": 74,
      "hit": false,
      "t": 216025,
      "d": 1193.75,
      "v": 93
    },
    {
      "midi": 67,
      "hit": false,
      "t": 217225,
      "d": 1193.75,
      "v": 80
    },
    {
      "midi": 70,
      "hit": false,
      "t": 217225,
      "d": 1193.75,
      "v": 80
    },
    {
      "midi": 74,
      "hit": false,
      "t": 217225,
      "d": 1193.75,
      "v": 80
    },
    {
      "midi": 79,
      "hit": false,
      "t": 217225,
      "d": 1193.75,
      "v": 80
    },
    {
      "midi": 38,
      "hit": false,
      "t": 218425,
      "d": 2393.75,
      "v": 78
    },
    {
      "midi": 53,
      "hit": false,
      "t": 218425,
      "d": 2393.75,
      "v": 83
    },
    {
      "midi": 57,
      "hit": false,
      "t": 218425,
      "d": 2393.75,
      "v": 91
    },
    {
      "midi": 60,
      "hit": false,
      "t": 218425,
      "d": 2393.75,
      "v": 87
    },
    {
      "midi": 43,
      "hit": false,
      "t": 220825,
      "d": 2393.75,
      "v": 87
    },
    {
      "midi": 53,
      "hit": false,
      "t": 220825,
      "d": 2393.75,
      "v": 83
    },
    {
      "midi": 58,
      "hit": false,
      "t": 220825,
      "d": 2393.75,
      "v": 64
    },
    {
      "midi": 62,
      "hit": false,
      "t": 220825,
      "d": 2393.75,
      "v": 85
    },
    {
      "midi": 38,
      "hit": false,
      "t": 223225,
      "d": 2393.75,
      "v": 88
    },
    {
      "midi": 53,
      "hit": false,
      "t": 223225,
      "d": 2393.75,
      "v": 75
    },
    {
      "midi": 57,
      "hit": false,
      "t": 223225,
      "d": 2393.75,
      "v": 81
    },
    {
      "midi": 60,
      "hit": false,
      "t": 223225,
      "d": 2393.75,
      "v": 79
    },
    {
      "midi": 58,
      "hit": false,
      "t": 225625,
      "d": 1193.75,
      "v": 75
    },
    {
      "midi": 62,
      "hit": false,
      "t": 225625,
      "d": 1193.75,
      "v": 85
    },
    {
      "midi": 55,
      "hit": false,
      "t": 225625,
      "d": 2393.75,
      "v": 84
    },
    {
      "midi": 43,
      "hit": false,
      "t": 225625,
      "d": 4193.75,
      "v": 75
    },
    {
      "midi": 57,
      "hit": false,
      "t": 226825,
      "d": 1193.75,
      "v": 85
    },
    {
      "midi": 60,
      "hit": false,
      "t": 226825,
      "d": 1193.75,
      "v": 78
    },
    {
      "midi": 55,
      "hit": false,
      "t": 228025,
      "d": 1493.75,
      "v": 64
    },
    {
      "midi": 58,
      "hit": false,
      "t": 228025,
      "d": 1493.75,
      "v": 64
    },
    {
      "midi": 62,
      "hit": false,
      "t": 229825,
      "d": 306.25,
      "v": 89
    },
    {
      "midi": 67,
      "hit": false,
      "t": 229825,
      "d": 306.25,
      "v": 89
    },
    {
      "midi": 60,
      "hit": false,
      "t": 230425,
      "d": 1193.75,
      "v": 89
    },
    {
      "midi": 65,
      "hit": false,
      "t": 230425,
      "d": 1193.75,
      "v": 89
    },
    {
      "midi": 57,
      "hit": false,
      "t": 231625,
      "d": 1193.75,
      "v": 89
    },
    {
      "midi": 62,
      "hit": false,
      "t": 231625,
      "d": 1193.75,
      "v": 89
    },
    {
      "midi": 60,
      "hit": false,
      "t": 232825,
      "d": 243.75,
      "v": 89
    },
    {
      "midi": 65,
      "hit": false,
      "t": 232825,
      "d": 243.75,
      "v": 89
    },
    {
      "midi": 60,
      "hit": false,
      "t": 233425,
      "d": 556.25,
      "v": 89
    },
    {
      "midi": 65,
      "hit": false,
      "t": 233425,
      "d": 556.25,
      "v": 89
    },
    {
      "midi": 57,
      "hit": false,
      "t": 234025,
      "d": 2993.75,
      "v": 89
    },
    {
      "midi": 62,
      "hit": false,
      "t": 234025,
      "d": 2993.75,
      "v": 82
    },
    {
      "midi": 62,
      "hit": false,
      "t": 237025,
      "d": 468.75,
      "v": 89
    },
    {
      "midi": 67,
      "hit": false,
      "t": 237025,
      "d": 468.75,
      "v": 89
    },
    {
      "midi": 60,
      "hit": false,
      "t": 237625,
      "d": 1193.75,
      "v": 89
    },
    {
      "midi": 65,
      "hit": false,
      "t": 237625,
      "d": 1193.75,
      "v": 89
    },
    {
      "midi": 57,
      "hit": false,
      "t": 238825,
      "d": 1193.75,
      "v": 89
    },
    {
      "midi": 62,
      "hit": false,
      "t": 238825,
      "d": 1193.75,
      "v": 89
    },
    {
      "midi": 53,
      "hit": false,
      "t": 240025,
      "d": 1793.75,
      "v": 76
    },
    {
      "midi": 58,
      "hit": false,
      "t": 240025,
      "d": 1793.75,
      "v": 89
    },
    {
      "midi": 62,
      "hit": false,
      "t": 240025,
      "d": 1793.75,
      "v": 89
    },
    {
      "midi": 46,
      "hit": false,
      "t": 240025,
      "d": 4793.75,
      "v": 83
    },
    {
      "midi": 65,
      "hit": false,
      "t": 240925,
      "d": 893.75,
      "v": 88
    },
    {
      "midi": 53,
      "hit": false,
      "t": 241825,
      "d": 2993.75,
      "v": 76
    },
    {
      "midi": 57,
      "hit": false,
      "t": 241825,
      "d": 2993.75,
      "v": 87
    },
    {
      "midi": 60,
      "hit": false,
      "t": 241825,
      "d": 2993.75,
      "v": 88
    },
    {
      "midi": 65,
      "hit": false,
      "t": 244225,
      "d": 593.75,
      "v": 89
    },
    {
      "midi": 53,
      "hit": false,
      "t": 244825,
      "d": 1793.75,
      "v": 76
    },
    {
      "midi": 58,
      "hit": false,
      "t": 244825,
      "d": 1793.75,
      "v": 89
    },
    {
      "midi": 62,
      "hit": false,
      "t": 244825,
      "d": 1793.75,
      "v": 89
    },
    {
      "midi": 43,
      "hit": false,
      "t": 244825,
      "d": 4793.75,
      "v": 83
    },
    {
      "midi": 65,
      "hit": false,
      "t": 245725,
      "d": 893.75,
      "v": 88
    },
    {
      "midi": 53,
      "hit": false,
      "t": 246625,
      "d": 2993.75,
      "v": 76
    },
    {
      "midi": 57,
      "hit": false,
      "t": 246625,
      "d": 2993.75,
      "v": 87
    },
    {
      "midi": 60,
      "hit": false,
      "t": 246625,
      "d": 2993.75,
      "v": 88
    },
    {
      "midi": 65,
      "hit": false,
      "t": 249025,
      "d": 593.75,
      "v": 89
    },
    {
      "midi": 53,
      "hit": false,
      "t": 249625,
      "d": 1793.75,
      "v": 76
    },
    {
      "midi": 58,
      "hit": false,
      "t": 249625,
      "d": 1793.75,
      "v": 89
    },
    {
      "midi": 62,
      "hit": false,
      "t": 249625,
      "d": 1793.75,
      "v": 89
    },
    {
      "midi": 46,
      "hit": false,
      "t": 249625,
      "d": 4793.75,
      "v": 83
    },
    {
      "midi": 65,
      "hit": false,
      "t": 250525,
      "d": 893.75,
      "v": 88
    },
    {
      "midi": 53,
      "hit": false,
      "t": 251425,
      "d": 2993.75,
      "v": 76
    },
    {
      "midi": 57,
      "hit": false,
      "t": 251425,
      "d": 2993.75,
      "v": 87
    },
    {
      "midi": 60,
      "hit": false,
      "t": 251425,
      "d": 2993.75,
      "v": 88
    },
    {
      "midi": 65,
      "hit": false,
      "t": 253825,
      "d": 593.75,
      "v": 89
    },
    {
      "midi": 53,
      "hit": false,
      "t": 254425,
      "d": 1793.75,
      "v": 88
    },
    {
      "midi": 58,
      "hit": false,
      "t": 254425,
      "d": 1793.75,
      "v": 89
    },
    {
      "midi": 62,
      "hit": false,
      "t": 254425,
      "d": 1793.75,
      "v": 83
    },
    {
      "midi": 43,
      "hit": false,
      "t": 254425,
      "d": 3593.75,
      "v": 88
    },
    {
      "midi": 65,
      "hit": false,
      "t": 255325,
      "d": 893.75,
      "v": 88
    },
    {
      "midi": 53,
      "hit": false,
      "t": 256225,
      "d": 1793.75,
      "v": 73
    },
    {
      "midi": 57,
      "hit": false,
      "t": 256225,
      "d": 1793.75,
      "v": 79
    },
    {
      "midi": 60,
      "hit": false,
      "t": 256225,
      "d": 1793.75,
      "v": 77
    },
    {
      "midi": 65,
      "hit": false,
      "t": 257125,
      "d": 893.75,
      "v": 89
    },
    {
      "midi": 41,
      "hit": false,
      "t": 258025,
      "d": 1193.75,
      "v": 89
    },
    {
      "midi": 55,
      "hit": false,
      "t": 258025,
      "d": 1193.75,
      "v": 89
    },
    {
      "midi": 58,
      "hit": false,
      "t": 258025,
      "d": 1193.75,
      "v": 89
    },
    {
      "midi": 63,
      "hit": false,
      "t": 258025,
      "d": 1193.75,
      "v": 89
    },
    {
      "midi": 58,
      "hit": false,
      "t": 259225,
      "d": 1793.75,
      "v": 89
    },
    {
      "midi": 46,
      "hit": false,
      "t": 259225,
      "d": 2393.75,
      "v": 88
    },
    {
      "midi": 53,
      "hit": false,
      "t": 259225,
      "d": 2393.75,
      "v": 89
    },
    {
      "midi": 62,
      "hit": false,
      "t": 259225,
      "d": 2393.75,
      "v": 89
    },
    {
      "midi": 58,
      "hit": false,
      "t": 261025,
      "d": 593.75,
      "v": 105
    },
    {
      "midi": 60,
      "hit": false,
      "t": 261625,
      "d": 1793.75,
      "v": 103
    },
    {
      "midi": 46,
      "hit": false,
      "t": 261625,
      "d": 2393.75,
      "v": 99
    },
    {
      "midi": 55,
      "hit": false,
      "t": 261625,
      "d": 2393.75,
      "v": 91
    },
    {
      "midi": 64,
      "hit": false,
      "t": 261625,
      "d": 2393.75,
      "v": 91
    },
    {
      "midi": 67,
      "hit": false,
      "t": 261625,
      "d": 2393.75,
      "v": 92
    },
    {
      "midi": 60,
      "hit": false,
      "t": 263425,
      "d": 593.75,
      "v": 107
    },
    {
      "midi": 60,
      "hit": false,
      "t": 264025,
      "d": 1193.75,
      "v": 93
    },
    {
      "midi": 63,
      "hit": false,
      "t": 264025,
      "d": 1193.75,
      "v": 82
    },
    {
      "midi": 44,
      "hit": false,
      "t": 264025,
      "d": 2393.75,
      "v": 66
    },
    {
      "midi": 55,
      "hit": false,
      "t": 264025,
      "d": 2393.75,
      "v": 88
    },
    {
      "midi": 58,
      "hit": false,
      "t": 264025,
      "d": 2393.75,
      "v": 88
    },
    {
      "midi": 60,
      "hit": false,
      "t": 265225,
      "d": 1193.75,
      "v": 101
    },
    {
      "midi": 63,
      "hit": false,
      "t": 265225,
      "d": 1193.75,
      "v": 92
    },
    {
      "midi": 67,
      "hit": false,
      "t": 265225,
      "d": 1193.75,
      "v": 99
    },
    {
      "midi": 63,
      "hit": false,
      "t": 266425,
      "d": 1193.75,
      "v": 105
    },
    {
      "midi": 65,
      "hit": false,
      "t": 266425,
      "d": 1193.75,
      "v": 94
    },
    {
      "midi": 58,
      "hit": false,
      "t": 266425,
      "d": 1200,
      "v": 86
    },
    {
      "midi": 46,
      "hit": false,
      "t": 266425,
      "d": 4793.75,
      "v": 92
    },
    {
      "midi": 53,
      "hit": false,
      "t": 267625,
      "d": 1193.75,
      "v": 88
    },
    {
      "midi": 58,
      "hit": false,
      "t": 267625,
      "d": 1193.75,
      "v": 78
    },
    {
      "midi": 62,
      "hit": false,
      "t": 267625,
      "d": 1193.75,
      "v": 88
    },
    {
      "midi": 53,
      "hit": false,
      "t": 268825,
      "d": 1193.75,
      "v": 82
    },
    {
      "midi": 58,
      "hit": false,
      "t": 268825,
      "d": 1193.75,
      "v": 92
    },
    {
      "midi": 60,
      "hit": false,
      "t": 268825,
      "d": 1193.75,
      "v": 95
    },
    {
      "midi": 53,
      "hit": false,
      "t": 270025,
      "d": 1193.75,
      "v": 95
    },
    {
      "midi": 58,
      "hit": false,
      "t": 270025,
      "d": 1193.75,
      "v": 92
    },
    {
      "midi": 57,
      "hit": false,
      "t": 271225,
      "d": 1193.75,
      "v": 95
    },
    {
      "midi": 60,
      "hit": false,
      "t": 271225,
      "d": 1193.75,
      "v": 90
    },
    {
      "midi": 38,
      "hit": false,
      "t": 271225,
      "d": 2393.75,
      "v": 78
    },
    {
      "midi": 53,
      "hit": false,
      "t": 271225,
      "d": 2393.75,
      "v": 85
    },
    {
      "midi": 57,
      "hit": false,
      "t": 272425,
      "d": 1193.75,
      "v": 88
    },
    {
      "midi": 60,
      "hit": false,
      "t": 272425,
      "d": 1193.75,
      "v": 107
    },
    {
      "midi": 65,
      "hit": false,
      "t": 272425,
      "d": 1193.75,
      "v": 103
    },
    {
      "midi": 58,
      "hit": false,
      "t": 273625,
      "d": 2393.75,
      "v": 107
    },
    {
      "midi": 62,
      "hit": false,
      "t": 273625,
      "d": 2393.75,
      "v": 105
    },
    {
      "midi": 67,
      "hit": false,
      "t": 273625,
      "d": 2393.75,
      "v": 94
    },
    {
      "midi": 55,
      "hit": false,
      "t": 275125,
      "d": 893.75,
      "v": 111
    },
    {
      "midi": 51,
      "hit": false,
      "t": 276025,
      "d": 1793.75,
      "v": 80
    },
    {
      "midi": 55,
      "hit": false,
      "t": 276025,
      "d": 1793.75,
      "v": 99
    },
    {
      "midi": 58,
      "hit": false,
      "t": 276025,
      "d": 1793.75,
      "v": 86
    },
    {
      "midi": 62,
      "hit": false,
      "t": 276025,
      "d": 1793.75,
      "v": 94
    },
    {
      "midi": 67,
      "hit": false,
      "t": 276025,
      "d": 1793.75,
      "v": 86
    },
    {
      "midi": 51,
      "hit": false,
      "t": 277825,
      "d": 593.75,
      "v": 85
    },
    {
      "midi": 55,
      "hit": false,
      "t": 277825,
      "d": 593.75,
      "v": 91
    },
    {
      "midi": 58,
      "hit": false,
      "t": 277825,
      "d": 593.75,
      "v": 69
    },
    {
      "midi": 62,
      "hit": false,
      "t": 277825,
      "d": 593.75,
      "v": 103
    },
    {
      "midi": 67,
      "hit": false,
      "t": 277825,
      "d": 593.75,
      "v": 86
    },
    {
      "midi": 53,
      "hit": false,
      "t": 278425,
      "d": 1793.75,
      "v": 84
    },
    {
      "midi": 60,
      "hit": false,
      "t": 278425,
      "d": 1793.75,
      "v": 81
    },
    {
      "midi": 65,
      "hit": false,
      "t": 278425,
      "d": 1793.75,
      "v": 85
    },
    {
      "midi": 67,
      "hit": false,
      "t": 278425,
      "d": 1793.75,
      "v": 65
    },
    {
      "midi": 58,
      "hit": false,
      "t": 280225,
      "d": 2993.75,
      "v": 84
    },
    {
      "midi": 60,
      "hit": false,
      "t": 280225,
      "d": 2993.75,
      "v": 84
    },
    {
      "midi": 65,
      "hit": false,
      "t": 280225,
      "d": 2993.75,
      "v": 84
    },
    {
      "midi": 67,
      "hit": false,
      "t": 280225,
      "d": 2993.75,
      "v": 84
    },
    {
      "midi": 53,
      "hit": false,
      "t": 283225,
      "d": 1193.75,
      "v": 87
    },
    {
      "midi": 57,
      "hit": false,
      "t": 283225,
      "d": 1193.75,
      "v": 91
    },
    {
      "midi": 60,
      "hit": false,
      "t": 283225,
      "d": 1193.75,
      "v": 99
    },
    {
      "midi": 65,
      "hit": false,
      "t": 283225,
      "d": 1193.75,
      "v": 86
    },
    {
      "midi": 53,
      "hit": false,
      "t": 284425,
      "d": 1193.75,
      "v": 78
    },
    {
      "midi": 57,
      "hit": false,
      "t": 284425,
      "d": 1193.75,
      "v": 85
    },
    {
      "midi": 60,
      "hit": false,
      "t": 284425,
      "d": 1193.75,
      "v": 87
    },
    {
      "midi": 65,
      "hit": false,
      "t": 284425,
      "d": 1193.75,
      "v": 82
    },
    {
      "midi": 53,
      "hit": false,
      "t": 285625,
      "d": 1193.75,
      "v": 84
    },
    {
      "midi": 58,
      "hit": false,
      "t": 285625,
      "d": 1193.75,
      "v": 89
    },
    {
      "midi": 62,
      "hit": false,
      "t": 285625,
      "d": 1193.75,
      "v": 86
    },
    {
      "midi": 43,
      "hit": false,
      "t": 285625,
      "d": 2393.75,
      "v": 59
    },
    {
      "midi": 53,
      "hit": false,
      "t": 286825,
      "d": 1193.75,
      "v": 101
    },
    {
      "midi": 58,
      "hit": false,
      "t": 286825,
      "d": 1193.75,
      "v": 99
    },
    {
      "midi": 62,
      "hit": false,
      "t": 286825,
      "d": 1193.75,
      "v": 85
    },
    {
      "midi": 50,
      "hit": false,
      "t": 288025,
      "d": 1193.75,
      "v": 81
    },
    {
      "midi": 57,
      "hit": false,
      "t": 288025,
      "d": 1193.75,
      "v": 105
    },
    {
      "midi": 62,
      "hit": false,
      "t": 288025,
      "d": 1193.75,
      "v": 84
    },
    {
      "midi": 42,
      "hit": false,
      "t": 288025,
      "d": 2393.75,
      "v": 82
    },
    {
      "midi": 54,
      "hit": false,
      "t": 289225,
      "d": 1193.75,
      "v": 99
    },
    {
      "midi": 57,
      "hit": false,
      "t": 289225,
      "d": 1193.75,
      "v": 109
    },
    {
      "midi": 58,
      "hit": false,
      "t": 290425,
      "d": 1193.75,
      "v": 78
    },
    {
      "midi": 62,
      "hit": false,
      "t": 290425,
      "d": 1193.75,
      "v": 91
    },
    {
      "midi": 67,
      "hit": false,
      "t": 290425,
      "d": 1193.75,
      "v": 86
    },
    {
      "midi": 41,
      "hit": false,
      "t": 290425,
      "d": 2393.75,
      "v": 90
    },
    {
      "midi": 53,
      "hit": false,
      "t": 290425,
      "d": 2393.75,
      "v": 87
    },
    {
      "midi": 58,
      "hit": false,
      "t": 291625,
      "d": 1193.75,
      "v": 94
    },
    {
      "midi": 65,
      "hit": false,
      "t": 291625,
      "d": 1193.75,
      "v": 100
    },
    {
      "midi": 70,
      "hit": false,
      "t": 291625,
      "d": 1193.75,
      "v": 97
    },
    {
      "midi": 39,
      "hit": false,
      "t": 292825,
      "d": 1193.75,
      "v": 82
    },
    {
      "midi": 55,
      "hit": false,
      "t": 292825,
      "d": 1193.75,
      "v": 70
    },
    {
      "midi": 58,
      "hit": false,
      "t": 292825,
      "d": 1193.75,
      "v": 65
    },
    {
      "midi": 62,
      "hit": false,
      "t": 292825,
      "d": 1193.75,
      "v": 75
    },
    {
      "midi": 62,
      "hit": false,
      "t": 294025,
      "d": 1193.75,
      "v": 84
    },
    {
      "midi": 65,
      "hit": false,
      "t": 294025,
      "d": 1193.75,
      "v": 84
    },
    {
      "midi": 67,
      "hit": false,
      "t": 294025,
      "d": 1193.75,
      "v": 84
    },
    {
      "midi": 70,
      "hit": false,
      "t": 294025,
      "d": 1193.75,
      "v": 84
    },
    {
      "midi": 74,
      "hit": false,
      "t": 294025,
      "d": 1193.75,
      "v": 84
    },
    {
      "midi": 60,
      "hit": false,
      "t": 295225,
      "d": 1193.75,
      "v": 67
    },
    {
      "midi": 63,
      "hit": false,
      "t": 295225,
      "d": 1193.75,
      "v": 76
    },
    {
      "midi": 67,
      "hit": false,
      "t": 295225,
      "d": 1193.75,
      "v": 89
    },
    {
      "midi": 70,
      "hit": false,
      "t": 295225,
      "d": 1193.75,
      "v": 73
    },
    {
      "midi": 72,
      "hit": false,
      "t": 295225,
      "d": 1193.75,
      "v": 78
    },
    {
      "midi": 58,
      "hit": false,
      "t": 296425,
      "d": 1193.75,
      "v": 82
    },
    {
      "midi": 62,
      "hit": false,
      "t": 296425,
      "d": 1193.75,
      "v": 85
    },
    {
      "midi": 63,
      "hit": false,
      "t": 296425,
      "d": 1193.75,
      "v": 91
    },
    {
      "midi": 67,
      "hit": false,
      "t": 296425,
      "d": 1193.75,
      "v": 89
    },
    {
      "midi": 70,
      "hit": false,
      "t": 296425,
      "d": 1193.75,
      "v": 86
    },
    {
      "midi": 53,
      "hit": false,
      "t": 297625,
      "d": 1193.75,
      "v": 87
    },
    {
      "midi": 57,
      "hit": false,
      "t": 297625,
      "d": 1193.75,
      "v": 95
    },
    {
      "midi": 62,
      "hit": false,
      "t": 297625,
      "d": 1193.75,
      "v": 88
    },
    {
      "midi": 53,
      "hit": false,
      "t": 298825,
      "d": 893.75,
      "v": 88
    },
    {
      "midi": 57,
      "hit": false,
      "t": 298825,
      "d": 893.75,
      "v": 101
    },
    {
      "midi": 60,
      "hit": false,
      "t": 298825,
      "d": 893.75,
      "v": 93
    },
    {
      "midi": 53,
      "hit": false,
      "t": 299725,
      "d": 1493.75,
      "v": 93
    },
    {
      "midi": 58,
      "hit": false,
      "t": 299725,
      "d": 1493.75,
      "v": 88
    },
    {
      "midi": 62,
      "hit": false,
      "t": 299725,
      "d": 1493.75,
      "v": 94
    },
    {
      "midi": 58,
      "hit": false,
      "t": 301225,
      "d": 1193.75,
      "v": 97
    },
    {
      "midi": 62,
      "hit": false,
      "t": 301225,
      "d": 1193.75,
      "v": 85
    },
    {
      "midi": 67,
      "hit": false,
      "t": 301225,
      "d": 1193.75,
      "v": 85
    },
    {
      "midi": 74,
      "hit": false,
      "t": 301225,
      "d": 1193.75,
      "v": 91
    },
    {
      "midi": 53,
      "hit": false,
      "t": 302425,
      "d": 1193.75,
      "v": 79
    },
    {
      "midi": 57,
      "hit": false,
      "t": 302425,
      "d": 1193.75,
      "v": 91
    },
    {
      "midi": 62,
      "hit": false,
      "t": 302425,
      "d": 1193.75,
      "v": 84
    },
    {
      "midi": 53,
      "hit": false,
      "t": 303625,
      "d": 1193.75,
      "v": 82
    },
    {
      "midi": 57,
      "hit": false,
      "t": 303625,
      "d": 1193.75,
      "v": 91
    },
    {
      "midi": 60,
      "hit": false,
      "t": 303625,
      "d": 1193.75,
      "v": 91
    },
    {
      "midi": 53,
      "hit": false,
      "t": 304825,
      "d": 4193.75,
      "v": 82
    },
    {
      "midi": 58,
      "hit": false,
      "t": 304825,
      "d": 4193.75,
      "v": 82
    },
    {
      "midi": 62,
      "hit": false,
      "t": 304825,
      "d": 4193.75,
      "v": 85
    },
    {
      "midi": 62,
      "hit": false,
      "t": 309025,
      "d": 306.25,
      "v": 93
    },
    {
      "midi": 67,
      "hit": false,
      "t": 309025,
      "d": 306.25,
      "v": 95
    },
    {
      "midi": 60,
      "hit": false,
      "t": 309625,
      "d": 1193.75,
      "v": 100
    },
    {
      "midi": 65,
      "hit": false,
      "t": 309625,
      "d": 1193.75,
      "v": 101
    },
    {
      "midi": 57,
      "hit": false,
      "t": 310825,
      "d": 1193.75,
      "v": 99
    },
    {
      "midi": 62,
      "hit": false,
      "t": 310825,
      "d": 1193.75,
      "v": 95
    },
    {
      "midi": 60,
      "hit": false,
      "t": 312025,
      "d": 243.75,
      "v": 103
    },
    {
      "midi": 65,
      "hit": false,
      "t": 312025,
      "d": 243.75,
      "v": 101
    },
    {
      "midi": 60,
      "hit": false,
      "t": 312625,
      "d": 556.25,
      "v": 103
    },
    {
      "midi": 65,
      "hit": false,
      "t": 312625,
      "d": 556.25,
      "v": 101
    },
    {
      "midi": 57,
      "hit": false,
      "t": 313225,
      "d": 2993.75,
      "v": 94
    },
    {
      "midi": 62,
      "hit": false,
      "t": 313225,
      "d": 2993.75,
      "v": 82
    },
    {
      "midi": 62,
      "hit": false,
      "t": 316225,
      "d": 268.75,
      "v": 103
    },
    {
      "midi": 67,
      "hit": false,
      "t": 316225,
      "d": 268.75,
      "v": 103
    },
    {
      "midi": 60,
      "hit": false,
      "t": 316825,
      "d": 1193.75,
      "v": 103
    },
    {
      "midi": 65,
      "hit": false,
      "t": 316825,
      "d": 1193.75,
      "v": 103
    },
    {
      "midi": 57,
      "hit": false,
      "t": 318025,
      "d": 1193.75,
      "v": 103
    },
    {
      "midi": 62,
      "hit": false,
      "t": 318025,
      "d": 1193.75,
      "v": 97
    },
    {
      "midi": 53,
      "hit": false,
      "t": 319225,
      "d": 1793.75,
      "v": 76
    },
    {
      "midi": 58,
      "hit": false,
      "t": 319225,
      "d": 1793.75,
      "v": 100
    },
    {
      "midi": 62,
      "hit": false,
      "t": 319225,
      "d": 1793.75,
      "v": 89
    },
    {
      "midi": 46,
      "hit": false,
      "t": 319225,
      "d": 4793.75,
      "v": 83
    },
    {
      "midi": 65,
      "hit": false,
      "t": 320125,
      "d": 893.75,
      "v": 88
    },
    {
      "midi": 60,
      "hit": false,
      "t": 321025,
      "d": 2093.75,
      "v": 88
    },
    {
      "midi": 53,
      "hit": false,
      "t": 321025,
      "d": 2993.75,
      "v": 76
    },
    {
      "midi": 57,
      "hit": false,
      "t": 321025,
      "d": 2993.75,
      "v": 87
    },
    {
      "midi": 60,
      "hit": false,
      "t": 323125,
      "d": 893.75,
      "v": 93
    },
    {
      "midi": 65,
      "hit": false,
      "t": 323425,
      "d": 593.75,
      "v": 102
    },
    {
      "midi": 53,
      "hit": false,
      "t": 324025,
      "d": 1793.75,
      "v": 76
    },
    {
      "midi": 58,
      "hit": false,
      "t": 324025,
      "d": 1793.75,
      "v": 100
    },
    {
      "midi": 62,
      "hit": false,
      "t": 324025,
      "d": 1793.75,
      "v": 89
    },
    {
      "midi": 43,
      "hit": false,
      "t": 324025,
      "d": 4793.75,
      "v": 83
    },
    {
      "midi": 65,
      "hit": false,
      "t": 324925,
      "d": 893.75,
      "v": 88
    },
    {
      "midi": 53,
      "hit": false,
      "t": 325825,
      "d": 1793.75,
      "v": 76
    },
    {
      "midi": 57,
      "hit": false,
      "t": 325825,
      "d": 1793.75,
      "v": 87
    },
    {
      "midi": 60,
      "hit": false,
      "t": 325825,
      "d": 1793.75,
      "v": 88
    },
    {
      "midi": 57,
      "hit": false,
      "t": 328225,
      "d": 593.75,
      "v": 103
    },
    {
      "midi": 60,
      "hit": false,
      "t": 328225,
      "d": 593.75,
      "v": 111
    },
    {
      "midi": 65,
      "hit": false,
      "t": 328225,
      "d": 593.75,
      "v": 100
    },
    {
      "midi": 58,
      "hit": false,
      "t": 328825,
      "d": 3593.75,
      "v": 121
    },
    {
      "midi": 62,
      "hit": false,
      "t": 328825,
      "d": 3593.75,
      "v": 117
    },
    {
      "midi": 67,
      "hit": false,
      "t": 328825,
      "d": 3593.75,
      "v": 117
    },
    {
      "midi": 58,
      "hit": false,
      "t": 332425,
      "d": 1193.75,
      "v": 110
    },
    {
      "midi": 62,
      "hit": false,
      "t": 332425,
      "d": 1193.75,
      "v": 119
    },
    {
      "midi": 67,
      "hit": false,
      "t": 332425,
      "d": 1193.75,
      "v": 104
    },
    {
      "midi": 57,
      "hit": false,
      "t": 333625,
      "d": 1193.75,
      "v": 121
    },
    {
      "midi": 60,
      "hit": false,
      "t": 333625,
      "d": 1193.75,
      "v": 113
    },
    {
      "midi": 65,
      "hit": false,
      "t": 333625,
      "d": 1193.75,
      "v": 107
    },
    {
      "midi": 57,
      "hit": false,
      "t": 334825,
      "d": 1193.75,
      "v": 115
    },
    {
      "midi": 60,
      "hit": false,
      "t": 334825,
      "d": 1193.75,
      "v": 121
    },
    {
      "midi": 65,
      "hit": false,
      "t": 334825,
      "d": 1193.75,
      "v": 113
    },
    {
      "midi": 53,
      "hit": false,
      "t": 336025,
      "d": 1193.75,
      "v": 94
    },
    {
      "midi": 58,
      "hit": false,
      "t": 336025,
      "d": 1193.75,
      "v": 94
    },
    {
      "midi": 62,
      "hit": false,
      "t": 336025,
      "d": 1193.75,
      "v": 94
    },
    {
      "midi": 65,
      "hit": false,
      "t": 336025,
      "d": 1193.75,
      "v": 94
    },
    {
      "midi": 53,
      "hit": false,
      "t": 337225,
      "d": 1193.75,
      "v": 109
    },
    {
      "midi": 58,
      "hit": false,
      "t": 337225,
      "d": 1193.75,
      "v": 109
    },
    {
      "midi": 62,
      "hit": false,
      "t": 337225,
      "d": 1193.75,
      "v": 109
    },
    {
      "midi": 65,
      "hit": false,
      "t": 337225,
      "d": 1193.75,
      "v": 109
    },
    {
      "midi": 55,
      "hit": false,
      "t": 338425,
      "d": 1193.75,
      "v": 109
    },
    {
      "midi": 58,
      "hit": false,
      "t": 338425,
      "d": 1193.75,
      "v": 99
    },
    {
      "midi": 62,
      "hit": false,
      "t": 338425,
      "d": 1193.75,
      "v": 110
    },
    {
      "midi": 67,
      "hit": false,
      "t": 338425,
      "d": 1193.75,
      "v": 102
    },
    {
      "midi": 55,
      "hit": false,
      "t": 339625,
      "d": 2393.75,
      "v": 117
    },
    {
      "midi": 58,
      "hit": false,
      "t": 339625,
      "d": 2393.75,
      "v": 113
    },
    {
      "midi": 62,
      "hit": false,
      "t": 339625,
      "d": 2393.75,
      "v": 117
    },
    {
      "midi": 67,
      "hit": false,
      "t": 339625,
      "d": 2393.75,
      "v": 110
    },
    {
      "midi": 55,
      "hit": false,
      "t": 342025,
      "d": 1193.75,
      "v": 111
    },
    {
      "midi": 58,
      "hit": false,
      "t": 342025,
      "d": 1193.75,
      "v": 107
    },
    {
      "midi": 62,
      "hit": false,
      "t": 342025,
      "d": 1193.75,
      "v": 113
    },
    {
      "midi": 67,
      "hit": false,
      "t": 342025,
      "d": 1193.75,
      "v": 107
    },
    {
      "midi": 57,
      "hit": false,
      "t": 343225,
      "d": 2393.75,
      "v": 94
    },
    {
      "midi": 60,
      "hit": false,
      "t": 343225,
      "d": 2393.75,
      "v": 111
    },
    {
      "midi": 64,
      "hit": false,
      "t": 343225,
      "d": 2393.75,
      "v": 98
    },
    {
      "midi": 65,
      "hit": false,
      "t": 343225,
      "d": 2393.75,
      "v": 107
    },
    {
      "midi": 69,
      "hit": false,
      "t": 343225,
      "d": 2393.75,
      "v": 110
    },
    {
      "midi": 53,
      "hit": false,
      "t": 345625,
      "d": 2393.75,
      "v": 100
    },
    {
      "midi": 57,
      "hit": false,
      "t": 345625,
      "d": 2393.75,
      "v": 105
    },
    {
      "midi": 60,
      "hit": false,
      "t": 345625,
      "d": 2393.75,
      "v": 105
    },
    {
      "midi": 62,
      "hit": false,
      "t": 345625,
      "d": 2393.75,
      "v": 96
    },
    {
      "midi": 65,
      "hit": false,
      "t": 345625,
      "d": 2393.75,
      "v": 99
    },
    {
      "midi": 55,
      "hit": false,
      "t": 348025,
      "d": 3593.75,
      "v": 115
    },
    {
      "midi": 58,
      "hit": false,
      "t": 348025,
      "d": 3593.75,
      "v": 109
    },
    {
      "midi": 62,
      "hit": false,
      "t": 348025,
      "d": 3593.75,
      "v": 109
    },
    {
      "midi": 63,
      "hit": false,
      "t": 348025,
      "d": 3593.75,
      "v": 115
    },
    {
      "midi": 67,
      "hit": false,
      "t": 348025,
      "d": 3593.75,
      "v": 102
    },
    {
      "midi": 62,
      "hit": false,
      "t": 351625,
      "d": 1193.75,
      "v": 109
    },
    {
      "midi": 65,
      "hit": false,
      "t": 351625,
      "d": 1193.75,
      "v": 96
    },
    {
      "midi": 67,
      "hit": false,
      "t": 351625,
      "d": 1193.75,
      "v": 104
    },
    {
      "midi": 70,
      "hit": false,
      "t": 351625,
      "d": 1193.75,
      "v": 119
    },
    {
      "midi": 74,
      "hit": false,
      "t": 351625,
      "d": 1193.75,
      "v": 109
    },
    {
      "midi": 60,
      "hit": false,
      "t": 352825,
      "d": 2393.75,
      "v": 98
    },
    {
      "midi": 62,
      "hit": false,
      "t": 352825,
      "d": 2393.75,
      "v": 86
    },
    {
      "midi": 65,
      "hit": false,
      "t": 352825,
      "d": 2393.75,
      "v": 92
    },
    {
      "midi": 69,
      "hit": false,
      "t": 352825,
      "d": 2393.75,
      "v": 92
    },
    {
      "midi": 72,
      "hit": false,
      "t": 352825,
      "d": 2393.75,
      "v": 83
    },
    {
      "midi": 53,
      "hit": false,
      "t": 355225,
      "d": 2393.75,
      "v": 91
    },
    {
      "midi": 55,
      "hit": false,
      "t": 355225,
      "d": 2393.75,
      "v": 103
    },
    {
      "midi": 58,
      "hit": false,
      "t": 355225,
      "d": 2393.75,
      "v": 92
    },
    {
      "midi": 62,
      "hit": false,
      "t": 355225,
      "d": 2393.75,
      "v": 102
    },
    {
      "midi": 65,
      "hit": false,
      "t": 355225,
      "d": 2393.75,
      "v": 92
    },
    {
      "midi": 56,
      "hit": false,
      "t": 357625,
      "d": 1193.75,
      "v": 94
    },
    {
      "midi": 68,
      "hit": false,
      "t": 357625,
      "d": 1193.75,
      "v": 94
    },
    {
      "midi": 65,
      "hit": false,
      "t": 357625,
      "d": 2393.75,
      "v": 94
    },
    {
      "midi": 60,
      "hit": false,
      "t": 357625,
      "d": 4793.75,
      "v": 94
    },
    {
      "midi": 63,
      "hit": false,
      "t": 357625,
      "d": 4793.75,
      "v": 94
    },
    {
      "midi": 55,
      "hit": false,
      "t": 358825,
      "d": 1193.75,
      "v": 94
    },
    {
      "midi": 67,
      "hit": false,
      "t": 358825,
      "d": 1193.75,
      "v": 94
    },
    {
      "midi": 53,
      "hit": false,
      "t": 360025,
      "d": 2393.75,
      "v": 94
    },
    {
      "midi": 65,
      "hit": false,
      "t": 360025,
      "d": 2393.75,
      "v": 94
    },
    {
      "midi": 60,
      "hit": false,
      "t": 362425,
      "d": 4793.75,
      "v": 92
    },
    {
      "midi": 65,
      "hit": false,
      "t": 362425,
      "d": 4793.75,
      "v": 92
    },
    {
      "midi": 67,
      "hit": false,
      "t": 362425,
      "d": 4793.75,
      "v": 92
    },
    {
      "midi": 70,
      "hit": false,
      "t": 362425,
      "d": 4793.75,
      "v": 92
    },
    {
      "midi": 72,
      "hit": false,
      "t": 362425,
      "d": 4793.75,
      "v": 92
    },
    {
      "midi": 46,
      "hit": false,
      "t": 367225,
      "d": 2393.75,
      "v": 78
    },
    {
      "midi": 53,
      "hit": false,
      "t": 367225,
      "d": 2393.75,
      "v": 74
    },
    {
      "midi": 58,
      "hit": false,
      "t": 367225,
      "d": 2393.75,
      "v": 73
    },
    {
      "midi": 62,
      "hit": false,
      "t": 367225,
      "d": 2393.75,
      "v": 72
    },
    {
      "midi": 46,
      "hit": false,
      "t": 369625,
      "d": 2393.75,
      "v": 64
    },
    {
      "midi": 55,
      "hit": false,
      "t": 369625,
      "d": 2393.75,
      "v": 72
    },
    {
      "midi": 60,
      "hit": false,
      "t": 369625,
      "d": 2393.75,
      "v": 88
    },
    {
      "midi": 64,
      "hit": false,
      "t": 369625,
      "d": 2393.75,
      "v": 84
    },
    {
      "midi": 44,
      "hit": false,
      "t": 372025,
      "d": 2393.75,
      "v": 89
    },
    {
      "midi": 55,
      "hit": false,
      "t": 372025,
      "d": 2393.75,
      "v": 68
    },
    {
      "midi": 60,
      "hit": false,
      "t": 372025,
      "d": 2393.75,
      "v": 84
    },
    {
      "midi": 63,
      "hit": false,
      "t": 372025,
      "d": 2393.75,
      "v": 82
    },
    {
      "midi": 53,
      "hit": false,
      "t": 374425,
      "d": 4793.75,
      "v": 82
    },
    {
      "midi": 58,
      "hit": false,
      "t": 374425,
      "d": 4793.75,
      "v": 67
    },
    {
      "midi": 62,
      "hit": false,
      "t": 374425,
      "d": 4793.75,
      "v": 49
    },
    {
      "midi": 62,
      "hit": false,
      "t": 379225,
      "d": 1193.75,
      "v": 84
    },
    {
      "midi": 53,
      "hit": false,
      "t": 379225,
      "d": 2393.75,
      "v": 84
    },
    {
      "midi": 57,
      "hit": false,
      "t": 379225,
      "d": 2393.75,
      "v": 91
    },
    {
      "midi": 60,
      "hit": false,
      "t": 380425,
      "d": 1193.75,
      "v": 78
    },
    {
      "midi": 53,
      "hit": false,
      "t": 381625,
      "d": 2393.75,
      "v": 81
    },
    {
      "midi": 58,
      "hit": false,
      "t": 381625,
      "d": 2393.75,
      "v": 73
    },
    {
      "midi": 62,
      "hit": false,
      "t": 381625,
      "d": 2393.75,
      "v": 86
    },
    {
      "midi": 58,
      "hit": false,
      "t": 384025,
      "d": 2393.75,
      "v": 79
    },
    {
      "midi": 62,
      "hit": false,
      "t": 384025,
      "d": 2393.75,
      "v": 85
    },
    {
      "midi": 67,
      "hit": false,
      "t": 384025,
      "d": 2393.75,
      "v": 64
    },
    {
      "midi": 63,
      "hit": false,
      "t": 386425,
      "d": 2393.75,
      "v": 82
    },
    {
      "midi": 58,
      "hit": false,
      "t": 386425,
      "d": 4793.75,
      "v": 88
    },
    {
      "midi": 65,
      "hit": false,
      "t": 386425,
      "d": 4793.75,
      "v": 85
    },
    {
      "midi": 60,
      "hit": false,
      "t": 388825,
      "d": 2393.75,
      "v": 95
    },
    {
      "midi": 57,
      "hit": false,
      "t": 391225,
      "d": 2393.75,
      "v": 75
    },
    {
      "midi": 53,
      "hit": false,
      "t": 393625,
      "d": 2381.25,
      "v": 72
    },
    {
      "midi": 58,
      "hit": false,
      "t": 393625,
      "d": 2381.25,
      "v": 66
    },
    {
      "midi": 62,
      "hit": false,
      "t": 393625,
      "d": 2381.25,
      "v": 70
    },
    {
      "midi": 57,
      "hit": false,
      "t": 396025,
      "d": 1193.75,
      "v": 82
    },
    {
      "midi": 54,
      "hit": false,
      "t": 396025,
      "d": 2393.75,
      "v": 71
    },
    {
      "midi": 62,
      "hit": false,
      "t": 396025,
      "d": 2393.75,
      "v": 76
    },
    {
      "midi": 57,
      "hit": false,
      "t": 397225,
      "d": 1193.75,
      "v": 84
    },
    {
      "midi": 53,
      "hit": false,
      "t": 398425,
      "d": 2393.75,
      "v": 74
    },
    {
      "midi": 58,
      "hit": false,
      "t": 398425,
      "d": 2393.75,
      "v": 86
    },
    {
      "midi": 62,
      "hit": false,
      "t": 398425,
      "d": 2393.75,
      "v": 72
    },
    {
      "midi": 39,
      "hit": false,
      "t": 400825,
      "d": 4793.75,
      "v": 66
    },
    {
      "midi": 53,
      "hit": false,
      "t": 400825,
      "d": 4793.75,
      "v": 66
    },
    {
      "midi": 55,
      "hit": false,
      "t": 400825,
      "d": 4793.75,
      "v": 66
    },
    {
      "midi": 58,
      "hit": false,
      "t": 400825,
      "d": 4793.75,
      "v": 66
    },
    {
      "midi": 62,
      "hit": false,
      "t": 400825,
      "d": 4793.75,
      "v": 66
    },
    {
      "midi": 67,
      "hit": false,
      "t": 402325,
      "d": 3293.75,
      "v": 79
    },
    {
      "midi": 74,
      "hit": false,
      "t": 403225,
      "d": 2393.75,
      "v": 67
    },
    {
      "midi": 79,
      "hit": false,
      "t": 403225,
      "d": 2393.75,
      "v": 64
    },
    {
      "midi": 53,
      "hit": false,
      "t": 405625,
      "d": 2393.75,
      "v": 72
    },
    {
      "midi": 57,
      "hit": false,
      "t": 405625,
      "d": 2393.75,
      "v": 90
    },
    {
      "midi": 60,
      "hit": false,
      "t": 405625,
      "d": 2393.75,
      "v": 90
    },
    {
      "midi": 53,
      "hit": false,
      "t": 408025,
      "d": 2393.75,
      "v": 85
    },
    {
      "midi": 58,
      "hit": false,
      "t": 408025,
      "d": 2393.75,
      "v": 73
    },
    {
      "midi": 62,
      "hit": false,
      "t": 408025,
      "d": 2393.75,
      "v": 82
    },
    {
      "midi": 53,
      "hit": false,
      "t": 410425,
      "d": 2393.75,
      "v": 63
    },
    {
      "midi": 57,
      "hit": false,
      "t": 410425,
      "d": 2393.75,
      "v": 79
    },
    {
      "midi": 62,
      "hit": false,
      "t": 410425,
      "d": 2393.75,
      "v": 72
    },
    {
      "midi": 53,
      "hit": false,
      "t": 412825,
      "d": 4193.75,
      "v": 82
    },
    {
      "midi": 58,
      "hit": false,
      "t": 412825,
      "d": 4193.75,
      "v": 65
    },
    {
      "midi": 62,
      "hit": false,
      "t": 412825,
      "d": 4193.75,
      "v": 82
    },
    {
      "midi": 62,
      "hit": false,
      "t": 417025,
      "d": 306.25,
      "v": 93
    },
    {
      "midi": 67,
      "hit": false,
      "t": 417025,
      "d": 306.25,
      "v": 95
    },
    {
      "midi": 60,
      "hit": false,
      "t": 417625,
      "d": 1193.75,
      "v": 100
    },
    {
      "midi": 65,
      "hit": false,
      "t": 417625,
      "d": 1193.75,
      "v": 101
    },
    {
      "midi": 57,
      "hit": false,
      "t": 418825,
      "d": 1193.75,
      "v": 99
    },
    {
      "midi": 62,
      "hit": false,
      "t": 418825,
      "d": 1193.75,
      "v": 95
    },
    {
      "midi": 60,
      "hit": false,
      "t": 420025,
      "d": 243.75,
      "v": 103
    },
    {
      "midi": 65,
      "hit": false,
      "t": 420025,
      "d": 243.75,
      "v": 101
    },
    {
      "midi": 60,
      "hit": false,
      "t": 420625,
      "d": 556.25,
      "v": 103
    },
    {
      "midi": 65,
      "hit": false,
      "t": 420625,
      "d": 556.25,
      "v": 101
    },
    {
      "midi": 57,
      "hit": false,
      "t": 421225,
      "d": 2993.75,
      "v": 94
    },
    {
      "midi": 62,
      "hit": false,
      "t": 421225,
      "d": 2993.75,
      "v": 82
    },
    {
      "midi": 62,
      "hit": false,
      "t": 424225,
      "d": 268.75,
      "v": 103
    },
    {
      "midi": 67,
      "hit": false,
      "t": 424225,
      "d": 268.75,
      "v": 103
    },
    {
      "midi": 60,
      "hit": false,
      "t": 424825,
      "d": 1193.75,
      "v": 103
    },
    {
      "midi": 65,
      "hit": false,
      "t": 424825,
      "d": 1193.75,
      "v": 103
    },
    {
      "midi": 57,
      "hit": false,
      "t": 426025,
      "d": 1193.75,
      "v": 103
    },
    {
      "midi": 62,
      "hit": false,
      "t": 426025,
      "d": 1193.75,
      "v": 97
    },
    {
      "midi": 53,
      "hit": false,
      "t": 427225,
      "d": 1793.75,
      "v": 71
    },
    {
      "midi": 58,
      "hit": false,
      "t": 427225,
      "d": 1793.75,
      "v": 92
    },
    {
      "midi": 62,
      "hit": false,
      "t": 427225,
      "d": 1793.75,
      "v": 82
    },
    {
      "midi": 46,
      "hit": false,
      "t": 427225,
      "d": 4793.75,
      "v": 77
    },
    {
      "midi": 65,
      "hit": false,
      "t": 428125,
      "d": 893.75,
      "v": 82
    },
    {
      "midi": 60,
      "hit": false,
      "t": 429025,
      "d": 2093.75,
      "v": 82
    },
    {
      "midi": 53,
      "hit": false,
      "t": 429025,
      "d": 2993.75,
      "v": 71
    },
    {
      "midi": 57,
      "hit": false,
      "t": 429025,
      "d": 2993.75,
      "v": 81
    },
    {
      "midi": 65,
      "hit": false,
      "t": 431425,
      "d": 593.75,
      "v": 82
    },
    {
      "midi": 53,
      "hit": false,
      "t": 432025,
      "d": 1793.75,
      "v": 71
    },
    {
      "midi": 58,
      "hit": false,
      "t": 432025,
      "d": 1793.75,
      "v": 92
    },
    {
      "midi": 62,
      "hit": false,
      "t": 432025,
      "d": 1793.75,
      "v": 82
    },
    {
      "midi": 43,
      "hit": false,
      "t": 432025,
      "d": 4793.75,
      "v": 62
    },
    {
      "midi": 65,
      "hit": false,
      "t": 432925,
      "d": 893.75,
      "v": 81
    },
    {
      "midi": 60,
      "hit": false,
      "t": 433825,
      "d": 2093.75,
      "v": 81
    },
    {
      "midi": 53,
      "hit": false,
      "t": 433825,
      "d": 2993.75,
      "v": 70
    },
    {
      "midi": 57,
      "hit": false,
      "t": 433825,
      "d": 2993.75,
      "v": 80
    },
    {
      "midi": 65,
      "hit": false,
      "t": 436225,
      "d": 593.75,
      "v": 81
    },
    {
      "midi": 53,
      "hit": false,
      "t": 436825,
      "d": 1793.75,
      "v": 70
    },
    {
      "midi": 58,
      "hit": false,
      "t": 436825,
      "d": 1793.75,
      "v": 91
    },
    {
      "midi": 62,
      "hit": false,
      "t": 436825,
      "d": 1793.75,
      "v": 82
    },
    {
      "midi": 46,
      "hit": false,
      "t": 436825,
      "d": 4793.75,
      "v": 76
    },
    {
      "midi": 65,
      "hit": false,
      "t": 437725,
      "d": 893.75,
      "v": 81
    },
    {
      "midi": 60,
      "hit": false,
      "t": 438625,
      "d": 2093.75,
      "v": 80
    },
    {
      "midi": 53,
      "hit": false,
      "t": 438625,
      "d": 2993.75,
      "v": 70
    },
    {
      "midi": 57,
      "hit": false,
      "t": 438625,
      "d": 2993.75,
      "v": 79
    },
    {
      "midi": 65,
      "hit": false,
      "t": 441025,
      "d": 593.75,
      "v": 80
    },
    {
      "midi": 53,
      "hit": false,
      "t": 441625,
      "d": 1793.75,
      "v": 70
    },
    {
      "midi": 58,
      "hit": false,
      "t": 441625,
      "d": 1793.75,
      "v": 91
    },
    {
      "midi": 62,
      "hit": false,
      "t": 441625,
      "d": 1793.75,
      "v": 81
    },
    {
      "midi": 43,
      "hit": false,
      "t": 441625,
      "d": 4793.75,
      "v": 61
    },
    {
      "midi": 65,
      "hit": false,
      "t": 442525,
      "d": 893.75,
      "v": 80
    },
    {
      "midi": 60,
      "hit": false,
      "t": 443425,
      "d": 2093.75,
      "v": 79
    },
    {
      "midi": 53,
      "hit": false,
      "t": 443425,
      "d": 2993.75,
      "v": 69
    },
    {
      "midi": 57,
      "hit": false,
      "t": 443425,
      "d": 2993.75,
      "v": 79
    },
    {
      "midi": 65,
      "hit": false,
      "t": 445825,
      "d": 593.75,
      "v": 79
    },
    {
      "midi": 53,
      "hit": false,
      "t": 446425,
      "d": 1793.75,
      "v": 69
    },
    {
      "midi": 58,
      "hit": false,
      "t": 446425,
      "d": 1793.75,
      "v": 91
    },
    {
      "midi": 62,
      "hit": false,
      "t": 446425,
      "d": 1793.75,
      "v": 80
    },
    {
      "midi": 46,
      "hit": false,
      "t": 446425,
      "d": 4793.75,
      "v": 75
    },
    {
      "midi": 65,
      "hit": false,
      "t": 447325,
      "d": 893.75,
      "v": 79
    },
    {
      "midi": 60,
      "hit": false,
      "t": 448225,
      "d": 2093.75,
      "v": 79
    },
    {
      "midi": 53,
      "hit": false,
      "t": 448225,
      "d": 2993.75,
      "v": 69
    },
    {
      "midi": 57,
      "hit": false,
      "t": 448225,
      "d": 2993.75,
      "v": 79
    },
    {
      "midi": 65,
      "hit": false,
      "t": 450625,
      "d": 593.75,
      "v": 79
    },
    {
      "midi": 53,
      "hit": false,
      "t": 451225,
      "d": 1793.75,
      "v": 68
    },
    {
      "midi": 58,
      "hit": false,
      "t": 451225,
      "d": 1793.75,
      "v": 90
    },
    {
      "midi": 62,
      "hit": false,
      "t": 451225,
      "d": 1793.75,
      "v": 80
    },
    {
      "midi": 43,
      "hit": false,
      "t": 451225,
      "d": 4793.75,
      "v": 60
    },
    {
      "midi": 65,
      "hit": false,
      "t": 452125,
      "d": 893.75,
      "v": 79
    },
    {
      "midi": 60,
      "hit": false,
      "t": 453025,
      "d": 2093.75,
      "v": 79
    },
    {
      "midi": 53,
      "hit": false,
      "t": 453025,
      "d": 2993.75,
      "v": 68
    },
    {
      "midi": 57,
      "hit": false,
      "t": 453025,
      "d": 2993.75,
      "v": 78
    },
    {
      "midi": 65,
      "hit": false,
      "t": 455425,
      "d": 593.75,
      "v": 78
    },
    {
      "midi": 53,
      "hit": false,
      "t": 456025,
      "d": 1793.75,
      "v": 68
    },
    {
      "midi": 58,
      "hit": false,
      "t": 456025,
      "d": 1793.75,
      "v": 89
    },
    {
      "midi": 62,
      "hit": false,
      "t": 456025,
      "d": 1793.75,
      "v": 79
    },
    {
      "midi": 46,
      "hit": false,
      "t": 456025,
      "d": 4793.75,
      "v": 74
    },
    {
      "midi": 65,
      "hit": false,
      "t": 456925,
      "d": 893.75,
      "v": 78
    },
    {
      "midi": 60,
      "hit": false,
      "t": 457825,
      "d": 2093.75,
      "v": 78
    },
    {
      "midi": 53,
      "hit": false,
      "t": 457825,
      "d": 2993.75,
      "v": 68
    },
    {
      "midi": 57,
      "hit": false,
      "t": 457825,
      "d": 2993.75,
      "v": 77
    },
    {
      "midi": 65,
      "hit": false,
      "t": 460225,
      "d": 593.75,
      "v": 77
    },
    {
      "midi": 53,
      "hit": false,
      "t": 460825,
      "d": 1793.75,
      "v": 67
    },
    {
      "midi": 58,
      "hit": false,
      "t": 460825,
      "d": 1793.75,
      "v": 88
    },
    {
      "midi": 62,
      "hit": false,
      "t": 460825,
      "d": 1793.75,
      "v": 78
    },
    {
      "midi": 43,
      "hit": false,
      "t": 460825,
      "d": 4793.75,
      "v": 59
    },
    {
      "midi": 65,
      "hit": false,
      "t": 461725,
      "d": 893.75,
      "v": 77
    },
    {
      "midi": 60,
      "hit": false,
      "t": 462625,
      "d": 2093.75,
      "v": 77
    },
    {
      "midi": 53,
      "hit": false,
      "t": 462625,
      "d": 2993.75,
      "v": 67
    },
    {
      "midi": 57,
      "hit": false,
      "t": 462625,
      "d": 2993.75,
      "v": 76
    },
    {
      "midi": 65,
      "hit": false,
      "t": 465025,
      "d": 593.75,
      "v": 76
    },
    {
      "midi": 53,
      "hit": false,
      "t": 465625,
      "d": 1793.75,
      "v": 67
    },
    {
      "midi": 58,
      "hit": false,
      "t": 465625,
      "d": 1793.75,
      "v": 87
    },
    {
      "midi": 62,
      "hit": false,
      "t": 465625,
      "d": 1793.75,
      "v": 77
    },
    {
      "midi": 46,
      "hit": false,
      "t": 465625,
      "d": 4793.75,
      "v": 73
    },
    {
      "midi": 65,
      "hit": false,
      "t": 466525,
      "d": 893.75,
      "v": 76
    },
    {
      "midi": 60,
      "hit": false,
      "t": 467425,
      "d": 2093.75,
      "v": 76
    },
    {
      "midi": 53,
      "hit": false,
      "t": 467425,
      "d": 2993.75,
      "v": 67
    },
    {
      "midi": 57,
      "hit": false,
      "t": 467425,
      "d": 2993.75,
      "v": 76
    },
    {
      "midi": 65,
      "hit": false,
      "t": 469825,
      "d": 593.75,
      "v": 76
    },
    {
      "midi": 53,
      "hit": false,
      "t": 470425,
      "d": 1793.75,
      "v": 66
    },
    {
      "midi": 58,
      "hit": false,
      "t": 470425,
      "d": 1793.75,
      "v": 86
    },
    {
      "midi": 62,
      "hit": false,
      "t": 470425,
      "d": 1793.75,
      "v": 77
    },
    {
      "midi": 43,
      "hit": false,
      "t": 470425,
      "d": 4793.75,
      "v": 58
    },
    {
      "midi": 65,
      "hit": false,
      "t": 471325,
      "d": 893.75,
      "v": 76
    },
    {
      "midi": 60,
      "hit": false,
      "t": 472225,
      "d": 2093.75,
      "v": 76
    },
    {
      "midi": 53,
      "hit": false,
      "t": 472225,
      "d": 2993.75,
      "v": 66
    },
    {
      "midi": 57,
      "hit": false,
      "t": 472225,
      "d": 2993.75,
      "v": 75
    },
    {
      "midi": 65,
      "hit": false,
      "t": 474625,
      "d": 593.75,
      "v": 76
    },
    {
      "midi": 53,
      "hit": false,
      "t": 475225,
      "d": 1793.75,
      "v": 65
    },
    {
      "midi": 58,
      "hit": false,
      "t": 475225,
      "d": 1793.75,
      "v": 85
    },
    {
      "midi": 62,
      "hit": false,
      "t": 475225,
      "d": 1793.75,
      "v": 76
    },
    {
      "midi": 46,
      "hit": false,
      "t": 475225,
      "d": 4793.75,
      "v": 72
    },
    {
      "midi": 65,
      "hit": false,
      "t": 476125,
      "d": 893.75,
      "v": 75
    },
    {
      "midi": 60,
      "hit": false,
      "t": 477025,
      "d": 2093.75,
      "v": 75
    },
    {
      "midi": 53,
      "hit": false,
      "t": 477025,
      "d": 2993.75,
      "v": 65
    },
    {
      "midi": 57,
      "hit": false,
      "t": 477025,
      "d": 2993.75,
      "v": 74
    },
    {
      "midi": 65,
      "hit": false,
      "t": 479425,
      "d": 593.75,
      "v": 75
    },
    {
      "midi": 53,
      "hit": false,
      "t": 480025,
      "d": 1793.75,
      "v": 65
    },
    {
      "midi": 58,
      "hit": false,
      "t": 480025,
      "d": 1793.75,
      "v": 85
    },
    {
      "midi": 62,
      "hit": false,
      "t": 480025,
      "d": 1793.75,
      "v": 76
    },
    {
      "midi": 43,
      "hit": false,
      "t": 480025,
      "d": 4793.75,
      "v": 58
    },
    {
      "midi": 65,
      "hit": false,
      "t": 480925,
      "d": 893.75,
      "v": 74
    },
    {
      "midi": 60,
      "hit": false,
      "t": 481825,
      "d": 2093.75,
      "v": 74
    },
    {
      "midi": 53,
      "hit": false,
      "t": 481825,
      "d": 2993.75,
      "v": 65
    },
    {
      "midi": 57,
      "hit": false,
      "t": 481825,
      "d": 2993.75,
      "v": 73
    },
    {
      "midi": 65,
      "hit": false,
      "t": 484225,
      "d": 593.75,
      "v": 74
    },
    {
      "midi": 53,
      "hit": false,
      "t": 484825,
      "d": 1793.75,
      "v": 65
    },
    {
      "midi": 58,
      "hit": false,
      "t": 484825,
      "d": 1793.75,
      "v": 84
    },
    {
      "midi": 62,
      "hit": false,
      "t": 484825,
      "d": 1793.75,
      "v": 75
    },
    {
      "midi": 46,
      "hit": false,
      "t": 484825,
      "d": 4793.75,
      "v": 71
    },
    {
      "midi": 65,
      "hit": false,
      "t": 485725,
      "d": 893.75,
      "v": 73
    },
    {
      "midi": 60,
      "hit": false,
      "t": 486625,
      "d": 2093.75,
      "v": 73
    },
    {
      "midi": 53,
      "hit": false,
      "t": 486625,
      "d": 2993.75,
      "v": 64
    },
    {
      "midi": 57,
      "hit": false,
      "t": 486625,
      "d": 2993.75,
      "v": 73
    },
    {
      "midi": 65,
      "hit": false,
      "t": 489025,
      "d": 593.75,
      "v": 73
    },
    {
      "midi": 53,
      "hit": false,
      "t": 489625,
      "d": 1793.75,
      "v": 64
    },
    {
      "midi": 58,
      "hit": false,
      "t": 489625,
      "d": 1793.75,
      "v": 84
    },
    {
      "midi": 62,
      "hit": false,
      "t": 489625,
      "d": 1793.75,
      "v": 74
    },
    {
      "midi": 43,
      "hit": false,
      "t": 489625,
      "d": 4793.75,
      "v": 57
    },
    {
      "midi": 65,
      "hit": false,
      "t": 490525,
      "d": 893.75,
      "v": 73
    },
    {
      "midi": 60,
      "hit": false,
      "t": 491425,
      "d": 2093.75,
      "v": 73
    },
    {
      "midi": 53,
      "hit": false,
      "t": 491425,
      "d": 2993.75,
      "v": 64
    },
    {
      "midi": 57,
      "hit": false,
      "t": 491425,
      "d": 2993.75,
      "v": 73
    },
    {
      "midi": 65,
      "hit": false,
      "t": 493825,
      "d": 593.75,
      "v": 73
    },
    {
      "midi": 53,
      "hit": false,
      "t": 494425,
      "d": 1793.75,
      "v": 64
    },
    {
      "midi": 58,
      "hit": false,
      "t": 494425,
      "d": 1793.75,
      "v": 83
    },
    {
      "midi": 62,
      "hit": false,
      "t": 494425,
      "d": 1793.75,
      "v": 74
    },
    {
      "midi": 46,
      "hit": false,
      "t": 494425,
      "d": 4793.75,
      "v": 70
    },
    {
      "midi": 65,
      "hit": false,
      "t": 495325,
      "d": 893.75,
      "v": 73
    },
    {
      "midi": 60,
      "hit": false,
      "t": 496225,
      "d": 2093.75,
      "v": 73
    },
    {
      "midi": 53,
      "hit": false,
      "t": 496225,
      "d": 2993.75,
      "v": 64
    },
    {
      "midi": 57,
      "hit": false,
      "t": 496225,
      "d": 2993.75,
      "v": 72
    },
    {
      "midi": 65,
      "hit": false,
      "t": 498625,
      "d": 593.75,
      "v": 73
    },
    {
      "midi": 53,
      "hit": false,
      "t": 499225,
      "d": 1793.75,
      "v": 64
    },
    {
      "midi": 58,
      "hit": false,
      "t": 499225,
      "d": 1793.75,
      "v": 82
    },
    {
      "midi": 62,
      "hit": false,
      "t": 499225,
      "d": 1793.75,
      "v": 73
    },
    {
      "midi": 43,
      "hit": false,
      "t": 499225,
      "d": 4793.75,
      "v": 56
    },
    {
      "midi": 65,
      "hit": false,
      "t": 500125,
      "d": 893.75,
      "v": 73
    },
    {
      "midi": 60,
      "hit": false,
      "t": 501025,
      "d": 2093.75,
      "v": 73
    },
    {
      "midi": 53,
      "hit": false,
      "t": 501025,
      "d": 2993.75,
      "v": 64
    },
    {
      "midi": 57,
      "hit": false,
      "t": 501025,
      "d": 2993.75,
      "v": 72
    },
    {
      "midi": 65,
      "hit": false,
      "t": 503425,
      "d": 593.75,
      "v": 72
    },
    {
      "midi": 53,
      "hit": false,
      "t": 504025,
      "d": 1793.75,
      "v": 63
    },
    {
      "midi": 58,
      "hit": false,
      "t": 504025,
      "d": 1793.75,
      "v": 82
    },
    {
      "midi": 62,
      "hit": false,
      "t": 504025,
      "d": 1793.75,
      "v": 73
    },
    {
      "midi": 46,
      "hit": false,
      "t": 504025,
      "d": 4793.75,
      "v": 68
    },
    {
      "midi": 65,
      "hit": false,
      "t": 504925,
      "d": 893.75,
      "v": 72
    },
    {
      "midi": 60,
      "hit": false,
      "t": 505825,
      "d": 2093.75,
      "v": 72
    },
    {
      "midi": 53,
      "hit": false,
      "t": 505825,
      "d": 2993.75,
      "v": 63
    },
    {
      "midi": 57,
      "hit": false,
      "t": 505825,
      "d": 2993.75,
      "v": 71
    },
    {
      "midi": 65,
      "hit": false,
      "t": 508225,
      "d": 593.75,
      "v": 72
    },
    {
      "midi": 53,
      "hit": false,
      "t": 508825,
      "d": 1793.75,
      "v": 63
    },
    {
      "midi": 58,
      "hit": false,
      "t": 508825,
      "d": 1793.75,
      "v": 81
    },
    {
      "midi": 62,
      "hit": false,
      "t": 508825,
      "d": 1793.75,
      "v": 72
    },
    {
      "midi": 43,
      "hit": false,
      "t": 508825,
      "d": 4793.75,
      "v": 55
    },
    {
      "midi": 65,
      "hit": false,
      "t": 509725,
      "d": 893.75,
      "v": 72
    },
    {
      "midi": 60,
      "hit": false,
      "t": 510625,
      "d": 2093.75,
      "v": 72
    },
    {
      "midi": 53,
      "hit": false,
      "t": 510625,
      "d": 2993.75,
      "v": 63
    },
    {
      "midi": 57,
      "hit": false,
      "t": 510625,
      "d": 2993.75,
      "v": 71
    },
    {
      "midi": 65,
      "hit": false,
      "t": 513025,
      "d": 593.75,
      "v": 71
    },
    {
      "midi": 53,
      "hit": false,
      "t": 513625,
      "d": 1793.75,
      "v": 62
    },
    {
      "midi": 58,
      "hit": false,
      "t": 513625,
      "d": 1793.75,
      "v": 80
    },
    {
      "midi": 62,
      "hit": false,
      "t": 513625,
      "d": 1793.75,
      "v": 72
    },
    {
      "midi": 46,
      "hit": false,
      "t": 513625,
      "d": 4793.75,
      "v": 67
    },
    {
      "midi": 65,
      "hit": false,
      "t": 514525,
      "d": 893.75,
      "v": 71
    },
    {
      "midi": 60,
      "hit": false,
      "t": 515425,
      "d": 2093.75,
      "v": 71
    },
    {
      "midi": 53,
      "hit": false,
      "t": 515425,
      "d": 2993.75,
      "v": 62
    },
    {
      "midi": 57,
      "hit": false,
      "t": 515425,
      "d": 2993.75,
      "v": 70
    },
    {
      "midi": 65,
      "hit": false,
      "t": 517825,
      "d": 593.75,
      "v": 70
    },
    {
      "midi": 53,
      "hit": false,
      "t": 518425,
      "d": 1793.75,
      "v": 62
    },
    {
      "midi": 58,
      "hit": false,
      "t": 518425,
      "d": 1793.75,
      "v": 79
    },
    {
      "midi": 62,
      "hit": false,
      "t": 518425,
      "d": 1793.75,
      "v": 71
    },
    {
      "midi": 43,
      "hit": false,
      "t": 518425,
      "d": 4793.75,
      "v": 55
    },
    {
      "midi": 65,
      "hit": false,
      "t": 519325,
      "d": 893.75,
      "v": 70
    },
    {
      "midi": 60,
      "hit": false,
      "t": 520225,
      "d": 2093.75,
      "v": 70
    },
    {
      "midi": 53,
      "hit": false,
      "t": 520225,
      "d": 2993.75,
      "v": 62
    },
    {
      "midi": 57,
      "hit": false,
      "t": 520225,
      "d": 2993.75,
      "v": 69
    },
    {
      "midi": 65,
      "hit": false,
      "t": 522625,
      "d": 593.75,
      "v": 69
    },
    {
      "midi": 53,
      "hit": false,
      "t": 523225,
      "d": 1793.75,
      "v": 61
    },
    {
      "midi": 58,
      "hit": false,
      "t": 523225,
      "d": 1793.75,
      "v": 78
    },
    {
      "midi": 62,
      "hit": false,
      "t": 523225,
      "d": 1793.75,
      "v": 70
    },
    {
      "midi": 46,
      "hit": false,
      "t": 523225,
      "d": 4793.75,
      "v": 66
    },
    {
      "midi": 65,
      "hit": false,
      "t": 524125,
      "d": 893.75,
      "v": 69
    },
    {
      "midi": 60,
      "hit": false,
      "t": 525025,
      "d": 2093.75,
      "v": 69
    },
    {
      "midi": 53,
      "hit": false,
      "t": 525025,
      "d": 2993.75,
      "v": 61
    },
    {
      "midi": 57,
      "hit": false,
      "t": 525025,
      "d": 2993.75,
      "v": 69
    },
    {
      "midi": 65,
      "hit": false,
      "t": 527425,
      "d": 593.75,
      "v": 69
    },
    {
      "midi": 53,
      "hit": false,
      "t": 528025,
      "d": 1793.75,
      "v": 60
    },
    {
      "midi": 58,
      "hit": false,
      "t": 528025,
      "d": 1793.75,
      "v": 77
    },
    {
      "midi": 62,
      "hit": false,
      "t": 528025,
      "d": 1793.75,
      "v": 69
    },
    {
      "midi": 43,
      "hit": false,
      "t": 528025,
      "d": 4793.75,
      "v": 54
    },
    {
      "midi": 65,
      "hit": false,
      "t": 528925,
      "d": 893.75,
      "v": 69
    },
    {
      "midi": 60,
      "hit": false,
      "t": 529825,
      "d": 2093.75,
      "v": 69
    },
    {
      "midi": 53,
      "hit": false,
      "t": 529825,
      "d": 2975,
      "v": 60
    },
    {
      "midi": 57,
      "hit": false,
      "t": 529825,
      "d": 2993.75,
      "v": 68
    },
    {
      "midi": 65,
      "hit": false,
      "t": 532225,
      "d": 575,
      "v": 69
    },
    {
      "midi": 46,
      "hit": false,
      "t": 532800,
      "d": 4793.75,
      "v": 62
    },
    {
      "midi": 53,
      "hit": false,
      "t": 532800,
      "d": 4793.75,
      "v": 68
    },
    {
      "midi": 60,
      "hit": false,
      "t": 532800,
      "d": 4793.75,
      "v": 73
    },
    {
      "midi": 65,
      "hit": false,
      "t": 532800,
      "d": 4793.75,
      "v": 66
    },
    {
      "midi": 62,
      "hit": false,
      "t": 532912.5,
      "d": 4793.75,
      "v": 68
    }
  ]
}