{
  "jsonPath": "Unknown/Unknown/Denga vs Manus/lost-love.json",
  "path": "Unknown\\Unknown\\Denga vs Manus\\Lost Love.mid",
  "name": "Lost Love",
  "difficulty": "Advanced",
  "bpm": 150,
  "notes": [
    {
      "midi": 37,
      "hit": false,
      "t": 0,
      "d": 2796.6666666666665,
      "v": 100
    },
    {
      "midi": 68,
      "hit": false,
      "t": 200,
      "d": 196.66666666666663,
      "v": 100
    },
    {
      "midi": 66,
      "hit": false,
      "t": 399.99999999999994,
      "d": 196.66666666666669,
      "v": 100
    },
    {
      "midi": 68,
      "hit": false,
      "t": 600,
      "d": 196.66666666666663,
      "v": 100
    },
    {
      "midi": 64,
      "hit": false,
      "t": 800,
      "d": 196.66666666666663,
      "v": 100
    },
    {
      "midi": 68,
      "hit": false,
      "t": 1000,
      "d": 196.66666666666674,
      "v": 100
    },
    {
      "midi": 63,
      "hit": false,
      "t": 1200,
      "d": 196.66666666666674,
      "v": 100
    },
    {
      "midi": 68,
      "hit": false,
      "t": 1400,
      "d": 196.66666666666674,
      "v": 100
    },
    {
      "midi": 61,
      "hit": false,
      "t": 1600,
      "d": 196.66666666666674,
      "v": 100
    },
    {
      "midi": 68,
      "hit": false,
      "t": 1800,
      "d": 196.66666666666674,
      "v": 100
    },
    {
      "midi": 66,
      "hit": false,
      "t": 2000,
      "d": 196.66666666666652,
      "v": 100
    },
    {
      "midi": 68,
      "hit": false,
      "t": 2200,
      "d": 196.66666666666652,
      "v": 100
    },
    {
      "midi": 64,
      "hit": false,
      "t": 2400,
      "d": 196.66666666666652,
      "v": 100
    },
    {
      "midi": 68,
      "hit": false,
      "t": 2600,
      "d": 196.66666666666652,
      "v": 100
    },
    {
      "midi": 63,
      "hit": false,
      "t": 2800,
      "d": 196.66666666666652,
      "v": 100
    },
    {
      "midi": 47,
      "hit": false,
      "t": 2800,
      "d": 396.6666666666665,
      "v": 100
    },
    {
      "midi": 68,
      "hit": false,
      "t": 3000,
      "d": 196.66666666666652,
      "v": 100
    },
    {
      "midi": 61,
      "hit": false,
      "t": 3200,
      "d": 200,
      "v": 100
    },
    {
      "midi": 45,
      "hit": false,
      "t": 3200,
      "d": 3196.666666666667,
      "v": 100
    },
    {
      "midi": 69,
      "hit": false,
      "t": 3400,
      "d": 196.66666666666652,
      "v": 100
    },
    {
      "midi": 68,
      "hit": false,
      "t": 3600,
      "d": 196.66666666666652,
      "v": 100
    },
    {
      "midi": 69,
      "hit": false,
      "t": 3800,
      "d": 196.66666666666652,
      "v": 100
    },
    {
      "midi": 66,
      "hit": false,
      "t": 4000,
      "d": 196.66666666666697,
      "v": 100
    },
    {
      "midi": 69,
      "hit": false,
      "t": 4200,
      "d": 196.66666666666697,
      "v": 100
    },
    {
      "midi": 64,
      "hit": false,
      "t": 4400,
      "d": 196.66666666666697,
      "v": 100
    },
    {
      "midi": 69,
      "hit": false,
      "t": 4600,
      "d": 196.66666666666697,
      "v": 100
    },
    {
      "midi": 63,
      "hit": false,
      "t": 4800,
      "d": 196.66666666666697,
      "v": 100
    },
    {
      "midi": 69,
      "hit": false,
      "t": 5000,
      "d": 196.66666666666697,
      "v": 100
    },
    {
      "midi": 68,
      "hit": false,
      "t": 5200,
      "d": 196.66666666666697,
      "v": 100
    },
    {
      "midi": 69,
      "hit": false,
      "t": 5400,
      "d": 196.66666666666697,
      "v": 100
    },
    {
      "midi": 66,
      "hit": false,
      "t": 5600,
      "d": 196.66666666666697,
      "v": 100
    },
    {
      "midi": 69,
      "hit": false,
      "t": 5800,
      "d": 196.66666666666697,
      "v": 100
    },
    {
      "midi": 64,
      "hit": false,
      "t": 6000,
      "d": 196.66666666666697,
      "v": 100
    },
    {
      "midi": 69,
      "hit": false,
      "t": 6200,
      "d": 196.66666666666697,
      "v": 100
    },
    {
      "midi": 63,
      "hit": false,
      "t": 6400,
      "d": 196.66666666666697,
      "v": 100
    },
    {
      "midi": 47,
      "hit": false,
      "t": 6400,
      "d": 3196.666666666666,
      "v": 100
    },
    {
      "midi": 66,
      "hit": false,
      "t": 6600,
      "d": 196.66666666666697,
      "v": 100
    },
    {
      "midi": 64,
      "hit": false,
      "t": 6800,
      "d": 196.66666666666697,
      "v": 100
    },
    {
      "midi": 66,
      "hit": false,
      "t": 7000,
      "d": 196.66666666666697,
      "v": 100
    },
    {
      "midi": 63,
      "hit": false,
      "t": 7200,
      "d": 196.66666666666697,
      "v": 100
    },
    {
      "midi": 66,
      "hit": false,
      "t": 7400,
      "d": 196.66666666666697,
      "v": 100
    },
    {
      "midi": 61,
      "hit": false,
      "t": 7600,
      "d": 196.66666666666697,
      "v": 100
    },
    {
      "midi": 66,
      "hit": false,
      "t": 7800,
      "d": 196.66666666666697,
      "v": 100
    },
    {
      "midi": 59,
      "hit": false,
      "t": 8000,
      "d": 196.66666666666606,
      "v": 100
    },
    {
      "midi": 66,
      "hit": false,
      "t": 8200,
      "d": 196.66666666666606,
      "v": 100
    },
    {
      "midi": 64,
      "hit": false,
      "t": 8400,
      "d": 196.66666666666606,
      "v": 100
    },
    {
      "midi": 66,
      "hit": false,
      "t": 8600,
      "d": 196.66666666666606,
      "v": 100
    },
    {
      "midi": 63,
      "hit": false,
      "t": 8800,
      "d": 196.66666666666606,
      "v": 100
    },
    {
      "midi": 64,
      "hit": false,
      "t": 9000,
      "d": 196.66666666666606,
      "v": 100
    },
    {
      "midi": 66,
      "hit": false,
      "t": 9200,
      "d": 196.66666666666606,
      "v": 100
    },
    {
      "midi": 69,
      "hit": false,
      "t": 9400,
      "d": 196.66666666666606,
      "v": 100
    },
    {
      "midi": 68,
      "hit": false,
      "t": 9600,
      "d": 196.66666666666606,
      "v": 100
    },
    {
      "midi": 49,
      "hit": false,
      "t": 9600,
      "d": 2796.666666666666,
      "v": 100
    },
    {
      "midi": 68,
      "hit": false,
      "t": 9800,
      "d": 196.66666666666606,
      "v": 100
    },
    {
      "midi": 66,
      "hit": false,
      "t": 10000,
      "d": 196.66666666666606,
      "v": 100
    },
    {
      "midi": 68,
      "hit": false,
      "t": 10200,
      "d": 196.66666666666606,
      "v": 100
    },
    {
      "midi": 64,
      "hit": false,
      "t": 10400,
      "d": 196.66666666666606,
      "v": 100
    },
    {
      "midi": 68,
      "hit": false,
      "t": 10600,
      "d": 196.66666666666606,
      "v": 100
    },
    {
      "midi": 63,
      "hit": false,
      "t": 10800,
      "d": 196.66666666666606,
      "v": 100
    },
    {
      "midi": 68,
      "hit": false,
      "t": 11000,
      "d": 196.66666666666606,
      "v": 100
    },
    {
      "midi": 61,
      "hit": false,
      "t": 11200,
      "d": 196.66666666666606,
      "v": 100
    },
    {
      "midi": 68,
      "hit": false,
      "t": 11400,
      "d": 196.66666666666606,
      "v": 100
    },
    {
      "midi": 66,
      "hit": false,
      "t": 11600,
      "d": 196.66666666666606,
      "v": 100
    },
    {
      "midi": 68,
      "hit": false,
      "t": 11800,
      "d": 196.66666666666606,
      "v": 100
    },
    {
      "midi": 64,
      "hit": false,
      "t": 12000,
      "d": 196.66666666666606,
      "v": 100
    },
    {
      "midi": 68,
      "hit": false,
      "t": 12200,
      "d": 196.66666666666606,
      "v": 100
    },
    {
      "midi": 63,
      "hit": false,
      "t": 12400,
      "d": 196.66666666666606,
      "v": 100
    },
    {
      "midi": 32,
      "hit": false,
      "t": 12400,
      "d": 396.66666666666606,
      "v": 100
    },
    {
      "midi": 68,
      "hit": false,
      "t": 12600,
      "d": 196.66666666666606,
      "v": 100
    },
    {
      "midi": 37,
      "hit": false,
      "t": 12800,
      "d": 2796.666666666666,
      "v": 100
    },
    {
      "midi": 68,
      "hit": false,
      "t": 13000,
      "d": 196.66666666666606,
      "v": 100
    },
    {
      "midi": 66,
      "hit": false,
      "t": 13200,
      "d": 196.66666666666606,
      "v": 100
    },
    {
      "midi": 68,
      "hit": false,
      "t": 13400,
      "d": 196.66666666666606,
      "v": 100
    },
    {
      "midi": 64,
      "hit": false,
      "t": 13600,
      "d": 196.66666666666606,
      "v": 100
    },
    {
      "midi": 68,
      "hit": false,
      "t": 13800,
      "d": 196.66666666666606,
      "v": 100
    },
    {
      "midi": 63,
      "hit": false,
      "t": 14000,
      "d": 196.66666666666606,
      "v": 100
    },
    {
      "midi": 68,
      "hit": false,
      "t": 14200,
      "d": 196.66666666666606,
      "v": 100
    },
    {
      "midi": 61,
      "hit": false,
      "t": 14400,
      "d": 196.66666666666606,
      "v": 100
    },
    {
      "midi": 68,
      "hit": false,
      "t": 14600,
      "d": 196.66666666666606,
      "v": 100
    },
    {
      "midi": 66,
      "hit": false,
      "t": 14800,
      "d": 196.66666666666606,
      "v": 100
    },
    {
      "midi": 68,
      "hit": false,
      "t": 15000,
      "d": 196.66666666666606,
      "v": 100
    },
    {
      "midi": 64,
      "hit": false,
      "t": 15200,
      "d": 196.66666666666606,
      "v": 100
    },
    {
      "midi": 68,
      "hit": false,
      "t": 15400,
      "d": 196.66666666666606,
      "v": 100
    },
    {
      "midi": 63,
      "hit": false,
      "t": 15600,
      "d": 196.66666666666606,
      "v": 100
    },
    {
      "midi": 47,
      "hit": false,
      "t": 15600,
      "d": 396.66666666666606,
      "v": 100
    },
    {
      "midi": 68,
      "hit": false,
      "t": 15800,
      "d": 196.66666666666606,
      "v": 100
    },
    {
      "midi": 61,
      "hit": false,
      "t": 16000,
      "d": 200,
      "v": 100
    },
    {
      "midi": 45,
      "hit": false,
      "t": 16000,
      "d": 3196.666666666668,
      "v": 100
    },
    {
      "midi": 69,
      "hit": false,
      "t": 16200,
      "d": 196.66666666666788,
      "v": 100
    },
    {
      "midi": 68,
      "hit": false,
      "t": 16400,
      "d": 196.66666666666788,
      "v": 100
    },
    {
      "midi": 69,
      "hit": false,
      "t": 16600,
      "d": 196.66666666666788,
      "v": 100
    },
    {
      "midi": 66,
      "hit": false,
      "t": 16800,
      "d": 196.66666666666788,
      "v": 100
    },
    {
      "midi": 69,
      "hit": false,
      "t": 17000,
      "d": 196.66666666666788,
      "v": 100
    },
    {
      "midi": 64,
      "hit": false,
      "t": 17200,
      "d": 196.66666666666788,
      "v": 100
    },
    {
      "midi": 69,
      "hit": false,
      "t": 17400,
      "d": 196.66666666666788,
      "v": 100
    },
    {
      "midi": 63,
      "hit": false,
      "t": 17600,
      "d": 196.66666666666788,
      "v": 100
    },
    {
      "midi": 69,
      "hit": false,
      "t": 17800,
      "d": 196.66666666666788,
      "v": 100
    },
    {
      "midi": 68,
      "hit": false,
      "t": 18000,
      "d": 196.66666666666788,
      "v": 100
    },
    {
      "midi": 69,
      "hit": false,
      "t": 18200,
      "d": 196.66666666666788,
      "v": 100
    },
    {
      "midi": 66,
      "hit": false,
      "t": 18400,
      "d": 196.66666666666788,
      "v": 100
    },
    {
      "midi": 69,
      "hit": false,
      "t": 18600,
      "d": 196.66666666666788,
      "v": 100
    },
    {
      "midi": 64,
      "hit": false,
      "t": 18800,
      "d": 196.66666666666788,
      "v": 100
    },
    {
      "midi": 69,
      "hit": false,
      "t": 19000,
      "d": 196.66666666666788,
      "v": 100
    },
    {
      "midi": 63,
      "hit": false,
      "t": 19200,
      "d": 196.66666666666788,
      "v": 100
    },
    {
      "midi": 47,
      "hit": false,
      "t": 19200,
      "d": 3196.666666666668,
      "v": 100
    },
    {
      "midi": 66,
      "hit": false,
      "t": 19400,
      "d": 196.66666666666788,
      "v": 100
    },
    {
      "midi": 64,
      "hit": false,
      "t": 19600,
      "d": 196.66666666666788,
      "v": 100
    },
    {
      "midi": 66,
      "hit": false,
      "t": 19800,
      "d": 196.66666666666788,
      "v": 100
    },
    {
      "midi": 63,
      "hit": false,
      "t": 20000,
      "d": 196.66666666666788,
      "v": 100
    },
    {
      "midi": 66,
      "hit": false,
      "t": 20200,
      "d": 196.66666666666788,
      "v": 100
    },
    {
      "midi": 61,
      "hit": false,
      "t": 20400,
      "d": 196.66666666666788,
      "v": 100
    },
    {
      "midi": 66,
      "hit": false,
      "t": 20600,
      "d": 196.66666666666788,
      "v": 100
    },
    {
      "midi": 59,
      "hit": false,
      "t": 20800,
      "d": 196.66666666666788,
      "v": 100
    },
    {
      "midi": 66,
      "hit": false,
      "t": 21000,
      "d": 196.66666666666788,
      "v": 100
    },
    {
      "midi": 64,
      "hit": false,
      "t": 21200,
      "d": 196.66666666666788,
      "v": 100
    },
    {
      "midi": 66,
      "hit": false,
      "t": 21400,
      "d": 196.66666666666788,
      "v": 100
    },
    {
      "midi": 63,
      "hit": false,
      "t": 21600,
      "d": 196.66666666666788,
      "v": 100
    },
    {
      "midi": 64,
      "hit": false,
      "t": 21800,
      "d": 196.66666666666788,
      "v": 100
    },
    {
      "midi": 66,
      "hit": false,
      "t": 22000,
      "d": 196.66666666666788,
      "v": 100
    },
    {
      "midi": 69,
      "hit": false,
      "t": 22200,
      "d": 196.66666666666788,
      "v": 100
    },
    {
      "midi": 68,
      "hit": false,
      "t": 22400,
      "d": 196.66666666666788,
      "v": 100
    },
    {
      "midi": 49,
      "hit": false,
      "t": 22400,
      "d": 2796.666666666668,
      "v": 100
    },
    {
      "midi": 68,
      "hit": false,
      "t": 22600,
      "d": 196.66666666666788,
      "v": 100
    },
    {
      "midi": 66,
      "hit": false,
      "t": 22800,
      "d": 196.66666666666788,
      "v": 100
    },
    {
      "midi": 68,
      "hit": false,
      "t": 23000,
      "d": 196.66666666666788,
      "v": 100
    },
    {
      "midi": 64,
      "hit": false,
      "t": 23200,
      "d": 196.66666666666788,
      "v": 100
    },
    {
      "midi": 68,
      "hit": false,
      "t": 23400,
      "d": 196.66666666666788,
      "v": 100
    },
    {
      "midi": 63,
      "hit": false,
      "t": 23600,
      "d": 196.66666666666788,
      "v": 100
    },
    {
      "midi": 68,
      "hit": false,
      "t": 23800,
      "d": 196.66666666666788,
      "v": 100
    },
    {
      "midi": 61,
      "hit": false,
      "t": 24000,
      "d": 196.66666666666788,
      "v": 100
    },
    {
      "midi": 68,
      "hit": false,
      "t": 24200,
      "d": 196.66666666666788,
      "v": 100
    },
    {
      "midi": 66,
      "hit": false,
      "t": 24400,
      "d": 196.66666666666788,
      "v": 100
    },
    {
      "midi": 68,
      "hit": false,
      "t": 24600,
      "d": 196.66666666666788,
      "v": 100
    },
    {
      "midi": 64,
      "hit": false,
      "t": 24800,
      "d": 196.66666666666788,
      "v": 100
    },
    {
      "midi": 68,
      "hit": false,
      "t": 25000,
      "d": 196.66666666666788,
      "v": 100
    },
    {
      "midi": 63,
      "hit": false,
      "t": 25200,
      "d": 196.66666666666788,
      "v": 100
    },
    {
      "midi": 32,
      "hit": false,
      "t": 25200,
      "d": 396.6666666666679,
      "v": 100
    },
    {
      "midi": 68,
      "hit": false,
      "t": 25400,
      "d": 196.66666666666788,
      "v": 100
    },
    {
      "midi": 37,
      "hit": false,
      "t": 25600,
      "d": 2796.666666666668,
      "v": 100
    },
    {
      "midi": 68,
      "hit": false,
      "t": 25800,
      "d": 196.66666666666788,
      "v": 100
    },
    {
      "midi": 66,
      "hit": false,
      "t": 26000,
      "d": 196.66666666666788,
      "v": 100
    },
    {
      "midi": 68,
      "hit": false,
      "t": 26200,
      "d": 196.66666666666788,
      "v": 100
    },
    {
      "midi": 64,
      "hit": false,
      "t": 26400,
      "d": 196.66666666666788,
      "v": 100
    },
    {
      "midi": 68,
      "hit": false,
      "t": 26600,
      "d": 196.66666666666788,
      "v": 100
    },
    {
      "midi": 63,
      "hit": false,
      "t": 26800,
      "d": 196.66666666666788,
      "v": 100
    },
    {
      "midi": 68,
      "hit": false,
      "t": 27000,
      "d": 196.66666666666788,
      "v": 100
    },
    {
      "midi": 61,
      "hit": false,
      "t": 27200,
      "d": 196.66666666666788,
      "v": 100
    },
    {
      "midi": 68,
      "hit": false,
      "t": 27400,
      "d": 196.66666666666788,
      "v": 100
    },
    {
      "midi": 66,
      "hit": false,
      "t": 27600,
      "d": 196.66666666666788,
      "v": 100
    },
    {
      "midi": 68,
      "hit": false,
      "t": 27800,
      "d": 196.66666666666788,
      "v": 100
    },
    {
      "midi": 64,
      "hit": false,
      "t": 28000,
      "d": 196.66666666666788,
      "v": 100
    },
    {
      "midi": 68,
      "hit": false,
      "t": 28200,
      "d": 196.66666666666788,
      "v": 100
    },
    {
      "midi": 63,
      "hit": false,
      "t": 28400,
      "d": 196.66666666666788,
      "v": 100
    },
    {
      "midi": 47,
      "hit": false,
      "t": 28400,
      "d": 396.6666666666679,
      "v": 100
    },
    {
      "midi": 68,
      "hit": false,
      "t": 28600,
      "d": 196.66666666666788,
      "v": 100
    },
    {
      "midi": 61,
      "hit": false,
      "t": 28800,
      "d": 200,
      "v": 100
    },
    {
      "midi": 45,
      "hit": false,
      "t": 28800,
      "d": 3196.666666666668,
      "v": 100
    },
    {
      "midi": 69,
      "hit": false,
      "t": 29000,
      "d": 196.66666666666788,
      "v": 100
    },
    {
      "midi": 68,
      "hit": false,
      "t": 29200,
      "d": 196.66666666666788,
      "v": 100
    },
    {
      "midi": 69,
      "hit": false,
      "t": 29400,
      "d": 196.66666666666788,
      "v": 100
    },
    {
      "midi": 66,
      "hit": false,
      "t": 29600,
      "d": 196.66666666666788,
      "v": 100
    },
    {
      "midi": 69,
      "hit": false,
      "t": 29800,
      "d": 196.66666666666788,
      "v": 100
    },
    {
      "midi": 64,
      "hit": false,
      "t": 30000,
      "d": 196.66666666666788,
      "v": 100
    },
    {
      "midi": 69,
      "hit": false,
      "t": 30200,
      "d": 196.66666666666788,
      "v": 100
    },
    {
      "midi": 63,
      "hit": false,
      "t": 30400,
      "d": 196.66666666666788,
      "v": 100
    },
    {
      "midi": 69,
      "hit": false,
      "t": 30600,
      "d": 196.66666666666788,
      "v": 100
    },
    {
      "midi": 68,
      "hit": false,
      "t": 30800,
      "d": 196.66666666666788,
      "v": 100
    },
    {
      "midi": 69,
      "hit": false,
      "t": 31000,
      "d": 196.66666666666788,
      "v": 100
    },
    {
      "midi": 66,
      "hit": false,
      "t": 31200,
      "d": 196.66666666666788,
      "v": 100
    },
    {
      "midi": 69,
      "hit": false,
      "t": 31400,
      "d": 196.66666666666788,
      "v": 100
    },
    {
      "midi": 64,
      "hit": false,
      "t": 31600,
      "d": 196.66666666666788,
      "v": 100
    },
    {
      "midi": 69,
      "hit": false,
      "t": 31800,
      "d": 196.66666666666788,
      "v": 100
    },
    {
      "midi": 63,
      "hit": false,
      "t": 32000,
      "d": 196.66666666666788,
      "v": 100
    },
    {
      "midi": 47,
      "hit": false,
      "t": 32000,
      "d": 3196.6666666666642,
      "v": 100
    },
    {
      "midi": 66,
      "hit": false,
      "t": 32200,
      "d": 196.66666666666788,
      "v": 100
    },
    {
      "midi": 64,
      "hit": false,
      "t": 32400,
      "d": 196.66666666666788,
      "v": 100
    },
    {
      "midi": 66,
      "hit": false,
      "t": 32600,
      "d": 196.66666666666424,
      "v": 100
    },
    {
      "midi": 63,
      "hit": false,
      "t": 32800,
      "d": 196.66666666666424,
      "v": 100
    },
    {
      "midi": 66,
      "hit": false,
      "t": 33000,
      "d": 196.66666666666424,
      "v": 100
    },
    {
      "midi": 61,
      "hit": false,
      "t": 33200,
      "d": 196.66666666666424,
      "v": 100
    },
    {
      "midi": 66,
      "hit": false,
      "t": 33400,
      "d": 196.66666666666424,
      "v": 100
    },
    {
      "midi": 59,
      "hit": false,
      "t": 33600,
      "d": 196.66666666666424,
      "v": 100
    },
    {
      "midi": 66,
      "hit": false,
      "t": 33800,
      "d": 196.66666666666424,
      "v": 100
    },
    {
      "midi": 64,
      "hit": false,
      "t": 34000,
      "d": 196.66666666666424,
      "v": 100
    },
    {
      "midi": 66,
      "hit": false,
      "t": 34200,
      "d": 196.66666666666424,
      "v": 100
    },
    {
      "midi": 63,
      "hit": false,
      "t": 34400,
      "d": 196.66666666666424,
      "v": 100
    },
    {
      "midi": 64,
      "hit": false,
      "t": 34600,
      "d": 196.66666666666424,
      "v": 100
    },
    {
      "midi": 66,
      "hit": false,
      "t": 34800,
      "d": 196.66666666666424,
      "v": 100
    },
    {
      "midi": 69,
      "hit": false,
      "t": 35000,
      "d": 196.66666666666424,
      "v": 100
    },
    {
      "midi": 68,
      "hit": false,
      "t": 35200,
      "d": 196.66666666666424,
      "v": 100
    },
    {
      "midi": 49,
      "hit": false,
      "t": 35200,
      "d": 2796.6666666666642,
      "v": 100
    },
    {
      "midi": 68,
      "hit": false,
      "t": 35400,
      "d": 196.66666666666424,
      "v": 100
    },
    {
      "midi": 66,
      "hit": false,
      "t": 35600,
      "d": 196.66666666666424,
      "v": 100
    },
    {
      "midi": 68,
      "hit": false,
      "t": 35800,
      "d": 196.66666666666424,
      "v": 100
    },
    {
      "midi": 64,
      "hit": false,
      "t": 36000,
      "d": 196.66666666666424,
      "v": 100
    },
    {
      "midi": 68,
      "hit": false,
      "t": 36200,
      "d": 196.66666666666424,
      "v": 100
    },
    {
      "midi": 63,
      "hit": false,
      "t": 36400,
      "d": 196.66666666666424,
      "v": 100
    },
    {
      "midi": 68,
      "hit": false,
      "t": 36600,
      "d": 196.66666666666424,
      "v": 100
    },
    {
      "midi": 61,
      "hit": false,
      "t": 36800,
      "d": 196.66666666666424,
      "v": 100
    },
    {
      "midi": 68,
      "hit": false,
      "t": 37000,
      "d": 196.66666666666424,
      "v": 100
    },
    {
      "midi": 66,
      "hit": false,
      "t": 37200,
      "d": 196.66666666666424,
      "v": 100
    },
    {
      "midi": 68,
      "hit": false,
      "t": 37400,
      "d": 196.66666666666424,
      "v": 100
    },
    {
      "midi": 64,
      "hit": false,
      "t": 37600,
      "d": 196.66666666666424,
      "v": 100
    },
    {
      "midi": 68,
      "hit": false,
      "t": 37800,
      "d": 196.66666666666424,
      "v": 100
    },
    {
      "midi": 63,
      "hit": false,
      "t": 38000,
      "d": 196.66666666666424,
      "v": 100
    },
    {
      "midi": 32,
      "hit": false,
      "t": 38000,
      "d": 396.66666666666424,
      "v": 100
    },
    {
      "midi": 68,
      "hit": false,
      "t": 38200,
      "d": 196.66666666666424,
      "v": 100
    },
    {
      "midi": 37,
      "hit": false,
      "t": 38400,
      "d": 2796.6666666666642,
      "v": 100
    },
    {
      "midi": 68,
      "hit": false,
      "t": 38600,
      "d": 196.66666666666424,
      "v": 100
    },
    {
      "midi": 66,
      "hit": false,
      "t": 38800,
      "d": 196.66666666666424,
      "v": 100
    },
    {
      "midi": 68,
      "hit": false,
      "t": 39000,
      "d": 196.66666666666424,
      "v": 100
    },
    {
      "midi": 64,
      "hit": false,
      "t": 39200,
      "d": 196.66666666666424,
      "v": 100
    },
    {
      "midi": 68,
      "hit": false,
      "t": 39400,
      "d": 196.66666666666424,
      "v": 100
    },
    {
      "midi": 63,
      "hit": false,
      "t": 39600,
      "d": 196.66666666666424,
      "v": 100
    },
    {
      "midi": 68,
      "hit": false,
      "t": 39800,
      "d": 196.66666666666424,
      "v": 100
    },
    {
      "midi": 61,
      "hit": false,
      "t": 40000,
      "d": 196.66666666666424,
      "v": 100
    },
    {
      "midi": 68,
      "hit": false,
      "t": 40200,
      "d": 196.66666666666424,
      "v": 100
    },
    {
      "midi": 66,
      "hit": false,
      "t": 40400,
      "d": 196.66666666666424,
      "v": 100
    },
    {
      "midi": 68,
      "hit": false,
      "t": 40600,
      "d": 196.66666666666424,
      "v": 100
    },
    {
      "midi": 64,
      "hit": false,
      "t": 40800,
      "d": 196.66666666666424,
      "v": 100
    },
    {
      "midi": 68,
      "hit": false,
      "t": 41000,
      "d": 196.66666666666424,
      "v": 100
    },
    {
      "midi": 63,
      "hit": false,
      "t": 41200,
      "d": 196.66666666666424,
      "v": 100
    },
    {
      "midi": 47,
      "hit": false,
      "t": 41200,
      "d": 396.66666666666424,
      "v": 100
    },
    {
      "midi": 68,
      "hit": false,
      "t": 41400,
      "d": 196.66666666666424,
      "v": 100
    },
    {
      "midi": 61,
      "hit": false,
      "t": 41600,
      "d": 200,
      "v": 100
    },
    {
      "midi": 45,
      "hit": false,
      "t": 41600,
      "d": 3196.6666666666642,
      "v": 100
    },
    {
      "midi": 69,
      "hit": false,
      "t": 41800,
      "d": 196.66666666666424,
      "v": 100
    },
    {
      "midi": 68,
      "hit": false,
      "t": 42000,
      "d": 196.66666666666424,
      "v": 100
    },
    {
      "midi": 69,
      "hit": false,
      "t": 42200,
      "d": 196.66666666666424,
      "v": 100
    },
    {
      "midi": 66,
      "hit": false,
      "t": 42400,
      "d": 196.66666666666424,
      "v": 100
    },
    {
      "midi": 69,
      "hit": false,
      "t": 42600,
      "d": 196.66666666666424,
      "v": 100
    },
    {
      "midi": 64,
      "hit": false,
      "t": 42800,
      "d": 196.66666666666424,
      "v": 100
    },
    {
      "midi": 69,
      "hit": false,
      "t": 43000,
      "d": 196.66666666666424,
      "v": 100
    },
    {
      "midi": 63,
      "hit": false,
      "t": 43200,
      "d": 196.66666666666424,
      "v": 100
    },
    {
      "midi": 69,
      "hit": false,
      "t": 43400,
      "d": 196.66666666666424,
      "v": 100
    },
    {
      "midi": 68,
      "hit": false,
      "t": 43600,
      "d": 196.66666666666424,
      "v": 100
    },
    {
      "midi": 69,
      "hit": false,
      "t": 43800,
      "d": 196.66666666666424,
      "v": 100
    },
    {
      "midi": 66,
      "hit": false,
      "t": 44000,
      "d": 196.66666666666424,
      "v": 100
    },
    {
      "midi": 69,
      "hit": false,
      "t": 44200,
      "d": 196.66666666666424,
      "v": 100
    },
    {
      "midi": 64,
      "hit": false,
      "t": 44400,
      "d": 196.66666666666424,
      "v": 100
    },
    {
      "midi": 69,
      "hit": false,
      "t": 44600,
      "d": 196.66666666666424,
      "v": 100
    },
    {
      "midi": 63,
      "hit": false,
      "t": 44800,
      "d": 196.66666666666424,
      "v": 100
    },
    {
      "midi": 47,
      "hit": false,
      "t": 44800,
      "d": 3196.6666666666642,
      "v": 100
    },
    {
      "midi": 66,
      "hit": false,
      "t": 45000,
      "d": 196.66666666666424,
      "v": 100
    },
    {
      "midi": 64,
      "hit": false,
      "t": 45200,
      "d": 196.66666666666424,
      "v": 100
    },
    {
      "midi": 66,
      "hit": false,
      "t": 45400,
      "d": 196.66666666666424,
      "v": 100
    },
    {
      "midi": 63,
      "hit": false,
      "t": 45600,
      "d": 196.66666666666424,
      "v": 100
    },
    {
      "midi": 66,
      "hit": false,
      "t": 45800,
      "d": 196.66666666666424,
      "v": 100
    },
    {
      "midi": 61,
      "hit": false,
      "t": 46000,
      "d": 196.66666666666424,
      "v": 100
    },
    {
      "midi": 66,
      "hit": false,
      "t": 46200,
      "d": 196.66666666666424,
      "v": 100
    },
    {
      "midi": 59,
      "hit": false,
      "t": 46400,
      "d": 196.66666666666424,
      "v": 100
    },
    {
      "midi": 66,
      "hit": false,
      "t": 46600,
      "d": 196.66666666666424,
      "v": 100
    },
    {
      "midi": 64,
      "hit": false,
      "t": 46800,
      "d": 196.66666666666424,
      "v": 100
    },
    {
      "midi": 66,
      "hit": false,
      "t": 47000,
      "d": 196.66666666666424,
      "v": 100
    },
    {
      "midi": 63,
      "hit": false,
      "t": 47200,
      "d": 196.66666666666424,
      "v": 100
    },
    {
      "midi": 64,
      "hit": false,
      "t": 47400,
      "d": 196.66666666666424,
      "v": 100
    },
    {
      "midi": 66,
      "hit": false,
      "t": 47600,
      "d": 196.66666666666424,
      "v": 100
    },
    {
      "midi": 69,
      "hit": false,
      "t": 47800,
      "d": 196.66666666666424,
      "v": 100
    },
    {
      "midi": 68,
      "hit": false,
      "t": 48000,
      "d": 196.66666666666424,
      "v": 100
    },
    {
      "midi": 49,
      "hit": false,
      "t": 48000,
      "d": 2796.6666666666642,
      "v": 100
    },
    {
      "midi": 68,
      "hit": false,
      "t": 48200,
      "d": 196.66666666666424,
      "v": 100
    },
    {
      "midi": 66,
      "hit": false,
      "t": 48400,
      "d": 196.66666666666424,
      "v": 100
    },
    {
      "midi": 68,
      "hit": false,
      "t": 48600,
      "d": 196.66666666666424,
      "v": 100
    },
    {
      "midi": 64,
      "hit": false,
      "t": 48800,
      "d": 196.66666666666424,
      "v": 100
    },
    {
      "midi": 68,
      "hit": false,
      "t": 49000,
      "d": 196.66666666666424,
      "v": 100
    },
    {
      "midi": 63,
      "hit": false,
      "t": 49200,
      "d": 196.66666666666424,
      "v": 100
    },
    {
      "midi": 68,
      "hit": false,
      "t": 49400,
      "d": 196.66666666666424,
      "v": 100
    },
    {
      "midi": 61,
      "hit": false,
      "t": 49600,
      "d": 196.66666666666424,
      "v": 100
    },
    {
      "midi": 68,
      "hit": false,
      "t": 49800,
      "d": 196.66666666666424,
      "v": 100
    },
    {
      "midi": 66,
      "hit": false,
      "t": 50000,
      "d": 196.66666666666424,
      "v": 100
    },
    {
      "midi": 68,
      "hit": false,
      "t": 50200,
      "d": 196.66666666666424,
      "v": 100
    },
    {
      "midi": 64,
      "hit": false,
      "t": 50400,
      "d": 196.66666666666424,
      "v": 100
    },
    {
      "midi": 68,
      "hit": false,
      "t": 50600,
      "d": 196.66666666666424,
      "v": 100
    },
    {
      "midi": 63,
      "hit": false,
      "t": 50800,
      "d": 196.66666666666424,
      "v": 100
    },
    {
      "midi": 32,
      "hit": false,
      "t": 50800,
      "d": 396.66666666666424,
      "v": 100
    },
    {
      "midi": 68,
      "hit": false,
      "t": 51000,
      "d": 196.66666666666424,
      "v": 100
    },
    {
      "midi": 37,
      "hit": false,
      "t": 102400,
      "d": 2796.6666666666715,
      "v": 100
    },
    {
      "midi": 68,
      "hit": false,
      "t": 102600,
      "d": 196.66666666667152,
      "v": 100
    },
    {
      "midi": 66,
      "hit": false,
      "t": 102800,
      "d": 196.66666666667152,
      "v": 100
    },
    {
      "midi": 68,
      "hit": false,
      "t": 103000,
      "d": 196.66666666667152,
      "v": 100
    },
    {
      "midi": 64,
      "hit": false,
      "t": 103200,
      "d": 196.66666666667152,
      "v": 100
    },
    {
      "midi": 68,
      "hit": false,
      "t": 103400,
      "d": 196.66666666667152,
      "v": 100
    },
    {
      "midi": 63,
      "hit": false,
      "t": 103600,
      "d": 196.66666666667152,
      "v": 100
    },
    {
      "midi": 68,
      "hit": false,
      "t": 103800,
      "d": 196.66666666667152,
      "v": 100
    },
    {
      "midi": 61,
      "hit": false,
      "t": 104000,
      "d": 196.66666666667152,
      "v": 100
    },
    {
      "midi": 68,
      "hit": false,
      "t": 104200,
      "d": 196.66666666667152,
      "v": 100
    },
    {
      "midi": 66,
      "hit": false,
      "t": 104400,
      "d": 196.66666666667152,
      "v": 100
    },
    {
      "midi": 68,
      "hit": false,
      "t": 104600,
      "d": 196.66666666667152,
      "v": 100
    },
    {
      "midi": 64,
      "hit": false,
      "t": 104800,
      "d": 196.66666666667152,
      "v": 100
    },
    {
      "midi": 68,
      "hit": false,
      "t": 105000,
      "d": 196.66666666667152,
      "v": 100
    },
    {
      "midi": 63,
      "hit": false,
      "t": 105200,
      "d": 196.66666666667152,
      "v": 100
    },
    {
      "midi": 47,
      "hit": false,
      "t": 105200,
      "d": 396.6666666666715,
      "v": 100
    },
    {
      "midi": 68,
      "hit": false,
      "t": 105400,
      "d": 196.66666666667152,
      "v": 100
    },
    {
      "midi": 61,
      "hit": false,
      "t": 105600,
      "d": 200,
      "v": 100
    },
    {
      "midi": 45,
      "hit": false,
      "t": 105600,
      "d": 3196.6666666666715,
      "v": 100
    },
    {
      "midi": 69,
      "hit": false,
      "t": 105800,
      "d": 196.66666666667152,
      "v": 100
    },
    {
      "midi": 68,
      "hit": false,
      "t": 106000,
      "d": 196.66666666667152,
      "v": 100
    },
    {
      "midi": 69,
      "hit": false,
      "t": 106200,
      "d": 196.66666666667152,
      "v": 100
    },
    {
      "midi": 66,
      "hit": false,
      "t": 106400,
      "d": 196.66666666667152,
      "v": 100
    },
    {
      "midi": 69,
      "hit": false,
      "t": 106600,
      "d": 196.66666666667152,
      "v": 100
    },
    {
      "midi": 64,
      "hit": false,
      "t": 106800,
      "d": 196.66666666667152,
      "v": 100
    },
    {
      "midi": 69,
      "hit": false,
      "t": 107000,
      "d": 196.66666666667152,
      "v": 100
    },
    {
      "midi": 63,
      "hit": false,
      "t": 107200,
      "d": 196.66666666667152,
      "v": 100
    },
    {
      "midi": 69,
      "hit": false,
      "t": 107400,
      "d": 196.66666666667152,
      "v": 100
    },
    {
      "midi": 68,
      "hit": false,
      "t": 107600,
      "d": 196.66666666667152,
      "v": 100
    },
    {
      "midi": 69,
      "hit": false,
      "t": 107800,
      "d": 196.66666666667152,
      "v": 100
    },
    {
      "midi": 66,
      "hit": false,
      "t": 108000,
      "d": 196.66666666667152,
      "v": 100
    },
    {
      "midi": 69,
      "hit": false,
      "t": 108200,
      "d": 196.66666666667152,
      "v": 100
    },
    {
      "midi": 64,
      "hit": false,
      "t": 108400,
      "d": 196.66666666667152,
      "v": 100
    },
    {
      "midi": 69,
      "hit": false,
      "t": 108600,
      "d": 196.66666666667152,
      "v": 100
    },
    {
      "midi": 63,
      "hit": false,
      "t": 108800,
      "d": 196.66666666667152,
      "v": 100
    },
    {
      "midi": 47,
      "hit": false,
      "t": 108800,
      "d": 3196.6666666666715,
      "v": 100
    },
    {
      "midi": 66,
      "hit": false,
      "t": 109000,
      "d": 196.66666666667152,
      "v": 100
    },
    {
      "midi": 64,
      "hit": false,
      "t": 109200,
      "d": 196.66666666667152,
      "v": 100
    },
    {
      "midi": 66,
      "hit": false,
      "t": 109400,
      "d": 196.66666666667152,
      "v": 100
    },
    {
      "midi": 63,
      "hit": false,
      "t": 109600,
      "d": 196.66666666667152,
      "v": 100
    },
    {
      "midi": 66,
      "hit": false,
      "t": 109800,
      "d": 196.66666666667152,
      "v": 100
    },
    {
      "midi": 61,
      "hit": false,
      "t": 110000,
      "d": 196.66666666667152,
      "v": 100
    },
    {
      "midi": 66,
      "hit": false,
      "t": 110200,
      "d": 196.66666666667152,
      "v": 100
    },
    {
      "midi": 59,
      "hit": false,
      "t": 110400,
      "d": 196.66666666667152,
      "v": 100
    },
    {
      "midi": 66,
      "hit": false,
      "t": 110600,
      "d": 196.66666666667152,
      "v": 100
    },
    {
      "midi": 64,
      "hit": false,
      "t": 110800,
      "d": 196.66666666667152,
      "v": 100
    },
    {
      "midi": 66,
      "hit": false,
      "t": 111000,
      "d": 196.66666666667152,
      "v": 100
    },
    {
      "midi": 63,
      "hit": false,
      "t": 111200,
      "d": 196.66666666667152,
      "v": 100
    },
    {
      "midi": 64,
      "hit": false,
      "t": 111400,
      "d": 196.66666666667152,
      "v": 100
    },
    {
      "midi": 66,
      "hit": false,
      "t": 111600,
      "d": 196.66666666667152,
      "v": 100
    },
    {
      "midi": 69,
      "hit": false,
      "t": 111800,
      "d": 196.66666666667152,
      "v": 100
    },
    {
      "midi": 68,
      "hit": false,
      "t": 112000,
      "d": 196.66666666667152,
      "v": 100
    },
    {
      "midi": 49,
      "hit": false,
      "t": 112000,
      "d": 2796.6666666666715,
      "v": 100
    },
    {
      "midi": 68,
      "hit": false,
      "t": 112200,
      "d": 196.66666666667152,
      "v": 100
    },
    {
      "midi": 66,
      "hit": false,
      "t": 112400,
      "d": 196.66666666667152,
      "v": 100
    },
    {
      "midi": 68,
      "hit": false,
      "t": 112600,
      "d": 196.66666666667152,
      "v": 100
    },
    {
      "midi": 64,
      "hit": false,
      "t": 112800,
      "d": 196.66666666667152,
      "v": 100
    },
    {
      "midi": 68,
      "hit": false,
      "t": 113000,
      "d": 196.66666666667152,
      "v": 100
    },
    {
      "midi": 63,
      "hit": false,
      "t": 113200,
      "d": 196.66666666667152,
      "v": 100
    },
    {
      "midi": 68,
      "hit": false,
      "t": 113400,
      "d": 196.66666666667152,
      "v": 100
    },
    {
      "midi": 61,
      "hit": false,
      "t": 113600,
      "d": 196.66666666667152,
      "v": 100
    },
    {
      "midi": 68,
      "hit": false,
      "t": 113800,
      "d": 196.66666666667152,
      "v": 100
    },
    {
      "midi": 66,
      "hit": false,
      "t": 114000,
      "d": 196.66666666667152,
      "v": 100
    },
    {
      "midi": 68,
      "hit": false,
      "t": 114200,
      "d": 196.66666666667152,
      "v": 100
    },
    {
      "midi": 64,
      "hit": false,
      "t": 114400,
      "d": 196.66666666667152,
      "v": 100
    },
    {
      "midi": 68,
      "hit": false,
      "t": 114600,
      "d": 196.66666666667152,
      "v": 100
    },
    {
      "midi": 63,
      "hit": false,
      "t": 114800,
      "d": 196.66666666667152,
      "v": 100
    },
    {
      "midi": 32,
      "hit": false,
      "t": 114800,
      "d": 396.6666666666715,
      "v": 100
    },
    {
      "midi": 68,
      "hit": false,
      "t": 115000,
      "d": 196.66666666667152,
      "v": 100
    },
    {
      "midi": 37,
      "hit": false,
      "t": 115200,
      "d": 2796.6666666666715,
      "v": 100
    },
    {
      "midi": 68,
      "hit": false,
      "t": 115400,
      "d": 196.66666666667152,
      "v": 100
    },
    {
      "midi": 66,
      "hit": false,
      "t": 115600,
      "d": 196.66666666667152,
      "v": 100
    },
    {
      "midi": 68,
      "hit": false,
      "t": 115800,
      "d": 196.66666666667152,
      "v": 100
    },
    {
      "midi": 64,
      "hit": false,
      "t": 116000,
      "d": 196.66666666667152,
      "v": 100
    },
    {
      "midi": 68,
      "hit": false,
      "t": 116200,
      "d": 196.66666666667152,
      "v": 100
    },
    {
      "midi": 63,
      "hit": false,
      "t": 116400,
      "d": 196.66666666667152,
      "v": 100
    },
    {
      "midi": 68,
      "hit": false,
      "t": 116600,
      "d": 196.66666666667152,
      "v": 100
    },
    {
      "midi": 61,
      "hit": false,
      "t": 116800,
      "d": 196.66666666667152,
      "v": 100
    },
    {
      "midi": 68,
      "hit": false,
      "t": 117000,
      "d": 196.66666666667152,
      "v": 100
    },
    {
      "midi": 66,
      "hit": false,
      "t": 117200,
      "d": 196.66666666667152,
      "v": 100
    },
    {
      "midi": 68,
      "hit": false,
      "t": 117400,
      "d": 196.66666666667152,
      "v": 100
    },
    {
      "midi": 64,
      "hit": false,
      "t": 117600,
      "d": 196.66666666667152,
      "v": 100
    },
    {
      "midi": 68,
      "hit": false,
      "t": 117800,
      "d": 196.66666666667152,
      "v": 100
    },
    {
      "midi": 63,
      "hit": false,
      "t": 118000,
      "d": 196.66666666667152,
      "v": 100
    },
    {
      "midi": 47,
      "hit": false,
      "t": 118000,
      "d": 396.6666666666715,
      "v": 100
    },
    {
      "midi": 68,
      "hit": false,
      "t": 118200,
      "d": 196.66666666667152,
      "v": 100
    },
    {
      "midi": 61,
      "hit": false,
      "t": 118400,
      "d": 200,
      "v": 100
    },
    {
      "midi": 45,
      "hit": false,
      "t": 118400,
      "d": 3196.6666666666715,
      "v": 100
    },
    {
      "midi": 69,
      "hit": false,
      "t": 118600,
      "d": 196.66666666667152,
      "v": 100
    },
    {
      "midi": 68,
      "hit": false,
      "t": 118800,
      "d": 196.66666666667152,
      "v": 100
    },
    {
      "midi": 69,
      "hit": false,
      "t": 119000,
      "d": 196.66666666667152,
      "v": 100
    },
    {
      "midi": 66,
      "hit": false,
      "t": 119200,
      "d": 196.66666666667152,
      "v": 100
    },
    {
      "midi": 69,
      "hit": false,
      "t": 119400,
      "d": 196.66666666667152,
      "v": 100
    },
    {
      "midi": 64,
      "hit": false,
      "t": 119600,
      "d": 196.66666666667152,
      "v": 100
    },
    {
      "midi": 69,
      "hit": false,
      "t": 119800,
      "d": 196.66666666667152,
      "v": 100
    },
    {
      "midi": 63,
      "hit": false,
      "t": 120000,
      "d": 196.66666666667152,
      "v": 100
    },
    {
      "midi": 69,
      "hit": false,
      "t": 120200,
      "d": 196.66666666667152,
      "v": 100
    },
    {
      "midi": 68,
      "hit": false,
      "t": 120400,
      "d": 196.66666666667152,
      "v": 100
    },
    {
      "midi": 69,
      "hit": false,
      "t": 120600,
      "d": 196.66666666667152,
      "v": 100
    },
    {
      "midi": 66,
      "hit": false,
      "t": 120800,
      "d": 196.66666666667152,
      "v": 100
    },
    {
      "midi": 69,
      "hit": false,
      "t": 121000,
      "d": 196.66666666667152,
      "v": 100
    },
    {
      "midi": 64,
      "hit": false,
      "t": 121200,
      "d": 196.66666666667152,
      "v": 100
    },
    {
      "midi": 69,
      "hit": false,
      "t": 121400,
      "d": 196.66666666667152,
      "v": 100
    },
    {
      "midi": 63,
      "hit": false,
      "t": 121600,
      "d": 196.66666666667152,
      "v": 100
    },
    {
      "midi": 47,
      "hit": false,
      "t": 121600,
      "d": 3196.6666666666715,
      "v": 100
    },
    {
      "midi": 66,
      "hit": false,
      "t": 121800,
      "d": 196.66666666667152,
      "v": 100
    },
    {
      "midi": 64,
      "hit": false,
      "t": 122000,
      "d": 196.66666666667152,
      "v": 100
    },
    {
      "midi": 66,
      "hit": false,
      "t": 122200,
      "d": 196.66666666667152,
      "v": 100
    },
    {
      "midi": 63,
      "hit": false,
      "t": 122400,
      "d": 196.66666666667152,
      "v": 100
    },
    {
      "midi": 66,
      "hit": false,
      "t": 122600,
      "d": 196.66666666667152,
      "v": 100
    },
    {
      "midi": 61,
      "hit": false,
      "t": 122800,
      "d": 196.66666666667152,
      "v": 100
    },
    {
      "midi": 66,
      "hit": false,
      "t": 123000,
      "d": 196.66666666667152,
      "v": 100
    },
    {
      "midi": 59,
      "hit": false,
      "t": 123200,
      "d": 196.66666666667152,
      "v": 100
    },
    {
      "midi": 66,
      "hit": false,
      "t": 123400,
      "d": 196.66666666667152,
      "v": 100
    },
    {
      "midi": 64,
      "hit": false,
      "t": 123600,
      "d": 196.66666666667152,
      "v": 100
    },
    {
      "midi": 66,
      "hit": false,
      "t": 123800,
      "d": 196.66666666667152,
      "v": 100
    },
    {
      "midi": 63,
      "hit": false,
      "t": 124000,
      "d": 196.66666666667152,
      "v": 100
    },
    {
      "midi": 64,
      "hit": false,
      "t": 124200,
      "d": 196.66666666667152,
      "v": 100
    },
    {
      "midi": 66,
      "hit": false,
      "t": 124400,
      "d": 196.66666666667152,
      "v": 100
    },
    {
      "midi": 69,
      "hit": false,
      "t": 124600,
      "d": 196.66666666667152,
      "v": 100
    },
    {
      "midi": 68,
      "hit": false,
      "t": 124800,
      "d": 196.66666666667152,
      "v": 100
    },
    {
      "midi": 49,
      "hit": false,
      "t": 124800,
      "d": 2796.6666666666715,
      "v": 100
    },
    {
      "midi": 68,
      "hit": false,
      "t": 125000,
      "d": 196.66666666667152,
      "v": 100
    },
    {
      "midi": 66,
      "hit": false,
      "t": 125200,
      "d": 196.66666666667152,
      "v": 100
    },
    {
      "midi": 68,
      "hit": false,
      "t": 125400,
      "d": 196.66666666667152,
      "v": 100
    },
    {
      "midi": 64,
      "hit": false,
      "t": 125600,
      "d": 196.66666666667152,
      "v": 100
    },
    {
      "midi": 68,
      "hit": false,
      "t": 125800,
      "d": 196.66666666667152,
      "v": 100
    },
    {
      "midi": 63,
      "hit": false,
      "t": 126000,
      "d": 196.66666666667152,
      "v": 100
    },
    {
      "midi": 68,
      "hit": false,
      "t": 126200,
      "d": 196.66666666667152,
      "v": 100
    },
    {
      "midi": 61,
      "hit": false,
      "t": 126400,
      "d": 196.66666666667152,
      "v": 100
    },
    {
      "midi": 68,
      "hit": false,
      "t": 126600,
      "d": 196.66666666667152,
      "v": 100
    },
    {
      "midi": 66,
      "hit": false,
      "t": 126800,
      "d": 196.66666666667152,
      "v": 100
    },
    {
      "midi": 68,
      "hit": false,
      "t": 127000,
      "d": 196.66666666667152,
      "v": 100
    },
    {
      "midi": 64,
      "hit": false,
      "t": 127200,
      "d": 196.66666666667152,
      "v": 100
    },
    {
      "midi": 68,
      "hit": false,
      "t": 127400,
      "d": 196.66666666667152,
      "v": 100
    },
    {
      "midi": 63,
      "hit": false,
      "t": 127600,
      "d": 196.66666666667152,
      "v": 100
    },
    {
      "midi": 32,
      "hit": false,
      "t": 127600,
      "d": 396.6666666666715,
      "v": 100
    },
    {
      "midi": 68,
      "hit": false,
      "t": 127800,
      "d": 196.66666666667152,
      "v": 100
    },
    {
      "midi": 73,
      "hit": false,
      "t": 140800,
      "d": 1596.666666666657,
      "v": 100
    },
    {
      "midi": 68,
      "hit": false,
      "t": 141000,
      "d": 196.66666666665697,
      "v": 100
    },
    {
      "midi": 66,
      "hit": false,
      "t": 141200,
      "d": 196.66666666665697,
      "v": 100
    },
    {
      "midi": 68,
      "hit": false,
      "t": 141400,
      "d": 196.66666666665697,
      "v": 100
    },
    {
      "midi": 64,
      "hit": false,
      "t": 141600,
      "d": 196.66666666665697,
      "v": 100
    },
    {
      "midi": 68,
      "hit": false,
      "t": 141800,
      "d": 196.66666666665697,
      "v": 100
    },
    {
      "midi": 66,
      "hit": false,
      "t": 142000,
      "d": 196.66666666665697,
      "v": 100
    },
    {
      "midi": 68,
      "hit": false,
      "t": 142200,
      "d": 196.66666666665697,
      "v": 100
    },
    {
      "midi": 80,
      "hit": false,
      "t": 142400,
      "d": 1596.666666666657,
      "v": 100
    },
    {
      "midi": 68,
      "hit": false,
      "t": 142600,
      "d": 196.66666666665697,
      "v": 100
    },
    {
      "midi": 66,
      "hit": false,
      "t": 142800,
      "d": 196.66666666665697,
      "v": 100
    },
    {
      "midi": 68,
      "hit": false,
      "t": 143000,
      "d": 196.66666666665697,
      "v": 100
    },
    {
      "midi": 63,
      "hit": false,
      "t": 143200,
      "d": 196.66666666665697,
      "v": 100
    },
    {
      "midi": 68,
      "hit": false,
      "t": 143400,
      "d": 196.66666666665697,
      "v": 100
    },
    {
      "midi": 66,
      "hit": false,
      "t": 143600,
      "d": 196.66666666665697,
      "v": 100
    },
    {
      "midi": 68,
      "hit": false,
      "t": 143800,
      "d": 196.66666666665697,
      "v": 100
    },
    {
      "midi": 73,
      "hit": false,
      "t": 144000,
      "d": 1596.666666666657,
      "v": 100
    },
    {
      "midi": 68,
      "hit": false,
      "t": 144200,
      "d": 196.66666666665697,
      "v": 100
    },
    {
      "midi": 64,
      "hit": false,
      "t": 144400,
      "d": 196.66666666665697,
      "v": 100
    },
    {
      "midi": 68,
      "hit": false,
      "t": 144600,
      "d": 196.66666666665697,
      "v": 100
    },
    {
      "midi": 66,
      "hit": false,
      "t": 144800,
      "d": 196.66666666665697,
      "v": 100
    },
    {
      "midi": 68,
      "hit": false,
      "t": 145000,
      "d": 196.66666666665697,
      "v": 100
    },
    {
      "midi": 64,
      "hit": false,
      "t": 145200,
      "d": 196.66666666665697,
      "v": 100
    },
    {
      "midi": 68,
      "hit": false,
      "t": 145400,
      "d": 196.66666666665697,
      "v": 100
    },
    {
      "midi": 80,
      "hit": false,
      "t": 145600,
      "d": 1596.666666666657,
      "v": 100
    },
    {
      "midi": 68,
      "hit": false,
      "t": 145800,
      "d": 196.66666666665697,
      "v": 100
    },
    {
      "midi": 66,
      "hit": false,
      "t": 146000,
      "d": 196.66666666665697,
      "v": 100
    },
    {
      "midi": 68,
      "hit": false,
      "t": 146200,
      "d": 196.66666666665697,
      "v": 100
    },
    {
      "midi": 63,
      "hit": false,
      "t": 146400,
      "d": 196.66666666665697,
      "v": 100
    },
    {
      "midi": 68,
      "hit": false,
      "t": 146600,
      "d": 196.66666666665697,
      "v": 100
    },
    {
      "midi": 66,
      "hit": false,
      "t": 146800,
      "d": 196.66666666665697,
      "v": 100
    },
    {
      "midi": 68,
      "hit": false,
      "t": 147000,
      "d": 196.66666666665697,
      "v": 100
    },
    {
      "midi": 69,
      "hit": false,
      "t": 147200,
      "d": 196.66666666665697,
      "v": 100
    },
    {
      "midi": 66,
      "hit": false,
      "t": 147400,
      "d": 196.66666666665697,
      "v": 100
    },
    {
      "midi": 65,
      "hit": false,
      "t": 147600,
      "d": 196.66666666665697,
      "v": 100
    },
    {
      "midi": 66,
      "hit": false,
      "t": 147800,
      "d": 196.66666666665697,
      "v": 100
    },
    {
      "midi": 61,
      "hit": false,
      "t": 148000,
      "d": 200,
      "v": 100
    },
    {
      "midi": 69,
      "hit": false,
      "t": 148200,
      "d": 196.66666666665697,
      "v": 100
    },
    {
      "midi": 68,
      "hit": false,
      "t": 148400,
      "d": 196.66666666665697,
      "v": 100
    },
    {
      "midi": 66,
      "hit": false,
      "t": 148600,
      "d": 196.66666666665697,
      "v": 100
    },
    {
      "midi": 72,
      "hit": false,
      "t": 148800,
      "d": 200,
      "v": 100
    },
    {
      "midi": 68,
      "hit": false,
      "t": 149000,
      "d": 200,
      "v": 100
    },
    {
      "midi": 66,
      "hit": false,
      "t": 149200,
      "d": 200,
      "v": 100
    },
    {
      "midi": 68,
      "hit": false,
      "t": 149400,
      "d": 200,
      "v": 100
    },
    {
      "midi": 64,
      "hit": false,
      "t": 149600,
      "d": 200,
      "v": 100
    },
    {
      "midi": 68,
      "hit": false,
      "t": 149800,
      "d": 200,
      "v": 100
    },
    {
      "midi": 63,
      "hit": false,
      "t": 150000,
      "d": 200,
      "v": 100
    },
    {
      "midi": 68,
      "hit": false,
      "t": 150200,
      "d": 200,
      "v": 100
    },
    {
      "midi": 73,
      "hit": false,
      "t": 150400,
      "d": 200,
      "v": 100
    },
    {
      "midi": 72,
      "hit": false,
      "t": 150600,
      "d": 200,
      "v": 100
    },
    {
      "midi": 73,
      "hit": false,
      "t": 150800,
      "d": 200,
      "v": 100
    },
    {
      "midi": 75,
      "hit": false,
      "t": 151000,
      "d": 200,
      "v": 100
    },
    {
      "midi": 76,
      "hit": false,
      "t": 151200,
      "d": 200,
      "v": 100
    },
    {
      "midi": 73,
      "hit": false,
      "t": 151400,
      "d": 200,
      "v": 100
    },
    {
      "midi": 69,
      "hit": false,
      "t": 151600,
      "d": 200,
      "v": 100
    },
    {
      "midi": 73,
      "hit": false,
      "t": 151800,
      "d": 200,
      "v": 100
    },
    {
      "midi": 68,
      "hit": false,
      "t": 152000,
      "d": 200,
      "v": 100
    },
    {
      "midi": 73,
      "hit": false,
      "t": 152200,
      "d": 200,
      "v": 100
    },
    {
      "midi": 66,
      "hit": false,
      "t": 152400,
      "d": 200,
      "v": 100
    },
    {
      "midi": 73,
      "hit": false,
      "t": 152600,
      "d": 200,
      "v": 100
    },
    {
      "midi": 64,
      "hit": false,
      "t": 152800,
      "d": 800,
      "v": 100
    },
    {
      "midi": 37,
      "hit": false,
      "t": 204800,
      "d": 2796.666666666657,
      "v": 100
    },
    {
      "midi": 68,
      "hit": false,
      "t": 205000,
      "d": 196.66666666665697,
      "v": 100
    },
    {
      "midi": 66,
      "hit": false,
      "t": 205200,
      "d": 196.66666666665697,
      "v": 100
    },
    {
      "midi": 68,
      "hit": false,
      "t": 205400,
      "d": 196.66666666665697,
      "v": 100
    },
    {
      "midi": 64,
      "hit": false,
      "t": 205600,
      "d": 196.66666666665697,
      "v": 100
    },
    {
      "midi": 68,
      "hit": false,
      "t": 205800,
      "d": 196.66666666665697,
      "v": 100
    },
    {
      "midi": 63,
      "hit": false,
      "t": 206000,
      "d": 196.66666666665697,
      "v": 100
    },
    {
      "midi": 68,
      "hit": false,
      "t": 206200,
      "d": 196.66666666665697,
      "v": 100
    },
    {
      "midi": 61,
      "hit": false,
      "t": 206400,
      "d": 196.66666666665697,
      "v": 100
    },
    {
      "midi": 68,
      "hit": false,
      "t": 206600,
      "d": 196.66666666665697,
      "v": 100
    },
    {
      "midi": 66,
      "hit": false,
      "t": 206800,
      "d": 196.66666666665697,
      "v": 100
    },
    {
      "midi": 68,
      "hit": false,
      "t": 207000,
      "d": 196.66666666665697,
      "v": 100
    },
    {
      "midi": 64,
      "hit": false,
      "t": 207200,
      "d": 196.66666666665697,
      "v": 100
    },
    {
      "midi": 68,
      "hit": false,
      "t": 207400,
      "d": 196.66666666665697,
      "v": 100
    },
    {
      "midi": 63,
      "hit": false,
      "t": 207600,
      "d": 196.66666666665697,
      "v": 100
    },
    {
      "midi": 47,
      "hit": false,
      "t": 207600,
      "d": 396.66666666665697,
      "v": 100
    },
    {
      "midi": 68,
      "hit": false,
      "t": 207800,
      "d": 196.66666666665697,
      "v": 100
    },
    {
      "midi": 61,
      "hit": false,
      "t": 208000,
      "d": 200,
      "v": 100
    },
    {
      "midi": 45,
      "hit": false,
      "t": 208000,
      "d": 3196.666666666657,
      "v": 100
    },
    {
      "midi": 69,
      "hit": false,
      "t": 208200,
      "d": 196.66666666665697,
      "v": 100
    },
    {
      "midi": 68,
      "hit": false,
      "t": 208400,
      "d": 196.66666666665697,
      "v": 100
    },
    {
      "midi": 69,
      "hit": false,
      "t": 208600,
      "d": 196.66666666665697,
      "v": 100
    },
    {
      "midi": 66,
      "hit": false,
      "t": 208800,
      "d": 196.66666666665697,
      "v": 100
    },
    {
      "midi": 69,
      "hit": false,
      "t": 209000,
      "d": 196.66666666665697,
      "v": 100
    },
    {
      "midi": 64,
      "hit": false,
      "t": 209200,
      "d": 196.66666666665697,
      "v": 100
    },
    {
      "midi": 69,
      "hit": false,
      "t": 209400,
      "d": 196.66666666665697,
      "v": 100
    },
    {
      "midi": 63,
      "hit": false,
      "t": 209600,
      "d": 196.66666666665697,
      "v": 100
    },
    {
      "midi": 69,
      "hit": false,
      "t": 209800,
      "d": 196.66666666665697,
      "v": 100
    },
    {
      "midi": 68,
      "hit": false,
      "t": 210000,
      "d": 196.66666666665697,
      "v": 100
    },
    {
      "midi": 69,
      "hit": false,
      "t": 210200,
      "d": 196.66666666665697,
      "v": 100
    },
    {
      "midi": 66,
      "hit": false,
      "t": 210400,
      "d": 196.66666666665697,
      "v": 100
    },
    {
      "midi": 69,
      "hit": false,
      "t": 210600,
      "d": 196.66666666665697,
      "v": 100
    },
    {
      "midi": 64,
      "hit": false,
      "t": 210800,
      "d": 196.66666666665697,
      "v": 100
    },
    {
      "midi": 69,
      "hit": false,
      "t": 211000,
      "d": 196.66666666665697,
      "v": 100
    },
    {
      "midi": 63,
      "hit": false,
      "t": 211200,
      "d": 196.66666666665697,
      "v": 100
    },
    {
      "midi": 47,
      "hit": false,
      "t": 211200,
      "d": 3196.666666666657,
      "v": 100
    },
    {
      "midi": 66,
      "hit": false,
      "t": 211400,
      "d": 196.66666666665697,
      "v": 100
    },
    {
      "midi": 64,
      "hit": false,
      "t": 211600,
      "d": 196.66666666665697,
      "v": 100
    },
    {
      "midi": 66,
      "hit": false,
      "t": 211800,
      "d": 196.66666666665697,
      "v": 100
    },
    {
      "midi": 63,
      "hit": false,
      "t": 212000,
      "d": 196.66666666665697,
      "v": 100
    },
    {
      "midi": 66,
      "hit": false,
      "t": 212200,
      "d": 196.66666666665697,
      "v": 100
    },
    {
      "midi": 61,
      "hit": false,
      "t": 212400,
      "d": 196.66666666665697,
      "v": 100
    },
    {
      "midi": 66,
      "hit": false,
      "t": 212600,
      "d": 196.66666666665697,
      "v": 100
    },
    {
      "midi": 59,
      "hit": false,
      "t": 212800,
      "d": 196.66666666665697,
      "v": 100
    },
    {
      "midi": 66,
      "hit": false,
      "t": 213000,
      "d": 196.66666666665697,
      "v": 100
    },
    {
      "midi": 64,
      "hit": false,
      "t": 213200,
      "d": 196.66666666665697,
      "v": 100
    },
    {
      "midi": 66,
      "hit": false,
      "t": 213400,
      "d": 196.66666666665697,
      "v": 100
    },
    {
      "midi": 63,
      "hit": false,
      "t": 213600,
      "d": 196.66666666665697,
      "v": 100
    },
    {
      "midi": 64,
      "hit": false,
      "t": 213800,
      "d": 196.66666666665697,
      "v": 100
    },
    {
      "midi": 66,
      "hit": false,
      "t": 214000,
      "d": 196.66666666665697,
      "v": 100
    },
    {
      "midi": 69,
      "hit": false,
      "t": 214200,
      "d": 196.66666666665697,
      "v": 100
    },
    {
      "midi": 68,
      "hit": false,
      "t": 214400,
      "d": 196.66666666665697,
      "v": 100
    },
    {
      "midi": 49,
      "hit": false,
      "t": 214400,
      "d": 2796.666666666657,
      "v": 100
    },
    {
      "midi": 68,
      "hit": false,
      "t": 214600,
      "d": 196.66666666665697,
      "v": 100
    },
    {
      "midi": 66,
      "hit": false,
      "t": 214800,
      "d": 196.66666666665697,
      "v": 100
    },
    {
      "midi": 68,
      "hit": false,
      "t": 215000,
      "d": 196.66666666665697,
      "v": 100
    },
    {
      "midi": 64,
      "hit": false,
      "t": 215200,
      "d": 196.66666666665697,
      "v": 100
    },
    {
      "midi": 68,
      "hit": false,
      "t": 215400,
      "d": 196.66666666665697,
      "v": 100
    },
    {
      "midi": 63,
      "hit": false,
      "t": 215600,
      "d": 196.66666666665697,
      "v": 100
    },
    {
      "midi": 68,
      "hit": false,
      "t": 215800,
      "d": 196.66666666665697,
      "v": 100
    },
    {
      "midi": 61,
      "hit": false,
      "t": 216000,
      "d": 196.66666666665697,
      "v": 100
    },
    {
      "midi": 68,
      "hit": false,
      "t": 216200,
      "d": 196.66666666665697,
      "v": 100
    },
    {
      "midi": 66,
      "hit": false,
      "t": 216400,
      "d": 196.66666666665697,
      "v": 100
    },
    {
      "midi": 68,
      "hit": false,
      "t": 216600,
      "d": 196.66666666665697,
      "v": 100
    },
    {
      "midi": 64,
      "hit": false,
      "t": 216800,
      "d": 196.66666666665697,
      "v": 100
    },
    {
      "midi": 68,
      "hit": false,
      "t": 217000,
      "d": 196.66666666665697,
      "v": 100
    },
    {
      "midi": 63,
      "hit": false,
      "t": 217200,
      "d": 196.66666666665697,
      "v": 100
    },
    {
      "midi": 32,
      "hit": false,
      "t": 217200,
      "d": 396.66666666665697,
      "v": 100
    },
    {
      "midi": 68,
      "hit": false,
      "t": 217400,
      "d": 196.66666666665697,
      "v": 100
    },
    {
      "midi": 37,
      "hit": false,
      "t": 217600,
      "d": 2796.666666666657,
      "v": 100
    },
    {
      "midi": 68,
      "hit": false,
      "t": 217800,
      "d": 196.66666666665697,
      "v": 100
    },
    {
      "midi": 66,
      "hit": false,
      "t": 218000,
      "d": 196.66666666665697,
      "v": 100
    },
    {
      "midi": 68,
      "hit": false,
      "t": 218200,
      "d": 196.66666666665697,
      "v": 100
    },
    {
      "midi": 64,
      "hit": false,
      "t": 218400,
      "d": 196.66666666665697,
      "v": 100
    },
    {
      "midi": 68,
      "hit": false,
      "t": 218600,
      "d": 196.66666666665697,
      "v": 100
    },
    {
      "midi": 63,
      "hit": false,
      "t": 218800,
      "d": 196.66666666665697,
      "v": 100
    },
    {
      "midi": 68,
      "hit": false,
      "t": 219000,
      "d": 196.66666666665697,
      "v": 100
    },
    {
      "midi": 61,
      "hit": false,
      "t": 219200,
      "d": 196.66666666665697,
      "v": 100
    },
    {
      "midi": 68,
      "hit": false,
      "t": 219400,
      "d": 196.66666666665697,
      "v": 100
    },
    {
      "midi": 66,
      "hit": false,
      "t": 219600,
      "d": 196.66666666665697,
      "v": 100
    },
    {
      "midi": 68,
      "hit": false,
      "t": 219800,
      "d": 196.66666666665697,
      "v": 100
    },
    {
      "midi": 64,
      "hit": false,
      "t": 220000,
      "d": 196.66666666665697,
      "v": 100
    },
    {
      "midi": 68,
      "hit": false,
      "t": 220200,
      "d": 196.66666666665697,
      "v": 100
    },
    {
      "midi": 63,
      "hit": false,
      "t": 220400,
      "d": 196.66666666665697,
      "v": 100
    },
    {
      "midi": 47,
      "hit": false,
      "t": 220400,
      "d": 396.66666666665697,
      "v": 100
    },
    {
      "midi": 68,
      "hit": false,
      "t": 220600,
      "d": 196.66666666665697,
      "v": 100
    },
    {
      "midi": 61,
      "hit": false,
      "t": 220800,
      "d": 200,
      "v": 100
    },
    {
      "midi": 45,
      "hit": false,
      "t": 220800,
      "d": 3196.666666666657,
      "v": 100
    },
    {
      "midi": 69,
      "hit": false,
      "t": 221000,
      "d": 196.66666666665697,
      "v": 100
    },
    {
      "midi": 68,
      "hit": false,
      "t": 221200,
      "d": 196.66666666665697,
      "v": 100
    },
    {
      "midi": 69,
      "hit": false,
      "t": 221400,
      "d": 196.66666666665697,
      "v": 100
    },
    {
      "midi": 66,
      "hit": false,
      "t": 221600,
      "d": 196.66666666665697,
      "v": 100
    },
    {
      "midi": 69,
      "hit": false,
      "t": 221800,
      "d": 196.66666666665697,
      "v": 100
    },
    {
      "midi": 64,
      "hit": false,
      "t": 222000,
      "d": 196.66666666665697,
      "v": 100
    },
    {
      "midi": 69,
      "hit": false,
      "t": 222200,
      "d": 196.66666666665697,
      "v": 100
    },
    {
      "midi": 63,
      "hit": false,
      "t": 222400,
      "d": 196.66666666665697,
      "v": 100
    },
    {
      "midi": 69,
      "hit": false,
      "t": 222600,
      "d": 196.66666666665697,
      "v": 100
    },
    {
      "midi": 68,
      "hit": false,
      "t": 222800,
      "d": 196.66666666665697,
      "v": 100
    },
    {
      "midi": 69,
      "hit": false,
      "t": 223000,
      "d": 196.66666666665697,
      "v": 100
    },
    {
      "midi": 66,
      "hit": false,
      "t": 223200,
      "d": 196.66666666665697,
      "v": 100
    },
    {
      "midi": 69,
      "hit": false,
      "t": 223400,
      "d": 196.66666666665697,
      "v": 100
    },
    {
      "midi": 64,
      "hit": false,
      "t": 223600,
      "d": 196.66666666665697,
      "v": 100
    },
    {
      "midi": 69,
      "hit": false,
      "t": 223800,
      "d": 196.66666666665697,
      "v": 100
    },
    {
      "midi": 63,
      "hit": false,
      "t": 224000,
      "d": 196.66666666665697,
      "v": 100
    },
    {
      "midi": 47,
      "hit": false,
      "t": 224000,
      "d": 3196.666666666657,
      "v": 100
    },
    {
      "midi": 66,
      "hit": false,
      "t": 224200,
      "d": 196.66666666665697,
      "v": 100
    },
    {
      "midi": 64,
      "hit": false,
      "t": 224400,
      "d": 196.66666666665697,
      "v": 100
    },
    {
      "midi": 66,
      "hit": false,
      "t": 224600,
      "d": 196.66666666665697,
      "v": 100
    },
    {
      "midi": 63,
      "hit": false,
      "t": 224800,
      "d": 196.66666666665697,
      "v": 100
    },
    {
      "midi": 66,
      "hit": false,
      "t": 225000,
      "d": 196.66666666665697,
      "v": 100
    },
    {
      "midi": 61,
      "hit": false,
      "t": 225200,
      "d": 196.66666666665697,
      "v": 100
    },
    {
      "midi": 66,
      "hit": false,
      "t": 225400,
      "d": 196.66666666665697,
      "v": 100
    },
    {
      "midi": 59,
      "hit": false,
      "t": 225600,
      "d": 196.66666666665697,
      "v": 100
    },
    {
      "midi": 66,
      "hit": false,
      "t": 225800,
      "d": 196.66666666665697,
      "v": 100
    },
    {
      "midi": 64,
      "hit": false,
      "t": 226000,
      "d": 196.66666666665697,
      "v": 100
    },
    {
      "midi": 66,
      "hit": false,
      "t": 226200,
      "d": 196.66666666665697,
      "v": 100
    },
    {
      "midi": 63,
      "hit": false,
      "t": 226400,
      "d": 196.66666666665697,
      "v": 100
    },
    {
      "midi": 64,
      "hit": false,
      "t": 226600,
      "d": 196.66666666665697,
      "v": 100
    },
    {
      "midi": 66,
      "hit": false,
      "t": 226800,
      "d": 196.66666666665697,
      "v": 100
    },
    {
      "midi": 69,
      "hit": false,
      "t": 227000,
      "d": 196.66666666665697,
      "v": 100
    },
    {
      "midi": 68,
      "hit": false,
      "t": 227200,
      "d": 196.66666666665697,
      "v": 100
    },
    {
      "midi": 49,
      "hit": false,
      "t": 227200,
      "d": 2796.666666666657,
      "v": 100
    },
    {
      "midi": 68,
      "hit": false,
      "t": 227400,
      "d": 196.66666666665697,
      "v": 100
    },
    {
      "midi": 66,
      "hit": false,
      "t": 227600,
      "d": 196.66666666665697,
      "v": 100
    },
    {
      "midi": 68,
      "hit": false,
      "t": 227800,
      "d": 196.66666666665697,
      "v": 100
    },
    {
      "midi": 64,
      "hit": false,
      "t": 228000,
      "d": 196.66666666665697,
      "v": 100
    },
    {
      "midi": 68,
      "hit": false,
      "t": 228200,
      "d": 196.66666666665697,
      "v": 100
    },
    {
      "midi": 63,
      "hit": false,
      "t": 228400,
      "d": 196.66666666665697,
      "v": 100
    },
    {
      "midi": 68,
      "hit": false,
      "t": 228600,
      "d": 196.66666666665697,
      "v": 100
    },
    {
      "midi": 61,
      "hit": false,
      "t": 228800,
      "d": 196.66666666665697,
      "v": 100
    },
    {
      "midi": 68,
      "hit": false,
      "t": 229000,
      "d": 196.66666666665697,
      "v": 100
    },
    {
      "midi": 66,
      "hit": false,
      "t": 229200,
      "d": 196.66666666665697,
      "v": 100
    },
    {
      "midi": 68,
      "hit": false,
      "t": 229400,
      "d": 196.66666666665697,
      "v": 100
    },
    {
      "midi": 64,
      "hit": false,
      "t": 229600,
      "d": 196.66666666665697,
      "v": 100
    },
    {
      "midi": 68,
      "hit": false,
      "t": 229800,
      "d": 196.66666666665697,
      "v": 100
    },
    {
      "midi": 63,
      "hit": false,
      "t": 230000,
      "d": 196.66666666665697,
      "v": 100
    },
    {
      "midi": 32,
      "hit": false,
      "t": 230000,
      "d": 396.66666666665697,
      "v": 100
    },
    {
      "midi": 68,
      "hit": false,
      "t": 230200,
      "d": 196.66666666665697,
      "v": 100
    },
    {
      "midi": 37,
      "hit": false,
      "t": 230400,
      "d": 2796.666666666657,
      "v": 100
    },
    {
      "midi": 68,
      "hit": false,
      "t": 230600,
      "d": 196.66666666665697,
      "v": 100
    },
    {
      "midi": 66,
      "hit": false,
      "t": 230800,
      "d": 196.66666666665697,
      "v": 100
    },
    {
      "midi": 68,
      "hit": false,
      "t": 231000,
      "d": 196.66666666665697,
      "v": 100
    },
    {
      "midi": 64,
      "hit": false,
      "t": 231200,
      "d": 196.66666666665697,
      "v": 100
    },
    {
      "midi": 68,
      "hit": false,
      "t": 231400,
      "d": 196.66666666665697,
      "v": 100
    },
    {
      "midi": 63,
      "hit": false,
      "t": 231600,
      "d": 196.66666666665697,
      "v": 100
    },
    {
      "midi": 68,
      "hit": false,
      "t": 231800,
      "d": 196.66666666665697,
      "v": 100
    },
    {
      "midi": 61,
      "hit": false,
      "t": 232000,
      "d": 196.66666666665697,
      "v": 100
    },
    {
      "midi": 68,
      "hit": false,
      "t": 232200,
      "d": 196.66666666665697,
      "v": 100
    },
    {
      "midi": 66,
      "hit": false,
      "t": 232400,
      "d": 196.66666666665697,
      "v": 100
    },
    {
      "midi": 68,
      "hit": false,
      "t": 232600,
      "d": 196.66666666665697,
      "v": 100
    },
    {
      "midi": 64,
      "hit": false,
      "t": 232800,
      "d": 196.66666666665697,
      "v": 100
    },
    {
      "midi": 68,
      "hit": false,
      "t": 233000,
      "d": 196.66666666665697,
      "v": 100
    },
    {
      "midi": 63,
      "hit": false,
      "t": 233200,
      "d": 196.66666666665697,
      "v": 100
    },
    {
      "midi": 47,
      "hit": false,
      "t": 233200,
      "d": 396.66666666665697,
      "v": 100
    },
    {
      "midi": 68,
      "hit": false,
      "t": 233400,
      "d": 196.66666666665697,
      "v": 100
    },
    {
      "midi": 61,
      "hit": false,
      "t": 233600,
      "d": 200,
      "v": 100
    },
    {
      "midi": 45,
      "hit": false,
      "t": 233600,
      "d": 3196.666666666657,
      "v": 100
    },
    {
      "midi": 69,
      "hit": false,
      "t": 233800,
      "d": 196.66666666665697,
      "v": 100
    },
    {
      "midi": 68,
      "hit": false,
      "t": 234000,
      "d": 196.66666666665697,
      "v": 100
    },
    {
      "midi": 69,
      "hit": false,
      "t": 234200,
      "d": 196.66666666665697,
      "v": 100
    },
    {
      "midi": 66,
      "hit": false,
      "t": 234400,
      "d": 196.66666666665697,
      "v": 100
    },
    {
      "midi": 69,
      "hit": false,
      "t": 234600,
      "d": 196.66666666665697,
      "v": 100
    },
    {
      "midi": 64,
      "hit": false,
      "t": 234800,
      "d": 196.66666666665697,
      "v": 100
    },
    {
      "midi": 69,
      "hit": false,
      "t": 235000,
      "d": 196.66666666665697,
      "v": 100
    },
    {
      "midi": 63,
      "hit": false,
      "t": 235200,
      "d": 196.66666666665697,
      "v": 100
    },
    {
      "midi": 69,
      "hit": false,
      "t": 235400,
      "d": 196.66666666665697,
      "v": 100
    },
    {
      "midi": 68,
      "hit": false,
      "t": 235600,
      "d": 196.66666666665697,
      "v": 100
    },
    {
      "midi": 69,
      "hit": false,
      "t": 235800,
      "d": 196.66666666665697,
      "v": 100
    },
    {
      "midi": 66,
      "hit": false,
      "t": 236000,
      "d": 196.66666666665697,
      "v": 100
    },
    {
      "midi": 69,
      "hit": false,
      "t": 236200,
      "d": 196.66666666665697,
      "v": 100
    },
    {
      "midi": 64,
      "hit": false,
      "t": 236400,
      "d": 196.66666666665697,
      "v": 100
    },
    {
      "midi": 69,
      "hit": false,
      "t": 236600,
      "d": 196.66666666665697,
      "v": 100
    },
    {
      "midi": 63,
      "hit": false,
      "t": 236800,
      "d": 196.66666666665697,
      "v": 100
    },
    {
      "midi": 47,
      "hit": false,
      "t": 236800,
      "d": 3196.666666666657,
      "v": 100
    },
    {
      "midi": 66,
      "hit": false,
      "t": 237000,
      "d": 196.66666666665697,
      "v": 100
    },
    {
      "midi": 64,
      "hit": false,
      "t": 237200,
      "d": 196.66666666665697,
      "v": 100
    },
    {
      "midi": 66,
      "hit": false,
      "t": 237400,
      "d": 196.66666666665697,
      "v": 100
    },
    {
      "midi": 63,
      "hit": false,
      "t": 237600,
      "d": 196.66666666665697,
      "v": 100
    },
    {
      "midi": 66,
      "hit": false,
      "t": 237800,
      "d": 196.66666666665697,
      "v": 100
    },
    {
      "midi": 61,
      "hit": false,
      "t": 238000,
      "d": 196.66666666665697,
      "v": 100
    },
    {
      "midi": 66,
      "hit": false,
      "t": 238200,
      "d": 196.66666666665697,
      "v": 100
    },
    {
      "midi": 59,
      "hit": false,
      "t": 238400,
      "d": 196.66666666665697,
      "v": 100
    },
    {
      "midi": 66,
      "hit": false,
      "t": 238600,
      "d": 196.66666666665697,
      "v": 100
    },
    {
      "midi": 64,
      "hit": false,
      "t": 238800,
      "d": 196.66666666665697,
      "v": 100
    },
    {
      "midi": 66,
      "hit": false,
      "t": 239000,
      "d": 196.66666666665697,
      "v": 100
    },
    {
      "midi": 63,
      "hit": false,
      "t": 239200,
      "d": 196.66666666665697,
      "v": 100
    },
    {
      "midi": 64,
      "hit": false,
      "t": 239400,
      "d": 196.66666666665697,
      "v": 100
    },
    {
      "midi": 66,
      "hit": false,
      "t": 239600,
      "d": 196.66666666665697,
      "v": 100
    },
    {
      "midi": 69,
      "hit": false,
      "t": 239800,
      "d": 196.66666666665697,
      "v": 100
    },
    {
      "midi": 68,
      "hit": false,
      "t": 240000,
      "d": 196.66666666665697,
      "v": 100
    },
    {
      "midi": 49,
      "hit": false,
      "t": 240000,
      "d": 2796.666666666657,
      "v": 100
    },
    {
      "midi": 68,
      "hit": false,
      "t": 240200,
      "d": 196.66666666665697,
      "v": 100
    },
    {
      "midi": 66,
      "hit": false,
      "t": 240400,
      "d": 196.66666666665697,
      "v": 100
    },
    {
      "midi": 68,
      "hit": false,
      "t": 240600,
      "d": 196.66666666665697,
      "v": 100
    },
    {
      "midi": 64,
      "hit": false,
      "t": 240800,
      "d": 196.66666666665697,
      "v": 100
    },
    {
      "midi": 68,
      "hit": false,
      "t": 241000,
      "d": 196.66666666665697,
      "v": 100
    },
    {
      "midi": 63,
      "hit": false,
      "t": 241200,
      "d": 196.66666666665697,
      "v": 100
    },
    {
      "midi": 68,
      "hit": false,
      "t": 241400,
      "d": 196.66666666665697,
      "v": 100
    },
    {
      "midi": 61,
      "hit": false,
      "t": 241600,
      "d": 196.66666666665697,
      "v": 100
    },
    {
      "midi": 68,
      "hit": false,
      "t": 241800,
      "d": 196.66666666665697,
      "v": 100
    },
    {
      "midi": 66,
      "hit": false,
      "t": 242000,
      "d": 196.66666666665697,
      "v": 100
    },
    {
      "midi": 68,
      "hit": false,
      "t": 242200,
      "d": 196.66666666665697,
      "v": 100
    },
    {
      "midi": 64,
      "hit": false,
      "t": 242400,
      "d": 196.66666666665697,
      "v": 100
    },
    {
      "midi": 68,
      "hit": false,
      "t": 242600,
      "d": 196.66666666665697,
      "v": 100
    },
    {
      "midi": 63,
      "hit": false,
      "t": 242800,
      "d": 196.66666666665697,
      "v": 100
    },
    {
      "midi": 32,
      "hit": false,
      "t": 242800,
      "d": 396.66666666665697,
      "v": 100
    },
    {
      "midi": 68,
      "hit": false,
      "t": 243000,
      "d": 196.66666666665697,
      "v": 100
    },
    {
      "midi": 37,
      "hit": false,
      "t": 243200,
      "d": 2796.666666666657,
      "v": 100
    },
    {
      "midi": 68,
      "hit": false,
      "t": 243400,
      "d": 196.66666666665697,
      "v": 100
    },
    {
      "midi": 66,
      "hit": false,
      "t": 243600,
      "d": 196.66666666665697,
      "v": 100
    },
    {
      "midi": 68,
      "hit": false,
      "t": 243800,
      "d": 196.66666666665697,
      "v": 100
    },
    {
      "midi": 64,
      "hit": false,
      "t": 244000,
      "d": 196.66666666665697,
      "v": 100
    },
    {
      "midi": 68,
      "hit": false,
      "t": 244200,
      "d": 196.66666666665697,
      "v": 100
    },
    {
      "midi": 63,
      "hit": false,
      "t": 244400,
      "d": 196.66666666665697,
      "v": 100
    },
    {
      "midi": 68,
      "hit": false,
      "t": 244600,
      "d": 196.66666666665697,
      "v": 100
    },
    {
      "midi": 61,
      "hit": false,
      "t": 244800,
      "d": 196.66666666665697,
      "v": 100
    },
    {
      "midi": 68,
      "hit": false,
      "t": 245000,
      "d": 196.66666666665697,
      "v": 100
    },
    {
      "midi": 66,
      "hit": false,
      "t": 245200,
      "d": 196.66666666665697,
      "v": 100
    },
    {
      "midi": 68,
      "hit": false,
      "t": 245400,
      "d": 196.66666666665697,
      "v": 100
    },
    {
      "midi": 64,
      "hit": false,
      "t": 245600,
      "d": 196.66666666665697,
      "v": 100
    },
    {
      "midi": 68,
      "hit": false,
      "t": 245800,
      "d": 196.66666666665697,
      "v": 100
    },
    {
      "midi": 63,
      "hit": false,
      "t": 246000,
      "d": 196.66666666665697,
      "v": 100
    },
    {
      "midi": 47,
      "hit": false,
      "t": 246000,
      "d": 396.66666666665697,
      "v": 100
    },
    {
      "midi": 68,
      "hit": false,
      "t": 246200,
      "d": 196.66666666665697,
      "v": 100
    },
    {
      "midi": 61,
      "hit": false,
      "t": 246400,
      "d": 200,
      "v": 100
    },
    {
      "midi": 45,
      "hit": false,
      "t": 246400,
      "d": 3196.666666666657,
      "v": 100
    },
    {
      "midi": 69,
      "hit": false,
      "t": 246600,
      "d": 196.66666666665697,
      "v": 100
    },
    {
      "midi": 68,
      "hit": false,
      "t": 246800,
      "d": 196.66666666665697,
      "v": 100
    },
    {
      "midi": 69,
      "hit": false,
      "t": 247000,
      "d": 196.66666666665697,
      "v": 100
    },
    {
      "midi": 66,
      "hit": false,
      "t": 247200,
      "d": 196.66666666665697,
      "v": 100
    },
    {
      "midi": 69,
      "hit": false,
      "t": 247400,
      "d": 196.66666666665697,
      "v": 100
    },
    {
      "midi": 64,
      "hit": false,
      "t": 247600,
      "d": 196.66666666665697,
      "v": 100
    },
    {
      "midi": 69,
      "hit": false,
      "t": 247800,
      "d": 196.66666666665697,
      "v": 100
    },
    {
      "midi": 63,
      "hit": false,
      "t": 248000,
      "d": 196.66666666665697,
      "v": 100
    },
    {
      "midi": 69,
      "hit": false,
      "t": 248200,
      "d": 196.66666666665697,
      "v": 100
    },
    {
      "midi": 68,
      "hit": false,
      "t": 248400,
      "d": 196.66666666665697,
      "v": 100
    },
    {
      "midi": 69,
      "hit": false,
      "t": 248600,
      "d": 196.66666666665697,
      "v": 100
    },
    {
      "midi": 66,
      "hit": false,
      "t": 248800,
      "d": 196.66666666665697,
      "v": 100
    },
    {
      "midi": 69,
      "hit": false,
      "t": 249000,
      "d": 196.66666666665697,
      "v": 100
    },
    {
      "midi": 64,
      "hit": false,
      "t": 249200,
      "d": 196.66666666665697,
      "v": 100
    },
    {
      "midi": 69,
      "hit": false,
      "t": 249400,
      "d": 196.66666666665697,
      "v": 100
    },
    {
      "midi": 63,
      "hit": false,
      "t": 249600,
      "d": 196.66666666665697,
      "v": 100
    },
    {
      "midi": 47,
      "hit": false,
      "t": 249600,
      "d": 3196.666666666657,
      "v": 100
    },
    {
      "midi": 66,
      "hit": false,
      "t": 249800,
      "d": 196.66666666665697,
      "v": 100
    },
    {
      "midi": 64,
      "hit": false,
      "t": 250000,
      "d": 196.66666666665697,
      "v": 100
    },
    {
      "midi": 66,
      "hit": false,
      "t": 250200,
      "d": 196.66666666665697,
      "v": 100
    },
    {
      "midi": 63,
      "hit": false,
      "t": 250400,
      "d": 196.66666666665697,
      "v": 100
    },
    {
      "midi": 66,
      "hit": false,
      "t": 250600,
      "d": 196.66666666665697,
      "v": 100
    },
    {
      "midi": 61,
      "hit": false,
      "t": 250800,
      "d": 196.66666666665697,
      "v": 100
    },
    {
      "midi": 66,
      "hit": false,
      "t": 251000,
      "d": 196.66666666665697,
      "v": 100
    },
    {
      "midi": 59,
      "hit": false,
      "t": 251200,
      "d": 196.66666666665697,
      "v": 100
    },
    {
      "midi": 66,
      "hit": false,
      "t": 251400,
      "d": 196.66666666665697,
      "v": 100
    },
    {
      "midi": 64,
      "hit": false,
      "t": 251600,
      "d": 196.66666666665697,
      "v": 100
    },
    {
      "midi": 66,
      "hit": false,
      "t": 251800,
      "d": 196.66666666665697,
      "v": 100
    },
    {
      "midi": 63,
      "hit": false,
      "t": 252000,
      "d": 196.66666666665697,
      "v": 100
    },
    {
      "midi": 64,
      "hit": false,
      "t": 252200,
      "d": 196.66666666665697,
      "v": 100
    },
    {
      "midi": 66,
      "hit": false,
      "t": 252400,
      "d": 196.66666666665697,
      "v": 100
    },
    {
      "midi": 69,
      "hit": false,
      "t": 252600,
      "d": 196.66666666665697,
      "v": 100
    },
    {
      "midi": 68,
      "hit": false,
      "t": 252800,
      "d": 196.66666666665697,
      "v": 100
    },
    {
      "midi": 49,
      "hit": false,
      "t": 252800,
      "d": 2796.666666666657,
      "v": 100
    },
    {
      "midi": 68,
      "hit": false,
      "t": 253000,
      "d": 196.66666666665697,
      "v": 100
    },
    {
      "midi": 66,
      "hit": false,
      "t": 253200,
      "d": 196.66666666665697,
      "v": 100
    },
    {
      "midi": 68,
      "hit": false,
      "t": 253400,
      "d": 196.66666666665697,
      "v": 100
    },
    {
      "midi": 64,
      "hit": false,
      "t": 253600,
      "d": 196.66666666665697,
      "v": 100
    },
    {
      "midi": 68,
      "hit": false,
      "t": 253800,
      "d": 196.66666666665697,
      "v": 100
    },
    {
      "midi": 63,
      "hit": false,
      "t": 254000,
      "d": 196.66666666665697,
      "v": 100
    },
    {
      "midi": 68,
      "hit": false,
      "t": 254200,
      "d": 196.66666666665697,
      "v": 100
    },
    {
      "midi": 61,
      "hit": false,
      "t": 254400,
      "d": 196.66666666665697,
      "v": 100
    },
    {
      "midi": 68,
      "hit": false,
      "t": 254600,
      "d": 196.66666666665697,
      "v": 100
    },
    {
      "midi": 66,
      "hit": false,
      "t": 254800,
      "d": 196.66666666665697,
      "v": 100
    },
    {
      "midi": 68,
      "hit": false,
      "t": 255000,
      "d": 196.66666666665697,
      "v": 100
    },
    {
      "midi": 64,
      "hit": false,
      "t": 255200,
      "d": 196.66666666665697,
      "v": 100
    },
    {
      "midi": 68,
      "hit": false,
      "t": 255400,
      "d": 196.66666666665697,
      "v": 100
    },
    {
      "midi": 63,
      "hit": false,
      "t": 255600,
      "d": 196.66666666665697,
      "v": 100
    },
    {
      "midi": 32,
      "hit": false,
      "t": 255600,
      "d": 396.66666666665697,
      "v": 100
    },
    {
      "midi": 68,
      "hit": false,
      "t": 255800,
      "d": 196.66666666665697,
      "v": 100
    },
    {
      "midi": 37,
      "hit": false,
      "t": 256000,
      "d": 2796.666666666657,
      "v": 100
    },
    {
      "midi": 68,
      "hit": false,
      "t": 256200,
      "d": 196.66666666665697,
      "v": 100
    },
    {
      "midi": 66,
      "hit": false,
      "t": 256400,
      "d": 196.66666666665697,
      "v": 100
    },
    {
      "midi": 68,
      "hit": false,
      "t": 256600,
      "d": 196.66666666665697,
      "v": 100
    },
    {
      "midi": 64,
      "hit": false,
      "t": 256800,
      "d": 196.66666666665697,
      "v": 100
    },
    {
      "midi": 68,
      "hit": false,
      "t": 257000,
      "d": 196.66666666665697,
      "v": 100
    },
    {
      "midi": 63,
      "hit": false,
      "t": 257200,
      "d": 196.66666666665697,
      "v": 100
    },
    {
      "midi": 68,
      "hit": false,
      "t": 257400,
      "d": 196.66666666665697,
      "v": 100
    },
    {
      "midi": 61,
      "hit": false,
      "t": 257600,
      "d": 196.66666666665697,
      "v": 100
    },
    {
      "midi": 68,
      "hit": false,
      "t": 257800,
      "d": 196.66666666665697,
      "v": 100
    },
    {
      "midi": 66,
      "hit": false,
      "t": 258000,
      "d": 196.66666666665697,
      "v": 100
    },
    {
      "midi": 68,
      "hit": false,
      "t": 258200,
      "d": 196.66666666665697,
      "v": 100
    },
    {
      "midi": 64,
      "hit": false,
      "t": 258400,
      "d": 196.66666666665697,
      "v": 100
    },
    {
      "midi": 68,
      "hit": false,
      "t": 258600,
      "d": 196.66666666665697,
      "v": 100
    },
    {
      "midi": 63,
      "hit": false,
      "t": 258800,
      "d": 196.66666666665697,
      "v": 100
    },
    {
      "midi": 47,
      "hit": false,
      "t": 258800,
      "d": 396.66666666665697,
      "v": 100
    },
    {
      "midi": 68,
      "hit": false,
      "t": 259000,
      "d": 196.66666666665697,
      "v": 100
    },
    {
      "midi": 61,
      "hit": false,
      "t": 259200,
      "d": 200,
      "v": 100
    },
    {
      "midi": 45,
      "hit": false,
      "t": 259200,
      "d": 3196.666666666686,
      "v": 100
    },
    {
      "midi": 69,
      "hit": false,
      "t": 259400,
      "d": 196.66666666665697,
      "v": 100
    },
    {
      "midi": 68,
      "hit": false,
      "t": 259600,
      "d": 196.66666666665697,
      "v": 100
    },
    {
      "midi": 69,
      "hit": false,
      "t": 259800,
      "d": 196.66666666665697,
      "v": 100
    },
    {
      "midi": 66,
      "hit": false,
      "t": 260000,
      "d": 196.66666666665697,
      "v": 100
    },
    {
      "midi": 69,
      "hit": false,
      "t": 260200,
      "d": 196.66666666665697,
      "v": 100
    },
    {
      "midi": 64,
      "hit": false,
      "t": 260400,
      "d": 196.66666666665697,
      "v": 100
    },
    {
      "midi": 69,
      "hit": false,
      "t": 260600,
      "d": 196.66666666665697,
      "v": 100
    },
    {
      "midi": 63,
      "hit": false,
      "t": 260800,
      "d": 196.66666666665697,
      "v": 100
    },
    {
      "midi": 69,
      "hit": false,
      "t": 261000,
      "d": 196.66666666665697,
      "v": 100
    },
    {
      "midi": 68,
      "hit": false,
      "t": 261200,
      "d": 196.66666666665697,
      "v": 100
    },
    {
      "midi": 69,
      "hit": false,
      "t": 261400,
      "d": 196.66666666665697,
      "v": 100
    },
    {
      "midi": 66,
      "hit": false,
      "t": 261600,
      "d": 196.66666666665697,
      "v": 100
    },
    {
      "midi": 69,
      "hit": false,
      "t": 261800,
      "d": 196.66666666665697,
      "v": 100
    },
    {
      "midi": 64,
      "hit": false,
      "t": 262000,
      "d": 196.66666666668607,
      "v": 100
    },
    {
      "midi": 69,
      "hit": false,
      "t": 262200,
      "d": 196.66666666668607,
      "v": 100
    },
    {
      "midi": 63,
      "hit": false,
      "t": 262400,
      "d": 196.66666666668607,
      "v": 100
    },
    {
      "midi": 47,
      "hit": false,
      "t": 262400,
      "d": 3196.666666666686,
      "v": 100
    },
    {
      "midi": 66,
      "hit": false,
      "t": 262600,
      "d": 196.66666666668607,
      "v": 100
    },
    {
      "midi": 64,
      "hit": false,
      "t": 262800,
      "d": 196.66666666668607,
      "v": 100
    },
    {
      "midi": 66,
      "hit": false,
      "t": 263000,
      "d": 196.66666666668607,
      "v": 100
    },
    {
      "midi": 63,
      "hit": false,
      "t": 263200,
      "d": 196.66666666668607,
      "v": 100
    },
    {
      "midi": 66,
      "hit": false,
      "t": 263400,
      "d": 196.66666666668607,
      "v": 100
    },
    {
      "midi": 61,
      "hit": false,
      "t": 263600,
      "d": 196.66666666668607,
      "v": 100
    },
    {
      "midi": 66,
      "hit": false,
      "t": 263800,
      "d": 196.66666666668607,
      "v": 100
    },
    {
      "midi": 59,
      "hit": false,
      "t": 264000,
      "d": 196.66666666668607,
      "v": 100
    },
    {
      "midi": 66,
      "hit": false,
      "t": 264200,
      "d": 196.66666666668607,
      "v": 100
    },
    {
      "midi": 64,
      "hit": false,
      "t": 264400,
      "d": 196.66666666668607,
      "v": 100
    },
    {
      "midi": 66,
      "hit": false,
      "t": 264600,
      "d": 196.66666666668607,
      "v": 100
    },
    {
      "midi": 63,
      "hit": false,
      "t": 264800,
      "d": 196.66666666668607,
      "v": 100
    },
    {
      "midi": 64,
      "hit": false,
      "t": 265000,
      "d": 196.66666666668607,
      "v": 100
    },
    {
      "midi": 66,
      "hit": false,
      "t": 265200,
      "d": 196.66666666668607,
      "v": 100
    },
    {
      "midi": 69,
      "hit": false,
      "t": 265400,
      "d": 196.66666666668607,
      "v": 100
    },
    {
      "midi": 68,
      "hit": false,
      "t": 265600,
      "d": 196.66666666668607,
      "v": 100
    },
    {
      "midi": 49,
      "hit": false,
      "t": 265600,
      "d": 2796.666666666686,
      "v": 100
    },
    {
      "midi": 68,
      "hit": false,
      "t": 265800,
      "d": 196.66666666668607,
      "v": 100
    },
    {
      "midi": 66,
      "hit": false,
      "t": 266000,
      "d": 196.66666666668607,
      "v": 100
    },
    {
      "midi": 68,
      "hit": false,
      "t": 266200,
      "d": 196.66666666668607,
      "v": 100
    },
    {
      "midi": 64,
      "hit": false,
      "t": 266400,
      "d": 196.66666666668607,
      "v": 100
    },
    {
      "midi": 68,
      "hit": false,
      "t": 266600,
      "d": 196.66666666668607,
      "v": 100
    },
    {
      "midi": 63,
      "hit": false,
      "t": 266800,
      "d": 196.66666666668607,
      "v": 100
    },
    {
      "midi": 68,
      "hit": false,
      "t": 267000,
      "d": 196.66666666668607,
      "v": 100
    },
    {
      "midi": 61,
      "hit": false,
      "t": 267200,
      "d": 196.66666666668607,
      "v": 100
    },
    {
      "midi": 68,
      "hit": false,
      "t": 267400,
      "d": 196.66666666668607,
      "v": 100
    },
    {
      "midi": 66,
      "hit": false,
      "t": 267600,
      "d": 196.66666666668607,
      "v": 100
    },
    {
      "midi": 68,
      "hit": false,
      "t": 267800,
      "d": 196.66666666668607,
      "v": 100
    },
    {
      "midi": 64,
      "hit": false,
      "t": 268000,
      "d": 196.66666666668607,
      "v": 100
    },
    {
      "midi": 68,
      "hit": false,
      "t": 268200,
      "d": 196.66666666668607,
      "v": 100
    },
    {
      "midi": 63,
      "hit": false,
      "t": 268400,
      "d": 196.66666666668607,
      "v": 100
    },
    {
      "midi": 32,
      "hit": false,
      "t": 268400,
      "d": 396.66666666668607,
      "v": 100
    },
    {
      "midi": 68,
      "hit": false,
      "t": 268600,
      "d": 196.66666666668607,
      "v": 100
    },
    {
      "midi": 37,
      "hit": false,
      "t": 268800,
      "d": 2796.666666666686,
      "v": 100
    },
    {
      "midi": 68,
      "hit": false,
      "t": 269000,
      "d": 196.66666666668607,
      "v": 100
    },
    {
      "midi": 66,
      "hit": false,
      "t": 269200,
      "d": 196.66666666668607,
      "v": 100
    },
    {
      "midi": 68,
      "hit": false,
      "t": 269400,
      "d": 196.66666666668607,
      "v": 100
    },
    {
      "midi": 64,
      "hit": false,
      "t": 269600,
      "d": 196.66666666668607,
      "v": 100
    },
    {
      "midi": 68,
      "hit": false,
      "t": 269800,
      "d": 196.66666666668607,
      "v": 100
    },
    {
      "midi": 63,
      "hit": false,
      "t": 270000,
      "d": 196.66666666668607,
      "v": 100
    },
    {
      "midi": 68,
      "hit": false,
      "t": 270200,
      "d": 196.66666666668607,
      "v": 100
    },
    {
      "midi": 61,
      "hit": false,
      "t": 270400,
      "d": 196.66666666668607,
      "v": 100
    },
    {
      "midi": 68,
      "hit": false,
      "t": 270600,
      "d": 196.66666666668607,
      "v": 100
    },
    {
      "midi": 66,
      "hit": false,
      "t": 270800,
      "d": 196.66666666668607,
      "v": 100
    },
    {
      "midi": 68,
      "hit": false,
      "t": 271000,
      "d": 196.66666666668607,
      "v": 100
    },
    {
      "midi": 64,
      "hit": false,
      "t": 271200,
      "d": 196.66666666668607,
      "v": 100
    },
    {
      "midi": 68,
      "hit": false,
      "t": 271400,
      "d": 196.66666666668607,
      "v": 100
    },
    {
      "midi": 63,
      "hit": false,
      "t": 271600,
      "d": 196.66666666668607,
      "v": 100
    },
    {
      "midi": 47,
      "hit": false,
      "t": 271600,
      "d": 396.66666666668607,
      "v": 100
    },
    {
      "midi": 68,
      "hit": false,
      "t": 271800,
      "d": 196.66666666668607,
      "v": 100
    },
    {
      "midi": 61,
      "hit": false,
      "t": 272000,
      "d": 200,
      "v": 100
    },
    {
      "midi": 45,
      "hit": false,
      "t": 272000,
      "d": 3196.666666666686,
      "v": 100
    },
    {
      "midi": 69,
      "hit": false,
      "t": 272200,
      "d": 196.66666666668607,
      "v": 100
    },
    {
      "midi": 68,
      "hit": false,
      "t": 272400,
      "d": 196.66666666668607,
      "v": 100
    },
    {
      "midi": 69,
      "hit": false,
      "t": 272600,
      "d": 196.66666666668607,
      "v": 100
    },
    {
      "midi": 66,
      "hit": false,
      "t": 272800,
      "d": 196.66666666668607,
      "v": 100
    },
    {
      "midi": 69,
      "hit": false,
      "t": 273000,
      "d": 196.66666666668607,
      "v": 100
    },
    {
      "midi": 64,
      "hit": false,
      "t": 273200,
      "d": 196.66666666668607,
      "v": 100
    },
    {
      "midi": 69,
      "hit": false,
      "t": 273400,
      "d": 196.66666666668607,
      "v": 100
    },
    {
      "midi": 63,
      "hit": false,
      "t": 273600,
      "d": 196.66666666668607,
      "v": 100
    },
    {
      "midi": 69,
      "hit": false,
      "t": 273800,
      "d": 196.66666666668607,
      "v": 100
    },
    {
      "midi": 68,
      "hit": false,
      "t": 274000,
      "d": 196.66666666668607,
      "v": 100
    },
    {
      "midi": 69,
      "hit": false,
      "t": 274200,
      "d": 196.66666666668607,
      "v": 100
    },
    {
      "midi": 66,
      "hit": false,
      "t": 274400,
      "d": 196.66666666668607,
      "v": 100
    },
    {
      "midi": 69,
      "hit": false,
      "t": 274600,
      "d": 196.66666666668607,
      "v": 100
    },
    {
      "midi": 64,
      "hit": false,
      "t": 274800,
      "d": 196.66666666668607,
      "v": 100
    },
    {
      "midi": 69,
      "hit": false,
      "t": 275000,
      "d": 196.66666666668607,
      "v": 100
    },
    {
      "midi": 63,
      "hit": false,
      "t": 275200,
      "d": 196.66666666668607,
      "v": 100
    },
    {
      "midi": 47,
      "hit": false,
      "t": 275200,
      "d": 3196.666666666686,
      "v": 100
    },
    {
      "midi": 66,
      "hit": false,
      "t": 275400,
      "d": 196.66666666668607,
      "v": 100
    },
    {
      "midi": 64,
      "hit": false,
      "t": 275600,
      "d": 196.66666666668607,
      "v": 100
    },
    {
      "midi": 66,
      "hit": false,
      "t": 275800,
      "d": 196.66666666668607,
      "v": 100
    },
    {
      "midi": 63,
      "hit": false,
      "t": 276000,
      "d": 196.66666666668607,
      "v": 100
    },
    {
      "midi": 66,
      "hit": false,
      "t": 276200,
      "d": 196.66666666668607,
      "v": 100
    },
    {
      "midi": 61,
      "hit": false,
      "t": 276400,
      "d": 196.66666666668607,
      "v": 100
    },
    {
      "midi": 66,
      "hit": false,
      "t": 276600,
      "d": 196.66666666668607,
      "v": 100
    },
    {
      "midi": 59,
      "hit": false,
      "t": 276800,
      "d": 196.66666666668607,
      "v": 100
    },
    {
      "midi": 66,
      "hit": false,
      "t": 277000,
      "d": 196.66666666668607,
      "v": 100
    },
    {
      "midi": 64,
      "hit": false,
      "t": 277200,
      "d": 196.66666666668607,
      "v": 100
    },
    {
      "midi": 66,
      "hit": false,
      "t": 277400,
      "d": 196.66666666668607,
      "v": 100
    },
    {
      "midi": 63,
      "hit": false,
      "t": 277600,
      "d": 196.66666666668607,
      "v": 100
    },
    {
      "midi": 64,
      "hit": false,
      "t": 277800,
      "d": 196.66666666668607,
      "v": 100
    },
    {
      "midi": 66,
      "hit": false,
      "t": 278000,
      "d": 196.66666666668607,
      "v": 100
    },
    {
      "midi": 69,
      "hit": false,
      "t": 278200,
      "d": 196.66666666668607,
      "v": 100
    },
    {
      "midi": 68,
      "hit": false,
      "t": 278400,
      "d": 196.66666666668607,
      "v": 100
    },
    {
      "midi": 49,
      "hit": false,
      "t": 278400,
      "d": 2796.666666666686,
      "v": 100
    },
    {
      "midi": 68,
      "hit": false,
      "t": 278600,
      "d": 196.66666666668607,
      "v": 100
    },
    {
      "midi": 66,
      "hit": false,
      "t": 278800,
      "d": 196.66666666668607,
      "v": 100
    },
    {
      "midi": 68,
      "hit": false,
      "t": 279000,
      "d": 196.66666666668607,
      "v": 100
    },
    {
      "midi": 64,
      "hit": false,
      "t": 279200,
      "d": 196.66666666668607,
      "v": 100
    },
    {
      "midi": 68,
      "hit": false,
      "t": 279400,
      "d": 196.66666666668607,
      "v": 100
    },
    {
      "midi": 63,
      "hit": false,
      "t": 279600,
      "d": 196.66666666668607,
      "v": 100
    },
    {
      "midi": 68,
      "hit": false,
      "t": 279800,
      "d": 196.66666666668607,
      "v": 100
    },
    {
      "midi": 61,
      "hit": false,
      "t": 280000,
      "d": 196.66666666668607,
      "v": 100
    },
    {
      "midi": 68,
      "hit": false,
      "t": 280200,
      "d": 196.66666666668607,
      "v": 100
    },
    {
      "midi": 66,
      "hit": false,
      "t": 280400,
      "d": 196.66666666668607,
      "v": 100
    },
    {
      "midi": 68,
      "hit": false,
      "t": 280600,
      "d": 196.66666666668607,
      "v": 100
    },
    {
      "midi": 64,
      "hit": false,
      "t": 280800,
      "d": 196.66666666668607,
      "v": 100
    },
    {
      "midi": 68,
      "hit": false,
      "t": 281000,
      "d": 196.66666666668607,
      "v": 100
    },
    {
      "midi": 63,
      "hit": false,
      "t": 281200,
      "d": 196.66666666668607,
      "v": 100
    },
    {
      "midi": 32,
      "hit": false,
      "t": 281200,
      "d": 396.66666666668607,
      "v": 100
    },
    {
      "midi": 68,
      "hit": false,
      "t": 281400,
      "d": 196.66666666668607,
      "v": 100
    },
    {
      "midi": 37,
      "hit": false,
      "t": 281600,
      "d": 2796.666666666686,
      "v": 100
    },
    {
      "midi": 68,
      "hit": false,
      "t": 281800,
      "d": 196.66666666668607,
      "v": 100
    },
    {
      "midi": 66,
      "hit": false,
      "t": 282000,
      "d": 196.66666666668607,
      "v": 100
    },
    {
      "midi": 68,
      "hit": false,
      "t": 282200,
      "d": 196.66666666668607,
      "v": 100
    },
    {
      "midi": 64,
      "hit": false,
      "t": 282400,
      "d": 196.66666666668607,
      "v": 100
    },
    {
      "midi": 68,
      "hit": false,
      "t": 282600,
      "d": 196.66666666668607,
      "v": 100
    },
    {
      "midi": 63,
      "hit": false,
      "t": 282800,
      "d": 196.66666666668607,
      "v": 100
    },
    {
      "midi": 68,
      "hit": false,
      "t": 283000,
      "d": 196.66666666668607,
      "v": 100
    },
    {
      "midi": 61,
      "hit": false,
      "t": 283200,
      "d": 196.66666666668607,
      "v": 100
    },
    {
      "midi": 68,
      "hit": false,
      "t": 283400,
      "d": 196.66666666668607,
      "v": 100
    },
    {
      "midi": 66,
      "hit": false,
      "t": 283600,
      "d": 196.66666666668607,
      "v": 100
    },
    {
      "midi": 68,
      "hit": false,
      "t": 283800,
      "d": 196.66666666668607,
      "v": 100
    },
    {
      "midi": 64,
      "hit": false,
      "t": 284000,
      "d": 196.66666666668607,
      "v": 100
    },
    {
      "midi": 68,
      "hit": false,
      "t": 284200,
      "d": 196.66666666668607,
      "v": 100
    },
    {
      "midi": 63,
      "hit": false,
      "t": 284400,
      "d": 196.66666666668607,
      "v": 100
    },
    {
      "midi": 47,
      "hit": false,
      "t": 284400,
      "d": 396.66666666668607,
      "v": 100
    },
    {
      "midi": 68,
      "hit": false,
      "t": 284600,
      "d": 196.66666666668607,
      "v": 100
    },
    {
      "midi": 61,
      "hit": false,
      "t": 284800,
      "d": 200,
      "v": 100
    },
    {
      "midi": 45,
      "hit": false,
      "t": 284800,
      "d": 3196.666666666686,
      "v": 100
    },
    {
      "midi": 69,
      "hit": false,
      "t": 285000,
      "d": 196.66666666668607,
      "v": 100
    },
    {
      "midi": 68,
      "hit": false,
      "t": 285200,
      "d": 196.66666666668607,
      "v": 100
    },
    {
      "midi": 69,
      "hit": false,
      "t": 285400,
      "d": 196.66666666668607,
      "v": 100
    },
    {
      "midi": 66,
      "hit": false,
      "t": 285600,
      "d": 196.66666666668607,
      "v": 100
    },
    {
      "midi": 69,
      "hit": false,
      "t": 285800,
      "d": 196.66666666668607,
      "v": 100
    },
    {
      "midi": 64,
      "hit": false,
      "t": 286000,
      "d": 196.66666666668607,
      "v": 100
    },
    {
      "midi": 69,
      "hit": false,
      "t": 286200,
      "d": 196.66666666668607,
      "v": 100
    },
    {
      "midi": 63,
      "hit": false,
      "t": 286400,
      "d": 196.66666666668607,
      "v": 100
    },
    {
      "midi": 69,
      "hit": false,
      "t": 286600,
      "d": 196.66666666668607,
      "v": 100
    },
    {
      "midi": 68,
      "hit": false,
      "t": 286800,
      "d": 196.66666666668607,
      "v": 100
    },
    {
      "midi": 69,
      "hit": false,
      "t": 287000,
      "d": 196.66666666668607,
      "v": 100
    },
    {
      "midi": 66,
      "hit": false,
      "t": 287200,
      "d": 196.66666666668607,
      "v": 100
    },
    {
      "midi": 69,
      "hit": false,
      "t": 287400,
      "d": 196.66666666668607,
      "v": 100
    },
    {
      "midi": 64,
      "hit": false,
      "t": 287600,
      "d": 196.66666666668607,
      "v": 100
    },
    {
      "midi": 69,
      "hit": false,
      "t": 287800,
      "d": 196.66666666668607,
      "v": 100
    },
    {
      "midi": 63,
      "hit": false,
      "t": 288000,
      "d": 196.66666666668607,
      "v": 100
    },
    {
      "midi": 47,
      "hit": false,
      "t": 288000,
      "d": 3196.666666666686,
      "v": 100
    },
    {
      "midi": 66,
      "hit": false,
      "t": 288200,
      "d": 196.66666666668607,
      "v": 100
    },
    {
      "midi": 64,
      "hit": false,
      "t": 288400,
      "d": 196.66666666668607,
      "v": 100
    },
    {
      "midi": 66,
      "hit": false,
      "t": 288600,
      "d": 196.66666666668607,
      "v": 100
    },
    {
      "midi": 63,
      "hit": false,
      "t": 288800,
      "d": 196.66666666668607,
      "v": 100
    },
    {
      "midi": 66,
      "hit": false,
      "t": 289000,
      "d": 196.66666666668607,
      "v": 100
    },
    {
      "midi": 61,
      "hit": false,
      "t": 289200,
      "d": 196.66666666668607,
      "v": 100
    },
    {
      "midi": 66,
      "hit": false,
      "t": 289400,
      "d": 196.66666666668607,
      "v": 100
    },
    {
      "midi": 59,
      "hit": false,
      "t": 289600,
      "d": 196.66666666668607,
      "v": 100
    },
    {
      "midi": 66,
      "hit": false,
      "t": 289800,
      "d": 196.66666666668607,
      "v": 100
    },
    {
      "midi": 64,
      "hit": false,
      "t": 290000,
      "d": 196.66666666668607,
      "v": 100
    },
    {
      "midi": 66,
      "hit": false,
      "t": 290200,
      "d": 196.66666666668607,
      "v": 100
    },
    {
      "midi": 63,
      "hit": false,
      "t": 290400,
      "d": 196.66666666668607,
      "v": 100
    },
    {
      "midi": 64,
      "hit": false,
      "t": 290600,
      "d": 196.66666666668607,
      "v": 100
    },
    {
      "midi": 66,
      "hit": false,
      "t": 290800,
      "d": 196.66666666668607,
      "v": 100
    },
    {
      "midi": 69,
      "hit": false,
      "t": 291000,
      "d": 196.66666666668607,
      "v": 100
    },
    {
      "midi": 68,
      "hit": false,
      "t": 291200,
      "d": 196.66666666668607,
      "v": 100
    },
    {
      "midi": 49,
      "hit": false,
      "t": 291200,
      "d": 2796.666666666686,
      "v": 100
    },
    {
      "midi": 68,
      "hit": false,
      "t": 291400,
      "d": 196.66666666668607,
      "v": 100
    },
    {
      "midi": 66,
      "hit": false,
      "t": 291600,
      "d": 196.66666666668607,
      "v": 100
    },
    {
      "midi": 68,
      "hit": false,
      "t": 291800,
      "d": 196.66666666668607,
      "v": 100
    },
    {
      "midi": 64,
      "hit": false,
      "t": 292000,
      "d": 196.66666666668607,
      "v": 100
    },
    {
      "midi": 68,
      "hit": false,
      "t": 292200,
      "d": 196.66666666668607,
      "v": 100
    },
    {
      "midi": 63,
      "hit": false,
      "t": 292400,
      "d": 196.66666666668607,
      "v": 100
    },
    {
      "midi": 68,
      "hit": false,
      "t": 292600,
      "d": 196.66666666668607,
      "v": 100
    },
    {
      "midi": 61,
      "hit": false,
      "t": 292800,
      "d": 196.66666666668607,
      "v": 100
    },
    {
      "midi": 68,
      "hit": false,
      "t": 293000,
      "d": 196.66666666668607,
      "v": 100
    },
    {
      "midi": 66,
      "hit": false,
      "t": 293200,
      "d": 196.66666666668607,
      "v": 100
    },
    {
      "midi": 68,
      "hit": false,
      "t": 293400,
      "d": 196.66666666668607,
      "v": 100
    },
    {
      "midi": 64,
      "hit": false,
      "t": 293600,
      "d": 196.66666666668607,
      "v": 100
    },
    {
      "midi": 68,
      "hit": false,
      "t": 293800,
      "d": 196.66666666668607,
      "v": 100
    },
    {
      "midi": 63,
      "hit": false,
      "t": 294000,
      "d": 196.66666666668607,
      "v": 100
    },
    {
      "midi": 32,
      "hit": false,
      "t": 294000,
      "d": 396.66666666668607,
      "v": 100
    },
    {
      "midi": 68,
      "hit": false,
      "t": 294200,
      "d": 196.66666666668607,
      "v": 100
    },
    {
      "midi": 73,
      "hit": false,
      "t": 294400,
      "d": 1596.666666666686,
      "v": 100
    },
    {
      "midi": 68,
      "hit": false,
      "t": 294600,
      "d": 196.66666666668607,
      "v": 100
    },
    {
      "midi": 66,
      "hit": false,
      "t": 294800,
      "d": 196.66666666668607,
      "v": 100
    },
    {
      "midi": 68,
      "hit": false,
      "t": 295000,
      "d": 196.66666666668607,
      "v": 100
    },
    {
      "midi": 64,
      "hit": false,
      "t": 295200,
      "d": 196.66666666668607,
      "v": 100
    },
    {
      "midi": 68,
      "hit": false,
      "t": 295400,
      "d": 196.66666666668607,
      "v": 100
    },
    {
      "midi": 66,
      "hit": false,
      "t": 295600,
      "d": 196.66666666668607,
      "v": 100
    },
    {
      "midi": 68,
      "hit": false,
      "t": 295800,
      "d": 196.66666666668607,
      "v": 100
    },
    {
      "midi": 80,
      "hit": false,
      "t": 296000,
      "d": 1596.666666666686,
      "v": 100
    },
    {
      "midi": 68,
      "hit": false,
      "t": 296200,
      "d": 196.66666666668607,
      "v": 100
    },
    {
      "midi": 66,
      "hit": false,
      "t": 296400,
      "d": 196.66666666668607,
      "v": 100
    },
    {
      "midi": 68,
      "hit": false,
      "t": 296600,
      "d": 196.66666666668607,
      "v": 100
    },
    {
      "midi": 63,
      "hit": false,
      "t": 296800,
      "d": 196.66666666668607,
      "v": 100
    },
    {
      "midi": 68,
      "hit": false,
      "t": 297000,
      "d": 196.66666666668607,
      "v": 100
    },
    {
      "midi": 66,
      "hit": false,
      "t": 297200,
      "d": 196.66666666668607,
      "v": 100
    },
    {
      "midi": 68,
      "hit": false,
      "t": 297400,
      "d": 196.66666666668607,
      "v": 100
    },
    {
      "midi": 73,
      "hit": false,
      "t": 297600,
      "d": 1596.666666666686,
      "v": 100
    },
    {
      "midi": 68,
      "hit": false,
      "t": 297800,
      "d": 196.66666666668607,
      "v": 100
    },
    {
      "midi": 64,
      "hit": false,
      "t": 298000,
      "d": 196.66666666668607,
      "v": 100
    },
    {
      "midi": 68,
      "hit": false,
      "t": 298200,
      "d": 196.66666666668607,
      "v": 100
    },
    {
      "midi": 66,
      "hit": false,
      "t": 298400,
      "d": 196.66666666668607,
      "v": 100
    },
    {
      "midi": 68,
      "hit": false,
      "t": 298600,
      "d": 196.66666666668607,
      "v": 100
    },
    {
      "midi": 64,
      "hit": false,
      "t": 298800,
      "d": 196.66666666668607,
      "v": 100
    },
    {
      "midi": 68,
      "hit": false,
      "t": 299000,
      "d": 196.66666666668607,
      "v": 100
    },
    {
      "midi": 80,
      "hit": false,
      "t": 299200,
      "d": 1596.666666666686,
      "v": 100
    },
    {
      "midi": 68,
      "hit": false,
      "t": 299400,
      "d": 196.66666666668607,
      "v": 100
    },
    {
      "midi": 66,
      "hit": false,
      "t": 299600,
      "d": 196.66666666668607,
      "v": 100
    },
    {
      "midi": 68,
      "hit": false,
      "t": 299800,
      "d": 196.66666666668607,
      "v": 100
    },
    {
      "midi": 63,
      "hit": false,
      "t": 300000,
      "d": 196.66666666668607,
      "v": 100
    },
    {
      "midi": 68,
      "hit": false,
      "t": 300200,
      "d": 196.66666666668607,
      "v": 100
    },
    {
      "midi": 66,
      "hit": false,
      "t": 300400,
      "d": 196.66666666668607,
      "v": 100
    },
    {
      "midi": 68,
      "hit": false,
      "t": 300600,
      "d": 196.66666666668607,
      "v": 100
    },
    {
      "midi": 69,
      "hit": false,
      "t": 300800,
      "d": 196.66666666668607,
      "v": 100
    },
    {
      "midi": 66,
      "hit": false,
      "t": 301000,
      "d": 196.66666666668607,
      "v": 100
    },
    {
      "midi": 65,
      "hit": false,
      "t": 301200,
      "d": 196.66666666668607,
      "v": 100
    },
    {
      "midi": 66,
      "hit": false,
      "t": 301400,
      "d": 196.66666666668607,
      "v": 100
    },
    {
      "midi": 61,
      "hit": false,
      "t": 301600,
      "d": 200,
      "v": 100
    },
    {
      "midi": 69,
      "hit": false,
      "t": 301800,
      "d": 196.66666666668607,
      "v": 100
    },
    {
      "midi": 68,
      "hit": false,
      "t": 302000,
      "d": 196.66666666668607,
      "v": 100
    },
    {
      "midi": 66,
      "hit": false,
      "t": 302200,
      "d": 196.66666666668607,
      "v": 100
    },
    {
      "midi": 72,
      "hit": false,
      "t": 302400,
      "d": 200,
      "v": 100
    },
    {
      "midi": 68,
      "hit": false,
      "t": 302600,
      "d": 200,
      "v": 100
    },
    {
      "midi": 66,
      "hit": false,
      "t": 302800,
      "d": 200,
      "v": 100
    },
    {
      "midi": 68,
      "hit": false,
      "t": 303000,
      "d": 200,
      "v": 100
    },
    {
      "midi": 64,
      "hit": false,
      "t": 303200,
      "d": 200,
      "v": 100
    },
    {
      "midi": 68,
      "hit": false,
      "t": 303400,
      "d": 200,
      "v": 100
    },
    {
      "midi": 63,
      "hit": false,
      "t": 303600,
      "d": 200,
      "v": 100
    },
    {
      "midi": 68,
      "hit": false,
      "t": 303800,
      "d": 200,
      "v": 100
    },
    {
      "midi": 73,
      "hit": false,
      "t": 304000,
      "d": 66.66666666668607,
      "v": 100
    },
    {
      "midi": 73,
      "hit": false,
      "t": 304066.6666666667,
      "d": 66.66666666668607,
      "v": 100
    },
    {
      "midi": 73,
      "hit": false,
      "t": 304133.3333333334,
      "d": 66.66666666668607,
      "v": 100
    },
    {
      "midi": 72,
      "hit": false,
      "t": 304200.00000000006,
      "d": 66.66666666668607,
      "v": 100
    },
    {
      "midi": 72,
      "hit": false,
      "t": 304266.66666666674,
      "d": 66.66666666668607,
      "v": 100
    },
    {
      "midi": 72,
      "hit": false,
      "t": 304333.33333333343,
      "d": 66.66666666668607,
      "v": 100
    },
    {
      "midi": 73,
      "hit": false,
      "t": 304400.0000000001,
      "d": 200,
      "v": 100
    },
    {
      "midi": 75,
      "hit": false,
      "t": 304600.0000000001,
      "d": 200,
      "v": 100
    },
    {
      "midi": 76,
      "hit": false,
      "t": 304800.0000000001,
      "d": 200,
      "v": 100
    },
    {
      "midi": 73,
      "hit": false,
      "t": 305000.0000000001,
      "d": 200,
      "v": 100
    },
    {
      "midi": 69,
      "hit": false,
      "t": 305200.0000000001,
      "d": 200,
      "v": 100
    },
    {
      "midi": 73,
      "hit": false,
      "t": 305400.0000000001,
      "d": 200,
      "v": 100
    },
    {
      "midi": 68,
      "hit": false,
      "t": 305600.0000000001,
      "d": 200,
      "v": 100
    },
    {
      "midi": 73,
      "hit": false,
      "t": 305800.0000000001,
      "d": 200,
      "v": 100
    },
    {
      "midi": 66,
      "hit": false,
      "t": 306000.0000000001,
      "d": 200,
      "v": 100
    },
    {
      "midi": 73,
      "hit": false,
      "t": 306200.0000000001,
      "d": 200,
      "v": 100
    },
    {
      "midi": 64,
      "hit": false,
      "t": 306400.0000000001,
      "d": 800,
      "v": 100
    },
    {
      "midi": 49,
      "hit": false,
      "t": 307200,
      "d": 396.66666666668607,
      "v": 100
    },
    {
      "midi": 73,
      "hit": false,
      "t": 307200.0000000001,
      "d": 1596.666666666686,
      "v": 100
    },
    {
      "midi": 68,
      "hit": false,
      "t": 307400.0000000001,
      "d": 196.66666666668607,
      "v": 100
    },
    {
      "midi": 51,
      "hit": false,
      "t": 307600,
      "d": 396.66666666668607,
      "v": 100
    },
    {
      "midi": 66,
      "hit": false,
      "t": 307600.0000000001,
      "d": 196.66666666668607,
      "v": 100
    },
    {
      "midi": 68,
      "hit": false,
      "t": 307800.0000000001,
      "d": 196.66666666668607,
      "v": 100
    },
    {
      "midi": 52,
      "hit": false,
      "t": 308000,
      "d": 396.66666666668607,
      "v": 100
    },
    {
      "midi": 64,
      "hit": false,
      "t": 308000.0000000001,
      "d": 196.66666666668607,
      "v": 100
    },
    {
      "midi": 68,
      "hit": false,
      "t": 308200.0000000001,
      "d": 196.66666666668607,
      "v": 100
    },
    {
      "midi": 54,
      "hit": false,
      "t": 308400,
      "d": 396.66666666668607,
      "v": 100
    },
    {
      "midi": 66,
      "hit": false,
      "t": 308400.0000000001,
      "d": 196.66666666668607,
      "v": 100
    },
    {
      "midi": 68,
      "hit": false,
      "t": 308600.0000000001,
      "d": 196.66666666668607,
      "v": 100
    },
    {
      "midi": 56,
      "hit": false,
      "t": 308800,
      "d": 196.66666666668607,
      "v": 100
    },
    {
      "midi": 80,
      "hit": false,
      "t": 308800.0000000001,
      "d": 1596.666666666686,
      "v": 100
    },
    {
      "midi": 55,
      "hit": false,
      "t": 309000,
      "d": 196.66666666668607,
      "v": 100
    },
    {
      "midi": 68,
      "hit": false,
      "t": 309000.0000000001,
      "d": 196.66666666668607,
      "v": 100
    },
    {
      "midi": 56,
      "hit": false,
      "t": 309200,
      "d": 196.66666666668607,
      "v": 100
    },
    {
      "midi": 66,
      "hit": false,
      "t": 309200.0000000001,
      "d": 196.66666666668607,
      "v": 100
    },
    {
      "midi": 58,
      "hit": false,
      "t": 309400,
      "d": 196.66666666668607,
      "v": 100
    },
    {
      "midi": 68,
      "hit": false,
      "t": 309400.0000000001,
      "d": 196.66666666668607,
      "v": 100
    },
    {
      "midi": 60,
      "hit": false,
      "t": 309600,
      "d": 396.66666666668607,
      "v": 100
    },
    {
      "midi": 63,
      "hit": false,
      "t": 309600.0000000001,
      "d": 196.66666666668607,
      "v": 100
    },
    {
      "midi": 68,
      "hit": false,
      "t": 309800.0000000001,
      "d": 196.66666666668607,
      "v": 100
    },
    {
      "midi": 56,
      "hit": false,
      "t": 310000,
      "d": 396.66666666668607,
      "v": 100
    },
    {
      "midi": 66,
      "hit": false,
      "t": 310000.0000000001,
      "d": 196.66666666668607,
      "v": 100
    },
    {
      "midi": 68,
      "hit": false,
      "t": 310200.0000000001,
      "d": 196.66666666668607,
      "v": 100
    },
    {
      "midi": 61,
      "hit": false,
      "t": 310400,
      "d": 196.66666666668607,
      "v": 100
    },
    {
      "midi": 73,
      "hit": false,
      "t": 310400.0000000001,
      "d": 1596.666666666686,
      "v": 100
    },
    {
      "midi": 56,
      "hit": false,
      "t": 310600,
      "d": 196.66666666668607,
      "v": 100
    },
    {
      "midi": 68,
      "hit": false,
      "t": 310600.0000000001,
      "d": 196.66666666668607,
      "v": 100
    },
    {
      "midi": 54,
      "hit": false,
      "t": 310800,
      "d": 196.66666666668607,
      "v": 100
    },
    {
      "midi": 64,
      "hit": false,
      "t": 310800.0000000001,
      "d": 196.66666666668607,
      "v": 100
    },
    {
      "midi": 56,
      "hit": false,
      "t": 311000,
      "d": 196.66666666668607,
      "v": 100
    },
    {
      "midi": 68,
      "hit": false,
      "t": 311000.0000000001,
      "d": 196.66666666668607,
      "v": 100
    },
    {
      "midi": 52,
      "hit": false,
      "t": 311200,
      "d": 196.66666666668607,
      "v": 100
    },
    {
      "midi": 66,
      "hit": false,
      "t": 311200.0000000001,
      "d": 196.66666666668607,
      "v": 100
    },
    {
      "midi": 56,
      "hit": false,
      "t": 311400,
      "d": 196.66666666668607,
      "v": 100
    },
    {
      "midi": 68,
      "hit": false,
      "t": 311400.0000000001,
      "d": 196.66666666668607,
      "v": 100
    },
    {
      "midi": 54,
      "hit": false,
      "t": 311600,
      "d": 196.66666666668607,
      "v": 100
    },
    {
      "midi": 64,
      "hit": false,
      "t": 311600.0000000001,
      "d": 196.66666666668607,
      "v": 100
    },
    {
      "midi": 56,
      "hit": false,
      "t": 311800,
      "d": 196.66666666668607,
      "v": 100
    },
    {
      "midi": 68,
      "hit": false,
      "t": 311800.0000000001,
      "d": 196.66666666668607,
      "v": 100
    },
    {
      "midi": 61,
      "hit": false,
      "t": 312000,
      "d": 196.66666666668607,
      "v": 100
    },
    {
      "midi": 80,
      "hit": false,
      "t": 312000.0000000001,
      "d": 1596.666666666686,
      "v": 100
    },
    {
      "midi": 56,
      "hit": false,
      "t": 312200,
      "d": 196.66666666668607,
      "v": 100
    },
    {
      "midi": 68,
      "hit": false,
      "t": 312200.0000000001,
      "d": 196.66666666668607,
      "v": 100
    },
    {
      "midi": 54,
      "hit": false,
      "t": 312400,
      "d": 196.66666666668607,
      "v": 100
    },
    {
      "midi": 66,
      "hit": false,
      "t": 312400.0000000001,
      "d": 196.66666666668607,
      "v": 100
    },
    {
      "midi": 56,
      "hit": false,
      "t": 312600,
      "d": 196.66666666668607,
      "v": 100
    },
    {
      "midi": 68,
      "hit": false,
      "t": 312600.0000000001,
      "d": 196.66666666668607,
      "v": 100
    },
    {
      "midi": 51,
      "hit": false,
      "t": 312800,
      "d": 196.66666666668607,
      "v": 100
    },
    {
      "midi": 63,
      "hit": false,
      "t": 312800.0000000001,
      "d": 196.66666666668607,
      "v": 100
    },
    {
      "midi": 56,
      "hit": false,
      "t": 313000,
      "d": 196.66666666668607,
      "v": 100
    },
    {
      "midi": 68,
      "hit": false,
      "t": 313000.0000000001,
      "d": 196.66666666668607,
      "v": 100
    },
    {
      "midi": 54,
      "hit": false,
      "t": 313200,
      "d": 196.66666666668607,
      "v": 100
    },
    {
      "midi": 66,
      "hit": false,
      "t": 313200.0000000001,
      "d": 196.66666666668607,
      "v": 100
    },
    {
      "midi": 56,
      "hit": false,
      "t": 313400,
      "d": 196.66666666668607,
      "v": 100
    },
    {
      "midi": 68,
      "hit": false,
      "t": 313400.0000000001,
      "d": 196.66666666668607,
      "v": 100
    },
    {
      "midi": 61,
      "hit": false,
      "t": 313600,
      "d": 196.66666666668607,
      "v": 100
    },
    {
      "midi": 69,
      "hit": false,
      "t": 313600.0000000001,
      "d": 196.66666666668607,
      "v": 100
    },
    {
      "midi": 57,
      "hit": false,
      "t": 313800,
      "d": 196.66666666668607,
      "v": 100
    },
    {
      "midi": 66,
      "hit": false,
      "t": 313800.0000000001,
      "d": 196.66666666668607,
      "v": 100
    },
    {
      "midi": 56,
      "hit": false,
      "t": 314000,
      "d": 196.66666666668607,
      "v": 100
    },
    {
      "midi": 65,
      "hit": false,
      "t": 314000.0000000001,
      "d": 196.66666666668607,
      "v": 100
    },
    {
      "midi": 57,
      "hit": false,
      "t": 314200,
      "d": 196.66666666668607,
      "v": 100
    },
    {
      "midi": 66,
      "hit": false,
      "t": 314200.0000000001,
      "d": 196.66666666668607,
      "v": 100
    },
    {
      "midi": 54,
      "hit": false,
      "t": 314400,
      "d": 196.66666666668607,
      "v": 100
    },
    {
      "midi": 61,
      "hit": false,
      "t": 314400.0000000001,
      "d": 200,
      "v": 100
    },
    {
      "midi": 61,
      "hit": false,
      "t": 314600,
      "d": 196.66666666668607,
      "v": 100
    },
    {
      "midi": 69,
      "hit": false,
      "t": 314600.0000000001,
      "d": 196.66666666668607,
      "v": 100
    },
    {
      "midi": 59,
      "hit": false,
      "t": 314800,
      "d": 196.66666666668607,
      "v": 100
    },
    {
      "midi": 68,
      "hit": false,
      "t": 314800.0000000001,
      "d": 196.66666666668607,
      "v": 100
    },
    {
      "midi": 57,
      "hit": false,
      "t": 315000,
      "d": 196.66666666668607,
      "v": 100
    },
    {
      "midi": 66,
      "hit": false,
      "t": 315000.0000000001,
      "d": 196.66666666668607,
      "v": 100
    },
    {
      "midi": 63,
      "hit": false,
      "t": 315200,
      "d": 196.66666666668607,
      "v": 100
    },
    {
      "midi": 72,
      "hit": false,
      "t": 315200.0000000001,
      "d": 200,
      "v": 100
    },
    {
      "midi": 59,
      "hit": false,
      "t": 315400,
      "d": 196.66666666668607,
      "v": 100
    },
    {
      "midi": 68,
      "hit": false,
      "t": 315400.0000000001,
      "d": 200,
      "v": 100
    },
    {
      "midi": 57,
      "hit": false,
      "t": 315600,
      "d": 196.66666666668607,
      "v": 100
    },
    {
      "midi": 66,
      "hit": false,
      "t": 315600.0000000001,
      "d": 200,
      "v": 100
    },
    {
      "midi": 59,
      "hit": false,
      "t": 315800,
      "d": 196.66666666668607,
      "v": 100
    },
    {
      "midi": 68,
      "hit": false,
      "t": 315800.0000000001,
      "d": 200,
      "v": 100
    },
    {
      "midi": 56,
      "hit": false,
      "t": 316000,
      "d": 196.66666666668607,
      "v": 100
    },
    {
      "midi": 64,
      "hit": false,
      "t": 316000.0000000001,
      "d": 200,
      "v": 100
    },
    {
      "midi": 59,
      "hit": false,
      "t": 316200,
      "d": 196.66666666668607,
      "v": 100
    },
    {
      "midi": 68,
      "hit": false,
      "t": 316200.0000000001,
      "d": 200,
      "v": 100
    },
    {
      "midi": 58,
      "hit": false,
      "t": 316400,
      "d": 196.66666666668607,
      "v": 100
    },
    {
      "midi": 63,
      "hit": false,
      "t": 316400.0000000001,
      "d": 200,
      "v": 100
    },
    {
      "midi": 59,
      "hit": false,
      "t": 316600,
      "d": 196.66666666668607,
      "v": 100
    },
    {
      "midi": 68,
      "hit": false,
      "t": 316600.0000000001,
      "d": 200,
      "v": 100
    },
    {
      "midi": 44,
      "hit": false,
      "t": 316800,
      "d": 396.66666666668607,
      "v": 100
    },
    {
      "midi": 73,
      "hit": false,
      "t": 316800.0000000001,
      "d": 66.66666666668607,
      "v": 100
    },
    {
      "midi": 73,
      "hit": false,
      "t": 316866.6666666668,
      "d": 66.66666666668607,
      "v": 100
    },
    {
      "midi": 73,
      "hit": false,
      "t": 316933.3333333335,
      "d": 66.66666666668607,
      "v": 100
    },
    {
      "midi": 72,
      "hit": false,
      "t": 317000.0000000002,
      "d": 66.66666666668607,
      "v": 100
    },
    {
      "midi": 72,
      "hit": false,
      "t": 317066.66666666686,
      "d": 66.66666666668607,
      "v": 100
    },
    {
      "midi": 72,
      "hit": false,
      "t": 317133.33333333355,
      "d": 66.66666666668607,
      "v": 100
    },
    {
      "midi": 45,
      "hit": false,
      "t": 317200,
      "d": 396.66666666668607,
      "v": 100
    },
    {
      "midi": 73,
      "hit": false,
      "t": 317200.00000000023,
      "d": 200,
      "v": 100
    },
    {
      "midi": 75,
      "hit": false,
      "t": 317400.00000000023,
      "d": 200,
      "v": 100
    },
    {
      "midi": 47,
      "hit": false,
      "t": 317600,
      "d": 396.66666666668607,
      "v": 100
    },
    {
      "midi": 76,
      "hit": false,
      "t": 317600.00000000023,
      "d": 200,
      "v": 100
    },
    {
      "midi": 73,
      "hit": false,
      "t": 317800.00000000023,
      "d": 200,
      "v": 100
    },
    {
      "midi": 49,
      "hit": false,
      "t": 318000,
      "d": 396.66666666668607,
      "v": 100
    },
    {
      "midi": 69,
      "hit": false,
      "t": 318000.00000000023,
      "d": 200,
      "v": 100
    },
    {
      "midi": 73,
      "hit": false,
      "t": 318200.00000000023,
      "d": 200,
      "v": 100
    },
    {
      "midi": 45,
      "hit": false,
      "t": 318400,
      "d": 396.66666666668607,
      "v": 100
    },
    {
      "midi": 68,
      "hit": false,
      "t": 318400.00000000023,
      "d": 200,
      "v": 100
    },
    {
      "midi": 73,
      "hit": false,
      "t": 318600.00000000023,
      "d": 200,
      "v": 100
    },
    {
      "midi": 47,
      "hit": false,
      "t": 318800,
      "d": 396.66666666668607,
      "v": 100
    },
    {
      "midi": 66,
      "hit": false,
      "t": 318800.00000000023,
      "d": 200,
      "v": 100
    },
    {
      "midi": 73,
      "hit": false,
      "t": 319000.00000000023,
      "d": 200,
      "v": 100
    },
    {
      "midi": 49,
      "hit": false,
      "t": 319200,
      "d": 796.6666666666861,
      "v": 100
    },
    {
      "midi": 64,
      "hit": false,
      "t": 319200.00000000023,
      "d": 800,
      "v": 100
    },
    {
      "midi": 49,
      "hit": false,
      "t": 320000,
      "d": 396.66666666668607,
      "v": 100
    },
    {
      "midi": 73,
      "hit": false,
      "t": 320000.00000000023,
      "d": 1596.6666666665114,
      "v": 100
    },
    {
      "midi": 68,
      "hit": false,
      "t": 320200.00000000023,
      "d": 196.66666666668607,
      "v": 100
    },
    {
      "midi": 51,
      "hit": false,
      "t": 320400,
      "d": 396.66666666662786,
      "v": 100
    },
    {
      "midi": 66,
      "hit": false,
      "t": 320400.00000000023,
      "d": 196.66666666662786,
      "v": 100
    },
    {
      "midi": 68,
      "hit": false,
      "t": 320600.0000000002,
      "d": 196.66666666662786,
      "v": 100
    },
    {
      "midi": 52,
      "hit": false,
      "t": 320799.99999999994,
      "d": 396.66666666662786,
      "v": 100
    },
    {
      "midi": 64,
      "hit": false,
      "t": 320800.0000000001,
      "d": 196.66666666662786,
      "v": 100
    },
    {
      "midi": 68,
      "hit": false,
      "t": 321000.00000000006,
      "d": 196.66666666668607,
      "v": 100
    },
    {
      "midi": 54,
      "hit": false,
      "t": 321199.9999999999,
      "d": 396.66666666668607,
      "v": 100
    },
    {
      "midi": 66,
      "hit": false,
      "t": 321200.00000000006,
      "d": 196.66666666668607,
      "v": 100
    },
    {
      "midi": 68,
      "hit": false,
      "t": 321400.00000000006,
      "d": 196.66666666668607,
      "v": 100
    },
    {
      "midi": 56,
      "hit": false,
      "t": 321599.9999999999,
      "d": 196.66666666668607,
      "v": 100
    },
    {
      "midi": 80,
      "hit": false,
      "t": 321600.00000000006,
      "d": 1596.6666666665114,
      "v": 100
    },
    {
      "midi": 55,
      "hit": false,
      "t": 321799.9999999999,
      "d": 196.66666666662786,
      "v": 100
    },
    {
      "midi": 68,
      "hit": false,
      "t": 321800.00000000006,
      "d": 196.66666666662786,
      "v": 100
    },
    {
      "midi": 56,
      "hit": false,
      "t": 321999.9999999998,
      "d": 196.66666666662786,
      "v": 100
    },
    {
      "midi": 66,
      "hit": false,
      "t": 322000,
      "d": 196.66666666662786,
      "v": 100
    },
    {
      "midi": 58,
      "hit": false,
      "t": 322199.99999999977,
      "d": 196.66666666668607,
      "v": 100
    },
    {
      "midi": 68,
      "hit": false,
      "t": 322199.99999999994,
      "d": 196.66666666668607,
      "v": 100
    },
    {
      "midi": 60,
      "hit": false,
      "t": 322399.99999999977,
      "d": 396.66666666668607,
      "v": 100
    },
    {
      "midi": 63,
      "hit": false,
      "t": 322399.99999999994,
      "d": 196.66666666668607,
      "v": 100
    },
    {
      "midi": 68,
      "hit": false,
      "t": 322599.99999999994,
      "d": 196.66666666668607,
      "v": 100
    },
    {
      "midi": 56,
      "hit": false,
      "t": 322799.99999999977,
      "d": 396.66666666662786,
      "v": 100
    },
    {
      "midi": 66,
      "hit": false,
      "t": 322799.99999999994,
      "d": 196.66666666668607,
      "v": 100
    },
    {
      "midi": 68,
      "hit": false,
      "t": 322999.99999999994,
      "d": 196.66666666662786,
      "v": 100
    },
    {
      "midi": 61,
      "hit": false,
      "t": 323199.9999999997,
      "d": 196.66666666662786,
      "v": 100
    },
    {
      "midi": 73,
      "hit": false,
      "t": 323199.9999999999,
      "d": 1596.6666666665114,
      "v": 100
    },
    {
      "midi": 56,
      "hit": false,
      "t": 323399.99999999965,
      "d": 196.66666666662786,
      "v": 100
    },
    {
      "midi": 68,
      "hit": false,
      "t": 323399.9999999999,
      "d": 196.66666666662786,
      "v": 100
    },
    {
      "midi": 54,
      "hit": false,
      "t": 323599.9999999996,
      "d": 196.66666666668607,
      "v": 100
    },
    {
      "midi": 64,
      "hit": false,
      "t": 323599.9999999998,
      "d": 196.66666666668607,
      "v": 100
    },
    {
      "midi": 56,
      "hit": false,
      "t": 323799.9999999996,
      "d": 196.66666666668607,
      "v": 100
    },
    {
      "midi": 68,
      "hit": false,
      "t": 323799.9999999998,
      "d": 196.66666666668607,
      "v": 100
    },
    {
      "midi": 52,
      "hit": false,
      "t": 323999.9999999996,
      "d": 196.66666666668607,
      "v": 100
    },
    {
      "midi": 66,
      "hit": false,
      "t": 323999.9999999998,
      "d": 196.66666666668607,
      "v": 100
    },
    {
      "midi": 56,
      "hit": false,
      "t": 324199.9999999996,
      "d": 196.66666666668607,
      "v": 100
    },
    {
      "midi": 68,
      "hit": false,
      "t": 324199.9999999998,
      "d": 196.66666666668607,
      "v": 100
    },
    {
      "midi": 54,
      "hit": false,
      "t": 324399.9999999996,
      "d": 196.66666666662786,
      "v": 100
    },
    {
      "midi": 64,
      "hit": false,
      "t": 324399.9999999998,
      "d": 196.66666666662786,
      "v": 100
    },
    {
      "midi": 56,
      "hit": false,
      "t": 324599.99999999953,
      "d": 196.66666666662786,
      "v": 100
    },
    {
      "midi": 68,
      "hit": false,
      "t": 324599.99999999977,
      "d": 196.66666666662786,
      "v": 100
    },
    {
      "midi": 61,
      "hit": false,
      "t": 324799.9999999995,
      "d": 196.66666666662786,
      "v": 100
    },
    {
      "midi": 80,
      "hit": false,
      "t": 324799.9999999997,
      "d": 1596.6666666664532,
      "v": 100
    },
    {
      "midi": 56,
      "hit": false,
      "t": 324999.9999999994,
      "d": 196.66666666668607,
      "v": 100
    },
    {
      "midi": 68,
      "hit": false,
      "t": 324999.99999999965,
      "d": 196.66666666668607,
      "v": 100
    },
    {
      "midi": 54,
      "hit": false,
      "t": 325199.9999999994,
      "d": 196.66666666668607,
      "v": 100
    },
    {
      "midi": 66,
      "hit": false,
      "t": 325199.99999999965,
      "d": 196.66666666668607,
      "v": 100
    },
    {
      "midi": 56,
      "hit": false,
      "t": 325399.9999999994,
      "d": 196.66666666668607,
      "v": 100
    },
    {
      "midi": 68,
      "hit": false,
      "t": 325399.99999999965,
      "d": 196.66666666668607,
      "v": 100
    },
    {
      "midi": 51,
      "hit": false,
      "t": 325599.9999999994,
      "d": 196.66666666662786,
      "v": 100
    },
    {
      "midi": 63,
      "hit": false,
      "t": 325599.99999999965,
      "d": 196.66666666662786,
      "v": 100
    },
    {
      "midi": 56,
      "hit": false,
      "t": 325799.99999999936,
      "d": 196.66666666662786,
      "v": 100
    },
    {
      "midi": 68,
      "hit": false,
      "t": 325799.9999999996,
      "d": 196.66666666662786,
      "v": 100
    },
    {
      "midi": 54,
      "hit": false,
      "t": 325999.9999999993,
      "d": 196.66666666662786,
      "v": 100
    },
    {
      "midi": 66,
      "hit": false,
      "t": 325999.99999999953,
      "d": 196.66666666662786,
      "v": 100
    },
    {
      "midi": 56,
      "hit": false,
      "t": 326199.99999999924,
      "d": 196.66666666668607,
      "v": 100
    },
    {
      "midi": 68,
      "hit": false,
      "t": 326199.9999999995,
      "d": 196.66666666668607,
      "v": 100
    },
    {
      "midi": 61,
      "hit": false,
      "t": 326399.99999999924,
      "d": 196.66666666668607,
      "v": 100
    },
    {
      "midi": 69,
      "hit": false,
      "t": 326399.9999999995,
      "d": 196.66666666668607,
      "v": 100
    },
    {
      "midi": 57,
      "hit": false,
      "t": 326599.99999999924,
      "d": 196.66666666668607,
      "v": 100
    },
    {
      "midi": 66,
      "hit": false,
      "t": 326599.9999999995,
      "d": 196.66666666668607,
      "v": 100
    },
    {
      "midi": 56,
      "hit": false,
      "t": 326799.99999999924,
      "d": 196.66666666668607,
      "v": 100
    },
    {
      "midi": 65,
      "hit": false,
      "t": 326799.9999999995,
      "d": 196.66666666668607,
      "v": 100
    },
    {
      "midi": 57,
      "hit": false,
      "t": 326999.99999999924,
      "d": 196.66666666662786,
      "v": 100
    },
    {
      "midi": 66,
      "hit": false,
      "t": 326999.9999999995,
      "d": 196.66666666662786,
      "v": 100
    },
    {
      "midi": 54,
      "hit": false,
      "t": 327199.9999999992,
      "d": 196.66666666662786,
      "v": 100
    },
    {
      "midi": 61,
      "hit": false,
      "t": 327199.9999999994,
      "d": 200,
      "v": 100
    },
    {
      "midi": 61,
      "hit": false,
      "t": 327399.9999999991,
      "d": 196.66666666662786,
      "v": 100
    },
    {
      "midi": 69,
      "hit": false,
      "t": 327399.9999999994,
      "d": 196.66666666662786,
      "v": 100
    },
    {
      "midi": 59,
      "hit": false,
      "t": 327599.99999999907,
      "d": 196.66666666668607,
      "v": 100
    },
    {
      "midi": 68,
      "hit": false,
      "t": 327599.99999999936,
      "d": 196.66666666668607,
      "v": 100
    },
    {
      "midi": 57,
      "hit": false,
      "t": 327799.99999999907,
      "d": 196.66666666668607,
      "v": 100
    },
    {
      "midi": 66,
      "hit": false,
      "t": 327799.99999999936,
      "d": 196.66666666668607,
      "v": 100
    },
    {
      "midi": 63,
      "hit": false,
      "t": 327999.99999999907,
      "d": 196.66666666668607,
      "v": 100
    },
    {
      "midi": 72,
      "hit": false,
      "t": 327999.99999999936,
      "d": 200,
      "v": 100
    },
    {
      "midi": 59,
      "hit": false,
      "t": 328199.99999999907,
      "d": 196.66666666668607,
      "v": 100
    },
    {
      "midi": 68,
      "hit": false,
      "t": 328199.99999999936,
      "d": 200,
      "v": 100
    },
    {
      "midi": 57,
      "hit": false,
      "t": 328399.99999999907,
      "d": 196.66666666662786,
      "v": 100
    },
    {
      "midi": 66,
      "hit": false,
      "t": 328399.99999999936,
      "d": 200,
      "v": 100
    },
    {
      "midi": 59,
      "hit": false,
      "t": 328599.999999999,
      "d": 196.66666666662786,
      "v": 100
    },
    {
      "midi": 68,
      "hit": false,
      "t": 328599.99999999936,
      "d": 200,
      "v": 100
    },
    {
      "midi": 56,
      "hit": false,
      "t": 328799.99999999895,
      "d": 196.66666666668607,
      "v": 100
    },
    {
      "midi": 64,
      "hit": false,
      "t": 328799.99999999936,
      "d": 200,
      "v": 100
    },
    {
      "midi": 59,
      "hit": false,
      "t": 328999.99999999895,
      "d": 196.66666666668607,
      "v": 100
    },
    {
      "midi": 68,
      "hit": false,
      "t": 328999.99999999936,
      "d": 200,
      "v": 100
    },
    {
      "midi": 58,
      "hit": false,
      "t": 329199.99999999895,
      "d": 196.66666666668607,
      "v": 100
    },
    {
      "midi": 63,
      "hit": false,
      "t": 329199.99999999936,
      "d": 200,
      "v": 100
    },
    {
      "midi": 59,
      "hit": false,
      "t": 329399.99999999895,
      "d": 196.66666666668607,
      "v": 100
    },
    {
      "midi": 68,
      "hit": false,
      "t": 329399.99999999936,
      "d": 200,
      "v": 100
    },
    {
      "midi": 44,
      "hit": false,
      "t": 329599.99999999895,
      "d": 396.66666666662786,
      "v": 100
    },
    {
      "midi": 73,
      "hit": false,
      "t": 329599.99999999936,
      "d": 66.66666666668607,
      "v": 100
    },
    {
      "midi": 73,
      "hit": false,
      "t": 329666.66666666605,
      "d": 66.66666666662786,
      "v": 100
    },
    {
      "midi": 73,
      "hit": false,
      "t": 329733.3333333327,
      "d": 66.66666666668607,
      "v": 100
    },
    {
      "midi": 72,
      "hit": false,
      "t": 329799.99999999936,
      "d": 66.66666666668607,
      "v": 100
    },
    {
      "midi": 72,
      "hit": false,
      "t": 329866.66666666605,
      "d": 66.66666666668607,
      "v": 100
    },
    {
      "midi": 72,
      "hit": false,
      "t": 329933.33333333273,
      "d": 66.66666666668607,
      "v": 100
    },
    {
      "midi": 45,
      "hit": false,
      "t": 329999.9999999989,
      "d": 396.66666666662786,
      "v": 100
    },
    {
      "midi": 73,
      "hit": false,
      "t": 329999.9999999994,
      "d": 199.9999999999418,
      "v": 100
    },
    {
      "midi": 75,
      "hit": false,
      "t": 330199.99999999936,
      "d": 200,
      "v": 100
    },
    {
      "midi": 47,
      "hit": false,
      "t": 330399.99999999884,
      "d": 396.66666666668607,
      "v": 100
    },
    {
      "midi": 76,
      "hit": false,
      "t": 330399.99999999936,
      "d": 200,
      "v": 100
    },
    {
      "midi": 73,
      "hit": false,
      "t": 330599.99999999936,
      "d": 200,
      "v": 100
    },
    {
      "midi": 49,
      "hit": false,
      "t": 330799.99999999884,
      "d": 396.66666666662786,
      "v": 100
    },
    {
      "midi": 69,
      "hit": false,
      "t": 330799.99999999936,
      "d": 200,
      "v": 100
    },
    {
      "midi": 73,
      "hit": false,
      "t": 330999.99999999936,
      "d": 200,
      "v": 100
    },
    {
      "midi": 45,
      "hit": false,
      "t": 331199.9999999988,
      "d": 396.66666666662786,
      "v": 100
    },
    {
      "midi": 68,
      "hit": false,
      "t": 331199.99999999936,
      "d": 200,
      "v": 100
    },
    {
      "midi": 73,
      "hit": false,
      "t": 331399.99999999936,
      "d": 200,
      "v": 100
    },
    {
      "midi": 47,
      "hit": false,
      "t": 331599.9999999987,
      "d": 396.66666666668607,
      "v": 100
    },
    {
      "midi": 66,
      "hit": false,
      "t": 331599.99999999936,
      "d": 200,
      "v": 100
    },
    {
      "midi": 73,
      "hit": false,
      "t": 331799.99999999936,
      "d": 200,
      "v": 100
    },
    {
      "midi": 49,
      "hit": false,
      "t": 331999.9999999987,
      "d": 796.6666666666279,
      "v": 100
    },
    {
      "midi": 64,
      "hit": false,
      "t": 331999.99999999936,
      "d": 799.9999999999418,
      "v": 100
    }
  ]
}