{
  "jsonPath": "Blues/Rhythm And Blues/Gene Chandler/duke-of-earl.json",
  "path": "Blues\\Rhythm And Blues\\Gene Chandler\\Duke Of Earl.mid",
  "name": "Duke Of Earl",
  "difficulty": "Advanced",
  "bpm": 104.00001386666851,
  "notes": [
    {
      "midi": 41,
      "hit": false,
      "t": 2307.692,
      "d": 283.6538083333335,
      "v": 115
    },
    {
      "midi": 53,
      "hit": false,
      "t": 2307.692,
      "d": 283.6538083333335,
      "v": 107
    },
    {
      "midi": 57,
      "hit": false,
      "t": 2307.692,
      "d": 283.6538083333335,
      "v": 118
    },
    {
      "midi": 60,
      "hit": false,
      "t": 2307.692,
      "d": 283.6538083333335,
      "v": 118
    },
    {
      "midi": 65,
      "hit": false,
      "t": 2307.692,
      "d": 283.6538083333335,
      "v": 118
    },
    {
      "midi": 41,
      "hit": false,
      "t": 2884.6150000000002,
      "d": 283.6538083333335,
      "v": 107
    },
    {
      "midi": 53,
      "hit": false,
      "t": 2884.6150000000002,
      "d": 283.6538083333335,
      "v": 97
    },
    {
      "midi": 57,
      "hit": false,
      "t": 2884.6150000000002,
      "d": 283.6538083333335,
      "v": 118
    },
    {
      "midi": 60,
      "hit": false,
      "t": 2884.6150000000002,
      "d": 283.6538083333335,
      "v": 122
    },
    {
      "midi": 65,
      "hit": false,
      "t": 2884.6150000000002,
      "d": 283.6538083333335,
      "v": 118
    },
    {
      "midi": 41,
      "hit": false,
      "t": 3461.5380000000005,
      "d": 283.6538083333335,
      "v": 118
    },
    {
      "midi": 53,
      "hit": false,
      "t": 3461.5380000000005,
      "d": 283.6538083333335,
      "v": 118
    },
    {
      "midi": 57,
      "hit": false,
      "t": 3461.5380000000005,
      "d": 283.6538083333335,
      "v": 121
    },
    {
      "midi": 60,
      "hit": false,
      "t": 3461.5380000000005,
      "d": 283.6538083333335,
      "v": 121
    },
    {
      "midi": 65,
      "hit": false,
      "t": 3461.5380000000005,
      "d": 283.6538083333335,
      "v": 121
    },
    {
      "midi": 41,
      "hit": false,
      "t": 4038.4610000000007,
      "d": 283.653808333333,
      "v": 87
    },
    {
      "midi": 53,
      "hit": false,
      "t": 4038.4610000000007,
      "d": 283.653808333333,
      "v": 93
    },
    {
      "midi": 57,
      "hit": false,
      "t": 4038.4610000000007,
      "d": 283.653808333333,
      "v": 121
    },
    {
      "midi": 60,
      "hit": false,
      "t": 4038.4610000000007,
      "d": 283.653808333333,
      "v": 121
    },
    {
      "midi": 63,
      "hit": false,
      "t": 4038.4610000000007,
      "d": 283.653808333333,
      "v": 103
    },
    {
      "midi": 65,
      "hit": false,
      "t": 4038.4610000000007,
      "d": 283.653808333333,
      "v": 115
    },
    {
      "midi": 57,
      "hit": false,
      "t": 4326.922500000001,
      "d": 283.6538083333335,
      "v": 97
    },
    {
      "midi": 60,
      "hit": false,
      "t": 4326.922500000001,
      "d": 283.6538083333335,
      "v": 97
    },
    {
      "midi": 65,
      "hit": false,
      "t": 4326.922500000001,
      "d": 283.6538083333335,
      "v": 115
    },
    {
      "midi": 38,
      "hit": false,
      "t": 4615.384000000001,
      "d": 283.6538083333335,
      "v": 107
    },
    {
      "midi": 50,
      "hit": false,
      "t": 4615.384000000001,
      "d": 283.6538083333335,
      "v": 103
    },
    {
      "midi": 57,
      "hit": false,
      "t": 4615.384000000001,
      "d": 283.6538083333335,
      "v": 121
    },
    {
      "midi": 62,
      "hit": false,
      "t": 4615.384000000001,
      "d": 283.6538083333335,
      "v": 121
    },
    {
      "midi": 65,
      "hit": false,
      "t": 4615.384000000001,
      "d": 283.6538083333335,
      "v": 118
    },
    {
      "midi": 57,
      "hit": false,
      "t": 4903.845500000001,
      "d": 283.6538083333335,
      "v": 91
    },
    {
      "midi": 62,
      "hit": false,
      "t": 4903.845500000001,
      "d": 283.6538083333335,
      "v": 107
    },
    {
      "midi": 65,
      "hit": false,
      "t": 4903.845500000001,
      "d": 283.6538083333335,
      "v": 103
    },
    {
      "midi": 38,
      "hit": false,
      "t": 5192.307000000002,
      "d": 283.6538083333335,
      "v": 118
    },
    {
      "midi": 50,
      "hit": false,
      "t": 5192.307000000002,
      "d": 283.6538083333335,
      "v": 121
    },
    {
      "midi": 57,
      "hit": false,
      "t": 5192.307000000002,
      "d": 283.6538083333335,
      "v": 121
    },
    {
      "midi": 62,
      "hit": false,
      "t": 5192.307000000002,
      "d": 283.6538083333335,
      "v": 122
    },
    {
      "midi": 65,
      "hit": false,
      "t": 5192.307000000002,
      "d": 283.6538083333335,
      "v": 118
    },
    {
      "midi": 57,
      "hit": false,
      "t": 5480.768500000002,
      "d": 283.6538083333335,
      "v": 118
    },
    {
      "midi": 62,
      "hit": false,
      "t": 5480.768500000002,
      "d": 283.6538083333335,
      "v": 121
    },
    {
      "midi": 65,
      "hit": false,
      "t": 5480.768500000002,
      "d": 283.6538083333335,
      "v": 118
    },
    {
      "midi": 38,
      "hit": false,
      "t": 5769.230000000002,
      "d": 283.6538083333335,
      "v": 118
    },
    {
      "midi": 50,
      "hit": false,
      "t": 5769.230000000002,
      "d": 283.6538083333335,
      "v": 118
    },
    {
      "midi": 57,
      "hit": false,
      "t": 6057.691500000003,
      "d": 283.6538083333335,
      "v": 115
    },
    {
      "midi": 62,
      "hit": false,
      "t": 6057.691500000003,
      "d": 283.6538083333335,
      "v": 115
    },
    {
      "midi": 65,
      "hit": false,
      "t": 6057.691500000003,
      "d": 283.6538083333335,
      "v": 107
    },
    {
      "midi": 38,
      "hit": false,
      "t": 6346.153000000003,
      "d": 283.6538083333335,
      "v": 118
    },
    {
      "midi": 50,
      "hit": false,
      "t": 6346.153000000003,
      "d": 283.6538083333335,
      "v": 118
    },
    {
      "midi": 57,
      "hit": false,
      "t": 6346.153000000003,
      "d": 283.6538083333335,
      "v": 103
    },
    {
      "midi": 62,
      "hit": false,
      "t": 6346.153000000003,
      "d": 283.6538083333335,
      "v": 115
    },
    {
      "midi": 65,
      "hit": false,
      "t": 6346.153000000003,
      "d": 283.6538083333335,
      "v": 107
    },
    {
      "midi": 57,
      "hit": false,
      "t": 6634.614500000003,
      "d": 283.6538083333335,
      "v": 97
    },
    {
      "midi": 62,
      "hit": false,
      "t": 6634.614500000003,
      "d": 283.6538083333335,
      "v": 97
    },
    {
      "midi": 65,
      "hit": false,
      "t": 6634.614500000003,
      "d": 283.6538083333335,
      "v": 107
    },
    {
      "midi": 34,
      "hit": false,
      "t": 6923.076000000004,
      "d": 283.6538083333335,
      "v": 107
    },
    {
      "midi": 46,
      "hit": false,
      "t": 6923.076000000004,
      "d": 283.6538083333335,
      "v": 97
    },
    {
      "midi": 58,
      "hit": false,
      "t": 6923.076000000004,
      "d": 283.6538083333335,
      "v": 122
    },
    {
      "midi": 62,
      "hit": false,
      "t": 6923.076000000004,
      "d": 283.6538083333335,
      "v": 115
    },
    {
      "midi": 65,
      "hit": false,
      "t": 6923.076000000004,
      "d": 283.6538083333335,
      "v": 118
    },
    {
      "midi": 34,
      "hit": false,
      "t": 7499.999000000003,
      "d": 283.6538083333335,
      "v": 107
    },
    {
      "midi": 46,
      "hit": false,
      "t": 7499.999000000003,
      "d": 283.6538083333335,
      "v": 103
    },
    {
      "midi": 58,
      "hit": false,
      "t": 7499.999000000003,
      "d": 283.6538083333335,
      "v": 107
    },
    {
      "midi": 62,
      "hit": false,
      "t": 7499.999000000003,
      "d": 283.6538083333335,
      "v": 107
    },
    {
      "midi": 65,
      "hit": false,
      "t": 7499.999000000003,
      "d": 283.6538083333335,
      "v": 103
    },
    {
      "midi": 58,
      "hit": false,
      "t": 7788.460500000004,
      "d": 283.6538083333335,
      "v": 107
    },
    {
      "midi": 62,
      "hit": false,
      "t": 7788.460500000004,
      "d": 283.6538083333335,
      "v": 103
    },
    {
      "midi": 65,
      "hit": false,
      "t": 7788.460500000004,
      "d": 283.6538083333335,
      "v": 103
    },
    {
      "midi": 34,
      "hit": false,
      "t": 8076.922000000004,
      "d": 283.65380833333256,
      "v": 118
    },
    {
      "midi": 46,
      "hit": false,
      "t": 8076.922000000004,
      "d": 283.65380833333256,
      "v": 121
    },
    {
      "midi": 58,
      "hit": false,
      "t": 8365.383500000004,
      "d": 283.65380833333256,
      "v": 97
    },
    {
      "midi": 62,
      "hit": false,
      "t": 8365.383500000004,
      "d": 283.65380833333256,
      "v": 107
    },
    {
      "midi": 65,
      "hit": false,
      "t": 8365.383500000004,
      "d": 283.65380833333256,
      "v": 93
    },
    {
      "midi": 34,
      "hit": false,
      "t": 8653.845000000003,
      "d": 283.65380833333256,
      "v": 115
    },
    {
      "midi": 46,
      "hit": false,
      "t": 8653.845000000003,
      "d": 283.65380833333256,
      "v": 115
    },
    {
      "midi": 58,
      "hit": false,
      "t": 8653.845000000003,
      "d": 283.65380833333256,
      "v": 103
    },
    {
      "midi": 62,
      "hit": false,
      "t": 8653.845000000003,
      "d": 283.65380833333256,
      "v": 107
    },
    {
      "midi": 65,
      "hit": false,
      "t": 8653.845000000003,
      "d": 283.65380833333256,
      "v": 103
    },
    {
      "midi": 58,
      "hit": false,
      "t": 8942.306500000002,
      "d": 283.65380833333256,
      "v": 93
    },
    {
      "midi": 62,
      "hit": false,
      "t": 8942.306500000002,
      "d": 283.65380833333256,
      "v": 97
    },
    {
      "midi": 65,
      "hit": false,
      "t": 8942.306500000002,
      "d": 283.65380833333256,
      "v": 91
    },
    {
      "midi": 36,
      "hit": false,
      "t": 9230.768000000002,
      "d": 283.65380833333256,
      "v": 97
    },
    {
      "midi": 48,
      "hit": false,
      "t": 9230.768000000002,
      "d": 283.65380833333256,
      "v": 83
    },
    {
      "midi": 60,
      "hit": false,
      "t": 9230.768000000002,
      "d": 283.65380833333256,
      "v": 115
    },
    {
      "midi": 64,
      "hit": false,
      "t": 9230.768000000002,
      "d": 283.65380833333256,
      "v": 118
    },
    {
      "midi": 67,
      "hit": false,
      "t": 9230.768000000002,
      "d": 283.65380833333256,
      "v": 115
    },
    {
      "midi": 36,
      "hit": false,
      "t": 9807.691,
      "d": 283.65380833333256,
      "v": 97
    },
    {
      "midi": 48,
      "hit": false,
      "t": 9807.691,
      "d": 283.65380833333256,
      "v": 83
    },
    {
      "midi": 60,
      "hit": false,
      "t": 9807.691,
      "d": 283.65380833333256,
      "v": 115
    },
    {
      "midi": 64,
      "hit": false,
      "t": 9807.691,
      "d": 283.65380833333256,
      "v": 107
    },
    {
      "midi": 67,
      "hit": false,
      "t": 9807.691,
      "d": 283.65380833333256,
      "v": 97
    },
    {
      "midi": 60,
      "hit": false,
      "t": 10096.1525,
      "d": 283.65380833333256,
      "v": 107
    },
    {
      "midi": 64,
      "hit": false,
      "t": 10096.1525,
      "d": 283.65380833333256,
      "v": 103
    },
    {
      "midi": 67,
      "hit": false,
      "t": 10096.1525,
      "d": 283.65380833333256,
      "v": 103
    },
    {
      "midi": 36,
      "hit": false,
      "t": 10384.614,
      "d": 283.65380833333256,
      "v": 107
    },
    {
      "midi": 48,
      "hit": false,
      "t": 10384.614,
      "d": 283.65380833333256,
      "v": 103
    },
    {
      "midi": 60,
      "hit": false,
      "t": 10673.075499999999,
      "d": 283.65380833333256,
      "v": 103
    },
    {
      "midi": 64,
      "hit": false,
      "t": 10673.075499999999,
      "d": 283.65380833333256,
      "v": 103
    },
    {
      "midi": 67,
      "hit": false,
      "t": 10673.075499999999,
      "d": 283.65380833333256,
      "v": 97
    },
    {
      "midi": 36,
      "hit": false,
      "t": 10961.536999999998,
      "d": 283.65380833333256,
      "v": 103
    },
    {
      "midi": 48,
      "hit": false,
      "t": 10961.536999999998,
      "d": 283.65380833333256,
      "v": 93
    },
    {
      "midi": 60,
      "hit": false,
      "t": 10961.536999999998,
      "d": 283.65380833333256,
      "v": 115
    },
    {
      "midi": 64,
      "hit": false,
      "t": 10961.536999999998,
      "d": 283.65380833333256,
      "v": 115
    },
    {
      "midi": 67,
      "hit": false,
      "t": 10961.536999999998,
      "d": 283.65380833333256,
      "v": 115
    },
    {
      "midi": 60,
      "hit": false,
      "t": 11249.998499999998,
      "d": 283.65380833333256,
      "v": 97
    },
    {
      "midi": 64,
      "hit": false,
      "t": 11249.998499999998,
      "d": 283.65380833333256,
      "v": 97
    },
    {
      "midi": 67,
      "hit": false,
      "t": 11249.998499999998,
      "d": 283.65380833333256,
      "v": 107
    },
    {
      "midi": 41,
      "hit": false,
      "t": 11538.459999999997,
      "d": 283.65380833333256,
      "v": 93
    },
    {
      "midi": 53,
      "hit": false,
      "t": 11538.459999999997,
      "d": 283.65380833333256,
      "v": 75
    },
    {
      "midi": 57,
      "hit": false,
      "t": 11538.459999999997,
      "d": 283.65380833333256,
      "v": 115
    },
    {
      "midi": 60,
      "hit": false,
      "t": 11538.459999999997,
      "d": 283.65380833333256,
      "v": 118
    },
    {
      "midi": 65,
      "hit": false,
      "t": 11538.459999999997,
      "d": 283.65380833333256,
      "v": 107
    },
    {
      "midi": 41,
      "hit": false,
      "t": 12115.382999999996,
      "d": 283.65380833333256,
      "v": 107
    },
    {
      "midi": 53,
      "hit": false,
      "t": 12115.382999999996,
      "d": 283.65380833333256,
      "v": 103
    },
    {
      "midi": 57,
      "hit": false,
      "t": 12115.382999999996,
      "d": 283.65380833333256,
      "v": 103
    },
    {
      "midi": 60,
      "hit": false,
      "t": 12115.382999999996,
      "d": 283.65380833333256,
      "v": 118
    },
    {
      "midi": 65,
      "hit": false,
      "t": 12115.382999999996,
      "d": 283.65380833333256,
      "v": 103
    },
    {
      "midi": 57,
      "hit": false,
      "t": 12403.844499999996,
      "d": 283.65380833333256,
      "v": 118
    },
    {
      "midi": 60,
      "hit": false,
      "t": 12403.844499999996,
      "d": 283.65380833333256,
      "v": 122
    },
    {
      "midi": 65,
      "hit": false,
      "t": 12403.844499999996,
      "d": 283.65380833333256,
      "v": 118
    },
    {
      "midi": 41,
      "hit": false,
      "t": 12692.305999999995,
      "d": 283.65380833333256,
      "v": 115
    },
    {
      "midi": 53,
      "hit": false,
      "t": 12692.305999999995,
      "d": 283.65380833333256,
      "v": 115
    },
    {
      "midi": 57,
      "hit": false,
      "t": 12980.767499999994,
      "d": 283.65380833333256,
      "v": 115
    },
    {
      "midi": 60,
      "hit": false,
      "t": 12980.767499999994,
      "d": 283.65380833333256,
      "v": 118
    },
    {
      "midi": 65,
      "hit": false,
      "t": 12980.767499999994,
      "d": 283.65380833333256,
      "v": 107
    },
    {
      "midi": 41,
      "hit": false,
      "t": 13269.228999999994,
      "d": 283.65380833333256,
      "v": 107
    },
    {
      "midi": 53,
      "hit": false,
      "t": 13269.228999999994,
      "d": 283.65380833333256,
      "v": 103
    },
    {
      "midi": 57,
      "hit": false,
      "t": 13269.228999999994,
      "d": 283.65380833333256,
      "v": 118
    },
    {
      "midi": 60,
      "hit": false,
      "t": 13269.228999999994,
      "d": 283.65380833333256,
      "v": 121
    },
    {
      "midi": 65,
      "hit": false,
      "t": 13269.228999999994,
      "d": 283.65380833333256,
      "v": 115
    },
    {
      "midi": 57,
      "hit": false,
      "t": 13557.690499999993,
      "d": 283.65380833333256,
      "v": 97
    },
    {
      "midi": 60,
      "hit": false,
      "t": 13557.690499999993,
      "d": 283.65380833333256,
      "v": 97
    },
    {
      "midi": 65,
      "hit": false,
      "t": 13557.690499999993,
      "d": 283.65380833333256,
      "v": 103
    },
    {
      "midi": 38,
      "hit": false,
      "t": 13846.151999999993,
      "d": 283.65380833333256,
      "v": 91
    },
    {
      "midi": 50,
      "hit": false,
      "t": 13846.151999999993,
      "d": 283.65380833333256,
      "v": 91
    },
    {
      "midi": 57,
      "hit": false,
      "t": 13846.151999999993,
      "d": 283.65380833333256,
      "v": 115
    },
    {
      "midi": 62,
      "hit": false,
      "t": 13846.151999999993,
      "d": 283.65380833333256,
      "v": 118
    },
    {
      "midi": 65,
      "hit": false,
      "t": 13846.151999999993,
      "d": 283.65380833333256,
      "v": 118
    },
    {
      "midi": 38,
      "hit": false,
      "t": 14423.074999999992,
      "d": 283.65380833333256,
      "v": 103
    },
    {
      "midi": 50,
      "hit": false,
      "t": 14423.074999999992,
      "d": 283.65380833333256,
      "v": 97
    },
    {
      "midi": 57,
      "hit": false,
      "t": 14423.074999999992,
      "d": 283.65380833333256,
      "v": 115
    },
    {
      "midi": 62,
      "hit": false,
      "t": 14423.074999999992,
      "d": 283.65380833333256,
      "v": 115
    },
    {
      "midi": 65,
      "hit": false,
      "t": 14423.074999999992,
      "d": 283.65380833333256,
      "v": 93
    },
    {
      "midi": 57,
      "hit": false,
      "t": 14711.536499999991,
      "d": 283.65380833333256,
      "v": 115
    },
    {
      "midi": 62,
      "hit": false,
      "t": 14711.536499999991,
      "d": 283.65380833333256,
      "v": 118
    },
    {
      "midi": 65,
      "hit": false,
      "t": 14711.536499999991,
      "d": 283.65380833333256,
      "v": 107
    },
    {
      "midi": 38,
      "hit": false,
      "t": 14999.99799999999,
      "d": 283.65380833333256,
      "v": 103
    },
    {
      "midi": 50,
      "hit": false,
      "t": 14999.99799999999,
      "d": 283.65380833333256,
      "v": 107
    },
    {
      "midi": 57,
      "hit": false,
      "t": 15288.45949999999,
      "d": 283.65380833333256,
      "v": 107
    },
    {
      "midi": 62,
      "hit": false,
      "t": 15288.45949999999,
      "d": 283.65380833333256,
      "v": 121
    },
    {
      "midi": 65,
      "hit": false,
      "t": 15288.45949999999,
      "d": 283.65380833333256,
      "v": 107
    },
    {
      "midi": 38,
      "hit": false,
      "t": 15576.92099999999,
      "d": 283.65380833333256,
      "v": 93
    },
    {
      "midi": 50,
      "hit": false,
      "t": 15576.92099999999,
      "d": 283.65380833333256,
      "v": 115
    },
    {
      "midi": 57,
      "hit": false,
      "t": 15576.92099999999,
      "d": 283.65380833333256,
      "v": 107
    },
    {
      "midi": 62,
      "hit": false,
      "t": 15576.92099999999,
      "d": 283.65380833333256,
      "v": 118
    },
    {
      "midi": 65,
      "hit": false,
      "t": 15576.92099999999,
      "d": 283.65380833333256,
      "v": 103
    },
    {
      "midi": 57,
      "hit": false,
      "t": 15865.382499999989,
      "d": 283.65380833333256,
      "v": 87
    },
    {
      "midi": 62,
      "hit": false,
      "t": 15865.382499999989,
      "d": 283.65380833333256,
      "v": 103
    },
    {
      "midi": 65,
      "hit": false,
      "t": 15865.382499999989,
      "d": 283.65380833333256,
      "v": 107
    },
    {
      "midi": 34,
      "hit": false,
      "t": 16153.843999999988,
      "d": 283.6538083333344,
      "v": 93
    },
    {
      "midi": 46,
      "hit": false,
      "t": 16153.843999999988,
      "d": 283.6538083333344,
      "v": 97
    },
    {
      "midi": 58,
      "hit": false,
      "t": 16153.843999999988,
      "d": 283.6538083333344,
      "v": 122
    },
    {
      "midi": 62,
      "hit": false,
      "t": 16153.843999999988,
      "d": 283.6538083333344,
      "v": 107
    },
    {
      "midi": 65,
      "hit": false,
      "t": 16153.843999999988,
      "d": 283.6538083333344,
      "v": 107
    },
    {
      "midi": 34,
      "hit": false,
      "t": 16730.76699999999,
      "d": 283.65380833333256,
      "v": 97
    },
    {
      "midi": 46,
      "hit": false,
      "t": 16730.76699999999,
      "d": 283.65380833333256,
      "v": 93
    },
    {
      "midi": 58,
      "hit": false,
      "t": 16730.76699999999,
      "d": 283.65380833333256,
      "v": 107
    },
    {
      "midi": 62,
      "hit": false,
      "t": 16730.76699999999,
      "d": 283.65380833333256,
      "v": 103
    },
    {
      "midi": 65,
      "hit": false,
      "t": 16730.76699999999,
      "d": 283.65380833333256,
      "v": 107
    },
    {
      "midi": 58,
      "hit": false,
      "t": 17019.228499999987,
      "d": 283.65380833333256,
      "v": 107
    },
    {
      "midi": 62,
      "hit": false,
      "t": 17019.228499999987,
      "d": 283.65380833333256,
      "v": 107
    },
    {
      "midi": 65,
      "hit": false,
      "t": 17019.228499999987,
      "d": 283.65380833333256,
      "v": 107
    },
    {
      "midi": 34,
      "hit": false,
      "t": 17307.689999999984,
      "d": 283.65380833333256,
      "v": 118
    },
    {
      "midi": 46,
      "hit": false,
      "t": 17307.689999999984,
      "d": 283.65380833333256,
      "v": 118
    },
    {
      "midi": 58,
      "hit": false,
      "t": 17596.15149999998,
      "d": 283.65380833333256,
      "v": 115
    },
    {
      "midi": 62,
      "hit": false,
      "t": 17596.15149999998,
      "d": 283.65380833333256,
      "v": 107
    },
    {
      "midi": 65,
      "hit": false,
      "t": 17596.15149999998,
      "d": 283.65380833333256,
      "v": 115
    },
    {
      "midi": 34,
      "hit": false,
      "t": 17884.61299999998,
      "d": 283.65380833333256,
      "v": 107
    },
    {
      "midi": 46,
      "hit": false,
      "t": 17884.61299999998,
      "d": 283.65380833333256,
      "v": 107
    },
    {
      "midi": 58,
      "hit": false,
      "t": 17884.61299999998,
      "d": 283.65380833333256,
      "v": 103
    },
    {
      "midi": 62,
      "hit": false,
      "t": 17884.61299999998,
      "d": 283.65380833333256,
      "v": 107
    },
    {
      "midi": 65,
      "hit": false,
      "t": 17884.61299999998,
      "d": 283.65380833333256,
      "v": 107
    },
    {
      "midi": 58,
      "hit": false,
      "t": 18173.074499999977,
      "d": 283.65380833333256,
      "v": 91
    },
    {
      "midi": 62,
      "hit": false,
      "t": 18173.074499999977,
      "d": 283.65380833333256,
      "v": 97
    },
    {
      "midi": 65,
      "hit": false,
      "t": 18173.074499999977,
      "d": 283.65380833333256,
      "v": 103
    },
    {
      "midi": 36,
      "hit": false,
      "t": 18461.535999999975,
      "d": 283.65380833333256,
      "v": 93
    },
    {
      "midi": 48,
      "hit": false,
      "t": 18461.535999999975,
      "d": 283.65380833333256,
      "v": 77
    },
    {
      "midi": 60,
      "hit": false,
      "t": 18461.535999999975,
      "d": 283.65380833333256,
      "v": 118
    },
    {
      "midi": 64,
      "hit": false,
      "t": 18461.535999999975,
      "d": 283.65380833333256,
      "v": 118
    },
    {
      "midi": 67,
      "hit": false,
      "t": 18461.535999999975,
      "d": 283.65380833333256,
      "v": 103
    },
    {
      "midi": 36,
      "hit": false,
      "t": 19038.458999999973,
      "d": 283.65380833333256,
      "v": 93
    },
    {
      "midi": 48,
      "hit": false,
      "t": 19038.458999999973,
      "d": 283.65380833333256,
      "v": 97
    },
    {
      "midi": 60,
      "hit": false,
      "t": 19038.458999999973,
      "d": 283.65380833333256,
      "v": 107
    },
    {
      "midi": 64,
      "hit": false,
      "t": 19038.458999999973,
      "d": 283.65380833333256,
      "v": 103
    },
    {
      "midi": 67,
      "hit": false,
      "t": 19038.458999999973,
      "d": 283.65380833333256,
      "v": 103
    },
    {
      "midi": 60,
      "hit": false,
      "t": 19326.92049999997,
      "d": 283.65380833333256,
      "v": 118
    },
    {
      "midi": 64,
      "hit": false,
      "t": 19326.92049999997,
      "d": 283.65380833333256,
      "v": 115
    },
    {
      "midi": 67,
      "hit": false,
      "t": 19326.92049999997,
      "d": 283.65380833333256,
      "v": 103
    },
    {
      "midi": 36,
      "hit": false,
      "t": 19615.38199999997,
      "d": 283.65380833333256,
      "v": 115
    },
    {
      "midi": 48,
      "hit": false,
      "t": 19615.38199999997,
      "d": 283.65380833333256,
      "v": 115
    },
    {
      "midi": 60,
      "hit": false,
      "t": 19903.843499999966,
      "d": 283.65380833333256,
      "v": 121
    },
    {
      "midi": 64,
      "hit": false,
      "t": 19903.843499999966,
      "d": 283.65380833333256,
      "v": 118
    },
    {
      "midi": 67,
      "hit": false,
      "t": 19903.843499999966,
      "d": 283.65380833333256,
      "v": 115
    },
    {
      "midi": 36,
      "hit": false,
      "t": 20192.304999999964,
      "d": 283.65380833333256,
      "v": 107
    },
    {
      "midi": 48,
      "hit": false,
      "t": 20192.304999999964,
      "d": 283.65380833333256,
      "v": 103
    },
    {
      "midi": 60,
      "hit": false,
      "t": 20192.304999999964,
      "d": 283.65380833333256,
      "v": 118
    },
    {
      "midi": 64,
      "hit": false,
      "t": 20192.304999999964,
      "d": 283.65380833333256,
      "v": 115
    },
    {
      "midi": 67,
      "hit": false,
      "t": 20192.304999999964,
      "d": 283.65380833333256,
      "v": 107
    },
    {
      "midi": 60,
      "hit": false,
      "t": 20480.76649999996,
      "d": 283.65380833333256,
      "v": 115
    },
    {
      "midi": 64,
      "hit": false,
      "t": 20480.76649999996,
      "d": 283.65380833333256,
      "v": 107
    },
    {
      "midi": 67,
      "hit": false,
      "t": 20480.76649999996,
      "d": 283.65380833333256,
      "v": 103
    },
    {
      "midi": 41,
      "hit": false,
      "t": 20769.22799999996,
      "d": 283.65380833333256,
      "v": 115
    },
    {
      "midi": 53,
      "hit": false,
      "t": 20769.22799999996,
      "d": 283.65380833333256,
      "v": 107
    },
    {
      "midi": 57,
      "hit": false,
      "t": 20769.22799999996,
      "d": 283.65380833333256,
      "v": 118
    },
    {
      "midi": 60,
      "hit": false,
      "t": 20769.22799999996,
      "d": 283.65380833333256,
      "v": 118
    },
    {
      "midi": 65,
      "hit": false,
      "t": 20769.22799999996,
      "d": 283.65380833333256,
      "v": 118
    },
    {
      "midi": 41,
      "hit": false,
      "t": 21346.150999999958,
      "d": 283.65380833333256,
      "v": 107
    },
    {
      "midi": 53,
      "hit": false,
      "t": 21346.150999999958,
      "d": 283.65380833333256,
      "v": 97
    },
    {
      "midi": 57,
      "hit": false,
      "t": 21346.150999999958,
      "d": 283.65380833333256,
      "v": 118
    },
    {
      "midi": 60,
      "hit": false,
      "t": 21346.150999999958,
      "d": 283.65380833333256,
      "v": 122
    },
    {
      "midi": 65,
      "hit": false,
      "t": 21346.150999999958,
      "d": 283.65380833333256,
      "v": 118
    },
    {
      "midi": 41,
      "hit": false,
      "t": 21923.073999999957,
      "d": 283.65380833333256,
      "v": 118
    },
    {
      "midi": 53,
      "hit": false,
      "t": 21923.073999999957,
      "d": 283.65380833333256,
      "v": 118
    },
    {
      "midi": 57,
      "hit": false,
      "t": 21923.073999999957,
      "d": 283.65380833333256,
      "v": 121
    },
    {
      "midi": 60,
      "hit": false,
      "t": 21923.073999999957,
      "d": 283.65380833333256,
      "v": 121
    },
    {
      "midi": 65,
      "hit": false,
      "t": 21923.073999999957,
      "d": 283.65380833333256,
      "v": 121
    },
    {
      "midi": 41,
      "hit": false,
      "t": 22499.996999999956,
      "d": 283.65380833333256,
      "v": 87
    },
    {
      "midi": 53,
      "hit": false,
      "t": 22499.996999999956,
      "d": 283.65380833333256,
      "v": 93
    },
    {
      "midi": 57,
      "hit": false,
      "t": 22499.996999999956,
      "d": 283.65380833333256,
      "v": 121
    },
    {
      "midi": 60,
      "hit": false,
      "t": 22499.996999999956,
      "d": 283.65380833333256,
      "v": 121
    },
    {
      "midi": 63,
      "hit": false,
      "t": 22499.996999999956,
      "d": 283.65380833333256,
      "v": 103
    },
    {
      "midi": 65,
      "hit": false,
      "t": 22499.996999999956,
      "d": 283.65380833333256,
      "v": 115
    },
    {
      "midi": 57,
      "hit": false,
      "t": 22788.458499999953,
      "d": 283.65380833333256,
      "v": 97
    },
    {
      "midi": 60,
      "hit": false,
      "t": 22788.458499999953,
      "d": 283.65380833333256,
      "v": 97
    },
    {
      "midi": 65,
      "hit": false,
      "t": 22788.458499999953,
      "d": 283.65380833333256,
      "v": 115
    },
    {
      "midi": 38,
      "hit": false,
      "t": 23076.91999999995,
      "d": 283.65380833333256,
      "v": 107
    },
    {
      "midi": 50,
      "hit": false,
      "t": 23076.91999999995,
      "d": 283.65380833333256,
      "v": 103
    },
    {
      "midi": 57,
      "hit": false,
      "t": 23076.91999999995,
      "d": 283.65380833333256,
      "v": 121
    },
    {
      "midi": 62,
      "hit": false,
      "t": 23076.91999999995,
      "d": 283.65380833333256,
      "v": 121
    },
    {
      "midi": 65,
      "hit": false,
      "t": 23076.91999999995,
      "d": 283.65380833333256,
      "v": 118
    },
    {
      "midi": 57,
      "hit": false,
      "t": 23365.38149999995,
      "d": 283.65380833333256,
      "v": 91
    },
    {
      "midi": 62,
      "hit": false,
      "t": 23365.38149999995,
      "d": 283.65380833333256,
      "v": 107
    },
    {
      "midi": 65,
      "hit": false,
      "t": 23365.38149999995,
      "d": 283.65380833333256,
      "v": 103
    },
    {
      "midi": 38,
      "hit": false,
      "t": 23653.842999999946,
      "d": 283.65380833333256,
      "v": 118
    },
    {
      "midi": 50,
      "hit": false,
      "t": 23653.842999999946,
      "d": 283.65380833333256,
      "v": 121
    },
    {
      "midi": 57,
      "hit": false,
      "t": 23653.842999999946,
      "d": 283.65380833333256,
      "v": 121
    },
    {
      "midi": 62,
      "hit": false,
      "t": 23653.842999999946,
      "d": 283.65380833333256,
      "v": 122
    },
    {
      "midi": 65,
      "hit": false,
      "t": 23653.842999999946,
      "d": 283.65380833333256,
      "v": 118
    },
    {
      "midi": 57,
      "hit": false,
      "t": 23942.304499999944,
      "d": 283.65380833333256,
      "v": 118
    },
    {
      "midi": 62,
      "hit": false,
      "t": 23942.304499999944,
      "d": 283.65380833333256,
      "v": 121
    },
    {
      "midi": 65,
      "hit": false,
      "t": 23942.304499999944,
      "d": 283.65380833333256,
      "v": 118
    },
    {
      "midi": 38,
      "hit": false,
      "t": 24230.76599999994,
      "d": 283.65380833333256,
      "v": 118
    },
    {
      "midi": 50,
      "hit": false,
      "t": 24230.76599999994,
      "d": 283.65380833333256,
      "v": 118
    },
    {
      "midi": 57,
      "hit": false,
      "t": 24519.22749999994,
      "d": 283.65380833333256,
      "v": 115
    },
    {
      "midi": 62,
      "hit": false,
      "t": 24519.22749999994,
      "d": 283.65380833333256,
      "v": 115
    },
    {
      "midi": 65,
      "hit": false,
      "t": 24519.22749999994,
      "d": 283.65380833333256,
      "v": 107
    },
    {
      "midi": 38,
      "hit": false,
      "t": 24807.688999999937,
      "d": 283.65380833333256,
      "v": 118
    },
    {
      "midi": 50,
      "hit": false,
      "t": 24807.688999999937,
      "d": 283.65380833333256,
      "v": 118
    },
    {
      "midi": 57,
      "hit": false,
      "t": 24807.688999999937,
      "d": 283.65380833333256,
      "v": 103
    },
    {
      "midi": 62,
      "hit": false,
      "t": 24807.688999999937,
      "d": 283.65380833333256,
      "v": 115
    },
    {
      "midi": 65,
      "hit": false,
      "t": 24807.688999999937,
      "d": 283.65380833333256,
      "v": 107
    },
    {
      "midi": 57,
      "hit": false,
      "t": 25096.150499999934,
      "d": 283.65380833333256,
      "v": 97
    },
    {
      "midi": 62,
      "hit": false,
      "t": 25096.150499999934,
      "d": 283.65380833333256,
      "v": 97
    },
    {
      "midi": 65,
      "hit": false,
      "t": 25096.150499999934,
      "d": 283.65380833333256,
      "v": 107
    },
    {
      "midi": 34,
      "hit": false,
      "t": 25384.611999999932,
      "d": 283.65380833333256,
      "v": 107
    },
    {
      "midi": 46,
      "hit": false,
      "t": 25384.611999999932,
      "d": 283.65380833333256,
      "v": 97
    },
    {
      "midi": 58,
      "hit": false,
      "t": 25384.611999999932,
      "d": 283.65380833333256,
      "v": 122
    },
    {
      "midi": 62,
      "hit": false,
      "t": 25384.611999999932,
      "d": 283.65380833333256,
      "v": 115
    },
    {
      "midi": 65,
      "hit": false,
      "t": 25384.611999999932,
      "d": 283.65380833333256,
      "v": 118
    },
    {
      "midi": 34,
      "hit": false,
      "t": 25961.53499999993,
      "d": 283.65380833333256,
      "v": 107
    },
    {
      "midi": 46,
      "hit": false,
      "t": 25961.53499999993,
      "d": 283.65380833333256,
      "v": 103
    },
    {
      "midi": 58,
      "hit": false,
      "t": 25961.53499999993,
      "d": 283.65380833333256,
      "v": 107
    },
    {
      "midi": 62,
      "hit": false,
      "t": 25961.53499999993,
      "d": 283.65380833333256,
      "v": 107
    },
    {
      "midi": 65,
      "hit": false,
      "t": 25961.53499999993,
      "d": 283.65380833333256,
      "v": 103
    },
    {
      "midi": 58,
      "hit": false,
      "t": 26249.99649999993,
      "d": 283.65380833333256,
      "v": 107
    },
    {
      "midi": 62,
      "hit": false,
      "t": 26249.99649999993,
      "d": 283.65380833333256,
      "v": 103
    },
    {
      "midi": 65,
      "hit": false,
      "t": 26249.99649999993,
      "d": 283.65380833333256,
      "v": 103
    },
    {
      "midi": 34,
      "hit": false,
      "t": 26538.457999999926,
      "d": 283.65380833333256,
      "v": 118
    },
    {
      "midi": 46,
      "hit": false,
      "t": 26538.457999999926,
      "d": 283.65380833333256,
      "v": 121
    },
    {
      "midi": 58,
      "hit": false,
      "t": 26826.919499999924,
      "d": 283.65380833333256,
      "v": 97
    },
    {
      "midi": 62,
      "hit": false,
      "t": 26826.919499999924,
      "d": 283.65380833333256,
      "v": 107
    },
    {
      "midi": 65,
      "hit": false,
      "t": 26826.919499999924,
      "d": 283.65380833333256,
      "v": 93
    },
    {
      "midi": 34,
      "hit": false,
      "t": 27115.38099999992,
      "d": 283.65380833333256,
      "v": 115
    },
    {
      "midi": 46,
      "hit": false,
      "t": 27115.38099999992,
      "d": 283.65380833333256,
      "v": 115
    },
    {
      "midi": 58,
      "hit": false,
      "t": 27115.38099999992,
      "d": 283.65380833333256,
      "v": 103
    },
    {
      "midi": 62,
      "hit": false,
      "t": 27115.38099999992,
      "d": 283.65380833333256,
      "v": 107
    },
    {
      "midi": 65,
      "hit": false,
      "t": 27115.38099999992,
      "d": 283.65380833333256,
      "v": 103
    },
    {
      "midi": 58,
      "hit": false,
      "t": 27403.84249999992,
      "d": 283.65380833333256,
      "v": 93
    },
    {
      "midi": 62,
      "hit": false,
      "t": 27403.84249999992,
      "d": 283.65380833333256,
      "v": 97
    },
    {
      "midi": 65,
      "hit": false,
      "t": 27403.84249999992,
      "d": 283.65380833333256,
      "v": 91
    },
    {
      "midi": 36,
      "hit": false,
      "t": 27692.303999999916,
      "d": 283.65380833333256,
      "v": 97
    },
    {
      "midi": 48,
      "hit": false,
      "t": 27692.303999999916,
      "d": 283.65380833333256,
      "v": 83
    },
    {
      "midi": 60,
      "hit": false,
      "t": 27692.303999999916,
      "d": 283.65380833333256,
      "v": 115
    },
    {
      "midi": 64,
      "hit": false,
      "t": 27692.303999999916,
      "d": 283.65380833333256,
      "v": 118
    },
    {
      "midi": 67,
      "hit": false,
      "t": 27692.303999999916,
      "d": 283.65380833333256,
      "v": 115
    },
    {
      "midi": 36,
      "hit": false,
      "t": 28269.226999999915,
      "d": 283.65380833333256,
      "v": 97
    },
    {
      "midi": 48,
      "hit": false,
      "t": 28269.226999999915,
      "d": 283.65380833333256,
      "v": 83
    },
    {
      "midi": 60,
      "hit": false,
      "t": 28269.226999999915,
      "d": 283.65380833333256,
      "v": 115
    },
    {
      "midi": 64,
      "hit": false,
      "t": 28269.226999999915,
      "d": 283.65380833333256,
      "v": 107
    },
    {
      "midi": 67,
      "hit": false,
      "t": 28269.226999999915,
      "d": 283.65380833333256,
      "v": 97
    },
    {
      "midi": 60,
      "hit": false,
      "t": 28557.688499999913,
      "d": 283.65380833333256,
      "v": 107
    },
    {
      "midi": 64,
      "hit": false,
      "t": 28557.688499999913,
      "d": 283.65380833333256,
      "v": 103
    },
    {
      "midi": 67,
      "hit": false,
      "t": 28557.688499999913,
      "d": 283.65380833333256,
      "v": 103
    },
    {
      "midi": 36,
      "hit": false,
      "t": 28846.14999999991,
      "d": 283.65380833333256,
      "v": 107
    },
    {
      "midi": 48,
      "hit": false,
      "t": 28846.14999999991,
      "d": 283.65380833333256,
      "v": 103
    },
    {
      "midi": 60,
      "hit": false,
      "t": 29134.611499999908,
      "d": 283.65380833333256,
      "v": 103
    },
    {
      "midi": 64,
      "hit": false,
      "t": 29134.611499999908,
      "d": 283.65380833333256,
      "v": 103
    },
    {
      "midi": 67,
      "hit": false,
      "t": 29134.611499999908,
      "d": 283.65380833333256,
      "v": 97
    },
    {
      "midi": 36,
      "hit": false,
      "t": 29423.072999999906,
      "d": 283.65380833333256,
      "v": 103
    },
    {
      "midi": 48,
      "hit": false,
      "t": 29423.072999999906,
      "d": 283.65380833333256,
      "v": 93
    },
    {
      "midi": 60,
      "hit": false,
      "t": 29423.072999999906,
      "d": 283.65380833333256,
      "v": 115
    },
    {
      "midi": 64,
      "hit": false,
      "t": 29423.072999999906,
      "d": 283.65380833333256,
      "v": 115
    },
    {
      "midi": 67,
      "hit": false,
      "t": 29423.072999999906,
      "d": 283.65380833333256,
      "v": 115
    },
    {
      "midi": 60,
      "hit": false,
      "t": 29711.534499999903,
      "d": 283.65380833333256,
      "v": 97
    },
    {
      "midi": 64,
      "hit": false,
      "t": 29711.534499999903,
      "d": 283.65380833333256,
      "v": 97
    },
    {
      "midi": 67,
      "hit": false,
      "t": 29711.534499999903,
      "d": 283.65380833333256,
      "v": 107
    },
    {
      "midi": 41,
      "hit": false,
      "t": 29999.9959999999,
      "d": 283.65380833333256,
      "v": 93
    },
    {
      "midi": 53,
      "hit": false,
      "t": 29999.9959999999,
      "d": 283.65380833333256,
      "v": 75
    },
    {
      "midi": 57,
      "hit": false,
      "t": 29999.9959999999,
      "d": 283.65380833333256,
      "v": 115
    },
    {
      "midi": 60,
      "hit": false,
      "t": 29999.9959999999,
      "d": 283.65380833333256,
      "v": 118
    },
    {
      "midi": 65,
      "hit": false,
      "t": 29999.9959999999,
      "d": 283.65380833333256,
      "v": 107
    },
    {
      "midi": 41,
      "hit": false,
      "t": 30576.9189999999,
      "d": 283.65380833333256,
      "v": 107
    },
    {
      "midi": 53,
      "hit": false,
      "t": 30576.9189999999,
      "d": 283.65380833333256,
      "v": 103
    },
    {
      "midi": 57,
      "hit": false,
      "t": 30576.9189999999,
      "d": 283.65380833333256,
      "v": 103
    },
    {
      "midi": 60,
      "hit": false,
      "t": 30576.9189999999,
      "d": 283.65380833333256,
      "v": 118
    },
    {
      "midi": 65,
      "hit": false,
      "t": 30576.9189999999,
      "d": 283.65380833333256,
      "v": 103
    },
    {
      "midi": 57,
      "hit": false,
      "t": 30865.380499999897,
      "d": 283.65380833333256,
      "v": 118
    },
    {
      "midi": 60,
      "hit": false,
      "t": 30865.380499999897,
      "d": 283.65380833333256,
      "v": 122
    },
    {
      "midi": 65,
      "hit": false,
      "t": 30865.380499999897,
      "d": 283.65380833333256,
      "v": 118
    },
    {
      "midi": 41,
      "hit": false,
      "t": 31153.841999999895,
      "d": 283.65380833333256,
      "v": 115
    },
    {
      "midi": 53,
      "hit": false,
      "t": 31153.841999999895,
      "d": 283.65380833333256,
      "v": 115
    },
    {
      "midi": 57,
      "hit": false,
      "t": 31442.303499999893,
      "d": 283.65380833333256,
      "v": 115
    },
    {
      "midi": 60,
      "hit": false,
      "t": 31442.303499999893,
      "d": 283.65380833333256,
      "v": 118
    },
    {
      "midi": 65,
      "hit": false,
      "t": 31442.303499999893,
      "d": 283.65380833333256,
      "v": 107
    },
    {
      "midi": 41,
      "hit": false,
      "t": 31730.76499999989,
      "d": 283.65380833333256,
      "v": 107
    },
    {
      "midi": 53,
      "hit": false,
      "t": 31730.76499999989,
      "d": 283.65380833333256,
      "v": 103
    },
    {
      "midi": 57,
      "hit": false,
      "t": 31730.76499999989,
      "d": 283.65380833333256,
      "v": 118
    },
    {
      "midi": 60,
      "hit": false,
      "t": 31730.76499999989,
      "d": 283.65380833333256,
      "v": 121
    },
    {
      "midi": 65,
      "hit": false,
      "t": 31730.76499999989,
      "d": 283.65380833333256,
      "v": 115
    },
    {
      "midi": 57,
      "hit": false,
      "t": 32019.226499999888,
      "d": 283.65380833333256,
      "v": 97
    },
    {
      "midi": 60,
      "hit": false,
      "t": 32019.226499999888,
      "d": 283.65380833333256,
      "v": 97
    },
    {
      "midi": 65,
      "hit": false,
      "t": 32019.226499999888,
      "d": 283.65380833333256,
      "v": 103
    },
    {
      "midi": 38,
      "hit": false,
      "t": 32307.687999999886,
      "d": 283.65380833333256,
      "v": 91
    },
    {
      "midi": 50,
      "hit": false,
      "t": 32307.687999999886,
      "d": 283.65380833333256,
      "v": 91
    },
    {
      "midi": 57,
      "hit": false,
      "t": 32307.687999999886,
      "d": 283.65380833333256,
      "v": 115
    },
    {
      "midi": 62,
      "hit": false,
      "t": 32307.687999999886,
      "d": 283.65380833333256,
      "v": 118
    },
    {
      "midi": 65,
      "hit": false,
      "t": 32307.687999999886,
      "d": 283.65380833333256,
      "v": 118
    },
    {
      "midi": 38,
      "hit": false,
      "t": 32884.61099999989,
      "d": 283.6538083333362,
      "v": 103
    },
    {
      "midi": 50,
      "hit": false,
      "t": 32884.61099999989,
      "d": 283.6538083333362,
      "v": 97
    },
    {
      "midi": 57,
      "hit": false,
      "t": 32884.61099999989,
      "d": 283.6538083333362,
      "v": 115
    },
    {
      "midi": 62,
      "hit": false,
      "t": 32884.61099999989,
      "d": 283.6538083333362,
      "v": 115
    },
    {
      "midi": 65,
      "hit": false,
      "t": 32884.61099999989,
      "d": 283.6538083333362,
      "v": 93
    },
    {
      "midi": 57,
      "hit": false,
      "t": 33173.07249999989,
      "d": 283.6538083333362,
      "v": 115
    },
    {
      "midi": 62,
      "hit": false,
      "t": 33173.07249999989,
      "d": 283.6538083333362,
      "v": 118
    },
    {
      "midi": 65,
      "hit": false,
      "t": 33173.07249999989,
      "d": 283.6538083333362,
      "v": 107
    },
    {
      "midi": 38,
      "hit": false,
      "t": 33461.5339999999,
      "d": 283.6538083333362,
      "v": 103
    },
    {
      "midi": 50,
      "hit": false,
      "t": 33461.5339999999,
      "d": 283.6538083333362,
      "v": 107
    },
    {
      "midi": 57,
      "hit": false,
      "t": 33749.9954999999,
      "d": 283.6538083333362,
      "v": 107
    },
    {
      "midi": 62,
      "hit": false,
      "t": 33749.9954999999,
      "d": 283.6538083333362,
      "v": 121
    },
    {
      "midi": 65,
      "hit": false,
      "t": 33749.9954999999,
      "d": 283.6538083333362,
      "v": 107
    },
    {
      "midi": 38,
      "hit": false,
      "t": 34038.45699999991,
      "d": 283.6538083333362,
      "v": 93
    },
    {
      "midi": 50,
      "hit": false,
      "t": 34038.45699999991,
      "d": 283.6538083333362,
      "v": 115
    },
    {
      "midi": 57,
      "hit": false,
      "t": 34038.45699999991,
      "d": 283.6538083333362,
      "v": 107
    },
    {
      "midi": 62,
      "hit": false,
      "t": 34038.45699999991,
      "d": 283.6538083333362,
      "v": 118
    },
    {
      "midi": 65,
      "hit": false,
      "t": 34038.45699999991,
      "d": 283.6538083333362,
      "v": 103
    },
    {
      "midi": 57,
      "hit": false,
      "t": 34326.91849999991,
      "d": 283.6538083333362,
      "v": 87
    },
    {
      "midi": 62,
      "hit": false,
      "t": 34326.91849999991,
      "d": 283.6538083333362,
      "v": 103
    },
    {
      "midi": 65,
      "hit": false,
      "t": 34326.91849999991,
      "d": 283.6538083333362,
      "v": 107
    },
    {
      "midi": 34,
      "hit": false,
      "t": 34615.37999999992,
      "d": 283.6538083333362,
      "v": 93
    },
    {
      "midi": 46,
      "hit": false,
      "t": 34615.37999999992,
      "d": 283.6538083333362,
      "v": 97
    },
    {
      "midi": 58,
      "hit": false,
      "t": 34615.37999999992,
      "d": 283.6538083333362,
      "v": 122
    },
    {
      "midi": 62,
      "hit": false,
      "t": 34615.37999999992,
      "d": 283.6538083333362,
      "v": 107
    },
    {
      "midi": 65,
      "hit": false,
      "t": 34615.37999999992,
      "d": 283.6538083333362,
      "v": 107
    },
    {
      "midi": 34,
      "hit": false,
      "t": 35192.30299999992,
      "d": 283.6538083333362,
      "v": 97
    },
    {
      "midi": 46,
      "hit": false,
      "t": 35192.30299999992,
      "d": 283.6538083333362,
      "v": 93
    },
    {
      "midi": 58,
      "hit": false,
      "t": 35192.30299999992,
      "d": 283.6538083333362,
      "v": 107
    },
    {
      "midi": 62,
      "hit": false,
      "t": 35192.30299999992,
      "d": 283.6538083333362,
      "v": 103
    },
    {
      "midi": 65,
      "hit": false,
      "t": 35192.30299999992,
      "d": 283.6538083333362,
      "v": 107
    },
    {
      "midi": 58,
      "hit": false,
      "t": 35480.764499999925,
      "d": 283.6538083333362,
      "v": 107
    },
    {
      "midi": 62,
      "hit": false,
      "t": 35480.764499999925,
      "d": 283.6538083333362,
      "v": 107
    },
    {
      "midi": 65,
      "hit": false,
      "t": 35480.764499999925,
      "d": 283.6538083333362,
      "v": 107
    },
    {
      "midi": 34,
      "hit": false,
      "t": 35769.22599999993,
      "d": 283.6538083333362,
      "v": 118
    },
    {
      "midi": 46,
      "hit": false,
      "t": 35769.22599999993,
      "d": 283.6538083333362,
      "v": 118
    },
    {
      "midi": 58,
      "hit": false,
      "t": 36057.687499999935,
      "d": 283.6538083333362,
      "v": 115
    },
    {
      "midi": 62,
      "hit": false,
      "t": 36057.687499999935,
      "d": 283.6538083333362,
      "v": 107
    },
    {
      "midi": 65,
      "hit": false,
      "t": 36057.687499999935,
      "d": 283.6538083333362,
      "v": 115
    },
    {
      "midi": 34,
      "hit": false,
      "t": 36346.14899999994,
      "d": 283.6538083333362,
      "v": 107
    },
    {
      "midi": 46,
      "hit": false,
      "t": 36346.14899999994,
      "d": 283.6538083333362,
      "v": 107
    },
    {
      "midi": 58,
      "hit": false,
      "t": 36346.14899999994,
      "d": 283.6538083333362,
      "v": 103
    },
    {
      "midi": 62,
      "hit": false,
      "t": 36346.14899999994,
      "d": 283.6538083333362,
      "v": 107
    },
    {
      "midi": 65,
      "hit": false,
      "t": 36346.14899999994,
      "d": 283.6538083333362,
      "v": 107
    },
    {
      "midi": 58,
      "hit": false,
      "t": 36634.610499999944,
      "d": 283.6538083333362,
      "v": 91
    },
    {
      "midi": 62,
      "hit": false,
      "t": 36634.610499999944,
      "d": 283.6538083333362,
      "v": 97
    },
    {
      "midi": 65,
      "hit": false,
      "t": 36634.610499999944,
      "d": 283.6538083333362,
      "v": 103
    },
    {
      "midi": 36,
      "hit": false,
      "t": 36923.07199999995,
      "d": 283.6538083333362,
      "v": 93
    },
    {
      "midi": 48,
      "hit": false,
      "t": 36923.07199999995,
      "d": 283.6538083333362,
      "v": 77
    },
    {
      "midi": 60,
      "hit": false,
      "t": 36923.07199999995,
      "d": 283.6538083333362,
      "v": 118
    },
    {
      "midi": 64,
      "hit": false,
      "t": 36923.07199999995,
      "d": 283.6538083333362,
      "v": 118
    },
    {
      "midi": 67,
      "hit": false,
      "t": 36923.07199999995,
      "d": 283.6538083333362,
      "v": 103
    },
    {
      "midi": 36,
      "hit": false,
      "t": 37499.99499999995,
      "d": 283.6538083333362,
      "v": 93
    },
    {
      "midi": 48,
      "hit": false,
      "t": 37499.99499999995,
      "d": 283.6538083333362,
      "v": 97
    },
    {
      "midi": 60,
      "hit": false,
      "t": 37499.99499999995,
      "d": 283.6538083333362,
      "v": 107
    },
    {
      "midi": 64,
      "hit": false,
      "t": 37499.99499999995,
      "d": 283.6538083333362,
      "v": 103
    },
    {
      "midi": 67,
      "hit": false,
      "t": 37499.99499999995,
      "d": 283.6538083333362,
      "v": 103
    },
    {
      "midi": 60,
      "hit": false,
      "t": 37788.45649999996,
      "d": 283.6538083333362,
      "v": 118
    },
    {
      "midi": 64,
      "hit": false,
      "t": 37788.45649999996,
      "d": 283.6538083333362,
      "v": 115
    },
    {
      "midi": 67,
      "hit": false,
      "t": 37788.45649999996,
      "d": 283.6538083333362,
      "v": 103
    },
    {
      "midi": 36,
      "hit": false,
      "t": 38076.91799999996,
      "d": 283.6538083333362,
      "v": 115
    },
    {
      "midi": 48,
      "hit": false,
      "t": 38076.91799999996,
      "d": 283.6538083333362,
      "v": 115
    },
    {
      "midi": 60,
      "hit": false,
      "t": 38365.379499999966,
      "d": 283.6538083333362,
      "v": 121
    },
    {
      "midi": 64,
      "hit": false,
      "t": 38365.379499999966,
      "d": 283.6538083333362,
      "v": 118
    },
    {
      "midi": 67,
      "hit": false,
      "t": 38365.379499999966,
      "d": 283.6538083333362,
      "v": 115
    },
    {
      "midi": 36,
      "hit": false,
      "t": 38653.84099999997,
      "d": 283.6538083333362,
      "v": 107
    },
    {
      "midi": 48,
      "hit": false,
      "t": 38653.84099999997,
      "d": 283.6538083333362,
      "v": 103
    },
    {
      "midi": 60,
      "hit": false,
      "t": 38653.84099999997,
      "d": 283.6538083333362,
      "v": 118
    },
    {
      "midi": 64,
      "hit": false,
      "t": 38653.84099999997,
      "d": 283.6538083333362,
      "v": 115
    },
    {
      "midi": 67,
      "hit": false,
      "t": 38653.84099999997,
      "d": 283.6538083333362,
      "v": 107
    },
    {
      "midi": 60,
      "hit": false,
      "t": 38942.302499999976,
      "d": 283.6538083333362,
      "v": 115
    },
    {
      "midi": 64,
      "hit": false,
      "t": 38942.302499999976,
      "d": 283.6538083333362,
      "v": 107
    },
    {
      "midi": 67,
      "hit": false,
      "t": 38942.302499999976,
      "d": 283.6538083333362,
      "v": 103
    },
    {
      "midi": 41,
      "hit": false,
      "t": 39230.76399999998,
      "d": 283.6538083333362,
      "v": 115
    },
    {
      "midi": 53,
      "hit": false,
      "t": 39230.76399999998,
      "d": 283.6538083333362,
      "v": 107
    },
    {
      "midi": 57,
      "hit": false,
      "t": 39230.76399999998,
      "d": 283.6538083333362,
      "v": 121
    },
    {
      "midi": 60,
      "hit": false,
      "t": 39230.76399999998,
      "d": 576.9230000000025,
      "v": 121
    },
    {
      "midi": 65,
      "hit": false,
      "t": 39230.76399999998,
      "d": 576.9230000000025,
      "v": 121
    },
    {
      "midi": 41,
      "hit": false,
      "t": 39807.68699999998,
      "d": 283.6538083333362,
      "v": 107
    },
    {
      "midi": 53,
      "hit": false,
      "t": 39807.68699999998,
      "d": 283.6538083333362,
      "v": 107
    },
    {
      "midi": 57,
      "hit": false,
      "t": 39807.68699999998,
      "d": 283.6538083333362,
      "v": 121
    },
    {
      "midi": 60,
      "hit": false,
      "t": 39807.68699999998,
      "d": 283.6538083333362,
      "v": 118
    },
    {
      "midi": 65,
      "hit": false,
      "t": 39807.68699999998,
      "d": 283.6538083333362,
      "v": 107
    },
    {
      "midi": 57,
      "hit": false,
      "t": 40096.14849999999,
      "d": 283.6538083333362,
      "v": 115
    },
    {
      "midi": 60,
      "hit": false,
      "t": 40096.14849999999,
      "d": 283.6538083333362,
      "v": 115
    },
    {
      "midi": 65,
      "hit": false,
      "t": 40096.14849999999,
      "d": 283.6538083333362,
      "v": 107
    },
    {
      "midi": 41,
      "hit": false,
      "t": 40384.60999999999,
      "d": 283.6538083333362,
      "v": 118
    },
    {
      "midi": 53,
      "hit": false,
      "t": 40384.60999999999,
      "d": 283.6538083333362,
      "v": 121
    },
    {
      "midi": 57,
      "hit": false,
      "t": 40673.0715,
      "d": 283.6538083333362,
      "v": 118
    },
    {
      "midi": 60,
      "hit": false,
      "t": 40673.0715,
      "d": 283.6538083333362,
      "v": 121
    },
    {
      "midi": 65,
      "hit": false,
      "t": 40673.0715,
      "d": 283.6538083333362,
      "v": 118
    },
    {
      "midi": 41,
      "hit": false,
      "t": 40961.533,
      "d": 283.6538083333362,
      "v": 115
    },
    {
      "midi": 53,
      "hit": false,
      "t": 40961.533,
      "d": 283.6538083333362,
      "v": 97
    },
    {
      "midi": 57,
      "hit": false,
      "t": 40961.533,
      "d": 283.6538083333362,
      "v": 118
    },
    {
      "midi": 60,
      "hit": false,
      "t": 40961.533,
      "d": 283.6538083333362,
      "v": 121
    },
    {
      "midi": 65,
      "hit": false,
      "t": 40961.533,
      "d": 283.6538083333362,
      "v": 118
    },
    {
      "midi": 57,
      "hit": false,
      "t": 41249.99450000001,
      "d": 283.6538083333362,
      "v": 97
    },
    {
      "midi": 60,
      "hit": false,
      "t": 41249.99450000001,
      "d": 283.6538083333362,
      "v": 103
    },
    {
      "midi": 65,
      "hit": false,
      "t": 41249.99450000001,
      "d": 283.6538083333362,
      "v": 97
    },
    {
      "midi": 41,
      "hit": false,
      "t": 41538.45600000001,
      "d": 283.6538083333362,
      "v": 118
    },
    {
      "midi": 53,
      "hit": false,
      "t": 41538.45600000001,
      "d": 283.6538083333362,
      "v": 115
    },
    {
      "midi": 57,
      "hit": false,
      "t": 41538.45600000001,
      "d": 283.6538083333362,
      "v": 118
    },
    {
      "midi": 60,
      "hit": false,
      "t": 41538.45600000001,
      "d": 283.6538083333362,
      "v": 121
    },
    {
      "midi": 65,
      "hit": false,
      "t": 41538.45600000001,
      "d": 283.6538083333362,
      "v": 121
    },
    {
      "midi": 41,
      "hit": false,
      "t": 42115.379000000015,
      "d": 283.6538083333362,
      "v": 118
    },
    {
      "midi": 53,
      "hit": false,
      "t": 42115.379000000015,
      "d": 283.6538083333362,
      "v": 115
    },
    {
      "midi": 57,
      "hit": false,
      "t": 42115.379000000015,
      "d": 283.6538083333362,
      "v": 115
    },
    {
      "midi": 60,
      "hit": false,
      "t": 42115.379000000015,
      "d": 283.6538083333362,
      "v": 118
    },
    {
      "midi": 65,
      "hit": false,
      "t": 42115.379000000015,
      "d": 283.6538083333362,
      "v": 115
    },
    {
      "midi": 57,
      "hit": false,
      "t": 42403.84050000002,
      "d": 283.6538083333362,
      "v": 107
    },
    {
      "midi": 60,
      "hit": false,
      "t": 42403.84050000002,
      "d": 283.6538083333362,
      "v": 115
    },
    {
      "midi": 65,
      "hit": false,
      "t": 42403.84050000002,
      "d": 283.6538083333362,
      "v": 115
    },
    {
      "midi": 41,
      "hit": false,
      "t": 42692.302000000025,
      "d": 283.6538083333362,
      "v": 115
    },
    {
      "midi": 53,
      "hit": false,
      "t": 42692.302000000025,
      "d": 283.6538083333362,
      "v": 118
    },
    {
      "midi": 57,
      "hit": false,
      "t": 42980.76350000003,
      "d": 283.6538083333362,
      "v": 118
    },
    {
      "midi": 60,
      "hit": false,
      "t": 42980.76350000003,
      "d": 283.6538083333362,
      "v": 122
    },
    {
      "midi": 65,
      "hit": false,
      "t": 42980.76350000003,
      "d": 283.6538083333362,
      "v": 107
    },
    {
      "midi": 41,
      "hit": false,
      "t": 43269.225000000035,
      "d": 283.6538083333362,
      "v": 103
    },
    {
      "midi": 53,
      "hit": false,
      "t": 43269.225000000035,
      "d": 283.6538083333362,
      "v": 103
    },
    {
      "midi": 57,
      "hit": false,
      "t": 43269.225000000035,
      "d": 283.6538083333362,
      "v": 107
    },
    {
      "midi": 60,
      "hit": false,
      "t": 43269.225000000035,
      "d": 283.6538083333362,
      "v": 107
    },
    {
      "midi": 65,
      "hit": false,
      "t": 43269.225000000035,
      "d": 283.6538083333362,
      "v": 107
    },
    {
      "midi": 57,
      "hit": false,
      "t": 43557.68650000004,
      "d": 283.6538083333362,
      "v": 115
    },
    {
      "midi": 60,
      "hit": false,
      "t": 43557.68650000004,
      "d": 283.6538083333362,
      "v": 107
    },
    {
      "midi": 65,
      "hit": false,
      "t": 43557.68650000004,
      "d": 283.6538083333362,
      "v": 107
    },
    {
      "midi": 38,
      "hit": false,
      "t": 43846.148000000045,
      "d": 283.6538083333362,
      "v": 115
    },
    {
      "midi": 50,
      "hit": false,
      "t": 43846.148000000045,
      "d": 283.6538083333362,
      "v": 118
    },
    {
      "midi": 57,
      "hit": false,
      "t": 43846.148000000045,
      "d": 283.6538083333362,
      "v": 115
    },
    {
      "midi": 62,
      "hit": false,
      "t": 43846.148000000045,
      "d": 283.6538083333362,
      "v": 121
    },
    {
      "midi": 65,
      "hit": false,
      "t": 43846.148000000045,
      "d": 283.6538083333362,
      "v": 115
    },
    {
      "midi": 38,
      "hit": false,
      "t": 44423.07100000005,
      "d": 283.6538083333362,
      "v": 107
    },
    {
      "midi": 50,
      "hit": false,
      "t": 44423.07100000005,
      "d": 283.6538083333362,
      "v": 115
    },
    {
      "midi": 57,
      "hit": false,
      "t": 44423.07100000005,
      "d": 283.6538083333362,
      "v": 115
    },
    {
      "midi": 62,
      "hit": false,
      "t": 44423.07100000005,
      "d": 283.6538083333362,
      "v": 118
    },
    {
      "midi": 65,
      "hit": false,
      "t": 44423.07100000005,
      "d": 283.6538083333362,
      "v": 118
    },
    {
      "midi": 57,
      "hit": false,
      "t": 44711.53250000005,
      "d": 283.6538083333362,
      "v": 103
    },
    {
      "midi": 62,
      "hit": false,
      "t": 44711.53250000005,
      "d": 283.6538083333362,
      "v": 115
    },
    {
      "midi": 65,
      "hit": false,
      "t": 44711.53250000005,
      "d": 283.6538083333362,
      "v": 115
    },
    {
      "midi": 38,
      "hit": false,
      "t": 44999.99400000006,
      "d": 283.6538083333362,
      "v": 115
    },
    {
      "midi": 50,
      "hit": false,
      "t": 44999.99400000006,
      "d": 283.6538083333362,
      "v": 118
    },
    {
      "midi": 57,
      "hit": false,
      "t": 45288.45550000006,
      "d": 283.6538083333362,
      "v": 103
    },
    {
      "midi": 62,
      "hit": false,
      "t": 45288.45550000006,
      "d": 283.6538083333362,
      "v": 107
    },
    {
      "midi": 65,
      "hit": false,
      "t": 45288.45550000006,
      "d": 283.6538083333362,
      "v": 115
    },
    {
      "midi": 38,
      "hit": false,
      "t": 45576.91700000007,
      "d": 283.6538083333362,
      "v": 115
    },
    {
      "midi": 50,
      "hit": false,
      "t": 45576.91700000007,
      "d": 283.6538083333362,
      "v": 107
    },
    {
      "midi": 57,
      "hit": false,
      "t": 45576.91700000007,
      "d": 283.6538083333362,
      "v": 97
    },
    {
      "midi": 62,
      "hit": false,
      "t": 45576.91700000007,
      "d": 283.6538083333362,
      "v": 103
    },
    {
      "midi": 65,
      "hit": false,
      "t": 45576.91700000007,
      "d": 283.6538083333362,
      "v": 107
    },
    {
      "midi": 57,
      "hit": false,
      "t": 45865.37850000007,
      "d": 283.6538083333362,
      "v": 107
    },
    {
      "midi": 62,
      "hit": false,
      "t": 45865.37850000007,
      "d": 283.6538083333362,
      "v": 107
    },
    {
      "midi": 65,
      "hit": false,
      "t": 45865.37850000007,
      "d": 283.6538083333362,
      "v": 107
    },
    {
      "midi": 38,
      "hit": false,
      "t": 46153.84000000008,
      "d": 283.6538083333362,
      "v": 115
    },
    {
      "midi": 50,
      "hit": false,
      "t": 46153.84000000008,
      "d": 283.6538083333362,
      "v": 115
    },
    {
      "midi": 57,
      "hit": false,
      "t": 46153.84000000008,
      "d": 283.6538083333362,
      "v": 118
    },
    {
      "midi": 62,
      "hit": false,
      "t": 46153.84000000008,
      "d": 283.6538083333362,
      "v": 115
    },
    {
      "midi": 65,
      "hit": false,
      "t": 46153.84000000008,
      "d": 283.6538083333362,
      "v": 118
    },
    {
      "midi": 38,
      "hit": false,
      "t": 46730.76300000008,
      "d": 283.6538083333362,
      "v": 103
    },
    {
      "midi": 50,
      "hit": false,
      "t": 46730.76300000008,
      "d": 283.6538083333362,
      "v": 103
    },
    {
      "midi": 57,
      "hit": false,
      "t": 46730.76300000008,
      "d": 283.6538083333362,
      "v": 93
    },
    {
      "midi": 62,
      "hit": false,
      "t": 46730.76300000008,
      "d": 283.6538083333362,
      "v": 103
    },
    {
      "midi": 65,
      "hit": false,
      "t": 46730.76300000008,
      "d": 283.6538083333362,
      "v": 115
    },
    {
      "midi": 57,
      "hit": false,
      "t": 47019.224500000084,
      "d": 283.6538083333362,
      "v": 115
    },
    {
      "midi": 62,
      "hit": false,
      "t": 47019.224500000084,
      "d": 283.6538083333362,
      "v": 118
    },
    {
      "midi": 65,
      "hit": false,
      "t": 47019.224500000084,
      "d": 283.6538083333362,
      "v": 107
    },
    {
      "midi": 38,
      "hit": false,
      "t": 47307.68600000009,
      "d": 283.6538083333362,
      "v": 103
    },
    {
      "midi": 50,
      "hit": false,
      "t": 47307.68600000009,
      "d": 283.6538083333362,
      "v": 115
    },
    {
      "midi": 57,
      "hit": false,
      "t": 47596.147500000094,
      "d": 283.6538083333362,
      "v": 103
    },
    {
      "midi": 62,
      "hit": false,
      "t": 47596.147500000094,
      "d": 283.6538083333362,
      "v": 103
    },
    {
      "midi": 65,
      "hit": false,
      "t": 47596.147500000094,
      "d": 283.6538083333362,
      "v": 97
    },
    {
      "midi": 38,
      "hit": false,
      "t": 47884.6090000001,
      "d": 283.6538083333362,
      "v": 103
    },
    {
      "midi": 50,
      "hit": false,
      "t": 47884.6090000001,
      "d": 283.6538083333362,
      "v": 103
    },
    {
      "midi": 57,
      "hit": false,
      "t": 47884.6090000001,
      "d": 283.6538083333362,
      "v": 103
    },
    {
      "midi": 62,
      "hit": false,
      "t": 47884.6090000001,
      "d": 283.6538083333362,
      "v": 103
    },
    {
      "midi": 65,
      "hit": false,
      "t": 47884.6090000001,
      "d": 283.6538083333362,
      "v": 118
    },
    {
      "midi": 57,
      "hit": false,
      "t": 48173.0705000001,
      "d": 283.6538083333362,
      "v": 93
    },
    {
      "midi": 62,
      "hit": false,
      "t": 48173.0705000001,
      "d": 283.6538083333362,
      "v": 107
    },
    {
      "midi": 65,
      "hit": false,
      "t": 48173.0705000001,
      "d": 283.6538083333362,
      "v": 115
    },
    {
      "midi": 34,
      "hit": false,
      "t": 48461.53200000011,
      "d": 283.6538083333362,
      "v": 97
    },
    {
      "midi": 46,
      "hit": false,
      "t": 48461.53200000011,
      "d": 283.6538083333362,
      "v": 103
    },
    {
      "midi": 58,
      "hit": false,
      "t": 48461.53200000011,
      "d": 283.6538083333362,
      "v": 121
    },
    {
      "midi": 62,
      "hit": false,
      "t": 48461.53200000011,
      "d": 283.6538083333362,
      "v": 115
    },
    {
      "midi": 65,
      "hit": false,
      "t": 48461.53200000011,
      "d": 283.6538083333362,
      "v": 103
    },
    {
      "midi": 34,
      "hit": false,
      "t": 49038.45500000011,
      "d": 283.6538083333362,
      "v": 103
    },
    {
      "midi": 46,
      "hit": false,
      "t": 49038.45500000011,
      "d": 283.6538083333362,
      "v": 107
    },
    {
      "midi": 58,
      "hit": false,
      "t": 49038.45500000011,
      "d": 283.6538083333362,
      "v": 103
    },
    {
      "midi": 62,
      "hit": false,
      "t": 49038.45500000011,
      "d": 283.6538083333362,
      "v": 103
    },
    {
      "midi": 65,
      "hit": false,
      "t": 49038.45500000011,
      "d": 283.6538083333362,
      "v": 115
    },
    {
      "midi": 58,
      "hit": false,
      "t": 49326.916500000116,
      "d": 283.6538083333362,
      "v": 97
    },
    {
      "midi": 62,
      "hit": false,
      "t": 49326.916500000116,
      "d": 283.6538083333362,
      "v": 103
    },
    {
      "midi": 65,
      "hit": false,
      "t": 49326.916500000116,
      "d": 283.6538083333362,
      "v": 97
    },
    {
      "midi": 34,
      "hit": false,
      "t": 49615.37800000012,
      "d": 283.6538083333362,
      "v": 107
    },
    {
      "midi": 46,
      "hit": false,
      "t": 49615.37800000012,
      "d": 283.6538083333362,
      "v": 118
    },
    {
      "midi": 58,
      "hit": false,
      "t": 49903.839500000126,
      "d": 283.6538083333362,
      "v": 103
    },
    {
      "midi": 62,
      "hit": false,
      "t": 49903.839500000126,
      "d": 283.6538083333362,
      "v": 115
    },
    {
      "midi": 65,
      "hit": false,
      "t": 49903.839500000126,
      "d": 283.6538083333362,
      "v": 115
    },
    {
      "midi": 34,
      "hit": false,
      "t": 50192.30100000013,
      "d": 283.6538083333362,
      "v": 115
    },
    {
      "midi": 46,
      "hit": false,
      "t": 50192.30100000013,
      "d": 283.6538083333362,
      "v": 107
    },
    {
      "midi": 58,
      "hit": false,
      "t": 50192.30100000013,
      "d": 283.6538083333362,
      "v": 115
    },
    {
      "midi": 62,
      "hit": false,
      "t": 50192.30100000013,
      "d": 283.6538083333362,
      "v": 103
    },
    {
      "midi": 65,
      "hit": false,
      "t": 50192.30100000013,
      "d": 283.6538083333362,
      "v": 115
    },
    {
      "midi": 58,
      "hit": false,
      "t": 50480.762500000135,
      "d": 283.6538083333362,
      "v": 93
    },
    {
      "midi": 62,
      "hit": false,
      "t": 50480.762500000135,
      "d": 283.6538083333362,
      "v": 103
    },
    {
      "midi": 65,
      "hit": false,
      "t": 50480.762500000135,
      "d": 283.6538083333362,
      "v": 103
    },
    {
      "midi": 34,
      "hit": false,
      "t": 50769.22400000014,
      "d": 283.6538083333362,
      "v": 115
    },
    {
      "midi": 46,
      "hit": false,
      "t": 50769.22400000014,
      "d": 283.6538083333362,
      "v": 121
    },
    {
      "midi": 58,
      "hit": false,
      "t": 50769.22400000014,
      "d": 283.6538083333362,
      "v": 115
    },
    {
      "midi": 62,
      "hit": false,
      "t": 50769.22400000014,
      "d": 283.6538083333362,
      "v": 107
    },
    {
      "midi": 65,
      "hit": false,
      "t": 50769.22400000014,
      "d": 283.6538083333362,
      "v": 107
    },
    {
      "midi": 34,
      "hit": false,
      "t": 51346.14700000014,
      "d": 283.6538083333362,
      "v": 115
    },
    {
      "midi": 46,
      "hit": false,
      "t": 51346.14700000014,
      "d": 283.6538083333362,
      "v": 107
    },
    {
      "midi": 58,
      "hit": false,
      "t": 51346.14700000014,
      "d": 283.6538083333362,
      "v": 115
    },
    {
      "midi": 62,
      "hit": false,
      "t": 51346.14700000014,
      "d": 283.6538083333362,
      "v": 107
    },
    {
      "midi": 65,
      "hit": false,
      "t": 51346.14700000014,
      "d": 283.6538083333362,
      "v": 107
    },
    {
      "midi": 58,
      "hit": false,
      "t": 51634.60850000015,
      "d": 283.6538083333362,
      "v": 103
    },
    {
      "midi": 62,
      "hit": false,
      "t": 51634.60850000015,
      "d": 283.6538083333362,
      "v": 97
    },
    {
      "midi": 65,
      "hit": false,
      "t": 51634.60850000015,
      "d": 283.6538083333362,
      "v": 103
    },
    {
      "midi": 34,
      "hit": false,
      "t": 51923.07000000015,
      "d": 283.6538083333362,
      "v": 115
    },
    {
      "midi": 46,
      "hit": false,
      "t": 51923.07000000015,
      "d": 283.6538083333362,
      "v": 115
    },
    {
      "midi": 58,
      "hit": false,
      "t": 51923.07000000015,
      "d": 283.6538083333362,
      "v": 115
    },
    {
      "midi": 62,
      "hit": false,
      "t": 51923.07000000015,
      "d": 283.6538083333362,
      "v": 115
    },
    {
      "midi": 65,
      "hit": false,
      "t": 51923.07000000015,
      "d": 283.6538083333362,
      "v": 107
    },
    {
      "midi": 58,
      "hit": false,
      "t": 52211.53150000016,
      "d": 283.6538083333362,
      "v": 107
    },
    {
      "midi": 62,
      "hit": false,
      "t": 52211.53150000016,
      "d": 283.6538083333362,
      "v": 103
    },
    {
      "midi": 65,
      "hit": false,
      "t": 52211.53150000016,
      "d": 283.6538083333362,
      "v": 107
    },
    {
      "midi": 34,
      "hit": false,
      "t": 52499.99300000016,
      "d": 283.6538083333362,
      "v": 118
    },
    {
      "midi": 46,
      "hit": false,
      "t": 52499.99300000016,
      "d": 283.6538083333362,
      "v": 118
    },
    {
      "midi": 58,
      "hit": false,
      "t": 52788.45450000017,
      "d": 283.6538083333362,
      "v": 97
    },
    {
      "midi": 62,
      "hit": false,
      "t": 52788.45450000017,
      "d": 283.6538083333362,
      "v": 103
    },
    {
      "midi": 65,
      "hit": false,
      "t": 52788.45450000017,
      "d": 283.6538083333362,
      "v": 103
    },
    {
      "midi": 48,
      "hit": false,
      "t": 53076.91600000017,
      "d": 283.6538083333362,
      "v": 91
    },
    {
      "midi": 60,
      "hit": false,
      "t": 53076.91600000017,
      "d": 283.6538083333362,
      "v": 118
    },
    {
      "midi": 64,
      "hit": false,
      "t": 53076.91600000017,
      "d": 283.6538083333362,
      "v": 121
    },
    {
      "midi": 67,
      "hit": false,
      "t": 53076.91600000017,
      "d": 283.6538083333362,
      "v": 115
    },
    {
      "midi": 36,
      "hit": false,
      "t": 53076.91600000017,
      "d": 576.9230000000025,
      "v": 97
    },
    {
      "midi": 36,
      "hit": false,
      "t": 53653.839000000175,
      "d": 283.6538083333362,
      "v": 107
    },
    {
      "midi": 48,
      "hit": false,
      "t": 53653.839000000175,
      "d": 283.6538083333362,
      "v": 97
    },
    {
      "midi": 60,
      "hit": false,
      "t": 53653.839000000175,
      "d": 283.6538083333362,
      "v": 121
    },
    {
      "midi": 64,
      "hit": false,
      "t": 53653.839000000175,
      "d": 283.6538083333362,
      "v": 118
    },
    {
      "midi": 67,
      "hit": false,
      "t": 53653.839000000175,
      "d": 283.6538083333362,
      "v": 107
    },
    {
      "midi": 60,
      "hit": false,
      "t": 53942.30050000018,
      "d": 283.6538083333362,
      "v": 115
    },
    {
      "midi": 64,
      "hit": false,
      "t": 53942.30050000018,
      "d": 283.6538083333362,
      "v": 118
    },
    {
      "midi": 67,
      "hit": false,
      "t": 53942.30050000018,
      "d": 283.6538083333362,
      "v": 107
    },
    {
      "midi": 36,
      "hit": false,
      "t": 54230.762000000184,
      "d": 283.6538083333362,
      "v": 107
    },
    {
      "midi": 48,
      "hit": false,
      "t": 54230.762000000184,
      "d": 283.6538083333362,
      "v": 103
    },
    {
      "midi": 60,
      "hit": false,
      "t": 54519.22350000019,
      "d": 283.6538083333362,
      "v": 118
    },
    {
      "midi": 64,
      "hit": false,
      "t": 54519.22350000019,
      "d": 283.6538083333362,
      "v": 121
    },
    {
      "midi": 67,
      "hit": false,
      "t": 54519.22350000019,
      "d": 283.6538083333362,
      "v": 115
    },
    {
      "midi": 36,
      "hit": false,
      "t": 54807.685000000194,
      "d": 283.6538083333362,
      "v": 118
    },
    {
      "midi": 48,
      "hit": false,
      "t": 54807.685000000194,
      "d": 283.6538083333362,
      "v": 115
    },
    {
      "midi": 60,
      "hit": false,
      "t": 54807.685000000194,
      "d": 283.6538083333362,
      "v": 121
    },
    {
      "midi": 64,
      "hit": false,
      "t": 54807.685000000194,
      "d": 283.6538083333362,
      "v": 121
    },
    {
      "midi": 67,
      "hit": false,
      "t": 54807.685000000194,
      "d": 283.6538083333362,
      "v": 118
    },
    {
      "midi": 48,
      "hit": false,
      "t": 55384.6080000002,
      "d": 283.6538083333362,
      "v": 91
    },
    {
      "midi": 60,
      "hit": false,
      "t": 55384.6080000002,
      "d": 283.6538083333362,
      "v": 118
    },
    {
      "midi": 64,
      "hit": false,
      "t": 55384.6080000002,
      "d": 283.6538083333362,
      "v": 121
    },
    {
      "midi": 67,
      "hit": false,
      "t": 55384.6080000002,
      "d": 283.6538083333362,
      "v": 115
    },
    {
      "midi": 36,
      "hit": false,
      "t": 55384.6080000002,
      "d": 576.9230000000025,
      "v": 97
    },
    {
      "midi": 36,
      "hit": false,
      "t": 55961.5310000002,
      "d": 283.6538083333362,
      "v": 107
    },
    {
      "midi": 48,
      "hit": false,
      "t": 55961.5310000002,
      "d": 283.6538083333362,
      "v": 97
    },
    {
      "midi": 60,
      "hit": false,
      "t": 55961.5310000002,
      "d": 283.6538083333362,
      "v": 121
    },
    {
      "midi": 64,
      "hit": false,
      "t": 55961.5310000002,
      "d": 283.6538083333362,
      "v": 118
    },
    {
      "midi": 67,
      "hit": false,
      "t": 55961.5310000002,
      "d": 283.6538083333362,
      "v": 107
    },
    {
      "midi": 60,
      "hit": false,
      "t": 56249.992500000204,
      "d": 283.6538083333362,
      "v": 115
    },
    {
      "midi": 64,
      "hit": false,
      "t": 56249.992500000204,
      "d": 283.6538083333362,
      "v": 118
    },
    {
      "midi": 67,
      "hit": false,
      "t": 56249.992500000204,
      "d": 283.6538083333362,
      "v": 107
    },
    {
      "midi": 36,
      "hit": false,
      "t": 56538.45400000021,
      "d": 283.6538083333362,
      "v": 107
    },
    {
      "midi": 48,
      "hit": false,
      "t": 56538.45400000021,
      "d": 283.6538083333362,
      "v": 103
    },
    {
      "midi": 60,
      "hit": false,
      "t": 56826.915500000214,
      "d": 283.6538083333362,
      "v": 118
    },
    {
      "midi": 64,
      "hit": false,
      "t": 56826.915500000214,
      "d": 283.6538083333362,
      "v": 121
    },
    {
      "midi": 67,
      "hit": false,
      "t": 56826.915500000214,
      "d": 283.6538083333362,
      "v": 115
    },
    {
      "midi": 36,
      "hit": false,
      "t": 57115.37700000022,
      "d": 283.6538083333362,
      "v": 118
    },
    {
      "midi": 48,
      "hit": false,
      "t": 57115.37700000022,
      "d": 283.6538083333362,
      "v": 115
    },
    {
      "midi": 60,
      "hit": false,
      "t": 57115.37700000022,
      "d": 283.6538083333362,
      "v": 121
    },
    {
      "midi": 64,
      "hit": false,
      "t": 57115.37700000022,
      "d": 283.6538083333362,
      "v": 121
    },
    {
      "midi": 67,
      "hit": false,
      "t": 57115.37700000022,
      "d": 283.6538083333362,
      "v": 118
    },
    {
      "midi": 41,
      "hit": false,
      "t": 57692.30000000022,
      "d": 283.6538083333362,
      "v": 115
    },
    {
      "midi": 53,
      "hit": false,
      "t": 57692.30000000022,
      "d": 283.6538083333362,
      "v": 107
    },
    {
      "midi": 57,
      "hit": false,
      "t": 57692.30000000022,
      "d": 283.6538083333362,
      "v": 118
    },
    {
      "midi": 60,
      "hit": false,
      "t": 57692.30000000022,
      "d": 283.6538083333362,
      "v": 118
    },
    {
      "midi": 65,
      "hit": false,
      "t": 57692.30000000022,
      "d": 283.6538083333362,
      "v": 118
    },
    {
      "midi": 41,
      "hit": false,
      "t": 58269.223000000224,
      "d": 283.6538083333362,
      "v": 107
    },
    {
      "midi": 53,
      "hit": false,
      "t": 58269.223000000224,
      "d": 283.6538083333362,
      "v": 97
    },
    {
      "midi": 57,
      "hit": false,
      "t": 58269.223000000224,
      "d": 283.6538083333362,
      "v": 118
    },
    {
      "midi": 60,
      "hit": false,
      "t": 58269.223000000224,
      "d": 283.6538083333362,
      "v": 122
    },
    {
      "midi": 65,
      "hit": false,
      "t": 58269.223000000224,
      "d": 283.6538083333362,
      "v": 118
    },
    {
      "midi": 41,
      "hit": false,
      "t": 58846.146000000226,
      "d": 283.6538083333362,
      "v": 118
    },
    {
      "midi": 53,
      "hit": false,
      "t": 58846.146000000226,
      "d": 283.6538083333362,
      "v": 118
    },
    {
      "midi": 57,
      "hit": false,
      "t": 58846.146000000226,
      "d": 283.6538083333362,
      "v": 121
    },
    {
      "midi": 60,
      "hit": false,
      "t": 58846.146000000226,
      "d": 283.6538083333362,
      "v": 121
    },
    {
      "midi": 65,
      "hit": false,
      "t": 58846.146000000226,
      "d": 283.6538083333362,
      "v": 121
    },
    {
      "midi": 41,
      "hit": false,
      "t": 59423.06900000023,
      "d": 283.6538083333362,
      "v": 87
    },
    {
      "midi": 53,
      "hit": false,
      "t": 59423.06900000023,
      "d": 283.6538083333362,
      "v": 93
    },
    {
      "midi": 57,
      "hit": false,
      "t": 59423.06900000023,
      "d": 283.6538083333362,
      "v": 121
    },
    {
      "midi": 60,
      "hit": false,
      "t": 59423.06900000023,
      "d": 283.6538083333362,
      "v": 121
    },
    {
      "midi": 63,
      "hit": false,
      "t": 59423.06900000023,
      "d": 283.6538083333362,
      "v": 103
    },
    {
      "midi": 65,
      "hit": false,
      "t": 59423.06900000023,
      "d": 283.6538083333362,
      "v": 115
    },
    {
      "midi": 57,
      "hit": false,
      "t": 59711.53050000023,
      "d": 283.6538083333362,
      "v": 97
    },
    {
      "midi": 60,
      "hit": false,
      "t": 59711.53050000023,
      "d": 283.6538083333362,
      "v": 97
    },
    {
      "midi": 65,
      "hit": false,
      "t": 59711.53050000023,
      "d": 283.6538083333362,
      "v": 115
    },
    {
      "midi": 38,
      "hit": false,
      "t": 59999.99200000024,
      "d": 283.6538083333362,
      "v": 107
    },
    {
      "midi": 50,
      "hit": false,
      "t": 59999.99200000024,
      "d": 283.6538083333362,
      "v": 103
    },
    {
      "midi": 57,
      "hit": false,
      "t": 59999.99200000024,
      "d": 283.6538083333362,
      "v": 121
    },
    {
      "midi": 62,
      "hit": false,
      "t": 59999.99200000024,
      "d": 283.6538083333362,
      "v": 121
    },
    {
      "midi": 65,
      "hit": false,
      "t": 59999.99200000024,
      "d": 283.6538083333362,
      "v": 118
    },
    {
      "midi": 57,
      "hit": false,
      "t": 60288.45350000024,
      "d": 283.6538083333362,
      "v": 91
    },
    {
      "midi": 62,
      "hit": false,
      "t": 60288.45350000024,
      "d": 283.6538083333362,
      "v": 107
    },
    {
      "midi": 65,
      "hit": false,
      "t": 60288.45350000024,
      "d": 283.6538083333362,
      "v": 103
    },
    {
      "midi": 38,
      "hit": false,
      "t": 60576.91500000025,
      "d": 283.6538083333362,
      "v": 118
    },
    {
      "midi": 50,
      "hit": false,
      "t": 60576.91500000025,
      "d": 283.6538083333362,
      "v": 121
    },
    {
      "midi": 57,
      "hit": false,
      "t": 60576.91500000025,
      "d": 283.6538083333362,
      "v": 121
    },
    {
      "midi": 62,
      "hit": false,
      "t": 60576.91500000025,
      "d": 283.6538083333362,
      "v": 122
    },
    {
      "midi": 65,
      "hit": false,
      "t": 60576.91500000025,
      "d": 283.6538083333362,
      "v": 118
    },
    {
      "midi": 57,
      "hit": false,
      "t": 60865.37650000025,
      "d": 283.6538083333362,
      "v": 118
    },
    {
      "midi": 62,
      "hit": false,
      "t": 60865.37650000025,
      "d": 283.6538083333362,
      "v": 121
    },
    {
      "midi": 65,
      "hit": false,
      "t": 60865.37650000025,
      "d": 283.6538083333362,
      "v": 118
    },
    {
      "midi": 38,
      "hit": false,
      "t": 61153.83800000026,
      "d": 283.6538083333362,
      "v": 118
    },
    {
      "midi": 50,
      "hit": false,
      "t": 61153.83800000026,
      "d": 283.6538083333362,
      "v": 118
    },
    {
      "midi": 57,
      "hit": false,
      "t": 61442.29950000026,
      "d": 283.6538083333362,
      "v": 115
    },
    {
      "midi": 62,
      "hit": false,
      "t": 61442.29950000026,
      "d": 283.6538083333362,
      "v": 115
    },
    {
      "midi": 65,
      "hit": false,
      "t": 61442.29950000026,
      "d": 283.6538083333362,
      "v": 107
    },
    {
      "midi": 38,
      "hit": false,
      "t": 61730.76100000027,
      "d": 283.6538083333362,
      "v": 118
    },
    {
      "midi": 50,
      "hit": false,
      "t": 61730.76100000027,
      "d": 283.6538083333362,
      "v": 118
    },
    {
      "midi": 57,
      "hit": false,
      "t": 61730.76100000027,
      "d": 283.6538083333362,
      "v": 103
    },
    {
      "midi": 62,
      "hit": false,
      "t": 61730.76100000027,
      "d": 283.6538083333362,
      "v": 115
    },
    {
      "midi": 65,
      "hit": false,
      "t": 61730.76100000027,
      "d": 283.6538083333362,
      "v": 107
    },
    {
      "midi": 57,
      "hit": false,
      "t": 62019.22250000027,
      "d": 283.6538083333362,
      "v": 97
    },
    {
      "midi": 62,
      "hit": false,
      "t": 62019.22250000027,
      "d": 283.6538083333362,
      "v": 97
    },
    {
      "midi": 65,
      "hit": false,
      "t": 62019.22250000027,
      "d": 283.6538083333362,
      "v": 107
    },
    {
      "midi": 34,
      "hit": false,
      "t": 62307.68400000028,
      "d": 283.6538083333362,
      "v": 107
    },
    {
      "midi": 46,
      "hit": false,
      "t": 62307.68400000028,
      "d": 283.6538083333362,
      "v": 97
    },
    {
      "midi": 58,
      "hit": false,
      "t": 62307.68400000028,
      "d": 283.6538083333362,
      "v": 122
    },
    {
      "midi": 62,
      "hit": false,
      "t": 62307.68400000028,
      "d": 283.6538083333362,
      "v": 115
    },
    {
      "midi": 65,
      "hit": false,
      "t": 62307.68400000028,
      "d": 283.6538083333362,
      "v": 118
    },
    {
      "midi": 34,
      "hit": false,
      "t": 62884.60700000028,
      "d": 283.6538083333362,
      "v": 107
    },
    {
      "midi": 46,
      "hit": false,
      "t": 62884.60700000028,
      "d": 283.6538083333362,
      "v": 103
    },
    {
      "midi": 58,
      "hit": false,
      "t": 62884.60700000028,
      "d": 283.6538083333362,
      "v": 107
    },
    {
      "midi": 62,
      "hit": false,
      "t": 62884.60700000028,
      "d": 283.6538083333362,
      "v": 107
    },
    {
      "midi": 65,
      "hit": false,
      "t": 62884.60700000028,
      "d": 283.6538083333362,
      "v": 103
    },
    {
      "midi": 58,
      "hit": false,
      "t": 63173.068500000285,
      "d": 283.6538083333362,
      "v": 107
    },
    {
      "midi": 62,
      "hit": false,
      "t": 63173.068500000285,
      "d": 283.6538083333362,
      "v": 103
    },
    {
      "midi": 65,
      "hit": false,
      "t": 63173.068500000285,
      "d": 283.6538083333362,
      "v": 103
    },
    {
      "midi": 34,
      "hit": false,
      "t": 63461.53000000029,
      "d": 283.6538083333362,
      "v": 118
    },
    {
      "midi": 46,
      "hit": false,
      "t": 63461.53000000029,
      "d": 283.6538083333362,
      "v": 121
    },
    {
      "midi": 58,
      "hit": false,
      "t": 63749.991500000295,
      "d": 283.6538083333362,
      "v": 97
    },
    {
      "midi": 62,
      "hit": false,
      "t": 63749.991500000295,
      "d": 283.6538083333362,
      "v": 107
    },
    {
      "midi": 65,
      "hit": false,
      "t": 63749.991500000295,
      "d": 283.6538083333362,
      "v": 93
    },
    {
      "midi": 34,
      "hit": false,
      "t": 64038.4530000003,
      "d": 283.6538083333362,
      "v": 115
    },
    {
      "midi": 46,
      "hit": false,
      "t": 64038.4530000003,
      "d": 283.6538083333362,
      "v": 115
    },
    {
      "midi": 58,
      "hit": false,
      "t": 64038.4530000003,
      "d": 283.6538083333362,
      "v": 103
    },
    {
      "midi": 62,
      "hit": false,
      "t": 64038.4530000003,
      "d": 283.6538083333362,
      "v": 107
    },
    {
      "midi": 65,
      "hit": false,
      "t": 64038.4530000003,
      "d": 283.6538083333362,
      "v": 103
    },
    {
      "midi": 58,
      "hit": false,
      "t": 64326.914500000305,
      "d": 283.6538083333362,
      "v": 93
    },
    {
      "midi": 62,
      "hit": false,
      "t": 64326.914500000305,
      "d": 283.6538083333362,
      "v": 97
    },
    {
      "midi": 65,
      "hit": false,
      "t": 64326.914500000305,
      "d": 283.6538083333362,
      "v": 91
    },
    {
      "midi": 36,
      "hit": false,
      "t": 64615.37600000031,
      "d": 283.6538083333362,
      "v": 97
    },
    {
      "midi": 48,
      "hit": false,
      "t": 64615.37600000031,
      "d": 283.6538083333362,
      "v": 83
    },
    {
      "midi": 60,
      "hit": false,
      "t": 64615.37600000031,
      "d": 283.6538083333362,
      "v": 115
    },
    {
      "midi": 64,
      "hit": false,
      "t": 64615.37600000031,
      "d": 283.6538083333362,
      "v": 118
    },
    {
      "midi": 67,
      "hit": false,
      "t": 64615.37600000031,
      "d": 283.6538083333362,
      "v": 115
    },
    {
      "midi": 36,
      "hit": false,
      "t": 65192.29900000031,
      "d": 283.6538083333362,
      "v": 97
    },
    {
      "midi": 48,
      "hit": false,
      "t": 65192.29900000031,
      "d": 283.6538083333362,
      "v": 83
    },
    {
      "midi": 60,
      "hit": false,
      "t": 65192.29900000031,
      "d": 283.6538083333362,
      "v": 115
    },
    {
      "midi": 64,
      "hit": false,
      "t": 65192.29900000031,
      "d": 283.6538083333362,
      "v": 107
    },
    {
      "midi": 67,
      "hit": false,
      "t": 65192.29900000031,
      "d": 283.6538083333362,
      "v": 97
    },
    {
      "midi": 60,
      "hit": false,
      "t": 65480.76050000032,
      "d": 283.6538083333362,
      "v": 107
    },
    {
      "midi": 64,
      "hit": false,
      "t": 65480.76050000032,
      "d": 283.6538083333362,
      "v": 103
    },
    {
      "midi": 67,
      "hit": false,
      "t": 65480.76050000032,
      "d": 283.6538083333362,
      "v": 103
    },
    {
      "midi": 36,
      "hit": false,
      "t": 65769.22200000031,
      "d": 283.6538083333289,
      "v": 107
    },
    {
      "midi": 48,
      "hit": false,
      "t": 65769.22200000031,
      "d": 283.6538083333289,
      "v": 103
    },
    {
      "midi": 60,
      "hit": false,
      "t": 66057.6835000003,
      "d": 283.6538083333289,
      "v": 103
    },
    {
      "midi": 64,
      "hit": false,
      "t": 66057.6835000003,
      "d": 283.6538083333289,
      "v": 103
    },
    {
      "midi": 67,
      "hit": false,
      "t": 66057.6835000003,
      "d": 283.6538083333289,
      "v": 97
    },
    {
      "midi": 36,
      "hit": false,
      "t": 66346.1450000003,
      "d": 283.6538083333289,
      "v": 103
    },
    {
      "midi": 48,
      "hit": false,
      "t": 66346.1450000003,
      "d": 283.6538083333289,
      "v": 93
    },
    {
      "midi": 60,
      "hit": false,
      "t": 66346.1450000003,
      "d": 283.6538083333289,
      "v": 115
    },
    {
      "midi": 64,
      "hit": false,
      "t": 66346.1450000003,
      "d": 283.6538083333289,
      "v": 115
    },
    {
      "midi": 67,
      "hit": false,
      "t": 66346.1450000003,
      "d": 283.6538083333289,
      "v": 115
    },
    {
      "midi": 60,
      "hit": false,
      "t": 66634.60650000029,
      "d": 283.6538083333289,
      "v": 97
    },
    {
      "midi": 64,
      "hit": false,
      "t": 66634.60650000029,
      "d": 283.6538083333289,
      "v": 97
    },
    {
      "midi": 67,
      "hit": false,
      "t": 66634.60650000029,
      "d": 283.6538083333289,
      "v": 107
    },
    {
      "midi": 41,
      "hit": false,
      "t": 66923.06800000028,
      "d": 283.6538083333289,
      "v": 93
    },
    {
      "midi": 53,
      "hit": false,
      "t": 66923.06800000028,
      "d": 283.6538083333289,
      "v": 75
    },
    {
      "midi": 57,
      "hit": false,
      "t": 66923.06800000028,
      "d": 283.6538083333289,
      "v": 115
    },
    {
      "midi": 60,
      "hit": false,
      "t": 66923.06800000028,
      "d": 283.6538083333289,
      "v": 118
    },
    {
      "midi": 65,
      "hit": false,
      "t": 66923.06800000028,
      "d": 283.6538083333289,
      "v": 107
    },
    {
      "midi": 41,
      "hit": false,
      "t": 67499.99100000027,
      "d": 283.6538083333289,
      "v": 107
    },
    {
      "midi": 53,
      "hit": false,
      "t": 67499.99100000027,
      "d": 283.6538083333289,
      "v": 103
    },
    {
      "midi": 57,
      "hit": false,
      "t": 67499.99100000027,
      "d": 283.6538083333289,
      "v": 103
    },
    {
      "midi": 60,
      "hit": false,
      "t": 67499.99100000027,
      "d": 283.6538083333289,
      "v": 118
    },
    {
      "midi": 65,
      "hit": false,
      "t": 67499.99100000027,
      "d": 283.6538083333289,
      "v": 103
    },
    {
      "midi": 57,
      "hit": false,
      "t": 67788.45250000026,
      "d": 283.6538083333289,
      "v": 118
    },
    {
      "midi": 60,
      "hit": false,
      "t": 67788.45250000026,
      "d": 283.6538083333289,
      "v": 122
    },
    {
      "midi": 65,
      "hit": false,
      "t": 67788.45250000026,
      "d": 283.6538083333289,
      "v": 118
    },
    {
      "midi": 41,
      "hit": false,
      "t": 68076.91400000025,
      "d": 283.6538083333289,
      "v": 115
    },
    {
      "midi": 53,
      "hit": false,
      "t": 68076.91400000025,
      "d": 283.6538083333289,
      "v": 115
    },
    {
      "midi": 57,
      "hit": false,
      "t": 68365.37550000024,
      "d": 283.6538083333289,
      "v": 115
    },
    {
      "midi": 60,
      "hit": false,
      "t": 68365.37550000024,
      "d": 283.6538083333289,
      "v": 118
    },
    {
      "midi": 65,
      "hit": false,
      "t": 68365.37550000024,
      "d": 283.6538083333289,
      "v": 107
    },
    {
      "midi": 41,
      "hit": false,
      "t": 68653.83700000023,
      "d": 283.6538083333289,
      "v": 107
    },
    {
      "midi": 53,
      "hit": false,
      "t": 68653.83700000023,
      "d": 283.6538083333289,
      "v": 103
    },
    {
      "midi": 57,
      "hit": false,
      "t": 68653.83700000023,
      "d": 283.6538083333289,
      "v": 118
    },
    {
      "midi": 60,
      "hit": false,
      "t": 68653.83700000023,
      "d": 283.6538083333289,
      "v": 121
    },
    {
      "midi": 65,
      "hit": false,
      "t": 68653.83700000023,
      "d": 283.6538083333289,
      "v": 115
    },
    {
      "midi": 57,
      "hit": false,
      "t": 68942.29850000022,
      "d": 283.6538083333289,
      "v": 97
    },
    {
      "midi": 60,
      "hit": false,
      "t": 68942.29850000022,
      "d": 283.6538083333289,
      "v": 97
    },
    {
      "midi": 65,
      "hit": false,
      "t": 68942.29850000022,
      "d": 283.6538083333289,
      "v": 103
    },
    {
      "midi": 38,
      "hit": false,
      "t": 69230.76000000021,
      "d": 283.6538083333289,
      "v": 91
    },
    {
      "midi": 50,
      "hit": false,
      "t": 69230.76000000021,
      "d": 283.6538083333289,
      "v": 91
    },
    {
      "midi": 57,
      "hit": false,
      "t": 69230.76000000021,
      "d": 283.6538083333289,
      "v": 115
    },
    {
      "midi": 62,
      "hit": false,
      "t": 69230.76000000021,
      "d": 283.6538083333289,
      "v": 118
    },
    {
      "midi": 65,
      "hit": false,
      "t": 69230.76000000021,
      "d": 283.6538083333289,
      "v": 118
    },
    {
      "midi": 38,
      "hit": false,
      "t": 69807.68300000021,
      "d": 283.6538083333289,
      "v": 103
    },
    {
      "midi": 50,
      "hit": false,
      "t": 69807.68300000021,
      "d": 283.6538083333289,
      "v": 97
    },
    {
      "midi": 57,
      "hit": false,
      "t": 69807.68300000021,
      "d": 283.6538083333289,
      "v": 115
    },
    {
      "midi": 62,
      "hit": false,
      "t": 69807.68300000021,
      "d": 283.6538083333289,
      "v": 115
    },
    {
      "midi": 65,
      "hit": false,
      "t": 69807.68300000021,
      "d": 283.6538083333289,
      "v": 93
    },
    {
      "midi": 57,
      "hit": false,
      "t": 70096.1445000002,
      "d": 283.6538083333289,
      "v": 115
    },
    {
      "midi": 62,
      "hit": false,
      "t": 70096.1445000002,
      "d": 283.6538083333289,
      "v": 118
    },
    {
      "midi": 65,
      "hit": false,
      "t": 70096.1445000002,
      "d": 283.6538083333289,
      "v": 107
    },
    {
      "midi": 38,
      "hit": false,
      "t": 70384.60600000019,
      "d": 283.6538083333289,
      "v": 103
    },
    {
      "midi": 50,
      "hit": false,
      "t": 70384.60600000019,
      "d": 283.6538083333289,
      "v": 107
    },
    {
      "midi": 57,
      "hit": false,
      "t": 70673.06750000018,
      "d": 283.6538083333289,
      "v": 107
    },
    {
      "midi": 62,
      "hit": false,
      "t": 70673.06750000018,
      "d": 283.6538083333289,
      "v": 121
    },
    {
      "midi": 65,
      "hit": false,
      "t": 70673.06750000018,
      "d": 283.6538083333289,
      "v": 107
    },
    {
      "midi": 38,
      "hit": false,
      "t": 70961.52900000017,
      "d": 283.6538083333289,
      "v": 93
    },
    {
      "midi": 50,
      "hit": false,
      "t": 70961.52900000017,
      "d": 283.6538083333289,
      "v": 115
    },
    {
      "midi": 57,
      "hit": false,
      "t": 70961.52900000017,
      "d": 283.6538083333289,
      "v": 107
    },
    {
      "midi": 62,
      "hit": false,
      "t": 70961.52900000017,
      "d": 283.6538083333289,
      "v": 118
    },
    {
      "midi": 65,
      "hit": false,
      "t": 70961.52900000017,
      "d": 283.6538083333289,
      "v": 103
    },
    {
      "midi": 57,
      "hit": false,
      "t": 71249.99050000016,
      "d": 283.6538083333289,
      "v": 87
    },
    {
      "midi": 62,
      "hit": false,
      "t": 71249.99050000016,
      "d": 283.6538083333289,
      "v": 103
    },
    {
      "midi": 65,
      "hit": false,
      "t": 71249.99050000016,
      "d": 283.6538083333289,
      "v": 107
    },
    {
      "midi": 34,
      "hit": false,
      "t": 71538.45200000015,
      "d": 283.6538083333289,
      "v": 93
    },
    {
      "midi": 46,
      "hit": false,
      "t": 71538.45200000015,
      "d": 283.6538083333289,
      "v": 97
    },
    {
      "midi": 58,
      "hit": false,
      "t": 71538.45200000015,
      "d": 283.6538083333289,
      "v": 122
    },
    {
      "midi": 62,
      "hit": false,
      "t": 71538.45200000015,
      "d": 283.6538083333289,
      "v": 107
    },
    {
      "midi": 65,
      "hit": false,
      "t": 71538.45200000015,
      "d": 283.6538083333289,
      "v": 107
    },
    {
      "midi": 34,
      "hit": false,
      "t": 72115.37500000015,
      "d": 283.6538083333289,
      "v": 97
    },
    {
      "midi": 46,
      "hit": false,
      "t": 72115.37500000015,
      "d": 283.6538083333289,
      "v": 93
    },
    {
      "midi": 58,
      "hit": false,
      "t": 72115.37500000015,
      "d": 283.6538083333289,
      "v": 107
    },
    {
      "midi": 62,
      "hit": false,
      "t": 72115.37500000015,
      "d": 283.6538083333289,
      "v": 103
    },
    {
      "midi": 65,
      "hit": false,
      "t": 72115.37500000015,
      "d": 283.6538083333289,
      "v": 107
    },
    {
      "midi": 58,
      "hit": false,
      "t": 72403.83650000014,
      "d": 283.6538083333289,
      "v": 107
    },
    {
      "midi": 62,
      "hit": false,
      "t": 72403.83650000014,
      "d": 283.6538083333289,
      "v": 107
    },
    {
      "midi": 65,
      "hit": false,
      "t": 72403.83650000014,
      "d": 283.6538083333289,
      "v": 107
    },
    {
      "midi": 34,
      "hit": false,
      "t": 72692.29800000013,
      "d": 283.6538083333289,
      "v": 118
    },
    {
      "midi": 46,
      "hit": false,
      "t": 72692.29800000013,
      "d": 283.6538083333289,
      "v": 118
    },
    {
      "midi": 58,
      "hit": false,
      "t": 72980.75950000012,
      "d": 283.6538083333289,
      "v": 115
    },
    {
      "midi": 62,
      "hit": false,
      "t": 72980.75950000012,
      "d": 283.6538083333289,
      "v": 107
    },
    {
      "midi": 65,
      "hit": false,
      "t": 72980.75950000012,
      "d": 283.6538083333289,
      "v": 115
    },
    {
      "midi": 34,
      "hit": false,
      "t": 73269.2210000001,
      "d": 283.6538083333289,
      "v": 107
    },
    {
      "midi": 46,
      "hit": false,
      "t": 73269.2210000001,
      "d": 283.6538083333289,
      "v": 107
    },
    {
      "midi": 58,
      "hit": false,
      "t": 73269.2210000001,
      "d": 283.6538083333289,
      "v": 103
    },
    {
      "midi": 62,
      "hit": false,
      "t": 73269.2210000001,
      "d": 283.6538083333289,
      "v": 107
    },
    {
      "midi": 65,
      "hit": false,
      "t": 73269.2210000001,
      "d": 283.6538083333289,
      "v": 107
    },
    {
      "midi": 58,
      "hit": false,
      "t": 73557.6825000001,
      "d": 283.6538083333289,
      "v": 91
    },
    {
      "midi": 62,
      "hit": false,
      "t": 73557.6825000001,
      "d": 283.6538083333289,
      "v": 97
    },
    {
      "midi": 65,
      "hit": false,
      "t": 73557.6825000001,
      "d": 283.6538083333289,
      "v": 103
    },
    {
      "midi": 36,
      "hit": false,
      "t": 73846.14400000009,
      "d": 283.6538083333289,
      "v": 93
    },
    {
      "midi": 48,
      "hit": false,
      "t": 73846.14400000009,
      "d": 283.6538083333289,
      "v": 77
    },
    {
      "midi": 60,
      "hit": false,
      "t": 73846.14400000009,
      "d": 283.6538083333289,
      "v": 118
    },
    {
      "midi": 64,
      "hit": false,
      "t": 73846.14400000009,
      "d": 283.6538083333289,
      "v": 118
    },
    {
      "midi": 67,
      "hit": false,
      "t": 73846.14400000009,
      "d": 283.6538083333289,
      "v": 103
    },
    {
      "midi": 36,
      "hit": false,
      "t": 74423.06700000008,
      "d": 283.6538083333289,
      "v": 93
    },
    {
      "midi": 48,
      "hit": false,
      "t": 74423.06700000008,
      "d": 283.6538083333289,
      "v": 97
    },
    {
      "midi": 60,
      "hit": false,
      "t": 74423.06700000008,
      "d": 283.6538083333289,
      "v": 107
    },
    {
      "midi": 64,
      "hit": false,
      "t": 74423.06700000008,
      "d": 283.6538083333289,
      "v": 103
    },
    {
      "midi": 67,
      "hit": false,
      "t": 74423.06700000008,
      "d": 283.6538083333289,
      "v": 103
    },
    {
      "midi": 60,
      "hit": false,
      "t": 74711.52850000007,
      "d": 283.6538083333289,
      "v": 118
    },
    {
      "midi": 64,
      "hit": false,
      "t": 74711.52850000007,
      "d": 283.6538083333289,
      "v": 115
    },
    {
      "midi": 67,
      "hit": false,
      "t": 74711.52850000007,
      "d": 283.6538083333289,
      "v": 103
    },
    {
      "midi": 36,
      "hit": false,
      "t": 74999.99000000006,
      "d": 283.6538083333289,
      "v": 115
    },
    {
      "midi": 48,
      "hit": false,
      "t": 74999.99000000006,
      "d": 283.6538083333289,
      "v": 115
    },
    {
      "midi": 60,
      "hit": false,
      "t": 75288.45150000005,
      "d": 283.6538083333289,
      "v": 121
    },
    {
      "midi": 64,
      "hit": false,
      "t": 75288.45150000005,
      "d": 283.6538083333289,
      "v": 118
    },
    {
      "midi": 67,
      "hit": false,
      "t": 75288.45150000005,
      "d": 283.6538083333289,
      "v": 115
    },
    {
      "midi": 36,
      "hit": false,
      "t": 75576.91300000004,
      "d": 283.6538083333289,
      "v": 107
    },
    {
      "midi": 48,
      "hit": false,
      "t": 75576.91300000004,
      "d": 283.6538083333289,
      "v": 103
    },
    {
      "midi": 60,
      "hit": false,
      "t": 75576.91300000004,
      "d": 283.6538083333289,
      "v": 118
    },
    {
      "midi": 64,
      "hit": false,
      "t": 75576.91300000004,
      "d": 283.6538083333289,
      "v": 115
    },
    {
      "midi": 67,
      "hit": false,
      "t": 75576.91300000004,
      "d": 283.6538083333289,
      "v": 107
    },
    {
      "midi": 60,
      "hit": false,
      "t": 75865.37450000003,
      "d": 283.6538083333289,
      "v": 115
    },
    {
      "midi": 64,
      "hit": false,
      "t": 75865.37450000003,
      "d": 283.6538083333289,
      "v": 107
    },
    {
      "midi": 67,
      "hit": false,
      "t": 75865.37450000003,
      "d": 283.6538083333289,
      "v": 103
    },
    {
      "midi": 41,
      "hit": false,
      "t": 76153.83600000002,
      "d": 283.6538083333289,
      "v": 115
    },
    {
      "midi": 53,
      "hit": false,
      "t": 76153.83600000002,
      "d": 283.6538083333289,
      "v": 107
    },
    {
      "midi": 57,
      "hit": false,
      "t": 76153.83600000002,
      "d": 283.6538083333289,
      "v": 121
    },
    {
      "midi": 60,
      "hit": false,
      "t": 76153.83600000002,
      "d": 576.9229999999952,
      "v": 121
    },
    {
      "midi": 65,
      "hit": false,
      "t": 76153.83600000002,
      "d": 576.9229999999952,
      "v": 121
    },
    {
      "midi": 41,
      "hit": false,
      "t": 76730.75900000002,
      "d": 283.6538083333289,
      "v": 107
    },
    {
      "midi": 53,
      "hit": false,
      "t": 76730.75900000002,
      "d": 283.6538083333289,
      "v": 107
    },
    {
      "midi": 57,
      "hit": false,
      "t": 76730.75900000002,
      "d": 283.6538083333289,
      "v": 121
    },
    {
      "midi": 60,
      "hit": false,
      "t": 76730.75900000002,
      "d": 283.6538083333289,
      "v": 118
    },
    {
      "midi": 65,
      "hit": false,
      "t": 76730.75900000002,
      "d": 283.6538083333289,
      "v": 107
    },
    {
      "midi": 57,
      "hit": false,
      "t": 77019.22050000001,
      "d": 283.6538083333289,
      "v": 115
    },
    {
      "midi": 60,
      "hit": false,
      "t": 77019.22050000001,
      "d": 283.6538083333289,
      "v": 115
    },
    {
      "midi": 65,
      "hit": false,
      "t": 77019.22050000001,
      "d": 283.6538083333289,
      "v": 107
    },
    {
      "midi": 41,
      "hit": false,
      "t": 77307.682,
      "d": 283.6538083333289,
      "v": 118
    },
    {
      "midi": 53,
      "hit": false,
      "t": 77307.682,
      "d": 283.6538083333289,
      "v": 121
    },
    {
      "midi": 57,
      "hit": false,
      "t": 77596.14349999999,
      "d": 283.6538083333289,
      "v": 118
    },
    {
      "midi": 60,
      "hit": false,
      "t": 77596.14349999999,
      "d": 283.6538083333289,
      "v": 121
    },
    {
      "midi": 65,
      "hit": false,
      "t": 77596.14349999999,
      "d": 283.6538083333289,
      "v": 118
    },
    {
      "midi": 41,
      "hit": false,
      "t": 77884.60499999998,
      "d": 283.6538083333289,
      "v": 115
    },
    {
      "midi": 53,
      "hit": false,
      "t": 77884.60499999998,
      "d": 283.6538083333289,
      "v": 97
    },
    {
      "midi": 57,
      "hit": false,
      "t": 77884.60499999998,
      "d": 283.6538083333289,
      "v": 118
    },
    {
      "midi": 60,
      "hit": false,
      "t": 77884.60499999998,
      "d": 283.6538083333289,
      "v": 121
    },
    {
      "midi": 65,
      "hit": false,
      "t": 77884.60499999998,
      "d": 283.6538083333289,
      "v": 118
    },
    {
      "midi": 57,
      "hit": false,
      "t": 78173.06649999997,
      "d": 283.6538083333289,
      "v": 97
    },
    {
      "midi": 60,
      "hit": false,
      "t": 78173.06649999997,
      "d": 283.6538083333289,
      "v": 103
    },
    {
      "midi": 65,
      "hit": false,
      "t": 78173.06649999997,
      "d": 283.6538083333289,
      "v": 97
    },
    {
      "midi": 41,
      "hit": false,
      "t": 78461.52799999996,
      "d": 283.6538083333289,
      "v": 118
    },
    {
      "midi": 53,
      "hit": false,
      "t": 78461.52799999996,
      "d": 283.6538083333289,
      "v": 115
    },
    {
      "midi": 57,
      "hit": false,
      "t": 78461.52799999996,
      "d": 283.6538083333289,
      "v": 118
    },
    {
      "midi": 60,
      "hit": false,
      "t": 78461.52799999996,
      "d": 283.6538083333289,
      "v": 121
    },
    {
      "midi": 65,
      "hit": false,
      "t": 78461.52799999996,
      "d": 283.6538083333289,
      "v": 121
    },
    {
      "midi": 41,
      "hit": false,
      "t": 79038.45099999996,
      "d": 283.6538083333289,
      "v": 118
    },
    {
      "midi": 53,
      "hit": false,
      "t": 79038.45099999996,
      "d": 283.6538083333289,
      "v": 115
    },
    {
      "midi": 57,
      "hit": false,
      "t": 79038.45099999996,
      "d": 283.6538083333289,
      "v": 115
    },
    {
      "midi": 60,
      "hit": false,
      "t": 79038.45099999996,
      "d": 283.6538083333289,
      "v": 118
    },
    {
      "midi": 65,
      "hit": false,
      "t": 79038.45099999996,
      "d": 283.6538083333289,
      "v": 115
    },
    {
      "midi": 57,
      "hit": false,
      "t": 79326.91249999995,
      "d": 283.6538083333289,
      "v": 107
    },
    {
      "midi": 60,
      "hit": false,
      "t": 79326.91249999995,
      "d": 283.6538083333289,
      "v": 115
    },
    {
      "midi": 65,
      "hit": false,
      "t": 79326.91249999995,
      "d": 283.6538083333289,
      "v": 115
    },
    {
      "midi": 41,
      "hit": false,
      "t": 79615.37399999994,
      "d": 283.6538083333289,
      "v": 115
    },
    {
      "midi": 53,
      "hit": false,
      "t": 79615.37399999994,
      "d": 283.6538083333289,
      "v": 118
    },
    {
      "midi": 57,
      "hit": false,
      "t": 79903.83549999993,
      "d": 283.6538083333289,
      "v": 118
    },
    {
      "midi": 60,
      "hit": false,
      "t": 79903.83549999993,
      "d": 283.6538083333289,
      "v": 122
    },
    {
      "midi": 65,
      "hit": false,
      "t": 79903.83549999993,
      "d": 283.6538083333289,
      "v": 107
    },
    {
      "midi": 41,
      "hit": false,
      "t": 80192.29699999992,
      "d": 283.6538083333289,
      "v": 103
    },
    {
      "midi": 53,
      "hit": false,
      "t": 80192.29699999992,
      "d": 283.6538083333289,
      "v": 103
    },
    {
      "midi": 57,
      "hit": false,
      "t": 80192.29699999992,
      "d": 283.6538083333289,
      "v": 107
    },
    {
      "midi": 60,
      "hit": false,
      "t": 80192.29699999992,
      "d": 283.6538083333289,
      "v": 107
    },
    {
      "midi": 65,
      "hit": false,
      "t": 80192.29699999992,
      "d": 283.6538083333289,
      "v": 107
    },
    {
      "midi": 57,
      "hit": false,
      "t": 80480.75849999991,
      "d": 283.6538083333289,
      "v": 115
    },
    {
      "midi": 60,
      "hit": false,
      "t": 80480.75849999991,
      "d": 283.6538083333289,
      "v": 107
    },
    {
      "midi": 65,
      "hit": false,
      "t": 80480.75849999991,
      "d": 283.6538083333289,
      "v": 107
    },
    {
      "midi": 38,
      "hit": false,
      "t": 80769.2199999999,
      "d": 283.6538083333289,
      "v": 115
    },
    {
      "midi": 50,
      "hit": false,
      "t": 80769.2199999999,
      "d": 283.6538083333289,
      "v": 118
    },
    {
      "midi": 57,
      "hit": false,
      "t": 80769.2199999999,
      "d": 283.6538083333289,
      "v": 115
    },
    {
      "midi": 62,
      "hit": false,
      "t": 80769.2199999999,
      "d": 283.6538083333289,
      "v": 121
    },
    {
      "midi": 65,
      "hit": false,
      "t": 80769.2199999999,
      "d": 283.6538083333289,
      "v": 115
    },
    {
      "midi": 38,
      "hit": false,
      "t": 81346.1429999999,
      "d": 283.6538083333289,
      "v": 107
    },
    {
      "midi": 50,
      "hit": false,
      "t": 81346.1429999999,
      "d": 283.6538083333289,
      "v": 115
    },
    {
      "midi": 57,
      "hit": false,
      "t": 81346.1429999999,
      "d": 283.6538083333289,
      "v": 115
    },
    {
      "midi": 62,
      "hit": false,
      "t": 81346.1429999999,
      "d": 283.6538083333289,
      "v": 118
    },
    {
      "midi": 65,
      "hit": false,
      "t": 81346.1429999999,
      "d": 283.6538083333289,
      "v": 118
    },
    {
      "midi": 57,
      "hit": false,
      "t": 81634.60449999988,
      "d": 283.6538083333289,
      "v": 103
    },
    {
      "midi": 62,
      "hit": false,
      "t": 81634.60449999988,
      "d": 283.6538083333289,
      "v": 115
    },
    {
      "midi": 65,
      "hit": false,
      "t": 81634.60449999988,
      "d": 283.6538083333289,
      "v": 115
    },
    {
      "midi": 38,
      "hit": false,
      "t": 81923.06599999988,
      "d": 283.6538083333289,
      "v": 115
    },
    {
      "midi": 50,
      "hit": false,
      "t": 81923.06599999988,
      "d": 283.6538083333289,
      "v": 118
    },
    {
      "midi": 57,
      "hit": false,
      "t": 82211.52749999987,
      "d": 283.6538083333289,
      "v": 103
    },
    {
      "midi": 62,
      "hit": false,
      "t": 82211.52749999987,
      "d": 283.6538083333289,
      "v": 107
    },
    {
      "midi": 65,
      "hit": false,
      "t": 82211.52749999987,
      "d": 283.6538083333289,
      "v": 115
    },
    {
      "midi": 38,
      "hit": false,
      "t": 82499.98899999986,
      "d": 283.6538083333289,
      "v": 115
    },
    {
      "midi": 50,
      "hit": false,
      "t": 82499.98899999986,
      "d": 283.6538083333289,
      "v": 107
    },
    {
      "midi": 57,
      "hit": false,
      "t": 82499.98899999986,
      "d": 283.6538083333289,
      "v": 97
    },
    {
      "midi": 62,
      "hit": false,
      "t": 82499.98899999986,
      "d": 283.6538083333289,
      "v": 103
    },
    {
      "midi": 65,
      "hit": false,
      "t": 82499.98899999986,
      "d": 283.6538083333289,
      "v": 107
    },
    {
      "midi": 57,
      "hit": false,
      "t": 82788.45049999985,
      "d": 283.6538083333289,
      "v": 107
    },
    {
      "midi": 62,
      "hit": false,
      "t": 82788.45049999985,
      "d": 283.6538083333289,
      "v": 107
    },
    {
      "midi": 65,
      "hit": false,
      "t": 82788.45049999985,
      "d": 283.6538083333289,
      "v": 107
    },
    {
      "midi": 38,
      "hit": false,
      "t": 83076.91199999984,
      "d": 283.6538083333289,
      "v": 115
    },
    {
      "midi": 50,
      "hit": false,
      "t": 83076.91199999984,
      "d": 283.6538083333289,
      "v": 115
    },
    {
      "midi": 57,
      "hit": false,
      "t": 83076.91199999984,
      "d": 283.6538083333289,
      "v": 118
    },
    {
      "midi": 62,
      "hit": false,
      "t": 83076.91199999984,
      "d": 283.6538083333289,
      "v": 115
    },
    {
      "midi": 65,
      "hit": false,
      "t": 83076.91199999984,
      "d": 283.6538083333289,
      "v": 118
    },
    {
      "midi": 38,
      "hit": false,
      "t": 83653.83499999983,
      "d": 283.6538083333289,
      "v": 103
    },
    {
      "midi": 50,
      "hit": false,
      "t": 83653.83499999983,
      "d": 283.6538083333289,
      "v": 103
    },
    {
      "midi": 57,
      "hit": false,
      "t": 83653.83499999983,
      "d": 283.6538083333289,
      "v": 93
    },
    {
      "midi": 62,
      "hit": false,
      "t": 83653.83499999983,
      "d": 283.6538083333289,
      "v": 103
    },
    {
      "midi": 65,
      "hit": false,
      "t": 83653.83499999983,
      "d": 283.6538083333289,
      "v": 115
    },
    {
      "midi": 57,
      "hit": false,
      "t": 83942.29649999982,
      "d": 283.6538083333289,
      "v": 115
    },
    {
      "midi": 62,
      "hit": false,
      "t": 83942.29649999982,
      "d": 283.6538083333289,
      "v": 118
    },
    {
      "midi": 65,
      "hit": false,
      "t": 83942.29649999982,
      "d": 283.6538083333289,
      "v": 107
    },
    {
      "midi": 38,
      "hit": false,
      "t": 84230.75799999981,
      "d": 283.6538083333289,
      "v": 103
    },
    {
      "midi": 50,
      "hit": false,
      "t": 84230.75799999981,
      "d": 283.6538083333289,
      "v": 115
    },
    {
      "midi": 57,
      "hit": false,
      "t": 84519.2194999998,
      "d": 283.6538083333289,
      "v": 103
    },
    {
      "midi": 62,
      "hit": false,
      "t": 84519.2194999998,
      "d": 283.6538083333289,
      "v": 103
    },
    {
      "midi": 65,
      "hit": false,
      "t": 84519.2194999998,
      "d": 283.6538083333289,
      "v": 97
    },
    {
      "midi": 38,
      "hit": false,
      "t": 84807.6809999998,
      "d": 283.6538083333289,
      "v": 103
    },
    {
      "midi": 50,
      "hit": false,
      "t": 84807.6809999998,
      "d": 283.6538083333289,
      "v": 103
    },
    {
      "midi": 57,
      "hit": false,
      "t": 84807.6809999998,
      "d": 283.6538083333289,
      "v": 103
    },
    {
      "midi": 62,
      "hit": false,
      "t": 84807.6809999998,
      "d": 283.6538083333289,
      "v": 103
    },
    {
      "midi": 65,
      "hit": false,
      "t": 84807.6809999998,
      "d": 283.6538083333289,
      "v": 118
    },
    {
      "midi": 57,
      "hit": false,
      "t": 85096.14249999978,
      "d": 283.6538083333289,
      "v": 93
    },
    {
      "midi": 62,
      "hit": false,
      "t": 85096.14249999978,
      "d": 283.6538083333289,
      "v": 107
    },
    {
      "midi": 65,
      "hit": false,
      "t": 85096.14249999978,
      "d": 283.6538083333289,
      "v": 115
    },
    {
      "midi": 34,
      "hit": false,
      "t": 85384.60399999977,
      "d": 283.6538083333289,
      "v": 97
    },
    {
      "midi": 46,
      "hit": false,
      "t": 85384.60399999977,
      "d": 283.6538083333289,
      "v": 103
    },
    {
      "midi": 58,
      "hit": false,
      "t": 85384.60399999977,
      "d": 283.6538083333289,
      "v": 121
    },
    {
      "midi": 62,
      "hit": false,
      "t": 85384.60399999977,
      "d": 283.6538083333289,
      "v": 115
    },
    {
      "midi": 65,
      "hit": false,
      "t": 85384.60399999977,
      "d": 283.6538083333289,
      "v": 103
    },
    {
      "midi": 34,
      "hit": false,
      "t": 85961.52699999977,
      "d": 283.6538083333289,
      "v": 103
    },
    {
      "midi": 46,
      "hit": false,
      "t": 85961.52699999977,
      "d": 283.6538083333289,
      "v": 107
    },
    {
      "midi": 58,
      "hit": false,
      "t": 85961.52699999977,
      "d": 283.6538083333289,
      "v": 103
    },
    {
      "midi": 62,
      "hit": false,
      "t": 85961.52699999977,
      "d": 283.6538083333289,
      "v": 103
    },
    {
      "midi": 65,
      "hit": false,
      "t": 85961.52699999977,
      "d": 283.6538083333289,
      "v": 115
    },
    {
      "midi": 58,
      "hit": false,
      "t": 86249.98849999976,
      "d": 283.6538083333289,
      "v": 97
    },
    {
      "midi": 62,
      "hit": false,
      "t": 86249.98849999976,
      "d": 283.6538083333289,
      "v": 103
    },
    {
      "midi": 65,
      "hit": false,
      "t": 86249.98849999976,
      "d": 283.6538083333289,
      "v": 97
    },
    {
      "midi": 34,
      "hit": false,
      "t": 86538.44999999975,
      "d": 283.6538083333289,
      "v": 107
    },
    {
      "midi": 46,
      "hit": false,
      "t": 86538.44999999975,
      "d": 283.6538083333289,
      "v": 118
    },
    {
      "midi": 58,
      "hit": false,
      "t": 86826.91149999974,
      "d": 283.6538083333289,
      "v": 103
    },
    {
      "midi": 62,
      "hit": false,
      "t": 86826.91149999974,
      "d": 283.6538083333289,
      "v": 115
    },
    {
      "midi": 65,
      "hit": false,
      "t": 86826.91149999974,
      "d": 283.6538083333289,
      "v": 115
    },
    {
      "midi": 34,
      "hit": false,
      "t": 87115.37299999973,
      "d": 283.6538083333289,
      "v": 115
    },
    {
      "midi": 46,
      "hit": false,
      "t": 87115.37299999973,
      "d": 283.6538083333289,
      "v": 107
    },
    {
      "midi": 58,
      "hit": false,
      "t": 87115.37299999973,
      "d": 283.6538083333289,
      "v": 115
    },
    {
      "midi": 62,
      "hit": false,
      "t": 87115.37299999973,
      "d": 283.6538083333289,
      "v": 103
    },
    {
      "midi": 65,
      "hit": false,
      "t": 87115.37299999973,
      "d": 283.6538083333289,
      "v": 115
    },
    {
      "midi": 58,
      "hit": false,
      "t": 87403.83449999972,
      "d": 283.6538083333289,
      "v": 93
    },
    {
      "midi": 62,
      "hit": false,
      "t": 87403.83449999972,
      "d": 283.6538083333289,
      "v": 103
    },
    {
      "midi": 65,
      "hit": false,
      "t": 87403.83449999972,
      "d": 283.6538083333289,
      "v": 103
    },
    {
      "midi": 34,
      "hit": false,
      "t": 87692.29599999971,
      "d": 283.6538083333289,
      "v": 115
    },
    {
      "midi": 46,
      "hit": false,
      "t": 87692.29599999971,
      "d": 283.6538083333289,
      "v": 121
    },
    {
      "midi": 58,
      "hit": false,
      "t": 87692.29599999971,
      "d": 283.6538083333289,
      "v": 115
    },
    {
      "midi": 62,
      "hit": false,
      "t": 87692.29599999971,
      "d": 283.6538083333289,
      "v": 107
    },
    {
      "midi": 65,
      "hit": false,
      "t": 87692.29599999971,
      "d": 283.6538083333289,
      "v": 107
    },
    {
      "midi": 34,
      "hit": false,
      "t": 88269.2189999997,
      "d": 283.6538083333289,
      "v": 115
    },
    {
      "midi": 46,
      "hit": false,
      "t": 88269.2189999997,
      "d": 283.6538083333289,
      "v": 107
    },
    {
      "midi": 58,
      "hit": false,
      "t": 88269.2189999997,
      "d": 283.6538083333289,
      "v": 115
    },
    {
      "midi": 62,
      "hit": false,
      "t": 88269.2189999997,
      "d": 283.6538083333289,
      "v": 107
    },
    {
      "midi": 65,
      "hit": false,
      "t": 88269.2189999997,
      "d": 283.6538083333289,
      "v": 107
    },
    {
      "midi": 58,
      "hit": false,
      "t": 88557.6804999997,
      "d": 283.6538083333289,
      "v": 103
    },
    {
      "midi": 62,
      "hit": false,
      "t": 88557.6804999997,
      "d": 283.6538083333289,
      "v": 97
    },
    {
      "midi": 65,
      "hit": false,
      "t": 88557.6804999997,
      "d": 283.6538083333289,
      "v": 103
    },
    {
      "midi": 34,
      "hit": false,
      "t": 88846.14199999969,
      "d": 283.6538083333289,
      "v": 115
    },
    {
      "midi": 46,
      "hit": false,
      "t": 88846.14199999969,
      "d": 283.6538083333289,
      "v": 115
    },
    {
      "midi": 58,
      "hit": false,
      "t": 88846.14199999969,
      "d": 283.6538083333289,
      "v": 115
    },
    {
      "midi": 62,
      "hit": false,
      "t": 88846.14199999969,
      "d": 283.6538083333289,
      "v": 115
    },
    {
      "midi": 65,
      "hit": false,
      "t": 88846.14199999969,
      "d": 283.6538083333289,
      "v": 107
    },
    {
      "midi": 58,
      "hit": false,
      "t": 89134.60349999968,
      "d": 283.6538083333289,
      "v": 107
    },
    {
      "midi": 62,
      "hit": false,
      "t": 89134.60349999968,
      "d": 283.6538083333289,
      "v": 103
    },
    {
      "midi": 65,
      "hit": false,
      "t": 89134.60349999968,
      "d": 283.6538083333289,
      "v": 107
    },
    {
      "midi": 34,
      "hit": false,
      "t": 89423.06499999967,
      "d": 283.6538083333289,
      "v": 118
    },
    {
      "midi": 46,
      "hit": false,
      "t": 89423.06499999967,
      "d": 283.6538083333289,
      "v": 118
    },
    {
      "midi": 58,
      "hit": false,
      "t": 89711.52649999966,
      "d": 283.6538083333289,
      "v": 97
    },
    {
      "midi": 62,
      "hit": false,
      "t": 89711.52649999966,
      "d": 283.6538083333289,
      "v": 103
    },
    {
      "midi": 65,
      "hit": false,
      "t": 89711.52649999966,
      "d": 283.6538083333289,
      "v": 103
    },
    {
      "midi": 48,
      "hit": false,
      "t": 89999.98799999965,
      "d": 283.6538083333289,
      "v": 91
    },
    {
      "midi": 60,
      "hit": false,
      "t": 89999.98799999965,
      "d": 283.6538083333289,
      "v": 118
    },
    {
      "midi": 64,
      "hit": false,
      "t": 89999.98799999965,
      "d": 283.6538083333289,
      "v": 121
    },
    {
      "midi": 67,
      "hit": false,
      "t": 89999.98799999965,
      "d": 283.6538083333289,
      "v": 115
    },
    {
      "midi": 36,
      "hit": false,
      "t": 89999.98799999965,
      "d": 576.9229999999952,
      "v": 97
    },
    {
      "midi": 36,
      "hit": false,
      "t": 90576.91099999964,
      "d": 283.6538083333289,
      "v": 107
    },
    {
      "midi": 48,
      "hit": false,
      "t": 90576.91099999964,
      "d": 283.6538083333289,
      "v": 97
    },
    {
      "midi": 60,
      "hit": false,
      "t": 90576.91099999964,
      "d": 283.6538083333289,
      "v": 121
    },
    {
      "midi": 64,
      "hit": false,
      "t": 90576.91099999964,
      "d": 283.6538083333289,
      "v": 118
    },
    {
      "midi": 67,
      "hit": false,
      "t": 90576.91099999964,
      "d": 283.6538083333289,
      "v": 107
    },
    {
      "midi": 60,
      "hit": false,
      "t": 90865.37249999963,
      "d": 283.6538083333289,
      "v": 115
    },
    {
      "midi": 64,
      "hit": false,
      "t": 90865.37249999963,
      "d": 283.6538083333289,
      "v": 118
    },
    {
      "midi": 67,
      "hit": false,
      "t": 90865.37249999963,
      "d": 283.6538083333289,
      "v": 107
    },
    {
      "midi": 36,
      "hit": false,
      "t": 91153.83399999962,
      "d": 283.6538083333289,
      "v": 107
    },
    {
      "midi": 48,
      "hit": false,
      "t": 91153.83399999962,
      "d": 283.6538083333289,
      "v": 103
    },
    {
      "midi": 60,
      "hit": false,
      "t": 91442.29549999961,
      "d": 283.6538083333289,
      "v": 118
    },
    {
      "midi": 64,
      "hit": false,
      "t": 91442.29549999961,
      "d": 283.6538083333289,
      "v": 121
    },
    {
      "midi": 67,
      "hit": false,
      "t": 91442.29549999961,
      "d": 283.6538083333289,
      "v": 115
    },
    {
      "midi": 36,
      "hit": false,
      "t": 91730.7569999996,
      "d": 283.6538083333289,
      "v": 118
    },
    {
      "midi": 48,
      "hit": false,
      "t": 91730.7569999996,
      "d": 283.6538083333289,
      "v": 115
    },
    {
      "midi": 60,
      "hit": false,
      "t": 91730.7569999996,
      "d": 283.6538083333289,
      "v": 121
    },
    {
      "midi": 64,
      "hit": false,
      "t": 91730.7569999996,
      "d": 283.6538083333289,
      "v": 121
    },
    {
      "midi": 67,
      "hit": false,
      "t": 91730.7569999996,
      "d": 283.6538083333289,
      "v": 118
    },
    {
      "midi": 48,
      "hit": false,
      "t": 92307.6799999996,
      "d": 283.6538083333289,
      "v": 91
    },
    {
      "midi": 60,
      "hit": false,
      "t": 92307.6799999996,
      "d": 283.6538083333289,
      "v": 118
    },
    {
      "midi": 64,
      "hit": false,
      "t": 92307.6799999996,
      "d": 283.6538083333289,
      "v": 121
    },
    {
      "midi": 67,
      "hit": false,
      "t": 92307.6799999996,
      "d": 283.6538083333289,
      "v": 115
    },
    {
      "midi": 36,
      "hit": false,
      "t": 92307.6799999996,
      "d": 576.9229999999952,
      "v": 97
    },
    {
      "midi": 36,
      "hit": false,
      "t": 92884.6029999996,
      "d": 283.6538083333289,
      "v": 107
    },
    {
      "midi": 48,
      "hit": false,
      "t": 92884.6029999996,
      "d": 283.6538083333289,
      "v": 97
    },
    {
      "midi": 60,
      "hit": false,
      "t": 92884.6029999996,
      "d": 283.6538083333289,
      "v": 121
    },
    {
      "midi": 64,
      "hit": false,
      "t": 92884.6029999996,
      "d": 283.6538083333289,
      "v": 118
    },
    {
      "midi": 67,
      "hit": false,
      "t": 92884.6029999996,
      "d": 283.6538083333289,
      "v": 107
    },
    {
      "midi": 60,
      "hit": false,
      "t": 93173.06449999959,
      "d": 283.6538083333289,
      "v": 115
    },
    {
      "midi": 64,
      "hit": false,
      "t": 93173.06449999959,
      "d": 283.6538083333289,
      "v": 118
    },
    {
      "midi": 67,
      "hit": false,
      "t": 93173.06449999959,
      "d": 283.6538083333289,
      "v": 107
    },
    {
      "midi": 36,
      "hit": false,
      "t": 93461.52599999958,
      "d": 283.6538083333289,
      "v": 107
    },
    {
      "midi": 48,
      "hit": false,
      "t": 93461.52599999958,
      "d": 283.6538083333289,
      "v": 103
    },
    {
      "midi": 60,
      "hit": false,
      "t": 93749.98749999957,
      "d": 283.6538083333289,
      "v": 118
    },
    {
      "midi": 64,
      "hit": false,
      "t": 93749.98749999957,
      "d": 283.6538083333289,
      "v": 121
    },
    {
      "midi": 67,
      "hit": false,
      "t": 93749.98749999957,
      "d": 283.6538083333289,
      "v": 115
    },
    {
      "midi": 36,
      "hit": false,
      "t": 94038.44899999956,
      "d": 283.6538083333289,
      "v": 118
    },
    {
      "midi": 48,
      "hit": false,
      "t": 94038.44899999956,
      "d": 283.6538083333289,
      "v": 115
    },
    {
      "midi": 60,
      "hit": false,
      "t": 94038.44899999956,
      "d": 283.6538083333289,
      "v": 121
    },
    {
      "midi": 64,
      "hit": false,
      "t": 94038.44899999956,
      "d": 283.6538083333289,
      "v": 121
    },
    {
      "midi": 67,
      "hit": false,
      "t": 94038.44899999956,
      "d": 283.6538083333289,
      "v": 118
    },
    {
      "midi": 41,
      "hit": false,
      "t": 94615.37199999955,
      "d": 283.6538083333289,
      "v": 115
    },
    {
      "midi": 53,
      "hit": false,
      "t": 94615.37199999955,
      "d": 283.6538083333289,
      "v": 107
    },
    {
      "midi": 57,
      "hit": false,
      "t": 94615.37199999955,
      "d": 283.6538083333289,
      "v": 118
    },
    {
      "midi": 60,
      "hit": false,
      "t": 94615.37199999955,
      "d": 283.6538083333289,
      "v": 118
    },
    {
      "midi": 65,
      "hit": false,
      "t": 94615.37199999955,
      "d": 283.6538083333289,
      "v": 118
    },
    {
      "midi": 41,
      "hit": false,
      "t": 95192.29499999955,
      "d": 283.6538083333289,
      "v": 107
    },
    {
      "midi": 53,
      "hit": false,
      "t": 95192.29499999955,
      "d": 283.6538083333289,
      "v": 97
    },
    {
      "midi": 57,
      "hit": false,
      "t": 95192.29499999955,
      "d": 283.6538083333289,
      "v": 118
    },
    {
      "midi": 60,
      "hit": false,
      "t": 95192.29499999955,
      "d": 283.6538083333289,
      "v": 122
    },
    {
      "midi": 65,
      "hit": false,
      "t": 95192.29499999955,
      "d": 283.6538083333289,
      "v": 118
    },
    {
      "midi": 41,
      "hit": false,
      "t": 95769.21799999954,
      "d": 283.6538083333289,
      "v": 118
    },
    {
      "midi": 53,
      "hit": false,
      "t": 95769.21799999954,
      "d": 283.6538083333289,
      "v": 118
    },
    {
      "midi": 57,
      "hit": false,
      "t": 95769.21799999954,
      "d": 283.6538083333289,
      "v": 121
    },
    {
      "midi": 60,
      "hit": false,
      "t": 95769.21799999954,
      "d": 283.6538083333289,
      "v": 121
    },
    {
      "midi": 65,
      "hit": false,
      "t": 95769.21799999954,
      "d": 283.6538083333289,
      "v": 121
    },
    {
      "midi": 41,
      "hit": false,
      "t": 96346.14099999954,
      "d": 283.6538083333289,
      "v": 87
    },
    {
      "midi": 53,
      "hit": false,
      "t": 96346.14099999954,
      "d": 283.6538083333289,
      "v": 93
    },
    {
      "midi": 57,
      "hit": false,
      "t": 96346.14099999954,
      "d": 283.6538083333289,
      "v": 121
    },
    {
      "midi": 60,
      "hit": false,
      "t": 96346.14099999954,
      "d": 283.6538083333289,
      "v": 121
    },
    {
      "midi": 63,
      "hit": false,
      "t": 96346.14099999954,
      "d": 283.6538083333289,
      "v": 103
    },
    {
      "midi": 65,
      "hit": false,
      "t": 96346.14099999954,
      "d": 283.6538083333289,
      "v": 115
    },
    {
      "midi": 57,
      "hit": false,
      "t": 96634.60249999953,
      "d": 283.6538083333289,
      "v": 97
    },
    {
      "midi": 60,
      "hit": false,
      "t": 96634.60249999953,
      "d": 283.6538083333289,
      "v": 97
    },
    {
      "midi": 65,
      "hit": false,
      "t": 96634.60249999953,
      "d": 283.6538083333289,
      "v": 115
    },
    {
      "midi": 38,
      "hit": false,
      "t": 96923.06399999952,
      "d": 283.6538083333289,
      "v": 107
    },
    {
      "midi": 50,
      "hit": false,
      "t": 96923.06399999952,
      "d": 283.6538083333289,
      "v": 103
    },
    {
      "midi": 57,
      "hit": false,
      "t": 96923.06399999952,
      "d": 283.6538083333289,
      "v": 121
    },
    {
      "midi": 62,
      "hit": false,
      "t": 96923.06399999952,
      "d": 283.6538083333289,
      "v": 121
    },
    {
      "midi": 65,
      "hit": false,
      "t": 96923.06399999952,
      "d": 283.6538083333289,
      "v": 118
    },
    {
      "midi": 57,
      "hit": false,
      "t": 97211.52549999951,
      "d": 283.6538083333289,
      "v": 91
    },
    {
      "midi": 62,
      "hit": false,
      "t": 97211.52549999951,
      "d": 283.6538083333289,
      "v": 107
    },
    {
      "midi": 65,
      "hit": false,
      "t": 97211.52549999951,
      "d": 283.6538083333289,
      "v": 103
    },
    {
      "midi": 38,
      "hit": false,
      "t": 97499.9869999995,
      "d": 283.6538083333289,
      "v": 118
    },
    {
      "midi": 50,
      "hit": false,
      "t": 97499.9869999995,
      "d": 283.6538083333289,
      "v": 121
    },
    {
      "midi": 57,
      "hit": false,
      "t": 97499.9869999995,
      "d": 283.6538083333289,
      "v": 121
    },
    {
      "midi": 62,
      "hit": false,
      "t": 97499.9869999995,
      "d": 283.6538083333289,
      "v": 122
    },
    {
      "midi": 65,
      "hit": false,
      "t": 97499.9869999995,
      "d": 283.6538083333289,
      "v": 118
    },
    {
      "midi": 57,
      "hit": false,
      "t": 97788.44849999949,
      "d": 283.6538083333289,
      "v": 118
    },
    {
      "midi": 62,
      "hit": false,
      "t": 97788.44849999949,
      "d": 283.6538083333289,
      "v": 121
    },
    {
      "midi": 65,
      "hit": false,
      "t": 97788.44849999949,
      "d": 283.6538083333289,
      "v": 118
    },
    {
      "midi": 38,
      "hit": false,
      "t": 98076.90999999948,
      "d": 283.6538083333289,
      "v": 118
    },
    {
      "midi": 50,
      "hit": false,
      "t": 98076.90999999948,
      "d": 283.6538083333289,
      "v": 118
    },
    {
      "midi": 57,
      "hit": false,
      "t": 98365.37149999947,
      "d": 283.6538083333289,
      "v": 115
    },
    {
      "midi": 62,
      "hit": false,
      "t": 98365.37149999947,
      "d": 283.6538083333289,
      "v": 115
    },
    {
      "midi": 65,
      "hit": false,
      "t": 98365.37149999947,
      "d": 283.6538083333289,
      "v": 107
    },
    {
      "midi": 38,
      "hit": false,
      "t": 98653.83299999946,
      "d": 283.6538083333289,
      "v": 118
    },
    {
      "midi": 50,
      "hit": false,
      "t": 98653.83299999946,
      "d": 283.6538083333289,
      "v": 118
    },
    {
      "midi": 57,
      "hit": false,
      "t": 98653.83299999946,
      "d": 283.6538083333289,
      "v": 103
    },
    {
      "midi": 62,
      "hit": false,
      "t": 98653.83299999946,
      "d": 283.6538083333289,
      "v": 115
    },
    {
      "midi": 65,
      "hit": false,
      "t": 98653.83299999946,
      "d": 283.6538083333289,
      "v": 107
    },
    {
      "midi": 57,
      "hit": false,
      "t": 98942.29449999945,
      "d": 283.6538083333289,
      "v": 97
    },
    {
      "midi": 62,
      "hit": false,
      "t": 98942.29449999945,
      "d": 283.6538083333289,
      "v": 97
    },
    {
      "midi": 65,
      "hit": false,
      "t": 98942.29449999945,
      "d": 283.6538083333289,
      "v": 107
    },
    {
      "midi": 34,
      "hit": false,
      "t": 99230.75599999944,
      "d": 283.6538083333289,
      "v": 107
    },
    {
      "midi": 46,
      "hit": false,
      "t": 99230.75599999944,
      "d": 283.6538083333289,
      "v": 97
    },
    {
      "midi": 58,
      "hit": false,
      "t": 99230.75599999944,
      "d": 283.6538083333289,
      "v": 122
    },
    {
      "midi": 62,
      "hit": false,
      "t": 99230.75599999944,
      "d": 283.6538083333289,
      "v": 115
    },
    {
      "midi": 65,
      "hit": false,
      "t": 99230.75599999944,
      "d": 283.6538083333289,
      "v": 118
    },
    {
      "midi": 34,
      "hit": false,
      "t": 99807.67899999944,
      "d": 283.6538083333289,
      "v": 107
    },
    {
      "midi": 46,
      "hit": false,
      "t": 99807.67899999944,
      "d": 283.6538083333289,
      "v": 103
    },
    {
      "midi": 58,
      "hit": false,
      "t": 99807.67899999944,
      "d": 283.6538083333289,
      "v": 107
    },
    {
      "midi": 62,
      "hit": false,
      "t": 99807.67899999944,
      "d": 283.6538083333289,
      "v": 107
    },
    {
      "midi": 65,
      "hit": false,
      "t": 99807.67899999944,
      "d": 283.6538083333289,
      "v": 103
    },
    {
      "midi": 58,
      "hit": false,
      "t": 100096.14049999943,
      "d": 283.6538083333289,
      "v": 107
    },
    {
      "midi": 62,
      "hit": false,
      "t": 100096.14049999943,
      "d": 283.6538083333289,
      "v": 103
    },
    {
      "midi": 65,
      "hit": false,
      "t": 100096.14049999943,
      "d": 283.6538083333289,
      "v": 103
    },
    {
      "midi": 34,
      "hit": false,
      "t": 100384.60199999942,
      "d": 283.6538083333289,
      "v": 118
    },
    {
      "midi": 46,
      "hit": false,
      "t": 100384.60199999942,
      "d": 283.6538083333289,
      "v": 121
    },
    {
      "midi": 58,
      "hit": false,
      "t": 100673.0634999994,
      "d": 283.6538083333289,
      "v": 97
    },
    {
      "midi": 62,
      "hit": false,
      "t": 100673.0634999994,
      "d": 283.6538083333289,
      "v": 107
    },
    {
      "midi": 65,
      "hit": false,
      "t": 100673.0634999994,
      "d": 283.6538083333289,
      "v": 93
    },
    {
      "midi": 34,
      "hit": false,
      "t": 100961.5249999994,
      "d": 283.6538083333289,
      "v": 115
    },
    {
      "midi": 46,
      "hit": false,
      "t": 100961.5249999994,
      "d": 283.6538083333289,
      "v": 115
    },
    {
      "midi": 58,
      "hit": false,
      "t": 100961.5249999994,
      "d": 283.6538083333289,
      "v": 103
    },
    {
      "midi": 62,
      "hit": false,
      "t": 100961.5249999994,
      "d": 283.6538083333289,
      "v": 107
    },
    {
      "midi": 65,
      "hit": false,
      "t": 100961.5249999994,
      "d": 283.6538083333289,
      "v": 103
    },
    {
      "midi": 58,
      "hit": false,
      "t": 101249.98649999939,
      "d": 283.6538083333289,
      "v": 93
    },
    {
      "midi": 62,
      "hit": false,
      "t": 101249.98649999939,
      "d": 283.6538083333289,
      "v": 97
    },
    {
      "midi": 65,
      "hit": false,
      "t": 101249.98649999939,
      "d": 283.6538083333289,
      "v": 91
    },
    {
      "midi": 36,
      "hit": false,
      "t": 101538.44799999938,
      "d": 283.6538083333289,
      "v": 97
    },
    {
      "midi": 48,
      "hit": false,
      "t": 101538.44799999938,
      "d": 283.6538083333289,
      "v": 83
    },
    {
      "midi": 60,
      "hit": false,
      "t": 101538.44799999938,
      "d": 283.6538083333289,
      "v": 115
    },
    {
      "midi": 64,
      "hit": false,
      "t": 101538.44799999938,
      "d": 283.6538083333289,
      "v": 118
    },
    {
      "midi": 67,
      "hit": false,
      "t": 101538.44799999938,
      "d": 283.6538083333289,
      "v": 115
    },
    {
      "midi": 36,
      "hit": false,
      "t": 102115.37099999937,
      "d": 283.6538083333289,
      "v": 97
    },
    {
      "midi": 48,
      "hit": false,
      "t": 102115.37099999937,
      "d": 283.6538083333289,
      "v": 83
    },
    {
      "midi": 60,
      "hit": false,
      "t": 102115.37099999937,
      "d": 283.6538083333289,
      "v": 115
    },
    {
      "midi": 64,
      "hit": false,
      "t": 102115.37099999937,
      "d": 283.6538083333289,
      "v": 107
    },
    {
      "midi": 67,
      "hit": false,
      "t": 102115.37099999937,
      "d": 283.6538083333289,
      "v": 97
    },
    {
      "midi": 60,
      "hit": false,
      "t": 102403.83249999936,
      "d": 283.6538083333289,
      "v": 107
    },
    {
      "midi": 64,
      "hit": false,
      "t": 102403.83249999936,
      "d": 283.6538083333289,
      "v": 103
    },
    {
      "midi": 67,
      "hit": false,
      "t": 102403.83249999936,
      "d": 283.6538083333289,
      "v": 103
    },
    {
      "midi": 36,
      "hit": false,
      "t": 102692.29399999935,
      "d": 283.6538083333289,
      "v": 107
    },
    {
      "midi": 48,
      "hit": false,
      "t": 102692.29399999935,
      "d": 283.6538083333289,
      "v": 103
    },
    {
      "midi": 60,
      "hit": false,
      "t": 102980.75549999934,
      "d": 283.6538083333289,
      "v": 103
    },
    {
      "midi": 64,
      "hit": false,
      "t": 102980.75549999934,
      "d": 283.6538083333289,
      "v": 103
    },
    {
      "midi": 67,
      "hit": false,
      "t": 102980.75549999934,
      "d": 283.6538083333289,
      "v": 97
    },
    {
      "midi": 36,
      "hit": false,
      "t": 103269.21699999933,
      "d": 283.6538083333289,
      "v": 103
    },
    {
      "midi": 48,
      "hit": false,
      "t": 103269.21699999933,
      "d": 283.6538083333289,
      "v": 93
    },
    {
      "midi": 60,
      "hit": false,
      "t": 103269.21699999933,
      "d": 283.6538083333289,
      "v": 115
    },
    {
      "midi": 64,
      "hit": false,
      "t": 103269.21699999933,
      "d": 283.6538083333289,
      "v": 115
    },
    {
      "midi": 67,
      "hit": false,
      "t": 103269.21699999933,
      "d": 283.6538083333289,
      "v": 115
    },
    {
      "midi": 60,
      "hit": false,
      "t": 103557.67849999933,
      "d": 283.6538083333289,
      "v": 97
    },
    {
      "midi": 64,
      "hit": false,
      "t": 103557.67849999933,
      "d": 283.6538083333289,
      "v": 97
    },
    {
      "midi": 67,
      "hit": false,
      "t": 103557.67849999933,
      "d": 283.6538083333289,
      "v": 107
    },
    {
      "midi": 41,
      "hit": false,
      "t": 103846.13999999932,
      "d": 283.6538083333289,
      "v": 93
    },
    {
      "midi": 53,
      "hit": false,
      "t": 103846.13999999932,
      "d": 283.6538083333289,
      "v": 75
    },
    {
      "midi": 57,
      "hit": false,
      "t": 103846.13999999932,
      "d": 283.6538083333289,
      "v": 115
    },
    {
      "midi": 60,
      "hit": false,
      "t": 103846.13999999932,
      "d": 283.6538083333289,
      "v": 118
    },
    {
      "midi": 65,
      "hit": false,
      "t": 103846.13999999932,
      "d": 283.6538083333289,
      "v": 107
    },
    {
      "midi": 41,
      "hit": false,
      "t": 104423.06299999931,
      "d": 283.6538083333289,
      "v": 107
    },
    {
      "midi": 53,
      "hit": false,
      "t": 104423.06299999931,
      "d": 283.6538083333289,
      "v": 103
    },
    {
      "midi": 57,
      "hit": false,
      "t": 104423.06299999931,
      "d": 283.6538083333289,
      "v": 103
    },
    {
      "midi": 60,
      "hit": false,
      "t": 104423.06299999931,
      "d": 283.6538083333289,
      "v": 118
    },
    {
      "midi": 65,
      "hit": false,
      "t": 104423.06299999931,
      "d": 283.6538083333289,
      "v": 103
    },
    {
      "midi": 57,
      "hit": false,
      "t": 104711.5244999993,
      "d": 283.6538083333289,
      "v": 118
    },
    {
      "midi": 60,
      "hit": false,
      "t": 104711.5244999993,
      "d": 283.6538083333289,
      "v": 122
    },
    {
      "midi": 65,
      "hit": false,
      "t": 104711.5244999993,
      "d": 283.6538083333289,
      "v": 118
    },
    {
      "midi": 41,
      "hit": false,
      "t": 104999.98599999929,
      "d": 283.6538083333289,
      "v": 115
    },
    {
      "midi": 53,
      "hit": false,
      "t": 104999.98599999929,
      "d": 283.6538083333289,
      "v": 115
    },
    {
      "midi": 57,
      "hit": false,
      "t": 105288.44749999928,
      "d": 283.6538083333289,
      "v": 115
    },
    {
      "midi": 60,
      "hit": false,
      "t": 105288.44749999928,
      "d": 283.6538083333289,
      "v": 118
    },
    {
      "midi": 65,
      "hit": false,
      "t": 105288.44749999928,
      "d": 283.6538083333289,
      "v": 107
    },
    {
      "midi": 41,
      "hit": false,
      "t": 105576.90899999927,
      "d": 283.6538083333289,
      "v": 107
    },
    {
      "midi": 53,
      "hit": false,
      "t": 105576.90899999927,
      "d": 283.6538083333289,
      "v": 103
    },
    {
      "midi": 57,
      "hit": false,
      "t": 105576.90899999927,
      "d": 283.6538083333289,
      "v": 118
    },
    {
      "midi": 60,
      "hit": false,
      "t": 105576.90899999927,
      "d": 283.6538083333289,
      "v": 121
    },
    {
      "midi": 65,
      "hit": false,
      "t": 105576.90899999927,
      "d": 283.6538083333289,
      "v": 115
    },
    {
      "midi": 57,
      "hit": false,
      "t": 105865.37049999926,
      "d": 283.6538083333289,
      "v": 97
    },
    {
      "midi": 60,
      "hit": false,
      "t": 105865.37049999926,
      "d": 283.6538083333289,
      "v": 97
    },
    {
      "midi": 65,
      "hit": false,
      "t": 105865.37049999926,
      "d": 283.6538083333289,
      "v": 103
    },
    {
      "midi": 38,
      "hit": false,
      "t": 106153.83199999925,
      "d": 283.6538083333289,
      "v": 91
    },
    {
      "midi": 50,
      "hit": false,
      "t": 106153.83199999925,
      "d": 283.6538083333289,
      "v": 91
    },
    {
      "midi": 57,
      "hit": false,
      "t": 106153.83199999925,
      "d": 283.6538083333289,
      "v": 115
    },
    {
      "midi": 62,
      "hit": false,
      "t": 106153.83199999925,
      "d": 283.6538083333289,
      "v": 118
    },
    {
      "midi": 65,
      "hit": false,
      "t": 106153.83199999925,
      "d": 283.6538083333289,
      "v": 118
    },
    {
      "midi": 38,
      "hit": false,
      "t": 106730.75499999925,
      "d": 283.6538083333289,
      "v": 103
    },
    {
      "midi": 50,
      "hit": false,
      "t": 106730.75499999925,
      "d": 283.6538083333289,
      "v": 97
    },
    {
      "midi": 57,
      "hit": false,
      "t": 106730.75499999925,
      "d": 283.6538083333289,
      "v": 115
    },
    {
      "midi": 62,
      "hit": false,
      "t": 106730.75499999925,
      "d": 283.6538083333289,
      "v": 115
    },
    {
      "midi": 65,
      "hit": false,
      "t": 106730.75499999925,
      "d": 283.6538083333289,
      "v": 93
    },
    {
      "midi": 57,
      "hit": false,
      "t": 107019.21649999924,
      "d": 283.6538083333289,
      "v": 115
    },
    {
      "midi": 62,
      "hit": false,
      "t": 107019.21649999924,
      "d": 283.6538083333289,
      "v": 118
    },
    {
      "midi": 65,
      "hit": false,
      "t": 107019.21649999924,
      "d": 283.6538083333289,
      "v": 107
    },
    {
      "midi": 38,
      "hit": false,
      "t": 107307.67799999923,
      "d": 283.6538083333289,
      "v": 103
    },
    {
      "midi": 50,
      "hit": false,
      "t": 107307.67799999923,
      "d": 283.6538083333289,
      "v": 107
    },
    {
      "midi": 57,
      "hit": false,
      "t": 107596.13949999922,
      "d": 283.6538083333289,
      "v": 107
    },
    {
      "midi": 62,
      "hit": false,
      "t": 107596.13949999922,
      "d": 283.6538083333289,
      "v": 121
    },
    {
      "midi": 65,
      "hit": false,
      "t": 107596.13949999922,
      "d": 283.6538083333289,
      "v": 107
    },
    {
      "midi": 38,
      "hit": false,
      "t": 107884.60099999921,
      "d": 283.6538083333289,
      "v": 93
    },
    {
      "midi": 50,
      "hit": false,
      "t": 107884.60099999921,
      "d": 283.6538083333289,
      "v": 115
    },
    {
      "midi": 57,
      "hit": false,
      "t": 107884.60099999921,
      "d": 283.6538083333289,
      "v": 107
    },
    {
      "midi": 62,
      "hit": false,
      "t": 107884.60099999921,
      "d": 283.6538083333289,
      "v": 118
    },
    {
      "midi": 65,
      "hit": false,
      "t": 107884.60099999921,
      "d": 283.6538083333289,
      "v": 103
    },
    {
      "midi": 57,
      "hit": false,
      "t": 108173.0624999992,
      "d": 283.6538083333289,
      "v": 87
    },
    {
      "midi": 62,
      "hit": false,
      "t": 108173.0624999992,
      "d": 283.6538083333289,
      "v": 103
    },
    {
      "midi": 65,
      "hit": false,
      "t": 108173.0624999992,
      "d": 283.6538083333289,
      "v": 107
    },
    {
      "midi": 34,
      "hit": false,
      "t": 108461.52399999919,
      "d": 283.6538083333289,
      "v": 93
    },
    {
      "midi": 46,
      "hit": false,
      "t": 108461.52399999919,
      "d": 283.6538083333289,
      "v": 97
    },
    {
      "midi": 58,
      "hit": false,
      "t": 108461.52399999919,
      "d": 283.6538083333289,
      "v": 122
    },
    {
      "midi": 62,
      "hit": false,
      "t": 108461.52399999919,
      "d": 283.6538083333289,
      "v": 107
    },
    {
      "midi": 65,
      "hit": false,
      "t": 108461.52399999919,
      "d": 283.6538083333289,
      "v": 107
    },
    {
      "midi": 34,
      "hit": false,
      "t": 109038.44699999919,
      "d": 283.6538083333289,
      "v": 97
    },
    {
      "midi": 46,
      "hit": false,
      "t": 109038.44699999919,
      "d": 283.6538083333289,
      "v": 93
    },
    {
      "midi": 58,
      "hit": false,
      "t": 109038.44699999919,
      "d": 283.6538083333289,
      "v": 107
    },
    {
      "midi": 62,
      "hit": false,
      "t": 109038.44699999919,
      "d": 283.6538083333289,
      "v": 103
    },
    {
      "midi": 65,
      "hit": false,
      "t": 109038.44699999919,
      "d": 283.6538083333289,
      "v": 107
    },
    {
      "midi": 58,
      "hit": false,
      "t": 109326.90849999918,
      "d": 283.6538083333289,
      "v": 107
    },
    {
      "midi": 62,
      "hit": false,
      "t": 109326.90849999918,
      "d": 283.6538083333289,
      "v": 107
    },
    {
      "midi": 65,
      "hit": false,
      "t": 109326.90849999918,
      "d": 283.6538083333289,
      "v": 107
    },
    {
      "midi": 34,
      "hit": false,
      "t": 109615.36999999917,
      "d": 283.6538083333289,
      "v": 118
    },
    {
      "midi": 46,
      "hit": false,
      "t": 109615.36999999917,
      "d": 283.6538083333289,
      "v": 118
    },
    {
      "midi": 58,
      "hit": false,
      "t": 109903.83149999916,
      "d": 283.6538083333289,
      "v": 115
    },
    {
      "midi": 62,
      "hit": false,
      "t": 109903.83149999916,
      "d": 283.6538083333289,
      "v": 107
    },
    {
      "midi": 65,
      "hit": false,
      "t": 109903.83149999916,
      "d": 283.6538083333289,
      "v": 115
    },
    {
      "midi": 34,
      "hit": false,
      "t": 110192.29299999915,
      "d": 283.6538083333289,
      "v": 107
    },
    {
      "midi": 46,
      "hit": false,
      "t": 110192.29299999915,
      "d": 283.6538083333289,
      "v": 107
    },
    {
      "midi": 58,
      "hit": false,
      "t": 110192.29299999915,
      "d": 283.6538083333289,
      "v": 103
    },
    {
      "midi": 62,
      "hit": false,
      "t": 110192.29299999915,
      "d": 283.6538083333289,
      "v": 107
    },
    {
      "midi": 65,
      "hit": false,
      "t": 110192.29299999915,
      "d": 283.6538083333289,
      "v": 107
    },
    {
      "midi": 58,
      "hit": false,
      "t": 110480.75449999914,
      "d": 283.6538083333289,
      "v": 91
    },
    {
      "midi": 62,
      "hit": false,
      "t": 110480.75449999914,
      "d": 283.6538083333289,
      "v": 97
    },
    {
      "midi": 65,
      "hit": false,
      "t": 110480.75449999914,
      "d": 283.6538083333289,
      "v": 103
    },
    {
      "midi": 36,
      "hit": false,
      "t": 110769.21599999913,
      "d": 283.6538083333289,
      "v": 93
    },
    {
      "midi": 48,
      "hit": false,
      "t": 110769.21599999913,
      "d": 283.6538083333289,
      "v": 77
    },
    {
      "midi": 60,
      "hit": false,
      "t": 110769.21599999913,
      "d": 283.6538083333289,
      "v": 118
    },
    {
      "midi": 64,
      "hit": false,
      "t": 110769.21599999913,
      "d": 283.6538083333289,
      "v": 118
    },
    {
      "midi": 67,
      "hit": false,
      "t": 110769.21599999913,
      "d": 283.6538083333289,
      "v": 103
    },
    {
      "midi": 36,
      "hit": false,
      "t": 111346.13899999912,
      "d": 283.6538083333289,
      "v": 93
    },
    {
      "midi": 48,
      "hit": false,
      "t": 111346.13899999912,
      "d": 283.6538083333289,
      "v": 97
    },
    {
      "midi": 60,
      "hit": false,
      "t": 111346.13899999912,
      "d": 283.6538083333289,
      "v": 107
    },
    {
      "midi": 64,
      "hit": false,
      "t": 111346.13899999912,
      "d": 283.6538083333289,
      "v": 103
    },
    {
      "midi": 67,
      "hit": false,
      "t": 111346.13899999912,
      "d": 283.6538083333289,
      "v": 103
    },
    {
      "midi": 60,
      "hit": false,
      "t": 111634.60049999911,
      "d": 283.6538083333289,
      "v": 118
    },
    {
      "midi": 64,
      "hit": false,
      "t": 111634.60049999911,
      "d": 283.6538083333289,
      "v": 115
    },
    {
      "midi": 67,
      "hit": false,
      "t": 111634.60049999911,
      "d": 283.6538083333289,
      "v": 103
    },
    {
      "midi": 36,
      "hit": false,
      "t": 111923.0619999991,
      "d": 283.6538083333289,
      "v": 115
    },
    {
      "midi": 48,
      "hit": false,
      "t": 111923.0619999991,
      "d": 283.6538083333289,
      "v": 115
    },
    {
      "midi": 60,
      "hit": false,
      "t": 112211.5234999991,
      "d": 283.6538083333289,
      "v": 121
    },
    {
      "midi": 64,
      "hit": false,
      "t": 112211.5234999991,
      "d": 283.6538083333289,
      "v": 118
    },
    {
      "midi": 67,
      "hit": false,
      "t": 112211.5234999991,
      "d": 283.6538083333289,
      "v": 115
    },
    {
      "midi": 36,
      "hit": false,
      "t": 112499.98499999908,
      "d": 283.6538083333289,
      "v": 107
    },
    {
      "midi": 48,
      "hit": false,
      "t": 112499.98499999908,
      "d": 283.6538083333289,
      "v": 103
    },
    {
      "midi": 60,
      "hit": false,
      "t": 112499.98499999908,
      "d": 283.6538083333289,
      "v": 118
    },
    {
      "midi": 64,
      "hit": false,
      "t": 112499.98499999908,
      "d": 283.6538083333289,
      "v": 115
    },
    {
      "midi": 67,
      "hit": false,
      "t": 112499.98499999908,
      "d": 283.6538083333289,
      "v": 107
    },
    {
      "midi": 60,
      "hit": false,
      "t": 112788.44649999907,
      "d": 283.6538083333289,
      "v": 115
    },
    {
      "midi": 64,
      "hit": false,
      "t": 112788.44649999907,
      "d": 283.6538083333289,
      "v": 107
    },
    {
      "midi": 67,
      "hit": false,
      "t": 112788.44649999907,
      "d": 283.6538083333289,
      "v": 103
    },
    {
      "midi": 41,
      "hit": false,
      "t": 113076.90799999906,
      "d": 283.6538083333289,
      "v": 115
    },
    {
      "midi": 53,
      "hit": false,
      "t": 113076.90799999906,
      "d": 283.6538083333289,
      "v": 107
    },
    {
      "midi": 57,
      "hit": false,
      "t": 113076.90799999906,
      "d": 283.6538083333289,
      "v": 121
    },
    {
      "midi": 60,
      "hit": false,
      "t": 113076.90799999906,
      "d": 576.9229999999952,
      "v": 121
    },
    {
      "midi": 65,
      "hit": false,
      "t": 113076.90799999906,
      "d": 576.9229999999952,
      "v": 121
    },
    {
      "midi": 41,
      "hit": false,
      "t": 113653.83099999906,
      "d": 283.6538083333289,
      "v": 107
    },
    {
      "midi": 53,
      "hit": false,
      "t": 113653.83099999906,
      "d": 283.6538083333289,
      "v": 107
    },
    {
      "midi": 57,
      "hit": false,
      "t": 113653.83099999906,
      "d": 283.6538083333289,
      "v": 121
    },
    {
      "midi": 60,
      "hit": false,
      "t": 113653.83099999906,
      "d": 283.6538083333289,
      "v": 118
    },
    {
      "midi": 65,
      "hit": false,
      "t": 113653.83099999906,
      "d": 283.6538083333289,
      "v": 107
    },
    {
      "midi": 57,
      "hit": false,
      "t": 113942.29249999905,
      "d": 283.6538083333289,
      "v": 115
    },
    {
      "midi": 60,
      "hit": false,
      "t": 113942.29249999905,
      "d": 283.6538083333289,
      "v": 115
    },
    {
      "midi": 65,
      "hit": false,
      "t": 113942.29249999905,
      "d": 283.6538083333289,
      "v": 107
    },
    {
      "midi": 41,
      "hit": false,
      "t": 114230.75399999904,
      "d": 283.6538083333289,
      "v": 118
    },
    {
      "midi": 53,
      "hit": false,
      "t": 114230.75399999904,
      "d": 283.6538083333289,
      "v": 121
    },
    {
      "midi": 57,
      "hit": false,
      "t": 114519.21549999903,
      "d": 283.6538083333289,
      "v": 118
    },
    {
      "midi": 60,
      "hit": false,
      "t": 114519.21549999903,
      "d": 283.6538083333289,
      "v": 121
    },
    {
      "midi": 65,
      "hit": false,
      "t": 114519.21549999903,
      "d": 283.6538083333289,
      "v": 118
    },
    {
      "midi": 41,
      "hit": false,
      "t": 114807.67699999902,
      "d": 283.6538083333289,
      "v": 115
    },
    {
      "midi": 53,
      "hit": false,
      "t": 114807.67699999902,
      "d": 283.6538083333289,
      "v": 97
    },
    {
      "midi": 57,
      "hit": false,
      "t": 114807.67699999902,
      "d": 283.6538083333289,
      "v": 118
    },
    {
      "midi": 60,
      "hit": false,
      "t": 114807.67699999902,
      "d": 283.6538083333289,
      "v": 121
    },
    {
      "midi": 65,
      "hit": false,
      "t": 114807.67699999902,
      "d": 283.6538083333289,
      "v": 118
    },
    {
      "midi": 57,
      "hit": false,
      "t": 115096.13849999901,
      "d": 283.6538083333289,
      "v": 97
    },
    {
      "midi": 60,
      "hit": false,
      "t": 115096.13849999901,
      "d": 283.6538083333289,
      "v": 103
    },
    {
      "midi": 65,
      "hit": false,
      "t": 115096.13849999901,
      "d": 283.6538083333289,
      "v": 97
    },
    {
      "midi": 41,
      "hit": false,
      "t": 115384.599999999,
      "d": 283.6538083333289,
      "v": 118
    },
    {
      "midi": 53,
      "hit": false,
      "t": 115384.599999999,
      "d": 283.6538083333289,
      "v": 115
    },
    {
      "midi": 57,
      "hit": false,
      "t": 115384.599999999,
      "d": 283.6538083333289,
      "v": 118
    },
    {
      "midi": 60,
      "hit": false,
      "t": 115384.599999999,
      "d": 283.6538083333289,
      "v": 121
    },
    {
      "midi": 65,
      "hit": false,
      "t": 115384.599999999,
      "d": 283.6538083333289,
      "v": 121
    },
    {
      "midi": 41,
      "hit": false,
      "t": 115961.522999999,
      "d": 283.6538083333289,
      "v": 118
    },
    {
      "midi": 53,
      "hit": false,
      "t": 115961.522999999,
      "d": 283.6538083333289,
      "v": 115
    },
    {
      "midi": 57,
      "hit": false,
      "t": 115961.522999999,
      "d": 283.6538083333289,
      "v": 115
    },
    {
      "midi": 60,
      "hit": false,
      "t": 115961.522999999,
      "d": 283.6538083333289,
      "v": 118
    },
    {
      "midi": 65,
      "hit": false,
      "t": 115961.522999999,
      "d": 283.6538083333289,
      "v": 115
    },
    {
      "midi": 57,
      "hit": false,
      "t": 116249.98449999899,
      "d": 283.6538083333289,
      "v": 107
    },
    {
      "midi": 60,
      "hit": false,
      "t": 116249.98449999899,
      "d": 283.6538083333289,
      "v": 115
    },
    {
      "midi": 65,
      "hit": false,
      "t": 116249.98449999899,
      "d": 283.6538083333289,
      "v": 115
    },
    {
      "midi": 41,
      "hit": false,
      "t": 116538.44599999898,
      "d": 283.6538083333289,
      "v": 115
    },
    {
      "midi": 53,
      "hit": false,
      "t": 116538.44599999898,
      "d": 283.6538083333289,
      "v": 118
    },
    {
      "midi": 57,
      "hit": false,
      "t": 116826.90749999897,
      "d": 283.6538083333289,
      "v": 118
    },
    {
      "midi": 60,
      "hit": false,
      "t": 116826.90749999897,
      "d": 283.6538083333289,
      "v": 122
    },
    {
      "midi": 65,
      "hit": false,
      "t": 116826.90749999897,
      "d": 283.6538083333289,
      "v": 107
    },
    {
      "midi": 41,
      "hit": false,
      "t": 117115.36899999896,
      "d": 283.6538083333289,
      "v": 103
    },
    {
      "midi": 53,
      "hit": false,
      "t": 117115.36899999896,
      "d": 283.6538083333289,
      "v": 103
    },
    {
      "midi": 57,
      "hit": false,
      "t": 117115.36899999896,
      "d": 283.6538083333289,
      "v": 107
    },
    {
      "midi": 60,
      "hit": false,
      "t": 117115.36899999896,
      "d": 283.6538083333289,
      "v": 107
    },
    {
      "midi": 65,
      "hit": false,
      "t": 117115.36899999896,
      "d": 283.6538083333289,
      "v": 107
    },
    {
      "midi": 57,
      "hit": false,
      "t": 117403.83049999895,
      "d": 283.6538083333289,
      "v": 115
    },
    {
      "midi": 60,
      "hit": false,
      "t": 117403.83049999895,
      "d": 283.6538083333289,
      "v": 107
    },
    {
      "midi": 65,
      "hit": false,
      "t": 117403.83049999895,
      "d": 283.6538083333289,
      "v": 107
    },
    {
      "midi": 38,
      "hit": false,
      "t": 117692.29199999894,
      "d": 283.6538083333289,
      "v": 115
    },
    {
      "midi": 50,
      "hit": false,
      "t": 117692.29199999894,
      "d": 283.6538083333289,
      "v": 118
    },
    {
      "midi": 57,
      "hit": false,
      "t": 117692.29199999894,
      "d": 283.6538083333289,
      "v": 115
    },
    {
      "midi": 62,
      "hit": false,
      "t": 117692.29199999894,
      "d": 283.6538083333289,
      "v": 121
    },
    {
      "midi": 65,
      "hit": false,
      "t": 117692.29199999894,
      "d": 283.6538083333289,
      "v": 115
    },
    {
      "midi": 38,
      "hit": false,
      "t": 118269.21499999893,
      "d": 283.6538083333289,
      "v": 107
    },
    {
      "midi": 50,
      "hit": false,
      "t": 118269.21499999893,
      "d": 283.6538083333289,
      "v": 115
    },
    {
      "midi": 57,
      "hit": false,
      "t": 118269.21499999893,
      "d": 283.6538083333289,
      "v": 115
    },
    {
      "midi": 62,
      "hit": false,
      "t": 118269.21499999893,
      "d": 283.6538083333289,
      "v": 118
    },
    {
      "midi": 65,
      "hit": false,
      "t": 118269.21499999893,
      "d": 283.6538083333289,
      "v": 118
    },
    {
      "midi": 57,
      "hit": false,
      "t": 118557.67649999892,
      "d": 283.6538083333289,
      "v": 103
    },
    {
      "midi": 62,
      "hit": false,
      "t": 118557.67649999892,
      "d": 283.6538083333289,
      "v": 115
    },
    {
      "midi": 65,
      "hit": false,
      "t": 118557.67649999892,
      "d": 283.6538083333289,
      "v": 115
    },
    {
      "midi": 38,
      "hit": false,
      "t": 118846.13799999891,
      "d": 283.6538083333289,
      "v": 115
    },
    {
      "midi": 50,
      "hit": false,
      "t": 118846.13799999891,
      "d": 283.6538083333289,
      "v": 118
    },
    {
      "midi": 57,
      "hit": false,
      "t": 119134.5994999989,
      "d": 283.6538083333289,
      "v": 103
    },
    {
      "midi": 62,
      "hit": false,
      "t": 119134.5994999989,
      "d": 283.6538083333289,
      "v": 107
    },
    {
      "midi": 65,
      "hit": false,
      "t": 119134.5994999989,
      "d": 283.6538083333289,
      "v": 115
    },
    {
      "midi": 38,
      "hit": false,
      "t": 119423.0609999989,
      "d": 283.6538083333289,
      "v": 115
    },
    {
      "midi": 50,
      "hit": false,
      "t": 119423.0609999989,
      "d": 283.6538083333289,
      "v": 107
    },
    {
      "midi": 57,
      "hit": false,
      "t": 119423.0609999989,
      "d": 283.6538083333289,
      "v": 97
    },
    {
      "midi": 62,
      "hit": false,
      "t": 119423.0609999989,
      "d": 283.6538083333289,
      "v": 103
    },
    {
      "midi": 65,
      "hit": false,
      "t": 119423.0609999989,
      "d": 283.6538083333289,
      "v": 107
    },
    {
      "midi": 57,
      "hit": false,
      "t": 119711.52249999889,
      "d": 283.6538083333289,
      "v": 107
    },
    {
      "midi": 62,
      "hit": false,
      "t": 119711.52249999889,
      "d": 283.6538083333289,
      "v": 107
    },
    {
      "midi": 65,
      "hit": false,
      "t": 119711.52249999889,
      "d": 283.6538083333289,
      "v": 107
    },
    {
      "midi": 38,
      "hit": false,
      "t": 119999.98399999888,
      "d": 283.6538083333289,
      "v": 115
    },
    {
      "midi": 50,
      "hit": false,
      "t": 119999.98399999888,
      "d": 283.6538083333289,
      "v": 115
    },
    {
      "midi": 57,
      "hit": false,
      "t": 119999.98399999888,
      "d": 283.6538083333289,
      "v": 118
    },
    {
      "midi": 62,
      "hit": false,
      "t": 119999.98399999888,
      "d": 283.6538083333289,
      "v": 115
    },
    {
      "midi": 65,
      "hit": false,
      "t": 119999.98399999888,
      "d": 283.6538083333289,
      "v": 118
    },
    {
      "midi": 38,
      "hit": false,
      "t": 120576.90699999887,
      "d": 283.6538083333289,
      "v": 103
    },
    {
      "midi": 50,
      "hit": false,
      "t": 120576.90699999887,
      "d": 283.6538083333289,
      "v": 103
    },
    {
      "midi": 57,
      "hit": false,
      "t": 120576.90699999887,
      "d": 283.6538083333289,
      "v": 93
    },
    {
      "midi": 62,
      "hit": false,
      "t": 120576.90699999887,
      "d": 283.6538083333289,
      "v": 103
    },
    {
      "midi": 65,
      "hit": false,
      "t": 120576.90699999887,
      "d": 283.6538083333289,
      "v": 115
    },
    {
      "midi": 57,
      "hit": false,
      "t": 120865.36849999886,
      "d": 283.6538083333289,
      "v": 115
    },
    {
      "midi": 62,
      "hit": false,
      "t": 120865.36849999886,
      "d": 283.6538083333289,
      "v": 118
    },
    {
      "midi": 65,
      "hit": false,
      "t": 120865.36849999886,
      "d": 283.6538083333289,
      "v": 107
    },
    {
      "midi": 38,
      "hit": false,
      "t": 121153.82999999885,
      "d": 283.6538083333289,
      "v": 103
    },
    {
      "midi": 50,
      "hit": false,
      "t": 121153.82999999885,
      "d": 283.6538083333289,
      "v": 115
    },
    {
      "midi": 57,
      "hit": false,
      "t": 121442.29149999884,
      "d": 283.6538083333289,
      "v": 103
    },
    {
      "midi": 62,
      "hit": false,
      "t": 121442.29149999884,
      "d": 283.6538083333289,
      "v": 103
    },
    {
      "midi": 65,
      "hit": false,
      "t": 121442.29149999884,
      "d": 283.6538083333289,
      "v": 97
    },
    {
      "midi": 38,
      "hit": false,
      "t": 121730.75299999883,
      "d": 283.6538083333289,
      "v": 103
    },
    {
      "midi": 50,
      "hit": false,
      "t": 121730.75299999883,
      "d": 283.6538083333289,
      "v": 103
    },
    {
      "midi": 57,
      "hit": false,
      "t": 121730.75299999883,
      "d": 283.6538083333289,
      "v": 103
    },
    {
      "midi": 62,
      "hit": false,
      "t": 121730.75299999883,
      "d": 283.6538083333289,
      "v": 103
    },
    {
      "midi": 65,
      "hit": false,
      "t": 121730.75299999883,
      "d": 283.6538083333289,
      "v": 118
    },
    {
      "midi": 57,
      "hit": false,
      "t": 122019.21449999882,
      "d": 283.6538083333289,
      "v": 93
    },
    {
      "midi": 62,
      "hit": false,
      "t": 122019.21449999882,
      "d": 283.6538083333289,
      "v": 107
    },
    {
      "midi": 65,
      "hit": false,
      "t": 122019.21449999882,
      "d": 283.6538083333289,
      "v": 115
    },
    {
      "midi": 34,
      "hit": false,
      "t": 122307.67599999881,
      "d": 283.6538083333289,
      "v": 97
    },
    {
      "midi": 46,
      "hit": false,
      "t": 122307.67599999881,
      "d": 283.6538083333289,
      "v": 103
    },
    {
      "midi": 58,
      "hit": false,
      "t": 122307.67599999881,
      "d": 283.6538083333289,
      "v": 121
    },
    {
      "midi": 62,
      "hit": false,
      "t": 122307.67599999881,
      "d": 283.6538083333289,
      "v": 115
    },
    {
      "midi": 65,
      "hit": false,
      "t": 122307.67599999881,
      "d": 283.6538083333289,
      "v": 103
    },
    {
      "midi": 34,
      "hit": false,
      "t": 122884.59899999881,
      "d": 283.6538083333289,
      "v": 103
    },
    {
      "midi": 46,
      "hit": false,
      "t": 122884.59899999881,
      "d": 283.6538083333289,
      "v": 107
    },
    {
      "midi": 58,
      "hit": false,
      "t": 122884.59899999881,
      "d": 283.6538083333289,
      "v": 103
    },
    {
      "midi": 62,
      "hit": false,
      "t": 122884.59899999881,
      "d": 283.6538083333289,
      "v": 103
    },
    {
      "midi": 65,
      "hit": false,
      "t": 122884.59899999881,
      "d": 283.6538083333289,
      "v": 115
    },
    {
      "midi": 58,
      "hit": false,
      "t": 123173.0604999988,
      "d": 283.6538083333289,
      "v": 97
    },
    {
      "midi": 62,
      "hit": false,
      "t": 123173.0604999988,
      "d": 283.6538083333289,
      "v": 103
    },
    {
      "midi": 65,
      "hit": false,
      "t": 123173.0604999988,
      "d": 283.6538083333289,
      "v": 97
    },
    {
      "midi": 34,
      "hit": false,
      "t": 123461.52199999879,
      "d": 283.6538083333289,
      "v": 107
    },
    {
      "midi": 46,
      "hit": false,
      "t": 123461.52199999879,
      "d": 283.6538083333289,
      "v": 118
    },
    {
      "midi": 58,
      "hit": false,
      "t": 123749.98349999878,
      "d": 283.6538083333289,
      "v": 103
    },
    {
      "midi": 62,
      "hit": false,
      "t": 123749.98349999878,
      "d": 283.6538083333289,
      "v": 115
    },
    {
      "midi": 65,
      "hit": false,
      "t": 123749.98349999878,
      "d": 283.6538083333289,
      "v": 115
    },
    {
      "midi": 34,
      "hit": false,
      "t": 124038.44499999877,
      "d": 283.6538083333289,
      "v": 115
    },
    {
      "midi": 46,
      "hit": false,
      "t": 124038.44499999877,
      "d": 283.6538083333289,
      "v": 107
    },
    {
      "midi": 58,
      "hit": false,
      "t": 124038.44499999877,
      "d": 283.6538083333289,
      "v": 115
    },
    {
      "midi": 62,
      "hit": false,
      "t": 124038.44499999877,
      "d": 283.6538083333289,
      "v": 103
    },
    {
      "midi": 65,
      "hit": false,
      "t": 124038.44499999877,
      "d": 283.6538083333289,
      "v": 115
    },
    {
      "midi": 58,
      "hit": false,
      "t": 124326.90649999876,
      "d": 283.6538083333289,
      "v": 93
    },
    {
      "midi": 62,
      "hit": false,
      "t": 124326.90649999876,
      "d": 283.6538083333289,
      "v": 103
    },
    {
      "midi": 65,
      "hit": false,
      "t": 124326.90649999876,
      "d": 283.6538083333289,
      "v": 103
    },
    {
      "midi": 34,
      "hit": false,
      "t": 124615.36799999875,
      "d": 283.6538083333289,
      "v": 115
    },
    {
      "midi": 46,
      "hit": false,
      "t": 124615.36799999875,
      "d": 283.6538083333289,
      "v": 121
    },
    {
      "midi": 58,
      "hit": false,
      "t": 124615.36799999875,
      "d": 283.6538083333289,
      "v": 115
    },
    {
      "midi": 62,
      "hit": false,
      "t": 124615.36799999875,
      "d": 283.6538083333289,
      "v": 107
    },
    {
      "midi": 65,
      "hit": false,
      "t": 124615.36799999875,
      "d": 283.6538083333289,
      "v": 107
    },
    {
      "midi": 34,
      "hit": false,
      "t": 125192.29099999875,
      "d": 283.6538083333289,
      "v": 115
    },
    {
      "midi": 46,
      "hit": false,
      "t": 125192.29099999875,
      "d": 283.6538083333289,
      "v": 107
    },
    {
      "midi": 58,
      "hit": false,
      "t": 125192.29099999875,
      "d": 283.6538083333289,
      "v": 115
    },
    {
      "midi": 62,
      "hit": false,
      "t": 125192.29099999875,
      "d": 283.6538083333289,
      "v": 107
    },
    {
      "midi": 65,
      "hit": false,
      "t": 125192.29099999875,
      "d": 283.6538083333289,
      "v": 107
    },
    {
      "midi": 58,
      "hit": false,
      "t": 125480.75249999874,
      "d": 283.6538083333289,
      "v": 103
    },
    {
      "midi": 62,
      "hit": false,
      "t": 125480.75249999874,
      "d": 283.6538083333289,
      "v": 97
    },
    {
      "midi": 65,
      "hit": false,
      "t": 125480.75249999874,
      "d": 283.6538083333289,
      "v": 103
    },
    {
      "midi": 34,
      "hit": false,
      "t": 125769.21399999873,
      "d": 283.6538083333289,
      "v": 115
    },
    {
      "midi": 46,
      "hit": false,
      "t": 125769.21399999873,
      "d": 283.6538083333289,
      "v": 115
    },
    {
      "midi": 58,
      "hit": false,
      "t": 125769.21399999873,
      "d": 283.6538083333289,
      "v": 115
    },
    {
      "midi": 62,
      "hit": false,
      "t": 125769.21399999873,
      "d": 283.6538083333289,
      "v": 115
    },
    {
      "midi": 65,
      "hit": false,
      "t": 125769.21399999873,
      "d": 283.6538083333289,
      "v": 107
    },
    {
      "midi": 58,
      "hit": false,
      "t": 126057.67549999872,
      "d": 283.6538083333289,
      "v": 107
    },
    {
      "midi": 62,
      "hit": false,
      "t": 126057.67549999872,
      "d": 283.6538083333289,
      "v": 103
    },
    {
      "midi": 65,
      "hit": false,
      "t": 126057.67549999872,
      "d": 283.6538083333289,
      "v": 107
    },
    {
      "midi": 34,
      "hit": false,
      "t": 126346.13699999871,
      "d": 283.6538083333289,
      "v": 118
    },
    {
      "midi": 46,
      "hit": false,
      "t": 126346.13699999871,
      "d": 283.6538083333289,
      "v": 118
    },
    {
      "midi": 58,
      "hit": false,
      "t": 126634.5984999987,
      "d": 283.6538083333289,
      "v": 97
    },
    {
      "midi": 62,
      "hit": false,
      "t": 126634.5984999987,
      "d": 283.6538083333289,
      "v": 103
    },
    {
      "midi": 65,
      "hit": false,
      "t": 126634.5984999987,
      "d": 283.6538083333289,
      "v": 103
    },
    {
      "midi": 48,
      "hit": false,
      "t": 126923.05999999869,
      "d": 283.6538083333289,
      "v": 91
    },
    {
      "midi": 60,
      "hit": false,
      "t": 126923.05999999869,
      "d": 283.6538083333289,
      "v": 118
    },
    {
      "midi": 64,
      "hit": false,
      "t": 126923.05999999869,
      "d": 283.6538083333289,
      "v": 121
    },
    {
      "midi": 67,
      "hit": false,
      "t": 126923.05999999869,
      "d": 283.6538083333289,
      "v": 115
    },
    {
      "midi": 36,
      "hit": false,
      "t": 126923.05999999869,
      "d": 576.9229999999952,
      "v": 97
    },
    {
      "midi": 36,
      "hit": false,
      "t": 127499.98299999868,
      "d": 283.6538083333289,
      "v": 107
    },
    {
      "midi": 48,
      "hit": false,
      "t": 127499.98299999868,
      "d": 283.6538083333289,
      "v": 97
    },
    {
      "midi": 60,
      "hit": false,
      "t": 127499.98299999868,
      "d": 283.6538083333289,
      "v": 121
    },
    {
      "midi": 64,
      "hit": false,
      "t": 127499.98299999868,
      "d": 283.6538083333289,
      "v": 118
    },
    {
      "midi": 67,
      "hit": false,
      "t": 127499.98299999868,
      "d": 283.6538083333289,
      "v": 107
    },
    {
      "midi": 60,
      "hit": false,
      "t": 127788.44449999867,
      "d": 283.6538083333289,
      "v": 115
    },
    {
      "midi": 64,
      "hit": false,
      "t": 127788.44449999867,
      "d": 283.6538083333289,
      "v": 118
    },
    {
      "midi": 67,
      "hit": false,
      "t": 127788.44449999867,
      "d": 283.6538083333289,
      "v": 107
    },
    {
      "midi": 36,
      "hit": false,
      "t": 128076.90599999866,
      "d": 283.6538083333289,
      "v": 107
    },
    {
      "midi": 48,
      "hit": false,
      "t": 128076.90599999866,
      "d": 283.6538083333289,
      "v": 103
    },
    {
      "midi": 60,
      "hit": false,
      "t": 128365.36749999865,
      "d": 283.6538083333289,
      "v": 118
    },
    {
      "midi": 64,
      "hit": false,
      "t": 128365.36749999865,
      "d": 283.6538083333289,
      "v": 121
    },
    {
      "midi": 67,
      "hit": false,
      "t": 128365.36749999865,
      "d": 283.6538083333289,
      "v": 115
    },
    {
      "midi": 36,
      "hit": false,
      "t": 128653.82899999864,
      "d": 283.6538083333289,
      "v": 118
    },
    {
      "midi": 48,
      "hit": false,
      "t": 128653.82899999864,
      "d": 283.6538083333289,
      "v": 115
    },
    {
      "midi": 60,
      "hit": false,
      "t": 128653.82899999864,
      "d": 283.6538083333289,
      "v": 121
    },
    {
      "midi": 64,
      "hit": false,
      "t": 128653.82899999864,
      "d": 283.6538083333289,
      "v": 121
    },
    {
      "midi": 67,
      "hit": false,
      "t": 128653.82899999864,
      "d": 283.6538083333289,
      "v": 118
    },
    {
      "midi": 48,
      "hit": false,
      "t": 129230.75199999864,
      "d": 283.6538083333289,
      "v": 91
    },
    {
      "midi": 60,
      "hit": false,
      "t": 129230.75199999864,
      "d": 283.6538083333289,
      "v": 118
    },
    {
      "midi": 64,
      "hit": false,
      "t": 129230.75199999864,
      "d": 283.6538083333289,
      "v": 121
    },
    {
      "midi": 67,
      "hit": false,
      "t": 129230.75199999864,
      "d": 283.6538083333289,
      "v": 115
    },
    {
      "midi": 36,
      "hit": false,
      "t": 129230.75199999864,
      "d": 576.9229999999952,
      "v": 97
    },
    {
      "midi": 36,
      "hit": false,
      "t": 129807.67499999864,
      "d": 283.6538083333289,
      "v": 107
    },
    {
      "midi": 48,
      "hit": false,
      "t": 129807.67499999864,
      "d": 283.6538083333289,
      "v": 97
    },
    {
      "midi": 60,
      "hit": false,
      "t": 129807.67499999864,
      "d": 283.6538083333289,
      "v": 121
    },
    {
      "midi": 64,
      "hit": false,
      "t": 129807.67499999864,
      "d": 283.6538083333289,
      "v": 118
    },
    {
      "midi": 67,
      "hit": false,
      "t": 129807.67499999864,
      "d": 283.6538083333289,
      "v": 107
    },
    {
      "midi": 60,
      "hit": false,
      "t": 130096.13649999863,
      "d": 283.6538083333289,
      "v": 115
    },
    {
      "midi": 64,
      "hit": false,
      "t": 130096.13649999863,
      "d": 283.6538083333289,
      "v": 118
    },
    {
      "midi": 67,
      "hit": false,
      "t": 130096.13649999863,
      "d": 283.6538083333289,
      "v": 107
    },
    {
      "midi": 36,
      "hit": false,
      "t": 130384.59799999862,
      "d": 283.6538083333289,
      "v": 107
    },
    {
      "midi": 48,
      "hit": false,
      "t": 130384.59799999862,
      "d": 283.6538083333289,
      "v": 103
    },
    {
      "midi": 60,
      "hit": false,
      "t": 130673.0594999986,
      "d": 283.6538083333289,
      "v": 118
    },
    {
      "midi": 64,
      "hit": false,
      "t": 130673.0594999986,
      "d": 283.6538083333289,
      "v": 121
    },
    {
      "midi": 67,
      "hit": false,
      "t": 130673.0594999986,
      "d": 283.6538083333289,
      "v": 115
    },
    {
      "midi": 36,
      "hit": false,
      "t": 130961.5209999986,
      "d": 283.6538083333435,
      "v": 118
    },
    {
      "midi": 48,
      "hit": false,
      "t": 130961.5209999986,
      "d": 283.6538083333435,
      "v": 115
    },
    {
      "midi": 60,
      "hit": false,
      "t": 130961.5209999986,
      "d": 283.6538083333435,
      "v": 121
    },
    {
      "midi": 64,
      "hit": false,
      "t": 130961.5209999986,
      "d": 283.6538083333435,
      "v": 121
    },
    {
      "midi": 67,
      "hit": false,
      "t": 130961.5209999986,
      "d": 283.6538083333435,
      "v": 118
    },
    {
      "midi": 41,
      "hit": false,
      "t": 131538.44399999862,
      "d": 283.6538083333289,
      "v": 115
    },
    {
      "midi": 53,
      "hit": false,
      "t": 131538.44399999862,
      "d": 283.6538083333289,
      "v": 107
    },
    {
      "midi": 57,
      "hit": false,
      "t": 131538.44399999862,
      "d": 283.6538083333289,
      "v": 118
    },
    {
      "midi": 60,
      "hit": false,
      "t": 131538.44399999862,
      "d": 283.6538083333289,
      "v": 118
    },
    {
      "midi": 65,
      "hit": false,
      "t": 131538.44399999862,
      "d": 283.6538083333289,
      "v": 118
    },
    {
      "midi": 41,
      "hit": false,
      "t": 132115.36699999863,
      "d": 283.6538083333289,
      "v": 107
    },
    {
      "midi": 53,
      "hit": false,
      "t": 132115.36699999863,
      "d": 283.6538083333289,
      "v": 97
    },
    {
      "midi": 57,
      "hit": false,
      "t": 132115.36699999863,
      "d": 283.6538083333289,
      "v": 118
    },
    {
      "midi": 60,
      "hit": false,
      "t": 132115.36699999863,
      "d": 283.6538083333289,
      "v": 122
    },
    {
      "midi": 65,
      "hit": false,
      "t": 132115.36699999863,
      "d": 283.6538083333289,
      "v": 118
    },
    {
      "midi": 41,
      "hit": false,
      "t": 132692.28999999864,
      "d": 283.6538083333289,
      "v": 118
    },
    {
      "midi": 53,
      "hit": false,
      "t": 132692.28999999864,
      "d": 283.6538083333289,
      "v": 118
    },
    {
      "midi": 57,
      "hit": false,
      "t": 132692.28999999864,
      "d": 283.6538083333289,
      "v": 121
    },
    {
      "midi": 60,
      "hit": false,
      "t": 132692.28999999864,
      "d": 283.6538083333289,
      "v": 121
    },
    {
      "midi": 65,
      "hit": false,
      "t": 132692.28999999864,
      "d": 283.6538083333289,
      "v": 121
    },
    {
      "midi": 41,
      "hit": false,
      "t": 133269.21299999865,
      "d": 283.6538083333289,
      "v": 87
    },
    {
      "midi": 53,
      "hit": false,
      "t": 133269.21299999865,
      "d": 283.6538083333289,
      "v": 93
    },
    {
      "midi": 57,
      "hit": false,
      "t": 133269.21299999865,
      "d": 283.6538083333289,
      "v": 121
    },
    {
      "midi": 60,
      "hit": false,
      "t": 133269.21299999865,
      "d": 283.6538083333289,
      "v": 121
    },
    {
      "midi": 63,
      "hit": false,
      "t": 133269.21299999865,
      "d": 283.6538083333289,
      "v": 103
    },
    {
      "midi": 65,
      "hit": false,
      "t": 133269.21299999865,
      "d": 283.6538083333289,
      "v": 115
    },
    {
      "midi": 57,
      "hit": false,
      "t": 133557.67449999865,
      "d": 283.6538083333289,
      "v": 97
    },
    {
      "midi": 60,
      "hit": false,
      "t": 133557.67449999865,
      "d": 283.6538083333289,
      "v": 97
    },
    {
      "midi": 65,
      "hit": false,
      "t": 133557.67449999865,
      "d": 283.6538083333289,
      "v": 115
    },
    {
      "midi": 38,
      "hit": false,
      "t": 133846.13599999866,
      "d": 283.6538083333289,
      "v": 107
    },
    {
      "midi": 50,
      "hit": false,
      "t": 133846.13599999866,
      "d": 283.6538083333289,
      "v": 103
    },
    {
      "midi": 57,
      "hit": false,
      "t": 133846.13599999866,
      "d": 283.6538083333289,
      "v": 121
    },
    {
      "midi": 62,
      "hit": false,
      "t": 133846.13599999866,
      "d": 283.6538083333289,
      "v": 121
    },
    {
      "midi": 65,
      "hit": false,
      "t": 133846.13599999866,
      "d": 283.6538083333289,
      "v": 118
    },
    {
      "midi": 57,
      "hit": false,
      "t": 134134.59749999866,
      "d": 283.6538083333289,
      "v": 91
    },
    {
      "midi": 62,
      "hit": false,
      "t": 134134.59749999866,
      "d": 283.6538083333289,
      "v": 107
    },
    {
      "midi": 65,
      "hit": false,
      "t": 134134.59749999866,
      "d": 283.6538083333289,
      "v": 103
    },
    {
      "midi": 38,
      "hit": false,
      "t": 134423.05899999867,
      "d": 283.6538083333289,
      "v": 118
    },
    {
      "midi": 50,
      "hit": false,
      "t": 134423.05899999867,
      "d": 283.6538083333289,
      "v": 121
    },
    {
      "midi": 57,
      "hit": false,
      "t": 134423.05899999867,
      "d": 283.6538083333289,
      "v": 121
    },
    {
      "midi": 62,
      "hit": false,
      "t": 134423.05899999867,
      "d": 283.6538083333289,
      "v": 122
    },
    {
      "midi": 65,
      "hit": false,
      "t": 134423.05899999867,
      "d": 283.6538083333289,
      "v": 118
    },
    {
      "midi": 57,
      "hit": false,
      "t": 134711.52049999867,
      "d": 283.6538083333289,
      "v": 118
    },
    {
      "midi": 62,
      "hit": false,
      "t": 134711.52049999867,
      "d": 283.6538083333289,
      "v": 121
    },
    {
      "midi": 65,
      "hit": false,
      "t": 134711.52049999867,
      "d": 283.6538083333289,
      "v": 118
    },
    {
      "midi": 38,
      "hit": false,
      "t": 134999.98199999868,
      "d": 283.6538083333289,
      "v": 118
    },
    {
      "midi": 50,
      "hit": false,
      "t": 134999.98199999868,
      "d": 283.6538083333289,
      "v": 118
    },
    {
      "midi": 57,
      "hit": false,
      "t": 135288.44349999868,
      "d": 283.6538083333289,
      "v": 115
    },
    {
      "midi": 62,
      "hit": false,
      "t": 135288.44349999868,
      "d": 283.6538083333289,
      "v": 115
    },
    {
      "midi": 65,
      "hit": false,
      "t": 135288.44349999868,
      "d": 283.6538083333289,
      "v": 107
    },
    {
      "midi": 38,
      "hit": false,
      "t": 135576.9049999987,
      "d": 283.6538083333289,
      "v": 118
    },
    {
      "midi": 50,
      "hit": false,
      "t": 135576.9049999987,
      "d": 283.6538083333289,
      "v": 118
    },
    {
      "midi": 57,
      "hit": false,
      "t": 135576.9049999987,
      "d": 283.6538083333289,
      "v": 103
    },
    {
      "midi": 62,
      "hit": false,
      "t": 135576.9049999987,
      "d": 283.6538083333289,
      "v": 115
    },
    {
      "midi": 65,
      "hit": false,
      "t": 135576.9049999987,
      "d": 283.6538083333289,
      "v": 107
    },
    {
      "midi": 57,
      "hit": false,
      "t": 135865.3664999987,
      "d": 283.6538083333289,
      "v": 97
    },
    {
      "midi": 62,
      "hit": false,
      "t": 135865.3664999987,
      "d": 283.6538083333289,
      "v": 97
    },
    {
      "midi": 65,
      "hit": false,
      "t": 135865.3664999987,
      "d": 283.6538083333289,
      "v": 107
    },
    {
      "midi": 34,
      "hit": false,
      "t": 136153.8279999987,
      "d": 283.6538083333289,
      "v": 107
    },
    {
      "midi": 46,
      "hit": false,
      "t": 136153.8279999987,
      "d": 283.6538083333289,
      "v": 97
    },
    {
      "midi": 58,
      "hit": false,
      "t": 136153.8279999987,
      "d": 283.6538083333289,
      "v": 122
    },
    {
      "midi": 62,
      "hit": false,
      "t": 136153.8279999987,
      "d": 283.6538083333289,
      "v": 115
    },
    {
      "midi": 65,
      "hit": false,
      "t": 136153.8279999987,
      "d": 283.6538083333289,
      "v": 118
    },
    {
      "midi": 34,
      "hit": false,
      "t": 136730.7509999987,
      "d": 283.6538083333289,
      "v": 107
    },
    {
      "midi": 46,
      "hit": false,
      "t": 136730.7509999987,
      "d": 283.6538083333289,
      "v": 103
    },
    {
      "midi": 58,
      "hit": false,
      "t": 136730.7509999987,
      "d": 283.6538083333289,
      "v": 107
    },
    {
      "midi": 62,
      "hit": false,
      "t": 136730.7509999987,
      "d": 283.6538083333289,
      "v": 107
    },
    {
      "midi": 65,
      "hit": false,
      "t": 136730.7509999987,
      "d": 283.6538083333289,
      "v": 103
    },
    {
      "midi": 58,
      "hit": false,
      "t": 137019.2124999987,
      "d": 283.6538083333289,
      "v": 107
    },
    {
      "midi": 62,
      "hit": false,
      "t": 137019.2124999987,
      "d": 283.6538083333289,
      "v": 103
    },
    {
      "midi": 65,
      "hit": false,
      "t": 137019.2124999987,
      "d": 283.6538083333289,
      "v": 103
    },
    {
      "midi": 34,
      "hit": false,
      "t": 137307.67399999872,
      "d": 283.6538083333289,
      "v": 118
    },
    {
      "midi": 46,
      "hit": false,
      "t": 137307.67399999872,
      "d": 283.6538083333289,
      "v": 121
    },
    {
      "midi": 58,
      "hit": false,
      "t": 137596.13549999872,
      "d": 283.6538083333289,
      "v": 97
    },
    {
      "midi": 62,
      "hit": false,
      "t": 137596.13549999872,
      "d": 283.6538083333289,
      "v": 107
    },
    {
      "midi": 65,
      "hit": false,
      "t": 137596.13549999872,
      "d": 283.6538083333289,
      "v": 93
    },
    {
      "midi": 34,
      "hit": false,
      "t": 137884.59699999873,
      "d": 283.6538083333289,
      "v": 115
    },
    {
      "midi": 46,
      "hit": false,
      "t": 137884.59699999873,
      "d": 283.6538083333289,
      "v": 115
    },
    {
      "midi": 58,
      "hit": false,
      "t": 137884.59699999873,
      "d": 283.6538083333289,
      "v": 103
    },
    {
      "midi": 62,
      "hit": false,
      "t": 137884.59699999873,
      "d": 283.6538083333289,
      "v": 107
    },
    {
      "midi": 65,
      "hit": false,
      "t": 137884.59699999873,
      "d": 283.6538083333289,
      "v": 103
    },
    {
      "midi": 58,
      "hit": false,
      "t": 138173.05849999873,
      "d": 283.6538083333289,
      "v": 93
    },
    {
      "midi": 62,
      "hit": false,
      "t": 138173.05849999873,
      "d": 283.6538083333289,
      "v": 97
    },
    {
      "midi": 65,
      "hit": false,
      "t": 138173.05849999873,
      "d": 283.6538083333289,
      "v": 91
    },
    {
      "midi": 36,
      "hit": false,
      "t": 138461.51999999874,
      "d": 283.6538083333289,
      "v": 97
    },
    {
      "midi": 48,
      "hit": false,
      "t": 138461.51999999874,
      "d": 283.6538083333289,
      "v": 83
    },
    {
      "midi": 60,
      "hit": false,
      "t": 138461.51999999874,
      "d": 283.6538083333289,
      "v": 115
    },
    {
      "midi": 64,
      "hit": false,
      "t": 138461.51999999874,
      "d": 283.6538083333289,
      "v": 118
    },
    {
      "midi": 67,
      "hit": false,
      "t": 138461.51999999874,
      "d": 283.6538083333289,
      "v": 115
    },
    {
      "midi": 36,
      "hit": false,
      "t": 139038.44299999875,
      "d": 283.6538083333289,
      "v": 97
    },
    {
      "midi": 48,
      "hit": false,
      "t": 139038.44299999875,
      "d": 283.6538083333289,
      "v": 83
    },
    {
      "midi": 60,
      "hit": false,
      "t": 139038.44299999875,
      "d": 283.6538083333289,
      "v": 115
    },
    {
      "midi": 64,
      "hit": false,
      "t": 139038.44299999875,
      "d": 283.6538083333289,
      "v": 107
    },
    {
      "midi": 67,
      "hit": false,
      "t": 139038.44299999875,
      "d": 283.6538083333289,
      "v": 97
    },
    {
      "midi": 60,
      "hit": false,
      "t": 139326.90449999875,
      "d": 283.6538083333289,
      "v": 107
    },
    {
      "midi": 64,
      "hit": false,
      "t": 139326.90449999875,
      "d": 283.6538083333289,
      "v": 103
    },
    {
      "midi": 67,
      "hit": false,
      "t": 139326.90449999875,
      "d": 283.6538083333289,
      "v": 103
    },
    {
      "midi": 36,
      "hit": false,
      "t": 139615.36599999876,
      "d": 283.6538083333289,
      "v": 107
    },
    {
      "midi": 48,
      "hit": false,
      "t": 139615.36599999876,
      "d": 283.6538083333289,
      "v": 103
    },
    {
      "midi": 60,
      "hit": false,
      "t": 139903.82749999876,
      "d": 283.6538083333289,
      "v": 103
    },
    {
      "midi": 64,
      "hit": false,
      "t": 139903.82749999876,
      "d": 283.6538083333289,
      "v": 103
    },
    {
      "midi": 67,
      "hit": false,
      "t": 139903.82749999876,
      "d": 283.6538083333289,
      "v": 97
    },
    {
      "midi": 36,
      "hit": false,
      "t": 140192.28899999877,
      "d": 283.6538083333289,
      "v": 103
    },
    {
      "midi": 48,
      "hit": false,
      "t": 140192.28899999877,
      "d": 283.6538083333289,
      "v": 93
    },
    {
      "midi": 60,
      "hit": false,
      "t": 140192.28899999877,
      "d": 283.6538083333289,
      "v": 115
    },
    {
      "midi": 64,
      "hit": false,
      "t": 140192.28899999877,
      "d": 283.6538083333289,
      "v": 115
    },
    {
      "midi": 67,
      "hit": false,
      "t": 140192.28899999877,
      "d": 283.6538083333289,
      "v": 115
    },
    {
      "midi": 60,
      "hit": false,
      "t": 140480.75049999877,
      "d": 283.6538083333289,
      "v": 97
    },
    {
      "midi": 64,
      "hit": false,
      "t": 140480.75049999877,
      "d": 283.6538083333289,
      "v": 97
    },
    {
      "midi": 67,
      "hit": false,
      "t": 140480.75049999877,
      "d": 283.6538083333289,
      "v": 107
    },
    {
      "midi": 41,
      "hit": false,
      "t": 140769.21199999878,
      "d": 283.6538083333289,
      "v": 93
    },
    {
      "midi": 53,
      "hit": false,
      "t": 140769.21199999878,
      "d": 283.6538083333289,
      "v": 75
    },
    {
      "midi": 57,
      "hit": false,
      "t": 140769.21199999878,
      "d": 283.6538083333289,
      "v": 115
    },
    {
      "midi": 60,
      "hit": false,
      "t": 140769.21199999878,
      "d": 283.6538083333289,
      "v": 118
    },
    {
      "midi": 65,
      "hit": false,
      "t": 140769.21199999878,
      "d": 283.6538083333289,
      "v": 107
    },
    {
      "midi": 41,
      "hit": false,
      "t": 141346.13499999876,
      "d": 283.6538083333289,
      "v": 107
    },
    {
      "midi": 53,
      "hit": false,
      "t": 141346.13499999876,
      "d": 283.6538083333289,
      "v": 103
    },
    {
      "midi": 57,
      "hit": false,
      "t": 141346.13499999876,
      "d": 283.6538083333289,
      "v": 103
    },
    {
      "midi": 60,
      "hit": false,
      "t": 141346.13499999876,
      "d": 283.6538083333289,
      "v": 118
    },
    {
      "midi": 65,
      "hit": false,
      "t": 141346.13499999876,
      "d": 283.6538083333289,
      "v": 103
    },
    {
      "midi": 57,
      "hit": false,
      "t": 141634.59649999876,
      "d": 283.65380833335803,
      "v": 118
    },
    {
      "midi": 60,
      "hit": false,
      "t": 141634.59649999876,
      "d": 283.65380833335803,
      "v": 122
    },
    {
      "midi": 65,
      "hit": false,
      "t": 141634.59649999876,
      "d": 283.65380833335803,
      "v": 118
    },
    {
      "midi": 41,
      "hit": false,
      "t": 141923.0579999988,
      "d": 283.6538083333289,
      "v": 115
    },
    {
      "midi": 53,
      "hit": false,
      "t": 141923.0579999988,
      "d": 283.6538083333289,
      "v": 115
    },
    {
      "midi": 57,
      "hit": false,
      "t": 142211.5194999988,
      "d": 283.6538083333289,
      "v": 115
    },
    {
      "midi": 60,
      "hit": false,
      "t": 142211.5194999988,
      "d": 283.6538083333289,
      "v": 118
    },
    {
      "midi": 65,
      "hit": false,
      "t": 142211.5194999988,
      "d": 283.6538083333289,
      "v": 107
    },
    {
      "midi": 41,
      "hit": false,
      "t": 142499.9809999988,
      "d": 283.6538083333289,
      "v": 107
    },
    {
      "midi": 53,
      "hit": false,
      "t": 142499.9809999988,
      "d": 283.6538083333289,
      "v": 103
    },
    {
      "midi": 57,
      "hit": false,
      "t": 142499.9809999988,
      "d": 283.6538083333289,
      "v": 118
    },
    {
      "midi": 60,
      "hit": false,
      "t": 142499.9809999988,
      "d": 283.6538083333289,
      "v": 121
    },
    {
      "midi": 65,
      "hit": false,
      "t": 142499.9809999988,
      "d": 283.6538083333289,
      "v": 115
    },
    {
      "midi": 57,
      "hit": false,
      "t": 142788.4424999988,
      "d": 283.6538083333289,
      "v": 97
    },
    {
      "midi": 60,
      "hit": false,
      "t": 142788.4424999988,
      "d": 283.6538083333289,
      "v": 97
    },
    {
      "midi": 65,
      "hit": false,
      "t": 142788.4424999988,
      "d": 283.6538083333289,
      "v": 103
    },
    {
      "midi": 38,
      "hit": false,
      "t": 143076.90399999882,
      "d": 283.6538083333289,
      "v": 91
    },
    {
      "midi": 50,
      "hit": false,
      "t": 143076.90399999882,
      "d": 283.6538083333289,
      "v": 91
    },
    {
      "midi": 57,
      "hit": false,
      "t": 143076.90399999882,
      "d": 283.6538083333289,
      "v": 115
    },
    {
      "midi": 62,
      "hit": false,
      "t": 143076.90399999882,
      "d": 283.6538083333289,
      "v": 118
    },
    {
      "midi": 65,
      "hit": false,
      "t": 143076.90399999882,
      "d": 283.6538083333289,
      "v": 118
    },
    {
      "midi": 38,
      "hit": false,
      "t": 143653.8269999988,
      "d": 283.6538083333289,
      "v": 103
    },
    {
      "midi": 50,
      "hit": false,
      "t": 143653.8269999988,
      "d": 283.6538083333289,
      "v": 97
    },
    {
      "midi": 57,
      "hit": false,
      "t": 143653.8269999988,
      "d": 283.6538083333289,
      "v": 115
    },
    {
      "midi": 62,
      "hit": false,
      "t": 143653.8269999988,
      "d": 283.6538083333289,
      "v": 115
    },
    {
      "midi": 65,
      "hit": false,
      "t": 143653.8269999988,
      "d": 283.6538083333289,
      "v": 93
    },
    {
      "midi": 57,
      "hit": false,
      "t": 143942.2884999988,
      "d": 283.6538083333289,
      "v": 115
    },
    {
      "midi": 62,
      "hit": false,
      "t": 143942.2884999988,
      "d": 283.6538083333289,
      "v": 118
    },
    {
      "midi": 65,
      "hit": false,
      "t": 143942.2884999988,
      "d": 283.6538083333289,
      "v": 107
    },
    {
      "midi": 38,
      "hit": false,
      "t": 144230.7499999988,
      "d": 283.6538083332998,
      "v": 103
    },
    {
      "midi": 50,
      "hit": false,
      "t": 144230.7499999988,
      "d": 283.6538083332998,
      "v": 107
    },
    {
      "midi": 57,
      "hit": false,
      "t": 144519.21149999878,
      "d": 283.6538083332998,
      "v": 107
    },
    {
      "midi": 62,
      "hit": false,
      "t": 144519.21149999878,
      "d": 283.6538083332998,
      "v": 121
    },
    {
      "midi": 65,
      "hit": false,
      "t": 144519.21149999878,
      "d": 283.6538083332998,
      "v": 107
    },
    {
      "midi": 38,
      "hit": false,
      "t": 144807.67299999876,
      "d": 283.6538083332998,
      "v": 93
    },
    {
      "midi": 50,
      "hit": false,
      "t": 144807.67299999876,
      "d": 283.6538083332998,
      "v": 115
    },
    {
      "midi": 57,
      "hit": false,
      "t": 144807.67299999876,
      "d": 283.6538083332998,
      "v": 107
    },
    {
      "midi": 62,
      "hit": false,
      "t": 144807.67299999876,
      "d": 283.6538083332998,
      "v": 118
    },
    {
      "midi": 65,
      "hit": false,
      "t": 144807.67299999876,
      "d": 283.6538083332998,
      "v": 103
    },
    {
      "midi": 57,
      "hit": false,
      "t": 145096.13449999873,
      "d": 283.6538083333289,
      "v": 87
    },
    {
      "midi": 62,
      "hit": false,
      "t": 145096.13449999873,
      "d": 283.6538083333289,
      "v": 103
    },
    {
      "midi": 65,
      "hit": false,
      "t": 145096.13449999873,
      "d": 283.6538083333289,
      "v": 107
    },
    {
      "midi": 34,
      "hit": false,
      "t": 145384.59599999874,
      "d": 283.6538083332998,
      "v": 93
    },
    {
      "midi": 46,
      "hit": false,
      "t": 145384.59599999874,
      "d": 283.6538083332998,
      "v": 97
    },
    {
      "midi": 58,
      "hit": false,
      "t": 145384.59599999874,
      "d": 283.6538083332998,
      "v": 122
    },
    {
      "midi": 62,
      "hit": false,
      "t": 145384.59599999874,
      "d": 283.6538083332998,
      "v": 107
    },
    {
      "midi": 65,
      "hit": false,
      "t": 145384.59599999874,
      "d": 283.6538083332998,
      "v": 107
    },
    {
      "midi": 34,
      "hit": false,
      "t": 145961.5189999987,
      "d": 283.6538083333289,
      "v": 97
    },
    {
      "midi": 46,
      "hit": false,
      "t": 145961.5189999987,
      "d": 283.6538083333289,
      "v": 93
    },
    {
      "midi": 58,
      "hit": false,
      "t": 145961.5189999987,
      "d": 283.6538083333289,
      "v": 107
    },
    {
      "midi": 62,
      "hit": false,
      "t": 145961.5189999987,
      "d": 283.6538083333289,
      "v": 103
    },
    {
      "midi": 65,
      "hit": false,
      "t": 145961.5189999987,
      "d": 283.6538083333289,
      "v": 107
    },
    {
      "midi": 58,
      "hit": false,
      "t": 146249.9804999987,
      "d": 283.6538083333289,
      "v": 107
    },
    {
      "midi": 62,
      "hit": false,
      "t": 146249.9804999987,
      "d": 283.6538083333289,
      "v": 107
    },
    {
      "midi": 65,
      "hit": false,
      "t": 146249.9804999987,
      "d": 283.6538083333289,
      "v": 107
    },
    {
      "midi": 34,
      "hit": false,
      "t": 146538.4419999987,
      "d": 283.6538083333289,
      "v": 118
    },
    {
      "midi": 46,
      "hit": false,
      "t": 146538.4419999987,
      "d": 283.6538083333289,
      "v": 118
    },
    {
      "midi": 58,
      "hit": false,
      "t": 146826.9034999987,
      "d": 283.6538083332998,
      "v": 115
    },
    {
      "midi": 62,
      "hit": false,
      "t": 146826.9034999987,
      "d": 283.6538083332998,
      "v": 107
    },
    {
      "midi": 65,
      "hit": false,
      "t": 146826.9034999987,
      "d": 283.6538083332998,
      "v": 115
    },
    {
      "midi": 34,
      "hit": false,
      "t": 147115.36499999868,
      "d": 283.6538083333289,
      "v": 107
    },
    {
      "midi": 46,
      "hit": false,
      "t": 147115.36499999868,
      "d": 283.6538083333289,
      "v": 107
    },
    {
      "midi": 58,
      "hit": false,
      "t": 147115.36499999868,
      "d": 283.6538083333289,
      "v": 103
    },
    {
      "midi": 62,
      "hit": false,
      "t": 147115.36499999868,
      "d": 283.6538083333289,
      "v": 107
    },
    {
      "midi": 65,
      "hit": false,
      "t": 147115.36499999868,
      "d": 283.6538083333289,
      "v": 107
    },
    {
      "midi": 58,
      "hit": false,
      "t": 147403.8264999987,
      "d": 283.6538083333289,
      "v": 91
    },
    {
      "midi": 62,
      "hit": false,
      "t": 147403.8264999987,
      "d": 283.6538083333289,
      "v": 97
    },
    {
      "midi": 65,
      "hit": false,
      "t": 147403.8264999987,
      "d": 283.6538083333289,
      "v": 103
    },
    {
      "midi": 36,
      "hit": false,
      "t": 147692.2879999987,
      "d": 283.6538083332998,
      "v": 93
    },
    {
      "midi": 48,
      "hit": false,
      "t": 147692.2879999987,
      "d": 283.6538083332998,
      "v": 77
    },
    {
      "midi": 60,
      "hit": false,
      "t": 147692.2879999987,
      "d": 283.6538083332998,
      "v": 118
    },
    {
      "midi": 64,
      "hit": false,
      "t": 147692.2879999987,
      "d": 283.6538083332998,
      "v": 118
    },
    {
      "midi": 67,
      "hit": false,
      "t": 147692.2879999987,
      "d": 283.6538083332998,
      "v": 103
    },
    {
      "midi": 36,
      "hit": false,
      "t": 148269.2109999986,
      "d": 283.6538083333289,
      "v": 93
    },
    {
      "midi": 48,
      "hit": false,
      "t": 148269.2109999986,
      "d": 283.6538083333289,
      "v": 97
    },
    {
      "midi": 60,
      "hit": false,
      "t": 148269.2109999986,
      "d": 283.6538083333289,
      "v": 107
    },
    {
      "midi": 64,
      "hit": false,
      "t": 148269.2109999986,
      "d": 283.6538083333289,
      "v": 103
    },
    {
      "midi": 67,
      "hit": false,
      "t": 148269.2109999986,
      "d": 283.6538083333289,
      "v": 103
    },
    {
      "midi": 60,
      "hit": false,
      "t": 148557.67249999862,
      "d": 283.6538083332998,
      "v": 118
    },
    {
      "midi": 64,
      "hit": false,
      "t": 148557.67249999862,
      "d": 283.6538083332998,
      "v": 115
    },
    {
      "midi": 67,
      "hit": false,
      "t": 148557.67249999862,
      "d": 283.6538083332998,
      "v": 103
    },
    {
      "midi": 36,
      "hit": false,
      "t": 148846.1339999986,
      "d": 283.6538083332998,
      "v": 115
    },
    {
      "midi": 48,
      "hit": false,
      "t": 148846.1339999986,
      "d": 283.6538083332998,
      "v": 115
    },
    {
      "midi": 60,
      "hit": false,
      "t": 149134.59549999857,
      "d": 283.6538083332707,
      "v": 121
    },
    {
      "midi": 64,
      "hit": false,
      "t": 149134.59549999857,
      "d": 283.6538083332707,
      "v": 118
    },
    {
      "midi": 67,
      "hit": false,
      "t": 149134.59549999857,
      "d": 283.6538083332707,
      "v": 115
    },
    {
      "midi": 36,
      "hit": false,
      "t": 149423.05699999852,
      "d": 283.6538083333289,
      "v": 107
    },
    {
      "midi": 48,
      "hit": false,
      "t": 149423.05699999852,
      "d": 283.6538083333289,
      "v": 103
    },
    {
      "midi": 60,
      "hit": false,
      "t": 149423.05699999852,
      "d": 283.6538083333289,
      "v": 118
    },
    {
      "midi": 64,
      "hit": false,
      "t": 149423.05699999852,
      "d": 283.6538083333289,
      "v": 115
    },
    {
      "midi": 67,
      "hit": false,
      "t": 149423.05699999852,
      "d": 283.6538083333289,
      "v": 107
    },
    {
      "midi": 60,
      "hit": false,
      "t": 149711.51849999852,
      "d": 283.65380833335803,
      "v": 115
    },
    {
      "midi": 64,
      "hit": false,
      "t": 149711.51849999852,
      "d": 283.65380833335803,
      "v": 107
    },
    {
      "midi": 67,
      "hit": false,
      "t": 149711.51849999852,
      "d": 283.65380833335803,
      "v": 103
    },
    {
      "midi": 41,
      "hit": false,
      "t": 149999.97999999856,
      "d": 283.6538083332998,
      "v": 115
    },
    {
      "midi": 53,
      "hit": false,
      "t": 149999.97999999856,
      "d": 283.6538083332998,
      "v": 107
    },
    {
      "midi": 57,
      "hit": false,
      "t": 149999.97999999856,
      "d": 283.6538083332998,
      "v": 121
    },
    {
      "midi": 60,
      "hit": false,
      "t": 149999.97999999856,
      "d": 576.9229999999516,
      "v": 121
    },
    {
      "midi": 65,
      "hit": false,
      "t": 149999.97999999856,
      "d": 576.9229999999516,
      "v": 121
    },
    {
      "midi": 41,
      "hit": false,
      "t": 150576.9029999985,
      "d": 283.6538083332998,
      "v": 107
    },
    {
      "midi": 53,
      "hit": false,
      "t": 150576.9029999985,
      "d": 283.6538083332998,
      "v": 107
    },
    {
      "midi": 57,
      "hit": false,
      "t": 150576.9029999985,
      "d": 283.6538083332998,
      "v": 121
    },
    {
      "midi": 60,
      "hit": false,
      "t": 150576.9029999985,
      "d": 283.6538083332998,
      "v": 118
    },
    {
      "midi": 65,
      "hit": false,
      "t": 150576.9029999985,
      "d": 283.6538083332998,
      "v": 107
    },
    {
      "midi": 57,
      "hit": false,
      "t": 150865.36449999848,
      "d": 283.6538083333289,
      "v": 115
    },
    {
      "midi": 60,
      "hit": false,
      "t": 150865.36449999848,
      "d": 283.6538083333289,
      "v": 115
    },
    {
      "midi": 65,
      "hit": false,
      "t": 150865.36449999848,
      "d": 283.6538083333289,
      "v": 107
    },
    {
      "midi": 41,
      "hit": false,
      "t": 151153.8259999985,
      "d": 283.6538083333289,
      "v": 118
    },
    {
      "midi": 53,
      "hit": false,
      "t": 151153.8259999985,
      "d": 283.6538083333289,
      "v": 121
    },
    {
      "midi": 57,
      "hit": false,
      "t": 151442.2874999985,
      "d": 283.6538083333289,
      "v": 118
    },
    {
      "midi": 60,
      "hit": false,
      "t": 151442.2874999985,
      "d": 283.6538083333289,
      "v": 121
    },
    {
      "midi": 65,
      "hit": false,
      "t": 151442.2874999985,
      "d": 283.6538083333289,
      "v": 118
    },
    {
      "midi": 41,
      "hit": false,
      "t": 151730.7489999985,
      "d": 283.6538083333289,
      "v": 115
    },
    {
      "midi": 53,
      "hit": false,
      "t": 151730.7489999985,
      "d": 283.6538083333289,
      "v": 97
    },
    {
      "midi": 57,
      "hit": false,
      "t": 151730.7489999985,
      "d": 283.6538083333289,
      "v": 118
    },
    {
      "midi": 60,
      "hit": false,
      "t": 151730.7489999985,
      "d": 283.6538083333289,
      "v": 121
    },
    {
      "midi": 65,
      "hit": false,
      "t": 151730.7489999985,
      "d": 283.6538083333289,
      "v": 118
    },
    {
      "midi": 57,
      "hit": false,
      "t": 152019.2104999985,
      "d": 283.6538083333289,
      "v": 97
    },
    {
      "midi": 60,
      "hit": false,
      "t": 152019.2104999985,
      "d": 283.6538083333289,
      "v": 103
    },
    {
      "midi": 65,
      "hit": false,
      "t": 152019.2104999985,
      "d": 283.6538083333289,
      "v": 97
    }
  ]
}