{
  "jsonPath": "Rock/Folk Rock/The Everly Brothers/cathys-clown-single-version-2006-remastered.json",
  "path": "Rock\\Folk Rock\\The Everly Brothers\\Cathys Clown  (Single Version) (2006 Remastered).mid",
  "name": "Cathys Clown  (Single Version) (2006 Remastered)",
  "difficulty": "Advanced",
  "bpm": 119.00016065021688,
  "notes": [
    {
      "midi": 43,
      "hit": false,
      "t": 2016.804,
      "d": 640.7554375,
      "v": 88
    },
    {
      "midi": 31,
      "hit": false,
      "t": 2022.0560937500002,
      "d": 714.28475,
      "v": 102
    },
    {
      "midi": 62,
      "hit": false,
      "t": 2515.7529062500003,
      "d": 120.79815624999992,
      "v": 109
    },
    {
      "midi": 59,
      "hit": false,
      "t": 2515.7529062500003,
      "d": 131.3023437500001,
      "v": 109
    },
    {
      "midi": 67,
      "hit": false,
      "t": 2515.7529062500003,
      "d": 136.55443749999995,
      "v": 109
    },
    {
      "midi": 26,
      "hit": false,
      "t": 3019.9539062500003,
      "d": 630.2512500000003,
      "v": 93
    },
    {
      "midi": 38,
      "hit": false,
      "t": 3019.9539062500003,
      "d": 693.2763750000004,
      "v": 88
    },
    {
      "midi": 57,
      "hit": false,
      "t": 3524.1549062500003,
      "d": 110.2939687500002,
      "v": 114
    },
    {
      "midi": 62,
      "hit": false,
      "t": 3524.1549062500003,
      "d": 126.05025000000023,
      "v": 104
    },
    {
      "midi": 66,
      "hit": false,
      "t": 3524.1549062500003,
      "d": 126.05025000000023,
      "v": 91
    },
    {
      "midi": 43,
      "hit": false,
      "t": 4028.3559062500008,
      "d": 672.268,
      "v": 88
    },
    {
      "midi": 31,
      "hit": false,
      "t": 4028.3559062500008,
      "d": 740.5452187500005,
      "v": 98
    },
    {
      "midi": 62,
      "hit": false,
      "t": 4532.556906250001,
      "d": 89.28559374999986,
      "v": 104
    },
    {
      "midi": 59,
      "hit": false,
      "t": 4532.556906250001,
      "d": 99.78978124999958,
      "v": 114
    },
    {
      "midi": 67,
      "hit": false,
      "t": 4532.556906250001,
      "d": 105.04187499999989,
      "v": 104
    },
    {
      "midi": 26,
      "hit": false,
      "t": 5036.757906250001,
      "d": 619.7470625000005,
      "v": 93
    },
    {
      "midi": 38,
      "hit": false,
      "t": 5036.757906250001,
      "d": 656.5117187500009,
      "v": 93
    },
    {
      "midi": 57,
      "hit": false,
      "t": 5540.958906250001,
      "d": 94.53768750000017,
      "v": 104
    },
    {
      "midi": 62,
      "hit": false,
      "t": 5540.958906250001,
      "d": 110.2939687500002,
      "v": 104
    },
    {
      "midi": 66,
      "hit": false,
      "t": 5540.958906250001,
      "d": 110.2939687500002,
      "v": 91
    },
    {
      "midi": 43,
      "hit": false,
      "t": 6045.159906250002,
      "d": 751.0494062500002,
      "v": 88
    },
    {
      "midi": 31,
      "hit": false,
      "t": 6045.159906250002,
      "d": 766.8056875000002,
      "v": 93
    },
    {
      "midi": 67,
      "hit": false,
      "t": 6549.360906250002,
      "d": 99.78978124999958,
      "v": 104
    },
    {
      "midi": 59,
      "hit": false,
      "t": 6549.360906250002,
      "d": 105.04187499999989,
      "v": 109
    },
    {
      "midi": 62,
      "hit": false,
      "t": 6549.360906250002,
      "d": 110.2939687500002,
      "v": 104
    },
    {
      "midi": 26,
      "hit": false,
      "t": 7064.0660937500015,
      "d": 588.2345000000005,
      "v": 93
    },
    {
      "midi": 38,
      "hit": false,
      "t": 7064.0660937500015,
      "d": 646.0075312500003,
      "v": 93
    },
    {
      "midi": 57,
      "hit": false,
      "t": 7568.267093750002,
      "d": 94.53768750000017,
      "v": 114
    },
    {
      "midi": 66,
      "hit": false,
      "t": 7568.267093750002,
      "d": 105.04187499999989,
      "v": 95
    },
    {
      "midi": 62,
      "hit": false,
      "t": 7568.267093750002,
      "d": 110.2939687500002,
      "v": 109
    },
    {
      "midi": 43,
      "hit": false,
      "t": 8056.7118125000015,
      "d": 278.3609687499993,
      "v": 88
    },
    {
      "midi": 31,
      "hit": false,
      "t": 8056.7118125000015,
      "d": 283.6130624999987,
      "v": 98
    },
    {
      "midi": 43,
      "hit": false,
      "t": 10084.02,
      "d": 504.2009999999991,
      "v": 88
    },
    {
      "midi": 31,
      "hit": false,
      "t": 10084.02,
      "d": 535.7135624999992,
      "v": 98
    },
    {
      "midi": 59,
      "hit": false,
      "t": 10582.96890625,
      "d": 115.5460624999996,
      "v": 109
    },
    {
      "midi": 62,
      "hit": false,
      "t": 10582.96890625,
      "d": 120.79815624999901,
      "v": 109
    },
    {
      "midi": 67,
      "hit": false,
      "t": 10582.96890625,
      "d": 131.30234374999964,
      "v": 98
    },
    {
      "midi": 26,
      "hit": false,
      "t": 11087.16990625,
      "d": 525.2093749999985,
      "v": 88
    },
    {
      "midi": 38,
      "hit": false,
      "t": 11087.16990625,
      "d": 546.217749999998,
      "v": 88
    },
    {
      "midi": 57,
      "hit": false,
      "t": 11591.370906249998,
      "d": 105.04187499999898,
      "v": 109
    },
    {
      "midi": 62,
      "hit": false,
      "t": 11591.370906249998,
      "d": 115.5460624999996,
      "v": 104
    },
    {
      "midi": 66,
      "hit": false,
      "t": 11591.370906249998,
      "d": 131.30234374999964,
      "v": 95
    },
    {
      "midi": 43,
      "hit": false,
      "t": 12095.571906249997,
      "d": 582.9824062499993,
      "v": 88
    },
    {
      "midi": 31,
      "hit": false,
      "t": 12095.571906249997,
      "d": 598.7386874999993,
      "v": 93
    },
    {
      "midi": 59,
      "hit": false,
      "t": 12599.772906249997,
      "d": 105.0418750000008,
      "v": 114
    },
    {
      "midi": 67,
      "hit": false,
      "t": 12599.772906249997,
      "d": 110.2939687500002,
      "v": 104
    },
    {
      "midi": 62,
      "hit": false,
      "t": 12599.772906249997,
      "d": 115.5460624999996,
      "v": 104
    },
    {
      "midi": 26,
      "hit": false,
      "t": 13103.973906249996,
      "d": 514.7051874999997,
      "v": 93
    },
    {
      "midi": 38,
      "hit": false,
      "t": 13103.973906249996,
      "d": 540.9656562500004,
      "v": 88
    },
    {
      "midi": 57,
      "hit": false,
      "t": 13608.174906249995,
      "d": 99.7897812500014,
      "v": 109
    },
    {
      "midi": 62,
      "hit": false,
      "t": 13608.174906249995,
      "d": 105.0418750000008,
      "v": 104
    },
    {
      "midi": 66,
      "hit": false,
      "t": 13608.174906249995,
      "d": 120.79815625000083,
      "v": 91
    },
    {
      "midi": 43,
      "hit": false,
      "t": 14112.375906249996,
      "d": 582.9824062500011,
      "v": 88
    },
    {
      "midi": 31,
      "hit": false,
      "t": 14112.375906249996,
      "d": 619.7470625000005,
      "v": 93
    },
    {
      "midi": 59,
      "hit": false,
      "t": 14616.576906249997,
      "d": 120.79815624999901,
      "v": 114
    },
    {
      "midi": 62,
      "hit": false,
      "t": 14616.576906249997,
      "d": 126.05024999999841,
      "v": 104
    },
    {
      "midi": 67,
      "hit": false,
      "t": 14616.576906249997,
      "d": 131.30234374999782,
      "v": 104
    },
    {
      "midi": 26,
      "hit": false,
      "t": 15120.777906249994,
      "d": 525.2093750000004,
      "v": 88
    },
    {
      "midi": 38,
      "hit": false,
      "t": 15120.777906249994,
      "d": 551.469843750001,
      "v": 88
    },
    {
      "midi": 57,
      "hit": false,
      "t": 15624.978906249995,
      "d": 99.78978124999958,
      "v": 109
    },
    {
      "midi": 62,
      "hit": false,
      "t": 15624.978906249995,
      "d": 105.04187499999898,
      "v": 109
    },
    {
      "midi": 66,
      "hit": false,
      "t": 15624.978906249995,
      "d": 126.05024999999841,
      "v": 95
    },
    {
      "midi": 43,
      "hit": false,
      "t": 16134.431999999993,
      "d": 572.4782187499986,
      "v": 93
    },
    {
      "midi": 31,
      "hit": false,
      "t": 16134.431999999993,
      "d": 630.2512500000012,
      "v": 98
    },
    {
      "midi": 59,
      "hit": false,
      "t": 16633.380906249993,
      "d": 126.05025000000023,
      "v": 109
    },
    {
      "midi": 67,
      "hit": false,
      "t": 16633.380906249993,
      "d": 131.30234375000146,
      "v": 104
    },
    {
      "midi": 62,
      "hit": false,
      "t": 16633.380906249993,
      "d": 136.55443750000268,
      "v": 104
    },
    {
      "midi": 26,
      "hit": false,
      "t": 17148.086093749997,
      "d": 509.4530937499985,
      "v": 88
    },
    {
      "midi": 38,
      "hit": false,
      "t": 17148.086093749997,
      "d": 525.2093749999985,
      "v": 93
    },
    {
      "midi": 57,
      "hit": false,
      "t": 17641.782906249995,
      "d": 99.7897812500014,
      "v": 114
    },
    {
      "midi": 62,
      "hit": false,
      "t": 17641.782906249995,
      "d": 110.2939687500002,
      "v": 104
    },
    {
      "midi": 66,
      "hit": false,
      "t": 17641.782906249995,
      "d": 120.79815624999901,
      "v": 91
    },
    {
      "midi": 43,
      "hit": false,
      "t": 18145.983906249992,
      "d": 609.2428749999999,
      "v": 93
    },
    {
      "midi": 31,
      "hit": false,
      "t": 18145.983906249992,
      "d": 640.7554375,
      "v": 93
    },
    {
      "midi": 59,
      "hit": false,
      "t": 18650.184906249993,
      "d": 110.2939687500002,
      "v": 114
    },
    {
      "midi": 67,
      "hit": false,
      "t": 18650.184906249993,
      "d": 120.79815624999901,
      "v": 109
    },
    {
      "midi": 62,
      "hit": false,
      "t": 18650.184906249993,
      "d": 126.05025000000023,
      "v": 109
    },
    {
      "midi": 26,
      "hit": false,
      "t": 19159.63799999999,
      "d": 567.226125000001,
      "v": 93
    },
    {
      "midi": 38,
      "hit": false,
      "t": 19159.63799999999,
      "d": 582.9824062500011,
      "v": 93
    },
    {
      "midi": 57,
      "hit": false,
      "t": 19658.58690624999,
      "d": 105.04187500000262,
      "v": 109
    },
    {
      "midi": 62,
      "hit": false,
      "t": 19658.58690624999,
      "d": 110.29396875000384,
      "v": 104
    },
    {
      "midi": 66,
      "hit": false,
      "t": 19658.58690624999,
      "d": 115.54606250000506,
      "v": 95
    },
    {
      "midi": 43,
      "hit": false,
      "t": 20162.787906249996,
      "d": 572.4782187500023,
      "v": 85
    },
    {
      "midi": 31,
      "hit": false,
      "t": 20162.787906249996,
      "d": 619.7470625000024,
      "v": 93
    },
    {
      "midi": 59,
      "hit": false,
      "t": 20666.988906249997,
      "d": 110.2939687500002,
      "v": 109
    },
    {
      "midi": 67,
      "hit": false,
      "t": 20666.988906249997,
      "d": 120.79815625000265,
      "v": 104
    },
    {
      "midi": 62,
      "hit": false,
      "t": 20666.988906249997,
      "d": 126.05025000000387,
      "v": 104
    },
    {
      "midi": 26,
      "hit": false,
      "t": 21171.18990625,
      "d": 588.2345000000023,
      "v": 85
    },
    {
      "midi": 38,
      "hit": false,
      "t": 21171.18990625,
      "d": 619.7470625000024,
      "v": 85
    },
    {
      "midi": 57,
      "hit": false,
      "t": 21675.390906250002,
      "d": 99.7897812500014,
      "v": 114
    },
    {
      "midi": 62,
      "hit": false,
      "t": 21675.390906250002,
      "d": 115.54606250000143,
      "v": 109
    },
    {
      "midi": 66,
      "hit": false,
      "t": 21675.390906250002,
      "d": 126.05025000000023,
      "v": 95
    },
    {
      "midi": 43,
      "hit": false,
      "t": 22179.591906250003,
      "d": 588.2345000000023,
      "v": 93
    },
    {
      "midi": 31,
      "hit": false,
      "t": 22179.591906250003,
      "d": 635.5033437500024,
      "v": 98
    },
    {
      "midi": 59,
      "hit": false,
      "t": 22683.792906250004,
      "d": 110.2939687500002,
      "v": 109
    },
    {
      "midi": 62,
      "hit": false,
      "t": 22683.792906250004,
      "d": 115.54606250000143,
      "v": 104
    },
    {
      "midi": 67,
      "hit": false,
      "t": 22683.792906250004,
      "d": 120.79815625000265,
      "v": 104
    },
    {
      "midi": 26,
      "hit": false,
      "t": 23187.993906250005,
      "d": 551.469843750001,
      "v": 88
    },
    {
      "midi": 38,
      "hit": false,
      "t": 23187.993906250005,
      "d": 561.9740312499998,
      "v": 98
    },
    {
      "midi": 57,
      "hit": false,
      "t": 23692.194906250006,
      "d": 105.04187499999898,
      "v": 114
    },
    {
      "midi": 62,
      "hit": false,
      "t": 23692.194906250006,
      "d": 115.54606249999779,
      "v": 109
    },
    {
      "midi": 66,
      "hit": false,
      "t": 23692.194906250006,
      "d": 126.0502499999966,
      "v": 95
    },
    {
      "midi": 43,
      "hit": false,
      "t": 24196.395906250003,
      "d": 582.9824062500011,
      "v": 93
    },
    {
      "midi": 31,
      "hit": false,
      "t": 24196.395906250003,
      "d": 609.2428749999999,
      "v": 98
    },
    {
      "midi": 59,
      "hit": false,
      "t": 24711.101093750003,
      "d": 99.7897812500014,
      "v": 109
    },
    {
      "midi": 62,
      "hit": false,
      "t": 24711.101093750003,
      "d": 105.04187500000262,
      "v": 104
    },
    {
      "midi": 67,
      "hit": false,
      "t": 24711.101093750003,
      "d": 115.54606250000143,
      "v": 109
    },
    {
      "midi": 26,
      "hit": false,
      "t": 25210.050000000003,
      "d": 551.469843750001,
      "v": 88
    },
    {
      "midi": 38,
      "hit": false,
      "t": 25210.050000000003,
      "d": 567.226125000001,
      "v": 93
    },
    {
      "midi": 59,
      "hit": false,
      "t": 25714.251000000004,
      "d": 115.54606250000143,
      "v": 109
    },
    {
      "midi": 67,
      "hit": false,
      "t": 25714.251000000004,
      "d": 136.55443750000268,
      "v": 109
    },
    {
      "midi": 62,
      "hit": false,
      "t": 25714.251000000004,
      "d": 141.8065312500039,
      "v": 109
    },
    {
      "midi": 52,
      "hit": false,
      "t": 26223.704093750006,
      "d": 514.7051874999997,
      "v": 93
    },
    {
      "midi": 40,
      "hit": false,
      "t": 26223.704093750006,
      "d": 540.9656562499986,
      "v": 102
    },
    {
      "midi": 59,
      "hit": false,
      "t": 26717.400906250004,
      "d": 110.2939687500002,
      "v": 114
    },
    {
      "midi": 64,
      "hit": false,
      "t": 26717.400906250004,
      "d": 110.2939687500002,
      "v": 104
    },
    {
      "midi": 67,
      "hit": false,
      "t": 26717.400906250004,
      "d": 120.79815624999901,
      "v": 109
    },
    {
      "midi": 35,
      "hit": false,
      "t": 27221.60190625,
      "d": 540.9656562500022,
      "v": 93
    },
    {
      "midi": 47,
      "hit": false,
      "t": 27221.60190625,
      "d": 577.7303125000035,
      "v": 88
    },
    {
      "midi": 59,
      "hit": false,
      "t": 27725.802906250003,
      "d": 105.04187500000262,
      "v": 109
    },
    {
      "midi": 64,
      "hit": false,
      "t": 27725.802906250003,
      "d": 115.54606250000143,
      "v": 109
    },
    {
      "midi": 67,
      "hit": false,
      "t": 27725.802906250003,
      "d": 120.79815625000265,
      "v": 98
    },
    {
      "midi": 40,
      "hit": false,
      "t": 28224.751812500006,
      "d": 651.2596250000024,
      "v": 98
    },
    {
      "midi": 52,
      "hit": false,
      "t": 28230.003906250007,
      "d": 651.2596250000024,
      "v": 98
    },
    {
      "midi": 67,
      "hit": false,
      "t": 28734.20490625001,
      "d": 126.05025000000023,
      "v": 104
    },
    {
      "midi": 59,
      "hit": false,
      "t": 28739.45700000001,
      "d": 110.2939687500002,
      "v": 109
    },
    {
      "midi": 64,
      "hit": false,
      "t": 28739.45700000001,
      "d": 126.05025000000023,
      "v": 104
    },
    {
      "midi": 52,
      "hit": false,
      "t": 29243.65800000001,
      "d": 624.9991562499963,
      "v": 102
    },
    {
      "midi": 40,
      "hit": false,
      "t": 29243.65800000001,
      "d": 656.5117187499964,
      "v": 108
    },
    {
      "midi": 59,
      "hit": false,
      "t": 29753.11109375001,
      "d": 105.04187499999898,
      "v": 114
    },
    {
      "midi": 64,
      "hit": false,
      "t": 29753.11109375001,
      "d": 105.04187499999898,
      "v": 104
    },
    {
      "midi": 67,
      "hit": false,
      "t": 29753.11109375001,
      "d": 120.79815624999901,
      "v": 104
    },
    {
      "midi": 48,
      "hit": false,
      "t": 30246.807906250007,
      "d": 593.4865937499999,
      "v": 93
    },
    {
      "midi": 36,
      "hit": false,
      "t": 30246.807906250007,
      "d": 630.2512500000012,
      "v": 98
    },
    {
      "midi": 60,
      "hit": false,
      "t": 30751.00890625001,
      "d": 94.53768750000017,
      "v": 98
    },
    {
      "midi": 64,
      "hit": false,
      "t": 30751.00890625001,
      "d": 105.04187499999898,
      "v": 109
    },
    {
      "midi": 67,
      "hit": false,
      "t": 30751.00890625001,
      "d": 110.2939687500002,
      "v": 109
    },
    {
      "midi": 36,
      "hit": false,
      "t": 31255.20990625001,
      "d": 603.9907812500023,
      "v": 98
    },
    {
      "midi": 48,
      "hit": false,
      "t": 31255.20990625001,
      "d": 614.4949687500011,
      "v": 93
    },
    {
      "midi": 60,
      "hit": false,
      "t": 31759.41090625001,
      "d": 94.53768750000017,
      "v": 98
    },
    {
      "midi": 64,
      "hit": false,
      "t": 31759.41090625001,
      "d": 110.2939687500002,
      "v": 104
    },
    {
      "midi": 67,
      "hit": false,
      "t": 31759.41090625001,
      "d": 136.55443749999904,
      "v": 104
    },
    {
      "midi": 38,
      "hit": false,
      "t": 32263.611906250007,
      "d": 157.5628125000003,
      "v": 93
    },
    {
      "midi": 50,
      "hit": false,
      "t": 32263.611906250007,
      "d": 194.32746875000157,
      "v": 98
    },
    {
      "midi": 60,
      "hit": false,
      "t": 32762.56081250001,
      "d": 120.79815625000265,
      "v": 88
    },
    {
      "midi": 78,
      "hit": false,
      "t": 32767.812906250012,
      "d": 89.28559374999531,
      "v": 114
    },
    {
      "midi": 74,
      "hit": false,
      "t": 32767.812906250012,
      "d": 94.53768749999654,
      "v": 94
    },
    {
      "midi": 69,
      "hit": false,
      "t": 32767.812906250012,
      "d": 99.78978124999776,
      "v": 94
    },
    {
      "midi": 72,
      "hit": false,
      "t": 32767.812906250012,
      "d": 105.04187499999898,
      "v": 94
    },
    {
      "midi": 50,
      "hit": false,
      "t": 32767.812906250012,
      "d": 126.05025000000387,
      "v": 93
    },
    {
      "midi": 43,
      "hit": false,
      "t": 34285.66800000002,
      "d": 567.226125000001,
      "v": 85
    },
    {
      "midi": 31,
      "hit": false,
      "t": 34285.66800000002,
      "d": 603.9907812500023,
      "v": 88
    },
    {
      "midi": 59,
      "hit": false,
      "t": 34784.61690625002,
      "d": 115.54606250000506,
      "v": 109
    },
    {
      "midi": 62,
      "hit": false,
      "t": 34784.61690625002,
      "d": 120.79815625000629,
      "v": 109
    },
    {
      "midi": 67,
      "hit": false,
      "t": 34784.61690625002,
      "d": 126.05025000000751,
      "v": 98
    },
    {
      "midi": 26,
      "hit": false,
      "t": 35288.81790625003,
      "d": 540.9656562500022,
      "v": 85
    },
    {
      "midi": 38,
      "hit": false,
      "t": 35288.81790625003,
      "d": 561.9740312499998,
      "v": 93
    },
    {
      "midi": 62,
      "hit": false,
      "t": 35793.01890625003,
      "d": 89.28559374999895,
      "v": 104
    },
    {
      "midi": 57,
      "hit": false,
      "t": 35793.01890625003,
      "d": 94.53768750000017,
      "v": 109
    },
    {
      "midi": 66,
      "hit": false,
      "t": 35793.01890625003,
      "d": 105.04187500000262,
      "v": 91
    },
    {
      "midi": 43,
      "hit": false,
      "t": 36297.21990625003,
      "d": 577.7303125000035,
      "v": 88
    },
    {
      "midi": 31,
      "hit": false,
      "t": 36297.21990625003,
      "d": 609.2428750000036,
      "v": 93
    },
    {
      "midi": 59,
      "hit": false,
      "t": 36801.42090625003,
      "d": 105.04187500000262,
      "v": 114
    },
    {
      "midi": 62,
      "hit": false,
      "t": 36801.42090625003,
      "d": 120.79815624999901,
      "v": 109
    },
    {
      "midi": 67,
      "hit": false,
      "t": 36801.42090625003,
      "d": 120.79815624999901,
      "v": 109
    },
    {
      "midi": 26,
      "hit": false,
      "t": 37316.12609375003,
      "d": 540.9656562499949,
      "v": 81
    },
    {
      "midi": 38,
      "hit": false,
      "t": 37316.12609375003,
      "d": 572.478218749995,
      "v": 93
    },
    {
      "midi": 57,
      "hit": false,
      "t": 37809.822906250025,
      "d": 105.04187499999534,
      "v": 109
    },
    {
      "midi": 66,
      "hit": false,
      "t": 37809.822906250025,
      "d": 105.04187499999534,
      "v": 91
    },
    {
      "midi": 62,
      "hit": false,
      "t": 37809.822906250025,
      "d": 115.54606249999779,
      "v": 104
    },
    {
      "midi": 43,
      "hit": false,
      "t": 38314.023906250026,
      "d": 582.9824062499974,
      "v": 88
    },
    {
      "midi": 31,
      "hit": false,
      "t": 38314.023906250026,
      "d": 609.2428749999963,
      "v": 88
    },
    {
      "midi": 59,
      "hit": false,
      "t": 38818.22490625003,
      "d": 94.5376874999929,
      "v": 109
    },
    {
      "midi": 62,
      "hit": false,
      "t": 38818.22490625003,
      "d": 99.78978124999412,
      "v": 98
    },
    {
      "midi": 67,
      "hit": false,
      "t": 38818.22490625003,
      "d": 99.78978124999412,
      "v": 104
    },
    {
      "midi": 26,
      "hit": false,
      "t": 39322.42590625002,
      "d": 577.7303125000035,
      "v": 85
    },
    {
      "midi": 38,
      "hit": false,
      "t": 39322.42590625002,
      "d": 614.4949687500048,
      "v": 93
    },
    {
      "midi": 57,
      "hit": false,
      "t": 39826.62690625002,
      "d": 94.53768750000017,
      "v": 114
    },
    {
      "midi": 62,
      "hit": false,
      "t": 39826.62690625002,
      "d": 105.04187500000262,
      "v": 109
    },
    {
      "midi": 66,
      "hit": false,
      "t": 39826.62690625002,
      "d": 110.29396875000384,
      "v": 95
    },
    {
      "midi": 59,
      "hit": false,
      "t": 40325.57581250003,
      "d": 99.7897812500014,
      "v": 120
    },
    {
      "midi": 67,
      "hit": false,
      "t": 40325.57581250003,
      "d": 110.29396875000384,
      "v": 98
    },
    {
      "midi": 62,
      "hit": false,
      "t": 40325.57581250003,
      "d": 115.54606250000506,
      "v": 114
    },
    {
      "midi": 43,
      "hit": false,
      "t": 40330.82790625003,
      "d": 131.30234375000146,
      "v": 98
    },
    {
      "midi": 31,
      "hit": false,
      "t": 40330.82790625003,
      "d": 141.8065312500039,
      "v": 102
    },
    {
      "midi": 55,
      "hit": false,
      "t": 42358.136093750036,
      "d": 709.032656250005,
      "v": 88
    },
    {
      "midi": 43,
      "hit": false,
      "t": 42358.136093750036,
      "d": 772.0577812500051,
      "v": 85
    },
    {
      "midi": 86,
      "hit": false,
      "t": 42851.832906250034,
      "d": 173.31909375000396,
      "v": 91
    },
    {
      "midi": 74,
      "hit": false,
      "t": 42857.085000000036,
      "d": 141.8065312500039,
      "v": 98
    },
    {
      "midi": 79,
      "hit": false,
      "t": 42857.085000000036,
      "d": 152.31071875000634,
      "v": 98
    },
    {
      "midi": 83,
      "hit": false,
      "t": 42862.33709375004,
      "d": 162.8149062500015,
      "v": 98
    },
    {
      "midi": 76,
      "hit": false,
      "t": 43356.03390625004,
      "d": 210.08374999999796,
      "v": 95
    },
    {
      "midi": 79,
      "hit": false,
      "t": 43356.03390625004,
      "d": 225.84003124999435,
      "v": 88
    },
    {
      "midi": 84,
      "hit": false,
      "t": 43356.03390625004,
      "d": 225.84003124999435,
      "v": 95
    },
    {
      "midi": 88,
      "hit": false,
      "t": 43356.03390625004,
      "d": 236.3442187499968,
      "v": 95
    },
    {
      "midi": 36,
      "hit": false,
      "t": 43361.286000000044,
      "d": 703.7805624999964,
      "v": 93
    },
    {
      "midi": 48,
      "hit": false,
      "t": 43361.286000000044,
      "d": 740.5452187499977,
      "v": 79
    },
    {
      "midi": 88,
      "hit": false,
      "t": 43644.89906250004,
      "d": 136.55443750000268,
      "v": 104
    },
    {
      "midi": 84,
      "hit": false,
      "t": 43644.89906250004,
      "d": 141.8065312500039,
      "v": 98
    },
    {
      "midi": 76,
      "hit": false,
      "t": 43644.89906250004,
      "d": 152.31071875000634,
      "v": 73
    },
    {
      "midi": 79,
      "hit": false,
      "t": 43644.89906250004,
      "d": 168.06700000000274,
      "v": 98
    },
    {
      "midi": 79,
      "hit": false,
      "t": 44149.10006250004,
      "d": 420.1674999999959,
      "v": 91
    },
    {
      "midi": 83,
      "hit": false,
      "t": 44149.10006250004,
      "d": 441.17587499999354,
      "v": 98
    },
    {
      "midi": 74,
      "hit": false,
      "t": 44149.10006250004,
      "d": 467.4363437499924,
      "v": 98
    },
    {
      "midi": 86,
      "hit": false,
      "t": 44149.10006250004,
      "d": 530.4614687499925,
      "v": 95
    },
    {
      "midi": 55,
      "hit": false,
      "t": 44364.43590625004,
      "d": 761.5535937499953,
      "v": 85
    },
    {
      "midi": 43,
      "hit": false,
      "t": 44364.43590625004,
      "d": 829.8308124999967,
      "v": 88
    },
    {
      "midi": 79,
      "hit": false,
      "t": 44653.30106250003,
      "d": 115.54606249999779,
      "v": 80
    },
    {
      "midi": 74,
      "hit": false,
      "t": 44868.63690625003,
      "d": 131.30234375000146,
      "v": 104
    },
    {
      "midi": 83,
      "hit": false,
      "t": 44868.63690625003,
      "d": 157.5628125000003,
      "v": 104
    },
    {
      "midi": 86,
      "hit": false,
      "t": 44868.63690625003,
      "d": 157.5628125000003,
      "v": 88
    },
    {
      "midi": 79,
      "hit": false,
      "t": 44868.63690625003,
      "d": 162.8149062500015,
      "v": 91
    },
    {
      "midi": 79,
      "hit": false,
      "t": 45372.83790625003,
      "d": 178.57118750000518,
      "v": 95
    },
    {
      "midi": 88,
      "hit": false,
      "t": 45372.83790625003,
      "d": 231.09212500000285,
      "v": 98
    },
    {
      "midi": 48,
      "hit": false,
      "t": 45372.83790625003,
      "d": 814.074531249993,
      "v": 79
    },
    {
      "midi": 76,
      "hit": false,
      "t": 45378.09000000003,
      "d": 194.32746875000157,
      "v": 104
    },
    {
      "midi": 84,
      "hit": false,
      "t": 45378.09000000003,
      "d": 220.5879375000004,
      "v": 98
    },
    {
      "midi": 36,
      "hit": false,
      "t": 45383.342093750034,
      "d": 735.2931249999965,
      "v": 85
    },
    {
      "midi": 79,
      "hit": false,
      "t": 45661.70306250003,
      "d": 152.31071874999907,
      "v": 80
    },
    {
      "midi": 88,
      "hit": false,
      "t": 45877.03890625003,
      "d": 147.05862499999785,
      "v": 98
    },
    {
      "midi": 76,
      "hit": false,
      "t": 45877.03890625003,
      "d": 152.31071874999907,
      "v": 95
    },
    {
      "midi": 84,
      "hit": false,
      "t": 45877.03890625003,
      "d": 152.31071874999907,
      "v": 98
    },
    {
      "midi": 79,
      "hit": false,
      "t": 45877.03890625003,
      "d": 183.82328124999913,
      "v": 91
    },
    {
      "midi": 74,
      "hit": false,
      "t": 46165.90406250003,
      "d": 535.713562500001,
      "v": 104
    },
    {
      "midi": 83,
      "hit": false,
      "t": 46165.90406250003,
      "d": 561.9740312499998,
      "v": 91
    },
    {
      "midi": 86,
      "hit": false,
      "t": 46165.90406250003,
      "d": 572.4782187500023,
      "v": 98
    },
    {
      "midi": 79,
      "hit": false,
      "t": 46165.90406250003,
      "d": 582.9824062500047,
      "v": 82
    },
    {
      "midi": 55,
      "hit": false,
      "t": 46386.49200000003,
      "d": 756.3014999999941,
      "v": 81
    },
    {
      "midi": 43,
      "hit": false,
      "t": 46391.74409375003,
      "d": 787.8140624999942,
      "v": 88
    },
    {
      "midi": 74,
      "hit": false,
      "t": 46885.440906250034,
      "d": 110.29396874999657,
      "v": 104
    },
    {
      "midi": 79,
      "hit": false,
      "t": 46885.440906250034,
      "d": 126.05024999999296,
      "v": 95
    },
    {
      "midi": 83,
      "hit": false,
      "t": 46885.440906250034,
      "d": 126.05024999999296,
      "v": 109
    },
    {
      "midi": 86,
      "hit": false,
      "t": 46885.440906250034,
      "d": 147.05862499999057,
      "v": 88
    },
    {
      "midi": 88,
      "hit": false,
      "t": 47389.64190625002,
      "d": 210.08375000000524,
      "v": 98
    },
    {
      "midi": 79,
      "hit": false,
      "t": 47389.64190625002,
      "d": 220.58793750000768,
      "v": 88
    },
    {
      "midi": 84,
      "hit": false,
      "t": 47389.64190625002,
      "d": 220.58793750000768,
      "v": 88
    },
    {
      "midi": 76,
      "hit": false,
      "t": 47394.89400000002,
      "d": 194.32746875000157,
      "v": 95
    },
    {
      "midi": 48,
      "hit": false,
      "t": 47394.89400000002,
      "d": 751.0494062500002,
      "v": 79
    },
    {
      "midi": 36,
      "hit": false,
      "t": 47400.14609375002,
      "d": 693.2763750000013,
      "v": 93
    },
    {
      "midi": 76,
      "hit": false,
      "t": 47678.50706250003,
      "d": 141.80653124999662,
      "v": 88
    },
    {
      "midi": 84,
      "hit": false,
      "t": 47678.50706250003,
      "d": 147.05862499999785,
      "v": 95
    },
    {
      "midi": 88,
      "hit": false,
      "t": 47678.50706250003,
      "d": 147.05862499999785,
      "v": 104
    },
    {
      "midi": 79,
      "hit": false,
      "t": 47678.50706250003,
      "d": 162.81490624999424,
      "v": 95
    },
    {
      "midi": 83,
      "hit": false,
      "t": 48182.70806250002,
      "d": 425.41959374999715,
      "v": 95
    },
    {
      "midi": 79,
      "hit": false,
      "t": 48182.70806250002,
      "d": 441.17587499999354,
      "v": 95
    },
    {
      "midi": 74,
      "hit": false,
      "t": 48182.70806250002,
      "d": 477.9405312499948,
      "v": 104
    },
    {
      "midi": 86,
      "hit": false,
      "t": 48182.70806250002,
      "d": 477.9405312499948,
      "v": 91
    },
    {
      "midi": 55,
      "hit": false,
      "t": 48398.04390625002,
      "d": 751.0494062499856,
      "v": 88
    },
    {
      "midi": 43,
      "hit": false,
      "t": 48398.04390625002,
      "d": 814.0745312499857,
      "v": 88
    },
    {
      "midi": 79,
      "hit": false,
      "t": 48686.90906250002,
      "d": 141.80653124999662,
      "v": 70
    },
    {
      "midi": 74,
      "hit": false,
      "t": 48912.74909375001,
      "d": 136.55443750000268,
      "v": 98
    },
    {
      "midi": 83,
      "hit": false,
      "t": 48912.74909375001,
      "d": 152.31071874999907,
      "v": 109
    },
    {
      "midi": 79,
      "hit": false,
      "t": 48912.74909375001,
      "d": 168.06699999999546,
      "v": 70
    },
    {
      "midi": 86,
      "hit": false,
      "t": 48912.74909375001,
      "d": 168.06699999999546,
      "v": 95
    },
    {
      "midi": 48,
      "hit": false,
      "t": 49406.44590625001,
      "d": 793.0661562499954,
      "v": 85
    },
    {
      "midi": 36,
      "hit": false,
      "t": 49406.44590625001,
      "d": 808.8224374999918,
      "v": 93
    },
    {
      "midi": 79,
      "hit": false,
      "t": 49416.95009375001,
      "d": 168.06700000000274,
      "v": 91
    },
    {
      "midi": 76,
      "hit": false,
      "t": 49416.95009375001,
      "d": 189.07537500000035,
      "v": 98
    },
    {
      "midi": 84,
      "hit": false,
      "t": 49416.95009375001,
      "d": 225.84003125000163,
      "v": 98
    },
    {
      "midi": 88,
      "hit": false,
      "t": 49416.95009375001,
      "d": 252.10050000000047,
      "v": 98
    },
    {
      "midi": 76,
      "hit": false,
      "t": 49695.31106250001,
      "d": 99.7897812500014,
      "v": 85
    },
    {
      "midi": 79,
      "hit": false,
      "t": 49695.31106250001,
      "d": 120.79815624999901,
      "v": 68
    },
    {
      "midi": 76,
      "hit": false,
      "t": 49921.15109375001,
      "d": 173.31909374999668,
      "v": 98
    },
    {
      "midi": 88,
      "hit": false,
      "t": 49921.15109375001,
      "d": 173.31909374999668,
      "v": 95
    },
    {
      "midi": 84,
      "hit": false,
      "t": 49921.15109375001,
      "d": 178.5711874999979,
      "v": 104
    },
    {
      "midi": 79,
      "hit": false,
      "t": 49921.15109375001,
      "d": 199.57956249999552,
      "v": 109
    },
    {
      "midi": 79,
      "hit": false,
      "t": 50420.1,
      "d": 414.915406250002,
      "v": 98
    },
    {
      "midi": 91,
      "hit": false,
      "t": 50420.1,
      "d": 414.915406250002,
      "v": 78
    },
    {
      "midi": 84,
      "hit": false,
      "t": 50420.1,
      "d": 430.67168749999837,
      "v": 78
    },
    {
      "midi": 88,
      "hit": false,
      "t": 50420.1,
      "d": 430.67168749999837,
      "v": 81
    },
    {
      "midi": 36,
      "hit": false,
      "t": 50425.35209375,
      "d": 777.3098749999917,
      "v": 93
    },
    {
      "midi": 48,
      "hit": false,
      "t": 50425.35209375,
      "d": 803.5703437499906,
      "v": 88
    },
    {
      "midi": 91,
      "hit": false,
      "t": 50919.04890625,
      "d": 152.31071874999907,
      "v": 78
    },
    {
      "midi": 84,
      "hit": false,
      "t": 50919.04890625,
      "d": 173.31909374999668,
      "v": 78
    },
    {
      "midi": 88,
      "hit": false,
      "t": 50919.04890625,
      "d": 178.5711874999979,
      "v": 78
    },
    {
      "midi": 79,
      "hit": false,
      "t": 50919.04890625,
      "d": 194.3274687499943,
      "v": 90
    },
    {
      "midi": 83,
      "hit": false,
      "t": 51423.24990624999,
      "d": 168.06700000000274,
      "v": 88
    },
    {
      "midi": 79,
      "hit": false,
      "t": 51428.50199999999,
      "d": 157.5628125000003,
      "v": 91
    },
    {
      "midi": 88,
      "hit": false,
      "t": 51433.754093749994,
      "d": 157.5628125000003,
      "v": 75
    },
    {
      "midi": 91,
      "hit": false,
      "t": 51433.754093749994,
      "d": 157.5628125000003,
      "v": 75
    },
    {
      "midi": 52,
      "hit": false,
      "t": 51433.754093749994,
      "d": 740.545218750005,
      "v": 79
    },
    {
      "midi": 40,
      "hit": false,
      "t": 51433.754093749994,
      "d": 782.5619687500075,
      "v": 98
    },
    {
      "midi": 91,
      "hit": false,
      "t": 51712.115062499994,
      "d": 126.05025000000023,
      "v": 44
    },
    {
      "midi": 79,
      "hit": false,
      "t": 51712.115062499994,
      "d": 136.55443750000268,
      "v": 71
    },
    {
      "midi": 88,
      "hit": false,
      "t": 51712.115062499994,
      "d": 152.31071874999907,
      "v": 53
    },
    {
      "midi": 83,
      "hit": false,
      "t": 51712.115062499994,
      "d": 162.8149062500015,
      "v": 62
    },
    {
      "midi": 79,
      "hit": false,
      "t": 51927.45090624999,
      "d": 157.5628125000003,
      "v": 104
    },
    {
      "midi": 83,
      "hit": false,
      "t": 51927.45090624999,
      "d": 162.8149062500015,
      "v": 80
    },
    {
      "midi": 91,
      "hit": false,
      "t": 51927.45090624999,
      "d": 162.8149062500015,
      "v": 75
    },
    {
      "midi": 88,
      "hit": false,
      "t": 51927.45090624999,
      "d": 173.31909375000396,
      "v": 73
    },
    {
      "midi": 79,
      "hit": false,
      "t": 52436.904,
      "d": 414.915406250002,
      "v": 95
    },
    {
      "midi": 84,
      "hit": false,
      "t": 52436.904,
      "d": 446.42796875000204,
      "v": 98
    },
    {
      "midi": 36,
      "hit": false,
      "t": 52436.904,
      "d": 745.7973125000062,
      "v": 93
    },
    {
      "midi": 48,
      "hit": false,
      "t": 52436.904,
      "d": 751.0494062500075,
      "v": 79
    },
    {
      "midi": 91,
      "hit": false,
      "t": 52442.15609375,
      "d": 425.41959374999715,
      "v": 75
    },
    {
      "midi": 88,
      "hit": false,
      "t": 52442.15609375,
      "d": 430.67168749999837,
      "v": 95
    },
    {
      "midi": 79,
      "hit": false,
      "t": 52946.357093750004,
      "d": 136.55443750000268,
      "v": 88
    },
    {
      "midi": 91,
      "hit": false,
      "t": 52946.357093750004,
      "d": 162.8149062500015,
      "v": 94
    },
    {
      "midi": 84,
      "hit": false,
      "t": 52946.357093750004,
      "d": 168.06700000000274,
      "v": 91
    },
    {
      "midi": 88,
      "hit": false,
      "t": 52946.357093750004,
      "d": 168.06700000000274,
      "v": 91
    },
    {
      "midi": 81,
      "hit": false,
      "t": 53440.05390625001,
      "d": 183.82328124999913,
      "v": 98
    },
    {
      "midi": 86,
      "hit": false,
      "t": 53440.05390625001,
      "d": 210.08374999999796,
      "v": 91
    },
    {
      "midi": 93,
      "hit": false,
      "t": 53440.05390625001,
      "d": 210.08374999999796,
      "v": 104
    },
    {
      "midi": 90,
      "hit": false,
      "t": 53440.05390625001,
      "d": 215.33584374999919,
      "v": 91
    },
    {
      "midi": 38,
      "hit": false,
      "t": 53440.05390625001,
      "d": 735.2931249999965,
      "v": 88
    },
    {
      "midi": 50,
      "hit": false,
      "t": 53440.05390625001,
      "d": 782.561968749993,
      "v": 79
    },
    {
      "midi": 81,
      "hit": false,
      "t": 53728.91906250001,
      "d": 362.39446874999703,
      "v": 95
    },
    {
      "midi": 93,
      "hit": false,
      "t": 53728.91906250001,
      "d": 362.39446874999703,
      "v": 109
    },
    {
      "midi": 90,
      "hit": false,
      "t": 53728.91906250001,
      "d": 388.65493749999587,
      "v": 95
    },
    {
      "midi": 86,
      "hit": false,
      "t": 53728.91906250001,
      "d": 409.6633124999935,
      "v": 73
    },
    {
      "midi": 79,
      "hit": false,
      "t": 54233.120062500006,
      "d": 603.9907812500023,
      "v": 95
    },
    {
      "midi": 55,
      "hit": false,
      "t": 54448.455906250005,
      "d": 698.5284687500025,
      "v": 81
    },
    {
      "midi": 43,
      "hit": false,
      "t": 54448.455906250005,
      "d": 793.0661562500027,
      "v": 88
    },
    {
      "midi": 91,
      "hit": false,
      "t": 54458.96009375001,
      "d": 336.1339999999982,
      "v": 109
    },
    {
      "midi": 79,
      "hit": false,
      "t": 54963.16109375001,
      "d": 68.27721875000134,
      "v": 91
    },
    {
      "midi": 86,
      "hit": false,
      "t": 54963.16109375001,
      "d": 147.05862499999785,
      "v": 95
    },
    {
      "midi": 74,
      "hit": false,
      "t": 54963.16109375001,
      "d": 157.5628125000003,
      "v": 98
    },
    {
      "midi": 83,
      "hit": false,
      "t": 54963.16109375001,
      "d": 168.06700000000274,
      "v": 91
    },
    {
      "midi": 88,
      "hit": false,
      "t": 55456.85790625001,
      "d": 199.5795625000028,
      "v": 109
    },
    {
      "midi": 36,
      "hit": false,
      "t": 55456.85790625001,
      "d": 703.780562500011,
      "v": 93
    },
    {
      "midi": 48,
      "hit": false,
      "t": 55456.85790625001,
      "d": 745.7973125000135,
      "v": 81
    },
    {
      "midi": 76,
      "hit": false,
      "t": 55462.11000000001,
      "d": 204.83165625000402,
      "v": 91
    },
    {
      "midi": 84,
      "hit": false,
      "t": 55462.11000000001,
      "d": 210.08375000000524,
      "v": 95
    },
    {
      "midi": 79,
      "hit": false,
      "t": 55467.36209375001,
      "d": 183.82328124999913,
      "v": 80
    },
    {
      "midi": 76,
      "hit": false,
      "t": 55745.723062500016,
      "d": 157.5628125000003,
      "v": 104
    },
    {
      "midi": 88,
      "hit": false,
      "t": 55745.723062500016,
      "d": 162.8149062500015,
      "v": 109
    },
    {
      "midi": 84,
      "hit": false,
      "t": 55745.723062500016,
      "d": 173.31909375000396,
      "v": 98
    },
    {
      "midi": 79,
      "hit": false,
      "t": 55745.723062500016,
      "d": 204.83165625000402,
      "v": 85
    },
    {
      "midi": 74,
      "hit": false,
      "t": 56249.92406250002,
      "d": 225.84003125000163,
      "v": 95
    },
    {
      "midi": 86,
      "hit": false,
      "t": 56249.92406250002,
      "d": 225.84003125000163,
      "v": 95
    },
    {
      "midi": 79,
      "hit": false,
      "t": 56249.92406250002,
      "d": 231.09212500000285,
      "v": 91
    },
    {
      "midi": 83,
      "hit": false,
      "t": 56249.92406250002,
      "d": 231.09212500000285,
      "v": 95
    },
    {
      "midi": 43,
      "hit": false,
      "t": 56470.51200000002,
      "d": 136.55443750000268,
      "v": 98
    },
    {
      "midi": 55,
      "hit": false,
      "t": 56470.51200000002,
      "d": 147.05862500000512,
      "v": 88
    },
    {
      "midi": 43,
      "hit": false,
      "t": 58487.31600000002,
      "d": 504.20100000000093,
      "v": 88
    },
    {
      "midi": 31,
      "hit": false,
      "t": 58487.31600000002,
      "d": 535.713562500001,
      "v": 98
    },
    {
      "midi": 59,
      "hit": false,
      "t": 58986.26490625002,
      "d": 115.54606249999779,
      "v": 109
    },
    {
      "midi": 62,
      "hit": false,
      "t": 58986.26490625002,
      "d": 120.79815624999901,
      "v": 109
    },
    {
      "midi": 67,
      "hit": false,
      "t": 58986.26490625002,
      "d": 131.30234375000146,
      "v": 98
    },
    {
      "midi": 26,
      "hit": false,
      "t": 59490.46590625002,
      "d": 525.2093749999985,
      "v": 88
    },
    {
      "midi": 38,
      "hit": false,
      "t": 59490.46590625002,
      "d": 546.2177499999962,
      "v": 88
    },
    {
      "midi": 57,
      "hit": false,
      "t": 59994.66690625002,
      "d": 105.04187499999534,
      "v": 109
    },
    {
      "midi": 62,
      "hit": false,
      "t": 59994.66690625002,
      "d": 115.54606249999779,
      "v": 104
    },
    {
      "midi": 66,
      "hit": false,
      "t": 59994.66690625002,
      "d": 131.30234374999418,
      "v": 95
    },
    {
      "midi": 43,
      "hit": false,
      "t": 60498.867906250016,
      "d": 582.9824062499974,
      "v": 88
    },
    {
      "midi": 31,
      "hit": false,
      "t": 60498.867906250016,
      "d": 598.7386874999938,
      "v": 93
    },
    {
      "midi": 59,
      "hit": false,
      "t": 61003.06890625002,
      "d": 105.04187499999534,
      "v": 114
    },
    {
      "midi": 67,
      "hit": false,
      "t": 61003.06890625002,
      "d": 110.29396874999657,
      "v": 104
    },
    {
      "midi": 62,
      "hit": false,
      "t": 61003.06890625002,
      "d": 115.54606249999779,
      "v": 104
    },
    {
      "midi": 26,
      "hit": false,
      "t": 61507.26990625002,
      "d": 514.7051875000034,
      "v": 93
    },
    {
      "midi": 38,
      "hit": false,
      "t": 61507.26990625002,
      "d": 540.9656562500022,
      "v": 88
    },
    {
      "midi": 57,
      "hit": false,
      "t": 62011.47090625002,
      "d": 99.7897812500014,
      "v": 109
    },
    {
      "midi": 62,
      "hit": false,
      "t": 62011.47090625002,
      "d": 105.04187500000262,
      "v": 104
    },
    {
      "midi": 66,
      "hit": false,
      "t": 62011.47090625002,
      "d": 120.79815624999901,
      "v": 91
    },
    {
      "midi": 43,
      "hit": false,
      "t": 62515.67190625002,
      "d": 582.9824062499974,
      "v": 88
    },
    {
      "midi": 31,
      "hit": false,
      "t": 62515.67190625002,
      "d": 619.7470624999987,
      "v": 93
    },
    {
      "midi": 59,
      "hit": false,
      "t": 63019.87290625002,
      "d": 120.79815624999901,
      "v": 114
    },
    {
      "midi": 62,
      "hit": false,
      "t": 63019.87290625002,
      "d": 126.05025000000023,
      "v": 104
    },
    {
      "midi": 67,
      "hit": false,
      "t": 63019.87290625002,
      "d": 131.30234375000146,
      "v": 104
    },
    {
      "midi": 26,
      "hit": false,
      "t": 63524.07390625002,
      "d": 525.2093749999985,
      "v": 88
    },
    {
      "midi": 38,
      "hit": false,
      "t": 63524.07390625002,
      "d": 551.4698437499974,
      "v": 88
    },
    {
      "midi": 57,
      "hit": false,
      "t": 64028.27490625002,
      "d": 99.78978124999412,
      "v": 109
    },
    {
      "midi": 62,
      "hit": false,
      "t": 64028.27490625002,
      "d": 105.04187499999534,
      "v": 109
    },
    {
      "midi": 66,
      "hit": false,
      "t": 64028.27490625002,
      "d": 126.05024999999296,
      "v": 95
    },
    {
      "midi": 43,
      "hit": false,
      "t": 64537.72800000002,
      "d": 572.4782187500023,
      "v": 93
    },
    {
      "midi": 31,
      "hit": false,
      "t": 64537.72800000002,
      "d": 630.2512500000012,
      "v": 98
    },
    {
      "midi": 59,
      "hit": false,
      "t": 65036.67690625002,
      "d": 126.05025000000023,
      "v": 109
    },
    {
      "midi": 67,
      "hit": false,
      "t": 65036.67690625002,
      "d": 131.30234375000146,
      "v": 104
    },
    {
      "midi": 62,
      "hit": false,
      "t": 65036.67690625002,
      "d": 136.55443750000268,
      "v": 104
    },
    {
      "midi": 26,
      "hit": false,
      "t": 65551.38209375001,
      "d": 509.4530937499949,
      "v": 88
    },
    {
      "midi": 38,
      "hit": false,
      "t": 65551.38209375001,
      "d": 525.2093749999913,
      "v": 93
    },
    {
      "midi": 57,
      "hit": false,
      "t": 66045.07890625001,
      "d": 99.78978124998685,
      "v": 114
    },
    {
      "midi": 62,
      "hit": false,
      "t": 66045.07890625001,
      "d": 110.29396874998929,
      "v": 104
    },
    {
      "midi": 66,
      "hit": false,
      "t": 66045.07890625001,
      "d": 120.79815624999173,
      "v": 91
    },
    {
      "midi": 43,
      "hit": false,
      "t": 66549.27990625,
      "d": 609.2428749999963,
      "v": 93
    },
    {
      "midi": 31,
      "hit": false,
      "t": 66549.27990625,
      "d": 640.7554374999891,
      "v": 93
    },
    {
      "midi": 59,
      "hit": false,
      "t": 67053.48090625,
      "d": 110.29396874998929,
      "v": 114
    },
    {
      "midi": 67,
      "hit": false,
      "t": 67053.48090625,
      "d": 120.79815624999173,
      "v": 109
    },
    {
      "midi": 62,
      "hit": false,
      "t": 67053.48090625,
      "d": 126.05024999998568,
      "v": 109
    },
    {
      "midi": 26,
      "hit": false,
      "t": 67562.934,
      "d": 567.226125000001,
      "v": 93
    },
    {
      "midi": 38,
      "hit": false,
      "t": 67562.934,
      "d": 582.9824062499974,
      "v": 93
    },
    {
      "midi": 57,
      "hit": false,
      "t": 68061.88290625,
      "d": 105.04187499999534,
      "v": 109
    },
    {
      "midi": 62,
      "hit": false,
      "t": 68061.88290625,
      "d": 110.29396874998929,
      "v": 104
    },
    {
      "midi": 66,
      "hit": false,
      "t": 68061.88290625,
      "d": 115.54606249998324,
      "v": 95
    },
    {
      "midi": 43,
      "hit": false,
      "t": 68566.08390624999,
      "d": 572.478218749995,
      "v": 85
    },
    {
      "midi": 31,
      "hit": false,
      "t": 68566.08390624999,
      "d": 619.7470624999842,
      "v": 93
    },
    {
      "midi": 59,
      "hit": false,
      "t": 69070.28490624999,
      "d": 110.29396874998929,
      "v": 109
    },
    {
      "midi": 67,
      "hit": false,
      "t": 69070.28490624999,
      "d": 120.79815624997718,
      "v": 104
    },
    {
      "midi": 62,
      "hit": false,
      "t": 69070.28490624999,
      "d": 126.05024999997113,
      "v": 104
    },
    {
      "midi": 26,
      "hit": false,
      "t": 69574.48590624996,
      "d": 588.2345000000059,
      "v": 85
    },
    {
      "midi": 38,
      "hit": false,
      "t": 69574.48590624996,
      "d": 619.7470624999987,
      "v": 85
    },
    {
      "midi": 57,
      "hit": false,
      "t": 70078.68690624996,
      "d": 99.7897812500014,
      "v": 114
    },
    {
      "midi": 62,
      "hit": false,
      "t": 70078.68690624996,
      "d": 115.54606249999779,
      "v": 109
    },
    {
      "midi": 66,
      "hit": false,
      "t": 70078.68690624996,
      "d": 126.05025000000023,
      "v": 95
    },
    {
      "midi": 43,
      "hit": false,
      "t": 70582.88790624996,
      "d": 588.2345000000059,
      "v": 93
    },
    {
      "midi": 31,
      "hit": false,
      "t": 70582.88790624996,
      "d": 635.5033437499951,
      "v": 98
    },
    {
      "midi": 59,
      "hit": false,
      "t": 71087.08890624996,
      "d": 110.29396875000384,
      "v": 109
    },
    {
      "midi": 62,
      "hit": false,
      "t": 71087.08890624996,
      "d": 115.54606249999779,
      "v": 104
    },
    {
      "midi": 67,
      "hit": false,
      "t": 71087.08890624996,
      "d": 120.79815624999173,
      "v": 104
    },
    {
      "midi": 26,
      "hit": false,
      "t": 71591.28990624996,
      "d": 551.4698437500047,
      "v": 88
    },
    {
      "midi": 38,
      "hit": false,
      "t": 71591.28990624996,
      "d": 561.9740312500071,
      "v": 98
    },
    {
      "midi": 57,
      "hit": false,
      "t": 72095.49090624996,
      "d": 105.0418750000099,
      "v": 114
    },
    {
      "midi": 62,
      "hit": false,
      "t": 72095.49090624996,
      "d": 115.54606250001234,
      "v": 109
    },
    {
      "midi": 66,
      "hit": false,
      "t": 72095.49090624996,
      "d": 126.05025000001478,
      "v": 95
    },
    {
      "midi": 43,
      "hit": false,
      "t": 72599.69190624998,
      "d": 582.9824062499974,
      "v": 93
    },
    {
      "midi": 31,
      "hit": false,
      "t": 72599.69190624998,
      "d": 609.2428749999963,
      "v": 98
    },
    {
      "midi": 59,
      "hit": false,
      "t": 73114.39709374998,
      "d": 99.78978124998685,
      "v": 109
    },
    {
      "midi": 62,
      "hit": false,
      "t": 73114.39709374998,
      "d": 105.04187499998079,
      "v": 104
    },
    {
      "midi": 67,
      "hit": false,
      "t": 73114.39709374998,
      "d": 115.54606249998324,
      "v": 109
    },
    {
      "midi": 26,
      "hit": false,
      "t": 73613.34599999996,
      "d": 551.4698437500047,
      "v": 88
    },
    {
      "midi": 38,
      "hit": false,
      "t": 73613.34599999996,
      "d": 567.226125000001,
      "v": 93
    },
    {
      "midi": 59,
      "hit": false,
      "t": 74117.54699999996,
      "d": 115.54606249999779,
      "v": 109
    },
    {
      "midi": 67,
      "hit": false,
      "t": 74117.54699999996,
      "d": 136.55443750000268,
      "v": 109
    },
    {
      "midi": 62,
      "hit": false,
      "t": 74117.54699999996,
      "d": 141.80653124999662,
      "v": 109
    },
    {
      "midi": 52,
      "hit": false,
      "t": 74627.00009374996,
      "d": 514.7051875000034,
      "v": 93
    },
    {
      "midi": 40,
      "hit": false,
      "t": 74627.00009374996,
      "d": 540.9656562500022,
      "v": 102
    },
    {
      "midi": 59,
      "hit": false,
      "t": 75120.69690624996,
      "d": 110.29396875000384,
      "v": 114
    },
    {
      "midi": 64,
      "hit": false,
      "t": 75120.69690624996,
      "d": 110.29396875000384,
      "v": 104
    },
    {
      "midi": 67,
      "hit": false,
      "t": 75120.69690624996,
      "d": 120.79815625000629,
      "v": 109
    },
    {
      "midi": 35,
      "hit": false,
      "t": 75624.89790624996,
      "d": 540.9656562500022,
      "v": 93
    },
    {
      "midi": 47,
      "hit": false,
      "t": 75624.89790624996,
      "d": 577.7303125000035,
      "v": 88
    },
    {
      "midi": 59,
      "hit": false,
      "t": 76129.09890624996,
      "d": 105.04187499999534,
      "v": 109
    },
    {
      "midi": 64,
      "hit": false,
      "t": 76129.09890624996,
      "d": 115.54606249999779,
      "v": 109
    },
    {
      "midi": 67,
      "hit": false,
      "t": 76129.09890624996,
      "d": 120.79815624999173,
      "v": 98
    },
    {
      "midi": 40,
      "hit": false,
      "t": 76628.04781249995,
      "d": 651.2596249999915,
      "v": 98
    },
    {
      "midi": 52,
      "hit": false,
      "t": 76633.29990624994,
      "d": 651.2596249999915,
      "v": 98
    },
    {
      "midi": 67,
      "hit": false,
      "t": 77137.50090624994,
      "d": 126.05025000000023,
      "v": 104
    },
    {
      "midi": 59,
      "hit": false,
      "t": 77142.75299999994,
      "d": 110.29396875000384,
      "v": 109
    },
    {
      "midi": 64,
      "hit": false,
      "t": 77142.75299999994,
      "d": 126.05025000000023,
      "v": 104
    },
    {
      "midi": 52,
      "hit": false,
      "t": 77646.95399999994,
      "d": 624.9991562499927,
      "v": 102
    },
    {
      "midi": 40,
      "hit": false,
      "t": 77646.95399999994,
      "d": 656.5117187499854,
      "v": 108
    },
    {
      "midi": 59,
      "hit": false,
      "t": 78156.40709374993,
      "d": 105.04187499999534,
      "v": 114
    },
    {
      "midi": 64,
      "hit": false,
      "t": 78156.40709374993,
      "d": 105.04187499999534,
      "v": 104
    },
    {
      "midi": 67,
      "hit": false,
      "t": 78156.40709374993,
      "d": 120.79815624999173,
      "v": 104
    },
    {
      "midi": 48,
      "hit": false,
      "t": 78650.10390624992,
      "d": 593.4865937499999,
      "v": 93
    },
    {
      "midi": 36,
      "hit": false,
      "t": 78650.10390624992,
      "d": 630.2512499999866,
      "v": 98
    },
    {
      "midi": 60,
      "hit": false,
      "t": 79154.30490624992,
      "d": 94.5376874999929,
      "v": 98
    },
    {
      "midi": 64,
      "hit": false,
      "t": 79154.30490624992,
      "d": 105.04187499999534,
      "v": 109
    },
    {
      "midi": 67,
      "hit": false,
      "t": 79154.30490624992,
      "d": 110.29396874998929,
      "v": 109
    },
    {
      "midi": 36,
      "hit": false,
      "t": 79658.5059062499,
      "d": 603.9907812499878,
      "v": 98
    },
    {
      "midi": 48,
      "hit": false,
      "t": 79658.5059062499,
      "d": 614.4949687499902,
      "v": 93
    },
    {
      "midi": 60,
      "hit": false,
      "t": 80162.7069062499,
      "d": 94.5376874999929,
      "v": 98
    },
    {
      "midi": 64,
      "hit": false,
      "t": 80162.7069062499,
      "d": 110.29396874998929,
      "v": 104
    },
    {
      "midi": 67,
      "hit": false,
      "t": 80162.7069062499,
      "d": 136.55443749998813,
      "v": 104
    },
    {
      "midi": 38,
      "hit": false,
      "t": 80666.9079062499,
      "d": 157.56281249999302,
      "v": 93
    },
    {
      "midi": 50,
      "hit": false,
      "t": 80666.9079062499,
      "d": 194.3274687499943,
      "v": 98
    },
    {
      "midi": 78,
      "hit": false,
      "t": 81171.1089062499,
      "d": 89.28559374999895,
      "v": 114
    },
    {
      "midi": 74,
      "hit": false,
      "t": 81171.1089062499,
      "d": 94.5376874999929,
      "v": 94
    },
    {
      "midi": 69,
      "hit": false,
      "t": 81171.1089062499,
      "d": 99.78978124998685,
      "v": 94
    },
    {
      "midi": 72,
      "hit": false,
      "t": 81171.1089062499,
      "d": 105.04187499998079,
      "v": 94
    },
    {
      "midi": 60,
      "hit": false,
      "t": 81171.1089062499,
      "d": 120.79815624997718,
      "v": 88
    },
    {
      "midi": 50,
      "hit": false,
      "t": 81171.1089062499,
      "d": 126.05024999997113,
      "v": 93
    },
    {
      "midi": 43,
      "hit": false,
      "t": 82688.96399999986,
      "d": 567.226125000001,
      "v": 85
    },
    {
      "midi": 31,
      "hit": false,
      "t": 82688.96399999986,
      "d": 603.9907812500023,
      "v": 88
    },
    {
      "midi": 59,
      "hit": false,
      "t": 83187.91290624987,
      "d": 115.54606249999779,
      "v": 109
    },
    {
      "midi": 62,
      "hit": false,
      "t": 83187.91290624987,
      "d": 120.79815624999173,
      "v": 109
    },
    {
      "midi": 67,
      "hit": false,
      "t": 83187.91290624987,
      "d": 126.05024999998568,
      "v": 98
    },
    {
      "midi": 26,
      "hit": false,
      "t": 83692.11390624986,
      "d": 540.9656562500022,
      "v": 85
    },
    {
      "midi": 38,
      "hit": false,
      "t": 83692.11390624986,
      "d": 561.9740312500071,
      "v": 93
    },
    {
      "midi": 62,
      "hit": false,
      "t": 84196.31490624986,
      "d": 89.28559374999895,
      "v": 104
    },
    {
      "midi": 57,
      "hit": false,
      "t": 84196.31490624986,
      "d": 94.5376874999929,
      "v": 109
    },
    {
      "midi": 66,
      "hit": false,
      "t": 84196.31490624986,
      "d": 105.04187499999534,
      "v": 91
    },
    {
      "midi": 43,
      "hit": false,
      "t": 84700.51590624986,
      "d": 577.7303125000035,
      "v": 88
    },
    {
      "midi": 31,
      "hit": false,
      "t": 84700.51590624986,
      "d": 609.2428749999963,
      "v": 93
    },
    {
      "midi": 59,
      "hit": false,
      "t": 85204.71690624986,
      "d": 105.04187499999534,
      "v": 114
    },
    {
      "midi": 62,
      "hit": false,
      "t": 85204.71690624986,
      "d": 120.79815624999173,
      "v": 109
    },
    {
      "midi": 67,
      "hit": false,
      "t": 85204.71690624986,
      "d": 120.79815624999173,
      "v": 109
    },
    {
      "midi": 26,
      "hit": false,
      "t": 85719.42209374985,
      "d": 540.9656562500022,
      "v": 81
    },
    {
      "midi": 38,
      "hit": false,
      "t": 85719.42209374985,
      "d": 572.478218749995,
      "v": 93
    },
    {
      "midi": 57,
      "hit": false,
      "t": 86213.11890624985,
      "d": 105.04187499999534,
      "v": 109
    },
    {
      "midi": 66,
      "hit": false,
      "t": 86213.11890624985,
      "d": 105.04187499999534,
      "v": 91
    },
    {
      "midi": 62,
      "hit": false,
      "t": 86213.11890624985,
      "d": 115.54606249999779,
      "v": 104
    },
    {
      "midi": 43,
      "hit": false,
      "t": 86717.31990624985,
      "d": 582.9824062499974,
      "v": 88
    },
    {
      "midi": 31,
      "hit": false,
      "t": 86717.31990624985,
      "d": 609.2428749999817,
      "v": 88
    },
    {
      "midi": 59,
      "hit": false,
      "t": 87221.52090624985,
      "d": 94.5376874999929,
      "v": 109
    },
    {
      "midi": 62,
      "hit": false,
      "t": 87221.52090624985,
      "d": 99.78978124998685,
      "v": 98
    },
    {
      "midi": 67,
      "hit": false,
      "t": 87221.52090624985,
      "d": 99.78978124998685,
      "v": 104
    },
    {
      "midi": 26,
      "hit": false,
      "t": 87725.72190624983,
      "d": 577.7303125000035,
      "v": 85
    },
    {
      "midi": 38,
      "hit": false,
      "t": 87725.72190624983,
      "d": 614.4949687500048,
      "v": 93
    },
    {
      "midi": 57,
      "hit": false,
      "t": 88229.92290624983,
      "d": 94.53768750000745,
      "v": 114
    },
    {
      "midi": 62,
      "hit": false,
      "t": 88229.92290624983,
      "d": 105.0418750000099,
      "v": 109
    },
    {
      "midi": 66,
      "hit": false,
      "t": 88229.92290624983,
      "d": 110.29396875000384,
      "v": 95
    },
    {
      "midi": 59,
      "hit": false,
      "t": 88728.87181249984,
      "d": 99.78978124998685,
      "v": 120
    },
    {
      "midi": 67,
      "hit": false,
      "t": 88728.87181249984,
      "d": 110.29396874998929,
      "v": 98
    },
    {
      "midi": 62,
      "hit": false,
      "t": 88728.87181249984,
      "d": 115.54606249998324,
      "v": 114
    },
    {
      "midi": 43,
      "hit": false,
      "t": 88734.12390624984,
      "d": 131.30234374999418,
      "v": 98
    },
    {
      "midi": 31,
      "hit": false,
      "t": 88734.12390624984,
      "d": 141.80653124999662,
      "v": 102
    },
    {
      "midi": 74,
      "hit": false,
      "t": 90761.43209374983,
      "d": 409.6633124999935,
      "v": 84
    },
    {
      "midi": 86,
      "hit": false,
      "t": 90761.43209374983,
      "d": 425.4195937499899,
      "v": 84
    },
    {
      "midi": 79,
      "hit": false,
      "t": 90761.43209374983,
      "d": 435.9237812499923,
      "v": 84
    },
    {
      "midi": 83,
      "hit": false,
      "t": 90761.43209374983,
      "d": 435.9237812499923,
      "v": 84
    },
    {
      "midi": 55,
      "hit": false,
      "t": 90761.43209374983,
      "d": 709.0326562499977,
      "v": 88
    },
    {
      "midi": 43,
      "hit": false,
      "t": 90761.43209374983,
      "d": 772.0577812499978,
      "v": 85
    },
    {
      "midi": 74,
      "hit": false,
      "t": 91265.63309374981,
      "d": 120.79815625000629,
      "v": 91
    },
    {
      "midi": 79,
      "hit": false,
      "t": 91265.63309374981,
      "d": 141.80653125001118,
      "v": 98
    },
    {
      "midi": 83,
      "hit": false,
      "t": 91265.63309374981,
      "d": 141.80653125001118,
      "v": 95
    },
    {
      "midi": 86,
      "hit": false,
      "t": 91265.63309374981,
      "d": 141.80653125001118,
      "v": 88
    },
    {
      "midi": 76,
      "hit": false,
      "t": 91759.32990624983,
      "d": 189.07537500000035,
      "v": 91
    },
    {
      "midi": 79,
      "hit": false,
      "t": 91759.32990624983,
      "d": 199.5795625000028,
      "v": 85
    },
    {
      "midi": 88,
      "hit": false,
      "t": 91764.58199999982,
      "d": 199.5795625000028,
      "v": 91
    },
    {
      "midi": 84,
      "hit": false,
      "t": 91764.58199999982,
      "d": 210.08375000000524,
      "v": 85
    },
    {
      "midi": 36,
      "hit": false,
      "t": 91764.58199999982,
      "d": 703.7805625000183,
      "v": 93
    },
    {
      "midi": 48,
      "hit": false,
      "t": 91764.58199999982,
      "d": 740.5452187500196,
      "v": 79
    },
    {
      "midi": 84,
      "hit": false,
      "t": 92048.19506249983,
      "d": 152.31071874999907,
      "v": 98
    },
    {
      "midi": 88,
      "hit": false,
      "t": 92048.19506249983,
      "d": 152.31071874999907,
      "v": 80
    },
    {
      "midi": 76,
      "hit": false,
      "t": 92048.19506249983,
      "d": 162.8149062500015,
      "v": 78
    },
    {
      "midi": 79,
      "hit": false,
      "t": 92048.19506249983,
      "d": 183.8232812500064,
      "v": 91
    },
    {
      "midi": 79,
      "hit": false,
      "t": 92552.39606249984,
      "d": 404.41121874999953,
      "v": 95
    },
    {
      "midi": 83,
      "hit": false,
      "t": 92552.39606249984,
      "d": 446.42796874999476,
      "v": 104
    },
    {
      "midi": 74,
      "hit": false,
      "t": 92552.39606249984,
      "d": 456.9321562499972,
      "v": 109
    },
    {
      "midi": 86,
      "hit": false,
      "t": 92552.39606249984,
      "d": 551.4698437500047,
      "v": 95
    },
    {
      "midi": 55,
      "hit": false,
      "t": 92767.73190624984,
      "d": 761.5535937499808,
      "v": 85
    },
    {
      "midi": 43,
      "hit": false,
      "t": 92767.73190624984,
      "d": 829.8308124999749,
      "v": 88
    },
    {
      "midi": 79,
      "hit": false,
      "t": 93056.59706249984,
      "d": 152.31071874999907,
      "v": 98
    },
    {
      "midi": 79,
      "hit": false,
      "t": 93271.93290624984,
      "d": 152.31071874998452,
      "v": 95
    },
    {
      "midi": 83,
      "hit": false,
      "t": 93271.93290624984,
      "d": 162.81490624998696,
      "v": 98
    },
    {
      "midi": 74,
      "hit": false,
      "t": 93277.18499999984,
      "d": 115.54606249999779,
      "v": 98
    },
    {
      "midi": 86,
      "hit": false,
      "t": 93277.18499999984,
      "d": 162.81490624998696,
      "v": 91
    },
    {
      "midi": 76,
      "hit": false,
      "t": 93776.13390624982,
      "d": 115.54606249999779,
      "v": 98
    },
    {
      "midi": 79,
      "hit": false,
      "t": 93776.13390624982,
      "d": 115.54606249999779,
      "v": 91
    },
    {
      "midi": 84,
      "hit": false,
      "t": 93776.13390624982,
      "d": 162.8149062500015,
      "v": 98
    },
    {
      "midi": 88,
      "hit": false,
      "t": 93776.13390624982,
      "d": 178.5711874999979,
      "v": 104
    },
    {
      "midi": 48,
      "hit": false,
      "t": 93776.13390624982,
      "d": 814.074531249993,
      "v": 79
    },
    {
      "midi": 36,
      "hit": false,
      "t": 93786.63809374982,
      "d": 735.293124999982,
      "v": 85
    },
    {
      "midi": 91,
      "hit": false,
      "t": 94064.99906249982,
      "d": 126.05025000000023,
      "v": 98
    },
    {
      "midi": 88,
      "hit": false,
      "t": 94064.99906249982,
      "d": 141.80653124999662,
      "v": 98
    },
    {
      "midi": 84,
      "hit": false,
      "t": 94064.99906249982,
      "d": 157.56281249999302,
      "v": 98
    },
    {
      "midi": 79,
      "hit": false,
      "t": 94064.99906249982,
      "d": 162.81490624998696,
      "v": 95
    },
    {
      "midi": 79,
      "hit": false,
      "t": 94569.2000624998,
      "d": 430.67168749999837,
      "v": 98
    },
    {
      "midi": 74,
      "hit": false,
      "t": 94569.2000624998,
      "d": 582.9824062499974,
      "v": 109
    },
    {
      "midi": 83,
      "hit": false,
      "t": 94569.2000624998,
      "d": 614.4949687499902,
      "v": 109
    },
    {
      "midi": 86,
      "hit": false,
      "t": 94569.2000624998,
      "d": 661.7638124999794,
      "v": 95
    },
    {
      "midi": 55,
      "hit": false,
      "t": 94789.78799999981,
      "d": 756.3014999999577,
      "v": 81
    },
    {
      "midi": 43,
      "hit": false,
      "t": 94795.0400937498,
      "d": 787.8140624999651,
      "v": 88
    },
    {
      "midi": 79,
      "hit": false,
      "t": 95073.4010624998,
      "d": 126.05024999998568,
      "v": 91
    },
    {
      "midi": 74,
      "hit": false,
      "t": 95299.24109374978,
      "d": 120.79815625000629,
      "v": 98
    },
    {
      "midi": 79,
      "hit": false,
      "t": 95299.24109374978,
      "d": 147.05862500000512,
      "v": 95
    },
    {
      "midi": 83,
      "hit": false,
      "t": 95299.24109374978,
      "d": 152.31071874999907,
      "v": 104
    },
    {
      "midi": 86,
      "hit": false,
      "t": 95299.24109374978,
      "d": 168.06699999999546,
      "v": 78
    },
    {
      "midi": 48,
      "hit": false,
      "t": 95798.18999999977,
      "d": 751.0494062499492,
      "v": 79
    },
    {
      "midi": 76,
      "hit": false,
      "t": 95803.44209374976,
      "d": 141.80653124999662,
      "v": 88
    },
    {
      "midi": 84,
      "hit": false,
      "t": 95803.44209374976,
      "d": 168.06699999999546,
      "v": 88
    },
    {
      "midi": 79,
      "hit": false,
      "t": 95803.44209374976,
      "d": 173.3190937499894,
      "v": 88
    },
    {
      "midi": 36,
      "hit": false,
      "t": 95803.44209374976,
      "d": 693.2763749999576,
      "v": 93
    },
    {
      "midi": 79,
      "hit": false,
      "t": 96081.80306249975,
      "d": 178.5711874999979,
      "v": 91
    },
    {
      "midi": 76,
      "hit": false,
      "t": 96081.80306249975,
      "d": 183.82328124999185,
      "v": 98
    },
    {
      "midi": 84,
      "hit": false,
      "t": 96081.80306249975,
      "d": 189.0753749999858,
      "v": 85
    },
    {
      "midi": 88,
      "hit": false,
      "t": 96081.80306249975,
      "d": 194.32746874997974,
      "v": 109
    },
    {
      "midi": 79,
      "hit": false,
      "t": 96586.00406249972,
      "d": 393.9070312499971,
      "v": 98
    },
    {
      "midi": 83,
      "hit": false,
      "t": 96586.00406249972,
      "d": 540.9656562500022,
      "v": 104
    },
    {
      "midi": 86,
      "hit": false,
      "t": 96586.00406249972,
      "d": 556.7219374999986,
      "v": 95
    },
    {
      "midi": 74,
      "hit": false,
      "t": 96586.00406249972,
      "d": 561.9740312499925,
      "v": 104
    },
    {
      "midi": 55,
      "hit": false,
      "t": 96801.33990624972,
      "d": 751.0494062499929,
      "v": 88
    },
    {
      "midi": 43,
      "hit": false,
      "t": 96801.33990624972,
      "d": 814.074531249993,
      "v": 88
    },
    {
      "midi": 79,
      "hit": false,
      "t": 97090.20506249972,
      "d": 131.30234374999418,
      "v": 95
    },
    {
      "midi": 74,
      "hit": false,
      "t": 97305.54090624972,
      "d": 126.05025000000023,
      "v": 109
    },
    {
      "midi": 83,
      "hit": false,
      "t": 97305.54090624972,
      "d": 141.80653124999662,
      "v": 104
    },
    {
      "midi": 79,
      "hit": false,
      "t": 97305.54090624972,
      "d": 152.31071874999907,
      "v": 95
    },
    {
      "midi": 86,
      "hit": false,
      "t": 97305.54090624972,
      "d": 152.31071874999907,
      "v": 88
    },
    {
      "midi": 76,
      "hit": false,
      "t": 97809.7419062497,
      "d": 178.5711874999979,
      "v": 88
    },
    {
      "midi": 79,
      "hit": false,
      "t": 97809.7419062497,
      "d": 183.82328124999185,
      "v": 82
    },
    {
      "midi": 84,
      "hit": false,
      "t": 97809.7419062497,
      "d": 194.3274687499943,
      "v": 91
    },
    {
      "midi": 88,
      "hit": false,
      "t": 97809.7419062497,
      "d": 199.57956249998824,
      "v": 88
    },
    {
      "midi": 48,
      "hit": false,
      "t": 97809.7419062497,
      "d": 793.0661562499736,
      "v": 85
    },
    {
      "midi": 36,
      "hit": false,
      "t": 97809.7419062497,
      "d": 808.82243749997,
      "v": 93
    },
    {
      "midi": 76,
      "hit": false,
      "t": 98098.6070624997,
      "d": 115.54606249999779,
      "v": 85
    },
    {
      "midi": 88,
      "hit": false,
      "t": 98098.6070624997,
      "d": 136.55443750000268,
      "v": 73
    },
    {
      "midi": 79,
      "hit": false,
      "t": 98098.6070624997,
      "d": 157.56281250000757,
      "v": 88
    },
    {
      "midi": 84,
      "hit": false,
      "t": 98098.6070624997,
      "d": 162.8149062500015,
      "v": 91
    },
    {
      "midi": 88,
      "hit": false,
      "t": 98313.9429062497,
      "d": 147.05862499999057,
      "v": 88
    },
    {
      "midi": 84,
      "hit": false,
      "t": 98313.9429062497,
      "d": 162.81490624998696,
      "v": 80
    },
    {
      "midi": 79,
      "hit": false,
      "t": 98313.9429062497,
      "d": 178.57118749998335,
      "v": 104
    },
    {
      "midi": 76,
      "hit": false,
      "t": 98319.19499999969,
      "d": 157.56281249999302,
      "v": 109
    },
    {
      "midi": 79,
      "hit": false,
      "t": 98823.39599999967,
      "d": 425.4195937499899,
      "v": 88
    },
    {
      "midi": 91,
      "hit": false,
      "t": 98823.39599999967,
      "d": 441.17587499998626,
      "v": 91
    },
    {
      "midi": 84,
      "hit": false,
      "t": 98823.39599999967,
      "d": 451.6800624999887,
      "v": 91
    },
    {
      "midi": 88,
      "hit": false,
      "t": 98823.39599999967,
      "d": 451.6800624999887,
      "v": 91
    },
    {
      "midi": 36,
      "hit": false,
      "t": 98828.64809374967,
      "d": 777.3098749999917,
      "v": 93
    },
    {
      "midi": 48,
      "hit": false,
      "t": 98828.64809374967,
      "d": 803.5703437499906,
      "v": 88
    },
    {
      "midi": 91,
      "hit": false,
      "t": 99327.59699999966,
      "d": 115.54606249999779,
      "v": 88
    },
    {
      "midi": 79,
      "hit": false,
      "t": 99327.59699999966,
      "d": 178.5711874999979,
      "v": 73
    },
    {
      "midi": 88,
      "hit": false,
      "t": 99332.84909374965,
      "d": 126.05025000000023,
      "v": 104
    },
    {
      "midi": 84,
      "hit": false,
      "t": 99332.84909374965,
      "d": 152.31071874999907,
      "v": 109
    },
    {
      "midi": 71,
      "hit": false,
      "t": 99831.79799999966,
      "d": 241.59631249999802,
      "v": 98
    },
    {
      "midi": 76,
      "hit": false,
      "t": 99831.79799999966,
      "d": 246.84840624999197,
      "v": 98
    },
    {
      "midi": 79,
      "hit": false,
      "t": 99831.79799999966,
      "d": 246.84840624999197,
      "v": 95
    },
    {
      "midi": 52,
      "hit": false,
      "t": 99837.05009374965,
      "d": 740.545218750005,
      "v": 79
    },
    {
      "midi": 40,
      "hit": false,
      "t": 99837.05009374965,
      "d": 782.5619687500002,
      "v": 98
    },
    {
      "midi": 71,
      "hit": false,
      "t": 100115.41106249965,
      "d": 84.033500000005,
      "v": 104
    },
    {
      "midi": 76,
      "hit": false,
      "t": 100115.41106249965,
      "d": 84.033500000005,
      "v": 114
    },
    {
      "midi": 79,
      "hit": false,
      "t": 100115.41106249965,
      "d": 110.29396875000384,
      "v": 98
    },
    {
      "midi": 79,
      "hit": false,
      "t": 100619.61206249965,
      "d": 399.15912499999104,
      "v": 95
    },
    {
      "midi": 76,
      "hit": false,
      "t": 100619.61206249965,
      "d": 561.9740312499925,
      "v": 109
    },
    {
      "midi": 88,
      "hit": false,
      "t": 100619.61206249965,
      "d": 588.2344999999914,
      "v": 104
    },
    {
      "midi": 84,
      "hit": false,
      "t": 100619.61206249965,
      "d": 598.7386874999938,
      "v": 104
    },
    {
      "midi": 36,
      "hit": false,
      "t": 100840.19999999965,
      "d": 745.797312499999,
      "v": 93
    },
    {
      "midi": 48,
      "hit": false,
      "t": 100840.19999999965,
      "d": 751.0494062499929,
      "v": 79
    },
    {
      "midi": 79,
      "hit": false,
      "t": 101123.81306249964,
      "d": 68.27721875000861,
      "v": 95
    },
    {
      "midi": 79,
      "hit": false,
      "t": 101344.40099999965,
      "d": 126.05025000000023,
      "v": 98
    },
    {
      "midi": 91,
      "hit": false,
      "t": 101344.40099999965,
      "d": 173.31909375000396,
      "v": 88
    },
    {
      "midi": 86,
      "hit": false,
      "t": 101344.40099999965,
      "d": 178.5711874999979,
      "v": 85
    },
    {
      "midi": 88,
      "hit": false,
      "t": 101349.65309374964,
      "d": 178.5711874999979,
      "v": 104
    },
    {
      "midi": 93,
      "hit": false,
      "t": 101843.34990624964,
      "d": 414.915406250002,
      "v": 98
    },
    {
      "midi": 90,
      "hit": false,
      "t": 101843.34990624964,
      "d": 462.1842500000057,
      "v": 91
    },
    {
      "midi": 38,
      "hit": false,
      "t": 101843.34990624964,
      "d": 735.293124999982,
      "v": 88
    },
    {
      "midi": 50,
      "hit": false,
      "t": 101843.34990624964,
      "d": 782.5619687499857,
      "v": 79
    },
    {
      "midi": 81,
      "hit": false,
      "t": 101848.60199999964,
      "d": 399.1591250000056,
      "v": 104
    },
    {
      "midi": 86,
      "hit": false,
      "t": 101848.60199999964,
      "d": 456.93215625001176,
      "v": 88
    },
    {
      "midi": 93,
      "hit": false,
      "t": 102358.05509374964,
      "d": 73.52931250000256,
      "v": 91
    },
    {
      "midi": 81,
      "hit": false,
      "t": 102358.05509374964,
      "d": 78.78140624999651,
      "v": 95
    },
    {
      "midi": 90,
      "hit": false,
      "t": 102358.05509374964,
      "d": 84.03349999999045,
      "v": 91
    },
    {
      "midi": 86,
      "hit": false,
      "t": 102358.05509374964,
      "d": 89.2855937499844,
      "v": 91
    },
    {
      "midi": 91,
      "hit": false,
      "t": 102636.41606249963,
      "d": 546.2177499999962,
      "v": 104
    },
    {
      "midi": 79,
      "hit": false,
      "t": 102636.41606249963,
      "d": 567.226125000001,
      "v": 98
    },
    {
      "midi": 86,
      "hit": false,
      "t": 102636.41606249963,
      "d": 582.9824062499974,
      "v": 95
    },
    {
      "midi": 83,
      "hit": false,
      "t": 102636.41606249963,
      "d": 588.2344999999914,
      "v": 98
    },
    {
      "midi": 55,
      "hit": false,
      "t": 102851.75190624963,
      "d": 698.5284687499807,
      "v": 81
    },
    {
      "midi": 43,
      "hit": false,
      "t": 102851.75190624963,
      "d": 793.0661562499881,
      "v": 88
    },
    {
      "midi": 74,
      "hit": false,
      "t": 103366.45709374962,
      "d": 152.31071874999907,
      "v": 98
    },
    {
      "midi": 83,
      "hit": false,
      "t": 103366.45709374962,
      "d": 183.82328124999185,
      "v": 95
    },
    {
      "midi": 86,
      "hit": false,
      "t": 103366.45709374962,
      "d": 183.82328124999185,
      "v": 91
    },
    {
      "midi": 79,
      "hit": false,
      "t": 103366.45709374962,
      "d": 194.3274687499943,
      "v": 91
    },
    {
      "midi": 79,
      "hit": false,
      "t": 103644.81806249962,
      "d": 393.9070312499971,
      "v": 67
    },
    {
      "midi": 84,
      "hit": false,
      "t": 103644.81806249962,
      "d": 514.7051875000034,
      "v": 91
    },
    {
      "midi": 88,
      "hit": false,
      "t": 103644.81806249962,
      "d": 540.9656562500022,
      "v": 109
    },
    {
      "midi": 76,
      "hit": false,
      "t": 103644.81806249962,
      "d": 577.7303125000035,
      "v": 85
    },
    {
      "midi": 36,
      "hit": false,
      "t": 103860.15390624962,
      "d": 362.3944687500043,
      "v": 93
    },
    {
      "midi": 48,
      "hit": false,
      "t": 103860.15390624962,
      "d": 362.3944687500043,
      "v": 81
    },
    {
      "midi": 79,
      "hit": false,
      "t": 104149.01906249962,
      "d": 136.55443750000268,
      "v": 95
    },
    {
      "midi": 88,
      "hit": false,
      "t": 104364.35490624962,
      "d": 341.38609374998487,
      "v": 104
    },
    {
      "midi": 76,
      "hit": false,
      "t": 104364.35490624962,
      "d": 378.15074999998615,
      "v": 104
    },
    {
      "midi": 84,
      "hit": false,
      "t": 104364.35490624962,
      "d": 383.4028437499801,
      "v": 104
    },
    {
      "midi": 79,
      "hit": false,
      "t": 104364.35490624962,
      "d": 404.411218749985,
      "v": 71
    },
    {
      "midi": 40,
      "hit": false,
      "t": 104369.60699999961,
      "d": 320.37771874999453,
      "v": 99
    },
    {
      "midi": 52,
      "hit": false,
      "t": 104374.8590937496,
      "d": 315.1256250000006,
      "v": 99
    },
    {
      "midi": 74,
      "hit": false,
      "t": 104868.5559062496,
      "d": 84.03349999999045,
      "v": 109
    },
    {
      "midi": 83,
      "hit": false,
      "t": 104868.5559062496,
      "d": 84.03349999999045,
      "v": 104
    },
    {
      "midi": 79,
      "hit": false,
      "t": 104868.5559062496,
      "d": 89.2855937499844,
      "v": 78
    },
    {
      "midi": 86,
      "hit": false,
      "t": 104868.5559062496,
      "d": 89.2855937499844,
      "v": 104
    },
    {
      "midi": 43,
      "hit": false,
      "t": 104873.8079999996,
      "d": 136.55443749998813,
      "v": 98
    },
    {
      "midi": 55,
      "hit": false,
      "t": 104873.8079999996,
      "d": 147.05862499999057,
      "v": 88
    },
    {
      "midi": 43,
      "hit": false,
      "t": 106890.61199999959,
      "d": 504.20100000000093,
      "v": 88
    },
    {
      "midi": 31,
      "hit": false,
      "t": 106890.61199999959,
      "d": 535.7135624999937,
      "v": 98
    },
    {
      "midi": 59,
      "hit": false,
      "t": 107389.5609062496,
      "d": 115.54606249998324,
      "v": 109
    },
    {
      "midi": 62,
      "hit": false,
      "t": 107389.5609062496,
      "d": 120.79815624997718,
      "v": 109
    },
    {
      "midi": 67,
      "hit": false,
      "t": 107389.5609062496,
      "d": 131.30234374997963,
      "v": 98
    },
    {
      "midi": 26,
      "hit": false,
      "t": 107893.76190624958,
      "d": 525.2093750000058,
      "v": 88
    },
    {
      "midi": 38,
      "hit": false,
      "t": 107893.76190624958,
      "d": 546.2177500000107,
      "v": 88
    },
    {
      "midi": 57,
      "hit": false,
      "t": 108397.96290624958,
      "d": 105.0418750000099,
      "v": 109
    },
    {
      "midi": 62,
      "hit": false,
      "t": 108397.96290624958,
      "d": 115.54606250001234,
      "v": 104
    },
    {
      "midi": 66,
      "hit": false,
      "t": 108397.96290624958,
      "d": 131.30234375000873,
      "v": 95
    },
    {
      "midi": 43,
      "hit": false,
      "t": 108902.1639062496,
      "d": 582.9824062499974,
      "v": 88
    },
    {
      "midi": 31,
      "hit": false,
      "t": 108902.1639062496,
      "d": 598.7386874999938,
      "v": 93
    },
    {
      "midi": 59,
      "hit": false,
      "t": 109406.3649062496,
      "d": 105.04187499999534,
      "v": 114
    },
    {
      "midi": 67,
      "hit": false,
      "t": 109406.3649062496,
      "d": 110.29396874998929,
      "v": 104
    },
    {
      "midi": 62,
      "hit": false,
      "t": 109406.3649062496,
      "d": 115.54606249998324,
      "v": 104
    },
    {
      "midi": 26,
      "hit": false,
      "t": 109910.56590624958,
      "d": 514.7051875000034,
      "v": 93
    },
    {
      "midi": 38,
      "hit": false,
      "t": 109910.56590624958,
      "d": 540.9656562500022,
      "v": 88
    },
    {
      "midi": 57,
      "hit": false,
      "t": 110414.76690624958,
      "d": 99.7897812500014,
      "v": 109
    },
    {
      "midi": 62,
      "hit": false,
      "t": 110414.76690624958,
      "d": 105.04187499999534,
      "v": 104
    },
    {
      "midi": 66,
      "hit": false,
      "t": 110414.76690624958,
      "d": 120.79815624999173,
      "v": 91
    },
    {
      "midi": 43,
      "hit": false,
      "t": 110918.96790624957,
      "d": 582.9824062499974,
      "v": 88
    },
    {
      "midi": 31,
      "hit": false,
      "t": 110918.96790624957,
      "d": 619.7470624999987,
      "v": 93
    },
    {
      "midi": 59,
      "hit": false,
      "t": 111423.16890624957,
      "d": 120.79815624999173,
      "v": 114
    },
    {
      "midi": 62,
      "hit": false,
      "t": 111423.16890624957,
      "d": 126.05024999998568,
      "v": 104
    },
    {
      "midi": 67,
      "hit": false,
      "t": 111423.16890624957,
      "d": 131.30234374997963,
      "v": 104
    },
    {
      "midi": 26,
      "hit": false,
      "t": 111927.36990624956,
      "d": 525.2093750000058,
      "v": 88
    },
    {
      "midi": 38,
      "hit": false,
      "t": 111927.36990624956,
      "d": 551.4698437500047,
      "v": 88
    },
    {
      "midi": 57,
      "hit": false,
      "t": 112431.57090624956,
      "d": 99.7897812500014,
      "v": 109
    },
    {
      "midi": 62,
      "hit": false,
      "t": 112431.57090624956,
      "d": 105.04187499999534,
      "v": 109
    },
    {
      "midi": 66,
      "hit": false,
      "t": 112431.57090624956,
      "d": 126.05025000000023,
      "v": 95
    },
    {
      "midi": 43,
      "hit": false,
      "t": 112941.02399999955,
      "d": 572.4782187500095,
      "v": 93
    },
    {
      "midi": 31,
      "hit": false,
      "t": 112941.02399999955,
      "d": 630.2512500000012,
      "v": 98
    },
    {
      "midi": 59,
      "hit": false,
      "t": 113439.97290624956,
      "d": 126.05025000000023,
      "v": 109
    },
    {
      "midi": 67,
      "hit": false,
      "t": 113439.97290624956,
      "d": 131.30234374999418,
      "v": 104
    },
    {
      "midi": 62,
      "hit": false,
      "t": 113439.97290624956,
      "d": 136.55443749998813,
      "v": 104
    },
    {
      "midi": 26,
      "hit": false,
      "t": 113954.67809374955,
      "d": 509.4530937499949,
      "v": 88
    },
    {
      "midi": 38,
      "hit": false,
      "t": 113954.67809374955,
      "d": 525.2093749999913,
      "v": 93
    },
    {
      "midi": 57,
      "hit": false,
      "t": 114448.37490624955,
      "d": 99.78978124998685,
      "v": 114
    },
    {
      "midi": 62,
      "hit": false,
      "t": 114448.37490624955,
      "d": 110.29396874998929,
      "v": 104
    },
    {
      "midi": 66,
      "hit": false,
      "t": 114448.37490624955,
      "d": 120.79815624999173,
      "v": 91
    },
    {
      "midi": 43,
      "hit": false,
      "t": 114952.57590624953,
      "d": 609.2428749999963,
      "v": 93
    },
    {
      "midi": 31,
      "hit": false,
      "t": 114952.57590624953,
      "d": 640.7554374999891,
      "v": 93
    },
    {
      "midi": 59,
      "hit": false,
      "t": 115456.77690624954,
      "d": 110.29396874998929,
      "v": 114
    },
    {
      "midi": 67,
      "hit": false,
      "t": 115456.77690624954,
      "d": 120.79815624999173,
      "v": 109
    },
    {
      "midi": 62,
      "hit": false,
      "t": 115456.77690624954,
      "d": 126.05024999998568,
      "v": 109
    },
    {
      "midi": 26,
      "hit": false,
      "t": 115966.22999999953,
      "d": 567.226125000001,
      "v": 93
    },
    {
      "midi": 38,
      "hit": false,
      "t": 115966.22999999953,
      "d": 582.9824062499974,
      "v": 93
    },
    {
      "midi": 57,
      "hit": false,
      "t": 116465.17890624954,
      "d": 105.04187499999534,
      "v": 109
    },
    {
      "midi": 62,
      "hit": false,
      "t": 116465.17890624954,
      "d": 110.29396874998929,
      "v": 104
    },
    {
      "midi": 66,
      "hit": false,
      "t": 116465.17890624954,
      "d": 115.54606249998324,
      "v": 95
    },
    {
      "midi": 43,
      "hit": false,
      "t": 116969.37990624952,
      "d": 572.478218749995,
      "v": 85
    },
    {
      "midi": 31,
      "hit": false,
      "t": 116969.37990624952,
      "d": 619.7470624999842,
      "v": 93
    },
    {
      "midi": 59,
      "hit": false,
      "t": 117473.58090624952,
      "d": 110.29396874998929,
      "v": 109
    },
    {
      "midi": 67,
      "hit": false,
      "t": 117473.58090624952,
      "d": 120.79815624997718,
      "v": 104
    },
    {
      "midi": 62,
      "hit": false,
      "t": 117473.58090624952,
      "d": 126.05024999997113,
      "v": 104
    },
    {
      "midi": 26,
      "hit": false,
      "t": 117977.7819062495,
      "d": 588.2345000000059,
      "v": 85
    },
    {
      "midi": 38,
      "hit": false,
      "t": 117977.7819062495,
      "d": 619.7470624999987,
      "v": 85
    },
    {
      "midi": 57,
      "hit": false,
      "t": 118481.9829062495,
      "d": 99.7897812500014,
      "v": 114
    },
    {
      "midi": 62,
      "hit": false,
      "t": 118481.9829062495,
      "d": 115.54606249999779,
      "v": 109
    },
    {
      "midi": 66,
      "hit": false,
      "t": 118481.9829062495,
      "d": 126.05025000000023,
      "v": 95
    },
    {
      "midi": 43,
      "hit": false,
      "t": 118986.1839062495,
      "d": 588.2345000000059,
      "v": 93
    },
    {
      "midi": 31,
      "hit": false,
      "t": 118986.1839062495,
      "d": 635.5033437499951,
      "v": 98
    },
    {
      "midi": 59,
      "hit": false,
      "t": 119490.3849062495,
      "d": 110.29396875000384,
      "v": 109
    },
    {
      "midi": 62,
      "hit": false,
      "t": 119490.3849062495,
      "d": 115.54606249999779,
      "v": 104
    },
    {
      "midi": 67,
      "hit": false,
      "t": 119490.3849062495,
      "d": 120.79815624999173,
      "v": 104
    },
    {
      "midi": 26,
      "hit": false,
      "t": 119994.5859062495,
      "d": 551.4698437500047,
      "v": 88
    },
    {
      "midi": 38,
      "hit": false,
      "t": 119994.5859062495,
      "d": 561.9740312500071,
      "v": 98
    },
    {
      "midi": 57,
      "hit": false,
      "t": 120498.7869062495,
      "d": 105.0418750000099,
      "v": 114
    },
    {
      "midi": 62,
      "hit": false,
      "t": 120498.7869062495,
      "d": 115.54606250001234,
      "v": 109
    },
    {
      "midi": 66,
      "hit": false,
      "t": 120498.7869062495,
      "d": 126.05025000001478,
      "v": 95
    },
    {
      "midi": 43,
      "hit": false,
      "t": 121002.98790624952,
      "d": 582.9824062499974,
      "v": 93
    },
    {
      "midi": 31,
      "hit": false,
      "t": 121002.98790624952,
      "d": 609.2428749999963,
      "v": 98
    },
    {
      "midi": 59,
      "hit": false,
      "t": 121517.69309374952,
      "d": 99.78978124998685,
      "v": 109
    },
    {
      "midi": 62,
      "hit": false,
      "t": 121517.69309374952,
      "d": 105.04187499998079,
      "v": 104
    },
    {
      "midi": 67,
      "hit": false,
      "t": 121517.69309374952,
      "d": 115.54606249998324,
      "v": 109
    },
    {
      "midi": 26,
      "hit": false,
      "t": 122016.6419999995,
      "d": 551.4698437500047,
      "v": 88
    },
    {
      "midi": 38,
      "hit": false,
      "t": 122016.6419999995,
      "d": 567.226125000001,
      "v": 93
    },
    {
      "midi": 59,
      "hit": false,
      "t": 122520.8429999995,
      "d": 115.54606249999779,
      "v": 109
    },
    {
      "midi": 67,
      "hit": false,
      "t": 122520.8429999995,
      "d": 136.55443750000268,
      "v": 109
    },
    {
      "midi": 62,
      "hit": false,
      "t": 122520.8429999995,
      "d": 141.80653124999662,
      "v": 109
    },
    {
      "midi": 52,
      "hit": false,
      "t": 123030.2960937495,
      "d": 514.7051875000034,
      "v": 93
    },
    {
      "midi": 40,
      "hit": false,
      "t": 123030.2960937495,
      "d": 540.9656562500022,
      "v": 102
    },
    {
      "midi": 59,
      "hit": false,
      "t": 123523.99290624949,
      "d": 110.29396875000384,
      "v": 114
    },
    {
      "midi": 64,
      "hit": false,
      "t": 123523.99290624949,
      "d": 110.29396875000384,
      "v": 104
    },
    {
      "midi": 67,
      "hit": false,
      "t": 123523.99290624949,
      "d": 120.79815625000629,
      "v": 109
    },
    {
      "midi": 35,
      "hit": false,
      "t": 124028.1939062495,
      "d": 540.9656562500022,
      "v": 93
    },
    {
      "midi": 47,
      "hit": false,
      "t": 124028.1939062495,
      "d": 577.7303125000035,
      "v": 88
    },
    {
      "midi": 59,
      "hit": false,
      "t": 124532.3949062495,
      "d": 105.04187499999534,
      "v": 109
    },
    {
      "midi": 64,
      "hit": false,
      "t": 124532.3949062495,
      "d": 115.54606249999779,
      "v": 109
    },
    {
      "midi": 67,
      "hit": false,
      "t": 124532.3949062495,
      "d": 120.79815624999173,
      "v": 98
    },
    {
      "midi": 40,
      "hit": false,
      "t": 125031.34381249949,
      "d": 651.2596249999915,
      "v": 98
    },
    {
      "midi": 52,
      "hit": false,
      "t": 125036.59590624948,
      "d": 651.2596249999915,
      "v": 98
    },
    {
      "midi": 67,
      "hit": false,
      "t": 125540.79690624948,
      "d": 126.05025000000023,
      "v": 104
    },
    {
      "midi": 59,
      "hit": false,
      "t": 125546.04899999948,
      "d": 110.29396875000384,
      "v": 109
    },
    {
      "midi": 64,
      "hit": false,
      "t": 125546.04899999948,
      "d": 126.05025000000023,
      "v": 104
    },
    {
      "midi": 52,
      "hit": false,
      "t": 126050.24999999948,
      "d": 624.9991562499927,
      "v": 102
    },
    {
      "midi": 40,
      "hit": false,
      "t": 126050.24999999948,
      "d": 656.5117187499854,
      "v": 108
    },
    {
      "midi": 59,
      "hit": false,
      "t": 126559.70309374947,
      "d": 105.04187499999534,
      "v": 114
    },
    {
      "midi": 64,
      "hit": false,
      "t": 126559.70309374947,
      "d": 105.04187499999534,
      "v": 104
    },
    {
      "midi": 67,
      "hit": false,
      "t": 126559.70309374947,
      "d": 120.79815624999173,
      "v": 104
    },
    {
      "midi": 48,
      "hit": false,
      "t": 127053.39990624945,
      "d": 593.4865937499999,
      "v": 93
    },
    {
      "midi": 36,
      "hit": false,
      "t": 127053.39990624945,
      "d": 630.2512499999866,
      "v": 98
    },
    {
      "midi": 60,
      "hit": false,
      "t": 127557.60090624946,
      "d": 94.5376874999929,
      "v": 98
    },
    {
      "midi": 64,
      "hit": false,
      "t": 127557.60090624946,
      "d": 105.04187499999534,
      "v": 109
    },
    {
      "midi": 67,
      "hit": false,
      "t": 127557.60090624946,
      "d": 110.29396874998929,
      "v": 109
    },
    {
      "midi": 36,
      "hit": false,
      "t": 128061.80190624944,
      "d": 603.9907812499878,
      "v": 98
    },
    {
      "midi": 48,
      "hit": false,
      "t": 128061.80190624944,
      "d": 614.4949687499902,
      "v": 93
    },
    {
      "midi": 60,
      "hit": false,
      "t": 128566.00290624944,
      "d": 94.5376874999929,
      "v": 98
    },
    {
      "midi": 64,
      "hit": false,
      "t": 128566.00290624944,
      "d": 110.29396874998929,
      "v": 104
    },
    {
      "midi": 67,
      "hit": false,
      "t": 128566.00290624944,
      "d": 136.55443749998813,
      "v": 104
    },
    {
      "midi": 38,
      "hit": false,
      "t": 129070.20390624943,
      "d": 157.56281249999302,
      "v": 93
    },
    {
      "midi": 50,
      "hit": false,
      "t": 129070.20390624943,
      "d": 194.3274687499943,
      "v": 98
    },
    {
      "midi": 78,
      "hit": false,
      "t": 129574.40490624943,
      "d": 89.28559374999895,
      "v": 114
    },
    {
      "midi": 74,
      "hit": false,
      "t": 129574.40490624943,
      "d": 94.5376874999929,
      "v": 94
    },
    {
      "midi": 69,
      "hit": false,
      "t": 129574.40490624943,
      "d": 99.78978124998685,
      "v": 94
    },
    {
      "midi": 72,
      "hit": false,
      "t": 129574.40490624943,
      "d": 105.04187499998079,
      "v": 94
    },
    {
      "midi": 60,
      "hit": false,
      "t": 129574.40490624943,
      "d": 120.79815624997718,
      "v": 88
    },
    {
      "midi": 50,
      "hit": false,
      "t": 129574.40490624943,
      "d": 126.05024999997113,
      "v": 93
    },
    {
      "midi": 43,
      "hit": false,
      "t": 131092.2599999994,
      "d": 504.20100000000093,
      "v": 88
    },
    {
      "midi": 31,
      "hit": false,
      "t": 131092.2599999994,
      "d": 535.7135624999937,
      "v": 98
    },
    {
      "midi": 59,
      "hit": false,
      "t": 131591.2089062494,
      "d": 115.54606249998324,
      "v": 109
    },
    {
      "midi": 62,
      "hit": false,
      "t": 131591.2089062494,
      "d": 120.79815624997718,
      "v": 109
    },
    {
      "midi": 67,
      "hit": false,
      "t": 131591.2089062494,
      "d": 131.30234374996508,
      "v": 98
    },
    {
      "midi": 26,
      "hit": false,
      "t": 132095.40990624938,
      "d": 525.2093750000058,
      "v": 88
    },
    {
      "midi": 38,
      "hit": false,
      "t": 132095.40990624938,
      "d": 546.2177500000107,
      "v": 88
    },
    {
      "midi": 57,
      "hit": false,
      "t": 132599.61090624938,
      "d": 105.04187499999534,
      "v": 109
    },
    {
      "midi": 62,
      "hit": false,
      "t": 132599.61090624938,
      "d": 115.54606249998324,
      "v": 104
    },
    {
      "midi": 66,
      "hit": false,
      "t": 132599.61090624938,
      "d": 131.30234374999418,
      "v": 95
    },
    {
      "midi": 43,
      "hit": false,
      "t": 133103.81190624938,
      "d": 582.9824062499974,
      "v": 88
    },
    {
      "midi": 31,
      "hit": false,
      "t": 133103.81190624938,
      "d": 598.7386875000084,
      "v": 93
    },
    {
      "midi": 59,
      "hit": false,
      "t": 133608.01290624938,
      "d": 105.04187499999534,
      "v": 114
    },
    {
      "midi": 67,
      "hit": false,
      "t": 133608.01290624938,
      "d": 110.29396874998929,
      "v": 104
    },
    {
      "midi": 62,
      "hit": false,
      "t": 133608.01290624938,
      "d": 115.54606249998324,
      "v": 104
    },
    {
      "midi": 26,
      "hit": false,
      "t": 134112.21390624935,
      "d": 514.7051874999888,
      "v": 93
    },
    {
      "midi": 38,
      "hit": false,
      "t": 134112.21390624935,
      "d": 540.9656562499877,
      "v": 88
    },
    {
      "midi": 57,
      "hit": false,
      "t": 134616.41490624935,
      "d": 99.7897812499723,
      "v": 109
    },
    {
      "midi": 62,
      "hit": false,
      "t": 134616.41490624935,
      "d": 105.04187499996624,
      "v": 104
    },
    {
      "midi": 66,
      "hit": false,
      "t": 134616.41490624935,
      "d": 120.79815624997718,
      "v": 91
    },
    {
      "midi": 43,
      "hit": false,
      "t": 135120.61590624932,
      "d": 582.9824062499974,
      "v": 88
    },
    {
      "midi": 31,
      "hit": false,
      "t": 135120.61590624932,
      "d": 619.7470624999842,
      "v": 93
    },
    {
      "midi": 59,
      "hit": false,
      "t": 135624.81690624933,
      "d": 120.79815624997718,
      "v": 114
    },
    {
      "midi": 62,
      "hit": false,
      "t": 135624.81690624933,
      "d": 126.05024999997113,
      "v": 104
    },
    {
      "midi": 67,
      "hit": false,
      "t": 135624.81690624933,
      "d": 131.30234374996508,
      "v": 104
    },
    {
      "midi": 26,
      "hit": false,
      "t": 136129.0179062493,
      "d": 525.2093750000058,
      "v": 88
    },
    {
      "midi": 38,
      "hit": false,
      "t": 136129.0179062493,
      "d": 551.4698437500047,
      "v": 88
    },
    {
      "midi": 57,
      "hit": false,
      "t": 136633.2189062493,
      "d": 99.7897812500014,
      "v": 109
    },
    {
      "midi": 62,
      "hit": false,
      "t": 136633.2189062493,
      "d": 105.04187499999534,
      "v": 109
    },
    {
      "midi": 66,
      "hit": false,
      "t": 136633.2189062493,
      "d": 126.05025000000023,
      "v": 95
    },
    {
      "midi": 43,
      "hit": false,
      "t": 137142.6719999993,
      "d": 572.4782187500095,
      "v": 93
    },
    {
      "midi": 31,
      "hit": false,
      "t": 137142.6719999993,
      "d": 630.2512500000012,
      "v": 98
    },
    {
      "midi": 59,
      "hit": false,
      "t": 137641.6209062493,
      "d": 126.05025000000023,
      "v": 109
    },
    {
      "midi": 67,
      "hit": false,
      "t": 137641.6209062493,
      "d": 131.30234374999418,
      "v": 104
    },
    {
      "midi": 62,
      "hit": false,
      "t": 137641.6209062493,
      "d": 136.55443749998813,
      "v": 104
    },
    {
      "midi": 26,
      "hit": false,
      "t": 138156.3260937493,
      "d": 509.453093750024,
      "v": 88
    },
    {
      "midi": 38,
      "hit": false,
      "t": 138156.3260937493,
      "d": 525.2093750000349,
      "v": 93
    },
    {
      "midi": 57,
      "hit": false,
      "t": 138650.0229062493,
      "d": 99.7897812500305,
      "v": 114
    },
    {
      "midi": 62,
      "hit": false,
      "t": 138650.0229062493,
      "d": 110.2939687500184,
      "v": 104
    },
    {
      "midi": 66,
      "hit": false,
      "t": 138650.0229062493,
      "d": 120.79815625000629,
      "v": 91
    },
    {
      "midi": 43,
      "hit": false,
      "t": 139154.2239062493,
      "d": 609.2428750000545,
      "v": 93
    },
    {
      "midi": 31,
      "hit": false,
      "t": 139154.2239062493,
      "d": 640.7554375000182,
      "v": 93
    },
    {
      "midi": 59,
      "hit": false,
      "t": 139658.42490624933,
      "d": 110.2939687500184,
      "v": 114
    },
    {
      "midi": 67,
      "hit": false,
      "t": 139658.42490624933,
      "d": 120.79815625000629,
      "v": 109
    },
    {
      "midi": 62,
      "hit": false,
      "t": 139658.42490624933,
      "d": 126.05025000000023,
      "v": 109
    },
    {
      "midi": 26,
      "hit": false,
      "t": 140167.87799999936,
      "d": 567.2261250000447,
      "v": 93
    },
    {
      "midi": 38,
      "hit": false,
      "t": 140167.87799999936,
      "d": 582.9824062500556,
      "v": 93
    },
    {
      "midi": 57,
      "hit": false,
      "t": 140666.8269062494,
      "d": 105.04187500002445,
      "v": 109
    },
    {
      "midi": 62,
      "hit": false,
      "t": 140666.8269062494,
      "d": 110.2939687500184,
      "v": 104
    },
    {
      "midi": 66,
      "hit": false,
      "t": 140666.8269062494,
      "d": 115.54606250001234,
      "v": 95
    },
    {
      "midi": 43,
      "hit": false,
      "t": 141171.02790624942,
      "d": 572.4782187500678,
      "v": 85
    },
    {
      "midi": 31,
      "hit": false,
      "t": 141171.02790624942,
      "d": 619.7470625000715,
      "v": 93
    },
    {
      "midi": 59,
      "hit": false,
      "t": 141675.22890624948,
      "d": 110.2939687500184,
      "v": 109
    },
    {
      "midi": 67,
      "hit": false,
      "t": 141675.22890624948,
      "d": 120.79815625000629,
      "v": 104
    },
    {
      "midi": 62,
      "hit": false,
      "t": 141675.22890624948,
      "d": 126.05025000000023,
      "v": 104
    },
    {
      "midi": 26,
      "hit": false,
      "t": 142179.4299062495,
      "d": 588.2345000000496,
      "v": 85
    },
    {
      "midi": 38,
      "hit": false,
      "t": 142179.4299062495,
      "d": 619.7470625000715,
      "v": 85
    },
    {
      "midi": 57,
      "hit": false,
      "t": 142683.63090624954,
      "d": 99.7897812500305,
      "v": 114
    },
    {
      "midi": 62,
      "hit": false,
      "t": 142683.63090624954,
      "d": 115.54606250004144,
      "v": 109
    },
    {
      "midi": 66,
      "hit": false,
      "t": 142683.63090624954,
      "d": 126.05025000002934,
      "v": 95
    },
    {
      "midi": 43,
      "hit": false,
      "t": 143187.8319062496,
      "d": 588.2345000000787,
      "v": 93
    },
    {
      "midi": 31,
      "hit": false,
      "t": 143187.8319062496,
      "d": 635.5033437500533,
      "v": 98
    },
    {
      "midi": 59,
      "hit": false,
      "t": 143692.03290624966,
      "d": 110.2939687500184,
      "v": 109
    },
    {
      "midi": 62,
      "hit": false,
      "t": 143692.03290624966,
      "d": 115.54606250001234,
      "v": 104
    },
    {
      "midi": 67,
      "hit": false,
      "t": 143692.03290624966,
      "d": 120.79815625000629,
      "v": 104
    },
    {
      "midi": 26,
      "hit": false,
      "t": 144196.23390624972,
      "d": 551.4698437500338,
      "v": 88
    },
    {
      "midi": 38,
      "hit": false,
      "t": 144196.23390624972,
      "d": 561.9740312500217,
      "v": 98
    },
    {
      "midi": 57,
      "hit": false,
      "t": 144700.43490624975,
      "d": 105.04187499999534,
      "v": 114
    },
    {
      "midi": 62,
      "hit": false,
      "t": 144700.43490624975,
      "d": 115.54606249998324,
      "v": 109
    },
    {
      "midi": 66,
      "hit": false,
      "t": 144700.43490624975,
      "d": 126.05024999997113,
      "v": 95
    },
    {
      "midi": 62,
      "hit": false,
      "t": 145209.88799999977,
      "d": 136.55443749998813,
      "v": 104
    },
    {
      "midi": 31,
      "hit": false,
      "t": 145209.88799999977,
      "d": 147.05862499997602,
      "v": 98
    },
    {
      "midi": 59,
      "hit": false,
      "t": 145209.88799999977,
      "d": 147.05862499997602,
      "v": 109
    },
    {
      "midi": 67,
      "hit": false,
      "t": 145209.88799999977,
      "d": 147.05862499997602,
      "v": 109
    },
    {
      "midi": 43,
      "hit": false,
      "t": 145209.88799999977,
      "d": 152.31071874996996,
      "v": 93
    }
  ]
}