{
  "jsonPath": "Classical/Post-Romantic Era/Samuel Maykapar/latomas-vision.json",
  "path": "Classical\\Post-Romantic Era\\Samuel Maykapar\\Latomas-Vision.mid",
  "name": "Latomas-Vision",
  "difficulty": "Advanced",
  "bpm": 120,
  "notes": [
    {
      "midi": 73,
      "hit": false,
      "t": 0,
      "d": 250,
      "v": 100
    },
    {
      "midi": 77,
      "hit": false,
      "t": 250,
      "d": 250,
      "v": 100
    },
    {
      "midi": 80,
      "hit": false,
      "t": 500,
      "d": 250,
      "v": 100
    },
    {
      "midi": 81,
      "hit": false,
      "t": 750,
      "d": 250,
      "v": 100
    },
    {
      "midi": 80,
      "hit": false,
      "t": 1000,
      "d": 250,
      "v": 100
    },
    {
      "midi": 78,
      "hit": false,
      "t": 1250,
      "d": 250,
      "v": 100
    },
    {
      "midi": 74,
      "hit": false,
      "t": 1500,
      "d": 125,
      "v": 100
    },
    {
      "midi": 78,
      "hit": false,
      "t": 1625,
      "d": 125,
      "v": 100
    },
    {
      "midi": 73,
      "hit": false,
      "t": 1750,
      "d": 250,
      "v": 100
    },
    {
      "midi": 71,
      "hit": false,
      "t": 2000,
      "d": 250,
      "v": 100
    },
    {
      "midi": 73,
      "hit": false,
      "t": 2250,
      "d": 750,
      "v": 100
    },
    {
      "midi": 69,
      "hit": false,
      "t": 3000,
      "d": 125,
      "v": 100
    },
    {
      "midi": 66,
      "hit": false,
      "t": 3000,
      "d": 500,
      "v": 100
    },
    {
      "midi": 73,
      "hit": false,
      "t": 3125,
      "d": 125,
      "v": 100
    },
    {
      "midi": 69,
      "hit": false,
      "t": 3250,
      "d": 250,
      "v": 100
    },
    {
      "midi": 68,
      "hit": false,
      "t": 3500,
      "d": 250,
      "v": 100
    },
    {
      "midi": 61,
      "hit": false,
      "t": 3500,
      "d": 250,
      "v": 100
    },
    {
      "midi": 65,
      "hit": false,
      "t": 3500,
      "d": 250,
      "v": 100
    },
    {
      "midi": 69,
      "hit": false,
      "t": 3750,
      "d": 125,
      "v": 100
    },
    {
      "midi": 66,
      "hit": false,
      "t": 3750,
      "d": 500,
      "v": 100
    },
    {
      "midi": 73,
      "hit": false,
      "t": 3875,
      "d": 125,
      "v": 100
    },
    {
      "midi": 69,
      "hit": false,
      "t": 4000,
      "d": 250,
      "v": 100
    },
    {
      "midi": 68,
      "hit": false,
      "t": 4250,
      "d": 250,
      "v": 100
    },
    {
      "midi": 61,
      "hit": false,
      "t": 4250,
      "d": 250,
      "v": 100
    },
    {
      "midi": 65,
      "hit": false,
      "t": 4250,
      "d": 250,
      "v": 100
    },
    {
      "midi": 69,
      "hit": false,
      "t": 4500,
      "d": 125,
      "v": 100
    },
    {
      "midi": 66,
      "hit": false,
      "t": 4500,
      "d": 500,
      "v": 100
    },
    {
      "midi": 73,
      "hit": false,
      "t": 4625,
      "d": 125,
      "v": 100
    },
    {
      "midi": 69,
      "hit": false,
      "t": 4750,
      "d": 250,
      "v": 100
    },
    {
      "midi": 68,
      "hit": false,
      "t": 5000,
      "d": 250,
      "v": 100
    },
    {
      "midi": 61,
      "hit": false,
      "t": 5000,
      "d": 250,
      "v": 100
    },
    {
      "midi": 65,
      "hit": false,
      "t": 5000,
      "d": 250,
      "v": 100
    },
    {
      "midi": 66,
      "hit": false,
      "t": 5250,
      "d": 750,
      "v": 100
    },
    {
      "midi": 69,
      "hit": false,
      "t": 5250,
      "d": 750,
      "v": 100
    },
    {
      "midi": 54,
      "hit": false,
      "t": 5250,
      "d": 750,
      "v": 100
    },
    {
      "midi": 61,
      "hit": false,
      "t": 5250,
      "d": 750,
      "v": 100
    },
    {
      "midi": 73,
      "hit": false,
      "t": 6000,
      "d": 250,
      "v": 100
    },
    {
      "midi": 78,
      "hit": false,
      "t": 6250,
      "d": 250,
      "v": 100
    },
    {
      "midi": 80,
      "hit": false,
      "t": 6500,
      "d": 250,
      "v": 100
    },
    {
      "midi": 81,
      "hit": false,
      "t": 6750,
      "d": 250,
      "v": 100
    },
    {
      "midi": 80,
      "hit": false,
      "t": 7000,
      "d": 250,
      "v": 100
    },
    {
      "midi": 78,
      "hit": false,
      "t": 7250,
      "d": 250,
      "v": 100
    },
    {
      "midi": 74,
      "hit": false,
      "t": 7500,
      "d": 125,
      "v": 100
    },
    {
      "midi": 78,
      "hit": false,
      "t": 7625,
      "d": 125,
      "v": 100
    },
    {
      "midi": 73,
      "hit": false,
      "t": 7750,
      "d": 250,
      "v": 100
    },
    {
      "midi": 71,
      "hit": false,
      "t": 8000,
      "d": 250,
      "v": 100
    },
    {
      "midi": 73,
      "hit": false,
      "t": 8250,
      "d": 750,
      "v": 100
    },
    {
      "midi": 73,
      "hit": false,
      "t": 9000,
      "d": 125,
      "v": 100
    },
    {
      "midi": 69,
      "hit": false,
      "t": 9000,
      "d": 500,
      "v": 100
    },
    {
      "midi": 76,
      "hit": false,
      "t": 9125,
      "d": 125,
      "v": 100
    },
    {
      "midi": 73,
      "hit": false,
      "t": 9250,
      "d": 250,
      "v": 100
    },
    {
      "midi": 71,
      "hit": false,
      "t": 9500,
      "d": 250,
      "v": 100
    },
    {
      "midi": 64,
      "hit": false,
      "t": 9500,
      "d": 250,
      "v": 100
    },
    {
      "midi": 68,
      "hit": false,
      "t": 9500,
      "d": 250,
      "v": 100
    },
    {
      "midi": 73,
      "hit": false,
      "t": 9750,
      "d": 125,
      "v": 100
    },
    {
      "midi": 69,
      "hit": false,
      "t": 9750,
      "d": 500,
      "v": 100
    },
    {
      "midi": 76,
      "hit": false,
      "t": 9875,
      "d": 125,
      "v": 100
    },
    {
      "midi": 73,
      "hit": false,
      "t": 10000,
      "d": 250,
      "v": 100
    },
    {
      "midi": 71,
      "hit": false,
      "t": 10250,
      "d": 250,
      "v": 100
    },
    {
      "midi": 64,
      "hit": false,
      "t": 10250,
      "d": 250,
      "v": 100
    },
    {
      "midi": 68,
      "hit": false,
      "t": 10250,
      "d": 250,
      "v": 100
    },
    {
      "midi": 73,
      "hit": false,
      "t": 10500,
      "d": 125,
      "v": 100
    },
    {
      "midi": 69,
      "hit": false,
      "t": 10500,
      "d": 500,
      "v": 100
    },
    {
      "midi": 76,
      "hit": false,
      "t": 10625,
      "d": 125,
      "v": 100
    },
    {
      "midi": 73,
      "hit": false,
      "t": 10750,
      "d": 250,
      "v": 100
    },
    {
      "midi": 71,
      "hit": false,
      "t": 11000,
      "d": 250,
      "v": 100
    },
    {
      "midi": 64,
      "hit": false,
      "t": 11000,
      "d": 250,
      "v": 100
    },
    {
      "midi": 68,
      "hit": false,
      "t": 11000,
      "d": 250,
      "v": 100
    },
    {
      "midi": 69,
      "hit": false,
      "t": 11250,
      "d": 750,
      "v": 100
    },
    {
      "midi": 73,
      "hit": false,
      "t": 11250,
      "d": 750,
      "v": 100
    },
    {
      "midi": 57,
      "hit": false,
      "t": 11250,
      "d": 750,
      "v": 100
    },
    {
      "midi": 64,
      "hit": false,
      "t": 11250,
      "d": 750,
      "v": 100
    },
    {
      "midi": 68,
      "hit": false,
      "t": 12000,
      "d": 750,
      "v": 100
    },
    {
      "midi": 74,
      "hit": false,
      "t": 12000,
      "d": 750,
      "v": 100
    },
    {
      "midi": 76,
      "hit": false,
      "t": 12000,
      "d": 750,
      "v": 100
    },
    {
      "midi": 59,
      "hit": false,
      "t": 12000,
      "d": 125,
      "v": 100
    },
    {
      "midi": 64,
      "hit": false,
      "t": 12125,
      "d": 125,
      "v": 100
    },
    {
      "midi": 59,
      "hit": false,
      "t": 12250,
      "d": 250,
      "v": 100
    },
    {
      "midi": 61,
      "hit": false,
      "t": 12500,
      "d": 250,
      "v": 100
    },
    {
      "midi": 68,
      "hit": false,
      "t": 12750,
      "d": 750,
      "v": 100
    },
    {
      "midi": 71,
      "hit": false,
      "t": 12750,
      "d": 750,
      "v": 100
    },
    {
      "midi": 76,
      "hit": false,
      "t": 12750,
      "d": 750,
      "v": 100
    },
    {
      "midi": 62,
      "hit": false,
      "t": 12750,
      "d": 125,
      "v": 100
    },
    {
      "midi": 64,
      "hit": false,
      "t": 12875,
      "d": 125,
      "v": 100
    },
    {
      "midi": 62,
      "hit": false,
      "t": 13000,
      "d": 250,
      "v": 100
    },
    {
      "midi": 61,
      "hit": false,
      "t": 13250,
      "d": 250,
      "v": 100
    },
    {
      "midi": 68,
      "hit": false,
      "t": 13500,
      "d": 750,
      "v": 100
    },
    {
      "midi": 74,
      "hit": false,
      "t": 13500,
      "d": 750,
      "v": 100
    },
    {
      "midi": 76,
      "hit": false,
      "t": 13500,
      "d": 750,
      "v": 100
    },
    {
      "midi": 59,
      "hit": false,
      "t": 13500,
      "d": 125,
      "v": 100
    },
    {
      "midi": 64,
      "hit": false,
      "t": 13625,
      "d": 125,
      "v": 100
    },
    {
      "midi": 59,
      "hit": false,
      "t": 13750,
      "d": 250,
      "v": 100
    },
    {
      "midi": 61,
      "hit": false,
      "t": 14000,
      "d": 250,
      "v": 100
    },
    {
      "midi": 68,
      "hit": false,
      "t": 14250,
      "d": 750,
      "v": 100
    },
    {
      "midi": 71,
      "hit": false,
      "t": 14250,
      "d": 750,
      "v": 100
    },
    {
      "midi": 76,
      "hit": false,
      "t": 14250,
      "d": 750,
      "v": 100
    },
    {
      "midi": 62,
      "hit": false,
      "t": 14250,
      "d": 750,
      "v": 100
    },
    {
      "midi": 69,
      "hit": false,
      "t": 15000,
      "d": 750,
      "v": 100
    },
    {
      "midi": 76,
      "hit": false,
      "t": 15000,
      "d": 750,
      "v": 100
    },
    {
      "midi": 61,
      "hit": false,
      "t": 15000,
      "d": 125,
      "v": 100
    },
    {
      "midi": 64,
      "hit": false,
      "t": 15125,
      "d": 125,
      "v": 100
    },
    {
      "midi": 61,
      "hit": false,
      "t": 15250,
      "d": 250,
      "v": 100
    },
    {
      "midi": 59,
      "hit": false,
      "t": 15500,
      "d": 250,
      "v": 100
    },
    {
      "midi": 69,
      "hit": false,
      "t": 15750,
      "d": 750,
      "v": 100
    },
    {
      "midi": 76,
      "hit": false,
      "t": 15750,
      "d": 750,
      "v": 100
    },
    {
      "midi": 57,
      "hit": false,
      "t": 15750,
      "d": 125,
      "v": 100
    },
    {
      "midi": 61,
      "hit": false,
      "t": 15875,
      "d": 125,
      "v": 100
    },
    {
      "midi": 57,
      "hit": false,
      "t": 16000,
      "d": 250,
      "v": 100
    },
    {
      "midi": 56,
      "hit": false,
      "t": 16250,
      "d": 250,
      "v": 100
    },
    {
      "midi": 61,
      "hit": false,
      "t": 16500,
      "d": 750,
      "v": 100
    },
    {
      "midi": 69,
      "hit": false,
      "t": 16500,
      "d": 750,
      "v": 100
    },
    {
      "midi": 54,
      "hit": false,
      "t": 16500,
      "d": 125,
      "v": 100
    },
    {
      "midi": 57,
      "hit": false,
      "t": 16625,
      "d": 125,
      "v": 100
    },
    {
      "midi": 54,
      "hit": false,
      "t": 16750,
      "d": 250,
      "v": 100
    },
    {
      "midi": 52,
      "hit": false,
      "t": 17000,
      "d": 250,
      "v": 100
    },
    {
      "midi": 61,
      "hit": false,
      "t": 17250,
      "d": 750,
      "v": 100
    },
    {
      "midi": 66,
      "hit": false,
      "t": 17250,
      "d": 750,
      "v": 100
    },
    {
      "midi": 51,
      "hit": false,
      "t": 17250,
      "d": 750,
      "v": 100
    },
    {
      "midi": 68,
      "hit": false,
      "t": 18000,
      "d": 125,
      "v": 100
    },
    {
      "midi": 56,
      "hit": false,
      "t": 18000,
      "d": 750,
      "v": 100
    },
    {
      "midi": 60,
      "hit": false,
      "t": 18000,
      "d": 750,
      "v": 100
    },
    {
      "midi": 69,
      "hit": false,
      "t": 18125,
      "d": 125,
      "v": 100
    },
    {
      "midi": 68,
      "hit": false,
      "t": 18250,
      "d": 250,
      "v": 100
    },
    {
      "midi": 63,
      "hit": false,
      "t": 18500,
      "d": 250,
      "v": 100
    },
    {
      "midi": 61,
      "hit": false,
      "t": 18750,
      "d": 750,
      "v": 100
    },
    {
      "midi": 66,
      "hit": false,
      "t": 18750,
      "d": 750,
      "v": 100
    },
    {
      "midi": 51,
      "hit": false,
      "t": 18750,
      "d": 750,
      "v": 100
    },
    {
      "midi": 57,
      "hit": false,
      "t": 18750,
      "d": 750,
      "v": 100
    },
    {
      "midi": 68,
      "hit": false,
      "t": 19500,
      "d": 125,
      "v": 100
    },
    {
      "midi": 56,
      "hit": false,
      "t": 19500,
      "d": 750,
      "v": 100
    },
    {
      "midi": 60,
      "hit": false,
      "t": 19500,
      "d": 750,
      "v": 100
    },
    {
      "midi": 69,
      "hit": false,
      "t": 19625,
      "d": 125,
      "v": 100
    },
    {
      "midi": 68,
      "hit": false,
      "t": 19750,
      "d": 250,
      "v": 100
    },
    {
      "midi": 63,
      "hit": false,
      "t": 20000,
      "d": 250,
      "v": 100
    },
    {
      "midi": 68,
      "hit": false,
      "t": 20250,
      "d": 125,
      "v": 100
    },
    {
      "midi": 56,
      "hit": false,
      "t": 20250,
      "d": 750,
      "v": 100
    },
    {
      "midi": 60,
      "hit": false,
      "t": 20250,
      "d": 750,
      "v": 100
    },
    {
      "midi": 69,
      "hit": false,
      "t": 20375,
      "d": 125,
      "v": 100
    },
    {
      "midi": 68,
      "hit": false,
      "t": 20500,
      "d": 250,
      "v": 100
    },
    {
      "midi": 63,
      "hit": false,
      "t": 20750,
      "d": 250,
      "v": 100
    },
    {
      "midi": 68,
      "hit": false,
      "t": 21000,
      "d": 125,
      "v": 100
    },
    {
      "midi": 49,
      "hit": false,
      "t": 21000,
      "d": 750,
      "v": 100
    },
    {
      "midi": 53,
      "hit": false,
      "t": 21000,
      "d": 750,
      "v": 100
    },
    {
      "midi": 59,
      "hit": false,
      "t": 21000,
      "d": 750,
      "v": 100
    },
    {
      "midi": 69,
      "hit": false,
      "t": 21125,
      "d": 125,
      "v": 100
    },
    {
      "midi": 68,
      "hit": false,
      "t": 21250,
      "d": 250,
      "v": 100
    },
    {
      "midi": 61,
      "hit": false,
      "t": 21500,
      "d": 250,
      "v": 100
    },
    {
      "midi": 66,
      "hit": false,
      "t": 22500,
      "d": 125,
      "v": 100
    },
    {
      "midi": 54,
      "hit": false,
      "t": 22500,
      "d": 750,
      "v": 100
    },
    {
      "midi": 57,
      "hit": false,
      "t": 22500,
      "d": 750,
      "v": 100
    },
    {
      "midi": 68,
      "hit": false,
      "t": 22625,
      "d": 125,
      "v": 100
    },
    {
      "midi": 66,
      "hit": false,
      "t": 22750,
      "d": 250,
      "v": 100
    },
    {
      "midi": 61,
      "hit": false,
      "t": 23000,
      "d": 250,
      "v": 100
    },
    {
      "midi": 66,
      "hit": false,
      "t": 23250,
      "d": 125,
      "v": 100
    },
    {
      "midi": 42,
      "hit": false,
      "t": 23250,
      "d": 750,
      "v": 100
    },
    {
      "midi": 49,
      "hit": false,
      "t": 23250,
      "d": 750,
      "v": 100
    },
    {
      "midi": 68,
      "hit": false,
      "t": 23375,
      "d": 125,
      "v": 100
    },
    {
      "midi": 66,
      "hit": false,
      "t": 23500,
      "d": 250,
      "v": 100
    },
    {
      "midi": 61,
      "hit": false,
      "t": 23750,
      "d": 250,
      "v": 100
    },
    {
      "midi": 66,
      "hit": false,
      "t": 24000,
      "d": 125,
      "v": 100
    },
    {
      "midi": 73,
      "hit": false,
      "t": 24000,
      "d": 750,
      "v": 100
    },
    {
      "midi": 78,
      "hit": false,
      "t": 24000,
      "d": 750,
      "v": 100
    },
    {
      "midi": 68,
      "hit": false,
      "t": 24125,
      "d": 125,
      "v": 100
    },
    {
      "midi": 66,
      "hit": false,
      "t": 24250,
      "d": 250,
      "v": 100
    },
    {
      "midi": 61,
      "hit": false,
      "t": 24500,
      "d": 250,
      "v": 100
    },
    {
      "midi": 66,
      "hit": false,
      "t": 24750,
      "d": 125,
      "v": 100
    },
    {
      "midi": 78,
      "hit": false,
      "t": 24750,
      "d": 750,
      "v": 100
    },
    {
      "midi": 85,
      "hit": false,
      "t": 24750,
      "d": 750,
      "v": 100
    },
    {
      "midi": 68,
      "hit": false,
      "t": 24875,
      "d": 125,
      "v": 100
    },
    {
      "midi": 66,
      "hit": false,
      "t": 25000,
      "d": 250,
      "v": 100
    },
    {
      "midi": 85,
      "hit": false,
      "t": 25500,
      "d": 250,
      "v": 100
    },
    {
      "midi": 90,
      "hit": false,
      "t": 25750,
      "d": 250,
      "v": 100
    },
    {
      "midi": 92,
      "hit": false,
      "t": 26000,
      "d": 250,
      "v": 100
    },
    {
      "midi": 93,
      "hit": false,
      "t": 26250,
      "d": 250,
      "v": 100
    },
    {
      "midi": 92,
      "hit": false,
      "t": 26500,
      "d": 250,
      "v": 100
    },
    {
      "midi": 90,
      "hit": false,
      "t": 26750,
      "d": 250,
      "v": 100
    },
    {
      "midi": 86,
      "hit": false,
      "t": 27000,
      "d": 125,
      "v": 100
    },
    {
      "midi": 90,
      "hit": false,
      "t": 27125,
      "d": 125,
      "v": 100
    },
    {
      "midi": 85,
      "hit": false,
      "t": 27250,
      "d": 250,
      "v": 100
    },
    {
      "midi": 83,
      "hit": false,
      "t": 27500,
      "d": 250,
      "v": 100
    },
    {
      "midi": 85,
      "hit": false,
      "t": 27750,
      "d": 750,
      "v": 100
    },
    {
      "midi": 93,
      "hit": false,
      "t": 28500,
      "d": 250,
      "v": 100
    },
    {
      "midi": 102,
      "hit": false,
      "t": 28500,
      "d": 250,
      "v": 100
    },
    {
      "midi": 57,
      "hit": false,
      "t": 28500,
      "d": 250,
      "v": 100
    },
    {
      "midi": 64,
      "hit": false,
      "t": 28500,
      "d": 250,
      "v": 100
    }
  ]
}