{
  "jsonPath": "Unknown/Unknown/Rewiring Genesis/lilywhite-lilith-album-version.json",
  "path": "Unknown\\Unknown\\Rewiring Genesis\\Lilywhite Lilith (Album Version).mid",
  "name": "Lilywhite Lilith (Album Version)",
  "difficulty": "Advanced",
  "bpm": 82.00082000820008,
  "notes": [
    {
      "midi": 70,
      "hit": false,
      "t": 55384.32,
      "d": 2130.397291666668,
      "v": 75
    },
    {
      "midi": 65,
      "hit": false,
      "t": 55384.32,
      "d": 2148.4260416666657,
      "v": 82
    },
    {
      "midi": 74,
      "hit": false,
      "t": 55384.32,
      "d": 2160.445208333331,
      "v": 89
    },
    {
      "midi": 34,
      "hit": false,
      "t": 55961.24,
      "d": 1048.6722916666695,
      "v": 83
    },
    {
      "midi": 46,
      "hit": false,
      "t": 55961.24,
      "d": 1099.7537500000035,
      "v": 126
    },
    {
      "midi": 34,
      "hit": false,
      "t": 57115.08,
      "d": 655.0445833333288,
      "v": 83
    },
    {
      "midi": 46,
      "hit": false,
      "t": 57115.08,
      "d": 697.111666666664,
      "v": 117
    },
    {
      "midi": 69,
      "hit": false,
      "t": 57692,
      "d": 2064.2918750000026,
      "v": 104
    },
    {
      "midi": 65,
      "hit": false,
      "t": 57692,
      "d": 2103.3541666666715,
      "v": 99
    },
    {
      "midi": 72,
      "hit": false,
      "t": 57692,
      "d": 2130.397291666668,
      "v": 102
    },
    {
      "midi": 34,
      "hit": false,
      "t": 58268.92,
      "d": 931.4854166666701,
      "v": 82
    },
    {
      "midi": 46,
      "hit": false,
      "t": 58268.92,
      "d": 982.5668750000041,
      "v": 119
    },
    {
      "midi": 34,
      "hit": false,
      "t": 59422.76,
      "d": 868.3847916666637,
      "v": 82
    },
    {
      "midi": 46,
      "hit": false,
      "t": 59422.76,
      "d": 889.4183333333276,
      "v": 119
    },
    {
      "midi": 63,
      "hit": false,
      "t": 59999.68,
      "d": 2001.1912499999962,
      "v": 88
    },
    {
      "midi": 70,
      "hit": false,
      "t": 59999.68,
      "d": 2043.2583333333314,
      "v": 104
    },
    {
      "midi": 67,
      "hit": false,
      "t": 59999.68,
      "d": 2049.267916666664,
      "v": 104
    },
    {
      "midi": 34,
      "hit": false,
      "t": 60576.6,
      "d": 916.4614583333314,
      "v": 80
    },
    {
      "midi": 46,
      "hit": false,
      "t": 60576.6,
      "d": 958.5285416666666,
      "v": 114
    },
    {
      "midi": 34,
      "hit": false,
      "t": 61730.439999999995,
      "d": 706.1260416666701,
      "v": 82
    },
    {
      "midi": 46,
      "hit": false,
      "t": 61730.439999999995,
      "d": 721.1500000000015,
      "v": 102
    },
    {
      "midi": 72,
      "hit": false,
      "t": 62307.36,
      "d": 1877.9947916666642,
      "v": 87
    },
    {
      "midi": 68,
      "hit": false,
      "t": 62307.36,
      "d": 1890.0139583333294,
      "v": 102
    },
    {
      "midi": 63,
      "hit": false,
      "t": 62307.36,
      "d": 1902.0331249999945,
      "v": 99
    },
    {
      "midi": 34,
      "hit": false,
      "t": 62884.28,
      "d": 916.4614583333314,
      "v": 82
    },
    {
      "midi": 46,
      "hit": false,
      "t": 62884.28,
      "d": 964.5381249999991,
      "v": 115
    },
    {
      "midi": 34,
      "hit": false,
      "t": 64038.119999999995,
      "d": 775.2362500000017,
      "v": 82
    },
    {
      "midi": 46,
      "hit": false,
      "t": 64038.119999999995,
      "d": 817.3033333333369,
      "v": 104
    },
    {
      "midi": 70,
      "hit": false,
      "t": 64615.03999999999,
      "d": 1944.1002083333296,
      "v": 91
    },
    {
      "midi": 65,
      "hit": false,
      "t": 64615.03999999999,
      "d": 1965.1337499999936,
      "v": 93
    },
    {
      "midi": 74,
      "hit": false,
      "t": 64615.03999999999,
      "d": 1971.1433333333262,
      "v": 91
    },
    {
      "midi": 34,
      "hit": false,
      "t": 65191.96,
      "d": 985.5716666666631,
      "v": 80
    },
    {
      "midi": 46,
      "hit": false,
      "t": 65191.96,
      "d": 1015.6195833333259,
      "v": 104
    },
    {
      "midi": 34,
      "hit": false,
      "t": 66345.79999999999,
      "d": 673.0733333333337,
      "v": 83
    },
    {
      "midi": 46,
      "hit": false,
      "t": 66345.79999999999,
      "d": 706.1260416666628,
      "v": 104
    },
    {
      "midi": 65,
      "hit": false,
      "t": 66922.71999999999,
      "d": 1754.798333333325,
      "v": 86
    },
    {
      "midi": 69,
      "hit": false,
      "t": 66922.71999999999,
      "d": 1778.8366666666552,
      "v": 102
    },
    {
      "midi": 72,
      "hit": false,
      "t": 66922.71999999999,
      "d": 1823.9085416666494,
      "v": 96
    },
    {
      "midi": 34,
      "hit": false,
      "t": 67499.63999999998,
      "d": 907.4470833333326,
      "v": 83
    },
    {
      "midi": 46,
      "hit": false,
      "t": 67499.63999999998,
      "d": 928.4806249999965,
      "v": 107
    },
    {
      "midi": 34,
      "hit": false,
      "t": 68653.47999999998,
      "d": 700.1164583333157,
      "v": 84
    },
    {
      "midi": 46,
      "hit": false,
      "t": 68653.47999999998,
      "d": 724.1547916666459,
      "v": 104
    },
    {
      "midi": 63,
      "hit": false,
      "t": 69230.39999999997,
      "d": 1983.1624999999913,
      "v": 93
    },
    {
      "midi": 68,
      "hit": false,
      "t": 69230.39999999997,
      "d": 1992.17687499999,
      "v": 83
    },
    {
      "midi": 72,
      "hit": false,
      "t": 69230.39999999997,
      "d": 2034.243958333318,
      "v": 88
    },
    {
      "midi": 34,
      "hit": false,
      "t": 69807.31999999996,
      "d": 1024.633958333332,
      "v": 87
    },
    {
      "midi": 46,
      "hit": false,
      "t": 69807.31999999996,
      "d": 1027.6387499999983,
      "v": 102
    },
    {
      "midi": 34,
      "hit": false,
      "t": 70961.15999999996,
      "d": 736.173958333311,
      "v": 86
    },
    {
      "midi": 46,
      "hit": false,
      "t": 70961.15999999996,
      "d": 739.1787499999773,
      "v": 104
    },
    {
      "midi": 63,
      "hit": false,
      "t": 71538.07999999994,
      "d": 3461.5199999999895,
      "v": 91
    },
    {
      "midi": 67,
      "hit": false,
      "t": 71538.07999999994,
      "d": 3461.5199999999895,
      "v": 102
    },
    {
      "midi": 70,
      "hit": false,
      "t": 71538.07999999994,
      "d": 3461.5199999999895,
      "v": 96
    },
    {
      "midi": 34,
      "hit": false,
      "t": 72114.99999999994,
      "d": 937.4949999999953,
      "v": 83
    },
    {
      "midi": 46,
      "hit": false,
      "t": 72114.99999999994,
      "d": 955.523749999993,
      "v": 111
    },
    {
      "midi": 34,
      "hit": false,
      "t": 73268.83999999994,
      "d": 1730.7599999999948,
      "v": 89
    },
    {
      "midi": 46,
      "hit": false,
      "t": 73268.83999999994,
      "d": 1730.7599999999948,
      "v": 102
    },
    {
      "midi": 58,
      "hit": false,
      "t": 92307.19999999992,
      "d": 2298.665624999994,
      "v": 100
    },
    {
      "midi": 62,
      "hit": false,
      "t": 92307.19999999992,
      "d": 2298.665624999994,
      "v": 100
    },
    {
      "midi": 65,
      "hit": false,
      "t": 92307.19999999992,
      "d": 2298.665624999994,
      "v": 100
    },
    {
      "midi": 61,
      "hit": false,
      "t": 94614.87999999992,
      "d": 2298.665624999994,
      "v": 87
    },
    {
      "midi": 65,
      "hit": false,
      "t": 94614.87999999992,
      "d": 2298.665624999994,
      "v": 96
    },
    {
      "midi": 68,
      "hit": false,
      "t": 94614.87999999992,
      "d": 2298.665624999994,
      "v": 92
    },
    {
      "midi": 58,
      "hit": false,
      "t": 96922.55999999991,
      "d": 2298.665624999994,
      "v": 94
    },
    {
      "midi": 63,
      "hit": false,
      "t": 96922.55999999991,
      "d": 2298.665624999994,
      "v": 92
    },
    {
      "midi": 67,
      "hit": false,
      "t": 96922.55999999991,
      "d": 2298.665624999994,
      "v": 95
    },
    {
      "midi": 58,
      "hit": false,
      "t": 99230.2399999999,
      "d": 2298.665624999994,
      "v": 92
    },
    {
      "midi": 62,
      "hit": false,
      "t": 99230.2399999999,
      "d": 2298.665624999994,
      "v": 92
    },
    {
      "midi": 65,
      "hit": false,
      "t": 99230.2399999999,
      "d": 2298.665624999994,
      "v": 97
    },
    {
      "midi": 61,
      "hit": false,
      "t": 101537.9199999999,
      "d": 2307.679999999993,
      "v": 89
    },
    {
      "midi": 65,
      "hit": false,
      "t": 101537.9199999999,
      "d": 2307.679999999993,
      "v": 87
    },
    {
      "midi": 68,
      "hit": false,
      "t": 101537.9199999999,
      "d": 2307.679999999993,
      "v": 100
    },
    {
      "midi": 60,
      "hit": false,
      "t": 103845.59999999989,
      "d": 2298.665624999994,
      "v": 92
    },
    {
      "midi": 63,
      "hit": false,
      "t": 103845.59999999989,
      "d": 2298.665624999994,
      "v": 92
    },
    {
      "midi": 67,
      "hit": false,
      "t": 103845.59999999989,
      "d": 2298.665624999994,
      "v": 86
    },
    {
      "midi": 56,
      "hit": false,
      "t": 106153.27999999988,
      "d": 1153.8399999999965,
      "v": 102
    },
    {
      "midi": 60,
      "hit": false,
      "t": 106153.27999999988,
      "d": 1153.8399999999965,
      "v": 102
    },
    {
      "midi": 63,
      "hit": false,
      "t": 106153.27999999988,
      "d": 1153.8399999999965,
      "v": 96
    },
    {
      "midi": 32,
      "hit": false,
      "t": 106922.50666666655,
      "d": 384.6133333333273,
      "v": 102
    },
    {
      "midi": 44,
      "hit": false,
      "t": 106922.50666666655,
      "d": 384.6133333333273,
      "v": 102
    },
    {
      "midi": 56,
      "hit": false,
      "t": 107307.11999999988,
      "d": 1153.8399999999965,
      "v": 102
    },
    {
      "midi": 60,
      "hit": false,
      "t": 107307.11999999988,
      "d": 1153.8399999999965,
      "v": 102
    },
    {
      "midi": 63,
      "hit": false,
      "t": 107307.11999999988,
      "d": 1153.8399999999965,
      "v": 96
    },
    {
      "midi": 32,
      "hit": false,
      "t": 108076.34666666655,
      "d": 384.6133333333273,
      "v": 102
    },
    {
      "midi": 44,
      "hit": false,
      "t": 108076.34666666655,
      "d": 384.6133333333273,
      "v": 102
    },
    {
      "midi": 34,
      "hit": false,
      "t": 108460.95999999988,
      "d": 3461.520000000004,
      "v": 102
    },
    {
      "midi": 46,
      "hit": false,
      "t": 108460.95999999988,
      "d": 3461.520000000004,
      "v": 102
    },
    {
      "midi": 58,
      "hit": false,
      "t": 108460.95999999988,
      "d": 3461.520000000004,
      "v": 102
    },
    {
      "midi": 62,
      "hit": false,
      "t": 108460.95999999988,
      "d": 3461.520000000004,
      "v": 102
    },
    {
      "midi": 65,
      "hit": false,
      "t": 108460.95999999988,
      "d": 3461.520000000004,
      "v": 96
    },
    {
      "midi": 58,
      "hit": false,
      "t": 113076.31999999988,
      "d": 2298.665624999994,
      "v": 100
    },
    {
      "midi": 62,
      "hit": false,
      "t": 113076.31999999988,
      "d": 2298.665624999994,
      "v": 100
    },
    {
      "midi": 65,
      "hit": false,
      "t": 113076.31999999988,
      "d": 2298.665624999994,
      "v": 100
    },
    {
      "midi": 61,
      "hit": false,
      "t": 115383.99999999987,
      "d": 2298.665624999994,
      "v": 87
    },
    {
      "midi": 65,
      "hit": false,
      "t": 115383.99999999987,
      "d": 2298.665624999994,
      "v": 96
    },
    {
      "midi": 68,
      "hit": false,
      "t": 115383.99999999987,
      "d": 2298.665624999994,
      "v": 92
    },
    {
      "midi": 58,
      "hit": false,
      "t": 117691.67999999986,
      "d": 2298.665624999994,
      "v": 94
    },
    {
      "midi": 63,
      "hit": false,
      "t": 117691.67999999986,
      "d": 2298.665624999994,
      "v": 92
    },
    {
      "midi": 67,
      "hit": false,
      "t": 117691.67999999986,
      "d": 2298.665624999994,
      "v": 95
    },
    {
      "midi": 58,
      "hit": false,
      "t": 119999.35999999986,
      "d": 2298.665624999994,
      "v": 92
    },
    {
      "midi": 62,
      "hit": false,
      "t": 119999.35999999986,
      "d": 2298.665624999994,
      "v": 92
    },
    {
      "midi": 65,
      "hit": false,
      "t": 119999.35999999986,
      "d": 2298.665624999994,
      "v": 97
    },
    {
      "midi": 61,
      "hit": false,
      "t": 122307.03999999985,
      "d": 2307.679999999993,
      "v": 89
    },
    {
      "midi": 65,
      "hit": false,
      "t": 122307.03999999985,
      "d": 2307.679999999993,
      "v": 87
    },
    {
      "midi": 68,
      "hit": false,
      "t": 122307.03999999985,
      "d": 2307.679999999993,
      "v": 100
    },
    {
      "midi": 60,
      "hit": false,
      "t": 124614.71999999984,
      "d": 2298.665624999994,
      "v": 92
    },
    {
      "midi": 63,
      "hit": false,
      "t": 124614.71999999984,
      "d": 2298.665624999994,
      "v": 92
    },
    {
      "midi": 67,
      "hit": false,
      "t": 124614.71999999984,
      "d": 2298.665624999994,
      "v": 86
    },
    {
      "midi": 56,
      "hit": false,
      "t": 126922.39999999983,
      "d": 1153.8399999999965,
      "v": 102
    },
    {
      "midi": 60,
      "hit": false,
      "t": 126922.39999999983,
      "d": 1153.8399999999965,
      "v": 102
    },
    {
      "midi": 63,
      "hit": false,
      "t": 126922.39999999983,
      "d": 1153.8399999999965,
      "v": 96
    },
    {
      "midi": 32,
      "hit": false,
      "t": 127691.6266666665,
      "d": 384.6133333333273,
      "v": 102
    },
    {
      "midi": 44,
      "hit": false,
      "t": 127691.6266666665,
      "d": 384.6133333333273,
      "v": 102
    },
    {
      "midi": 56,
      "hit": false,
      "t": 128076.23999999983,
      "d": 1153.8399999999965,
      "v": 102
    },
    {
      "midi": 60,
      "hit": false,
      "t": 128076.23999999983,
      "d": 1153.8399999999965,
      "v": 102
    },
    {
      "midi": 63,
      "hit": false,
      "t": 128076.23999999983,
      "d": 1153.8399999999965,
      "v": 96
    },
    {
      "midi": 32,
      "hit": false,
      "t": 128845.4666666665,
      "d": 384.6133333333273,
      "v": 102
    },
    {
      "midi": 44,
      "hit": false,
      "t": 128845.4666666665,
      "d": 384.6133333333273,
      "v": 102
    },
    {
      "midi": 70,
      "hit": false,
      "t": 129230.07999999983,
      "d": 2130.397291666639,
      "v": 104
    },
    {
      "midi": 65,
      "hit": false,
      "t": 129230.07999999983,
      "d": 2148.4260416666366,
      "v": 101
    },
    {
      "midi": 74,
      "hit": false,
      "t": 129230.07999999983,
      "d": 2160.4452083333017,
      "v": 103
    },
    {
      "midi": 34,
      "hit": false,
      "t": 129806.99999999983,
      "d": 1048.6722916666622,
      "v": 83
    },
    {
      "midi": 46,
      "hit": false,
      "t": 129806.99999999983,
      "d": 1099.753749999989,
      "v": 126
    },
    {
      "midi": 34,
      "hit": false,
      "t": 130960.83999999981,
      "d": 655.0445833333215,
      "v": 83
    },
    {
      "midi": 46,
      "hit": false,
      "t": 130960.83999999981,
      "d": 697.1116666666494,
      "v": 117
    },
    {
      "midi": 69,
      "hit": false,
      "t": 131537.7599999998,
      "d": 2064.2918749999662,
      "v": 104
    },
    {
      "midi": 65,
      "hit": false,
      "t": 131537.7599999998,
      "d": 2103.354166666628,
      "v": 99
    },
    {
      "midi": 72,
      "hit": false,
      "t": 131537.7599999998,
      "d": 2130.3972916666244,
      "v": 102
    },
    {
      "midi": 34,
      "hit": false,
      "t": 132114.6799999998,
      "d": 931.4854166666628,
      "v": 82
    },
    {
      "midi": 46,
      "hit": false,
      "t": 132114.6799999998,
      "d": 982.5668749999895,
      "v": 119
    },
    {
      "midi": 34,
      "hit": false,
      "t": 133268.5199999998,
      "d": 868.3847916666418,
      "v": 82
    },
    {
      "midi": 46,
      "hit": false,
      "t": 133268.5199999998,
      "d": 889.4183333333058,
      "v": 119
    },
    {
      "midi": 63,
      "hit": false,
      "t": 133845.43999999977,
      "d": 2001.1912499999744,
      "v": 88
    },
    {
      "midi": 70,
      "hit": false,
      "t": 133845.43999999977,
      "d": 2043.2583333333023,
      "v": 104
    },
    {
      "midi": 67,
      "hit": false,
      "t": 133845.43999999977,
      "d": 2049.267916666635,
      "v": 104
    },
    {
      "midi": 34,
      "hit": false,
      "t": 134422.35999999975,
      "d": 916.4614583333314,
      "v": 80
    },
    {
      "midi": 46,
      "hit": false,
      "t": 134422.35999999975,
      "d": 958.5285416666593,
      "v": 114
    },
    {
      "midi": 34,
      "hit": false,
      "t": 135576.19999999975,
      "d": 706.1260416666628,
      "v": 82
    },
    {
      "midi": 46,
      "hit": false,
      "t": 135576.19999999975,
      "d": 721.1499999999942,
      "v": 102
    },
    {
      "midi": 72,
      "hit": false,
      "t": 136153.11999999973,
      "d": 1877.994791666686,
      "v": 87
    },
    {
      "midi": 68,
      "hit": false,
      "t": 136153.11999999973,
      "d": 1890.0139583333512,
      "v": 102
    },
    {
      "midi": 63,
      "hit": false,
      "t": 136153.11999999973,
      "d": 1902.0331250000163,
      "v": 99
    },
    {
      "midi": 34,
      "hit": false,
      "t": 136730.03999999975,
      "d": 916.4614583333314,
      "v": 82
    },
    {
      "midi": 46,
      "hit": false,
      "t": 136730.03999999975,
      "d": 964.5381249999919,
      "v": 115
    },
    {
      "midi": 34,
      "hit": false,
      "t": 137883.87999999974,
      "d": 775.2362500000163,
      "v": 82
    },
    {
      "midi": 46,
      "hit": false,
      "t": 137883.87999999974,
      "d": 817.3033333333442,
      "v": 104
    },
    {
      "midi": 70,
      "hit": false,
      "t": 138460.79999999976,
      "d": 1944.100208333315,
      "v": 91
    },
    {
      "midi": 65,
      "hit": false,
      "t": 138460.79999999976,
      "d": 1965.133749999979,
      "v": 93
    },
    {
      "midi": 74,
      "hit": false,
      "t": 138460.79999999976,
      "d": 1971.1433333333116,
      "v": 91
    },
    {
      "midi": 34,
      "hit": false,
      "t": 139037.71999999974,
      "d": 985.5716666666558,
      "v": 80
    },
    {
      "midi": 46,
      "hit": false,
      "t": 139037.71999999974,
      "d": 1015.6195833333186,
      "v": 104
    },
    {
      "midi": 34,
      "hit": false,
      "t": 140191.55999999974,
      "d": 673.0733333333046,
      "v": 83
    },
    {
      "midi": 46,
      "hit": false,
      "t": 140191.55999999974,
      "d": 706.1260416666337,
      "v": 104
    },
    {
      "midi": 65,
      "hit": false,
      "t": 140768.47999999972,
      "d": 1754.7983333333104,
      "v": 86
    },
    {
      "midi": 69,
      "hit": false,
      "t": 140768.47999999972,
      "d": 1778.8366666666407,
      "v": 102
    },
    {
      "midi": 72,
      "hit": false,
      "t": 140768.47999999972,
      "d": 1823.9085416666348,
      "v": 96
    },
    {
      "midi": 34,
      "hit": false,
      "t": 141345.3999999997,
      "d": 907.4470833333326,
      "v": 83
    },
    {
      "midi": 46,
      "hit": false,
      "t": 141345.3999999997,
      "d": 928.4806249999965,
      "v": 107
    },
    {
      "midi": 34,
      "hit": false,
      "t": 142499.2399999997,
      "d": 700.1164583333302,
      "v": 84
    },
    {
      "midi": 46,
      "hit": false,
      "t": 142499.2399999997,
      "d": 724.1547916666605,
      "v": 104
    },
    {
      "midi": 63,
      "hit": false,
      "t": 143076.15999999968,
      "d": 1983.162500000035,
      "v": 93
    },
    {
      "midi": 68,
      "hit": false,
      "t": 143076.15999999968,
      "d": 1992.1768750000338,
      "v": 83
    },
    {
      "midi": 72,
      "hit": false,
      "t": 143076.15999999968,
      "d": 2034.2439583333617,
      "v": 88
    },
    {
      "midi": 34,
      "hit": false,
      "t": 143653.0799999997,
      "d": 1024.6339583333465,
      "v": 87
    },
    {
      "midi": 46,
      "hit": false,
      "t": 143653.0799999997,
      "d": 1027.6387500000128,
      "v": 102
    },
    {
      "midi": 34,
      "hit": false,
      "t": 144806.91999999972,
      "d": 736.1739583333256,
      "v": 86
    },
    {
      "midi": 46,
      "hit": false,
      "t": 144806.91999999972,
      "d": 739.1787499999919,
      "v": 104
    },
    {
      "midi": 63,
      "hit": false,
      "t": 145383.8399999997,
      "d": 2262.608124999999,
      "v": 91
    },
    {
      "midi": 67,
      "hit": false,
      "t": 145383.8399999997,
      "d": 2262.608124999999,
      "v": 102
    },
    {
      "midi": 70,
      "hit": false,
      "t": 145383.8399999997,
      "d": 2298.665624999994,
      "v": 96
    },
    {
      "midi": 34,
      "hit": false,
      "t": 145960.75999999972,
      "d": 937.4949999999953,
      "v": 83
    },
    {
      "midi": 46,
      "hit": false,
      "t": 145960.75999999972,
      "d": 955.523749999993,
      "v": 111
    },
    {
      "midi": 34,
      "hit": false,
      "t": 147114.59999999971,
      "d": 585.9343749999825,
      "v": 89
    },
    {
      "midi": 46,
      "hit": false,
      "t": 147114.59999999971,
      "d": 634.011041666643,
      "v": 102
    },
    {
      "midi": 56,
      "hit": false,
      "t": 147691.5199999997,
      "d": 450.71875,
      "v": 81
    },
    {
      "midi": 63,
      "hit": false,
      "t": 147691.5199999997,
      "d": 652.0397916666698,
      "v": 80
    },
    {
      "midi": 60,
      "hit": false,
      "t": 147691.5199999997,
      "d": 670.0685416666674,
      "v": 83
    },
    {
      "midi": 32,
      "hit": false,
      "t": 148460.74666666635,
      "d": 378.6037500000093,
      "v": 76
    },
    {
      "midi": 44,
      "hit": false,
      "t": 148460.74666666635,
      "d": 378.6037500000093,
      "v": 76
    },
    {
      "midi": 60,
      "hit": false,
      "t": 148845.3599999997,
      "d": 534.8529166666558,
      "v": 87
    },
    {
      "midi": 56,
      "hit": false,
      "t": 148845.3599999997,
      "d": 555.8864583333198,
      "v": 89
    },
    {
      "midi": 63,
      "hit": false,
      "t": 148845.3599999997,
      "d": 685.0924999999988,
      "v": 85
    },
    {
      "midi": 32,
      "hit": false,
      "t": 149614.58666666635,
      "d": 336.5366666666523,
      "v": 77
    },
    {
      "midi": 44,
      "hit": false,
      "t": 149614.58666666635,
      "d": 336.5366666666523,
      "v": 77
    },
    {
      "midi": 58,
      "hit": false,
      "t": 149999.19999999966,
      "d": 2307.679999999993,
      "v": 127
    },
    {
      "midi": 62,
      "hit": false,
      "t": 149999.19999999966,
      "d": 2307.679999999993,
      "v": 127
    },
    {
      "midi": 65,
      "hit": false,
      "t": 149999.19999999966,
      "d": 2307.679999999993,
      "v": 127
    }
  ]
}