{
  "jsonPath": "Unknown/Unknown/Rewiring Genesis/the-chamber-of-32-doors-album-version.json",
  "path": "Unknown\\Unknown\\Rewiring Genesis\\The Chamber of 32 Doors (Album Version).mid",
  "name": "The Chamber of 32 Doors (Album Version)",
  "difficulty": "Advanced",
  "bpm": 110.00011000011,
  "notes": [
    {
      "midi": 44,
      "hit": false,
      "t": 99442.931725,
      "d": 626.1909458333394,
      "v": 109
    },
    {
      "midi": 59,
      "hit": false,
      "t": 99447.69363333333,
      "d": 414.2860250000085,
      "v": 86
    },
    {
      "midi": 63,
      "hit": false,
      "t": 99450.0745875,
      "d": 633.3338083333365,
      "v": 109
    },
    {
      "midi": 66,
      "hit": false,
      "t": 99454.83649583333,
      "d": 640.4766708333482,
      "v": 117
    },
    {
      "midi": 59,
      "hit": false,
      "t": 99985.789275,
      "d": 507.14323750001495,
      "v": 96
    },
    {
      "midi": 44,
      "hit": false,
      "t": 100373.88480416668,
      "d": 626.1909458333394,
      "v": 109
    },
    {
      "midi": 59,
      "hit": false,
      "t": 100566.74209166669,
      "d": 166.6667916666629,
      "v": 102
    },
    {
      "midi": 71,
      "hit": false,
      "t": 100573.88495416669,
      "d": 161.90488333333633,
      "v": 123
    },
    {
      "midi": 63,
      "hit": false,
      "t": 100576.26590833336,
      "d": 228.57159999999567,
      "v": 109
    },
    {
      "midi": 66,
      "hit": false,
      "t": 100576.26590833336,
      "d": 269.0478208333225,
      "v": 117
    },
    {
      "midi": 59,
      "hit": false,
      "t": 100928.64712500002,
      "d": 328.57167499999923,
      "v": 125
    },
    {
      "midi": 44,
      "hit": false,
      "t": 101142.93300000002,
      "d": 407.14316249999683,
      "v": 109
    },
    {
      "midi": 58,
      "hit": false,
      "t": 101683.40959583335,
      "d": 440.47652083334106,
      "v": 100
    },
    {
      "midi": 42,
      "hit": false,
      "t": 101683.40959583335,
      "d": 592.8575875000097,
      "v": 103
    },
    {
      "midi": 61,
      "hit": false,
      "t": 101688.17150416668,
      "d": 619.0480833333568,
      "v": 127
    },
    {
      "midi": 66,
      "hit": false,
      "t": 101690.55245833335,
      "d": 628.5719000000245,
      "v": 126
    },
    {
      "midi": 58,
      "hit": false,
      "t": 102254.83859583335,
      "d": 157.1429750000243,
      "v": 94
    },
    {
      "midi": 42,
      "hit": false,
      "t": 102640.55317083337,
      "d": 557.1432749999949,
      "v": 103
    },
    {
      "midi": 66,
      "hit": false,
      "t": 102847.69618333338,
      "d": 102.38102916665957,
      "v": 100
    },
    {
      "midi": 73,
      "hit": false,
      "t": 102850.07713750005,
      "d": 92.85721249999187,
      "v": 117
    },
    {
      "midi": 70,
      "hit": false,
      "t": 102854.83904583337,
      "d": 83.33339583333873,
      "v": 109
    },
    {
      "midi": 58,
      "hit": false,
      "t": 103178.64881250003,
      "d": 209.52396666667482,
      "v": 127
    },
    {
      "midi": 42,
      "hit": false,
      "t": 103388.1727791667,
      "d": 138.0953416666598,
      "v": 109
    },
    {
      "midi": 49,
      "hit": false,
      "t": 103971.50655000003,
      "d": 380.95266666667885,
      "v": 96
    },
    {
      "midi": 61,
      "hit": false,
      "t": 103973.8875041667,
      "d": 440.47652083334106,
      "v": 100
    },
    {
      "midi": 65,
      "hit": false,
      "t": 103973.8875041667,
      "d": 476.1908333333413,
      "v": 116
    },
    {
      "midi": 56,
      "hit": false,
      "t": 103976.26845833338,
      "d": 430.95270416667336,
      "v": 109
    },
    {
      "midi": 49,
      "hit": false,
      "t": 105142.93600000005,
      "d": 316.6669041666755,
      "v": 103
    },
    {
      "midi": 68,
      "hit": false,
      "t": 105142.93600000005,
      "d": 371.42885000001115,
      "v": 126
    },
    {
      "midi": 65,
      "hit": false,
      "t": 105142.93600000005,
      "d": 388.095529166676,
      "v": 104
    },
    {
      "midi": 73,
      "hit": false,
      "t": 105142.93600000005,
      "d": 400.00030000001425,
      "v": 103
    },
    {
      "midi": 89,
      "hit": false,
      "t": 106088.17480416673,
      "d": 130.95247916666267,
      "v": 69
    },
    {
      "midi": 87,
      "hit": false,
      "t": 106173.88915416673,
      "d": 116.6667541666684,
      "v": 80
    },
    {
      "midi": 49,
      "hit": false,
      "t": 106238.17491666673,
      "d": 338.09549166666693,
      "v": 103
    },
    {
      "midi": 85,
      "hit": false,
      "t": 106240.5558708334,
      "d": 369.04789583332604,
      "v": 92
    },
    {
      "midi": 49,
      "hit": false,
      "t": 106831.03250416672,
      "d": 350.0002625000052,
      "v": 100
    },
    {
      "midi": 80,
      "hit": false,
      "t": 107195.31849166672,
      "d": 104.76198333333014,
      "v": 103
    },
    {
      "midi": 85,
      "hit": false,
      "t": 107197.6994458334,
      "d": 85.71434999999474,
      "v": 117
    },
    {
      "midi": 92,
      "hit": false,
      "t": 107197.6994458334,
      "d": 88.0953041666653,
      "v": 127
    },
    {
      "midi": 49,
      "hit": false,
      "t": 107811.98562083338,
      "d": 180.95251666665717,
      "v": 109
    },
    {
      "midi": 68,
      "hit": false,
      "t": 107950.08096250004,
      "d": 126.1905708333361,
      "v": 103
    },
    {
      "midi": 56,
      "hit": false,
      "t": 107952.46191666671,
      "d": 92.85721249999187,
      "v": 100
    },
    {
      "midi": 61,
      "hit": false,
      "t": 107957.22382500004,
      "d": 97.619120833333,
      "v": 117
    },
    {
      "midi": 59,
      "hit": false,
      "t": 108502.46232916671,
      "d": 428.57174999998824,
      "v": 104
    },
    {
      "midi": 44,
      "hit": false,
      "t": 108502.46232916671,
      "d": 761.9053333333286,
      "v": 109
    },
    {
      "midi": 63,
      "hit": false,
      "t": 108502.46232916671,
      "d": 978.5721625000006,
      "v": 127
    },
    {
      "midi": 66,
      "hit": false,
      "t": 108507.22423750004,
      "d": 964.2864375000063,
      "v": 117
    },
    {
      "midi": 59,
      "hit": false,
      "t": 109488.1773541667,
      "d": 116.6667541666684,
      "v": 102
    },
    {
      "midi": 44,
      "hit": false,
      "t": 109509.60594166671,
      "d": 573.8099541666597,
      "v": 103
    },
    {
      "midi": 59,
      "hit": false,
      "t": 109692.93941250004,
      "d": 157.1429749999952,
      "v": 112
    },
    {
      "midi": 71,
      "hit": false,
      "t": 109692.93941250004,
      "d": 157.1429749999952,
      "v": 116
    },
    {
      "midi": 63,
      "hit": false,
      "t": 109692.93941250004,
      "d": 221.42873749999853,
      "v": 103
    },
    {
      "midi": 66,
      "hit": false,
      "t": 109692.93941250004,
      "d": 271.42877499999304,
      "v": 117
    },
    {
      "midi": 59,
      "hit": false,
      "t": 110045.3206291667,
      "d": 252.3811416666722,
      "v": 125
    },
    {
      "midi": 44,
      "hit": false,
      "t": 110269.13032083337,
      "d": 352.38121666667575,
      "v": 117
    },
    {
      "midi": 58,
      "hit": false,
      "t": 110816.74977916671,
      "d": 397.6193458333437,
      "v": 96
    },
    {
      "midi": 61,
      "hit": false,
      "t": 110828.65455000005,
      "d": 585.7147250000125,
      "v": 117
    },
    {
      "midi": 66,
      "hit": false,
      "t": 110828.65455000005,
      "d": 619.0480833333422,
      "v": 127
    },
    {
      "midi": 42,
      "hit": false,
      "t": 110828.65455000005,
      "d": 633.3338083333365,
      "v": 103
    },
    {
      "midi": 58,
      "hit": false,
      "t": 111419.13118333339,
      "d": 114.28579999999783,
      "v": 86
    },
    {
      "midi": 42,
      "hit": false,
      "t": 111795.32194166673,
      "d": 538.0956416666595,
      "v": 96
    },
    {
      "midi": 66,
      "hit": false,
      "t": 111990.5601833334,
      "d": 119.04770833332441,
      "v": 96
    },
    {
      "midi": 73,
      "hit": false,
      "t": 111995.32209166672,
      "d": 107.1429375000007,
      "v": 103
    },
    {
      "midi": 70,
      "hit": false,
      "t": 111997.70304583339,
      "d": 88.0953041666653,
      "v": 117
    },
    {
      "midi": 58,
      "hit": false,
      "t": 112350.08426250005,
      "d": 154.7620208333392,
      "v": 127
    },
    {
      "midi": 42,
      "hit": false,
      "t": 112550.08441250006,
      "d": 154.7620208333392,
      "v": 109
    },
    {
      "midi": 49,
      "hit": false,
      "t": 113133.4181833334,
      "d": 514.2861000000121,
      "v": 100
    },
    {
      "midi": 56,
      "hit": false,
      "t": 113135.79913750007,
      "d": 895.2387666666764,
      "v": 96
    },
    {
      "midi": 61,
      "hit": false,
      "t": 113142.94200000007,
      "d": 842.8577750000113,
      "v": 117
    },
    {
      "midi": 65,
      "hit": false,
      "t": 113145.32295416674,
      "d": 895.2387666666764,
      "v": 112
    },
    {
      "midi": 65,
      "hit": false,
      "t": 114250.08568750008,
      "d": 559.52422916668,
      "v": 104
    },
    {
      "midi": 56,
      "hit": false,
      "t": 114252.46664166675,
      "d": 566.6670916666772,
      "v": 103
    },
    {
      "midi": 61,
      "hit": false,
      "t": 114254.84759583342,
      "d": 545.2385041666712,
      "v": 117
    },
    {
      "midi": 49,
      "hit": false,
      "t": 114823.89564166675,
      "d": 123.80961666666553,
      "v": 89
    },
    {
      "midi": 65,
      "hit": false,
      "t": 115404.8484583334,
      "d": 259.5240041666548,
      "v": 106
    },
    {
      "midi": 49,
      "hit": false,
      "t": 115409.61036666673,
      "d": 321.42881249998754,
      "v": 100
    },
    {
      "midi": 61,
      "hit": false,
      "t": 115409.61036666673,
      "d": 326.1907208333141,
      "v": 103
    },
    {
      "midi": 56,
      "hit": false,
      "t": 115414.37227500006,
      "d": 311.9049958333344,
      "v": 103
    },
    {
      "midi": 53,
      "hit": false,
      "t": 115821.51543750006,
      "d": 238.09541666667792,
      "v": 104
    },
    {
      "midi": 61,
      "hit": false,
      "t": 115823.89639166673,
      "d": 233.3335083333368,
      "v": 94
    },
    {
      "midi": 56,
      "hit": false,
      "t": 115823.89639166673,
      "d": 238.09541666667792,
      "v": 94
    },
    {
      "midi": 49,
      "hit": false,
      "t": 115833.4202083334,
      "d": 250.00018750001618,
      "v": 100
    },
    {
      "midi": 61,
      "hit": false,
      "t": 116197.70619583341,
      "d": 197.619195833322,
      "v": 96
    },
    {
      "midi": 56,
      "hit": false,
      "t": 116200.08715000008,
      "d": 164.28583749999234,
      "v": 117
    },
    {
      "midi": 65,
      "hit": false,
      "t": 116204.8490583334,
      "d": 173.80965416666004,
      "v": 96
    },
    {
      "midi": 49,
      "hit": false,
      "t": 116207.23001250008,
      "d": 252.38114166665764,
      "v": 96
    },
    {
      "midi": 56,
      "hit": false,
      "t": 116614.37317500007,
      "d": 2892.859312499975,
      "v": 117
    },
    {
      "midi": 60,
      "hit": false,
      "t": 116614.37317500007,
      "d": 2923.811716666649,
      "v": 118
    },
    {
      "midi": 63,
      "hit": false,
      "t": 116619.1350833334,
      "d": 2919.0498083333223,
      "v": 117
    },
    {
      "midi": 44,
      "hit": false,
      "t": 116626.2779458334,
      "d": 3271.4310249999835,
      "v": 109
    },
    {
      "midi": 49,
      "hit": false,
      "t": 120011.99477083338,
      "d": 314.2859499999904,
      "v": 109
    },
    {
      "midi": 65,
      "hit": false,
      "t": 120019.13763333338,
      "d": 202.38110416666314,
      "v": 106
    },
    {
      "midi": 61,
      "hit": false,
      "t": 120019.13763333338,
      "d": 311.90499583331984,
      "v": 103
    },
    {
      "midi": 56,
      "hit": false,
      "t": 120026.28049583337,
      "d": 292.857362499999,
      "v": 117
    },
    {
      "midi": 53,
      "hit": false,
      "t": 120388.1855291667,
      "d": 226.19064583333966,
      "v": 98
    },
    {
      "midi": 56,
      "hit": false,
      "t": 120397.70934583337,
      "d": 221.42873749999853,
      "v": 94
    },
    {
      "midi": 49,
      "hit": false,
      "t": 120400.09030000004,
      "d": 226.1906458333251,
      "v": 103
    },
    {
      "midi": 61,
      "hit": false,
      "t": 120400.09030000004,
      "d": 228.57159999999567,
      "v": 92
    },
    {
      "midi": 61,
      "hit": false,
      "t": 120745.3286541667,
      "d": 195.23824166665145,
      "v": 109
    },
    {
      "midi": 49,
      "hit": false,
      "t": 120745.3286541667,
      "d": 269.0478208333225,
      "v": 103
    },
    {
      "midi": 56,
      "hit": false,
      "t": 120750.09056250003,
      "d": 154.76202083332464,
      "v": 117
    },
    {
      "midi": 65,
      "hit": false,
      "t": 120750.09056250003,
      "d": 161.90488333332178,
      "v": 109
    },
    {
      "midi": 53,
      "hit": false,
      "t": 120766.7572416667,
      "d": 35.71431250000023,
      "v": 93
    },
    {
      "midi": 63,
      "hit": false,
      "t": 121133.42418333337,
      "d": 2188.096879166682,
      "v": 100
    },
    {
      "midi": 60,
      "hit": false,
      "t": 121135.80513750004,
      "d": 2147.6206583333405,
      "v": 118
    },
    {
      "midi": 56,
      "hit": false,
      "t": 121138.1860916667,
      "d": 2133.3349333333317,
      "v": 117
    },
    {
      "midi": 44,
      "hit": false,
      "t": 121142.94800000003,
      "d": 4395.24139166667,
      "v": 103
    },
    {
      "midi": 61,
      "hit": false,
      "t": 124616.76012916671,
      "d": 266.66686666666646,
      "v": 126
    },
    {
      "midi": 65,
      "hit": false,
      "t": 124992.95088750005,
      "d": 185.7144249999983,
      "v": 118
    },
    {
      "midi": 68,
      "hit": false,
      "t": 125331.04637916671,
      "d": 121.42866249999497,
      "v": 126
    },
    {
      "midi": 44,
      "hit": false,
      "t": 125695.3323666667,
      "d": 833.3339583333145,
      "v": 109
    },
    {
      "midi": 59,
      "hit": false,
      "t": 125702.4752291667,
      "d": 483.3336958333239,
      "v": 127
    },
    {
      "midi": 63,
      "hit": false,
      "t": 125702.4752291667,
      "d": 945.2388041666418,
      "v": 127
    },
    {
      "midi": 66,
      "hit": false,
      "t": 125709.61809166669,
      "d": 921.4292624999798,
      "v": 127
    },
    {
      "midi": 59,
      "hit": false,
      "t": 126623.90449166668,
      "d": 135.7143875000038,
      "v": 96
    },
    {
      "midi": 44,
      "hit": false,
      "t": 126659.61880416668,
      "d": 652.381441666701,
      "v": 96
    },
    {
      "midi": 59,
      "hit": false,
      "t": 126847.71418333334,
      "d": 164.2858375000069,
      "v": 109
    },
    {
      "midi": 63,
      "hit": false,
      "t": 126847.71418333334,
      "d": 250.00018750001618,
      "v": 117
    },
    {
      "midi": 66,
      "hit": false,
      "t": 126850.09513750001,
      "d": 285.7145000000164,
      "v": 127
    },
    {
      "midi": 71,
      "hit": false,
      "t": 126852.47609166669,
      "d": 178.57156250000116,
      "v": 116
    },
    {
      "midi": 59,
      "hit": false,
      "t": 127219.14303333337,
      "d": 250.00018750000163,
      "v": 125
    },
    {
      "midi": 44,
      "hit": false,
      "t": 127426.28604583337,
      "d": 407.14316249999683,
      "v": 100
    },
    {
      "midi": 58,
      "hit": false,
      "t": 127992.95313750004,
      "d": 345.2383541666495,
      "v": 103
    },
    {
      "midi": 61,
      "hit": false,
      "t": 127992.95313750004,
      "d": 552.3813666666538,
      "v": 126
    },
    {
      "midi": 42,
      "hit": false,
      "t": 127997.71504583336,
      "d": 633.3338083333219,
      "v": 96
    },
    {
      "midi": 66,
      "hit": false,
      "t": 128002.47695416669,
      "d": 547.6194583333272,
      "v": 126
    },
    {
      "midi": 58,
      "hit": false,
      "t": 128533.42973333335,
      "d": 104.76198333333014,
      "v": 96
    },
    {
      "midi": 42,
      "hit": false,
      "t": 128935.81098750002,
      "d": 583.3337708332983,
      "v": 109
    },
    {
      "midi": 66,
      "hit": false,
      "t": 129128.66827500002,
      "d": 128.57152499997756,
      "v": 94
    },
    {
      "midi": 70,
      "hit": false,
      "t": 129135.81113750002,
      "d": 109.52389166665671,
      "v": 103
    },
    {
      "midi": 73,
      "hit": false,
      "t": 129140.57304583334,
      "d": 111.90484583332727,
      "v": 117
    },
    {
      "midi": 58,
      "hit": false,
      "t": 129514.38285,
      "d": 138.0953416666598,
      "v": 127
    },
    {
      "midi": 42,
      "hit": false,
      "t": 129704.85918333332,
      "d": 226.19064583333966,
      "v": 103
    },
    {
      "midi": 61,
      "hit": false,
      "t": 130278.6691375,
      "d": 526.1908708333067,
      "v": 92
    },
    {
      "midi": 65,
      "hit": false,
      "t": 130283.43104583332,
      "d": 509.5241916666564,
      "v": 98
    },
    {
      "midi": 56,
      "hit": false,
      "t": 130283.43104583332,
      "d": 514.286099999983,
      "v": 86
    },
    {
      "midi": 49,
      "hit": false,
      "t": 130290.57390833332,
      "d": 521.4289624999801,
      "v": 109
    },
    {
      "midi": 49,
      "hit": false,
      "t": 131397.7175958333,
      "d": 242.85732500001905,
      "v": 109
    },
    {
      "midi": 65,
      "hit": false,
      "t": 131407.24141249995,
      "d": 166.66679166667745,
      "v": 98
    },
    {
      "midi": 68,
      "hit": false,
      "t": 131409.62236666662,
      "d": 188.09537916668341,
      "v": 117
    },
    {
      "midi": 73,
      "hit": false,
      "t": 131414.38427499996,
      "d": 185.71442500001285,
      "v": 117
    },
    {
      "midi": 89,
      "hit": false,
      "t": 132590.5756333333,
      "d": 247.61923333336017,
      "v": 102
    },
    {
      "midi": 85,
      "hit": false,
      "t": 132595.33754166664,
      "d": 214.2858750000014,
      "v": 127
    },
    {
      "midi": 49,
      "hit": false,
      "t": 132597.7184958333,
      "d": 219.04778333334252,
      "v": 96
    },
    {
      "midi": 80,
      "hit": false,
      "t": 132597.7184958333,
      "d": 233.3335083333368,
      "v": 100
    },
    {
      "midi": 49,
      "hit": false,
      "t": 133204.8618083333,
      "d": 307.1430875000078,
      "v": 92
    },
    {
      "midi": 92,
      "hit": false,
      "t": 133564.3858875,
      "d": 161.90488333333633,
      "v": 127
    },
    {
      "midi": 89,
      "hit": false,
      "t": 133569.14779583333,
      "d": 140.47629583333037,
      "v": 102
    },
    {
      "midi": 97,
      "hit": false,
      "t": 133571.52875,
      "d": 154.76202083332464,
      "v": 117
    },
    {
      "midi": 49,
      "hit": false,
      "t": 133726.29077083332,
      "d": 150.00011250001262,
      "v": 100
    },
    {
      "midi": 73,
      "hit": false,
      "t": 134247.71973333333,
      "d": 133.33343333334778,
      "v": 117
    },
    {
      "midi": 42,
      "hit": false,
      "t": 134247.71973333333,
      "d": 159.52392916669487,
      "v": 126
    },
    {
      "midi": 77,
      "hit": false,
      "t": 134252.48164166667,
      "d": 100.00007500001811,
      "v": 112
    },
    {
      "midi": 80,
      "hit": false,
      "t": 134252.48164166667,
      "d": 109.52389166667126,
      "v": 127
    },
    {
      "midi": 44,
      "hit": false,
      "t": 134826.29159583335,
      "d": 835.7149124999996,
      "v": 126
    },
    {
      "midi": 63,
      "hit": false,
      "t": 134828.67255000002,
      "d": 954.762620833324,
      "v": 127
    },
    {
      "midi": 59,
      "hit": false,
      "t": 134831.0535041667,
      "d": 369.04789583332604,
      "v": 112
    },
    {
      "midi": 66,
      "hit": false,
      "t": 134835.81541250003,
      "d": 933.3340333333181,
      "v": 126
    },
    {
      "midi": 59,
      "hit": false,
      "t": 135764.3875375,
      "d": 107.1429375000007,
      "v": 102
    },
    {
      "midi": 71,
      "hit": false,
      "t": 135952.48291666666,
      "d": 371.4288500000257,
      "v": 118
    },
    {
      "midi": 59,
      "hit": false,
      "t": 135954.86387083333,
      "d": 261.90495833335444,
      "v": 116
    },
    {
      "midi": 66,
      "hit": false,
      "t": 135954.86387083333,
      "d": 409.5241166666965,
      "v": 126
    },
    {
      "midi": 63,
      "hit": false,
      "t": 135959.62577916667,
      "d": 490.4765583333501,
      "v": 117
    },
    {
      "midi": 59,
      "hit": false,
      "t": 136345.3403541667,
      "d": 235.71446250000736,
      "v": 125
    },
    {
      "midi": 44,
      "hit": false,
      "t": 136547.72145833337,
      "d": 319.04785833333153,
      "v": 109
    },
    {
      "midi": 58,
      "hit": false,
      "t": 137138.1980916667,
      "d": 392.85743750000256,
      "v": 103
    },
    {
      "midi": 42,
      "hit": false,
      "t": 137142.96000000005,
      "d": 647.6195333333162,
      "v": 109
    },
    {
      "midi": 61,
      "hit": false,
      "t": 137145.34095416672,
      "d": 576.1909083333157,
      "v": 126
    },
    {
      "midi": 66,
      "hit": false,
      "t": 137147.7219083334,
      "d": 578.5718624999863,
      "v": 117
    },
    {
      "midi": 58,
      "hit": false,
      "t": 137721.53186250004,
      "d": 95.23816666667699,
      "v": 109
    },
    {
      "midi": 42,
      "hit": false,
      "t": 138133.43693333337,
      "d": 602.3814041666628,
      "v": 117
    },
    {
      "midi": 66,
      "hit": false,
      "t": 138350.10376250005,
      "d": 114.28580000001239,
      "v": 100
    },
    {
      "midi": 70,
      "hit": false,
      "t": 138352.48471666672,
      "d": 102.38102916665957,
      "v": 127
    },
    {
      "midi": 73,
      "hit": false,
      "t": 138354.8656708334,
      "d": 107.1429375000007,
      "v": 127
    },
    {
      "midi": 58,
      "hit": false,
      "t": 138704.86593333338,
      "d": 147.61915833331295,
      "v": 127
    },
    {
      "midi": 42,
      "hit": false,
      "t": 138895.3422666667,
      "d": 114.28580000001239,
      "v": 109
    },
    {
      "midi": 65,
      "hit": false,
      "t": 139450.10458750004,
      "d": 685.7148000000161,
      "v": 106
    },
    {
      "midi": 56,
      "hit": false,
      "t": 139452.4855416667,
      "d": 692.8576624999987,
      "v": 117
    },
    {
      "midi": 61,
      "hit": false,
      "t": 139457.24745000005,
      "d": 623.8099916666688,
      "v": 109
    },
    {
      "midi": 49,
      "hit": false,
      "t": 139457.24745000005,
      "d": 1309.524791666685,
      "v": 127
    },
    {
      "midi": 65,
      "hit": false,
      "t": 140581.05781666673,
      "d": 564.2861375000211,
      "v": 104
    },
    {
      "midi": 61,
      "hit": false,
      "t": 140585.81972500007,
      "d": 576.1909083333449,
      "v": 96
    },
    {
      "midi": 56,
      "hit": false,
      "t": 140585.81972500007,
      "d": 588.0956791666686,
      "v": 103
    },
    {
      "midi": 49,
      "hit": false,
      "t": 141190.5820833334,
      "d": 152.38106666665408,
      "v": 72
    },
    {
      "midi": 49,
      "hit": false,
      "t": 141733.4396333334,
      "d": 347.6193083333783,
      "v": 109
    },
    {
      "midi": 61,
      "hit": false,
      "t": 141733.4396333334,
      "d": 354.76217083339,
      "v": 117
    },
    {
      "midi": 65,
      "hit": false,
      "t": 141735.82058750006,
      "d": 297.6192708333547,
      "v": 106
    },
    {
      "midi": 56,
      "hit": false,
      "t": 141735.82058750006,
      "d": 338.09549166669603,
      "v": 103
    },
    {
      "midi": 53,
      "hit": false,
      "t": 142133.43993333343,
      "d": 226.1906458333542,
      "v": 112
    },
    {
      "midi": 56,
      "hit": false,
      "t": 142140.58279583344,
      "d": 235.71446250000736,
      "v": 94
    },
    {
      "midi": 49,
      "hit": false,
      "t": 142140.58279583344,
      "d": 240.47637083334848,
      "v": 96
    },
    {
      "midi": 61,
      "hit": false,
      "t": 142147.72565833345,
      "d": 228.57159999999567,
      "v": 94
    },
    {
      "midi": 65,
      "hit": false,
      "t": 142478.67828750014,
      "d": 197.61919583336567,
      "v": 95
    },
    {
      "midi": 56,
      "hit": false,
      "t": 142481.0592416668,
      "d": 171.42870000001858,
      "v": 100
    },
    {
      "midi": 61,
      "hit": false,
      "t": 142481.0592416668,
      "d": 195.2382416666951,
      "v": 96
    },
    {
      "midi": 49,
      "hit": false,
      "t": 142488.20210416682,
      "d": 278.5716375000193,
      "v": 100
    },
    {
      "midi": 53,
      "hit": false,
      "t": 142509.63069166683,
      "d": 28.571449999988545,
      "v": 60
    },
    {
      "midi": 56,
      "hit": false,
      "t": 142881.05954166685,
      "d": 2259.5255041666387,
      "v": 109
    },
    {
      "midi": 63,
      "hit": false,
      "t": 142881.05954166685,
      "d": 2297.6207708333095,
      "v": 109
    },
    {
      "midi": 60,
      "hit": false,
      "t": 142885.8214500002,
      "d": 2290.477908333298,
      "v": 116
    },
    {
      "midi": 44,
      "hit": false,
      "t": 142895.34526666685,
      "d": 3230.9548041666567,
      "v": 109
    },
    {
      "midi": 65,
      "hit": false,
      "t": 146252.49064166684,
      "d": 271.4287750000076,
      "v": 104
    },
    {
      "midi": 61,
      "hit": false,
      "t": 146252.49064166684,
      "d": 321.4288125000021,
      "v": 94
    },
    {
      "midi": 56,
      "hit": false,
      "t": 146254.8715958335,
      "d": 314.2859499999904,
      "v": 103
    },
    {
      "midi": 49,
      "hit": false,
      "t": 146259.63350416685,
      "d": 321.4288125000021,
      "v": 103
    },
    {
      "midi": 53,
      "hit": false,
      "t": 146645.34807916684,
      "d": 247.61923333336017,
      "v": 98
    },
    {
      "midi": 61,
      "hit": false,
      "t": 146647.7290333335,
      "d": 240.47637083334848,
      "v": 103
    },
    {
      "midi": 56,
      "hit": false,
      "t": 146650.10998750018,
      "d": 238.09541666667792,
      "v": 126
    },
    {
      "midi": 49,
      "hit": false,
      "t": 146652.49094166685,
      "d": 240.47637083334848,
      "v": 109
    },
    {
      "midi": 61,
      "hit": false,
      "t": 147009.63406666685,
      "d": 230.95255416666623,
      "v": 103
    },
    {
      "midi": 49,
      "hit": false,
      "t": 147009.63406666685,
      "d": 280.95259166666074,
      "v": 103
    },
    {
      "midi": 65,
      "hit": false,
      "t": 147012.01502083353,
      "d": 183.3334708333423,
      "v": 104
    },
    {
      "midi": 56,
      "hit": false,
      "t": 147012.01502083353,
      "d": 192.85728749999544,
      "v": 100
    },
    {
      "midi": 63,
      "hit": false,
      "t": 147402.49150416686,
      "d": 1300.0009750000318,
      "v": 126
    },
    {
      "midi": 56,
      "hit": false,
      "t": 147407.2534125002,
      "d": 1261.9057083333319,
      "v": 127
    },
    {
      "midi": 44,
      "hit": false,
      "t": 147407.2534125002,
      "d": 1264.2866625000024,
      "v": 103
    },
    {
      "midi": 60,
      "hit": false,
      "t": 147412.01532083354,
      "d": 1285.7152500000084,
      "v": 112
    },
    {
      "midi": 59,
      "hit": false,
      "t": 245714.4700000002,
      "d": 483.3336958333384,
      "v": 113
    },
    {
      "midi": 44,
      "hit": false,
      "t": 245714.4700000002,
      "d": 833.3339583333291,
      "v": 95
    },
    {
      "midi": 66,
      "hit": false,
      "t": 245714.4700000002,
      "d": 921.4292624999944,
      "v": 111
    },
    {
      "midi": 63,
      "hit": false,
      "t": 245714.4700000002,
      "d": 945.2388041666709,
      "v": 115
    },
    {
      "midi": 59,
      "hit": false,
      "t": 246623.99449166688,
      "d": 135.71438749998924,
      "v": 84
    },
    {
      "midi": 44,
      "hit": false,
      "t": 246659.70880416688,
      "d": 652.3814416666573,
      "v": 84
    },
    {
      "midi": 59,
      "hit": false,
      "t": 246847.80418333353,
      "d": 164.2858375000069,
      "v": 95
    },
    {
      "midi": 63,
      "hit": false,
      "t": 246847.80418333353,
      "d": 250.00018750000163,
      "v": 102
    },
    {
      "midi": 66,
      "hit": false,
      "t": 246850.1851375002,
      "d": 285.71450000000186,
      "v": 111
    },
    {
      "midi": 71,
      "hit": false,
      "t": 246852.56609166687,
      "d": 178.57156250000116,
      "v": 101
    },
    {
      "midi": 59,
      "hit": false,
      "t": 247219.23303333353,
      "d": 250.00018750003073,
      "v": 109
    },
    {
      "midi": 44,
      "hit": false,
      "t": 247426.37604583355,
      "d": 407.14316250002594,
      "v": 87
    },
    {
      "midi": 58,
      "hit": false,
      "t": 247993.04313750024,
      "d": 345.2383541666786,
      "v": 90
    },
    {
      "midi": 61,
      "hit": false,
      "t": 247993.04313750024,
      "d": 552.3813666666683,
      "v": 110
    },
    {
      "midi": 42,
      "hit": false,
      "t": 247997.80504583358,
      "d": 633.3338083333219,
      "v": 84
    },
    {
      "midi": 66,
      "hit": false,
      "t": 248002.56695416692,
      "d": 547.6194583333272,
      "v": 110
    },
    {
      "midi": 58,
      "hit": false,
      "t": 248533.51973333358,
      "d": 104.76198333333014,
      "v": 84
    },
    {
      "midi": 42,
      "hit": false,
      "t": 248935.90098750024,
      "d": 583.3337708333856,
      "v": 95
    },
    {
      "midi": 66,
      "hit": false,
      "t": 249128.75827500023,
      "d": 128.57152500003576,
      "v": 82
    },
    {
      "midi": 70,
      "hit": false,
      "t": 249135.90113750024,
      "d": 109.52389166667126,
      "v": 90
    },
    {
      "midi": 73,
      "hit": false,
      "t": 249140.6630458336,
      "d": 111.90484583334182,
      "v": 102
    },
    {
      "midi": 58,
      "hit": false,
      "t": 249514.47285000028,
      "d": 138.0953416666889,
      "v": 111
    },
    {
      "midi": 42,
      "hit": false,
      "t": 249704.94918333364,
      "d": 226.1906458333251,
      "v": 90
    },
    {
      "midi": 61,
      "hit": false,
      "t": 250278.75913750028,
      "d": 526.1908708333794,
      "v": 80
    },
    {
      "midi": 65,
      "hit": false,
      "t": 250283.52104583362,
      "d": 509.5241916666855,
      "v": 86
    },
    {
      "midi": 56,
      "hit": false,
      "t": 250283.52104583362,
      "d": 514.2861000000266,
      "v": 75
    },
    {
      "midi": 49,
      "hit": false,
      "t": 250290.66390833363,
      "d": 521.4289625000383,
      "v": 95
    },
    {
      "midi": 49,
      "hit": false,
      "t": 251397.80759583367,
      "d": 242.85732500001905,
      "v": 95
    },
    {
      "midi": 65,
      "hit": false,
      "t": 251407.33141250032,
      "d": 166.66679166667745,
      "v": 86
    },
    {
      "midi": 68,
      "hit": false,
      "t": 251409.712366667,
      "d": 188.09537916668341,
      "v": 102
    },
    {
      "midi": 73,
      "hit": false,
      "t": 251414.47427500034,
      "d": 185.71442500001285,
      "v": 102
    },
    {
      "midi": 89,
      "hit": false,
      "t": 252590.66563333367,
      "d": 247.61923333336017,
      "v": 89
    },
    {
      "midi": 85,
      "hit": false,
      "t": 252595.427541667,
      "d": 214.2858750000014,
      "v": 111
    },
    {
      "midi": 49,
      "hit": false,
      "t": 252597.80849583368,
      "d": 219.04778333334252,
      "v": 84
    },
    {
      "midi": 80,
      "hit": false,
      "t": 252597.80849583368,
      "d": 233.3335083333368,
      "v": 87
    },
    {
      "midi": 49,
      "hit": false,
      "t": 253204.9518083337,
      "d": 307.1430875000078,
      "v": 80
    },
    {
      "midi": 92,
      "hit": false,
      "t": 253564.47588750036,
      "d": 161.90488333333633,
      "v": 111
    },
    {
      "midi": 89,
      "hit": false,
      "t": 253569.2377958337,
      "d": 140.47629583333037,
      "v": 89
    },
    {
      "midi": 97,
      "hit": false,
      "t": 253571.61875000037,
      "d": 154.76202083332464,
      "v": 102
    },
    {
      "midi": 49,
      "hit": false,
      "t": 253726.3807708337,
      "d": 150.00011250001262,
      "v": 87
    },
    {
      "midi": 73,
      "hit": false,
      "t": 254247.8097333337,
      "d": 133.33343333334778,
      "v": 102
    },
    {
      "midi": 42,
      "hit": false,
      "t": 254247.8097333337,
      "d": 159.52392916669487,
      "v": 110
    },
    {
      "midi": 77,
      "hit": false,
      "t": 254252.57164166705,
      "d": 100.00007500001811,
      "v": 98
    },
    {
      "midi": 80,
      "hit": false,
      "t": 254252.57164166705,
      "d": 109.52389166667126,
      "v": 111
    },
    {
      "midi": 44,
      "hit": false,
      "t": 254826.38159583372,
      "d": 835.7149124999996,
      "v": 110
    },
    {
      "midi": 63,
      "hit": false,
      "t": 254828.7625500004,
      "d": 954.762620833324,
      "v": 118
    },
    {
      "midi": 59,
      "hit": false,
      "t": 254831.14350416706,
      "d": 369.04789583332604,
      "v": 98
    },
    {
      "midi": 66,
      "hit": false,
      "t": 254835.9054125004,
      "d": 933.3340333333181,
      "v": 110
    },
    {
      "midi": 59,
      "hit": false,
      "t": 255764.47753750038,
      "d": 107.1429375000007,
      "v": 89
    },
    {
      "midi": 71,
      "hit": false,
      "t": 255952.57291666704,
      "d": 371.4288500000257,
      "v": 103
    },
    {
      "midi": 59,
      "hit": false,
      "t": 255954.9538708337,
      "d": 261.90495833335444,
      "v": 101
    },
    {
      "midi": 66,
      "hit": false,
      "t": 255954.9538708337,
      "d": 409.5241166666965,
      "v": 110
    },
    {
      "midi": 63,
      "hit": false,
      "t": 255959.71577916705,
      "d": 490.4765583333501,
      "v": 102
    },
    {
      "midi": 59,
      "hit": false,
      "t": 256345.43035416707,
      "d": 235.71446250000736,
      "v": 109
    },
    {
      "midi": 44,
      "hit": false,
      "t": 256547.81145833374,
      "d": 319.04785833333153,
      "v": 95
    },
    {
      "midi": 58,
      "hit": false,
      "t": 257138.28809166708,
      "d": 392.85743750000256,
      "v": 90
    },
    {
      "midi": 42,
      "hit": false,
      "t": 257143.05000000042,
      "d": 647.6195333333162,
      "v": 95
    },
    {
      "midi": 61,
      "hit": false,
      "t": 257145.4309541671,
      "d": 576.1909083333157,
      "v": 110
    },
    {
      "midi": 66,
      "hit": false,
      "t": 257147.81190833377,
      "d": 578.5718624999863,
      "v": 102
    },
    {
      "midi": 58,
      "hit": false,
      "t": 257721.6218625004,
      "d": 95.23816666667699,
      "v": 95
    },
    {
      "midi": 42,
      "hit": false,
      "t": 258133.52693333375,
      "d": 602.3814041666628,
      "v": 102
    },
    {
      "midi": 66,
      "hit": false,
      "t": 258350.19376250042,
      "d": 114.28580000001239,
      "v": 87
    },
    {
      "midi": 70,
      "hit": false,
      "t": 258352.5747166671,
      "d": 102.38102916665957,
      "v": 111
    },
    {
      "midi": 73,
      "hit": false,
      "t": 258354.95567083376,
      "d": 107.1429375000007,
      "v": 115
    },
    {
      "midi": 58,
      "hit": false,
      "t": 258704.95593333375,
      "d": 147.61915833331295,
      "v": 111
    },
    {
      "midi": 42,
      "hit": false,
      "t": 258895.43226666708,
      "d": 114.28580000001239,
      "v": 95
    },
    {
      "midi": 65,
      "hit": false,
      "t": 259450.19458750042,
      "d": 685.7148000000161,
      "v": 93
    },
    {
      "midi": 56,
      "hit": false,
      "t": 259452.5755416671,
      "d": 692.8576624999987,
      "v": 102
    },
    {
      "midi": 61,
      "hit": false,
      "t": 259457.33745000043,
      "d": 623.8099916666688,
      "v": 95
    },
    {
      "midi": 49,
      "hit": false,
      "t": 259457.33745000043,
      "d": 1309.524791666685,
      "v": 115
    },
    {
      "midi": 65,
      "hit": false,
      "t": 260581.1478166671,
      "d": 564.2861375000211,
      "v": 91
    },
    {
      "midi": 61,
      "hit": false,
      "t": 260585.90972500044,
      "d": 576.1909083333449,
      "v": 84
    },
    {
      "midi": 56,
      "hit": false,
      "t": 260585.90972500044,
      "d": 588.0956791666686,
      "v": 90
    },
    {
      "midi": 49,
      "hit": false,
      "t": 261190.67208333377,
      "d": 152.38106666665408,
      "v": 63
    },
    {
      "midi": 49,
      "hit": false,
      "t": 261733.52963333376,
      "d": 347.6193083333783,
      "v": 95
    },
    {
      "midi": 61,
      "hit": false,
      "t": 261733.52963333376,
      "d": 354.76217083339,
      "v": 102
    },
    {
      "midi": 65,
      "hit": false,
      "t": 261735.91058750043,
      "d": 297.6192708333547,
      "v": 93
    },
    {
      "midi": 56,
      "hit": false,
      "t": 261735.91058750043,
      "d": 338.09549166669603,
      "v": 90
    },
    {
      "midi": 53,
      "hit": false,
      "t": 262133.5299333338,
      "d": 226.19064583338331,
      "v": 98
    },
    {
      "midi": 56,
      "hit": false,
      "t": 262140.67279583382,
      "d": 235.71446250003646,
      "v": 82
    },
    {
      "midi": 49,
      "hit": false,
      "t": 262140.67279583382,
      "d": 240.4763708333776,
      "v": 84
    },
    {
      "midi": 61,
      "hit": false,
      "t": 262147.8156583338,
      "d": 228.57160000002477,
      "v": 82
    },
    {
      "midi": 65,
      "hit": false,
      "t": 262478.76828750054,
      "d": 197.61919583327835,
      "v": 83
    },
    {
      "midi": 56,
      "hit": false,
      "t": 262481.1492416672,
      "d": 171.42869999998948,
      "v": 87
    },
    {
      "midi": 61,
      "hit": false,
      "t": 262481.1492416672,
      "d": 195.2382416666369,
      "v": 84
    },
    {
      "midi": 49,
      "hit": false,
      "t": 262488.29210416717,
      "d": 278.57163749996107,
      "v": 87
    },
    {
      "midi": 53,
      "hit": false,
      "t": 262509.7206916672,
      "d": 28.571449999988545,
      "v": 53
    },
    {
      "midi": 56,
      "hit": false,
      "t": 262881.14954166714,
      "d": 2259.525504166668,
      "v": 95
    },
    {
      "midi": 63,
      "hit": false,
      "t": 262881.14954166714,
      "d": 2297.6207708332804,
      "v": 95
    },
    {
      "midi": 60,
      "hit": false,
      "t": 262885.9114500005,
      "d": 2290.477908333298,
      "v": 101
    },
    {
      "midi": 44,
      "hit": false,
      "t": 262895.43526666716,
      "d": 3230.9548041665694,
      "v": 95
    },
    {
      "midi": 65,
      "hit": false,
      "t": 266252.58064166707,
      "d": 271.4287749999785,
      "v": 91
    },
    {
      "midi": 61,
      "hit": false,
      "t": 266252.58064166707,
      "d": 321.428812499973,
      "v": 82
    },
    {
      "midi": 56,
      "hit": false,
      "t": 266254.9615958337,
      "d": 314.2859499999904,
      "v": 90
    },
    {
      "midi": 49,
      "hit": false,
      "t": 266259.72350416705,
      "d": 321.428812499973,
      "v": 90
    },
    {
      "midi": 53,
      "hit": false,
      "t": 266645.43807916704,
      "d": 247.61923333327286,
      "v": 86
    },
    {
      "midi": 61,
      "hit": false,
      "t": 266647.8190333337,
      "d": 240.47637083329028,
      "v": 90
    },
    {
      "midi": 56,
      "hit": false,
      "t": 266650.1999875003,
      "d": 238.09541666664882,
      "v": 110
    },
    {
      "midi": 49,
      "hit": false,
      "t": 266652.58094166697,
      "d": 240.47637083334848,
      "v": 95
    },
    {
      "midi": 61,
      "hit": false,
      "t": 267009.72406666697,
      "d": 230.95255416660802,
      "v": 90
    },
    {
      "midi": 49,
      "hit": false,
      "t": 267009.72406666697,
      "d": 280.95259166660253,
      "v": 90
    },
    {
      "midi": 65,
      "hit": false,
      "t": 267012.1050208336,
      "d": 183.33347083331319,
      "v": 91
    },
    {
      "midi": 56,
      "hit": false,
      "t": 267012.1050208336,
      "d": 192.85728749999544,
      "v": 87
    },
    {
      "midi": 63,
      "hit": false,
      "t": 267402.5815041669,
      "d": 1300.0009750000318,
      "v": 110
    },
    {
      "midi": 56,
      "hit": false,
      "t": 267407.3434125002,
      "d": 1261.905708333361,
      "v": 111
    },
    {
      "midi": 44,
      "hit": false,
      "t": 267407.3434125002,
      "d": 1264.2866625000024,
      "v": 90
    },
    {
      "midi": 60,
      "hit": false,
      "t": 267412.10532083357,
      "d": 1285.7152500000084,
      "v": 98
    },
    {
      "midi": 70,
      "hit": false,
      "t": 270857.346,
      "d": 478.5717874999973,
      "v": 80
    },
    {
      "midi": 73,
      "hit": false,
      "t": 270857.346,
      "d": 478.5717874999973,
      "v": 80
    },
    {
      "midi": 68,
      "hit": false,
      "t": 270857.346,
      "d": 500.00037500000326,
      "v": 80
    },
    {
      "midi": 58,
      "hit": false,
      "t": 270857.34600000025,
      "d": 519.0480083333678,
      "v": 120
    },
    {
      "midi": 61,
      "hit": false,
      "t": 270857.34600000025,
      "d": 526.1908708333503,
      "v": 120
    },
    {
      "midi": 42,
      "hit": false,
      "t": 270857.34600000025,
      "d": 552.3813666666974,
      "v": 120
    },
    {
      "midi": 56,
      "hit": false,
      "t": 270857.34600000025,
      "d": 561.9051833333797,
      "v": 120
    },
    {
      "midi": 68,
      "hit": false,
      "t": 272000.20399999997,
      "d": 1516.6678041666746,
      "v": 80
    },
    {
      "midi": 71,
      "hit": false,
      "t": 272000.20399999997,
      "d": 1530.953529166698,
      "v": 80
    },
    {
      "midi": 75,
      "hit": false,
      "t": 272000.20399999997,
      "d": 1554.7630708333454,
      "v": 80
    },
    {
      "midi": 40,
      "hit": false,
      "t": 272000.2040000003,
      "d": 1788.096579166653,
      "v": 120
    },
    {
      "midi": 63,
      "hit": false,
      "t": 272000.2040000003,
      "d": 1795.2394416666357,
      "v": 120
    },
    {
      "midi": 56,
      "hit": false,
      "t": 272000.2040000003,
      "d": 1800.0013499999768,
      "v": 120
    },
    {
      "midi": 59,
      "hit": false,
      "t": 272000.2040000003,
      "d": 1800.0013499999768,
      "v": 120
    },
    {
      "midi": 70,
      "hit": false,
      "t": 276571.636,
      "d": 650.000487500045,
      "v": 80
    },
    {
      "midi": 68,
      "hit": false,
      "t": 276571.636,
      "d": 657.1433500000276,
      "v": 80
    },
    {
      "midi": 73,
      "hit": false,
      "t": 276571.636,
      "d": 666.6671666667098,
      "v": 80
    },
    {
      "midi": 58,
      "hit": false,
      "t": 276571.6360000003,
      "d": 590.4766333333682,
      "v": 120
    },
    {
      "midi": 61,
      "hit": false,
      "t": 276571.6360000003,
      "d": 609.5242666666745,
      "v": 120
    },
    {
      "midi": 56,
      "hit": false,
      "t": 276571.6360000003,
      "d": 630.9528541666805,
      "v": 120
    },
    {
      "midi": 52,
      "hit": false,
      "t": 276571.6360000003,
      "d": 633.3338083333219,
      "v": 120
    },
    {
      "midi": 71,
      "hit": false,
      "t": 277714.49400000006,
      "d": 2409.5256166666513,
      "v": 80
    },
    {
      "midi": 75,
      "hit": false,
      "t": 277714.49400000006,
      "d": 2414.2875249999925,
      "v": 80
    },
    {
      "midi": 68,
      "hit": false,
      "t": 277714.49400000006,
      "d": 2416.668479166634,
      "v": 80
    },
    {
      "midi": 52,
      "hit": false,
      "t": 277714.4940000003,
      "d": 1771.4299000000465,
      "v": 120
    },
    {
      "midi": 56,
      "hit": false,
      "t": 277714.4940000003,
      "d": 1783.3346708333702,
      "v": 120
    },
    {
      "midi": 63,
      "hit": false,
      "t": 277714.4940000003,
      "d": 1790.4775333333528,
      "v": 120
    },
    {
      "midi": 59,
      "hit": false,
      "t": 277714.4940000003,
      "d": 1800.001350000035,
      "v": 120
    },
    {
      "midi": 70,
      "hit": false,
      "t": 282285.92600000004,
      "d": 671.4290749999927,
      "v": 80
    },
    {
      "midi": 73,
      "hit": false,
      "t": 282285.92600000004,
      "d": 676.1909833333339,
      "v": 80
    },
    {
      "midi": 68,
      "hit": false,
      "t": 282285.92600000004,
      "d": 683.3338458333164,
      "v": 80
    },
    {
      "midi": 58,
      "hit": false,
      "t": 282285.9260000003,
      "d": 676.1909833333339,
      "v": 120
    },
    {
      "midi": 56,
      "hit": false,
      "t": 282285.9260000003,
      "d": 685.7148000000161,
      "v": 120
    },
    {
      "midi": 52,
      "hit": false,
      "t": 282285.9260000003,
      "d": 700.0005250000395,
      "v": 120
    },
    {
      "midi": 61,
      "hit": false,
      "t": 282285.9260000003,
      "d": 700.0005250000395,
      "v": 120
    },
    {
      "midi": 75,
      "hit": false,
      "t": 283428.78400000004,
      "d": 1054.7626958333421,
      "v": 80
    },
    {
      "midi": 71,
      "hit": false,
      "t": 283428.78400000004,
      "d": 1078.5722374999896,
      "v": 80
    },
    {
      "midi": 68,
      "hit": false,
      "t": 283428.78400000004,
      "d": 1102.381779166637,
      "v": 80
    },
    {
      "midi": 52,
      "hit": false,
      "t": 283428.7840000004,
      "d": 676.1909833333921,
      "v": 120
    },
    {
      "midi": 63,
      "hit": false,
      "t": 283428.7840000004,
      "d": 761.9053333334159,
      "v": 120
    },
    {
      "midi": 59,
      "hit": false,
      "t": 283428.7840000004,
      "d": 764.2862875000574,
      "v": 120
    },
    {
      "midi": 56,
      "hit": false,
      "t": 283428.7840000004,
      "d": 807.1434625000693,
      "v": 120
    },
    {
      "midi": 70,
      "hit": false,
      "t": 285143.071,
      "d": 414.2860249999794,
      "v": 80
    },
    {
      "midi": 66,
      "hit": false,
      "t": 285143.071,
      "d": 426.1907958333031,
      "v": 80
    },
    {
      "midi": 63,
      "hit": false,
      "t": 285143.071,
      "d": 440.4765208333265,
      "v": 80
    },
    {
      "midi": 58,
      "hit": false,
      "t": 285143.07100000046,
      "d": 421.4288875000202,
      "v": 120
    },
    {
      "midi": 51,
      "hit": false,
      "t": 285143.07100000046,
      "d": 442.85747500002617,
      "v": 120
    },
    {
      "midi": 54,
      "hit": false,
      "t": 285143.07100000046,
      "d": 442.85747500002617,
      "v": 120
    },
    {
      "midi": 46,
      "hit": false,
      "t": 285143.07100000046,
      "d": 519.0480083333678,
      "v": 120
    },
    {
      "midi": 63,
      "hit": false,
      "t": 285714.5,
      "d": 595.2385416667094,
      "v": 80
    },
    {
      "midi": 68,
      "hit": false,
      "t": 285714.5,
      "d": 607.1433125000331,
      "v": 80
    },
    {
      "midi": 71,
      "hit": false,
      "t": 285714.5,
      "d": 626.1909458333394,
      "v": 80
    },
    {
      "midi": 51,
      "hit": false,
      "t": 285714.5000000005,
      "d": 552.3813666666392,
      "v": 120
    },
    {
      "midi": 56,
      "hit": false,
      "t": 285714.5000000005,
      "d": 569.0480458333041,
      "v": 120
    },
    {
      "midi": 59,
      "hit": false,
      "t": 285714.5000000005,
      "d": 595.2385416666511,
      "v": 120
    },
    {
      "midi": 44,
      "hit": false,
      "t": 285714.5000000005,
      "d": 1090.4770083333133,
      "v": 120
    },
    {
      "midi": 66,
      "hit": false,
      "t": 286857.358,
      "d": 595.2385416667094,
      "v": 80
    },
    {
      "midi": 75,
      "hit": false,
      "t": 286857.358,
      "d": 609.5242666667327,
      "v": 80
    },
    {
      "midi": 71,
      "hit": false,
      "t": 286857.358,
      "d": 614.2861750000739,
      "v": 80
    },
    {
      "midi": 54,
      "hit": false,
      "t": 286857.35800000053,
      "d": 583.3337708333274,
      "v": 120
    },
    {
      "midi": 63,
      "hit": false,
      "t": 286857.35800000053,
      "d": 592.8575875000097,
      "v": 120
    },
    {
      "midi": 47,
      "hit": false,
      "t": 286857.35800000053,
      "d": 616.6671291666571,
      "v": 120
    },
    {
      "midi": 59,
      "hit": false,
      "t": 286857.35800000053,
      "d": 616.6671291666571,
      "v": 120
    },
    {
      "midi": 73,
      "hit": false,
      "t": 288000.2160000001,
      "d": 2419.0494333333336,
      "v": 80
    },
    {
      "midi": 68,
      "hit": false,
      "t": 288000.2160000001,
      "d": 2442.858974999981,
      "v": 80
    },
    {
      "midi": 76,
      "hit": false,
      "t": 288000.2160000001,
      "d": 2445.2399291666225,
      "v": 80
    },
    {
      "midi": 49,
      "hit": false,
      "t": 288000.21600000054,
      "d": 3035.7165624999907,
      "v": 120
    },
    {
      "midi": 64,
      "hit": false,
      "t": 288000.21600000054,
      "d": 3076.192783333303,
      "v": 120
    },
    {
      "midi": 56,
      "hit": false,
      "t": 288000.21600000054,
      "d": 3097.621370833309,
      "v": 120
    },
    {
      "midi": 61,
      "hit": false,
      "t": 288000.21600000054,
      "d": 3097.621370833309,
      "v": 120
    },
    {
      "midi": 75,
      "hit": false,
      "t": 292276.40968333336,
      "d": 223.80969166668365,
      "v": 80
    },
    {
      "midi": 76,
      "hit": false,
      "t": 292604.9813583334,
      "d": 195.2382416666951,
      "v": 80
    },
    {
      "midi": 75,
      "hit": false,
      "t": 292869.2672708334,
      "d": 273.80972916667815,
      "v": 80
    },
    {
      "midi": 80,
      "hit": false,
      "t": 293671.6488250001,
      "d": 1704.763183333329,
      "v": 80
    },
    {
      "midi": 71,
      "hit": false,
      "t": 297143.0800000001,
      "d": 904.7625833333586,
      "v": 80
    },
    {
      "midi": 63,
      "hit": false,
      "t": 297143.0800000001,
      "d": 1040.476970833377,
      "v": 80
    },
    {
      "midi": 68,
      "hit": false,
      "t": 297143.0800000001,
      "d": 1050.0007875000592,
      "v": 80
    },
    {
      "midi": 59,
      "hit": false,
      "t": 297143.08000000054,
      "d": 826.1910958333174,
      "v": 120
    },
    {
      "midi": 56,
      "hit": false,
      "t": 297143.08000000054,
      "d": 850.0006374999648,
      "v": 120
    },
    {
      "midi": 51,
      "hit": false,
      "t": 297143.08000000054,
      "d": 859.524454166647,
      "v": 120
    },
    {
      "midi": 44,
      "hit": false,
      "t": 297143.08000000054,
      "d": 2150.0016124999383,
      "v": 120
    },
    {
      "midi": 70,
      "hit": false,
      "t": 298857.36700000014,
      "d": 252.3811416666722,
      "v": 80
    },
    {
      "midi": 58,
      "hit": false,
      "t": 298857.3670000005,
      "d": 183.33347083331319,
      "v": 120
    },
    {
      "midi": 71,
      "hit": false,
      "t": 299428.79600000015,
      "d": 1592.8583375000162,
      "v": 80
    },
    {
      "midi": 63,
      "hit": false,
      "t": 299428.79600000015,
      "d": 1864.287112500053,
      "v": 80
    },
    {
      "midi": 66,
      "hit": false,
      "t": 299428.79600000015,
      "d": 1890.4776083334,
      "v": 80
    },
    {
      "midi": 59,
      "hit": false,
      "t": 299428.7960000005,
      "d": 1652.3821916666348,
      "v": 120
    },
    {
      "midi": 51,
      "hit": false,
      "t": 299428.7960000005,
      "d": 1878.5728374999599,
      "v": 120
    },
    {
      "midi": 54,
      "hit": false,
      "t": 299428.7960000005,
      "d": 1916.6681041666307,
      "v": 120
    },
    {
      "midi": 42,
      "hit": false,
      "t": 299428.7960000005,
      "d": 1933.3347833332955,
      "v": 120
    },
    {
      "midi": 70,
      "hit": false,
      "t": 301143.08300000016,
      "d": 259.524004166713,
      "v": 80
    },
    {
      "midi": 58,
      "hit": false,
      "t": 301143.08300000045,
      "d": 188.0953791666543,
      "v": 120
    },
    {
      "midi": 73,
      "hit": false,
      "t": 301714.5120000002,
      "d": 588.0956791666686,
      "v": 80
    },
    {
      "midi": 70,
      "hit": false,
      "t": 301714.5120000002,
      "d": 604.7623583333334,
      "v": 80
    },
    {
      "midi": 68,
      "hit": false,
      "t": 301714.5120000002,
      "d": 619.0480833333568,
      "v": 80
    },
    {
      "midi": 58,
      "hit": false,
      "t": 301714.51200000045,
      "d": 604.7623583333334,
      "v": 120
    },
    {
      "midi": 61,
      "hit": false,
      "t": 301714.51200000045,
      "d": 650.0004874999868,
      "v": 120
    },
    {
      "midi": 52,
      "hit": false,
      "t": 301714.51200000045,
      "d": 652.3814416666282,
      "v": 120
    },
    {
      "midi": 56,
      "hit": false,
      "t": 301714.51200000045,
      "d": 666.6671666666516,
      "v": 120
    },
    {
      "midi": 71,
      "hit": false,
      "t": 302857.3700000002,
      "d": 3961.9077333333553,
      "v": 80
    },
    {
      "midi": 68,
      "hit": false,
      "t": 302857.3700000002,
      "d": 3976.1934583333787,
      "v": 80
    },
    {
      "midi": 75,
      "hit": false,
      "t": 302857.3700000002,
      "d": 4011.90777083335,
      "v": 80
    },
    {
      "midi": 52,
      "hit": false,
      "t": 302857.3700000004,
      "d": 4421.431887499988,
      "v": 120
    },
    {
      "midi": 56,
      "hit": false,
      "t": 302857.3700000004,
      "d": 4435.7176125000115,
      "v": 120
    },
    {
      "midi": 59,
      "hit": false,
      "t": 302857.3700000004,
      "d": 4440.479520833353,
      "v": 120
    },
    {
      "midi": 63,
      "hit": false,
      "t": 302857.3700000004,
      "d": 4447.622383333335,
      "v": 120
    },
    {
      "midi": 70,
      "hit": false,
      "t": 307428.8020000002,
      "d": 826.1910958333756,
      "v": 80
    },
    {
      "midi": 73,
      "hit": false,
      "t": 307428.8020000002,
      "d": 828.572050000017,
      "v": 80
    },
    {
      "midi": 68,
      "hit": false,
      "t": 307428.8020000002,
      "d": 838.0958666666993,
      "v": 80
    },
    {
      "midi": 52,
      "hit": false,
      "t": 307431.1829541671,
      "d": 547.6194583333563,
      "v": 120
    },
    {
      "midi": 58,
      "hit": false,
      "t": 307440.70677083376,
      "d": 559.52422916668,
      "v": 120
    },
    {
      "midi": 56,
      "hit": false,
      "t": 307440.70677083376,
      "d": 571.4290000000037,
      "v": 120
    },
    {
      "midi": 61,
      "hit": false,
      "t": 307440.70677083376,
      "d": 573.8099541666452,
      "v": 120
    },
    {
      "midi": 68,
      "hit": false,
      "t": 308571.6600000002,
      "d": 9714.293000000063,
      "v": 80
    },
    {
      "midi": 75,
      "hit": false,
      "t": 308571.6600000002,
      "d": 9714.293000000063,
      "v": 80
    },
    {
      "midi": 44,
      "hit": false,
      "t": 308571.6600000004,
      "d": 9714.293000000063,
      "v": 120
    },
    {
      "midi": 51,
      "hit": false,
      "t": 308571.6600000004,
      "d": 9714.293000000063,
      "v": 120
    },
    {
      "midi": 56,
      "hit": false,
      "t": 308571.6600000004,
      "d": 9714.293000000063,
      "v": 120
    },
    {
      "midi": 63,
      "hit": false,
      "t": 308571.6600000004,
      "d": 9714.293000000063,
      "v": 120
    },
    {
      "midi": 84,
      "hit": false,
      "t": 313040.7109708337,
      "d": 4726.194020833413,
      "v": 90
    },
    {
      "midi": 87,
      "hit": false,
      "t": 313093.0919625004,
      "d": 4664.289212500036,
      "v": 90
    },
    {
      "midi": 92,
      "hit": false,
      "t": 313181.1872666671,
      "d": 4576.193908333371,
      "v": 90
    }
  ]
}