{
  "jsonPath": "Pop/Italian Pop/Lucio Battisti/amarsi-un-po.json",
  "path": "Pop\\Italian Pop\\Lucio Battisti\\Amarsi Un Pò.mid",
  "name": "Amarsi Un Pò",
  "difficulty": "Advanced",
  "bpm": 114.0001710002565,
  "notes": [
    {
      "midi": 57,
      "hit": false,
      "t": 2926.828,
      "d": 777.4386875,
      "v": 103
    },
    {
      "midi": 45,
      "hit": false,
      "t": 2926.828,
      "d": 907.0118020833334,
      "v": 95
    },
    {
      "midi": 67,
      "hit": false,
      "t": 2926.828,
      "d": 1150.9141354166668,
      "v": 106
    },
    {
      "midi": 60,
      "hit": false,
      "t": 2926.828,
      "d": 1181.4019270833337,
      "v": 103
    },
    {
      "midi": 64,
      "hit": false,
      "t": 2926.828,
      "d": 1189.0238750000003,
      "v": 106
    },
    {
      "midi": 45,
      "hit": false,
      "t": 4024.3885,
      "d": 342.9876562500003,
      "v": 70
    },
    {
      "midi": 57,
      "hit": false,
      "t": 4390.242,
      "d": 1280.4872500000001,
      "v": 100
    },
    {
      "midi": 60,
      "hit": false,
      "t": 4390.242,
      "d": 1280.4872500000001,
      "v": 109
    },
    {
      "midi": 64,
      "hit": false,
      "t": 4390.242,
      "d": 1280.4872500000001,
      "v": 103
    },
    {
      "midi": 45,
      "hit": false,
      "t": 4390.242,
      "d": 1288.1091979166667,
      "v": 55
    },
    {
      "midi": 55,
      "hit": false,
      "t": 4390.242,
      "d": 1288.1091979166667,
      "v": 84
    },
    {
      "midi": 55,
      "hit": false,
      "t": 5853.656,
      "d": 2012.1942500000005,
      "v": 79
    },
    {
      "midi": 45,
      "hit": false,
      "t": 5853.656,
      "d": 2035.0600937500003,
      "v": 84
    },
    {
      "midi": 57,
      "hit": false,
      "t": 6585.363,
      "d": 236.28038541666683,
      "v": 70
    },
    {
      "midi": 60,
      "hit": false,
      "t": 6585.363,
      "d": 259.14622916666667,
      "v": 77
    },
    {
      "midi": 59,
      "hit": false,
      "t": 6951.2165,
      "d": 129.57311458333334,
      "v": 70
    },
    {
      "midi": 62,
      "hit": false,
      "t": 6951.2165,
      "d": 129.57311458333334,
      "v": 77
    },
    {
      "midi": 60,
      "hit": false,
      "t": 7317.070000000001,
      "d": 579.2680416666662,
      "v": 109
    },
    {
      "midi": 64,
      "hit": false,
      "t": 7317.070000000001,
      "d": 602.1338854166661,
      "v": 109
    },
    {
      "midi": 55,
      "hit": false,
      "t": 8048.777,
      "d": 693.5972604166673,
      "v": 73
    },
    {
      "midi": 45,
      "hit": false,
      "t": 8048.777,
      "d": 701.2192083333339,
      "v": 80
    },
    {
      "midi": 60,
      "hit": false,
      "t": 8048.777,
      "d": 701.2192083333339,
      "v": 80
    },
    {
      "midi": 67,
      "hit": false,
      "t": 8048.777,
      "d": 701.2192083333339,
      "v": 97
    },
    {
      "midi": 64,
      "hit": false,
      "t": 8048.777,
      "d": 708.8411562500005,
      "v": 95
    },
    {
      "midi": 62,
      "hit": false,
      "t": 8780.484,
      "d": 1242.377510416667,
      "v": 109
    },
    {
      "midi": 59,
      "hit": false,
      "t": 8780.484,
      "d": 1257.6214062500003,
      "v": 100
    },
    {
      "midi": 43,
      "hit": false,
      "t": 8780.484,
      "d": 1432.9262083333342,
      "v": 95
    },
    {
      "midi": 54,
      "hit": false,
      "t": 8780.484,
      "d": 1455.792052083334,
      "v": 86
    },
    {
      "midi": 43,
      "hit": false,
      "t": 10243.898000000001,
      "d": 1249.9994583333337,
      "v": 77
    },
    {
      "midi": 54,
      "hit": false,
      "t": 10243.898000000001,
      "d": 1288.1091979166667,
      "v": 61
    },
    {
      "midi": 55,
      "hit": false,
      "t": 10243.898000000001,
      "d": 1570.1212708333333,
      "v": 79
    },
    {
      "midi": 59,
      "hit": false,
      "t": 10243.898000000001,
      "d": 1646.3407499999994,
      "v": 88
    },
    {
      "midi": 43,
      "hit": false,
      "t": 11707.312000000002,
      "d": 2294.2063229166633,
      "v": 84
    },
    {
      "midi": 54,
      "hit": false,
      "t": 12073.165500000001,
      "d": 1547.2554270833316,
      "v": 60
    },
    {
      "midi": 59,
      "hit": false,
      "t": 12439.019,
      "d": 876.524010416666,
      "v": 103
    },
    {
      "midi": 62,
      "hit": false,
      "t": 12804.8725,
      "d": 1783.5358124999984,
      "v": 122
    },
    {
      "midi": 59,
      "hit": false,
      "t": 13536.5795,
      "d": 1059.4507604166647,
      "v": 103
    },
    {
      "midi": 54,
      "hit": false,
      "t": 13902.432999999999,
      "d": 678.3533645833322,
      "v": 69
    },
    {
      "midi": 43,
      "hit": false,
      "t": 14268.286499999998,
      "d": 335.3657083333328,
      "v": 57
    },
    {
      "midi": 45,
      "hit": false,
      "t": 14634.139999999998,
      "d": 556.4021979166664,
      "v": 77
    },
    {
      "midi": 55,
      "hit": false,
      "t": 14634.139999999998,
      "d": 586.8899895833329,
      "v": 73
    },
    {
      "midi": 57,
      "hit": false,
      "t": 14634.139999999998,
      "d": 602.1338854166661,
      "v": 86
    },
    {
      "midi": 60,
      "hit": false,
      "t": 14634.139999999998,
      "d": 609.7558333333327,
      "v": 88
    },
    {
      "midi": 57,
      "hit": false,
      "t": 15365.846999999996,
      "d": 251.52428125000006,
      "v": 74
    },
    {
      "midi": 60,
      "hit": false,
      "t": 15365.846999999996,
      "d": 312.49986458333296,
      "v": 95
    },
    {
      "midi": 45,
      "hit": false,
      "t": 15365.846999999996,
      "d": 922.2556979166675,
      "v": 84
    },
    {
      "midi": 55,
      "hit": false,
      "t": 15365.846999999996,
      "d": 945.1215416666673,
      "v": 65
    },
    {
      "midi": 62,
      "hit": false,
      "t": 15731.700499999995,
      "d": 144.81701041666747,
      "v": 74
    },
    {
      "midi": 59,
      "hit": false,
      "t": 15731.700499999995,
      "d": 152.43895833333409,
      "v": 64
    },
    {
      "midi": 64,
      "hit": false,
      "t": 16097.553999999996,
      "d": 167.6828541666673,
      "v": 95
    },
    {
      "midi": 60,
      "hit": false,
      "t": 16097.553999999996,
      "d": 205.79259375000038,
      "v": 82
    },
    {
      "midi": 60,
      "hit": false,
      "t": 16463.407499999998,
      "d": 853.658166666668,
      "v": 97
    },
    {
      "midi": 67,
      "hit": false,
      "t": 16463.407499999998,
      "d": 853.658166666668,
      "v": 106
    },
    {
      "midi": 64,
      "hit": false,
      "t": 16463.407499999998,
      "d": 891.7679062500029,
      "v": 100
    },
    {
      "midi": 45,
      "hit": false,
      "t": 16463.407499999998,
      "d": 929.8776458333377,
      "v": 92
    },
    {
      "midi": 55,
      "hit": false,
      "t": 16463.407499999998,
      "d": 937.4995937500062,
      "v": 80
    },
    {
      "midi": 57,
      "hit": false,
      "t": 17560.968000000004,
      "d": 259.14622916666485,
      "v": 103
    },
    {
      "midi": 60,
      "hit": false,
      "t": 17560.968000000004,
      "d": 327.7437604166662,
      "v": 113
    },
    {
      "midi": 45,
      "hit": false,
      "t": 17560.968000000004,
      "d": 952.7434895833358,
      "v": 97
    },
    {
      "midi": 55,
      "hit": false,
      "t": 17560.968000000004,
      "d": 967.987385416669,
      "v": 86
    },
    {
      "midi": 59,
      "hit": false,
      "t": 17926.821500000005,
      "d": 144.81701041666747,
      "v": 69
    },
    {
      "midi": 62,
      "hit": false,
      "t": 17926.821500000005,
      "d": 152.4389583333359,
      "v": 79
    },
    {
      "midi": 60,
      "hit": false,
      "t": 18292.675000000007,
      "d": 167.6828541666655,
      "v": 67
    },
    {
      "midi": 64,
      "hit": false,
      "t": 18292.675000000007,
      "d": 167.6828541666655,
      "v": 80
    },
    {
      "midi": 45,
      "hit": false,
      "t": 18658.528500000008,
      "d": 579.2680416666662,
      "v": 92
    },
    {
      "midi": 55,
      "hit": false,
      "t": 18658.528500000008,
      "d": 647.8655729166676,
      "v": 82
    },
    {
      "midi": 60,
      "hit": false,
      "t": 18658.528500000008,
      "d": 975.6093333333338,
      "v": 95
    },
    {
      "midi": 64,
      "hit": false,
      "t": 18658.528500000008,
      "d": 975.6093333333338,
      "v": 100
    },
    {
      "midi": 67,
      "hit": false,
      "t": 18658.528500000008,
      "d": 1028.962968750002,
      "v": 106
    },
    {
      "midi": 45,
      "hit": false,
      "t": 19390.23550000001,
      "d": 861.2801145833328,
      "v": 60
    },
    {
      "midi": 55,
      "hit": false,
      "t": 19756.08900000001,
      "d": 495.4266145833317,
      "v": 67
    },
    {
      "midi": 60,
      "hit": false,
      "t": 19756.08900000001,
      "d": 495.4266145833317,
      "v": 79
    },
    {
      "midi": 64,
      "hit": false,
      "t": 19756.08900000001,
      "d": 495.4266145833317,
      "v": 86
    },
    {
      "midi": 43,
      "hit": false,
      "t": 20487.79600000001,
      "d": 594.5119374999995,
      "v": 92
    },
    {
      "midi": 54,
      "hit": false,
      "t": 20487.79600000001,
      "d": 640.2436249999992,
      "v": 77
    },
    {
      "midi": 66,
      "hit": false,
      "t": 20487.79600000001,
      "d": 1006.0971250000002,
      "v": 106
    },
    {
      "midi": 59,
      "hit": false,
      "t": 20487.79600000001,
      "d": 1013.7190729166687,
      "v": 97
    },
    {
      "midi": 62,
      "hit": false,
      "t": 20487.79600000001,
      "d": 1028.962968750002,
      "v": 109
    },
    {
      "midi": 43,
      "hit": false,
      "t": 21219.503000000008,
      "d": 266.7681770833333,
      "v": 62
    },
    {
      "midi": 43,
      "hit": false,
      "t": 21585.356500000013,
      "d": 586.8899895833347,
      "v": 92
    },
    {
      "midi": 54,
      "hit": false,
      "t": 21585.356500000013,
      "d": 624.9997291666696,
      "v": 71
    },
    {
      "midi": 59,
      "hit": false,
      "t": 21585.356500000013,
      "d": 815.5484270833367,
      "v": 92
    },
    {
      "midi": 62,
      "hit": false,
      "t": 21585.356500000013,
      "d": 823.1703750000052,
      "v": 100
    },
    {
      "midi": 43,
      "hit": false,
      "t": 22317.063500000015,
      "d": 922.255697916673,
      "v": 66
    },
    {
      "midi": 54,
      "hit": false,
      "t": 22682.91700000002,
      "d": 624.9997291666696,
      "v": 52
    },
    {
      "midi": 55,
      "hit": false,
      "t": 22682.91700000002,
      "d": 960.3654375000006,
      "v": 80
    },
    {
      "midi": 59,
      "hit": false,
      "t": 22682.91700000002,
      "d": 1006.0971250000002,
      "v": 88
    },
    {
      "midi": 43,
      "hit": false,
      "t": 23414.62400000002,
      "d": 899.389854166664,
      "v": 84
    },
    {
      "midi": 55,
      "hit": false,
      "t": 23780.47750000002,
      "d": 937.4995937499989,
      "v": 117
    },
    {
      "midi": 43,
      "hit": false,
      "t": 24512.184500000018,
      "d": 190.54869791666715,
      "v": 77
    },
    {
      "midi": 44,
      "hit": false,
      "t": 24878.03800000002,
      "d": 899.3898541666676,
      "v": 86
    },
    {
      "midi": 56,
      "hit": false,
      "t": 25243.89150000002,
      "d": 708.8411562500005,
      "v": 127
    },
    {
      "midi": 44,
      "hit": false,
      "t": 25975.598500000022,
      "d": 213.41454166666517,
      "v": 80
    },
    {
      "midi": 70,
      "hit": false,
      "t": 26341.45200000002,
      "d": 22.86584375000166,
      "v": 73
    },
    {
      "midi": 71,
      "hit": false,
      "t": 26341.45200000002,
      "d": 838.4142708333347,
      "v": 122
    },
    {
      "midi": 64,
      "hit": false,
      "t": 26341.45200000002,
      "d": 861.2801145833364,
      "v": 106
    },
    {
      "midi": 67,
      "hit": false,
      "t": 26341.45200000002,
      "d": 891.7679062500029,
      "v": 117
    },
    {
      "midi": 45,
      "hit": false,
      "t": 26341.45200000002,
      "d": 945.121541666671,
      "v": 97
    },
    {
      "midi": 57,
      "hit": false,
      "t": 26341.45200000002,
      "d": 945.121541666671,
      "v": 95
    },
    {
      "midi": 45,
      "hit": false,
      "t": 27439.012500000023,
      "d": 1326.2189375000016,
      "v": 95
    },
    {
      "midi": 57,
      "hit": false,
      "t": 27439.012500000023,
      "d": 1326.2189375000016,
      "v": 97
    },
    {
      "midi": 60,
      "hit": false,
      "t": 27439.012500000023,
      "d": 2446.645281250003,
      "v": 97
    },
    {
      "midi": 64,
      "hit": false,
      "t": 27439.012500000023,
      "d": 2446.645281250003,
      "v": 109
    },
    {
      "midi": 67,
      "hit": false,
      "t": 27439.012500000023,
      "d": 2469.5111250000045,
      "v": 113
    },
    {
      "midi": 45,
      "hit": false,
      "t": 28902.426500000023,
      "d": 144.81701041666747,
      "v": 51
    },
    {
      "midi": 57,
      "hit": false,
      "t": 28902.426500000023,
      "d": 152.4389583333359,
      "v": 49
    },
    {
      "midi": 57,
      "hit": false,
      "t": 29268.280000000024,
      "d": 640.2436250000028,
      "v": 92
    },
    {
      "midi": 45,
      "hit": false,
      "t": 29268.280000000024,
      "d": 647.8655729166712,
      "v": 90
    },
    {
      "midi": 60,
      "hit": false,
      "t": 29999.98700000003,
      "d": 213.41454166666517,
      "v": 69
    },
    {
      "midi": 64,
      "hit": false,
      "t": 29999.98700000003,
      "d": 243.90233333333163,
      "v": 84
    },
    {
      "midi": 45,
      "hit": false,
      "t": 29999.98700000003,
      "d": 1333.8408854166664,
      "v": 79
    },
    {
      "midi": 57,
      "hit": false,
      "t": 29999.98700000003,
      "d": 1333.8408854166664,
      "v": 70
    },
    {
      "midi": 64,
      "hit": false,
      "t": 30365.840500000028,
      "d": 38.109739583334886,
      "v": 48
    },
    {
      "midi": 62,
      "hit": false,
      "t": 30365.840500000028,
      "d": 160.0609062500007,
      "v": 66
    },
    {
      "midi": 66,
      "hit": false,
      "t": 30365.840500000028,
      "d": 190.54869791666715,
      "v": 77
    },
    {
      "midi": 64,
      "hit": false,
      "t": 30731.69400000003,
      "d": 594.5119374999995,
      "v": 103
    },
    {
      "midi": 67,
      "hit": false,
      "t": 30731.69400000003,
      "d": 624.9997291666696,
      "v": 117
    },
    {
      "midi": 71,
      "hit": false,
      "t": 31463.40100000003,
      "d": 731.7069999999985,
      "v": 106
    },
    {
      "midi": 64,
      "hit": false,
      "t": 31463.40100000003,
      "d": 746.9508958333317,
      "v": 79
    },
    {
      "midi": 67,
      "hit": false,
      "t": 31463.40100000003,
      "d": 746.9508958333317,
      "v": 97
    },
    {
      "midi": 45,
      "hit": false,
      "t": 31463.40100000003,
      "d": 754.5728437500002,
      "v": 77
    },
    {
      "midi": 57,
      "hit": false,
      "t": 31463.40100000003,
      "d": 754.5728437500002,
      "v": 65
    },
    {
      "midi": 54,
      "hit": false,
      "t": 32195.10800000003,
      "d": 510.67051041666855,
      "v": 90
    },
    {
      "midi": 43,
      "hit": false,
      "t": 32195.10800000003,
      "d": 541.158302083335,
      "v": 97
    },
    {
      "midi": 69,
      "hit": false,
      "t": 32195.10800000003,
      "d": 937.4995937499989,
      "v": 106
    },
    {
      "midi": 62,
      "hit": false,
      "t": 32195.10800000003,
      "d": 960.3654374999969,
      "v": 106
    },
    {
      "midi": 59,
      "hit": false,
      "t": 32195.10800000003,
      "d": 967.9873854166653,
      "v": 95
    },
    {
      "midi": 66,
      "hit": false,
      "t": 32195.10800000003,
      "d": 975.6093333333338,
      "v": 100
    },
    {
      "midi": 43,
      "hit": false,
      "t": 32926.81500000003,
      "d": 884.1459583333344,
      "v": 70
    },
    {
      "midi": 54,
      "hit": false,
      "t": 33292.66850000003,
      "d": 548.7802500000034,
      "v": 86
    },
    {
      "midi": 59,
      "hit": false,
      "t": 33292.66850000003,
      "d": 1028.9629687500055,
      "v": 86
    },
    {
      "midi": 62,
      "hit": false,
      "t": 33292.66850000003,
      "d": 1051.8288125000108,
      "v": 95
    },
    {
      "midi": 66,
      "hit": false,
      "t": 33292.66850000003,
      "d": 1051.8288125000108,
      "v": 83
    },
    {
      "midi": 43,
      "hit": false,
      "t": 34024.37550000003,
      "d": 312.49986458334024,
      "v": 68
    },
    {
      "midi": 43,
      "hit": false,
      "t": 34390.22900000004,
      "d": 564.024145833333,
      "v": 82
    },
    {
      "midi": 54,
      "hit": false,
      "t": 34390.22900000004,
      "d": 647.865572916664,
      "v": 58
    },
    {
      "midi": 59,
      "hit": false,
      "t": 34390.22900000004,
      "d": 1211.8897187499897,
      "v": 79
    },
    {
      "midi": 62,
      "hit": false,
      "t": 34390.22900000004,
      "d": 1509.145687499993,
      "v": 92
    },
    {
      "midi": 43,
      "hit": false,
      "t": 35121.93600000004,
      "d": 2271.3404791666762,
      "v": 72
    },
    {
      "midi": 54,
      "hit": false,
      "t": 35487.789500000035,
      "d": 1471.0359479166727,
      "v": 83
    },
    {
      "midi": 59,
      "hit": false,
      "t": 35853.64300000003,
      "d": 846.0362187500068,
      "v": 106
    },
    {
      "midi": 62,
      "hit": false,
      "t": 36219.49650000004,
      "d": 1814.0236041666867,
      "v": 126
    },
    {
      "midi": 59,
      "hit": false,
      "t": 36951.20350000004,
      "d": 1067.0727083333477,
      "v": 97
    },
    {
      "midi": 54,
      "hit": false,
      "t": 37317.057000000044,
      "d": 685.9753125000061,
      "v": 100
    },
    {
      "midi": 43,
      "hit": false,
      "t": 37682.91050000005,
      "d": 335.36570833333826,
      "v": 80
    },
    {
      "midi": 45,
      "hit": false,
      "t": 38048.76400000006,
      "d": 967.9873854166726,
      "v": 90
    },
    {
      "midi": 55,
      "hit": false,
      "t": 38048.76400000006,
      "d": 1006.0971250000075,
      "v": 80
    },
    {
      "midi": 60,
      "hit": false,
      "t": 38780.47100000006,
      "d": 228.65843750000204,
      "v": 77
    },
    {
      "midi": 64,
      "hit": false,
      "t": 38780.47100000006,
      "d": 266.7681770833369,
      "v": 90
    },
    {
      "midi": 45,
      "hit": false,
      "t": 39146.32450000007,
      "d": 106.70727083333622,
      "v": 66
    },
    {
      "midi": 62,
      "hit": false,
      "t": 39146.32450000007,
      "d": 106.70727083333622,
      "v": 76
    },
    {
      "midi": 55,
      "hit": false,
      "t": 39146.32450000007,
      "d": 129.57311458333425,
      "v": 58
    },
    {
      "midi": 66,
      "hit": false,
      "t": 39146.32450000007,
      "d": 137.19506250000268,
      "v": 77
    },
    {
      "midi": 67,
      "hit": false,
      "t": 39512.17800000007,
      "d": 106.70727083333622,
      "v": 97
    },
    {
      "midi": 45,
      "hit": false,
      "t": 39512.17800000007,
      "d": 114.32921875000466,
      "v": 95
    },
    {
      "midi": 55,
      "hit": false,
      "t": 39512.17800000007,
      "d": 137.19506250000268,
      "v": 80
    },
    {
      "midi": 64,
      "hit": false,
      "t": 39512.17800000007,
      "d": 137.19506250000268,
      "v": 80
    },
    {
      "midi": 64,
      "hit": false,
      "t": 39878.03150000008,
      "d": 792.6825833333351,
      "v": 97
    },
    {
      "midi": 71,
      "hit": false,
      "t": 39878.03150000008,
      "d": 815.5484270833331,
      "v": 113
    },
    {
      "midi": 67,
      "hit": false,
      "t": 39878.03150000008,
      "d": 830.79232291667,
      "v": 117
    },
    {
      "midi": 55,
      "hit": false,
      "t": 39878.03150000008,
      "d": 868.9020625000048,
      "v": 95
    },
    {
      "midi": 45,
      "hit": false,
      "t": 39878.03150000008,
      "d": 891.7679062500029,
      "v": 100
    },
    {
      "midi": 60,
      "hit": false,
      "t": 40975.59200000008,
      "d": 190.54869791666715,
      "v": 95
    },
    {
      "midi": 64,
      "hit": false,
      "t": 40975.59200000008,
      "d": 266.7681770833369,
      "v": 103
    },
    {
      "midi": 45,
      "hit": false,
      "t": 40975.59200000008,
      "d": 678.3533645833377,
      "v": 92
    },
    {
      "midi": 55,
      "hit": false,
      "t": 40975.59200000008,
      "d": 861.2801145833364,
      "v": 86
    },
    {
      "midi": 62,
      "hit": false,
      "t": 41341.44550000008,
      "d": 83.84142708333093,
      "v": 68
    },
    {
      "midi": 66,
      "hit": false,
      "t": 41341.44550000008,
      "d": 129.57311458333425,
      "v": 77
    },
    {
      "midi": 64,
      "hit": false,
      "t": 41707.29900000008,
      "d": 129.57311458333425,
      "v": 76
    },
    {
      "midi": 67,
      "hit": false,
      "t": 41707.29900000008,
      "d": 129.57311458333425,
      "v": 95
    },
    {
      "midi": 71,
      "hit": false,
      "t": 42073.15250000008,
      "d": 548.7802500000034,
      "v": 103
    },
    {
      "midi": 64,
      "hit": false,
      "t": 42073.15250000008,
      "d": 571.6460937500015,
      "v": 92
    },
    {
      "midi": 67,
      "hit": false,
      "t": 42073.15250000008,
      "d": 579.2680416666699,
      "v": 106
    },
    {
      "midi": 45,
      "hit": false,
      "t": 42073.15250000008,
      "d": 586.8899895833383,
      "v": 97
    },
    {
      "midi": 55,
      "hit": false,
      "t": 42073.15250000008,
      "d": 602.1338854166752,
      "v": 92
    },
    {
      "midi": 64,
      "hit": false,
      "t": 42804.859500000086,
      "d": 952.7434895833358,
      "v": 92
    },
    {
      "midi": 67,
      "hit": false,
      "t": 42804.859500000086,
      "d": 952.7434895833358,
      "v": 113
    },
    {
      "midi": 45,
      "hit": false,
      "t": 42804.859500000086,
      "d": 967.9873854166726,
      "v": 84
    },
    {
      "midi": 55,
      "hit": false,
      "t": 42804.859500000086,
      "d": 967.9873854166726,
      "v": 79
    },
    {
      "midi": 68,
      "hit": false,
      "t": 43902.42000000009,
      "d": 7.621947916668432,
      "v": 80
    },
    {
      "midi": 47,
      "hit": false,
      "t": 43902.42000000009,
      "d": 907.0118020833324,
      "v": 97
    },
    {
      "midi": 69,
      "hit": false,
      "t": 43902.42000000009,
      "d": 914.6337500000009,
      "v": 106
    },
    {
      "midi": 59,
      "hit": false,
      "t": 43902.42000000009,
      "d": 922.2556979166693,
      "v": 106
    },
    {
      "midi": 62,
      "hit": false,
      "t": 43902.42000000009,
      "d": 952.7434895833358,
      "v": 109
    },
    {
      "midi": 66,
      "hit": false,
      "t": 43902.42000000009,
      "d": 960.3654375000042,
      "v": 126
    },
    {
      "midi": 47,
      "hit": false,
      "t": 44999.9805000001,
      "d": 945.1215416666673,
      "v": 92
    },
    {
      "midi": 62,
      "hit": false,
      "t": 44999.9805000001,
      "d": 952.7434895833358,
      "v": 88
    },
    {
      "midi": 59,
      "hit": false,
      "t": 44999.9805000001,
      "d": 960.3654375000042,
      "v": 84
    },
    {
      "midi": 66,
      "hit": false,
      "t": 44999.9805000001,
      "d": 990.8532291666706,
      "v": 118
    },
    {
      "midi": 59,
      "hit": false,
      "t": 46097.54100000011,
      "d": 685.9753124999988,
      "v": 82
    },
    {
      "midi": 47,
      "hit": false,
      "t": 46097.54100000011,
      "d": 708.8411562499969,
      "v": 84
    },
    {
      "midi": 62,
      "hit": false,
      "t": 46097.54100000011,
      "d": 708.8411562499969,
      "v": 84
    },
    {
      "midi": 40,
      "hit": false,
      "t": 46829.2480000001,
      "d": 624.9997291666659,
      "v": 90
    },
    {
      "midi": 47,
      "hit": false,
      "t": 46829.2480000001,
      "d": 647.865572916664,
      "v": 103
    },
    {
      "midi": 52,
      "hit": false,
      "t": 46829.2480000001,
      "d": 647.865572916664,
      "v": 95
    },
    {
      "midi": 59,
      "hit": false,
      "t": 46829.2480000001,
      "d": 708.8411562499969,
      "v": 122
    },
    {
      "midi": 40,
      "hit": false,
      "t": 47560.955000000096,
      "d": 556.4021979166646,
      "v": 69
    },
    {
      "midi": 52,
      "hit": false,
      "t": 47560.955000000096,
      "d": 556.4021979166646,
      "v": 69
    },
    {
      "midi": 47,
      "hit": false,
      "t": 47560.955000000096,
      "d": 564.024145833333,
      "v": 82
    },
    {
      "midi": 57,
      "hit": false,
      "t": 47560.955000000096,
      "d": 640.2436250000028,
      "v": 88
    },
    {
      "midi": 40,
      "hit": false,
      "t": 48292.6620000001,
      "d": 495.4266145833317,
      "v": 80
    },
    {
      "midi": 47,
      "hit": false,
      "t": 48292.6620000001,
      "d": 518.2924583333297,
      "v": 90
    },
    {
      "midi": 52,
      "hit": false,
      "t": 48292.6620000001,
      "d": 518.2924583333297,
      "v": 79
    },
    {
      "midi": 57,
      "hit": false,
      "t": 48292.6620000001,
      "d": 548.7802499999962,
      "v": 92
    },
    {
      "midi": 40,
      "hit": false,
      "t": 49024.36900000009,
      "d": 297.2559687500034,
      "v": 88
    },
    {
      "midi": 52,
      "hit": false,
      "t": 49024.36900000009,
      "d": 320.1218125000014,
      "v": 97
    },
    {
      "midi": 47,
      "hit": false,
      "t": 49024.36900000009,
      "d": 327.74376041666983,
      "v": 106
    },
    {
      "midi": 57,
      "hit": false,
      "t": 49024.36900000009,
      "d": 350.60960416666785,
      "v": 109
    },
    {
      "midi": 47,
      "hit": false,
      "t": 49390.2225000001,
      "d": 6082.314437499997,
      "v": 106
    },
    {
      "midi": 40,
      "hit": false,
      "t": 49390.2225000001,
      "d": 6097.558333333334,
      "v": 80
    },
    {
      "midi": 52,
      "hit": false,
      "t": 49390.2225000001,
      "d": 6097.558333333334,
      "v": 92
    },
    {
      "midi": 56,
      "hit": false,
      "t": 49390.2225000001,
      "d": 6105.180281250003,
      "v": 126
    }
  ]
}