{
  "jsonPath": "Pop/Italian Pop/Lucio Battisti/ancora-tu.json",
  "path": "Pop\\Italian Pop\\Lucio Battisti\\Ancora Tu.mid",
  "name": "Ancora Tu",
  "difficulty": "Advanced",
  "bpm": 112.00005973336519,
  "notes": [
    {
      "midi": 55,
      "hit": false,
      "t": 19285.703999999998,
      "d": 286.8302041666684,
      "v": 100
    },
    {
      "midi": 59,
      "hit": false,
      "t": 19285.703999999998,
      "d": 312.4998333333351,
      "v": 100
    },
    {
      "midi": 59,
      "hit": false,
      "t": 19687.4895,
      "d": 137.27671249999912,
      "v": 127
    },
    {
      "midi": 62,
      "hit": false,
      "t": 19687.4895,
      "d": 158.48205833333122,
      "v": 127
    },
    {
      "midi": 55,
      "hit": false,
      "t": 19687.4895,
      "d": 164.06241249999948,
      "v": 122
    },
    {
      "midi": 62,
      "hit": false,
      "t": 20758.9175,
      "d": 174.1070499999987,
      "v": 127
    },
    {
      "midi": 59,
      "hit": false,
      "t": 20758.9175,
      "d": 334.82124999999724,
      "v": 97
    },
    {
      "midi": 66,
      "hit": false,
      "t": 20892.845999999998,
      "d": 236.607016666665,
      "v": 105
    },
    {
      "midi": 59,
      "hit": false,
      "t": 21160.702999999998,
      "d": 74.77674583333282,
      "v": 28
    },
    {
      "midi": 62,
      "hit": false,
      "t": 21160.702999999998,
      "d": 128.34814583333355,
      "v": 127
    },
    {
      "midi": 62,
      "hit": false,
      "t": 21428.559999999998,
      "d": 308.0355500000005,
      "v": 100
    },
    {
      "midi": 57,
      "hit": false,
      "t": 21428.559999999998,
      "d": 314.7319749999988,
      "v": 100
    },
    {
      "midi": 57,
      "hit": false,
      "t": 21830.345499999996,
      "d": 90.40173750000031,
      "v": 107
    },
    {
      "midi": 62,
      "hit": false,
      "t": 21830.345499999996,
      "d": 117.18743750000067,
      "v": 127
    },
    {
      "midi": 66,
      "hit": false,
      "t": 21830.345499999996,
      "d": 137.27671249999912,
      "v": 107
    },
    {
      "midi": 66,
      "hit": false,
      "t": 22901.773499999996,
      "d": 176.33919166666965,
      "v": 127
    },
    {
      "midi": 62,
      "hit": false,
      "t": 22901.773499999996,
      "d": 330.3569666666699,
      "v": 127
    },
    {
      "midi": 69,
      "hit": false,
      "t": 23035.701999999997,
      "d": 321.4284000000007,
      "v": 127
    },
    {
      "midi": 62,
      "hit": false,
      "t": 23303.558999999997,
      "d": 47.991045833332464,
      "v": 62
    },
    {
      "midi": 66,
      "hit": false,
      "t": 23303.558999999997,
      "d": 101.56244583333319,
      "v": 105
    },
    {
      "midi": 61,
      "hit": false,
      "t": 23571.415999999997,
      "d": 414.06227916666467,
      "v": 100
    },
    {
      "midi": 57,
      "hit": false,
      "t": 23571.415999999997,
      "d": 543.5264958333319,
      "v": 100
    },
    {
      "midi": 64,
      "hit": false,
      "t": 23973.201499999996,
      "d": 167.41062500000044,
      "v": 122
    },
    {
      "midi": 61,
      "hit": false,
      "t": 25044.629499999995,
      "d": 117.18743750000067,
      "v": 127
    },
    {
      "midi": 57,
      "hit": false,
      "t": 25044.629499999995,
      "d": 302.4551958333359,
      "v": 127
    },
    {
      "midi": 64,
      "hit": false,
      "t": 25178.557999999997,
      "d": 335.9373208333345,
      "v": 73
    },
    {
      "midi": 57,
      "hit": false,
      "t": 25446.414999999997,
      "d": 75.89281666666648,
      "v": 111
    },
    {
      "midi": 61,
      "hit": false,
      "t": 25446.414999999997,
      "d": 168.5266958333341,
      "v": 111
    },
    {
      "midi": 54,
      "hit": false,
      "t": 25714.271999999997,
      "d": 315.84804583333243,
      "v": 100
    },
    {
      "midi": 59,
      "hit": false,
      "t": 25714.271999999997,
      "d": 371.65158750000046,
      "v": 100
    },
    {
      "midi": 59,
      "hit": false,
      "t": 26116.0575,
      "d": 113.83922499999971,
      "v": 95
    },
    {
      "midi": 54,
      "hit": false,
      "t": 26116.0575,
      "d": 135.04457083333182,
      "v": 75
    },
    {
      "midi": 62,
      "hit": false,
      "t": 26116.0575,
      "d": 161.83027083333218,
      "v": 115
    },
    {
      "midi": 62,
      "hit": false,
      "t": 27187.4855,
      "d": 195.3123958333308,
      "v": 127
    },
    {
      "midi": 59,
      "hit": false,
      "t": 27187.4855,
      "d": 286.83020416666477,
      "v": 90
    },
    {
      "midi": 66,
      "hit": false,
      "t": 27321.413999999997,
      "d": 315.84804583333243,
      "v": 102
    },
    {
      "midi": 59,
      "hit": false,
      "t": 27589.270999999997,
      "d": 108.25887083333146,
      "v": 57
    },
    {
      "midi": 62,
      "hit": false,
      "t": 27589.270999999997,
      "d": 122.76779166666529,
      "v": 127
    },
    {
      "midi": 59,
      "hit": false,
      "t": 27857.127999999997,
      "d": 304.68733749999956,
      "v": 100
    },
    {
      "midi": 62,
      "hit": false,
      "t": 27857.127999999997,
      "d": 345.98195833333375,
      "v": 100
    },
    {
      "midi": 62,
      "hit": false,
      "t": 28258.9135,
      "d": 79.24102916666743,
      "v": 126
    },
    {
      "midi": 59,
      "hit": false,
      "t": 28258.9135,
      "d": 128.34814583333355,
      "v": 126
    },
    {
      "midi": 66,
      "hit": false,
      "t": 28258.9135,
      "d": 146.20527916666833,
      "v": 126
    },
    {
      "midi": 66,
      "hit": false,
      "t": 29330.3415,
      "d": 154.01777499999662,
      "v": 102
    },
    {
      "midi": 62,
      "hit": false,
      "t": 29330.3415,
      "d": 325.89268333333166,
      "v": 107
    },
    {
      "midi": 69,
      "hit": false,
      "t": 29464.269999999997,
      "d": 308.0355500000005,
      "v": 127
    },
    {
      "midi": 66,
      "hit": false,
      "t": 29732.126999999997,
      "d": 100.44637499999953,
      "v": 107
    },
    {
      "midi": 62,
      "hit": false,
      "t": 29732.126999999997,
      "d": 114.95529583333337,
      "v": 46
    },
    {
      "midi": 61,
      "hit": false,
      "t": 29999.983999999997,
      "d": 362.7230208333349,
      "v": 96
    },
    {
      "midi": 57,
      "hit": false,
      "t": 29999.983999999997,
      "d": 630.5800208333349,
      "v": 96
    },
    {
      "midi": 64,
      "hit": false,
      "t": 30401.7695,
      "d": 218.74988333333386,
      "v": 122
    },
    {
      "midi": 61,
      "hit": false,
      "t": 31473.1975,
      "d": 164.06241249999948,
      "v": 127
    },
    {
      "midi": 57,
      "hit": false,
      "t": 31473.1975,
      "d": 560.267558333333,
      "v": 122
    },
    {
      "midi": 64,
      "hit": false,
      "t": 31607.125999999997,
      "d": 267.85699999999997,
      "v": 127
    },
    {
      "midi": 62,
      "hit": false,
      "t": 31874.982999999997,
      "d": 213.16952916666924,
      "v": 115
    },
    {
      "midi": 61,
      "hit": false,
      "t": 32142.84,
      "d": 343.74981666666645,
      "v": 100
    },
    {
      "midi": 57,
      "hit": false,
      "t": 32142.84,
      "d": 444.196191666666,
      "v": 100
    },
    {
      "midi": 64,
      "hit": false,
      "t": 32544.6255,
      "d": 109.37494166666875,
      "v": 127
    },
    {
      "midi": 61,
      "hit": false,
      "t": 33616.0535,
      "d": 175.22312083333236,
      "v": 118
    },
    {
      "midi": 57,
      "hit": false,
      "t": 33616.0535,
      "d": 559.1514874999993,
      "v": 118
    },
    {
      "midi": 64,
      "hit": false,
      "t": 33749.982,
      "d": 302.45519583333225,
      "v": 127
    },
    {
      "midi": 61,
      "hit": false,
      "t": 34017.839,
      "d": 191.96418333333713,
      "v": 92
    },
    {
      "midi": 57,
      "hit": false,
      "t": 34285.696,
      "d": 189.73204166666983,
      "v": 100
    },
    {
      "midi": 59,
      "hit": false,
      "t": 34285.696,
      "d": 232.14273333333404,
      "v": 100
    },
    {
      "midi": 62,
      "hit": false,
      "t": 34285.696,
      "d": 314.7319750000024,
      "v": 100
    },
    {
      "midi": 66,
      "hit": false,
      "t": 34687.48150000001,
      "d": 146.2052791666647,
      "v": 115
    },
    {
      "midi": 59,
      "hit": false,
      "t": 34687.48150000001,
      "d": 181.91954583333427,
      "v": 115
    },
    {
      "midi": 62,
      "hit": false,
      "t": 35758.90950000001,
      "d": 103.79458750000049,
      "v": 102
    },
    {
      "midi": 66,
      "hit": false,
      "t": 35758.90950000001,
      "d": 184.15168750000157,
      "v": 95
    },
    {
      "midi": 59,
      "hit": false,
      "t": 35758.90950000001,
      "d": 330.35696666666627,
      "v": 72
    },
    {
      "midi": 62,
      "hit": false,
      "t": 35892.83800000001,
      "d": 51.33925833333342,
      "v": 127
    },
    {
      "midi": 69,
      "hit": false,
      "t": 35892.83800000001,
      "d": 214.2855999999956,
      "v": 127
    },
    {
      "midi": 59,
      "hit": false,
      "t": 36160.69500000001,
      "d": 97.09816249999858,
      "v": 28
    },
    {
      "midi": 62,
      "hit": false,
      "t": 36160.69500000001,
      "d": 130.58028750000085,
      "v": 115
    },
    {
      "midi": 59,
      "hit": false,
      "t": 36428.55200000001,
      "d": 296.874841666664,
      "v": 100
    },
    {
      "midi": 62,
      "hit": false,
      "t": 36428.55200000001,
      "d": 338.16946249999455,
      "v": 100
    },
    {
      "midi": 62,
      "hit": false,
      "t": 36830.33750000001,
      "d": 69.19639166666457,
      "v": 122
    },
    {
      "midi": 66,
      "hit": false,
      "t": 36830.33750000001,
      "d": 148.437420833332,
      "v": 122
    },
    {
      "midi": 59,
      "hit": false,
      "t": 36830.33750000001,
      "d": 154.01777500000026,
      "v": 122
    },
    {
      "midi": 66,
      "hit": false,
      "t": 37901.76550000001,
      "d": 164.06241250000312,
      "v": 107
    },
    {
      "midi": 62,
      "hit": false,
      "t": 37901.76550000001,
      "d": 483.25867083333287,
      "v": 115
    },
    {
      "midi": 69,
      "hit": false,
      "t": 38035.69400000001,
      "d": 223.21416666666482,
      "v": 127
    },
    {
      "midi": 66,
      "hit": false,
      "t": 38303.55100000001,
      "d": 135.04457083333546,
      "v": 90
    },
    {
      "midi": 57,
      "hit": false,
      "t": 38571.40800000001,
      "d": 332.58910833333357,
      "v": 100
    },
    {
      "midi": 61,
      "hit": false,
      "t": 38571.40800000001,
      "d": 357.1426666666666,
      "v": 100
    },
    {
      "midi": 61,
      "hit": false,
      "t": 38973.19350000001,
      "d": 41.294620833330555,
      "v": 118
    },
    {
      "midi": 57,
      "hit": false,
      "t": 38973.19350000001,
      "d": 120.53564999999799,
      "v": 118
    },
    {
      "midi": 64,
      "hit": false,
      "t": 38973.19350000001,
      "d": 152.9017041666666,
      "v": 118
    },
    {
      "midi": 61,
      "hit": false,
      "t": 40044.62150000001,
      "d": 161.83027083333582,
      "v": 100
    },
    {
      "midi": 57,
      "hit": false,
      "t": 40044.62150000001,
      "d": 308.0355500000005,
      "v": 100
    },
    {
      "midi": 64,
      "hit": false,
      "t": 40178.55000000001,
      "d": 304.68733749999956,
      "v": 127
    },
    {
      "midi": 61,
      "hit": false,
      "t": 40446.40700000001,
      "d": 113.83922500000335,
      "v": 102
    },
    {
      "midi": 59,
      "hit": false,
      "t": 40714.26400000001,
      "d": 324.776612499998,
      "v": 100
    },
    {
      "midi": 62,
      "hit": false,
      "t": 40714.26400000001,
      "d": 332.58910833333357,
      "v": 100
    },
    {
      "midi": 59,
      "hit": false,
      "t": 41116.04950000001,
      "d": 90.40173749999667,
      "v": 122
    },
    {
      "midi": 62,
      "hit": false,
      "t": 41116.04950000001,
      "d": 91.51780833333032,
      "v": 122
    },
    {
      "midi": 66,
      "hit": false,
      "t": 41116.04950000001,
      "d": 117.18743749999703,
      "v": 122
    },
    {
      "midi": 62,
      "hit": false,
      "t": 42187.47750000001,
      "d": 164.06241250000312,
      "v": 122
    },
    {
      "midi": 59,
      "hit": false,
      "t": 42187.47750000001,
      "d": 254.4641499999998,
      "v": 75
    },
    {
      "midi": 66,
      "hit": false,
      "t": 42321.40600000001,
      "d": 304.68733749999956,
      "v": 127
    },
    {
      "midi": 59,
      "hit": false,
      "t": 42589.263000000006,
      "d": 73.66067500000645,
      "v": 46
    },
    {
      "midi": 62,
      "hit": false,
      "t": 42589.263000000006,
      "d": 94.86602083333855,
      "v": 107
    },
    {
      "midi": 64,
      "hit": false,
      "t": 42857.12000000001,
      "d": 330.35696666666627,
      "v": 100
    },
    {
      "midi": 57,
      "hit": false,
      "t": 42857.12000000001,
      "d": 345.9819583333301,
      "v": 100
    },
    {
      "midi": 61,
      "hit": false,
      "t": 42857.12000000001,
      "d": 526.7854333333307,
      "v": 100
    },
    {
      "midi": 57,
      "hit": false,
      "t": 43258.90550000001,
      "d": 81.47317083333473,
      "v": 122
    },
    {
      "midi": 69,
      "hit": false,
      "t": 43258.90550000001,
      "d": 204.24096250000002,
      "v": 122
    },
    {
      "midi": 61,
      "hit": false,
      "t": 44330.33350000001,
      "d": 146.2052791666647,
      "v": 61
    },
    {
      "midi": 57,
      "hit": false,
      "t": 44330.33350000001,
      "d": 252.2320083333325,
      "v": 80
    },
    {
      "midi": 64,
      "hit": false,
      "t": 44330.33350000001,
      "d": 381.6962249999997,
      "v": 107
    },
    {
      "midi": 59,
      "hit": false,
      "t": 44999.97600000001,
      "d": 324.776612499998,
      "v": 100
    },
    {
      "midi": 62,
      "hit": false,
      "t": 44999.97600000001,
      "d": 343.7498166666628,
      "v": 100
    },
    {
      "midi": 62,
      "hit": false,
      "t": 45401.76150000001,
      "d": 61.38389583333628,
      "v": 115
    },
    {
      "midi": 59,
      "hit": false,
      "t": 45401.76150000001,
      "d": 100.44637499999953,
      "v": 87
    },
    {
      "midi": 66,
      "hit": false,
      "t": 45401.76150000001,
      "d": 140.62492499999644,
      "v": 95
    },
    {
      "midi": 62,
      "hit": false,
      "t": 46473.18950000001,
      "d": 147.32134999999835,
      "v": 111
    },
    {
      "midi": 59,
      "hit": false,
      "t": 46473.18950000001,
      "d": 262.2766458333281,
      "v": 111
    },
    {
      "midi": 66,
      "hit": false,
      "t": 46607.11800000001,
      "d": 312.49983333332784,
      "v": 127
    },
    {
      "midi": 62,
      "hit": false,
      "t": 46874.975000000006,
      "d": 97.09816249999858,
      "v": 122
    },
    {
      "midi": 59,
      "hit": false,
      "t": 46874.975000000006,
      "d": 102.67851666666684,
      "v": 46
    },
    {
      "midi": 57,
      "hit": false,
      "t": 47142.83200000001,
      "d": 304.68733749999956,
      "v": 100
    },
    {
      "midi": 61,
      "hit": false,
      "t": 47142.83200000001,
      "d": 348.2140999999974,
      "v": 100
    },
    {
      "midi": 57,
      "hit": false,
      "t": 47544.61750000001,
      "d": 69.19639166666457,
      "v": 100
    },
    {
      "midi": 61,
      "hit": false,
      "t": 47544.61750000001,
      "d": 94.86602083333128,
      "v": 82
    },
    {
      "midi": 64,
      "hit": false,
      "t": 47544.61750000001,
      "d": 111.60708333332877,
      "v": 122
    },
    {
      "midi": 61,
      "hit": false,
      "t": 48616.0455,
      "d": 180.80347500000062,
      "v": 102
    },
    {
      "midi": 57,
      "hit": false,
      "t": 48616.0455,
      "d": 287.94627500000206,
      "v": 102
    },
    {
      "midi": 64,
      "hit": false,
      "t": 48749.974,
      "d": 335.9373208333345,
      "v": 127
    },
    {
      "midi": 57,
      "hit": false,
      "t": 49017.831000000006,
      "d": 45.75890416666516,
      "v": 41
    },
    {
      "midi": 61,
      "hit": false,
      "t": 49017.831000000006,
      "d": 123.88386249999894,
      "v": 105
    },
    {
      "midi": 59,
      "hit": false,
      "t": 49285.688,
      "d": 332.58910833333357,
      "v": 100
    },
    {
      "midi": 62,
      "hit": false,
      "t": 49285.688,
      "d": 362.7230208333349,
      "v": 100
    },
    {
      "midi": 62,
      "hit": false,
      "t": 49687.4735,
      "d": 73.66067499999917,
      "v": 122
    },
    {
      "midi": 59,
      "hit": false,
      "t": 49687.4735,
      "d": 90.40173749999667,
      "v": 122
    },
    {
      "midi": 66,
      "hit": false,
      "t": 49687.4735,
      "d": 118.30350833333068,
      "v": 122
    },
    {
      "midi": 62,
      "hit": false,
      "t": 50758.9015,
      "d": 178.5713333333333,
      "v": 115
    },
    {
      "midi": 59,
      "hit": false,
      "t": 50758.9015,
      "d": 290.17841666666936,
      "v": 115
    },
    {
      "midi": 66,
      "hit": false,
      "t": 50892.83,
      "d": 332.58910833333357,
      "v": 127
    },
    {
      "midi": 62,
      "hit": false,
      "t": 51160.687000000005,
      "d": 97.09816249999858,
      "v": 107
    },
    {
      "midi": 59,
      "hit": false,
      "t": 51160.687000000005,
      "d": 120.53564999999799,
      "v": 61
    },
    {
      "midi": 57,
      "hit": false,
      "t": 51428.544,
      "d": 313.61590416666877,
      "v": 100
    },
    {
      "midi": 61,
      "hit": false,
      "t": 51428.544,
      "d": 330.35696666666627,
      "v": 100
    },
    {
      "midi": 61,
      "hit": false,
      "t": 51830.3295,
      "d": 33.48212500000227,
      "v": 63
    },
    {
      "midi": 64,
      "hit": false,
      "t": 51830.3295,
      "d": 112.7231541666697,
      "v": 127
    },
    {
      "midi": 57,
      "hit": false,
      "t": 51830.3295,
      "d": 117.18743750000431,
      "v": 102
    },
    {
      "midi": 61,
      "hit": false,
      "t": 52901.75750000001,
      "d": 94.86602083333128,
      "v": 92
    },
    {
      "midi": 57,
      "hit": false,
      "t": 52901.75750000001,
      "d": 457.5890416666589,
      "v": 100
    },
    {
      "midi": 64,
      "hit": false,
      "t": 53035.686,
      "d": 306.91947916666686,
      "v": 126
    },
    {
      "midi": 61,
      "hit": false,
      "t": 53303.543000000005,
      "d": 106.02672916666052,
      "v": 107
    },
    {
      "midi": 55,
      "hit": false,
      "t": 53571.4,
      "d": 286.8302041666684,
      "v": 100
    },
    {
      "midi": 59,
      "hit": false,
      "t": 53571.4,
      "d": 312.4998333333351,
      "v": 100
    },
    {
      "midi": 59,
      "hit": false,
      "t": 53973.18550000001,
      "d": 137.27671250000276,
      "v": 127
    },
    {
      "midi": 62,
      "hit": false,
      "t": 53973.18550000001,
      "d": 158.48205833333486,
      "v": 127
    },
    {
      "midi": 55,
      "hit": false,
      "t": 53973.18550000001,
      "d": 164.06241250000312,
      "v": 122
    },
    {
      "midi": 62,
      "hit": false,
      "t": 55044.61350000001,
      "d": 174.1070499999987,
      "v": 127
    },
    {
      "midi": 59,
      "hit": false,
      "t": 55044.61350000001,
      "d": 334.8212500000009,
      "v": 97
    },
    {
      "midi": 66,
      "hit": false,
      "t": 55178.54200000001,
      "d": 236.60701666666864,
      "v": 105
    },
    {
      "midi": 59,
      "hit": false,
      "t": 55446.39900000001,
      "d": 74.77674583333282,
      "v": 28
    },
    {
      "midi": 62,
      "hit": false,
      "t": 55446.39900000001,
      "d": 128.34814583333355,
      "v": 127
    },
    {
      "midi": 62,
      "hit": false,
      "t": 55714.256000000016,
      "d": 308.0355500000005,
      "v": 100
    },
    {
      "midi": 57,
      "hit": false,
      "t": 55714.256000000016,
      "d": 314.7319750000024,
      "v": 100
    },
    {
      "midi": 57,
      "hit": false,
      "t": 56116.04150000002,
      "d": 90.40173749999667,
      "v": 107
    },
    {
      "midi": 62,
      "hit": false,
      "t": 56116.04150000002,
      "d": 117.18743749999703,
      "v": 127
    },
    {
      "midi": 66,
      "hit": false,
      "t": 56116.04150000002,
      "d": 137.27671249999548,
      "v": 107
    },
    {
      "midi": 66,
      "hit": false,
      "t": 57187.469500000014,
      "d": 176.339191666666,
      "v": 127
    },
    {
      "midi": 62,
      "hit": false,
      "t": 57187.469500000014,
      "d": 330.35696666666627,
      "v": 127
    },
    {
      "midi": 69,
      "hit": false,
      "t": 57321.398000000016,
      "d": 321.42839999999705,
      "v": 127
    },
    {
      "midi": 62,
      "hit": false,
      "t": 57589.25500000001,
      "d": 47.991045833332464,
      "v": 62
    },
    {
      "midi": 66,
      "hit": false,
      "t": 57589.25500000001,
      "d": 101.56244583333319,
      "v": 105
    },
    {
      "midi": 61,
      "hit": false,
      "t": 57857.11200000001,
      "d": 414.0622791666683,
      "v": 100
    },
    {
      "midi": 57,
      "hit": false,
      "t": 57857.11200000001,
      "d": 543.5264958333355,
      "v": 100
    },
    {
      "midi": 64,
      "hit": false,
      "t": 58258.89750000001,
      "d": 167.41062500000407,
      "v": 122
    },
    {
      "midi": 61,
      "hit": false,
      "t": 59330.32550000001,
      "d": 117.18743749999703,
      "v": 127
    },
    {
      "midi": 57,
      "hit": false,
      "t": 59330.32550000001,
      "d": 302.455195833325,
      "v": 127
    },
    {
      "midi": 64,
      "hit": false,
      "t": 59464.25400000001,
      "d": 335.93732083332725,
      "v": 73
    },
    {
      "midi": 57,
      "hit": false,
      "t": 59732.111000000004,
      "d": 75.89281666666648,
      "v": 111
    },
    {
      "midi": 61,
      "hit": false,
      "t": 59732.111000000004,
      "d": 168.52669583333045,
      "v": 111
    },
    {
      "midi": 54,
      "hit": false,
      "t": 59999.968,
      "d": 315.8480458333361,
      "v": 100
    },
    {
      "midi": 59,
      "hit": false,
      "t": 59999.968,
      "d": 371.6515875000041,
      "v": 100
    },
    {
      "midi": 59,
      "hit": false,
      "t": 60401.753500000006,
      "d": 113.83922500000335,
      "v": 95
    },
    {
      "midi": 54,
      "hit": false,
      "t": 60401.753500000006,
      "d": 135.04457083333546,
      "v": 75
    },
    {
      "midi": 62,
      "hit": false,
      "t": 60401.753500000006,
      "d": 161.83027083333582,
      "v": 115
    },
    {
      "midi": 62,
      "hit": false,
      "t": 61473.181500000006,
      "d": 195.3123958333381,
      "v": 127
    },
    {
      "midi": 59,
      "hit": false,
      "t": 61473.181500000006,
      "d": 286.8302041666684,
      "v": 90
    },
    {
      "midi": 66,
      "hit": false,
      "t": 61607.11000000001,
      "d": 315.8480458333288,
      "v": 102
    },
    {
      "midi": 59,
      "hit": false,
      "t": 61874.967000000004,
      "d": 108.2588708333351,
      "v": 57
    },
    {
      "midi": 62,
      "hit": false,
      "t": 61874.967000000004,
      "d": 122.76779166666529,
      "v": 127
    },
    {
      "midi": 59,
      "hit": false,
      "t": 62142.824,
      "d": 304.68733749999956,
      "v": 100
    },
    {
      "midi": 62,
      "hit": false,
      "t": 62142.824,
      "d": 345.9819583333301,
      "v": 100
    },
    {
      "midi": 62,
      "hit": false,
      "t": 62544.6095,
      "d": 79.24102916666743,
      "v": 126
    },
    {
      "midi": 59,
      "hit": false,
      "t": 62544.6095,
      "d": 128.34814583333355,
      "v": 126
    },
    {
      "midi": 66,
      "hit": false,
      "t": 62544.6095,
      "d": 146.2052791666647,
      "v": 126
    },
    {
      "midi": 66,
      "hit": false,
      "t": 63616.0375,
      "d": 154.01777500000026,
      "v": 102
    },
    {
      "midi": 62,
      "hit": false,
      "t": 63616.0375,
      "d": 325.89268333333166,
      "v": 107
    },
    {
      "midi": 69,
      "hit": false,
      "t": 63749.966,
      "d": 308.03554999999324,
      "v": 127
    },
    {
      "midi": 66,
      "hit": false,
      "t": 64017.823,
      "d": 100.44637499999953,
      "v": 107
    },
    {
      "midi": 62,
      "hit": false,
      "t": 64017.823,
      "d": 114.95529583332973,
      "v": 46
    },
    {
      "midi": 61,
      "hit": false,
      "t": 64285.67999999999,
      "d": 362.7230208333349,
      "v": 96
    },
    {
      "midi": 57,
      "hit": false,
      "t": 64285.67999999999,
      "d": 630.5800208333312,
      "v": 96
    },
    {
      "midi": 64,
      "hit": false,
      "t": 64687.46549999999,
      "d": 218.74988333333022,
      "v": 122
    },
    {
      "midi": 61,
      "hit": false,
      "t": 65758.89349999999,
      "d": 164.06241249998857,
      "v": 127
    },
    {
      "midi": 57,
      "hit": false,
      "t": 65758.89349999999,
      "d": 560.2675583333184,
      "v": 122
    },
    {
      "midi": 64,
      "hit": false,
      "t": 65892.82199999999,
      "d": 267.85699999998906,
      "v": 127
    },
    {
      "midi": 62,
      "hit": false,
      "t": 66160.67899999997,
      "d": 213.16952916666924,
      "v": 115
    },
    {
      "midi": 61,
      "hit": false,
      "t": 66428.53599999998,
      "d": 343.7498166666628,
      "v": 100
    },
    {
      "midi": 57,
      "hit": false,
      "t": 66428.53599999998,
      "d": 444.19619166666234,
      "v": 100
    },
    {
      "midi": 64,
      "hit": false,
      "t": 66830.32149999998,
      "d": 109.37494166666875,
      "v": 127
    },
    {
      "midi": 61,
      "hit": false,
      "t": 67901.74949999998,
      "d": 175.22312083332508,
      "v": 118
    },
    {
      "midi": 57,
      "hit": false,
      "t": 67901.74949999998,
      "d": 559.1514874999993,
      "v": 118
    },
    {
      "midi": 64,
      "hit": false,
      "t": 68035.67799999997,
      "d": 302.45519583333225,
      "v": 127
    },
    {
      "midi": 61,
      "hit": false,
      "t": 68303.53499999997,
      "d": 191.96418333332986,
      "v": 92
    },
    {
      "midi": 57,
      "hit": false,
      "t": 68571.39199999998,
      "d": 189.73204166666255,
      "v": 100
    },
    {
      "midi": 59,
      "hit": false,
      "t": 68571.39199999998,
      "d": 232.14273333332676,
      "v": 100
    },
    {
      "midi": 62,
      "hit": false,
      "t": 68571.39199999998,
      "d": 314.73197499998787,
      "v": 100
    },
    {
      "midi": 66,
      "hit": false,
      "t": 68973.17749999996,
      "d": 146.2052791666647,
      "v": 115
    },
    {
      "midi": 59,
      "hit": false,
      "t": 68973.17749999996,
      "d": 181.919545833327,
      "v": 115
    },
    {
      "midi": 62,
      "hit": false,
      "t": 70044.60549999996,
      "d": 103.79458750000049,
      "v": 102
    },
    {
      "midi": 66,
      "hit": false,
      "t": 70044.60549999996,
      "d": 184.1516874999943,
      "v": 95
    },
    {
      "midi": 59,
      "hit": false,
      "t": 70044.60549999996,
      "d": 330.356966666659,
      "v": 72
    },
    {
      "midi": 62,
      "hit": false,
      "t": 70178.53399999996,
      "d": 51.33925833333342,
      "v": 127
    },
    {
      "midi": 69,
      "hit": false,
      "t": 70178.53399999996,
      "d": 214.2856000000029,
      "v": 127
    },
    {
      "midi": 59,
      "hit": false,
      "t": 70446.39099999996,
      "d": 97.09816249999858,
      "v": 28
    },
    {
      "midi": 62,
      "hit": false,
      "t": 70446.39099999996,
      "d": 130.58028749999357,
      "v": 115
    },
    {
      "midi": 59,
      "hit": false,
      "t": 70714.24799999995,
      "d": 296.874841666664,
      "v": 100
    },
    {
      "midi": 62,
      "hit": false,
      "t": 70714.24799999995,
      "d": 338.16946249999455,
      "v": 100
    },
    {
      "midi": 62,
      "hit": false,
      "t": 71116.03349999995,
      "d": 69.19639166667184,
      "v": 122
    },
    {
      "midi": 66,
      "hit": false,
      "t": 71116.03349999995,
      "d": 148.437420833332,
      "v": 122
    },
    {
      "midi": 59,
      "hit": false,
      "t": 71116.03349999995,
      "d": 154.01777500000026,
      "v": 122
    },
    {
      "midi": 66,
      "hit": false,
      "t": 72187.46149999995,
      "d": 164.06241249998857,
      "v": 107
    },
    {
      "midi": 62,
      "hit": false,
      "t": 72187.46149999995,
      "d": 483.25867083331104,
      "v": 115
    },
    {
      "midi": 69,
      "hit": false,
      "t": 72321.38999999994,
      "d": 223.21416666665755,
      "v": 127
    },
    {
      "midi": 66,
      "hit": false,
      "t": 72589.24699999993,
      "d": 135.04457083332818,
      "v": 90
    },
    {
      "midi": 57,
      "hit": false,
      "t": 72857.10399999992,
      "d": 332.5891083333263,
      "v": 100
    },
    {
      "midi": 61,
      "hit": false,
      "t": 72857.10399999992,
      "d": 357.1426666666666,
      "v": 100
    },
    {
      "midi": 61,
      "hit": false,
      "t": 73258.88949999992,
      "d": 41.294620833330555,
      "v": 118
    },
    {
      "midi": 57,
      "hit": false,
      "t": 73258.88949999992,
      "d": 120.53564999999071,
      "v": 118
    },
    {
      "midi": 64,
      "hit": false,
      "t": 73258.88949999992,
      "d": 152.90170416665205,
      "v": 118
    },
    {
      "midi": 61,
      "hit": false,
      "t": 74330.3174999999,
      "d": 161.83027083332126,
      "v": 100
    },
    {
      "midi": 57,
      "hit": false,
      "t": 74330.3174999999,
      "d": 308.03554999998596,
      "v": 100
    },
    {
      "midi": 64,
      "hit": false,
      "t": 74464.2459999999,
      "d": 304.687337499985,
      "v": 127
    },
    {
      "midi": 61,
      "hit": false,
      "t": 74732.10299999989,
      "d": 113.8392249999888,
      "v": 102
    },
    {
      "midi": 59,
      "hit": false,
      "t": 74999.95999999988,
      "d": 324.7766125000053,
      "v": 100
    },
    {
      "midi": 62,
      "hit": false,
      "t": 74999.95999999988,
      "d": 332.58910833334085,
      "v": 100
    },
    {
      "midi": 59,
      "hit": false,
      "t": 75401.74549999989,
      "d": 90.40173749999667,
      "v": 122
    },
    {
      "midi": 62,
      "hit": false,
      "t": 75401.74549999989,
      "d": 91.51780833333032,
      "v": 122
    },
    {
      "midi": 66,
      "hit": false,
      "t": 75401.74549999989,
      "d": 117.18743749998976,
      "v": 122
    },
    {
      "midi": 62,
      "hit": false,
      "t": 76473.17349999987,
      "d": 164.06241249998857,
      "v": 122
    },
    {
      "midi": 59,
      "hit": false,
      "t": 76473.17349999987,
      "d": 254.46414999998524,
      "v": 75
    },
    {
      "midi": 66,
      "hit": false,
      "t": 76607.10199999987,
      "d": 304.687337499985,
      "v": 127
    },
    {
      "midi": 59,
      "hit": false,
      "t": 76874.95899999986,
      "d": 73.6606749999919,
      "v": 46
    },
    {
      "midi": 62,
      "hit": false,
      "t": 76874.95899999986,
      "d": 94.86602083333128,
      "v": 107
    },
    {
      "midi": 64,
      "hit": false,
      "t": 77142.81599999986,
      "d": 330.35696666667354,
      "v": 100
    },
    {
      "midi": 57,
      "hit": false,
      "t": 77142.81599999986,
      "d": 345.98195833334466,
      "v": 100
    },
    {
      "midi": 61,
      "hit": false,
      "t": 77142.81599999986,
      "d": 526.785433333338,
      "v": 100
    },
    {
      "midi": 57,
      "hit": false,
      "t": 77544.60149999987,
      "d": 81.47317083332746,
      "v": 122
    },
    {
      "midi": 69,
      "hit": false,
      "t": 77544.60149999987,
      "d": 204.24096249998547,
      "v": 122
    },
    {
      "midi": 61,
      "hit": false,
      "t": 78616.02949999986,
      "d": 146.2052791666647,
      "v": 61
    },
    {
      "midi": 57,
      "hit": false,
      "t": 78616.02949999986,
      "d": 252.2320083333325,
      "v": 80
    },
    {
      "midi": 64,
      "hit": false,
      "t": 78616.02949999986,
      "d": 381.6962249999924,
      "v": 107
    },
    {
      "midi": 59,
      "hit": false,
      "t": 79285.67199999985,
      "d": 324.7766125000053,
      "v": 100
    },
    {
      "midi": 62,
      "hit": false,
      "t": 79285.67199999985,
      "d": 343.74981666667736,
      "v": 100
    },
    {
      "midi": 62,
      "hit": false,
      "t": 79687.45749999986,
      "d": 61.38389583333628,
      "v": 115
    },
    {
      "midi": 59,
      "hit": false,
      "t": 79687.45749999986,
      "d": 100.44637499999953,
      "v": 87
    },
    {
      "midi": 66,
      "hit": false,
      "t": 79687.45749999986,
      "d": 140.62492499999644,
      "v": 95
    },
    {
      "midi": 62,
      "hit": false,
      "t": 80758.88549999986,
      "d": 147.32134999999835,
      "v": 111
    },
    {
      "midi": 59,
      "hit": false,
      "t": 80758.88549999986,
      "d": 262.27664583333535,
      "v": 111
    },
    {
      "midi": 66,
      "hit": false,
      "t": 80892.81399999985,
      "d": 312.4998333333351,
      "v": 127
    },
    {
      "midi": 62,
      "hit": false,
      "t": 81160.67099999986,
      "d": 97.09816249999858,
      "v": 122
    },
    {
      "midi": 59,
      "hit": false,
      "t": 81160.67099999986,
      "d": 102.67851666666684,
      "v": 46
    },
    {
      "midi": 57,
      "hit": false,
      "t": 81428.52799999986,
      "d": 304.68733749999956,
      "v": 100
    },
    {
      "midi": 61,
      "hit": false,
      "t": 81428.52799999986,
      "d": 348.2140999999974,
      "v": 100
    },
    {
      "midi": 57,
      "hit": false,
      "t": 81830.31349999986,
      "d": 69.19639166667184,
      "v": 100
    },
    {
      "midi": 61,
      "hit": false,
      "t": 81830.31349999986,
      "d": 94.86602083333128,
      "v": 82
    },
    {
      "midi": 64,
      "hit": false,
      "t": 81830.31349999986,
      "d": 111.60708333333605,
      "v": 122
    },
    {
      "midi": 61,
      "hit": false,
      "t": 82901.74149999986,
      "d": 180.80347499999334,
      "v": 102
    },
    {
      "midi": 57,
      "hit": false,
      "t": 82901.74149999986,
      "d": 287.9462749999948,
      "v": 102
    },
    {
      "midi": 64,
      "hit": false,
      "t": 83035.66999999985,
      "d": 335.9373208333418,
      "v": 127
    },
    {
      "midi": 57,
      "hit": false,
      "t": 83303.52699999986,
      "d": 45.75890416666516,
      "v": 41
    },
    {
      "midi": 61,
      "hit": false,
      "t": 83303.52699999986,
      "d": 123.88386250000622,
      "v": 105
    },
    {
      "midi": 59,
      "hit": false,
      "t": 83571.38399999986,
      "d": 332.5891083333263,
      "v": 100
    },
    {
      "midi": 62,
      "hit": false,
      "t": 83571.38399999986,
      "d": 362.72302083332033,
      "v": 100
    },
    {
      "midi": 62,
      "hit": false,
      "t": 83973.16949999984,
      "d": 73.66067500000645,
      "v": 122
    },
    {
      "midi": 59,
      "hit": false,
      "t": 83973.16949999984,
      "d": 90.40173750001122,
      "v": 122
    },
    {
      "midi": 66,
      "hit": false,
      "t": 83973.16949999984,
      "d": 118.30350833333796,
      "v": 122
    },
    {
      "midi": 62,
      "hit": false,
      "t": 85044.59749999984,
      "d": 178.57133333332604,
      "v": 115
    },
    {
      "midi": 59,
      "hit": false,
      "t": 85044.59749999984,
      "d": 290.1784166666621,
      "v": 115
    },
    {
      "midi": 66,
      "hit": false,
      "t": 85178.52599999984,
      "d": 332.58910833334085,
      "v": 127
    },
    {
      "midi": 62,
      "hit": false,
      "t": 85446.38299999984,
      "d": 97.09816249999858,
      "v": 107
    },
    {
      "midi": 59,
      "hit": false,
      "t": 85446.38299999984,
      "d": 120.53565000000526,
      "v": 61
    },
    {
      "midi": 57,
      "hit": false,
      "t": 85714.23999999985,
      "d": 313.61590416666877,
      "v": 100
    },
    {
      "midi": 61,
      "hit": false,
      "t": 85714.23999999985,
      "d": 330.35696666667354,
      "v": 100
    },
    {
      "midi": 61,
      "hit": false,
      "t": 86116.02549999986,
      "d": 33.482124999994994,
      "v": 63
    },
    {
      "midi": 64,
      "hit": false,
      "t": 86116.02549999986,
      "d": 112.72315416665515,
      "v": 127
    },
    {
      "midi": 57,
      "hit": false,
      "t": 86116.02549999986,
      "d": 117.18743749998976,
      "v": 102
    },
    {
      "midi": 61,
      "hit": false,
      "t": 87187.45349999984,
      "d": 94.86602083333128,
      "v": 92
    },
    {
      "midi": 57,
      "hit": false,
      "t": 87187.45349999984,
      "d": 457.58904166666616,
      "v": 100
    },
    {
      "midi": 64,
      "hit": false,
      "t": 87321.38199999984,
      "d": 306.91947916666686,
      "v": 126
    },
    {
      "midi": 61,
      "hit": false,
      "t": 87589.23899999984,
      "d": 106.02672916666779,
      "v": 107
    },
    {
      "midi": 55,
      "hit": false,
      "t": 87857.09599999984,
      "d": 286.83020416666113,
      "v": 100
    },
    {
      "midi": 59,
      "hit": false,
      "t": 87857.09599999984,
      "d": 312.49983333332057,
      "v": 100
    },
    {
      "midi": 59,
      "hit": false,
      "t": 88258.88149999983,
      "d": 137.27671249999548,
      "v": 127
    },
    {
      "midi": 62,
      "hit": false,
      "t": 88258.88149999983,
      "d": 158.48205833333486,
      "v": 127
    },
    {
      "midi": 55,
      "hit": false,
      "t": 88258.88149999983,
      "d": 164.06241250000312,
      "v": 122
    },
    {
      "midi": 86,
      "hit": false,
      "t": 88398.39035416667,
      "d": 507.81222916666593,
      "v": 125
    },
    {
      "midi": 83,
      "hit": false,
      "t": 88934.10435416666,
      "d": 398.4372874999972,
      "v": 125
    },
    {
      "midi": 62,
      "hit": false,
      "t": 89330.30949999983,
      "d": 174.10704999999143,
      "v": 127
    },
    {
      "midi": 59,
      "hit": false,
      "t": 89330.30949999983,
      "d": 334.8212499999936,
      "v": 97
    },
    {
      "midi": 66,
      "hit": false,
      "t": 89464.23799999982,
      "d": 236.60701666666137,
      "v": 105
    },
    {
      "midi": 88,
      "hit": false,
      "t": 89469.81835416665,
      "d": 231.0266624999931,
      "v": 125
    },
    {
      "midi": 59,
      "hit": false,
      "t": 89732.09499999981,
      "d": 74.7767458333401,
      "v": 28
    },
    {
      "midi": 62,
      "hit": false,
      "t": 89732.09499999981,
      "d": 128.34814583334082,
      "v": 127
    },
    {
      "midi": 86,
      "hit": false,
      "t": 89737.67535416664,
      "d": 2168.5256291666738,
      "v": 125
    },
    {
      "midi": 62,
      "hit": false,
      "t": 89999.95199999982,
      "d": 308.0355500000005,
      "v": 100
    },
    {
      "midi": 57,
      "hit": false,
      "t": 89999.95199999982,
      "d": 314.7319750000024,
      "v": 100
    },
    {
      "midi": 57,
      "hit": false,
      "t": 90401.73749999981,
      "d": 90.40173749999667,
      "v": 107
    },
    {
      "midi": 62,
      "hit": false,
      "t": 90401.73749999981,
      "d": 117.18743749998976,
      "v": 127
    },
    {
      "midi": 66,
      "hit": false,
      "t": 90401.73749999981,
      "d": 137.27671249999548,
      "v": 107
    },
    {
      "midi": 66,
      "hit": false,
      "t": 91473.16549999981,
      "d": 176.33919166665873,
      "v": 127
    },
    {
      "midi": 62,
      "hit": false,
      "t": 91473.16549999981,
      "d": 330.356966666659,
      "v": 127
    },
    {
      "midi": 69,
      "hit": false,
      "t": 91607.09399999981,
      "d": 321.42840000000433,
      "v": 127
    },
    {
      "midi": 62,
      "hit": false,
      "t": 91874.95099999981,
      "d": 47.991045833332464,
      "v": 62
    },
    {
      "midi": 66,
      "hit": false,
      "t": 91874.95099999981,
      "d": 101.56244583333319,
      "v": 105
    },
    {
      "midi": 61,
      "hit": false,
      "t": 92142.80799999982,
      "d": 414.0622791666683,
      "v": 100
    },
    {
      "midi": 57,
      "hit": false,
      "t": 92142.80799999982,
      "d": 543.5264958333282,
      "v": 100
    },
    {
      "midi": 81,
      "hit": false,
      "t": 92148.38835416664,
      "d": 1691.9633833333355,
      "v": 113
    },
    {
      "midi": 64,
      "hit": false,
      "t": 92544.59349999981,
      "d": 167.41062499998952,
      "v": 122
    },
    {
      "midi": 61,
      "hit": false,
      "t": 93616.0214999998,
      "d": 117.18743750000431,
      "v": 127
    },
    {
      "midi": 57,
      "hit": false,
      "t": 93616.0214999998,
      "d": 302.4551958333468,
      "v": 127
    },
    {
      "midi": 64,
      "hit": false,
      "t": 93749.94999999981,
      "d": 335.9373208333418,
      "v": 73
    },
    {
      "midi": 57,
      "hit": false,
      "t": 94017.80699999981,
      "d": 75.89281666667375,
      "v": 111
    },
    {
      "midi": 61,
      "hit": false,
      "t": 94017.80699999981,
      "d": 168.52669583333773,
      "v": 111
    },
    {
      "midi": 54,
      "hit": false,
      "t": 94285.66399999982,
      "d": 315.8480458333361,
      "v": 100
    },
    {
      "midi": 59,
      "hit": false,
      "t": 94285.66399999982,
      "d": 371.6515875000041,
      "v": 100
    },
    {
      "midi": 78,
      "hit": false,
      "t": 94291.24435416664,
      "d": 1749.9990666666708,
      "v": 110
    },
    {
      "midi": 83,
      "hit": false,
      "t": 94291.24435416664,
      "d": 1777.9008374999976,
      "v": 110
    },
    {
      "midi": 59,
      "hit": false,
      "t": 94687.44949999981,
      "d": 113.83922500000335,
      "v": 95
    },
    {
      "midi": 54,
      "hit": false,
      "t": 94687.44949999981,
      "d": 135.04457083334273,
      "v": 75
    },
    {
      "midi": 62,
      "hit": false,
      "t": 94687.44949999981,
      "d": 161.83027083333582,
      "v": 115
    },
    {
      "midi": 62,
      "hit": false,
      "t": 95758.87749999981,
      "d": 195.3123958333308,
      "v": 127
    },
    {
      "midi": 59,
      "hit": false,
      "t": 95758.87749999981,
      "d": 286.83020416666113,
      "v": 90
    },
    {
      "midi": 66,
      "hit": false,
      "t": 95892.80599999981,
      "d": 315.8480458333361,
      "v": 102
    },
    {
      "midi": 59,
      "hit": false,
      "t": 96160.66299999981,
      "d": 108.2588708333351,
      "v": 57
    },
    {
      "midi": 62,
      "hit": false,
      "t": 96160.66299999981,
      "d": 122.76779166667257,
      "v": 127
    },
    {
      "midi": 59,
      "hit": false,
      "t": 96428.51999999981,
      "d": 304.68733749999956,
      "v": 100
    },
    {
      "midi": 62,
      "hit": false,
      "t": 96428.51999999981,
      "d": 345.9819583333301,
      "v": 100
    },
    {
      "midi": 62,
      "hit": false,
      "t": 96830.30549999981,
      "d": 79.24102916666016,
      "v": 126
    },
    {
      "midi": 59,
      "hit": false,
      "t": 96830.30549999981,
      "d": 128.34814583332627,
      "v": 126
    },
    {
      "midi": 66,
      "hit": false,
      "t": 96830.30549999981,
      "d": 146.2052791666647,
      "v": 126
    },
    {
      "midi": 86,
      "hit": false,
      "t": 96969.81435416664,
      "d": 514.5086541666678,
      "v": 125
    },
    {
      "midi": 83,
      "hit": false,
      "t": 97505.52835416664,
      "d": 476.56224583333824,
      "v": 125
    },
    {
      "midi": 66,
      "hit": false,
      "t": 97901.73349999981,
      "d": 154.01777500000026,
      "v": 102
    },
    {
      "midi": 62,
      "hit": false,
      "t": 97901.73349999981,
      "d": 325.89268333333894,
      "v": 107
    },
    {
      "midi": 69,
      "hit": false,
      "t": 98035.66199999981,
      "d": 308.03555000001506,
      "v": 127
    },
    {
      "midi": 88,
      "hit": false,
      "t": 98041.24235416665,
      "d": 251.11593749999884,
      "v": 125
    },
    {
      "midi": 66,
      "hit": false,
      "t": 98303.51899999983,
      "d": 100.44637499999953,
      "v": 107
    },
    {
      "midi": 62,
      "hit": false,
      "t": 98303.51899999983,
      "d": 114.955295833337,
      "v": 46
    },
    {
      "midi": 85,
      "hit": false,
      "t": 98309.09935416665,
      "d": 1577.0080874999985,
      "v": 125
    },
    {
      "midi": 61,
      "hit": false,
      "t": 98571.37599999983,
      "d": 362.7230208333349,
      "v": 96
    },
    {
      "midi": 57,
      "hit": false,
      "t": 98571.37599999983,
      "d": 630.5800208333385,
      "v": 96
    },
    {
      "midi": 64,
      "hit": false,
      "t": 98973.16149999983,
      "d": 218.7498833333375,
      "v": 122
    },
    {
      "midi": 61,
      "hit": false,
      "t": 100044.58949999983,
      "d": 164.06241249998857,
      "v": 127
    },
    {
      "midi": 57,
      "hit": false,
      "t": 100044.58949999983,
      "d": 560.2675583333184,
      "v": 122
    },
    {
      "midi": 64,
      "hit": false,
      "t": 100178.51799999982,
      "d": 267.85699999998906,
      "v": 127
    },
    {
      "midi": 62,
      "hit": false,
      "t": 100446.37499999981,
      "d": 213.16952916666924,
      "v": 115
    },
    {
      "midi": 83,
      "hit": false,
      "t": 100451.95535416665,
      "d": 267.8570000000036,
      "v": 116
    },
    {
      "midi": 61,
      "hit": false,
      "t": 100714.23199999981,
      "d": 343.7498166666628,
      "v": 100
    },
    {
      "midi": 57,
      "hit": false,
      "t": 100714.23199999981,
      "d": 444.19619166666234,
      "v": 100
    },
    {
      "midi": 81,
      "hit": false,
      "t": 100719.81235416666,
      "d": 1878.347212499997,
      "v": 113
    },
    {
      "midi": 64,
      "hit": false,
      "t": 101116.01749999981,
      "d": 109.37494166666875,
      "v": 127
    },
    {
      "midi": 61,
      "hit": false,
      "t": 102187.44549999981,
      "d": 175.22312083332508,
      "v": 118
    },
    {
      "midi": 57,
      "hit": false,
      "t": 102187.44549999981,
      "d": 559.1514874999993,
      "v": 118
    },
    {
      "midi": 64,
      "hit": false,
      "t": 102321.3739999998,
      "d": 302.45519583333225,
      "v": 127
    },
    {
      "midi": 61,
      "hit": false,
      "t": 102589.23099999981,
      "d": 191.96418333332986,
      "v": 92
    },
    {
      "midi": 57,
      "hit": false,
      "t": 102857.08799999981,
      "d": 189.73204166666255,
      "v": 100
    },
    {
      "midi": 59,
      "hit": false,
      "t": 102857.08799999981,
      "d": 232.14273333332676,
      "v": 100
    },
    {
      "midi": 62,
      "hit": false,
      "t": 102857.08799999981,
      "d": 314.73197499998787,
      "v": 100
    },
    {
      "midi": 83,
      "hit": false,
      "t": 102862.66835416666,
      "d": 1902.9007708333374,
      "v": 110
    },
    {
      "midi": 66,
      "hit": false,
      "t": 103258.8734999998,
      "d": 146.2052791666647,
      "v": 115
    },
    {
      "midi": 59,
      "hit": false,
      "t": 103258.8734999998,
      "d": 181.919545833327,
      "v": 115
    },
    {
      "midi": 62,
      "hit": false,
      "t": 104330.3014999998,
      "d": 103.79458750000049,
      "v": 102
    },
    {
      "midi": 66,
      "hit": false,
      "t": 104330.3014999998,
      "d": 184.1516874999943,
      "v": 95
    },
    {
      "midi": 59,
      "hit": false,
      "t": 104330.3014999998,
      "d": 330.356966666659,
      "v": 72
    },
    {
      "midi": 62,
      "hit": false,
      "t": 104464.22999999979,
      "d": 51.33925833333342,
      "v": 127
    },
    {
      "midi": 69,
      "hit": false,
      "t": 104464.22999999979,
      "d": 214.2856000000029,
      "v": 127
    },
    {
      "midi": 59,
      "hit": false,
      "t": 104732.0869999998,
      "d": 97.09816249999858,
      "v": 28
    },
    {
      "midi": 62,
      "hit": false,
      "t": 104732.0869999998,
      "d": 130.58028749999357,
      "v": 115
    },
    {
      "midi": 59,
      "hit": false,
      "t": 104999.94399999978,
      "d": 296.874841666664,
      "v": 100
    },
    {
      "midi": 62,
      "hit": false,
      "t": 104999.94399999978,
      "d": 338.16946249999455,
      "v": 100
    },
    {
      "midi": 62,
      "hit": false,
      "t": 105401.72949999978,
      "d": 69.19639166667184,
      "v": 122
    },
    {
      "midi": 66,
      "hit": false,
      "t": 105401.72949999978,
      "d": 148.437420833332,
      "v": 122
    },
    {
      "midi": 59,
      "hit": false,
      "t": 105401.72949999978,
      "d": 154.01777500000026,
      "v": 122
    },
    {
      "midi": 66,
      "hit": false,
      "t": 106473.15749999978,
      "d": 164.06241249998857,
      "v": 107
    },
    {
      "midi": 62,
      "hit": false,
      "t": 106473.15749999978,
      "d": 483.25867083331104,
      "v": 115
    },
    {
      "midi": 69,
      "hit": false,
      "t": 106607.08599999978,
      "d": 223.21416666665755,
      "v": 127
    },
    {
      "midi": 66,
      "hit": false,
      "t": 106874.94299999977,
      "d": 135.04457083332818,
      "v": 90
    },
    {
      "midi": 57,
      "hit": false,
      "t": 107142.79999999976,
      "d": 332.5891083333263,
      "v": 100
    },
    {
      "midi": 61,
      "hit": false,
      "t": 107142.79999999976,
      "d": 357.1426666666666,
      "v": 100
    },
    {
      "midi": 61,
      "hit": false,
      "t": 107544.58549999975,
      "d": 41.294620833330555,
      "v": 118
    },
    {
      "midi": 57,
      "hit": false,
      "t": 107544.58549999975,
      "d": 120.53564999999071,
      "v": 118
    },
    {
      "midi": 64,
      "hit": false,
      "t": 107544.58549999975,
      "d": 152.90170416665205,
      "v": 118
    },
    {
      "midi": 61,
      "hit": false,
      "t": 108616.01349999974,
      "d": 161.83027083332126,
      "v": 100
    },
    {
      "midi": 57,
      "hit": false,
      "t": 108616.01349999974,
      "d": 308.03554999998596,
      "v": 100
    },
    {
      "midi": 64,
      "hit": false,
      "t": 108749.94199999973,
      "d": 304.687337499985,
      "v": 127
    },
    {
      "midi": 61,
      "hit": false,
      "t": 109017.79899999972,
      "d": 113.8392249999888,
      "v": 102
    },
    {
      "midi": 59,
      "hit": false,
      "t": 109285.65599999971,
      "d": 324.7766125000053,
      "v": 100
    },
    {
      "midi": 62,
      "hit": false,
      "t": 109285.65599999971,
      "d": 332.58910833334085,
      "v": 100
    },
    {
      "midi": 59,
      "hit": false,
      "t": 109687.44149999972,
      "d": 90.40173749999667,
      "v": 122
    },
    {
      "midi": 62,
      "hit": false,
      "t": 109687.44149999972,
      "d": 91.51780833333032,
      "v": 122
    },
    {
      "midi": 66,
      "hit": false,
      "t": 109687.44149999972,
      "d": 117.18743749998976,
      "v": 122
    },
    {
      "midi": 62,
      "hit": false,
      "t": 110758.86949999971,
      "d": 164.06241249998857,
      "v": 122
    },
    {
      "midi": 59,
      "hit": false,
      "t": 110758.86949999971,
      "d": 254.46414999998524,
      "v": 75
    },
    {
      "midi": 66,
      "hit": false,
      "t": 110892.7979999997,
      "d": 304.687337499985,
      "v": 127
    },
    {
      "midi": 59,
      "hit": false,
      "t": 111160.6549999997,
      "d": 73.6606749999919,
      "v": 46
    },
    {
      "midi": 62,
      "hit": false,
      "t": 111160.6549999997,
      "d": 94.86602083333128,
      "v": 107
    },
    {
      "midi": 64,
      "hit": false,
      "t": 111428.5119999997,
      "d": 330.35696666667354,
      "v": 100
    },
    {
      "midi": 57,
      "hit": false,
      "t": 111428.5119999997,
      "d": 345.98195833334466,
      "v": 100
    },
    {
      "midi": 61,
      "hit": false,
      "t": 111428.5119999997,
      "d": 526.785433333338,
      "v": 100
    },
    {
      "midi": 57,
      "hit": false,
      "t": 111830.29749999971,
      "d": 81.47317083332746,
      "v": 122
    },
    {
      "midi": 69,
      "hit": false,
      "t": 111830.29749999971,
      "d": 204.24096249998547,
      "v": 122
    },
    {
      "midi": 61,
      "hit": false,
      "t": 112901.7254999997,
      "d": 146.2052791666647,
      "v": 61
    },
    {
      "midi": 57,
      "hit": false,
      "t": 112901.7254999997,
      "d": 252.2320083333325,
      "v": 80
    },
    {
      "midi": 64,
      "hit": false,
      "t": 112901.7254999997,
      "d": 381.6962249999924,
      "v": 107
    },
    {
      "midi": 59,
      "hit": false,
      "t": 113571.36799999968,
      "d": 324.7766125000053,
      "v": 100
    },
    {
      "midi": 62,
      "hit": false,
      "t": 113571.36799999968,
      "d": 343.74981666667736,
      "v": 100
    },
    {
      "midi": 62,
      "hit": false,
      "t": 113973.1534999997,
      "d": 61.38389583333628,
      "v": 115
    },
    {
      "midi": 59,
      "hit": false,
      "t": 113973.1534999997,
      "d": 100.44637499999953,
      "v": 87
    },
    {
      "midi": 66,
      "hit": false,
      "t": 113973.1534999997,
      "d": 140.62492499999644,
      "v": 95
    },
    {
      "midi": 62,
      "hit": false,
      "t": 115044.5814999997,
      "d": 147.32134999999835,
      "v": 111
    },
    {
      "midi": 59,
      "hit": false,
      "t": 115044.5814999997,
      "d": 262.27664583333535,
      "v": 111
    },
    {
      "midi": 66,
      "hit": false,
      "t": 115178.50999999969,
      "d": 312.4998333333351,
      "v": 127
    },
    {
      "midi": 62,
      "hit": false,
      "t": 115446.3669999997,
      "d": 97.09816249999858,
      "v": 122
    },
    {
      "midi": 59,
      "hit": false,
      "t": 115446.3669999997,
      "d": 102.67851666666684,
      "v": 46
    },
    {
      "midi": 57,
      "hit": false,
      "t": 115714.2239999997,
      "d": 304.68733749999956,
      "v": 100
    },
    {
      "midi": 61,
      "hit": false,
      "t": 115714.2239999997,
      "d": 348.2140999999974,
      "v": 100
    },
    {
      "midi": 57,
      "hit": false,
      "t": 116116.0094999997,
      "d": 69.19639166667184,
      "v": 100
    },
    {
      "midi": 61,
      "hit": false,
      "t": 116116.0094999997,
      "d": 94.86602083333128,
      "v": 82
    },
    {
      "midi": 64,
      "hit": false,
      "t": 116116.0094999997,
      "d": 111.60708333333605,
      "v": 122
    },
    {
      "midi": 61,
      "hit": false,
      "t": 117187.4374999997,
      "d": 180.80347499999334,
      "v": 102
    },
    {
      "midi": 57,
      "hit": false,
      "t": 117187.4374999997,
      "d": 287.9462749999948,
      "v": 102
    },
    {
      "midi": 64,
      "hit": false,
      "t": 117321.36599999969,
      "d": 335.9373208333418,
      "v": 127
    },
    {
      "midi": 57,
      "hit": false,
      "t": 117589.22299999969,
      "d": 45.75890416666516,
      "v": 41
    },
    {
      "midi": 61,
      "hit": false,
      "t": 117589.22299999969,
      "d": 123.88386250000622,
      "v": 105
    },
    {
      "midi": 59,
      "hit": false,
      "t": 117857.0799999997,
      "d": 332.5891083333263,
      "v": 100
    },
    {
      "midi": 62,
      "hit": false,
      "t": 117857.0799999997,
      "d": 362.72302083332033,
      "v": 100
    },
    {
      "midi": 62,
      "hit": false,
      "t": 118258.86549999968,
      "d": 73.66067500000645,
      "v": 122
    },
    {
      "midi": 59,
      "hit": false,
      "t": 118258.86549999968,
      "d": 90.40173750001122,
      "v": 122
    },
    {
      "midi": 66,
      "hit": false,
      "t": 118258.86549999968,
      "d": 118.30350833333796,
      "v": 122
    },
    {
      "midi": 62,
      "hit": false,
      "t": 119330.29349999968,
      "d": 178.57133333332604,
      "v": 115
    },
    {
      "midi": 59,
      "hit": false,
      "t": 119330.29349999968,
      "d": 290.1784166666621,
      "v": 115
    },
    {
      "midi": 66,
      "hit": false,
      "t": 119464.22199999967,
      "d": 332.58910833334085,
      "v": 127
    },
    {
      "midi": 62,
      "hit": false,
      "t": 119732.07899999968,
      "d": 97.09816249999858,
      "v": 107
    },
    {
      "midi": 59,
      "hit": false,
      "t": 119732.07899999968,
      "d": 120.53565000000526,
      "v": 61
    },
    {
      "midi": 57,
      "hit": false,
      "t": 119999.93599999968,
      "d": 313.61590416666877,
      "v": 100
    },
    {
      "midi": 61,
      "hit": false,
      "t": 119999.93599999968,
      "d": 330.35696666667354,
      "v": 100
    },
    {
      "midi": 61,
      "hit": false,
      "t": 120401.7214999997,
      "d": 33.482124999994994,
      "v": 63
    },
    {
      "midi": 64,
      "hit": false,
      "t": 120401.7214999997,
      "d": 112.72315416665515,
      "v": 127
    },
    {
      "midi": 57,
      "hit": false,
      "t": 120401.7214999997,
      "d": 117.18743749998976,
      "v": 102
    },
    {
      "midi": 61,
      "hit": false,
      "t": 121473.14949999968,
      "d": 94.86602083333128,
      "v": 92
    },
    {
      "midi": 57,
      "hit": false,
      "t": 121473.14949999968,
      "d": 457.58904166666616,
      "v": 100
    },
    {
      "midi": 64,
      "hit": false,
      "t": 121607.07799999967,
      "d": 306.91947916666686,
      "v": 126
    },
    {
      "midi": 61,
      "hit": false,
      "t": 121874.93499999968,
      "d": 106.02672916666779,
      "v": 107
    },
    {
      "midi": 74,
      "hit": false,
      "t": 122142.79199999968,
      "d": 1867.1865041666606,
      "v": 110
    },
    {
      "midi": 71,
      "hit": false,
      "t": 122142.79199999968,
      "d": 1970.981091666661,
      "v": 83
    },
    {
      "midi": 59,
      "hit": false,
      "t": 122142.79199999968,
      "d": 1992.1864375000005,
      "v": 88
    },
    {
      "midi": 78,
      "hit": false,
      "t": 122142.79199999968,
      "d": 2001.1150041666697,
      "v": 85
    },
    {
      "midi": 47,
      "hit": false,
      "t": 122142.79199999968,
      "d": 2040.177483333333,
      "v": 95
    },
    {
      "midi": 90,
      "hit": false,
      "t": 123214.22,
      "d": 90.40173749999667,
      "v": 116
    },
    {
      "midi": 86,
      "hit": false,
      "t": 123219.80035416665,
      "d": 98.21423333333223,
      "v": 104
    },
    {
      "midi": 88,
      "hit": false,
      "t": 123348.1485,
      "d": 117.18743750000431,
      "v": 116
    },
    {
      "midi": 86,
      "hit": false,
      "t": 123353.72885416665,
      "d": 39.06247916666325,
      "v": 104
    },
    {
      "midi": 85,
      "hit": false,
      "t": 123353.72885416665,
      "d": 98.21423333333223,
      "v": 104
    },
    {
      "midi": 86,
      "hit": false,
      "t": 123616.0055,
      "d": 260.04450416666805,
      "v": 116
    },
    {
      "midi": 83,
      "hit": false,
      "t": 123621.58585416665,
      "d": 219.86595416667114,
      "v": 104
    },
    {
      "midi": 73,
      "hit": false,
      "t": 124285.64799999968,
      "d": 1679.6866041666653,
      "v": 85
    },
    {
      "midi": 76,
      "hit": false,
      "t": 124285.64799999968,
      "d": 1703.124091666672,
      "v": 103
    },
    {
      "midi": 69,
      "hit": false,
      "t": 124285.64799999968,
      "d": 1722.097295833344,
      "v": 88
    },
    {
      "midi": 57,
      "hit": false,
      "t": 124285.64799999968,
      "d": 1958.7043125000055,
      "v": 88
    },
    {
      "midi": 45,
      "hit": false,
      "t": 124285.64799999968,
      "d": 2072.543537500009,
      "v": 85
    },
    {
      "midi": 81,
      "hit": false,
      "t": 125357.07599999968,
      "d": 633.9282333333394,
      "v": 115
    },
    {
      "midi": 85,
      "hit": false,
      "t": 125624.933,
      "d": 70.3124625000055,
      "v": 116
    },
    {
      "midi": 81,
      "hit": false,
      "t": 125630.51335416666,
      "d": 90.40173749999667,
      "v": 104
    },
    {
      "midi": 86,
      "hit": false,
      "t": 125758.86150000001,
      "d": 80.3570999999938,
      "v": 116
    },
    {
      "midi": 83,
      "hit": false,
      "t": 125764.44185416665,
      "d": 85.93745416666206,
      "v": 104
    },
    {
      "midi": 88,
      "hit": false,
      "t": 125892.79000000001,
      "d": 97.09816249999858,
      "v": 116
    },
    {
      "midi": 85,
      "hit": false,
      "t": 125898.37035416665,
      "d": 141.7409958333301,
      "v": 104
    },
    {
      "midi": 86,
      "hit": false,
      "t": 126026.7185,
      "d": 154.01777500000026,
      "v": 116
    },
    {
      "midi": 83,
      "hit": false,
      "t": 126032.29885416664,
      "d": 113.83922500000335,
      "v": 104
    },
    {
      "midi": 74,
      "hit": false,
      "t": 126160.64699999969,
      "d": 33.482124999994994,
      "v": 41
    },
    {
      "midi": 85,
      "hit": false,
      "t": 126160.647,
      "d": 137.27671250001004,
      "v": 116
    },
    {
      "midi": 81,
      "hit": false,
      "t": 126166.22735416665,
      "d": 126.11600416667352,
      "v": 104
    },
    {
      "midi": 43,
      "hit": false,
      "t": 126428.5039999997,
      "d": 974.3298375000013,
      "v": 88
    },
    {
      "midi": 55,
      "hit": false,
      "t": 126428.5039999997,
      "d": 1385.0439041666687,
      "v": 103
    },
    {
      "midi": 71,
      "hit": false,
      "t": 126428.5039999997,
      "d": 1753.3472791666718,
      "v": 85
    },
    {
      "midi": 78,
      "hit": false,
      "t": 126428.5039999997,
      "d": 1837.0525916666666,
      "v": 65
    },
    {
      "midi": 67,
      "hit": false,
      "t": 126428.5039999997,
      "d": 1853.7936541666713,
      "v": 85
    },
    {
      "midi": 74,
      "hit": false,
      "t": 126428.5039999997,
      "d": 1954.2400291666709,
      "v": 110
    },
    {
      "midi": 73,
      "hit": false,
      "t": 128571.3599999997,
      "d": 1752.2312083333381,
      "v": 83
    },
    {
      "midi": 69,
      "hit": false,
      "t": 128571.3599999997,
      "d": 1934.1507541666651,
      "v": 110
    },
    {
      "midi": 76,
      "hit": false,
      "t": 128571.3599999997,
      "d": 1982.1417999999976,
      "v": 110
    },
    {
      "midi": 57,
      "hit": false,
      "t": 128571.3599999997,
      "d": 2155.1327791666554,
      "v": 88
    },
    {
      "midi": 81,
      "hit": false,
      "t": 129642.7879999997,
      "d": 1044.6422999999922,
      "v": 115
    },
    {
      "midi": 74,
      "hit": false,
      "t": 130714.21599999968,
      "d": 1746.65085416667,
      "v": 110
    },
    {
      "midi": 71,
      "hit": false,
      "t": 130714.21599999968,
      "d": 1809.1508208333253,
      "v": 75
    },
    {
      "midi": 78,
      "hit": false,
      "t": 130714.21599999968,
      "d": 1895.0882750000019,
      "v": 58
    },
    {
      "midi": 59,
      "hit": false,
      "t": 130714.21599999968,
      "d": 1930.8025416666787,
      "v": 95
    },
    {
      "midi": 90,
      "hit": false,
      "t": 131785.644,
      "d": 85.93745416667662,
      "v": 116
    },
    {
      "midi": 86,
      "hit": false,
      "t": 131791.22435416665,
      "d": 84.82138333332841,
      "v": 104
    },
    {
      "midi": 88,
      "hit": false,
      "t": 131919.5725,
      "d": 120.53565000000526,
      "v": 116
    },
    {
      "midi": 86,
      "hit": false,
      "t": 131925.15285416666,
      "d": 33.482125000009546,
      "v": 104
    },
    {
      "midi": 85,
      "hit": false,
      "t": 131925.15285416666,
      "d": 97.09816250001313,
      "v": 104
    },
    {
      "midi": 86,
      "hit": false,
      "t": 132187.42950000003,
      "d": 252.23200833334704,
      "v": 116
    },
    {
      "midi": 83,
      "hit": false,
      "t": 132193.00985416668,
      "d": 209.82131666666828,
      "v": 104
    },
    {
      "midi": 73,
      "hit": false,
      "t": 132857.0719999997,
      "d": 1867.1865041666897,
      "v": 85
    },
    {
      "midi": 69,
      "hit": false,
      "t": 132857.0719999997,
      "d": 1886.1597083333472,
      "v": 110
    },
    {
      "midi": 76,
      "hit": false,
      "t": 132857.0719999997,
      "d": 1982.1418000000122,
      "v": 110
    },
    {
      "midi": 57,
      "hit": false,
      "t": 132857.0719999997,
      "d": 1984.3739416666795,
      "v": 103
    },
    {
      "midi": 81,
      "hit": false,
      "t": 133928.4999999997,
      "d": 906.2495166666631,
      "v": 115
    },
    {
      "midi": 85,
      "hit": false,
      "t": 134196.35700000005,
      "d": 89.28566666666302,
      "v": 116
    },
    {
      "midi": 81,
      "hit": false,
      "t": 134201.93735416667,
      "d": 92.63387916667853,
      "v": 104
    },
    {
      "midi": 86,
      "hit": false,
      "t": 134330.28550000006,
      "d": 64.73210833332269,
      "v": 116
    },
    {
      "midi": 83,
      "hit": false,
      "t": 134335.86585416668,
      "d": 85.93745416667662,
      "v": 104
    },
    {
      "midi": 88,
      "hit": false,
      "t": 134464.21400000004,
      "d": 123.88386249999166,
      "v": 116
    },
    {
      "midi": 85,
      "hit": false,
      "t": 134469.7943541667,
      "d": 119.41957916665706,
      "v": 104
    },
    {
      "midi": 86,
      "hit": false,
      "t": 134598.14250000002,
      "d": 90.40173750001122,
      "v": 116
    },
    {
      "midi": 83,
      "hit": false,
      "t": 134603.72285416667,
      "d": 137.27671249999548,
      "v": 104
    },
    {
      "midi": 85,
      "hit": false,
      "t": 134732.07100000003,
      "d": 180.80347499999334,
      "v": 116
    },
    {
      "midi": 81,
      "hit": false,
      "t": 134737.65135416668,
      "d": 158.4820583333203,
      "v": 104
    },
    {
      "midi": 74,
      "hit": false,
      "t": 134999.9279999997,
      "d": 1969.8650208333274,
      "v": 115
    },
    {
      "midi": 78,
      "hit": false,
      "t": 134999.9279999997,
      "d": 1986.6060833333177,
      "v": 85
    },
    {
      "midi": 71,
      "hit": false,
      "t": 134999.9279999997,
      "d": 2004.463216666656,
      "v": 95
    },
    {
      "midi": 55,
      "hit": false,
      "t": 134999.9279999997,
      "d": 2128.3470791666477,
      "v": 103
    },
    {
      "midi": 57,
      "hit": false,
      "t": 137142.78399999966,
      "d": 2082.5881750000117,
      "v": 88
    },
    {
      "midi": 76,
      "hit": false,
      "t": 137142.78399999966,
      "d": 2087.0524583333463,
      "v": 85
    },
    {
      "midi": 73,
      "hit": false,
      "t": 137142.78399999966,
      "d": 2100.44530833335,
      "v": 78
    },
    {
      "midi": 69,
      "hit": false,
      "t": 137142.78399999966,
      "d": 2112.7220875000057,
      "v": 85
    },
    {
      "midi": 55,
      "hit": false,
      "t": 139285.63999999966,
      "d": 286.8302041666757,
      "v": 100
    },
    {
      "midi": 59,
      "hit": false,
      "t": 139285.63999999966,
      "d": 312.4998333333351,
      "v": 100
    },
    {
      "midi": 59,
      "hit": false,
      "t": 139687.42549999966,
      "d": 137.27671249999548,
      "v": 127
    },
    {
      "midi": 62,
      "hit": false,
      "t": 139687.42549999966,
      "d": 158.4820583333203,
      "v": 127
    },
    {
      "midi": 55,
      "hit": false,
      "t": 139687.42549999966,
      "d": 164.06241249997402,
      "v": 122
    },
    {
      "midi": 86,
      "hit": false,
      "t": 139826.93435416667,
      "d": 507.8122291666805,
      "v": 125
    },
    {
      "midi": 83,
      "hit": false,
      "t": 140362.64835416668,
      "d": 398.43728750001173,
      "v": 125
    },
    {
      "midi": 62,
      "hit": false,
      "t": 140758.85349999965,
      "d": 174.10705000002054,
      "v": 127
    },
    {
      "midi": 59,
      "hit": false,
      "t": 140758.85349999965,
      "d": 334.82125000000815,
      "v": 97
    },
    {
      "midi": 66,
      "hit": false,
      "t": 140892.78199999966,
      "d": 236.60701666667592,
      "v": 105
    },
    {
      "midi": 88,
      "hit": false,
      "t": 140898.3623541667,
      "d": 231.0266624999931,
      "v": 125
    },
    {
      "midi": 59,
      "hit": false,
      "t": 141160.63899999968,
      "d": 74.7767458333401,
      "v": 28
    },
    {
      "midi": 62,
      "hit": false,
      "t": 141160.63899999968,
      "d": 128.34814583332627,
      "v": 127
    },
    {
      "midi": 86,
      "hit": false,
      "t": 141166.21935416668,
      "d": 2168.525629166659,
      "v": 125
    },
    {
      "midi": 62,
      "hit": false,
      "t": 141428.49599999966,
      "d": 308.0355500000005,
      "v": 100
    },
    {
      "midi": 57,
      "hit": false,
      "t": 141428.49599999966,
      "d": 314.7319750000024,
      "v": 100
    },
    {
      "midi": 57,
      "hit": false,
      "t": 141830.28149999966,
      "d": 90.40173750001122,
      "v": 107
    },
    {
      "midi": 62,
      "hit": false,
      "t": 141830.28149999966,
      "d": 117.18743750001886,
      "v": 127
    },
    {
      "midi": 66,
      "hit": false,
      "t": 141830.28149999966,
      "d": 137.2767125000246,
      "v": 107
    },
    {
      "midi": 66,
      "hit": false,
      "t": 142901.70949999968,
      "d": 176.33919166668784,
      "v": 127
    },
    {
      "midi": 62,
      "hit": false,
      "t": 142901.70949999968,
      "d": 330.35696666667354,
      "v": 127
    },
    {
      "midi": 69,
      "hit": false,
      "t": 143035.6379999997,
      "d": 321.4283999999752,
      "v": 127
    },
    {
      "midi": 62,
      "hit": false,
      "t": 143303.49499999968,
      "d": 47.991045833332464,
      "v": 62
    },
    {
      "midi": 66,
      "hit": false,
      "t": 143303.49499999968,
      "d": 101.56244583331863,
      "v": 105
    },
    {
      "midi": 61,
      "hit": false,
      "t": 143571.35199999966,
      "d": 414.06227916665375,
      "v": 100
    },
    {
      "midi": 57,
      "hit": false,
      "t": 143571.35199999966,
      "d": 543.5264958333282,
      "v": 100
    },
    {
      "midi": 81,
      "hit": false,
      "t": 143576.93235416667,
      "d": 1691.963383333321,
      "v": 113
    },
    {
      "midi": 64,
      "hit": false,
      "t": 143973.13749999966,
      "d": 167.41062499998952,
      "v": 122
    },
    {
      "midi": 61,
      "hit": false,
      "t": 145044.56549999965,
      "d": 117.18743749998976,
      "v": 127
    },
    {
      "midi": 57,
      "hit": false,
      "t": 145044.56549999965,
      "d": 302.4551958333177,
      "v": 127
    },
    {
      "midi": 64,
      "hit": false,
      "t": 145178.49399999963,
      "d": 335.93732083335635,
      "v": 73
    },
    {
      "midi": 57,
      "hit": false,
      "t": 145446.35099999965,
      "d": 75.8928166666592,
      "v": 111
    },
    {
      "midi": 61,
      "hit": false,
      "t": 145446.35099999965,
      "d": 168.52669583333773,
      "v": 111
    },
    {
      "midi": 54,
      "hit": false,
      "t": 145714.20799999966,
      "d": 315.8480458333215,
      "v": 100
    },
    {
      "midi": 59,
      "hit": false,
      "t": 145714.20799999966,
      "d": 371.651587499975,
      "v": 100
    },
    {
      "midi": 78,
      "hit": false,
      "t": 145719.78835416667,
      "d": 1749.9990666666708,
      "v": 110
    },
    {
      "midi": 83,
      "hit": false,
      "t": 145719.78835416667,
      "d": 1777.9008374999976,
      "v": 110
    },
    {
      "midi": 59,
      "hit": false,
      "t": 146115.99349999963,
      "d": 113.83922500000335,
      "v": 95
    },
    {
      "midi": 54,
      "hit": false,
      "t": 146115.99349999963,
      "d": 135.04457083332818,
      "v": 75
    },
    {
      "midi": 62,
      "hit": false,
      "t": 146115.99349999963,
      "d": 161.83027083333582,
      "v": 115
    },
    {
      "midi": 62,
      "hit": false,
      "t": 147187.42149999965,
      "d": 195.31239583334536,
      "v": 127
    },
    {
      "midi": 59,
      "hit": false,
      "t": 147187.42149999965,
      "d": 286.8302041666757,
      "v": 90
    },
    {
      "midi": 66,
      "hit": false,
      "t": 147321.34999999966,
      "d": 315.8480458333215,
      "v": 102
    },
    {
      "midi": 59,
      "hit": false,
      "t": 147589.20699999965,
      "d": 108.25887083332054,
      "v": 57
    },
    {
      "midi": 62,
      "hit": false,
      "t": 147589.20699999965,
      "d": 122.76779166664346,
      "v": 127
    },
    {
      "midi": 59,
      "hit": false,
      "t": 147857.06399999963,
      "d": 304.6873375000141,
      "v": 100
    },
    {
      "midi": 62,
      "hit": false,
      "t": 147857.06399999963,
      "d": 345.98195833334466,
      "v": 100
    },
    {
      "midi": 62,
      "hit": false,
      "t": 148258.84949999963,
      "d": 79.2410291666747,
      "v": 126
    },
    {
      "midi": 59,
      "hit": false,
      "t": 148258.84949999963,
      "d": 128.34814583335537,
      "v": 126
    },
    {
      "midi": 66,
      "hit": false,
      "t": 148258.84949999963,
      "d": 146.2052791666938,
      "v": 126
    },
    {
      "midi": 86,
      "hit": false,
      "t": 148398.35835416667,
      "d": 514.5086541666533,
      "v": 125
    },
    {
      "midi": 83,
      "hit": false,
      "t": 148934.07235416665,
      "d": 476.56224583333824,
      "v": 125
    },
    {
      "midi": 66,
      "hit": false,
      "t": 149330.27749999965,
      "d": 154.0177750000148,
      "v": 102
    },
    {
      "midi": 62,
      "hit": false,
      "t": 149330.27749999965,
      "d": 325.89268333333894,
      "v": 107
    },
    {
      "midi": 69,
      "hit": false,
      "t": 149464.20599999966,
      "d": 308.0355500000005,
      "v": 127
    },
    {
      "midi": 88,
      "hit": false,
      "t": 149469.78635416666,
      "d": 251.11593749999884,
      "v": 125
    },
    {
      "midi": 66,
      "hit": false,
      "t": 149732.06299999965,
      "d": 100.44637499999953,
      "v": 107
    },
    {
      "midi": 62,
      "hit": false,
      "t": 149732.06299999965,
      "d": 114.95529583332245,
      "v": 46
    },
    {
      "midi": 85,
      "hit": false,
      "t": 149737.64335416665,
      "d": 1577.0080874999985,
      "v": 125
    },
    {
      "midi": 61,
      "hit": false,
      "t": 149999.91999999963,
      "d": 362.7230208333349,
      "v": 96
    },
    {
      "midi": 57,
      "hit": false,
      "t": 149999.91999999963,
      "d": 630.5800208333239,
      "v": 96
    },
    {
      "midi": 64,
      "hit": false,
      "t": 150401.70549999963,
      "d": 218.7498833333375,
      "v": 122
    },
    {
      "midi": 61,
      "hit": false,
      "t": 151473.13349999962,
      "d": 164.06241250000312,
      "v": 127
    },
    {
      "midi": 57,
      "hit": false,
      "t": 151473.13349999962,
      "d": 560.2675583333184,
      "v": 122
    },
    {
      "midi": 64,
      "hit": false,
      "t": 151607.06199999963,
      "d": 267.85699999998906,
      "v": 127
    },
    {
      "midi": 62,
      "hit": false,
      "t": 151874.91899999962,
      "d": 213.16952916665468,
      "v": 115
    },
    {
      "midi": 83,
      "hit": false,
      "t": 151880.49935416665,
      "d": 267.85699999998906,
      "v": 116
    },
    {
      "midi": 61,
      "hit": false,
      "t": 152142.7759999996,
      "d": 343.74981666667736,
      "v": 100
    },
    {
      "midi": 57,
      "hit": false,
      "t": 152142.7759999996,
      "d": 444.1961916666769,
      "v": 100
    },
    {
      "midi": 81,
      "hit": false,
      "t": 152148.35635416664,
      "d": 1878.347212499997,
      "v": 113
    },
    {
      "midi": 64,
      "hit": false,
      "t": 152544.5614999996,
      "d": 109.37494166666875,
      "v": 127
    },
    {
      "midi": 61,
      "hit": false,
      "t": 153615.98949999962,
      "d": 175.22312083333964,
      "v": 118
    },
    {
      "midi": 57,
      "hit": false,
      "t": 153615.98949999962,
      "d": 559.1514874999993,
      "v": 118
    },
    {
      "midi": 64,
      "hit": false,
      "t": 153749.91799999963,
      "d": 302.4551958333177,
      "v": 127
    },
    {
      "midi": 61,
      "hit": false,
      "t": 154017.77499999962,
      "d": 191.96418333332986,
      "v": 92
    },
    {
      "midi": 57,
      "hit": false,
      "t": 154285.6319999996,
      "d": 189.73204166666255,
      "v": 100
    },
    {
      "midi": 59,
      "hit": false,
      "t": 154285.6319999996,
      "d": 232.1427333333413,
      "v": 100
    },
    {
      "midi": 62,
      "hit": false,
      "t": 154285.6319999996,
      "d": 314.7319750000024,
      "v": 100
    },
    {
      "midi": 83,
      "hit": false,
      "t": 154291.21235416664,
      "d": 1902.9007708333374,
      "v": 110
    },
    {
      "midi": 66,
      "hit": false,
      "t": 154687.4174999996,
      "d": 146.2052791666647,
      "v": 115
    },
    {
      "midi": 59,
      "hit": false,
      "t": 154687.4174999996,
      "d": 181.91954583334154,
      "v": 115
    },
    {
      "midi": 62,
      "hit": false,
      "t": 155758.84549999962,
      "d": 103.79458749998594,
      "v": 102
    },
    {
      "midi": 66,
      "hit": false,
      "t": 155758.84549999962,
      "d": 184.15168749997974,
      "v": 95
    },
    {
      "midi": 59,
      "hit": false,
      "t": 155758.84549999962,
      "d": 330.35696666664444,
      "v": 72
    },
    {
      "midi": 62,
      "hit": false,
      "t": 155892.7739999996,
      "d": 51.33925833331887,
      "v": 127
    },
    {
      "midi": 69,
      "hit": false,
      "t": 155892.7739999996,
      "d": 214.2856000000029,
      "v": 127
    },
    {
      "midi": 59,
      "hit": false,
      "t": 156160.6309999996,
      "d": 97.09816250001313,
      "v": 28
    },
    {
      "midi": 62,
      "hit": false,
      "t": 156160.6309999996,
      "d": 130.58028750002268,
      "v": 115
    },
    {
      "midi": 59,
      "hit": false,
      "t": 156428.4879999996,
      "d": 296.874841666664,
      "v": 100
    },
    {
      "midi": 62,
      "hit": false,
      "t": 156428.4879999996,
      "d": 338.16946249999455,
      "v": 100
    },
    {
      "midi": 62,
      "hit": false,
      "t": 156830.2734999996,
      "d": 69.19639166665729,
      "v": 122
    },
    {
      "midi": 66,
      "hit": false,
      "t": 156830.2734999996,
      "d": 148.437420833332,
      "v": 122
    },
    {
      "midi": 59,
      "hit": false,
      "t": 156830.2734999996,
      "d": 154.0177749999857,
      "v": 122
    },
    {
      "midi": 66,
      "hit": false,
      "t": 157901.7014999996,
      "d": 164.06241250000312,
      "v": 107
    },
    {
      "midi": 62,
      "hit": false,
      "t": 157901.7014999996,
      "d": 483.25867083336925,
      "v": 115
    },
    {
      "midi": 69,
      "hit": false,
      "t": 158035.6299999996,
      "d": 223.2141666666721,
      "v": 127
    },
    {
      "midi": 66,
      "hit": false,
      "t": 158303.48699999962,
      "d": 135.04457083332818,
      "v": 90
    },
    {
      "midi": 57,
      "hit": false,
      "t": 158571.3439999996,
      "d": 332.58910833334085,
      "v": 100
    },
    {
      "midi": 61,
      "hit": false,
      "t": 158571.3439999996,
      "d": 357.1426666666812,
      "v": 100
    },
    {
      "midi": 61,
      "hit": false,
      "t": 158973.12949999963,
      "d": 41.294620833330555,
      "v": 118
    },
    {
      "midi": 57,
      "hit": false,
      "t": 158973.12949999963,
      "d": 120.53565000000526,
      "v": 118
    },
    {
      "midi": 64,
      "hit": false,
      "t": 158973.12949999963,
      "d": 152.9017041666666,
      "v": 118
    },
    {
      "midi": 61,
      "hit": false,
      "t": 160044.55749999965,
      "d": 161.83027083333582,
      "v": 100
    },
    {
      "midi": 57,
      "hit": false,
      "t": 160044.55749999965,
      "d": 308.0355500000005,
      "v": 100
    },
    {
      "midi": 64,
      "hit": false,
      "t": 160178.48599999966,
      "d": 304.687337499985,
      "v": 127
    },
    {
      "midi": 61,
      "hit": false,
      "t": 160446.34299999964,
      "d": 113.83922500000335,
      "v": 102
    },
    {
      "midi": 59,
      "hit": false,
      "t": 160714.19999999963,
      "d": 324.77661249999073,
      "v": 100
    },
    {
      "midi": 62,
      "hit": false,
      "t": 160714.19999999963,
      "d": 332.58910833331174,
      "v": 100
    },
    {
      "midi": 59,
      "hit": false,
      "t": 161115.9854999996,
      "d": 90.40173750001122,
      "v": 122
    },
    {
      "midi": 62,
      "hit": false,
      "t": 161115.9854999996,
      "d": 91.51780833333032,
      "v": 122
    },
    {
      "midi": 66,
      "hit": false,
      "t": 161115.9854999996,
      "d": 117.18743749998976,
      "v": 122
    },
    {
      "midi": 62,
      "hit": false,
      "t": 162187.4134999996,
      "d": 164.06241250000312,
      "v": 122
    },
    {
      "midi": 59,
      "hit": false,
      "t": 162187.4134999996,
      "d": 254.46415000001434,
      "v": 75
    },
    {
      "midi": 66,
      "hit": false,
      "t": 162321.3419999996,
      "d": 304.6873375000141,
      "v": 127
    },
    {
      "midi": 59,
      "hit": false,
      "t": 162589.19899999961,
      "d": 73.6606749999919,
      "v": 46
    },
    {
      "midi": 62,
      "hit": false,
      "t": 162589.19899999961,
      "d": 94.86602083331672,
      "v": 107
    },
    {
      "midi": 64,
      "hit": false,
      "t": 162857.0559999996,
      "d": 330.35696666667354,
      "v": 100
    },
    {
      "midi": 57,
      "hit": false,
      "t": 162857.0559999996,
      "d": 345.98195833334466,
      "v": 100
    },
    {
      "midi": 61,
      "hit": false,
      "t": 162857.0559999996,
      "d": 526.785433333338,
      "v": 100
    },
    {
      "midi": 57,
      "hit": false,
      "t": 163258.8414999996,
      "d": 81.47317083334201,
      "v": 122
    },
    {
      "midi": 69,
      "hit": false,
      "t": 163258.8414999996,
      "d": 204.24096250001458,
      "v": 122
    },
    {
      "midi": 61,
      "hit": false,
      "t": 164330.26949999962,
      "d": 146.2052791666647,
      "v": 61
    },
    {
      "midi": 57,
      "hit": false,
      "t": 164330.26949999962,
      "d": 252.23200833331794,
      "v": 80
    },
    {
      "midi": 64,
      "hit": false,
      "t": 164330.26949999962,
      "d": 381.6962249999924,
      "v": 107
    },
    {
      "midi": 59,
      "hit": false,
      "t": 164999.9119999996,
      "d": 324.77661249999073,
      "v": 100
    },
    {
      "midi": 62,
      "hit": false,
      "t": 164999.9119999996,
      "d": 343.74981666664826,
      "v": 100
    },
    {
      "midi": 62,
      "hit": false,
      "t": 165401.69749999957,
      "d": 61.38389583333628,
      "v": 115
    },
    {
      "midi": 59,
      "hit": false,
      "t": 165401.69749999957,
      "d": 100.44637499999953,
      "v": 87
    },
    {
      "midi": 66,
      "hit": false,
      "t": 165401.69749999957,
      "d": 140.624925000011,
      "v": 95
    },
    {
      "midi": 62,
      "hit": false,
      "t": 166473.1254999996,
      "d": 147.3213500000129,
      "v": 111
    },
    {
      "midi": 59,
      "hit": false,
      "t": 166473.1254999996,
      "d": 262.27664583333535,
      "v": 111
    },
    {
      "midi": 66,
      "hit": false,
      "t": 166607.0539999996,
      "d": 312.4998333333351,
      "v": 127
    },
    {
      "midi": 62,
      "hit": false,
      "t": 166874.91099999959,
      "d": 97.09816250001313,
      "v": 122
    },
    {
      "midi": 59,
      "hit": false,
      "t": 166874.91099999959,
      "d": 102.67851666666684,
      "v": 46
    },
    {
      "midi": 57,
      "hit": false,
      "t": 167142.76799999957,
      "d": 304.6873375000141,
      "v": 100
    },
    {
      "midi": 61,
      "hit": false,
      "t": 167142.76799999957,
      "d": 348.21410000001197,
      "v": 100
    },
    {
      "midi": 57,
      "hit": false,
      "t": 167544.55349999957,
      "d": 69.19639166665729,
      "v": 100
    },
    {
      "midi": 61,
      "hit": false,
      "t": 167544.55349999957,
      "d": 94.86602083331672,
      "v": 82
    },
    {
      "midi": 64,
      "hit": false,
      "t": 167544.55349999957,
      "d": 111.60708333330695,
      "v": 122
    },
    {
      "midi": 61,
      "hit": false,
      "t": 168615.98149999956,
      "d": 180.80347500002244,
      "v": 102
    },
    {
      "midi": 57,
      "hit": false,
      "t": 168615.98149999956,
      "d": 287.9462750000239,
      "v": 102
    },
    {
      "midi": 64,
      "hit": false,
      "t": 168749.90999999957,
      "d": 335.93732083335635,
      "v": 127
    },
    {
      "midi": 57,
      "hit": false,
      "t": 169017.76699999959,
      "d": 45.75890416666516,
      "v": 41
    },
    {
      "midi": 61,
      "hit": false,
      "t": 169017.76699999959,
      "d": 123.88386249999166,
      "v": 105
    },
    {
      "midi": 59,
      "hit": false,
      "t": 169285.62399999957,
      "d": 332.58910833334085,
      "v": 100
    },
    {
      "midi": 62,
      "hit": false,
      "t": 169285.62399999957,
      "d": 362.7230208333349,
      "v": 100
    },
    {
      "midi": 62,
      "hit": false,
      "t": 169687.40949999957,
      "d": 73.6606749999919,
      "v": 122
    },
    {
      "midi": 59,
      "hit": false,
      "t": 169687.40949999957,
      "d": 90.40173749998212,
      "v": 122
    },
    {
      "midi": 66,
      "hit": false,
      "t": 169687.40949999957,
      "d": 118.30350833330886,
      "v": 122
    },
    {
      "midi": 62,
      "hit": false,
      "t": 170758.83749999956,
      "d": 178.57133333335514,
      "v": 115
    },
    {
      "midi": 59,
      "hit": false,
      "t": 170758.83749999956,
      "d": 290.1784166666912,
      "v": 115
    },
    {
      "midi": 66,
      "hit": false,
      "t": 170892.76599999957,
      "d": 332.58910833334085,
      "v": 127
    },
    {
      "midi": 62,
      "hit": false,
      "t": 171160.62299999958,
      "d": 97.09816249998403,
      "v": 107
    },
    {
      "midi": 59,
      "hit": false,
      "t": 171160.62299999958,
      "d": 120.53564999997616,
      "v": 61
    },
    {
      "midi": 57,
      "hit": false,
      "t": 171428.47999999957,
      "d": 313.6159041666542,
      "v": 100
    },
    {
      "midi": 61,
      "hit": false,
      "t": 171428.47999999957,
      "d": 330.35696666664444,
      "v": 100
    },
    {
      "midi": 61,
      "hit": false,
      "t": 171830.26549999954,
      "d": 33.482125000009546,
      "v": 63
    },
    {
      "midi": 64,
      "hit": false,
      "t": 171830.26549999954,
      "d": 112.72315416668425,
      "v": 127
    },
    {
      "midi": 57,
      "hit": false,
      "t": 171830.26549999954,
      "d": 117.18743750001886,
      "v": 102
    },
    {
      "midi": 61,
      "hit": false,
      "t": 172901.69349999956,
      "d": 94.86602083334583,
      "v": 92
    },
    {
      "midi": 57,
      "hit": false,
      "t": 172901.69349999956,
      "d": 457.5890416666516,
      "v": 100
    },
    {
      "midi": 64,
      "hit": false,
      "t": 173035.62199999957,
      "d": 306.9194791666523,
      "v": 126
    },
    {
      "midi": 61,
      "hit": false,
      "t": 173303.47899999956,
      "d": 106.02672916665324,
      "v": 107
    },
    {
      "midi": 74,
      "hit": false,
      "t": 173571.33599999954,
      "d": 1867.1865041666606,
      "v": 110
    },
    {
      "midi": 71,
      "hit": false,
      "t": 173571.33599999954,
      "d": 1970.9810916666465,
      "v": 83
    },
    {
      "midi": 59,
      "hit": false,
      "t": 173571.33599999954,
      "d": 1992.1864374999714,
      "v": 88
    },
    {
      "midi": 78,
      "hit": false,
      "t": 173571.33599999954,
      "d": 2001.1150041666406,
      "v": 85
    },
    {
      "midi": 47,
      "hit": false,
      "t": 173571.33599999954,
      "d": 2040.1774833333038,
      "v": 95
    },
    {
      "midi": 90,
      "hit": false,
      "t": 174642.76400000002,
      "d": 90.40173750001122,
      "v": 116
    },
    {
      "midi": 86,
      "hit": false,
      "t": 174648.34435416665,
      "d": 98.21423333333223,
      "v": 104
    },
    {
      "midi": 88,
      "hit": false,
      "t": 174776.69250000003,
      "d": 117.18743749998976,
      "v": 116
    },
    {
      "midi": 86,
      "hit": false,
      "t": 174782.27285416666,
      "d": 39.06247916666325,
      "v": 104
    },
    {
      "midi": 85,
      "hit": false,
      "t": 174782.27285416666,
      "d": 98.21423333333223,
      "v": 104
    },
    {
      "midi": 86,
      "hit": false,
      "t": 175044.54950000002,
      "d": 260.04450416666805,
      "v": 116
    },
    {
      "midi": 83,
      "hit": false,
      "t": 175050.12985416665,
      "d": 219.8659541666566,
      "v": 104
    },
    {
      "midi": 73,
      "hit": false,
      "t": 175714.19199999952,
      "d": 1679.6866041666945,
      "v": 85
    },
    {
      "midi": 76,
      "hit": false,
      "t": 175714.19199999952,
      "d": 1703.1240916666866,
      "v": 103
    },
    {
      "midi": 69,
      "hit": false,
      "t": 175714.19199999952,
      "d": 1722.097295833344,
      "v": 88
    },
    {
      "midi": 57,
      "hit": false,
      "t": 175714.19199999952,
      "d": 1958.70431250002,
      "v": 88
    },
    {
      "midi": 45,
      "hit": false,
      "t": 175714.19199999952,
      "d": 2072.5435375000234,
      "v": 85
    },
    {
      "midi": 81,
      "hit": false,
      "t": 176785.61999999953,
      "d": 633.9282333333394,
      "v": 115
    },
    {
      "midi": 85,
      "hit": false,
      "t": 177053.477,
      "d": 70.3124625000055,
      "v": 116
    },
    {
      "midi": 81,
      "hit": false,
      "t": 177059.05735416664,
      "d": 90.40173750001122,
      "v": 104
    },
    {
      "midi": 86,
      "hit": false,
      "t": 177187.40550000002,
      "d": 80.3570999999938,
      "v": 116
    },
    {
      "midi": 83,
      "hit": false,
      "t": 177192.98585416665,
      "d": 85.93745416667662,
      "v": 104
    },
    {
      "midi": 88,
      "hit": false,
      "t": 177321.334,
      "d": 97.09816250001313,
      "v": 116
    },
    {
      "midi": 85,
      "hit": false,
      "t": 177326.91435416666,
      "d": 141.7409958333301,
      "v": 104
    },
    {
      "midi": 86,
      "hit": false,
      "t": 177455.2625,
      "d": 154.0177750000148,
      "v": 116
    },
    {
      "midi": 83,
      "hit": false,
      "t": 177460.84285416667,
      "d": 113.83922499997425,
      "v": 104
    },
    {
      "midi": 74,
      "hit": false,
      "t": 177589.19099999953,
      "d": 33.482125000009546,
      "v": 41
    },
    {
      "midi": 85,
      "hit": false,
      "t": 177589.19100000002,
      "d": 137.27671249999548,
      "v": 116
    },
    {
      "midi": 81,
      "hit": false,
      "t": 177594.77135416665,
      "d": 126.11600416665897,
      "v": 104
    },
    {
      "midi": 43,
      "hit": false,
      "t": 177857.04799999954,
      "d": 974.3298375000013,
      "v": 88
    },
    {
      "midi": 55,
      "hit": false,
      "t": 177857.04799999954,
      "d": 1385.0439041666687,
      "v": 103
    },
    {
      "midi": 71,
      "hit": false,
      "t": 177857.04799999954,
      "d": 1753.3472791666572,
      "v": 85
    },
    {
      "midi": 78,
      "hit": false,
      "t": 177857.04799999954,
      "d": 1837.0525916666666,
      "v": 65
    },
    {
      "midi": 67,
      "hit": false,
      "t": 177857.04799999954,
      "d": 1853.7936541666568,
      "v": 85
    },
    {
      "midi": 74,
      "hit": false,
      "t": 177857.04799999954,
      "d": 1954.2400291666563,
      "v": 110
    },
    {
      "midi": 73,
      "hit": false,
      "t": 179999.90399999954,
      "d": 1752.231208333309,
      "v": 83
    },
    {
      "midi": 69,
      "hit": false,
      "t": 179999.90399999954,
      "d": 1934.1507541666506,
      "v": 110
    },
    {
      "midi": 76,
      "hit": false,
      "t": 179999.90399999954,
      "d": 1982.141799999983,
      "v": 110
    },
    {
      "midi": 57,
      "hit": false,
      "t": 179999.90399999954,
      "d": 2155.1327791666554,
      "v": 88
    },
    {
      "midi": 81,
      "hit": false,
      "t": 181071.33199999953,
      "d": 1044.6423000000068,
      "v": 115
    },
    {
      "midi": 74,
      "hit": false,
      "t": 182142.75999999954,
      "d": 1746.6508541666553,
      "v": 110
    },
    {
      "midi": 71,
      "hit": false,
      "t": 182142.75999999954,
      "d": 1809.1508208333107,
      "v": 75
    },
    {
      "midi": 78,
      "hit": false,
      "t": 182142.75999999954,
      "d": 1895.0882749999873,
      "v": 58
    },
    {
      "midi": 59,
      "hit": false,
      "t": 182142.75999999954,
      "d": 1930.8025416666642,
      "v": 95
    },
    {
      "midi": 90,
      "hit": false,
      "t": 183214.18800000002,
      "d": 85.93745416667662,
      "v": 116
    },
    {
      "midi": 86,
      "hit": false,
      "t": 183219.76835416665,
      "d": 84.82138333332841,
      "v": 104
    },
    {
      "midi": 88,
      "hit": false,
      "t": 183348.11650000003,
      "d": 120.53565000000526,
      "v": 116
    },
    {
      "midi": 86,
      "hit": false,
      "t": 183353.69685416666,
      "d": 33.482125000009546,
      "v": 104
    },
    {
      "midi": 85,
      "hit": false,
      "t": 183353.69685416666,
      "d": 97.09816250001313,
      "v": 104
    },
    {
      "midi": 86,
      "hit": false,
      "t": 183615.97350000005,
      "d": 252.23200833334704,
      "v": 116
    },
    {
      "midi": 83,
      "hit": false,
      "t": 183621.55385416668,
      "d": 209.82131666666828,
      "v": 104
    },
    {
      "midi": 73,
      "hit": false,
      "t": 184285.61599999954,
      "d": 1867.1865041666606,
      "v": 85
    },
    {
      "midi": 69,
      "hit": false,
      "t": 184285.61599999954,
      "d": 1886.1597083333181,
      "v": 110
    },
    {
      "midi": 76,
      "hit": false,
      "t": 184285.61599999954,
      "d": 1982.141799999983,
      "v": 110
    },
    {
      "midi": 57,
      "hit": false,
      "t": 184285.61599999954,
      "d": 1984.3739416666504,
      "v": 103
    },
    {
      "midi": 81,
      "hit": false,
      "t": 185357.04399999953,
      "d": 906.2495166666631,
      "v": 115
    },
    {
      "midi": 85,
      "hit": false,
      "t": 185624.90100000007,
      "d": 89.28566666666302,
      "v": 116
    },
    {
      "midi": 81,
      "hit": false,
      "t": 185630.48135416667,
      "d": 92.63387916667853,
      "v": 104
    },
    {
      "midi": 86,
      "hit": false,
      "t": 185758.82950000008,
      "d": 64.73210833332269,
      "v": 116
    },
    {
      "midi": 83,
      "hit": false,
      "t": 185764.40985416668,
      "d": 85.93745416667662,
      "v": 104
    },
    {
      "midi": 88,
      "hit": false,
      "t": 185892.75800000006,
      "d": 123.88386249999166,
      "v": 116
    },
    {
      "midi": 85,
      "hit": false,
      "t": 185898.33835416668,
      "d": 119.41957916665706,
      "v": 104
    },
    {
      "midi": 86,
      "hit": false,
      "t": 186026.68650000004,
      "d": 90.40173750001122,
      "v": 116
    },
    {
      "midi": 83,
      "hit": false,
      "t": 186032.26685416666,
      "d": 137.27671249999548,
      "v": 104
    },
    {
      "midi": 85,
      "hit": false,
      "t": 186160.61500000005,
      "d": 180.80347499999334,
      "v": 116
    },
    {
      "midi": 81,
      "hit": false,
      "t": 186166.19535416667,
      "d": 158.4820583333203,
      "v": 104
    },
    {
      "midi": 74,
      "hit": false,
      "t": 186428.4719999995,
      "d": 1969.8650208333274,
      "v": 115
    },
    {
      "midi": 78,
      "hit": false,
      "t": 186428.4719999995,
      "d": 1986.6060833333177,
      "v": 85
    },
    {
      "midi": 71,
      "hit": false,
      "t": 186428.4719999995,
      "d": 2004.463216666656,
      "v": 95
    },
    {
      "midi": 55,
      "hit": false,
      "t": 186428.4719999995,
      "d": 2128.3470791666477,
      "v": 103
    },
    {
      "midi": 57,
      "hit": false,
      "t": 188571.32799999948,
      "d": 2082.5881750000117,
      "v": 88
    },
    {
      "midi": 76,
      "hit": false,
      "t": 188571.32799999948,
      "d": 2087.0524583333463,
      "v": 85
    },
    {
      "midi": 73,
      "hit": false,
      "t": 188571.32799999948,
      "d": 2100.44530833335,
      "v": 78
    },
    {
      "midi": 69,
      "hit": false,
      "t": 188571.32799999948,
      "d": 2112.7220875000057,
      "v": 85
    },
    {
      "midi": 57,
      "hit": false,
      "t": 216428.45599999948,
      "d": 286.8302041666757,
      "v": 100
    },
    {
      "midi": 61,
      "hit": false,
      "t": 216428.45599999948,
      "d": 312.4998333333351,
      "v": 100
    },
    {
      "midi": 61,
      "hit": false,
      "t": 216830.24149999948,
      "d": 137.27671249999548,
      "v": 127
    },
    {
      "midi": 64,
      "hit": false,
      "t": 216830.24149999948,
      "d": 158.4820583333203,
      "v": 127
    },
    {
      "midi": 57,
      "hit": false,
      "t": 216830.24149999948,
      "d": 164.06241249997402,
      "v": 122
    },
    {
      "midi": 88,
      "hit": false,
      "t": 216969.75035416667,
      "d": 507.8122291666805,
      "v": 125
    },
    {
      "midi": 85,
      "hit": false,
      "t": 217505.46435416667,
      "d": 398.43728750001173,
      "v": 125
    },
    {
      "midi": 64,
      "hit": false,
      "t": 217901.66949999947,
      "d": 174.10705000002054,
      "v": 127
    },
    {
      "midi": 61,
      "hit": false,
      "t": 217901.66949999947,
      "d": 334.82125000000815,
      "v": 97
    },
    {
      "midi": 68,
      "hit": false,
      "t": 218035.59799999947,
      "d": 236.60701666667592,
      "v": 105
    },
    {
      "midi": 90,
      "hit": false,
      "t": 218041.17835416668,
      "d": 231.0266624999931,
      "v": 125
    },
    {
      "midi": 61,
      "hit": false,
      "t": 218303.4549999995,
      "d": 74.7767458333401,
      "v": 28
    },
    {
      "midi": 64,
      "hit": false,
      "t": 218303.4549999995,
      "d": 128.34814583332627,
      "v": 127
    },
    {
      "midi": 88,
      "hit": false,
      "t": 218309.03535416667,
      "d": 2168.525629166659,
      "v": 125
    },
    {
      "midi": 64,
      "hit": false,
      "t": 218571.31199999948,
      "d": 308.0355500000005,
      "v": 100
    },
    {
      "midi": 59,
      "hit": false,
      "t": 218571.31199999948,
      "d": 314.7319750000024,
      "v": 100
    },
    {
      "midi": 59,
      "hit": false,
      "t": 218973.09749999948,
      "d": 90.40173750001122,
      "v": 107
    },
    {
      "midi": 64,
      "hit": false,
      "t": 218973.09749999948,
      "d": 117.18743750001886,
      "v": 127
    },
    {
      "midi": 68,
      "hit": false,
      "t": 218973.09749999948,
      "d": 137.2767125000246,
      "v": 107
    },
    {
      "midi": 68,
      "hit": false,
      "t": 220044.5254999995,
      "d": 176.33919166668784,
      "v": 127
    },
    {
      "midi": 64,
      "hit": false,
      "t": 220044.5254999995,
      "d": 330.35696666667354,
      "v": 127
    },
    {
      "midi": 71,
      "hit": false,
      "t": 220178.4539999995,
      "d": 321.4283999999752,
      "v": 127
    },
    {
      "midi": 64,
      "hit": false,
      "t": 220446.3109999995,
      "d": 47.991045833332464,
      "v": 62
    },
    {
      "midi": 68,
      "hit": false,
      "t": 220446.3109999995,
      "d": 101.56244583331863,
      "v": 105
    },
    {
      "midi": 63,
      "hit": false,
      "t": 220714.16799999948,
      "d": 414.06227916665375,
      "v": 100
    },
    {
      "midi": 59,
      "hit": false,
      "t": 220714.16799999948,
      "d": 543.5264958333282,
      "v": 100
    },
    {
      "midi": 83,
      "hit": false,
      "t": 220719.74835416666,
      "d": 1691.963383333321,
      "v": 113
    },
    {
      "midi": 66,
      "hit": false,
      "t": 221115.95349999948,
      "d": 167.41062499998952,
      "v": 122
    },
    {
      "midi": 63,
      "hit": false,
      "t": 222187.38149999946,
      "d": 117.18743749998976,
      "v": 127
    },
    {
      "midi": 59,
      "hit": false,
      "t": 222187.38149999946,
      "d": 302.4551958333177,
      "v": 127
    },
    {
      "midi": 66,
      "hit": false,
      "t": 222321.30999999944,
      "d": 335.93732083335635,
      "v": 73
    },
    {
      "midi": 59,
      "hit": false,
      "t": 222589.16699999946,
      "d": 75.8928166666592,
      "v": 111
    },
    {
      "midi": 63,
      "hit": false,
      "t": 222589.16699999946,
      "d": 168.52669583333773,
      "v": 111
    },
    {
      "midi": 56,
      "hit": false,
      "t": 222857.02399999948,
      "d": 315.8480458333215,
      "v": 100
    },
    {
      "midi": 61,
      "hit": false,
      "t": 222857.02399999948,
      "d": 371.651587499975,
      "v": 100
    },
    {
      "midi": 80,
      "hit": false,
      "t": 222862.60435416666,
      "d": 1749.9990666666708,
      "v": 110
    },
    {
      "midi": 85,
      "hit": false,
      "t": 222862.60435416666,
      "d": 1777.9008374999976,
      "v": 110
    },
    {
      "midi": 61,
      "hit": false,
      "t": 223258.80949999945,
      "d": 113.83922500000335,
      "v": 95
    },
    {
      "midi": 56,
      "hit": false,
      "t": 223258.80949999945,
      "d": 135.04457083332818,
      "v": 75
    },
    {
      "midi": 64,
      "hit": false,
      "t": 223258.80949999945,
      "d": 161.83027083333582,
      "v": 115
    },
    {
      "midi": 64,
      "hit": false,
      "t": 224330.23749999946,
      "d": 195.31239583334536,
      "v": 127
    },
    {
      "midi": 61,
      "hit": false,
      "t": 224330.23749999946,
      "d": 286.8302041666757,
      "v": 90
    },
    {
      "midi": 68,
      "hit": false,
      "t": 224464.16599999947,
      "d": 315.8480458333215,
      "v": 102
    },
    {
      "midi": 61,
      "hit": false,
      "t": 224732.02299999946,
      "d": 108.25887083332054,
      "v": 57
    },
    {
      "midi": 64,
      "hit": false,
      "t": 224732.02299999946,
      "d": 122.76779166664346,
      "v": 127
    },
    {
      "midi": 61,
      "hit": false,
      "t": 224999.87999999945,
      "d": 304.6873375000141,
      "v": 100
    },
    {
      "midi": 64,
      "hit": false,
      "t": 224999.87999999945,
      "d": 345.98195833334466,
      "v": 100
    },
    {
      "midi": 64,
      "hit": false,
      "t": 225401.66549999945,
      "d": 79.2410291666747,
      "v": 126
    },
    {
      "midi": 61,
      "hit": false,
      "t": 225401.66549999945,
      "d": 128.34814583335537,
      "v": 126
    },
    {
      "midi": 68,
      "hit": false,
      "t": 225401.66549999945,
      "d": 146.2052791666938,
      "v": 126
    },
    {
      "midi": 88,
      "hit": false,
      "t": 225541.17435416667,
      "d": 514.5086541666533,
      "v": 125
    },
    {
      "midi": 85,
      "hit": false,
      "t": 226076.88835416664,
      "d": 476.56224583333824,
      "v": 125
    },
    {
      "midi": 68,
      "hit": false,
      "t": 226473.09349999946,
      "d": 154.0177750000148,
      "v": 102
    },
    {
      "midi": 64,
      "hit": false,
      "t": 226473.09349999946,
      "d": 325.89268333333894,
      "v": 107
    },
    {
      "midi": 71,
      "hit": false,
      "t": 226607.02199999947,
      "d": 308.0355500000005,
      "v": 127
    },
    {
      "midi": 90,
      "hit": false,
      "t": 226612.60235416665,
      "d": 251.11593749999884,
      "v": 125
    },
    {
      "midi": 68,
      "hit": false,
      "t": 226874.87899999946,
      "d": 100.44637499999953,
      "v": 107
    },
    {
      "midi": 64,
      "hit": false,
      "t": 226874.87899999946,
      "d": 114.95529583332245,
      "v": 46
    },
    {
      "midi": 87,
      "hit": false,
      "t": 226880.45935416664,
      "d": 1577.0080874999985,
      "v": 125
    },
    {
      "midi": 63,
      "hit": false,
      "t": 227142.73599999945,
      "d": 362.7230208333349,
      "v": 96
    },
    {
      "midi": 59,
      "hit": false,
      "t": 227142.73599999945,
      "d": 630.5800208333239,
      "v": 96
    },
    {
      "midi": 66,
      "hit": false,
      "t": 227544.52149999945,
      "d": 218.7498833333375,
      "v": 122
    },
    {
      "midi": 63,
      "hit": false,
      "t": 228615.94949999943,
      "d": 164.06241250000312,
      "v": 127
    },
    {
      "midi": 59,
      "hit": false,
      "t": 228615.94949999943,
      "d": 560.2675583333184,
      "v": 122
    },
    {
      "midi": 66,
      "hit": false,
      "t": 228749.87799999944,
      "d": 267.85699999998906,
      "v": 127
    },
    {
      "midi": 64,
      "hit": false,
      "t": 229017.73499999943,
      "d": 213.16952916665468,
      "v": 115
    },
    {
      "midi": 85,
      "hit": false,
      "t": 229023.31535416664,
      "d": 267.85699999998906,
      "v": 116
    },
    {
      "midi": 63,
      "hit": false,
      "t": 229285.59199999942,
      "d": 343.74981666667736,
      "v": 100
    },
    {
      "midi": 59,
      "hit": false,
      "t": 229285.59199999942,
      "d": 444.1961916666769,
      "v": 100
    },
    {
      "midi": 83,
      "hit": false,
      "t": 229291.17235416663,
      "d": 1878.347212499997,
      "v": 113
    },
    {
      "midi": 66,
      "hit": false,
      "t": 229687.37749999942,
      "d": 109.37494166666875,
      "v": 127
    },
    {
      "midi": 63,
      "hit": false,
      "t": 230758.80549999943,
      "d": 175.22312083333964,
      "v": 118
    },
    {
      "midi": 59,
      "hit": false,
      "t": 230758.80549999943,
      "d": 559.1514874999993,
      "v": 118
    },
    {
      "midi": 66,
      "hit": false,
      "t": 230892.73399999944,
      "d": 302.4551958333177,
      "v": 127
    },
    {
      "midi": 63,
      "hit": false,
      "t": 231160.59099999943,
      "d": 191.96418333332986,
      "v": 92
    },
    {
      "midi": 59,
      "hit": false,
      "t": 231428.44799999942,
      "d": 189.73204166666255,
      "v": 100
    },
    {
      "midi": 61,
      "hit": false,
      "t": 231428.44799999942,
      "d": 232.1427333333413,
      "v": 100
    },
    {
      "midi": 64,
      "hit": false,
      "t": 231428.44799999942,
      "d": 314.7319750000024,
      "v": 100
    },
    {
      "midi": 85,
      "hit": false,
      "t": 231434.02835416663,
      "d": 1902.9007708333374,
      "v": 110
    },
    {
      "midi": 68,
      "hit": false,
      "t": 231830.23349999942,
      "d": 146.2052791666647,
      "v": 115
    },
    {
      "midi": 61,
      "hit": false,
      "t": 231830.23349999942,
      "d": 181.91954583334154,
      "v": 115
    },
    {
      "midi": 64,
      "hit": false,
      "t": 232901.66149999943,
      "d": 103.79458749998594,
      "v": 102
    },
    {
      "midi": 68,
      "hit": false,
      "t": 232901.66149999943,
      "d": 184.15168749997974,
      "v": 95
    },
    {
      "midi": 61,
      "hit": false,
      "t": 232901.66149999943,
      "d": 330.35696666664444,
      "v": 72
    },
    {
      "midi": 64,
      "hit": false,
      "t": 233035.5899999994,
      "d": 51.33925833331887,
      "v": 127
    },
    {
      "midi": 71,
      "hit": false,
      "t": 233035.5899999994,
      "d": 214.2856000000029,
      "v": 127
    },
    {
      "midi": 61,
      "hit": false,
      "t": 233303.4469999994,
      "d": 97.09816250001313,
      "v": 28
    },
    {
      "midi": 64,
      "hit": false,
      "t": 233303.4469999994,
      "d": 130.58028750002268,
      "v": 115
    },
    {
      "midi": 61,
      "hit": false,
      "t": 233571.30399999942,
      "d": 296.874841666664,
      "v": 100
    },
    {
      "midi": 64,
      "hit": false,
      "t": 233571.30399999942,
      "d": 338.16946249999455,
      "v": 100
    },
    {
      "midi": 64,
      "hit": false,
      "t": 233973.08949999942,
      "d": 69.19639166665729,
      "v": 122
    },
    {
      "midi": 68,
      "hit": false,
      "t": 233973.08949999942,
      "d": 148.437420833332,
      "v": 122
    },
    {
      "midi": 61,
      "hit": false,
      "t": 233973.08949999942,
      "d": 154.0177749999857,
      "v": 122
    },
    {
      "midi": 68,
      "hit": false,
      "t": 235044.5174999994,
      "d": 164.06241250000312,
      "v": 107
    },
    {
      "midi": 64,
      "hit": false,
      "t": 235044.5174999994,
      "d": 483.25867083336925,
      "v": 115
    },
    {
      "midi": 71,
      "hit": false,
      "t": 235178.4459999994,
      "d": 223.2141666666721,
      "v": 127
    },
    {
      "midi": 68,
      "hit": false,
      "t": 235446.30299999943,
      "d": 135.04457083332818,
      "v": 90
    },
    {
      "midi": 59,
      "hit": false,
      "t": 235714.15999999942,
      "d": 332.58910833334085,
      "v": 100
    },
    {
      "midi": 63,
      "hit": false,
      "t": 235714.15999999942,
      "d": 357.1426666666812,
      "v": 100
    },
    {
      "midi": 63,
      "hit": false,
      "t": 236115.94549999945,
      "d": 41.294620833330555,
      "v": 118
    },
    {
      "midi": 59,
      "hit": false,
      "t": 236115.94549999945,
      "d": 120.53565000000526,
      "v": 118
    },
    {
      "midi": 66,
      "hit": false,
      "t": 236115.94549999945,
      "d": 152.9017041666666,
      "v": 118
    },
    {
      "midi": 63,
      "hit": false,
      "t": 237187.37349999946,
      "d": 161.83027083333582,
      "v": 100
    },
    {
      "midi": 59,
      "hit": false,
      "t": 237187.37349999946,
      "d": 308.0355500000005,
      "v": 100
    },
    {
      "midi": 66,
      "hit": false,
      "t": 237321.30199999947,
      "d": 304.687337499985,
      "v": 127
    },
    {
      "midi": 63,
      "hit": false,
      "t": 237589.15899999946,
      "d": 113.83922500000335,
      "v": 102
    },
    {
      "midi": 61,
      "hit": false,
      "t": 237857.01599999945,
      "d": 324.77661249999073,
      "v": 100
    },
    {
      "midi": 64,
      "hit": false,
      "t": 237857.01599999945,
      "d": 332.58910833331174,
      "v": 100
    },
    {
      "midi": 61,
      "hit": false,
      "t": 238258.80149999942,
      "d": 90.40173750001122,
      "v": 122
    },
    {
      "midi": 64,
      "hit": false,
      "t": 238258.80149999942,
      "d": 91.51780833333032,
      "v": 122
    },
    {
      "midi": 68,
      "hit": false,
      "t": 238258.80149999942,
      "d": 117.18743749998976,
      "v": 122
    },
    {
      "midi": 64,
      "hit": false,
      "t": 239330.2294999994,
      "d": 164.06241250000312,
      "v": 122
    },
    {
      "midi": 61,
      "hit": false,
      "t": 239330.2294999994,
      "d": 254.46415000001434,
      "v": 75
    },
    {
      "midi": 68,
      "hit": false,
      "t": 239464.1579999994,
      "d": 304.6873375000141,
      "v": 127
    },
    {
      "midi": 61,
      "hit": false,
      "t": 239732.01499999943,
      "d": 73.6606749999919,
      "v": 46
    },
    {
      "midi": 64,
      "hit": false,
      "t": 239732.01499999943,
      "d": 94.86602083331672,
      "v": 107
    },
    {
      "midi": 66,
      "hit": false,
      "t": 239999.87199999942,
      "d": 330.35696666667354,
      "v": 100
    },
    {
      "midi": 59,
      "hit": false,
      "t": 239999.87199999942,
      "d": 345.98195833334466,
      "v": 100
    },
    {
      "midi": 63,
      "hit": false,
      "t": 239999.87199999942,
      "d": 526.785433333338,
      "v": 100
    },
    {
      "midi": 59,
      "hit": false,
      "t": 240401.65749999942,
      "d": 81.47317083334201,
      "v": 122
    },
    {
      "midi": 71,
      "hit": false,
      "t": 240401.65749999942,
      "d": 204.24096250001458,
      "v": 122
    },
    {
      "midi": 63,
      "hit": false,
      "t": 241473.08549999943,
      "d": 146.2052791666647,
      "v": 61
    },
    {
      "midi": 59,
      "hit": false,
      "t": 241473.08549999943,
      "d": 252.23200833331794,
      "v": 80
    },
    {
      "midi": 66,
      "hit": false,
      "t": 241473.08549999943,
      "d": 381.6962249999924,
      "v": 107
    },
    {
      "midi": 61,
      "hit": false,
      "t": 242142.72799999942,
      "d": 324.77661249999073,
      "v": 100
    },
    {
      "midi": 64,
      "hit": false,
      "t": 242142.72799999942,
      "d": 343.74981666664826,
      "v": 100
    },
    {
      "midi": 64,
      "hit": false,
      "t": 242544.5134999994,
      "d": 61.38389583333628,
      "v": 115
    },
    {
      "midi": 61,
      "hit": false,
      "t": 242544.5134999994,
      "d": 100.44637499999953,
      "v": 87
    },
    {
      "midi": 68,
      "hit": false,
      "t": 242544.5134999994,
      "d": 140.624925000011,
      "v": 95
    },
    {
      "midi": 64,
      "hit": false,
      "t": 243615.9414999994,
      "d": 147.3213500000129,
      "v": 111
    },
    {
      "midi": 61,
      "hit": false,
      "t": 243615.9414999994,
      "d": 262.27664583333535,
      "v": 111
    },
    {
      "midi": 68,
      "hit": false,
      "t": 243749.8699999994,
      "d": 312.4998333333351,
      "v": 127
    },
    {
      "midi": 64,
      "hit": false,
      "t": 244017.7269999994,
      "d": 97.09816250001313,
      "v": 122
    },
    {
      "midi": 61,
      "hit": false,
      "t": 244017.7269999994,
      "d": 102.67851666666684,
      "v": 46
    },
    {
      "midi": 59,
      "hit": false,
      "t": 244285.5839999994,
      "d": 304.6873375000141,
      "v": 100
    },
    {
      "midi": 63,
      "hit": false,
      "t": 244285.5839999994,
      "d": 348.21410000001197,
      "v": 100
    },
    {
      "midi": 59,
      "hit": false,
      "t": 244687.3694999994,
      "d": 69.19639166665729,
      "v": 100
    },
    {
      "midi": 63,
      "hit": false,
      "t": 244687.3694999994,
      "d": 94.86602083331672,
      "v": 82
    },
    {
      "midi": 66,
      "hit": false,
      "t": 244687.3694999994,
      "d": 111.60708333330695,
      "v": 122
    },
    {
      "midi": 63,
      "hit": false,
      "t": 245758.79749999937,
      "d": 180.80347500002244,
      "v": 102
    },
    {
      "midi": 59,
      "hit": false,
      "t": 245758.79749999937,
      "d": 287.9462750000239,
      "v": 102
    },
    {
      "midi": 66,
      "hit": false,
      "t": 245892.72599999938,
      "d": 335.93732083335635,
      "v": 127
    },
    {
      "midi": 59,
      "hit": false,
      "t": 246160.5829999994,
      "d": 45.75890416666516,
      "v": 41
    },
    {
      "midi": 63,
      "hit": false,
      "t": 246160.5829999994,
      "d": 123.88386249999166,
      "v": 105
    },
    {
      "midi": 61,
      "hit": false,
      "t": 246428.4399999994,
      "d": 332.58910833334085,
      "v": 100
    },
    {
      "midi": 64,
      "hit": false,
      "t": 246428.4399999994,
      "d": 362.7230208333349,
      "v": 100
    },
    {
      "midi": 64,
      "hit": false,
      "t": 246830.2254999994,
      "d": 73.6606749999919,
      "v": 122
    },
    {
      "midi": 61,
      "hit": false,
      "t": 246830.2254999994,
      "d": 90.40173749998212,
      "v": 122
    },
    {
      "midi": 68,
      "hit": false,
      "t": 246830.2254999994,
      "d": 118.30350833330886,
      "v": 122
    },
    {
      "midi": 64,
      "hit": false,
      "t": 247901.65349999937,
      "d": 178.57133333335514,
      "v": 115
    },
    {
      "midi": 61,
      "hit": false,
      "t": 247901.65349999937,
      "d": 290.1784166666912,
      "v": 115
    },
    {
      "midi": 68,
      "hit": false,
      "t": 248035.58199999938,
      "d": 332.58910833334085,
      "v": 127
    },
    {
      "midi": 64,
      "hit": false,
      "t": 248303.4389999994,
      "d": 97.09816249998403,
      "v": 107
    },
    {
      "midi": 61,
      "hit": false,
      "t": 248303.4389999994,
      "d": 120.53564999997616,
      "v": 61
    },
    {
      "midi": 59,
      "hit": false,
      "t": 248571.2959999994,
      "d": 313.6159041666542,
      "v": 100
    },
    {
      "midi": 63,
      "hit": false,
      "t": 248571.2959999994,
      "d": 330.35696666664444,
      "v": 100
    },
    {
      "midi": 63,
      "hit": false,
      "t": 248973.08149999936,
      "d": 33.482125000009546,
      "v": 63
    },
    {
      "midi": 66,
      "hit": false,
      "t": 248973.08149999936,
      "d": 112.72315416668425,
      "v": 127
    },
    {
      "midi": 59,
      "hit": false,
      "t": 248973.08149999936,
      "d": 117.18743750001886,
      "v": 102
    },
    {
      "midi": 63,
      "hit": false,
      "t": 250044.50949999937,
      "d": 94.86602083334583,
      "v": 92
    },
    {
      "midi": 59,
      "hit": false,
      "t": 250044.50949999937,
      "d": 457.5890416666516,
      "v": 100
    },
    {
      "midi": 66,
      "hit": false,
      "t": 250178.43799999938,
      "d": 306.9194791666523,
      "v": 126
    },
    {
      "midi": 63,
      "hit": false,
      "t": 250446.29499999937,
      "d": 106.02672916665324,
      "v": 107
    },
    {
      "midi": 57,
      "hit": false,
      "t": 250714.15199999936,
      "d": 286.8302041666757,
      "v": 100
    },
    {
      "midi": 61,
      "hit": false,
      "t": 250714.15199999936,
      "d": 312.4998333333351,
      "v": 100
    },
    {
      "midi": 61,
      "hit": false,
      "t": 251115.93749999936,
      "d": 137.27671249999548,
      "v": 127
    },
    {
      "midi": 64,
      "hit": false,
      "t": 251115.93749999936,
      "d": 158.4820583333203,
      "v": 127
    },
    {
      "midi": 57,
      "hit": false,
      "t": 251115.93749999936,
      "d": 164.06241249997402,
      "v": 122
    },
    {
      "midi": 88,
      "hit": false,
      "t": 251255.44635416663,
      "d": 507.8122291666805,
      "v": 125
    },
    {
      "midi": 85,
      "hit": false,
      "t": 251791.16035416664,
      "d": 398.43728750001173,
      "v": 125
    },
    {
      "midi": 64,
      "hit": false,
      "t": 252187.36549999935,
      "d": 174.10705000002054,
      "v": 127
    },
    {
      "midi": 61,
      "hit": false,
      "t": 252187.36549999935,
      "d": 334.82125000000815,
      "v": 97
    },
    {
      "midi": 68,
      "hit": false,
      "t": 252321.29399999935,
      "d": 236.60701666667592,
      "v": 105
    },
    {
      "midi": 90,
      "hit": false,
      "t": 252326.87435416665,
      "d": 231.0266624999931,
      "v": 125
    },
    {
      "midi": 61,
      "hit": false,
      "t": 252589.15099999937,
      "d": 74.7767458333401,
      "v": 28
    },
    {
      "midi": 64,
      "hit": false,
      "t": 252589.15099999937,
      "d": 128.34814583332627,
      "v": 127
    },
    {
      "midi": 88,
      "hit": false,
      "t": 252594.73135416664,
      "d": 2168.525629166659,
      "v": 125
    },
    {
      "midi": 64,
      "hit": false,
      "t": 252857.00799999936,
      "d": 308.0355500000005,
      "v": 100
    },
    {
      "midi": 59,
      "hit": false,
      "t": 252857.00799999936,
      "d": 314.7319750000024,
      "v": 100
    },
    {
      "midi": 59,
      "hit": false,
      "t": 253258.79349999936,
      "d": 90.40173750001122,
      "v": 107
    },
    {
      "midi": 64,
      "hit": false,
      "t": 253258.79349999936,
      "d": 117.18743750001886,
      "v": 127
    },
    {
      "midi": 68,
      "hit": false,
      "t": 253258.79349999936,
      "d": 137.2767125000246,
      "v": 107
    },
    {
      "midi": 68,
      "hit": false,
      "t": 254330.22149999937,
      "d": 176.33919166668784,
      "v": 127
    },
    {
      "midi": 64,
      "hit": false,
      "t": 254330.22149999937,
      "d": 330.35696666667354,
      "v": 127
    },
    {
      "midi": 71,
      "hit": false,
      "t": 254464.14999999938,
      "d": 321.4283999999752,
      "v": 127
    },
    {
      "midi": 64,
      "hit": false,
      "t": 254732.00699999937,
      "d": 47.991045833332464,
      "v": 62
    },
    {
      "midi": 68,
      "hit": false,
      "t": 254732.00699999937,
      "d": 101.56244583331863,
      "v": 105
    },
    {
      "midi": 63,
      "hit": false,
      "t": 254999.86399999936,
      "d": 414.06227916665375,
      "v": 100
    },
    {
      "midi": 59,
      "hit": false,
      "t": 254999.86399999936,
      "d": 543.5264958333282,
      "v": 100
    },
    {
      "midi": 83,
      "hit": false,
      "t": 255005.44435416663,
      "d": 1691.963383333321,
      "v": 113
    },
    {
      "midi": 66,
      "hit": false,
      "t": 255401.64949999936,
      "d": 167.41062499998952,
      "v": 122
    },
    {
      "midi": 63,
      "hit": false,
      "t": 256473.07749999934,
      "d": 117.18743749998976,
      "v": 127
    },
    {
      "midi": 59,
      "hit": false,
      "t": 256473.07749999934,
      "d": 302.4551958333177,
      "v": 127
    },
    {
      "midi": 66,
      "hit": false,
      "t": 256607.00599999932,
      "d": 335.93732083335635,
      "v": 73
    },
    {
      "midi": 59,
      "hit": false,
      "t": 256874.86299999934,
      "d": 75.8928166666592,
      "v": 111
    },
    {
      "midi": 63,
      "hit": false,
      "t": 256874.86299999934,
      "d": 168.52669583333773,
      "v": 111
    },
    {
      "midi": 56,
      "hit": false,
      "t": 257142.71999999936,
      "d": 315.8480458333215,
      "v": 100
    },
    {
      "midi": 61,
      "hit": false,
      "t": 257142.71999999936,
      "d": 371.651587499975,
      "v": 100
    },
    {
      "midi": 80,
      "hit": false,
      "t": 257148.30035416663,
      "d": 1749.9990666666708,
      "v": 110
    },
    {
      "midi": 85,
      "hit": false,
      "t": 257148.30035416663,
      "d": 1777.9008374999976,
      "v": 110
    },
    {
      "midi": 61,
      "hit": false,
      "t": 257544.50549999933,
      "d": 113.83922500000335,
      "v": 95
    },
    {
      "midi": 56,
      "hit": false,
      "t": 257544.50549999933,
      "d": 135.04457083332818,
      "v": 75
    },
    {
      "midi": 64,
      "hit": false,
      "t": 257544.50549999933,
      "d": 161.83027083333582,
      "v": 115
    },
    {
      "midi": 64,
      "hit": false,
      "t": 258615.93349999934,
      "d": 195.31239583334536,
      "v": 127
    },
    {
      "midi": 61,
      "hit": false,
      "t": 258615.93349999934,
      "d": 286.8302041666757,
      "v": 90
    },
    {
      "midi": 68,
      "hit": false,
      "t": 258749.86199999935,
      "d": 315.8480458333215,
      "v": 102
    },
    {
      "midi": 61,
      "hit": false,
      "t": 259017.71899999934,
      "d": 108.25887083332054,
      "v": 57
    },
    {
      "midi": 64,
      "hit": false,
      "t": 259017.71899999934,
      "d": 122.76779166664346,
      "v": 127
    },
    {
      "midi": 61,
      "hit": false,
      "t": 259285.57599999933,
      "d": 304.687337499985,
      "v": 100
    },
    {
      "midi": 64,
      "hit": false,
      "t": 259285.57599999933,
      "d": 345.98195833331556,
      "v": 100
    },
    {
      "midi": 64,
      "hit": false,
      "t": 259687.36149999933,
      "d": 79.2410291666747,
      "v": 126
    },
    {
      "midi": 61,
      "hit": false,
      "t": 259687.36149999933,
      "d": 128.34814583335537,
      "v": 126
    },
    {
      "midi": 68,
      "hit": false,
      "t": 259687.36149999933,
      "d": 146.2052791666647,
      "v": 126
    },
    {
      "midi": 88,
      "hit": false,
      "t": 259826.87035416663,
      "d": 514.5086541666824,
      "v": 125
    },
    {
      "midi": 85,
      "hit": false,
      "t": 260362.58435416664,
      "d": 476.56224583333824,
      "v": 125
    },
    {
      "midi": 68,
      "hit": false,
      "t": 260758.78949999932,
      "d": 154.0177750000148,
      "v": 102
    },
    {
      "midi": 64,
      "hit": false,
      "t": 260758.78949999932,
      "d": 325.89268333333894,
      "v": 107
    },
    {
      "midi": 71,
      "hit": false,
      "t": 260892.71799999932,
      "d": 308.0355500000005,
      "v": 127
    },
    {
      "midi": 90,
      "hit": false,
      "t": 260898.29835416665,
      "d": 251.11593749999884,
      "v": 125
    },
    {
      "midi": 68,
      "hit": false,
      "t": 261160.5749999993,
      "d": 100.44637499999953,
      "v": 107
    },
    {
      "midi": 64,
      "hit": false,
      "t": 261160.5749999993,
      "d": 114.95529583332245,
      "v": 46
    },
    {
      "midi": 87,
      "hit": false,
      "t": 261166.15535416664,
      "d": 1577.0080874999403,
      "v": 125
    },
    {
      "midi": 63,
      "hit": false,
      "t": 261428.4319999993,
      "d": 362.7230208333349,
      "v": 96
    },
    {
      "midi": 59,
      "hit": false,
      "t": 261428.4319999993,
      "d": 630.5800208333239,
      "v": 96
    },
    {
      "midi": 66,
      "hit": false,
      "t": 261830.2174999993,
      "d": 218.7498833333375,
      "v": 122
    },
    {
      "midi": 63,
      "hit": false,
      "t": 262901.6454999992,
      "d": 164.06241249997402,
      "v": 127
    },
    {
      "midi": 59,
      "hit": false,
      "t": 262901.6454999992,
      "d": 560.2675583332893,
      "v": 122
    },
    {
      "midi": 66,
      "hit": false,
      "t": 263035.5739999992,
      "d": 267.85699999995995,
      "v": 127
    },
    {
      "midi": 64,
      "hit": false,
      "t": 263303.43099999917,
      "d": 213.16952916665468,
      "v": 115
    },
    {
      "midi": 85,
      "hit": false,
      "t": 263309.01135416655,
      "d": 267.85700000001816,
      "v": 116
    },
    {
      "midi": 63,
      "hit": false,
      "t": 263571.2879999991,
      "d": 343.74981666664826,
      "v": 100
    },
    {
      "midi": 59,
      "hit": false,
      "t": 263571.2879999991,
      "d": 444.1961916666478,
      "v": 100
    },
    {
      "midi": 83,
      "hit": false,
      "t": 263576.86835416657,
      "d": 1878.3472124998225,
      "v": 113
    },
    {
      "midi": 66,
      "hit": false,
      "t": 263973.0734999991,
      "d": 109.37494166666875,
      "v": 127
    },
    {
      "midi": 63,
      "hit": false,
      "t": 265044.5014999991,
      "d": 175.22312083333964,
      "v": 118
    },
    {
      "midi": 59,
      "hit": false,
      "t": 265044.5014999991,
      "d": 559.1514874999993,
      "v": 118
    },
    {
      "midi": 66,
      "hit": false,
      "t": 265178.42999999906,
      "d": 302.4551958333468,
      "v": 127
    },
    {
      "midi": 63,
      "hit": false,
      "t": 265446.2869999991,
      "d": 191.96418333332986,
      "v": 92
    },
    {
      "midi": 59,
      "hit": false,
      "t": 265714.1439999991,
      "d": 189.73204166669166,
      "v": 100
    },
    {
      "midi": 61,
      "hit": false,
      "t": 265714.1439999991,
      "d": 232.1427333333413,
      "v": 100
    },
    {
      "midi": 64,
      "hit": false,
      "t": 265714.1439999991,
      "d": 314.7319750000024,
      "v": 100
    },
    {
      "midi": 85,
      "hit": false,
      "t": 265719.72435416636,
      "d": 1902.9007708333666,
      "v": 110
    },
    {
      "midi": 68,
      "hit": false,
      "t": 266115.9294999991,
      "d": 146.2052791666938,
      "v": 115
    },
    {
      "midi": 61,
      "hit": false,
      "t": 266115.9294999991,
      "d": 181.91954583337065,
      "v": 115
    },
    {
      "midi": 64,
      "hit": false,
      "t": 267187.35749999917,
      "d": 103.79458750004414,
      "v": 102
    },
    {
      "midi": 68,
      "hit": false,
      "t": 267187.35749999917,
      "d": 184.15168750006706,
      "v": 95
    },
    {
      "midi": 61,
      "hit": false,
      "t": 267187.35749999917,
      "d": 330.35696666676085,
      "v": 72
    },
    {
      "midi": 64,
      "hit": false,
      "t": 267321.2859999992,
      "d": 51.339258333377074,
      "v": 127
    },
    {
      "midi": 71,
      "hit": false,
      "t": 267321.2859999992,
      "d": 214.2856000000611,
      "v": 127
    },
    {
      "midi": 61,
      "hit": false,
      "t": 267589.1429999993,
      "d": 97.09816250001313,
      "v": 28
    },
    {
      "midi": 64,
      "hit": false,
      "t": 267589.1429999993,
      "d": 130.58028749999357,
      "v": 115
    }
  ]
}