{
  "jsonPath": "Pop/Italian Pop/Lucio Battisti/nessun-dolore.json",
  "path": "Pop\\Italian Pop\\Lucio Battisti\\Nessun Dolore.mid",
  "name": "Nessun Dolore",
  "difficulty": "Advanced",
  "bpm": 119.0003966679889,
  "notes": [
    {
      "midi": 48,
      "hit": false,
      "t": 2027.3041666666663,
      "d": 1263.1260416666664,
      "v": 87
    },
    {
      "midi": 55,
      "hit": false,
      "t": 2027.3041666666663,
      "d": 1263.1260416666664,
      "v": 35
    },
    {
      "midi": 64,
      "hit": false,
      "t": 2027.3041666666663,
      "d": 1263.1260416666664,
      "v": 91
    },
    {
      "midi": 65,
      "hit": false,
      "t": 3264.1697916666662,
      "d": 254.72604166666633,
      "v": 91
    },
    {
      "midi": 49,
      "hit": false,
      "t": 3290.4302083333328,
      "d": 228.46562499999982,
      "v": 79
    },
    {
      "midi": 56,
      "hit": false,
      "t": 3290.4302083333328,
      "d": 244.22187499999973,
      "v": 35
    },
    {
      "midi": 50,
      "hit": false,
      "t": 3518.8958333333326,
      "d": 254.72604166666633,
      "v": 83
    },
    {
      "midi": 57,
      "hit": false,
      "t": 3518.8958333333326,
      "d": 254.72604166666633,
      "v": 35
    },
    {
      "midi": 66,
      "hit": false,
      "t": 3518.8958333333326,
      "d": 254.72604166666633,
      "v": 75
    },
    {
      "midi": 58,
      "hit": false,
      "t": 3773.621874999999,
      "d": 2261.0218750000004,
      "v": 35
    },
    {
      "midi": 51,
      "hit": false,
      "t": 3773.621874999999,
      "d": 2289.9083333333338,
      "v": 83
    },
    {
      "midi": 67,
      "hit": false,
      "t": 3773.621874999999,
      "d": 2289.9083333333338,
      "v": 83
    },
    {
      "midi": 66,
      "hit": false,
      "t": 6034.643749999999,
      "d": 1236.8656250000004,
      "v": 83
    },
    {
      "midi": 50,
      "hit": false,
      "t": 6063.530208333333,
      "d": 1207.979166666667,
      "v": 91
    },
    {
      "midi": 57,
      "hit": false,
      "t": 6063.530208333333,
      "d": 1207.979166666667,
      "v": 35
    },
    {
      "midi": 51,
      "hit": false,
      "t": 7308.273958333333,
      "d": 249.47395833333303,
      "v": 79
    },
    {
      "midi": 58,
      "hit": false,
      "t": 7308.273958333333,
      "d": 249.47395833333303,
      "v": 35
    },
    {
      "midi": 67,
      "hit": false,
      "t": 7308.273958333333,
      "d": 249.47395833333303,
      "v": 83
    },
    {
      "midi": 50,
      "hit": false,
      "t": 7557.747916666666,
      "d": 252.10000000000036,
      "v": 83
    },
    {
      "midi": 57,
      "hit": false,
      "t": 7557.747916666666,
      "d": 252.10000000000036,
      "v": 35
    },
    {
      "midi": 66,
      "hit": false,
      "t": 7557.747916666666,
      "d": 252.10000000000036,
      "v": 71
    },
    {
      "midi": 49,
      "hit": false,
      "t": 7809.847916666667,
      "d": 2289.9083333333338,
      "v": 63
    },
    {
      "midi": 56,
      "hit": false,
      "t": 7809.847916666667,
      "d": 2289.9083333333338,
      "v": 35
    },
    {
      "midi": 65,
      "hit": false,
      "t": 7809.847916666667,
      "d": 2310.916666666667,
      "v": 75
    },
    {
      "midi": 72,
      "hit": false,
      "t": 8805.117708333333,
      "d": 1315.6468750000004,
      "v": 51
    },
    {
      "midi": 77,
      "hit": false,
      "t": 9327.7,
      "d": 772.0562499999996,
      "v": 43
    },
    {
      "midi": 55,
      "hit": false,
      "t": 10099.75625,
      "d": 1202.7270833333332,
      "v": 35
    },
    {
      "midi": 48,
      "hit": false,
      "t": 10099.75625,
      "d": 1221.109375,
      "v": 87
    },
    {
      "midi": 64,
      "hit": false,
      "t": 10099.75625,
      "d": 1221.109375,
      "v": 91
    },
    {
      "midi": 56,
      "hit": false,
      "t": 11320.865625,
      "d": 283.6124999999993,
      "v": 35
    },
    {
      "midi": 49,
      "hit": false,
      "t": 11349.752083333333,
      "d": 254.7260416666668,
      "v": 83
    },
    {
      "midi": 65,
      "hit": false,
      "t": 11349.752083333333,
      "d": 254.7260416666668,
      "v": 83
    },
    {
      "midi": 50,
      "hit": false,
      "t": 11583.469791666666,
      "d": 265.2302083333325,
      "v": 79
    },
    {
      "midi": 57,
      "hit": false,
      "t": 11604.478125,
      "d": 202.20520833333285,
      "v": 35
    },
    {
      "midi": 66,
      "hit": false,
      "t": 11604.478125,
      "d": 244.22187499999927,
      "v": 67
    },
    {
      "midi": 51,
      "hit": false,
      "t": 11835.569791666665,
      "d": 498.94791666666606,
      "v": 79
    },
    {
      "midi": 58,
      "hit": false,
      "t": 11848.699999999999,
      "d": 438.54895833333285,
      "v": 35
    },
    {
      "midi": 67,
      "hit": false,
      "t": 11848.699999999999,
      "d": 504.1999999999989,
      "v": 75
    },
    {
      "midi": 52,
      "hit": false,
      "t": 12334.517708333331,
      "d": 270.48229166666715,
      "v": 83
    },
    {
      "midi": 59,
      "hit": false,
      "t": 12334.517708333331,
      "d": 270.48229166666715,
      "v": 35
    },
    {
      "midi": 68,
      "hit": false,
      "t": 12334.517708333331,
      "d": 270.48229166666715,
      "v": 71
    },
    {
      "midi": 60,
      "hit": false,
      "t": 12604.999999999998,
      "d": 228.46562500000073,
      "v": 35
    },
    {
      "midi": 53,
      "hit": false,
      "t": 12604.999999999998,
      "d": 267.8562500000007,
      "v": 79
    },
    {
      "midi": 69,
      "hit": false,
      "t": 12604.999999999998,
      "d": 267.8562500000007,
      "v": 71
    },
    {
      "midi": 54,
      "hit": false,
      "t": 12872.856249999999,
      "d": 480.5656249999993,
      "v": 83
    },
    {
      "midi": 61,
      "hit": false,
      "t": 12872.856249999999,
      "d": 480.5656249999993,
      "v": 35
    },
    {
      "midi": 70,
      "hit": false,
      "t": 12872.856249999999,
      "d": 480.5656249999993,
      "v": 75
    },
    {
      "midi": 63,
      "hit": false,
      "t": 13353.421874999998,
      "d": 194.32708333333358,
      "v": 35
    },
    {
      "midi": 56,
      "hit": false,
      "t": 13353.421874999998,
      "d": 259.97812499999964,
      "v": 71
    },
    {
      "midi": 72,
      "hit": false,
      "t": 13353.421874999998,
      "d": 259.97812499999964,
      "v": 71
    },
    {
      "midi": 61,
      "hit": false,
      "t": 13613.399999999998,
      "d": 462.1833333333325,
      "v": 35
    },
    {
      "midi": 70,
      "hit": false,
      "t": 13613.399999999998,
      "d": 485.8177083333321,
      "v": 59
    },
    {
      "midi": 54,
      "hit": false,
      "t": 13613.399999999998,
      "d": 506.82604166666533,
      "v": 59
    },
    {
      "midi": 69,
      "hit": false,
      "t": 14099.21770833333,
      "d": 1257.8739583333336,
      "v": 63
    },
    {
      "midi": 53,
      "hit": false,
      "t": 14120.226041666663,
      "d": 1777.8302083333328,
      "v": 55
    },
    {
      "midi": 60,
      "hit": false,
      "t": 14120.226041666663,
      "d": 1777.8302083333328,
      "v": 35
    },
    {
      "midi": 72,
      "hit": false,
      "t": 15357.091666666664,
      "d": 275.734375,
      "v": 63
    },
    {
      "midi": 69,
      "hit": false,
      "t": 15609.191666666664,
      "d": 288.8645833333321,
      "v": 63
    },
    {
      "midi": 52,
      "hit": false,
      "t": 15898.056249999996,
      "d": 504.1999999999989,
      "v": 75
    },
    {
      "midi": 59,
      "hit": false,
      "t": 15898.056249999996,
      "d": 504.1999999999989,
      "v": 35
    },
    {
      "midi": 68,
      "hit": false,
      "t": 15898.056249999996,
      "d": 504.1999999999989,
      "v": 55
    },
    {
      "midi": 58,
      "hit": false,
      "t": 16402.256249999995,
      "d": 425.4187500000007,
      "v": 35
    },
    {
      "midi": 51,
      "hit": false,
      "t": 16402.256249999995,
      "d": 506.82604166666715,
      "v": 71
    },
    {
      "midi": 67,
      "hit": false,
      "t": 16402.256249999995,
      "d": 506.82604166666715,
      "v": 75
    },
    {
      "midi": 66,
      "hit": false,
      "t": 16909.082291666662,
      "d": 464.8093750000007,
      "v": 75
    },
    {
      "midi": 50,
      "hit": false,
      "t": 16909.082291666662,
      "d": 488.4437500000022,
      "v": 83
    },
    {
      "midi": 57,
      "hit": false,
      "t": 16909.082291666662,
      "d": 488.4437500000022,
      "v": 35
    },
    {
      "midi": 65,
      "hit": false,
      "t": 17397.526041666664,
      "d": 438.54895833333285,
      "v": 63
    },
    {
      "midi": 49,
      "hit": false,
      "t": 17397.526041666664,
      "d": 456.9312499999978,
      "v": 75
    },
    {
      "midi": 56,
      "hit": false,
      "t": 17397.526041666664,
      "d": 456.9312499999978,
      "v": 35
    },
    {
      "midi": 49,
      "hit": false,
      "t": 17880.71770833333,
      "d": 231.09166666666715,
      "v": 79
    },
    {
      "midi": 65,
      "hit": false,
      "t": 17880.71770833333,
      "d": 231.09166666666715,
      "v": 79
    },
    {
      "midi": 56,
      "hit": false,
      "t": 17880.71770833333,
      "d": 249.47395833333212,
      "v": 35
    },
    {
      "midi": 55,
      "hit": false,
      "t": 18166.956249999996,
      "d": 1202.7270833333314,
      "v": 35
    },
    {
      "midi": 48,
      "hit": false,
      "t": 18166.956249999996,
      "d": 1255.2479166666672,
      "v": 87
    },
    {
      "midi": 64,
      "hit": false,
      "t": 18166.956249999996,
      "d": 1255.2479166666672,
      "v": 91
    },
    {
      "midi": 56,
      "hit": false,
      "t": 19398.56979166666,
      "d": 220.58750000000146,
      "v": 35
    },
    {
      "midi": 65,
      "hit": false,
      "t": 19398.56979166666,
      "d": 257.35208333333503,
      "v": 91
    },
    {
      "midi": 49,
      "hit": false,
      "t": 19422.204166666663,
      "d": 233.71770833333358,
      "v": 79
    },
    {
      "midi": 50,
      "hit": false,
      "t": 19655.921874999996,
      "d": 244.22187499999927,
      "v": 83
    },
    {
      "midi": 57,
      "hit": false,
      "t": 19655.921874999996,
      "d": 244.22187499999927,
      "v": 35
    },
    {
      "midi": 66,
      "hit": false,
      "t": 19655.921874999996,
      "d": 244.22187499999927,
      "v": 75
    },
    {
      "midi": 51,
      "hit": false,
      "t": 19900.143749999996,
      "d": 2300.412500000002,
      "v": 83
    },
    {
      "midi": 58,
      "hit": false,
      "t": 19900.143749999996,
      "d": 2300.412500000002,
      "v": 35
    },
    {
      "midi": 67,
      "hit": false,
      "t": 19900.143749999996,
      "d": 2300.412500000002,
      "v": 83
    },
    {
      "midi": 66,
      "hit": false,
      "t": 22169.043749999997,
      "d": 1236.8656250000022,
      "v": 83
    },
    {
      "midi": 50,
      "hit": false,
      "t": 22200.556249999998,
      "d": 1205.3531250000015,
      "v": 91
    },
    {
      "midi": 57,
      "hit": false,
      "t": 22200.556249999998,
      "d": 1205.3531250000015,
      "v": 35
    },
    {
      "midi": 51,
      "hit": false,
      "t": 23437.421875,
      "d": 254.72604166666497,
      "v": 79
    },
    {
      "midi": 58,
      "hit": false,
      "t": 23437.421875,
      "d": 254.72604166666497,
      "v": 35
    },
    {
      "midi": 67,
      "hit": false,
      "t": 23437.421875,
      "d": 254.72604166666497,
      "v": 83
    },
    {
      "midi": 57,
      "hit": false,
      "t": 23692.147916666665,
      "d": 217.96145833333503,
      "v": 35
    },
    {
      "midi": 50,
      "hit": false,
      "t": 23692.147916666665,
      "d": 252.10000000000218,
      "v": 83
    },
    {
      "midi": 66,
      "hit": false,
      "t": 23692.147916666665,
      "d": 252.10000000000218,
      "v": 71
    },
    {
      "midi": 56,
      "hit": false,
      "t": 23944.247916666667,
      "d": 2289.908333333329,
      "v": 35
    },
    {
      "midi": 49,
      "hit": false,
      "t": 23944.247916666667,
      "d": 2303.0385416666613,
      "v": 63
    },
    {
      "midi": 65,
      "hit": false,
      "t": 23944.247916666667,
      "d": 2316.1687499999935,
      "v": 75
    },
    {
      "midi": 72,
      "hit": false,
      "t": 24936.891666666666,
      "d": 1323.5249999999942,
      "v": 51
    },
    {
      "midi": 77,
      "hit": false,
      "t": 25467.35208333333,
      "d": 779.9343749999971,
      "v": 43
    },
    {
      "midi": 48,
      "hit": false,
      "t": 26234.156249999996,
      "d": 1205.3531249999978,
      "v": 87
    },
    {
      "midi": 64,
      "hit": false,
      "t": 26234.156249999996,
      "d": 1226.3614583333328,
      "v": 91
    },
    {
      "midi": 55,
      "hit": false,
      "t": 26247.28645833333,
      "d": 1192.2229166666657,
      "v": 35
    },
    {
      "midi": 56,
      "hit": false,
      "t": 27460.51770833333,
      "d": 262.6041666666679,
      "v": 35
    },
    {
      "midi": 49,
      "hit": false,
      "t": 27481.526041666664,
      "d": 241.59583333333285,
      "v": 83
    },
    {
      "midi": 65,
      "hit": false,
      "t": 27481.526041666664,
      "d": 241.59583333333285,
      "v": 83
    },
    {
      "midi": 50,
      "hit": false,
      "t": 27723.121874999997,
      "d": 262.60416666666424,
      "v": 79
    },
    {
      "midi": 57,
      "hit": false,
      "t": 27723.121874999997,
      "d": 262.60416666666424,
      "v": 35
    },
    {
      "midi": 66,
      "hit": false,
      "t": 27723.121874999997,
      "d": 262.60416666666424,
      "v": 67
    },
    {
      "midi": 51,
      "hit": false,
      "t": 27967.343749999996,
      "d": 522.5822916666621,
      "v": 79
    },
    {
      "midi": 58,
      "hit": false,
      "t": 27985.72604166666,
      "d": 504.1999999999971,
      "v": 35
    },
    {
      "midi": 67,
      "hit": false,
      "t": 27985.72604166666,
      "d": 504.1999999999971,
      "v": 75
    },
    {
      "midi": 52,
      "hit": false,
      "t": 28476.795833333326,
      "d": 280.98645833333285,
      "v": 83
    },
    {
      "midi": 59,
      "hit": false,
      "t": 28489.92604166666,
      "d": 228.46562500000073,
      "v": 35
    },
    {
      "midi": 68,
      "hit": false,
      "t": 28489.92604166666,
      "d": 267.8562500000007,
      "v": 71
    },
    {
      "midi": 60,
      "hit": false,
      "t": 28757.78229166666,
      "d": 212.70937499999854,
      "v": 35
    },
    {
      "midi": 53,
      "hit": false,
      "t": 28757.78229166666,
      "d": 238.96979166666642,
      "v": 79
    },
    {
      "midi": 69,
      "hit": false,
      "t": 28757.78229166666,
      "d": 238.96979166666642,
      "v": 71
    },
    {
      "midi": 54,
      "hit": false,
      "t": 28996.752083333326,
      "d": 504.1999999999971,
      "v": 83
    },
    {
      "midi": 61,
      "hit": false,
      "t": 28996.752083333326,
      "d": 504.1999999999971,
      "v": 35
    },
    {
      "midi": 70,
      "hit": false,
      "t": 28996.752083333326,
      "d": 504.1999999999971,
      "v": 75
    },
    {
      "midi": 56,
      "hit": false,
      "t": 29487.82187499999,
      "d": 241.59583333333285,
      "v": 71
    },
    {
      "midi": 63,
      "hit": false,
      "t": 29487.82187499999,
      "d": 241.59583333333285,
      "v": 35
    },
    {
      "midi": 72,
      "hit": false,
      "t": 29487.82187499999,
      "d": 241.59583333333285,
      "v": 71
    },
    {
      "midi": 54,
      "hit": false,
      "t": 29729.417708333323,
      "d": 540.9645833333343,
      "v": 59
    },
    {
      "midi": 61,
      "hit": false,
      "t": 29729.417708333323,
      "d": 540.9645833333343,
      "v": 35
    },
    {
      "midi": 70,
      "hit": false,
      "t": 29729.417708333323,
      "d": 540.9645833333343,
      "v": 59
    },
    {
      "midi": 69,
      "hit": false,
      "t": 30236.24374999999,
      "d": 1263.1260416666664,
      "v": 63
    },
    {
      "midi": 60,
      "hit": false,
      "t": 30270.382291666658,
      "d": 1727.9354166666635,
      "v": 35
    },
    {
      "midi": 53,
      "hit": false,
      "t": 30270.382291666658,
      "d": 1764.699999999997,
      "v": 55
    },
    {
      "midi": 72,
      "hit": false,
      "t": 31499.369791666657,
      "d": 265.23020833333067,
      "v": 63
    },
    {
      "midi": 69,
      "hit": false,
      "t": 31751.469791666656,
      "d": 283.6124999999993,
      "v": 63
    },
    {
      "midi": 52,
      "hit": false,
      "t": 32035.082291666655,
      "d": 491.06979166666497,
      "v": 75
    },
    {
      "midi": 59,
      "hit": false,
      "t": 32035.082291666655,
      "d": 491.06979166666497,
      "v": 35
    },
    {
      "midi": 68,
      "hit": false,
      "t": 32035.082291666655,
      "d": 491.06979166666497,
      "v": 55
    },
    {
      "midi": 58,
      "hit": false,
      "t": 32526.15208333332,
      "d": 456.93125000000146,
      "v": 35
    },
    {
      "midi": 51,
      "hit": false,
      "t": 32526.15208333332,
      "d": 517.3302083333328,
      "v": 71
    },
    {
      "midi": 67,
      "hit": false,
      "t": 32526.15208333332,
      "d": 517.3302083333328,
      "v": 75
    },
    {
      "midi": 57,
      "hit": false,
      "t": 33043.48229166665,
      "d": 464.8093749999971,
      "v": 35
    },
    {
      "midi": 66,
      "hit": false,
      "t": 33043.48229166665,
      "d": 464.8093749999971,
      "v": 75
    },
    {
      "midi": 50,
      "hit": false,
      "t": 33043.48229166665,
      "d": 506.82604166666715,
      "v": 83
    },
    {
      "midi": 65,
      "hit": false,
      "t": 33550.30833333332,
      "d": 422.7927083333343,
      "v": 63
    },
    {
      "midi": 49,
      "hit": false,
      "t": 33550.30833333332,
      "d": 441.1750000000029,
      "v": 75
    },
    {
      "midi": 56,
      "hit": false,
      "t": 33550.30833333332,
      "d": 441.1750000000029,
      "v": 35
    },
    {
      "midi": 49,
      "hit": false,
      "t": 34012.491666666654,
      "d": 233.71770833332994,
      "v": 79
    },
    {
      "midi": 65,
      "hit": false,
      "t": 34012.491666666654,
      "d": 233.71770833332994,
      "v": 79
    },
    {
      "midi": 56,
      "hit": false,
      "t": 34012.491666666654,
      "d": 252.09999999999854,
      "v": 35
    },
    {
      "midi": 53,
      "hit": false,
      "t": 34036.12604166666,
      "d": 194.32708333332994,
      "v": 51
    },
    {
      "midi": 60,
      "hit": false,
      "t": 34288.22604166666,
      "d": 1491.5916666666672,
      "v": 91
    },
    {
      "midi": 48,
      "hit": false,
      "t": 34303.98229166665,
      "d": 1228.987500000003,
      "v": 99
    },
    {
      "midi": 64,
      "hit": false,
      "t": 34303.98229166665,
      "d": 1228.987500000003,
      "v": 99
    },
    {
      "midi": 55,
      "hit": false,
      "t": 34303.98229166665,
      "d": 1255.2479166666672,
      "v": 55
    },
    {
      "midi": 49,
      "hit": false,
      "t": 35532.969791666656,
      "d": 262.60416666666424,
      "v": 87
    },
    {
      "midi": 65,
      "hit": false,
      "t": 35532.969791666656,
      "d": 262.60416666666424,
      "v": 103
    },
    {
      "midi": 56,
      "hit": false,
      "t": 35559.23020833332,
      "d": 236.34375,
      "v": 55
    },
    {
      "midi": 50,
      "hit": false,
      "t": 35795.57395833332,
      "d": 246.8479166666657,
      "v": 95
    },
    {
      "midi": 57,
      "hit": false,
      "t": 35795.57395833332,
      "d": 246.8479166666657,
      "v": 55
    },
    {
      "midi": 66,
      "hit": false,
      "t": 35795.57395833332,
      "d": 246.8479166666657,
      "v": 83
    },
    {
      "midi": 67,
      "hit": false,
      "t": 35803.45208333333,
      "d": 246.8479166666657,
      "v": 99
    },
    {
      "midi": 58,
      "hit": false,
      "t": 36042.421874999985,
      "d": 2261.0218749999985,
      "v": 55
    },
    {
      "midi": 51,
      "hit": false,
      "t": 36042.421874999985,
      "d": 2282.03020833333,
      "v": 91
    },
    {
      "midi": 67,
      "hit": false,
      "t": 36042.421874999985,
      "d": 2282.03020833333,
      "v": 95
    },
    {
      "midi": 63,
      "hit": false,
      "t": 36050.299999999996,
      "d": 1790.9604166666613,
      "v": 91
    },
    {
      "midi": 70,
      "hit": false,
      "t": 37814.99999999999,
      "d": 259.9781249999942,
      "v": 91
    },
    {
      "midi": 69,
      "hit": false,
      "t": 38064.47395833332,
      "d": 1780.4562499999956,
      "v": 95
    },
    {
      "midi": 53,
      "hit": false,
      "t": 38324.452083333315,
      "d": 1210.6052083333343,
      "v": 55
    },
    {
      "midi": 60,
      "hit": false,
      "t": 38324.452083333315,
      "d": 1234.2395833333358,
      "v": 79
    },
    {
      "midi": 65,
      "hit": false,
      "t": 38324.452083333315,
      "d": 1234.2395833333358,
      "v": 91
    },
    {
      "midi": 69,
      "hit": false,
      "t": 38324.452083333315,
      "d": 1234.2395833333358,
      "v": 91
    },
    {
      "midi": 60,
      "hit": false,
      "t": 39598.08229166665,
      "d": 404.4104166666657,
      "v": 43
    },
    {
      "midi": 53,
      "hit": false,
      "t": 39598.08229166665,
      "d": 425.4187499999971,
      "v": 51
    },
    {
      "midi": 69,
      "hit": false,
      "t": 39598.08229166665,
      "d": 425.4187499999971,
      "v": 43
    },
    {
      "midi": 65,
      "hit": false,
      "t": 39598.08229166665,
      "d": 443.8010416666657,
      "v": 51
    },
    {
      "midi": 65,
      "hit": false,
      "t": 39834.42604166665,
      "d": 669.6406249999927,
      "v": 95
    },
    {
      "midi": 60,
      "hit": false,
      "t": 40086.52604166665,
      "d": 105.04166666666424,
      "v": 59
    },
    {
      "midi": 53,
      "hit": false,
      "t": 40086.52604166665,
      "d": 144.43229166666424,
      "v": 71
    },
    {
      "midi": 65,
      "hit": false,
      "t": 40107.53437499998,
      "d": 102.41562500000146,
      "v": 79
    },
    {
      "midi": 69,
      "hit": false,
      "t": 40107.53437499998,
      "d": 102.41562500000146,
      "v": 63
    },
    {
      "midi": 60,
      "hit": false,
      "t": 40603.85624999998,
      "d": 1664.9104166666657,
      "v": 55
    },
    {
      "midi": 48,
      "hit": false,
      "t": 40603.85624999998,
      "d": 1691.17083333333,
      "v": 63
    },
    {
      "midi": 64,
      "hit": false,
      "t": 40603.85624999998,
      "d": 1691.17083333333,
      "v": 83
    },
    {
      "midi": 67,
      "hit": false,
      "t": 40603.85624999998,
      "d": 1691.17083333333,
      "v": 59
    },
    {
      "midi": 48,
      "hit": false,
      "t": 42334.41770833331,
      "d": 1242.1177083333314,
      "v": 63
    },
    {
      "midi": 60,
      "hit": false,
      "t": 42334.41770833331,
      "d": 1242.1177083333314,
      "v": 67
    },
    {
      "midi": 64,
      "hit": false,
      "t": 42334.41770833331,
      "d": 1242.1177083333314,
      "v": 87
    },
    {
      "midi": 60,
      "hit": false,
      "t": 42355.426041666644,
      "d": 1523.1041666666715,
      "v": 99
    },
    {
      "midi": 49,
      "hit": false,
      "t": 43597.543749999975,
      "d": 288.8645833333285,
      "v": 75
    },
    {
      "midi": 61,
      "hit": false,
      "t": 43626.43020833331,
      "d": 259.9781249999942,
      "v": 63
    },
    {
      "midi": 65,
      "hit": false,
      "t": 43626.43020833331,
      "d": 259.9781249999942,
      "v": 91
    },
    {
      "midi": 50,
      "hit": false,
      "t": 43849.643749999974,
      "d": 270.48229166666715,
      "v": 67
    },
    {
      "midi": 67,
      "hit": false,
      "t": 43870.65208333331,
      "d": 210.08333333333576,
      "v": 95
    },
    {
      "midi": 62,
      "hit": false,
      "t": 43886.408333333304,
      "d": 191.70104166666715,
      "v": 63
    },
    {
      "midi": 66,
      "hit": false,
      "t": 43886.408333333304,
      "d": 233.7177083333372,
      "v": 75
    },
    {
      "midi": 51,
      "hit": false,
      "t": 44096.49166666664,
      "d": 1775.2041666666628,
      "v": 67
    },
    {
      "midi": 67,
      "hit": false,
      "t": 44120.12604166664,
      "d": 519.9562500000029,
      "v": 83
    },
    {
      "midi": 63,
      "hit": false,
      "t": 44122.75208333332,
      "d": 1806.7166666666672,
      "v": 87
    },
    {
      "midi": 63,
      "hit": false,
      "t": 44141.13437499997,
      "d": 441.1750000000029,
      "v": 71
    },
    {
      "midi": 65,
      "hit": false,
      "t": 44640.082291666644,
      "d": 262.6041666666715,
      "v": 71
    },
    {
      "midi": 68,
      "hit": false,
      "t": 44640.082291666644,
      "d": 262.6041666666715,
      "v": 67
    },
    {
      "midi": 69,
      "hit": false,
      "t": 44879.052083333314,
      "d": 246.8479166666657,
      "v": 67
    },
    {
      "midi": 66,
      "hit": false,
      "t": 44879.052083333314,
      "d": 267.8562499999971,
      "v": 71
    },
    {
      "midi": 70,
      "hit": false,
      "t": 45125.89999999998,
      "d": 517.3302083333256,
      "v": 71
    },
    {
      "midi": 67,
      "hit": false,
      "t": 45146.90833333331,
      "d": 496.3218749999942,
      "v": 71
    },
    {
      "midi": 67,
      "hit": false,
      "t": 45643.230208333305,
      "d": 241.59583333333285,
      "v": 55
    },
    {
      "midi": 72,
      "hit": false,
      "t": 45643.230208333305,
      "d": 493.69583333333867,
      "v": 71
    },
    {
      "midi": 67,
      "hit": false,
      "t": 45884.82604166664,
      "d": 186.4489583333343,
      "v": 27
    },
    {
      "midi": 70,
      "hit": false,
      "t": 45884.82604166664,
      "d": 228.46562500000437,
      "v": 55
    },
    {
      "midi": 51,
      "hit": false,
      "t": 45884.82604166664,
      "d": 517.3302083333401,
      "v": 31
    },
    {
      "midi": 70,
      "hit": false,
      "t": 45887.452083333315,
      "d": 241.59583333334012,
      "v": 75
    },
    {
      "midi": 69,
      "hit": false,
      "t": 46134.29999999999,
      "d": 1801.4645833333416,
      "v": 95
    },
    {
      "midi": 72,
      "hit": false,
      "t": 46402.15624999998,
      "d": 1457.453125,
      "v": 79
    },
    {
      "midi": 65,
      "hit": false,
      "t": 46402.15624999998,
      "d": 1478.4614583333314,
      "v": 55
    },
    {
      "midi": 69,
      "hit": false,
      "t": 46402.15624999998,
      "d": 1478.4614583333314,
      "v": 67
    },
    {
      "midi": 53,
      "hit": false,
      "t": 46402.15624999998,
      "d": 1730.56145833333,
      "v": 71
    },
    {
      "midi": 65,
      "hit": false,
      "t": 47901.62604166666,
      "d": 556.7208333333328,
      "v": 87
    },
    {
      "midi": 72,
      "hit": false,
      "t": 47914.75624999998,
      "d": 217.9614583333314,
      "v": 39
    },
    {
      "midi": 65,
      "hit": false,
      "t": 47914.75624999998,
      "d": 252.09999999999854,
      "v": 47
    },
    {
      "midi": 69,
      "hit": false,
      "t": 47914.75624999998,
      "d": 252.09999999999854,
      "v": 23
    },
    {
      "midi": 48,
      "hit": false,
      "t": 48166.856249999975,
      "d": 2148.1020833333314,
      "v": 51
    },
    {
      "midi": 64,
      "hit": false,
      "t": 48166.856249999975,
      "d": 2148.1020833333314,
      "v": 63
    },
    {
      "midi": 72,
      "hit": false,
      "t": 48166.856249999975,
      "d": 2169.110416666663,
      "v": 67
    },
    {
      "midi": 67,
      "hit": false,
      "t": 48166.856249999975,
      "d": 2213.7531249999956,
      "v": 75
    },
    {
      "midi": 48,
      "hit": false,
      "t": 50314.95833333331,
      "d": 1386.5499999999956,
      "v": 67
    },
    {
      "midi": 64,
      "hit": false,
      "t": 50335.96666666664,
      "d": 1302.5166666666628,
      "v": 47
    },
    {
      "midi": 67,
      "hit": false,
      "t": 50380.60937499997,
      "d": 1257.87395833333,
      "v": 79
    },
    {
      "midi": 72,
      "hit": false,
      "t": 50443.63437499997,
      "d": 1215.8572916666599,
      "v": 75
    },
    {
      "midi": 51,
      "hit": false,
      "t": 52421.04374999997,
      "d": 858.7156250000044,
      "v": 59
    },
    {
      "midi": 67,
      "hit": false,
      "t": 52421.04374999997,
      "d": 921.7406250000058,
      "v": 55
    },
    {
      "midi": 70,
      "hit": false,
      "t": 52436.79999999997,
      "d": 905.9843750000073,
      "v": 59
    },
    {
      "midi": 75,
      "hit": false,
      "t": 52436.79999999997,
      "d": 924.3666666666759,
      "v": 51
    },
    {
      "midi": 53,
      "hit": false,
      "t": 54469.356249999975,
      "d": 653.8843750000015,
      "v": 79
    },
    {
      "midi": 72,
      "hit": false,
      "t": 54469.356249999975,
      "d": 779.9343750000044,
      "v": 75
    },
    {
      "midi": 69,
      "hit": false,
      "t": 54469.356249999975,
      "d": 827.2031250000073,
      "v": 55
    },
    {
      "midi": 77,
      "hit": false,
      "t": 54469.356249999975,
      "d": 827.2031250000073,
      "v": 67
    },
    {
      "midi": 48,
      "hit": false,
      "t": 56473.02604166665,
      "d": 1215.8572916666672,
      "v": 75
    },
    {
      "midi": 67,
      "hit": false,
      "t": 56473.02604166665,
      "d": 2001.0437499999898,
      "v": 63
    },
    {
      "midi": 72,
      "hit": false,
      "t": 56473.02604166665,
      "d": 2001.0437499999898,
      "v": 63
    },
    {
      "midi": 76,
      "hit": false,
      "t": 56473.02604166665,
      "d": 2022.0520833333212,
      "v": 63
    },
    {
      "midi": 45,
      "hit": false,
      "t": 57715.14374999998,
      "d": 183.82291666666424,
      "v": 59
    },
    {
      "midi": 46,
      "hit": false,
      "t": 57982.99999999998,
      "d": 189.0749999999971,
      "v": 31
    },
    {
      "midi": 47,
      "hit": false,
      "t": 58242.97812499997,
      "d": 136.5541666666686,
      "v": 39
    },
    {
      "midi": 64,
      "hit": false,
      "t": 58450.43541666664,
      "d": 937.4968749999971,
      "v": 67
    },
    {
      "midi": 48,
      "hit": false,
      "t": 58450.43541666664,
      "d": 2728.457291666673,
      "v": 71
    },
    {
      "midi": 67,
      "hit": false,
      "t": 58495.07812499997,
      "d": 916.4885416666657,
      "v": 79
    },
    {
      "midi": 72,
      "hit": false,
      "t": 58510.83437499997,
      "d": 900.7322916666672,
      "v": 71
    },
    {
      "midi": 70,
      "hit": false,
      "t": 60488.24374999997,
      "d": 606.6156250000058,
      "v": 75
    },
    {
      "midi": 67,
      "hit": false,
      "t": 60503.99999999997,
      "d": 590.8593750000073,
      "v": 75
    },
    {
      "midi": 75,
      "hit": false,
      "t": 60503.99999999997,
      "d": 611.8677083333387,
      "v": 67
    },
    {
      "midi": 48,
      "hit": false,
      "t": 62397.37604166664,
      "d": 1155.4583333333358,
      "v": 59
    },
    {
      "midi": 77,
      "hit": false,
      "t": 62502.417708333305,
      "d": 1089.8072916666715,
      "v": 75
    },
    {
      "midi": 69,
      "hit": false,
      "t": 62531.30416666664,
      "d": 1060.9208333333372,
      "v": 63
    },
    {
      "midi": 72,
      "hit": false,
      "t": 62531.30416666664,
      "d": 1060.9208333333372,
      "v": 83
    },
    {
      "midi": 50,
      "hit": false,
      "t": 64296.004166666644,
      "d": 514.7041666666628,
      "v": 95
    },
    {
      "midi": 72,
      "hit": false,
      "t": 64553.356249999975,
      "d": 257.3520833333314,
      "v": 91
    },
    {
      "midi": 65,
      "hit": false,
      "t": 64553.356249999975,
      "d": 278.3604166666628,
      "v": 91
    },
    {
      "midi": 67,
      "hit": false,
      "t": 64553.356249999975,
      "d": 278.3604166666628,
      "v": 91
    },
    {
      "midi": 48,
      "hit": false,
      "t": 66446.73229166663,
      "d": 1391.802083333314,
      "v": 67
    },
    {
      "midi": 64,
      "hit": false,
      "t": 66470.36666666662,
      "d": 1307.7687499999884,
      "v": 47
    },
    {
      "midi": 67,
      "hit": false,
      "t": 66515.00937499997,
      "d": 1263.1260416666482,
      "v": 79
    },
    {
      "midi": 72,
      "hit": false,
      "t": 66578.03437499996,
      "d": 1218.4833333333227,
      "v": 75
    },
    {
      "midi": 79,
      "hit": false,
      "t": 67565.42604166662,
      "d": 5018.365625000006,
      "v": 79
    },
    {
      "midi": 84,
      "hit": false,
      "t": 68080.13020833328,
      "d": 4543.052083333343,
      "v": 79
    },
    {
      "midi": 51,
      "hit": false,
      "t": 68589.58229166662,
      "d": 845.5854166666686,
      "v": 59
    },
    {
      "midi": 70,
      "hit": false,
      "t": 68589.58229166662,
      "d": 882.3500000000058,
      "v": 59
    },
    {
      "midi": 67,
      "hit": false,
      "t": 68589.58229166662,
      "d": 905.984375,
      "v": 55
    },
    {
      "midi": 75,
      "hit": false,
      "t": 68589.58229166662,
      "d": 905.984375,
      "v": 51
    },
    {
      "midi": 82,
      "hit": false,
      "t": 68589.58229166662,
      "d": 2064.068750000006,
      "v": 75
    },
    {
      "midi": 77,
      "hit": false,
      "t": 70574.86979166663,
      "d": 853.4635416666715,
      "v": 67
    },
    {
      "midi": 72,
      "hit": false,
      "t": 70606.38229166662,
      "d": 782.5604166666744,
      "v": 75
    },
    {
      "midi": 69,
      "hit": false,
      "t": 70606.38229166662,
      "d": 821.9510416666744,
      "v": 55
    },
    {
      "midi": 81,
      "hit": false,
      "t": 70606.38229166662,
      "d": 1977.409375000003,
      "v": 55
    },
    {
      "midi": 53,
      "hit": false,
      "t": 70614.26041666663,
      "d": 646.0062500000058,
      "v": 79
    },
    {
      "midi": 48,
      "hit": false,
      "t": 72623.18229166663,
      "d": 1197.4750000000058,
      "v": 75
    },
    {
      "midi": 67,
      "hit": false,
      "t": 72623.18229166663,
      "d": 1938.0187500000175,
      "v": 63
    },
    {
      "midi": 72,
      "hit": false,
      "t": 72623.18229166663,
      "d": 1980.0354166666802,
      "v": 63
    },
    {
      "midi": 76,
      "hit": false,
      "t": 72623.18229166663,
      "d": 2001.0437500000116,
      "v": 63
    },
    {
      "midi": 45,
      "hit": false,
      "t": 73849.54374999997,
      "d": 183.82291666667152,
      "v": 59
    },
    {
      "midi": 46,
      "hit": false,
      "t": 74127.90416666665,
      "d": 181.19687499999418,
      "v": 31
    },
    {
      "midi": 47,
      "hit": false,
      "t": 74374.75208333331,
      "d": 144.43229166667152,
      "v": 39
    },
    {
      "midi": 48,
      "hit": false,
      "t": 74519.18437499998,
      "d": 1383.923958333311,
      "v": 67
    },
    {
      "midi": 64,
      "hit": false,
      "t": 74542.81874999998,
      "d": 1299.8906249999854,
      "v": 47
    },
    {
      "midi": 67,
      "hit": false,
      "t": 74579.58333333331,
      "d": 1263.1260416666482,
      "v": 79
    },
    {
      "midi": 72,
      "hit": false,
      "t": 74642.60833333331,
      "d": 1221.1093749999854,
      "v": 75
    },
    {
      "midi": 82,
      "hit": false,
      "t": 76620.0177083333,
      "d": 1990.5395833333314,
      "v": 75
    },
    {
      "midi": 51,
      "hit": false,
      "t": 76656.78229166663,
      "d": 845.585416666654,
      "v": 59
    },
    {
      "midi": 70,
      "hit": false,
      "t": 76656.78229166663,
      "d": 882.3499999999913,
      "v": 59
    },
    {
      "midi": 67,
      "hit": false,
      "t": 76656.78229166663,
      "d": 908.6104166666628,
      "v": 55
    },
    {
      "midi": 75,
      "hit": false,
      "t": 76656.78229166663,
      "d": 908.6104166666628,
      "v": 51
    },
    {
      "midi": 72,
      "hit": false,
      "t": 78657.82604166663,
      "d": 840.3333333333285,
      "v": 67
    },
    {
      "midi": 77,
      "hit": false,
      "t": 78657.82604166663,
      "d": 840.3333333333285,
      "v": 71
    },
    {
      "midi": 53,
      "hit": false,
      "t": 78657.82604166663,
      "d": 1129.197916666657,
      "v": 75
    },
    {
      "midi": 74,
      "hit": false,
      "t": 78694.59062499997,
      "d": 779.9343749999971,
      "v": 51
    },
    {
      "midi": 81,
      "hit": false,
      "t": 78694.59062499997,
      "d": 1352.411458333314,
      "v": 75
    },
    {
      "midi": 53,
      "hit": false,
      "t": 79897.31770833328,
      "d": 832.4552083333256,
      "v": 87
    },
    {
      "midi": 72,
      "hit": false,
      "t": 80186.18229166661,
      "d": 504.1999999999971,
      "v": 71
    },
    {
      "midi": 77,
      "hit": false,
      "t": 80186.18229166661,
      "d": 504.1999999999971,
      "v": 79
    },
    {
      "midi": 81,
      "hit": false,
      "t": 80186.18229166661,
      "d": 504.1999999999971,
      "v": 67
    },
    {
      "midi": 48,
      "hit": false,
      "t": 80690.38229166661,
      "d": 1200.1010416666686,
      "v": 75
    },
    {
      "midi": 79,
      "hit": false,
      "t": 80690.38229166661,
      "d": 1980.0354166666657,
      "v": 75
    },
    {
      "midi": 84,
      "hit": false,
      "t": 80690.38229166661,
      "d": 1980.0354166666657,
      "v": 75
    },
    {
      "midi": 76,
      "hit": false,
      "t": 80690.38229166661,
      "d": 2016.800000000003,
      "v": 75
    },
    {
      "midi": 45,
      "hit": false,
      "t": 81919.36979166661,
      "d": 275.734375,
      "v": 59
    },
    {
      "midi": 46,
      "hit": false,
      "t": 82195.10416666661,
      "d": 223.21354166667152,
      "v": 47
    },
    {
      "midi": 47,
      "hit": false,
      "t": 82441.95208333328,
      "d": 265.2302083333343,
      "v": 63
    },
    {
      "midi": 76,
      "hit": false,
      "t": 82707.18229166661,
      "d": 779.9343749999971,
      "v": 75
    },
    {
      "midi": 79,
      "hit": false,
      "t": 82707.18229166661,
      "d": 779.9343749999971,
      "v": 83
    },
    {
      "midi": 84,
      "hit": false,
      "t": 82707.18229166661,
      "d": 779.9343749999971,
      "v": 83
    },
    {
      "midi": 48,
      "hit": false,
      "t": 82707.18229166661,
      "d": 2016.800000000003,
      "v": 83
    },
    {
      "midi": 76,
      "hit": false,
      "t": 83928.29166666661,
      "d": 170.69270833332848,
      "v": 51
    },
    {
      "midi": 79,
      "hit": false,
      "t": 84219.7822916666,
      "d": 65.65104166667152,
      "v": 63
    },
    {
      "midi": 84,
      "hit": false,
      "t": 84219.7822916666,
      "d": 65.65104166667152,
      "v": 71
    },
    {
      "midi": 76,
      "hit": false,
      "t": 84219.7822916666,
      "d": 152.31041666667443,
      "v": 63
    },
    {
      "midi": 75,
      "hit": false,
      "t": 84723.98229166662,
      "d": 551.46875,
      "v": 79
    },
    {
      "midi": 79,
      "hit": false,
      "t": 84723.98229166662,
      "d": 572.4770833333314,
      "v": 91
    },
    {
      "midi": 82,
      "hit": false,
      "t": 84723.98229166662,
      "d": 572.4770833333314,
      "v": 83
    },
    {
      "midi": 51,
      "hit": false,
      "t": 84723.98229166662,
      "d": 2001.043749999997,
      "v": 71
    },
    {
      "midi": 75,
      "hit": false,
      "t": 85947.71770833328,
      "d": 737.9177083333343,
      "v": 47
    },
    {
      "midi": 82,
      "hit": false,
      "t": 86202.44374999995,
      "d": 483.1916666666657,
      "v": 67
    },
    {
      "midi": 79,
      "hit": false,
      "t": 86236.58229166661,
      "d": 449.0531250000058,
      "v": 67
    },
    {
      "midi": 84,
      "hit": false,
      "t": 86236.58229166661,
      "d": 449.0531250000058,
      "v": 83
    },
    {
      "midi": 77,
      "hit": false,
      "t": 86725.02604166661,
      "d": 567.2250000000058,
      "v": 91
    },
    {
      "midi": 81,
      "hit": false,
      "t": 86725.02604166661,
      "d": 567.2250000000058,
      "v": 87
    },
    {
      "midi": 74,
      "hit": false,
      "t": 86725.02604166661,
      "d": 588.2333333333372,
      "v": 75
    },
    {
      "midi": 84,
      "hit": false,
      "t": 86725.02604166661,
      "d": 588.2333333333372,
      "v": 91
    },
    {
      "midi": 53,
      "hit": false,
      "t": 86751.28645833328,
      "d": 1423.3145833333256,
      "v": 91
    },
    {
      "midi": 77,
      "hit": false,
      "t": 88253.38229166661,
      "d": 89.2854166666657,
      "v": 79
    },
    {
      "midi": 81,
      "hit": false,
      "t": 88253.38229166661,
      "d": 110.29374999999709,
      "v": 83
    },
    {
      "midi": 84,
      "hit": false,
      "t": 88253.38229166661,
      "d": 154.9364583333372,
      "v": 83
    },
    {
      "midi": 74,
      "hit": false,
      "t": 88253.38229166661,
      "d": 362.3937500000029,
      "v": 83
    },
    {
      "midi": 53,
      "hit": false,
      "t": 88253.38229166661,
      "d": 501.5739583333343,
      "v": 63
    },
    {
      "midi": 76,
      "hit": false,
      "t": 88754.95624999994,
      "d": 1943.270833333343,
      "v": 79
    },
    {
      "midi": 79,
      "hit": false,
      "t": 88754.95624999994,
      "d": 1943.270833333343,
      "v": 95
    },
    {
      "midi": 84,
      "hit": false,
      "t": 88754.95624999994,
      "d": 1959.0270833333489,
      "v": 95
    },
    {
      "midi": 48,
      "hit": false,
      "t": 88781.21666666662,
      "d": 1896.0020833333401,
      "v": 83
    },
    {
      "midi": 76,
      "hit": false,
      "t": 90774.38229166662,
      "d": 926.9927083333314,
      "v": 87
    },
    {
      "midi": 79,
      "hit": false,
      "t": 90774.38229166662,
      "d": 1074.0510416666657,
      "v": 87
    },
    {
      "midi": 84,
      "hit": false,
      "t": 90774.38229166662,
      "d": 1223.7354166666628,
      "v": 95
    },
    {
      "midi": 48,
      "hit": false,
      "t": 90774.38229166662,
      "d": 2016.7999999999884,
      "v": 67
    },
    {
      "midi": 79,
      "hit": false,
      "t": 92284.35624999995,
      "d": 160.1885416666628,
      "v": 87
    },
    {
      "midi": 84,
      "hit": false,
      "t": 92284.35624999995,
      "d": 160.1885416666628,
      "v": 95
    },
    {
      "midi": 76,
      "hit": false,
      "t": 92284.35624999995,
      "d": 259.9781249999942,
      "v": 63
    },
    {
      "midi": 75,
      "hit": false,
      "t": 92791.18229166661,
      "d": 404.4104166666657,
      "v": 83
    },
    {
      "midi": 79,
      "hit": false,
      "t": 92791.18229166661,
      "d": 425.4187499999971,
      "v": 87
    },
    {
      "midi": 82,
      "hit": false,
      "t": 92791.18229166661,
      "d": 443.8010416666657,
      "v": 87
    },
    {
      "midi": 51,
      "hit": false,
      "t": 92791.18229166661,
      "d": 1959.0270833333343,
      "v": 63
    },
    {
      "midi": 75,
      "hit": false,
      "t": 94041.17812499995,
      "d": 730.0395833333314,
      "v": 39
    },
    {
      "midi": 79,
      "hit": false,
      "t": 94288.02604166661,
      "d": 462.1833333333343,
      "v": 83
    },
    {
      "midi": 82,
      "hit": false,
      "t": 94288.02604166661,
      "d": 462.1833333333343,
      "v": 83
    },
    {
      "midi": 84,
      "hit": false,
      "t": 94288.02604166661,
      "d": 483.1916666666657,
      "v": 87
    },
    {
      "midi": 74,
      "hit": false,
      "t": 94807.98229166662,
      "d": 701.1531250000116,
      "v": 83
    },
    {
      "midi": 77,
      "hit": false,
      "t": 94807.98229166662,
      "d": 722.161458333343,
      "v": 87
    },
    {
      "midi": 81,
      "hit": false,
      "t": 94807.98229166662,
      "d": 722.161458333343,
      "v": 87
    },
    {
      "midi": 84,
      "hit": false,
      "t": 94807.98229166662,
      "d": 761.552083333343,
      "v": 87
    },
    {
      "midi": 53,
      "hit": false,
      "t": 94807.98229166662,
      "d": 1452.2010416666744,
      "v": 79
    },
    {
      "midi": 74,
      "hit": false,
      "t": 96052.72604166662,
      "d": 254.7260416666686,
      "v": 43
    },
    {
      "midi": 77,
      "hit": false,
      "t": 96307.4520833333,
      "d": 144.43229166667152,
      "v": 83
    },
    {
      "midi": 81,
      "hit": false,
      "t": 96307.4520833333,
      "d": 144.43229166667152,
      "v": 83
    },
    {
      "midi": 84,
      "hit": false,
      "t": 96307.4520833333,
      "d": 162.81458333334012,
      "v": 83
    },
    {
      "midi": 53,
      "hit": false,
      "t": 96328.46041666662,
      "d": 433.29687500001455,
      "v": 47
    },
    {
      "midi": 48,
      "hit": false,
      "t": 96824.78229166663,
      "d": 252.10000000000582,
      "v": 55
    },
    {
      "midi": 76,
      "hit": false,
      "t": 96824.78229166663,
      "d": 252.10000000000582,
      "v": 43
    },
    {
      "midi": 79,
      "hit": false,
      "t": 96824.78229166663,
      "d": 252.10000000000582,
      "v": 55
    },
    {
      "midi": 84,
      "hit": false,
      "t": 96824.78229166663,
      "d": 252.10000000000582,
      "v": 71
    },
    {
      "midi": 79,
      "hit": false,
      "t": 97076.88229166664,
      "d": 336.1333333333314,
      "v": 87
    },
    {
      "midi": 82,
      "hit": false,
      "t": 97076.88229166664,
      "d": 336.1333333333314,
      "v": 87
    },
    {
      "midi": 87,
      "hit": false,
      "t": 97076.88229166664,
      "d": 362.3937500000029,
      "v": 91
    },
    {
      "midi": 82,
      "hit": false,
      "t": 97439.27604166664,
      "d": 165.4406250000029,
      "v": 59
    },
    {
      "midi": 77,
      "hit": false,
      "t": 97457.65833333331,
      "d": 147.0583333333343,
      "v": 75
    },
    {
      "midi": 86,
      "hit": false,
      "t": 97457.65833333331,
      "d": 170.69270833332848,
      "v": 79
    },
    {
      "midi": 48,
      "hit": false,
      "t": 97691.37604166663,
      "d": 273.1083333333372,
      "v": 75
    },
    {
      "midi": 75,
      "hit": false,
      "t": 97820.0520833333,
      "d": 144.43229166667152,
      "v": 91
    },
    {
      "midi": 79,
      "hit": false,
      "t": 97820.0520833333,
      "d": 144.43229166667152,
      "v": 83
    },
    {
      "midi": 82,
      "hit": false,
      "t": 97820.0520833333,
      "d": 144.43229166667152,
      "v": 91
    },
    {
      "midi": 48,
      "hit": false,
      "t": 98080.03020833331,
      "d": 259.9781249999942,
      "v": 83
    },
    {
      "midi": 72,
      "hit": false,
      "t": 98208.70624999997,
      "d": 238.9697916666628,
      "v": 87
    },
    {
      "midi": 77,
      "hit": false,
      "t": 98208.70624999997,
      "d": 238.9697916666628,
      "v": 95
    },
    {
      "midi": 81,
      "hit": false,
      "t": 98208.70624999997,
      "d": 238.9697916666628,
      "v": 75
    },
    {
      "midi": 48,
      "hit": false,
      "t": 98447.67604166664,
      "d": 249.47395833334303,
      "v": 83
    },
    {
      "midi": 70,
      "hit": false,
      "t": 98573.72604166664,
      "d": 228.46562500001164,
      "v": 91
    },
    {
      "midi": 75,
      "hit": false,
      "t": 98573.72604166664,
      "d": 228.46562500001164,
      "v": 83
    },
    {
      "midi": 79,
      "hit": false,
      "t": 98573.72604166664,
      "d": 228.46562500001164,
      "v": 99
    },
    {
      "midi": 48,
      "hit": false,
      "t": 98836.33020833331,
      "d": 848.211458333346,
      "v": 83
    },
    {
      "midi": 67,
      "hit": false,
      "t": 99093.68229166664,
      "d": 320.3770833333401,
      "v": 91
    },
    {
      "midi": 76,
      "hit": false,
      "t": 99093.68229166664,
      "d": 341.3854166666715,
      "v": 83
    },
    {
      "midi": 67,
      "hit": false,
      "t": 99466.58020833331,
      "d": 94.53750000000582,
      "v": 87
    },
    {
      "midi": 76,
      "hit": false,
      "t": 99466.58020833331,
      "d": 94.53750000000582,
      "v": 75
    },
    {
      "midi": 48,
      "hit": false,
      "t": 99702.92395833333,
      "d": 1155.458333333343,
      "v": 87
    },
    {
      "midi": 72,
      "hit": false,
      "t": 99849.98229166666,
      "d": 530.4604166666686,
      "v": 87
    },
    {
      "midi": 76,
      "hit": false,
      "t": 99849.98229166666,
      "d": 1034.6604166666802,
      "v": 87
    },
    {
      "midi": 67,
      "hit": false,
      "t": 99849.98229166666,
      "d": 1055.6687500000116,
      "v": 87
    },
    {
      "midi": 79,
      "hit": false,
      "t": 100335.79999999999,
      "d": 548.8427083333518,
      "v": 127
    },
    {
      "midi": 51,
      "hit": false,
      "t": 100821.61770833333,
      "d": 835.0812500000029,
      "v": 99
    },
    {
      "midi": 67,
      "hit": false,
      "t": 101092.1,
      "d": 338.7593749999942,
      "v": 87
    },
    {
      "midi": 70,
      "hit": false,
      "t": 101092.1,
      "d": 362.39374999998836,
      "v": 87
    },
    {
      "midi": 70,
      "hit": false,
      "t": 101480.75416666667,
      "d": 136.5541666666686,
      "v": 83
    },
    {
      "midi": 67,
      "hit": false,
      "t": 101488.63229166667,
      "d": 70.90312499999709,
      "v": 75
    },
    {
      "midi": 51,
      "hit": false,
      "t": 101732.85416666667,
      "d": 1102.9375,
      "v": 75
    },
    {
      "midi": 75,
      "hit": false,
      "t": 101861.53020833334,
      "d": 533.0864583333314,
      "v": 75
    },
    {
      "midi": 67,
      "hit": false,
      "t": 101861.53020833334,
      "d": 1060.9208333333227,
      "v": 87
    },
    {
      "midi": 70,
      "hit": false,
      "t": 101861.53020833334,
      "d": 1081.929166666654,
      "v": 83
    },
    {
      "midi": 82,
      "hit": false,
      "t": 102370.98229166667,
      "d": 527.8343749999913,
      "v": 127
    },
    {
      "midi": 53,
      "hit": false,
      "t": 102869.93020833333,
      "d": 790.4385416666628,
      "v": 99
    },
    {
      "midi": 81,
      "hit": false,
      "t": 102883.06041666666,
      "d": 1717.4312499999942,
      "v": 127
    },
    {
      "midi": 69,
      "hit": false,
      "t": 103124.65624999999,
      "d": 325.6291666666657,
      "v": 83
    },
    {
      "midi": 72,
      "hit": false,
      "t": 103124.65624999999,
      "d": 325.6291666666657,
      "v": 91
    },
    {
      "midi": 77,
      "hit": false,
      "t": 103124.65624999999,
      "d": 325.6291666666657,
      "v": 87
    },
    {
      "midi": 72,
      "hit": false,
      "t": 103494.92812499999,
      "d": 118.171875,
      "v": 87
    },
    {
      "midi": 69,
      "hit": false,
      "t": 103494.92812499999,
      "d": 144.43229166667152,
      "v": 83
    },
    {
      "midi": 77,
      "hit": false,
      "t": 103494.92812499999,
      "d": 144.43229166667152,
      "v": 91
    },
    {
      "midi": 53,
      "hit": false,
      "t": 103747.028125,
      "d": 1068.7989583333256,
      "v": 75
    },
    {
      "midi": 69,
      "hit": false,
      "t": 103878.33020833333,
      "d": 1060.9208333333372,
      "v": 83
    },
    {
      "midi": 77,
      "hit": false,
      "t": 103878.33020833333,
      "d": 1081.9291666666686,
      "v": 87
    },
    {
      "midi": 72,
      "hit": false,
      "t": 103878.33020833333,
      "d": 1105.5635416666628,
      "v": 87
    },
    {
      "midi": 82,
      "hit": false,
      "t": 104621.49999999999,
      "d": 128.6760416666657,
      "v": 127
    },
    {
      "midi": 81,
      "hit": false,
      "t": 104750.17604166665,
      "d": 170.69270833334303,
      "v": 127
    },
    {
      "midi": 48,
      "hit": false,
      "t": 104873.59999999999,
      "d": 863.9677083333518,
      "v": 71
    },
    {
      "midi": 79,
      "hit": false,
      "t": 104902.48645833333,
      "d": 2008.9218750000146,
      "v": 127
    },
    {
      "midi": 67,
      "hit": false,
      "t": 105128.32604166666,
      "d": 359.7677083333401,
      "v": 91
    },
    {
      "midi": 72,
      "hit": false,
      "t": 105128.32604166666,
      "d": 359.7677083333401,
      "v": 91
    },
    {
      "midi": 76,
      "hit": false,
      "t": 105128.32604166666,
      "d": 375.52395833334594,
      "v": 91
    },
    {
      "midi": 76,
      "hit": false,
      "t": 105503.85,
      "d": 265.2302083333343,
      "v": 87
    },
    {
      "midi": 67,
      "hit": false,
      "t": 105503.85,
      "d": 294.1166666666686,
      "v": 67
    },
    {
      "midi": 72,
      "hit": false,
      "t": 105524.85833333334,
      "d": 273.1083333333372,
      "v": 75
    },
    {
      "midi": 51,
      "hit": false,
      "t": 105769.08020833334,
      "d": 577.7291666666715,
      "v": 83
    },
    {
      "midi": 67,
      "hit": false,
      "t": 105897.75625,
      "d": 430.6708333333372,
      "v": 71
    },
    {
      "midi": 75,
      "hit": false,
      "t": 105897.75625,
      "d": 430.6708333333372,
      "v": 95
    },
    {
      "midi": 70,
      "hit": false,
      "t": 105897.75625,
      "d": 449.0531250000058,
      "v": 95
    },
    {
      "midi": 53,
      "hit": false,
      "t": 106388.82604166667,
      "d": 477.9395833333401,
      "v": 95
    },
    {
      "midi": 72,
      "hit": false,
      "t": 106388.82604166667,
      "d": 501.5739583333343,
      "v": 99
    },
    {
      "midi": 69,
      "hit": false,
      "t": 106388.82604166667,
      "d": 606.6156250000058,
      "v": 87
    },
    {
      "midi": 77,
      "hit": false,
      "t": 106388.82604166667,
      "d": 606.6156250000058,
      "v": 95
    },
    {
      "midi": 48,
      "hit": false,
      "t": 106890.40000000001,
      "d": 816.6989583333634,
      "v": 87
    },
    {
      "midi": 67,
      "hit": false,
      "t": 107160.88229166668,
      "d": 341.3854166666715,
      "v": 95
    },
    {
      "midi": 76,
      "hit": false,
      "t": 107160.88229166668,
      "d": 341.3854166666715,
      "v": 95
    },
    {
      "midi": 67,
      "hit": false,
      "t": 107546.9104166667,
      "d": 86.65937500000291,
      "v": 71
    },
    {
      "midi": 76,
      "hit": false,
      "t": 107546.9104166667,
      "d": 112.91979166667443,
      "v": 83
    },
    {
      "midi": 48,
      "hit": false,
      "t": 107778.00208333337,
      "d": 1144.9541666666773,
      "v": 83
    },
    {
      "midi": 76,
      "hit": false,
      "t": 107901.42604166671,
      "d": 1110.815625000003,
      "v": 91
    },
    {
      "midi": 67,
      "hit": false,
      "t": 107901.42604166671,
      "d": 1137.0760416666744,
      "v": 91
    },
    {
      "midi": 72,
      "hit": false,
      "t": 107922.43437500004,
      "d": 498.9479166666715,
      "v": 87
    },
    {
      "midi": 79,
      "hit": false,
      "t": 108421.38229166671,
      "d": 548.8427083333372,
      "v": 127
    },
    {
      "midi": 51,
      "hit": false,
      "t": 108922.95625000005,
      "d": 743.169791666689,
      "v": 87
    },
    {
      "midi": 70,
      "hit": false,
      "t": 109161.92604166672,
      "d": 359.7677083333401,
      "v": 91
    },
    {
      "midi": 67,
      "hit": false,
      "t": 109180.30833333339,
      "d": 341.3854166666715,
      "v": 79
    },
    {
      "midi": 67,
      "hit": false,
      "t": 109540.07604166673,
      "d": 84.03333333334012,
      "v": 79
    },
    {
      "midi": 70,
      "hit": false,
      "t": 109540.07604166673,
      "d": 126.05000000000291,
      "v": 79
    },
    {
      "midi": 51,
      "hit": false,
      "t": 109800.05416666674,
      "d": 1100.3114583333227,
      "v": 79
    },
    {
      "midi": 75,
      "hit": false,
      "t": 109933.98229166675,
      "d": 509.45208333332266,
      "v": 79
    },
    {
      "midi": 67,
      "hit": false,
      "t": 109933.98229166675,
      "d": 1034.6604166666511,
      "v": 79
    },
    {
      "midi": 70,
      "hit": false,
      "t": 109933.98229166675,
      "d": 1076.677083333314,
      "v": 75
    },
    {
      "midi": 82,
      "hit": false,
      "t": 110419.80000000008,
      "d": 522.5822916666511,
      "v": 127
    },
    {
      "midi": 53,
      "hit": false,
      "t": 110942.38229166673,
      "d": 724.7874999999913,
      "v": 99
    },
    {
      "midi": 81,
      "hit": false,
      "t": 110942.38229166673,
      "d": 1730.5614583333227,
      "v": 127
    },
    {
      "midi": 74,
      "hit": false,
      "t": 111178.72604166673,
      "d": 120.79791666666279,
      "v": 55
    },
    {
      "midi": 69,
      "hit": false,
      "t": 111178.72604166673,
      "d": 315.125,
      "v": 83
    },
    {
      "midi": 72,
      "hit": false,
      "t": 111178.72604166673,
      "d": 315.125,
      "v": 87
    },
    {
      "midi": 77,
      "hit": false,
      "t": 111178.72604166673,
      "d": 315.125,
      "v": 87
    },
    {
      "midi": 77,
      "hit": false,
      "t": 111567.38020833339,
      "d": 70.90312499999709,
      "v": 87
    },
    {
      "midi": 69,
      "hit": false,
      "t": 111567.38020833339,
      "d": 99.7895833333314,
      "v": 79
    },
    {
      "midi": 72,
      "hit": false,
      "t": 111567.38020833339,
      "d": 99.7895833333314,
      "v": 83
    },
    {
      "midi": 74,
      "hit": false,
      "t": 111567.38020833339,
      "d": 99.7895833333314,
      "v": 47
    },
    {
      "midi": 53,
      "hit": false,
      "t": 111816.85416666672,
      "d": 1102.9375,
      "v": 91
    },
    {
      "midi": 74,
      "hit": false,
      "t": 111953.40833333338,
      "d": 990.0177083333256,
      "v": 47
    },
    {
      "midi": 69,
      "hit": false,
      "t": 111953.40833333338,
      "d": 1092.4333333333198,
      "v": 83
    },
    {
      "midi": 77,
      "hit": false,
      "t": 111953.40833333338,
      "d": 1158.0843749999913,
      "v": 91
    },
    {
      "midi": 72,
      "hit": false,
      "t": 111953.40833333338,
      "d": 1218.4833333333227,
      "v": 91
    },
    {
      "midi": 82,
      "hit": false,
      "t": 112704.45625000005,
      "d": 126.05000000000291,
      "v": 127
    },
    {
      "midi": 81,
      "hit": false,
      "t": 112830.50625000005,
      "d": 112.91979166665988,
      "v": 127
    },
    {
      "midi": 48,
      "hit": false,
      "t": 112919.79166666672,
      "d": 840.3333333333285,
      "v": 79
    },
    {
      "midi": 79,
      "hit": false,
      "t": 112943.42604166671,
      "d": 2287.2822916666773,
      "v": 127
    },
    {
      "midi": 67,
      "hit": false,
      "t": 113198.15208333338,
      "d": 336.1333333333314,
      "v": 95
    },
    {
      "midi": 72,
      "hit": false,
      "t": 113198.15208333338,
      "d": 336.1333333333314,
      "v": 91
    },
    {
      "midi": 76,
      "hit": false,
      "t": 113198.15208333338,
      "d": 336.1333333333314,
      "v": 87
    },
    {
      "midi": 76,
      "hit": false,
      "t": 113576.30208333337,
      "d": 246.8479166666657,
      "v": 95
    },
    {
      "midi": 72,
      "hit": false,
      "t": 113576.30208333337,
      "d": 294.1166666666686,
      "v": 91
    },
    {
      "midi": 67,
      "hit": false,
      "t": 113576.30208333337,
      "d": 309.8729166666744,
      "v": 75
    },
    {
      "midi": 51,
      "hit": false,
      "t": 113823.15000000004,
      "d": 569.8510416666832,
      "v": 87
    },
    {
      "midi": 67,
      "hit": false,
      "t": 113954.45208333338,
      "d": 459.5572916666715,
      "v": 83
    },
    {
      "midi": 70,
      "hit": false,
      "t": 113954.45208333338,
      "d": 483.1916666666657,
      "v": 99
    },
    {
      "midi": 75,
      "hit": false,
      "t": 113954.45208333338,
      "d": 483.1916666666657,
      "v": 91
    },
    {
      "midi": 53,
      "hit": false,
      "t": 114458.65208333338,
      "d": 435.92291666667734,
      "v": 95
    },
    {
      "midi": 69,
      "hit": false,
      "t": 114458.65208333338,
      "d": 512.0781250000146,
      "v": 87
    },
    {
      "midi": 72,
      "hit": false,
      "t": 114458.65208333338,
      "d": 512.0781250000146,
      "v": 99
    },
    {
      "midi": 77,
      "hit": false,
      "t": 114458.65208333338,
      "d": 512.0781250000146,
      "v": 95
    },
    {
      "midi": 48,
      "hit": false,
      "t": 114857.81041666672,
      "d": 1381.2979166666628,
      "v": 75
    },
    {
      "midi": 64,
      "hit": false,
      "t": 114873.56666666672,
      "d": 1302.5166666666628,
      "v": 59
    },
    {
      "midi": 67,
      "hit": false,
      "t": 114915.58333333339,
      "d": 1260.5,
      "v": 87
    },
    {
      "midi": 72,
      "hit": false,
      "t": 114970.73020833339,
      "d": 950.6270833333256,
      "v": 87
    },
    {
      "midi": 72,
      "hit": false,
      "t": 115987.00833333339,
      "d": 1449.5750000000116,
      "v": 55
    },
    {
      "midi": 79,
      "hit": false,
      "t": 116218.10000000005,
      "d": 1236.8656250000204,
      "v": 83
    },
    {
      "midi": 84,
      "hit": false,
      "t": 116480.70416666672,
      "d": 241.59583333334012,
      "v": 67
    },
    {
      "midi": 82,
      "hit": false,
      "t": 116722.30000000006,
      "d": 690.648958333346,
      "v": 63
    },
    {
      "midi": 75,
      "hit": false,
      "t": 116974.40000000007,
      "d": 210.08333333332848,
      "v": 67
    },
    {
      "midi": 51,
      "hit": false,
      "t": 116974.40000000007,
      "d": 861.3416666666599,
      "v": 75
    },
    {
      "midi": 70,
      "hit": false,
      "t": 116974.40000000007,
      "d": 903.3583333333227,
      "v": 75
    },
    {
      "midi": 67,
      "hit": false,
      "t": 116974.40000000007,
      "d": 926.9927083333168,
      "v": 71
    },
    {
      "midi": 75,
      "hit": false,
      "t": 117210.74375000007,
      "d": 1864.4895833332994,
      "v": 55
    },
    {
      "midi": 82,
      "hit": false,
      "t": 117478.60000000006,
      "d": 210.08333333332848,
      "v": 55
    },
    {
      "midi": 84,
      "hit": false,
      "t": 117751.70833333339,
      "d": 294.11666666665406,
      "v": 59
    },
    {
      "midi": 79,
      "hit": false,
      "t": 117982.80000000005,
      "d": 653.8843749999942,
      "v": 59
    },
    {
      "midi": 82,
      "hit": false,
      "t": 118245.4041666667,
      "d": 254.7260416666686,
      "v": 51
    },
    {
      "midi": 84,
      "hit": false,
      "t": 118500.13020833337,
      "d": 504.1999999999971,
      "v": 35
    },
    {
      "midi": 72,
      "hit": false,
      "t": 119004.33020833337,
      "d": 238.9697916666628,
      "v": 87
    },
    {
      "midi": 77,
      "hit": false,
      "t": 119004.33020833337,
      "d": 470.06145833332266,
      "v": 79
    },
    {
      "midi": 53,
      "hit": false,
      "t": 119004.33020833337,
      "d": 659.1364583333198,
      "v": 91
    },
    {
      "midi": 69,
      "hit": false,
      "t": 119004.33020833337,
      "d": 827.2031249999854,
      "v": 67
    },
    {
      "midi": 72,
      "hit": false,
      "t": 119243.30000000003,
      "d": 1699.0489583333256,
      "v": 47
    },
    {
      "midi": 77,
      "hit": false,
      "t": 119505.90416666669,
      "d": 1418.0625,
      "v": 67
    },
    {
      "midi": 84,
      "hit": false,
      "t": 119752.75208333335,
      "d": 1236.8656249999913,
      "v": 75
    },
    {
      "midi": 65,
      "hit": false,
      "t": 120004.85208333336,
      "d": 961.1312499999913,
      "v": 71
    },
    {
      "midi": 79,
      "hit": false,
      "t": 120254.32604166669,
      "d": 735.291666666657,
      "v": 59
    },
    {
      "midi": 81,
      "hit": false,
      "t": 120514.30416666668,
      "d": 451.6791666666686,
      "v": 55
    },
    {
      "midi": 48,
      "hit": false,
      "t": 121008.00000000001,
      "d": 609.2416666666686,
      "v": 59
    },
    {
      "midi": 67,
      "hit": false,
      "t": 121008.00000000001,
      "d": 950.6270833333401,
      "v": 71
    },
    {
      "midi": 72,
      "hit": false,
      "t": 121008.00000000001,
      "d": 950.6270833333401,
      "v": 67
    },
    {
      "midi": 76,
      "hit": false,
      "t": 121008.00000000001,
      "d": 950.6270833333401,
      "v": 67
    },
    {
      "midi": 60,
      "hit": false,
      "t": 121520.07812500001,
      "d": 517.3302083333401,
      "v": 71
    },
    {
      "midi": 48,
      "hit": false,
      "t": 121740.66562500002,
      "d": 296.7427083333314,
      "v": 83
    },
    {
      "midi": 75,
      "hit": false,
      "t": 122019.02604166669,
      "d": 462.1833333333343,
      "v": 79
    },
    {
      "midi": 79,
      "hit": false,
      "t": 122019.02604166669,
      "d": 462.1833333333343,
      "v": 95
    },
    {
      "midi": 82,
      "hit": false,
      "t": 122019.02604166669,
      "d": 462.1833333333343,
      "v": 87
    },
    {
      "midi": 51,
      "hit": false,
      "t": 122019.02604166669,
      "d": 519.9562500000029,
      "v": 91
    },
    {
      "midi": 72,
      "hit": false,
      "t": 122538.98229166669,
      "d": 464.8093749999971,
      "v": 91
    },
    {
      "midi": 77,
      "hit": false,
      "t": 122538.98229166669,
      "d": 464.8093749999971,
      "v": 91
    },
    {
      "midi": 81,
      "hit": false,
      "t": 122538.98229166669,
      "d": 464.8093749999971,
      "v": 87
    },
    {
      "midi": 53,
      "hit": false,
      "t": 122538.98229166669,
      "d": 493.6958333333314,
      "v": 79
    },
    {
      "midi": 64,
      "hit": false,
      "t": 123003.79166666669,
      "d": 966.3833333333314,
      "v": 67
    },
    {
      "midi": 48,
      "hit": false,
      "t": 123003.79166666669,
      "d": 3051.4604166666686,
      "v": 71
    },
    {
      "midi": 67,
      "hit": false,
      "t": 123032.67812500002,
      "d": 916.4885416666657,
      "v": 79
    },
    {
      "midi": 72,
      "hit": false,
      "t": 123051.06041666669,
      "d": 898.1062499999971,
      "v": 75
    },
    {
      "midi": 79,
      "hit": false,
      "t": 123284.77812500003,
      "d": 412.2885416666686,
      "v": 67
    },
    {
      "midi": 84,
      "hit": false,
      "t": 123536.87812500003,
      "d": 913.8624999999884,
      "v": 51
    },
    {
      "midi": 79,
      "hit": false,
      "t": 123788.97812500002,
      "d": 501.5739583333343,
      "v": 31
    },
    {
      "midi": 79,
      "hit": false,
      "t": 124290.55208333336,
      "d": 940.1229166666599,
      "v": 71
    },
    {
      "midi": 84,
      "hit": false,
      "t": 124558.40833333335,
      "d": 249.47395833332848,
      "v": 71
    },
    {
      "midi": 82,
      "hit": false,
      "t": 124807.88229166668,
      "d": 401.7843750000029,
      "v": 51
    },
    {
      "midi": 87,
      "hit": false,
      "t": 124807.88229166668,
      "d": 948.0010416666773,
      "v": 59
    },
    {
      "midi": 67,
      "hit": false,
      "t": 124807.88229166668,
      "d": 1228.987500000003,
      "v": 75
    },
    {
      "midi": 75,
      "hit": false,
      "t": 124807.88229166668,
      "d": 1228.987500000003,
      "v": 67
    },
    {
      "midi": 70,
      "hit": false,
      "t": 124807.88229166668,
      "d": 1247.3697916666715,
      "v": 75
    },
    {
      "midi": 82,
      "hit": false,
      "t": 125553.67812500002,
      "d": 724.7875000000058,
      "v": 51
    },
    {
      "midi": 79,
      "hit": false,
      "t": 125797.90000000002,
      "d": 480.5656250000029,
      "v": 55
    },
    {
      "midi": 67,
      "hit": false,
      "t": 126055.25208333335,
      "d": 711.6572916666628,
      "v": 59
    },
    {
      "midi": 75,
      "hit": false,
      "t": 126312.60416666669,
      "d": 259.9781249999942,
      "v": 47
    },
    {
      "midi": 79,
      "hit": false,
      "t": 126312.60416666669,
      "d": 259.9781249999942,
      "v": 63
    },
    {
      "midi": 82,
      "hit": false,
      "t": 126312.60416666669,
      "d": 259.9781249999942,
      "v": 51
    },
    {
      "midi": 84,
      "hit": false,
      "t": 126312.60416666669,
      "d": 454.3052083333314,
      "v": 67
    },
    {
      "midi": 70,
      "hit": false,
      "t": 126572.58229166668,
      "d": 238.96979166667734,
      "v": 55
    },
    {
      "midi": 75,
      "hit": false,
      "t": 126572.58229166668,
      "d": 238.96979166667734,
      "v": 47
    },
    {
      "midi": 79,
      "hit": false,
      "t": 126572.58229166668,
      "d": 238.96979166667734,
      "v": 63
    },
    {
      "midi": 48,
      "hit": false,
      "t": 127037.39166666669,
      "d": 1176.4666666666599,
      "v": 59
    },
    {
      "midi": 69,
      "hit": false,
      "t": 127071.53020833335,
      "d": 1289.3864583333198,
      "v": 63
    },
    {
      "midi": 77,
      "hit": false,
      "t": 127071.53020833335,
      "d": 1310.3947916666511,
      "v": 75
    },
    {
      "midi": 72,
      "hit": false,
      "t": 127071.53020833335,
      "d": 1331.4031249999825,
      "v": 83
    },
    {
      "midi": 40,
      "hit": false,
      "t": 128326.77812500001,
      "d": 202.20520833332557,
      "v": 75
    },
    {
      "midi": 36,
      "hit": false,
      "t": 128486.96666666667,
      "d": 99.7895833333314,
      "v": 87
    },
    {
      "midi": 41,
      "hit": false,
      "t": 128586.75625,
      "d": 212.70937500000582,
      "v": 79
    },
    {
      "midi": 42,
      "hit": false,
      "t": 128823.1,
      "d": 170.69270833332848,
      "v": 91
    },
    {
      "midi": 43,
      "hit": false,
      "t": 128993.79270833333,
      "d": 354.515625,
      "v": 91
    },
    {
      "midi": 67,
      "hit": false,
      "t": 129088.33020833334,
      "d": 236.34375,
      "v": 95
    },
    {
      "midi": 65,
      "hit": false,
      "t": 129088.33020833334,
      "d": 259.9781249999942,
      "v": 83
    },
    {
      "midi": 72,
      "hit": false,
      "t": 129088.33020833334,
      "d": 259.9781249999942,
      "v": 87
    },
    {
      "midi": 48,
      "hit": false,
      "t": 130984.33229166667,
      "d": 1389.1760416666657,
      "v": 67
    },
    {
      "midi": 64,
      "hit": false,
      "t": 131010.59270833334,
      "d": 1302.5166666666628,
      "v": 47
    },
    {
      "midi": 67,
      "hit": false,
      "t": 131052.609375,
      "d": 1260.5,
      "v": 79
    },
    {
      "midi": 72,
      "hit": false,
      "t": 131094.62604166666,
      "d": 1260.5,
      "v": 55
    },
    {
      "midi": 60,
      "hit": false,
      "t": 131094.62604166666,
      "d": 1528.3562500000116,
      "v": 91
    },
    {
      "midi": 49,
      "hit": false,
      "t": 132355.12604166666,
      "d": 267.85625000001164,
      "v": 43
    },
    {
      "midi": 65,
      "hit": false,
      "t": 132355.12604166666,
      "d": 267.85625000001164,
      "v": 79
    },
    {
      "midi": 68,
      "hit": false,
      "t": 132355.12604166666,
      "d": 267.85625000001164,
      "v": 51
    },
    {
      "midi": 67,
      "hit": false,
      "t": 132609.85208333333,
      "d": 238.9697916666628,
      "v": 99
    },
    {
      "midi": 50,
      "hit": false,
      "t": 132622.98229166667,
      "d": 152.31041666667443,
      "v": 79
    },
    {
      "midi": 69,
      "hit": false,
      "t": 132622.98229166667,
      "d": 217.9614583333314,
      "v": 75
    },
    {
      "midi": 66,
      "hit": false,
      "t": 132622.98229166667,
      "d": 238.9697916666628,
      "v": 55
    },
    {
      "midi": 70,
      "hit": false,
      "t": 132840.94375,
      "d": 2224.2572916666686,
      "v": 51
    },
    {
      "midi": 75,
      "hit": false,
      "t": 132861.95208333334,
      "d": 2182.240625000006,
      "v": 67
    },
    {
      "midi": 67,
      "hit": false,
      "t": 132861.95208333334,
      "d": 2203.248958333337,
      "v": 79
    },
    {
      "midi": 51,
      "hit": false,
      "t": 132861.95208333334,
      "d": 2221.631250000006,
      "v": 83
    },
    {
      "midi": 63,
      "hit": false,
      "t": 132861.95208333334,
      "d": 1775.204166666692,
      "v": 91
    },
    {
      "midi": 70,
      "hit": false,
      "t": 134626.65208333335,
      "d": 236.3437500000291,
      "v": 91
    },
    {
      "midi": 69,
      "hit": false,
      "t": 134873.50000000006,
      "d": 1783.0822916666511,
      "v": 95
    },
    {
      "midi": 53,
      "hit": false,
      "t": 135143.98229166667,
      "d": 1475.8354166666686,
      "v": 55
    },
    {
      "midi": 69,
      "hit": false,
      "t": 135143.98229166667,
      "d": 1475.8354166666686,
      "v": 91
    },
    {
      "midi": 72,
      "hit": false,
      "t": 135143.98229166667,
      "d": 1475.8354166666686,
      "v": 91
    },
    {
      "midi": 77,
      "hit": false,
      "t": 135143.98229166667,
      "d": 1475.8354166666686,
      "v": 79
    },
    {
      "midi": 65,
      "hit": false,
      "t": 136640.8260416667,
      "d": 656.510416666657,
      "v": 95
    },
    {
      "midi": 74,
      "hit": false,
      "t": 136656.58229166668,
      "d": 194.3270833333372,
      "v": 55
    },
    {
      "midi": 53,
      "hit": false,
      "t": 136656.58229166668,
      "d": 215.3354166666686,
      "v": 51
    },
    {
      "midi": 69,
      "hit": false,
      "t": 136656.58229166668,
      "d": 215.3354166666686,
      "v": 43
    },
    {
      "midi": 72,
      "hit": false,
      "t": 136656.58229166668,
      "d": 215.3354166666686,
      "v": 43
    },
    {
      "midi": 77,
      "hit": false,
      "t": 136656.58229166668,
      "d": 241.59583333332557,
      "v": 51
    },
    {
      "midi": 69,
      "hit": false,
      "t": 136898.178125,
      "d": 97.1635416666686,
      "v": 63
    },
    {
      "midi": 72,
      "hit": false,
      "t": 136898.178125,
      "d": 97.1635416666686,
      "v": 59
    },
    {
      "midi": 53,
      "hit": false,
      "t": 136898.178125,
      "d": 126.04999999998836,
      "v": 71
    },
    {
      "midi": 77,
      "hit": false,
      "t": 136898.178125,
      "d": 126.04999999998836,
      "v": 79
    },
    {
      "midi": 74,
      "hit": false,
      "t": 136898.178125,
      "d": 228.46562499998254,
      "v": 55
    },
    {
      "midi": 48,
      "hit": false,
      "t": 137407.6302083333,
      "d": 1003.1479166666686,
      "v": 63
    },
    {
      "midi": 67,
      "hit": false,
      "t": 137407.6302083333,
      "d": 1691.1708333333372,
      "v": 67
    },
    {
      "midi": 72,
      "hit": false,
      "t": 137420.76041666666,
      "d": 1654.40625,
      "v": 67
    },
    {
      "midi": 76,
      "hit": false,
      "t": 137420.76041666666,
      "d": 1678.0406249999942,
      "v": 67
    },
    {
      "midi": 45,
      "hit": false,
      "t": 138413.40416666665,
      "d": 257.3520833333314,
      "v": 55
    },
    {
      "midi": 46,
      "hit": false,
      "t": 138670.75624999998,
      "d": 246.84791666668025,
      "v": 31
    },
    {
      "midi": 47,
      "hit": false,
      "t": 138917.60416666666,
      "d": 225.83958333331975,
      "v": 55
    },
    {
      "midi": 60,
      "hit": false,
      "t": 139161.8260416667,
      "d": 1499.4697916666628,
      "v": 99
    },
    {
      "midi": 48,
      "hit": false,
      "t": 139177.58229166665,
      "d": 1221.109375,
      "v": 67
    },
    {
      "midi": 64,
      "hit": false,
      "t": 139177.58229166665,
      "d": 1260.5,
      "v": 47
    },
    {
      "midi": 67,
      "hit": false,
      "t": 139177.58229166665,
      "d": 1260.5,
      "v": 79
    },
    {
      "midi": 72,
      "hit": false,
      "t": 139177.58229166665,
      "d": 1260.5,
      "v": 55
    },
    {
      "midi": 49,
      "hit": false,
      "t": 140438.08229166665,
      "d": 238.9697916666628,
      "v": 43
    },
    {
      "midi": 65,
      "hit": false,
      "t": 140438.08229166665,
      "d": 238.9697916666628,
      "v": 79
    },
    {
      "midi": 68,
      "hit": false,
      "t": 140438.08229166665,
      "d": 238.9697916666628,
      "v": 51
    },
    {
      "midi": 67,
      "hit": false,
      "t": 140669.17395833335,
      "d": 233.7177083333372,
      "v": 95
    },
    {
      "midi": 50,
      "hit": false,
      "t": 140677.0520833333,
      "d": 160.1885416666628,
      "v": 79
    },
    {
      "midi": 69,
      "hit": false,
      "t": 140677.0520833333,
      "d": 233.7177083333372,
      "v": 75
    },
    {
      "midi": 66,
      "hit": false,
      "t": 140677.0520833333,
      "d": 257.3520833333314,
      "v": 55
    },
    {
      "midi": 70,
      "hit": false,
      "t": 140910.76979166665,
      "d": 2224.2572916666395,
      "v": 51
    },
    {
      "midi": 63,
      "hit": false,
      "t": 140929.15208333335,
      "d": 1793.5864583333314,
      "v": 87
    },
    {
      "midi": 75,
      "hit": false,
      "t": 140934.40416666665,
      "d": 2176.988541666651,
      "v": 67
    },
    {
      "midi": 67,
      "hit": false,
      "t": 140934.40416666665,
      "d": 2200.6229166666453,
      "v": 79
    },
    {
      "midi": 51,
      "hit": false,
      "t": 140934.40416666665,
      "d": 2213.7531249999884,
      "v": 83
    },
    {
      "midi": 70,
      "hit": false,
      "t": 142688.6,
      "d": 275.734375,
      "v": 75
    },
    {
      "midi": 69,
      "hit": false,
      "t": 142945.95208333334,
      "d": 1775.204166666692,
      "v": 95
    },
    {
      "midi": 53,
      "hit": false,
      "t": 143195.42604166662,
      "d": 1491.5916666666744,
      "v": 55
    },
    {
      "midi": 69,
      "hit": false,
      "t": 143195.42604166662,
      "d": 1491.5916666666744,
      "v": 91
    },
    {
      "midi": 72,
      "hit": false,
      "t": 143195.42604166662,
      "d": 1491.5916666666744,
      "v": 91
    },
    {
      "midi": 77,
      "hit": false,
      "t": 143195.42604166662,
      "d": 1491.5916666666744,
      "v": 79
    },
    {
      "midi": 65,
      "hit": false,
      "t": 144708.0260416667,
      "d": 551.46875,
      "v": 87
    },
    {
      "midi": 74,
      "hit": false,
      "t": 144723.78229166663,
      "d": 191.70104166667443,
      "v": 43
    },
    {
      "midi": 69,
      "hit": false,
      "t": 144723.78229166663,
      "d": 212.70937500000582,
      "v": 43
    },
    {
      "midi": 72,
      "hit": false,
      "t": 144723.78229166663,
      "d": 212.70937500000582,
      "v": 43
    },
    {
      "midi": 53,
      "hit": false,
      "t": 144723.78229166663,
      "d": 252.10000000000582,
      "v": 51
    },
    {
      "midi": 77,
      "hit": false,
      "t": 144723.78229166663,
      "d": 252.10000000000582,
      "v": 51
    },
    {
      "midi": 72,
      "hit": false,
      "t": 144975.88229166664,
      "d": 84.03333333332557,
      "v": 59
    },
    {
      "midi": 69,
      "hit": false,
      "t": 144975.88229166664,
      "d": 115.54583333333721,
      "v": 63
    },
    {
      "midi": 77,
      "hit": false,
      "t": 144975.88229166664,
      "d": 115.54583333333721,
      "v": 79
    },
    {
      "midi": 53,
      "hit": false,
      "t": 144975.88229166664,
      "d": 131.30208333334303,
      "v": 71
    },
    {
      "midi": 74,
      "hit": false,
      "t": 144975.88229166664,
      "d": 215.3354166666686,
      "v": 43
    },
    {
      "midi": 48,
      "hit": false,
      "t": 145461.69999999998,
      "d": 1024.15625,
      "v": 63
    },
    {
      "midi": 67,
      "hit": false,
      "t": 145461.69999999998,
      "d": 1709.5531250000058,
      "v": 67
    },
    {
      "midi": 72,
      "hit": false,
      "t": 145490.5864583333,
      "d": 1654.406250000029,
      "v": 67
    },
    {
      "midi": 76,
      "hit": false,
      "t": 145490.5864583333,
      "d": 1680.666666666686,
      "v": 67
    },
    {
      "midi": 45,
      "hit": false,
      "t": 146485.85624999998,
      "d": 246.84791666668025,
      "v": 55
    },
    {
      "midi": 46,
      "hit": false,
      "t": 146732.70416666666,
      "d": 252.10000000000582,
      "v": 31
    },
    {
      "midi": 47,
      "hit": false,
      "t": 146984.80416666667,
      "d": 220.58749999999418,
      "v": 55
    },
    {
      "midi": 76,
      "hit": false,
      "t": 147234.27812499998,
      "d": 793.0645833333256,
      "v": 75
    },
    {
      "midi": 79,
      "hit": false,
      "t": 147234.27812499998,
      "d": 793.0645833333256,
      "v": 83
    },
    {
      "midi": 84,
      "hit": false,
      "t": 147234.27812499998,
      "d": 793.0645833333256,
      "v": 83
    },
    {
      "midi": 48,
      "hit": false,
      "t": 147257.91249999998,
      "d": 2003.6697916666744,
      "v": 83
    },
    {
      "midi": 76,
      "hit": false,
      "t": 148471.14375,
      "d": 162.81458333332557,
      "v": 51
    },
    {
      "midi": 79,
      "hit": false,
      "t": 148754.75624999998,
      "d": 73.52916666667443,
      "v": 63
    },
    {
      "midi": 84,
      "hit": false,
      "t": 148754.75624999998,
      "d": 73.52916666667443,
      "v": 71
    },
    {
      "midi": 76,
      "hit": false,
      "t": 148754.75624999998,
      "d": 154.9364583333372,
      "v": 63
    },
    {
      "midi": 75,
      "hit": false,
      "t": 149261.58229166665,
      "d": 551.46875,
      "v": 79
    },
    {
      "midi": 79,
      "hit": false,
      "t": 149261.58229166665,
      "d": 575.1031249999942,
      "v": 91
    },
    {
      "midi": 82,
      "hit": false,
      "t": 149261.58229166665,
      "d": 575.1031249999942,
      "v": 83
    },
    {
      "midi": 51,
      "hit": false,
      "t": 149261.58229166665,
      "d": 2001.0437500000116,
      "v": 71
    },
    {
      "midi": 75,
      "hit": false,
      "t": 150482.69166666665,
      "d": 737.9177083333489,
      "v": 47
    },
    {
      "midi": 82,
      "hit": false,
      "t": 150732.165625,
      "d": 488.4437500000058,
      "v": 67
    },
    {
      "midi": 79,
      "hit": false,
      "t": 150774.18229166666,
      "d": 446.42708333334303,
      "v": 67
    },
    {
      "midi": 84,
      "hit": false,
      "t": 150774.18229166666,
      "d": 446.42708333334303,
      "v": 83
    },
    {
      "midi": 74,
      "hit": false,
      "t": 151262.62604166666,
      "d": 567.2249999999767,
      "v": 75
    },
    {
      "midi": 77,
      "hit": false,
      "t": 151262.62604166666,
      "d": 567.2249999999767,
      "v": 91
    },
    {
      "midi": 81,
      "hit": false,
      "t": 151262.62604166666,
      "d": 567.2249999999767,
      "v": 87
    },
    {
      "midi": 84,
      "hit": false,
      "t": 151262.62604166666,
      "d": 588.2333333333081,
      "v": 91
    },
    {
      "midi": 53,
      "hit": false,
      "t": 151291.51249999998,
      "d": 1415.436458333308,
      "v": 91
    },
    {
      "midi": 77,
      "hit": false,
      "t": 152790.98229166662,
      "d": 89.28541666668025,
      "v": 79
    },
    {
      "midi": 81,
      "hit": false,
      "t": 152790.98229166662,
      "d": 107.66770833334886,
      "v": 83
    },
    {
      "midi": 84,
      "hit": false,
      "t": 152790.98229166662,
      "d": 154.9364583333372,
      "v": 83
    },
    {
      "midi": 74,
      "hit": false,
      "t": 152790.98229166662,
      "d": 362.39375000001746,
      "v": 83
    },
    {
      "midi": 53,
      "hit": false,
      "t": 152790.98229166662,
      "d": 514.7041666666919,
      "v": 63
    },
    {
      "midi": 79,
      "hit": false,
      "t": 153289.9302083333,
      "d": 1943.270833333343,
      "v": 95
    },
    {
      "midi": 84,
      "hit": false,
      "t": 153289.9302083333,
      "d": 1964.2791666666744,
      "v": 95
    },
    {
      "midi": 76,
      "hit": false,
      "t": 153305.6864583333,
      "d": 1927.5145833333372,
      "v": 79
    },
    {
      "midi": 48,
      "hit": false,
      "t": 153321.4427083333,
      "d": 1890.75,
      "v": 83
    },
    {
      "midi": 76,
      "hit": false,
      "t": 155311.98229166665,
      "d": 929.6187499999942,
      "v": 87
    },
    {
      "midi": 79,
      "hit": false,
      "t": 155311.98229166665,
      "d": 1074.0510416666511,
      "v": 87
    },
    {
      "midi": 84,
      "hit": false,
      "t": 155311.98229166665,
      "d": 1221.109374999971,
      "v": 95
    },
    {
      "midi": 48,
      "hit": false,
      "t": 155311.98229166665,
      "d": 2016.7999999999884,
      "v": 67
    },
    {
      "midi": 79,
      "hit": false,
      "t": 156821.95624999996,
      "d": 154.9364583333372,
      "v": 87
    },
    {
      "midi": 84,
      "hit": false,
      "t": 156821.95624999996,
      "d": 154.9364583333372,
      "v": 95
    },
    {
      "midi": 76,
      "hit": false,
      "t": 156821.95624999996,
      "d": 259.9781249999942,
      "v": 63
    },
    {
      "midi": 75,
      "hit": false,
      "t": 157328.78229166663,
      "d": 404.41041666668025,
      "v": 83
    },
    {
      "midi": 79,
      "hit": false,
      "t": 157328.78229166663,
      "d": 420.16666666668607,
      "v": 87
    },
    {
      "midi": 82,
      "hit": false,
      "t": 157328.78229166663,
      "d": 443.80104166668025,
      "v": 87
    },
    {
      "midi": 51,
      "hit": false,
      "t": 157328.78229166663,
      "d": 1961.6531249999825,
      "v": 63
    },
    {
      "midi": 75,
      "hit": false,
      "t": 158578.77812499998,
      "d": 730.0395833333023,
      "v": 39
    },
    {
      "midi": 79,
      "hit": false,
      "t": 158841.38229166664,
      "d": 449.0531249999767,
      "v": 83
    },
    {
      "midi": 82,
      "hit": false,
      "t": 158841.38229166664,
      "d": 449.0531249999767,
      "v": 83
    },
    {
      "midi": 84,
      "hit": false,
      "t": 158841.38229166664,
      "d": 467.4354166666453,
      "v": 87
    },
    {
      "midi": 74,
      "hit": false,
      "t": 159348.20833333328,
      "d": 693.2749999999942,
      "v": 83
    },
    {
      "midi": 77,
      "hit": false,
      "t": 159348.20833333328,
      "d": 714.2833333333256,
      "v": 87
    },
    {
      "midi": 81,
      "hit": false,
      "t": 159348.20833333328,
      "d": 714.2833333333256,
      "v": 87
    },
    {
      "midi": 84,
      "hit": false,
      "t": 159348.20833333328,
      "d": 758.9260416666511,
      "v": 87
    },
    {
      "midi": 53,
      "hit": false,
      "t": 159348.20833333328,
      "d": 1452.2010416666744,
      "v": 79
    },
    {
      "midi": 74,
      "hit": false,
      "t": 160590.32604166662,
      "d": 774.682291666657,
      "v": 43
    },
    {
      "midi": 77,
      "hit": false,
      "t": 160845.05208333328,
      "d": 519.9562499999884,
      "v": 83
    },
    {
      "midi": 81,
      "hit": false,
      "t": 160845.05208333328,
      "d": 519.9562499999884,
      "v": 83
    },
    {
      "midi": 84,
      "hit": false,
      "t": 160845.05208333328,
      "d": 519.9562499999884,
      "v": 83
    },
    {
      "midi": 53,
      "hit": false,
      "t": 160866.06041666662,
      "d": 441.17499999998836,
      "v": 47
    },
    {
      "midi": 76,
      "hit": false,
      "t": 161365.00833333327,
      "d": 1914.3843749999942,
      "v": 75
    },
    {
      "midi": 72,
      "hit": false,
      "t": 161365.00833333327,
      "d": 1932.7666666666628,
      "v": 83
    },
    {
      "midi": 79,
      "hit": false,
      "t": 161365.00833333327,
      "d": 1956.401041666657,
      "v": 83
    },
    {
      "midi": 48,
      "hit": false,
      "t": 161386.0166666666,
      "d": 1993.1656249999942,
      "v": 75
    },
    {
      "midi": 76,
      "hit": false,
      "t": 163379.1822916666,
      "d": 782.5604166666744,
      "v": 75
    },
    {
      "midi": 79,
      "hit": false,
      "t": 163379.1822916666,
      "d": 782.5604166666744,
      "v": 83
    },
    {
      "midi": 84,
      "hit": false,
      "t": 163379.1822916666,
      "d": 782.5604166666744,
      "v": 83
    },
    {
      "midi": 48,
      "hit": false,
      "t": 163379.1822916666,
      "d": 2001.0437499999825,
      "v": 83
    },
    {
      "midi": 76,
      "hit": false,
      "t": 164600.2916666666,
      "d": 173.31875000000582,
      "v": 51
    },
    {
      "midi": 79,
      "hit": false,
      "t": 164891.7822916666,
      "d": 65.65104166665697,
      "v": 63
    },
    {
      "midi": 84,
      "hit": false,
      "t": 164891.7822916666,
      "d": 65.65104166665697,
      "v": 71
    },
    {
      "midi": 76,
      "hit": false,
      "t": 164891.7822916666,
      "d": 149.68437499998254,
      "v": 63
    },
    {
      "midi": 75,
      "hit": false,
      "t": 165380.22604166658,
      "d": 569.8510416666686,
      "v": 79
    },
    {
      "midi": 79,
      "hit": false,
      "t": 165380.22604166658,
      "d": 590.859375,
      "v": 91
    },
    {
      "midi": 82,
      "hit": false,
      "t": 165380.22604166658,
      "d": 590.859375,
      "v": 83
    },
    {
      "midi": 51,
      "hit": false,
      "t": 165380.22604166658,
      "d": 2032.5562499999942,
      "v": 71
    },
    {
      "midi": 75,
      "hit": false,
      "t": 166619.71770833325,
      "d": 732.6656249999942,
      "v": 47
    },
    {
      "midi": 82,
      "hit": false,
      "t": 166869.1916666666,
      "d": 483.19166666665114,
      "v": 67
    },
    {
      "midi": 79,
      "hit": false,
      "t": 166908.5822916666,
      "d": 443.80104166665114,
      "v": 67
    },
    {
      "midi": 84,
      "hit": false,
      "t": 166908.5822916666,
      "d": 443.80104166665114,
      "v": 83
    },
    {
      "midi": 74,
      "hit": false,
      "t": 167412.78229166658,
      "d": 551.46875,
      "v": 75
    },
    {
      "midi": 77,
      "hit": false,
      "t": 167412.78229166658,
      "d": 551.46875,
      "v": 91
    },
    {
      "midi": 81,
      "hit": false,
      "t": 167412.78229166658,
      "d": 551.46875,
      "v": 87
    },
    {
      "midi": 84,
      "hit": false,
      "t": 167412.78229166658,
      "d": 569.8510416666686,
      "v": 91
    },
    {
      "midi": 53,
      "hit": false,
      "t": 167412.78229166658,
      "d": 1431.192708333343,
      "v": 91
    },
    {
      "midi": 77,
      "hit": false,
      "t": 168925.38229166658,
      "d": 89.28541666668025,
      "v": 79
    },
    {
      "midi": 81,
      "hit": false,
      "t": 168925.38229166658,
      "d": 110.29375000001164,
      "v": 83
    },
    {
      "midi": 84,
      "hit": false,
      "t": 168925.38229166658,
      "d": 149.68437500001164,
      "v": 83
    },
    {
      "midi": 74,
      "hit": false,
      "t": 168925.38229166658,
      "d": 359.7677083333547,
      "v": 83
    },
    {
      "midi": 53,
      "hit": false,
      "t": 168925.38229166658,
      "d": 504.20000000001164,
      "v": 63
    },
    {
      "midi": 76,
      "hit": false,
      "t": 169429.5822916666,
      "d": 1940.6447916666511,
      "v": 79
    },
    {
      "midi": 79,
      "hit": false,
      "t": 169429.5822916666,
      "d": 1940.6447916666511,
      "v": 95
    },
    {
      "midi": 84,
      "hit": false,
      "t": 169429.5822916666,
      "d": 1959.0270833333198,
      "v": 95
    },
    {
      "midi": 48,
      "hit": false,
      "t": 169453.2166666666,
      "d": 1896.0020833333256,
      "v": 83
    },
    {
      "midi": 76,
      "hit": false,
      "t": 171449.00833333324,
      "d": 924.3666666666686,
      "v": 87
    },
    {
      "midi": 79,
      "hit": false,
      "t": 171449.00833333324,
      "d": 1071.4249999999884,
      "v": 87
    },
    {
      "midi": 84,
      "hit": false,
      "t": 171449.00833333324,
      "d": 1218.483333333308,
      "v": 95
    },
    {
      "midi": 48,
      "hit": false,
      "t": 171449.00833333324,
      "d": 1998.4177083333198,
      "v": 67
    },
    {
      "midi": 79,
      "hit": false,
      "t": 172943.22604166655,
      "d": 170.69270833334303,
      "v": 87
    },
    {
      "midi": 84,
      "hit": false,
      "t": 172943.22604166655,
      "d": 170.69270833334303,
      "v": 95
    },
    {
      "midi": 76,
      "hit": false,
      "t": 172943.22604166655,
      "d": 273.1083333333372,
      "v": 63
    },
    {
      "midi": 75,
      "hit": false,
      "t": 173447.42604166656,
      "d": 417.5406249999942,
      "v": 83
    },
    {
      "midi": 79,
      "hit": false,
      "t": 173447.42604166656,
      "d": 441.17499999998836,
      "v": 87
    },
    {
      "midi": 82,
      "hit": false,
      "t": 173447.42604166656,
      "d": 459.55729166665697,
      "v": 87
    },
    {
      "midi": 51,
      "hit": false,
      "t": 173447.42604166656,
      "d": 1977.4093749999593,
      "v": 63
    },
    {
      "midi": 75,
      "hit": false,
      "t": 174710.55208333323,
      "d": 732.6656249999651,
      "v": 39
    },
    {
      "midi": 79,
      "hit": false,
      "t": 174975.78229166655,
      "d": 449.0531249999767,
      "v": 83
    },
    {
      "midi": 82,
      "hit": false,
      "t": 174975.78229166655,
      "d": 449.0531249999767,
      "v": 83
    },
    {
      "midi": 84,
      "hit": false,
      "t": 174975.78229166655,
      "d": 467.4354166666453,
      "v": 87
    },
    {
      "midi": 74,
      "hit": false,
      "t": 175479.98229166653,
      "d": 698.5270833333198,
      "v": 83
    },
    {
      "midi": 77,
      "hit": false,
      "t": 175479.98229166653,
      "d": 722.1614583333139,
      "v": 87
    },
    {
      "midi": 81,
      "hit": false,
      "t": 175479.98229166653,
      "d": 748.4218749999709,
      "v": 87
    },
    {
      "midi": 84,
      "hit": false,
      "t": 175479.98229166653,
      "d": 758.9260416666511,
      "v": 87
    },
    {
      "midi": 53,
      "hit": false,
      "t": 175479.98229166653,
      "d": 1452.2010416666453,
      "v": 79
    },
    {
      "midi": 74,
      "hit": false,
      "t": 176732.6041666665,
      "d": 262.60416666665697,
      "v": 43
    },
    {
      "midi": 77,
      "hit": false,
      "t": 176995.20833333317,
      "d": 128.67604166668025,
      "v": 83
    },
    {
      "midi": 81,
      "hit": false,
      "t": 176995.20833333317,
      "d": 128.67604166668025,
      "v": 83
    },
    {
      "midi": 84,
      "hit": false,
      "t": 176995.20833333317,
      "d": 152.31041666667443,
      "v": 83
    },
    {
      "midi": 53,
      "hit": false,
      "t": 176995.20833333317,
      "d": 446.42708333334303,
      "v": 47
    },
    {
      "midi": 76,
      "hit": false,
      "t": 177483.65208333317,
      "d": 265.23020833331975,
      "v": 43
    },
    {
      "midi": 79,
      "hit": false,
      "t": 177483.65208333317,
      "d": 265.23020833331975,
      "v": 55
    },
    {
      "midi": 84,
      "hit": false,
      "t": 177483.65208333317,
      "d": 265.23020833331975,
      "v": 71
    },
    {
      "midi": 48,
      "hit": false,
      "t": 177507.28645833317,
      "d": 241.59583333332557,
      "v": 55
    },
    {
      "midi": 79,
      "hit": false,
      "t": 177748.8822916665,
      "d": 338.7593749999942,
      "v": 87
    },
    {
      "midi": 82,
      "hit": false,
      "t": 177748.8822916665,
      "d": 338.7593749999942,
      "v": 87
    },
    {
      "midi": 87,
      "hit": false,
      "t": 177748.8822916665,
      "d": 367.64583333331393,
      "v": 91
    },
    {
      "midi": 82,
      "hit": false,
      "t": 178116.5281249998,
      "d": 162.81458333335468,
      "v": 59
    },
    {
      "midi": 77,
      "hit": false,
      "t": 178129.65833333315,
      "d": 149.68437500001164,
      "v": 75
    },
    {
      "midi": 86,
      "hit": false,
      "t": 178129.65833333315,
      "d": 168.06666666668025,
      "v": 79
    },
    {
      "midi": 48,
      "hit": false,
      "t": 178360.74999999983,
      "d": 254.7260416666686,
      "v": 79
    },
    {
      "midi": 75,
      "hit": false,
      "t": 178505.18229166648,
      "d": 128.67604166668025,
      "v": 91
    },
    {
      "midi": 79,
      "hit": false,
      "t": 178505.18229166648,
      "d": 128.67604166668025,
      "v": 83
    },
    {
      "midi": 82,
      "hit": false,
      "t": 178505.18229166648,
      "d": 128.67604166668025,
      "v": 91
    },
    {
      "midi": 48,
      "hit": false,
      "t": 178744.15208333317,
      "d": 225.83958333331975,
      "v": 79
    },
    {
      "midi": 77,
      "hit": false,
      "t": 178867.5760416665,
      "d": 254.7260416666686,
      "v": 95
    },
    {
      "midi": 81,
      "hit": false,
      "t": 178867.5760416665,
      "d": 254.7260416666686,
      "v": 75
    },
    {
      "midi": 72,
      "hit": false,
      "t": 178896.46249999982,
      "d": 225.83958333334886,
      "v": 87
    },
    {
      "midi": 48,
      "hit": false,
      "t": 179122.30208333317,
      "d": 254.7260416666686,
      "v": 75
    },
    {
      "midi": 70,
      "hit": false,
      "t": 179261.4822916665,
      "d": 223.21354166665697,
      "v": 91
    },
    {
      "midi": 75,
      "hit": false,
      "t": 179261.4822916665,
      "d": 223.21354166665697,
      "v": 83
    },
    {
      "midi": 79,
      "hit": false,
      "t": 179261.4822916665,
      "d": 223.21354166665697,
      "v": 99
    },
    {
      "midi": 48,
      "hit": false,
      "t": 179484.69583333316,
      "d": 869.2197916666628,
      "v": 83
    },
    {
      "midi": 67,
      "hit": false,
      "t": 179763.05624999982,
      "d": 325.62916666668025,
      "v": 91
    },
    {
      "midi": 76,
      "hit": false,
      "t": 179763.05624999982,
      "d": 346.63750000001164,
      "v": 91
    },
    {
      "midi": 67,
      "hit": false,
      "t": 180135.9541666665,
      "d": 97.1635416666686,
      "v": 87
    },
    {
      "midi": 76,
      "hit": false,
      "t": 180135.9541666665,
      "d": 97.1635416666686,
      "v": 83
    },
    {
      "midi": 48,
      "hit": false,
      "t": 180377.5499999998,
      "d": 1150.2062500000466,
      "v": 87
    },
    {
      "midi": 72,
      "hit": false,
      "t": 180506.2260416665,
      "d": 543.5906250000116,
      "v": 87
    },
    {
      "midi": 76,
      "hit": false,
      "t": 180506.2260416665,
      "d": 1050.416666666686,
      "v": 87
    },
    {
      "midi": 67,
      "hit": false,
      "t": 180506.2260416665,
      "d": 1071.4250000000175,
      "v": 87
    },
    {
      "midi": 79,
      "hit": false,
      "t": 181018.3041666665,
      "d": 538.3385416666861,
      "v": 127
    },
    {
      "midi": 51,
      "hit": false,
      "t": 181496.24374999985,
      "d": 832.4552083332965,
      "v": 99
    },
    {
      "midi": 67,
      "hit": false,
      "t": 181779.85624999984,
      "d": 320.3770833333256,
      "v": 87
    },
    {
      "midi": 70,
      "hit": false,
      "t": 181779.85624999984,
      "d": 344.01145833331975,
      "v": 87
    },
    {
      "midi": 70,
      "hit": false,
      "t": 182142.24999999983,
      "d": 152.31041666664532,
      "v": 83
    },
    {
      "midi": 67,
      "hit": false,
      "t": 182168.51041666648,
      "d": 57.77291666666861,
      "v": 75
    },
    {
      "midi": 51,
      "hit": false,
      "t": 182404.85416666648,
      "d": 1105.5635416666628,
      "v": 75
    },
    {
      "midi": 75,
      "hit": false,
      "t": 182536.15624999983,
      "d": 533.0864583333314,
      "v": 75
    },
    {
      "midi": 67,
      "hit": false,
      "t": 182536.15624999983,
      "d": 1055.6687499999825,
      "v": 87
    },
    {
      "midi": 70,
      "hit": false,
      "t": 182536.15624999983,
      "d": 1079.3031249999767,
      "v": 83
    },
    {
      "midi": 82,
      "hit": false,
      "t": 183050.8604166665,
      "d": 519.9562499999884,
      "v": 127
    },
    {
      "midi": 53,
      "hit": false,
      "t": 183541.93020833316,
      "d": 785.186458333279,
      "v": 99
    },
    {
      "midi": 81,
      "hit": false,
      "t": 183541.93020833316,
      "d": 1733.187499999971,
      "v": 127
    },
    {
      "midi": 69,
      "hit": false,
      "t": 183780.8999999998,
      "d": 341.38541666665697,
      "v": 83
    },
    {
      "midi": 72,
      "hit": false,
      "t": 183780.8999999998,
      "d": 341.38541666665697,
      "v": 91
    },
    {
      "midi": 77,
      "hit": false,
      "t": 183817.66458333313,
      "d": 304.62083333331975,
      "v": 87
    },
    {
      "midi": 72,
      "hit": false,
      "t": 184169.55416666644,
      "d": 123.42395833332557,
      "v": 87
    },
    {
      "midi": 69,
      "hit": false,
      "t": 184169.55416666644,
      "d": 144.43229166665697,
      "v": 83
    },
    {
      "midi": 77,
      "hit": false,
      "t": 184169.55416666644,
      "d": 144.43229166665697,
      "v": 91
    },
    {
      "midi": 53,
      "hit": false,
      "t": 184416.40208333312,
      "d": 1066.172916666692,
      "v": 75
    },
    {
      "midi": 69,
      "hit": false,
      "t": 184555.58229166645,
      "d": 1053.042708333378,
      "v": 83
    },
    {
      "midi": 77,
      "hit": false,
      "t": 184555.58229166645,
      "d": 1079.303125000035,
      "v": 87
    },
    {
      "midi": 72,
      "hit": false,
      "t": 184555.58229166645,
      "d": 1095.0593750000407,
      "v": 87
    },
    {
      "midi": 82,
      "hit": false,
      "t": 185301.37812499978,
      "d": 131.30208333334303,
      "v": 127
    },
    {
      "midi": 81,
      "hit": false,
      "t": 185432.68020833313,
      "d": 154.93645833336632,
      "v": 127
    },
    {
      "midi": 48,
      "hit": false,
      "t": 185545.5999999998,
      "d": 858.7156250000407,
      "v": 71
    },
    {
      "midi": 79,
      "hit": false,
      "t": 185577.1124999998,
      "d": 2006.2958333333663,
      "v": 127
    },
    {
      "midi": 67,
      "hit": false,
      "t": 185802.95208333316,
      "d": 354.515625,
      "v": 91
    },
    {
      "midi": 72,
      "hit": false,
      "t": 185802.95208333316,
      "d": 354.515625,
      "v": 91
    },
    {
      "midi": 76,
      "hit": false,
      "t": 185802.95208333316,
      "d": 354.515625,
      "v": 91
    },
    {
      "midi": 76,
      "hit": false,
      "t": 186181.10208333316,
      "d": 259.9781250000233,
      "v": 87
    },
    {
      "midi": 67,
      "hit": false,
      "t": 186181.10208333316,
      "d": 291.4906250000349,
      "v": 67
    },
    {
      "midi": 72,
      "hit": false,
      "t": 186196.85833333316,
      "d": 275.7343750000291,
      "v": 75
    },
    {
      "midi": 51,
      "hit": false,
      "t": 186441.08020833318,
      "d": 577.7291666666861,
      "v": 83
    },
    {
      "midi": 67,
      "hit": false,
      "t": 186572.38229166652,
      "d": 425.41875000001164,
      "v": 71
    },
    {
      "midi": 75,
      "hit": false,
      "t": 186572.38229166652,
      "d": 425.41875000001164,
      "v": 95
    },
    {
      "midi": 70,
      "hit": false,
      "t": 186572.38229166652,
      "d": 446.42708333334303,
      "v": 95
    },
    {
      "midi": 72,
      "hit": false,
      "t": 187076.58229166653,
      "d": 420.16666666665697,
      "v": 99
    },
    {
      "midi": 53,
      "hit": false,
      "t": 187076.58229166653,
      "d": 464.80937499998254,
      "v": 95
    },
    {
      "midi": 69,
      "hit": false,
      "t": 187076.58229166653,
      "d": 593.4854166666337,
      "v": 87
    },
    {
      "midi": 77,
      "hit": false,
      "t": 187076.58229166653,
      "d": 593.4854166666337,
      "v": 95
    },
    {
      "midi": 48,
      "hit": false,
      "t": 187575.5302083332,
      "d": 806.1947916666395,
      "v": 87
    },
    {
      "midi": 67,
      "hit": false,
      "t": 187827.63020833317,
      "d": 349.2635416666744,
      "v": 95
    },
    {
      "midi": 76,
      "hit": false,
      "t": 187827.63020833317,
      "d": 349.2635416666744,
      "v": 95
    },
    {
      "midi": 67,
      "hit": false,
      "t": 188195.2760416665,
      "d": 105.04166666665697,
      "v": 71
    },
    {
      "midi": 76,
      "hit": false,
      "t": 188216.28437499984,
      "d": 102.41562499999418,
      "v": 83
    },
    {
      "midi": 48,
      "hit": false,
      "t": 188444.74999999983,
      "d": 1150.2062499999884,
      "v": 83
    },
    {
      "midi": 72,
      "hit": false,
      "t": 188589.18229166648,
      "d": 504.20000000001164,
      "v": 87
    },
    {
      "midi": 76,
      "hit": false,
      "t": 188589.18229166648,
      "d": 1095.0593750000116,
      "v": 91
    },
    {
      "midi": 67,
      "hit": false,
      "t": 188589.18229166648,
      "d": 1118.6937500000058,
      "v": 91
    },
    {
      "midi": 79,
      "hit": false,
      "t": 189093.3822916665,
      "d": 551.46875,
      "v": 127
    },
    {
      "midi": 51,
      "hit": false,
      "t": 189594.9562499998,
      "d": 753.6739583333256,
      "v": 87
    },
    {
      "midi": 70,
      "hit": false,
      "t": 189831.2999999998,
      "d": 362.39374999998836,
      "v": 91
    },
    {
      "midi": 67,
      "hit": false,
      "t": 189857.56041666647,
      "d": 336.1333333333314,
      "v": 79
    },
    {
      "midi": 67,
      "hit": false,
      "t": 190219.95416666646,
      "d": 70.90312500001164,
      "v": 79
    },
    {
      "midi": 70,
      "hit": false,
      "t": 190219.95416666646,
      "d": 128.67604166668025,
      "v": 79
    },
    {
      "midi": 51,
      "hit": false,
      "t": 190472.05416666646,
      "d": 1102.9375,
      "v": 79
    },
    {
      "midi": 75,
      "hit": false,
      "t": 190605.98229166647,
      "d": 509.4520833333372,
      "v": 79
    },
    {
      "midi": 67,
      "hit": false,
      "t": 190605.98229166647,
      "d": 1032.0343749999884,
      "v": 79
    },
    {
      "midi": 70,
      "hit": false,
      "t": 190605.98229166647,
      "d": 1076.677083333314,
      "v": 75
    },
    {
      "midi": 82,
      "hit": false,
      "t": 191104.93020833313,
      "d": 509.4520833333372,
      "v": 127
    },
    {
      "midi": 53,
      "hit": false,
      "t": 191614.38229166646,
      "d": 716.9093749999593,
      "v": 99
    },
    {
      "midi": 81,
      "hit": false,
      "t": 191614.38229166646,
      "d": 1725.3093749999534,
      "v": 127
    },
    {
      "midi": 69,
      "hit": false,
      "t": 191866.48229166644,
      "d": 299.3687499999942,
      "v": 83
    },
    {
      "midi": 72,
      "hit": false,
      "t": 191866.48229166644,
      "d": 299.3687499999942,
      "v": 87
    },
    {
      "midi": 77,
      "hit": false,
      "t": 191866.48229166644,
      "d": 299.3687499999942,
      "v": 87
    },
    {
      "midi": 77,
      "hit": false,
      "t": 192226.24999999977,
      "d": 84.03333333332557,
      "v": 87
    },
    {
      "midi": 69,
      "hit": false,
      "t": 192226.24999999977,
      "d": 105.04166666665697,
      "v": 79
    },
    {
      "midi": 72,
      "hit": false,
      "t": 192226.24999999977,
      "d": 105.04166666665697,
      "v": 83
    },
    {
      "midi": 53,
      "hit": false,
      "t": 192488.85416666642,
      "d": 1100.3114583333372,
      "v": 91
    },
    {
      "midi": 77,
      "hit": false,
      "t": 192583.39166666643,
      "d": 1176.4666666666744,
      "v": 91
    },
    {
      "midi": 69,
      "hit": false,
      "t": 192607.02604166642,
      "d": 1110.8156250000175,
      "v": 83
    },
    {
      "midi": 72,
      "hit": false,
      "t": 192607.02604166642,
      "d": 1236.8656250000058,
      "v": 91
    },
    {
      "midi": 82,
      "hit": false,
      "t": 193376.45624999976,
      "d": 133.92812500000582,
      "v": 127
    },
    {
      "midi": 81,
      "hit": false,
      "t": 193492.0020833331,
      "d": 133.92812500000582,
      "v": 127
    },
    {
      "midi": 48,
      "hit": false,
      "t": 193589.16562499976,
      "d": 842.9593750000349,
      "v": 79
    },
    {
      "midi": 79,
      "hit": false,
      "t": 193625.9302083331,
      "d": 2279.4041666666744,
      "v": 127
    },
    {
      "midi": 67,
      "hit": false,
      "t": 193883.28229166643,
      "d": 328.25520833334303,
      "v": 95
    },
    {
      "midi": 72,
      "hit": false,
      "t": 193883.28229166643,
      "d": 328.25520833334303,
      "v": 91
    },
    {
      "midi": 76,
      "hit": false,
      "t": 193883.28229166643,
      "d": 328.25520833334303,
      "v": 87
    },
    {
      "midi": 76,
      "hit": false,
      "t": 194261.43229166645,
      "d": 244.22187500001746,
      "v": 95
    },
    {
      "midi": 72,
      "hit": false,
      "t": 194261.43229166645,
      "d": 275.7343750000291,
      "v": 91
    },
    {
      "midi": 67,
      "hit": false,
      "t": 194261.43229166645,
      "d": 299.3687500000233,
      "v": 75
    },
    {
      "midi": 51,
      "hit": false,
      "t": 194505.65416666647,
      "d": 556.7208333333256,
      "v": 87
    },
    {
      "midi": 67,
      "hit": false,
      "t": 194639.58229166648,
      "d": 446.42708333331393,
      "v": 83
    },
    {
      "midi": 70,
      "hit": false,
      "t": 194639.58229166648,
      "d": 464.80937499998254,
      "v": 99
    },
    {
      "midi": 75,
      "hit": false,
      "t": 194639.58229166648,
      "d": 464.80937499998254,
      "v": 91
    },
    {
      "midi": 53,
      "hit": false,
      "t": 195143.78229166646,
      "d": 422.79270833331975,
      "v": 95
    },
    {
      "midi": 69,
      "hit": false,
      "t": 195143.78229166646,
      "d": 498.94791666665697,
      "v": 87
    },
    {
      "midi": 72,
      "hit": false,
      "t": 195143.78229166646,
      "d": 498.94791666665697,
      "v": 99
    },
    {
      "midi": 77,
      "hit": false,
      "t": 195143.78229166646,
      "d": 498.94791666665697,
      "v": 95
    },
    {
      "midi": 48,
      "hit": false,
      "t": 195527.18437499978,
      "d": 1383.9239583333256,
      "v": 83
    },
    {
      "midi": 64,
      "hit": false,
      "t": 195550.81874999977,
      "d": 1299.890625,
      "v": 83
    },
    {
      "midi": 67,
      "hit": false,
      "t": 195590.20937499977,
      "d": 1260.5,
      "v": 91
    },
    {
      "midi": 72,
      "hit": false,
      "t": 195642.73020833312,
      "d": 953.2531249999884,
      "v": 91
    },
    {
      "midi": 72,
      "hit": false,
      "t": 196661.63437499976,
      "d": 1446.9489583333489,
      "v": 75
    },
    {
      "midi": 79,
      "hit": false,
      "t": 196892.72604166644,
      "d": 1236.8656250000058,
      "v": 87
    },
    {
      "midi": 84,
      "hit": false,
      "t": 197142.19999999978,
      "d": 262.60416666665697,
      "v": 79
    },
    {
      "midi": 51,
      "hit": false,
      "t": 197404.80416666644,
      "d": 853.4635416666861,
      "v": 71
    },
    {
      "midi": 70,
      "hit": false,
      "t": 197404.80416666644,
      "d": 913.8625000000175,
      "v": 71
    },
    {
      "midi": 82,
      "hit": false,
      "t": 197420.56041666644,
      "d": 669.640625,
      "v": 83
    },
    {
      "midi": 67,
      "hit": false,
      "t": 197420.56041666644,
      "d": 898.1062500000116,
      "v": 71
    },
    {
      "midi": 75,
      "hit": false,
      "t": 197887.99583333312,
      "d": 1859.2374999999884,
      "v": 83
    },
    {
      "midi": 82,
      "hit": false,
      "t": 198179.48645833312,
      "d": 183.82291666665697,
      "v": 83
    },
    {
      "midi": 84,
      "hit": false,
      "t": 198402.69999999978,
      "d": 296.7427083333314,
      "v": 59
    },
    {
      "midi": 79,
      "hit": false,
      "t": 198660.0520833331,
      "d": 648.6322916666686,
      "v": 59
    },
    {
      "midi": 82,
      "hit": false,
      "t": 198914.77812499978,
      "d": 267.85625000001164,
      "v": 51
    },
    {
      "midi": 84,
      "hit": false,
      "t": 199169.50416666645,
      "d": 498.94791666665697,
      "v": 35
    },
    {
      "midi": 72,
      "hit": false,
      "t": 199668.4520833331,
      "d": 204.83124999998836,
      "v": 59
    },
    {
      "midi": 65,
      "hit": false,
      "t": 199668.4520833331,
      "d": 987.3916666666337,
      "v": 67
    },
    {
      "midi": 69,
      "hit": false,
      "t": 199668.4520833331,
      "d": 1404.9322916665988,
      "v": 71
    },
    {
      "midi": 53,
      "hit": false,
      "t": 199689.46041666644,
      "d": 1213.2312499999534,
      "v": 79
    },
    {
      "midi": 72,
      "hit": false,
      "t": 199920.55208333308,
      "d": 1152.832291666622,
      "v": 47
    },
    {
      "midi": 77,
      "hit": false,
      "t": 200177.9041666664,
      "d": 1418.062499999971,
      "v": 63
    },
    {
      "midi": 84,
      "hit": false,
      "t": 200430.00416666642,
      "d": 1242.1177083333023,
      "v": 71
    },
    {
      "midi": 65,
      "hit": false,
      "t": 200676.85208333307,
      "d": 459.55729166662786,
      "v": 71
    },
    {
      "midi": 79,
      "hit": false,
      "t": 200928.95208333305,
      "d": 743.1697916666744,
      "v": 55
    },
    {
      "midi": 53,
      "hit": false,
      "t": 201049.7499999997,
      "d": 144.43229166665697,
      "v": 47
    },
    {
      "midi": 65,
      "hit": false,
      "t": 201194.18229166637,
      "d": 94.53750000000582,
      "v": 47
    },
    {
      "midi": 69,
      "hit": false,
      "t": 201194.18229166637,
      "d": 94.53750000000582,
      "v": 51
    },
    {
      "midi": 72,
      "hit": false,
      "t": 201194.18229166637,
      "d": 94.53750000000582,
      "v": 47
    },
    {
      "midi": 81,
      "hit": false,
      "t": 201194.18229166637,
      "d": 446.42708333334303,
      "v": 47
    },
    {
      "midi": 53,
      "hit": false,
      "t": 201304.47604166638,
      "d": 147.05833333334886,
      "v": 67
    },
    {
      "midi": 65,
      "hit": false,
      "t": 201441.03020833305,
      "d": 154.9364583333372,
      "v": 71
    },
    {
      "midi": 69,
      "hit": false,
      "t": 201441.03020833305,
      "d": 175.9447916666686,
      "v": 75
    },
    {
      "midi": 72,
      "hit": false,
      "t": 201441.03020833305,
      "d": 199.5791666666628,
      "v": 67
    },
    {
      "midi": 64,
      "hit": false,
      "t": 201672.12187499972,
      "d": 995.2697916666802,
      "v": 83
    },
    {
      "midi": 67,
      "hit": false,
      "t": 201672.12187499972,
      "d": 995.2697916666802,
      "v": 87
    },
    {
      "midi": 72,
      "hit": false,
      "t": 201672.12187499972,
      "d": 1018.9041666666744,
      "v": 71
    },
    {
      "midi": 60,
      "hit": false,
      "t": 202194.7041666664,
      "d": 519.9562499999884,
      "v": 67
    },
    {
      "midi": 48,
      "hit": false,
      "t": 202417.91770833306,
      "d": 273.1083333333372,
      "v": 83
    },
    {
      "midi": 75,
      "hit": false,
      "t": 202691.0260416664,
      "d": 459.55729166665697,
      "v": 79
    },
    {
      "midi": 79,
      "hit": false,
      "t": 202691.0260416664,
      "d": 459.55729166665697,
      "v": 95
    },
    {
      "midi": 82,
      "hit": false,
      "t": 202691.0260416664,
      "d": 459.55729166665697,
      "v": 87
    },
    {
      "midi": 51,
      "hit": false,
      "t": 202691.0260416664,
      "d": 519.9562499999884,
      "v": 91
    },
    {
      "midi": 72,
      "hit": false,
      "t": 203210.98229166638,
      "d": 467.4354166666744,
      "v": 91
    },
    {
      "midi": 77,
      "hit": false,
      "t": 203210.98229166638,
      "d": 467.4354166666744,
      "v": 91
    },
    {
      "midi": 81,
      "hit": false,
      "t": 203210.98229166638,
      "d": 467.4354166666744,
      "v": 87
    },
    {
      "midi": 53,
      "hit": false,
      "t": 203210.98229166638,
      "d": 493.6958333333314,
      "v": 79
    },
    {
      "midi": 64,
      "hit": false,
      "t": 203678.41770833306,
      "d": 963.7572916666686,
      "v": 67
    },
    {
      "midi": 48,
      "hit": false,
      "t": 203678.41770833306,
      "d": 3051.4604166666686,
      "v": 71
    },
    {
      "midi": 67,
      "hit": false,
      "t": 203704.67812499971,
      "d": 919.114583333343,
      "v": 79
    },
    {
      "midi": 72,
      "hit": false,
      "t": 203717.80833333306,
      "d": 905.984375,
      "v": 75
    },
    {
      "midi": 79,
      "hit": false,
      "t": 203959.40416666638,
      "d": 409.6625000000058,
      "v": 79
    },
    {
      "midi": 84,
      "hit": false,
      "t": 204214.13020833305,
      "d": 911.2364583333547,
      "v": 67
    },
    {
      "midi": 79,
      "hit": false,
      "t": 204458.35208333307,
      "d": 498.94791666665697,
      "v": 47
    },
    {
      "midi": 79,
      "hit": false,
      "t": 204957.29999999973,
      "d": 945.375,
      "v": 71
    },
    {
      "midi": 84,
      "hit": false,
      "t": 205233.03437499973,
      "d": 246.84791666668025,
      "v": 71
    },
    {
      "midi": 82,
      "hit": false,
      "t": 205479.8822916664,
      "d": 401.78437499998836,
      "v": 51
    },
    {
      "midi": 87,
      "hit": false,
      "t": 205479.8822916664,
      "d": 945.375,
      "v": 59
    },
    {
      "midi": 67,
      "hit": false,
      "t": 205479.8822916664,
      "d": 1226.3614583333256,
      "v": 75
    },
    {
      "midi": 75,
      "hit": false,
      "t": 205479.8822916664,
      "d": 1226.3614583333256,
      "v": 67
    },
    {
      "midi": 70,
      "hit": false,
      "t": 205479.8822916664,
      "d": 1249.9958333333198,
      "v": 75
    },
    {
      "midi": 82,
      "hit": false,
      "t": 206230.93020833307,
      "d": 724.7874999999767,
      "v": 51
    },
    {
      "midi": 79,
      "hit": false,
      "t": 206469.89999999973,
      "d": 519.9562499999884,
      "v": 55
    },
    {
      "midi": 67,
      "hit": false,
      "t": 206729.87812499973,
      "d": 706.4052083333372,
      "v": 71
    },
    {
      "midi": 75,
      "hit": false,
      "t": 206989.85624999972,
      "d": 252.10000000000582,
      "v": 55
    },
    {
      "midi": 79,
      "hit": false,
      "t": 206989.85624999972,
      "d": 252.10000000000582,
      "v": 75
    },
    {
      "midi": 82,
      "hit": false,
      "t": 206989.85624999972,
      "d": 252.10000000000582,
      "v": 63
    },
    {
      "midi": 84,
      "hit": false,
      "t": 206989.85624999972,
      "d": 446.42708333334303,
      "v": 75
    },
    {
      "midi": 70,
      "hit": false,
      "t": 207241.95624999973,
      "d": 244.22187500001746,
      "v": 67
    },
    {
      "midi": 75,
      "hit": false,
      "t": 207241.95624999973,
      "d": 244.22187500001746,
      "v": 55
    },
    {
      "midi": 79,
      "hit": false,
      "t": 207241.95624999973,
      "d": 257.3520833333605,
      "v": 75
    },
    {
      "midi": 48,
      "hit": false,
      "t": 207630.61041666643,
      "d": 1171.2145833333198,
      "v": 67
    },
    {
      "midi": 77,
      "hit": false,
      "t": 207733.02604166642,
      "d": 1362.9156249999942,
      "v": 83
    },
    {
      "midi": 69,
      "hit": false,
      "t": 207733.02604166642,
      "d": 1383.9239583333256,
      "v": 79
    },
    {
      "midi": 72,
      "hit": false,
      "t": 207733.02604166642,
      "d": 1383.9239583333256,
      "v": 83
    },
    {
      "midi": 40,
      "hit": false,
      "t": 208993.52604166642,
      "d": 168.06666666665114,
      "v": 75
    },
    {
      "midi": 36,
      "hit": false,
      "t": 209161.59270833308,
      "d": 91.91145833334303,
      "v": 59
    },
    {
      "midi": 41,
      "hit": false,
      "t": 209253.50416666642,
      "d": 220.58749999999418,
      "v": 79
    },
    {
      "midi": 42,
      "hit": false,
      "t": 209505.60416666642,
      "d": 157.5625,
      "v": 91
    },
    {
      "midi": 43,
      "hit": false,
      "t": 209663.16666666642,
      "d": 359.7677083333256,
      "v": 91
    },
    {
      "midi": 67,
      "hit": false,
      "t": 209762.95624999976,
      "d": 236.34375,
      "v": 95
    },
    {
      "midi": 65,
      "hit": false,
      "t": 209762.95624999976,
      "d": 259.9781249999942,
      "v": 83
    },
    {
      "midi": 72,
      "hit": false,
      "t": 209762.95624999976,
      "d": 259.9781249999942,
      "v": 87
    },
    {
      "midi": 48,
      "hit": false,
      "t": 211661.58437499974,
      "d": 1378.671875,
      "v": 79
    },
    {
      "midi": 64,
      "hit": false,
      "t": 211679.9666666664,
      "d": 1305.1427083333256,
      "v": 63
    },
    {
      "midi": 67,
      "hit": false,
      "t": 211727.2354166664,
      "d": 1257.8739583333372,
      "v": 91
    },
    {
      "midi": 60,
      "hit": false,
      "t": 211766.62604166666,
      "d": 1512.6000000000058,
      "v": 91
    },
    {
      "midi": 72,
      "hit": false,
      "t": 211782.3822916664,
      "d": 1257.8739583333372,
      "v": 71
    },
    {
      "midi": 49,
      "hit": false,
      "t": 213040.25624999974,
      "d": 254.7260416666686,
      "v": 43
    },
    {
      "midi": 65,
      "hit": false,
      "t": 213040.25624999974,
      "d": 254.7260416666686,
      "v": 79
    },
    {
      "midi": 68,
      "hit": false,
      "t": 213040.25624999974,
      "d": 254.7260416666686,
      "v": 51
    },
    {
      "midi": 67,
      "hit": false,
      "t": 213281.85208333333,
      "d": 252.10000000000582,
      "v": 99
    },
    {
      "midi": 50,
      "hit": false,
      "t": 213294.9822916664,
      "d": 147.05833333331975,
      "v": 79
    },
    {
      "midi": 69,
      "hit": false,
      "t": 213294.9822916664,
      "d": 220.58749999999418,
      "v": 75
    },
    {
      "midi": 66,
      "hit": false,
      "t": 213294.9822916664,
      "d": 252.10000000000582,
      "v": 55
    },
    {
      "midi": 70,
      "hit": false,
      "t": 213515.5697916664,
      "d": 2221.631250000006,
      "v": 51
    },
    {
      "midi": 63,
      "hit": false,
      "t": 213528.7,
      "d": 1756.8218749999942,
      "v": 91
    },
    {
      "midi": 75,
      "hit": false,
      "t": 213547.08229166642,
      "d": 2166.484375,
      "v": 67
    },
    {
      "midi": 67,
      "hit": false,
      "t": 213547.08229166642,
      "d": 2190.118749999994,
      "v": 79
    },
    {
      "midi": 51,
      "hit": false,
      "t": 213547.08229166642,
      "d": 2211.1270833333256,
      "v": 83
    },
    {
      "midi": 70,
      "hit": false,
      "t": 215293.4,
      "d": 249.47395833334303,
      "v": 91
    },
    {
      "midi": 69,
      "hit": false,
      "t": 215542.87395833334,
      "d": 1772.578125000029,
      "v": 95
    },
    {
      "midi": 53,
      "hit": false,
      "t": 215800.2260416664,
      "d": 1488.9656250000116,
      "v": 55
    },
    {
      "midi": 69,
      "hit": false,
      "t": 215800.2260416664,
      "d": 1488.9656250000116,
      "v": 91
    },
    {
      "midi": 72,
      "hit": false,
      "t": 215800.2260416664,
      "d": 1488.9656250000116,
      "v": 91
    },
    {
      "midi": 77,
      "hit": false,
      "t": 215800.2260416664,
      "d": 1488.9656250000116,
      "v": 79
    },
    {
      "midi": 74,
      "hit": false,
      "t": 215831.73854166642,
      "d": 1457.453125,
      "v": 55
    },
    {
      "midi": 65,
      "hit": false,
      "t": 217312.8260416667,
      "d": 659.1364583333489,
      "v": 95
    },
    {
      "midi": 74,
      "hit": false,
      "t": 217325.95624999976,
      "d": 196.953125,
      "v": 55
    },
    {
      "midi": 53,
      "hit": false,
      "t": 217325.95624999976,
      "d": 220.58749999999418,
      "v": 51
    },
    {
      "midi": 69,
      "hit": false,
      "t": 217325.95624999976,
      "d": 220.58749999999418,
      "v": 43
    },
    {
      "midi": 72,
      "hit": false,
      "t": 217325.95624999976,
      "d": 220.58749999999418,
      "v": 43
    },
    {
      "midi": 77,
      "hit": false,
      "t": 217325.95624999976,
      "d": 241.59583333332557,
      "v": 51
    },
    {
      "midi": 69,
      "hit": false,
      "t": 217567.55208333308,
      "d": 105.04166666665697,
      "v": 63
    },
    {
      "midi": 72,
      "hit": false,
      "t": 217567.55208333308,
      "d": 105.04166666665697,
      "v": 59
    },
    {
      "midi": 53,
      "hit": false,
      "t": 217567.55208333308,
      "d": 120.79791666666279,
      "v": 71
    },
    {
      "midi": 77,
      "hit": false,
      "t": 217567.55208333308,
      "d": 120.79791666666279,
      "v": 79
    },
    {
      "midi": 74,
      "hit": false,
      "t": 217567.55208333308,
      "d": 228.46562499998254,
      "v": 55
    },
    {
      "midi": 48,
      "hit": false,
      "t": 218069.1260416664,
      "d": 1005.7739583333314,
      "v": 63
    },
    {
      "midi": 67,
      "hit": false,
      "t": 218069.1260416664,
      "d": 1704.3010416666511,
      "v": 67
    },
    {
      "midi": 72,
      "hit": false,
      "t": 218087.50833333307,
      "d": 1662.2843749999884,
      "v": 67
    },
    {
      "midi": 76,
      "hit": false,
      "t": 218087.50833333307,
      "d": 1685.9187499999825,
      "v": 67
    },
    {
      "midi": 45,
      "hit": false,
      "t": 219074.89999999973,
      "d": 257.3520833333314,
      "v": 55
    },
    {
      "midi": 46,
      "hit": false,
      "t": 219332.25208333306,
      "d": 257.3520833333314,
      "v": 31
    },
    {
      "midi": 47,
      "hit": false,
      "t": 219589.6041666664,
      "d": 223.21354166665697,
      "v": 55
    },
    {
      "midi": 60,
      "hit": false,
      "t": 219833.82604166673,
      "d": 1551.9906250000058,
      "v": 91
    },
    {
      "midi": 48,
      "hit": false,
      "t": 219849.5822916664,
      "d": 1221.109375,
      "v": 79
    },
    {
      "midi": 64,
      "hit": false,
      "t": 219849.5822916664,
      "d": 1244.7437499999942,
      "v": 63
    },
    {
      "midi": 67,
      "hit": false,
      "t": 219849.5822916664,
      "d": 1244.7437499999942,
      "v": 91
    },
    {
      "midi": 72,
      "hit": false,
      "t": 219849.5822916664,
      "d": 1263.1260416666628,
      "v": 71
    },
    {
      "midi": 49,
      "hit": false,
      "t": 221094.32604166638,
      "d": 270.4822916666744,
      "v": 43
    },
    {
      "midi": 65,
      "hit": false,
      "t": 221094.32604166638,
      "d": 270.4822916666744,
      "v": 79
    },
    {
      "midi": 68,
      "hit": false,
      "t": 221094.32604166638,
      "d": 270.4822916666744,
      "v": 51
    },
    {
      "midi": 67,
      "hit": false,
      "t": 221349.0520833334,
      "d": 262.60416666668607,
      "v": 95
    },
    {
      "midi": 50,
      "hit": false,
      "t": 221364.80833333306,
      "d": 147.05833333331975,
      "v": 79
    },
    {
      "midi": 69,
      "hit": false,
      "t": 221364.80833333306,
      "d": 210.08333333331393,
      "v": 75
    },
    {
      "midi": 66,
      "hit": false,
      "t": 221364.80833333306,
      "d": 236.3437499999709,
      "v": 55
    },
    {
      "midi": 70,
      "hit": false,
      "t": 221574.89166666637,
      "d": 2232.135416666628,
      "v": 59
    },
    {
      "midi": 75,
      "hit": false,
      "t": 221601.15208333303,
      "d": 2182.2406249999767,
      "v": 75
    },
    {
      "midi": 67,
      "hit": false,
      "t": 221601.15208333303,
      "d": 2205.874999999971,
      "v": 87
    },
    {
      "midi": 51,
      "hit": false,
      "t": 221601.15208333303,
      "d": 2226.8833333333023,
      "v": 91
    },
    {
      "midi": 63,
      "hit": false,
      "t": 221601.1520833334,
      "d": 1693.796875,
      "v": 91
    },
    {
      "midi": 70,
      "hit": false,
      "t": 223365.8520833334,
      "d": 509.4520833333372,
      "v": 99
    },
    {
      "midi": 69,
      "hit": false,
      "t": 223862.17395833338,
      "d": 1544.1124999999884,
      "v": 95
    },
    {
      "midi": 57,
      "hit": false,
      "t": 223883.18229166634,
      "d": 1475.8354166666395,
      "v": 55
    },
    {
      "midi": 69,
      "hit": false,
      "t": 223883.18229166634,
      "d": 1475.8354166666395,
      "v": 91
    },
    {
      "midi": 72,
      "hit": false,
      "t": 223883.18229166634,
      "d": 1475.8354166666395,
      "v": 91
    },
    {
      "midi": 77,
      "hit": false,
      "t": 223883.18229166634,
      "d": 1475.8354166666395,
      "v": 79
    },
    {
      "midi": 65,
      "hit": false,
      "t": 225380.02604166672,
      "d": 504.19999999998254,
      "v": 91
    },
    {
      "midi": 65,
      "hit": false,
      "t": 225395.7822916663,
      "d": 464.80937500001164,
      "v": 67
    },
    {
      "midi": 72,
      "hit": false,
      "t": 225395.7822916663,
      "d": 504.20000000001164,
      "v": 27
    },
    {
      "midi": 77,
      "hit": false,
      "t": 225395.7822916663,
      "d": 504.20000000001164,
      "v": 31
    },
    {
      "midi": 62,
      "hit": false,
      "t": 225881.60000000003,
      "d": 1475.8354166666686,
      "v": 87
    },
    {
      "midi": 56,
      "hit": false,
      "t": 225899.98229166633,
      "d": 1940.6447916666802,
      "v": 83
    },
    {
      "midi": 65,
      "hit": false,
      "t": 225899.98229166633,
      "d": 1940.6447916666802,
      "v": 83
    },
    {
      "midi": 68,
      "hit": false,
      "t": 225899.98229166633,
      "d": 1940.6447916666802,
      "v": 83
    },
    {
      "midi": 72,
      "hit": false,
      "t": 225899.98229166633,
      "d": 1940.6447916666802,
      "v": 91
    },
    {
      "midi": 77,
      "hit": false,
      "t": 225899.98229166633,
      "d": 1940.6447916666802,
      "v": 87
    },
    {
      "midi": 60,
      "hit": false,
      "t": 227394.20000000004,
      "d": 556.7208333333547,
      "v": 91
    },
    {
      "midi": 72,
      "hit": false,
      "t": 227901.02604166672,
      "d": 2489.4875000000175,
      "v": 15
    },
    {
      "midi": 67,
      "hit": false,
      "t": 227901.02604166672,
      "d": 2507.869791666686,
      "v": 7
    },
    {
      "midi": 76,
      "hit": false,
      "t": 227901.02604166672,
      "d": 2507.869791666686,
      "v": 11
    },
    {
      "midi": 79,
      "hit": false,
      "t": 227901.02604166672,
      "d": 2507.869791666686,
      "v": 19
    },
    {
      "midi": 84,
      "hit": false,
      "t": 227911.53020833302,
      "d": 4002.087499999965,
      "v": 95
    },
    {
      "midi": 76,
      "hit": false,
      "t": 227932.53854166635,
      "d": 722.1614583333139,
      "v": 87
    },
    {
      "midi": 79,
      "hit": false,
      "t": 227932.53854166635,
      "d": 722.1614583333139,
      "v": 91
    },
    {
      "midi": 48,
      "hit": false,
      "t": 227932.53854166635,
      "d": 3981.0791666666337,
      "v": 83
    },
    {
      "midi": 76,
      "hit": false,
      "t": 228680.96041666632,
      "d": 3232.657291666663,
      "v": 83
    },
    {
      "midi": 79,
      "hit": false,
      "t": 228680.96041666632,
      "d": 3232.657291666663,
      "v": 95
    },
    {
      "midi": 72,
      "hit": false,
      "t": 228680.96041666632,
      "d": 3269.421875,
      "v": 99
    },
    {
      "midi": 76,
      "hit": false,
      "t": 231950.38229166632,
      "d": 790.4385416666628,
      "v": 75
    },
    {
      "midi": 79,
      "hit": false,
      "t": 231950.38229166632,
      "d": 790.4385416666628,
      "v": 83
    },
    {
      "midi": 84,
      "hit": false,
      "t": 231950.38229166632,
      "d": 790.4385416666628,
      "v": 83
    },
    {
      "midi": 48,
      "hit": false,
      "t": 231950.38229166632,
      "d": 1974.7833333332965,
      "v": 83
    },
    {
      "midi": 76,
      "hit": false,
      "t": 233174.11770833298,
      "d": 162.81458333332557,
      "v": 51
    },
    {
      "midi": 79,
      "hit": false,
      "t": 233462.9822916663,
      "d": 68.27708333331975,
      "v": 63
    },
    {
      "midi": 84,
      "hit": false,
      "t": 233462.9822916663,
      "d": 68.27708333331975,
      "v": 71
    },
    {
      "midi": 76,
      "hit": false,
      "t": 233462.9822916663,
      "d": 152.31041666664532,
      "v": 63
    },
    {
      "midi": 75,
      "hit": false,
      "t": 233951.42604166627,
      "d": 567.2250000000058,
      "v": 79
    },
    {
      "midi": 79,
      "hit": false,
      "t": 233951.42604166627,
      "d": 585.6072916666744,
      "v": 91
    },
    {
      "midi": 82,
      "hit": false,
      "t": 233951.42604166627,
      "d": 585.6072916666744,
      "v": 83
    },
    {
      "midi": 51,
      "hit": false,
      "t": 233951.42604166627,
      "d": 2016.7999999999884,
      "v": 71
    },
    {
      "midi": 75,
      "hit": false,
      "t": 235193.5437499996,
      "d": 730.0395833333314,
      "v": 47
    },
    {
      "midi": 79,
      "hit": false,
      "t": 235479.78229166628,
      "d": 467.4354166666453,
      "v": 67
    },
    {
      "midi": 82,
      "hit": false,
      "t": 235479.78229166628,
      "d": 467.4354166666453,
      "v": 67
    },
    {
      "midi": 84,
      "hit": false,
      "t": 235479.78229166628,
      "d": 467.4354166666453,
      "v": 83
    },
    {
      "midi": 74,
      "hit": false,
      "t": 235968.22604166626,
      "d": 572.4770833333314,
      "v": 75
    },
    {
      "midi": 77,
      "hit": false,
      "t": 235968.22604166626,
      "d": 572.4770833333314,
      "v": 91
    },
    {
      "midi": 81,
      "hit": false,
      "t": 235968.22604166626,
      "d": 572.4770833333314,
      "v": 87
    },
    {
      "midi": 84,
      "hit": false,
      "t": 235968.22604166626,
      "d": 572.4770833333314,
      "v": 91
    },
    {
      "midi": 53,
      "hit": false,
      "t": 235991.86041666626,
      "d": 1423.3145833333256,
      "v": 91
    },
    {
      "midi": 77,
      "hit": false,
      "t": 237496.58229166624,
      "d": 89.28541666668025,
      "v": 79
    },
    {
      "midi": 81,
      "hit": false,
      "t": 237496.58229166624,
      "d": 110.29375000001164,
      "v": 83
    },
    {
      "midi": 84,
      "hit": false,
      "t": 237496.58229166624,
      "d": 154.9364583333372,
      "v": 83
    },
    {
      "midi": 74,
      "hit": false,
      "t": 237496.58229166624,
      "d": 359.7677083333256,
      "v": 83
    },
    {
      "midi": 53,
      "hit": false,
      "t": 237496.58229166624,
      "d": 530.4604166666686,
      "v": 63
    },
    {
      "midi": 79,
      "hit": false,
      "t": 237998.15624999956,
      "d": 1938.0187500000175,
      "v": 95
    },
    {
      "midi": 84,
      "hit": false,
      "t": 237998.15624999956,
      "d": 1961.6531250000116,
      "v": 95
    },
    {
      "midi": 76,
      "hit": false,
      "t": 238013.91249999957,
      "d": 1922.2625000000116,
      "v": 79
    },
    {
      "midi": 48,
      "hit": false,
      "t": 238027.0427083329,
      "d": 1885.4979166666744,
      "v": 83
    },
    {
      "midi": 76,
      "hit": false,
      "t": 240014.95624999958,
      "d": 929.6187499999942,
      "v": 87
    },
    {
      "midi": 79,
      "hit": false,
      "t": 240014.95624999958,
      "d": 1076.677083333314,
      "v": 87
    },
    {
      "midi": 84,
      "hit": false,
      "t": 240014.95624999958,
      "d": 1231.6135416666511,
      "v": 95
    },
    {
      "midi": 48,
      "hit": false,
      "t": 240014.95624999958,
      "d": 2019.4260416666802,
      "v": 67
    },
    {
      "midi": 79,
      "hit": false,
      "t": 241514.42604166624,
      "d": 173.31875000000582,
      "v": 87
    },
    {
      "midi": 84,
      "hit": false,
      "t": 241514.42604166624,
      "d": 173.31875000000582,
      "v": 95
    },
    {
      "midi": 76,
      "hit": false,
      "t": 241514.42604166624,
      "d": 273.1083333333372,
      "v": 63
    },
    {
      "midi": 75,
      "hit": false,
      "t": 242034.38229166626,
      "d": 404.41041666665114,
      "v": 83
    },
    {
      "midi": 79,
      "hit": false,
      "t": 242034.38229166626,
      "d": 422.79270833331975,
      "v": 87
    },
    {
      "midi": 82,
      "hit": false,
      "t": 242034.38229166626,
      "d": 443.80104166665114,
      "v": 87
    },
    {
      "midi": 51,
      "hit": false,
      "t": 242034.38229166626,
      "d": 1956.4010416666279,
      "v": 63
    },
    {
      "midi": 75,
      "hit": false,
      "t": 243281.75208333292,
      "d": 732.6656249999651,
      "v": 39
    },
    {
      "midi": 79,
      "hit": false,
      "t": 243546.98229166624,
      "d": 443.80104166665114,
      "v": 83
    },
    {
      "midi": 82,
      "hit": false,
      "t": 243546.98229166624,
      "d": 443.80104166665114,
      "v": 83
    },
    {
      "midi": 84,
      "hit": false,
      "t": 243546.98229166624,
      "d": 467.4354166666453,
      "v": 87
    },
    {
      "midi": 74,
      "hit": false,
      "t": 244035.42604166621,
      "d": 711.6572916666628,
      "v": 83
    },
    {
      "midi": 77,
      "hit": false,
      "t": 244035.42604166621,
      "d": 732.6656249999942,
      "v": 87
    },
    {
      "midi": 81,
      "hit": false,
      "t": 244035.42604166621,
      "d": 732.6656249999942,
      "v": 87
    },
    {
      "midi": 84,
      "hit": false,
      "t": 244035.42604166621,
      "d": 774.682291666657,
      "v": 87
    },
    {
      "midi": 53,
      "hit": false,
      "t": 244064.31249999953,
      "d": 1439.0708333333314,
      "v": 79
    },
    {
      "midi": 74,
      "hit": false,
      "t": 245301.17812499954,
      "d": 766.8041666666395,
      "v": 43
    },
    {
      "midi": 77,
      "hit": false,
      "t": 245548.0260416662,
      "d": 519.9562499999884,
      "v": 83
    },
    {
      "midi": 81,
      "hit": false,
      "t": 245548.0260416662,
      "d": 519.9562499999884,
      "v": 83
    },
    {
      "midi": 53,
      "hit": false,
      "t": 245569.03437499952,
      "d": 438.5489583333256,
      "v": 47
    },
    {
      "midi": 84,
      "hit": false,
      "t": 245569.03437499952,
      "d": 498.94791666665697,
      "v": 83
    },
    {
      "midi": 76,
      "hit": false,
      "t": 246067.98229166618,
      "d": 1914.3843749999942,
      "v": 75
    },
    {
      "midi": 72,
      "hit": false,
      "t": 246067.98229166618,
      "d": 1935.3927083333256,
      "v": 83
    },
    {
      "midi": 79,
      "hit": false,
      "t": 246067.98229166618,
      "d": 1956.401041666657,
      "v": 83
    },
    {
      "midi": 48,
      "hit": false,
      "t": 246067.98229166618,
      "d": 2016.7999999999884,
      "v": 75
    },
    {
      "midi": 76,
      "hit": false,
      "t": 248084.78229166617,
      "d": 787.8125,
      "v": 75
    },
    {
      "midi": 79,
      "hit": false,
      "t": 248084.78229166617,
      "d": 787.8125,
      "v": 83
    },
    {
      "midi": 84,
      "hit": false,
      "t": 248084.78229166617,
      "d": 787.8125,
      "v": 83
    },
    {
      "midi": 48,
      "hit": false,
      "t": 248084.78229166617,
      "d": 2016.7999999999884,
      "v": 83
    },
    {
      "midi": 76,
      "hit": false,
      "t": 249305.89166666617,
      "d": 170.69270833334303,
      "v": 51
    },
    {
      "midi": 79,
      "hit": false,
      "t": 249581.62604166617,
      "d": 81.40729166666279,
      "v": 63
    },
    {
      "midi": 84,
      "hit": false,
      "t": 249581.62604166617,
      "d": 81.40729166666279,
      "v": 71
    },
    {
      "midi": 76,
      "hit": false,
      "t": 249581.62604166617,
      "d": 186.44895833331975,
      "v": 63
    },
    {
      "midi": 75,
      "hit": false,
      "t": 250101.58229166616,
      "d": 551.46875,
      "v": 79
    },
    {
      "midi": 79,
      "hit": false,
      "t": 250101.58229166616,
      "d": 575.1031249999942,
      "v": 91
    },
    {
      "midi": 82,
      "hit": false,
      "t": 250101.58229166616,
      "d": 575.1031249999942,
      "v": 83
    },
    {
      "midi": 51,
      "hit": false,
      "t": 250101.58229166616,
      "d": 2019.4260416666802,
      "v": 71
    },
    {
      "midi": 75,
      "hit": false,
      "t": 251327.94374999948,
      "d": 735.2916666666861,
      "v": 47
    },
    {
      "midi": 79,
      "hit": false,
      "t": 251616.80833333282,
      "d": 467.4354166666744,
      "v": 67
    },
    {
      "midi": 82,
      "hit": false,
      "t": 251616.80833333282,
      "d": 467.4354166666744,
      "v": 67
    },
    {
      "midi": 84,
      "hit": false,
      "t": 251616.80833333282,
      "d": 467.4354166666744,
      "v": 83
    },
    {
      "midi": 74,
      "hit": false,
      "t": 252121.00833333284,
      "d": 554.0947916666628,
      "v": 75
    },
    {
      "midi": 77,
      "hit": false,
      "t": 252121.00833333284,
      "d": 554.0947916666628,
      "v": 91
    },
    {
      "midi": 81,
      "hit": false,
      "t": 252121.00833333284,
      "d": 554.0947916666628,
      "v": 87
    },
    {
      "midi": 84,
      "hit": false,
      "t": 252121.00833333284,
      "d": 569.8510416666686,
      "v": 91
    },
    {
      "midi": 53,
      "hit": false,
      "t": 252121.00833333284,
      "d": 1428.5666666666802,
      "v": 91
    },
    {
      "midi": 77,
      "hit": false,
      "t": 253633.60833333284,
      "d": 86.65937499998836,
      "v": 79
    },
    {
      "midi": 81,
      "hit": false,
      "t": 253633.60833333284,
      "d": 107.66770833331975,
      "v": 83
    },
    {
      "midi": 84,
      "hit": false,
      "t": 253633.60833333284,
      "d": 147.05833333331975,
      "v": 83
    },
    {
      "midi": 74,
      "hit": false,
      "t": 253633.60833333284,
      "d": 357.1416666666628,
      "v": 83
    },
    {
      "midi": 53,
      "hit": false,
      "t": 253633.60833333284,
      "d": 509.4520833333372,
      "v": 63
    },
    {
      "midi": 79,
      "hit": false,
      "t": 254119.4260416662,
      "d": 1948.5229166666686,
      "v": 95
    },
    {
      "midi": 84,
      "hit": false,
      "t": 254119.4260416662,
      "d": 1974.7833333333256,
      "v": 95
    },
    {
      "midi": 76,
      "hit": false,
      "t": 254143.06041666618,
      "d": 1924.8885416666744,
      "v": 79
    },
    {
      "midi": 48,
      "hit": false,
      "t": 254161.44270833285,
      "d": 1888.1239583333372,
      "v": 83
    },
    {
      "midi": 76,
      "hit": false,
      "t": 256151.98229166618,
      "d": 932.244791666657,
      "v": 87
    },
    {
      "midi": 79,
      "hit": false,
      "t": 256151.98229166618,
      "d": 1076.677083333314,
      "v": 87
    },
    {
      "midi": 84,
      "hit": false,
      "t": 256151.98229166618,
      "d": 1223.7354166666337,
      "v": 95
    },
    {
      "midi": 48,
      "hit": false,
      "t": 256151.98229166618,
      "d": 2016.7999999999593,
      "v": 67
    },
    {
      "midi": 79,
      "hit": false,
      "t": 257651.4520833328,
      "d": 162.81458333332557,
      "v": 87
    },
    {
      "midi": 84,
      "hit": false,
      "t": 257651.4520833328,
      "d": 162.81458333332557,
      "v": 95
    },
    {
      "midi": 76,
      "hit": false,
      "t": 257651.4520833328,
      "d": 270.4822916666453,
      "v": 63
    },
    {
      "midi": 75,
      "hit": false,
      "t": 258168.78229166614,
      "d": 401.78437499998836,
      "v": 83
    },
    {
      "midi": 79,
      "hit": false,
      "t": 258168.78229166614,
      "d": 425.41874999998254,
      "v": 87
    },
    {
      "midi": 82,
      "hit": false,
      "t": 258168.78229166614,
      "d": 443.80104166665114,
      "v": 87
    },
    {
      "midi": 51,
      "hit": false,
      "t": 258168.78229166614,
      "d": 1961.6531249999534,
      "v": 63
    },
    {
      "midi": 75,
      "hit": false,
      "t": 259416.1520833328,
      "d": 727.4135416666395,
      "v": 39
    },
    {
      "midi": 79,
      "hit": false,
      "t": 259681.38229166612,
      "d": 449.0531249999767,
      "v": 83
    },
    {
      "midi": 82,
      "hit": false,
      "t": 259681.38229166612,
      "d": 449.0531249999767,
      "v": 83
    },
    {
      "midi": 84,
      "hit": false,
      "t": 259681.38229166612,
      "d": 462.18333333331975,
      "v": 87
    },
    {
      "midi": 74,
      "hit": false,
      "t": 260185.5822916661,
      "d": 693.2749999999942,
      "v": 83
    },
    {
      "midi": 77,
      "hit": false,
      "t": 260185.5822916661,
      "d": 722.1614583333139,
      "v": 87
    },
    {
      "midi": 81,
      "hit": false,
      "t": 260185.5822916661,
      "d": 722.1614583333139,
      "v": 87
    },
    {
      "midi": 84,
      "hit": false,
      "t": 260185.5822916661,
      "d": 761.5520833333139,
      "v": 87
    },
    {
      "midi": 53,
      "hit": false,
      "t": 260185.5822916661,
      "d": 1452.2010416666453,
      "v": 79
    },
    {
      "midi": 74,
      "hit": false,
      "t": 261438.20416666608,
      "d": 259.9781249999942,
      "v": 43
    },
    {
      "midi": 77,
      "hit": false,
      "t": 261698.18229166607,
      "d": 133.92812500000582,
      "v": 83
    },
    {
      "midi": 81,
      "hit": false,
      "t": 261698.18229166607,
      "d": 133.92812500000582,
      "v": 83
    },
    {
      "midi": 84,
      "hit": false,
      "t": 261698.18229166607,
      "d": 152.31041666667443,
      "v": 83
    },
    {
      "midi": 53,
      "hit": false,
      "t": 261698.18229166607,
      "d": 443.80104166668025,
      "v": 47
    },
    {
      "midi": 48,
      "hit": false,
      "t": 262202.3822916661,
      "d": 238.9697916666628,
      "v": 55
    },
    {
      "midi": 76,
      "hit": false,
      "t": 262202.3822916661,
      "d": 238.9697916666628,
      "v": 43
    },
    {
      "midi": 79,
      "hit": false,
      "t": 262202.3822916661,
      "d": 238.9697916666628,
      "v": 55
    },
    {
      "midi": 84,
      "hit": false,
      "t": 262202.3822916661,
      "d": 238.9697916666628,
      "v": 71
    },
    {
      "midi": 79,
      "hit": false,
      "t": 262441.3520833328,
      "d": 351.8895833333372,
      "v": 87
    },
    {
      "midi": 82,
      "hit": false,
      "t": 262441.3520833328,
      "d": 351.8895833333372,
      "v": 87
    },
    {
      "midi": 87,
      "hit": false,
      "t": 262441.3520833328,
      "d": 380.77604166668607,
      "v": 91
    },
    {
      "midi": 82,
      "hit": false,
      "t": 262822.12812499946,
      "d": 160.1885416666628,
      "v": 59
    },
    {
      "midi": 77,
      "hit": false,
      "t": 262845.7624999995,
      "d": 136.5541666666395,
      "v": 75
    },
    {
      "midi": 86,
      "hit": false,
      "t": 262845.7624999995,
      "d": 157.5625,
      "v": 79
    },
    {
      "midi": 48,
      "hit": false,
      "t": 263068.9760416662,
      "d": 438.5489583333256,
      "v": 87
    },
    {
      "midi": 75,
      "hit": false,
      "t": 263210.7822916662,
      "d": 131.30208333331393,
      "v": 91
    },
    {
      "midi": 79,
      "hit": false,
      "t": 263210.7822916662,
      "d": 131.30208333331393,
      "v": 83
    },
    {
      "midi": 82,
      "hit": false,
      "t": 263210.7822916662,
      "d": 131.30208333331393,
      "v": 91
    },
    {
      "midi": 72,
      "hit": false,
      "t": 263588.93229166616,
      "d": 233.7177083333372,
      "v": 87
    },
    {
      "midi": 77,
      "hit": false,
      "t": 263588.93229166616,
      "d": 233.7177083333372,
      "v": 95
    },
    {
      "midi": 81,
      "hit": false,
      "t": 263588.93229166616,
      "d": 233.7177083333372,
      "v": 75
    },
    {
      "midi": 48,
      "hit": false,
      "t": 263822.6499999995,
      "d": 259.9781250000233,
      "v": 87
    },
    {
      "midi": 70,
      "hit": false,
      "t": 263967.0822916662,
      "d": 217.9614583333605,
      "v": 91
    },
    {
      "midi": 75,
      "hit": false,
      "t": 263967.0822916662,
      "d": 217.9614583333605,
      "v": 83
    },
    {
      "midi": 79,
      "hit": false,
      "t": 263967.0822916662,
      "d": 217.9614583333605,
      "v": 99
    },
    {
      "midi": 48,
      "hit": false,
      "t": 264203.4260416662,
      "d": 858.7156250000116,
      "v": 83
    },
    {
      "midi": 67,
      "hit": false,
      "t": 264455.5260416662,
      "d": 336.1333333333605,
      "v": 91
    },
    {
      "midi": 76,
      "hit": false,
      "t": 264455.5260416662,
      "d": 354.515625,
      "v": 91
    },
    {
      "midi": 67,
      "hit": false,
      "t": 264844.1802083329,
      "d": 97.1635416666395,
      "v": 87
    },
    {
      "midi": 76,
      "hit": false,
      "t": 264844.1802083329,
      "d": 97.1635416666395,
      "v": 83
    },
    {
      "midi": 48,
      "hit": false,
      "t": 265091.02812499955,
      "d": 1142.3281249999418,
      "v": 87
    },
    {
      "midi": 72,
      "hit": false,
      "t": 265227.5822916662,
      "d": 527.8343749999767,
      "v": 87
    },
    {
      "midi": 76,
      "hit": false,
      "t": 265227.5822916662,
      "d": 1037.286458333314,
      "v": 87
    },
    {
      "midi": 67,
      "hit": false,
      "t": 265227.5822916662,
      "d": 1060.9208333333372,
      "v": 87
    },
    {
      "midi": 79,
      "hit": false,
      "t": 265739.6604166662,
      "d": 525.2083333333139,
      "v": 127
    },
    {
      "midi": 51,
      "hit": false,
      "t": 266199.2177083328,
      "d": 837.7072916668258,
      "v": 99
    },
    {
      "midi": 67,
      "hit": false,
      "t": 266485.4562499995,
      "d": 320.3770833333256,
      "v": 87
    },
    {
      "midi": 70,
      "hit": false,
      "t": 266485.4562499995,
      "d": 344.01145833334886,
      "v": 87
    },
    {
      "midi": 70,
      "hit": false,
      "t": 266853.1020833329,
      "d": 141.8062500000815,
      "v": 83
    },
    {
      "midi": 67,
      "hit": false,
      "t": 266874.11041666626,
      "d": 60.3989583333605,
      "v": 75
    },
    {
      "midi": 51,
      "hit": false,
      "t": 267105.202083333,
      "d": 1108.1895833333256,
      "v": 75
    },
    {
      "midi": 75,
      "hit": false,
      "t": 267236.5041666663,
      "d": 535.7125000000233,
      "v": 75
    },
    {
      "midi": 67,
      "hit": false,
      "t": 267257.51249999966,
      "d": 1039.9124999999767,
      "v": 87
    },
    {
      "midi": 70,
      "hit": false,
      "t": 267257.51249999966,
      "d": 1060.9208333333372,
      "v": 83
    },
    {
      "midi": 82,
      "hit": false,
      "t": 267761.7124999997,
      "d": 517.3302083333256,
      "v": 127
    },
    {
      "midi": 53,
      "hit": false,
      "t": 268252.7822916663,
      "d": 782.5604166667326,
      "v": 99
    },
    {
      "midi": 81,
      "hit": false,
      "t": 268252.7822916663,
      "d": 1727.9354166667326,
      "v": 127
    },
    {
      "midi": 69,
      "hit": false,
      "t": 268507.508333333,
      "d": 315.125,
      "v": 83
    },
    {
      "midi": 72,
      "hit": false,
      "t": 268507.508333333,
      "d": 315.125,
      "v": 91
    },
    {
      "midi": 77,
      "hit": false,
      "t": 268507.508333333,
      "d": 315.125,
      "v": 87
    },
    {
      "midi": 72,
      "hit": false,
      "t": 268867.27604166634,
      "d": 123.42395833332557,
      "v": 87
    },
    {
      "midi": 69,
      "hit": false,
      "t": 268867.27604166634,
      "d": 147.05833333334886,
      "v": 83
    },
    {
      "midi": 77,
      "hit": false,
      "t": 268867.27604166634,
      "d": 147.05833333334886,
      "v": 91
    },
    {
      "midi": 53,
      "hit": false,
      "t": 269122.00208333303,
      "d": 1066.1729166666628,
      "v": 75
    },
    {
      "midi": 69,
      "hit": false,
      "t": 269245.42604166636,
      "d": 1071.4249999999884,
      "v": 83
    },
    {
      "midi": 77,
      "hit": false,
      "t": 269245.42604166636,
      "d": 1089.8072916666279,
      "v": 87
    },
    {
      "midi": 72,
      "hit": false,
      "t": 269274.3124999997,
      "d": 1084.5552083333023,
      "v": 87
    },
    {
      "midi": 82,
      "hit": false,
      "t": 270009.6041666664,
      "d": 131.30208333331393,
      "v": 127
    },
    {
      "midi": 81,
      "hit": false,
      "t": 270140.9062499997,
      "d": 154.936458333279,
      "v": 127
    },
    {
      "midi": 48,
      "hit": false,
      "t": 270264.33020833303,
      "d": 848.2114583332441,
      "v": 71
    },
    {
      "midi": 79,
      "hit": false,
      "t": 270280.086458333,
      "d": 2019.4260416667094,
      "v": 127
    },
    {
      "midi": 67,
      "hit": false,
      "t": 270513.80416666635,
      "d": 351.889583333279,
      "v": 91
    },
    {
      "midi": 72,
      "hit": false,
      "t": 270532.186458333,
      "d": 333.5072916666395,
      "v": 91
    },
    {
      "midi": 76,
      "hit": false,
      "t": 270532.186458333,
      "d": 333.5072916666395,
      "v": 91
    },
    {
      "midi": 76,
      "hit": false,
      "t": 270889.32812499965,
      "d": 257.3520833333023,
      "v": 87
    },
    {
      "midi": 67,
      "hit": false,
      "t": 270889.32812499965,
      "d": 291.4906249999767,
      "v": 67
    },
    {
      "midi": 72,
      "hit": false,
      "t": 270905.0843749996,
      "d": 275.734375,
      "v": 75
    },
    {
      "midi": 51,
      "hit": false,
      "t": 271146.68020833295,
      "d": 575.1031250000233,
      "v": 83
    },
    {
      "midi": 67,
      "hit": false,
      "t": 271262.2260416663,
      "d": 438.5489583333256,
      "v": 71
    },
    {
      "midi": 75,
      "hit": false,
      "t": 271262.2260416663,
      "d": 438.5489583333256,
      "v": 95
    },
    {
      "midi": 70,
      "hit": false,
      "t": 271262.2260416663,
      "d": 459.55729166668607,
      "v": 95
    },
    {
      "midi": 72,
      "hit": false,
      "t": 271771.6781249996,
      "d": 454.3052083333605,
      "v": 99
    },
    {
      "midi": 53,
      "hit": false,
      "t": 271771.6781249996,
      "d": 475.313541666721,
      "v": 95
    },
    {
      "midi": 69,
      "hit": false,
      "t": 271771.6781249996,
      "d": 603.9895833334303,
      "v": 87
    },
    {
      "midi": 77,
      "hit": false,
      "t": 271771.6781249996,
      "d": 603.9895833334303,
      "v": 95
    },
    {
      "midi": 48,
      "hit": false,
      "t": 272270.6260416664,
      "d": 814.0729166666861,
      "v": 87
    },
    {
      "midi": 67,
      "hit": false,
      "t": 272538.4822916664,
      "d": 341.38541666668607,
      "v": 95
    },
    {
      "midi": 76,
      "hit": false,
      "t": 272538.4822916664,
      "d": 341.38541666668607,
      "v": 95
    },
    {
      "midi": 67,
      "hit": false,
      "t": 272911.3802083331,
      "d": 94.53749999997672,
      "v": 71
    },
    {
      "midi": 76,
      "hit": false,
      "t": 272911.3802083331,
      "d": 123.42395833332557,
      "v": 83
    },
    {
      "midi": 48,
      "hit": false,
      "t": 273158.22812499973,
      "d": 1144.9541666666628,
      "v": 83
    },
    {
      "midi": 76,
      "hit": false,
      "t": 273279.0260416664,
      "d": 1110.8156249999884,
      "v": 91
    },
    {
      "midi": 67,
      "hit": false,
      "t": 273279.0260416664,
      "d": 1137.0760416666744,
      "v": 91
    },
    {
      "midi": 72,
      "hit": false,
      "t": 273310.5385416664,
      "d": 488.4437499999767,
      "v": 87
    },
    {
      "midi": 79,
      "hit": false,
      "t": 273798.9822916664,
      "d": 546.2166666666744,
      "v": 127
    },
    {
      "midi": 51,
      "hit": false,
      "t": 274303.1822916664,
      "d": 748.421875,
      "v": 87
    },
    {
      "midi": 70,
      "hit": false,
      "t": 274547.4041666664,
      "d": 346.63750000001164,
      "v": 91
    },
    {
      "midi": 67,
      "hit": false,
      "t": 274557.90833333303,
      "d": 336.1333333333605,
      "v": 79
    },
    {
      "midi": 67,
      "hit": false,
      "t": 274922.92812499974,
      "d": 78.78125,
      "v": 79
    },
    {
      "midi": 70,
      "hit": false,
      "t": 274922.92812499974,
      "d": 128.67604166665114,
      "v": 79
    },
    {
      "midi": 51,
      "hit": false,
      "t": 275177.6541666664,
      "d": 1105.5635416666628,
      "v": 79
    },
    {
      "midi": 75,
      "hit": false,
      "t": 275311.58229166636,
      "d": 512.078125,
      "v": 79
    },
    {
      "midi": 67,
      "hit": false,
      "t": 275311.58229166636,
      "d": 1032.0343750000466,
      "v": 79
    },
    {
      "midi": 70,
      "hit": false,
      "t": 275311.58229166636,
      "d": 1076.6770833333721,
      "v": 75
    },
    {
      "midi": 82,
      "hit": false,
      "t": 275810.53020833305,
      "d": 509.4520833333372,
      "v": 127
    },
    {
      "midi": 53,
      "hit": false,
      "t": 276319.9822916664,
      "d": 722.1614583334303,
      "v": 99
    },
    {
      "midi": 81,
      "hit": false,
      "t": 276319.9822916664,
      "d": 1725.3093750001863,
      "v": 127
    },
    {
      "midi": 69,
      "hit": false,
      "t": 276572.0822916664,
      "d": 296.7427083333605,
      "v": 83
    },
    {
      "midi": 72,
      "hit": false,
      "t": 276572.0822916664,
      "d": 296.7427083333605,
      "v": 87
    },
    {
      "midi": 77,
      "hit": false,
      "t": 276572.0822916664,
      "d": 296.7427083333605,
      "v": 87
    },
    {
      "midi": 77,
      "hit": false,
      "t": 276950.23229166644,
      "d": 65.65104166668607,
      "v": 87
    },
    {
      "midi": 69,
      "hit": false,
      "t": 276950.23229166644,
      "d": 91.91145833337214,
      "v": 79
    },
    {
      "midi": 72,
      "hit": false,
      "t": 276950.23229166644,
      "d": 91.91145833337214,
      "v": 83
    },
    {
      "midi": 53,
      "hit": false,
      "t": 277183.94999999984,
      "d": 1121.3197916666977,
      "v": 91
    },
    {
      "midi": 77,
      "hit": false,
      "t": 277288.9916666665,
      "d": 1176.4666666666744,
      "v": 91
    },
    {
      "midi": 69,
      "hit": false,
      "t": 277312.62604166655,
      "d": 1116.067708333314,
      "v": 83
    },
    {
      "midi": 72,
      "hit": false,
      "t": 277312.62604166655,
      "d": 1239.4916666666395,
      "v": 91
    },
    {
      "midi": 82,
      "hit": false,
      "t": 278066.29999999993,
      "d": 144.43229166662786,
      "v": 127
    },
    {
      "midi": 81,
      "hit": false,
      "t": 278202.85416666657,
      "d": 131.30208333331393,
      "v": 127
    },
    {
      "midi": 48,
      "hit": false,
      "t": 278305.26979166653,
      "d": 829.8291666666046,
      "v": 79
    },
    {
      "midi": 79,
      "hit": false,
      "t": 278334.1562499999,
      "d": 2282.030208333337,
      "v": 127
    },
    {
      "midi": 67,
      "hit": false,
      "t": 278588.8822916665,
      "d": 325.62916666665114,
      "v": 95
    },
    {
      "midi": 72,
      "hit": false,
      "t": 278588.8822916665,
      "d": 325.62916666665114,
      "v": 91
    },
    {
      "midi": 76,
      "hit": false,
      "t": 278588.8822916665,
      "d": 325.62916666665114,
      "v": 87
    },
    {
      "midi": 76,
      "hit": false,
      "t": 278959.1541666665,
      "d": 246.84791666665114,
      "v": 95
    },
    {
      "midi": 72,
      "hit": false,
      "t": 278959.1541666665,
      "d": 280.9864583333256,
      "v": 91
    },
    {
      "midi": 67,
      "hit": false,
      "t": 278959.1541666665,
      "d": 307.24687500001164,
      "v": 75
    },
    {
      "midi": 51,
      "hit": false,
      "t": 279206.00208333315,
      "d": 561.9729166667094,
      "v": 87
    },
    {
      "midi": 67,
      "hit": false,
      "t": 279345.1822916665,
      "d": 443.80104166670935,
      "v": 83
    },
    {
      "midi": 70,
      "hit": false,
      "t": 279345.1822916665,
      "d": 462.18333333334886,
      "v": 99
    },
    {
      "midi": 75,
      "hit": false,
      "t": 279345.1822916665,
      "d": 462.18333333334886,
      "v": 91
    },
    {
      "midi": 53,
      "hit": false,
      "t": 279836.2520833332,
      "d": 435.9229166666628,
      "v": 95
    },
    {
      "midi": 69,
      "hit": false,
      "t": 279836.2520833332,
      "d": 512.078125,
      "v": 87
    },
    {
      "midi": 72,
      "hit": false,
      "t": 279836.2520833332,
      "d": 512.078125,
      "v": 99
    },
    {
      "midi": 77,
      "hit": false,
      "t": 279836.2520833332,
      "d": 540.9645833333489,
      "v": 95
    },
    {
      "midi": 48,
      "hit": false,
      "t": 280227.53229166655,
      "d": 929.6187500000233,
      "v": 75
    },
    {
      "midi": 64,
      "hit": false,
      "t": 280253.79270833323,
      "d": 1299.8906250000582,
      "v": 59
    },
    {
      "midi": 67,
      "hit": false,
      "t": 280301.0614583332,
      "d": 265.23020833334886,
      "v": 87
    },
    {
      "midi": 67,
      "hit": false,
      "t": 280600.43020833324,
      "d": 328.25520833331393,
      "v": 91
    },
    {
      "midi": 76,
      "hit": false,
      "t": 280600.43020833324,
      "d": 346.63749999995343,
      "v": 91
    },
    {
      "midi": 67,
      "hit": false,
      "t": 280968.07604166656,
      "d": 102.41562500002328,
      "v": 87
    },
    {
      "midi": 76,
      "hit": false,
      "t": 280968.07604166656,
      "d": 102.41562500002328,
      "v": 83
    },
    {
      "midi": 48,
      "hit": false,
      "t": 281217.54999999993,
      "d": 1147.5802083333838,
      "v": 87
    },
    {
      "midi": 72,
      "hit": false,
      "t": 281361.9822916666,
      "d": 530.4604166666977,
      "v": 87
    },
    {
      "midi": 76,
      "hit": false,
      "t": 281361.9822916666,
      "d": 1037.2864583333721,
      "v": 87
    },
    {
      "midi": 67,
      "hit": false,
      "t": 281361.9822916666,
      "d": 1058.2947916667326,
      "v": 87
    },
    {
      "midi": 79,
      "hit": false,
      "t": 281871.43437499995,
      "d": 527.8343750000349,
      "v": 127
    },
    {
      "midi": 51,
      "hit": false,
      "t": 282333.6177083333,
      "d": 837.7072916668258,
      "v": 99
    },
    {
      "midi": 70,
      "hit": false,
      "t": 282606.7260416667,
      "d": 357.141666666721,
      "v": 87
    },
    {
      "midi": 67,
      "hit": false,
      "t": 282627.73437500006,
      "d": 315.125,
      "v": 87
    },
    {
      "midi": 70,
      "hit": false,
      "t": 282995.38020833343,
      "d": 136.5541666666977,
      "v": 83
    },
    {
      "midi": 67,
      "hit": false,
      "t": 283003.2583333334,
      "d": 65.65104166668607,
      "v": 75
    },
    {
      "midi": 51,
      "hit": false,
      "t": 283242.22812500014,
      "d": 1108.1895833332674,
      "v": 75
    },
    {
      "midi": 75,
      "hit": false,
      "t": 283373.53020833345,
      "d": 533.0864583333023,
      "v": 75
    },
    {
      "midi": 67,
      "hit": false,
      "t": 283373.53020833345,
      "d": 1058.2947916666162,
      "v": 87
    },
    {
      "midi": 70,
      "hit": false,
      "t": 283373.53020833345,
      "d": 1084.5552083333023,
      "v": 83
    },
    {
      "midi": 82,
      "hit": false,
      "t": 283888.2343750001,
      "d": 522.5822916665929,
      "v": 127
    },
    {
      "midi": 53,
      "hit": false,
      "t": 284368.80000000005,
      "d": 798.3166666667094,
      "v": 99
    },
    {
      "midi": 81,
      "hit": false,
      "t": 284397.6864583334,
      "d": 1717.4312500000233,
      "v": 127
    },
    {
      "midi": 69,
      "hit": false,
      "t": 284644.5343750001,
      "d": 320.3770833333256,
      "v": 83
    },
    {
      "midi": 72,
      "hit": false,
      "t": 284644.5343750001,
      "d": 320.3770833333256,
      "v": 91
    },
    {
      "midi": 77,
      "hit": false,
      "t": 284644.5343750001,
      "d": 320.3770833333256,
      "v": 87
    },
    {
      "midi": 69,
      "hit": false,
      "t": 285004.30208333343,
      "d": 131.30208333331393,
      "v": 83
    },
    {
      "midi": 72,
      "hit": false,
      "t": 285004.30208333343,
      "d": 131.30208333331393,
      "v": 87
    },
    {
      "midi": 77,
      "hit": false,
      "t": 285004.30208333343,
      "d": 131.30208333331393,
      "v": 91
    },
    {
      "midi": 53,
      "hit": false,
      "t": 285256.4020833334,
      "d": 1066.1729166666628,
      "v": 75
    },
    {
      "midi": 69,
      "hit": false,
      "t": 285379.82604166673,
      "d": 1068.7989583333838,
      "v": 83
    },
    {
      "midi": 77,
      "hit": false,
      "t": 285379.82604166673,
      "d": 1087.1812500000233,
      "v": 87
    },
    {
      "midi": 72,
      "hit": false,
      "t": 285379.82604166673,
      "d": 1110.8156250000466,
      "v": 87
    },
    {
      "midi": 82,
      "hit": false,
      "t": 286133.50000000006,
      "d": 126.04999999998836,
      "v": 127
    },
    {
      "midi": 81,
      "hit": false,
      "t": 286259.55000000005,
      "d": 168.06666666670935,
      "v": 127
    },
    {
      "midi": 48,
      "hit": false,
      "t": 286390.8520833334,
      "d": 858.7156250000116,
      "v": 71
    },
    {
      "midi": 79,
      "hit": false,
      "t": 286411.8604166668,
      "d": 2014.1739583333256,
      "v": 127
    },
    {
      "midi": 67,
      "hit": false,
      "t": 286640.3260416668,
      "d": 362.39374999998836,
      "v": 91
    },
    {
      "midi": 72,
      "hit": false,
      "t": 286640.3260416668,
      "d": 362.39374999998836,
      "v": 91
    },
    {
      "midi": 76,
      "hit": false,
      "t": 286640.3260416668,
      "d": 362.39374999998836,
      "v": 91
    },
    {
      "midi": 76,
      "hit": false,
      "t": 287015.8500000001,
      "d": 254.7260416666977,
      "v": 87
    },
    {
      "midi": 67,
      "hit": false,
      "t": 287015.8500000001,
      "d": 301.99479166668607,
      "v": 67
    },
    {
      "midi": 72,
      "hit": false,
      "t": 287036.85833333345,
      "d": 280.9864583333256,
      "v": 75
    },
    {
      "midi": 51,
      "hit": false,
      "t": 287270.5760416668,
      "d": 590.859375,
      "v": 83
    },
    {
      "midi": 67,
      "hit": false,
      "t": 287412.38229166676,
      "d": 422.79270833334886,
      "v": 71
    },
    {
      "midi": 75,
      "hit": false,
      "t": 287412.38229166676,
      "d": 422.79270833334886,
      "v": 95
    },
    {
      "midi": 70,
      "hit": false,
      "t": 287412.38229166676,
      "d": 449.0531250000349,
      "v": 95
    },
    {
      "midi": 53,
      "hit": false,
      "t": 287919.20833333343,
      "d": 464.80937500001164,
      "v": 95
    },
    {
      "midi": 72,
      "hit": false,
      "t": 287919.20833333343,
      "d": 464.80937500001164,
      "v": 99
    },
    {
      "midi": 69,
      "hit": false,
      "t": 287919.20833333343,
      "d": 590.859375,
      "v": 87
    },
    {
      "midi": 77,
      "hit": false,
      "t": 287919.20833333343,
      "d": 590.859375,
      "v": 95
    },
    {
      "midi": 48,
      "hit": false,
      "t": 288402.4000000001,
      "d": 821.9510416667326,
      "v": 87
    },
    {
      "midi": 67,
      "hit": false,
      "t": 288657.1260416668,
      "d": 357.1416666666628,
      "v": 95
    },
    {
      "midi": 76,
      "hit": false,
      "t": 288657.1260416668,
      "d": 357.1416666666628,
      "v": 95
    },
    {
      "midi": 67,
      "hit": false,
      "t": 289032.6500000001,
      "d": 105.04166666668607,
      "v": 71
    },
    {
      "midi": 76,
      "hit": false,
      "t": 289064.1625000001,
      "d": 97.16354166669771,
      "v": 83
    },
    {
      "midi": 48,
      "hit": false,
      "t": 289284.7500000002,
      "d": 1150.2062500000466,
      "v": 83
    },
    {
      "midi": 72,
      "hit": false,
      "t": 289431.8083333335,
      "d": 506.8260416666744,
      "v": 87
    },
    {
      "midi": 76,
      "hit": false,
      "t": 289431.8083333335,
      "d": 1089.807291666686,
      "v": 91
    },
    {
      "midi": 67,
      "hit": false,
      "t": 289431.8083333335,
      "d": 1118.693750000035,
      "v": 91
    },
    {
      "midi": 79,
      "hit": false,
      "t": 289915.0000000002,
      "d": 567.2250000000349,
      "v": 127
    },
    {
      "midi": 51,
      "hit": false,
      "t": 290434.9562500002,
      "d": 743.1697916666744,
      "v": 87
    },
    {
      "midi": 67,
      "hit": false,
      "t": 290687.0562500002,
      "d": 344.01145833334886,
      "v": 79
    },
    {
      "midi": 70,
      "hit": false,
      "t": 290687.0562500002,
      "d": 344.01145833334886,
      "v": 91
    },
    {
      "midi": 67,
      "hit": false,
      "t": 291052.0760416669,
      "d": 81.40729166666279,
      "v": 79
    },
    {
      "midi": 70,
      "hit": false,
      "t": 291052.0760416669,
      "d": 126.04999999998836,
      "v": 79
    },
    {
      "midi": 51,
      "hit": false,
      "t": 291306.80208333355,
      "d": 1108.1895833333256,
      "v": 79
    },
    {
      "midi": 75,
      "hit": false,
      "t": 291430.2260416669,
      "d": 517.3302083333256,
      "v": 79
    },
    {
      "midi": 67,
      "hit": false,
      "t": 291430.2260416669,
      "d": 1045.1645833333605,
      "v": 79
    },
    {
      "midi": 70,
      "hit": false,
      "t": 291430.2260416669,
      "d": 1089.807291666686,
      "v": 75
    },
    {
      "midi": 82,
      "hit": false,
      "t": 291947.5562500002,
      "d": 506.8260416666744,
      "v": 127
    },
    {
      "midi": 53,
      "hit": false,
      "t": 292454.3822916669,
      "d": 722.1614583334303,
      "v": 99
    },
    {
      "midi": 81,
      "hit": false,
      "t": 292454.3822916669,
      "d": 1727.9354166667908,
      "v": 127
    },
    {
      "midi": 69,
      "hit": false,
      "t": 292706.4822916669,
      "d": 299.3687500000233,
      "v": 83
    },
    {
      "midi": 72,
      "hit": false,
      "t": 292706.4822916669,
      "d": 299.3687500000233,
      "v": 87
    },
    {
      "midi": 77,
      "hit": false,
      "t": 292706.4822916669,
      "d": 299.3687500000233,
      "v": 87
    },
    {
      "midi": 77,
      "hit": false,
      "t": 293079.3802083336,
      "d": 70.90312500001164,
      "v": 87
    },
    {
      "midi": 69,
      "hit": false,
      "t": 293079.3802083336,
      "d": 97.16354166669771,
      "v": 79
    },
    {
      "midi": 72,
      "hit": false,
      "t": 293079.3802083336,
      "d": 97.16354166669771,
      "v": 83
    },
    {
      "midi": 53,
      "hit": false,
      "t": 293326.2281250003,
      "d": 1108.1895833333256,
      "v": 91
    },
    {
      "midi": 77,
      "hit": false,
      "t": 293426.0177083337,
      "d": 1192.2229166666511,
      "v": 91
    },
    {
      "midi": 69,
      "hit": false,
      "t": 293460.15625000035,
      "d": 1095.0593749999534,
      "v": 83
    },
    {
      "midi": 72,
      "hit": false,
      "t": 293460.15625000035,
      "d": 1226.3614583333256,
      "v": 91
    },
    {
      "midi": 82,
      "hit": false,
      "t": 294211.204166667,
      "d": 136.5541666666395,
      "v": 127
    },
    {
      "midi": 81,
      "hit": false,
      "t": 294334.62812500034,
      "d": 133.92812499997672,
      "v": 127
    },
    {
      "midi": 76,
      "hit": false,
      "t": 294468.5562500003,
      "d": 254.7260416666977,
      "v": 43
    },
    {
      "midi": 48,
      "hit": false,
      "t": 294468.5562500003,
      "d": 278.360416666721,
      "v": 55
    },
    {
      "midi": 79,
      "hit": false,
      "t": 294468.5562500003,
      "d": 3014.695833333535,
      "v": 127
    },
    {
      "midi": 82,
      "hit": false,
      "t": 294723.282291667,
      "d": 338.7593750000233,
      "v": 87
    },
    {
      "midi": 87,
      "hit": false,
      "t": 294723.282291667,
      "d": 359.7677083333838,
      "v": 91
    },
    {
      "midi": 82,
      "hit": false,
      "t": 295083.0500000004,
      "d": 170.69270833337214,
      "v": 59
    },
    {
      "midi": 77,
      "hit": false,
      "t": 295114.5625000004,
      "d": 139.1802083333605,
      "v": 75
    },
    {
      "midi": 86,
      "hit": false,
      "t": 295114.5625000004,
      "d": 160.188541666721,
      "v": 79
    },
    {
      "midi": 48,
      "hit": false,
      "t": 295337.77604166715,
      "d": 441.17499999998836,
      "v": 63
    },
    {
      "midi": 75,
      "hit": false,
      "t": 295479.5822916672,
      "d": 133.92812499997672,
      "v": 91
    },
    {
      "midi": 82,
      "hit": false,
      "t": 295479.5822916672,
      "d": 133.92812499997672,
      "v": 91
    },
    {
      "midi": 77,
      "hit": false,
      "t": 295855.1062500005,
      "d": 344.01145833334886,
      "v": 71
    },
    {
      "midi": 72,
      "hit": false,
      "t": 295855.1062500005,
      "d": 383.40208333334886,
      "v": 71
    },
    {
      "midi": 81,
      "hit": false,
      "t": 295855.1062500005,
      "d": 383.40208333334886,
      "v": 75
    },
    {
      "midi": 48,
      "hit": false,
      "t": 296115.0843750005,
      "d": 228.46562500001164,
      "v": 71
    },
    {
      "midi": 70,
      "hit": false,
      "t": 296238.5083333338,
      "d": 246.84791666670935,
      "v": 71
    },
    {
      "midi": 75,
      "hit": false,
      "t": 296238.5083333338,
      "d": 246.84791666670935,
      "v": 71
    },
    {
      "midi": 60,
      "hit": false,
      "t": 296456.4697916672,
      "d": 1236.8656249999767,
      "v": 67
    },
    {
      "midi": 64,
      "hit": false,
      "t": 296456.4697916672,
      "d": 1236.8656249999767,
      "v": 87
    },
    {
      "midi": 48,
      "hit": false,
      "t": 296485.35625000054,
      "d": 1207.9791666666279,
      "v": 63
    },
    {
      "midi": 49,
      "hit": false,
      "t": 297714.3437500005,
      "d": 254.7260416666977,
      "v": 75
    },
    {
      "midi": 61,
      "hit": false,
      "t": 297748.4822916672,
      "d": 252.10000000003492,
      "v": 63
    },
    {
      "midi": 65,
      "hit": false,
      "t": 297748.4822916672,
      "d": 252.10000000003492,
      "v": 91
    },
    {
      "midi": 50,
      "hit": false,
      "t": 297969.0697916672,
      "d": 267.85625000001164,
      "v": 67
    },
    {
      "midi": 62,
      "hit": false,
      "t": 298000.58229166723,
      "d": 220.58750000002328,
      "v": 63
    },
    {
      "midi": 66,
      "hit": false,
      "t": 298000.58229166723,
      "d": 236.34375,
      "v": 75
    },
    {
      "midi": 51,
      "hit": false,
      "t": 298221.16979166726,
      "d": 1756.8218750000815,
      "v": 67
    },
    {
      "midi": 63,
      "hit": false,
      "t": 298236.92604166723,
      "d": 462.18333333334886,
      "v": 71
    },
    {
      "midi": 67,
      "hit": false,
      "t": 298236.92604166723,
      "d": 512.078125,
      "v": 83
    },
    {
      "midi": 65,
      "hit": false,
      "t": 298749.00416666723,
      "d": 265.23020833334886,
      "v": 71
    },
    {
      "midi": 68,
      "hit": false,
      "t": 298749.00416666723,
      "d": 265.23020833334886,
      "v": 67
    },
    {
      "midi": 69,
      "hit": false,
      "t": 298990.60000000056,
      "d": 252.10000000003492,
      "v": 67
    },
    {
      "midi": 66,
      "hit": false,
      "t": 298990.60000000056,
      "d": 278.360416666721,
      "v": 71
    },
    {
      "midi": 70,
      "hit": false,
      "t": 299242.7000000006,
      "d": 512.0781250000582,
      "v": 71
    },
    {
      "midi": 67,
      "hit": false,
      "t": 299268.9604166673,
      "d": 485.81770833337214,
      "v": 71
    },
    {
      "midi": 67,
      "hit": false,
      "t": 299754.77812500065,
      "d": 259.9781250000233,
      "v": 55
    },
    {
      "midi": 72,
      "hit": false,
      "t": 299754.77812500065,
      "d": 259.9781250000233,
      "v": 71
    },
    {
      "midi": 67,
      "hit": false,
      "t": 300014.7562500007,
      "d": 175.9447916666395,
      "v": 27
    },
    {
      "midi": 70,
      "hit": false,
      "t": 300014.7562500007,
      "d": 215.3354166666395,
      "v": 55
    },
    {
      "midi": 72,
      "hit": false,
      "t": 300014.7562500007,
      "d": 236.34375,
      "v": 31
    },
    {
      "midi": 51,
      "hit": false,
      "t": 300014.7562500007,
      "d": 493.6958333333605,
      "v": 31
    },
    {
      "midi": 72,
      "hit": false,
      "t": 300508.45208333404,
      "d": 1467.9572916666511,
      "v": 79
    },
    {
      "midi": 65,
      "hit": false,
      "t": 300508.45208333404,
      "d": 1488.9656250000116,
      "v": 55
    },
    {
      "midi": 69,
      "hit": false,
      "t": 300508.45208333404,
      "d": 1488.9656250000116,
      "v": 67
    },
    {
      "midi": 53,
      "hit": false,
      "t": 300508.45208333404,
      "d": 1738.4395833333256,
      "v": 71
    },
    {
      "midi": 72,
      "hit": false,
      "t": 302034.1822916674,
      "d": 212.70937499997672,
      "v": 39
    },
    {
      "midi": 65,
      "hit": false,
      "t": 302034.1822916674,
      "d": 244.22187499998836,
      "v": 47
    },
    {
      "midi": 69,
      "hit": false,
      "t": 302034.1822916674,
      "d": 244.22187499998836,
      "v": 23
    },
    {
      "midi": 72,
      "hit": false,
      "t": 302278.4041666674,
      "d": 7531.487499999988,
      "v": 67
    },
    {
      "midi": 67,
      "hit": false,
      "t": 302278.4041666674,
      "d": 7762.579166666663,
      "v": 74
    },
    {
      "midi": 64,
      "hit": false,
      "t": 302278.4041666674,
      "d": 7783.587500000023,
      "v": 60
    },
    {
      "midi": 48,
      "hit": false,
      "t": 302278.4041666674,
      "d": 7825.604166666686,
      "v": 51
    }
  ]
}