{
  "jsonPath": "World/Pagode/Alexandre Pires/necesidad.json",
  "path": "World\\Pagode\\Alexandre Pires\\Necesidad.mid",
  "name": "Necesidad",
  "difficulty": "Advanced",
  "bpm": 147.9603663498671,
  "notes": [
    {
      "midi": 48,
      "hit": false,
      "t": 785.683375,
      "d": 2618.944583333333,
      "v": 107
    },
    {
      "midi": 36,
      "hit": false,
      "t": 789.9074791666666,
      "d": 2627.392791666666,
      "v": 107
    },
    {
      "midi": 55,
      "hit": false,
      "t": 1398.1784791666664,
      "d": 122.49902083333313,
      "v": 112
    },
    {
      "midi": 43,
      "hit": false,
      "t": 1419.2989999999998,
      "d": 92.93029166666656,
      "v": 112
    },
    {
      "midi": 55,
      "hit": false,
      "t": 1613.6077916666661,
      "d": 114.05081249999989,
      "v": 112
    },
    {
      "midi": 43,
      "hit": false,
      "t": 1622.0559999999994,
      "d": 92.93029166666656,
      "v": 112
    },
    {
      "midi": 43,
      "hit": false,
      "t": 1850.1576249999994,
      "d": 88.70618749999994,
      "v": 112
    },
    {
      "midi": 55,
      "hit": false,
      "t": 1850.1576249999994,
      "d": 105.60260416666665,
      "v": 112
    },
    {
      "midi": 55,
      "hit": false,
      "t": 2082.483354166666,
      "d": 122.49902083333336,
      "v": 112
    },
    {
      "midi": 43,
      "hit": false,
      "t": 2090.931562499999,
      "d": 88.70618749999994,
      "v": 112
    },
    {
      "midi": 43,
      "hit": false,
      "t": 2319.0331874999993,
      "d": 97.15439583333318,
      "v": 112
    },
    {
      "midi": 55,
      "hit": false,
      "t": 2319.0331874999993,
      "d": 109.82670833333304,
      "v": 112
    },
    {
      "midi": 55,
      "hit": false,
      "t": 2547.134812499999,
      "d": 101.3784999999998,
      "v": 112
    },
    {
      "midi": 43,
      "hit": false,
      "t": 2551.3589166666657,
      "d": 88.70618749999994,
      "v": 112
    },
    {
      "midi": 55,
      "hit": false,
      "t": 2775.236437499999,
      "d": 109.82670833333304,
      "v": 112
    },
    {
      "midi": 43,
      "hit": false,
      "t": 2779.4605416666654,
      "d": 88.70618749999994,
      "v": 112
    },
    {
      "midi": 55,
      "hit": false,
      "t": 3003.3380624999986,
      "d": 105.60260416666642,
      "v": 112
    },
    {
      "midi": 43,
      "hit": false,
      "t": 3007.5621666666652,
      "d": 88.70618749999994,
      "v": 112
    },
    {
      "midi": 55,
      "hit": false,
      "t": 3227.215583333332,
      "d": 109.82670833333304,
      "v": 112
    },
    {
      "midi": 43,
      "hit": false,
      "t": 3231.4396874999984,
      "d": 88.70618749999994,
      "v": 112
    },
    {
      "midi": 36,
      "hit": false,
      "t": 3244.1119999999996,
      "d": 5757.453979166667,
      "v": 110
    },
    {
      "midi": 48,
      "hit": false,
      "t": 3244.1119999999996,
      "d": 5837.711958333333,
      "v": 76
    },
    {
      "midi": 72,
      "hit": false,
      "t": 3244.1119999999996,
      "d": 5960.210979166666,
      "v": 110
    },
    {
      "midi": 74,
      "hit": false,
      "t": 3244.1119999999996,
      "d": 5994.003812499999,
      "v": 114
    },
    {
      "midi": 79,
      "hit": false,
      "t": 3244.1119999999996,
      "d": 6010.900229166666,
      "v": 105
    },
    {
      "midi": 55,
      "hit": false,
      "t": 3459.541312499998,
      "d": 109.82670833333304,
      "v": 112
    },
    {
      "midi": 43,
      "hit": false,
      "t": 3463.765416666665,
      "d": 88.70618749999994,
      "v": 112
    },
    {
      "midi": 60,
      "hit": false,
      "t": 3472.2136249999994,
      "d": 2918.8559791666667,
      "v": 107
    },
    {
      "midi": 48,
      "hit": false,
      "t": 3476.437729166666,
      "d": 2830.1497916666667,
      "v": 107
    },
    {
      "midi": 55,
      "hit": false,
      "t": 3687.642937499998,
      "d": 105.60260416666642,
      "v": 112
    },
    {
      "midi": 43,
      "hit": false,
      "t": 3696.091145833331,
      "d": 84.48208333333332,
      "v": 112
    },
    {
      "midi": 43,
      "hit": false,
      "t": 3932.6409791666642,
      "d": 76.03387500000008,
      "v": 112
    },
    {
      "midi": 55,
      "hit": false,
      "t": 3932.6409791666642,
      "d": 84.48208333333332,
      "v": 112
    },
    {
      "midi": 55,
      "hit": false,
      "t": 4173.414916666664,
      "d": 76.03387500000008,
      "v": 112
    },
    {
      "midi": 43,
      "hit": false,
      "t": 4177.6390208333305,
      "d": 63.36156250000022,
      "v": 112
    },
    {
      "midi": 43,
      "hit": false,
      "t": 4405.740645833331,
      "d": 63.36156250000022,
      "v": 112
    },
    {
      "midi": 55,
      "hit": false,
      "t": 4409.964749999997,
      "d": 59.1374583333336,
      "v": 112
    },
    {
      "midi": 36,
      "hit": false,
      "t": 6386.845499999999,
      "d": 3041.3549999999996,
      "v": 107
    },
    {
      "midi": 48,
      "hit": false,
      "t": 6403.741916666666,
      "d": 3083.5960416666658,
      "v": 107
    },
    {
      "midi": 72,
      "hit": false,
      "t": 9732.335999999998,
      "d": 688.5289791666655,
      "v": 114
    },
    {
      "midi": 60,
      "hit": false,
      "t": 9732.335999999998,
      "d": 874.3895624999986,
      "v": 76
    },
    {
      "midi": 64,
      "hit": false,
      "t": 10137.849999999997,
      "d": 532.2371249999997,
      "v": 64
    },
    {
      "midi": 67,
      "hit": false,
      "t": 10137.849999999997,
      "d": 734.9941249999993,
      "v": 56
    },
    {
      "midi": 76,
      "hit": false,
      "t": 10543.363999999996,
      "d": 430.85862499999894,
      "v": 105
    },
    {
      "midi": 60,
      "hit": false,
      "t": 10948.877999999995,
      "d": 76.03387499999917,
      "v": 60
    },
    {
      "midi": 72,
      "hit": false,
      "t": 10948.877999999995,
      "d": 295.68729166666526,
      "v": 86
    },
    {
      "midi": 64,
      "hit": false,
      "t": 10948.877999999995,
      "d": 312.58370833333174,
      "v": 68
    },
    {
      "midi": 67,
      "hit": false,
      "t": 10948.877999999995,
      "d": 734.9941249999993,
      "v": 79
    },
    {
      "midi": 74,
      "hit": false,
      "t": 11354.391999999994,
      "d": 582.9263749999991,
      "v": 105
    },
    {
      "midi": 59,
      "hit": false,
      "t": 11354.391999999994,
      "d": 1203.8696874999987,
      "v": 82
    },
    {
      "midi": 67,
      "hit": false,
      "t": 11759.905999999994,
      "d": 244.9980416666658,
      "v": 34
    },
    {
      "midi": 67,
      "hit": false,
      "t": 12165.419999999993,
      "d": 654.7361458333344,
      "v": 114
    },
    {
      "midi": 71,
      "hit": false,
      "t": 12368.176999999992,
      "d": 168.96416666666664,
      "v": 82
    },
    {
      "midi": 74,
      "hit": false,
      "t": 12570.933999999994,
      "d": 312.58370833333356,
      "v": 90
    },
    {
      "midi": 72,
      "hit": false,
      "t": 12976.447999999995,
      "d": 595.5986874999999,
      "v": 110
    },
    {
      "midi": 69,
      "hit": false,
      "t": 12976.447999999995,
      "d": 726.545916666666,
      "v": 95
    },
    {
      "midi": 57,
      "hit": false,
      "t": 12976.447999999995,
      "d": 950.4234374999996,
      "v": 90
    },
    {
      "midi": 64,
      "hit": false,
      "t": 12976.447999999995,
      "d": 963.0957500000004,
      "v": 95
    },
    {
      "midi": 72,
      "hit": false,
      "t": 13787.475999999995,
      "d": 401.2898958333335,
      "v": 100
    },
    {
      "midi": 69,
      "hit": false,
      "t": 14192.989999999996,
      "d": 266.1185624999998,
      "v": 95
    },
    {
      "midi": 57,
      "hit": false,
      "t": 14192.989999999996,
      "d": 308.35960416666603,
      "v": 70
    },
    {
      "midi": 64,
      "hit": false,
      "t": 14192.989999999996,
      "d": 308.35960416666603,
      "v": 73
    },
    {
      "midi": 72,
      "hit": false,
      "t": 14598.503999999995,
      "d": 502.6683958333324,
      "v": 90
    },
    {
      "midi": 67,
      "hit": false,
      "t": 14598.503999999995,
      "d": 692.753083333333,
      "v": 100
    },
    {
      "midi": 55,
      "hit": false,
      "t": 14598.503999999995,
      "d": 1174.300958333335,
      "v": 73
    },
    {
      "midi": 64,
      "hit": false,
      "t": 14598.503999999995,
      "d": 1377.0579583333347,
      "v": 86
    },
    {
      "midi": 67,
      "hit": false,
      "t": 15409.531999999996,
      "d": 278.7908750000006,
      "v": 73
    },
    {
      "midi": 76,
      "hit": false,
      "t": 15409.531999999996,
      "d": 380.1693750000013,
      "v": 117
    },
    {
      "midi": 74,
      "hit": false,
      "t": 15815.045999999997,
      "d": 173.18827083333417,
      "v": 105
    },
    {
      "midi": 76,
      "hit": false,
      "t": 16017.802999999998,
      "d": 126.72312500000044,
      "v": 86
    },
    {
      "midi": 77,
      "hit": false,
      "t": 16220.559999999998,
      "d": 671.632562499999,
      "v": 114
    },
    {
      "midi": 62,
      "hit": false,
      "t": 16220.559999999998,
      "d": 912.4064999999973,
      "v": 46
    },
    {
      "midi": 69,
      "hit": false,
      "t": 16626.073999999997,
      "d": 333.70422916666575,
      "v": 44
    },
    {
      "midi": 65,
      "hit": false,
      "t": 16626.073999999997,
      "d": 477.3237708333327,
      "v": 62
    },
    {
      "midi": 69,
      "hit": false,
      "t": 17031.587999999996,
      "d": 249.22214583333334,
      "v": 73
    },
    {
      "midi": 74,
      "hit": false,
      "t": 17031.587999999996,
      "d": 447.75504166666724,
      "v": 100
    },
    {
      "midi": 77,
      "hit": false,
      "t": 17031.587999999996,
      "d": 692.753083333333,
      "v": 110
    },
    {
      "midi": 62,
      "hit": false,
      "t": 17437.101999999995,
      "d": 177.41237499999988,
      "v": 31
    },
    {
      "midi": 69,
      "hit": false,
      "t": 17437.101999999995,
      "d": 299.9113958333328,
      "v": 70
    },
    {
      "midi": 65,
      "hit": false,
      "t": 17437.101999999995,
      "d": 342.1524375000008,
      "v": 62
    },
    {
      "midi": 72,
      "hit": false,
      "t": 17842.615999999995,
      "d": 523.7889166666646,
      "v": 100
    },
    {
      "midi": 77,
      "hit": false,
      "t": 17842.615999999995,
      "d": 637.8397291666624,
      "v": 95
    },
    {
      "midi": 65,
      "hit": false,
      "t": 17842.615999999995,
      "d": 798.3556874999958,
      "v": 70
    },
    {
      "midi": 60,
      "hit": false,
      "t": 17842.615999999995,
      "d": 802.5797916666634,
      "v": 82
    },
    {
      "midi": 69,
      "hit": false,
      "t": 18248.129999999994,
      "d": 101.3784999999989,
      "v": 45
    },
    {
      "midi": 69,
      "hit": false,
      "t": 18450.88699999999,
      "d": 164.7400624999973,
      "v": 26
    },
    {
      "midi": 69,
      "hit": false,
      "t": 18653.643999999993,
      "d": 553.3576458333337,
      "v": 82
    },
    {
      "midi": 77,
      "hit": false,
      "t": 18653.643999999993,
      "d": 675.8566666666666,
      "v": 105
    },
    {
      "midi": 67,
      "hit": false,
      "t": 19464.67199999999,
      "d": 46.46514583333192,
      "v": 86
    },
    {
      "midi": 74,
      "hit": false,
      "t": 19464.67199999999,
      "d": 701.2012916666645,
      "v": 100
    },
    {
      "midi": 55,
      "hit": false,
      "t": 19464.67199999999,
      "d": 1191.197374999996,
      "v": 79
    },
    {
      "midi": 67,
      "hit": false,
      "t": 19870.18599999999,
      "d": 316.8078124999993,
      "v": 90
    },
    {
      "midi": 62,
      "hit": false,
      "t": 19870.18599999999,
      "d": 1136.2840208333328,
      "v": 70
    },
    {
      "midi": 72,
      "hit": false,
      "t": 20275.69999999999,
      "d": 295.68729166666526,
      "v": 110
    },
    {
      "midi": 67,
      "hit": false,
      "t": 20275.69999999999,
      "d": 316.8078124999993,
      "v": 86
    },
    {
      "midi": 67,
      "hit": false,
      "t": 20681.21399999999,
      "d": 291.46318750000137,
      "v": 68
    },
    {
      "midi": 74,
      "hit": false,
      "t": 20681.21399999999,
      "d": 342.1524375000008,
      "v": 110
    },
    {
      "midi": 55,
      "hit": false,
      "t": 21086.72799999999,
      "d": 468.8755624999976,
      "v": 79
    },
    {
      "midi": 71,
      "hit": false,
      "t": 21086.72799999999,
      "d": 468.8755624999976,
      "v": 95
    },
    {
      "midi": 74,
      "hit": false,
      "t": 21086.72799999999,
      "d": 675.8566666666666,
      "v": 76
    },
    {
      "midi": 67,
      "hit": false,
      "t": 21492.241999999987,
      "d": 130.94722916666433,
      "v": 40
    },
    {
      "midi": 62,
      "hit": false,
      "t": 21492.241999999987,
      "d": 156.29185416666587,
      "v": 38
    },
    {
      "midi": 65,
      "hit": false,
      "t": 21897.755999999987,
      "d": 270.34266666666736,
      "v": 100
    },
    {
      "midi": 62,
      "hit": false,
      "t": 21897.755999999987,
      "d": 604.0468958333331,
      "v": 90
    },
    {
      "midi": 55,
      "hit": false,
      "t": 21897.755999999987,
      "d": 646.2879375000011,
      "v": 82
    },
    {
      "midi": 71,
      "hit": false,
      "t": 22100.512999999988,
      "d": 135.17133333333186,
      "v": 82
    },
    {
      "midi": 74,
      "hit": false,
      "t": 22303.269999999986,
      "d": 346.37654166666834,
      "v": 95
    },
    {
      "midi": 72,
      "hit": false,
      "t": 22708.78399999999,
      "d": 574.4781666666677,
      "v": 95
    },
    {
      "midi": 67,
      "hit": false,
      "t": 22708.78399999999,
      "d": 696.9771875000006,
      "v": 105
    },
    {
      "midi": 60,
      "hit": false,
      "t": 22708.78399999999,
      "d": 844.820833333335,
      "v": 79
    },
    {
      "midi": 67,
      "hit": false,
      "t": 23519.81199999999,
      "d": 270.34266666666736,
      "v": 73
    },
    {
      "midi": 76,
      "hit": false,
      "t": 23519.81199999999,
      "d": 730.7700208333299,
      "v": 100
    },
    {
      "midi": 60,
      "hit": false,
      "t": 23925.32599999999,
      "d": 135.17133333333186,
      "v": 70
    },
    {
      "midi": 64,
      "hit": false,
      "t": 23925.32599999999,
      "d": 291.46318749999773,
      "v": 60
    },
    {
      "midi": 67,
      "hit": false,
      "t": 23925.32599999999,
      "d": 304.1354999999967,
      "v": 82
    },
    {
      "midi": 74,
      "hit": false,
      "t": 24330.839999999986,
      "d": 523.7889166666682,
      "v": 100
    },
    {
      "midi": 67,
      "hit": false,
      "t": 24330.839999999986,
      "d": 709.6495000000032,
      "v": 95
    },
    {
      "midi": 59,
      "hit": false,
      "t": 24330.839999999986,
      "d": 1165.8527500000018,
      "v": 90
    },
    {
      "midi": 71,
      "hit": false,
      "t": 25141.867999999988,
      "d": 435.08272916666465,
      "v": 100
    },
    {
      "midi": 74,
      "hit": false,
      "t": 25141.867999999988,
      "d": 726.545916666666,
      "v": 114
    },
    {
      "midi": 67,
      "hit": false,
      "t": 25547.381999999987,
      "d": 232.32572916666686,
      "v": 79
    },
    {
      "midi": 72,
      "hit": false,
      "t": 25952.895999999986,
      "d": 540.6853333333347,
      "v": 90
    },
    {
      "midi": 69,
      "hit": false,
      "t": 25952.895999999986,
      "d": 696.9771875000006,
      "v": 100
    },
    {
      "midi": 57,
      "hit": false,
      "t": 25952.895999999986,
      "d": 840.5967291666675,
      "v": 82
    },
    {
      "midi": 64,
      "hit": false,
      "t": 25952.895999999986,
      "d": 916.6306041666685,
      "v": 82
    },
    {
      "midi": 69,
      "hit": false,
      "t": 26763.923999999988,
      "d": 266.1185624999998,
      "v": 73
    },
    {
      "midi": 72,
      "hit": false,
      "t": 26763.923999999988,
      "d": 304.1355000000003,
      "v": 90
    },
    {
      "midi": 76,
      "hit": false,
      "t": 26763.923999999988,
      "d": 350.60064583333224,
      "v": 86
    },
    {
      "midi": 69,
      "hit": false,
      "t": 27169.437999999987,
      "d": 211.2052083333365,
      "v": 110
    },
    {
      "midi": 71,
      "hit": false,
      "t": 27372.19499999999,
      "d": 135.1713333333355,
      "v": 90
    },
    {
      "midi": 72,
      "hit": false,
      "t": 27574.95199999999,
      "d": 498.4442916666667,
      "v": 95
    },
    {
      "midi": 64,
      "hit": false,
      "t": 27574.95199999999,
      "d": 671.632562499999,
      "v": 76
    },
    {
      "midi": 57,
      "hit": false,
      "t": 27574.95199999999,
      "d": 675.8566666666666,
      "v": 86
    },
    {
      "midi": 69,
      "hit": false,
      "t": 27980.46599999999,
      "d": 299.9113958333364,
      "v": 62
    },
    {
      "midi": 72,
      "hit": false,
      "t": 28183.22299999999,
      "d": 76.03387500000099,
      "v": 20
    },
    {
      "midi": 69,
      "hit": false,
      "t": 28385.979999999992,
      "d": 287.23908333333384,
      "v": 95
    },
    {
      "midi": 72,
      "hit": false,
      "t": 28385.979999999992,
      "d": 342.1524375000008,
      "v": 90
    },
    {
      "midi": 76,
      "hit": false,
      "t": 28385.979999999992,
      "d": 456.20324999999866,
      "v": 82
    },
    {
      "midi": 64,
      "hit": false,
      "t": 28385.979999999992,
      "d": 502.6683958333306,
      "v": 70
    },
    {
      "midi": 55,
      "hit": false,
      "t": 28385.979999999992,
      "d": 654.7361458333289,
      "v": 82
    },
    {
      "midi": 69,
      "hit": false,
      "t": 28791.49399999999,
      "d": 304.1354999999967,
      "v": 53
    },
    {
      "midi": 74,
      "hit": false,
      "t": 29197.007999999987,
      "d": 460.4273541666662,
      "v": 95
    },
    {
      "midi": 77,
      "hit": false,
      "t": 29197.007999999987,
      "d": 629.3915208333347,
      "v": 86
    },
    {
      "midi": 62,
      "hit": false,
      "t": 29197.007999999987,
      "d": 891.2859791666633,
      "v": 82
    },
    {
      "midi": 65,
      "hit": false,
      "t": 29197.007999999987,
      "d": 899.7341874999984,
      "v": 82
    },
    {
      "midi": 69,
      "hit": false,
      "t": 29602.521999999986,
      "d": 270.34266666666736,
      "v": 49
    },
    {
      "midi": 74,
      "hit": false,
      "t": 30008.035999999986,
      "d": 418.18631249999817,
      "v": 100
    },
    {
      "midi": 77,
      "hit": false,
      "t": 30008.035999999986,
      "d": 654.7361458333326,
      "v": 110
    },
    {
      "midi": 65,
      "hit": false,
      "t": 30413.549999999985,
      "d": 211.20520833333285,
      "v": 64
    },
    {
      "midi": 69,
      "hit": false,
      "t": 30413.549999999985,
      "d": 291.46318750000137,
      "v": 70
    },
    {
      "midi": 62,
      "hit": false,
      "t": 30413.549999999985,
      "d": 304.1355000000003,
      "v": 70
    },
    {
      "midi": 72,
      "hit": false,
      "t": 30819.063999999984,
      "d": 494.22018749999916,
      "v": 105
    },
    {
      "midi": 77,
      "hit": false,
      "t": 30819.063999999984,
      "d": 642.0638333333336,
      "v": 95
    },
    {
      "midi": 60,
      "hit": false,
      "t": 30819.063999999984,
      "d": 1132.0599166666652,
      "v": 82
    },
    {
      "midi": 69,
      "hit": false,
      "t": 31224.577999999983,
      "d": 177.41237499999988,
      "v": 15
    },
    {
      "midi": 64,
      "hit": false,
      "t": 31224.577999999983,
      "d": 443.5309374999997,
      "v": 23
    },
    {
      "midi": 72,
      "hit": false,
      "t": 31630.091999999982,
      "d": 325.25602083333433,
      "v": 105
    },
    {
      "midi": 77,
      "hit": false,
      "t": 31630.091999999982,
      "d": 642.0638333333336,
      "v": 95
    },
    {
      "midi": 74,
      "hit": false,
      "t": 32441.11999999998,
      "d": 528.0130208333358,
      "v": 105
    },
    {
      "midi": 72,
      "hit": false,
      "t": 32441.11999999998,
      "d": 701.2012916666718,
      "v": 100
    },
    {
      "midi": 67,
      "hit": false,
      "t": 32441.11999999998,
      "d": 1089.8188750000045,
      "v": 100
    },
    {
      "midi": 55,
      "hit": false,
      "t": 32441.11999999998,
      "d": 1237.6625208333353,
      "v": 76
    },
    {
      "midi": 62,
      "hit": false,
      "t": 32441.11999999998,
      "d": 1246.1107291666704,
      "v": 73
    },
    {
      "midi": 74,
      "hit": false,
      "t": 33252.14799999999,
      "d": 760.3387499999953,
      "v": 105
    },
    {
      "midi": 72,
      "hit": false,
      "t": 33657.66199999998,
      "d": 253.44625000000087,
      "v": 73
    },
    {
      "midi": 67,
      "hit": false,
      "t": 33657.66199999998,
      "d": 287.23908333333384,
      "v": 86
    },
    {
      "midi": 71,
      "hit": false,
      "t": 34063.175999999985,
      "d": 1186.9732708333322,
      "v": 86
    },
    {
      "midi": 55,
      "hit": false,
      "t": 34063.175999999985,
      "d": 1199.6455833333312,
      "v": 82
    },
    {
      "midi": 62,
      "hit": false,
      "t": 34063.175999999985,
      "d": 1275.6794583333321,
      "v": 95
    },
    {
      "midi": 67,
      "hit": false,
      "t": 34063.175999999985,
      "d": 1431.971312499998,
      "v": 95
    },
    {
      "midi": 74,
      "hit": false,
      "t": 34874.20399999998,
      "d": 63.36156250000204,
      "v": 41
    },
    {
      "midi": 67,
      "hit": false,
      "t": 35685.23199999998,
      "d": 701.2012916666718,
      "v": 100
    },
    {
      "midi": 62,
      "hit": false,
      "t": 35685.23199999998,
      "d": 1246.1107291666776,
      "v": 86
    },
    {
      "midi": 55,
      "hit": false,
      "t": 35685.23199999998,
      "d": 1579.8149583333507,
      "v": 82
    },
    {
      "midi": 59,
      "hit": false,
      "t": 36090.745999999985,
      "d": 768.7869583333377,
      "v": 40
    },
    {
      "midi": 69,
      "hit": false,
      "t": 36496.25999999999,
      "d": 392.8416875000039,
      "v": 114
    },
    {
      "midi": 74,
      "hit": false,
      "t": 36496.25999999999,
      "d": 718.0977083333419,
      "v": 90
    },
    {
      "midi": 67,
      "hit": false,
      "t": 36901.77399999999,
      "d": 447.75504166667815,
      "v": 86
    },
    {
      "midi": 71,
      "hit": false,
      "t": 37307.288,
      "d": 464.6514583333337,
      "v": 79
    },
    {
      "midi": 74,
      "hit": false,
      "t": 37307.288,
      "d": 667.4084583333315,
      "v": 62
    },
    {
      "midi": 55,
      "hit": false,
      "t": 37307.288,
      "d": 912.4064999999973,
      "v": 29
    },
    {
      "midi": 62,
      "hit": false,
      "t": 37307.288,
      "d": 1199.6455833333312,
      "v": 73
    },
    {
      "midi": 67,
      "hit": false,
      "t": 37712.802,
      "d": 325.2560208333307,
      "v": 68
    },
    {
      "midi": 71,
      "hit": false,
      "t": 38118.316,
      "d": 346.3765416666647,
      "v": 110
    },
    {
      "midi": 74,
      "hit": false,
      "t": 38118.316,
      "d": 405.51400000000285,
      "v": 90
    },
    {
      "midi": 74,
      "hit": false,
      "t": 38929.344000000005,
      "d": 464.6514583333337,
      "v": 66
    },
    {
      "midi": 69,
      "hit": false,
      "t": 38929.344000000005,
      "d": 1064.4742499999993,
      "v": 82
    },
    {
      "midi": 66,
      "hit": false,
      "t": 38929.344000000005,
      "d": 1098.2670833333323,
      "v": 91
    },
    {
      "midi": 62,
      "hit": false,
      "t": 38929.344000000005,
      "d": 2483.7732500000056,
      "v": 90
    },
    {
      "midi": 78,
      "hit": false,
      "t": 39740.372,
      "d": 405.51400000000285,
      "v": 99
    },
    {
      "midi": 74,
      "hit": false,
      "t": 39740.372,
      "d": 439.3068333333358,
      "v": 76
    },
    {
      "midi": 69,
      "hit": false,
      "t": 40145.886000000006,
      "d": 1913.5191875000019,
      "v": 79
    },
    {
      "midi": 74,
      "hit": false,
      "t": 40348.643000000004,
      "d": 105.60260416667006,
      "v": 70
    },
    {
      "midi": 79,
      "hit": false,
      "t": 40551.40000000001,
      "d": 629.3915208333347,
      "v": 110
    },
    {
      "midi": 66,
      "hit": false,
      "t": 40551.40000000001,
      "d": 933.5270208333313,
      "v": 106
    },
    {
      "midi": 78,
      "hit": false,
      "t": 41362.42800000001,
      "d": 574.4781666666677,
      "v": 106
    },
    {
      "midi": 71,
      "hit": false,
      "t": 42173.456000000006,
      "d": 671.6325625000027,
      "v": 90
    },
    {
      "midi": 67,
      "hit": false,
      "t": 42173.456000000006,
      "d": 680.0807708333377,
      "v": 105
    },
    {
      "midi": 62,
      "hit": false,
      "t": 42173.456000000006,
      "d": 785.6833750000078,
      "v": 90
    },
    {
      "midi": 55,
      "hit": false,
      "t": 42173.456000000006,
      "d": 925.0788125000036,
      "v": 82
    },
    {
      "midi": 71,
      "hit": false,
      "t": 42984.48400000001,
      "d": 1448.8677291666609,
      "v": 82
    },
    {
      "midi": 62,
      "hit": false,
      "t": 43389.99800000001,
      "d": 696.9771875000006,
      "v": 79
    },
    {
      "midi": 67,
      "hit": false,
      "t": 43795.51200000001,
      "d": 456.20324999999866,
      "v": 105
    },
    {
      "midi": 55,
      "hit": false,
      "t": 43795.51200000001,
      "d": 1165.8527499999982,
      "v": 76
    },
    {
      "midi": 59,
      "hit": false,
      "t": 44201.026000000005,
      "d": 705.4253958333356,
      "v": 70
    },
    {
      "midi": 62,
      "hit": false,
      "t": 44201.026000000005,
      "d": 1056.0260416666715,
      "v": 64
    },
    {
      "midi": 71,
      "hit": false,
      "t": 44606.54000000001,
      "d": 773.0110625000016,
      "v": 95
    },
    {
      "midi": 69,
      "hit": false,
      "t": 45417.56800000001,
      "d": 684.3048750000016,
      "v": 95
    },
    {
      "midi": 62,
      "hit": false,
      "t": 45417.56800000001,
      "d": 1047.5778333333292,
      "v": 105
    },
    {
      "midi": 50,
      "hit": false,
      "t": 45417.56800000001,
      "d": 1402.402583333329,
      "v": 79
    },
    {
      "midi": 57,
      "hit": false,
      "t": 45417.56800000001,
      "d": 1410.850791666664,
      "v": 95
    },
    {
      "midi": 66,
      "hit": false,
      "t": 46228.596000000005,
      "d": 363.27295833332755,
      "v": 91
    },
    {
      "midi": 69,
      "hit": false,
      "t": 46228.596000000005,
      "d": 701.2012916666718,
      "v": 90
    },
    {
      "midi": 62,
      "hit": false,
      "t": 46634.11,
      "d": 278.79087500000605,
      "v": 79
    },
    {
      "midi": 57,
      "hit": false,
      "t": 47039.62400000001,
      "d": 642.0638333333336,
      "v": 86
    },
    {
      "midi": 62,
      "hit": false,
      "t": 47039.62400000001,
      "d": 663.1843541666676,
      "v": 86
    },
    {
      "midi": 67,
      "hit": false,
      "t": 47039.62400000001,
      "d": 680.0807708333377,
      "v": 100
    },
    {
      "midi": 69,
      "hit": false,
      "t": 47039.62400000001,
      "d": 692.7530833333367,
      "v": 100
    },
    {
      "midi": 50,
      "hit": false,
      "t": 47039.62400000001,
      "d": 705.4253958333356,
      "v": 79
    },
    {
      "midi": 50,
      "hit": false,
      "t": 47850.65200000002,
      "d": 371.7211666666699,
      "v": 79
    },
    {
      "midi": 57,
      "hit": false,
      "t": 47850.65200000002,
      "d": 435.0827291666719,
      "v": 82
    },
    {
      "midi": 66,
      "hit": false,
      "t": 47850.65200000002,
      "d": 561.8058541666687,
      "v": 91
    },
    {
      "midi": 62,
      "hit": false,
      "t": 47850.65200000002,
      "d": 591.3745833333378,
      "v": 82
    },
    {
      "midi": 69,
      "hit": false,
      "t": 47850.65200000002,
      "d": 658.9602500000037,
      "v": 86
    },
    {
      "midi": 67,
      "hit": false,
      "t": 48661.68000000002,
      "d": 532.2371249999997,
      "v": 95
    },
    {
      "midi": 62,
      "hit": false,
      "t": 48661.68000000002,
      "d": 1089.8188749999972,
      "v": 86
    },
    {
      "midi": 55,
      "hit": false,
      "t": 48661.68000000002,
      "d": 1410.850791666664,
      "v": 79
    },
    {
      "midi": 59,
      "hit": false,
      "t": 48661.68000000002,
      "d": 1415.074895833328,
      "v": 82
    },
    {
      "midi": 71,
      "hit": false,
      "t": 49472.70800000002,
      "d": 743.4423333333325,
      "v": 95
    },
    {
      "midi": 62,
      "hit": false,
      "t": 49878.222000000016,
      "d": 646.2879375000048,
      "v": 82
    },
    {
      "midi": 67,
      "hit": false,
      "t": 50283.73600000002,
      "d": 384.39347916666884,
      "v": 90
    },
    {
      "midi": 55,
      "hit": false,
      "t": 50283.73600000002,
      "d": 1305.2481875000012,
      "v": 90
    },
    {
      "midi": 62,
      "hit": false,
      "t": 50689.25000000002,
      "d": 101.3784999999989,
      "v": 56
    },
    {
      "midi": 59,
      "hit": false,
      "t": 50689.25000000002,
      "d": 794.1315833333283,
      "v": 79
    },
    {
      "midi": 67,
      "hit": false,
      "t": 50892.00700000002,
      "d": 46.46514583333192,
      "v": 53
    },
    {
      "midi": 62,
      "hit": false,
      "t": 50892.00700000002,
      "d": 122.4990208333329,
      "v": 34
    },
    {
      "midi": 62,
      "hit": false,
      "t": 51094.76400000002,
      "d": 283.01497916666267,
      "v": 62
    },
    {
      "midi": 71,
      "hit": false,
      "t": 51094.76400000002,
      "d": 726.5459166666697,
      "v": 105
    },
    {
      "midi": 67,
      "hit": false,
      "t": 51297.521000000015,
      "d": 240.77393750000192,
      "v": 62
    },
    {
      "midi": 62,
      "hit": false,
      "t": 51500.27800000002,
      "d": 261.89445833333593,
      "v": 47
    },
    {
      "midi": 69,
      "hit": false,
      "t": 51905.79200000002,
      "d": 616.7192083333357,
      "v": 105
    },
    {
      "midi": 62,
      "hit": false,
      "t": 51905.79200000002,
      "d": 1056.0260416666715,
      "v": 86
    },
    {
      "midi": 50,
      "hit": false,
      "t": 51905.79200000002,
      "d": 2103.603875000008,
      "v": 82
    },
    {
      "midi": 57,
      "hit": false,
      "t": 51905.79200000002,
      "d": 2268.343937500009,
      "v": 86
    },
    {
      "midi": 66,
      "hit": false,
      "t": 52716.82000000003,
      "d": 422.4104166666657,
      "v": 99
    },
    {
      "midi": 62,
      "hit": false,
      "t": 53122.334000000024,
      "d": 612.4951041666718,
      "v": 82
    },
    {
      "midi": 67,
      "hit": false,
      "t": 53527.84800000003,
      "d": 726.5459166666769,
      "v": 114
    },
    {
      "midi": 62,
      "hit": false,
      "t": 53933.36200000003,
      "d": 257.67035416667204,
      "v": 60
    },
    {
      "midi": 66,
      "hit": false,
      "t": 54338.87600000004,
      "d": 308.35960416666785,
      "v": 99
    },
    {
      "midi": 57,
      "hit": false,
      "t": 54338.87600000004,
      "d": 536.4612291666708,
      "v": 95
    },
    {
      "midi": 62,
      "hit": false,
      "t": 54338.87600000004,
      "d": 654.7361458333398,
      "v": 86
    },
    {
      "midi": 50,
      "hit": false,
      "t": 54338.87600000004,
      "d": 684.3048750000089,
      "v": 79
    },
    {
      "midi": 69,
      "hit": false,
      "t": 54744.39000000004,
      "d": 299.91139583334007,
      "v": 105
    },
    {
      "midi": 67,
      "hit": false,
      "t": 55149.90400000005,
      "d": 675.8566666666666,
      "v": 110
    },
    {
      "midi": 62,
      "hit": false,
      "t": 55149.90400000005,
      "d": 1051.8019375000003,
      "v": 86
    },
    {
      "midi": 55,
      "hit": false,
      "t": 55149.90400000005,
      "d": 1279.9035625000033,
      "v": 82
    },
    {
      "midi": 71,
      "hit": false,
      "t": 55960.93200000005,
      "d": 354.82474999999977,
      "v": 79
    },
    {
      "midi": 59,
      "hit": false,
      "t": 55960.93200000005,
      "d": 2069.811041666675,
      "v": 44
    },
    {
      "midi": 62,
      "hit": false,
      "t": 56366.446000000054,
      "d": 1106.7152916666746,
      "v": 90
    },
    {
      "midi": 67,
      "hit": false,
      "t": 56569.20300000006,
      "d": 156.29185416666587,
      "v": 90
    },
    {
      "midi": 74,
      "hit": false,
      "t": 56771.96000000006,
      "d": 540.6853333333347,
      "v": 100
    },
    {
      "midi": 67,
      "hit": false,
      "t": 56771.96000000006,
      "d": 637.8397291666697,
      "v": 95
    },
    {
      "midi": 62,
      "hit": false,
      "t": 57582.98800000006,
      "d": 304.1354999999967,
      "v": 79
    },
    {
      "midi": 55,
      "hit": false,
      "t": 57582.98800000006,
      "d": 502.6683958333306,
      "v": 79
    },
    {
      "midi": 71,
      "hit": false,
      "t": 57582.98800000006,
      "d": 726.5459166666697,
      "v": 95
    },
    {
      "midi": 62,
      "hit": false,
      "t": 57988.50200000006,
      "d": 270.342666666671,
      "v": 64
    },
    {
      "midi": 69,
      "hit": false,
      "t": 58394.01600000007,
      "d": 629.3915208333347,
      "v": 110
    },
    {
      "midi": 62,
      "hit": false,
      "t": 58394.01600000007,
      "d": 1085.5947708333333,
      "v": 86
    },
    {
      "midi": 50,
      "hit": false,
      "t": 58394.01600000007,
      "d": 1360.1615416666682,
      "v": 82
    },
    {
      "midi": 57,
      "hit": false,
      "t": 58394.01600000007,
      "d": 1415.0748958333352,
      "v": 82
    },
    {
      "midi": 69,
      "hit": false,
      "t": 59205.04400000007,
      "d": 532.2371249999997,
      "v": 105
    },
    {
      "midi": 66,
      "hit": false,
      "t": 59205.04400000007,
      "d": 604.0468958333367,
      "v": 99
    },
    {
      "midi": 62,
      "hit": false,
      "t": 59610.55800000007,
      "d": 283.01497916666995,
      "v": 66
    },
    {
      "midi": 62,
      "hit": false,
      "t": 60016.07200000007,
      "d": 688.5289791666655,
      "v": 76
    },
    {
      "midi": 67,
      "hit": false,
      "t": 60016.07200000007,
      "d": 692.7530833333294,
      "v": 105
    },
    {
      "midi": 50,
      "hit": false,
      "t": 60016.07200000007,
      "d": 802.5797916666634,
      "v": 79
    },
    {
      "midi": 57,
      "hit": false,
      "t": 60016.07200000007,
      "d": 1220.7661041666652,
      "v": 82
    },
    {
      "midi": 62,
      "hit": false,
      "t": 60827.10000000007,
      "d": 473.0996666666688,
      "v": 79
    },
    {
      "midi": 66,
      "hit": false,
      "t": 60827.10000000007,
      "d": 519.5648125000007,
      "v": 99
    },
    {
      "midi": 64,
      "hit": false,
      "t": 61638.12800000007,
      "d": 321.0319166666668,
      "v": 90
    },
    {
      "midi": 69,
      "hit": false,
      "t": 61638.12800000007,
      "d": 384.39347916666884,
      "v": 110
    },
    {
      "midi": 72,
      "hit": false,
      "t": 61638.12800000007,
      "d": 409.73810416666674,
      "v": 90
    },
    {
      "midi": 57,
      "hit": false,
      "t": 61638.12800000007,
      "d": 1334.8169166666703,
      "v": 82
    },
    {
      "midi": 60,
      "hit": false,
      "t": 61638.12800000007,
      "d": 1546.0221250000031,
      "v": 79
    },
    {
      "midi": 64,
      "hit": false,
      "t": 62043.64200000007,
      "d": 734.9941249999974,
      "v": 64
    },
    {
      "midi": 72,
      "hit": false,
      "t": 62449.15600000007,
      "d": 1385.5061666666734,
      "v": 114
    },
    {
      "midi": 64,
      "hit": false,
      "t": 62854.67000000007,
      "d": 722.3218125000058,
      "v": 82
    },
    {
      "midi": 60,
      "hit": false,
      "t": 63260.184000000074,
      "d": 388.61758333333273,
      "v": 70
    },
    {
      "midi": 67,
      "hit": false,
      "t": 63260.184000000074,
      "d": 451.97914583333477,
      "v": 105
    },
    {
      "midi": 55,
      "hit": false,
      "t": 63260.184000000074,
      "d": 891.2859791666633,
      "v": 68
    },
    {
      "midi": 64,
      "hit": false,
      "t": 63665.69800000008,
      "d": 299.9113958333328,
      "v": 60
    },
    {
      "midi": 60,
      "hit": false,
      "t": 63665.69800000008,
      "d": 401.2898958333317,
      "v": 32
    },
    {
      "midi": 64,
      "hit": false,
      "t": 64071.21200000007,
      "d": 291.46318749999773,
      "v": 51
    },
    {
      "midi": 72,
      "hit": false,
      "t": 64071.21200000007,
      "d": 739.2182291666613,
      "v": 105
    },
    {
      "midi": 64,
      "hit": false,
      "t": 64476.72600000007,
      "d": 244.9980416666658,
      "v": 53
    },
    {
      "midi": 57,
      "hit": false,
      "t": 64882.24000000006,
      "d": 625.1674166666635,
      "v": 95
    },
    {
      "midi": 66,
      "hit": false,
      "t": 64882.24000000006,
      "d": 912.4064999999973,
      "v": 106
    },
    {
      "midi": 50,
      "hit": false,
      "t": 64882.24000000006,
      "d": 1491.1087708333362,
      "v": 76
    },
    {
      "midi": 57,
      "hit": false,
      "t": 65693.26800000005,
      "d": 654.7361458333471,
      "v": 79
    },
    {
      "midi": 62,
      "hit": false,
      "t": 65896.02500000007,
      "d": 215.42931249999674,
      "v": 79
    },
    {
      "midi": 64,
      "hit": false,
      "t": 66098.78200000006,
      "d": 164.74006250000093,
      "v": 105
    },
    {
      "midi": 67,
      "hit": false,
      "t": 66301.53900000006,
      "d": 143.6195416666742,
      "v": 105
    },
    {
      "midi": 66,
      "hit": false,
      "t": 66504.29600000007,
      "d": 384.39347916666884,
      "v": 115
    },
    {
      "midi": 57,
      "hit": false,
      "t": 66504.29600000007,
      "d": 616.7192083333357,
      "v": 79
    },
    {
      "midi": 50,
      "hit": false,
      "t": 66504.29600000007,
      "d": 870.1654583333293,
      "v": 76
    },
    {
      "midi": 62,
      "hit": false,
      "t": 66909.81000000007,
      "d": 287.23908333333384,
      "v": 66
    },
    {
      "midi": 62,
      "hit": false,
      "t": 67315.32400000007,
      "d": 33.79283333334024,
      "v": 45
    },
    {
      "midi": 66,
      "hit": false,
      "t": 67315.32400000007,
      "d": 346.376541666672,
      "v": 106
    },
    {
      "midi": 69,
      "hit": false,
      "t": 67315.32400000007,
      "d": 401.28989583333896,
      "v": 110
    },
    {
      "midi": 57,
      "hit": false,
      "t": 67315.32400000007,
      "d": 451.9791458333493,
      "v": 100
    },
    {
      "midi": 62,
      "hit": false,
      "t": 67720.83800000008,
      "d": 287.23908333333384,
      "v": 62
    },
    {
      "midi": 72,
      "hit": false,
      "t": 68126.35200000007,
      "d": 397.0657916666678,
      "v": 100
    },
    {
      "midi": 69,
      "hit": false,
      "t": 68126.35200000007,
      "d": 443.53093749999243,
      "v": 110
    },
    {
      "midi": 60,
      "hit": false,
      "t": 68126.35200000007,
      "d": 1165.852749999991,
      "v": 105
    },
    {
      "midi": 57,
      "hit": false,
      "t": 68126.35200000007,
      "d": 1322.1446041666495,
      "v": 70
    },
    {
      "midi": 64,
      "hit": false,
      "t": 68531.86600000007,
      "d": 329.48012500000186,
      "v": 64
    },
    {
      "midi": 64,
      "hit": false,
      "t": 68937.38000000006,
      "d": 42.241041666668025,
      "v": 49
    },
    {
      "midi": 72,
      "hit": false,
      "t": 68937.38000000006,
      "d": 680.0807708333305,
      "v": 117
    },
    {
      "midi": 69,
      "hit": false,
      "t": 69140.13700000006,
      "d": 202.7569999999978,
      "v": 82
    },
    {
      "midi": 64,
      "hit": false,
      "t": 69342.89400000006,
      "d": 308.3596041666751,
      "v": 68
    },
    {
      "midi": 67,
      "hit": false,
      "t": 69748.40800000007,
      "d": 460.42735416666255,
      "v": 105
    },
    {
      "midi": 72,
      "hit": false,
      "t": 69748.40800000007,
      "d": 654.7361458333326,
      "v": 95
    },
    {
      "midi": 55,
      "hit": false,
      "t": 69748.40800000007,
      "d": 832.1485208333324,
      "v": 62
    },
    {
      "midi": 60,
      "hit": false,
      "t": 69748.40800000007,
      "d": 849.0449375000026,
      "v": 73
    },
    {
      "midi": 64,
      "hit": false,
      "t": 70153.92200000006,
      "d": 316.8078125000029,
      "v": 56
    },
    {
      "midi": 64,
      "hit": false,
      "t": 70559.43600000007,
      "d": 84.48208333333605,
      "v": 53
    },
    {
      "midi": 67,
      "hit": false,
      "t": 70559.43600000007,
      "d": 375.94527083334106,
      "v": 110
    },
    {
      "midi": 72,
      "hit": false,
      "t": 70559.43600000007,
      "d": 684.3048750000162,
      "v": 100
    },
    {
      "midi": 64,
      "hit": false,
      "t": 70964.95000000008,
      "d": 194.30879166667,
      "v": 49
    },
    {
      "midi": 62,
      "hit": false,
      "t": 71370.4640000001,
      "d": 1068.698354166656,
      "v": 95
    },
    {
      "midi": 50,
      "hit": false,
      "t": 71370.4640000001,
      "d": 1279.9035624999815,
      "v": 53
    },
    {
      "midi": 57,
      "hit": false,
      "t": 71370.4640000001,
      "d": 1292.5758749999804,
      "v": 100
    },
    {
      "midi": 67,
      "hit": false,
      "t": 71775.97800000009,
      "d": 312.58370833333174,
      "v": 100
    },
    {
      "midi": 69,
      "hit": false,
      "t": 72181.49200000009,
      "d": 756.1146458333242,
      "v": 114
    },
    {
      "midi": 62,
      "hit": false,
      "t": 72587.00600000008,
      "d": 261.8944583333214,
      "v": 73
    },
    {
      "midi": 67,
      "hit": false,
      "t": 72587.00600000008,
      "d": 266.11856249999255,
      "v": 90
    },
    {
      "midi": 62,
      "hit": false,
      "t": 72992.52000000008,
      "d": 219.6534166666679,
      "v": 76
    },
    {
      "midi": 66,
      "hit": false,
      "t": 72992.52000000008,
      "d": 422.4104166666657,
      "v": 75
    },
    {
      "midi": 69,
      "hit": false,
      "t": 72992.52000000008,
      "d": 443.53093749999243,
      "v": 70
    },
    {
      "midi": 50,
      "hit": false,
      "t": 72992.52000000008,
      "d": 912.4064999999973,
      "v": 76
    },
    {
      "midi": 57,
      "hit": false,
      "t": 72992.52000000008,
      "d": 1250.3348333333415,
      "v": 79
    },
    {
      "midi": 62,
      "hit": false,
      "t": 73398.03400000007,
      "d": 261.89445833333593,
      "v": 47
    },
    {
      "midi": 62,
      "hit": false,
      "t": 73803.54800000007,
      "d": 84.48208333333605,
      "v": 56
    },
    {
      "midi": 69,
      "hit": false,
      "t": 73803.54800000007,
      "d": 494.22018750001735,
      "v": 114
    },
    {
      "midi": 62,
      "hit": false,
      "t": 74209.06200000008,
      "d": 152.06775000000198,
      "v": 34
    },
    {
      "midi": 67,
      "hit": false,
      "t": 74614.57600000007,
      "d": 519.5648125000007,
      "v": 95
    },
    {
      "midi": 55,
      "hit": false,
      "t": 74614.57600000007,
      "d": 832.1485208333324,
      "v": 82
    },
    {
      "midi": 59,
      "hit": false,
      "t": 74614.57600000007,
      "d": 849.0449375000026,
      "v": 90
    },
    {
      "midi": 62,
      "hit": false,
      "t": 74614.57600000007,
      "d": 1047.5778333333292,
      "v": 95
    },
    {
      "midi": 67,
      "hit": false,
      "t": 75425.60400000008,
      "d": 384.3934791666543,
      "v": 100
    },
    {
      "midi": 71,
      "hit": false,
      "t": 75425.60400000008,
      "d": 756.1146458333096,
      "v": 95
    },
    {
      "midi": 55,
      "hit": false,
      "t": 75831.11800000006,
      "d": 325.2560208333307,
      "v": 82
    },
    {
      "midi": 62,
      "hit": false,
      "t": 75831.11800000006,
      "d": 371.72116666665534,
      "v": 79
    },
    {
      "midi": 67,
      "hit": false,
      "t": 76236.63200000006,
      "d": 350.6006458333286,
      "v": 82
    },
    {
      "midi": 59,
      "hit": false,
      "t": 76236.63200000006,
      "d": 1148.9563333333354,
      "v": 100
    },
    {
      "midi": 55,
      "hit": false,
      "t": 76236.63200000006,
      "d": 1161.6286458333343,
      "v": 82
    },
    {
      "midi": 62,
      "hit": false,
      "t": 76642.14600000005,
      "d": 109.82670833333395,
      "v": 79
    },
    {
      "midi": 67,
      "hit": false,
      "t": 76844.90300000005,
      "d": 114.05081250000512,
      "v": 95
    },
    {
      "midi": 62,
      "hit": false,
      "t": 76844.90300000005,
      "d": 118.27491666667629,
      "v": 47
    },
    {
      "midi": 62,
      "hit": false,
      "t": 77047.66000000006,
      "d": 316.8078125000029,
      "v": 64
    },
    {
      "midi": 71,
      "hit": false,
      "t": 77047.66000000006,
      "d": 688.5289791666582,
      "v": 114
    },
    {
      "midi": 62,
      "hit": false,
      "t": 77453.17400000006,
      "d": 270.3426666666637,
      "v": 64
    },
    {
      "midi": 62,
      "hit": false,
      "t": 77858.68800000005,
      "d": 316.8078125000029,
      "v": 64
    },
    {
      "midi": 66,
      "hit": false,
      "t": 77858.68800000005,
      "d": 498.44429166667396,
      "v": 99
    },
    {
      "midi": 69,
      "hit": false,
      "t": 77858.68800000005,
      "d": 506.89250000000175,
      "v": 110
    },
    {
      "midi": 57,
      "hit": false,
      "t": 77858.68800000005,
      "d": 1288.3517708333384,
      "v": 82
    },
    {
      "midi": 50,
      "hit": false,
      "t": 77858.68800000005,
      "d": 1313.6963958333363,
      "v": 76
    },
    {
      "midi": 62,
      "hit": false,
      "t": 78264.20200000006,
      "d": 489.9960833333316,
      "v": 43
    },
    {
      "midi": 66,
      "hit": false,
      "t": 78669.71600000006,
      "d": 105.60260416666279,
      "v": 99
    },
    {
      "midi": 69,
      "hit": false,
      "t": 78669.71600000006,
      "d": 367.4970624999987,
      "v": 105
    },
    {
      "midi": 62,
      "hit": false,
      "t": 79075.23000000005,
      "d": 342.1524375000008,
      "v": 86
    },
    {
      "midi": 66,
      "hit": false,
      "t": 79277.98700000005,
      "d": 109.82670833333395,
      "v": 75
    },
    {
      "midi": 69,
      "hit": false,
      "t": 79480.74400000005,
      "d": 12.672312499998952,
      "v": 76
    },
    {
      "midi": 62,
      "hit": false,
      "t": 79480.74400000005,
      "d": 350.6006458333286,
      "v": 49
    },
    {
      "midi": 50,
      "hit": false,
      "t": 79480.74400000005,
      "d": 620.9433124999923,
      "v": 76
    },
    {
      "midi": 57,
      "hit": false,
      "t": 79480.74400000005,
      "d": 620.9433124999923,
      "v": 90
    },
    {
      "midi": 67,
      "hit": false,
      "t": 79480.74400000005,
      "d": 756.1146458333242,
      "v": 110
    },
    {
      "midi": 66,
      "hit": false,
      "t": 79886.25800000005,
      "d": 325.2560208333307,
      "v": 111
    },
    {
      "midi": 64,
      "hit": false,
      "t": 80291.77200000004,
      "d": 375.9452708333265,
      "v": 100
    },
    {
      "midi": 57,
      "hit": false,
      "t": 80291.77200000004,
      "d": 502.6683958333306,
      "v": 90
    },
    {
      "midi": 50,
      "hit": false,
      "t": 80291.77200000004,
      "d": 629.3915208333347,
      "v": 79
    },
    {
      "midi": 62,
      "hit": false,
      "t": 80697.28600000004,
      "d": 291.463187500005,
      "v": 95
    },
    {
      "midi": 59,
      "hit": false,
      "t": 81102.80000000005,
      "d": 887.0618749999994,
      "v": 95
    },
    {
      "midi": 55,
      "hit": false,
      "t": 81102.80000000005,
      "d": 1465.7641458333383,
      "v": 82
    },
    {
      "midi": 62,
      "hit": false,
      "t": 81913.82800000005,
      "d": 270.3426666666637,
      "v": 73
    },
    {
      "midi": 71,
      "hit": false,
      "t": 81913.82800000005,
      "d": 456.2032499999914,
      "v": 86
    },
    {
      "midi": 62,
      "hit": false,
      "t": 82319.34200000005,
      "d": 139.39543750000303,
      "v": 86
    },
    {
      "midi": 59,
      "hit": false,
      "t": 82319.34200000005,
      "d": 270.3426666666637,
      "v": 86
    },
    {
      "midi": 67,
      "hit": false,
      "t": 82522.09900000005,
      "d": 118.27491666666174,
      "v": 82
    },
    {
      "midi": 62,
      "hit": false,
      "t": 82522.09900000005,
      "d": 122.4990208333329,
      "v": 38
    },
    {
      "midi": 62,
      "hit": false,
      "t": 82724.85600000004,
      "d": 244.9980416666658,
      "v": 82
    },
    {
      "midi": 67,
      "hit": false,
      "t": 82724.85600000004,
      "d": 388.61758333332546,
      "v": 105
    },
    {
      "midi": 71,
      "hit": false,
      "t": 82724.85600000004,
      "d": 519.5648125000007,
      "v": 90
    },
    {
      "midi": 59,
      "hit": false,
      "t": 82724.85600000004,
      "d": 1127.835812499994,
      "v": 82
    },
    {
      "midi": 55,
      "hit": false,
      "t": 82724.85600000004,
      "d": 1237.662520833328,
      "v": 90
    },
    {
      "midi": 62,
      "hit": false,
      "t": 83130.37000000004,
      "d": 329.48012500000186,
      "v": 64
    },
    {
      "midi": 62,
      "hit": false,
      "t": 83535.88400000003,
      "d": 266.1185625000071,
      "v": 56
    },
    {
      "midi": 71,
      "hit": false,
      "t": 83535.88400000003,
      "d": 730.7700208333408,
      "v": 110
    },
    {
      "midi": 62,
      "hit": false,
      "t": 83941.39800000004,
      "d": 295.6872916666616,
      "v": 66
    },
    {
      "midi": 66,
      "hit": false,
      "t": 84346.91200000004,
      "d": 25.344624999997905,
      "v": 61
    },
    {
      "midi": 69,
      "hit": false,
      "t": 84346.91200000004,
      "d": 637.8397291666624,
      "v": 100
    },
    {
      "midi": 50,
      "hit": false,
      "t": 84346.91200000004,
      "d": 1330.5928124999919,
      "v": 73
    },
    {
      "midi": 57,
      "hit": false,
      "t": 84346.91200000004,
      "d": 1419.298999999999,
      "v": 86
    },
    {
      "midi": 66,
      "hit": false,
      "t": 85157.94000000003,
      "d": 147.8436458333308,
      "v": 106
    },
    {
      "midi": 69,
      "hit": false,
      "t": 85157.94000000003,
      "d": 211.20520833332557,
      "v": 90
    },
    {
      "midi": 62,
      "hit": false,
      "t": 85360.69700000003,
      "d": 528.013020833343,
      "v": 76
    },
    {
      "midi": 66,
      "hit": false,
      "t": 85563.45400000003,
      "d": 283.0149791666772,
      "v": 64
    },
    {
      "midi": 62,
      "hit": false,
      "t": 85968.96800000004,
      "d": 646.2879375000048,
      "v": 79
    },
    {
      "midi": 50,
      "hit": false,
      "t": 85968.96800000004,
      "d": 671.6325625000027,
      "v": 79
    },
    {
      "midi": 57,
      "hit": false,
      "t": 85968.96800000004,
      "d": 680.0807708333305,
      "v": 82
    },
    {
      "midi": 67,
      "hit": false,
      "t": 85968.96800000004,
      "d": 692.7530833333294,
      "v": 114
    },
    {
      "midi": 50,
      "hit": false,
      "t": 86779.99600000003,
      "d": 215.42931249999674,
      "v": 82
    },
    {
      "midi": 57,
      "hit": false,
      "t": 86779.99600000003,
      "d": 519.5648125000007,
      "v": 86
    },
    {
      "midi": 62,
      "hit": false,
      "t": 86779.99600000003,
      "d": 570.2540624999965,
      "v": 86
    },
    {
      "midi": 66,
      "hit": false,
      "t": 86779.99600000003,
      "d": 599.8227916666656,
      "v": 99
    },
    {
      "midi": 60,
      "hit": false,
      "t": 87591.02400000003,
      "d": 861.717249999987,
      "v": 95
    },
    {
      "midi": 64,
      "hit": false,
      "t": 87591.02400000003,
      "d": 1068.698354166656,
      "v": 95
    },
    {
      "midi": 57,
      "hit": false,
      "t": 87591.02400000003,
      "d": 1347.489229166662,
      "v": 86
    },
    {
      "midi": 69,
      "hit": false,
      "t": 87996.53800000003,
      "d": 283.01497916666267,
      "v": 90
    },
    {
      "midi": 72,
      "hit": false,
      "t": 88402.05200000003,
      "d": 743.4423333333398,
      "v": 110
    },
    {
      "midi": 69,
      "hit": false,
      "t": 88604.80900000002,
      "d": 168.9641666666721,
      "v": 70
    },
    {
      "midi": 60,
      "hit": false,
      "t": 88807.56600000004,
      "d": 261.8944583333214,
      "v": 70
    },
    {
      "midi": 64,
      "hit": false,
      "t": 88807.56600000004,
      "d": 295.6872916666616,
      "v": 73
    },
    {
      "midi": 64,
      "hit": false,
      "t": 89213.08000000003,
      "d": 342.1524375000008,
      "v": 90
    },
    {
      "midi": 67,
      "hit": false,
      "t": 89213.08000000003,
      "d": 435.08272916666465,
      "v": 105
    },
    {
      "midi": 55,
      "hit": false,
      "t": 89213.08000000003,
      "d": 857.4931458333303,
      "v": 70
    },
    {
      "midi": 64,
      "hit": false,
      "t": 89618.59400000003,
      "d": 299.9113958333328,
      "v": 44
    },
    {
      "midi": 60,
      "hit": false,
      "t": 89618.59400000003,
      "d": 481.54787500000384,
      "v": 66
    },
    {
      "midi": 64,
      "hit": false,
      "t": 90024.10800000002,
      "d": 295.6872916666762,
      "v": 68
    },
    {
      "midi": 72,
      "hit": false,
      "t": 90024.10800000002,
      "d": 718.0977083333419,
      "v": 100
    },
    {
      "midi": 67,
      "hit": false,
      "t": 90226.86500000003,
      "d": 215.42931249999674,
      "v": 79
    },
    {
      "midi": 64,
      "hit": false,
      "t": 90429.62200000003,
      "d": 261.89445833333593,
      "v": 58
    },
    {
      "midi": 66,
      "hit": false,
      "t": 90835.13600000003,
      "d": 637.8397291666624,
      "v": 75
    },
    {
      "midi": 50,
      "hit": false,
      "t": 90835.13600000003,
      "d": 1499.5569791666785,
      "v": 79
    },
    {
      "midi": 62,
      "hit": false,
      "t": 91240.65000000002,
      "d": 71.8097708333371,
      "v": 5
    },
    {
      "midi": 54,
      "hit": false,
      "t": 91240.65000000002,
      "d": 1043.3537291666726,
      "v": 64
    },
    {
      "midi": 62,
      "hit": false,
      "t": 91646.16400000002,
      "d": 101.37850000000617,
      "v": 100
    },
    {
      "midi": 57,
      "hit": false,
      "t": 91646.16400000002,
      "d": 637.839729166677,
      "v": 95
    },
    {
      "midi": 62,
      "hit": false,
      "t": 91848.92100000003,
      "d": 371.72116666665534,
      "v": 79
    },
    {
      "midi": 66,
      "hit": false,
      "t": 92051.67800000003,
      "d": 147.8436458333308,
      "v": 75
    },
    {
      "midi": 62,
      "hit": false,
      "t": 92254.43500000003,
      "d": 76.03387500000827,
      "v": 45
    },
    {
      "midi": 67,
      "hit": false,
      "t": 92254.43500000003,
      "d": 152.06775000001653,
      "v": 100
    },
    {
      "midi": 62,
      "hit": false,
      "t": 92457.19200000004,
      "d": 287.23908333333384,
      "v": 86
    },
    {
      "midi": 66,
      "hit": false,
      "t": 92457.19200000004,
      "d": 489.9960833333316,
      "v": 99
    },
    {
      "midi": 57,
      "hit": false,
      "t": 92457.19200000004,
      "d": 671.6325625000027,
      "v": 95
    },
    {
      "midi": 50,
      "hit": false,
      "t": 92457.19200000004,
      "d": 857.4931458333449,
      "v": 79
    },
    {
      "midi": 62,
      "hit": false,
      "t": 92862.70600000003,
      "d": 346.376541666672,
      "v": 49
    },
    {
      "midi": 62,
      "hit": false,
      "t": 93268.22000000004,
      "d": 304.13550000000396,
      "v": 66
    },
    {
      "midi": 69,
      "hit": false,
      "t": 93268.22000000004,
      "d": 304.13550000000396,
      "v": 117
    },
    {
      "midi": 57,
      "hit": false,
      "t": 93268.22000000004,
      "d": 337.9283333333442,
      "v": 90
    },
    {
      "midi": 71,
      "hit": false,
      "t": 93673.73400000005,
      "d": 325.2560208333307,
      "v": 110
    },
    {
      "midi": 69,
      "hit": false,
      "t": 94079.24800000005,
      "d": 650.5120416666614,
      "v": 100
    },
    {
      "midi": 64,
      "hit": false,
      "t": 94079.24800000005,
      "d": 764.5628541666665,
      "v": 86
    },
    {
      "midi": 60,
      "hit": false,
      "t": 94079.24800000005,
      "d": 870.1654583333438,
      "v": 95
    },
    {
      "midi": 57,
      "hit": false,
      "t": 94079.24800000005,
      "d": 1132.0599166666652,
      "v": 95
    },
    {
      "midi": 64,
      "hit": false,
      "t": 94890.27600000006,
      "d": 266.11856249999255,
      "v": 53
    },
    {
      "midi": 72,
      "hit": false,
      "t": 94890.27600000006,
      "d": 701.2012916666572,
      "v": 105
    },
    {
      "midi": 69,
      "hit": false,
      "t": 95093.03300000005,
      "d": 177.41237499999988,
      "v": 73
    },
    {
      "midi": 60,
      "hit": false,
      "t": 95295.79000000005,
      "d": 177.41237499999988,
      "v": 51
    },
    {
      "midi": 64,
      "hit": false,
      "t": 95295.79000000005,
      "d": 304.1354999999894,
      "v": 66
    },
    {
      "midi": 67,
      "hit": false,
      "t": 95701.30400000005,
      "d": 460.42735416666255,
      "v": 105
    },
    {
      "midi": 64,
      "hit": false,
      "t": 95701.30400000005,
      "d": 696.9771875000006,
      "v": 100
    },
    {
      "midi": 60,
      "hit": false,
      "t": 95701.30400000005,
      "d": 882.8377708333428,
      "v": 86
    },
    {
      "midi": 55,
      "hit": false,
      "t": 95701.30400000005,
      "d": 903.9582916666695,
      "v": 79
    },
    {
      "midi": 64,
      "hit": false,
      "t": 96512.33200000005,
      "d": 253.4462499999936,
      "v": 70
    },
    {
      "midi": 67,
      "hit": false,
      "t": 96512.33200000005,
      "d": 451.97914583333477,
      "v": 110
    },
    {
      "midi": 72,
      "hit": false,
      "t": 96512.33200000005,
      "d": 692.753083333344,
      "v": 105
    },
    {
      "midi": 64,
      "hit": false,
      "t": 96917.84600000005,
      "d": 185.86058333334222,
      "v": 55
    },
    {
      "midi": 69,
      "hit": false,
      "t": 97323.36000000006,
      "d": 574.4781666666677,
      "v": 110
    },
    {
      "midi": 67,
      "hit": false,
      "t": 97323.36000000006,
      "d": 684.3048750000016,
      "v": 110
    },
    {
      "midi": 62,
      "hit": false,
      "t": 97323.36000000006,
      "d": 1089.8188749999972,
      "v": 110
    },
    {
      "midi": 50,
      "hit": false,
      "t": 97323.36000000006,
      "d": 1186.9732708333322,
      "v": 76
    },
    {
      "midi": 57,
      "hit": false,
      "t": 97728.87400000005,
      "d": 240.7739375000092,
      "v": 29
    },
    {
      "midi": 69,
      "hit": false,
      "t": 98134.38800000006,
      "d": 680.0807708333159,
      "v": 117
    },
    {
      "midi": 67,
      "hit": false,
      "t": 98337.14500000006,
      "d": 257.67035416666477,
      "v": 95
    },
    {
      "midi": 62,
      "hit": false,
      "t": 98539.90200000006,
      "d": 253.4462499999936,
      "v": 66
    },
    {
      "midi": 62,
      "hit": false,
      "t": 98945.41600000004,
      "d": 278.79087500000605,
      "v": 95
    },
    {
      "midi": 66,
      "hit": false,
      "t": 98945.41600000004,
      "d": 304.13550000000396,
      "v": 106
    },
    {
      "midi": 50,
      "hit": false,
      "t": 98945.41600000004,
      "d": 401.28989583333896,
      "v": 76
    },
    {
      "midi": 57,
      "hit": false,
      "t": 98945.41600000004,
      "d": 650.5120416666759,
      "v": 100
    },
    {
      "midi": 67,
      "hit": false,
      "t": 99350.93000000005,
      "d": 295.6872916666616,
      "v": 110
    },
    {
      "midi": 62,
      "hit": false,
      "t": 99350.93000000005,
      "d": 304.1354999999894,
      "v": 95
    },
    {
      "midi": 52,
      "hit": false,
      "t": 99350.93000000005,
      "d": 363.27295833332755,
      "v": 82
    },
    {
      "midi": 54,
      "hit": false,
      "t": 99756.44400000005,
      "d": 663.1843541666603,
      "v": 106
    },
    {
      "midi": 66,
      "hit": false,
      "t": 99756.44400000005,
      "d": 688.5289791666582,
      "v": 106
    },
    {
      "midi": 69,
      "hit": false,
      "t": 99756.44400000005,
      "d": 718.0977083333273,
      "v": 95
    },
    {
      "midi": 67,
      "hit": false,
      "t": 100567.47200000004,
      "d": 519.5648125000007,
      "v": 105
    },
    {
      "midi": 62,
      "hit": false,
      "t": 100567.47200000004,
      "d": 684.3048750000016,
      "v": 100
    },
    {
      "midi": 55,
      "hit": false,
      "t": 100567.47200000004,
      "d": 865.9413541666727,
      "v": 64
    },
    {
      "midi": 59,
      "hit": false,
      "t": 100972.98600000003,
      "d": 447.75504166667815,
      "v": 23
    },
    {
      "midi": 62,
      "hit": false,
      "t": 101378.50000000004,
      "d": 236.54983333333803,
      "v": 73
    },
    {
      "midi": 67,
      "hit": false,
      "t": 101378.50000000004,
      "d": 485.771979166675,
      "v": 105
    },
    {
      "midi": 71,
      "hit": false,
      "t": 101378.50000000004,
      "d": 722.321812500013,
      "v": 110
    },
    {
      "midi": 55,
      "hit": false,
      "t": 101784.01400000005,
      "d": 177.41237499999988,
      "v": 68
    },
    {
      "midi": 62,
      "hit": false,
      "t": 101784.01400000005,
      "d": 270.3426666666637,
      "v": 73
    },
    {
      "midi": 62,
      "hit": false,
      "t": 102189.52800000006,
      "d": 287.23908333333384,
      "v": 90
    },
    {
      "midi": 69,
      "hit": false,
      "t": 102189.52800000006,
      "d": 460.42735416666255,
      "v": 110
    },
    {
      "midi": 57,
      "hit": false,
      "t": 102189.52800000006,
      "d": 891.2859791666706,
      "v": 95
    },
    {
      "midi": 50,
      "hit": false,
      "t": 102189.52800000006,
      "d": 1106.7152916666819,
      "v": 76
    },
    {
      "midi": 62,
      "hit": false,
      "t": 102595.04200000006,
      "d": 304.13550000000396,
      "v": 56
    },
    {
      "midi": 66,
      "hit": false,
      "t": 102797.79900000006,
      "d": 59.137458333338145,
      "v": 46
    },
    {
      "midi": 62,
      "hit": false,
      "t": 103000.55600000007,
      "d": 206.98110416666896,
      "v": 68
    },
    {
      "midi": 69,
      "hit": false,
      "t": 103000.55600000007,
      "d": 443.530937500007,
      "v": 114
    },
    {
      "midi": 66,
      "hit": false,
      "t": 103203.31300000007,
      "d": 223.87752083333908,
      "v": 75
    },
    {
      "midi": 62,
      "hit": false,
      "t": 103406.07000000008,
      "d": 261.89445833333593,
      "v": 66
    },
    {
      "midi": 60,
      "hit": false,
      "t": 103811.58400000008,
      "d": 667.4084583333315,
      "v": 95
    },
    {
      "midi": 55,
      "hit": false,
      "t": 103811.58400000008,
      "d": 1322.1446041666495,
      "v": 100
    },
    {
      "midi": 48,
      "hit": false,
      "t": 103811.58400000008,
      "d": 1377.0579583333165,
      "v": 76
    },
    {
      "midi": 64,
      "hit": false,
      "t": 104622.61200000007,
      "d": 308.3596041666606,
      "v": 110
    },
    {
      "midi": 67,
      "hit": false,
      "t": 104622.61200000007,
      "d": 722.3218124999985,
      "v": 114
    },
    {
      "midi": 60,
      "hit": false,
      "t": 105028.12600000006,
      "d": 249.22214583333698,
      "v": 86
    },
    {
      "midi": 62,
      "hit": false,
      "t": 105433.64000000007,
      "d": 299.9113958333328,
      "v": 90
    },
    {
      "midi": 66,
      "hit": false,
      "t": 105433.64000000007,
      "d": 451.97914583333477,
      "v": 99
    },
    {
      "midi": 57,
      "hit": false,
      "t": 105433.64000000007,
      "d": 726.5459166666842,
      "v": 90
    },
    {
      "midi": 50,
      "hit": false,
      "t": 105433.64000000007,
      "d": 756.1146458333533,
      "v": 66
    },
    {
      "midi": 62,
      "hit": false,
      "t": 105839.15400000007,
      "d": 283.0149791666918,
      "v": 62
    },
    {
      "midi": 66,
      "hit": false,
      "t": 106041.91100000008,
      "d": 33.79283333334024,
      "v": 34
    },
    {
      "midi": 62,
      "hit": false,
      "t": 106244.66800000009,
      "d": 219.6534166666679,
      "v": 82
    },
    {
      "midi": 50,
      "hit": false,
      "t": 106244.66800000009,
      "d": 308.3596041666751,
      "v": 70
    },
    {
      "midi": 66,
      "hit": false,
      "t": 106244.66800000009,
      "d": 430.85862500000803,
      "v": 106
    },
    {
      "midi": 57,
      "hit": false,
      "t": 106244.66800000009,
      "d": 532.2371250000142,
      "v": 52
    },
    {
      "midi": 69,
      "hit": false,
      "t": 106244.66800000009,
      "d": 654.7361458333471,
      "v": 114
    },
    {
      "midi": 62,
      "hit": false,
      "t": 106650.1820000001,
      "d": 223.87752083333908,
      "v": 60
    },
    {
      "midi": 62,
      "hit": false,
      "t": 107055.69600000011,
      "d": 295.6872916666616,
      "v": 95
    },
    {
      "midi": 67,
      "hit": false,
      "t": 107055.69600000011,
      "d": 439.3068333333358,
      "v": 105
    },
    {
      "midi": 59,
      "hit": false,
      "t": 107055.69600000011,
      "d": 849.0449375000026,
      "v": 90
    },
    {
      "midi": 55,
      "hit": false,
      "t": 107055.69600000011,
      "d": 895.5100833333418,
      "v": 90
    },
    {
      "midi": 62,
      "hit": false,
      "t": 107461.21000000011,
      "d": 266.1185625000071,
      "v": 58
    },
    {
      "midi": 67,
      "hit": false,
      "t": 107663.96700000012,
      "d": 38.01693749999686,
      "v": 40
    },
    {
      "midi": 71,
      "hit": false,
      "t": 107866.72400000012,
      "d": 295.6872916666762,
      "v": 110
    },
    {
      "midi": 67,
      "hit": false,
      "t": 107866.72400000012,
      "d": 363.2729583333421,
      "v": 110
    },
    {
      "midi": 62,
      "hit": false,
      "t": 108272.23800000013,
      "d": 325.2560208333307,
      "v": 95
    },
    {
      "midi": 62,
      "hit": false,
      "t": 108677.75200000012,
      "d": 253.4462499999936,
      "v": 82
    },
    {
      "midi": 69,
      "hit": false,
      "t": 108677.75200000012,
      "d": 451.97914583333477,
      "v": 100
    },
    {
      "midi": 57,
      "hit": false,
      "t": 108677.75200000012,
      "d": 1013.7850000000035,
      "v": 95
    },
    {
      "midi": 50,
      "hit": false,
      "t": 108677.75200000012,
      "d": 1224.990208333329,
      "v": 76
    },
    {
      "midi": 62,
      "hit": false,
      "t": 109083.26600000012,
      "d": 67.58566666666593,
      "v": 56
    },
    {
      "midi": 62,
      "hit": false,
      "t": 109286.02300000012,
      "d": 101.37850000000617,
      "v": 55
    },
    {
      "midi": 62,
      "hit": false,
      "t": 109488.78000000013,
      "d": 76.03387499999371,
      "v": 68
    },
    {
      "midi": 69,
      "hit": false,
      "t": 109488.78000000013,
      "d": 422.41041666665114,
      "v": 114
    },
    {
      "midi": 71,
      "hit": false,
      "t": 109894.29400000013,
      "d": 59.13745833332359,
      "v": 48
    },
    {
      "midi": 62,
      "hit": false,
      "t": 109894.29400000013,
      "d": 287.2390833333193,
      "v": 48
    },
    {
      "midi": 64,
      "hit": false,
      "t": 110299.8080000001,
      "d": 468.8755625000049,
      "v": 100
    },
    {
      "midi": 60,
      "hit": false,
      "t": 110299.8080000001,
      "d": 658.9602500000037,
      "v": 95
    },
    {
      "midi": 55,
      "hit": false,
      "t": 110299.8080000001,
      "d": 1267.2312500000116,
      "v": 100
    },
    {
      "midi": 48,
      "hit": false,
      "t": 110299.8080000001,
      "d": 1271.4553541666828,
      "v": 90
    },
    {
      "midi": 64,
      "hit": false,
      "t": 111110.83600000011,
      "d": 333.70422916667303,
      "v": 105
    },
    {
      "midi": 67,
      "hit": false,
      "t": 111110.83600000011,
      "d": 718.0977083333564,
      "v": 110
    },
    {
      "midi": 64,
      "hit": false,
      "t": 111516.35000000012,
      "d": 84.48208333333605,
      "v": 66
    },
    {
      "midi": 60,
      "hit": false,
      "t": 111516.35000000012,
      "d": 249.22214583333698,
      "v": 95
    },
    {
      "midi": 64,
      "hit": false,
      "t": 111719.10700000012,
      "d": 105.60260416667734,
      "v": 17
    },
    {
      "midi": 62,
      "hit": false,
      "t": 111921.86400000013,
      "d": 206.98110416666896,
      "v": 95
    },
    {
      "midi": 66,
      "hit": false,
      "t": 111921.86400000013,
      "d": 329.48012500000186,
      "v": 99
    },
    {
      "midi": 50,
      "hit": false,
      "t": 111921.86400000013,
      "d": 1110.939395833324,
      "v": 79
    },
    {
      "midi": 57,
      "hit": false,
      "t": 111921.86400000013,
      "d": 1301.0240833333082,
      "v": 90
    },
    {
      "midi": 62,
      "hit": false,
      "t": 112327.37800000013,
      "d": 109.82670833333395,
      "v": 47
    },
    {
      "midi": 66,
      "hit": false,
      "t": 112732.89200000012,
      "d": 337.92833333332965,
      "v": 106
    },
    {
      "midi": 69,
      "hit": false,
      "t": 112732.89200000012,
      "d": 468.87556249999034,
      "v": 105
    },
    {
      "midi": 62,
      "hit": false,
      "t": 113138.40600000012,
      "d": 228.10162499998114,
      "v": 73
    },
    {
      "midi": 62,
      "hit": false,
      "t": 113543.9200000001,
      "d": 257.67035416666477,
      "v": 90
    },
    {
      "midi": 67,
      "hit": false,
      "t": 113543.9200000001,
      "d": 439.3068333333358,
      "v": 100
    },
    {
      "midi": 59,
      "hit": false,
      "t": 113543.9200000001,
      "d": 1127.835812499994,
      "v": 95
    },
    {
      "midi": 55,
      "hit": false,
      "t": 113543.9200000001,
      "d": 1148.9563333333208,
      "v": 82
    },
    {
      "midi": 62,
      "hit": false,
      "t": 113949.4340000001,
      "d": 71.8097708333371,
      "v": 66
    },
    {
      "midi": 67,
      "hit": false,
      "t": 114152.1910000001,
      "d": 67.58566666666593,
      "v": 76
    },
    {
      "midi": 71,
      "hit": false,
      "t": 114354.94800000009,
      "d": 713.8736041666707,
      "v": 114
    },
    {
      "midi": 67,
      "hit": false,
      "t": 114557.70500000009,
      "d": 261.89445833333593,
      "v": 76
    },
    {
      "midi": 62,
      "hit": false,
      "t": 114760.46200000009,
      "d": 266.1185625000071,
      "v": 86
    },
    {
      "midi": 62,
      "hit": false,
      "t": 115165.9760000001,
      "d": 291.463187500005,
      "v": 90
    },
    {
      "midi": 69,
      "hit": false,
      "t": 115165.9760000001,
      "d": 498.44429166667396,
      "v": 105
    },
    {
      "midi": 57,
      "hit": false,
      "t": 115165.9760000001,
      "d": 1174.3009583333478,
      "v": 95
    },
    {
      "midi": 50,
      "hit": false,
      "t": 115165.9760000001,
      "d": 1233.4384166666714,
      "v": 86
    },
    {
      "midi": 62,
      "hit": false,
      "t": 115571.4900000001,
      "d": 299.9113958333328,
      "v": 52
    },
    {
      "midi": 62,
      "hit": false,
      "t": 115977.0040000001,
      "d": 46.46514583333919,
      "v": 58
    },
    {
      "midi": 66,
      "hit": false,
      "t": 115977.0040000001,
      "d": 388.61758333334,
      "v": 106
    },
    {
      "midi": 69,
      "hit": false,
      "t": 115977.0040000001,
      "d": 397.0657916666678,
      "v": 110
    },
    {
      "midi": 62,
      "hit": false,
      "t": 116382.5180000001,
      "d": 261.89445833333593,
      "v": 79
    },
    {
      "midi": 60,
      "hit": false,
      "t": 116788.0320000001,
      "d": 274.5667708333349,
      "v": 90
    },
    {
      "midi": 67,
      "hit": false,
      "t": 116788.0320000001,
      "d": 473.0996666666615,
      "v": 105
    },
    {
      "midi": 48,
      "hit": false,
      "t": 116788.0320000001,
      "d": 1229.2143124999857,
      "v": 90
    },
    {
      "midi": 55,
      "hit": false,
      "t": 116788.0320000001,
      "d": 1385.5061666666588,
      "v": 86
    },
    {
      "midi": 60,
      "hit": false,
      "t": 117193.54600000009,
      "d": 97.154395833335,
      "v": 64
    },
    {
      "midi": 60,
      "hit": false,
      "t": 117396.30300000009,
      "d": 126.72312500000407,
      "v": 43
    },
    {
      "midi": 67,
      "hit": false,
      "t": 117599.06000000008,
      "d": 308.3596041666606,
      "v": 110
    },
    {
      "midi": 64,
      "hit": false,
      "t": 117599.06000000008,
      "d": 405.5139999999956,
      "v": 105
    },
    {
      "midi": 60,
      "hit": false,
      "t": 118004.57400000008,
      "d": 299.9113958333328,
      "v": 90
    },
    {
      "midi": 66,
      "hit": false,
      "t": 118410.08800000008,
      "d": 316.8078125000029,
      "v": 99
    },
    {
      "midi": 50,
      "hit": false,
      "t": 118410.08800000008,
      "d": 608.2710000000079,
      "v": 79
    },
    {
      "midi": 57,
      "hit": false,
      "t": 118410.08800000008,
      "d": 616.7192083333357,
      "v": 86
    },
    {
      "midi": 62,
      "hit": false,
      "t": 118815.60200000009,
      "d": 67.58566666666593,
      "v": 45
    },
    {
      "midi": 66,
      "hit": false,
      "t": 119018.35900000008,
      "d": 59.13745833332359,
      "v": 47
    },
    {
      "midi": 62,
      "hit": false,
      "t": 119221.11600000007,
      "d": 50.68924999999581,
      "v": 64
    },
    {
      "midi": 57,
      "hit": false,
      "t": 119221.11600000007,
      "d": 519.5648125000007,
      "v": 100
    },
    {
      "midi": 50,
      "hit": false,
      "t": 119221.11600000007,
      "d": 536.4612291666708,
      "v": 82
    },
    {
      "midi": 69,
      "hit": false,
      "t": 119221.11600000007,
      "d": 574.4781666666677,
      "v": 110
    },
    {
      "midi": 62,
      "hit": false,
      "t": 119626.63000000006,
      "d": 232.32572916666686,
      "v": 58
    },
    {
      "midi": 67,
      "hit": false,
      "t": 120032.14400000006,
      "d": 515.3407083333295,
      "v": 110
    },
    {
      "midi": 62,
      "hit": false,
      "t": 120032.14400000006,
      "d": 633.6156249999913,
      "v": 86
    },
    {
      "midi": 55,
      "hit": false,
      "t": 120032.14400000006,
      "d": 815.2521041666623,
      "v": 82
    },
    {
      "midi": 59,
      "hit": false,
      "t": 120032.14400000006,
      "d": 925.0788124999963,
      "v": 90
    },
    {
      "midi": 62,
      "hit": false,
      "t": 120843.17200000005,
      "d": 21.12052083334129,
      "v": 55
    },
    {
      "midi": 71,
      "hit": false,
      "t": 120843.17200000005,
      "d": 473.09966666667606,
      "v": 90
    },
    {
      "midi": 67,
      "hit": false,
      "t": 120843.17200000005,
      "d": 485.771979166675,
      "v": 110
    },
    {
      "midi": 55,
      "hit": false,
      "t": 121248.68600000006,
      "d": 228.1016249999957,
      "v": 64
    },
    {
      "midi": 59,
      "hit": false,
      "t": 121248.68600000006,
      "d": 228.1016249999957,
      "v": 51
    },
    {
      "midi": 62,
      "hit": false,
      "t": 121248.68600000006,
      "d": 287.23908333333384,
      "v": 64
    },
    {
      "midi": 67,
      "hit": false,
      "t": 121451.44300000006,
      "d": 88.70618750000722,
      "v": 37
    },
    {
      "midi": 72,
      "hit": false,
      "t": 121654.20000000007,
      "d": 337.92833333332965,
      "v": 110
    },
    {
      "midi": 55,
      "hit": false,
      "t": 121654.20000000007,
      "d": 582.9263749999955,
      "v": 82
    },
    {
      "midi": 59,
      "hit": false,
      "t": 121654.20000000007,
      "d": 604.0468958333222,
      "v": 86
    },
    {
      "midi": 71,
      "hit": false,
      "t": 122059.71400000007,
      "d": 316.80781249998836,
      "v": 105
    },
    {
      "midi": 55,
      "hit": false,
      "t": 122465.22800000006,
      "d": 342.1524375000008,
      "v": 86
    },
    {
      "midi": 69,
      "hit": false,
      "t": 122465.22800000006,
      "d": 354.82474999999977,
      "v": 110
    },
    {
      "midi": 59,
      "hit": false,
      "t": 122465.22800000006,
      "d": 397.0657916666678,
      "v": 82
    },
    {
      "midi": 67,
      "hit": false,
      "t": 122870.74200000006,
      "d": 316.8078125000029,
      "v": 95
    },
    {
      "midi": 69,
      "hit": false,
      "t": 123276.25600000007,
      "d": 591.3745833333232,
      "v": 105
    },
    {
      "midi": 57,
      "hit": false,
      "t": 123276.25600000007,
      "d": 865.9413541666581,
      "v": 86
    },
    {
      "midi": 60,
      "hit": false,
      "t": 123276.25600000007,
      "d": 895.5100833333272,
      "v": 90
    },
    {
      "midi": 64,
      "hit": false,
      "t": 123681.77000000006,
      "d": 253.4462499999936,
      "v": 1
    },
    {
      "midi": 69,
      "hit": false,
      "t": 124087.28400000006,
      "d": 397.0657916666678,
      "v": 105
    },
    {
      "midi": 72,
      "hit": false,
      "t": 124087.28400000006,
      "d": 637.8397291666624,
      "v": 105
    },
    {
      "midi": 57,
      "hit": false,
      "t": 124492.79800000005,
      "d": 312.58370833333174,
      "v": 82
    },
    {
      "midi": 64,
      "hit": false,
      "t": 124492.79800000005,
      "d": 316.8078125000029,
      "v": 55
    },
    {
      "midi": 60,
      "hit": false,
      "t": 124492.79800000005,
      "d": 337.92833333332965,
      "v": 76
    },
    {
      "midi": 60,
      "hit": false,
      "t": 124898.31200000005,
      "d": 333.70422916667303,
      "v": 66
    },
    {
      "midi": 64,
      "hit": false,
      "t": 124898.31200000005,
      "d": 342.1524375000008,
      "v": 73
    },
    {
      "midi": 67,
      "hit": false,
      "t": 124898.31200000005,
      "d": 511.11660416665836,
      "v": 110
    },
    {
      "midi": 55,
      "hit": false,
      "t": 124898.31200000005,
      "d": 1085.594770833326,
      "v": 76
    },
    {
      "midi": 64,
      "hit": false,
      "t": 125303.82600000004,
      "d": 261.89445833333593,
      "v": 53
    },
    {
      "midi": 60,
      "hit": false,
      "t": 125303.82600000004,
      "d": 489.9960833333316,
      "v": 52
    },
    {
      "midi": 67,
      "hit": false,
      "t": 125709.34000000004,
      "d": 380.1693749999977,
      "v": 114
    },
    {
      "midi": 72,
      "hit": false,
      "t": 125709.34000000004,
      "d": 713.8736041666562,
      "v": 100
    },
    {
      "midi": 64,
      "hit": false,
      "t": 126114.85400000004,
      "d": 215.42931249999674,
      "v": 64
    },
    {
      "midi": 66,
      "hit": false,
      "t": 126520.36800000003,
      "d": 506.89250000000175,
      "v": 75
    },
    {
      "midi": 62,
      "hit": false,
      "t": 126520.36800000003,
      "d": 650.5120416666614,
      "v": 86
    },
    {
      "midi": 57,
      "hit": false,
      "t": 126520.36800000003,
      "d": 937.7511249999952,
      "v": 90
    },
    {
      "midi": 50,
      "hit": false,
      "t": 126520.36800000003,
      "d": 963.0957499999931,
      "v": 73
    },
    {
      "midi": 62,
      "hit": false,
      "t": 127331.39600000002,
      "d": 88.70618750000722,
      "v": 49
    },
    {
      "midi": 66,
      "hit": false,
      "t": 127331.39600000002,
      "d": 371.7211666666699,
      "v": 106
    },
    {
      "midi": 66,
      "hit": false,
      "t": 127736.91000000003,
      "d": 42.241041666668025,
      "v": 48
    },
    {
      "midi": 50,
      "hit": false,
      "t": 127736.91000000003,
      "d": 177.41237499999988,
      "v": 79
    },
    {
      "midi": 57,
      "hit": false,
      "t": 127736.91000000003,
      "d": 190.08468749999884,
      "v": 86
    },
    {
      "midi": 62,
      "hit": false,
      "t": 127736.91000000003,
      "d": 266.11856249999255,
      "v": 86
    },
    {
      "midi": 66,
      "hit": false,
      "t": 127939.66700000003,
      "d": 88.70618749999267,
      "v": 38
    },
    {
      "midi": 50,
      "hit": false,
      "t": 128142.42400000003,
      "d": 566.0299583333399,
      "v": 79
    },
    {
      "midi": 62,
      "hit": false,
      "t": 128142.42400000003,
      "d": 616.7192083333357,
      "v": 95
    },
    {
      "midi": 67,
      "hit": false,
      "t": 128142.42400000003,
      "d": 696.9771875000006,
      "v": 114
    },
    {
      "midi": 57,
      "hit": false,
      "t": 128142.42400000003,
      "d": 1284.1276666666672,
      "v": 100
    },
    {
      "midi": 62,
      "hit": false,
      "t": 128953.45200000003,
      "d": 549.1335416666552,
      "v": 90
    },
    {
      "midi": 66,
      "hit": false,
      "t": 128953.45200000003,
      "d": 629.3915208333201,
      "v": 99
    },
    {
      "midi": 69,
      "hit": false,
      "t": 129764.48000000003,
      "d": 460.42735416666255,
      "v": 114
    },
    {
      "midi": 64,
      "hit": false,
      "t": 129764.48000000003,
      "d": 684.3048750000016,
      "v": 90
    },
    {
      "midi": 60,
      "hit": false,
      "t": 129764.48000000003,
      "d": 916.6306041666685,
      "v": 86
    },
    {
      "midi": 57,
      "hit": false,
      "t": 129764.48000000003,
      "d": 1026.4573125000024,
      "v": 86
    },
    {
      "midi": 69,
      "hit": false,
      "t": 130575.50800000003,
      "d": 375.9452708333265,
      "v": 105
    },
    {
      "midi": 72,
      "hit": false,
      "t": 130575.50800000003,
      "d": 667.408458333317,
      "v": 90
    },
    {
      "midi": 60,
      "hit": false,
      "t": 130981.02200000003,
      "d": 274.5667708333349,
      "v": 82
    },
    {
      "midi": 64,
      "hit": false,
      "t": 130981.02200000003,
      "d": 283.0149791666772,
      "v": 86
    },
    {
      "midi": 57,
      "hit": false,
      "t": 130981.02200000003,
      "d": 316.80781250001746,
      "v": 76
    },
    {
      "midi": 64,
      "hit": false,
      "t": 131386.53600000005,
      "d": 316.80781249998836,
      "v": 100
    },
    {
      "midi": 67,
      "hit": false,
      "t": 131386.53600000005,
      "d": 456.2032499999914,
      "v": 110
    },
    {
      "midi": 60,
      "hit": false,
      "t": 131386.53600000005,
      "d": 941.9752291666518,
      "v": 82
    },
    {
      "midi": 55,
      "hit": false,
      "t": 131386.53600000005,
      "d": 975.7680624999921,
      "v": 76
    },
    {
      "midi": 64,
      "hit": false,
      "t": 131792.05000000005,
      "d": 257.6703541666502,
      "v": 40
    },
    {
      "midi": 64,
      "hit": false,
      "t": 132197.56400000004,
      "d": 270.3426666666637,
      "v": 86
    },
    {
      "midi": 67,
      "hit": false,
      "t": 132197.56400000004,
      "d": 418.1863125000091,
      "v": 110
    },
    {
      "midi": 72,
      "hit": false,
      "t": 132197.56400000004,
      "d": 620.9433125000214,
      "v": 110
    },
    {
      "midi": 64,
      "hit": false,
      "t": 132603.07800000004,
      "d": 206.9811041666835,
      "v": 62
    },
    {
      "midi": 50,
      "hit": false,
      "t": 133008.59200000006,
      "d": 502.66839583334513,
      "v": 79
    },
    {
      "midi": 57,
      "hit": false,
      "t": 133008.59200000006,
      "d": 625.1674166666926,
      "v": 95
    },
    {
      "midi": 62,
      "hit": false,
      "t": 133008.59200000006,
      "d": 625.1674166666926,
      "v": 100
    },
    {
      "midi": 66,
      "hit": false,
      "t": 133008.59200000006,
      "d": 654.7361458333617,
      "v": 99
    },
    {
      "midi": 55,
      "hit": false,
      "t": 133819.62000000008,
      "d": 460.42735416666255,
      "v": 73
    },
    {
      "midi": 50,
      "hit": false,
      "t": 133819.62000000008,
      "d": 473.09966666667606,
      "v": 79
    },
    {
      "midi": 57,
      "hit": false,
      "t": 133819.62000000008,
      "d": 561.8058541666833,
      "v": 90
    },
    {
      "midi": 62,
      "hit": false,
      "t": 133819.62000000008,
      "d": 629.3915208333638,
      "v": 95
    },
    {
      "midi": 67,
      "hit": false,
      "t": 133819.62000000008,
      "d": 646.2879375000193,
      "v": 114
    },
    {
      "midi": 66,
      "hit": false,
      "t": 134630.6480000001,
      "d": 257.6703541666793,
      "v": 106
    },
    {
      "midi": 62,
      "hit": false,
      "t": 134630.6480000001,
      "d": 266.11856250002165,
      "v": 95
    },
    {
      "midi": 57,
      "hit": false,
      "t": 134630.6480000001,
      "d": 287.2390833333484,
      "v": 86
    },
    {
      "midi": 50,
      "hit": false,
      "t": 134630.6480000001,
      "d": 346.37654166668653,
      "v": 79
    },
    {
      "midi": 62,
      "hit": false,
      "t": 135036.16200000013,
      "d": 266.11856249999255,
      "v": 90
    },
    {
      "midi": 67,
      "hit": false,
      "t": 135036.16200000013,
      "d": 270.3426666666637,
      "v": 105
    },
    {
      "midi": 54,
      "hit": false,
      "t": 135036.16200000013,
      "d": 325.2560208333307,
      "v": 61
    },
    {
      "midi": 57,
      "hit": false,
      "t": 135441.67600000012,
      "d": 532.2371250000142,
      "v": 100
    },
    {
      "midi": 66,
      "hit": false,
      "t": 135441.67600000012,
      "d": 578.7022708333388,
      "v": 106
    },
    {
      "midi": 69,
      "hit": false,
      "t": 135441.67600000012,
      "d": 650.5120416666614,
      "v": 114
    },
    {
      "midi": 67,
      "hit": false,
      "t": 136252.7040000001,
      "d": 409.73810416666674,
      "v": 110
    },
    {
      "midi": 62,
      "hit": false,
      "t": 136252.7040000001,
      "d": 675.8566666666593,
      "v": 95
    },
    {
      "midi": 59,
      "hit": false,
      "t": 136252.7040000001,
      "d": 844.8208333333314,
      "v": 79
    },
    {
      "midi": 55,
      "hit": false,
      "t": 136252.7040000001,
      "d": 853.2690416666737,
      "v": 68
    },
    {
      "midi": 71,
      "hit": false,
      "t": 137063.7320000001,
      "d": 718.0977083333419,
      "v": 114
    },
    {
      "midi": 67,
      "hit": false,
      "t": 137266.48900000012,
      "d": 206.9811041666835,
      "v": 79
    },
    {
      "midi": 59,
      "hit": false,
      "t": 137469.24600000013,
      "d": 160.51595833332976,
      "v": 79
    },
    {
      "midi": 55,
      "hit": false,
      "t": 137469.24600000013,
      "d": 177.41237499998533,
      "v": 79
    },
    {
      "midi": 62,
      "hit": false,
      "t": 137469.24600000013,
      "d": 283.0149791666481,
      "v": 90
    },
    {
      "midi": 62,
      "hit": false,
      "t": 137874.76000000013,
      "d": 295.6872916666616,
      "v": 90
    },
    {
      "midi": 69,
      "hit": false,
      "t": 137874.76000000013,
      "d": 608.2710000000079,
      "v": 110
    },
    {
      "midi": 54,
      "hit": false,
      "t": 137874.76000000013,
      "d": 1034.9055208333593,
      "v": 91
    },
    {
      "midi": 62,
      "hit": false,
      "t": 138280.27400000012,
      "d": 312.5837083333463,
      "v": 66
    },
    {
      "midi": 62,
      "hit": false,
      "t": 138685.78800000015,
      "d": 228.10162500001024,
      "v": 64
    },
    {
      "midi": 66,
      "hit": false,
      "t": 138685.78800000015,
      "d": 506.8925000000163,
      "v": 106
    },
    {
      "midi": 69,
      "hit": false,
      "t": 138685.78800000015,
      "d": 637.839729166677,
      "v": 105
    },
    {
      "midi": 62,
      "hit": false,
      "t": 139091.30200000017,
      "d": 101.37849999999162,
      "v": 53
    },
    {
      "midi": 72,
      "hit": false,
      "t": 139496.81600000017,
      "d": 570.2540624999965,
      "v": 95
    },
    {
      "midi": 67,
      "hit": false,
      "t": 139496.81600000017,
      "d": 633.6156250000058,
      "v": 100
    },
    {
      "midi": 64,
      "hit": false,
      "t": 139496.81600000017,
      "d": 646.2879375000193,
      "v": 86
    },
    {
      "midi": 60,
      "hit": false,
      "t": 139496.81600000017,
      "d": 908.1823958333407,
      "v": 90
    },
    {
      "midi": 65,
      "hit": false,
      "t": 140307.8440000002,
      "d": 152.06774999998743,
      "v": 73
    },
    {
      "midi": 64,
      "hit": false,
      "t": 140307.8440000002,
      "d": 249.22214583330788,
      "v": 73
    },
    {
      "midi": 72,
      "hit": false,
      "t": 140307.8440000002,
      "d": 709.6494999999704,
      "v": 110
    },
    {
      "midi": 67,
      "hit": false,
      "t": 140510.60100000017,
      "d": 185.86058333332767,
      "v": 60
    },
    {
      "midi": 60,
      "hit": false,
      "t": 140713.35800000015,
      "d": 97.15439583332045,
      "v": 64
    },
    {
      "midi": 67,
      "hit": false,
      "t": 140713.35800000015,
      "d": 126.72312499998952,
      "v": 42
    },
    {
      "midi": 64,
      "hit": false,
      "t": 140713.35800000015,
      "d": 270.3426666666637,
      "v": 82
    },
    {
      "midi": 67,
      "hit": false,
      "t": 140916.11500000014,
      "d": 71.80977083335165,
      "v": 16
    },
    {
      "midi": 67,
      "hit": false,
      "t": 141118.87200000015,
      "d": 489.9960833333316,
      "v": 100
    },
    {
      "midi": 71,
      "hit": false,
      "t": 141118.87200000015,
      "d": 616.7192083333503,
      "v": 82
    },
    {
      "midi": 62,
      "hit": false,
      "t": 141118.87200000015,
      "d": 663.1843541666749,
      "v": 95
    },
    {
      "midi": 50,
      "hit": false,
      "t": 141118.87200000015,
      "d": 941.9752291666518,
      "v": 24
    },
    {
      "midi": 67,
      "hit": false,
      "t": 141727.14300000016,
      "d": 105.60260416666279,
      "v": 62
    },
    {
      "midi": 67,
      "hit": false,
      "t": 141929.90000000014,
      "d": 46.46514583332464,
      "v": 110
    },
    {
      "midi": 62,
      "hit": false,
      "t": 141929.90000000014,
      "d": 278.79087499997695,
      "v": 82
    },
    {
      "midi": 71,
      "hit": false,
      "t": 141929.90000000014,
      "d": 671.632562499959,
      "v": 110
    },
    {
      "midi": 67,
      "hit": false,
      "t": 142132.65700000012,
      "d": 299.9113958333037,
      "v": 70
    },
    {
      "midi": 62,
      "hit": false,
      "t": 142335.4140000001,
      "d": 181.6364791666565,
      "v": 48
    },
    {
      "midi": 64,
      "hit": false,
      "t": 142740.9280000001,
      "d": 312.5837083333463,
      "v": 90
    },
    {
      "midi": 69,
      "hit": false,
      "t": 142740.9280000001,
      "d": 498.44429166670307,
      "v": 114
    },
    {
      "midi": 72,
      "hit": false,
      "t": 142740.9280000001,
      "d": 578.702270833368,
      "v": 105
    },
    {
      "midi": 57,
      "hit": false,
      "t": 142740.9280000001,
      "d": 908.1823958333698,
      "v": 60
    },
    {
      "midi": 64,
      "hit": false,
      "t": 143146.44200000013,
      "d": 287.2390833333484,
      "v": 64
    },
    {
      "midi": 60,
      "hit": false,
      "t": 143146.44200000013,
      "d": 447.75504166667815,
      "v": 58
    },
    {
      "midi": 64,
      "hit": false,
      "t": 143551.95600000015,
      "d": 304.13549999997485,
      "v": 82
    },
    {
      "midi": 72,
      "hit": false,
      "t": 143551.95600000015,
      "d": 684.3048749999725,
      "v": 105
    },
    {
      "midi": 60,
      "hit": false,
      "t": 143957.47000000012,
      "d": 177.41237500001444,
      "v": 79
    },
    {
      "midi": 64,
      "hit": false,
      "t": 143957.47000000012,
      "d": 299.9113958333328,
      "v": 86
    },
    {
      "midi": 57,
      "hit": false,
      "t": 143957.47000000012,
      "d": 329.48012500000186,
      "v": 79
    },
    {
      "midi": 64,
      "hit": false,
      "t": 144362.9840000001,
      "d": 270.3426666666637,
      "v": 86
    },
    {
      "midi": 67,
      "hit": false,
      "t": 144362.9840000001,
      "d": 439.3068333333358,
      "v": 114
    },
    {
      "midi": 72,
      "hit": false,
      "t": 144362.9840000001,
      "d": 561.8058541666833,
      "v": 100
    },
    {
      "midi": 55,
      "hit": false,
      "t": 144362.9840000001,
      "d": 1161.6286458333489,
      "v": 73
    },
    {
      "midi": 64,
      "hit": false,
      "t": 144768.4980000001,
      "d": 118.27491666667629,
      "v": 55
    },
    {
      "midi": 67,
      "hit": false,
      "t": 144971.25500000012,
      "d": 59.137458333338145,
      "v": 53
    },
    {
      "midi": 64,
      "hit": false,
      "t": 145174.01200000013,
      "d": 232.3257291666523,
      "v": 90
    },
    {
      "midi": 67,
      "hit": false,
      "t": 145174.01200000013,
      "d": 418.1863125000091,
      "v": 110
    },
    {
      "midi": 72,
      "hit": false,
      "t": 145174.01200000013,
      "d": 633.6156250000349,
      "v": 105
    },
    {
      "midi": 64,
      "hit": false,
      "t": 145579.52600000013,
      "d": 160.51595833335887,
      "v": 55
    },
    {
      "midi": 62,
      "hit": false,
      "t": 145985.04000000018,
      "d": 287.2390833333193,
      "v": 95
    },
    {
      "midi": 67,
      "hit": false,
      "t": 145985.04000000018,
      "d": 485.77197916666046,
      "v": 110
    },
    {
      "midi": 69,
      "hit": false,
      "t": 145985.04000000018,
      "d": 561.8058541666542,
      "v": 114
    },
    {
      "midi": 57,
      "hit": false,
      "t": 145985.04000000018,
      "d": 1064.4742499999993,
      "v": 86
    },
    {
      "midi": 50,
      "hit": false,
      "t": 145985.04000000018,
      "d": 1132.0599166666798,
      "v": 76
    },
    {
      "midi": 62,
      "hit": false,
      "t": 146390.55400000018,
      "d": 228.10162499998114,
      "v": 53
    },
    {
      "midi": 69,
      "hit": false,
      "t": 146796.06800000017,
      "d": 675.8566666667175,
      "v": 110
    },
    {
      "midi": 67,
      "hit": false,
      "t": 146998.8250000002,
      "d": 173.18827083334327,
      "v": 105
    },
    {
      "midi": 67,
      "hit": false,
      "t": 147201.5820000002,
      "d": 135.17133333333186,
      "v": 47
    },
    {
      "midi": 57,
      "hit": false,
      "t": 147201.5820000002,
      "d": 139.39543750000303,
      "v": 66
    },
    {
      "midi": 62,
      "hit": false,
      "t": 147201.5820000002,
      "d": 257.6703541666793,
      "v": 86
    },
    {
      "midi": 62,
      "hit": false,
      "t": 147607.09600000022,
      "d": 308.3596041666751,
      "v": 100
    },
    {
      "midi": 66,
      "hit": false,
      "t": 147607.09600000022,
      "d": 312.5837083333463,
      "v": 106
    },
    {
      "midi": 57,
      "hit": false,
      "t": 147607.09600000022,
      "d": 633.6156250000349,
      "v": 100
    },
    {
      "midi": 50,
      "hit": false,
      "t": 147607.09600000022,
      "d": 713.8736041667289,
      "v": 90
    },
    {
      "midi": 62,
      "hit": false,
      "t": 148012.61000000025,
      "d": 295.6872916666907,
      "v": 70
    },
    {
      "midi": 67,
      "hit": false,
      "t": 148012.61000000025,
      "d": 299.9113958333619,
      "v": 95
    },
    {
      "midi": 57,
      "hit": false,
      "t": 148418.12400000027,
      "d": 329.48012500000186,
      "v": 95
    },
    {
      "midi": 50,
      "hit": false,
      "t": 148418.12400000027,
      "d": 359.04885416667094,
      "v": 79
    },
    {
      "midi": 66,
      "hit": false,
      "t": 148418.12400000027,
      "d": 561.8058541666833,
      "v": 106
    },
    {
      "midi": 69,
      "hit": false,
      "t": 148418.12400000027,
      "d": 625.1674166666926,
      "v": 100
    },
    {
      "midi": 62,
      "hit": false,
      "t": 148823.63800000027,
      "d": 92.93029166667839,
      "v": 37
    },
    {
      "midi": 71,
      "hit": false,
      "t": 149229.1520000003,
      "d": 620.9433125000214,
      "v": 114
    },
    {
      "midi": 55,
      "hit": false,
      "t": 149229.1520000003,
      "d": 785.6833750000515,
      "v": 79
    },
    {
      "midi": 62,
      "hit": false,
      "t": 149634.6660000003,
      "d": 283.0149791667063,
      "v": 58
    },
    {
      "midi": 59,
      "hit": false,
      "t": 149634.6660000003,
      "d": 371.72116666671354,
      "v": 62
    },
    {
      "midi": 67,
      "hit": false,
      "t": 149837.4230000003,
      "d": 46.465145833353745,
      "v": 56
    },
    {
      "midi": 67,
      "hit": false,
      "t": 150040.18000000034,
      "d": 253.44625000000815,
      "v": 110
    },
    {
      "midi": 71,
      "hit": false,
      "t": 150040.18000000034,
      "d": 253.44625000000815,
      "v": 95
    },
    {
      "midi": 59,
      "hit": false,
      "t": 150040.18000000034,
      "d": 397.06579166668234,
      "v": 76
    },
    {
      "midi": 55,
      "hit": false,
      "t": 150040.18000000034,
      "d": 443.5309375000361,
      "v": 82
    },
    {
      "midi": 62,
      "hit": false,
      "t": 150040.18000000034,
      "d": 667.4084583333752,
      "v": 82
    },
    {
      "midi": 67,
      "hit": false,
      "t": 150445.69400000037,
      "d": 143.6195416666742,
      "v": 100
    },
    {
      "midi": 71,
      "hit": false,
      "t": 150648.45100000038,
      "d": 135.17133333333186,
      "v": 79
    },
    {
      "midi": 62,
      "hit": false,
      "t": 150851.2080000004,
      "d": 283.0149791666772,
      "v": 86
    },
    {
      "midi": 69,
      "hit": false,
      "t": 150851.2080000004,
      "d": 604.0468958333659,
      "v": 114
    },
    {
      "midi": 54,
      "hit": false,
      "t": 150851.2080000004,
      "d": 1398.1784791667305,
      "v": 99
    },
    {
      "midi": 62,
      "hit": false,
      "t": 151256.72200000042,
      "d": 291.46318750001956,
      "v": 64
    },
    {
      "midi": 62,
      "hit": false,
      "t": 151662.23600000044,
      "d": 240.77393749999464,
      "v": 68
    },
    {
      "midi": 66,
      "hit": false,
      "t": 151662.23600000044,
      "d": 625.1674166666926,
      "v": 106
    },
    {
      "midi": 69,
      "hit": false,
      "t": 151662.23600000044,
      "d": 667.4084583333461,
      "v": 110
    },
    {
      "midi": 62,
      "hit": false,
      "t": 152067.75000000044,
      "d": 168.9641666666721,
      "v": 37
    },
    {
      "midi": 64,
      "hit": false,
      "t": 152473.26400000046,
      "d": 299.9113958333328,
      "v": 90
    },
    {
      "midi": 67,
      "hit": false,
      "t": 152473.26400000046,
      "d": 456.2032499999914,
      "v": 110
    },
    {
      "midi": 72,
      "hit": false,
      "t": 152473.26400000046,
      "d": 608.2709999999788,
      "v": 100
    },
    {
      "midi": 60,
      "hit": false,
      "t": 152676.02100000047,
      "d": 675.8566666666593,
      "v": 1
    },
    {
      "midi": 64,
      "hit": false,
      "t": 152878.77800000046,
      "d": 261.8944583333214,
      "v": 64
    },
    {
      "midi": 64,
      "hit": false,
      "t": 153284.29200000045,
      "d": 232.3257291666814,
      "v": 76
    },
    {
      "midi": 72,
      "hit": false,
      "t": 153284.29200000045,
      "d": 675.8566666666884,
      "v": 105
    },
    {
      "midi": 67,
      "hit": false,
      "t": 153487.04900000046,
      "d": 164.74006250000093,
      "v": 76
    },
    {
      "midi": 67,
      "hit": false,
      "t": 153689.80600000048,
      "d": 76.03387499999371,
      "v": 51
    },
    {
      "midi": 64,
      "hit": false,
      "t": 153689.80600000048,
      "d": 257.6703541666502,
      "v": 86
    },
    {
      "midi": 62,
      "hit": false,
      "t": 154095.32000000047,
      "d": 278.79087500000605,
      "v": 100
    },
    {
      "midi": 67,
      "hit": false,
      "t": 154095.32000000047,
      "d": 468.8755625000049,
      "v": 110
    },
    {
      "midi": 71,
      "hit": false,
      "t": 154095.32000000047,
      "d": 604.0468958333367,
      "v": 100
    },
    {
      "midi": 55,
      "hit": false,
      "t": 154095.32000000047,
      "d": 941.9752291666518,
      "v": 68
    },
    {
      "midi": 62,
      "hit": false,
      "t": 154500.83400000047,
      "d": 253.44625000000815,
      "v": 40
    },
    {
      "midi": 59,
      "hit": false,
      "t": 154500.83400000047,
      "d": 840.5967291666602,
      "v": 52
    },
    {
      "midi": 62,
      "hit": false,
      "t": 154906.34800000046,
      "d": 295.6872916666616,
      "v": 86
    },
    {
      "midi": 71,
      "hit": false,
      "t": 154906.34800000046,
      "d": 637.8397291666479,
      "v": 105
    },
    {
      "midi": 67,
      "hit": false,
      "t": 155109.10500000045,
      "d": 413.9622083333379,
      "v": 64
    },
    {
      "midi": 62,
      "hit": false,
      "t": 155311.86200000046,
      "d": 190.08468749999884,
      "v": 43
    },
    {
      "midi": 64,
      "hit": false,
      "t": 155717.37600000045,
      "d": 295.6872916666616,
      "v": 95
    },
    {
      "midi": 69,
      "hit": false,
      "t": 155717.37600000045,
      "d": 489.9960833333316,
      "v": 110
    },
    {
      "midi": 60,
      "hit": false,
      "t": 155717.37600000045,
      "d": 865.9413541666581,
      "v": 95
    },
    {
      "midi": 57,
      "hit": false,
      "t": 155717.37600000045,
      "d": 899.7341874999984,
      "v": 86
    },
    {
      "midi": 64,
      "hit": false,
      "t": 156122.89000000045,
      "d": 244.9980416666658,
      "v": 60
    },
    {
      "midi": 64,
      "hit": false,
      "t": 156528.40400000045,
      "d": 287.2390833333484,
      "v": 79
    },
    {
      "midi": 69,
      "hit": false,
      "t": 156528.40400000045,
      "d": 451.9791458333493,
      "v": 105
    },
    {
      "midi": 72,
      "hit": false,
      "t": 156528.40400000045,
      "d": 557.5817500000121,
      "v": 105
    },
    {
      "midi": 57,
      "hit": false,
      "t": 156933.91800000047,
      "d": 244.9980416666658,
      "v": 79
    },
    {
      "midi": 64,
      "hit": false,
      "t": 156933.91800000047,
      "d": 249.22214583333698,
      "v": 73
    },
    {
      "midi": 60,
      "hit": false,
      "t": 156933.91800000047,
      "d": 295.6872916666616,
      "v": 79
    },
    {
      "midi": 64,
      "hit": false,
      "t": 157339.43200000047,
      "d": 299.9113958333328,
      "v": 100
    },
    {
      "midi": 72,
      "hit": false,
      "t": 157339.43200000047,
      "d": 316.80781249998836,
      "v": 110
    },
    {
      "midi": 67,
      "hit": false,
      "t": 157339.43200000047,
      "d": 460.42735416666255,
      "v": 110
    },
    {
      "midi": 60,
      "hit": false,
      "t": 157339.43200000047,
      "d": 920.8547083333251,
      "v": 90
    },
    {
      "midi": 55,
      "hit": false,
      "t": 157339.43200000047,
      "d": 1018.0091041666456,
      "v": 60
    },
    {
      "midi": 64,
      "hit": false,
      "t": 157744.94600000046,
      "d": 240.77393749999464,
      "v": 47
    },
    {
      "midi": 64,
      "hit": false,
      "t": 158150.46000000046,
      "d": 287.2390833333193,
      "v": 95
    },
    {
      "midi": 72,
      "hit": false,
      "t": 158150.46000000046,
      "d": 620.9433124999923,
      "v": 100
    },
    {
      "midi": 64,
      "hit": false,
      "t": 158555.97400000045,
      "d": 156.2918541666586,
      "v": 51
    },
    {
      "midi": 62,
      "hit": false,
      "t": 158961.48800000045,
      "d": 566.0299583333253,
      "v": 90
    },
    {
      "midi": 69,
      "hit": false,
      "t": 158961.48800000045,
      "d": 570.2540624999965,
      "v": 105
    },
    {
      "midi": 67,
      "hit": false,
      "t": 158961.48800000045,
      "d": 591.3745833333232,
      "v": 105
    },
    {
      "midi": 50,
      "hit": false,
      "t": 158961.48800000045,
      "d": 1279.903562499996,
      "v": 76
    },
    {
      "midi": 57,
      "hit": false,
      "t": 158961.48800000045,
      "d": 1368.6097500000033,
      "v": 90
    },
    {
      "midi": 70,
      "hit": false,
      "t": 159772.51600000044,
      "d": 25.344624999997905,
      "v": 64
    },
    {
      "midi": 62,
      "hit": false,
      "t": 159772.51600000044,
      "d": 109.82670833333395,
      "v": 95
    },
    {
      "midi": 62,
      "hit": false,
      "t": 159975.27300000045,
      "d": 130.9472291666607,
      "v": 76
    },
    {
      "midi": 62,
      "hit": false,
      "t": 160178.03000000044,
      "d": 130.9472291666898,
      "v": 73
    },
    {
      "midi": 67,
      "hit": false,
      "t": 160178.03000000044,
      "d": 135.17133333336096,
      "v": 110
    },
    {
      "midi": 69,
      "hit": false,
      "t": 160380.78700000045,
      "d": 126.72312499998952,
      "v": 105
    },
    {
      "midi": 62,
      "hit": false,
      "t": 160583.54400000043,
      "d": 283.0149791666772,
      "v": 95
    },
    {
      "midi": 66,
      "hit": false,
      "t": 160583.54400000043,
      "d": 287.2390833333484,
      "v": 106
    },
    {
      "midi": 57,
      "hit": false,
      "t": 160583.54400000043,
      "d": 625.1674166666926,
      "v": 100
    },
    {
      "midi": 50,
      "hit": false,
      "t": 160583.54400000043,
      "d": 663.184354166704,
      "v": 76
    },
    {
      "midi": 66,
      "hit": false,
      "t": 160989.05800000046,
      "d": 12.672312500013504,
      "v": 56
    },
    {
      "midi": 62,
      "hit": false,
      "t": 160989.05800000046,
      "d": 278.79087500000605,
      "v": 86
    },
    {
      "midi": 67,
      "hit": false,
      "t": 160989.05800000046,
      "d": 278.79087500000605,
      "v": 110
    },
    {
      "midi": 57,
      "hit": false,
      "t": 161394.57200000045,
      "d": 477.3237708333472,
      "v": 90
    },
    {
      "midi": 66,
      "hit": false,
      "t": 161394.57200000045,
      "d": 515.3407083333586,
      "v": 111
    },
    {
      "midi": 50,
      "hit": false,
      "t": 161394.57200000045,
      "d": 523.788916666701,
      "v": 79
    },
    {
      "midi": 69,
      "hit": false,
      "t": 161394.57200000045,
      "d": 591.3745833333815,
      "v": 105
    },
    {
      "midi": 67,
      "hit": false,
      "t": 162205.6000000005,
      "d": 532.2371250000142,
      "v": 95
    },
    {
      "midi": 62,
      "hit": false,
      "t": 162205.6000000005,
      "d": 1089.8188750000263,
      "v": 86
    },
    {
      "midi": 55,
      "hit": false,
      "t": 162205.6000000005,
      "d": 1410.8507916666858,
      "v": 79
    },
    {
      "midi": 59,
      "hit": false,
      "t": 162205.6000000005,
      "d": 1415.074895833357,
      "v": 82
    },
    {
      "midi": 71,
      "hit": false,
      "t": 163016.62800000052,
      "d": 743.4423333333398,
      "v": 95
    },
    {
      "midi": 62,
      "hit": false,
      "t": 163422.14200000052,
      "d": 646.2879375000193,
      "v": 82
    },
    {
      "midi": 67,
      "hit": false,
      "t": 163827.65600000054,
      "d": 384.39347916666884,
      "v": 90
    },
    {
      "midi": 55,
      "hit": false,
      "t": 163827.65600000054,
      "d": 1305.2481874999648,
      "v": 90
    },
    {
      "midi": 62,
      "hit": false,
      "t": 164233.17000000054,
      "d": 101.37849999999162,
      "v": 56
    },
    {
      "midi": 59,
      "hit": false,
      "t": 164233.17000000054,
      "d": 794.1315833333065,
      "v": 79
    },
    {
      "midi": 67,
      "hit": false,
      "t": 164435.92700000052,
      "d": 46.46514583332464,
      "v": 53
    },
    {
      "midi": 62,
      "hit": false,
      "t": 164435.92700000052,
      "d": 122.49902083331835,
      "v": 34
    },
    {
      "midi": 62,
      "hit": false,
      "t": 164638.6840000005,
      "d": 283.0149791666772,
      "v": 62
    },
    {
      "midi": 71,
      "hit": false,
      "t": 164638.6840000005,
      "d": 726.5459166666842,
      "v": 105
    },
    {
      "midi": 67,
      "hit": false,
      "t": 164841.44100000052,
      "d": 240.77393749999464,
      "v": 62
    },
    {
      "midi": 62,
      "hit": false,
      "t": 165044.1980000005,
      "d": 261.8944583333505,
      "v": 47
    },
    {
      "midi": 69,
      "hit": false,
      "t": 165449.71200000052,
      "d": 616.7192083333211,
      "v": 105
    },
    {
      "midi": 62,
      "hit": false,
      "t": 165449.71200000052,
      "d": 1056.026041666657,
      "v": 86
    },
    {
      "midi": 50,
      "hit": false,
      "t": 165449.71200000052,
      "d": 2103.6038749999716,
      "v": 82
    },
    {
      "midi": 57,
      "hit": false,
      "t": 165449.71200000052,
      "d": 2268.3439374999725,
      "v": 86
    },
    {
      "midi": 66,
      "hit": false,
      "t": 166260.74000000051,
      "d": 422.41041666665114,
      "v": 99
    },
    {
      "midi": 62,
      "hit": false,
      "t": 166666.2540000005,
      "d": 612.49510416665,
      "v": 82
    },
    {
      "midi": 67,
      "hit": false,
      "t": 167071.7680000005,
      "d": 726.5459166666551,
      "v": 114
    },
    {
      "midi": 62,
      "hit": false,
      "t": 167477.2820000005,
      "d": 257.6703541666502,
      "v": 60
    },
    {
      "midi": 66,
      "hit": false,
      "t": 167882.7960000005,
      "d": 308.3596041666751,
      "v": 99
    },
    {
      "midi": 57,
      "hit": false,
      "t": 167882.7960000005,
      "d": 536.4612291666563,
      "v": 95
    },
    {
      "midi": 62,
      "hit": false,
      "t": 167882.7960000005,
      "d": 654.7361458333326,
      "v": 86
    },
    {
      "midi": 50,
      "hit": false,
      "t": 167882.7960000005,
      "d": 684.3048750000016,
      "v": 79
    },
    {
      "midi": 69,
      "hit": false,
      "t": 168288.3100000005,
      "d": 299.9113958333328,
      "v": 105
    },
    {
      "midi": 67,
      "hit": false,
      "t": 168693.8240000005,
      "d": 675.8566666666593,
      "v": 110
    },
    {
      "midi": 62,
      "hit": false,
      "t": 168693.8240000005,
      "d": 1051.8019374999858,
      "v": 86
    },
    {
      "midi": 55,
      "hit": false,
      "t": 168693.8240000005,
      "d": 1279.903562499996,
      "v": 82
    },
    {
      "midi": 71,
      "hit": false,
      "t": 169504.85200000048,
      "d": 354.82474999999977,
      "v": 79
    },
    {
      "midi": 59,
      "hit": false,
      "t": 169504.85200000048,
      "d": 2069.8110416666314,
      "v": 44
    },
    {
      "midi": 62,
      "hit": false,
      "t": 169910.36600000047,
      "d": 1106.7152916666528,
      "v": 90
    },
    {
      "midi": 67,
      "hit": false,
      "t": 170113.1230000005,
      "d": 156.2918541666586,
      "v": 90
    },
    {
      "midi": 74,
      "hit": false,
      "t": 170315.88000000047,
      "d": 540.6853333333274,
      "v": 100
    },
    {
      "midi": 67,
      "hit": false,
      "t": 170315.88000000047,
      "d": 637.8397291666479,
      "v": 95
    },
    {
      "midi": 62,
      "hit": false,
      "t": 171126.90800000046,
      "d": 304.13550000000396,
      "v": 79
    },
    {
      "midi": 55,
      "hit": false,
      "t": 171126.90800000046,
      "d": 502.668395833316,
      "v": 79
    },
    {
      "midi": 71,
      "hit": false,
      "t": 171126.90800000046,
      "d": 726.5459166666551,
      "v": 95
    },
    {
      "midi": 62,
      "hit": false,
      "t": 171532.42200000046,
      "d": 270.3426666666637,
      "v": 64
    },
    {
      "midi": 69,
      "hit": false,
      "t": 171937.93600000045,
      "d": 629.3915208333347,
      "v": 110
    },
    {
      "midi": 62,
      "hit": false,
      "t": 171937.93600000045,
      "d": 1085.594770833326,
      "v": 86
    },
    {
      "midi": 50,
      "hit": false,
      "t": 171937.93600000045,
      "d": 1360.1615416666318,
      "v": 82
    },
    {
      "midi": 57,
      "hit": false,
      "t": 171937.93600000045,
      "d": 1415.0748958332988,
      "v": 82
    },
    {
      "midi": 69,
      "hit": false,
      "t": 172748.96400000044,
      "d": 532.2371249999851,
      "v": 105
    },
    {
      "midi": 66,
      "hit": false,
      "t": 172748.96400000044,
      "d": 604.0468958333076,
      "v": 99
    },
    {
      "midi": 62,
      "hit": false,
      "t": 173154.47800000044,
      "d": 283.0149791666481,
      "v": 66
    },
    {
      "midi": 62,
      "hit": false,
      "t": 173559.99200000043,
      "d": 688.5289791666728,
      "v": 76
    },
    {
      "midi": 67,
      "hit": false,
      "t": 173559.99200000043,
      "d": 692.753083333344,
      "v": 105
    },
    {
      "midi": 50,
      "hit": false,
      "t": 173559.99200000043,
      "d": 802.5797916666779,
      "v": 79
    },
    {
      "midi": 57,
      "hit": false,
      "t": 173559.99200000043,
      "d": 1220.766104166687,
      "v": 82
    },
    {
      "midi": 62,
      "hit": false,
      "t": 174371.02000000046,
      "d": 473.09966666667606,
      "v": 79
    },
    {
      "midi": 66,
      "hit": false,
      "t": 174371.02000000046,
      "d": 519.5648125000007,
      "v": 99
    },
    {
      "midi": 67,
      "hit": false,
      "t": 175182.04800000045,
      "d": 532.2371250000142,
      "v": 95
    },
    {
      "midi": 62,
      "hit": false,
      "t": 175182.04800000045,
      "d": 1089.8188750000263,
      "v": 86
    },
    {
      "midi": 55,
      "hit": false,
      "t": 175182.04800000045,
      "d": 1410.8507916666858,
      "v": 79
    },
    {
      "midi": 59,
      "hit": false,
      "t": 175182.04800000045,
      "d": 1415.074895833357,
      "v": 82
    },
    {
      "midi": 71,
      "hit": false,
      "t": 175993.07600000047,
      "d": 743.4423333333398,
      "v": 95
    },
    {
      "midi": 62,
      "hit": false,
      "t": 176398.59000000046,
      "d": 646.2879375000193,
      "v": 82
    },
    {
      "midi": 67,
      "hit": false,
      "t": 176804.1040000005,
      "d": 384.39347916666884,
      "v": 90
    },
    {
      "midi": 55,
      "hit": false,
      "t": 176804.1040000005,
      "d": 1305.2481874999648,
      "v": 90
    },
    {
      "midi": 62,
      "hit": false,
      "t": 177209.61800000048,
      "d": 101.37849999999162,
      "v": 56
    },
    {
      "midi": 59,
      "hit": false,
      "t": 177209.61800000048,
      "d": 794.1315833333065,
      "v": 79
    },
    {
      "midi": 67,
      "hit": false,
      "t": 177412.37500000047,
      "d": 46.46514583332464,
      "v": 53
    },
    {
      "midi": 62,
      "hit": false,
      "t": 177412.37500000047,
      "d": 122.49902083331835,
      "v": 34
    },
    {
      "midi": 62,
      "hit": false,
      "t": 177615.13200000045,
      "d": 283.0149791666772,
      "v": 62
    },
    {
      "midi": 71,
      "hit": false,
      "t": 177615.13200000045,
      "d": 726.5459166666842,
      "v": 105
    },
    {
      "midi": 67,
      "hit": false,
      "t": 177817.88900000046,
      "d": 240.77393749999464,
      "v": 62
    },
    {
      "midi": 62,
      "hit": false,
      "t": 178020.64600000044,
      "d": 261.8944583333505,
      "v": 47
    },
    {
      "midi": 69,
      "hit": false,
      "t": 178426.16000000047,
      "d": 616.7192083333211,
      "v": 105
    },
    {
      "midi": 62,
      "hit": false,
      "t": 178426.16000000047,
      "d": 1056.026041666657,
      "v": 86
    },
    {
      "midi": 50,
      "hit": false,
      "t": 178426.16000000047,
      "d": 2103.6038749999716,
      "v": 82
    },
    {
      "midi": 57,
      "hit": false,
      "t": 178426.16000000047,
      "d": 2268.3439374999725,
      "v": 86
    },
    {
      "midi": 66,
      "hit": false,
      "t": 179237.18800000046,
      "d": 422.41041666665114,
      "v": 99
    },
    {
      "midi": 62,
      "hit": false,
      "t": 179642.70200000046,
      "d": 612.49510416665,
      "v": 82
    },
    {
      "midi": 67,
      "hit": false,
      "t": 180048.21600000045,
      "d": 726.5459166666551,
      "v": 114
    },
    {
      "midi": 62,
      "hit": false,
      "t": 180453.73000000045,
      "d": 257.6703541666502,
      "v": 60
    },
    {
      "midi": 66,
      "hit": false,
      "t": 180859.24400000044,
      "d": 308.3596041666751,
      "v": 99
    },
    {
      "midi": 57,
      "hit": false,
      "t": 180859.24400000044,
      "d": 536.4612291666563,
      "v": 95
    },
    {
      "midi": 62,
      "hit": false,
      "t": 180859.24400000044,
      "d": 654.7361458333326,
      "v": 86
    },
    {
      "midi": 50,
      "hit": false,
      "t": 180859.24400000044,
      "d": 684.3048750000016,
      "v": 79
    },
    {
      "midi": 69,
      "hit": false,
      "t": 181264.75800000044,
      "d": 299.9113958333328,
      "v": 105
    },
    {
      "midi": 67,
      "hit": false,
      "t": 181670.27200000043,
      "d": 675.8566666666593,
      "v": 110
    },
    {
      "midi": 62,
      "hit": false,
      "t": 181670.27200000043,
      "d": 1051.8019374999858,
      "v": 86
    },
    {
      "midi": 55,
      "hit": false,
      "t": 181670.27200000043,
      "d": 1279.903562499996,
      "v": 82
    },
    {
      "midi": 71,
      "hit": false,
      "t": 182481.30000000042,
      "d": 354.82474999999977,
      "v": 79
    },
    {
      "midi": 59,
      "hit": false,
      "t": 182481.30000000042,
      "d": 2069.8110416666314,
      "v": 44
    },
    {
      "midi": 62,
      "hit": false,
      "t": 182886.81400000042,
      "d": 1106.7152916666528,
      "v": 90
    },
    {
      "midi": 67,
      "hit": false,
      "t": 183089.57100000043,
      "d": 156.2918541666586,
      "v": 90
    },
    {
      "midi": 74,
      "hit": false,
      "t": 183292.32800000042,
      "d": 540.6853333333274,
      "v": 100
    },
    {
      "midi": 67,
      "hit": false,
      "t": 183292.32800000042,
      "d": 637.8397291666479,
      "v": 95
    },
    {
      "midi": 62,
      "hit": false,
      "t": 184103.3560000004,
      "d": 304.13550000000396,
      "v": 79
    },
    {
      "midi": 55,
      "hit": false,
      "t": 184103.3560000004,
      "d": 502.668395833316,
      "v": 79
    },
    {
      "midi": 71,
      "hit": false,
      "t": 184103.3560000004,
      "d": 726.5459166666551,
      "v": 95
    },
    {
      "midi": 62,
      "hit": false,
      "t": 184508.8700000004,
      "d": 270.3426666666637,
      "v": 64
    },
    {
      "midi": 69,
      "hit": false,
      "t": 184914.3840000004,
      "d": 629.3915208333347,
      "v": 110
    },
    {
      "midi": 62,
      "hit": false,
      "t": 184914.3840000004,
      "d": 1085.594770833326,
      "v": 86
    },
    {
      "midi": 50,
      "hit": false,
      "t": 184914.3840000004,
      "d": 1360.1615416666318,
      "v": 82
    },
    {
      "midi": 57,
      "hit": false,
      "t": 184914.3840000004,
      "d": 1415.0748958332988,
      "v": 82
    },
    {
      "midi": 69,
      "hit": false,
      "t": 185725.4120000004,
      "d": 532.2371249999851,
      "v": 105
    },
    {
      "midi": 66,
      "hit": false,
      "t": 185725.4120000004,
      "d": 604.0468958333076,
      "v": 99
    },
    {
      "midi": 62,
      "hit": false,
      "t": 186130.92600000039,
      "d": 283.0149791666481,
      "v": 66
    },
    {
      "midi": 62,
      "hit": false,
      "t": 186536.44000000038,
      "d": 688.5289791666728,
      "v": 76
    },
    {
      "midi": 67,
      "hit": false,
      "t": 186536.44000000038,
      "d": 692.753083333344,
      "v": 105
    },
    {
      "midi": 50,
      "hit": false,
      "t": 186536.44000000038,
      "d": 802.5797916666779,
      "v": 79
    },
    {
      "midi": 57,
      "hit": false,
      "t": 186536.44000000038,
      "d": 1220.766104166687,
      "v": 82
    },
    {
      "midi": 62,
      "hit": false,
      "t": 187347.4680000004,
      "d": 473.09966666667606,
      "v": 79
    },
    {
      "midi": 66,
      "hit": false,
      "t": 187347.4680000004,
      "d": 519.5648125000007,
      "v": 99
    },
    {
      "midi": 64,
      "hit": false,
      "t": 188158.4960000004,
      "d": 321.0319166666595,
      "v": 90
    },
    {
      "midi": 69,
      "hit": false,
      "t": 188158.4960000004,
      "d": 384.39347916666884,
      "v": 110
    },
    {
      "midi": 72,
      "hit": false,
      "t": 188158.4960000004,
      "d": 409.73810416666674,
      "v": 90
    },
    {
      "midi": 57,
      "hit": false,
      "t": 188158.4960000004,
      "d": 1334.816916666663,
      "v": 82
    },
    {
      "midi": 60,
      "hit": false,
      "t": 188158.4960000004,
      "d": 1546.0221249999886,
      "v": 79
    },
    {
      "midi": 64,
      "hit": false,
      "t": 188564.0100000004,
      "d": 734.9941249999974,
      "v": 64
    },
    {
      "midi": 72,
      "hit": false,
      "t": 188969.52400000038,
      "d": 1385.5061666666297,
      "v": 114
    },
    {
      "midi": 64,
      "hit": false,
      "t": 189375.03800000038,
      "d": 722.3218124999839,
      "v": 82
    },
    {
      "midi": 60,
      "hit": false,
      "t": 189780.55200000037,
      "d": 388.6175833333109,
      "v": 70
    },
    {
      "midi": 67,
      "hit": false,
      "t": 189780.55200000037,
      "d": 451.9791458332911,
      "v": 105
    },
    {
      "midi": 55,
      "hit": false,
      "t": 189780.55200000037,
      "d": 891.2859791666269,
      "v": 68
    },
    {
      "midi": 64,
      "hit": false,
      "t": 190186.06600000034,
      "d": 299.9113958333328,
      "v": 60
    },
    {
      "midi": 60,
      "hit": false,
      "t": 190186.06600000034,
      "d": 401.2898958333244,
      "v": 32
    },
    {
      "midi": 64,
      "hit": false,
      "t": 190591.58000000034,
      "d": 291.46318749999045,
      "v": 51
    },
    {
      "midi": 72,
      "hit": false,
      "t": 190591.58000000034,
      "d": 739.2182291666686,
      "v": 105
    },
    {
      "midi": 64,
      "hit": false,
      "t": 190997.09400000033,
      "d": 244.9980416666658,
      "v": 53
    },
    {
      "midi": 57,
      "hit": false,
      "t": 191402.60800000033,
      "d": 625.1674166666635,
      "v": 95
    },
    {
      "midi": 66,
      "hit": false,
      "t": 191402.60800000033,
      "d": 912.4064999999828,
      "v": 106
    },
    {
      "midi": 50,
      "hit": false,
      "t": 191402.60800000033,
      "d": 1491.1087708333216,
      "v": 76
    },
    {
      "midi": 57,
      "hit": false,
      "t": 192213.63600000032,
      "d": 654.7361458333326,
      "v": 79
    },
    {
      "midi": 62,
      "hit": false,
      "t": 192416.3930000003,
      "d": 215.42931250002584,
      "v": 79
    },
    {
      "midi": 64,
      "hit": false,
      "t": 192619.1500000003,
      "d": 164.74006250000093,
      "v": 105
    },
    {
      "midi": 67,
      "hit": false,
      "t": 192821.90700000033,
      "d": 143.6195416666451,
      "v": 105
    },
    {
      "midi": 66,
      "hit": false,
      "t": 193024.6640000003,
      "d": 384.39347916666884,
      "v": 115
    },
    {
      "midi": 57,
      "hit": false,
      "t": 193024.6640000003,
      "d": 616.7192083333211,
      "v": 79
    },
    {
      "midi": 50,
      "hit": false,
      "t": 193024.6640000003,
      "d": 870.1654583333293,
      "v": 76
    },
    {
      "midi": 62,
      "hit": false,
      "t": 193430.1780000003,
      "d": 287.2390833333193,
      "v": 66
    },
    {
      "midi": 62,
      "hit": false,
      "t": 193835.6920000003,
      "d": 33.79283333334024,
      "v": 45
    },
    {
      "midi": 66,
      "hit": false,
      "t": 193835.6920000003,
      "d": 346.37654166665743,
      "v": 106
    },
    {
      "midi": 69,
      "hit": false,
      "t": 193835.6920000003,
      "d": 401.2898958333244,
      "v": 110
    },
    {
      "midi": 57,
      "hit": false,
      "t": 193835.6920000003,
      "d": 451.9791458333202,
      "v": 100
    },
    {
      "midi": 62,
      "hit": false,
      "t": 194241.2060000003,
      "d": 287.2390833333193,
      "v": 62
    },
    {
      "midi": 72,
      "hit": false,
      "t": 194646.7200000003,
      "d": 397.06579166665324,
      "v": 100
    },
    {
      "midi": 69,
      "hit": false,
      "t": 194646.7200000003,
      "d": 443.530937500007,
      "v": 110
    },
    {
      "midi": 60,
      "hit": false,
      "t": 194646.7200000003,
      "d": 1165.8527499999618,
      "v": 105
    },
    {
      "midi": 57,
      "hit": false,
      "t": 194646.7200000003,
      "d": 1322.1446041666204,
      "v": 70
    },
    {
      "midi": 64,
      "hit": false,
      "t": 195052.2340000003,
      "d": 329.48012500000186,
      "v": 64
    },
    {
      "midi": 64,
      "hit": false,
      "t": 195457.74800000028,
      "d": 42.24104166665347,
      "v": 49
    },
    {
      "midi": 72,
      "hit": false,
      "t": 195457.74800000028,
      "d": 680.0807708333014,
      "v": 117
    },
    {
      "midi": 69,
      "hit": false,
      "t": 195660.50500000027,
      "d": 202.75699999998324,
      "v": 82
    },
    {
      "midi": 64,
      "hit": false,
      "t": 195863.26200000025,
      "d": 308.3596041666751,
      "v": 68
    },
    {
      "midi": 67,
      "hit": false,
      "t": 196268.77600000025,
      "d": 460.42735416666255,
      "v": 105
    },
    {
      "midi": 72,
      "hit": false,
      "t": 196268.77600000025,
      "d": 654.7361458333326,
      "v": 95
    },
    {
      "midi": 55,
      "hit": false,
      "t": 196268.77600000025,
      "d": 832.148520833347,
      "v": 62
    },
    {
      "midi": 60,
      "hit": false,
      "t": 196268.77600000025,
      "d": 849.0449375000026,
      "v": 73
    },
    {
      "midi": 64,
      "hit": false,
      "t": 196674.29000000024,
      "d": 316.80781250001746,
      "v": 56
    },
    {
      "midi": 64,
      "hit": false,
      "t": 197079.80400000027,
      "d": 84.48208333330695,
      "v": 53
    },
    {
      "midi": 67,
      "hit": false,
      "t": 197079.80400000027,
      "d": 375.9452708332974,
      "v": 110
    },
    {
      "midi": 72,
      "hit": false,
      "t": 197079.80400000027,
      "d": 684.3048749999725,
      "v": 100
    },
    {
      "midi": 64,
      "hit": false,
      "t": 197485.31800000023,
      "d": 194.30879166667,
      "v": 49
    },
    {
      "midi": 62,
      "hit": false,
      "t": 197890.83200000023,
      "d": 1068.6983541666996,
      "v": 95
    },
    {
      "midi": 50,
      "hit": false,
      "t": 197890.83200000023,
      "d": 1279.9035625000542,
      "v": 53
    },
    {
      "midi": 57,
      "hit": false,
      "t": 197890.83200000023,
      "d": 1292.5758750000678,
      "v": 100
    },
    {
      "midi": 67,
      "hit": false,
      "t": 198296.34600000022,
      "d": 312.5837083333463,
      "v": 100
    },
    {
      "midi": 69,
      "hit": false,
      "t": 198701.86000000025,
      "d": 756.1146458333824,
      "v": 114
    },
    {
      "midi": 62,
      "hit": false,
      "t": 199107.37400000027,
      "d": 261.8944583333505,
      "v": 73
    },
    {
      "midi": 67,
      "hit": false,
      "t": 199107.37400000027,
      "d": 266.11856250002165,
      "v": 90
    },
    {
      "midi": 62,
      "hit": false,
      "t": 199512.8880000003,
      "d": 278.79087500000605,
      "v": 95
    },
    {
      "midi": 66,
      "hit": false,
      "t": 199512.8880000003,
      "d": 304.13550000000396,
      "v": 106
    },
    {
      "midi": 50,
      "hit": false,
      "t": 199512.8880000003,
      "d": 401.2898958333244,
      "v": 76
    },
    {
      "midi": 57,
      "hit": false,
      "t": 199512.8880000003,
      "d": 650.5120416666614,
      "v": 100
    },
    {
      "midi": 67,
      "hit": false,
      "t": 199918.4020000003,
      "d": 295.6872916666616,
      "v": 110
    },
    {
      "midi": 62,
      "hit": false,
      "t": 199918.4020000003,
      "d": 304.13550000000396,
      "v": 95
    },
    {
      "midi": 52,
      "hit": false,
      "t": 199918.4020000003,
      "d": 363.2729583333421,
      "v": 82
    },
    {
      "midi": 54,
      "hit": false,
      "t": 200323.9160000003,
      "d": 663.1843541666749,
      "v": 106
    },
    {
      "midi": 66,
      "hit": false,
      "t": 200323.9160000003,
      "d": 688.5289791666728,
      "v": 106
    },
    {
      "midi": 69,
      "hit": false,
      "t": 200323.9160000003,
      "d": 718.0977083333419,
      "v": 95
    },
    {
      "midi": 67,
      "hit": false,
      "t": 201134.9440000003,
      "d": 519.5648125000007,
      "v": 105
    },
    {
      "midi": 62,
      "hit": false,
      "t": 201134.9440000003,
      "d": 684.3048750000016,
      "v": 100
    },
    {
      "midi": 55,
      "hit": false,
      "t": 201134.9440000003,
      "d": 865.9413541666581,
      "v": 64
    },
    {
      "midi": 59,
      "hit": false,
      "t": 201540.4580000003,
      "d": 447.75504166664905,
      "v": 23
    },
    {
      "midi": 62,
      "hit": false,
      "t": 201945.9720000003,
      "d": 236.54983333332348,
      "v": 73
    },
    {
      "midi": 67,
      "hit": false,
      "t": 201945.9720000003,
      "d": 485.77197916666046,
      "v": 105
    },
    {
      "midi": 71,
      "hit": false,
      "t": 201945.9720000003,
      "d": 722.3218124999839,
      "v": 110
    },
    {
      "midi": 55,
      "hit": false,
      "t": 202351.4860000003,
      "d": 177.41237499998533,
      "v": 68
    },
    {
      "midi": 62,
      "hit": false,
      "t": 202351.4860000003,
      "d": 270.3426666666637,
      "v": 73
    },
    {
      "midi": 62,
      "hit": false,
      "t": 202757.0000000003,
      "d": 287.2390833333193,
      "v": 90
    },
    {
      "midi": 69,
      "hit": false,
      "t": 202757.0000000003,
      "d": 460.42735416666255,
      "v": 110
    },
    {
      "midi": 57,
      "hit": false,
      "t": 202757.0000000003,
      "d": 891.285979166656,
      "v": 95
    },
    {
      "midi": 50,
      "hit": false,
      "t": 202757.0000000003,
      "d": 1106.7152916666819,
      "v": 76
    },
    {
      "midi": 62,
      "hit": false,
      "t": 203162.5140000003,
      "d": 304.13550000000396,
      "v": 56
    },
    {
      "midi": 66,
      "hit": false,
      "t": 203365.2710000003,
      "d": 59.137458333338145,
      "v": 46
    },
    {
      "midi": 62,
      "hit": false,
      "t": 203568.02800000028,
      "d": 206.9811041666835,
      "v": 68
    },
    {
      "midi": 69,
      "hit": false,
      "t": 203568.02800000028,
      "d": 443.530937500007,
      "v": 114
    },
    {
      "midi": 66,
      "hit": false,
      "t": 203770.7850000003,
      "d": 223.87752083333908,
      "v": 75
    },
    {
      "midi": 62,
      "hit": false,
      "t": 203973.5420000003,
      "d": 261.8944583333214,
      "v": 66
    },
    {
      "midi": 60,
      "hit": false,
      "t": 204379.0560000003,
      "d": 667.4084583333461,
      "v": 95
    },
    {
      "midi": 55,
      "hit": false,
      "t": 204379.0560000003,
      "d": 1322.1446041666786,
      "v": 100
    },
    {
      "midi": 48,
      "hit": false,
      "t": 204379.0560000003,
      "d": 1377.0579583333456,
      "v": 76
    },
    {
      "midi": 64,
      "hit": false,
      "t": 205190.08400000032,
      "d": 308.3596041666751,
      "v": 110
    },
    {
      "midi": 67,
      "hit": false,
      "t": 205190.08400000032,
      "d": 722.321812500013,
      "v": 114
    },
    {
      "midi": 60,
      "hit": false,
      "t": 205595.59800000032,
      "d": 249.22214583333698,
      "v": 86
    },
    {
      "midi": 62,
      "hit": false,
      "t": 206001.11200000034,
      "d": 299.9113958333328,
      "v": 90
    },
    {
      "midi": 66,
      "hit": false,
      "t": 206001.11200000034,
      "d": 451.9791458333202,
      "v": 99
    },
    {
      "midi": 57,
      "hit": false,
      "t": 206001.11200000034,
      "d": 726.5459166666551,
      "v": 90
    },
    {
      "midi": 50,
      "hit": false,
      "t": 206001.11200000034,
      "d": 756.1146458333242,
      "v": 66
    },
    {
      "midi": 62,
      "hit": false,
      "t": 206406.62600000034,
      "d": 283.0149791666481,
      "v": 62
    },
    {
      "midi": 66,
      "hit": false,
      "t": 206609.38300000032,
      "d": 33.79283333334024,
      "v": 34
    },
    {
      "midi": 62,
      "hit": false,
      "t": 206812.14000000033,
      "d": 219.6534166666679,
      "v": 82
    },
    {
      "midi": 50,
      "hit": false,
      "t": 206812.14000000033,
      "d": 308.3596041666751,
      "v": 70
    },
    {
      "midi": 66,
      "hit": false,
      "t": 206812.14000000033,
      "d": 430.8586249999935,
      "v": 106
    },
    {
      "midi": 57,
      "hit": false,
      "t": 206812.14000000033,
      "d": 532.2371249999851,
      "v": 52
    },
    {
      "midi": 69,
      "hit": false,
      "t": 206812.14000000033,
      "d": 654.7361458333035,
      "v": 114
    },
    {
      "midi": 62,
      "hit": false,
      "t": 207217.65400000033,
      "d": 223.87752083330997,
      "v": 60
    },
    {
      "midi": 62,
      "hit": false,
      "t": 207623.1680000003,
      "d": 295.6872916666616,
      "v": 95
    },
    {
      "midi": 67,
      "hit": false,
      "t": 207623.1680000003,
      "d": 439.3068333333358,
      "v": 105
    },
    {
      "midi": 59,
      "hit": false,
      "t": 207623.1680000003,
      "d": 849.0449375000317,
      "v": 90
    },
    {
      "midi": 55,
      "hit": false,
      "t": 207623.1680000003,
      "d": 895.5100833333563,
      "v": 90
    },
    {
      "midi": 62,
      "hit": false,
      "t": 208028.6820000003,
      "d": 266.11856250002165,
      "v": 58
    },
    {
      "midi": 67,
      "hit": false,
      "t": 208231.4390000003,
      "d": 38.01693750001141,
      "v": 40
    },
    {
      "midi": 71,
      "hit": false,
      "t": 208434.19600000032,
      "d": 295.6872916666616,
      "v": 110
    },
    {
      "midi": 67,
      "hit": false,
      "t": 208434.19600000032,
      "d": 363.2729583333421,
      "v": 110
    },
    {
      "midi": 62,
      "hit": false,
      "t": 208839.7100000003,
      "d": 325.2560208333307,
      "v": 95
    },
    {
      "midi": 62,
      "hit": false,
      "t": 209245.2240000003,
      "d": 253.44625000000815,
      "v": 82
    },
    {
      "midi": 69,
      "hit": false,
      "t": 209245.2240000003,
      "d": 451.9791458333202,
      "v": 100
    },
    {
      "midi": 57,
      "hit": false,
      "t": 209245.2240000003,
      "d": 1013.7849999999453,
      "v": 95
    },
    {
      "midi": 50,
      "hit": false,
      "t": 209245.2240000003,
      "d": 1224.9902083333,
      "v": 76
    },
    {
      "midi": 62,
      "hit": false,
      "t": 209650.7380000003,
      "d": 67.58566666665138,
      "v": 56
    },
    {
      "midi": 62,
      "hit": false,
      "t": 209853.4950000003,
      "d": 101.37849999999162,
      "v": 55
    },
    {
      "midi": 62,
      "hit": false,
      "t": 210056.25200000027,
      "d": 76.03387499999371,
      "v": 68
    },
    {
      "midi": 69,
      "hit": false,
      "t": 210056.25200000027,
      "d": 422.41041666668025,
      "v": 114
    },
    {
      "midi": 71,
      "hit": false,
      "t": 210461.76600000027,
      "d": 59.137458333338145,
      "v": 48
    },
    {
      "midi": 62,
      "hit": false,
      "t": 210461.76600000027,
      "d": 287.2390833333484,
      "v": 48
    },
    {
      "midi": 64,
      "hit": false,
      "t": 210867.2800000003,
      "d": 468.8755625000049,
      "v": 100
    },
    {
      "midi": 60,
      "hit": false,
      "t": 210867.2800000003,
      "d": 658.9602500000037,
      "v": 95
    },
    {
      "midi": 55,
      "hit": false,
      "t": 210867.2800000003,
      "d": 1267.2312499999825,
      "v": 100
    },
    {
      "midi": 48,
      "hit": false,
      "t": 210867.2800000003,
      "d": 1271.4553541666537,
      "v": 90
    },
    {
      "midi": 64,
      "hit": false,
      "t": 211678.30800000028,
      "d": 333.70422916667303,
      "v": 105
    },
    {
      "midi": 67,
      "hit": false,
      "t": 211678.30800000028,
      "d": 718.0977083333419,
      "v": 110
    },
    {
      "midi": 64,
      "hit": false,
      "t": 212083.82200000028,
      "d": 84.48208333333605,
      "v": 66
    },
    {
      "midi": 60,
      "hit": false,
      "t": 212083.82200000028,
      "d": 249.22214583333698,
      "v": 95
    },
    {
      "midi": 64,
      "hit": false,
      "t": 212286.5790000003,
      "d": 105.60260416666279,
      "v": 17
    },
    {
      "midi": 62,
      "hit": false,
      "t": 212489.3360000003,
      "d": 206.9811041666544,
      "v": 95
    },
    {
      "midi": 66,
      "hit": false,
      "t": 212489.3360000003,
      "d": 329.48012500000186,
      "v": 99
    },
    {
      "midi": 50,
      "hit": false,
      "t": 212489.3360000003,
      "d": 1110.939395833324,
      "v": 79
    },
    {
      "midi": 57,
      "hit": false,
      "t": 212489.3360000003,
      "d": 1301.0240833333519,
      "v": 90
    },
    {
      "midi": 62,
      "hit": false,
      "t": 212894.8500000003,
      "d": 109.82670833333395,
      "v": 47
    },
    {
      "midi": 66,
      "hit": false,
      "t": 213300.3640000003,
      "d": 337.9283333333442,
      "v": 106
    },
    {
      "midi": 69,
      "hit": false,
      "t": 213300.3640000003,
      "d": 468.875562500034,
      "v": 105
    },
    {
      "midi": 62,
      "hit": false,
      "t": 213705.87800000032,
      "d": 228.10162500001024,
      "v": 73
    },
    {
      "midi": 62,
      "hit": false,
      "t": 214111.39200000034,
      "d": 257.6703541666793,
      "v": 90
    },
    {
      "midi": 67,
      "hit": false,
      "t": 214111.39200000034,
      "d": 439.3068333333649,
      "v": 100
    },
    {
      "midi": 59,
      "hit": false,
      "t": 214111.39200000034,
      "d": 1127.8358125000668,
      "v": 95
    },
    {
      "midi": 55,
      "hit": false,
      "t": 214111.39200000034,
      "d": 1148.9563333333936,
      "v": 82
    },
    {
      "midi": 62,
      "hit": false,
      "t": 214516.90600000037,
      "d": 71.80977083335165,
      "v": 66
    },
    {
      "midi": 67,
      "hit": false,
      "t": 214719.66300000038,
      "d": 67.58566666668048,
      "v": 76
    },
    {
      "midi": 71,
      "hit": false,
      "t": 214922.4200000004,
      "d": 713.8736041666707,
      "v": 114
    },
    {
      "midi": 67,
      "hit": false,
      "t": 215125.1770000004,
      "d": 261.8944583333505,
      "v": 76
    },
    {
      "midi": 62,
      "hit": false,
      "t": 215327.93400000042,
      "d": 266.11856249999255,
      "v": 86
    },
    {
      "midi": 62,
      "hit": false,
      "t": 215733.44800000038,
      "d": 291.46318749999045,
      "v": 90
    },
    {
      "midi": 69,
      "hit": false,
      "t": 215733.44800000038,
      "d": 498.44429166667396,
      "v": 105
    },
    {
      "midi": 57,
      "hit": false,
      "t": 215733.44800000038,
      "d": 1174.3009583333042,
      "v": 95
    },
    {
      "midi": 50,
      "hit": false,
      "t": 215733.44800000038,
      "d": 1233.4384166666423,
      "v": 86
    },
    {
      "midi": 62,
      "hit": false,
      "t": 216138.96200000038,
      "d": 299.9113958333328,
      "v": 52
    },
    {
      "midi": 62,
      "hit": false,
      "t": 216544.47600000037,
      "d": 46.46514583332464,
      "v": 58
    },
    {
      "midi": 66,
      "hit": false,
      "t": 216544.47600000037,
      "d": 388.6175833333109,
      "v": 106
    },
    {
      "midi": 69,
      "hit": false,
      "t": 216544.47600000037,
      "d": 397.06579166665324,
      "v": 110
    },
    {
      "midi": 62,
      "hit": false,
      "t": 216949.99000000037,
      "d": 261.8944583333214,
      "v": 79
    },
    {
      "midi": 60,
      "hit": false,
      "t": 217355.50400000036,
      "d": 274.5667708333349,
      "v": 90
    },
    {
      "midi": 67,
      "hit": false,
      "t": 217355.50400000036,
      "d": 473.09966666667606,
      "v": 105
    },
    {
      "midi": 48,
      "hit": false,
      "t": 217355.50400000036,
      "d": 1229.2143125000002,
      "v": 90
    },
    {
      "midi": 55,
      "hit": false,
      "t": 217355.50400000036,
      "d": 1385.5061666666588,
      "v": 86
    },
    {
      "midi": 60,
      "hit": false,
      "t": 217761.01800000036,
      "d": 97.15439583334955,
      "v": 64
    },
    {
      "midi": 60,
      "hit": false,
      "t": 217963.77500000037,
      "d": 126.72312499998952,
      "v": 43
    },
    {
      "midi": 67,
      "hit": false,
      "t": 218166.53200000036,
      "d": 308.3596041666751,
      "v": 110
    },
    {
      "midi": 64,
      "hit": false,
      "t": 218166.53200000036,
      "d": 405.5139999999956,
      "v": 105
    },
    {
      "midi": 60,
      "hit": false,
      "t": 218572.04600000035,
      "d": 299.9113958333328,
      "v": 90
    },
    {
      "midi": 66,
      "hit": false,
      "t": 218977.56000000035,
      "d": 316.80781249998836,
      "v": 99
    },
    {
      "midi": 50,
      "hit": false,
      "t": 218977.56000000035,
      "d": 608.2710000000079,
      "v": 79
    },
    {
      "midi": 57,
      "hit": false,
      "t": 218977.56000000035,
      "d": 616.7192083333503,
      "v": 86
    },
    {
      "midi": 62,
      "hit": false,
      "t": 219383.07400000034,
      "d": 67.58566666668048,
      "v": 45
    },
    {
      "midi": 66,
      "hit": false,
      "t": 219585.83100000035,
      "d": 59.137458333338145,
      "v": 47
    },
    {
      "midi": 62,
      "hit": false,
      "t": 219788.58800000037,
      "d": 50.68924999999581,
      "v": 64
    },
    {
      "midi": 57,
      "hit": false,
      "t": 219788.58800000037,
      "d": 519.5648125000007,
      "v": 100
    },
    {
      "midi": 50,
      "hit": false,
      "t": 219788.58800000037,
      "d": 536.4612291666563,
      "v": 82
    },
    {
      "midi": 69,
      "hit": false,
      "t": 219788.58800000037,
      "d": 574.4781666666677,
      "v": 110
    },
    {
      "midi": 62,
      "hit": false,
      "t": 220194.10200000036,
      "d": 232.3257291666814,
      "v": 58
    },
    {
      "midi": 67,
      "hit": false,
      "t": 220599.6160000004,
      "d": 515.3407083333295,
      "v": 110
    },
    {
      "midi": 62,
      "hit": false,
      "t": 220599.6160000004,
      "d": 633.6156250000058,
      "v": 86
    },
    {
      "midi": 55,
      "hit": false,
      "t": 220599.6160000004,
      "d": 815.2521041666914,
      "v": 82
    },
    {
      "midi": 59,
      "hit": false,
      "t": 220599.6160000004,
      "d": 925.0788125000254,
      "v": 90
    },
    {
      "midi": 62,
      "hit": false,
      "t": 221410.6440000004,
      "d": 21.120520833326736,
      "v": 55
    },
    {
      "midi": 71,
      "hit": false,
      "t": 221410.6440000004,
      "d": 473.09966666667606,
      "v": 90
    },
    {
      "midi": 67,
      "hit": false,
      "t": 221410.6440000004,
      "d": 485.77197916668956,
      "v": 110
    },
    {
      "midi": 55,
      "hit": false,
      "t": 221816.1580000004,
      "d": 228.10162500003935,
      "v": 64
    },
    {
      "midi": 59,
      "hit": false,
      "t": 221816.1580000004,
      "d": 228.10162500003935,
      "v": 51
    },
    {
      "midi": 62,
      "hit": false,
      "t": 221816.1580000004,
      "d": 287.2390833333775,
      "v": 64
    },
    {
      "midi": 67,
      "hit": false,
      "t": 222018.91500000044,
      "d": 88.70618750000722,
      "v": 37
    },
    {
      "midi": 72,
      "hit": false,
      "t": 222221.67200000046,
      "d": 337.9283333333442,
      "v": 110
    },
    {
      "midi": 55,
      "hit": false,
      "t": 222221.67200000046,
      "d": 582.9263750000391,
      "v": 82
    },
    {
      "midi": 59,
      "hit": false,
      "t": 222221.67200000046,
      "d": 604.0468958333659,
      "v": 86
    },
    {
      "midi": 71,
      "hit": false,
      "t": 222627.18600000048,
      "d": 316.80781250001746,
      "v": 105
    },
    {
      "midi": 55,
      "hit": false,
      "t": 223032.7000000005,
      "d": 342.15243749998626,
      "v": 86
    },
    {
      "midi": 69,
      "hit": false,
      "t": 223032.7000000005,
      "d": 354.82474999999977,
      "v": 110
    },
    {
      "midi": 59,
      "hit": false,
      "t": 223032.7000000005,
      "d": 397.06579166665324,
      "v": 82
    },
    {
      "midi": 67,
      "hit": false,
      "t": 223438.2140000005,
      "d": 316.80781249998836,
      "v": 95
    },
    {
      "midi": 69,
      "hit": false,
      "t": 223843.7280000005,
      "d": 591.3745833333232,
      "v": 105
    },
    {
      "midi": 57,
      "hit": false,
      "t": 223843.7280000005,
      "d": 865.9413541666581,
      "v": 86
    },
    {
      "midi": 60,
      "hit": false,
      "t": 223843.7280000005,
      "d": 895.5100833333272,
      "v": 90
    },
    {
      "midi": 64,
      "hit": false,
      "t": 224249.2420000005,
      "d": 253.44625000000815,
      "v": 1
    },
    {
      "midi": 69,
      "hit": false,
      "t": 224654.7560000005,
      "d": 397.06579166668234,
      "v": 105
    },
    {
      "midi": 72,
      "hit": false,
      "t": 224654.7560000005,
      "d": 637.839729166677,
      "v": 105
    },
    {
      "midi": 57,
      "hit": false,
      "t": 225060.2700000005,
      "d": 312.5837083333172,
      "v": 82
    },
    {
      "midi": 64,
      "hit": false,
      "t": 225060.2700000005,
      "d": 316.80781249998836,
      "v": 55
    },
    {
      "midi": 60,
      "hit": false,
      "t": 225060.2700000005,
      "d": 337.9283333333151,
      "v": 76
    },
    {
      "midi": 60,
      "hit": false,
      "t": 225465.7840000005,
      "d": 333.70422916667303,
      "v": 66
    },
    {
      "midi": 64,
      "hit": false,
      "t": 225465.7840000005,
      "d": 342.15243750001537,
      "v": 73
    },
    {
      "midi": 67,
      "hit": false,
      "t": 225465.7840000005,
      "d": 511.11660416668747,
      "v": 110
    },
    {
      "midi": 55,
      "hit": false,
      "t": 225465.7840000005,
      "d": 1085.5947708333551,
      "v": 76
    },
    {
      "midi": 64,
      "hit": false,
      "t": 225871.29800000053,
      "d": 261.8944583333214,
      "v": 53
    },
    {
      "midi": 60,
      "hit": false,
      "t": 225871.29800000053,
      "d": 489.9960833333316,
      "v": 52
    },
    {
      "midi": 67,
      "hit": false,
      "t": 226276.81200000053,
      "d": 380.1693749999977,
      "v": 114
    },
    {
      "midi": 72,
      "hit": false,
      "t": 226276.81200000053,
      "d": 713.8736041666707,
      "v": 100
    },
    {
      "midi": 64,
      "hit": false,
      "t": 226682.32600000052,
      "d": 215.42931249999674,
      "v": 64
    },
    {
      "midi": 66,
      "hit": false,
      "t": 227087.84000000052,
      "d": 506.8924999999872,
      "v": 75
    },
    {
      "midi": 62,
      "hit": false,
      "t": 227087.84000000052,
      "d": 650.5120416666614,
      "v": 86
    },
    {
      "midi": 57,
      "hit": false,
      "t": 227087.84000000052,
      "d": 937.7511250000098,
      "v": 90
    },
    {
      "midi": 50,
      "hit": false,
      "t": 227087.84000000052,
      "d": 963.0957500000077,
      "v": 73
    },
    {
      "midi": 62,
      "hit": false,
      "t": 227898.8680000005,
      "d": 88.70618750000722,
      "v": 49
    },
    {
      "midi": 66,
      "hit": false,
      "t": 227898.8680000005,
      "d": 371.72116666668444,
      "v": 106
    },
    {
      "midi": 66,
      "hit": false,
      "t": 228304.38200000054,
      "d": 42.24104166665347,
      "v": 48
    },
    {
      "midi": 50,
      "hit": false,
      "t": 228304.38200000054,
      "d": 177.41237499998533,
      "v": 79
    },
    {
      "midi": 57,
      "hit": false,
      "t": 228304.38200000054,
      "d": 190.08468749999884,
      "v": 86
    },
    {
      "midi": 62,
      "hit": false,
      "t": 228304.38200000054,
      "d": 266.11856250002165,
      "v": 86
    },
    {
      "midi": 66,
      "hit": false,
      "t": 228507.13900000055,
      "d": 88.70618750000722,
      "v": 38
    },
    {
      "midi": 50,
      "hit": false,
      "t": 228709.89600000056,
      "d": 566.0299583333253,
      "v": 79
    },
    {
      "midi": 62,
      "hit": false,
      "t": 228709.89600000056,
      "d": 616.7192083333211,
      "v": 95
    },
    {
      "midi": 67,
      "hit": false,
      "t": 228709.89600000056,
      "d": 696.977187499986,
      "v": 114
    },
    {
      "midi": 57,
      "hit": false,
      "t": 228709.89600000056,
      "d": 1284.1276666666672,
      "v": 100
    },
    {
      "midi": 62,
      "hit": false,
      "t": 229520.92400000055,
      "d": 549.1335416666698,
      "v": 90
    },
    {
      "midi": 66,
      "hit": false,
      "t": 229520.92400000055,
      "d": 629.3915208333347,
      "v": 99
    },
    {
      "midi": 69,
      "hit": false,
      "t": 230331.95200000054,
      "d": 460.42735416666255,
      "v": 114
    },
    {
      "midi": 64,
      "hit": false,
      "t": 230331.95200000054,
      "d": 684.3048750000016,
      "v": 90
    },
    {
      "midi": 60,
      "hit": false,
      "t": 230331.95200000054,
      "d": 916.6306041666539,
      "v": 86
    },
    {
      "midi": 57,
      "hit": false,
      "t": 230331.95200000054,
      "d": 1026.457312499988,
      "v": 86
    },
    {
      "midi": 69,
      "hit": false,
      "t": 231142.98000000053,
      "d": 375.9452708333265,
      "v": 105
    },
    {
      "midi": 72,
      "hit": false,
      "t": 231142.98000000053,
      "d": 667.408458333317,
      "v": 90
    },
    {
      "midi": 60,
      "hit": false,
      "t": 231548.49400000053,
      "d": 274.5667708333349,
      "v": 82
    },
    {
      "midi": 64,
      "hit": false,
      "t": 231548.49400000053,
      "d": 283.0149791666772,
      "v": 86
    },
    {
      "midi": 57,
      "hit": false,
      "t": 231548.49400000053,
      "d": 316.80781250001746,
      "v": 76
    },
    {
      "midi": 64,
      "hit": false,
      "t": 231954.00800000055,
      "d": 316.80781249998836,
      "v": 100
    },
    {
      "midi": 67,
      "hit": false,
      "t": 231954.00800000055,
      "d": 456.2032499999914,
      "v": 110
    },
    {
      "midi": 60,
      "hit": false,
      "t": 231954.00800000055,
      "d": 941.9752291666518,
      "v": 82
    },
    {
      "midi": 55,
      "hit": false,
      "t": 231954.00800000055,
      "d": 975.7680624999921,
      "v": 76
    },
    {
      "midi": 64,
      "hit": false,
      "t": 232359.52200000055,
      "d": 257.6703541666502,
      "v": 40
    },
    {
      "midi": 64,
      "hit": false,
      "t": 232765.03600000055,
      "d": 270.3426666666637,
      "v": 86
    },
    {
      "midi": 67,
      "hit": false,
      "t": 232765.03600000055,
      "d": 418.1863125000091,
      "v": 110
    },
    {
      "midi": 72,
      "hit": false,
      "t": 232765.03600000055,
      "d": 620.9433125000214,
      "v": 110
    },
    {
      "midi": 64,
      "hit": false,
      "t": 233170.55000000054,
      "d": 206.9811041666835,
      "v": 62
    },
    {
      "midi": 50,
      "hit": false,
      "t": 233576.06400000057,
      "d": 502.66839583334513,
      "v": 79
    },
    {
      "midi": 57,
      "hit": false,
      "t": 233576.06400000057,
      "d": 625.1674166666926,
      "v": 95
    },
    {
      "midi": 62,
      "hit": false,
      "t": 233576.06400000057,
      "d": 625.1674166666926,
      "v": 100
    },
    {
      "midi": 66,
      "hit": false,
      "t": 233576.06400000057,
      "d": 654.7361458333617,
      "v": 99
    },
    {
      "midi": 55,
      "hit": false,
      "t": 234387.0920000006,
      "d": 460.42735416666255,
      "v": 73
    },
    {
      "midi": 50,
      "hit": false,
      "t": 234387.0920000006,
      "d": 473.09966666667606,
      "v": 79
    },
    {
      "midi": 57,
      "hit": false,
      "t": 234387.0920000006,
      "d": 561.8058541666833,
      "v": 90
    },
    {
      "midi": 62,
      "hit": false,
      "t": 234387.0920000006,
      "d": 629.3915208333638,
      "v": 95
    },
    {
      "midi": 67,
      "hit": false,
      "t": 234387.0920000006,
      "d": 646.2879375000193,
      "v": 114
    },
    {
      "midi": 66,
      "hit": false,
      "t": 235198.1200000006,
      "d": 257.6703541666793,
      "v": 106
    },
    {
      "midi": 62,
      "hit": false,
      "t": 235198.1200000006,
      "d": 266.11856250002165,
      "v": 95
    },
    {
      "midi": 57,
      "hit": false,
      "t": 235198.1200000006,
      "d": 287.2390833333484,
      "v": 86
    },
    {
      "midi": 50,
      "hit": false,
      "t": 235198.1200000006,
      "d": 346.37654166668653,
      "v": 79
    },
    {
      "midi": 62,
      "hit": false,
      "t": 235603.63400000063,
      "d": 266.11856249999255,
      "v": 90
    },
    {
      "midi": 67,
      "hit": false,
      "t": 235603.63400000063,
      "d": 270.3426666666637,
      "v": 105
    },
    {
      "midi": 54,
      "hit": false,
      "t": 235603.63400000063,
      "d": 325.2560208333307,
      "v": 61
    },
    {
      "midi": 57,
      "hit": false,
      "t": 236009.14800000063,
      "d": 532.2371250000142,
      "v": 100
    },
    {
      "midi": 66,
      "hit": false,
      "t": 236009.14800000063,
      "d": 578.7022708333388,
      "v": 106
    },
    {
      "midi": 69,
      "hit": false,
      "t": 236009.14800000063,
      "d": 650.5120416666614,
      "v": 114
    },
    {
      "midi": 67,
      "hit": false,
      "t": 236820.17600000062,
      "d": 409.73810416666674,
      "v": 110
    },
    {
      "midi": 62,
      "hit": false,
      "t": 236820.17600000062,
      "d": 675.8566666666593,
      "v": 95
    },
    {
      "midi": 59,
      "hit": false,
      "t": 236820.17600000062,
      "d": 844.8208333333314,
      "v": 79
    },
    {
      "midi": 55,
      "hit": false,
      "t": 236820.17600000062,
      "d": 853.2690416666737,
      "v": 68
    },
    {
      "midi": 71,
      "hit": false,
      "t": 237631.2040000006,
      "d": 718.0977083333419,
      "v": 114
    },
    {
      "midi": 67,
      "hit": false,
      "t": 237833.96100000062,
      "d": 206.9811041666835,
      "v": 79
    },
    {
      "midi": 59,
      "hit": false,
      "t": 238036.71800000063,
      "d": 160.51595833332976,
      "v": 79
    },
    {
      "midi": 55,
      "hit": false,
      "t": 238036.71800000063,
      "d": 177.41237499998533,
      "v": 79
    },
    {
      "midi": 62,
      "hit": false,
      "t": 238036.71800000063,
      "d": 283.0149791666481,
      "v": 90
    },
    {
      "midi": 62,
      "hit": false,
      "t": 238442.23200000063,
      "d": 295.6872916666616,
      "v": 90
    },
    {
      "midi": 69,
      "hit": false,
      "t": 238442.23200000063,
      "d": 608.2710000000079,
      "v": 110
    },
    {
      "midi": 54,
      "hit": false,
      "t": 238442.23200000063,
      "d": 1034.9055208333593,
      "v": 91
    },
    {
      "midi": 62,
      "hit": false,
      "t": 238847.74600000062,
      "d": 312.5837083333463,
      "v": 66
    },
    {
      "midi": 62,
      "hit": false,
      "t": 239253.26000000065,
      "d": 228.10162500001024,
      "v": 64
    },
    {
      "midi": 66,
      "hit": false,
      "t": 239253.26000000065,
      "d": 506.8925000000163,
      "v": 106
    },
    {
      "midi": 69,
      "hit": false,
      "t": 239253.26000000065,
      "d": 637.839729166677,
      "v": 105
    },
    {
      "midi": 62,
      "hit": false,
      "t": 239658.77400000067,
      "d": 101.37849999999162,
      "v": 53
    },
    {
      "midi": 72,
      "hit": false,
      "t": 240064.28800000067,
      "d": 570.2540624999965,
      "v": 95
    },
    {
      "midi": 67,
      "hit": false,
      "t": 240064.28800000067,
      "d": 633.6156250000058,
      "v": 100
    },
    {
      "midi": 64,
      "hit": false,
      "t": 240064.28800000067,
      "d": 646.2879375000193,
      "v": 86
    },
    {
      "midi": 60,
      "hit": false,
      "t": 240064.28800000067,
      "d": 908.1823958333407,
      "v": 90
    },
    {
      "midi": 65,
      "hit": false,
      "t": 240875.3160000007,
      "d": 152.06774999998743,
      "v": 73
    },
    {
      "midi": 64,
      "hit": false,
      "t": 240875.3160000007,
      "d": 249.22214583330788,
      "v": 73
    },
    {
      "midi": 72,
      "hit": false,
      "t": 240875.3160000007,
      "d": 709.6494999999704,
      "v": 110
    },
    {
      "midi": 67,
      "hit": false,
      "t": 241078.07300000067,
      "d": 185.86058333332767,
      "v": 60
    },
    {
      "midi": 60,
      "hit": false,
      "t": 241280.83000000066,
      "d": 97.15439583332045,
      "v": 64
    },
    {
      "midi": 67,
      "hit": false,
      "t": 241280.83000000066,
      "d": 126.72312499998952,
      "v": 42
    },
    {
      "midi": 64,
      "hit": false,
      "t": 241280.83000000066,
      "d": 270.3426666666637,
      "v": 82
    },
    {
      "midi": 67,
      "hit": false,
      "t": 241483.58700000064,
      "d": 71.80977083335165,
      "v": 16
    },
    {
      "midi": 67,
      "hit": false,
      "t": 241686.34400000065,
      "d": 489.9960833333316,
      "v": 100
    },
    {
      "midi": 71,
      "hit": false,
      "t": 241686.34400000065,
      "d": 616.7192083333503,
      "v": 82
    },
    {
      "midi": 62,
      "hit": false,
      "t": 241686.34400000065,
      "d": 663.1843541666749,
      "v": 95
    },
    {
      "midi": 50,
      "hit": false,
      "t": 241686.34400000065,
      "d": 941.9752291666518,
      "v": 24
    },
    {
      "midi": 67,
      "hit": false,
      "t": 242294.61500000066,
      "d": 105.60260416666279,
      "v": 62
    },
    {
      "midi": 67,
      "hit": false,
      "t": 242497.37200000064,
      "d": 46.46514583332464,
      "v": 110
    },
    {
      "midi": 62,
      "hit": false,
      "t": 242497.37200000064,
      "d": 278.79087499997695,
      "v": 82
    },
    {
      "midi": 71,
      "hit": false,
      "t": 242497.37200000064,
      "d": 671.632562499959,
      "v": 110
    },
    {
      "midi": 67,
      "hit": false,
      "t": 242700.12900000063,
      "d": 299.9113958333037,
      "v": 70
    },
    {
      "midi": 62,
      "hit": false,
      "t": 242902.8860000006,
      "d": 181.6364791666565,
      "v": 48
    },
    {
      "midi": 64,
      "hit": false,
      "t": 243308.4000000006,
      "d": 312.5837083333463,
      "v": 90
    },
    {
      "midi": 69,
      "hit": false,
      "t": 243308.4000000006,
      "d": 498.44429166670307,
      "v": 114
    },
    {
      "midi": 72,
      "hit": false,
      "t": 243308.4000000006,
      "d": 578.702270833368,
      "v": 105
    },
    {
      "midi": 57,
      "hit": false,
      "t": 243308.4000000006,
      "d": 908.1823958333698,
      "v": 60
    },
    {
      "midi": 64,
      "hit": false,
      "t": 243713.91400000063,
      "d": 287.2390833333484,
      "v": 64
    },
    {
      "midi": 60,
      "hit": false,
      "t": 243713.91400000063,
      "d": 447.75504166667815,
      "v": 58
    },
    {
      "midi": 64,
      "hit": false,
      "t": 244119.42800000065,
      "d": 304.13549999997485,
      "v": 82
    },
    {
      "midi": 72,
      "hit": false,
      "t": 244119.42800000065,
      "d": 684.3048749999725,
      "v": 105
    },
    {
      "midi": 60,
      "hit": false,
      "t": 244524.94200000062,
      "d": 177.41237500001444,
      "v": 79
    },
    {
      "midi": 64,
      "hit": false,
      "t": 244524.94200000062,
      "d": 299.9113958333328,
      "v": 86
    },
    {
      "midi": 57,
      "hit": false,
      "t": 244524.94200000062,
      "d": 329.48012500000186,
      "v": 79
    },
    {
      "midi": 64,
      "hit": false,
      "t": 244930.45600000062,
      "d": 270.3426666666637,
      "v": 86
    },
    {
      "midi": 67,
      "hit": false,
      "t": 244930.45600000062,
      "d": 439.3068333333358,
      "v": 114
    },
    {
      "midi": 72,
      "hit": false,
      "t": 244930.45600000062,
      "d": 561.8058541666833,
      "v": 100
    },
    {
      "midi": 55,
      "hit": false,
      "t": 244930.45600000062,
      "d": 1161.6286458333489,
      "v": 73
    },
    {
      "midi": 64,
      "hit": false,
      "t": 245335.9700000006,
      "d": 118.27491666667629,
      "v": 55
    },
    {
      "midi": 67,
      "hit": false,
      "t": 245538.72700000062,
      "d": 59.137458333338145,
      "v": 53
    },
    {
      "midi": 64,
      "hit": false,
      "t": 245741.48400000064,
      "d": 232.3257291666523,
      "v": 90
    },
    {
      "midi": 67,
      "hit": false,
      "t": 245741.48400000064,
      "d": 418.1863125000091,
      "v": 110
    },
    {
      "midi": 72,
      "hit": false,
      "t": 245741.48400000064,
      "d": 633.6156250000349,
      "v": 105
    },
    {
      "midi": 64,
      "hit": false,
      "t": 246146.99800000063,
      "d": 160.51595833335887,
      "v": 55
    },
    {
      "midi": 62,
      "hit": false,
      "t": 246552.5120000007,
      "d": 287.2390833333193,
      "v": 95
    },
    {
      "midi": 67,
      "hit": false,
      "t": 246552.5120000007,
      "d": 485.77197916666046,
      "v": 110
    },
    {
      "midi": 69,
      "hit": false,
      "t": 246552.5120000007,
      "d": 561.8058541666542,
      "v": 114
    },
    {
      "midi": 57,
      "hit": false,
      "t": 246552.5120000007,
      "d": 1064.4742499999993,
      "v": 86
    },
    {
      "midi": 50,
      "hit": false,
      "t": 246552.5120000007,
      "d": 1132.0599166666798,
      "v": 76
    },
    {
      "midi": 62,
      "hit": false,
      "t": 246958.02600000068,
      "d": 228.10162499998114,
      "v": 53
    },
    {
      "midi": 69,
      "hit": false,
      "t": 247363.54000000068,
      "d": 675.8566666667175,
      "v": 110
    },
    {
      "midi": 67,
      "hit": false,
      "t": 247566.2970000007,
      "d": 173.18827083334327,
      "v": 105
    },
    {
      "midi": 67,
      "hit": false,
      "t": 247769.0540000007,
      "d": 135.17133333333186,
      "v": 47
    },
    {
      "midi": 57,
      "hit": false,
      "t": 247769.0540000007,
      "d": 139.39543750000303,
      "v": 66
    },
    {
      "midi": 62,
      "hit": false,
      "t": 247769.0540000007,
      "d": 257.6703541666793,
      "v": 86
    },
    {
      "midi": 62,
      "hit": false,
      "t": 248174.56800000073,
      "d": 308.3596041666751,
      "v": 100
    },
    {
      "midi": 66,
      "hit": false,
      "t": 248174.56800000073,
      "d": 312.5837083333463,
      "v": 106
    },
    {
      "midi": 57,
      "hit": false,
      "t": 248174.56800000073,
      "d": 633.6156250000349,
      "v": 100
    },
    {
      "midi": 50,
      "hit": false,
      "t": 248174.56800000073,
      "d": 713.8736041667289,
      "v": 90
    },
    {
      "midi": 62,
      "hit": false,
      "t": 248580.08200000075,
      "d": 295.6872916666907,
      "v": 70
    },
    {
      "midi": 67,
      "hit": false,
      "t": 248580.08200000075,
      "d": 299.9113958333619,
      "v": 95
    },
    {
      "midi": 57,
      "hit": false,
      "t": 248985.59600000078,
      "d": 329.48012500000186,
      "v": 95
    },
    {
      "midi": 50,
      "hit": false,
      "t": 248985.59600000078,
      "d": 359.04885416667094,
      "v": 79
    },
    {
      "midi": 66,
      "hit": false,
      "t": 248985.59600000078,
      "d": 561.8058541666833,
      "v": 106
    },
    {
      "midi": 69,
      "hit": false,
      "t": 248985.59600000078,
      "d": 625.1674166666926,
      "v": 100
    },
    {
      "midi": 62,
      "hit": false,
      "t": 249391.11000000077,
      "d": 92.93029166667839,
      "v": 37
    },
    {
      "midi": 67,
      "hit": false,
      "t": 249796.6240000008,
      "d": 519.5648125000007,
      "v": 105
    },
    {
      "midi": 62,
      "hit": false,
      "t": 249796.6240000008,
      "d": 684.3048750000016,
      "v": 100
    },
    {
      "midi": 55,
      "hit": false,
      "t": 249796.6240000008,
      "d": 865.9413541666581,
      "v": 64
    },
    {
      "midi": 59,
      "hit": false,
      "t": 250202.1380000008,
      "d": 447.75504166664905,
      "v": 23
    },
    {
      "midi": 62,
      "hit": false,
      "t": 250607.6520000008,
      "d": 236.54983333332348,
      "v": 73
    },
    {
      "midi": 67,
      "hit": false,
      "t": 250607.6520000008,
      "d": 485.77197916666046,
      "v": 105
    },
    {
      "midi": 71,
      "hit": false,
      "t": 250607.6520000008,
      "d": 722.3218124999839,
      "v": 110
    },
    {
      "midi": 55,
      "hit": false,
      "t": 251013.16600000078,
      "d": 177.41237499998533,
      "v": 68
    },
    {
      "midi": 62,
      "hit": false,
      "t": 251013.16600000078,
      "d": 270.3426666666637,
      "v": 73
    },
    {
      "midi": 62,
      "hit": false,
      "t": 251418.68000000078,
      "d": 287.2390833333193,
      "v": 90
    },
    {
      "midi": 69,
      "hit": false,
      "t": 251418.68000000078,
      "d": 460.42735416666255,
      "v": 110
    },
    {
      "midi": 57,
      "hit": false,
      "t": 251418.68000000078,
      "d": 891.285979166656,
      "v": 95
    },
    {
      "midi": 50,
      "hit": false,
      "t": 251418.68000000078,
      "d": 1106.7152916666819,
      "v": 76
    },
    {
      "midi": 62,
      "hit": false,
      "t": 251824.19400000077,
      "d": 304.13550000000396,
      "v": 56
    },
    {
      "midi": 66,
      "hit": false,
      "t": 252026.9510000008,
      "d": 59.137458333338145,
      "v": 46
    },
    {
      "midi": 62,
      "hit": false,
      "t": 252229.70800000077,
      "d": 206.9811041666835,
      "v": 68
    },
    {
      "midi": 69,
      "hit": false,
      "t": 252229.70800000077,
      "d": 443.530937500007,
      "v": 114
    },
    {
      "midi": 66,
      "hit": false,
      "t": 252432.46500000078,
      "d": 223.87752083333908,
      "v": 75
    },
    {
      "midi": 62,
      "hit": false,
      "t": 252635.2220000008,
      "d": 261.8944583333214,
      "v": 66
    },
    {
      "midi": 60,
      "hit": false,
      "t": 253040.7360000008,
      "d": 667.4084583333461,
      "v": 95
    },
    {
      "midi": 55,
      "hit": false,
      "t": 253040.7360000008,
      "d": 1322.1446041666786,
      "v": 100
    },
    {
      "midi": 48,
      "hit": false,
      "t": 253040.7360000008,
      "d": 1377.0579583333456,
      "v": 76
    },
    {
      "midi": 64,
      "hit": false,
      "t": 253851.7640000008,
      "d": 308.3596041666751,
      "v": 110
    },
    {
      "midi": 67,
      "hit": false,
      "t": 253851.7640000008,
      "d": 722.321812500013,
      "v": 114
    },
    {
      "midi": 60,
      "hit": false,
      "t": 254257.2780000008,
      "d": 249.22214583333698,
      "v": 86
    },
    {
      "midi": 62,
      "hit": false,
      "t": 254662.79200000083,
      "d": 299.9113958333328,
      "v": 90
    },
    {
      "midi": 66,
      "hit": false,
      "t": 254662.79200000083,
      "d": 451.9791458333202,
      "v": 99
    },
    {
      "midi": 57,
      "hit": false,
      "t": 254662.79200000083,
      "d": 726.5459166666551,
      "v": 90
    },
    {
      "midi": 50,
      "hit": false,
      "t": 254662.79200000083,
      "d": 756.1146458333242,
      "v": 66
    },
    {
      "midi": 62,
      "hit": false,
      "t": 255068.30600000083,
      "d": 283.0149791666481,
      "v": 62
    },
    {
      "midi": 66,
      "hit": false,
      "t": 255271.0630000008,
      "d": 33.79283333334024,
      "v": 34
    },
    {
      "midi": 62,
      "hit": false,
      "t": 255473.82000000082,
      "d": 219.6534166666679,
      "v": 82
    },
    {
      "midi": 50,
      "hit": false,
      "t": 255473.82000000082,
      "d": 308.3596041666751,
      "v": 70
    },
    {
      "midi": 66,
      "hit": false,
      "t": 255473.82000000082,
      "d": 430.8586249999935,
      "v": 106
    },
    {
      "midi": 57,
      "hit": false,
      "t": 255473.82000000082,
      "d": 532.2371249999851,
      "v": 52
    },
    {
      "midi": 69,
      "hit": false,
      "t": 255473.82000000082,
      "d": 654.7361458333035,
      "v": 114
    },
    {
      "midi": 62,
      "hit": false,
      "t": 255879.33400000082,
      "d": 223.87752083330997,
      "v": 60
    },
    {
      "midi": 62,
      "hit": false,
      "t": 256284.84800000078,
      "d": 295.6872916666616,
      "v": 95
    },
    {
      "midi": 67,
      "hit": false,
      "t": 256284.84800000078,
      "d": 439.3068333333358,
      "v": 105
    },
    {
      "midi": 59,
      "hit": false,
      "t": 256284.84800000078,
      "d": 849.0449375000317,
      "v": 90
    },
    {
      "midi": 55,
      "hit": false,
      "t": 256284.84800000078,
      "d": 895.5100833333563,
      "v": 90
    },
    {
      "midi": 62,
      "hit": false,
      "t": 256690.36200000078,
      "d": 266.11856250002165,
      "v": 58
    },
    {
      "midi": 67,
      "hit": false,
      "t": 256893.1190000008,
      "d": 38.01693750001141,
      "v": 40
    },
    {
      "midi": 71,
      "hit": false,
      "t": 257095.8760000008,
      "d": 295.6872916666616,
      "v": 110
    },
    {
      "midi": 67,
      "hit": false,
      "t": 257095.8760000008,
      "d": 363.2729583333421,
      "v": 110
    },
    {
      "midi": 62,
      "hit": false,
      "t": 257501.3900000008,
      "d": 325.2560208333307,
      "v": 95
    },
    {
      "midi": 62,
      "hit": false,
      "t": 257906.9040000008,
      "d": 253.44625000000815,
      "v": 82
    },
    {
      "midi": 69,
      "hit": false,
      "t": 257906.9040000008,
      "d": 451.9791458333202,
      "v": 100
    },
    {
      "midi": 57,
      "hit": false,
      "t": 257906.9040000008,
      "d": 1013.7849999999453,
      "v": 95
    },
    {
      "midi": 50,
      "hit": false,
      "t": 257906.9040000008,
      "d": 1224.9902083333,
      "v": 76
    },
    {
      "midi": 62,
      "hit": false,
      "t": 258312.4180000008,
      "d": 67.58566666665138,
      "v": 56
    },
    {
      "midi": 62,
      "hit": false,
      "t": 258515.17500000077,
      "d": 101.37849999999162,
      "v": 55
    },
    {
      "midi": 62,
      "hit": false,
      "t": 258717.93200000076,
      "d": 76.03387499999371,
      "v": 68
    },
    {
      "midi": 69,
      "hit": false,
      "t": 258717.93200000076,
      "d": 422.41041666668025,
      "v": 114
    },
    {
      "midi": 71,
      "hit": false,
      "t": 259123.44600000075,
      "d": 59.137458333338145,
      "v": 48
    },
    {
      "midi": 62,
      "hit": false,
      "t": 259123.44600000075,
      "d": 287.2390833333484,
      "v": 48
    },
    {
      "midi": 64,
      "hit": false,
      "t": 259528.96000000078,
      "d": 468.8755625000049,
      "v": 100
    },
    {
      "midi": 60,
      "hit": false,
      "t": 259528.96000000078,
      "d": 658.9602500000037,
      "v": 95
    },
    {
      "midi": 55,
      "hit": false,
      "t": 259528.96000000078,
      "d": 1267.2312499999825,
      "v": 100
    },
    {
      "midi": 48,
      "hit": false,
      "t": 259528.96000000078,
      "d": 1271.4553541666537,
      "v": 90
    },
    {
      "midi": 64,
      "hit": false,
      "t": 260339.98800000077,
      "d": 333.70422916667303,
      "v": 105
    },
    {
      "midi": 67,
      "hit": false,
      "t": 260339.98800000077,
      "d": 718.0977083333419,
      "v": 110
    },
    {
      "midi": 64,
      "hit": false,
      "t": 260745.50200000076,
      "d": 84.48208333333605,
      "v": 66
    },
    {
      "midi": 60,
      "hit": false,
      "t": 260745.50200000076,
      "d": 249.22214583333698,
      "v": 95
    },
    {
      "midi": 64,
      "hit": false,
      "t": 260948.25900000078,
      "d": 105.60260416666279,
      "v": 17
    },
    {
      "midi": 62,
      "hit": false,
      "t": 261151.0160000008,
      "d": 206.9811041666544,
      "v": 95
    },
    {
      "midi": 66,
      "hit": false,
      "t": 261151.0160000008,
      "d": 329.48012500000186,
      "v": 99
    },
    {
      "midi": 50,
      "hit": false,
      "t": 261151.0160000008,
      "d": 1110.939395833324,
      "v": 79
    },
    {
      "midi": 57,
      "hit": false,
      "t": 261151.0160000008,
      "d": 1301.0240833333519,
      "v": 90
    },
    {
      "midi": 62,
      "hit": false,
      "t": 261556.53000000078,
      "d": 109.82670833333395,
      "v": 47
    },
    {
      "midi": 66,
      "hit": false,
      "t": 261962.04400000078,
      "d": 337.9283333333151,
      "v": 106
    },
    {
      "midi": 69,
      "hit": false,
      "t": 261962.04400000078,
      "d": 468.8755625000049,
      "v": 105
    },
    {
      "midi": 62,
      "hit": false,
      "t": 262367.5580000008,
      "d": 228.10162500001024,
      "v": 73
    },
    {
      "midi": 62,
      "hit": false,
      "t": 262773.0720000008,
      "d": 257.6703541666502,
      "v": 90
    },
    {
      "midi": 67,
      "hit": false,
      "t": 262773.0720000008,
      "d": 439.3068333332776,
      "v": 100
    },
    {
      "midi": 59,
      "hit": false,
      "t": 262773.0720000008,
      "d": 1127.8358124999795,
      "v": 95
    },
    {
      "midi": 55,
      "hit": false,
      "t": 262773.0720000008,
      "d": 1148.9563333333354,
      "v": 82
    },
    {
      "midi": 62,
      "hit": false,
      "t": 263178.58600000077,
      "d": 71.80977083329344,
      "v": 66
    },
    {
      "midi": 67,
      "hit": false,
      "t": 263381.34300000075,
      "d": 67.58566666668048,
      "v": 76
    },
    {
      "midi": 71,
      "hit": false,
      "t": 263584.1000000008,
      "d": 713.8736041666707,
      "v": 114
    },
    {
      "midi": 67,
      "hit": false,
      "t": 263786.8570000008,
      "d": 261.8944583333796,
      "v": 76
    },
    {
      "midi": 62,
      "hit": false,
      "t": 263989.6140000008,
      "d": 266.11856249999255,
      "v": 86
    },
    {
      "midi": 62,
      "hit": false,
      "t": 264395.1280000008,
      "d": 291.46318750001956,
      "v": 90
    },
    {
      "midi": 69,
      "hit": false,
      "t": 264395.1280000008,
      "d": 498.44429166667396,
      "v": 105
    },
    {
      "midi": 57,
      "hit": false,
      "t": 264395.1280000008,
      "d": 1174.3009583333042,
      "v": 95
    },
    {
      "midi": 50,
      "hit": false,
      "t": 264395.1280000008,
      "d": 1233.4384166667005,
      "v": 86
    },
    {
      "midi": 62,
      "hit": false,
      "t": 264800.6420000008,
      "d": 299.9113958333037,
      "v": 52
    },
    {
      "midi": 62,
      "hit": false,
      "t": 265206.1560000008,
      "d": 46.46514583332464,
      "v": 58
    },
    {
      "midi": 66,
      "hit": false,
      "t": 265206.1560000008,
      "d": 388.61758333334,
      "v": 106
    },
    {
      "midi": 69,
      "hit": false,
      "t": 265206.1560000008,
      "d": 397.06579166668234,
      "v": 110
    },
    {
      "midi": 62,
      "hit": false,
      "t": 265611.6700000008,
      "d": 261.8944583333796,
      "v": 79
    },
    {
      "midi": 60,
      "hit": false,
      "t": 266017.1840000008,
      "d": 274.5667708333349,
      "v": 90
    },
    {
      "midi": 67,
      "hit": false,
      "t": 266017.1840000008,
      "d": 473.09966666670516,
      "v": 105
    },
    {
      "midi": 48,
      "hit": false,
      "t": 266017.1840000008,
      "d": 1229.2143125000293,
      "v": 90
    },
    {
      "midi": 55,
      "hit": false,
      "t": 266017.1840000008,
      "d": 1385.506166666688,
      "v": 86
    },
    {
      "midi": 60,
      "hit": false,
      "t": 266422.69800000085,
      "d": 97.15439583332045,
      "v": 64
    },
    {
      "midi": 60,
      "hit": false,
      "t": 266625.45500000083,
      "d": 126.72312500001863,
      "v": 43
    },
    {
      "midi": 67,
      "hit": false,
      "t": 266828.2120000009,
      "d": 308.359604166646,
      "v": 110
    },
    {
      "midi": 64,
      "hit": false,
      "t": 266828.2120000009,
      "d": 405.5139999999665,
      "v": 105
    },
    {
      "midi": 60,
      "hit": false,
      "t": 267233.72600000084,
      "d": 299.9113958333619,
      "v": 90
    },
    {
      "midi": 66,
      "hit": false,
      "t": 267639.24000000086,
      "d": 316.80781249998836,
      "v": 99
    },
    {
      "midi": 50,
      "hit": false,
      "t": 267639.24000000086,
      "d": 608.2710000000079,
      "v": 79
    },
    {
      "midi": 57,
      "hit": false,
      "t": 267639.24000000086,
      "d": 616.7192083333503,
      "v": 86
    },
    {
      "midi": 62,
      "hit": false,
      "t": 268044.75400000083,
      "d": 67.58566666668048,
      "v": 45
    },
    {
      "midi": 66,
      "hit": false,
      "t": 268247.5110000009,
      "d": 59.137458333338145,
      "v": 47
    },
    {
      "midi": 62,
      "hit": false,
      "t": 268450.26800000085,
      "d": 50.68924999999581,
      "v": 64
    },
    {
      "midi": 57,
      "hit": false,
      "t": 268450.26800000085,
      "d": 519.5648125000298,
      "v": 100
    },
    {
      "midi": 50,
      "hit": false,
      "t": 268450.26800000085,
      "d": 536.4612291667145,
      "v": 82
    },
    {
      "midi": 69,
      "hit": false,
      "t": 268450.26800000085,
      "d": 574.4781666666968,
      "v": 110
    },
    {
      "midi": 62,
      "hit": false,
      "t": 268855.7820000009,
      "d": 232.3257291666814,
      "v": 58
    },
    {
      "midi": 67,
      "hit": false,
      "t": 269261.2960000009,
      "d": 515.3407083333586,
      "v": 110
    },
    {
      "midi": 62,
      "hit": false,
      "t": 269261.2960000009,
      "d": 633.6156250000349,
      "v": 86
    },
    {
      "midi": 55,
      "hit": false,
      "t": 269261.2960000009,
      "d": 815.2521041667205,
      "v": 82
    },
    {
      "midi": 59,
      "hit": false,
      "t": 269261.2960000009,
      "d": 925.0788125000545,
      "v": 90
    },
    {
      "midi": 62,
      "hit": false,
      "t": 270072.32400000095,
      "d": 21.12052083335584,
      "v": 55
    },
    {
      "midi": 71,
      "hit": false,
      "t": 270072.32400000095,
      "d": 473.09966666670516,
      "v": 90
    },
    {
      "midi": 67,
      "hit": false,
      "t": 270072.32400000095,
      "d": 485.77197916671867,
      "v": 110
    },
    {
      "midi": 55,
      "hit": false,
      "t": 270477.838000001,
      "d": 228.10162500006845,
      "v": 64
    },
    {
      "midi": 59,
      "hit": false,
      "t": 270477.838000001,
      "d": 228.10162500006845,
      "v": 51
    },
    {
      "midi": 62,
      "hit": false,
      "t": 270477.838000001,
      "d": 287.2390833334066,
      "v": 64
    },
    {
      "midi": 67,
      "hit": false,
      "t": 270680.595000001,
      "d": 88.70618750003632,
      "v": 37
    },
    {
      "midi": 72,
      "hit": false,
      "t": 270883.35200000106,
      "d": 337.9283333333442,
      "v": 110
    },
    {
      "midi": 55,
      "hit": false,
      "t": 270883.35200000106,
      "d": 582.9263750000391,
      "v": 82
    },
    {
      "midi": 59,
      "hit": false,
      "t": 270883.35200000106,
      "d": 604.046895833395,
      "v": 86
    },
    {
      "midi": 71,
      "hit": false,
      "t": 271288.8660000011,
      "d": 316.80781250004657,
      "v": 105
    },
    {
      "midi": 55,
      "hit": false,
      "t": 271694.3800000011,
      "d": 342.15243750001537,
      "v": 86
    },
    {
      "midi": 69,
      "hit": false,
      "t": 271694.3800000011,
      "d": 354.82475000002887,
      "v": 110
    },
    {
      "midi": 59,
      "hit": false,
      "t": 271694.3800000011,
      "d": 397.06579166668234,
      "v": 82
    },
    {
      "midi": 67,
      "hit": false,
      "t": 272099.89400000114,
      "d": 316.80781249998836,
      "v": 95
    },
    {
      "midi": 69,
      "hit": false,
      "t": 272505.4080000011,
      "d": 591.3745833333815,
      "v": 105
    },
    {
      "midi": 57,
      "hit": false,
      "t": 272505.4080000011,
      "d": 865.9413541667163,
      "v": 86
    },
    {
      "midi": 60,
      "hit": false,
      "t": 272505.4080000011,
      "d": 895.5100833333563,
      "v": 90
    },
    {
      "midi": 64,
      "hit": false,
      "t": 272910.9220000011,
      "d": 253.44625000003725,
      "v": 1
    },
    {
      "midi": 69,
      "hit": false,
      "t": 273316.43600000115,
      "d": 397.06579166662414,
      "v": 105
    },
    {
      "midi": 72,
      "hit": false,
      "t": 273316.43600000115,
      "d": 637.8397291666479,
      "v": 105
    },
    {
      "midi": 57,
      "hit": false,
      "t": 273721.9500000011,
      "d": 312.5837083333754,
      "v": 82
    },
    {
      "midi": 64,
      "hit": false,
      "t": 273721.9500000011,
      "d": 316.80781250004657,
      "v": 55
    },
    {
      "midi": 60,
      "hit": false,
      "t": 273721.9500000011,
      "d": 337.9283333334024,
      "v": 76
    },
    {
      "midi": 60,
      "hit": false,
      "t": 274127.4640000012,
      "d": 333.70422916667303,
      "v": 66
    },
    {
      "midi": 64,
      "hit": false,
      "t": 274127.4640000012,
      "d": 342.15243750001537,
      "v": 73
    },
    {
      "midi": 67,
      "hit": false,
      "t": 274127.4640000012,
      "d": 511.11660416668747,
      "v": 110
    },
    {
      "midi": 55,
      "hit": false,
      "t": 274127.4640000012,
      "d": 1085.594770833326,
      "v": 76
    },
    {
      "midi": 64,
      "hit": false,
      "t": 274532.9780000012,
      "d": 261.8944583333214,
      "v": 53
    },
    {
      "midi": 60,
      "hit": false,
      "t": 274532.9780000012,
      "d": 489.9960833332734,
      "v": 52
    },
    {
      "midi": 67,
      "hit": false,
      "t": 274938.4920000012,
      "d": 380.1693749999977,
      "v": 114
    },
    {
      "midi": 72,
      "hit": false,
      "t": 274938.4920000012,
      "d": 713.8736041666707,
      "v": 100
    },
    {
      "midi": 64,
      "hit": false,
      "t": 275344.0060000012,
      "d": 215.42931249999674,
      "v": 64
    },
    {
      "midi": 66,
      "hit": false,
      "t": 275749.5200000012,
      "d": 506.8925000000163,
      "v": 75
    },
    {
      "midi": 62,
      "hit": false,
      "t": 275749.5200000012,
      "d": 650.5120416666614,
      "v": 86
    },
    {
      "midi": 57,
      "hit": false,
      "t": 275749.5200000012,
      "d": 937.7511249999516,
      "v": 90
    },
    {
      "midi": 50,
      "hit": false,
      "t": 275749.5200000012,
      "d": 963.0957499999786,
      "v": 73
    },
    {
      "midi": 62,
      "hit": false,
      "t": 276560.5480000012,
      "d": 88.70618749997811,
      "v": 49
    },
    {
      "midi": 66,
      "hit": false,
      "t": 276560.5480000012,
      "d": 371.72116666665534,
      "v": 106
    },
    {
      "midi": 66,
      "hit": false,
      "t": 276966.06200000114,
      "d": 42.24104166665347,
      "v": 48
    },
    {
      "midi": 50,
      "hit": false,
      "t": 276966.06200000114,
      "d": 177.41237500001444,
      "v": 79
    },
    {
      "midi": 57,
      "hit": false,
      "t": 276966.06200000114,
      "d": 190.08468750002794,
      "v": 86
    },
    {
      "midi": 62,
      "hit": false,
      "t": 276966.06200000114,
      "d": 266.11856250005076,
      "v": 86
    },
    {
      "midi": 66,
      "hit": false,
      "t": 277168.8190000012,
      "d": 88.70618750003632,
      "v": 38
    },
    {
      "midi": 50,
      "hit": false,
      "t": 277371.5760000012,
      "d": 566.0299583333544,
      "v": 79
    },
    {
      "midi": 62,
      "hit": false,
      "t": 277371.5760000012,
      "d": 616.7192083333503,
      "v": 95
    },
    {
      "midi": 67,
      "hit": false,
      "t": 277371.5760000012,
      "d": 696.9771875000442,
      "v": 114
    },
    {
      "midi": 57,
      "hit": false,
      "t": 277371.5760000012,
      "d": 1284.1276666666963,
      "v": 100
    },
    {
      "midi": 62,
      "hit": false,
      "t": 278182.6040000013,
      "d": 549.1335416666698,
      "v": 90
    },
    {
      "midi": 66,
      "hit": false,
      "t": 278182.6040000013,
      "d": 629.3915208333638,
      "v": 99
    },
    {
      "midi": 69,
      "hit": false,
      "t": 278993.6320000013,
      "d": 460.42735416669166,
      "v": 114
    },
    {
      "midi": 64,
      "hit": false,
      "t": 278993.6320000013,
      "d": 684.3048750000307,
      "v": 90
    },
    {
      "midi": 60,
      "hit": false,
      "t": 278993.6320000013,
      "d": 916.6306041667121,
      "v": 86
    },
    {
      "midi": 57,
      "hit": false,
      "t": 278993.6320000013,
      "d": 1026.457312500046,
      "v": 86
    },
    {
      "midi": 69,
      "hit": false,
      "t": 279804.6600000014,
      "d": 375.9452708333265,
      "v": 105
    },
    {
      "midi": 72,
      "hit": false,
      "t": 279804.6600000014,
      "d": 667.4084583332879,
      "v": 90
    },
    {
      "midi": 60,
      "hit": false,
      "t": 280210.17400000134,
      "d": 274.5667708333349,
      "v": 82
    },
    {
      "midi": 64,
      "hit": false,
      "t": 280210.17400000134,
      "d": 283.0149791666772,
      "v": 86
    },
    {
      "midi": 57,
      "hit": false,
      "t": 280210.17400000134,
      "d": 316.80781249998836,
      "v": 76
    },
    {
      "midi": 64,
      "hit": false,
      "t": 280615.6880000013,
      "d": 316.80781249998836,
      "v": 100
    },
    {
      "midi": 67,
      "hit": false,
      "t": 280615.6880000013,
      "d": 456.2032499999623,
      "v": 110
    },
    {
      "midi": 60,
      "hit": false,
      "t": 280615.6880000013,
      "d": 941.9752291666227,
      "v": 82
    },
    {
      "midi": 55,
      "hit": false,
      "t": 280615.6880000013,
      "d": 975.7680624999339,
      "v": 76
    },
    {
      "midi": 64,
      "hit": false,
      "t": 281021.20200000127,
      "d": 257.6703541666502,
      "v": 40
    },
    {
      "midi": 64,
      "hit": false,
      "t": 281426.71600000124,
      "d": 270.3426666666637,
      "v": 86
    },
    {
      "midi": 67,
      "hit": false,
      "t": 281426.71600000124,
      "d": 418.1863125000382,
      "v": 110
    },
    {
      "midi": 72,
      "hit": false,
      "t": 281426.71600000124,
      "d": 620.9433125000214,
      "v": 110
    },
    {
      "midi": 64,
      "hit": false,
      "t": 281832.23000000126,
      "d": 206.9811041666544,
      "v": 62
    },
    {
      "midi": 50,
      "hit": false,
      "t": 282237.7440000013,
      "d": 502.66839583334513,
      "v": 79
    },
    {
      "midi": 57,
      "hit": false,
      "t": 282237.7440000013,
      "d": 625.1674166666926,
      "v": 95
    },
    {
      "midi": 62,
      "hit": false,
      "t": 282237.7440000013,
      "d": 625.1674166666926,
      "v": 100
    },
    {
      "midi": 66,
      "hit": false,
      "t": 282237.7440000013,
      "d": 654.7361458333326,
      "v": 99
    },
    {
      "midi": 55,
      "hit": false,
      "t": 283048.7720000013,
      "d": 460.42735416669166,
      "v": 73
    },
    {
      "midi": 50,
      "hit": false,
      "t": 283048.7720000013,
      "d": 473.09966666670516,
      "v": 79
    },
    {
      "midi": 57,
      "hit": false,
      "t": 283048.7720000013,
      "d": 561.8058541666833,
      "v": 90
    },
    {
      "midi": 62,
      "hit": false,
      "t": 283048.7720000013,
      "d": 629.3915208333638,
      "v": 95
    },
    {
      "midi": 67,
      "hit": false,
      "t": 283048.7720000013,
      "d": 646.2879375000484,
      "v": 114
    },
    {
      "midi": 66,
      "hit": false,
      "t": 283859.8000000013,
      "d": 257.6703541666502,
      "v": 106
    },
    {
      "midi": 62,
      "hit": false,
      "t": 283859.8000000013,
      "d": 266.11856249999255,
      "v": 95
    },
    {
      "midi": 57,
      "hit": false,
      "t": 283859.8000000013,
      "d": 287.2390833333484,
      "v": 86
    },
    {
      "midi": 50,
      "hit": false,
      "t": 283859.8000000013,
      "d": 346.37654166668653,
      "v": 79
    },
    {
      "midi": 62,
      "hit": false,
      "t": 284265.31400000135,
      "d": 266.11856249999255,
      "v": 90
    },
    {
      "midi": 67,
      "hit": false,
      "t": 284265.31400000135,
      "d": 270.3426666666637,
      "v": 105
    },
    {
      "midi": 54,
      "hit": false,
      "t": 284265.31400000135,
      "d": 325.2560208333307,
      "v": 61
    },
    {
      "midi": 57,
      "hit": false,
      "t": 284670.8280000014,
      "d": 532.2371249999851,
      "v": 100
    },
    {
      "midi": 66,
      "hit": false,
      "t": 284670.8280000014,
      "d": 578.7022708333097,
      "v": 106
    },
    {
      "midi": 69,
      "hit": false,
      "t": 284670.8280000014,
      "d": 650.5120416666614,
      "v": 114
    },
    {
      "midi": 67,
      "hit": false,
      "t": 285481.85600000137,
      "d": 519.5648125000298,
      "v": 105
    },
    {
      "midi": 62,
      "hit": false,
      "t": 285481.85600000137,
      "d": 684.3048750000307,
      "v": 100
    },
    {
      "midi": 55,
      "hit": false,
      "t": 285481.85600000137,
      "d": 865.9413541667163,
      "v": 64
    },
    {
      "midi": 59,
      "hit": false,
      "t": 285887.3700000014,
      "d": 447.75504166667815,
      "v": 23
    },
    {
      "midi": 62,
      "hit": false,
      "t": 286292.8840000014,
      "d": 236.54983333335258,
      "v": 73
    },
    {
      "midi": 67,
      "hit": false,
      "t": 286292.8840000014,
      "d": 485.77197916671867,
      "v": 105
    },
    {
      "midi": 71,
      "hit": false,
      "t": 286292.8840000014,
      "d": 722.321812500013,
      "v": 110
    },
    {
      "midi": 55,
      "hit": false,
      "t": 286698.39800000144,
      "d": 177.41237500001444,
      "v": 68
    },
    {
      "midi": 62,
      "hit": false,
      "t": 286698.39800000144,
      "d": 270.3426666666637,
      "v": 73
    },
    {
      "midi": 62,
      "hit": false,
      "t": 287103.9120000014,
      "d": 287.2390833333484,
      "v": 90
    },
    {
      "midi": 69,
      "hit": false,
      "t": 287103.9120000014,
      "d": 460.42735416669166,
      "v": 110
    },
    {
      "midi": 57,
      "hit": false,
      "t": 287103.9120000014,
      "d": 891.2859791666851,
      "v": 95
    },
    {
      "midi": 50,
      "hit": false,
      "t": 287103.9120000014,
      "d": 1106.7152916666819,
      "v": 76
    },
    {
      "midi": 62,
      "hit": false,
      "t": 287509.42600000143,
      "d": 304.13549999997485,
      "v": 56
    },
    {
      "midi": 66,
      "hit": false,
      "t": 287712.1830000014,
      "d": 59.137458333338145,
      "v": 46
    },
    {
      "midi": 62,
      "hit": false,
      "t": 287914.9400000014,
      "d": 206.9811041667126,
      "v": 68
    },
    {
      "midi": 69,
      "hit": false,
      "t": 287914.9400000014,
      "d": 443.5309375000652,
      "v": 114
    },
    {
      "midi": 66,
      "hit": false,
      "t": 288117.69700000144,
      "d": 223.87752083333908,
      "v": 75
    },
    {
      "midi": 62,
      "hit": false,
      "t": 288320.4540000014,
      "d": 261.8944583333796,
      "v": 66
    },
    {
      "midi": 60,
      "hit": false,
      "t": 288725.96800000145,
      "d": 667.4084583333461,
      "v": 95
    },
    {
      "midi": 55,
      "hit": false,
      "t": 288725.96800000145,
      "d": 1322.1446041666204,
      "v": 100
    },
    {
      "midi": 48,
      "hit": false,
      "t": 288725.96800000145,
      "d": 1377.0579583332874,
      "v": 76
    },
    {
      "midi": 64,
      "hit": false,
      "t": 289536.99600000144,
      "d": 308.359604166646,
      "v": 110
    },
    {
      "midi": 67,
      "hit": false,
      "t": 289536.99600000144,
      "d": 722.3218124999548,
      "v": 114
    },
    {
      "midi": 60,
      "hit": false,
      "t": 289942.5100000014,
      "d": 249.22214583330788,
      "v": 86
    },
    {
      "midi": 62,
      "hit": false,
      "t": 290348.0240000014,
      "d": 299.9113958333619,
      "v": 90
    },
    {
      "midi": 66,
      "hit": false,
      "t": 290348.0240000014,
      "d": 451.9791458333493,
      "v": 99
    },
    {
      "midi": 57,
      "hit": false,
      "t": 290348.0240000014,
      "d": 726.545916666626,
      "v": 90
    },
    {
      "midi": 50,
      "hit": false,
      "t": 290348.0240000014,
      "d": 756.114645833266,
      "v": 66
    },
    {
      "midi": 62,
      "hit": false,
      "t": 290753.5380000014,
      "d": 283.014979166619,
      "v": 62
    },
    {
      "midi": 66,
      "hit": false,
      "t": 290956.2950000014,
      "d": 33.79283333331114,
      "v": 34
    },
    {
      "midi": 62,
      "hit": false,
      "t": 291159.0520000013,
      "d": 219.6534166666679,
      "v": 82
    },
    {
      "midi": 50,
      "hit": false,
      "t": 291159.0520000013,
      "d": 308.359604166646,
      "v": 70
    },
    {
      "midi": 66,
      "hit": false,
      "t": 291159.0520000013,
      "d": 430.8586249999935,
      "v": 106
    },
    {
      "midi": 57,
      "hit": false,
      "t": 291159.0520000013,
      "d": 532.2371249999851,
      "v": 52
    },
    {
      "midi": 69,
      "hit": false,
      "t": 291159.0520000013,
      "d": 654.7361458333326,
      "v": 114
    },
    {
      "midi": 62,
      "hit": false,
      "t": 291564.5660000013,
      "d": 223.87752083333908,
      "v": 60
    },
    {
      "midi": 62,
      "hit": false,
      "t": 291970.0800000013,
      "d": 295.6872916666907,
      "v": 95
    },
    {
      "midi": 67,
      "hit": false,
      "t": 291970.0800000013,
      "d": 439.3068333333358,
      "v": 105
    },
    {
      "midi": 59,
      "hit": false,
      "t": 291970.0800000013,
      "d": 849.0449374999735,
      "v": 90
    },
    {
      "midi": 55,
      "hit": false,
      "t": 291970.0800000013,
      "d": 895.5100833332981,
      "v": 90
    },
    {
      "midi": 62,
      "hit": false,
      "t": 292375.5940000013,
      "d": 266.11856249999255,
      "v": 58
    },
    {
      "midi": 67,
      "hit": false,
      "t": 292578.3510000013,
      "d": 38.016937499982305,
      "v": 40
    },
    {
      "midi": 71,
      "hit": false,
      "t": 292781.1080000013,
      "d": 295.6872916666325,
      "v": 110
    },
    {
      "midi": 67,
      "hit": false,
      "t": 292781.1080000013,
      "d": 363.272958333313,
      "v": 110
    },
    {
      "midi": 62,
      "hit": false,
      "t": 293186.62200000125,
      "d": 325.2560208333307,
      "v": 95
    },
    {
      "midi": 62,
      "hit": false,
      "t": 293592.1360000013,
      "d": 253.44624999997905,
      "v": 82
    },
    {
      "midi": 69,
      "hit": false,
      "t": 293592.1360000013,
      "d": 451.9791458332911,
      "v": 100
    },
    {
      "midi": 57,
      "hit": false,
      "t": 293592.1360000013,
      "d": 1013.7850000000326,
      "v": 95
    },
    {
      "midi": 50,
      "hit": false,
      "t": 293592.1360000013,
      "d": 1224.9902083333582,
      "v": 76
    },
    {
      "midi": 62,
      "hit": false,
      "t": 293997.65000000125,
      "d": 67.58566666668048,
      "v": 56
    },
    {
      "midi": 62,
      "hit": false,
      "t": 294200.4070000013,
      "d": 101.37849999999162,
      "v": 55
    },
    {
      "midi": 62,
      "hit": false,
      "t": 294403.16400000127,
      "d": 76.03387500002282,
      "v": 68
    },
    {
      "midi": 69,
      "hit": false,
      "t": 294403.16400000127,
      "d": 422.41041666670935,
      "v": 114
    },
    {
      "midi": 71,
      "hit": false,
      "t": 294808.6780000013,
      "d": 59.137458333338145,
      "v": 48
    },
    {
      "midi": 62,
      "hit": false,
      "t": 294808.6780000013,
      "d": 287.2390833333484,
      "v": 48
    },
    {
      "midi": 64,
      "hit": false,
      "t": 295214.1920000013,
      "d": 468.8755624999758,
      "v": 100
    },
    {
      "midi": 60,
      "hit": false,
      "t": 295214.1920000013,
      "d": 658.9602500000037,
      "v": 95
    },
    {
      "midi": 55,
      "hit": false,
      "t": 295214.1920000013,
      "d": 1267.2312500000116,
      "v": 100
    },
    {
      "midi": 48,
      "hit": false,
      "t": 295214.1920000013,
      "d": 1271.4553541666828,
      "v": 90
    },
    {
      "midi": 64,
      "hit": false,
      "t": 296025.2200000013,
      "d": 333.70422916667303,
      "v": 105
    },
    {
      "midi": 67,
      "hit": false,
      "t": 296025.2200000013,
      "d": 718.0977083333419,
      "v": 110
    },
    {
      "midi": 64,
      "hit": false,
      "t": 296430.73400000134,
      "d": 84.48208333330695,
      "v": 66
    },
    {
      "midi": 60,
      "hit": false,
      "t": 296430.73400000134,
      "d": 249.22214583330788,
      "v": 95
    },
    {
      "midi": 64,
      "hit": false,
      "t": 296633.4910000013,
      "d": 105.60260416666279,
      "v": 17
    },
    {
      "midi": 62,
      "hit": false,
      "t": 296836.2480000013,
      "d": 206.9811041666544,
      "v": 95
    },
    {
      "midi": 66,
      "hit": false,
      "t": 296836.2480000013,
      "d": 329.48012500000186,
      "v": 99
    },
    {
      "midi": 50,
      "hit": false,
      "t": 296836.2480000013,
      "d": 1110.9393958334113,
      "v": 79
    },
    {
      "midi": 57,
      "hit": false,
      "t": 296836.2480000013,
      "d": 1301.0240833334392,
      "v": 90
    },
    {
      "midi": 62,
      "hit": false,
      "t": 297241.7620000013,
      "d": 109.82670833333395,
      "v": 47
    },
    {
      "midi": 66,
      "hit": false,
      "t": 297647.27600000135,
      "d": 337.9283333333442,
      "v": 106
    },
    {
      "midi": 69,
      "hit": false,
      "t": 297647.27600000135,
      "d": 468.875562500034,
      "v": 105
    },
    {
      "midi": 62,
      "hit": false,
      "t": 298052.7900000014,
      "d": 228.10162500001024,
      "v": 73
    },
    {
      "midi": 62,
      "hit": false,
      "t": 298458.3040000014,
      "d": 257.6703541666502,
      "v": 90
    },
    {
      "midi": 67,
      "hit": false,
      "t": 298458.3040000014,
      "d": 439.3068333332776,
      "v": 100
    },
    {
      "midi": 59,
      "hit": false,
      "t": 298458.3040000014,
      "d": 1127.8358124999795,
      "v": 95
    },
    {
      "midi": 55,
      "hit": false,
      "t": 298458.3040000014,
      "d": 1148.9563333333354,
      "v": 82
    },
    {
      "midi": 62,
      "hit": false,
      "t": 298863.81800000137,
      "d": 71.80977083329344,
      "v": 66
    },
    {
      "midi": 67,
      "hit": false,
      "t": 299066.57500000135,
      "d": 67.58566666668048,
      "v": 76
    },
    {
      "midi": 71,
      "hit": false,
      "t": 299269.3320000014,
      "d": 713.8736041666707,
      "v": 114
    },
    {
      "midi": 67,
      "hit": false,
      "t": 299472.0890000014,
      "d": 261.8944583333796,
      "v": 76
    },
    {
      "midi": 62,
      "hit": false,
      "t": 299674.8460000014,
      "d": 266.11856249999255,
      "v": 86
    },
    {
      "midi": 62,
      "hit": false,
      "t": 300080.3600000014,
      "d": 291.46318750001956,
      "v": 90
    },
    {
      "midi": 69,
      "hit": false,
      "t": 300080.3600000014,
      "d": 498.44429166667396,
      "v": 105
    },
    {
      "midi": 57,
      "hit": false,
      "t": 300080.3600000014,
      "d": 1174.3009583333042,
      "v": 95
    },
    {
      "midi": 50,
      "hit": false,
      "t": 300080.3600000014,
      "d": 1233.4384166667005,
      "v": 86
    },
    {
      "midi": 62,
      "hit": false,
      "t": 300485.8740000014,
      "d": 299.9113958333037,
      "v": 52
    },
    {
      "midi": 62,
      "hit": false,
      "t": 300891.3880000014,
      "d": 46.46514583332464,
      "v": 58
    },
    {
      "midi": 66,
      "hit": false,
      "t": 300891.3880000014,
      "d": 388.61758333334,
      "v": 106
    },
    {
      "midi": 69,
      "hit": false,
      "t": 300891.3880000014,
      "d": 397.06579166668234,
      "v": 110
    },
    {
      "midi": 62,
      "hit": false,
      "t": 301296.9020000014,
      "d": 261.8944583333796,
      "v": 79
    },
    {
      "midi": 60,
      "hit": false,
      "t": 301702.4160000014,
      "d": 274.5667708333349,
      "v": 90
    },
    {
      "midi": 67,
      "hit": false,
      "t": 301702.4160000014,
      "d": 473.09966666670516,
      "v": 105
    },
    {
      "midi": 48,
      "hit": false,
      "t": 301702.4160000014,
      "d": 1229.2143125000293,
      "v": 90
    },
    {
      "midi": 55,
      "hit": false,
      "t": 301702.4160000014,
      "d": 1385.506166666688,
      "v": 86
    },
    {
      "midi": 60,
      "hit": false,
      "t": 302107.93000000145,
      "d": 97.15439583332045,
      "v": 64
    },
    {
      "midi": 60,
      "hit": false,
      "t": 302310.68700000143,
      "d": 126.72312500001863,
      "v": 43
    },
    {
      "midi": 67,
      "hit": false,
      "t": 302513.4440000015,
      "d": 308.359604166646,
      "v": 110
    },
    {
      "midi": 64,
      "hit": false,
      "t": 302513.4440000015,
      "d": 405.5139999999665,
      "v": 105
    },
    {
      "midi": 60,
      "hit": false,
      "t": 302918.95800000144,
      "d": 299.9113958333619,
      "v": 90
    },
    {
      "midi": 66,
      "hit": false,
      "t": 303324.47200000146,
      "d": 316.80781249998836,
      "v": 99
    },
    {
      "midi": 50,
      "hit": false,
      "t": 303324.47200000146,
      "d": 608.2710000000079,
      "v": 79
    },
    {
      "midi": 57,
      "hit": false,
      "t": 303324.47200000146,
      "d": 616.7192083333503,
      "v": 86
    },
    {
      "midi": 62,
      "hit": false,
      "t": 303729.98600000143,
      "d": 67.58566666668048,
      "v": 45
    },
    {
      "midi": 66,
      "hit": false,
      "t": 303932.7430000015,
      "d": 59.137458333338145,
      "v": 47
    },
    {
      "midi": 62,
      "hit": false,
      "t": 304135.50000000146,
      "d": 50.68924999999581,
      "v": 64
    },
    {
      "midi": 57,
      "hit": false,
      "t": 304135.50000000146,
      "d": 519.5648125000298,
      "v": 100
    },
    {
      "midi": 50,
      "hit": false,
      "t": 304135.50000000146,
      "d": 536.4612291667145,
      "v": 82
    },
    {
      "midi": 69,
      "hit": false,
      "t": 304135.50000000146,
      "d": 574.4781666666968,
      "v": 110
    },
    {
      "midi": 62,
      "hit": false,
      "t": 304541.0140000015,
      "d": 232.3257291666814,
      "v": 58
    },
    {
      "midi": 67,
      "hit": false,
      "t": 304946.5280000015,
      "d": 515.3407083333586,
      "v": 110
    },
    {
      "midi": 62,
      "hit": false,
      "t": 304946.5280000015,
      "d": 633.6156250000349,
      "v": 86
    },
    {
      "midi": 55,
      "hit": false,
      "t": 304946.5280000015,
      "d": 815.2521041667205,
      "v": 82
    },
    {
      "midi": 59,
      "hit": false,
      "t": 304946.5280000015,
      "d": 925.0788125000545,
      "v": 90
    },
    {
      "midi": 62,
      "hit": false,
      "t": 305757.55600000155,
      "d": 21.12052083335584,
      "v": 55
    },
    {
      "midi": 71,
      "hit": false,
      "t": 305757.55600000155,
      "d": 473.09966666670516,
      "v": 90
    },
    {
      "midi": 67,
      "hit": false,
      "t": 305757.55600000155,
      "d": 485.77197916671867,
      "v": 110
    },
    {
      "midi": 55,
      "hit": false,
      "t": 306163.0700000016,
      "d": 228.10162500006845,
      "v": 64
    },
    {
      "midi": 59,
      "hit": false,
      "t": 306163.0700000016,
      "d": 228.10162500006845,
      "v": 51
    },
    {
      "midi": 62,
      "hit": false,
      "t": 306163.0700000016,
      "d": 287.2390833334066,
      "v": 64
    },
    {
      "midi": 67,
      "hit": false,
      "t": 306365.8270000016,
      "d": 88.70618750003632,
      "v": 37
    },
    {
      "midi": 72,
      "hit": false,
      "t": 306568.58400000166,
      "d": 337.9283333333442,
      "v": 110
    },
    {
      "midi": 55,
      "hit": false,
      "t": 306568.58400000166,
      "d": 582.9263750000391,
      "v": 82
    },
    {
      "midi": 59,
      "hit": false,
      "t": 306568.58400000166,
      "d": 604.046895833395,
      "v": 86
    },
    {
      "midi": 71,
      "hit": false,
      "t": 306974.0980000017,
      "d": 316.80781250004657,
      "v": 105
    },
    {
      "midi": 55,
      "hit": false,
      "t": 307379.6120000017,
      "d": 342.15243750001537,
      "v": 86
    },
    {
      "midi": 69,
      "hit": false,
      "t": 307379.6120000017,
      "d": 354.82475000002887,
      "v": 110
    },
    {
      "midi": 59,
      "hit": false,
      "t": 307379.6120000017,
      "d": 397.06579166668234,
      "v": 82
    },
    {
      "midi": 67,
      "hit": false,
      "t": 307785.12600000174,
      "d": 316.80781249998836,
      "v": 95
    },
    {
      "midi": 69,
      "hit": false,
      "t": 308190.6400000017,
      "d": 591.3745833333815,
      "v": 105
    },
    {
      "midi": 57,
      "hit": false,
      "t": 308190.6400000017,
      "d": 865.9413541667163,
      "v": 86
    },
    {
      "midi": 60,
      "hit": false,
      "t": 308190.6400000017,
      "d": 895.5100833333563,
      "v": 90
    },
    {
      "midi": 64,
      "hit": false,
      "t": 308596.1540000017,
      "d": 253.44625000003725,
      "v": 1
    },
    {
      "midi": 69,
      "hit": false,
      "t": 309001.66800000175,
      "d": 397.06579166662414,
      "v": 105
    },
    {
      "midi": 72,
      "hit": false,
      "t": 309001.66800000175,
      "d": 637.8397291666479,
      "v": 105
    },
    {
      "midi": 57,
      "hit": false,
      "t": 309407.1820000017,
      "d": 312.5837083333754,
      "v": 82
    },
    {
      "midi": 64,
      "hit": false,
      "t": 309407.1820000017,
      "d": 316.80781250004657,
      "v": 55
    },
    {
      "midi": 60,
      "hit": false,
      "t": 309407.1820000017,
      "d": 337.9283333334024,
      "v": 76
    },
    {
      "midi": 60,
      "hit": false,
      "t": 309812.6960000018,
      "d": 333.70422916667303,
      "v": 66
    },
    {
      "midi": 64,
      "hit": false,
      "t": 309812.6960000018,
      "d": 342.15243750001537,
      "v": 73
    },
    {
      "midi": 67,
      "hit": false,
      "t": 309812.6960000018,
      "d": 511.11660416668747,
      "v": 110
    },
    {
      "midi": 55,
      "hit": false,
      "t": 309812.6960000018,
      "d": 1085.594770833326,
      "v": 76
    },
    {
      "midi": 64,
      "hit": false,
      "t": 310218.2100000018,
      "d": 261.8944583333214,
      "v": 53
    },
    {
      "midi": 60,
      "hit": false,
      "t": 310218.2100000018,
      "d": 489.9960833332734,
      "v": 52
    },
    {
      "midi": 67,
      "hit": false,
      "t": 310623.7240000018,
      "d": 380.1693749999977,
      "v": 114
    },
    {
      "midi": 72,
      "hit": false,
      "t": 310623.7240000018,
      "d": 713.8736041666707,
      "v": 100
    },
    {
      "midi": 64,
      "hit": false,
      "t": 311029.2380000018,
      "d": 215.42931249999674,
      "v": 64
    },
    {
      "midi": 66,
      "hit": false,
      "t": 311434.7520000018,
      "d": 506.8925000000163,
      "v": 75
    },
    {
      "midi": 62,
      "hit": false,
      "t": 311434.7520000018,
      "d": 650.5120416666614,
      "v": 86
    },
    {
      "midi": 57,
      "hit": false,
      "t": 311434.7520000018,
      "d": 937.7511249999516,
      "v": 90
    },
    {
      "midi": 50,
      "hit": false,
      "t": 311434.7520000018,
      "d": 963.0957499999786,
      "v": 73
    },
    {
      "midi": 62,
      "hit": false,
      "t": 312245.7800000018,
      "d": 88.70618749997811,
      "v": 49
    },
    {
      "midi": 66,
      "hit": false,
      "t": 312245.7800000018,
      "d": 371.72116666665534,
      "v": 106
    },
    {
      "midi": 66,
      "hit": false,
      "t": 312651.29400000174,
      "d": 42.24104166665347,
      "v": 48
    },
    {
      "midi": 50,
      "hit": false,
      "t": 312651.29400000174,
      "d": 177.41237500001444,
      "v": 79
    },
    {
      "midi": 57,
      "hit": false,
      "t": 312651.29400000174,
      "d": 190.08468750002794,
      "v": 86
    },
    {
      "midi": 62,
      "hit": false,
      "t": 312651.29400000174,
      "d": 266.11856250005076,
      "v": 86
    },
    {
      "midi": 66,
      "hit": false,
      "t": 312854.0510000018,
      "d": 88.70618750003632,
      "v": 38
    },
    {
      "midi": 50,
      "hit": false,
      "t": 313056.8080000018,
      "d": 566.0299583333544,
      "v": 79
    },
    {
      "midi": 62,
      "hit": false,
      "t": 313056.8080000018,
      "d": 616.7192083333503,
      "v": 95
    },
    {
      "midi": 67,
      "hit": false,
      "t": 313056.8080000018,
      "d": 696.9771875000442,
      "v": 114
    },
    {
      "midi": 57,
      "hit": false,
      "t": 313056.8080000018,
      "d": 1284.1276666666963,
      "v": 100
    },
    {
      "midi": 62,
      "hit": false,
      "t": 313867.8360000019,
      "d": 549.1335416666698,
      "v": 90
    },
    {
      "midi": 66,
      "hit": false,
      "t": 313867.8360000019,
      "d": 629.3915208333638,
      "v": 99
    },
    {
      "midi": 69,
      "hit": false,
      "t": 314678.8640000019,
      "d": 460.42735416669166,
      "v": 114
    },
    {
      "midi": 64,
      "hit": false,
      "t": 314678.8640000019,
      "d": 684.3048750000307,
      "v": 90
    },
    {
      "midi": 60,
      "hit": false,
      "t": 314678.8640000019,
      "d": 916.6306041667121,
      "v": 86
    },
    {
      "midi": 57,
      "hit": false,
      "t": 314678.8640000019,
      "d": 1026.457312500046,
      "v": 86
    },
    {
      "midi": 69,
      "hit": false,
      "t": 315489.892000002,
      "d": 375.9452708333265,
      "v": 105
    },
    {
      "midi": 72,
      "hit": false,
      "t": 315489.892000002,
      "d": 667.4084583332879,
      "v": 90
    },
    {
      "midi": 60,
      "hit": false,
      "t": 315895.40600000194,
      "d": 274.5667708333349,
      "v": 82
    },
    {
      "midi": 64,
      "hit": false,
      "t": 315895.40600000194,
      "d": 283.0149791666772,
      "v": 86
    },
    {
      "midi": 57,
      "hit": false,
      "t": 315895.40600000194,
      "d": 316.80781249998836,
      "v": 76
    },
    {
      "midi": 64,
      "hit": false,
      "t": 316300.9200000019,
      "d": 316.80781249998836,
      "v": 100
    },
    {
      "midi": 67,
      "hit": false,
      "t": 316300.9200000019,
      "d": 456.2032499999623,
      "v": 110
    },
    {
      "midi": 60,
      "hit": false,
      "t": 316300.9200000019,
      "d": 941.9752291666227,
      "v": 82
    },
    {
      "midi": 55,
      "hit": false,
      "t": 316300.9200000019,
      "d": 975.7680624999339,
      "v": 76
    },
    {
      "midi": 64,
      "hit": false,
      "t": 316706.4340000019,
      "d": 257.6703541666502,
      "v": 40
    },
    {
      "midi": 64,
      "hit": false,
      "t": 317111.94800000184,
      "d": 270.3426666666637,
      "v": 86
    },
    {
      "midi": 67,
      "hit": false,
      "t": 317111.94800000184,
      "d": 418.1863125000382,
      "v": 110
    },
    {
      "midi": 72,
      "hit": false,
      "t": 317111.94800000184,
      "d": 620.9433125000214,
      "v": 110
    },
    {
      "midi": 64,
      "hit": false,
      "t": 317517.46200000186,
      "d": 206.9811041666544,
      "v": 62
    },
    {
      "midi": 62,
      "hit": false,
      "t": 317922.9760000019,
      "d": 270.3426666666637,
      "v": 95
    },
    {
      "midi": 66,
      "hit": false,
      "t": 317922.9760000019,
      "d": 274.5667708333349,
      "v": 106
    },
    {
      "midi": 50,
      "hit": false,
      "t": 317922.9760000019,
      "d": 519.5648125000298,
      "v": 76
    },
    {
      "midi": 57,
      "hit": false,
      "t": 317922.9760000019,
      "d": 680.0807708333596,
      "v": 82
    },
    {
      "midi": 62,
      "hit": false,
      "t": 318328.4900000019,
      "d": 261.8944583333214,
      "v": 86
    },
    {
      "midi": 66,
      "hit": false,
      "t": 318328.4900000019,
      "d": 270.3426666666637,
      "v": 99
    },
    {
      "midi": 62,
      "hit": false,
      "t": 318734.00400000194,
      "d": 274.5667708333349,
      "v": 95
    },
    {
      "midi": 67,
      "hit": false,
      "t": 318734.00400000194,
      "d": 304.13549999997485,
      "v": 110
    },
    {
      "midi": 69,
      "hit": false,
      "t": 319139.5180000019,
      "d": 1051.801937500015,
      "v": 110
    },
    {
      "midi": 66,
      "hit": false,
      "t": 319139.5180000019,
      "d": 1060.2501458333572,
      "v": 111
    },
    {
      "midi": 50,
      "hit": false,
      "t": 319139.5180000019,
      "d": 1381.2820625000168,
      "v": 76
    },
    {
      "midi": 57,
      "hit": false,
      "t": 319139.5180000019,
      "d": 1486.8846666666795,
      "v": 90
    },
    {
      "midi": 74,
      "hit": false,
      "t": 320356.0600000019,
      "d": 739.2182291666395,
      "v": 100
    },
    {
      "midi": 55,
      "hit": false,
      "t": 321167.0880000019,
      "d": 3244.112000000023,
      "v": 70
    },
    {
      "midi": 62,
      "hit": false,
      "t": 321167.0880000019,
      "d": 3244.112000000023,
      "v": 73
    },
    {
      "midi": 71,
      "hit": false,
      "t": 321167.0880000019,
      "d": 3244.112000000023,
      "v": 90
    },
    {
      "midi": 79,
      "hit": false,
      "t": 321167.0880000019,
      "d": 3244.112000000023,
      "v": 114
    }
  ]
}