{
  "jsonPath": "Unknown/Unknown/Sacral Reason/without-your-eyes.json",
  "path": "Unknown\\Unknown\\Sacral Reason\\Without Your Eyes.mid",
  "name": "Without Your Eyes",
  "difficulty": "Advanced",
  "bpm": 120,
  "notes": [
    {
      "midi": 65,
      "hit": false,
      "t": 1000,
      "d": 1531.25,
      "v": 121
    },
    {
      "midi": 72,
      "hit": false,
      "t": 1000,
      "d": 1542.7083333333335,
      "v": 121
    },
    {
      "midi": 65,
      "hit": false,
      "t": 2000,
      "d": 1531.25,
      "v": 121
    },
    {
      "midi": 72,
      "hit": false,
      "t": 2000,
      "d": 1542.7083333333335,
      "v": 121
    },
    {
      "midi": 64,
      "hit": false,
      "t": 3000,
      "d": 1600,
      "v": 121
    },
    {
      "midi": 67,
      "hit": false,
      "t": 3000,
      "d": 1607.291666666667,
      "v": 121
    },
    {
      "midi": 72,
      "hit": false,
      "t": 3000,
      "d": 1620.833333333334,
      "v": 121
    },
    {
      "midi": 64,
      "hit": false,
      "t": 4000,
      "d": 1600,
      "v": 121
    },
    {
      "midi": 67,
      "hit": false,
      "t": 4000,
      "d": 1607.291666666667,
      "v": 121
    },
    {
      "midi": 72,
      "hit": false,
      "t": 4000,
      "d": 1620.833333333334,
      "v": 121
    },
    {
      "midi": 72,
      "hit": false,
      "t": 5000.000000000001,
      "d": 1560.416666666667,
      "v": 121
    },
    {
      "midi": 65,
      "hit": false,
      "t": 5000.000000000001,
      "d": 1594.791666666667,
      "v": 121
    },
    {
      "midi": 69,
      "hit": false,
      "t": 5000.000000000001,
      "d": 1645.833333333334,
      "v": 121
    },
    {
      "midi": 72,
      "hit": false,
      "t": 6000.000000000001,
      "d": 1560.416666666667,
      "v": 121
    },
    {
      "midi": 65,
      "hit": false,
      "t": 6000.000000000001,
      "d": 1594.791666666667,
      "v": 121
    },
    {
      "midi": 69,
      "hit": false,
      "t": 6000.000000000001,
      "d": 1645.833333333334,
      "v": 121
    },
    {
      "midi": 71,
      "hit": false,
      "t": 7000.000000000002,
      "d": 1619.791666666666,
      "v": 121
    },
    {
      "midi": 72,
      "hit": false,
      "t": 7000.000000000002,
      "d": 1620.8333333333321,
      "v": 121
    },
    {
      "midi": 67,
      "hit": false,
      "t": 7000.000000000002,
      "d": 1648.9583333333321,
      "v": 121
    },
    {
      "midi": 71,
      "hit": false,
      "t": 8000.000000000002,
      "d": 1619.791666666666,
      "v": 121
    },
    {
      "midi": 72,
      "hit": false,
      "t": 8000.000000000002,
      "d": 1620.8333333333321,
      "v": 121
    },
    {
      "midi": 67,
      "hit": false,
      "t": 8000.000000000002,
      "d": 1648.9583333333321,
      "v": 121
    },
    {
      "midi": 65,
      "hit": false,
      "t": 9000,
      "d": 260.41666666666606,
      "v": 121
    },
    {
      "midi": 72,
      "hit": false,
      "t": 9000,
      "d": 279.16666666666606,
      "v": 121
    },
    {
      "midi": 69,
      "hit": false,
      "t": 9000,
      "d": 346.875,
      "v": 121
    },
    {
      "midi": 53,
      "hit": false,
      "t": 9000,
      "d": 1533.3333333333358,
      "v": 121
    },
    {
      "midi": 60,
      "hit": false,
      "t": 9250,
      "d": 1439.5833333333358,
      "v": 121
    },
    {
      "midi": 65,
      "hit": false,
      "t": 9500,
      "d": 585.4166666666679,
      "v": 121
    },
    {
      "midi": 67,
      "hit": false,
      "t": 9750,
      "d": 333.33333333333394,
      "v": 121
    },
    {
      "midi": 65,
      "hit": false,
      "t": 10000,
      "d": 260.41666666666606,
      "v": 121
    },
    {
      "midi": 72,
      "hit": false,
      "t": 10000,
      "d": 279.16666666666606,
      "v": 121
    },
    {
      "midi": 69,
      "hit": false,
      "t": 10000,
      "d": 346.875,
      "v": 121
    },
    {
      "midi": 53,
      "hit": false,
      "t": 10000,
      "d": 1533.3333333333358,
      "v": 121
    },
    {
      "midi": 60,
      "hit": false,
      "t": 10250,
      "d": 1439.5833333333358,
      "v": 121
    },
    {
      "midi": 72,
      "hit": false,
      "t": 10250.000000000002,
      "d": 421.875,
      "v": 121
    },
    {
      "midi": 65,
      "hit": false,
      "t": 10500,
      "d": 585.4166666666679,
      "v": 121
    },
    {
      "midi": 65,
      "hit": false,
      "t": 10500.000000000002,
      "d": 468.75,
      "v": 121
    },
    {
      "midi": 67,
      "hit": false,
      "t": 10750,
      "d": 333.33333333333394,
      "v": 121
    },
    {
      "midi": 72,
      "hit": false,
      "t": 10750.000000000002,
      "d": 581.25,
      "v": 120
    },
    {
      "midi": 55,
      "hit": false,
      "t": 11000.000000000002,
      "d": 1309.375,
      "v": 120
    },
    {
      "midi": 62,
      "hit": false,
      "t": 11250.000000000002,
      "d": 1183.333333333334,
      "v": 120
    },
    {
      "midi": 72,
      "hit": false,
      "t": 11250.000000000002,
      "d": 421.875,
      "v": 121
    },
    {
      "midi": 71,
      "hit": false,
      "t": 11500.000000000002,
      "d": 260.41666666666606,
      "v": 120
    },
    {
      "midi": 67,
      "hit": false,
      "t": 11500.000000000002,
      "d": 788.5416666666661,
      "v": 120
    },
    {
      "midi": 65,
      "hit": false,
      "t": 11500.000000000002,
      "d": 468.75,
      "v": 121
    },
    {
      "midi": 72,
      "hit": false,
      "t": 11750.000000000002,
      "d": 581.25,
      "v": 120
    },
    {
      "midi": 55,
      "hit": false,
      "t": 12000.000000000002,
      "d": 1309.375,
      "v": 120
    },
    {
      "midi": 71,
      "hit": false,
      "t": 12250.000000000002,
      "d": 122.91666666666606,
      "v": 120
    },
    {
      "midi": 62,
      "hit": false,
      "t": 12250.000000000002,
      "d": 1183.333333333334,
      "v": 120
    },
    {
      "midi": 72,
      "hit": false,
      "t": 12375.000000000002,
      "d": 159.375,
      "v": 120
    },
    {
      "midi": 74,
      "hit": false,
      "t": 12500.000000000002,
      "d": 319.79166666666606,
      "v": 120
    },
    {
      "midi": 71,
      "hit": false,
      "t": 12500.000000000002,
      "d": 260.41666666666606,
      "v": 120
    },
    {
      "midi": 67,
      "hit": false,
      "t": 12500.000000000002,
      "d": 788.5416666666661,
      "v": 120
    },
    {
      "midi": 71,
      "hit": false,
      "t": 12750.000000000002,
      "d": 307.29166666666606,
      "v": 120
    },
    {
      "midi": 72,
      "hit": false,
      "t": 13000.000000000002,
      "d": 517.7083333333321,
      "v": 120
    },
    {
      "midi": 57,
      "hit": false,
      "t": 13000.000000000002,
      "d": 3491.666666666666,
      "v": 120
    },
    {
      "midi": 64,
      "hit": false,
      "t": 13250,
      "d": 3183.3333333333358,
      "v": 120
    },
    {
      "midi": 71,
      "hit": false,
      "t": 13250.000000000002,
      "d": 122.91666666666606,
      "v": 120
    },
    {
      "midi": 72,
      "hit": false,
      "t": 13375.000000000002,
      "d": 159.375,
      "v": 120
    },
    {
      "midi": 69,
      "hit": false,
      "t": 13500,
      "d": 1385.416666666666,
      "v": 120
    },
    {
      "midi": 74,
      "hit": false,
      "t": 13500.000000000002,
      "d": 319.79166666666606,
      "v": 120
    },
    {
      "midi": 71,
      "hit": false,
      "t": 13750,
      "d": 421.875,
      "v": 120
    },
    {
      "midi": 71,
      "hit": false,
      "t": 13750.000000000002,
      "d": 307.29166666666606,
      "v": 120
    },
    {
      "midi": 72,
      "hit": false,
      "t": 14000.000000000002,
      "d": 517.7083333333321,
      "v": 120
    },
    {
      "midi": 57,
      "hit": false,
      "t": 14000.000000000002,
      "d": 3491.666666666659,
      "v": 120
    },
    {
      "midi": 72,
      "hit": false,
      "t": 14250,
      "d": 371.875,
      "v": 120
    },
    {
      "midi": 64,
      "hit": false,
      "t": 14250,
      "d": 3183.3333333333285,
      "v": 120
    },
    {
      "midi": 69,
      "hit": false,
      "t": 14500,
      "d": 1385.416666666666,
      "v": 120
    },
    {
      "midi": 76,
      "hit": false,
      "t": 14750,
      "d": 362.5,
      "v": 120
    },
    {
      "midi": 71,
      "hit": false,
      "t": 14750,
      "d": 421.875,
      "v": 120
    },
    {
      "midi": 72,
      "hit": false,
      "t": 15250,
      "d": 371.875,
      "v": 120
    },
    {
      "midi": 71,
      "hit": false,
      "t": 15750,
      "d": 78.125,
      "v": 120
    },
    {
      "midi": 76,
      "hit": false,
      "t": 15750,
      "d": 362.5,
      "v": 120
    },
    {
      "midi": 72,
      "hit": false,
      "t": 15812.5,
      "d": 105.20833333333394,
      "v": 120
    },
    {
      "midi": 71,
      "hit": false,
      "t": 15875,
      "d": 122.91666666666788,
      "v": 120
    },
    {
      "midi": 69,
      "hit": false,
      "t": 16000.000000000002,
      "d": 447.91666666666606,
      "v": 120
    },
    {
      "midi": 67,
      "hit": false,
      "t": 16500,
      "d": 357.2916666666679,
      "v": 120
    },
    {
      "midi": 71,
      "hit": false,
      "t": 16750,
      "d": 78.125,
      "v": 120
    },
    {
      "midi": 72,
      "hit": false,
      "t": 16812.5,
      "d": 105.20833333333212,
      "v": 120
    },
    {
      "midi": 71,
      "hit": false,
      "t": 16875,
      "d": 122.91666666666424,
      "v": 120
    },
    {
      "midi": 69,
      "hit": false,
      "t": 16999.999999999996,
      "d": 447.91666666666424,
      "v": 120
    },
    {
      "midi": 67,
      "hit": false,
      "t": 17000,
      "d": 364.5833333333321,
      "v": 120
    },
    {
      "midi": 71,
      "hit": false,
      "t": 17000,
      "d": 406.25,
      "v": 120
    },
    {
      "midi": 53,
      "hit": false,
      "t": 17000,
      "d": 1544.7916666666642,
      "v": 120
    },
    {
      "midi": 60,
      "hit": false,
      "t": 17250,
      "d": 888.5416666666642,
      "v": 120
    },
    {
      "midi": 67,
      "hit": false,
      "t": 17499.999999999993,
      "d": 357.2916666666679,
      "v": 120
    },
    {
      "midi": 65,
      "hit": false,
      "t": 17500,
      "d": 496.875,
      "v": 120
    },
    {
      "midi": 72,
      "hit": false,
      "t": 17750,
      "d": 298.9583333333321,
      "v": 120
    },
    {
      "midi": 69,
      "hit": false,
      "t": 17750,
      "d": 330.2083333333321,
      "v": 120
    },
    {
      "midi": 67,
      "hit": false,
      "t": 17999.999999999993,
      "d": 364.5833333333321,
      "v": 120
    },
    {
      "midi": 71,
      "hit": false,
      "t": 17999.999999999993,
      "d": 406.25,
      "v": 120
    },
    {
      "midi": 53,
      "hit": false,
      "t": 17999.999999999993,
      "d": 1544.7916666666642,
      "v": 120
    },
    {
      "midi": 60,
      "hit": false,
      "t": 18249.999999999993,
      "d": 888.5416666666642,
      "v": 120
    },
    {
      "midi": 65,
      "hit": false,
      "t": 18249.999999999996,
      "d": 318.75,
      "v": 120
    },
    {
      "midi": 69,
      "hit": false,
      "t": 18249.999999999996,
      "d": 390.625,
      "v": 120
    },
    {
      "midi": 65,
      "hit": false,
      "t": 18499.999999999993,
      "d": 496.875,
      "v": 120
    },
    {
      "midi": 60,
      "hit": false,
      "t": 18499.999999999996,
      "d": 242.70833333333212,
      "v": 120
    },
    {
      "midi": 72,
      "hit": false,
      "t": 18749.999999999993,
      "d": 298.9583333333321,
      "v": 120
    },
    {
      "midi": 69,
      "hit": false,
      "t": 18749.999999999993,
      "d": 330.2083333333321,
      "v": 120
    },
    {
      "midi": 67,
      "hit": false,
      "t": 18749.999999999996,
      "d": 594.7916666666679,
      "v": 120
    },
    {
      "midi": 71,
      "hit": false,
      "t": 18749.999999999996,
      "d": 625,
      "v": 120
    },
    {
      "midi": 55,
      "hit": false,
      "t": 18999.999999999996,
      "d": 1532.2916666666679,
      "v": 120
    },
    {
      "midi": 65,
      "hit": false,
      "t": 19249.99999999999,
      "d": 318.75,
      "v": 120
    },
    {
      "midi": 69,
      "hit": false,
      "t": 19249.99999999999,
      "d": 390.625,
      "v": 120
    },
    {
      "midi": 62,
      "hit": false,
      "t": 19249.999999999996,
      "d": 1216.6666666666679,
      "v": 120
    },
    {
      "midi": 60,
      "hit": false,
      "t": 19499.99999999999,
      "d": 242.70833333333212,
      "v": 120
    },
    {
      "midi": 67,
      "hit": false,
      "t": 19499.999999999996,
      "d": 876.0416666666679,
      "v": 120
    },
    {
      "midi": 67,
      "hit": false,
      "t": 19749.99999999999,
      "d": 594.7916666666679,
      "v": 120
    },
    {
      "midi": 71,
      "hit": false,
      "t": 19749.99999999999,
      "d": 625,
      "v": 120
    },
    {
      "midi": 69,
      "hit": false,
      "t": 19749.999999999996,
      "d": 255.20833333333212,
      "v": 120
    },
    {
      "midi": 72,
      "hit": false,
      "t": 19749.999999999996,
      "d": 317.7083333333321,
      "v": 120
    },
    {
      "midi": 55,
      "hit": false,
      "t": 19999.99999999999,
      "d": 1532.2916666666679,
      "v": 120
    },
    {
      "midi": 62,
      "hit": false,
      "t": 20249.99999999999,
      "d": 1216.6666666666679,
      "v": 120
    },
    {
      "midi": 71,
      "hit": false,
      "t": 20249.999999999996,
      "d": 293.75,
      "v": 120
    },
    {
      "midi": 74,
      "hit": false,
      "t": 20249.999999999996,
      "d": 416.6666666666679,
      "v": 120
    },
    {
      "midi": 67,
      "hit": false,
      "t": 20499.99999999999,
      "d": 876.0416666666679,
      "v": 120
    },
    {
      "midi": 69,
      "hit": false,
      "t": 20749.99999999999,
      "d": 255.20833333333212,
      "v": 120
    },
    {
      "midi": 72,
      "hit": false,
      "t": 20749.99999999999,
      "d": 317.7083333333321,
      "v": 120
    },
    {
      "midi": 76,
      "hit": false,
      "t": 20999.999999999996,
      "d": 388.5416666666679,
      "v": 120
    },
    {
      "midi": 72,
      "hit": false,
      "t": 20999.999999999996,
      "d": 453.125,
      "v": 120
    },
    {
      "midi": 71,
      "hit": false,
      "t": 21249.99999999999,
      "d": 293.75,
      "v": 120
    },
    {
      "midi": 74,
      "hit": false,
      "t": 21249.99999999999,
      "d": 416.6666666666679,
      "v": 120
    },
    {
      "midi": 45,
      "hit": false,
      "t": 21249.999999999996,
      "d": 2878.1250000000036,
      "v": 120
    },
    {
      "midi": 52,
      "hit": false,
      "t": 21499.999999999996,
      "d": 494.7916666666679,
      "v": 120
    },
    {
      "midi": 57,
      "hit": false,
      "t": 21749.999999999996,
      "d": 276.0416666666679,
      "v": 120
    },
    {
      "midi": 64,
      "hit": false,
      "t": 21749.999999999996,
      "d": 310.4166666666679,
      "v": 120
    },
    {
      "midi": 76,
      "hit": false,
      "t": 21999.99999999999,
      "d": 388.5416666666679,
      "v": 120
    },
    {
      "midi": 72,
      "hit": false,
      "t": 21999.99999999999,
      "d": 453.125,
      "v": 120
    },
    {
      "midi": 72,
      "hit": false,
      "t": 21999.999999999996,
      "d": 334.375,
      "v": 120
    },
    {
      "midi": 45,
      "hit": false,
      "t": 22249.99999999999,
      "d": 2878.1250000000036,
      "v": 120
    },
    {
      "midi": 69,
      "hit": false,
      "t": 22249.999999999996,
      "d": 247.91666666666788,
      "v": 120
    },
    {
      "midi": 52,
      "hit": false,
      "t": 22499.99999999999,
      "d": 494.7916666666679,
      "v": 120
    },
    {
      "midi": 52,
      "hit": false,
      "t": 22499.999999999996,
      "d": 1211.4583333333358,
      "v": 120
    },
    {
      "midi": 57,
      "hit": false,
      "t": 22749.99999999999,
      "d": 276.0416666666679,
      "v": 120
    },
    {
      "midi": 64,
      "hit": false,
      "t": 22749.99999999999,
      "d": 310.4166666666679,
      "v": 120
    },
    {
      "midi": 57,
      "hit": false,
      "t": 22749.999999999996,
      "d": 854.1666666666679,
      "v": 120
    },
    {
      "midi": 72,
      "hit": false,
      "t": 22999.99999999999,
      "d": 334.375,
      "v": 120
    },
    {
      "midi": 59,
      "hit": false,
      "t": 22999.999999999996,
      "d": 510.4166666666679,
      "v": 120
    },
    {
      "midi": 69,
      "hit": false,
      "t": 23249.99999999999,
      "d": 247.91666666666788,
      "v": 120
    },
    {
      "midi": 60,
      "hit": false,
      "t": 23249.999999999996,
      "d": 314.58333333333576,
      "v": 120
    },
    {
      "midi": 52,
      "hit": false,
      "t": 23499.99999999999,
      "d": 1211.4583333333358,
      "v": 120
    },
    {
      "midi": 69,
      "hit": false,
      "t": 23499.999999999996,
      "d": 546.8750000000036,
      "v": 120
    },
    {
      "midi": 57,
      "hit": false,
      "t": 23749.99999999999,
      "d": 854.1666666666679,
      "v": 120
    },
    {
      "midi": 60,
      "hit": false,
      "t": 23750,
      "d": 334.375,
      "v": 120
    },
    {
      "midi": 59,
      "hit": false,
      "t": 23999.99999999999,
      "d": 510.4166666666679,
      "v": 120
    },
    {
      "midi": 52,
      "hit": false,
      "t": 24000,
      "d": 663.5416666666679,
      "v": 120
    },
    {
      "midi": 60,
      "hit": false,
      "t": 24249.99999999999,
      "d": 314.58333333333576,
      "v": 120
    },
    {
      "midi": 57,
      "hit": false,
      "t": 24250,
      "d": 189.58333333333212,
      "v": 120
    },
    {
      "midi": 59,
      "hit": false,
      "t": 24375,
      "d": 187.5,
      "v": 120
    },
    {
      "midi": 69,
      "hit": false,
      "t": 24499.99999999999,
      "d": 546.8750000000036,
      "v": 120
    },
    {
      "midi": 60,
      "hit": false,
      "t": 24500,
      "d": 313.5416666666679,
      "v": 120
    },
    {
      "midi": 60,
      "hit": false,
      "t": 24749.999999999993,
      "d": 334.375,
      "v": 120
    },
    {
      "midi": 69,
      "hit": false,
      "t": 24750,
      "d": 890.625,
      "v": 120
    },
    {
      "midi": 52,
      "hit": false,
      "t": 24999.999999999993,
      "d": 663.5416666666679,
      "v": 120
    },
    {
      "midi": 60,
      "hit": false,
      "t": 25000,
      "d": 751.0416666666679,
      "v": 120
    },
    {
      "midi": 41,
      "hit": false,
      "t": 25000,
      "d": 1334.3750000000036,
      "v": 120
    },
    {
      "midi": 57,
      "hit": false,
      "t": 25249.999999999993,
      "d": 189.58333333333212,
      "v": 120
    },
    {
      "midi": 48,
      "hit": false,
      "t": 25250,
      "d": 1211.4583333333358,
      "v": 120
    },
    {
      "midi": 59,
      "hit": false,
      "t": 25374.999999999993,
      "d": 187.5,
      "v": 120
    },
    {
      "midi": 60,
      "hit": false,
      "t": 25499.999999999993,
      "d": 313.5416666666679,
      "v": 120
    },
    {
      "midi": 53,
      "hit": false,
      "t": 25500,
      "d": 336.45833333333576,
      "v": 120
    },
    {
      "midi": 69,
      "hit": false,
      "t": 25749.999999999993,
      "d": 890.625,
      "v": 120
    },
    {
      "midi": 57,
      "hit": false,
      "t": 25750,
      "d": 312.50000000000364,
      "v": 120
    },
    {
      "midi": 60,
      "hit": false,
      "t": 25999.999999999993,
      "d": 751.0416666666679,
      "v": 120
    },
    {
      "midi": 41,
      "hit": false,
      "t": 25999.999999999993,
      "d": 1334.3750000000036,
      "v": 120
    },
    {
      "midi": 53,
      "hit": false,
      "t": 26000.000000000004,
      "d": 523.9583333333321,
      "v": 120
    },
    {
      "midi": 48,
      "hit": false,
      "t": 26249.999999999993,
      "d": 1211.4583333333358,
      "v": 120
    },
    {
      "midi": 57,
      "hit": false,
      "t": 26250.000000000004,
      "d": 247.91666666666424,
      "v": 120
    },
    {
      "midi": 60,
      "hit": false,
      "t": 26250.000000000004,
      "d": 279.16666666666424,
      "v": 120
    },
    {
      "midi": 69,
      "hit": false,
      "t": 26250.000000000004,
      "d": 291.66666666666424,
      "v": 120
    },
    {
      "midi": 53,
      "hit": false,
      "t": 26499.999999999993,
      "d": 336.45833333333576,
      "v": 99
    },
    {
      "midi": 57,
      "hit": false,
      "t": 26749.999999999993,
      "d": 312.50000000000364,
      "v": 99
    },
    {
      "midi": 59,
      "hit": false,
      "t": 26750,
      "d": 593.7500000000036,
      "v": 120
    },
    {
      "midi": 69,
      "hit": false,
      "t": 26750,
      "d": 606.2500000000036,
      "v": 120
    },
    {
      "midi": 62,
      "hit": false,
      "t": 26750,
      "d": 648.9583333333358,
      "v": 120
    },
    {
      "midi": 53,
      "hit": false,
      "t": 26999.999999999996,
      "d": 523.9583333333321,
      "v": 99
    },
    {
      "midi": 55,
      "hit": false,
      "t": 27000,
      "d": 522.9166666666715,
      "v": 120
    },
    {
      "midi": 43,
      "hit": false,
      "t": 27000,
      "d": 1473.9583333333358,
      "v": 120
    },
    {
      "midi": 57,
      "hit": false,
      "t": 27249.999999999996,
      "d": 247.91666666666424,
      "v": 99
    },
    {
      "midi": 60,
      "hit": false,
      "t": 27249.999999999996,
      "d": 279.16666666666424,
      "v": 99
    },
    {
      "midi": 69,
      "hit": false,
      "t": 27249.999999999996,
      "d": 291.66666666666424,
      "v": 99
    },
    {
      "midi": 60,
      "hit": false,
      "t": 27500.000000000004,
      "d": 348.95833333333576,
      "v": 120
    },
    {
      "midi": 69,
      "hit": false,
      "t": 27500.000000000004,
      "d": 366.6666666666679,
      "v": 120
    },
    {
      "midi": 64,
      "hit": false,
      "t": 27500.000000000004,
      "d": 438.5416666666679,
      "v": 120
    },
    {
      "midi": 50,
      "hit": false,
      "t": 27500.000000000004,
      "d": 1038.5416666666642,
      "v": 120
    },
    {
      "midi": 59,
      "hit": false,
      "t": 27749.999999999993,
      "d": 593.7500000000036,
      "v": 98
    },
    {
      "midi": 69,
      "hit": false,
      "t": 27749.999999999993,
      "d": 606.2500000000036,
      "v": 98
    },
    {
      "midi": 62,
      "hit": false,
      "t": 27749.999999999993,
      "d": 648.9583333333358,
      "v": 98
    },
    {
      "midi": 55,
      "hit": false,
      "t": 27999.999999999993,
      "d": 522.9166666666715,
      "v": 98
    },
    {
      "midi": 43,
      "hit": false,
      "t": 27999.999999999993,
      "d": 1473.9583333333358,
      "v": 98
    },
    {
      "midi": 55,
      "hit": false,
      "t": 28000.000000000004,
      "d": 1198.9583333333285,
      "v": 120
    },
    {
      "midi": 60,
      "hit": false,
      "t": 28250.000000000004,
      "d": 328.12499999999636,
      "v": 120
    },
    {
      "midi": 64,
      "hit": false,
      "t": 28250.000000000004,
      "d": 433.3333333333285,
      "v": 120
    },
    {
      "midi": 60,
      "hit": false,
      "t": 28499.999999999996,
      "d": 348.95833333333576,
      "v": 120
    },
    {
      "midi": 69,
      "hit": false,
      "t": 28499.999999999996,
      "d": 366.6666666666679,
      "v": 120
    },
    {
      "midi": 64,
      "hit": false,
      "t": 28499.999999999996,
      "d": 438.5416666666679,
      "v": 120
    },
    {
      "midi": 50,
      "hit": false,
      "t": 28499.999999999996,
      "d": 1038.5416666666642,
      "v": 120
    },
    {
      "midi": 59,
      "hit": false,
      "t": 28750,
      "d": 93.75,
      "v": 120
    },
    {
      "midi": 62,
      "hit": false,
      "t": 28750,
      "d": 121.875,
      "v": 120
    },
    {
      "midi": 55,
      "hit": false,
      "t": 28999.999999999996,
      "d": 1198.9583333333285,
      "v": 97
    },
    {
      "midi": 59,
      "hit": false,
      "t": 29000,
      "d": 317.7083333333321,
      "v": 120
    },
    {
      "midi": 62,
      "hit": false,
      "t": 29000,
      "d": 402.0833333333321,
      "v": 120
    },
    {
      "midi": 45,
      "hit": false,
      "t": 29000,
      "d": 1880.2083333333321,
      "v": 120
    },
    {
      "midi": 60,
      "hit": false,
      "t": 29249.999999999996,
      "d": 328.12499999999636,
      "v": 96
    },
    {
      "midi": 64,
      "hit": false,
      "t": 29249.999999999996,
      "d": 433.3333333333285,
      "v": 96
    },
    {
      "midi": 52,
      "hit": false,
      "t": 29250,
      "d": 489.5833333333321,
      "v": 120
    },
    {
      "midi": 57,
      "hit": false,
      "t": 29500,
      "d": 283.3333333333321,
      "v": 120
    },
    {
      "midi": 59,
      "hit": false,
      "t": 29749.999999999993,
      "d": 93.75,
      "v": 95
    },
    {
      "midi": 62,
      "hit": false,
      "t": 29749.999999999993,
      "d": 121.875,
      "v": 95
    },
    {
      "midi": 64,
      "hit": false,
      "t": 29750,
      "d": 198.95833333333212,
      "v": 120
    },
    {
      "midi": 60,
      "hit": false,
      "t": 29750,
      "d": 277.0833333333321,
      "v": 120
    },
    {
      "midi": 59,
      "hit": false,
      "t": 29999.999999999993,
      "d": 317.7083333333321,
      "v": 95
    },
    {
      "midi": 62,
      "hit": false,
      "t": 29999.999999999993,
      "d": 402.0833333333321,
      "v": 95
    },
    {
      "midi": 45,
      "hit": false,
      "t": 29999.999999999993,
      "d": 1880.2083333333321,
      "v": 95
    },
    {
      "midi": 52,
      "hit": false,
      "t": 30000,
      "d": 456.25,
      "v": 120
    },
    {
      "midi": 52,
      "hit": false,
      "t": 30249.999999999993,
      "d": 489.5833333333321,
      "v": 94
    },
    {
      "midi": 57,
      "hit": false,
      "t": 30250,
      "d": 267.7083333333321,
      "v": 120
    },
    {
      "midi": 71,
      "hit": false,
      "t": 30250,
      "d": 302.0833333333321,
      "v": 120
    },
    {
      "midi": 57,
      "hit": false,
      "t": 30499.999999999993,
      "d": 283.3333333333321,
      "v": 93
    },
    {
      "midi": 69,
      "hit": false,
      "t": 30500,
      "d": 375,
      "v": 120
    },
    {
      "midi": 64,
      "hit": false,
      "t": 30749.999999999993,
      "d": 198.95833333333212,
      "v": 120
    },
    {
      "midi": 60,
      "hit": false,
      "t": 30749.999999999993,
      "d": 277.0833333333321,
      "v": 120
    },
    {
      "midi": 52,
      "hit": false,
      "t": 30750,
      "d": 1836.4583333333321,
      "v": 120
    },
    {
      "midi": 52,
      "hit": false,
      "t": 30999.999999999993,
      "d": 456.25,
      "v": 120
    },
    {
      "midi": 60,
      "hit": false,
      "t": 31000,
      "d": 193.75,
      "v": 120
    },
    {
      "midi": 57,
      "hit": false,
      "t": 31249.999999999993,
      "d": 267.7083333333321,
      "v": 105
    },
    {
      "midi": 71,
      "hit": false,
      "t": 31249.999999999993,
      "d": 302.0833333333321,
      "v": 105
    },
    {
      "midi": 62,
      "hit": false,
      "t": 31250,
      "d": 429.1666666666679,
      "v": 120
    },
    {
      "midi": 69,
      "hit": false,
      "t": 31499.999999999993,
      "d": 375,
      "v": 101
    },
    {
      "midi": 57,
      "hit": false,
      "t": 31500,
      "d": 371.875,
      "v": 120
    },
    {
      "midi": 52,
      "hit": false,
      "t": 31749.999999999993,
      "d": 1836.4583333333358,
      "v": 97
    },
    {
      "midi": 60,
      "hit": false,
      "t": 31750,
      "d": 305.2083333333321,
      "v": 120
    },
    {
      "midi": 60,
      "hit": false,
      "t": 31999.999999999993,
      "d": 193.75,
      "v": 94
    },
    {
      "midi": 64,
      "hit": false,
      "t": 32000,
      "d": 317.7083333333321,
      "v": 120
    },
    {
      "midi": 62,
      "hit": false,
      "t": 32249.999999999993,
      "d": 429.1666666666679,
      "v": 90
    },
    {
      "midi": 60,
      "hit": false,
      "t": 32250,
      "d": 278.125,
      "v": 120
    },
    {
      "midi": 57,
      "hit": false,
      "t": 32499.999999999993,
      "d": 371.875,
      "v": 87
    },
    {
      "midi": 59,
      "hit": false,
      "t": 32500,
      "d": 260.4166666666679,
      "v": 120
    },
    {
      "midi": 60,
      "hit": false,
      "t": 32749.999999999993,
      "d": 305.20833333333576,
      "v": 83
    },
    {
      "midi": 57,
      "hit": false,
      "t": 32750,
      "d": 807.2916666666642,
      "v": 120
    },
    {
      "midi": 64,
      "hit": false,
      "t": 32999.99999999999,
      "d": 317.70833333333576,
      "v": 120
    },
    {
      "midi": 41,
      "hit": false,
      "t": 33000,
      "d": 1511.4583333333285,
      "v": 120
    },
    {
      "midi": 60,
      "hit": false,
      "t": 33249.99999999999,
      "d": 278.125,
      "v": 120
    },
    {
      "midi": 48,
      "hit": false,
      "t": 33250,
      "d": 860.416666666657,
      "v": 120
    },
    {
      "midi": 59,
      "hit": false,
      "t": 33499.99999999999,
      "d": 260.41666666666424,
      "v": 120
    },
    {
      "midi": 53,
      "hit": false,
      "t": 33500,
      "d": 167.70833333332848,
      "v": 120
    },
    {
      "midi": 53,
      "hit": false,
      "t": 33749.99999999999,
      "d": 246.875,
      "v": 120
    },
    {
      "midi": 57,
      "hit": false,
      "t": 33749.99999999999,
      "d": 807.2916666666642,
      "v": 120
    },
    {
      "midi": 57,
      "hit": false,
      "t": 33999.99999999999,
      "d": 292.70833333333576,
      "v": 120
    },
    {
      "midi": 41,
      "hit": false,
      "t": 33999.99999999999,
      "d": 1511.4583333333285,
      "v": 120
    },
    {
      "midi": 60,
      "hit": false,
      "t": 34249.99999999999,
      "d": 448.95833333333576,
      "v": 120
    },
    {
      "midi": 48,
      "hit": false,
      "t": 34249.99999999999,
      "d": 860.416666666657,
      "v": 120
    },
    {
      "midi": 48,
      "hit": false,
      "t": 34499.99999999999,
      "d": 151.04166666667152,
      "v": 120
    },
    {
      "midi": 53,
      "hit": false,
      "t": 34499.99999999999,
      "d": 167.70833333332848,
      "v": 120
    },
    {
      "midi": 53,
      "hit": false,
      "t": 34749.999999999985,
      "d": 246.875,
      "v": 120
    },
    {
      "midi": 57,
      "hit": false,
      "t": 34749.99999999999,
      "d": 505.20833333333576,
      "v": 120
    },
    {
      "midi": 57,
      "hit": false,
      "t": 34999.999999999985,
      "d": 292.70833333333576,
      "v": 120
    },
    {
      "midi": 43,
      "hit": false,
      "t": 34999.99999999999,
      "d": 520.8333333333358,
      "v": 119
    },
    {
      "midi": 60,
      "hit": false,
      "t": 35249.999999999985,
      "d": 448.95833333333576,
      "v": 120
    },
    {
      "midi": 50,
      "hit": false,
      "t": 35249.99999999999,
      "d": 576.0416666666642,
      "v": 119
    },
    {
      "midi": 59,
      "hit": false,
      "t": 35249.99999999999,
      "d": 709.375,
      "v": 119
    },
    {
      "midi": 55,
      "hit": false,
      "t": 35249.99999999999,
      "d": 710.4166666666642,
      "v": 119
    },
    {
      "midi": 48,
      "hit": false,
      "t": 35499.999999999985,
      "d": 151.04166666667152,
      "v": 120
    },
    {
      "midi": 31,
      "hit": false,
      "t": 35499.99999999999,
      "d": 529.1666666666642,
      "v": 119
    },
    {
      "midi": 57,
      "hit": false,
      "t": 35749.999999999985,
      "d": 505.20833333333576,
      "v": 120
    },
    {
      "midi": 43,
      "hit": false,
      "t": 35749.99999999999,
      "d": 487.5,
      "v": 119
    },
    {
      "midi": 43,
      "hit": false,
      "t": 35999.999999999985,
      "d": 520.8333333333358,
      "v": 119
    },
    {
      "midi": 50,
      "hit": false,
      "t": 35999.99999999999,
      "d": 300,
      "v": 119
    },
    {
      "midi": 50,
      "hit": false,
      "t": 36249.999999999985,
      "d": 576.0416666666642,
      "v": 119
    },
    {
      "midi": 59,
      "hit": false,
      "t": 36249.999999999985,
      "d": 709.375,
      "v": 119
    },
    {
      "midi": 55,
      "hit": false,
      "t": 36249.999999999985,
      "d": 710.4166666666642,
      "v": 119
    },
    {
      "midi": 55,
      "hit": false,
      "t": 36249.99999999999,
      "d": 291.66666666666424,
      "v": 119
    },
    {
      "midi": 31,
      "hit": false,
      "t": 36499.999999999985,
      "d": 529.1666666666642,
      "v": 119
    },
    {
      "midi": 59,
      "hit": false,
      "t": 36499.99999999999,
      "d": 292.70833333333576,
      "v": 119
    },
    {
      "midi": 43,
      "hit": false,
      "t": 36749.999999999985,
      "d": 487.5,
      "v": 119
    },
    {
      "midi": 60,
      "hit": false,
      "t": 36749.99999999999,
      "d": 153.125,
      "v": 119
    },
    {
      "midi": 50,
      "hit": false,
      "t": 36999.999999999985,
      "d": 300,
      "v": 119
    },
    {
      "midi": 60,
      "hit": false,
      "t": 36999.99999999999,
      "d": 376.04166666666424,
      "v": 119
    },
    {
      "midi": 45,
      "hit": false,
      "t": 36999.99999999999,
      "d": 2197.9166666666642,
      "v": 119
    },
    {
      "midi": 55,
      "hit": false,
      "t": 37249.999999999985,
      "d": 291.66666666666424,
      "v": 119
    },
    {
      "midi": 52,
      "hit": false,
      "t": 37249.99999999999,
      "d": 2903.1249999999927,
      "v": 119
    },
    {
      "midi": 59,
      "hit": false,
      "t": 37499.999999999985,
      "d": 292.70833333333576,
      "v": 119
    },
    {
      "midi": 57,
      "hit": false,
      "t": 37499.99999999999,
      "d": 2672.916666666657,
      "v": 119
    },
    {
      "midi": 60,
      "hit": false,
      "t": 37749.999999999985,
      "d": 153.125,
      "v": 119
    },
    {
      "midi": 59,
      "hit": false,
      "t": 37749.99999999999,
      "d": 209.375,
      "v": 119
    },
    {
      "midi": 60,
      "hit": false,
      "t": 37874.99999999999,
      "d": 200,
      "v": 119
    },
    {
      "midi": 60,
      "hit": false,
      "t": 37999.999999999985,
      "d": 376.04166666666424,
      "v": 119
    },
    {
      "midi": 45,
      "hit": false,
      "t": 37999.999999999985,
      "d": 2197.9166666666642,
      "v": 119
    },
    {
      "midi": 64,
      "hit": false,
      "t": 37999.99999999999,
      "d": 187.5,
      "v": 119
    },
    {
      "midi": 69,
      "hit": false,
      "t": 37999.99999999999,
      "d": 239.58333333333576,
      "v": 119
    },
    {
      "midi": 52,
      "hit": false,
      "t": 38249.999999999985,
      "d": 2903.1249999999927,
      "v": 119
    },
    {
      "midi": 57,
      "hit": false,
      "t": 38499.999999999985,
      "d": 2672.916666666657,
      "v": 119
    },
    {
      "midi": 59,
      "hit": false,
      "t": 38749.999999999985,
      "d": 209.375,
      "v": 119
    },
    {
      "midi": 71,
      "hit": false,
      "t": 38749.99999999999,
      "d": 161.45833333333576,
      "v": 119
    },
    {
      "midi": 60,
      "hit": false,
      "t": 38874.999999999985,
      "d": 200,
      "v": 119
    },
    {
      "midi": 72,
      "hit": false,
      "t": 38874.99999999999,
      "d": 177.08333333333576,
      "v": 119
    },
    {
      "midi": 64,
      "hit": false,
      "t": 38999.999999999985,
      "d": 187.5,
      "v": 119
    },
    {
      "midi": 69,
      "hit": false,
      "t": 38999.999999999985,
      "d": 239.58333333333576,
      "v": 119
    },
    {
      "midi": 76,
      "hit": false,
      "t": 38999.99999999999,
      "d": 159.375,
      "v": 119
    },
    {
      "midi": 81,
      "hit": false,
      "t": 38999.99999999999,
      "d": 417.7083333333285,
      "v": 119
    },
    {
      "midi": 76,
      "hit": false,
      "t": 39749.999999999985,
      "d": 247.91666666666424,
      "v": 119
    },
    {
      "midi": 71,
      "hit": false,
      "t": 39749.999999999985,
      "d": 161.45833333333576,
      "v": 119
    },
    {
      "midi": 72,
      "hit": false,
      "t": 39874.999999999985,
      "d": 177.08333333333576,
      "v": 119
    },
    {
      "midi": 76,
      "hit": false,
      "t": 39999.999999999985,
      "d": 159.375,
      "v": 119
    },
    {
      "midi": 81,
      "hit": false,
      "t": 39999.999999999985,
      "d": 417.7083333333285,
      "v": 119
    },
    {
      "midi": 76,
      "hit": false,
      "t": 40187.499999999985,
      "d": 94.79166666666424,
      "v": 119
    },
    {
      "midi": 77,
      "hit": false,
      "t": 40312.499999999985,
      "d": 96.875,
      "v": 119
    },
    {
      "midi": 76,
      "hit": false,
      "t": 40374.999999999985,
      "d": 95.83333333333576,
      "v": 119
    },
    {
      "midi": 74,
      "hit": false,
      "t": 40499.999999999985,
      "d": 215.625,
      "v": 119
    },
    {
      "midi": 76,
      "hit": false,
      "t": 40624.999999999985,
      "d": 250,
      "v": 119
    },
    {
      "midi": 76,
      "hit": false,
      "t": 40749.99999999998,
      "d": 247.91666666666424,
      "v": 119
    },
    {
      "midi": 74,
      "hit": false,
      "t": 40749.999999999985,
      "d": 140.625,
      "v": 119
    },
    {
      "midi": 72,
      "hit": false,
      "t": 40874.999999999985,
      "d": 169.79166666667152,
      "v": 119
    },
    {
      "midi": 71,
      "hit": false,
      "t": 40999.999999999985,
      "d": 320.83333333334303,
      "v": 119
    },
    {
      "midi": 76,
      "hit": false,
      "t": 41187.49999999998,
      "d": 94.79166666666424,
      "v": 119
    },
    {
      "midi": 41,
      "hit": false,
      "t": 41249.99999999999,
      "d": 1319.7916666666642,
      "v": 119
    },
    {
      "midi": 77,
      "hit": false,
      "t": 41312.49999999998,
      "d": 96.875,
      "v": 119
    },
    {
      "midi": 76,
      "hit": false,
      "t": 41374.99999999998,
      "d": 95.83333333333576,
      "v": 119
    },
    {
      "midi": 74,
      "hit": false,
      "t": 41499.99999999998,
      "d": 215.625,
      "v": 119
    },
    {
      "midi": 48,
      "hit": false,
      "t": 41499.99999999999,
      "d": 980.2083333333285,
      "v": 119
    },
    {
      "midi": 76,
      "hit": false,
      "t": 41624.99999999998,
      "d": 250,
      "v": 119
    },
    {
      "midi": 74,
      "hit": false,
      "t": 41749.99999999998,
      "d": 140.625,
      "v": 119
    },
    {
      "midi": 53,
      "hit": false,
      "t": 41749.99999999999,
      "d": 1442.7083333333358,
      "v": 119
    },
    {
      "midi": 72,
      "hit": false,
      "t": 41874.99999999998,
      "d": 169.79166666667152,
      "v": 119
    },
    {
      "midi": 71,
      "hit": false,
      "t": 41999.99999999998,
      "d": 320.83333333334303,
      "v": 119
    },
    {
      "midi": 55,
      "hit": false,
      "t": 41999.99999999999,
      "d": 382.29166666666424,
      "v": 119
    },
    {
      "midi": 41,
      "hit": false,
      "t": 42249.999999999985,
      "d": 1319.7916666666642,
      "v": 119
    },
    {
      "midi": 57,
      "hit": false,
      "t": 42249.99999999999,
      "d": 387.5,
      "v": 119
    },
    {
      "midi": 48,
      "hit": false,
      "t": 42499.999999999985,
      "d": 980.2083333333285,
      "v": 119
    },
    {
      "midi": 53,
      "hit": false,
      "t": 42749.999999999985,
      "d": 1442.7083333333358,
      "v": 119
    },
    {
      "midi": 60,
      "hit": false,
      "t": 42749.99999999999,
      "d": 583.3333333333358,
      "v": 119
    },
    {
      "midi": 55,
      "hit": false,
      "t": 42999.999999999985,
      "d": 382.29166666666424,
      "v": 119
    },
    {
      "midi": 43,
      "hit": false,
      "t": 42999.99999999999,
      "d": 1326.0416666666642,
      "v": 119
    },
    {
      "midi": 57,
      "hit": false,
      "t": 43249.999999999985,
      "d": 387.5,
      "v": 119
    },
    {
      "midi": 59,
      "hit": false,
      "t": 43249.99999999999,
      "d": 322.91666666666424,
      "v": 119
    },
    {
      "midi": 50,
      "hit": false,
      "t": 43249.99999999999,
      "d": 1216.6666666666642,
      "v": 119
    },
    {
      "midi": 55,
      "hit": false,
      "t": 43499.99999999999,
      "d": 1558.3333333333358,
      "v": 119
    },
    {
      "midi": 60,
      "hit": false,
      "t": 43749.999999999985,
      "d": 583.3333333333358,
      "v": 83
    },
    {
      "midi": 59,
      "hit": false,
      "t": 43749.99999999999,
      "d": 422.91666666666424,
      "v": 119
    },
    {
      "midi": 43,
      "hit": false,
      "t": 43999.999999999985,
      "d": 1326.0416666666642,
      "v": 83
    },
    {
      "midi": 59,
      "hit": false,
      "t": 44249.999999999985,
      "d": 322.91666666666424,
      "v": 83
    },
    {
      "midi": 50,
      "hit": false,
      "t": 44249.999999999985,
      "d": 1216.6666666666642,
      "v": 83
    },
    {
      "midi": 60,
      "hit": false,
      "t": 44249.99999999999,
      "d": 198.95833333332848,
      "v": 119
    },
    {
      "midi": 55,
      "hit": false,
      "t": 44499.999999999985,
      "d": 1558.3333333333358,
      "v": 83
    },
    {
      "midi": 62,
      "hit": false,
      "t": 44499.99999999999,
      "d": 409.375,
      "v": 119
    },
    {
      "midi": 59,
      "hit": false,
      "t": 44749.999999999985,
      "d": 422.91666666666424,
      "v": 119
    },
    {
      "midi": 60,
      "hit": false,
      "t": 44749.99999999999,
      "d": 158.33333333333576,
      "v": 119
    },
    {
      "midi": 59,
      "hit": false,
      "t": 44874.99999999999,
      "d": 130.20833333333576,
      "v": 119
    },
    {
      "midi": 60,
      "hit": false,
      "t": 44999.99999999999,
      "d": 469.79166666666424,
      "v": 119
    },
    {
      "midi": 45,
      "hit": false,
      "t": 44999.99999999999,
      "d": 1331.25,
      "v": 119
    },
    {
      "midi": 60,
      "hit": false,
      "t": 45249.999999999985,
      "d": 198.95833333332848,
      "v": 119
    },
    {
      "midi": 52,
      "hit": false,
      "t": 45249.99999999999,
      "d": 659.375,
      "v": 119
    },
    {
      "midi": 62,
      "hit": false,
      "t": 45499.999999999985,
      "d": 409.375,
      "v": 119
    },
    {
      "midi": 57,
      "hit": false,
      "t": 45499.99999999999,
      "d": 279.16666666666424,
      "v": 119
    },
    {
      "midi": 60,
      "hit": false,
      "t": 45749.999999999985,
      "d": 158.33333333333576,
      "v": 119
    },
    {
      "midi": 60,
      "hit": false,
      "t": 45749.99999999999,
      "d": 435.41666666666424,
      "v": 119
    },
    {
      "midi": 59,
      "hit": false,
      "t": 45874.999999999985,
      "d": 130.20833333333576,
      "v": 119
    },
    {
      "midi": 60,
      "hit": false,
      "t": 45999.999999999985,
      "d": 469.79166666666424,
      "v": 119
    },
    {
      "midi": 45,
      "hit": false,
      "t": 45999.999999999985,
      "d": 1331.25,
      "v": 119
    },
    {
      "midi": 52,
      "hit": false,
      "t": 46249.999999999985,
      "d": 659.375,
      "v": 119
    },
    {
      "midi": 59,
      "hit": false,
      "t": 46249.99999999999,
      "d": 810.4166666666642,
      "v": 119
    },
    {
      "midi": 57,
      "hit": false,
      "t": 46499.999999999985,
      "d": 279.16666666666424,
      "v": 91
    },
    {
      "midi": 55,
      "hit": false,
      "t": 46499.99999999999,
      "d": 500,
      "v": 119
    },
    {
      "midi": 43,
      "hit": false,
      "t": 46499.99999999999,
      "d": 937.5,
      "v": 119
    },
    {
      "midi": 60,
      "hit": false,
      "t": 46749.999999999985,
      "d": 435.41666666666424,
      "v": 90
    },
    {
      "midi": 57,
      "hit": false,
      "t": 46999.99999999999,
      "d": 464.58333333333576,
      "v": 119
    },
    {
      "midi": 53,
      "hit": false,
      "t": 46999.99999999999,
      "d": 739.5833333333358,
      "v": 119
    },
    {
      "midi": 41,
      "hit": false,
      "t": 46999.99999999999,
      "d": 1369.7916666666642,
      "v": 119
    },
    {
      "midi": 59,
      "hit": false,
      "t": 47249.999999999985,
      "d": 810.4166666666642,
      "v": 86
    },
    {
      "midi": 55,
      "hit": false,
      "t": 47499.999999999985,
      "d": 500,
      "v": 84
    },
    {
      "midi": 43,
      "hit": false,
      "t": 47499.999999999985,
      "d": 937.5,
      "v": 84
    },
    {
      "midi": 48,
      "hit": false,
      "t": 47749.99999999999,
      "d": 701.0416666666642,
      "v": 119
    },
    {
      "midi": 57,
      "hit": false,
      "t": 47999.999999999985,
      "d": 464.58333333333576,
      "v": 95
    },
    {
      "midi": 53,
      "hit": false,
      "t": 47999.999999999985,
      "d": 739.5833333333358,
      "v": 95
    },
    {
      "midi": 41,
      "hit": false,
      "t": 47999.999999999985,
      "d": 1369.7916666666642,
      "v": 95
    },
    {
      "midi": 57,
      "hit": false,
      "t": 47999.99999999999,
      "d": 413.54166666666424,
      "v": 119
    },
    {
      "midi": 69,
      "hit": false,
      "t": 47999.99999999999,
      "d": 423.9583333333285,
      "v": 119
    },
    {
      "midi": 60,
      "hit": false,
      "t": 47999.99999999999,
      "d": 445.8333333333285,
      "v": 119
    },
    {
      "midi": 53,
      "hit": false,
      "t": 47999.99999999999,
      "d": 537.5,
      "v": 119
    },
    {
      "midi": 48,
      "hit": false,
      "t": 48749.999999999985,
      "d": 701.0416666666642,
      "v": 97
    },
    {
      "midi": 57,
      "hit": false,
      "t": 48999.999999999985,
      "d": 413.54166666666424,
      "v": 98
    },
    {
      "midi": 69,
      "hit": false,
      "t": 48999.999999999985,
      "d": 423.9583333333285,
      "v": 98
    },
    {
      "midi": 60,
      "hit": false,
      "t": 48999.999999999985,
      "d": 445.8333333333285,
      "v": 98
    },
    {
      "midi": 53,
      "hit": false,
      "t": 48999.999999999985,
      "d": 537.5,
      "v": 98
    },
    {
      "midi": 71,
      "hit": false,
      "t": 48999.99999999999,
      "d": 397.91666666666424,
      "v": 119
    },
    {
      "midi": 59,
      "hit": false,
      "t": 48999.99999999999,
      "d": 416.66666666666424,
      "v": 119
    },
    {
      "midi": 62,
      "hit": false,
      "t": 48999.99999999999,
      "d": 442.7083333333285,
      "v": 119
    },
    {
      "midi": 55,
      "hit": false,
      "t": 48999.99999999999,
      "d": 474.9999999999927,
      "v": 119
    },
    {
      "midi": 43,
      "hit": false,
      "t": 48999.99999999999,
      "d": 1564.5833333333285,
      "v": 119
    },
    {
      "midi": 71,
      "hit": false,
      "t": 49749.999999999985,
      "d": 297.91666666666424,
      "v": 119
    },
    {
      "midi": 62,
      "hit": false,
      "t": 49749.999999999985,
      "d": 346.875,
      "v": 119
    },
    {
      "midi": 59,
      "hit": false,
      "t": 49749.999999999985,
      "d": 376.04166666666424,
      "v": 119
    },
    {
      "midi": 55,
      "hit": false,
      "t": 49999.999999999985,
      "d": 204.16666666666424,
      "v": 119
    },
    {
      "midi": 71,
      "hit": false,
      "t": 49999.999999999985,
      "d": 397.91666666666424,
      "v": 119
    },
    {
      "midi": 59,
      "hit": false,
      "t": 49999.999999999985,
      "d": 416.66666666666424,
      "v": 119
    },
    {
      "midi": 62,
      "hit": false,
      "t": 49999.999999999985,
      "d": 442.7083333333285,
      "v": 119
    },
    {
      "midi": 55,
      "hit": false,
      "t": 49999.999999999985,
      "d": 474.9999999999927,
      "v": 119
    },
    {
      "midi": 43,
      "hit": false,
      "t": 49999.999999999985,
      "d": 1564.5833333333285,
      "v": 119
    },
    {
      "midi": 55,
      "hit": false,
      "t": 50499.999999999985,
      "d": 225,
      "v": 119
    },
    {
      "midi": 59,
      "hit": false,
      "t": 50499.999999999985,
      "d": 279.16666666666424,
      "v": 119
    },
    {
      "midi": 71,
      "hit": false,
      "t": 50749.99999999998,
      "d": 297.91666666666424,
      "v": 119
    },
    {
      "midi": 62,
      "hit": false,
      "t": 50749.99999999998,
      "d": 346.875,
      "v": 119
    },
    {
      "midi": 59,
      "hit": false,
      "t": 50749.99999999998,
      "d": 376.04166666666424,
      "v": 119
    },
    {
      "midi": 55,
      "hit": false,
      "t": 50999.99999999998,
      "d": 204.16666666666424,
      "v": 119
    },
    {
      "midi": 57,
      "hit": false,
      "t": 50999.999999999985,
      "d": 253.125,
      "v": 119
    },
    {
      "midi": 60,
      "hit": false,
      "t": 50999.999999999985,
      "d": 364.58333333333576,
      "v": 119
    },
    {
      "midi": 45,
      "hit": false,
      "t": 50999.999999999985,
      "d": 964.5833333333358,
      "v": 119
    },
    {
      "midi": 52,
      "hit": false,
      "t": 51249.999999999985,
      "d": 602.0833333333358,
      "v": 119
    },
    {
      "midi": 55,
      "hit": false,
      "t": 51499.99999999998,
      "d": 225,
      "v": 94
    },
    {
      "midi": 59,
      "hit": false,
      "t": 51499.99999999998,
      "d": 279.16666666666424,
      "v": 94
    },
    {
      "midi": 57,
      "hit": false,
      "t": 51499.999999999985,
      "d": 220.83333333333576,
      "v": 119
    },
    {
      "midi": 59,
      "hit": false,
      "t": 51749.999999999985,
      "d": 531.25,
      "v": 119
    },
    {
      "midi": 57,
      "hit": false,
      "t": 51999.99999999998,
      "d": 253.125,
      "v": 93
    },
    {
      "midi": 60,
      "hit": false,
      "t": 51999.99999999998,
      "d": 364.58333333333576,
      "v": 93
    },
    {
      "midi": 45,
      "hit": false,
      "t": 51999.99999999998,
      "d": 964.5833333333358,
      "v": 93
    },
    {
      "midi": 52,
      "hit": false,
      "t": 52249.99999999998,
      "d": 602.0833333333358,
      "v": 93
    },
    {
      "midi": 55,
      "hit": false,
      "t": 52249.999999999985,
      "d": 208.33333333333576,
      "v": 119
    },
    {
      "midi": 43,
      "hit": false,
      "t": 52249.999999999985,
      "d": 262.5,
      "v": 119
    },
    {
      "midi": 57,
      "hit": false,
      "t": 52249.999999999985,
      "d": 284.375,
      "v": 119
    },
    {
      "midi": 57,
      "hit": false,
      "t": 52499.99999999998,
      "d": 220.83333333333576,
      "v": 92
    },
    {
      "midi": 59,
      "hit": false,
      "t": 52749.99999999998,
      "d": 531.25,
      "v": 92
    },
    {
      "midi": 59,
      "hit": false,
      "t": 52749.999999999985,
      "d": 857.2916666666715,
      "v": 119
    },
    {
      "midi": 53,
      "hit": false,
      "t": 52999.999999999985,
      "d": 765.6250000000073,
      "v": 119
    },
    {
      "midi": 41,
      "hit": false,
      "t": 52999.999999999985,
      "d": 3423.9583333333358,
      "v": 119
    },
    {
      "midi": 55,
      "hit": false,
      "t": 53249.99999999998,
      "d": 208.33333333333576,
      "v": 119
    },
    {
      "midi": 43,
      "hit": false,
      "t": 53249.99999999998,
      "d": 262.5,
      "v": 119
    },
    {
      "midi": 57,
      "hit": false,
      "t": 53249.99999999998,
      "d": 284.375,
      "v": 119
    },
    {
      "midi": 60,
      "hit": false,
      "t": 53499.99999999999,
      "d": 265.625,
      "v": 119
    },
    {
      "midi": 59,
      "hit": false,
      "t": 53749.99999999998,
      "d": 857.2916666666715,
      "v": 119
    },
    {
      "midi": 55,
      "hit": false,
      "t": 53749.99999999999,
      "d": 341.66666666666424,
      "v": 119
    },
    {
      "midi": 53,
      "hit": false,
      "t": 53999.99999999998,
      "d": 765.6250000000073,
      "v": 119
    },
    {
      "midi": 41,
      "hit": false,
      "t": 53999.99999999998,
      "d": 3423.9583333333358,
      "v": 119
    },
    {
      "midi": 48,
      "hit": false,
      "t": 53999.99999999999,
      "d": 2517.7083333333285,
      "v": 119
    },
    {
      "midi": 53,
      "hit": false,
      "t": 54249.99999999999,
      "d": 1151.0416666666642,
      "v": 119
    },
    {
      "midi": 60,
      "hit": false,
      "t": 54499.999999999985,
      "d": 265.625,
      "v": 119
    },
    {
      "midi": 55,
      "hit": false,
      "t": 54499.99999999999,
      "d": 575,
      "v": 119
    },
    {
      "midi": 55,
      "hit": false,
      "t": 54749.999999999985,
      "d": 341.66666666666424,
      "v": 119
    },
    {
      "midi": 48,
      "hit": false,
      "t": 54999.999999999985,
      "d": 2517.7083333333285,
      "v": 119
    },
    {
      "midi": 53,
      "hit": false,
      "t": 55249.999999999985,
      "d": 1151.0416666666642,
      "v": 119
    },
    {
      "midi": 55,
      "hit": false,
      "t": 55249.99999999999,
      "d": 372.91666666666424,
      "v": 119
    },
    {
      "midi": 55,
      "hit": false,
      "t": 55499.999999999985,
      "d": 575,
      "v": 119
    },
    {
      "midi": 53,
      "hit": false,
      "t": 55749.99999999999,
      "d": 454.16666666666424,
      "v": 119
    },
    {
      "midi": 55,
      "hit": false,
      "t": 55999.99999999999,
      "d": 276.04166666666424,
      "v": 119
    },
    {
      "midi": 55,
      "hit": false,
      "t": 56249.999999999985,
      "d": 372.91666666666424,
      "v": 119
    },
    {
      "midi": 57,
      "hit": false,
      "t": 56249.99999999999,
      "d": 317.7083333333285,
      "v": 119
    },
    {
      "midi": 60,
      "hit": false,
      "t": 56499.999999999985,
      "d": 177.08333333333576,
      "v": 119
    },
    {
      "midi": 53,
      "hit": false,
      "t": 56749.999999999985,
      "d": 454.16666666666424,
      "v": 119
    },
    {
      "midi": 53,
      "hit": false,
      "t": 56999.999999999985,
      "d": 445.83333333333576,
      "v": 119
    },
    {
      "midi": 38,
      "hit": false,
      "t": 56999.999999999985,
      "d": 461.45833333333576,
      "v": 119
    },
    {
      "midi": 62,
      "hit": false,
      "t": 56999.999999999985,
      "d": 469.7916666666715,
      "v": 119
    },
    {
      "midi": 57,
      "hit": false,
      "t": 56999.999999999985,
      "d": 475.0000000000073,
      "v": 119
    },
    {
      "midi": 50,
      "hit": false,
      "t": 56999.999999999985,
      "d": 511.45833333334303,
      "v": 119
    },
    {
      "midi": 55,
      "hit": false,
      "t": 56999.999999999985,
      "d": 276.04166666666424,
      "v": 119
    },
    {
      "midi": 57,
      "hit": false,
      "t": 57249.999999999985,
      "d": 317.7083333333285,
      "v": 119
    },
    {
      "midi": 60,
      "hit": false,
      "t": 57499.99999999998,
      "d": 177.08333333333576,
      "v": 85
    },
    {
      "midi": 40,
      "hit": false,
      "t": 57749.99999999999,
      "d": 469.79166666666424,
      "v": 119
    },
    {
      "midi": 55,
      "hit": false,
      "t": 57749.99999999999,
      "d": 470.8333333333285,
      "v": 119
    },
    {
      "midi": 52,
      "hit": false,
      "t": 57749.99999999999,
      "d": 499.9999999999927,
      "v": 119
    },
    {
      "midi": 62,
      "hit": false,
      "t": 57749.99999999999,
      "d": 501.04166666665697,
      "v": 119
    },
    {
      "midi": 59,
      "hit": false,
      "t": 57749.99999999999,
      "d": 541.666666666657,
      "v": 119
    },
    {
      "midi": 53,
      "hit": false,
      "t": 57999.99999999998,
      "d": 445.83333333333576,
      "v": 86
    },
    {
      "midi": 38,
      "hit": false,
      "t": 57999.99999999998,
      "d": 461.45833333333576,
      "v": 86
    },
    {
      "midi": 62,
      "hit": false,
      "t": 57999.99999999998,
      "d": 469.7916666666715,
      "v": 86
    },
    {
      "midi": 57,
      "hit": false,
      "t": 57999.99999999998,
      "d": 475.0000000000073,
      "v": 86
    },
    {
      "midi": 50,
      "hit": false,
      "t": 57999.99999999998,
      "d": 511.45833333334303,
      "v": 86
    },
    {
      "midi": 57,
      "hit": false,
      "t": 58499.999999999985,
      "d": 503.125,
      "v": 119
    },
    {
      "midi": 62,
      "hit": false,
      "t": 58499.999999999985,
      "d": 517.7083333333358,
      "v": 119
    },
    {
      "midi": 41,
      "hit": false,
      "t": 58499.999999999985,
      "d": 1126.0416666666642,
      "v": 119
    },
    {
      "midi": 53,
      "hit": false,
      "t": 58499.999999999985,
      "d": 1151.0416666666642,
      "v": 119
    },
    {
      "midi": 40,
      "hit": false,
      "t": 58749.999999999985,
      "d": 469.79166666666424,
      "v": 88
    },
    {
      "midi": 55,
      "hit": false,
      "t": 58749.999999999985,
      "d": 470.8333333333285,
      "v": 88
    },
    {
      "midi": 52,
      "hit": false,
      "t": 58749.999999999985,
      "d": 499.9999999999927,
      "v": 88
    },
    {
      "midi": 62,
      "hit": false,
      "t": 58749.999999999985,
      "d": 501.04166666665697,
      "v": 88
    },
    {
      "midi": 59,
      "hit": false,
      "t": 58749.999999999985,
      "d": 541.666666666657,
      "v": 88
    },
    {
      "midi": 59,
      "hit": false,
      "t": 59249.999999999985,
      "d": 434.375,
      "v": 118
    },
    {
      "midi": 57,
      "hit": false,
      "t": 59499.99999999998,
      "d": 503.125,
      "v": 89
    },
    {
      "midi": 62,
      "hit": false,
      "t": 59499.99999999998,
      "d": 517.7083333333358,
      "v": 89
    },
    {
      "midi": 41,
      "hit": false,
      "t": 59499.99999999998,
      "d": 1126.0416666666642,
      "v": 89
    },
    {
      "midi": 53,
      "hit": false,
      "t": 59499.99999999998,
      "d": 1151.0416666666642,
      "v": 89
    },
    {
      "midi": 59,
      "hit": false,
      "t": 59999.999999999985,
      "d": 465.625,
      "v": 118
    },
    {
      "midi": 43,
      "hit": false,
      "t": 59999.999999999985,
      "d": 508.33333333333576,
      "v": 118
    },
    {
      "midi": 55,
      "hit": false,
      "t": 59999.999999999985,
      "d": 541.6666666666715,
      "v": 118
    },
    {
      "midi": 59,
      "hit": false,
      "t": 60249.99999999998,
      "d": 434.375,
      "v": 91
    },
    {
      "midi": 60,
      "hit": false,
      "t": 60499.999999999985,
      "d": 355.20833333333576,
      "v": 118
    },
    {
      "midi": 59,
      "hit": false,
      "t": 60999.99999999998,
      "d": 465.625,
      "v": 98
    },
    {
      "midi": 43,
      "hit": false,
      "t": 60999.99999999998,
      "d": 508.33333333333576,
      "v": 98
    },
    {
      "midi": 55,
      "hit": false,
      "t": 60999.99999999998,
      "d": 541.6666666666715,
      "v": 98
    },
    {
      "midi": 57,
      "hit": false,
      "t": 60999.999999999985,
      "d": 609.375,
      "v": 118
    },
    {
      "midi": 45,
      "hit": false,
      "t": 60999.999999999985,
      "d": 1713.5416666666715,
      "v": 118
    },
    {
      "midi": 52,
      "hit": false,
      "t": 60999.999999999985,
      "d": 3500.0000000000073,
      "v": 118
    },
    {
      "midi": 60,
      "hit": false,
      "t": 61499.99999999998,
      "d": 355.20833333333576,
      "v": 100
    },
    {
      "midi": 57,
      "hit": false,
      "t": 61749.999999999985,
      "d": 778.125,
      "v": 118
    },
    {
      "midi": 57,
      "hit": false,
      "t": 61999.99999999998,
      "d": 609.375,
      "v": 118
    },
    {
      "midi": 45,
      "hit": false,
      "t": 61999.99999999998,
      "d": 1713.5416666666715,
      "v": 118
    },
    {
      "midi": 52,
      "hit": false,
      "t": 61999.99999999998,
      "d": 3500.0000000000073,
      "v": 118
    },
    {
      "midi": 60,
      "hit": false,
      "t": 61999.999999999985,
      "d": 310.41666666666424,
      "v": 118
    },
    {
      "midi": 64,
      "hit": false,
      "t": 62249.999999999985,
      "d": 305.20833333333576,
      "v": 118
    },
    {
      "midi": 71,
      "hit": false,
      "t": 62499.999999999985,
      "d": 312.5000000000073,
      "v": 118
    },
    {
      "midi": 57,
      "hit": false,
      "t": 62749.99999999998,
      "d": 778.125,
      "v": 118
    },
    {
      "midi": 60,
      "hit": false,
      "t": 62999.99999999998,
      "d": 310.41666666666424,
      "v": 118
    },
    {
      "midi": 60,
      "hit": false,
      "t": 62999.99999999999,
      "d": 422.91666666666424,
      "v": 118
    },
    {
      "midi": 64,
      "hit": false,
      "t": 63249.99999999998,
      "d": 305.20833333333576,
      "v": 118
    },
    {
      "midi": 69,
      "hit": false,
      "t": 63249.99999999999,
      "d": 345.83333333333576,
      "v": 118
    },
    {
      "midi": 71,
      "hit": false,
      "t": 63499.99999999998,
      "d": 312.5000000000073,
      "v": 118
    },
    {
      "midi": 67,
      "hit": false,
      "t": 63499.99999999999,
      "d": 319.79166666666424,
      "v": 118
    },
    {
      "midi": 57,
      "hit": false,
      "t": 63749.99999999999,
      "d": 1028.125,
      "v": 118
    },
    {
      "midi": 60,
      "hit": false,
      "t": 63999.999999999985,
      "d": 422.91666666666424,
      "v": 118
    },
    {
      "midi": 60,
      "hit": false,
      "t": 63999.99999999999,
      "d": 289.58333333333576,
      "v": 118
    },
    {
      "midi": 69,
      "hit": false,
      "t": 64249.999999999985,
      "d": 345.83333333333576,
      "v": 93
    },
    {
      "midi": 62,
      "hit": false,
      "t": 64249.99999999999,
      "d": 322.91666666666424,
      "v": 118
    },
    {
      "midi": 67,
      "hit": false,
      "t": 64499.999999999985,
      "d": 319.79166666666424,
      "v": 93
    },
    {
      "midi": 65,
      "hit": false,
      "t": 64499.99999999999,
      "d": 355.20833333333576,
      "v": 118
    },
    {
      "midi": 57,
      "hit": false,
      "t": 64749.999999999985,
      "d": 1028.125,
      "v": 93
    },
    {
      "midi": 62,
      "hit": false,
      "t": 64749.99999999999,
      "d": 313.5416666666715,
      "v": 118
    },
    {
      "midi": 60,
      "hit": false,
      "t": 64999.999999999985,
      "d": 289.58333333333576,
      "v": 93
    },
    {
      "midi": 64,
      "hit": false,
      "t": 64999.99999999999,
      "d": 318.7500000000073,
      "v": 118
    },
    {
      "midi": 41,
      "hit": false,
      "t": 64999.99999999999,
      "d": 1312.5000000000073,
      "v": 118
    },
    {
      "midi": 62,
      "hit": false,
      "t": 65249.999999999985,
      "d": 322.9166666666715,
      "v": 93
    },
    {
      "midi": 48,
      "hit": false,
      "t": 65250,
      "d": 1258.3333333333285,
      "v": 118
    },
    {
      "midi": 65,
      "hit": false,
      "t": 65499.999999999985,
      "d": 355.2083333333285,
      "v": 118
    },
    {
      "midi": 53,
      "hit": false,
      "t": 65500,
      "d": 1527.0833333333285,
      "v": 118
    },
    {
      "midi": 62,
      "hit": false,
      "t": 65749.99999999999,
      "d": 313.54166666665697,
      "v": 118
    },
    {
      "midi": 57,
      "hit": false,
      "t": 65750,
      "d": 359.375,
      "v": 118
    },
    {
      "midi": 64,
      "hit": false,
      "t": 65999.99999999999,
      "d": 318.74999999998545,
      "v": 118
    },
    {
      "midi": 41,
      "hit": false,
      "t": 65999.99999999999,
      "d": 1312.4999999999854,
      "v": 118
    },
    {
      "midi": 60,
      "hit": false,
      "t": 66000,
      "d": 296.875,
      "v": 118
    },
    {
      "midi": 48,
      "hit": false,
      "t": 66249.99999999997,
      "d": 1258.3333333333285,
      "v": 118
    },
    {
      "midi": 69,
      "hit": false,
      "t": 66250,
      "d": 445.8333333333285,
      "v": 118
    },
    {
      "midi": 53,
      "hit": false,
      "t": 66499.99999999997,
      "d": 1527.0833333333285,
      "v": 118
    },
    {
      "midi": 57,
      "hit": false,
      "t": 66749.99999999997,
      "d": 359.375,
      "v": 118
    },
    {
      "midi": 69,
      "hit": false,
      "t": 66750,
      "d": 512.5,
      "v": 118
    },
    {
      "midi": 60,
      "hit": false,
      "t": 66999.99999999997,
      "d": 296.875,
      "v": 118
    },
    {
      "midi": 43,
      "hit": false,
      "t": 67000,
      "d": 1300,
      "v": 118
    },
    {
      "midi": 69,
      "hit": false,
      "t": 67249.99999999997,
      "d": 445.8333333333285,
      "v": 118
    },
    {
      "midi": 67,
      "hit": false,
      "t": 67250,
      "d": 279.1666666666715,
      "v": 118
    },
    {
      "midi": 50,
      "hit": false,
      "t": 67250,
      "d": 1192.7083333333285,
      "v": 118
    },
    {
      "midi": 55,
      "hit": false,
      "t": 67500,
      "d": 1456.25,
      "v": 118
    },
    {
      "midi": 69,
      "hit": false,
      "t": 67749.99999999997,
      "d": 512.5,
      "v": 118
    },
    {
      "midi": 57,
      "hit": false,
      "t": 67750,
      "d": 329.1666666666715,
      "v": 118
    },
    {
      "midi": 43,
      "hit": false,
      "t": 67999.99999999997,
      "d": 1300,
      "v": 118
    },
    {
      "midi": 67,
      "hit": false,
      "t": 68249.99999999997,
      "d": 279.1666666666715,
      "v": 118
    },
    {
      "midi": 50,
      "hit": false,
      "t": 68249.99999999997,
      "d": 1192.7083333333285,
      "v": 118
    },
    {
      "midi": 59,
      "hit": false,
      "t": 68250,
      "d": 370.8333333333285,
      "v": 118
    },
    {
      "midi": 55,
      "hit": false,
      "t": 68499.99999999997,
      "d": 1456.25,
      "v": 118
    },
    {
      "midi": 57,
      "hit": false,
      "t": 68749.99999999997,
      "d": 329.1666666666715,
      "v": 118
    },
    {
      "midi": 59,
      "hit": false,
      "t": 68875,
      "d": 47.91666666667152,
      "v": 118
    },
    {
      "midi": 60,
      "hit": false,
      "t": 68937.5,
      "d": 88.54166666667152,
      "v": 118
    },
    {
      "midi": 59,
      "hit": false,
      "t": 69000,
      "d": 489.5833333333285,
      "v": 118
    },
    {
      "midi": 45,
      "hit": false,
      "t": 69000,
      "d": 1843.75,
      "v": 118
    },
    {
      "midi": 59,
      "hit": false,
      "t": 69249.99999999997,
      "d": 370.8333333333285,
      "v": 118
    },
    {
      "midi": 52,
      "hit": false,
      "t": 69250,
      "d": 689.5833333333285,
      "v": 118
    },
    {
      "midi": 57,
      "hit": false,
      "t": 69500,
      "d": 258.3333333333285,
      "v": 118
    },
    {
      "midi": 59,
      "hit": false,
      "t": 69750,
      "d": 562.5,
      "v": 118
    },
    {
      "midi": 59,
      "hit": false,
      "t": 69874.99999999997,
      "d": 47.91666666667152,
      "v": 118
    },
    {
      "midi": 60,
      "hit": false,
      "t": 69937.49999999997,
      "d": 88.54166666667152,
      "v": 118
    },
    {
      "midi": 59,
      "hit": false,
      "t": 69999.99999999997,
      "d": 489.5833333333285,
      "v": 118
    },
    {
      "midi": 45,
      "hit": false,
      "t": 69999.99999999997,
      "d": 1843.75,
      "v": 118
    },
    {
      "midi": 52,
      "hit": false,
      "t": 70249.99999999997,
      "d": 689.5833333333285,
      "v": 118
    },
    {
      "midi": 57,
      "hit": false,
      "t": 70250,
      "d": 386.4583333333285,
      "v": 118
    },
    {
      "midi": 57,
      "hit": false,
      "t": 70499.99999999997,
      "d": 258.3333333333285,
      "v": 118
    },
    {
      "midi": 52,
      "hit": false,
      "t": 70500,
      "d": 507.2916666666715,
      "v": 118
    },
    {
      "midi": 59,
      "hit": false,
      "t": 70749.99999999997,
      "d": 562.5,
      "v": 118
    },
    {
      "midi": 60,
      "hit": false,
      "t": 70750,
      "d": 307.2916666666715,
      "v": 118
    },
    {
      "midi": 64,
      "hit": false,
      "t": 71000,
      "d": 370.8333333333285,
      "v": 118
    },
    {
      "midi": 45,
      "hit": false,
      "t": 71000,
      "d": 1006.25,
      "v": 118
    },
    {
      "midi": 57,
      "hit": false,
      "t": 71249.99999999997,
      "d": 386.4583333333285,
      "v": 118
    },
    {
      "midi": 52,
      "hit": false,
      "t": 71250,
      "d": 485.4166666666715,
      "v": 118
    },
    {
      "midi": 52,
      "hit": false,
      "t": 71499.99999999997,
      "d": 507.2916666666715,
      "v": 118
    },
    {
      "midi": 57,
      "hit": false,
      "t": 71500,
      "d": 122.91666666667152,
      "v": 118
    },
    {
      "midi": 60,
      "hit": false,
      "t": 71749.99999999997,
      "d": 307.2916666666715,
      "v": 118
    },
    {
      "midi": 60,
      "hit": false,
      "t": 71750,
      "d": 481.25,
      "v": 118
    },
    {
      "midi": 64,
      "hit": false,
      "t": 71999.99999999997,
      "d": 370.8333333333285,
      "v": 118
    },
    {
      "midi": 45,
      "hit": false,
      "t": 71999.99999999997,
      "d": 1006.25,
      "v": 118
    },
    {
      "midi": 52,
      "hit": false,
      "t": 72000,
      "d": 502.0833333333285,
      "v": 118
    },
    {
      "midi": 52,
      "hit": false,
      "t": 72249.99999999997,
      "d": 485.4166666666715,
      "v": 118
    },
    {
      "midi": 64,
      "hit": false,
      "t": 72250,
      "d": 305.2083333333285,
      "v": 118
    },
    {
      "midi": 57,
      "hit": false,
      "t": 72499.99999999997,
      "d": 122.91666666667152,
      "v": 118
    },
    {
      "midi": 62,
      "hit": false,
      "t": 72500,
      "d": 293.75,
      "v": 118
    },
    {
      "midi": 60,
      "hit": false,
      "t": 72749.99999999997,
      "d": 481.25,
      "v": 118
    },
    {
      "midi": 60,
      "hit": false,
      "t": 72750,
      "d": 230.20833333332848,
      "v": 118
    },
    {
      "midi": 52,
      "hit": false,
      "t": 72999.99999999997,
      "d": 502.0833333333285,
      "v": 118
    },
    {
      "midi": 60,
      "hit": false,
      "t": 73000,
      "d": 432.2916666666715,
      "v": 118
    },
    {
      "midi": 57,
      "hit": false,
      "t": 73000,
      "d": 505.2083333333285,
      "v": 118
    },
    {
      "midi": 41,
      "hit": false,
      "t": 73000,
      "d": 1522.9166666666715,
      "v": 118
    },
    {
      "midi": 64,
      "hit": false,
      "t": 73249.99999999997,
      "d": 305.2083333333285,
      "v": 118
    },
    {
      "midi": 48,
      "hit": false,
      "t": 73250,
      "d": 1453.125,
      "v": 118
    },
    {
      "midi": 62,
      "hit": false,
      "t": 73499.99999999997,
      "d": 293.75,
      "v": 118
    },
    {
      "midi": 53,
      "hit": false,
      "t": 73500,
      "d": 750,
      "v": 118
    },
    {
      "midi": 60,
      "hit": false,
      "t": 73749.99999999997,
      "d": 230.20833333332848,
      "v": 118
    },
    {
      "midi": 57,
      "hit": false,
      "t": 73750,
      "d": 312.5,
      "v": 118
    },
    {
      "midi": 69,
      "hit": false,
      "t": 73750,
      "d": 318.75,
      "v": 118
    },
    {
      "midi": 60,
      "hit": false,
      "t": 73750,
      "d": 361.4583333333285,
      "v": 118
    },
    {
      "midi": 60,
      "hit": false,
      "t": 73999.99999999997,
      "d": 432.2916666666715,
      "v": 118
    },
    {
      "midi": 57,
      "hit": false,
      "t": 73999.99999999997,
      "d": 505.2083333333285,
      "v": 118
    },
    {
      "midi": 41,
      "hit": false,
      "t": 73999.99999999997,
      "d": 1522.9166666666715,
      "v": 118
    },
    {
      "midi": 48,
      "hit": false,
      "t": 74249.99999999997,
      "d": 1453.125,
      "v": 118
    },
    {
      "midi": 57,
      "hit": false,
      "t": 74250,
      "d": 318.75,
      "v": 118
    },
    {
      "midi": 60,
      "hit": false,
      "t": 74250,
      "d": 383.3333333333285,
      "v": 118
    },
    {
      "midi": 53,
      "hit": false,
      "t": 74499.99999999997,
      "d": 750,
      "v": 118
    },
    {
      "midi": 53,
      "hit": false,
      "t": 74500,
      "d": 272.9166666666715,
      "v": 118
    },
    {
      "midi": 57,
      "hit": false,
      "t": 74749.99999999997,
      "d": 312.5,
      "v": 90
    },
    {
      "midi": 69,
      "hit": false,
      "t": 74749.99999999997,
      "d": 318.75,
      "v": 90
    },
    {
      "midi": 60,
      "hit": false,
      "t": 74749.99999999997,
      "d": 361.4583333333285,
      "v": 90
    },
    {
      "midi": 59,
      "hit": false,
      "t": 74750,
      "d": 565.625,
      "v": 118
    },
    {
      "midi": 62,
      "hit": false,
      "t": 74750,
      "d": 627.0833333333285,
      "v": 118
    },
    {
      "midi": 55,
      "hit": false,
      "t": 75000,
      "d": 313.5416666666715,
      "v": 118
    },
    {
      "midi": 43,
      "hit": false,
      "t": 75000,
      "d": 1546.875,
      "v": 118
    },
    {
      "midi": 57,
      "hit": false,
      "t": 75249.99999999997,
      "d": 318.75,
      "v": 89
    },
    {
      "midi": 60,
      "hit": false,
      "t": 75249.99999999997,
      "d": 383.3333333333285,
      "v": 89
    },
    {
      "midi": 50,
      "hit": false,
      "t": 75250,
      "d": 1377.0833333333285,
      "v": 118
    },
    {
      "midi": 53,
      "hit": false,
      "t": 75499.99999999997,
      "d": 272.9166666666715,
      "v": 88
    },
    {
      "midi": 55,
      "hit": false,
      "t": 75500,
      "d": 292.7083333333285,
      "v": 118
    },
    {
      "midi": 59,
      "hit": false,
      "t": 75749.99999999997,
      "d": 565.625,
      "v": 118
    },
    {
      "midi": 62,
      "hit": false,
      "t": 75749.99999999997,
      "d": 627.0833333333285,
      "v": 118
    },
    {
      "midi": 59,
      "hit": false,
      "t": 75750,
      "d": 171.875,
      "v": 118
    },
    {
      "midi": 62,
      "hit": false,
      "t": 75875,
      "d": 116.66666666667152,
      "v": 118
    },
    {
      "midi": 64,
      "hit": false,
      "t": 75937.5,
      "d": 131.25,
      "v": 118
    },
    {
      "midi": 55,
      "hit": false,
      "t": 75999.99999999997,
      "d": 313.5416666666715,
      "v": 118
    },
    {
      "midi": 43,
      "hit": false,
      "t": 75999.99999999997,
      "d": 1546.875,
      "v": 118
    },
    {
      "midi": 62,
      "hit": false,
      "t": 76000,
      "d": 507.2916666666715,
      "v": 118
    },
    {
      "midi": 50,
      "hit": false,
      "t": 76249.99999999997,
      "d": 1377.0833333333285,
      "v": 118
    },
    {
      "midi": 55,
      "hit": false,
      "t": 76250,
      "d": 825,
      "v": 118
    },
    {
      "midi": 55,
      "hit": false,
      "t": 76499.99999999997,
      "d": 292.7083333333285,
      "v": 118
    },
    {
      "midi": 59,
      "hit": false,
      "t": 76500,
      "d": 303.125,
      "v": 118
    },
    {
      "midi": 59,
      "hit": false,
      "t": 76749.99999999997,
      "d": 171.875,
      "v": 118
    },
    {
      "midi": 62,
      "hit": false,
      "t": 76874.99999999997,
      "d": 116.66666666667152,
      "v": 118
    },
    {
      "midi": 64,
      "hit": false,
      "t": 76937.49999999997,
      "d": 131.25,
      "v": 118
    },
    {
      "midi": 62,
      "hit": false,
      "t": 76999.99999999997,
      "d": 507.2916666666715,
      "v": 118
    },
    {
      "midi": 59,
      "hit": false,
      "t": 77000,
      "d": 307.2916666666715,
      "v": 118
    },
    {
      "midi": 45,
      "hit": false,
      "t": 77000,
      "d": 2563.5416666666715,
      "v": 118
    },
    {
      "midi": 55,
      "hit": false,
      "t": 77249.99999999997,
      "d": 825,
      "v": 118
    },
    {
      "midi": 60,
      "hit": false,
      "t": 77250,
      "d": 201.04166666667152,
      "v": 118
    },
    {
      "midi": 52,
      "hit": false,
      "t": 77250,
      "d": 490.625,
      "v": 118
    },
    {
      "midi": 59,
      "hit": false,
      "t": 77499.99999999997,
      "d": 303.125,
      "v": 118
    },
    {
      "midi": 57,
      "hit": false,
      "t": 77500,
      "d": 112.5,
      "v": 118
    },
    {
      "midi": 59,
      "hit": false,
      "t": 77750,
      "d": 383.3333333333285,
      "v": 118
    },
    {
      "midi": 59,
      "hit": false,
      "t": 77999.99999999997,
      "d": 307.2916666666715,
      "v": 118
    },
    {
      "midi": 45,
      "hit": false,
      "t": 77999.99999999997,
      "d": 2563.5416666666715,
      "v": 118
    },
    {
      "midi": 52,
      "hit": false,
      "t": 78000,
      "d": 292.7083333333285,
      "v": 118
    },
    {
      "midi": 60,
      "hit": false,
      "t": 78249.99999999997,
      "d": 201.04166666667152,
      "v": 118
    },
    {
      "midi": 52,
      "hit": false,
      "t": 78249.99999999997,
      "d": 490.625,
      "v": 118
    },
    {
      "midi": 57,
      "hit": false,
      "t": 78250,
      "d": 305.2083333333285,
      "v": 118
    },
    {
      "midi": 57,
      "hit": false,
      "t": 78499.99999999997,
      "d": 112.5,
      "v": 118
    },
    {
      "midi": 59,
      "hit": false,
      "t": 78749.99999999997,
      "d": 383.3333333333285,
      "v": 118
    },
    {
      "midi": 57,
      "hit": false,
      "t": 78750,
      "d": 568.75,
      "v": 118
    },
    {
      "midi": 52,
      "hit": false,
      "t": 78999.99999999997,
      "d": 292.7083333333285,
      "v": 118
    },
    {
      "midi": 57,
      "hit": false,
      "t": 79249.99999999997,
      "d": 305.2083333333285,
      "v": 118
    },
    {
      "midi": 57,
      "hit": false,
      "t": 79749.99999999997,
      "d": 568.75,
      "v": 118
    },
    {
      "midi": 57,
      "hit": false,
      "t": 79750,
      "d": 329.1666666666715,
      "v": 118
    },
    {
      "midi": 57,
      "hit": false,
      "t": 80749.99999999997,
      "d": 329.1666666666715,
      "v": 118
    },
    {
      "midi": 81,
      "hit": false,
      "t": 81000,
      "d": 339.58333333334303,
      "v": 72
    },
    {
      "midi": 57,
      "hit": false,
      "t": 81000,
      "d": 1453.1250000000146,
      "v": 72
    },
    {
      "midi": 64,
      "hit": false,
      "t": 81250.00000000001,
      "d": 1771.875,
      "v": 78
    },
    {
      "midi": 69,
      "hit": false,
      "t": 81500.00000000001,
      "d": 550,
      "v": 83
    },
    {
      "midi": 71,
      "hit": false,
      "t": 81750.00000000001,
      "d": 302.0833333333285,
      "v": 89
    },
    {
      "midi": 81,
      "hit": false,
      "t": 81999.99999999997,
      "d": 339.58333333334303,
      "v": 72
    },
    {
      "midi": 57,
      "hit": false,
      "t": 81999.99999999997,
      "d": 1453.1250000000146,
      "v": 72
    },
    {
      "midi": 76,
      "hit": false,
      "t": 82000.00000000001,
      "d": 486.4583333333285,
      "v": 94
    },
    {
      "midi": 64,
      "hit": false,
      "t": 82249.99999999999,
      "d": 1771.875,
      "v": 78
    },
    {
      "midi": 69,
      "hit": false,
      "t": 82250.00000000001,
      "d": 617.7083333333285,
      "v": 100
    },
    {
      "midi": 69,
      "hit": false,
      "t": 82499.99999999999,
      "d": 550,
      "v": 83
    },
    {
      "midi": 72,
      "hit": false,
      "t": 82500.00000000001,
      "d": 281.25,
      "v": 98
    },
    {
      "midi": 71,
      "hit": false,
      "t": 82749.99999999999,
      "d": 302.0833333333285,
      "v": 89
    },
    {
      "midi": 76,
      "hit": false,
      "t": 82750.00000000001,
      "d": 330.2083333333285,
      "v": 102
    },
    {
      "midi": 76,
      "hit": false,
      "t": 82999.99999999999,
      "d": 486.4583333333285,
      "v": 94
    },
    {
      "midi": 74,
      "hit": false,
      "t": 83000.00000000001,
      "d": 622.9166666666715,
      "v": 107
    },
    {
      "midi": 55,
      "hit": false,
      "t": 83000.00000000001,
      "d": 1648.958333333343,
      "v": 107
    },
    {
      "midi": 69,
      "hit": false,
      "t": 83249.99999999999,
      "d": 617.7083333333285,
      "v": 100
    },
    {
      "midi": 64,
      "hit": false,
      "t": 83250.00000000001,
      "d": 1450.0000000000146,
      "v": 112
    },
    {
      "midi": 72,
      "hit": false,
      "t": 83499.99999999999,
      "d": 281.25,
      "v": 98
    },
    {
      "midi": 69,
      "hit": false,
      "t": 83500.00000000001,
      "d": 366.6666666666715,
      "v": 117
    },
    {
      "midi": 76,
      "hit": false,
      "t": 83749.99999999999,
      "d": 330.2083333333285,
      "v": 102
    },
    {
      "midi": 71,
      "hit": false,
      "t": 83750.00000000001,
      "d": 323.9583333333285,
      "v": 122
    },
    {
      "midi": 74,
      "hit": false,
      "t": 83999.99999999999,
      "d": 622.9166666666715,
      "v": 107
    },
    {
      "midi": 55,
      "hit": false,
      "t": 83999.99999999999,
      "d": 1648.958333333343,
      "v": 107
    },
    {
      "midi": 72,
      "hit": false,
      "t": 84000.00000000001,
      "d": 294.7916666666715,
      "v": 121
    },
    {
      "midi": 64,
      "hit": false,
      "t": 84249.99999999999,
      "d": 1450.0000000000146,
      "v": 112
    },
    {
      "midi": 69,
      "hit": false,
      "t": 84250.00000000001,
      "d": 341.6666666666715,
      "v": 121
    },
    {
      "midi": 69,
      "hit": false,
      "t": 84499.99999999999,
      "d": 366.6666666666715,
      "v": 117
    },
    {
      "midi": 71,
      "hit": false,
      "t": 84500.00000000001,
      "d": 307.29166666668607,
      "v": 121
    },
    {
      "midi": 71,
      "hit": false,
      "t": 84749.99999999999,
      "d": 323.9583333333285,
      "v": 122
    },
    {
      "midi": 72,
      "hit": false,
      "t": 84750.00000000003,
      "d": 270.8333333333285,
      "v": 121
    },
    {
      "midi": 72,
      "hit": false,
      "t": 84999.99999999999,
      "d": 294.7916666666715,
      "v": 121
    },
    {
      "midi": 76,
      "hit": false,
      "t": 85000.00000000003,
      "d": 442.70833333331393,
      "v": 121
    },
    {
      "midi": 53,
      "hit": false,
      "t": 85000.00000000003,
      "d": 2703.124999999971,
      "v": 121
    },
    {
      "midi": 69,
      "hit": false,
      "t": 85249.99999999999,
      "d": 341.6666666666715,
      "v": 121
    },
    {
      "midi": 60,
      "hit": false,
      "t": 85250.00000000001,
      "d": 3068.7499999999854,
      "v": 121
    },
    {
      "midi": 71,
      "hit": false,
      "t": 85499.99999999999,
      "d": 307.29166666668607,
      "v": 121
    },
    {
      "midi": 65,
      "hit": false,
      "t": 85500.00000000001,
      "d": 2022.916666666657,
      "v": 121
    },
    {
      "midi": 72,
      "hit": false,
      "t": 85750,
      "d": 270.8333333333285,
      "v": 121
    },
    {
      "midi": 67,
      "hit": false,
      "t": 85750.00000000001,
      "d": 329.1666666666715,
      "v": 121
    },
    {
      "midi": 76,
      "hit": false,
      "t": 86000,
      "d": 442.70833333331393,
      "v": 121
    },
    {
      "midi": 53,
      "hit": false,
      "t": 86000,
      "d": 2703.124999999971,
      "v": 121
    },
    {
      "midi": 60,
      "hit": false,
      "t": 86249.99999999999,
      "d": 3068.7499999999854,
      "v": 121
    },
    {
      "midi": 69,
      "hit": false,
      "t": 86250.00000000001,
      "d": 271.875,
      "v": 121
    },
    {
      "midi": 65,
      "hit": false,
      "t": 86499.99999999999,
      "d": 2022.916666666657,
      "v": 121
    },
    {
      "midi": 67,
      "hit": false,
      "t": 86749.99999999999,
      "d": 329.1666666666715,
      "v": 121
    },
    {
      "midi": 72,
      "hit": false,
      "t": 86750.00000000001,
      "d": 492.7083333333285,
      "v": 121
    },
    {
      "midi": 69,
      "hit": false,
      "t": 87249.99999999999,
      "d": 271.875,
      "v": 121
    },
    {
      "midi": 72,
      "hit": false,
      "t": 87749.99999999999,
      "d": 492.7083333333285,
      "v": 121
    },
    {
      "midi": 65,
      "hit": false,
      "t": 87750,
      "d": 1130.2083333333285,
      "v": 121
    },
    {
      "midi": 67,
      "hit": false,
      "t": 87875,
      "d": 140.625,
      "v": 121
    },
    {
      "midi": 69,
      "hit": false,
      "t": 87937.5,
      "d": 125,
      "v": 121
    },
    {
      "midi": 72,
      "hit": false,
      "t": 88000,
      "d": 464.5833333333285,
      "v": 121
    },
    {
      "midi": 71,
      "hit": false,
      "t": 88500,
      "d": 345.8333333333285,
      "v": 121
    },
    {
      "midi": 65,
      "hit": false,
      "t": 88749.99999999997,
      "d": 1130.2083333333285,
      "v": 121
    },
    {
      "midi": 67,
      "hit": false,
      "t": 88874.99999999997,
      "d": 140.625,
      "v": 121
    },
    {
      "midi": 69,
      "hit": false,
      "t": 88937.49999999997,
      "d": 125,
      "v": 121
    },
    {
      "midi": 72,
      "hit": false,
      "t": 88999.99999999997,
      "d": 464.5833333333285,
      "v": 121
    },
    {
      "midi": 71,
      "hit": false,
      "t": 89000,
      "d": 322.9166666666715,
      "v": 121
    },
    {
      "midi": 57,
      "hit": false,
      "t": 89000,
      "d": 1350,
      "v": 121
    },
    {
      "midi": 64,
      "hit": false,
      "t": 89250,
      "d": 605.208333333343,
      "v": 121
    },
    {
      "midi": 71,
      "hit": false,
      "t": 89499.99999999997,
      "d": 345.8333333333285,
      "v": 121
    },
    {
      "midi": 69,
      "hit": false,
      "t": 89500,
      "d": 291.6666666666715,
      "v": 121
    },
    {
      "midi": 72,
      "hit": false,
      "t": 89750,
      "d": 226.04166666667152,
      "v": 121
    },
    {
      "midi": 71,
      "hit": false,
      "t": 89999.99999999997,
      "d": 322.9166666666715,
      "v": 121
    },
    {
      "midi": 57,
      "hit": false,
      "t": 89999.99999999997,
      "d": 1350,
      "v": 121
    },
    {
      "midi": 64,
      "hit": false,
      "t": 90000,
      "d": 917.708333333343,
      "v": 121
    },
    {
      "midi": 64,
      "hit": false,
      "t": 90249.99999999997,
      "d": 605.208333333343,
      "v": 121
    },
    {
      "midi": 69,
      "hit": false,
      "t": 90250,
      "d": 298.9583333333285,
      "v": 121
    },
    {
      "midi": 69,
      "hit": false,
      "t": 90499.99999999997,
      "d": 291.6666666666715,
      "v": 121
    },
    {
      "midi": 72,
      "hit": false,
      "t": 90500,
      "d": 296.875,
      "v": 121
    },
    {
      "midi": 72,
      "hit": false,
      "t": 90749.99999999997,
      "d": 226.04166666667152,
      "v": 121
    },
    {
      "midi": 81,
      "hit": false,
      "t": 90750,
      "d": 157.29166666667152,
      "v": 121
    },
    {
      "midi": 64,
      "hit": false,
      "t": 90999.99999999997,
      "d": 917.708333333343,
      "v": 121
    },
    {
      "midi": 81,
      "hit": false,
      "t": 91000.00000000001,
      "d": 555.2083333333285,
      "v": 121
    },
    {
      "midi": 69,
      "hit": false,
      "t": 91249.99999999997,
      "d": 298.9583333333285,
      "v": 121
    },
    {
      "midi": 55,
      "hit": false,
      "t": 91250.00000000001,
      "d": 1255.2083333333285,
      "v": 121
    },
    {
      "midi": 72,
      "hit": false,
      "t": 91499.99999999997,
      "d": 296.875,
      "v": 121
    },
    {
      "midi": 62,
      "hit": false,
      "t": 91500.00000000001,
      "d": 1258.333333333314,
      "v": 121
    },
    {
      "midi": 81,
      "hit": false,
      "t": 91749.99999999997,
      "d": 157.29166666667152,
      "v": 121
    },
    {
      "midi": 67,
      "hit": false,
      "t": 91750.00000000001,
      "d": 896.8749999999854,
      "v": 121
    },
    {
      "midi": 81,
      "hit": false,
      "t": 91999.99999999999,
      "d": 555.2083333333285,
      "v": 121
    },
    {
      "midi": 69,
      "hit": false,
      "t": 92000.00000000001,
      "d": 287.5,
      "v": 121
    },
    {
      "midi": 55,
      "hit": false,
      "t": 92249.99999999999,
      "d": 1255.2083333333285,
      "v": 121
    },
    {
      "midi": 71,
      "hit": false,
      "t": 92250.00000000001,
      "d": 291.66666666665697,
      "v": 121
    },
    {
      "midi": 62,
      "hit": false,
      "t": 92499.99999999999,
      "d": 1258.333333333314,
      "v": 121
    },
    {
      "midi": 74,
      "hit": false,
      "t": 92500.00000000001,
      "d": 307.2916666666424,
      "v": 121
    },
    {
      "midi": 67,
      "hit": false,
      "t": 92749.99999999999,
      "d": 896.8749999999854,
      "v": 121
    },
    {
      "midi": 71,
      "hit": false,
      "t": 92750,
      "d": 197.91666666665697,
      "v": 121
    },
    {
      "midi": 74,
      "hit": false,
      "t": 92999.99999999999,
      "d": 765.625,
      "v": 122
    },
    {
      "midi": 53,
      "hit": false,
      "t": 92999.99999999999,
      "d": 3008.3333333333285,
      "v": 122
    },
    {
      "midi": 69,
      "hit": false,
      "t": 92999.99999999999,
      "d": 287.5,
      "v": 121
    },
    {
      "midi": 60,
      "hit": false,
      "t": 93249.99999999999,
      "d": 3276.0416666666715,
      "v": 122
    },
    {
      "midi": 71,
      "hit": false,
      "t": 93249.99999999999,
      "d": 291.66666666665697,
      "v": 93
    },
    {
      "midi": 65,
      "hit": false,
      "t": 93499.99999999999,
      "d": 1959.375,
      "v": 122
    },
    {
      "midi": 74,
      "hit": false,
      "t": 93499.99999999999,
      "d": 307.2916666666424,
      "v": 93
    },
    {
      "midi": 71,
      "hit": false,
      "t": 93749.99999999997,
      "d": 197.91666666665697,
      "v": 92
    },
    {
      "midi": 76,
      "hit": false,
      "t": 93749.99999999999,
      "d": 320.8333333333285,
      "v": 122
    },
    {
      "midi": 74,
      "hit": false,
      "t": 93999.99999999996,
      "d": 765.625,
      "v": 92
    },
    {
      "midi": 53,
      "hit": false,
      "t": 93999.99999999996,
      "d": 3008.3333333333285,
      "v": 92
    },
    {
      "midi": 60,
      "hit": false,
      "t": 94249.99999999996,
      "d": 3276.0416666666715,
      "v": 92
    },
    {
      "midi": 72,
      "hit": false,
      "t": 94249.99999999999,
      "d": 820.8333333333285,
      "v": 122
    },
    {
      "midi": 65,
      "hit": false,
      "t": 94499.99999999996,
      "d": 1959.375,
      "v": 92
    },
    {
      "midi": 76,
      "hit": false,
      "t": 94749.99999999996,
      "d": 320.8333333333285,
      "v": 122
    },
    {
      "midi": 69,
      "hit": false,
      "t": 94999.99999999999,
      "d": 470.8333333333285,
      "v": 122
    },
    {
      "midi": 72,
      "hit": false,
      "t": 95249.99999999996,
      "d": 820.8333333333285,
      "v": 122
    },
    {
      "midi": 69,
      "hit": false,
      "t": 95749.99999999999,
      "d": 154.16666666667152,
      "v": 122
    },
    {
      "midi": 71,
      "hit": false,
      "t": 95874.99999999999,
      "d": 140.625,
      "v": 122
    },
    {
      "midi": 69,
      "hit": false,
      "t": 95999.99999999996,
      "d": 470.8333333333285,
      "v": 122
    },
    {
      "midi": 72,
      "hit": false,
      "t": 95999.99999999999,
      "d": 539.583333333343,
      "v": 122
    },
    {
      "midi": 71,
      "hit": false,
      "t": 96499.99999999999,
      "d": 179.16666666667152,
      "v": 122
    },
    {
      "midi": 69,
      "hit": false,
      "t": 96749.99999999996,
      "d": 154.16666666667152,
      "v": 122
    },
    {
      "midi": 71,
      "hit": false,
      "t": 96874.99999999996,
      "d": 140.625,
      "v": 122
    },
    {
      "midi": 72,
      "hit": false,
      "t": 96999.99999999996,
      "d": 539.583333333343,
      "v": 122
    },
    {
      "midi": 65,
      "hit": false,
      "t": 96999.99999999999,
      "d": 423.9583333333285,
      "v": 122
    },
    {
      "midi": 69,
      "hit": false,
      "t": 96999.99999999999,
      "d": 583.3333333333285,
      "v": 122
    },
    {
      "midi": 62,
      "hit": false,
      "t": 96999.99999999999,
      "d": 662.5,
      "v": 122
    },
    {
      "midi": 50,
      "hit": false,
      "t": 96999.99999999999,
      "d": 1300,
      "v": 122
    },
    {
      "midi": 71,
      "hit": false,
      "t": 97499.99999999996,
      "d": 179.16666666667152,
      "v": 122
    },
    {
      "midi": 77,
      "hit": false,
      "t": 97749.99999999999,
      "d": 288.5416666666715,
      "v": 122
    },
    {
      "midi": 65,
      "hit": false,
      "t": 97749.99999999999,
      "d": 313.5416666666715,
      "v": 122
    },
    {
      "midi": 69,
      "hit": false,
      "t": 97749.99999999999,
      "d": 403.125,
      "v": 122
    },
    {
      "midi": 65,
      "hit": false,
      "t": 97999.99999999996,
      "d": 423.9583333333285,
      "v": 122
    },
    {
      "midi": 69,
      "hit": false,
      "t": 97999.99999999996,
      "d": 583.3333333333285,
      "v": 122
    },
    {
      "midi": 62,
      "hit": false,
      "t": 97999.99999999996,
      "d": 662.5,
      "v": 122
    },
    {
      "midi": 50,
      "hit": false,
      "t": 97999.99999999996,
      "d": 1300,
      "v": 122
    },
    {
      "midi": 62,
      "hit": false,
      "t": 97999.99999999999,
      "d": 503.125,
      "v": 122
    },
    {
      "midi": 69,
      "hit": false,
      "t": 98249.99999999999,
      "d": 187.5,
      "v": 122
    },
    {
      "midi": 65,
      "hit": false,
      "t": 98249.99999999999,
      "d": 244.79166666667152,
      "v": 122
    },
    {
      "midi": 77,
      "hit": false,
      "t": 98749.99999999996,
      "d": 288.5416666666715,
      "v": 122
    },
    {
      "midi": 65,
      "hit": false,
      "t": 98749.99999999996,
      "d": 313.5416666666715,
      "v": 122
    },
    {
      "midi": 69,
      "hit": false,
      "t": 98749.99999999996,
      "d": 403.125,
      "v": 122
    },
    {
      "midi": 71,
      "hit": false,
      "t": 98749.99999999999,
      "d": 520.8333333333139,
      "v": 122
    },
    {
      "midi": 68,
      "hit": false,
      "t": 98749.99999999999,
      "d": 546.8749999999854,
      "v": 122
    },
    {
      "midi": 62,
      "hit": false,
      "t": 98999.99999999996,
      "d": 503.125,
      "v": 122
    },
    {
      "midi": 64,
      "hit": false,
      "t": 98999.99999999999,
      "d": 505.20833333331393,
      "v": 122
    },
    {
      "midi": 52,
      "hit": false,
      "t": 98999.99999999999,
      "d": 1657.2916666666424,
      "v": 122
    },
    {
      "midi": 69,
      "hit": false,
      "t": 99249.99999999996,
      "d": 187.5,
      "v": 122
    },
    {
      "midi": 65,
      "hit": false,
      "t": 99249.99999999996,
      "d": 244.79166666667152,
      "v": 122
    },
    {
      "midi": 69,
      "hit": false,
      "t": 99249.99999999997,
      "d": 256.25,
      "v": 122
    },
    {
      "midi": 71,
      "hit": false,
      "t": 99499.99999999997,
      "d": 271.875,
      "v": 122
    },
    {
      "midi": 59,
      "hit": false,
      "t": 99499.99999999997,
      "d": 1237.4999999999854,
      "v": 122
    },
    {
      "midi": 71,
      "hit": false,
      "t": 99749.99999999996,
      "d": 520.8333333333139,
      "v": 101
    },
    {
      "midi": 68,
      "hit": false,
      "t": 99749.99999999996,
      "d": 546.8749999999854,
      "v": 101
    },
    {
      "midi": 72,
      "hit": false,
      "t": 99749.99999999997,
      "d": 292.7083333333285,
      "v": 122
    },
    {
      "midi": 64,
      "hit": false,
      "t": 99749.99999999997,
      "d": 568.75,
      "v": 122
    },
    {
      "midi": 64,
      "hit": false,
      "t": 99999.99999999996,
      "d": 505.20833333331393,
      "v": 101
    },
    {
      "midi": 52,
      "hit": false,
      "t": 99999.99999999996,
      "d": 1657.2916666666424,
      "v": 101
    },
    {
      "midi": 69,
      "hit": false,
      "t": 100249.99999999994,
      "d": 256.25,
      "v": 102
    },
    {
      "midi": 69,
      "hit": false,
      "t": 100249.99999999997,
      "d": 289.5833333333285,
      "v": 122
    },
    {
      "midi": 71,
      "hit": false,
      "t": 100499.99999999994,
      "d": 271.875,
      "v": 102
    },
    {
      "midi": 59,
      "hit": false,
      "t": 100499.99999999994,
      "d": 1237.4999999999854,
      "v": 102
    },
    {
      "midi": 71,
      "hit": false,
      "t": 100499.99999999997,
      "d": 247.91666666665697,
      "v": 122
    },
    {
      "midi": 72,
      "hit": false,
      "t": 100749.99999999994,
      "d": 292.7083333333285,
      "v": 102
    },
    {
      "midi": 64,
      "hit": false,
      "t": 100749.99999999994,
      "d": 568.75,
      "v": 102
    },
    {
      "midi": 72,
      "hit": false,
      "t": 100749.99999999996,
      "d": 136.45833333332848,
      "v": 122
    },
    {
      "midi": 74,
      "hit": false,
      "t": 100999.99999999996,
      "d": 554.1666666666715,
      "v": 122
    },
    {
      "midi": 53,
      "hit": false,
      "t": 100999.99999999996,
      "d": 1805.208333333343,
      "v": 122
    },
    {
      "midi": 69,
      "hit": false,
      "t": 101249.99999999994,
      "d": 289.5833333333285,
      "v": 113
    },
    {
      "midi": 60,
      "hit": false,
      "t": 101249.99999999996,
      "d": 1866.666666666657,
      "v": 122
    },
    {
      "midi": 71,
      "hit": false,
      "t": 101499.99999999994,
      "d": 247.91666666665697,
      "v": 113
    },
    {
      "midi": 65,
      "hit": false,
      "t": 101499.99999999996,
      "d": 245.83333333334303,
      "v": 122
    },
    {
      "midi": 72,
      "hit": false,
      "t": 101749.99999999993,
      "d": 136.45833333332848,
      "v": 113
    },
    {
      "midi": 72,
      "hit": false,
      "t": 101749.99999999997,
      "d": 42.70833333332848,
      "v": 122
    },
    {
      "midi": 74,
      "hit": false,
      "t": 101812.49999999997,
      "d": 102.08333333332848,
      "v": 122
    },
    {
      "midi": 72,
      "hit": false,
      "t": 101874.99999999997,
      "d": 132.29166666667152,
      "v": 122
    },
    {
      "midi": 74,
      "hit": false,
      "t": 101999.99999999993,
      "d": 554.1666666666715,
      "v": 114
    },
    {
      "midi": 53,
      "hit": false,
      "t": 101999.99999999993,
      "d": 1805.208333333343,
      "v": 114
    },
    {
      "midi": 71,
      "hit": false,
      "t": 101999.99999999997,
      "d": 184.375,
      "v": 122
    },
    {
      "midi": 60,
      "hit": false,
      "t": 102249.99999999993,
      "d": 1866.666666666657,
      "v": 114
    },
    {
      "midi": 72,
      "hit": false,
      "t": 102249.99999999997,
      "d": 610.416666666657,
      "v": 122
    },
    {
      "midi": 65,
      "hit": false,
      "t": 102499.99999999993,
      "d": 245.83333333334303,
      "v": 114
    },
    {
      "midi": 65,
      "hit": false,
      "t": 102499.99999999997,
      "d": 287.5,
      "v": 122
    },
    {
      "midi": 72,
      "hit": false,
      "t": 102749.99999999994,
      "d": 42.70833333332848,
      "v": 116
    },
    {
      "midi": 69,
      "hit": false,
      "t": 102749.99999999997,
      "d": 636.4583333332994,
      "v": 122
    },
    {
      "midi": 74,
      "hit": false,
      "t": 102812.49999999994,
      "d": 102.08333333332848,
      "v": 115
    },
    {
      "midi": 72,
      "hit": false,
      "t": 102874.99999999994,
      "d": 132.29166666667152,
      "v": 115
    },
    {
      "midi": 71,
      "hit": false,
      "t": 102999.99999999994,
      "d": 184.375,
      "v": 114
    },
    {
      "midi": 53,
      "hit": false,
      "t": 102999.99999999996,
      "d": 1106.2499999999854,
      "v": 122
    },
    {
      "midi": 60,
      "hit": false,
      "t": 103249.99999999994,
      "d": 1256.25,
      "v": 122
    },
    {
      "midi": 72,
      "hit": false,
      "t": 103249.99999999994,
      "d": 610.416666666657,
      "v": 101
    },
    {
      "midi": 65,
      "hit": false,
      "t": 103499.99999999994,
      "d": 421.875,
      "v": 122
    },
    {
      "midi": 65,
      "hit": false,
      "t": 103499.99999999994,
      "d": 287.5,
      "v": 101
    },
    {
      "midi": 69,
      "hit": false,
      "t": 103749.99999999994,
      "d": 115.625,
      "v": 122
    },
    {
      "midi": 69,
      "hit": false,
      "t": 103749.99999999994,
      "d": 636.4583333332994,
      "v": 101
    },
    {
      "midi": 71,
      "hit": false,
      "t": 103874.99999999994,
      "d": 94.79166666667152,
      "v": 122
    },
    {
      "midi": 72,
      "hit": false,
      "t": 103937.49999999994,
      "d": 125,
      "v": 122
    },
    {
      "midi": 53,
      "hit": false,
      "t": 103999.99999999993,
      "d": 1106.2499999999854,
      "v": 101
    },
    {
      "midi": 71,
      "hit": false,
      "t": 103999.99999999994,
      "d": 757.2916666666715,
      "v": 122
    },
    {
      "midi": 60,
      "hit": false,
      "t": 104249.99999999991,
      "d": 1256.25,
      "v": 101
    },
    {
      "midi": 65,
      "hit": false,
      "t": 104499.99999999991,
      "d": 421.875,
      "v": 101
    },
    {
      "midi": 65,
      "hit": false,
      "t": 104499.99999999994,
      "d": 146.875,
      "v": 122
    },
    {
      "midi": 69,
      "hit": false,
      "t": 104749.99999999991,
      "d": 115.625,
      "v": 101
    },
    {
      "midi": 69,
      "hit": false,
      "t": 104749.99999999994,
      "d": 268.75,
      "v": 122
    },
    {
      "midi": 71,
      "hit": false,
      "t": 104874.99999999991,
      "d": 94.79166666667152,
      "v": 122
    },
    {
      "midi": 72,
      "hit": false,
      "t": 104937.49999999991,
      "d": 125,
      "v": 122
    },
    {
      "midi": 71,
      "hit": false,
      "t": 104999.99999999991,
      "d": 757.2916666666715,
      "v": 122
    },
    {
      "midi": 74,
      "hit": false,
      "t": 104999.99999999994,
      "d": 511.4583333333285,
      "v": 122
    },
    {
      "midi": 57,
      "hit": false,
      "t": 104999.99999999994,
      "d": 1657.2916666666715,
      "v": 122
    },
    {
      "midi": 64,
      "hit": false,
      "t": 105249.99999999994,
      "d": 461.4583333333285,
      "v": 122
    },
    {
      "midi": 65,
      "hit": false,
      "t": 105499.99999999991,
      "d": 146.875,
      "v": 104
    },
    {
      "midi": 69,
      "hit": false,
      "t": 105499.99999999994,
      "d": 114.58333333332848,
      "v": 122
    },
    {
      "midi": 69,
      "hit": false,
      "t": 105749.99999999991,
      "d": 268.75,
      "v": 105
    },
    {
      "midi": 72,
      "hit": false,
      "t": 105749.99999999994,
      "d": 432.2916666666715,
      "v": 122
    },
    {
      "midi": 74,
      "hit": false,
      "t": 105999.99999999991,
      "d": 511.4583333333285,
      "v": 106
    },
    {
      "midi": 57,
      "hit": false,
      "t": 105999.99999999991,
      "d": 1657.2916666666715,
      "v": 106
    },
    {
      "midi": 64,
      "hit": false,
      "t": 105999.99999999994,
      "d": 559.375,
      "v": 122
    },
    {
      "midi": 64,
      "hit": false,
      "t": 106249.99999999991,
      "d": 461.4583333333285,
      "v": 108
    },
    {
      "midi": 69,
      "hit": false,
      "t": 106249.99999999994,
      "d": 260.4166666666715,
      "v": 122
    },
    {
      "midi": 69,
      "hit": false,
      "t": 106499.99999999991,
      "d": 114.58333333332848,
      "v": 109
    },
    {
      "midi": 81,
      "hit": false,
      "t": 106499.99999999994,
      "d": 281.25,
      "v": 122
    },
    {
      "midi": 72,
      "hit": false,
      "t": 106749.99999999991,
      "d": 432.2916666666715,
      "v": 122
    },
    {
      "midi": 64,
      "hit": false,
      "t": 106749.99999999994,
      "d": 588.5416666666715,
      "v": 122
    },
    {
      "midi": 64,
      "hit": false,
      "t": 106999.99999999991,
      "d": 559.375,
      "v": 122
    },
    {
      "midi": 69,
      "hit": false,
      "t": 106999.99999999994,
      "d": 190.625,
      "v": 122
    },
    {
      "midi": 71,
      "hit": false,
      "t": 106999.99999999994,
      "d": 646.875,
      "v": 122
    },
    {
      "midi": 69,
      "hit": false,
      "t": 107249.99999999991,
      "d": 260.4166666666715,
      "v": 122
    },
    {
      "midi": 57,
      "hit": false,
      "t": 107249.99999999994,
      "d": 818.75,
      "v": 122
    },
    {
      "midi": 81,
      "hit": false,
      "t": 107499.99999999991,
      "d": 281.25,
      "v": 122
    },
    {
      "midi": 64,
      "hit": false,
      "t": 107499.99999999994,
      "d": 688.5416666666715,
      "v": 122
    },
    {
      "midi": 64,
      "hit": false,
      "t": 107749.99999999991,
      "d": 588.5416666666715,
      "v": 122
    },
    {
      "midi": 69,
      "hit": false,
      "t": 107749.99999999994,
      "d": 219.79166666667152,
      "v": 122
    },
    {
      "midi": 69,
      "hit": false,
      "t": 107999.99999999991,
      "d": 190.625,
      "v": 122
    },
    {
      "midi": 71,
      "hit": false,
      "t": 107999.99999999991,
      "d": 646.875,
      "v": 122
    },
    {
      "midi": 71,
      "hit": false,
      "t": 107999.99999999994,
      "d": 690.625,
      "v": 122
    },
    {
      "midi": 57,
      "hit": false,
      "t": 108249.99999999991,
      "d": 818.75,
      "v": 122
    },
    {
      "midi": 72,
      "hit": false,
      "t": 108249.99999999994,
      "d": 547.9166666666715,
      "v": 122
    },
    {
      "midi": 64,
      "hit": false,
      "t": 108499.99999999991,
      "d": 688.5416666666715,
      "v": 122
    },
    {
      "midi": 64,
      "hit": false,
      "t": 108499.99999999994,
      "d": 226.04166666667152,
      "v": 122
    },
    {
      "midi": 76,
      "hit": false,
      "t": 108499.99999999994,
      "d": 344.7916666666715,
      "v": 122
    },
    {
      "midi": 69,
      "hit": false,
      "t": 108749.99999999991,
      "d": 219.79166666667152,
      "v": 122
    },
    {
      "midi": 81,
      "hit": false,
      "t": 108749.99999999994,
      "d": 119.79166666667152,
      "v": 123
    },
    {
      "midi": 71,
      "hit": false,
      "t": 108999.99999999991,
      "d": 690.625,
      "v": 122
    },
    {
      "midi": 81,
      "hit": false,
      "t": 108999.99999999994,
      "d": 632.291666666657,
      "v": 123
    },
    {
      "midi": 53,
      "hit": false,
      "t": 108999.99999999994,
      "d": 684.3749999999854,
      "v": 123
    },
    {
      "midi": 72,
      "hit": false,
      "t": 109249.99999999991,
      "d": 547.9166666666715,
      "v": 122
    },
    {
      "midi": 60,
      "hit": false,
      "t": 109249.99999999993,
      "d": 1396.875,
      "v": 123
    },
    {
      "midi": 64,
      "hit": false,
      "t": 109499.99999999991,
      "d": 226.04166666667152,
      "v": 122
    },
    {
      "midi": 76,
      "hit": false,
      "t": 109499.99999999991,
      "d": 344.7916666666715,
      "v": 122
    },
    {
      "midi": 81,
      "hit": false,
      "t": 109749.99999999991,
      "d": 119.79166666667152,
      "v": 123
    },
    {
      "midi": 72,
      "hit": false,
      "t": 109749.99999999993,
      "d": 382.2916666666715,
      "v": 123
    },
    {
      "midi": 77,
      "hit": false,
      "t": 109749.99999999993,
      "d": 489.5833333333285,
      "v": 123
    },
    {
      "midi": 81,
      "hit": false,
      "t": 109999.99999999991,
      "d": 632.291666666657,
      "v": 123
    },
    {
      "midi": 53,
      "hit": false,
      "t": 109999.99999999991,
      "d": 684.3749999999854,
      "v": 123
    },
    {
      "midi": 69,
      "hit": false,
      "t": 109999.99999999993,
      "d": 187.5,
      "v": 123
    },
    {
      "midi": 60,
      "hit": false,
      "t": 110249.9999999999,
      "d": 1396.875,
      "v": 123
    },
    {
      "midi": 72,
      "hit": false,
      "t": 110249.99999999993,
      "d": 380.2083333333285,
      "v": 123
    },
    {
      "midi": 65,
      "hit": false,
      "t": 110499.99999999993,
      "d": 278.125,
      "v": 123
    },
    {
      "midi": 72,
      "hit": false,
      "t": 110749.9999999999,
      "d": 382.2916666666715,
      "v": 103
    },
    {
      "midi": 77,
      "hit": false,
      "t": 110749.9999999999,
      "d": 489.5833333333285,
      "v": 103
    },
    {
      "midi": 60,
      "hit": false,
      "t": 110749.99999999993,
      "d": 312.5,
      "v": 123
    },
    {
      "midi": 72,
      "hit": false,
      "t": 110749.99999999993,
      "d": 695.8333333333285,
      "v": 123
    },
    {
      "midi": 77,
      "hit": false,
      "t": 110749.99999999993,
      "d": 727.0833333333285,
      "v": 123
    },
    {
      "midi": 69,
      "hit": false,
      "t": 110999.9999999999,
      "d": 187.5,
      "v": 103
    },
    {
      "midi": 53,
      "hit": false,
      "t": 110999.99999999993,
      "d": 1204.1666666666715,
      "v": 123
    },
    {
      "midi": 72,
      "hit": false,
      "t": 111249.9999999999,
      "d": 380.2083333333285,
      "v": 102
    },
    {
      "midi": 60,
      "hit": false,
      "t": 111249.99999999993,
      "d": 1386.4583333333285,
      "v": 123
    },
    {
      "midi": 65,
      "hit": false,
      "t": 111499.9999999999,
      "d": 278.125,
      "v": 102
    },
    {
      "midi": 65,
      "hit": false,
      "t": 111499.99999999993,
      "d": 132.29166666667152,
      "v": 123
    },
    {
      "midi": 84,
      "hit": false,
      "t": 111499.99999999993,
      "d": 162.5,
      "v": 123
    },
    {
      "midi": 72,
      "hit": false,
      "t": 111499.99999999993,
      "d": 201.04166666667152,
      "v": 123
    },
    {
      "midi": 60,
      "hit": false,
      "t": 111749.9999999999,
      "d": 312.5,
      "v": 102
    },
    {
      "midi": 72,
      "hit": false,
      "t": 111749.9999999999,
      "d": 695.8333333333285,
      "v": 102
    },
    {
      "midi": 77,
      "hit": false,
      "t": 111749.9999999999,
      "d": 727.0833333333285,
      "v": 102
    },
    {
      "midi": 53,
      "hit": false,
      "t": 111999.9999999999,
      "d": 1204.1666666666715,
      "v": 101
    },
    {
      "midi": 69,
      "hit": false,
      "t": 111999.99999999993,
      "d": 404.1666666666715,
      "v": 123
    },
    {
      "midi": 60,
      "hit": false,
      "t": 112249.9999999999,
      "d": 1386.4583333333285,
      "v": 108
    },
    {
      "midi": 65,
      "hit": false,
      "t": 112249.99999999993,
      "d": 258.3333333333285,
      "v": 123
    },
    {
      "midi": 65,
      "hit": false,
      "t": 112499.9999999999,
      "d": 132.29166666667152,
      "v": 108
    },
    {
      "midi": 84,
      "hit": false,
      "t": 112499.9999999999,
      "d": 162.5,
      "v": 108
    },
    {
      "midi": 72,
      "hit": false,
      "t": 112499.9999999999,
      "d": 201.04166666667152,
      "v": 108
    },
    {
      "midi": 77,
      "hit": false,
      "t": 112499.99999999993,
      "d": 339.5833333333285,
      "v": 123
    },
    {
      "midi": 69,
      "hit": false,
      "t": 112999.9999999999,
      "d": 404.1666666666715,
      "v": 123
    },
    {
      "midi": 77,
      "hit": false,
      "t": 112999.99999999993,
      "d": 475.00000000001455,
      "v": 123
    },
    {
      "midi": 50,
      "hit": false,
      "t": 112999.99999999993,
      "d": 698.958333333343,
      "v": 123
    },
    {
      "midi": 65,
      "hit": false,
      "t": 113249.9999999999,
      "d": 258.3333333333285,
      "v": 123
    },
    {
      "midi": 57,
      "hit": false,
      "t": 113249.99999999994,
      "d": 1001.0416666666715,
      "v": 123
    },
    {
      "midi": 77,
      "hit": false,
      "t": 113499.9999999999,
      "d": 339.5833333333285,
      "v": 123
    },
    {
      "midi": 62,
      "hit": false,
      "t": 113499.99999999994,
      "d": 112.5,
      "v": 123
    },
    {
      "midi": 69,
      "hit": false,
      "t": 113749.99999999994,
      "d": 371.875,
      "v": 123
    },
    {
      "midi": 74,
      "hit": false,
      "t": 113749.99999999994,
      "d": 381.25,
      "v": 123
    },
    {
      "midi": 77,
      "hit": false,
      "t": 113999.9999999999,
      "d": 475.00000000001455,
      "v": 97
    },
    {
      "midi": 50,
      "hit": false,
      "t": 113999.9999999999,
      "d": 698.958333333343,
      "v": 97
    },
    {
      "midi": 65,
      "hit": false,
      "t": 113999.99999999994,
      "d": 480.20833333334303,
      "v": 123
    },
    {
      "midi": 57,
      "hit": false,
      "t": 114249.99999999991,
      "d": 1001.0416666666715,
      "v": 98
    },
    {
      "midi": 69,
      "hit": false,
      "t": 114249.99999999994,
      "d": 277.08333333334303,
      "v": 123
    },
    {
      "midi": 62,
      "hit": false,
      "t": 114499.99999999991,
      "d": 112.5,
      "v": 99
    },
    {
      "midi": 69,
      "hit": false,
      "t": 114749.99999999991,
      "d": 371.875,
      "v": 101
    },
    {
      "midi": 74,
      "hit": false,
      "t": 114749.99999999991,
      "d": 381.25,
      "v": 101
    },
    {
      "midi": 65,
      "hit": false,
      "t": 114999.99999999991,
      "d": 480.20833333334303,
      "v": 100
    },
    {
      "midi": 64,
      "hit": false,
      "t": 114999.99999999996,
      "d": 282.2916666666715,
      "v": 123
    },
    {
      "midi": 71,
      "hit": false,
      "t": 114999.99999999996,
      "d": 479.1666666666715,
      "v": 123
    },
    {
      "midi": 68,
      "hit": false,
      "t": 114999.99999999996,
      "d": 485.4166666666715,
      "v": 123
    },
    {
      "midi": 52,
      "hit": false,
      "t": 114999.99999999996,
      "d": 1604.1666666666715,
      "v": 123
    },
    {
      "midi": 69,
      "hit": false,
      "t": 115249.99999999991,
      "d": 277.08333333334303,
      "v": 100
    },
    {
      "midi": 59,
      "hit": false,
      "t": 115249.99999999996,
      "d": 1386.4583333333285,
      "v": 123
    },
    {
      "midi": 64,
      "hit": false,
      "t": 115499.99999999996,
      "d": 192.70833333332848,
      "v": 123
    },
    {
      "midi": 71,
      "hit": false,
      "t": 115749.99999999996,
      "d": 121.875,
      "v": 123
    },
    {
      "midi": 68,
      "hit": false,
      "t": 115749.99999999996,
      "d": 169.79166666667152,
      "v": 123
    },
    {
      "midi": 64,
      "hit": false,
      "t": 115999.99999999993,
      "d": 282.2916666666715,
      "v": 100
    },
    {
      "midi": 71,
      "hit": false,
      "t": 115999.99999999993,
      "d": 479.1666666666715,
      "v": 100
    },
    {
      "midi": 68,
      "hit": false,
      "t": 115999.99999999993,
      "d": 485.4166666666715,
      "v": 100
    },
    {
      "midi": 52,
      "hit": false,
      "t": 115999.99999999993,
      "d": 1604.1666666666715,
      "v": 100
    },
    {
      "midi": 69,
      "hit": false,
      "t": 115999.99999999996,
      "d": 50,
      "v": 123
    },
    {
      "midi": 72,
      "hit": false,
      "t": 115999.99999999996,
      "d": 209.375,
      "v": 123
    },
    {
      "midi": 59,
      "hit": false,
      "t": 116249.99999999993,
      "d": 1386.4583333333285,
      "v": 123
    },
    {
      "midi": 71,
      "hit": false,
      "t": 116249.99999999996,
      "d": 826.041666666657,
      "v": 123
    },
    {
      "midi": 64,
      "hit": false,
      "t": 116499.99999999993,
      "d": 192.70833333332848,
      "v": 123
    },
    {
      "midi": 64,
      "hit": false,
      "t": 116499.99999999996,
      "d": 125,
      "v": 123
    },
    {
      "midi": 71,
      "hit": false,
      "t": 116749.99999999993,
      "d": 121.875,
      "v": 123
    },
    {
      "midi": 68,
      "hit": false,
      "t": 116749.99999999993,
      "d": 169.79166666667152,
      "v": 123
    },
    {
      "midi": 68,
      "hit": false,
      "t": 116749.99999999996,
      "d": 305.2083333333285,
      "v": 123
    },
    {
      "midi": 69,
      "hit": false,
      "t": 116999.99999999993,
      "d": 50,
      "v": 103
    },
    {
      "midi": 72,
      "hit": false,
      "t": 116999.99999999993,
      "d": 209.375,
      "v": 103
    },
    {
      "midi": 45,
      "hit": false,
      "t": 116999.99999999996,
      "d": 1257.291666666657,
      "v": 123
    },
    {
      "midi": 71,
      "hit": false,
      "t": 117249.99999999993,
      "d": 826.041666666657,
      "v": 104
    },
    {
      "midi": 69,
      "hit": false,
      "t": 117249.99999999994,
      "d": 653.125,
      "v": 123
    },
    {
      "midi": 52,
      "hit": false,
      "t": 117249.99999999994,
      "d": 3635.4166666666715,
      "v": 123
    },
    {
      "midi": 64,
      "hit": false,
      "t": 117499.99999999993,
      "d": 125,
      "v": 105
    },
    {
      "midi": 57,
      "hit": false,
      "t": 117499.99999999994,
      "d": 143.75,
      "v": 123
    },
    {
      "midi": 68,
      "hit": false,
      "t": 117749.99999999993,
      "d": 305.2083333333285,
      "v": 106
    },
    {
      "midi": 64,
      "hit": false,
      "t": 117749.99999999994,
      "d": 102.08333333332848,
      "v": 123
    },
    {
      "midi": 45,
      "hit": false,
      "t": 117999.99999999993,
      "d": 1257.291666666657,
      "v": 123
    },
    {
      "midi": 57,
      "hit": false,
      "t": 117999.99999999994,
      "d": 145.83333333332848,
      "v": 123
    },
    {
      "midi": 69,
      "hit": false,
      "t": 118249.99999999991,
      "d": 653.125,
      "v": 123
    },
    {
      "midi": 52,
      "hit": false,
      "t": 118249.99999999991,
      "d": 3635.4166666666715,
      "v": 123
    },
    {
      "midi": 60,
      "hit": false,
      "t": 118249.99999999994,
      "d": 317.7083333333285,
      "v": 123
    },
    {
      "midi": 57,
      "hit": false,
      "t": 118499.99999999991,
      "d": 143.75,
      "v": 123
    },
    {
      "midi": 64,
      "hit": false,
      "t": 118499.99999999994,
      "d": 286.4583333333285,
      "v": 123
    },
    {
      "midi": 64,
      "hit": false,
      "t": 118749.99999999991,
      "d": 102.08333333332848,
      "v": 123
    },
    {
      "midi": 69,
      "hit": false,
      "t": 118749.99999999994,
      "d": 122.91666666665697,
      "v": 123
    },
    {
      "midi": 57,
      "hit": false,
      "t": 118999.99999999991,
      "d": 145.83333333332848,
      "v": 123
    },
    {
      "midi": 72,
      "hit": false,
      "t": 118999.99999999993,
      "d": 291.6666666666715,
      "v": 123
    },
    {
      "midi": 60,
      "hit": false,
      "t": 119249.99999999991,
      "d": 317.7083333333285,
      "v": 123
    },
    {
      "midi": 76,
      "hit": false,
      "t": 119249.99999999993,
      "d": 214.58333333334303,
      "v": 123
    },
    {
      "midi": 64,
      "hit": false,
      "t": 119499.99999999991,
      "d": 286.4583333333285,
      "v": 123
    },
    {
      "midi": 81,
      "hit": false,
      "t": 119499.99999999994,
      "d": 46.875,
      "v": 123
    },
    {
      "midi": 69,
      "hit": false,
      "t": 119749.99999999991,
      "d": 122.91666666665697,
      "v": 123
    },
    {
      "midi": 83,
      "hit": false,
      "t": 119749.99999999994,
      "d": 137.5,
      "v": 123
    },
    {
      "midi": 72,
      "hit": false,
      "t": 119999.9999999999,
      "d": 291.6666666666715,
      "v": 123
    },
    {
      "midi": 84,
      "hit": false,
      "t": 119999.99999999994,
      "d": 294.7916666666715,
      "v": 123
    },
    {
      "midi": 76,
      "hit": false,
      "t": 120249.9999999999,
      "d": 214.58333333334303,
      "v": 123
    },
    {
      "midi": 88,
      "hit": false,
      "t": 120249.99999999994,
      "d": 281.25,
      "v": 123
    },
    {
      "midi": 81,
      "hit": false,
      "t": 120499.99999999991,
      "d": 46.875,
      "v": 123
    },
    {
      "midi": 89,
      "hit": false,
      "t": 120499.99999999994,
      "d": 250,
      "v": 123
    },
    {
      "midi": 83,
      "hit": false,
      "t": 120749.99999999991,
      "d": 137.5,
      "v": 123
    },
    {
      "midi": 88,
      "hit": false,
      "t": 120749.99999999994,
      "d": 334.375,
      "v": 123
    },
    {
      "midi": 84,
      "hit": false,
      "t": 120999.99999999991,
      "d": 294.7916666666715,
      "v": 123
    },
    {
      "midi": 84,
      "hit": false,
      "t": 120999.99999999994,
      "d": 297.9166666666715,
      "v": 123
    },
    {
      "midi": 88,
      "hit": false,
      "t": 121249.99999999991,
      "d": 281.25,
      "v": 123
    },
    {
      "midi": 88,
      "hit": false,
      "t": 121249.99999999994,
      "d": 309.375,
      "v": 123
    },
    {
      "midi": 89,
      "hit": false,
      "t": 121499.99999999991,
      "d": 250,
      "v": 123
    },
    {
      "midi": 84,
      "hit": false,
      "t": 121499.99999999994,
      "d": 172.91666666667152,
      "v": 123
    },
    {
      "midi": 88,
      "hit": false,
      "t": 121749.99999999991,
      "d": 334.375,
      "v": 123
    },
    {
      "midi": 83,
      "hit": false,
      "t": 121749.99999999994,
      "d": 218.75,
      "v": 123
    },
    {
      "midi": 45,
      "hit": false,
      "t": 121999.99999999994,
      "d": 2278.124999999971,
      "v": 127
    },
    {
      "midi": 33,
      "hit": false,
      "t": 121999.99999999994,
      "d": 2286.4583333332994,
      "v": 127
    },
    {
      "midi": 57,
      "hit": false,
      "t": 122124.99999999994,
      "d": 386.4583333333285,
      "v": 127
    },
    {
      "midi": 60,
      "hit": false,
      "t": 122249.99999999994,
      "d": 267.7083333333285,
      "v": 127
    },
    {
      "midi": 64,
      "hit": false,
      "t": 122374.99999999994,
      "d": 151.04166666665697,
      "v": 127
    },
    {
      "midi": 45,
      "hit": false,
      "t": 122499.99999999991,
      "d": 2278.124999999971,
      "v": 121
    },
    {
      "midi": 33,
      "hit": false,
      "t": 122499.99999999991,
      "d": 2286.4583333332994,
      "v": 121
    },
    {
      "midi": 69,
      "hit": false,
      "t": 122499.99999999994,
      "d": 38.541666666656965,
      "v": 127
    },
    {
      "midi": 57,
      "hit": false,
      "t": 122624.99999999991,
      "d": 386.4583333333285,
      "v": 121
    },
    {
      "midi": 69,
      "hit": false,
      "t": 122624.99999999993,
      "d": 371.875,
      "v": 127
    },
    {
      "midi": 60,
      "hit": false,
      "t": 122749.99999999991,
      "d": 267.7083333333285,
      "v": 121
    },
    {
      "midi": 72,
      "hit": false,
      "t": 122749.99999999993,
      "d": 256.25,
      "v": 127
    },
    {
      "midi": 64,
      "hit": false,
      "t": 122874.99999999991,
      "d": 151.04166666665697,
      "v": 121
    },
    {
      "midi": 76,
      "hit": false,
      "t": 122874.99999999993,
      "d": 137.5,
      "v": 127
    },
    {
      "midi": 69,
      "hit": false,
      "t": 122999.99999999991,
      "d": 38.541666666656965,
      "v": 121
    },
    {
      "midi": 81,
      "hit": false,
      "t": 122999.99999999993,
      "d": 34.375,
      "v": 127
    },
    {
      "midi": 69,
      "hit": false,
      "t": 123124.9999999999,
      "d": 371.875,
      "v": 121
    },
    {
      "midi": 81,
      "hit": false,
      "t": 123124.99999999993,
      "d": 366.6666666666715,
      "v": 127
    },
    {
      "midi": 72,
      "hit": false,
      "t": 123249.9999999999,
      "d": 256.25,
      "v": 121
    },
    {
      "midi": 84,
      "hit": false,
      "t": 123249.99999999993,
      "d": 253.125,
      "v": 127
    },
    {
      "midi": 76,
      "hit": false,
      "t": 123374.9999999999,
      "d": 137.5,
      "v": 121
    },
    {
      "midi": 88,
      "hit": false,
      "t": 123374.99999999993,
      "d": 143.75,
      "v": 127
    },
    {
      "midi": 81,
      "hit": false,
      "t": 123499.9999999999,
      "d": 34.375,
      "v": 121
    },
    {
      "midi": 93,
      "hit": false,
      "t": 123499.99999999993,
      "d": 33.33333333332848,
      "v": 127
    },
    {
      "midi": 81,
      "hit": false,
      "t": 123624.9999999999,
      "d": 366.6666666666715,
      "v": 121
    },
    {
      "midi": 93,
      "hit": false,
      "t": 123624.99999999993,
      "d": 355.2083333333285,
      "v": 127
    },
    {
      "midi": 84,
      "hit": false,
      "t": 123749.9999999999,
      "d": 253.125,
      "v": 121
    },
    {
      "midi": 96,
      "hit": false,
      "t": 123749.99999999993,
      "d": 247.91666666665697,
      "v": 127
    },
    {
      "midi": 88,
      "hit": false,
      "t": 123874.9999999999,
      "d": 143.75,
      "v": 121
    },
    {
      "midi": 100,
      "hit": false,
      "t": 123874.99999999993,
      "d": 163.54166666665697,
      "v": 127
    },
    {
      "midi": 93,
      "hit": false,
      "t": 123999.9999999999,
      "d": 33.33333333332848,
      "v": 122
    },
    {
      "midi": 105,
      "hit": false,
      "t": 123999.99999999991,
      "d": 54.16666666667152,
      "v": 127
    },
    {
      "midi": 93,
      "hit": false,
      "t": 124124.9999999999,
      "d": 355.2083333333285,
      "v": 122
    },
    {
      "midi": 96,
      "hit": false,
      "t": 124249.9999999999,
      "d": 247.91666666665697,
      "v": 122
    },
    {
      "midi": 100,
      "hit": false,
      "t": 124374.9999999999,
      "d": 163.54166666665697,
      "v": 122
    },
    {
      "midi": 105,
      "hit": false,
      "t": 124499.99999999988,
      "d": 54.16666666667152,
      "v": 122
    },
    {
      "midi": 41,
      "hit": false,
      "t": 124499.99999999991,
      "d": 117.70833333332848,
      "v": 127
    },
    {
      "midi": 29,
      "hit": false,
      "t": 124499.99999999991,
      "d": 2006.25,
      "v": 127
    },
    {
      "midi": 41,
      "hit": false,
      "t": 124624.99999999991,
      "d": 200,
      "v": 127
    },
    {
      "midi": 45,
      "hit": false,
      "t": 124749.99999999991,
      "d": 235.41666666667152,
      "v": 127
    },
    {
      "midi": 48,
      "hit": false,
      "t": 124874.99999999991,
      "d": 131.25,
      "v": 127
    },
    {
      "midi": 41,
      "hit": false,
      "t": 124999.99999999988,
      "d": 117.70833333332848,
      "v": 122
    },
    {
      "midi": 29,
      "hit": false,
      "t": 124999.99999999988,
      "d": 2006.25,
      "v": 122
    },
    {
      "midi": 53,
      "hit": false,
      "t": 124999.99999999991,
      "d": 37.5,
      "v": 127
    },
    {
      "midi": 41,
      "hit": false,
      "t": 125124.99999999988,
      "d": 200,
      "v": 122
    },
    {
      "midi": 53,
      "hit": false,
      "t": 125124.99999999991,
      "d": 230.20833333332848,
      "v": 127
    },
    {
      "midi": 45,
      "hit": false,
      "t": 125249.99999999988,
      "d": 235.41666666667152,
      "v": 122
    },
    {
      "midi": 57,
      "hit": false,
      "t": 125249.99999999991,
      "d": 234.375,
      "v": 127
    },
    {
      "midi": 48,
      "hit": false,
      "t": 125374.99999999988,
      "d": 131.25,
      "v": 122
    },
    {
      "midi": 60,
      "hit": false,
      "t": 125374.99999999991,
      "d": 127.08333333332848,
      "v": 127
    },
    {
      "midi": 53,
      "hit": false,
      "t": 125499.99999999988,
      "d": 37.5,
      "v": 122
    },
    {
      "midi": 65,
      "hit": false,
      "t": 125499.99999999991,
      "d": 34.375,
      "v": 127
    },
    {
      "midi": 53,
      "hit": false,
      "t": 125624.99999999988,
      "d": 230.20833333332848,
      "v": 122
    },
    {
      "midi": 65,
      "hit": false,
      "t": 125624.99999999991,
      "d": 119.79166666667152,
      "v": 127
    },
    {
      "midi": 57,
      "hit": false,
      "t": 125749.99999999988,
      "d": 234.375,
      "v": 122
    },
    {
      "midi": 69,
      "hit": false,
      "t": 125749.99999999991,
      "d": 255.20833333332848,
      "v": 127
    },
    {
      "midi": 60,
      "hit": false,
      "t": 125874.99999999988,
      "d": 127.08333333332848,
      "v": 122
    },
    {
      "midi": 72,
      "hit": false,
      "t": 125874.99999999991,
      "d": 142.70833333332848,
      "v": 127
    },
    {
      "midi": 65,
      "hit": false,
      "t": 125999.99999999988,
      "d": 34.375,
      "v": 122
    },
    {
      "midi": 77,
      "hit": false,
      "t": 125999.99999999991,
      "d": 36.45833333332848,
      "v": 127
    },
    {
      "midi": 65,
      "hit": false,
      "t": 126124.99999999988,
      "d": 119.79166666667152,
      "v": 122
    },
    {
      "midi": 77,
      "hit": false,
      "t": 126124.99999999991,
      "d": 385.4166666666715,
      "v": 127
    },
    {
      "midi": 69,
      "hit": false,
      "t": 126249.99999999988,
      "d": 255.20833333332848,
      "v": 122
    },
    {
      "midi": 81,
      "hit": false,
      "t": 126249.99999999991,
      "d": 266.6666666666715,
      "v": 127
    },
    {
      "midi": 72,
      "hit": false,
      "t": 126374.99999999988,
      "d": 142.70833333332848,
      "v": 122
    },
    {
      "midi": 84,
      "hit": false,
      "t": 126374.99999999991,
      "d": 142.70833333334303,
      "v": 127
    },
    {
      "midi": 77,
      "hit": false,
      "t": 126499.99999999988,
      "d": 36.45833333332848,
      "v": 122
    },
    {
      "midi": 89,
      "hit": false,
      "t": 126499.99999999991,
      "d": 29.166666666671517,
      "v": 127
    },
    {
      "midi": 77,
      "hit": false,
      "t": 126624.99999999988,
      "d": 385.4166666666715,
      "v": 123
    },
    {
      "midi": 81,
      "hit": false,
      "t": 126749.99999999988,
      "d": 266.6666666666715,
      "v": 123
    },
    {
      "midi": 84,
      "hit": false,
      "t": 126874.99999999988,
      "d": 142.70833333334303,
      "v": 123
    },
    {
      "midi": 89,
      "hit": false,
      "t": 126999.99999999988,
      "d": 29.166666666671517,
      "v": 123
    },
    {
      "midi": 38,
      "hit": false,
      "t": 126999.99999999991,
      "d": 94.79166666667152,
      "v": 127
    },
    {
      "midi": 26,
      "hit": false,
      "t": 126999.99999999991,
      "d": 2105.208333333343,
      "v": 127
    },
    {
      "midi": 38,
      "hit": false,
      "t": 127124.99999999991,
      "d": 184.375,
      "v": 127
    },
    {
      "midi": 41,
      "hit": false,
      "t": 127249.99999999991,
      "d": 245.83333333332848,
      "v": 127
    },
    {
      "midi": 45,
      "hit": false,
      "t": 127374.99999999991,
      "d": 138.54166666667152,
      "v": 127
    },
    {
      "midi": 38,
      "hit": false,
      "t": 127499.99999999988,
      "d": 94.79166666667152,
      "v": 123
    },
    {
      "midi": 26,
      "hit": false,
      "t": 127499.99999999988,
      "d": 2105.208333333343,
      "v": 123
    },
    {
      "midi": 50,
      "hit": false,
      "t": 127499.99999999991,
      "d": 37.5,
      "v": 127
    },
    {
      "midi": 38,
      "hit": false,
      "t": 127624.99999999988,
      "d": 184.375,
      "v": 123
    },
    {
      "midi": 50,
      "hit": false,
      "t": 127624.99999999991,
      "d": 268.75,
      "v": 127
    },
    {
      "midi": 41,
      "hit": false,
      "t": 127749.99999999988,
      "d": 245.83333333332848,
      "v": 123
    },
    {
      "midi": 53,
      "hit": false,
      "t": 127749.99999999991,
      "d": 251.04166666667152,
      "v": 127
    },
    {
      "midi": 45,
      "hit": false,
      "t": 127874.99999999988,
      "d": 138.54166666667152,
      "v": 123
    },
    {
      "midi": 57,
      "hit": false,
      "t": 127874.99999999991,
      "d": 132.29166666667152,
      "v": 127
    },
    {
      "midi": 50,
      "hit": false,
      "t": 127999.99999999988,
      "d": 37.5,
      "v": 123
    },
    {
      "midi": 62,
      "hit": false,
      "t": 127999.99999999991,
      "d": 38.54166666667152,
      "v": 127
    },
    {
      "midi": 50,
      "hit": false,
      "t": 128124.99999999988,
      "d": 268.75,
      "v": 123
    },
    {
      "midi": 62,
      "hit": false,
      "t": 128124.99999999991,
      "d": 398.9583333333285,
      "v": 127
    },
    {
      "midi": 53,
      "hit": false,
      "t": 128249.99999999988,
      "d": 251.04166666667152,
      "v": 123
    },
    {
      "midi": 65,
      "hit": false,
      "t": 128249.99999999991,
      "d": 293.75,
      "v": 127
    },
    {
      "midi": 57,
      "hit": false,
      "t": 128374.99999999988,
      "d": 132.29166666667152,
      "v": 123
    },
    {
      "midi": 69,
      "hit": false,
      "t": 128374.99999999991,
      "d": 172.91666666667152,
      "v": 127
    },
    {
      "midi": 62,
      "hit": false,
      "t": 128499.99999999988,
      "d": 38.54166666667152,
      "v": 123
    },
    {
      "midi": 74,
      "hit": false,
      "t": 128499.99999999991,
      "d": 33.33333333332848,
      "v": 127
    },
    {
      "midi": 62,
      "hit": false,
      "t": 128624.99999999988,
      "d": 398.9583333333285,
      "v": 123
    },
    {
      "midi": 74,
      "hit": false,
      "t": 128624.99999999991,
      "d": 402.0833333333285,
      "v": 127
    },
    {
      "midi": 65,
      "hit": false,
      "t": 128749.99999999988,
      "d": 293.75,
      "v": 123
    },
    {
      "midi": 77,
      "hit": false,
      "t": 128749.99999999991,
      "d": 294.7916666666715,
      "v": 127
    },
    {
      "midi": 69,
      "hit": false,
      "t": 128874.99999999988,
      "d": 172.91666666667152,
      "v": 123
    },
    {
      "midi": 81,
      "hit": false,
      "t": 128874.99999999991,
      "d": 166.66666666667152,
      "v": 127
    },
    {
      "midi": 74,
      "hit": false,
      "t": 128999.99999999988,
      "d": 33.33333333332848,
      "v": 123
    },
    {
      "midi": 86,
      "hit": false,
      "t": 128999.99999999991,
      "d": 31.25,
      "v": 127
    },
    {
      "midi": 74,
      "hit": false,
      "t": 129124.99999999988,
      "d": 402.0833333333285,
      "v": 123
    },
    {
      "midi": 77,
      "hit": false,
      "t": 129249.99999999988,
      "d": 294.7916666666715,
      "v": 124
    },
    {
      "midi": 81,
      "hit": false,
      "t": 129374.99999999988,
      "d": 166.66666666667152,
      "v": 124
    },
    {
      "midi": 86,
      "hit": false,
      "t": 129499.99999999988,
      "d": 31.25,
      "v": 124
    },
    {
      "midi": 44,
      "hit": false,
      "t": 129499.99999999993,
      "d": 86.45833333334303,
      "v": 127
    },
    {
      "midi": 47,
      "hit": false,
      "t": 129499.99999999993,
      "d": 101.04166666667152,
      "v": 127
    },
    {
      "midi": 50,
      "hit": false,
      "t": 129499.99999999993,
      "d": 110.41666666667152,
      "v": 127
    },
    {
      "midi": 29,
      "hit": false,
      "t": 129499.99999999993,
      "d": 1826.0416666666715,
      "v": 127
    },
    {
      "midi": 40,
      "hit": false,
      "t": 129499.99999999993,
      "d": 1893.7500000000146,
      "v": 127
    },
    {
      "midi": 50,
      "hit": false,
      "t": 129624.99999999993,
      "d": 79.16666666667152,
      "v": 127
    },
    {
      "midi": 52,
      "hit": false,
      "t": 129624.99999999993,
      "d": 89.58333333334303,
      "v": 127
    },
    {
      "midi": 56,
      "hit": false,
      "t": 129749.99999999994,
      "d": 266.6666666666715,
      "v": 127
    },
    {
      "midi": 59,
      "hit": false,
      "t": 129874.99999999994,
      "d": 142.70833333334303,
      "v": 127
    },
    {
      "midi": 44,
      "hit": false,
      "t": 129999.9999999999,
      "d": 86.45833333334303,
      "v": 124
    },
    {
      "midi": 47,
      "hit": false,
      "t": 129999.9999999999,
      "d": 101.04166666667152,
      "v": 124
    },
    {
      "midi": 50,
      "hit": false,
      "t": 129999.9999999999,
      "d": 110.41666666667152,
      "v": 124
    },
    {
      "midi": 29,
      "hit": false,
      "t": 129999.9999999999,
      "d": 1826.0416666667006,
      "v": 124
    },
    {
      "midi": 40,
      "hit": false,
      "t": 129999.9999999999,
      "d": 1893.7500000000437,
      "v": 124
    },
    {
      "midi": 62,
      "hit": false,
      "t": 129999.99999999994,
      "d": 39.583333333343035,
      "v": 127
    },
    {
      "midi": 50,
      "hit": false,
      "t": 130124.9999999999,
      "d": 79.16666666667152,
      "v": 124
    },
    {
      "midi": 52,
      "hit": false,
      "t": 130124.9999999999,
      "d": 89.58333333334303,
      "v": 124
    },
    {
      "midi": 64,
      "hit": false,
      "t": 130124.99999999996,
      "d": 372.9166666666715,
      "v": 127
    },
    {
      "midi": 56,
      "hit": false,
      "t": 130249.99999999991,
      "d": 266.6666666666715,
      "v": 124
    },
    {
      "midi": 68,
      "hit": false,
      "t": 130249.99999999996,
      "d": 268.75,
      "v": 127
    },
    {
      "midi": 59,
      "hit": false,
      "t": 130374.99999999991,
      "d": 142.70833333334303,
      "v": 124
    },
    {
      "midi": 71,
      "hit": false,
      "t": 130374.99999999996,
      "d": 152.08333333332848,
      "v": 127
    },
    {
      "midi": 62,
      "hit": false,
      "t": 130499.99999999991,
      "d": 39.583333333343035,
      "v": 124
    },
    {
      "midi": 74,
      "hit": false,
      "t": 130499.99999999996,
      "d": 37.5,
      "v": 127
    },
    {
      "midi": 64,
      "hit": false,
      "t": 130624.99999999993,
      "d": 372.9166666666715,
      "v": 124
    },
    {
      "midi": 76,
      "hit": false,
      "t": 130624.99999999996,
      "d": 445.8333333333285,
      "v": 127
    },
    {
      "midi": 68,
      "hit": false,
      "t": 130749.99999999993,
      "d": 268.75,
      "v": 124
    },
    {
      "midi": 80,
      "hit": false,
      "t": 130749.99999999996,
      "d": 315.625,
      "v": 127
    },
    {
      "midi": 71,
      "hit": false,
      "t": 130874.99999999993,
      "d": 152.08333333332848,
      "v": 124
    },
    {
      "midi": 83,
      "hit": false,
      "t": 130874.99999999996,
      "d": 192.70833333332848,
      "v": 127
    },
    {
      "midi": 74,
      "hit": false,
      "t": 130999.99999999993,
      "d": 37.5,
      "v": 124
    },
    {
      "midi": 86,
      "hit": false,
      "t": 130999.99999999996,
      "d": 249.99999999998545,
      "v": 127
    },
    {
      "midi": 76,
      "hit": false,
      "t": 131124.99999999994,
      "d": 445.83333333334303,
      "v": 124
    },
    {
      "midi": 83,
      "hit": false,
      "t": 131249.99999999994,
      "d": 84.375,
      "v": 127
    },
    {
      "midi": 80,
      "hit": false,
      "t": 131249.99999999994,
      "d": 315.625,
      "v": 124
    },
    {
      "midi": 83,
      "hit": false,
      "t": 131374.99999999994,
      "d": 192.70833333334303,
      "v": 124
    },
    {
      "midi": 86,
      "hit": false,
      "t": 131499.99999999994,
      "d": 250,
      "v": 124
    },
    {
      "midi": 83,
      "hit": false,
      "t": 131749.99999999994,
      "d": 84.375,
      "v": 124
    },
    {
      "midi": 45,
      "hit": false,
      "t": 131999.99999999994,
      "d": 2612.500000000058,
      "v": 127
    },
    {
      "midi": 33,
      "hit": false,
      "t": 131999.99999999994,
      "d": 2620.8333333334012,
      "v": 127
    },
    {
      "midi": 47,
      "hit": false,
      "t": 132124.99999999994,
      "d": 172.91666666665697,
      "v": 127
    },
    {
      "midi": 48,
      "hit": false,
      "t": 132249.99999999994,
      "d": 203.125,
      "v": 127
    },
    {
      "midi": 52,
      "hit": false,
      "t": 132374.99999999994,
      "d": 121.875,
      "v": 127
    },
    {
      "midi": 57,
      "hit": false,
      "t": 132499.99999999994,
      "d": 47.916666666656965,
      "v": 127
    },
    {
      "midi": 45,
      "hit": false,
      "t": 132499.99999999994,
      "d": 2612.500000000058,
      "v": 125
    },
    {
      "midi": 33,
      "hit": false,
      "t": 132499.99999999994,
      "d": 2620.8333333334012,
      "v": 125
    },
    {
      "midi": 59,
      "hit": false,
      "t": 132624.99999999994,
      "d": 179.16666666665697,
      "v": 127
    },
    {
      "midi": 47,
      "hit": false,
      "t": 132624.99999999994,
      "d": 172.91666666665697,
      "v": 125
    },
    {
      "midi": 60,
      "hit": false,
      "t": 132749.99999999994,
      "d": 244.79166666665697,
      "v": 127
    },
    {
      "midi": 48,
      "hit": false,
      "t": 132749.99999999994,
      "d": 203.125,
      "v": 125
    },
    {
      "midi": 64,
      "hit": false,
      "t": 132874.99999999994,
      "d": 148.95833333334303,
      "v": 127
    },
    {
      "midi": 52,
      "hit": false,
      "t": 132874.99999999994,
      "d": 121.875,
      "v": 125
    },
    {
      "midi": 69,
      "hit": false,
      "t": 132999.99999999994,
      "d": 43.75,
      "v": 127
    },
    {
      "midi": 57,
      "hit": false,
      "t": 132999.99999999994,
      "d": 47.916666666656965,
      "v": 125
    },
    {
      "midi": 71,
      "hit": false,
      "t": 133124.99999999994,
      "d": 339.58333333334303,
      "v": 127
    },
    {
      "midi": 59,
      "hit": false,
      "t": 133124.99999999994,
      "d": 179.16666666665697,
      "v": 125
    },
    {
      "midi": 72,
      "hit": false,
      "t": 133249.99999999994,
      "d": 247.91666666668607,
      "v": 127
    },
    {
      "midi": 60,
      "hit": false,
      "t": 133249.99999999994,
      "d": 244.79166666665697,
      "v": 125
    },
    {
      "midi": 76,
      "hit": false,
      "t": 133374.99999999994,
      "d": 142.70833333337214,
      "v": 127
    },
    {
      "midi": 64,
      "hit": false,
      "t": 133374.99999999994,
      "d": 148.95833333334303,
      "v": 125
    },
    {
      "midi": 69,
      "hit": false,
      "t": 133499.99999999994,
      "d": 43.75,
      "v": 125
    },
    {
      "midi": 81,
      "hit": false,
      "t": 133499.99999999997,
      "d": 42.708333333343035,
      "v": 127
    },
    {
      "midi": 71,
      "hit": false,
      "t": 133624.99999999994,
      "d": 339.58333333334303,
      "v": 125
    },
    {
      "midi": 83,
      "hit": false,
      "t": 133624.99999999997,
      "d": 423.95833333334303,
      "v": 127
    },
    {
      "midi": 72,
      "hit": false,
      "t": 133749.99999999994,
      "d": 247.91666666668607,
      "v": 125
    },
    {
      "midi": 84,
      "hit": false,
      "t": 133749.99999999997,
      "d": 305.20833333334303,
      "v": 127
    },
    {
      "midi": 76,
      "hit": false,
      "t": 133874.99999999994,
      "d": 142.70833333337214,
      "v": 125
    },
    {
      "midi": 88,
      "hit": false,
      "t": 133874.99999999997,
      "d": 188.54166666668607,
      "v": 127
    },
    {
      "midi": 93,
      "hit": false,
      "t": 133999.99999999997,
      "d": 50,
      "v": 127
    },
    {
      "midi": 81,
      "hit": false,
      "t": 133999.99999999997,
      "d": 42.708333333343035,
      "v": 125
    },
    {
      "midi": 83,
      "hit": false,
      "t": 134124.99999999997,
      "d": 423.95833333334303,
      "v": 125
    },
    {
      "midi": 84,
      "hit": false,
      "t": 134249.99999999997,
      "d": 305.20833333334303,
      "v": 125
    },
    {
      "midi": 88,
      "hit": false,
      "t": 134374.99999999997,
      "d": 188.54166666668607,
      "v": 125
    },
    {
      "midi": 93,
      "hit": false,
      "t": 134499.99999999997,
      "d": 50,
      "v": 126
    }
  ]
}