{
  "jsonPath": "Soundtracks/Video Game Music/Legend of Zelda The Wind Waker/legend-of-zelda-the-the-wind-waker-landbattle.json",
  "path": "Soundtracks\\Video Game Music\\Legend of Zelda The Wind Waker\\Legend_Of_Zelda_The_The_Wind_Waker_LandBattle.mid",
  "name": "Legend_Of_Zelda_The_The_Wind_Waker_LandBattle",
  "difficulty": "Advanced",
  "bpm": 149.00020860029204,
  "notes": [
    {
      "midi": 41,
      "hit": false,
      "t": 3.9324609375,
      "d": 410.15567578125,
      "v": 69
    },
    {
      "midi": 60,
      "hit": false,
      "t": 3.9324609375,
      "d": 1606.4102929687501,
      "v": 56
    },
    {
      "midi": 65,
      "hit": false,
      "t": 3.9324609375,
      "d": 1606.4102929687501,
      "v": 70
    },
    {
      "midi": 53,
      "hit": false,
      "t": 414.48138281250004,
      "d": 398.75153906250006,
      "v": 65
    },
    {
      "midi": 56,
      "hit": false,
      "t": 1212.7709531250002,
      "d": 397.57180078125,
      "v": 65
    },
    {
      "midi": 62,
      "hit": false,
      "t": 1612.3089843750001,
      "d": 1608.7697695312502,
      "v": 56
    },
    {
      "midi": 67,
      "hit": false,
      "t": 1612.3089843750001,
      "d": 1608.7697695312502,
      "v": 70
    },
    {
      "midi": 53,
      "hit": false,
      "t": 2025.2173828125,
      "d": 398.7515390624999,
      "v": 65
    },
    {
      "midi": 56,
      "hit": false,
      "t": 2823.506953125,
      "d": 397.5718007812502,
      "v": 65
    },
    {
      "midi": 63,
      "hit": false,
      "t": 3223.0449843750002,
      "d": 1608.76976953125,
      "v": 56
    },
    {
      "midi": 68,
      "hit": false,
      "t": 3223.0449843750002,
      "d": 1608.76976953125,
      "v": 70
    },
    {
      "midi": 53,
      "hit": false,
      "t": 3635.9533828125004,
      "d": 398.7515390624999,
      "v": 65
    },
    {
      "midi": 38,
      "hit": false,
      "t": 4434.242953125,
      "d": 397.5718007812502,
      "v": 64
    },
    {
      "midi": 45,
      "hit": false,
      "t": 4833.780984375,
      "d": 412.51515234374983,
      "v": 69
    },
    {
      "midi": 62,
      "hit": false,
      "t": 4833.780984375,
      "d": 1608.7697695312509,
      "v": 56
    },
    {
      "midi": 69,
      "hit": false,
      "t": 4833.780984375,
      "d": 1608.7697695312509,
      "v": 70
    },
    {
      "midi": 53,
      "hit": false,
      "t": 5246.6893828125,
      "d": 398.75153906250034,
      "v": 65
    },
    {
      "midi": 56,
      "hit": false,
      "t": 6044.978953125001,
      "d": 397.5718007812502,
      "v": 65
    },
    {
      "midi": 63,
      "hit": false,
      "t": 6444.516984375001,
      "d": 1608.7697695312509,
      "v": 56
    },
    {
      "midi": 65,
      "hit": false,
      "t": 6444.516984375001,
      "d": 1608.7697695312509,
      "v": 56
    },
    {
      "midi": 70,
      "hit": false,
      "t": 6444.516984375001,
      "d": 1608.7697695312509,
      "v": 70
    },
    {
      "midi": 50,
      "hit": false,
      "t": 6857.425382812501,
      "d": 398.75153906250034,
      "v": 65
    },
    {
      "midi": 56,
      "hit": false,
      "t": 7655.714953125002,
      "d": 397.5718007812502,
      "v": 65
    },
    {
      "midi": 65,
      "hit": false,
      "t": 8055.252984375002,
      "d": 1210.8047226562485,
      "v": 56
    },
    {
      "midi": 67,
      "hit": false,
      "t": 8055.252984375002,
      "d": 1210.8047226562485,
      "v": 56
    },
    {
      "midi": 72,
      "hit": false,
      "t": 8055.252984375002,
      "d": 1210.8047226562485,
      "v": 70
    },
    {
      "midi": 50,
      "hit": false,
      "t": 8468.161382812501,
      "d": 398.75153906249943,
      "v": 65
    },
    {
      "midi": 58,
      "hit": false,
      "t": 8867.30616796875,
      "d": 398.75153906249943,
      "v": 67
    },
    {
      "midi": 37,
      "hit": false,
      "t": 9266.450953125,
      "d": 397.5718007812502,
      "v": 64
    },
    {
      "midi": 41,
      "hit": false,
      "t": 9665.988984375,
      "d": 412.51515234375074,
      "v": 69
    },
    {
      "midi": 60,
      "hit": false,
      "t": 9665.988984375,
      "d": 1608.7697695312509,
      "v": 56
    },
    {
      "midi": 65,
      "hit": false,
      "t": 9665.988984375,
      "d": 1608.7697695312509,
      "v": 70
    },
    {
      "midi": 53,
      "hit": false,
      "t": 10078.897382812502,
      "d": 398.75153906249943,
      "v": 65
    },
    {
      "midi": 56,
      "hit": false,
      "t": 10877.186953125001,
      "d": 397.5718007812502,
      "v": 65
    },
    {
      "midi": 62,
      "hit": false,
      "t": 11276.724984375001,
      "d": 1608.769769531249,
      "v": 56
    },
    {
      "midi": 67,
      "hit": false,
      "t": 11276.724984375001,
      "d": 1608.769769531249,
      "v": 70
    },
    {
      "midi": 53,
      "hit": false,
      "t": 11689.6333828125,
      "d": 398.75153906249943,
      "v": 65
    },
    {
      "midi": 56,
      "hit": false,
      "t": 12487.922953125,
      "d": 397.5718007812502,
      "v": 65
    },
    {
      "midi": 63,
      "hit": false,
      "t": 12887.460984375,
      "d": 1608.769769531249,
      "v": 56
    },
    {
      "midi": 68,
      "hit": false,
      "t": 12887.460984375,
      "d": 1608.769769531249,
      "v": 70
    },
    {
      "midi": 53,
      "hit": false,
      "t": 13300.3693828125,
      "d": 398.75153906249943,
      "v": 65
    },
    {
      "midi": 38,
      "hit": false,
      "t": 14098.658953125,
      "d": 397.5718007812502,
      "v": 64
    },
    {
      "midi": 45,
      "hit": false,
      "t": 14498.196984375,
      "d": 412.51515234375074,
      "v": 69
    },
    {
      "midi": 62,
      "hit": false,
      "t": 14498.196984375,
      "d": 1608.7697695312509,
      "v": 56
    },
    {
      "midi": 69,
      "hit": false,
      "t": 14498.196984375,
      "d": 1608.7697695312509,
      "v": 70
    },
    {
      "midi": 53,
      "hit": false,
      "t": 14911.1053828125,
      "d": 398.75153906249943,
      "v": 65
    },
    {
      "midi": 56,
      "hit": false,
      "t": 15709.394953125,
      "d": 397.5718007812502,
      "v": 65
    },
    {
      "midi": 63,
      "hit": false,
      "t": 16108.932984375,
      "d": 1608.7697695312509,
      "v": 56
    },
    {
      "midi": 65,
      "hit": false,
      "t": 16108.932984375,
      "d": 1608.7697695312509,
      "v": 56
    },
    {
      "midi": 70,
      "hit": false,
      "t": 16108.932984375,
      "d": 1608.7697695312509,
      "v": 70
    },
    {
      "midi": 50,
      "hit": false,
      "t": 16521.8413828125,
      "d": 398.75153906250125,
      "v": 65
    },
    {
      "midi": 56,
      "hit": false,
      "t": 17320.130953125,
      "d": 397.5718007812502,
      "v": 65
    },
    {
      "midi": 65,
      "hit": false,
      "t": 17719.668984375003,
      "d": 1210.8047226562521,
      "v": 56
    },
    {
      "midi": 67,
      "hit": false,
      "t": 17719.668984375003,
      "d": 1210.8047226562521,
      "v": 56
    },
    {
      "midi": 72,
      "hit": false,
      "t": 17719.668984375003,
      "d": 1210.8047226562521,
      "v": 70
    },
    {
      "midi": 50,
      "hit": false,
      "t": 18132.577382812502,
      "d": 398.75153906250125,
      "v": 65
    },
    {
      "midi": 58,
      "hit": false,
      "t": 18531.722167968754,
      "d": 398.75153906250125,
      "v": 67
    },
    {
      "midi": 37,
      "hit": false,
      "t": 18930.866953125005,
      "d": 397.5718007812502,
      "v": 64
    },
    {
      "midi": 43,
      "hit": false,
      "t": 19330.404984375007,
      "d": 412.5151523437489,
      "v": 69
    },
    {
      "midi": 62,
      "hit": false,
      "t": 19330.404984375007,
      "d": 1608.769769531249,
      "v": 56
    },
    {
      "midi": 67,
      "hit": false,
      "t": 19330.404984375007,
      "d": 1608.769769531249,
      "v": 70
    },
    {
      "midi": 55,
      "hit": false,
      "t": 19743.313382812506,
      "d": 398.75153906250125,
      "v": 65
    },
    {
      "midi": 48,
      "hit": false,
      "t": 20541.602953125006,
      "d": 397.5718007812502,
      "v": 65
    },
    {
      "midi": 63,
      "hit": false,
      "t": 20941.140984375008,
      "d": 1608.769769531249,
      "v": 56
    },
    {
      "midi": 68,
      "hit": false,
      "t": 20941.140984375008,
      "d": 1608.769769531249,
      "v": 70
    },
    {
      "midi": 55,
      "hit": false,
      "t": 21354.049382812507,
      "d": 398.75153906250125,
      "v": 65
    },
    {
      "midi": 58,
      "hit": false,
      "t": 22152.338953125007,
      "d": 397.5718007812502,
      "v": 65
    },
    {
      "midi": 55,
      "hit": false,
      "t": 22551.87698437501,
      "d": 412.5151523437489,
      "v": 69
    },
    {
      "midi": 65,
      "hit": false,
      "t": 22551.87698437501,
      "d": 1210.8047226562485,
      "v": 56
    },
    {
      "midi": 70,
      "hit": false,
      "t": 22551.87698437501,
      "d": 1210.8047226562485,
      "v": 70
    },
    {
      "midi": 60,
      "hit": false,
      "t": 23363.930167968756,
      "d": 398.75153906250125,
      "v": 67
    },
    {
      "midi": 43,
      "hit": false,
      "t": 23763.074953125008,
      "d": 397.5718007812502,
      "v": 65
    },
    {
      "midi": 43,
      "hit": false,
      "t": 24162.61298437501,
      "d": 412.5151523437489,
      "v": 69
    },
    {
      "midi": 65,
      "hit": false,
      "t": 24162.61298437501,
      "d": 1608.769769531249,
      "v": 56
    },
    {
      "midi": 71,
      "hit": false,
      "t": 24162.61298437501,
      "d": 1608.769769531249,
      "v": 56
    },
    {
      "midi": 73,
      "hit": false,
      "t": 24162.61298437501,
      "d": 1608.769769531249,
      "v": 70
    },
    {
      "midi": 49,
      "hit": false,
      "t": 25373.81095312501,
      "d": 397.5718007812502,
      "v": 65
    },
    {
      "midi": 37,
      "hit": false,
      "t": 25773.34898437501,
      "d": 412.5151523437489,
      "v": 68
    },
    {
      "midi": 61,
      "hit": false,
      "t": 25773.34898437501,
      "d": 1608.769769531249,
      "v": 56
    },
    {
      "midi": 67,
      "hit": false,
      "t": 25773.34898437501,
      "d": 1608.769769531249,
      "v": 56
    },
    {
      "midi": 69,
      "hit": false,
      "t": 25773.34898437501,
      "d": 1608.769769531249,
      "v": 70
    },
    {
      "midi": 49,
      "hit": false,
      "t": 26186.25738281251,
      "d": 398.75153906250125,
      "v": 65
    },
    {
      "midi": 46,
      "hit": false,
      "t": 26984.54695312501,
      "d": 397.5718007812502,
      "v": 65
    },
    {
      "midi": 50,
      "hit": false,
      "t": 27384.08498437501,
      "d": 412.5151523437489,
      "v": 69
    },
    {
      "midi": 62,
      "hit": false,
      "t": 27384.08498437501,
      "d": 611.1044296875007,
      "v": 72
    },
    {
      "midi": 67,
      "hit": false,
      "t": 27384.08498437501,
      "d": 611.1044296875007,
      "v": 61
    },
    {
      "midi": 69,
      "hit": false,
      "t": 27384.08498437501,
      "d": 611.1044296875007,
      "v": 67
    },
    {
      "midi": 61,
      "hit": false,
      "t": 27995.582660156262,
      "d": 200.1622617187495,
      "v": 64
    },
    {
      "midi": 55,
      "hit": false,
      "t": 28595.282953125014,
      "d": 397.5718007812502,
      "v": 65
    },
    {
      "midi": 41,
      "hit": false,
      "t": 28994.820984375016,
      "d": 412.5151523437489,
      "v": 69
    },
    {
      "midi": 60,
      "hit": false,
      "t": 28994.820984375016,
      "d": 1608.769769531249,
      "v": 56
    },
    {
      "midi": 65,
      "hit": false,
      "t": 28994.820984375016,
      "d": 1608.769769531249,
      "v": 70
    },
    {
      "midi": 53,
      "hit": false,
      "t": 29407.729382812515,
      "d": 398.75153906250125,
      "v": 65
    },
    {
      "midi": 56,
      "hit": false,
      "t": 30206.018953125014,
      "d": 397.5718007812502,
      "v": 65
    },
    {
      "midi": 62,
      "hit": false,
      "t": 30605.556984375016,
      "d": 1608.7697695312527,
      "v": 56
    },
    {
      "midi": 67,
      "hit": false,
      "t": 30605.556984375016,
      "d": 1608.7697695312527,
      "v": 70
    },
    {
      "midi": 53,
      "hit": false,
      "t": 31018.46538281252,
      "d": 398.75153906250125,
      "v": 65
    },
    {
      "midi": 56,
      "hit": false,
      "t": 31816.75495312502,
      "d": 397.5718007812502,
      "v": 65
    },
    {
      "midi": 63,
      "hit": false,
      "t": 32216.29298437502,
      "d": 1608.7697695312418,
      "v": 56
    },
    {
      "midi": 68,
      "hit": false,
      "t": 32216.29298437502,
      "d": 1608.7697695312418,
      "v": 70
    },
    {
      "midi": 53,
      "hit": false,
      "t": 32629.20138281252,
      "d": 398.7515390624976,
      "v": 65
    },
    {
      "midi": 38,
      "hit": false,
      "t": 33427.490953125016,
      "d": 397.57180078124657,
      "v": 64
    },
    {
      "midi": 45,
      "hit": false,
      "t": 33827.028984375014,
      "d": 412.51515234375256,
      "v": 69
    },
    {
      "midi": 62,
      "hit": false,
      "t": 33827.028984375014,
      "d": 1608.7697695312454,
      "v": 56
    },
    {
      "midi": 69,
      "hit": false,
      "t": 33827.028984375014,
      "d": 1608.7697695312454,
      "v": 70
    },
    {
      "midi": 53,
      "hit": false,
      "t": 34239.93738281252,
      "d": 398.7515390624976,
      "v": 65
    },
    {
      "midi": 56,
      "hit": false,
      "t": 35038.22695312501,
      "d": 397.57180078124657,
      "v": 65
    },
    {
      "midi": 63,
      "hit": false,
      "t": 35437.76498437501,
      "d": 1608.7697695312454,
      "v": 56
    },
    {
      "midi": 65,
      "hit": false,
      "t": 35437.76498437501,
      "d": 1608.7697695312454,
      "v": 56
    },
    {
      "midi": 70,
      "hit": false,
      "t": 35437.76498437501,
      "d": 1608.7697695312454,
      "v": 70
    },
    {
      "midi": 50,
      "hit": false,
      "t": 35850.673382812514,
      "d": 398.7515390624976,
      "v": 65
    },
    {
      "midi": 56,
      "hit": false,
      "t": 36648.96295312501,
      "d": 397.57180078124657,
      "v": 65
    },
    {
      "midi": 65,
      "hit": false,
      "t": 37048.50098437501,
      "d": 1210.8047226562485,
      "v": 56
    },
    {
      "midi": 67,
      "hit": false,
      "t": 37048.50098437501,
      "d": 1210.8047226562485,
      "v": 56
    },
    {
      "midi": 72,
      "hit": false,
      "t": 37048.50098437501,
      "d": 1210.8047226562485,
      "v": 70
    },
    {
      "midi": 50,
      "hit": false,
      "t": 37461.40938281251,
      "d": 398.7515390624976,
      "v": 65
    },
    {
      "midi": 58,
      "hit": false,
      "t": 37860.55416796876,
      "d": 398.7515390624976,
      "v": 67
    },
    {
      "midi": 37,
      "hit": false,
      "t": 38259.69895312501,
      "d": 397.57180078124657,
      "v": 64
    },
    {
      "midi": 43,
      "hit": false,
      "t": 38659.236984375006,
      "d": 412.51515234375256,
      "v": 69
    },
    {
      "midi": 62,
      "hit": false,
      "t": 38659.236984375006,
      "d": 1608.7697695312527,
      "v": 56
    },
    {
      "midi": 67,
      "hit": false,
      "t": 38659.236984375006,
      "d": 1608.7697695312527,
      "v": 70
    },
    {
      "midi": 55,
      "hit": false,
      "t": 39072.14538281251,
      "d": 398.7515390624976,
      "v": 65
    },
    {
      "midi": 48,
      "hit": false,
      "t": 39870.43495312501,
      "d": 397.57180078124657,
      "v": 65
    },
    {
      "midi": 63,
      "hit": false,
      "t": 40269.97298437501,
      "d": 1608.7697695312454,
      "v": 56
    },
    {
      "midi": 68,
      "hit": false,
      "t": 40269.97298437501,
      "d": 1608.7697695312454,
      "v": 70
    },
    {
      "midi": 55,
      "hit": false,
      "t": 40682.88138281251,
      "d": 398.7515390624976,
      "v": 65
    },
    {
      "midi": 58,
      "hit": false,
      "t": 41481.17095312501,
      "d": 397.57180078124657,
      "v": 65
    },
    {
      "midi": 55,
      "hit": false,
      "t": 41880.70898437501,
      "d": 412.51515234375256,
      "v": 69
    },
    {
      "midi": 65,
      "hit": false,
      "t": 41880.70898437501,
      "d": 1210.8047226562485,
      "v": 56
    },
    {
      "midi": 70,
      "hit": false,
      "t": 41880.70898437501,
      "d": 1210.8047226562485,
      "v": 70
    },
    {
      "midi": 60,
      "hit": false,
      "t": 42692.76216796876,
      "d": 398.7515390624976,
      "v": 67
    },
    {
      "midi": 43,
      "hit": false,
      "t": 43091.906953125006,
      "d": 397.57180078124657,
      "v": 65
    },
    {
      "midi": 43,
      "hit": false,
      "t": 43491.444984375004,
      "d": 412.51515234375256,
      "v": 69
    },
    {
      "midi": 65,
      "hit": false,
      "t": 43491.444984375004,
      "d": 1608.7697695312527,
      "v": 56
    },
    {
      "midi": 71,
      "hit": false,
      "t": 43491.444984375004,
      "d": 1608.7697695312527,
      "v": 56
    },
    {
      "midi": 73,
      "hit": false,
      "t": 43491.444984375004,
      "d": 1608.7697695312527,
      "v": 70
    },
    {
      "midi": 49,
      "hit": false,
      "t": 44702.64295312501,
      "d": 413.301644531246,
      "v": 53
    },
    {
      "midi": 37,
      "hit": false,
      "t": 45102.18098437501,
      "d": 428.2449960937447,
      "v": 56
    },
    {
      "midi": 61,
      "hit": false,
      "t": 45102.18098437501,
      "d": 1608.7697695312381,
      "v": 56
    },
    {
      "midi": 67,
      "hit": false,
      "t": 45102.18098437501,
      "d": 1608.7697695312381,
      "v": 56
    },
    {
      "midi": 69,
      "hit": false,
      "t": 45102.18098437501,
      "d": 1608.7697695312381,
      "v": 70
    },
    {
      "midi": 49,
      "hit": false,
      "t": 45515.089382812504,
      "d": 414.48138281249703,
      "v": 53
    },
    {
      "midi": 46,
      "hit": false,
      "t": 46313.378953125,
      "d": 413.301644531246,
      "v": 53
    },
    {
      "midi": 50,
      "hit": false,
      "t": 46712.916984375,
      "d": 428.2449960937447,
      "v": 57
    },
    {
      "midi": 62,
      "hit": false,
      "t": 46712.916984375,
      "d": 611.104429687497,
      "v": 72
    },
    {
      "midi": 67,
      "hit": false,
      "t": 46712.916984375,
      "d": 611.104429687497,
      "v": 61
    },
    {
      "midi": 69,
      "hit": false,
      "t": 46712.916984375,
      "d": 611.104429687497,
      "v": 67
    },
    {
      "midi": 61,
      "hit": false,
      "t": 47324.414660156246,
      "d": 215.89210546875256,
      "v": 64
    },
    {
      "midi": 55,
      "hit": false,
      "t": 47924.114953125,
      "d": 413.301644531246,
      "v": 53
    },
    {
      "midi": 41,
      "hit": false,
      "t": 48323.652984374996,
      "d": 428.2449960937447,
      "v": 57
    },
    {
      "midi": 60,
      "hit": false,
      "t": 48323.652984374996,
      "d": 1210.8047226562485,
      "v": 56
    },
    {
      "midi": 65,
      "hit": false,
      "t": 48323.652984374996,
      "d": 1210.8047226562485,
      "v": 70
    },
    {
      "midi": 39,
      "hit": false,
      "t": 48935.15066015624,
      "d": 188.36487890624994,
      "v": 63
    },
    {
      "midi": 41,
      "hit": false,
      "t": 49135.70616796875,
      "d": 398.7515390624976,
      "v": 67
    },
    {
      "midi": 41,
      "hit": false,
      "t": 49534.850953124995,
      "d": 397.57180078124657,
      "v": 65
    },
    {
      "midi": 62,
      "hit": false,
      "t": 49534.850953124995,
      "d": 1211.1979687499988,
      "v": 57
    },
    {
      "midi": 67,
      "hit": false,
      "t": 49534.850953124995,
      "d": 1211.1979687499988,
      "v": 71
    },
    {
      "midi": 39,
      "hit": false,
      "t": 50147.52836718749,
      "d": 187.57838671874924,
      "v": 63
    },
    {
      "midi": 41,
      "hit": false,
      "t": 50347.297382812496,
      "d": 398.7515390624976,
      "v": 65
    },
    {
      "midi": 41,
      "hit": false,
      "t": 50746.442167968744,
      "d": 398.7515390624976,
      "v": 67
    },
    {
      "midi": 63,
      "hit": false,
      "t": 50746.442167968744,
      "d": 1211.1979687499988,
      "v": 59
    },
    {
      "midi": 68,
      "hit": false,
      "t": 50746.442167968744,
      "d": 1211.1979687499988,
      "v": 73
    },
    {
      "midi": 39,
      "hit": false,
      "t": 51344.17623046874,
      "d": 187.1851406249989,
      "v": 63
    },
    {
      "midi": 41,
      "hit": false,
      "t": 51545.12498437499,
      "d": 412.51515234375256,
      "v": 69
    },
    {
      "midi": 41,
      "hit": false,
      "t": 51958.03338281249,
      "d": 398.7515390624976,
      "v": 65
    },
    {
      "midi": 65,
      "hit": false,
      "t": 51958.03338281249,
      "d": 1195.861371093757,
      "v": 56
    },
    {
      "midi": 70,
      "hit": false,
      "t": 51958.03338281249,
      "d": 1195.861371093757,
      "v": 70
    },
    {
      "midi": 48,
      "hit": false,
      "t": 52357.17816796874,
      "d": 188.36487890624994,
      "v": 67
    },
    {
      "midi": 53,
      "hit": false,
      "t": 52557.733675781245,
      "d": 186.3986484374982,
      "v": 64
    },
    {
      "midi": 58,
      "hit": false,
      "t": 52756.322953124996,
      "d": 186.3986484374982,
      "v": 65
    },
    {
      "midi": 51,
      "hit": false,
      "t": 52954.91223046875,
      "d": 187.1851406249989,
      "v": 64
    },
    {
      "midi": 41,
      "hit": false,
      "t": 53155.860984375,
      "d": 412.51515234375256,
      "v": 69
    },
    {
      "midi": 60,
      "hit": false,
      "t": 53155.860984375,
      "d": 1210.8047226562558,
      "v": 56
    },
    {
      "midi": 65,
      "hit": false,
      "t": 53155.860984375,
      "d": 1210.8047226562558,
      "v": 70
    },
    {
      "midi": 39,
      "hit": false,
      "t": 53767.35866015626,
      "d": 188.36487890624994,
      "v": 63
    },
    {
      "midi": 41,
      "hit": false,
      "t": 53967.91416796876,
      "d": 398.7515390624976,
      "v": 67
    },
    {
      "midi": 41,
      "hit": false,
      "t": 54367.05895312501,
      "d": 397.57180078124657,
      "v": 65
    },
    {
      "midi": 62,
      "hit": false,
      "t": 54367.05895312501,
      "d": 1211.1979687499988,
      "v": 57
    },
    {
      "midi": 67,
      "hit": false,
      "t": 54367.05895312501,
      "d": 1211.1979687499988,
      "v": 71
    },
    {
      "midi": 39,
      "hit": false,
      "t": 54979.73636718751,
      "d": 187.57838671874924,
      "v": 63
    },
    {
      "midi": 41,
      "hit": false,
      "t": 55179.50538281251,
      "d": 398.7515390624976,
      "v": 65
    },
    {
      "midi": 41,
      "hit": false,
      "t": 55578.65016796876,
      "d": 398.7515390624976,
      "v": 67
    },
    {
      "midi": 63,
      "hit": false,
      "t": 55578.65016796876,
      "d": 1211.1979687499988,
      "v": 59
    },
    {
      "midi": 68,
      "hit": false,
      "t": 55578.65016796876,
      "d": 1211.1979687499988,
      "v": 73
    },
    {
      "midi": 39,
      "hit": false,
      "t": 56176.38423046876,
      "d": 187.1851406249989,
      "v": 63
    },
    {
      "midi": 41,
      "hit": false,
      "t": 56377.332984375,
      "d": 412.51515234375256,
      "v": 69
    },
    {
      "midi": 41,
      "hit": false,
      "t": 56790.241382812506,
      "d": 398.7515390624976,
      "v": 65
    },
    {
      "midi": 65,
      "hit": false,
      "t": 56790.241382812506,
      "d": 1195.861371093757,
      "v": 56
    },
    {
      "midi": 70,
      "hit": false,
      "t": 56790.241382812506,
      "d": 1195.861371093757,
      "v": 70
    },
    {
      "midi": 50,
      "hit": false,
      "t": 57189.386167968754,
      "d": 188.36487890624994,
      "v": 67
    },
    {
      "midi": 55,
      "hit": false,
      "t": 57389.94167578126,
      "d": 186.3986484374982,
      "v": 64
    },
    {
      "midi": 60,
      "hit": false,
      "t": 57588.53095312501,
      "d": 186.3986484374982,
      "v": 65
    },
    {
      "midi": 53,
      "hit": false,
      "t": 57787.12023046876,
      "d": 187.1851406249989,
      "v": 64
    },
    {
      "midi": 45,
      "hit": false,
      "t": 57988.068984375015,
      "d": 412.51515234375256,
      "v": 69
    },
    {
      "midi": 66,
      "hit": false,
      "t": 57988.068984375015,
      "d": 1210.8047226562558,
      "v": 56
    },
    {
      "midi": 71,
      "hit": false,
      "t": 57988.068984375015,
      "d": 1210.8047226562558,
      "v": 70
    },
    {
      "midi": 43,
      "hit": false,
      "t": 58599.56666015627,
      "d": 188.36487890624994,
      "v": 64
    },
    {
      "midi": 45,
      "hit": false,
      "t": 58800.12216796877,
      "d": 398.7515390624976,
      "v": 67
    },
    {
      "midi": 45,
      "hit": false,
      "t": 59199.26695312502,
      "d": 397.57180078124657,
      "v": 65
    },
    {
      "midi": 68,
      "hit": false,
      "t": 59199.26695312502,
      "d": 1211.1979687499988,
      "v": 57
    },
    {
      "midi": 73,
      "hit": false,
      "t": 59199.26695312502,
      "d": 1211.1979687499988,
      "v": 71
    },
    {
      "midi": 43,
      "hit": false,
      "t": 59811.94436718752,
      "d": 187.57838671874924,
      "v": 64
    },
    {
      "midi": 45,
      "hit": false,
      "t": 60011.71338281252,
      "d": 398.7515390624976,
      "v": 65
    },
    {
      "midi": 45,
      "hit": false,
      "t": 60410.85816796877,
      "d": 398.7515390624976,
      "v": 67
    },
    {
      "midi": 69,
      "hit": false,
      "t": 60410.85816796877,
      "d": 1211.1979687499988,
      "v": 59
    },
    {
      "midi": 74,
      "hit": false,
      "t": 60410.85816796877,
      "d": 1211.1979687499988,
      "v": 73
    },
    {
      "midi": 43,
      "hit": false,
      "t": 61008.59223046877,
      "d": 187.1851406249989,
      "v": 64
    },
    {
      "midi": 45,
      "hit": false,
      "t": 61209.54098437502,
      "d": 412.51515234375256,
      "v": 69
    },
    {
      "midi": 45,
      "hit": false,
      "t": 61622.44938281252,
      "d": 398.7515390624976,
      "v": 65
    },
    {
      "midi": 71,
      "hit": false,
      "t": 61622.44938281252,
      "d": 1195.861371093757,
      "v": 56
    },
    {
      "midi": 76,
      "hit": false,
      "t": 61622.44938281252,
      "d": 1195.861371093757,
      "v": 70
    },
    {
      "midi": 54,
      "hit": false,
      "t": 62021.59416796877,
      "d": 188.36487890624994,
      "v": 67
    },
    {
      "midi": 59,
      "hit": false,
      "t": 62222.14967578127,
      "d": 186.3986484374982,
      "v": 64
    },
    {
      "midi": 64,
      "hit": false,
      "t": 62420.73895312502,
      "d": 186.3986484374982,
      "v": 65
    },
    {
      "midi": 56,
      "hit": false,
      "t": 62619.328230468775,
      "d": 187.1851406249989,
      "v": 64
    },
    {
      "midi": 41,
      "hit": false,
      "t": 62820.27698437503,
      "d": 412.51515234375256,
      "v": 69
    },
    {
      "midi": 60,
      "hit": false,
      "t": 62820.27698437503,
      "d": 1210.8047226562558,
      "v": 56
    },
    {
      "midi": 65,
      "hit": false,
      "t": 62820.27698437503,
      "d": 1210.8047226562558,
      "v": 70
    },
    {
      "midi": 39,
      "hit": false,
      "t": 63431.77466015628,
      "d": 188.36487890624994,
      "v": 63
    },
    {
      "midi": 41,
      "hit": false,
      "t": 63632.33016796879,
      "d": 398.7515390624976,
      "v": 67
    },
    {
      "midi": 41,
      "hit": false,
      "t": 64031.474953125035,
      "d": 397.57180078124657,
      "v": 65
    },
    {
      "midi": 62,
      "hit": false,
      "t": 64031.474953125035,
      "d": 1211.1979687499988,
      "v": 57
    },
    {
      "midi": 67,
      "hit": false,
      "t": 64031.474953125035,
      "d": 1211.1979687499988,
      "v": 71
    },
    {
      "midi": 39,
      "hit": false,
      "t": 64644.15236718753,
      "d": 187.57838671874924,
      "v": 63
    },
    {
      "midi": 41,
      "hit": false,
      "t": 64843.921382812536,
      "d": 398.7515390624976,
      "v": 65
    },
    {
      "midi": 41,
      "hit": false,
      "t": 65243.066167968784,
      "d": 398.7515390624976,
      "v": 67
    },
    {
      "midi": 63,
      "hit": false,
      "t": 65243.066167968784,
      "d": 1211.197968750006,
      "v": 59
    },
    {
      "midi": 68,
      "hit": false,
      "t": 65243.066167968784,
      "d": 1211.197968750006,
      "v": 73
    },
    {
      "midi": 39,
      "hit": false,
      "t": 65840.80023046878,
      "d": 187.18514062500617,
      "v": 63
    },
    {
      "midi": 41,
      "hit": false,
      "t": 66041.74898437504,
      "d": 412.51515234375256,
      "v": 69
    },
    {
      "midi": 41,
      "hit": false,
      "t": 66454.65738281254,
      "d": 398.7515390625049,
      "v": 65
    },
    {
      "midi": 65,
      "hit": false,
      "t": 66454.65738281254,
      "d": 1195.8613710937643,
      "v": 56
    },
    {
      "midi": 70,
      "hit": false,
      "t": 66454.65738281254,
      "d": 1195.8613710937643,
      "v": 70
    },
    {
      "midi": 48,
      "hit": false,
      "t": 66853.8021679688,
      "d": 188.36487890625722,
      "v": 67
    },
    {
      "midi": 53,
      "hit": false,
      "t": 67054.3576757813,
      "d": 186.39864843750547,
      "v": 64
    },
    {
      "midi": 58,
      "hit": false,
      "t": 67252.94695312505,
      "d": 186.39864843750547,
      "v": 65
    },
    {
      "midi": 51,
      "hit": false,
      "t": 67451.5362304688,
      "d": 187.18514062500617,
      "v": 64
    },
    {
      "midi": 41,
      "hit": false,
      "t": 67652.48498437506,
      "d": 412.51515234375256,
      "v": 69
    },
    {
      "midi": 60,
      "hit": false,
      "t": 67652.48498437506,
      "d": 1210.804722656263,
      "v": 56
    },
    {
      "midi": 65,
      "hit": false,
      "t": 67652.48498437506,
      "d": 1210.804722656263,
      "v": 70
    },
    {
      "midi": 39,
      "hit": false,
      "t": 68263.98266015631,
      "d": 188.36487890625722,
      "v": 63
    },
    {
      "midi": 41,
      "hit": false,
      "t": 68464.53816796881,
      "d": 398.7515390625049,
      "v": 67
    },
    {
      "midi": 41,
      "hit": false,
      "t": 68863.68295312507,
      "d": 397.57180078125384,
      "v": 65
    },
    {
      "midi": 62,
      "hit": false,
      "t": 68863.68295312507,
      "d": 1211.1979687500134,
      "v": 57
    },
    {
      "midi": 67,
      "hit": false,
      "t": 68863.68295312507,
      "d": 1211.1979687500134,
      "v": 71
    },
    {
      "midi": 39,
      "hit": false,
      "t": 69476.36036718758,
      "d": 187.57838671875652,
      "v": 63
    },
    {
      "midi": 41,
      "hit": false,
      "t": 69676.12938281258,
      "d": 398.7515390625049,
      "v": 65
    },
    {
      "midi": 41,
      "hit": false,
      "t": 70075.27416796883,
      "d": 398.7515390625049,
      "v": 67
    },
    {
      "midi": 63,
      "hit": false,
      "t": 70075.27416796883,
      "d": 1211.1979687500134,
      "v": 59
    },
    {
      "midi": 68,
      "hit": false,
      "t": 70075.27416796883,
      "d": 1211.1979687500134,
      "v": 73
    },
    {
      "midi": 39,
      "hit": false,
      "t": 70673.00823046884,
      "d": 187.18514062500617,
      "v": 63
    },
    {
      "midi": 41,
      "hit": false,
      "t": 70873.9569843751,
      "d": 412.51515234375256,
      "v": 69
    },
    {
      "midi": 41,
      "hit": false,
      "t": 71286.8653828126,
      "d": 398.7515390625049,
      "v": 65
    },
    {
      "midi": 65,
      "hit": false,
      "t": 71286.8653828126,
      "d": 1195.8613710937643,
      "v": 56
    },
    {
      "midi": 70,
      "hit": false,
      "t": 71286.8653828126,
      "d": 1195.8613710937643,
      "v": 70
    },
    {
      "midi": 50,
      "hit": false,
      "t": 71686.01016796885,
      "d": 188.36487890625722,
      "v": 67
    },
    {
      "midi": 55,
      "hit": false,
      "t": 71886.56567578136,
      "d": 186.39864843750547,
      "v": 64
    },
    {
      "midi": 60,
      "hit": false,
      "t": 72085.15495312511,
      "d": 186.39864843750547,
      "v": 65
    },
    {
      "midi": 53,
      "hit": false,
      "t": 72283.74423046886,
      "d": 187.18514062500617,
      "v": 64
    },
    {
      "midi": 45,
      "hit": false,
      "t": 72484.69298437511,
      "d": 412.51515234375256,
      "v": 69
    },
    {
      "midi": 66,
      "hit": false,
      "t": 72484.69298437511,
      "d": 1210.804722656263,
      "v": 56
    },
    {
      "midi": 71,
      "hit": false,
      "t": 72484.69298437511,
      "d": 1210.804722656263,
      "v": 70
    },
    {
      "midi": 43,
      "hit": false,
      "t": 73096.19066015637,
      "d": 188.36487890625722,
      "v": 64
    },
    {
      "midi": 45,
      "hit": false,
      "t": 73296.74616796887,
      "d": 398.7515390625049,
      "v": 67
    },
    {
      "midi": 45,
      "hit": false,
      "t": 73695.89095312513,
      "d": 397.57180078125384,
      "v": 65
    },
    {
      "midi": 68,
      "hit": false,
      "t": 73695.89095312513,
      "d": 1211.1979687500134,
      "v": 57
    },
    {
      "midi": 73,
      "hit": false,
      "t": 73695.89095312513,
      "d": 1211.1979687500134,
      "v": 71
    },
    {
      "midi": 43,
      "hit": false,
      "t": 74308.56836718763,
      "d": 187.57838671875652,
      "v": 64
    },
    {
      "midi": 45,
      "hit": false,
      "t": 74508.33738281264,
      "d": 398.7515390625049,
      "v": 65
    },
    {
      "midi": 45,
      "hit": false,
      "t": 74907.48216796889,
      "d": 398.7515390625049,
      "v": 67
    },
    {
      "midi": 69,
      "hit": false,
      "t": 74907.48216796889,
      "d": 1211.1979687500134,
      "v": 59
    },
    {
      "midi": 74,
      "hit": false,
      "t": 74907.48216796889,
      "d": 1211.1979687500134,
      "v": 73
    },
    {
      "midi": 43,
      "hit": false,
      "t": 75505.2162304689,
      "d": 187.18514062500617,
      "v": 64
    },
    {
      "midi": 45,
      "hit": false,
      "t": 75706.16498437515,
      "d": 412.51515234375256,
      "v": 69
    },
    {
      "midi": 45,
      "hit": false,
      "t": 76119.07338281265,
      "d": 398.7515390625049,
      "v": 65
    },
    {
      "midi": 71,
      "hit": false,
      "t": 76119.07338281265,
      "d": 1195.8613710937643,
      "v": 56
    },
    {
      "midi": 76,
      "hit": false,
      "t": 76119.07338281265,
      "d": 1195.8613710937643,
      "v": 70
    },
    {
      "midi": 54,
      "hit": false,
      "t": 76518.21816796891,
      "d": 188.36487890625722,
      "v": 67
    },
    {
      "midi": 59,
      "hit": false,
      "t": 76718.77367578141,
      "d": 186.39864843750547,
      "v": 64
    },
    {
      "midi": 64,
      "hit": false,
      "t": 76917.36295312516,
      "d": 186.39864843750547,
      "v": 65
    },
    {
      "midi": 56,
      "hit": false,
      "t": 77115.95223046892,
      "d": 187.18514062500617,
      "v": 64
    },
    {
      "midi": 48,
      "hit": false,
      "t": 77316.90098437517,
      "d": 1608.7697695312672,
      "v": 56
    },
    {
      "midi": 53,
      "hit": false,
      "t": 77316.90098437517,
      "d": 1608.7697695312672,
      "v": 70
    },
    {
      "midi": 72,
      "hit": false,
      "t": 77729.80938281267,
      "d": 186.39864843750547,
      "v": 57
    },
    {
      "midi": 77,
      "hit": false,
      "t": 77729.80938281267,
      "d": 186.39864843750547,
      "v": 71
    },
    {
      "midi": 69,
      "hit": false,
      "t": 77928.39866015642,
      "d": 188.36487890625722,
      "v": 56
    },
    {
      "midi": 74,
      "hit": false,
      "t": 77928.39866015642,
      "d": 188.36487890625722,
      "v": 70
    },
    {
      "midi": 69,
      "hit": false,
      "t": 78726.68823046894,
      "d": 187.18514062500617,
      "v": 56
    },
    {
      "midi": 74,
      "hit": false,
      "t": 78726.68823046894,
      "d": 187.18514062500617,
      "v": 70
    },
    {
      "midi": 74,
      "hit": false,
      "t": 78927.63698437519,
      "d": 412.51515234375256,
      "v": 61
    },
    {
      "midi": 80,
      "hit": false,
      "t": 78927.63698437519,
      "d": 412.51515234375256,
      "v": 75
    },
    {
      "midi": 50,
      "hit": false,
      "t": 78927.63698437519,
      "d": 1608.7697695312672,
      "v": 56
    },
    {
      "midi": 55,
      "hit": false,
      "t": 78927.63698437519,
      "d": 1608.7697695312672,
      "v": 70
    },
    {
      "midi": 72,
      "hit": false,
      "t": 79739.69016796895,
      "d": 188.36487890625722,
      "v": 59
    },
    {
      "midi": 77,
      "hit": false,
      "t": 79739.69016796895,
      "d": 188.36487890625722,
      "v": 73
    },
    {
      "midi": 69,
      "hit": false,
      "t": 79940.24567578145,
      "d": 186.39864843750547,
      "v": 56
    },
    {
      "midi": 73,
      "hit": false,
      "t": 79940.24567578145,
      "d": 186.39864843750547,
      "v": 70
    },
    {
      "midi": 75,
      "hit": false,
      "t": 80138.8349531252,
      "d": 186.39864843750547,
      "v": 57
    },
    {
      "midi": 80,
      "hit": false,
      "t": 80138.8349531252,
      "d": 186.39864843750547,
      "v": 71
    },
    {
      "midi": 77,
      "hit": false,
      "t": 80337.42423046895,
      "d": 187.18514062500617,
      "v": 56
    },
    {
      "midi": 82,
      "hit": false,
      "t": 80337.42423046895,
      "d": 187.18514062500617,
      "v": 70
    },
    {
      "midi": 77,
      "hit": false,
      "t": 80538.37298437521,
      "d": 108.92916796874488,
      "v": 69
    },
    {
      "midi": 51,
      "hit": false,
      "t": 80538.37298437521,
      "d": 1608.7697695312527,
      "v": 56
    },
    {
      "midi": 56,
      "hit": false,
      "t": 80538.37298437521,
      "d": 1608.7697695312527,
      "v": 70
    },
    {
      "midi": 74,
      "hit": false,
      "t": 80653.59408984396,
      "d": 91.62633984374406,
      "v": 64
    },
    {
      "midi": 80,
      "hit": false,
      "t": 80751.51236718771,
      "d": 187.57838671875652,
      "v": 64
    },
    {
      "midi": 80,
      "hit": false,
      "t": 80951.28138281271,
      "d": 95.1655546874972,
      "v": 65
    },
    {
      "midi": 77,
      "hit": false,
      "t": 81052.73887500021,
      "d": 90.83984765624336,
      "v": 64
    },
    {
      "midi": 82,
      "hit": false,
      "t": 81149.87066015646,
      "d": 91.23309374999371,
      "v": 64
    },
    {
      "midi": 85,
      "hit": false,
      "t": 81247.39569140646,
      "d": 96.7385390624986,
      "v": 64
    },
    {
      "midi": 77,
      "hit": false,
      "t": 81948.16023046896,
      "d": 187.18514062500617,
      "v": 56
    },
    {
      "midi": 82,
      "hit": false,
      "t": 81948.16023046896,
      "d": 187.18514062500617,
      "v": 70
    },
    {
      "midi": 72,
      "hit": false,
      "t": 82149.10898437521,
      "d": 412.51515234375256,
      "v": 61
    },
    {
      "midi": 77,
      "hit": false,
      "t": 82149.10898437521,
      "d": 412.51515234375256,
      "v": 75
    },
    {
      "midi": 50,
      "hit": false,
      "t": 82149.10898437521,
      "d": 1608.7697695312527,
      "v": 56
    },
    {
      "midi": 57,
      "hit": false,
      "t": 82149.10898437521,
      "d": 1608.7697695312527,
      "v": 70
    },
    {
      "midi": 51,
      "hit": false,
      "t": 83759.84498437522,
      "d": 1608.7697695312527,
      "v": 56
    },
    {
      "midi": 53,
      "hit": false,
      "t": 83759.84498437522,
      "d": 1608.7697695312527,
      "v": 56
    },
    {
      "midi": 58,
      "hit": false,
      "t": 83759.84498437522,
      "d": 1608.7697695312527,
      "v": 70
    },
    {
      "midi": 81,
      "hit": false,
      "t": 84172.75338281272,
      "d": 95.1655546874972,
      "v": 65
    },
    {
      "midi": 83,
      "hit": false,
      "t": 84274.21087500022,
      "d": 45.61654687499686,
      "v": 64
    },
    {
      "midi": 85,
      "hit": false,
      "t": 84322.97339062522,
      "d": 90.83984765624336,
      "v": 64
    },
    {
      "midi": 87,
      "hit": false,
      "t": 84420.10517578147,
      "d": 91.62633984374406,
      "v": 64
    },
    {
      "midi": 89,
      "hit": false,
      "t": 84518.02345312522,
      "d": 50.7287460937514,
      "v": 64
    },
    {
      "midi": 75,
      "hit": false,
      "t": 85370.58098437522,
      "d": 200.94875390625384,
      "v": 61
    },
    {
      "midi": 80,
      "hit": false,
      "t": 85370.58098437522,
      "d": 200.94875390625384,
      "v": 75
    },
    {
      "midi": 53,
      "hit": false,
      "t": 85370.58098437522,
      "d": 1210.804722656263,
      "v": 56
    },
    {
      "midi": 55,
      "hit": false,
      "t": 85370.58098437522,
      "d": 1210.804722656263,
      "v": 56
    },
    {
      "midi": 60,
      "hit": false,
      "t": 85370.58098437522,
      "d": 1210.804722656263,
      "v": 70
    },
    {
      "midi": 77,
      "hit": false,
      "t": 85583.72036718772,
      "d": 187.57838671875652,
      "v": 56
    },
    {
      "midi": 82,
      "hit": false,
      "t": 85583.72036718772,
      "d": 187.57838671875652,
      "v": 70
    },
    {
      "midi": 69,
      "hit": false,
      "t": 86383.18967578148,
      "d": 186.39864843750547,
      "v": 56
    },
    {
      "midi": 76,
      "hit": false,
      "t": 86383.18967578148,
      "d": 186.39864843750547,
      "v": 70
    },
    {
      "midi": 76,
      "hit": false,
      "t": 86581.77895312523,
      "d": 186.39864843750547,
      "v": 57
    },
    {
      "midi": 80,
      "hit": false,
      "t": 86581.77895312523,
      "d": 186.39864843750547,
      "v": 71
    },
    {
      "midi": 72,
      "hit": false,
      "t": 86780.36823046899,
      "d": 187.18514062500617,
      "v": 56
    },
    {
      "midi": 77,
      "hit": false,
      "t": 86780.36823046899,
      "d": 187.18514062500617,
      "v": 70
    },
    {
      "midi": 69,
      "hit": false,
      "t": 86981.31698437524,
      "d": 200.94875390625384,
      "v": 61
    },
    {
      "midi": 74,
      "hit": false,
      "t": 86981.31698437524,
      "d": 200.94875390625384,
      "v": 75
    },
    {
      "midi": 50,
      "hit": false,
      "t": 86981.31698437524,
      "d": 1608.7697695312672,
      "v": 56
    },
    {
      "midi": 55,
      "hit": false,
      "t": 86981.31698437524,
      "d": 1608.7697695312672,
      "v": 56
    },
    {
      "midi": 62,
      "hit": false,
      "t": 86981.31698437524,
      "d": 1608.7697695312672,
      "v": 70
    },
    {
      "midi": 80,
      "hit": false,
      "t": 87194.45636718774,
      "d": 91.62633984374406,
      "v": 64
    },
    {
      "midi": 79,
      "hit": false,
      "t": 87292.37464453149,
      "d": 95.55880078124756,
      "v": 64
    },
    {
      "midi": 82,
      "hit": false,
      "t": 87394.22538281274,
      "d": 186.39864843750547,
      "v": 65
    },
    {
      "midi": 79,
      "hit": false,
      "t": 87592.8146601565,
      "d": 91.23309374999371,
      "v": 64
    },
    {
      "midi": 84,
      "hit": false,
      "t": 87690.3396914065,
      "d": 96.7385390624986,
      "v": 64
    },
    {
      "midi": 82,
      "hit": false,
      "t": 87793.370167969,
      "d": 97.13178515624895,
      "v": 67
    },
    {
      "midi": 84,
      "hit": false,
      "t": 87896.79389062525,
      "d": 295.32781640625035,
      "v": 64
    },
    {
      "midi": 77,
      "hit": false,
      "t": 88592.05298437526,
      "d": 200.94875390625384,
      "v": 61
    },
    {
      "midi": 82,
      "hit": false,
      "t": 88592.05298437526,
      "d": 200.94875390625384,
      "v": 75
    },
    {
      "midi": 51,
      "hit": false,
      "t": 88592.05298437526,
      "d": 1608.7697695312672,
      "v": 56
    },
    {
      "midi": 53,
      "hit": false,
      "t": 88592.05298437526,
      "d": 1608.7697695312672,
      "v": 56
    },
    {
      "midi": 58,
      "hit": false,
      "t": 88592.05298437526,
      "d": 1608.7697695312672,
      "v": 70
    },
    {
      "midi": 79,
      "hit": false,
      "t": 88805.19236718776,
      "d": 187.57838671875652,
      "v": 56
    },
    {
      "midi": 84,
      "hit": false,
      "t": 88805.19236718776,
      "d": 187.57838671875652,
      "v": 70
    },
    {
      "midi": 72,
      "hit": false,
      "t": 89203.55066015651,
      "d": 188.36487890625722,
      "v": 64
    },
    {
      "midi": 77,
      "hit": false,
      "t": 89404.10616796902,
      "d": 398.7515390625049,
      "v": 59
    },
    {
      "midi": 82,
      "hit": false,
      "t": 89404.10616796902,
      "d": 398.7515390625049,
      "v": 73
    },
    {
      "midi": 53,
      "hit": false,
      "t": 90202.78898437528,
      "d": 1210.8047226562485,
      "v": 56
    },
    {
      "midi": 58,
      "hit": false,
      "t": 90202.78898437528,
      "d": 1210.8047226562485,
      "v": 56
    },
    {
      "midi": 60,
      "hit": false,
      "t": 90202.78898437528,
      "d": 1210.8047226562485,
      "v": 70
    },
    {
      "midi": 53,
      "hit": false,
      "t": 91813.52498437528,
      "d": 1608.7697695312672,
      "v": 56
    },
    {
      "midi": 59,
      "hit": false,
      "t": 91813.52498437528,
      "d": 1608.7697695312672,
      "v": 56
    },
    {
      "midi": 61,
      "hit": false,
      "t": 91813.52498437528,
      "d": 1608.7697695312672,
      "v": 70
    },
    {
      "midi": 73,
      "hit": false,
      "t": 92026.66436718778,
      "d": 187.57838671875652,
      "v": 56
    },
    {
      "midi": 79,
      "hit": false,
      "t": 92026.66436718778,
      "d": 187.57838671875652,
      "v": 70
    },
    {
      "midi": 77,
      "hit": false,
      "t": 92226.43338281279,
      "d": 398.7515390625049,
      "v": 57
    },
    {
      "midi": 85,
      "hit": false,
      "t": 92226.43338281279,
      "d": 398.7515390625049,
      "v": 71
    },
    {
      "midi": 77,
      "hit": false,
      "t": 92826.13367578154,
      "d": 186.39864843750547,
      "v": 56
    },
    {
      "midi": 85,
      "hit": false,
      "t": 92826.13367578154,
      "d": 186.39864843750547,
      "v": 70
    },
    {
      "midi": 83,
      "hit": false,
      "t": 93024.7229531253,
      "d": 186.39864843750547,
      "v": 57
    },
    {
      "midi": 89,
      "hit": false,
      "t": 93024.7229531253,
      "d": 186.39864843750547,
      "v": 71
    },
    {
      "midi": 77,
      "hit": false,
      "t": 93223.31223046905,
      "d": 187.18514062500617,
      "v": 56
    },
    {
      "midi": 82,
      "hit": false,
      "t": 93223.31223046905,
      "d": 187.18514062500617,
      "v": 70
    },
    {
      "midi": 49,
      "hit": false,
      "t": 93424.2609843753,
      "d": 1608.7697695312527,
      "v": 56
    },
    {
      "midi": 55,
      "hit": false,
      "t": 93424.2609843753,
      "d": 1608.7697695312527,
      "v": 56
    },
    {
      "midi": 57,
      "hit": false,
      "t": 93424.2609843753,
      "d": 1608.7697695312527,
      "v": 70
    },
    {
      "midi": 85,
      "hit": false,
      "t": 93637.4003671878,
      "d": 91.62633984374406,
      "v": 64
    },
    {
      "midi": 89,
      "hit": false,
      "t": 93735.31864453155,
      "d": 95.55880078124756,
      "v": 64
    },
    {
      "midi": 83,
      "hit": false,
      "t": 93837.1693828128,
      "d": 398.7515390625049,
      "v": 65
    },
    {
      "midi": 89,
      "hit": false,
      "t": 94236.31416796906,
      "d": 97.13178515624895,
      "v": 67
    },
    {
      "midi": 83,
      "hit": false,
      "t": 94339.73789062531,
      "d": 90.83984765624336,
      "v": 64
    },
    {
      "midi": 85,
      "hit": false,
      "t": 94436.86967578156,
      "d": 91.23309374999371,
      "v": 64
    },
    {
      "midi": 89,
      "hit": false,
      "t": 94534.39470703156,
      "d": 94.77230859374686,
      "v": 64
    },
    {
      "midi": 79,
      "hit": false,
      "t": 95034.9969843753,
      "d": 200.94875390625384,
      "v": 61
    },
    {
      "midi": 84,
      "hit": false,
      "t": 95034.9969843753,
      "d": 200.94875390625384,
      "v": 75
    },
    {
      "midi": 50,
      "hit": false,
      "t": 95034.9969843753,
      "d": 611.1044296875043,
      "v": 72
    },
    {
      "midi": 55,
      "hit": false,
      "t": 95034.9969843753,
      "d": 611.1044296875043,
      "v": 61
    },
    {
      "midi": 57,
      "hit": false,
      "t": 95034.9969843753,
      "d": 611.1044296875043,
      "v": 67
    },
    {
      "midi": 77,
      "hit": false,
      "t": 95248.1363671878,
      "d": 187.57838671875652,
      "v": 56
    },
    {
      "midi": 82,
      "hit": false,
      "t": 95248.1363671878,
      "d": 187.57838671875652,
      "v": 70
    },
    {
      "midi": 79,
      "hit": false,
      "t": 95447.90538281281,
      "d": 186.39864843750547,
      "v": 57
    },
    {
      "midi": 84,
      "hit": false,
      "t": 95447.90538281281,
      "d": 186.39864843750547,
      "v": 71
    },
    {
      "midi": 74,
      "hit": false,
      "t": 95646.49466015656,
      "d": 188.36487890625722,
      "v": 56
    },
    {
      "midi": 77,
      "hit": false,
      "t": 95646.49466015656,
      "d": 188.36487890625722,
      "v": 70
    },
    {
      "midi": 49,
      "hit": false,
      "t": 95646.49466015656,
      "d": 599.3070468750084,
      "v": 64
    },
    {
      "midi": 82,
      "hit": false,
      "t": 96246.19495312532,
      "d": 186.39864843750547,
      "v": 65
    },
    {
      "midi": 77,
      "hit": false,
      "t": 96444.78423046907,
      "d": 187.18514062500617,
      "v": 64
    },
    {
      "midi": 82,
      "hit": false,
      "t": 96645.73298437533,
      "d": 200.94875390625384,
      "v": 69
    },
    {
      "midi": 48,
      "hit": false,
      "t": 96645.73298437533,
      "d": 1608.7697695312672,
      "v": 56
    },
    {
      "midi": 53,
      "hit": false,
      "t": 96645.73298437533,
      "d": 1608.7697695312672,
      "v": 70
    },
    {
      "midi": 77,
      "hit": false,
      "t": 96858.87236718783,
      "d": 187.57838671875652,
      "v": 64
    },
    {
      "midi": 80,
      "hit": false,
      "t": 97058.64138281283,
      "d": 95.1655546874972,
      "v": 65
    },
    {
      "midi": 77,
      "hit": false,
      "t": 97160.09887500033,
      "d": 90.83984765624336,
      "v": 64
    },
    {
      "midi": 82,
      "hit": false,
      "t": 97257.23066015658,
      "d": 188.36487890625722,
      "v": 64
    },
    {
      "midi": 79,
      "hit": false,
      "t": 98256.46898437534,
      "d": 108.92916796874488,
      "v": 69
    },
    {
      "midi": 50,
      "hit": false,
      "t": 98256.46898437534,
      "d": 1608.7697695312527,
      "v": 56
    },
    {
      "midi": 55,
      "hit": false,
      "t": 98256.46898437534,
      "d": 1608.7697695312527,
      "v": 70
    },
    {
      "midi": 81,
      "hit": false,
      "t": 98371.6900898441,
      "d": 46.009792968747206,
      "v": 64
    },
    {
      "midi": 83,
      "hit": false,
      "t": 98420.84585156284,
      "d": 91.23309374999371,
      "v": 64
    },
    {
      "midi": 85,
      "hit": false,
      "t": 98518.37088281284,
      "d": 92.41283203124476,
      "v": 64
    },
    {
      "midi": 87,
      "hit": false,
      "t": 98617.0756523441,
      "d": 49.15576171875,
      "v": 64
    },
    {
      "midi": 51,
      "hit": false,
      "t": 99867.20498437535,
      "d": 1608.7697695312672,
      "v": 56
    },
    {
      "midi": 56,
      "hit": false,
      "t": 99867.20498437535,
      "d": 1608.7697695312672,
      "v": 70
    },
    {
      "midi": 77,
      "hit": false,
      "t": 100280.11338281285,
      "d": 186.39864843750547,
      "v": 57
    },
    {
      "midi": 82,
      "hit": false,
      "t": 100280.11338281285,
      "d": 186.39864843750547,
      "v": 71
    },
    {
      "midi": 72,
      "hit": false,
      "t": 100478.7026601566,
      "d": 188.36487890625722,
      "v": 56
    },
    {
      "midi": 77,
      "hit": false,
      "t": 100478.7026601566,
      "d": 188.36487890625722,
      "v": 70
    },
    {
      "midi": 50,
      "hit": false,
      "t": 101477.94098437537,
      "d": 1608.7697695312527,
      "v": 56
    },
    {
      "midi": 57,
      "hit": false,
      "t": 101477.94098437537,
      "d": 1608.7697695312527,
      "v": 70
    },
    {
      "midi": 72,
      "hit": false,
      "t": 102490.54967578161,
      "d": 186.39864843750547,
      "v": 56
    },
    {
      "midi": 77,
      "hit": false,
      "t": 102490.54967578161,
      "d": 186.39864843750547,
      "v": 70
    },
    {
      "midi": 69,
      "hit": false,
      "t": 102689.13895312537,
      "d": 186.39864843750547,
      "v": 57
    },
    {
      "midi": 74,
      "hit": false,
      "t": 102689.13895312537,
      "d": 186.39864843750547,
      "v": 71
    },
    {
      "midi": 72,
      "hit": false,
      "t": 102887.72823046912,
      "d": 187.18514062500617,
      "v": 56
    },
    {
      "midi": 77,
      "hit": false,
      "t": 102887.72823046912,
      "d": 187.18514062500617,
      "v": 70
    },
    {
      "midi": 69,
      "hit": false,
      "t": 103088.67698437537,
      "d": 412.51515234375256,
      "v": 61
    },
    {
      "midi": 74,
      "hit": false,
      "t": 103088.67698437537,
      "d": 412.51515234375256,
      "v": 75
    },
    {
      "midi": 51,
      "hit": false,
      "t": 103088.67698437537,
      "d": 1608.7697695312527,
      "v": 56
    },
    {
      "midi": 53,
      "hit": false,
      "t": 103088.67698437537,
      "d": 1608.7697695312527,
      "v": 56
    },
    {
      "midi": 58,
      "hit": false,
      "t": 103088.67698437537,
      "d": 1608.7697695312527,
      "v": 70
    },
    {
      "midi": 53,
      "hit": false,
      "t": 104699.41298437538,
      "d": 1210.8047226562485,
      "v": 56
    },
    {
      "midi": 55,
      "hit": false,
      "t": 104699.41298437538,
      "d": 1210.8047226562485,
      "v": 56
    },
    {
      "midi": 60,
      "hit": false,
      "t": 104699.41298437538,
      "d": 1210.8047226562485,
      "v": 70
    },
    {
      "midi": 55,
      "hit": false,
      "t": 106310.14898437538,
      "d": 1608.7697695312672,
      "v": 56
    },
    {
      "midi": 57,
      "hit": false,
      "t": 106310.14898437538,
      "d": 1608.7697695312672,
      "v": 56
    },
    {
      "midi": 62,
      "hit": false,
      "t": 106310.14898437538,
      "d": 1608.7697695312672,
      "v": 70
    },
    {
      "midi": 79,
      "hit": false,
      "t": 106921.64666015664,
      "d": 188.36487890625722,
      "v": 56
    },
    {
      "midi": 84,
      "hit": false,
      "t": 106921.64666015664,
      "d": 188.36487890625722,
      "v": 70
    },
    {
      "midi": 74,
      "hit": false,
      "t": 107122.20216796914,
      "d": 398.7515390625049,
      "v": 59
    },
    {
      "midi": 79,
      "hit": false,
      "t": 107122.20216796914,
      "d": 398.7515390625049,
      "v": 73
    },
    {
      "midi": 51,
      "hit": false,
      "t": 107920.8849843754,
      "d": 1608.7697695312527,
      "v": 56
    },
    {
      "midi": 53,
      "hit": false,
      "t": 107920.8849843754,
      "d": 1608.7697695312527,
      "v": 56
    },
    {
      "midi": 58,
      "hit": false,
      "t": 107920.8849843754,
      "d": 1608.7697695312527,
      "v": 70
    },
    {
      "midi": 77,
      "hit": false,
      "t": 108333.7933828129,
      "d": 95.1655546874972,
      "v": 65
    },
    {
      "midi": 75,
      "hit": false,
      "t": 108435.2508750004,
      "d": 90.83984765624336,
      "v": 64
    },
    {
      "midi": 77,
      "hit": false,
      "t": 108532.38266015665,
      "d": 91.23309374999371,
      "v": 64
    },
    {
      "midi": 82,
      "hit": false,
      "t": 108629.90769140665,
      "d": 96.7385390624986,
      "v": 64
    },
    {
      "midi": 53,
      "hit": false,
      "t": 109531.6209843754,
      "d": 1210.8047226562485,
      "v": 56
    },
    {
      "midi": 58,
      "hit": false,
      "t": 109531.6209843754,
      "d": 1210.8047226562485,
      "v": 56
    },
    {
      "midi": 60,
      "hit": false,
      "t": 109531.6209843754,
      "d": 1210.8047226562485,
      "v": 70
    },
    {
      "midi": 67,
      "hit": false,
      "t": 110742.8189531254,
      "d": 186.39864843750547,
      "v": 57
    },
    {
      "midi": 72,
      "hit": false,
      "t": 110742.8189531254,
      "d": 186.39864843750547,
      "v": 71
    },
    {
      "midi": 65,
      "hit": false,
      "t": 110941.40823046915,
      "d": 187.18514062500617,
      "v": 56
    },
    {
      "midi": 70,
      "hit": false,
      "t": 110941.40823046915,
      "d": 187.18514062500617,
      "v": 70
    },
    {
      "midi": 71,
      "hit": false,
      "t": 111142.35698437541,
      "d": 200.94875390625384,
      "v": 61
    },
    {
      "midi": 77,
      "hit": false,
      "t": 111142.35698437541,
      "d": 200.94875390625384,
      "v": 75
    },
    {
      "midi": 53,
      "hit": false,
      "t": 111142.35698437541,
      "d": 1608.7697695312672,
      "v": 56
    },
    {
      "midi": 59,
      "hit": false,
      "t": 111142.35698437541,
      "d": 1608.7697695312672,
      "v": 56
    },
    {
      "midi": 61,
      "hit": false,
      "t": 111142.35698437541,
      "d": 1608.7697695312672,
      "v": 70
    },
    {
      "midi": 68,
      "hit": false,
      "t": 111355.49636718791,
      "d": 187.57838671875652,
      "v": 56
    },
    {
      "midi": 73,
      "hit": false,
      "t": 111355.49636718791,
      "d": 187.57838671875652,
      "v": 70
    },
    {
      "midi": 77,
      "hit": false,
      "t": 111753.85466015666,
      "d": 91.23309374999371,
      "v": 64
    },
    {
      "midi": 73,
      "hit": false,
      "t": 111851.37969140666,
      "d": 96.7385390624986,
      "v": 64
    },
    {
      "midi": 68,
      "hit": false,
      "t": 111954.41016796917,
      "d": 398.7515390625049,
      "v": 67
    },
    {
      "midi": 67,
      "hit": false,
      "t": 112753.09298437543,
      "d": 200.94875390625384,
      "v": 61
    },
    {
      "midi": 73,
      "hit": false,
      "t": 112753.09298437543,
      "d": 200.94875390625384,
      "v": 75
    },
    {
      "midi": 49,
      "hit": false,
      "t": 112753.09298437543,
      "d": 1608.7697695312672,
      "v": 56
    },
    {
      "midi": 55,
      "hit": false,
      "t": 112753.09298437543,
      "d": 1608.7697695312672,
      "v": 56
    },
    {
      "midi": 56,
      "hit": false,
      "t": 112753.09298437543,
      "d": 1608.7697695312672,
      "v": 70
    },
    {
      "midi": 60,
      "hit": false,
      "t": 112966.23236718793,
      "d": 187.57838671875652,
      "v": 56
    },
    {
      "midi": 65,
      "hit": false,
      "t": 112966.23236718793,
      "d": 187.57838671875652,
      "v": 70
    },
    {
      "midi": 65,
      "hit": false,
      "t": 113166.00138281293,
      "d": 186.39864843750547,
      "v": 57
    },
    {
      "midi": 67,
      "hit": false,
      "t": 113166.00138281293,
      "d": 186.39864843750547,
      "v": 71
    },
    {
      "midi": 67,
      "hit": false,
      "t": 113364.59066015668,
      "d": 188.36487890625722,
      "v": 56
    },
    {
      "midi": 71,
      "hit": false,
      "t": 113364.59066015668,
      "d": 188.36487890625722,
      "v": 70
    },
    {
      "midi": 73,
      "hit": false,
      "t": 113565.14616796919,
      "d": 97.13178515624895,
      "v": 67
    },
    {
      "midi": 67,
      "hit": false,
      "t": 113668.56989062544,
      "d": 90.83984765624336,
      "v": 64
    },
    {
      "midi": 71,
      "hit": false,
      "t": 113765.70167578169,
      "d": 186.39864843750547,
      "v": 64
    },
    {
      "midi": 73,
      "hit": false,
      "t": 113964.29095312544,
      "d": 94.77230859374686,
      "v": 65
    },
    {
      "midi": 67,
      "hit": false,
      "t": 114065.3551992192,
      "d": 91.23309374999371,
      "v": 64
    },
    {
      "midi": 71,
      "hit": false,
      "t": 114162.88023046919,
      "d": 91.23309374999371,
      "v": 64
    },
    {
      "midi": 77,
      "hit": false,
      "t": 114260.40526171919,
      "d": 95.55880078124756,
      "v": 64
    },
    {
      "midi": 50,
      "hit": false,
      "t": 114363.82898437545,
      "d": 412.51515234375256,
      "v": 61
    },
    {
      "midi": 55,
      "hit": false,
      "t": 114363.82898437545,
      "d": 412.51515234375256,
      "v": 61
    },
    {
      "midi": 57,
      "hit": false,
      "t": 114363.82898437545,
      "d": 412.51515234375256,
      "v": 75
    },
    {
      "midi": 49,
      "hit": false,
      "t": 114776.73738281295,
      "d": 797.8963242187456,
      "v": 65
    },
    {
      "midi": 67,
      "hit": false,
      "t": 115575.02695312545,
      "d": 397.57180078125384,
      "v": 57
    },
    {
      "midi": 72,
      "hit": false,
      "t": 115575.02695312545,
      "d": 397.57180078125384,
      "v": 71
    },
    {
      "midi": 48,
      "hit": false,
      "t": 115974.56498437545,
      "d": 1210.804722656263,
      "v": 56
    },
    {
      "midi": 53,
      "hit": false,
      "t": 115974.56498437545,
      "d": 1210.804722656263,
      "v": 70
    },
    {
      "midi": 70,
      "hit": false,
      "t": 116586.0626601567,
      "d": 188.36487890625722,
      "v": 56
    },
    {
      "midi": 77,
      "hit": false,
      "t": 116586.0626601567,
      "d": 188.36487890625722,
      "v": 70
    },
    {
      "midi": 75,
      "hit": false,
      "t": 116786.61816796921,
      "d": 398.7515390625049,
      "v": 59
    },
    {
      "midi": 80,
      "hit": false,
      "t": 116786.61816796921,
      "d": 398.7515390625049,
      "v": 73
    },
    {
      "midi": 50,
      "hit": false,
      "t": 117185.76295312546,
      "d": 1211.1979687499988,
      "v": 57
    },
    {
      "midi": 55,
      "hit": false,
      "t": 117185.76295312546,
      "d": 1211.1979687499988,
      "v": 71
    },
    {
      "midi": 51,
      "hit": false,
      "t": 118397.35416796921,
      "d": 1211.1979687500134,
      "v": 59
    },
    {
      "midi": 56,
      "hit": false,
      "t": 118397.35416796921,
      "d": 1211.1979687500134,
      "v": 73
    },
    {
      "midi": 75,
      "hit": false,
      "t": 118995.08823046922,
      "d": 187.18514062500617,
      "v": 56
    },
    {
      "midi": 82,
      "hit": false,
      "t": 118995.08823046922,
      "d": 187.18514062500617,
      "v": 70
    },
    {
      "midi": 80,
      "hit": false,
      "t": 119196.03698437547,
      "d": 412.51515234375256,
      "v": 61
    },
    {
      "midi": 86,
      "hit": false,
      "t": 119196.03698437547,
      "d": 412.51515234375256,
      "v": 75
    },
    {
      "midi": 53,
      "hit": false,
      "t": 119608.94538281298,
      "d": 1195.8613710937498,
      "v": 56
    },
    {
      "midi": 58,
      "hit": false,
      "t": 119608.94538281298,
      "d": 1195.8613710937498,
      "v": 70
    },
    {
      "midi": 70,
      "hit": false,
      "t": 120407.23495312547,
      "d": 186.39864843750547,
      "v": 57
    },
    {
      "midi": 75,
      "hit": false,
      "t": 120407.23495312547,
      "d": 186.39864843750547,
      "v": 71
    },
    {
      "midi": 69,
      "hit": false,
      "t": 120605.82423046922,
      "d": 187.18514062500617,
      "v": 56
    },
    {
      "midi": 74,
      "hit": false,
      "t": 120605.82423046922,
      "d": 187.18514062500617,
      "v": 70
    },
    {
      "midi": 69,
      "hit": false,
      "t": 120806.77298437548,
      "d": 200.94875390625384,
      "v": 61
    },
    {
      "midi": 74,
      "hit": false,
      "t": 120806.77298437548,
      "d": 200.94875390625384,
      "v": 75
    },
    {
      "midi": 48,
      "hit": false,
      "t": 120806.77298437548,
      "d": 1210.804722656263,
      "v": 56
    },
    {
      "midi": 53,
      "hit": false,
      "t": 120806.77298437548,
      "d": 1210.804722656263,
      "v": 70
    },
    {
      "midi": 72,
      "hit": false,
      "t": 121019.91236718798,
      "d": 187.57838671875652,
      "v": 56
    },
    {
      "midi": 77,
      "hit": false,
      "t": 121019.91236718798,
      "d": 187.57838671875652,
      "v": 70
    },
    {
      "midi": 72,
      "hit": false,
      "t": 121219.68138281298,
      "d": 95.1655546874972,
      "v": 65
    },
    {
      "midi": 70,
      "hit": false,
      "t": 121321.13887500048,
      "d": 90.83984765624336,
      "v": 64
    },
    {
      "midi": 68,
      "hit": false,
      "t": 121418.27066015673,
      "d": 188.36487890625722,
      "v": 64
    },
    {
      "midi": 72,
      "hit": false,
      "t": 121618.82616796924,
      "d": 97.13178515624895,
      "v": 67
    },
    {
      "midi": 69,
      "hit": false,
      "t": 121722.24989062549,
      "d": 90.83984765624336,
      "v": 64
    },
    {
      "midi": 75,
      "hit": false,
      "t": 121819.38167578174,
      "d": 91.23309374999371,
      "v": 64
    },
    {
      "midi": 77,
      "hit": false,
      "t": 121916.90670703174,
      "d": 94.77230859374686,
      "v": 64
    },
    {
      "midi": 50,
      "hit": false,
      "t": 122017.97095312549,
      "d": 1211.1979687499988,
      "v": 57
    },
    {
      "midi": 55,
      "hit": false,
      "t": 122017.97095312549,
      "d": 1211.1979687499988,
      "v": 71
    },
    {
      "midi": 51,
      "hit": false,
      "t": 123229.56216796924,
      "d": 1211.1979687499988,
      "v": 59
    },
    {
      "midi": 56,
      "hit": false,
      "t": 123229.56216796924,
      "d": 1211.1979687499988,
      "v": 73
    },
    {
      "midi": 53,
      "hit": false,
      "t": 124441.15338281299,
      "d": 1195.8613710937498,
      "v": 56
    },
    {
      "midi": 58,
      "hit": false,
      "t": 124441.15338281299,
      "d": 1195.8613710937498,
      "v": 70
    },
    {
      "midi": 54,
      "hit": false,
      "t": 125638.98098437549,
      "d": 1210.804722656263,
      "v": 56
    },
    {
      "midi": 59,
      "hit": false,
      "t": 125638.98098437549,
      "d": 1210.804722656263,
      "v": 70
    },
    {
      "midi": 66,
      "hit": false,
      "t": 126250.47866015675,
      "d": 188.36487890625722,
      "v": 56
    },
    {
      "midi": 71,
      "hit": false,
      "t": 126250.47866015675,
      "d": 188.36487890625722,
      "v": 66
    },
    {
      "midi": 56,
      "hit": false,
      "t": 126850.1789531255,
      "d": 1211.1979687499988,
      "v": 57
    },
    {
      "midi": 61,
      "hit": false,
      "t": 126850.1789531255,
      "d": 1211.1979687499988,
      "v": 71
    },
    {
      "midi": 66,
      "hit": false,
      "t": 127662.625382813,
      "d": 186.39864843750547,
      "v": 57
    },
    {
      "midi": 71,
      "hit": false,
      "t": 127662.625382813,
      "d": 186.39864843750547,
      "v": 71
    },
    {
      "midi": 71,
      "hit": false,
      "t": 127861.21466015675,
      "d": 188.36487890625722,
      "v": 56
    },
    {
      "midi": 76,
      "hit": false,
      "t": 127861.21466015675,
      "d": 188.36487890625722,
      "v": 70
    },
    {
      "midi": 71,
      "hit": false,
      "t": 128061.77016796925,
      "d": 188.36487890625722,
      "v": 59
    },
    {
      "midi": 76,
      "hit": false,
      "t": 128061.77016796925,
      "d": 188.36487890625722,
      "v": 73
    },
    {
      "midi": 57,
      "hit": false,
      "t": 128061.77016796925,
      "d": 1211.1979687500134,
      "v": 59
    },
    {
      "midi": 62,
      "hit": false,
      "t": 128262.32567578176,
      "d": 186.39864843750547,
      "v": 56
    },
    {
      "midi": 69,
      "hit": false,
      "t": 128262.32567578176,
      "d": 186.39864843750547,
      "v": 70
    },
    {
      "midi": 59,
      "hit": false,
      "t": 129273.36138281302,
      "d": 1195.8613710937643,
      "v": 56
    },
    {
      "midi": 64,
      "hit": false,
      "t": 129273.36138281302,
      "d": 1195.8613710937643,
      "v": 70
    },
    {
      "midi": 74,
      "hit": false,
      "t": 129672.50616796927,
      "d": 188.36487890625722,
      "v": 59
    },
    {
      "midi": 81,
      "hit": false,
      "t": 129672.50616796927,
      "d": 188.36487890625722,
      "v": 73
    },
    {
      "midi": 73,
      "hit": false,
      "t": 129873.06167578178,
      "d": 186.39864843750547,
      "v": 56
    },
    {
      "midi": 78,
      "hit": false,
      "t": 129873.06167578178,
      "d": 186.39864843750547,
      "v": 70
    },
    {
      "midi": 73,
      "hit": false,
      "t": 130071.65095312553,
      "d": 186.39864843750547,
      "v": 57
    },
    {
      "midi": 78,
      "hit": false,
      "t": 130071.65095312553,
      "d": 186.39864843750547,
      "v": 71
    },
    {
      "midi": 78,
      "hit": false,
      "t": 130270.24023046928,
      "d": 187.18514062500617,
      "v": 56
    },
    {
      "midi": 83,
      "hit": false,
      "t": 130270.24023046928,
      "d": 187.18514062500617,
      "v": 70
    },
    {
      "midi": 75,
      "hit": false,
      "t": 130471.18898437553,
      "d": 108.92916796874488,
      "v": 69
    },
    {
      "midi": 48,
      "hit": false,
      "t": 130471.18898437553,
      "d": 1210.804722656263,
      "v": 56
    },
    {
      "midi": 53,
      "hit": false,
      "t": 130471.18898437553,
      "d": 1210.804722656263,
      "v": 70
    },
    {
      "midi": 72,
      "hit": false,
      "t": 130586.41008984428,
      "d": 91.62633984374406,
      "v": 64
    },
    {
      "midi": 65,
      "hit": false,
      "t": 130684.32836718803,
      "d": 187.57838671875652,
      "v": 64
    },
    {
      "midi": 50,
      "hit": false,
      "t": 131682.38695312553,
      "d": 1211.1979687499988,
      "v": 57
    },
    {
      "midi": 55,
      "hit": false,
      "t": 131682.38695312553,
      "d": 1211.1979687499988,
      "v": 71
    },
    {
      "midi": 51,
      "hit": false,
      "t": 132893.97816796927,
      "d": 1211.197968750028,
      "v": 59
    },
    {
      "midi": 56,
      "hit": false,
      "t": 132893.97816796927,
      "d": 1211.197968750028,
      "v": 73
    },
    {
      "midi": 67,
      "hit": false,
      "t": 133094.53367578177,
      "d": 45.61654687501141,
      "v": 64
    },
    {
      "midi": 69,
      "hit": false,
      "t": 133143.2961914068,
      "d": 45.61654687501141,
      "v": 64
    },
    {
      "midi": 71,
      "hit": false,
      "t": 133192.0587070318,
      "d": 46.009792968747206,
      "v": 64
    },
    {
      "midi": 73,
      "hit": false,
      "t": 133241.21446875055,
      "d": 48.7625156250142,
      "v": 64
    },
    {
      "midi": 75,
      "hit": false,
      "t": 133293.12295312557,
      "d": 397.5718007812393,
      "v": 65
    },
    {
      "midi": 53,
      "hit": false,
      "t": 134105.56938281303,
      "d": 1195.8613710937498,
      "v": 56
    },
    {
      "midi": 58,
      "hit": false,
      "t": 134105.56938281303,
      "d": 1195.8613710937498,
      "v": 70
    },
    {
      "midi": 65,
      "hit": false,
      "t": 135102.44823046928,
      "d": 187.18514062499162,
      "v": 56
    },
    {
      "midi": 70,
      "hit": false,
      "t": 135102.44823046928,
      "d": 187.18514062499162,
      "v": 70
    },
    {
      "midi": 58,
      "hit": false,
      "t": 135303.39698437552,
      "d": 200.9487539062393,
      "v": 61
    },
    {
      "midi": 63,
      "hit": false,
      "t": 135303.39698437552,
      "d": 200.9487539062393,
      "v": 75
    },
    {
      "midi": 48,
      "hit": false,
      "t": 135303.39698437552,
      "d": 1210.804722656234,
      "v": 56
    },
    {
      "midi": 53,
      "hit": false,
      "t": 135303.39698437552,
      "d": 1210.804722656234,
      "v": 70
    },
    {
      "midi": 55,
      "hit": false,
      "t": 135516.536367188,
      "d": 187.57838671875652,
      "v": 56
    },
    {
      "midi": 62,
      "hit": false,
      "t": 135516.536367188,
      "d": 187.57838671875652,
      "v": 70
    },
    {
      "midi": 60,
      "hit": false,
      "t": 135716.305382813,
      "d": 186.39864843749092,
      "v": 57
    },
    {
      "midi": 65,
      "hit": false,
      "t": 135716.305382813,
      "d": 186.39864843749092,
      "v": 71
    },
    {
      "midi": 63,
      "hit": false,
      "t": 135914.89466015674,
      "d": 91.23309374999371,
      "v": 64
    },
    {
      "midi": 60,
      "hit": false,
      "t": 136012.41969140674,
      "d": 96.7385390624986,
      "v": 64
    },
    {
      "midi": 65,
      "hit": false,
      "t": 136115.45016796925,
      "d": 97.1317851562635,
      "v": 67
    },
    {
      "midi": 70,
      "hit": false,
      "t": 136218.87389062552,
      "d": 295.3278164062358,
      "v": 64
    },
    {
      "midi": 50,
      "hit": false,
      "t": 136514.5949531255,
      "d": 1211.1979687499988,
      "v": 57
    },
    {
      "midi": 55,
      "hit": false,
      "t": 136514.5949531255,
      "d": 1211.1979687499988,
      "v": 71
    },
    {
      "midi": 51,
      "hit": false,
      "t": 137726.18616796922,
      "d": 1211.197968750028,
      "v": 59
    },
    {
      "midi": 56,
      "hit": false,
      "t": 137726.18616796922,
      "d": 1211.197968750028,
      "v": 73
    },
    {
      "midi": 72,
      "hit": false,
      "t": 138738.00836718798,
      "d": 187.57838671875652,
      "v": 56
    },
    {
      "midi": 77,
      "hit": false,
      "t": 138738.00836718798,
      "d": 187.57838671875652,
      "v": 70
    },
    {
      "midi": 77,
      "hit": false,
      "t": 138937.777382813,
      "d": 186.39864843749092,
      "v": 57
    },
    {
      "midi": 82,
      "hit": false,
      "t": 138937.777382813,
      "d": 186.39864843749092,
      "v": 71
    },
    {
      "midi": 53,
      "hit": false,
      "t": 138937.777382813,
      "d": 1195.8613710937207,
      "v": 56
    },
    {
      "midi": 58,
      "hit": false,
      "t": 138937.777382813,
      "d": 1195.8613710937207,
      "v": 70
    },
    {
      "midi": 67,
      "hit": false,
      "t": 139136.36666015672,
      "d": 188.36487890625722,
      "v": 56
    },
    {
      "midi": 74,
      "hit": false,
      "t": 139136.36666015672,
      "d": 188.36487890625722,
      "v": 70
    },
    {
      "midi": 69,
      "hit": false,
      "t": 139336.92216796923,
      "d": 188.36487890625722,
      "v": 59
    },
    {
      "midi": 77,
      "hit": false,
      "t": 139336.92216796923,
      "d": 188.36487890625722,
      "v": 73
    },
    {
      "midi": 67,
      "hit": false,
      "t": 139537.47767578173,
      "d": 186.39864843749092,
      "v": 56
    },
    {
      "midi": 74,
      "hit": false,
      "t": 139537.47767578173,
      "d": 186.39864843749092,
      "v": 70
    },
    {
      "midi": 69,
      "hit": false,
      "t": 139736.06695312547,
      "d": 397.5718007812393,
      "v": 57
    },
    {
      "midi": 77,
      "hit": false,
      "t": 139736.06695312547,
      "d": 397.5718007812393,
      "v": 71
    },
    {
      "midi": 56,
      "hit": false,
      "t": 140135.60498437544,
      "d": 1210.804722656263,
      "v": 56
    },
    {
      "midi": 61,
      "hit": false,
      "t": 140135.60498437544,
      "d": 1210.804722656263,
      "v": 70
    },
    {
      "midi": 71,
      "hit": false,
      "t": 141346.80295312544,
      "d": 186.39864843749092,
      "v": 57
    },
    {
      "midi": 78,
      "hit": false,
      "t": 141346.80295312544,
      "d": 186.39864843749092,
      "v": 71
    },
    {
      "midi": 62,
      "hit": false,
      "t": 141346.80295312544,
      "d": 397.9650468749751,
      "v": 71
    },
    {
      "midi": 57,
      "hit": false,
      "t": 141346.80295312544,
      "d": 1211.1979687499697,
      "v": 57
    },
    {
      "midi": 76,
      "hit": false,
      "t": 141545.39223046918,
      "d": 187.18514062499162,
      "v": 56
    },
    {
      "midi": 83,
      "hit": false,
      "t": 141545.39223046918,
      "d": 187.18514062499162,
      "v": 70
    },
    {
      "midi": 74,
      "hit": false,
      "t": 141746.34098437542,
      "d": 200.9487539062393,
      "v": 61
    },
    {
      "midi": 81,
      "hit": false,
      "t": 141746.34098437542,
      "d": 200.9487539062393,
      "v": 75
    },
    {
      "midi": 61,
      "hit": false,
      "t": 141746.34098437542,
      "d": 811.6599374999932,
      "v": 75
    },
    {
      "midi": 71,
      "hit": false,
      "t": 141959.4803671879,
      "d": 187.57838671875652,
      "v": 56
    },
    {
      "midi": 78,
      "hit": false,
      "t": 141959.4803671879,
      "d": 187.57838671875652,
      "v": 70
    },
    {
      "midi": 81,
      "hit": false,
      "t": 142558.39416796915,
      "d": 97.1317851562635,
      "v": 67
    },
    {
      "midi": 59,
      "hit": false,
      "t": 142558.39416796915,
      "d": 1211.197968750057,
      "v": 59
    },
    {
      "midi": 64,
      "hit": false,
      "t": 142558.39416796915,
      "d": 1211.197968750057,
      "v": 73
    },
    {
      "midi": 83,
      "hit": false,
      "t": 142661.81789062542,
      "d": 90.83984765625792,
      "v": 64
    },
    {
      "midi": 83,
      "hit": false,
      "t": 142758.94967578168,
      "d": 186.39864843749092,
      "v": 64
    },
    {
      "midi": 81,
      "hit": false,
      "t": 142957.53895312542,
      "d": 94.77230859376141,
      "v": 65
    },
    {
      "midi": 83,
      "hit": false,
      "t": 143058.6031992192,
      "d": 91.23309374999371,
      "v": 64
    },
    {
      "midi": 83,
      "hit": false,
      "t": 143156.12823046918,
      "d": 91.23309374999371,
      "v": 64
    },
    {
      "midi": 88,
      "hit": false,
      "t": 143253.65326171918,
      "d": 95.55880078126211,
      "v": 64
    }
  ]
}