{
  "jsonPath": "Soundtracks/Video Game Music/Legend of Zelda The Wind Waker/legend-of-zelda-the-the-wind-waker-farewellhyruleking.json",
  "path": "Soundtracks\\Video Game Music\\Legend of Zelda The Wind Waker\\Legend_Of_Zelda_The_The_Wind_Waker_FarewellHyruleKing.mid",
  "name": "Legend_Of_Zelda_The_The_Wind_Waker_FarewellHyruleKing",
  "difficulty": "Advanced",
  "bpm": 83.0000650167176,
  "notes": [
    {
      "midi": 43,
      "hit": false,
      "t": 0,
      "d": 2445.64875,
      "v": 75
    },
    {
      "midi": 50,
      "hit": false,
      "t": 326.0865,
      "d": 2119.56225,
      "v": 75
    },
    {
      "midi": 43,
      "hit": false,
      "t": 2608.692,
      "d": 2445.6487499999994,
      "v": 75
    },
    {
      "midi": 51,
      "hit": false,
      "t": 2934.7785,
      "d": 2119.5622499999995,
      "v": 75
    },
    {
      "midi": 43,
      "hit": false,
      "t": 5217.383999999999,
      "d": 2445.6487500000003,
      "v": 75
    },
    {
      "midi": 50,
      "hit": false,
      "t": 5543.470499999999,
      "d": 2119.56225,
      "v": 75
    },
    {
      "midi": 43,
      "hit": false,
      "t": 7826.075999999999,
      "d": 2445.6487500000003,
      "v": 75
    },
    {
      "midi": 51,
      "hit": false,
      "t": 8152.162499999999,
      "d": 2119.56225,
      "v": 75
    },
    {
      "midi": 67,
      "hit": false,
      "t": 10434.768,
      "d": 1141.3027500000007,
      "v": 75
    },
    {
      "midi": 43,
      "hit": false,
      "t": 10434.768,
      "d": 2445.6487500000003,
      "v": 75
    },
    {
      "midi": 50,
      "hit": false,
      "t": 10760.8545,
      "d": 2119.562250000001,
      "v": 75
    },
    {
      "midi": 62,
      "hit": false,
      "t": 11739.114000000001,
      "d": 2173.91,
      "v": 75
    },
    {
      "midi": 43,
      "hit": false,
      "t": 13043.460000000001,
      "d": 2445.6487499999985,
      "v": 75
    },
    {
      "midi": 51,
      "hit": false,
      "t": 13369.5465,
      "d": 2119.562249999999,
      "v": 75
    },
    {
      "midi": 67,
      "hit": false,
      "t": 14021.719500000001,
      "d": 326.08649999999943,
      "v": 75
    },
    {
      "midi": 68,
      "hit": false,
      "t": 14347.806,
      "d": 326.08649999999943,
      "v": 75
    },
    {
      "midi": 70,
      "hit": false,
      "t": 14673.8925,
      "d": 645.3795312500006,
      "v": 75
    },
    {
      "midi": 66,
      "hit": false,
      "t": 15326.0655,
      "d": 163.04325000000063,
      "v": 75
    },
    {
      "midi": 70,
      "hit": false,
      "t": 15489.108750000001,
      "d": 156.24978125000052,
      "v": 75
    },
    {
      "midi": 43,
      "hit": false,
      "t": 15652.152,
      "d": 2445.6487499999985,
      "v": 75
    },
    {
      "midi": 67,
      "hit": false,
      "t": 15652.152000000002,
      "d": 1141.302749999999,
      "v": 75
    },
    {
      "midi": 50,
      "hit": false,
      "t": 15978.2385,
      "d": 2119.562249999999,
      "v": 75
    },
    {
      "midi": 62,
      "hit": false,
      "t": 16956.498,
      "d": 2445.6487500000003,
      "v": 75
    },
    {
      "midi": 43,
      "hit": false,
      "t": 18260.843999999997,
      "d": 2445.6487500000003,
      "v": 75
    },
    {
      "midi": 51,
      "hit": false,
      "t": 18586.9305,
      "d": 2119.562249999999,
      "v": 75
    },
    {
      "midi": 43,
      "hit": false,
      "t": 20869.535999999996,
      "d": 2445.6487500000003,
      "v": 75
    },
    {
      "midi": 67,
      "hit": false,
      "t": 20869.536,
      "d": 1141.302749999999,
      "v": 75
    },
    {
      "midi": 50,
      "hit": false,
      "t": 21195.622499999998,
      "d": 2119.562249999999,
      "v": 75
    },
    {
      "midi": 62,
      "hit": false,
      "t": 22173.881999999998,
      "d": 2173.91,
      "v": 75
    },
    {
      "midi": 43,
      "hit": false,
      "t": 23478.227999999996,
      "d": 2445.6487500000003,
      "v": 75
    },
    {
      "midi": 51,
      "hit": false,
      "t": 23804.314499999997,
      "d": 2119.562249999999,
      "v": 75
    },
    {
      "midi": 67,
      "hit": false,
      "t": 24456.4875,
      "d": 326.08650000000125,
      "v": 75
    },
    {
      "midi": 68,
      "hit": false,
      "t": 24782.574,
      "d": 326.08650000000125,
      "v": 75
    },
    {
      "midi": 70,
      "hit": false,
      "t": 25108.6605,
      "d": 645.3795312500006,
      "v": 75
    },
    {
      "midi": 66,
      "hit": false,
      "t": 25760.8335,
      "d": 163.0432499999988,
      "v": 75
    },
    {
      "midi": 70,
      "hit": false,
      "t": 25923.87675,
      "d": 156.24978125000052,
      "v": 75
    },
    {
      "midi": 43,
      "hit": false,
      "t": 26086.919999999995,
      "d": 2445.6487500000003,
      "v": 75
    },
    {
      "midi": 67,
      "hit": false,
      "t": 26086.92,
      "d": 1141.302749999999,
      "v": 75
    },
    {
      "midi": 50,
      "hit": false,
      "t": 26413.006499999996,
      "d": 2119.562249999999,
      "v": 75
    },
    {
      "midi": 62,
      "hit": false,
      "t": 27391.265999999996,
      "d": 2445.6487500000003,
      "v": 75
    },
    {
      "midi": 43,
      "hit": false,
      "t": 28695.611999999994,
      "d": 2445.6487500000003,
      "v": 75
    },
    {
      "midi": 51,
      "hit": false,
      "t": 29021.698499999995,
      "d": 2119.562249999999,
      "v": 75
    },
    {
      "midi": 36,
      "hit": false,
      "t": 31304.303999999993,
      "d": 2445.648750000004,
      "v": 92
    },
    {
      "midi": 72,
      "hit": false,
      "t": 31304.303999999996,
      "d": 1141.302749999999,
      "v": 92
    },
    {
      "midi": 43,
      "hit": false,
      "t": 31630.390499999994,
      "d": 2119.5622500000027,
      "v": 92
    },
    {
      "midi": 67,
      "hit": false,
      "t": 32608.649999999994,
      "d": 2173.9100000000035,
      "v": 92
    },
    {
      "midi": 36,
      "hit": false,
      "t": 33912.996,
      "d": 2445.6487500000003,
      "v": 92
    },
    {
      "midi": 44,
      "hit": false,
      "t": 34239.0825,
      "d": 2119.5622500000027,
      "v": 92
    },
    {
      "midi": 72,
      "hit": false,
      "t": 34891.2555,
      "d": 326.0864999999976,
      "v": 92
    },
    {
      "midi": 77,
      "hit": false,
      "t": 35217.342,
      "d": 326.0864999999976,
      "v": 92
    },
    {
      "midi": 75,
      "hit": false,
      "t": 35543.428499999995,
      "d": 645.3795312500006,
      "v": 92
    },
    {
      "midi": 73,
      "hit": false,
      "t": 36195.6015,
      "d": 163.04325000000244,
      "v": 92
    },
    {
      "midi": 71,
      "hit": false,
      "t": 36358.64475,
      "d": 156.24978125000052,
      "v": 92
    },
    {
      "midi": 72,
      "hit": false,
      "t": 36521.688,
      "d": 1141.3027500000026,
      "v": 92
    },
    {
      "midi": 36,
      "hit": false,
      "t": 36521.688,
      "d": 2445.6487500000003,
      "v": 92
    },
    {
      "midi": 43,
      "hit": false,
      "t": 36847.7745,
      "d": 2119.5622500000027,
      "v": 92
    },
    {
      "midi": 67,
      "hit": false,
      "t": 37826.03400000001,
      "d": 2445.6487500000003,
      "v": 92
    },
    {
      "midi": 36,
      "hit": false,
      "t": 39130.380000000005,
      "d": 2445.6487500000003,
      "v": 92
    },
    {
      "midi": 44,
      "hit": false,
      "t": 39456.4665,
      "d": 2119.5622500000027,
      "v": 92
    },
    {
      "midi": 67,
      "hit": false,
      "t": 41739.07200000001,
      "d": 1141.3027500000026,
      "v": 92
    },
    {
      "midi": 43,
      "hit": false,
      "t": 41739.07200000001,
      "d": 2445.6487500000003,
      "v": 75
    },
    {
      "midi": 50,
      "hit": false,
      "t": 42065.158500000005,
      "d": 2119.5622500000027,
      "v": 75
    },
    {
      "midi": 62,
      "hit": false,
      "t": 43043.41800000001,
      "d": 2173.9100000000035,
      "v": 92
    },
    {
      "midi": 43,
      "hit": false,
      "t": 44347.76400000001,
      "d": 2445.6487500000003,
      "v": 75
    },
    {
      "midi": 51,
      "hit": false,
      "t": 44673.85050000001,
      "d": 2119.5622500000027,
      "v": 75
    },
    {
      "midi": 67,
      "hit": false,
      "t": 45326.02350000002,
      "d": 326.0864999999976,
      "v": 92
    },
    {
      "midi": 68,
      "hit": false,
      "t": 45652.110000000015,
      "d": 326.0864999999976,
      "v": 92
    },
    {
      "midi": 70,
      "hit": false,
      "t": 45978.19650000001,
      "d": 645.3795312500006,
      "v": 92
    },
    {
      "midi": 66,
      "hit": false,
      "t": 46630.369500000015,
      "d": 163.04325000000244,
      "v": 92
    },
    {
      "midi": 70,
      "hit": false,
      "t": 46793.41275000002,
      "d": 156.24978125000052,
      "v": 92
    },
    {
      "midi": 43,
      "hit": false,
      "t": 46956.45600000001,
      "d": 2445.6487500000003,
      "v": 75
    },
    {
      "midi": 67,
      "hit": false,
      "t": 46956.45600000002,
      "d": 1141.3027500000026,
      "v": 92
    },
    {
      "midi": 50,
      "hit": false,
      "t": 47282.54250000001,
      "d": 2119.5622500000027,
      "v": 75
    },
    {
      "midi": 62,
      "hit": false,
      "t": 48260.802000000025,
      "d": 2445.6487500000003,
      "v": 92
    },
    {
      "midi": 43,
      "hit": false,
      "t": 49565.148000000016,
      "d": 2445.6487500000003,
      "v": 75
    },
    {
      "midi": 51,
      "hit": false,
      "t": 49891.23450000001,
      "d": 2119.5622500000027,
      "v": 75
    },
    {
      "midi": 41,
      "hit": false,
      "t": 52173.84000000002,
      "d": 2445.6487500000003,
      "v": 105
    },
    {
      "midi": 48,
      "hit": false,
      "t": 52173.84000000002,
      "d": 2445.6487500000003,
      "v": 105
    },
    {
      "midi": 53,
      "hit": false,
      "t": 52173.84000000002,
      "d": 2445.6487500000003,
      "v": 105
    },
    {
      "midi": 65,
      "hit": false,
      "t": 52173.840000000026,
      "d": 978.2595000000001,
      "v": 127
    },
    {
      "midi": 63,
      "hit": false,
      "t": 53152.099500000026,
      "d": 163.04325000000244,
      "v": 92
    },
    {
      "midi": 62,
      "hit": false,
      "t": 53315.14275000003,
      "d": 163.04325000000244,
      "v": 92
    },
    {
      "midi": 60,
      "hit": false,
      "t": 53478.18600000003,
      "d": 326.0864999999976,
      "v": 92
    },
    {
      "midi": 62,
      "hit": false,
      "t": 53804.27250000003,
      "d": 326.0864999999976,
      "v": 92
    },
    {
      "midi": 65,
      "hit": false,
      "t": 54130.359000000026,
      "d": 326.0864999999976,
      "v": 92
    },
    {
      "midi": 72,
      "hit": false,
      "t": 54456.44550000002,
      "d": 319.29303125000297,
      "v": 92
    },
    {
      "midi": 43,
      "hit": false,
      "t": 54782.53200000002,
      "d": 2445.6487500000003,
      "v": 75
    },
    {
      "midi": 50,
      "hit": false,
      "t": 54782.53200000002,
      "d": 2445.6487500000003,
      "v": 75
    },
    {
      "midi": 67,
      "hit": false,
      "t": 54782.53200000003,
      "d": 2445.648749999993,
      "v": 92
    },
    {
      "midi": 59,
      "hit": false,
      "t": 55760.79150000003,
      "d": 326.0864999999976,
      "v": 92
    },
    {
      "midi": 62,
      "hit": false,
      "t": 55760.79150000003,
      "d": 326.0864999999976,
      "v": 92
    },
    {
      "midi": 60,
      "hit": false,
      "t": 56086.878000000026,
      "d": 326.0864999999976,
      "v": 92
    },
    {
      "midi": 63,
      "hit": false,
      "t": 56086.878000000026,
      "d": 326.0864999999976,
      "v": 92
    },
    {
      "midi": 62,
      "hit": false,
      "t": 56412.964500000024,
      "d": 326.0864999999976,
      "v": 92
    },
    {
      "midi": 65,
      "hit": false,
      "t": 56412.964500000024,
      "d": 326.0864999999976,
      "v": 92
    },
    {
      "midi": 60,
      "hit": false,
      "t": 56739.05100000002,
      "d": 326.0864999999976,
      "v": 92
    },
    {
      "midi": 63,
      "hit": false,
      "t": 56739.05100000002,
      "d": 326.0864999999976,
      "v": 92
    },
    {
      "midi": 59,
      "hit": false,
      "t": 57065.13750000002,
      "d": 319.29303125000297,
      "v": 92
    },
    {
      "midi": 62,
      "hit": false,
      "t": 57065.13750000002,
      "d": 319.29303125000297,
      "v": 92
    },
    {
      "midi": 65,
      "hit": false,
      "t": 57391.224000000024,
      "d": 978.2595000000001,
      "v": 127
    },
    {
      "midi": 41,
      "hit": false,
      "t": 57391.224000000024,
      "d": 2445.6487500000003,
      "v": 105
    },
    {
      "midi": 48,
      "hit": false,
      "t": 57391.224000000024,
      "d": 2445.6487500000003,
      "v": 105
    },
    {
      "midi": 53,
      "hit": false,
      "t": 57391.224000000024,
      "d": 2445.6487500000003,
      "v": 105
    },
    {
      "midi": 63,
      "hit": false,
      "t": 58369.483500000024,
      "d": 163.04325000000244,
      "v": 92
    },
    {
      "midi": 62,
      "hit": false,
      "t": 58532.52675000003,
      "d": 163.04325000000244,
      "v": 92
    },
    {
      "midi": 60,
      "hit": false,
      "t": 58695.57000000003,
      "d": 326.0864999999976,
      "v": 92
    },
    {
      "midi": 62,
      "hit": false,
      "t": 59021.65650000003,
      "d": 326.0864999999976,
      "v": 92
    },
    {
      "midi": 65,
      "hit": false,
      "t": 59347.743000000024,
      "d": 326.0864999999976,
      "v": 92
    },
    {
      "midi": 72,
      "hit": false,
      "t": 59673.82950000002,
      "d": 319.29303125000297,
      "v": 92
    },
    {
      "midi": 67,
      "hit": false,
      "t": 59999.91600000003,
      "d": 2445.648749999993,
      "v": 92
    },
    {
      "midi": 43,
      "hit": false,
      "t": 59999.91600000003,
      "d": 2445.6487500000003,
      "v": 75
    },
    {
      "midi": 50,
      "hit": false,
      "t": 59999.91600000003,
      "d": 2445.6487500000003,
      "v": 75
    },
    {
      "midi": 59,
      "hit": false,
      "t": 60978.17550000003,
      "d": 326.0864999999976,
      "v": 92
    },
    {
      "midi": 62,
      "hit": false,
      "t": 60978.17550000003,
      "d": 326.0864999999976,
      "v": 92
    },
    {
      "midi": 60,
      "hit": false,
      "t": 61304.262000000024,
      "d": 326.0864999999976,
      "v": 92
    },
    {
      "midi": 63,
      "hit": false,
      "t": 61304.262000000024,
      "d": 326.0864999999976,
      "v": 92
    },
    {
      "midi": 62,
      "hit": false,
      "t": 61630.34850000002,
      "d": 326.0864999999976,
      "v": 92
    },
    {
      "midi": 65,
      "hit": false,
      "t": 61630.34850000002,
      "d": 326.0864999999976,
      "v": 92
    },
    {
      "midi": 60,
      "hit": false,
      "t": 61956.43500000002,
      "d": 326.0864999999976,
      "v": 92
    },
    {
      "midi": 63,
      "hit": false,
      "t": 61956.43500000002,
      "d": 326.0864999999976,
      "v": 92
    },
    {
      "midi": 59,
      "hit": false,
      "t": 62282.52150000002,
      "d": 319.29303125000297,
      "v": 92
    },
    {
      "midi": 62,
      "hit": false,
      "t": 62282.52150000002,
      "d": 319.29303125000297,
      "v": 92
    },
    {
      "midi": 65,
      "hit": false,
      "t": 62608.60800000002,
      "d": 978.2595000000001,
      "v": 92
    },
    {
      "midi": 41,
      "hit": false,
      "t": 62608.60800000003,
      "d": 2445.6487500000003,
      "v": 75
    },
    {
      "midi": 48,
      "hit": false,
      "t": 62608.60800000003,
      "d": 2445.6487500000003,
      "v": 75
    },
    {
      "midi": 53,
      "hit": false,
      "t": 62608.60800000003,
      "d": 2445.6487500000003,
      "v": 75
    },
    {
      "midi": 63,
      "hit": false,
      "t": 63586.86750000002,
      "d": 163.04325000000244,
      "v": 92
    },
    {
      "midi": 62,
      "hit": false,
      "t": 63749.910750000025,
      "d": 163.04325000000244,
      "v": 92
    },
    {
      "midi": 60,
      "hit": false,
      "t": 63912.95400000003,
      "d": 326.0864999999976,
      "v": 92
    },
    {
      "midi": 62,
      "hit": false,
      "t": 64239.040500000025,
      "d": 326.0864999999976,
      "v": 92
    },
    {
      "midi": 65,
      "hit": false,
      "t": 64565.12700000002,
      "d": 326.0864999999976,
      "v": 92
    },
    {
      "midi": 67,
      "hit": false,
      "t": 64891.21350000002,
      "d": 319.29303125000297,
      "v": 92
    },
    {
      "midi": 70,
      "hit": false,
      "t": 65217.300000000025,
      "d": 978.2594999999928,
      "v": 127
    },
    {
      "midi": 62,
      "hit": false,
      "t": 65217.300000000025,
      "d": 2445.648750000015,
      "v": 92
    },
    {
      "midi": 63,
      "hit": false,
      "t": 65217.300000000025,
      "d": 2445.648750000015,
      "v": 92
    },
    {
      "midi": 44,
      "hit": false,
      "t": 65217.30000000003,
      "d": 2445.6487500000076,
      "v": 105
    },
    {
      "midi": 56,
      "hit": false,
      "t": 65217.30000000003,
      "d": 2445.6487500000076,
      "v": 105
    },
    {
      "midi": 68,
      "hit": false,
      "t": 66195.55950000002,
      "d": 163.04325000000244,
      "v": 88
    },
    {
      "midi": 67,
      "hit": false,
      "t": 66358.60275000002,
      "d": 163.04325000000244,
      "v": 88
    },
    {
      "midi": 65,
      "hit": false,
      "t": 66521.64600000002,
      "d": 326.0865000000049,
      "v": 88
    },
    {
      "midi": 67,
      "hit": false,
      "t": 66847.73250000003,
      "d": 326.0865000000049,
      "v": 87
    },
    {
      "midi": 68,
      "hit": false,
      "t": 67173.81900000003,
      "d": 326.0865000000049,
      "v": 86
    },
    {
      "midi": 70,
      "hit": false,
      "t": 67499.90550000004,
      "d": 319.2930312499957,
      "v": 85
    },
    {
      "midi": 72,
      "hit": false,
      "t": 67825.99200000003,
      "d": 978.2595000000001,
      "v": 117
    },
    {
      "midi": 64,
      "hit": false,
      "t": 67825.99200000003,
      "d": 2445.648749999993,
      "v": 84
    },
    {
      "midi": 45,
      "hit": false,
      "t": 67825.99200000004,
      "d": 1793.4757499999978,
      "v": 105
    },
    {
      "midi": 52,
      "hit": false,
      "t": 67825.99200000004,
      "d": 1793.4757499999978,
      "v": 105
    },
    {
      "midi": 57,
      "hit": false,
      "t": 67825.99200000004,
      "d": 1793.4757499999978,
      "v": 105
    },
    {
      "midi": 70,
      "hit": false,
      "t": 68804.25150000003,
      "d": 163.04325000000244,
      "v": 80
    },
    {
      "midi": 69,
      "hit": false,
      "t": 68967.29475000003,
      "d": 163.04325000000244,
      "v": 80
    },
    {
      "midi": 67,
      "hit": false,
      "t": 69130.33800000003,
      "d": 326.0865000000049,
      "v": 80
    },
    {
      "midi": 69,
      "hit": false,
      "t": 69456.42450000004,
      "d": 319.2930312499957,
      "v": 79
    },
    {
      "midi": 70,
      "hit": false,
      "t": 69782.51100000003,
      "d": 319.2930312499957,
      "v": 109
    },
    {
      "midi": 45,
      "hit": false,
      "t": 69782.51100000004,
      "d": 319.2930312499957,
      "v": 105
    },
    {
      "midi": 52,
      "hit": false,
      "t": 69782.51100000004,
      "d": 319.2930312499957,
      "v": 105
    },
    {
      "midi": 57,
      "hit": false,
      "t": 69782.51100000004,
      "d": 319.2930312499957,
      "v": 105
    },
    {
      "midi": 72,
      "hit": false,
      "t": 70108.59750000002,
      "d": 319.2930312499957,
      "v": 107
    },
    {
      "midi": 45,
      "hit": false,
      "t": 70108.59750000003,
      "d": 319.2930312499957,
      "v": 105
    },
    {
      "midi": 52,
      "hit": false,
      "t": 70108.59750000003,
      "d": 319.2930312499957,
      "v": 105
    },
    {
      "midi": 57,
      "hit": false,
      "t": 70108.59750000003,
      "d": 319.2930312499957,
      "v": 105
    },
    {
      "midi": 67,
      "hit": false,
      "t": 70434.68400000001,
      "d": 1141.3027500000026,
      "v": 106
    },
    {
      "midi": 69,
      "hit": false,
      "t": 70434.68400000001,
      "d": 1141.3027500000026,
      "v": 106
    },
    {
      "midi": 74,
      "hit": false,
      "t": 70434.68400000001,
      "d": 1141.3027500000026,
      "v": 106
    },
    {
      "midi": 38,
      "hit": false,
      "t": 70434.68400000002,
      "d": 1141.3027500000026,
      "v": 105
    },
    {
      "midi": 45,
      "hit": false,
      "t": 70434.68400000002,
      "d": 1141.3027500000026,
      "v": 105
    },
    {
      "midi": 50,
      "hit": false,
      "t": 70434.68400000002,
      "d": 1141.3027500000026,
      "v": 105
    },
    {
      "midi": 66,
      "hit": false,
      "t": 71739.03000000001,
      "d": 1141.3027500000026,
      "v": 95
    },
    {
      "midi": 69,
      "hit": false,
      "t": 71739.03000000001,
      "d": 1141.3027500000026,
      "v": 95
    },
    {
      "midi": 74,
      "hit": false,
      "t": 71739.03000000001,
      "d": 1141.3027500000026,
      "v": 95
    },
    {
      "midi": 38,
      "hit": false,
      "t": 71739.03000000003,
      "d": 1141.3027500000026,
      "v": 105
    },
    {
      "midi": 45,
      "hit": false,
      "t": 71739.03000000003,
      "d": 1141.3027500000026,
      "v": 105
    },
    {
      "midi": 50,
      "hit": false,
      "t": 71739.03000000003,
      "d": 1141.3027500000026,
      "v": 105
    },
    {
      "midi": 67,
      "hit": false,
      "t": 73043.37600000002,
      "d": 156.24978124999325,
      "v": 60
    },
    {
      "midi": 43,
      "hit": false,
      "t": 73043.37600000003,
      "d": 1623.6390312500007,
      "v": 92
    },
    {
      "midi": 69,
      "hit": false,
      "t": 73206.41925,
      "d": 156.24978124999325,
      "v": 60
    },
    {
      "midi": 70,
      "hit": false,
      "t": 73369.4625,
      "d": 156.24978124999325,
      "v": 60
    },
    {
      "midi": 74,
      "hit": false,
      "t": 73532.50574999998,
      "d": 156.24978124999325,
      "v": 60
    },
    {
      "midi": 67,
      "hit": false,
      "t": 73695.54899999997,
      "d": 156.24978124999325,
      "v": 60
    },
    {
      "midi": 69,
      "hit": false,
      "t": 73858.59224999996,
      "d": 156.24978124999325,
      "v": 60
    },
    {
      "midi": 70,
      "hit": false,
      "t": 74021.63549999995,
      "d": 156.24978124999325,
      "v": 60
    },
    {
      "midi": 74,
      "hit": false,
      "t": 74184.67874999993,
      "d": 156.24978124999325,
      "v": 60
    },
    {
      "midi": 67,
      "hit": false,
      "t": 74347.72199999992,
      "d": 156.24978124999325,
      "v": 60
    },
    {
      "midi": 69,
      "hit": false,
      "t": 74510.76524999991,
      "d": 156.24978124999325,
      "v": 60
    },
    {
      "midi": 70,
      "hit": false,
      "t": 74673.8084999999,
      "d": 156.24978124999325,
      "v": 60
    },
    {
      "midi": 45,
      "hit": false,
      "t": 74673.80850000003,
      "d": 326.0865000000049,
      "v": 92
    },
    {
      "midi": 74,
      "hit": false,
      "t": 74836.85174999989,
      "d": 156.24978124999325,
      "v": 60
    },
    {
      "midi": 67,
      "hit": false,
      "t": 74999.89499999987,
      "d": 156.24978124999325,
      "v": 60
    },
    {
      "midi": 46,
      "hit": false,
      "t": 74999.89500000003,
      "d": 326.0865000000049,
      "v": 92
    },
    {
      "midi": 69,
      "hit": false,
      "t": 75162.93824999986,
      "d": 156.24978124999325,
      "v": 60
    },
    {
      "midi": 70,
      "hit": false,
      "t": 75325.98149999985,
      "d": 156.24978124999325,
      "v": 60
    },
    {
      "midi": 50,
      "hit": false,
      "t": 75325.98150000004,
      "d": 319.2930312499957,
      "v": 92
    },
    {
      "midi": 74,
      "hit": false,
      "t": 75489.02474999984,
      "d": 156.24978124999325,
      "v": 60
    },
    {
      "midi": 67,
      "hit": false,
      "t": 75652.06799999982,
      "d": 156.24978124999325,
      "v": 60
    },
    {
      "midi": 49,
      "hit": false,
      "t": 75652.06800000003,
      "d": 1141.3027500000026,
      "v": 92
    },
    {
      "midi": 69,
      "hit": false,
      "t": 75815.11124999981,
      "d": 156.24978124999325,
      "v": 60
    },
    {
      "midi": 70,
      "hit": false,
      "t": 75978.1544999998,
      "d": 156.24978124999325,
      "v": 60
    },
    {
      "midi": 73,
      "hit": false,
      "t": 76141.19774999979,
      "d": 156.24978124999325,
      "v": 60
    },
    {
      "midi": 67,
      "hit": false,
      "t": 76304.24099999978,
      "d": 156.24978124999325,
      "v": 60
    },
    {
      "midi": 69,
      "hit": false,
      "t": 76467.28424999976,
      "d": 156.24978124999325,
      "v": 60
    },
    {
      "midi": 70,
      "hit": false,
      "t": 76630.32749999975,
      "d": 156.24978124999325,
      "v": 60
    },
    {
      "midi": 73,
      "hit": false,
      "t": 76793.37074999974,
      "d": 156.24978124999325,
      "v": 60
    },
    {
      "midi": 67,
      "hit": false,
      "t": 76956.41399999973,
      "d": 156.24978124999325,
      "v": 60
    },
    {
      "midi": 45,
      "hit": false,
      "t": 76956.41400000003,
      "d": 1141.3027500000026,
      "v": 92
    },
    {
      "midi": 57,
      "hit": false,
      "t": 76956.41400000003,
      "d": 1141.3027500000026,
      "v": 92
    },
    {
      "midi": 69,
      "hit": false,
      "t": 77119.45724999972,
      "d": 156.24978124999325,
      "v": 60
    },
    {
      "midi": 70,
      "hit": false,
      "t": 77282.5004999997,
      "d": 156.24978124999325,
      "v": 60
    },
    {
      "midi": 73,
      "hit": false,
      "t": 77445.54374999969,
      "d": 156.24978124999325,
      "v": 60
    },
    {
      "midi": 67,
      "hit": false,
      "t": 77608.58699999968,
      "d": 156.24978124999325,
      "v": 60
    },
    {
      "midi": 69,
      "hit": false,
      "t": 77771.63024999967,
      "d": 156.24978124999325,
      "v": 60
    },
    {
      "midi": 70,
      "hit": false,
      "t": 77934.67349999966,
      "d": 156.24978124999325,
      "v": 60
    },
    {
      "midi": 73,
      "hit": false,
      "t": 78097.71674999964,
      "d": 156.24978124999325,
      "v": 60
    },
    {
      "midi": 63,
      "hit": false,
      "t": 78260.75999999963,
      "d": 156.24978124999325,
      "v": 60
    },
    {
      "midi": 48,
      "hit": false,
      "t": 78260.76000000004,
      "d": 1141.3027500000026,
      "v": 92
    },
    {
      "midi": 60,
      "hit": false,
      "t": 78260.76000000004,
      "d": 1141.3027500000026,
      "v": 92
    },
    {
      "midi": 66,
      "hit": false,
      "t": 78423.80324999962,
      "d": 156.24978124999325,
      "v": 60
    },
    {
      "midi": 69,
      "hit": false,
      "t": 78586.8464999996,
      "d": 156.24978124999325,
      "v": 60
    },
    {
      "midi": 72,
      "hit": false,
      "t": 78749.8897499996,
      "d": 156.24978124999325,
      "v": 60
    },
    {
      "midi": 63,
      "hit": false,
      "t": 78912.93299999958,
      "d": 156.24978124999325,
      "v": 60
    },
    {
      "midi": 66,
      "hit": false,
      "t": 79075.97624999957,
      "d": 156.24978124999325,
      "v": 60
    },
    {
      "midi": 69,
      "hit": false,
      "t": 79239.01949999956,
      "d": 156.24978124999325,
      "v": 60
    },
    {
      "midi": 72,
      "hit": false,
      "t": 79402.06274999955,
      "d": 156.24978124999325,
      "v": 60
    },
    {
      "midi": 63,
      "hit": false,
      "t": 79565.10599999953,
      "d": 156.24978124999325,
      "v": 60
    },
    {
      "midi": 46,
      "hit": false,
      "t": 79565.10600000004,
      "d": 434.7820000000065,
      "v": 92
    },
    {
      "midi": 58,
      "hit": false,
      "t": 79565.10600000004,
      "d": 434.7820000000065,
      "v": 92
    },
    {
      "midi": 66,
      "hit": false,
      "t": 79728.14924999952,
      "d": 156.24978124999325,
      "v": 60
    },
    {
      "midi": 69,
      "hit": false,
      "t": 79891.19249999951,
      "d": 156.24978124999325,
      "v": 60
    },
    {
      "midi": 42,
      "hit": false,
      "t": 79999.88800000005,
      "d": 434.7820000000065,
      "v": 92
    },
    {
      "midi": 54,
      "hit": false,
      "t": 79999.88800000005,
      "d": 434.7820000000065,
      "v": 92
    },
    {
      "midi": 72,
      "hit": false,
      "t": 80054.2357499995,
      "d": 156.24978124999325,
      "v": 60
    },
    {
      "midi": 63,
      "hit": false,
      "t": 80217.27899999949,
      "d": 156.24978124999325,
      "v": 60
    },
    {
      "midi": 66,
      "hit": false,
      "t": 80380.32224999947,
      "d": 156.24978124999325,
      "v": 60
    },
    {
      "midi": 46,
      "hit": false,
      "t": 80434.67000000006,
      "d": 427.9885312499973,
      "v": 92
    },
    {
      "midi": 58,
      "hit": false,
      "t": 80434.67000000006,
      "d": 427.9885312499973,
      "v": 92
    },
    {
      "midi": 69,
      "hit": false,
      "t": 80543.36549999946,
      "d": 156.24978124999325,
      "v": 60
    },
    {
      "midi": 72,
      "hit": false,
      "t": 80706.40874999945,
      "d": 156.24978124999325,
      "v": 60
    },
    {
      "midi": 67,
      "hit": false,
      "t": 80869.45199999944,
      "d": 156.24978124999325,
      "v": 60
    },
    {
      "midi": 43,
      "hit": false,
      "t": 80869.45200000005,
      "d": 2445.648749999993,
      "v": 92
    },
    {
      "midi": 55,
      "hit": false,
      "t": 80869.45200000005,
      "d": 2445.648749999993,
      "v": 92
    },
    {
      "midi": 69,
      "hit": false,
      "t": 81032.49524999943,
      "d": 156.24978124999325,
      "v": 60
    },
    {
      "midi": 70,
      "hit": false,
      "t": 81195.53849999941,
      "d": 156.24978124999325,
      "v": 60
    },
    {
      "midi": 74,
      "hit": false,
      "t": 81358.5817499994,
      "d": 156.24978124999325,
      "v": 60
    },
    {
      "midi": 67,
      "hit": false,
      "t": 81521.62499999939,
      "d": 156.24978124999325,
      "v": 60
    },
    {
      "midi": 69,
      "hit": false,
      "t": 81684.66824999938,
      "d": 156.24978124999325,
      "v": 60
    },
    {
      "midi": 70,
      "hit": false,
      "t": 81847.71149999936,
      "d": 156.24978124999325,
      "v": 60
    },
    {
      "midi": 74,
      "hit": false,
      "t": 82010.75474999935,
      "d": 156.24978124999325,
      "v": 60
    },
    {
      "midi": 67,
      "hit": false,
      "t": 82173.79799999934,
      "d": 156.24978124999325,
      "v": 60
    },
    {
      "midi": 69,
      "hit": false,
      "t": 82336.84124999933,
      "d": 156.24978124999325,
      "v": 60
    },
    {
      "midi": 70,
      "hit": false,
      "t": 82499.88449999932,
      "d": 156.24978124999325,
      "v": 60
    },
    {
      "midi": 74,
      "hit": false,
      "t": 82662.9277499993,
      "d": 156.24978124999325,
      "v": 60
    },
    {
      "midi": 67,
      "hit": false,
      "t": 82825.97099999929,
      "d": 156.24978124999325,
      "v": 60
    },
    {
      "midi": 69,
      "hit": false,
      "t": 82989.01424999928,
      "d": 156.24978124999325,
      "v": 60
    },
    {
      "midi": 70,
      "hit": false,
      "t": 83152.05749999927,
      "d": 156.24978124999325,
      "v": 60
    },
    {
      "midi": 74,
      "hit": false,
      "t": 83315.10074999926,
      "d": 156.24978124999325,
      "v": 60
    },
    {
      "midi": 67,
      "hit": false,
      "t": 83478.14399999924,
      "d": 156.24978124999325,
      "v": 60
    },
    {
      "midi": 43,
      "hit": false,
      "t": 83478.14400000004,
      "d": 1623.6390312500007,
      "v": 92
    },
    {
      "midi": 55,
      "hit": false,
      "t": 83478.14400000004,
      "d": 1623.6390312500007,
      "v": 92
    },
    {
      "midi": 69,
      "hit": false,
      "t": 83641.18724999923,
      "d": 156.24978124999325,
      "v": 60
    },
    {
      "midi": 70,
      "hit": false,
      "t": 83804.23049999922,
      "d": 156.24978124999325,
      "v": 60
    },
    {
      "midi": 74,
      "hit": false,
      "t": 83967.2737499992,
      "d": 156.24978124999325,
      "v": 60
    },
    {
      "midi": 67,
      "hit": false,
      "t": 84130.3169999992,
      "d": 156.24978124999325,
      "v": 60
    },
    {
      "midi": 69,
      "hit": false,
      "t": 84293.36024999918,
      "d": 156.24978124999325,
      "v": 60
    },
    {
      "midi": 70,
      "hit": false,
      "t": 84456.40349999917,
      "d": 156.24978124999325,
      "v": 60
    },
    {
      "midi": 74,
      "hit": false,
      "t": 84619.44674999916,
      "d": 156.24978124999325,
      "v": 60
    },
    {
      "midi": 67,
      "hit": false,
      "t": 84782.48999999915,
      "d": 156.24978124999325,
      "v": 60
    },
    {
      "midi": 69,
      "hit": false,
      "t": 84945.53324999913,
      "d": 156.24978124999325,
      "v": 60
    },
    {
      "midi": 70,
      "hit": false,
      "t": 85108.57649999912,
      "d": 156.24978124999325,
      "v": 60
    },
    {
      "midi": 45,
      "hit": false,
      "t": 85108.57650000004,
      "d": 319.2930312499957,
      "v": 92
    },
    {
      "midi": 57,
      "hit": false,
      "t": 85108.57650000004,
      "d": 319.2930312499957,
      "v": 92
    },
    {
      "midi": 74,
      "hit": false,
      "t": 85271.61974999911,
      "d": 156.24978124999325,
      "v": 60
    },
    {
      "midi": 67,
      "hit": false,
      "t": 85434.6629999991,
      "d": 156.24978124999325,
      "v": 60
    },
    {
      "midi": 46,
      "hit": false,
      "t": 85434.66300000003,
      "d": 319.2930312499957,
      "v": 92
    },
    {
      "midi": 58,
      "hit": false,
      "t": 85434.66300000003,
      "d": 319.2930312499957,
      "v": 92
    },
    {
      "midi": 69,
      "hit": false,
      "t": 85597.70624999909,
      "d": 156.24978124999325,
      "v": 60
    },
    {
      "midi": 70,
      "hit": false,
      "t": 85760.74949999907,
      "d": 156.24978124999325,
      "v": 60
    },
    {
      "midi": 50,
      "hit": false,
      "t": 85760.74950000002,
      "d": 319.2930312499957,
      "v": 92
    },
    {
      "midi": 62,
      "hit": false,
      "t": 85760.74950000002,
      "d": 319.2930312499957,
      "v": 92
    },
    {
      "midi": 74,
      "hit": false,
      "t": 85923.79274999906,
      "d": 156.24978124999325,
      "v": 60
    },
    {
      "midi": 67,
      "hit": false,
      "t": 86086.83599999905,
      "d": 156.24978124999325,
      "v": 60
    },
    {
      "midi": 49,
      "hit": false,
      "t": 86086.83600000001,
      "d": 1141.3027500000026,
      "v": 92
    },
    {
      "midi": 61,
      "hit": false,
      "t": 86086.83600000001,
      "d": 1141.3027500000026,
      "v": 92
    },
    {
      "midi": 69,
      "hit": false,
      "t": 86249.87924999904,
      "d": 156.24978124999325,
      "v": 60
    },
    {
      "midi": 70,
      "hit": false,
      "t": 86412.92249999903,
      "d": 156.24978124999325,
      "v": 60
    },
    {
      "midi": 73,
      "hit": false,
      "t": 86575.96574999901,
      "d": 156.24978124999325,
      "v": 60
    },
    {
      "midi": 67,
      "hit": false,
      "t": 86739.008999999,
      "d": 156.24978124999325,
      "v": 60
    },
    {
      "midi": 69,
      "hit": false,
      "t": 86902.05224999899,
      "d": 156.24978124999325,
      "v": 60
    },
    {
      "midi": 70,
      "hit": false,
      "t": 87065.09549999898,
      "d": 156.24978124999325,
      "v": 60
    },
    {
      "midi": 73,
      "hit": false,
      "t": 87228.13874999897,
      "d": 156.24978124999325,
      "v": 60
    },
    {
      "midi": 67,
      "hit": false,
      "t": 87391.18199999895,
      "d": 156.24978124999325,
      "v": 60
    },
    {
      "midi": 45,
      "hit": false,
      "t": 87391.18200000002,
      "d": 1141.3027500000026,
      "v": 92
    },
    {
      "midi": 57,
      "hit": false,
      "t": 87391.18200000002,
      "d": 1141.3027500000026,
      "v": 92
    },
    {
      "midi": 69,
      "hit": false,
      "t": 87554.22524999894,
      "d": 156.24978124999325,
      "v": 60
    },
    {
      "midi": 70,
      "hit": false,
      "t": 87717.26849999893,
      "d": 156.24978124999325,
      "v": 60
    },
    {
      "midi": 73,
      "hit": false,
      "t": 87880.31174999892,
      "d": 156.24978124999325,
      "v": 60
    },
    {
      "midi": 67,
      "hit": false,
      "t": 88043.3549999989,
      "d": 156.24978124999325,
      "v": 60
    },
    {
      "midi": 69,
      "hit": false,
      "t": 88206.39824999889,
      "d": 156.24978124999325,
      "v": 60
    },
    {
      "midi": 70,
      "hit": false,
      "t": 88369.44149999888,
      "d": 156.24978124999325,
      "v": 60
    },
    {
      "midi": 73,
      "hit": false,
      "t": 88532.48474999887,
      "d": 156.24978124999325,
      "v": 60
    },
    {
      "midi": 63,
      "hit": false,
      "t": 88695.52799999886,
      "d": 156.24978124999325,
      "v": 60
    },
    {
      "midi": 48,
      "hit": false,
      "t": 88695.52800000002,
      "d": 1141.3027500000026,
      "v": 92
    },
    {
      "midi": 60,
      "hit": false,
      "t": 88695.52800000002,
      "d": 1141.3027500000026,
      "v": 92
    },
    {
      "midi": 66,
      "hit": false,
      "t": 88858.57124999884,
      "d": 156.24978124999325,
      "v": 60
    },
    {
      "midi": 69,
      "hit": false,
      "t": 89021.61449999883,
      "d": 156.24978124999325,
      "v": 60
    },
    {
      "midi": 72,
      "hit": false,
      "t": 89184.65774999882,
      "d": 156.24978124999325,
      "v": 60
    },
    {
      "midi": 63,
      "hit": false,
      "t": 89347.70099999881,
      "d": 156.24978124999325,
      "v": 60
    },
    {
      "midi": 66,
      "hit": false,
      "t": 89510.7442499988,
      "d": 156.24978124999325,
      "v": 60
    },
    {
      "midi": 69,
      "hit": false,
      "t": 89673.78749999878,
      "d": 156.24978124999325,
      "v": 60
    },
    {
      "midi": 72,
      "hit": false,
      "t": 89836.83074999877,
      "d": 156.24978124999325,
      "v": 60
    },
    {
      "midi": 63,
      "hit": false,
      "t": 89999.87399999876,
      "d": 156.24978124999325,
      "v": 60
    },
    {
      "midi": 46,
      "hit": false,
      "t": 89999.87400000003,
      "d": 434.7820000000065,
      "v": 92
    },
    {
      "midi": 58,
      "hit": false,
      "t": 89999.87400000003,
      "d": 434.7820000000065,
      "v": 92
    },
    {
      "midi": 66,
      "hit": false,
      "t": 90162.91724999875,
      "d": 156.24978124999325,
      "v": 60
    },
    {
      "midi": 69,
      "hit": false,
      "t": 90325.96049999874,
      "d": 156.24978124999325,
      "v": 60
    },
    {
      "midi": 42,
      "hit": false,
      "t": 90434.65600000003,
      "d": 434.7820000000065,
      "v": 92
    },
    {
      "midi": 54,
      "hit": false,
      "t": 90434.65600000003,
      "d": 434.7820000000065,
      "v": 92
    },
    {
      "midi": 72,
      "hit": false,
      "t": 90489.00374999872,
      "d": 156.24978124999325,
      "v": 60
    },
    {
      "midi": 63,
      "hit": false,
      "t": 90652.04699999871,
      "d": 156.24978124999325,
      "v": 60
    },
    {
      "midi": 66,
      "hit": false,
      "t": 90815.0902499987,
      "d": 156.24978124999325,
      "v": 60
    },
    {
      "midi": 46,
      "hit": false,
      "t": 90869.43800000004,
      "d": 427.9885312499973,
      "v": 92
    },
    {
      "midi": 58,
      "hit": false,
      "t": 90869.43800000004,
      "d": 427.9885312499973,
      "v": 92
    },
    {
      "midi": 69,
      "hit": false,
      "t": 90978.13349999869,
      "d": 156.24978124999325,
      "v": 60
    },
    {
      "midi": 72,
      "hit": false,
      "t": 91141.17674999867,
      "d": 156.24978124999325,
      "v": 60
    },
    {
      "midi": 67,
      "hit": false,
      "t": 91304.21999999866,
      "d": 156.24978124999325,
      "v": 60
    },
    {
      "midi": 43,
      "hit": false,
      "t": 91304.22000000003,
      "d": 2445.648749999993,
      "v": 92
    },
    {
      "midi": 55,
      "hit": false,
      "t": 91304.22000000003,
      "d": 2445.648749999993,
      "v": 92
    },
    {
      "midi": 69,
      "hit": false,
      "t": 91467.26324999865,
      "d": 156.24978124999325,
      "v": 60
    },
    {
      "midi": 70,
      "hit": false,
      "t": 91630.30649999864,
      "d": 156.24978124999325,
      "v": 60
    },
    {
      "midi": 74,
      "hit": false,
      "t": 91793.34974999863,
      "d": 156.24978124999325,
      "v": 60
    },
    {
      "midi": 67,
      "hit": false,
      "t": 91956.39299999861,
      "d": 156.24978124999325,
      "v": 60
    },
    {
      "midi": 69,
      "hit": false,
      "t": 92119.4362499986,
      "d": 156.24978124999325,
      "v": 60
    },
    {
      "midi": 70,
      "hit": false,
      "t": 92282.47949999859,
      "d": 156.24978124999325,
      "v": 60
    },
    {
      "midi": 74,
      "hit": false,
      "t": 92445.52274999858,
      "d": 156.24978124999325,
      "v": 60
    },
    {
      "midi": 67,
      "hit": false,
      "t": 92608.56599999857,
      "d": 156.24978124999325,
      "v": 60
    },
    {
      "midi": 69,
      "hit": false,
      "t": 92771.60924999855,
      "d": 156.24978124999325,
      "v": 60
    },
    {
      "midi": 70,
      "hit": false,
      "t": 92934.65249999854,
      "d": 156.24978124999325,
      "v": 60
    },
    {
      "midi": 74,
      "hit": false,
      "t": 93097.69574999853,
      "d": 156.24978124999325,
      "v": 60
    },
    {
      "midi": 67,
      "hit": false,
      "t": 93260.73899999852,
      "d": 156.24978124999325,
      "v": 60
    },
    {
      "midi": 69,
      "hit": false,
      "t": 93423.7822499985,
      "d": 156.24978124999325,
      "v": 60
    },
    {
      "midi": 70,
      "hit": false,
      "t": 93586.8254999985,
      "d": 156.24978124999325,
      "v": 60
    },
    {
      "midi": 74,
      "hit": false,
      "t": 93749.86874999848,
      "d": 156.24978124999325,
      "v": 60
    },
    {
      "midi": 75,
      "hit": false,
      "t": 93912.91199999847,
      "d": 869.5639999999985,
      "v": 108
    },
    {
      "midi": 79,
      "hit": false,
      "t": 93912.91199999847,
      "d": 869.5639999999985,
      "v": 108
    },
    {
      "midi": 87,
      "hit": false,
      "t": 93912.91199999847,
      "d": 869.5639999999985,
      "v": 108
    },
    {
      "midi": 24,
      "hit": false,
      "t": 93912.91200000003,
      "d": 2445.648749999833,
      "v": 92
    },
    {
      "midi": 36,
      "hit": false,
      "t": 94075.95525000003,
      "d": 156.24978124999325,
      "v": 92
    },
    {
      "midi": 36,
      "hit": false,
      "t": 94238.99850000002,
      "d": 156.24978124999325,
      "v": 92
    },
    {
      "midi": 36,
      "hit": false,
      "t": 94402.04175,
      "d": 156.24978124999325,
      "v": 92
    },
    {
      "midi": 31,
      "hit": false,
      "t": 94565.08499999999,
      "d": 156.24978124999325,
      "v": 92
    },
    {
      "midi": 27,
      "hit": false,
      "t": 94728.12824999998,
      "d": 156.24978124999325,
      "v": 92
    },
    {
      "midi": 75,
      "hit": false,
      "t": 94891.17149999847,
      "d": 156.24978124999325,
      "v": 108
    },
    {
      "midi": 79,
      "hit": false,
      "t": 94891.17149999847,
      "d": 156.24978124999325,
      "v": 108
    },
    {
      "midi": 87,
      "hit": false,
      "t": 94891.17149999847,
      "d": 156.24978124999325,
      "v": 108
    },
    {
      "midi": 31,
      "hit": false,
      "t": 94891.17149999997,
      "d": 156.24978124999325,
      "v": 92
    },
    {
      "midi": 75,
      "hit": false,
      "t": 95054.21474999846,
      "d": 156.24978124999325,
      "v": 108
    },
    {
      "midi": 79,
      "hit": false,
      "t": 95054.21474999846,
      "d": 156.24978124999325,
      "v": 108
    },
    {
      "midi": 87,
      "hit": false,
      "t": 95054.21474999846,
      "d": 156.24978124999325,
      "v": 108
    },
    {
      "midi": 36,
      "hit": false,
      "t": 95054.21474999996,
      "d": 156.24978124999325,
      "v": 92
    },
    {
      "midi": 75,
      "hit": false,
      "t": 95217.25799999844,
      "d": 319.2930312499957,
      "v": 108
    },
    {
      "midi": 79,
      "hit": false,
      "t": 95217.25799999844,
      "d": 319.2930312499957,
      "v": 108
    },
    {
      "midi": 87,
      "hit": false,
      "t": 95217.25799999844,
      "d": 319.2930312499957,
      "v": 108
    },
    {
      "midi": 39,
      "hit": false,
      "t": 95217.25799999994,
      "d": 156.24978124999325,
      "v": 92
    },
    {
      "midi": 36,
      "hit": false,
      "t": 95380.30124999993,
      "d": 156.24978124999325,
      "v": 92
    },
    {
      "midi": 72,
      "hit": false,
      "t": 95543.34449999843,
      "d": 319.2930312499957,
      "v": 108
    },
    {
      "midi": 84,
      "hit": false,
      "t": 95543.34449999843,
      "d": 319.2930312499957,
      "v": 108
    },
    {
      "midi": 39,
      "hit": false,
      "t": 95543.34449999992,
      "d": 156.24978124999325,
      "v": 92
    },
    {
      "midi": 43,
      "hit": false,
      "t": 95706.3877499999,
      "d": 156.24978124999325,
      "v": 92
    },
    {
      "midi": 67,
      "hit": false,
      "t": 95869.43099999843,
      "d": 319.2930312499957,
      "v": 127
    },
    {
      "midi": 79,
      "hit": false,
      "t": 95869.43099999843,
      "d": 319.2930312499957,
      "v": 127
    },
    {
      "midi": 48,
      "hit": false,
      "t": 95869.4309999999,
      "d": 156.24978124999325,
      "v": 92
    },
    {
      "midi": 43,
      "hit": false,
      "t": 96032.47424999988,
      "d": 156.24978124999325,
      "v": 92
    },
    {
      "midi": 75,
      "hit": false,
      "t": 96195.51749999842,
      "d": 319.2930312499957,
      "v": 108
    },
    {
      "midi": 79,
      "hit": false,
      "t": 96195.51749999842,
      "d": 319.2930312499957,
      "v": 108
    },
    {
      "midi": 87,
      "hit": false,
      "t": 96195.51749999842,
      "d": 319.2930312499957,
      "v": 108
    },
    {
      "midi": 48,
      "hit": false,
      "t": 96195.51749999987,
      "d": 156.24978124999325,
      "v": 92
    },
    {
      "midi": 51,
      "hit": false,
      "t": 96358.56074999986,
      "d": 156.24978124999325,
      "v": 92
    },
    {
      "midi": 74,
      "hit": false,
      "t": 96521.6039999984,
      "d": 2445.6487500000076,
      "v": 108
    },
    {
      "midi": 82,
      "hit": false,
      "t": 96521.6039999984,
      "d": 2445.6487500000076,
      "v": 108
    },
    {
      "midi": 86,
      "hit": false,
      "t": 96521.6039999984,
      "d": 2445.6487500000076,
      "v": 108
    },
    {
      "midi": 31,
      "hit": false,
      "t": 96521.60399999985,
      "d": 2445.6487499998475,
      "v": 92
    },
    {
      "midi": 43,
      "hit": false,
      "t": 96847.69049999985,
      "d": 156.24978124999325,
      "v": 92
    },
    {
      "midi": 46,
      "hit": false,
      "t": 97010.73374999984,
      "d": 156.24978124999325,
      "v": 92
    },
    {
      "midi": 50,
      "hit": false,
      "t": 97173.77699999983,
      "d": 156.24978124999325,
      "v": 92
    },
    {
      "midi": 46,
      "hit": false,
      "t": 97336.82024999982,
      "d": 156.24978124999325,
      "v": 92
    },
    {
      "midi": 50,
      "hit": false,
      "t": 97499.8634999998,
      "d": 156.24978124999325,
      "v": 92
    },
    {
      "midi": 55,
      "hit": false,
      "t": 97662.90674999979,
      "d": 156.24978124999325,
      "v": 92
    },
    {
      "midi": 58,
      "hit": false,
      "t": 97825.94999999978,
      "d": 156.24978124999325,
      "v": 92
    },
    {
      "midi": 55,
      "hit": false,
      "t": 97988.99324999977,
      "d": 156.24978124999325,
      "v": 92
    },
    {
      "midi": 58,
      "hit": false,
      "t": 98152.03649999975,
      "d": 156.24978124999325,
      "v": 92
    },
    {
      "midi": 62,
      "hit": false,
      "t": 98315.07974999974,
      "d": 156.24978124999325,
      "v": 92
    },
    {
      "midi": 67,
      "hit": false,
      "t": 98478.12299999973,
      "d": 156.24978124999325,
      "v": 92
    },
    {
      "midi": 62,
      "hit": false,
      "t": 98641.16624999972,
      "d": 156.24978124999325,
      "v": 92
    },
    {
      "midi": 67,
      "hit": false,
      "t": 98804.2094999997,
      "d": 156.24978124999325,
      "v": 92
    },
    {
      "midi": 70,
      "hit": false,
      "t": 98967.2527499997,
      "d": 156.24978124999325,
      "v": 92
    },
    {
      "midi": 72,
      "hit": false,
      "t": 99130.29599999842,
      "d": 869.5639999999985,
      "v": 108
    },
    {
      "midi": 84,
      "hit": false,
      "t": 99130.29599999842,
      "d": 869.5639999999985,
      "v": 108
    },
    {
      "midi": 33,
      "hit": false,
      "t": 99130.29599999968,
      "d": 2445.6487499998475,
      "v": 92
    },
    {
      "midi": 45,
      "hit": false,
      "t": 99456.38249999969,
      "d": 156.24978124999325,
      "v": 92
    },
    {
      "midi": 48,
      "hit": false,
      "t": 99619.42574999967,
      "d": 156.24978124999325,
      "v": 92
    },
    {
      "midi": 51,
      "hit": false,
      "t": 99782.46899999966,
      "d": 156.24978124999325,
      "v": 92
    },
    {
      "midi": 48,
      "hit": false,
      "t": 99945.51224999965,
      "d": 156.24978124999325,
      "v": 92
    },
    {
      "midi": 72,
      "hit": false,
      "t": 100108.55549999842,
      "d": 156.24978124999325,
      "v": 108
    },
    {
      "midi": 84,
      "hit": false,
      "t": 100108.55549999842,
      "d": 156.24978124999325,
      "v": 108
    },
    {
      "midi": 51,
      "hit": false,
      "t": 100108.55549999964,
      "d": 156.24978124999325,
      "v": 92
    },
    {
      "midi": 72,
      "hit": false,
      "t": 100271.5987499984,
      "d": 156.24978124999325,
      "v": 108
    },
    {
      "midi": 84,
      "hit": false,
      "t": 100271.5987499984,
      "d": 156.24978124999325,
      "v": 108
    },
    {
      "midi": 55,
      "hit": false,
      "t": 100271.59874999963,
      "d": 156.24978124999325,
      "v": 92
    },
    {
      "midi": 72,
      "hit": false,
      "t": 100434.64199999839,
      "d": 319.2930312499957,
      "v": 108
    },
    {
      "midi": 84,
      "hit": false,
      "t": 100434.64199999839,
      "d": 319.2930312499957,
      "v": 108
    },
    {
      "midi": 60,
      "hit": false,
      "t": 100434.64199999961,
      "d": 156.24978124999325,
      "v": 92
    },
    {
      "midi": 55,
      "hit": false,
      "t": 100597.6852499996,
      "d": 156.24978124999325,
      "v": 92
    },
    {
      "midi": 67,
      "hit": false,
      "t": 100760.72849999838,
      "d": 319.2930312499957,
      "v": 108
    },
    {
      "midi": 79,
      "hit": false,
      "t": 100760.72849999838,
      "d": 319.2930312499957,
      "v": 108
    },
    {
      "midi": 60,
      "hit": false,
      "t": 100760.72849999959,
      "d": 156.24978124999325,
      "v": 92
    },
    {
      "midi": 63,
      "hit": false,
      "t": 100923.77174999958,
      "d": 156.24978124999325,
      "v": 92
    },
    {
      "midi": 63,
      "hit": false,
      "t": 101086.81499999837,
      "d": 319.2930312499957,
      "v": 108
    },
    {
      "midi": 75,
      "hit": false,
      "t": 101086.81499999837,
      "d": 319.2930312499957,
      "v": 108
    },
    {
      "midi": 67,
      "hit": false,
      "t": 101086.81499999957,
      "d": 156.24978124999325,
      "v": 92
    },
    {
      "midi": 63,
      "hit": false,
      "t": 101249.85824999955,
      "d": 156.24978124999325,
      "v": 92
    },
    {
      "midi": 72,
      "hit": false,
      "t": 101412.90149999836,
      "d": 319.2930312499957,
      "v": 108
    },
    {
      "midi": 84,
      "hit": false,
      "t": 101412.90149999836,
      "d": 319.2930312499957,
      "v": 108
    },
    {
      "midi": 67,
      "hit": false,
      "t": 101412.90149999954,
      "d": 156.24978124999325,
      "v": 92
    },
    {
      "midi": 72,
      "hit": false,
      "t": 101575.94474999953,
      "d": 156.24978124999325,
      "v": 92
    },
    {
      "midi": 70,
      "hit": false,
      "t": 101738.98799999835,
      "d": 2445.648749999993,
      "v": 108
    },
    {
      "midi": 82,
      "hit": false,
      "t": 101738.98799999835,
      "d": 2445.648749999993,
      "v": 108
    },
    {
      "midi": 31,
      "hit": false,
      "t": 101738.98799999952,
      "d": 2445.6487499998475,
      "v": 92
    },
    {
      "midi": 43,
      "hit": false,
      "t": 102065.07449999952,
      "d": 156.24978124999325,
      "v": 92
    },
    {
      "midi": 46,
      "hit": false,
      "t": 102228.11774999951,
      "d": 156.24978124999325,
      "v": 92
    },
    {
      "midi": 50,
      "hit": false,
      "t": 102391.1609999995,
      "d": 156.24978124999325,
      "v": 92
    },
    {
      "midi": 46,
      "hit": false,
      "t": 102554.20424999949,
      "d": 156.24978124999325,
      "v": 92
    },
    {
      "midi": 50,
      "hit": false,
      "t": 102717.24749999947,
      "d": 156.24978124999325,
      "v": 92
    },
    {
      "midi": 55,
      "hit": false,
      "t": 102880.29074999946,
      "d": 156.24978124999325,
      "v": 92
    },
    {
      "midi": 58,
      "hit": false,
      "t": 103043.33399999945,
      "d": 156.24978124999325,
      "v": 92
    },
    {
      "midi": 55,
      "hit": false,
      "t": 103206.37724999944,
      "d": 156.24978124999325,
      "v": 92
    },
    {
      "midi": 58,
      "hit": false,
      "t": 103369.42049999943,
      "d": 156.24978124999325,
      "v": 92
    },
    {
      "midi": 62,
      "hit": false,
      "t": 103532.46374999941,
      "d": 156.24978124999325,
      "v": 92
    },
    {
      "midi": 67,
      "hit": false,
      "t": 103695.5069999994,
      "d": 156.24978124999325,
      "v": 92
    },
    {
      "midi": 62,
      "hit": false,
      "t": 103858.55024999939,
      "d": 156.24978124999325,
      "v": 92
    },
    {
      "midi": 67,
      "hit": false,
      "t": 104021.59349999938,
      "d": 156.24978124999325,
      "v": 92
    },
    {
      "midi": 70,
      "hit": false,
      "t": 104184.63674999936,
      "d": 156.24978124999325,
      "v": 92
    },
    {
      "midi": 75,
      "hit": false,
      "t": 104347.67999999835,
      "d": 869.5639999999985,
      "v": 108
    },
    {
      "midi": 79,
      "hit": false,
      "t": 104347.67999999835,
      "d": 869.5639999999985,
      "v": 108
    },
    {
      "midi": 87,
      "hit": false,
      "t": 104347.67999999835,
      "d": 869.5639999999985,
      "v": 108
    },
    {
      "midi": 24,
      "hit": false,
      "t": 104347.67999999935,
      "d": 2445.6487499998475,
      "v": 92
    },
    {
      "midi": 36,
      "hit": false,
      "t": 104673.76649999936,
      "d": 156.24978124999325,
      "v": 92
    },
    {
      "midi": 36,
      "hit": false,
      "t": 104836.80974999935,
      "d": 156.24978124999325,
      "v": 92
    },
    {
      "midi": 31,
      "hit": false,
      "t": 104999.85299999933,
      "d": 156.24978124999325,
      "v": 92
    },
    {
      "midi": 27,
      "hit": false,
      "t": 105162.89624999932,
      "d": 156.24978124999325,
      "v": 92
    },
    {
      "midi": 75,
      "hit": false,
      "t": 105325.93949999835,
      "d": 156.24978124999325,
      "v": 108
    },
    {
      "midi": 79,
      "hit": false,
      "t": 105325.93949999835,
      "d": 156.24978124999325,
      "v": 108
    },
    {
      "midi": 87,
      "hit": false,
      "t": 105325.93949999835,
      "d": 156.24978124999325,
      "v": 108
    },
    {
      "midi": 31,
      "hit": false,
      "t": 105325.93949999931,
      "d": 156.24978124999325,
      "v": 92
    },
    {
      "midi": 75,
      "hit": false,
      "t": 105488.98274999834,
      "d": 156.24978124999325,
      "v": 108
    },
    {
      "midi": 79,
      "hit": false,
      "t": 105488.98274999834,
      "d": 156.24978124999325,
      "v": 108
    },
    {
      "midi": 87,
      "hit": false,
      "t": 105488.98274999834,
      "d": 156.24978124999325,
      "v": 108
    },
    {
      "midi": 36,
      "hit": false,
      "t": 105488.9827499993,
      "d": 156.24978124999325,
      "v": 92
    },
    {
      "midi": 75,
      "hit": false,
      "t": 105652.02599999832,
      "d": 319.2930312499957,
      "v": 108
    },
    {
      "midi": 79,
      "hit": false,
      "t": 105652.02599999832,
      "d": 319.2930312499957,
      "v": 108
    },
    {
      "midi": 87,
      "hit": false,
      "t": 105652.02599999832,
      "d": 319.2930312499957,
      "v": 108
    },
    {
      "midi": 39,
      "hit": false,
      "t": 105652.02599999928,
      "d": 156.24978124999325,
      "v": 92
    },
    {
      "midi": 36,
      "hit": false,
      "t": 105815.06924999927,
      "d": 156.24978124999325,
      "v": 92
    },
    {
      "midi": 72,
      "hit": false,
      "t": 105978.11249999831,
      "d": 319.2930312499957,
      "v": 108
    },
    {
      "midi": 84,
      "hit": false,
      "t": 105978.11249999831,
      "d": 319.2930312499957,
      "v": 108
    },
    {
      "midi": 39,
      "hit": false,
      "t": 105978.11249999926,
      "d": 156.24978124999325,
      "v": 92
    },
    {
      "midi": 43,
      "hit": false,
      "t": 106141.15574999925,
      "d": 156.24978124999325,
      "v": 92
    },
    {
      "midi": 67,
      "hit": false,
      "t": 106304.1989999983,
      "d": 319.2930312499957,
      "v": 127
    },
    {
      "midi": 79,
      "hit": false,
      "t": 106304.1989999983,
      "d": 319.2930312499957,
      "v": 127
    },
    {
      "midi": 48,
      "hit": false,
      "t": 106304.19899999924,
      "d": 156.24978124999325,
      "v": 92
    },
    {
      "midi": 43,
      "hit": false,
      "t": 106467.24224999922,
      "d": 156.24978124999325,
      "v": 92
    },
    {
      "midi": 75,
      "hit": false,
      "t": 106630.2854999983,
      "d": 319.2930312499957,
      "v": 108
    },
    {
      "midi": 79,
      "hit": false,
      "t": 106630.2854999983,
      "d": 319.2930312499957,
      "v": 108
    },
    {
      "midi": 87,
      "hit": false,
      "t": 106630.2854999983,
      "d": 319.2930312499957,
      "v": 108
    },
    {
      "midi": 48,
      "hit": false,
      "t": 106630.28549999921,
      "d": 156.24978124999325,
      "v": 92
    },
    {
      "midi": 51,
      "hit": false,
      "t": 106793.3287499992,
      "d": 156.24978124999325,
      "v": 92
    },
    {
      "midi": 74,
      "hit": false,
      "t": 106956.37199999829,
      "d": 869.5639999999985,
      "v": 108
    },
    {
      "midi": 82,
      "hit": false,
      "t": 106956.37199999829,
      "d": 869.5639999999985,
      "v": 108
    },
    {
      "midi": 86,
      "hit": false,
      "t": 106956.37199999829,
      "d": 869.5639999999985,
      "v": 108
    },
    {
      "midi": 34,
      "hit": false,
      "t": 106956.37199999919,
      "d": 2445.6487499998475,
      "v": 92
    },
    {
      "midi": 43,
      "hit": false,
      "t": 107282.4584999992,
      "d": 156.24978124999325,
      "v": 92
    },
    {
      "midi": 46,
      "hit": false,
      "t": 107445.50174999918,
      "d": 156.24978124999325,
      "v": 92
    },
    {
      "midi": 50,
      "hit": false,
      "t": 107608.54499999917,
      "d": 156.24978124999325,
      "v": 92
    },
    {
      "midi": 46,
      "hit": false,
      "t": 107771.58824999916,
      "d": 156.24978124999325,
      "v": 92
    },
    {
      "midi": 74,
      "hit": false,
      "t": 107934.63149999829,
      "d": 156.24978124999325,
      "v": 108
    },
    {
      "midi": 82,
      "hit": false,
      "t": 107934.63149999829,
      "d": 156.24978124999325,
      "v": 108
    },
    {
      "midi": 86,
      "hit": false,
      "t": 107934.63149999829,
      "d": 156.24978124999325,
      "v": 108
    },
    {
      "midi": 50,
      "hit": false,
      "t": 107934.63149999914,
      "d": 156.24978124999325,
      "v": 92
    },
    {
      "midi": 74,
      "hit": false,
      "t": 108097.67474999827,
      "d": 156.24978124999325,
      "v": 108
    },
    {
      "midi": 82,
      "hit": false,
      "t": 108097.67474999827,
      "d": 156.24978124999325,
      "v": 108
    },
    {
      "midi": 86,
      "hit": false,
      "t": 108097.67474999827,
      "d": 156.24978124999325,
      "v": 108
    },
    {
      "midi": 55,
      "hit": false,
      "t": 108097.67474999913,
      "d": 156.24978124999325,
      "v": 92
    },
    {
      "midi": 74,
      "hit": false,
      "t": 108260.71799999826,
      "d": 319.2930312499957,
      "v": 108
    },
    {
      "midi": 82,
      "hit": false,
      "t": 108260.71799999826,
      "d": 319.2930312499957,
      "v": 108
    },
    {
      "midi": 86,
      "hit": false,
      "t": 108260.71799999826,
      "d": 319.2930312499957,
      "v": 108
    },
    {
      "midi": 58,
      "hit": false,
      "t": 108260.71799999912,
      "d": 156.24978124999325,
      "v": 92
    },
    {
      "midi": 55,
      "hit": false,
      "t": 108423.76124999911,
      "d": 156.24978124999325,
      "v": 92
    },
    {
      "midi": 70,
      "hit": false,
      "t": 108586.80449999825,
      "d": 319.2930312499957,
      "v": 108
    },
    {
      "midi": 82,
      "hit": false,
      "t": 108586.80449999825,
      "d": 319.2930312499957,
      "v": 108
    },
    {
      "midi": 58,
      "hit": false,
      "t": 108586.8044999991,
      "d": 156.24978124999325,
      "v": 92
    },
    {
      "midi": 62,
      "hit": false,
      "t": 108749.84774999908,
      "d": 156.24978124999325,
      "v": 92
    },
    {
      "midi": 67,
      "hit": false,
      "t": 108912.89099999824,
      "d": 319.2930312499957,
      "v": 127
    },
    {
      "midi": 79,
      "hit": false,
      "t": 108912.89099999824,
      "d": 319.2930312499957,
      "v": 127
    },
    {
      "midi": 67,
      "hit": false,
      "t": 108912.89099999907,
      "d": 156.24978124999325,
      "v": 92
    },
    {
      "midi": 62,
      "hit": false,
      "t": 109075.93424999906,
      "d": 156.24978124999325,
      "v": 92
    },
    {
      "midi": 74,
      "hit": false,
      "t": 109238.97749999823,
      "d": 319.2930312499957,
      "v": 108
    },
    {
      "midi": 82,
      "hit": false,
      "t": 109238.97749999823,
      "d": 319.2930312499957,
      "v": 108
    },
    {
      "midi": 86,
      "hit": false,
      "t": 109238.97749999823,
      "d": 319.2930312499957,
      "v": 108
    },
    {
      "midi": 67,
      "hit": false,
      "t": 109238.97749999905,
      "d": 156.24978124999325,
      "v": 92
    },
    {
      "midi": 70,
      "hit": false,
      "t": 109402.02074999904,
      "d": 156.24978124999325,
      "v": 92
    },
    {
      "midi": 72,
      "hit": false,
      "t": 109565.06399999822,
      "d": 869.5639999999985,
      "v": 108
    },
    {
      "midi": 84,
      "hit": false,
      "t": 109565.06399999822,
      "d": 869.5639999999985,
      "v": 108
    },
    {
      "midi": 33,
      "hit": false,
      "t": 109565.06399999902,
      "d": 2445.6487499998475,
      "v": 92
    },
    {
      "midi": 45,
      "hit": false,
      "t": 109891.15049999903,
      "d": 156.24978124999325,
      "v": 92
    },
    {
      "midi": 48,
      "hit": false,
      "t": 110054.19374999902,
      "d": 156.24978124999325,
      "v": 92
    },
    {
      "midi": 51,
      "hit": false,
      "t": 110217.236999999,
      "d": 156.24978124999325,
      "v": 92
    },
    {
      "midi": 48,
      "hit": false,
      "t": 110380.28024999899,
      "d": 156.24978124999325,
      "v": 92
    },
    {
      "midi": 72,
      "hit": false,
      "t": 110543.32349999822,
      "d": 156.24978124999325,
      "v": 108
    },
    {
      "midi": 84,
      "hit": false,
      "t": 110543.32349999822,
      "d": 156.24978124999325,
      "v": 108
    },
    {
      "midi": 51,
      "hit": false,
      "t": 110543.32349999898,
      "d": 156.24978124999325,
      "v": 92
    },
    {
      "midi": 72,
      "hit": false,
      "t": 110706.36674999821,
      "d": 156.24978124999325,
      "v": 108
    },
    {
      "midi": 84,
      "hit": false,
      "t": 110706.36674999821,
      "d": 156.24978124999325,
      "v": 108
    },
    {
      "midi": 54,
      "hit": false,
      "t": 110706.36674999897,
      "d": 156.24978124999325,
      "v": 92
    },
    {
      "midi": 72,
      "hit": false,
      "t": 110869.4099999982,
      "d": 319.2930312499957,
      "v": 108
    },
    {
      "midi": 84,
      "hit": false,
      "t": 110869.4099999982,
      "d": 319.2930312499957,
      "v": 108
    },
    {
      "midi": 60,
      "hit": false,
      "t": 110869.40999999896,
      "d": 156.24978124999325,
      "v": 92
    },
    {
      "midi": 54,
      "hit": false,
      "t": 111032.45324999894,
      "d": 156.24978124999325,
      "v": 92
    },
    {
      "midi": 66,
      "hit": false,
      "t": 111195.49649999819,
      "d": 319.2930312499957,
      "v": 108
    },
    {
      "midi": 78,
      "hit": false,
      "t": 111195.49649999819,
      "d": 319.2930312499957,
      "v": 108
    },
    {
      "midi": 60,
      "hit": false,
      "t": 111195.49649999893,
      "d": 156.24978124999325,
      "v": 92
    },
    {
      "midi": 63,
      "hit": false,
      "t": 111358.53974999892,
      "d": 156.24978124999325,
      "v": 92
    },
    {
      "midi": 63,
      "hit": false,
      "t": 111521.58299999818,
      "d": 319.2930312499957,
      "v": 108
    },
    {
      "midi": 75,
      "hit": false,
      "t": 111521.58299999818,
      "d": 319.2930312499957,
      "v": 108
    },
    {
      "midi": 66,
      "hit": false,
      "t": 111521.58299999891,
      "d": 156.24978124999325,
      "v": 92
    },
    {
      "midi": 63,
      "hit": false,
      "t": 111684.6262499989,
      "d": 156.24978124999325,
      "v": 92
    },
    {
      "midi": 72,
      "hit": false,
      "t": 111847.66949999817,
      "d": 319.2930312499957,
      "v": 108
    },
    {
      "midi": 84,
      "hit": false,
      "t": 111847.66949999817,
      "d": 319.2930312499957,
      "v": 108
    },
    {
      "midi": 66,
      "hit": false,
      "t": 111847.66949999888,
      "d": 156.24978124999325,
      "v": 92
    },
    {
      "midi": 69,
      "hit": false,
      "t": 112010.71274999887,
      "d": 156.24978124999325,
      "v": 92
    },
    {
      "midi": 70,
      "hit": false,
      "t": 112173.75599999816,
      "d": 2445.648749999993,
      "v": 108
    },
    {
      "midi": 74,
      "hit": false,
      "t": 112173.75599999816,
      "d": 2445.648749999993,
      "v": 108
    },
    {
      "midi": 82,
      "hit": false,
      "t": 112173.75599999816,
      "d": 2445.648749999993,
      "v": 108
    },
    {
      "midi": 31,
      "hit": false,
      "t": 112173.75599999886,
      "d": 2445.6487499998475,
      "v": 92
    },
    {
      "midi": 43,
      "hit": false,
      "t": 112499.84249999886,
      "d": 156.24978124999325,
      "v": 92
    },
    {
      "midi": 46,
      "hit": false,
      "t": 112662.88574999885,
      "d": 156.24978124999325,
      "v": 92
    },
    {
      "midi": 50,
      "hit": false,
      "t": 112825.92899999884,
      "d": 156.24978124999325,
      "v": 92
    },
    {
      "midi": 46,
      "hit": false,
      "t": 112988.97224999883,
      "d": 156.24978124999325,
      "v": 92
    },
    {
      "midi": 50,
      "hit": false,
      "t": 113152.01549999882,
      "d": 156.24978124999325,
      "v": 92
    },
    {
      "midi": 55,
      "hit": false,
      "t": 113315.0587499988,
      "d": 156.24978124999325,
      "v": 92
    },
    {
      "midi": 58,
      "hit": false,
      "t": 113478.10199999879,
      "d": 156.24978124999325,
      "v": 92
    },
    {
      "midi": 55,
      "hit": false,
      "t": 113641.14524999878,
      "d": 156.24978124999325,
      "v": 92
    },
    {
      "midi": 58,
      "hit": false,
      "t": 113804.18849999877,
      "d": 156.24978124999325,
      "v": 92
    },
    {
      "midi": 62,
      "hit": false,
      "t": 113967.23174999875,
      "d": 156.24978124999325,
      "v": 92
    },
    {
      "midi": 67,
      "hit": false,
      "t": 114130.27499999874,
      "d": 156.24978124999325,
      "v": 92
    },
    {
      "midi": 62,
      "hit": false,
      "t": 114293.31824999873,
      "d": 156.24978124999325,
      "v": 92
    },
    {
      "midi": 67,
      "hit": false,
      "t": 114456.36149999872,
      "d": 156.24978124999325,
      "v": 92
    },
    {
      "midi": 70,
      "hit": false,
      "t": 114619.4047499987,
      "d": 156.24978124999325,
      "v": 92
    },
    {
      "midi": 67,
      "hit": false,
      "t": 114782.44799999816,
      "d": 156.24978124999325,
      "v": 60
    },
    {
      "midi": 43,
      "hit": false,
      "t": 114782.4479999987,
      "d": 1623.6390312500007,
      "v": 92
    },
    {
      "midi": 69,
      "hit": false,
      "t": 114945.49124999814,
      "d": 156.24978124999325,
      "v": 60
    },
    {
      "midi": 70,
      "hit": false,
      "t": 115108.53449999813,
      "d": 156.24978124999325,
      "v": 60
    },
    {
      "midi": 74,
      "hit": false,
      "t": 115271.57774999812,
      "d": 156.24978124999325,
      "v": 60
    },
    {
      "midi": 67,
      "hit": false,
      "t": 115434.62099999811,
      "d": 156.24978124999325,
      "v": 60
    },
    {
      "midi": 69,
      "hit": false,
      "t": 115597.6642499981,
      "d": 156.24978124999325,
      "v": 60
    },
    {
      "midi": 70,
      "hit": false,
      "t": 115760.70749999808,
      "d": 156.24978124999325,
      "v": 60
    },
    {
      "midi": 74,
      "hit": false,
      "t": 115923.75074999807,
      "d": 156.24978124999325,
      "v": 60
    },
    {
      "midi": 67,
      "hit": false,
      "t": 116086.79399999806,
      "d": 156.24978124999325,
      "v": 60
    },
    {
      "midi": 69,
      "hit": false,
      "t": 116249.83724999805,
      "d": 156.24978124999325,
      "v": 60
    },
    {
      "midi": 70,
      "hit": false,
      "t": 116412.88049999803,
      "d": 156.24978124999325,
      "v": 60
    },
    {
      "midi": 45,
      "hit": false,
      "t": 116412.88049999869,
      "d": 319.2930312499957,
      "v": 92
    },
    {
      "midi": 74,
      "hit": false,
      "t": 116575.92374999802,
      "d": 156.24978124999325,
      "v": 60
    },
    {
      "midi": 67,
      "hit": false,
      "t": 116738.96699999801,
      "d": 156.24978124999325,
      "v": 60
    },
    {
      "midi": 46,
      "hit": false,
      "t": 116738.96699999868,
      "d": 319.2930312499957,
      "v": 92
    },
    {
      "midi": 69,
      "hit": false,
      "t": 116902.010249998,
      "d": 156.24978124999325,
      "v": 60
    },
    {
      "midi": 70,
      "hit": false,
      "t": 117065.05349999799,
      "d": 156.24978124999325,
      "v": 60
    },
    {
      "midi": 50,
      "hit": false,
      "t": 117065.05349999867,
      "d": 319.2930312499957,
      "v": 92
    },
    {
      "midi": 74,
      "hit": false,
      "t": 117228.09674999797,
      "d": 156.24978124999325,
      "v": 60
    },
    {
      "midi": 67,
      "hit": false,
      "t": 117391.13999999796,
      "d": 156.24978124999325,
      "v": 60
    },
    {
      "midi": 49,
      "hit": false,
      "t": 117391.13999999866,
      "d": 1141.3027500000026,
      "v": 92
    },
    {
      "midi": 69,
      "hit": false,
      "t": 117554.18324999795,
      "d": 156.24978124999325,
      "v": 60
    },
    {
      "midi": 70,
      "hit": false,
      "t": 117717.22649999794,
      "d": 156.24978124999325,
      "v": 60
    },
    {
      "midi": 73,
      "hit": false,
      "t": 117880.26974999793,
      "d": 156.24978124999325,
      "v": 60
    },
    {
      "midi": 67,
      "hit": false,
      "t": 118043.31299999791,
      "d": 156.24978124999325,
      "v": 60
    },
    {
      "midi": 69,
      "hit": false,
      "t": 118206.3562499979,
      "d": 156.24978124999325,
      "v": 60
    },
    {
      "midi": 70,
      "hit": false,
      "t": 118369.39949999789,
      "d": 156.24978124999325,
      "v": 60
    },
    {
      "midi": 73,
      "hit": false,
      "t": 118532.44274999788,
      "d": 156.24978124999325,
      "v": 60
    },
    {
      "midi": 67,
      "hit": false,
      "t": 118695.48599999787,
      "d": 156.24978124999325,
      "v": 60
    },
    {
      "midi": 45,
      "hit": false,
      "t": 118695.48599999867,
      "d": 1141.3027500000026,
      "v": 92
    },
    {
      "midi": 57,
      "hit": false,
      "t": 118695.48599999867,
      "d": 1141.3027500000026,
      "v": 92
    },
    {
      "midi": 69,
      "hit": false,
      "t": 118858.52924999785,
      "d": 156.24978124999325,
      "v": 60
    },
    {
      "midi": 70,
      "hit": false,
      "t": 119021.57249999784,
      "d": 156.24978124999325,
      "v": 60
    },
    {
      "midi": 73,
      "hit": false,
      "t": 119184.61574999783,
      "d": 156.24978124999325,
      "v": 60
    },
    {
      "midi": 67,
      "hit": false,
      "t": 119347.65899999782,
      "d": 156.24978124999325,
      "v": 60
    },
    {
      "midi": 69,
      "hit": false,
      "t": 119510.7022499978,
      "d": 156.24978124999325,
      "v": 60
    },
    {
      "midi": 70,
      "hit": false,
      "t": 119673.74549999779,
      "d": 156.24978124999325,
      "v": 60
    },
    {
      "midi": 73,
      "hit": false,
      "t": 119836.78874999778,
      "d": 156.24978124999325,
      "v": 60
    },
    {
      "midi": 63,
      "hit": false,
      "t": 119999.83199999777,
      "d": 156.24978124999325,
      "v": 60
    },
    {
      "midi": 48,
      "hit": false,
      "t": 119999.83199999867,
      "d": 1141.3027500000026,
      "v": 92
    },
    {
      "midi": 60,
      "hit": false,
      "t": 119999.83199999867,
      "d": 1141.3027500000026,
      "v": 92
    },
    {
      "midi": 66,
      "hit": false,
      "t": 120162.87524999776,
      "d": 156.24978124999325,
      "v": 60
    },
    {
      "midi": 69,
      "hit": false,
      "t": 120325.91849999774,
      "d": 156.24978124999325,
      "v": 60
    },
    {
      "midi": 72,
      "hit": false,
      "t": 120488.96174999773,
      "d": 156.24978124999325,
      "v": 60
    },
    {
      "midi": 63,
      "hit": false,
      "t": 120652.00499999772,
      "d": 156.24978124999325,
      "v": 60
    },
    {
      "midi": 66,
      "hit": false,
      "t": 120815.04824999771,
      "d": 156.24978124999325,
      "v": 60
    },
    {
      "midi": 69,
      "hit": false,
      "t": 120978.0914999977,
      "d": 156.24978124999325,
      "v": 60
    },
    {
      "midi": 72,
      "hit": false,
      "t": 121141.13474999768,
      "d": 156.24978124999325,
      "v": 60
    },
    {
      "midi": 63,
      "hit": false,
      "t": 121304.17799999767,
      "d": 156.24978124999325,
      "v": 60
    },
    {
      "midi": 46,
      "hit": false,
      "t": 121304.17799999868,
      "d": 427.9885312499973,
      "v": 92
    },
    {
      "midi": 58,
      "hit": false,
      "t": 121304.17799999868,
      "d": 427.9885312499973,
      "v": 92
    },
    {
      "midi": 66,
      "hit": false,
      "t": 121467.22124999766,
      "d": 156.24978124999325,
      "v": 60
    },
    {
      "midi": 69,
      "hit": false,
      "t": 121630.26449999765,
      "d": 156.24978124999325,
      "v": 60
    },
    {
      "midi": 42,
      "hit": false,
      "t": 121738.95999999867,
      "d": 427.9885312499973,
      "v": 92
    },
    {
      "midi": 54,
      "hit": false,
      "t": 121738.95999999867,
      "d": 427.9885312499973,
      "v": 92
    },
    {
      "midi": 72,
      "hit": false,
      "t": 121793.30774999764,
      "d": 156.24978124999325,
      "v": 60
    },
    {
      "midi": 63,
      "hit": false,
      "t": 121956.35099999762,
      "d": 156.24978124999325,
      "v": 60
    },
    {
      "midi": 66,
      "hit": false,
      "t": 122119.39424999761,
      "d": 156.24978124999325,
      "v": 60
    },
    {
      "midi": 46,
      "hit": false,
      "t": 122173.74199999866,
      "d": 427.9885312499973,
      "v": 92
    },
    {
      "midi": 58,
      "hit": false,
      "t": 122173.74199999866,
      "d": 427.9885312499973,
      "v": 92
    },
    {
      "midi": 69,
      "hit": false,
      "t": 122282.4374999976,
      "d": 156.24978124999325,
      "v": 60
    },
    {
      "midi": 72,
      "hit": false,
      "t": 122445.48074999759,
      "d": 156.24978124999325,
      "v": 60
    },
    {
      "midi": 67,
      "hit": false,
      "t": 122608.52399999757,
      "d": 156.24978124999325,
      "v": 60
    },
    {
      "midi": 43,
      "hit": false,
      "t": 122608.52399999865,
      "d": 2445.6487500000076,
      "v": 92
    },
    {
      "midi": 55,
      "hit": false,
      "t": 122608.52399999865,
      "d": 2445.6487500000076,
      "v": 92
    },
    {
      "midi": 69,
      "hit": false,
      "t": 122771.56724999756,
      "d": 156.24978124999325,
      "v": 60
    },
    {
      "midi": 70,
      "hit": false,
      "t": 122934.61049999755,
      "d": 156.24978124999325,
      "v": 60
    },
    {
      "midi": 74,
      "hit": false,
      "t": 123097.65374999754,
      "d": 156.24978124999325,
      "v": 60
    },
    {
      "midi": 67,
      "hit": false,
      "t": 123260.69699999753,
      "d": 156.24978124999325,
      "v": 60
    },
    {
      "midi": 69,
      "hit": false,
      "t": 123423.74024999751,
      "d": 156.24978124999325,
      "v": 60
    },
    {
      "midi": 70,
      "hit": false,
      "t": 123586.7834999975,
      "d": 156.24978124999325,
      "v": 60
    },
    {
      "midi": 74,
      "hit": false,
      "t": 123749.82674999749,
      "d": 156.24978124999325,
      "v": 60
    },
    {
      "midi": 67,
      "hit": false,
      "t": 123912.86999999748,
      "d": 156.24978124999325,
      "v": 60
    },
    {
      "midi": 69,
      "hit": false,
      "t": 124075.91324999747,
      "d": 156.24978124999325,
      "v": 60
    },
    {
      "midi": 70,
      "hit": false,
      "t": 124238.95649999745,
      "d": 156.24978124999325,
      "v": 60
    },
    {
      "midi": 74,
      "hit": false,
      "t": 124401.99974999744,
      "d": 156.24978124999325,
      "v": 60
    },
    {
      "midi": 67,
      "hit": false,
      "t": 124565.04299999743,
      "d": 156.24978124999325,
      "v": 60
    },
    {
      "midi": 69,
      "hit": false,
      "t": 124728.08624999742,
      "d": 156.24978124999325,
      "v": 60
    },
    {
      "midi": 70,
      "hit": false,
      "t": 124891.1294999974,
      "d": 156.24978124999325,
      "v": 60
    },
    {
      "midi": 74,
      "hit": false,
      "t": 125054.1727499974,
      "d": 156.24978124999325,
      "v": 60
    }
  ]
}