{
  "jsonPath": "Unknown/Unknown/Cornelius Gurlitt/etude-by-gurlitt.json",
  "path": "Unknown\\Unknown\\Cornelius Gurlitt\\Etude by Gurlitt.mid",
  "name": "Etude by Gurlitt",
  "difficulty": "Advanced",
  "bpm": 100,
  "notes": [
    {
      "midi": 62,
      "hit": false,
      "t": 0,
      "d": 300,
      "v": 68
    },
    {
      "midi": 65,
      "hit": false,
      "t": 0,
      "d": 300,
      "v": 68
    },
    {
      "midi": 62,
      "hit": false,
      "t": 300,
      "d": 300,
      "v": 77
    },
    {
      "midi": 65,
      "hit": false,
      "t": 300,
      "d": 300,
      "v": 77
    },
    {
      "midi": 62,
      "hit": false,
      "t": 600,
      "d": 300,
      "v": 74
    },
    {
      "midi": 65,
      "hit": false,
      "t": 600,
      "d": 300,
      "v": 74
    },
    {
      "midi": 62,
      "hit": false,
      "t": 900,
      "d": 300,
      "v": 77
    },
    {
      "midi": 65,
      "hit": false,
      "t": 900,
      "d": 300,
      "v": 77
    },
    {
      "midi": 62,
      "hit": false,
      "t": 1200,
      "d": 300,
      "v": 73
    },
    {
      "midi": 65,
      "hit": false,
      "t": 1200,
      "d": 300,
      "v": 73
    },
    {
      "midi": 62,
      "hit": false,
      "t": 1500,
      "d": 300,
      "v": 77
    },
    {
      "midi": 65,
      "hit": false,
      "t": 1500,
      "d": 300,
      "v": 77
    },
    {
      "midi": 62,
      "hit": false,
      "t": 1800,
      "d": 300,
      "v": 76
    },
    {
      "midi": 65,
      "hit": false,
      "t": 1800,
      "d": 300,
      "v": 76
    },
    {
      "midi": 45,
      "hit": false,
      "t": 1800,
      "d": 600,
      "v": 65
    },
    {
      "midi": 62,
      "hit": false,
      "t": 2100,
      "d": 300,
      "v": 76
    },
    {
      "midi": 65,
      "hit": false,
      "t": 2100,
      "d": 300,
      "v": 76
    },
    {
      "midi": 62,
      "hit": false,
      "t": 2400,
      "d": 300,
      "v": 76
    },
    {
      "midi": 65,
      "hit": false,
      "t": 2400,
      "d": 300,
      "v": 76
    },
    {
      "midi": 50,
      "hit": false,
      "t": 2400,
      "d": 600,
      "v": 80
    },
    {
      "midi": 62,
      "hit": false,
      "t": 2700,
      "d": 300,
      "v": 72
    },
    {
      "midi": 65,
      "hit": false,
      "t": 2700,
      "d": 300,
      "v": 72
    },
    {
      "midi": 62,
      "hit": false,
      "t": 3000,
      "d": 300,
      "v": 81
    },
    {
      "midi": 65,
      "hit": false,
      "t": 3000,
      "d": 300,
      "v": 81
    },
    {
      "midi": 53,
      "hit": false,
      "t": 3000,
      "d": 600,
      "v": 83
    },
    {
      "midi": 62,
      "hit": false,
      "t": 3300,
      "d": 300,
      "v": 81
    },
    {
      "midi": 65,
      "hit": false,
      "t": 3300,
      "d": 300,
      "v": 81
    },
    {
      "midi": 62,
      "hit": false,
      "t": 3600,
      "d": 300,
      "v": 77
    },
    {
      "midi": 65,
      "hit": false,
      "t": 3600,
      "d": 300,
      "v": 77
    },
    {
      "midi": 57,
      "hit": false,
      "t": 3600,
      "d": 600,
      "v": 79
    },
    {
      "midi": 62,
      "hit": false,
      "t": 3900,
      "d": 300,
      "v": 75
    },
    {
      "midi": 65,
      "hit": false,
      "t": 3900,
      "d": 300,
      "v": 75
    },
    {
      "midi": 62,
      "hit": false,
      "t": 4200,
      "d": 300,
      "v": 79
    },
    {
      "midi": 65,
      "hit": false,
      "t": 4200,
      "d": 300,
      "v": 79
    },
    {
      "midi": 58,
      "hit": false,
      "t": 4200,
      "d": 600,
      "v": 82
    },
    {
      "midi": 62,
      "hit": false,
      "t": 4500,
      "d": 300,
      "v": 79
    },
    {
      "midi": 65,
      "hit": false,
      "t": 4500,
      "d": 300,
      "v": 79
    },
    {
      "midi": 62,
      "hit": false,
      "t": 4800,
      "d": 300,
      "v": 75
    },
    {
      "midi": 65,
      "hit": false,
      "t": 4800,
      "d": 300,
      "v": 75
    },
    {
      "midi": 57,
      "hit": false,
      "t": 4800,
      "d": 600,
      "v": 77
    },
    {
      "midi": 62,
      "hit": false,
      "t": 5100,
      "d": 300,
      "v": 82
    },
    {
      "midi": 65,
      "hit": false,
      "t": 5100,
      "d": 300,
      "v": 82
    },
    {
      "midi": 62,
      "hit": false,
      "t": 5400,
      "d": 300,
      "v": 74
    },
    {
      "midi": 65,
      "hit": false,
      "t": 5400,
      "d": 300,
      "v": 74
    },
    {
      "midi": 53,
      "hit": false,
      "t": 5400,
      "d": 600,
      "v": 72
    },
    {
      "midi": 62,
      "hit": false,
      "t": 5700,
      "d": 300,
      "v": 72
    },
    {
      "midi": 65,
      "hit": false,
      "t": 5700,
      "d": 300,
      "v": 72
    },
    {
      "midi": 62,
      "hit": false,
      "t": 6000,
      "d": 300,
      "v": 72
    },
    {
      "midi": 65,
      "hit": false,
      "t": 6000,
      "d": 300,
      "v": 72
    },
    {
      "midi": 50,
      "hit": false,
      "t": 6000,
      "d": 600,
      "v": 69
    },
    {
      "midi": 62,
      "hit": false,
      "t": 6300,
      "d": 300,
      "v": 75
    },
    {
      "midi": 65,
      "hit": false,
      "t": 6300,
      "d": 300,
      "v": 75
    },
    {
      "midi": 62,
      "hit": false,
      "t": 6600,
      "d": 300,
      "v": 72
    },
    {
      "midi": 65,
      "hit": false,
      "t": 6600,
      "d": 300,
      "v": 72
    },
    {
      "midi": 41,
      "hit": false,
      "t": 6600,
      "d": 300,
      "v": 64
    },
    {
      "midi": 62,
      "hit": false,
      "t": 6900,
      "d": 300,
      "v": 71
    },
    {
      "midi": 65,
      "hit": false,
      "t": 6900,
      "d": 300,
      "v": 71
    },
    {
      "midi": 43,
      "hit": false,
      "t": 6900,
      "d": 300,
      "v": 80
    },
    {
      "midi": 62,
      "hit": false,
      "t": 7200,
      "d": 300,
      "v": 69
    },
    {
      "midi": 64,
      "hit": false,
      "t": 7200,
      "d": 300,
      "v": 69
    },
    {
      "midi": 45,
      "hit": false,
      "t": 7200,
      "d": 1200,
      "v": 81
    },
    {
      "midi": 62,
      "hit": false,
      "t": 7500,
      "d": 300,
      "v": 77
    },
    {
      "midi": 64,
      "hit": false,
      "t": 7500,
      "d": 300,
      "v": 77
    },
    {
      "midi": 62,
      "hit": false,
      "t": 7800,
      "d": 300,
      "v": 75
    },
    {
      "midi": 64,
      "hit": false,
      "t": 7800,
      "d": 300,
      "v": 75
    },
    {
      "midi": 62,
      "hit": false,
      "t": 8100,
      "d": 300,
      "v": 79
    },
    {
      "midi": 64,
      "hit": false,
      "t": 8100,
      "d": 300,
      "v": 79
    },
    {
      "midi": 61,
      "hit": false,
      "t": 8400,
      "d": 300,
      "v": 73
    },
    {
      "midi": 64,
      "hit": false,
      "t": 8400,
      "d": 300,
      "v": 73
    },
    {
      "midi": 33,
      "hit": false,
      "t": 8400,
      "d": 1200,
      "v": 65
    },
    {
      "midi": 61,
      "hit": false,
      "t": 8700,
      "d": 300,
      "v": 75
    },
    {
      "midi": 64,
      "hit": false,
      "t": 8700,
      "d": 300,
      "v": 75
    },
    {
      "midi": 61,
      "hit": false,
      "t": 9000,
      "d": 300,
      "v": 77
    },
    {
      "midi": 64,
      "hit": false,
      "t": 9000,
      "d": 300,
      "v": 77
    },
    {
      "midi": 61,
      "hit": false,
      "t": 9300,
      "d": 300,
      "v": 71
    },
    {
      "midi": 64,
      "hit": false,
      "t": 9300,
      "d": 300,
      "v": 71
    },
    {
      "midi": 62,
      "hit": false,
      "t": 9600,
      "d": 300,
      "v": 84
    },
    {
      "midi": 65,
      "hit": false,
      "t": 9600,
      "d": 300,
      "v": 84
    },
    {
      "midi": 38,
      "hit": false,
      "t": 9600,
      "d": 1200,
      "v": 81
    },
    {
      "midi": 62,
      "hit": false,
      "t": 9900,
      "d": 300,
      "v": 76
    },
    {
      "midi": 65,
      "hit": false,
      "t": 9900,
      "d": 300,
      "v": 76
    },
    {
      "midi": 62,
      "hit": false,
      "t": 10200,
      "d": 300,
      "v": 77
    },
    {
      "midi": 65,
      "hit": false,
      "t": 10200,
      "d": 300,
      "v": 77
    },
    {
      "midi": 62,
      "hit": false,
      "t": 10500,
      "d": 300,
      "v": 75
    },
    {
      "midi": 65,
      "hit": false,
      "t": 10500,
      "d": 300,
      "v": 75
    },
    {
      "midi": 62,
      "hit": false,
      "t": 10800,
      "d": 300,
      "v": 77
    },
    {
      "midi": 65,
      "hit": false,
      "t": 10800,
      "d": 300,
      "v": 77
    },
    {
      "midi": 62,
      "hit": false,
      "t": 11100,
      "d": 300,
      "v": 74
    },
    {
      "midi": 65,
      "hit": false,
      "t": 11100,
      "d": 300,
      "v": 74
    },
    {
      "midi": 62,
      "hit": false,
      "t": 11400,
      "d": 300,
      "v": 76
    },
    {
      "midi": 65,
      "hit": false,
      "t": 11400,
      "d": 300,
      "v": 76
    },
    {
      "midi": 45,
      "hit": false,
      "t": 11400,
      "d": 600,
      "v": 70
    },
    {
      "midi": 62,
      "hit": false,
      "t": 11700,
      "d": 300,
      "v": 74
    },
    {
      "midi": 65,
      "hit": false,
      "t": 11700,
      "d": 300,
      "v": 74
    },
    {
      "midi": 62,
      "hit": false,
      "t": 12000,
      "d": 300,
      "v": 81
    },
    {
      "midi": 65,
      "hit": false,
      "t": 12000,
      "d": 300,
      "v": 81
    },
    {
      "midi": 50,
      "hit": false,
      "t": 12000,
      "d": 600,
      "v": 79
    },
    {
      "midi": 62,
      "hit": false,
      "t": 12300,
      "d": 300,
      "v": 71
    },
    {
      "midi": 65,
      "hit": false,
      "t": 12300,
      "d": 300,
      "v": 71
    },
    {
      "midi": 62,
      "hit": false,
      "t": 12600,
      "d": 300,
      "v": 74
    },
    {
      "midi": 65,
      "hit": false,
      "t": 12600,
      "d": 300,
      "v": 74
    },
    {
      "midi": 53,
      "hit": false,
      "t": 12600,
      "d": 600,
      "v": 77
    },
    {
      "midi": 62,
      "hit": false,
      "t": 12900,
      "d": 300,
      "v": 73
    },
    {
      "midi": 65,
      "hit": false,
      "t": 12900,
      "d": 300,
      "v": 73
    },
    {
      "midi": 62,
      "hit": false,
      "t": 13200,
      "d": 300,
      "v": 77
    },
    {
      "midi": 65,
      "hit": false,
      "t": 13200,
      "d": 300,
      "v": 77
    },
    {
      "midi": 57,
      "hit": false,
      "t": 13200,
      "d": 600,
      "v": 78
    },
    {
      "midi": 62,
      "hit": false,
      "t": 13500,
      "d": 300,
      "v": 79
    },
    {
      "midi": 65,
      "hit": false,
      "t": 13500,
      "d": 300,
      "v": 79
    },
    {
      "midi": 62,
      "hit": false,
      "t": 13800,
      "d": 300,
      "v": 76
    },
    {
      "midi": 65,
      "hit": false,
      "t": 13800,
      "d": 300,
      "v": 76
    },
    {
      "midi": 58,
      "hit": false,
      "t": 13800,
      "d": 600,
      "v": 79
    },
    {
      "midi": 62,
      "hit": false,
      "t": 14100,
      "d": 300,
      "v": 75
    },
    {
      "midi": 65,
      "hit": false,
      "t": 14100,
      "d": 300,
      "v": 75
    },
    {
      "midi": 62,
      "hit": false,
      "t": 14400,
      "d": 300,
      "v": 72
    },
    {
      "midi": 65,
      "hit": false,
      "t": 14400,
      "d": 300,
      "v": 72
    },
    {
      "midi": 57,
      "hit": false,
      "t": 14400,
      "d": 600,
      "v": 77
    },
    {
      "midi": 62,
      "hit": false,
      "t": 14700,
      "d": 300,
      "v": 79
    },
    {
      "midi": 65,
      "hit": false,
      "t": 14700,
      "d": 300,
      "v": 79
    },
    {
      "midi": 62,
      "hit": false,
      "t": 15000,
      "d": 300,
      "v": 74
    },
    {
      "midi": 65,
      "hit": false,
      "t": 15000,
      "d": 300,
      "v": 74
    },
    {
      "midi": 53,
      "hit": false,
      "t": 15000,
      "d": 600,
      "v": 72
    },
    {
      "midi": 62,
      "hit": false,
      "t": 15300,
      "d": 300,
      "v": 80
    },
    {
      "midi": 65,
      "hit": false,
      "t": 15300,
      "d": 300,
      "v": 80
    },
    {
      "midi": 62,
      "hit": false,
      "t": 15600,
      "d": 300,
      "v": 75
    },
    {
      "midi": 65,
      "hit": false,
      "t": 15600,
      "d": 300,
      "v": 75
    },
    {
      "midi": 50,
      "hit": false,
      "t": 15600,
      "d": 600,
      "v": 70
    },
    {
      "midi": 62,
      "hit": false,
      "t": 15900,
      "d": 300,
      "v": 76
    },
    {
      "midi": 65,
      "hit": false,
      "t": 15900,
      "d": 300,
      "v": 76
    },
    {
      "midi": 62,
      "hit": false,
      "t": 16200,
      "d": 300,
      "v": 80
    },
    {
      "midi": 65,
      "hit": false,
      "t": 16200,
      "d": 300,
      "v": 80
    },
    {
      "midi": 45,
      "hit": false,
      "t": 16200,
      "d": 300,
      "v": 74
    },
    {
      "midi": 62,
      "hit": false,
      "t": 16500,
      "d": 300,
      "v": 78
    },
    {
      "midi": 65,
      "hit": false,
      "t": 16500,
      "d": 300,
      "v": 78
    },
    {
      "midi": 46,
      "hit": false,
      "t": 16500,
      "d": 300,
      "v": 78
    },
    {
      "midi": 65,
      "hit": false,
      "t": 16800,
      "d": 300,
      "v": 85
    },
    {
      "midi": 67,
      "hit": false,
      "t": 16800,
      "d": 300,
      "v": 85
    },
    {
      "midi": 48,
      "hit": false,
      "t": 16800,
      "d": 1200,
      "v": 76
    },
    {
      "midi": 65,
      "hit": false,
      "t": 17100,
      "d": 300,
      "v": 73
    },
    {
      "midi": 67,
      "hit": false,
      "t": 17100,
      "d": 300,
      "v": 73
    },
    {
      "midi": 65,
      "hit": false,
      "t": 17400,
      "d": 300,
      "v": 74
    },
    {
      "midi": 67,
      "hit": false,
      "t": 17400,
      "d": 300,
      "v": 74
    },
    {
      "midi": 65,
      "hit": false,
      "t": 17700,
      "d": 300,
      "v": 75
    },
    {
      "midi": 67,
      "hit": false,
      "t": 17700,
      "d": 300,
      "v": 75
    },
    {
      "midi": 64,
      "hit": false,
      "t": 18000,
      "d": 300,
      "v": 79
    },
    {
      "midi": 67,
      "hit": false,
      "t": 18000,
      "d": 300,
      "v": 79
    },
    {
      "midi": 36,
      "hit": false,
      "t": 18000,
      "d": 1200,
      "v": 65
    },
    {
      "midi": 64,
      "hit": false,
      "t": 18300,
      "d": 300,
      "v": 76
    },
    {
      "midi": 67,
      "hit": false,
      "t": 18300,
      "d": 300,
      "v": 76
    },
    {
      "midi": 64,
      "hit": false,
      "t": 18600,
      "d": 300,
      "v": 77
    },
    {
      "midi": 67,
      "hit": false,
      "t": 18600,
      "d": 300,
      "v": 77
    },
    {
      "midi": 64,
      "hit": false,
      "t": 18900,
      "d": 300,
      "v": 79
    },
    {
      "midi": 67,
      "hit": false,
      "t": 18900,
      "d": 300,
      "v": 79
    },
    {
      "midi": 65,
      "hit": false,
      "t": 19200,
      "d": 300,
      "v": 85
    },
    {
      "midi": 69,
      "hit": false,
      "t": 19200,
      "d": 300,
      "v": 85
    },
    {
      "midi": 41,
      "hit": false,
      "t": 19200,
      "d": 1200,
      "v": 82
    },
    {
      "midi": 65,
      "hit": false,
      "t": 19500,
      "d": 300,
      "v": 77
    },
    {
      "midi": 69,
      "hit": false,
      "t": 19500,
      "d": 300,
      "v": 77
    },
    {
      "midi": 65,
      "hit": false,
      "t": 19800,
      "d": 300,
      "v": 77
    },
    {
      "midi": 69,
      "hit": false,
      "t": 19800,
      "d": 300,
      "v": 77
    },
    {
      "midi": 65,
      "hit": false,
      "t": 20100,
      "d": 300,
      "v": 80
    },
    {
      "midi": 69,
      "hit": false,
      "t": 20100,
      "d": 300,
      "v": 80
    },
    {
      "midi": 65,
      "hit": false,
      "t": 20400,
      "d": 300,
      "v": 78
    },
    {
      "midi": 69,
      "hit": false,
      "t": 20400,
      "d": 300,
      "v": 78
    },
    {
      "midi": 65,
      "hit": false,
      "t": 20700,
      "d": 300,
      "v": 79
    },
    {
      "midi": 69,
      "hit": false,
      "t": 20700,
      "d": 300,
      "v": 79
    },
    {
      "midi": 65,
      "hit": false,
      "t": 21000,
      "d": 300,
      "v": 79
    },
    {
      "midi": 69,
      "hit": false,
      "t": 21000,
      "d": 300,
      "v": 79
    },
    {
      "midi": 48,
      "hit": false,
      "t": 21000,
      "d": 600,
      "v": 69
    },
    {
      "midi": 65,
      "hit": false,
      "t": 21300,
      "d": 300,
      "v": 71
    },
    {
      "midi": 69,
      "hit": false,
      "t": 21300,
      "d": 300,
      "v": 71
    },
    {
      "midi": 65,
      "hit": false,
      "t": 21600,
      "d": 300,
      "v": 79
    },
    {
      "midi": 69,
      "hit": false,
      "t": 21600,
      "d": 300,
      "v": 79
    },
    {
      "midi": 53,
      "hit": false,
      "t": 21600,
      "d": 600,
      "v": 80
    },
    {
      "midi": 65,
      "hit": false,
      "t": 21900,
      "d": 300,
      "v": 73
    },
    {
      "midi": 69,
      "hit": false,
      "t": 21900,
      "d": 300,
      "v": 73
    },
    {
      "midi": 65,
      "hit": false,
      "t": 22200,
      "d": 300,
      "v": 78
    },
    {
      "midi": 69,
      "hit": false,
      "t": 22200,
      "d": 300,
      "v": 78
    },
    {
      "midi": 57,
      "hit": false,
      "t": 22200,
      "d": 600,
      "v": 82
    },
    {
      "midi": 65,
      "hit": false,
      "t": 22500,
      "d": 300,
      "v": 77
    },
    {
      "midi": 69,
      "hit": false,
      "t": 22500,
      "d": 300,
      "v": 77
    },
    {
      "midi": 65,
      "hit": false,
      "t": 22800,
      "d": 300,
      "v": 77
    },
    {
      "midi": 69,
      "hit": false,
      "t": 22800,
      "d": 300,
      "v": 77
    },
    {
      "midi": 60,
      "hit": false,
      "t": 22800,
      "d": 600,
      "v": 82
    },
    {
      "midi": 65,
      "hit": false,
      "t": 23100,
      "d": 300,
      "v": 76
    },
    {
      "midi": 69,
      "hit": false,
      "t": 23100,
      "d": 300,
      "v": 76
    },
    {
      "midi": 65,
      "hit": false,
      "t": 23400,
      "d": 300,
      "v": 80
    },
    {
      "midi": 69,
      "hit": false,
      "t": 23400,
      "d": 300,
      "v": 80
    },
    {
      "midi": 62,
      "hit": false,
      "t": 23400,
      "d": 600,
      "v": 80
    },
    {
      "midi": 65,
      "hit": false,
      "t": 23700,
      "d": 300,
      "v": 74
    },
    {
      "midi": 69,
      "hit": false,
      "t": 23700,
      "d": 300,
      "v": 74
    },
    {
      "midi": 65,
      "hit": false,
      "t": 24000,
      "d": 300,
      "v": 80
    },
    {
      "midi": 69,
      "hit": false,
      "t": 24000,
      "d": 300,
      "v": 80
    },
    {
      "midi": 60,
      "hit": false,
      "t": 24000,
      "d": 600,
      "v": 71
    },
    {
      "midi": 65,
      "hit": false,
      "t": 24300,
      "d": 300,
      "v": 80
    },
    {
      "midi": 69,
      "hit": false,
      "t": 24300,
      "d": 300,
      "v": 80
    },
    {
      "midi": 65,
      "hit": false,
      "t": 24600,
      "d": 300,
      "v": 77
    },
    {
      "midi": 69,
      "hit": false,
      "t": 24600,
      "d": 300,
      "v": 77
    },
    {
      "midi": 57,
      "hit": false,
      "t": 24600,
      "d": 600,
      "v": 71
    },
    {
      "midi": 65,
      "hit": false,
      "t": 24900,
      "d": 300,
      "v": 78
    },
    {
      "midi": 69,
      "hit": false,
      "t": 24900,
      "d": 300,
      "v": 78
    },
    {
      "midi": 65,
      "hit": false,
      "t": 25200,
      "d": 300,
      "v": 82
    },
    {
      "midi": 69,
      "hit": false,
      "t": 25200,
      "d": 300,
      "v": 82
    },
    {
      "midi": 53,
      "hit": false,
      "t": 25200,
      "d": 600,
      "v": 75
    },
    {
      "midi": 65,
      "hit": false,
      "t": 25500,
      "d": 300,
      "v": 80
    },
    {
      "midi": 69,
      "hit": false,
      "t": 25500,
      "d": 300,
      "v": 80
    },
    {
      "midi": 65,
      "hit": false,
      "t": 25800,
      "d": 300,
      "v": 78
    },
    {
      "midi": 69,
      "hit": false,
      "t": 25800,
      "d": 300,
      "v": 78
    },
    {
      "midi": 49,
      "hit": false,
      "t": 25800,
      "d": 600,
      "v": 68
    },
    {
      "midi": 65,
      "hit": false,
      "t": 26100,
      "d": 300,
      "v": 75
    },
    {
      "midi": 69,
      "hit": false,
      "t": 26100,
      "d": 300,
      "v": 75
    },
    {
      "midi": 65,
      "hit": false,
      "t": 26400,
      "d": 300,
      "v": 77
    },
    {
      "midi": 69,
      "hit": false,
      "t": 26400,
      "d": 300,
      "v": 77
    },
    {
      "midi": 50,
      "hit": false,
      "t": 26400,
      "d": 600,
      "v": 81
    },
    {
      "midi": 65,
      "hit": false,
      "t": 26700,
      "d": 300,
      "v": 79
    },
    {
      "midi": 69,
      "hit": false,
      "t": 26700,
      "d": 300,
      "v": 79
    },
    {
      "midi": 65,
      "hit": false,
      "t": 27000,
      "d": 300,
      "v": 73
    },
    {
      "midi": 69,
      "hit": false,
      "t": 27000,
      "d": 300,
      "v": 73
    },
    {
      "midi": 53,
      "hit": false,
      "t": 27000,
      "d": 600,
      "v": 80
    },
    {
      "midi": 65,
      "hit": false,
      "t": 27300,
      "d": 300,
      "v": 73
    },
    {
      "midi": 69,
      "hit": false,
      "t": 27300,
      "d": 300,
      "v": 73
    },
    {
      "midi": 65,
      "hit": false,
      "t": 27600,
      "d": 300,
      "v": 81
    },
    {
      "midi": 69,
      "hit": false,
      "t": 27600,
      "d": 300,
      "v": 81
    },
    {
      "midi": 57,
      "hit": false,
      "t": 27600,
      "d": 600,
      "v": 78
    },
    {
      "midi": 65,
      "hit": false,
      "t": 27900,
      "d": 300,
      "v": 78
    },
    {
      "midi": 69,
      "hit": false,
      "t": 27900,
      "d": 300,
      "v": 78
    },
    {
      "midi": 65,
      "hit": false,
      "t": 28200,
      "d": 300,
      "v": 77
    },
    {
      "midi": 69,
      "hit": false,
      "t": 28200,
      "d": 300,
      "v": 77
    },
    {
      "midi": 58,
      "hit": false,
      "t": 28200,
      "d": 600,
      "v": 80
    },
    {
      "midi": 65,
      "hit": false,
      "t": 28500,
      "d": 300,
      "v": 77
    },
    {
      "midi": 69,
      "hit": false,
      "t": 28500,
      "d": 300,
      "v": 77
    },
    {
      "midi": 65,
      "hit": false,
      "t": 28800,
      "d": 300,
      "v": 76
    },
    {
      "midi": 69,
      "hit": false,
      "t": 28800,
      "d": 300,
      "v": 76
    },
    {
      "midi": 57,
      "hit": false,
      "t": 28800,
      "d": 600,
      "v": 75
    },
    {
      "midi": 65,
      "hit": false,
      "t": 29100,
      "d": 300,
      "v": 77
    },
    {
      "midi": 69,
      "hit": false,
      "t": 29100,
      "d": 300,
      "v": 77
    },
    {
      "midi": 65,
      "hit": false,
      "t": 29400,
      "d": 300,
      "v": 72
    },
    {
      "midi": 69,
      "hit": false,
      "t": 29400,
      "d": 300,
      "v": 72
    },
    {
      "midi": 53,
      "hit": false,
      "t": 29400,
      "d": 600,
      "v": 72
    },
    {
      "midi": 65,
      "hit": false,
      "t": 29700,
      "d": 300,
      "v": 80
    },
    {
      "midi": 69,
      "hit": false,
      "t": 29700,
      "d": 300,
      "v": 80
    },
    {
      "midi": 65,
      "hit": false,
      "t": 30000,
      "d": 300,
      "v": 74
    },
    {
      "midi": 69,
      "hit": false,
      "t": 30000,
      "d": 300,
      "v": 74
    },
    {
      "midi": 50,
      "hit": false,
      "t": 30000,
      "d": 600,
      "v": 72
    },
    {
      "midi": 65,
      "hit": false,
      "t": 30300,
      "d": 300,
      "v": 77
    },
    {
      "midi": 69,
      "hit": false,
      "t": 30300,
      "d": 300,
      "v": 77
    },
    {
      "midi": 65,
      "hit": false,
      "t": 30600,
      "d": 300,
      "v": 77
    },
    {
      "midi": 69,
      "hit": false,
      "t": 30600,
      "d": 300,
      "v": 77
    },
    {
      "midi": 45,
      "hit": false,
      "t": 30600,
      "d": 300,
      "v": 71
    },
    {
      "midi": 65,
      "hit": false,
      "t": 30900,
      "d": 300,
      "v": 76
    },
    {
      "midi": 69,
      "hit": false,
      "t": 30900,
      "d": 300,
      "v": 76
    },
    {
      "midi": 46,
      "hit": false,
      "t": 30900,
      "d": 300,
      "v": 76
    },
    {
      "midi": 65,
      "hit": false,
      "t": 31200,
      "d": 300,
      "v": 73
    },
    {
      "midi": 67,
      "hit": false,
      "t": 31200,
      "d": 300,
      "v": 73
    },
    {
      "midi": 48,
      "hit": false,
      "t": 31200,
      "d": 1800,
      "v": 79
    },
    {
      "midi": 65,
      "hit": false,
      "t": 31500,
      "d": 300,
      "v": 75
    },
    {
      "midi": 67,
      "hit": false,
      "t": 31500,
      "d": 300,
      "v": 75
    },
    {
      "midi": 65,
      "hit": false,
      "t": 31800,
      "d": 300,
      "v": 79
    },
    {
      "midi": 67,
      "hit": false,
      "t": 31800,
      "d": 300,
      "v": 79
    },
    {
      "midi": 65,
      "hit": false,
      "t": 32100,
      "d": 300,
      "v": 72
    },
    {
      "midi": 67,
      "hit": false,
      "t": 32100,
      "d": 300,
      "v": 72
    },
    {
      "midi": 64,
      "hit": false,
      "t": 32400,
      "d": 300,
      "v": 75
    },
    {
      "midi": 67,
      "hit": false,
      "t": 32400,
      "d": 300,
      "v": 75
    },
    {
      "midi": 64,
      "hit": false,
      "t": 32700,
      "d": 300,
      "v": 76
    },
    {
      "midi": 67,
      "hit": false,
      "t": 32700,
      "d": 300,
      "v": 76
    },
    {
      "midi": 64,
      "hit": false,
      "t": 33000,
      "d": 300,
      "v": 74
    },
    {
      "midi": 67,
      "hit": false,
      "t": 33000,
      "d": 300,
      "v": 74
    },
    {
      "midi": 43,
      "hit": false,
      "t": 33000,
      "d": 300,
      "v": 74
    },
    {
      "midi": 64,
      "hit": false,
      "t": 33300,
      "d": 300,
      "v": 78
    },
    {
      "midi": 67,
      "hit": false,
      "t": 33300,
      "d": 300,
      "v": 78
    },
    {
      "midi": 45,
      "hit": false,
      "t": 33300,
      "d": 300,
      "v": 76
    },
    {
      "midi": 64,
      "hit": false,
      "t": 33600,
      "d": 300,
      "v": 71
    },
    {
      "midi": 65,
      "hit": false,
      "t": 33600,
      "d": 300,
      "v": 71
    },
    {
      "midi": 46,
      "hit": false,
      "t": 33600,
      "d": 1800,
      "v": 78
    },
    {
      "midi": 64,
      "hit": false,
      "t": 33900,
      "d": 300,
      "v": 73
    },
    {
      "midi": 65,
      "hit": false,
      "t": 33900,
      "d": 300,
      "v": 73
    },
    {
      "midi": 64,
      "hit": false,
      "t": 34200,
      "d": 300,
      "v": 74
    },
    {
      "midi": 65,
      "hit": false,
      "t": 34200,
      "d": 300,
      "v": 74
    },
    {
      "midi": 64,
      "hit": false,
      "t": 34500,
      "d": 300,
      "v": 76
    },
    {
      "midi": 65,
      "hit": false,
      "t": 34500,
      "d": 300,
      "v": 76
    },
    {
      "midi": 62,
      "hit": false,
      "t": 34800,
      "d": 300,
      "v": 77
    },
    {
      "midi": 65,
      "hit": false,
      "t": 34800,
      "d": 300,
      "v": 77
    },
    {
      "midi": 62,
      "hit": false,
      "t": 35100,
      "d": 300,
      "v": 83
    },
    {
      "midi": 65,
      "hit": false,
      "t": 35100,
      "d": 300,
      "v": 83
    },
    {
      "midi": 62,
      "hit": false,
      "t": 35400,
      "d": 300,
      "v": 82
    },
    {
      "midi": 65,
      "hit": false,
      "t": 35400,
      "d": 300,
      "v": 82
    },
    {
      "midi": 41,
      "hit": false,
      "t": 35400,
      "d": 300,
      "v": 71
    },
    {
      "midi": 62,
      "hit": false,
      "t": 35700,
      "d": 300,
      "v": 79
    },
    {
      "midi": 65,
      "hit": false,
      "t": 35700,
      "d": 300,
      "v": 79
    },
    {
      "midi": 43,
      "hit": false,
      "t": 35700,
      "d": 300,
      "v": 79
    },
    {
      "midi": 62,
      "hit": false,
      "t": 36000,
      "d": 300,
      "v": 71
    },
    {
      "midi": 64,
      "hit": false,
      "t": 36000,
      "d": 300,
      "v": 71
    },
    {
      "midi": 45,
      "hit": false,
      "t": 36000,
      "d": 1200,
      "v": 79
    },
    {
      "midi": 62,
      "hit": false,
      "t": 36300,
      "d": 300,
      "v": 77
    },
    {
      "midi": 64,
      "hit": false,
      "t": 36300,
      "d": 300,
      "v": 77
    },
    {
      "midi": 62,
      "hit": false,
      "t": 36600,
      "d": 300,
      "v": 75
    },
    {
      "midi": 64,
      "hit": false,
      "t": 36600,
      "d": 300,
      "v": 75
    },
    {
      "midi": 62,
      "hit": false,
      "t": 36900,
      "d": 300,
      "v": 75
    },
    {
      "midi": 64,
      "hit": false,
      "t": 36900,
      "d": 300,
      "v": 75
    },
    {
      "midi": 61,
      "hit": false,
      "t": 37200,
      "d": 300,
      "v": 77
    },
    {
      "midi": 64,
      "hit": false,
      "t": 37200,
      "d": 300,
      "v": 77
    },
    {
      "midi": 33,
      "hit": false,
      "t": 37200,
      "d": 1200,
      "v": 61
    },
    {
      "midi": 61,
      "hit": false,
      "t": 37500,
      "d": 300,
      "v": 76
    },
    {
      "midi": 64,
      "hit": false,
      "t": 37500,
      "d": 300,
      "v": 76
    },
    {
      "midi": 61,
      "hit": false,
      "t": 37800,
      "d": 300,
      "v": 72
    },
    {
      "midi": 64,
      "hit": false,
      "t": 37800,
      "d": 300,
      "v": 72
    },
    {
      "midi": 61,
      "hit": false,
      "t": 38100,
      "d": 300,
      "v": 76
    },
    {
      "midi": 64,
      "hit": false,
      "t": 38100,
      "d": 300,
      "v": 76
    },
    {
      "midi": 62,
      "hit": false,
      "t": 38400,
      "d": 300,
      "v": 76
    },
    {
      "midi": 65,
      "hit": false,
      "t": 38400,
      "d": 300,
      "v": 76
    },
    {
      "midi": 38,
      "hit": false,
      "t": 38400,
      "d": 1200,
      "v": 76
    },
    {
      "midi": 62,
      "hit": false,
      "t": 38700,
      "d": 300,
      "v": 77
    },
    {
      "midi": 65,
      "hit": false,
      "t": 38700,
      "d": 300,
      "v": 77
    },
    {
      "midi": 62,
      "hit": false,
      "t": 39000,
      "d": 300,
      "v": 75
    },
    {
      "midi": 65,
      "hit": false,
      "t": 39000,
      "d": 300,
      "v": 75
    },
    {
      "midi": 62,
      "hit": false,
      "t": 39300,
      "d": 300,
      "v": 69
    },
    {
      "midi": 65,
      "hit": false,
      "t": 39300,
      "d": 300,
      "v": 69
    },
    {
      "midi": 62,
      "hit": false,
      "t": 39600,
      "d": 300,
      "v": 75
    },
    {
      "midi": 65,
      "hit": false,
      "t": 39600,
      "d": 300,
      "v": 75
    },
    {
      "midi": 62,
      "hit": false,
      "t": 39900,
      "d": 300,
      "v": 81
    },
    {
      "midi": 65,
      "hit": false,
      "t": 39900,
      "d": 300,
      "v": 81
    },
    {
      "midi": 62,
      "hit": false,
      "t": 40200,
      "d": 300,
      "v": 69
    },
    {
      "midi": 65,
      "hit": false,
      "t": 40200,
      "d": 300,
      "v": 69
    },
    {
      "midi": 41,
      "hit": false,
      "t": 40200,
      "d": 300,
      "v": 67
    },
    {
      "midi": 62,
      "hit": false,
      "t": 40500,
      "d": 300,
      "v": 74
    },
    {
      "midi": 65,
      "hit": false,
      "t": 40500,
      "d": 300,
      "v": 74
    },
    {
      "midi": 43,
      "hit": false,
      "t": 40500,
      "d": 300,
      "v": 77
    },
    {
      "midi": 62,
      "hit": false,
      "t": 40800,
      "d": 300,
      "v": 76
    },
    {
      "midi": 64,
      "hit": false,
      "t": 40800,
      "d": 300,
      "v": 76
    },
    {
      "midi": 45,
      "hit": false,
      "t": 40800,
      "d": 1200,
      "v": 78
    },
    {
      "midi": 62,
      "hit": false,
      "t": 41100,
      "d": 300,
      "v": 72
    },
    {
      "midi": 64,
      "hit": false,
      "t": 41100,
      "d": 300,
      "v": 72
    },
    {
      "midi": 62,
      "hit": false,
      "t": 41400,
      "d": 300,
      "v": 78
    },
    {
      "midi": 64,
      "hit": false,
      "t": 41400,
      "d": 300,
      "v": 78
    },
    {
      "midi": 62,
      "hit": false,
      "t": 41700,
      "d": 300,
      "v": 80
    },
    {
      "midi": 64,
      "hit": false,
      "t": 41700,
      "d": 300,
      "v": 80
    },
    {
      "midi": 61,
      "hit": false,
      "t": 42000,
      "d": 300,
      "v": 76
    },
    {
      "midi": 64,
      "hit": false,
      "t": 42000,
      "d": 300,
      "v": 76
    },
    {
      "midi": 33,
      "hit": false,
      "t": 42000,
      "d": 1200,
      "v": 67
    },
    {
      "midi": 61,
      "hit": false,
      "t": 42300,
      "d": 300,
      "v": 78
    },
    {
      "midi": 64,
      "hit": false,
      "t": 42300,
      "d": 300,
      "v": 78
    },
    {
      "midi": 61,
      "hit": false,
      "t": 42600,
      "d": 300,
      "v": 77
    },
    {
      "midi": 64,
      "hit": false,
      "t": 42600,
      "d": 300,
      "v": 77
    },
    {
      "midi": 61,
      "hit": false,
      "t": 42900,
      "d": 300,
      "v": 80
    },
    {
      "midi": 64,
      "hit": false,
      "t": 42900,
      "d": 300,
      "v": 80
    },
    {
      "midi": 62,
      "hit": false,
      "t": 43200,
      "d": 1200,
      "v": 74
    },
    {
      "midi": 38,
      "hit": false,
      "t": 43200,
      "d": 1200,
      "v": 77
    }
  ]
}