{
  "jsonPath": "Unknown/Unknown/Cornelius Gurlitt/scherzo-by-gurlitt.json",
  "path": "Unknown\\Unknown\\Cornelius Gurlitt\\Scherzo by Gurlitt.mid",
  "name": "Scherzo by Gurlitt",
  "difficulty": "Advanced",
  "bpm": 100,
  "notes": [
    {
      "midi": 72,
      "hit": false,
      "t": 1200,
      "d": 450,
      "v": 67
    },
    {
      "midi": 69,
      "hit": false,
      "t": 1650,
      "d": 150,
      "v": 70
    },
    {
      "midi": 65,
      "hit": false,
      "t": 1800,
      "d": 600,
      "v": 70
    },
    {
      "midi": 65,
      "hit": false,
      "t": 2400,
      "d": 600,
      "v": 70
    },
    {
      "midi": 64,
      "hit": false,
      "t": 3000,
      "d": 600,
      "v": 82
    },
    {
      "midi": 67,
      "hit": false,
      "t": 3000,
      "d": 600,
      "v": 82
    },
    {
      "midi": 48,
      "hit": false,
      "t": 3000,
      "d": 600,
      "v": 68
    },
    {
      "midi": 60,
      "hit": false,
      "t": 3000,
      "d": 600,
      "v": 68
    },
    {
      "midi": 69,
      "hit": false,
      "t": 3600,
      "d": 600,
      "v": 78
    },
    {
      "midi": 53,
      "hit": false,
      "t": 3600,
      "d": 600,
      "v": 72
    },
    {
      "midi": 60,
      "hit": false,
      "t": 3600,
      "d": 600,
      "v": 72
    },
    {
      "midi": 65,
      "hit": false,
      "t": 4200,
      "d": 600,
      "v": 68
    },
    {
      "midi": 64,
      "hit": false,
      "t": 4800,
      "d": 600,
      "v": 80
    },
    {
      "midi": 67,
      "hit": false,
      "t": 4800,
      "d": 600,
      "v": 80
    },
    {
      "midi": 48,
      "hit": false,
      "t": 4800,
      "d": 600,
      "v": 70
    },
    {
      "midi": 60,
      "hit": false,
      "t": 4800,
      "d": 600,
      "v": 70
    },
    {
      "midi": 69,
      "hit": false,
      "t": 5400,
      "d": 600,
      "v": 83
    },
    {
      "midi": 53,
      "hit": false,
      "t": 5400,
      "d": 600,
      "v": 75
    },
    {
      "midi": 60,
      "hit": false,
      "t": 5400,
      "d": 600,
      "v": 75
    },
    {
      "midi": 65,
      "hit": false,
      "t": 6000,
      "d": 600,
      "v": 69
    },
    {
      "midi": 64,
      "hit": false,
      "t": 6600,
      "d": 600,
      "v": 80
    },
    {
      "midi": 67,
      "hit": false,
      "t": 6600,
      "d": 600,
      "v": 80
    },
    {
      "midi": 48,
      "hit": false,
      "t": 6600,
      "d": 600,
      "v": 71
    },
    {
      "midi": 60,
      "hit": false,
      "t": 6600,
      "d": 600,
      "v": 71
    },
    {
      "midi": 69,
      "hit": false,
      "t": 7200,
      "d": 600,
      "v": 81
    },
    {
      "midi": 53,
      "hit": false,
      "t": 7200,
      "d": 600,
      "v": 74
    },
    {
      "midi": 60,
      "hit": false,
      "t": 7200,
      "d": 600,
      "v": 74
    },
    {
      "midi": 65,
      "hit": false,
      "t": 7800,
      "d": 600,
      "v": 71
    },
    {
      "midi": 77,
      "hit": false,
      "t": 8400,
      "d": 450,
      "v": 95
    },
    {
      "midi": 74,
      "hit": false,
      "t": 8850,
      "d": 150,
      "v": 76
    },
    {
      "midi": 69,
      "hit": false,
      "t": 9000,
      "d": 600,
      "v": 63
    },
    {
      "midi": 69,
      "hit": false,
      "t": 9600,
      "d": 600,
      "v": 74
    },
    {
      "midi": 71,
      "hit": false,
      "t": 10200,
      "d": 600,
      "v": 81
    },
    {
      "midi": 55,
      "hit": false,
      "t": 10200,
      "d": 600,
      "v": 70
    },
    {
      "midi": 62,
      "hit": false,
      "t": 10200,
      "d": 600,
      "v": 70
    },
    {
      "midi": 65,
      "hit": false,
      "t": 10200,
      "d": 600,
      "v": 70
    },
    {
      "midi": 72,
      "hit": false,
      "t": 10800,
      "d": 600,
      "v": 83
    },
    {
      "midi": 60,
      "hit": false,
      "t": 10800,
      "d": 600,
      "v": 71
    },
    {
      "midi": 64,
      "hit": false,
      "t": 10800,
      "d": 600,
      "v": 71
    },
    {
      "midi": 67,
      "hit": false,
      "t": 11400,
      "d": 600,
      "v": 65
    },
    {
      "midi": 71,
      "hit": false,
      "t": 12000,
      "d": 300,
      "v": 83
    },
    {
      "midi": 55,
      "hit": false,
      "t": 12000,
      "d": 600,
      "v": 65
    },
    {
      "midi": 62,
      "hit": false,
      "t": 12000,
      "d": 600,
      "v": 65
    },
    {
      "midi": 65,
      "hit": false,
      "t": 12000,
      "d": 600,
      "v": 65
    },
    {
      "midi": 74,
      "hit": false,
      "t": 12300,
      "d": 300,
      "v": 85
    },
    {
      "midi": 72,
      "hit": false,
      "t": 12600,
      "d": 600,
      "v": 73
    },
    {
      "midi": 60,
      "hit": false,
      "t": 12600,
      "d": 600,
      "v": 71
    },
    {
      "midi": 64,
      "hit": false,
      "t": 12600,
      "d": 600,
      "v": 71
    },
    {
      "midi": 67,
      "hit": false,
      "t": 13200,
      "d": 600,
      "v": 68
    },
    {
      "midi": 71,
      "hit": false,
      "t": 13800,
      "d": 300,
      "v": 80
    },
    {
      "midi": 55,
      "hit": false,
      "t": 13800,
      "d": 600,
      "v": 71
    },
    {
      "midi": 62,
      "hit": false,
      "t": 13800,
      "d": 600,
      "v": 71
    },
    {
      "midi": 65,
      "hit": false,
      "t": 13800,
      "d": 600,
      "v": 71
    },
    {
      "midi": 74,
      "hit": false,
      "t": 14100,
      "d": 300,
      "v": 81
    },
    {
      "midi": 72,
      "hit": false,
      "t": 14400,
      "d": 600,
      "v": 74
    },
    {
      "midi": 60,
      "hit": false,
      "t": 14400,
      "d": 600,
      "v": 73
    },
    {
      "midi": 64,
      "hit": false,
      "t": 14400,
      "d": 600,
      "v": 73
    },
    {
      "midi": 82,
      "hit": false,
      "t": 15600,
      "d": 450,
      "v": 70
    },
    {
      "midi": 79,
      "hit": false,
      "t": 16050,
      "d": 150,
      "v": 68
    },
    {
      "midi": 72,
      "hit": false,
      "t": 16200,
      "d": 600,
      "v": 61
    },
    {
      "midi": 64,
      "hit": false,
      "t": 16800,
      "d": 600,
      "v": 67
    },
    {
      "midi": 67,
      "hit": false,
      "t": 16800,
      "d": 600,
      "v": 67
    },
    {
      "midi": 70,
      "hit": false,
      "t": 17400,
      "d": 450,
      "v": 70
    },
    {
      "midi": 67,
      "hit": false,
      "t": 17850,
      "d": 150,
      "v": 64
    },
    {
      "midi": 60,
      "hit": false,
      "t": 18000,
      "d": 600,
      "v": 64
    },
    {
      "midi": 52,
      "hit": false,
      "t": 18600,
      "d": 600,
      "v": 66
    },
    {
      "midi": 55,
      "hit": false,
      "t": 18600,
      "d": 600,
      "v": 66
    },
    {
      "midi": 82,
      "hit": false,
      "t": 19200,
      "d": 450,
      "v": 69
    },
    {
      "midi": 79,
      "hit": false,
      "t": 19650,
      "d": 150,
      "v": 66
    },
    {
      "midi": 72,
      "hit": false,
      "t": 19800,
      "d": 600,
      "v": 56
    },
    {
      "midi": 64,
      "hit": false,
      "t": 20400,
      "d": 600,
      "v": 67
    },
    {
      "midi": 67,
      "hit": false,
      "t": 20400,
      "d": 600,
      "v": 67
    },
    {
      "midi": 73,
      "hit": false,
      "t": 21000,
      "d": 600,
      "v": 67
    },
    {
      "midi": 65,
      "hit": false,
      "t": 21000,
      "d": 600,
      "v": 74
    },
    {
      "midi": 68,
      "hit": false,
      "t": 21000,
      "d": 600,
      "v": 74
    },
    {
      "midi": 72,
      "hit": false,
      "t": 21600,
      "d": 600,
      "v": 67
    },
    {
      "midi": 64,
      "hit": false,
      "t": 21600,
      "d": 600,
      "v": 72
    },
    {
      "midi": 67,
      "hit": false,
      "t": 21600,
      "d": 600,
      "v": 72
    },
    {
      "midi": 72,
      "hit": false,
      "t": 22800,
      "d": 450,
      "v": 70
    },
    {
      "midi": 69,
      "hit": false,
      "t": 23250,
      "d": 150,
      "v": 71
    },
    {
      "midi": 65,
      "hit": false,
      "t": 23400,
      "d": 600,
      "v": 65
    },
    {
      "midi": 65,
      "hit": false,
      "t": 24000,
      "d": 600,
      "v": 71
    },
    {
      "midi": 64,
      "hit": false,
      "t": 24600,
      "d": 600,
      "v": 76
    },
    {
      "midi": 67,
      "hit": false,
      "t": 24600,
      "d": 600,
      "v": 76
    },
    {
      "midi": 48,
      "hit": false,
      "t": 24600,
      "d": 600,
      "v": 68
    },
    {
      "midi": 60,
      "hit": false,
      "t": 24600,
      "d": 600,
      "v": 68
    },
    {
      "midi": 69,
      "hit": false,
      "t": 25200,
      "d": 600,
      "v": 82
    },
    {
      "midi": 53,
      "hit": false,
      "t": 25200,
      "d": 600,
      "v": 75
    },
    {
      "midi": 60,
      "hit": false,
      "t": 25200,
      "d": 600,
      "v": 75
    },
    {
      "midi": 65,
      "hit": false,
      "t": 25800,
      "d": 600,
      "v": 67
    },
    {
      "midi": 64,
      "hit": false,
      "t": 26400,
      "d": 600,
      "v": 77
    },
    {
      "midi": 67,
      "hit": false,
      "t": 26400,
      "d": 600,
      "v": 77
    },
    {
      "midi": 48,
      "hit": false,
      "t": 26400,
      "d": 600,
      "v": 68
    },
    {
      "midi": 60,
      "hit": false,
      "t": 26400,
      "d": 600,
      "v": 68
    },
    {
      "midi": 69,
      "hit": false,
      "t": 27000,
      "d": 600,
      "v": 79
    },
    {
      "midi": 53,
      "hit": false,
      "t": 27000,
      "d": 600,
      "v": 77
    },
    {
      "midi": 60,
      "hit": false,
      "t": 27000,
      "d": 600,
      "v": 77
    },
    {
      "midi": 65,
      "hit": false,
      "t": 27600,
      "d": 600,
      "v": 70
    },
    {
      "midi": 64,
      "hit": false,
      "t": 28200,
      "d": 600,
      "v": 77
    },
    {
      "midi": 67,
      "hit": false,
      "t": 28200,
      "d": 600,
      "v": 77
    },
    {
      "midi": 48,
      "hit": false,
      "t": 28200,
      "d": 600,
      "v": 73
    },
    {
      "midi": 60,
      "hit": false,
      "t": 28200,
      "d": 600,
      "v": 73
    },
    {
      "midi": 69,
      "hit": false,
      "t": 28800,
      "d": 600,
      "v": 79
    },
    {
      "midi": 53,
      "hit": false,
      "t": 28800,
      "d": 600,
      "v": 75
    },
    {
      "midi": 60,
      "hit": false,
      "t": 28800,
      "d": 600,
      "v": 75
    },
    {
      "midi": 65,
      "hit": false,
      "t": 29400,
      "d": 600,
      "v": 70
    },
    {
      "midi": 77,
      "hit": false,
      "t": 30000,
      "d": 450,
      "v": 94
    },
    {
      "midi": 64,
      "hit": false,
      "t": 30450,
      "d": 150,
      "v": 60
    },
    {
      "midi": 69,
      "hit": false,
      "t": 30600,
      "d": 600,
      "v": 86
    },
    {
      "midi": 69,
      "hit": false,
      "t": 31200,
      "d": 300,
      "v": 79
    },
    {
      "midi": 72,
      "hit": false,
      "t": 31500,
      "d": 300,
      "v": 83
    },
    {
      "midi": 70,
      "hit": false,
      "t": 31800,
      "d": 300,
      "v": 74
    },
    {
      "midi": 48,
      "hit": false,
      "t": 31800,
      "d": 600,
      "v": 66
    },
    {
      "midi": 58,
      "hit": false,
      "t": 31800,
      "d": 600,
      "v": 66
    },
    {
      "midi": 67,
      "hit": false,
      "t": 32100,
      "d": 300,
      "v": 67
    },
    {
      "midi": 65,
      "hit": false,
      "t": 32400,
      "d": 600,
      "v": 72
    },
    {
      "midi": 53,
      "hit": false,
      "t": 32400,
      "d": 600,
      "v": 72
    },
    {
      "midi": 57,
      "hit": false,
      "t": 32400,
      "d": 600,
      "v": 72
    },
    {
      "midi": 65,
      "hit": false,
      "t": 33000,
      "d": 300,
      "v": 74
    },
    {
      "midi": 69,
      "hit": false,
      "t": 33300,
      "d": 300,
      "v": 84
    },
    {
      "midi": 67,
      "hit": false,
      "t": 33600,
      "d": 300,
      "v": 71
    },
    {
      "midi": 48,
      "hit": false,
      "t": 33600,
      "d": 600,
      "v": 72
    },
    {
      "midi": 58,
      "hit": false,
      "t": 33600,
      "d": 600,
      "v": 72
    },
    {
      "midi": 64,
      "hit": false,
      "t": 33900,
      "d": 300,
      "v": 68
    },
    {
      "midi": 65,
      "hit": false,
      "t": 34200,
      "d": 600,
      "v": 77
    },
    {
      "midi": 53,
      "hit": false,
      "t": 34200,
      "d": 600,
      "v": 74
    },
    {
      "midi": 57,
      "hit": false,
      "t": 34200,
      "d": 600,
      "v": 74
    },
    {
      "midi": 65,
      "hit": false,
      "t": 34800,
      "d": 300,
      "v": 80
    },
    {
      "midi": 69,
      "hit": false,
      "t": 35100,
      "d": 300,
      "v": 86
    },
    {
      "midi": 67,
      "hit": false,
      "t": 35400,
      "d": 300,
      "v": 76
    },
    {
      "midi": 48,
      "hit": false,
      "t": 35400,
      "d": 600,
      "v": 71
    },
    {
      "midi": 58,
      "hit": false,
      "t": 35400,
      "d": 600,
      "v": 71
    },
    {
      "midi": 64,
      "hit": false,
      "t": 35700,
      "d": 300,
      "v": 66
    },
    {
      "midi": 65,
      "hit": false,
      "t": 36000,
      "d": 600,
      "v": 79
    },
    {
      "midi": 53,
      "hit": false,
      "t": 36000,
      "d": 600,
      "v": 72
    },
    {
      "midi": 57,
      "hit": false,
      "t": 36000,
      "d": 600,
      "v": 72
    },
    {
      "midi": 48,
      "hit": false,
      "t": 37200,
      "d": 450,
      "v": 65
    },
    {
      "midi": 45,
      "hit": false,
      "t": 37650,
      "d": 150,
      "v": 71
    },
    {
      "midi": 41,
      "hit": false,
      "t": 37800,
      "d": 600,
      "v": 70
    },
    {
      "midi": 41,
      "hit": false,
      "t": 38400,
      "d": 600,
      "v": 76
    },
    {
      "midi": 43,
      "hit": false,
      "t": 39000,
      "d": 600,
      "v": 82
    },
    {
      "midi": 45,
      "hit": false,
      "t": 39600,
      "d": 600,
      "v": 78
    },
    {
      "midi": 41,
      "hit": false,
      "t": 40200,
      "d": 600,
      "v": 74
    },
    {
      "midi": 43,
      "hit": false,
      "t": 40800,
      "d": 600,
      "v": 79
    },
    {
      "midi": 45,
      "hit": false,
      "t": 41400,
      "d": 600,
      "v": 79
    },
    {
      "midi": 41,
      "hit": false,
      "t": 42000,
      "d": 600,
      "v": 68
    },
    {
      "midi": 43,
      "hit": false,
      "t": 42600,
      "d": 600,
      "v": 74
    },
    {
      "midi": 45,
      "hit": false,
      "t": 43200,
      "d": 600,
      "v": 76
    },
    {
      "midi": 41,
      "hit": false,
      "t": 43800,
      "d": 600,
      "v": 71
    },
    {
      "midi": 61,
      "hit": false,
      "t": 45000,
      "d": 1800,
      "v": 68
    },
    {
      "midi": 64,
      "hit": false,
      "t": 45000,
      "d": 1800,
      "v": 68
    },
    {
      "midi": 69,
      "hit": false,
      "t": 45000,
      "d": 1800,
      "v": 68
    },
    {
      "midi": 45,
      "hit": false,
      "t": 45000,
      "d": 1800,
      "v": 68
    },
    {
      "midi": 62,
      "hit": false,
      "t": 46800,
      "d": 600,
      "v": 74
    },
    {
      "midi": 65,
      "hit": false,
      "t": 46800,
      "d": 600,
      "v": 74
    },
    {
      "midi": 69,
      "hit": false,
      "t": 46800,
      "d": 600,
      "v": 74
    },
    {
      "midi": 50,
      "hit": false,
      "t": 46800,
      "d": 600,
      "v": 77
    },
    {
      "midi": 67,
      "hit": false,
      "t": 48600,
      "d": 600,
      "v": 72
    },
    {
      "midi": 70,
      "hit": false,
      "t": 48600,
      "d": 600,
      "v": 72
    },
    {
      "midi": 74,
      "hit": false,
      "t": 48600,
      "d": 600,
      "v": 72
    },
    {
      "midi": 43,
      "hit": false,
      "t": 48600,
      "d": 600,
      "v": 68
    },
    {
      "midi": 67,
      "hit": false,
      "t": 49800,
      "d": 600,
      "v": 69
    },
    {
      "midi": 70,
      "hit": false,
      "t": 49800,
      "d": 600,
      "v": 69
    },
    {
      "midi": 72,
      "hit": false,
      "t": 49800,
      "d": 600,
      "v": 69
    },
    {
      "midi": 76,
      "hit": false,
      "t": 49800,
      "d": 600,
      "v": 69
    },
    {
      "midi": 48,
      "hit": false,
      "t": 49800,
      "d": 600,
      "v": 68
    },
    {
      "midi": 69,
      "hit": false,
      "t": 50400,
      "d": 600,
      "v": 78
    },
    {
      "midi": 72,
      "hit": false,
      "t": 50400,
      "d": 600,
      "v": 78
    },
    {
      "midi": 77,
      "hit": false,
      "t": 50400,
      "d": 600,
      "v": 78
    },
    {
      "midi": 41,
      "hit": false,
      "t": 50400,
      "d": 600,
      "v": 67
    }
  ]
}