{
  "jsonPath": "World/Classic Schlager/Marianne Rosenberg/georgie.json",
  "path": "World\\Classic Schlager\\Marianne Rosenberg\\Georgie.mid",
  "name": "Georgie",
  "difficulty": "Advanced",
  "bpm": 120,
  "notes": [
    {
      "midi": 50,
      "hit": false,
      "t": 14800,
      "d": 200,
      "v": 89
    },
    {
      "midi": 62,
      "hit": false,
      "t": 14800,
      "d": 200,
      "v": 89
    },
    {
      "midi": 45,
      "hit": false,
      "t": 15000,
      "d": 200,
      "v": 83
    },
    {
      "midi": 57,
      "hit": false,
      "t": 15000,
      "d": 200,
      "v": 83
    },
    {
      "midi": 50,
      "hit": false,
      "t": 15183.333333333334,
      "d": 200,
      "v": 76
    },
    {
      "midi": 62,
      "hit": false,
      "t": 15183.333333333334,
      "d": 200,
      "v": 76
    },
    {
      "midi": 57,
      "hit": false,
      "t": 15383.333333333334,
      "d": 200,
      "v": 89
    },
    {
      "midi": 69,
      "hit": false,
      "t": 15383.333333333334,
      "d": 200,
      "v": 89
    },
    {
      "midi": 50,
      "hit": false,
      "t": 15566.666666666668,
      "d": 200,
      "v": 76
    },
    {
      "midi": 62,
      "hit": false,
      "t": 15566.666666666668,
      "d": 200,
      "v": 76
    },
    {
      "midi": 57,
      "hit": false,
      "t": 15766.666666666668,
      "d": 200,
      "v": 66
    },
    {
      "midi": 69,
      "hit": false,
      "t": 15766.666666666668,
      "d": 200,
      "v": 66
    },
    {
      "midi": 62,
      "hit": false,
      "t": 15950.000000000002,
      "d": 200,
      "v": 100
    },
    {
      "midi": 74,
      "hit": false,
      "t": 15950.000000000002,
      "d": 200,
      "v": 100
    },
    {
      "midi": 57,
      "hit": false,
      "t": 16150.000000000002,
      "d": 200,
      "v": 76
    },
    {
      "midi": 69,
      "hit": false,
      "t": 16150.000000000002,
      "d": 200,
      "v": 76
    },
    {
      "midi": 62,
      "hit": false,
      "t": 16333.333333333336,
      "d": 200,
      "v": 86
    },
    {
      "midi": 74,
      "hit": false,
      "t": 16333.333333333336,
      "d": 200,
      "v": 86
    },
    {
      "midi": 69,
      "hit": false,
      "t": 16533.333333333336,
      "d": 200,
      "v": 89
    },
    {
      "midi": 81,
      "hit": false,
      "t": 16533.333333333336,
      "d": 200,
      "v": 89
    },
    {
      "midi": 62,
      "hit": false,
      "t": 16716.666666666668,
      "d": 200,
      "v": 83
    },
    {
      "midi": 74,
      "hit": false,
      "t": 16716.666666666668,
      "d": 200,
      "v": 83
    },
    {
      "midi": 69,
      "hit": false,
      "t": 16916.666666666668,
      "d": 200,
      "v": 92
    },
    {
      "midi": 81,
      "hit": false,
      "t": 16916.666666666668,
      "d": 200,
      "v": 92
    },
    {
      "midi": 74,
      "hit": false,
      "t": 17116.666666666668,
      "d": 200,
      "v": 89
    },
    {
      "midi": 86,
      "hit": false,
      "t": 17116.666666666668,
      "d": 200,
      "v": 89
    },
    {
      "midi": 69,
      "hit": false,
      "t": 17300,
      "d": 200,
      "v": 68
    },
    {
      "midi": 81,
      "hit": false,
      "t": 17300,
      "d": 200,
      "v": 68
    },
    {
      "midi": 74,
      "hit": false,
      "t": 17500,
      "d": 200,
      "v": 80
    },
    {
      "midi": 86,
      "hit": false,
      "t": 17500,
      "d": 200,
      "v": 80
    },
    {
      "midi": 81,
      "hit": false,
      "t": 17683.333333333332,
      "d": 200,
      "v": 80
    },
    {
      "midi": 93,
      "hit": false,
      "t": 17683.333333333332,
      "d": 200,
      "v": 80
    },
    {
      "midi": 73,
      "hit": false,
      "t": 17883.333333333332,
      "d": 3083.333333333332,
      "v": 109
    },
    {
      "midi": 85,
      "hit": false,
      "t": 17883.333333333332,
      "d": 3083.333333333332,
      "v": 109
    },
    {
      "midi": 65,
      "hit": false,
      "t": 113266.66666666666,
      "d": 200,
      "v": 86
    },
    {
      "midi": 68,
      "hit": false,
      "t": 113266.66666666666,
      "d": 200,
      "v": 101
    },
    {
      "midi": 73,
      "hit": false,
      "t": 113266.66666666666,
      "d": 200,
      "v": 101
    },
    {
      "midi": 49,
      "hit": false,
      "t": 113266.66666666666,
      "d": 383.3333333333285,
      "v": 74
    },
    {
      "midi": 65,
      "hit": false,
      "t": 113833.33333333331,
      "d": 200,
      "v": 86
    },
    {
      "midi": 68,
      "hit": false,
      "t": 113833.33333333331,
      "d": 200,
      "v": 101
    },
    {
      "midi": 73,
      "hit": false,
      "t": 113833.33333333331,
      "d": 200,
      "v": 93
    },
    {
      "midi": 49,
      "hit": false,
      "t": 113833.33333333331,
      "d": 383.3333333333285,
      "v": 74
    },
    {
      "midi": 47,
      "hit": false,
      "t": 114416.66666666664,
      "d": 200,
      "v": 76
    },
    {
      "midi": 63,
      "hit": false,
      "t": 114416.66666666664,
      "d": 200,
      "v": 85
    },
    {
      "midi": 66,
      "hit": false,
      "t": 114416.66666666664,
      "d": 200,
      "v": 74
    },
    {
      "midi": 71,
      "hit": false,
      "t": 114416.66666666664,
      "d": 200,
      "v": 96
    },
    {
      "midi": 49,
      "hit": false,
      "t": 114799.99999999997,
      "d": 1150,
      "v": 74
    },
    {
      "midi": 65,
      "hit": false,
      "t": 114799.99999999997,
      "d": 1150,
      "v": 86
    },
    {
      "midi": 68,
      "hit": false,
      "t": 114799.99999999997,
      "d": 1150,
      "v": 93
    },
    {
      "midi": 73,
      "hit": false,
      "t": 114799.99999999997,
      "d": 1150,
      "v": 85
    },
    {
      "midi": 50,
      "hit": false,
      "t": 162499.99999999997,
      "d": 200,
      "v": 89
    },
    {
      "midi": 62,
      "hit": false,
      "t": 162499.99999999997,
      "d": 200,
      "v": 89
    },
    {
      "midi": 45,
      "hit": false,
      "t": 162683.3333333333,
      "d": 200,
      "v": 83
    },
    {
      "midi": 57,
      "hit": false,
      "t": 162683.3333333333,
      "d": 200,
      "v": 83
    },
    {
      "midi": 50,
      "hit": false,
      "t": 162883.3333333333,
      "d": 200,
      "v": 76
    },
    {
      "midi": 62,
      "hit": false,
      "t": 162883.3333333333,
      "d": 200,
      "v": 76
    },
    {
      "midi": 57,
      "hit": false,
      "t": 163066.66666666666,
      "d": 200,
      "v": 89
    },
    {
      "midi": 69,
      "hit": false,
      "t": 163066.66666666666,
      "d": 200,
      "v": 89
    },
    {
      "midi": 50,
      "hit": false,
      "t": 163266.66666666666,
      "d": 200,
      "v": 76
    },
    {
      "midi": 62,
      "hit": false,
      "t": 163266.66666666666,
      "d": 200,
      "v": 76
    },
    {
      "midi": 57,
      "hit": false,
      "t": 163450,
      "d": 200,
      "v": 66
    },
    {
      "midi": 69,
      "hit": false,
      "t": 163450,
      "d": 200,
      "v": 66
    },
    {
      "midi": 62,
      "hit": false,
      "t": 163650,
      "d": 200,
      "v": 100
    },
    {
      "midi": 74,
      "hit": false,
      "t": 163650,
      "d": 200,
      "v": 100
    },
    {
      "midi": 57,
      "hit": false,
      "t": 163833.33333333334,
      "d": 200,
      "v": 76
    },
    {
      "midi": 69,
      "hit": false,
      "t": 163833.33333333334,
      "d": 200,
      "v": 76
    },
    {
      "midi": 62,
      "hit": false,
      "t": 164033.33333333334,
      "d": 200,
      "v": 86
    },
    {
      "midi": 74,
      "hit": false,
      "t": 164033.33333333334,
      "d": 200,
      "v": 86
    },
    {
      "midi": 69,
      "hit": false,
      "t": 164216.6666666667,
      "d": 200,
      "v": 89
    },
    {
      "midi": 81,
      "hit": false,
      "t": 164216.6666666667,
      "d": 200,
      "v": 89
    },
    {
      "midi": 62,
      "hit": false,
      "t": 164416.6666666667,
      "d": 200,
      "v": 83
    },
    {
      "midi": 74,
      "hit": false,
      "t": 164416.6666666667,
      "d": 200,
      "v": 83
    },
    {
      "midi": 69,
      "hit": false,
      "t": 164616.6666666667,
      "d": 200,
      "v": 92
    },
    {
      "midi": 81,
      "hit": false,
      "t": 164616.6666666667,
      "d": 200,
      "v": 92
    },
    {
      "midi": 74,
      "hit": false,
      "t": 164800.00000000003,
      "d": 200,
      "v": 89
    },
    {
      "midi": 86,
      "hit": false,
      "t": 164800.00000000003,
      "d": 200,
      "v": 89
    },
    {
      "midi": 69,
      "hit": false,
      "t": 165000.00000000003,
      "d": 200,
      "v": 68
    },
    {
      "midi": 81,
      "hit": false,
      "t": 165000.00000000003,
      "d": 200,
      "v": 68
    },
    {
      "midi": 74,
      "hit": false,
      "t": 165183.33333333337,
      "d": 200,
      "v": 80
    },
    {
      "midi": 86,
      "hit": false,
      "t": 165183.33333333337,
      "d": 200,
      "v": 80
    },
    {
      "midi": 81,
      "hit": false,
      "t": 165383.33333333337,
      "d": 200,
      "v": 80
    },
    {
      "midi": 93,
      "hit": false,
      "t": 165383.33333333337,
      "d": 200,
      "v": 80
    },
    {
      "midi": 73,
      "hit": false,
      "t": 165566.66666666672,
      "d": 3083.333333333314,
      "v": 109
    },
    {
      "midi": 85,
      "hit": false,
      "t": 165566.66666666672,
      "d": 3083.333333333314,
      "v": 109
    },
    {
      "midi": 65,
      "hit": false,
      "t": 260950.00000000003,
      "d": 200,
      "v": 86
    },
    {
      "midi": 68,
      "hit": false,
      "t": 260950.00000000003,
      "d": 200,
      "v": 101
    },
    {
      "midi": 73,
      "hit": false,
      "t": 260950.00000000003,
      "d": 200,
      "v": 101
    },
    {
      "midi": 49,
      "hit": false,
      "t": 260950.00000000003,
      "d": 383.33333333334303,
      "v": 74
    },
    {
      "midi": 65,
      "hit": false,
      "t": 261533.33333333337,
      "d": 200,
      "v": 86
    },
    {
      "midi": 68,
      "hit": false,
      "t": 261533.33333333337,
      "d": 200,
      "v": 101
    },
    {
      "midi": 73,
      "hit": false,
      "t": 261533.33333333337,
      "d": 200,
      "v": 93
    },
    {
      "midi": 49,
      "hit": false,
      "t": 261533.33333333337,
      "d": 383.33333333334303,
      "v": 74
    },
    {
      "midi": 47,
      "hit": false,
      "t": 262116.66666666672,
      "d": 200.0000000000291,
      "v": 76
    },
    {
      "midi": 63,
      "hit": false,
      "t": 262116.66666666672,
      "d": 200.0000000000291,
      "v": 85
    },
    {
      "midi": 66,
      "hit": false,
      "t": 262116.66666666672,
      "d": 200.0000000000291,
      "v": 74
    },
    {
      "midi": 71,
      "hit": false,
      "t": 262116.66666666672,
      "d": 200.0000000000291,
      "v": 96
    },
    {
      "midi": 49,
      "hit": false,
      "t": 262500.00000000006,
      "d": 1150,
      "v": 74
    },
    {
      "midi": 65,
      "hit": false,
      "t": 262500.00000000006,
      "d": 1150,
      "v": 86
    },
    {
      "midi": 68,
      "hit": false,
      "t": 262500.00000000006,
      "d": 1150,
      "v": 93
    },
    {
      "midi": 73,
      "hit": false,
      "t": 262500.00000000006,
      "d": 1150,
      "v": 85
    }
  ]
}