{
  "jsonPath": "World/Classic Schlager/Marianne Rosenberg/ich-sah-deine-tranen.json",
  "path": "World\\Classic Schlager\\Marianne Rosenberg\\Ich sah deine Tränen.mid",
  "name": "Ich sah deine Tränen",
  "difficulty": "Intermediate",
  "bpm": 85.01003826868556,
  "notes": [
    {
      "midi": 71,
      "hit": false,
      "t": 131089.2935,
      "d": 117.6040312499972,
      "v": 110
    },
    {
      "midi": 67,
      "hit": false,
      "t": 131089.2935,
      "d": 130.67114583333023,
      "v": 110
    },
    {
      "midi": 74,
      "hit": false,
      "t": 131089.2935,
      "d": 143.73826041666325,
      "v": 110
    },
    {
      "midi": 74,
      "hit": false,
      "t": 131402.90425,
      "d": 91.46980208333116,
      "v": 110
    },
    {
      "midi": 71,
      "hit": false,
      "t": 131402.90425,
      "d": 104.53691666666418,
      "v": 110
    },
    {
      "midi": 67,
      "hit": false,
      "t": 131402.90425,
      "d": 117.6040312499972,
      "v": 110
    },
    {
      "midi": 74,
      "hit": false,
      "t": 131716.51499999998,
      "d": 13.067114583333023,
      "v": 110
    },
    {
      "midi": 71,
      "hit": false,
      "t": 131716.51499999998,
      "d": 52.26845833333209,
      "v": 110
    },
    {
      "midi": 67,
      "hit": false,
      "t": 131716.51499999998,
      "d": 65.33557291666511,
      "v": 110
    },
    {
      "midi": 71,
      "hit": false,
      "t": 132343.73649999997,
      "d": 91.46980208333116,
      "v": 110
    },
    {
      "midi": 67,
      "hit": false,
      "t": 132343.73649999997,
      "d": 130.67114583333023,
      "v": 110
    },
    {
      "midi": 74,
      "hit": false,
      "t": 132343.73649999997,
      "d": 130.67114583333023,
      "v": 110
    },
    {
      "midi": 67,
      "hit": false,
      "t": 133598.17949999997,
      "d": 130.67114583333023,
      "v": 110
    },
    {
      "midi": 71,
      "hit": false,
      "t": 133598.17949999997,
      "d": 130.67114583333023,
      "v": 110
    },
    {
      "midi": 74,
      "hit": false,
      "t": 133598.17949999997,
      "d": 143.73826041666325,
      "v": 110
    },
    {
      "midi": 67,
      "hit": false,
      "t": 133911.79024999996,
      "d": 143.73826041666325,
      "v": 110
    },
    {
      "midi": 71,
      "hit": false,
      "t": 133911.79024999996,
      "d": 143.73826041666325,
      "v": 110
    },
    {
      "midi": 74,
      "hit": false,
      "t": 133911.79024999996,
      "d": 156.80537499999627,
      "v": 110
    },
    {
      "midi": 71,
      "hit": false,
      "t": 134852.62249999997,
      "d": 130.67114583333023,
      "v": 110
    },
    {
      "midi": 67,
      "hit": false,
      "t": 134852.62249999997,
      "d": 156.80537499999627,
      "v": 110
    },
    {
      "midi": 74,
      "hit": false,
      "t": 134852.62249999997,
      "d": 169.8724895833293,
      "v": 110
    },
    {
      "midi": 67,
      "hit": false,
      "t": 136107.06549999997,
      "d": 130.67114583333023,
      "v": 110
    },
    {
      "midi": 64,
      "hit": false,
      "t": 136107.06549999997,
      "d": 143.73826041666325,
      "v": 110
    },
    {
      "midi": 71,
      "hit": false,
      "t": 136107.06549999997,
      "d": 143.73826041666325,
      "v": 110
    },
    {
      "midi": 64,
      "hit": false,
      "t": 136420.67624999996,
      "d": 130.67114583333023,
      "v": 110
    },
    {
      "midi": 67,
      "hit": false,
      "t": 136420.67624999996,
      "d": 130.67114583333023,
      "v": 110
    },
    {
      "midi": 71,
      "hit": false,
      "t": 136420.67624999996,
      "d": 169.8724895833293,
      "v": 110
    },
    {
      "midi": 67,
      "hit": false,
      "t": 137361.50849999997,
      "d": 156.80537499999627,
      "v": 110
    },
    {
      "midi": 64,
      "hit": false,
      "t": 137361.50849999997,
      "d": 169.8724895833293,
      "v": 110
    },
    {
      "midi": 71,
      "hit": false,
      "t": 137361.50849999997,
      "d": 222.1409479166614,
      "v": 110
    },
    {
      "midi": 64,
      "hit": false,
      "t": 138615.95149999997,
      "d": 156.80537499999627,
      "v": 110
    },
    {
      "midi": 69,
      "hit": false,
      "t": 138615.95149999997,
      "d": 156.80537499999627,
      "v": 110
    },
    {
      "midi": 71,
      "hit": false,
      "t": 138615.95149999997,
      "d": 156.80537499999627,
      "v": 110
    },
    {
      "midi": 64,
      "hit": false,
      "t": 138929.56224999996,
      "d": 156.80537499999627,
      "v": 110
    },
    {
      "midi": 69,
      "hit": false,
      "t": 138929.56224999996,
      "d": 156.80537499999627,
      "v": 110
    },
    {
      "midi": 71,
      "hit": false,
      "t": 138929.56224999996,
      "d": 156.80537499999627,
      "v": 110
    },
    {
      "midi": 64,
      "hit": false,
      "t": 139870.39449999997,
      "d": 156.80537499999627,
      "v": 110
    },
    {
      "midi": 68,
      "hit": false,
      "t": 139870.39449999997,
      "d": 156.80537499999627,
      "v": 110
    },
    {
      "midi": 71,
      "hit": false,
      "t": 139870.39449999997,
      "d": 156.80537499999627,
      "v": 110
    },
    {
      "midi": 64,
      "hit": false,
      "t": 140497.61599999995,
      "d": 156.80537499999627,
      "v": 110
    },
    {
      "midi": 67,
      "hit": false,
      "t": 140497.61599999995,
      "d": 156.80537499999627,
      "v": 110
    },
    {
      "midi": 72,
      "hit": false,
      "t": 140497.61599999995,
      "d": 156.80537499999627,
      "v": 110
    },
    {
      "midi": 64,
      "hit": false,
      "t": 140811.22674999994,
      "d": 156.80537499999627,
      "v": 110
    },
    {
      "midi": 67,
      "hit": false,
      "t": 140811.22674999994,
      "d": 156.80537499999627,
      "v": 110
    },
    {
      "midi": 72,
      "hit": false,
      "t": 140811.22674999994,
      "d": 156.80537499999627,
      "v": 110
    },
    {
      "midi": 64,
      "hit": false,
      "t": 141124.83749999994,
      "d": 156.80537499999627,
      "v": 110
    },
    {
      "midi": 67,
      "hit": false,
      "t": 141124.83749999994,
      "d": 156.80537499999627,
      "v": 110
    },
    {
      "midi": 72,
      "hit": false,
      "t": 141124.83749999994,
      "d": 156.80537499999627,
      "v": 110
    },
    {
      "midi": 64,
      "hit": false,
      "t": 141438.44824999993,
      "d": 156.80537499999627,
      "v": 110
    },
    {
      "midi": 67,
      "hit": false,
      "t": 141438.44824999993,
      "d": 156.80537499999627,
      "v": 110
    },
    {
      "midi": 72,
      "hit": false,
      "t": 141438.44824999993,
      "d": 156.80537499999627,
      "v": 110
    },
    {
      "midi": 64,
      "hit": false,
      "t": 141752.05899999992,
      "d": 156.80537499999627,
      "v": 110
    },
    {
      "midi": 67,
      "hit": false,
      "t": 141752.05899999992,
      "d": 156.80537499999627,
      "v": 110
    },
    {
      "midi": 72,
      "hit": false,
      "t": 141752.05899999992,
      "d": 156.80537499999627,
      "v": 110
    },
    {
      "midi": 64,
      "hit": false,
      "t": 142379.2804999999,
      "d": 156.80537499999627,
      "v": 110
    },
    {
      "midi": 67,
      "hit": false,
      "t": 142379.2804999999,
      "d": 156.80537499999627,
      "v": 110
    },
    {
      "midi": 72,
      "hit": false,
      "t": 142379.2804999999,
      "d": 156.80537499999627,
      "v": 110
    },
    {
      "midi": 64,
      "hit": false,
      "t": 143006.5019999999,
      "d": 156.80537499999627,
      "v": 110
    },
    {
      "midi": 69,
      "hit": false,
      "t": 143006.5019999999,
      "d": 156.80537499999627,
      "v": 110
    },
    {
      "midi": 71,
      "hit": false,
      "t": 143006.5019999999,
      "d": 156.80537499999627,
      "v": 110
    },
    {
      "midi": 64,
      "hit": false,
      "t": 143320.11274999988,
      "d": 156.80537499999627,
      "v": 110
    },
    {
      "midi": 69,
      "hit": false,
      "t": 143320.11274999988,
      "d": 156.80537499999627,
      "v": 110
    },
    {
      "midi": 71,
      "hit": false,
      "t": 143320.11274999988,
      "d": 156.80537499999627,
      "v": 110
    },
    {
      "midi": 64,
      "hit": false,
      "t": 143633.72349999988,
      "d": 156.80537499999627,
      "v": 110
    },
    {
      "midi": 69,
      "hit": false,
      "t": 143633.72349999988,
      "d": 156.80537499999627,
      "v": 110
    },
    {
      "midi": 71,
      "hit": false,
      "t": 143633.72349999988,
      "d": 156.80537499999627,
      "v": 110
    },
    {
      "midi": 64,
      "hit": false,
      "t": 143947.33424999987,
      "d": 156.80537499999627,
      "v": 110
    },
    {
      "midi": 69,
      "hit": false,
      "t": 143947.33424999987,
      "d": 156.80537499999627,
      "v": 110
    },
    {
      "midi": 71,
      "hit": false,
      "t": 143947.33424999987,
      "d": 156.80537499999627,
      "v": 110
    },
    {
      "midi": 64,
      "hit": false,
      "t": 144260.94499999986,
      "d": 156.80537499999627,
      "v": 110
    },
    {
      "midi": 68,
      "hit": false,
      "t": 144260.94499999986,
      "d": 156.80537499999627,
      "v": 110
    },
    {
      "midi": 71,
      "hit": false,
      "t": 144260.94499999986,
      "d": 156.80537499999627,
      "v": 110
    },
    {
      "midi": 64,
      "hit": false,
      "t": 144574.55574999985,
      "d": 156.80537499999627,
      "v": 110
    },
    {
      "midi": 68,
      "hit": false,
      "t": 144574.55574999985,
      "d": 156.80537499999627,
      "v": 110
    },
    {
      "midi": 71,
      "hit": false,
      "t": 144574.55574999985,
      "d": 156.80537499999627,
      "v": 110
    },
    {
      "midi": 64,
      "hit": false,
      "t": 144888.16649999985,
      "d": 156.80537499999627,
      "v": 110
    },
    {
      "midi": 68,
      "hit": false,
      "t": 144888.16649999985,
      "d": 156.80537499999627,
      "v": 110
    },
    {
      "midi": 71,
      "hit": false,
      "t": 144888.16649999985,
      "d": 156.80537499999627,
      "v": 110
    },
    {
      "midi": 64,
      "hit": false,
      "t": 145201.77724999984,
      "d": 156.80537499999627,
      "v": 110
    },
    {
      "midi": 68,
      "hit": false,
      "t": 145201.77724999984,
      "d": 156.80537499999627,
      "v": 110
    },
    {
      "midi": 71,
      "hit": false,
      "t": 145201.77724999984,
      "d": 156.80537499999627,
      "v": 110
    },
    {
      "midi": 64,
      "hit": false,
      "t": 146142.60949999985,
      "d": 156.80537499999627,
      "v": 110
    },
    {
      "midi": 69,
      "hit": false,
      "t": 146142.60949999985,
      "d": 156.80537499999627,
      "v": 110
    },
    {
      "midi": 72,
      "hit": false,
      "t": 146142.60949999985,
      "d": 156.80537499999627,
      "v": 110
    },
    {
      "midi": 64,
      "hit": false,
      "t": 146456.22024999984,
      "d": 156.80537499999627,
      "v": 110
    },
    {
      "midi": 69,
      "hit": false,
      "t": 146456.22024999984,
      "d": 156.80537499999627,
      "v": 110
    },
    {
      "midi": 72,
      "hit": false,
      "t": 146456.22024999984,
      "d": 156.80537499999627,
      "v": 110
    },
    {
      "midi": 64,
      "hit": false,
      "t": 146769.83099999983,
      "d": 156.80537499999627,
      "v": 110
    },
    {
      "midi": 69,
      "hit": false,
      "t": 146769.83099999983,
      "d": 156.80537499999627,
      "v": 110
    },
    {
      "midi": 72,
      "hit": false,
      "t": 146769.83099999983,
      "d": 156.80537499999627,
      "v": 110
    },
    {
      "midi": 64,
      "hit": false,
      "t": 147397.05249999982,
      "d": 156.80537499999627,
      "v": 110
    },
    {
      "midi": 69,
      "hit": false,
      "t": 147397.05249999982,
      "d": 156.80537499999627,
      "v": 110
    },
    {
      "midi": 72,
      "hit": false,
      "t": 147397.05249999982,
      "d": 156.80537499999627,
      "v": 110
    },
    {
      "midi": 64,
      "hit": false,
      "t": 148651.49549999982,
      "d": 156.80537499999627,
      "v": 110
    },
    {
      "midi": 69,
      "hit": false,
      "t": 148651.49549999982,
      "d": 156.80537499999627,
      "v": 110
    },
    {
      "midi": 73,
      "hit": false,
      "t": 148651.49549999982,
      "d": 156.80537499999627,
      "v": 110
    },
    {
      "midi": 64,
      "hit": false,
      "t": 148965.1062499998,
      "d": 156.80537499999627,
      "v": 110
    },
    {
      "midi": 69,
      "hit": false,
      "t": 148965.1062499998,
      "d": 156.80537499999627,
      "v": 110
    },
    {
      "midi": 73,
      "hit": false,
      "t": 148965.1062499998,
      "d": 156.80537499999627,
      "v": 110
    },
    {
      "midi": 64,
      "hit": false,
      "t": 149905.93849999981,
      "d": 156.80537499999627,
      "v": 110
    },
    {
      "midi": 69,
      "hit": false,
      "t": 149905.93849999981,
      "d": 156.80537499999627,
      "v": 110
    },
    {
      "midi": 73,
      "hit": false,
      "t": 149905.93849999981,
      "d": 156.80537499999627,
      "v": 110
    },
    {
      "midi": 62,
      "hit": false,
      "t": 151160.3814999998,
      "d": 156.80537499999627,
      "v": 110
    },
    {
      "midi": 66,
      "hit": false,
      "t": 151160.3814999998,
      "d": 156.80537499999627,
      "v": 110
    },
    {
      "midi": 69,
      "hit": false,
      "t": 151160.3814999998,
      "d": 156.80537499999627,
      "v": 110
    },
    {
      "midi": 62,
      "hit": false,
      "t": 151473.9922499998,
      "d": 156.80537499999627,
      "v": 110
    },
    {
      "midi": 66,
      "hit": false,
      "t": 151473.9922499998,
      "d": 156.80537499999627,
      "v": 110
    },
    {
      "midi": 69,
      "hit": false,
      "t": 151473.9922499998,
      "d": 156.80537499999627,
      "v": 110
    },
    {
      "midi": 62,
      "hit": false,
      "t": 151787.6029999998,
      "d": 156.80537499999627,
      "v": 110
    },
    {
      "midi": 66,
      "hit": false,
      "t": 151787.6029999998,
      "d": 156.80537499999627,
      "v": 110
    },
    {
      "midi": 69,
      "hit": false,
      "t": 151787.6029999998,
      "d": 156.80537499999627,
      "v": 110
    },
    {
      "midi": 62,
      "hit": false,
      "t": 152414.82449999978,
      "d": 156.80537499999627,
      "v": 110
    },
    {
      "midi": 66,
      "hit": false,
      "t": 152414.82449999978,
      "d": 156.80537499999627,
      "v": 110
    },
    {
      "midi": 69,
      "hit": false,
      "t": 152414.82449999978,
      "d": 156.80537499999627,
      "v": 110
    },
    {
      "midi": 62,
      "hit": false,
      "t": 153669.26749999978,
      "d": 156.80537499999627,
      "v": 110
    },
    {
      "midi": 66,
      "hit": false,
      "t": 153669.26749999978,
      "d": 156.80537499999627,
      "v": 110
    },
    {
      "midi": 69,
      "hit": false,
      "t": 153669.26749999978,
      "d": 156.80537499999627,
      "v": 110
    },
    {
      "midi": 62,
      "hit": false,
      "t": 153982.87824999978,
      "d": 156.80537499999627,
      "v": 110
    },
    {
      "midi": 66,
      "hit": false,
      "t": 153982.87824999978,
      "d": 156.80537499999627,
      "v": 110
    },
    {
      "midi": 69,
      "hit": false,
      "t": 153982.87824999978,
      "d": 156.80537499999627,
      "v": 110
    },
    {
      "midi": 62,
      "hit": false,
      "t": 154923.71049999978,
      "d": 156.80537499999627,
      "v": 110
    },
    {
      "midi": 66,
      "hit": false,
      "t": 154923.71049999978,
      "d": 156.80537499999627,
      "v": 110
    },
    {
      "midi": 69,
      "hit": false,
      "t": 154923.71049999978,
      "d": 156.80537499999627,
      "v": 110
    },
    {
      "midi": 64,
      "hit": false,
      "t": 156178.15349999978,
      "d": 156.80537499999627,
      "v": 110
    },
    {
      "midi": 67,
      "hit": false,
      "t": 156178.15349999978,
      "d": 156.80537499999627,
      "v": 110
    },
    {
      "midi": 72,
      "hit": false,
      "t": 156178.15349999978,
      "d": 156.80537499999627,
      "v": 110
    },
    {
      "midi": 64,
      "hit": false,
      "t": 156491.76424999977,
      "d": 156.80537499999627,
      "v": 110
    },
    {
      "midi": 67,
      "hit": false,
      "t": 156491.76424999977,
      "d": 156.80537499999627,
      "v": 110
    },
    {
      "midi": 72,
      "hit": false,
      "t": 156491.76424999977,
      "d": 156.80537499999627,
      "v": 110
    },
    {
      "midi": 64,
      "hit": false,
      "t": 156805.37499999977,
      "d": 156.80537499999627,
      "v": 110
    },
    {
      "midi": 67,
      "hit": false,
      "t": 156805.37499999977,
      "d": 156.80537499999627,
      "v": 110
    },
    {
      "midi": 72,
      "hit": false,
      "t": 156805.37499999977,
      "d": 156.80537499999627,
      "v": 110
    },
    {
      "midi": 64,
      "hit": false,
      "t": 157432.59649999975,
      "d": 156.80537499999627,
      "v": 110
    },
    {
      "midi": 67,
      "hit": false,
      "t": 157432.59649999975,
      "d": 156.80537499999627,
      "v": 110
    },
    {
      "midi": 72,
      "hit": false,
      "t": 157432.59649999975,
      "d": 156.80537499999627,
      "v": 110
    },
    {
      "midi": 62,
      "hit": false,
      "t": 158687.03949999975,
      "d": 156.80537499999627,
      "v": 110
    },
    {
      "midi": 66,
      "hit": false,
      "t": 158687.03949999975,
      "d": 156.80537499999627,
      "v": 110
    },
    {
      "midi": 69,
      "hit": false,
      "t": 158687.03949999975,
      "d": 156.80537499999627,
      "v": 110
    },
    {
      "midi": 62,
      "hit": false,
      "t": 159000.65024999974,
      "d": 156.80537499999627,
      "v": 110
    },
    {
      "midi": 66,
      "hit": false,
      "t": 159000.65024999974,
      "d": 156.80537499999627,
      "v": 110
    },
    {
      "midi": 69,
      "hit": false,
      "t": 159000.65024999974,
      "d": 156.80537499999627,
      "v": 110
    },
    {
      "midi": 62,
      "hit": false,
      "t": 159941.48249999975,
      "d": 156.80537499999627,
      "v": 110
    },
    {
      "midi": 66,
      "hit": false,
      "t": 159941.48249999975,
      "d": 156.80537499999627,
      "v": 110
    },
    {
      "midi": 69,
      "hit": false,
      "t": 159941.48249999975,
      "d": 156.80537499999627,
      "v": 110
    },
    {
      "midi": 67,
      "hit": false,
      "t": 160568.70399999974,
      "d": 1685.657781249989,
      "v": 110
    },
    {
      "midi": 71,
      "hit": false,
      "t": 160568.70399999974,
      "d": 1685.657781249989,
      "v": 110
    },
    {
      "midi": 66,
      "hit": false,
      "t": 162450.36849999972,
      "d": 561.88592708332,
      "v": 110
    },
    {
      "midi": 69,
      "hit": false,
      "t": 162450.36849999972,
      "d": 561.88592708332,
      "v": 110
    },
    {
      "midi": 66,
      "hit": false,
      "t": 163077.5899999997,
      "d": 1123.771854166669,
      "v": 110
    },
    {
      "midi": 69,
      "hit": false,
      "t": 163077.5899999997,
      "d": 1123.771854166669,
      "v": 110
    },
    {
      "midi": 64,
      "hit": false,
      "t": 164332.0329999997,
      "d": 1123.771854166669,
      "v": 110
    },
    {
      "midi": 67,
      "hit": false,
      "t": 164332.0329999997,
      "d": 1123.771854166669,
      "v": 110
    },
    {
      "midi": 64,
      "hit": false,
      "t": 166213.69749999972,
      "d": 561.88592708332,
      "v": 110
    },
    {
      "midi": 67,
      "hit": false,
      "t": 166213.69749999972,
      "d": 561.88592708332,
      "v": 110
    },
    {
      "midi": 64,
      "hit": false,
      "t": 166840.9189999997,
      "d": 561.88592708332,
      "v": 110
    },
    {
      "midi": 67,
      "hit": false,
      "t": 166840.9189999997,
      "d": 561.88592708332,
      "v": 110
    },
    {
      "midi": 67,
      "hit": false,
      "t": 167468.1404999997,
      "d": 561.88592708332,
      "v": 110
    },
    {
      "midi": 71,
      "hit": false,
      "t": 167468.1404999997,
      "d": 561.88592708332,
      "v": 110
    },
    {
      "midi": 67,
      "hit": false,
      "t": 168095.36199999967,
      "d": 561.88592708332,
      "v": 110
    },
    {
      "midi": 71,
      "hit": false,
      "t": 168095.36199999967,
      "d": 561.88592708332,
      "v": 110
    },
    {
      "midi": 67,
      "hit": false,
      "t": 168722.58349999966,
      "d": 561.88592708332,
      "v": 110
    },
    {
      "midi": 71,
      "hit": false,
      "t": 168722.58349999966,
      "d": 561.88592708332,
      "v": 110
    },
    {
      "midi": 66,
      "hit": false,
      "t": 169349.80499999964,
      "d": 561.88592708332,
      "v": 110
    },
    {
      "midi": 69,
      "hit": false,
      "t": 169349.80499999964,
      "d": 561.88592708332,
      "v": 110
    },
    {
      "midi": 62,
      "hit": false,
      "t": 169977.02649999963,
      "d": 561.88592708332,
      "v": 110
    },
    {
      "midi": 66,
      "hit": false,
      "t": 169977.02649999963,
      "d": 561.88592708332,
      "v": 110
    },
    {
      "midi": 71,
      "hit": false,
      "t": 171231.46949999963,
      "d": 117.6040312499972,
      "v": 110
    },
    {
      "midi": 67,
      "hit": false,
      "t": 171231.46949999963,
      "d": 130.67114583333023,
      "v": 110
    },
    {
      "midi": 74,
      "hit": false,
      "t": 171231.46949999963,
      "d": 143.73826041666325,
      "v": 110
    },
    {
      "midi": 74,
      "hit": false,
      "t": 171545.08024999962,
      "d": 91.46980208333116,
      "v": 110
    },
    {
      "midi": 71,
      "hit": false,
      "t": 171545.08024999962,
      "d": 104.53691666666418,
      "v": 110
    },
    {
      "midi": 67,
      "hit": false,
      "t": 171545.08024999962,
      "d": 117.6040312499972,
      "v": 110
    },
    {
      "midi": 74,
      "hit": false,
      "t": 171858.6909999996,
      "d": 13.067114583333023,
      "v": 110
    },
    {
      "midi": 71,
      "hit": false,
      "t": 171858.6909999996,
      "d": 52.26845833333209,
      "v": 110
    },
    {
      "midi": 67,
      "hit": false,
      "t": 171858.6909999996,
      "d": 65.33557291666511,
      "v": 110
    },
    {
      "midi": 71,
      "hit": false,
      "t": 172485.9124999996,
      "d": 91.46980208333116,
      "v": 110
    },
    {
      "midi": 67,
      "hit": false,
      "t": 172485.9124999996,
      "d": 130.67114583333023,
      "v": 110
    },
    {
      "midi": 74,
      "hit": false,
      "t": 172485.9124999996,
      "d": 130.67114583333023,
      "v": 110
    },
    {
      "midi": 67,
      "hit": false,
      "t": 173740.3554999996,
      "d": 130.67114583333023,
      "v": 110
    },
    {
      "midi": 71,
      "hit": false,
      "t": 173740.3554999996,
      "d": 130.67114583333023,
      "v": 110
    },
    {
      "midi": 74,
      "hit": false,
      "t": 173740.3554999996,
      "d": 143.73826041666325,
      "v": 110
    },
    {
      "midi": 67,
      "hit": false,
      "t": 174053.9662499996,
      "d": 143.73826041666325,
      "v": 110
    },
    {
      "midi": 71,
      "hit": false,
      "t": 174053.9662499996,
      "d": 143.73826041666325,
      "v": 110
    },
    {
      "midi": 74,
      "hit": false,
      "t": 174053.9662499996,
      "d": 156.80537499999627,
      "v": 110
    },
    {
      "midi": 71,
      "hit": false,
      "t": 174994.7984999996,
      "d": 130.67114583333023,
      "v": 110
    },
    {
      "midi": 67,
      "hit": false,
      "t": 174994.7984999996,
      "d": 156.80537499999627,
      "v": 110
    },
    {
      "midi": 74,
      "hit": false,
      "t": 174994.7984999996,
      "d": 169.8724895833293,
      "v": 110
    },
    {
      "midi": 67,
      "hit": false,
      "t": 176249.2414999996,
      "d": 130.67114583333023,
      "v": 110
    },
    {
      "midi": 64,
      "hit": false,
      "t": 176249.2414999996,
      "d": 143.73826041666325,
      "v": 110
    },
    {
      "midi": 71,
      "hit": false,
      "t": 176249.2414999996,
      "d": 143.73826041666325,
      "v": 110
    },
    {
      "midi": 64,
      "hit": false,
      "t": 176562.8522499996,
      "d": 130.67114583333023,
      "v": 110
    },
    {
      "midi": 67,
      "hit": false,
      "t": 176562.8522499996,
      "d": 130.67114583333023,
      "v": 110
    },
    {
      "midi": 71,
      "hit": false,
      "t": 176562.8522499996,
      "d": 169.8724895833293,
      "v": 110
    },
    {
      "midi": 67,
      "hit": false,
      "t": 177503.6844999996,
      "d": 156.80537499999627,
      "v": 110
    },
    {
      "midi": 64,
      "hit": false,
      "t": 177503.6844999996,
      "d": 169.8724895833293,
      "v": 110
    },
    {
      "midi": 71,
      "hit": false,
      "t": 177503.6844999996,
      "d": 222.1409479166614,
      "v": 110
    },
    {
      "midi": 64,
      "hit": false,
      "t": 178758.1274999996,
      "d": 156.80537499999627,
      "v": 110
    },
    {
      "midi": 69,
      "hit": false,
      "t": 178758.1274999996,
      "d": 156.80537499999627,
      "v": 110
    },
    {
      "midi": 71,
      "hit": false,
      "t": 178758.1274999996,
      "d": 156.80537499999627,
      "v": 110
    },
    {
      "midi": 64,
      "hit": false,
      "t": 179071.7382499996,
      "d": 156.80537499999627,
      "v": 110
    },
    {
      "midi": 69,
      "hit": false,
      "t": 179071.7382499996,
      "d": 156.80537499999627,
      "v": 110
    },
    {
      "midi": 71,
      "hit": false,
      "t": 179071.7382499996,
      "d": 156.80537499999627,
      "v": 110
    },
    {
      "midi": 64,
      "hit": false,
      "t": 180012.5704999996,
      "d": 156.80537499999627,
      "v": 110
    },
    {
      "midi": 68,
      "hit": false,
      "t": 180012.5704999996,
      "d": 156.80537499999627,
      "v": 110
    },
    {
      "midi": 71,
      "hit": false,
      "t": 180012.5704999996,
      "d": 156.80537499999627,
      "v": 110
    },
    {
      "midi": 64,
      "hit": false,
      "t": 180639.79199999958,
      "d": 156.80537499999627,
      "v": 110
    },
    {
      "midi": 67,
      "hit": false,
      "t": 180639.79199999958,
      "d": 156.80537499999627,
      "v": 110
    },
    {
      "midi": 72,
      "hit": false,
      "t": 180639.79199999958,
      "d": 156.80537499999627,
      "v": 110
    },
    {
      "midi": 64,
      "hit": false,
      "t": 180953.40274999957,
      "d": 156.80537499999627,
      "v": 110
    },
    {
      "midi": 67,
      "hit": false,
      "t": 180953.40274999957,
      "d": 156.80537499999627,
      "v": 110
    },
    {
      "midi": 72,
      "hit": false,
      "t": 180953.40274999957,
      "d": 156.80537499999627,
      "v": 110
    },
    {
      "midi": 64,
      "hit": false,
      "t": 181267.01349999956,
      "d": 156.80537499999627,
      "v": 110
    },
    {
      "midi": 67,
      "hit": false,
      "t": 181267.01349999956,
      "d": 156.80537499999627,
      "v": 110
    },
    {
      "midi": 72,
      "hit": false,
      "t": 181267.01349999956,
      "d": 156.80537499999627,
      "v": 110
    },
    {
      "midi": 64,
      "hit": false,
      "t": 181580.62424999956,
      "d": 156.80537499999627,
      "v": 110
    },
    {
      "midi": 67,
      "hit": false,
      "t": 181580.62424999956,
      "d": 156.80537499999627,
      "v": 110
    },
    {
      "midi": 72,
      "hit": false,
      "t": 181580.62424999956,
      "d": 156.80537499999627,
      "v": 110
    },
    {
      "midi": 64,
      "hit": false,
      "t": 181894.23499999955,
      "d": 156.80537499999627,
      "v": 110
    },
    {
      "midi": 67,
      "hit": false,
      "t": 181894.23499999955,
      "d": 156.80537499999627,
      "v": 110
    },
    {
      "midi": 72,
      "hit": false,
      "t": 181894.23499999955,
      "d": 156.80537499999627,
      "v": 110
    },
    {
      "midi": 64,
      "hit": false,
      "t": 182521.45649999953,
      "d": 156.80537499999627,
      "v": 110
    },
    {
      "midi": 67,
      "hit": false,
      "t": 182521.45649999953,
      "d": 156.80537499999627,
      "v": 110
    },
    {
      "midi": 72,
      "hit": false,
      "t": 182521.45649999953,
      "d": 156.80537499999627,
      "v": 110
    },
    {
      "midi": 64,
      "hit": false,
      "t": 183148.67799999952,
      "d": 156.80537499999627,
      "v": 110
    },
    {
      "midi": 69,
      "hit": false,
      "t": 183148.67799999952,
      "d": 156.80537499999627,
      "v": 110
    },
    {
      "midi": 71,
      "hit": false,
      "t": 183148.67799999952,
      "d": 156.80537499999627,
      "v": 110
    },
    {
      "midi": 64,
      "hit": false,
      "t": 183462.2887499995,
      "d": 156.80537499999627,
      "v": 110
    },
    {
      "midi": 69,
      "hit": false,
      "t": 183462.2887499995,
      "d": 156.80537499999627,
      "v": 110
    },
    {
      "midi": 71,
      "hit": false,
      "t": 183462.2887499995,
      "d": 156.80537499999627,
      "v": 110
    },
    {
      "midi": 64,
      "hit": false,
      "t": 183775.8994999995,
      "d": 156.80537499999627,
      "v": 110
    },
    {
      "midi": 69,
      "hit": false,
      "t": 183775.8994999995,
      "d": 156.80537499999627,
      "v": 110
    },
    {
      "midi": 71,
      "hit": false,
      "t": 183775.8994999995,
      "d": 156.80537499999627,
      "v": 110
    },
    {
      "midi": 64,
      "hit": false,
      "t": 184089.5102499995,
      "d": 156.80537499999627,
      "v": 110
    },
    {
      "midi": 69,
      "hit": false,
      "t": 184089.5102499995,
      "d": 156.80537499999627,
      "v": 110
    },
    {
      "midi": 71,
      "hit": false,
      "t": 184089.5102499995,
      "d": 156.80537499999627,
      "v": 110
    },
    {
      "midi": 64,
      "hit": false,
      "t": 184403.1209999995,
      "d": 156.80537499999627,
      "v": 110
    },
    {
      "midi": 68,
      "hit": false,
      "t": 184403.1209999995,
      "d": 156.80537499999627,
      "v": 110
    },
    {
      "midi": 71,
      "hit": false,
      "t": 184403.1209999995,
      "d": 156.80537499999627,
      "v": 110
    },
    {
      "midi": 64,
      "hit": false,
      "t": 184716.73174999948,
      "d": 156.80537499999627,
      "v": 110
    },
    {
      "midi": 68,
      "hit": false,
      "t": 184716.73174999948,
      "d": 156.80537499999627,
      "v": 110
    },
    {
      "midi": 71,
      "hit": false,
      "t": 184716.73174999948,
      "d": 156.80537499999627,
      "v": 110
    },
    {
      "midi": 64,
      "hit": false,
      "t": 185030.34249999947,
      "d": 156.80537499999627,
      "v": 110
    },
    {
      "midi": 68,
      "hit": false,
      "t": 185030.34249999947,
      "d": 156.80537499999627,
      "v": 110
    },
    {
      "midi": 71,
      "hit": false,
      "t": 185030.34249999947,
      "d": 156.80537499999627,
      "v": 110
    },
    {
      "midi": 64,
      "hit": false,
      "t": 185343.95324999947,
      "d": 156.80537499999627,
      "v": 110
    },
    {
      "midi": 68,
      "hit": false,
      "t": 185343.95324999947,
      "d": 156.80537499999627,
      "v": 110
    },
    {
      "midi": 71,
      "hit": false,
      "t": 185343.95324999947,
      "d": 156.80537499999627,
      "v": 110
    },
    {
      "midi": 64,
      "hit": false,
      "t": 186284.78549999947,
      "d": 156.80537499999627,
      "v": 110
    },
    {
      "midi": 69,
      "hit": false,
      "t": 186284.78549999947,
      "d": 156.80537499999627,
      "v": 110
    },
    {
      "midi": 72,
      "hit": false,
      "t": 186284.78549999947,
      "d": 156.80537499999627,
      "v": 110
    },
    {
      "midi": 64,
      "hit": false,
      "t": 186598.39624999947,
      "d": 156.80537499999627,
      "v": 110
    },
    {
      "midi": 69,
      "hit": false,
      "t": 186598.39624999947,
      "d": 156.80537499999627,
      "v": 110
    },
    {
      "midi": 72,
      "hit": false,
      "t": 186598.39624999947,
      "d": 156.80537499999627,
      "v": 110
    },
    {
      "midi": 64,
      "hit": false,
      "t": 186912.00699999946,
      "d": 156.80537499999627,
      "v": 110
    },
    {
      "midi": 69,
      "hit": false,
      "t": 186912.00699999946,
      "d": 156.80537499999627,
      "v": 110
    },
    {
      "midi": 72,
      "hit": false,
      "t": 186912.00699999946,
      "d": 156.80537499999627,
      "v": 110
    },
    {
      "midi": 64,
      "hit": false,
      "t": 187539.22849999944,
      "d": 156.80537499999627,
      "v": 110
    },
    {
      "midi": 69,
      "hit": false,
      "t": 187539.22849999944,
      "d": 156.80537499999627,
      "v": 110
    },
    {
      "midi": 72,
      "hit": false,
      "t": 187539.22849999944,
      "d": 156.80537499999627,
      "v": 110
    },
    {
      "midi": 64,
      "hit": false,
      "t": 188793.67149999944,
      "d": 156.80537499999627,
      "v": 40
    },
    {
      "midi": 69,
      "hit": false,
      "t": 188793.67149999944,
      "d": 156.80537499999627,
      "v": 48
    },
    {
      "midi": 72,
      "hit": false,
      "t": 188793.67149999944,
      "d": 156.80537499999627,
      "v": 44
    },
    {
      "midi": 64,
      "hit": false,
      "t": 189107.28224999944,
      "d": 156.80537499999627,
      "v": 22
    },
    {
      "midi": 69,
      "hit": false,
      "t": 189107.28224999944,
      "d": 156.80537499999627,
      "v": 36
    },
    {
      "midi": 72,
      "hit": false,
      "t": 189107.28224999944,
      "d": 156.80537499999627,
      "v": 26
    },
    {
      "midi": 64,
      "hit": false,
      "t": 190048.11449999944,
      "d": 156.80537499999627,
      "v": 48
    },
    {
      "midi": 69,
      "hit": false,
      "t": 190048.11449999944,
      "d": 156.80537499999627,
      "v": 48
    },
    {
      "midi": 72,
      "hit": false,
      "t": 190048.11449999944,
      "d": 156.80537499999627,
      "v": 48
    },
    {
      "midi": 64,
      "hit": false,
      "t": 191302.55749999944,
      "d": 156.80537499999627,
      "v": 30
    },
    {
      "midi": 67,
      "hit": false,
      "t": 191302.55749999944,
      "d": 156.80537499999627,
      "v": 40
    },
    {
      "midi": 73,
      "hit": false,
      "t": 191302.55749999944,
      "d": 156.80537499999627,
      "v": 44
    },
    {
      "midi": 64,
      "hit": false,
      "t": 191616.16824999943,
      "d": 156.80537499999627,
      "v": 30
    },
    {
      "midi": 67,
      "hit": false,
      "t": 191616.16824999943,
      "d": 156.80537499999627,
      "v": 40
    },
    {
      "midi": 73,
      "hit": false,
      "t": 191616.16824999943,
      "d": 156.80537499999627,
      "v": 44
    },
    {
      "midi": 64,
      "hit": false,
      "t": 191929.77899999943,
      "d": 156.80537499999627,
      "v": 36
    },
    {
      "midi": 67,
      "hit": false,
      "t": 191929.77899999943,
      "d": 156.80537499999627,
      "v": 36
    },
    {
      "midi": 73,
      "hit": false,
      "t": 191929.77899999943,
      "d": 156.80537499999627,
      "v": 31
    },
    {
      "midi": 64,
      "hit": false,
      "t": 192557.0004999994,
      "d": 156.80537499999627,
      "v": 48
    },
    {
      "midi": 67,
      "hit": false,
      "t": 192557.0004999994,
      "d": 156.80537499999627,
      "v": 52
    },
    {
      "midi": 73,
      "hit": false,
      "t": 192557.0004999994,
      "d": 156.80537499999627,
      "v": 44
    },
    {
      "midi": 62,
      "hit": false,
      "t": 193811.4434999994,
      "d": 156.80537499999627,
      "v": 44
    },
    {
      "midi": 67,
      "hit": false,
      "t": 193811.4434999994,
      "d": 156.80537499999627,
      "v": 40
    },
    {
      "midi": 71,
      "hit": false,
      "t": 193811.4434999994,
      "d": 156.80537499999627,
      "v": 31
    },
    {
      "midi": 62,
      "hit": false,
      "t": 194125.0542499994,
      "d": 156.80537499999627,
      "v": 40
    },
    {
      "midi": 67,
      "hit": false,
      "t": 194125.0542499994,
      "d": 156.80537499999627,
      "v": 44
    },
    {
      "midi": 71,
      "hit": false,
      "t": 194125.0542499994,
      "d": 156.80537499999627,
      "v": 40
    },
    {
      "midi": 62,
      "hit": false,
      "t": 194438.6649999994,
      "d": 156.80537499999627,
      "v": 52
    },
    {
      "midi": 67,
      "hit": false,
      "t": 194438.6649999994,
      "d": 156.80537499999627,
      "v": 36
    },
    {
      "midi": 71,
      "hit": false,
      "t": 194438.6649999994,
      "d": 156.80537499999627,
      "v": 27
    },
    {
      "midi": 62,
      "hit": false,
      "t": 195065.88649999938,
      "d": 156.80537499999627,
      "v": 40
    },
    {
      "midi": 67,
      "hit": false,
      "t": 195065.88649999938,
      "d": 156.80537499999627,
      "v": 40
    },
    {
      "midi": 71,
      "hit": false,
      "t": 195065.88649999938,
      "d": 156.80537499999627,
      "v": 31
    },
    {
      "midi": 62,
      "hit": false,
      "t": 196320.32949999938,
      "d": 156.80537499999627,
      "v": 48
    },
    {
      "midi": 67,
      "hit": false,
      "t": 196320.32949999938,
      "d": 156.80537499999627,
      "v": 52
    },
    {
      "midi": 71,
      "hit": false,
      "t": 196320.32949999938,
      "d": 156.80537499999627,
      "v": 44
    },
    {
      "midi": 62,
      "hit": false,
      "t": 196633.94024999937,
      "d": 156.80537499999627,
      "v": 31
    },
    {
      "midi": 67,
      "hit": false,
      "t": 196633.94024999937,
      "d": 156.80537499999627,
      "v": 40
    },
    {
      "midi": 71,
      "hit": false,
      "t": 196633.94024999937,
      "d": 156.80537499999627,
      "v": 29
    },
    {
      "midi": 62,
      "hit": false,
      "t": 197574.77249999938,
      "d": 156.80537499999627,
      "v": 40
    },
    {
      "midi": 67,
      "hit": false,
      "t": 197574.77249999938,
      "d": 156.80537499999627,
      "v": 36
    },
    {
      "midi": 71,
      "hit": false,
      "t": 197574.77249999938,
      "d": 156.80537499999627,
      "v": 40
    },
    {
      "midi": 64,
      "hit": false,
      "t": 198829.21549999938,
      "d": 156.80537499999627,
      "v": 40
    },
    {
      "midi": 67,
      "hit": false,
      "t": 198829.21549999938,
      "d": 156.80537499999627,
      "v": 48
    },
    {
      "midi": 72,
      "hit": false,
      "t": 198829.21549999938,
      "d": 156.80537499999627,
      "v": 52
    },
    {
      "midi": 64,
      "hit": false,
      "t": 199142.82624999937,
      "d": 156.80537499999627,
      "v": 32
    },
    {
      "midi": 67,
      "hit": false,
      "t": 199142.82624999937,
      "d": 156.80537499999627,
      "v": 29
    },
    {
      "midi": 72,
      "hit": false,
      "t": 199142.82624999937,
      "d": 156.80537499999627,
      "v": 48
    },
    {
      "midi": 64,
      "hit": false,
      "t": 199456.43699999937,
      "d": 156.80537499999627,
      "v": 27
    },
    {
      "midi": 67,
      "hit": false,
      "t": 199456.43699999937,
      "d": 156.80537499999627,
      "v": 44
    },
    {
      "midi": 72,
      "hit": false,
      "t": 199456.43699999937,
      "d": 156.80537499999627,
      "v": 36
    },
    {
      "midi": 64,
      "hit": false,
      "t": 200083.65849999935,
      "d": 156.80537499999627,
      "v": 36
    },
    {
      "midi": 67,
      "hit": false,
      "t": 200083.65849999935,
      "d": 156.80537499999627,
      "v": 48
    },
    {
      "midi": 72,
      "hit": false,
      "t": 200083.65849999935,
      "d": 156.80537499999627,
      "v": 52
    },
    {
      "midi": 64,
      "hit": false,
      "t": 201338.10149999935,
      "d": 156.80537499999627,
      "v": 36
    },
    {
      "midi": 67,
      "hit": false,
      "t": 201338.10149999935,
      "d": 156.80537499999627,
      "v": 40
    },
    {
      "midi": 72,
      "hit": false,
      "t": 201338.10149999935,
      "d": 156.80537499999627,
      "v": 48
    },
    {
      "midi": 64,
      "hit": false,
      "t": 201651.71224999934,
      "d": 156.80537499999627,
      "v": 40
    },
    {
      "midi": 67,
      "hit": false,
      "t": 201651.71224999934,
      "d": 156.80537499999627,
      "v": 44
    },
    {
      "midi": 72,
      "hit": false,
      "t": 201651.71224999934,
      "d": 156.80537499999627,
      "v": 40
    },
    {
      "midi": 62,
      "hit": false,
      "t": 202592.54449999935,
      "d": 3332.114218749979,
      "v": 60
    },
    {
      "midi": 66,
      "hit": false,
      "t": 202749.34987499935,
      "d": 3488.9195937499753,
      "v": 52
    },
    {
      "midi": 69,
      "hit": false,
      "t": 202906.15524999934,
      "d": 3410.516906249977,
      "v": 52
    },
    {
      "midi": 74,
      "hit": false,
      "t": 203010.692166666,
      "d": 3332.114218749979,
      "v": 44
    },
    {
      "midi": 71,
      "hit": false,
      "t": 266569.1374999993,
      "d": 117.6040312499972,
      "v": 110
    },
    {
      "midi": 67,
      "hit": false,
      "t": 266569.1374999993,
      "d": 130.67114583333023,
      "v": 110
    },
    {
      "midi": 74,
      "hit": false,
      "t": 266569.1374999993,
      "d": 143.73826041666325,
      "v": 110
    },
    {
      "midi": 74,
      "hit": false,
      "t": 266882.7482499993,
      "d": 91.46980208333116,
      "v": 110
    },
    {
      "midi": 71,
      "hit": false,
      "t": 266882.7482499993,
      "d": 104.53691666666418,
      "v": 110
    },
    {
      "midi": 67,
      "hit": false,
      "t": 266882.7482499993,
      "d": 117.6040312499972,
      "v": 110
    },
    {
      "midi": 74,
      "hit": false,
      "t": 267196.3589999993,
      "d": 13.067114583333023,
      "v": 110
    },
    {
      "midi": 71,
      "hit": false,
      "t": 267196.3589999993,
      "d": 52.26845833333209,
      "v": 110
    },
    {
      "midi": 67,
      "hit": false,
      "t": 267196.3589999993,
      "d": 65.33557291666511,
      "v": 110
    },
    {
      "midi": 71,
      "hit": false,
      "t": 267823.5804999993,
      "d": 91.46980208333116,
      "v": 110
    },
    {
      "midi": 67,
      "hit": false,
      "t": 267823.5804999993,
      "d": 130.67114583333023,
      "v": 110
    },
    {
      "midi": 74,
      "hit": false,
      "t": 267823.5804999993,
      "d": 130.67114583333023,
      "v": 110
    },
    {
      "midi": 67,
      "hit": false,
      "t": 269078.02349999925,
      "d": 130.67114583333023,
      "v": 110
    },
    {
      "midi": 71,
      "hit": false,
      "t": 269078.02349999925,
      "d": 130.67114583333023,
      "v": 110
    },
    {
      "midi": 74,
      "hit": false,
      "t": 269078.02349999925,
      "d": 143.73826041666325,
      "v": 110
    },
    {
      "midi": 67,
      "hit": false,
      "t": 269391.63424999925,
      "d": 143.73826041666325,
      "v": 110
    },
    {
      "midi": 71,
      "hit": false,
      "t": 269391.63424999925,
      "d": 143.73826041666325,
      "v": 110
    },
    {
      "midi": 74,
      "hit": false,
      "t": 269391.63424999925,
      "d": 156.80537499999627,
      "v": 110
    },
    {
      "midi": 71,
      "hit": false,
      "t": 270332.4664999992,
      "d": 130.67114583333023,
      "v": 110
    },
    {
      "midi": 67,
      "hit": false,
      "t": 270332.4664999992,
      "d": 156.80537499999627,
      "v": 110
    },
    {
      "midi": 74,
      "hit": false,
      "t": 270332.4664999992,
      "d": 169.8724895833293,
      "v": 110
    },
    {
      "midi": 67,
      "hit": false,
      "t": 271586.9094999992,
      "d": 130.67114583333023,
      "v": 110
    },
    {
      "midi": 64,
      "hit": false,
      "t": 271586.9094999992,
      "d": 143.73826041666325,
      "v": 110
    },
    {
      "midi": 71,
      "hit": false,
      "t": 271586.9094999992,
      "d": 143.73826041666325,
      "v": 110
    },
    {
      "midi": 64,
      "hit": false,
      "t": 271900.5202499992,
      "d": 130.67114583333023,
      "v": 110
    },
    {
      "midi": 67,
      "hit": false,
      "t": 271900.5202499992,
      "d": 130.67114583333023,
      "v": 110
    },
    {
      "midi": 71,
      "hit": false,
      "t": 271900.5202499992,
      "d": 169.8724895833293,
      "v": 110
    },
    {
      "midi": 67,
      "hit": false,
      "t": 272841.35249999916,
      "d": 156.80537499999627,
      "v": 110
    },
    {
      "midi": 64,
      "hit": false,
      "t": 272841.35249999916,
      "d": 169.8724895833293,
      "v": 110
    },
    {
      "midi": 71,
      "hit": false,
      "t": 272841.35249999916,
      "d": 222.1409479166614,
      "v": 110
    },
    {
      "midi": 64,
      "hit": false,
      "t": 274095.79549999913,
      "d": 156.80537499999627,
      "v": 110
    },
    {
      "midi": 69,
      "hit": false,
      "t": 274095.79549999913,
      "d": 156.80537499999627,
      "v": 110
    },
    {
      "midi": 71,
      "hit": false,
      "t": 274095.79549999913,
      "d": 156.80537499999627,
      "v": 110
    },
    {
      "midi": 64,
      "hit": false,
      "t": 274409.4062499991,
      "d": 156.80537499999627,
      "v": 110
    },
    {
      "midi": 69,
      "hit": false,
      "t": 274409.4062499991,
      "d": 156.80537499999627,
      "v": 110
    },
    {
      "midi": 71,
      "hit": false,
      "t": 274409.4062499991,
      "d": 156.80537499999627,
      "v": 110
    },
    {
      "midi": 64,
      "hit": false,
      "t": 275350.2384999991,
      "d": 156.80537499999627,
      "v": 110
    },
    {
      "midi": 68,
      "hit": false,
      "t": 275350.2384999991,
      "d": 156.80537499999627,
      "v": 110
    },
    {
      "midi": 71,
      "hit": false,
      "t": 275350.2384999991,
      "d": 156.80537499999627,
      "v": 110
    },
    {
      "midi": 64,
      "hit": false,
      "t": 275977.4599999991,
      "d": 156.80537499999627,
      "v": 110
    },
    {
      "midi": 67,
      "hit": false,
      "t": 275977.4599999991,
      "d": 156.80537499999627,
      "v": 110
    },
    {
      "midi": 72,
      "hit": false,
      "t": 275977.4599999991,
      "d": 156.80537499999627,
      "v": 110
    },
    {
      "midi": 64,
      "hit": false,
      "t": 276291.0707499991,
      "d": 156.80537499999627,
      "v": 110
    },
    {
      "midi": 67,
      "hit": false,
      "t": 276291.0707499991,
      "d": 156.80537499999627,
      "v": 110
    },
    {
      "midi": 72,
      "hit": false,
      "t": 276291.0707499991,
      "d": 156.80537499999627,
      "v": 110
    },
    {
      "midi": 64,
      "hit": false,
      "t": 276604.6814999991,
      "d": 156.80537499999627,
      "v": 110
    },
    {
      "midi": 67,
      "hit": false,
      "t": 276604.6814999991,
      "d": 156.80537499999627,
      "v": 110
    },
    {
      "midi": 72,
      "hit": false,
      "t": 276604.6814999991,
      "d": 156.80537499999627,
      "v": 110
    },
    {
      "midi": 64,
      "hit": false,
      "t": 276918.29224999907,
      "d": 156.80537499999627,
      "v": 110
    },
    {
      "midi": 67,
      "hit": false,
      "t": 276918.29224999907,
      "d": 156.80537499999627,
      "v": 110
    },
    {
      "midi": 72,
      "hit": false,
      "t": 276918.29224999907,
      "d": 156.80537499999627,
      "v": 110
    },
    {
      "midi": 64,
      "hit": false,
      "t": 277231.90299999906,
      "d": 156.80537499999627,
      "v": 110
    },
    {
      "midi": 67,
      "hit": false,
      "t": 277231.90299999906,
      "d": 156.80537499999627,
      "v": 110
    },
    {
      "midi": 72,
      "hit": false,
      "t": 277231.90299999906,
      "d": 156.80537499999627,
      "v": 110
    },
    {
      "midi": 64,
      "hit": false,
      "t": 277859.12449999904,
      "d": 156.80537499999627,
      "v": 110
    },
    {
      "midi": 67,
      "hit": false,
      "t": 277859.12449999904,
      "d": 156.80537499999627,
      "v": 110
    },
    {
      "midi": 72,
      "hit": false,
      "t": 277859.12449999904,
      "d": 156.80537499999627,
      "v": 110
    },
    {
      "midi": 64,
      "hit": false,
      "t": 278486.34599999903,
      "d": 156.80537499999627,
      "v": 110
    },
    {
      "midi": 69,
      "hit": false,
      "t": 278486.34599999903,
      "d": 156.80537499999627,
      "v": 110
    },
    {
      "midi": 71,
      "hit": false,
      "t": 278486.34599999903,
      "d": 156.80537499999627,
      "v": 110
    },
    {
      "midi": 64,
      "hit": false,
      "t": 278799.956749999,
      "d": 156.80537499999627,
      "v": 110
    },
    {
      "midi": 69,
      "hit": false,
      "t": 278799.956749999,
      "d": 156.80537499999627,
      "v": 110
    },
    {
      "midi": 71,
      "hit": false,
      "t": 278799.956749999,
      "d": 156.80537499999627,
      "v": 110
    },
    {
      "midi": 64,
      "hit": false,
      "t": 279113.567499999,
      "d": 156.80537499999627,
      "v": 110
    },
    {
      "midi": 69,
      "hit": false,
      "t": 279113.567499999,
      "d": 156.80537499999627,
      "v": 110
    },
    {
      "midi": 71,
      "hit": false,
      "t": 279113.567499999,
      "d": 156.80537499999627,
      "v": 110
    },
    {
      "midi": 64,
      "hit": false,
      "t": 279427.178249999,
      "d": 156.80537499999627,
      "v": 110
    },
    {
      "midi": 69,
      "hit": false,
      "t": 279427.178249999,
      "d": 156.80537499999627,
      "v": 110
    },
    {
      "midi": 71,
      "hit": false,
      "t": 279427.178249999,
      "d": 156.80537499999627,
      "v": 110
    },
    {
      "midi": 64,
      "hit": false,
      "t": 279740.788999999,
      "d": 156.80537499999627,
      "v": 110
    },
    {
      "midi": 68,
      "hit": false,
      "t": 279740.788999999,
      "d": 156.80537499999627,
      "v": 110
    },
    {
      "midi": 71,
      "hit": false,
      "t": 279740.788999999,
      "d": 156.80537499999627,
      "v": 110
    },
    {
      "midi": 64,
      "hit": false,
      "t": 280054.399749999,
      "d": 156.80537499999627,
      "v": 110
    },
    {
      "midi": 68,
      "hit": false,
      "t": 280054.399749999,
      "d": 156.80537499999627,
      "v": 110
    },
    {
      "midi": 71,
      "hit": false,
      "t": 280054.399749999,
      "d": 156.80537499999627,
      "v": 110
    },
    {
      "midi": 64,
      "hit": false,
      "t": 280368.010499999,
      "d": 156.80537499999627,
      "v": 110
    },
    {
      "midi": 68,
      "hit": false,
      "t": 280368.010499999,
      "d": 156.80537499999627,
      "v": 110
    },
    {
      "midi": 71,
      "hit": false,
      "t": 280368.010499999,
      "d": 156.80537499999627,
      "v": 110
    },
    {
      "midi": 64,
      "hit": false,
      "t": 280681.621249999,
      "d": 156.80537499999627,
      "v": 110
    },
    {
      "midi": 68,
      "hit": false,
      "t": 280681.621249999,
      "d": 156.80537499999627,
      "v": 110
    },
    {
      "midi": 71,
      "hit": false,
      "t": 280681.621249999,
      "d": 156.80537499999627,
      "v": 110
    },
    {
      "midi": 64,
      "hit": false,
      "t": 281622.45349999896,
      "d": 156.80537499999627,
      "v": 110
    },
    {
      "midi": 69,
      "hit": false,
      "t": 281622.45349999896,
      "d": 156.80537499999627,
      "v": 110
    },
    {
      "midi": 72,
      "hit": false,
      "t": 281622.45349999896,
      "d": 156.80537499999627,
      "v": 110
    },
    {
      "midi": 64,
      "hit": false,
      "t": 281936.06424999895,
      "d": 156.80537499999627,
      "v": 110
    },
    {
      "midi": 69,
      "hit": false,
      "t": 281936.06424999895,
      "d": 156.80537499999627,
      "v": 110
    },
    {
      "midi": 72,
      "hit": false,
      "t": 281936.06424999895,
      "d": 156.80537499999627,
      "v": 110
    },
    {
      "midi": 64,
      "hit": false,
      "t": 282249.67499999894,
      "d": 156.80537499999627,
      "v": 110
    },
    {
      "midi": 69,
      "hit": false,
      "t": 282249.67499999894,
      "d": 156.80537499999627,
      "v": 110
    },
    {
      "midi": 72,
      "hit": false,
      "t": 282249.67499999894,
      "d": 156.80537499999627,
      "v": 110
    },
    {
      "midi": 64,
      "hit": false,
      "t": 282876.8964999989,
      "d": 156.80537499999627,
      "v": 110
    },
    {
      "midi": 69,
      "hit": false,
      "t": 282876.8964999989,
      "d": 156.80537499999627,
      "v": 110
    },
    {
      "midi": 72,
      "hit": false,
      "t": 282876.8964999989,
      "d": 156.80537499999627,
      "v": 110
    },
    {
      "midi": 64,
      "hit": false,
      "t": 284131.3394999989,
      "d": 156.80537499999627,
      "v": 110
    },
    {
      "midi": 69,
      "hit": false,
      "t": 284131.3394999989,
      "d": 156.80537499999627,
      "v": 110
    },
    {
      "midi": 73,
      "hit": false,
      "t": 284131.3394999989,
      "d": 156.80537499999627,
      "v": 110
    },
    {
      "midi": 64,
      "hit": false,
      "t": 284444.9502499989,
      "d": 156.80537499999627,
      "v": 110
    },
    {
      "midi": 69,
      "hit": false,
      "t": 284444.9502499989,
      "d": 156.80537499999627,
      "v": 110
    },
    {
      "midi": 73,
      "hit": false,
      "t": 284444.9502499989,
      "d": 156.80537499999627,
      "v": 110
    },
    {
      "midi": 64,
      "hit": false,
      "t": 285385.78249999887,
      "d": 156.80537499999627,
      "v": 110
    },
    {
      "midi": 69,
      "hit": false,
      "t": 285385.78249999887,
      "d": 156.80537499999627,
      "v": 110
    },
    {
      "midi": 73,
      "hit": false,
      "t": 285385.78249999887,
      "d": 156.80537499999627,
      "v": 110
    },
    {
      "midi": 62,
      "hit": false,
      "t": 286640.22549999884,
      "d": 156.80537499999627,
      "v": 110
    },
    {
      "midi": 66,
      "hit": false,
      "t": 286640.22549999884,
      "d": 156.80537499999627,
      "v": 110
    },
    {
      "midi": 69,
      "hit": false,
      "t": 286640.22549999884,
      "d": 156.80537499999627,
      "v": 110
    },
    {
      "midi": 62,
      "hit": false,
      "t": 286953.8362499988,
      "d": 156.80537499999627,
      "v": 110
    },
    {
      "midi": 66,
      "hit": false,
      "t": 286953.8362499988,
      "d": 156.80537499999627,
      "v": 110
    },
    {
      "midi": 69,
      "hit": false,
      "t": 286953.8362499988,
      "d": 156.80537499999627,
      "v": 110
    },
    {
      "midi": 62,
      "hit": false,
      "t": 287267.4469999988,
      "d": 156.80537499999627,
      "v": 110
    },
    {
      "midi": 66,
      "hit": false,
      "t": 287267.4469999988,
      "d": 156.80537499999627,
      "v": 110
    },
    {
      "midi": 69,
      "hit": false,
      "t": 287267.4469999988,
      "d": 156.80537499999627,
      "v": 110
    },
    {
      "midi": 62,
      "hit": false,
      "t": 287894.6684999988,
      "d": 156.80537499999627,
      "v": 110
    },
    {
      "midi": 66,
      "hit": false,
      "t": 287894.6684999988,
      "d": 156.80537499999627,
      "v": 110
    },
    {
      "midi": 69,
      "hit": false,
      "t": 287894.6684999988,
      "d": 156.80537499999627,
      "v": 110
    },
    {
      "midi": 62,
      "hit": false,
      "t": 289149.1114999988,
      "d": 156.80537499999627,
      "v": 110
    },
    {
      "midi": 66,
      "hit": false,
      "t": 289149.1114999988,
      "d": 156.80537499999627,
      "v": 110
    },
    {
      "midi": 69,
      "hit": false,
      "t": 289149.1114999988,
      "d": 156.80537499999627,
      "v": 110
    },
    {
      "midi": 62,
      "hit": false,
      "t": 289462.72224999877,
      "d": 156.80537499999627,
      "v": 110
    },
    {
      "midi": 66,
      "hit": false,
      "t": 289462.72224999877,
      "d": 156.80537499999627,
      "v": 110
    },
    {
      "midi": 69,
      "hit": false,
      "t": 289462.72224999877,
      "d": 156.80537499999627,
      "v": 110
    },
    {
      "midi": 62,
      "hit": false,
      "t": 290403.55449999875,
      "d": 156.80537499999627,
      "v": 110
    },
    {
      "midi": 66,
      "hit": false,
      "t": 290403.55449999875,
      "d": 156.80537499999627,
      "v": 110
    },
    {
      "midi": 69,
      "hit": false,
      "t": 290403.55449999875,
      "d": 156.80537499999627,
      "v": 110
    },
    {
      "midi": 64,
      "hit": false,
      "t": 291657.9974999987,
      "d": 156.80537499999627,
      "v": 110
    },
    {
      "midi": 67,
      "hit": false,
      "t": 291657.9974999987,
      "d": 156.80537499999627,
      "v": 110
    },
    {
      "midi": 72,
      "hit": false,
      "t": 291657.9974999987,
      "d": 156.80537499999627,
      "v": 110
    },
    {
      "midi": 64,
      "hit": false,
      "t": 291971.6082499987,
      "d": 156.80537499999627,
      "v": 110
    },
    {
      "midi": 67,
      "hit": false,
      "t": 291971.6082499987,
      "d": 156.80537499999627,
      "v": 110
    },
    {
      "midi": 72,
      "hit": false,
      "t": 291971.6082499987,
      "d": 156.80537499999627,
      "v": 110
    },
    {
      "midi": 64,
      "hit": false,
      "t": 292285.2189999987,
      "d": 156.80537499999627,
      "v": 110
    },
    {
      "midi": 67,
      "hit": false,
      "t": 292285.2189999987,
      "d": 156.80537499999627,
      "v": 110
    },
    {
      "midi": 72,
      "hit": false,
      "t": 292285.2189999987,
      "d": 156.80537499999627,
      "v": 110
    },
    {
      "midi": 64,
      "hit": false,
      "t": 292912.4404999987,
      "d": 156.80537499999627,
      "v": 110
    },
    {
      "midi": 67,
      "hit": false,
      "t": 292912.4404999987,
      "d": 156.80537499999627,
      "v": 110
    },
    {
      "midi": 72,
      "hit": false,
      "t": 292912.4404999987,
      "d": 156.80537499999627,
      "v": 110
    },
    {
      "midi": 62,
      "hit": false,
      "t": 294166.88349999866,
      "d": 156.80537499999627,
      "v": 110
    },
    {
      "midi": 66,
      "hit": false,
      "t": 294166.88349999866,
      "d": 156.80537499999627,
      "v": 110
    },
    {
      "midi": 69,
      "hit": false,
      "t": 294166.88349999866,
      "d": 156.80537499999627,
      "v": 110
    },
    {
      "midi": 62,
      "hit": false,
      "t": 294480.49424999865,
      "d": 156.80537499999627,
      "v": 110
    },
    {
      "midi": 66,
      "hit": false,
      "t": 294480.49424999865,
      "d": 156.80537499999627,
      "v": 110
    },
    {
      "midi": 69,
      "hit": false,
      "t": 294480.49424999865,
      "d": 156.80537499999627,
      "v": 110
    },
    {
      "midi": 62,
      "hit": false,
      "t": 295421.3264999986,
      "d": 156.80537499999627,
      "v": 110
    },
    {
      "midi": 66,
      "hit": false,
      "t": 295421.3264999986,
      "d": 156.80537499999627,
      "v": 110
    },
    {
      "midi": 69,
      "hit": false,
      "t": 295421.3264999986,
      "d": 156.80537499999627,
      "v": 110
    },
    {
      "midi": 67,
      "hit": false,
      "t": 296048.5479999986,
      "d": 1685.6577812500182,
      "v": 110
    },
    {
      "midi": 71,
      "hit": false,
      "t": 296048.5479999986,
      "d": 1685.6577812500182,
      "v": 110
    },
    {
      "midi": 66,
      "hit": false,
      "t": 297930.2124999986,
      "d": 561.88592708332,
      "v": 110
    },
    {
      "midi": 69,
      "hit": false,
      "t": 297930.2124999986,
      "d": 561.88592708332,
      "v": 110
    },
    {
      "midi": 66,
      "hit": false,
      "t": 298557.4339999986,
      "d": 1123.77185416664,
      "v": 110
    },
    {
      "midi": 69,
      "hit": false,
      "t": 298557.4339999986,
      "d": 1123.77185416664,
      "v": 110
    },
    {
      "midi": 64,
      "hit": false,
      "t": 299811.8769999986,
      "d": 1123.77185416664,
      "v": 110
    },
    {
      "midi": 67,
      "hit": false,
      "t": 299811.8769999986,
      "d": 1123.77185416664,
      "v": 110
    },
    {
      "midi": 64,
      "hit": false,
      "t": 301693.54149999854,
      "d": 561.88592708332,
      "v": 110
    },
    {
      "midi": 67,
      "hit": false,
      "t": 301693.54149999854,
      "d": 561.88592708332,
      "v": 110
    },
    {
      "midi": 64,
      "hit": false,
      "t": 302320.7629999985,
      "d": 561.88592708332,
      "v": 110
    },
    {
      "midi": 67,
      "hit": false,
      "t": 302320.7629999985,
      "d": 561.88592708332,
      "v": 110
    },
    {
      "midi": 67,
      "hit": false,
      "t": 302947.9844999985,
      "d": 561.88592708332,
      "v": 110
    },
    {
      "midi": 71,
      "hit": false,
      "t": 302947.9844999985,
      "d": 561.88592708332,
      "v": 110
    },
    {
      "midi": 67,
      "hit": false,
      "t": 303575.2059999985,
      "d": 561.88592708332,
      "v": 110
    },
    {
      "midi": 71,
      "hit": false,
      "t": 303575.2059999985,
      "d": 561.88592708332,
      "v": 110
    },
    {
      "midi": 67,
      "hit": false,
      "t": 304202.4274999985,
      "d": 561.88592708332,
      "v": 110
    },
    {
      "midi": 71,
      "hit": false,
      "t": 304202.4274999985,
      "d": 561.88592708332,
      "v": 110
    },
    {
      "midi": 66,
      "hit": false,
      "t": 304829.64899999846,
      "d": 561.88592708332,
      "v": 110
    },
    {
      "midi": 69,
      "hit": false,
      "t": 304829.64899999846,
      "d": 561.88592708332,
      "v": 110
    },
    {
      "midi": 62,
      "hit": false,
      "t": 305456.87049999845,
      "d": 561.88592708332,
      "v": 110
    },
    {
      "midi": 66,
      "hit": false,
      "t": 305456.87049999845,
      "d": 561.88592708332,
      "v": 110
    },
    {
      "midi": 71,
      "hit": false,
      "t": 306711.3134999984,
      "d": 117.6040312499972,
      "v": 110
    },
    {
      "midi": 67,
      "hit": false,
      "t": 306711.3134999984,
      "d": 130.67114583333023,
      "v": 110
    },
    {
      "midi": 74,
      "hit": false,
      "t": 306711.3134999984,
      "d": 143.73826041666325,
      "v": 110
    },
    {
      "midi": 74,
      "hit": false,
      "t": 307024.9242499984,
      "d": 91.46980208333116,
      "v": 110
    },
    {
      "midi": 71,
      "hit": false,
      "t": 307024.9242499984,
      "d": 104.53691666666418,
      "v": 110
    },
    {
      "midi": 67,
      "hit": false,
      "t": 307024.9242499984,
      "d": 117.6040312499972,
      "v": 110
    },
    {
      "midi": 74,
      "hit": false,
      "t": 307338.5349999984,
      "d": 13.067114583333023,
      "v": 110
    },
    {
      "midi": 71,
      "hit": false,
      "t": 307338.5349999984,
      "d": 52.26845833333209,
      "v": 110
    },
    {
      "midi": 67,
      "hit": false,
      "t": 307338.5349999984,
      "d": 65.33557291666511,
      "v": 110
    },
    {
      "midi": 71,
      "hit": false,
      "t": 307965.7564999984,
      "d": 91.46980208333116,
      "v": 110
    },
    {
      "midi": 67,
      "hit": false,
      "t": 307965.7564999984,
      "d": 130.67114583333023,
      "v": 110
    },
    {
      "midi": 74,
      "hit": false,
      "t": 307965.7564999984,
      "d": 130.67114583333023,
      "v": 110
    },
    {
      "midi": 67,
      "hit": false,
      "t": 309220.19949999836,
      "d": 130.67114583333023,
      "v": 110
    },
    {
      "midi": 71,
      "hit": false,
      "t": 309220.19949999836,
      "d": 130.67114583333023,
      "v": 110
    },
    {
      "midi": 74,
      "hit": false,
      "t": 309220.19949999836,
      "d": 143.73826041666325,
      "v": 110
    },
    {
      "midi": 67,
      "hit": false,
      "t": 309533.81024999835,
      "d": 143.73826041666325,
      "v": 110
    },
    {
      "midi": 71,
      "hit": false,
      "t": 309533.81024999835,
      "d": 143.73826041666325,
      "v": 110
    },
    {
      "midi": 74,
      "hit": false,
      "t": 309533.81024999835,
      "d": 156.80537499999627,
      "v": 110
    },
    {
      "midi": 71,
      "hit": false,
      "t": 310474.6424999983,
      "d": 130.67114583333023,
      "v": 110
    },
    {
      "midi": 67,
      "hit": false,
      "t": 310474.6424999983,
      "d": 156.80537499999627,
      "v": 110
    },
    {
      "midi": 74,
      "hit": false,
      "t": 310474.6424999983,
      "d": 169.8724895833293,
      "v": 110
    },
    {
      "midi": 67,
      "hit": false,
      "t": 311729.0854999983,
      "d": 130.67114583333023,
      "v": 110
    },
    {
      "midi": 64,
      "hit": false,
      "t": 311729.0854999983,
      "d": 143.73826041666325,
      "v": 110
    },
    {
      "midi": 71,
      "hit": false,
      "t": 311729.0854999983,
      "d": 143.73826041666325,
      "v": 110
    },
    {
      "midi": 64,
      "hit": false,
      "t": 312042.6962499983,
      "d": 130.67114583333023,
      "v": 110
    },
    {
      "midi": 67,
      "hit": false,
      "t": 312042.6962499983,
      "d": 130.67114583333023,
      "v": 110
    },
    {
      "midi": 71,
      "hit": false,
      "t": 312042.6962499983,
      "d": 169.8724895833293,
      "v": 110
    },
    {
      "midi": 67,
      "hit": false,
      "t": 312983.52849999827,
      "d": 156.80537499999627,
      "v": 110
    },
    {
      "midi": 64,
      "hit": false,
      "t": 312983.52849999827,
      "d": 169.8724895833293,
      "v": 110
    },
    {
      "midi": 71,
      "hit": false,
      "t": 312983.52849999827,
      "d": 222.1409479166614,
      "v": 110
    },
    {
      "midi": 64,
      "hit": false,
      "t": 314237.97149999824,
      "d": 156.80537499999627,
      "v": 110
    },
    {
      "midi": 69,
      "hit": false,
      "t": 314237.97149999824,
      "d": 156.80537499999627,
      "v": 110
    },
    {
      "midi": 71,
      "hit": false,
      "t": 314237.97149999824,
      "d": 156.80537499999627,
      "v": 110
    },
    {
      "midi": 64,
      "hit": false,
      "t": 314551.58224999823,
      "d": 156.80537499999627,
      "v": 110
    },
    {
      "midi": 69,
      "hit": false,
      "t": 314551.58224999823,
      "d": 156.80537499999627,
      "v": 110
    },
    {
      "midi": 71,
      "hit": false,
      "t": 314551.58224999823,
      "d": 156.80537499999627,
      "v": 110
    },
    {
      "midi": 64,
      "hit": false,
      "t": 315492.4144999982,
      "d": 156.80537499999627,
      "v": 110
    },
    {
      "midi": 68,
      "hit": false,
      "t": 315492.4144999982,
      "d": 156.80537499999627,
      "v": 110
    },
    {
      "midi": 71,
      "hit": false,
      "t": 315492.4144999982,
      "d": 156.80537499999627,
      "v": 110
    },
    {
      "midi": 64,
      "hit": false,
      "t": 316119.6359999982,
      "d": 156.80537499999627,
      "v": 110
    },
    {
      "midi": 67,
      "hit": false,
      "t": 316119.6359999982,
      "d": 156.80537499999627,
      "v": 110
    },
    {
      "midi": 72,
      "hit": false,
      "t": 316119.6359999982,
      "d": 156.80537499999627,
      "v": 110
    },
    {
      "midi": 64,
      "hit": false,
      "t": 316433.2467499982,
      "d": 156.80537499999627,
      "v": 110
    },
    {
      "midi": 67,
      "hit": false,
      "t": 316433.2467499982,
      "d": 156.80537499999627,
      "v": 110
    },
    {
      "midi": 72,
      "hit": false,
      "t": 316433.2467499982,
      "d": 156.80537499999627,
      "v": 110
    },
    {
      "midi": 64,
      "hit": false,
      "t": 316746.8574999982,
      "d": 156.80537499999627,
      "v": 110
    },
    {
      "midi": 67,
      "hit": false,
      "t": 316746.8574999982,
      "d": 156.80537499999627,
      "v": 110
    },
    {
      "midi": 72,
      "hit": false,
      "t": 316746.8574999982,
      "d": 156.80537499999627,
      "v": 110
    },
    {
      "midi": 64,
      "hit": false,
      "t": 317060.4682499982,
      "d": 156.80537499999627,
      "v": 110
    },
    {
      "midi": 67,
      "hit": false,
      "t": 317060.4682499982,
      "d": 156.80537499999627,
      "v": 110
    },
    {
      "midi": 72,
      "hit": false,
      "t": 317060.4682499982,
      "d": 156.80537499999627,
      "v": 110
    },
    {
      "midi": 64,
      "hit": false,
      "t": 317374.07899999816,
      "d": 156.80537499999627,
      "v": 110
    },
    {
      "midi": 67,
      "hit": false,
      "t": 317374.07899999816,
      "d": 156.80537499999627,
      "v": 110
    },
    {
      "midi": 72,
      "hit": false,
      "t": 317374.07899999816,
      "d": 156.80537499999627,
      "v": 110
    },
    {
      "midi": 64,
      "hit": false,
      "t": 318001.30049999815,
      "d": 156.80537499999627,
      "v": 110
    },
    {
      "midi": 67,
      "hit": false,
      "t": 318001.30049999815,
      "d": 156.80537499999627,
      "v": 110
    },
    {
      "midi": 72,
      "hit": false,
      "t": 318001.30049999815,
      "d": 156.80537499999627,
      "v": 110
    },
    {
      "midi": 64,
      "hit": false,
      "t": 318628.52199999813,
      "d": 156.80537499999627,
      "v": 110
    },
    {
      "midi": 69,
      "hit": false,
      "t": 318628.52199999813,
      "d": 156.80537499999627,
      "v": 110
    },
    {
      "midi": 71,
      "hit": false,
      "t": 318628.52199999813,
      "d": 156.80537499999627,
      "v": 110
    },
    {
      "midi": 64,
      "hit": false,
      "t": 318942.1327499981,
      "d": 156.80537499999627,
      "v": 110
    },
    {
      "midi": 69,
      "hit": false,
      "t": 318942.1327499981,
      "d": 156.80537499999627,
      "v": 110
    },
    {
      "midi": 71,
      "hit": false,
      "t": 318942.1327499981,
      "d": 156.80537499999627,
      "v": 110
    },
    {
      "midi": 64,
      "hit": false,
      "t": 319255.7434999981,
      "d": 156.80537499999627,
      "v": 110
    },
    {
      "midi": 69,
      "hit": false,
      "t": 319255.7434999981,
      "d": 156.80537499999627,
      "v": 110
    },
    {
      "midi": 71,
      "hit": false,
      "t": 319255.7434999981,
      "d": 156.80537499999627,
      "v": 110
    },
    {
      "midi": 64,
      "hit": false,
      "t": 319569.3542499981,
      "d": 156.80537499999627,
      "v": 110
    },
    {
      "midi": 69,
      "hit": false,
      "t": 319569.3542499981,
      "d": 156.80537499999627,
      "v": 110
    },
    {
      "midi": 71,
      "hit": false,
      "t": 319569.3542499981,
      "d": 156.80537499999627,
      "v": 110
    },
    {
      "midi": 64,
      "hit": false,
      "t": 319882.9649999981,
      "d": 156.80537499999627,
      "v": 110
    },
    {
      "midi": 68,
      "hit": false,
      "t": 319882.9649999981,
      "d": 156.80537499999627,
      "v": 110
    },
    {
      "midi": 71,
      "hit": false,
      "t": 319882.9649999981,
      "d": 156.80537499999627,
      "v": 110
    },
    {
      "midi": 64,
      "hit": false,
      "t": 320196.5757499981,
      "d": 156.80537499999627,
      "v": 110
    },
    {
      "midi": 68,
      "hit": false,
      "t": 320196.5757499981,
      "d": 156.80537499999627,
      "v": 110
    },
    {
      "midi": 71,
      "hit": false,
      "t": 320196.5757499981,
      "d": 156.80537499999627,
      "v": 110
    },
    {
      "midi": 64,
      "hit": false,
      "t": 320510.1864999981,
      "d": 156.80537499999627,
      "v": 110
    },
    {
      "midi": 68,
      "hit": false,
      "t": 320510.1864999981,
      "d": 156.80537499999627,
      "v": 110
    },
    {
      "midi": 71,
      "hit": false,
      "t": 320510.1864999981,
      "d": 156.80537499999627,
      "v": 110
    },
    {
      "midi": 64,
      "hit": false,
      "t": 320823.7972499981,
      "d": 156.80537499999627,
      "v": 110
    },
    {
      "midi": 68,
      "hit": false,
      "t": 320823.7972499981,
      "d": 156.80537499999627,
      "v": 110
    },
    {
      "midi": 71,
      "hit": false,
      "t": 320823.7972499981,
      "d": 156.80537499999627,
      "v": 110
    },
    {
      "midi": 64,
      "hit": false,
      "t": 321764.62949999806,
      "d": 156.80537499999627,
      "v": 110
    },
    {
      "midi": 69,
      "hit": false,
      "t": 321764.62949999806,
      "d": 156.80537499999627,
      "v": 110
    },
    {
      "midi": 72,
      "hit": false,
      "t": 321764.62949999806,
      "d": 156.80537499999627,
      "v": 110
    },
    {
      "midi": 64,
      "hit": false,
      "t": 322078.24024999805,
      "d": 156.80537499999627,
      "v": 110
    },
    {
      "midi": 69,
      "hit": false,
      "t": 322078.24024999805,
      "d": 156.80537499999627,
      "v": 110
    },
    {
      "midi": 72,
      "hit": false,
      "t": 322078.24024999805,
      "d": 156.80537499999627,
      "v": 110
    },
    {
      "midi": 64,
      "hit": false,
      "t": 322391.85099999805,
      "d": 156.80537499999627,
      "v": 110
    },
    {
      "midi": 69,
      "hit": false,
      "t": 322391.85099999805,
      "d": 156.80537499999627,
      "v": 110
    },
    {
      "midi": 72,
      "hit": false,
      "t": 322391.85099999805,
      "d": 156.80537499999627,
      "v": 110
    },
    {
      "midi": 64,
      "hit": false,
      "t": 323019.07249999803,
      "d": 156.80537499999627,
      "v": 110
    },
    {
      "midi": 69,
      "hit": false,
      "t": 323019.07249999803,
      "d": 156.80537499999627,
      "v": 110
    },
    {
      "midi": 72,
      "hit": false,
      "t": 323019.07249999803,
      "d": 156.80537499999627,
      "v": 110
    },
    {
      "midi": 64,
      "hit": false,
      "t": 324273.515499998,
      "d": 156.80537499999627,
      "v": 40
    },
    {
      "midi": 69,
      "hit": false,
      "t": 324273.515499998,
      "d": 156.80537499999627,
      "v": 48
    },
    {
      "midi": 72,
      "hit": false,
      "t": 324273.515499998,
      "d": 156.80537499999627,
      "v": 44
    },
    {
      "midi": 64,
      "hit": false,
      "t": 324587.126249998,
      "d": 156.80537499999627,
      "v": 22
    },
    {
      "midi": 69,
      "hit": false,
      "t": 324587.126249998,
      "d": 156.80537499999627,
      "v": 36
    },
    {
      "midi": 72,
      "hit": false,
      "t": 324587.126249998,
      "d": 156.80537499999627,
      "v": 26
    },
    {
      "midi": 64,
      "hit": false,
      "t": 325527.95849999797,
      "d": 156.80537499999627,
      "v": 48
    },
    {
      "midi": 69,
      "hit": false,
      "t": 325527.95849999797,
      "d": 156.80537499999627,
      "v": 48
    },
    {
      "midi": 72,
      "hit": false,
      "t": 325527.95849999797,
      "d": 156.80537499999627,
      "v": 48
    },
    {
      "midi": 64,
      "hit": false,
      "t": 326782.40149999794,
      "d": 156.80537499999627,
      "v": 30
    },
    {
      "midi": 67,
      "hit": false,
      "t": 326782.40149999794,
      "d": 156.80537499999627,
      "v": 40
    },
    {
      "midi": 73,
      "hit": false,
      "t": 326782.40149999794,
      "d": 156.80537499999627,
      "v": 44
    },
    {
      "midi": 64,
      "hit": false,
      "t": 327096.01224999793,
      "d": 156.80537499999627,
      "v": 30
    },
    {
      "midi": 67,
      "hit": false,
      "t": 327096.01224999793,
      "d": 156.80537499999627,
      "v": 40
    },
    {
      "midi": 73,
      "hit": false,
      "t": 327096.01224999793,
      "d": 156.80537499999627,
      "v": 44
    },
    {
      "midi": 64,
      "hit": false,
      "t": 327409.6229999979,
      "d": 156.80537499999627,
      "v": 36
    },
    {
      "midi": 67,
      "hit": false,
      "t": 327409.6229999979,
      "d": 156.80537499999627,
      "v": 36
    },
    {
      "midi": 73,
      "hit": false,
      "t": 327409.6229999979,
      "d": 156.80537499999627,
      "v": 31
    },
    {
      "midi": 64,
      "hit": false,
      "t": 328036.8444999979,
      "d": 156.80537499999627,
      "v": 48
    },
    {
      "midi": 67,
      "hit": false,
      "t": 328036.8444999979,
      "d": 156.80537499999627,
      "v": 52
    },
    {
      "midi": 73,
      "hit": false,
      "t": 328036.8444999979,
      "d": 156.80537499999627,
      "v": 44
    },
    {
      "midi": 62,
      "hit": false,
      "t": 329291.2874999979,
      "d": 156.80537499999627,
      "v": 44
    },
    {
      "midi": 67,
      "hit": false,
      "t": 329291.2874999979,
      "d": 156.80537499999627,
      "v": 40
    },
    {
      "midi": 71,
      "hit": false,
      "t": 329291.2874999979,
      "d": 156.80537499999627,
      "v": 31
    },
    {
      "midi": 62,
      "hit": false,
      "t": 329604.8982499979,
      "d": 156.80537499999627,
      "v": 40
    },
    {
      "midi": 67,
      "hit": false,
      "t": 329604.8982499979,
      "d": 156.80537499999627,
      "v": 44
    },
    {
      "midi": 71,
      "hit": false,
      "t": 329604.8982499979,
      "d": 156.80537499999627,
      "v": 40
    },
    {
      "midi": 62,
      "hit": false,
      "t": 329918.50899999787,
      "d": 156.80537499999627,
      "v": 52
    },
    {
      "midi": 67,
      "hit": false,
      "t": 329918.50899999787,
      "d": 156.80537499999627,
      "v": 36
    },
    {
      "midi": 71,
      "hit": false,
      "t": 329918.50899999787,
      "d": 156.80537499999627,
      "v": 27
    },
    {
      "midi": 62,
      "hit": false,
      "t": 330545.73049999785,
      "d": 156.80537499999627,
      "v": 40
    },
    {
      "midi": 67,
      "hit": false,
      "t": 330545.73049999785,
      "d": 156.80537499999627,
      "v": 40
    },
    {
      "midi": 71,
      "hit": false,
      "t": 330545.73049999785,
      "d": 156.80537499999627,
      "v": 31
    },
    {
      "midi": 62,
      "hit": false,
      "t": 331800.1734999978,
      "d": 156.80537499999627,
      "v": 48
    },
    {
      "midi": 67,
      "hit": false,
      "t": 331800.1734999978,
      "d": 156.80537499999627,
      "v": 52
    },
    {
      "midi": 71,
      "hit": false,
      "t": 331800.1734999978,
      "d": 156.80537499999627,
      "v": 44
    },
    {
      "midi": 62,
      "hit": false,
      "t": 332113.7842499978,
      "d": 156.80537499999627,
      "v": 31
    },
    {
      "midi": 67,
      "hit": false,
      "t": 332113.7842499978,
      "d": 156.80537499999627,
      "v": 40
    },
    {
      "midi": 71,
      "hit": false,
      "t": 332113.7842499978,
      "d": 156.80537499999627,
      "v": 29
    },
    {
      "midi": 62,
      "hit": false,
      "t": 333054.6164999978,
      "d": 156.80537499999627,
      "v": 40
    },
    {
      "midi": 67,
      "hit": false,
      "t": 333054.6164999978,
      "d": 156.80537499999627,
      "v": 36
    },
    {
      "midi": 71,
      "hit": false,
      "t": 333054.6164999978,
      "d": 156.80537499999627,
      "v": 40
    },
    {
      "midi": 64,
      "hit": false,
      "t": 334309.05949999776,
      "d": 156.80537499999627,
      "v": 40
    },
    {
      "midi": 67,
      "hit": false,
      "t": 334309.05949999776,
      "d": 156.80537499999627,
      "v": 48
    },
    {
      "midi": 72,
      "hit": false,
      "t": 334309.05949999776,
      "d": 156.80537499999627,
      "v": 52
    },
    {
      "midi": 64,
      "hit": false,
      "t": 334622.67024999775,
      "d": 156.80537499999627,
      "v": 32
    },
    {
      "midi": 67,
      "hit": false,
      "t": 334622.67024999775,
      "d": 156.80537499999627,
      "v": 29
    },
    {
      "midi": 72,
      "hit": false,
      "t": 334622.67024999775,
      "d": 156.80537499999627,
      "v": 48
    },
    {
      "midi": 64,
      "hit": false,
      "t": 334936.28099999775,
      "d": 156.80537499999627,
      "v": 27
    },
    {
      "midi": 67,
      "hit": false,
      "t": 334936.28099999775,
      "d": 156.80537499999627,
      "v": 44
    },
    {
      "midi": 72,
      "hit": false,
      "t": 334936.28099999775,
      "d": 156.80537499999627,
      "v": 36
    },
    {
      "midi": 64,
      "hit": false,
      "t": 335563.50249999773,
      "d": 156.80537499999627,
      "v": 36
    },
    {
      "midi": 67,
      "hit": false,
      "t": 335563.50249999773,
      "d": 156.80537499999627,
      "v": 48
    },
    {
      "midi": 72,
      "hit": false,
      "t": 335563.50249999773,
      "d": 156.80537499999627,
      "v": 52
    },
    {
      "midi": 64,
      "hit": false,
      "t": 336817.9454999977,
      "d": 156.80537499999627,
      "v": 36
    },
    {
      "midi": 67,
      "hit": false,
      "t": 336817.9454999977,
      "d": 156.80537499999627,
      "v": 40
    },
    {
      "midi": 72,
      "hit": false,
      "t": 336817.9454999977,
      "d": 156.80537499999627,
      "v": 48
    },
    {
      "midi": 64,
      "hit": false,
      "t": 337131.5562499977,
      "d": 156.80537499999627,
      "v": 40
    },
    {
      "midi": 67,
      "hit": false,
      "t": 337131.5562499977,
      "d": 156.80537499999627,
      "v": 44
    },
    {
      "midi": 72,
      "hit": false,
      "t": 337131.5562499977,
      "d": 156.80537499999627,
      "v": 40
    },
    {
      "midi": 62,
      "hit": false,
      "t": 338072.3884999977,
      "d": 3332.114218749979,
      "v": 60
    },
    {
      "midi": 66,
      "hit": false,
      "t": 338229.19387499767,
      "d": 3488.9195937499753,
      "v": 52
    },
    {
      "midi": 69,
      "hit": false,
      "t": 338385.99924999767,
      "d": 3410.516906249977,
      "v": 52
    },
    {
      "midi": 74,
      "hit": false,
      "t": 338490.53616666433,
      "d": 3332.114218749979,
      "v": 44
    },
    {
      "midi": 71,
      "hit": false,
      "t": 344344.60349999764,
      "d": 117.6040312499972,
      "v": 110
    },
    {
      "midi": 67,
      "hit": false,
      "t": 344344.60349999764,
      "d": 130.67114583333023,
      "v": 110
    },
    {
      "midi": 74,
      "hit": false,
      "t": 344344.60349999764,
      "d": 143.73826041666325,
      "v": 110
    },
    {
      "midi": 74,
      "hit": false,
      "t": 344658.21424999763,
      "d": 91.46980208333116,
      "v": 110
    },
    {
      "midi": 71,
      "hit": false,
      "t": 344658.21424999763,
      "d": 104.53691666666418,
      "v": 110
    },
    {
      "midi": 67,
      "hit": false,
      "t": 344658.21424999763,
      "d": 117.6040312499972,
      "v": 110
    },
    {
      "midi": 74,
      "hit": false,
      "t": 344971.8249999976,
      "d": 13.067114583333023,
      "v": 110
    },
    {
      "midi": 71,
      "hit": false,
      "t": 344971.8249999976,
      "d": 52.26845833333209,
      "v": 110
    },
    {
      "midi": 67,
      "hit": false,
      "t": 344971.8249999976,
      "d": 65.33557291666511,
      "v": 110
    },
    {
      "midi": 71,
      "hit": false,
      "t": 345599.0464999976,
      "d": 91.46980208333116,
      "v": 110
    },
    {
      "midi": 67,
      "hit": false,
      "t": 345599.0464999976,
      "d": 130.67114583333023,
      "v": 110
    },
    {
      "midi": 74,
      "hit": false,
      "t": 345599.0464999976,
      "d": 130.67114583333023,
      "v": 110
    },
    {
      "midi": 67,
      "hit": false,
      "t": 346853.4894999976,
      "d": 130.67114583333023,
      "v": 110
    },
    {
      "midi": 71,
      "hit": false,
      "t": 346853.4894999976,
      "d": 130.67114583333023,
      "v": 110
    },
    {
      "midi": 74,
      "hit": false,
      "t": 346853.4894999976,
      "d": 143.73826041666325,
      "v": 110
    },
    {
      "midi": 67,
      "hit": false,
      "t": 347167.1002499976,
      "d": 143.73826041666325,
      "v": 110
    },
    {
      "midi": 71,
      "hit": false,
      "t": 347167.1002499976,
      "d": 143.73826041666325,
      "v": 110
    },
    {
      "midi": 74,
      "hit": false,
      "t": 347167.1002499976,
      "d": 156.80537499999627,
      "v": 110
    },
    {
      "midi": 71,
      "hit": false,
      "t": 348107.93249999755,
      "d": 130.67114583333023,
      "v": 110
    },
    {
      "midi": 67,
      "hit": false,
      "t": 348107.93249999755,
      "d": 156.80537499999627,
      "v": 110
    },
    {
      "midi": 74,
      "hit": false,
      "t": 348107.93249999755,
      "d": 169.8724895833293,
      "v": 110
    },
    {
      "midi": 67,
      "hit": false,
      "t": 349362.3754999975,
      "d": 130.67114583333023,
      "v": 110
    },
    {
      "midi": 64,
      "hit": false,
      "t": 349362.3754999975,
      "d": 143.73826041666325,
      "v": 110
    },
    {
      "midi": 71,
      "hit": false,
      "t": 349362.3754999975,
      "d": 143.73826041666325,
      "v": 110
    },
    {
      "midi": 64,
      "hit": false,
      "t": 349675.9862499975,
      "d": 130.67114583333023,
      "v": 110
    },
    {
      "midi": 67,
      "hit": false,
      "t": 349675.9862499975,
      "d": 130.67114583333023,
      "v": 110
    },
    {
      "midi": 71,
      "hit": false,
      "t": 349675.9862499975,
      "d": 169.8724895833293,
      "v": 110
    },
    {
      "midi": 67,
      "hit": false,
      "t": 350616.8184999975,
      "d": 156.80537499999627,
      "v": 110
    },
    {
      "midi": 64,
      "hit": false,
      "t": 350616.8184999975,
      "d": 169.8724895833293,
      "v": 110
    },
    {
      "midi": 71,
      "hit": false,
      "t": 350616.8184999975,
      "d": 222.1409479166614,
      "v": 110
    },
    {
      "midi": 64,
      "hit": false,
      "t": 351871.26149999746,
      "d": 156.80537499999627,
      "v": 110
    },
    {
      "midi": 69,
      "hit": false,
      "t": 351871.26149999746,
      "d": 156.80537499999627,
      "v": 110
    },
    {
      "midi": 71,
      "hit": false,
      "t": 351871.26149999746,
      "d": 156.80537499999627,
      "v": 110
    },
    {
      "midi": 64,
      "hit": false,
      "t": 352184.87224999745,
      "d": 156.80537499999627,
      "v": 110
    },
    {
      "midi": 69,
      "hit": false,
      "t": 352184.87224999745,
      "d": 156.80537499999627,
      "v": 110
    },
    {
      "midi": 71,
      "hit": false,
      "t": 352184.87224999745,
      "d": 156.80537499999627,
      "v": 110
    },
    {
      "midi": 64,
      "hit": false,
      "t": 353125.70449999743,
      "d": 156.80537499999627,
      "v": 110
    },
    {
      "midi": 68,
      "hit": false,
      "t": 353125.70449999743,
      "d": 156.80537499999627,
      "v": 110
    },
    {
      "midi": 71,
      "hit": false,
      "t": 353125.70449999743,
      "d": 156.80537499999627,
      "v": 110
    },
    {
      "midi": 64,
      "hit": false,
      "t": 353752.9259999974,
      "d": 156.80537499999627,
      "v": 110
    },
    {
      "midi": 67,
      "hit": false,
      "t": 353752.9259999974,
      "d": 156.80537499999627,
      "v": 110
    },
    {
      "midi": 72,
      "hit": false,
      "t": 353752.9259999974,
      "d": 156.80537499999627,
      "v": 110
    },
    {
      "midi": 64,
      "hit": false,
      "t": 354066.5367499974,
      "d": 156.80537499999627,
      "v": 110
    },
    {
      "midi": 67,
      "hit": false,
      "t": 354066.5367499974,
      "d": 156.80537499999627,
      "v": 110
    },
    {
      "midi": 72,
      "hit": false,
      "t": 354066.5367499974,
      "d": 156.80537499999627,
      "v": 110
    },
    {
      "midi": 64,
      "hit": false,
      "t": 354380.1474999974,
      "d": 156.80537499999627,
      "v": 110
    },
    {
      "midi": 67,
      "hit": false,
      "t": 354380.1474999974,
      "d": 156.80537499999627,
      "v": 110
    },
    {
      "midi": 72,
      "hit": false,
      "t": 354380.1474999974,
      "d": 156.80537499999627,
      "v": 110
    },
    {
      "midi": 64,
      "hit": false,
      "t": 354693.7582499974,
      "d": 156.80537499999627,
      "v": 110
    },
    {
      "midi": 67,
      "hit": false,
      "t": 354693.7582499974,
      "d": 156.80537499999627,
      "v": 110
    },
    {
      "midi": 72,
      "hit": false,
      "t": 354693.7582499974,
      "d": 156.80537499999627,
      "v": 110
    },
    {
      "midi": 64,
      "hit": false,
      "t": 355007.3689999974,
      "d": 156.80537499999627,
      "v": 110
    },
    {
      "midi": 67,
      "hit": false,
      "t": 355007.3689999974,
      "d": 156.80537499999627,
      "v": 110
    },
    {
      "midi": 72,
      "hit": false,
      "t": 355007.3689999974,
      "d": 156.80537499999627,
      "v": 110
    },
    {
      "midi": 64,
      "hit": false,
      "t": 355634.5904999974,
      "d": 156.80537499999627,
      "v": 110
    },
    {
      "midi": 67,
      "hit": false,
      "t": 355634.5904999974,
      "d": 156.80537499999627,
      "v": 110
    },
    {
      "midi": 72,
      "hit": false,
      "t": 355634.5904999974,
      "d": 156.80537499999627,
      "v": 110
    },
    {
      "midi": 64,
      "hit": false,
      "t": 356261.81199999736,
      "d": 156.80537499999627,
      "v": 110
    },
    {
      "midi": 69,
      "hit": false,
      "t": 356261.81199999736,
      "d": 156.80537499999627,
      "v": 110
    },
    {
      "midi": 71,
      "hit": false,
      "t": 356261.81199999736,
      "d": 156.80537499999627,
      "v": 110
    },
    {
      "midi": 64,
      "hit": false,
      "t": 356575.42274999735,
      "d": 156.80537499999627,
      "v": 110
    },
    {
      "midi": 69,
      "hit": false,
      "t": 356575.42274999735,
      "d": 156.80537499999627,
      "v": 110
    },
    {
      "midi": 71,
      "hit": false,
      "t": 356575.42274999735,
      "d": 156.80537499999627,
      "v": 110
    },
    {
      "midi": 64,
      "hit": false,
      "t": 356889.03349999734,
      "d": 156.80537499999627,
      "v": 110
    },
    {
      "midi": 69,
      "hit": false,
      "t": 356889.03349999734,
      "d": 156.80537499999627,
      "v": 110
    },
    {
      "midi": 71,
      "hit": false,
      "t": 356889.03349999734,
      "d": 156.80537499999627,
      "v": 110
    },
    {
      "midi": 64,
      "hit": false,
      "t": 357202.64424999733,
      "d": 156.80537499999627,
      "v": 110
    },
    {
      "midi": 69,
      "hit": false,
      "t": 357202.64424999733,
      "d": 156.80537499999627,
      "v": 110
    },
    {
      "midi": 71,
      "hit": false,
      "t": 357202.64424999733,
      "d": 156.80537499999627,
      "v": 110
    },
    {
      "midi": 64,
      "hit": false,
      "t": 357516.2549999973,
      "d": 156.80537499999627,
      "v": 110
    },
    {
      "midi": 68,
      "hit": false,
      "t": 357516.2549999973,
      "d": 156.80537499999627,
      "v": 110
    },
    {
      "midi": 71,
      "hit": false,
      "t": 357516.2549999973,
      "d": 156.80537499999627,
      "v": 110
    },
    {
      "midi": 64,
      "hit": false,
      "t": 357829.8657499973,
      "d": 156.80537499999627,
      "v": 110
    },
    {
      "midi": 68,
      "hit": false,
      "t": 357829.8657499973,
      "d": 156.80537499999627,
      "v": 110
    },
    {
      "midi": 71,
      "hit": false,
      "t": 357829.8657499973,
      "d": 156.80537499999627,
      "v": 110
    },
    {
      "midi": 64,
      "hit": false,
      "t": 358143.4764999973,
      "d": 156.80537499999627,
      "v": 110
    },
    {
      "midi": 68,
      "hit": false,
      "t": 358143.4764999973,
      "d": 156.80537499999627,
      "v": 110
    },
    {
      "midi": 71,
      "hit": false,
      "t": 358143.4764999973,
      "d": 156.80537499999627,
      "v": 110
    },
    {
      "midi": 64,
      "hit": false,
      "t": 358457.0872499973,
      "d": 156.80537499999627,
      "v": 110
    },
    {
      "midi": 68,
      "hit": false,
      "t": 358457.0872499973,
      "d": 156.80537499999627,
      "v": 110
    },
    {
      "midi": 71,
      "hit": false,
      "t": 358457.0872499973,
      "d": 156.80537499999627,
      "v": 110
    },
    {
      "midi": 64,
      "hit": false,
      "t": 359397.9194999973,
      "d": 156.80537499999627,
      "v": 110
    },
    {
      "midi": 69,
      "hit": false,
      "t": 359397.9194999973,
      "d": 156.80537499999627,
      "v": 110
    },
    {
      "midi": 72,
      "hit": false,
      "t": 359397.9194999973,
      "d": 156.80537499999627,
      "v": 110
    },
    {
      "midi": 64,
      "hit": false,
      "t": 359711.5302499973,
      "d": 156.80537499999627,
      "v": 110
    },
    {
      "midi": 69,
      "hit": false,
      "t": 359711.5302499973,
      "d": 156.80537499999627,
      "v": 110
    },
    {
      "midi": 72,
      "hit": false,
      "t": 359711.5302499973,
      "d": 156.80537499999627,
      "v": 110
    },
    {
      "midi": 64,
      "hit": false,
      "t": 360025.14099999727,
      "d": 156.80537499999627,
      "v": 110
    },
    {
      "midi": 69,
      "hit": false,
      "t": 360025.14099999727,
      "d": 156.80537499999627,
      "v": 110
    },
    {
      "midi": 72,
      "hit": false,
      "t": 360025.14099999727,
      "d": 156.80537499999627,
      "v": 110
    },
    {
      "midi": 64,
      "hit": false,
      "t": 360652.36249999725,
      "d": 156.80537499999627,
      "v": 110
    },
    {
      "midi": 69,
      "hit": false,
      "t": 360652.36249999725,
      "d": 156.80537499999627,
      "v": 110
    },
    {
      "midi": 72,
      "hit": false,
      "t": 360652.36249999725,
      "d": 156.80537499999627,
      "v": 110
    },
    {
      "midi": 64,
      "hit": false,
      "t": 361906.8054999972,
      "d": 156.80537499999627,
      "v": 110
    },
    {
      "midi": 69,
      "hit": false,
      "t": 361906.8054999972,
      "d": 156.80537499999627,
      "v": 110
    },
    {
      "midi": 73,
      "hit": false,
      "t": 361906.8054999972,
      "d": 156.80537499999627,
      "v": 110
    },
    {
      "midi": 64,
      "hit": false,
      "t": 362220.4162499972,
      "d": 156.80537499999627,
      "v": 110
    },
    {
      "midi": 69,
      "hit": false,
      "t": 362220.4162499972,
      "d": 156.80537499999627,
      "v": 110
    },
    {
      "midi": 73,
      "hit": false,
      "t": 362220.4162499972,
      "d": 156.80537499999627,
      "v": 110
    },
    {
      "midi": 64,
      "hit": false,
      "t": 363161.2484999972,
      "d": 156.80537499999627,
      "v": 110
    },
    {
      "midi": 69,
      "hit": false,
      "t": 363161.2484999972,
      "d": 156.80537499999627,
      "v": 110
    },
    {
      "midi": 73,
      "hit": false,
      "t": 363161.2484999972,
      "d": 156.80537499999627,
      "v": 110
    },
    {
      "midi": 62,
      "hit": false,
      "t": 364415.69149999716,
      "d": 156.80537499999627,
      "v": 110
    },
    {
      "midi": 66,
      "hit": false,
      "t": 364415.69149999716,
      "d": 156.80537499999627,
      "v": 110
    },
    {
      "midi": 69,
      "hit": false,
      "t": 364415.69149999716,
      "d": 156.80537499999627,
      "v": 110
    },
    {
      "midi": 62,
      "hit": false,
      "t": 364729.30224999716,
      "d": 156.80537499999627,
      "v": 110
    },
    {
      "midi": 66,
      "hit": false,
      "t": 364729.30224999716,
      "d": 156.80537499999627,
      "v": 110
    },
    {
      "midi": 69,
      "hit": false,
      "t": 364729.30224999716,
      "d": 156.80537499999627,
      "v": 110
    },
    {
      "midi": 62,
      "hit": false,
      "t": 365042.91299999715,
      "d": 156.80537499999627,
      "v": 110
    },
    {
      "midi": 66,
      "hit": false,
      "t": 365042.91299999715,
      "d": 156.80537499999627,
      "v": 110
    },
    {
      "midi": 69,
      "hit": false,
      "t": 365042.91299999715,
      "d": 156.80537499999627,
      "v": 110
    },
    {
      "midi": 62,
      "hit": false,
      "t": 365670.13449999713,
      "d": 156.80537499999627,
      "v": 110
    },
    {
      "midi": 66,
      "hit": false,
      "t": 365670.13449999713,
      "d": 156.80537499999627,
      "v": 110
    },
    {
      "midi": 69,
      "hit": false,
      "t": 365670.13449999713,
      "d": 156.80537499999627,
      "v": 110
    },
    {
      "midi": 62,
      "hit": false,
      "t": 366924.5774999971,
      "d": 156.80537499999627,
      "v": 110
    },
    {
      "midi": 66,
      "hit": false,
      "t": 366924.5774999971,
      "d": 156.80537499999627,
      "v": 110
    },
    {
      "midi": 69,
      "hit": false,
      "t": 366924.5774999971,
      "d": 156.80537499999627,
      "v": 110
    },
    {
      "midi": 62,
      "hit": false,
      "t": 367238.1882499971,
      "d": 156.80537499999627,
      "v": 110
    },
    {
      "midi": 66,
      "hit": false,
      "t": 367238.1882499971,
      "d": 156.80537499999627,
      "v": 110
    },
    {
      "midi": 69,
      "hit": false,
      "t": 367238.1882499971,
      "d": 156.80537499999627,
      "v": 110
    },
    {
      "midi": 62,
      "hit": false,
      "t": 368179.0204999971,
      "d": 156.80537499999627,
      "v": 110
    },
    {
      "midi": 66,
      "hit": false,
      "t": 368179.0204999971,
      "d": 156.80537499999627,
      "v": 110
    },
    {
      "midi": 69,
      "hit": false,
      "t": 368179.0204999971,
      "d": 156.80537499999627,
      "v": 110
    },
    {
      "midi": 64,
      "hit": false,
      "t": 369433.46349999704,
      "d": 156.80537499999627,
      "v": 110
    },
    {
      "midi": 67,
      "hit": false,
      "t": 369433.46349999704,
      "d": 156.80537499999627,
      "v": 110
    },
    {
      "midi": 72,
      "hit": false,
      "t": 369433.46349999704,
      "d": 156.80537499999627,
      "v": 110
    },
    {
      "midi": 64,
      "hit": false,
      "t": 369747.07424999704,
      "d": 156.80537499999627,
      "v": 110
    },
    {
      "midi": 67,
      "hit": false,
      "t": 369747.07424999704,
      "d": 156.80537499999627,
      "v": 110
    },
    {
      "midi": 72,
      "hit": false,
      "t": 369747.07424999704,
      "d": 156.80537499999627,
      "v": 110
    },
    {
      "midi": 64,
      "hit": false,
      "t": 370060.684999997,
      "d": 156.80537499999627,
      "v": 110
    },
    {
      "midi": 67,
      "hit": false,
      "t": 370060.684999997,
      "d": 156.80537499999627,
      "v": 110
    },
    {
      "midi": 72,
      "hit": false,
      "t": 370060.684999997,
      "d": 156.80537499999627,
      "v": 110
    },
    {
      "midi": 64,
      "hit": false,
      "t": 370687.906499997,
      "d": 156.80537499999627,
      "v": 110
    },
    {
      "midi": 67,
      "hit": false,
      "t": 370687.906499997,
      "d": 156.80537499999627,
      "v": 110
    },
    {
      "midi": 72,
      "hit": false,
      "t": 370687.906499997,
      "d": 156.80537499999627,
      "v": 110
    },
    {
      "midi": 62,
      "hit": false,
      "t": 371942.349499997,
      "d": 156.80537499999627,
      "v": 110
    },
    {
      "midi": 66,
      "hit": false,
      "t": 371942.349499997,
      "d": 156.80537499999627,
      "v": 110
    },
    {
      "midi": 69,
      "hit": false,
      "t": 371942.349499997,
      "d": 156.80537499999627,
      "v": 110
    },
    {
      "midi": 62,
      "hit": false,
      "t": 372255.960249997,
      "d": 156.80537499999627,
      "v": 110
    },
    {
      "midi": 66,
      "hit": false,
      "t": 372255.960249997,
      "d": 156.80537499999627,
      "v": 110
    },
    {
      "midi": 69,
      "hit": false,
      "t": 372255.960249997,
      "d": 156.80537499999627,
      "v": 110
    },
    {
      "midi": 62,
      "hit": false,
      "t": 373196.79249999695,
      "d": 156.80537499999627,
      "v": 110
    },
    {
      "midi": 66,
      "hit": false,
      "t": 373196.79249999695,
      "d": 156.80537499999627,
      "v": 110
    },
    {
      "midi": 69,
      "hit": false,
      "t": 373196.79249999695,
      "d": 156.80537499999627,
      "v": 110
    },
    {
      "midi": 67,
      "hit": false,
      "t": 373824.01399999694,
      "d": 1685.6577812500182,
      "v": 110
    },
    {
      "midi": 71,
      "hit": false,
      "t": 373824.01399999694,
      "d": 1685.6577812500182,
      "v": 110
    },
    {
      "midi": 66,
      "hit": false,
      "t": 375705.67849999695,
      "d": 561.88592708332,
      "v": 110
    },
    {
      "midi": 69,
      "hit": false,
      "t": 375705.67849999695,
      "d": 561.88592708332,
      "v": 110
    },
    {
      "midi": 66,
      "hit": false,
      "t": 376332.89999999694,
      "d": 1123.77185416664,
      "v": 110
    },
    {
      "midi": 69,
      "hit": false,
      "t": 376332.89999999694,
      "d": 1123.77185416664,
      "v": 110
    },
    {
      "midi": 64,
      "hit": false,
      "t": 377587.3429999969,
      "d": 1123.77185416664,
      "v": 110
    },
    {
      "midi": 67,
      "hit": false,
      "t": 377587.3429999969,
      "d": 1123.77185416664,
      "v": 110
    },
    {
      "midi": 64,
      "hit": false,
      "t": 379469.00749999686,
      "d": 561.88592708332,
      "v": 110
    },
    {
      "midi": 67,
      "hit": false,
      "t": 379469.00749999686,
      "d": 561.88592708332,
      "v": 110
    },
    {
      "midi": 64,
      "hit": false,
      "t": 380096.22899999685,
      "d": 561.88592708332,
      "v": 110
    },
    {
      "midi": 67,
      "hit": false,
      "t": 380096.22899999685,
      "d": 561.88592708332,
      "v": 110
    },
    {
      "midi": 67,
      "hit": false,
      "t": 380723.45049999683,
      "d": 561.88592708332,
      "v": 110
    },
    {
      "midi": 71,
      "hit": false,
      "t": 380723.45049999683,
      "d": 561.88592708332,
      "v": 110
    },
    {
      "midi": 67,
      "hit": false,
      "t": 381350.6719999968,
      "d": 561.88592708332,
      "v": 110
    },
    {
      "midi": 71,
      "hit": false,
      "t": 381350.6719999968,
      "d": 561.88592708332,
      "v": 110
    },
    {
      "midi": 67,
      "hit": false,
      "t": 381977.8934999968,
      "d": 561.88592708332,
      "v": 110
    },
    {
      "midi": 71,
      "hit": false,
      "t": 381977.8934999968,
      "d": 561.88592708332,
      "v": 110
    },
    {
      "midi": 66,
      "hit": false,
      "t": 382605.1149999968,
      "d": 561.88592708332,
      "v": 110
    },
    {
      "midi": 69,
      "hit": false,
      "t": 382605.1149999968,
      "d": 561.88592708332,
      "v": 110
    },
    {
      "midi": 62,
      "hit": false,
      "t": 383232.3364999968,
      "d": 561.88592708332,
      "v": 110
    },
    {
      "midi": 66,
      "hit": false,
      "t": 383232.3364999968,
      "d": 561.88592708332,
      "v": 110
    },
    {
      "midi": 71,
      "hit": false,
      "t": 384486.77949999674,
      "d": 117.6040312499972,
      "v": 110
    },
    {
      "midi": 67,
      "hit": false,
      "t": 384486.77949999674,
      "d": 130.67114583333023,
      "v": 110
    },
    {
      "midi": 74,
      "hit": false,
      "t": 384486.77949999674,
      "d": 143.73826041666325,
      "v": 110
    },
    {
      "midi": 74,
      "hit": false,
      "t": 384800.39024999674,
      "d": 91.46980208333116,
      "v": 110
    },
    {
      "midi": 71,
      "hit": false,
      "t": 384800.39024999674,
      "d": 104.53691666666418,
      "v": 110
    },
    {
      "midi": 67,
      "hit": false,
      "t": 384800.39024999674,
      "d": 117.6040312499972,
      "v": 110
    },
    {
      "midi": 74,
      "hit": false,
      "t": 385114.00099999673,
      "d": 13.067114583333023,
      "v": 110
    },
    {
      "midi": 71,
      "hit": false,
      "t": 385114.00099999673,
      "d": 52.26845833333209,
      "v": 110
    },
    {
      "midi": 67,
      "hit": false,
      "t": 385114.00099999673,
      "d": 65.33557291666511,
      "v": 110
    },
    {
      "midi": 71,
      "hit": false,
      "t": 385741.2224999967,
      "d": 91.46980208333116,
      "v": 110
    },
    {
      "midi": 67,
      "hit": false,
      "t": 385741.2224999967,
      "d": 130.67114583333023,
      "v": 110
    },
    {
      "midi": 74,
      "hit": false,
      "t": 385741.2224999967,
      "d": 130.67114583333023,
      "v": 110
    },
    {
      "midi": 67,
      "hit": false,
      "t": 386995.6654999967,
      "d": 130.67114583333023,
      "v": 110
    },
    {
      "midi": 71,
      "hit": false,
      "t": 386995.6654999967,
      "d": 130.67114583333023,
      "v": 110
    },
    {
      "midi": 74,
      "hit": false,
      "t": 386995.6654999967,
      "d": 143.73826041666325,
      "v": 110
    },
    {
      "midi": 67,
      "hit": false,
      "t": 387309.2762499967,
      "d": 143.73826041666325,
      "v": 110
    },
    {
      "midi": 71,
      "hit": false,
      "t": 387309.2762499967,
      "d": 143.73826041666325,
      "v": 110
    },
    {
      "midi": 74,
      "hit": false,
      "t": 387309.2762499967,
      "d": 156.80537499999627,
      "v": 110
    },
    {
      "midi": 71,
      "hit": false,
      "t": 388250.10849999666,
      "d": 130.67114583333023,
      "v": 110
    },
    {
      "midi": 67,
      "hit": false,
      "t": 388250.10849999666,
      "d": 156.80537499999627,
      "v": 110
    },
    {
      "midi": 74,
      "hit": false,
      "t": 388250.10849999666,
      "d": 169.8724895833293,
      "v": 110
    },
    {
      "midi": 67,
      "hit": false,
      "t": 389504.5514999966,
      "d": 130.67114583333023,
      "v": 110
    },
    {
      "midi": 64,
      "hit": false,
      "t": 389504.5514999966,
      "d": 143.73826041666325,
      "v": 110
    },
    {
      "midi": 71,
      "hit": false,
      "t": 389504.5514999966,
      "d": 143.73826041666325,
      "v": 110
    },
    {
      "midi": 64,
      "hit": false,
      "t": 389818.1622499966,
      "d": 130.67114583333023,
      "v": 110
    },
    {
      "midi": 67,
      "hit": false,
      "t": 389818.1622499966,
      "d": 130.67114583333023,
      "v": 110
    },
    {
      "midi": 71,
      "hit": false,
      "t": 389818.1622499966,
      "d": 169.8724895833293,
      "v": 110
    },
    {
      "midi": 67,
      "hit": false,
      "t": 390758.9944999966,
      "d": 156.80537499999627,
      "v": 110
    },
    {
      "midi": 64,
      "hit": false,
      "t": 390758.9944999966,
      "d": 169.8724895833293,
      "v": 110
    },
    {
      "midi": 71,
      "hit": false,
      "t": 390758.9944999966,
      "d": 222.1409479166614,
      "v": 110
    },
    {
      "midi": 64,
      "hit": false,
      "t": 392013.43749999657,
      "d": 156.80537499999627,
      "v": 110
    },
    {
      "midi": 69,
      "hit": false,
      "t": 392013.43749999657,
      "d": 156.80537499999627,
      "v": 110
    },
    {
      "midi": 71,
      "hit": false,
      "t": 392013.43749999657,
      "d": 156.80537499999627,
      "v": 110
    },
    {
      "midi": 64,
      "hit": false,
      "t": 392327.04824999656,
      "d": 156.80537499999627,
      "v": 110
    },
    {
      "midi": 69,
      "hit": false,
      "t": 392327.04824999656,
      "d": 156.80537499999627,
      "v": 110
    },
    {
      "midi": 71,
      "hit": false,
      "t": 392327.04824999656,
      "d": 156.80537499999627,
      "v": 110
    },
    {
      "midi": 64,
      "hit": false,
      "t": 393267.88049999654,
      "d": 156.80537499999627,
      "v": 110
    },
    {
      "midi": 68,
      "hit": false,
      "t": 393267.88049999654,
      "d": 156.80537499999627,
      "v": 110
    },
    {
      "midi": 71,
      "hit": false,
      "t": 393267.88049999654,
      "d": 156.80537499999627,
      "v": 110
    },
    {
      "midi": 64,
      "hit": false,
      "t": 393895.1019999965,
      "d": 156.80537499999627,
      "v": 110
    },
    {
      "midi": 67,
      "hit": false,
      "t": 393895.1019999965,
      "d": 156.80537499999627,
      "v": 110
    },
    {
      "midi": 72,
      "hit": false,
      "t": 393895.1019999965,
      "d": 156.80537499999627,
      "v": 110
    },
    {
      "midi": 64,
      "hit": false,
      "t": 394208.7127499965,
      "d": 156.80537499999627,
      "v": 110
    },
    {
      "midi": 67,
      "hit": false,
      "t": 394208.7127499965,
      "d": 156.80537499999627,
      "v": 110
    },
    {
      "midi": 72,
      "hit": false,
      "t": 394208.7127499965,
      "d": 156.80537499999627,
      "v": 110
    },
    {
      "midi": 64,
      "hit": false,
      "t": 394522.3234999965,
      "d": 156.80537499999627,
      "v": 110
    },
    {
      "midi": 67,
      "hit": false,
      "t": 394522.3234999965,
      "d": 156.80537499999627,
      "v": 110
    },
    {
      "midi": 72,
      "hit": false,
      "t": 394522.3234999965,
      "d": 156.80537499999627,
      "v": 110
    },
    {
      "midi": 64,
      "hit": false,
      "t": 394835.9342499965,
      "d": 156.80537499999627,
      "v": 110
    },
    {
      "midi": 67,
      "hit": false,
      "t": 394835.9342499965,
      "d": 156.80537499999627,
      "v": 110
    },
    {
      "midi": 72,
      "hit": false,
      "t": 394835.9342499965,
      "d": 156.80537499999627,
      "v": 110
    },
    {
      "midi": 64,
      "hit": false,
      "t": 395149.5449999965,
      "d": 156.80537499999627,
      "v": 110
    },
    {
      "midi": 67,
      "hit": false,
      "t": 395149.5449999965,
      "d": 156.80537499999627,
      "v": 110
    },
    {
      "midi": 72,
      "hit": false,
      "t": 395149.5449999965,
      "d": 156.80537499999627,
      "v": 110
    },
    {
      "midi": 64,
      "hit": false,
      "t": 395776.7664999965,
      "d": 156.80537499999627,
      "v": 110
    },
    {
      "midi": 67,
      "hit": false,
      "t": 395776.7664999965,
      "d": 156.80537499999627,
      "v": 110
    },
    {
      "midi": 72,
      "hit": false,
      "t": 395776.7664999965,
      "d": 156.80537499999627,
      "v": 110
    },
    {
      "midi": 64,
      "hit": false,
      "t": 396403.98799999646,
      "d": 156.80537499999627,
      "v": 110
    },
    {
      "midi": 69,
      "hit": false,
      "t": 396403.98799999646,
      "d": 156.80537499999627,
      "v": 110
    },
    {
      "midi": 71,
      "hit": false,
      "t": 396403.98799999646,
      "d": 156.80537499999627,
      "v": 110
    },
    {
      "midi": 64,
      "hit": false,
      "t": 396717.59874999645,
      "d": 156.80537499999627,
      "v": 110
    },
    {
      "midi": 69,
      "hit": false,
      "t": 396717.59874999645,
      "d": 156.80537499999627,
      "v": 110
    },
    {
      "midi": 71,
      "hit": false,
      "t": 396717.59874999645,
      "d": 156.80537499999627,
      "v": 110
    },
    {
      "midi": 64,
      "hit": false,
      "t": 397031.20949999645,
      "d": 156.80537499999627,
      "v": 110
    },
    {
      "midi": 69,
      "hit": false,
      "t": 397031.20949999645,
      "d": 156.80537499999627,
      "v": 110
    },
    {
      "midi": 71,
      "hit": false,
      "t": 397031.20949999645,
      "d": 156.80537499999627,
      "v": 110
    },
    {
      "midi": 64,
      "hit": false,
      "t": 397344.82024999644,
      "d": 156.80537499999627,
      "v": 110
    },
    {
      "midi": 69,
      "hit": false,
      "t": 397344.82024999644,
      "d": 156.80537499999627,
      "v": 110
    },
    {
      "midi": 71,
      "hit": false,
      "t": 397344.82024999644,
      "d": 156.80537499999627,
      "v": 110
    },
    {
      "midi": 64,
      "hit": false,
      "t": 397658.43099999643,
      "d": 156.80537499999627,
      "v": 110
    },
    {
      "midi": 68,
      "hit": false,
      "t": 397658.43099999643,
      "d": 156.80537499999627,
      "v": 110
    },
    {
      "midi": 71,
      "hit": false,
      "t": 397658.43099999643,
      "d": 156.80537499999627,
      "v": 110
    },
    {
      "midi": 64,
      "hit": false,
      "t": 397972.0417499964,
      "d": 156.80537499999627,
      "v": 110
    },
    {
      "midi": 68,
      "hit": false,
      "t": 397972.0417499964,
      "d": 156.80537499999627,
      "v": 110
    },
    {
      "midi": 71,
      "hit": false,
      "t": 397972.0417499964,
      "d": 156.80537499999627,
      "v": 110
    },
    {
      "midi": 64,
      "hit": false,
      "t": 398285.6524999964,
      "d": 156.80537499999627,
      "v": 110
    },
    {
      "midi": 68,
      "hit": false,
      "t": 398285.6524999964,
      "d": 156.80537499999627,
      "v": 110
    },
    {
      "midi": 71,
      "hit": false,
      "t": 398285.6524999964,
      "d": 156.80537499999627,
      "v": 110
    },
    {
      "midi": 64,
      "hit": false,
      "t": 398599.2632499964,
      "d": 156.80537499999627,
      "v": 110
    },
    {
      "midi": 68,
      "hit": false,
      "t": 398599.2632499964,
      "d": 156.80537499999627,
      "v": 110
    },
    {
      "midi": 71,
      "hit": false,
      "t": 398599.2632499964,
      "d": 156.80537499999627,
      "v": 110
    },
    {
      "midi": 64,
      "hit": false,
      "t": 399540.0954999964,
      "d": 156.80537499999627,
      "v": 110
    },
    {
      "midi": 69,
      "hit": false,
      "t": 399540.0954999964,
      "d": 156.80537499999627,
      "v": 110
    },
    {
      "midi": 72,
      "hit": false,
      "t": 399540.0954999964,
      "d": 156.80537499999627,
      "v": 110
    },
    {
      "midi": 64,
      "hit": false,
      "t": 399853.7062499964,
      "d": 156.80537499999627,
      "v": 110
    },
    {
      "midi": 69,
      "hit": false,
      "t": 399853.7062499964,
      "d": 156.80537499999627,
      "v": 110
    },
    {
      "midi": 72,
      "hit": false,
      "t": 399853.7062499964,
      "d": 156.80537499999627,
      "v": 110
    },
    {
      "midi": 64,
      "hit": false,
      "t": 400167.3169999964,
      "d": 156.80537499999627,
      "v": 110
    },
    {
      "midi": 69,
      "hit": false,
      "t": 400167.3169999964,
      "d": 156.80537499999627,
      "v": 110
    },
    {
      "midi": 72,
      "hit": false,
      "t": 400167.3169999964,
      "d": 156.80537499999627,
      "v": 110
    },
    {
      "midi": 64,
      "hit": false,
      "t": 400794.53849999636,
      "d": 156.80537499999627,
      "v": 110
    },
    {
      "midi": 69,
      "hit": false,
      "t": 400794.53849999636,
      "d": 156.80537499999627,
      "v": 110
    },
    {
      "midi": 72,
      "hit": false,
      "t": 400794.53849999636,
      "d": 156.80537499999627,
      "v": 110
    },
    {
      "midi": 64,
      "hit": false,
      "t": 402048.9814999963,
      "d": 156.80537499999627,
      "v": 40
    },
    {
      "midi": 69,
      "hit": false,
      "t": 402048.9814999963,
      "d": 156.80537499999627,
      "v": 48
    },
    {
      "midi": 72,
      "hit": false,
      "t": 402048.9814999963,
      "d": 156.80537499999627,
      "v": 44
    },
    {
      "midi": 64,
      "hit": false,
      "t": 402362.5922499963,
      "d": 156.80537499999627,
      "v": 22
    },
    {
      "midi": 69,
      "hit": false,
      "t": 402362.5922499963,
      "d": 156.80537499999627,
      "v": 36
    },
    {
      "midi": 72,
      "hit": false,
      "t": 402362.5922499963,
      "d": 156.80537499999627,
      "v": 26
    },
    {
      "midi": 64,
      "hit": false,
      "t": 403303.4244999963,
      "d": 156.80537499999627,
      "v": 48
    },
    {
      "midi": 69,
      "hit": false,
      "t": 403303.4244999963,
      "d": 156.80537499999627,
      "v": 48
    },
    {
      "midi": 72,
      "hit": false,
      "t": 403303.4244999963,
      "d": 156.80537499999627,
      "v": 48
    },
    {
      "midi": 64,
      "hit": false,
      "t": 404557.86749999627,
      "d": 156.80537499999627,
      "v": 30
    },
    {
      "midi": 67,
      "hit": false,
      "t": 404557.86749999627,
      "d": 156.80537499999627,
      "v": 40
    },
    {
      "midi": 73,
      "hit": false,
      "t": 404557.86749999627,
      "d": 156.80537499999627,
      "v": 44
    },
    {
      "midi": 64,
      "hit": false,
      "t": 404871.47824999626,
      "d": 156.80537499999627,
      "v": 30
    },
    {
      "midi": 67,
      "hit": false,
      "t": 404871.47824999626,
      "d": 156.80537499999627,
      "v": 40
    },
    {
      "midi": 73,
      "hit": false,
      "t": 404871.47824999626,
      "d": 156.80537499999627,
      "v": 44
    },
    {
      "midi": 64,
      "hit": false,
      "t": 405185.08899999625,
      "d": 156.80537499999627,
      "v": 36
    },
    {
      "midi": 67,
      "hit": false,
      "t": 405185.08899999625,
      "d": 156.80537499999627,
      "v": 36
    },
    {
      "midi": 73,
      "hit": false,
      "t": 405185.08899999625,
      "d": 156.80537499999627,
      "v": 31
    },
    {
      "midi": 64,
      "hit": false,
      "t": 405812.31049999624,
      "d": 156.80537499999627,
      "v": 48
    },
    {
      "midi": 67,
      "hit": false,
      "t": 405812.31049999624,
      "d": 156.80537499999627,
      "v": 52
    },
    {
      "midi": 73,
      "hit": false,
      "t": 405812.31049999624,
      "d": 156.80537499999627,
      "v": 44
    },
    {
      "midi": 62,
      "hit": false,
      "t": 407066.7534999962,
      "d": 156.80537499999627,
      "v": 44
    },
    {
      "midi": 67,
      "hit": false,
      "t": 407066.7534999962,
      "d": 156.80537499999627,
      "v": 40
    },
    {
      "midi": 71,
      "hit": false,
      "t": 407066.7534999962,
      "d": 156.80537499999627,
      "v": 31
    },
    {
      "midi": 62,
      "hit": false,
      "t": 407380.3642499962,
      "d": 156.80537499999627,
      "v": 40
    },
    {
      "midi": 67,
      "hit": false,
      "t": 407380.3642499962,
      "d": 156.80537499999627,
      "v": 44
    },
    {
      "midi": 71,
      "hit": false,
      "t": 407380.3642499962,
      "d": 156.80537499999627,
      "v": 40
    },
    {
      "midi": 62,
      "hit": false,
      "t": 407693.9749999962,
      "d": 156.80537499999627,
      "v": 52
    },
    {
      "midi": 67,
      "hit": false,
      "t": 407693.9749999962,
      "d": 156.80537499999627,
      "v": 36
    },
    {
      "midi": 71,
      "hit": false,
      "t": 407693.9749999962,
      "d": 156.80537499999627,
      "v": 27
    },
    {
      "midi": 62,
      "hit": false,
      "t": 408321.1964999962,
      "d": 156.80537499999627,
      "v": 40
    },
    {
      "midi": 67,
      "hit": false,
      "t": 408321.1964999962,
      "d": 156.80537499999627,
      "v": 40
    },
    {
      "midi": 71,
      "hit": false,
      "t": 408321.1964999962,
      "d": 156.80537499999627,
      "v": 31
    },
    {
      "midi": 62,
      "hit": false,
      "t": 409575.63949999615,
      "d": 156.80537499999627,
      "v": 48
    },
    {
      "midi": 67,
      "hit": false,
      "t": 409575.63949999615,
      "d": 156.80537499999627,
      "v": 52
    },
    {
      "midi": 71,
      "hit": false,
      "t": 409575.63949999615,
      "d": 156.80537499999627,
      "v": 44
    },
    {
      "midi": 62,
      "hit": false,
      "t": 409889.25024999614,
      "d": 156.80537499999627,
      "v": 31
    },
    {
      "midi": 67,
      "hit": false,
      "t": 409889.25024999614,
      "d": 156.80537499999627,
      "v": 40
    },
    {
      "midi": 71,
      "hit": false,
      "t": 409889.25024999614,
      "d": 156.80537499999627,
      "v": 29
    },
    {
      "midi": 62,
      "hit": false,
      "t": 410830.0824999961,
      "d": 156.80537499999627,
      "v": 40
    },
    {
      "midi": 67,
      "hit": false,
      "t": 410830.0824999961,
      "d": 156.80537499999627,
      "v": 36
    },
    {
      "midi": 71,
      "hit": false,
      "t": 410830.0824999961,
      "d": 156.80537499999627,
      "v": 40
    },
    {
      "midi": 64,
      "hit": false,
      "t": 412084.5254999961,
      "d": 156.80537499999627,
      "v": 40
    },
    {
      "midi": 67,
      "hit": false,
      "t": 412084.5254999961,
      "d": 156.80537499999627,
      "v": 48
    },
    {
      "midi": 72,
      "hit": false,
      "t": 412084.5254999961,
      "d": 156.80537499999627,
      "v": 52
    },
    {
      "midi": 64,
      "hit": false,
      "t": 412398.1362499961,
      "d": 156.80537499999627,
      "v": 32
    },
    {
      "midi": 67,
      "hit": false,
      "t": 412398.1362499961,
      "d": 156.80537499999627,
      "v": 29
    },
    {
      "midi": 72,
      "hit": false,
      "t": 412398.1362499961,
      "d": 156.80537499999627,
      "v": 48
    },
    {
      "midi": 64,
      "hit": false,
      "t": 412711.7469999961,
      "d": 156.80537499999627,
      "v": 27
    },
    {
      "midi": 67,
      "hit": false,
      "t": 412711.7469999961,
      "d": 156.80537499999627,
      "v": 44
    },
    {
      "midi": 72,
      "hit": false,
      "t": 412711.7469999961,
      "d": 156.80537499999627,
      "v": 36
    },
    {
      "midi": 64,
      "hit": false,
      "t": 413338.96849999606,
      "d": 156.80537499999627,
      "v": 36
    },
    {
      "midi": 67,
      "hit": false,
      "t": 413338.96849999606,
      "d": 156.80537499999627,
      "v": 48
    },
    {
      "midi": 72,
      "hit": false,
      "t": 413338.96849999606,
      "d": 156.80537499999627,
      "v": 52
    },
    {
      "midi": 64,
      "hit": false,
      "t": 414593.41149999603,
      "d": 156.80537499999627,
      "v": 36
    },
    {
      "midi": 67,
      "hit": false,
      "t": 414593.41149999603,
      "d": 156.80537499999627,
      "v": 40
    },
    {
      "midi": 72,
      "hit": false,
      "t": 414593.41149999603,
      "d": 156.80537499999627,
      "v": 48
    },
    {
      "midi": 64,
      "hit": false,
      "t": 414907.022249996,
      "d": 156.80537499999627,
      "v": 40
    },
    {
      "midi": 67,
      "hit": false,
      "t": 414907.022249996,
      "d": 156.80537499999627,
      "v": 44
    },
    {
      "midi": 72,
      "hit": false,
      "t": 414907.022249996,
      "d": 156.80537499999627,
      "v": 40
    },
    {
      "midi": 62,
      "hit": false,
      "t": 415847.854499996,
      "d": 3332.114218749979,
      "v": 60
    },
    {
      "midi": 66,
      "hit": false,
      "t": 416004.659874996,
      "d": 3488.9195937499753,
      "v": 52
    },
    {
      "midi": 69,
      "hit": false,
      "t": 416161.465249996,
      "d": 3410.516906249977,
      "v": 52
    },
    {
      "midi": 74,
      "hit": false,
      "t": 416266.00216666266,
      "d": 3332.114218749979,
      "v": 44
    },
    {
      "midi": 55,
      "hit": false,
      "t": 421492.847999996,
      "d": 5017.771999999997,
      "v": 56
    },
    {
      "midi": 62,
      "hit": false,
      "t": 421492.847999996,
      "d": 5017.771999999997,
      "v": 48
    },
    {
      "midi": 67,
      "hit": false,
      "t": 421492.847999996,
      "d": 5017.771999999997,
      "v": 44
    },
    {
      "midi": 71,
      "hit": false,
      "t": 421492.847999996,
      "d": 5017.771999999997,
      "v": 52
    }
  ]
}