{
  "jsonPath": "Animes/Rokumon Tengai Mon Colle Knight MIDI Collection/just-fly-away.json",
  "path": "Animes\\Rokumon Tengai Mon Colle Knight MIDI Collection\\Just fly away.mid",
  "name": "Just fly away",
  "difficulty": "Advanced",
  "bpm": 160,
  "notes": [
    {
      "midi": 64,
      "hit": false,
      "t": 1500,
      "d": 93.75,
      "v": 100
    },
    {
      "midi": 64,
      "hit": false,
      "t": 1500,
      "d": 93.75,
      "v": 100
    },
    {
      "midi": 64,
      "hit": false,
      "t": 1593.75,
      "d": 187.5,
      "v": 100
    },
    {
      "midi": 64,
      "hit": false,
      "t": 1593.75,
      "d": 187.5,
      "v": 100
    },
    {
      "midi": 64,
      "hit": false,
      "t": 1781.25,
      "d": 93.75,
      "v": 100
    },
    {
      "midi": 64,
      "hit": false,
      "t": 1781.25,
      "d": 93.75,
      "v": 100
    },
    {
      "midi": 64,
      "hit": false,
      "t": 1875,
      "d": 93.75,
      "v": 100
    },
    {
      "midi": 64,
      "hit": false,
      "t": 1875,
      "d": 93.75,
      "v": 100
    },
    {
      "midi": 64,
      "hit": false,
      "t": 1968.75,
      "d": 187.5,
      "v": 100
    },
    {
      "midi": 64,
      "hit": false,
      "t": 1968.75,
      "d": 187.5,
      "v": 100
    },
    {
      "midi": 64,
      "hit": false,
      "t": 2156.25,
      "d": 93.75,
      "v": 100
    },
    {
      "midi": 64,
      "hit": false,
      "t": 2156.25,
      "d": 93.75,
      "v": 100
    },
    {
      "midi": 64,
      "hit": false,
      "t": 2250,
      "d": 93.75,
      "v": 100
    },
    {
      "midi": 64,
      "hit": false,
      "t": 2250,
      "d": 93.75,
      "v": 100
    },
    {
      "midi": 64,
      "hit": false,
      "t": 2343.75,
      "d": 187.5,
      "v": 100
    },
    {
      "midi": 64,
      "hit": false,
      "t": 2343.75,
      "d": 187.5,
      "v": 100
    },
    {
      "midi": 64,
      "hit": false,
      "t": 2531.25,
      "d": 93.75,
      "v": 100
    },
    {
      "midi": 64,
      "hit": false,
      "t": 2531.25,
      "d": 93.75,
      "v": 100
    },
    {
      "midi": 64,
      "hit": false,
      "t": 2625,
      "d": 93.75,
      "v": 100
    },
    {
      "midi": 64,
      "hit": false,
      "t": 2625,
      "d": 93.75,
      "v": 100
    },
    {
      "midi": 64,
      "hit": false,
      "t": 2718.75,
      "d": 187.5,
      "v": 100
    },
    {
      "midi": 74,
      "hit": false,
      "t": 2718.75,
      "d": 1125,
      "v": 100
    },
    {
      "midi": 64,
      "hit": false,
      "t": 2718.75,
      "d": 187.5,
      "v": 100
    },
    {
      "midi": 64,
      "hit": false,
      "t": 2906.25,
      "d": 93.75,
      "v": 100
    },
    {
      "midi": 64,
      "hit": false,
      "t": 2906.25,
      "d": 93.75,
      "v": 100
    },
    {
      "midi": 64,
      "hit": false,
      "t": 3000,
      "d": 93.75,
      "v": 100
    },
    {
      "midi": 64,
      "hit": false,
      "t": 3000,
      "d": 93.75,
      "v": 100
    },
    {
      "midi": 64,
      "hit": false,
      "t": 3093.75,
      "d": 187.5,
      "v": 100
    },
    {
      "midi": 64,
      "hit": false,
      "t": 3093.75,
      "d": 187.5,
      "v": 100
    },
    {
      "midi": 64,
      "hit": false,
      "t": 3281.25,
      "d": 93.75,
      "v": 100
    },
    {
      "midi": 64,
      "hit": false,
      "t": 3281.25,
      "d": 93.75,
      "v": 100
    },
    {
      "midi": 64,
      "hit": false,
      "t": 3375,
      "d": 93.75,
      "v": 100
    },
    {
      "midi": 64,
      "hit": false,
      "t": 3375,
      "d": 93.75,
      "v": 100
    },
    {
      "midi": 64,
      "hit": false,
      "t": 3468.75,
      "d": 187.5,
      "v": 100
    },
    {
      "midi": 64,
      "hit": false,
      "t": 3468.75,
      "d": 187.5,
      "v": 100
    },
    {
      "midi": 64,
      "hit": false,
      "t": 3656.25,
      "d": 93.75,
      "v": 100
    },
    {
      "midi": 64,
      "hit": false,
      "t": 3656.25,
      "d": 93.75,
      "v": 100
    },
    {
      "midi": 64,
      "hit": false,
      "t": 3750,
      "d": 93.75,
      "v": 100
    },
    {
      "midi": 64,
      "hit": false,
      "t": 3750,
      "d": 93.75,
      "v": 100
    },
    {
      "midi": 64,
      "hit": false,
      "t": 3843.75,
      "d": 187.5,
      "v": 100
    },
    {
      "midi": 64,
      "hit": false,
      "t": 3843.75,
      "d": 187.5,
      "v": 100
    },
    {
      "midi": 64,
      "hit": false,
      "t": 4031.25,
      "d": 93.75,
      "v": 100
    },
    {
      "midi": 64,
      "hit": false,
      "t": 4031.25,
      "d": 93.75,
      "v": 100
    },
    {
      "midi": 64,
      "hit": false,
      "t": 4125,
      "d": 93.75,
      "v": 100
    },
    {
      "midi": 39,
      "hit": false,
      "t": 4125,
      "d": 0.78125,
      "v": 127
    },
    {
      "midi": 64,
      "hit": false,
      "t": 4125,
      "d": 93.75,
      "v": 100
    },
    {
      "midi": 64,
      "hit": false,
      "t": 4218.75,
      "d": 187.5,
      "v": 100
    },
    {
      "midi": 64,
      "hit": false,
      "t": 4218.75,
      "d": 187.5,
      "v": 100
    },
    {
      "midi": 64,
      "hit": false,
      "t": 4406.25,
      "d": 93.75,
      "v": 100
    },
    {
      "midi": 64,
      "hit": false,
      "t": 4406.25,
      "d": 93.75,
      "v": 100
    },
    {
      "midi": 78,
      "hit": false,
      "t": 4500,
      "d": 468.75,
      "v": 100
    },
    {
      "midi": 73,
      "hit": false,
      "t": 4500,
      "d": 468.75,
      "v": 100
    },
    {
      "midi": 64,
      "hit": false,
      "t": 4500,
      "d": 93.75,
      "v": 100
    },
    {
      "midi": 78,
      "hit": false,
      "t": 4500,
      "d": 468.75,
      "v": 100
    },
    {
      "midi": 73,
      "hit": false,
      "t": 4500,
      "d": 468.75,
      "v": 100
    },
    {
      "midi": 42,
      "hit": false,
      "t": 4500,
      "d": 375,
      "v": 100
    },
    {
      "midi": 40,
      "hit": false,
      "t": 4500,
      "d": 0.78125,
      "v": 100
    },
    {
      "midi": 38,
      "hit": false,
      "t": 4500,
      "d": 0.78125,
      "v": 100
    },
    {
      "midi": 78,
      "hit": false,
      "t": 4500,
      "d": 468.75,
      "v": 100
    },
    {
      "midi": 73,
      "hit": false,
      "t": 4500,
      "d": 468.75,
      "v": 100
    },
    {
      "midi": 64,
      "hit": false,
      "t": 4500,
      "d": 93.75,
      "v": 100
    },
    {
      "midi": 78,
      "hit": false,
      "t": 4500,
      "d": 468.75,
      "v": 100
    },
    {
      "midi": 73,
      "hit": false,
      "t": 4500,
      "d": 468.75,
      "v": 100
    },
    {
      "midi": 64,
      "hit": false,
      "t": 4593.75,
      "d": 187.5,
      "v": 100
    },
    {
      "midi": 64,
      "hit": false,
      "t": 4593.75,
      "d": 187.5,
      "v": 100
    },
    {
      "midi": 64,
      "hit": false,
      "t": 4781.25,
      "d": 93.75,
      "v": 100
    },
    {
      "midi": 64,
      "hit": false,
      "t": 4781.25,
      "d": 93.75,
      "v": 100
    },
    {
      "midi": 64,
      "hit": false,
      "t": 4875,
      "d": 93.75,
      "v": 100
    },
    {
      "midi": 54,
      "hit": false,
      "t": 4875,
      "d": 93.75,
      "v": 100
    },
    {
      "midi": 64,
      "hit": false,
      "t": 4875,
      "d": 93.75,
      "v": 100
    },
    {
      "midi": 64,
      "hit": false,
      "t": 4968.75,
      "d": 187.5,
      "v": 100
    },
    {
      "midi": 55,
      "hit": false,
      "t": 4968.75,
      "d": 93.75,
      "v": 100
    },
    {
      "midi": 64,
      "hit": false,
      "t": 4968.75,
      "d": 187.5,
      "v": 100
    },
    {
      "midi": 76,
      "hit": false,
      "t": 5062.5,
      "d": 656.25,
      "v": 100
    },
    {
      "midi": 73,
      "hit": false,
      "t": 5062.5,
      "d": 656.25,
      "v": 100
    },
    {
      "midi": 76,
      "hit": false,
      "t": 5062.5,
      "d": 656.25,
      "v": 100
    },
    {
      "midi": 73,
      "hit": false,
      "t": 5062.5,
      "d": 656.25,
      "v": 100
    },
    {
      "midi": 40,
      "hit": false,
      "t": 5062.5,
      "d": 375,
      "v": 100
    },
    {
      "midi": 40,
      "hit": false,
      "t": 5062.5,
      "d": 0.78125,
      "v": 100
    },
    {
      "midi": 38,
      "hit": false,
      "t": 5062.5,
      "d": 0.78125,
      "v": 100
    },
    {
      "midi": 56,
      "hit": false,
      "t": 5062.5,
      "d": 93.75,
      "v": 100
    },
    {
      "midi": 76,
      "hit": false,
      "t": 5062.5,
      "d": 656.25,
      "v": 100
    },
    {
      "midi": 73,
      "hit": false,
      "t": 5062.5,
      "d": 656.25,
      "v": 100
    },
    {
      "midi": 76,
      "hit": false,
      "t": 5062.5,
      "d": 656.25,
      "v": 100
    },
    {
      "midi": 73,
      "hit": false,
      "t": 5062.5,
      "d": 656.25,
      "v": 100
    },
    {
      "midi": 64,
      "hit": false,
      "t": 5156.25,
      "d": 93.75,
      "v": 100
    },
    {
      "midi": 57,
      "hit": false,
      "t": 5156.25,
      "d": 93.75,
      "v": 100
    },
    {
      "midi": 64,
      "hit": false,
      "t": 5156.25,
      "d": 93.75,
      "v": 100
    },
    {
      "midi": 55,
      "hit": false,
      "t": 5625,
      "d": 93.75,
      "v": 100
    },
    {
      "midi": 74,
      "hit": false,
      "t": 5718.75,
      "d": 1109.375,
      "v": 100
    },
    {
      "midi": 56,
      "hit": false,
      "t": 5718.75,
      "d": 93.75,
      "v": 100
    },
    {
      "midi": 74,
      "hit": false,
      "t": 5812.5,
      "d": 328.125,
      "v": 100
    },
    {
      "midi": 71,
      "hit": false,
      "t": 5812.5,
      "d": 328.125,
      "v": 100
    },
    {
      "midi": 74,
      "hit": false,
      "t": 5812.5,
      "d": 328.125,
      "v": 100
    },
    {
      "midi": 71,
      "hit": false,
      "t": 5812.5,
      "d": 328.125,
      "v": 100
    },
    {
      "midi": 38,
      "hit": false,
      "t": 5812.5,
      "d": 750,
      "v": 100
    },
    {
      "midi": 40,
      "hit": false,
      "t": 5812.5,
      "d": 0.78125,
      "v": 100
    },
    {
      "midi": 38,
      "hit": false,
      "t": 5812.5,
      "d": 0.78125,
      "v": 100
    },
    {
      "midi": 57,
      "hit": false,
      "t": 5812.5,
      "d": 93.75,
      "v": 100
    },
    {
      "midi": 74,
      "hit": false,
      "t": 5812.5,
      "d": 328.125,
      "v": 100
    },
    {
      "midi": 71,
      "hit": false,
      "t": 5812.5,
      "d": 328.125,
      "v": 100
    },
    {
      "midi": 74,
      "hit": false,
      "t": 5812.5,
      "d": 328.125,
      "v": 100
    },
    {
      "midi": 71,
      "hit": false,
      "t": 5812.5,
      "d": 328.125,
      "v": 100
    },
    {
      "midi": 58,
      "hit": false,
      "t": 5906.25,
      "d": 93.75,
      "v": 100
    },
    {
      "midi": 59,
      "hit": false,
      "t": 6000,
      "d": 750,
      "v": 100
    },
    {
      "midi": 74,
      "hit": false,
      "t": 6187.5,
      "d": 140.625,
      "v": 100
    },
    {
      "midi": 71,
      "hit": false,
      "t": 6187.5,
      "d": 140.625,
      "v": 100
    },
    {
      "midi": 74,
      "hit": false,
      "t": 6187.5,
      "d": 140.625,
      "v": 100
    },
    {
      "midi": 71,
      "hit": false,
      "t": 6187.5,
      "d": 140.625,
      "v": 100
    },
    {
      "midi": 40,
      "hit": false,
      "t": 6187.5,
      "d": 0.78125,
      "v": 100
    },
    {
      "midi": 38,
      "hit": false,
      "t": 6187.5,
      "d": 0.78125,
      "v": 100
    },
    {
      "midi": 74,
      "hit": false,
      "t": 6187.5,
      "d": 140.625,
      "v": 100
    },
    {
      "midi": 71,
      "hit": false,
      "t": 6187.5,
      "d": 140.625,
      "v": 100
    },
    {
      "midi": 74,
      "hit": false,
      "t": 6187.5,
      "d": 140.625,
      "v": 100
    },
    {
      "midi": 71,
      "hit": false,
      "t": 6187.5,
      "d": 140.625,
      "v": 100
    },
    {
      "midi": 74,
      "hit": false,
      "t": 6375,
      "d": 187.5,
      "v": 100
    },
    {
      "midi": 71,
      "hit": false,
      "t": 6375,
      "d": 187.5,
      "v": 100
    },
    {
      "midi": 74,
      "hit": false,
      "t": 6375,
      "d": 187.5,
      "v": 100
    },
    {
      "midi": 71,
      "hit": false,
      "t": 6375,
      "d": 187.5,
      "v": 100
    },
    {
      "midi": 40,
      "hit": false,
      "t": 6375,
      "d": 0.78125,
      "v": 100
    },
    {
      "midi": 38,
      "hit": false,
      "t": 6375,
      "d": 0.78125,
      "v": 100
    },
    {
      "midi": 74,
      "hit": false,
      "t": 6375,
      "d": 187.5,
      "v": 100
    },
    {
      "midi": 71,
      "hit": false,
      "t": 6375,
      "d": 187.5,
      "v": 100
    },
    {
      "midi": 74,
      "hit": false,
      "t": 6375,
      "d": 187.5,
      "v": 100
    },
    {
      "midi": 71,
      "hit": false,
      "t": 6375,
      "d": 187.5,
      "v": 100
    },
    {
      "midi": 69,
      "hit": false,
      "t": 6562.5,
      "d": 93.75,
      "v": 100
    },
    {
      "midi": 69,
      "hit": false,
      "t": 6562.5,
      "d": 93.75,
      "v": 100
    },
    {
      "midi": 69,
      "hit": false,
      "t": 6562.5,
      "d": 93.75,
      "v": 100
    },
    {
      "midi": 71,
      "hit": false,
      "t": 6656.25,
      "d": 93.75,
      "v": 100
    },
    {
      "midi": 69,
      "hit": false,
      "t": 6656.25,
      "d": 93.75,
      "v": 100
    },
    {
      "midi": 71,
      "hit": false,
      "t": 6656.25,
      "d": 93.75,
      "v": 100
    },
    {
      "midi": 74,
      "hit": false,
      "t": 6750,
      "d": 281.25,
      "v": 100
    },
    {
      "midi": 69,
      "hit": false,
      "t": 6750,
      "d": 281.25,
      "v": 100
    },
    {
      "midi": 74,
      "hit": false,
      "t": 6750,
      "d": 281.25,
      "v": 100
    },
    {
      "midi": 73,
      "hit": false,
      "t": 7031.25,
      "d": 281.25,
      "v": 100
    },
    {
      "midi": 69,
      "hit": false,
      "t": 7031.25,
      "d": 281.25,
      "v": 100
    },
    {
      "midi": 73,
      "hit": false,
      "t": 7031.25,
      "d": 281.25,
      "v": 100
    },
    {
      "midi": 39,
      "hit": false,
      "t": 7125,
      "d": 0.78125,
      "v": 127
    },
    {
      "midi": 74,
      "hit": false,
      "t": 7312.5,
      "d": 562.5,
      "v": 100
    },
    {
      "midi": 71,
      "hit": false,
      "t": 7312.5,
      "d": 562.5,
      "v": 100
    },
    {
      "midi": 74,
      "hit": false,
      "t": 7312.5,
      "d": 562.5,
      "v": 100
    },
    {
      "midi": 76,
      "hit": false,
      "t": 7500,
      "d": 9562.5,
      "v": 100
    },
    {
      "midi": 64,
      "hit": false,
      "t": 7500,
      "d": 93.75,
      "v": 100
    },
    {
      "midi": 52,
      "hit": false,
      "t": 7500,
      "d": 93.75,
      "v": 100
    },
    {
      "midi": 49,
      "hit": false,
      "t": 7500,
      "d": 93.75,
      "v": 100
    },
    {
      "midi": 52,
      "hit": false,
      "t": 7500,
      "d": 140.625,
      "v": 100
    },
    {
      "midi": 36,
      "hit": false,
      "t": 7500,
      "d": 0.78125,
      "v": 100
    },
    {
      "midi": 55,
      "hit": false,
      "t": 7500,
      "d": 0.78125,
      "v": 100
    },
    {
      "midi": 76,
      "hit": false,
      "t": 7500,
      "d": 9562.5,
      "v": 100
    },
    {
      "midi": 64,
      "hit": false,
      "t": 7500,
      "d": 93.75,
      "v": 100
    },
    {
      "midi": 52,
      "hit": false,
      "t": 7500,
      "d": 93.75,
      "v": 100
    },
    {
      "midi": 49,
      "hit": false,
      "t": 7500,
      "d": 93.75,
      "v": 100
    },
    {
      "midi": 64,
      "hit": false,
      "t": 7593.75,
      "d": 187.5,
      "v": 100
    },
    {
      "midi": 64,
      "hit": false,
      "t": 7593.75,
      "d": 187.5,
      "v": 100
    },
    {
      "midi": 52,
      "hit": false,
      "t": 7687.5,
      "d": 1312.5,
      "v": 100
    },
    {
      "midi": 36,
      "hit": false,
      "t": 7687.5,
      "d": 0.78125,
      "v": 100
    },
    {
      "midi": 64,
      "hit": false,
      "t": 7781.25,
      "d": 93.75,
      "v": 100
    },
    {
      "midi": 64,
      "hit": false,
      "t": 7781.25,
      "d": 93.75,
      "v": 100
    },
    {
      "midi": 64,
      "hit": false,
      "t": 7875,
      "d": 93.75,
      "v": 100
    },
    {
      "midi": 40,
      "hit": false,
      "t": 7875,
      "d": 0.78125,
      "v": 100
    },
    {
      "midi": 64,
      "hit": false,
      "t": 7875,
      "d": 93.75,
      "v": 100
    },
    {
      "midi": 64,
      "hit": false,
      "t": 7968.75,
      "d": 187.5,
      "v": 100
    },
    {
      "midi": 64,
      "hit": false,
      "t": 7968.75,
      "d": 187.5,
      "v": 100
    },
    {
      "midi": 69,
      "hit": false,
      "t": 8062.5,
      "d": 93.75,
      "v": 100
    },
    {
      "midi": 52,
      "hit": false,
      "t": 8062.5,
      "d": 93.75,
      "v": 100
    },
    {
      "midi": 49,
      "hit": false,
      "t": 8062.5,
      "d": 93.75,
      "v": 100
    },
    {
      "midi": 69,
      "hit": false,
      "t": 8062.5,
      "d": 93.75,
      "v": 100
    },
    {
      "midi": 69,
      "hit": false,
      "t": 8062.5,
      "d": 93.75,
      "v": 100
    },
    {
      "midi": 52,
      "hit": false,
      "t": 8062.5,
      "d": 93.75,
      "v": 100
    },
    {
      "midi": 49,
      "hit": false,
      "t": 8062.5,
      "d": 93.75,
      "v": 100
    },
    {
      "midi": 71,
      "hit": false,
      "t": 8156.25,
      "d": 93.75,
      "v": 100
    },
    {
      "midi": 64,
      "hit": false,
      "t": 8156.25,
      "d": 93.75,
      "v": 100
    },
    {
      "midi": 69,
      "hit": false,
      "t": 8156.25,
      "d": 93.75,
      "v": 100
    },
    {
      "midi": 38,
      "hit": false,
      "t": 8156.25,
      "d": 0.78125,
      "v": 100
    },
    {
      "midi": 71,
      "hit": false,
      "t": 8156.25,
      "d": 93.75,
      "v": 100
    },
    {
      "midi": 64,
      "hit": false,
      "t": 8156.25,
      "d": 93.75,
      "v": 100
    },
    {
      "midi": 76,
      "hit": false,
      "t": 8250,
      "d": 281.25,
      "v": 100
    },
    {
      "midi": 64,
      "hit": false,
      "t": 8250,
      "d": 93.75,
      "v": 100
    },
    {
      "midi": 69,
      "hit": false,
      "t": 8250,
      "d": 281.25,
      "v": 100
    },
    {
      "midi": 36,
      "hit": false,
      "t": 8250,
      "d": 0.78125,
      "v": 100
    },
    {
      "midi": 76,
      "hit": false,
      "t": 8250,
      "d": 281.25,
      "v": 100
    },
    {
      "midi": 64,
      "hit": false,
      "t": 8250,
      "d": 93.75,
      "v": 100
    },
    {
      "midi": 64,
      "hit": false,
      "t": 8343.75,
      "d": 187.5,
      "v": 100
    },
    {
      "midi": 38,
      "hit": false,
      "t": 8343.75,
      "d": 0.78125,
      "v": 100
    },
    {
      "midi": 64,
      "hit": false,
      "t": 8343.75,
      "d": 187.5,
      "v": 100
    },
    {
      "midi": 52,
      "hit": false,
      "t": 8437.5,
      "d": 187.5,
      "v": 100
    },
    {
      "midi": 49,
      "hit": false,
      "t": 8437.5,
      "d": 187.5,
      "v": 100
    },
    {
      "midi": 36,
      "hit": false,
      "t": 8437.5,
      "d": 0.78125,
      "v": 100
    },
    {
      "midi": 52,
      "hit": false,
      "t": 8437.5,
      "d": 187.5,
      "v": 100
    },
    {
      "midi": 49,
      "hit": false,
      "t": 8437.5,
      "d": 187.5,
      "v": 100
    },
    {
      "midi": 74,
      "hit": false,
      "t": 8531.25,
      "d": 281.25,
      "v": 100
    },
    {
      "midi": 64,
      "hit": false,
      "t": 8531.25,
      "d": 93.75,
      "v": 100
    },
    {
      "midi": 69,
      "hit": false,
      "t": 8531.25,
      "d": 281.25,
      "v": 100
    },
    {
      "midi": 74,
      "hit": false,
      "t": 8531.25,
      "d": 281.25,
      "v": 100
    },
    {
      "midi": 64,
      "hit": false,
      "t": 8531.25,
      "d": 93.75,
      "v": 100
    },
    {
      "midi": 64,
      "hit": false,
      "t": 8625,
      "d": 93.75,
      "v": 100
    },
    {
      "midi": 40,
      "hit": false,
      "t": 8625,
      "d": 0.78125,
      "v": 100
    },
    {
      "midi": 64,
      "hit": false,
      "t": 8625,
      "d": 93.75,
      "v": 100
    },
    {
      "midi": 64,
      "hit": false,
      "t": 8718.75,
      "d": 187.5,
      "v": 100
    },
    {
      "midi": 64,
      "hit": false,
      "t": 8718.75,
      "d": 187.5,
      "v": 100
    },
    {
      "midi": 76,
      "hit": false,
      "t": 8812.5,
      "d": 562.5,
      "v": 100
    },
    {
      "midi": 67,
      "hit": false,
      "t": 8812.5,
      "d": 562.5,
      "v": 100
    },
    {
      "midi": 76,
      "hit": false,
      "t": 8812.5,
      "d": 562.5,
      "v": 100
    },
    {
      "midi": 64,
      "hit": false,
      "t": 8906.25,
      "d": 93.75,
      "v": 100
    },
    {
      "midi": 64,
      "hit": false,
      "t": 8906.25,
      "d": 93.75,
      "v": 100
    },
    {
      "midi": 64,
      "hit": false,
      "t": 9000,
      "d": 93.75,
      "v": 100
    },
    {
      "midi": 49,
      "hit": false,
      "t": 9000,
      "d": 93.75,
      "v": 100
    },
    {
      "midi": 45,
      "hit": false,
      "t": 9000,
      "d": 93.75,
      "v": 100
    },
    {
      "midi": 49,
      "hit": false,
      "t": 9000,
      "d": 140.625,
      "v": 100
    },
    {
      "midi": 36,
      "hit": false,
      "t": 9000,
      "d": 0.78125,
      "v": 100
    },
    {
      "midi": 64,
      "hit": false,
      "t": 9000,
      "d": 93.75,
      "v": 100
    },
    {
      "midi": 49,
      "hit": false,
      "t": 9000,
      "d": 93.75,
      "v": 100
    },
    {
      "midi": 45,
      "hit": false,
      "t": 9000,
      "d": 93.75,
      "v": 100
    },
    {
      "midi": 64,
      "hit": false,
      "t": 9093.75,
      "d": 187.5,
      "v": 100
    },
    {
      "midi": 64,
      "hit": false,
      "t": 9093.75,
      "d": 187.5,
      "v": 100
    },
    {
      "midi": 49,
      "hit": false,
      "t": 9187.5,
      "d": 1312.5,
      "v": 100
    },
    {
      "midi": 36,
      "hit": false,
      "t": 9187.5,
      "d": 0.78125,
      "v": 100
    },
    {
      "midi": 64,
      "hit": false,
      "t": 9281.25,
      "d": 93.75,
      "v": 100
    },
    {
      "midi": 64,
      "hit": false,
      "t": 9281.25,
      "d": 93.75,
      "v": 100
    },
    {
      "midi": 64,
      "hit": false,
      "t": 9375,
      "d": 93.75,
      "v": 100
    },
    {
      "midi": 40,
      "hit": false,
      "t": 9375,
      "d": 0.78125,
      "v": 100
    },
    {
      "midi": 64,
      "hit": false,
      "t": 9375,
      "d": 93.75,
      "v": 100
    },
    {
      "midi": 64,
      "hit": false,
      "t": 9468.75,
      "d": 187.5,
      "v": 100
    },
    {
      "midi": 64,
      "hit": false,
      "t": 9468.75,
      "d": 187.5,
      "v": 100
    },
    {
      "midi": 49,
      "hit": false,
      "t": 9562.5,
      "d": 93.75,
      "v": 100
    },
    {
      "midi": 45,
      "hit": false,
      "t": 9562.5,
      "d": 93.75,
      "v": 100
    },
    {
      "midi": 49,
      "hit": false,
      "t": 9562.5,
      "d": 93.75,
      "v": 100
    },
    {
      "midi": 45,
      "hit": false,
      "t": 9562.5,
      "d": 93.75,
      "v": 100
    },
    {
      "midi": 64,
      "hit": false,
      "t": 9656.25,
      "d": 93.75,
      "v": 100
    },
    {
      "midi": 64,
      "hit": false,
      "t": 9656.25,
      "d": 93.75,
      "v": 100
    },
    {
      "midi": 64,
      "hit": false,
      "t": 9750,
      "d": 93.75,
      "v": 100
    },
    {
      "midi": 36,
      "hit": false,
      "t": 9750,
      "d": 0.78125,
      "v": 100
    },
    {
      "midi": 40,
      "hit": false,
      "t": 9750,
      "d": 0.78125,
      "v": 100
    },
    {
      "midi": 64,
      "hit": false,
      "t": 9750,
      "d": 93.75,
      "v": 100
    },
    {
      "midi": 64,
      "hit": false,
      "t": 9843.75,
      "d": 187.5,
      "v": 100
    },
    {
      "midi": 64,
      "hit": false,
      "t": 9843.75,
      "d": 187.5,
      "v": 100
    },
    {
      "midi": 73,
      "hit": false,
      "t": 9937.5,
      "d": 187.5,
      "v": 100
    },
    {
      "midi": 49,
      "hit": false,
      "t": 9937.5,
      "d": 187.5,
      "v": 100
    },
    {
      "midi": 45,
      "hit": false,
      "t": 9937.5,
      "d": 187.5,
      "v": 100
    },
    {
      "midi": 36,
      "hit": false,
      "t": 9937.5,
      "d": 0.78125,
      "v": 100
    },
    {
      "midi": 38,
      "hit": false,
      "t": 9937.5,
      "d": 0.78125,
      "v": 100
    },
    {
      "midi": 73,
      "hit": false,
      "t": 9937.5,
      "d": 187.5,
      "v": 100
    },
    {
      "midi": 49,
      "hit": false,
      "t": 9937.5,
      "d": 187.5,
      "v": 100
    },
    {
      "midi": 45,
      "hit": false,
      "t": 9937.5,
      "d": 187.5,
      "v": 100
    },
    {
      "midi": 64,
      "hit": false,
      "t": 10031.25,
      "d": 93.75,
      "v": 100
    },
    {
      "midi": 64,
      "hit": false,
      "t": 10031.25,
      "d": 93.75,
      "v": 100
    },
    {
      "midi": 74,
      "hit": false,
      "t": 10125,
      "d": 187.5,
      "v": 100
    },
    {
      "midi": 64,
      "hit": false,
      "t": 10125,
      "d": 93.75,
      "v": 100
    },
    {
      "midi": 40,
      "hit": false,
      "t": 10125,
      "d": 0.78125,
      "v": 100
    },
    {
      "midi": 74,
      "hit": false,
      "t": 10125,
      "d": 187.5,
      "v": 100
    },
    {
      "midi": 64,
      "hit": false,
      "t": 10125,
      "d": 93.75,
      "v": 100
    },
    {
      "midi": 64,
      "hit": false,
      "t": 10218.75,
      "d": 187.5,
      "v": 100
    },
    {
      "midi": 64,
      "hit": false,
      "t": 10218.75,
      "d": 187.5,
      "v": 100
    },
    {
      "midi": 76,
      "hit": false,
      "t": 10312.5,
      "d": 187.5,
      "v": 100
    },
    {
      "midi": 76,
      "hit": false,
      "t": 10312.5,
      "d": 187.5,
      "v": 100
    },
    {
      "midi": 64,
      "hit": false,
      "t": 10406.25,
      "d": 93.75,
      "v": 100
    },
    {
      "midi": 64,
      "hit": false,
      "t": 10406.25,
      "d": 93.75,
      "v": 100
    },
    {
      "midi": 81,
      "hit": false,
      "t": 10500,
      "d": 515.625,
      "v": 100
    },
    {
      "midi": 64,
      "hit": false,
      "t": 10500,
      "d": 93.75,
      "v": 100
    },
    {
      "midi": 52,
      "hit": false,
      "t": 10500,
      "d": 93.75,
      "v": 100
    },
    {
      "midi": 49,
      "hit": false,
      "t": 10500,
      "d": 93.75,
      "v": 100
    },
    {
      "midi": 52,
      "hit": false,
      "t": 10500,
      "d": 140.625,
      "v": 100
    },
    {
      "midi": 81,
      "hit": false,
      "t": 10500,
      "d": 515.625,
      "v": 100
    },
    {
      "midi": 36,
      "hit": false,
      "t": 10500,
      "d": 0.78125,
      "v": 100
    },
    {
      "midi": 81,
      "hit": false,
      "t": 10500,
      "d": 515.625,
      "v": 100
    },
    {
      "midi": 64,
      "hit": false,
      "t": 10500,
      "d": 93.75,
      "v": 100
    },
    {
      "midi": 52,
      "hit": false,
      "t": 10500,
      "d": 93.75,
      "v": 100
    },
    {
      "midi": 49,
      "hit": false,
      "t": 10500,
      "d": 93.75,
      "v": 100
    },
    {
      "midi": 64,
      "hit": false,
      "t": 10593.75,
      "d": 187.5,
      "v": 100
    },
    {
      "midi": 64,
      "hit": false,
      "t": 10593.75,
      "d": 187.5,
      "v": 100
    },
    {
      "midi": 52,
      "hit": false,
      "t": 10687.5,
      "d": 1312.5,
      "v": 100
    },
    {
      "midi": 36,
      "hit": false,
      "t": 10687.5,
      "d": 0.78125,
      "v": 100
    },
    {
      "midi": 64,
      "hit": false,
      "t": 10781.25,
      "d": 93.75,
      "v": 100
    },
    {
      "midi": 64,
      "hit": false,
      "t": 10781.25,
      "d": 93.75,
      "v": 100
    },
    {
      "midi": 64,
      "hit": false,
      "t": 10875,
      "d": 93.75,
      "v": 100
    },
    {
      "midi": 40,
      "hit": false,
      "t": 10875,
      "d": 0.78125,
      "v": 100
    },
    {
      "midi": 64,
      "hit": false,
      "t": 10875,
      "d": 93.75,
      "v": 100
    },
    {
      "midi": 64,
      "hit": false,
      "t": 10968.75,
      "d": 187.5,
      "v": 100
    },
    {
      "midi": 64,
      "hit": false,
      "t": 10968.75,
      "d": 187.5,
      "v": 100
    },
    {
      "midi": 81,
      "hit": false,
      "t": 11062.5,
      "d": 187.5,
      "v": 100
    },
    {
      "midi": 52,
      "hit": false,
      "t": 11062.5,
      "d": 93.75,
      "v": 100
    },
    {
      "midi": 49,
      "hit": false,
      "t": 11062.5,
      "d": 93.75,
      "v": 100
    },
    {
      "midi": 81,
      "hit": false,
      "t": 11062.5,
      "d": 187.5,
      "v": 100
    },
    {
      "midi": 81,
      "hit": false,
      "t": 11062.5,
      "d": 187.5,
      "v": 100
    },
    {
      "midi": 52,
      "hit": false,
      "t": 11062.5,
      "d": 93.75,
      "v": 100
    },
    {
      "midi": 49,
      "hit": false,
      "t": 11062.5,
      "d": 93.75,
      "v": 100
    },
    {
      "midi": 64,
      "hit": false,
      "t": 11156.25,
      "d": 93.75,
      "v": 100
    },
    {
      "midi": 38,
      "hit": false,
      "t": 11156.25,
      "d": 0.78125,
      "v": 100
    },
    {
      "midi": 64,
      "hit": false,
      "t": 11156.25,
      "d": 93.75,
      "v": 100
    },
    {
      "midi": 79,
      "hit": false,
      "t": 11250,
      "d": 187.5,
      "v": 100
    },
    {
      "midi": 64,
      "hit": false,
      "t": 11250,
      "d": 93.75,
      "v": 100
    },
    {
      "midi": 81,
      "hit": false,
      "t": 11250,
      "d": 187.5,
      "v": 100
    },
    {
      "midi": 36,
      "hit": false,
      "t": 11250,
      "d": 0.78125,
      "v": 100
    },
    {
      "midi": 79,
      "hit": false,
      "t": 11250,
      "d": 187.5,
      "v": 100
    },
    {
      "midi": 64,
      "hit": false,
      "t": 11250,
      "d": 93.75,
      "v": 100
    },
    {
      "midi": 64,
      "hit": false,
      "t": 11343.75,
      "d": 187.5,
      "v": 100
    },
    {
      "midi": 38,
      "hit": false,
      "t": 11343.75,
      "d": 0.78125,
      "v": 100
    },
    {
      "midi": 64,
      "hit": false,
      "t": 11343.75,
      "d": 187.5,
      "v": 100
    },
    {
      "midi": 78,
      "hit": false,
      "t": 11437.5,
      "d": 375,
      "v": 100
    },
    {
      "midi": 52,
      "hit": false,
      "t": 11437.5,
      "d": 187.5,
      "v": 100
    },
    {
      "midi": 49,
      "hit": false,
      "t": 11437.5,
      "d": 187.5,
      "v": 100
    },
    {
      "midi": 81,
      "hit": false,
      "t": 11437.5,
      "d": 375,
      "v": 100
    },
    {
      "midi": 36,
      "hit": false,
      "t": 11437.5,
      "d": 0.78125,
      "v": 100
    },
    {
      "midi": 78,
      "hit": false,
      "t": 11437.5,
      "d": 375,
      "v": 100
    },
    {
      "midi": 52,
      "hit": false,
      "t": 11437.5,
      "d": 187.5,
      "v": 100
    },
    {
      "midi": 49,
      "hit": false,
      "t": 11437.5,
      "d": 187.5,
      "v": 100
    },
    {
      "midi": 64,
      "hit": false,
      "t": 11531.25,
      "d": 93.75,
      "v": 100
    },
    {
      "midi": 64,
      "hit": false,
      "t": 11531.25,
      "d": 93.75,
      "v": 100
    },
    {
      "midi": 64,
      "hit": false,
      "t": 11625,
      "d": 93.75,
      "v": 100
    },
    {
      "midi": 40,
      "hit": false,
      "t": 11625,
      "d": 0.78125,
      "v": 100
    },
    {
      "midi": 64,
      "hit": false,
      "t": 11625,
      "d": 93.75,
      "v": 100
    },
    {
      "midi": 64,
      "hit": false,
      "t": 11718.75,
      "d": 187.5,
      "v": 100
    },
    {
      "midi": 64,
      "hit": false,
      "t": 11718.75,
      "d": 187.5,
      "v": 100
    },
    {
      "midi": 74,
      "hit": false,
      "t": 11812.5,
      "d": 656.25,
      "v": 100
    },
    {
      "midi": 81,
      "hit": false,
      "t": 11812.5,
      "d": 656.25,
      "v": 100
    },
    {
      "midi": 74,
      "hit": false,
      "t": 11812.5,
      "d": 656.25,
      "v": 100
    },
    {
      "midi": 64,
      "hit": false,
      "t": 11906.25,
      "d": 93.75,
      "v": 100
    },
    {
      "midi": 64,
      "hit": false,
      "t": 11906.25,
      "d": 93.75,
      "v": 100
    },
    {
      "midi": 64,
      "hit": false,
      "t": 12000,
      "d": 93.75,
      "v": 100
    },
    {
      "midi": 52,
      "hit": false,
      "t": 12000,
      "d": 93.75,
      "v": 100
    },
    {
      "midi": 49,
      "hit": false,
      "t": 12000,
      "d": 93.75,
      "v": 100
    },
    {
      "midi": 47,
      "hit": false,
      "t": 12000,
      "d": 140.625,
      "v": 100
    },
    {
      "midi": 36,
      "hit": false,
      "t": 12000,
      "d": 0.78125,
      "v": 100
    },
    {
      "midi": 64,
      "hit": false,
      "t": 12000,
      "d": 93.75,
      "v": 100
    },
    {
      "midi": 52,
      "hit": false,
      "t": 12000,
      "d": 93.75,
      "v": 100
    },
    {
      "midi": 49,
      "hit": false,
      "t": 12000,
      "d": 93.75,
      "v": 100
    },
    {
      "midi": 64,
      "hit": false,
      "t": 12093.75,
      "d": 187.5,
      "v": 100
    },
    {
      "midi": 64,
      "hit": false,
      "t": 12093.75,
      "d": 187.5,
      "v": 100
    },
    {
      "midi": 47,
      "hit": false,
      "t": 12187.5,
      "d": 1312.5,
      "v": 100
    },
    {
      "midi": 36,
      "hit": false,
      "t": 12187.5,
      "d": 0.78125,
      "v": 100
    },
    {
      "midi": 64,
      "hit": false,
      "t": 12281.25,
      "d": 93.75,
      "v": 100
    },
    {
      "midi": 64,
      "hit": false,
      "t": 12281.25,
      "d": 93.75,
      "v": 100
    },
    {
      "midi": 64,
      "hit": false,
      "t": 12375,
      "d": 93.75,
      "v": 100
    },
    {
      "midi": 40,
      "hit": false,
      "t": 12375,
      "d": 0.78125,
      "v": 100
    },
    {
      "midi": 64,
      "hit": false,
      "t": 12375,
      "d": 93.75,
      "v": 100
    },
    {
      "midi": 64,
      "hit": false,
      "t": 12468.75,
      "d": 187.5,
      "v": 100
    },
    {
      "midi": 64,
      "hit": false,
      "t": 12468.75,
      "d": 187.5,
      "v": 100
    },
    {
      "midi": 74,
      "hit": false,
      "t": 12562.5,
      "d": 140.625,
      "v": 100
    },
    {
      "midi": 52,
      "hit": false,
      "t": 12562.5,
      "d": 93.75,
      "v": 100
    },
    {
      "midi": 49,
      "hit": false,
      "t": 12562.5,
      "d": 93.75,
      "v": 100
    },
    {
      "midi": 74,
      "hit": false,
      "t": 12562.5,
      "d": 140.625,
      "v": 100
    },
    {
      "midi": 74,
      "hit": false,
      "t": 12562.5,
      "d": 140.625,
      "v": 100
    },
    {
      "midi": 52,
      "hit": false,
      "t": 12562.5,
      "d": 93.75,
      "v": 100
    },
    {
      "midi": 49,
      "hit": false,
      "t": 12562.5,
      "d": 93.75,
      "v": 100
    },
    {
      "midi": 64,
      "hit": false,
      "t": 12656.25,
      "d": 93.75,
      "v": 100
    },
    {
      "midi": 64,
      "hit": false,
      "t": 12656.25,
      "d": 93.75,
      "v": 100
    },
    {
      "midi": 74,
      "hit": false,
      "t": 12750,
      "d": 375,
      "v": 100
    },
    {
      "midi": 64,
      "hit": false,
      "t": 12750,
      "d": 93.75,
      "v": 100
    },
    {
      "midi": 74,
      "hit": false,
      "t": 12750,
      "d": 375,
      "v": 100
    },
    {
      "midi": 36,
      "hit": false,
      "t": 12750,
      "d": 0.78125,
      "v": 100
    },
    {
      "midi": 40,
      "hit": false,
      "t": 12750,
      "d": 0.78125,
      "v": 100
    },
    {
      "midi": 74,
      "hit": false,
      "t": 12750,
      "d": 375,
      "v": 100
    },
    {
      "midi": 64,
      "hit": false,
      "t": 12750,
      "d": 93.75,
      "v": 100
    },
    {
      "midi": 64,
      "hit": false,
      "t": 12843.75,
      "d": 187.5,
      "v": 100
    },
    {
      "midi": 64,
      "hit": false,
      "t": 12843.75,
      "d": 187.5,
      "v": 100
    },
    {
      "midi": 52,
      "hit": false,
      "t": 12937.5,
      "d": 187.5,
      "v": 100
    },
    {
      "midi": 49,
      "hit": false,
      "t": 12937.5,
      "d": 187.5,
      "v": 100
    },
    {
      "midi": 36,
      "hit": false,
      "t": 12937.5,
      "d": 0.78125,
      "v": 100
    },
    {
      "midi": 38,
      "hit": false,
      "t": 12937.5,
      "d": 0.78125,
      "v": 100
    },
    {
      "midi": 52,
      "hit": false,
      "t": 12937.5,
      "d": 187.5,
      "v": 100
    },
    {
      "midi": 49,
      "hit": false,
      "t": 12937.5,
      "d": 187.5,
      "v": 100
    },
    {
      "midi": 64,
      "hit": false,
      "t": 13031.25,
      "d": 93.75,
      "v": 100
    },
    {
      "midi": 64,
      "hit": false,
      "t": 13031.25,
      "d": 93.75,
      "v": 100
    },
    {
      "midi": 76,
      "hit": false,
      "t": 13125,
      "d": 187.5,
      "v": 100
    },
    {
      "midi": 64,
      "hit": false,
      "t": 13125,
      "d": 93.75,
      "v": 100
    },
    {
      "midi": 74,
      "hit": false,
      "t": 13125,
      "d": 187.5,
      "v": 100
    },
    {
      "midi": 40,
      "hit": false,
      "t": 13125,
      "d": 0.78125,
      "v": 100
    },
    {
      "midi": 55,
      "hit": false,
      "t": 13125,
      "d": 0.78125,
      "v": 100
    },
    {
      "midi": 76,
      "hit": false,
      "t": 13125,
      "d": 187.5,
      "v": 100
    },
    {
      "midi": 64,
      "hit": false,
      "t": 13125,
      "d": 93.75,
      "v": 100
    },
    {
      "midi": 64,
      "hit": false,
      "t": 13218.75,
      "d": 187.5,
      "v": 100
    },
    {
      "midi": 64,
      "hit": false,
      "t": 13218.75,
      "d": 187.5,
      "v": 100
    },
    {
      "midi": 78,
      "hit": false,
      "t": 13312.5,
      "d": 140.625,
      "v": 100
    },
    {
      "midi": 74,
      "hit": false,
      "t": 13312.5,
      "d": 140.625,
      "v": 100
    },
    {
      "midi": 78,
      "hit": false,
      "t": 13312.5,
      "d": 140.625,
      "v": 100
    },
    {
      "midi": 64,
      "hit": false,
      "t": 13406.25,
      "d": 93.75,
      "v": 100
    },
    {
      "midi": 64,
      "hit": false,
      "t": 13406.25,
      "d": 93.75,
      "v": 100
    },
    {
      "midi": 78,
      "hit": false,
      "t": 13500,
      "d": 890.625,
      "v": 100
    },
    {
      "midi": 64,
      "hit": false,
      "t": 13500,
      "d": 93.75,
      "v": 100
    },
    {
      "midi": 52,
      "hit": false,
      "t": 13500,
      "d": 93.75,
      "v": 100
    },
    {
      "midi": 49,
      "hit": false,
      "t": 13500,
      "d": 93.75,
      "v": 100
    },
    {
      "midi": 45,
      "hit": false,
      "t": 13500,
      "d": 140.625,
      "v": 100
    },
    {
      "midi": 74,
      "hit": false,
      "t": 13500,
      "d": 890.625,
      "v": 100
    },
    {
      "midi": 36,
      "hit": false,
      "t": 13500,
      "d": 0.78125,
      "v": 100
    },
    {
      "midi": 78,
      "hit": false,
      "t": 13500,
      "d": 890.625,
      "v": 100
    },
    {
      "midi": 64,
      "hit": false,
      "t": 13500,
      "d": 93.75,
      "v": 100
    },
    {
      "midi": 52,
      "hit": false,
      "t": 13500,
      "d": 93.75,
      "v": 100
    },
    {
      "midi": 49,
      "hit": false,
      "t": 13500,
      "d": 93.75,
      "v": 100
    },
    {
      "midi": 64,
      "hit": false,
      "t": 13593.75,
      "d": 187.5,
      "v": 100
    },
    {
      "midi": 64,
      "hit": false,
      "t": 13593.75,
      "d": 187.5,
      "v": 100
    },
    {
      "midi": 45,
      "hit": false,
      "t": 13687.5,
      "d": 1312.5,
      "v": 100
    },
    {
      "midi": 36,
      "hit": false,
      "t": 13687.5,
      "d": 0.78125,
      "v": 100
    },
    {
      "midi": 64,
      "hit": false,
      "t": 13781.25,
      "d": 93.75,
      "v": 100
    },
    {
      "midi": 64,
      "hit": false,
      "t": 13781.25,
      "d": 93.75,
      "v": 100
    },
    {
      "midi": 64,
      "hit": false,
      "t": 13875,
      "d": 93.75,
      "v": 100
    },
    {
      "midi": 40,
      "hit": false,
      "t": 13875,
      "d": 0.78125,
      "v": 100
    },
    {
      "midi": 64,
      "hit": false,
      "t": 13875,
      "d": 93.75,
      "v": 100
    },
    {
      "midi": 64,
      "hit": false,
      "t": 13968.75,
      "d": 187.5,
      "v": 100
    },
    {
      "midi": 64,
      "hit": false,
      "t": 13968.75,
      "d": 187.5,
      "v": 100
    },
    {
      "midi": 52,
      "hit": false,
      "t": 14062.5,
      "d": 93.75,
      "v": 100
    },
    {
      "midi": 49,
      "hit": false,
      "t": 14062.5,
      "d": 93.75,
      "v": 100
    },
    {
      "midi": 52,
      "hit": false,
      "t": 14062.5,
      "d": 93.75,
      "v": 100
    },
    {
      "midi": 49,
      "hit": false,
      "t": 14062.5,
      "d": 93.75,
      "v": 100
    },
    {
      "midi": 64,
      "hit": false,
      "t": 14156.25,
      "d": 93.75,
      "v": 100
    },
    {
      "midi": 38,
      "hit": false,
      "t": 14156.25,
      "d": 0.78125,
      "v": 100
    },
    {
      "midi": 64,
      "hit": false,
      "t": 14156.25,
      "d": 93.75,
      "v": 100
    },
    {
      "midi": 64,
      "hit": false,
      "t": 14250,
      "d": 93.75,
      "v": 100
    },
    {
      "midi": 36,
      "hit": false,
      "t": 14250,
      "d": 0.78125,
      "v": 100
    },
    {
      "midi": 64,
      "hit": false,
      "t": 14250,
      "d": 93.75,
      "v": 100
    },
    {
      "midi": 64,
      "hit": false,
      "t": 14343.75,
      "d": 187.5,
      "v": 100
    },
    {
      "midi": 38,
      "hit": false,
      "t": 14343.75,
      "d": 0.78125,
      "v": 100
    },
    {
      "midi": 64,
      "hit": false,
      "t": 14343.75,
      "d": 187.5,
      "v": 100
    },
    {
      "midi": 78,
      "hit": false,
      "t": 14437.5,
      "d": 187.5,
      "v": 100
    },
    {
      "midi": 49,
      "hit": false,
      "t": 14437.5,
      "d": 93.75,
      "v": 100
    },
    {
      "midi": 52,
      "hit": false,
      "t": 14437.5,
      "d": 93.75,
      "v": 100
    },
    {
      "midi": 36,
      "hit": false,
      "t": 14437.5,
      "d": 0.78125,
      "v": 100
    },
    {
      "midi": 78,
      "hit": false,
      "t": 14437.5,
      "d": 187.5,
      "v": 100
    },
    {
      "midi": 49,
      "hit": false,
      "t": 14437.5,
      "d": 93.75,
      "v": 100
    },
    {
      "midi": 52,
      "hit": false,
      "t": 14437.5,
      "d": 93.75,
      "v": 100
    },
    {
      "midi": 64,
      "hit": false,
      "t": 14531.25,
      "d": 93.75,
      "v": 100
    },
    {
      "midi": 64,
      "hit": false,
      "t": 14531.25,
      "d": 93.75,
      "v": 100
    },
    {
      "midi": 83,
      "hit": false,
      "t": 14625,
      "d": 187.5,
      "v": 100
    },
    {
      "midi": 64,
      "hit": false,
      "t": 14625,
      "d": 93.75,
      "v": 100
    },
    {
      "midi": 52,
      "hit": false,
      "t": 14625,
      "d": 93.75,
      "v": 100
    },
    {
      "midi": 49,
      "hit": false,
      "t": 14625,
      "d": 93.75,
      "v": 100
    },
    {
      "midi": 40,
      "hit": false,
      "t": 14625,
      "d": 0.78125,
      "v": 100
    },
    {
      "midi": 83,
      "hit": false,
      "t": 14625,
      "d": 187.5,
      "v": 100
    },
    {
      "midi": 64,
      "hit": false,
      "t": 14625,
      "d": 93.75,
      "v": 100
    },
    {
      "midi": 52,
      "hit": false,
      "t": 14625,
      "d": 93.75,
      "v": 100
    },
    {
      "midi": 49,
      "hit": false,
      "t": 14625,
      "d": 93.75,
      "v": 100
    },
    {
      "midi": 64,
      "hit": false,
      "t": 14718.75,
      "d": 187.5,
      "v": 100
    },
    {
      "midi": 64,
      "hit": false,
      "t": 14718.75,
      "d": 187.5,
      "v": 100
    },
    {
      "midi": 86,
      "hit": false,
      "t": 14812.5,
      "d": 187.5,
      "v": 100
    },
    {
      "midi": 86,
      "hit": false,
      "t": 14812.5,
      "d": 187.5,
      "v": 100
    },
    {
      "midi": 64,
      "hit": false,
      "t": 14906.25,
      "d": 93.75,
      "v": 100
    },
    {
      "midi": 64,
      "hit": false,
      "t": 14906.25,
      "d": 93.75,
      "v": 100
    },
    {
      "midi": 85,
      "hit": false,
      "t": 15000,
      "d": 375,
      "v": 100
    },
    {
      "midi": 64,
      "hit": false,
      "t": 15000,
      "d": 93.75,
      "v": 100
    },
    {
      "midi": 49,
      "hit": false,
      "t": 15000,
      "d": 93.75,
      "v": 100
    },
    {
      "midi": 45,
      "hit": false,
      "t": 15000,
      "d": 93.75,
      "v": 100
    },
    {
      "midi": 43,
      "hit": false,
      "t": 15000,
      "d": 140.625,
      "v": 100
    },
    {
      "midi": 36,
      "hit": false,
      "t": 15000,
      "d": 0.78125,
      "v": 100
    },
    {
      "midi": 85,
      "hit": false,
      "t": 15000,
      "d": 375,
      "v": 100
    },
    {
      "midi": 64,
      "hit": false,
      "t": 15000,
      "d": 93.75,
      "v": 100
    },
    {
      "midi": 49,
      "hit": false,
      "t": 15000,
      "d": 93.75,
      "v": 100
    },
    {
      "midi": 45,
      "hit": false,
      "t": 15000,
      "d": 93.75,
      "v": 100
    },
    {
      "midi": 64,
      "hit": false,
      "t": 15093.75,
      "d": 187.5,
      "v": 100
    },
    {
      "midi": 64,
      "hit": false,
      "t": 15093.75,
      "d": 187.5,
      "v": 100
    },
    {
      "midi": 43,
      "hit": false,
      "t": 15187.5,
      "d": 1312.5,
      "v": 100
    },
    {
      "midi": 36,
      "hit": false,
      "t": 15187.5,
      "d": 0.78125,
      "v": 100
    },
    {
      "midi": 64,
      "hit": false,
      "t": 15281.25,
      "d": 93.75,
      "v": 100
    },
    {
      "midi": 64,
      "hit": false,
      "t": 15281.25,
      "d": 93.75,
      "v": 100
    },
    {
      "midi": 83,
      "hit": false,
      "t": 15375,
      "d": 187.5,
      "v": 100
    },
    {
      "midi": 64,
      "hit": false,
      "t": 15375,
      "d": 93.75,
      "v": 100
    },
    {
      "midi": 40,
      "hit": false,
      "t": 15375,
      "d": 0.78125,
      "v": 100
    },
    {
      "midi": 83,
      "hit": false,
      "t": 15375,
      "d": 187.5,
      "v": 100
    },
    {
      "midi": 64,
      "hit": false,
      "t": 15375,
      "d": 93.75,
      "v": 100
    },
    {
      "midi": 64,
      "hit": false,
      "t": 15468.75,
      "d": 187.5,
      "v": 100
    },
    {
      "midi": 64,
      "hit": false,
      "t": 15468.75,
      "d": 187.5,
      "v": 100
    },
    {
      "midi": 81,
      "hit": false,
      "t": 15562.5,
      "d": 375,
      "v": 100
    },
    {
      "midi": 45,
      "hit": false,
      "t": 15562.5,
      "d": 93.75,
      "v": 100
    },
    {
      "midi": 49,
      "hit": false,
      "t": 15562.5,
      "d": 93.75,
      "v": 100
    },
    {
      "midi": 81,
      "hit": false,
      "t": 15562.5,
      "d": 375,
      "v": 100
    },
    {
      "midi": 81,
      "hit": false,
      "t": 15562.5,
      "d": 375,
      "v": 100
    },
    {
      "midi": 45,
      "hit": false,
      "t": 15562.5,
      "d": 93.75,
      "v": 100
    },
    {
      "midi": 49,
      "hit": false,
      "t": 15562.5,
      "d": 93.75,
      "v": 100
    },
    {
      "midi": 64,
      "hit": false,
      "t": 15656.25,
      "d": 93.75,
      "v": 100
    },
    {
      "midi": 64,
      "hit": false,
      "t": 15656.25,
      "d": 93.75,
      "v": 100
    },
    {
      "midi": 64,
      "hit": false,
      "t": 15750,
      "d": 93.75,
      "v": 100
    },
    {
      "midi": 36,
      "hit": false,
      "t": 15750,
      "d": 0.78125,
      "v": 100
    },
    {
      "midi": 40,
      "hit": false,
      "t": 15750,
      "d": 0.78125,
      "v": 100
    },
    {
      "midi": 64,
      "hit": false,
      "t": 15750,
      "d": 93.75,
      "v": 100
    },
    {
      "midi": 64,
      "hit": false,
      "t": 15843.75,
      "d": 187.5,
      "v": 100
    },
    {
      "midi": 64,
      "hit": false,
      "t": 15843.75,
      "d": 187.5,
      "v": 100
    },
    {
      "midi": 79,
      "hit": false,
      "t": 15937.5,
      "d": 328.125,
      "v": 100
    },
    {
      "midi": 81,
      "hit": false,
      "t": 15937.5,
      "d": 328.125,
      "v": 100
    },
    {
      "midi": 36,
      "hit": false,
      "t": 15937.5,
      "d": 0.78125,
      "v": 100
    },
    {
      "midi": 38,
      "hit": false,
      "t": 15937.5,
      "d": 0.78125,
      "v": 100
    },
    {
      "midi": 79,
      "hit": false,
      "t": 15937.5,
      "d": 328.125,
      "v": 100
    },
    {
      "midi": 64,
      "hit": false,
      "t": 16031.25,
      "d": 93.75,
      "v": 100
    },
    {
      "midi": 64,
      "hit": false,
      "t": 16031.25,
      "d": 93.75,
      "v": 100
    },
    {
      "midi": 64,
      "hit": false,
      "t": 16125,
      "d": 93.75,
      "v": 100
    },
    {
      "midi": 45,
      "hit": false,
      "t": 16125,
      "d": 93.75,
      "v": 100
    },
    {
      "midi": 49,
      "hit": false,
      "t": 16125,
      "d": 93.75,
      "v": 100
    },
    {
      "midi": 40,
      "hit": false,
      "t": 16125,
      "d": 0.78125,
      "v": 100
    },
    {
      "midi": 64,
      "hit": false,
      "t": 16125,
      "d": 93.75,
      "v": 100
    },
    {
      "midi": 45,
      "hit": false,
      "t": 16125,
      "d": 93.75,
      "v": 100
    },
    {
      "midi": 49,
      "hit": false,
      "t": 16125,
      "d": 93.75,
      "v": 100
    },
    {
      "midi": 64,
      "hit": false,
      "t": 16218.75,
      "d": 187.5,
      "v": 100
    },
    {
      "midi": 64,
      "hit": false,
      "t": 16218.75,
      "d": 187.5,
      "v": 100
    },
    {
      "midi": 79,
      "hit": false,
      "t": 16312.5,
      "d": 187.5,
      "v": 100
    },
    {
      "midi": 49,
      "hit": false,
      "t": 16312.5,
      "d": 93.75,
      "v": 100
    },
    {
      "midi": 45,
      "hit": false,
      "t": 16312.5,
      "d": 93.75,
      "v": 100
    },
    {
      "midi": 81,
      "hit": false,
      "t": 16312.5,
      "d": 187.5,
      "v": 100
    },
    {
      "midi": 79,
      "hit": false,
      "t": 16312.5,
      "d": 187.5,
      "v": 100
    },
    {
      "midi": 49,
      "hit": false,
      "t": 16312.5,
      "d": 93.75,
      "v": 100
    },
    {
      "midi": 45,
      "hit": false,
      "t": 16312.5,
      "d": 93.75,
      "v": 100
    },
    {
      "midi": 64,
      "hit": false,
      "t": 16406.25,
      "d": 93.75,
      "v": 100
    },
    {
      "midi": 64,
      "hit": false,
      "t": 16406.25,
      "d": 93.75,
      "v": 100
    },
    {
      "midi": 83,
      "hit": false,
      "t": 16500,
      "d": 703.125,
      "v": 100
    },
    {
      "midi": 64,
      "hit": false,
      "t": 16500,
      "d": 93.75,
      "v": 100
    },
    {
      "midi": 52,
      "hit": false,
      "t": 16500,
      "d": 93.75,
      "v": 100
    },
    {
      "midi": 49,
      "hit": false,
      "t": 16500,
      "d": 93.75,
      "v": 100
    },
    {
      "midi": 42,
      "hit": false,
      "t": 16500,
      "d": 140.625,
      "v": 100
    },
    {
      "midi": 79,
      "hit": false,
      "t": 16500,
      "d": 703.125,
      "v": 100
    },
    {
      "midi": 36,
      "hit": false,
      "t": 16500,
      "d": 0.78125,
      "v": 100
    },
    {
      "midi": 83,
      "hit": false,
      "t": 16500,
      "d": 703.125,
      "v": 100
    },
    {
      "midi": 64,
      "hit": false,
      "t": 16500,
      "d": 93.75,
      "v": 100
    },
    {
      "midi": 52,
      "hit": false,
      "t": 16500,
      "d": 93.75,
      "v": 100
    },
    {
      "midi": 49,
      "hit": false,
      "t": 16500,
      "d": 93.75,
      "v": 100
    },
    {
      "midi": 64,
      "hit": false,
      "t": 16593.75,
      "d": 187.5,
      "v": 100
    },
    {
      "midi": 64,
      "hit": false,
      "t": 16593.75,
      "d": 187.5,
      "v": 100
    },
    {
      "midi": 42,
      "hit": false,
      "t": 16687.5,
      "d": 1312.5,
      "v": 100
    },
    {
      "midi": 36,
      "hit": false,
      "t": 16687.5,
      "d": 0.78125,
      "v": 100
    },
    {
      "midi": 64,
      "hit": false,
      "t": 16781.25,
      "d": 93.75,
      "v": 100
    },
    {
      "midi": 64,
      "hit": false,
      "t": 16781.25,
      "d": 93.75,
      "v": 100
    },
    {
      "midi": 64,
      "hit": false,
      "t": 16875,
      "d": 93.75,
      "v": 100
    },
    {
      "midi": 40,
      "hit": false,
      "t": 16875,
      "d": 0.78125,
      "v": 100
    },
    {
      "midi": 64,
      "hit": false,
      "t": 16875,
      "d": 93.75,
      "v": 100
    },
    {
      "midi": 64,
      "hit": false,
      "t": 16968.75,
      "d": 187.5,
      "v": 100
    },
    {
      "midi": 64,
      "hit": false,
      "t": 16968.75,
      "d": 187.5,
      "v": 100
    },
    {
      "midi": 74,
      "hit": false,
      "t": 17062.5,
      "d": 375,
      "v": 100
    },
    {
      "midi": 52,
      "hit": false,
      "t": 17062.5,
      "d": 93.75,
      "v": 100
    },
    {
      "midi": 49,
      "hit": false,
      "t": 17062.5,
      "d": 93.75,
      "v": 100
    },
    {
      "midi": 74,
      "hit": false,
      "t": 17062.5,
      "d": 375,
      "v": 100
    },
    {
      "midi": 52,
      "hit": false,
      "t": 17062.5,
      "d": 93.75,
      "v": 100
    },
    {
      "midi": 49,
      "hit": false,
      "t": 17062.5,
      "d": 93.75,
      "v": 100
    },
    {
      "midi": 64,
      "hit": false,
      "t": 17156.25,
      "d": 93.75,
      "v": 100
    },
    {
      "midi": 38,
      "hit": false,
      "t": 17156.25,
      "d": 0.78125,
      "v": 100
    },
    {
      "midi": 64,
      "hit": false,
      "t": 17156.25,
      "d": 93.75,
      "v": 100
    },
    {
      "midi": 83,
      "hit": false,
      "t": 17250,
      "d": 187.5,
      "v": 100
    },
    {
      "midi": 64,
      "hit": false,
      "t": 17250,
      "d": 93.75,
      "v": 100
    },
    {
      "midi": 83,
      "hit": false,
      "t": 17250,
      "d": 187.5,
      "v": 100
    },
    {
      "midi": 36,
      "hit": false,
      "t": 17250,
      "d": 0.78125,
      "v": 100
    },
    {
      "midi": 83,
      "hit": false,
      "t": 17250,
      "d": 187.5,
      "v": 100
    },
    {
      "midi": 64,
      "hit": false,
      "t": 17250,
      "d": 93.75,
      "v": 100
    },
    {
      "midi": 64,
      "hit": false,
      "t": 17343.75,
      "d": 187.5,
      "v": 100
    },
    {
      "midi": 38,
      "hit": false,
      "t": 17343.75,
      "d": 0.78125,
      "v": 100
    },
    {
      "midi": 64,
      "hit": false,
      "t": 17343.75,
      "d": 187.5,
      "v": 100
    },
    {
      "midi": 73,
      "hit": false,
      "t": 17437.5,
      "d": 2062.5,
      "v": 100
    },
    {
      "midi": 52,
      "hit": false,
      "t": 17437.5,
      "d": 93.75,
      "v": 100
    },
    {
      "midi": 49,
      "hit": false,
      "t": 17437.5,
      "d": 93.75,
      "v": 100
    },
    {
      "midi": 36,
      "hit": false,
      "t": 17437.5,
      "d": 0.78125,
      "v": 100
    },
    {
      "midi": 73,
      "hit": false,
      "t": 17437.5,
      "d": 2062.5,
      "v": 100
    },
    {
      "midi": 52,
      "hit": false,
      "t": 17437.5,
      "d": 93.75,
      "v": 100
    },
    {
      "midi": 49,
      "hit": false,
      "t": 17437.5,
      "d": 93.75,
      "v": 100
    },
    {
      "midi": 83,
      "hit": false,
      "t": 17484.375,
      "d": 140.625,
      "v": 100
    },
    {
      "midi": 83,
      "hit": false,
      "t": 17484.375,
      "d": 140.625,
      "v": 100
    },
    {
      "midi": 83,
      "hit": false,
      "t": 17484.375,
      "d": 140.625,
      "v": 100
    },
    {
      "midi": 64,
      "hit": false,
      "t": 17531.25,
      "d": 93.75,
      "v": 100
    },
    {
      "midi": 64,
      "hit": false,
      "t": 17531.25,
      "d": 93.75,
      "v": 100
    },
    {
      "midi": 64,
      "hit": false,
      "t": 17625,
      "d": 93.75,
      "v": 100
    },
    {
      "midi": 52,
      "hit": false,
      "t": 17625,
      "d": 93.75,
      "v": 100
    },
    {
      "midi": 49,
      "hit": false,
      "t": 17625,
      "d": 93.75,
      "v": 100
    },
    {
      "midi": 40,
      "hit": false,
      "t": 17625,
      "d": 0.78125,
      "v": 100
    },
    {
      "midi": 64,
      "hit": false,
      "t": 17625,
      "d": 93.75,
      "v": 100
    },
    {
      "midi": 52,
      "hit": false,
      "t": 17625,
      "d": 93.75,
      "v": 100
    },
    {
      "midi": 49,
      "hit": false,
      "t": 17625,
      "d": 93.75,
      "v": 100
    },
    {
      "midi": 83,
      "hit": false,
      "t": 17671.875,
      "d": 140.625,
      "v": 100
    },
    {
      "midi": 83,
      "hit": false,
      "t": 17671.875,
      "d": 140.625,
      "v": 100
    },
    {
      "midi": 83,
      "hit": false,
      "t": 17671.875,
      "d": 140.625,
      "v": 100
    },
    {
      "midi": 64,
      "hit": false,
      "t": 17718.75,
      "d": 187.5,
      "v": 100
    },
    {
      "midi": 64,
      "hit": false,
      "t": 17718.75,
      "d": 187.5,
      "v": 100
    },
    {
      "midi": 83,
      "hit": false,
      "t": 17859.375,
      "d": 140.625,
      "v": 100
    },
    {
      "midi": 83,
      "hit": false,
      "t": 17859.375,
      "d": 140.625,
      "v": 100
    },
    {
      "midi": 83,
      "hit": false,
      "t": 17859.375,
      "d": 140.625,
      "v": 100
    },
    {
      "midi": 64,
      "hit": false,
      "t": 17906.25,
      "d": 93.75,
      "v": 100
    },
    {
      "midi": 64,
      "hit": false,
      "t": 17906.25,
      "d": 93.75,
      "v": 100
    },
    {
      "midi": 85,
      "hit": false,
      "t": 18000,
      "d": 515.625,
      "v": 100
    },
    {
      "midi": 62,
      "hit": false,
      "t": 18000,
      "d": 93.75,
      "v": 100
    },
    {
      "midi": 49,
      "hit": false,
      "t": 18000,
      "d": 93.75,
      "v": 100
    },
    {
      "midi": 45,
      "hit": false,
      "t": 18000,
      "d": 93.75,
      "v": 100
    },
    {
      "midi": 40,
      "hit": false,
      "t": 18000,
      "d": 140.625,
      "v": 100
    },
    {
      "midi": 85,
      "hit": false,
      "t": 18000,
      "d": 515.625,
      "v": 100
    },
    {
      "midi": 36,
      "hit": false,
      "t": 18000,
      "d": 0.78125,
      "v": 100
    },
    {
      "midi": 85,
      "hit": false,
      "t": 18000,
      "d": 515.625,
      "v": 100
    },
    {
      "midi": 62,
      "hit": false,
      "t": 18000,
      "d": 93.75,
      "v": 100
    },
    {
      "midi": 49,
      "hit": false,
      "t": 18000,
      "d": 93.75,
      "v": 100
    },
    {
      "midi": 45,
      "hit": false,
      "t": 18000,
      "d": 93.75,
      "v": 100
    },
    {
      "midi": 62,
      "hit": false,
      "t": 18093.75,
      "d": 187.5,
      "v": 100
    },
    {
      "midi": 62,
      "hit": false,
      "t": 18093.75,
      "d": 187.5,
      "v": 100
    },
    {
      "midi": 40,
      "hit": false,
      "t": 18187.5,
      "d": 515.625,
      "v": 100
    },
    {
      "midi": 36,
      "hit": false,
      "t": 18187.5,
      "d": 0.78125,
      "v": 100
    },
    {
      "midi": 62,
      "hit": false,
      "t": 18281.25,
      "d": 93.75,
      "v": 100
    },
    {
      "midi": 62,
      "hit": false,
      "t": 18281.25,
      "d": 93.75,
      "v": 100
    },
    {
      "midi": 61,
      "hit": false,
      "t": 18375,
      "d": 93.75,
      "v": 100
    },
    {
      "midi": 40,
      "hit": false,
      "t": 18375,
      "d": 0.78125,
      "v": 100
    },
    {
      "midi": 36,
      "hit": false,
      "t": 18375,
      "d": 0.78125,
      "v": 100
    },
    {
      "midi": 61,
      "hit": false,
      "t": 18375,
      "d": 93.75,
      "v": 100
    },
    {
      "midi": 61,
      "hit": false,
      "t": 18468.75,
      "d": 187.5,
      "v": 100
    },
    {
      "midi": 61,
      "hit": false,
      "t": 18468.75,
      "d": 187.5,
      "v": 100
    },
    {
      "midi": 85,
      "hit": false,
      "t": 18562.5,
      "d": 187.5,
      "v": 100
    },
    {
      "midi": 45,
      "hit": false,
      "t": 18562.5,
      "d": 93.75,
      "v": 100
    },
    {
      "midi": 49,
      "hit": false,
      "t": 18562.5,
      "d": 93.75,
      "v": 100
    },
    {
      "midi": 85,
      "hit": false,
      "t": 18562.5,
      "d": 187.5,
      "v": 100
    },
    {
      "midi": 85,
      "hit": false,
      "t": 18562.5,
      "d": 187.5,
      "v": 100
    },
    {
      "midi": 45,
      "hit": false,
      "t": 18562.5,
      "d": 93.75,
      "v": 100
    },
    {
      "midi": 49,
      "hit": false,
      "t": 18562.5,
      "d": 93.75,
      "v": 100
    },
    {
      "midi": 61,
      "hit": false,
      "t": 18656.25,
      "d": 93.75,
      "v": 100
    },
    {
      "midi": 61,
      "hit": false,
      "t": 18656.25,
      "d": 93.75,
      "v": 100
    },
    {
      "midi": 86,
      "hit": false,
      "t": 18750,
      "d": 375,
      "v": 100
    },
    {
      "midi": 61,
      "hit": false,
      "t": 18750,
      "d": 93.75,
      "v": 100
    },
    {
      "midi": 40,
      "hit": false,
      "t": 18750,
      "d": 328.125,
      "v": 100
    },
    {
      "midi": 86,
      "hit": false,
      "t": 18750,
      "d": 375,
      "v": 100
    },
    {
      "midi": 40,
      "hit": false,
      "t": 18750,
      "d": 0.78125,
      "v": 100
    },
    {
      "midi": 38,
      "hit": false,
      "t": 18750,
      "d": 0.78125,
      "v": 100
    },
    {
      "midi": 36,
      "hit": false,
      "t": 18750,
      "d": 0.78125,
      "v": 100
    },
    {
      "midi": 86,
      "hit": false,
      "t": 18750,
      "d": 375,
      "v": 100
    },
    {
      "midi": 61,
      "hit": false,
      "t": 18750,
      "d": 93.75,
      "v": 100
    },
    {
      "midi": 61,
      "hit": false,
      "t": 18843.75,
      "d": 187.5,
      "v": 100
    },
    {
      "midi": 61,
      "hit": false,
      "t": 18843.75,
      "d": 187.5,
      "v": 100
    },
    {
      "midi": 45,
      "hit": false,
      "t": 18937.5,
      "d": 93.75,
      "v": 100
    },
    {
      "midi": 49,
      "hit": false,
      "t": 18937.5,
      "d": 93.75,
      "v": 100
    },
    {
      "midi": 45,
      "hit": false,
      "t": 18937.5,
      "d": 93.75,
      "v": 100
    },
    {
      "midi": 49,
      "hit": false,
      "t": 18937.5,
      "d": 93.75,
      "v": 100
    },
    {
      "midi": 61,
      "hit": false,
      "t": 19031.25,
      "d": 93.75,
      "v": 100
    },
    {
      "midi": 61,
      "hit": false,
      "t": 19031.25,
      "d": 93.75,
      "v": 100
    },
    {
      "midi": 85,
      "hit": false,
      "t": 19125,
      "d": 375,
      "v": 100
    },
    {
      "midi": 61,
      "hit": false,
      "t": 19125,
      "d": 93.75,
      "v": 100
    },
    {
      "midi": 45,
      "hit": false,
      "t": 19125,
      "d": 93.75,
      "v": 100
    },
    {
      "midi": 49,
      "hit": false,
      "t": 19125,
      "d": 93.75,
      "v": 100
    },
    {
      "midi": 40,
      "hit": false,
      "t": 19125,
      "d": 328.125,
      "v": 100
    },
    {
      "midi": 88,
      "hit": false,
      "t": 19125,
      "d": 375,
      "v": 100
    },
    {
      "midi": 40,
      "hit": false,
      "t": 19125,
      "d": 0.78125,
      "v": 100
    },
    {
      "midi": 38,
      "hit": false,
      "t": 19125,
      "d": 0.78125,
      "v": 100
    },
    {
      "midi": 36,
      "hit": false,
      "t": 19125,
      "d": 0.78125,
      "v": 100
    },
    {
      "midi": 85,
      "hit": false,
      "t": 19125,
      "d": 375,
      "v": 100
    },
    {
      "midi": 61,
      "hit": false,
      "t": 19125,
      "d": 93.75,
      "v": 100
    },
    {
      "midi": 45,
      "hit": false,
      "t": 19125,
      "d": 93.75,
      "v": 100
    },
    {
      "midi": 49,
      "hit": false,
      "t": 19125,
      "d": 93.75,
      "v": 100
    },
    {
      "midi": 61,
      "hit": false,
      "t": 19218.75,
      "d": 187.5,
      "v": 100
    },
    {
      "midi": 61,
      "hit": false,
      "t": 19218.75,
      "d": 187.5,
      "v": 100
    },
    {
      "midi": 61,
      "hit": false,
      "t": 19406.25,
      "d": 93.75,
      "v": 100
    },
    {
      "midi": 61,
      "hit": false,
      "t": 19406.25,
      "d": 93.75,
      "v": 100
    },
    {
      "midi": 83,
      "hit": false,
      "t": 19500,
      "d": 1500,
      "v": 100
    },
    {
      "midi": 50,
      "hit": false,
      "t": 19500,
      "d": 93.75,
      "v": 100
    },
    {
      "midi": 47,
      "hit": false,
      "t": 19500,
      "d": 93.75,
      "v": 100
    },
    {
      "midi": 38,
      "hit": false,
      "t": 19500,
      "d": 1453.125,
      "v": 100
    },
    {
      "midi": 90,
      "hit": false,
      "t": 19500,
      "d": 1500,
      "v": 100
    },
    {
      "midi": 40,
      "hit": false,
      "t": 19500,
      "d": 0.78125,
      "v": 100
    },
    {
      "midi": 38,
      "hit": false,
      "t": 19500,
      "d": 0.78125,
      "v": 100
    },
    {
      "midi": 36,
      "hit": false,
      "t": 19500,
      "d": 0.78125,
      "v": 100
    },
    {
      "midi": 47,
      "hit": false,
      "t": 19500,
      "d": 1500,
      "v": 100
    },
    {
      "midi": 83,
      "hit": false,
      "t": 19500,
      "d": 1500,
      "v": 100
    },
    {
      "midi": 50,
      "hit": false,
      "t": 19500,
      "d": 93.75,
      "v": 100
    },
    {
      "midi": 47,
      "hit": false,
      "t": 19500,
      "d": 93.75,
      "v": 100
    },
    {
      "midi": 36,
      "hit": false,
      "t": 19781.25,
      "d": 0.78125,
      "v": 100
    },
    {
      "midi": 38,
      "hit": false,
      "t": 19781.25,
      "d": 0.78125,
      "v": 100
    },
    {
      "midi": 36,
      "hit": false,
      "t": 19968.75,
      "d": 0.78125,
      "v": 100
    },
    {
      "midi": 38,
      "hit": false,
      "t": 19968.75,
      "d": 0.78125,
      "v": 100
    },
    {
      "midi": 50,
      "hit": false,
      "t": 20062.5,
      "d": 93.75,
      "v": 100
    },
    {
      "midi": 47,
      "hit": false,
      "t": 20062.5,
      "d": 93.75,
      "v": 100
    },
    {
      "midi": 50,
      "hit": false,
      "t": 20062.5,
      "d": 93.75,
      "v": 100
    },
    {
      "midi": 47,
      "hit": false,
      "t": 20062.5,
      "d": 93.75,
      "v": 100
    },
    {
      "midi": 40,
      "hit": false,
      "t": 20250,
      "d": 0.78125,
      "v": 100
    },
    {
      "midi": 38,
      "hit": false,
      "t": 20250,
      "d": 0.78125,
      "v": 100
    },
    {
      "midi": 36,
      "hit": false,
      "t": 20250,
      "d": 0.78125,
      "v": 100
    },
    {
      "midi": 50,
      "hit": false,
      "t": 20437.5,
      "d": 93.75,
      "v": 100
    },
    {
      "midi": 47,
      "hit": false,
      "t": 20437.5,
      "d": 93.75,
      "v": 100
    },
    {
      "midi": 50,
      "hit": false,
      "t": 20437.5,
      "d": 93.75,
      "v": 100
    },
    {
      "midi": 47,
      "hit": false,
      "t": 20437.5,
      "d": 93.75,
      "v": 100
    },
    {
      "midi": 36,
      "hit": false,
      "t": 20531.25,
      "d": 0.78125,
      "v": 100
    },
    {
      "midi": 38,
      "hit": false,
      "t": 20531.25,
      "d": 0.78125,
      "v": 100
    },
    {
      "midi": 50,
      "hit": false,
      "t": 20625,
      "d": 93.75,
      "v": 100
    },
    {
      "midi": 47,
      "hit": false,
      "t": 20625,
      "d": 93.75,
      "v": 100
    },
    {
      "midi": 50,
      "hit": false,
      "t": 20625,
      "d": 93.75,
      "v": 100
    },
    {
      "midi": 47,
      "hit": false,
      "t": 20625,
      "d": 93.75,
      "v": 100
    },
    {
      "midi": 36,
      "hit": false,
      "t": 20718.75,
      "d": 0.78125,
      "v": 100
    },
    {
      "midi": 38,
      "hit": false,
      "t": 20718.75,
      "d": 0.78125,
      "v": 100
    },
    {
      "midi": 50,
      "hit": false,
      "t": 21000,
      "d": 93.75,
      "v": 100
    },
    {
      "midi": 47,
      "hit": false,
      "t": 21000,
      "d": 93.75,
      "v": 100
    },
    {
      "midi": 38,
      "hit": false,
      "t": 21000,
      "d": 750,
      "v": 100
    },
    {
      "midi": 40,
      "hit": false,
      "t": 21000,
      "d": 0.78125,
      "v": 100
    },
    {
      "midi": 38,
      "hit": false,
      "t": 21000,
      "d": 0.78125,
      "v": 100
    },
    {
      "midi": 36,
      "hit": false,
      "t": 21000,
      "d": 0.78125,
      "v": 100
    },
    {
      "midi": 55,
      "hit": false,
      "t": 21000,
      "d": 0.78125,
      "v": 100
    },
    {
      "midi": 50,
      "hit": false,
      "t": 21000,
      "d": 93.75,
      "v": 100
    },
    {
      "midi": 47,
      "hit": false,
      "t": 21000,
      "d": 93.75,
      "v": 100
    },
    {
      "midi": 50,
      "hit": false,
      "t": 21187.5,
      "d": 0.78125,
      "v": 100
    },
    {
      "midi": 48,
      "hit": false,
      "t": 21281.25,
      "d": 0.78125,
      "v": 100
    },
    {
      "midi": 47,
      "hit": false,
      "t": 21375,
      "d": 0.78125,
      "v": 100
    },
    {
      "midi": 45,
      "hit": false,
      "t": 21468.75,
      "d": 0.78125,
      "v": 100
    },
    {
      "midi": 43,
      "hit": false,
      "t": 21562.5,
      "d": 0.78125,
      "v": 100
    },
    {
      "midi": 41,
      "hit": false,
      "t": 21656.25,
      "d": 0.78125,
      "v": 100
    },
    {
      "midi": 49,
      "hit": false,
      "t": 21843.75,
      "d": 562.5,
      "v": 100
    },
    {
      "midi": 45,
      "hit": false,
      "t": 21843.75,
      "d": 562.5,
      "v": 100
    },
    {
      "midi": 40,
      "hit": false,
      "t": 21843.75,
      "d": 0.78125,
      "v": 100
    },
    {
      "midi": 38,
      "hit": false,
      "t": 21843.75,
      "d": 0.78125,
      "v": 100
    },
    {
      "midi": 36,
      "hit": false,
      "t": 21843.75,
      "d": 0.78125,
      "v": 100
    },
    {
      "midi": 57,
      "hit": false,
      "t": 21843.75,
      "d": 0.78125,
      "v": 100
    },
    {
      "midi": 49,
      "hit": false,
      "t": 21843.75,
      "d": 562.5,
      "v": 100
    },
    {
      "midi": 45,
      "hit": false,
      "t": 21843.75,
      "d": 562.5,
      "v": 100
    },
    {
      "midi": 76,
      "hit": false,
      "t": 22500,
      "d": 1500,
      "v": 100
    },
    {
      "midi": 57,
      "hit": false,
      "t": 22500,
      "d": 46.875,
      "v": 100
    },
    {
      "midi": 57,
      "hit": false,
      "t": 22500,
      "d": 46.875,
      "v": 100
    },
    {
      "midi": 52,
      "hit": false,
      "t": 22500,
      "d": 140.625,
      "v": 100
    },
    {
      "midi": 36,
      "hit": false,
      "t": 22500,
      "d": 0.78125,
      "v": 100
    },
    {
      "midi": 55,
      "hit": false,
      "t": 22500,
      "d": 0.78125,
      "v": 100
    },
    {
      "midi": 76,
      "hit": false,
      "t": 22500,
      "d": 1500,
      "v": 100
    },
    {
      "midi": 57,
      "hit": false,
      "t": 22500,
      "d": 46.875,
      "v": 100
    },
    {
      "midi": 57,
      "hit": false,
      "t": 22500,
      "d": 46.875,
      "v": 100
    },
    {
      "midi": 61,
      "hit": false,
      "t": 22546.875,
      "d": 140.625,
      "v": 100
    },
    {
      "midi": 61,
      "hit": false,
      "t": 22546.875,
      "d": 140.625,
      "v": 100
    },
    {
      "midi": 61,
      "hit": false,
      "t": 22546.875,
      "d": 140.625,
      "v": 100
    },
    {
      "midi": 61,
      "hit": false,
      "t": 22546.875,
      "d": 140.625,
      "v": 100
    },
    {
      "midi": 64,
      "hit": false,
      "t": 22593.75,
      "d": 93.75,
      "v": 100
    },
    {
      "midi": 64,
      "hit": false,
      "t": 22593.75,
      "d": 93.75,
      "v": 100
    },
    {
      "midi": 64,
      "hit": false,
      "t": 22593.75,
      "d": 93.75,
      "v": 100
    },
    {
      "midi": 64,
      "hit": false,
      "t": 22593.75,
      "d": 93.75,
      "v": 100
    },
    {
      "midi": 52,
      "hit": false,
      "t": 22687.5,
      "d": 468.75,
      "v": 100
    },
    {
      "midi": 36,
      "hit": false,
      "t": 22687.5,
      "d": 0.78125,
      "v": 100
    },
    {
      "midi": 64,
      "hit": false,
      "t": 22875,
      "d": 93.75,
      "v": 100
    },
    {
      "midi": 61,
      "hit": false,
      "t": 22875,
      "d": 93.75,
      "v": 100
    },
    {
      "midi": 57,
      "hit": false,
      "t": 22875,
      "d": 46.875,
      "v": 100
    },
    {
      "midi": 40,
      "hit": false,
      "t": 22875,
      "d": 0.78125,
      "v": 100
    },
    {
      "midi": 64,
      "hit": false,
      "t": 22875,
      "d": 93.75,
      "v": 100
    },
    {
      "midi": 61,
      "hit": false,
      "t": 22875,
      "d": 93.75,
      "v": 100
    },
    {
      "midi": 57,
      "hit": false,
      "t": 22875,
      "d": 46.875,
      "v": 100
    },
    {
      "midi": 61,
      "hit": false,
      "t": 22921.875,
      "d": 140.625,
      "v": 100
    },
    {
      "midi": 61,
      "hit": false,
      "t": 22921.875,
      "d": 140.625,
      "v": 100
    },
    {
      "midi": 64,
      "hit": false,
      "t": 22968.75,
      "d": 93.75,
      "v": 100
    },
    {
      "midi": 64,
      "hit": false,
      "t": 22968.75,
      "d": 93.75,
      "v": 100
    },
    {
      "midi": 74,
      "hit": false,
      "t": 23062.5,
      "d": 140.625,
      "v": 100
    },
    {
      "midi": 61,
      "hit": false,
      "t": 23062.5,
      "d": 93.75,
      "v": 100
    },
    {
      "midi": 64,
      "hit": false,
      "t": 23062.5,
      "d": 93.75,
      "v": 100
    },
    {
      "midi": 74,
      "hit": false,
      "t": 23062.5,
      "d": 140.625,
      "v": 100
    },
    {
      "midi": 61,
      "hit": false,
      "t": 23062.5,
      "d": 93.75,
      "v": 100
    },
    {
      "midi": 64,
      "hit": false,
      "t": 23062.5,
      "d": 93.75,
      "v": 100
    },
    {
      "midi": 74,
      "hit": false,
      "t": 23250,
      "d": 140.625,
      "v": 100
    },
    {
      "midi": 61,
      "hit": false,
      "t": 23250,
      "d": 93.75,
      "v": 100
    },
    {
      "midi": 64,
      "hit": false,
      "t": 23250,
      "d": 93.75,
      "v": 100
    },
    {
      "midi": 52,
      "hit": false,
      "t": 23250,
      "d": 140.625,
      "v": 100
    },
    {
      "midi": 36,
      "hit": false,
      "t": 23250,
      "d": 0.78125,
      "v": 100
    },
    {
      "midi": 74,
      "hit": false,
      "t": 23250,
      "d": 140.625,
      "v": 100
    },
    {
      "midi": 61,
      "hit": false,
      "t": 23250,
      "d": 93.75,
      "v": 100
    },
    {
      "midi": 64,
      "hit": false,
      "t": 23250,
      "d": 93.75,
      "v": 100
    },
    {
      "midi": 73,
      "hit": false,
      "t": 23437.5,
      "d": 187.5,
      "v": 100
    },
    {
      "midi": 64,
      "hit": false,
      "t": 23437.5,
      "d": 93.75,
      "v": 100
    },
    {
      "midi": 61,
      "hit": false,
      "t": 23437.5,
      "d": 93.75,
      "v": 100
    },
    {
      "midi": 57,
      "hit": false,
      "t": 23437.5,
      "d": 46.875,
      "v": 100
    },
    {
      "midi": 52,
      "hit": false,
      "t": 23437.5,
      "d": 468.75,
      "v": 100
    },
    {
      "midi": 36,
      "hit": false,
      "t": 23437.5,
      "d": 0.78125,
      "v": 100
    },
    {
      "midi": 73,
      "hit": false,
      "t": 23437.5,
      "d": 187.5,
      "v": 100
    },
    {
      "midi": 64,
      "hit": false,
      "t": 23437.5,
      "d": 93.75,
      "v": 100
    },
    {
      "midi": 61,
      "hit": false,
      "t": 23437.5,
      "d": 93.75,
      "v": 100
    },
    {
      "midi": 57,
      "hit": false,
      "t": 23437.5,
      "d": 46.875,
      "v": 100
    },
    {
      "midi": 61,
      "hit": false,
      "t": 23484.375,
      "d": 140.625,
      "v": 100
    },
    {
      "midi": 61,
      "hit": false,
      "t": 23484.375,
      "d": 140.625,
      "v": 100
    },
    {
      "midi": 64,
      "hit": false,
      "t": 23531.25,
      "d": 93.75,
      "v": 100
    },
    {
      "midi": 64,
      "hit": false,
      "t": 23531.25,
      "d": 93.75,
      "v": 100
    },
    {
      "midi": 74,
      "hit": false,
      "t": 23625,
      "d": 187.5,
      "v": 100
    },
    {
      "midi": 61,
      "hit": false,
      "t": 23625,
      "d": 93.75,
      "v": 100
    },
    {
      "midi": 64,
      "hit": false,
      "t": 23625,
      "d": 93.75,
      "v": 100
    },
    {
      "midi": 40,
      "hit": false,
      "t": 23625,
      "d": 0.78125,
      "v": 100
    },
    {
      "midi": 74,
      "hit": false,
      "t": 23625,
      "d": 187.5,
      "v": 100
    },
    {
      "midi": 61,
      "hit": false,
      "t": 23625,
      "d": 93.75,
      "v": 100
    },
    {
      "midi": 64,
      "hit": false,
      "t": 23625,
      "d": 93.75,
      "v": 100
    },
    {
      "midi": 76,
      "hit": false,
      "t": 23812.5,
      "d": 375,
      "v": 100
    },
    {
      "midi": 64,
      "hit": false,
      "t": 23812.5,
      "d": 93.75,
      "v": 100
    },
    {
      "midi": 61,
      "hit": false,
      "t": 23812.5,
      "d": 93.75,
      "v": 100
    },
    {
      "midi": 76,
      "hit": false,
      "t": 23812.5,
      "d": 375,
      "v": 100
    },
    {
      "midi": 64,
      "hit": false,
      "t": 23812.5,
      "d": 93.75,
      "v": 100
    },
    {
      "midi": 61,
      "hit": false,
      "t": 23812.5,
      "d": 93.75,
      "v": 100
    },
    {
      "midi": 74,
      "hit": false,
      "t": 24000,
      "d": 1500,
      "v": 100
    },
    {
      "midi": 55,
      "hit": false,
      "t": 24000,
      "d": 46.875,
      "v": 100
    },
    {
      "midi": 50,
      "hit": false,
      "t": 24000,
      "d": 140.625,
      "v": 100
    },
    {
      "midi": 36,
      "hit": false,
      "t": 24000,
      "d": 0.78125,
      "v": 100
    },
    {
      "midi": 74,
      "hit": false,
      "t": 24000,
      "d": 1500,
      "v": 100
    },
    {
      "midi": 55,
      "hit": false,
      "t": 24000,
      "d": 46.875,
      "v": 100
    },
    {
      "midi": 59,
      "hit": false,
      "t": 24046.875,
      "d": 140.625,
      "v": 100
    },
    {
      "midi": 59,
      "hit": false,
      "t": 24046.875,
      "d": 140.625,
      "v": 100
    },
    {
      "midi": 62,
      "hit": false,
      "t": 24093.75,
      "d": 93.75,
      "v": 100
    },
    {
      "midi": 62,
      "hit": false,
      "t": 24093.75,
      "d": 93.75,
      "v": 100
    },
    {
      "midi": 74,
      "hit": false,
      "t": 24187.5,
      "d": 187.5,
      "v": 100
    },
    {
      "midi": 50,
      "hit": false,
      "t": 24187.5,
      "d": 468.75,
      "v": 100
    },
    {
      "midi": 36,
      "hit": false,
      "t": 24187.5,
      "d": 0.78125,
      "v": 100
    },
    {
      "midi": 74,
      "hit": false,
      "t": 24187.5,
      "d": 187.5,
      "v": 100
    },
    {
      "midi": 73,
      "hit": false,
      "t": 24375,
      "d": 375,
      "v": 100
    },
    {
      "midi": 62,
      "hit": false,
      "t": 24375,
      "d": 93.75,
      "v": 100
    },
    {
      "midi": 59,
      "hit": false,
      "t": 24375,
      "d": 93.75,
      "v": 100
    },
    {
      "midi": 55,
      "hit": false,
      "t": 24375,
      "d": 46.875,
      "v": 100
    },
    {
      "midi": 40,
      "hit": false,
      "t": 24375,
      "d": 0.78125,
      "v": 100
    },
    {
      "midi": 73,
      "hit": false,
      "t": 24375,
      "d": 375,
      "v": 100
    },
    {
      "midi": 62,
      "hit": false,
      "t": 24375,
      "d": 93.75,
      "v": 100
    },
    {
      "midi": 59,
      "hit": false,
      "t": 24375,
      "d": 93.75,
      "v": 100
    },
    {
      "midi": 55,
      "hit": false,
      "t": 24375,
      "d": 46.875,
      "v": 100
    },
    {
      "midi": 59,
      "hit": false,
      "t": 24421.875,
      "d": 140.625,
      "v": 100
    },
    {
      "midi": 59,
      "hit": false,
      "t": 24421.875,
      "d": 140.625,
      "v": 100
    },
    {
      "midi": 62,
      "hit": false,
      "t": 24468.75,
      "d": 93.75,
      "v": 100
    },
    {
      "midi": 62,
      "hit": false,
      "t": 24468.75,
      "d": 93.75,
      "v": 100
    },
    {
      "midi": 62,
      "hit": false,
      "t": 24562.5,
      "d": 93.75,
      "v": 100
    },
    {
      "midi": 59,
      "hit": false,
      "t": 24562.5,
      "d": 93.75,
      "v": 100
    },
    {
      "midi": 62,
      "hit": false,
      "t": 24562.5,
      "d": 93.75,
      "v": 100
    },
    {
      "midi": 59,
      "hit": false,
      "t": 24562.5,
      "d": 93.75,
      "v": 100
    },
    {
      "midi": 71,
      "hit": false,
      "t": 24750,
      "d": 375,
      "v": 100
    },
    {
      "midi": 62,
      "hit": false,
      "t": 24750,
      "d": 93.75,
      "v": 100
    },
    {
      "midi": 59,
      "hit": false,
      "t": 24750,
      "d": 93.75,
      "v": 100
    },
    {
      "midi": 50,
      "hit": false,
      "t": 24750,
      "d": 140.625,
      "v": 100
    },
    {
      "midi": 36,
      "hit": false,
      "t": 24750,
      "d": 0.78125,
      "v": 100
    },
    {
      "midi": 40,
      "hit": false,
      "t": 24750,
      "d": 0.78125,
      "v": 100
    },
    {
      "midi": 71,
      "hit": false,
      "t": 24750,
      "d": 375,
      "v": 100
    },
    {
      "midi": 62,
      "hit": false,
      "t": 24750,
      "d": 93.75,
      "v": 100
    },
    {
      "midi": 59,
      "hit": false,
      "t": 24750,
      "d": 93.75,
      "v": 100
    },
    {
      "midi": 38,
      "hit": false,
      "t": 24843.75,
      "d": 0.78125,
      "v": 100
    },
    {
      "midi": 62,
      "hit": false,
      "t": 24937.5,
      "d": 93.75,
      "v": 100
    },
    {
      "midi": 59,
      "hit": false,
      "t": 24937.5,
      "d": 93.75,
      "v": 100
    },
    {
      "midi": 55,
      "hit": false,
      "t": 24937.5,
      "d": 46.875,
      "v": 100
    },
    {
      "midi": 50,
      "hit": false,
      "t": 24937.5,
      "d": 468.75,
      "v": 100
    },
    {
      "midi": 36,
      "hit": false,
      "t": 24937.5,
      "d": 0.78125,
      "v": 100
    },
    {
      "midi": 62,
      "hit": false,
      "t": 24937.5,
      "d": 93.75,
      "v": 100
    },
    {
      "midi": 59,
      "hit": false,
      "t": 24937.5,
      "d": 93.75,
      "v": 100
    },
    {
      "midi": 55,
      "hit": false,
      "t": 24937.5,
      "d": 46.875,
      "v": 100
    },
    {
      "midi": 59,
      "hit": false,
      "t": 24984.375,
      "d": 140.625,
      "v": 100
    },
    {
      "midi": 59,
      "hit": false,
      "t": 24984.375,
      "d": 140.625,
      "v": 100
    },
    {
      "midi": 62,
      "hit": false,
      "t": 25031.25,
      "d": 93.75,
      "v": 100
    },
    {
      "midi": 62,
      "hit": false,
      "t": 25031.25,
      "d": 93.75,
      "v": 100
    },
    {
      "midi": 69,
      "hit": false,
      "t": 25125,
      "d": 187.5,
      "v": 100
    },
    {
      "midi": 62,
      "hit": false,
      "t": 25125,
      "d": 93.75,
      "v": 100
    },
    {
      "midi": 59,
      "hit": false,
      "t": 25125,
      "d": 93.75,
      "v": 100
    },
    {
      "midi": 40,
      "hit": false,
      "t": 25125,
      "d": 0.78125,
      "v": 100
    },
    {
      "midi": 69,
      "hit": false,
      "t": 25125,
      "d": 187.5,
      "v": 100
    },
    {
      "midi": 62,
      "hit": false,
      "t": 25125,
      "d": 93.75,
      "v": 100
    },
    {
      "midi": 59,
      "hit": false,
      "t": 25125,
      "d": 93.75,
      "v": 100
    },
    {
      "midi": 71,
      "hit": false,
      "t": 25312.5,
      "d": 375,
      "v": 100
    },
    {
      "midi": 62,
      "hit": false,
      "t": 25312.5,
      "d": 93.75,
      "v": 100
    },
    {
      "midi": 59,
      "hit": false,
      "t": 25312.5,
      "d": 93.75,
      "v": 100
    },
    {
      "midi": 71,
      "hit": false,
      "t": 25312.5,
      "d": 375,
      "v": 100
    },
    {
      "midi": 62,
      "hit": false,
      "t": 25312.5,
      "d": 93.75,
      "v": 100
    },
    {
      "midi": 59,
      "hit": false,
      "t": 25312.5,
      "d": 93.75,
      "v": 100
    },
    {
      "midi": 76,
      "hit": false,
      "t": 25500,
      "d": 1500,
      "v": 100
    },
    {
      "midi": 57,
      "hit": false,
      "t": 25500,
      "d": 46.875,
      "v": 100
    },
    {
      "midi": 49,
      "hit": false,
      "t": 25500,
      "d": 140.625,
      "v": 100
    },
    {
      "midi": 36,
      "hit": false,
      "t": 25500,
      "d": 0.78125,
      "v": 100
    },
    {
      "midi": 76,
      "hit": false,
      "t": 25500,
      "d": 1500,
      "v": 100
    },
    {
      "midi": 57,
      "hit": false,
      "t": 25500,
      "d": 46.875,
      "v": 100
    },
    {
      "midi": 61,
      "hit": false,
      "t": 25546.875,
      "d": 140.625,
      "v": 100
    },
    {
      "midi": 61,
      "hit": false,
      "t": 25546.875,
      "d": 140.625,
      "v": 100
    },
    {
      "midi": 64,
      "hit": false,
      "t": 25593.75,
      "d": 93.75,
      "v": 100
    },
    {
      "midi": 64,
      "hit": false,
      "t": 25593.75,
      "d": 93.75,
      "v": 100
    },
    {
      "midi": 73,
      "hit": false,
      "t": 25687.5,
      "d": 187.5,
      "v": 100
    },
    {
      "midi": 49,
      "hit": false,
      "t": 25687.5,
      "d": 468.75,
      "v": 100
    },
    {
      "midi": 36,
      "hit": false,
      "t": 25687.5,
      "d": 0.78125,
      "v": 100
    },
    {
      "midi": 73,
      "hit": false,
      "t": 25687.5,
      "d": 187.5,
      "v": 100
    },
    {
      "midi": 74,
      "hit": false,
      "t": 25875,
      "d": 328.125,
      "v": 100
    },
    {
      "midi": 64,
      "hit": false,
      "t": 25875,
      "d": 93.75,
      "v": 100
    },
    {
      "midi": 61,
      "hit": false,
      "t": 25875,
      "d": 93.75,
      "v": 100
    },
    {
      "midi": 54,
      "hit": false,
      "t": 25875,
      "d": 46.875,
      "v": 100
    },
    {
      "midi": 40,
      "hit": false,
      "t": 25875,
      "d": 0.78125,
      "v": 100
    },
    {
      "midi": 74,
      "hit": false,
      "t": 25875,
      "d": 328.125,
      "v": 100
    },
    {
      "midi": 64,
      "hit": false,
      "t": 25875,
      "d": 93.75,
      "v": 100
    },
    {
      "midi": 61,
      "hit": false,
      "t": 25875,
      "d": 93.75,
      "v": 100
    },
    {
      "midi": 54,
      "hit": false,
      "t": 25875,
      "d": 46.875,
      "v": 100
    },
    {
      "midi": 57,
      "hit": false,
      "t": 25921.875,
      "d": 140.625,
      "v": 100
    },
    {
      "midi": 57,
      "hit": false,
      "t": 25921.875,
      "d": 140.625,
      "v": 100
    },
    {
      "midi": 61,
      "hit": false,
      "t": 25968.75,
      "d": 93.75,
      "v": 100
    },
    {
      "midi": 61,
      "hit": false,
      "t": 25968.75,
      "d": 93.75,
      "v": 100
    },
    {
      "midi": 61,
      "hit": false,
      "t": 26062.5,
      "d": 93.75,
      "v": 100
    },
    {
      "midi": 64,
      "hit": false,
      "t": 26062.5,
      "d": 93.75,
      "v": 100
    },
    {
      "midi": 61,
      "hit": false,
      "t": 26062.5,
      "d": 93.75,
      "v": 100
    },
    {
      "midi": 64,
      "hit": false,
      "t": 26062.5,
      "d": 93.75,
      "v": 100
    },
    {
      "midi": 74,
      "hit": false,
      "t": 26250,
      "d": 234.375,
      "v": 100
    },
    {
      "midi": 61,
      "hit": false,
      "t": 26250,
      "d": 93.75,
      "v": 100
    },
    {
      "midi": 64,
      "hit": false,
      "t": 26250,
      "d": 93.75,
      "v": 100
    },
    {
      "midi": 49,
      "hit": false,
      "t": 26250,
      "d": 140.625,
      "v": 100
    },
    {
      "midi": 36,
      "hit": false,
      "t": 26250,
      "d": 0.78125,
      "v": 100
    },
    {
      "midi": 74,
      "hit": false,
      "t": 26250,
      "d": 234.375,
      "v": 100
    },
    {
      "midi": 61,
      "hit": false,
      "t": 26250,
      "d": 93.75,
      "v": 100
    },
    {
      "midi": 64,
      "hit": false,
      "t": 26250,
      "d": 93.75,
      "v": 100
    },
    {
      "midi": 64,
      "hit": false,
      "t": 26437.5,
      "d": 93.75,
      "v": 100
    },
    {
      "midi": 61,
      "hit": false,
      "t": 26437.5,
      "d": 93.75,
      "v": 100
    },
    {
      "midi": 54,
      "hit": false,
      "t": 26437.5,
      "d": 46.875,
      "v": 100
    },
    {
      "midi": 49,
      "hit": false,
      "t": 26437.5,
      "d": 468.75,
      "v": 100
    },
    {
      "midi": 36,
      "hit": false,
      "t": 26437.5,
      "d": 0.78125,
      "v": 100
    },
    {
      "midi": 64,
      "hit": false,
      "t": 26437.5,
      "d": 93.75,
      "v": 100
    },
    {
      "midi": 61,
      "hit": false,
      "t": 26437.5,
      "d": 93.75,
      "v": 100
    },
    {
      "midi": 54,
      "hit": false,
      "t": 26437.5,
      "d": 46.875,
      "v": 100
    },
    {
      "midi": 57,
      "hit": false,
      "t": 26484.375,
      "d": 140.625,
      "v": 100
    },
    {
      "midi": 57,
      "hit": false,
      "t": 26484.375,
      "d": 140.625,
      "v": 100
    },
    {
      "midi": 61,
      "hit": false,
      "t": 26531.25,
      "d": 93.75,
      "v": 100
    },
    {
      "midi": 61,
      "hit": false,
      "t": 26531.25,
      "d": 93.75,
      "v": 100
    },
    {
      "midi": 74,
      "hit": false,
      "t": 26625,
      "d": 609.375,
      "v": 100
    },
    {
      "midi": 61,
      "hit": false,
      "t": 26625,
      "d": 93.75,
      "v": 100
    },
    {
      "midi": 64,
      "hit": false,
      "t": 26625,
      "d": 93.75,
      "v": 100
    },
    {
      "midi": 40,
      "hit": false,
      "t": 26625,
      "d": 0.78125,
      "v": 100
    },
    {
      "midi": 74,
      "hit": false,
      "t": 26625,
      "d": 609.375,
      "v": 100
    },
    {
      "midi": 61,
      "hit": false,
      "t": 26625,
      "d": 93.75,
      "v": 100
    },
    {
      "midi": 64,
      "hit": false,
      "t": 26625,
      "d": 93.75,
      "v": 100
    },
    {
      "midi": 64,
      "hit": false,
      "t": 26812.5,
      "d": 93.75,
      "v": 100
    },
    {
      "midi": 61,
      "hit": false,
      "t": 26812.5,
      "d": 93.75,
      "v": 100
    },
    {
      "midi": 64,
      "hit": false,
      "t": 26812.5,
      "d": 93.75,
      "v": 100
    },
    {
      "midi": 61,
      "hit": false,
      "t": 26812.5,
      "d": 93.75,
      "v": 100
    },
    {
      "midi": 73,
      "hit": false,
      "t": 27000,
      "d": 1500,
      "v": 100
    },
    {
      "midi": 54,
      "hit": false,
      "t": 27000,
      "d": 46.875,
      "v": 100
    },
    {
      "midi": 47,
      "hit": false,
      "t": 27000,
      "d": 140.625,
      "v": 100
    },
    {
      "midi": 36,
      "hit": false,
      "t": 27000,
      "d": 0.78125,
      "v": 100
    },
    {
      "midi": 73,
      "hit": false,
      "t": 27000,
      "d": 1500,
      "v": 100
    },
    {
      "midi": 54,
      "hit": false,
      "t": 27000,
      "d": 46.875,
      "v": 100
    },
    {
      "midi": 57,
      "hit": false,
      "t": 27046.875,
      "d": 140.625,
      "v": 100
    },
    {
      "midi": 57,
      "hit": false,
      "t": 27046.875,
      "d": 140.625,
      "v": 100
    },
    {
      "midi": 61,
      "hit": false,
      "t": 27093.75,
      "d": 93.75,
      "v": 100
    },
    {
      "midi": 61,
      "hit": false,
      "t": 27093.75,
      "d": 93.75,
      "v": 100
    },
    {
      "midi": 47,
      "hit": false,
      "t": 27187.5,
      "d": 468.75,
      "v": 100
    },
    {
      "midi": 36,
      "hit": false,
      "t": 27187.5,
      "d": 0.78125,
      "v": 100
    },
    {
      "midi": 61,
      "hit": false,
      "t": 27375,
      "d": 93.75,
      "v": 100
    },
    {
      "midi": 57,
      "hit": false,
      "t": 27375,
      "d": 93.75,
      "v": 100
    },
    {
      "midi": 52,
      "hit": false,
      "t": 27375,
      "d": 46.875,
      "v": 100
    },
    {
      "midi": 40,
      "hit": false,
      "t": 27375,
      "d": 0.78125,
      "v": 100
    },
    {
      "midi": 61,
      "hit": false,
      "t": 27375,
      "d": 93.75,
      "v": 100
    },
    {
      "midi": 57,
      "hit": false,
      "t": 27375,
      "d": 93.75,
      "v": 100
    },
    {
      "midi": 52,
      "hit": false,
      "t": 27375,
      "d": 46.875,
      "v": 100
    },
    {
      "midi": 55,
      "hit": false,
      "t": 27421.875,
      "d": 140.625,
      "v": 100
    },
    {
      "midi": 55,
      "hit": false,
      "t": 27421.875,
      "d": 140.625,
      "v": 100
    },
    {
      "midi": 59,
      "hit": false,
      "t": 27468.75,
      "d": 93.75,
      "v": 100
    },
    {
      "midi": 59,
      "hit": false,
      "t": 27468.75,
      "d": 93.75,
      "v": 100
    },
    {
      "midi": 61,
      "hit": false,
      "t": 27562.5,
      "d": 93.75,
      "v": 100
    },
    {
      "midi": 57,
      "hit": false,
      "t": 27562.5,
      "d": 93.75,
      "v": 100
    },
    {
      "midi": 61,
      "hit": false,
      "t": 27562.5,
      "d": 93.75,
      "v": 100
    },
    {
      "midi": 57,
      "hit": false,
      "t": 27562.5,
      "d": 93.75,
      "v": 100
    },
    {
      "midi": 61,
      "hit": false,
      "t": 27750,
      "d": 93.75,
      "v": 100
    },
    {
      "midi": 57,
      "hit": false,
      "t": 27750,
      "d": 93.75,
      "v": 100
    },
    {
      "midi": 47,
      "hit": false,
      "t": 27750,
      "d": 140.625,
      "v": 100
    },
    {
      "midi": 36,
      "hit": false,
      "t": 27750,
      "d": 0.78125,
      "v": 100
    },
    {
      "midi": 61,
      "hit": false,
      "t": 27750,
      "d": 93.75,
      "v": 100
    },
    {
      "midi": 57,
      "hit": false,
      "t": 27750,
      "d": 93.75,
      "v": 100
    },
    {
      "midi": 73,
      "hit": false,
      "t": 27937.5,
      "d": 187.5,
      "v": 100
    },
    {
      "midi": 61,
      "hit": false,
      "t": 27937.5,
      "d": 93.75,
      "v": 100
    },
    {
      "midi": 57,
      "hit": false,
      "t": 27937.5,
      "d": 93.75,
      "v": 100
    },
    {
      "midi": 52,
      "hit": false,
      "t": 27937.5,
      "d": 46.875,
      "v": 100
    },
    {
      "midi": 47,
      "hit": false,
      "t": 27937.5,
      "d": 468.75,
      "v": 100
    },
    {
      "midi": 36,
      "hit": false,
      "t": 27937.5,
      "d": 0.78125,
      "v": 100
    },
    {
      "midi": 73,
      "hit": false,
      "t": 27937.5,
      "d": 187.5,
      "v": 100
    },
    {
      "midi": 61,
      "hit": false,
      "t": 27937.5,
      "d": 93.75,
      "v": 100
    },
    {
      "midi": 57,
      "hit": false,
      "t": 27937.5,
      "d": 93.75,
      "v": 100
    },
    {
      "midi": 52,
      "hit": false,
      "t": 27937.5,
      "d": 46.875,
      "v": 100
    },
    {
      "midi": 55,
      "hit": false,
      "t": 27984.375,
      "d": 140.625,
      "v": 100
    },
    {
      "midi": 55,
      "hit": false,
      "t": 27984.375,
      "d": 140.625,
      "v": 100
    },
    {
      "midi": 59,
      "hit": false,
      "t": 28031.25,
      "d": 93.75,
      "v": 100
    },
    {
      "midi": 59,
      "hit": false,
      "t": 28031.25,
      "d": 93.75,
      "v": 100
    },
    {
      "midi": 74,
      "hit": false,
      "t": 28125,
      "d": 187.5,
      "v": 100
    },
    {
      "midi": 61,
      "hit": false,
      "t": 28125,
      "d": 93.75,
      "v": 100
    },
    {
      "midi": 57,
      "hit": false,
      "t": 28125,
      "d": 93.75,
      "v": 100
    },
    {
      "midi": 40,
      "hit": false,
      "t": 28125,
      "d": 0.78125,
      "v": 100
    },
    {
      "midi": 74,
      "hit": false,
      "t": 28125,
      "d": 187.5,
      "v": 100
    },
    {
      "midi": 61,
      "hit": false,
      "t": 28125,
      "d": 93.75,
      "v": 100
    },
    {
      "midi": 57,
      "hit": false,
      "t": 28125,
      "d": 93.75,
      "v": 100
    },
    {
      "midi": 76,
      "hit": false,
      "t": 28312.5,
      "d": 187.5,
      "v": 100
    },
    {
      "midi": 61,
      "hit": false,
      "t": 28312.5,
      "d": 93.75,
      "v": 100
    },
    {
      "midi": 57,
      "hit": false,
      "t": 28312.5,
      "d": 93.75,
      "v": 100
    },
    {
      "midi": 76,
      "hit": false,
      "t": 28312.5,
      "d": 187.5,
      "v": 100
    },
    {
      "midi": 61,
      "hit": false,
      "t": 28312.5,
      "d": 93.75,
      "v": 100
    },
    {
      "midi": 57,
      "hit": false,
      "t": 28312.5,
      "d": 93.75,
      "v": 100
    },
    {
      "midi": 81,
      "hit": false,
      "t": 28500,
      "d": 375,
      "v": 100
    },
    {
      "midi": 69,
      "hit": false,
      "t": 28500,
      "d": 1500,
      "v": 100
    },
    {
      "midi": 50,
      "hit": false,
      "t": 28500,
      "d": 46.875,
      "v": 100
    },
    {
      "midi": 45,
      "hit": false,
      "t": 28500,
      "d": 140.625,
      "v": 100
    },
    {
      "midi": 36,
      "hit": false,
      "t": 28500,
      "d": 0.78125,
      "v": 100
    },
    {
      "midi": 81,
      "hit": false,
      "t": 28500,
      "d": 375,
      "v": 100
    },
    {
      "midi": 69,
      "hit": false,
      "t": 28500,
      "d": 1500,
      "v": 100
    },
    {
      "midi": 50,
      "hit": false,
      "t": 28500,
      "d": 46.875,
      "v": 100
    },
    {
      "midi": 54,
      "hit": false,
      "t": 28546.875,
      "d": 140.625,
      "v": 100
    },
    {
      "midi": 54,
      "hit": false,
      "t": 28546.875,
      "d": 140.625,
      "v": 100
    },
    {
      "midi": 57,
      "hit": false,
      "t": 28593.75,
      "d": 93.75,
      "v": 100
    },
    {
      "midi": 57,
      "hit": false,
      "t": 28593.75,
      "d": 93.75,
      "v": 100
    },
    {
      "midi": 45,
      "hit": false,
      "t": 28687.5,
      "d": 468.75,
      "v": 100
    },
    {
      "midi": 36,
      "hit": false,
      "t": 28687.5,
      "d": 0.78125,
      "v": 100
    },
    {
      "midi": 79,
      "hit": false,
      "t": 28875,
      "d": 187.5,
      "v": 100
    },
    {
      "midi": 57,
      "hit": false,
      "t": 28875,
      "d": 93.75,
      "v": 100
    },
    {
      "midi": 54,
      "hit": false,
      "t": 28875,
      "d": 93.75,
      "v": 100
    },
    {
      "midi": 50,
      "hit": false,
      "t": 28875,
      "d": 46.875,
      "v": 100
    },
    {
      "midi": 40,
      "hit": false,
      "t": 28875,
      "d": 0.78125,
      "v": 100
    },
    {
      "midi": 79,
      "hit": false,
      "t": 28875,
      "d": 187.5,
      "v": 100
    },
    {
      "midi": 57,
      "hit": false,
      "t": 28875,
      "d": 93.75,
      "v": 100
    },
    {
      "midi": 54,
      "hit": false,
      "t": 28875,
      "d": 93.75,
      "v": 100
    },
    {
      "midi": 50,
      "hit": false,
      "t": 28875,
      "d": 46.875,
      "v": 100
    },
    {
      "midi": 54,
      "hit": false,
      "t": 28921.875,
      "d": 140.625,
      "v": 100
    },
    {
      "midi": 54,
      "hit": false,
      "t": 28921.875,
      "d": 140.625,
      "v": 100
    },
    {
      "midi": 57,
      "hit": false,
      "t": 28968.75,
      "d": 93.75,
      "v": 100
    },
    {
      "midi": 57,
      "hit": false,
      "t": 28968.75,
      "d": 93.75,
      "v": 100
    },
    {
      "midi": 74,
      "hit": false,
      "t": 29062.5,
      "d": 562.5,
      "v": 100
    },
    {
      "midi": 57,
      "hit": false,
      "t": 29062.5,
      "d": 93.75,
      "v": 100
    },
    {
      "midi": 54,
      "hit": false,
      "t": 29062.5,
      "d": 93.75,
      "v": 100
    },
    {
      "midi": 74,
      "hit": false,
      "t": 29062.5,
      "d": 562.5,
      "v": 100
    },
    {
      "midi": 57,
      "hit": false,
      "t": 29062.5,
      "d": 93.75,
      "v": 100
    },
    {
      "midi": 54,
      "hit": false,
      "t": 29062.5,
      "d": 93.75,
      "v": 100
    },
    {
      "midi": 57,
      "hit": false,
      "t": 29250,
      "d": 93.75,
      "v": 100
    },
    {
      "midi": 54,
      "hit": false,
      "t": 29250,
      "d": 93.75,
      "v": 100
    },
    {
      "midi": 45,
      "hit": false,
      "t": 29250,
      "d": 140.625,
      "v": 100
    },
    {
      "midi": 36,
      "hit": false,
      "t": 29250,
      "d": 0.78125,
      "v": 100
    },
    {
      "midi": 57,
      "hit": false,
      "t": 29250,
      "d": 93.75,
      "v": 100
    },
    {
      "midi": 54,
      "hit": false,
      "t": 29250,
      "d": 93.75,
      "v": 100
    },
    {
      "midi": 57,
      "hit": false,
      "t": 29437.5,
      "d": 93.75,
      "v": 100
    },
    {
      "midi": 54,
      "hit": false,
      "t": 29437.5,
      "d": 93.75,
      "v": 100
    },
    {
      "midi": 50,
      "hit": false,
      "t": 29437.5,
      "d": 46.875,
      "v": 100
    },
    {
      "midi": 45,
      "hit": false,
      "t": 29437.5,
      "d": 468.75,
      "v": 100
    },
    {
      "midi": 36,
      "hit": false,
      "t": 29437.5,
      "d": 0.78125,
      "v": 100
    },
    {
      "midi": 57,
      "hit": false,
      "t": 29437.5,
      "d": 93.75,
      "v": 100
    },
    {
      "midi": 54,
      "hit": false,
      "t": 29437.5,
      "d": 93.75,
      "v": 100
    },
    {
      "midi": 50,
      "hit": false,
      "t": 29437.5,
      "d": 46.875,
      "v": 100
    },
    {
      "midi": 54,
      "hit": false,
      "t": 29484.375,
      "d": 140.625,
      "v": 100
    },
    {
      "midi": 54,
      "hit": false,
      "t": 29484.375,
      "d": 140.625,
      "v": 100
    },
    {
      "midi": 57,
      "hit": false,
      "t": 29531.25,
      "d": 93.75,
      "v": 100
    },
    {
      "midi": 57,
      "hit": false,
      "t": 29531.25,
      "d": 93.75,
      "v": 100
    },
    {
      "midi": 57,
      "hit": false,
      "t": 29625,
      "d": 93.75,
      "v": 100
    },
    {
      "midi": 54,
      "hit": false,
      "t": 29625,
      "d": 93.75,
      "v": 100
    },
    {
      "midi": 40,
      "hit": false,
      "t": 29625,
      "d": 0.78125,
      "v": 100
    },
    {
      "midi": 57,
      "hit": false,
      "t": 29625,
      "d": 93.75,
      "v": 100
    },
    {
      "midi": 54,
      "hit": false,
      "t": 29625,
      "d": 93.75,
      "v": 100
    },
    {
      "midi": 57,
      "hit": false,
      "t": 29812.5,
      "d": 93.75,
      "v": 100
    },
    {
      "midi": 54,
      "hit": false,
      "t": 29812.5,
      "d": 93.75,
      "v": 100
    },
    {
      "midi": 57,
      "hit": false,
      "t": 29812.5,
      "d": 93.75,
      "v": 100
    },
    {
      "midi": 54,
      "hit": false,
      "t": 29812.5,
      "d": 93.75,
      "v": 100
    },
    {
      "midi": 67,
      "hit": false,
      "t": 30000,
      "d": 1500,
      "v": 100
    },
    {
      "midi": 49,
      "hit": false,
      "t": 30000,
      "d": 46.875,
      "v": 100
    },
    {
      "midi": 43,
      "hit": false,
      "t": 30000,
      "d": 140.625,
      "v": 100
    },
    {
      "midi": 36,
      "hit": false,
      "t": 30000,
      "d": 0.78125,
      "v": 100
    },
    {
      "midi": 67,
      "hit": false,
      "t": 30000,
      "d": 1500,
      "v": 100
    },
    {
      "midi": 49,
      "hit": false,
      "t": 30000,
      "d": 46.875,
      "v": 100
    },
    {
      "midi": 52,
      "hit": false,
      "t": 30046.875,
      "d": 140.625,
      "v": 100
    },
    {
      "midi": 52,
      "hit": false,
      "t": 30046.875,
      "d": 140.625,
      "v": 100
    },
    {
      "midi": 55,
      "hit": false,
      "t": 30093.75,
      "d": 93.75,
      "v": 100
    },
    {
      "midi": 55,
      "hit": false,
      "t": 30093.75,
      "d": 93.75,
      "v": 100
    },
    {
      "midi": 43,
      "hit": false,
      "t": 30187.5,
      "d": 468.75,
      "v": 100
    },
    {
      "midi": 36,
      "hit": false,
      "t": 30187.5,
      "d": 0.78125,
      "v": 100
    },
    {
      "midi": 55,
      "hit": false,
      "t": 30375,
      "d": 93.75,
      "v": 100
    },
    {
      "midi": 52,
      "hit": false,
      "t": 30375,
      "d": 93.75,
      "v": 100
    },
    {
      "midi": 49,
      "hit": false,
      "t": 30375,
      "d": 46.875,
      "v": 100
    },
    {
      "midi": 40,
      "hit": false,
      "t": 30375,
      "d": 0.78125,
      "v": 100
    },
    {
      "midi": 55,
      "hit": false,
      "t": 30375,
      "d": 93.75,
      "v": 100
    },
    {
      "midi": 52,
      "hit": false,
      "t": 30375,
      "d": 93.75,
      "v": 100
    },
    {
      "midi": 49,
      "hit": false,
      "t": 30375,
      "d": 46.875,
      "v": 100
    },
    {
      "midi": 52,
      "hit": false,
      "t": 30421.875,
      "d": 140.625,
      "v": 100
    },
    {
      "midi": 52,
      "hit": false,
      "t": 30421.875,
      "d": 140.625,
      "v": 100
    },
    {
      "midi": 55,
      "hit": false,
      "t": 30468.75,
      "d": 93.75,
      "v": 100
    },
    {
      "midi": 55,
      "hit": false,
      "t": 30468.75,
      "d": 93.75,
      "v": 100
    },
    {
      "midi": 55,
      "hit": false,
      "t": 30562.5,
      "d": 93.75,
      "v": 100
    },
    {
      "midi": 52,
      "hit": false,
      "t": 30562.5,
      "d": 93.75,
      "v": 100
    },
    {
      "midi": 55,
      "hit": false,
      "t": 30562.5,
      "d": 93.75,
      "v": 100
    },
    {
      "midi": 52,
      "hit": false,
      "t": 30562.5,
      "d": 93.75,
      "v": 100
    },
    {
      "midi": 55,
      "hit": false,
      "t": 30750,
      "d": 93.75,
      "v": 100
    },
    {
      "midi": 52,
      "hit": false,
      "t": 30750,
      "d": 93.75,
      "v": 100
    },
    {
      "midi": 43,
      "hit": false,
      "t": 30750,
      "d": 140.625,
      "v": 100
    },
    {
      "midi": 36,
      "hit": false,
      "t": 30750,
      "d": 0.78125,
      "v": 100
    },
    {
      "midi": 55,
      "hit": false,
      "t": 30750,
      "d": 93.75,
      "v": 100
    },
    {
      "midi": 52,
      "hit": false,
      "t": 30750,
      "d": 93.75,
      "v": 100
    },
    {
      "midi": 73,
      "hit": false,
      "t": 30937.5,
      "d": 187.5,
      "v": 100
    },
    {
      "midi": 55,
      "hit": false,
      "t": 30937.5,
      "d": 93.75,
      "v": 100
    },
    {
      "midi": 52,
      "hit": false,
      "t": 30937.5,
      "d": 93.75,
      "v": 100
    },
    {
      "midi": 49,
      "hit": false,
      "t": 30937.5,
      "d": 46.875,
      "v": 100
    },
    {
      "midi": 43,
      "hit": false,
      "t": 30937.5,
      "d": 468.75,
      "v": 100
    },
    {
      "midi": 36,
      "hit": false,
      "t": 30937.5,
      "d": 0.78125,
      "v": 100
    },
    {
      "midi": 73,
      "hit": false,
      "t": 30937.5,
      "d": 187.5,
      "v": 100
    },
    {
      "midi": 55,
      "hit": false,
      "t": 30937.5,
      "d": 93.75,
      "v": 100
    },
    {
      "midi": 52,
      "hit": false,
      "t": 30937.5,
      "d": 93.75,
      "v": 100
    },
    {
      "midi": 49,
      "hit": false,
      "t": 30937.5,
      "d": 46.875,
      "v": 100
    },
    {
      "midi": 52,
      "hit": false,
      "t": 30984.375,
      "d": 140.625,
      "v": 100
    },
    {
      "midi": 52,
      "hit": false,
      "t": 30984.375,
      "d": 140.625,
      "v": 100
    },
    {
      "midi": 55,
      "hit": false,
      "t": 31031.25,
      "d": 93.75,
      "v": 100
    },
    {
      "midi": 55,
      "hit": false,
      "t": 31031.25,
      "d": 93.75,
      "v": 100
    },
    {
      "midi": 74,
      "hit": false,
      "t": 31125,
      "d": 187.5,
      "v": 100
    },
    {
      "midi": 55,
      "hit": false,
      "t": 31125,
      "d": 93.75,
      "v": 100
    },
    {
      "midi": 52,
      "hit": false,
      "t": 31125,
      "d": 93.75,
      "v": 100
    },
    {
      "midi": 40,
      "hit": false,
      "t": 31125,
      "d": 0.78125,
      "v": 100
    },
    {
      "midi": 74,
      "hit": false,
      "t": 31125,
      "d": 187.5,
      "v": 100
    },
    {
      "midi": 55,
      "hit": false,
      "t": 31125,
      "d": 93.75,
      "v": 100
    },
    {
      "midi": 52,
      "hit": false,
      "t": 31125,
      "d": 93.75,
      "v": 100
    },
    {
      "midi": 76,
      "hit": false,
      "t": 31312.5,
      "d": 187.5,
      "v": 100
    },
    {
      "midi": 55,
      "hit": false,
      "t": 31312.5,
      "d": 93.75,
      "v": 100
    },
    {
      "midi": 52,
      "hit": false,
      "t": 31312.5,
      "d": 93.75,
      "v": 100
    },
    {
      "midi": 76,
      "hit": false,
      "t": 31312.5,
      "d": 187.5,
      "v": 100
    },
    {
      "midi": 55,
      "hit": false,
      "t": 31312.5,
      "d": 93.75,
      "v": 100
    },
    {
      "midi": 52,
      "hit": false,
      "t": 31312.5,
      "d": 93.75,
      "v": 100
    },
    {
      "midi": 79,
      "hit": false,
      "t": 31500,
      "d": 375,
      "v": 100
    },
    {
      "midi": 66,
      "hit": false,
      "t": 31500,
      "d": 1500,
      "v": 100
    },
    {
      "midi": 47,
      "hit": false,
      "t": 31500,
      "d": 46.875,
      "v": 100
    },
    {
      "midi": 42,
      "hit": false,
      "t": 31500,
      "d": 1500,
      "v": 100
    },
    {
      "midi": 36,
      "hit": false,
      "t": 31500,
      "d": 0.78125,
      "v": 100
    },
    {
      "midi": 79,
      "hit": false,
      "t": 31500,
      "d": 375,
      "v": 100
    },
    {
      "midi": 66,
      "hit": false,
      "t": 31500,
      "d": 1500,
      "v": 100
    },
    {
      "midi": 47,
      "hit": false,
      "t": 31500,
      "d": 46.875,
      "v": 100
    },
    {
      "midi": 50,
      "hit": false,
      "t": 31546.875,
      "d": 140.625,
      "v": 100
    },
    {
      "midi": 50,
      "hit": false,
      "t": 31546.875,
      "d": 140.625,
      "v": 100
    },
    {
      "midi": 54,
      "hit": false,
      "t": 31593.75,
      "d": 93.75,
      "v": 100
    },
    {
      "midi": 54,
      "hit": false,
      "t": 31593.75,
      "d": 93.75,
      "v": 100
    },
    {
      "midi": 36,
      "hit": false,
      "t": 31687.5,
      "d": 0.78125,
      "v": 100
    },
    {
      "midi": 78,
      "hit": false,
      "t": 31875,
      "d": 187.5,
      "v": 100
    },
    {
      "midi": 54,
      "hit": false,
      "t": 31875,
      "d": 93.75,
      "v": 100
    },
    {
      "midi": 50,
      "hit": false,
      "t": 31875,
      "d": 93.75,
      "v": 100
    },
    {
      "midi": 47,
      "hit": false,
      "t": 31875,
      "d": 46.875,
      "v": 100
    },
    {
      "midi": 40,
      "hit": false,
      "t": 31875,
      "d": 0.78125,
      "v": 100
    },
    {
      "midi": 78,
      "hit": false,
      "t": 31875,
      "d": 187.5,
      "v": 100
    },
    {
      "midi": 54,
      "hit": false,
      "t": 31875,
      "d": 93.75,
      "v": 100
    },
    {
      "midi": 50,
      "hit": false,
      "t": 31875,
      "d": 93.75,
      "v": 100
    },
    {
      "midi": 47,
      "hit": false,
      "t": 31875,
      "d": 46.875,
      "v": 100
    },
    {
      "midi": 50,
      "hit": false,
      "t": 31921.875,
      "d": 140.625,
      "v": 100
    },
    {
      "midi": 50,
      "hit": false,
      "t": 31921.875,
      "d": 140.625,
      "v": 100
    },
    {
      "midi": 54,
      "hit": false,
      "t": 31968.75,
      "d": 93.75,
      "v": 100
    },
    {
      "midi": 54,
      "hit": false,
      "t": 31968.75,
      "d": 93.75,
      "v": 100
    },
    {
      "midi": 76,
      "hit": false,
      "t": 32062.5,
      "d": 375,
      "v": 100
    },
    {
      "midi": 54,
      "hit": false,
      "t": 32062.5,
      "d": 93.75,
      "v": 100
    },
    {
      "midi": 50,
      "hit": false,
      "t": 32062.5,
      "d": 93.75,
      "v": 100
    },
    {
      "midi": 76,
      "hit": false,
      "t": 32062.5,
      "d": 375,
      "v": 100
    },
    {
      "midi": 54,
      "hit": false,
      "t": 32062.5,
      "d": 93.75,
      "v": 100
    },
    {
      "midi": 50,
      "hit": false,
      "t": 32062.5,
      "d": 93.75,
      "v": 100
    },
    {
      "midi": 54,
      "hit": false,
      "t": 32250,
      "d": 93.75,
      "v": 100
    },
    {
      "midi": 50,
      "hit": false,
      "t": 32250,
      "d": 93.75,
      "v": 100
    },
    {
      "midi": 36,
      "hit": false,
      "t": 32250,
      "d": 0.78125,
      "v": 100
    },
    {
      "midi": 40,
      "hit": false,
      "t": 32250,
      "d": 0.78125,
      "v": 100
    },
    {
      "midi": 54,
      "hit": false,
      "t": 32250,
      "d": 93.75,
      "v": 100
    },
    {
      "midi": 50,
      "hit": false,
      "t": 32250,
      "d": 93.75,
      "v": 100
    },
    {
      "midi": 38,
      "hit": false,
      "t": 32343.75,
      "d": 0.78125,
      "v": 100
    },
    {
      "midi": 74,
      "hit": false,
      "t": 32437.5,
      "d": 375,
      "v": 100
    },
    {
      "midi": 54,
      "hit": false,
      "t": 32437.5,
      "d": 93.75,
      "v": 100
    },
    {
      "midi": 50,
      "hit": false,
      "t": 32437.5,
      "d": 93.75,
      "v": 100
    },
    {
      "midi": 47,
      "hit": false,
      "t": 32437.5,
      "d": 46.875,
      "v": 100
    },
    {
      "midi": 36,
      "hit": false,
      "t": 32437.5,
      "d": 0.78125,
      "v": 100
    },
    {
      "midi": 74,
      "hit": false,
      "t": 32437.5,
      "d": 375,
      "v": 100
    },
    {
      "midi": 54,
      "hit": false,
      "t": 32437.5,
      "d": 93.75,
      "v": 100
    },
    {
      "midi": 50,
      "hit": false,
      "t": 32437.5,
      "d": 93.75,
      "v": 100
    },
    {
      "midi": 47,
      "hit": false,
      "t": 32437.5,
      "d": 46.875,
      "v": 100
    },
    {
      "midi": 50,
      "hit": false,
      "t": 32484.375,
      "d": 140.625,
      "v": 100
    },
    {
      "midi": 50,
      "hit": false,
      "t": 32484.375,
      "d": 140.625,
      "v": 100
    },
    {
      "midi": 54,
      "hit": false,
      "t": 32531.25,
      "d": 93.75,
      "v": 100
    },
    {
      "midi": 54,
      "hit": false,
      "t": 32531.25,
      "d": 93.75,
      "v": 100
    },
    {
      "midi": 54,
      "hit": false,
      "t": 32625,
      "d": 93.75,
      "v": 100
    },
    {
      "midi": 50,
      "hit": false,
      "t": 32625,
      "d": 93.75,
      "v": 100
    },
    {
      "midi": 40,
      "hit": false,
      "t": 32625,
      "d": 0.78125,
      "v": 100
    },
    {
      "midi": 54,
      "hit": false,
      "t": 32625,
      "d": 93.75,
      "v": 100
    },
    {
      "midi": 50,
      "hit": false,
      "t": 32625,
      "d": 93.75,
      "v": 100
    },
    {
      "midi": 76,
      "hit": false,
      "t": 32812.5,
      "d": 468.75,
      "v": 100
    },
    {
      "midi": 54,
      "hit": false,
      "t": 32812.5,
      "d": 93.75,
      "v": 100
    },
    {
      "midi": 50,
      "hit": false,
      "t": 32812.5,
      "d": 93.75,
      "v": 100
    },
    {
      "midi": 76,
      "hit": false,
      "t": 32812.5,
      "d": 468.75,
      "v": 100
    },
    {
      "midi": 54,
      "hit": false,
      "t": 32812.5,
      "d": 93.75,
      "v": 100
    },
    {
      "midi": 50,
      "hit": false,
      "t": 32812.5,
      "d": 93.75,
      "v": 100
    },
    {
      "midi": 52,
      "hit": false,
      "t": 33000,
      "d": 93.75,
      "v": 100
    },
    {
      "midi": 49,
      "hit": false,
      "t": 33000,
      "d": 93.75,
      "v": 100
    },
    {
      "midi": 50,
      "hit": false,
      "t": 33000,
      "d": 46.875,
      "v": 100
    },
    {
      "midi": 47,
      "hit": false,
      "t": 33000,
      "d": 46.875,
      "v": 100
    },
    {
      "midi": 47,
      "hit": false,
      "t": 33000,
      "d": 1500,
      "v": 100
    },
    {
      "midi": 36,
      "hit": false,
      "t": 33000,
      "d": 0.78125,
      "v": 100
    },
    {
      "midi": 52,
      "hit": false,
      "t": 33000,
      "d": 93.75,
      "v": 100
    },
    {
      "midi": 49,
      "hit": false,
      "t": 33000,
      "d": 93.75,
      "v": 100
    },
    {
      "midi": 50,
      "hit": false,
      "t": 33000,
      "d": 46.875,
      "v": 100
    },
    {
      "midi": 47,
      "hit": false,
      "t": 33000,
      "d": 46.875,
      "v": 100
    },
    {
      "midi": 52,
      "hit": false,
      "t": 33046.875,
      "d": 609.375,
      "v": 100
    },
    {
      "midi": 49,
      "hit": false,
      "t": 33046.875,
      "d": 609.375,
      "v": 100
    },
    {
      "midi": 52,
      "hit": false,
      "t": 33046.875,
      "d": 609.375,
      "v": 100
    },
    {
      "midi": 49,
      "hit": false,
      "t": 33046.875,
      "d": 609.375,
      "v": 100
    },
    {
      "midi": 52,
      "hit": false,
      "t": 33187.5,
      "d": 93.75,
      "v": 100
    },
    {
      "midi": 49,
      "hit": false,
      "t": 33187.5,
      "d": 93.75,
      "v": 100
    },
    {
      "midi": 76,
      "hit": false,
      "t": 33187.5,
      "d": 187.5,
      "v": 100
    },
    {
      "midi": 36,
      "hit": false,
      "t": 33187.5,
      "d": 0.78125,
      "v": 100
    },
    {
      "midi": 88,
      "hit": false,
      "t": 33187.5,
      "d": 187.5,
      "v": 100
    },
    {
      "midi": 52,
      "hit": false,
      "t": 33187.5,
      "d": 93.75,
      "v": 100
    },
    {
      "midi": 49,
      "hit": false,
      "t": 33187.5,
      "d": 93.75,
      "v": 100
    },
    {
      "midi": 52,
      "hit": false,
      "t": 33375,
      "d": 93.75,
      "v": 100
    },
    {
      "midi": 49,
      "hit": false,
      "t": 33375,
      "d": 93.75,
      "v": 100
    },
    {
      "midi": 74,
      "hit": false,
      "t": 33375,
      "d": 187.5,
      "v": 100
    },
    {
      "midi": 55,
      "hit": false,
      "t": 33375,
      "d": 0.78125,
      "v": 100
    },
    {
      "midi": 40,
      "hit": false,
      "t": 33375,
      "d": 0.78125,
      "v": 100
    },
    {
      "midi": 86,
      "hit": false,
      "t": 33375,
      "d": 187.5,
      "v": 100
    },
    {
      "midi": 52,
      "hit": false,
      "t": 33375,
      "d": 93.75,
      "v": 100
    },
    {
      "midi": 49,
      "hit": false,
      "t": 33375,
      "d": 93.75,
      "v": 100
    },
    {
      "midi": 52,
      "hit": false,
      "t": 33562.5,
      "d": 93.75,
      "v": 100
    },
    {
      "midi": 49,
      "hit": false,
      "t": 33562.5,
      "d": 93.75,
      "v": 100
    },
    {
      "midi": 73,
      "hit": false,
      "t": 33562.5,
      "d": 187.5,
      "v": 100
    },
    {
      "midi": 85,
      "hit": false,
      "t": 33562.5,
      "d": 187.5,
      "v": 100
    },
    {
      "midi": 52,
      "hit": false,
      "t": 33562.5,
      "d": 93.75,
      "v": 100
    },
    {
      "midi": 49,
      "hit": false,
      "t": 33562.5,
      "d": 93.75,
      "v": 100
    },
    {
      "midi": 50,
      "hit": false,
      "t": 33656.25,
      "d": 46.875,
      "v": 100
    },
    {
      "midi": 54,
      "hit": false,
      "t": 33656.25,
      "d": 46.875,
      "v": 100
    },
    {
      "midi": 50,
      "hit": false,
      "t": 33656.25,
      "d": 46.875,
      "v": 100
    },
    {
      "midi": 54,
      "hit": false,
      "t": 33656.25,
      "d": 46.875,
      "v": 100
    },
    {
      "midi": 52,
      "hit": false,
      "t": 33750,
      "d": 93.75,
      "v": 100
    },
    {
      "midi": 49,
      "hit": false,
      "t": 33750,
      "d": 93.75,
      "v": 100
    },
    {
      "midi": 50,
      "hit": false,
      "t": 33750,
      "d": 46.875,
      "v": 100
    },
    {
      "midi": 47,
      "hit": false,
      "t": 33750,
      "d": 46.875,
      "v": 100
    },
    {
      "midi": 76,
      "hit": false,
      "t": 33750,
      "d": 187.5,
      "v": 100
    },
    {
      "midi": 36,
      "hit": false,
      "t": 33750,
      "d": 0.78125,
      "v": 100
    },
    {
      "midi": 38,
      "hit": false,
      "t": 33750,
      "d": 0.78125,
      "v": 100
    },
    {
      "midi": 88,
      "hit": false,
      "t": 33750,
      "d": 187.5,
      "v": 100
    },
    {
      "midi": 52,
      "hit": false,
      "t": 33750,
      "d": 93.75,
      "v": 100
    },
    {
      "midi": 49,
      "hit": false,
      "t": 33750,
      "d": 93.75,
      "v": 100
    },
    {
      "midi": 50,
      "hit": false,
      "t": 33750,
      "d": 46.875,
      "v": 100
    },
    {
      "midi": 47,
      "hit": false,
      "t": 33750,
      "d": 46.875,
      "v": 100
    },
    {
      "midi": 52,
      "hit": false,
      "t": 33796.875,
      "d": 609.375,
      "v": 100
    },
    {
      "midi": 49,
      "hit": false,
      "t": 33796.875,
      "d": 609.375,
      "v": 100
    },
    {
      "midi": 52,
      "hit": false,
      "t": 33796.875,
      "d": 609.375,
      "v": 100
    },
    {
      "midi": 49,
      "hit": false,
      "t": 33796.875,
      "d": 609.375,
      "v": 100
    },
    {
      "midi": 40,
      "hit": false,
      "t": 33843.75,
      "d": 0.78125,
      "v": 100
    },
    {
      "midi": 52,
      "hit": false,
      "t": 33937.5,
      "d": 93.75,
      "v": 100
    },
    {
      "midi": 49,
      "hit": false,
      "t": 33937.5,
      "d": 93.75,
      "v": 100
    },
    {
      "midi": 74,
      "hit": false,
      "t": 33937.5,
      "d": 187.5,
      "v": 100
    },
    {
      "midi": 36,
      "hit": false,
      "t": 33937.5,
      "d": 0.78125,
      "v": 100
    },
    {
      "midi": 86,
      "hit": false,
      "t": 33937.5,
      "d": 187.5,
      "v": 100
    },
    {
      "midi": 52,
      "hit": false,
      "t": 33937.5,
      "d": 93.75,
      "v": 100
    },
    {
      "midi": 49,
      "hit": false,
      "t": 33937.5,
      "d": 93.75,
      "v": 100
    },
    {
      "midi": 38,
      "hit": false,
      "t": 34031.25,
      "d": 0.78125,
      "v": 100
    },
    {
      "midi": 52,
      "hit": false,
      "t": 34125,
      "d": 93.75,
      "v": 100
    },
    {
      "midi": 49,
      "hit": false,
      "t": 34125,
      "d": 93.75,
      "v": 100
    },
    {
      "midi": 73,
      "hit": false,
      "t": 34125,
      "d": 187.5,
      "v": 100
    },
    {
      "midi": 85,
      "hit": false,
      "t": 34125,
      "d": 187.5,
      "v": 100
    },
    {
      "midi": 52,
      "hit": false,
      "t": 34125,
      "d": 93.75,
      "v": 100
    },
    {
      "midi": 49,
      "hit": false,
      "t": 34125,
      "d": 93.75,
      "v": 100
    },
    {
      "midi": 40,
      "hit": false,
      "t": 34218.75,
      "d": 0.78125,
      "v": 100
    },
    {
      "midi": 52,
      "hit": false,
      "t": 34312.5,
      "d": 93.75,
      "v": 100
    },
    {
      "midi": 49,
      "hit": false,
      "t": 34312.5,
      "d": 93.75,
      "v": 100
    },
    {
      "midi": 71,
      "hit": false,
      "t": 34312.5,
      "d": 187.5,
      "v": 100
    },
    {
      "midi": 40,
      "hit": false,
      "t": 34312.5,
      "d": 0.78125,
      "v": 100
    },
    {
      "midi": 83,
      "hit": false,
      "t": 34312.5,
      "d": 187.5,
      "v": 100
    },
    {
      "midi": 52,
      "hit": false,
      "t": 34312.5,
      "d": 93.75,
      "v": 100
    },
    {
      "midi": 49,
      "hit": false,
      "t": 34312.5,
      "d": 93.75,
      "v": 100
    },
    {
      "midi": 50,
      "hit": false,
      "t": 34406.25,
      "d": 46.875,
      "v": 100
    },
    {
      "midi": 54,
      "hit": false,
      "t": 34406.25,
      "d": 46.875,
      "v": 100
    },
    {
      "midi": 40,
      "hit": false,
      "t": 34406.25,
      "d": 0.78125,
      "v": 100
    },
    {
      "midi": 50,
      "hit": false,
      "t": 34406.25,
      "d": 46.875,
      "v": 100
    },
    {
      "midi": 54,
      "hit": false,
      "t": 34406.25,
      "d": 46.875,
      "v": 100
    },
    {
      "midi": 69,
      "hit": false,
      "t": 34500,
      "d": 375,
      "v": 100
    },
    {
      "midi": 76,
      "hit": false,
      "t": 34500,
      "d": 1500,
      "v": 100
    },
    {
      "midi": 57,
      "hit": false,
      "t": 34500,
      "d": 46.875,
      "v": 100
    },
    {
      "midi": 57,
      "hit": false,
      "t": 34500,
      "d": 46.875,
      "v": 100
    },
    {
      "midi": 52,
      "hit": false,
      "t": 34500,
      "d": 140.625,
      "v": 100
    },
    {
      "midi": 69,
      "hit": false,
      "t": 34500,
      "d": 375,
      "v": 100
    },
    {
      "midi": 36,
      "hit": false,
      "t": 34500,
      "d": 0.78125,
      "v": 100
    },
    {
      "midi": 55,
      "hit": false,
      "t": 34500,
      "d": 0.78125,
      "v": 100
    },
    {
      "midi": 69,
      "hit": false,
      "t": 34500,
      "d": 375,
      "v": 100
    },
    {
      "midi": 76,
      "hit": false,
      "t": 34500,
      "d": 1500,
      "v": 100
    },
    {
      "midi": 57,
      "hit": false,
      "t": 34500,
      "d": 46.875,
      "v": 100
    },
    {
      "midi": 57,
      "hit": false,
      "t": 34500,
      "d": 46.875,
      "v": 100
    },
    {
      "midi": 61,
      "hit": false,
      "t": 34546.875,
      "d": 140.625,
      "v": 100
    },
    {
      "midi": 61,
      "hit": false,
      "t": 34546.875,
      "d": 140.625,
      "v": 100
    },
    {
      "midi": 61,
      "hit": false,
      "t": 34546.875,
      "d": 140.625,
      "v": 100
    },
    {
      "midi": 61,
      "hit": false,
      "t": 34546.875,
      "d": 140.625,
      "v": 100
    },
    {
      "midi": 64,
      "hit": false,
      "t": 34593.75,
      "d": 93.75,
      "v": 100
    },
    {
      "midi": 64,
      "hit": false,
      "t": 34593.75,
      "d": 93.75,
      "v": 100
    },
    {
      "midi": 64,
      "hit": false,
      "t": 34593.75,
      "d": 93.75,
      "v": 100
    },
    {
      "midi": 64,
      "hit": false,
      "t": 34593.75,
      "d": 93.75,
      "v": 100
    },
    {
      "midi": 52,
      "hit": false,
      "t": 34687.5,
      "d": 468.75,
      "v": 100
    },
    {
      "midi": 36,
      "hit": false,
      "t": 34687.5,
      "d": 0.78125,
      "v": 100
    },
    {
      "midi": 74,
      "hit": false,
      "t": 34875,
      "d": 187.5,
      "v": 100
    },
    {
      "midi": 64,
      "hit": false,
      "t": 34875,
      "d": 93.75,
      "v": 100
    },
    {
      "midi": 61,
      "hit": false,
      "t": 34875,
      "d": 93.75,
      "v": 100
    },
    {
      "midi": 57,
      "hit": false,
      "t": 34875,
      "d": 46.875,
      "v": 100
    },
    {
      "midi": 69,
      "hit": false,
      "t": 34875,
      "d": 187.5,
      "v": 100
    },
    {
      "midi": 40,
      "hit": false,
      "t": 34875,
      "d": 0.78125,
      "v": 100
    },
    {
      "midi": 74,
      "hit": false,
      "t": 34875,
      "d": 187.5,
      "v": 100
    },
    {
      "midi": 64,
      "hit": false,
      "t": 34875,
      "d": 93.75,
      "v": 100
    },
    {
      "midi": 61,
      "hit": false,
      "t": 34875,
      "d": 93.75,
      "v": 100
    },
    {
      "midi": 57,
      "hit": false,
      "t": 34875,
      "d": 46.875,
      "v": 100
    },
    {
      "midi": 61,
      "hit": false,
      "t": 34921.875,
      "d": 140.625,
      "v": 100
    },
    {
      "midi": 61,
      "hit": false,
      "t": 34921.875,
      "d": 140.625,
      "v": 100
    },
    {
      "midi": 64,
      "hit": false,
      "t": 34968.75,
      "d": 93.75,
      "v": 100
    },
    {
      "midi": 64,
      "hit": false,
      "t": 34968.75,
      "d": 93.75,
      "v": 100
    },
    {
      "midi": 73,
      "hit": false,
      "t": 35062.5,
      "d": 375,
      "v": 100
    },
    {
      "midi": 61,
      "hit": false,
      "t": 35062.5,
      "d": 93.75,
      "v": 100
    },
    {
      "midi": 64,
      "hit": false,
      "t": 35062.5,
      "d": 93.75,
      "v": 100
    },
    {
      "midi": 69,
      "hit": false,
      "t": 35062.5,
      "d": 375,
      "v": 100
    },
    {
      "midi": 73,
      "hit": false,
      "t": 35062.5,
      "d": 375,
      "v": 100
    },
    {
      "midi": 61,
      "hit": false,
      "t": 35062.5,
      "d": 93.75,
      "v": 100
    },
    {
      "midi": 64,
      "hit": false,
      "t": 35062.5,
      "d": 93.75,
      "v": 100
    },
    {
      "midi": 61,
      "hit": false,
      "t": 35250,
      "d": 93.75,
      "v": 100
    },
    {
      "midi": 64,
      "hit": false,
      "t": 35250,
      "d": 93.75,
      "v": 100
    },
    {
      "midi": 52,
      "hit": false,
      "t": 35250,
      "d": 140.625,
      "v": 100
    },
    {
      "midi": 36,
      "hit": false,
      "t": 35250,
      "d": 0.78125,
      "v": 100
    },
    {
      "midi": 61,
      "hit": false,
      "t": 35250,
      "d": 93.75,
      "v": 100
    },
    {
      "midi": 64,
      "hit": false,
      "t": 35250,
      "d": 93.75,
      "v": 100
    },
    {
      "midi": 74,
      "hit": false,
      "t": 35437.5,
      "d": 375,
      "v": 100
    },
    {
      "midi": 64,
      "hit": false,
      "t": 35437.5,
      "d": 93.75,
      "v": 100
    },
    {
      "midi": 61,
      "hit": false,
      "t": 35437.5,
      "d": 93.75,
      "v": 100
    },
    {
      "midi": 57,
      "hit": false,
      "t": 35437.5,
      "d": 46.875,
      "v": 100
    },
    {
      "midi": 52,
      "hit": false,
      "t": 35437.5,
      "d": 468.75,
      "v": 100
    },
    {
      "midi": 69,
      "hit": false,
      "t": 35437.5,
      "d": 375,
      "v": 100
    },
    {
      "midi": 36,
      "hit": false,
      "t": 35437.5,
      "d": 0.78125,
      "v": 100
    },
    {
      "midi": 74,
      "hit": false,
      "t": 35437.5,
      "d": 375,
      "v": 100
    },
    {
      "midi": 64,
      "hit": false,
      "t": 35437.5,
      "d": 93.75,
      "v": 100
    },
    {
      "midi": 61,
      "hit": false,
      "t": 35437.5,
      "d": 93.75,
      "v": 100
    },
    {
      "midi": 57,
      "hit": false,
      "t": 35437.5,
      "d": 46.875,
      "v": 100
    },
    {
      "midi": 61,
      "hit": false,
      "t": 35484.375,
      "d": 140.625,
      "v": 100
    },
    {
      "midi": 61,
      "hit": false,
      "t": 35484.375,
      "d": 140.625,
      "v": 100
    },
    {
      "midi": 64,
      "hit": false,
      "t": 35531.25,
      "d": 93.75,
      "v": 100
    },
    {
      "midi": 64,
      "hit": false,
      "t": 35531.25,
      "d": 93.75,
      "v": 100
    },
    {
      "midi": 61,
      "hit": false,
      "t": 35625,
      "d": 93.75,
      "v": 100
    },
    {
      "midi": 64,
      "hit": false,
      "t": 35625,
      "d": 93.75,
      "v": 100
    },
    {
      "midi": 40,
      "hit": false,
      "t": 35625,
      "d": 0.78125,
      "v": 100
    },
    {
      "midi": 61,
      "hit": false,
      "t": 35625,
      "d": 93.75,
      "v": 100
    },
    {
      "midi": 64,
      "hit": false,
      "t": 35625,
      "d": 93.75,
      "v": 100
    },
    {
      "midi": 76,
      "hit": false,
      "t": 35812.5,
      "d": 468.75,
      "v": 100
    },
    {
      "midi": 64,
      "hit": false,
      "t": 35812.5,
      "d": 93.75,
      "v": 100
    },
    {
      "midi": 61,
      "hit": false,
      "t": 35812.5,
      "d": 93.75,
      "v": 100
    },
    {
      "midi": 76,
      "hit": false,
      "t": 35812.5,
      "d": 468.75,
      "v": 100
    },
    {
      "midi": 76,
      "hit": false,
      "t": 35812.5,
      "d": 468.75,
      "v": 100
    },
    {
      "midi": 64,
      "hit": false,
      "t": 35812.5,
      "d": 93.75,
      "v": 100
    },
    {
      "midi": 61,
      "hit": false,
      "t": 35812.5,
      "d": 93.75,
      "v": 100
    },
    {
      "midi": 74,
      "hit": false,
      "t": 36000,
      "d": 1500,
      "v": 100
    },
    {
      "midi": 55,
      "hit": false,
      "t": 36000,
      "d": 46.875,
      "v": 100
    },
    {
      "midi": 50,
      "hit": false,
      "t": 36000,
      "d": 140.625,
      "v": 100
    },
    {
      "midi": 36,
      "hit": false,
      "t": 36000,
      "d": 0.78125,
      "v": 100
    },
    {
      "midi": 74,
      "hit": false,
      "t": 36000,
      "d": 1500,
      "v": 100
    },
    {
      "midi": 55,
      "hit": false,
      "t": 36000,
      "d": 46.875,
      "v": 100
    },
    {
      "midi": 59,
      "hit": false,
      "t": 36046.875,
      "d": 140.625,
      "v": 100
    },
    {
      "midi": 59,
      "hit": false,
      "t": 36046.875,
      "d": 140.625,
      "v": 100
    },
    {
      "midi": 62,
      "hit": false,
      "t": 36093.75,
      "d": 93.75,
      "v": 100
    },
    {
      "midi": 62,
      "hit": false,
      "t": 36093.75,
      "d": 93.75,
      "v": 100
    },
    {
      "midi": 50,
      "hit": false,
      "t": 36187.5,
      "d": 468.75,
      "v": 100
    },
    {
      "midi": 36,
      "hit": false,
      "t": 36187.5,
      "d": 0.78125,
      "v": 100
    },
    {
      "midi": 74,
      "hit": false,
      "t": 36281.25,
      "d": 93.75,
      "v": 100
    },
    {
      "midi": 76,
      "hit": false,
      "t": 36281.25,
      "d": 93.75,
      "v": 100
    },
    {
      "midi": 74,
      "hit": false,
      "t": 36281.25,
      "d": 93.75,
      "v": 100
    },
    {
      "midi": 73,
      "hit": false,
      "t": 36375,
      "d": 375,
      "v": 100
    },
    {
      "midi": 62,
      "hit": false,
      "t": 36375,
      "d": 93.75,
      "v": 100
    },
    {
      "midi": 59,
      "hit": false,
      "t": 36375,
      "d": 93.75,
      "v": 100
    },
    {
      "midi": 55,
      "hit": false,
      "t": 36375,
      "d": 46.875,
      "v": 100
    },
    {
      "midi": 76,
      "hit": false,
      "t": 36375,
      "d": 375,
      "v": 100
    },
    {
      "midi": 40,
      "hit": false,
      "t": 36375,
      "d": 0.78125,
      "v": 100
    },
    {
      "midi": 73,
      "hit": false,
      "t": 36375,
      "d": 375,
      "v": 100
    },
    {
      "midi": 62,
      "hit": false,
      "t": 36375,
      "d": 93.75,
      "v": 100
    },
    {
      "midi": 59,
      "hit": false,
      "t": 36375,
      "d": 93.75,
      "v": 100
    },
    {
      "midi": 55,
      "hit": false,
      "t": 36375,
      "d": 46.875,
      "v": 100
    },
    {
      "midi": 59,
      "hit": false,
      "t": 36421.875,
      "d": 140.625,
      "v": 100
    },
    {
      "midi": 59,
      "hit": false,
      "t": 36421.875,
      "d": 140.625,
      "v": 100
    },
    {
      "midi": 62,
      "hit": false,
      "t": 36468.75,
      "d": 93.75,
      "v": 100
    },
    {
      "midi": 62,
      "hit": false,
      "t": 36468.75,
      "d": 93.75,
      "v": 100
    },
    {
      "midi": 62,
      "hit": false,
      "t": 36562.5,
      "d": 93.75,
      "v": 100
    },
    {
      "midi": 59,
      "hit": false,
      "t": 36562.5,
      "d": 93.75,
      "v": 100
    },
    {
      "midi": 62,
      "hit": false,
      "t": 36562.5,
      "d": 93.75,
      "v": 100
    },
    {
      "midi": 59,
      "hit": false,
      "t": 36562.5,
      "d": 93.75,
      "v": 100
    },
    {
      "midi": 71,
      "hit": false,
      "t": 36750,
      "d": 375,
      "v": 100
    },
    {
      "midi": 62,
      "hit": false,
      "t": 36750,
      "d": 93.75,
      "v": 100
    },
    {
      "midi": 59,
      "hit": false,
      "t": 36750,
      "d": 93.75,
      "v": 100
    },
    {
      "midi": 50,
      "hit": false,
      "t": 36750,
      "d": 140.625,
      "v": 100
    },
    {
      "midi": 76,
      "hit": false,
      "t": 36750,
      "d": 375,
      "v": 100
    },
    {
      "midi": 36,
      "hit": false,
      "t": 36750,
      "d": 0.78125,
      "v": 100
    },
    {
      "midi": 40,
      "hit": false,
      "t": 36750,
      "d": 0.78125,
      "v": 100
    },
    {
      "midi": 71,
      "hit": false,
      "t": 36750,
      "d": 375,
      "v": 100
    },
    {
      "midi": 62,
      "hit": false,
      "t": 36750,
      "d": 93.75,
      "v": 100
    },
    {
      "midi": 59,
      "hit": false,
      "t": 36750,
      "d": 93.75,
      "v": 100
    },
    {
      "midi": 38,
      "hit": false,
      "t": 36843.75,
      "d": 0.78125,
      "v": 100
    },
    {
      "midi": 62,
      "hit": false,
      "t": 36937.5,
      "d": 93.75,
      "v": 100
    },
    {
      "midi": 59,
      "hit": false,
      "t": 36937.5,
      "d": 93.75,
      "v": 100
    },
    {
      "midi": 55,
      "hit": false,
      "t": 36937.5,
      "d": 46.875,
      "v": 100
    },
    {
      "midi": 50,
      "hit": false,
      "t": 36937.5,
      "d": 468.75,
      "v": 100
    },
    {
      "midi": 36,
      "hit": false,
      "t": 36937.5,
      "d": 0.78125,
      "v": 100
    },
    {
      "midi": 62,
      "hit": false,
      "t": 36937.5,
      "d": 93.75,
      "v": 100
    },
    {
      "midi": 59,
      "hit": false,
      "t": 36937.5,
      "d": 93.75,
      "v": 100
    },
    {
      "midi": 55,
      "hit": false,
      "t": 36937.5,
      "d": 46.875,
      "v": 100
    },
    {
      "midi": 59,
      "hit": false,
      "t": 36984.375,
      "d": 140.625,
      "v": 100
    },
    {
      "midi": 59,
      "hit": false,
      "t": 36984.375,
      "d": 140.625,
      "v": 100
    },
    {
      "midi": 62,
      "hit": false,
      "t": 37031.25,
      "d": 93.75,
      "v": 100
    },
    {
      "midi": 62,
      "hit": false,
      "t": 37031.25,
      "d": 93.75,
      "v": 100
    },
    {
      "midi": 69,
      "hit": false,
      "t": 37125,
      "d": 187.5,
      "v": 100
    },
    {
      "midi": 62,
      "hit": false,
      "t": 37125,
      "d": 93.75,
      "v": 100
    },
    {
      "midi": 59,
      "hit": false,
      "t": 37125,
      "d": 93.75,
      "v": 100
    },
    {
      "midi": 76,
      "hit": false,
      "t": 37125,
      "d": 187.5,
      "v": 100
    },
    {
      "midi": 40,
      "hit": false,
      "t": 37125,
      "d": 0.78125,
      "v": 100
    },
    {
      "midi": 69,
      "hit": false,
      "t": 37125,
      "d": 187.5,
      "v": 100
    },
    {
      "midi": 62,
      "hit": false,
      "t": 37125,
      "d": 93.75,
      "v": 100
    },
    {
      "midi": 59,
      "hit": false,
      "t": 37125,
      "d": 93.75,
      "v": 100
    },
    {
      "midi": 71,
      "hit": false,
      "t": 37312.5,
      "d": 375,
      "v": 100
    },
    {
      "midi": 62,
      "hit": false,
      "t": 37312.5,
      "d": 93.75,
      "v": 100
    },
    {
      "midi": 59,
      "hit": false,
      "t": 37312.5,
      "d": 93.75,
      "v": 100
    },
    {
      "midi": 69,
      "hit": false,
      "t": 37312.5,
      "d": 375,
      "v": 100
    },
    {
      "midi": 71,
      "hit": false,
      "t": 37312.5,
      "d": 375,
      "v": 100
    },
    {
      "midi": 62,
      "hit": false,
      "t": 37312.5,
      "d": 93.75,
      "v": 100
    },
    {
      "midi": 59,
      "hit": false,
      "t": 37312.5,
      "d": 93.75,
      "v": 100
    },
    {
      "midi": 76,
      "hit": false,
      "t": 37500,
      "d": 1500,
      "v": 100
    },
    {
      "midi": 57,
      "hit": false,
      "t": 37500,
      "d": 46.875,
      "v": 100
    },
    {
      "midi": 49,
      "hit": false,
      "t": 37500,
      "d": 140.625,
      "v": 100
    },
    {
      "midi": 36,
      "hit": false,
      "t": 37500,
      "d": 0.78125,
      "v": 100
    },
    {
      "midi": 76,
      "hit": false,
      "t": 37500,
      "d": 1500,
      "v": 100
    },
    {
      "midi": 57,
      "hit": false,
      "t": 37500,
      "d": 46.875,
      "v": 100
    },
    {
      "midi": 61,
      "hit": false,
      "t": 37546.875,
      "d": 140.625,
      "v": 100
    },
    {
      "midi": 61,
      "hit": false,
      "t": 37546.875,
      "d": 140.625,
      "v": 100
    },
    {
      "midi": 64,
      "hit": false,
      "t": 37593.75,
      "d": 93.75,
      "v": 100
    },
    {
      "midi": 64,
      "hit": false,
      "t": 37593.75,
      "d": 93.75,
      "v": 100
    },
    {
      "midi": 73,
      "hit": false,
      "t": 37687.5,
      "d": 187.5,
      "v": 100
    },
    {
      "midi": 49,
      "hit": false,
      "t": 37687.5,
      "d": 468.75,
      "v": 100
    },
    {
      "midi": 69,
      "hit": false,
      "t": 37687.5,
      "d": 187.5,
      "v": 100
    },
    {
      "midi": 36,
      "hit": false,
      "t": 37687.5,
      "d": 0.78125,
      "v": 100
    },
    {
      "midi": 73,
      "hit": false,
      "t": 37687.5,
      "d": 187.5,
      "v": 100
    },
    {
      "midi": 74,
      "hit": false,
      "t": 37875,
      "d": 328.125,
      "v": 100
    },
    {
      "midi": 64,
      "hit": false,
      "t": 37875,
      "d": 93.75,
      "v": 100
    },
    {
      "midi": 61,
      "hit": false,
      "t": 37875,
      "d": 93.75,
      "v": 100
    },
    {
      "midi": 54,
      "hit": false,
      "t": 37875,
      "d": 46.875,
      "v": 100
    },
    {
      "midi": 69,
      "hit": false,
      "t": 37875,
      "d": 328.125,
      "v": 100
    },
    {
      "midi": 40,
      "hit": false,
      "t": 37875,
      "d": 0.78125,
      "v": 100
    },
    {
      "midi": 74,
      "hit": false,
      "t": 37875,
      "d": 328.125,
      "v": 100
    },
    {
      "midi": 64,
      "hit": false,
      "t": 37875,
      "d": 93.75,
      "v": 100
    },
    {
      "midi": 61,
      "hit": false,
      "t": 37875,
      "d": 93.75,
      "v": 100
    },
    {
      "midi": 54,
      "hit": false,
      "t": 37875,
      "d": 46.875,
      "v": 100
    },
    {
      "midi": 57,
      "hit": false,
      "t": 37921.875,
      "d": 140.625,
      "v": 100
    },
    {
      "midi": 57,
      "hit": false,
      "t": 37921.875,
      "d": 140.625,
      "v": 100
    },
    {
      "midi": 61,
      "hit": false,
      "t": 37968.75,
      "d": 93.75,
      "v": 100
    },
    {
      "midi": 61,
      "hit": false,
      "t": 37968.75,
      "d": 93.75,
      "v": 100
    },
    {
      "midi": 61,
      "hit": false,
      "t": 38062.5,
      "d": 93.75,
      "v": 100
    },
    {
      "midi": 64,
      "hit": false,
      "t": 38062.5,
      "d": 93.75,
      "v": 100
    },
    {
      "midi": 61,
      "hit": false,
      "t": 38062.5,
      "d": 93.75,
      "v": 100
    },
    {
      "midi": 64,
      "hit": false,
      "t": 38062.5,
      "d": 93.75,
      "v": 100
    },
    {
      "midi": 74,
      "hit": false,
      "t": 38250,
      "d": 234.375,
      "v": 100
    },
    {
      "midi": 61,
      "hit": false,
      "t": 38250,
      "d": 93.75,
      "v": 100
    },
    {
      "midi": 64,
      "hit": false,
      "t": 38250,
      "d": 93.75,
      "v": 100
    },
    {
      "midi": 49,
      "hit": false,
      "t": 38250,
      "d": 140.625,
      "v": 100
    },
    {
      "midi": 74,
      "hit": false,
      "t": 38250,
      "d": 234.375,
      "v": 100
    },
    {
      "midi": 36,
      "hit": false,
      "t": 38250,
      "d": 0.78125,
      "v": 100
    },
    {
      "midi": 74,
      "hit": false,
      "t": 38250,
      "d": 234.375,
      "v": 100
    },
    {
      "midi": 61,
      "hit": false,
      "t": 38250,
      "d": 93.75,
      "v": 100
    },
    {
      "midi": 64,
      "hit": false,
      "t": 38250,
      "d": 93.75,
      "v": 100
    },
    {
      "midi": 64,
      "hit": false,
      "t": 38437.5,
      "d": 93.75,
      "v": 100
    },
    {
      "midi": 61,
      "hit": false,
      "t": 38437.5,
      "d": 93.75,
      "v": 100
    },
    {
      "midi": 54,
      "hit": false,
      "t": 38437.5,
      "d": 46.875,
      "v": 100
    },
    {
      "midi": 49,
      "hit": false,
      "t": 38437.5,
      "d": 468.75,
      "v": 100
    },
    {
      "midi": 36,
      "hit": false,
      "t": 38437.5,
      "d": 0.78125,
      "v": 100
    },
    {
      "midi": 64,
      "hit": false,
      "t": 38437.5,
      "d": 93.75,
      "v": 100
    },
    {
      "midi": 61,
      "hit": false,
      "t": 38437.5,
      "d": 93.75,
      "v": 100
    },
    {
      "midi": 54,
      "hit": false,
      "t": 38437.5,
      "d": 46.875,
      "v": 100
    },
    {
      "midi": 57,
      "hit": false,
      "t": 38484.375,
      "d": 140.625,
      "v": 100
    },
    {
      "midi": 57,
      "hit": false,
      "t": 38484.375,
      "d": 140.625,
      "v": 100
    },
    {
      "midi": 61,
      "hit": false,
      "t": 38531.25,
      "d": 93.75,
      "v": 100
    },
    {
      "midi": 61,
      "hit": false,
      "t": 38531.25,
      "d": 93.75,
      "v": 100
    },
    {
      "midi": 74,
      "hit": false,
      "t": 38625,
      "d": 609.375,
      "v": 100
    },
    {
      "midi": 61,
      "hit": false,
      "t": 38625,
      "d": 93.75,
      "v": 100
    },
    {
      "midi": 64,
      "hit": false,
      "t": 38625,
      "d": 93.75,
      "v": 100
    },
    {
      "midi": 69,
      "hit": false,
      "t": 38625,
      "d": 609.375,
      "v": 100
    },
    {
      "midi": 40,
      "hit": false,
      "t": 38625,
      "d": 0.78125,
      "v": 100
    },
    {
      "midi": 74,
      "hit": false,
      "t": 38625,
      "d": 609.375,
      "v": 100
    },
    {
      "midi": 61,
      "hit": false,
      "t": 38625,
      "d": 93.75,
      "v": 100
    },
    {
      "midi": 64,
      "hit": false,
      "t": 38625,
      "d": 93.75,
      "v": 100
    },
    {
      "midi": 64,
      "hit": false,
      "t": 38812.5,
      "d": 93.75,
      "v": 100
    },
    {
      "midi": 61,
      "hit": false,
      "t": 38812.5,
      "d": 93.75,
      "v": 100
    },
    {
      "midi": 64,
      "hit": false,
      "t": 38812.5,
      "d": 93.75,
      "v": 100
    },
    {
      "midi": 61,
      "hit": false,
      "t": 38812.5,
      "d": 93.75,
      "v": 100
    },
    {
      "midi": 73,
      "hit": false,
      "t": 39000,
      "d": 1500,
      "v": 100
    },
    {
      "midi": 54,
      "hit": false,
      "t": 39000,
      "d": 46.875,
      "v": 100
    },
    {
      "midi": 47,
      "hit": false,
      "t": 39000,
      "d": 140.625,
      "v": 100
    },
    {
      "midi": 36,
      "hit": false,
      "t": 39000,
      "d": 0.78125,
      "v": 100
    },
    {
      "midi": 73,
      "hit": false,
      "t": 39000,
      "d": 1500,
      "v": 100
    },
    {
      "midi": 54,
      "hit": false,
      "t": 39000,
      "d": 46.875,
      "v": 100
    },
    {
      "midi": 57,
      "hit": false,
      "t": 39046.875,
      "d": 140.625,
      "v": 100
    },
    {
      "midi": 57,
      "hit": false,
      "t": 39046.875,
      "d": 140.625,
      "v": 100
    },
    {
      "midi": 61,
      "hit": false,
      "t": 39093.75,
      "d": 93.75,
      "v": 100
    },
    {
      "midi": 61,
      "hit": false,
      "t": 39093.75,
      "d": 93.75,
      "v": 100
    },
    {
      "midi": 47,
      "hit": false,
      "t": 39187.5,
      "d": 468.75,
      "v": 100
    },
    {
      "midi": 36,
      "hit": false,
      "t": 39187.5,
      "d": 0.78125,
      "v": 100
    },
    {
      "midi": 61,
      "hit": false,
      "t": 39375,
      "d": 93.75,
      "v": 100
    },
    {
      "midi": 57,
      "hit": false,
      "t": 39375,
      "d": 93.75,
      "v": 100
    },
    {
      "midi": 52,
      "hit": false,
      "t": 39375,
      "d": 46.875,
      "v": 100
    },
    {
      "midi": 40,
      "hit": false,
      "t": 39375,
      "d": 0.78125,
      "v": 100
    },
    {
      "midi": 61,
      "hit": false,
      "t": 39375,
      "d": 93.75,
      "v": 100
    },
    {
      "midi": 57,
      "hit": false,
      "t": 39375,
      "d": 93.75,
      "v": 100
    },
    {
      "midi": 52,
      "hit": false,
      "t": 39375,
      "d": 46.875,
      "v": 100
    },
    {
      "midi": 55,
      "hit": false,
      "t": 39421.875,
      "d": 140.625,
      "v": 100
    },
    {
      "midi": 55,
      "hit": false,
      "t": 39421.875,
      "d": 140.625,
      "v": 100
    },
    {
      "midi": 59,
      "hit": false,
      "t": 39468.75,
      "d": 93.75,
      "v": 100
    },
    {
      "midi": 59,
      "hit": false,
      "t": 39468.75,
      "d": 93.75,
      "v": 100
    },
    {
      "midi": 61,
      "hit": false,
      "t": 39562.5,
      "d": 93.75,
      "v": 100
    },
    {
      "midi": 57,
      "hit": false,
      "t": 39562.5,
      "d": 93.75,
      "v": 100
    },
    {
      "midi": 61,
      "hit": false,
      "t": 39562.5,
      "d": 93.75,
      "v": 100
    },
    {
      "midi": 57,
      "hit": false,
      "t": 39562.5,
      "d": 93.75,
      "v": 100
    },
    {
      "midi": 61,
      "hit": false,
      "t": 39750,
      "d": 93.75,
      "v": 100
    },
    {
      "midi": 57,
      "hit": false,
      "t": 39750,
      "d": 93.75,
      "v": 100
    },
    {
      "midi": 47,
      "hit": false,
      "t": 39750,
      "d": 140.625,
      "v": 100
    },
    {
      "midi": 36,
      "hit": false,
      "t": 39750,
      "d": 0.78125,
      "v": 100
    },
    {
      "midi": 61,
      "hit": false,
      "t": 39750,
      "d": 93.75,
      "v": 100
    },
    {
      "midi": 57,
      "hit": false,
      "t": 39750,
      "d": 93.75,
      "v": 100
    },
    {
      "midi": 73,
      "hit": false,
      "t": 39937.5,
      "d": 187.5,
      "v": 100
    },
    {
      "midi": 61,
      "hit": false,
      "t": 39937.5,
      "d": 93.75,
      "v": 100
    },
    {
      "midi": 57,
      "hit": false,
      "t": 39937.5,
      "d": 93.75,
      "v": 100
    },
    {
      "midi": 52,
      "hit": false,
      "t": 39937.5,
      "d": 46.875,
      "v": 100
    },
    {
      "midi": 47,
      "hit": false,
      "t": 39937.5,
      "d": 468.75,
      "v": 100
    },
    {
      "midi": 36,
      "hit": false,
      "t": 39937.5,
      "d": 0.78125,
      "v": 100
    },
    {
      "midi": 73,
      "hit": false,
      "t": 39937.5,
      "d": 187.5,
      "v": 100
    },
    {
      "midi": 61,
      "hit": false,
      "t": 39937.5,
      "d": 93.75,
      "v": 100
    },
    {
      "midi": 57,
      "hit": false,
      "t": 39937.5,
      "d": 93.75,
      "v": 100
    },
    {
      "midi": 52,
      "hit": false,
      "t": 39937.5,
      "d": 46.875,
      "v": 100
    },
    {
      "midi": 55,
      "hit": false,
      "t": 39984.375,
      "d": 140.625,
      "v": 100
    },
    {
      "midi": 55,
      "hit": false,
      "t": 39984.375,
      "d": 140.625,
      "v": 100
    },
    {
      "midi": 59,
      "hit": false,
      "t": 40031.25,
      "d": 93.75,
      "v": 100
    },
    {
      "midi": 59,
      "hit": false,
      "t": 40031.25,
      "d": 93.75,
      "v": 100
    },
    {
      "midi": 74,
      "hit": false,
      "t": 40125,
      "d": 187.5,
      "v": 100
    },
    {
      "midi": 61,
      "hit": false,
      "t": 40125,
      "d": 93.75,
      "v": 100
    },
    {
      "midi": 57,
      "hit": false,
      "t": 40125,
      "d": 93.75,
      "v": 100
    },
    {
      "midi": 40,
      "hit": false,
      "t": 40125,
      "d": 0.78125,
      "v": 100
    },
    {
      "midi": 74,
      "hit": false,
      "t": 40125,
      "d": 187.5,
      "v": 100
    },
    {
      "midi": 61,
      "hit": false,
      "t": 40125,
      "d": 93.75,
      "v": 100
    },
    {
      "midi": 57,
      "hit": false,
      "t": 40125,
      "d": 93.75,
      "v": 100
    },
    {
      "midi": 76,
      "hit": false,
      "t": 40312.5,
      "d": 187.5,
      "v": 100
    },
    {
      "midi": 61,
      "hit": false,
      "t": 40312.5,
      "d": 93.75,
      "v": 100
    },
    {
      "midi": 57,
      "hit": false,
      "t": 40312.5,
      "d": 93.75,
      "v": 100
    },
    {
      "midi": 76,
      "hit": false,
      "t": 40312.5,
      "d": 187.5,
      "v": 100
    },
    {
      "midi": 61,
      "hit": false,
      "t": 40312.5,
      "d": 93.75,
      "v": 100
    },
    {
      "midi": 57,
      "hit": false,
      "t": 40312.5,
      "d": 93.75,
      "v": 100
    },
    {
      "midi": 81,
      "hit": false,
      "t": 40500,
      "d": 375,
      "v": 100
    },
    {
      "midi": 69,
      "hit": false,
      "t": 40500,
      "d": 1500,
      "v": 100
    },
    {
      "midi": 50,
      "hit": false,
      "t": 40500,
      "d": 46.875,
      "v": 100
    },
    {
      "midi": 45,
      "hit": false,
      "t": 40500,
      "d": 140.625,
      "v": 100
    },
    {
      "midi": 36,
      "hit": false,
      "t": 40500,
      "d": 0.78125,
      "v": 100
    },
    {
      "midi": 81,
      "hit": false,
      "t": 40500,
      "d": 375,
      "v": 100
    },
    {
      "midi": 69,
      "hit": false,
      "t": 40500,
      "d": 1500,
      "v": 100
    },
    {
      "midi": 50,
      "hit": false,
      "t": 40500,
      "d": 46.875,
      "v": 100
    },
    {
      "midi": 54,
      "hit": false,
      "t": 40546.875,
      "d": 140.625,
      "v": 100
    },
    {
      "midi": 54,
      "hit": false,
      "t": 40546.875,
      "d": 140.625,
      "v": 100
    },
    {
      "midi": 57,
      "hit": false,
      "t": 40593.75,
      "d": 93.75,
      "v": 100
    },
    {
      "midi": 57,
      "hit": false,
      "t": 40593.75,
      "d": 93.75,
      "v": 100
    },
    {
      "midi": 45,
      "hit": false,
      "t": 40687.5,
      "d": 468.75,
      "v": 100
    },
    {
      "midi": 36,
      "hit": false,
      "t": 40687.5,
      "d": 0.78125,
      "v": 100
    },
    {
      "midi": 79,
      "hit": false,
      "t": 40875,
      "d": 187.5,
      "v": 100
    },
    {
      "midi": 57,
      "hit": false,
      "t": 40875,
      "d": 93.75,
      "v": 100
    },
    {
      "midi": 54,
      "hit": false,
      "t": 40875,
      "d": 93.75,
      "v": 100
    },
    {
      "midi": 50,
      "hit": false,
      "t": 40875,
      "d": 46.875,
      "v": 100
    },
    {
      "midi": 40,
      "hit": false,
      "t": 40875,
      "d": 0.78125,
      "v": 100
    },
    {
      "midi": 79,
      "hit": false,
      "t": 40875,
      "d": 187.5,
      "v": 100
    },
    {
      "midi": 57,
      "hit": false,
      "t": 40875,
      "d": 93.75,
      "v": 100
    },
    {
      "midi": 54,
      "hit": false,
      "t": 40875,
      "d": 93.75,
      "v": 100
    },
    {
      "midi": 50,
      "hit": false,
      "t": 40875,
      "d": 46.875,
      "v": 100
    },
    {
      "midi": 54,
      "hit": false,
      "t": 40921.875,
      "d": 140.625,
      "v": 100
    },
    {
      "midi": 54,
      "hit": false,
      "t": 40921.875,
      "d": 140.625,
      "v": 100
    },
    {
      "midi": 57,
      "hit": false,
      "t": 40968.75,
      "d": 93.75,
      "v": 100
    },
    {
      "midi": 57,
      "hit": false,
      "t": 40968.75,
      "d": 93.75,
      "v": 100
    },
    {
      "midi": 74,
      "hit": false,
      "t": 41062.5,
      "d": 562.5,
      "v": 100
    },
    {
      "midi": 57,
      "hit": false,
      "t": 41062.5,
      "d": 93.75,
      "v": 100
    },
    {
      "midi": 54,
      "hit": false,
      "t": 41062.5,
      "d": 93.75,
      "v": 100
    },
    {
      "midi": 74,
      "hit": false,
      "t": 41062.5,
      "d": 562.5,
      "v": 100
    },
    {
      "midi": 57,
      "hit": false,
      "t": 41062.5,
      "d": 93.75,
      "v": 100
    },
    {
      "midi": 54,
      "hit": false,
      "t": 41062.5,
      "d": 93.75,
      "v": 100
    },
    {
      "midi": 57,
      "hit": false,
      "t": 41250,
      "d": 93.75,
      "v": 100
    },
    {
      "midi": 54,
      "hit": false,
      "t": 41250,
      "d": 93.75,
      "v": 100
    },
    {
      "midi": 45,
      "hit": false,
      "t": 41250,
      "d": 140.625,
      "v": 100
    },
    {
      "midi": 36,
      "hit": false,
      "t": 41250,
      "d": 0.78125,
      "v": 100
    },
    {
      "midi": 57,
      "hit": false,
      "t": 41250,
      "d": 93.75,
      "v": 100
    },
    {
      "midi": 54,
      "hit": false,
      "t": 41250,
      "d": 93.75,
      "v": 100
    },
    {
      "midi": 57,
      "hit": false,
      "t": 41437.5,
      "d": 93.75,
      "v": 100
    },
    {
      "midi": 54,
      "hit": false,
      "t": 41437.5,
      "d": 93.75,
      "v": 100
    },
    {
      "midi": 50,
      "hit": false,
      "t": 41437.5,
      "d": 46.875,
      "v": 100
    },
    {
      "midi": 45,
      "hit": false,
      "t": 41437.5,
      "d": 468.75,
      "v": 100
    },
    {
      "midi": 36,
      "hit": false,
      "t": 41437.5,
      "d": 0.78125,
      "v": 100
    },
    {
      "midi": 57,
      "hit": false,
      "t": 41437.5,
      "d": 93.75,
      "v": 100
    },
    {
      "midi": 54,
      "hit": false,
      "t": 41437.5,
      "d": 93.75,
      "v": 100
    },
    {
      "midi": 50,
      "hit": false,
      "t": 41437.5,
      "d": 46.875,
      "v": 100
    },
    {
      "midi": 54,
      "hit": false,
      "t": 41484.375,
      "d": 140.625,
      "v": 100
    },
    {
      "midi": 54,
      "hit": false,
      "t": 41484.375,
      "d": 140.625,
      "v": 100
    },
    {
      "midi": 57,
      "hit": false,
      "t": 41531.25,
      "d": 93.75,
      "v": 100
    },
    {
      "midi": 57,
      "hit": false,
      "t": 41531.25,
      "d": 93.75,
      "v": 100
    },
    {
      "midi": 57,
      "hit": false,
      "t": 41625,
      "d": 93.75,
      "v": 100
    },
    {
      "midi": 54,
      "hit": false,
      "t": 41625,
      "d": 93.75,
      "v": 100
    },
    {
      "midi": 40,
      "hit": false,
      "t": 41625,
      "d": 0.78125,
      "v": 100
    },
    {
      "midi": 57,
      "hit": false,
      "t": 41625,
      "d": 93.75,
      "v": 100
    },
    {
      "midi": 54,
      "hit": false,
      "t": 41625,
      "d": 93.75,
      "v": 100
    },
    {
      "midi": 57,
      "hit": false,
      "t": 41812.5,
      "d": 93.75,
      "v": 100
    },
    {
      "midi": 54,
      "hit": false,
      "t": 41812.5,
      "d": 93.75,
      "v": 100
    },
    {
      "midi": 57,
      "hit": false,
      "t": 41812.5,
      "d": 93.75,
      "v": 100
    },
    {
      "midi": 54,
      "hit": false,
      "t": 41812.5,
      "d": 93.75,
      "v": 100
    },
    {
      "midi": 67,
      "hit": false,
      "t": 42000,
      "d": 1500,
      "v": 100
    },
    {
      "midi": 49,
      "hit": false,
      "t": 42000,
      "d": 46.875,
      "v": 100
    },
    {
      "midi": 43,
      "hit": false,
      "t": 42000,
      "d": 140.625,
      "v": 100
    },
    {
      "midi": 36,
      "hit": false,
      "t": 42000,
      "d": 0.78125,
      "v": 100
    },
    {
      "midi": 67,
      "hit": false,
      "t": 42000,
      "d": 1500,
      "v": 100
    },
    {
      "midi": 49,
      "hit": false,
      "t": 42000,
      "d": 46.875,
      "v": 100
    },
    {
      "midi": 52,
      "hit": false,
      "t": 42046.875,
      "d": 140.625,
      "v": 100
    },
    {
      "midi": 52,
      "hit": false,
      "t": 42046.875,
      "d": 140.625,
      "v": 100
    },
    {
      "midi": 55,
      "hit": false,
      "t": 42093.75,
      "d": 93.75,
      "v": 100
    },
    {
      "midi": 55,
      "hit": false,
      "t": 42093.75,
      "d": 93.75,
      "v": 100
    },
    {
      "midi": 43,
      "hit": false,
      "t": 42187.5,
      "d": 468.75,
      "v": 100
    },
    {
      "midi": 36,
      "hit": false,
      "t": 42187.5,
      "d": 0.78125,
      "v": 100
    },
    {
      "midi": 55,
      "hit": false,
      "t": 42375,
      "d": 93.75,
      "v": 100
    },
    {
      "midi": 52,
      "hit": false,
      "t": 42375,
      "d": 93.75,
      "v": 100
    },
    {
      "midi": 49,
      "hit": false,
      "t": 42375,
      "d": 46.875,
      "v": 100
    },
    {
      "midi": 40,
      "hit": false,
      "t": 42375,
      "d": 0.78125,
      "v": 100
    },
    {
      "midi": 55,
      "hit": false,
      "t": 42375,
      "d": 93.75,
      "v": 100
    },
    {
      "midi": 52,
      "hit": false,
      "t": 42375,
      "d": 93.75,
      "v": 100
    },
    {
      "midi": 49,
      "hit": false,
      "t": 42375,
      "d": 46.875,
      "v": 100
    },
    {
      "midi": 52,
      "hit": false,
      "t": 42421.875,
      "d": 140.625,
      "v": 100
    },
    {
      "midi": 52,
      "hit": false,
      "t": 42421.875,
      "d": 140.625,
      "v": 100
    },
    {
      "midi": 55,
      "hit": false,
      "t": 42468.75,
      "d": 93.75,
      "v": 100
    },
    {
      "midi": 55,
      "hit": false,
      "t": 42468.75,
      "d": 93.75,
      "v": 100
    },
    {
      "midi": 55,
      "hit": false,
      "t": 42562.5,
      "d": 93.75,
      "v": 100
    },
    {
      "midi": 52,
      "hit": false,
      "t": 42562.5,
      "d": 93.75,
      "v": 100
    },
    {
      "midi": 55,
      "hit": false,
      "t": 42562.5,
      "d": 93.75,
      "v": 100
    },
    {
      "midi": 52,
      "hit": false,
      "t": 42562.5,
      "d": 93.75,
      "v": 100
    },
    {
      "midi": 55,
      "hit": false,
      "t": 42750,
      "d": 93.75,
      "v": 100
    },
    {
      "midi": 52,
      "hit": false,
      "t": 42750,
      "d": 93.75,
      "v": 100
    },
    {
      "midi": 43,
      "hit": false,
      "t": 42750,
      "d": 140.625,
      "v": 100
    },
    {
      "midi": 36,
      "hit": false,
      "t": 42750,
      "d": 0.78125,
      "v": 100
    },
    {
      "midi": 40,
      "hit": false,
      "t": 42750,
      "d": 0.78125,
      "v": 100
    },
    {
      "midi": 55,
      "hit": false,
      "t": 42750,
      "d": 93.75,
      "v": 100
    },
    {
      "midi": 52,
      "hit": false,
      "t": 42750,
      "d": 93.75,
      "v": 100
    },
    {
      "midi": 38,
      "hit": false,
      "t": 42843.75,
      "d": 0.78125,
      "v": 100
    },
    {
      "midi": 73,
      "hit": false,
      "t": 42937.5,
      "d": 187.5,
      "v": 100
    },
    {
      "midi": 55,
      "hit": false,
      "t": 42937.5,
      "d": 93.75,
      "v": 100
    },
    {
      "midi": 52,
      "hit": false,
      "t": 42937.5,
      "d": 93.75,
      "v": 100
    },
    {
      "midi": 49,
      "hit": false,
      "t": 42937.5,
      "d": 46.875,
      "v": 100
    },
    {
      "midi": 43,
      "hit": false,
      "t": 42937.5,
      "d": 468.75,
      "v": 100
    },
    {
      "midi": 36,
      "hit": false,
      "t": 42937.5,
      "d": 0.78125,
      "v": 100
    },
    {
      "midi": 73,
      "hit": false,
      "t": 42937.5,
      "d": 187.5,
      "v": 100
    },
    {
      "midi": 55,
      "hit": false,
      "t": 42937.5,
      "d": 93.75,
      "v": 100
    },
    {
      "midi": 52,
      "hit": false,
      "t": 42937.5,
      "d": 93.75,
      "v": 100
    },
    {
      "midi": 49,
      "hit": false,
      "t": 42937.5,
      "d": 46.875,
      "v": 100
    },
    {
      "midi": 52,
      "hit": false,
      "t": 42984.375,
      "d": 140.625,
      "v": 100
    },
    {
      "midi": 52,
      "hit": false,
      "t": 42984.375,
      "d": 140.625,
      "v": 100
    },
    {
      "midi": 55,
      "hit": false,
      "t": 43031.25,
      "d": 93.75,
      "v": 100
    },
    {
      "midi": 55,
      "hit": false,
      "t": 43031.25,
      "d": 93.75,
      "v": 100
    },
    {
      "midi": 74,
      "hit": false,
      "t": 43125,
      "d": 187.5,
      "v": 100
    },
    {
      "midi": 55,
      "hit": false,
      "t": 43125,
      "d": 93.75,
      "v": 100
    },
    {
      "midi": 52,
      "hit": false,
      "t": 43125,
      "d": 93.75,
      "v": 100
    },
    {
      "midi": 40,
      "hit": false,
      "t": 43125,
      "d": 0.78125,
      "v": 100
    },
    {
      "midi": 74,
      "hit": false,
      "t": 43125,
      "d": 187.5,
      "v": 100
    },
    {
      "midi": 55,
      "hit": false,
      "t": 43125,
      "d": 93.75,
      "v": 100
    },
    {
      "midi": 52,
      "hit": false,
      "t": 43125,
      "d": 93.75,
      "v": 100
    },
    {
      "midi": 76,
      "hit": false,
      "t": 43312.5,
      "d": 187.5,
      "v": 100
    },
    {
      "midi": 55,
      "hit": false,
      "t": 43312.5,
      "d": 93.75,
      "v": 100
    },
    {
      "midi": 52,
      "hit": false,
      "t": 43312.5,
      "d": 93.75,
      "v": 100
    },
    {
      "midi": 76,
      "hit": false,
      "t": 43312.5,
      "d": 187.5,
      "v": 100
    },
    {
      "midi": 55,
      "hit": false,
      "t": 43312.5,
      "d": 93.75,
      "v": 100
    },
    {
      "midi": 52,
      "hit": false,
      "t": 43312.5,
      "d": 93.75,
      "v": 100
    },
    {
      "midi": 81,
      "hit": false,
      "t": 43500,
      "d": 375,
      "v": 100
    },
    {
      "midi": 66,
      "hit": false,
      "t": 43500,
      "d": 1500,
      "v": 100
    },
    {
      "midi": 47,
      "hit": false,
      "t": 43500,
      "d": 46.875,
      "v": 100
    },
    {
      "midi": 47,
      "hit": false,
      "t": 43500,
      "d": 46.875,
      "v": 100
    },
    {
      "midi": 42,
      "hit": false,
      "t": 43500,
      "d": 1500,
      "v": 100
    },
    {
      "midi": 36,
      "hit": false,
      "t": 43500,
      "d": 0.78125,
      "v": 100
    },
    {
      "midi": 81,
      "hit": false,
      "t": 43500,
      "d": 375,
      "v": 100
    },
    {
      "midi": 66,
      "hit": false,
      "t": 43500,
      "d": 1500,
      "v": 100
    },
    {
      "midi": 47,
      "hit": false,
      "t": 43500,
      "d": 46.875,
      "v": 100
    },
    {
      "midi": 47,
      "hit": false,
      "t": 43500,
      "d": 46.875,
      "v": 100
    },
    {
      "midi": 50,
      "hit": false,
      "t": 43546.875,
      "d": 140.625,
      "v": 100
    },
    {
      "midi": 50,
      "hit": false,
      "t": 43546.875,
      "d": 140.625,
      "v": 100
    },
    {
      "midi": 50,
      "hit": false,
      "t": 43546.875,
      "d": 140.625,
      "v": 100
    },
    {
      "midi": 50,
      "hit": false,
      "t": 43546.875,
      "d": 140.625,
      "v": 100
    },
    {
      "midi": 54,
      "hit": false,
      "t": 43593.75,
      "d": 93.75,
      "v": 100
    },
    {
      "midi": 54,
      "hit": false,
      "t": 43593.75,
      "d": 93.75,
      "v": 100
    },
    {
      "midi": 54,
      "hit": false,
      "t": 43593.75,
      "d": 93.75,
      "v": 100
    },
    {
      "midi": 54,
      "hit": false,
      "t": 43593.75,
      "d": 93.75,
      "v": 100
    },
    {
      "midi": 79,
      "hit": false,
      "t": 43875,
      "d": 187.5,
      "v": 100
    },
    {
      "midi": 54,
      "hit": false,
      "t": 43875,
      "d": 93.75,
      "v": 100
    },
    {
      "midi": 50,
      "hit": false,
      "t": 43875,
      "d": 93.75,
      "v": 100
    },
    {
      "midi": 47,
      "hit": false,
      "t": 43875,
      "d": 46.875,
      "v": 100
    },
    {
      "midi": 40,
      "hit": false,
      "t": 43875,
      "d": 0.78125,
      "v": 100
    },
    {
      "midi": 55,
      "hit": false,
      "t": 43875,
      "d": 0.78125,
      "v": 100
    },
    {
      "midi": 79,
      "hit": false,
      "t": 43875,
      "d": 187.5,
      "v": 100
    },
    {
      "midi": 54,
      "hit": false,
      "t": 43875,
      "d": 93.75,
      "v": 100
    },
    {
      "midi": 50,
      "hit": false,
      "t": 43875,
      "d": 93.75,
      "v": 100
    },
    {
      "midi": 47,
      "hit": false,
      "t": 43875,
      "d": 46.875,
      "v": 100
    },
    {
      "midi": 50,
      "hit": false,
      "t": 43921.875,
      "d": 140.625,
      "v": 100
    },
    {
      "midi": 50,
      "hit": false,
      "t": 43921.875,
      "d": 140.625,
      "v": 100
    },
    {
      "midi": 54,
      "hit": false,
      "t": 43968.75,
      "d": 93.75,
      "v": 100
    },
    {
      "midi": 54,
      "hit": false,
      "t": 43968.75,
      "d": 93.75,
      "v": 100
    },
    {
      "midi": 78,
      "hit": false,
      "t": 44062.5,
      "d": 375,
      "v": 100
    },
    {
      "midi": 54,
      "hit": false,
      "t": 44062.5,
      "d": 93.75,
      "v": 100
    },
    {
      "midi": 50,
      "hit": false,
      "t": 44062.5,
      "d": 93.75,
      "v": 100
    },
    {
      "midi": 78,
      "hit": false,
      "t": 44062.5,
      "d": 375,
      "v": 100
    },
    {
      "midi": 54,
      "hit": false,
      "t": 44062.5,
      "d": 93.75,
      "v": 100
    },
    {
      "midi": 50,
      "hit": false,
      "t": 44062.5,
      "d": 93.75,
      "v": 100
    },
    {
      "midi": 54,
      "hit": false,
      "t": 44250,
      "d": 93.75,
      "v": 100
    },
    {
      "midi": 50,
      "hit": false,
      "t": 44250,
      "d": 93.75,
      "v": 100
    },
    {
      "midi": 43,
      "hit": false,
      "t": 44250,
      "d": 0.78125,
      "v": 100
    },
    {
      "midi": 38,
      "hit": false,
      "t": 44250,
      "d": 0.78125,
      "v": 100
    },
    {
      "midi": 54,
      "hit": false,
      "t": 44250,
      "d": 93.75,
      "v": 100
    },
    {
      "midi": 50,
      "hit": false,
      "t": 44250,
      "d": 93.75,
      "v": 100
    },
    {
      "midi": 43,
      "hit": false,
      "t": 44343.75,
      "d": 0.78125,
      "v": 100
    },
    {
      "midi": 38,
      "hit": false,
      "t": 44343.75,
      "d": 0.78125,
      "v": 100
    },
    {
      "midi": 76,
      "hit": false,
      "t": 44437.5,
      "d": 375,
      "v": 100
    },
    {
      "midi": 54,
      "hit": false,
      "t": 44437.5,
      "d": 93.75,
      "v": 100
    },
    {
      "midi": 50,
      "hit": false,
      "t": 44437.5,
      "d": 93.75,
      "v": 100
    },
    {
      "midi": 47,
      "hit": false,
      "t": 44437.5,
      "d": 46.875,
      "v": 100
    },
    {
      "midi": 38,
      "hit": false,
      "t": 44437.5,
      "d": 0.78125,
      "v": 100
    },
    {
      "midi": 76,
      "hit": false,
      "t": 44437.5,
      "d": 375,
      "v": 100
    },
    {
      "midi": 54,
      "hit": false,
      "t": 44437.5,
      "d": 93.75,
      "v": 100
    },
    {
      "midi": 50,
      "hit": false,
      "t": 44437.5,
      "d": 93.75,
      "v": 100
    },
    {
      "midi": 47,
      "hit": false,
      "t": 44437.5,
      "d": 46.875,
      "v": 100
    },
    {
      "midi": 50,
      "hit": false,
      "t": 44484.375,
      "d": 140.625,
      "v": 100
    },
    {
      "midi": 50,
      "hit": false,
      "t": 44484.375,
      "d": 140.625,
      "v": 100
    },
    {
      "midi": 54,
      "hit": false,
      "t": 44531.25,
      "d": 93.75,
      "v": 100
    },
    {
      "midi": 43,
      "hit": false,
      "t": 44531.25,
      "d": 0.78125,
      "v": 100
    },
    {
      "midi": 38,
      "hit": false,
      "t": 44531.25,
      "d": 0.78125,
      "v": 100
    },
    {
      "midi": 54,
      "hit": false,
      "t": 44531.25,
      "d": 93.75,
      "v": 100
    },
    {
      "midi": 54,
      "hit": false,
      "t": 44625,
      "d": 93.75,
      "v": 100
    },
    {
      "midi": 50,
      "hit": false,
      "t": 44625,
      "d": 93.75,
      "v": 100
    },
    {
      "midi": 45,
      "hit": false,
      "t": 44625,
      "d": 0.78125,
      "v": 100
    },
    {
      "midi": 38,
      "hit": false,
      "t": 44625,
      "d": 0.78125,
      "v": 100
    },
    {
      "midi": 54,
      "hit": false,
      "t": 44625,
      "d": 93.75,
      "v": 100
    },
    {
      "midi": 50,
      "hit": false,
      "t": 44625,
      "d": 93.75,
      "v": 100
    },
    {
      "midi": 45,
      "hit": false,
      "t": 44718.75,
      "d": 0.78125,
      "v": 100
    },
    {
      "midi": 38,
      "hit": false,
      "t": 44718.75,
      "d": 0.78125,
      "v": 100
    },
    {
      "midi": 78,
      "hit": false,
      "t": 44812.5,
      "d": 468.75,
      "v": 100
    },
    {
      "midi": 54,
      "hit": false,
      "t": 44812.5,
      "d": 93.75,
      "v": 100
    },
    {
      "midi": 50,
      "hit": false,
      "t": 44812.5,
      "d": 93.75,
      "v": 100
    },
    {
      "midi": 43,
      "hit": false,
      "t": 44812.5,
      "d": 0.78125,
      "v": 100
    },
    {
      "midi": 38,
      "hit": false,
      "t": 44812.5,
      "d": 0.78125,
      "v": 100
    },
    {
      "midi": 78,
      "hit": false,
      "t": 44812.5,
      "d": 468.75,
      "v": 100
    },
    {
      "midi": 54,
      "hit": false,
      "t": 44812.5,
      "d": 93.75,
      "v": 100
    },
    {
      "midi": 50,
      "hit": false,
      "t": 44812.5,
      "d": 93.75,
      "v": 100
    },
    {
      "midi": 41,
      "hit": false,
      "t": 44906.25,
      "d": 0.78125,
      "v": 100
    },
    {
      "midi": 38,
      "hit": false,
      "t": 44906.25,
      "d": 0.78125,
      "v": 100
    },
    {
      "midi": 52,
      "hit": false,
      "t": 45000,
      "d": 234.375,
      "v": 100
    },
    {
      "midi": 49,
      "hit": false,
      "t": 45000,
      "d": 234.375,
      "v": 100
    },
    {
      "midi": 43,
      "hit": false,
      "t": 45000,
      "d": 1500,
      "v": 100
    },
    {
      "midi": 36,
      "hit": false,
      "t": 45000,
      "d": 0.78125,
      "v": 100
    },
    {
      "midi": 55,
      "hit": false,
      "t": 45000,
      "d": 0.78125,
      "v": 100
    },
    {
      "midi": 40,
      "hit": false,
      "t": 45000,
      "d": 0.78125,
      "v": 100
    },
    {
      "midi": 38,
      "hit": false,
      "t": 45000,
      "d": 0.78125,
      "v": 100
    },
    {
      "midi": 52,
      "hit": false,
      "t": 45000,
      "d": 234.375,
      "v": 100
    },
    {
      "midi": 49,
      "hit": false,
      "t": 45000,
      "d": 234.375,
      "v": 100
    },
    {
      "midi": 76,
      "hit": false,
      "t": 45187.5,
      "d": 187.5,
      "v": 100
    },
    {
      "midi": 88,
      "hit": false,
      "t": 45187.5,
      "d": 187.5,
      "v": 100
    },
    {
      "midi": 52,
      "hit": false,
      "t": 45375,
      "d": 187.5,
      "v": 100
    },
    {
      "midi": 49,
      "hit": false,
      "t": 45375,
      "d": 187.5,
      "v": 100
    },
    {
      "midi": 74,
      "hit": false,
      "t": 45375,
      "d": 187.5,
      "v": 100
    },
    {
      "midi": 55,
      "hit": false,
      "t": 45375,
      "d": 0.78125,
      "v": 100
    },
    {
      "midi": 40,
      "hit": false,
      "t": 45375,
      "d": 0.78125,
      "v": 100
    },
    {
      "midi": 36,
      "hit": false,
      "t": 45375,
      "d": 0.78125,
      "v": 100
    },
    {
      "midi": 38,
      "hit": false,
      "t": 45375,
      "d": 0.78125,
      "v": 100
    },
    {
      "midi": 86,
      "hit": false,
      "t": 45375,
      "d": 187.5,
      "v": 100
    },
    {
      "midi": 52,
      "hit": false,
      "t": 45375,
      "d": 187.5,
      "v": 100
    },
    {
      "midi": 49,
      "hit": false,
      "t": 45375,
      "d": 187.5,
      "v": 100
    },
    {
      "midi": 50,
      "hit": false,
      "t": 45562.5,
      "d": 187.5,
      "v": 100
    },
    {
      "midi": 54,
      "hit": false,
      "t": 45562.5,
      "d": 187.5,
      "v": 100
    },
    {
      "midi": 73,
      "hit": false,
      "t": 45562.5,
      "d": 187.5,
      "v": 100
    },
    {
      "midi": 85,
      "hit": false,
      "t": 45562.5,
      "d": 187.5,
      "v": 100
    },
    {
      "midi": 50,
      "hit": false,
      "t": 45562.5,
      "d": 187.5,
      "v": 100
    },
    {
      "midi": 54,
      "hit": false,
      "t": 45562.5,
      "d": 187.5,
      "v": 100
    },
    {
      "midi": 52,
      "hit": false,
      "t": 45750,
      "d": 187.5,
      "v": 100
    },
    {
      "midi": 49,
      "hit": false,
      "t": 45750,
      "d": 187.5,
      "v": 100
    },
    {
      "midi": 71,
      "hit": false,
      "t": 45750,
      "d": 187.5,
      "v": 100
    },
    {
      "midi": 36,
      "hit": false,
      "t": 45750,
      "d": 0.78125,
      "v": 100
    },
    {
      "midi": 38,
      "hit": false,
      "t": 45750,
      "d": 0.78125,
      "v": 100
    },
    {
      "midi": 83,
      "hit": false,
      "t": 45750,
      "d": 187.5,
      "v": 100
    },
    {
      "midi": 52,
      "hit": false,
      "t": 45750,
      "d": 187.5,
      "v": 100
    },
    {
      "midi": 49,
      "hit": false,
      "t": 45750,
      "d": 187.5,
      "v": 100
    },
    {
      "midi": 40,
      "hit": false,
      "t": 45843.75,
      "d": 0.78125,
      "v": 100
    },
    {
      "midi": 54,
      "hit": false,
      "t": 45937.5,
      "d": 93.75,
      "v": 100
    },
    {
      "midi": 50,
      "hit": false,
      "t": 45937.5,
      "d": 93.75,
      "v": 100
    },
    {
      "midi": 69,
      "hit": false,
      "t": 45937.5,
      "d": 187.5,
      "v": 100
    },
    {
      "midi": 36,
      "hit": false,
      "t": 45937.5,
      "d": 0.78125,
      "v": 100
    },
    {
      "midi": 81,
      "hit": false,
      "t": 45937.5,
      "d": 187.5,
      "v": 100
    },
    {
      "midi": 54,
      "hit": false,
      "t": 45937.5,
      "d": 93.75,
      "v": 100
    },
    {
      "midi": 50,
      "hit": false,
      "t": 45937.5,
      "d": 93.75,
      "v": 100
    },
    {
      "midi": 52,
      "hit": false,
      "t": 46031.25,
      "d": 281.25,
      "v": 100
    },
    {
      "midi": 49,
      "hit": false,
      "t": 46031.25,
      "d": 281.25,
      "v": 100
    },
    {
      "midi": 38,
      "hit": false,
      "t": 46031.25,
      "d": 0.78125,
      "v": 100
    },
    {
      "midi": 52,
      "hit": false,
      "t": 46031.25,
      "d": 281.25,
      "v": 100
    },
    {
      "midi": 49,
      "hit": false,
      "t": 46031.25,
      "d": 281.25,
      "v": 100
    },
    {
      "midi": 67,
      "hit": false,
      "t": 46125,
      "d": 187.5,
      "v": 100
    },
    {
      "midi": 79,
      "hit": false,
      "t": 46125,
      "d": 187.5,
      "v": 100
    },
    {
      "midi": 40,
      "hit": false,
      "t": 46218.75,
      "d": 0.78125,
      "v": 100
    },
    {
      "midi": 66,
      "hit": false,
      "t": 46312.5,
      "d": 187.5,
      "v": 100
    },
    {
      "midi": 40,
      "hit": false,
      "t": 46312.5,
      "d": 0.78125,
      "v": 100
    },
    {
      "midi": 78,
      "hit": false,
      "t": 46312.5,
      "d": 187.5,
      "v": 100
    },
    {
      "midi": 40,
      "hit": false,
      "t": 46406.25,
      "d": 0.78125,
      "v": 100
    },
    {
      "midi": 78,
      "hit": false,
      "t": 46500,
      "d": 375,
      "v": 100
    },
    {
      "midi": 78,
      "hit": false,
      "t": 46500,
      "d": 1500,
      "v": 100
    },
    {
      "midi": 50,
      "hit": false,
      "t": 46500,
      "d": 46.875,
      "v": 100
    },
    {
      "midi": 47,
      "hit": false,
      "t": 46500,
      "d": 46.875,
      "v": 100
    },
    {
      "midi": 42,
      "hit": false,
      "t": 46500,
      "d": 1500,
      "v": 100
    },
    {
      "midi": 78,
      "hit": false,
      "t": 46500,
      "d": 187.5,
      "v": 100
    },
    {
      "midi": 36,
      "hit": false,
      "t": 46500,
      "d": 0.78125,
      "v": 100
    },
    {
      "midi": 78,
      "hit": false,
      "t": 46500,
      "d": 375,
      "v": 100
    },
    {
      "midi": 78,
      "hit": false,
      "t": 46500,
      "d": 1500,
      "v": 100
    },
    {
      "midi": 50,
      "hit": false,
      "t": 46500,
      "d": 46.875,
      "v": 100
    },
    {
      "midi": 47,
      "hit": false,
      "t": 46500,
      "d": 46.875,
      "v": 100
    },
    {
      "midi": 52,
      "hit": false,
      "t": 46546.875,
      "d": 46.875,
      "v": 100
    },
    {
      "midi": 49,
      "hit": false,
      "t": 46546.875,
      "d": 46.875,
      "v": 100
    },
    {
      "midi": 52,
      "hit": false,
      "t": 46546.875,
      "d": 46.875,
      "v": 100
    },
    {
      "midi": 49,
      "hit": false,
      "t": 46546.875,
      "d": 46.875,
      "v": 100
    },
    {
      "midi": 54,
      "hit": false,
      "t": 46593.75,
      "d": 93.75,
      "v": 100
    },
    {
      "midi": 50,
      "hit": false,
      "t": 46593.75,
      "d": 93.75,
      "v": 100
    },
    {
      "midi": 54,
      "hit": false,
      "t": 46593.75,
      "d": 93.75,
      "v": 100
    },
    {
      "midi": 50,
      "hit": false,
      "t": 46593.75,
      "d": 93.75,
      "v": 100
    },
    {
      "midi": 54,
      "hit": false,
      "t": 46875,
      "d": 93.75,
      "v": 100
    },
    {
      "midi": 50,
      "hit": false,
      "t": 46875,
      "d": 93.75,
      "v": 100
    },
    {
      "midi": 38,
      "hit": false,
      "t": 46875,
      "d": 0.78125,
      "v": 100
    },
    {
      "midi": 54,
      "hit": false,
      "t": 46875,
      "d": 93.75,
      "v": 100
    },
    {
      "midi": 50,
      "hit": false,
      "t": 46875,
      "d": 93.75,
      "v": 100
    },
    {
      "midi": 54,
      "hit": false,
      "t": 47062.5,
      "d": 937.5,
      "v": 100
    },
    {
      "midi": 50,
      "hit": false,
      "t": 47062.5,
      "d": 937.5,
      "v": 100
    },
    {
      "midi": 57,
      "hit": false,
      "t": 47062.5,
      "d": 0.78125,
      "v": 100
    },
    {
      "midi": 54,
      "hit": false,
      "t": 47062.5,
      "d": 937.5,
      "v": 100
    },
    {
      "midi": 50,
      "hit": false,
      "t": 47062.5,
      "d": 937.5,
      "v": 100
    },
    {
      "midi": 36,
      "hit": false,
      "t": 47250,
      "d": 0.78125,
      "v": 100
    },
    {
      "midi": 78,
      "hit": false,
      "t": 47437.5,
      "d": 187.5,
      "v": 100
    },
    {
      "midi": 36,
      "hit": false,
      "t": 47437.5,
      "d": 0.78125,
      "v": 100
    },
    {
      "midi": 78,
      "hit": false,
      "t": 47437.5,
      "d": 187.5,
      "v": 100
    },
    {
      "midi": 76,
      "hit": false,
      "t": 47625,
      "d": 187.5,
      "v": 100
    },
    {
      "midi": 40,
      "hit": false,
      "t": 47625,
      "d": 0.78125,
      "v": 100
    },
    {
      "midi": 76,
      "hit": false,
      "t": 47625,
      "d": 187.5,
      "v": 100
    },
    {
      "midi": 74,
      "hit": false,
      "t": 47812.5,
      "d": 187.5,
      "v": 100
    },
    {
      "midi": 74,
      "hit": false,
      "t": 47812.5,
      "d": 187.5,
      "v": 100
    },
    {
      "midi": 73,
      "hit": false,
      "t": 48000,
      "d": 140.625,
      "v": 100
    },
    {
      "midi": 74,
      "hit": false,
      "t": 48000,
      "d": 1500,
      "v": 100
    },
    {
      "midi": 43,
      "hit": false,
      "t": 48000,
      "d": 46.875,
      "v": 100
    },
    {
      "midi": 38,
      "hit": false,
      "t": 48000,
      "d": 1500,
      "v": 100
    },
    {
      "midi": 64,
      "hit": false,
      "t": 48000,
      "d": 750,
      "v": 100
    },
    {
      "midi": 36,
      "hit": false,
      "t": 48000,
      "d": 0.78125,
      "v": 100
    },
    {
      "midi": 73,
      "hit": false,
      "t": 48000,
      "d": 140.625,
      "v": 100
    },
    {
      "midi": 74,
      "hit": false,
      "t": 48000,
      "d": 1500,
      "v": 100
    },
    {
      "midi": 43,
      "hit": false,
      "t": 48000,
      "d": 46.875,
      "v": 100
    },
    {
      "midi": 47,
      "hit": false,
      "t": 48046.875,
      "d": 656.25,
      "v": 100
    },
    {
      "midi": 47,
      "hit": false,
      "t": 48046.875,
      "d": 656.25,
      "v": 100
    },
    {
      "midi": 50,
      "hit": false,
      "t": 48093.75,
      "d": 609.375,
      "v": 100
    },
    {
      "midi": 50,
      "hit": false,
      "t": 48093.75,
      "d": 609.375,
      "v": 100
    },
    {
      "midi": 73,
      "hit": false,
      "t": 48187.5,
      "d": 375,
      "v": 100
    },
    {
      "midi": 36,
      "hit": false,
      "t": 48187.5,
      "d": 0.78125,
      "v": 100
    },
    {
      "midi": 73,
      "hit": false,
      "t": 48187.5,
      "d": 375,
      "v": 100
    },
    {
      "midi": 40,
      "hit": false,
      "t": 48375,
      "d": 0.78125,
      "v": 100
    },
    {
      "midi": 69,
      "hit": false,
      "t": 48562.5,
      "d": 562.5,
      "v": 100
    },
    {
      "midi": 69,
      "hit": false,
      "t": 48562.5,
      "d": 562.5,
      "v": 100
    },
    {
      "midi": 43,
      "hit": false,
      "t": 48750,
      "d": 46.875,
      "v": 100
    },
    {
      "midi": 62,
      "hit": false,
      "t": 48750,
      "d": 375,
      "v": 100
    },
    {
      "midi": 36,
      "hit": false,
      "t": 48750,
      "d": 0.78125,
      "v": 100
    },
    {
      "midi": 43,
      "hit": false,
      "t": 48750,
      "d": 46.875,
      "v": 100
    },
    {
      "midi": 47,
      "hit": false,
      "t": 48796.875,
      "d": 656.25,
      "v": 100
    },
    {
      "midi": 47,
      "hit": false,
      "t": 48796.875,
      "d": 656.25,
      "v": 100
    },
    {
      "midi": 50,
      "hit": false,
      "t": 48843.75,
      "d": 609.375,
      "v": 100
    },
    {
      "midi": 50,
      "hit": false,
      "t": 48843.75,
      "d": 609.375,
      "v": 100
    },
    {
      "midi": 36,
      "hit": false,
      "t": 48937.5,
      "d": 0.78125,
      "v": 100
    },
    {
      "midi": 64,
      "hit": false,
      "t": 49125,
      "d": 375,
      "v": 100
    },
    {
      "midi": 40,
      "hit": false,
      "t": 49125,
      "d": 0.78125,
      "v": 100
    },
    {
      "midi": 55,
      "hit": false,
      "t": 49125,
      "d": 0.78125,
      "v": 100
    },
    {
      "midi": 69,
      "hit": false,
      "t": 49265.625,
      "d": 234.375,
      "v": 100
    },
    {
      "midi": 69,
      "hit": false,
      "t": 49265.625,
      "d": 140.625,
      "v": 100
    },
    {
      "midi": 69,
      "hit": false,
      "t": 49265.625,
      "d": 234.375,
      "v": 100
    },
    {
      "midi": 78,
      "hit": false,
      "t": 49500,
      "d": 375,
      "v": 100
    },
    {
      "midi": 78,
      "hit": false,
      "t": 49500,
      "d": 1500,
      "v": 100
    },
    {
      "midi": 50,
      "hit": false,
      "t": 49500,
      "d": 46.875,
      "v": 100
    },
    {
      "midi": 47,
      "hit": false,
      "t": 49500,
      "d": 46.875,
      "v": 100
    },
    {
      "midi": 42,
      "hit": false,
      "t": 49500,
      "d": 1500,
      "v": 100
    },
    {
      "midi": 78,
      "hit": false,
      "t": 49500,
      "d": 187.5,
      "v": 100
    },
    {
      "midi": 66,
      "hit": false,
      "t": 49500,
      "d": 750,
      "v": 100
    },
    {
      "midi": 36,
      "hit": false,
      "t": 49500,
      "d": 0.78125,
      "v": 100
    },
    {
      "midi": 55,
      "hit": false,
      "t": 49500,
      "d": 0.78125,
      "v": 100
    },
    {
      "midi": 78,
      "hit": false,
      "t": 49500,
      "d": 375,
      "v": 100
    },
    {
      "midi": 78,
      "hit": false,
      "t": 49500,
      "d": 1500,
      "v": 100
    },
    {
      "midi": 50,
      "hit": false,
      "t": 49500,
      "d": 46.875,
      "v": 100
    },
    {
      "midi": 47,
      "hit": false,
      "t": 49500,
      "d": 46.875,
      "v": 100
    },
    {
      "midi": 52,
      "hit": false,
      "t": 49546.875,
      "d": 46.875,
      "v": 100
    },
    {
      "midi": 49,
      "hit": false,
      "t": 49546.875,
      "d": 46.875,
      "v": 100
    },
    {
      "midi": 52,
      "hit": false,
      "t": 49546.875,
      "d": 46.875,
      "v": 100
    },
    {
      "midi": 49,
      "hit": false,
      "t": 49546.875,
      "d": 46.875,
      "v": 100
    },
    {
      "midi": 54,
      "hit": false,
      "t": 49593.75,
      "d": 93.75,
      "v": 100
    },
    {
      "midi": 50,
      "hit": false,
      "t": 49593.75,
      "d": 93.75,
      "v": 100
    },
    {
      "midi": 54,
      "hit": false,
      "t": 49593.75,
      "d": 93.75,
      "v": 100
    },
    {
      "midi": 50,
      "hit": false,
      "t": 49593.75,
      "d": 93.75,
      "v": 100
    },
    {
      "midi": 54,
      "hit": false,
      "t": 49875,
      "d": 93.75,
      "v": 100
    },
    {
      "midi": 50,
      "hit": false,
      "t": 49875,
      "d": 93.75,
      "v": 100
    },
    {
      "midi": 38,
      "hit": false,
      "t": 49875,
      "d": 0.78125,
      "v": 100
    },
    {
      "midi": 54,
      "hit": false,
      "t": 49875,
      "d": 93.75,
      "v": 100
    },
    {
      "midi": 50,
      "hit": false,
      "t": 49875,
      "d": 93.75,
      "v": 100
    },
    {
      "midi": 54,
      "hit": false,
      "t": 50062.5,
      "d": 937.5,
      "v": 100
    },
    {
      "midi": 50,
      "hit": false,
      "t": 50062.5,
      "d": 937.5,
      "v": 100
    },
    {
      "midi": 57,
      "hit": false,
      "t": 50062.5,
      "d": 0.78125,
      "v": 100
    },
    {
      "midi": 54,
      "hit": false,
      "t": 50062.5,
      "d": 937.5,
      "v": 100
    },
    {
      "midi": 50,
      "hit": false,
      "t": 50062.5,
      "d": 937.5,
      "v": 100
    },
    {
      "midi": 36,
      "hit": false,
      "t": 50250,
      "d": 0.78125,
      "v": 100
    },
    {
      "midi": 78,
      "hit": false,
      "t": 50437.5,
      "d": 187.5,
      "v": 100
    },
    {
      "midi": 36,
      "hit": false,
      "t": 50437.5,
      "d": 0.78125,
      "v": 100
    },
    {
      "midi": 78,
      "hit": false,
      "t": 50437.5,
      "d": 187.5,
      "v": 100
    },
    {
      "midi": 76,
      "hit": false,
      "t": 50625,
      "d": 187.5,
      "v": 100
    },
    {
      "midi": 40,
      "hit": false,
      "t": 50625,
      "d": 0.78125,
      "v": 100
    },
    {
      "midi": 76,
      "hit": false,
      "t": 50625,
      "d": 187.5,
      "v": 100
    },
    {
      "midi": 74,
      "hit": false,
      "t": 50812.5,
      "d": 187.5,
      "v": 100
    },
    {
      "midi": 74,
      "hit": false,
      "t": 50812.5,
      "d": 187.5,
      "v": 100
    },
    {
      "midi": 73,
      "hit": false,
      "t": 51000,
      "d": 140.625,
      "v": 100
    },
    {
      "midi": 74,
      "hit": false,
      "t": 51000,
      "d": 1500,
      "v": 100
    },
    {
      "midi": 43,
      "hit": false,
      "t": 51000,
      "d": 46.875,
      "v": 100
    },
    {
      "midi": 38,
      "hit": false,
      "t": 51000,
      "d": 1500,
      "v": 100
    },
    {
      "midi": 36,
      "hit": false,
      "t": 51000,
      "d": 0.78125,
      "v": 100
    },
    {
      "midi": 73,
      "hit": false,
      "t": 51000,
      "d": 140.625,
      "v": 100
    },
    {
      "midi": 74,
      "hit": false,
      "t": 51000,
      "d": 1500,
      "v": 100
    },
    {
      "midi": 43,
      "hit": false,
      "t": 51000,
      "d": 46.875,
      "v": 100
    },
    {
      "midi": 47,
      "hit": false,
      "t": 51046.875,
      "d": 656.25,
      "v": 100
    },
    {
      "midi": 47,
      "hit": false,
      "t": 51046.875,
      "d": 656.25,
      "v": 100
    },
    {
      "midi": 50,
      "hit": false,
      "t": 51093.75,
      "d": 609.375,
      "v": 100
    },
    {
      "midi": 50,
      "hit": false,
      "t": 51093.75,
      "d": 609.375,
      "v": 100
    },
    {
      "midi": 73,
      "hit": false,
      "t": 51187.5,
      "d": 375,
      "v": 100
    },
    {
      "midi": 36,
      "hit": false,
      "t": 51187.5,
      "d": 0.78125,
      "v": 100
    },
    {
      "midi": 73,
      "hit": false,
      "t": 51187.5,
      "d": 375,
      "v": 100
    },
    {
      "midi": 40,
      "hit": false,
      "t": 51375,
      "d": 0.78125,
      "v": 100
    },
    {
      "midi": 71,
      "hit": false,
      "t": 51562.5,
      "d": 375,
      "v": 100
    },
    {
      "midi": 71,
      "hit": false,
      "t": 51562.5,
      "d": 375,
      "v": 100
    },
    {
      "midi": 43,
      "hit": false,
      "t": 51750,
      "d": 46.875,
      "v": 100
    },
    {
      "midi": 66,
      "hit": false,
      "t": 51750,
      "d": 750,
      "v": 100
    },
    {
      "midi": 36,
      "hit": false,
      "t": 51750,
      "d": 0.78125,
      "v": 100
    },
    {
      "midi": 48,
      "hit": false,
      "t": 51750,
      "d": 0.78125,
      "v": 100
    },
    {
      "midi": 43,
      "hit": false,
      "t": 51750,
      "d": 46.875,
      "v": 100
    },
    {
      "midi": 47,
      "hit": false,
      "t": 51796.875,
      "d": 656.25,
      "v": 100
    },
    {
      "midi": 47,
      "hit": false,
      "t": 51796.875,
      "d": 656.25,
      "v": 100
    },
    {
      "midi": 50,
      "hit": false,
      "t": 51843.75,
      "d": 609.375,
      "v": 100
    },
    {
      "midi": 47,
      "hit": false,
      "t": 51843.75,
      "d": 0.78125,
      "v": 100
    },
    {
      "midi": 50,
      "hit": false,
      "t": 51843.75,
      "d": 609.375,
      "v": 100
    },
    {
      "midi": 81,
      "hit": false,
      "t": 51937.5,
      "d": 562.5,
      "v": 100
    },
    {
      "midi": 36,
      "hit": false,
      "t": 51937.5,
      "d": 0.78125,
      "v": 100
    },
    {
      "midi": 45,
      "hit": false,
      "t": 51937.5,
      "d": 0.78125,
      "v": 100
    },
    {
      "midi": 81,
      "hit": false,
      "t": 51937.5,
      "d": 562.5,
      "v": 100
    },
    {
      "midi": 43,
      "hit": false,
      "t": 52031.25,
      "d": 0.78125,
      "v": 100
    },
    {
      "midi": 40,
      "hit": false,
      "t": 52125,
      "d": 0.78125,
      "v": 100
    },
    {
      "midi": 55,
      "hit": false,
      "t": 52125,
      "d": 0.78125,
      "v": 100
    },
    {
      "midi": 74,
      "hit": false,
      "t": 52500,
      "d": 562.5,
      "v": 100
    },
    {
      "midi": 73,
      "hit": false,
      "t": 52500,
      "d": 1500,
      "v": 100
    },
    {
      "midi": 42,
      "hit": false,
      "t": 52500,
      "d": 62.5,
      "v": 100
    },
    {
      "midi": 37,
      "hit": false,
      "t": 52500,
      "d": 1500,
      "v": 100
    },
    {
      "midi": 62,
      "hit": false,
      "t": 52500,
      "d": 750,
      "v": 100
    },
    {
      "midi": 55,
      "hit": false,
      "t": 52500,
      "d": 0.78125,
      "v": 100
    },
    {
      "midi": 40,
      "hit": false,
      "t": 52500,
      "d": 0.78125,
      "v": 100
    },
    {
      "midi": 74,
      "hit": false,
      "t": 52500,
      "d": 562.5,
      "v": 100
    },
    {
      "midi": 73,
      "hit": false,
      "t": 52500,
      "d": 1500,
      "v": 100
    },
    {
      "midi": 42,
      "hit": false,
      "t": 52500,
      "d": 62.5,
      "v": 100
    },
    {
      "midi": 45,
      "hit": false,
      "t": 52546.875,
      "d": 140.625,
      "v": 100
    },
    {
      "midi": 45,
      "hit": false,
      "t": 52546.875,
      "d": 140.625,
      "v": 100
    },
    {
      "midi": 49,
      "hit": false,
      "t": 52593.75,
      "d": 93.75,
      "v": 100
    },
    {
      "midi": 49,
      "hit": false,
      "t": 52593.75,
      "d": 93.75,
      "v": 100
    },
    {
      "midi": 36,
      "hit": false,
      "t": 52687.5,
      "d": 0.78125,
      "v": 100
    },
    {
      "midi": 51,
      "hit": false,
      "t": 52687.5,
      "d": 0.78125,
      "v": 100
    },
    {
      "midi": 40,
      "hit": false,
      "t": 52875,
      "d": 0.78125,
      "v": 100
    },
    {
      "midi": 42,
      "hit": false,
      "t": 53062.5,
      "d": 62.5,
      "v": 100
    },
    {
      "midi": 36,
      "hit": false,
      "t": 53062.5,
      "d": 0.78125,
      "v": 100
    },
    {
      "midi": 51,
      "hit": false,
      "t": 53062.5,
      "d": 0.78125,
      "v": 100
    },
    {
      "midi": 42,
      "hit": false,
      "t": 53062.5,
      "d": 62.5,
      "v": 100
    },
    {
      "midi": 45,
      "hit": false,
      "t": 53109.375,
      "d": 140.625,
      "v": 100
    },
    {
      "midi": 45,
      "hit": false,
      "t": 53109.375,
      "d": 140.625,
      "v": 100
    },
    {
      "midi": 49,
      "hit": false,
      "t": 53156.25,
      "d": 93.75,
      "v": 100
    },
    {
      "midi": 49,
      "hit": false,
      "t": 53156.25,
      "d": 93.75,
      "v": 100
    },
    {
      "midi": 40,
      "hit": false,
      "t": 53250,
      "d": 0.78125,
      "v": 100
    },
    {
      "midi": 73,
      "hit": false,
      "t": 53437.5,
      "d": 187.5,
      "v": 100
    },
    {
      "midi": 36,
      "hit": false,
      "t": 53437.5,
      "d": 0.78125,
      "v": 100
    },
    {
      "midi": 51,
      "hit": false,
      "t": 53437.5,
      "d": 0.78125,
      "v": 100
    },
    {
      "midi": 73,
      "hit": false,
      "t": 53437.5,
      "d": 187.5,
      "v": 100
    },
    {
      "midi": 74,
      "hit": false,
      "t": 53625,
      "d": 187.5,
      "v": 100
    },
    {
      "midi": 42,
      "hit": false,
      "t": 53625,
      "d": 54.6875,
      "v": 100
    },
    {
      "midi": 40,
      "hit": false,
      "t": 53625,
      "d": 0.78125,
      "v": 100
    },
    {
      "midi": 74,
      "hit": false,
      "t": 53625,
      "d": 187.5,
      "v": 100
    },
    {
      "midi": 42,
      "hit": false,
      "t": 53625,
      "d": 54.6875,
      "v": 100
    },
    {
      "midi": 45,
      "hit": false,
      "t": 53671.875,
      "d": 140.625,
      "v": 100
    },
    {
      "midi": 45,
      "hit": false,
      "t": 53671.875,
      "d": 140.625,
      "v": 100
    },
    {
      "midi": 49,
      "hit": false,
      "t": 53718.75,
      "d": 93.75,
      "v": 100
    },
    {
      "midi": 49,
      "hit": false,
      "t": 53718.75,
      "d": 93.75,
      "v": 100
    },
    {
      "midi": 76,
      "hit": false,
      "t": 53812.5,
      "d": 187.5,
      "v": 100
    },
    {
      "midi": 36,
      "hit": false,
      "t": 53812.5,
      "d": 0.78125,
      "v": 100
    },
    {
      "midi": 51,
      "hit": false,
      "t": 53812.5,
      "d": 0.78125,
      "v": 100
    },
    {
      "midi": 76,
      "hit": false,
      "t": 53812.5,
      "d": 187.5,
      "v": 100
    },
    {
      "midi": 78,
      "hit": false,
      "t": 54000,
      "d": 375,
      "v": 100
    },
    {
      "midi": 74,
      "hit": false,
      "t": 54000,
      "d": 1500,
      "v": 100
    },
    {
      "midi": 43,
      "hit": false,
      "t": 54000,
      "d": 62.5,
      "v": 100
    },
    {
      "midi": 38,
      "hit": false,
      "t": 54000,
      "d": 1500,
      "v": 100
    },
    {
      "midi": 40,
      "hit": false,
      "t": 54000,
      "d": 0.78125,
      "v": 100
    },
    {
      "midi": 78,
      "hit": false,
      "t": 54000,
      "d": 375,
      "v": 100
    },
    {
      "midi": 74,
      "hit": false,
      "t": 54000,
      "d": 1500,
      "v": 100
    },
    {
      "midi": 43,
      "hit": false,
      "t": 54000,
      "d": 62.5,
      "v": 100
    },
    {
      "midi": 47,
      "hit": false,
      "t": 54046.875,
      "d": 140.625,
      "v": 100
    },
    {
      "midi": 47,
      "hit": false,
      "t": 54046.875,
      "d": 140.625,
      "v": 100
    },
    {
      "midi": 50,
      "hit": false,
      "t": 54093.75,
      "d": 93.75,
      "v": 100
    },
    {
      "midi": 50,
      "hit": false,
      "t": 54093.75,
      "d": 93.75,
      "v": 100
    },
    {
      "midi": 36,
      "hit": false,
      "t": 54187.5,
      "d": 0.78125,
      "v": 100
    },
    {
      "midi": 51,
      "hit": false,
      "t": 54187.5,
      "d": 0.78125,
      "v": 100
    },
    {
      "midi": 76,
      "hit": false,
      "t": 54375,
      "d": 375,
      "v": 100
    },
    {
      "midi": 40,
      "hit": false,
      "t": 54375,
      "d": 0.78125,
      "v": 100
    },
    {
      "midi": 76,
      "hit": false,
      "t": 54375,
      "d": 375,
      "v": 100
    },
    {
      "midi": 43,
      "hit": false,
      "t": 54562.5,
      "d": 62.5,
      "v": 100
    },
    {
      "midi": 36,
      "hit": false,
      "t": 54562.5,
      "d": 0.78125,
      "v": 100
    },
    {
      "midi": 51,
      "hit": false,
      "t": 54562.5,
      "d": 0.78125,
      "v": 100
    },
    {
      "midi": 43,
      "hit": false,
      "t": 54562.5,
      "d": 62.5,
      "v": 100
    },
    {
      "midi": 47,
      "hit": false,
      "t": 54609.375,
      "d": 140.625,
      "v": 100
    },
    {
      "midi": 47,
      "hit": false,
      "t": 54609.375,
      "d": 140.625,
      "v": 100
    },
    {
      "midi": 50,
      "hit": false,
      "t": 54656.25,
      "d": 93.75,
      "v": 100
    },
    {
      "midi": 50,
      "hit": false,
      "t": 54656.25,
      "d": 93.75,
      "v": 100
    },
    {
      "midi": 74,
      "hit": false,
      "t": 54750,
      "d": 187.5,
      "v": 100
    },
    {
      "midi": 40,
      "hit": false,
      "t": 54750,
      "d": 0.78125,
      "v": 100
    },
    {
      "midi": 74,
      "hit": false,
      "t": 54750,
      "d": 187.5,
      "v": 100
    },
    {
      "midi": 76,
      "hit": false,
      "t": 54937.5,
      "d": 375,
      "v": 100
    },
    {
      "midi": 36,
      "hit": false,
      "t": 54937.5,
      "d": 0.78125,
      "v": 100
    },
    {
      "midi": 51,
      "hit": false,
      "t": 54937.5,
      "d": 0.78125,
      "v": 100
    },
    {
      "midi": 76,
      "hit": false,
      "t": 54937.5,
      "d": 375,
      "v": 100
    },
    {
      "midi": 43,
      "hit": false,
      "t": 55125,
      "d": 54.6875,
      "v": 100
    },
    {
      "midi": 40,
      "hit": false,
      "t": 55125,
      "d": 0.78125,
      "v": 100
    },
    {
      "midi": 43,
      "hit": false,
      "t": 55125,
      "d": 54.6875,
      "v": 100
    },
    {
      "midi": 47,
      "hit": false,
      "t": 55171.875,
      "d": 140.625,
      "v": 100
    },
    {
      "midi": 47,
      "hit": false,
      "t": 55171.875,
      "d": 140.625,
      "v": 100
    },
    {
      "midi": 50,
      "hit": false,
      "t": 55218.75,
      "d": 93.75,
      "v": 100
    },
    {
      "midi": 50,
      "hit": false,
      "t": 55218.75,
      "d": 93.75,
      "v": 100
    },
    {
      "midi": 69,
      "hit": false,
      "t": 55312.5,
      "d": 187.5,
      "v": 100
    },
    {
      "midi": 69,
      "hit": false,
      "t": 55312.5,
      "d": 187.5,
      "v": 100
    },
    {
      "midi": 36,
      "hit": false,
      "t": 55312.5,
      "d": 0.78125,
      "v": 100
    },
    {
      "midi": 51,
      "hit": false,
      "t": 55312.5,
      "d": 0.78125,
      "v": 100
    },
    {
      "midi": 69,
      "hit": false,
      "t": 55312.5,
      "d": 187.5,
      "v": 100
    },
    {
      "midi": 73,
      "hit": false,
      "t": 55500,
      "d": 375,
      "v": 100
    },
    {
      "midi": 76,
      "hit": false,
      "t": 55500,
      "d": 1500,
      "v": 100
    },
    {
      "midi": 45,
      "hit": false,
      "t": 55500,
      "d": 62.5,
      "v": 100
    },
    {
      "midi": 40,
      "hit": false,
      "t": 55500,
      "d": 1500,
      "v": 100
    },
    {
      "midi": 69,
      "hit": false,
      "t": 55500,
      "d": 375,
      "v": 100
    },
    {
      "midi": 40,
      "hit": false,
      "t": 55500,
      "d": 0.78125,
      "v": 100
    },
    {
      "midi": 73,
      "hit": false,
      "t": 55500,
      "d": 375,
      "v": 100
    },
    {
      "midi": 76,
      "hit": false,
      "t": 55500,
      "d": 1500,
      "v": 100
    },
    {
      "midi": 45,
      "hit": false,
      "t": 55500,
      "d": 62.5,
      "v": 100
    },
    {
      "midi": 49,
      "hit": false,
      "t": 55546.875,
      "d": 140.625,
      "v": 100
    },
    {
      "midi": 49,
      "hit": false,
      "t": 55546.875,
      "d": 140.625,
      "v": 100
    },
    {
      "midi": 52,
      "hit": false,
      "t": 55593.75,
      "d": 93.75,
      "v": 100
    },
    {
      "midi": 52,
      "hit": false,
      "t": 55593.75,
      "d": 93.75,
      "v": 100
    },
    {
      "midi": 36,
      "hit": false,
      "t": 55687.5,
      "d": 0.78125,
      "v": 100
    },
    {
      "midi": 51,
      "hit": false,
      "t": 55687.5,
      "d": 0.78125,
      "v": 100
    },
    {
      "midi": 74,
      "hit": false,
      "t": 55875,
      "d": 187.5,
      "v": 100
    },
    {
      "midi": 69,
      "hit": false,
      "t": 55875,
      "d": 187.5,
      "v": 100
    },
    {
      "midi": 40,
      "hit": false,
      "t": 55875,
      "d": 0.78125,
      "v": 100
    },
    {
      "midi": 74,
      "hit": false,
      "t": 55875,
      "d": 187.5,
      "v": 100
    },
    {
      "midi": 76,
      "hit": false,
      "t": 56062.5,
      "d": 375,
      "v": 100
    },
    {
      "midi": 45,
      "hit": false,
      "t": 56062.5,
      "d": 62.5,
      "v": 100
    },
    {
      "midi": 69,
      "hit": false,
      "t": 56062.5,
      "d": 375,
      "v": 100
    },
    {
      "midi": 36,
      "hit": false,
      "t": 56062.5,
      "d": 0.78125,
      "v": 100
    },
    {
      "midi": 51,
      "hit": false,
      "t": 56062.5,
      "d": 0.78125,
      "v": 100
    },
    {
      "midi": 76,
      "hit": false,
      "t": 56062.5,
      "d": 375,
      "v": 100
    },
    {
      "midi": 45,
      "hit": false,
      "t": 56062.5,
      "d": 62.5,
      "v": 100
    },
    {
      "midi": 49,
      "hit": false,
      "t": 56109.375,
      "d": 140.625,
      "v": 100
    },
    {
      "midi": 49,
      "hit": false,
      "t": 56109.375,
      "d": 140.625,
      "v": 100
    },
    {
      "midi": 52,
      "hit": false,
      "t": 56156.25,
      "d": 93.75,
      "v": 100
    },
    {
      "midi": 52,
      "hit": false,
      "t": 56156.25,
      "d": 93.75,
      "v": 100
    },
    {
      "midi": 40,
      "hit": false,
      "t": 56250,
      "d": 0.78125,
      "v": 100
    },
    {
      "midi": 78,
      "hit": false,
      "t": 56437.5,
      "d": 375,
      "v": 100
    },
    {
      "midi": 69,
      "hit": false,
      "t": 56437.5,
      "d": 375,
      "v": 100
    },
    {
      "midi": 36,
      "hit": false,
      "t": 56437.5,
      "d": 0.78125,
      "v": 100
    },
    {
      "midi": 51,
      "hit": false,
      "t": 56437.5,
      "d": 0.78125,
      "v": 100
    },
    {
      "midi": 78,
      "hit": false,
      "t": 56437.5,
      "d": 375,
      "v": 100
    },
    {
      "midi": 45,
      "hit": false,
      "t": 56625,
      "d": 54.6875,
      "v": 100
    },
    {
      "midi": 40,
      "hit": false,
      "t": 56625,
      "d": 0.78125,
      "v": 100
    },
    {
      "midi": 45,
      "hit": false,
      "t": 56625,
      "d": 54.6875,
      "v": 100
    },
    {
      "midi": 49,
      "hit": false,
      "t": 56671.875,
      "d": 140.625,
      "v": 100
    },
    {
      "midi": 49,
      "hit": false,
      "t": 56671.875,
      "d": 140.625,
      "v": 100
    },
    {
      "midi": 52,
      "hit": false,
      "t": 56718.75,
      "d": 93.75,
      "v": 100
    },
    {
      "midi": 52,
      "hit": false,
      "t": 56718.75,
      "d": 93.75,
      "v": 100
    },
    {
      "midi": 81,
      "hit": false,
      "t": 56812.5,
      "d": 140.625,
      "v": 100
    },
    {
      "midi": 81,
      "hit": false,
      "t": 56812.5,
      "d": 140.625,
      "v": 100
    },
    {
      "midi": 36,
      "hit": false,
      "t": 56812.5,
      "d": 0.78125,
      "v": 100
    },
    {
      "midi": 51,
      "hit": false,
      "t": 56812.5,
      "d": 0.78125,
      "v": 100
    },
    {
      "midi": 81,
      "hit": false,
      "t": 56812.5,
      "d": 140.625,
      "v": 100
    },
    {
      "midi": 81,
      "hit": false,
      "t": 57000,
      "d": 1312.5,
      "v": 100
    },
    {
      "midi": 78,
      "hit": false,
      "t": 57000,
      "d": 1500,
      "v": 100
    },
    {
      "midi": 47,
      "hit": false,
      "t": 57000,
      "d": 62.5,
      "v": 100
    },
    {
      "midi": 42,
      "hit": false,
      "t": 57000,
      "d": 328.125,
      "v": 100
    },
    {
      "midi": 81,
      "hit": false,
      "t": 57000,
      "d": 1312.5,
      "v": 100
    },
    {
      "midi": 40,
      "hit": false,
      "t": 57000,
      "d": 0.78125,
      "v": 100
    },
    {
      "midi": 81,
      "hit": false,
      "t": 57000,
      "d": 1312.5,
      "v": 100
    },
    {
      "midi": 78,
      "hit": false,
      "t": 57000,
      "d": 1500,
      "v": 100
    },
    {
      "midi": 47,
      "hit": false,
      "t": 57000,
      "d": 62.5,
      "v": 100
    },
    {
      "midi": 50,
      "hit": false,
      "t": 57046.875,
      "d": 140.625,
      "v": 100
    },
    {
      "midi": 50,
      "hit": false,
      "t": 57046.875,
      "d": 140.625,
      "v": 100
    },
    {
      "midi": 54,
      "hit": false,
      "t": 57093.75,
      "d": 93.75,
      "v": 100
    },
    {
      "midi": 54,
      "hit": false,
      "t": 57093.75,
      "d": 93.75,
      "v": 100
    },
    {
      "midi": 76,
      "hit": false,
      "t": 57187.5,
      "d": 187.5,
      "v": 100
    },
    {
      "midi": 36,
      "hit": false,
      "t": 57187.5,
      "d": 0.78125,
      "v": 100
    },
    {
      "midi": 51,
      "hit": false,
      "t": 57187.5,
      "d": 0.78125,
      "v": 100
    },
    {
      "midi": 88,
      "hit": false,
      "t": 57187.5,
      "d": 187.5,
      "v": 100
    },
    {
      "midi": 47,
      "hit": false,
      "t": 57375,
      "d": 62.5,
      "v": 100
    },
    {
      "midi": 42,
      "hit": false,
      "t": 57375,
      "d": 328.125,
      "v": 100
    },
    {
      "midi": 74,
      "hit": false,
      "t": 57375,
      "d": 187.5,
      "v": 100
    },
    {
      "midi": 40,
      "hit": false,
      "t": 57375,
      "d": 0.78125,
      "v": 100
    },
    {
      "midi": 86,
      "hit": false,
      "t": 57375,
      "d": 187.5,
      "v": 100
    },
    {
      "midi": 47,
      "hit": false,
      "t": 57375,
      "d": 62.5,
      "v": 100
    },
    {
      "midi": 50,
      "hit": false,
      "t": 57421.875,
      "d": 281.25,
      "v": 100
    },
    {
      "midi": 50,
      "hit": false,
      "t": 57421.875,
      "d": 281.25,
      "v": 100
    },
    {
      "midi": 54,
      "hit": false,
      "t": 57468.75,
      "d": 234.375,
      "v": 100
    },
    {
      "midi": 54,
      "hit": false,
      "t": 57468.75,
      "d": 234.375,
      "v": 100
    },
    {
      "midi": 73,
      "hit": false,
      "t": 57562.5,
      "d": 187.5,
      "v": 100
    },
    {
      "midi": 36,
      "hit": false,
      "t": 57562.5,
      "d": 0.78125,
      "v": 100
    },
    {
      "midi": 51,
      "hit": false,
      "t": 57562.5,
      "d": 0.78125,
      "v": 100
    },
    {
      "midi": 85,
      "hit": false,
      "t": 57562.5,
      "d": 187.5,
      "v": 100
    },
    {
      "midi": 47,
      "hit": false,
      "t": 57750,
      "d": 62.5,
      "v": 100
    },
    {
      "midi": 42,
      "hit": false,
      "t": 57750,
      "d": 328.125,
      "v": 100
    },
    {
      "midi": 76,
      "hit": false,
      "t": 57750,
      "d": 187.5,
      "v": 100
    },
    {
      "midi": 45,
      "hit": false,
      "t": 57750,
      "d": 0.78125,
      "v": 100
    },
    {
      "midi": 88,
      "hit": false,
      "t": 57750,
      "d": 187.5,
      "v": 100
    },
    {
      "midi": 47,
      "hit": false,
      "t": 57750,
      "d": 62.5,
      "v": 100
    },
    {
      "midi": 50,
      "hit": false,
      "t": 57796.875,
      "d": 140.625,
      "v": 100
    },
    {
      "midi": 50,
      "hit": false,
      "t": 57796.875,
      "d": 140.625,
      "v": 100
    },
    {
      "midi": 54,
      "hit": false,
      "t": 57843.75,
      "d": 93.75,
      "v": 100
    },
    {
      "midi": 54,
      "hit": false,
      "t": 57843.75,
      "d": 93.75,
      "v": 100
    },
    {
      "midi": 47,
      "hit": false,
      "t": 57937.5,
      "d": 62.5,
      "v": 100
    },
    {
      "midi": 74,
      "hit": false,
      "t": 57937.5,
      "d": 187.5,
      "v": 100
    },
    {
      "midi": 43,
      "hit": false,
      "t": 57937.5,
      "d": 0.78125,
      "v": 100
    },
    {
      "midi": 86,
      "hit": false,
      "t": 57937.5,
      "d": 187.5,
      "v": 100
    },
    {
      "midi": 47,
      "hit": false,
      "t": 57937.5,
      "d": 62.5,
      "v": 100
    },
    {
      "midi": 50,
      "hit": false,
      "t": 57984.375,
      "d": 468.75,
      "v": 100
    },
    {
      "midi": 50,
      "hit": false,
      "t": 57984.375,
      "d": 468.75,
      "v": 100
    },
    {
      "midi": 54,
      "hit": false,
      "t": 58031.25,
      "d": 421.875,
      "v": 100
    },
    {
      "midi": 54,
      "hit": false,
      "t": 58031.25,
      "d": 421.875,
      "v": 100
    },
    {
      "midi": 42,
      "hit": false,
      "t": 58125,
      "d": 328.125,
      "v": 100
    },
    {
      "midi": 73,
      "hit": false,
      "t": 58125,
      "d": 187.5,
      "v": 100
    },
    {
      "midi": 41,
      "hit": false,
      "t": 58125,
      "d": 0.78125,
      "v": 100
    },
    {
      "midi": 85,
      "hit": false,
      "t": 58125,
      "d": 187.5,
      "v": 100
    },
    {
      "midi": 74,
      "hit": false,
      "t": 58218.75,
      "d": 1125,
      "v": 100
    },
    {
      "midi": 71,
      "hit": false,
      "t": 58312.5,
      "d": 187.5,
      "v": 100
    },
    {
      "midi": 51,
      "hit": false,
      "t": 58312.5,
      "d": 0.78125,
      "v": 100
    },
    {
      "midi": 83,
      "hit": false,
      "t": 58312.5,
      "d": 187.5,
      "v": 100
    },
    {
      "midi": 47,
      "hit": false,
      "t": 58500,
      "d": 62.5,
      "v": 100
    },
    {
      "midi": 42,
      "hit": false,
      "t": 58500,
      "d": 328.125,
      "v": 100
    },
    {
      "midi": 40,
      "hit": false,
      "t": 58500,
      "d": 0.78125,
      "v": 100
    },
    {
      "midi": 38,
      "hit": false,
      "t": 58500,
      "d": 0.78125,
      "v": 100
    },
    {
      "midi": 36,
      "hit": false,
      "t": 58500,
      "d": 0.78125,
      "v": 100
    },
    {
      "midi": 47,
      "hit": false,
      "t": 58500,
      "d": 62.5,
      "v": 100
    },
    {
      "midi": 50,
      "hit": false,
      "t": 58546.875,
      "d": 140.625,
      "v": 100
    },
    {
      "midi": 50,
      "hit": false,
      "t": 58546.875,
      "d": 140.625,
      "v": 100
    },
    {
      "midi": 54,
      "hit": false,
      "t": 58593.75,
      "d": 93.75,
      "v": 100
    },
    {
      "midi": 54,
      "hit": false,
      "t": 58593.75,
      "d": 93.75,
      "v": 100
    },
    {
      "midi": 47,
      "hit": false,
      "t": 58875,
      "d": 62.5,
      "v": 100
    },
    {
      "midi": 42,
      "hit": false,
      "t": 58875,
      "d": 375,
      "v": 100
    },
    {
      "midi": 40,
      "hit": false,
      "t": 58875,
      "d": 0.78125,
      "v": 100
    },
    {
      "midi": 38,
      "hit": false,
      "t": 58875,
      "d": 0.78125,
      "v": 100
    },
    {
      "midi": 36,
      "hit": false,
      "t": 58875,
      "d": 0.78125,
      "v": 100
    },
    {
      "midi": 47,
      "hit": false,
      "t": 58875,
      "d": 62.5,
      "v": 100
    },
    {
      "midi": 50,
      "hit": false,
      "t": 58921.875,
      "d": 140.625,
      "v": 100
    },
    {
      "midi": 50,
      "hit": false,
      "t": 58921.875,
      "d": 140.625,
      "v": 100
    },
    {
      "midi": 54,
      "hit": false,
      "t": 58968.75,
      "d": 93.75,
      "v": 100
    },
    {
      "midi": 54,
      "hit": false,
      "t": 58968.75,
      "d": 93.75,
      "v": 100
    },
    {
      "midi": 69,
      "hit": false,
      "t": 59062.5,
      "d": 93.75,
      "v": 100
    },
    {
      "midi": 69,
      "hit": false,
      "t": 59062.5,
      "d": 93.75,
      "v": 100
    },
    {
      "midi": 69,
      "hit": false,
      "t": 59062.5,
      "d": 93.75,
      "v": 100
    },
    {
      "midi": 71,
      "hit": false,
      "t": 59156.25,
      "d": 93.75,
      "v": 100
    },
    {
      "midi": 69,
      "hit": false,
      "t": 59156.25,
      "d": 93.75,
      "v": 100
    },
    {
      "midi": 71,
      "hit": false,
      "t": 59156.25,
      "d": 93.75,
      "v": 100
    },
    {
      "midi": 74,
      "hit": false,
      "t": 59250,
      "d": 281.25,
      "v": 100
    },
    {
      "midi": 69,
      "hit": false,
      "t": 59250,
      "d": 281.25,
      "v": 100
    },
    {
      "midi": 74,
      "hit": false,
      "t": 59250,
      "d": 281.25,
      "v": 100
    },
    {
      "midi": 40,
      "hit": false,
      "t": 59437.5,
      "d": 46.875,
      "v": 100
    },
    {
      "midi": 38,
      "hit": false,
      "t": 59484.375,
      "d": 46.875,
      "v": 100
    },
    {
      "midi": 73,
      "hit": false,
      "t": 59531.25,
      "d": 281.25,
      "v": 100
    },
    {
      "midi": 37,
      "hit": false,
      "t": 59531.25,
      "d": 46.875,
      "v": 100
    },
    {
      "midi": 69,
      "hit": false,
      "t": 59531.25,
      "d": 281.25,
      "v": 100
    },
    {
      "midi": 73,
      "hit": false,
      "t": 59531.25,
      "d": 281.25,
      "v": 100
    },
    {
      "midi": 35,
      "hit": false,
      "t": 59578.125,
      "d": 46.875,
      "v": 100
    },
    {
      "midi": 36,
      "hit": false,
      "t": 59625,
      "d": 46.875,
      "v": 100
    },
    {
      "midi": 39,
      "hit": false,
      "t": 59625,
      "d": 0.78125,
      "v": 127
    },
    {
      "midi": 37,
      "hit": false,
      "t": 59671.875,
      "d": 46.875,
      "v": 100
    },
    {
      "midi": 38,
      "hit": false,
      "t": 59718.75,
      "d": 46.875,
      "v": 100
    },
    {
      "midi": 40,
      "hit": false,
      "t": 59765.625,
      "d": 46.875,
      "v": 100
    },
    {
      "midi": 74,
      "hit": false,
      "t": 59812.5,
      "d": 562.5,
      "v": 100
    },
    {
      "midi": 42,
      "hit": false,
      "t": 59812.5,
      "d": 46.875,
      "v": 100
    },
    {
      "midi": 71,
      "hit": false,
      "t": 59812.5,
      "d": 562.5,
      "v": 100
    },
    {
      "midi": 74,
      "hit": false,
      "t": 59812.5,
      "d": 562.5,
      "v": 100
    },
    {
      "midi": 43,
      "hit": false,
      "t": 59859.375,
      "d": 46.875,
      "v": 100
    },
    {
      "midi": 45,
      "hit": false,
      "t": 59906.25,
      "d": 46.875,
      "v": 100
    },
    {
      "midi": 47,
      "hit": false,
      "t": 59953.125,
      "d": 46.875,
      "v": 100
    },
    {
      "midi": 76,
      "hit": false,
      "t": 60000,
      "d": 5062.5,
      "v": 100
    },
    {
      "midi": 64,
      "hit": false,
      "t": 60000,
      "d": 93.75,
      "v": 100
    },
    {
      "midi": 52,
      "hit": false,
      "t": 60000,
      "d": 93.75,
      "v": 100
    },
    {
      "midi": 49,
      "hit": false,
      "t": 60000,
      "d": 93.75,
      "v": 100
    },
    {
      "midi": 40,
      "hit": false,
      "t": 60000,
      "d": 140.625,
      "v": 100
    },
    {
      "midi": 36,
      "hit": false,
      "t": 60000,
      "d": 0.78125,
      "v": 100
    },
    {
      "midi": 55,
      "hit": false,
      "t": 60000,
      "d": 0.78125,
      "v": 100
    },
    {
      "midi": 88,
      "hit": false,
      "t": 60000,
      "d": 187.5,
      "v": 100
    },
    {
      "midi": 76,
      "hit": false,
      "t": 60000,
      "d": 5062.5,
      "v": 100
    },
    {
      "midi": 64,
      "hit": false,
      "t": 60000,
      "d": 93.75,
      "v": 100
    },
    {
      "midi": 52,
      "hit": false,
      "t": 60000,
      "d": 93.75,
      "v": 100
    },
    {
      "midi": 49,
      "hit": false,
      "t": 60000,
      "d": 93.75,
      "v": 100
    },
    {
      "midi": 64,
      "hit": false,
      "t": 60093.75,
      "d": 187.5,
      "v": 100
    },
    {
      "midi": 64,
      "hit": false,
      "t": 60093.75,
      "d": 187.5,
      "v": 100
    },
    {
      "midi": 40,
      "hit": false,
      "t": 60187.5,
      "d": 140.625,
      "v": 100
    },
    {
      "midi": 36,
      "hit": false,
      "t": 60187.5,
      "d": 0.78125,
      "v": 100
    },
    {
      "midi": 64,
      "hit": false,
      "t": 60281.25,
      "d": 93.75,
      "v": 100
    },
    {
      "midi": 64,
      "hit": false,
      "t": 60281.25,
      "d": 93.75,
      "v": 100
    },
    {
      "midi": 64,
      "hit": false,
      "t": 60375,
      "d": 93.75,
      "v": 100
    },
    {
      "midi": 38,
      "hit": false,
      "t": 60375,
      "d": 140.625,
      "v": 100
    },
    {
      "midi": 40,
      "hit": false,
      "t": 60375,
      "d": 0.78125,
      "v": 100
    },
    {
      "midi": 64,
      "hit": false,
      "t": 60375,
      "d": 93.75,
      "v": 100
    },
    {
      "midi": 64,
      "hit": false,
      "t": 60468.75,
      "d": 187.5,
      "v": 100
    },
    {
      "midi": 64,
      "hit": false,
      "t": 60468.75,
      "d": 187.5,
      "v": 100
    },
    {
      "midi": 69,
      "hit": false,
      "t": 60562.5,
      "d": 93.75,
      "v": 100
    },
    {
      "midi": 52,
      "hit": false,
      "t": 60562.5,
      "d": 93.75,
      "v": 100
    },
    {
      "midi": 49,
      "hit": false,
      "t": 60562.5,
      "d": 93.75,
      "v": 100
    },
    {
      "midi": 40,
      "hit": false,
      "t": 60562.5,
      "d": 140.625,
      "v": 100
    },
    {
      "midi": 69,
      "hit": false,
      "t": 60562.5,
      "d": 93.75,
      "v": 100
    },
    {
      "midi": 69,
      "hit": false,
      "t": 60562.5,
      "d": 93.75,
      "v": 100
    },
    {
      "midi": 52,
      "hit": false,
      "t": 60562.5,
      "d": 93.75,
      "v": 100
    },
    {
      "midi": 49,
      "hit": false,
      "t": 60562.5,
      "d": 93.75,
      "v": 100
    },
    {
      "midi": 71,
      "hit": false,
      "t": 60656.25,
      "d": 93.75,
      "v": 100
    },
    {
      "midi": 64,
      "hit": false,
      "t": 60656.25,
      "d": 93.75,
      "v": 100
    },
    {
      "midi": 69,
      "hit": false,
      "t": 60656.25,
      "d": 93.75,
      "v": 100
    },
    {
      "midi": 38,
      "hit": false,
      "t": 60656.25,
      "d": 0.78125,
      "v": 100
    },
    {
      "midi": 71,
      "hit": false,
      "t": 60656.25,
      "d": 93.75,
      "v": 100
    },
    {
      "midi": 64,
      "hit": false,
      "t": 60656.25,
      "d": 93.75,
      "v": 100
    },
    {
      "midi": 76,
      "hit": false,
      "t": 60750,
      "d": 281.25,
      "v": 100
    },
    {
      "midi": 64,
      "hit": false,
      "t": 60750,
      "d": 93.75,
      "v": 100
    },
    {
      "midi": 38,
      "hit": false,
      "t": 60750,
      "d": 140.625,
      "v": 100
    },
    {
      "midi": 69,
      "hit": false,
      "t": 60750,
      "d": 281.25,
      "v": 100
    },
    {
      "midi": 36,
      "hit": false,
      "t": 60750,
      "d": 0.78125,
      "v": 100
    },
    {
      "midi": 76,
      "hit": false,
      "t": 60750,
      "d": 281.25,
      "v": 100
    },
    {
      "midi": 64,
      "hit": false,
      "t": 60750,
      "d": 93.75,
      "v": 100
    },
    {
      "midi": 64,
      "hit": false,
      "t": 60843.75,
      "d": 187.5,
      "v": 100
    },
    {
      "midi": 38,
      "hit": false,
      "t": 60843.75,
      "d": 0.78125,
      "v": 100
    },
    {
      "midi": 64,
      "hit": false,
      "t": 60843.75,
      "d": 187.5,
      "v": 100
    },
    {
      "midi": 52,
      "hit": false,
      "t": 60937.5,
      "d": 187.5,
      "v": 100
    },
    {
      "midi": 49,
      "hit": false,
      "t": 60937.5,
      "d": 187.5,
      "v": 100
    },
    {
      "midi": 40,
      "hit": false,
      "t": 60937.5,
      "d": 140.625,
      "v": 100
    },
    {
      "midi": 36,
      "hit": false,
      "t": 60937.5,
      "d": 0.78125,
      "v": 100
    },
    {
      "midi": 52,
      "hit": false,
      "t": 60937.5,
      "d": 187.5,
      "v": 100
    },
    {
      "midi": 49,
      "hit": false,
      "t": 60937.5,
      "d": 187.5,
      "v": 100
    },
    {
      "midi": 74,
      "hit": false,
      "t": 61031.25,
      "d": 281.25,
      "v": 100
    },
    {
      "midi": 64,
      "hit": false,
      "t": 61031.25,
      "d": 93.75,
      "v": 100
    },
    {
      "midi": 69,
      "hit": false,
      "t": 61031.25,
      "d": 281.25,
      "v": 100
    },
    {
      "midi": 74,
      "hit": false,
      "t": 61031.25,
      "d": 281.25,
      "v": 100
    },
    {
      "midi": 64,
      "hit": false,
      "t": 61031.25,
      "d": 93.75,
      "v": 100
    },
    {
      "midi": 64,
      "hit": false,
      "t": 61125,
      "d": 93.75,
      "v": 100
    },
    {
      "midi": 38,
      "hit": false,
      "t": 61125,
      "d": 140.625,
      "v": 100
    },
    {
      "midi": 40,
      "hit": false,
      "t": 61125,
      "d": 0.78125,
      "v": 100
    },
    {
      "midi": 64,
      "hit": false,
      "t": 61125,
      "d": 93.75,
      "v": 100
    },
    {
      "midi": 64,
      "hit": false,
      "t": 61218.75,
      "d": 187.5,
      "v": 100
    },
    {
      "midi": 64,
      "hit": false,
      "t": 61218.75,
      "d": 187.5,
      "v": 100
    },
    {
      "midi": 76,
      "hit": false,
      "t": 61312.5,
      "d": 562.5,
      "v": 100
    },
    {
      "midi": 40,
      "hit": false,
      "t": 61312.5,
      "d": 140.625,
      "v": 100
    },
    {
      "midi": 71,
      "hit": false,
      "t": 61312.5,
      "d": 562.5,
      "v": 100
    },
    {
      "midi": 76,
      "hit": false,
      "t": 61312.5,
      "d": 562.5,
      "v": 100
    },
    {
      "midi": 64,
      "hit": false,
      "t": 61406.25,
      "d": 93.75,
      "v": 100
    },
    {
      "midi": 64,
      "hit": false,
      "t": 61406.25,
      "d": 93.75,
      "v": 100
    },
    {
      "midi": 64,
      "hit": false,
      "t": 61500,
      "d": 93.75,
      "v": 100
    },
    {
      "midi": 49,
      "hit": false,
      "t": 61500,
      "d": 93.75,
      "v": 100
    },
    {
      "midi": 45,
      "hit": false,
      "t": 61500,
      "d": 93.75,
      "v": 100
    },
    {
      "midi": 42,
      "hit": false,
      "t": 61500,
      "d": 140.625,
      "v": 100
    },
    {
      "midi": 36,
      "hit": false,
      "t": 61500,
      "d": 0.78125,
      "v": 100
    },
    {
      "midi": 86,
      "hit": false,
      "t": 61500,
      "d": 187.5,
      "v": 100
    },
    {
      "midi": 64,
      "hit": false,
      "t": 61500,
      "d": 93.75,
      "v": 100
    },
    {
      "midi": 49,
      "hit": false,
      "t": 61500,
      "d": 93.75,
      "v": 100
    },
    {
      "midi": 45,
      "hit": false,
      "t": 61500,
      "d": 93.75,
      "v": 100
    },
    {
      "midi": 64,
      "hit": false,
      "t": 61593.75,
      "d": 187.5,
      "v": 100
    },
    {
      "midi": 64,
      "hit": false,
      "t": 61593.75,
      "d": 187.5,
      "v": 100
    },
    {
      "midi": 42,
      "hit": false,
      "t": 61687.5,
      "d": 140.625,
      "v": 100
    },
    {
      "midi": 36,
      "hit": false,
      "t": 61687.5,
      "d": 0.78125,
      "v": 100
    },
    {
      "midi": 64,
      "hit": false,
      "t": 61781.25,
      "d": 93.75,
      "v": 100
    },
    {
      "midi": 64,
      "hit": false,
      "t": 61781.25,
      "d": 93.75,
      "v": 100
    },
    {
      "midi": 64,
      "hit": false,
      "t": 61875,
      "d": 93.75,
      "v": 100
    },
    {
      "midi": 40,
      "hit": false,
      "t": 61875,
      "d": 140.625,
      "v": 100
    },
    {
      "midi": 40,
      "hit": false,
      "t": 61875,
      "d": 0.78125,
      "v": 100
    },
    {
      "midi": 64,
      "hit": false,
      "t": 61875,
      "d": 93.75,
      "v": 100
    },
    {
      "midi": 64,
      "hit": false,
      "t": 61968.75,
      "d": 187.5,
      "v": 100
    },
    {
      "midi": 64,
      "hit": false,
      "t": 61968.75,
      "d": 187.5,
      "v": 100
    },
    {
      "midi": 49,
      "hit": false,
      "t": 62062.5,
      "d": 93.75,
      "v": 100
    },
    {
      "midi": 45,
      "hit": false,
      "t": 62062.5,
      "d": 93.75,
      "v": 100
    },
    {
      "midi": 42,
      "hit": false,
      "t": 62062.5,
      "d": 140.625,
      "v": 100
    },
    {
      "midi": 85,
      "hit": false,
      "t": 62062.5,
      "d": 187.5,
      "v": 100
    },
    {
      "midi": 49,
      "hit": false,
      "t": 62062.5,
      "d": 93.75,
      "v": 100
    },
    {
      "midi": 45,
      "hit": false,
      "t": 62062.5,
      "d": 93.75,
      "v": 100
    },
    {
      "midi": 64,
      "hit": false,
      "t": 62156.25,
      "d": 93.75,
      "v": 100
    },
    {
      "midi": 38,
      "hit": false,
      "t": 62156.25,
      "d": 0.78125,
      "v": 100
    },
    {
      "midi": 64,
      "hit": false,
      "t": 62156.25,
      "d": 93.75,
      "v": 100
    },
    {
      "midi": 64,
      "hit": false,
      "t": 62250,
      "d": 93.75,
      "v": 100
    },
    {
      "midi": 40,
      "hit": false,
      "t": 62250,
      "d": 140.625,
      "v": 100
    },
    {
      "midi": 36,
      "hit": false,
      "t": 62250,
      "d": 0.78125,
      "v": 100
    },
    {
      "midi": 64,
      "hit": false,
      "t": 62250,
      "d": 93.75,
      "v": 100
    },
    {
      "midi": 64,
      "hit": false,
      "t": 62343.75,
      "d": 187.5,
      "v": 100
    },
    {
      "midi": 38,
      "hit": false,
      "t": 62343.75,
      "d": 0.78125,
      "v": 100
    },
    {
      "midi": 64,
      "hit": false,
      "t": 62343.75,
      "d": 187.5,
      "v": 100
    },
    {
      "midi": 73,
      "hit": false,
      "t": 62437.5,
      "d": 187.5,
      "v": 100
    },
    {
      "midi": 49,
      "hit": false,
      "t": 62437.5,
      "d": 187.5,
      "v": 100
    },
    {
      "midi": 45,
      "hit": false,
      "t": 62437.5,
      "d": 187.5,
      "v": 100
    },
    {
      "midi": 42,
      "hit": false,
      "t": 62437.5,
      "d": 140.625,
      "v": 100
    },
    {
      "midi": 36,
      "hit": false,
      "t": 62437.5,
      "d": 0.78125,
      "v": 100
    },
    {
      "midi": 73,
      "hit": false,
      "t": 62437.5,
      "d": 187.5,
      "v": 100
    },
    {
      "midi": 49,
      "hit": false,
      "t": 62437.5,
      "d": 187.5,
      "v": 100
    },
    {
      "midi": 45,
      "hit": false,
      "t": 62437.5,
      "d": 187.5,
      "v": 100
    },
    {
      "midi": 64,
      "hit": false,
      "t": 62531.25,
      "d": 93.75,
      "v": 100
    },
    {
      "midi": 64,
      "hit": false,
      "t": 62531.25,
      "d": 93.75,
      "v": 100
    },
    {
      "midi": 74,
      "hit": false,
      "t": 62625,
      "d": 187.5,
      "v": 100
    },
    {
      "midi": 64,
      "hit": false,
      "t": 62625,
      "d": 93.75,
      "v": 100
    },
    {
      "midi": 40,
      "hit": false,
      "t": 62625,
      "d": 140.625,
      "v": 100
    },
    {
      "midi": 40,
      "hit": false,
      "t": 62625,
      "d": 0.78125,
      "v": 100
    },
    {
      "midi": 74,
      "hit": false,
      "t": 62625,
      "d": 187.5,
      "v": 100
    },
    {
      "midi": 64,
      "hit": false,
      "t": 62625,
      "d": 93.75,
      "v": 100
    },
    {
      "midi": 64,
      "hit": false,
      "t": 62718.75,
      "d": 187.5,
      "v": 100
    },
    {
      "midi": 64,
      "hit": false,
      "t": 62718.75,
      "d": 187.5,
      "v": 100
    },
    {
      "midi": 76,
      "hit": false,
      "t": 62812.5,
      "d": 187.5,
      "v": 100
    },
    {
      "midi": 42,
      "hit": false,
      "t": 62812.5,
      "d": 140.625,
      "v": 100
    },
    {
      "midi": 76,
      "hit": false,
      "t": 62812.5,
      "d": 187.5,
      "v": 100
    },
    {
      "midi": 64,
      "hit": false,
      "t": 62906.25,
      "d": 93.75,
      "v": 100
    },
    {
      "midi": 64,
      "hit": false,
      "t": 62906.25,
      "d": 93.75,
      "v": 100
    },
    {
      "midi": 81,
      "hit": false,
      "t": 63000,
      "d": 515.625,
      "v": 100
    },
    {
      "midi": 64,
      "hit": false,
      "t": 63000,
      "d": 93.75,
      "v": 100
    },
    {
      "midi": 52,
      "hit": false,
      "t": 63000,
      "d": 93.75,
      "v": 100
    },
    {
      "midi": 49,
      "hit": false,
      "t": 63000,
      "d": 93.75,
      "v": 100
    },
    {
      "midi": 43,
      "hit": false,
      "t": 63000,
      "d": 140.625,
      "v": 100
    },
    {
      "midi": 36,
      "hit": false,
      "t": 63000,
      "d": 0.78125,
      "v": 100
    },
    {
      "midi": 88,
      "hit": false,
      "t": 63000,
      "d": 187.5,
      "v": 100
    },
    {
      "midi": 81,
      "hit": false,
      "t": 63000,
      "d": 515.625,
      "v": 100
    },
    {
      "midi": 64,
      "hit": false,
      "t": 63000,
      "d": 93.75,
      "v": 100
    },
    {
      "midi": 52,
      "hit": false,
      "t": 63000,
      "d": 93.75,
      "v": 100
    },
    {
      "midi": 49,
      "hit": false,
      "t": 63000,
      "d": 93.75,
      "v": 100
    },
    {
      "midi": 64,
      "hit": false,
      "t": 63093.75,
      "d": 187.5,
      "v": 100
    },
    {
      "midi": 64,
      "hit": false,
      "t": 63093.75,
      "d": 187.5,
      "v": 100
    },
    {
      "midi": 43,
      "hit": false,
      "t": 63187.5,
      "d": 140.625,
      "v": 100
    },
    {
      "midi": 36,
      "hit": false,
      "t": 63187.5,
      "d": 0.78125,
      "v": 100
    },
    {
      "midi": 64,
      "hit": false,
      "t": 63281.25,
      "d": 93.75,
      "v": 100
    },
    {
      "midi": 64,
      "hit": false,
      "t": 63281.25,
      "d": 93.75,
      "v": 100
    },
    {
      "midi": 64,
      "hit": false,
      "t": 63375,
      "d": 93.75,
      "v": 100
    },
    {
      "midi": 45,
      "hit": false,
      "t": 63375,
      "d": 140.625,
      "v": 100
    },
    {
      "midi": 40,
      "hit": false,
      "t": 63375,
      "d": 0.78125,
      "v": 100
    },
    {
      "midi": 64,
      "hit": false,
      "t": 63375,
      "d": 93.75,
      "v": 100
    },
    {
      "midi": 64,
      "hit": false,
      "t": 63468.75,
      "d": 187.5,
      "v": 100
    },
    {
      "midi": 64,
      "hit": false,
      "t": 63468.75,
      "d": 187.5,
      "v": 100
    },
    {
      "midi": 81,
      "hit": false,
      "t": 63562.5,
      "d": 187.5,
      "v": 100
    },
    {
      "midi": 52,
      "hit": false,
      "t": 63562.5,
      "d": 93.75,
      "v": 100
    },
    {
      "midi": 49,
      "hit": false,
      "t": 63562.5,
      "d": 93.75,
      "v": 100
    },
    {
      "midi": 43,
      "hit": false,
      "t": 63562.5,
      "d": 140.625,
      "v": 100
    },
    {
      "midi": 81,
      "hit": false,
      "t": 63562.5,
      "d": 187.5,
      "v": 100
    },
    {
      "midi": 52,
      "hit": false,
      "t": 63562.5,
      "d": 93.75,
      "v": 100
    },
    {
      "midi": 49,
      "hit": false,
      "t": 63562.5,
      "d": 93.75,
      "v": 100
    },
    {
      "midi": 64,
      "hit": false,
      "t": 63656.25,
      "d": 93.75,
      "v": 100
    },
    {
      "midi": 38,
      "hit": false,
      "t": 63656.25,
      "d": 0.78125,
      "v": 100
    },
    {
      "midi": 64,
      "hit": false,
      "t": 63656.25,
      "d": 93.75,
      "v": 100
    },
    {
      "midi": 79,
      "hit": false,
      "t": 63750,
      "d": 187.5,
      "v": 100
    },
    {
      "midi": 64,
      "hit": false,
      "t": 63750,
      "d": 93.75,
      "v": 100
    },
    {
      "midi": 45,
      "hit": false,
      "t": 63750,
      "d": 140.625,
      "v": 100
    },
    {
      "midi": 36,
      "hit": false,
      "t": 63750,
      "d": 0.78125,
      "v": 100
    },
    {
      "midi": 79,
      "hit": false,
      "t": 63750,
      "d": 187.5,
      "v": 100
    },
    {
      "midi": 64,
      "hit": false,
      "t": 63750,
      "d": 93.75,
      "v": 100
    },
    {
      "midi": 64,
      "hit": false,
      "t": 63843.75,
      "d": 187.5,
      "v": 100
    },
    {
      "midi": 38,
      "hit": false,
      "t": 63843.75,
      "d": 0.78125,
      "v": 100
    },
    {
      "midi": 64,
      "hit": false,
      "t": 63843.75,
      "d": 187.5,
      "v": 100
    },
    {
      "midi": 78,
      "hit": false,
      "t": 63937.5,
      "d": 375,
      "v": 100
    },
    {
      "midi": 52,
      "hit": false,
      "t": 63937.5,
      "d": 187.5,
      "v": 100
    },
    {
      "midi": 49,
      "hit": false,
      "t": 63937.5,
      "d": 187.5,
      "v": 100
    },
    {
      "midi": 47,
      "hit": false,
      "t": 63937.5,
      "d": 140.625,
      "v": 100
    },
    {
      "midi": 36,
      "hit": false,
      "t": 63937.5,
      "d": 0.78125,
      "v": 100
    },
    {
      "midi": 78,
      "hit": false,
      "t": 63937.5,
      "d": 375,
      "v": 100
    },
    {
      "midi": 52,
      "hit": false,
      "t": 63937.5,
      "d": 187.5,
      "v": 100
    },
    {
      "midi": 49,
      "hit": false,
      "t": 63937.5,
      "d": 187.5,
      "v": 100
    },
    {
      "midi": 64,
      "hit": false,
      "t": 64031.25,
      "d": 93.75,
      "v": 100
    },
    {
      "midi": 64,
      "hit": false,
      "t": 64031.25,
      "d": 93.75,
      "v": 100
    },
    {
      "midi": 64,
      "hit": false,
      "t": 64125,
      "d": 93.75,
      "v": 100
    },
    {
      "midi": 45,
      "hit": false,
      "t": 64125,
      "d": 140.625,
      "v": 100
    },
    {
      "midi": 40,
      "hit": false,
      "t": 64125,
      "d": 0.78125,
      "v": 100
    },
    {
      "midi": 64,
      "hit": false,
      "t": 64125,
      "d": 93.75,
      "v": 100
    },
    {
      "midi": 64,
      "hit": false,
      "t": 64218.75,
      "d": 187.5,
      "v": 100
    },
    {
      "midi": 64,
      "hit": false,
      "t": 64218.75,
      "d": 187.5,
      "v": 100
    },
    {
      "midi": 74,
      "hit": false,
      "t": 64312.5,
      "d": 656.25,
      "v": 100
    },
    {
      "midi": 43,
      "hit": false,
      "t": 64312.5,
      "d": 140.625,
      "v": 100
    },
    {
      "midi": 74,
      "hit": false,
      "t": 64312.5,
      "d": 656.25,
      "v": 100
    },
    {
      "midi": 64,
      "hit": false,
      "t": 64406.25,
      "d": 93.75,
      "v": 100
    },
    {
      "midi": 64,
      "hit": false,
      "t": 64406.25,
      "d": 93.75,
      "v": 100
    },
    {
      "midi": 64,
      "hit": false,
      "t": 64500,
      "d": 93.75,
      "v": 100
    },
    {
      "midi": 52,
      "hit": false,
      "t": 64500,
      "d": 93.75,
      "v": 100
    },
    {
      "midi": 49,
      "hit": false,
      "t": 64500,
      "d": 93.75,
      "v": 100
    },
    {
      "midi": 43,
      "hit": false,
      "t": 64500,
      "d": 140.625,
      "v": 100
    },
    {
      "midi": 36,
      "hit": false,
      "t": 64500,
      "d": 0.78125,
      "v": 100
    },
    {
      "midi": 64,
      "hit": false,
      "t": 64500,
      "d": 93.75,
      "v": 100
    },
    {
      "midi": 52,
      "hit": false,
      "t": 64500,
      "d": 93.75,
      "v": 100
    },
    {
      "midi": 49,
      "hit": false,
      "t": 64500,
      "d": 93.75,
      "v": 100
    },
    {
      "midi": 64,
      "hit": false,
      "t": 64593.75,
      "d": 187.5,
      "v": 100
    },
    {
      "midi": 64,
      "hit": false,
      "t": 64593.75,
      "d": 187.5,
      "v": 100
    },
    {
      "midi": 43,
      "hit": false,
      "t": 64687.5,
      "d": 515.625,
      "v": 100
    },
    {
      "midi": 36,
      "hit": false,
      "t": 64687.5,
      "d": 0.78125,
      "v": 100
    },
    {
      "midi": 64,
      "hit": false,
      "t": 64781.25,
      "d": 93.75,
      "v": 100
    },
    {
      "midi": 64,
      "hit": false,
      "t": 64781.25,
      "d": 93.75,
      "v": 100
    },
    {
      "midi": 64,
      "hit": false,
      "t": 64875,
      "d": 93.75,
      "v": 100
    },
    {
      "midi": 40,
      "hit": false,
      "t": 64875,
      "d": 0.78125,
      "v": 100
    },
    {
      "midi": 64,
      "hit": false,
      "t": 64875,
      "d": 93.75,
      "v": 100
    },
    {
      "midi": 64,
      "hit": false,
      "t": 64968.75,
      "d": 187.5,
      "v": 100
    },
    {
      "midi": 64,
      "hit": false,
      "t": 64968.75,
      "d": 187.5,
      "v": 100
    },
    {
      "midi": 74,
      "hit": false,
      "t": 65062.5,
      "d": 140.625,
      "v": 100
    },
    {
      "midi": 74,
      "hit": false,
      "t": 65062.5,
      "d": 375,
      "v": 100
    },
    {
      "midi": 52,
      "hit": false,
      "t": 65062.5,
      "d": 93.75,
      "v": 100
    },
    {
      "midi": 49,
      "hit": false,
      "t": 65062.5,
      "d": 93.75,
      "v": 100
    },
    {
      "midi": 74,
      "hit": false,
      "t": 65062.5,
      "d": 140.625,
      "v": 100
    },
    {
      "midi": 74,
      "hit": false,
      "t": 65062.5,
      "d": 140.625,
      "v": 100
    },
    {
      "midi": 74,
      "hit": false,
      "t": 65062.5,
      "d": 375,
      "v": 100
    },
    {
      "midi": 52,
      "hit": false,
      "t": 65062.5,
      "d": 93.75,
      "v": 100
    },
    {
      "midi": 49,
      "hit": false,
      "t": 65062.5,
      "d": 93.75,
      "v": 100
    },
    {
      "midi": 64,
      "hit": false,
      "t": 65156.25,
      "d": 93.75,
      "v": 100
    },
    {
      "midi": 38,
      "hit": false,
      "t": 65156.25,
      "d": 0.78125,
      "v": 100
    },
    {
      "midi": 64,
      "hit": false,
      "t": 65156.25,
      "d": 93.75,
      "v": 100
    },
    {
      "midi": 74,
      "hit": false,
      "t": 65250,
      "d": 375,
      "v": 100
    },
    {
      "midi": 64,
      "hit": false,
      "t": 65250,
      "d": 93.75,
      "v": 100
    },
    {
      "midi": 43,
      "hit": false,
      "t": 65250,
      "d": 140.625,
      "v": 100
    },
    {
      "midi": 74,
      "hit": false,
      "t": 65250,
      "d": 375,
      "v": 100
    },
    {
      "midi": 36,
      "hit": false,
      "t": 65250,
      "d": 0.78125,
      "v": 100
    },
    {
      "midi": 88,
      "hit": false,
      "t": 65250,
      "d": 187.5,
      "v": 100
    },
    {
      "midi": 74,
      "hit": false,
      "t": 65250,
      "d": 375,
      "v": 100
    },
    {
      "midi": 64,
      "hit": false,
      "t": 65250,
      "d": 93.75,
      "v": 100
    },
    {
      "midi": 64,
      "hit": false,
      "t": 65343.75,
      "d": 187.5,
      "v": 100
    },
    {
      "midi": 38,
      "hit": false,
      "t": 65343.75,
      "d": 0.78125,
      "v": 100
    },
    {
      "midi": 64,
      "hit": false,
      "t": 65343.75,
      "d": 187.5,
      "v": 100
    },
    {
      "midi": 73,
      "hit": false,
      "t": 65437.5,
      "d": 3562.5,
      "v": 100
    },
    {
      "midi": 52,
      "hit": false,
      "t": 65437.5,
      "d": 187.5,
      "v": 100
    },
    {
      "midi": 49,
      "hit": false,
      "t": 65437.5,
      "d": 187.5,
      "v": 100
    },
    {
      "midi": 43,
      "hit": false,
      "t": 65437.5,
      "d": 515.625,
      "v": 100
    },
    {
      "midi": 36,
      "hit": false,
      "t": 65437.5,
      "d": 0.78125,
      "v": 100
    },
    {
      "midi": 86,
      "hit": false,
      "t": 65437.5,
      "d": 187.5,
      "v": 100
    },
    {
      "midi": 73,
      "hit": false,
      "t": 65437.5,
      "d": 3562.5,
      "v": 100
    },
    {
      "midi": 52,
      "hit": false,
      "t": 65437.5,
      "d": 187.5,
      "v": 100
    },
    {
      "midi": 49,
      "hit": false,
      "t": 65437.5,
      "d": 187.5,
      "v": 100
    },
    {
      "midi": 64,
      "hit": false,
      "t": 65531.25,
      "d": 93.75,
      "v": 100
    },
    {
      "midi": 64,
      "hit": false,
      "t": 65531.25,
      "d": 93.75,
      "v": 100
    },
    {
      "midi": 76,
      "hit": false,
      "t": 65625,
      "d": 187.5,
      "v": 100
    },
    {
      "midi": 64,
      "hit": false,
      "t": 65625,
      "d": 93.75,
      "v": 100
    },
    {
      "midi": 74,
      "hit": false,
      "t": 65625,
      "d": 187.5,
      "v": 100
    },
    {
      "midi": 40,
      "hit": false,
      "t": 65625,
      "d": 0.78125,
      "v": 100
    },
    {
      "midi": 55,
      "hit": false,
      "t": 65625,
      "d": 0.78125,
      "v": 100
    },
    {
      "midi": 85,
      "hit": false,
      "t": 65625,
      "d": 187.5,
      "v": 100
    },
    {
      "midi": 76,
      "hit": false,
      "t": 65625,
      "d": 187.5,
      "v": 100
    },
    {
      "midi": 64,
      "hit": false,
      "t": 65625,
      "d": 93.75,
      "v": 100
    },
    {
      "midi": 64,
      "hit": false,
      "t": 65718.75,
      "d": 187.5,
      "v": 100
    },
    {
      "midi": 64,
      "hit": false,
      "t": 65718.75,
      "d": 187.5,
      "v": 100
    },
    {
      "midi": 78,
      "hit": false,
      "t": 65812.5,
      "d": 140.625,
      "v": 100
    },
    {
      "midi": 74,
      "hit": false,
      "t": 65812.5,
      "d": 140.625,
      "v": 100
    },
    {
      "midi": 83,
      "hit": false,
      "t": 65812.5,
      "d": 187.5,
      "v": 100
    },
    {
      "midi": 78,
      "hit": false,
      "t": 65812.5,
      "d": 140.625,
      "v": 100
    },
    {
      "midi": 64,
      "hit": false,
      "t": 65906.25,
      "d": 93.75,
      "v": 100
    },
    {
      "midi": 64,
      "hit": false,
      "t": 65906.25,
      "d": 93.75,
      "v": 100
    },
    {
      "midi": 78,
      "hit": false,
      "t": 66000,
      "d": 890.625,
      "v": 100
    },
    {
      "midi": 64,
      "hit": false,
      "t": 66000,
      "d": 93.75,
      "v": 100
    },
    {
      "midi": 52,
      "hit": false,
      "t": 66000,
      "d": 93.75,
      "v": 100
    },
    {
      "midi": 49,
      "hit": false,
      "t": 66000,
      "d": 93.75,
      "v": 100
    },
    {
      "midi": 42,
      "hit": false,
      "t": 66000,
      "d": 1453.125,
      "v": 100
    },
    {
      "midi": 74,
      "hit": false,
      "t": 66000,
      "d": 890.625,
      "v": 100
    },
    {
      "midi": 36,
      "hit": false,
      "t": 66000,
      "d": 0.78125,
      "v": 100
    },
    {
      "midi": 55,
      "hit": false,
      "t": 66000,
      "d": 0.78125,
      "v": 100
    },
    {
      "midi": 81,
      "hit": false,
      "t": 66000,
      "d": 187.5,
      "v": 100
    },
    {
      "midi": 78,
      "hit": false,
      "t": 66000,
      "d": 890.625,
      "v": 100
    },
    {
      "midi": 64,
      "hit": false,
      "t": 66000,
      "d": 93.75,
      "v": 100
    },
    {
      "midi": 52,
      "hit": false,
      "t": 66000,
      "d": 93.75,
      "v": 100
    },
    {
      "midi": 49,
      "hit": false,
      "t": 66000,
      "d": 93.75,
      "v": 100
    },
    {
      "midi": 64,
      "hit": false,
      "t": 66093.75,
      "d": 187.5,
      "v": 100
    },
    {
      "midi": 64,
      "hit": false,
      "t": 66093.75,
      "d": 187.5,
      "v": 100
    },
    {
      "midi": 36,
      "hit": false,
      "t": 66187.5,
      "d": 0.78125,
      "v": 100
    },
    {
      "midi": 79,
      "hit": false,
      "t": 66187.5,
      "d": 187.5,
      "v": 100
    },
    {
      "midi": 64,
      "hit": false,
      "t": 66281.25,
      "d": 93.75,
      "v": 100
    },
    {
      "midi": 64,
      "hit": false,
      "t": 66281.25,
      "d": 93.75,
      "v": 100
    },
    {
      "midi": 64,
      "hit": false,
      "t": 66375,
      "d": 93.75,
      "v": 100
    },
    {
      "midi": 40,
      "hit": false,
      "t": 66375,
      "d": 0.78125,
      "v": 100
    },
    {
      "midi": 64,
      "hit": false,
      "t": 66375,
      "d": 93.75,
      "v": 100
    },
    {
      "midi": 64,
      "hit": false,
      "t": 66468.75,
      "d": 187.5,
      "v": 100
    },
    {
      "midi": 64,
      "hit": false,
      "t": 66468.75,
      "d": 187.5,
      "v": 100
    },
    {
      "midi": 52,
      "hit": false,
      "t": 66562.5,
      "d": 93.75,
      "v": 100
    },
    {
      "midi": 49,
      "hit": false,
      "t": 66562.5,
      "d": 93.75,
      "v": 100
    },
    {
      "midi": 52,
      "hit": false,
      "t": 66562.5,
      "d": 93.75,
      "v": 100
    },
    {
      "midi": 49,
      "hit": false,
      "t": 66562.5,
      "d": 93.75,
      "v": 100
    },
    {
      "midi": 64,
      "hit": false,
      "t": 66656.25,
      "d": 93.75,
      "v": 100
    },
    {
      "midi": 38,
      "hit": false,
      "t": 66656.25,
      "d": 0.78125,
      "v": 100
    },
    {
      "midi": 64,
      "hit": false,
      "t": 66656.25,
      "d": 93.75,
      "v": 100
    },
    {
      "midi": 64,
      "hit": false,
      "t": 66750,
      "d": 93.75,
      "v": 100
    },
    {
      "midi": 36,
      "hit": false,
      "t": 66750,
      "d": 0.78125,
      "v": 100
    },
    {
      "midi": 64,
      "hit": false,
      "t": 66750,
      "d": 93.75,
      "v": 100
    },
    {
      "midi": 64,
      "hit": false,
      "t": 66843.75,
      "d": 187.5,
      "v": 100
    },
    {
      "midi": 38,
      "hit": false,
      "t": 66843.75,
      "d": 0.78125,
      "v": 100
    },
    {
      "midi": 64,
      "hit": false,
      "t": 66843.75,
      "d": 187.5,
      "v": 100
    },
    {
      "midi": 78,
      "hit": false,
      "t": 66937.5,
      "d": 187.5,
      "v": 100
    },
    {
      "midi": 49,
      "hit": false,
      "t": 66937.5,
      "d": 93.75,
      "v": 100
    },
    {
      "midi": 52,
      "hit": false,
      "t": 66937.5,
      "d": 93.75,
      "v": 100
    },
    {
      "midi": 36,
      "hit": false,
      "t": 66937.5,
      "d": 0.78125,
      "v": 100
    },
    {
      "midi": 78,
      "hit": false,
      "t": 66937.5,
      "d": 187.5,
      "v": 100
    },
    {
      "midi": 49,
      "hit": false,
      "t": 66937.5,
      "d": 93.75,
      "v": 100
    },
    {
      "midi": 52,
      "hit": false,
      "t": 66937.5,
      "d": 93.75,
      "v": 100
    },
    {
      "midi": 64,
      "hit": false,
      "t": 67031.25,
      "d": 93.75,
      "v": 100
    },
    {
      "midi": 64,
      "hit": false,
      "t": 67031.25,
      "d": 93.75,
      "v": 100
    },
    {
      "midi": 83,
      "hit": false,
      "t": 67125,
      "d": 187.5,
      "v": 100
    },
    {
      "midi": 64,
      "hit": false,
      "t": 67125,
      "d": 93.75,
      "v": 100
    },
    {
      "midi": 52,
      "hit": false,
      "t": 67125,
      "d": 93.75,
      "v": 100
    },
    {
      "midi": 49,
      "hit": false,
      "t": 67125,
      "d": 93.75,
      "v": 100
    },
    {
      "midi": 40,
      "hit": false,
      "t": 67125,
      "d": 0.78125,
      "v": 100
    },
    {
      "midi": 83,
      "hit": false,
      "t": 67125,
      "d": 187.5,
      "v": 100
    },
    {
      "midi": 64,
      "hit": false,
      "t": 67125,
      "d": 93.75,
      "v": 100
    },
    {
      "midi": 52,
      "hit": false,
      "t": 67125,
      "d": 93.75,
      "v": 100
    },
    {
      "midi": 49,
      "hit": false,
      "t": 67125,
      "d": 93.75,
      "v": 100
    },
    {
      "midi": 64,
      "hit": false,
      "t": 67218.75,
      "d": 187.5,
      "v": 100
    },
    {
      "midi": 64,
      "hit": false,
      "t": 67218.75,
      "d": 187.5,
      "v": 100
    },
    {
      "midi": 86,
      "hit": false,
      "t": 67312.5,
      "d": 187.5,
      "v": 100
    },
    {
      "midi": 86,
      "hit": false,
      "t": 67312.5,
      "d": 187.5,
      "v": 100
    },
    {
      "midi": 64,
      "hit": false,
      "t": 67406.25,
      "d": 93.75,
      "v": 100
    },
    {
      "midi": 64,
      "hit": false,
      "t": 67406.25,
      "d": 93.75,
      "v": 100
    },
    {
      "midi": 85,
      "hit": false,
      "t": 67500,
      "d": 375,
      "v": 100
    },
    {
      "midi": 64,
      "hit": false,
      "t": 67500,
      "d": 93.75,
      "v": 100
    },
    {
      "midi": 52,
      "hit": false,
      "t": 67500,
      "d": 93.75,
      "v": 100
    },
    {
      "midi": 49,
      "hit": false,
      "t": 67500,
      "d": 93.75,
      "v": 100
    },
    {
      "midi": 50,
      "hit": false,
      "t": 67500,
      "d": 1453.125,
      "v": 100
    },
    {
      "midi": 36,
      "hit": false,
      "t": 67500,
      "d": 0.78125,
      "v": 100
    },
    {
      "midi": 88,
      "hit": false,
      "t": 67500,
      "d": 187.5,
      "v": 100
    },
    {
      "midi": 85,
      "hit": false,
      "t": 67500,
      "d": 375,
      "v": 100
    },
    {
      "midi": 64,
      "hit": false,
      "t": 67500,
      "d": 93.75,
      "v": 100
    },
    {
      "midi": 52,
      "hit": false,
      "t": 67500,
      "d": 93.75,
      "v": 100
    },
    {
      "midi": 49,
      "hit": false,
      "t": 67500,
      "d": 93.75,
      "v": 100
    },
    {
      "midi": 64,
      "hit": false,
      "t": 67593.75,
      "d": 187.5,
      "v": 100
    },
    {
      "midi": 64,
      "hit": false,
      "t": 67593.75,
      "d": 187.5,
      "v": 100
    },
    {
      "midi": 36,
      "hit": false,
      "t": 67687.5,
      "d": 0.78125,
      "v": 100
    },
    {
      "midi": 64,
      "hit": false,
      "t": 67781.25,
      "d": 93.75,
      "v": 100
    },
    {
      "midi": 64,
      "hit": false,
      "t": 67781.25,
      "d": 93.75,
      "v": 100
    },
    {
      "midi": 83,
      "hit": false,
      "t": 67875,
      "d": 187.5,
      "v": 100
    },
    {
      "midi": 64,
      "hit": false,
      "t": 67875,
      "d": 93.75,
      "v": 100
    },
    {
      "midi": 40,
      "hit": false,
      "t": 67875,
      "d": 0.78125,
      "v": 100
    },
    {
      "midi": 83,
      "hit": false,
      "t": 67875,
      "d": 187.5,
      "v": 100
    },
    {
      "midi": 64,
      "hit": false,
      "t": 67875,
      "d": 93.75,
      "v": 100
    },
    {
      "midi": 64,
      "hit": false,
      "t": 67968.75,
      "d": 187.5,
      "v": 100
    },
    {
      "midi": 64,
      "hit": false,
      "t": 67968.75,
      "d": 187.5,
      "v": 100
    },
    {
      "midi": 81,
      "hit": false,
      "t": 68062.5,
      "d": 375,
      "v": 100
    },
    {
      "midi": 52,
      "hit": false,
      "t": 68062.5,
      "d": 93.75,
      "v": 100
    },
    {
      "midi": 49,
      "hit": false,
      "t": 68062.5,
      "d": 93.75,
      "v": 100
    },
    {
      "midi": 81,
      "hit": false,
      "t": 68062.5,
      "d": 375,
      "v": 100
    },
    {
      "midi": 52,
      "hit": false,
      "t": 68062.5,
      "d": 93.75,
      "v": 100
    },
    {
      "midi": 49,
      "hit": false,
      "t": 68062.5,
      "d": 93.75,
      "v": 100
    },
    {
      "midi": 64,
      "hit": false,
      "t": 68156.25,
      "d": 93.75,
      "v": 100
    },
    {
      "midi": 38,
      "hit": false,
      "t": 68156.25,
      "d": 0.78125,
      "v": 100
    },
    {
      "midi": 64,
      "hit": false,
      "t": 68156.25,
      "d": 93.75,
      "v": 100
    },
    {
      "midi": 64,
      "hit": false,
      "t": 68250,
      "d": 93.75,
      "v": 100
    },
    {
      "midi": 36,
      "hit": false,
      "t": 68250,
      "d": 0.78125,
      "v": 100
    },
    {
      "midi": 64,
      "hit": false,
      "t": 68250,
      "d": 93.75,
      "v": 100
    },
    {
      "midi": 64,
      "hit": false,
      "t": 68343.75,
      "d": 187.5,
      "v": 100
    },
    {
      "midi": 38,
      "hit": false,
      "t": 68343.75,
      "d": 0.78125,
      "v": 100
    },
    {
      "midi": 64,
      "hit": false,
      "t": 68343.75,
      "d": 187.5,
      "v": 100
    },
    {
      "midi": 79,
      "hit": false,
      "t": 68437.5,
      "d": 328.125,
      "v": 100
    },
    {
      "midi": 49,
      "hit": false,
      "t": 68437.5,
      "d": 93.75,
      "v": 100
    },
    {
      "midi": 52,
      "hit": false,
      "t": 68437.5,
      "d": 93.75,
      "v": 100
    },
    {
      "midi": 36,
      "hit": false,
      "t": 68437.5,
      "d": 0.78125,
      "v": 100
    },
    {
      "midi": 79,
      "hit": false,
      "t": 68437.5,
      "d": 328.125,
      "v": 100
    },
    {
      "midi": 49,
      "hit": false,
      "t": 68437.5,
      "d": 93.75,
      "v": 100
    },
    {
      "midi": 52,
      "hit": false,
      "t": 68437.5,
      "d": 93.75,
      "v": 100
    },
    {
      "midi": 64,
      "hit": false,
      "t": 68531.25,
      "d": 93.75,
      "v": 100
    },
    {
      "midi": 64,
      "hit": false,
      "t": 68531.25,
      "d": 93.75,
      "v": 100
    },
    {
      "midi": 64,
      "hit": false,
      "t": 68625,
      "d": 93.75,
      "v": 100
    },
    {
      "midi": 52,
      "hit": false,
      "t": 68625,
      "d": 93.75,
      "v": 100
    },
    {
      "midi": 49,
      "hit": false,
      "t": 68625,
      "d": 93.75,
      "v": 100
    },
    {
      "midi": 40,
      "hit": false,
      "t": 68625,
      "d": 0.78125,
      "v": 100
    },
    {
      "midi": 64,
      "hit": false,
      "t": 68625,
      "d": 93.75,
      "v": 100
    },
    {
      "midi": 52,
      "hit": false,
      "t": 68625,
      "d": 93.75,
      "v": 100
    },
    {
      "midi": 49,
      "hit": false,
      "t": 68625,
      "d": 93.75,
      "v": 100
    },
    {
      "midi": 64,
      "hit": false,
      "t": 68718.75,
      "d": 187.5,
      "v": 100
    },
    {
      "midi": 64,
      "hit": false,
      "t": 68718.75,
      "d": 187.5,
      "v": 100
    },
    {
      "midi": 79,
      "hit": false,
      "t": 68812.5,
      "d": 187.5,
      "v": 100
    },
    {
      "midi": 79,
      "hit": false,
      "t": 68812.5,
      "d": 187.5,
      "v": 100
    },
    {
      "midi": 64,
      "hit": false,
      "t": 68906.25,
      "d": 93.75,
      "v": 100
    },
    {
      "midi": 64,
      "hit": false,
      "t": 68906.25,
      "d": 93.75,
      "v": 100
    },
    {
      "midi": 83,
      "hit": false,
      "t": 69000,
      "d": 93.75,
      "v": 100
    },
    {
      "midi": 78,
      "hit": false,
      "t": 69000,
      "d": 1500,
      "v": 100
    },
    {
      "midi": 64,
      "hit": false,
      "t": 69000,
      "d": 93.75,
      "v": 100
    },
    {
      "midi": 52,
      "hit": false,
      "t": 69000,
      "d": 93.75,
      "v": 100
    },
    {
      "midi": 49,
      "hit": false,
      "t": 69000,
      "d": 93.75,
      "v": 100
    },
    {
      "midi": 49,
      "hit": false,
      "t": 69000,
      "d": 1453.125,
      "v": 100
    },
    {
      "midi": 36,
      "hit": false,
      "t": 69000,
      "d": 0.78125,
      "v": 100
    },
    {
      "midi": 90,
      "hit": false,
      "t": 69000,
      "d": 187.5,
      "v": 100
    },
    {
      "midi": 83,
      "hit": false,
      "t": 69000,
      "d": 93.75,
      "v": 100
    },
    {
      "midi": 78,
      "hit": false,
      "t": 69000,
      "d": 1500,
      "v": 100
    },
    {
      "midi": 64,
      "hit": false,
      "t": 69000,
      "d": 93.75,
      "v": 100
    },
    {
      "midi": 52,
      "hit": false,
      "t": 69000,
      "d": 93.75,
      "v": 100
    },
    {
      "midi": 49,
      "hit": false,
      "t": 69000,
      "d": 93.75,
      "v": 100
    },
    {
      "midi": 64,
      "hit": false,
      "t": 69093.75,
      "d": 187.5,
      "v": 100
    },
    {
      "midi": 64,
      "hit": false,
      "t": 69093.75,
      "d": 187.5,
      "v": 100
    },
    {
      "midi": 83,
      "hit": false,
      "t": 69187.5,
      "d": 515.625,
      "v": 100
    },
    {
      "midi": 36,
      "hit": false,
      "t": 69187.5,
      "d": 0.78125,
      "v": 100
    },
    {
      "midi": 83,
      "hit": false,
      "t": 69187.5,
      "d": 515.625,
      "v": 100
    },
    {
      "midi": 64,
      "hit": false,
      "t": 69281.25,
      "d": 93.75,
      "v": 100
    },
    {
      "midi": 64,
      "hit": false,
      "t": 69281.25,
      "d": 93.75,
      "v": 100
    },
    {
      "midi": 64,
      "hit": false,
      "t": 69375,
      "d": 93.75,
      "v": 100
    },
    {
      "midi": 40,
      "hit": false,
      "t": 69375,
      "d": 0.78125,
      "v": 100
    },
    {
      "midi": 64,
      "hit": false,
      "t": 69375,
      "d": 93.75,
      "v": 100
    },
    {
      "midi": 64,
      "hit": false,
      "t": 69468.75,
      "d": 187.5,
      "v": 100
    },
    {
      "midi": 64,
      "hit": false,
      "t": 69468.75,
      "d": 187.5,
      "v": 100
    },
    {
      "midi": 52,
      "hit": false,
      "t": 69562.5,
      "d": 93.75,
      "v": 100
    },
    {
      "midi": 49,
      "hit": false,
      "t": 69562.5,
      "d": 93.75,
      "v": 100
    },
    {
      "midi": 52,
      "hit": false,
      "t": 69562.5,
      "d": 93.75,
      "v": 100
    },
    {
      "midi": 49,
      "hit": false,
      "t": 69562.5,
      "d": 93.75,
      "v": 100
    },
    {
      "midi": 64,
      "hit": false,
      "t": 69656.25,
      "d": 93.75,
      "v": 100
    },
    {
      "midi": 38,
      "hit": false,
      "t": 69656.25,
      "d": 0.78125,
      "v": 100
    },
    {
      "midi": 64,
      "hit": false,
      "t": 69656.25,
      "d": 93.75,
      "v": 100
    },
    {
      "midi": 85,
      "hit": false,
      "t": 69750,
      "d": 93.75,
      "v": 100
    },
    {
      "midi": 64,
      "hit": false,
      "t": 69750,
      "d": 93.75,
      "v": 100
    },
    {
      "midi": 85,
      "hit": false,
      "t": 69750,
      "d": 93.75,
      "v": 100
    },
    {
      "midi": 36,
      "hit": false,
      "t": 69750,
      "d": 0.78125,
      "v": 100
    },
    {
      "midi": 85,
      "hit": false,
      "t": 69750,
      "d": 93.75,
      "v": 100
    },
    {
      "midi": 64,
      "hit": false,
      "t": 69750,
      "d": 93.75,
      "v": 100
    },
    {
      "midi": 85,
      "hit": false,
      "t": 69843.75,
      "d": 93.75,
      "v": 100
    },
    {
      "midi": 64,
      "hit": false,
      "t": 69843.75,
      "d": 187.5,
      "v": 100
    },
    {
      "midi": 85,
      "hit": false,
      "t": 69843.75,
      "d": 93.75,
      "v": 100
    },
    {
      "midi": 38,
      "hit": false,
      "t": 69843.75,
      "d": 0.78125,
      "v": 100
    },
    {
      "midi": 85,
      "hit": false,
      "t": 69843.75,
      "d": 93.75,
      "v": 100
    },
    {
      "midi": 64,
      "hit": false,
      "t": 69843.75,
      "d": 187.5,
      "v": 100
    },
    {
      "midi": 86,
      "hit": false,
      "t": 69937.5,
      "d": 187.5,
      "v": 100
    },
    {
      "midi": 52,
      "hit": false,
      "t": 69937.5,
      "d": 93.75,
      "v": 100
    },
    {
      "midi": 49,
      "hit": false,
      "t": 69937.5,
      "d": 93.75,
      "v": 100
    },
    {
      "midi": 86,
      "hit": false,
      "t": 69937.5,
      "d": 187.5,
      "v": 100
    },
    {
      "midi": 36,
      "hit": false,
      "t": 69937.5,
      "d": 0.78125,
      "v": 100
    },
    {
      "midi": 86,
      "hit": false,
      "t": 69937.5,
      "d": 187.5,
      "v": 100
    },
    {
      "midi": 52,
      "hit": false,
      "t": 69937.5,
      "d": 93.75,
      "v": 100
    },
    {
      "midi": 49,
      "hit": false,
      "t": 69937.5,
      "d": 93.75,
      "v": 100
    },
    {
      "midi": 64,
      "hit": false,
      "t": 70031.25,
      "d": 93.75,
      "v": 100
    },
    {
      "midi": 64,
      "hit": false,
      "t": 70031.25,
      "d": 93.75,
      "v": 100
    },
    {
      "midi": 85,
      "hit": false,
      "t": 70125,
      "d": 187.5,
      "v": 100
    },
    {
      "midi": 64,
      "hit": false,
      "t": 70125,
      "d": 93.75,
      "v": 100
    },
    {
      "midi": 52,
      "hit": false,
      "t": 70125,
      "d": 93.75,
      "v": 100
    },
    {
      "midi": 49,
      "hit": false,
      "t": 70125,
      "d": 93.75,
      "v": 100
    },
    {
      "midi": 88,
      "hit": false,
      "t": 70125,
      "d": 187.5,
      "v": 100
    },
    {
      "midi": 40,
      "hit": false,
      "t": 70125,
      "d": 0.78125,
      "v": 100
    },
    {
      "midi": 85,
      "hit": false,
      "t": 70125,
      "d": 187.5,
      "v": 100
    },
    {
      "midi": 64,
      "hit": false,
      "t": 70125,
      "d": 93.75,
      "v": 100
    },
    {
      "midi": 52,
      "hit": false,
      "t": 70125,
      "d": 93.75,
      "v": 100
    },
    {
      "midi": 49,
      "hit": false,
      "t": 70125,
      "d": 93.75,
      "v": 100
    },
    {
      "midi": 64,
      "hit": false,
      "t": 70218.75,
      "d": 187.5,
      "v": 100
    },
    {
      "midi": 64,
      "hit": false,
      "t": 70218.75,
      "d": 187.5,
      "v": 100
    },
    {
      "midi": 83,
      "hit": false,
      "t": 70312.5,
      "d": 187.5,
      "v": 100
    },
    {
      "midi": 90,
      "hit": false,
      "t": 70312.5,
      "d": 187.5,
      "v": 100
    },
    {
      "midi": 83,
      "hit": false,
      "t": 70312.5,
      "d": 187.5,
      "v": 100
    },
    {
      "midi": 64,
      "hit": false,
      "t": 70406.25,
      "d": 93.75,
      "v": 100
    },
    {
      "midi": 64,
      "hit": false,
      "t": 70406.25,
      "d": 93.75,
      "v": 100
    },
    {
      "midi": 81,
      "hit": false,
      "t": 70500,
      "d": 375,
      "v": 100
    },
    {
      "midi": 62,
      "hit": false,
      "t": 70500,
      "d": 93.75,
      "v": 100
    },
    {
      "midi": 50,
      "hit": false,
      "t": 70500,
      "d": 93.75,
      "v": 100
    },
    {
      "midi": 47,
      "hit": false,
      "t": 70500,
      "d": 93.75,
      "v": 100
    },
    {
      "midi": 47,
      "hit": false,
      "t": 70500,
      "d": 1453.125,
      "v": 100
    },
    {
      "midi": 91,
      "hit": false,
      "t": 70500,
      "d": 375,
      "v": 100
    },
    {
      "midi": 36,
      "hit": false,
      "t": 70500,
      "d": 0.78125,
      "v": 100
    },
    {
      "midi": 81,
      "hit": false,
      "t": 70500,
      "d": 375,
      "v": 100
    },
    {
      "midi": 62,
      "hit": false,
      "t": 70500,
      "d": 93.75,
      "v": 100
    },
    {
      "midi": 50,
      "hit": false,
      "t": 70500,
      "d": 93.75,
      "v": 100
    },
    {
      "midi": 47,
      "hit": false,
      "t": 70500,
      "d": 93.75,
      "v": 100
    },
    {
      "midi": 62,
      "hit": false,
      "t": 70593.75,
      "d": 187.5,
      "v": 100
    },
    {
      "midi": 62,
      "hit": false,
      "t": 70593.75,
      "d": 187.5,
      "v": 100
    },
    {
      "midi": 76,
      "hit": false,
      "t": 70687.5,
      "d": 187.5,
      "v": 100
    },
    {
      "midi": 36,
      "hit": false,
      "t": 70687.5,
      "d": 0.78125,
      "v": 100
    },
    {
      "midi": 88,
      "hit": false,
      "t": 70687.5,
      "d": 187.5,
      "v": 100
    },
    {
      "midi": 62,
      "hit": false,
      "t": 70781.25,
      "d": 93.75,
      "v": 100
    },
    {
      "midi": 62,
      "hit": false,
      "t": 70781.25,
      "d": 93.75,
      "v": 100
    },
    {
      "midi": 61,
      "hit": false,
      "t": 70875,
      "d": 93.75,
      "v": 100
    },
    {
      "midi": 74,
      "hit": false,
      "t": 70875,
      "d": 187.5,
      "v": 100
    },
    {
      "midi": 38,
      "hit": false,
      "t": 70875,
      "d": 0.78125,
      "v": 100
    },
    {
      "midi": 86,
      "hit": false,
      "t": 70875,
      "d": 187.5,
      "v": 100
    },
    {
      "midi": 61,
      "hit": false,
      "t": 70875,
      "d": 93.75,
      "v": 100
    },
    {
      "midi": 61,
      "hit": false,
      "t": 70968.75,
      "d": 187.5,
      "v": 100
    },
    {
      "midi": 61,
      "hit": false,
      "t": 70968.75,
      "d": 187.5,
      "v": 100
    },
    {
      "midi": 69,
      "hit": false,
      "t": 71062.5,
      "d": 93.75,
      "v": 100
    },
    {
      "midi": 50,
      "hit": false,
      "t": 71062.5,
      "d": 93.75,
      "v": 100
    },
    {
      "midi": 47,
      "hit": false,
      "t": 71062.5,
      "d": 93.75,
      "v": 100
    },
    {
      "midi": 69,
      "hit": false,
      "t": 71062.5,
      "d": 93.75,
      "v": 100
    },
    {
      "midi": 73,
      "hit": false,
      "t": 71062.5,
      "d": 187.5,
      "v": 100
    },
    {
      "midi": 40,
      "hit": false,
      "t": 71062.5,
      "d": 0.78125,
      "v": 100
    },
    {
      "midi": 85,
      "hit": false,
      "t": 71062.5,
      "d": 187.5,
      "v": 100
    },
    {
      "midi": 69,
      "hit": false,
      "t": 71062.5,
      "d": 93.75,
      "v": 100
    },
    {
      "midi": 50,
      "hit": false,
      "t": 71062.5,
      "d": 93.75,
      "v": 100
    },
    {
      "midi": 47,
      "hit": false,
      "t": 71062.5,
      "d": 93.75,
      "v": 100
    },
    {
      "midi": 71,
      "hit": false,
      "t": 71156.25,
      "d": 93.75,
      "v": 100
    },
    {
      "midi": 61,
      "hit": false,
      "t": 71156.25,
      "d": 93.75,
      "v": 100
    },
    {
      "midi": 69,
      "hit": false,
      "t": 71156.25,
      "d": 93.75,
      "v": 100
    },
    {
      "midi": 38,
      "hit": false,
      "t": 71156.25,
      "d": 0.78125,
      "v": 100
    },
    {
      "midi": 71,
      "hit": false,
      "t": 71156.25,
      "d": 93.75,
      "v": 100
    },
    {
      "midi": 61,
      "hit": false,
      "t": 71156.25,
      "d": 93.75,
      "v": 100
    },
    {
      "midi": 74,
      "hit": false,
      "t": 71250,
      "d": 281.25,
      "v": 100
    },
    {
      "midi": 61,
      "hit": false,
      "t": 71250,
      "d": 93.75,
      "v": 100
    },
    {
      "midi": 69,
      "hit": false,
      "t": 71250,
      "d": 281.25,
      "v": 100
    },
    {
      "midi": 76,
      "hit": false,
      "t": 71250,
      "d": 187.5,
      "v": 100
    },
    {
      "midi": 40,
      "hit": false,
      "t": 71250,
      "d": 0.78125,
      "v": 100
    },
    {
      "midi": 88,
      "hit": false,
      "t": 71250,
      "d": 187.5,
      "v": 100
    },
    {
      "midi": 74,
      "hit": false,
      "t": 71250,
      "d": 281.25,
      "v": 100
    },
    {
      "midi": 61,
      "hit": false,
      "t": 71250,
      "d": 93.75,
      "v": 100
    },
    {
      "midi": 61,
      "hit": false,
      "t": 71343.75,
      "d": 187.5,
      "v": 100
    },
    {
      "midi": 61,
      "hit": false,
      "t": 71343.75,
      "d": 187.5,
      "v": 100
    },
    {
      "midi": 50,
      "hit": false,
      "t": 71437.5,
      "d": 93.75,
      "v": 100
    },
    {
      "midi": 47,
      "hit": false,
      "t": 71437.5,
      "d": 93.75,
      "v": 100
    },
    {
      "midi": 74,
      "hit": false,
      "t": 71437.5,
      "d": 187.5,
      "v": 100
    },
    {
      "midi": 38,
      "hit": false,
      "t": 71437.5,
      "d": 0.78125,
      "v": 100
    },
    {
      "midi": 86,
      "hit": false,
      "t": 71437.5,
      "d": 187.5,
      "v": 100
    },
    {
      "midi": 50,
      "hit": false,
      "t": 71437.5,
      "d": 93.75,
      "v": 100
    },
    {
      "midi": 47,
      "hit": false,
      "t": 71437.5,
      "d": 93.75,
      "v": 100
    },
    {
      "midi": 73,
      "hit": false,
      "t": 71531.25,
      "d": 281.25,
      "v": 100
    },
    {
      "midi": 61,
      "hit": false,
      "t": 71531.25,
      "d": 93.75,
      "v": 100
    },
    {
      "midi": 69,
      "hit": false,
      "t": 71531.25,
      "d": 281.25,
      "v": 100
    },
    {
      "midi": 38,
      "hit": false,
      "t": 71531.25,
      "d": 0.78125,
      "v": 100
    },
    {
      "midi": 73,
      "hit": false,
      "t": 71531.25,
      "d": 281.25,
      "v": 100
    },
    {
      "midi": 61,
      "hit": false,
      "t": 71531.25,
      "d": 93.75,
      "v": 100
    },
    {
      "midi": 61,
      "hit": false,
      "t": 71625,
      "d": 93.75,
      "v": 100
    },
    {
      "midi": 50,
      "hit": false,
      "t": 71625,
      "d": 93.75,
      "v": 100
    },
    {
      "midi": 47,
      "hit": false,
      "t": 71625,
      "d": 93.75,
      "v": 100
    },
    {
      "midi": 73,
      "hit": false,
      "t": 71625,
      "d": 187.5,
      "v": 100
    },
    {
      "midi": 38,
      "hit": false,
      "t": 71625,
      "d": 0.78125,
      "v": 100
    },
    {
      "midi": 85,
      "hit": false,
      "t": 71625,
      "d": 187.5,
      "v": 100
    },
    {
      "midi": 61,
      "hit": false,
      "t": 71625,
      "d": 93.75,
      "v": 100
    },
    {
      "midi": 50,
      "hit": false,
      "t": 71625,
      "d": 93.75,
      "v": 100
    },
    {
      "midi": 47,
      "hit": false,
      "t": 71625,
      "d": 93.75,
      "v": 100
    },
    {
      "midi": 61,
      "hit": false,
      "t": 71718.75,
      "d": 187.5,
      "v": 100
    },
    {
      "midi": 40,
      "hit": false,
      "t": 71718.75,
      "d": 0.78125,
      "v": 100
    },
    {
      "midi": 61,
      "hit": false,
      "t": 71718.75,
      "d": 187.5,
      "v": 100
    },
    {
      "midi": 74,
      "hit": false,
      "t": 71812.5,
      "d": 562.5,
      "v": 100
    },
    {
      "midi": 67,
      "hit": false,
      "t": 71812.5,
      "d": 562.5,
      "v": 100
    },
    {
      "midi": 71,
      "hit": false,
      "t": 71812.5,
      "d": 187.5,
      "v": 100
    },
    {
      "midi": 38,
      "hit": false,
      "t": 71812.5,
      "d": 0.78125,
      "v": 100
    },
    {
      "midi": 83,
      "hit": false,
      "t": 71812.5,
      "d": 187.5,
      "v": 100
    },
    {
      "midi": 74,
      "hit": false,
      "t": 71812.5,
      "d": 562.5,
      "v": 100
    },
    {
      "midi": 61,
      "hit": false,
      "t": 71906.25,
      "d": 93.75,
      "v": 100
    },
    {
      "midi": 61,
      "hit": false,
      "t": 71906.25,
      "d": 93.75,
      "v": 100
    },
    {
      "midi": 76,
      "hit": false,
      "t": 72000,
      "d": 5062.5,
      "v": 100
    },
    {
      "midi": 64,
      "hit": false,
      "t": 72000,
      "d": 93.75,
      "v": 100
    },
    {
      "midi": 52,
      "hit": false,
      "t": 72000,
      "d": 93.75,
      "v": 100
    },
    {
      "midi": 49,
      "hit": false,
      "t": 72000,
      "d": 93.75,
      "v": 100
    },
    {
      "midi": 40,
      "hit": false,
      "t": 72000,
      "d": 140.625,
      "v": 100
    },
    {
      "midi": 36,
      "hit": false,
      "t": 72000,
      "d": 0.78125,
      "v": 100
    },
    {
      "midi": 55,
      "hit": false,
      "t": 72000,
      "d": 0.78125,
      "v": 100
    },
    {
      "midi": 88,
      "hit": false,
      "t": 72000,
      "d": 187.5,
      "v": 100
    },
    {
      "midi": 76,
      "hit": false,
      "t": 72000,
      "d": 5062.5,
      "v": 100
    },
    {
      "midi": 64,
      "hit": false,
      "t": 72000,
      "d": 93.75,
      "v": 100
    },
    {
      "midi": 52,
      "hit": false,
      "t": 72000,
      "d": 93.75,
      "v": 100
    },
    {
      "midi": 49,
      "hit": false,
      "t": 72000,
      "d": 93.75,
      "v": 100
    },
    {
      "midi": 64,
      "hit": false,
      "t": 72093.75,
      "d": 187.5,
      "v": 100
    },
    {
      "midi": 64,
      "hit": false,
      "t": 72093.75,
      "d": 187.5,
      "v": 100
    },
    {
      "midi": 40,
      "hit": false,
      "t": 72187.5,
      "d": 140.625,
      "v": 100
    },
    {
      "midi": 36,
      "hit": false,
      "t": 72187.5,
      "d": 0.78125,
      "v": 100
    },
    {
      "midi": 64,
      "hit": false,
      "t": 72281.25,
      "d": 93.75,
      "v": 100
    },
    {
      "midi": 64,
      "hit": false,
      "t": 72281.25,
      "d": 93.75,
      "v": 100
    },
    {
      "midi": 64,
      "hit": false,
      "t": 72375,
      "d": 93.75,
      "v": 100
    },
    {
      "midi": 38,
      "hit": false,
      "t": 72375,
      "d": 140.625,
      "v": 100
    },
    {
      "midi": 40,
      "hit": false,
      "t": 72375,
      "d": 0.78125,
      "v": 100
    },
    {
      "midi": 64,
      "hit": false,
      "t": 72375,
      "d": 93.75,
      "v": 100
    },
    {
      "midi": 64,
      "hit": false,
      "t": 72468.75,
      "d": 187.5,
      "v": 100
    },
    {
      "midi": 64,
      "hit": false,
      "t": 72468.75,
      "d": 187.5,
      "v": 100
    },
    {
      "midi": 69,
      "hit": false,
      "t": 72562.5,
      "d": 93.75,
      "v": 100
    },
    {
      "midi": 52,
      "hit": false,
      "t": 72562.5,
      "d": 93.75,
      "v": 100
    },
    {
      "midi": 49,
      "hit": false,
      "t": 72562.5,
      "d": 93.75,
      "v": 100
    },
    {
      "midi": 40,
      "hit": false,
      "t": 72562.5,
      "d": 140.625,
      "v": 100
    },
    {
      "midi": 69,
      "hit": false,
      "t": 72562.5,
      "d": 93.75,
      "v": 100
    },
    {
      "midi": 69,
      "hit": false,
      "t": 72562.5,
      "d": 93.75,
      "v": 100
    },
    {
      "midi": 52,
      "hit": false,
      "t": 72562.5,
      "d": 93.75,
      "v": 100
    },
    {
      "midi": 49,
      "hit": false,
      "t": 72562.5,
      "d": 93.75,
      "v": 100
    },
    {
      "midi": 71,
      "hit": false,
      "t": 72656.25,
      "d": 93.75,
      "v": 100
    },
    {
      "midi": 64,
      "hit": false,
      "t": 72656.25,
      "d": 93.75,
      "v": 100
    },
    {
      "midi": 69,
      "hit": false,
      "t": 72656.25,
      "d": 93.75,
      "v": 100
    },
    {
      "midi": 38,
      "hit": false,
      "t": 72656.25,
      "d": 0.78125,
      "v": 100
    },
    {
      "midi": 71,
      "hit": false,
      "t": 72656.25,
      "d": 93.75,
      "v": 100
    },
    {
      "midi": 64,
      "hit": false,
      "t": 72656.25,
      "d": 93.75,
      "v": 100
    },
    {
      "midi": 76,
      "hit": false,
      "t": 72750,
      "d": 281.25,
      "v": 100
    },
    {
      "midi": 64,
      "hit": false,
      "t": 72750,
      "d": 93.75,
      "v": 100
    },
    {
      "midi": 38,
      "hit": false,
      "t": 72750,
      "d": 140.625,
      "v": 100
    },
    {
      "midi": 69,
      "hit": false,
      "t": 72750,
      "d": 281.25,
      "v": 100
    },
    {
      "midi": 36,
      "hit": false,
      "t": 72750,
      "d": 0.78125,
      "v": 100
    },
    {
      "midi": 76,
      "hit": false,
      "t": 72750,
      "d": 281.25,
      "v": 100
    },
    {
      "midi": 64,
      "hit": false,
      "t": 72750,
      "d": 93.75,
      "v": 100
    },
    {
      "midi": 64,
      "hit": false,
      "t": 72843.75,
      "d": 187.5,
      "v": 100
    },
    {
      "midi": 38,
      "hit": false,
      "t": 72843.75,
      "d": 0.78125,
      "v": 100
    },
    {
      "midi": 64,
      "hit": false,
      "t": 72843.75,
      "d": 187.5,
      "v": 100
    },
    {
      "midi": 52,
      "hit": false,
      "t": 72937.5,
      "d": 187.5,
      "v": 100
    },
    {
      "midi": 49,
      "hit": false,
      "t": 72937.5,
      "d": 187.5,
      "v": 100
    },
    {
      "midi": 40,
      "hit": false,
      "t": 72937.5,
      "d": 140.625,
      "v": 100
    },
    {
      "midi": 36,
      "hit": false,
      "t": 72937.5,
      "d": 0.78125,
      "v": 100
    },
    {
      "midi": 52,
      "hit": false,
      "t": 72937.5,
      "d": 187.5,
      "v": 100
    },
    {
      "midi": 49,
      "hit": false,
      "t": 72937.5,
      "d": 187.5,
      "v": 100
    },
    {
      "midi": 74,
      "hit": false,
      "t": 73031.25,
      "d": 281.25,
      "v": 100
    },
    {
      "midi": 64,
      "hit": false,
      "t": 73031.25,
      "d": 93.75,
      "v": 100
    },
    {
      "midi": 69,
      "hit": false,
      "t": 73031.25,
      "d": 281.25,
      "v": 100
    },
    {
      "midi": 74,
      "hit": false,
      "t": 73031.25,
      "d": 281.25,
      "v": 100
    },
    {
      "midi": 64,
      "hit": false,
      "t": 73031.25,
      "d": 93.75,
      "v": 100
    },
    {
      "midi": 64,
      "hit": false,
      "t": 73125,
      "d": 93.75,
      "v": 100
    },
    {
      "midi": 38,
      "hit": false,
      "t": 73125,
      "d": 140.625,
      "v": 100
    },
    {
      "midi": 40,
      "hit": false,
      "t": 73125,
      "d": 0.78125,
      "v": 100
    },
    {
      "midi": 64,
      "hit": false,
      "t": 73125,
      "d": 93.75,
      "v": 100
    },
    {
      "midi": 64,
      "hit": false,
      "t": 73218.75,
      "d": 187.5,
      "v": 100
    },
    {
      "midi": 64,
      "hit": false,
      "t": 73218.75,
      "d": 187.5,
      "v": 100
    },
    {
      "midi": 76,
      "hit": false,
      "t": 73312.5,
      "d": 562.5,
      "v": 100
    },
    {
      "midi": 40,
      "hit": false,
      "t": 73312.5,
      "d": 140.625,
      "v": 100
    },
    {
      "midi": 71,
      "hit": false,
      "t": 73312.5,
      "d": 562.5,
      "v": 100
    },
    {
      "midi": 76,
      "hit": false,
      "t": 73312.5,
      "d": 562.5,
      "v": 100
    },
    {
      "midi": 64,
      "hit": false,
      "t": 73406.25,
      "d": 93.75,
      "v": 100
    },
    {
      "midi": 64,
      "hit": false,
      "t": 73406.25,
      "d": 93.75,
      "v": 100
    },
    {
      "midi": 62,
      "hit": false,
      "t": 73500,
      "d": 93.75,
      "v": 100
    },
    {
      "midi": 49,
      "hit": false,
      "t": 73500,
      "d": 93.75,
      "v": 100
    },
    {
      "midi": 45,
      "hit": false,
      "t": 73500,
      "d": 93.75,
      "v": 100
    },
    {
      "midi": 42,
      "hit": false,
      "t": 73500,
      "d": 140.625,
      "v": 100
    },
    {
      "midi": 36,
      "hit": false,
      "t": 73500,
      "d": 0.78125,
      "v": 100
    },
    {
      "midi": 86,
      "hit": false,
      "t": 73500,
      "d": 187.5,
      "v": 100
    },
    {
      "midi": 62,
      "hit": false,
      "t": 73500,
      "d": 93.75,
      "v": 100
    },
    {
      "midi": 49,
      "hit": false,
      "t": 73500,
      "d": 93.75,
      "v": 100
    },
    {
      "midi": 45,
      "hit": false,
      "t": 73500,
      "d": 93.75,
      "v": 100
    },
    {
      "midi": 62,
      "hit": false,
      "t": 73593.75,
      "d": 187.5,
      "v": 100
    },
    {
      "midi": 62,
      "hit": false,
      "t": 73593.75,
      "d": 187.5,
      "v": 100
    },
    {
      "midi": 42,
      "hit": false,
      "t": 73687.5,
      "d": 140.625,
      "v": 100
    },
    {
      "midi": 36,
      "hit": false,
      "t": 73687.5,
      "d": 0.78125,
      "v": 100
    },
    {
      "midi": 62,
      "hit": false,
      "t": 73781.25,
      "d": 93.75,
      "v": 100
    },
    {
      "midi": 62,
      "hit": false,
      "t": 73781.25,
      "d": 93.75,
      "v": 100
    },
    {
      "midi": 62,
      "hit": false,
      "t": 73875,
      "d": 93.75,
      "v": 100
    },
    {
      "midi": 40,
      "hit": false,
      "t": 73875,
      "d": 140.625,
      "v": 100
    },
    {
      "midi": 40,
      "hit": false,
      "t": 73875,
      "d": 0.78125,
      "v": 100
    },
    {
      "midi": 62,
      "hit": false,
      "t": 73875,
      "d": 93.75,
      "v": 100
    },
    {
      "midi": 62,
      "hit": false,
      "t": 73968.75,
      "d": 187.5,
      "v": 100
    },
    {
      "midi": 62,
      "hit": false,
      "t": 73968.75,
      "d": 187.5,
      "v": 100
    },
    {
      "midi": 49,
      "hit": false,
      "t": 74062.5,
      "d": 93.75,
      "v": 100
    },
    {
      "midi": 45,
      "hit": false,
      "t": 74062.5,
      "d": 93.75,
      "v": 100
    },
    {
      "midi": 42,
      "hit": false,
      "t": 74062.5,
      "d": 140.625,
      "v": 100
    },
    {
      "midi": 85,
      "hit": false,
      "t": 74062.5,
      "d": 187.5,
      "v": 100
    },
    {
      "midi": 49,
      "hit": false,
      "t": 74062.5,
      "d": 93.75,
      "v": 100
    },
    {
      "midi": 45,
      "hit": false,
      "t": 74062.5,
      "d": 93.75,
      "v": 100
    },
    {
      "midi": 62,
      "hit": false,
      "t": 74156.25,
      "d": 93.75,
      "v": 100
    },
    {
      "midi": 38,
      "hit": false,
      "t": 74156.25,
      "d": 0.78125,
      "v": 100
    },
    {
      "midi": 62,
      "hit": false,
      "t": 74156.25,
      "d": 93.75,
      "v": 100
    },
    {
      "midi": 61,
      "hit": false,
      "t": 74250,
      "d": 93.75,
      "v": 100
    },
    {
      "midi": 40,
      "hit": false,
      "t": 74250,
      "d": 140.625,
      "v": 100
    },
    {
      "midi": 36,
      "hit": false,
      "t": 74250,
      "d": 0.78125,
      "v": 100
    },
    {
      "midi": 61,
      "hit": false,
      "t": 74250,
      "d": 93.75,
      "v": 100
    },
    {
      "midi": 61,
      "hit": false,
      "t": 74343.75,
      "d": 187.5,
      "v": 100
    },
    {
      "midi": 38,
      "hit": false,
      "t": 74343.75,
      "d": 0.78125,
      "v": 100
    },
    {
      "midi": 61,
      "hit": false,
      "t": 74343.75,
      "d": 187.5,
      "v": 100
    },
    {
      "midi": 73,
      "hit": false,
      "t": 74437.5,
      "d": 187.5,
      "v": 100
    },
    {
      "midi": 49,
      "hit": false,
      "t": 74437.5,
      "d": 187.5,
      "v": 100
    },
    {
      "midi": 45,
      "hit": false,
      "t": 74437.5,
      "d": 187.5,
      "v": 100
    },
    {
      "midi": 42,
      "hit": false,
      "t": 74437.5,
      "d": 140.625,
      "v": 100
    },
    {
      "midi": 36,
      "hit": false,
      "t": 74437.5,
      "d": 0.78125,
      "v": 100
    },
    {
      "midi": 73,
      "hit": false,
      "t": 74437.5,
      "d": 187.5,
      "v": 100
    },
    {
      "midi": 49,
      "hit": false,
      "t": 74437.5,
      "d": 187.5,
      "v": 100
    },
    {
      "midi": 45,
      "hit": false,
      "t": 74437.5,
      "d": 187.5,
      "v": 100
    },
    {
      "midi": 61,
      "hit": false,
      "t": 74531.25,
      "d": 93.75,
      "v": 100
    },
    {
      "midi": 61,
      "hit": false,
      "t": 74531.25,
      "d": 93.75,
      "v": 100
    },
    {
      "midi": 74,
      "hit": false,
      "t": 74625,
      "d": 187.5,
      "v": 100
    },
    {
      "midi": 61,
      "hit": false,
      "t": 74625,
      "d": 93.75,
      "v": 100
    },
    {
      "midi": 40,
      "hit": false,
      "t": 74625,
      "d": 140.625,
      "v": 100
    },
    {
      "midi": 40,
      "hit": false,
      "t": 74625,
      "d": 0.78125,
      "v": 100
    },
    {
      "midi": 74,
      "hit": false,
      "t": 74625,
      "d": 187.5,
      "v": 100
    },
    {
      "midi": 61,
      "hit": false,
      "t": 74625,
      "d": 93.75,
      "v": 100
    },
    {
      "midi": 61,
      "hit": false,
      "t": 74718.75,
      "d": 187.5,
      "v": 100
    },
    {
      "midi": 61,
      "hit": false,
      "t": 74718.75,
      "d": 187.5,
      "v": 100
    },
    {
      "midi": 76,
      "hit": false,
      "t": 74812.5,
      "d": 187.5,
      "v": 100
    },
    {
      "midi": 42,
      "hit": false,
      "t": 74812.5,
      "d": 140.625,
      "v": 100
    },
    {
      "midi": 76,
      "hit": false,
      "t": 74812.5,
      "d": 187.5,
      "v": 100
    },
    {
      "midi": 61,
      "hit": false,
      "t": 74906.25,
      "d": 93.75,
      "v": 100
    },
    {
      "midi": 61,
      "hit": false,
      "t": 74906.25,
      "d": 93.75,
      "v": 100
    },
    {
      "midi": 81,
      "hit": false,
      "t": 75000,
      "d": 515.625,
      "v": 100
    },
    {
      "midi": 64,
      "hit": false,
      "t": 75000,
      "d": 93.75,
      "v": 100
    },
    {
      "midi": 52,
      "hit": false,
      "t": 75000,
      "d": 93.75,
      "v": 100
    },
    {
      "midi": 49,
      "hit": false,
      "t": 75000,
      "d": 93.75,
      "v": 100
    },
    {
      "midi": 43,
      "hit": false,
      "t": 75000,
      "d": 140.625,
      "v": 100
    },
    {
      "midi": 36,
      "hit": false,
      "t": 75000,
      "d": 0.78125,
      "v": 100
    },
    {
      "midi": 88,
      "hit": false,
      "t": 75000,
      "d": 187.5,
      "v": 100
    },
    {
      "midi": 81,
      "hit": false,
      "t": 75000,
      "d": 515.625,
      "v": 100
    },
    {
      "midi": 64,
      "hit": false,
      "t": 75000,
      "d": 93.75,
      "v": 100
    },
    {
      "midi": 52,
      "hit": false,
      "t": 75000,
      "d": 93.75,
      "v": 100
    },
    {
      "midi": 49,
      "hit": false,
      "t": 75000,
      "d": 93.75,
      "v": 100
    },
    {
      "midi": 64,
      "hit": false,
      "t": 75093.75,
      "d": 187.5,
      "v": 100
    },
    {
      "midi": 64,
      "hit": false,
      "t": 75093.75,
      "d": 187.5,
      "v": 100
    },
    {
      "midi": 43,
      "hit": false,
      "t": 75187.5,
      "d": 140.625,
      "v": 100
    },
    {
      "midi": 36,
      "hit": false,
      "t": 75187.5,
      "d": 0.78125,
      "v": 100
    },
    {
      "midi": 64,
      "hit": false,
      "t": 75281.25,
      "d": 93.75,
      "v": 100
    },
    {
      "midi": 64,
      "hit": false,
      "t": 75281.25,
      "d": 93.75,
      "v": 100
    },
    {
      "midi": 64,
      "hit": false,
      "t": 75375,
      "d": 93.75,
      "v": 100
    },
    {
      "midi": 45,
      "hit": false,
      "t": 75375,
      "d": 140.625,
      "v": 100
    },
    {
      "midi": 40,
      "hit": false,
      "t": 75375,
      "d": 0.78125,
      "v": 100
    },
    {
      "midi": 64,
      "hit": false,
      "t": 75375,
      "d": 93.75,
      "v": 100
    },
    {
      "midi": 64,
      "hit": false,
      "t": 75468.75,
      "d": 187.5,
      "v": 100
    },
    {
      "midi": 64,
      "hit": false,
      "t": 75468.75,
      "d": 187.5,
      "v": 100
    },
    {
      "midi": 81,
      "hit": false,
      "t": 75562.5,
      "d": 187.5,
      "v": 100
    },
    {
      "midi": 52,
      "hit": false,
      "t": 75562.5,
      "d": 93.75,
      "v": 100
    },
    {
      "midi": 49,
      "hit": false,
      "t": 75562.5,
      "d": 93.75,
      "v": 100
    },
    {
      "midi": 43,
      "hit": false,
      "t": 75562.5,
      "d": 140.625,
      "v": 100
    },
    {
      "midi": 81,
      "hit": false,
      "t": 75562.5,
      "d": 187.5,
      "v": 100
    },
    {
      "midi": 52,
      "hit": false,
      "t": 75562.5,
      "d": 93.75,
      "v": 100
    },
    {
      "midi": 49,
      "hit": false,
      "t": 75562.5,
      "d": 93.75,
      "v": 100
    },
    {
      "midi": 64,
      "hit": false,
      "t": 75656.25,
      "d": 93.75,
      "v": 100
    },
    {
      "midi": 38,
      "hit": false,
      "t": 75656.25,
      "d": 0.78125,
      "v": 100
    },
    {
      "midi": 64,
      "hit": false,
      "t": 75656.25,
      "d": 93.75,
      "v": 100
    },
    {
      "midi": 79,
      "hit": false,
      "t": 75750,
      "d": 187.5,
      "v": 100
    },
    {
      "midi": 64,
      "hit": false,
      "t": 75750,
      "d": 93.75,
      "v": 100
    },
    {
      "midi": 45,
      "hit": false,
      "t": 75750,
      "d": 140.625,
      "v": 100
    },
    {
      "midi": 36,
      "hit": false,
      "t": 75750,
      "d": 0.78125,
      "v": 100
    },
    {
      "midi": 79,
      "hit": false,
      "t": 75750,
      "d": 187.5,
      "v": 100
    },
    {
      "midi": 64,
      "hit": false,
      "t": 75750,
      "d": 93.75,
      "v": 100
    },
    {
      "midi": 64,
      "hit": false,
      "t": 75843.75,
      "d": 187.5,
      "v": 100
    },
    {
      "midi": 38,
      "hit": false,
      "t": 75843.75,
      "d": 0.78125,
      "v": 100
    },
    {
      "midi": 64,
      "hit": false,
      "t": 75843.75,
      "d": 187.5,
      "v": 100
    },
    {
      "midi": 78,
      "hit": false,
      "t": 75937.5,
      "d": 375,
      "v": 100
    },
    {
      "midi": 52,
      "hit": false,
      "t": 75937.5,
      "d": 187.5,
      "v": 100
    },
    {
      "midi": 49,
      "hit": false,
      "t": 75937.5,
      "d": 187.5,
      "v": 100
    },
    {
      "midi": 47,
      "hit": false,
      "t": 75937.5,
      "d": 140.625,
      "v": 100
    },
    {
      "midi": 36,
      "hit": false,
      "t": 75937.5,
      "d": 0.78125,
      "v": 100
    },
    {
      "midi": 78,
      "hit": false,
      "t": 75937.5,
      "d": 375,
      "v": 100
    },
    {
      "midi": 52,
      "hit": false,
      "t": 75937.5,
      "d": 187.5,
      "v": 100
    },
    {
      "midi": 49,
      "hit": false,
      "t": 75937.5,
      "d": 187.5,
      "v": 100
    },
    {
      "midi": 64,
      "hit": false,
      "t": 76031.25,
      "d": 93.75,
      "v": 100
    },
    {
      "midi": 64,
      "hit": false,
      "t": 76031.25,
      "d": 93.75,
      "v": 100
    },
    {
      "midi": 64,
      "hit": false,
      "t": 76125,
      "d": 93.75,
      "v": 100
    },
    {
      "midi": 45,
      "hit": false,
      "t": 76125,
      "d": 140.625,
      "v": 100
    },
    {
      "midi": 40,
      "hit": false,
      "t": 76125,
      "d": 0.78125,
      "v": 100
    },
    {
      "midi": 64,
      "hit": false,
      "t": 76125,
      "d": 93.75,
      "v": 100
    },
    {
      "midi": 64,
      "hit": false,
      "t": 76218.75,
      "d": 187.5,
      "v": 100
    },
    {
      "midi": 64,
      "hit": false,
      "t": 76218.75,
      "d": 187.5,
      "v": 100
    },
    {
      "midi": 74,
      "hit": false,
      "t": 76312.5,
      "d": 656.25,
      "v": 100
    },
    {
      "midi": 43,
      "hit": false,
      "t": 76312.5,
      "d": 140.625,
      "v": 100
    },
    {
      "midi": 74,
      "hit": false,
      "t": 76312.5,
      "d": 656.25,
      "v": 100
    },
    {
      "midi": 64,
      "hit": false,
      "t": 76406.25,
      "d": 93.75,
      "v": 100
    },
    {
      "midi": 64,
      "hit": false,
      "t": 76406.25,
      "d": 93.75,
      "v": 100
    },
    {
      "midi": 64,
      "hit": false,
      "t": 76500,
      "d": 93.75,
      "v": 100
    },
    {
      "midi": 52,
      "hit": false,
      "t": 76500,
      "d": 93.75,
      "v": 100
    },
    {
      "midi": 49,
      "hit": false,
      "t": 76500,
      "d": 93.75,
      "v": 100
    },
    {
      "midi": 43,
      "hit": false,
      "t": 76500,
      "d": 140.625,
      "v": 100
    },
    {
      "midi": 36,
      "hit": false,
      "t": 76500,
      "d": 0.78125,
      "v": 100
    },
    {
      "midi": 64,
      "hit": false,
      "t": 76500,
      "d": 93.75,
      "v": 100
    },
    {
      "midi": 52,
      "hit": false,
      "t": 76500,
      "d": 93.75,
      "v": 100
    },
    {
      "midi": 49,
      "hit": false,
      "t": 76500,
      "d": 93.75,
      "v": 100
    },
    {
      "midi": 64,
      "hit": false,
      "t": 76593.75,
      "d": 187.5,
      "v": 100
    },
    {
      "midi": 64,
      "hit": false,
      "t": 76593.75,
      "d": 187.5,
      "v": 100
    },
    {
      "midi": 43,
      "hit": false,
      "t": 76687.5,
      "d": 515.625,
      "v": 100
    },
    {
      "midi": 36,
      "hit": false,
      "t": 76687.5,
      "d": 0.78125,
      "v": 100
    },
    {
      "midi": 64,
      "hit": false,
      "t": 76781.25,
      "d": 93.75,
      "v": 100
    },
    {
      "midi": 64,
      "hit": false,
      "t": 76781.25,
      "d": 93.75,
      "v": 100
    },
    {
      "midi": 64,
      "hit": false,
      "t": 76875,
      "d": 93.75,
      "v": 100
    },
    {
      "midi": 40,
      "hit": false,
      "t": 76875,
      "d": 0.78125,
      "v": 100
    },
    {
      "midi": 64,
      "hit": false,
      "t": 76875,
      "d": 93.75,
      "v": 100
    },
    {
      "midi": 64,
      "hit": false,
      "t": 76968.75,
      "d": 187.5,
      "v": 100
    },
    {
      "midi": 64,
      "hit": false,
      "t": 76968.75,
      "d": 187.5,
      "v": 100
    },
    {
      "midi": 74,
      "hit": false,
      "t": 77062.5,
      "d": 140.625,
      "v": 100
    },
    {
      "midi": 74,
      "hit": false,
      "t": 77062.5,
      "d": 375,
      "v": 100
    },
    {
      "midi": 52,
      "hit": false,
      "t": 77062.5,
      "d": 93.75,
      "v": 100
    },
    {
      "midi": 49,
      "hit": false,
      "t": 77062.5,
      "d": 93.75,
      "v": 100
    },
    {
      "midi": 74,
      "hit": false,
      "t": 77062.5,
      "d": 140.625,
      "v": 100
    },
    {
      "midi": 74,
      "hit": false,
      "t": 77062.5,
      "d": 140.625,
      "v": 100
    },
    {
      "midi": 74,
      "hit": false,
      "t": 77062.5,
      "d": 375,
      "v": 100
    },
    {
      "midi": 52,
      "hit": false,
      "t": 77062.5,
      "d": 93.75,
      "v": 100
    },
    {
      "midi": 49,
      "hit": false,
      "t": 77062.5,
      "d": 93.75,
      "v": 100
    },
    {
      "midi": 64,
      "hit": false,
      "t": 77156.25,
      "d": 93.75,
      "v": 100
    },
    {
      "midi": 38,
      "hit": false,
      "t": 77156.25,
      "d": 0.78125,
      "v": 100
    },
    {
      "midi": 64,
      "hit": false,
      "t": 77156.25,
      "d": 93.75,
      "v": 100
    },
    {
      "midi": 74,
      "hit": false,
      "t": 77250,
      "d": 375,
      "v": 100
    },
    {
      "midi": 64,
      "hit": false,
      "t": 77250,
      "d": 93.75,
      "v": 100
    },
    {
      "midi": 43,
      "hit": false,
      "t": 77250,
      "d": 140.625,
      "v": 100
    },
    {
      "midi": 74,
      "hit": false,
      "t": 77250,
      "d": 375,
      "v": 100
    },
    {
      "midi": 36,
      "hit": false,
      "t": 77250,
      "d": 0.78125,
      "v": 100
    },
    {
      "midi": 88,
      "hit": false,
      "t": 77250,
      "d": 187.5,
      "v": 100
    },
    {
      "midi": 74,
      "hit": false,
      "t": 77250,
      "d": 375,
      "v": 100
    },
    {
      "midi": 64,
      "hit": false,
      "t": 77250,
      "d": 93.75,
      "v": 100
    },
    {
      "midi": 64,
      "hit": false,
      "t": 77343.75,
      "d": 187.5,
      "v": 100
    },
    {
      "midi": 38,
      "hit": false,
      "t": 77343.75,
      "d": 0.78125,
      "v": 100
    },
    {
      "midi": 64,
      "hit": false,
      "t": 77343.75,
      "d": 187.5,
      "v": 100
    },
    {
      "midi": 73,
      "hit": false,
      "t": 77437.5,
      "d": 2062.5,
      "v": 100
    },
    {
      "midi": 52,
      "hit": false,
      "t": 77437.5,
      "d": 187.5,
      "v": 100
    },
    {
      "midi": 49,
      "hit": false,
      "t": 77437.5,
      "d": 187.5,
      "v": 100
    },
    {
      "midi": 43,
      "hit": false,
      "t": 77437.5,
      "d": 515.625,
      "v": 100
    },
    {
      "midi": 36,
      "hit": false,
      "t": 77437.5,
      "d": 0.78125,
      "v": 100
    },
    {
      "midi": 86,
      "hit": false,
      "t": 77437.5,
      "d": 187.5,
      "v": 100
    },
    {
      "midi": 73,
      "hit": false,
      "t": 77437.5,
      "d": 2062.5,
      "v": 100
    },
    {
      "midi": 52,
      "hit": false,
      "t": 77437.5,
      "d": 187.5,
      "v": 100
    },
    {
      "midi": 49,
      "hit": false,
      "t": 77437.5,
      "d": 187.5,
      "v": 100
    },
    {
      "midi": 64,
      "hit": false,
      "t": 77531.25,
      "d": 93.75,
      "v": 100
    },
    {
      "midi": 64,
      "hit": false,
      "t": 77531.25,
      "d": 93.75,
      "v": 100
    },
    {
      "midi": 76,
      "hit": false,
      "t": 77625,
      "d": 187.5,
      "v": 100
    },
    {
      "midi": 64,
      "hit": false,
      "t": 77625,
      "d": 93.75,
      "v": 100
    },
    {
      "midi": 74,
      "hit": false,
      "t": 77625,
      "d": 187.5,
      "v": 100
    },
    {
      "midi": 40,
      "hit": false,
      "t": 77625,
      "d": 0.78125,
      "v": 100
    },
    {
      "midi": 55,
      "hit": false,
      "t": 77625,
      "d": 0.78125,
      "v": 100
    },
    {
      "midi": 85,
      "hit": false,
      "t": 77625,
      "d": 187.5,
      "v": 100
    },
    {
      "midi": 76,
      "hit": false,
      "t": 77625,
      "d": 187.5,
      "v": 100
    },
    {
      "midi": 64,
      "hit": false,
      "t": 77625,
      "d": 93.75,
      "v": 100
    },
    {
      "midi": 64,
      "hit": false,
      "t": 77718.75,
      "d": 187.5,
      "v": 100
    },
    {
      "midi": 64,
      "hit": false,
      "t": 77718.75,
      "d": 187.5,
      "v": 100
    },
    {
      "midi": 78,
      "hit": false,
      "t": 77812.5,
      "d": 140.625,
      "v": 100
    },
    {
      "midi": 74,
      "hit": false,
      "t": 77812.5,
      "d": 140.625,
      "v": 100
    },
    {
      "midi": 83,
      "hit": false,
      "t": 77812.5,
      "d": 187.5,
      "v": 100
    },
    {
      "midi": 78,
      "hit": false,
      "t": 77812.5,
      "d": 140.625,
      "v": 100
    },
    {
      "midi": 64,
      "hit": false,
      "t": 77906.25,
      "d": 93.75,
      "v": 100
    },
    {
      "midi": 64,
      "hit": false,
      "t": 77906.25,
      "d": 93.75,
      "v": 100
    },
    {
      "midi": 78,
      "hit": false,
      "t": 78000,
      "d": 890.625,
      "v": 100
    },
    {
      "midi": 64,
      "hit": false,
      "t": 78000,
      "d": 93.75,
      "v": 100
    },
    {
      "midi": 52,
      "hit": false,
      "t": 78000,
      "d": 93.75,
      "v": 100
    },
    {
      "midi": 49,
      "hit": false,
      "t": 78000,
      "d": 93.75,
      "v": 100
    },
    {
      "midi": 42,
      "hit": false,
      "t": 78000,
      "d": 1453.125,
      "v": 100
    },
    {
      "midi": 74,
      "hit": false,
      "t": 78000,
      "d": 890.625,
      "v": 100
    },
    {
      "midi": 36,
      "hit": false,
      "t": 78000,
      "d": 0.78125,
      "v": 100
    },
    {
      "midi": 55,
      "hit": false,
      "t": 78000,
      "d": 0.78125,
      "v": 100
    },
    {
      "midi": 81,
      "hit": false,
      "t": 78000,
      "d": 187.5,
      "v": 100
    },
    {
      "midi": 78,
      "hit": false,
      "t": 78000,
      "d": 890.625,
      "v": 100
    },
    {
      "midi": 64,
      "hit": false,
      "t": 78000,
      "d": 93.75,
      "v": 100
    },
    {
      "midi": 52,
      "hit": false,
      "t": 78000,
      "d": 93.75,
      "v": 100
    },
    {
      "midi": 49,
      "hit": false,
      "t": 78000,
      "d": 93.75,
      "v": 100
    },
    {
      "midi": 64,
      "hit": false,
      "t": 78093.75,
      "d": 187.5,
      "v": 100
    },
    {
      "midi": 64,
      "hit": false,
      "t": 78093.75,
      "d": 187.5,
      "v": 100
    },
    {
      "midi": 36,
      "hit": false,
      "t": 78187.5,
      "d": 0.78125,
      "v": 100
    },
    {
      "midi": 79,
      "hit": false,
      "t": 78187.5,
      "d": 187.5,
      "v": 100
    },
    {
      "midi": 64,
      "hit": false,
      "t": 78281.25,
      "d": 93.75,
      "v": 100
    },
    {
      "midi": 64,
      "hit": false,
      "t": 78281.25,
      "d": 93.75,
      "v": 100
    },
    {
      "midi": 64,
      "hit": false,
      "t": 78375,
      "d": 93.75,
      "v": 100
    },
    {
      "midi": 40,
      "hit": false,
      "t": 78375,
      "d": 0.78125,
      "v": 100
    },
    {
      "midi": 64,
      "hit": false,
      "t": 78375,
      "d": 93.75,
      "v": 100
    },
    {
      "midi": 64,
      "hit": false,
      "t": 78468.75,
      "d": 187.5,
      "v": 100
    },
    {
      "midi": 64,
      "hit": false,
      "t": 78468.75,
      "d": 187.5,
      "v": 100
    },
    {
      "midi": 52,
      "hit": false,
      "t": 78562.5,
      "d": 93.75,
      "v": 100
    },
    {
      "midi": 49,
      "hit": false,
      "t": 78562.5,
      "d": 93.75,
      "v": 100
    },
    {
      "midi": 52,
      "hit": false,
      "t": 78562.5,
      "d": 93.75,
      "v": 100
    },
    {
      "midi": 49,
      "hit": false,
      "t": 78562.5,
      "d": 93.75,
      "v": 100
    },
    {
      "midi": 64,
      "hit": false,
      "t": 78656.25,
      "d": 93.75,
      "v": 100
    },
    {
      "midi": 38,
      "hit": false,
      "t": 78656.25,
      "d": 0.78125,
      "v": 100
    },
    {
      "midi": 64,
      "hit": false,
      "t": 78656.25,
      "d": 93.75,
      "v": 100
    },
    {
      "midi": 64,
      "hit": false,
      "t": 78750,
      "d": 93.75,
      "v": 100
    },
    {
      "midi": 36,
      "hit": false,
      "t": 78750,
      "d": 0.78125,
      "v": 100
    },
    {
      "midi": 64,
      "hit": false,
      "t": 78750,
      "d": 93.75,
      "v": 100
    },
    {
      "midi": 64,
      "hit": false,
      "t": 78843.75,
      "d": 187.5,
      "v": 100
    },
    {
      "midi": 38,
      "hit": false,
      "t": 78843.75,
      "d": 0.78125,
      "v": 100
    },
    {
      "midi": 64,
      "hit": false,
      "t": 78843.75,
      "d": 187.5,
      "v": 100
    },
    {
      "midi": 78,
      "hit": false,
      "t": 78937.5,
      "d": 140.625,
      "v": 100
    },
    {
      "midi": 49,
      "hit": false,
      "t": 78937.5,
      "d": 93.75,
      "v": 100
    },
    {
      "midi": 52,
      "hit": false,
      "t": 78937.5,
      "d": 93.75,
      "v": 100
    },
    {
      "midi": 36,
      "hit": false,
      "t": 78937.5,
      "d": 0.78125,
      "v": 100
    },
    {
      "midi": 78,
      "hit": false,
      "t": 78937.5,
      "d": 140.625,
      "v": 100
    },
    {
      "midi": 49,
      "hit": false,
      "t": 78937.5,
      "d": 93.75,
      "v": 100
    },
    {
      "midi": 52,
      "hit": false,
      "t": 78937.5,
      "d": 93.75,
      "v": 100
    },
    {
      "midi": 64,
      "hit": false,
      "t": 79031.25,
      "d": 93.75,
      "v": 100
    },
    {
      "midi": 64,
      "hit": false,
      "t": 79031.25,
      "d": 93.75,
      "v": 100
    },
    {
      "midi": 78,
      "hit": false,
      "t": 79125,
      "d": 140.625,
      "v": 100
    },
    {
      "midi": 64,
      "hit": false,
      "t": 79125,
      "d": 93.75,
      "v": 100
    },
    {
      "midi": 52,
      "hit": false,
      "t": 79125,
      "d": 93.75,
      "v": 100
    },
    {
      "midi": 49,
      "hit": false,
      "t": 79125,
      "d": 93.75,
      "v": 100
    },
    {
      "midi": 40,
      "hit": false,
      "t": 79125,
      "d": 0.78125,
      "v": 100
    },
    {
      "midi": 78,
      "hit": false,
      "t": 79125,
      "d": 140.625,
      "v": 100
    },
    {
      "midi": 64,
      "hit": false,
      "t": 79125,
      "d": 93.75,
      "v": 100
    },
    {
      "midi": 52,
      "hit": false,
      "t": 79125,
      "d": 93.75,
      "v": 100
    },
    {
      "midi": 49,
      "hit": false,
      "t": 79125,
      "d": 93.75,
      "v": 100
    },
    {
      "midi": 64,
      "hit": false,
      "t": 79218.75,
      "d": 187.5,
      "v": 100
    },
    {
      "midi": 64,
      "hit": false,
      "t": 79218.75,
      "d": 187.5,
      "v": 100
    },
    {
      "midi": 78,
      "hit": false,
      "t": 79312.5,
      "d": 187.5,
      "v": 100
    },
    {
      "midi": 78,
      "hit": false,
      "t": 79312.5,
      "d": 187.5,
      "v": 100
    },
    {
      "midi": 64,
      "hit": false,
      "t": 79406.25,
      "d": 93.75,
      "v": 100
    },
    {
      "midi": 64,
      "hit": false,
      "t": 79406.25,
      "d": 93.75,
      "v": 100
    },
    {
      "midi": 79,
      "hit": false,
      "t": 79500,
      "d": 375,
      "v": 100
    },
    {
      "midi": 62,
      "hit": false,
      "t": 79500,
      "d": 93.75,
      "v": 100
    },
    {
      "midi": 49,
      "hit": false,
      "t": 79500,
      "d": 93.75,
      "v": 100
    },
    {
      "midi": 45,
      "hit": false,
      "t": 79500,
      "d": 93.75,
      "v": 100
    },
    {
      "midi": 50,
      "hit": false,
      "t": 79500,
      "d": 1453.125,
      "v": 100
    },
    {
      "midi": 79,
      "hit": false,
      "t": 79500,
      "d": 750,
      "v": 100
    },
    {
      "midi": 36,
      "hit": false,
      "t": 79500,
      "d": 0.78125,
      "v": 100
    },
    {
      "midi": 88,
      "hit": false,
      "t": 79500,
      "d": 187.5,
      "v": 100
    },
    {
      "midi": 79,
      "hit": false,
      "t": 79500,
      "d": 375,
      "v": 100
    },
    {
      "midi": 62,
      "hit": false,
      "t": 79500,
      "d": 93.75,
      "v": 100
    },
    {
      "midi": 49,
      "hit": false,
      "t": 79500,
      "d": 93.75,
      "v": 100
    },
    {
      "midi": 45,
      "hit": false,
      "t": 79500,
      "d": 93.75,
      "v": 100
    },
    {
      "midi": 62,
      "hit": false,
      "t": 79593.75,
      "d": 187.5,
      "v": 100
    },
    {
      "midi": 62,
      "hit": false,
      "t": 79593.75,
      "d": 187.5,
      "v": 100
    },
    {
      "midi": 36,
      "hit": false,
      "t": 79687.5,
      "d": 0.78125,
      "v": 100
    },
    {
      "midi": 62,
      "hit": false,
      "t": 79781.25,
      "d": 93.75,
      "v": 100
    },
    {
      "midi": 62,
      "hit": false,
      "t": 79781.25,
      "d": 93.75,
      "v": 100
    },
    {
      "midi": 81,
      "hit": false,
      "t": 79875,
      "d": 187.5,
      "v": 100
    },
    {
      "midi": 61,
      "hit": false,
      "t": 79875,
      "d": 93.75,
      "v": 100
    },
    {
      "midi": 40,
      "hit": false,
      "t": 79875,
      "d": 0.78125,
      "v": 100
    },
    {
      "midi": 81,
      "hit": false,
      "t": 79875,
      "d": 187.5,
      "v": 100
    },
    {
      "midi": 61,
      "hit": false,
      "t": 79875,
      "d": 93.75,
      "v": 100
    },
    {
      "midi": 61,
      "hit": false,
      "t": 79968.75,
      "d": 187.5,
      "v": 100
    },
    {
      "midi": 61,
      "hit": false,
      "t": 79968.75,
      "d": 187.5,
      "v": 100
    },
    {
      "midi": 79,
      "hit": false,
      "t": 80062.5,
      "d": 375,
      "v": 100
    },
    {
      "midi": 49,
      "hit": false,
      "t": 80062.5,
      "d": 93.75,
      "v": 100
    },
    {
      "midi": 45,
      "hit": false,
      "t": 80062.5,
      "d": 93.75,
      "v": 100
    },
    {
      "midi": 90,
      "hit": false,
      "t": 80062.5,
      "d": 187.5,
      "v": 100
    },
    {
      "midi": 79,
      "hit": false,
      "t": 80062.5,
      "d": 375,
      "v": 100
    },
    {
      "midi": 49,
      "hit": false,
      "t": 80062.5,
      "d": 93.75,
      "v": 100
    },
    {
      "midi": 45,
      "hit": false,
      "t": 80062.5,
      "d": 93.75,
      "v": 100
    },
    {
      "midi": 61,
      "hit": false,
      "t": 80156.25,
      "d": 93.75,
      "v": 100
    },
    {
      "midi": 61,
      "hit": false,
      "t": 80156.25,
      "d": 93.75,
      "v": 100
    },
    {
      "midi": 78,
      "hit": false,
      "t": 80250,
      "d": 750,
      "v": 100
    },
    {
      "midi": 61,
      "hit": false,
      "t": 80250,
      "d": 93.75,
      "v": 100
    },
    {
      "midi": 78,
      "hit": false,
      "t": 80250,
      "d": 750,
      "v": 100
    },
    {
      "midi": 36,
      "hit": false,
      "t": 80250,
      "d": 0.78125,
      "v": 100
    },
    {
      "midi": 40,
      "hit": false,
      "t": 80250,
      "d": 0.78125,
      "v": 100
    },
    {
      "midi": 78,
      "hit": false,
      "t": 80250,
      "d": 750,
      "v": 100
    },
    {
      "midi": 61,
      "hit": false,
      "t": 80250,
      "d": 93.75,
      "v": 100
    },
    {
      "midi": 61,
      "hit": false,
      "t": 80343.75,
      "d": 187.5,
      "v": 100
    },
    {
      "midi": 40,
      "hit": false,
      "t": 80343.75,
      "d": 0.78125,
      "v": 100
    },
    {
      "midi": 61,
      "hit": false,
      "t": 80343.75,
      "d": 187.5,
      "v": 100
    },
    {
      "midi": 78,
      "hit": false,
      "t": 80437.5,
      "d": 187.5,
      "v": 100
    },
    {
      "midi": 49,
      "hit": false,
      "t": 80437.5,
      "d": 187.5,
      "v": 100
    },
    {
      "midi": 45,
      "hit": false,
      "t": 80437.5,
      "d": 187.5,
      "v": 100
    },
    {
      "midi": 38,
      "hit": false,
      "t": 80437.5,
      "d": 0.78125,
      "v": 100
    },
    {
      "midi": 78,
      "hit": false,
      "t": 80437.5,
      "d": 187.5,
      "v": 100
    },
    {
      "midi": 49,
      "hit": false,
      "t": 80437.5,
      "d": 187.5,
      "v": 100
    },
    {
      "midi": 45,
      "hit": false,
      "t": 80437.5,
      "d": 187.5,
      "v": 100
    },
    {
      "midi": 61,
      "hit": false,
      "t": 80531.25,
      "d": 93.75,
      "v": 100
    },
    {
      "midi": 61,
      "hit": false,
      "t": 80531.25,
      "d": 93.75,
      "v": 100
    },
    {
      "midi": 76,
      "hit": false,
      "t": 80625,
      "d": 187.5,
      "v": 100
    },
    {
      "midi": 61,
      "hit": false,
      "t": 80625,
      "d": 93.75,
      "v": 100
    },
    {
      "midi": 36,
      "hit": false,
      "t": 80625,
      "d": 0.78125,
      "v": 100
    },
    {
      "midi": 40,
      "hit": false,
      "t": 80625,
      "d": 0.78125,
      "v": 100
    },
    {
      "midi": 76,
      "hit": false,
      "t": 80625,
      "d": 187.5,
      "v": 100
    },
    {
      "midi": 61,
      "hit": false,
      "t": 80625,
      "d": 93.75,
      "v": 100
    },
    {
      "midi": 61,
      "hit": false,
      "t": 80718.75,
      "d": 187.5,
      "v": 100
    },
    {
      "midi": 40,
      "hit": false,
      "t": 80718.75,
      "d": 0.78125,
      "v": 100
    },
    {
      "midi": 61,
      "hit": false,
      "t": 80718.75,
      "d": 187.5,
      "v": 100
    },
    {
      "midi": 74,
      "hit": false,
      "t": 80812.5,
      "d": 187.5,
      "v": 100
    },
    {
      "midi": 38,
      "hit": false,
      "t": 80812.5,
      "d": 0.78125,
      "v": 100
    },
    {
      "midi": 74,
      "hit": false,
      "t": 80812.5,
      "d": 187.5,
      "v": 100
    },
    {
      "midi": 61,
      "hit": false,
      "t": 80906.25,
      "d": 93.75,
      "v": 100
    },
    {
      "midi": 61,
      "hit": false,
      "t": 80906.25,
      "d": 93.75,
      "v": 100
    },
    {
      "midi": 76,
      "hit": false,
      "t": 81000,
      "d": 1312.5,
      "v": 100
    },
    {
      "midi": 76,
      "hit": false,
      "t": 81000,
      "d": 3000,
      "v": 100
    },
    {
      "midi": 49,
      "hit": false,
      "t": 81000,
      "d": 187.5,
      "v": 100
    },
    {
      "midi": 45,
      "hit": false,
      "t": 81000,
      "d": 187.5,
      "v": 100
    },
    {
      "midi": 49,
      "hit": false,
      "t": 81000,
      "d": 1453.125,
      "v": 100
    },
    {
      "midi": 76,
      "hit": false,
      "t": 81000,
      "d": 3000,
      "v": 100
    },
    {
      "midi": 76,
      "hit": false,
      "t": 81000,
      "d": 187.5,
      "v": 100
    },
    {
      "midi": 36,
      "hit": false,
      "t": 81000,
      "d": 0.78125,
      "v": 100
    },
    {
      "midi": 40,
      "hit": false,
      "t": 81000,
      "d": 0.78125,
      "v": 100
    },
    {
      "midi": 38,
      "hit": false,
      "t": 81000,
      "d": 0.78125,
      "v": 100
    },
    {
      "midi": 55,
      "hit": false,
      "t": 81000,
      "d": 0.78125,
      "v": 100
    },
    {
      "midi": 88,
      "hit": false,
      "t": 81000,
      "d": 187.5,
      "v": 100
    },
    {
      "midi": 76,
      "hit": false,
      "t": 81000,
      "d": 1312.5,
      "v": 100
    },
    {
      "midi": 76,
      "hit": false,
      "t": 81000,
      "d": 3000,
      "v": 100
    },
    {
      "midi": 49,
      "hit": false,
      "t": 81000,
      "d": 187.5,
      "v": 100
    },
    {
      "midi": 45,
      "hit": false,
      "t": 81000,
      "d": 187.5,
      "v": 100
    },
    {
      "midi": 74,
      "hit": false,
      "t": 81187.5,
      "d": 187.5,
      "v": 100
    },
    {
      "midi": 36,
      "hit": false,
      "t": 81187.5,
      "d": 0.78125,
      "v": 100
    },
    {
      "midi": 86,
      "hit": false,
      "t": 81187.5,
      "d": 187.5,
      "v": 100
    },
    {
      "midi": 73,
      "hit": false,
      "t": 81375,
      "d": 187.5,
      "v": 100
    },
    {
      "midi": 36,
      "hit": false,
      "t": 81375,
      "d": 0.78125,
      "v": 100
    },
    {
      "midi": 85,
      "hit": false,
      "t": 81375,
      "d": 187.5,
      "v": 100
    },
    {
      "midi": 49,
      "hit": false,
      "t": 81562.5,
      "d": 187.5,
      "v": 100
    },
    {
      "midi": 45,
      "hit": false,
      "t": 81562.5,
      "d": 187.5,
      "v": 100
    },
    {
      "midi": 76,
      "hit": false,
      "t": 81562.5,
      "d": 187.5,
      "v": 100
    },
    {
      "midi": 36,
      "hit": false,
      "t": 81562.5,
      "d": 0.78125,
      "v": 100
    },
    {
      "midi": 40,
      "hit": false,
      "t": 81562.5,
      "d": 0.78125,
      "v": 100
    },
    {
      "midi": 38,
      "hit": false,
      "t": 81562.5,
      "d": 0.78125,
      "v": 100
    },
    {
      "midi": 55,
      "hit": false,
      "t": 81562.5,
      "d": 0.78125,
      "v": 100
    },
    {
      "midi": 88,
      "hit": false,
      "t": 81562.5,
      "d": 187.5,
      "v": 100
    },
    {
      "midi": 49,
      "hit": false,
      "t": 81562.5,
      "d": 187.5,
      "v": 100
    },
    {
      "midi": 45,
      "hit": false,
      "t": 81562.5,
      "d": 187.5,
      "v": 100
    },
    {
      "midi": 74,
      "hit": false,
      "t": 81750,
      "d": 187.5,
      "v": 100
    },
    {
      "midi": 36,
      "hit": false,
      "t": 81750,
      "d": 0.78125,
      "v": 100
    },
    {
      "midi": 86,
      "hit": false,
      "t": 81750,
      "d": 187.5,
      "v": 100
    },
    {
      "midi": 73,
      "hit": false,
      "t": 81937.5,
      "d": 187.5,
      "v": 100
    },
    {
      "midi": 36,
      "hit": false,
      "t": 81937.5,
      "d": 0.78125,
      "v": 100
    },
    {
      "midi": 85,
      "hit": false,
      "t": 81937.5,
      "d": 187.5,
      "v": 100
    },
    {
      "midi": 49,
      "hit": false,
      "t": 82125,
      "d": 1687.5,
      "v": 100
    },
    {
      "midi": 45,
      "hit": false,
      "t": 82125,
      "d": 1687.5,
      "v": 100
    },
    {
      "midi": 76,
      "hit": false,
      "t": 82125,
      "d": 187.5,
      "v": 100
    },
    {
      "midi": 36,
      "hit": false,
      "t": 82125,
      "d": 0.78125,
      "v": 100
    },
    {
      "midi": 40,
      "hit": false,
      "t": 82125,
      "d": 0.78125,
      "v": 100
    },
    {
      "midi": 38,
      "hit": false,
      "t": 82125,
      "d": 0.78125,
      "v": 100
    },
    {
      "midi": 55,
      "hit": false,
      "t": 82125,
      "d": 0.78125,
      "v": 100
    },
    {
      "midi": 88,
      "hit": false,
      "t": 82125,
      "d": 187.5,
      "v": 100
    },
    {
      "midi": 49,
      "hit": false,
      "t": 82125,
      "d": 1687.5,
      "v": 100
    },
    {
      "midi": 45,
      "hit": false,
      "t": 82125,
      "d": 1687.5,
      "v": 100
    },
    {
      "midi": 74,
      "hit": false,
      "t": 82312.5,
      "d": 187.5,
      "v": 100
    },
    {
      "midi": 36,
      "hit": false,
      "t": 82312.5,
      "d": 0.78125,
      "v": 100
    },
    {
      "midi": 86,
      "hit": false,
      "t": 82312.5,
      "d": 187.5,
      "v": 100
    },
    {
      "midi": 49,
      "hit": false,
      "t": 82500,
      "d": 1500,
      "v": 100
    },
    {
      "midi": 73,
      "hit": false,
      "t": 82500,
      "d": 187.5,
      "v": 100
    },
    {
      "midi": 36,
      "hit": false,
      "t": 82500,
      "d": 0.78125,
      "v": 100
    },
    {
      "midi": 40,
      "hit": false,
      "t": 82500,
      "d": 0.78125,
      "v": 100
    },
    {
      "midi": 38,
      "hit": false,
      "t": 82500,
      "d": 0.78125,
      "v": 100
    },
    {
      "midi": 49,
      "hit": false,
      "t": 82500,
      "d": 0.78125,
      "v": 100
    },
    {
      "midi": 85,
      "hit": false,
      "t": 82500,
      "d": 187.5,
      "v": 100
    },
    {
      "midi": 79,
      "hit": false,
      "t": 82875,
      "d": 375,
      "v": 100
    },
    {
      "midi": 79,
      "hit": false,
      "t": 82875,
      "d": 375,
      "v": 100
    },
    {
      "midi": 78,
      "hit": false,
      "t": 83250,
      "d": 375,
      "v": 100
    },
    {
      "midi": 45,
      "hit": false,
      "t": 83250,
      "d": 0.78125,
      "v": 100
    },
    {
      "midi": 78,
      "hit": false,
      "t": 83250,
      "d": 375,
      "v": 100
    },
    {
      "midi": 45,
      "hit": false,
      "t": 83343.75,
      "d": 0.78125,
      "v": 100
    },
    {
      "midi": 45,
      "hit": false,
      "t": 83531.25,
      "d": 0.78125,
      "v": 100
    },
    {
      "midi": 76,
      "hit": false,
      "t": 83625,
      "d": 187.5,
      "v": 100
    },
    {
      "midi": 48,
      "hit": false,
      "t": 83625,
      "d": 0.78125,
      "v": 100
    },
    {
      "midi": 76,
      "hit": false,
      "t": 83625,
      "d": 187.5,
      "v": 100
    },
    {
      "midi": 47,
      "hit": false,
      "t": 83718.75,
      "d": 0.78125,
      "v": 100
    },
    {
      "midi": 74,
      "hit": false,
      "t": 83812.5,
      "d": 750,
      "v": 100
    },
    {
      "midi": 45,
      "hit": false,
      "t": 83812.5,
      "d": 0.78125,
      "v": 100
    },
    {
      "midi": 74,
      "hit": false,
      "t": 83812.5,
      "d": 750,
      "v": 100
    },
    {
      "midi": 47,
      "hit": false,
      "t": 83906.25,
      "d": 0.78125,
      "v": 100
    },
    {
      "midi": 62,
      "hit": false,
      "t": 84000,
      "d": 93.75,
      "v": 100
    },
    {
      "midi": 59,
      "hit": false,
      "t": 84000,
      "d": 93.75,
      "v": 100
    },
    {
      "midi": 50,
      "hit": false,
      "t": 84000,
      "d": 93.75,
      "v": 100
    },
    {
      "midi": 47,
      "hit": false,
      "t": 84000,
      "d": 93.75,
      "v": 100
    },
    {
      "midi": 36,
      "hit": false,
      "t": 84000,
      "d": 0.78125,
      "v": 100
    },
    {
      "midi": 40,
      "hit": false,
      "t": 84000,
      "d": 0.78125,
      "v": 100
    },
    {
      "midi": 38,
      "hit": false,
      "t": 84000,
      "d": 0.78125,
      "v": 100
    },
    {
      "midi": 55,
      "hit": false,
      "t": 84000,
      "d": 0.78125,
      "v": 100
    },
    {
      "midi": 62,
      "hit": false,
      "t": 84000,
      "d": 93.75,
      "v": 100
    },
    {
      "midi": 59,
      "hit": false,
      "t": 84000,
      "d": 93.75,
      "v": 100
    },
    {
      "midi": 61,
      "hit": false,
      "t": 84187.5,
      "d": 93.75,
      "v": 100
    },
    {
      "midi": 57,
      "hit": false,
      "t": 84187.5,
      "d": 93.75,
      "v": 100
    },
    {
      "midi": 49,
      "hit": false,
      "t": 84187.5,
      "d": 93.75,
      "v": 100
    },
    {
      "midi": 45,
      "hit": false,
      "t": 84187.5,
      "d": 93.75,
      "v": 100
    },
    {
      "midi": 36,
      "hit": false,
      "t": 84187.5,
      "d": 0.78125,
      "v": 100
    },
    {
      "midi": 61,
      "hit": false,
      "t": 84187.5,
      "d": 93.75,
      "v": 100
    },
    {
      "midi": 57,
      "hit": false,
      "t": 84187.5,
      "d": 93.75,
      "v": 100
    },
    {
      "midi": 61,
      "hit": false,
      "t": 84375,
      "d": 93.75,
      "v": 100
    },
    {
      "midi": 57,
      "hit": false,
      "t": 84375,
      "d": 93.75,
      "v": 100
    },
    {
      "midi": 49,
      "hit": false,
      "t": 84375,
      "d": 93.75,
      "v": 100
    },
    {
      "midi": 45,
      "hit": false,
      "t": 84375,
      "d": 93.75,
      "v": 100
    },
    {
      "midi": 61,
      "hit": false,
      "t": 84375,
      "d": 93.75,
      "v": 100
    },
    {
      "midi": 57,
      "hit": false,
      "t": 84375,
      "d": 93.75,
      "v": 100
    },
    {
      "midi": 62,
      "hit": false,
      "t": 84562.5,
      "d": 93.75,
      "v": 100
    },
    {
      "midi": 59,
      "hit": false,
      "t": 84562.5,
      "d": 93.75,
      "v": 100
    },
    {
      "midi": 50,
      "hit": false,
      "t": 84562.5,
      "d": 93.75,
      "v": 100
    },
    {
      "midi": 47,
      "hit": false,
      "t": 84562.5,
      "d": 93.75,
      "v": 100
    },
    {
      "midi": 36,
      "hit": false,
      "t": 84562.5,
      "d": 0.78125,
      "v": 100
    },
    {
      "midi": 40,
      "hit": false,
      "t": 84562.5,
      "d": 0.78125,
      "v": 100
    },
    {
      "midi": 38,
      "hit": false,
      "t": 84562.5,
      "d": 0.78125,
      "v": 100
    },
    {
      "midi": 55,
      "hit": false,
      "t": 84562.5,
      "d": 0.78125,
      "v": 100
    },
    {
      "midi": 62,
      "hit": false,
      "t": 84562.5,
      "d": 93.75,
      "v": 100
    },
    {
      "midi": 59,
      "hit": false,
      "t": 84562.5,
      "d": 93.75,
      "v": 100
    },
    {
      "midi": 61,
      "hit": false,
      "t": 84750,
      "d": 93.75,
      "v": 100
    },
    {
      "midi": 57,
      "hit": false,
      "t": 84750,
      "d": 93.75,
      "v": 100
    },
    {
      "midi": 49,
      "hit": false,
      "t": 84750,
      "d": 93.75,
      "v": 100
    },
    {
      "midi": 45,
      "hit": false,
      "t": 84750,
      "d": 93.75,
      "v": 100
    },
    {
      "midi": 36,
      "hit": false,
      "t": 84750,
      "d": 0.78125,
      "v": 100
    },
    {
      "midi": 61,
      "hit": false,
      "t": 84750,
      "d": 93.75,
      "v": 100
    },
    {
      "midi": 57,
      "hit": false,
      "t": 84750,
      "d": 93.75,
      "v": 100
    },
    {
      "midi": 61,
      "hit": false,
      "t": 84937.5,
      "d": 93.75,
      "v": 100
    },
    {
      "midi": 57,
      "hit": false,
      "t": 84937.5,
      "d": 93.75,
      "v": 100
    },
    {
      "midi": 49,
      "hit": false,
      "t": 84937.5,
      "d": 93.75,
      "v": 100
    },
    {
      "midi": 45,
      "hit": false,
      "t": 84937.5,
      "d": 93.75,
      "v": 100
    },
    {
      "midi": 61,
      "hit": false,
      "t": 84937.5,
      "d": 93.75,
      "v": 100
    },
    {
      "midi": 57,
      "hit": false,
      "t": 84937.5,
      "d": 93.75,
      "v": 100
    },
    {
      "midi": 62,
      "hit": false,
      "t": 85125,
      "d": 93.75,
      "v": 100
    },
    {
      "midi": 59,
      "hit": false,
      "t": 85125,
      "d": 93.75,
      "v": 100
    },
    {
      "midi": 50,
      "hit": false,
      "t": 85125,
      "d": 93.75,
      "v": 100
    },
    {
      "midi": 47,
      "hit": false,
      "t": 85125,
      "d": 93.75,
      "v": 100
    },
    {
      "midi": 36,
      "hit": false,
      "t": 85125,
      "d": 0.78125,
      "v": 100
    },
    {
      "midi": 40,
      "hit": false,
      "t": 85125,
      "d": 0.78125,
      "v": 100
    },
    {
      "midi": 38,
      "hit": false,
      "t": 85125,
      "d": 0.78125,
      "v": 100
    },
    {
      "midi": 55,
      "hit": false,
      "t": 85125,
      "d": 0.78125,
      "v": 100
    },
    {
      "midi": 62,
      "hit": false,
      "t": 85125,
      "d": 93.75,
      "v": 100
    },
    {
      "midi": 59,
      "hit": false,
      "t": 85125,
      "d": 93.75,
      "v": 100
    },
    {
      "midi": 61,
      "hit": false,
      "t": 85312.5,
      "d": 93.75,
      "v": 100
    },
    {
      "midi": 57,
      "hit": false,
      "t": 85312.5,
      "d": 93.75,
      "v": 100
    },
    {
      "midi": 49,
      "hit": false,
      "t": 85312.5,
      "d": 93.75,
      "v": 100
    },
    {
      "midi": 45,
      "hit": false,
      "t": 85312.5,
      "d": 93.75,
      "v": 100
    },
    {
      "midi": 61,
      "hit": false,
      "t": 85312.5,
      "d": 93.75,
      "v": 100
    },
    {
      "midi": 57,
      "hit": false,
      "t": 85312.5,
      "d": 93.75,
      "v": 100
    },
    {
      "midi": 62,
      "hit": false,
      "t": 85500,
      "d": 750,
      "v": 100
    },
    {
      "midi": 59,
      "hit": false,
      "t": 85500,
      "d": 750,
      "v": 100
    },
    {
      "midi": 50,
      "hit": false,
      "t": 85500,
      "d": 750,
      "v": 100
    },
    {
      "midi": 47,
      "hit": false,
      "t": 85500,
      "d": 750,
      "v": 100
    },
    {
      "midi": 36,
      "hit": false,
      "t": 85500,
      "d": 0.78125,
      "v": 100
    },
    {
      "midi": 40,
      "hit": false,
      "t": 85500,
      "d": 0.78125,
      "v": 100
    },
    {
      "midi": 38,
      "hit": false,
      "t": 85500,
      "d": 0.78125,
      "v": 100
    },
    {
      "midi": 55,
      "hit": false,
      "t": 85500,
      "d": 0.78125,
      "v": 100
    },
    {
      "midi": 62,
      "hit": false,
      "t": 85500,
      "d": 750,
      "v": 100
    },
    {
      "midi": 59,
      "hit": false,
      "t": 85500,
      "d": 750,
      "v": 100
    },
    {
      "midi": 50,
      "hit": false,
      "t": 85875,
      "d": 0.78125,
      "v": 100
    },
    {
      "midi": 48,
      "hit": false,
      "t": 85968.75,
      "d": 0.78125,
      "v": 100
    },
    {
      "midi": 47,
      "hit": false,
      "t": 86062.5,
      "d": 0.78125,
      "v": 100
    },
    {
      "midi": 45,
      "hit": false,
      "t": 86156.25,
      "d": 0.78125,
      "v": 100
    },
    {
      "midi": 43,
      "hit": false,
      "t": 86250,
      "d": 0.78125,
      "v": 100
    },
    {
      "midi": 41,
      "hit": false,
      "t": 86343.75,
      "d": 0.78125,
      "v": 100
    },
    {
      "midi": 49,
      "hit": false,
      "t": 86437.5,
      "d": 0.78125,
      "v": 100
    },
    {
      "midi": 40,
      "hit": false,
      "t": 86437.5,
      "d": 0.78125,
      "v": 100
    },
    {
      "midi": 38,
      "hit": false,
      "t": 86437.5,
      "d": 0.78125,
      "v": 100
    },
    {
      "midi": 36,
      "hit": false,
      "t": 86437.5,
      "d": 0.78125,
      "v": 100
    },
    {
      "midi": 69,
      "hit": false,
      "t": 87000,
      "d": 93.75,
      "v": 100
    },
    {
      "midi": 76,
      "hit": false,
      "t": 87000,
      "d": 1500,
      "v": 100
    },
    {
      "midi": 57,
      "hit": false,
      "t": 87000,
      "d": 46.875,
      "v": 100
    },
    {
      "midi": 57,
      "hit": false,
      "t": 87000,
      "d": 46.875,
      "v": 100
    },
    {
      "midi": 52,
      "hit": false,
      "t": 87000,
      "d": 140.625,
      "v": 100
    },
    {
      "midi": 69,
      "hit": false,
      "t": 87000,
      "d": 93.75,
      "v": 100
    },
    {
      "midi": 36,
      "hit": false,
      "t": 87000,
      "d": 0.78125,
      "v": 100
    },
    {
      "midi": 55,
      "hit": false,
      "t": 87000,
      "d": 0.78125,
      "v": 100
    },
    {
      "midi": 40,
      "hit": false,
      "t": 87000,
      "d": 0.78125,
      "v": 100
    },
    {
      "midi": 38,
      "hit": false,
      "t": 87000,
      "d": 0.78125,
      "v": 100
    },
    {
      "midi": 69,
      "hit": false,
      "t": 87000,
      "d": 93.75,
      "v": 100
    },
    {
      "midi": 76,
      "hit": false,
      "t": 87000,
      "d": 1500,
      "v": 100
    },
    {
      "midi": 57,
      "hit": false,
      "t": 87000,
      "d": 46.875,
      "v": 100
    },
    {
      "midi": 57,
      "hit": false,
      "t": 87000,
      "d": 46.875,
      "v": 100
    },
    {
      "midi": 61,
      "hit": false,
      "t": 87046.875,
      "d": 140.625,
      "v": 100
    },
    {
      "midi": 61,
      "hit": false,
      "t": 87046.875,
      "d": 140.625,
      "v": 100
    },
    {
      "midi": 61,
      "hit": false,
      "t": 87046.875,
      "d": 140.625,
      "v": 100
    },
    {
      "midi": 61,
      "hit": false,
      "t": 87046.875,
      "d": 140.625,
      "v": 100
    },
    {
      "midi": 64,
      "hit": false,
      "t": 87093.75,
      "d": 93.75,
      "v": 100
    },
    {
      "midi": 64,
      "hit": false,
      "t": 87093.75,
      "d": 93.75,
      "v": 100
    },
    {
      "midi": 64,
      "hit": false,
      "t": 87093.75,
      "d": 93.75,
      "v": 100
    },
    {
      "midi": 64,
      "hit": false,
      "t": 87093.75,
      "d": 93.75,
      "v": 100
    },
    {
      "midi": 69,
      "hit": false,
      "t": 87187.5,
      "d": 187.5,
      "v": 100
    },
    {
      "midi": 52,
      "hit": false,
      "t": 87187.5,
      "d": 468.75,
      "v": 100
    },
    {
      "midi": 69,
      "hit": false,
      "t": 87187.5,
      "d": 187.5,
      "v": 100
    },
    {
      "midi": 36,
      "hit": false,
      "t": 87187.5,
      "d": 0.78125,
      "v": 100
    },
    {
      "midi": 69,
      "hit": false,
      "t": 87187.5,
      "d": 187.5,
      "v": 100
    },
    {
      "midi": 74,
      "hit": false,
      "t": 87375,
      "d": 187.5,
      "v": 100
    },
    {
      "midi": 64,
      "hit": false,
      "t": 87375,
      "d": 93.75,
      "v": 100
    },
    {
      "midi": 61,
      "hit": false,
      "t": 87375,
      "d": 93.75,
      "v": 100
    },
    {
      "midi": 57,
      "hit": false,
      "t": 87375,
      "d": 46.875,
      "v": 100
    },
    {
      "midi": 69,
      "hit": false,
      "t": 87375,
      "d": 187.5,
      "v": 100
    },
    {
      "midi": 40,
      "hit": false,
      "t": 87375,
      "d": 0.78125,
      "v": 100
    },
    {
      "midi": 74,
      "hit": false,
      "t": 87375,
      "d": 187.5,
      "v": 100
    },
    {
      "midi": 64,
      "hit": false,
      "t": 87375,
      "d": 93.75,
      "v": 100
    },
    {
      "midi": 61,
      "hit": false,
      "t": 87375,
      "d": 93.75,
      "v": 100
    },
    {
      "midi": 57,
      "hit": false,
      "t": 87375,
      "d": 46.875,
      "v": 100
    },
    {
      "midi": 61,
      "hit": false,
      "t": 87421.875,
      "d": 140.625,
      "v": 100
    },
    {
      "midi": 61,
      "hit": false,
      "t": 87421.875,
      "d": 140.625,
      "v": 100
    },
    {
      "midi": 64,
      "hit": false,
      "t": 87468.75,
      "d": 93.75,
      "v": 100
    },
    {
      "midi": 64,
      "hit": false,
      "t": 87468.75,
      "d": 93.75,
      "v": 100
    },
    {
      "midi": 73,
      "hit": false,
      "t": 87562.5,
      "d": 375,
      "v": 100
    },
    {
      "midi": 61,
      "hit": false,
      "t": 87562.5,
      "d": 93.75,
      "v": 100
    },
    {
      "midi": 64,
      "hit": false,
      "t": 87562.5,
      "d": 93.75,
      "v": 100
    },
    {
      "midi": 69,
      "hit": false,
      "t": 87562.5,
      "d": 375,
      "v": 100
    },
    {
      "midi": 73,
      "hit": false,
      "t": 87562.5,
      "d": 375,
      "v": 100
    },
    {
      "midi": 61,
      "hit": false,
      "t": 87562.5,
      "d": 93.75,
      "v": 100
    },
    {
      "midi": 64,
      "hit": false,
      "t": 87562.5,
      "d": 93.75,
      "v": 100
    },
    {
      "midi": 61,
      "hit": false,
      "t": 87750,
      "d": 93.75,
      "v": 100
    },
    {
      "midi": 64,
      "hit": false,
      "t": 87750,
      "d": 93.75,
      "v": 100
    },
    {
      "midi": 52,
      "hit": false,
      "t": 87750,
      "d": 140.625,
      "v": 100
    },
    {
      "midi": 36,
      "hit": false,
      "t": 87750,
      "d": 0.78125,
      "v": 100
    },
    {
      "midi": 61,
      "hit": false,
      "t": 87750,
      "d": 93.75,
      "v": 100
    },
    {
      "midi": 64,
      "hit": false,
      "t": 87750,
      "d": 93.75,
      "v": 100
    },
    {
      "midi": 74,
      "hit": false,
      "t": 87937.5,
      "d": 328.125,
      "v": 100
    },
    {
      "midi": 64,
      "hit": false,
      "t": 87937.5,
      "d": 93.75,
      "v": 100
    },
    {
      "midi": 61,
      "hit": false,
      "t": 87937.5,
      "d": 93.75,
      "v": 100
    },
    {
      "midi": 57,
      "hit": false,
      "t": 87937.5,
      "d": 46.875,
      "v": 100
    },
    {
      "midi": 52,
      "hit": false,
      "t": 87937.5,
      "d": 468.75,
      "v": 100
    },
    {
      "midi": 69,
      "hit": false,
      "t": 87937.5,
      "d": 328.125,
      "v": 100
    },
    {
      "midi": 36,
      "hit": false,
      "t": 87937.5,
      "d": 0.78125,
      "v": 100
    },
    {
      "midi": 74,
      "hit": false,
      "t": 87937.5,
      "d": 328.125,
      "v": 100
    },
    {
      "midi": 64,
      "hit": false,
      "t": 87937.5,
      "d": 93.75,
      "v": 100
    },
    {
      "midi": 61,
      "hit": false,
      "t": 87937.5,
      "d": 93.75,
      "v": 100
    },
    {
      "midi": 57,
      "hit": false,
      "t": 87937.5,
      "d": 46.875,
      "v": 100
    },
    {
      "midi": 61,
      "hit": false,
      "t": 87984.375,
      "d": 140.625,
      "v": 100
    },
    {
      "midi": 61,
      "hit": false,
      "t": 87984.375,
      "d": 140.625,
      "v": 100
    },
    {
      "midi": 64,
      "hit": false,
      "t": 88031.25,
      "d": 93.75,
      "v": 100
    },
    {
      "midi": 64,
      "hit": false,
      "t": 88031.25,
      "d": 93.75,
      "v": 100
    },
    {
      "midi": 61,
      "hit": false,
      "t": 88125,
      "d": 93.75,
      "v": 100
    },
    {
      "midi": 64,
      "hit": false,
      "t": 88125,
      "d": 93.75,
      "v": 100
    },
    {
      "midi": 40,
      "hit": false,
      "t": 88125,
      "d": 0.78125,
      "v": 100
    },
    {
      "midi": 61,
      "hit": false,
      "t": 88125,
      "d": 93.75,
      "v": 100
    },
    {
      "midi": 64,
      "hit": false,
      "t": 88125,
      "d": 93.75,
      "v": 100
    },
    {
      "midi": 74,
      "hit": false,
      "t": 88312.5,
      "d": 187.5,
      "v": 100
    },
    {
      "midi": 64,
      "hit": false,
      "t": 88312.5,
      "d": 93.75,
      "v": 100
    },
    {
      "midi": 61,
      "hit": false,
      "t": 88312.5,
      "d": 93.75,
      "v": 100
    },
    {
      "midi": 76,
      "hit": false,
      "t": 88312.5,
      "d": 187.5,
      "v": 100
    },
    {
      "midi": 74,
      "hit": false,
      "t": 88312.5,
      "d": 187.5,
      "v": 100
    },
    {
      "midi": 64,
      "hit": false,
      "t": 88312.5,
      "d": 93.75,
      "v": 100
    },
    {
      "midi": 61,
      "hit": false,
      "t": 88312.5,
      "d": 93.75,
      "v": 100
    },
    {
      "midi": 76,
      "hit": false,
      "t": 88500,
      "d": 375,
      "v": 100
    },
    {
      "midi": 74,
      "hit": false,
      "t": 88500,
      "d": 1500,
      "v": 100
    },
    {
      "midi": 55,
      "hit": false,
      "t": 88500,
      "d": 46.875,
      "v": 100
    },
    {
      "midi": 50,
      "hit": false,
      "t": 88500,
      "d": 140.625,
      "v": 100
    },
    {
      "midi": 76,
      "hit": false,
      "t": 88500,
      "d": 375,
      "v": 100
    },
    {
      "midi": 36,
      "hit": false,
      "t": 88500,
      "d": 0.78125,
      "v": 100
    },
    {
      "midi": 76,
      "hit": false,
      "t": 88500,
      "d": 375,
      "v": 100
    },
    {
      "midi": 74,
      "hit": false,
      "t": 88500,
      "d": 1500,
      "v": 100
    },
    {
      "midi": 55,
      "hit": false,
      "t": 88500,
      "d": 46.875,
      "v": 100
    },
    {
      "midi": 59,
      "hit": false,
      "t": 88546.875,
      "d": 140.625,
      "v": 100
    },
    {
      "midi": 59,
      "hit": false,
      "t": 88546.875,
      "d": 140.625,
      "v": 100
    },
    {
      "midi": 62,
      "hit": false,
      "t": 88593.75,
      "d": 93.75,
      "v": 100
    },
    {
      "midi": 62,
      "hit": false,
      "t": 88593.75,
      "d": 93.75,
      "v": 100
    },
    {
      "midi": 50,
      "hit": false,
      "t": 88687.5,
      "d": 468.75,
      "v": 100
    },
    {
      "midi": 36,
      "hit": false,
      "t": 88687.5,
      "d": 0.78125,
      "v": 100
    },
    {
      "midi": 74,
      "hit": false,
      "t": 88875,
      "d": 187.5,
      "v": 100
    },
    {
      "midi": 62,
      "hit": false,
      "t": 88875,
      "d": 93.75,
      "v": 100
    },
    {
      "midi": 59,
      "hit": false,
      "t": 88875,
      "d": 93.75,
      "v": 100
    },
    {
      "midi": 55,
      "hit": false,
      "t": 88875,
      "d": 46.875,
      "v": 100
    },
    {
      "midi": 76,
      "hit": false,
      "t": 88875,
      "d": 187.5,
      "v": 100
    },
    {
      "midi": 40,
      "hit": false,
      "t": 88875,
      "d": 0.78125,
      "v": 100
    },
    {
      "midi": 74,
      "hit": false,
      "t": 88875,
      "d": 187.5,
      "v": 100
    },
    {
      "midi": 62,
      "hit": false,
      "t": 88875,
      "d": 93.75,
      "v": 100
    },
    {
      "midi": 59,
      "hit": false,
      "t": 88875,
      "d": 93.75,
      "v": 100
    },
    {
      "midi": 55,
      "hit": false,
      "t": 88875,
      "d": 46.875,
      "v": 100
    },
    {
      "midi": 59,
      "hit": false,
      "t": 88921.875,
      "d": 140.625,
      "v": 100
    },
    {
      "midi": 59,
      "hit": false,
      "t": 88921.875,
      "d": 140.625,
      "v": 100
    },
    {
      "midi": 62,
      "hit": false,
      "t": 88968.75,
      "d": 93.75,
      "v": 100
    },
    {
      "midi": 62,
      "hit": false,
      "t": 88968.75,
      "d": 93.75,
      "v": 100
    },
    {
      "midi": 73,
      "hit": false,
      "t": 89062.5,
      "d": 375,
      "v": 100
    },
    {
      "midi": 62,
      "hit": false,
      "t": 89062.5,
      "d": 93.75,
      "v": 100
    },
    {
      "midi": 59,
      "hit": false,
      "t": 89062.5,
      "d": 93.75,
      "v": 100
    },
    {
      "midi": 76,
      "hit": false,
      "t": 89062.5,
      "d": 375,
      "v": 100
    },
    {
      "midi": 73,
      "hit": false,
      "t": 89062.5,
      "d": 375,
      "v": 100
    },
    {
      "midi": 62,
      "hit": false,
      "t": 89062.5,
      "d": 93.75,
      "v": 100
    },
    {
      "midi": 59,
      "hit": false,
      "t": 89062.5,
      "d": 93.75,
      "v": 100
    },
    {
      "midi": 62,
      "hit": false,
      "t": 89250,
      "d": 93.75,
      "v": 100
    },
    {
      "midi": 59,
      "hit": false,
      "t": 89250,
      "d": 93.75,
      "v": 100
    },
    {
      "midi": 50,
      "hit": false,
      "t": 89250,
      "d": 140.625,
      "v": 100
    },
    {
      "midi": 36,
      "hit": false,
      "t": 89250,
      "d": 0.78125,
      "v": 100
    },
    {
      "midi": 40,
      "hit": false,
      "t": 89250,
      "d": 0.78125,
      "v": 100
    },
    {
      "midi": 62,
      "hit": false,
      "t": 89250,
      "d": 93.75,
      "v": 100
    },
    {
      "midi": 59,
      "hit": false,
      "t": 89250,
      "d": 93.75,
      "v": 100
    },
    {
      "midi": 38,
      "hit": false,
      "t": 89343.75,
      "d": 0.78125,
      "v": 100
    },
    {
      "midi": 71,
      "hit": false,
      "t": 89437.5,
      "d": 281.25,
      "v": 100
    },
    {
      "midi": 62,
      "hit": false,
      "t": 89437.5,
      "d": 93.75,
      "v": 100
    },
    {
      "midi": 59,
      "hit": false,
      "t": 89437.5,
      "d": 93.75,
      "v": 100
    },
    {
      "midi": 55,
      "hit": false,
      "t": 89437.5,
      "d": 46.875,
      "v": 100
    },
    {
      "midi": 50,
      "hit": false,
      "t": 89437.5,
      "d": 468.75,
      "v": 100
    },
    {
      "midi": 76,
      "hit": false,
      "t": 89437.5,
      "d": 281.25,
      "v": 100
    },
    {
      "midi": 36,
      "hit": false,
      "t": 89437.5,
      "d": 0.78125,
      "v": 100
    },
    {
      "midi": 71,
      "hit": false,
      "t": 89437.5,
      "d": 281.25,
      "v": 100
    },
    {
      "midi": 62,
      "hit": false,
      "t": 89437.5,
      "d": 93.75,
      "v": 100
    },
    {
      "midi": 59,
      "hit": false,
      "t": 89437.5,
      "d": 93.75,
      "v": 100
    },
    {
      "midi": 55,
      "hit": false,
      "t": 89437.5,
      "d": 46.875,
      "v": 100
    },
    {
      "midi": 59,
      "hit": false,
      "t": 89484.375,
      "d": 140.625,
      "v": 100
    },
    {
      "midi": 59,
      "hit": false,
      "t": 89484.375,
      "d": 140.625,
      "v": 100
    },
    {
      "midi": 62,
      "hit": false,
      "t": 89531.25,
      "d": 93.75,
      "v": 100
    },
    {
      "midi": 62,
      "hit": false,
      "t": 89531.25,
      "d": 93.75,
      "v": 100
    },
    {
      "midi": 62,
      "hit": false,
      "t": 89625,
      "d": 93.75,
      "v": 100
    },
    {
      "midi": 59,
      "hit": false,
      "t": 89625,
      "d": 93.75,
      "v": 100
    },
    {
      "midi": 40,
      "hit": false,
      "t": 89625,
      "d": 0.78125,
      "v": 100
    },
    {
      "midi": 62,
      "hit": false,
      "t": 89625,
      "d": 93.75,
      "v": 100
    },
    {
      "midi": 59,
      "hit": false,
      "t": 89625,
      "d": 93.75,
      "v": 100
    },
    {
      "midi": 69,
      "hit": false,
      "t": 89812.5,
      "d": 187.5,
      "v": 100
    },
    {
      "midi": 62,
      "hit": false,
      "t": 89812.5,
      "d": 93.75,
      "v": 100
    },
    {
      "midi": 59,
      "hit": false,
      "t": 89812.5,
      "d": 93.75,
      "v": 100
    },
    {
      "midi": 67,
      "hit": false,
      "t": 89812.5,
      "d": 187.5,
      "v": 100
    },
    {
      "midi": 69,
      "hit": false,
      "t": 89812.5,
      "d": 187.5,
      "v": 100
    },
    {
      "midi": 62,
      "hit": false,
      "t": 89812.5,
      "d": 93.75,
      "v": 100
    },
    {
      "midi": 59,
      "hit": false,
      "t": 89812.5,
      "d": 93.75,
      "v": 100
    },
    {
      "midi": 67,
      "hit": false,
      "t": 90000,
      "d": 375,
      "v": 100
    },
    {
      "midi": 76,
      "hit": false,
      "t": 90000,
      "d": 1500,
      "v": 100
    },
    {
      "midi": 57,
      "hit": false,
      "t": 90000,
      "d": 46.875,
      "v": 100
    },
    {
      "midi": 49,
      "hit": false,
      "t": 90000,
      "d": 140.625,
      "v": 100
    },
    {
      "midi": 67,
      "hit": false,
      "t": 90000,
      "d": 375,
      "v": 100
    },
    {
      "midi": 36,
      "hit": false,
      "t": 90000,
      "d": 0.78125,
      "v": 100
    },
    {
      "midi": 67,
      "hit": false,
      "t": 90000,
      "d": 375,
      "v": 100
    },
    {
      "midi": 76,
      "hit": false,
      "t": 90000,
      "d": 1500,
      "v": 100
    },
    {
      "midi": 57,
      "hit": false,
      "t": 90000,
      "d": 46.875,
      "v": 100
    },
    {
      "midi": 61,
      "hit": false,
      "t": 90046.875,
      "d": 140.625,
      "v": 100
    },
    {
      "midi": 61,
      "hit": false,
      "t": 90046.875,
      "d": 140.625,
      "v": 100
    },
    {
      "midi": 64,
      "hit": false,
      "t": 90093.75,
      "d": 93.75,
      "v": 100
    },
    {
      "midi": 64,
      "hit": false,
      "t": 90093.75,
      "d": 93.75,
      "v": 100
    },
    {
      "midi": 49,
      "hit": false,
      "t": 90187.5,
      "d": 468.75,
      "v": 100
    },
    {
      "midi": 36,
      "hit": false,
      "t": 90187.5,
      "d": 0.78125,
      "v": 100
    },
    {
      "midi": 69,
      "hit": false,
      "t": 90375,
      "d": 187.5,
      "v": 100
    },
    {
      "midi": 64,
      "hit": false,
      "t": 90375,
      "d": 93.75,
      "v": 100
    },
    {
      "midi": 61,
      "hit": false,
      "t": 90375,
      "d": 93.75,
      "v": 100
    },
    {
      "midi": 54,
      "hit": false,
      "t": 90375,
      "d": 46.875,
      "v": 100
    },
    {
      "midi": 67,
      "hit": false,
      "t": 90375,
      "d": 187.5,
      "v": 100
    },
    {
      "midi": 40,
      "hit": false,
      "t": 90375,
      "d": 0.78125,
      "v": 100
    },
    {
      "midi": 69,
      "hit": false,
      "t": 90375,
      "d": 187.5,
      "v": 100
    },
    {
      "midi": 64,
      "hit": false,
      "t": 90375,
      "d": 93.75,
      "v": 100
    },
    {
      "midi": 61,
      "hit": false,
      "t": 90375,
      "d": 93.75,
      "v": 100
    },
    {
      "midi": 54,
      "hit": false,
      "t": 90375,
      "d": 46.875,
      "v": 100
    },
    {
      "midi": 57,
      "hit": false,
      "t": 90421.875,
      "d": 140.625,
      "v": 100
    },
    {
      "midi": 57,
      "hit": false,
      "t": 90421.875,
      "d": 140.625,
      "v": 100
    },
    {
      "midi": 61,
      "hit": false,
      "t": 90468.75,
      "d": 93.75,
      "v": 100
    },
    {
      "midi": 61,
      "hit": false,
      "t": 90468.75,
      "d": 93.75,
      "v": 100
    },
    {
      "midi": 71,
      "hit": false,
      "t": 90562.5,
      "d": 375,
      "v": 100
    },
    {
      "midi": 61,
      "hit": false,
      "t": 90562.5,
      "d": 93.75,
      "v": 100
    },
    {
      "midi": 64,
      "hit": false,
      "t": 90562.5,
      "d": 93.75,
      "v": 100
    },
    {
      "midi": 67,
      "hit": false,
      "t": 90562.5,
      "d": 375,
      "v": 100
    },
    {
      "midi": 71,
      "hit": false,
      "t": 90562.5,
      "d": 375,
      "v": 100
    },
    {
      "midi": 61,
      "hit": false,
      "t": 90562.5,
      "d": 93.75,
      "v": 100
    },
    {
      "midi": 64,
      "hit": false,
      "t": 90562.5,
      "d": 93.75,
      "v": 100
    },
    {
      "midi": 61,
      "hit": false,
      "t": 90750,
      "d": 93.75,
      "v": 100
    },
    {
      "midi": 64,
      "hit": false,
      "t": 90750,
      "d": 93.75,
      "v": 100
    },
    {
      "midi": 49,
      "hit": false,
      "t": 90750,
      "d": 140.625,
      "v": 100
    },
    {
      "midi": 36,
      "hit": false,
      "t": 90750,
      "d": 0.78125,
      "v": 100
    },
    {
      "midi": 61,
      "hit": false,
      "t": 90750,
      "d": 93.75,
      "v": 100
    },
    {
      "midi": 64,
      "hit": false,
      "t": 90750,
      "d": 93.75,
      "v": 100
    },
    {
      "midi": 73,
      "hit": false,
      "t": 90937.5,
      "d": 187.5,
      "v": 100
    },
    {
      "midi": 64,
      "hit": false,
      "t": 90937.5,
      "d": 93.75,
      "v": 100
    },
    {
      "midi": 61,
      "hit": false,
      "t": 90937.5,
      "d": 93.75,
      "v": 100
    },
    {
      "midi": 54,
      "hit": false,
      "t": 90937.5,
      "d": 46.875,
      "v": 100
    },
    {
      "midi": 49,
      "hit": false,
      "t": 90937.5,
      "d": 468.75,
      "v": 100
    },
    {
      "midi": 67,
      "hit": false,
      "t": 90937.5,
      "d": 187.5,
      "v": 100
    },
    {
      "midi": 36,
      "hit": false,
      "t": 90937.5,
      "d": 0.78125,
      "v": 100
    },
    {
      "midi": 73,
      "hit": false,
      "t": 90937.5,
      "d": 187.5,
      "v": 100
    },
    {
      "midi": 64,
      "hit": false,
      "t": 90937.5,
      "d": 93.75,
      "v": 100
    },
    {
      "midi": 61,
      "hit": false,
      "t": 90937.5,
      "d": 93.75,
      "v": 100
    },
    {
      "midi": 54,
      "hit": false,
      "t": 90937.5,
      "d": 46.875,
      "v": 100
    },
    {
      "midi": 57,
      "hit": false,
      "t": 90984.375,
      "d": 140.625,
      "v": 100
    },
    {
      "midi": 57,
      "hit": false,
      "t": 90984.375,
      "d": 140.625,
      "v": 100
    },
    {
      "midi": 61,
      "hit": false,
      "t": 91031.25,
      "d": 93.75,
      "v": 100
    },
    {
      "midi": 61,
      "hit": false,
      "t": 91031.25,
      "d": 93.75,
      "v": 100
    },
    {
      "midi": 74,
      "hit": false,
      "t": 91125,
      "d": 93.75,
      "v": 100
    },
    {
      "midi": 61,
      "hit": false,
      "t": 91125,
      "d": 93.75,
      "v": 100
    },
    {
      "midi": 64,
      "hit": false,
      "t": 91125,
      "d": 93.75,
      "v": 100
    },
    {
      "midi": 67,
      "hit": false,
      "t": 91125,
      "d": 93.75,
      "v": 100
    },
    {
      "midi": 40,
      "hit": false,
      "t": 91125,
      "d": 0.78125,
      "v": 100
    },
    {
      "midi": 74,
      "hit": false,
      "t": 91125,
      "d": 93.75,
      "v": 100
    },
    {
      "midi": 61,
      "hit": false,
      "t": 91125,
      "d": 93.75,
      "v": 100
    },
    {
      "midi": 64,
      "hit": false,
      "t": 91125,
      "d": 93.75,
      "v": 100
    },
    {
      "midi": 74,
      "hit": false,
      "t": 91312.5,
      "d": 562.5,
      "v": 100
    },
    {
      "midi": 64,
      "hit": false,
      "t": 91312.5,
      "d": 93.75,
      "v": 100
    },
    {
      "midi": 61,
      "hit": false,
      "t": 91312.5,
      "d": 93.75,
      "v": 100
    },
    {
      "midi": 67,
      "hit": false,
      "t": 91312.5,
      "d": 562.5,
      "v": 100
    },
    {
      "midi": 74,
      "hit": false,
      "t": 91312.5,
      "d": 562.5,
      "v": 100
    },
    {
      "midi": 64,
      "hit": false,
      "t": 91312.5,
      "d": 93.75,
      "v": 100
    },
    {
      "midi": 61,
      "hit": false,
      "t": 91312.5,
      "d": 93.75,
      "v": 100
    },
    {
      "midi": 73,
      "hit": false,
      "t": 91500,
      "d": 1500,
      "v": 100
    },
    {
      "midi": 54,
      "hit": false,
      "t": 91500,
      "d": 46.875,
      "v": 100
    },
    {
      "midi": 47,
      "hit": false,
      "t": 91500,
      "d": 140.625,
      "v": 100
    },
    {
      "midi": 36,
      "hit": false,
      "t": 91500,
      "d": 0.78125,
      "v": 100
    },
    {
      "midi": 73,
      "hit": false,
      "t": 91500,
      "d": 1500,
      "v": 100
    },
    {
      "midi": 54,
      "hit": false,
      "t": 91500,
      "d": 46.875,
      "v": 100
    },
    {
      "midi": 57,
      "hit": false,
      "t": 91546.875,
      "d": 140.625,
      "v": 100
    },
    {
      "midi": 57,
      "hit": false,
      "t": 91546.875,
      "d": 140.625,
      "v": 100
    },
    {
      "midi": 61,
      "hit": false,
      "t": 91593.75,
      "d": 93.75,
      "v": 100
    },
    {
      "midi": 61,
      "hit": false,
      "t": 91593.75,
      "d": 93.75,
      "v": 100
    },
    {
      "midi": 47,
      "hit": false,
      "t": 91687.5,
      "d": 468.75,
      "v": 100
    },
    {
      "midi": 36,
      "hit": false,
      "t": 91687.5,
      "d": 0.78125,
      "v": 100
    },
    {
      "midi": 61,
      "hit": false,
      "t": 91875,
      "d": 93.75,
      "v": 100
    },
    {
      "midi": 57,
      "hit": false,
      "t": 91875,
      "d": 93.75,
      "v": 100
    },
    {
      "midi": 52,
      "hit": false,
      "t": 91875,
      "d": 46.875,
      "v": 100
    },
    {
      "midi": 40,
      "hit": false,
      "t": 91875,
      "d": 0.78125,
      "v": 100
    },
    {
      "midi": 61,
      "hit": false,
      "t": 91875,
      "d": 93.75,
      "v": 100
    },
    {
      "midi": 57,
      "hit": false,
      "t": 91875,
      "d": 93.75,
      "v": 100
    },
    {
      "midi": 52,
      "hit": false,
      "t": 91875,
      "d": 46.875,
      "v": 100
    },
    {
      "midi": 55,
      "hit": false,
      "t": 91921.875,
      "d": 140.625,
      "v": 100
    },
    {
      "midi": 55,
      "hit": false,
      "t": 91921.875,
      "d": 140.625,
      "v": 100
    },
    {
      "midi": 59,
      "hit": false,
      "t": 91968.75,
      "d": 93.75,
      "v": 100
    },
    {
      "midi": 59,
      "hit": false,
      "t": 91968.75,
      "d": 93.75,
      "v": 100
    },
    {
      "midi": 61,
      "hit": false,
      "t": 92062.5,
      "d": 93.75,
      "v": 100
    },
    {
      "midi": 57,
      "hit": false,
      "t": 92062.5,
      "d": 93.75,
      "v": 100
    },
    {
      "midi": 61,
      "hit": false,
      "t": 92062.5,
      "d": 93.75,
      "v": 100
    },
    {
      "midi": 57,
      "hit": false,
      "t": 92062.5,
      "d": 93.75,
      "v": 100
    },
    {
      "midi": 61,
      "hit": false,
      "t": 92250,
      "d": 93.75,
      "v": 100
    },
    {
      "midi": 57,
      "hit": false,
      "t": 92250,
      "d": 93.75,
      "v": 100
    },
    {
      "midi": 47,
      "hit": false,
      "t": 92250,
      "d": 140.625,
      "v": 100
    },
    {
      "midi": 36,
      "hit": false,
      "t": 92250,
      "d": 0.78125,
      "v": 100
    },
    {
      "midi": 40,
      "hit": false,
      "t": 92250,
      "d": 0.78125,
      "v": 100
    },
    {
      "midi": 61,
      "hit": false,
      "t": 92250,
      "d": 93.75,
      "v": 100
    },
    {
      "midi": 57,
      "hit": false,
      "t": 92250,
      "d": 93.75,
      "v": 100
    },
    {
      "midi": 38,
      "hit": false,
      "t": 92343.75,
      "d": 0.78125,
      "v": 100
    },
    {
      "midi": 73,
      "hit": false,
      "t": 92437.5,
      "d": 187.5,
      "v": 100
    },
    {
      "midi": 61,
      "hit": false,
      "t": 92437.5,
      "d": 93.75,
      "v": 100
    },
    {
      "midi": 57,
      "hit": false,
      "t": 92437.5,
      "d": 93.75,
      "v": 100
    },
    {
      "midi": 52,
      "hit": false,
      "t": 92437.5,
      "d": 46.875,
      "v": 100
    },
    {
      "midi": 47,
      "hit": false,
      "t": 92437.5,
      "d": 468.75,
      "v": 100
    },
    {
      "midi": 36,
      "hit": false,
      "t": 92437.5,
      "d": 0.78125,
      "v": 100
    },
    {
      "midi": 73,
      "hit": false,
      "t": 92437.5,
      "d": 187.5,
      "v": 100
    },
    {
      "midi": 61,
      "hit": false,
      "t": 92437.5,
      "d": 93.75,
      "v": 100
    },
    {
      "midi": 57,
      "hit": false,
      "t": 92437.5,
      "d": 93.75,
      "v": 100
    },
    {
      "midi": 52,
      "hit": false,
      "t": 92437.5,
      "d": 46.875,
      "v": 100
    },
    {
      "midi": 55,
      "hit": false,
      "t": 92484.375,
      "d": 140.625,
      "v": 100
    },
    {
      "midi": 55,
      "hit": false,
      "t": 92484.375,
      "d": 140.625,
      "v": 100
    },
    {
      "midi": 59,
      "hit": false,
      "t": 92531.25,
      "d": 93.75,
      "v": 100
    },
    {
      "midi": 59,
      "hit": false,
      "t": 92531.25,
      "d": 93.75,
      "v": 100
    },
    {
      "midi": 74,
      "hit": false,
      "t": 92625,
      "d": 187.5,
      "v": 100
    },
    {
      "midi": 61,
      "hit": false,
      "t": 92625,
      "d": 93.75,
      "v": 100
    },
    {
      "midi": 57,
      "hit": false,
      "t": 92625,
      "d": 93.75,
      "v": 100
    },
    {
      "midi": 40,
      "hit": false,
      "t": 92625,
      "d": 0.78125,
      "v": 100
    },
    {
      "midi": 74,
      "hit": false,
      "t": 92625,
      "d": 187.5,
      "v": 100
    },
    {
      "midi": 61,
      "hit": false,
      "t": 92625,
      "d": 93.75,
      "v": 100
    },
    {
      "midi": 57,
      "hit": false,
      "t": 92625,
      "d": 93.75,
      "v": 100
    },
    {
      "midi": 76,
      "hit": false,
      "t": 92812.5,
      "d": 187.5,
      "v": 100
    },
    {
      "midi": 61,
      "hit": false,
      "t": 92812.5,
      "d": 93.75,
      "v": 100
    },
    {
      "midi": 57,
      "hit": false,
      "t": 92812.5,
      "d": 93.75,
      "v": 100
    },
    {
      "midi": 76,
      "hit": false,
      "t": 92812.5,
      "d": 187.5,
      "v": 100
    },
    {
      "midi": 61,
      "hit": false,
      "t": 92812.5,
      "d": 93.75,
      "v": 100
    },
    {
      "midi": 57,
      "hit": false,
      "t": 92812.5,
      "d": 93.75,
      "v": 100
    },
    {
      "midi": 81,
      "hit": false,
      "t": 93000,
      "d": 375,
      "v": 100
    },
    {
      "midi": 69,
      "hit": false,
      "t": 93000,
      "d": 1500,
      "v": 100
    },
    {
      "midi": 50,
      "hit": false,
      "t": 93000,
      "d": 46.875,
      "v": 100
    },
    {
      "midi": 45,
      "hit": false,
      "t": 93000,
      "d": 140.625,
      "v": 100
    },
    {
      "midi": 36,
      "hit": false,
      "t": 93000,
      "d": 0.78125,
      "v": 100
    },
    {
      "midi": 81,
      "hit": false,
      "t": 93000,
      "d": 375,
      "v": 100
    },
    {
      "midi": 69,
      "hit": false,
      "t": 93000,
      "d": 1500,
      "v": 100
    },
    {
      "midi": 50,
      "hit": false,
      "t": 93000,
      "d": 46.875,
      "v": 100
    },
    {
      "midi": 54,
      "hit": false,
      "t": 93046.875,
      "d": 140.625,
      "v": 100
    },
    {
      "midi": 54,
      "hit": false,
      "t": 93046.875,
      "d": 140.625,
      "v": 100
    },
    {
      "midi": 57,
      "hit": false,
      "t": 93093.75,
      "d": 93.75,
      "v": 100
    },
    {
      "midi": 57,
      "hit": false,
      "t": 93093.75,
      "d": 93.75,
      "v": 100
    },
    {
      "midi": 45,
      "hit": false,
      "t": 93187.5,
      "d": 468.75,
      "v": 100
    },
    {
      "midi": 36,
      "hit": false,
      "t": 93187.5,
      "d": 0.78125,
      "v": 100
    },
    {
      "midi": 79,
      "hit": false,
      "t": 93375,
      "d": 187.5,
      "v": 100
    },
    {
      "midi": 57,
      "hit": false,
      "t": 93375,
      "d": 93.75,
      "v": 100
    },
    {
      "midi": 54,
      "hit": false,
      "t": 93375,
      "d": 93.75,
      "v": 100
    },
    {
      "midi": 50,
      "hit": false,
      "t": 93375,
      "d": 46.875,
      "v": 100
    },
    {
      "midi": 40,
      "hit": false,
      "t": 93375,
      "d": 0.78125,
      "v": 100
    },
    {
      "midi": 79,
      "hit": false,
      "t": 93375,
      "d": 187.5,
      "v": 100
    },
    {
      "midi": 57,
      "hit": false,
      "t": 93375,
      "d": 93.75,
      "v": 100
    },
    {
      "midi": 54,
      "hit": false,
      "t": 93375,
      "d": 93.75,
      "v": 100
    },
    {
      "midi": 50,
      "hit": false,
      "t": 93375,
      "d": 46.875,
      "v": 100
    },
    {
      "midi": 54,
      "hit": false,
      "t": 93421.875,
      "d": 140.625,
      "v": 100
    },
    {
      "midi": 54,
      "hit": false,
      "t": 93421.875,
      "d": 140.625,
      "v": 100
    },
    {
      "midi": 57,
      "hit": false,
      "t": 93468.75,
      "d": 93.75,
      "v": 100
    },
    {
      "midi": 57,
      "hit": false,
      "t": 93468.75,
      "d": 93.75,
      "v": 100
    },
    {
      "midi": 74,
      "hit": false,
      "t": 93562.5,
      "d": 562.5,
      "v": 100
    },
    {
      "midi": 57,
      "hit": false,
      "t": 93562.5,
      "d": 93.75,
      "v": 100
    },
    {
      "midi": 54,
      "hit": false,
      "t": 93562.5,
      "d": 93.75,
      "v": 100
    },
    {
      "midi": 74,
      "hit": false,
      "t": 93562.5,
      "d": 562.5,
      "v": 100
    },
    {
      "midi": 57,
      "hit": false,
      "t": 93562.5,
      "d": 93.75,
      "v": 100
    },
    {
      "midi": 54,
      "hit": false,
      "t": 93562.5,
      "d": 93.75,
      "v": 100
    },
    {
      "midi": 57,
      "hit": false,
      "t": 93750,
      "d": 93.75,
      "v": 100
    },
    {
      "midi": 54,
      "hit": false,
      "t": 93750,
      "d": 93.75,
      "v": 100
    },
    {
      "midi": 45,
      "hit": false,
      "t": 93750,
      "d": 140.625,
      "v": 100
    },
    {
      "midi": 36,
      "hit": false,
      "t": 93750,
      "d": 0.78125,
      "v": 100
    },
    {
      "midi": 57,
      "hit": false,
      "t": 93750,
      "d": 93.75,
      "v": 100
    },
    {
      "midi": 54,
      "hit": false,
      "t": 93750,
      "d": 93.75,
      "v": 100
    },
    {
      "midi": 57,
      "hit": false,
      "t": 93937.5,
      "d": 93.75,
      "v": 100
    },
    {
      "midi": 54,
      "hit": false,
      "t": 93937.5,
      "d": 93.75,
      "v": 100
    },
    {
      "midi": 50,
      "hit": false,
      "t": 93937.5,
      "d": 46.875,
      "v": 100
    },
    {
      "midi": 45,
      "hit": false,
      "t": 93937.5,
      "d": 468.75,
      "v": 100
    },
    {
      "midi": 36,
      "hit": false,
      "t": 93937.5,
      "d": 0.78125,
      "v": 100
    },
    {
      "midi": 57,
      "hit": false,
      "t": 93937.5,
      "d": 93.75,
      "v": 100
    },
    {
      "midi": 54,
      "hit": false,
      "t": 93937.5,
      "d": 93.75,
      "v": 100
    },
    {
      "midi": 50,
      "hit": false,
      "t": 93937.5,
      "d": 46.875,
      "v": 100
    },
    {
      "midi": 54,
      "hit": false,
      "t": 93984.375,
      "d": 140.625,
      "v": 100
    },
    {
      "midi": 54,
      "hit": false,
      "t": 93984.375,
      "d": 140.625,
      "v": 100
    },
    {
      "midi": 57,
      "hit": false,
      "t": 94031.25,
      "d": 93.75,
      "v": 100
    },
    {
      "midi": 57,
      "hit": false,
      "t": 94031.25,
      "d": 93.75,
      "v": 100
    },
    {
      "midi": 57,
      "hit": false,
      "t": 94125,
      "d": 93.75,
      "v": 100
    },
    {
      "midi": 54,
      "hit": false,
      "t": 94125,
      "d": 93.75,
      "v": 100
    },
    {
      "midi": 40,
      "hit": false,
      "t": 94125,
      "d": 0.78125,
      "v": 100
    },
    {
      "midi": 57,
      "hit": false,
      "t": 94125,
      "d": 93.75,
      "v": 100
    },
    {
      "midi": 54,
      "hit": false,
      "t": 94125,
      "d": 93.75,
      "v": 100
    },
    {
      "midi": 57,
      "hit": false,
      "t": 94312.5,
      "d": 93.75,
      "v": 100
    },
    {
      "midi": 54,
      "hit": false,
      "t": 94312.5,
      "d": 93.75,
      "v": 100
    },
    {
      "midi": 57,
      "hit": false,
      "t": 94312.5,
      "d": 93.75,
      "v": 100
    },
    {
      "midi": 54,
      "hit": false,
      "t": 94312.5,
      "d": 93.75,
      "v": 100
    },
    {
      "midi": 67,
      "hit": false,
      "t": 94500,
      "d": 1500,
      "v": 100
    },
    {
      "midi": 49,
      "hit": false,
      "t": 94500,
      "d": 46.875,
      "v": 100
    },
    {
      "midi": 43,
      "hit": false,
      "t": 94500,
      "d": 140.625,
      "v": 100
    },
    {
      "midi": 36,
      "hit": false,
      "t": 94500,
      "d": 0.78125,
      "v": 100
    },
    {
      "midi": 67,
      "hit": false,
      "t": 94500,
      "d": 1500,
      "v": 100
    },
    {
      "midi": 49,
      "hit": false,
      "t": 94500,
      "d": 46.875,
      "v": 100
    },
    {
      "midi": 52,
      "hit": false,
      "t": 94546.875,
      "d": 140.625,
      "v": 100
    },
    {
      "midi": 52,
      "hit": false,
      "t": 94546.875,
      "d": 140.625,
      "v": 100
    },
    {
      "midi": 55,
      "hit": false,
      "t": 94593.75,
      "d": 93.75,
      "v": 100
    },
    {
      "midi": 55,
      "hit": false,
      "t": 94593.75,
      "d": 93.75,
      "v": 100
    },
    {
      "midi": 43,
      "hit": false,
      "t": 94687.5,
      "d": 468.75,
      "v": 100
    },
    {
      "midi": 36,
      "hit": false,
      "t": 94687.5,
      "d": 0.78125,
      "v": 100
    },
    {
      "midi": 55,
      "hit": false,
      "t": 94875,
      "d": 93.75,
      "v": 100
    },
    {
      "midi": 52,
      "hit": false,
      "t": 94875,
      "d": 93.75,
      "v": 100
    },
    {
      "midi": 49,
      "hit": false,
      "t": 94875,
      "d": 46.875,
      "v": 100
    },
    {
      "midi": 40,
      "hit": false,
      "t": 94875,
      "d": 0.78125,
      "v": 100
    },
    {
      "midi": 55,
      "hit": false,
      "t": 94875,
      "d": 93.75,
      "v": 100
    },
    {
      "midi": 52,
      "hit": false,
      "t": 94875,
      "d": 93.75,
      "v": 100
    },
    {
      "midi": 49,
      "hit": false,
      "t": 94875,
      "d": 46.875,
      "v": 100
    },
    {
      "midi": 52,
      "hit": false,
      "t": 94921.875,
      "d": 140.625,
      "v": 100
    },
    {
      "midi": 52,
      "hit": false,
      "t": 94921.875,
      "d": 140.625,
      "v": 100
    },
    {
      "midi": 55,
      "hit": false,
      "t": 94968.75,
      "d": 93.75,
      "v": 100
    },
    {
      "midi": 55,
      "hit": false,
      "t": 94968.75,
      "d": 93.75,
      "v": 100
    },
    {
      "midi": 55,
      "hit": false,
      "t": 95062.5,
      "d": 93.75,
      "v": 100
    },
    {
      "midi": 52,
      "hit": false,
      "t": 95062.5,
      "d": 93.75,
      "v": 100
    },
    {
      "midi": 55,
      "hit": false,
      "t": 95062.5,
      "d": 93.75,
      "v": 100
    },
    {
      "midi": 52,
      "hit": false,
      "t": 95062.5,
      "d": 93.75,
      "v": 100
    },
    {
      "midi": 55,
      "hit": false,
      "t": 95250,
      "d": 93.75,
      "v": 100
    },
    {
      "midi": 52,
      "hit": false,
      "t": 95250,
      "d": 93.75,
      "v": 100
    },
    {
      "midi": 43,
      "hit": false,
      "t": 95250,
      "d": 140.625,
      "v": 100
    },
    {
      "midi": 36,
      "hit": false,
      "t": 95250,
      "d": 0.78125,
      "v": 100
    },
    {
      "midi": 40,
      "hit": false,
      "t": 95250,
      "d": 0.78125,
      "v": 100
    },
    {
      "midi": 55,
      "hit": false,
      "t": 95250,
      "d": 93.75,
      "v": 100
    },
    {
      "midi": 52,
      "hit": false,
      "t": 95250,
      "d": 93.75,
      "v": 100
    },
    {
      "midi": 38,
      "hit": false,
      "t": 95343.75,
      "d": 0.78125,
      "v": 100
    },
    {
      "midi": 73,
      "hit": false,
      "t": 95437.5,
      "d": 187.5,
      "v": 100
    },
    {
      "midi": 55,
      "hit": false,
      "t": 95437.5,
      "d": 93.75,
      "v": 100
    },
    {
      "midi": 52,
      "hit": false,
      "t": 95437.5,
      "d": 93.75,
      "v": 100
    },
    {
      "midi": 49,
      "hit": false,
      "t": 95437.5,
      "d": 46.875,
      "v": 100
    },
    {
      "midi": 43,
      "hit": false,
      "t": 95437.5,
      "d": 468.75,
      "v": 100
    },
    {
      "midi": 36,
      "hit": false,
      "t": 95437.5,
      "d": 0.78125,
      "v": 100
    },
    {
      "midi": 73,
      "hit": false,
      "t": 95437.5,
      "d": 187.5,
      "v": 100
    },
    {
      "midi": 55,
      "hit": false,
      "t": 95437.5,
      "d": 93.75,
      "v": 100
    },
    {
      "midi": 52,
      "hit": false,
      "t": 95437.5,
      "d": 93.75,
      "v": 100
    },
    {
      "midi": 49,
      "hit": false,
      "t": 95437.5,
      "d": 46.875,
      "v": 100
    },
    {
      "midi": 52,
      "hit": false,
      "t": 95484.375,
      "d": 140.625,
      "v": 100
    },
    {
      "midi": 52,
      "hit": false,
      "t": 95484.375,
      "d": 140.625,
      "v": 100
    },
    {
      "midi": 55,
      "hit": false,
      "t": 95531.25,
      "d": 93.75,
      "v": 100
    },
    {
      "midi": 55,
      "hit": false,
      "t": 95531.25,
      "d": 93.75,
      "v": 100
    },
    {
      "midi": 74,
      "hit": false,
      "t": 95625,
      "d": 187.5,
      "v": 100
    },
    {
      "midi": 55,
      "hit": false,
      "t": 95625,
      "d": 93.75,
      "v": 100
    },
    {
      "midi": 52,
      "hit": false,
      "t": 95625,
      "d": 93.75,
      "v": 100
    },
    {
      "midi": 40,
      "hit": false,
      "t": 95625,
      "d": 0.78125,
      "v": 100
    },
    {
      "midi": 74,
      "hit": false,
      "t": 95625,
      "d": 187.5,
      "v": 100
    },
    {
      "midi": 55,
      "hit": false,
      "t": 95625,
      "d": 93.75,
      "v": 100
    },
    {
      "midi": 52,
      "hit": false,
      "t": 95625,
      "d": 93.75,
      "v": 100
    },
    {
      "midi": 76,
      "hit": false,
      "t": 95812.5,
      "d": 187.5,
      "v": 100
    },
    {
      "midi": 55,
      "hit": false,
      "t": 95812.5,
      "d": 93.75,
      "v": 100
    },
    {
      "midi": 52,
      "hit": false,
      "t": 95812.5,
      "d": 93.75,
      "v": 100
    },
    {
      "midi": 76,
      "hit": false,
      "t": 95812.5,
      "d": 187.5,
      "v": 100
    },
    {
      "midi": 55,
      "hit": false,
      "t": 95812.5,
      "d": 93.75,
      "v": 100
    },
    {
      "midi": 52,
      "hit": false,
      "t": 95812.5,
      "d": 93.75,
      "v": 100
    },
    {
      "midi": 81,
      "hit": false,
      "t": 96000,
      "d": 375,
      "v": 100
    },
    {
      "midi": 66,
      "hit": false,
      "t": 96000,
      "d": 1500,
      "v": 100
    },
    {
      "midi": 47,
      "hit": false,
      "t": 96000,
      "d": 46.875,
      "v": 100
    },
    {
      "midi": 47,
      "hit": false,
      "t": 96000,
      "d": 46.875,
      "v": 100
    },
    {
      "midi": 42,
      "hit": false,
      "t": 96000,
      "d": 1500,
      "v": 100
    },
    {
      "midi": 36,
      "hit": false,
      "t": 96000,
      "d": 0.78125,
      "v": 100
    },
    {
      "midi": 81,
      "hit": false,
      "t": 96000,
      "d": 375,
      "v": 100
    },
    {
      "midi": 66,
      "hit": false,
      "t": 96000,
      "d": 1500,
      "v": 100
    },
    {
      "midi": 47,
      "hit": false,
      "t": 96000,
      "d": 46.875,
      "v": 100
    },
    {
      "midi": 47,
      "hit": false,
      "t": 96000,
      "d": 46.875,
      "v": 100
    },
    {
      "midi": 50,
      "hit": false,
      "t": 96046.875,
      "d": 140.625,
      "v": 100
    },
    {
      "midi": 50,
      "hit": false,
      "t": 96046.875,
      "d": 140.625,
      "v": 100
    },
    {
      "midi": 50,
      "hit": false,
      "t": 96046.875,
      "d": 140.625,
      "v": 100
    },
    {
      "midi": 50,
      "hit": false,
      "t": 96046.875,
      "d": 140.625,
      "v": 100
    },
    {
      "midi": 54,
      "hit": false,
      "t": 96093.75,
      "d": 93.75,
      "v": 100
    },
    {
      "midi": 54,
      "hit": false,
      "t": 96093.75,
      "d": 93.75,
      "v": 100
    },
    {
      "midi": 54,
      "hit": false,
      "t": 96093.75,
      "d": 93.75,
      "v": 100
    },
    {
      "midi": 54,
      "hit": false,
      "t": 96093.75,
      "d": 93.75,
      "v": 100
    },
    {
      "midi": 79,
      "hit": false,
      "t": 96375,
      "d": 187.5,
      "v": 100
    },
    {
      "midi": 54,
      "hit": false,
      "t": 96375,
      "d": 93.75,
      "v": 100
    },
    {
      "midi": 50,
      "hit": false,
      "t": 96375,
      "d": 93.75,
      "v": 100
    },
    {
      "midi": 47,
      "hit": false,
      "t": 96375,
      "d": 46.875,
      "v": 100
    },
    {
      "midi": 40,
      "hit": false,
      "t": 96375,
      "d": 0.78125,
      "v": 100
    },
    {
      "midi": 55,
      "hit": false,
      "t": 96375,
      "d": 0.78125,
      "v": 100
    },
    {
      "midi": 79,
      "hit": false,
      "t": 96375,
      "d": 187.5,
      "v": 100
    },
    {
      "midi": 54,
      "hit": false,
      "t": 96375,
      "d": 93.75,
      "v": 100
    },
    {
      "midi": 50,
      "hit": false,
      "t": 96375,
      "d": 93.75,
      "v": 100
    },
    {
      "midi": 47,
      "hit": false,
      "t": 96375,
      "d": 46.875,
      "v": 100
    },
    {
      "midi": 50,
      "hit": false,
      "t": 96421.875,
      "d": 140.625,
      "v": 100
    },
    {
      "midi": 50,
      "hit": false,
      "t": 96421.875,
      "d": 140.625,
      "v": 100
    },
    {
      "midi": 54,
      "hit": false,
      "t": 96468.75,
      "d": 93.75,
      "v": 100
    },
    {
      "midi": 54,
      "hit": false,
      "t": 96468.75,
      "d": 93.75,
      "v": 100
    },
    {
      "midi": 78,
      "hit": false,
      "t": 96562.5,
      "d": 375,
      "v": 100
    },
    {
      "midi": 54,
      "hit": false,
      "t": 96562.5,
      "d": 93.75,
      "v": 100
    },
    {
      "midi": 50,
      "hit": false,
      "t": 96562.5,
      "d": 93.75,
      "v": 100
    },
    {
      "midi": 78,
      "hit": false,
      "t": 96562.5,
      "d": 375,
      "v": 100
    },
    {
      "midi": 54,
      "hit": false,
      "t": 96562.5,
      "d": 93.75,
      "v": 100
    },
    {
      "midi": 50,
      "hit": false,
      "t": 96562.5,
      "d": 93.75,
      "v": 100
    },
    {
      "midi": 54,
      "hit": false,
      "t": 96750,
      "d": 93.75,
      "v": 100
    },
    {
      "midi": 50,
      "hit": false,
      "t": 96750,
      "d": 93.75,
      "v": 100
    },
    {
      "midi": 43,
      "hit": false,
      "t": 96750,
      "d": 0.78125,
      "v": 100
    },
    {
      "midi": 38,
      "hit": false,
      "t": 96750,
      "d": 0.78125,
      "v": 100
    },
    {
      "midi": 54,
      "hit": false,
      "t": 96750,
      "d": 93.75,
      "v": 100
    },
    {
      "midi": 50,
      "hit": false,
      "t": 96750,
      "d": 93.75,
      "v": 100
    },
    {
      "midi": 43,
      "hit": false,
      "t": 96843.75,
      "d": 0.78125,
      "v": 100
    },
    {
      "midi": 38,
      "hit": false,
      "t": 96843.75,
      "d": 0.78125,
      "v": 100
    },
    {
      "midi": 76,
      "hit": false,
      "t": 96937.5,
      "d": 375,
      "v": 100
    },
    {
      "midi": 54,
      "hit": false,
      "t": 96937.5,
      "d": 93.75,
      "v": 100
    },
    {
      "midi": 50,
      "hit": false,
      "t": 96937.5,
      "d": 93.75,
      "v": 100
    },
    {
      "midi": 47,
      "hit": false,
      "t": 96937.5,
      "d": 46.875,
      "v": 100
    },
    {
      "midi": 38,
      "hit": false,
      "t": 96937.5,
      "d": 0.78125,
      "v": 100
    },
    {
      "midi": 76,
      "hit": false,
      "t": 96937.5,
      "d": 375,
      "v": 100
    },
    {
      "midi": 54,
      "hit": false,
      "t": 96937.5,
      "d": 93.75,
      "v": 100
    },
    {
      "midi": 50,
      "hit": false,
      "t": 96937.5,
      "d": 93.75,
      "v": 100
    },
    {
      "midi": 47,
      "hit": false,
      "t": 96937.5,
      "d": 46.875,
      "v": 100
    },
    {
      "midi": 50,
      "hit": false,
      "t": 96984.375,
      "d": 140.625,
      "v": 100
    },
    {
      "midi": 50,
      "hit": false,
      "t": 96984.375,
      "d": 140.625,
      "v": 100
    },
    {
      "midi": 54,
      "hit": false,
      "t": 97031.25,
      "d": 93.75,
      "v": 100
    },
    {
      "midi": 43,
      "hit": false,
      "t": 97031.25,
      "d": 0.78125,
      "v": 100
    },
    {
      "midi": 38,
      "hit": false,
      "t": 97031.25,
      "d": 0.78125,
      "v": 100
    },
    {
      "midi": 54,
      "hit": false,
      "t": 97031.25,
      "d": 93.75,
      "v": 100
    },
    {
      "midi": 54,
      "hit": false,
      "t": 97125,
      "d": 93.75,
      "v": 100
    },
    {
      "midi": 50,
      "hit": false,
      "t": 97125,
      "d": 93.75,
      "v": 100
    },
    {
      "midi": 45,
      "hit": false,
      "t": 97125,
      "d": 0.78125,
      "v": 100
    },
    {
      "midi": 38,
      "hit": false,
      "t": 97125,
      "d": 0.78125,
      "v": 100
    },
    {
      "midi": 54,
      "hit": false,
      "t": 97125,
      "d": 93.75,
      "v": 100
    },
    {
      "midi": 50,
      "hit": false,
      "t": 97125,
      "d": 93.75,
      "v": 100
    },
    {
      "midi": 45,
      "hit": false,
      "t": 97218.75,
      "d": 0.78125,
      "v": 100
    },
    {
      "midi": 38,
      "hit": false,
      "t": 97218.75,
      "d": 0.78125,
      "v": 100
    },
    {
      "midi": 78,
      "hit": false,
      "t": 97312.5,
      "d": 468.75,
      "v": 100
    },
    {
      "midi": 54,
      "hit": false,
      "t": 97312.5,
      "d": 93.75,
      "v": 100
    },
    {
      "midi": 50,
      "hit": false,
      "t": 97312.5,
      "d": 93.75,
      "v": 100
    },
    {
      "midi": 43,
      "hit": false,
      "t": 97312.5,
      "d": 0.78125,
      "v": 100
    },
    {
      "midi": 38,
      "hit": false,
      "t": 97312.5,
      "d": 0.78125,
      "v": 100
    },
    {
      "midi": 78,
      "hit": false,
      "t": 97312.5,
      "d": 468.75,
      "v": 100
    },
    {
      "midi": 54,
      "hit": false,
      "t": 97312.5,
      "d": 93.75,
      "v": 100
    },
    {
      "midi": 50,
      "hit": false,
      "t": 97312.5,
      "d": 93.75,
      "v": 100
    },
    {
      "midi": 41,
      "hit": false,
      "t": 97406.25,
      "d": 0.78125,
      "v": 100
    },
    {
      "midi": 38,
      "hit": false,
      "t": 97406.25,
      "d": 0.78125,
      "v": 100
    },
    {
      "midi": 52,
      "hit": false,
      "t": 97500,
      "d": 234.375,
      "v": 100
    },
    {
      "midi": 49,
      "hit": false,
      "t": 97500,
      "d": 234.375,
      "v": 100
    },
    {
      "midi": 43,
      "hit": false,
      "t": 97500,
      "d": 1500,
      "v": 100
    },
    {
      "midi": 36,
      "hit": false,
      "t": 97500,
      "d": 0.78125,
      "v": 100
    },
    {
      "midi": 55,
      "hit": false,
      "t": 97500,
      "d": 0.78125,
      "v": 100
    },
    {
      "midi": 40,
      "hit": false,
      "t": 97500,
      "d": 0.78125,
      "v": 100
    },
    {
      "midi": 38,
      "hit": false,
      "t": 97500,
      "d": 0.78125,
      "v": 100
    },
    {
      "midi": 52,
      "hit": false,
      "t": 97500,
      "d": 234.375,
      "v": 100
    },
    {
      "midi": 49,
      "hit": false,
      "t": 97500,
      "d": 234.375,
      "v": 100
    },
    {
      "midi": 76,
      "hit": false,
      "t": 97687.5,
      "d": 187.5,
      "v": 100
    },
    {
      "midi": 88,
      "hit": false,
      "t": 97687.5,
      "d": 187.5,
      "v": 100
    },
    {
      "midi": 52,
      "hit": false,
      "t": 97875,
      "d": 187.5,
      "v": 100
    },
    {
      "midi": 49,
      "hit": false,
      "t": 97875,
      "d": 187.5,
      "v": 100
    },
    {
      "midi": 74,
      "hit": false,
      "t": 97875,
      "d": 187.5,
      "v": 100
    },
    {
      "midi": 55,
      "hit": false,
      "t": 97875,
      "d": 0.78125,
      "v": 100
    },
    {
      "midi": 40,
      "hit": false,
      "t": 97875,
      "d": 0.78125,
      "v": 100
    },
    {
      "midi": 36,
      "hit": false,
      "t": 97875,
      "d": 0.78125,
      "v": 100
    },
    {
      "midi": 38,
      "hit": false,
      "t": 97875,
      "d": 0.78125,
      "v": 100
    },
    {
      "midi": 86,
      "hit": false,
      "t": 97875,
      "d": 187.5,
      "v": 100
    },
    {
      "midi": 52,
      "hit": false,
      "t": 97875,
      "d": 187.5,
      "v": 100
    },
    {
      "midi": 49,
      "hit": false,
      "t": 97875,
      "d": 187.5,
      "v": 100
    },
    {
      "midi": 50,
      "hit": false,
      "t": 98062.5,
      "d": 187.5,
      "v": 100
    },
    {
      "midi": 54,
      "hit": false,
      "t": 98062.5,
      "d": 187.5,
      "v": 100
    },
    {
      "midi": 73,
      "hit": false,
      "t": 98062.5,
      "d": 187.5,
      "v": 100
    },
    {
      "midi": 85,
      "hit": false,
      "t": 98062.5,
      "d": 187.5,
      "v": 100
    },
    {
      "midi": 50,
      "hit": false,
      "t": 98062.5,
      "d": 187.5,
      "v": 100
    },
    {
      "midi": 54,
      "hit": false,
      "t": 98062.5,
      "d": 187.5,
      "v": 100
    },
    {
      "midi": 52,
      "hit": false,
      "t": 98250,
      "d": 93.75,
      "v": 100
    },
    {
      "midi": 49,
      "hit": false,
      "t": 98250,
      "d": 93.75,
      "v": 100
    },
    {
      "midi": 52,
      "hit": false,
      "t": 98250,
      "d": 187.5,
      "v": 100
    },
    {
      "midi": 49,
      "hit": false,
      "t": 98250,
      "d": 187.5,
      "v": 100
    },
    {
      "midi": 76,
      "hit": false,
      "t": 98250,
      "d": 187.5,
      "v": 100
    },
    {
      "midi": 36,
      "hit": false,
      "t": 98250,
      "d": 0.78125,
      "v": 100
    },
    {
      "midi": 38,
      "hit": false,
      "t": 98250,
      "d": 0.78125,
      "v": 100
    },
    {
      "midi": 88,
      "hit": false,
      "t": 98250,
      "d": 187.5,
      "v": 100
    },
    {
      "midi": 52,
      "hit": false,
      "t": 98250,
      "d": 93.75,
      "v": 100
    },
    {
      "midi": 49,
      "hit": false,
      "t": 98250,
      "d": 93.75,
      "v": 100
    },
    {
      "midi": 52,
      "hit": false,
      "t": 98250,
      "d": 187.5,
      "v": 100
    },
    {
      "midi": 49,
      "hit": false,
      "t": 98250,
      "d": 187.5,
      "v": 100
    },
    {
      "midi": 40,
      "hit": false,
      "t": 98343.75,
      "d": 0.78125,
      "v": 100
    },
    {
      "midi": 52,
      "hit": false,
      "t": 98437.5,
      "d": 93.75,
      "v": 100
    },
    {
      "midi": 49,
      "hit": false,
      "t": 98437.5,
      "d": 93.75,
      "v": 100
    },
    {
      "midi": 54,
      "hit": false,
      "t": 98437.5,
      "d": 93.75,
      "v": 100
    },
    {
      "midi": 50,
      "hit": false,
      "t": 98437.5,
      "d": 93.75,
      "v": 100
    },
    {
      "midi": 74,
      "hit": false,
      "t": 98437.5,
      "d": 187.5,
      "v": 100
    },
    {
      "midi": 36,
      "hit": false,
      "t": 98437.5,
      "d": 0.78125,
      "v": 100
    },
    {
      "midi": 86,
      "hit": false,
      "t": 98437.5,
      "d": 187.5,
      "v": 100
    },
    {
      "midi": 52,
      "hit": false,
      "t": 98437.5,
      "d": 93.75,
      "v": 100
    },
    {
      "midi": 49,
      "hit": false,
      "t": 98437.5,
      "d": 93.75,
      "v": 100
    },
    {
      "midi": 54,
      "hit": false,
      "t": 98437.5,
      "d": 93.75,
      "v": 100
    },
    {
      "midi": 50,
      "hit": false,
      "t": 98437.5,
      "d": 93.75,
      "v": 100
    },
    {
      "midi": 52,
      "hit": false,
      "t": 98531.25,
      "d": 281.25,
      "v": 100
    },
    {
      "midi": 49,
      "hit": false,
      "t": 98531.25,
      "d": 281.25,
      "v": 100
    },
    {
      "midi": 38,
      "hit": false,
      "t": 98531.25,
      "d": 0.78125,
      "v": 100
    },
    {
      "midi": 52,
      "hit": false,
      "t": 98531.25,
      "d": 281.25,
      "v": 100
    },
    {
      "midi": 49,
      "hit": false,
      "t": 98531.25,
      "d": 281.25,
      "v": 100
    },
    {
      "midi": 52,
      "hit": false,
      "t": 98625,
      "d": 93.75,
      "v": 100
    },
    {
      "midi": 49,
      "hit": false,
      "t": 98625,
      "d": 93.75,
      "v": 100
    },
    {
      "midi": 73,
      "hit": false,
      "t": 98625,
      "d": 187.5,
      "v": 100
    },
    {
      "midi": 85,
      "hit": false,
      "t": 98625,
      "d": 187.5,
      "v": 100
    },
    {
      "midi": 52,
      "hit": false,
      "t": 98625,
      "d": 93.75,
      "v": 100
    },
    {
      "midi": 49,
      "hit": false,
      "t": 98625,
      "d": 93.75,
      "v": 100
    },
    {
      "midi": 38,
      "hit": false,
      "t": 98718.75,
      "d": 0.78125,
      "v": 100
    },
    {
      "midi": 52,
      "hit": false,
      "t": 98812.5,
      "d": 93.75,
      "v": 100
    },
    {
      "midi": 49,
      "hit": false,
      "t": 98812.5,
      "d": 93.75,
      "v": 100
    },
    {
      "midi": 71,
      "hit": false,
      "t": 98812.5,
      "d": 187.5,
      "v": 100
    },
    {
      "midi": 38,
      "hit": false,
      "t": 98812.5,
      "d": 0.78125,
      "v": 100
    },
    {
      "midi": 83,
      "hit": false,
      "t": 98812.5,
      "d": 187.5,
      "v": 100
    },
    {
      "midi": 52,
      "hit": false,
      "t": 98812.5,
      "d": 93.75,
      "v": 100
    },
    {
      "midi": 49,
      "hit": false,
      "t": 98812.5,
      "d": 93.75,
      "v": 100
    },
    {
      "midi": 38,
      "hit": false,
      "t": 98906.25,
      "d": 0.78125,
      "v": 100
    },
    {
      "midi": 78,
      "hit": false,
      "t": 99000,
      "d": 375,
      "v": 100
    },
    {
      "midi": 78,
      "hit": false,
      "t": 99000,
      "d": 1500,
      "v": 100
    },
    {
      "midi": 66,
      "hit": false,
      "t": 99000,
      "d": 93.75,
      "v": 100
    },
    {
      "midi": 62,
      "hit": false,
      "t": 99000,
      "d": 93.75,
      "v": 100
    },
    {
      "midi": 50,
      "hit": false,
      "t": 99000,
      "d": 46.875,
      "v": 100
    },
    {
      "midi": 47,
      "hit": false,
      "t": 99000,
      "d": 46.875,
      "v": 100
    },
    {
      "midi": 42,
      "hit": false,
      "t": 99000,
      "d": 1500,
      "v": 100
    },
    {
      "midi": 78,
      "hit": false,
      "t": 99000,
      "d": 187.5,
      "v": 100
    },
    {
      "midi": 36,
      "hit": false,
      "t": 99000,
      "d": 0.78125,
      "v": 100
    },
    {
      "midi": 78,
      "hit": false,
      "t": 99000,
      "d": 375,
      "v": 100
    },
    {
      "midi": 78,
      "hit": false,
      "t": 99000,
      "d": 1500,
      "v": 100
    },
    {
      "midi": 66,
      "hit": false,
      "t": 99000,
      "d": 93.75,
      "v": 100
    },
    {
      "midi": 62,
      "hit": false,
      "t": 99000,
      "d": 93.75,
      "v": 100
    },
    {
      "midi": 50,
      "hit": false,
      "t": 99000,
      "d": 46.875,
      "v": 100
    },
    {
      "midi": 47,
      "hit": false,
      "t": 99000,
      "d": 46.875,
      "v": 100
    },
    {
      "midi": 52,
      "hit": false,
      "t": 99046.875,
      "d": 46.875,
      "v": 100
    },
    {
      "midi": 49,
      "hit": false,
      "t": 99046.875,
      "d": 46.875,
      "v": 100
    },
    {
      "midi": 52,
      "hit": false,
      "t": 99046.875,
      "d": 46.875,
      "v": 100
    },
    {
      "midi": 49,
      "hit": false,
      "t": 99046.875,
      "d": 46.875,
      "v": 100
    },
    {
      "midi": 54,
      "hit": false,
      "t": 99093.75,
      "d": 93.75,
      "v": 100
    },
    {
      "midi": 50,
      "hit": false,
      "t": 99093.75,
      "d": 93.75,
      "v": 100
    },
    {
      "midi": 54,
      "hit": false,
      "t": 99093.75,
      "d": 93.75,
      "v": 100
    },
    {
      "midi": 50,
      "hit": false,
      "t": 99093.75,
      "d": 93.75,
      "v": 100
    },
    {
      "midi": 66,
      "hit": false,
      "t": 99187.5,
      "d": 93.75,
      "v": 100
    },
    {
      "midi": 62,
      "hit": false,
      "t": 99187.5,
      "d": 93.75,
      "v": 100
    },
    {
      "midi": 66,
      "hit": false,
      "t": 99187.5,
      "d": 93.75,
      "v": 100
    },
    {
      "midi": 62,
      "hit": false,
      "t": 99187.5,
      "d": 93.75,
      "v": 100
    },
    {
      "midi": 66,
      "hit": false,
      "t": 99375,
      "d": 93.75,
      "v": 100
    },
    {
      "midi": 62,
      "hit": false,
      "t": 99375,
      "d": 93.75,
      "v": 100
    },
    {
      "midi": 54,
      "hit": false,
      "t": 99375,
      "d": 93.75,
      "v": 100
    },
    {
      "midi": 50,
      "hit": false,
      "t": 99375,
      "d": 93.75,
      "v": 100
    },
    {
      "midi": 38,
      "hit": false,
      "t": 99375,
      "d": 0.78125,
      "v": 100
    },
    {
      "midi": 66,
      "hit": false,
      "t": 99375,
      "d": 93.75,
      "v": 100
    },
    {
      "midi": 62,
      "hit": false,
      "t": 99375,
      "d": 93.75,
      "v": 100
    },
    {
      "midi": 54,
      "hit": false,
      "t": 99375,
      "d": 93.75,
      "v": 100
    },
    {
      "midi": 50,
      "hit": false,
      "t": 99375,
      "d": 93.75,
      "v": 100
    },
    {
      "midi": 66,
      "hit": false,
      "t": 99562.5,
      "d": 93.75,
      "v": 100
    },
    {
      "midi": 62,
      "hit": false,
      "t": 99562.5,
      "d": 93.75,
      "v": 100
    },
    {
      "midi": 54,
      "hit": false,
      "t": 99562.5,
      "d": 937.5,
      "v": 100
    },
    {
      "midi": 50,
      "hit": false,
      "t": 99562.5,
      "d": 937.5,
      "v": 100
    },
    {
      "midi": 57,
      "hit": false,
      "t": 99562.5,
      "d": 0.78125,
      "v": 100
    },
    {
      "midi": 66,
      "hit": false,
      "t": 99562.5,
      "d": 93.75,
      "v": 100
    },
    {
      "midi": 62,
      "hit": false,
      "t": 99562.5,
      "d": 93.75,
      "v": 100
    },
    {
      "midi": 54,
      "hit": false,
      "t": 99562.5,
      "d": 937.5,
      "v": 100
    },
    {
      "midi": 50,
      "hit": false,
      "t": 99562.5,
      "d": 937.5,
      "v": 100
    },
    {
      "midi": 36,
      "hit": false,
      "t": 99750,
      "d": 0.78125,
      "v": 100
    },
    {
      "midi": 78,
      "hit": false,
      "t": 99937.5,
      "d": 187.5,
      "v": 100
    },
    {
      "midi": 66,
      "hit": false,
      "t": 99937.5,
      "d": 93.75,
      "v": 100
    },
    {
      "midi": 62,
      "hit": false,
      "t": 99937.5,
      "d": 93.75,
      "v": 100
    },
    {
      "midi": 36,
      "hit": false,
      "t": 99937.5,
      "d": 0.78125,
      "v": 100
    },
    {
      "midi": 78,
      "hit": false,
      "t": 99937.5,
      "d": 187.5,
      "v": 100
    },
    {
      "midi": 66,
      "hit": false,
      "t": 99937.5,
      "d": 93.75,
      "v": 100
    },
    {
      "midi": 62,
      "hit": false,
      "t": 99937.5,
      "d": 93.75,
      "v": 100
    },
    {
      "midi": 76,
      "hit": false,
      "t": 100125,
      "d": 187.5,
      "v": 100
    },
    {
      "midi": 66,
      "hit": false,
      "t": 100125,
      "d": 93.75,
      "v": 100
    },
    {
      "midi": 62,
      "hit": false,
      "t": 100125,
      "d": 93.75,
      "v": 100
    },
    {
      "midi": 40,
      "hit": false,
      "t": 100125,
      "d": 0.78125,
      "v": 100
    },
    {
      "midi": 76,
      "hit": false,
      "t": 100125,
      "d": 187.5,
      "v": 100
    },
    {
      "midi": 66,
      "hit": false,
      "t": 100125,
      "d": 93.75,
      "v": 100
    },
    {
      "midi": 62,
      "hit": false,
      "t": 100125,
      "d": 93.75,
      "v": 100
    },
    {
      "midi": 74,
      "hit": false,
      "t": 100312.5,
      "d": 187.5,
      "v": 100
    },
    {
      "midi": 74,
      "hit": false,
      "t": 100312.5,
      "d": 187.5,
      "v": 100
    },
    {
      "midi": 73,
      "hit": false,
      "t": 100500,
      "d": 140.625,
      "v": 100
    },
    {
      "midi": 74,
      "hit": false,
      "t": 100500,
      "d": 1500,
      "v": 100
    },
    {
      "midi": 61,
      "hit": false,
      "t": 100500,
      "d": 93.75,
      "v": 100
    },
    {
      "midi": 57,
      "hit": false,
      "t": 100500,
      "d": 93.75,
      "v": 100
    },
    {
      "midi": 43,
      "hit": false,
      "t": 100500,
      "d": 46.875,
      "v": 100
    },
    {
      "midi": 38,
      "hit": false,
      "t": 100500,
      "d": 1500,
      "v": 100
    },
    {
      "midi": 64,
      "hit": false,
      "t": 100500,
      "d": 750,
      "v": 100
    },
    {
      "midi": 36,
      "hit": false,
      "t": 100500,
      "d": 0.78125,
      "v": 100
    },
    {
      "midi": 73,
      "hit": false,
      "t": 100500,
      "d": 140.625,
      "v": 100
    },
    {
      "midi": 74,
      "hit": false,
      "t": 100500,
      "d": 1500,
      "v": 100
    },
    {
      "midi": 61,
      "hit": false,
      "t": 100500,
      "d": 93.75,
      "v": 100
    },
    {
      "midi": 57,
      "hit": false,
      "t": 100500,
      "d": 93.75,
      "v": 100
    },
    {
      "midi": 43,
      "hit": false,
      "t": 100500,
      "d": 46.875,
      "v": 100
    },
    {
      "midi": 47,
      "hit": false,
      "t": 100546.875,
      "d": 656.25,
      "v": 100
    },
    {
      "midi": 47,
      "hit": false,
      "t": 100546.875,
      "d": 656.25,
      "v": 100
    },
    {
      "midi": 50,
      "hit": false,
      "t": 100593.75,
      "d": 609.375,
      "v": 100
    },
    {
      "midi": 50,
      "hit": false,
      "t": 100593.75,
      "d": 609.375,
      "v": 100
    },
    {
      "midi": 73,
      "hit": false,
      "t": 100687.5,
      "d": 281.25,
      "v": 100
    },
    {
      "midi": 61,
      "hit": false,
      "t": 100687.5,
      "d": 93.75,
      "v": 100
    },
    {
      "midi": 57,
      "hit": false,
      "t": 100687.5,
      "d": 93.75,
      "v": 100
    },
    {
      "midi": 36,
      "hit": false,
      "t": 100687.5,
      "d": 0.78125,
      "v": 100
    },
    {
      "midi": 73,
      "hit": false,
      "t": 100687.5,
      "d": 281.25,
      "v": 100
    },
    {
      "midi": 61,
      "hit": false,
      "t": 100687.5,
      "d": 93.75,
      "v": 100
    },
    {
      "midi": 57,
      "hit": false,
      "t": 100687.5,
      "d": 93.75,
      "v": 100
    },
    {
      "midi": 40,
      "hit": false,
      "t": 100875,
      "d": 0.78125,
      "v": 100
    },
    {
      "midi": 69,
      "hit": false,
      "t": 100968.75,
      "d": 656.25,
      "v": 100
    },
    {
      "midi": 69,
      "hit": false,
      "t": 100968.75,
      "d": 656.25,
      "v": 100
    },
    {
      "midi": 61,
      "hit": false,
      "t": 101250,
      "d": 93.75,
      "v": 100
    },
    {
      "midi": 57,
      "hit": false,
      "t": 101250,
      "d": 93.75,
      "v": 100
    },
    {
      "midi": 43,
      "hit": false,
      "t": 101250,
      "d": 46.875,
      "v": 100
    },
    {
      "midi": 62,
      "hit": false,
      "t": 101250,
      "d": 375,
      "v": 100
    },
    {
      "midi": 36,
      "hit": false,
      "t": 101250,
      "d": 0.78125,
      "v": 100
    },
    {
      "midi": 61,
      "hit": false,
      "t": 101250,
      "d": 93.75,
      "v": 100
    },
    {
      "midi": 57,
      "hit": false,
      "t": 101250,
      "d": 93.75,
      "v": 100
    },
    {
      "midi": 43,
      "hit": false,
      "t": 101250,
      "d": 46.875,
      "v": 100
    },
    {
      "midi": 47,
      "hit": false,
      "t": 101296.875,
      "d": 656.25,
      "v": 100
    },
    {
      "midi": 47,
      "hit": false,
      "t": 101296.875,
      "d": 656.25,
      "v": 100
    },
    {
      "midi": 50,
      "hit": false,
      "t": 101343.75,
      "d": 609.375,
      "v": 100
    },
    {
      "midi": 50,
      "hit": false,
      "t": 101343.75,
      "d": 609.375,
      "v": 100
    },
    {
      "midi": 61,
      "hit": false,
      "t": 101437.5,
      "d": 93.75,
      "v": 100
    },
    {
      "midi": 57,
      "hit": false,
      "t": 101437.5,
      "d": 93.75,
      "v": 100
    },
    {
      "midi": 36,
      "hit": false,
      "t": 101437.5,
      "d": 0.78125,
      "v": 100
    },
    {
      "midi": 61,
      "hit": false,
      "t": 101437.5,
      "d": 93.75,
      "v": 100
    },
    {
      "midi": 57,
      "hit": false,
      "t": 101437.5,
      "d": 93.75,
      "v": 100
    },
    {
      "midi": 64,
      "hit": false,
      "t": 101625,
      "d": 375,
      "v": 100
    },
    {
      "midi": 40,
      "hit": false,
      "t": 101625,
      "d": 0.78125,
      "v": 100
    },
    {
      "midi": 55,
      "hit": false,
      "t": 101625,
      "d": 0.78125,
      "v": 100
    },
    {
      "midi": 69,
      "hit": false,
      "t": 101765.625,
      "d": 234.375,
      "v": 100
    },
    {
      "midi": 69,
      "hit": false,
      "t": 101765.625,
      "d": 140.625,
      "v": 100
    },
    {
      "midi": 69,
      "hit": false,
      "t": 101765.625,
      "d": 234.375,
      "v": 100
    },
    {
      "midi": 78,
      "hit": false,
      "t": 102000,
      "d": 375,
      "v": 100
    },
    {
      "midi": 78,
      "hit": false,
      "t": 102000,
      "d": 1500,
      "v": 100
    },
    {
      "midi": 66,
      "hit": false,
      "t": 102000,
      "d": 93.75,
      "v": 100
    },
    {
      "midi": 62,
      "hit": false,
      "t": 102000,
      "d": 93.75,
      "v": 100
    },
    {
      "midi": 50,
      "hit": false,
      "t": 102000,
      "d": 46.875,
      "v": 100
    },
    {
      "midi": 47,
      "hit": false,
      "t": 102000,
      "d": 46.875,
      "v": 100
    },
    {
      "midi": 42,
      "hit": false,
      "t": 102000,
      "d": 1500,
      "v": 100
    },
    {
      "midi": 78,
      "hit": false,
      "t": 102000,
      "d": 187.5,
      "v": 100
    },
    {
      "midi": 66,
      "hit": false,
      "t": 102000,
      "d": 750,
      "v": 100
    },
    {
      "midi": 36,
      "hit": false,
      "t": 102000,
      "d": 0.78125,
      "v": 100
    },
    {
      "midi": 55,
      "hit": false,
      "t": 102000,
      "d": 0.78125,
      "v": 100
    },
    {
      "midi": 78,
      "hit": false,
      "t": 102000,
      "d": 375,
      "v": 100
    },
    {
      "midi": 78,
      "hit": false,
      "t": 102000,
      "d": 1500,
      "v": 100
    },
    {
      "midi": 66,
      "hit": false,
      "t": 102000,
      "d": 93.75,
      "v": 100
    },
    {
      "midi": 62,
      "hit": false,
      "t": 102000,
      "d": 93.75,
      "v": 100
    },
    {
      "midi": 50,
      "hit": false,
      "t": 102000,
      "d": 46.875,
      "v": 100
    },
    {
      "midi": 47,
      "hit": false,
      "t": 102000,
      "d": 46.875,
      "v": 100
    },
    {
      "midi": 52,
      "hit": false,
      "t": 102046.875,
      "d": 46.875,
      "v": 100
    },
    {
      "midi": 49,
      "hit": false,
      "t": 102046.875,
      "d": 46.875,
      "v": 100
    },
    {
      "midi": 52,
      "hit": false,
      "t": 102046.875,
      "d": 46.875,
      "v": 100
    },
    {
      "midi": 49,
      "hit": false,
      "t": 102046.875,
      "d": 46.875,
      "v": 100
    },
    {
      "midi": 54,
      "hit": false,
      "t": 102093.75,
      "d": 93.75,
      "v": 100
    },
    {
      "midi": 50,
      "hit": false,
      "t": 102093.75,
      "d": 93.75,
      "v": 100
    },
    {
      "midi": 54,
      "hit": false,
      "t": 102093.75,
      "d": 93.75,
      "v": 100
    },
    {
      "midi": 50,
      "hit": false,
      "t": 102093.75,
      "d": 93.75,
      "v": 100
    },
    {
      "midi": 66,
      "hit": false,
      "t": 102187.5,
      "d": 93.75,
      "v": 100
    },
    {
      "midi": 62,
      "hit": false,
      "t": 102187.5,
      "d": 93.75,
      "v": 100
    },
    {
      "midi": 66,
      "hit": false,
      "t": 102187.5,
      "d": 93.75,
      "v": 100
    },
    {
      "midi": 62,
      "hit": false,
      "t": 102187.5,
      "d": 93.75,
      "v": 100
    },
    {
      "midi": 66,
      "hit": false,
      "t": 102375,
      "d": 93.75,
      "v": 100
    },
    {
      "midi": 62,
      "hit": false,
      "t": 102375,
      "d": 93.75,
      "v": 100
    },
    {
      "midi": 54,
      "hit": false,
      "t": 102375,
      "d": 93.75,
      "v": 100
    },
    {
      "midi": 50,
      "hit": false,
      "t": 102375,
      "d": 93.75,
      "v": 100
    },
    {
      "midi": 38,
      "hit": false,
      "t": 102375,
      "d": 0.78125,
      "v": 100
    },
    {
      "midi": 66,
      "hit": false,
      "t": 102375,
      "d": 93.75,
      "v": 100
    },
    {
      "midi": 62,
      "hit": false,
      "t": 102375,
      "d": 93.75,
      "v": 100
    },
    {
      "midi": 54,
      "hit": false,
      "t": 102375,
      "d": 93.75,
      "v": 100
    },
    {
      "midi": 50,
      "hit": false,
      "t": 102375,
      "d": 93.75,
      "v": 100
    },
    {
      "midi": 66,
      "hit": false,
      "t": 102562.5,
      "d": 93.75,
      "v": 100
    },
    {
      "midi": 62,
      "hit": false,
      "t": 102562.5,
      "d": 93.75,
      "v": 100
    },
    {
      "midi": 54,
      "hit": false,
      "t": 102562.5,
      "d": 937.5,
      "v": 100
    },
    {
      "midi": 50,
      "hit": false,
      "t": 102562.5,
      "d": 937.5,
      "v": 100
    },
    {
      "midi": 57,
      "hit": false,
      "t": 102562.5,
      "d": 0.78125,
      "v": 100
    },
    {
      "midi": 66,
      "hit": false,
      "t": 102562.5,
      "d": 93.75,
      "v": 100
    },
    {
      "midi": 62,
      "hit": false,
      "t": 102562.5,
      "d": 93.75,
      "v": 100
    },
    {
      "midi": 54,
      "hit": false,
      "t": 102562.5,
      "d": 937.5,
      "v": 100
    },
    {
      "midi": 50,
      "hit": false,
      "t": 102562.5,
      "d": 937.5,
      "v": 100
    },
    {
      "midi": 36,
      "hit": false,
      "t": 102750,
      "d": 0.78125,
      "v": 100
    },
    {
      "midi": 78,
      "hit": false,
      "t": 102937.5,
      "d": 187.5,
      "v": 100
    },
    {
      "midi": 36,
      "hit": false,
      "t": 102937.5,
      "d": 0.78125,
      "v": 100
    },
    {
      "midi": 78,
      "hit": false,
      "t": 102937.5,
      "d": 187.5,
      "v": 100
    },
    {
      "midi": 76,
      "hit": false,
      "t": 103125,
      "d": 187.5,
      "v": 100
    },
    {
      "midi": 40,
      "hit": false,
      "t": 103125,
      "d": 0.78125,
      "v": 100
    },
    {
      "midi": 76,
      "hit": false,
      "t": 103125,
      "d": 187.5,
      "v": 100
    },
    {
      "midi": 74,
      "hit": false,
      "t": 103312.5,
      "d": 187.5,
      "v": 100
    },
    {
      "midi": 74,
      "hit": false,
      "t": 103312.5,
      "d": 187.5,
      "v": 100
    },
    {
      "midi": 73,
      "hit": false,
      "t": 103500,
      "d": 281.25,
      "v": 100
    },
    {
      "midi": 74,
      "hit": false,
      "t": 103500,
      "d": 1500,
      "v": 100
    },
    {
      "midi": 61,
      "hit": false,
      "t": 103500,
      "d": 93.75,
      "v": 100
    },
    {
      "midi": 57,
      "hit": false,
      "t": 103500,
      "d": 93.75,
      "v": 100
    },
    {
      "midi": 43,
      "hit": false,
      "t": 103500,
      "d": 46.875,
      "v": 100
    },
    {
      "midi": 38,
      "hit": false,
      "t": 103500,
      "d": 1500,
      "v": 100
    },
    {
      "midi": 36,
      "hit": false,
      "t": 103500,
      "d": 0.78125,
      "v": 100
    },
    {
      "midi": 73,
      "hit": false,
      "t": 103500,
      "d": 281.25,
      "v": 100
    },
    {
      "midi": 74,
      "hit": false,
      "t": 103500,
      "d": 1500,
      "v": 100
    },
    {
      "midi": 61,
      "hit": false,
      "t": 103500,
      "d": 93.75,
      "v": 100
    },
    {
      "midi": 57,
      "hit": false,
      "t": 103500,
      "d": 93.75,
      "v": 100
    },
    {
      "midi": 43,
      "hit": false,
      "t": 103500,
      "d": 46.875,
      "v": 100
    },
    {
      "midi": 47,
      "hit": false,
      "t": 103546.875,
      "d": 656.25,
      "v": 100
    },
    {
      "midi": 47,
      "hit": false,
      "t": 103546.875,
      "d": 656.25,
      "v": 100
    },
    {
      "midi": 50,
      "hit": false,
      "t": 103593.75,
      "d": 609.375,
      "v": 100
    },
    {
      "midi": 50,
      "hit": false,
      "t": 103593.75,
      "d": 609.375,
      "v": 100
    },
    {
      "midi": 61,
      "hit": false,
      "t": 103687.5,
      "d": 93.75,
      "v": 100
    },
    {
      "midi": 57,
      "hit": false,
      "t": 103687.5,
      "d": 93.75,
      "v": 100
    },
    {
      "midi": 36,
      "hit": false,
      "t": 103687.5,
      "d": 0.78125,
      "v": 100
    },
    {
      "midi": 61,
      "hit": false,
      "t": 103687.5,
      "d": 93.75,
      "v": 100
    },
    {
      "midi": 57,
      "hit": false,
      "t": 103687.5,
      "d": 93.75,
      "v": 100
    },
    {
      "midi": 73,
      "hit": false,
      "t": 103875,
      "d": 93.75,
      "v": 100
    },
    {
      "midi": 40,
      "hit": false,
      "t": 103875,
      "d": 0.78125,
      "v": 100
    },
    {
      "midi": 55,
      "hit": false,
      "t": 103875,
      "d": 0.78125,
      "v": 100
    },
    {
      "midi": 73,
      "hit": false,
      "t": 103875,
      "d": 93.75,
      "v": 100
    },
    {
      "midi": 73,
      "hit": false,
      "t": 104062.5,
      "d": 187.5,
      "v": 100
    },
    {
      "midi": 73,
      "hit": false,
      "t": 104062.5,
      "d": 187.5,
      "v": 100
    },
    {
      "midi": 71,
      "hit": false,
      "t": 104250,
      "d": 187.5,
      "v": 100
    },
    {
      "midi": 61,
      "hit": false,
      "t": 104250,
      "d": 93.75,
      "v": 100
    },
    {
      "midi": 57,
      "hit": false,
      "t": 104250,
      "d": 93.75,
      "v": 100
    },
    {
      "midi": 43,
      "hit": false,
      "t": 104250,
      "d": 46.875,
      "v": 100
    },
    {
      "midi": 66,
      "hit": false,
      "t": 104250,
      "d": 1500,
      "v": 100
    },
    {
      "midi": 36,
      "hit": false,
      "t": 104250,
      "d": 0.78125,
      "v": 100
    },
    {
      "midi": 48,
      "hit": false,
      "t": 104250,
      "d": 0.78125,
      "v": 100
    },
    {
      "midi": 71,
      "hit": false,
      "t": 104250,
      "d": 187.5,
      "v": 100
    },
    {
      "midi": 61,
      "hit": false,
      "t": 104250,
      "d": 93.75,
      "v": 100
    },
    {
      "midi": 57,
      "hit": false,
      "t": 104250,
      "d": 93.75,
      "v": 100
    },
    {
      "midi": 43,
      "hit": false,
      "t": 104250,
      "d": 46.875,
      "v": 100
    },
    {
      "midi": 47,
      "hit": false,
      "t": 104296.875,
      "d": 656.25,
      "v": 100
    },
    {
      "midi": 47,
      "hit": false,
      "t": 104296.875,
      "d": 656.25,
      "v": 100
    },
    {
      "midi": 50,
      "hit": false,
      "t": 104343.75,
      "d": 609.375,
      "v": 100
    },
    {
      "midi": 50,
      "hit": false,
      "t": 104343.75,
      "d": 609.375,
      "v": 100
    },
    {
      "midi": 81,
      "hit": false,
      "t": 104437.5,
      "d": 562.5,
      "v": 100
    },
    {
      "midi": 61,
      "hit": false,
      "t": 104437.5,
      "d": 93.75,
      "v": 100
    },
    {
      "midi": 57,
      "hit": false,
      "t": 104437.5,
      "d": 93.75,
      "v": 100
    },
    {
      "midi": 36,
      "hit": false,
      "t": 104437.5,
      "d": 0.78125,
      "v": 100
    },
    {
      "midi": 47,
      "hit": false,
      "t": 104437.5,
      "d": 0.78125,
      "v": 100
    },
    {
      "midi": 81,
      "hit": false,
      "t": 104437.5,
      "d": 562.5,
      "v": 100
    },
    {
      "midi": 61,
      "hit": false,
      "t": 104437.5,
      "d": 93.75,
      "v": 100
    },
    {
      "midi": 57,
      "hit": false,
      "t": 104437.5,
      "d": 93.75,
      "v": 100
    },
    {
      "midi": 45,
      "hit": false,
      "t": 104625,
      "d": 0.78125,
      "v": 100
    },
    {
      "midi": 36,
      "hit": false,
      "t": 104625,
      "d": 0.78125,
      "v": 100
    },
    {
      "midi": 43,
      "hit": false,
      "t": 104812.5,
      "d": 0.78125,
      "v": 100
    },
    {
      "midi": 36,
      "hit": false,
      "t": 104812.5,
      "d": 0.78125,
      "v": 100
    },
    {
      "midi": 38,
      "hit": false,
      "t": 104906.25,
      "d": 0.78125,
      "v": 100
    },
    {
      "midi": 74,
      "hit": false,
      "t": 105000,
      "d": 562.5,
      "v": 100
    },
    {
      "midi": 73,
      "hit": false,
      "t": 105000,
      "d": 1500,
      "v": 100
    },
    {
      "midi": 42,
      "hit": false,
      "t": 105000,
      "d": 62.5,
      "v": 100
    },
    {
      "midi": 37,
      "hit": false,
      "t": 105000,
      "d": 1500,
      "v": 100
    },
    {
      "midi": 40,
      "hit": false,
      "t": 105000,
      "d": 0.78125,
      "v": 100
    },
    {
      "midi": 74,
      "hit": false,
      "t": 105000,
      "d": 562.5,
      "v": 100
    },
    {
      "midi": 73,
      "hit": false,
      "t": 105000,
      "d": 1500,
      "v": 100
    },
    {
      "midi": 42,
      "hit": false,
      "t": 105000,
      "d": 62.5,
      "v": 100
    },
    {
      "midi": 45,
      "hit": false,
      "t": 105046.875,
      "d": 140.625,
      "v": 100
    },
    {
      "midi": 45,
      "hit": false,
      "t": 105046.875,
      "d": 140.625,
      "v": 100
    },
    {
      "midi": 49,
      "hit": false,
      "t": 105093.75,
      "d": 93.75,
      "v": 100
    },
    {
      "midi": 49,
      "hit": false,
      "t": 105093.75,
      "d": 93.75,
      "v": 100
    },
    {
      "midi": 36,
      "hit": false,
      "t": 105187.5,
      "d": 0.78125,
      "v": 100
    },
    {
      "midi": 51,
      "hit": false,
      "t": 105187.5,
      "d": 0.78125,
      "v": 100
    },
    {
      "midi": 40,
      "hit": false,
      "t": 105375,
      "d": 0.78125,
      "v": 100
    },
    {
      "midi": 42,
      "hit": false,
      "t": 105562.5,
      "d": 62.5,
      "v": 100
    },
    {
      "midi": 36,
      "hit": false,
      "t": 105562.5,
      "d": 0.78125,
      "v": 100
    },
    {
      "midi": 51,
      "hit": false,
      "t": 105562.5,
      "d": 0.78125,
      "v": 100
    },
    {
      "midi": 42,
      "hit": false,
      "t": 105562.5,
      "d": 62.5,
      "v": 100
    },
    {
      "midi": 45,
      "hit": false,
      "t": 105609.375,
      "d": 140.625,
      "v": 100
    },
    {
      "midi": 45,
      "hit": false,
      "t": 105609.375,
      "d": 140.625,
      "v": 100
    },
    {
      "midi": 49,
      "hit": false,
      "t": 105656.25,
      "d": 93.75,
      "v": 100
    },
    {
      "midi": 49,
      "hit": false,
      "t": 105656.25,
      "d": 93.75,
      "v": 100
    },
    {
      "midi": 40,
      "hit": false,
      "t": 105750,
      "d": 0.78125,
      "v": 100
    },
    {
      "midi": 73,
      "hit": false,
      "t": 105937.5,
      "d": 187.5,
      "v": 100
    },
    {
      "midi": 62,
      "hit": false,
      "t": 105937.5,
      "d": 562.5,
      "v": 100
    },
    {
      "midi": 36,
      "hit": false,
      "t": 105937.5,
      "d": 0.78125,
      "v": 100
    },
    {
      "midi": 51,
      "hit": false,
      "t": 105937.5,
      "d": 0.78125,
      "v": 100
    },
    {
      "midi": 73,
      "hit": false,
      "t": 105937.5,
      "d": 187.5,
      "v": 100
    },
    {
      "midi": 74,
      "hit": false,
      "t": 106125,
      "d": 187.5,
      "v": 100
    },
    {
      "midi": 42,
      "hit": false,
      "t": 106125,
      "d": 54.6875,
      "v": 100
    },
    {
      "midi": 40,
      "hit": false,
      "t": 106125,
      "d": 0.78125,
      "v": 100
    },
    {
      "midi": 74,
      "hit": false,
      "t": 106125,
      "d": 187.5,
      "v": 100
    },
    {
      "midi": 42,
      "hit": false,
      "t": 106125,
      "d": 54.6875,
      "v": 100
    },
    {
      "midi": 45,
      "hit": false,
      "t": 106171.875,
      "d": 140.625,
      "v": 100
    },
    {
      "midi": 45,
      "hit": false,
      "t": 106171.875,
      "d": 140.625,
      "v": 100
    },
    {
      "midi": 49,
      "hit": false,
      "t": 106218.75,
      "d": 93.75,
      "v": 100
    },
    {
      "midi": 49,
      "hit": false,
      "t": 106218.75,
      "d": 93.75,
      "v": 100
    },
    {
      "midi": 76,
      "hit": false,
      "t": 106312.5,
      "d": 187.5,
      "v": 100
    },
    {
      "midi": 36,
      "hit": false,
      "t": 106312.5,
      "d": 0.78125,
      "v": 100
    },
    {
      "midi": 51,
      "hit": false,
      "t": 106312.5,
      "d": 0.78125,
      "v": 100
    },
    {
      "midi": 76,
      "hit": false,
      "t": 106312.5,
      "d": 187.5,
      "v": 100
    },
    {
      "midi": 78,
      "hit": false,
      "t": 106500,
      "d": 375,
      "v": 100
    },
    {
      "midi": 74,
      "hit": false,
      "t": 106500,
      "d": 1500,
      "v": 100
    },
    {
      "midi": 43,
      "hit": false,
      "t": 106500,
      "d": 62.5,
      "v": 100
    },
    {
      "midi": 38,
      "hit": false,
      "t": 106500,
      "d": 1500,
      "v": 100
    },
    {
      "midi": 61,
      "hit": false,
      "t": 106500,
      "d": 187.5,
      "v": 100
    },
    {
      "midi": 40,
      "hit": false,
      "t": 106500,
      "d": 0.78125,
      "v": 100
    },
    {
      "midi": 78,
      "hit": false,
      "t": 106500,
      "d": 375,
      "v": 100
    },
    {
      "midi": 74,
      "hit": false,
      "t": 106500,
      "d": 1500,
      "v": 100
    },
    {
      "midi": 43,
      "hit": false,
      "t": 106500,
      "d": 62.5,
      "v": 100
    },
    {
      "midi": 47,
      "hit": false,
      "t": 106546.875,
      "d": 140.625,
      "v": 100
    },
    {
      "midi": 47,
      "hit": false,
      "t": 106546.875,
      "d": 140.625,
      "v": 100
    },
    {
      "midi": 50,
      "hit": false,
      "t": 106593.75,
      "d": 93.75,
      "v": 100
    },
    {
      "midi": 50,
      "hit": false,
      "t": 106593.75,
      "d": 93.75,
      "v": 100
    },
    {
      "midi": 62,
      "hit": false,
      "t": 106687.5,
      "d": 562.5,
      "v": 100
    },
    {
      "midi": 36,
      "hit": false,
      "t": 106687.5,
      "d": 0.78125,
      "v": 100
    },
    {
      "midi": 51,
      "hit": false,
      "t": 106687.5,
      "d": 0.78125,
      "v": 100
    },
    {
      "midi": 76,
      "hit": false,
      "t": 106875,
      "d": 187.5,
      "v": 100
    },
    {
      "midi": 40,
      "hit": false,
      "t": 106875,
      "d": 0.78125,
      "v": 100
    },
    {
      "midi": 76,
      "hit": false,
      "t": 106875,
      "d": 187.5,
      "v": 100
    },
    {
      "midi": 74,
      "hit": false,
      "t": 107062.5,
      "d": 375,
      "v": 100
    },
    {
      "midi": 43,
      "hit": false,
      "t": 107062.5,
      "d": 62.5,
      "v": 100
    },
    {
      "midi": 36,
      "hit": false,
      "t": 107062.5,
      "d": 0.78125,
      "v": 100
    },
    {
      "midi": 51,
      "hit": false,
      "t": 107062.5,
      "d": 0.78125,
      "v": 100
    },
    {
      "midi": 74,
      "hit": false,
      "t": 107062.5,
      "d": 375,
      "v": 100
    },
    {
      "midi": 43,
      "hit": false,
      "t": 107062.5,
      "d": 62.5,
      "v": 100
    },
    {
      "midi": 47,
      "hit": false,
      "t": 107109.375,
      "d": 140.625,
      "v": 100
    },
    {
      "midi": 47,
      "hit": false,
      "t": 107109.375,
      "d": 140.625,
      "v": 100
    },
    {
      "midi": 50,
      "hit": false,
      "t": 107156.25,
      "d": 93.75,
      "v": 100
    },
    {
      "midi": 50,
      "hit": false,
      "t": 107156.25,
      "d": 93.75,
      "v": 100
    },
    {
      "midi": 61,
      "hit": false,
      "t": 107250,
      "d": 187.5,
      "v": 100
    },
    {
      "midi": 40,
      "hit": false,
      "t": 107250,
      "d": 0.78125,
      "v": 100
    },
    {
      "midi": 76,
      "hit": false,
      "t": 107437.5,
      "d": 187.5,
      "v": 100
    },
    {
      "midi": 59,
      "hit": false,
      "t": 107437.5,
      "d": 562.5,
      "v": 100
    },
    {
      "midi": 36,
      "hit": false,
      "t": 107437.5,
      "d": 0.78125,
      "v": 100
    },
    {
      "midi": 51,
      "hit": false,
      "t": 107437.5,
      "d": 0.78125,
      "v": 100
    },
    {
      "midi": 76,
      "hit": false,
      "t": 107437.5,
      "d": 187.5,
      "v": 100
    },
    {
      "midi": 43,
      "hit": false,
      "t": 107625,
      "d": 54.6875,
      "v": 100
    },
    {
      "midi": 40,
      "hit": false,
      "t": 107625,
      "d": 0.78125,
      "v": 100
    },
    {
      "midi": 43,
      "hit": false,
      "t": 107625,
      "d": 54.6875,
      "v": 100
    },
    {
      "midi": 47,
      "hit": false,
      "t": 107671.875,
      "d": 140.625,
      "v": 100
    },
    {
      "midi": 47,
      "hit": false,
      "t": 107671.875,
      "d": 140.625,
      "v": 100
    },
    {
      "midi": 50,
      "hit": false,
      "t": 107718.75,
      "d": 93.75,
      "v": 100
    },
    {
      "midi": 50,
      "hit": false,
      "t": 107718.75,
      "d": 93.75,
      "v": 100
    },
    {
      "midi": 69,
      "hit": false,
      "t": 107812.5,
      "d": 187.5,
      "v": 100
    },
    {
      "midi": 69,
      "hit": false,
      "t": 107812.5,
      "d": 187.5,
      "v": 100
    },
    {
      "midi": 36,
      "hit": false,
      "t": 107812.5,
      "d": 0.78125,
      "v": 100
    },
    {
      "midi": 51,
      "hit": false,
      "t": 107812.5,
      "d": 0.78125,
      "v": 100
    },
    {
      "midi": 69,
      "hit": false,
      "t": 107812.5,
      "d": 187.5,
      "v": 100
    },
    {
      "midi": 73,
      "hit": false,
      "t": 108000,
      "d": 375,
      "v": 100
    },
    {
      "midi": 76,
      "hit": false,
      "t": 108000,
      "d": 1500,
      "v": 100
    },
    {
      "midi": 45,
      "hit": false,
      "t": 108000,
      "d": 62.5,
      "v": 100
    },
    {
      "midi": 40,
      "hit": false,
      "t": 108000,
      "d": 1500,
      "v": 100
    },
    {
      "midi": 69,
      "hit": false,
      "t": 108000,
      "d": 375,
      "v": 100
    },
    {
      "midi": 57,
      "hit": false,
      "t": 108000,
      "d": 187.5,
      "v": 100
    },
    {
      "midi": 40,
      "hit": false,
      "t": 108000,
      "d": 0.78125,
      "v": 100
    },
    {
      "midi": 73,
      "hit": false,
      "t": 108000,
      "d": 375,
      "v": 100
    },
    {
      "midi": 76,
      "hit": false,
      "t": 108000,
      "d": 1500,
      "v": 100
    },
    {
      "midi": 45,
      "hit": false,
      "t": 108000,
      "d": 62.5,
      "v": 100
    },
    {
      "midi": 49,
      "hit": false,
      "t": 108046.875,
      "d": 140.625,
      "v": 100
    },
    {
      "midi": 49,
      "hit": false,
      "t": 108046.875,
      "d": 140.625,
      "v": 100
    },
    {
      "midi": 52,
      "hit": false,
      "t": 108093.75,
      "d": 93.75,
      "v": 100
    },
    {
      "midi": 52,
      "hit": false,
      "t": 108093.75,
      "d": 93.75,
      "v": 100
    },
    {
      "midi": 59,
      "hit": false,
      "t": 108187.5,
      "d": 562.5,
      "v": 100
    },
    {
      "midi": 36,
      "hit": false,
      "t": 108187.5,
      "d": 0.78125,
      "v": 100
    },
    {
      "midi": 51,
      "hit": false,
      "t": 108187.5,
      "d": 0.78125,
      "v": 100
    },
    {
      "midi": 74,
      "hit": false,
      "t": 108375,
      "d": 187.5,
      "v": 100
    },
    {
      "midi": 69,
      "hit": false,
      "t": 108375,
      "d": 187.5,
      "v": 100
    },
    {
      "midi": 40,
      "hit": false,
      "t": 108375,
      "d": 0.78125,
      "v": 100
    },
    {
      "midi": 74,
      "hit": false,
      "t": 108375,
      "d": 187.5,
      "v": 100
    },
    {
      "midi": 76,
      "hit": false,
      "t": 108562.5,
      "d": 375,
      "v": 100
    },
    {
      "midi": 45,
      "hit": false,
      "t": 108562.5,
      "d": 62.5,
      "v": 100
    },
    {
      "midi": 69,
      "hit": false,
      "t": 108562.5,
      "d": 375,
      "v": 100
    },
    {
      "midi": 36,
      "hit": false,
      "t": 108562.5,
      "d": 0.78125,
      "v": 100
    },
    {
      "midi": 51,
      "hit": false,
      "t": 108562.5,
      "d": 0.78125,
      "v": 100
    },
    {
      "midi": 76,
      "hit": false,
      "t": 108562.5,
      "d": 375,
      "v": 100
    },
    {
      "midi": 45,
      "hit": false,
      "t": 108562.5,
      "d": 62.5,
      "v": 100
    },
    {
      "midi": 49,
      "hit": false,
      "t": 108609.375,
      "d": 140.625,
      "v": 100
    },
    {
      "midi": 49,
      "hit": false,
      "t": 108609.375,
      "d": 140.625,
      "v": 100
    },
    {
      "midi": 52,
      "hit": false,
      "t": 108656.25,
      "d": 93.75,
      "v": 100
    },
    {
      "midi": 52,
      "hit": false,
      "t": 108656.25,
      "d": 93.75,
      "v": 100
    },
    {
      "midi": 61,
      "hit": false,
      "t": 108750,
      "d": 187.5,
      "v": 100
    },
    {
      "midi": 40,
      "hit": false,
      "t": 108750,
      "d": 0.78125,
      "v": 100
    },
    {
      "midi": 78,
      "hit": false,
      "t": 108937.5,
      "d": 375,
      "v": 100
    },
    {
      "midi": 69,
      "hit": false,
      "t": 108937.5,
      "d": 375,
      "v": 100
    },
    {
      "midi": 62,
      "hit": false,
      "t": 108937.5,
      "d": 562.5,
      "v": 100
    },
    {
      "midi": 36,
      "hit": false,
      "t": 108937.5,
      "d": 0.78125,
      "v": 100
    },
    {
      "midi": 51,
      "hit": false,
      "t": 108937.5,
      "d": 0.78125,
      "v": 100
    },
    {
      "midi": 78,
      "hit": false,
      "t": 108937.5,
      "d": 375,
      "v": 100
    },
    {
      "midi": 45,
      "hit": false,
      "t": 109125,
      "d": 54.6875,
      "v": 100
    },
    {
      "midi": 40,
      "hit": false,
      "t": 109125,
      "d": 0.78125,
      "v": 100
    },
    {
      "midi": 45,
      "hit": false,
      "t": 109125,
      "d": 54.6875,
      "v": 100
    },
    {
      "midi": 49,
      "hit": false,
      "t": 109171.875,
      "d": 140.625,
      "v": 100
    },
    {
      "midi": 49,
      "hit": false,
      "t": 109171.875,
      "d": 140.625,
      "v": 100
    },
    {
      "midi": 52,
      "hit": false,
      "t": 109218.75,
      "d": 93.75,
      "v": 100
    },
    {
      "midi": 52,
      "hit": false,
      "t": 109218.75,
      "d": 93.75,
      "v": 100
    },
    {
      "midi": 81,
      "hit": false,
      "t": 109312.5,
      "d": 140.625,
      "v": 100
    },
    {
      "midi": 81,
      "hit": false,
      "t": 109312.5,
      "d": 140.625,
      "v": 100
    },
    {
      "midi": 36,
      "hit": false,
      "t": 109312.5,
      "d": 0.78125,
      "v": 100
    },
    {
      "midi": 51,
      "hit": false,
      "t": 109312.5,
      "d": 0.78125,
      "v": 100
    },
    {
      "midi": 81,
      "hit": false,
      "t": 109312.5,
      "d": 140.625,
      "v": 100
    },
    {
      "midi": 81,
      "hit": false,
      "t": 109500,
      "d": 1312.5,
      "v": 100
    },
    {
      "midi": 78,
      "hit": false,
      "t": 109500,
      "d": 1500,
      "v": 100
    },
    {
      "midi": 47,
      "hit": false,
      "t": 109500,
      "d": 62.5,
      "v": 100
    },
    {
      "midi": 42,
      "hit": false,
      "t": 109500,
      "d": 328.125,
      "v": 100
    },
    {
      "midi": 81,
      "hit": false,
      "t": 109500,
      "d": 1312.5,
      "v": 100
    },
    {
      "midi": 64,
      "hit": false,
      "t": 109500,
      "d": 187.5,
      "v": 100
    },
    {
      "midi": 40,
      "hit": false,
      "t": 109500,
      "d": 0.78125,
      "v": 100
    },
    {
      "midi": 81,
      "hit": false,
      "t": 109500,
      "d": 1312.5,
      "v": 100
    },
    {
      "midi": 78,
      "hit": false,
      "t": 109500,
      "d": 1500,
      "v": 100
    },
    {
      "midi": 47,
      "hit": false,
      "t": 109500,
      "d": 62.5,
      "v": 100
    },
    {
      "midi": 50,
      "hit": false,
      "t": 109546.875,
      "d": 140.625,
      "v": 100
    },
    {
      "midi": 50,
      "hit": false,
      "t": 109546.875,
      "d": 140.625,
      "v": 100
    },
    {
      "midi": 54,
      "hit": false,
      "t": 109593.75,
      "d": 93.75,
      "v": 100
    },
    {
      "midi": 54,
      "hit": false,
      "t": 109593.75,
      "d": 93.75,
      "v": 100
    },
    {
      "midi": 66,
      "hit": false,
      "t": 109687.5,
      "d": 562.5,
      "v": 100
    },
    {
      "midi": 76,
      "hit": false,
      "t": 109687.5,
      "d": 187.5,
      "v": 100
    },
    {
      "midi": 36,
      "hit": false,
      "t": 109687.5,
      "d": 0.78125,
      "v": 100
    },
    {
      "midi": 51,
      "hit": false,
      "t": 109687.5,
      "d": 0.78125,
      "v": 100
    },
    {
      "midi": 88,
      "hit": false,
      "t": 109687.5,
      "d": 187.5,
      "v": 100
    },
    {
      "midi": 47,
      "hit": false,
      "t": 109875,
      "d": 62.5,
      "v": 100
    },
    {
      "midi": 42,
      "hit": false,
      "t": 109875,
      "d": 328.125,
      "v": 100
    },
    {
      "midi": 74,
      "hit": false,
      "t": 109875,
      "d": 187.5,
      "v": 100
    },
    {
      "midi": 40,
      "hit": false,
      "t": 109875,
      "d": 0.78125,
      "v": 100
    },
    {
      "midi": 86,
      "hit": false,
      "t": 109875,
      "d": 187.5,
      "v": 100
    },
    {
      "midi": 47,
      "hit": false,
      "t": 109875,
      "d": 62.5,
      "v": 100
    },
    {
      "midi": 50,
      "hit": false,
      "t": 109921.875,
      "d": 281.25,
      "v": 100
    },
    {
      "midi": 50,
      "hit": false,
      "t": 109921.875,
      "d": 281.25,
      "v": 100
    },
    {
      "midi": 54,
      "hit": false,
      "t": 109968.75,
      "d": 234.375,
      "v": 100
    },
    {
      "midi": 54,
      "hit": false,
      "t": 109968.75,
      "d": 234.375,
      "v": 100
    },
    {
      "midi": 73,
      "hit": false,
      "t": 110062.5,
      "d": 187.5,
      "v": 100
    },
    {
      "midi": 36,
      "hit": false,
      "t": 110062.5,
      "d": 0.78125,
      "v": 100
    },
    {
      "midi": 51,
      "hit": false,
      "t": 110062.5,
      "d": 0.78125,
      "v": 100
    },
    {
      "midi": 85,
      "hit": false,
      "t": 110062.5,
      "d": 187.5,
      "v": 100
    },
    {
      "midi": 47,
      "hit": false,
      "t": 110250,
      "d": 62.5,
      "v": 100
    },
    {
      "midi": 42,
      "hit": false,
      "t": 110250,
      "d": 328.125,
      "v": 100
    },
    {
      "midi": 64,
      "hit": false,
      "t": 110250,
      "d": 187.5,
      "v": 100
    },
    {
      "midi": 76,
      "hit": false,
      "t": 110250,
      "d": 187.5,
      "v": 100
    },
    {
      "midi": 40,
      "hit": false,
      "t": 110250,
      "d": 0.78125,
      "v": 100
    },
    {
      "midi": 88,
      "hit": false,
      "t": 110250,
      "d": 187.5,
      "v": 100
    },
    {
      "midi": 47,
      "hit": false,
      "t": 110250,
      "d": 62.5,
      "v": 100
    },
    {
      "midi": 50,
      "hit": false,
      "t": 110296.875,
      "d": 140.625,
      "v": 100
    },
    {
      "midi": 50,
      "hit": false,
      "t": 110296.875,
      "d": 140.625,
      "v": 100
    },
    {
      "midi": 54,
      "hit": false,
      "t": 110343.75,
      "d": 93.75,
      "v": 100
    },
    {
      "midi": 38,
      "hit": false,
      "t": 110343.75,
      "d": 0.78125,
      "v": 100
    },
    {
      "midi": 54,
      "hit": false,
      "t": 110343.75,
      "d": 93.75,
      "v": 100
    },
    {
      "midi": 47,
      "hit": false,
      "t": 110437.5,
      "d": 62.5,
      "v": 100
    },
    {
      "midi": 66,
      "hit": false,
      "t": 110437.5,
      "d": 750,
      "v": 100
    },
    {
      "midi": 74,
      "hit": false,
      "t": 110437.5,
      "d": 187.5,
      "v": 100
    },
    {
      "midi": 40,
      "hit": false,
      "t": 110437.5,
      "d": 0.78125,
      "v": 100
    },
    {
      "midi": 86,
      "hit": false,
      "t": 110437.5,
      "d": 187.5,
      "v": 100
    },
    {
      "midi": 47,
      "hit": false,
      "t": 110437.5,
      "d": 62.5,
      "v": 100
    },
    {
      "midi": 50,
      "hit": false,
      "t": 110484.375,
      "d": 468.75,
      "v": 100
    },
    {
      "midi": 50,
      "hit": false,
      "t": 110484.375,
      "d": 468.75,
      "v": 100
    },
    {
      "midi": 54,
      "hit": false,
      "t": 110531.25,
      "d": 421.875,
      "v": 100
    },
    {
      "midi": 38,
      "hit": false,
      "t": 110531.25,
      "d": 0.78125,
      "v": 100
    },
    {
      "midi": 54,
      "hit": false,
      "t": 110531.25,
      "d": 421.875,
      "v": 100
    },
    {
      "midi": 42,
      "hit": false,
      "t": 110625,
      "d": 328.125,
      "v": 100
    },
    {
      "midi": 73,
      "hit": false,
      "t": 110625,
      "d": 187.5,
      "v": 100
    },
    {
      "midi": 40,
      "hit": false,
      "t": 110625,
      "d": 0.78125,
      "v": 100
    },
    {
      "midi": 85,
      "hit": false,
      "t": 110625,
      "d": 187.5,
      "v": 100
    },
    {
      "midi": 38,
      "hit": false,
      "t": 110718.75,
      "d": 0.78125,
      "v": 100
    },
    {
      "midi": 74,
      "hit": false,
      "t": 110742.1875,
      "d": 1117.1875,
      "v": 100
    },
    {
      "midi": 71,
      "hit": false,
      "t": 110812.5,
      "d": 187.5,
      "v": 100
    },
    {
      "midi": 51,
      "hit": false,
      "t": 110812.5,
      "d": 0.78125,
      "v": 100
    },
    {
      "midi": 83,
      "hit": false,
      "t": 110812.5,
      "d": 187.5,
      "v": 100
    },
    {
      "midi": 47,
      "hit": false,
      "t": 111000,
      "d": 62.5,
      "v": 100
    },
    {
      "midi": 42,
      "hit": false,
      "t": 111000,
      "d": 328.125,
      "v": 100
    },
    {
      "midi": 40,
      "hit": false,
      "t": 111000,
      "d": 0.78125,
      "v": 100
    },
    {
      "midi": 38,
      "hit": false,
      "t": 111000,
      "d": 0.78125,
      "v": 100
    },
    {
      "midi": 36,
      "hit": false,
      "t": 111000,
      "d": 0.78125,
      "v": 100
    },
    {
      "midi": 47,
      "hit": false,
      "t": 111000,
      "d": 62.5,
      "v": 100
    },
    {
      "midi": 50,
      "hit": false,
      "t": 111046.875,
      "d": 140.625,
      "v": 100
    },
    {
      "midi": 50,
      "hit": false,
      "t": 111046.875,
      "d": 140.625,
      "v": 100
    },
    {
      "midi": 54,
      "hit": false,
      "t": 111093.75,
      "d": 93.75,
      "v": 100
    },
    {
      "midi": 54,
      "hit": false,
      "t": 111093.75,
      "d": 93.75,
      "v": 100
    },
    {
      "midi": 47,
      "hit": false,
      "t": 111375,
      "d": 62.5,
      "v": 100
    },
    {
      "midi": 42,
      "hit": false,
      "t": 111375,
      "d": 375,
      "v": 100
    },
    {
      "midi": 40,
      "hit": false,
      "t": 111375,
      "d": 0.78125,
      "v": 100
    },
    {
      "midi": 38,
      "hit": false,
      "t": 111375,
      "d": 0.78125,
      "v": 100
    },
    {
      "midi": 36,
      "hit": false,
      "t": 111375,
      "d": 0.78125,
      "v": 100
    },
    {
      "midi": 47,
      "hit": false,
      "t": 111375,
      "d": 62.5,
      "v": 100
    },
    {
      "midi": 50,
      "hit": false,
      "t": 111421.875,
      "d": 140.625,
      "v": 100
    },
    {
      "midi": 50,
      "hit": false,
      "t": 111421.875,
      "d": 140.625,
      "v": 100
    },
    {
      "midi": 54,
      "hit": false,
      "t": 111468.75,
      "d": 93.75,
      "v": 100
    },
    {
      "midi": 54,
      "hit": false,
      "t": 111468.75,
      "d": 93.75,
      "v": 100
    },
    {
      "midi": 69,
      "hit": false,
      "t": 111562.5,
      "d": 93.75,
      "v": 100
    },
    {
      "midi": 69,
      "hit": false,
      "t": 111562.5,
      "d": 93.75,
      "v": 100
    },
    {
      "midi": 69,
      "hit": false,
      "t": 111562.5,
      "d": 93.75,
      "v": 100
    },
    {
      "midi": 71,
      "hit": false,
      "t": 111656.25,
      "d": 93.75,
      "v": 100
    },
    {
      "midi": 69,
      "hit": false,
      "t": 111656.25,
      "d": 93.75,
      "v": 100
    },
    {
      "midi": 71,
      "hit": false,
      "t": 111656.25,
      "d": 93.75,
      "v": 100
    },
    {
      "midi": 74,
      "hit": false,
      "t": 111750,
      "d": 281.25,
      "v": 100
    },
    {
      "midi": 69,
      "hit": false,
      "t": 111750,
      "d": 281.25,
      "v": 100
    },
    {
      "midi": 74,
      "hit": false,
      "t": 111750,
      "d": 281.25,
      "v": 100
    },
    {
      "midi": 40,
      "hit": false,
      "t": 111937.5,
      "d": 46.875,
      "v": 100
    },
    {
      "midi": 38,
      "hit": false,
      "t": 111984.375,
      "d": 46.875,
      "v": 100
    },
    {
      "midi": 73,
      "hit": false,
      "t": 112031.25,
      "d": 281.25,
      "v": 100
    },
    {
      "midi": 37,
      "hit": false,
      "t": 112031.25,
      "d": 46.875,
      "v": 100
    },
    {
      "midi": 69,
      "hit": false,
      "t": 112031.25,
      "d": 281.25,
      "v": 100
    },
    {
      "midi": 73,
      "hit": false,
      "t": 112031.25,
      "d": 281.25,
      "v": 100
    },
    {
      "midi": 35,
      "hit": false,
      "t": 112078.125,
      "d": 46.875,
      "v": 100
    },
    {
      "midi": 36,
      "hit": false,
      "t": 112125,
      "d": 46.875,
      "v": 100
    },
    {
      "midi": 39,
      "hit": false,
      "t": 112125,
      "d": 0.78125,
      "v": 127
    },
    {
      "midi": 37,
      "hit": false,
      "t": 112171.875,
      "d": 46.875,
      "v": 100
    },
    {
      "midi": 38,
      "hit": false,
      "t": 112218.75,
      "d": 46.875,
      "v": 100
    },
    {
      "midi": 40,
      "hit": false,
      "t": 112265.625,
      "d": 46.875,
      "v": 100
    },
    {
      "midi": 74,
      "hit": false,
      "t": 112312.5,
      "d": 562.5,
      "v": 100
    },
    {
      "midi": 42,
      "hit": false,
      "t": 112312.5,
      "d": 46.875,
      "v": 100
    },
    {
      "midi": 71,
      "hit": false,
      "t": 112312.5,
      "d": 562.5,
      "v": 100
    },
    {
      "midi": 74,
      "hit": false,
      "t": 112312.5,
      "d": 562.5,
      "v": 100
    },
    {
      "midi": 43,
      "hit": false,
      "t": 112359.375,
      "d": 46.875,
      "v": 100
    },
    {
      "midi": 45,
      "hit": false,
      "t": 112406.25,
      "d": 46.875,
      "v": 100
    },
    {
      "midi": 47,
      "hit": false,
      "t": 112453.125,
      "d": 46.875,
      "v": 100
    },
    {
      "midi": 76,
      "hit": false,
      "t": 112500,
      "d": 5062.5,
      "v": 100
    },
    {
      "midi": 64,
      "hit": false,
      "t": 112500,
      "d": 93.75,
      "v": 100
    },
    {
      "midi": 52,
      "hit": false,
      "t": 112500,
      "d": 93.75,
      "v": 100
    },
    {
      "midi": 49,
      "hit": false,
      "t": 112500,
      "d": 93.75,
      "v": 100
    },
    {
      "midi": 40,
      "hit": false,
      "t": 112500,
      "d": 140.625,
      "v": 100
    },
    {
      "midi": 36,
      "hit": false,
      "t": 112500,
      "d": 0.78125,
      "v": 100
    },
    {
      "midi": 55,
      "hit": false,
      "t": 112500,
      "d": 0.78125,
      "v": 100
    },
    {
      "midi": 88,
      "hit": false,
      "t": 112500,
      "d": 187.5,
      "v": 100
    },
    {
      "midi": 76,
      "hit": false,
      "t": 112500,
      "d": 5062.5,
      "v": 100
    },
    {
      "midi": 64,
      "hit": false,
      "t": 112500,
      "d": 93.75,
      "v": 100
    },
    {
      "midi": 52,
      "hit": false,
      "t": 112500,
      "d": 93.75,
      "v": 100
    },
    {
      "midi": 49,
      "hit": false,
      "t": 112500,
      "d": 93.75,
      "v": 100
    },
    {
      "midi": 64,
      "hit": false,
      "t": 112593.75,
      "d": 187.5,
      "v": 100
    },
    {
      "midi": 64,
      "hit": false,
      "t": 112593.75,
      "d": 187.5,
      "v": 100
    },
    {
      "midi": 40,
      "hit": false,
      "t": 112687.5,
      "d": 140.625,
      "v": 100
    },
    {
      "midi": 36,
      "hit": false,
      "t": 112687.5,
      "d": 0.78125,
      "v": 100
    },
    {
      "midi": 64,
      "hit": false,
      "t": 112781.25,
      "d": 93.75,
      "v": 100
    },
    {
      "midi": 64,
      "hit": false,
      "t": 112781.25,
      "d": 93.75,
      "v": 100
    },
    {
      "midi": 64,
      "hit": false,
      "t": 112875,
      "d": 93.75,
      "v": 100
    },
    {
      "midi": 38,
      "hit": false,
      "t": 112875,
      "d": 140.625,
      "v": 100
    },
    {
      "midi": 40,
      "hit": false,
      "t": 112875,
      "d": 0.78125,
      "v": 100
    },
    {
      "midi": 64,
      "hit": false,
      "t": 112875,
      "d": 93.75,
      "v": 100
    },
    {
      "midi": 64,
      "hit": false,
      "t": 112968.75,
      "d": 187.5,
      "v": 100
    },
    {
      "midi": 64,
      "hit": false,
      "t": 112968.75,
      "d": 187.5,
      "v": 100
    },
    {
      "midi": 69,
      "hit": false,
      "t": 113062.5,
      "d": 93.75,
      "v": 100
    },
    {
      "midi": 52,
      "hit": false,
      "t": 113062.5,
      "d": 93.75,
      "v": 100
    },
    {
      "midi": 49,
      "hit": false,
      "t": 113062.5,
      "d": 93.75,
      "v": 100
    },
    {
      "midi": 40,
      "hit": false,
      "t": 113062.5,
      "d": 140.625,
      "v": 100
    },
    {
      "midi": 69,
      "hit": false,
      "t": 113062.5,
      "d": 93.75,
      "v": 100
    },
    {
      "midi": 69,
      "hit": false,
      "t": 113062.5,
      "d": 93.75,
      "v": 100
    },
    {
      "midi": 52,
      "hit": false,
      "t": 113062.5,
      "d": 93.75,
      "v": 100
    },
    {
      "midi": 49,
      "hit": false,
      "t": 113062.5,
      "d": 93.75,
      "v": 100
    },
    {
      "midi": 71,
      "hit": false,
      "t": 113156.25,
      "d": 93.75,
      "v": 100
    },
    {
      "midi": 64,
      "hit": false,
      "t": 113156.25,
      "d": 93.75,
      "v": 100
    },
    {
      "midi": 69,
      "hit": false,
      "t": 113156.25,
      "d": 93.75,
      "v": 100
    },
    {
      "midi": 38,
      "hit": false,
      "t": 113156.25,
      "d": 0.78125,
      "v": 100
    },
    {
      "midi": 71,
      "hit": false,
      "t": 113156.25,
      "d": 93.75,
      "v": 100
    },
    {
      "midi": 64,
      "hit": false,
      "t": 113156.25,
      "d": 93.75,
      "v": 100
    },
    {
      "midi": 76,
      "hit": false,
      "t": 113250,
      "d": 281.25,
      "v": 100
    },
    {
      "midi": 64,
      "hit": false,
      "t": 113250,
      "d": 93.75,
      "v": 100
    },
    {
      "midi": 38,
      "hit": false,
      "t": 113250,
      "d": 140.625,
      "v": 100
    },
    {
      "midi": 69,
      "hit": false,
      "t": 113250,
      "d": 281.25,
      "v": 100
    },
    {
      "midi": 36,
      "hit": false,
      "t": 113250,
      "d": 0.78125,
      "v": 100
    },
    {
      "midi": 76,
      "hit": false,
      "t": 113250,
      "d": 281.25,
      "v": 100
    },
    {
      "midi": 64,
      "hit": false,
      "t": 113250,
      "d": 93.75,
      "v": 100
    },
    {
      "midi": 64,
      "hit": false,
      "t": 113343.75,
      "d": 187.5,
      "v": 100
    },
    {
      "midi": 38,
      "hit": false,
      "t": 113343.75,
      "d": 0.78125,
      "v": 100
    },
    {
      "midi": 64,
      "hit": false,
      "t": 113343.75,
      "d": 187.5,
      "v": 100
    },
    {
      "midi": 52,
      "hit": false,
      "t": 113437.5,
      "d": 187.5,
      "v": 100
    },
    {
      "midi": 49,
      "hit": false,
      "t": 113437.5,
      "d": 187.5,
      "v": 100
    },
    {
      "midi": 40,
      "hit": false,
      "t": 113437.5,
      "d": 140.625,
      "v": 100
    },
    {
      "midi": 36,
      "hit": false,
      "t": 113437.5,
      "d": 0.78125,
      "v": 100
    },
    {
      "midi": 52,
      "hit": false,
      "t": 113437.5,
      "d": 187.5,
      "v": 100
    },
    {
      "midi": 49,
      "hit": false,
      "t": 113437.5,
      "d": 187.5,
      "v": 100
    },
    {
      "midi": 74,
      "hit": false,
      "t": 113531.25,
      "d": 281.25,
      "v": 100
    },
    {
      "midi": 64,
      "hit": false,
      "t": 113531.25,
      "d": 93.75,
      "v": 100
    },
    {
      "midi": 69,
      "hit": false,
      "t": 113531.25,
      "d": 281.25,
      "v": 100
    },
    {
      "midi": 74,
      "hit": false,
      "t": 113531.25,
      "d": 281.25,
      "v": 100
    },
    {
      "midi": 64,
      "hit": false,
      "t": 113531.25,
      "d": 93.75,
      "v": 100
    },
    {
      "midi": 64,
      "hit": false,
      "t": 113625,
      "d": 93.75,
      "v": 100
    },
    {
      "midi": 38,
      "hit": false,
      "t": 113625,
      "d": 140.625,
      "v": 100
    },
    {
      "midi": 40,
      "hit": false,
      "t": 113625,
      "d": 0.78125,
      "v": 100
    },
    {
      "midi": 64,
      "hit": false,
      "t": 113625,
      "d": 93.75,
      "v": 100
    },
    {
      "midi": 64,
      "hit": false,
      "t": 113718.75,
      "d": 187.5,
      "v": 100
    },
    {
      "midi": 64,
      "hit": false,
      "t": 113718.75,
      "d": 187.5,
      "v": 100
    },
    {
      "midi": 76,
      "hit": false,
      "t": 113812.5,
      "d": 562.5,
      "v": 100
    },
    {
      "midi": 40,
      "hit": false,
      "t": 113812.5,
      "d": 140.625,
      "v": 100
    },
    {
      "midi": 67,
      "hit": false,
      "t": 113812.5,
      "d": 562.5,
      "v": 100
    },
    {
      "midi": 76,
      "hit": false,
      "t": 113812.5,
      "d": 562.5,
      "v": 100
    },
    {
      "midi": 64,
      "hit": false,
      "t": 113906.25,
      "d": 93.75,
      "v": 100
    },
    {
      "midi": 64,
      "hit": false,
      "t": 113906.25,
      "d": 93.75,
      "v": 100
    },
    {
      "midi": 64,
      "hit": false,
      "t": 114000,
      "d": 93.75,
      "v": 100
    },
    {
      "midi": 49,
      "hit": false,
      "t": 114000,
      "d": 93.75,
      "v": 100
    },
    {
      "midi": 45,
      "hit": false,
      "t": 114000,
      "d": 93.75,
      "v": 100
    },
    {
      "midi": 42,
      "hit": false,
      "t": 114000,
      "d": 140.625,
      "v": 100
    },
    {
      "midi": 36,
      "hit": false,
      "t": 114000,
      "d": 0.78125,
      "v": 100
    },
    {
      "midi": 86,
      "hit": false,
      "t": 114000,
      "d": 187.5,
      "v": 100
    },
    {
      "midi": 64,
      "hit": false,
      "t": 114000,
      "d": 93.75,
      "v": 100
    },
    {
      "midi": 49,
      "hit": false,
      "t": 114000,
      "d": 93.75,
      "v": 100
    },
    {
      "midi": 45,
      "hit": false,
      "t": 114000,
      "d": 93.75,
      "v": 100
    },
    {
      "midi": 64,
      "hit": false,
      "t": 114093.75,
      "d": 187.5,
      "v": 100
    },
    {
      "midi": 64,
      "hit": false,
      "t": 114093.75,
      "d": 187.5,
      "v": 100
    },
    {
      "midi": 42,
      "hit": false,
      "t": 114187.5,
      "d": 140.625,
      "v": 100
    },
    {
      "midi": 36,
      "hit": false,
      "t": 114187.5,
      "d": 0.78125,
      "v": 100
    },
    {
      "midi": 64,
      "hit": false,
      "t": 114281.25,
      "d": 93.75,
      "v": 100
    },
    {
      "midi": 64,
      "hit": false,
      "t": 114281.25,
      "d": 93.75,
      "v": 100
    },
    {
      "midi": 64,
      "hit": false,
      "t": 114375,
      "d": 93.75,
      "v": 100
    },
    {
      "midi": 40,
      "hit": false,
      "t": 114375,
      "d": 140.625,
      "v": 100
    },
    {
      "midi": 40,
      "hit": false,
      "t": 114375,
      "d": 0.78125,
      "v": 100
    },
    {
      "midi": 64,
      "hit": false,
      "t": 114375,
      "d": 93.75,
      "v": 100
    },
    {
      "midi": 64,
      "hit": false,
      "t": 114468.75,
      "d": 187.5,
      "v": 100
    },
    {
      "midi": 64,
      "hit": false,
      "t": 114468.75,
      "d": 187.5,
      "v": 100
    },
    {
      "midi": 49,
      "hit": false,
      "t": 114562.5,
      "d": 93.75,
      "v": 100
    },
    {
      "midi": 45,
      "hit": false,
      "t": 114562.5,
      "d": 93.75,
      "v": 100
    },
    {
      "midi": 42,
      "hit": false,
      "t": 114562.5,
      "d": 140.625,
      "v": 100
    },
    {
      "midi": 85,
      "hit": false,
      "t": 114562.5,
      "d": 187.5,
      "v": 100
    },
    {
      "midi": 49,
      "hit": false,
      "t": 114562.5,
      "d": 93.75,
      "v": 100
    },
    {
      "midi": 45,
      "hit": false,
      "t": 114562.5,
      "d": 93.75,
      "v": 100
    },
    {
      "midi": 64,
      "hit": false,
      "t": 114656.25,
      "d": 93.75,
      "v": 100
    },
    {
      "midi": 38,
      "hit": false,
      "t": 114656.25,
      "d": 0.78125,
      "v": 100
    },
    {
      "midi": 64,
      "hit": false,
      "t": 114656.25,
      "d": 93.75,
      "v": 100
    },
    {
      "midi": 64,
      "hit": false,
      "t": 114750,
      "d": 93.75,
      "v": 100
    },
    {
      "midi": 40,
      "hit": false,
      "t": 114750,
      "d": 140.625,
      "v": 100
    },
    {
      "midi": 36,
      "hit": false,
      "t": 114750,
      "d": 0.78125,
      "v": 100
    },
    {
      "midi": 64,
      "hit": false,
      "t": 114750,
      "d": 93.75,
      "v": 100
    },
    {
      "midi": 64,
      "hit": false,
      "t": 114843.75,
      "d": 187.5,
      "v": 100
    },
    {
      "midi": 38,
      "hit": false,
      "t": 114843.75,
      "d": 0.78125,
      "v": 100
    },
    {
      "midi": 64,
      "hit": false,
      "t": 114843.75,
      "d": 187.5,
      "v": 100
    },
    {
      "midi": 73,
      "hit": false,
      "t": 114937.5,
      "d": 187.5,
      "v": 100
    },
    {
      "midi": 49,
      "hit": false,
      "t": 114937.5,
      "d": 187.5,
      "v": 100
    },
    {
      "midi": 45,
      "hit": false,
      "t": 114937.5,
      "d": 187.5,
      "v": 100
    },
    {
      "midi": 42,
      "hit": false,
      "t": 114937.5,
      "d": 140.625,
      "v": 100
    },
    {
      "midi": 36,
      "hit": false,
      "t": 114937.5,
      "d": 0.78125,
      "v": 100
    },
    {
      "midi": 73,
      "hit": false,
      "t": 114937.5,
      "d": 187.5,
      "v": 100
    },
    {
      "midi": 49,
      "hit": false,
      "t": 114937.5,
      "d": 187.5,
      "v": 100
    },
    {
      "midi": 45,
      "hit": false,
      "t": 114937.5,
      "d": 187.5,
      "v": 100
    },
    {
      "midi": 64,
      "hit": false,
      "t": 115031.25,
      "d": 93.75,
      "v": 100
    },
    {
      "midi": 64,
      "hit": false,
      "t": 115031.25,
      "d": 93.75,
      "v": 100
    },
    {
      "midi": 74,
      "hit": false,
      "t": 115125,
      "d": 187.5,
      "v": 100
    },
    {
      "midi": 64,
      "hit": false,
      "t": 115125,
      "d": 93.75,
      "v": 100
    },
    {
      "midi": 40,
      "hit": false,
      "t": 115125,
      "d": 140.625,
      "v": 100
    },
    {
      "midi": 40,
      "hit": false,
      "t": 115125,
      "d": 0.78125,
      "v": 100
    },
    {
      "midi": 74,
      "hit": false,
      "t": 115125,
      "d": 187.5,
      "v": 100
    },
    {
      "midi": 64,
      "hit": false,
      "t": 115125,
      "d": 93.75,
      "v": 100
    },
    {
      "midi": 64,
      "hit": false,
      "t": 115218.75,
      "d": 187.5,
      "v": 100
    },
    {
      "midi": 64,
      "hit": false,
      "t": 115218.75,
      "d": 187.5,
      "v": 100
    },
    {
      "midi": 76,
      "hit": false,
      "t": 115312.5,
      "d": 187.5,
      "v": 100
    },
    {
      "midi": 42,
      "hit": false,
      "t": 115312.5,
      "d": 140.625,
      "v": 100
    },
    {
      "midi": 76,
      "hit": false,
      "t": 115312.5,
      "d": 187.5,
      "v": 100
    },
    {
      "midi": 64,
      "hit": false,
      "t": 115406.25,
      "d": 93.75,
      "v": 100
    },
    {
      "midi": 64,
      "hit": false,
      "t": 115406.25,
      "d": 93.75,
      "v": 100
    },
    {
      "midi": 81,
      "hit": false,
      "t": 115500,
      "d": 515.625,
      "v": 100
    },
    {
      "midi": 64,
      "hit": false,
      "t": 115500,
      "d": 93.75,
      "v": 100
    },
    {
      "midi": 52,
      "hit": false,
      "t": 115500,
      "d": 93.75,
      "v": 100
    },
    {
      "midi": 49,
      "hit": false,
      "t": 115500,
      "d": 93.75,
      "v": 100
    },
    {
      "midi": 43,
      "hit": false,
      "t": 115500,
      "d": 140.625,
      "v": 100
    },
    {
      "midi": 36,
      "hit": false,
      "t": 115500,
      "d": 0.78125,
      "v": 100
    },
    {
      "midi": 88,
      "hit": false,
      "t": 115500,
      "d": 187.5,
      "v": 100
    },
    {
      "midi": 81,
      "hit": false,
      "t": 115500,
      "d": 515.625,
      "v": 100
    },
    {
      "midi": 64,
      "hit": false,
      "t": 115500,
      "d": 93.75,
      "v": 100
    },
    {
      "midi": 52,
      "hit": false,
      "t": 115500,
      "d": 93.75,
      "v": 100
    },
    {
      "midi": 49,
      "hit": false,
      "t": 115500,
      "d": 93.75,
      "v": 100
    },
    {
      "midi": 64,
      "hit": false,
      "t": 115593.75,
      "d": 187.5,
      "v": 100
    },
    {
      "midi": 64,
      "hit": false,
      "t": 115593.75,
      "d": 187.5,
      "v": 100
    },
    {
      "midi": 43,
      "hit": false,
      "t": 115687.5,
      "d": 140.625,
      "v": 100
    },
    {
      "midi": 36,
      "hit": false,
      "t": 115687.5,
      "d": 0.78125,
      "v": 100
    },
    {
      "midi": 64,
      "hit": false,
      "t": 115781.25,
      "d": 93.75,
      "v": 100
    },
    {
      "midi": 64,
      "hit": false,
      "t": 115781.25,
      "d": 93.75,
      "v": 100
    },
    {
      "midi": 64,
      "hit": false,
      "t": 115875,
      "d": 93.75,
      "v": 100
    },
    {
      "midi": 45,
      "hit": false,
      "t": 115875,
      "d": 140.625,
      "v": 100
    },
    {
      "midi": 40,
      "hit": false,
      "t": 115875,
      "d": 0.78125,
      "v": 100
    },
    {
      "midi": 64,
      "hit": false,
      "t": 115875,
      "d": 93.75,
      "v": 100
    },
    {
      "midi": 64,
      "hit": false,
      "t": 115968.75,
      "d": 187.5,
      "v": 100
    },
    {
      "midi": 64,
      "hit": false,
      "t": 115968.75,
      "d": 187.5,
      "v": 100
    },
    {
      "midi": 81,
      "hit": false,
      "t": 116062.5,
      "d": 187.5,
      "v": 100
    },
    {
      "midi": 52,
      "hit": false,
      "t": 116062.5,
      "d": 93.75,
      "v": 100
    },
    {
      "midi": 49,
      "hit": false,
      "t": 116062.5,
      "d": 93.75,
      "v": 100
    },
    {
      "midi": 43,
      "hit": false,
      "t": 116062.5,
      "d": 140.625,
      "v": 100
    },
    {
      "midi": 81,
      "hit": false,
      "t": 116062.5,
      "d": 187.5,
      "v": 100
    },
    {
      "midi": 52,
      "hit": false,
      "t": 116062.5,
      "d": 93.75,
      "v": 100
    },
    {
      "midi": 49,
      "hit": false,
      "t": 116062.5,
      "d": 93.75,
      "v": 100
    },
    {
      "midi": 64,
      "hit": false,
      "t": 116156.25,
      "d": 93.75,
      "v": 100
    },
    {
      "midi": 38,
      "hit": false,
      "t": 116156.25,
      "d": 0.78125,
      "v": 100
    },
    {
      "midi": 64,
      "hit": false,
      "t": 116156.25,
      "d": 93.75,
      "v": 100
    },
    {
      "midi": 79,
      "hit": false,
      "t": 116250,
      "d": 187.5,
      "v": 100
    },
    {
      "midi": 64,
      "hit": false,
      "t": 116250,
      "d": 93.75,
      "v": 100
    },
    {
      "midi": 45,
      "hit": false,
      "t": 116250,
      "d": 140.625,
      "v": 100
    },
    {
      "midi": 36,
      "hit": false,
      "t": 116250,
      "d": 0.78125,
      "v": 100
    },
    {
      "midi": 79,
      "hit": false,
      "t": 116250,
      "d": 187.5,
      "v": 100
    },
    {
      "midi": 64,
      "hit": false,
      "t": 116250,
      "d": 93.75,
      "v": 100
    },
    {
      "midi": 64,
      "hit": false,
      "t": 116343.75,
      "d": 187.5,
      "v": 100
    },
    {
      "midi": 38,
      "hit": false,
      "t": 116343.75,
      "d": 0.78125,
      "v": 100
    },
    {
      "midi": 64,
      "hit": false,
      "t": 116343.75,
      "d": 187.5,
      "v": 100
    },
    {
      "midi": 78,
      "hit": false,
      "t": 116437.5,
      "d": 375,
      "v": 100
    },
    {
      "midi": 52,
      "hit": false,
      "t": 116437.5,
      "d": 187.5,
      "v": 100
    },
    {
      "midi": 49,
      "hit": false,
      "t": 116437.5,
      "d": 187.5,
      "v": 100
    },
    {
      "midi": 47,
      "hit": false,
      "t": 116437.5,
      "d": 140.625,
      "v": 100
    },
    {
      "midi": 36,
      "hit": false,
      "t": 116437.5,
      "d": 0.78125,
      "v": 100
    },
    {
      "midi": 78,
      "hit": false,
      "t": 116437.5,
      "d": 375,
      "v": 100
    },
    {
      "midi": 52,
      "hit": false,
      "t": 116437.5,
      "d": 187.5,
      "v": 100
    },
    {
      "midi": 49,
      "hit": false,
      "t": 116437.5,
      "d": 187.5,
      "v": 100
    },
    {
      "midi": 64,
      "hit": false,
      "t": 116531.25,
      "d": 93.75,
      "v": 100
    },
    {
      "midi": 64,
      "hit": false,
      "t": 116531.25,
      "d": 93.75,
      "v": 100
    },
    {
      "midi": 64,
      "hit": false,
      "t": 116625,
      "d": 93.75,
      "v": 100
    },
    {
      "midi": 45,
      "hit": false,
      "t": 116625,
      "d": 140.625,
      "v": 100
    },
    {
      "midi": 40,
      "hit": false,
      "t": 116625,
      "d": 0.78125,
      "v": 100
    },
    {
      "midi": 64,
      "hit": false,
      "t": 116625,
      "d": 93.75,
      "v": 100
    },
    {
      "midi": 64,
      "hit": false,
      "t": 116718.75,
      "d": 187.5,
      "v": 100
    },
    {
      "midi": 64,
      "hit": false,
      "t": 116718.75,
      "d": 187.5,
      "v": 100
    },
    {
      "midi": 74,
      "hit": false,
      "t": 116812.5,
      "d": 656.25,
      "v": 100
    },
    {
      "midi": 43,
      "hit": false,
      "t": 116812.5,
      "d": 140.625,
      "v": 100
    },
    {
      "midi": 74,
      "hit": false,
      "t": 116812.5,
      "d": 656.25,
      "v": 100
    },
    {
      "midi": 64,
      "hit": false,
      "t": 116906.25,
      "d": 93.75,
      "v": 100
    },
    {
      "midi": 64,
      "hit": false,
      "t": 116906.25,
      "d": 93.75,
      "v": 100
    },
    {
      "midi": 64,
      "hit": false,
      "t": 117000,
      "d": 93.75,
      "v": 100
    },
    {
      "midi": 52,
      "hit": false,
      "t": 117000,
      "d": 93.75,
      "v": 100
    },
    {
      "midi": 49,
      "hit": false,
      "t": 117000,
      "d": 93.75,
      "v": 100
    },
    {
      "midi": 43,
      "hit": false,
      "t": 117000,
      "d": 140.625,
      "v": 100
    },
    {
      "midi": 36,
      "hit": false,
      "t": 117000,
      "d": 0.78125,
      "v": 100
    },
    {
      "midi": 64,
      "hit": false,
      "t": 117000,
      "d": 93.75,
      "v": 100
    },
    {
      "midi": 52,
      "hit": false,
      "t": 117000,
      "d": 93.75,
      "v": 100
    },
    {
      "midi": 49,
      "hit": false,
      "t": 117000,
      "d": 93.75,
      "v": 100
    },
    {
      "midi": 64,
      "hit": false,
      "t": 117093.75,
      "d": 187.5,
      "v": 100
    },
    {
      "midi": 64,
      "hit": false,
      "t": 117093.75,
      "d": 187.5,
      "v": 100
    },
    {
      "midi": 43,
      "hit": false,
      "t": 117187.5,
      "d": 515.625,
      "v": 100
    },
    {
      "midi": 36,
      "hit": false,
      "t": 117187.5,
      "d": 0.78125,
      "v": 100
    },
    {
      "midi": 64,
      "hit": false,
      "t": 117281.25,
      "d": 93.75,
      "v": 100
    },
    {
      "midi": 64,
      "hit": false,
      "t": 117281.25,
      "d": 93.75,
      "v": 100
    },
    {
      "midi": 64,
      "hit": false,
      "t": 117375,
      "d": 93.75,
      "v": 100
    },
    {
      "midi": 40,
      "hit": false,
      "t": 117375,
      "d": 0.78125,
      "v": 100
    },
    {
      "midi": 64,
      "hit": false,
      "t": 117375,
      "d": 93.75,
      "v": 100
    },
    {
      "midi": 64,
      "hit": false,
      "t": 117468.75,
      "d": 187.5,
      "v": 100
    },
    {
      "midi": 64,
      "hit": false,
      "t": 117468.75,
      "d": 187.5,
      "v": 100
    },
    {
      "midi": 74,
      "hit": false,
      "t": 117562.5,
      "d": 140.625,
      "v": 100
    },
    {
      "midi": 74,
      "hit": false,
      "t": 117562.5,
      "d": 375,
      "v": 100
    },
    {
      "midi": 52,
      "hit": false,
      "t": 117562.5,
      "d": 93.75,
      "v": 100
    },
    {
      "midi": 49,
      "hit": false,
      "t": 117562.5,
      "d": 93.75,
      "v": 100
    },
    {
      "midi": 74,
      "hit": false,
      "t": 117562.5,
      "d": 140.625,
      "v": 100
    },
    {
      "midi": 74,
      "hit": false,
      "t": 117562.5,
      "d": 140.625,
      "v": 100
    },
    {
      "midi": 74,
      "hit": false,
      "t": 117562.5,
      "d": 375,
      "v": 100
    },
    {
      "midi": 52,
      "hit": false,
      "t": 117562.5,
      "d": 93.75,
      "v": 100
    },
    {
      "midi": 49,
      "hit": false,
      "t": 117562.5,
      "d": 93.75,
      "v": 100
    },
    {
      "midi": 64,
      "hit": false,
      "t": 117656.25,
      "d": 93.75,
      "v": 100
    },
    {
      "midi": 38,
      "hit": false,
      "t": 117656.25,
      "d": 0.78125,
      "v": 100
    },
    {
      "midi": 64,
      "hit": false,
      "t": 117656.25,
      "d": 93.75,
      "v": 100
    },
    {
      "midi": 74,
      "hit": false,
      "t": 117750,
      "d": 375,
      "v": 100
    },
    {
      "midi": 64,
      "hit": false,
      "t": 117750,
      "d": 93.75,
      "v": 100
    },
    {
      "midi": 43,
      "hit": false,
      "t": 117750,
      "d": 140.625,
      "v": 100
    },
    {
      "midi": 74,
      "hit": false,
      "t": 117750,
      "d": 375,
      "v": 100
    },
    {
      "midi": 36,
      "hit": false,
      "t": 117750,
      "d": 0.78125,
      "v": 100
    },
    {
      "midi": 88,
      "hit": false,
      "t": 117750,
      "d": 187.5,
      "v": 100
    },
    {
      "midi": 74,
      "hit": false,
      "t": 117750,
      "d": 375,
      "v": 100
    },
    {
      "midi": 64,
      "hit": false,
      "t": 117750,
      "d": 93.75,
      "v": 100
    },
    {
      "midi": 64,
      "hit": false,
      "t": 117843.75,
      "d": 187.5,
      "v": 100
    },
    {
      "midi": 38,
      "hit": false,
      "t": 117843.75,
      "d": 0.78125,
      "v": 100
    },
    {
      "midi": 64,
      "hit": false,
      "t": 117843.75,
      "d": 187.5,
      "v": 100
    },
    {
      "midi": 73,
      "hit": false,
      "t": 117937.5,
      "d": 3562.5,
      "v": 100
    },
    {
      "midi": 52,
      "hit": false,
      "t": 117937.5,
      "d": 187.5,
      "v": 100
    },
    {
      "midi": 49,
      "hit": false,
      "t": 117937.5,
      "d": 187.5,
      "v": 100
    },
    {
      "midi": 43,
      "hit": false,
      "t": 117937.5,
      "d": 515.625,
      "v": 100
    },
    {
      "midi": 36,
      "hit": false,
      "t": 117937.5,
      "d": 0.78125,
      "v": 100
    },
    {
      "midi": 86,
      "hit": false,
      "t": 117937.5,
      "d": 187.5,
      "v": 100
    },
    {
      "midi": 73,
      "hit": false,
      "t": 117937.5,
      "d": 3562.5,
      "v": 100
    },
    {
      "midi": 52,
      "hit": false,
      "t": 117937.5,
      "d": 187.5,
      "v": 100
    },
    {
      "midi": 49,
      "hit": false,
      "t": 117937.5,
      "d": 187.5,
      "v": 100
    },
    {
      "midi": 64,
      "hit": false,
      "t": 118031.25,
      "d": 93.75,
      "v": 100
    },
    {
      "midi": 64,
      "hit": false,
      "t": 118031.25,
      "d": 93.75,
      "v": 100
    },
    {
      "midi": 76,
      "hit": false,
      "t": 118125,
      "d": 187.5,
      "v": 100
    },
    {
      "midi": 64,
      "hit": false,
      "t": 118125,
      "d": 93.75,
      "v": 100
    },
    {
      "midi": 74,
      "hit": false,
      "t": 118125,
      "d": 187.5,
      "v": 100
    },
    {
      "midi": 40,
      "hit": false,
      "t": 118125,
      "d": 0.78125,
      "v": 100
    },
    {
      "midi": 55,
      "hit": false,
      "t": 118125,
      "d": 0.78125,
      "v": 100
    },
    {
      "midi": 85,
      "hit": false,
      "t": 118125,
      "d": 187.5,
      "v": 100
    },
    {
      "midi": 76,
      "hit": false,
      "t": 118125,
      "d": 187.5,
      "v": 100
    },
    {
      "midi": 64,
      "hit": false,
      "t": 118125,
      "d": 93.75,
      "v": 100
    },
    {
      "midi": 64,
      "hit": false,
      "t": 118218.75,
      "d": 187.5,
      "v": 100
    },
    {
      "midi": 64,
      "hit": false,
      "t": 118218.75,
      "d": 187.5,
      "v": 100
    },
    {
      "midi": 78,
      "hit": false,
      "t": 118312.5,
      "d": 140.625,
      "v": 100
    },
    {
      "midi": 74,
      "hit": false,
      "t": 118312.5,
      "d": 140.625,
      "v": 100
    },
    {
      "midi": 83,
      "hit": false,
      "t": 118312.5,
      "d": 187.5,
      "v": 100
    },
    {
      "midi": 78,
      "hit": false,
      "t": 118312.5,
      "d": 140.625,
      "v": 100
    },
    {
      "midi": 64,
      "hit": false,
      "t": 118406.25,
      "d": 93.75,
      "v": 100
    },
    {
      "midi": 64,
      "hit": false,
      "t": 118406.25,
      "d": 93.75,
      "v": 100
    },
    {
      "midi": 78,
      "hit": false,
      "t": 118500,
      "d": 890.625,
      "v": 100
    },
    {
      "midi": 64,
      "hit": false,
      "t": 118500,
      "d": 93.75,
      "v": 100
    },
    {
      "midi": 52,
      "hit": false,
      "t": 118500,
      "d": 93.75,
      "v": 100
    },
    {
      "midi": 49,
      "hit": false,
      "t": 118500,
      "d": 93.75,
      "v": 100
    },
    {
      "midi": 42,
      "hit": false,
      "t": 118500,
      "d": 1453.125,
      "v": 100
    },
    {
      "midi": 74,
      "hit": false,
      "t": 118500,
      "d": 890.625,
      "v": 100
    },
    {
      "midi": 36,
      "hit": false,
      "t": 118500,
      "d": 0.78125,
      "v": 100
    },
    {
      "midi": 55,
      "hit": false,
      "t": 118500,
      "d": 0.78125,
      "v": 100
    },
    {
      "midi": 81,
      "hit": false,
      "t": 118500,
      "d": 187.5,
      "v": 100
    },
    {
      "midi": 78,
      "hit": false,
      "t": 118500,
      "d": 890.625,
      "v": 100
    },
    {
      "midi": 64,
      "hit": false,
      "t": 118500,
      "d": 93.75,
      "v": 100
    },
    {
      "midi": 52,
      "hit": false,
      "t": 118500,
      "d": 93.75,
      "v": 100
    },
    {
      "midi": 49,
      "hit": false,
      "t": 118500,
      "d": 93.75,
      "v": 100
    },
    {
      "midi": 64,
      "hit": false,
      "t": 118593.75,
      "d": 187.5,
      "v": 100
    },
    {
      "midi": 64,
      "hit": false,
      "t": 118593.75,
      "d": 187.5,
      "v": 100
    },
    {
      "midi": 36,
      "hit": false,
      "t": 118687.5,
      "d": 0.78125,
      "v": 100
    },
    {
      "midi": 79,
      "hit": false,
      "t": 118687.5,
      "d": 187.5,
      "v": 100
    },
    {
      "midi": 64,
      "hit": false,
      "t": 118781.25,
      "d": 93.75,
      "v": 100
    },
    {
      "midi": 64,
      "hit": false,
      "t": 118781.25,
      "d": 93.75,
      "v": 100
    },
    {
      "midi": 64,
      "hit": false,
      "t": 118875,
      "d": 93.75,
      "v": 100
    },
    {
      "midi": 40,
      "hit": false,
      "t": 118875,
      "d": 0.78125,
      "v": 100
    },
    {
      "midi": 64,
      "hit": false,
      "t": 118875,
      "d": 93.75,
      "v": 100
    },
    {
      "midi": 64,
      "hit": false,
      "t": 118968.75,
      "d": 187.5,
      "v": 100
    },
    {
      "midi": 64,
      "hit": false,
      "t": 118968.75,
      "d": 187.5,
      "v": 100
    },
    {
      "midi": 52,
      "hit": false,
      "t": 119062.5,
      "d": 93.75,
      "v": 100
    },
    {
      "midi": 49,
      "hit": false,
      "t": 119062.5,
      "d": 93.75,
      "v": 100
    },
    {
      "midi": 52,
      "hit": false,
      "t": 119062.5,
      "d": 93.75,
      "v": 100
    },
    {
      "midi": 49,
      "hit": false,
      "t": 119062.5,
      "d": 93.75,
      "v": 100
    },
    {
      "midi": 64,
      "hit": false,
      "t": 119156.25,
      "d": 93.75,
      "v": 100
    },
    {
      "midi": 38,
      "hit": false,
      "t": 119156.25,
      "d": 0.78125,
      "v": 100
    },
    {
      "midi": 64,
      "hit": false,
      "t": 119156.25,
      "d": 93.75,
      "v": 100
    },
    {
      "midi": 64,
      "hit": false,
      "t": 119250,
      "d": 93.75,
      "v": 100
    },
    {
      "midi": 36,
      "hit": false,
      "t": 119250,
      "d": 0.78125,
      "v": 100
    },
    {
      "midi": 64,
      "hit": false,
      "t": 119250,
      "d": 93.75,
      "v": 100
    },
    {
      "midi": 64,
      "hit": false,
      "t": 119343.75,
      "d": 187.5,
      "v": 100
    },
    {
      "midi": 38,
      "hit": false,
      "t": 119343.75,
      "d": 0.78125,
      "v": 100
    },
    {
      "midi": 64,
      "hit": false,
      "t": 119343.75,
      "d": 187.5,
      "v": 100
    },
    {
      "midi": 78,
      "hit": false,
      "t": 119437.5,
      "d": 187.5,
      "v": 100
    },
    {
      "midi": 49,
      "hit": false,
      "t": 119437.5,
      "d": 93.75,
      "v": 100
    },
    {
      "midi": 52,
      "hit": false,
      "t": 119437.5,
      "d": 93.75,
      "v": 100
    },
    {
      "midi": 36,
      "hit": false,
      "t": 119437.5,
      "d": 0.78125,
      "v": 100
    },
    {
      "midi": 78,
      "hit": false,
      "t": 119437.5,
      "d": 187.5,
      "v": 100
    },
    {
      "midi": 49,
      "hit": false,
      "t": 119437.5,
      "d": 93.75,
      "v": 100
    },
    {
      "midi": 52,
      "hit": false,
      "t": 119437.5,
      "d": 93.75,
      "v": 100
    },
    {
      "midi": 64,
      "hit": false,
      "t": 119531.25,
      "d": 93.75,
      "v": 100
    },
    {
      "midi": 64,
      "hit": false,
      "t": 119531.25,
      "d": 93.75,
      "v": 100
    },
    {
      "midi": 83,
      "hit": false,
      "t": 119625,
      "d": 187.5,
      "v": 100
    },
    {
      "midi": 64,
      "hit": false,
      "t": 119625,
      "d": 93.75,
      "v": 100
    },
    {
      "midi": 52,
      "hit": false,
      "t": 119625,
      "d": 93.75,
      "v": 100
    },
    {
      "midi": 49,
      "hit": false,
      "t": 119625,
      "d": 93.75,
      "v": 100
    },
    {
      "midi": 40,
      "hit": false,
      "t": 119625,
      "d": 0.78125,
      "v": 100
    },
    {
      "midi": 83,
      "hit": false,
      "t": 119625,
      "d": 187.5,
      "v": 100
    },
    {
      "midi": 64,
      "hit": false,
      "t": 119625,
      "d": 93.75,
      "v": 100
    },
    {
      "midi": 52,
      "hit": false,
      "t": 119625,
      "d": 93.75,
      "v": 100
    },
    {
      "midi": 49,
      "hit": false,
      "t": 119625,
      "d": 93.75,
      "v": 100
    },
    {
      "midi": 64,
      "hit": false,
      "t": 119718.75,
      "d": 187.5,
      "v": 100
    },
    {
      "midi": 64,
      "hit": false,
      "t": 119718.75,
      "d": 187.5,
      "v": 100
    },
    {
      "midi": 86,
      "hit": false,
      "t": 119812.5,
      "d": 187.5,
      "v": 100
    },
    {
      "midi": 86,
      "hit": false,
      "t": 119812.5,
      "d": 187.5,
      "v": 100
    },
    {
      "midi": 64,
      "hit": false,
      "t": 119906.25,
      "d": 93.75,
      "v": 100
    },
    {
      "midi": 64,
      "hit": false,
      "t": 119906.25,
      "d": 93.75,
      "v": 100
    },
    {
      "midi": 85,
      "hit": false,
      "t": 120000,
      "d": 375,
      "v": 100
    },
    {
      "midi": 64,
      "hit": false,
      "t": 120000,
      "d": 93.75,
      "v": 100
    },
    {
      "midi": 52,
      "hit": false,
      "t": 120000,
      "d": 93.75,
      "v": 100
    },
    {
      "midi": 49,
      "hit": false,
      "t": 120000,
      "d": 93.75,
      "v": 100
    },
    {
      "midi": 50,
      "hit": false,
      "t": 120000,
      "d": 1453.125,
      "v": 100
    },
    {
      "midi": 36,
      "hit": false,
      "t": 120000,
      "d": 0.78125,
      "v": 100
    },
    {
      "midi": 88,
      "hit": false,
      "t": 120000,
      "d": 187.5,
      "v": 100
    },
    {
      "midi": 85,
      "hit": false,
      "t": 120000,
      "d": 375,
      "v": 100
    },
    {
      "midi": 64,
      "hit": false,
      "t": 120000,
      "d": 93.75,
      "v": 100
    },
    {
      "midi": 52,
      "hit": false,
      "t": 120000,
      "d": 93.75,
      "v": 100
    },
    {
      "midi": 49,
      "hit": false,
      "t": 120000,
      "d": 93.75,
      "v": 100
    },
    {
      "midi": 64,
      "hit": false,
      "t": 120093.75,
      "d": 187.5,
      "v": 100
    },
    {
      "midi": 64,
      "hit": false,
      "t": 120093.75,
      "d": 187.5,
      "v": 100
    },
    {
      "midi": 36,
      "hit": false,
      "t": 120187.5,
      "d": 0.78125,
      "v": 100
    },
    {
      "midi": 64,
      "hit": false,
      "t": 120281.25,
      "d": 93.75,
      "v": 100
    },
    {
      "midi": 64,
      "hit": false,
      "t": 120281.25,
      "d": 93.75,
      "v": 100
    },
    {
      "midi": 83,
      "hit": false,
      "t": 120375,
      "d": 187.5,
      "v": 100
    },
    {
      "midi": 64,
      "hit": false,
      "t": 120375,
      "d": 93.75,
      "v": 100
    },
    {
      "midi": 40,
      "hit": false,
      "t": 120375,
      "d": 0.78125,
      "v": 100
    },
    {
      "midi": 83,
      "hit": false,
      "t": 120375,
      "d": 187.5,
      "v": 100
    },
    {
      "midi": 64,
      "hit": false,
      "t": 120375,
      "d": 93.75,
      "v": 100
    },
    {
      "midi": 64,
      "hit": false,
      "t": 120468.75,
      "d": 187.5,
      "v": 100
    },
    {
      "midi": 64,
      "hit": false,
      "t": 120468.75,
      "d": 187.5,
      "v": 100
    },
    {
      "midi": 81,
      "hit": false,
      "t": 120562.5,
      "d": 375,
      "v": 100
    },
    {
      "midi": 52,
      "hit": false,
      "t": 120562.5,
      "d": 93.75,
      "v": 100
    },
    {
      "midi": 49,
      "hit": false,
      "t": 120562.5,
      "d": 93.75,
      "v": 100
    },
    {
      "midi": 81,
      "hit": false,
      "t": 120562.5,
      "d": 375,
      "v": 100
    },
    {
      "midi": 52,
      "hit": false,
      "t": 120562.5,
      "d": 93.75,
      "v": 100
    },
    {
      "midi": 49,
      "hit": false,
      "t": 120562.5,
      "d": 93.75,
      "v": 100
    },
    {
      "midi": 64,
      "hit": false,
      "t": 120656.25,
      "d": 93.75,
      "v": 100
    },
    {
      "midi": 38,
      "hit": false,
      "t": 120656.25,
      "d": 0.78125,
      "v": 100
    },
    {
      "midi": 64,
      "hit": false,
      "t": 120656.25,
      "d": 93.75,
      "v": 100
    },
    {
      "midi": 64,
      "hit": false,
      "t": 120750,
      "d": 93.75,
      "v": 100
    },
    {
      "midi": 36,
      "hit": false,
      "t": 120750,
      "d": 0.78125,
      "v": 100
    },
    {
      "midi": 64,
      "hit": false,
      "t": 120750,
      "d": 93.75,
      "v": 100
    },
    {
      "midi": 64,
      "hit": false,
      "t": 120843.75,
      "d": 187.5,
      "v": 100
    },
    {
      "midi": 38,
      "hit": false,
      "t": 120843.75,
      "d": 0.78125,
      "v": 100
    },
    {
      "midi": 64,
      "hit": false,
      "t": 120843.75,
      "d": 187.5,
      "v": 100
    },
    {
      "midi": 79,
      "hit": false,
      "t": 120937.5,
      "d": 328.125,
      "v": 100
    },
    {
      "midi": 49,
      "hit": false,
      "t": 120937.5,
      "d": 93.75,
      "v": 100
    },
    {
      "midi": 52,
      "hit": false,
      "t": 120937.5,
      "d": 93.75,
      "v": 100
    },
    {
      "midi": 36,
      "hit": false,
      "t": 120937.5,
      "d": 0.78125,
      "v": 100
    },
    {
      "midi": 79,
      "hit": false,
      "t": 120937.5,
      "d": 328.125,
      "v": 100
    },
    {
      "midi": 49,
      "hit": false,
      "t": 120937.5,
      "d": 93.75,
      "v": 100
    },
    {
      "midi": 52,
      "hit": false,
      "t": 120937.5,
      "d": 93.75,
      "v": 100
    },
    {
      "midi": 64,
      "hit": false,
      "t": 121031.25,
      "d": 93.75,
      "v": 100
    },
    {
      "midi": 64,
      "hit": false,
      "t": 121031.25,
      "d": 93.75,
      "v": 100
    },
    {
      "midi": 64,
      "hit": false,
      "t": 121125,
      "d": 93.75,
      "v": 100
    },
    {
      "midi": 52,
      "hit": false,
      "t": 121125,
      "d": 93.75,
      "v": 100
    },
    {
      "midi": 49,
      "hit": false,
      "t": 121125,
      "d": 93.75,
      "v": 100
    },
    {
      "midi": 40,
      "hit": false,
      "t": 121125,
      "d": 0.78125,
      "v": 100
    },
    {
      "midi": 64,
      "hit": false,
      "t": 121125,
      "d": 93.75,
      "v": 100
    },
    {
      "midi": 52,
      "hit": false,
      "t": 121125,
      "d": 93.75,
      "v": 100
    },
    {
      "midi": 49,
      "hit": false,
      "t": 121125,
      "d": 93.75,
      "v": 100
    },
    {
      "midi": 64,
      "hit": false,
      "t": 121218.75,
      "d": 187.5,
      "v": 100
    },
    {
      "midi": 64,
      "hit": false,
      "t": 121218.75,
      "d": 187.5,
      "v": 100
    },
    {
      "midi": 79,
      "hit": false,
      "t": 121312.5,
      "d": 187.5,
      "v": 100
    },
    {
      "midi": 79,
      "hit": false,
      "t": 121312.5,
      "d": 187.5,
      "v": 100
    },
    {
      "midi": 64,
      "hit": false,
      "t": 121406.25,
      "d": 93.75,
      "v": 100
    },
    {
      "midi": 64,
      "hit": false,
      "t": 121406.25,
      "d": 93.75,
      "v": 100
    },
    {
      "midi": 83,
      "hit": false,
      "t": 121500,
      "d": 187.5,
      "v": 100
    },
    {
      "midi": 78,
      "hit": false,
      "t": 121500,
      "d": 1500,
      "v": 100
    },
    {
      "midi": 64,
      "hit": false,
      "t": 121500,
      "d": 93.75,
      "v": 100
    },
    {
      "midi": 52,
      "hit": false,
      "t": 121500,
      "d": 93.75,
      "v": 100
    },
    {
      "midi": 49,
      "hit": false,
      "t": 121500,
      "d": 93.75,
      "v": 100
    },
    {
      "midi": 49,
      "hit": false,
      "t": 121500,
      "d": 1453.125,
      "v": 100
    },
    {
      "midi": 36,
      "hit": false,
      "t": 121500,
      "d": 0.78125,
      "v": 100
    },
    {
      "midi": 90,
      "hit": false,
      "t": 121500,
      "d": 187.5,
      "v": 100
    },
    {
      "midi": 83,
      "hit": false,
      "t": 121500,
      "d": 187.5,
      "v": 100
    },
    {
      "midi": 78,
      "hit": false,
      "t": 121500,
      "d": 1500,
      "v": 100
    },
    {
      "midi": 64,
      "hit": false,
      "t": 121500,
      "d": 93.75,
      "v": 100
    },
    {
      "midi": 52,
      "hit": false,
      "t": 121500,
      "d": 93.75,
      "v": 100
    },
    {
      "midi": 49,
      "hit": false,
      "t": 121500,
      "d": 93.75,
      "v": 100
    },
    {
      "midi": 64,
      "hit": false,
      "t": 121593.75,
      "d": 187.5,
      "v": 100
    },
    {
      "midi": 64,
      "hit": false,
      "t": 121593.75,
      "d": 187.5,
      "v": 100
    },
    {
      "midi": 36,
      "hit": false,
      "t": 121687.5,
      "d": 0.78125,
      "v": 100
    },
    {
      "midi": 64,
      "hit": false,
      "t": 121781.25,
      "d": 93.75,
      "v": 100
    },
    {
      "midi": 64,
      "hit": false,
      "t": 121781.25,
      "d": 93.75,
      "v": 100
    },
    {
      "midi": 64,
      "hit": false,
      "t": 121875,
      "d": 93.75,
      "v": 100
    },
    {
      "midi": 40,
      "hit": false,
      "t": 121875,
      "d": 0.78125,
      "v": 100
    },
    {
      "midi": 64,
      "hit": false,
      "t": 121875,
      "d": 93.75,
      "v": 100
    },
    {
      "midi": 83,
      "hit": false,
      "t": 121968.75,
      "d": 93.75,
      "v": 100
    },
    {
      "midi": 64,
      "hit": false,
      "t": 121968.75,
      "d": 187.5,
      "v": 100
    },
    {
      "midi": 83,
      "hit": false,
      "t": 121968.75,
      "d": 93.75,
      "v": 100
    },
    {
      "midi": 83,
      "hit": false,
      "t": 121968.75,
      "d": 93.75,
      "v": 100
    },
    {
      "midi": 64,
      "hit": false,
      "t": 121968.75,
      "d": 187.5,
      "v": 100
    },
    {
      "midi": 52,
      "hit": false,
      "t": 122062.5,
      "d": 93.75,
      "v": 100
    },
    {
      "midi": 49,
      "hit": false,
      "t": 122062.5,
      "d": 93.75,
      "v": 100
    },
    {
      "midi": 52,
      "hit": false,
      "t": 122062.5,
      "d": 93.75,
      "v": 100
    },
    {
      "midi": 49,
      "hit": false,
      "t": 122062.5,
      "d": 93.75,
      "v": 100
    },
    {
      "midi": 83,
      "hit": false,
      "t": 122109.375,
      "d": 93.75,
      "v": 100
    },
    {
      "midi": 83,
      "hit": false,
      "t": 122109.375,
      "d": 93.75,
      "v": 100
    },
    {
      "midi": 83,
      "hit": false,
      "t": 122109.375,
      "d": 93.75,
      "v": 100
    },
    {
      "midi": 64,
      "hit": false,
      "t": 122156.25,
      "d": 93.75,
      "v": 100
    },
    {
      "midi": 38,
      "hit": false,
      "t": 122156.25,
      "d": 0.78125,
      "v": 100
    },
    {
      "midi": 64,
      "hit": false,
      "t": 122156.25,
      "d": 93.75,
      "v": 100
    },
    {
      "midi": 64,
      "hit": false,
      "t": 122250,
      "d": 93.75,
      "v": 100
    },
    {
      "midi": 36,
      "hit": false,
      "t": 122250,
      "d": 0.78125,
      "v": 100
    },
    {
      "midi": 64,
      "hit": false,
      "t": 122250,
      "d": 93.75,
      "v": 100
    },
    {
      "midi": 83,
      "hit": false,
      "t": 122296.875,
      "d": 140.625,
      "v": 100
    },
    {
      "midi": 83,
      "hit": false,
      "t": 122296.875,
      "d": 140.625,
      "v": 100
    },
    {
      "midi": 83,
      "hit": false,
      "t": 122296.875,
      "d": 140.625,
      "v": 100
    },
    {
      "midi": 64,
      "hit": false,
      "t": 122343.75,
      "d": 187.5,
      "v": 100
    },
    {
      "midi": 38,
      "hit": false,
      "t": 122343.75,
      "d": 0.78125,
      "v": 100
    },
    {
      "midi": 64,
      "hit": false,
      "t": 122343.75,
      "d": 187.5,
      "v": 100
    },
    {
      "midi": 85,
      "hit": false,
      "t": 122437.5,
      "d": 375,
      "v": 100
    },
    {
      "midi": 52,
      "hit": false,
      "t": 122437.5,
      "d": 93.75,
      "v": 100
    },
    {
      "midi": 49,
      "hit": false,
      "t": 122437.5,
      "d": 93.75,
      "v": 100
    },
    {
      "midi": 85,
      "hit": false,
      "t": 122437.5,
      "d": 375,
      "v": 100
    },
    {
      "midi": 36,
      "hit": false,
      "t": 122437.5,
      "d": 0.78125,
      "v": 100
    },
    {
      "midi": 85,
      "hit": false,
      "t": 122437.5,
      "d": 375,
      "v": 100
    },
    {
      "midi": 52,
      "hit": false,
      "t": 122437.5,
      "d": 93.75,
      "v": 100
    },
    {
      "midi": 49,
      "hit": false,
      "t": 122437.5,
      "d": 93.75,
      "v": 100
    },
    {
      "midi": 64,
      "hit": false,
      "t": 122531.25,
      "d": 93.75,
      "v": 100
    },
    {
      "midi": 64,
      "hit": false,
      "t": 122531.25,
      "d": 93.75,
      "v": 100
    },
    {
      "midi": 64,
      "hit": false,
      "t": 122625,
      "d": 93.75,
      "v": 100
    },
    {
      "midi": 52,
      "hit": false,
      "t": 122625,
      "d": 93.75,
      "v": 100
    },
    {
      "midi": 49,
      "hit": false,
      "t": 122625,
      "d": 93.75,
      "v": 100
    },
    {
      "midi": 40,
      "hit": false,
      "t": 122625,
      "d": 0.78125,
      "v": 100
    },
    {
      "midi": 64,
      "hit": false,
      "t": 122625,
      "d": 93.75,
      "v": 100
    },
    {
      "midi": 52,
      "hit": false,
      "t": 122625,
      "d": 93.75,
      "v": 100
    },
    {
      "midi": 49,
      "hit": false,
      "t": 122625,
      "d": 93.75,
      "v": 100
    },
    {
      "midi": 64,
      "hit": false,
      "t": 122718.75,
      "d": 187.5,
      "v": 100
    },
    {
      "midi": 64,
      "hit": false,
      "t": 122718.75,
      "d": 187.5,
      "v": 100
    },
    {
      "midi": 83,
      "hit": false,
      "t": 122812.5,
      "d": 187.5,
      "v": 100
    },
    {
      "midi": 86,
      "hit": false,
      "t": 122812.5,
      "d": 187.5,
      "v": 100
    },
    {
      "midi": 83,
      "hit": false,
      "t": 122812.5,
      "d": 187.5,
      "v": 100
    },
    {
      "midi": 64,
      "hit": false,
      "t": 122906.25,
      "d": 93.75,
      "v": 100
    },
    {
      "midi": 64,
      "hit": false,
      "t": 122906.25,
      "d": 93.75,
      "v": 100
    },
    {
      "midi": 81,
      "hit": false,
      "t": 123000,
      "d": 375,
      "v": 100
    },
    {
      "midi": 62,
      "hit": false,
      "t": 123000,
      "d": 93.75,
      "v": 100
    },
    {
      "midi": 50,
      "hit": false,
      "t": 123000,
      "d": 93.75,
      "v": 100
    },
    {
      "midi": 47,
      "hit": false,
      "t": 123000,
      "d": 93.75,
      "v": 100
    },
    {
      "midi": 47,
      "hit": false,
      "t": 123000,
      "d": 1453.125,
      "v": 100
    },
    {
      "midi": 88,
      "hit": false,
      "t": 123000,
      "d": 375,
      "v": 100
    },
    {
      "midi": 36,
      "hit": false,
      "t": 123000,
      "d": 0.78125,
      "v": 100
    },
    {
      "midi": 81,
      "hit": false,
      "t": 123000,
      "d": 375,
      "v": 100
    },
    {
      "midi": 62,
      "hit": false,
      "t": 123000,
      "d": 93.75,
      "v": 100
    },
    {
      "midi": 50,
      "hit": false,
      "t": 123000,
      "d": 93.75,
      "v": 100
    },
    {
      "midi": 47,
      "hit": false,
      "t": 123000,
      "d": 93.75,
      "v": 100
    },
    {
      "midi": 62,
      "hit": false,
      "t": 123093.75,
      "d": 187.5,
      "v": 100
    },
    {
      "midi": 62,
      "hit": false,
      "t": 123093.75,
      "d": 187.5,
      "v": 100
    },
    {
      "midi": 76,
      "hit": false,
      "t": 123187.5,
      "d": 187.5,
      "v": 100
    },
    {
      "midi": 36,
      "hit": false,
      "t": 123187.5,
      "d": 0.78125,
      "v": 100
    },
    {
      "midi": 88,
      "hit": false,
      "t": 123187.5,
      "d": 187.5,
      "v": 100
    },
    {
      "midi": 62,
      "hit": false,
      "t": 123281.25,
      "d": 93.75,
      "v": 100
    },
    {
      "midi": 62,
      "hit": false,
      "t": 123281.25,
      "d": 93.75,
      "v": 100
    },
    {
      "midi": 61,
      "hit": false,
      "t": 123375,
      "d": 93.75,
      "v": 100
    },
    {
      "midi": 74,
      "hit": false,
      "t": 123375,
      "d": 187.5,
      "v": 100
    },
    {
      "midi": 38,
      "hit": false,
      "t": 123375,
      "d": 0.78125,
      "v": 100
    },
    {
      "midi": 86,
      "hit": false,
      "t": 123375,
      "d": 187.5,
      "v": 100
    },
    {
      "midi": 61,
      "hit": false,
      "t": 123375,
      "d": 93.75,
      "v": 100
    },
    {
      "midi": 61,
      "hit": false,
      "t": 123468.75,
      "d": 187.5,
      "v": 100
    },
    {
      "midi": 61,
      "hit": false,
      "t": 123468.75,
      "d": 187.5,
      "v": 100
    },
    {
      "midi": 69,
      "hit": false,
      "t": 123562.5,
      "d": 93.75,
      "v": 100
    },
    {
      "midi": 50,
      "hit": false,
      "t": 123562.5,
      "d": 93.75,
      "v": 100
    },
    {
      "midi": 47,
      "hit": false,
      "t": 123562.5,
      "d": 93.75,
      "v": 100
    },
    {
      "midi": 69,
      "hit": false,
      "t": 123562.5,
      "d": 93.75,
      "v": 100
    },
    {
      "midi": 73,
      "hit": false,
      "t": 123562.5,
      "d": 187.5,
      "v": 100
    },
    {
      "midi": 40,
      "hit": false,
      "t": 123562.5,
      "d": 0.78125,
      "v": 100
    },
    {
      "midi": 85,
      "hit": false,
      "t": 123562.5,
      "d": 187.5,
      "v": 100
    },
    {
      "midi": 69,
      "hit": false,
      "t": 123562.5,
      "d": 93.75,
      "v": 100
    },
    {
      "midi": 50,
      "hit": false,
      "t": 123562.5,
      "d": 93.75,
      "v": 100
    },
    {
      "midi": 47,
      "hit": false,
      "t": 123562.5,
      "d": 93.75,
      "v": 100
    },
    {
      "midi": 71,
      "hit": false,
      "t": 123656.25,
      "d": 93.75,
      "v": 100
    },
    {
      "midi": 61,
      "hit": false,
      "t": 123656.25,
      "d": 93.75,
      "v": 100
    },
    {
      "midi": 69,
      "hit": false,
      "t": 123656.25,
      "d": 93.75,
      "v": 100
    },
    {
      "midi": 38,
      "hit": false,
      "t": 123656.25,
      "d": 0.78125,
      "v": 100
    },
    {
      "midi": 71,
      "hit": false,
      "t": 123656.25,
      "d": 93.75,
      "v": 100
    },
    {
      "midi": 61,
      "hit": false,
      "t": 123656.25,
      "d": 93.75,
      "v": 100
    },
    {
      "midi": 74,
      "hit": false,
      "t": 123750,
      "d": 281.25,
      "v": 100
    },
    {
      "midi": 61,
      "hit": false,
      "t": 123750,
      "d": 93.75,
      "v": 100
    },
    {
      "midi": 69,
      "hit": false,
      "t": 123750,
      "d": 281.25,
      "v": 100
    },
    {
      "midi": 76,
      "hit": false,
      "t": 123750,
      "d": 187.5,
      "v": 100
    },
    {
      "midi": 40,
      "hit": false,
      "t": 123750,
      "d": 0.78125,
      "v": 100
    },
    {
      "midi": 88,
      "hit": false,
      "t": 123750,
      "d": 187.5,
      "v": 100
    },
    {
      "midi": 74,
      "hit": false,
      "t": 123750,
      "d": 281.25,
      "v": 100
    },
    {
      "midi": 61,
      "hit": false,
      "t": 123750,
      "d": 93.75,
      "v": 100
    },
    {
      "midi": 61,
      "hit": false,
      "t": 123843.75,
      "d": 187.5,
      "v": 100
    },
    {
      "midi": 61,
      "hit": false,
      "t": 123843.75,
      "d": 187.5,
      "v": 100
    },
    {
      "midi": 50,
      "hit": false,
      "t": 123937.5,
      "d": 93.75,
      "v": 100
    },
    {
      "midi": 47,
      "hit": false,
      "t": 123937.5,
      "d": 93.75,
      "v": 100
    },
    {
      "midi": 74,
      "hit": false,
      "t": 123937.5,
      "d": 187.5,
      "v": 100
    },
    {
      "midi": 38,
      "hit": false,
      "t": 123937.5,
      "d": 0.78125,
      "v": 100
    },
    {
      "midi": 86,
      "hit": false,
      "t": 123937.5,
      "d": 187.5,
      "v": 100
    },
    {
      "midi": 50,
      "hit": false,
      "t": 123937.5,
      "d": 93.75,
      "v": 100
    },
    {
      "midi": 47,
      "hit": false,
      "t": 123937.5,
      "d": 93.75,
      "v": 100
    },
    {
      "midi": 73,
      "hit": false,
      "t": 124031.25,
      "d": 281.25,
      "v": 100
    },
    {
      "midi": 61,
      "hit": false,
      "t": 124031.25,
      "d": 93.75,
      "v": 100
    },
    {
      "midi": 69,
      "hit": false,
      "t": 124031.25,
      "d": 281.25,
      "v": 100
    },
    {
      "midi": 38,
      "hit": false,
      "t": 124031.25,
      "d": 0.78125,
      "v": 100
    },
    {
      "midi": 73,
      "hit": false,
      "t": 124031.25,
      "d": 281.25,
      "v": 100
    },
    {
      "midi": 61,
      "hit": false,
      "t": 124031.25,
      "d": 93.75,
      "v": 100
    },
    {
      "midi": 61,
      "hit": false,
      "t": 124125,
      "d": 93.75,
      "v": 100
    },
    {
      "midi": 50,
      "hit": false,
      "t": 124125,
      "d": 93.75,
      "v": 100
    },
    {
      "midi": 47,
      "hit": false,
      "t": 124125,
      "d": 93.75,
      "v": 100
    },
    {
      "midi": 73,
      "hit": false,
      "t": 124125,
      "d": 187.5,
      "v": 100
    },
    {
      "midi": 38,
      "hit": false,
      "t": 124125,
      "d": 0.78125,
      "v": 100
    },
    {
      "midi": 85,
      "hit": false,
      "t": 124125,
      "d": 187.5,
      "v": 100
    },
    {
      "midi": 61,
      "hit": false,
      "t": 124125,
      "d": 93.75,
      "v": 100
    },
    {
      "midi": 50,
      "hit": false,
      "t": 124125,
      "d": 93.75,
      "v": 100
    },
    {
      "midi": 47,
      "hit": false,
      "t": 124125,
      "d": 93.75,
      "v": 100
    },
    {
      "midi": 61,
      "hit": false,
      "t": 124218.75,
      "d": 187.5,
      "v": 100
    },
    {
      "midi": 40,
      "hit": false,
      "t": 124218.75,
      "d": 0.78125,
      "v": 100
    },
    {
      "midi": 61,
      "hit": false,
      "t": 124218.75,
      "d": 187.5,
      "v": 100
    },
    {
      "midi": 74,
      "hit": false,
      "t": 124312.5,
      "d": 562.5,
      "v": 100
    },
    {
      "midi": 71,
      "hit": false,
      "t": 124312.5,
      "d": 562.5,
      "v": 100
    },
    {
      "midi": 71,
      "hit": false,
      "t": 124312.5,
      "d": 187.5,
      "v": 100
    },
    {
      "midi": 38,
      "hit": false,
      "t": 124312.5,
      "d": 0.78125,
      "v": 100
    },
    {
      "midi": 83,
      "hit": false,
      "t": 124312.5,
      "d": 187.5,
      "v": 100
    },
    {
      "midi": 74,
      "hit": false,
      "t": 124312.5,
      "d": 562.5,
      "v": 100
    },
    {
      "midi": 61,
      "hit": false,
      "t": 124406.25,
      "d": 93.75,
      "v": 100
    },
    {
      "midi": 61,
      "hit": false,
      "t": 124406.25,
      "d": 93.75,
      "v": 100
    },
    {
      "midi": 76,
      "hit": false,
      "t": 124500,
      "d": 5062.5,
      "v": 100
    },
    {
      "midi": 64,
      "hit": false,
      "t": 124500,
      "d": 93.75,
      "v": 100
    },
    {
      "midi": 52,
      "hit": false,
      "t": 124500,
      "d": 93.75,
      "v": 100
    },
    {
      "midi": 49,
      "hit": false,
      "t": 124500,
      "d": 93.75,
      "v": 100
    },
    {
      "midi": 40,
      "hit": false,
      "t": 124500,
      "d": 140.625,
      "v": 100
    },
    {
      "midi": 36,
      "hit": false,
      "t": 124500,
      "d": 0.78125,
      "v": 100
    },
    {
      "midi": 55,
      "hit": false,
      "t": 124500,
      "d": 0.78125,
      "v": 100
    },
    {
      "midi": 88,
      "hit": false,
      "t": 124500,
      "d": 187.5,
      "v": 100
    },
    {
      "midi": 76,
      "hit": false,
      "t": 124500,
      "d": 5062.5,
      "v": 100
    },
    {
      "midi": 64,
      "hit": false,
      "t": 124500,
      "d": 93.75,
      "v": 100
    },
    {
      "midi": 52,
      "hit": false,
      "t": 124500,
      "d": 93.75,
      "v": 100
    },
    {
      "midi": 49,
      "hit": false,
      "t": 124500,
      "d": 93.75,
      "v": 100
    },
    {
      "midi": 64,
      "hit": false,
      "t": 124593.75,
      "d": 187.5,
      "v": 100
    },
    {
      "midi": 64,
      "hit": false,
      "t": 124593.75,
      "d": 187.5,
      "v": 100
    },
    {
      "midi": 40,
      "hit": false,
      "t": 124687.5,
      "d": 140.625,
      "v": 100
    },
    {
      "midi": 36,
      "hit": false,
      "t": 124687.5,
      "d": 0.78125,
      "v": 100
    },
    {
      "midi": 64,
      "hit": false,
      "t": 124781.25,
      "d": 93.75,
      "v": 100
    },
    {
      "midi": 64,
      "hit": false,
      "t": 124781.25,
      "d": 93.75,
      "v": 100
    },
    {
      "midi": 64,
      "hit": false,
      "t": 124875,
      "d": 93.75,
      "v": 100
    },
    {
      "midi": 38,
      "hit": false,
      "t": 124875,
      "d": 140.625,
      "v": 100
    },
    {
      "midi": 40,
      "hit": false,
      "t": 124875,
      "d": 0.78125,
      "v": 100
    },
    {
      "midi": 64,
      "hit": false,
      "t": 124875,
      "d": 93.75,
      "v": 100
    },
    {
      "midi": 64,
      "hit": false,
      "t": 124968.75,
      "d": 187.5,
      "v": 100
    },
    {
      "midi": 64,
      "hit": false,
      "t": 124968.75,
      "d": 187.5,
      "v": 100
    },
    {
      "midi": 69,
      "hit": false,
      "t": 125062.5,
      "d": 93.75,
      "v": 100
    },
    {
      "midi": 52,
      "hit": false,
      "t": 125062.5,
      "d": 93.75,
      "v": 100
    },
    {
      "midi": 49,
      "hit": false,
      "t": 125062.5,
      "d": 93.75,
      "v": 100
    },
    {
      "midi": 40,
      "hit": false,
      "t": 125062.5,
      "d": 140.625,
      "v": 100
    },
    {
      "midi": 69,
      "hit": false,
      "t": 125062.5,
      "d": 93.75,
      "v": 100
    },
    {
      "midi": 69,
      "hit": false,
      "t": 125062.5,
      "d": 93.75,
      "v": 100
    },
    {
      "midi": 52,
      "hit": false,
      "t": 125062.5,
      "d": 93.75,
      "v": 100
    },
    {
      "midi": 49,
      "hit": false,
      "t": 125062.5,
      "d": 93.75,
      "v": 100
    },
    {
      "midi": 71,
      "hit": false,
      "t": 125156.25,
      "d": 93.75,
      "v": 100
    },
    {
      "midi": 64,
      "hit": false,
      "t": 125156.25,
      "d": 93.75,
      "v": 100
    },
    {
      "midi": 69,
      "hit": false,
      "t": 125156.25,
      "d": 93.75,
      "v": 100
    },
    {
      "midi": 38,
      "hit": false,
      "t": 125156.25,
      "d": 0.78125,
      "v": 100
    },
    {
      "midi": 71,
      "hit": false,
      "t": 125156.25,
      "d": 93.75,
      "v": 100
    },
    {
      "midi": 64,
      "hit": false,
      "t": 125156.25,
      "d": 93.75,
      "v": 100
    },
    {
      "midi": 76,
      "hit": false,
      "t": 125250,
      "d": 281.25,
      "v": 100
    },
    {
      "midi": 64,
      "hit": false,
      "t": 125250,
      "d": 93.75,
      "v": 100
    },
    {
      "midi": 38,
      "hit": false,
      "t": 125250,
      "d": 140.625,
      "v": 100
    },
    {
      "midi": 69,
      "hit": false,
      "t": 125250,
      "d": 281.25,
      "v": 100
    },
    {
      "midi": 36,
      "hit": false,
      "t": 125250,
      "d": 0.78125,
      "v": 100
    },
    {
      "midi": 76,
      "hit": false,
      "t": 125250,
      "d": 281.25,
      "v": 100
    },
    {
      "midi": 64,
      "hit": false,
      "t": 125250,
      "d": 93.75,
      "v": 100
    },
    {
      "midi": 64,
      "hit": false,
      "t": 125343.75,
      "d": 187.5,
      "v": 100
    },
    {
      "midi": 38,
      "hit": false,
      "t": 125343.75,
      "d": 0.78125,
      "v": 100
    },
    {
      "midi": 64,
      "hit": false,
      "t": 125343.75,
      "d": 187.5,
      "v": 100
    },
    {
      "midi": 52,
      "hit": false,
      "t": 125437.5,
      "d": 187.5,
      "v": 100
    },
    {
      "midi": 49,
      "hit": false,
      "t": 125437.5,
      "d": 187.5,
      "v": 100
    },
    {
      "midi": 40,
      "hit": false,
      "t": 125437.5,
      "d": 140.625,
      "v": 100
    },
    {
      "midi": 36,
      "hit": false,
      "t": 125437.5,
      "d": 0.78125,
      "v": 100
    },
    {
      "midi": 52,
      "hit": false,
      "t": 125437.5,
      "d": 187.5,
      "v": 100
    },
    {
      "midi": 49,
      "hit": false,
      "t": 125437.5,
      "d": 187.5,
      "v": 100
    },
    {
      "midi": 74,
      "hit": false,
      "t": 125531.25,
      "d": 281.25,
      "v": 100
    },
    {
      "midi": 64,
      "hit": false,
      "t": 125531.25,
      "d": 93.75,
      "v": 100
    },
    {
      "midi": 69,
      "hit": false,
      "t": 125531.25,
      "d": 281.25,
      "v": 100
    },
    {
      "midi": 74,
      "hit": false,
      "t": 125531.25,
      "d": 281.25,
      "v": 100
    },
    {
      "midi": 64,
      "hit": false,
      "t": 125531.25,
      "d": 93.75,
      "v": 100
    },
    {
      "midi": 64,
      "hit": false,
      "t": 125625,
      "d": 93.75,
      "v": 100
    },
    {
      "midi": 38,
      "hit": false,
      "t": 125625,
      "d": 140.625,
      "v": 100
    },
    {
      "midi": 40,
      "hit": false,
      "t": 125625,
      "d": 0.78125,
      "v": 100
    },
    {
      "midi": 64,
      "hit": false,
      "t": 125625,
      "d": 93.75,
      "v": 100
    },
    {
      "midi": 64,
      "hit": false,
      "t": 125718.75,
      "d": 187.5,
      "v": 100
    },
    {
      "midi": 64,
      "hit": false,
      "t": 125718.75,
      "d": 187.5,
      "v": 100
    },
    {
      "midi": 76,
      "hit": false,
      "t": 125812.5,
      "d": 562.5,
      "v": 100
    },
    {
      "midi": 40,
      "hit": false,
      "t": 125812.5,
      "d": 140.625,
      "v": 100
    },
    {
      "midi": 71,
      "hit": false,
      "t": 125812.5,
      "d": 562.5,
      "v": 100
    },
    {
      "midi": 76,
      "hit": false,
      "t": 125812.5,
      "d": 562.5,
      "v": 100
    },
    {
      "midi": 64,
      "hit": false,
      "t": 125906.25,
      "d": 93.75,
      "v": 100
    },
    {
      "midi": 64,
      "hit": false,
      "t": 125906.25,
      "d": 93.75,
      "v": 100
    },
    {
      "midi": 62,
      "hit": false,
      "t": 126000,
      "d": 93.75,
      "v": 100
    },
    {
      "midi": 49,
      "hit": false,
      "t": 126000,
      "d": 93.75,
      "v": 100
    },
    {
      "midi": 45,
      "hit": false,
      "t": 126000,
      "d": 93.75,
      "v": 100
    },
    {
      "midi": 42,
      "hit": false,
      "t": 126000,
      "d": 140.625,
      "v": 100
    },
    {
      "midi": 36,
      "hit": false,
      "t": 126000,
      "d": 0.78125,
      "v": 100
    },
    {
      "midi": 86,
      "hit": false,
      "t": 126000,
      "d": 187.5,
      "v": 100
    },
    {
      "midi": 62,
      "hit": false,
      "t": 126000,
      "d": 93.75,
      "v": 100
    },
    {
      "midi": 49,
      "hit": false,
      "t": 126000,
      "d": 93.75,
      "v": 100
    },
    {
      "midi": 45,
      "hit": false,
      "t": 126000,
      "d": 93.75,
      "v": 100
    },
    {
      "midi": 62,
      "hit": false,
      "t": 126093.75,
      "d": 187.5,
      "v": 100
    },
    {
      "midi": 62,
      "hit": false,
      "t": 126093.75,
      "d": 187.5,
      "v": 100
    },
    {
      "midi": 42,
      "hit": false,
      "t": 126187.5,
      "d": 140.625,
      "v": 100
    },
    {
      "midi": 36,
      "hit": false,
      "t": 126187.5,
      "d": 0.78125,
      "v": 100
    },
    {
      "midi": 62,
      "hit": false,
      "t": 126281.25,
      "d": 93.75,
      "v": 100
    },
    {
      "midi": 62,
      "hit": false,
      "t": 126281.25,
      "d": 93.75,
      "v": 100
    },
    {
      "midi": 62,
      "hit": false,
      "t": 126375,
      "d": 93.75,
      "v": 100
    },
    {
      "midi": 40,
      "hit": false,
      "t": 126375,
      "d": 140.625,
      "v": 100
    },
    {
      "midi": 40,
      "hit": false,
      "t": 126375,
      "d": 0.78125,
      "v": 100
    },
    {
      "midi": 62,
      "hit": false,
      "t": 126375,
      "d": 93.75,
      "v": 100
    },
    {
      "midi": 62,
      "hit": false,
      "t": 126468.75,
      "d": 187.5,
      "v": 100
    },
    {
      "midi": 62,
      "hit": false,
      "t": 126468.75,
      "d": 187.5,
      "v": 100
    },
    {
      "midi": 49,
      "hit": false,
      "t": 126562.5,
      "d": 93.75,
      "v": 100
    },
    {
      "midi": 45,
      "hit": false,
      "t": 126562.5,
      "d": 93.75,
      "v": 100
    },
    {
      "midi": 42,
      "hit": false,
      "t": 126562.5,
      "d": 140.625,
      "v": 100
    },
    {
      "midi": 85,
      "hit": false,
      "t": 126562.5,
      "d": 187.5,
      "v": 100
    },
    {
      "midi": 49,
      "hit": false,
      "t": 126562.5,
      "d": 93.75,
      "v": 100
    },
    {
      "midi": 45,
      "hit": false,
      "t": 126562.5,
      "d": 93.75,
      "v": 100
    },
    {
      "midi": 62,
      "hit": false,
      "t": 126656.25,
      "d": 93.75,
      "v": 100
    },
    {
      "midi": 38,
      "hit": false,
      "t": 126656.25,
      "d": 0.78125,
      "v": 100
    },
    {
      "midi": 62,
      "hit": false,
      "t": 126656.25,
      "d": 93.75,
      "v": 100
    },
    {
      "midi": 61,
      "hit": false,
      "t": 126750,
      "d": 93.75,
      "v": 100
    },
    {
      "midi": 40,
      "hit": false,
      "t": 126750,
      "d": 140.625,
      "v": 100
    },
    {
      "midi": 36,
      "hit": false,
      "t": 126750,
      "d": 0.78125,
      "v": 100
    },
    {
      "midi": 61,
      "hit": false,
      "t": 126750,
      "d": 93.75,
      "v": 100
    },
    {
      "midi": 61,
      "hit": false,
      "t": 126843.75,
      "d": 187.5,
      "v": 100
    },
    {
      "midi": 38,
      "hit": false,
      "t": 126843.75,
      "d": 0.78125,
      "v": 100
    },
    {
      "midi": 61,
      "hit": false,
      "t": 126843.75,
      "d": 187.5,
      "v": 100
    },
    {
      "midi": 73,
      "hit": false,
      "t": 126937.5,
      "d": 187.5,
      "v": 100
    },
    {
      "midi": 49,
      "hit": false,
      "t": 126937.5,
      "d": 187.5,
      "v": 100
    },
    {
      "midi": 45,
      "hit": false,
      "t": 126937.5,
      "d": 187.5,
      "v": 100
    },
    {
      "midi": 42,
      "hit": false,
      "t": 126937.5,
      "d": 140.625,
      "v": 100
    },
    {
      "midi": 36,
      "hit": false,
      "t": 126937.5,
      "d": 0.78125,
      "v": 100
    },
    {
      "midi": 73,
      "hit": false,
      "t": 126937.5,
      "d": 187.5,
      "v": 100
    },
    {
      "midi": 49,
      "hit": false,
      "t": 126937.5,
      "d": 187.5,
      "v": 100
    },
    {
      "midi": 45,
      "hit": false,
      "t": 126937.5,
      "d": 187.5,
      "v": 100
    },
    {
      "midi": 61,
      "hit": false,
      "t": 127031.25,
      "d": 93.75,
      "v": 100
    },
    {
      "midi": 61,
      "hit": false,
      "t": 127031.25,
      "d": 93.75,
      "v": 100
    },
    {
      "midi": 74,
      "hit": false,
      "t": 127125,
      "d": 187.5,
      "v": 100
    },
    {
      "midi": 61,
      "hit": false,
      "t": 127125,
      "d": 93.75,
      "v": 100
    },
    {
      "midi": 40,
      "hit": false,
      "t": 127125,
      "d": 140.625,
      "v": 100
    },
    {
      "midi": 40,
      "hit": false,
      "t": 127125,
      "d": 0.78125,
      "v": 100
    },
    {
      "midi": 55,
      "hit": false,
      "t": 127125,
      "d": 0.78125,
      "v": 100
    },
    {
      "midi": 74,
      "hit": false,
      "t": 127125,
      "d": 187.5,
      "v": 100
    },
    {
      "midi": 61,
      "hit": false,
      "t": 127125,
      "d": 93.75,
      "v": 100
    },
    {
      "midi": 61,
      "hit": false,
      "t": 127218.75,
      "d": 187.5,
      "v": 100
    },
    {
      "midi": 61,
      "hit": false,
      "t": 127218.75,
      "d": 187.5,
      "v": 100
    },
    {
      "midi": 76,
      "hit": false,
      "t": 127312.5,
      "d": 187.5,
      "v": 100
    },
    {
      "midi": 42,
      "hit": false,
      "t": 127312.5,
      "d": 140.625,
      "v": 100
    },
    {
      "midi": 76,
      "hit": false,
      "t": 127312.5,
      "d": 187.5,
      "v": 100
    },
    {
      "midi": 61,
      "hit": false,
      "t": 127406.25,
      "d": 93.75,
      "v": 100
    },
    {
      "midi": 61,
      "hit": false,
      "t": 127406.25,
      "d": 93.75,
      "v": 100
    },
    {
      "midi": 81,
      "hit": false,
      "t": 127500,
      "d": 515.625,
      "v": 100
    },
    {
      "midi": 64,
      "hit": false,
      "t": 127500,
      "d": 93.75,
      "v": 100
    },
    {
      "midi": 52,
      "hit": false,
      "t": 127500,
      "d": 93.75,
      "v": 100
    },
    {
      "midi": 49,
      "hit": false,
      "t": 127500,
      "d": 93.75,
      "v": 100
    },
    {
      "midi": 43,
      "hit": false,
      "t": 127500,
      "d": 140.625,
      "v": 100
    },
    {
      "midi": 36,
      "hit": false,
      "t": 127500,
      "d": 0.78125,
      "v": 100
    },
    {
      "midi": 55,
      "hit": false,
      "t": 127500,
      "d": 0.78125,
      "v": 100
    },
    {
      "midi": 88,
      "hit": false,
      "t": 127500,
      "d": 187.5,
      "v": 100
    },
    {
      "midi": 81,
      "hit": false,
      "t": 127500,
      "d": 515.625,
      "v": 100
    },
    {
      "midi": 64,
      "hit": false,
      "t": 127500,
      "d": 93.75,
      "v": 100
    },
    {
      "midi": 52,
      "hit": false,
      "t": 127500,
      "d": 93.75,
      "v": 100
    },
    {
      "midi": 49,
      "hit": false,
      "t": 127500,
      "d": 93.75,
      "v": 100
    },
    {
      "midi": 64,
      "hit": false,
      "t": 127593.75,
      "d": 187.5,
      "v": 100
    },
    {
      "midi": 64,
      "hit": false,
      "t": 127593.75,
      "d": 187.5,
      "v": 100
    },
    {
      "midi": 43,
      "hit": false,
      "t": 127687.5,
      "d": 140.625,
      "v": 100
    },
    {
      "midi": 36,
      "hit": false,
      "t": 127687.5,
      "d": 0.78125,
      "v": 100
    },
    {
      "midi": 64,
      "hit": false,
      "t": 127781.25,
      "d": 93.75,
      "v": 100
    },
    {
      "midi": 64,
      "hit": false,
      "t": 127781.25,
      "d": 93.75,
      "v": 100
    },
    {
      "midi": 64,
      "hit": false,
      "t": 127875,
      "d": 93.75,
      "v": 100
    },
    {
      "midi": 45,
      "hit": false,
      "t": 127875,
      "d": 140.625,
      "v": 100
    },
    {
      "midi": 40,
      "hit": false,
      "t": 127875,
      "d": 0.78125,
      "v": 100
    },
    {
      "midi": 64,
      "hit": false,
      "t": 127875,
      "d": 93.75,
      "v": 100
    },
    {
      "midi": 64,
      "hit": false,
      "t": 127968.75,
      "d": 187.5,
      "v": 100
    },
    {
      "midi": 64,
      "hit": false,
      "t": 127968.75,
      "d": 187.5,
      "v": 100
    },
    {
      "midi": 81,
      "hit": false,
      "t": 128062.5,
      "d": 187.5,
      "v": 100
    },
    {
      "midi": 52,
      "hit": false,
      "t": 128062.5,
      "d": 93.75,
      "v": 100
    },
    {
      "midi": 49,
      "hit": false,
      "t": 128062.5,
      "d": 93.75,
      "v": 100
    },
    {
      "midi": 43,
      "hit": false,
      "t": 128062.5,
      "d": 140.625,
      "v": 100
    },
    {
      "midi": 81,
      "hit": false,
      "t": 128062.5,
      "d": 187.5,
      "v": 100
    },
    {
      "midi": 52,
      "hit": false,
      "t": 128062.5,
      "d": 93.75,
      "v": 100
    },
    {
      "midi": 49,
      "hit": false,
      "t": 128062.5,
      "d": 93.75,
      "v": 100
    },
    {
      "midi": 64,
      "hit": false,
      "t": 128156.25,
      "d": 93.75,
      "v": 100
    },
    {
      "midi": 38,
      "hit": false,
      "t": 128156.25,
      "d": 0.78125,
      "v": 100
    },
    {
      "midi": 64,
      "hit": false,
      "t": 128156.25,
      "d": 93.75,
      "v": 100
    },
    {
      "midi": 79,
      "hit": false,
      "t": 128250,
      "d": 187.5,
      "v": 100
    },
    {
      "midi": 64,
      "hit": false,
      "t": 128250,
      "d": 93.75,
      "v": 100
    },
    {
      "midi": 45,
      "hit": false,
      "t": 128250,
      "d": 140.625,
      "v": 100
    },
    {
      "midi": 36,
      "hit": false,
      "t": 128250,
      "d": 0.78125,
      "v": 100
    },
    {
      "midi": 79,
      "hit": false,
      "t": 128250,
      "d": 187.5,
      "v": 100
    },
    {
      "midi": 64,
      "hit": false,
      "t": 128250,
      "d": 93.75,
      "v": 100
    },
    {
      "midi": 64,
      "hit": false,
      "t": 128343.75,
      "d": 187.5,
      "v": 100
    },
    {
      "midi": 38,
      "hit": false,
      "t": 128343.75,
      "d": 0.78125,
      "v": 100
    },
    {
      "midi": 64,
      "hit": false,
      "t": 128343.75,
      "d": 187.5,
      "v": 100
    },
    {
      "midi": 78,
      "hit": false,
      "t": 128437.5,
      "d": 375,
      "v": 100
    },
    {
      "midi": 52,
      "hit": false,
      "t": 128437.5,
      "d": 187.5,
      "v": 100
    },
    {
      "midi": 49,
      "hit": false,
      "t": 128437.5,
      "d": 187.5,
      "v": 100
    },
    {
      "midi": 47,
      "hit": false,
      "t": 128437.5,
      "d": 140.625,
      "v": 100
    },
    {
      "midi": 36,
      "hit": false,
      "t": 128437.5,
      "d": 0.78125,
      "v": 100
    },
    {
      "midi": 78,
      "hit": false,
      "t": 128437.5,
      "d": 375,
      "v": 100
    },
    {
      "midi": 52,
      "hit": false,
      "t": 128437.5,
      "d": 187.5,
      "v": 100
    },
    {
      "midi": 49,
      "hit": false,
      "t": 128437.5,
      "d": 187.5,
      "v": 100
    },
    {
      "midi": 64,
      "hit": false,
      "t": 128531.25,
      "d": 93.75,
      "v": 100
    },
    {
      "midi": 64,
      "hit": false,
      "t": 128531.25,
      "d": 93.75,
      "v": 100
    },
    {
      "midi": 64,
      "hit": false,
      "t": 128625,
      "d": 93.75,
      "v": 100
    },
    {
      "midi": 45,
      "hit": false,
      "t": 128625,
      "d": 140.625,
      "v": 100
    },
    {
      "midi": 40,
      "hit": false,
      "t": 128625,
      "d": 0.78125,
      "v": 100
    },
    {
      "midi": 64,
      "hit": false,
      "t": 128625,
      "d": 93.75,
      "v": 100
    },
    {
      "midi": 64,
      "hit": false,
      "t": 128718.75,
      "d": 187.5,
      "v": 100
    },
    {
      "midi": 64,
      "hit": false,
      "t": 128718.75,
      "d": 187.5,
      "v": 100
    },
    {
      "midi": 74,
      "hit": false,
      "t": 128812.5,
      "d": 656.25,
      "v": 100
    },
    {
      "midi": 43,
      "hit": false,
      "t": 128812.5,
      "d": 140.625,
      "v": 100
    },
    {
      "midi": 74,
      "hit": false,
      "t": 128812.5,
      "d": 656.25,
      "v": 100
    },
    {
      "midi": 64,
      "hit": false,
      "t": 128906.25,
      "d": 93.75,
      "v": 100
    },
    {
      "midi": 64,
      "hit": false,
      "t": 128906.25,
      "d": 93.75,
      "v": 100
    },
    {
      "midi": 64,
      "hit": false,
      "t": 129000,
      "d": 93.75,
      "v": 100
    },
    {
      "midi": 52,
      "hit": false,
      "t": 129000,
      "d": 93.75,
      "v": 100
    },
    {
      "midi": 49,
      "hit": false,
      "t": 129000,
      "d": 93.75,
      "v": 100
    },
    {
      "midi": 43,
      "hit": false,
      "t": 129000,
      "d": 140.625,
      "v": 100
    },
    {
      "midi": 36,
      "hit": false,
      "t": 129000,
      "d": 0.78125,
      "v": 100
    },
    {
      "midi": 64,
      "hit": false,
      "t": 129000,
      "d": 93.75,
      "v": 100
    },
    {
      "midi": 52,
      "hit": false,
      "t": 129000,
      "d": 93.75,
      "v": 100
    },
    {
      "midi": 49,
      "hit": false,
      "t": 129000,
      "d": 93.75,
      "v": 100
    },
    {
      "midi": 64,
      "hit": false,
      "t": 129093.75,
      "d": 187.5,
      "v": 100
    },
    {
      "midi": 64,
      "hit": false,
      "t": 129093.75,
      "d": 187.5,
      "v": 100
    },
    {
      "midi": 43,
      "hit": false,
      "t": 129187.5,
      "d": 515.625,
      "v": 100
    },
    {
      "midi": 36,
      "hit": false,
      "t": 129187.5,
      "d": 0.78125,
      "v": 100
    },
    {
      "midi": 64,
      "hit": false,
      "t": 129281.25,
      "d": 93.75,
      "v": 100
    },
    {
      "midi": 64,
      "hit": false,
      "t": 129281.25,
      "d": 93.75,
      "v": 100
    },
    {
      "midi": 64,
      "hit": false,
      "t": 129375,
      "d": 93.75,
      "v": 100
    },
    {
      "midi": 40,
      "hit": false,
      "t": 129375,
      "d": 0.78125,
      "v": 100
    },
    {
      "midi": 64,
      "hit": false,
      "t": 129375,
      "d": 93.75,
      "v": 100
    },
    {
      "midi": 64,
      "hit": false,
      "t": 129468.75,
      "d": 187.5,
      "v": 100
    },
    {
      "midi": 64,
      "hit": false,
      "t": 129468.75,
      "d": 187.5,
      "v": 100
    },
    {
      "midi": 74,
      "hit": false,
      "t": 129562.5,
      "d": 140.625,
      "v": 100
    },
    {
      "midi": 74,
      "hit": false,
      "t": 129562.5,
      "d": 375,
      "v": 100
    },
    {
      "midi": 52,
      "hit": false,
      "t": 129562.5,
      "d": 93.75,
      "v": 100
    },
    {
      "midi": 49,
      "hit": false,
      "t": 129562.5,
      "d": 93.75,
      "v": 100
    },
    {
      "midi": 74,
      "hit": false,
      "t": 129562.5,
      "d": 140.625,
      "v": 100
    },
    {
      "midi": 74,
      "hit": false,
      "t": 129562.5,
      "d": 140.625,
      "v": 100
    },
    {
      "midi": 74,
      "hit": false,
      "t": 129562.5,
      "d": 375,
      "v": 100
    },
    {
      "midi": 52,
      "hit": false,
      "t": 129562.5,
      "d": 93.75,
      "v": 100
    },
    {
      "midi": 49,
      "hit": false,
      "t": 129562.5,
      "d": 93.75,
      "v": 100
    },
    {
      "midi": 64,
      "hit": false,
      "t": 129656.25,
      "d": 93.75,
      "v": 100
    },
    {
      "midi": 38,
      "hit": false,
      "t": 129656.25,
      "d": 0.78125,
      "v": 100
    },
    {
      "midi": 64,
      "hit": false,
      "t": 129656.25,
      "d": 93.75,
      "v": 100
    },
    {
      "midi": 74,
      "hit": false,
      "t": 129750,
      "d": 375,
      "v": 100
    },
    {
      "midi": 64,
      "hit": false,
      "t": 129750,
      "d": 93.75,
      "v": 100
    },
    {
      "midi": 43,
      "hit": false,
      "t": 129750,
      "d": 140.625,
      "v": 100
    },
    {
      "midi": 74,
      "hit": false,
      "t": 129750,
      "d": 375,
      "v": 100
    },
    {
      "midi": 36,
      "hit": false,
      "t": 129750,
      "d": 0.78125,
      "v": 100
    },
    {
      "midi": 88,
      "hit": false,
      "t": 129750,
      "d": 187.5,
      "v": 100
    },
    {
      "midi": 74,
      "hit": false,
      "t": 129750,
      "d": 375,
      "v": 100
    },
    {
      "midi": 64,
      "hit": false,
      "t": 129750,
      "d": 93.75,
      "v": 100
    },
    {
      "midi": 64,
      "hit": false,
      "t": 129843.75,
      "d": 187.5,
      "v": 100
    },
    {
      "midi": 38,
      "hit": false,
      "t": 129843.75,
      "d": 0.78125,
      "v": 100
    },
    {
      "midi": 64,
      "hit": false,
      "t": 129843.75,
      "d": 187.5,
      "v": 100
    },
    {
      "midi": 73,
      "hit": false,
      "t": 129937.5,
      "d": 2062.5,
      "v": 100
    },
    {
      "midi": 52,
      "hit": false,
      "t": 129937.5,
      "d": 187.5,
      "v": 100
    },
    {
      "midi": 49,
      "hit": false,
      "t": 129937.5,
      "d": 187.5,
      "v": 100
    },
    {
      "midi": 43,
      "hit": false,
      "t": 129937.5,
      "d": 515.625,
      "v": 100
    },
    {
      "midi": 36,
      "hit": false,
      "t": 129937.5,
      "d": 0.78125,
      "v": 100
    },
    {
      "midi": 86,
      "hit": false,
      "t": 129937.5,
      "d": 187.5,
      "v": 100
    },
    {
      "midi": 73,
      "hit": false,
      "t": 129937.5,
      "d": 2062.5,
      "v": 100
    },
    {
      "midi": 52,
      "hit": false,
      "t": 129937.5,
      "d": 187.5,
      "v": 100
    },
    {
      "midi": 49,
      "hit": false,
      "t": 129937.5,
      "d": 187.5,
      "v": 100
    },
    {
      "midi": 64,
      "hit": false,
      "t": 130031.25,
      "d": 93.75,
      "v": 100
    },
    {
      "midi": 64,
      "hit": false,
      "t": 130031.25,
      "d": 93.75,
      "v": 100
    },
    {
      "midi": 76,
      "hit": false,
      "t": 130125,
      "d": 187.5,
      "v": 100
    },
    {
      "midi": 64,
      "hit": false,
      "t": 130125,
      "d": 93.75,
      "v": 100
    },
    {
      "midi": 74,
      "hit": false,
      "t": 130125,
      "d": 187.5,
      "v": 100
    },
    {
      "midi": 40,
      "hit": false,
      "t": 130125,
      "d": 0.78125,
      "v": 100
    },
    {
      "midi": 55,
      "hit": false,
      "t": 130125,
      "d": 0.78125,
      "v": 100
    },
    {
      "midi": 85,
      "hit": false,
      "t": 130125,
      "d": 187.5,
      "v": 100
    },
    {
      "midi": 76,
      "hit": false,
      "t": 130125,
      "d": 187.5,
      "v": 100
    },
    {
      "midi": 64,
      "hit": false,
      "t": 130125,
      "d": 93.75,
      "v": 100
    },
    {
      "midi": 64,
      "hit": false,
      "t": 130218.75,
      "d": 187.5,
      "v": 100
    },
    {
      "midi": 64,
      "hit": false,
      "t": 130218.75,
      "d": 187.5,
      "v": 100
    },
    {
      "midi": 78,
      "hit": false,
      "t": 130312.5,
      "d": 140.625,
      "v": 100
    },
    {
      "midi": 74,
      "hit": false,
      "t": 130312.5,
      "d": 140.625,
      "v": 100
    },
    {
      "midi": 83,
      "hit": false,
      "t": 130312.5,
      "d": 187.5,
      "v": 100
    },
    {
      "midi": 78,
      "hit": false,
      "t": 130312.5,
      "d": 140.625,
      "v": 100
    },
    {
      "midi": 64,
      "hit": false,
      "t": 130406.25,
      "d": 93.75,
      "v": 100
    },
    {
      "midi": 64,
      "hit": false,
      "t": 130406.25,
      "d": 93.75,
      "v": 100
    },
    {
      "midi": 78,
      "hit": false,
      "t": 130500,
      "d": 890.625,
      "v": 100
    },
    {
      "midi": 64,
      "hit": false,
      "t": 130500,
      "d": 93.75,
      "v": 100
    },
    {
      "midi": 52,
      "hit": false,
      "t": 130500,
      "d": 93.75,
      "v": 100
    },
    {
      "midi": 49,
      "hit": false,
      "t": 130500,
      "d": 93.75,
      "v": 100
    },
    {
      "midi": 42,
      "hit": false,
      "t": 130500,
      "d": 1453.125,
      "v": 100
    },
    {
      "midi": 74,
      "hit": false,
      "t": 130500,
      "d": 890.625,
      "v": 100
    },
    {
      "midi": 36,
      "hit": false,
      "t": 130500,
      "d": 0.78125,
      "v": 100
    },
    {
      "midi": 55,
      "hit": false,
      "t": 130500,
      "d": 0.78125,
      "v": 100
    },
    {
      "midi": 81,
      "hit": false,
      "t": 130500,
      "d": 187.5,
      "v": 100
    },
    {
      "midi": 78,
      "hit": false,
      "t": 130500,
      "d": 890.625,
      "v": 100
    },
    {
      "midi": 64,
      "hit": false,
      "t": 130500,
      "d": 93.75,
      "v": 100
    },
    {
      "midi": 52,
      "hit": false,
      "t": 130500,
      "d": 93.75,
      "v": 100
    },
    {
      "midi": 49,
      "hit": false,
      "t": 130500,
      "d": 93.75,
      "v": 100
    },
    {
      "midi": 64,
      "hit": false,
      "t": 130593.75,
      "d": 187.5,
      "v": 100
    },
    {
      "midi": 64,
      "hit": false,
      "t": 130593.75,
      "d": 187.5,
      "v": 100
    },
    {
      "midi": 36,
      "hit": false,
      "t": 130687.5,
      "d": 0.78125,
      "v": 100
    },
    {
      "midi": 79,
      "hit": false,
      "t": 130687.5,
      "d": 187.5,
      "v": 100
    },
    {
      "midi": 64,
      "hit": false,
      "t": 130781.25,
      "d": 93.75,
      "v": 100
    },
    {
      "midi": 64,
      "hit": false,
      "t": 130781.25,
      "d": 93.75,
      "v": 100
    },
    {
      "midi": 64,
      "hit": false,
      "t": 130875,
      "d": 93.75,
      "v": 100
    },
    {
      "midi": 40,
      "hit": false,
      "t": 130875,
      "d": 0.78125,
      "v": 100
    },
    {
      "midi": 64,
      "hit": false,
      "t": 130875,
      "d": 93.75,
      "v": 100
    },
    {
      "midi": 64,
      "hit": false,
      "t": 130968.75,
      "d": 187.5,
      "v": 100
    },
    {
      "midi": 64,
      "hit": false,
      "t": 130968.75,
      "d": 187.5,
      "v": 100
    },
    {
      "midi": 52,
      "hit": false,
      "t": 131062.5,
      "d": 93.75,
      "v": 100
    },
    {
      "midi": 49,
      "hit": false,
      "t": 131062.5,
      "d": 93.75,
      "v": 100
    },
    {
      "midi": 52,
      "hit": false,
      "t": 131062.5,
      "d": 93.75,
      "v": 100
    },
    {
      "midi": 49,
      "hit": false,
      "t": 131062.5,
      "d": 93.75,
      "v": 100
    },
    {
      "midi": 64,
      "hit": false,
      "t": 131156.25,
      "d": 93.75,
      "v": 100
    },
    {
      "midi": 38,
      "hit": false,
      "t": 131156.25,
      "d": 0.78125,
      "v": 100
    },
    {
      "midi": 64,
      "hit": false,
      "t": 131156.25,
      "d": 93.75,
      "v": 100
    },
    {
      "midi": 64,
      "hit": false,
      "t": 131250,
      "d": 93.75,
      "v": 100
    },
    {
      "midi": 36,
      "hit": false,
      "t": 131250,
      "d": 0.78125,
      "v": 100
    },
    {
      "midi": 64,
      "hit": false,
      "t": 131250,
      "d": 93.75,
      "v": 100
    },
    {
      "midi": 64,
      "hit": false,
      "t": 131343.75,
      "d": 187.5,
      "v": 100
    },
    {
      "midi": 38,
      "hit": false,
      "t": 131343.75,
      "d": 0.78125,
      "v": 100
    },
    {
      "midi": 64,
      "hit": false,
      "t": 131343.75,
      "d": 187.5,
      "v": 100
    },
    {
      "midi": 78,
      "hit": false,
      "t": 131437.5,
      "d": 140.625,
      "v": 100
    },
    {
      "midi": 49,
      "hit": false,
      "t": 131437.5,
      "d": 93.75,
      "v": 100
    },
    {
      "midi": 52,
      "hit": false,
      "t": 131437.5,
      "d": 93.75,
      "v": 100
    },
    {
      "midi": 36,
      "hit": false,
      "t": 131437.5,
      "d": 0.78125,
      "v": 100
    },
    {
      "midi": 78,
      "hit": false,
      "t": 131437.5,
      "d": 140.625,
      "v": 100
    },
    {
      "midi": 49,
      "hit": false,
      "t": 131437.5,
      "d": 93.75,
      "v": 100
    },
    {
      "midi": 52,
      "hit": false,
      "t": 131437.5,
      "d": 93.75,
      "v": 100
    },
    {
      "midi": 64,
      "hit": false,
      "t": 131531.25,
      "d": 93.75,
      "v": 100
    },
    {
      "midi": 64,
      "hit": false,
      "t": 131531.25,
      "d": 93.75,
      "v": 100
    },
    {
      "midi": 78,
      "hit": false,
      "t": 131625,
      "d": 140.625,
      "v": 100
    },
    {
      "midi": 64,
      "hit": false,
      "t": 131625,
      "d": 93.75,
      "v": 100
    },
    {
      "midi": 52,
      "hit": false,
      "t": 131625,
      "d": 93.75,
      "v": 100
    },
    {
      "midi": 49,
      "hit": false,
      "t": 131625,
      "d": 93.75,
      "v": 100
    },
    {
      "midi": 40,
      "hit": false,
      "t": 131625,
      "d": 0.78125,
      "v": 100
    },
    {
      "midi": 78,
      "hit": false,
      "t": 131625,
      "d": 140.625,
      "v": 100
    },
    {
      "midi": 64,
      "hit": false,
      "t": 131625,
      "d": 93.75,
      "v": 100
    },
    {
      "midi": 52,
      "hit": false,
      "t": 131625,
      "d": 93.75,
      "v": 100
    },
    {
      "midi": 49,
      "hit": false,
      "t": 131625,
      "d": 93.75,
      "v": 100
    },
    {
      "midi": 64,
      "hit": false,
      "t": 131718.75,
      "d": 187.5,
      "v": 100
    },
    {
      "midi": 64,
      "hit": false,
      "t": 131718.75,
      "d": 187.5,
      "v": 100
    },
    {
      "midi": 78,
      "hit": false,
      "t": 131812.5,
      "d": 187.5,
      "v": 100
    },
    {
      "midi": 78,
      "hit": false,
      "t": 131812.5,
      "d": 187.5,
      "v": 100
    },
    {
      "midi": 64,
      "hit": false,
      "t": 131906.25,
      "d": 93.75,
      "v": 100
    },
    {
      "midi": 64,
      "hit": false,
      "t": 131906.25,
      "d": 93.75,
      "v": 100
    },
    {
      "midi": 79,
      "hit": false,
      "t": 132000,
      "d": 375,
      "v": 100
    },
    {
      "midi": 62,
      "hit": false,
      "t": 132000,
      "d": 93.75,
      "v": 100
    },
    {
      "midi": 49,
      "hit": false,
      "t": 132000,
      "d": 93.75,
      "v": 100
    },
    {
      "midi": 45,
      "hit": false,
      "t": 132000,
      "d": 93.75,
      "v": 100
    },
    {
      "midi": 50,
      "hit": false,
      "t": 132000,
      "d": 1453.125,
      "v": 100
    },
    {
      "midi": 79,
      "hit": false,
      "t": 132000,
      "d": 750,
      "v": 100
    },
    {
      "midi": 36,
      "hit": false,
      "t": 132000,
      "d": 0.78125,
      "v": 100
    },
    {
      "midi": 88,
      "hit": false,
      "t": 132000,
      "d": 187.5,
      "v": 100
    },
    {
      "midi": 79,
      "hit": false,
      "t": 132000,
      "d": 375,
      "v": 100
    },
    {
      "midi": 62,
      "hit": false,
      "t": 132000,
      "d": 93.75,
      "v": 100
    },
    {
      "midi": 49,
      "hit": false,
      "t": 132000,
      "d": 93.75,
      "v": 100
    },
    {
      "midi": 45,
      "hit": false,
      "t": 132000,
      "d": 93.75,
      "v": 100
    },
    {
      "midi": 62,
      "hit": false,
      "t": 132093.75,
      "d": 187.5,
      "v": 100
    },
    {
      "midi": 62,
      "hit": false,
      "t": 132093.75,
      "d": 187.5,
      "v": 100
    },
    {
      "midi": 36,
      "hit": false,
      "t": 132187.5,
      "d": 0.78125,
      "v": 100
    },
    {
      "midi": 62,
      "hit": false,
      "t": 132281.25,
      "d": 93.75,
      "v": 100
    },
    {
      "midi": 62,
      "hit": false,
      "t": 132281.25,
      "d": 93.75,
      "v": 100
    },
    {
      "midi": 81,
      "hit": false,
      "t": 132375,
      "d": 187.5,
      "v": 100
    },
    {
      "midi": 61,
      "hit": false,
      "t": 132375,
      "d": 93.75,
      "v": 100
    },
    {
      "midi": 38,
      "hit": false,
      "t": 132375,
      "d": 0.78125,
      "v": 100
    },
    {
      "midi": 81,
      "hit": false,
      "t": 132375,
      "d": 187.5,
      "v": 100
    },
    {
      "midi": 61,
      "hit": false,
      "t": 132375,
      "d": 93.75,
      "v": 100
    },
    {
      "midi": 61,
      "hit": false,
      "t": 132468.75,
      "d": 187.5,
      "v": 100
    },
    {
      "midi": 61,
      "hit": false,
      "t": 132468.75,
      "d": 187.5,
      "v": 100
    },
    {
      "midi": 79,
      "hit": false,
      "t": 132562.5,
      "d": 375,
      "v": 100
    },
    {
      "midi": 49,
      "hit": false,
      "t": 132562.5,
      "d": 93.75,
      "v": 100
    },
    {
      "midi": 45,
      "hit": false,
      "t": 132562.5,
      "d": 93.75,
      "v": 100
    },
    {
      "midi": 90,
      "hit": false,
      "t": 132562.5,
      "d": 187.5,
      "v": 100
    },
    {
      "midi": 79,
      "hit": false,
      "t": 132562.5,
      "d": 375,
      "v": 100
    },
    {
      "midi": 49,
      "hit": false,
      "t": 132562.5,
      "d": 93.75,
      "v": 100
    },
    {
      "midi": 45,
      "hit": false,
      "t": 132562.5,
      "d": 93.75,
      "v": 100
    },
    {
      "midi": 61,
      "hit": false,
      "t": 132656.25,
      "d": 93.75,
      "v": 100
    },
    {
      "midi": 61,
      "hit": false,
      "t": 132656.25,
      "d": 93.75,
      "v": 100
    },
    {
      "midi": 78,
      "hit": false,
      "t": 132750,
      "d": 750,
      "v": 100
    },
    {
      "midi": 61,
      "hit": false,
      "t": 132750,
      "d": 93.75,
      "v": 100
    },
    {
      "midi": 78,
      "hit": false,
      "t": 132750,
      "d": 750,
      "v": 100
    },
    {
      "midi": 36,
      "hit": false,
      "t": 132750,
      "d": 0.78125,
      "v": 100
    },
    {
      "midi": 40,
      "hit": false,
      "t": 132750,
      "d": 0.78125,
      "v": 100
    },
    {
      "midi": 78,
      "hit": false,
      "t": 132750,
      "d": 750,
      "v": 100
    },
    {
      "midi": 61,
      "hit": false,
      "t": 132750,
      "d": 93.75,
      "v": 100
    },
    {
      "midi": 61,
      "hit": false,
      "t": 132843.75,
      "d": 187.5,
      "v": 100
    },
    {
      "midi": 61,
      "hit": false,
      "t": 132843.75,
      "d": 187.5,
      "v": 100
    },
    {
      "midi": 78,
      "hit": false,
      "t": 132937.5,
      "d": 187.5,
      "v": 100
    },
    {
      "midi": 49,
      "hit": false,
      "t": 132937.5,
      "d": 187.5,
      "v": 100
    },
    {
      "midi": 45,
      "hit": false,
      "t": 132937.5,
      "d": 187.5,
      "v": 100
    },
    {
      "midi": 38,
      "hit": false,
      "t": 132937.5,
      "d": 0.78125,
      "v": 100
    },
    {
      "midi": 78,
      "hit": false,
      "t": 132937.5,
      "d": 187.5,
      "v": 100
    },
    {
      "midi": 49,
      "hit": false,
      "t": 132937.5,
      "d": 187.5,
      "v": 100
    },
    {
      "midi": 45,
      "hit": false,
      "t": 132937.5,
      "d": 187.5,
      "v": 100
    },
    {
      "midi": 61,
      "hit": false,
      "t": 133031.25,
      "d": 93.75,
      "v": 100
    },
    {
      "midi": 61,
      "hit": false,
      "t": 133031.25,
      "d": 93.75,
      "v": 100
    },
    {
      "midi": 76,
      "hit": false,
      "t": 133125,
      "d": 187.5,
      "v": 100
    },
    {
      "midi": 61,
      "hit": false,
      "t": 133125,
      "d": 93.75,
      "v": 100
    },
    {
      "midi": 36,
      "hit": false,
      "t": 133125,
      "d": 0.78125,
      "v": 100
    },
    {
      "midi": 40,
      "hit": false,
      "t": 133125,
      "d": 0.78125,
      "v": 100
    },
    {
      "midi": 76,
      "hit": false,
      "t": 133125,
      "d": 187.5,
      "v": 100
    },
    {
      "midi": 61,
      "hit": false,
      "t": 133125,
      "d": 93.75,
      "v": 100
    },
    {
      "midi": 61,
      "hit": false,
      "t": 133218.75,
      "d": 187.5,
      "v": 100
    },
    {
      "midi": 38,
      "hit": false,
      "t": 133218.75,
      "d": 0.78125,
      "v": 100
    },
    {
      "midi": 61,
      "hit": false,
      "t": 133218.75,
      "d": 187.5,
      "v": 100
    },
    {
      "midi": 74,
      "hit": false,
      "t": 133312.5,
      "d": 187.5,
      "v": 100
    },
    {
      "midi": 40,
      "hit": false,
      "t": 133312.5,
      "d": 0.78125,
      "v": 100
    },
    {
      "midi": 74,
      "hit": false,
      "t": 133312.5,
      "d": 187.5,
      "v": 100
    },
    {
      "midi": 61,
      "hit": false,
      "t": 133406.25,
      "d": 93.75,
      "v": 100
    },
    {
      "midi": 38,
      "hit": false,
      "t": 133406.25,
      "d": 0.78125,
      "v": 100
    },
    {
      "midi": 61,
      "hit": false,
      "t": 133406.25,
      "d": 93.75,
      "v": 100
    },
    {
      "midi": 38,
      "hit": false,
      "t": 133453.125,
      "d": 0.78125,
      "v": 100
    },
    {
      "midi": 76,
      "hit": false,
      "t": 133500,
      "d": 1312.5,
      "v": 100
    },
    {
      "midi": 76,
      "hit": false,
      "t": 133500,
      "d": 3000,
      "v": 100
    },
    {
      "midi": 49,
      "hit": false,
      "t": 133500,
      "d": 187.5,
      "v": 100
    },
    {
      "midi": 45,
      "hit": false,
      "t": 133500,
      "d": 187.5,
      "v": 100
    },
    {
      "midi": 49,
      "hit": false,
      "t": 133500,
      "d": 1453.125,
      "v": 100
    },
    {
      "midi": 76,
      "hit": false,
      "t": 133500,
      "d": 3000,
      "v": 100
    },
    {
      "midi": 76,
      "hit": false,
      "t": 133500,
      "d": 187.5,
      "v": 100
    },
    {
      "midi": 36,
      "hit": false,
      "t": 133500,
      "d": 0.78125,
      "v": 100
    },
    {
      "midi": 40,
      "hit": false,
      "t": 133500,
      "d": 0.78125,
      "v": 100
    },
    {
      "midi": 38,
      "hit": false,
      "t": 133500,
      "d": 0.78125,
      "v": 100
    },
    {
      "midi": 55,
      "hit": false,
      "t": 133500,
      "d": 0.78125,
      "v": 100
    },
    {
      "midi": 88,
      "hit": false,
      "t": 133500,
      "d": 187.5,
      "v": 100
    },
    {
      "midi": 76,
      "hit": false,
      "t": 133500,
      "d": 1312.5,
      "v": 100
    },
    {
      "midi": 76,
      "hit": false,
      "t": 133500,
      "d": 3000,
      "v": 100
    },
    {
      "midi": 49,
      "hit": false,
      "t": 133500,
      "d": 187.5,
      "v": 100
    },
    {
      "midi": 45,
      "hit": false,
      "t": 133500,
      "d": 187.5,
      "v": 100
    },
    {
      "midi": 74,
      "hit": false,
      "t": 133687.5,
      "d": 187.5,
      "v": 100
    },
    {
      "midi": 36,
      "hit": false,
      "t": 133687.5,
      "d": 0.78125,
      "v": 100
    },
    {
      "midi": 86,
      "hit": false,
      "t": 133687.5,
      "d": 187.5,
      "v": 100
    },
    {
      "midi": 73,
      "hit": false,
      "t": 133875,
      "d": 187.5,
      "v": 100
    },
    {
      "midi": 36,
      "hit": false,
      "t": 133875,
      "d": 0.78125,
      "v": 100
    },
    {
      "midi": 85,
      "hit": false,
      "t": 133875,
      "d": 187.5,
      "v": 100
    },
    {
      "midi": 49,
      "hit": false,
      "t": 134062.5,
      "d": 187.5,
      "v": 100
    },
    {
      "midi": 45,
      "hit": false,
      "t": 134062.5,
      "d": 187.5,
      "v": 100
    },
    {
      "midi": 76,
      "hit": false,
      "t": 134062.5,
      "d": 187.5,
      "v": 100
    },
    {
      "midi": 36,
      "hit": false,
      "t": 134062.5,
      "d": 0.78125,
      "v": 100
    },
    {
      "midi": 40,
      "hit": false,
      "t": 134062.5,
      "d": 0.78125,
      "v": 100
    },
    {
      "midi": 38,
      "hit": false,
      "t": 134062.5,
      "d": 0.78125,
      "v": 100
    },
    {
      "midi": 55,
      "hit": false,
      "t": 134062.5,
      "d": 0.78125,
      "v": 100
    },
    {
      "midi": 88,
      "hit": false,
      "t": 134062.5,
      "d": 187.5,
      "v": 100
    },
    {
      "midi": 49,
      "hit": false,
      "t": 134062.5,
      "d": 187.5,
      "v": 100
    },
    {
      "midi": 45,
      "hit": false,
      "t": 134062.5,
      "d": 187.5,
      "v": 100
    },
    {
      "midi": 74,
      "hit": false,
      "t": 134250,
      "d": 187.5,
      "v": 100
    },
    {
      "midi": 36,
      "hit": false,
      "t": 134250,
      "d": 0.78125,
      "v": 100
    },
    {
      "midi": 86,
      "hit": false,
      "t": 134250,
      "d": 187.5,
      "v": 100
    },
    {
      "midi": 73,
      "hit": false,
      "t": 134437.5,
      "d": 187.5,
      "v": 100
    },
    {
      "midi": 36,
      "hit": false,
      "t": 134437.5,
      "d": 0.78125,
      "v": 100
    },
    {
      "midi": 85,
      "hit": false,
      "t": 134437.5,
      "d": 187.5,
      "v": 100
    },
    {
      "midi": 49,
      "hit": false,
      "t": 134625,
      "d": 1687.5,
      "v": 100
    },
    {
      "midi": 45,
      "hit": false,
      "t": 134625,
      "d": 1687.5,
      "v": 100
    },
    {
      "midi": 76,
      "hit": false,
      "t": 134625,
      "d": 187.5,
      "v": 100
    },
    {
      "midi": 36,
      "hit": false,
      "t": 134625,
      "d": 0.78125,
      "v": 100
    },
    {
      "midi": 40,
      "hit": false,
      "t": 134625,
      "d": 0.78125,
      "v": 100
    },
    {
      "midi": 38,
      "hit": false,
      "t": 134625,
      "d": 0.78125,
      "v": 100
    },
    {
      "midi": 55,
      "hit": false,
      "t": 134625,
      "d": 0.78125,
      "v": 100
    },
    {
      "midi": 88,
      "hit": false,
      "t": 134625,
      "d": 187.5,
      "v": 100
    },
    {
      "midi": 49,
      "hit": false,
      "t": 134625,
      "d": 1687.5,
      "v": 100
    },
    {
      "midi": 45,
      "hit": false,
      "t": 134625,
      "d": 1687.5,
      "v": 100
    },
    {
      "midi": 74,
      "hit": false,
      "t": 134812.5,
      "d": 187.5,
      "v": 100
    },
    {
      "midi": 36,
      "hit": false,
      "t": 134812.5,
      "d": 0.78125,
      "v": 100
    },
    {
      "midi": 86,
      "hit": false,
      "t": 134812.5,
      "d": 187.5,
      "v": 100
    },
    {
      "midi": 49,
      "hit": false,
      "t": 135000,
      "d": 1500,
      "v": 100
    },
    {
      "midi": 73,
      "hit": false,
      "t": 135000,
      "d": 187.5,
      "v": 100
    },
    {
      "midi": 36,
      "hit": false,
      "t": 135000,
      "d": 0.78125,
      "v": 100
    },
    {
      "midi": 40,
      "hit": false,
      "t": 135000,
      "d": 0.78125,
      "v": 100
    },
    {
      "midi": 38,
      "hit": false,
      "t": 135000,
      "d": 0.78125,
      "v": 100
    },
    {
      "midi": 49,
      "hit": false,
      "t": 135000,
      "d": 0.78125,
      "v": 100
    },
    {
      "midi": 85,
      "hit": false,
      "t": 135000,
      "d": 187.5,
      "v": 100
    },
    {
      "midi": 79,
      "hit": false,
      "t": 135375,
      "d": 375,
      "v": 100
    },
    {
      "midi": 79,
      "hit": false,
      "t": 135375,
      "d": 375,
      "v": 100
    },
    {
      "midi": 78,
      "hit": false,
      "t": 135750,
      "d": 375,
      "v": 100
    },
    {
      "midi": 78,
      "hit": false,
      "t": 135750,
      "d": 375,
      "v": 100
    },
    {
      "midi": 76,
      "hit": false,
      "t": 136125,
      "d": 187.5,
      "v": 100
    },
    {
      "midi": 40,
      "hit": false,
      "t": 136125,
      "d": 0.78125,
      "v": 100
    },
    {
      "midi": 38,
      "hit": false,
      "t": 136125,
      "d": 0.78125,
      "v": 100
    },
    {
      "midi": 76,
      "hit": false,
      "t": 136125,
      "d": 187.5,
      "v": 100
    },
    {
      "midi": 40,
      "hit": false,
      "t": 136171.875,
      "d": 0.78125,
      "v": 100
    },
    {
      "midi": 38,
      "hit": false,
      "t": 136171.875,
      "d": 0.78125,
      "v": 100
    },
    {
      "midi": 74,
      "hit": false,
      "t": 136312.5,
      "d": 750,
      "v": 100
    },
    {
      "midi": 74,
      "hit": false,
      "t": 136312.5,
      "d": 750,
      "v": 100
    },
    {
      "midi": 45,
      "hit": false,
      "t": 136500,
      "d": 46.875,
      "v": 100
    },
    {
      "midi": 59,
      "hit": false,
      "t": 136500,
      "d": 46.875,
      "v": 100
    },
    {
      "midi": 62,
      "hit": false,
      "t": 136500,
      "d": 187.5,
      "v": 100
    },
    {
      "midi": 40,
      "hit": false,
      "t": 136500,
      "d": 140.625,
      "v": 100
    },
    {
      "midi": 36,
      "hit": false,
      "t": 136500,
      "d": 0.78125,
      "v": 100
    },
    {
      "midi": 57,
      "hit": false,
      "t": 136500,
      "d": 0.78125,
      "v": 100
    },
    {
      "midi": 45,
      "hit": false,
      "t": 136500,
      "d": 46.875,
      "v": 100
    },
    {
      "midi": 59,
      "hit": false,
      "t": 136500,
      "d": 46.875,
      "v": 100
    },
    {
      "midi": 62,
      "hit": false,
      "t": 136500,
      "d": 187.5,
      "v": 100
    },
    {
      "midi": 49,
      "hit": false,
      "t": 136546.875,
      "d": 140.625,
      "v": 100
    },
    {
      "midi": 61,
      "hit": false,
      "t": 136546.875,
      "d": 46.875,
      "v": 100
    },
    {
      "midi": 49,
      "hit": false,
      "t": 136546.875,
      "d": 140.625,
      "v": 100
    },
    {
      "midi": 61,
      "hit": false,
      "t": 136546.875,
      "d": 46.875,
      "v": 100
    },
    {
      "midi": 52,
      "hit": false,
      "t": 136593.75,
      "d": 93.75,
      "v": 100
    },
    {
      "midi": 52,
      "hit": false,
      "t": 136593.75,
      "d": 93.75,
      "v": 100
    },
    {
      "midi": 63,
      "hit": false,
      "t": 136687.5,
      "d": 187.5,
      "v": 100
    },
    {
      "midi": 40,
      "hit": false,
      "t": 136687.5,
      "d": 515.625,
      "v": 100
    },
    {
      "midi": 36,
      "hit": false,
      "t": 136687.5,
      "d": 0.78125,
      "v": 100
    },
    {
      "midi": 63,
      "hit": false,
      "t": 136687.5,
      "d": 187.5,
      "v": 100
    },
    {
      "midi": 64,
      "hit": false,
      "t": 136875,
      "d": 187.5,
      "v": 100
    },
    {
      "midi": 40,
      "hit": false,
      "t": 136875,
      "d": 0.78125,
      "v": 100
    },
    {
      "midi": 64,
      "hit": false,
      "t": 136875,
      "d": 187.5,
      "v": 100
    },
    {
      "midi": 49,
      "hit": false,
      "t": 137062.5,
      "d": 93.75,
      "v": 100
    },
    {
      "midi": 52,
      "hit": false,
      "t": 137062.5,
      "d": 93.75,
      "v": 100
    },
    {
      "midi": 66,
      "hit": false,
      "t": 137062.5,
      "d": 375,
      "v": 100
    },
    {
      "midi": 49,
      "hit": false,
      "t": 137062.5,
      "d": 93.75,
      "v": 100
    },
    {
      "midi": 52,
      "hit": false,
      "t": 137062.5,
      "d": 93.75,
      "v": 100
    },
    {
      "midi": 66,
      "hit": false,
      "t": 137062.5,
      "d": 375,
      "v": 100
    },
    {
      "midi": 38,
      "hit": false,
      "t": 137156.25,
      "d": 0.78125,
      "v": 100
    },
    {
      "midi": 40,
      "hit": false,
      "t": 137250,
      "d": 140.625,
      "v": 100
    },
    {
      "midi": 36,
      "hit": false,
      "t": 137250,
      "d": 0.78125,
      "v": 100
    },
    {
      "midi": 38,
      "hit": false,
      "t": 137343.75,
      "d": 0.78125,
      "v": 100
    },
    {
      "midi": 52,
      "hit": false,
      "t": 137437.5,
      "d": 93.75,
      "v": 100
    },
    {
      "midi": 49,
      "hit": false,
      "t": 137437.5,
      "d": 93.75,
      "v": 100
    },
    {
      "midi": 64,
      "hit": false,
      "t": 137437.5,
      "d": 187.5,
      "v": 100
    },
    {
      "midi": 40,
      "hit": false,
      "t": 137437.5,
      "d": 515.625,
      "v": 100
    },
    {
      "midi": 36,
      "hit": false,
      "t": 137437.5,
      "d": 0.78125,
      "v": 100
    },
    {
      "midi": 52,
      "hit": false,
      "t": 137437.5,
      "d": 93.75,
      "v": 100
    },
    {
      "midi": 49,
      "hit": false,
      "t": 137437.5,
      "d": 93.75,
      "v": 100
    },
    {
      "midi": 64,
      "hit": false,
      "t": 137437.5,
      "d": 187.5,
      "v": 100
    },
    {
      "midi": 52,
      "hit": false,
      "t": 137625,
      "d": 93.75,
      "v": 100
    },
    {
      "midi": 49,
      "hit": false,
      "t": 137625,
      "d": 93.75,
      "v": 100
    },
    {
      "midi": 66,
      "hit": false,
      "t": 137625,
      "d": 187.5,
      "v": 100
    },
    {
      "midi": 40,
      "hit": false,
      "t": 137625,
      "d": 0.78125,
      "v": 100
    },
    {
      "midi": 52,
      "hit": false,
      "t": 137625,
      "d": 93.75,
      "v": 100
    },
    {
      "midi": 49,
      "hit": false,
      "t": 137625,
      "d": 93.75,
      "v": 100
    },
    {
      "midi": 66,
      "hit": false,
      "t": 137625,
      "d": 187.5,
      "v": 100
    },
    {
      "midi": 67,
      "hit": false,
      "t": 137812.5,
      "d": 656.25,
      "v": 100
    },
    {
      "midi": 67,
      "hit": false,
      "t": 137812.5,
      "d": 656.25,
      "v": 100
    },
    {
      "midi": 45,
      "hit": false,
      "t": 138000,
      "d": 46.875,
      "v": 100
    },
    {
      "midi": 42,
      "hit": false,
      "t": 138000,
      "d": 140.625,
      "v": 100
    },
    {
      "midi": 36,
      "hit": false,
      "t": 138000,
      "d": 0.78125,
      "v": 100
    },
    {
      "midi": 45,
      "hit": false,
      "t": 138000,
      "d": 46.875,
      "v": 100
    },
    {
      "midi": 49,
      "hit": false,
      "t": 138046.875,
      "d": 140.625,
      "v": 100
    },
    {
      "midi": 49,
      "hit": false,
      "t": 138046.875,
      "d": 140.625,
      "v": 100
    },
    {
      "midi": 52,
      "hit": false,
      "t": 138093.75,
      "d": 93.75,
      "v": 100
    },
    {
      "midi": 52,
      "hit": false,
      "t": 138093.75,
      "d": 93.75,
      "v": 100
    },
    {
      "midi": 42,
      "hit": false,
      "t": 138187.5,
      "d": 515.625,
      "v": 100
    },
    {
      "midi": 36,
      "hit": false,
      "t": 138187.5,
      "d": 0.78125,
      "v": 100
    },
    {
      "midi": 40,
      "hit": false,
      "t": 138375,
      "d": 0.78125,
      "v": 100
    },
    {
      "midi": 68,
      "hit": false,
      "t": 138515.625,
      "d": 46.875,
      "v": 100
    },
    {
      "midi": 68,
      "hit": false,
      "t": 138515.625,
      "d": 46.875,
      "v": 100
    },
    {
      "midi": 49,
      "hit": false,
      "t": 138562.5,
      "d": 93.75,
      "v": 100
    },
    {
      "midi": 52,
      "hit": false,
      "t": 138562.5,
      "d": 93.75,
      "v": 100
    },
    {
      "midi": 69,
      "hit": false,
      "t": 138562.5,
      "d": 46.875,
      "v": 100
    },
    {
      "midi": 49,
      "hit": false,
      "t": 138562.5,
      "d": 93.75,
      "v": 100
    },
    {
      "midi": 52,
      "hit": false,
      "t": 138562.5,
      "d": 93.75,
      "v": 100
    },
    {
      "midi": 69,
      "hit": false,
      "t": 138562.5,
      "d": 46.875,
      "v": 100
    },
    {
      "midi": 70,
      "hit": false,
      "t": 138609.375,
      "d": 46.875,
      "v": 100
    },
    {
      "midi": 70,
      "hit": false,
      "t": 138609.375,
      "d": 46.875,
      "v": 100
    },
    {
      "midi": 73,
      "hit": false,
      "t": 138625,
      "d": 500,
      "v": 100
    },
    {
      "midi": 73,
      "hit": false,
      "t": 138625,
      "d": 500,
      "v": 100
    },
    {
      "midi": 71,
      "hit": false,
      "t": 138656.25,
      "d": 23.4375,
      "v": 100
    },
    {
      "midi": 38,
      "hit": false,
      "t": 138656.25,
      "d": 0.78125,
      "v": 100
    },
    {
      "midi": 71,
      "hit": false,
      "t": 138656.25,
      "d": 23.4375,
      "v": 100
    },
    {
      "midi": 72,
      "hit": false,
      "t": 138679.6875,
      "d": 23.4375,
      "v": 100
    },
    {
      "midi": 72,
      "hit": false,
      "t": 138679.6875,
      "d": 23.4375,
      "v": 100
    },
    {
      "midi": 42,
      "hit": false,
      "t": 138750,
      "d": 140.625,
      "v": 100
    },
    {
      "midi": 36,
      "hit": false,
      "t": 138750,
      "d": 0.78125,
      "v": 100
    },
    {
      "midi": 38,
      "hit": false,
      "t": 138843.75,
      "d": 0.78125,
      "v": 100
    },
    {
      "midi": 52,
      "hit": false,
      "t": 138937.5,
      "d": 93.75,
      "v": 100
    },
    {
      "midi": 49,
      "hit": false,
      "t": 138937.5,
      "d": 93.75,
      "v": 100
    },
    {
      "midi": 42,
      "hit": false,
      "t": 138937.5,
      "d": 515.625,
      "v": 100
    },
    {
      "midi": 36,
      "hit": false,
      "t": 138937.5,
      "d": 0.78125,
      "v": 100
    },
    {
      "midi": 52,
      "hit": false,
      "t": 138937.5,
      "d": 93.75,
      "v": 100
    },
    {
      "midi": 49,
      "hit": false,
      "t": 138937.5,
      "d": 93.75,
      "v": 100
    },
    {
      "midi": 52,
      "hit": false,
      "t": 139125,
      "d": 93.75,
      "v": 100
    },
    {
      "midi": 49,
      "hit": false,
      "t": 139125,
      "d": 93.75,
      "v": 100
    },
    {
      "midi": 71,
      "hit": false,
      "t": 139125,
      "d": 187.5,
      "v": 100
    },
    {
      "midi": 40,
      "hit": false,
      "t": 139125,
      "d": 0.78125,
      "v": 100
    },
    {
      "midi": 52,
      "hit": false,
      "t": 139125,
      "d": 93.75,
      "v": 100
    },
    {
      "midi": 49,
      "hit": false,
      "t": 139125,
      "d": 93.75,
      "v": 100
    },
    {
      "midi": 71,
      "hit": false,
      "t": 139125,
      "d": 187.5,
      "v": 100
    },
    {
      "midi": 69,
      "hit": false,
      "t": 139312.5,
      "d": 187.5,
      "v": 100
    },
    {
      "midi": 69,
      "hit": false,
      "t": 139312.5,
      "d": 187.5,
      "v": 100
    },
    {
      "midi": 45,
      "hit": false,
      "t": 139500,
      "d": 46.875,
      "v": 100
    },
    {
      "midi": 66,
      "hit": false,
      "t": 139500,
      "d": 46.875,
      "v": 100
    },
    {
      "midi": 67,
      "hit": false,
      "t": 139500,
      "d": 375,
      "v": 100
    },
    {
      "midi": 38,
      "hit": false,
      "t": 139500,
      "d": 140.625,
      "v": 100
    },
    {
      "midi": 36,
      "hit": false,
      "t": 139500,
      "d": 0.78125,
      "v": 100
    },
    {
      "midi": 57,
      "hit": false,
      "t": 139500,
      "d": 0.78125,
      "v": 100
    },
    {
      "midi": 45,
      "hit": false,
      "t": 139500,
      "d": 46.875,
      "v": 100
    },
    {
      "midi": 66,
      "hit": false,
      "t": 139500,
      "d": 46.875,
      "v": 100
    },
    {
      "midi": 67,
      "hit": false,
      "t": 139500,
      "d": 375,
      "v": 100
    },
    {
      "midi": 49,
      "hit": false,
      "t": 139546.875,
      "d": 140.625,
      "v": 100
    },
    {
      "midi": 65,
      "hit": false,
      "t": 139546.875,
      "d": 46.875,
      "v": 100
    },
    {
      "midi": 49,
      "hit": false,
      "t": 139546.875,
      "d": 140.625,
      "v": 100
    },
    {
      "midi": 65,
      "hit": false,
      "t": 139546.875,
      "d": 46.875,
      "v": 100
    },
    {
      "midi": 52,
      "hit": false,
      "t": 139593.75,
      "d": 93.75,
      "v": 100
    },
    {
      "midi": 64,
      "hit": false,
      "t": 139593.75,
      "d": 93.75,
      "v": 100
    },
    {
      "midi": 52,
      "hit": false,
      "t": 139593.75,
      "d": 93.75,
      "v": 100
    },
    {
      "midi": 64,
      "hit": false,
      "t": 139593.75,
      "d": 93.75,
      "v": 100
    },
    {
      "midi": 38,
      "hit": false,
      "t": 139687.5,
      "d": 1265.625,
      "v": 100
    },
    {
      "midi": 36,
      "hit": false,
      "t": 139687.5,
      "d": 0.78125,
      "v": 100
    },
    {
      "midi": 66,
      "hit": false,
      "t": 139875,
      "d": 187.5,
      "v": 100
    },
    {
      "midi": 40,
      "hit": false,
      "t": 139875,
      "d": 0.78125,
      "v": 100
    },
    {
      "midi": 66,
      "hit": false,
      "t": 139875,
      "d": 187.5,
      "v": 100
    },
    {
      "midi": 49,
      "hit": false,
      "t": 140062.5,
      "d": 93.75,
      "v": 100
    },
    {
      "midi": 52,
      "hit": false,
      "t": 140062.5,
      "d": 93.75,
      "v": 100
    },
    {
      "midi": 67,
      "hit": false,
      "t": 140062.5,
      "d": 187.5,
      "v": 100
    },
    {
      "midi": 49,
      "hit": false,
      "t": 140062.5,
      "d": 93.75,
      "v": 100
    },
    {
      "midi": 52,
      "hit": false,
      "t": 140062.5,
      "d": 93.75,
      "v": 100
    },
    {
      "midi": 67,
      "hit": false,
      "t": 140062.5,
      "d": 187.5,
      "v": 100
    },
    {
      "midi": 38,
      "hit": false,
      "t": 140156.25,
      "d": 0.78125,
      "v": 100
    },
    {
      "midi": 69,
      "hit": false,
      "t": 140250,
      "d": 187.5,
      "v": 100
    },
    {
      "midi": 36,
      "hit": false,
      "t": 140250,
      "d": 0.78125,
      "v": 100
    },
    {
      "midi": 69,
      "hit": false,
      "t": 140250,
      "d": 187.5,
      "v": 100
    },
    {
      "midi": 38,
      "hit": false,
      "t": 140343.75,
      "d": 0.78125,
      "v": 100
    },
    {
      "midi": 52,
      "hit": false,
      "t": 140437.5,
      "d": 93.75,
      "v": 100
    },
    {
      "midi": 49,
      "hit": false,
      "t": 140437.5,
      "d": 93.75,
      "v": 100
    },
    {
      "midi": 67,
      "hit": false,
      "t": 140437.5,
      "d": 375,
      "v": 100
    },
    {
      "midi": 36,
      "hit": false,
      "t": 140437.5,
      "d": 0.78125,
      "v": 100
    },
    {
      "midi": 52,
      "hit": false,
      "t": 140437.5,
      "d": 93.75,
      "v": 100
    },
    {
      "midi": 49,
      "hit": false,
      "t": 140437.5,
      "d": 93.75,
      "v": 100
    },
    {
      "midi": 67,
      "hit": false,
      "t": 140437.5,
      "d": 375,
      "v": 100
    },
    {
      "midi": 52,
      "hit": false,
      "t": 140625,
      "d": 93.75,
      "v": 100
    },
    {
      "midi": 49,
      "hit": false,
      "t": 140625,
      "d": 93.75,
      "v": 100
    },
    {
      "midi": 40,
      "hit": false,
      "t": 140625,
      "d": 0.78125,
      "v": 100
    },
    {
      "midi": 52,
      "hit": false,
      "t": 140625,
      "d": 93.75,
      "v": 100
    },
    {
      "midi": 49,
      "hit": false,
      "t": 140625,
      "d": 93.75,
      "v": 100
    },
    {
      "midi": 66,
      "hit": false,
      "t": 140812.5,
      "d": 46.875,
      "v": 100
    },
    {
      "midi": 66,
      "hit": false,
      "t": 140812.5,
      "d": 46.875,
      "v": 100
    },
    {
      "midi": 65,
      "hit": false,
      "t": 140859.375,
      "d": 46.875,
      "v": 100
    },
    {
      "midi": 65,
      "hit": false,
      "t": 140859.375,
      "d": 46.875,
      "v": 100
    },
    {
      "midi": 64,
      "hit": false,
      "t": 140906.25,
      "d": 1593.75,
      "v": 100
    },
    {
      "midi": 64,
      "hit": false,
      "t": 140906.25,
      "d": 1593.75,
      "v": 100
    },
    {
      "midi": 45,
      "hit": false,
      "t": 141000,
      "d": 46.875,
      "v": 100
    },
    {
      "midi": 43,
      "hit": false,
      "t": 141000,
      "d": 140.625,
      "v": 100
    },
    {
      "midi": 36,
      "hit": false,
      "t": 141000,
      "d": 0.78125,
      "v": 100
    },
    {
      "midi": 45,
      "hit": false,
      "t": 141000,
      "d": 46.875,
      "v": 100
    },
    {
      "midi": 49,
      "hit": false,
      "t": 141046.875,
      "d": 140.625,
      "v": 100
    },
    {
      "midi": 49,
      "hit": false,
      "t": 141046.875,
      "d": 140.625,
      "v": 100
    },
    {
      "midi": 52,
      "hit": false,
      "t": 141093.75,
      "d": 93.75,
      "v": 100
    },
    {
      "midi": 52,
      "hit": false,
      "t": 141093.75,
      "d": 93.75,
      "v": 100
    },
    {
      "midi": 43,
      "hit": false,
      "t": 141187.5,
      "d": 1265.625,
      "v": 100
    },
    {
      "midi": 36,
      "hit": false,
      "t": 141187.5,
      "d": 0.78125,
      "v": 100
    },
    {
      "midi": 40,
      "hit": false,
      "t": 141375,
      "d": 0.78125,
      "v": 100
    },
    {
      "midi": 49,
      "hit": false,
      "t": 141562.5,
      "d": 93.75,
      "v": 100
    },
    {
      "midi": 52,
      "hit": false,
      "t": 141562.5,
      "d": 93.75,
      "v": 100
    },
    {
      "midi": 49,
      "hit": false,
      "t": 141562.5,
      "d": 93.75,
      "v": 100
    },
    {
      "midi": 52,
      "hit": false,
      "t": 141562.5,
      "d": 93.75,
      "v": 100
    },
    {
      "midi": 40,
      "hit": false,
      "t": 141656.25,
      "d": 0.78125,
      "v": 100
    },
    {
      "midi": 36,
      "hit": false,
      "t": 141750,
      "d": 0.78125,
      "v": 100
    },
    {
      "midi": 38,
      "hit": false,
      "t": 141750,
      "d": 0.78125,
      "v": 100
    },
    {
      "midi": 38,
      "hit": false,
      "t": 141843.75,
      "d": 0.78125,
      "v": 100
    },
    {
      "midi": 52,
      "hit": false,
      "t": 141937.5,
      "d": 93.75,
      "v": 100
    },
    {
      "midi": 49,
      "hit": false,
      "t": 141937.5,
      "d": 93.75,
      "v": 100
    },
    {
      "midi": 36,
      "hit": false,
      "t": 141937.5,
      "d": 0.78125,
      "v": 100
    },
    {
      "midi": 40,
      "hit": false,
      "t": 141937.5,
      "d": 0.78125,
      "v": 100
    },
    {
      "midi": 52,
      "hit": false,
      "t": 141937.5,
      "d": 93.75,
      "v": 100
    },
    {
      "midi": 49,
      "hit": false,
      "t": 141937.5,
      "d": 93.75,
      "v": 100
    },
    {
      "midi": 52,
      "hit": false,
      "t": 142125,
      "d": 93.75,
      "v": 100
    },
    {
      "midi": 49,
      "hit": false,
      "t": 142125,
      "d": 93.75,
      "v": 100
    },
    {
      "midi": 40,
      "hit": false,
      "t": 142125,
      "d": 0.78125,
      "v": 100
    },
    {
      "midi": 52,
      "hit": false,
      "t": 142125,
      "d": 93.75,
      "v": 100
    },
    {
      "midi": 49,
      "hit": false,
      "t": 142125,
      "d": 93.75,
      "v": 100
    },
    {
      "midi": 38,
      "hit": false,
      "t": 142218.75,
      "d": 0.78125,
      "v": 100
    },
    {
      "midi": 40,
      "hit": false,
      "t": 142218.75,
      "d": 0.78125,
      "v": 100
    },
    {
      "midi": 40,
      "hit": false,
      "t": 142312.5,
      "d": 0.78125,
      "v": 100
    },
    {
      "midi": 38,
      "hit": false,
      "t": 142406.25,
      "d": 0.78125,
      "v": 100
    },
    {
      "midi": 40,
      "hit": false,
      "t": 142406.25,
      "d": 0.78125,
      "v": 100
    },
    {
      "midi": 45,
      "hit": false,
      "t": 142500,
      "d": 46.875,
      "v": 100
    },
    {
      "midi": 63,
      "hit": false,
      "t": 142500,
      "d": 187.5,
      "v": 100
    },
    {
      "midi": 37,
      "hit": false,
      "t": 142500,
      "d": 140.625,
      "v": 100
    },
    {
      "midi": 36,
      "hit": false,
      "t": 142500,
      "d": 0.78125,
      "v": 100
    },
    {
      "midi": 57,
      "hit": false,
      "t": 142500,
      "d": 0.78125,
      "v": 100
    },
    {
      "midi": 45,
      "hit": false,
      "t": 142500,
      "d": 46.875,
      "v": 100
    },
    {
      "midi": 63,
      "hit": false,
      "t": 142500,
      "d": 187.5,
      "v": 100
    },
    {
      "midi": 49,
      "hit": false,
      "t": 142546.875,
      "d": 140.625,
      "v": 100
    },
    {
      "midi": 49,
      "hit": false,
      "t": 142546.875,
      "d": 140.625,
      "v": 100
    },
    {
      "midi": 52,
      "hit": false,
      "t": 142593.75,
      "d": 93.75,
      "v": 100
    },
    {
      "midi": 52,
      "hit": false,
      "t": 142593.75,
      "d": 93.75,
      "v": 100
    },
    {
      "midi": 64,
      "hit": false,
      "t": 142687.5,
      "d": 187.5,
      "v": 100
    },
    {
      "midi": 37,
      "hit": false,
      "t": 142687.5,
      "d": 1265.625,
      "v": 100
    },
    {
      "midi": 36,
      "hit": false,
      "t": 142687.5,
      "d": 0.78125,
      "v": 100
    },
    {
      "midi": 64,
      "hit": false,
      "t": 142687.5,
      "d": 187.5,
      "v": 100
    },
    {
      "midi": 66,
      "hit": false,
      "t": 142875,
      "d": 140.625,
      "v": 100
    },
    {
      "midi": 40,
      "hit": false,
      "t": 142875,
      "d": 0.78125,
      "v": 100
    },
    {
      "midi": 66,
      "hit": false,
      "t": 142875,
      "d": 140.625,
      "v": 100
    },
    {
      "midi": 65,
      "hit": false,
      "t": 143015.625,
      "d": 46.875,
      "v": 100
    },
    {
      "midi": 65,
      "hit": false,
      "t": 143015.625,
      "d": 46.875,
      "v": 100
    },
    {
      "midi": 49,
      "hit": false,
      "t": 143062.5,
      "d": 93.75,
      "v": 100
    },
    {
      "midi": 52,
      "hit": false,
      "t": 143062.5,
      "d": 93.75,
      "v": 100
    },
    {
      "midi": 64,
      "hit": false,
      "t": 143062.5,
      "d": 46.875,
      "v": 100
    },
    {
      "midi": 66,
      "hit": false,
      "t": 143062.5,
      "d": 562.5,
      "v": 100
    },
    {
      "midi": 49,
      "hit": false,
      "t": 143062.5,
      "d": 93.75,
      "v": 100
    },
    {
      "midi": 52,
      "hit": false,
      "t": 143062.5,
      "d": 93.75,
      "v": 100
    },
    {
      "midi": 64,
      "hit": false,
      "t": 143062.5,
      "d": 46.875,
      "v": 100
    },
    {
      "midi": 66,
      "hit": false,
      "t": 143062.5,
      "d": 562.5,
      "v": 100
    },
    {
      "midi": 63,
      "hit": false,
      "t": 143109.375,
      "d": 46.875,
      "v": 100
    },
    {
      "midi": 63,
      "hit": false,
      "t": 143109.375,
      "d": 46.875,
      "v": 100
    },
    {
      "midi": 62,
      "hit": false,
      "t": 143156.25,
      "d": 46.875,
      "v": 100
    },
    {
      "midi": 38,
      "hit": false,
      "t": 143156.25,
      "d": 0.78125,
      "v": 100
    },
    {
      "midi": 62,
      "hit": false,
      "t": 143156.25,
      "d": 46.875,
      "v": 100
    },
    {
      "midi": 61,
      "hit": false,
      "t": 143203.125,
      "d": 46.875,
      "v": 100
    },
    {
      "midi": 61,
      "hit": false,
      "t": 143203.125,
      "d": 46.875,
      "v": 100
    },
    {
      "midi": 36,
      "hit": false,
      "t": 143250,
      "d": 0.78125,
      "v": 100
    },
    {
      "midi": 38,
      "hit": false,
      "t": 143343.75,
      "d": 0.78125,
      "v": 100
    },
    {
      "midi": 52,
      "hit": false,
      "t": 143437.5,
      "d": 93.75,
      "v": 100
    },
    {
      "midi": 49,
      "hit": false,
      "t": 143437.5,
      "d": 93.75,
      "v": 100
    },
    {
      "midi": 62,
      "hit": false,
      "t": 143437.5,
      "d": 46.875,
      "v": 100
    },
    {
      "midi": 36,
      "hit": false,
      "t": 143437.5,
      "d": 0.78125,
      "v": 100
    },
    {
      "midi": 52,
      "hit": false,
      "t": 143437.5,
      "d": 93.75,
      "v": 100
    },
    {
      "midi": 49,
      "hit": false,
      "t": 143437.5,
      "d": 93.75,
      "v": 100
    },
    {
      "midi": 62,
      "hit": false,
      "t": 143437.5,
      "d": 46.875,
      "v": 100
    },
    {
      "midi": 61,
      "hit": false,
      "t": 143484.375,
      "d": 46.875,
      "v": 100
    },
    {
      "midi": 61,
      "hit": false,
      "t": 143484.375,
      "d": 46.875,
      "v": 100
    },
    {
      "midi": 60,
      "hit": false,
      "t": 143531.25,
      "d": 46.875,
      "v": 100
    },
    {
      "midi": 60,
      "hit": false,
      "t": 143531.25,
      "d": 46.875,
      "v": 100
    },
    {
      "midi": 59,
      "hit": false,
      "t": 143578.125,
      "d": 46.875,
      "v": 100
    },
    {
      "midi": 59,
      "hit": false,
      "t": 143578.125,
      "d": 46.875,
      "v": 100
    },
    {
      "midi": 52,
      "hit": false,
      "t": 143625,
      "d": 93.75,
      "v": 100
    },
    {
      "midi": 49,
      "hit": false,
      "t": 143625,
      "d": 93.75,
      "v": 100
    },
    {
      "midi": 73,
      "hit": false,
      "t": 143625,
      "d": 140.625,
      "v": 100
    },
    {
      "midi": 40,
      "hit": false,
      "t": 143625,
      "d": 0.78125,
      "v": 100
    },
    {
      "midi": 52,
      "hit": false,
      "t": 143625,
      "d": 93.75,
      "v": 100
    },
    {
      "midi": 49,
      "hit": false,
      "t": 143625,
      "d": 93.75,
      "v": 100
    },
    {
      "midi": 73,
      "hit": false,
      "t": 143625,
      "d": 140.625,
      "v": 100
    },
    {
      "midi": 60,
      "hit": false,
      "t": 143765.625,
      "d": 46.875,
      "v": 100
    },
    {
      "midi": 60,
      "hit": false,
      "t": 143765.625,
      "d": 46.875,
      "v": 100
    },
    {
      "midi": 59,
      "hit": false,
      "t": 143812.5,
      "d": 46.875,
      "v": 100
    },
    {
      "midi": 73,
      "hit": false,
      "t": 143812.5,
      "d": 375,
      "v": 100
    },
    {
      "midi": 59,
      "hit": false,
      "t": 143812.5,
      "d": 46.875,
      "v": 100
    },
    {
      "midi": 73,
      "hit": false,
      "t": 143812.5,
      "d": 375,
      "v": 100
    },
    {
      "midi": 58,
      "hit": false,
      "t": 143859.375,
      "d": 46.875,
      "v": 100
    },
    {
      "midi": 58,
      "hit": false,
      "t": 143859.375,
      "d": 46.875,
      "v": 100
    },
    {
      "midi": 57,
      "hit": false,
      "t": 143906.25,
      "d": 46.875,
      "v": 100
    },
    {
      "midi": 57,
      "hit": false,
      "t": 143906.25,
      "d": 46.875,
      "v": 100
    },
    {
      "midi": 56,
      "hit": false,
      "t": 143953.125,
      "d": 46.875,
      "v": 100
    },
    {
      "midi": 56,
      "hit": false,
      "t": 143953.125,
      "d": 46.875,
      "v": 100
    },
    {
      "midi": 45,
      "hit": false,
      "t": 144000,
      "d": 46.875,
      "v": 100
    },
    {
      "midi": 35,
      "hit": false,
      "t": 144000,
      "d": 140.625,
      "v": 100
    },
    {
      "midi": 36,
      "hit": false,
      "t": 144000,
      "d": 0.78125,
      "v": 100
    },
    {
      "midi": 45,
      "hit": false,
      "t": 144000,
      "d": 46.875,
      "v": 100
    },
    {
      "midi": 49,
      "hit": false,
      "t": 144046.875,
      "d": 140.625,
      "v": 100
    },
    {
      "midi": 49,
      "hit": false,
      "t": 144046.875,
      "d": 140.625,
      "v": 100
    },
    {
      "midi": 52,
      "hit": false,
      "t": 144093.75,
      "d": 93.75,
      "v": 100
    },
    {
      "midi": 52,
      "hit": false,
      "t": 144093.75,
      "d": 93.75,
      "v": 100
    },
    {
      "midi": 71,
      "hit": false,
      "t": 144187.5,
      "d": 187.5,
      "v": 100
    },
    {
      "midi": 35,
      "hit": false,
      "t": 144187.5,
      "d": 1265.625,
      "v": 100
    },
    {
      "midi": 36,
      "hit": false,
      "t": 144187.5,
      "d": 0.78125,
      "v": 100
    },
    {
      "midi": 71,
      "hit": false,
      "t": 144187.5,
      "d": 187.5,
      "v": 100
    },
    {
      "midi": 70,
      "hit": false,
      "t": 144328.125,
      "d": 46.875,
      "v": 100
    },
    {
      "midi": 70,
      "hit": false,
      "t": 144328.125,
      "d": 46.875,
      "v": 100
    },
    {
      "midi": 69,
      "hit": false,
      "t": 144375,
      "d": 187.5,
      "v": 100
    },
    {
      "midi": 40,
      "hit": false,
      "t": 144375,
      "d": 0.78125,
      "v": 100
    },
    {
      "midi": 69,
      "hit": false,
      "t": 144375,
      "d": 187.5,
      "v": 100
    },
    {
      "midi": 49,
      "hit": false,
      "t": 144562.5,
      "d": 93.75,
      "v": 100
    },
    {
      "midi": 52,
      "hit": false,
      "t": 144562.5,
      "d": 93.75,
      "v": 100
    },
    {
      "midi": 67,
      "hit": false,
      "t": 144562.5,
      "d": 937.5,
      "v": 100
    },
    {
      "midi": 49,
      "hit": false,
      "t": 144562.5,
      "d": 93.75,
      "v": 100
    },
    {
      "midi": 52,
      "hit": false,
      "t": 144562.5,
      "d": 93.75,
      "v": 100
    },
    {
      "midi": 67,
      "hit": false,
      "t": 144562.5,
      "d": 937.5,
      "v": 100
    },
    {
      "midi": 36,
      "hit": false,
      "t": 144750,
      "d": 0.78125,
      "v": 100
    },
    {
      "midi": 40,
      "hit": false,
      "t": 144750,
      "d": 0.78125,
      "v": 100
    },
    {
      "midi": 36,
      "hit": false,
      "t": 144843.75,
      "d": 0.78125,
      "v": 100
    },
    {
      "midi": 52,
      "hit": false,
      "t": 144937.5,
      "d": 93.75,
      "v": 100
    },
    {
      "midi": 49,
      "hit": false,
      "t": 144937.5,
      "d": 93.75,
      "v": 100
    },
    {
      "midi": 38,
      "hit": false,
      "t": 144937.5,
      "d": 0.78125,
      "v": 100
    },
    {
      "midi": 52,
      "hit": false,
      "t": 144937.5,
      "d": 93.75,
      "v": 100
    },
    {
      "midi": 49,
      "hit": false,
      "t": 144937.5,
      "d": 93.75,
      "v": 100
    },
    {
      "midi": 52,
      "hit": false,
      "t": 145125,
      "d": 93.75,
      "v": 100
    },
    {
      "midi": 49,
      "hit": false,
      "t": 145125,
      "d": 93.75,
      "v": 100
    },
    {
      "midi": 40,
      "hit": false,
      "t": 145125,
      "d": 0.78125,
      "v": 100
    },
    {
      "midi": 36,
      "hit": false,
      "t": 145125,
      "d": 0.78125,
      "v": 100
    },
    {
      "midi": 52,
      "hit": false,
      "t": 145125,
      "d": 93.75,
      "v": 100
    },
    {
      "midi": 49,
      "hit": false,
      "t": 145125,
      "d": 93.75,
      "v": 100
    },
    {
      "midi": 36,
      "hit": false,
      "t": 145218.75,
      "d": 0.78125,
      "v": 100
    },
    {
      "midi": 38,
      "hit": false,
      "t": 145312.5,
      "d": 0.78125,
      "v": 100
    },
    {
      "midi": 45,
      "hit": false,
      "t": 145500,
      "d": 46.875,
      "v": 100
    },
    {
      "midi": 73,
      "hit": false,
      "t": 145500,
      "d": 187.5,
      "v": 100
    },
    {
      "midi": 38,
      "hit": false,
      "t": 145500,
      "d": 140.625,
      "v": 100
    },
    {
      "midi": 40,
      "hit": false,
      "t": 145500,
      "d": 0.78125,
      "v": 100
    },
    {
      "midi": 36,
      "hit": false,
      "t": 145500,
      "d": 0.78125,
      "v": 100
    },
    {
      "midi": 57,
      "hit": false,
      "t": 145500,
      "d": 0.78125,
      "v": 100
    },
    {
      "midi": 45,
      "hit": false,
      "t": 145500,
      "d": 46.875,
      "v": 100
    },
    {
      "midi": 73,
      "hit": false,
      "t": 145500,
      "d": 187.5,
      "v": 100
    },
    {
      "midi": 49,
      "hit": false,
      "t": 145546.875,
      "d": 140.625,
      "v": 100
    },
    {
      "midi": 49,
      "hit": false,
      "t": 145546.875,
      "d": 140.625,
      "v": 100
    },
    {
      "midi": 52,
      "hit": false,
      "t": 145593.75,
      "d": 93.75,
      "v": 100
    },
    {
      "midi": 36,
      "hit": false,
      "t": 145593.75,
      "d": 0.78125,
      "v": 100
    },
    {
      "midi": 52,
      "hit": false,
      "t": 145593.75,
      "d": 93.75,
      "v": 100
    },
    {
      "midi": 74,
      "hit": false,
      "t": 145687.5,
      "d": 187.5,
      "v": 100
    },
    {
      "midi": 38,
      "hit": false,
      "t": 145687.5,
      "d": 1218.75,
      "v": 100
    },
    {
      "midi": 38,
      "hit": false,
      "t": 145687.5,
      "d": 0.78125,
      "v": 100
    },
    {
      "midi": 74,
      "hit": false,
      "t": 145687.5,
      "d": 187.5,
      "v": 100
    },
    {
      "midi": 76,
      "hit": false,
      "t": 145875,
      "d": 187.5,
      "v": 100
    },
    {
      "midi": 73,
      "hit": false,
      "t": 145875,
      "d": 187.5,
      "v": 100
    },
    {
      "midi": 40,
      "hit": false,
      "t": 145875,
      "d": 0.78125,
      "v": 100
    },
    {
      "midi": 76,
      "hit": false,
      "t": 145875,
      "d": 187.5,
      "v": 100
    },
    {
      "midi": 73,
      "hit": false,
      "t": 145875,
      "d": 187.5,
      "v": 100
    },
    {
      "midi": 49,
      "hit": false,
      "t": 146062.5,
      "d": 93.75,
      "v": 100
    },
    {
      "midi": 52,
      "hit": false,
      "t": 146062.5,
      "d": 93.75,
      "v": 100
    },
    {
      "midi": 78,
      "hit": false,
      "t": 146062.5,
      "d": 187.5,
      "v": 100
    },
    {
      "midi": 74,
      "hit": false,
      "t": 146062.5,
      "d": 187.5,
      "v": 100
    },
    {
      "midi": 38,
      "hit": false,
      "t": 146062.5,
      "d": 0.78125,
      "v": 100
    },
    {
      "midi": 49,
      "hit": false,
      "t": 146062.5,
      "d": 93.75,
      "v": 100
    },
    {
      "midi": 52,
      "hit": false,
      "t": 146062.5,
      "d": 93.75,
      "v": 100
    },
    {
      "midi": 78,
      "hit": false,
      "t": 146062.5,
      "d": 187.5,
      "v": 100
    },
    {
      "midi": 74,
      "hit": false,
      "t": 146062.5,
      "d": 187.5,
      "v": 100
    },
    {
      "midi": 85,
      "hit": false,
      "t": 146250,
      "d": 375,
      "v": 100
    },
    {
      "midi": 40,
      "hit": false,
      "t": 146250,
      "d": 0.78125,
      "v": 100
    },
    {
      "midi": 85,
      "hit": false,
      "t": 146250,
      "d": 375,
      "v": 100
    },
    {
      "midi": 40,
      "hit": false,
      "t": 146343.75,
      "d": 0.78125,
      "v": 100
    },
    {
      "midi": 52,
      "hit": false,
      "t": 146437.5,
      "d": 93.75,
      "v": 100
    },
    {
      "midi": 49,
      "hit": false,
      "t": 146437.5,
      "d": 93.75,
      "v": 100
    },
    {
      "midi": 38,
      "hit": false,
      "t": 146437.5,
      "d": 0.78125,
      "v": 100
    },
    {
      "midi": 52,
      "hit": false,
      "t": 146437.5,
      "d": 93.75,
      "v": 100
    },
    {
      "midi": 49,
      "hit": false,
      "t": 146437.5,
      "d": 93.75,
      "v": 100
    },
    {
      "midi": 52,
      "hit": false,
      "t": 146625,
      "d": 93.75,
      "v": 100
    },
    {
      "midi": 49,
      "hit": false,
      "t": 146625,
      "d": 93.75,
      "v": 100
    },
    {
      "midi": 84,
      "hit": false,
      "t": 146625,
      "d": 46.875,
      "v": 100
    },
    {
      "midi": 40,
      "hit": false,
      "t": 146625,
      "d": 0.78125,
      "v": 100
    },
    {
      "midi": 52,
      "hit": false,
      "t": 146625,
      "d": 93.75,
      "v": 100
    },
    {
      "midi": 49,
      "hit": false,
      "t": 146625,
      "d": 93.75,
      "v": 100
    },
    {
      "midi": 84,
      "hit": false,
      "t": 146625,
      "d": 46.875,
      "v": 100
    },
    {
      "midi": 83,
      "hit": false,
      "t": 146671.875,
      "d": 46.875,
      "v": 100
    },
    {
      "midi": 83,
      "hit": false,
      "t": 146671.875,
      "d": 46.875,
      "v": 100
    },
    {
      "midi": 82,
      "hit": false,
      "t": 146718.75,
      "d": 46.875,
      "v": 100
    },
    {
      "midi": 40,
      "hit": false,
      "t": 146718.75,
      "d": 0.78125,
      "v": 100
    },
    {
      "midi": 82,
      "hit": false,
      "t": 146718.75,
      "d": 46.875,
      "v": 100
    },
    {
      "midi": 81,
      "hit": false,
      "t": 146765.625,
      "d": 1734.375,
      "v": 100
    },
    {
      "midi": 81,
      "hit": false,
      "t": 146765.625,
      "d": 1734.375,
      "v": 100
    },
    {
      "midi": 38,
      "hit": false,
      "t": 146812.5,
      "d": 0.78125,
      "v": 100
    },
    {
      "midi": 52,
      "hit": false,
      "t": 147000,
      "d": 93.75,
      "v": 100
    },
    {
      "midi": 49,
      "hit": false,
      "t": 147000,
      "d": 93.75,
      "v": 100
    },
    {
      "midi": 38,
      "hit": false,
      "t": 147000,
      "d": 328.125,
      "v": 100
    },
    {
      "midi": 40,
      "hit": false,
      "t": 147000,
      "d": 0.78125,
      "v": 100
    },
    {
      "midi": 38,
      "hit": false,
      "t": 147000,
      "d": 0.78125,
      "v": 100
    },
    {
      "midi": 36,
      "hit": false,
      "t": 147000,
      "d": 0.78125,
      "v": 100
    },
    {
      "midi": 52,
      "hit": false,
      "t": 147000,
      "d": 93.75,
      "v": 100
    },
    {
      "midi": 49,
      "hit": false,
      "t": 147000,
      "d": 93.75,
      "v": 100
    },
    {
      "midi": 52,
      "hit": false,
      "t": 147375,
      "d": 93.75,
      "v": 100
    },
    {
      "midi": 49,
      "hit": false,
      "t": 147375,
      "d": 93.75,
      "v": 100
    },
    {
      "midi": 38,
      "hit": false,
      "t": 147375,
      "d": 328.125,
      "v": 100
    },
    {
      "midi": 40,
      "hit": false,
      "t": 147375,
      "d": 0.78125,
      "v": 100
    },
    {
      "midi": 38,
      "hit": false,
      "t": 147375,
      "d": 0.78125,
      "v": 100
    },
    {
      "midi": 36,
      "hit": false,
      "t": 147375,
      "d": 0.78125,
      "v": 100
    },
    {
      "midi": 52,
      "hit": false,
      "t": 147375,
      "d": 93.75,
      "v": 100
    },
    {
      "midi": 49,
      "hit": false,
      "t": 147375,
      "d": 93.75,
      "v": 100
    },
    {
      "midi": 69,
      "hit": false,
      "t": 147562.5,
      "d": 93.75,
      "v": 100
    },
    {
      "midi": 69,
      "hit": false,
      "t": 147562.5,
      "d": 93.75,
      "v": 100
    },
    {
      "midi": 69,
      "hit": false,
      "t": 147562.5,
      "d": 93.75,
      "v": 100
    },
    {
      "midi": 71,
      "hit": false,
      "t": 147656.25,
      "d": 93.75,
      "v": 100
    },
    {
      "midi": 69,
      "hit": false,
      "t": 147656.25,
      "d": 93.75,
      "v": 100
    },
    {
      "midi": 71,
      "hit": false,
      "t": 147656.25,
      "d": 93.75,
      "v": 100
    },
    {
      "midi": 74,
      "hit": false,
      "t": 147750,
      "d": 281.25,
      "v": 100
    },
    {
      "midi": 69,
      "hit": false,
      "t": 147750,
      "d": 281.25,
      "v": 100
    },
    {
      "midi": 74,
      "hit": false,
      "t": 147750,
      "d": 281.25,
      "v": 100
    },
    {
      "midi": 37,
      "hit": false,
      "t": 147937.5,
      "d": 46.875,
      "v": 100
    },
    {
      "midi": 35,
      "hit": false,
      "t": 147984.375,
      "d": 46.875,
      "v": 100
    },
    {
      "midi": 73,
      "hit": false,
      "t": 148031.25,
      "d": 281.25,
      "v": 100
    },
    {
      "midi": 33,
      "hit": false,
      "t": 148031.25,
      "d": 46.875,
      "v": 100
    },
    {
      "midi": 69,
      "hit": false,
      "t": 148031.25,
      "d": 281.25,
      "v": 100
    },
    {
      "midi": 73,
      "hit": false,
      "t": 148031.25,
      "d": 281.25,
      "v": 100
    },
    {
      "midi": 31,
      "hit": false,
      "t": 148078.125,
      "d": 46.875,
      "v": 100
    },
    {
      "midi": 30,
      "hit": false,
      "t": 148125,
      "d": 46.875,
      "v": 100
    },
    {
      "midi": 55,
      "hit": false,
      "t": 148125,
      "d": 0.78125,
      "v": 100
    },
    {
      "midi": 28,
      "hit": false,
      "t": 148171.875,
      "d": 46.875,
      "v": 100
    },
    {
      "midi": 26,
      "hit": false,
      "t": 148218.75,
      "d": 46.875,
      "v": 100
    },
    {
      "midi": 25,
      "hit": false,
      "t": 148265.625,
      "d": 46.875,
      "v": 100
    },
    {
      "midi": 74,
      "hit": false,
      "t": 148312.5,
      "d": 562.5,
      "v": 100
    },
    {
      "midi": 71,
      "hit": false,
      "t": 148312.5,
      "d": 562.5,
      "v": 100
    },
    {
      "midi": 74,
      "hit": false,
      "t": 148312.5,
      "d": 562.5,
      "v": 100
    },
    {
      "midi": 45,
      "hit": false,
      "t": 148500,
      "d": 46.875,
      "v": 100
    },
    {
      "midi": 64,
      "hit": false,
      "t": 148500,
      "d": 93.75,
      "v": 100
    },
    {
      "midi": 76,
      "hit": false,
      "t": 148500,
      "d": 93.75,
      "v": 100
    },
    {
      "midi": 49,
      "hit": false,
      "t": 148500,
      "d": 0.78125,
      "v": 100
    },
    {
      "midi": 36,
      "hit": false,
      "t": 148500,
      "d": 0.78125,
      "v": 100
    },
    {
      "midi": 45,
      "hit": false,
      "t": 148500,
      "d": 46.875,
      "v": 100
    },
    {
      "midi": 64,
      "hit": false,
      "t": 148500,
      "d": 93.75,
      "v": 100
    },
    {
      "midi": 76,
      "hit": false,
      "t": 148500,
      "d": 93.75,
      "v": 100
    },
    {
      "midi": 49,
      "hit": false,
      "t": 148546.875,
      "d": 140.625,
      "v": 100
    },
    {
      "midi": 49,
      "hit": false,
      "t": 148546.875,
      "d": 140.625,
      "v": 100
    },
    {
      "midi": 52,
      "hit": false,
      "t": 148593.75,
      "d": 93.75,
      "v": 100
    },
    {
      "midi": 64,
      "hit": false,
      "t": 148593.75,
      "d": 187.5,
      "v": 100
    },
    {
      "midi": 52,
      "hit": false,
      "t": 148593.75,
      "d": 93.75,
      "v": 100
    },
    {
      "midi": 64,
      "hit": false,
      "t": 148593.75,
      "d": 187.5,
      "v": 100
    },
    {
      "midi": 64,
      "hit": false,
      "t": 148781.25,
      "d": 93.75,
      "v": 100
    },
    {
      "midi": 64,
      "hit": false,
      "t": 148781.25,
      "d": 93.75,
      "v": 100
    },
    {
      "midi": 64,
      "hit": false,
      "t": 148875,
      "d": 93.75,
      "v": 100
    },
    {
      "midi": 40,
      "hit": false,
      "t": 148875,
      "d": 0.78125,
      "v": 100
    },
    {
      "midi": 64,
      "hit": false,
      "t": 148875,
      "d": 93.75,
      "v": 100
    },
    {
      "midi": 64,
      "hit": false,
      "t": 148968.75,
      "d": 187.5,
      "v": 100
    },
    {
      "midi": 64,
      "hit": false,
      "t": 148968.75,
      "d": 187.5,
      "v": 100
    },
    {
      "midi": 69,
      "hit": false,
      "t": 149062.5,
      "d": 93.75,
      "v": 100
    },
    {
      "midi": 49,
      "hit": false,
      "t": 149062.5,
      "d": 93.75,
      "v": 100
    },
    {
      "midi": 52,
      "hit": false,
      "t": 149062.5,
      "d": 93.75,
      "v": 100
    },
    {
      "midi": 69,
      "hit": false,
      "t": 149062.5,
      "d": 93.75,
      "v": 100
    },
    {
      "midi": 69,
      "hit": false,
      "t": 149062.5,
      "d": 93.75,
      "v": 100
    },
    {
      "midi": 49,
      "hit": false,
      "t": 149062.5,
      "d": 93.75,
      "v": 100
    },
    {
      "midi": 52,
      "hit": false,
      "t": 149062.5,
      "d": 93.75,
      "v": 100
    },
    {
      "midi": 71,
      "hit": false,
      "t": 149156.25,
      "d": 93.75,
      "v": 100
    },
    {
      "midi": 64,
      "hit": false,
      "t": 149156.25,
      "d": 93.75,
      "v": 100
    },
    {
      "midi": 69,
      "hit": false,
      "t": 149156.25,
      "d": 93.75,
      "v": 100
    },
    {
      "midi": 71,
      "hit": false,
      "t": 149156.25,
      "d": 93.75,
      "v": 100
    },
    {
      "midi": 64,
      "hit": false,
      "t": 149156.25,
      "d": 93.75,
      "v": 100
    },
    {
      "midi": 76,
      "hit": false,
      "t": 149250,
      "d": 281.25,
      "v": 100
    },
    {
      "midi": 64,
      "hit": false,
      "t": 149250,
      "d": 93.75,
      "v": 100
    },
    {
      "midi": 78,
      "hit": false,
      "t": 149250,
      "d": 93.75,
      "v": 100
    },
    {
      "midi": 69,
      "hit": false,
      "t": 149250,
      "d": 281.25,
      "v": 100
    },
    {
      "midi": 46,
      "hit": false,
      "t": 149250,
      "d": 0.78125,
      "v": 100
    },
    {
      "midi": 76,
      "hit": false,
      "t": 149250,
      "d": 281.25,
      "v": 100
    },
    {
      "midi": 64,
      "hit": false,
      "t": 149250,
      "d": 93.75,
      "v": 100
    },
    {
      "midi": 78,
      "hit": false,
      "t": 149250,
      "d": 93.75,
      "v": 100
    },
    {
      "midi": 64,
      "hit": false,
      "t": 149343.75,
      "d": 187.5,
      "v": 100
    },
    {
      "midi": 64,
      "hit": false,
      "t": 149343.75,
      "d": 187.5,
      "v": 100
    },
    {
      "midi": 52,
      "hit": false,
      "t": 149437.5,
      "d": 93.75,
      "v": 100
    },
    {
      "midi": 49,
      "hit": false,
      "t": 149437.5,
      "d": 93.75,
      "v": 100
    },
    {
      "midi": 52,
      "hit": false,
      "t": 149437.5,
      "d": 93.75,
      "v": 100
    },
    {
      "midi": 49,
      "hit": false,
      "t": 149437.5,
      "d": 93.75,
      "v": 100
    },
    {
      "midi": 74,
      "hit": false,
      "t": 149531.25,
      "d": 281.25,
      "v": 100
    },
    {
      "midi": 64,
      "hit": false,
      "t": 149531.25,
      "d": 93.75,
      "v": 100
    },
    {
      "midi": 69,
      "hit": false,
      "t": 149531.25,
      "d": 281.25,
      "v": 100
    },
    {
      "midi": 74,
      "hit": false,
      "t": 149531.25,
      "d": 281.25,
      "v": 100
    },
    {
      "midi": 64,
      "hit": false,
      "t": 149531.25,
      "d": 93.75,
      "v": 100
    },
    {
      "midi": 73,
      "hit": false,
      "t": 149578.125,
      "d": 93.75,
      "v": 100
    },
    {
      "midi": 73,
      "hit": false,
      "t": 149578.125,
      "d": 93.75,
      "v": 100
    },
    {
      "midi": 64,
      "hit": false,
      "t": 149625,
      "d": 93.75,
      "v": 100
    },
    {
      "midi": 52,
      "hit": false,
      "t": 149625,
      "d": 93.75,
      "v": 100
    },
    {
      "midi": 49,
      "hit": false,
      "t": 149625,
      "d": 93.75,
      "v": 100
    },
    {
      "midi": 40,
      "hit": false,
      "t": 149625,
      "d": 0.78125,
      "v": 100
    },
    {
      "midi": 64,
      "hit": false,
      "t": 149625,
      "d": 93.75,
      "v": 100
    },
    {
      "midi": 52,
      "hit": false,
      "t": 149625,
      "d": 93.75,
      "v": 100
    },
    {
      "midi": 49,
      "hit": false,
      "t": 149625,
      "d": 93.75,
      "v": 100
    },
    {
      "midi": 64,
      "hit": false,
      "t": 149718.75,
      "d": 187.5,
      "v": 100
    },
    {
      "midi": 64,
      "hit": false,
      "t": 149718.75,
      "d": 187.5,
      "v": 100
    },
    {
      "midi": 76,
      "hit": false,
      "t": 149812.5,
      "d": 562.5,
      "v": 100
    },
    {
      "midi": 67,
      "hit": false,
      "t": 149812.5,
      "d": 562.5,
      "v": 100
    },
    {
      "midi": 76,
      "hit": false,
      "t": 149812.5,
      "d": 562.5,
      "v": 100
    },
    {
      "midi": 64,
      "hit": false,
      "t": 149906.25,
      "d": 93.75,
      "v": 100
    },
    {
      "midi": 64,
      "hit": false,
      "t": 149906.25,
      "d": 93.75,
      "v": 100
    },
    {
      "midi": 45,
      "hit": false,
      "t": 150000,
      "d": 46.875,
      "v": 100
    },
    {
      "midi": 64,
      "hit": false,
      "t": 150000,
      "d": 93.75,
      "v": 100
    },
    {
      "midi": 76,
      "hit": false,
      "t": 150000,
      "d": 93.75,
      "v": 100
    },
    {
      "midi": 36,
      "hit": false,
      "t": 150000,
      "d": 0.78125,
      "v": 100
    },
    {
      "midi": 45,
      "hit": false,
      "t": 150000,
      "d": 46.875,
      "v": 100
    },
    {
      "midi": 64,
      "hit": false,
      "t": 150000,
      "d": 93.75,
      "v": 100
    },
    {
      "midi": 76,
      "hit": false,
      "t": 150000,
      "d": 93.75,
      "v": 100
    },
    {
      "midi": 49,
      "hit": false,
      "t": 150046.875,
      "d": 140.625,
      "v": 100
    },
    {
      "midi": 49,
      "hit": false,
      "t": 150046.875,
      "d": 140.625,
      "v": 100
    },
    {
      "midi": 52,
      "hit": false,
      "t": 150093.75,
      "d": 93.75,
      "v": 100
    },
    {
      "midi": 64,
      "hit": false,
      "t": 150093.75,
      "d": 187.5,
      "v": 100
    },
    {
      "midi": 52,
      "hit": false,
      "t": 150093.75,
      "d": 93.75,
      "v": 100
    },
    {
      "midi": 64,
      "hit": false,
      "t": 150093.75,
      "d": 187.5,
      "v": 100
    },
    {
      "midi": 64,
      "hit": false,
      "t": 150281.25,
      "d": 93.75,
      "v": 100
    },
    {
      "midi": 64,
      "hit": false,
      "t": 150281.25,
      "d": 93.75,
      "v": 100
    },
    {
      "midi": 64,
      "hit": false,
      "t": 150375,
      "d": 93.75,
      "v": 100
    },
    {
      "midi": 40,
      "hit": false,
      "t": 150375,
      "d": 0.78125,
      "v": 100
    },
    {
      "midi": 64,
      "hit": false,
      "t": 150375,
      "d": 93.75,
      "v": 100
    },
    {
      "midi": 64,
      "hit": false,
      "t": 150468.75,
      "d": 187.5,
      "v": 100
    },
    {
      "midi": 64,
      "hit": false,
      "t": 150468.75,
      "d": 187.5,
      "v": 100
    },
    {
      "midi": 49,
      "hit": false,
      "t": 150562.5,
      "d": 93.75,
      "v": 100
    },
    {
      "midi": 52,
      "hit": false,
      "t": 150562.5,
      "d": 93.75,
      "v": 100
    },
    {
      "midi": 49,
      "hit": false,
      "t": 150562.5,
      "d": 93.75,
      "v": 100
    },
    {
      "midi": 52,
      "hit": false,
      "t": 150562.5,
      "d": 93.75,
      "v": 100
    },
    {
      "midi": 64,
      "hit": false,
      "t": 150656.25,
      "d": 93.75,
      "v": 100
    },
    {
      "midi": 64,
      "hit": false,
      "t": 150656.25,
      "d": 93.75,
      "v": 100
    },
    {
      "midi": 64,
      "hit": false,
      "t": 150750,
      "d": 93.75,
      "v": 100
    },
    {
      "midi": 78,
      "hit": false,
      "t": 150750,
      "d": 93.75,
      "v": 100
    },
    {
      "midi": 44,
      "hit": false,
      "t": 150750,
      "d": 0.78125,
      "v": 100
    },
    {
      "midi": 64,
      "hit": false,
      "t": 150750,
      "d": 93.75,
      "v": 100
    },
    {
      "midi": 78,
      "hit": false,
      "t": 150750,
      "d": 93.75,
      "v": 100
    },
    {
      "midi": 64,
      "hit": false,
      "t": 150843.75,
      "d": 187.5,
      "v": 100
    },
    {
      "midi": 64,
      "hit": false,
      "t": 150843.75,
      "d": 187.5,
      "v": 100
    },
    {
      "midi": 73,
      "hit": false,
      "t": 150937.5,
      "d": 187.5,
      "v": 100
    },
    {
      "midi": 52,
      "hit": false,
      "t": 150937.5,
      "d": 93.75,
      "v": 100
    },
    {
      "midi": 49,
      "hit": false,
      "t": 150937.5,
      "d": 93.75,
      "v": 100
    },
    {
      "midi": 36,
      "hit": false,
      "t": 150937.5,
      "d": 0.78125,
      "v": 100
    },
    {
      "midi": 73,
      "hit": false,
      "t": 150937.5,
      "d": 187.5,
      "v": 100
    },
    {
      "midi": 52,
      "hit": false,
      "t": 150937.5,
      "d": 93.75,
      "v": 100
    },
    {
      "midi": 49,
      "hit": false,
      "t": 150937.5,
      "d": 93.75,
      "v": 100
    },
    {
      "midi": 64,
      "hit": false,
      "t": 151031.25,
      "d": 93.75,
      "v": 100
    },
    {
      "midi": 64,
      "hit": false,
      "t": 151031.25,
      "d": 93.75,
      "v": 100
    },
    {
      "midi": 73,
      "hit": false,
      "t": 151078.125,
      "d": 93.75,
      "v": 100
    },
    {
      "midi": 73,
      "hit": false,
      "t": 151078.125,
      "d": 93.75,
      "v": 100
    },
    {
      "midi": 74,
      "hit": false,
      "t": 151125,
      "d": 187.5,
      "v": 100
    },
    {
      "midi": 64,
      "hit": false,
      "t": 151125,
      "d": 93.75,
      "v": 100
    },
    {
      "midi": 52,
      "hit": false,
      "t": 151125,
      "d": 93.75,
      "v": 100
    },
    {
      "midi": 49,
      "hit": false,
      "t": 151125,
      "d": 93.75,
      "v": 100
    },
    {
      "midi": 40,
      "hit": false,
      "t": 151125,
      "d": 0.78125,
      "v": 100
    },
    {
      "midi": 74,
      "hit": false,
      "t": 151125,
      "d": 187.5,
      "v": 100
    },
    {
      "midi": 64,
      "hit": false,
      "t": 151125,
      "d": 93.75,
      "v": 100
    },
    {
      "midi": 52,
      "hit": false,
      "t": 151125,
      "d": 93.75,
      "v": 100
    },
    {
      "midi": 49,
      "hit": false,
      "t": 151125,
      "d": 93.75,
      "v": 100
    },
    {
      "midi": 64,
      "hit": false,
      "t": 151218.75,
      "d": 187.5,
      "v": 100
    },
    {
      "midi": 64,
      "hit": false,
      "t": 151218.75,
      "d": 187.5,
      "v": 100
    },
    {
      "midi": 76,
      "hit": false,
      "t": 151312.5,
      "d": 187.5,
      "v": 100
    },
    {
      "midi": 76,
      "hit": false,
      "t": 151312.5,
      "d": 187.5,
      "v": 100
    },
    {
      "midi": 64,
      "hit": false,
      "t": 151406.25,
      "d": 93.75,
      "v": 100
    },
    {
      "midi": 64,
      "hit": false,
      "t": 151406.25,
      "d": 93.75,
      "v": 100
    },
    {
      "midi": 81,
      "hit": false,
      "t": 151500,
      "d": 515.625,
      "v": 100
    },
    {
      "midi": 45,
      "hit": false,
      "t": 151500,
      "d": 46.875,
      "v": 100
    },
    {
      "midi": 64,
      "hit": false,
      "t": 151500,
      "d": 93.75,
      "v": 100
    },
    {
      "midi": 76,
      "hit": false,
      "t": 151500,
      "d": 93.75,
      "v": 100
    },
    {
      "midi": 81,
      "hit": false,
      "t": 151500,
      "d": 515.625,
      "v": 100
    },
    {
      "midi": 36,
      "hit": false,
      "t": 151500,
      "d": 0.78125,
      "v": 100
    },
    {
      "midi": 81,
      "hit": false,
      "t": 151500,
      "d": 515.625,
      "v": 100
    },
    {
      "midi": 45,
      "hit": false,
      "t": 151500,
      "d": 46.875,
      "v": 100
    },
    {
      "midi": 64,
      "hit": false,
      "t": 151500,
      "d": 93.75,
      "v": 100
    },
    {
      "midi": 76,
      "hit": false,
      "t": 151500,
      "d": 93.75,
      "v": 100
    },
    {
      "midi": 49,
      "hit": false,
      "t": 151546.875,
      "d": 140.625,
      "v": 100
    },
    {
      "midi": 49,
      "hit": false,
      "t": 151546.875,
      "d": 140.625,
      "v": 100
    },
    {
      "midi": 52,
      "hit": false,
      "t": 151593.75,
      "d": 93.75,
      "v": 100
    },
    {
      "midi": 64,
      "hit": false,
      "t": 151593.75,
      "d": 187.5,
      "v": 100
    },
    {
      "midi": 52,
      "hit": false,
      "t": 151593.75,
      "d": 93.75,
      "v": 100
    },
    {
      "midi": 64,
      "hit": false,
      "t": 151593.75,
      "d": 187.5,
      "v": 100
    },
    {
      "midi": 64,
      "hit": false,
      "t": 151781.25,
      "d": 93.75,
      "v": 100
    },
    {
      "midi": 64,
      "hit": false,
      "t": 151781.25,
      "d": 93.75,
      "v": 100
    },
    {
      "midi": 64,
      "hit": false,
      "t": 151875,
      "d": 93.75,
      "v": 100
    },
    {
      "midi": 40,
      "hit": false,
      "t": 151875,
      "d": 0.78125,
      "v": 100
    },
    {
      "midi": 64,
      "hit": false,
      "t": 151875,
      "d": 93.75,
      "v": 100
    },
    {
      "midi": 64,
      "hit": false,
      "t": 151968.75,
      "d": 187.5,
      "v": 100
    },
    {
      "midi": 64,
      "hit": false,
      "t": 151968.75,
      "d": 187.5,
      "v": 100
    },
    {
      "midi": 81,
      "hit": false,
      "t": 152062.5,
      "d": 187.5,
      "v": 100
    },
    {
      "midi": 49,
      "hit": false,
      "t": 152062.5,
      "d": 93.75,
      "v": 100
    },
    {
      "midi": 52,
      "hit": false,
      "t": 152062.5,
      "d": 93.75,
      "v": 100
    },
    {
      "midi": 81,
      "hit": false,
      "t": 152062.5,
      "d": 187.5,
      "v": 100
    },
    {
      "midi": 81,
      "hit": false,
      "t": 152062.5,
      "d": 187.5,
      "v": 100
    },
    {
      "midi": 49,
      "hit": false,
      "t": 152062.5,
      "d": 93.75,
      "v": 100
    },
    {
      "midi": 52,
      "hit": false,
      "t": 152062.5,
      "d": 93.75,
      "v": 100
    },
    {
      "midi": 64,
      "hit": false,
      "t": 152156.25,
      "d": 93.75,
      "v": 100
    },
    {
      "midi": 64,
      "hit": false,
      "t": 152156.25,
      "d": 93.75,
      "v": 100
    },
    {
      "midi": 79,
      "hit": false,
      "t": 152250,
      "d": 187.5,
      "v": 100
    },
    {
      "midi": 64,
      "hit": false,
      "t": 152250,
      "d": 93.75,
      "v": 100
    },
    {
      "midi": 78,
      "hit": false,
      "t": 152250,
      "d": 93.75,
      "v": 100
    },
    {
      "midi": 81,
      "hit": false,
      "t": 152250,
      "d": 187.5,
      "v": 100
    },
    {
      "midi": 46,
      "hit": false,
      "t": 152250,
      "d": 0.78125,
      "v": 100
    },
    {
      "midi": 79,
      "hit": false,
      "t": 152250,
      "d": 187.5,
      "v": 100
    },
    {
      "midi": 64,
      "hit": false,
      "t": 152250,
      "d": 93.75,
      "v": 100
    },
    {
      "midi": 78,
      "hit": false,
      "t": 152250,
      "d": 93.75,
      "v": 100
    },
    {
      "midi": 64,
      "hit": false,
      "t": 152343.75,
      "d": 187.5,
      "v": 100
    },
    {
      "midi": 64,
      "hit": false,
      "t": 152343.75,
      "d": 187.5,
      "v": 100
    },
    {
      "midi": 78,
      "hit": false,
      "t": 152437.5,
      "d": 375,
      "v": 100
    },
    {
      "midi": 52,
      "hit": false,
      "t": 152437.5,
      "d": 93.75,
      "v": 100
    },
    {
      "midi": 49,
      "hit": false,
      "t": 152437.5,
      "d": 93.75,
      "v": 100
    },
    {
      "midi": 81,
      "hit": false,
      "t": 152437.5,
      "d": 375,
      "v": 100
    },
    {
      "midi": 78,
      "hit": false,
      "t": 152437.5,
      "d": 375,
      "v": 100
    },
    {
      "midi": 52,
      "hit": false,
      "t": 152437.5,
      "d": 93.75,
      "v": 100
    },
    {
      "midi": 49,
      "hit": false,
      "t": 152437.5,
      "d": 93.75,
      "v": 100
    },
    {
      "midi": 64,
      "hit": false,
      "t": 152531.25,
      "d": 93.75,
      "v": 100
    },
    {
      "midi": 64,
      "hit": false,
      "t": 152531.25,
      "d": 93.75,
      "v": 100
    },
    {
      "midi": 73,
      "hit": false,
      "t": 152578.125,
      "d": 93.75,
      "v": 100
    },
    {
      "midi": 73,
      "hit": false,
      "t": 152578.125,
      "d": 93.75,
      "v": 100
    },
    {
      "midi": 64,
      "hit": false,
      "t": 152625,
      "d": 93.75,
      "v": 100
    },
    {
      "midi": 52,
      "hit": false,
      "t": 152625,
      "d": 93.75,
      "v": 100
    },
    {
      "midi": 49,
      "hit": false,
      "t": 152625,
      "d": 93.75,
      "v": 100
    },
    {
      "midi": 40,
      "hit": false,
      "t": 152625,
      "d": 0.78125,
      "v": 100
    },
    {
      "midi": 44,
      "hit": false,
      "t": 152625,
      "d": 0.78125,
      "v": 100
    },
    {
      "midi": 64,
      "hit": false,
      "t": 152625,
      "d": 93.75,
      "v": 100
    },
    {
      "midi": 52,
      "hit": false,
      "t": 152625,
      "d": 93.75,
      "v": 100
    },
    {
      "midi": 49,
      "hit": false,
      "t": 152625,
      "d": 93.75,
      "v": 100
    },
    {
      "midi": 64,
      "hit": false,
      "t": 152718.75,
      "d": 187.5,
      "v": 100
    },
    {
      "midi": 64,
      "hit": false,
      "t": 152718.75,
      "d": 187.5,
      "v": 100
    },
    {
      "midi": 74,
      "hit": false,
      "t": 152812.5,
      "d": 656.25,
      "v": 100
    },
    {
      "midi": 81,
      "hit": false,
      "t": 152812.5,
      "d": 656.25,
      "v": 100
    },
    {
      "midi": 74,
      "hit": false,
      "t": 152812.5,
      "d": 656.25,
      "v": 100
    },
    {
      "midi": 64,
      "hit": false,
      "t": 152906.25,
      "d": 93.75,
      "v": 100
    },
    {
      "midi": 64,
      "hit": false,
      "t": 152906.25,
      "d": 93.75,
      "v": 100
    },
    {
      "midi": 45,
      "hit": false,
      "t": 153000,
      "d": 46.875,
      "v": 100
    },
    {
      "midi": 64,
      "hit": false,
      "t": 153000,
      "d": 93.75,
      "v": 100
    },
    {
      "midi": 76,
      "hit": false,
      "t": 153000,
      "d": 93.75,
      "v": 100
    },
    {
      "midi": 36,
      "hit": false,
      "t": 153000,
      "d": 0.78125,
      "v": 100
    },
    {
      "midi": 45,
      "hit": false,
      "t": 153000,
      "d": 46.875,
      "v": 100
    },
    {
      "midi": 64,
      "hit": false,
      "t": 153000,
      "d": 93.75,
      "v": 100
    },
    {
      "midi": 76,
      "hit": false,
      "t": 153000,
      "d": 93.75,
      "v": 100
    },
    {
      "midi": 49,
      "hit": false,
      "t": 153046.875,
      "d": 140.625,
      "v": 100
    },
    {
      "midi": 49,
      "hit": false,
      "t": 153046.875,
      "d": 140.625,
      "v": 100
    },
    {
      "midi": 52,
      "hit": false,
      "t": 153093.75,
      "d": 93.75,
      "v": 100
    },
    {
      "midi": 64,
      "hit": false,
      "t": 153093.75,
      "d": 187.5,
      "v": 100
    },
    {
      "midi": 52,
      "hit": false,
      "t": 153093.75,
      "d": 93.75,
      "v": 100
    },
    {
      "midi": 64,
      "hit": false,
      "t": 153093.75,
      "d": 187.5,
      "v": 100
    },
    {
      "midi": 48,
      "hit": false,
      "t": 153187.5,
      "d": 0.78125,
      "v": 100
    },
    {
      "midi": 64,
      "hit": false,
      "t": 153281.25,
      "d": 93.75,
      "v": 100
    },
    {
      "midi": 64,
      "hit": false,
      "t": 153281.25,
      "d": 93.75,
      "v": 100
    },
    {
      "midi": 64,
      "hit": false,
      "t": 153375,
      "d": 93.75,
      "v": 100
    },
    {
      "midi": 38,
      "hit": false,
      "t": 153375,
      "d": 0.78125,
      "v": 100
    },
    {
      "midi": 64,
      "hit": false,
      "t": 153375,
      "d": 93.75,
      "v": 100
    },
    {
      "midi": 64,
      "hit": false,
      "t": 153468.75,
      "d": 187.5,
      "v": 100
    },
    {
      "midi": 47,
      "hit": false,
      "t": 153468.75,
      "d": 0.78125,
      "v": 100
    },
    {
      "midi": 64,
      "hit": false,
      "t": 153468.75,
      "d": 187.5,
      "v": 100
    },
    {
      "midi": 74,
      "hit": false,
      "t": 153562.5,
      "d": 140.625,
      "v": 100
    },
    {
      "midi": 49,
      "hit": false,
      "t": 153562.5,
      "d": 93.75,
      "v": 100
    },
    {
      "midi": 52,
      "hit": false,
      "t": 153562.5,
      "d": 93.75,
      "v": 100
    },
    {
      "midi": 74,
      "hit": false,
      "t": 153562.5,
      "d": 140.625,
      "v": 100
    },
    {
      "midi": 74,
      "hit": false,
      "t": 153562.5,
      "d": 140.625,
      "v": 100
    },
    {
      "midi": 49,
      "hit": false,
      "t": 153562.5,
      "d": 93.75,
      "v": 100
    },
    {
      "midi": 52,
      "hit": false,
      "t": 153562.5,
      "d": 93.75,
      "v": 100
    },
    {
      "midi": 64,
      "hit": false,
      "t": 153656.25,
      "d": 93.75,
      "v": 100
    },
    {
      "midi": 64,
      "hit": false,
      "t": 153656.25,
      "d": 93.75,
      "v": 100
    },
    {
      "midi": 74,
      "hit": false,
      "t": 153750,
      "d": 375,
      "v": 100
    },
    {
      "midi": 64,
      "hit": false,
      "t": 153750,
      "d": 93.75,
      "v": 100
    },
    {
      "midi": 74,
      "hit": false,
      "t": 153750,
      "d": 375,
      "v": 100
    },
    {
      "midi": 45,
      "hit": false,
      "t": 153750,
      "d": 0.78125,
      "v": 100
    },
    {
      "midi": 36,
      "hit": false,
      "t": 153750,
      "d": 0.78125,
      "v": 100
    },
    {
      "midi": 74,
      "hit": false,
      "t": 153750,
      "d": 375,
      "v": 100
    },
    {
      "midi": 64,
      "hit": false,
      "t": 153750,
      "d": 93.75,
      "v": 100
    },
    {
      "midi": 64,
      "hit": false,
      "t": 153843.75,
      "d": 187.5,
      "v": 100
    },
    {
      "midi": 64,
      "hit": false,
      "t": 153843.75,
      "d": 187.5,
      "v": 100
    },
    {
      "midi": 52,
      "hit": false,
      "t": 153937.5,
      "d": 93.75,
      "v": 100
    },
    {
      "midi": 49,
      "hit": false,
      "t": 153937.5,
      "d": 93.75,
      "v": 100
    },
    {
      "midi": 52,
      "hit": false,
      "t": 153937.5,
      "d": 93.75,
      "v": 100
    },
    {
      "midi": 49,
      "hit": false,
      "t": 153937.5,
      "d": 93.75,
      "v": 100
    },
    {
      "midi": 64,
      "hit": false,
      "t": 154031.25,
      "d": 93.75,
      "v": 100
    },
    {
      "midi": 43,
      "hit": false,
      "t": 154031.25,
      "d": 0.78125,
      "v": 100
    },
    {
      "midi": 64,
      "hit": false,
      "t": 154031.25,
      "d": 93.75,
      "v": 100
    },
    {
      "midi": 76,
      "hit": false,
      "t": 154125,
      "d": 187.5,
      "v": 100
    },
    {
      "midi": 64,
      "hit": false,
      "t": 154125,
      "d": 93.75,
      "v": 100
    },
    {
      "midi": 52,
      "hit": false,
      "t": 154125,
      "d": 93.75,
      "v": 100
    },
    {
      "midi": 49,
      "hit": false,
      "t": 154125,
      "d": 93.75,
      "v": 100
    },
    {
      "midi": 74,
      "hit": false,
      "t": 154125,
      "d": 187.5,
      "v": 100
    },
    {
      "midi": 40,
      "hit": false,
      "t": 154125,
      "d": 0.78125,
      "v": 100
    },
    {
      "midi": 76,
      "hit": false,
      "t": 154125,
      "d": 187.5,
      "v": 100
    },
    {
      "midi": 64,
      "hit": false,
      "t": 154125,
      "d": 93.75,
      "v": 100
    },
    {
      "midi": 52,
      "hit": false,
      "t": 154125,
      "d": 93.75,
      "v": 100
    },
    {
      "midi": 49,
      "hit": false,
      "t": 154125,
      "d": 93.75,
      "v": 100
    },
    {
      "midi": 64,
      "hit": false,
      "t": 154218.75,
      "d": 187.5,
      "v": 100
    },
    {
      "midi": 64,
      "hit": false,
      "t": 154218.75,
      "d": 187.5,
      "v": 100
    },
    {
      "midi": 78,
      "hit": false,
      "t": 154312.5,
      "d": 140.625,
      "v": 100
    },
    {
      "midi": 74,
      "hit": false,
      "t": 154312.5,
      "d": 140.625,
      "v": 100
    },
    {
      "midi": 41,
      "hit": false,
      "t": 154312.5,
      "d": 0.78125,
      "v": 100
    },
    {
      "midi": 36,
      "hit": false,
      "t": 154312.5,
      "d": 0.78125,
      "v": 100
    },
    {
      "midi": 78,
      "hit": false,
      "t": 154312.5,
      "d": 140.625,
      "v": 100
    },
    {
      "midi": 64,
      "hit": false,
      "t": 154406.25,
      "d": 93.75,
      "v": 100
    },
    {
      "midi": 64,
      "hit": false,
      "t": 154406.25,
      "d": 93.75,
      "v": 100
    },
    {
      "midi": 78,
      "hit": false,
      "t": 154500,
      "d": 890.625,
      "v": 100
    },
    {
      "midi": 45,
      "hit": false,
      "t": 154500,
      "d": 46.875,
      "v": 100
    },
    {
      "midi": 64,
      "hit": false,
      "t": 154500,
      "d": 93.75,
      "v": 100
    },
    {
      "midi": 74,
      "hit": false,
      "t": 154500,
      "d": 890.625,
      "v": 100
    },
    {
      "midi": 36,
      "hit": false,
      "t": 154500,
      "d": 0.78125,
      "v": 100
    },
    {
      "midi": 55,
      "hit": false,
      "t": 154500,
      "d": 0.78125,
      "v": 100
    },
    {
      "midi": 78,
      "hit": false,
      "t": 154500,
      "d": 890.625,
      "v": 100
    },
    {
      "midi": 45,
      "hit": false,
      "t": 154500,
      "d": 46.875,
      "v": 100
    },
    {
      "midi": 64,
      "hit": false,
      "t": 154500,
      "d": 93.75,
      "v": 100
    },
    {
      "midi": 49,
      "hit": false,
      "t": 154546.875,
      "d": 140.625,
      "v": 100
    },
    {
      "midi": 49,
      "hit": false,
      "t": 154546.875,
      "d": 140.625,
      "v": 100
    },
    {
      "midi": 52,
      "hit": false,
      "t": 154593.75,
      "d": 93.75,
      "v": 100
    },
    {
      "midi": 64,
      "hit": false,
      "t": 154593.75,
      "d": 187.5,
      "v": 100
    },
    {
      "midi": 52,
      "hit": false,
      "t": 154593.75,
      "d": 93.75,
      "v": 100
    },
    {
      "midi": 64,
      "hit": false,
      "t": 154593.75,
      "d": 187.5,
      "v": 100
    },
    {
      "midi": 64,
      "hit": false,
      "t": 154781.25,
      "d": 93.75,
      "v": 100
    },
    {
      "midi": 64,
      "hit": false,
      "t": 154781.25,
      "d": 93.75,
      "v": 100
    },
    {
      "midi": 64,
      "hit": false,
      "t": 154875,
      "d": 93.75,
      "v": 100
    },
    {
      "midi": 57,
      "hit": false,
      "t": 154875,
      "d": 0.78125,
      "v": 100
    },
    {
      "midi": 40,
      "hit": false,
      "t": 154875,
      "d": 0.78125,
      "v": 100
    },
    {
      "midi": 64,
      "hit": false,
      "t": 154875,
      "d": 93.75,
      "v": 100
    },
    {
      "midi": 64,
      "hit": false,
      "t": 154968.75,
      "d": 187.5,
      "v": 100
    },
    {
      "midi": 64,
      "hit": false,
      "t": 154968.75,
      "d": 187.5,
      "v": 100
    },
    {
      "midi": 49,
      "hit": false,
      "t": 155062.5,
      "d": 93.75,
      "v": 100
    },
    {
      "midi": 52,
      "hit": false,
      "t": 155062.5,
      "d": 93.75,
      "v": 100
    },
    {
      "midi": 49,
      "hit": false,
      "t": 155062.5,
      "d": 93.75,
      "v": 100
    },
    {
      "midi": 52,
      "hit": false,
      "t": 155062.5,
      "d": 93.75,
      "v": 100
    },
    {
      "midi": 64,
      "hit": false,
      "t": 155156.25,
      "d": 93.75,
      "v": 100
    },
    {
      "midi": 64,
      "hit": false,
      "t": 155156.25,
      "d": 93.75,
      "v": 100
    },
    {
      "midi": 64,
      "hit": false,
      "t": 155250,
      "d": 93.75,
      "v": 100
    },
    {
      "midi": 64,
      "hit": false,
      "t": 155250,
      "d": 93.75,
      "v": 100
    },
    {
      "midi": 64,
      "hit": false,
      "t": 155343.75,
      "d": 187.5,
      "v": 100
    },
    {
      "midi": 64,
      "hit": false,
      "t": 155343.75,
      "d": 187.5,
      "v": 100
    },
    {
      "midi": 78,
      "hit": false,
      "t": 155437.5,
      "d": 187.5,
      "v": 100
    },
    {
      "midi": 52,
      "hit": false,
      "t": 155437.5,
      "d": 93.75,
      "v": 100
    },
    {
      "midi": 49,
      "hit": false,
      "t": 155437.5,
      "d": 93.75,
      "v": 100
    },
    {
      "midi": 78,
      "hit": false,
      "t": 155437.5,
      "d": 187.5,
      "v": 100
    },
    {
      "midi": 52,
      "hit": false,
      "t": 155437.5,
      "d": 93.75,
      "v": 100
    },
    {
      "midi": 49,
      "hit": false,
      "t": 155437.5,
      "d": 93.75,
      "v": 100
    },
    {
      "midi": 64,
      "hit": false,
      "t": 155531.25,
      "d": 93.75,
      "v": 100
    },
    {
      "midi": 64,
      "hit": false,
      "t": 155531.25,
      "d": 93.75,
      "v": 100
    },
    {
      "midi": 83,
      "hit": false,
      "t": 155625,
      "d": 187.5,
      "v": 100
    },
    {
      "midi": 64,
      "hit": false,
      "t": 155625,
      "d": 93.75,
      "v": 100
    },
    {
      "midi": 52,
      "hit": false,
      "t": 155625,
      "d": 93.75,
      "v": 100
    },
    {
      "midi": 49,
      "hit": false,
      "t": 155625,
      "d": 93.75,
      "v": 100
    },
    {
      "midi": 40,
      "hit": false,
      "t": 155625,
      "d": 0.78125,
      "v": 100
    },
    {
      "midi": 83,
      "hit": false,
      "t": 155625,
      "d": 187.5,
      "v": 100
    },
    {
      "midi": 64,
      "hit": false,
      "t": 155625,
      "d": 93.75,
      "v": 100
    },
    {
      "midi": 52,
      "hit": false,
      "t": 155625,
      "d": 93.75,
      "v": 100
    },
    {
      "midi": 49,
      "hit": false,
      "t": 155625,
      "d": 93.75,
      "v": 100
    },
    {
      "midi": 64,
      "hit": false,
      "t": 155718.75,
      "d": 187.5,
      "v": 100
    },
    {
      "midi": 64,
      "hit": false,
      "t": 155718.75,
      "d": 187.5,
      "v": 100
    },
    {
      "midi": 86,
      "hit": false,
      "t": 155812.5,
      "d": 187.5,
      "v": 100
    },
    {
      "midi": 40,
      "hit": false,
      "t": 155812.5,
      "d": 0.78125,
      "v": 100
    },
    {
      "midi": 36,
      "hit": false,
      "t": 155812.5,
      "d": 0.78125,
      "v": 100
    },
    {
      "midi": 86,
      "hit": false,
      "t": 155812.5,
      "d": 187.5,
      "v": 100
    },
    {
      "midi": 64,
      "hit": false,
      "t": 155906.25,
      "d": 93.75,
      "v": 100
    },
    {
      "midi": 64,
      "hit": false,
      "t": 155906.25,
      "d": 93.75,
      "v": 100
    },
    {
      "midi": 85,
      "hit": false,
      "t": 156000,
      "d": 375,
      "v": 100
    },
    {
      "midi": 45,
      "hit": false,
      "t": 156000,
      "d": 46.875,
      "v": 100
    },
    {
      "midi": 64,
      "hit": false,
      "t": 156000,
      "d": 93.75,
      "v": 100
    },
    {
      "midi": 36,
      "hit": false,
      "t": 156000,
      "d": 0.78125,
      "v": 100
    },
    {
      "midi": 85,
      "hit": false,
      "t": 156000,
      "d": 375,
      "v": 100
    },
    {
      "midi": 45,
      "hit": false,
      "t": 156000,
      "d": 46.875,
      "v": 100
    },
    {
      "midi": 64,
      "hit": false,
      "t": 156000,
      "d": 93.75,
      "v": 100
    },
    {
      "midi": 49,
      "hit": false,
      "t": 156046.875,
      "d": 140.625,
      "v": 100
    },
    {
      "midi": 49,
      "hit": false,
      "t": 156046.875,
      "d": 140.625,
      "v": 100
    },
    {
      "midi": 52,
      "hit": false,
      "t": 156093.75,
      "d": 93.75,
      "v": 100
    },
    {
      "midi": 64,
      "hit": false,
      "t": 156093.75,
      "d": 187.5,
      "v": 100
    },
    {
      "midi": 52,
      "hit": false,
      "t": 156093.75,
      "d": 93.75,
      "v": 100
    },
    {
      "midi": 64,
      "hit": false,
      "t": 156093.75,
      "d": 187.5,
      "v": 100
    },
    {
      "midi": 64,
      "hit": false,
      "t": 156281.25,
      "d": 93.75,
      "v": 100
    },
    {
      "midi": 64,
      "hit": false,
      "t": 156281.25,
      "d": 93.75,
      "v": 100
    },
    {
      "midi": 83,
      "hit": false,
      "t": 156375,
      "d": 187.5,
      "v": 100
    },
    {
      "midi": 64,
      "hit": false,
      "t": 156375,
      "d": 93.75,
      "v": 100
    },
    {
      "midi": 40,
      "hit": false,
      "t": 156375,
      "d": 0.78125,
      "v": 100
    },
    {
      "midi": 83,
      "hit": false,
      "t": 156375,
      "d": 187.5,
      "v": 100
    },
    {
      "midi": 64,
      "hit": false,
      "t": 156375,
      "d": 93.75,
      "v": 100
    },
    {
      "midi": 64,
      "hit": false,
      "t": 156468.75,
      "d": 187.5,
      "v": 100
    },
    {
      "midi": 64,
      "hit": false,
      "t": 156468.75,
      "d": 187.5,
      "v": 100
    },
    {
      "midi": 81,
      "hit": false,
      "t": 156562.5,
      "d": 375,
      "v": 100
    },
    {
      "midi": 49,
      "hit": false,
      "t": 156562.5,
      "d": 93.75,
      "v": 100
    },
    {
      "midi": 52,
      "hit": false,
      "t": 156562.5,
      "d": 93.75,
      "v": 100
    },
    {
      "midi": 81,
      "hit": false,
      "t": 156562.5,
      "d": 375,
      "v": 100
    },
    {
      "midi": 49,
      "hit": false,
      "t": 156562.5,
      "d": 93.75,
      "v": 100
    },
    {
      "midi": 52,
      "hit": false,
      "t": 156562.5,
      "d": 93.75,
      "v": 100
    },
    {
      "midi": 64,
      "hit": false,
      "t": 156656.25,
      "d": 93.75,
      "v": 100
    },
    {
      "midi": 64,
      "hit": false,
      "t": 156656.25,
      "d": 93.75,
      "v": 100
    },
    {
      "midi": 64,
      "hit": false,
      "t": 156750,
      "d": 93.75,
      "v": 100
    },
    {
      "midi": 46,
      "hit": false,
      "t": 156750,
      "d": 0.78125,
      "v": 100
    },
    {
      "midi": 64,
      "hit": false,
      "t": 156750,
      "d": 93.75,
      "v": 100
    },
    {
      "midi": 64,
      "hit": false,
      "t": 156843.75,
      "d": 187.5,
      "v": 100
    },
    {
      "midi": 64,
      "hit": false,
      "t": 156843.75,
      "d": 187.5,
      "v": 100
    },
    {
      "midi": 79,
      "hit": false,
      "t": 156937.5,
      "d": 328.125,
      "v": 100
    },
    {
      "midi": 52,
      "hit": false,
      "t": 156937.5,
      "d": 93.75,
      "v": 100
    },
    {
      "midi": 49,
      "hit": false,
      "t": 156937.5,
      "d": 93.75,
      "v": 100
    },
    {
      "midi": 36,
      "hit": false,
      "t": 156937.5,
      "d": 0.78125,
      "v": 100
    },
    {
      "midi": 79,
      "hit": false,
      "t": 156937.5,
      "d": 328.125,
      "v": 100
    },
    {
      "midi": 52,
      "hit": false,
      "t": 156937.5,
      "d": 93.75,
      "v": 100
    },
    {
      "midi": 49,
      "hit": false,
      "t": 156937.5,
      "d": 93.75,
      "v": 100
    },
    {
      "midi": 64,
      "hit": false,
      "t": 157031.25,
      "d": 93.75,
      "v": 100
    },
    {
      "midi": 64,
      "hit": false,
      "t": 157031.25,
      "d": 93.75,
      "v": 100
    },
    {
      "midi": 64,
      "hit": false,
      "t": 157125,
      "d": 93.75,
      "v": 100
    },
    {
      "midi": 52,
      "hit": false,
      "t": 157125,
      "d": 93.75,
      "v": 100
    },
    {
      "midi": 49,
      "hit": false,
      "t": 157125,
      "d": 93.75,
      "v": 100
    },
    {
      "midi": 46,
      "hit": false,
      "t": 157125,
      "d": 0.78125,
      "v": 100
    },
    {
      "midi": 40,
      "hit": false,
      "t": 157125,
      "d": 0.78125,
      "v": 100
    },
    {
      "midi": 64,
      "hit": false,
      "t": 157125,
      "d": 93.75,
      "v": 100
    },
    {
      "midi": 52,
      "hit": false,
      "t": 157125,
      "d": 93.75,
      "v": 100
    },
    {
      "midi": 49,
      "hit": false,
      "t": 157125,
      "d": 93.75,
      "v": 100
    },
    {
      "midi": 64,
      "hit": false,
      "t": 157218.75,
      "d": 187.5,
      "v": 100
    },
    {
      "midi": 64,
      "hit": false,
      "t": 157218.75,
      "d": 187.5,
      "v": 100
    },
    {
      "midi": 79,
      "hit": false,
      "t": 157312.5,
      "d": 187.5,
      "v": 100
    },
    {
      "midi": 79,
      "hit": false,
      "t": 157312.5,
      "d": 187.5,
      "v": 100
    },
    {
      "midi": 64,
      "hit": false,
      "t": 157406.25,
      "d": 93.75,
      "v": 100
    },
    {
      "midi": 64,
      "hit": false,
      "t": 157406.25,
      "d": 93.75,
      "v": 100
    },
    {
      "midi": 83,
      "hit": false,
      "t": 157500,
      "d": 703.125,
      "v": 100
    },
    {
      "midi": 45,
      "hit": false,
      "t": 157500,
      "d": 46.875,
      "v": 100
    },
    {
      "midi": 64,
      "hit": false,
      "t": 157500,
      "d": 93.75,
      "v": 100
    },
    {
      "midi": 46,
      "hit": false,
      "t": 157500,
      "d": 0.78125,
      "v": 100
    },
    {
      "midi": 83,
      "hit": false,
      "t": 157500,
      "d": 703.125,
      "v": 100
    },
    {
      "midi": 45,
      "hit": false,
      "t": 157500,
      "d": 46.875,
      "v": 100
    },
    {
      "midi": 64,
      "hit": false,
      "t": 157500,
      "d": 93.75,
      "v": 100
    },
    {
      "midi": 49,
      "hit": false,
      "t": 157546.875,
      "d": 140.625,
      "v": 100
    },
    {
      "midi": 49,
      "hit": false,
      "t": 157546.875,
      "d": 140.625,
      "v": 100
    },
    {
      "midi": 52,
      "hit": false,
      "t": 157593.75,
      "d": 93.75,
      "v": 100
    },
    {
      "midi": 64,
      "hit": false,
      "t": 157593.75,
      "d": 187.5,
      "v": 100
    },
    {
      "midi": 52,
      "hit": false,
      "t": 157593.75,
      "d": 93.75,
      "v": 100
    },
    {
      "midi": 64,
      "hit": false,
      "t": 157593.75,
      "d": 187.5,
      "v": 100
    },
    {
      "midi": 36,
      "hit": false,
      "t": 157687.5,
      "d": 0.78125,
      "v": 100
    },
    {
      "midi": 64,
      "hit": false,
      "t": 157781.25,
      "d": 93.75,
      "v": 100
    },
    {
      "midi": 64,
      "hit": false,
      "t": 157781.25,
      "d": 93.75,
      "v": 100
    },
    {
      "midi": 64,
      "hit": false,
      "t": 157875,
      "d": 93.75,
      "v": 100
    },
    {
      "midi": 40,
      "hit": false,
      "t": 157875,
      "d": 0.78125,
      "v": 100
    },
    {
      "midi": 46,
      "hit": false,
      "t": 157875,
      "d": 0.78125,
      "v": 100
    },
    {
      "midi": 64,
      "hit": false,
      "t": 157875,
      "d": 93.75,
      "v": 100
    },
    {
      "midi": 64,
      "hit": false,
      "t": 157968.75,
      "d": 187.5,
      "v": 100
    },
    {
      "midi": 64,
      "hit": false,
      "t": 157968.75,
      "d": 187.5,
      "v": 100
    },
    {
      "midi": 49,
      "hit": false,
      "t": 158062.5,
      "d": 93.75,
      "v": 100
    },
    {
      "midi": 52,
      "hit": false,
      "t": 158062.5,
      "d": 93.75,
      "v": 100
    },
    {
      "midi": 49,
      "hit": false,
      "t": 158062.5,
      "d": 93.75,
      "v": 100
    },
    {
      "midi": 52,
      "hit": false,
      "t": 158062.5,
      "d": 93.75,
      "v": 100
    },
    {
      "midi": 64,
      "hit": false,
      "t": 158156.25,
      "d": 93.75,
      "v": 100
    },
    {
      "midi": 64,
      "hit": false,
      "t": 158156.25,
      "d": 93.75,
      "v": 100
    },
    {
      "midi": 83,
      "hit": false,
      "t": 158250,
      "d": 187.5,
      "v": 100
    },
    {
      "midi": 64,
      "hit": false,
      "t": 158250,
      "d": 93.75,
      "v": 100
    },
    {
      "midi": 83,
      "hit": false,
      "t": 158250,
      "d": 187.5,
      "v": 100
    },
    {
      "midi": 36,
      "hit": false,
      "t": 158250,
      "d": 0.78125,
      "v": 100
    },
    {
      "midi": 46,
      "hit": false,
      "t": 158250,
      "d": 0.78125,
      "v": 100
    },
    {
      "midi": 83,
      "hit": false,
      "t": 158250,
      "d": 187.5,
      "v": 100
    },
    {
      "midi": 64,
      "hit": false,
      "t": 158250,
      "d": 93.75,
      "v": 100
    },
    {
      "midi": 64,
      "hit": false,
      "t": 158343.75,
      "d": 187.5,
      "v": 100
    },
    {
      "midi": 64,
      "hit": false,
      "t": 158343.75,
      "d": 187.5,
      "v": 100
    },
    {
      "midi": 52,
      "hit": false,
      "t": 158437.5,
      "d": 93.75,
      "v": 100
    },
    {
      "midi": 49,
      "hit": false,
      "t": 158437.5,
      "d": 93.75,
      "v": 100
    },
    {
      "midi": 36,
      "hit": false,
      "t": 158437.5,
      "d": 0.78125,
      "v": 100
    },
    {
      "midi": 52,
      "hit": false,
      "t": 158437.5,
      "d": 93.75,
      "v": 100
    },
    {
      "midi": 49,
      "hit": false,
      "t": 158437.5,
      "d": 93.75,
      "v": 100
    },
    {
      "midi": 83,
      "hit": false,
      "t": 158484.375,
      "d": 140.625,
      "v": 100
    },
    {
      "midi": 83,
      "hit": false,
      "t": 158484.375,
      "d": 140.625,
      "v": 100
    },
    {
      "midi": 83,
      "hit": false,
      "t": 158484.375,
      "d": 140.625,
      "v": 100
    },
    {
      "midi": 64,
      "hit": false,
      "t": 158531.25,
      "d": 93.75,
      "v": 100
    },
    {
      "midi": 64,
      "hit": false,
      "t": 158531.25,
      "d": 93.75,
      "v": 100
    },
    {
      "midi": 64,
      "hit": false,
      "t": 158625,
      "d": 93.75,
      "v": 100
    },
    {
      "midi": 52,
      "hit": false,
      "t": 158625,
      "d": 93.75,
      "v": 100
    },
    {
      "midi": 49,
      "hit": false,
      "t": 158625,
      "d": 93.75,
      "v": 100
    },
    {
      "midi": 40,
      "hit": false,
      "t": 158625,
      "d": 0.78125,
      "v": 100
    },
    {
      "midi": 46,
      "hit": false,
      "t": 158625,
      "d": 0.78125,
      "v": 100
    },
    {
      "midi": 64,
      "hit": false,
      "t": 158625,
      "d": 93.75,
      "v": 100
    },
    {
      "midi": 52,
      "hit": false,
      "t": 158625,
      "d": 93.75,
      "v": 100
    },
    {
      "midi": 49,
      "hit": false,
      "t": 158625,
      "d": 93.75,
      "v": 100
    },
    {
      "midi": 83,
      "hit": false,
      "t": 158671.875,
      "d": 140.625,
      "v": 100
    },
    {
      "midi": 83,
      "hit": false,
      "t": 158671.875,
      "d": 140.625,
      "v": 100
    },
    {
      "midi": 83,
      "hit": false,
      "t": 158671.875,
      "d": 140.625,
      "v": 100
    },
    {
      "midi": 64,
      "hit": false,
      "t": 158718.75,
      "d": 187.5,
      "v": 100
    },
    {
      "midi": 64,
      "hit": false,
      "t": 158718.75,
      "d": 187.5,
      "v": 100
    },
    {
      "midi": 40,
      "hit": false,
      "t": 158812.5,
      "d": 0.78125,
      "v": 100
    },
    {
      "midi": 83,
      "hit": false,
      "t": 158859.375,
      "d": 140.625,
      "v": 100
    },
    {
      "midi": 83,
      "hit": false,
      "t": 158859.375,
      "d": 140.625,
      "v": 100
    },
    {
      "midi": 83,
      "hit": false,
      "t": 158859.375,
      "d": 140.625,
      "v": 100
    },
    {
      "midi": 64,
      "hit": false,
      "t": 158906.25,
      "d": 93.75,
      "v": 100
    },
    {
      "midi": 64,
      "hit": false,
      "t": 158906.25,
      "d": 93.75,
      "v": 100
    },
    {
      "midi": 85,
      "hit": false,
      "t": 159000,
      "d": 2625,
      "v": 100
    },
    {
      "midi": 62,
      "hit": false,
      "t": 159000,
      "d": 93.75,
      "v": 100
    },
    {
      "midi": 52,
      "hit": false,
      "t": 159000,
      "d": 93.75,
      "v": 100
    },
    {
      "midi": 49,
      "hit": false,
      "t": 159000,
      "d": 93.75,
      "v": 100
    },
    {
      "midi": 81,
      "hit": false,
      "t": 159000,
      "d": 2625,
      "v": 100
    },
    {
      "midi": 43,
      "hit": false,
      "t": 159000,
      "d": 0.78125,
      "v": 100
    },
    {
      "midi": 85,
      "hit": false,
      "t": 159000,
      "d": 2625,
      "v": 100
    },
    {
      "midi": 62,
      "hit": false,
      "t": 159000,
      "d": 93.75,
      "v": 100
    },
    {
      "midi": 52,
      "hit": false,
      "t": 159000,
      "d": 93.75,
      "v": 100
    },
    {
      "midi": 49,
      "hit": false,
      "t": 159000,
      "d": 93.75,
      "v": 100
    },
    {
      "midi": 62,
      "hit": false,
      "t": 159093.75,
      "d": 187.5,
      "v": 100
    },
    {
      "midi": 43,
      "hit": false,
      "t": 159093.75,
      "d": 0.78125,
      "v": 100
    },
    {
      "midi": 62,
      "hit": false,
      "t": 159093.75,
      "d": 187.5,
      "v": 100
    },
    {
      "midi": 43,
      "hit": false,
      "t": 159187.5,
      "d": 0.78125,
      "v": 100
    },
    {
      "midi": 62,
      "hit": false,
      "t": 159281.25,
      "d": 93.75,
      "v": 100
    },
    {
      "midi": 43,
      "hit": false,
      "t": 159281.25,
      "d": 0.78125,
      "v": 100
    },
    {
      "midi": 62,
      "hit": false,
      "t": 159281.25,
      "d": 93.75,
      "v": 100
    },
    {
      "midi": 61,
      "hit": false,
      "t": 159375,
      "d": 93.75,
      "v": 100
    },
    {
      "midi": 52,
      "hit": false,
      "t": 159375,
      "d": 93.75,
      "v": 100
    },
    {
      "midi": 49,
      "hit": false,
      "t": 159375,
      "d": 93.75,
      "v": 100
    },
    {
      "midi": 43,
      "hit": false,
      "t": 159375,
      "d": 0.78125,
      "v": 100
    },
    {
      "midi": 61,
      "hit": false,
      "t": 159375,
      "d": 93.75,
      "v": 100
    },
    {
      "midi": 52,
      "hit": false,
      "t": 159375,
      "d": 93.75,
      "v": 100
    },
    {
      "midi": 49,
      "hit": false,
      "t": 159375,
      "d": 93.75,
      "v": 100
    },
    {
      "midi": 61,
      "hit": false,
      "t": 159468.75,
      "d": 187.5,
      "v": 100
    },
    {
      "midi": 43,
      "hit": false,
      "t": 159468.75,
      "d": 0.78125,
      "v": 100
    },
    {
      "midi": 61,
      "hit": false,
      "t": 159468.75,
      "d": 187.5,
      "v": 100
    },
    {
      "midi": 43,
      "hit": false,
      "t": 159562.5,
      "d": 0.78125,
      "v": 100
    },
    {
      "midi": 61,
      "hit": false,
      "t": 159656.25,
      "d": 93.75,
      "v": 100
    },
    {
      "midi": 43,
      "hit": false,
      "t": 159656.25,
      "d": 0.78125,
      "v": 100
    },
    {
      "midi": 61,
      "hit": false,
      "t": 159656.25,
      "d": 93.75,
      "v": 100
    },
    {
      "midi": 61,
      "hit": false,
      "t": 159750,
      "d": 93.75,
      "v": 100
    },
    {
      "midi": 43,
      "hit": false,
      "t": 159750,
      "d": 0.78125,
      "v": 100
    },
    {
      "midi": 61,
      "hit": false,
      "t": 159750,
      "d": 93.75,
      "v": 100
    },
    {
      "midi": 61,
      "hit": false,
      "t": 159843.75,
      "d": 187.5,
      "v": 100
    },
    {
      "midi": 43,
      "hit": false,
      "t": 159843.75,
      "d": 0.78125,
      "v": 100
    },
    {
      "midi": 61,
      "hit": false,
      "t": 159843.75,
      "d": 187.5,
      "v": 100
    },
    {
      "midi": 43,
      "hit": false,
      "t": 159937.5,
      "d": 0.78125,
      "v": 100
    },
    {
      "midi": 61,
      "hit": false,
      "t": 160031.25,
      "d": 93.75,
      "v": 100
    },
    {
      "midi": 43,
      "hit": false,
      "t": 160031.25,
      "d": 0.78125,
      "v": 100
    },
    {
      "midi": 61,
      "hit": false,
      "t": 160031.25,
      "d": 93.75,
      "v": 100
    },
    {
      "midi": 61,
      "hit": false,
      "t": 160125,
      "d": 93.75,
      "v": 100
    },
    {
      "midi": 43,
      "hit": false,
      "t": 160125,
      "d": 0.78125,
      "v": 100
    },
    {
      "midi": 38,
      "hit": false,
      "t": 160125,
      "d": 0.78125,
      "v": 100
    },
    {
      "midi": 61,
      "hit": false,
      "t": 160125,
      "d": 93.75,
      "v": 100
    },
    {
      "midi": 61,
      "hit": false,
      "t": 160218.75,
      "d": 187.5,
      "v": 100
    },
    {
      "midi": 43,
      "hit": false,
      "t": 160218.75,
      "d": 0.78125,
      "v": 100
    },
    {
      "midi": 61,
      "hit": false,
      "t": 160218.75,
      "d": 187.5,
      "v": 100
    },
    {
      "midi": 43,
      "hit": false,
      "t": 160312.5,
      "d": 0.78125,
      "v": 100
    },
    {
      "midi": 61,
      "hit": false,
      "t": 160406.25,
      "d": 93.75,
      "v": 100
    },
    {
      "midi": 43,
      "hit": false,
      "t": 160406.25,
      "d": 0.78125,
      "v": 100
    },
    {
      "midi": 61,
      "hit": false,
      "t": 160406.25,
      "d": 93.75,
      "v": 100
    },
    {
      "midi": 43,
      "hit": false,
      "t": 160500,
      "d": 0.78125,
      "v": 100
    },
    {
      "midi": 38,
      "hit": false,
      "t": 160500,
      "d": 0.78125,
      "v": 100
    },
    {
      "midi": 43,
      "hit": false,
      "t": 160593.75,
      "d": 0.78125,
      "v": 100
    },
    {
      "midi": 43,
      "hit": false,
      "t": 160687.5,
      "d": 0.78125,
      "v": 100
    },
    {
      "midi": 43,
      "hit": false,
      "t": 160781.25,
      "d": 0.78125,
      "v": 100
    },
    {
      "midi": 43,
      "hit": false,
      "t": 160875,
      "d": 0.78125,
      "v": 100
    },
    {
      "midi": 40,
      "hit": false,
      "t": 160875,
      "d": 0.78125,
      "v": 100
    },
    {
      "midi": 43,
      "hit": false,
      "t": 160968.75,
      "d": 0.78125,
      "v": 100
    },
    {
      "midi": 40,
      "hit": false,
      "t": 160968.75,
      "d": 0.78125,
      "v": 100
    },
    {
      "midi": 43,
      "hit": false,
      "t": 161062.5,
      "d": 0.78125,
      "v": 100
    },
    {
      "midi": 40,
      "hit": false,
      "t": 161062.5,
      "d": 0.78125,
      "v": 100
    },
    {
      "midi": 43,
      "hit": false,
      "t": 161156.25,
      "d": 0.78125,
      "v": 100
    },
    {
      "midi": 43,
      "hit": false,
      "t": 161250,
      "d": 0.78125,
      "v": 100
    },
    {
      "midi": 38,
      "hit": false,
      "t": 161250,
      "d": 0.78125,
      "v": 100
    },
    {
      "midi": 43,
      "hit": false,
      "t": 161343.75,
      "d": 0.78125,
      "v": 100
    },
    {
      "midi": 43,
      "hit": false,
      "t": 161437.5,
      "d": 0.78125,
      "v": 100
    },
    {
      "midi": 43,
      "hit": false,
      "t": 161531.25,
      "d": 0.78125,
      "v": 100
    },
    {
      "midi": 38,
      "hit": false,
      "t": 161531.25,
      "d": 0.78125,
      "v": 100
    },
    {
      "midi": 43,
      "hit": false,
      "t": 161625,
      "d": 0.78125,
      "v": 100
    },
    {
      "midi": 38,
      "hit": false,
      "t": 161625,
      "d": 0.78125,
      "v": 100
    },
    {
      "midi": 43,
      "hit": false,
      "t": 161718.75,
      "d": 0.78125,
      "v": 100
    },
    {
      "midi": 43,
      "hit": false,
      "t": 161812.5,
      "d": 0.78125,
      "v": 100
    },
    {
      "midi": 43,
      "hit": false,
      "t": 161906.25,
      "d": 0.78125,
      "v": 100
    },
    {
      "midi": 66,
      "hit": false,
      "t": 162000,
      "d": 375,
      "v": 100
    },
    {
      "midi": 62,
      "hit": false,
      "t": 162000,
      "d": 375,
      "v": 100
    },
    {
      "midi": 78,
      "hit": false,
      "t": 162000,
      "d": 375,
      "v": 100
    },
    {
      "midi": 74,
      "hit": false,
      "t": 162000,
      "d": 375,
      "v": 100
    },
    {
      "midi": 43,
      "hit": false,
      "t": 162000,
      "d": 0.78125,
      "v": 100
    },
    {
      "midi": 41,
      "hit": false,
      "t": 162000,
      "d": 0.78125,
      "v": 100
    },
    {
      "midi": 38,
      "hit": false,
      "t": 162000,
      "d": 0.78125,
      "v": 100
    },
    {
      "midi": 66,
      "hit": false,
      "t": 162000,
      "d": 375,
      "v": 100
    },
    {
      "midi": 62,
      "hit": false,
      "t": 162000,
      "d": 375,
      "v": 100
    },
    {
      "midi": 78,
      "hit": false,
      "t": 162000,
      "d": 375,
      "v": 100
    },
    {
      "midi": 74,
      "hit": false,
      "t": 162000,
      "d": 375,
      "v": 100
    },
    {
      "midi": 45,
      "hit": false,
      "t": 162187.5,
      "d": 0.78125,
      "v": 100
    },
    {
      "midi": 48,
      "hit": false,
      "t": 162187.5,
      "d": 0.78125,
      "v": 100
    },
    {
      "midi": 38,
      "hit": false,
      "t": 162187.5,
      "d": 0.78125,
      "v": 100
    },
    {
      "midi": 43,
      "hit": false,
      "t": 162281.25,
      "d": 0.78125,
      "v": 100
    },
    {
      "midi": 47,
      "hit": false,
      "t": 162281.25,
      "d": 0.78125,
      "v": 100
    },
    {
      "midi": 38,
      "hit": false,
      "t": 162281.25,
      "d": 0.78125,
      "v": 100
    },
    {
      "midi": 41,
      "hit": false,
      "t": 162375,
      "d": 0.78125,
      "v": 100
    },
    {
      "midi": 45,
      "hit": false,
      "t": 162375,
      "d": 0.78125,
      "v": 100
    },
    {
      "midi": 38,
      "hit": false,
      "t": 162375,
      "d": 0.78125,
      "v": 100
    },
    {
      "midi": 43,
      "hit": false,
      "t": 162468.75,
      "d": 0.78125,
      "v": 100
    },
    {
      "midi": 66,
      "hit": false,
      "t": 162562.5,
      "d": 375,
      "v": 100
    },
    {
      "midi": 62,
      "hit": false,
      "t": 162562.5,
      "d": 375,
      "v": 100
    },
    {
      "midi": 78,
      "hit": false,
      "t": 162562.5,
      "d": 375,
      "v": 100
    },
    {
      "midi": 74,
      "hit": false,
      "t": 162562.5,
      "d": 375,
      "v": 100
    },
    {
      "midi": 43,
      "hit": false,
      "t": 162562.5,
      "d": 0.78125,
      "v": 100
    },
    {
      "midi": 66,
      "hit": false,
      "t": 162562.5,
      "d": 375,
      "v": 100
    },
    {
      "midi": 62,
      "hit": false,
      "t": 162562.5,
      "d": 375,
      "v": 100
    },
    {
      "midi": 78,
      "hit": false,
      "t": 162562.5,
      "d": 375,
      "v": 100
    },
    {
      "midi": 74,
      "hit": false,
      "t": 162562.5,
      "d": 375,
      "v": 100
    },
    {
      "midi": 43,
      "hit": false,
      "t": 162656.25,
      "d": 0.78125,
      "v": 100
    },
    {
      "midi": 43,
      "hit": false,
      "t": 162750,
      "d": 0.78125,
      "v": 100
    },
    {
      "midi": 38,
      "hit": false,
      "t": 162750,
      "d": 0.78125,
      "v": 100
    },
    {
      "midi": 43,
      "hit": false,
      "t": 162843.75,
      "d": 0.78125,
      "v": 100
    },
    {
      "midi": 43,
      "hit": false,
      "t": 162937.5,
      "d": 0.78125,
      "v": 100
    },
    {
      "midi": 40,
      "hit": false,
      "t": 162937.5,
      "d": 0.78125,
      "v": 100
    },
    {
      "midi": 43,
      "hit": false,
      "t": 163031.25,
      "d": 0.78125,
      "v": 100
    },
    {
      "midi": 38,
      "hit": false,
      "t": 163031.25,
      "d": 0.78125,
      "v": 100
    },
    {
      "midi": 66,
      "hit": false,
      "t": 163125,
      "d": 328.125,
      "v": 100
    },
    {
      "midi": 62,
      "hit": false,
      "t": 163125,
      "d": 328.125,
      "v": 100
    },
    {
      "midi": 78,
      "hit": false,
      "t": 163125,
      "d": 328.125,
      "v": 100
    },
    {
      "midi": 74,
      "hit": false,
      "t": 163125,
      "d": 328.125,
      "v": 100
    },
    {
      "midi": 43,
      "hit": false,
      "t": 163125,
      "d": 0.78125,
      "v": 100
    },
    {
      "midi": 40,
      "hit": false,
      "t": 163125,
      "d": 0.78125,
      "v": 100
    },
    {
      "midi": 66,
      "hit": false,
      "t": 163125,
      "d": 328.125,
      "v": 100
    },
    {
      "midi": 62,
      "hit": false,
      "t": 163125,
      "d": 328.125,
      "v": 100
    },
    {
      "midi": 78,
      "hit": false,
      "t": 163125,
      "d": 328.125,
      "v": 100
    },
    {
      "midi": 74,
      "hit": false,
      "t": 163125,
      "d": 328.125,
      "v": 100
    },
    {
      "midi": 43,
      "hit": false,
      "t": 163218.75,
      "d": 0.78125,
      "v": 100
    },
    {
      "midi": 38,
      "hit": false,
      "t": 163218.75,
      "d": 0.78125,
      "v": 100
    },
    {
      "midi": 74,
      "hit": false,
      "t": 163242.1875,
      "d": 1117.1875,
      "v": 100
    },
    {
      "midi": 43,
      "hit": false,
      "t": 163312.5,
      "d": 0.78125,
      "v": 100
    },
    {
      "midi": 43,
      "hit": false,
      "t": 163406.25,
      "d": 0.78125,
      "v": 100
    },
    {
      "midi": 66,
      "hit": false,
      "t": 163500,
      "d": 609.375,
      "v": 100
    },
    {
      "midi": 62,
      "hit": false,
      "t": 163500,
      "d": 609.375,
      "v": 100
    },
    {
      "midi": 78,
      "hit": false,
      "t": 163500,
      "d": 609.375,
      "v": 100
    },
    {
      "midi": 74,
      "hit": false,
      "t": 163500,
      "d": 609.375,
      "v": 100
    },
    {
      "midi": 43,
      "hit": false,
      "t": 163500,
      "d": 0.78125,
      "v": 100
    },
    {
      "midi": 41,
      "hit": false,
      "t": 163500,
      "d": 0.78125,
      "v": 100
    },
    {
      "midi": 38,
      "hit": false,
      "t": 163500,
      "d": 0.78125,
      "v": 100
    },
    {
      "midi": 57,
      "hit": false,
      "t": 163500,
      "d": 0.78125,
      "v": 100
    },
    {
      "midi": 66,
      "hit": false,
      "t": 163500,
      "d": 609.375,
      "v": 100
    },
    {
      "midi": 62,
      "hit": false,
      "t": 163500,
      "d": 609.375,
      "v": 100
    },
    {
      "midi": 78,
      "hit": false,
      "t": 163500,
      "d": 609.375,
      "v": 100
    },
    {
      "midi": 74,
      "hit": false,
      "t": 163500,
      "d": 609.375,
      "v": 100
    },
    {
      "midi": 45,
      "hit": false,
      "t": 163687.5,
      "d": 0.78125,
      "v": 100
    },
    {
      "midi": 48,
      "hit": false,
      "t": 163687.5,
      "d": 0.78125,
      "v": 100
    },
    {
      "midi": 38,
      "hit": false,
      "t": 163687.5,
      "d": 0.78125,
      "v": 100
    },
    {
      "midi": 43,
      "hit": false,
      "t": 163781.25,
      "d": 0.78125,
      "v": 100
    },
    {
      "midi": 47,
      "hit": false,
      "t": 163781.25,
      "d": 0.78125,
      "v": 100
    },
    {
      "midi": 38,
      "hit": false,
      "t": 163781.25,
      "d": 0.78125,
      "v": 100
    },
    {
      "midi": 41,
      "hit": false,
      "t": 163875,
      "d": 0.78125,
      "v": 100
    },
    {
      "midi": 45,
      "hit": false,
      "t": 163875,
      "d": 0.78125,
      "v": 100
    },
    {
      "midi": 38,
      "hit": false,
      "t": 163875,
      "d": 0.78125,
      "v": 100
    },
    {
      "midi": 69,
      "hit": false,
      "t": 164062.5,
      "d": 93.75,
      "v": 100
    },
    {
      "midi": 69,
      "hit": false,
      "t": 164062.5,
      "d": 93.75,
      "v": 100
    },
    {
      "midi": 69,
      "hit": false,
      "t": 164062.5,
      "d": 93.75,
      "v": 100
    },
    {
      "midi": 71,
      "hit": false,
      "t": 164156.25,
      "d": 93.75,
      "v": 100
    },
    {
      "midi": 69,
      "hit": false,
      "t": 164156.25,
      "d": 93.75,
      "v": 100
    },
    {
      "midi": 71,
      "hit": false,
      "t": 164156.25,
      "d": 93.75,
      "v": 100
    },
    {
      "midi": 74,
      "hit": false,
      "t": 164250,
      "d": 281.25,
      "v": 100
    },
    {
      "midi": 69,
      "hit": false,
      "t": 164250,
      "d": 281.25,
      "v": 100
    },
    {
      "midi": 74,
      "hit": false,
      "t": 164250,
      "d": 281.25,
      "v": 100
    },
    {
      "midi": 40,
      "hit": false,
      "t": 164437.5,
      "d": 46.875,
      "v": 100
    },
    {
      "midi": 38,
      "hit": false,
      "t": 164484.375,
      "d": 46.875,
      "v": 100
    },
    {
      "midi": 73,
      "hit": false,
      "t": 164531.25,
      "d": 281.25,
      "v": 100
    },
    {
      "midi": 37,
      "hit": false,
      "t": 164531.25,
      "d": 46.875,
      "v": 100
    },
    {
      "midi": 69,
      "hit": false,
      "t": 164531.25,
      "d": 281.25,
      "v": 100
    },
    {
      "midi": 73,
      "hit": false,
      "t": 164531.25,
      "d": 281.25,
      "v": 100
    },
    {
      "midi": 35,
      "hit": false,
      "t": 164578.125,
      "d": 46.875,
      "v": 100
    },
    {
      "midi": 36,
      "hit": false,
      "t": 164625,
      "d": 46.875,
      "v": 100
    },
    {
      "midi": 39,
      "hit": false,
      "t": 164625,
      "d": 0.78125,
      "v": 127
    },
    {
      "midi": 37,
      "hit": false,
      "t": 164671.875,
      "d": 46.875,
      "v": 100
    },
    {
      "midi": 38,
      "hit": false,
      "t": 164718.75,
      "d": 46.875,
      "v": 100
    },
    {
      "midi": 40,
      "hit": false,
      "t": 164765.625,
      "d": 46.875,
      "v": 100
    },
    {
      "midi": 74,
      "hit": false,
      "t": 164812.5,
      "d": 562.5,
      "v": 100
    },
    {
      "midi": 42,
      "hit": false,
      "t": 164812.5,
      "d": 46.875,
      "v": 100
    },
    {
      "midi": 71,
      "hit": false,
      "t": 164812.5,
      "d": 562.5,
      "v": 100
    },
    {
      "midi": 74,
      "hit": false,
      "t": 164812.5,
      "d": 562.5,
      "v": 100
    },
    {
      "midi": 43,
      "hit": false,
      "t": 164859.375,
      "d": 46.875,
      "v": 100
    },
    {
      "midi": 45,
      "hit": false,
      "t": 164906.25,
      "d": 46.875,
      "v": 100
    },
    {
      "midi": 47,
      "hit": false,
      "t": 164953.125,
      "d": 46.875,
      "v": 100
    },
    {
      "midi": 76,
      "hit": false,
      "t": 165000,
      "d": 5062.5,
      "v": 100
    },
    {
      "midi": 45,
      "hit": false,
      "t": 165000,
      "d": 46.875,
      "v": 100
    },
    {
      "midi": 64,
      "hit": false,
      "t": 165000,
      "d": 93.75,
      "v": 100
    },
    {
      "midi": 52,
      "hit": false,
      "t": 165000,
      "d": 93.75,
      "v": 100
    },
    {
      "midi": 49,
      "hit": false,
      "t": 165000,
      "d": 93.75,
      "v": 100
    },
    {
      "midi": 40,
      "hit": false,
      "t": 165000,
      "d": 140.625,
      "v": 100
    },
    {
      "midi": 36,
      "hit": false,
      "t": 165000,
      "d": 0.78125,
      "v": 100
    },
    {
      "midi": 55,
      "hit": false,
      "t": 165000,
      "d": 0.78125,
      "v": 100
    },
    {
      "midi": 88,
      "hit": false,
      "t": 165000,
      "d": 187.5,
      "v": 100
    },
    {
      "midi": 76,
      "hit": false,
      "t": 165000,
      "d": 5062.5,
      "v": 100
    },
    {
      "midi": 45,
      "hit": false,
      "t": 165000,
      "d": 46.875,
      "v": 100
    },
    {
      "midi": 64,
      "hit": false,
      "t": 165000,
      "d": 93.75,
      "v": 100
    },
    {
      "midi": 52,
      "hit": false,
      "t": 165000,
      "d": 93.75,
      "v": 100
    },
    {
      "midi": 49,
      "hit": false,
      "t": 165000,
      "d": 93.75,
      "v": 100
    },
    {
      "midi": 49,
      "hit": false,
      "t": 165046.875,
      "d": 140.625,
      "v": 100
    },
    {
      "midi": 49,
      "hit": false,
      "t": 165046.875,
      "d": 140.625,
      "v": 100
    },
    {
      "midi": 52,
      "hit": false,
      "t": 165093.75,
      "d": 93.75,
      "v": 100
    },
    {
      "midi": 64,
      "hit": false,
      "t": 165093.75,
      "d": 187.5,
      "v": 100
    },
    {
      "midi": 52,
      "hit": false,
      "t": 165093.75,
      "d": 93.75,
      "v": 100
    },
    {
      "midi": 64,
      "hit": false,
      "t": 165093.75,
      "d": 187.5,
      "v": 100
    },
    {
      "midi": 40,
      "hit": false,
      "t": 165187.5,
      "d": 140.625,
      "v": 100
    },
    {
      "midi": 36,
      "hit": false,
      "t": 165187.5,
      "d": 0.78125,
      "v": 100
    },
    {
      "midi": 64,
      "hit": false,
      "t": 165281.25,
      "d": 93.75,
      "v": 100
    },
    {
      "midi": 64,
      "hit": false,
      "t": 165281.25,
      "d": 93.75,
      "v": 100
    },
    {
      "midi": 64,
      "hit": false,
      "t": 165375,
      "d": 93.75,
      "v": 100
    },
    {
      "midi": 38,
      "hit": false,
      "t": 165375,
      "d": 140.625,
      "v": 100
    },
    {
      "midi": 40,
      "hit": false,
      "t": 165375,
      "d": 0.78125,
      "v": 100
    },
    {
      "midi": 64,
      "hit": false,
      "t": 165375,
      "d": 93.75,
      "v": 100
    },
    {
      "midi": 64,
      "hit": false,
      "t": 165468.75,
      "d": 187.5,
      "v": 100
    },
    {
      "midi": 64,
      "hit": false,
      "t": 165468.75,
      "d": 187.5,
      "v": 100
    },
    {
      "midi": 69,
      "hit": false,
      "t": 165562.5,
      "d": 93.75,
      "v": 100
    },
    {
      "midi": 49,
      "hit": false,
      "t": 165562.5,
      "d": 93.75,
      "v": 100
    },
    {
      "midi": 52,
      "hit": false,
      "t": 165562.5,
      "d": 93.75,
      "v": 100
    },
    {
      "midi": 52,
      "hit": false,
      "t": 165562.5,
      "d": 93.75,
      "v": 100
    },
    {
      "midi": 49,
      "hit": false,
      "t": 165562.5,
      "d": 93.75,
      "v": 100
    },
    {
      "midi": 40,
      "hit": false,
      "t": 165562.5,
      "d": 140.625,
      "v": 100
    },
    {
      "midi": 69,
      "hit": false,
      "t": 165562.5,
      "d": 93.75,
      "v": 100
    },
    {
      "midi": 85,
      "hit": false,
      "t": 165562.5,
      "d": 187.5,
      "v": 100
    },
    {
      "midi": 69,
      "hit": false,
      "t": 165562.5,
      "d": 93.75,
      "v": 100
    },
    {
      "midi": 49,
      "hit": false,
      "t": 165562.5,
      "d": 93.75,
      "v": 100
    },
    {
      "midi": 52,
      "hit": false,
      "t": 165562.5,
      "d": 93.75,
      "v": 100
    },
    {
      "midi": 52,
      "hit": false,
      "t": 165562.5,
      "d": 93.75,
      "v": 100
    },
    {
      "midi": 49,
      "hit": false,
      "t": 165562.5,
      "d": 93.75,
      "v": 100
    },
    {
      "midi": 71,
      "hit": false,
      "t": 165656.25,
      "d": 93.75,
      "v": 100
    },
    {
      "midi": 64,
      "hit": false,
      "t": 165656.25,
      "d": 93.75,
      "v": 100
    },
    {
      "midi": 69,
      "hit": false,
      "t": 165656.25,
      "d": 93.75,
      "v": 100
    },
    {
      "midi": 38,
      "hit": false,
      "t": 165656.25,
      "d": 0.78125,
      "v": 100
    },
    {
      "midi": 71,
      "hit": false,
      "t": 165656.25,
      "d": 93.75,
      "v": 100
    },
    {
      "midi": 64,
      "hit": false,
      "t": 165656.25,
      "d": 93.75,
      "v": 100
    },
    {
      "midi": 76,
      "hit": false,
      "t": 165750,
      "d": 281.25,
      "v": 100
    },
    {
      "midi": 64,
      "hit": false,
      "t": 165750,
      "d": 93.75,
      "v": 100
    },
    {
      "midi": 38,
      "hit": false,
      "t": 165750,
      "d": 140.625,
      "v": 100
    },
    {
      "midi": 69,
      "hit": false,
      "t": 165750,
      "d": 281.25,
      "v": 100
    },
    {
      "midi": 36,
      "hit": false,
      "t": 165750,
      "d": 0.78125,
      "v": 100
    },
    {
      "midi": 76,
      "hit": false,
      "t": 165750,
      "d": 281.25,
      "v": 100
    },
    {
      "midi": 64,
      "hit": false,
      "t": 165750,
      "d": 93.75,
      "v": 100
    },
    {
      "midi": 64,
      "hit": false,
      "t": 165843.75,
      "d": 187.5,
      "v": 100
    },
    {
      "midi": 38,
      "hit": false,
      "t": 165843.75,
      "d": 0.78125,
      "v": 100
    },
    {
      "midi": 64,
      "hit": false,
      "t": 165843.75,
      "d": 187.5,
      "v": 100
    },
    {
      "midi": 52,
      "hit": false,
      "t": 165937.5,
      "d": 93.75,
      "v": 100
    },
    {
      "midi": 49,
      "hit": false,
      "t": 165937.5,
      "d": 93.75,
      "v": 100
    },
    {
      "midi": 52,
      "hit": false,
      "t": 165937.5,
      "d": 187.5,
      "v": 100
    },
    {
      "midi": 49,
      "hit": false,
      "t": 165937.5,
      "d": 187.5,
      "v": 100
    },
    {
      "midi": 40,
      "hit": false,
      "t": 165937.5,
      "d": 140.625,
      "v": 100
    },
    {
      "midi": 36,
      "hit": false,
      "t": 165937.5,
      "d": 0.78125,
      "v": 100
    },
    {
      "midi": 52,
      "hit": false,
      "t": 165937.5,
      "d": 93.75,
      "v": 100
    },
    {
      "midi": 49,
      "hit": false,
      "t": 165937.5,
      "d": 93.75,
      "v": 100
    },
    {
      "midi": 52,
      "hit": false,
      "t": 165937.5,
      "d": 187.5,
      "v": 100
    },
    {
      "midi": 49,
      "hit": false,
      "t": 165937.5,
      "d": 187.5,
      "v": 100
    },
    {
      "midi": 74,
      "hit": false,
      "t": 166031.25,
      "d": 281.25,
      "v": 100
    },
    {
      "midi": 64,
      "hit": false,
      "t": 166031.25,
      "d": 93.75,
      "v": 100
    },
    {
      "midi": 69,
      "hit": false,
      "t": 166031.25,
      "d": 281.25,
      "v": 100
    },
    {
      "midi": 74,
      "hit": false,
      "t": 166031.25,
      "d": 281.25,
      "v": 100
    },
    {
      "midi": 64,
      "hit": false,
      "t": 166031.25,
      "d": 93.75,
      "v": 100
    },
    {
      "midi": 64,
      "hit": false,
      "t": 166125,
      "d": 93.75,
      "v": 100
    },
    {
      "midi": 52,
      "hit": false,
      "t": 166125,
      "d": 93.75,
      "v": 100
    },
    {
      "midi": 49,
      "hit": false,
      "t": 166125,
      "d": 93.75,
      "v": 100
    },
    {
      "midi": 38,
      "hit": false,
      "t": 166125,
      "d": 140.625,
      "v": 100
    },
    {
      "midi": 40,
      "hit": false,
      "t": 166125,
      "d": 0.78125,
      "v": 100
    },
    {
      "midi": 64,
      "hit": false,
      "t": 166125,
      "d": 93.75,
      "v": 100
    },
    {
      "midi": 52,
      "hit": false,
      "t": 166125,
      "d": 93.75,
      "v": 100
    },
    {
      "midi": 49,
      "hit": false,
      "t": 166125,
      "d": 93.75,
      "v": 100
    },
    {
      "midi": 64,
      "hit": false,
      "t": 166218.75,
      "d": 187.5,
      "v": 100
    },
    {
      "midi": 64,
      "hit": false,
      "t": 166218.75,
      "d": 187.5,
      "v": 100
    },
    {
      "midi": 76,
      "hit": false,
      "t": 166312.5,
      "d": 562.5,
      "v": 100
    },
    {
      "midi": 40,
      "hit": false,
      "t": 166312.5,
      "d": 140.625,
      "v": 100
    },
    {
      "midi": 67,
      "hit": false,
      "t": 166312.5,
      "d": 562.5,
      "v": 100
    },
    {
      "midi": 76,
      "hit": false,
      "t": 166312.5,
      "d": 562.5,
      "v": 100
    },
    {
      "midi": 64,
      "hit": false,
      "t": 166406.25,
      "d": 93.75,
      "v": 100
    },
    {
      "midi": 64,
      "hit": false,
      "t": 166406.25,
      "d": 93.75,
      "v": 100
    },
    {
      "midi": 45,
      "hit": false,
      "t": 166500,
      "d": 46.875,
      "v": 100
    },
    {
      "midi": 64,
      "hit": false,
      "t": 166500,
      "d": 93.75,
      "v": 100
    },
    {
      "midi": 49,
      "hit": false,
      "t": 166500,
      "d": 93.75,
      "v": 100
    },
    {
      "midi": 45,
      "hit": false,
      "t": 166500,
      "d": 93.75,
      "v": 100
    },
    {
      "midi": 42,
      "hit": false,
      "t": 166500,
      "d": 140.625,
      "v": 100
    },
    {
      "midi": 36,
      "hit": false,
      "t": 166500,
      "d": 0.78125,
      "v": 100
    },
    {
      "midi": 86,
      "hit": false,
      "t": 166500,
      "d": 187.5,
      "v": 100
    },
    {
      "midi": 45,
      "hit": false,
      "t": 166500,
      "d": 46.875,
      "v": 100
    },
    {
      "midi": 64,
      "hit": false,
      "t": 166500,
      "d": 93.75,
      "v": 100
    },
    {
      "midi": 49,
      "hit": false,
      "t": 166500,
      "d": 93.75,
      "v": 100
    },
    {
      "midi": 45,
      "hit": false,
      "t": 166500,
      "d": 93.75,
      "v": 100
    },
    {
      "midi": 49,
      "hit": false,
      "t": 166546.875,
      "d": 140.625,
      "v": 100
    },
    {
      "midi": 49,
      "hit": false,
      "t": 166546.875,
      "d": 140.625,
      "v": 100
    },
    {
      "midi": 52,
      "hit": false,
      "t": 166593.75,
      "d": 93.75,
      "v": 100
    },
    {
      "midi": 64,
      "hit": false,
      "t": 166593.75,
      "d": 187.5,
      "v": 100
    },
    {
      "midi": 52,
      "hit": false,
      "t": 166593.75,
      "d": 93.75,
      "v": 100
    },
    {
      "midi": 64,
      "hit": false,
      "t": 166593.75,
      "d": 187.5,
      "v": 100
    },
    {
      "midi": 42,
      "hit": false,
      "t": 166687.5,
      "d": 140.625,
      "v": 100
    },
    {
      "midi": 36,
      "hit": false,
      "t": 166687.5,
      "d": 0.78125,
      "v": 100
    },
    {
      "midi": 64,
      "hit": false,
      "t": 166781.25,
      "d": 93.75,
      "v": 100
    },
    {
      "midi": 64,
      "hit": false,
      "t": 166781.25,
      "d": 93.75,
      "v": 100
    },
    {
      "midi": 64,
      "hit": false,
      "t": 166875,
      "d": 93.75,
      "v": 100
    },
    {
      "midi": 40,
      "hit": false,
      "t": 166875,
      "d": 140.625,
      "v": 100
    },
    {
      "midi": 40,
      "hit": false,
      "t": 166875,
      "d": 0.78125,
      "v": 100
    },
    {
      "midi": 64,
      "hit": false,
      "t": 166875,
      "d": 93.75,
      "v": 100
    },
    {
      "midi": 64,
      "hit": false,
      "t": 166968.75,
      "d": 187.5,
      "v": 100
    },
    {
      "midi": 64,
      "hit": false,
      "t": 166968.75,
      "d": 187.5,
      "v": 100
    },
    {
      "midi": 49,
      "hit": false,
      "t": 167062.5,
      "d": 93.75,
      "v": 100
    },
    {
      "midi": 52,
      "hit": false,
      "t": 167062.5,
      "d": 93.75,
      "v": 100
    },
    {
      "midi": 49,
      "hit": false,
      "t": 167062.5,
      "d": 93.75,
      "v": 100
    },
    {
      "midi": 45,
      "hit": false,
      "t": 167062.5,
      "d": 93.75,
      "v": 100
    },
    {
      "midi": 42,
      "hit": false,
      "t": 167062.5,
      "d": 140.625,
      "v": 100
    },
    {
      "midi": 85,
      "hit": false,
      "t": 167062.5,
      "d": 187.5,
      "v": 100
    },
    {
      "midi": 49,
      "hit": false,
      "t": 167062.5,
      "d": 93.75,
      "v": 100
    },
    {
      "midi": 52,
      "hit": false,
      "t": 167062.5,
      "d": 93.75,
      "v": 100
    },
    {
      "midi": 49,
      "hit": false,
      "t": 167062.5,
      "d": 93.75,
      "v": 100
    },
    {
      "midi": 45,
      "hit": false,
      "t": 167062.5,
      "d": 93.75,
      "v": 100
    },
    {
      "midi": 64,
      "hit": false,
      "t": 167156.25,
      "d": 93.75,
      "v": 100
    },
    {
      "midi": 38,
      "hit": false,
      "t": 167156.25,
      "d": 0.78125,
      "v": 100
    },
    {
      "midi": 64,
      "hit": false,
      "t": 167156.25,
      "d": 93.75,
      "v": 100
    },
    {
      "midi": 64,
      "hit": false,
      "t": 167250,
      "d": 93.75,
      "v": 100
    },
    {
      "midi": 40,
      "hit": false,
      "t": 167250,
      "d": 140.625,
      "v": 100
    },
    {
      "midi": 36,
      "hit": false,
      "t": 167250,
      "d": 0.78125,
      "v": 100
    },
    {
      "midi": 64,
      "hit": false,
      "t": 167250,
      "d": 93.75,
      "v": 100
    },
    {
      "midi": 64,
      "hit": false,
      "t": 167343.75,
      "d": 187.5,
      "v": 100
    },
    {
      "midi": 38,
      "hit": false,
      "t": 167343.75,
      "d": 0.78125,
      "v": 100
    },
    {
      "midi": 64,
      "hit": false,
      "t": 167343.75,
      "d": 187.5,
      "v": 100
    },
    {
      "midi": 73,
      "hit": false,
      "t": 167437.5,
      "d": 187.5,
      "v": 100
    },
    {
      "midi": 52,
      "hit": false,
      "t": 167437.5,
      "d": 93.75,
      "v": 100
    },
    {
      "midi": 49,
      "hit": false,
      "t": 167437.5,
      "d": 93.75,
      "v": 100
    },
    {
      "midi": 49,
      "hit": false,
      "t": 167437.5,
      "d": 187.5,
      "v": 100
    },
    {
      "midi": 45,
      "hit": false,
      "t": 167437.5,
      "d": 187.5,
      "v": 100
    },
    {
      "midi": 42,
      "hit": false,
      "t": 167437.5,
      "d": 140.625,
      "v": 100
    },
    {
      "midi": 36,
      "hit": false,
      "t": 167437.5,
      "d": 0.78125,
      "v": 100
    },
    {
      "midi": 73,
      "hit": false,
      "t": 167437.5,
      "d": 187.5,
      "v": 100
    },
    {
      "midi": 52,
      "hit": false,
      "t": 167437.5,
      "d": 93.75,
      "v": 100
    },
    {
      "midi": 49,
      "hit": false,
      "t": 167437.5,
      "d": 93.75,
      "v": 100
    },
    {
      "midi": 49,
      "hit": false,
      "t": 167437.5,
      "d": 187.5,
      "v": 100
    },
    {
      "midi": 45,
      "hit": false,
      "t": 167437.5,
      "d": 187.5,
      "v": 100
    },
    {
      "midi": 64,
      "hit": false,
      "t": 167531.25,
      "d": 93.75,
      "v": 100
    },
    {
      "midi": 64,
      "hit": false,
      "t": 167531.25,
      "d": 93.75,
      "v": 100
    },
    {
      "midi": 74,
      "hit": false,
      "t": 167625,
      "d": 187.5,
      "v": 100
    },
    {
      "midi": 64,
      "hit": false,
      "t": 167625,
      "d": 93.75,
      "v": 100
    },
    {
      "midi": 52,
      "hit": false,
      "t": 167625,
      "d": 93.75,
      "v": 100
    },
    {
      "midi": 49,
      "hit": false,
      "t": 167625,
      "d": 93.75,
      "v": 100
    },
    {
      "midi": 40,
      "hit": false,
      "t": 167625,
      "d": 140.625,
      "v": 100
    },
    {
      "midi": 40,
      "hit": false,
      "t": 167625,
      "d": 0.78125,
      "v": 100
    },
    {
      "midi": 55,
      "hit": false,
      "t": 167625,
      "d": 0.78125,
      "v": 100
    },
    {
      "midi": 74,
      "hit": false,
      "t": 167625,
      "d": 187.5,
      "v": 100
    },
    {
      "midi": 64,
      "hit": false,
      "t": 167625,
      "d": 93.75,
      "v": 100
    },
    {
      "midi": 52,
      "hit": false,
      "t": 167625,
      "d": 93.75,
      "v": 100
    },
    {
      "midi": 49,
      "hit": false,
      "t": 167625,
      "d": 93.75,
      "v": 100
    },
    {
      "midi": 64,
      "hit": false,
      "t": 167718.75,
      "d": 187.5,
      "v": 100
    },
    {
      "midi": 64,
      "hit": false,
      "t": 167718.75,
      "d": 187.5,
      "v": 100
    },
    {
      "midi": 76,
      "hit": false,
      "t": 167812.5,
      "d": 187.5,
      "v": 100
    },
    {
      "midi": 42,
      "hit": false,
      "t": 167812.5,
      "d": 140.625,
      "v": 100
    },
    {
      "midi": 76,
      "hit": false,
      "t": 167812.5,
      "d": 187.5,
      "v": 100
    },
    {
      "midi": 64,
      "hit": false,
      "t": 167906.25,
      "d": 93.75,
      "v": 100
    },
    {
      "midi": 64,
      "hit": false,
      "t": 167906.25,
      "d": 93.75,
      "v": 100
    },
    {
      "midi": 81,
      "hit": false,
      "t": 168000,
      "d": 515.625,
      "v": 100
    },
    {
      "midi": 45,
      "hit": false,
      "t": 168000,
      "d": 46.875,
      "v": 100
    },
    {
      "midi": 64,
      "hit": false,
      "t": 168000,
      "d": 93.75,
      "v": 100
    },
    {
      "midi": 52,
      "hit": false,
      "t": 168000,
      "d": 93.75,
      "v": 100
    },
    {
      "midi": 49,
      "hit": false,
      "t": 168000,
      "d": 93.75,
      "v": 100
    },
    {
      "midi": 43,
      "hit": false,
      "t": 168000,
      "d": 140.625,
      "v": 100
    },
    {
      "midi": 36,
      "hit": false,
      "t": 168000,
      "d": 0.78125,
      "v": 100
    },
    {
      "midi": 55,
      "hit": false,
      "t": 168000,
      "d": 0.78125,
      "v": 100
    },
    {
      "midi": 88,
      "hit": false,
      "t": 168000,
      "d": 187.5,
      "v": 100
    },
    {
      "midi": 81,
      "hit": false,
      "t": 168000,
      "d": 515.625,
      "v": 100
    },
    {
      "midi": 45,
      "hit": false,
      "t": 168000,
      "d": 46.875,
      "v": 100
    },
    {
      "midi": 64,
      "hit": false,
      "t": 168000,
      "d": 93.75,
      "v": 100
    },
    {
      "midi": 52,
      "hit": false,
      "t": 168000,
      "d": 93.75,
      "v": 100
    },
    {
      "midi": 49,
      "hit": false,
      "t": 168000,
      "d": 93.75,
      "v": 100
    },
    {
      "midi": 49,
      "hit": false,
      "t": 168046.875,
      "d": 140.625,
      "v": 100
    },
    {
      "midi": 49,
      "hit": false,
      "t": 168046.875,
      "d": 140.625,
      "v": 100
    },
    {
      "midi": 52,
      "hit": false,
      "t": 168093.75,
      "d": 93.75,
      "v": 100
    },
    {
      "midi": 64,
      "hit": false,
      "t": 168093.75,
      "d": 187.5,
      "v": 100
    },
    {
      "midi": 52,
      "hit": false,
      "t": 168093.75,
      "d": 93.75,
      "v": 100
    },
    {
      "midi": 64,
      "hit": false,
      "t": 168093.75,
      "d": 187.5,
      "v": 100
    },
    {
      "midi": 43,
      "hit": false,
      "t": 168187.5,
      "d": 140.625,
      "v": 100
    },
    {
      "midi": 36,
      "hit": false,
      "t": 168187.5,
      "d": 0.78125,
      "v": 100
    },
    {
      "midi": 64,
      "hit": false,
      "t": 168281.25,
      "d": 93.75,
      "v": 100
    },
    {
      "midi": 64,
      "hit": false,
      "t": 168281.25,
      "d": 93.75,
      "v": 100
    },
    {
      "midi": 64,
      "hit": false,
      "t": 168375,
      "d": 93.75,
      "v": 100
    },
    {
      "midi": 45,
      "hit": false,
      "t": 168375,
      "d": 140.625,
      "v": 100
    },
    {
      "midi": 40,
      "hit": false,
      "t": 168375,
      "d": 0.78125,
      "v": 100
    },
    {
      "midi": 64,
      "hit": false,
      "t": 168375,
      "d": 93.75,
      "v": 100
    },
    {
      "midi": 64,
      "hit": false,
      "t": 168468.75,
      "d": 187.5,
      "v": 100
    },
    {
      "midi": 64,
      "hit": false,
      "t": 168468.75,
      "d": 187.5,
      "v": 100
    },
    {
      "midi": 81,
      "hit": false,
      "t": 168562.5,
      "d": 187.5,
      "v": 100
    },
    {
      "midi": 49,
      "hit": false,
      "t": 168562.5,
      "d": 93.75,
      "v": 100
    },
    {
      "midi": 52,
      "hit": false,
      "t": 168562.5,
      "d": 93.75,
      "v": 100
    },
    {
      "midi": 52,
      "hit": false,
      "t": 168562.5,
      "d": 93.75,
      "v": 100
    },
    {
      "midi": 49,
      "hit": false,
      "t": 168562.5,
      "d": 93.75,
      "v": 100
    },
    {
      "midi": 43,
      "hit": false,
      "t": 168562.5,
      "d": 140.625,
      "v": 100
    },
    {
      "midi": 81,
      "hit": false,
      "t": 168562.5,
      "d": 187.5,
      "v": 100
    },
    {
      "midi": 49,
      "hit": false,
      "t": 168562.5,
      "d": 93.75,
      "v": 100
    },
    {
      "midi": 52,
      "hit": false,
      "t": 168562.5,
      "d": 93.75,
      "v": 100
    },
    {
      "midi": 52,
      "hit": false,
      "t": 168562.5,
      "d": 93.75,
      "v": 100
    },
    {
      "midi": 49,
      "hit": false,
      "t": 168562.5,
      "d": 93.75,
      "v": 100
    },
    {
      "midi": 64,
      "hit": false,
      "t": 168656.25,
      "d": 93.75,
      "v": 100
    },
    {
      "midi": 38,
      "hit": false,
      "t": 168656.25,
      "d": 0.78125,
      "v": 100
    },
    {
      "midi": 64,
      "hit": false,
      "t": 168656.25,
      "d": 93.75,
      "v": 100
    },
    {
      "midi": 79,
      "hit": false,
      "t": 168750,
      "d": 187.5,
      "v": 100
    },
    {
      "midi": 64,
      "hit": false,
      "t": 168750,
      "d": 93.75,
      "v": 100
    },
    {
      "midi": 45,
      "hit": false,
      "t": 168750,
      "d": 140.625,
      "v": 100
    },
    {
      "midi": 36,
      "hit": false,
      "t": 168750,
      "d": 0.78125,
      "v": 100
    },
    {
      "midi": 79,
      "hit": false,
      "t": 168750,
      "d": 187.5,
      "v": 100
    },
    {
      "midi": 64,
      "hit": false,
      "t": 168750,
      "d": 93.75,
      "v": 100
    },
    {
      "midi": 64,
      "hit": false,
      "t": 168843.75,
      "d": 187.5,
      "v": 100
    },
    {
      "midi": 38,
      "hit": false,
      "t": 168843.75,
      "d": 0.78125,
      "v": 100
    },
    {
      "midi": 64,
      "hit": false,
      "t": 168843.75,
      "d": 187.5,
      "v": 100
    },
    {
      "midi": 78,
      "hit": false,
      "t": 168937.5,
      "d": 375,
      "v": 100
    },
    {
      "midi": 52,
      "hit": false,
      "t": 168937.5,
      "d": 93.75,
      "v": 100
    },
    {
      "midi": 49,
      "hit": false,
      "t": 168937.5,
      "d": 93.75,
      "v": 100
    },
    {
      "midi": 52,
      "hit": false,
      "t": 168937.5,
      "d": 187.5,
      "v": 100
    },
    {
      "midi": 49,
      "hit": false,
      "t": 168937.5,
      "d": 187.5,
      "v": 100
    },
    {
      "midi": 47,
      "hit": false,
      "t": 168937.5,
      "d": 140.625,
      "v": 100
    },
    {
      "midi": 36,
      "hit": false,
      "t": 168937.5,
      "d": 0.78125,
      "v": 100
    },
    {
      "midi": 78,
      "hit": false,
      "t": 168937.5,
      "d": 375,
      "v": 100
    },
    {
      "midi": 52,
      "hit": false,
      "t": 168937.5,
      "d": 93.75,
      "v": 100
    },
    {
      "midi": 49,
      "hit": false,
      "t": 168937.5,
      "d": 93.75,
      "v": 100
    },
    {
      "midi": 52,
      "hit": false,
      "t": 168937.5,
      "d": 187.5,
      "v": 100
    },
    {
      "midi": 49,
      "hit": false,
      "t": 168937.5,
      "d": 187.5,
      "v": 100
    },
    {
      "midi": 64,
      "hit": false,
      "t": 169031.25,
      "d": 93.75,
      "v": 100
    },
    {
      "midi": 64,
      "hit": false,
      "t": 169031.25,
      "d": 93.75,
      "v": 100
    },
    {
      "midi": 64,
      "hit": false,
      "t": 169125,
      "d": 93.75,
      "v": 100
    },
    {
      "midi": 52,
      "hit": false,
      "t": 169125,
      "d": 93.75,
      "v": 100
    },
    {
      "midi": 49,
      "hit": false,
      "t": 169125,
      "d": 93.75,
      "v": 100
    },
    {
      "midi": 45,
      "hit": false,
      "t": 169125,
      "d": 140.625,
      "v": 100
    },
    {
      "midi": 40,
      "hit": false,
      "t": 169125,
      "d": 0.78125,
      "v": 100
    },
    {
      "midi": 64,
      "hit": false,
      "t": 169125,
      "d": 93.75,
      "v": 100
    },
    {
      "midi": 52,
      "hit": false,
      "t": 169125,
      "d": 93.75,
      "v": 100
    },
    {
      "midi": 49,
      "hit": false,
      "t": 169125,
      "d": 93.75,
      "v": 100
    },
    {
      "midi": 64,
      "hit": false,
      "t": 169218.75,
      "d": 187.5,
      "v": 100
    },
    {
      "midi": 64,
      "hit": false,
      "t": 169218.75,
      "d": 187.5,
      "v": 100
    },
    {
      "midi": 74,
      "hit": false,
      "t": 169312.5,
      "d": 656.25,
      "v": 100
    },
    {
      "midi": 43,
      "hit": false,
      "t": 169312.5,
      "d": 140.625,
      "v": 100
    },
    {
      "midi": 74,
      "hit": false,
      "t": 169312.5,
      "d": 656.25,
      "v": 100
    },
    {
      "midi": 64,
      "hit": false,
      "t": 169406.25,
      "d": 93.75,
      "v": 100
    },
    {
      "midi": 64,
      "hit": false,
      "t": 169406.25,
      "d": 93.75,
      "v": 100
    },
    {
      "midi": 45,
      "hit": false,
      "t": 169500,
      "d": 46.875,
      "v": 100
    },
    {
      "midi": 64,
      "hit": false,
      "t": 169500,
      "d": 93.75,
      "v": 100
    },
    {
      "midi": 52,
      "hit": false,
      "t": 169500,
      "d": 93.75,
      "v": 100
    },
    {
      "midi": 49,
      "hit": false,
      "t": 169500,
      "d": 93.75,
      "v": 100
    },
    {
      "midi": 43,
      "hit": false,
      "t": 169500,
      "d": 140.625,
      "v": 100
    },
    {
      "midi": 36,
      "hit": false,
      "t": 169500,
      "d": 0.78125,
      "v": 100
    },
    {
      "midi": 45,
      "hit": false,
      "t": 169500,
      "d": 46.875,
      "v": 100
    },
    {
      "midi": 64,
      "hit": false,
      "t": 169500,
      "d": 93.75,
      "v": 100
    },
    {
      "midi": 52,
      "hit": false,
      "t": 169500,
      "d": 93.75,
      "v": 100
    },
    {
      "midi": 49,
      "hit": false,
      "t": 169500,
      "d": 93.75,
      "v": 100
    },
    {
      "midi": 49,
      "hit": false,
      "t": 169546.875,
      "d": 140.625,
      "v": 100
    },
    {
      "midi": 49,
      "hit": false,
      "t": 169546.875,
      "d": 140.625,
      "v": 100
    },
    {
      "midi": 52,
      "hit": false,
      "t": 169593.75,
      "d": 93.75,
      "v": 100
    },
    {
      "midi": 64,
      "hit": false,
      "t": 169593.75,
      "d": 187.5,
      "v": 100
    },
    {
      "midi": 52,
      "hit": false,
      "t": 169593.75,
      "d": 93.75,
      "v": 100
    },
    {
      "midi": 64,
      "hit": false,
      "t": 169593.75,
      "d": 187.5,
      "v": 100
    },
    {
      "midi": 43,
      "hit": false,
      "t": 169687.5,
      "d": 515.625,
      "v": 100
    },
    {
      "midi": 36,
      "hit": false,
      "t": 169687.5,
      "d": 0.78125,
      "v": 100
    },
    {
      "midi": 64,
      "hit": false,
      "t": 169781.25,
      "d": 93.75,
      "v": 100
    },
    {
      "midi": 64,
      "hit": false,
      "t": 169781.25,
      "d": 93.75,
      "v": 100
    },
    {
      "midi": 64,
      "hit": false,
      "t": 169875,
      "d": 93.75,
      "v": 100
    },
    {
      "midi": 40,
      "hit": false,
      "t": 169875,
      "d": 0.78125,
      "v": 100
    },
    {
      "midi": 64,
      "hit": false,
      "t": 169875,
      "d": 93.75,
      "v": 100
    },
    {
      "midi": 64,
      "hit": false,
      "t": 169968.75,
      "d": 187.5,
      "v": 100
    },
    {
      "midi": 64,
      "hit": false,
      "t": 169968.75,
      "d": 187.5,
      "v": 100
    },
    {
      "midi": 74,
      "hit": false,
      "t": 170062.5,
      "d": 140.625,
      "v": 100
    },
    {
      "midi": 74,
      "hit": false,
      "t": 170062.5,
      "d": 375,
      "v": 100
    },
    {
      "midi": 49,
      "hit": false,
      "t": 170062.5,
      "d": 93.75,
      "v": 100
    },
    {
      "midi": 52,
      "hit": false,
      "t": 170062.5,
      "d": 93.75,
      "v": 100
    },
    {
      "midi": 52,
      "hit": false,
      "t": 170062.5,
      "d": 93.75,
      "v": 100
    },
    {
      "midi": 49,
      "hit": false,
      "t": 170062.5,
      "d": 93.75,
      "v": 100
    },
    {
      "midi": 74,
      "hit": false,
      "t": 170062.5,
      "d": 140.625,
      "v": 100
    },
    {
      "midi": 74,
      "hit": false,
      "t": 170062.5,
      "d": 140.625,
      "v": 100
    },
    {
      "midi": 74,
      "hit": false,
      "t": 170062.5,
      "d": 375,
      "v": 100
    },
    {
      "midi": 49,
      "hit": false,
      "t": 170062.5,
      "d": 93.75,
      "v": 100
    },
    {
      "midi": 52,
      "hit": false,
      "t": 170062.5,
      "d": 93.75,
      "v": 100
    },
    {
      "midi": 52,
      "hit": false,
      "t": 170062.5,
      "d": 93.75,
      "v": 100
    },
    {
      "midi": 49,
      "hit": false,
      "t": 170062.5,
      "d": 93.75,
      "v": 100
    },
    {
      "midi": 64,
      "hit": false,
      "t": 170156.25,
      "d": 93.75,
      "v": 100
    },
    {
      "midi": 38,
      "hit": false,
      "t": 170156.25,
      "d": 0.78125,
      "v": 100
    },
    {
      "midi": 64,
      "hit": false,
      "t": 170156.25,
      "d": 93.75,
      "v": 100
    },
    {
      "midi": 74,
      "hit": false,
      "t": 170250,
      "d": 375,
      "v": 100
    },
    {
      "midi": 64,
      "hit": false,
      "t": 170250,
      "d": 93.75,
      "v": 100
    },
    {
      "midi": 43,
      "hit": false,
      "t": 170250,
      "d": 140.625,
      "v": 100
    },
    {
      "midi": 74,
      "hit": false,
      "t": 170250,
      "d": 375,
      "v": 100
    },
    {
      "midi": 36,
      "hit": false,
      "t": 170250,
      "d": 0.78125,
      "v": 100
    },
    {
      "midi": 88,
      "hit": false,
      "t": 170250,
      "d": 187.5,
      "v": 100
    },
    {
      "midi": 74,
      "hit": false,
      "t": 170250,
      "d": 375,
      "v": 100
    },
    {
      "midi": 64,
      "hit": false,
      "t": 170250,
      "d": 93.75,
      "v": 100
    },
    {
      "midi": 64,
      "hit": false,
      "t": 170343.75,
      "d": 187.5,
      "v": 100
    },
    {
      "midi": 38,
      "hit": false,
      "t": 170343.75,
      "d": 0.78125,
      "v": 100
    },
    {
      "midi": 64,
      "hit": false,
      "t": 170343.75,
      "d": 187.5,
      "v": 100
    },
    {
      "midi": 73,
      "hit": false,
      "t": 170437.5,
      "d": 3562.5,
      "v": 100
    },
    {
      "midi": 52,
      "hit": false,
      "t": 170437.5,
      "d": 93.75,
      "v": 100
    },
    {
      "midi": 49,
      "hit": false,
      "t": 170437.5,
      "d": 93.75,
      "v": 100
    },
    {
      "midi": 52,
      "hit": false,
      "t": 170437.5,
      "d": 187.5,
      "v": 100
    },
    {
      "midi": 49,
      "hit": false,
      "t": 170437.5,
      "d": 187.5,
      "v": 100
    },
    {
      "midi": 43,
      "hit": false,
      "t": 170437.5,
      "d": 515.625,
      "v": 100
    },
    {
      "midi": 36,
      "hit": false,
      "t": 170437.5,
      "d": 0.78125,
      "v": 100
    },
    {
      "midi": 86,
      "hit": false,
      "t": 170437.5,
      "d": 187.5,
      "v": 100
    },
    {
      "midi": 73,
      "hit": false,
      "t": 170437.5,
      "d": 3562.5,
      "v": 100
    },
    {
      "midi": 52,
      "hit": false,
      "t": 170437.5,
      "d": 93.75,
      "v": 100
    },
    {
      "midi": 49,
      "hit": false,
      "t": 170437.5,
      "d": 93.75,
      "v": 100
    },
    {
      "midi": 52,
      "hit": false,
      "t": 170437.5,
      "d": 187.5,
      "v": 100
    },
    {
      "midi": 49,
      "hit": false,
      "t": 170437.5,
      "d": 187.5,
      "v": 100
    },
    {
      "midi": 64,
      "hit": false,
      "t": 170531.25,
      "d": 93.75,
      "v": 100
    },
    {
      "midi": 64,
      "hit": false,
      "t": 170531.25,
      "d": 93.75,
      "v": 100
    },
    {
      "midi": 76,
      "hit": false,
      "t": 170625,
      "d": 187.5,
      "v": 100
    },
    {
      "midi": 64,
      "hit": false,
      "t": 170625,
      "d": 93.75,
      "v": 100
    },
    {
      "midi": 52,
      "hit": false,
      "t": 170625,
      "d": 93.75,
      "v": 100
    },
    {
      "midi": 49,
      "hit": false,
      "t": 170625,
      "d": 93.75,
      "v": 100
    },
    {
      "midi": 74,
      "hit": false,
      "t": 170625,
      "d": 187.5,
      "v": 100
    },
    {
      "midi": 40,
      "hit": false,
      "t": 170625,
      "d": 0.78125,
      "v": 100
    },
    {
      "midi": 55,
      "hit": false,
      "t": 170625,
      "d": 0.78125,
      "v": 100
    },
    {
      "midi": 85,
      "hit": false,
      "t": 170625,
      "d": 187.5,
      "v": 100
    },
    {
      "midi": 76,
      "hit": false,
      "t": 170625,
      "d": 187.5,
      "v": 100
    },
    {
      "midi": 64,
      "hit": false,
      "t": 170625,
      "d": 93.75,
      "v": 100
    },
    {
      "midi": 52,
      "hit": false,
      "t": 170625,
      "d": 93.75,
      "v": 100
    },
    {
      "midi": 49,
      "hit": false,
      "t": 170625,
      "d": 93.75,
      "v": 100
    },
    {
      "midi": 64,
      "hit": false,
      "t": 170718.75,
      "d": 187.5,
      "v": 100
    },
    {
      "midi": 64,
      "hit": false,
      "t": 170718.75,
      "d": 187.5,
      "v": 100
    },
    {
      "midi": 78,
      "hit": false,
      "t": 170812.5,
      "d": 140.625,
      "v": 100
    },
    {
      "midi": 74,
      "hit": false,
      "t": 170812.5,
      "d": 140.625,
      "v": 100
    },
    {
      "midi": 83,
      "hit": false,
      "t": 170812.5,
      "d": 187.5,
      "v": 100
    },
    {
      "midi": 78,
      "hit": false,
      "t": 170812.5,
      "d": 140.625,
      "v": 100
    },
    {
      "midi": 64,
      "hit": false,
      "t": 170906.25,
      "d": 93.75,
      "v": 100
    },
    {
      "midi": 64,
      "hit": false,
      "t": 170906.25,
      "d": 93.75,
      "v": 100
    },
    {
      "midi": 78,
      "hit": false,
      "t": 171000,
      "d": 890.625,
      "v": 100
    },
    {
      "midi": 45,
      "hit": false,
      "t": 171000,
      "d": 46.875,
      "v": 100
    },
    {
      "midi": 64,
      "hit": false,
      "t": 171000,
      "d": 93.75,
      "v": 100
    },
    {
      "midi": 52,
      "hit": false,
      "t": 171000,
      "d": 93.75,
      "v": 100
    },
    {
      "midi": 49,
      "hit": false,
      "t": 171000,
      "d": 93.75,
      "v": 100
    },
    {
      "midi": 42,
      "hit": false,
      "t": 171000,
      "d": 1453.125,
      "v": 100
    },
    {
      "midi": 74,
      "hit": false,
      "t": 171000,
      "d": 890.625,
      "v": 100
    },
    {
      "midi": 36,
      "hit": false,
      "t": 171000,
      "d": 0.78125,
      "v": 100
    },
    {
      "midi": 55,
      "hit": false,
      "t": 171000,
      "d": 0.78125,
      "v": 100
    },
    {
      "midi": 81,
      "hit": false,
      "t": 171000,
      "d": 187.5,
      "v": 100
    },
    {
      "midi": 78,
      "hit": false,
      "t": 171000,
      "d": 890.625,
      "v": 100
    },
    {
      "midi": 45,
      "hit": false,
      "t": 171000,
      "d": 46.875,
      "v": 100
    },
    {
      "midi": 64,
      "hit": false,
      "t": 171000,
      "d": 93.75,
      "v": 100
    },
    {
      "midi": 52,
      "hit": false,
      "t": 171000,
      "d": 93.75,
      "v": 100
    },
    {
      "midi": 49,
      "hit": false,
      "t": 171000,
      "d": 93.75,
      "v": 100
    },
    {
      "midi": 49,
      "hit": false,
      "t": 171046.875,
      "d": 140.625,
      "v": 100
    },
    {
      "midi": 49,
      "hit": false,
      "t": 171046.875,
      "d": 140.625,
      "v": 100
    },
    {
      "midi": 52,
      "hit": false,
      "t": 171093.75,
      "d": 93.75,
      "v": 100
    },
    {
      "midi": 64,
      "hit": false,
      "t": 171093.75,
      "d": 187.5,
      "v": 100
    },
    {
      "midi": 52,
      "hit": false,
      "t": 171093.75,
      "d": 93.75,
      "v": 100
    },
    {
      "midi": 64,
      "hit": false,
      "t": 171093.75,
      "d": 187.5,
      "v": 100
    },
    {
      "midi": 36,
      "hit": false,
      "t": 171187.5,
      "d": 0.78125,
      "v": 100
    },
    {
      "midi": 79,
      "hit": false,
      "t": 171187.5,
      "d": 187.5,
      "v": 100
    },
    {
      "midi": 64,
      "hit": false,
      "t": 171281.25,
      "d": 93.75,
      "v": 100
    },
    {
      "midi": 64,
      "hit": false,
      "t": 171281.25,
      "d": 93.75,
      "v": 100
    },
    {
      "midi": 64,
      "hit": false,
      "t": 171375,
      "d": 93.75,
      "v": 100
    },
    {
      "midi": 40,
      "hit": false,
      "t": 171375,
      "d": 0.78125,
      "v": 100
    },
    {
      "midi": 64,
      "hit": false,
      "t": 171375,
      "d": 93.75,
      "v": 100
    },
    {
      "midi": 64,
      "hit": false,
      "t": 171468.75,
      "d": 187.5,
      "v": 100
    },
    {
      "midi": 64,
      "hit": false,
      "t": 171468.75,
      "d": 187.5,
      "v": 100
    },
    {
      "midi": 49,
      "hit": false,
      "t": 171562.5,
      "d": 93.75,
      "v": 100
    },
    {
      "midi": 52,
      "hit": false,
      "t": 171562.5,
      "d": 93.75,
      "v": 100
    },
    {
      "midi": 52,
      "hit": false,
      "t": 171562.5,
      "d": 93.75,
      "v": 100
    },
    {
      "midi": 49,
      "hit": false,
      "t": 171562.5,
      "d": 93.75,
      "v": 100
    },
    {
      "midi": 49,
      "hit": false,
      "t": 171562.5,
      "d": 93.75,
      "v": 100
    },
    {
      "midi": 52,
      "hit": false,
      "t": 171562.5,
      "d": 93.75,
      "v": 100
    },
    {
      "midi": 52,
      "hit": false,
      "t": 171562.5,
      "d": 93.75,
      "v": 100
    },
    {
      "midi": 49,
      "hit": false,
      "t": 171562.5,
      "d": 93.75,
      "v": 100
    },
    {
      "midi": 64,
      "hit": false,
      "t": 171656.25,
      "d": 93.75,
      "v": 100
    },
    {
      "midi": 38,
      "hit": false,
      "t": 171656.25,
      "d": 0.78125,
      "v": 100
    },
    {
      "midi": 64,
      "hit": false,
      "t": 171656.25,
      "d": 93.75,
      "v": 100
    },
    {
      "midi": 64,
      "hit": false,
      "t": 171750,
      "d": 93.75,
      "v": 100
    },
    {
      "midi": 36,
      "hit": false,
      "t": 171750,
      "d": 0.78125,
      "v": 100
    },
    {
      "midi": 64,
      "hit": false,
      "t": 171750,
      "d": 93.75,
      "v": 100
    },
    {
      "midi": 64,
      "hit": false,
      "t": 171843.75,
      "d": 187.5,
      "v": 100
    },
    {
      "midi": 38,
      "hit": false,
      "t": 171843.75,
      "d": 0.78125,
      "v": 100
    },
    {
      "midi": 64,
      "hit": false,
      "t": 171843.75,
      "d": 187.5,
      "v": 100
    },
    {
      "midi": 78,
      "hit": false,
      "t": 171937.5,
      "d": 187.5,
      "v": 100
    },
    {
      "midi": 52,
      "hit": false,
      "t": 171937.5,
      "d": 93.75,
      "v": 100
    },
    {
      "midi": 49,
      "hit": false,
      "t": 171937.5,
      "d": 93.75,
      "v": 100
    },
    {
      "midi": 49,
      "hit": false,
      "t": 171937.5,
      "d": 93.75,
      "v": 100
    },
    {
      "midi": 52,
      "hit": false,
      "t": 171937.5,
      "d": 93.75,
      "v": 100
    },
    {
      "midi": 36,
      "hit": false,
      "t": 171937.5,
      "d": 0.78125,
      "v": 100
    },
    {
      "midi": 78,
      "hit": false,
      "t": 171937.5,
      "d": 187.5,
      "v": 100
    },
    {
      "midi": 52,
      "hit": false,
      "t": 171937.5,
      "d": 93.75,
      "v": 100
    },
    {
      "midi": 49,
      "hit": false,
      "t": 171937.5,
      "d": 93.75,
      "v": 100
    },
    {
      "midi": 49,
      "hit": false,
      "t": 171937.5,
      "d": 93.75,
      "v": 100
    },
    {
      "midi": 52,
      "hit": false,
      "t": 171937.5,
      "d": 93.75,
      "v": 100
    },
    {
      "midi": 64,
      "hit": false,
      "t": 172031.25,
      "d": 93.75,
      "v": 100
    },
    {
      "midi": 64,
      "hit": false,
      "t": 172031.25,
      "d": 93.75,
      "v": 100
    },
    {
      "midi": 83,
      "hit": false,
      "t": 172125,
      "d": 187.5,
      "v": 100
    },
    {
      "midi": 64,
      "hit": false,
      "t": 172125,
      "d": 93.75,
      "v": 100
    },
    {
      "midi": 52,
      "hit": false,
      "t": 172125,
      "d": 93.75,
      "v": 100
    },
    {
      "midi": 49,
      "hit": false,
      "t": 172125,
      "d": 93.75,
      "v": 100
    },
    {
      "midi": 52,
      "hit": false,
      "t": 172125,
      "d": 93.75,
      "v": 100
    },
    {
      "midi": 49,
      "hit": false,
      "t": 172125,
      "d": 93.75,
      "v": 100
    },
    {
      "midi": 40,
      "hit": false,
      "t": 172125,
      "d": 0.78125,
      "v": 100
    },
    {
      "midi": 83,
      "hit": false,
      "t": 172125,
      "d": 187.5,
      "v": 100
    },
    {
      "midi": 64,
      "hit": false,
      "t": 172125,
      "d": 93.75,
      "v": 100
    },
    {
      "midi": 52,
      "hit": false,
      "t": 172125,
      "d": 93.75,
      "v": 100
    },
    {
      "midi": 49,
      "hit": false,
      "t": 172125,
      "d": 93.75,
      "v": 100
    },
    {
      "midi": 52,
      "hit": false,
      "t": 172125,
      "d": 93.75,
      "v": 100
    },
    {
      "midi": 49,
      "hit": false,
      "t": 172125,
      "d": 93.75,
      "v": 100
    },
    {
      "midi": 64,
      "hit": false,
      "t": 172218.75,
      "d": 187.5,
      "v": 100
    },
    {
      "midi": 64,
      "hit": false,
      "t": 172218.75,
      "d": 187.5,
      "v": 100
    },
    {
      "midi": 86,
      "hit": false,
      "t": 172312.5,
      "d": 187.5,
      "v": 100
    },
    {
      "midi": 86,
      "hit": false,
      "t": 172312.5,
      "d": 187.5,
      "v": 100
    },
    {
      "midi": 64,
      "hit": false,
      "t": 172406.25,
      "d": 93.75,
      "v": 100
    },
    {
      "midi": 64,
      "hit": false,
      "t": 172406.25,
      "d": 93.75,
      "v": 100
    },
    {
      "midi": 85,
      "hit": false,
      "t": 172500,
      "d": 375,
      "v": 100
    },
    {
      "midi": 45,
      "hit": false,
      "t": 172500,
      "d": 46.875,
      "v": 100
    },
    {
      "midi": 64,
      "hit": false,
      "t": 172500,
      "d": 93.75,
      "v": 100
    },
    {
      "midi": 52,
      "hit": false,
      "t": 172500,
      "d": 93.75,
      "v": 100
    },
    {
      "midi": 49,
      "hit": false,
      "t": 172500,
      "d": 93.75,
      "v": 100
    },
    {
      "midi": 50,
      "hit": false,
      "t": 172500,
      "d": 1453.125,
      "v": 100
    },
    {
      "midi": 36,
      "hit": false,
      "t": 172500,
      "d": 0.78125,
      "v": 100
    },
    {
      "midi": 88,
      "hit": false,
      "t": 172500,
      "d": 187.5,
      "v": 100
    },
    {
      "midi": 85,
      "hit": false,
      "t": 172500,
      "d": 375,
      "v": 100
    },
    {
      "midi": 45,
      "hit": false,
      "t": 172500,
      "d": 46.875,
      "v": 100
    },
    {
      "midi": 64,
      "hit": false,
      "t": 172500,
      "d": 93.75,
      "v": 100
    },
    {
      "midi": 52,
      "hit": false,
      "t": 172500,
      "d": 93.75,
      "v": 100
    },
    {
      "midi": 49,
      "hit": false,
      "t": 172500,
      "d": 93.75,
      "v": 100
    },
    {
      "midi": 49,
      "hit": false,
      "t": 172546.875,
      "d": 140.625,
      "v": 100
    },
    {
      "midi": 49,
      "hit": false,
      "t": 172546.875,
      "d": 140.625,
      "v": 100
    },
    {
      "midi": 52,
      "hit": false,
      "t": 172593.75,
      "d": 93.75,
      "v": 100
    },
    {
      "midi": 64,
      "hit": false,
      "t": 172593.75,
      "d": 187.5,
      "v": 100
    },
    {
      "midi": 52,
      "hit": false,
      "t": 172593.75,
      "d": 93.75,
      "v": 100
    },
    {
      "midi": 64,
      "hit": false,
      "t": 172593.75,
      "d": 187.5,
      "v": 100
    },
    {
      "midi": 36,
      "hit": false,
      "t": 172687.5,
      "d": 0.78125,
      "v": 100
    },
    {
      "midi": 64,
      "hit": false,
      "t": 172781.25,
      "d": 93.75,
      "v": 100
    },
    {
      "midi": 64,
      "hit": false,
      "t": 172781.25,
      "d": 93.75,
      "v": 100
    },
    {
      "midi": 83,
      "hit": false,
      "t": 172875,
      "d": 187.5,
      "v": 100
    },
    {
      "midi": 64,
      "hit": false,
      "t": 172875,
      "d": 93.75,
      "v": 100
    },
    {
      "midi": 40,
      "hit": false,
      "t": 172875,
      "d": 0.78125,
      "v": 100
    },
    {
      "midi": 83,
      "hit": false,
      "t": 172875,
      "d": 187.5,
      "v": 100
    },
    {
      "midi": 64,
      "hit": false,
      "t": 172875,
      "d": 93.75,
      "v": 100
    },
    {
      "midi": 64,
      "hit": false,
      "t": 172968.75,
      "d": 187.5,
      "v": 100
    },
    {
      "midi": 64,
      "hit": false,
      "t": 172968.75,
      "d": 187.5,
      "v": 100
    },
    {
      "midi": 81,
      "hit": false,
      "t": 173062.5,
      "d": 375,
      "v": 100
    },
    {
      "midi": 49,
      "hit": false,
      "t": 173062.5,
      "d": 93.75,
      "v": 100
    },
    {
      "midi": 52,
      "hit": false,
      "t": 173062.5,
      "d": 93.75,
      "v": 100
    },
    {
      "midi": 52,
      "hit": false,
      "t": 173062.5,
      "d": 93.75,
      "v": 100
    },
    {
      "midi": 49,
      "hit": false,
      "t": 173062.5,
      "d": 93.75,
      "v": 100
    },
    {
      "midi": 81,
      "hit": false,
      "t": 173062.5,
      "d": 375,
      "v": 100
    },
    {
      "midi": 49,
      "hit": false,
      "t": 173062.5,
      "d": 93.75,
      "v": 100
    },
    {
      "midi": 52,
      "hit": false,
      "t": 173062.5,
      "d": 93.75,
      "v": 100
    },
    {
      "midi": 52,
      "hit": false,
      "t": 173062.5,
      "d": 93.75,
      "v": 100
    },
    {
      "midi": 49,
      "hit": false,
      "t": 173062.5,
      "d": 93.75,
      "v": 100
    },
    {
      "midi": 64,
      "hit": false,
      "t": 173156.25,
      "d": 93.75,
      "v": 100
    },
    {
      "midi": 38,
      "hit": false,
      "t": 173156.25,
      "d": 0.78125,
      "v": 100
    },
    {
      "midi": 64,
      "hit": false,
      "t": 173156.25,
      "d": 93.75,
      "v": 100
    },
    {
      "midi": 64,
      "hit": false,
      "t": 173250,
      "d": 93.75,
      "v": 100
    },
    {
      "midi": 36,
      "hit": false,
      "t": 173250,
      "d": 0.78125,
      "v": 100
    },
    {
      "midi": 64,
      "hit": false,
      "t": 173250,
      "d": 93.75,
      "v": 100
    },
    {
      "midi": 64,
      "hit": false,
      "t": 173343.75,
      "d": 187.5,
      "v": 100
    },
    {
      "midi": 38,
      "hit": false,
      "t": 173343.75,
      "d": 0.78125,
      "v": 100
    },
    {
      "midi": 64,
      "hit": false,
      "t": 173343.75,
      "d": 187.5,
      "v": 100
    },
    {
      "midi": 79,
      "hit": false,
      "t": 173437.5,
      "d": 328.125,
      "v": 100
    },
    {
      "midi": 52,
      "hit": false,
      "t": 173437.5,
      "d": 93.75,
      "v": 100
    },
    {
      "midi": 49,
      "hit": false,
      "t": 173437.5,
      "d": 93.75,
      "v": 100
    },
    {
      "midi": 49,
      "hit": false,
      "t": 173437.5,
      "d": 93.75,
      "v": 100
    },
    {
      "midi": 52,
      "hit": false,
      "t": 173437.5,
      "d": 93.75,
      "v": 100
    },
    {
      "midi": 36,
      "hit": false,
      "t": 173437.5,
      "d": 0.78125,
      "v": 100
    },
    {
      "midi": 79,
      "hit": false,
      "t": 173437.5,
      "d": 328.125,
      "v": 100
    },
    {
      "midi": 52,
      "hit": false,
      "t": 173437.5,
      "d": 93.75,
      "v": 100
    },
    {
      "midi": 49,
      "hit": false,
      "t": 173437.5,
      "d": 93.75,
      "v": 100
    },
    {
      "midi": 49,
      "hit": false,
      "t": 173437.5,
      "d": 93.75,
      "v": 100
    },
    {
      "midi": 52,
      "hit": false,
      "t": 173437.5,
      "d": 93.75,
      "v": 100
    },
    {
      "midi": 64,
      "hit": false,
      "t": 173531.25,
      "d": 93.75,
      "v": 100
    },
    {
      "midi": 64,
      "hit": false,
      "t": 173531.25,
      "d": 93.75,
      "v": 100
    },
    {
      "midi": 64,
      "hit": false,
      "t": 173625,
      "d": 93.75,
      "v": 100
    },
    {
      "midi": 52,
      "hit": false,
      "t": 173625,
      "d": 93.75,
      "v": 100
    },
    {
      "midi": 49,
      "hit": false,
      "t": 173625,
      "d": 93.75,
      "v": 100
    },
    {
      "midi": 52,
      "hit": false,
      "t": 173625,
      "d": 93.75,
      "v": 100
    },
    {
      "midi": 49,
      "hit": false,
      "t": 173625,
      "d": 93.75,
      "v": 100
    },
    {
      "midi": 40,
      "hit": false,
      "t": 173625,
      "d": 0.78125,
      "v": 100
    },
    {
      "midi": 64,
      "hit": false,
      "t": 173625,
      "d": 93.75,
      "v": 100
    },
    {
      "midi": 52,
      "hit": false,
      "t": 173625,
      "d": 93.75,
      "v": 100
    },
    {
      "midi": 49,
      "hit": false,
      "t": 173625,
      "d": 93.75,
      "v": 100
    },
    {
      "midi": 52,
      "hit": false,
      "t": 173625,
      "d": 93.75,
      "v": 100
    },
    {
      "midi": 49,
      "hit": false,
      "t": 173625,
      "d": 93.75,
      "v": 100
    },
    {
      "midi": 64,
      "hit": false,
      "t": 173718.75,
      "d": 187.5,
      "v": 100
    },
    {
      "midi": 64,
      "hit": false,
      "t": 173718.75,
      "d": 187.5,
      "v": 100
    },
    {
      "midi": 79,
      "hit": false,
      "t": 173812.5,
      "d": 187.5,
      "v": 100
    },
    {
      "midi": 79,
      "hit": false,
      "t": 173812.5,
      "d": 187.5,
      "v": 100
    },
    {
      "midi": 64,
      "hit": false,
      "t": 173906.25,
      "d": 93.75,
      "v": 100
    },
    {
      "midi": 64,
      "hit": false,
      "t": 173906.25,
      "d": 93.75,
      "v": 100
    },
    {
      "midi": 83,
      "hit": false,
      "t": 174000,
      "d": 187.5,
      "v": 100
    },
    {
      "midi": 78,
      "hit": false,
      "t": 174000,
      "d": 1500,
      "v": 100
    },
    {
      "midi": 45,
      "hit": false,
      "t": 174000,
      "d": 46.875,
      "v": 100
    },
    {
      "midi": 64,
      "hit": false,
      "t": 174000,
      "d": 93.75,
      "v": 100
    },
    {
      "midi": 52,
      "hit": false,
      "t": 174000,
      "d": 93.75,
      "v": 100
    },
    {
      "midi": 49,
      "hit": false,
      "t": 174000,
      "d": 93.75,
      "v": 100
    },
    {
      "midi": 49,
      "hit": false,
      "t": 174000,
      "d": 1453.125,
      "v": 100
    },
    {
      "midi": 36,
      "hit": false,
      "t": 174000,
      "d": 0.78125,
      "v": 100
    },
    {
      "midi": 90,
      "hit": false,
      "t": 174000,
      "d": 187.5,
      "v": 100
    },
    {
      "midi": 83,
      "hit": false,
      "t": 174000,
      "d": 187.5,
      "v": 100
    },
    {
      "midi": 78,
      "hit": false,
      "t": 174000,
      "d": 1500,
      "v": 100
    },
    {
      "midi": 45,
      "hit": false,
      "t": 174000,
      "d": 46.875,
      "v": 100
    },
    {
      "midi": 64,
      "hit": false,
      "t": 174000,
      "d": 93.75,
      "v": 100
    },
    {
      "midi": 52,
      "hit": false,
      "t": 174000,
      "d": 93.75,
      "v": 100
    },
    {
      "midi": 49,
      "hit": false,
      "t": 174000,
      "d": 93.75,
      "v": 100
    },
    {
      "midi": 49,
      "hit": false,
      "t": 174046.875,
      "d": 140.625,
      "v": 100
    },
    {
      "midi": 49,
      "hit": false,
      "t": 174046.875,
      "d": 140.625,
      "v": 100
    },
    {
      "midi": 52,
      "hit": false,
      "t": 174093.75,
      "d": 93.75,
      "v": 100
    },
    {
      "midi": 64,
      "hit": false,
      "t": 174093.75,
      "d": 187.5,
      "v": 100
    },
    {
      "midi": 52,
      "hit": false,
      "t": 174093.75,
      "d": 93.75,
      "v": 100
    },
    {
      "midi": 64,
      "hit": false,
      "t": 174093.75,
      "d": 187.5,
      "v": 100
    },
    {
      "midi": 36,
      "hit": false,
      "t": 174187.5,
      "d": 0.78125,
      "v": 100
    },
    {
      "midi": 64,
      "hit": false,
      "t": 174281.25,
      "d": 93.75,
      "v": 100
    },
    {
      "midi": 64,
      "hit": false,
      "t": 174281.25,
      "d": 93.75,
      "v": 100
    },
    {
      "midi": 64,
      "hit": false,
      "t": 174375,
      "d": 93.75,
      "v": 100
    },
    {
      "midi": 40,
      "hit": false,
      "t": 174375,
      "d": 0.78125,
      "v": 100
    },
    {
      "midi": 64,
      "hit": false,
      "t": 174375,
      "d": 93.75,
      "v": 100
    },
    {
      "midi": 83,
      "hit": false,
      "t": 174468.75,
      "d": 93.75,
      "v": 100
    },
    {
      "midi": 64,
      "hit": false,
      "t": 174468.75,
      "d": 187.5,
      "v": 100
    },
    {
      "midi": 83,
      "hit": false,
      "t": 174468.75,
      "d": 93.75,
      "v": 100
    },
    {
      "midi": 83,
      "hit": false,
      "t": 174468.75,
      "d": 93.75,
      "v": 100
    },
    {
      "midi": 64,
      "hit": false,
      "t": 174468.75,
      "d": 187.5,
      "v": 100
    },
    {
      "midi": 49,
      "hit": false,
      "t": 174562.5,
      "d": 93.75,
      "v": 100
    },
    {
      "midi": 52,
      "hit": false,
      "t": 174562.5,
      "d": 93.75,
      "v": 100
    },
    {
      "midi": 52,
      "hit": false,
      "t": 174562.5,
      "d": 93.75,
      "v": 100
    },
    {
      "midi": 49,
      "hit": false,
      "t": 174562.5,
      "d": 93.75,
      "v": 100
    },
    {
      "midi": 49,
      "hit": false,
      "t": 174562.5,
      "d": 93.75,
      "v": 100
    },
    {
      "midi": 52,
      "hit": false,
      "t": 174562.5,
      "d": 93.75,
      "v": 100
    },
    {
      "midi": 52,
      "hit": false,
      "t": 174562.5,
      "d": 93.75,
      "v": 100
    },
    {
      "midi": 49,
      "hit": false,
      "t": 174562.5,
      "d": 93.75,
      "v": 100
    },
    {
      "midi": 83,
      "hit": false,
      "t": 174609.375,
      "d": 93.75,
      "v": 100
    },
    {
      "midi": 83,
      "hit": false,
      "t": 174609.375,
      "d": 93.75,
      "v": 100
    },
    {
      "midi": 83,
      "hit": false,
      "t": 174609.375,
      "d": 93.75,
      "v": 100
    },
    {
      "midi": 64,
      "hit": false,
      "t": 174656.25,
      "d": 93.75,
      "v": 100
    },
    {
      "midi": 38,
      "hit": false,
      "t": 174656.25,
      "d": 0.78125,
      "v": 100
    },
    {
      "midi": 64,
      "hit": false,
      "t": 174656.25,
      "d": 93.75,
      "v": 100
    },
    {
      "midi": 64,
      "hit": false,
      "t": 174750,
      "d": 93.75,
      "v": 100
    },
    {
      "midi": 36,
      "hit": false,
      "t": 174750,
      "d": 0.78125,
      "v": 100
    },
    {
      "midi": 55,
      "hit": false,
      "t": 174750,
      "d": 0.78125,
      "v": 100
    },
    {
      "midi": 64,
      "hit": false,
      "t": 174750,
      "d": 93.75,
      "v": 100
    },
    {
      "midi": 83,
      "hit": false,
      "t": 174796.875,
      "d": 140.625,
      "v": 100
    },
    {
      "midi": 83,
      "hit": false,
      "t": 174796.875,
      "d": 140.625,
      "v": 100
    },
    {
      "midi": 83,
      "hit": false,
      "t": 174796.875,
      "d": 140.625,
      "v": 100
    },
    {
      "midi": 64,
      "hit": false,
      "t": 174843.75,
      "d": 187.5,
      "v": 100
    },
    {
      "midi": 38,
      "hit": false,
      "t": 174843.75,
      "d": 0.78125,
      "v": 100
    },
    {
      "midi": 64,
      "hit": false,
      "t": 174843.75,
      "d": 187.5,
      "v": 100
    },
    {
      "midi": 85,
      "hit": false,
      "t": 174937.5,
      "d": 375,
      "v": 100
    },
    {
      "midi": 52,
      "hit": false,
      "t": 174937.5,
      "d": 93.75,
      "v": 100
    },
    {
      "midi": 49,
      "hit": false,
      "t": 174937.5,
      "d": 93.75,
      "v": 100
    },
    {
      "midi": 52,
      "hit": false,
      "t": 174937.5,
      "d": 93.75,
      "v": 100
    },
    {
      "midi": 49,
      "hit": false,
      "t": 174937.5,
      "d": 93.75,
      "v": 100
    },
    {
      "midi": 85,
      "hit": false,
      "t": 174937.5,
      "d": 375,
      "v": 100
    },
    {
      "midi": 36,
      "hit": false,
      "t": 174937.5,
      "d": 0.78125,
      "v": 100
    },
    {
      "midi": 85,
      "hit": false,
      "t": 174937.5,
      "d": 375,
      "v": 100
    },
    {
      "midi": 52,
      "hit": false,
      "t": 174937.5,
      "d": 93.75,
      "v": 100
    },
    {
      "midi": 49,
      "hit": false,
      "t": 174937.5,
      "d": 93.75,
      "v": 100
    },
    {
      "midi": 52,
      "hit": false,
      "t": 174937.5,
      "d": 93.75,
      "v": 100
    },
    {
      "midi": 49,
      "hit": false,
      "t": 174937.5,
      "d": 93.75,
      "v": 100
    },
    {
      "midi": 64,
      "hit": false,
      "t": 175031.25,
      "d": 93.75,
      "v": 100
    },
    {
      "midi": 64,
      "hit": false,
      "t": 175031.25,
      "d": 93.75,
      "v": 100
    },
    {
      "midi": 64,
      "hit": false,
      "t": 175125,
      "d": 93.75,
      "v": 100
    },
    {
      "midi": 52,
      "hit": false,
      "t": 175125,
      "d": 93.75,
      "v": 100
    },
    {
      "midi": 49,
      "hit": false,
      "t": 175125,
      "d": 93.75,
      "v": 100
    },
    {
      "midi": 52,
      "hit": false,
      "t": 175125,
      "d": 93.75,
      "v": 100
    },
    {
      "midi": 49,
      "hit": false,
      "t": 175125,
      "d": 93.75,
      "v": 100
    },
    {
      "midi": 40,
      "hit": false,
      "t": 175125,
      "d": 0.78125,
      "v": 100
    },
    {
      "midi": 55,
      "hit": false,
      "t": 175125,
      "d": 0.78125,
      "v": 100
    },
    {
      "midi": 64,
      "hit": false,
      "t": 175125,
      "d": 93.75,
      "v": 100
    },
    {
      "midi": 52,
      "hit": false,
      "t": 175125,
      "d": 93.75,
      "v": 100
    },
    {
      "midi": 49,
      "hit": false,
      "t": 175125,
      "d": 93.75,
      "v": 100
    },
    {
      "midi": 52,
      "hit": false,
      "t": 175125,
      "d": 93.75,
      "v": 100
    },
    {
      "midi": 49,
      "hit": false,
      "t": 175125,
      "d": 93.75,
      "v": 100
    },
    {
      "midi": 64,
      "hit": false,
      "t": 175218.75,
      "d": 187.5,
      "v": 100
    },
    {
      "midi": 64,
      "hit": false,
      "t": 175218.75,
      "d": 187.5,
      "v": 100
    },
    {
      "midi": 83,
      "hit": false,
      "t": 175312.5,
      "d": 187.5,
      "v": 100
    },
    {
      "midi": 86,
      "hit": false,
      "t": 175312.5,
      "d": 187.5,
      "v": 100
    },
    {
      "midi": 83,
      "hit": false,
      "t": 175312.5,
      "d": 187.5,
      "v": 100
    },
    {
      "midi": 64,
      "hit": false,
      "t": 175406.25,
      "d": 93.75,
      "v": 100
    },
    {
      "midi": 64,
      "hit": false,
      "t": 175406.25,
      "d": 93.75,
      "v": 100
    },
    {
      "midi": 81,
      "hit": false,
      "t": 175500,
      "d": 375,
      "v": 100
    },
    {
      "midi": 81,
      "hit": false,
      "t": 175500,
      "d": 1500,
      "v": 100
    },
    {
      "midi": 62,
      "hit": false,
      "t": 175500,
      "d": 93.75,
      "v": 100
    },
    {
      "midi": 52,
      "hit": false,
      "t": 175500,
      "d": 93.75,
      "v": 100
    },
    {
      "midi": 49,
      "hit": false,
      "t": 175500,
      "d": 93.75,
      "v": 100
    },
    {
      "midi": 50,
      "hit": false,
      "t": 175500,
      "d": 93.75,
      "v": 100
    },
    {
      "midi": 47,
      "hit": false,
      "t": 175500,
      "d": 93.75,
      "v": 100
    },
    {
      "midi": 47,
      "hit": false,
      "t": 175500,
      "d": 1453.125,
      "v": 100
    },
    {
      "midi": 88,
      "hit": false,
      "t": 175500,
      "d": 375,
      "v": 100
    },
    {
      "midi": 36,
      "hit": false,
      "t": 175500,
      "d": 0.78125,
      "v": 100
    },
    {
      "midi": 55,
      "hit": false,
      "t": 175500,
      "d": 0.78125,
      "v": 100
    },
    {
      "midi": 38,
      "hit": false,
      "t": 175500,
      "d": 0.78125,
      "v": 100
    },
    {
      "midi": 40,
      "hit": false,
      "t": 175500,
      "d": 0.78125,
      "v": 100
    },
    {
      "midi": 81,
      "hit": false,
      "t": 175500,
      "d": 375,
      "v": 100
    },
    {
      "midi": 81,
      "hit": false,
      "t": 175500,
      "d": 1500,
      "v": 100
    },
    {
      "midi": 62,
      "hit": false,
      "t": 175500,
      "d": 93.75,
      "v": 100
    },
    {
      "midi": 52,
      "hit": false,
      "t": 175500,
      "d": 93.75,
      "v": 100
    },
    {
      "midi": 49,
      "hit": false,
      "t": 175500,
      "d": 93.75,
      "v": 100
    },
    {
      "midi": 50,
      "hit": false,
      "t": 175500,
      "d": 93.75,
      "v": 100
    },
    {
      "midi": 47,
      "hit": false,
      "t": 175500,
      "d": 93.75,
      "v": 100
    },
    {
      "midi": 62,
      "hit": false,
      "t": 175593.75,
      "d": 187.5,
      "v": 100
    },
    {
      "midi": 62,
      "hit": false,
      "t": 175593.75,
      "d": 187.5,
      "v": 100
    },
    {
      "midi": 76,
      "hit": false,
      "t": 175687.5,
      "d": 187.5,
      "v": 100
    },
    {
      "midi": 36,
      "hit": false,
      "t": 175687.5,
      "d": 0.78125,
      "v": 100
    },
    {
      "midi": 38,
      "hit": false,
      "t": 175687.5,
      "d": 0.78125,
      "v": 100
    },
    {
      "midi": 88,
      "hit": false,
      "t": 175687.5,
      "d": 187.5,
      "v": 100
    },
    {
      "midi": 62,
      "hit": false,
      "t": 175781.25,
      "d": 93.75,
      "v": 100
    },
    {
      "midi": 62,
      "hit": false,
      "t": 175781.25,
      "d": 93.75,
      "v": 100
    },
    {
      "midi": 61,
      "hit": false,
      "t": 175875,
      "d": 93.75,
      "v": 100
    },
    {
      "midi": 52,
      "hit": false,
      "t": 175875,
      "d": 93.75,
      "v": 100
    },
    {
      "midi": 49,
      "hit": false,
      "t": 175875,
      "d": 93.75,
      "v": 100
    },
    {
      "midi": 74,
      "hit": false,
      "t": 175875,
      "d": 187.5,
      "v": 100
    },
    {
      "midi": 38,
      "hit": false,
      "t": 175875,
      "d": 0.78125,
      "v": 100
    },
    {
      "midi": 55,
      "hit": false,
      "t": 175875,
      "d": 0.78125,
      "v": 100
    },
    {
      "midi": 40,
      "hit": false,
      "t": 175875,
      "d": 0.78125,
      "v": 100
    },
    {
      "midi": 86,
      "hit": false,
      "t": 175875,
      "d": 187.5,
      "v": 100
    },
    {
      "midi": 61,
      "hit": false,
      "t": 175875,
      "d": 93.75,
      "v": 100
    },
    {
      "midi": 52,
      "hit": false,
      "t": 175875,
      "d": 93.75,
      "v": 100
    },
    {
      "midi": 49,
      "hit": false,
      "t": 175875,
      "d": 93.75,
      "v": 100
    },
    {
      "midi": 61,
      "hit": false,
      "t": 175968.75,
      "d": 187.5,
      "v": 100
    },
    {
      "midi": 61,
      "hit": false,
      "t": 175968.75,
      "d": 187.5,
      "v": 100
    },
    {
      "midi": 69,
      "hit": false,
      "t": 176062.5,
      "d": 93.75,
      "v": 100
    },
    {
      "midi": 50,
      "hit": false,
      "t": 176062.5,
      "d": 93.75,
      "v": 100
    },
    {
      "midi": 47,
      "hit": false,
      "t": 176062.5,
      "d": 93.75,
      "v": 100
    },
    {
      "midi": 69,
      "hit": false,
      "t": 176062.5,
      "d": 93.75,
      "v": 100
    },
    {
      "midi": 73,
      "hit": false,
      "t": 176062.5,
      "d": 187.5,
      "v": 100
    },
    {
      "midi": 38,
      "hit": false,
      "t": 176062.5,
      "d": 0.78125,
      "v": 100
    },
    {
      "midi": 85,
      "hit": false,
      "t": 176062.5,
      "d": 187.5,
      "v": 100
    },
    {
      "midi": 69,
      "hit": false,
      "t": 176062.5,
      "d": 93.75,
      "v": 100
    },
    {
      "midi": 50,
      "hit": false,
      "t": 176062.5,
      "d": 93.75,
      "v": 100
    },
    {
      "midi": 47,
      "hit": false,
      "t": 176062.5,
      "d": 93.75,
      "v": 100
    },
    {
      "midi": 71,
      "hit": false,
      "t": 176156.25,
      "d": 93.75,
      "v": 100
    },
    {
      "midi": 61,
      "hit": false,
      "t": 176156.25,
      "d": 93.75,
      "v": 100
    },
    {
      "midi": 69,
      "hit": false,
      "t": 176156.25,
      "d": 93.75,
      "v": 100
    },
    {
      "midi": 71,
      "hit": false,
      "t": 176156.25,
      "d": 93.75,
      "v": 100
    },
    {
      "midi": 61,
      "hit": false,
      "t": 176156.25,
      "d": 93.75,
      "v": 100
    },
    {
      "midi": 74,
      "hit": false,
      "t": 176250,
      "d": 281.25,
      "v": 100
    },
    {
      "midi": 61,
      "hit": false,
      "t": 176250,
      "d": 93.75,
      "v": 100
    },
    {
      "midi": 69,
      "hit": false,
      "t": 176250,
      "d": 281.25,
      "v": 100
    },
    {
      "midi": 76,
      "hit": false,
      "t": 176250,
      "d": 187.5,
      "v": 100
    },
    {
      "midi": 36,
      "hit": false,
      "t": 176250,
      "d": 0.78125,
      "v": 100
    },
    {
      "midi": 40,
      "hit": false,
      "t": 176250,
      "d": 0.78125,
      "v": 100
    },
    {
      "midi": 88,
      "hit": false,
      "t": 176250,
      "d": 187.5,
      "v": 100
    },
    {
      "midi": 74,
      "hit": false,
      "t": 176250,
      "d": 281.25,
      "v": 100
    },
    {
      "midi": 61,
      "hit": false,
      "t": 176250,
      "d": 93.75,
      "v": 100
    },
    {
      "midi": 61,
      "hit": false,
      "t": 176343.75,
      "d": 187.5,
      "v": 100
    },
    {
      "midi": 61,
      "hit": false,
      "t": 176343.75,
      "d": 187.5,
      "v": 100
    },
    {
      "midi": 50,
      "hit": false,
      "t": 176437.5,
      "d": 93.75,
      "v": 100
    },
    {
      "midi": 47,
      "hit": false,
      "t": 176437.5,
      "d": 93.75,
      "v": 100
    },
    {
      "midi": 74,
      "hit": false,
      "t": 176437.5,
      "d": 187.5,
      "v": 100
    },
    {
      "midi": 40,
      "hit": false,
      "t": 176437.5,
      "d": 0.78125,
      "v": 100
    },
    {
      "midi": 36,
      "hit": false,
      "t": 176437.5,
      "d": 0.78125,
      "v": 100
    },
    {
      "midi": 86,
      "hit": false,
      "t": 176437.5,
      "d": 187.5,
      "v": 100
    },
    {
      "midi": 50,
      "hit": false,
      "t": 176437.5,
      "d": 93.75,
      "v": 100
    },
    {
      "midi": 47,
      "hit": false,
      "t": 176437.5,
      "d": 93.75,
      "v": 100
    },
    {
      "midi": 73,
      "hit": false,
      "t": 176531.25,
      "d": 281.25,
      "v": 100
    },
    {
      "midi": 61,
      "hit": false,
      "t": 176531.25,
      "d": 93.75,
      "v": 100
    },
    {
      "midi": 69,
      "hit": false,
      "t": 176531.25,
      "d": 281.25,
      "v": 100
    },
    {
      "midi": 73,
      "hit": false,
      "t": 176531.25,
      "d": 281.25,
      "v": 100
    },
    {
      "midi": 61,
      "hit": false,
      "t": 176531.25,
      "d": 93.75,
      "v": 100
    },
    {
      "midi": 61,
      "hit": false,
      "t": 176625,
      "d": 93.75,
      "v": 100
    },
    {
      "midi": 50,
      "hit": false,
      "t": 176625,
      "d": 93.75,
      "v": 100
    },
    {
      "midi": 47,
      "hit": false,
      "t": 176625,
      "d": 93.75,
      "v": 100
    },
    {
      "midi": 73,
      "hit": false,
      "t": 176625,
      "d": 187.5,
      "v": 100
    },
    {
      "midi": 40,
      "hit": false,
      "t": 176625,
      "d": 0.78125,
      "v": 100
    },
    {
      "midi": 36,
      "hit": false,
      "t": 176625,
      "d": 0.78125,
      "v": 100
    },
    {
      "midi": 85,
      "hit": false,
      "t": 176625,
      "d": 187.5,
      "v": 100
    },
    {
      "midi": 61,
      "hit": false,
      "t": 176625,
      "d": 93.75,
      "v": 100
    },
    {
      "midi": 50,
      "hit": false,
      "t": 176625,
      "d": 93.75,
      "v": 100
    },
    {
      "midi": 47,
      "hit": false,
      "t": 176625,
      "d": 93.75,
      "v": 100
    },
    {
      "midi": 61,
      "hit": false,
      "t": 176718.75,
      "d": 187.5,
      "v": 100
    },
    {
      "midi": 61,
      "hit": false,
      "t": 176718.75,
      "d": 187.5,
      "v": 100
    },
    {
      "midi": 74,
      "hit": false,
      "t": 176812.5,
      "d": 562.5,
      "v": 100
    },
    {
      "midi": 67,
      "hit": false,
      "t": 176812.5,
      "d": 562.5,
      "v": 100
    },
    {
      "midi": 71,
      "hit": false,
      "t": 176812.5,
      "d": 187.5,
      "v": 100
    },
    {
      "midi": 38,
      "hit": false,
      "t": 176812.5,
      "d": 0.78125,
      "v": 100
    },
    {
      "midi": 36,
      "hit": false,
      "t": 176812.5,
      "d": 0.78125,
      "v": 100
    },
    {
      "midi": 83,
      "hit": false,
      "t": 176812.5,
      "d": 187.5,
      "v": 100
    },
    {
      "midi": 74,
      "hit": false,
      "t": 176812.5,
      "d": 562.5,
      "v": 100
    },
    {
      "midi": 61,
      "hit": false,
      "t": 176906.25,
      "d": 93.75,
      "v": 100
    },
    {
      "midi": 61,
      "hit": false,
      "t": 176906.25,
      "d": 93.75,
      "v": 100
    },
    {
      "midi": 76,
      "hit": false,
      "t": 177000,
      "d": 5062.5,
      "v": 100
    },
    {
      "midi": 45,
      "hit": false,
      "t": 177000,
      "d": 46.875,
      "v": 100
    },
    {
      "midi": 64,
      "hit": false,
      "t": 177000,
      "d": 93.75,
      "v": 100
    },
    {
      "midi": 52,
      "hit": false,
      "t": 177000,
      "d": 93.75,
      "v": 100
    },
    {
      "midi": 49,
      "hit": false,
      "t": 177000,
      "d": 93.75,
      "v": 100
    },
    {
      "midi": 40,
      "hit": false,
      "t": 177000,
      "d": 140.625,
      "v": 100
    },
    {
      "midi": 36,
      "hit": false,
      "t": 177000,
      "d": 0.78125,
      "v": 100
    },
    {
      "midi": 88,
      "hit": false,
      "t": 177000,
      "d": 187.5,
      "v": 100
    },
    {
      "midi": 76,
      "hit": false,
      "t": 177000,
      "d": 5062.5,
      "v": 100
    },
    {
      "midi": 45,
      "hit": false,
      "t": 177000,
      "d": 46.875,
      "v": 100
    },
    {
      "midi": 64,
      "hit": false,
      "t": 177000,
      "d": 93.75,
      "v": 100
    },
    {
      "midi": 52,
      "hit": false,
      "t": 177000,
      "d": 93.75,
      "v": 100
    },
    {
      "midi": 49,
      "hit": false,
      "t": 177000,
      "d": 93.75,
      "v": 100
    },
    {
      "midi": 49,
      "hit": false,
      "t": 177046.875,
      "d": 140.625,
      "v": 100
    },
    {
      "midi": 49,
      "hit": false,
      "t": 177046.875,
      "d": 140.625,
      "v": 100
    },
    {
      "midi": 52,
      "hit": false,
      "t": 177093.75,
      "d": 93.75,
      "v": 100
    },
    {
      "midi": 64,
      "hit": false,
      "t": 177093.75,
      "d": 187.5,
      "v": 100
    },
    {
      "midi": 52,
      "hit": false,
      "t": 177093.75,
      "d": 93.75,
      "v": 100
    },
    {
      "midi": 64,
      "hit": false,
      "t": 177093.75,
      "d": 187.5,
      "v": 100
    },
    {
      "midi": 40,
      "hit": false,
      "t": 177187.5,
      "d": 140.625,
      "v": 100
    },
    {
      "midi": 36,
      "hit": false,
      "t": 177187.5,
      "d": 0.78125,
      "v": 100
    },
    {
      "midi": 64,
      "hit": false,
      "t": 177281.25,
      "d": 93.75,
      "v": 100
    },
    {
      "midi": 64,
      "hit": false,
      "t": 177281.25,
      "d": 93.75,
      "v": 100
    },
    {
      "midi": 64,
      "hit": false,
      "t": 177375,
      "d": 93.75,
      "v": 100
    },
    {
      "midi": 38,
      "hit": false,
      "t": 177375,
      "d": 140.625,
      "v": 100
    },
    {
      "midi": 40,
      "hit": false,
      "t": 177375,
      "d": 0.78125,
      "v": 100
    },
    {
      "midi": 55,
      "hit": false,
      "t": 177375,
      "d": 0.78125,
      "v": 100
    },
    {
      "midi": 64,
      "hit": false,
      "t": 177375,
      "d": 93.75,
      "v": 100
    },
    {
      "midi": 64,
      "hit": false,
      "t": 177468.75,
      "d": 187.5,
      "v": 100
    },
    {
      "midi": 55,
      "hit": false,
      "t": 177468.75,
      "d": 0.78125,
      "v": 100
    },
    {
      "midi": 64,
      "hit": false,
      "t": 177468.75,
      "d": 187.5,
      "v": 100
    },
    {
      "midi": 69,
      "hit": false,
      "t": 177562.5,
      "d": 93.75,
      "v": 100
    },
    {
      "midi": 49,
      "hit": false,
      "t": 177562.5,
      "d": 93.75,
      "v": 100
    },
    {
      "midi": 52,
      "hit": false,
      "t": 177562.5,
      "d": 93.75,
      "v": 100
    },
    {
      "midi": 52,
      "hit": false,
      "t": 177562.5,
      "d": 93.75,
      "v": 100
    },
    {
      "midi": 49,
      "hit": false,
      "t": 177562.5,
      "d": 93.75,
      "v": 100
    },
    {
      "midi": 40,
      "hit": false,
      "t": 177562.5,
      "d": 140.625,
      "v": 100
    },
    {
      "midi": 69,
      "hit": false,
      "t": 177562.5,
      "d": 93.75,
      "v": 100
    },
    {
      "midi": 69,
      "hit": false,
      "t": 177562.5,
      "d": 93.75,
      "v": 100
    },
    {
      "midi": 49,
      "hit": false,
      "t": 177562.5,
      "d": 93.75,
      "v": 100
    },
    {
      "midi": 52,
      "hit": false,
      "t": 177562.5,
      "d": 93.75,
      "v": 100
    },
    {
      "midi": 52,
      "hit": false,
      "t": 177562.5,
      "d": 93.75,
      "v": 100
    },
    {
      "midi": 49,
      "hit": false,
      "t": 177562.5,
      "d": 93.75,
      "v": 100
    },
    {
      "midi": 71,
      "hit": false,
      "t": 177656.25,
      "d": 93.75,
      "v": 100
    },
    {
      "midi": 64,
      "hit": false,
      "t": 177656.25,
      "d": 93.75,
      "v": 100
    },
    {
      "midi": 69,
      "hit": false,
      "t": 177656.25,
      "d": 93.75,
      "v": 100
    },
    {
      "midi": 38,
      "hit": false,
      "t": 177656.25,
      "d": 0.78125,
      "v": 100
    },
    {
      "midi": 71,
      "hit": false,
      "t": 177656.25,
      "d": 93.75,
      "v": 100
    },
    {
      "midi": 64,
      "hit": false,
      "t": 177656.25,
      "d": 93.75,
      "v": 100
    },
    {
      "midi": 76,
      "hit": false,
      "t": 177750,
      "d": 281.25,
      "v": 100
    },
    {
      "midi": 64,
      "hit": false,
      "t": 177750,
      "d": 93.75,
      "v": 100
    },
    {
      "midi": 38,
      "hit": false,
      "t": 177750,
      "d": 140.625,
      "v": 100
    },
    {
      "midi": 69,
      "hit": false,
      "t": 177750,
      "d": 281.25,
      "v": 100
    },
    {
      "midi": 36,
      "hit": false,
      "t": 177750,
      "d": 0.78125,
      "v": 100
    },
    {
      "midi": 76,
      "hit": false,
      "t": 177750,
      "d": 281.25,
      "v": 100
    },
    {
      "midi": 64,
      "hit": false,
      "t": 177750,
      "d": 93.75,
      "v": 100
    },
    {
      "midi": 64,
      "hit": false,
      "t": 177843.75,
      "d": 187.5,
      "v": 100
    },
    {
      "midi": 38,
      "hit": false,
      "t": 177843.75,
      "d": 0.78125,
      "v": 100
    },
    {
      "midi": 64,
      "hit": false,
      "t": 177843.75,
      "d": 187.5,
      "v": 100
    },
    {
      "midi": 52,
      "hit": false,
      "t": 177937.5,
      "d": 93.75,
      "v": 100
    },
    {
      "midi": 49,
      "hit": false,
      "t": 177937.5,
      "d": 93.75,
      "v": 100
    },
    {
      "midi": 52,
      "hit": false,
      "t": 177937.5,
      "d": 187.5,
      "v": 100
    },
    {
      "midi": 49,
      "hit": false,
      "t": 177937.5,
      "d": 187.5,
      "v": 100
    },
    {
      "midi": 40,
      "hit": false,
      "t": 177937.5,
      "d": 140.625,
      "v": 100
    },
    {
      "midi": 36,
      "hit": false,
      "t": 177937.5,
      "d": 0.78125,
      "v": 100
    },
    {
      "midi": 52,
      "hit": false,
      "t": 177937.5,
      "d": 93.75,
      "v": 100
    },
    {
      "midi": 49,
      "hit": false,
      "t": 177937.5,
      "d": 93.75,
      "v": 100
    },
    {
      "midi": 52,
      "hit": false,
      "t": 177937.5,
      "d": 187.5,
      "v": 100
    },
    {
      "midi": 49,
      "hit": false,
      "t": 177937.5,
      "d": 187.5,
      "v": 100
    },
    {
      "midi": 74,
      "hit": false,
      "t": 178031.25,
      "d": 281.25,
      "v": 100
    },
    {
      "midi": 64,
      "hit": false,
      "t": 178031.25,
      "d": 93.75,
      "v": 100
    },
    {
      "midi": 69,
      "hit": false,
      "t": 178031.25,
      "d": 281.25,
      "v": 100
    },
    {
      "midi": 74,
      "hit": false,
      "t": 178031.25,
      "d": 281.25,
      "v": 100
    },
    {
      "midi": 64,
      "hit": false,
      "t": 178031.25,
      "d": 93.75,
      "v": 100
    },
    {
      "midi": 64,
      "hit": false,
      "t": 178125,
      "d": 93.75,
      "v": 100
    },
    {
      "midi": 52,
      "hit": false,
      "t": 178125,
      "d": 93.75,
      "v": 100
    },
    {
      "midi": 49,
      "hit": false,
      "t": 178125,
      "d": 93.75,
      "v": 100
    },
    {
      "midi": 38,
      "hit": false,
      "t": 178125,
      "d": 140.625,
      "v": 100
    },
    {
      "midi": 40,
      "hit": false,
      "t": 178125,
      "d": 0.78125,
      "v": 100
    },
    {
      "midi": 64,
      "hit": false,
      "t": 178125,
      "d": 93.75,
      "v": 100
    },
    {
      "midi": 52,
      "hit": false,
      "t": 178125,
      "d": 93.75,
      "v": 100
    },
    {
      "midi": 49,
      "hit": false,
      "t": 178125,
      "d": 93.75,
      "v": 100
    },
    {
      "midi": 64,
      "hit": false,
      "t": 178218.75,
      "d": 187.5,
      "v": 100
    },
    {
      "midi": 64,
      "hit": false,
      "t": 178218.75,
      "d": 187.5,
      "v": 100
    },
    {
      "midi": 76,
      "hit": false,
      "t": 178312.5,
      "d": 562.5,
      "v": 100
    },
    {
      "midi": 40,
      "hit": false,
      "t": 178312.5,
      "d": 140.625,
      "v": 100
    },
    {
      "midi": 71,
      "hit": false,
      "t": 178312.5,
      "d": 562.5,
      "v": 100
    },
    {
      "midi": 76,
      "hit": false,
      "t": 178312.5,
      "d": 562.5,
      "v": 100
    },
    {
      "midi": 64,
      "hit": false,
      "t": 178406.25,
      "d": 93.75,
      "v": 100
    },
    {
      "midi": 64,
      "hit": false,
      "t": 178406.25,
      "d": 93.75,
      "v": 100
    },
    {
      "midi": 45,
      "hit": false,
      "t": 178500,
      "d": 46.875,
      "v": 100
    },
    {
      "midi": 62,
      "hit": false,
      "t": 178500,
      "d": 93.75,
      "v": 100
    },
    {
      "midi": 49,
      "hit": false,
      "t": 178500,
      "d": 93.75,
      "v": 100
    },
    {
      "midi": 45,
      "hit": false,
      "t": 178500,
      "d": 93.75,
      "v": 100
    },
    {
      "midi": 42,
      "hit": false,
      "t": 178500,
      "d": 140.625,
      "v": 100
    },
    {
      "midi": 36,
      "hit": false,
      "t": 178500,
      "d": 0.78125,
      "v": 100
    },
    {
      "midi": 86,
      "hit": false,
      "t": 178500,
      "d": 187.5,
      "v": 100
    },
    {
      "midi": 45,
      "hit": false,
      "t": 178500,
      "d": 46.875,
      "v": 100
    },
    {
      "midi": 62,
      "hit": false,
      "t": 178500,
      "d": 93.75,
      "v": 100
    },
    {
      "midi": 49,
      "hit": false,
      "t": 178500,
      "d": 93.75,
      "v": 100
    },
    {
      "midi": 45,
      "hit": false,
      "t": 178500,
      "d": 93.75,
      "v": 100
    },
    {
      "midi": 49,
      "hit": false,
      "t": 178546.875,
      "d": 140.625,
      "v": 100
    },
    {
      "midi": 49,
      "hit": false,
      "t": 178546.875,
      "d": 140.625,
      "v": 100
    },
    {
      "midi": 52,
      "hit": false,
      "t": 178593.75,
      "d": 93.75,
      "v": 100
    },
    {
      "midi": 62,
      "hit": false,
      "t": 178593.75,
      "d": 187.5,
      "v": 100
    },
    {
      "midi": 52,
      "hit": false,
      "t": 178593.75,
      "d": 93.75,
      "v": 100
    },
    {
      "midi": 62,
      "hit": false,
      "t": 178593.75,
      "d": 187.5,
      "v": 100
    },
    {
      "midi": 42,
      "hit": false,
      "t": 178687.5,
      "d": 140.625,
      "v": 100
    },
    {
      "midi": 36,
      "hit": false,
      "t": 178687.5,
      "d": 0.78125,
      "v": 100
    },
    {
      "midi": 62,
      "hit": false,
      "t": 178781.25,
      "d": 93.75,
      "v": 100
    },
    {
      "midi": 62,
      "hit": false,
      "t": 178781.25,
      "d": 93.75,
      "v": 100
    },
    {
      "midi": 62,
      "hit": false,
      "t": 178875,
      "d": 93.75,
      "v": 100
    },
    {
      "midi": 40,
      "hit": false,
      "t": 178875,
      "d": 140.625,
      "v": 100
    },
    {
      "midi": 40,
      "hit": false,
      "t": 178875,
      "d": 0.78125,
      "v": 100
    },
    {
      "midi": 62,
      "hit": false,
      "t": 178875,
      "d": 93.75,
      "v": 100
    },
    {
      "midi": 62,
      "hit": false,
      "t": 178968.75,
      "d": 187.5,
      "v": 100
    },
    {
      "midi": 62,
      "hit": false,
      "t": 178968.75,
      "d": 187.5,
      "v": 100
    },
    {
      "midi": 49,
      "hit": false,
      "t": 179062.5,
      "d": 93.75,
      "v": 100
    },
    {
      "midi": 52,
      "hit": false,
      "t": 179062.5,
      "d": 93.75,
      "v": 100
    },
    {
      "midi": 49,
      "hit": false,
      "t": 179062.5,
      "d": 93.75,
      "v": 100
    },
    {
      "midi": 45,
      "hit": false,
      "t": 179062.5,
      "d": 93.75,
      "v": 100
    },
    {
      "midi": 42,
      "hit": false,
      "t": 179062.5,
      "d": 140.625,
      "v": 100
    },
    {
      "midi": 85,
      "hit": false,
      "t": 179062.5,
      "d": 187.5,
      "v": 100
    },
    {
      "midi": 49,
      "hit": false,
      "t": 179062.5,
      "d": 93.75,
      "v": 100
    },
    {
      "midi": 52,
      "hit": false,
      "t": 179062.5,
      "d": 93.75,
      "v": 100
    },
    {
      "midi": 49,
      "hit": false,
      "t": 179062.5,
      "d": 93.75,
      "v": 100
    },
    {
      "midi": 45,
      "hit": false,
      "t": 179062.5,
      "d": 93.75,
      "v": 100
    },
    {
      "midi": 62,
      "hit": false,
      "t": 179156.25,
      "d": 93.75,
      "v": 100
    },
    {
      "midi": 38,
      "hit": false,
      "t": 179156.25,
      "d": 0.78125,
      "v": 100
    },
    {
      "midi": 62,
      "hit": false,
      "t": 179156.25,
      "d": 93.75,
      "v": 100
    },
    {
      "midi": 61,
      "hit": false,
      "t": 179250,
      "d": 93.75,
      "v": 100
    },
    {
      "midi": 40,
      "hit": false,
      "t": 179250,
      "d": 140.625,
      "v": 100
    },
    {
      "midi": 36,
      "hit": false,
      "t": 179250,
      "d": 0.78125,
      "v": 100
    },
    {
      "midi": 61,
      "hit": false,
      "t": 179250,
      "d": 93.75,
      "v": 100
    },
    {
      "midi": 61,
      "hit": false,
      "t": 179343.75,
      "d": 187.5,
      "v": 100
    },
    {
      "midi": 38,
      "hit": false,
      "t": 179343.75,
      "d": 0.78125,
      "v": 100
    },
    {
      "midi": 61,
      "hit": false,
      "t": 179343.75,
      "d": 187.5,
      "v": 100
    },
    {
      "midi": 73,
      "hit": false,
      "t": 179437.5,
      "d": 187.5,
      "v": 100
    },
    {
      "midi": 52,
      "hit": false,
      "t": 179437.5,
      "d": 93.75,
      "v": 100
    },
    {
      "midi": 49,
      "hit": false,
      "t": 179437.5,
      "d": 93.75,
      "v": 100
    },
    {
      "midi": 49,
      "hit": false,
      "t": 179437.5,
      "d": 187.5,
      "v": 100
    },
    {
      "midi": 45,
      "hit": false,
      "t": 179437.5,
      "d": 187.5,
      "v": 100
    },
    {
      "midi": 42,
      "hit": false,
      "t": 179437.5,
      "d": 140.625,
      "v": 100
    },
    {
      "midi": 36,
      "hit": false,
      "t": 179437.5,
      "d": 0.78125,
      "v": 100
    },
    {
      "midi": 73,
      "hit": false,
      "t": 179437.5,
      "d": 187.5,
      "v": 100
    },
    {
      "midi": 52,
      "hit": false,
      "t": 179437.5,
      "d": 93.75,
      "v": 100
    },
    {
      "midi": 49,
      "hit": false,
      "t": 179437.5,
      "d": 93.75,
      "v": 100
    },
    {
      "midi": 49,
      "hit": false,
      "t": 179437.5,
      "d": 187.5,
      "v": 100
    },
    {
      "midi": 45,
      "hit": false,
      "t": 179437.5,
      "d": 187.5,
      "v": 100
    },
    {
      "midi": 61,
      "hit": false,
      "t": 179531.25,
      "d": 93.75,
      "v": 100
    },
    {
      "midi": 61,
      "hit": false,
      "t": 179531.25,
      "d": 93.75,
      "v": 100
    },
    {
      "midi": 74,
      "hit": false,
      "t": 179625,
      "d": 187.5,
      "v": 100
    },
    {
      "midi": 61,
      "hit": false,
      "t": 179625,
      "d": 93.75,
      "v": 100
    },
    {
      "midi": 52,
      "hit": false,
      "t": 179625,
      "d": 93.75,
      "v": 100
    },
    {
      "midi": 49,
      "hit": false,
      "t": 179625,
      "d": 93.75,
      "v": 100
    },
    {
      "midi": 40,
      "hit": false,
      "t": 179625,
      "d": 140.625,
      "v": 100
    },
    {
      "midi": 40,
      "hit": false,
      "t": 179625,
      "d": 0.78125,
      "v": 100
    },
    {
      "midi": 74,
      "hit": false,
      "t": 179625,
      "d": 187.5,
      "v": 100
    },
    {
      "midi": 61,
      "hit": false,
      "t": 179625,
      "d": 93.75,
      "v": 100
    },
    {
      "midi": 52,
      "hit": false,
      "t": 179625,
      "d": 93.75,
      "v": 100
    },
    {
      "midi": 49,
      "hit": false,
      "t": 179625,
      "d": 93.75,
      "v": 100
    },
    {
      "midi": 61,
      "hit": false,
      "t": 179718.75,
      "d": 187.5,
      "v": 100
    },
    {
      "midi": 61,
      "hit": false,
      "t": 179718.75,
      "d": 187.5,
      "v": 100
    },
    {
      "midi": 76,
      "hit": false,
      "t": 179812.5,
      "d": 187.5,
      "v": 100
    },
    {
      "midi": 42,
      "hit": false,
      "t": 179812.5,
      "d": 140.625,
      "v": 100
    },
    {
      "midi": 76,
      "hit": false,
      "t": 179812.5,
      "d": 187.5,
      "v": 100
    },
    {
      "midi": 61,
      "hit": false,
      "t": 179906.25,
      "d": 93.75,
      "v": 100
    },
    {
      "midi": 61,
      "hit": false,
      "t": 179906.25,
      "d": 93.75,
      "v": 100
    },
    {
      "midi": 81,
      "hit": false,
      "t": 180000,
      "d": 515.625,
      "v": 100
    },
    {
      "midi": 45,
      "hit": false,
      "t": 180000,
      "d": 46.875,
      "v": 100
    },
    {
      "midi": 64,
      "hit": false,
      "t": 180000,
      "d": 93.75,
      "v": 100
    },
    {
      "midi": 52,
      "hit": false,
      "t": 180000,
      "d": 93.75,
      "v": 100
    },
    {
      "midi": 49,
      "hit": false,
      "t": 180000,
      "d": 93.75,
      "v": 100
    },
    {
      "midi": 43,
      "hit": false,
      "t": 180000,
      "d": 140.625,
      "v": 100
    },
    {
      "midi": 36,
      "hit": false,
      "t": 180000,
      "d": 0.78125,
      "v": 100
    },
    {
      "midi": 88,
      "hit": false,
      "t": 180000,
      "d": 187.5,
      "v": 100
    },
    {
      "midi": 81,
      "hit": false,
      "t": 180000,
      "d": 515.625,
      "v": 100
    },
    {
      "midi": 45,
      "hit": false,
      "t": 180000,
      "d": 46.875,
      "v": 100
    },
    {
      "midi": 64,
      "hit": false,
      "t": 180000,
      "d": 93.75,
      "v": 100
    },
    {
      "midi": 52,
      "hit": false,
      "t": 180000,
      "d": 93.75,
      "v": 100
    },
    {
      "midi": 49,
      "hit": false,
      "t": 180000,
      "d": 93.75,
      "v": 100
    },
    {
      "midi": 49,
      "hit": false,
      "t": 180046.875,
      "d": 140.625,
      "v": 100
    },
    {
      "midi": 49,
      "hit": false,
      "t": 180046.875,
      "d": 140.625,
      "v": 100
    },
    {
      "midi": 52,
      "hit": false,
      "t": 180093.75,
      "d": 93.75,
      "v": 100
    },
    {
      "midi": 64,
      "hit": false,
      "t": 180093.75,
      "d": 187.5,
      "v": 100
    },
    {
      "midi": 52,
      "hit": false,
      "t": 180093.75,
      "d": 93.75,
      "v": 100
    },
    {
      "midi": 64,
      "hit": false,
      "t": 180093.75,
      "d": 187.5,
      "v": 100
    },
    {
      "midi": 43,
      "hit": false,
      "t": 180187.5,
      "d": 140.625,
      "v": 100
    },
    {
      "midi": 36,
      "hit": false,
      "t": 180187.5,
      "d": 0.78125,
      "v": 100
    },
    {
      "midi": 64,
      "hit": false,
      "t": 180281.25,
      "d": 93.75,
      "v": 100
    },
    {
      "midi": 64,
      "hit": false,
      "t": 180281.25,
      "d": 93.75,
      "v": 100
    },
    {
      "midi": 64,
      "hit": false,
      "t": 180375,
      "d": 93.75,
      "v": 100
    },
    {
      "midi": 45,
      "hit": false,
      "t": 180375,
      "d": 140.625,
      "v": 100
    },
    {
      "midi": 40,
      "hit": false,
      "t": 180375,
      "d": 0.78125,
      "v": 100
    },
    {
      "midi": 64,
      "hit": false,
      "t": 180375,
      "d": 93.75,
      "v": 100
    },
    {
      "midi": 64,
      "hit": false,
      "t": 180468.75,
      "d": 187.5,
      "v": 100
    },
    {
      "midi": 64,
      "hit": false,
      "t": 180468.75,
      "d": 187.5,
      "v": 100
    },
    {
      "midi": 81,
      "hit": false,
      "t": 180562.5,
      "d": 187.5,
      "v": 100
    },
    {
      "midi": 49,
      "hit": false,
      "t": 180562.5,
      "d": 93.75,
      "v": 100
    },
    {
      "midi": 52,
      "hit": false,
      "t": 180562.5,
      "d": 93.75,
      "v": 100
    },
    {
      "midi": 52,
      "hit": false,
      "t": 180562.5,
      "d": 93.75,
      "v": 100
    },
    {
      "midi": 49,
      "hit": false,
      "t": 180562.5,
      "d": 93.75,
      "v": 100
    },
    {
      "midi": 43,
      "hit": false,
      "t": 180562.5,
      "d": 140.625,
      "v": 100
    },
    {
      "midi": 81,
      "hit": false,
      "t": 180562.5,
      "d": 187.5,
      "v": 100
    },
    {
      "midi": 49,
      "hit": false,
      "t": 180562.5,
      "d": 93.75,
      "v": 100
    },
    {
      "midi": 52,
      "hit": false,
      "t": 180562.5,
      "d": 93.75,
      "v": 100
    },
    {
      "midi": 52,
      "hit": false,
      "t": 180562.5,
      "d": 93.75,
      "v": 100
    },
    {
      "midi": 49,
      "hit": false,
      "t": 180562.5,
      "d": 93.75,
      "v": 100
    },
    {
      "midi": 64,
      "hit": false,
      "t": 180656.25,
      "d": 93.75,
      "v": 100
    },
    {
      "midi": 38,
      "hit": false,
      "t": 180656.25,
      "d": 0.78125,
      "v": 100
    },
    {
      "midi": 64,
      "hit": false,
      "t": 180656.25,
      "d": 93.75,
      "v": 100
    },
    {
      "midi": 79,
      "hit": false,
      "t": 180750,
      "d": 187.5,
      "v": 100
    },
    {
      "midi": 64,
      "hit": false,
      "t": 180750,
      "d": 93.75,
      "v": 100
    },
    {
      "midi": 45,
      "hit": false,
      "t": 180750,
      "d": 140.625,
      "v": 100
    },
    {
      "midi": 36,
      "hit": false,
      "t": 180750,
      "d": 0.78125,
      "v": 100
    },
    {
      "midi": 79,
      "hit": false,
      "t": 180750,
      "d": 187.5,
      "v": 100
    },
    {
      "midi": 64,
      "hit": false,
      "t": 180750,
      "d": 93.75,
      "v": 100
    },
    {
      "midi": 64,
      "hit": false,
      "t": 180843.75,
      "d": 187.5,
      "v": 100
    },
    {
      "midi": 38,
      "hit": false,
      "t": 180843.75,
      "d": 0.78125,
      "v": 100
    },
    {
      "midi": 64,
      "hit": false,
      "t": 180843.75,
      "d": 187.5,
      "v": 100
    },
    {
      "midi": 78,
      "hit": false,
      "t": 180937.5,
      "d": 375,
      "v": 100
    },
    {
      "midi": 52,
      "hit": false,
      "t": 180937.5,
      "d": 93.75,
      "v": 100
    },
    {
      "midi": 49,
      "hit": false,
      "t": 180937.5,
      "d": 93.75,
      "v": 100
    },
    {
      "midi": 52,
      "hit": false,
      "t": 180937.5,
      "d": 187.5,
      "v": 100
    },
    {
      "midi": 49,
      "hit": false,
      "t": 180937.5,
      "d": 187.5,
      "v": 100
    },
    {
      "midi": 47,
      "hit": false,
      "t": 180937.5,
      "d": 140.625,
      "v": 100
    },
    {
      "midi": 36,
      "hit": false,
      "t": 180937.5,
      "d": 0.78125,
      "v": 100
    },
    {
      "midi": 78,
      "hit": false,
      "t": 180937.5,
      "d": 375,
      "v": 100
    },
    {
      "midi": 52,
      "hit": false,
      "t": 180937.5,
      "d": 93.75,
      "v": 100
    },
    {
      "midi": 49,
      "hit": false,
      "t": 180937.5,
      "d": 93.75,
      "v": 100
    },
    {
      "midi": 52,
      "hit": false,
      "t": 180937.5,
      "d": 187.5,
      "v": 100
    },
    {
      "midi": 49,
      "hit": false,
      "t": 180937.5,
      "d": 187.5,
      "v": 100
    },
    {
      "midi": 64,
      "hit": false,
      "t": 181031.25,
      "d": 93.75,
      "v": 100
    },
    {
      "midi": 64,
      "hit": false,
      "t": 181031.25,
      "d": 93.75,
      "v": 100
    },
    {
      "midi": 64,
      "hit": false,
      "t": 181125,
      "d": 93.75,
      "v": 100
    },
    {
      "midi": 52,
      "hit": false,
      "t": 181125,
      "d": 93.75,
      "v": 100
    },
    {
      "midi": 49,
      "hit": false,
      "t": 181125,
      "d": 93.75,
      "v": 100
    },
    {
      "midi": 45,
      "hit": false,
      "t": 181125,
      "d": 140.625,
      "v": 100
    },
    {
      "midi": 40,
      "hit": false,
      "t": 181125,
      "d": 0.78125,
      "v": 100
    },
    {
      "midi": 64,
      "hit": false,
      "t": 181125,
      "d": 93.75,
      "v": 100
    },
    {
      "midi": 52,
      "hit": false,
      "t": 181125,
      "d": 93.75,
      "v": 100
    },
    {
      "midi": 49,
      "hit": false,
      "t": 181125,
      "d": 93.75,
      "v": 100
    },
    {
      "midi": 64,
      "hit": false,
      "t": 181218.75,
      "d": 187.5,
      "v": 100
    },
    {
      "midi": 64,
      "hit": false,
      "t": 181218.75,
      "d": 187.5,
      "v": 100
    },
    {
      "midi": 74,
      "hit": false,
      "t": 181312.5,
      "d": 656.25,
      "v": 100
    },
    {
      "midi": 43,
      "hit": false,
      "t": 181312.5,
      "d": 140.625,
      "v": 100
    },
    {
      "midi": 74,
      "hit": false,
      "t": 181312.5,
      "d": 656.25,
      "v": 100
    },
    {
      "midi": 64,
      "hit": false,
      "t": 181406.25,
      "d": 93.75,
      "v": 100
    },
    {
      "midi": 64,
      "hit": false,
      "t": 181406.25,
      "d": 93.75,
      "v": 100
    },
    {
      "midi": 45,
      "hit": false,
      "t": 181500,
      "d": 46.875,
      "v": 100
    },
    {
      "midi": 64,
      "hit": false,
      "t": 181500,
      "d": 93.75,
      "v": 100
    },
    {
      "midi": 52,
      "hit": false,
      "t": 181500,
      "d": 93.75,
      "v": 100
    },
    {
      "midi": 49,
      "hit": false,
      "t": 181500,
      "d": 93.75,
      "v": 100
    },
    {
      "midi": 43,
      "hit": false,
      "t": 181500,
      "d": 140.625,
      "v": 100
    },
    {
      "midi": 36,
      "hit": false,
      "t": 181500,
      "d": 0.78125,
      "v": 100
    },
    {
      "midi": 45,
      "hit": false,
      "t": 181500,
      "d": 46.875,
      "v": 100
    },
    {
      "midi": 64,
      "hit": false,
      "t": 181500,
      "d": 93.75,
      "v": 100
    },
    {
      "midi": 52,
      "hit": false,
      "t": 181500,
      "d": 93.75,
      "v": 100
    },
    {
      "midi": 49,
      "hit": false,
      "t": 181500,
      "d": 93.75,
      "v": 100
    },
    {
      "midi": 49,
      "hit": false,
      "t": 181546.875,
      "d": 140.625,
      "v": 100
    },
    {
      "midi": 49,
      "hit": false,
      "t": 181546.875,
      "d": 140.625,
      "v": 100
    },
    {
      "midi": 52,
      "hit": false,
      "t": 181593.75,
      "d": 93.75,
      "v": 100
    },
    {
      "midi": 64,
      "hit": false,
      "t": 181593.75,
      "d": 187.5,
      "v": 100
    },
    {
      "midi": 52,
      "hit": false,
      "t": 181593.75,
      "d": 93.75,
      "v": 100
    },
    {
      "midi": 64,
      "hit": false,
      "t": 181593.75,
      "d": 187.5,
      "v": 100
    },
    {
      "midi": 43,
      "hit": false,
      "t": 181687.5,
      "d": 515.625,
      "v": 100
    },
    {
      "midi": 36,
      "hit": false,
      "t": 181687.5,
      "d": 0.78125,
      "v": 100
    },
    {
      "midi": 64,
      "hit": false,
      "t": 181781.25,
      "d": 93.75,
      "v": 100
    },
    {
      "midi": 64,
      "hit": false,
      "t": 181781.25,
      "d": 93.75,
      "v": 100
    },
    {
      "midi": 64,
      "hit": false,
      "t": 181875,
      "d": 93.75,
      "v": 100
    },
    {
      "midi": 40,
      "hit": false,
      "t": 181875,
      "d": 0.78125,
      "v": 100
    },
    {
      "midi": 57,
      "hit": false,
      "t": 181875,
      "d": 0.78125,
      "v": 100
    },
    {
      "midi": 64,
      "hit": false,
      "t": 181875,
      "d": 93.75,
      "v": 100
    },
    {
      "midi": 64,
      "hit": false,
      "t": 181968.75,
      "d": 187.5,
      "v": 100
    },
    {
      "midi": 57,
      "hit": false,
      "t": 181968.75,
      "d": 0.78125,
      "v": 100
    },
    {
      "midi": 64,
      "hit": false,
      "t": 181968.75,
      "d": 187.5,
      "v": 100
    },
    {
      "midi": 74,
      "hit": false,
      "t": 182062.5,
      "d": 140.625,
      "v": 100
    },
    {
      "midi": 74,
      "hit": false,
      "t": 182062.5,
      "d": 375,
      "v": 100
    },
    {
      "midi": 49,
      "hit": false,
      "t": 182062.5,
      "d": 93.75,
      "v": 100
    },
    {
      "midi": 52,
      "hit": false,
      "t": 182062.5,
      "d": 93.75,
      "v": 100
    },
    {
      "midi": 52,
      "hit": false,
      "t": 182062.5,
      "d": 93.75,
      "v": 100
    },
    {
      "midi": 49,
      "hit": false,
      "t": 182062.5,
      "d": 93.75,
      "v": 100
    },
    {
      "midi": 74,
      "hit": false,
      "t": 182062.5,
      "d": 140.625,
      "v": 100
    },
    {
      "midi": 55,
      "hit": false,
      "t": 182062.5,
      "d": 0.78125,
      "v": 100
    },
    {
      "midi": 74,
      "hit": false,
      "t": 182062.5,
      "d": 140.625,
      "v": 100
    },
    {
      "midi": 74,
      "hit": false,
      "t": 182062.5,
      "d": 375,
      "v": 100
    },
    {
      "midi": 49,
      "hit": false,
      "t": 182062.5,
      "d": 93.75,
      "v": 100
    },
    {
      "midi": 52,
      "hit": false,
      "t": 182062.5,
      "d": 93.75,
      "v": 100
    },
    {
      "midi": 52,
      "hit": false,
      "t": 182062.5,
      "d": 93.75,
      "v": 100
    },
    {
      "midi": 49,
      "hit": false,
      "t": 182062.5,
      "d": 93.75,
      "v": 100
    },
    {
      "midi": 64,
      "hit": false,
      "t": 182156.25,
      "d": 93.75,
      "v": 100
    },
    {
      "midi": 38,
      "hit": false,
      "t": 182156.25,
      "d": 0.78125,
      "v": 100
    },
    {
      "midi": 64,
      "hit": false,
      "t": 182156.25,
      "d": 93.75,
      "v": 100
    },
    {
      "midi": 74,
      "hit": false,
      "t": 182250,
      "d": 375,
      "v": 100
    },
    {
      "midi": 64,
      "hit": false,
      "t": 182250,
      "d": 93.75,
      "v": 100
    },
    {
      "midi": 43,
      "hit": false,
      "t": 182250,
      "d": 140.625,
      "v": 100
    },
    {
      "midi": 74,
      "hit": false,
      "t": 182250,
      "d": 375,
      "v": 100
    },
    {
      "midi": 36,
      "hit": false,
      "t": 182250,
      "d": 0.78125,
      "v": 100
    },
    {
      "midi": 88,
      "hit": false,
      "t": 182250,
      "d": 187.5,
      "v": 100
    },
    {
      "midi": 74,
      "hit": false,
      "t": 182250,
      "d": 375,
      "v": 100
    },
    {
      "midi": 64,
      "hit": false,
      "t": 182250,
      "d": 93.75,
      "v": 100
    },
    {
      "midi": 64,
      "hit": false,
      "t": 182343.75,
      "d": 187.5,
      "v": 100
    },
    {
      "midi": 38,
      "hit": false,
      "t": 182343.75,
      "d": 0.78125,
      "v": 100
    },
    {
      "midi": 64,
      "hit": false,
      "t": 182343.75,
      "d": 187.5,
      "v": 100
    },
    {
      "midi": 73,
      "hit": false,
      "t": 182437.5,
      "d": 2062.5,
      "v": 100
    },
    {
      "midi": 52,
      "hit": false,
      "t": 182437.5,
      "d": 93.75,
      "v": 100
    },
    {
      "midi": 49,
      "hit": false,
      "t": 182437.5,
      "d": 93.75,
      "v": 100
    },
    {
      "midi": 52,
      "hit": false,
      "t": 182437.5,
      "d": 187.5,
      "v": 100
    },
    {
      "midi": 49,
      "hit": false,
      "t": 182437.5,
      "d": 187.5,
      "v": 100
    },
    {
      "midi": 43,
      "hit": false,
      "t": 182437.5,
      "d": 515.625,
      "v": 100
    },
    {
      "midi": 36,
      "hit": false,
      "t": 182437.5,
      "d": 0.78125,
      "v": 100
    },
    {
      "midi": 86,
      "hit": false,
      "t": 182437.5,
      "d": 187.5,
      "v": 100
    },
    {
      "midi": 73,
      "hit": false,
      "t": 182437.5,
      "d": 2062.5,
      "v": 100
    },
    {
      "midi": 52,
      "hit": false,
      "t": 182437.5,
      "d": 93.75,
      "v": 100
    },
    {
      "midi": 49,
      "hit": false,
      "t": 182437.5,
      "d": 93.75,
      "v": 100
    },
    {
      "midi": 52,
      "hit": false,
      "t": 182437.5,
      "d": 187.5,
      "v": 100
    },
    {
      "midi": 49,
      "hit": false,
      "t": 182437.5,
      "d": 187.5,
      "v": 100
    },
    {
      "midi": 64,
      "hit": false,
      "t": 182531.25,
      "d": 93.75,
      "v": 100
    },
    {
      "midi": 64,
      "hit": false,
      "t": 182531.25,
      "d": 93.75,
      "v": 100
    },
    {
      "midi": 76,
      "hit": false,
      "t": 182625,
      "d": 187.5,
      "v": 100
    },
    {
      "midi": 64,
      "hit": false,
      "t": 182625,
      "d": 93.75,
      "v": 100
    },
    {
      "midi": 52,
      "hit": false,
      "t": 182625,
      "d": 93.75,
      "v": 100
    },
    {
      "midi": 49,
      "hit": false,
      "t": 182625,
      "d": 93.75,
      "v": 100
    },
    {
      "midi": 74,
      "hit": false,
      "t": 182625,
      "d": 187.5,
      "v": 100
    },
    {
      "midi": 40,
      "hit": false,
      "t": 182625,
      "d": 0.78125,
      "v": 100
    },
    {
      "midi": 85,
      "hit": false,
      "t": 182625,
      "d": 187.5,
      "v": 100
    },
    {
      "midi": 76,
      "hit": false,
      "t": 182625,
      "d": 187.5,
      "v": 100
    },
    {
      "midi": 64,
      "hit": false,
      "t": 182625,
      "d": 93.75,
      "v": 100
    },
    {
      "midi": 52,
      "hit": false,
      "t": 182625,
      "d": 93.75,
      "v": 100
    },
    {
      "midi": 49,
      "hit": false,
      "t": 182625,
      "d": 93.75,
      "v": 100
    },
    {
      "midi": 64,
      "hit": false,
      "t": 182718.75,
      "d": 187.5,
      "v": 100
    },
    {
      "midi": 64,
      "hit": false,
      "t": 182718.75,
      "d": 187.5,
      "v": 100
    },
    {
      "midi": 78,
      "hit": false,
      "t": 182812.5,
      "d": 140.625,
      "v": 100
    },
    {
      "midi": 74,
      "hit": false,
      "t": 182812.5,
      "d": 140.625,
      "v": 100
    },
    {
      "midi": 83,
      "hit": false,
      "t": 182812.5,
      "d": 187.5,
      "v": 100
    },
    {
      "midi": 78,
      "hit": false,
      "t": 182812.5,
      "d": 140.625,
      "v": 100
    },
    {
      "midi": 64,
      "hit": false,
      "t": 182906.25,
      "d": 93.75,
      "v": 100
    },
    {
      "midi": 64,
      "hit": false,
      "t": 182906.25,
      "d": 93.75,
      "v": 100
    },
    {
      "midi": 78,
      "hit": false,
      "t": 183000,
      "d": 890.625,
      "v": 100
    },
    {
      "midi": 45,
      "hit": false,
      "t": 183000,
      "d": 46.875,
      "v": 100
    },
    {
      "midi": 64,
      "hit": false,
      "t": 183000,
      "d": 93.75,
      "v": 100
    },
    {
      "midi": 52,
      "hit": false,
      "t": 183000,
      "d": 93.75,
      "v": 100
    },
    {
      "midi": 49,
      "hit": false,
      "t": 183000,
      "d": 93.75,
      "v": 100
    },
    {
      "midi": 42,
      "hit": false,
      "t": 183000,
      "d": 1453.125,
      "v": 100
    },
    {
      "midi": 74,
      "hit": false,
      "t": 183000,
      "d": 890.625,
      "v": 100
    },
    {
      "midi": 36,
      "hit": false,
      "t": 183000,
      "d": 0.78125,
      "v": 100
    },
    {
      "midi": 55,
      "hit": false,
      "t": 183000,
      "d": 0.78125,
      "v": 100
    },
    {
      "midi": 81,
      "hit": false,
      "t": 183000,
      "d": 187.5,
      "v": 100
    },
    {
      "midi": 78,
      "hit": false,
      "t": 183000,
      "d": 890.625,
      "v": 100
    },
    {
      "midi": 45,
      "hit": false,
      "t": 183000,
      "d": 46.875,
      "v": 100
    },
    {
      "midi": 64,
      "hit": false,
      "t": 183000,
      "d": 93.75,
      "v": 100
    },
    {
      "midi": 52,
      "hit": false,
      "t": 183000,
      "d": 93.75,
      "v": 100
    },
    {
      "midi": 49,
      "hit": false,
      "t": 183000,
      "d": 93.75,
      "v": 100
    },
    {
      "midi": 49,
      "hit": false,
      "t": 183046.875,
      "d": 140.625,
      "v": 100
    },
    {
      "midi": 49,
      "hit": false,
      "t": 183046.875,
      "d": 140.625,
      "v": 100
    },
    {
      "midi": 52,
      "hit": false,
      "t": 183093.75,
      "d": 93.75,
      "v": 100
    },
    {
      "midi": 64,
      "hit": false,
      "t": 183093.75,
      "d": 187.5,
      "v": 100
    },
    {
      "midi": 52,
      "hit": false,
      "t": 183093.75,
      "d": 93.75,
      "v": 100
    },
    {
      "midi": 64,
      "hit": false,
      "t": 183093.75,
      "d": 187.5,
      "v": 100
    },
    {
      "midi": 36,
      "hit": false,
      "t": 183187.5,
      "d": 0.78125,
      "v": 100
    },
    {
      "midi": 79,
      "hit": false,
      "t": 183187.5,
      "d": 187.5,
      "v": 100
    },
    {
      "midi": 64,
      "hit": false,
      "t": 183281.25,
      "d": 93.75,
      "v": 100
    },
    {
      "midi": 64,
      "hit": false,
      "t": 183281.25,
      "d": 93.75,
      "v": 100
    },
    {
      "midi": 64,
      "hit": false,
      "t": 183375,
      "d": 93.75,
      "v": 100
    },
    {
      "midi": 40,
      "hit": false,
      "t": 183375,
      "d": 0.78125,
      "v": 100
    },
    {
      "midi": 64,
      "hit": false,
      "t": 183375,
      "d": 93.75,
      "v": 100
    },
    {
      "midi": 64,
      "hit": false,
      "t": 183468.75,
      "d": 187.5,
      "v": 100
    },
    {
      "midi": 64,
      "hit": false,
      "t": 183468.75,
      "d": 187.5,
      "v": 100
    },
    {
      "midi": 49,
      "hit": false,
      "t": 183562.5,
      "d": 93.75,
      "v": 100
    },
    {
      "midi": 52,
      "hit": false,
      "t": 183562.5,
      "d": 93.75,
      "v": 100
    },
    {
      "midi": 52,
      "hit": false,
      "t": 183562.5,
      "d": 93.75,
      "v": 100
    },
    {
      "midi": 49,
      "hit": false,
      "t": 183562.5,
      "d": 93.75,
      "v": 100
    },
    {
      "midi": 49,
      "hit": false,
      "t": 183562.5,
      "d": 93.75,
      "v": 100
    },
    {
      "midi": 52,
      "hit": false,
      "t": 183562.5,
      "d": 93.75,
      "v": 100
    },
    {
      "midi": 52,
      "hit": false,
      "t": 183562.5,
      "d": 93.75,
      "v": 100
    },
    {
      "midi": 49,
      "hit": false,
      "t": 183562.5,
      "d": 93.75,
      "v": 100
    },
    {
      "midi": 64,
      "hit": false,
      "t": 183656.25,
      "d": 93.75,
      "v": 100
    },
    {
      "midi": 38,
      "hit": false,
      "t": 183656.25,
      "d": 0.78125,
      "v": 100
    },
    {
      "midi": 64,
      "hit": false,
      "t": 183656.25,
      "d": 93.75,
      "v": 100
    },
    {
      "midi": 64,
      "hit": false,
      "t": 183750,
      "d": 93.75,
      "v": 100
    },
    {
      "midi": 36,
      "hit": false,
      "t": 183750,
      "d": 0.78125,
      "v": 100
    },
    {
      "midi": 64,
      "hit": false,
      "t": 183750,
      "d": 93.75,
      "v": 100
    },
    {
      "midi": 64,
      "hit": false,
      "t": 183843.75,
      "d": 187.5,
      "v": 100
    },
    {
      "midi": 38,
      "hit": false,
      "t": 183843.75,
      "d": 0.78125,
      "v": 100
    },
    {
      "midi": 64,
      "hit": false,
      "t": 183843.75,
      "d": 187.5,
      "v": 100
    },
    {
      "midi": 78,
      "hit": false,
      "t": 183937.5,
      "d": 140.625,
      "v": 100
    },
    {
      "midi": 52,
      "hit": false,
      "t": 183937.5,
      "d": 93.75,
      "v": 100
    },
    {
      "midi": 49,
      "hit": false,
      "t": 183937.5,
      "d": 93.75,
      "v": 100
    },
    {
      "midi": 49,
      "hit": false,
      "t": 183937.5,
      "d": 93.75,
      "v": 100
    },
    {
      "midi": 52,
      "hit": false,
      "t": 183937.5,
      "d": 93.75,
      "v": 100
    },
    {
      "midi": 36,
      "hit": false,
      "t": 183937.5,
      "d": 0.78125,
      "v": 100
    },
    {
      "midi": 78,
      "hit": false,
      "t": 183937.5,
      "d": 140.625,
      "v": 100
    },
    {
      "midi": 52,
      "hit": false,
      "t": 183937.5,
      "d": 93.75,
      "v": 100
    },
    {
      "midi": 49,
      "hit": false,
      "t": 183937.5,
      "d": 93.75,
      "v": 100
    },
    {
      "midi": 49,
      "hit": false,
      "t": 183937.5,
      "d": 93.75,
      "v": 100
    },
    {
      "midi": 52,
      "hit": false,
      "t": 183937.5,
      "d": 93.75,
      "v": 100
    },
    {
      "midi": 64,
      "hit": false,
      "t": 184031.25,
      "d": 93.75,
      "v": 100
    },
    {
      "midi": 64,
      "hit": false,
      "t": 184031.25,
      "d": 93.75,
      "v": 100
    },
    {
      "midi": 78,
      "hit": false,
      "t": 184125,
      "d": 140.625,
      "v": 100
    },
    {
      "midi": 64,
      "hit": false,
      "t": 184125,
      "d": 93.75,
      "v": 100
    },
    {
      "midi": 52,
      "hit": false,
      "t": 184125,
      "d": 93.75,
      "v": 100
    },
    {
      "midi": 49,
      "hit": false,
      "t": 184125,
      "d": 93.75,
      "v": 100
    },
    {
      "midi": 52,
      "hit": false,
      "t": 184125,
      "d": 93.75,
      "v": 100
    },
    {
      "midi": 49,
      "hit": false,
      "t": 184125,
      "d": 93.75,
      "v": 100
    },
    {
      "midi": 40,
      "hit": false,
      "t": 184125,
      "d": 0.78125,
      "v": 100
    },
    {
      "midi": 78,
      "hit": false,
      "t": 184125,
      "d": 140.625,
      "v": 100
    },
    {
      "midi": 64,
      "hit": false,
      "t": 184125,
      "d": 93.75,
      "v": 100
    },
    {
      "midi": 52,
      "hit": false,
      "t": 184125,
      "d": 93.75,
      "v": 100
    },
    {
      "midi": 49,
      "hit": false,
      "t": 184125,
      "d": 93.75,
      "v": 100
    },
    {
      "midi": 52,
      "hit": false,
      "t": 184125,
      "d": 93.75,
      "v": 100
    },
    {
      "midi": 49,
      "hit": false,
      "t": 184125,
      "d": 93.75,
      "v": 100
    },
    {
      "midi": 64,
      "hit": false,
      "t": 184218.75,
      "d": 187.5,
      "v": 100
    },
    {
      "midi": 64,
      "hit": false,
      "t": 184218.75,
      "d": 187.5,
      "v": 100
    },
    {
      "midi": 78,
      "hit": false,
      "t": 184312.5,
      "d": 187.5,
      "v": 100
    },
    {
      "midi": 78,
      "hit": false,
      "t": 184312.5,
      "d": 187.5,
      "v": 100
    },
    {
      "midi": 64,
      "hit": false,
      "t": 184406.25,
      "d": 93.75,
      "v": 100
    },
    {
      "midi": 64,
      "hit": false,
      "t": 184406.25,
      "d": 93.75,
      "v": 100
    },
    {
      "midi": 79,
      "hit": false,
      "t": 184500,
      "d": 375,
      "v": 100
    },
    {
      "midi": 45,
      "hit": false,
      "t": 184500,
      "d": 46.875,
      "v": 100
    },
    {
      "midi": 62,
      "hit": false,
      "t": 184500,
      "d": 93.75,
      "v": 100
    },
    {
      "midi": 49,
      "hit": false,
      "t": 184500,
      "d": 93.75,
      "v": 100
    },
    {
      "midi": 45,
      "hit": false,
      "t": 184500,
      "d": 93.75,
      "v": 100
    },
    {
      "midi": 50,
      "hit": false,
      "t": 184500,
      "d": 1453.125,
      "v": 100
    },
    {
      "midi": 79,
      "hit": false,
      "t": 184500,
      "d": 750,
      "v": 100
    },
    {
      "midi": 36,
      "hit": false,
      "t": 184500,
      "d": 0.78125,
      "v": 100
    },
    {
      "midi": 88,
      "hit": false,
      "t": 184500,
      "d": 187.5,
      "v": 100
    },
    {
      "midi": 79,
      "hit": false,
      "t": 184500,
      "d": 375,
      "v": 100
    },
    {
      "midi": 45,
      "hit": false,
      "t": 184500,
      "d": 46.875,
      "v": 100
    },
    {
      "midi": 62,
      "hit": false,
      "t": 184500,
      "d": 93.75,
      "v": 100
    },
    {
      "midi": 49,
      "hit": false,
      "t": 184500,
      "d": 93.75,
      "v": 100
    },
    {
      "midi": 45,
      "hit": false,
      "t": 184500,
      "d": 93.75,
      "v": 100
    },
    {
      "midi": 49,
      "hit": false,
      "t": 184546.875,
      "d": 140.625,
      "v": 100
    },
    {
      "midi": 49,
      "hit": false,
      "t": 184546.875,
      "d": 140.625,
      "v": 100
    },
    {
      "midi": 52,
      "hit": false,
      "t": 184593.75,
      "d": 93.75,
      "v": 100
    },
    {
      "midi": 62,
      "hit": false,
      "t": 184593.75,
      "d": 187.5,
      "v": 100
    },
    {
      "midi": 52,
      "hit": false,
      "t": 184593.75,
      "d": 93.75,
      "v": 100
    },
    {
      "midi": 62,
      "hit": false,
      "t": 184593.75,
      "d": 187.5,
      "v": 100
    },
    {
      "midi": 36,
      "hit": false,
      "t": 184687.5,
      "d": 0.78125,
      "v": 100
    },
    {
      "midi": 62,
      "hit": false,
      "t": 184781.25,
      "d": 93.75,
      "v": 100
    },
    {
      "midi": 62,
      "hit": false,
      "t": 184781.25,
      "d": 93.75,
      "v": 100
    },
    {
      "midi": 81,
      "hit": false,
      "t": 184875,
      "d": 187.5,
      "v": 100
    },
    {
      "midi": 61,
      "hit": false,
      "t": 184875,
      "d": 93.75,
      "v": 100
    },
    {
      "midi": 38,
      "hit": false,
      "t": 184875,
      "d": 0.78125,
      "v": 100
    },
    {
      "midi": 81,
      "hit": false,
      "t": 184875,
      "d": 187.5,
      "v": 100
    },
    {
      "midi": 61,
      "hit": false,
      "t": 184875,
      "d": 93.75,
      "v": 100
    },
    {
      "midi": 61,
      "hit": false,
      "t": 184968.75,
      "d": 187.5,
      "v": 100
    },
    {
      "midi": 61,
      "hit": false,
      "t": 184968.75,
      "d": 187.5,
      "v": 100
    },
    {
      "midi": 79,
      "hit": false,
      "t": 185062.5,
      "d": 375,
      "v": 100
    },
    {
      "midi": 49,
      "hit": false,
      "t": 185062.5,
      "d": 93.75,
      "v": 100
    },
    {
      "midi": 52,
      "hit": false,
      "t": 185062.5,
      "d": 93.75,
      "v": 100
    },
    {
      "midi": 49,
      "hit": false,
      "t": 185062.5,
      "d": 93.75,
      "v": 100
    },
    {
      "midi": 45,
      "hit": false,
      "t": 185062.5,
      "d": 93.75,
      "v": 100
    },
    {
      "midi": 90,
      "hit": false,
      "t": 185062.5,
      "d": 187.5,
      "v": 100
    },
    {
      "midi": 79,
      "hit": false,
      "t": 185062.5,
      "d": 375,
      "v": 100
    },
    {
      "midi": 49,
      "hit": false,
      "t": 185062.5,
      "d": 93.75,
      "v": 100
    },
    {
      "midi": 52,
      "hit": false,
      "t": 185062.5,
      "d": 93.75,
      "v": 100
    },
    {
      "midi": 49,
      "hit": false,
      "t": 185062.5,
      "d": 93.75,
      "v": 100
    },
    {
      "midi": 45,
      "hit": false,
      "t": 185062.5,
      "d": 93.75,
      "v": 100
    },
    {
      "midi": 61,
      "hit": false,
      "t": 185156.25,
      "d": 93.75,
      "v": 100
    },
    {
      "midi": 61,
      "hit": false,
      "t": 185156.25,
      "d": 93.75,
      "v": 100
    },
    {
      "midi": 78,
      "hit": false,
      "t": 185250,
      "d": 750,
      "v": 100
    },
    {
      "midi": 61,
      "hit": false,
      "t": 185250,
      "d": 93.75,
      "v": 100
    },
    {
      "midi": 78,
      "hit": false,
      "t": 185250,
      "d": 750,
      "v": 100
    },
    {
      "midi": 36,
      "hit": false,
      "t": 185250,
      "d": 0.78125,
      "v": 100
    },
    {
      "midi": 40,
      "hit": false,
      "t": 185250,
      "d": 0.78125,
      "v": 100
    },
    {
      "midi": 78,
      "hit": false,
      "t": 185250,
      "d": 750,
      "v": 100
    },
    {
      "midi": 61,
      "hit": false,
      "t": 185250,
      "d": 93.75,
      "v": 100
    },
    {
      "midi": 61,
      "hit": false,
      "t": 185343.75,
      "d": 187.5,
      "v": 100
    },
    {
      "midi": 61,
      "hit": false,
      "t": 185343.75,
      "d": 187.5,
      "v": 100
    },
    {
      "midi": 78,
      "hit": false,
      "t": 185437.5,
      "d": 187.5,
      "v": 100
    },
    {
      "midi": 52,
      "hit": false,
      "t": 185437.5,
      "d": 93.75,
      "v": 100
    },
    {
      "midi": 49,
      "hit": false,
      "t": 185437.5,
      "d": 93.75,
      "v": 100
    },
    {
      "midi": 49,
      "hit": false,
      "t": 185437.5,
      "d": 187.5,
      "v": 100
    },
    {
      "midi": 45,
      "hit": false,
      "t": 185437.5,
      "d": 187.5,
      "v": 100
    },
    {
      "midi": 38,
      "hit": false,
      "t": 185437.5,
      "d": 0.78125,
      "v": 100
    },
    {
      "midi": 78,
      "hit": false,
      "t": 185437.5,
      "d": 187.5,
      "v": 100
    },
    {
      "midi": 52,
      "hit": false,
      "t": 185437.5,
      "d": 93.75,
      "v": 100
    },
    {
      "midi": 49,
      "hit": false,
      "t": 185437.5,
      "d": 93.75,
      "v": 100
    },
    {
      "midi": 49,
      "hit": false,
      "t": 185437.5,
      "d": 187.5,
      "v": 100
    },
    {
      "midi": 45,
      "hit": false,
      "t": 185437.5,
      "d": 187.5,
      "v": 100
    },
    {
      "midi": 61,
      "hit": false,
      "t": 185531.25,
      "d": 93.75,
      "v": 100
    },
    {
      "midi": 61,
      "hit": false,
      "t": 185531.25,
      "d": 93.75,
      "v": 100
    },
    {
      "midi": 76,
      "hit": false,
      "t": 185625,
      "d": 187.5,
      "v": 100
    },
    {
      "midi": 61,
      "hit": false,
      "t": 185625,
      "d": 93.75,
      "v": 100
    },
    {
      "midi": 52,
      "hit": false,
      "t": 185625,
      "d": 93.75,
      "v": 100
    },
    {
      "midi": 49,
      "hit": false,
      "t": 185625,
      "d": 93.75,
      "v": 100
    },
    {
      "midi": 36,
      "hit": false,
      "t": 185625,
      "d": 0.78125,
      "v": 100
    },
    {
      "midi": 40,
      "hit": false,
      "t": 185625,
      "d": 0.78125,
      "v": 100
    },
    {
      "midi": 76,
      "hit": false,
      "t": 185625,
      "d": 187.5,
      "v": 100
    },
    {
      "midi": 61,
      "hit": false,
      "t": 185625,
      "d": 93.75,
      "v": 100
    },
    {
      "midi": 52,
      "hit": false,
      "t": 185625,
      "d": 93.75,
      "v": 100
    },
    {
      "midi": 49,
      "hit": false,
      "t": 185625,
      "d": 93.75,
      "v": 100
    },
    {
      "midi": 61,
      "hit": false,
      "t": 185718.75,
      "d": 187.5,
      "v": 100
    },
    {
      "midi": 38,
      "hit": false,
      "t": 185718.75,
      "d": 0.78125,
      "v": 100
    },
    {
      "midi": 61,
      "hit": false,
      "t": 185718.75,
      "d": 187.5,
      "v": 100
    },
    {
      "midi": 74,
      "hit": false,
      "t": 185812.5,
      "d": 187.5,
      "v": 100
    },
    {
      "midi": 40,
      "hit": false,
      "t": 185812.5,
      "d": 0.78125,
      "v": 100
    },
    {
      "midi": 74,
      "hit": false,
      "t": 185812.5,
      "d": 187.5,
      "v": 100
    },
    {
      "midi": 61,
      "hit": false,
      "t": 185906.25,
      "d": 93.75,
      "v": 100
    },
    {
      "midi": 38,
      "hit": false,
      "t": 185906.25,
      "d": 0.78125,
      "v": 100
    },
    {
      "midi": 61,
      "hit": false,
      "t": 185906.25,
      "d": 93.75,
      "v": 100
    },
    {
      "midi": 38,
      "hit": false,
      "t": 185953.125,
      "d": 0.78125,
      "v": 100
    },
    {
      "midi": 76,
      "hit": false,
      "t": 186000,
      "d": 1312.5,
      "v": 100
    },
    {
      "midi": 76,
      "hit": false,
      "t": 186000,
      "d": 3000,
      "v": 100
    },
    {
      "midi": 49,
      "hit": false,
      "t": 186000,
      "d": 187.5,
      "v": 100
    },
    {
      "midi": 45,
      "hit": false,
      "t": 186000,
      "d": 187.5,
      "v": 100
    },
    {
      "midi": 49,
      "hit": false,
      "t": 186000,
      "d": 1453.125,
      "v": 100
    },
    {
      "midi": 76,
      "hit": false,
      "t": 186000,
      "d": 3000,
      "v": 100
    },
    {
      "midi": 76,
      "hit": false,
      "t": 186000,
      "d": 187.5,
      "v": 100
    },
    {
      "midi": 36,
      "hit": false,
      "t": 186000,
      "d": 0.78125,
      "v": 100
    },
    {
      "midi": 40,
      "hit": false,
      "t": 186000,
      "d": 0.78125,
      "v": 100
    },
    {
      "midi": 38,
      "hit": false,
      "t": 186000,
      "d": 0.78125,
      "v": 100
    },
    {
      "midi": 55,
      "hit": false,
      "t": 186000,
      "d": 0.78125,
      "v": 100
    },
    {
      "midi": 88,
      "hit": false,
      "t": 186000,
      "d": 187.5,
      "v": 100
    },
    {
      "midi": 76,
      "hit": false,
      "t": 186000,
      "d": 1312.5,
      "v": 100
    },
    {
      "midi": 76,
      "hit": false,
      "t": 186000,
      "d": 3000,
      "v": 100
    },
    {
      "midi": 49,
      "hit": false,
      "t": 186000,
      "d": 187.5,
      "v": 100
    },
    {
      "midi": 45,
      "hit": false,
      "t": 186000,
      "d": 187.5,
      "v": 100
    },
    {
      "midi": 74,
      "hit": false,
      "t": 186187.5,
      "d": 187.5,
      "v": 100
    },
    {
      "midi": 36,
      "hit": false,
      "t": 186187.5,
      "d": 0.78125,
      "v": 100
    },
    {
      "midi": 86,
      "hit": false,
      "t": 186187.5,
      "d": 187.5,
      "v": 100
    },
    {
      "midi": 73,
      "hit": false,
      "t": 186375,
      "d": 187.5,
      "v": 100
    },
    {
      "midi": 36,
      "hit": false,
      "t": 186375,
      "d": 0.78125,
      "v": 100
    },
    {
      "midi": 85,
      "hit": false,
      "t": 186375,
      "d": 187.5,
      "v": 100
    },
    {
      "midi": 49,
      "hit": false,
      "t": 186562.5,
      "d": 187.5,
      "v": 100
    },
    {
      "midi": 45,
      "hit": false,
      "t": 186562.5,
      "d": 187.5,
      "v": 100
    },
    {
      "midi": 76,
      "hit": false,
      "t": 186562.5,
      "d": 187.5,
      "v": 100
    },
    {
      "midi": 36,
      "hit": false,
      "t": 186562.5,
      "d": 0.78125,
      "v": 100
    },
    {
      "midi": 40,
      "hit": false,
      "t": 186562.5,
      "d": 0.78125,
      "v": 100
    },
    {
      "midi": 38,
      "hit": false,
      "t": 186562.5,
      "d": 0.78125,
      "v": 100
    },
    {
      "midi": 55,
      "hit": false,
      "t": 186562.5,
      "d": 0.78125,
      "v": 100
    },
    {
      "midi": 88,
      "hit": false,
      "t": 186562.5,
      "d": 187.5,
      "v": 100
    },
    {
      "midi": 49,
      "hit": false,
      "t": 186562.5,
      "d": 187.5,
      "v": 100
    },
    {
      "midi": 45,
      "hit": false,
      "t": 186562.5,
      "d": 187.5,
      "v": 100
    },
    {
      "midi": 74,
      "hit": false,
      "t": 186750,
      "d": 187.5,
      "v": 100
    },
    {
      "midi": 36,
      "hit": false,
      "t": 186750,
      "d": 0.78125,
      "v": 100
    },
    {
      "midi": 86,
      "hit": false,
      "t": 186750,
      "d": 187.5,
      "v": 100
    },
    {
      "midi": 73,
      "hit": false,
      "t": 186937.5,
      "d": 187.5,
      "v": 100
    },
    {
      "midi": 36,
      "hit": false,
      "t": 186937.5,
      "d": 0.78125,
      "v": 100
    },
    {
      "midi": 85,
      "hit": false,
      "t": 186937.5,
      "d": 187.5,
      "v": 100
    },
    {
      "midi": 49,
      "hit": false,
      "t": 187125,
      "d": 1687.5,
      "v": 100
    },
    {
      "midi": 45,
      "hit": false,
      "t": 187125,
      "d": 1687.5,
      "v": 100
    },
    {
      "midi": 76,
      "hit": false,
      "t": 187125,
      "d": 187.5,
      "v": 100
    },
    {
      "midi": 36,
      "hit": false,
      "t": 187125,
      "d": 0.78125,
      "v": 100
    },
    {
      "midi": 40,
      "hit": false,
      "t": 187125,
      "d": 0.78125,
      "v": 100
    },
    {
      "midi": 38,
      "hit": false,
      "t": 187125,
      "d": 0.78125,
      "v": 100
    },
    {
      "midi": 55,
      "hit": false,
      "t": 187125,
      "d": 0.78125,
      "v": 100
    },
    {
      "midi": 88,
      "hit": false,
      "t": 187125,
      "d": 187.5,
      "v": 100
    },
    {
      "midi": 49,
      "hit": false,
      "t": 187125,
      "d": 1687.5,
      "v": 100
    },
    {
      "midi": 45,
      "hit": false,
      "t": 187125,
      "d": 1687.5,
      "v": 100
    },
    {
      "midi": 74,
      "hit": false,
      "t": 187312.5,
      "d": 187.5,
      "v": 100
    },
    {
      "midi": 36,
      "hit": false,
      "t": 187312.5,
      "d": 0.78125,
      "v": 100
    },
    {
      "midi": 86,
      "hit": false,
      "t": 187312.5,
      "d": 187.5,
      "v": 100
    },
    {
      "midi": 49,
      "hit": false,
      "t": 187500,
      "d": 750,
      "v": 100
    },
    {
      "midi": 73,
      "hit": false,
      "t": 187500,
      "d": 187.5,
      "v": 100
    },
    {
      "midi": 36,
      "hit": false,
      "t": 187500,
      "d": 0.78125,
      "v": 100
    },
    {
      "midi": 40,
      "hit": false,
      "t": 187500,
      "d": 0.78125,
      "v": 100
    },
    {
      "midi": 38,
      "hit": false,
      "t": 187500,
      "d": 0.78125,
      "v": 100
    },
    {
      "midi": 49,
      "hit": false,
      "t": 187500,
      "d": 0.78125,
      "v": 100
    },
    {
      "midi": 85,
      "hit": false,
      "t": 187500,
      "d": 187.5,
      "v": 100
    },
    {
      "midi": 79,
      "hit": false,
      "t": 187875,
      "d": 375,
      "v": 100
    },
    {
      "midi": 79,
      "hit": false,
      "t": 187875,
      "d": 375,
      "v": 100
    },
    {
      "midi": 79,
      "hit": false,
      "t": 187875,
      "d": 375,
      "v": 100
    },
    {
      "midi": 78,
      "hit": false,
      "t": 188250,
      "d": 375,
      "v": 100
    },
    {
      "midi": 79,
      "hit": false,
      "t": 188250,
      "d": 375,
      "v": 100
    },
    {
      "midi": 78,
      "hit": false,
      "t": 188250,
      "d": 375,
      "v": 100
    },
    {
      "midi": 40,
      "hit": false,
      "t": 188437.5,
      "d": 46.875,
      "v": 100
    },
    {
      "midi": 38,
      "hit": false,
      "t": 188484.375,
      "d": 46.875,
      "v": 100
    },
    {
      "midi": 37,
      "hit": false,
      "t": 188531.25,
      "d": 46.875,
      "v": 100
    },
    {
      "midi": 35,
      "hit": false,
      "t": 188578.125,
      "d": 46.875,
      "v": 100
    },
    {
      "midi": 76,
      "hit": false,
      "t": 188625,
      "d": 187.5,
      "v": 100
    },
    {
      "midi": 36,
      "hit": false,
      "t": 188625,
      "d": 46.875,
      "v": 100
    },
    {
      "midi": 79,
      "hit": false,
      "t": 188625,
      "d": 187.5,
      "v": 100
    },
    {
      "midi": 55,
      "hit": false,
      "t": 188625,
      "d": 0.78125,
      "v": 100
    },
    {
      "midi": 36,
      "hit": false,
      "t": 188625,
      "d": 0.78125,
      "v": 100
    },
    {
      "midi": 38,
      "hit": false,
      "t": 188625,
      "d": 0.78125,
      "v": 100
    },
    {
      "midi": 76,
      "hit": false,
      "t": 188625,
      "d": 187.5,
      "v": 100
    },
    {
      "midi": 37,
      "hit": false,
      "t": 188671.875,
      "d": 46.875,
      "v": 100
    },
    {
      "midi": 38,
      "hit": false,
      "t": 188671.875,
      "d": 0.78125,
      "v": 100
    },
    {
      "midi": 36,
      "hit": false,
      "t": 188671.875,
      "d": 0.78125,
      "v": 100
    },
    {
      "midi": 38,
      "hit": false,
      "t": 188718.75,
      "d": 46.875,
      "v": 100
    },
    {
      "midi": 40,
      "hit": false,
      "t": 188765.625,
      "d": 46.875,
      "v": 100
    },
    {
      "midi": 36,
      "hit": false,
      "t": 188765.625,
      "d": 0.78125,
      "v": 100
    },
    {
      "midi": 40,
      "hit": false,
      "t": 188765.625,
      "d": 0.78125,
      "v": 100
    },
    {
      "midi": 74,
      "hit": false,
      "t": 188812.5,
      "d": 937.5,
      "v": 100
    },
    {
      "midi": 42,
      "hit": false,
      "t": 188812.5,
      "d": 46.875,
      "v": 100
    },
    {
      "midi": 78,
      "hit": false,
      "t": 188812.5,
      "d": 937.5,
      "v": 100
    },
    {
      "midi": 74,
      "hit": false,
      "t": 188812.5,
      "d": 937.5,
      "v": 100
    },
    {
      "midi": 43,
      "hit": false,
      "t": 188859.375,
      "d": 46.875,
      "v": 100
    },
    {
      "midi": 45,
      "hit": false,
      "t": 188906.25,
      "d": 46.875,
      "v": 100
    },
    {
      "midi": 47,
      "hit": false,
      "t": 188953.125,
      "d": 46.875,
      "v": 100
    },
    {
      "midi": 71,
      "hit": false,
      "t": 189000,
      "d": 750,
      "v": 100
    },
    {
      "midi": 45,
      "hit": false,
      "t": 189000,
      "d": 46.875,
      "v": 100
    },
    {
      "midi": 64,
      "hit": false,
      "t": 189000,
      "d": 93.75,
      "v": 100
    },
    {
      "midi": 47,
      "hit": false,
      "t": 189000,
      "d": 187.5,
      "v": 100
    },
    {
      "midi": 43,
      "hit": false,
      "t": 189000,
      "d": 187.5,
      "v": 100
    },
    {
      "midi": 49,
      "hit": false,
      "t": 189000,
      "d": 140.625,
      "v": 100
    },
    {
      "midi": 71,
      "hit": false,
      "t": 189000,
      "d": 750,
      "v": 100
    },
    {
      "midi": 36,
      "hit": false,
      "t": 189000,
      "d": 0.78125,
      "v": 100
    },
    {
      "midi": 55,
      "hit": false,
      "t": 189000,
      "d": 0.78125,
      "v": 100
    },
    {
      "midi": 83,
      "hit": false,
      "t": 189000,
      "d": 187.5,
      "v": 100
    },
    {
      "midi": 71,
      "hit": false,
      "t": 189000,
      "d": 750,
      "v": 100
    },
    {
      "midi": 45,
      "hit": false,
      "t": 189000,
      "d": 46.875,
      "v": 100
    },
    {
      "midi": 64,
      "hit": false,
      "t": 189000,
      "d": 93.75,
      "v": 100
    },
    {
      "midi": 47,
      "hit": false,
      "t": 189000,
      "d": 187.5,
      "v": 100
    },
    {
      "midi": 43,
      "hit": false,
      "t": 189000,
      "d": 187.5,
      "v": 100
    },
    {
      "midi": 49,
      "hit": false,
      "t": 189046.875,
      "d": 140.625,
      "v": 100
    },
    {
      "midi": 49,
      "hit": false,
      "t": 189046.875,
      "d": 140.625,
      "v": 100
    },
    {
      "midi": 52,
      "hit": false,
      "t": 189093.75,
      "d": 93.75,
      "v": 100
    },
    {
      "midi": 64,
      "hit": false,
      "t": 189093.75,
      "d": 187.5,
      "v": 100
    },
    {
      "midi": 52,
      "hit": false,
      "t": 189093.75,
      "d": 93.75,
      "v": 100
    },
    {
      "midi": 64,
      "hit": false,
      "t": 189093.75,
      "d": 187.5,
      "v": 100
    },
    {
      "midi": 49,
      "hit": false,
      "t": 189187.5,
      "d": 515.625,
      "v": 100
    },
    {
      "midi": 36,
      "hit": false,
      "t": 189187.5,
      "d": 0.78125,
      "v": 100
    },
    {
      "midi": 64,
      "hit": false,
      "t": 189281.25,
      "d": 93.75,
      "v": 100
    },
    {
      "midi": 64,
      "hit": false,
      "t": 189281.25,
      "d": 93.75,
      "v": 100
    },
    {
      "midi": 64,
      "hit": false,
      "t": 189375,
      "d": 93.75,
      "v": 100
    },
    {
      "midi": 40,
      "hit": false,
      "t": 189375,
      "d": 0.78125,
      "v": 100
    },
    {
      "midi": 64,
      "hit": false,
      "t": 189375,
      "d": 93.75,
      "v": 100
    },
    {
      "midi": 64,
      "hit": false,
      "t": 189468.75,
      "d": 187.5,
      "v": 100
    },
    {
      "midi": 64,
      "hit": false,
      "t": 189468.75,
      "d": 187.5,
      "v": 100
    },
    {
      "midi": 49,
      "hit": false,
      "t": 189562.5,
      "d": 93.75,
      "v": 100
    },
    {
      "midi": 52,
      "hit": false,
      "t": 189562.5,
      "d": 93.75,
      "v": 100
    },
    {
      "midi": 49,
      "hit": false,
      "t": 189562.5,
      "d": 187.5,
      "v": 100
    },
    {
      "midi": 45,
      "hit": false,
      "t": 189562.5,
      "d": 187.5,
      "v": 100
    },
    {
      "midi": 49,
      "hit": false,
      "t": 189562.5,
      "d": 93.75,
      "v": 100
    },
    {
      "midi": 52,
      "hit": false,
      "t": 189562.5,
      "d": 93.75,
      "v": 100
    },
    {
      "midi": 49,
      "hit": false,
      "t": 189562.5,
      "d": 187.5,
      "v": 100
    },
    {
      "midi": 45,
      "hit": false,
      "t": 189562.5,
      "d": 187.5,
      "v": 100
    },
    {
      "midi": 64,
      "hit": false,
      "t": 189656.25,
      "d": 93.75,
      "v": 100
    },
    {
      "midi": 38,
      "hit": false,
      "t": 189656.25,
      "d": 0.78125,
      "v": 100
    },
    {
      "midi": 64,
      "hit": false,
      "t": 189656.25,
      "d": 93.75,
      "v": 100
    },
    {
      "midi": 69,
      "hit": false,
      "t": 189750,
      "d": 750,
      "v": 100
    },
    {
      "midi": 64,
      "hit": false,
      "t": 189750,
      "d": 93.75,
      "v": 100
    },
    {
      "midi": 49,
      "hit": false,
      "t": 189750,
      "d": 140.625,
      "v": 100
    },
    {
      "midi": 69,
      "hit": false,
      "t": 189750,
      "d": 750,
      "v": 100
    },
    {
      "midi": 36,
      "hit": false,
      "t": 189750,
      "d": 0.78125,
      "v": 100
    },
    {
      "midi": 81,
      "hit": false,
      "t": 189750,
      "d": 187.5,
      "v": 100
    },
    {
      "midi": 69,
      "hit": false,
      "t": 189750,
      "d": 750,
      "v": 100
    },
    {
      "midi": 64,
      "hit": false,
      "t": 189750,
      "d": 93.75,
      "v": 100
    },
    {
      "midi": 64,
      "hit": false,
      "t": 189843.75,
      "d": 187.5,
      "v": 100
    },
    {
      "midi": 38,
      "hit": false,
      "t": 189843.75,
      "d": 0.78125,
      "v": 100
    },
    {
      "midi": 64,
      "hit": false,
      "t": 189843.75,
      "d": 187.5,
      "v": 100
    },
    {
      "midi": 52,
      "hit": false,
      "t": 189937.5,
      "d": 93.75,
      "v": 100
    },
    {
      "midi": 49,
      "hit": false,
      "t": 189937.5,
      "d": 93.75,
      "v": 100
    },
    {
      "midi": 49,
      "hit": false,
      "t": 189937.5,
      "d": 375,
      "v": 100
    },
    {
      "midi": 45,
      "hit": false,
      "t": 189937.5,
      "d": 375,
      "v": 100
    },
    {
      "midi": 49,
      "hit": false,
      "t": 189937.5,
      "d": 515.625,
      "v": 100
    },
    {
      "midi": 36,
      "hit": false,
      "t": 189937.5,
      "d": 0.78125,
      "v": 100
    },
    {
      "midi": 52,
      "hit": false,
      "t": 189937.5,
      "d": 93.75,
      "v": 100
    },
    {
      "midi": 49,
      "hit": false,
      "t": 189937.5,
      "d": 93.75,
      "v": 100
    },
    {
      "midi": 49,
      "hit": false,
      "t": 189937.5,
      "d": 375,
      "v": 100
    },
    {
      "midi": 45,
      "hit": false,
      "t": 189937.5,
      "d": 375,
      "v": 100
    },
    {
      "midi": 64,
      "hit": false,
      "t": 190031.25,
      "d": 93.75,
      "v": 100
    },
    {
      "midi": 64,
      "hit": false,
      "t": 190031.25,
      "d": 93.75,
      "v": 100
    },
    {
      "midi": 64,
      "hit": false,
      "t": 190125,
      "d": 93.75,
      "v": 100
    },
    {
      "midi": 52,
      "hit": false,
      "t": 190125,
      "d": 93.75,
      "v": 100
    },
    {
      "midi": 49,
      "hit": false,
      "t": 190125,
      "d": 93.75,
      "v": 100
    },
    {
      "midi": 40,
      "hit": false,
      "t": 190125,
      "d": 0.78125,
      "v": 100
    },
    {
      "midi": 64,
      "hit": false,
      "t": 190125,
      "d": 93.75,
      "v": 100
    },
    {
      "midi": 52,
      "hit": false,
      "t": 190125,
      "d": 93.75,
      "v": 100
    },
    {
      "midi": 49,
      "hit": false,
      "t": 190125,
      "d": 93.75,
      "v": 100
    },
    {
      "midi": 64,
      "hit": false,
      "t": 190218.75,
      "d": 187.5,
      "v": 100
    },
    {
      "midi": 64,
      "hit": false,
      "t": 190218.75,
      "d": 187.5,
      "v": 100
    },
    {
      "midi": 64,
      "hit": false,
      "t": 190406.25,
      "d": 93.75,
      "v": 100
    },
    {
      "midi": 64,
      "hit": false,
      "t": 190406.25,
      "d": 93.75,
      "v": 100
    },
    {
      "midi": 66,
      "hit": false,
      "t": 190500,
      "d": 750,
      "v": 100
    },
    {
      "midi": 45,
      "hit": false,
      "t": 190500,
      "d": 46.875,
      "v": 100
    },
    {
      "midi": 64,
      "hit": false,
      "t": 190500,
      "d": 93.75,
      "v": 100
    },
    {
      "midi": 43,
      "hit": false,
      "t": 190500,
      "d": 187.5,
      "v": 100
    },
    {
      "midi": 47,
      "hit": false,
      "t": 190500,
      "d": 187.5,
      "v": 100
    },
    {
      "midi": 47,
      "hit": false,
      "t": 190500,
      "d": 140.625,
      "v": 100
    },
    {
      "midi": 66,
      "hit": false,
      "t": 190500,
      "d": 750,
      "v": 100
    },
    {
      "midi": 36,
      "hit": false,
      "t": 190500,
      "d": 0.78125,
      "v": 100
    },
    {
      "midi": 78,
      "hit": false,
      "t": 190500,
      "d": 187.5,
      "v": 100
    },
    {
      "midi": 66,
      "hit": false,
      "t": 190500,
      "d": 750,
      "v": 100
    },
    {
      "midi": 45,
      "hit": false,
      "t": 190500,
      "d": 46.875,
      "v": 100
    },
    {
      "midi": 64,
      "hit": false,
      "t": 190500,
      "d": 93.75,
      "v": 100
    },
    {
      "midi": 43,
      "hit": false,
      "t": 190500,
      "d": 187.5,
      "v": 100
    },
    {
      "midi": 47,
      "hit": false,
      "t": 190500,
      "d": 187.5,
      "v": 100
    },
    {
      "midi": 49,
      "hit": false,
      "t": 190546.875,
      "d": 140.625,
      "v": 100
    },
    {
      "midi": 49,
      "hit": false,
      "t": 190546.875,
      "d": 140.625,
      "v": 100
    },
    {
      "midi": 52,
      "hit": false,
      "t": 190593.75,
      "d": 93.75,
      "v": 100
    },
    {
      "midi": 64,
      "hit": false,
      "t": 190593.75,
      "d": 187.5,
      "v": 100
    },
    {
      "midi": 52,
      "hit": false,
      "t": 190593.75,
      "d": 93.75,
      "v": 100
    },
    {
      "midi": 64,
      "hit": false,
      "t": 190593.75,
      "d": 187.5,
      "v": 100
    },
    {
      "midi": 47,
      "hit": false,
      "t": 190687.5,
      "d": 515.625,
      "v": 100
    },
    {
      "midi": 36,
      "hit": false,
      "t": 190687.5,
      "d": 0.78125,
      "v": 100
    },
    {
      "midi": 64,
      "hit": false,
      "t": 190781.25,
      "d": 93.75,
      "v": 100
    },
    {
      "midi": 64,
      "hit": false,
      "t": 190781.25,
      "d": 93.75,
      "v": 100
    },
    {
      "midi": 64,
      "hit": false,
      "t": 190875,
      "d": 93.75,
      "v": 100
    },
    {
      "midi": 40,
      "hit": false,
      "t": 190875,
      "d": 0.78125,
      "v": 100
    },
    {
      "midi": 64,
      "hit": false,
      "t": 190875,
      "d": 93.75,
      "v": 100
    },
    {
      "midi": 64,
      "hit": false,
      "t": 190968.75,
      "d": 187.5,
      "v": 100
    },
    {
      "midi": 64,
      "hit": false,
      "t": 190968.75,
      "d": 187.5,
      "v": 100
    },
    {
      "midi": 49,
      "hit": false,
      "t": 191062.5,
      "d": 93.75,
      "v": 100
    },
    {
      "midi": 52,
      "hit": false,
      "t": 191062.5,
      "d": 93.75,
      "v": 100
    },
    {
      "midi": 49,
      "hit": false,
      "t": 191062.5,
      "d": 187.5,
      "v": 100
    },
    {
      "midi": 45,
      "hit": false,
      "t": 191062.5,
      "d": 187.5,
      "v": 100
    },
    {
      "midi": 49,
      "hit": false,
      "t": 191062.5,
      "d": 93.75,
      "v": 100
    },
    {
      "midi": 52,
      "hit": false,
      "t": 191062.5,
      "d": 93.75,
      "v": 100
    },
    {
      "midi": 49,
      "hit": false,
      "t": 191062.5,
      "d": 187.5,
      "v": 100
    },
    {
      "midi": 45,
      "hit": false,
      "t": 191062.5,
      "d": 187.5,
      "v": 100
    },
    {
      "midi": 64,
      "hit": false,
      "t": 191156.25,
      "d": 93.75,
      "v": 100
    },
    {
      "midi": 38,
      "hit": false,
      "t": 191156.25,
      "d": 0.78125,
      "v": 100
    },
    {
      "midi": 64,
      "hit": false,
      "t": 191156.25,
      "d": 93.75,
      "v": 100
    },
    {
      "midi": 67,
      "hit": false,
      "t": 191250,
      "d": 750,
      "v": 100
    },
    {
      "midi": 64,
      "hit": false,
      "t": 191250,
      "d": 93.75,
      "v": 100
    },
    {
      "midi": 43,
      "hit": false,
      "t": 191250,
      "d": 140.625,
      "v": 100
    },
    {
      "midi": 47,
      "hit": false,
      "t": 191250,
      "d": 140.625,
      "v": 100
    },
    {
      "midi": 47,
      "hit": false,
      "t": 191250,
      "d": 140.625,
      "v": 100
    },
    {
      "midi": 67,
      "hit": false,
      "t": 191250,
      "d": 750,
      "v": 100
    },
    {
      "midi": 36,
      "hit": false,
      "t": 191250,
      "d": 0.78125,
      "v": 100
    },
    {
      "midi": 79,
      "hit": false,
      "t": 191250,
      "d": 187.5,
      "v": 100
    },
    {
      "midi": 67,
      "hit": false,
      "t": 191250,
      "d": 750,
      "v": 100
    },
    {
      "midi": 64,
      "hit": false,
      "t": 191250,
      "d": 93.75,
      "v": 100
    },
    {
      "midi": 43,
      "hit": false,
      "t": 191250,
      "d": 140.625,
      "v": 100
    },
    {
      "midi": 47,
      "hit": false,
      "t": 191250,
      "d": 140.625,
      "v": 100
    },
    {
      "midi": 64,
      "hit": false,
      "t": 191343.75,
      "d": 187.5,
      "v": 100
    },
    {
      "midi": 38,
      "hit": false,
      "t": 191343.75,
      "d": 0.78125,
      "v": 100
    },
    {
      "midi": 64,
      "hit": false,
      "t": 191343.75,
      "d": 187.5,
      "v": 100
    },
    {
      "midi": 52,
      "hit": false,
      "t": 191437.5,
      "d": 93.75,
      "v": 100
    },
    {
      "midi": 49,
      "hit": false,
      "t": 191437.5,
      "d": 93.75,
      "v": 100
    },
    {
      "midi": 45,
      "hit": false,
      "t": 191437.5,
      "d": 375,
      "v": 100
    },
    {
      "midi": 49,
      "hit": false,
      "t": 191437.5,
      "d": 375,
      "v": 100
    },
    {
      "midi": 47,
      "hit": false,
      "t": 191437.5,
      "d": 515.625,
      "v": 100
    },
    {
      "midi": 36,
      "hit": false,
      "t": 191437.5,
      "d": 0.78125,
      "v": 100
    },
    {
      "midi": 52,
      "hit": false,
      "t": 191437.5,
      "d": 93.75,
      "v": 100
    },
    {
      "midi": 49,
      "hit": false,
      "t": 191437.5,
      "d": 93.75,
      "v": 100
    },
    {
      "midi": 45,
      "hit": false,
      "t": 191437.5,
      "d": 375,
      "v": 100
    },
    {
      "midi": 49,
      "hit": false,
      "t": 191437.5,
      "d": 375,
      "v": 100
    },
    {
      "midi": 64,
      "hit": false,
      "t": 191531.25,
      "d": 93.75,
      "v": 100
    },
    {
      "midi": 64,
      "hit": false,
      "t": 191531.25,
      "d": 93.75,
      "v": 100
    },
    {
      "midi": 64,
      "hit": false,
      "t": 191625,
      "d": 93.75,
      "v": 100
    },
    {
      "midi": 52,
      "hit": false,
      "t": 191625,
      "d": 93.75,
      "v": 100
    },
    {
      "midi": 49,
      "hit": false,
      "t": 191625,
      "d": 93.75,
      "v": 100
    },
    {
      "midi": 38,
      "hit": false,
      "t": 191625,
      "d": 0.78125,
      "v": 100
    },
    {
      "midi": 52,
      "hit": false,
      "t": 191625,
      "d": 0.78125,
      "v": 100
    },
    {
      "midi": 64,
      "hit": false,
      "t": 191625,
      "d": 93.75,
      "v": 100
    },
    {
      "midi": 52,
      "hit": false,
      "t": 191625,
      "d": 93.75,
      "v": 100
    },
    {
      "midi": 49,
      "hit": false,
      "t": 191625,
      "d": 93.75,
      "v": 100
    },
    {
      "midi": 64,
      "hit": false,
      "t": 191718.75,
      "d": 187.5,
      "v": 100
    },
    {
      "midi": 40,
      "hit": false,
      "t": 191718.75,
      "d": 0.78125,
      "v": 100
    },
    {
      "midi": 64,
      "hit": false,
      "t": 191718.75,
      "d": 187.5,
      "v": 100
    },
    {
      "midi": 38,
      "hit": false,
      "t": 191812.5,
      "d": 0.78125,
      "v": 100
    },
    {
      "midi": 64,
      "hit": false,
      "t": 191906.25,
      "d": 93.75,
      "v": 100
    },
    {
      "midi": 40,
      "hit": false,
      "t": 191906.25,
      "d": 0.78125,
      "v": 100
    },
    {
      "midi": 64,
      "hit": false,
      "t": 191906.25,
      "d": 93.75,
      "v": 100
    },
    {
      "midi": 40,
      "hit": false,
      "t": 191953.125,
      "d": 0.78125,
      "v": 100
    },
    {
      "midi": 76,
      "hit": false,
      "t": 192000,
      "d": 750,
      "v": 100
    },
    {
      "midi": 45,
      "hit": false,
      "t": 192000,
      "d": 46.875,
      "v": 100
    },
    {
      "midi": 64,
      "hit": false,
      "t": 192000,
      "d": 93.75,
      "v": 100
    },
    {
      "midi": 43,
      "hit": false,
      "t": 192000,
      "d": 187.5,
      "v": 100
    },
    {
      "midi": 47,
      "hit": false,
      "t": 192000,
      "d": 187.5,
      "v": 100
    },
    {
      "midi": 45,
      "hit": false,
      "t": 192000,
      "d": 140.625,
      "v": 100
    },
    {
      "midi": 76,
      "hit": false,
      "t": 192000,
      "d": 750,
      "v": 100
    },
    {
      "midi": 36,
      "hit": false,
      "t": 192000,
      "d": 0.78125,
      "v": 100
    },
    {
      "midi": 88,
      "hit": false,
      "t": 192000,
      "d": 187.5,
      "v": 100
    },
    {
      "midi": 76,
      "hit": false,
      "t": 192000,
      "d": 750,
      "v": 100
    },
    {
      "midi": 45,
      "hit": false,
      "t": 192000,
      "d": 46.875,
      "v": 100
    },
    {
      "midi": 64,
      "hit": false,
      "t": 192000,
      "d": 93.75,
      "v": 100
    },
    {
      "midi": 43,
      "hit": false,
      "t": 192000,
      "d": 187.5,
      "v": 100
    },
    {
      "midi": 47,
      "hit": false,
      "t": 192000,
      "d": 187.5,
      "v": 100
    },
    {
      "midi": 49,
      "hit": false,
      "t": 192046.875,
      "d": 140.625,
      "v": 100
    },
    {
      "midi": 49,
      "hit": false,
      "t": 192046.875,
      "d": 140.625,
      "v": 100
    },
    {
      "midi": 52,
      "hit": false,
      "t": 192093.75,
      "d": 93.75,
      "v": 100
    },
    {
      "midi": 64,
      "hit": false,
      "t": 192093.75,
      "d": 187.5,
      "v": 100
    },
    {
      "midi": 52,
      "hit": false,
      "t": 192093.75,
      "d": 93.75,
      "v": 100
    },
    {
      "midi": 64,
      "hit": false,
      "t": 192093.75,
      "d": 187.5,
      "v": 100
    },
    {
      "midi": 45,
      "hit": false,
      "t": 192187.5,
      "d": 515.625,
      "v": 100
    },
    {
      "midi": 36,
      "hit": false,
      "t": 192187.5,
      "d": 0.78125,
      "v": 100
    },
    {
      "midi": 64,
      "hit": false,
      "t": 192281.25,
      "d": 93.75,
      "v": 100
    },
    {
      "midi": 64,
      "hit": false,
      "t": 192281.25,
      "d": 93.75,
      "v": 100
    },
    {
      "midi": 64,
      "hit": false,
      "t": 192375,
      "d": 93.75,
      "v": 100
    },
    {
      "midi": 40,
      "hit": false,
      "t": 192375,
      "d": 0.78125,
      "v": 100
    },
    {
      "midi": 64,
      "hit": false,
      "t": 192375,
      "d": 93.75,
      "v": 100
    },
    {
      "midi": 64,
      "hit": false,
      "t": 192468.75,
      "d": 187.5,
      "v": 100
    },
    {
      "midi": 64,
      "hit": false,
      "t": 192468.75,
      "d": 187.5,
      "v": 100
    },
    {
      "midi": 49,
      "hit": false,
      "t": 192562.5,
      "d": 93.75,
      "v": 100
    },
    {
      "midi": 52,
      "hit": false,
      "t": 192562.5,
      "d": 93.75,
      "v": 100
    },
    {
      "midi": 49,
      "hit": false,
      "t": 192562.5,
      "d": 187.5,
      "v": 100
    },
    {
      "midi": 45,
      "hit": false,
      "t": 192562.5,
      "d": 187.5,
      "v": 100
    },
    {
      "midi": 49,
      "hit": false,
      "t": 192562.5,
      "d": 93.75,
      "v": 100
    },
    {
      "midi": 52,
      "hit": false,
      "t": 192562.5,
      "d": 93.75,
      "v": 100
    },
    {
      "midi": 49,
      "hit": false,
      "t": 192562.5,
      "d": 187.5,
      "v": 100
    },
    {
      "midi": 45,
      "hit": false,
      "t": 192562.5,
      "d": 187.5,
      "v": 100
    },
    {
      "midi": 64,
      "hit": false,
      "t": 192656.25,
      "d": 93.75,
      "v": 100
    },
    {
      "midi": 38,
      "hit": false,
      "t": 192656.25,
      "d": 0.78125,
      "v": 100
    },
    {
      "midi": 64,
      "hit": false,
      "t": 192656.25,
      "d": 93.75,
      "v": 100
    },
    {
      "midi": 74,
      "hit": false,
      "t": 192750,
      "d": 750,
      "v": 100
    },
    {
      "midi": 64,
      "hit": false,
      "t": 192750,
      "d": 93.75,
      "v": 100
    },
    {
      "midi": 45,
      "hit": false,
      "t": 192750,
      "d": 140.625,
      "v": 100
    },
    {
      "midi": 74,
      "hit": false,
      "t": 192750,
      "d": 750,
      "v": 100
    },
    {
      "midi": 36,
      "hit": false,
      "t": 192750,
      "d": 0.78125,
      "v": 100
    },
    {
      "midi": 86,
      "hit": false,
      "t": 192750,
      "d": 187.5,
      "v": 100
    },
    {
      "midi": 74,
      "hit": false,
      "t": 192750,
      "d": 750,
      "v": 100
    },
    {
      "midi": 64,
      "hit": false,
      "t": 192750,
      "d": 93.75,
      "v": 100
    },
    {
      "midi": 64,
      "hit": false,
      "t": 192843.75,
      "d": 187.5,
      "v": 100
    },
    {
      "midi": 38,
      "hit": false,
      "t": 192843.75,
      "d": 0.78125,
      "v": 100
    },
    {
      "midi": 64,
      "hit": false,
      "t": 192843.75,
      "d": 187.5,
      "v": 100
    },
    {
      "midi": 52,
      "hit": false,
      "t": 192937.5,
      "d": 93.75,
      "v": 100
    },
    {
      "midi": 49,
      "hit": false,
      "t": 192937.5,
      "d": 93.75,
      "v": 100
    },
    {
      "midi": 45,
      "hit": false,
      "t": 192937.5,
      "d": 375,
      "v": 100
    },
    {
      "midi": 49,
      "hit": false,
      "t": 192937.5,
      "d": 375,
      "v": 100
    },
    {
      "midi": 45,
      "hit": false,
      "t": 192937.5,
      "d": 515.625,
      "v": 100
    },
    {
      "midi": 36,
      "hit": false,
      "t": 192937.5,
      "d": 0.78125,
      "v": 100
    },
    {
      "midi": 52,
      "hit": false,
      "t": 192937.5,
      "d": 93.75,
      "v": 100
    },
    {
      "midi": 49,
      "hit": false,
      "t": 192937.5,
      "d": 93.75,
      "v": 100
    },
    {
      "midi": 45,
      "hit": false,
      "t": 192937.5,
      "d": 375,
      "v": 100
    },
    {
      "midi": 49,
      "hit": false,
      "t": 192937.5,
      "d": 375,
      "v": 100
    },
    {
      "midi": 64,
      "hit": false,
      "t": 193031.25,
      "d": 93.75,
      "v": 100
    },
    {
      "midi": 64,
      "hit": false,
      "t": 193031.25,
      "d": 93.75,
      "v": 100
    },
    {
      "midi": 64,
      "hit": false,
      "t": 193125,
      "d": 93.75,
      "v": 100
    },
    {
      "midi": 52,
      "hit": false,
      "t": 193125,
      "d": 93.75,
      "v": 100
    },
    {
      "midi": 49,
      "hit": false,
      "t": 193125,
      "d": 93.75,
      "v": 100
    },
    {
      "midi": 40,
      "hit": false,
      "t": 193125,
      "d": 0.78125,
      "v": 100
    },
    {
      "midi": 64,
      "hit": false,
      "t": 193125,
      "d": 93.75,
      "v": 100
    },
    {
      "midi": 52,
      "hit": false,
      "t": 193125,
      "d": 93.75,
      "v": 100
    },
    {
      "midi": 49,
      "hit": false,
      "t": 193125,
      "d": 93.75,
      "v": 100
    },
    {
      "midi": 64,
      "hit": false,
      "t": 193218.75,
      "d": 187.5,
      "v": 100
    },
    {
      "midi": 64,
      "hit": false,
      "t": 193218.75,
      "d": 187.5,
      "v": 100
    },
    {
      "midi": 64,
      "hit": false,
      "t": 193406.25,
      "d": 93.75,
      "v": 100
    },
    {
      "midi": 64,
      "hit": false,
      "t": 193406.25,
      "d": 93.75,
      "v": 100
    },
    {
      "midi": 73,
      "hit": false,
      "t": 193500,
      "d": 750,
      "v": 100
    },
    {
      "midi": 45,
      "hit": false,
      "t": 193500,
      "d": 46.875,
      "v": 100
    },
    {
      "midi": 64,
      "hit": false,
      "t": 193500,
      "d": 93.75,
      "v": 100
    },
    {
      "midi": 43,
      "hit": false,
      "t": 193500,
      "d": 187.5,
      "v": 100
    },
    {
      "midi": 47,
      "hit": false,
      "t": 193500,
      "d": 187.5,
      "v": 100
    },
    {
      "midi": 43,
      "hit": false,
      "t": 193500,
      "d": 140.625,
      "v": 100
    },
    {
      "midi": 73,
      "hit": false,
      "t": 193500,
      "d": 750,
      "v": 100
    },
    {
      "midi": 36,
      "hit": false,
      "t": 193500,
      "d": 0.78125,
      "v": 100
    },
    {
      "midi": 85,
      "hit": false,
      "t": 193500,
      "d": 187.5,
      "v": 100
    },
    {
      "midi": 73,
      "hit": false,
      "t": 193500,
      "d": 750,
      "v": 100
    },
    {
      "midi": 45,
      "hit": false,
      "t": 193500,
      "d": 46.875,
      "v": 100
    },
    {
      "midi": 64,
      "hit": false,
      "t": 193500,
      "d": 93.75,
      "v": 100
    },
    {
      "midi": 43,
      "hit": false,
      "t": 193500,
      "d": 187.5,
      "v": 100
    },
    {
      "midi": 47,
      "hit": false,
      "t": 193500,
      "d": 187.5,
      "v": 100
    },
    {
      "midi": 49,
      "hit": false,
      "t": 193546.875,
      "d": 140.625,
      "v": 100
    },
    {
      "midi": 49,
      "hit": false,
      "t": 193546.875,
      "d": 140.625,
      "v": 100
    },
    {
      "midi": 52,
      "hit": false,
      "t": 193593.75,
      "d": 93.75,
      "v": 100
    },
    {
      "midi": 64,
      "hit": false,
      "t": 193593.75,
      "d": 187.5,
      "v": 100
    },
    {
      "midi": 52,
      "hit": false,
      "t": 193593.75,
      "d": 93.75,
      "v": 100
    },
    {
      "midi": 64,
      "hit": false,
      "t": 193593.75,
      "d": 187.5,
      "v": 100
    },
    {
      "midi": 43,
      "hit": false,
      "t": 193687.5,
      "d": 515.625,
      "v": 100
    },
    {
      "midi": 36,
      "hit": false,
      "t": 193687.5,
      "d": 0.78125,
      "v": 100
    },
    {
      "midi": 64,
      "hit": false,
      "t": 193781.25,
      "d": 93.75,
      "v": 100
    },
    {
      "midi": 64,
      "hit": false,
      "t": 193781.25,
      "d": 93.75,
      "v": 100
    },
    {
      "midi": 64,
      "hit": false,
      "t": 193875,
      "d": 93.75,
      "v": 100
    },
    {
      "midi": 40,
      "hit": false,
      "t": 193875,
      "d": 0.78125,
      "v": 100
    },
    {
      "midi": 64,
      "hit": false,
      "t": 193875,
      "d": 93.75,
      "v": 100
    },
    {
      "midi": 64,
      "hit": false,
      "t": 193968.75,
      "d": 187.5,
      "v": 100
    },
    {
      "midi": 64,
      "hit": false,
      "t": 193968.75,
      "d": 187.5,
      "v": 100
    },
    {
      "midi": 49,
      "hit": false,
      "t": 194062.5,
      "d": 93.75,
      "v": 100
    },
    {
      "midi": 52,
      "hit": false,
      "t": 194062.5,
      "d": 93.75,
      "v": 100
    },
    {
      "midi": 45,
      "hit": false,
      "t": 194062.5,
      "d": 187.5,
      "v": 100
    },
    {
      "midi": 49,
      "hit": false,
      "t": 194062.5,
      "d": 187.5,
      "v": 100
    },
    {
      "midi": 49,
      "hit": false,
      "t": 194062.5,
      "d": 93.75,
      "v": 100
    },
    {
      "midi": 52,
      "hit": false,
      "t": 194062.5,
      "d": 93.75,
      "v": 100
    },
    {
      "midi": 45,
      "hit": false,
      "t": 194062.5,
      "d": 187.5,
      "v": 100
    },
    {
      "midi": 49,
      "hit": false,
      "t": 194062.5,
      "d": 187.5,
      "v": 100
    },
    {
      "midi": 64,
      "hit": false,
      "t": 194156.25,
      "d": 93.75,
      "v": 100
    },
    {
      "midi": 38,
      "hit": false,
      "t": 194156.25,
      "d": 0.78125,
      "v": 100
    },
    {
      "midi": 64,
      "hit": false,
      "t": 194156.25,
      "d": 93.75,
      "v": 100
    },
    {
      "midi": 69,
      "hit": false,
      "t": 194250,
      "d": 750,
      "v": 100
    },
    {
      "midi": 64,
      "hit": false,
      "t": 194250,
      "d": 93.75,
      "v": 100
    },
    {
      "midi": 43,
      "hit": false,
      "t": 194250,
      "d": 140.625,
      "v": 100
    },
    {
      "midi": 69,
      "hit": false,
      "t": 194250,
      "d": 750,
      "v": 100
    },
    {
      "midi": 36,
      "hit": false,
      "t": 194250,
      "d": 0.78125,
      "v": 100
    },
    {
      "midi": 81,
      "hit": false,
      "t": 194250,
      "d": 187.5,
      "v": 100
    },
    {
      "midi": 69,
      "hit": false,
      "t": 194250,
      "d": 750,
      "v": 100
    },
    {
      "midi": 64,
      "hit": false,
      "t": 194250,
      "d": 93.75,
      "v": 100
    },
    {
      "midi": 38,
      "hit": false,
      "t": 194296.875,
      "d": 0.78125,
      "v": 100
    },
    {
      "midi": 64,
      "hit": false,
      "t": 194343.75,
      "d": 187.5,
      "v": 100
    },
    {
      "midi": 38,
      "hit": false,
      "t": 194343.75,
      "d": 0.78125,
      "v": 100
    },
    {
      "midi": 64,
      "hit": false,
      "t": 194343.75,
      "d": 187.5,
      "v": 100
    },
    {
      "midi": 52,
      "hit": false,
      "t": 194437.5,
      "d": 93.75,
      "v": 100
    },
    {
      "midi": 49,
      "hit": false,
      "t": 194437.5,
      "d": 93.75,
      "v": 100
    },
    {
      "midi": 45,
      "hit": false,
      "t": 194437.5,
      "d": 375,
      "v": 100
    },
    {
      "midi": 49,
      "hit": false,
      "t": 194437.5,
      "d": 375,
      "v": 100
    },
    {
      "midi": 43,
      "hit": false,
      "t": 194437.5,
      "d": 515.625,
      "v": 100
    },
    {
      "midi": 36,
      "hit": false,
      "t": 194437.5,
      "d": 0.78125,
      "v": 100
    },
    {
      "midi": 38,
      "hit": false,
      "t": 194437.5,
      "d": 0.78125,
      "v": 100
    },
    {
      "midi": 52,
      "hit": false,
      "t": 194437.5,
      "d": 93.75,
      "v": 100
    },
    {
      "midi": 49,
      "hit": false,
      "t": 194437.5,
      "d": 93.75,
      "v": 100
    },
    {
      "midi": 45,
      "hit": false,
      "t": 194437.5,
      "d": 375,
      "v": 100
    },
    {
      "midi": 49,
      "hit": false,
      "t": 194437.5,
      "d": 375,
      "v": 100
    },
    {
      "midi": 64,
      "hit": false,
      "t": 194531.25,
      "d": 93.75,
      "v": 100
    },
    {
      "midi": 64,
      "hit": false,
      "t": 194531.25,
      "d": 93.75,
      "v": 100
    },
    {
      "midi": 64,
      "hit": false,
      "t": 194625,
      "d": 93.75,
      "v": 100
    },
    {
      "midi": 52,
      "hit": false,
      "t": 194625,
      "d": 93.75,
      "v": 100
    },
    {
      "midi": 49,
      "hit": false,
      "t": 194625,
      "d": 93.75,
      "v": 100
    },
    {
      "midi": 40,
      "hit": false,
      "t": 194625,
      "d": 0.78125,
      "v": 100
    },
    {
      "midi": 64,
      "hit": false,
      "t": 194625,
      "d": 93.75,
      "v": 100
    },
    {
      "midi": 52,
      "hit": false,
      "t": 194625,
      "d": 93.75,
      "v": 100
    },
    {
      "midi": 49,
      "hit": false,
      "t": 194625,
      "d": 93.75,
      "v": 100
    },
    {
      "midi": 40,
      "hit": false,
      "t": 194671.875,
      "d": 0.78125,
      "v": 100
    },
    {
      "midi": 64,
      "hit": false,
      "t": 194718.75,
      "d": 187.5,
      "v": 100
    },
    {
      "midi": 40,
      "hit": false,
      "t": 194718.75,
      "d": 0.78125,
      "v": 100
    },
    {
      "midi": 64,
      "hit": false,
      "t": 194718.75,
      "d": 187.5,
      "v": 100
    },
    {
      "midi": 38,
      "hit": false,
      "t": 194812.5,
      "d": 0.78125,
      "v": 100
    },
    {
      "midi": 38,
      "hit": false,
      "t": 194859.375,
      "d": 0.78125,
      "v": 100
    },
    {
      "midi": 64,
      "hit": false,
      "t": 194906.25,
      "d": 93.75,
      "v": 100
    },
    {
      "midi": 38,
      "hit": false,
      "t": 194906.25,
      "d": 0.78125,
      "v": 100
    },
    {
      "midi": 64,
      "hit": false,
      "t": 194906.25,
      "d": 93.75,
      "v": 100
    },
    {
      "midi": 74,
      "hit": false,
      "t": 195000,
      "d": 1500,
      "v": 100
    },
    {
      "midi": 43,
      "hit": false,
      "t": 195000,
      "d": 46.875,
      "v": 100
    },
    {
      "midi": 62,
      "hit": false,
      "t": 195000,
      "d": 93.75,
      "v": 100
    },
    {
      "midi": 43,
      "hit": false,
      "t": 195000,
      "d": 187.5,
      "v": 100
    },
    {
      "midi": 47,
      "hit": false,
      "t": 195000,
      "d": 187.5,
      "v": 100
    },
    {
      "midi": 42,
      "hit": false,
      "t": 195000,
      "d": 140.625,
      "v": 100
    },
    {
      "midi": 55,
      "hit": false,
      "t": 195000,
      "d": 0.78125,
      "v": 100
    },
    {
      "midi": 36,
      "hit": false,
      "t": 195000,
      "d": 0.78125,
      "v": 100
    },
    {
      "midi": 86,
      "hit": false,
      "t": 195000,
      "d": 187.5,
      "v": 100
    },
    {
      "midi": 74,
      "hit": false,
      "t": 195000,
      "d": 1500,
      "v": 100
    },
    {
      "midi": 43,
      "hit": false,
      "t": 195000,
      "d": 46.875,
      "v": 100
    },
    {
      "midi": 62,
      "hit": false,
      "t": 195000,
      "d": 93.75,
      "v": 100
    },
    {
      "midi": 43,
      "hit": false,
      "t": 195000,
      "d": 187.5,
      "v": 100
    },
    {
      "midi": 47,
      "hit": false,
      "t": 195000,
      "d": 187.5,
      "v": 100
    },
    {
      "midi": 47,
      "hit": false,
      "t": 195046.875,
      "d": 140.625,
      "v": 100
    },
    {
      "midi": 47,
      "hit": false,
      "t": 195046.875,
      "d": 140.625,
      "v": 100
    },
    {
      "midi": 50,
      "hit": false,
      "t": 195093.75,
      "d": 93.75,
      "v": 100
    },
    {
      "midi": 62,
      "hit": false,
      "t": 195093.75,
      "d": 187.5,
      "v": 100
    },
    {
      "midi": 50,
      "hit": false,
      "t": 195093.75,
      "d": 93.75,
      "v": 100
    },
    {
      "midi": 62,
      "hit": false,
      "t": 195093.75,
      "d": 187.5,
      "v": 100
    },
    {
      "midi": 42,
      "hit": false,
      "t": 195187.5,
      "d": 515.625,
      "v": 100
    },
    {
      "midi": 36,
      "hit": false,
      "t": 195187.5,
      "d": 0.78125,
      "v": 100
    },
    {
      "midi": 62,
      "hit": false,
      "t": 195281.25,
      "d": 93.75,
      "v": 100
    },
    {
      "midi": 62,
      "hit": false,
      "t": 195281.25,
      "d": 93.75,
      "v": 100
    },
    {
      "midi": 62,
      "hit": false,
      "t": 195375,
      "d": 93.75,
      "v": 100
    },
    {
      "midi": 40,
      "hit": false,
      "t": 195375,
      "d": 0.78125,
      "v": 100
    },
    {
      "midi": 62,
      "hit": false,
      "t": 195375,
      "d": 93.75,
      "v": 100
    },
    {
      "midi": 62,
      "hit": false,
      "t": 195468.75,
      "d": 187.5,
      "v": 100
    },
    {
      "midi": 62,
      "hit": false,
      "t": 195468.75,
      "d": 187.5,
      "v": 100
    },
    {
      "midi": 50,
      "hit": false,
      "t": 195562.5,
      "d": 93.75,
      "v": 100
    },
    {
      "midi": 47,
      "hit": false,
      "t": 195562.5,
      "d": 93.75,
      "v": 100
    },
    {
      "midi": 43,
      "hit": false,
      "t": 195562.5,
      "d": 187.5,
      "v": 100
    },
    {
      "midi": 47,
      "hit": false,
      "t": 195562.5,
      "d": 187.5,
      "v": 100
    },
    {
      "midi": 50,
      "hit": false,
      "t": 195562.5,
      "d": 93.75,
      "v": 100
    },
    {
      "midi": 47,
      "hit": false,
      "t": 195562.5,
      "d": 93.75,
      "v": 100
    },
    {
      "midi": 43,
      "hit": false,
      "t": 195562.5,
      "d": 187.5,
      "v": 100
    },
    {
      "midi": 47,
      "hit": false,
      "t": 195562.5,
      "d": 187.5,
      "v": 100
    },
    {
      "midi": 62,
      "hit": false,
      "t": 195656.25,
      "d": 93.75,
      "v": 100
    },
    {
      "midi": 38,
      "hit": false,
      "t": 195656.25,
      "d": 0.78125,
      "v": 100
    },
    {
      "midi": 62,
      "hit": false,
      "t": 195656.25,
      "d": 93.75,
      "v": 100
    },
    {
      "midi": 62,
      "hit": false,
      "t": 195750,
      "d": 93.75,
      "v": 100
    },
    {
      "midi": 42,
      "hit": false,
      "t": 195750,
      "d": 140.625,
      "v": 100
    },
    {
      "midi": 36,
      "hit": false,
      "t": 195750,
      "d": 0.78125,
      "v": 100
    },
    {
      "midi": 62,
      "hit": false,
      "t": 195750,
      "d": 93.75,
      "v": 100
    },
    {
      "midi": 62,
      "hit": false,
      "t": 195843.75,
      "d": 187.5,
      "v": 100
    },
    {
      "midi": 38,
      "hit": false,
      "t": 195843.75,
      "d": 0.78125,
      "v": 100
    },
    {
      "midi": 62,
      "hit": false,
      "t": 195843.75,
      "d": 187.5,
      "v": 100
    },
    {
      "midi": 50,
      "hit": false,
      "t": 195937.5,
      "d": 93.75,
      "v": 100
    },
    {
      "midi": 47,
      "hit": false,
      "t": 195937.5,
      "d": 93.75,
      "v": 100
    },
    {
      "midi": 43,
      "hit": false,
      "t": 195937.5,
      "d": 375,
      "v": 100
    },
    {
      "midi": 47,
      "hit": false,
      "t": 195937.5,
      "d": 375,
      "v": 100
    },
    {
      "midi": 42,
      "hit": false,
      "t": 195937.5,
      "d": 515.625,
      "v": 100
    },
    {
      "midi": 36,
      "hit": false,
      "t": 195937.5,
      "d": 0.78125,
      "v": 100
    },
    {
      "midi": 50,
      "hit": false,
      "t": 195937.5,
      "d": 93.75,
      "v": 100
    },
    {
      "midi": 47,
      "hit": false,
      "t": 195937.5,
      "d": 93.75,
      "v": 100
    },
    {
      "midi": 43,
      "hit": false,
      "t": 195937.5,
      "d": 375,
      "v": 100
    },
    {
      "midi": 47,
      "hit": false,
      "t": 195937.5,
      "d": 375,
      "v": 100
    },
    {
      "midi": 62,
      "hit": false,
      "t": 196031.25,
      "d": 93.75,
      "v": 100
    },
    {
      "midi": 62,
      "hit": false,
      "t": 196031.25,
      "d": 93.75,
      "v": 100
    },
    {
      "midi": 62,
      "hit": false,
      "t": 196125,
      "d": 93.75,
      "v": 100
    },
    {
      "midi": 50,
      "hit": false,
      "t": 196125,
      "d": 93.75,
      "v": 100
    },
    {
      "midi": 47,
      "hit": false,
      "t": 196125,
      "d": 93.75,
      "v": 100
    },
    {
      "midi": 40,
      "hit": false,
      "t": 196125,
      "d": 0.78125,
      "v": 100
    },
    {
      "midi": 52,
      "hit": false,
      "t": 196125,
      "d": 0.78125,
      "v": 100
    },
    {
      "midi": 62,
      "hit": false,
      "t": 196125,
      "d": 93.75,
      "v": 100
    },
    {
      "midi": 50,
      "hit": false,
      "t": 196125,
      "d": 93.75,
      "v": 100
    },
    {
      "midi": 47,
      "hit": false,
      "t": 196125,
      "d": 93.75,
      "v": 100
    },
    {
      "midi": 62,
      "hit": false,
      "t": 196218.75,
      "d": 187.5,
      "v": 100
    },
    {
      "midi": 62,
      "hit": false,
      "t": 196218.75,
      "d": 187.5,
      "v": 100
    },
    {
      "midi": 62,
      "hit": false,
      "t": 196406.25,
      "d": 93.75,
      "v": 100
    },
    {
      "midi": 62,
      "hit": false,
      "t": 196406.25,
      "d": 93.75,
      "v": 100
    },
    {
      "midi": 76,
      "hit": false,
      "t": 196500,
      "d": 12000,
      "v": 100
    },
    {
      "midi": 45,
      "hit": false,
      "t": 196500,
      "d": 46.875,
      "v": 100
    },
    {
      "midi": 64,
      "hit": false,
      "t": 196500,
      "d": 93.75,
      "v": 100
    },
    {
      "midi": 49,
      "hit": false,
      "t": 196500,
      "d": 187.5,
      "v": 100
    },
    {
      "midi": 45,
      "hit": false,
      "t": 196500,
      "d": 187.5,
      "v": 100
    },
    {
      "midi": 40,
      "hit": false,
      "t": 196500,
      "d": 328.125,
      "v": 100
    },
    {
      "midi": 36,
      "hit": false,
      "t": 196500,
      "d": 0.78125,
      "v": 100
    },
    {
      "midi": 52,
      "hit": false,
      "t": 196500,
      "d": 0.78125,
      "v": 100
    },
    {
      "midi": 88,
      "hit": false,
      "t": 196500,
      "d": 187.5,
      "v": 100
    },
    {
      "midi": 76,
      "hit": false,
      "t": 196500,
      "d": 12000,
      "v": 100
    },
    {
      "midi": 45,
      "hit": false,
      "t": 196500,
      "d": 46.875,
      "v": 100
    },
    {
      "midi": 64,
      "hit": false,
      "t": 196500,
      "d": 93.75,
      "v": 100
    },
    {
      "midi": 49,
      "hit": false,
      "t": 196500,
      "d": 187.5,
      "v": 100
    },
    {
      "midi": 45,
      "hit": false,
      "t": 196500,
      "d": 187.5,
      "v": 100
    },
    {
      "midi": 49,
      "hit": false,
      "t": 196546.875,
      "d": 140.625,
      "v": 100
    },
    {
      "midi": 49,
      "hit": false,
      "t": 196546.875,
      "d": 140.625,
      "v": 100
    },
    {
      "midi": 52,
      "hit": false,
      "t": 196593.75,
      "d": 93.75,
      "v": 100
    },
    {
      "midi": 64,
      "hit": false,
      "t": 196593.75,
      "d": 187.5,
      "v": 100
    },
    {
      "midi": 52,
      "hit": false,
      "t": 196593.75,
      "d": 93.75,
      "v": 100
    },
    {
      "midi": 64,
      "hit": false,
      "t": 196593.75,
      "d": 187.5,
      "v": 100
    },
    {
      "midi": 38,
      "hit": false,
      "t": 196687.5,
      "d": 0.78125,
      "v": 100
    },
    {
      "midi": 40,
      "hit": false,
      "t": 196734.375,
      "d": 0.78125,
      "v": 100
    },
    {
      "midi": 64,
      "hit": false,
      "t": 196781.25,
      "d": 93.75,
      "v": 100
    },
    {
      "midi": 64,
      "hit": false,
      "t": 196781.25,
      "d": 93.75,
      "v": 100
    },
    {
      "midi": 64,
      "hit": false,
      "t": 196875,
      "d": 93.75,
      "v": 100
    },
    {
      "midi": 40,
      "hit": false,
      "t": 196875,
      "d": 328.125,
      "v": 100
    },
    {
      "midi": 38,
      "hit": false,
      "t": 196875,
      "d": 0.78125,
      "v": 100
    },
    {
      "midi": 64,
      "hit": false,
      "t": 196875,
      "d": 93.75,
      "v": 100
    },
    {
      "midi": 64,
      "hit": false,
      "t": 196968.75,
      "d": 187.5,
      "v": 100
    },
    {
      "midi": 64,
      "hit": false,
      "t": 196968.75,
      "d": 187.5,
      "v": 100
    },
    {
      "midi": 49,
      "hit": false,
      "t": 197062.5,
      "d": 93.75,
      "v": 100
    },
    {
      "midi": 52,
      "hit": false,
      "t": 197062.5,
      "d": 93.75,
      "v": 100
    },
    {
      "midi": 49,
      "hit": false,
      "t": 197062.5,
      "d": 187.5,
      "v": 100
    },
    {
      "midi": 45,
      "hit": false,
      "t": 197062.5,
      "d": 187.5,
      "v": 100
    },
    {
      "midi": 38,
      "hit": false,
      "t": 197062.5,
      "d": 0.78125,
      "v": 100
    },
    {
      "midi": 43,
      "hit": false,
      "t": 197062.5,
      "d": 0.78125,
      "v": 100
    },
    {
      "midi": 49,
      "hit": false,
      "t": 197062.5,
      "d": 93.75,
      "v": 100
    },
    {
      "midi": 52,
      "hit": false,
      "t": 197062.5,
      "d": 93.75,
      "v": 100
    },
    {
      "midi": 49,
      "hit": false,
      "t": 197062.5,
      "d": 187.5,
      "v": 100
    },
    {
      "midi": 45,
      "hit": false,
      "t": 197062.5,
      "d": 187.5,
      "v": 100
    },
    {
      "midi": 38,
      "hit": false,
      "t": 197109.375,
      "d": 0.78125,
      "v": 100
    },
    {
      "midi": 43,
      "hit": false,
      "t": 197109.375,
      "d": 0.78125,
      "v": 100
    },
    {
      "midi": 64,
      "hit": false,
      "t": 197156.25,
      "d": 93.75,
      "v": 100
    },
    {
      "midi": 41,
      "hit": false,
      "t": 197156.25,
      "d": 0.78125,
      "v": 100
    },
    {
      "midi": 38,
      "hit": false,
      "t": 197156.25,
      "d": 0.78125,
      "v": 100
    },
    {
      "midi": 64,
      "hit": false,
      "t": 197156.25,
      "d": 93.75,
      "v": 100
    },
    {
      "midi": 38,
      "hit": false,
      "t": 197203.125,
      "d": 0.78125,
      "v": 100
    },
    {
      "midi": 41,
      "hit": false,
      "t": 197203.125,
      "d": 0.78125,
      "v": 100
    },
    {
      "midi": 64,
      "hit": false,
      "t": 197250,
      "d": 93.75,
      "v": 100
    },
    {
      "midi": 40,
      "hit": false,
      "t": 197250,
      "d": 328.125,
      "v": 100
    },
    {
      "midi": 41,
      "hit": false,
      "t": 197250,
      "d": 0.78125,
      "v": 100
    },
    {
      "midi": 38,
      "hit": false,
      "t": 197250,
      "d": 0.78125,
      "v": 100
    },
    {
      "midi": 64,
      "hit": false,
      "t": 197250,
      "d": 93.75,
      "v": 100
    },
    {
      "midi": 64,
      "hit": false,
      "t": 197343.75,
      "d": 187.5,
      "v": 100
    },
    {
      "midi": 64,
      "hit": false,
      "t": 197343.75,
      "d": 187.5,
      "v": 100
    },
    {
      "midi": 52,
      "hit": false,
      "t": 197437.5,
      "d": 93.75,
      "v": 100
    },
    {
      "midi": 49,
      "hit": false,
      "t": 197437.5,
      "d": 93.75,
      "v": 100
    },
    {
      "midi": 49,
      "hit": false,
      "t": 197437.5,
      "d": 515.625,
      "v": 100
    },
    {
      "midi": 45,
      "hit": false,
      "t": 197437.5,
      "d": 515.625,
      "v": 100
    },
    {
      "midi": 49,
      "hit": false,
      "t": 197437.5,
      "d": 0.78125,
      "v": 100
    },
    {
      "midi": 36,
      "hit": false,
      "t": 197437.5,
      "d": 0.78125,
      "v": 100
    },
    {
      "midi": 52,
      "hit": false,
      "t": 197437.5,
      "d": 93.75,
      "v": 100
    },
    {
      "midi": 49,
      "hit": false,
      "t": 197437.5,
      "d": 93.75,
      "v": 100
    },
    {
      "midi": 49,
      "hit": false,
      "t": 197437.5,
      "d": 515.625,
      "v": 100
    },
    {
      "midi": 45,
      "hit": false,
      "t": 197437.5,
      "d": 515.625,
      "v": 100
    },
    {
      "midi": 64,
      "hit": false,
      "t": 197531.25,
      "d": 93.75,
      "v": 100
    },
    {
      "midi": 64,
      "hit": false,
      "t": 197531.25,
      "d": 93.75,
      "v": 100
    },
    {
      "midi": 64,
      "hit": false,
      "t": 197625,
      "d": 93.75,
      "v": 100
    },
    {
      "midi": 52,
      "hit": false,
      "t": 197625,
      "d": 93.75,
      "v": 100
    },
    {
      "midi": 49,
      "hit": false,
      "t": 197625,
      "d": 93.75,
      "v": 100
    },
    {
      "midi": 40,
      "hit": false,
      "t": 197625,
      "d": 328.125,
      "v": 100
    },
    {
      "midi": 64,
      "hit": false,
      "t": 197625,
      "d": 93.75,
      "v": 100
    },
    {
      "midi": 52,
      "hit": false,
      "t": 197625,
      "d": 93.75,
      "v": 100
    },
    {
      "midi": 49,
      "hit": false,
      "t": 197625,
      "d": 93.75,
      "v": 100
    },
    {
      "midi": 64,
      "hit": false,
      "t": 197718.75,
      "d": 187.5,
      "v": 100
    },
    {
      "midi": 64,
      "hit": false,
      "t": 197718.75,
      "d": 187.5,
      "v": 100
    },
    {
      "midi": 64,
      "hit": false,
      "t": 197906.25,
      "d": 93.75,
      "v": 100
    },
    {
      "midi": 64,
      "hit": false,
      "t": 197906.25,
      "d": 93.75,
      "v": 100
    },
    {
      "midi": 64,
      "hit": false,
      "t": 198000,
      "d": 93.75,
      "v": 100
    },
    {
      "midi": 49,
      "hit": false,
      "t": 198000,
      "d": 93.75,
      "v": 100
    },
    {
      "midi": 52,
      "hit": false,
      "t": 198000,
      "d": 93.75,
      "v": 100
    },
    {
      "midi": 40,
      "hit": false,
      "t": 198000,
      "d": 375,
      "v": 100
    },
    {
      "midi": 52,
      "hit": false,
      "t": 198000,
      "d": 375,
      "v": 100
    },
    {
      "midi": 40,
      "hit": false,
      "t": 198000,
      "d": 375,
      "v": 100
    },
    {
      "midi": 36,
      "hit": false,
      "t": 198000,
      "d": 0.78125,
      "v": 100
    },
    {
      "midi": 40,
      "hit": false,
      "t": 198000,
      "d": 0.78125,
      "v": 100
    },
    {
      "midi": 38,
      "hit": false,
      "t": 198000,
      "d": 0.78125,
      "v": 100
    },
    {
      "midi": 55,
      "hit": false,
      "t": 198000,
      "d": 0.78125,
      "v": 100
    },
    {
      "midi": 88,
      "hit": false,
      "t": 198000,
      "d": 187.5,
      "v": 100
    },
    {
      "midi": 64,
      "hit": false,
      "t": 198000,
      "d": 93.75,
      "v": 100
    },
    {
      "midi": 49,
      "hit": false,
      "t": 198000,
      "d": 93.75,
      "v": 100
    },
    {
      "midi": 52,
      "hit": false,
      "t": 198000,
      "d": 93.75,
      "v": 100
    },
    {
      "midi": 40,
      "hit": false,
      "t": 198000,
      "d": 375,
      "v": 100
    },
    {
      "midi": 52,
      "hit": false,
      "t": 198000,
      "d": 375,
      "v": 100
    },
    {
      "midi": 64,
      "hit": false,
      "t": 198093.75,
      "d": 187.5,
      "v": 100
    },
    {
      "midi": 64,
      "hit": false,
      "t": 198093.75,
      "d": 187.5,
      "v": 100
    },
    {
      "midi": 36,
      "hit": false,
      "t": 198187.5,
      "d": 0.78125,
      "v": 100
    },
    {
      "midi": 64,
      "hit": false,
      "t": 198281.25,
      "d": 93.75,
      "v": 100
    },
    {
      "midi": 64,
      "hit": false,
      "t": 198281.25,
      "d": 93.75,
      "v": 100
    },
    {
      "midi": 64,
      "hit": false,
      "t": 198375,
      "d": 93.75,
      "v": 100
    },
    {
      "midi": 36,
      "hit": false,
      "t": 198375,
      "d": 0.78125,
      "v": 100
    },
    {
      "midi": 64,
      "hit": false,
      "t": 198375,
      "d": 93.75,
      "v": 100
    },
    {
      "midi": 64,
      "hit": false,
      "t": 198468.75,
      "d": 187.5,
      "v": 100
    },
    {
      "midi": 64,
      "hit": false,
      "t": 198468.75,
      "d": 187.5,
      "v": 100
    },
    {
      "midi": 52,
      "hit": false,
      "t": 198562.5,
      "d": 93.75,
      "v": 100
    },
    {
      "midi": 49,
      "hit": false,
      "t": 198562.5,
      "d": 93.75,
      "v": 100
    },
    {
      "midi": 40,
      "hit": false,
      "t": 198562.5,
      "d": 375,
      "v": 100
    },
    {
      "midi": 52,
      "hit": false,
      "t": 198562.5,
      "d": 375,
      "v": 100
    },
    {
      "midi": 40,
      "hit": false,
      "t": 198562.5,
      "d": 375,
      "v": 100
    },
    {
      "midi": 36,
      "hit": false,
      "t": 198562.5,
      "d": 0.78125,
      "v": 100
    },
    {
      "midi": 40,
      "hit": false,
      "t": 198562.5,
      "d": 0.78125,
      "v": 100
    },
    {
      "midi": 38,
      "hit": false,
      "t": 198562.5,
      "d": 0.78125,
      "v": 100
    },
    {
      "midi": 55,
      "hit": false,
      "t": 198562.5,
      "d": 0.78125,
      "v": 100
    },
    {
      "midi": 88,
      "hit": false,
      "t": 198562.5,
      "d": 187.5,
      "v": 100
    },
    {
      "midi": 52,
      "hit": false,
      "t": 198562.5,
      "d": 93.75,
      "v": 100
    },
    {
      "midi": 49,
      "hit": false,
      "t": 198562.5,
      "d": 93.75,
      "v": 100
    },
    {
      "midi": 40,
      "hit": false,
      "t": 198562.5,
      "d": 375,
      "v": 100
    },
    {
      "midi": 52,
      "hit": false,
      "t": 198562.5,
      "d": 375,
      "v": 100
    },
    {
      "midi": 64,
      "hit": false,
      "t": 198656.25,
      "d": 93.75,
      "v": 100
    },
    {
      "midi": 64,
      "hit": false,
      "t": 198656.25,
      "d": 93.75,
      "v": 100
    },
    {
      "midi": 64,
      "hit": false,
      "t": 198750,
      "d": 93.75,
      "v": 100
    },
    {
      "midi": 36,
      "hit": false,
      "t": 198750,
      "d": 0.78125,
      "v": 100
    },
    {
      "midi": 64,
      "hit": false,
      "t": 198750,
      "d": 93.75,
      "v": 100
    },
    {
      "midi": 64,
      "hit": false,
      "t": 198843.75,
      "d": 187.5,
      "v": 100
    },
    {
      "midi": 64,
      "hit": false,
      "t": 198843.75,
      "d": 187.5,
      "v": 100
    },
    {
      "midi": 36,
      "hit": false,
      "t": 198937.5,
      "d": 0.78125,
      "v": 100
    },
    {
      "midi": 64,
      "hit": false,
      "t": 199031.25,
      "d": 93.75,
      "v": 100
    },
    {
      "midi": 64,
      "hit": false,
      "t": 199031.25,
      "d": 93.75,
      "v": 100
    },
    {
      "midi": 64,
      "hit": false,
      "t": 199125,
      "d": 93.75,
      "v": 100
    },
    {
      "midi": 52,
      "hit": false,
      "t": 199125,
      "d": 93.75,
      "v": 100
    },
    {
      "midi": 49,
      "hit": false,
      "t": 199125,
      "d": 93.75,
      "v": 100
    },
    {
      "midi": 40,
      "hit": false,
      "t": 199125,
      "d": 328.125,
      "v": 100
    },
    {
      "midi": 52,
      "hit": false,
      "t": 199125,
      "d": 328.125,
      "v": 100
    },
    {
      "midi": 40,
      "hit": false,
      "t": 199125,
      "d": 328.125,
      "v": 100
    },
    {
      "midi": 36,
      "hit": false,
      "t": 199125,
      "d": 0.78125,
      "v": 100
    },
    {
      "midi": 40,
      "hit": false,
      "t": 199125,
      "d": 0.78125,
      "v": 100
    },
    {
      "midi": 38,
      "hit": false,
      "t": 199125,
      "d": 0.78125,
      "v": 100
    },
    {
      "midi": 55,
      "hit": false,
      "t": 199125,
      "d": 0.78125,
      "v": 100
    },
    {
      "midi": 88,
      "hit": false,
      "t": 199125,
      "d": 187.5,
      "v": 100
    },
    {
      "midi": 64,
      "hit": false,
      "t": 199125,
      "d": 93.75,
      "v": 100
    },
    {
      "midi": 52,
      "hit": false,
      "t": 199125,
      "d": 93.75,
      "v": 100
    },
    {
      "midi": 49,
      "hit": false,
      "t": 199125,
      "d": 93.75,
      "v": 100
    },
    {
      "midi": 40,
      "hit": false,
      "t": 199125,
      "d": 328.125,
      "v": 100
    },
    {
      "midi": 52,
      "hit": false,
      "t": 199125,
      "d": 328.125,
      "v": 100
    },
    {
      "midi": 64,
      "hit": false,
      "t": 199218.75,
      "d": 187.5,
      "v": 100
    },
    {
      "midi": 64,
      "hit": false,
      "t": 199218.75,
      "d": 187.5,
      "v": 100
    },
    {
      "midi": 36,
      "hit": false,
      "t": 199312.5,
      "d": 0.78125,
      "v": 100
    },
    {
      "midi": 64,
      "hit": false,
      "t": 199406.25,
      "d": 93.75,
      "v": 100
    },
    {
      "midi": 64,
      "hit": false,
      "t": 199406.25,
      "d": 93.75,
      "v": 100
    },
    {
      "midi": 64,
      "hit": false,
      "t": 199500,
      "d": 93.75,
      "v": 100
    },
    {
      "midi": 52,
      "hit": false,
      "t": 199500,
      "d": 93.75,
      "v": 100
    },
    {
      "midi": 49,
      "hit": false,
      "t": 199500,
      "d": 93.75,
      "v": 100
    },
    {
      "midi": 40,
      "hit": false,
      "t": 199500,
      "d": 375,
      "v": 100
    },
    {
      "midi": 52,
      "hit": false,
      "t": 199500,
      "d": 375,
      "v": 100
    },
    {
      "midi": 40,
      "hit": false,
      "t": 199500,
      "d": 375,
      "v": 100
    },
    {
      "midi": 36,
      "hit": false,
      "t": 199500,
      "d": 0.78125,
      "v": 100
    },
    {
      "midi": 40,
      "hit": false,
      "t": 199500,
      "d": 0.78125,
      "v": 100
    },
    {
      "midi": 38,
      "hit": false,
      "t": 199500,
      "d": 0.78125,
      "v": 100
    },
    {
      "midi": 57,
      "hit": false,
      "t": 199500,
      "d": 0.78125,
      "v": 100
    },
    {
      "midi": 88,
      "hit": false,
      "t": 199500,
      "d": 187.5,
      "v": 100
    },
    {
      "midi": 64,
      "hit": false,
      "t": 199500,
      "d": 93.75,
      "v": 100
    },
    {
      "midi": 52,
      "hit": false,
      "t": 199500,
      "d": 93.75,
      "v": 100
    },
    {
      "midi": 49,
      "hit": false,
      "t": 199500,
      "d": 93.75,
      "v": 100
    },
    {
      "midi": 40,
      "hit": false,
      "t": 199500,
      "d": 375,
      "v": 100
    },
    {
      "midi": 52,
      "hit": false,
      "t": 199500,
      "d": 375,
      "v": 100
    },
    {
      "midi": 64,
      "hit": false,
      "t": 199593.75,
      "d": 187.5,
      "v": 100
    },
    {
      "midi": 64,
      "hit": false,
      "t": 199593.75,
      "d": 187.5,
      "v": 100
    },
    {
      "midi": 36,
      "hit": false,
      "t": 199687.5,
      "d": 0.78125,
      "v": 100
    },
    {
      "midi": 64,
      "hit": false,
      "t": 199781.25,
      "d": 93.75,
      "v": 100
    },
    {
      "midi": 64,
      "hit": false,
      "t": 199781.25,
      "d": 93.75,
      "v": 100
    },
    {
      "midi": 64,
      "hit": false,
      "t": 199875,
      "d": 93.75,
      "v": 100
    },
    {
      "midi": 36,
      "hit": false,
      "t": 199875,
      "d": 0.78125,
      "v": 100
    },
    {
      "midi": 64,
      "hit": false,
      "t": 199875,
      "d": 93.75,
      "v": 100
    },
    {
      "midi": 64,
      "hit": false,
      "t": 199968.75,
      "d": 187.5,
      "v": 100
    },
    {
      "midi": 64,
      "hit": false,
      "t": 199968.75,
      "d": 187.5,
      "v": 100
    },
    {
      "midi": 52,
      "hit": false,
      "t": 200015.625,
      "d": 93.75,
      "v": 100
    },
    {
      "midi": 49,
      "hit": false,
      "t": 200015.625,
      "d": 93.75,
      "v": 100
    },
    {
      "midi": 52,
      "hit": false,
      "t": 200015.625,
      "d": 93.75,
      "v": 100
    },
    {
      "midi": 49,
      "hit": false,
      "t": 200015.625,
      "d": 93.75,
      "v": 100
    },
    {
      "midi": 40,
      "hit": false,
      "t": 200062.5,
      "d": 8437.5,
      "v": 100
    },
    {
      "midi": 52,
      "hit": false,
      "t": 200062.5,
      "d": 8437.5,
      "v": 100
    },
    {
      "midi": 40,
      "hit": false,
      "t": 200062.5,
      "d": 8437.5,
      "v": 100
    },
    {
      "midi": 36,
      "hit": false,
      "t": 200062.5,
      "d": 0.78125,
      "v": 100
    },
    {
      "midi": 38,
      "hit": false,
      "t": 200062.5,
      "d": 0.78125,
      "v": 100
    },
    {
      "midi": 40,
      "hit": false,
      "t": 200062.5,
      "d": 0.78125,
      "v": 100
    },
    {
      "midi": 57,
      "hit": false,
      "t": 200062.5,
      "d": 0.78125,
      "v": 100
    },
    {
      "midi": 88,
      "hit": false,
      "t": 200062.5,
      "d": 187.5,
      "v": 100
    },
    {
      "midi": 40,
      "hit": false,
      "t": 200062.5,
      "d": 8437.5,
      "v": 100
    },
    {
      "midi": 52,
      "hit": false,
      "t": 200062.5,
      "d": 8437.5,
      "v": 100
    },
    {
      "midi": 64,
      "hit": false,
      "t": 200156.25,
      "d": 93.75,
      "v": 100
    },
    {
      "midi": 64,
      "hit": false,
      "t": 200156.25,
      "d": 93.75,
      "v": 100
    },
    {
      "midi": 64,
      "hit": false,
      "t": 200250,
      "d": 93.75,
      "v": 100
    },
    {
      "midi": 64,
      "hit": false,
      "t": 200250,
      "d": 93.75,
      "v": 100
    },
    {
      "midi": 64,
      "hit": false,
      "t": 200343.75,
      "d": 187.5,
      "v": 100
    },
    {
      "midi": 64,
      "hit": false,
      "t": 200343.75,
      "d": 187.5,
      "v": 100
    },
    {
      "midi": 64,
      "hit": false,
      "t": 200531.25,
      "d": 93.75,
      "v": 100
    },
    {
      "midi": 64,
      "hit": false,
      "t": 200531.25,
      "d": 93.75,
      "v": 100
    },
    {
      "midi": 64,
      "hit": false,
      "t": 200625,
      "d": 93.75,
      "v": 100
    },
    {
      "midi": 64,
      "hit": false,
      "t": 200625,
      "d": 93.75,
      "v": 100
    },
    {
      "midi": 64,
      "hit": false,
      "t": 200718.75,
      "d": 187.5,
      "v": 100
    },
    {
      "midi": 64,
      "hit": false,
      "t": 200718.75,
      "d": 187.5,
      "v": 100
    },
    {
      "midi": 64,
      "hit": false,
      "t": 200906.25,
      "d": 93.75,
      "v": 100
    },
    {
      "midi": 64,
      "hit": false,
      "t": 200906.25,
      "d": 93.75,
      "v": 100
    },
    {
      "midi": 50,
      "hit": false,
      "t": 205500,
      "d": 0.78125,
      "v": 100
    },
    {
      "midi": 48,
      "hit": false,
      "t": 205546.875,
      "d": 0.78125,
      "v": 100
    },
    {
      "midi": 50,
      "hit": false,
      "t": 205593.75,
      "d": 0.78125,
      "v": 100
    },
    {
      "midi": 48,
      "hit": false,
      "t": 205710.9375,
      "d": 0.78125,
      "v": 100
    },
    {
      "midi": 47,
      "hit": false,
      "t": 205750,
      "d": 0.78125,
      "v": 100
    },
    {
      "midi": 45,
      "hit": false,
      "t": 205812.5,
      "d": 0.78125,
      "v": 100
    },
    {
      "midi": 43,
      "hit": false,
      "t": 205875,
      "d": 0.78125,
      "v": 100
    },
    {
      "midi": 41,
      "hit": false,
      "t": 205976.5625,
      "d": 0.78125,
      "v": 100
    },
    {
      "midi": 41,
      "hit": false,
      "t": 206031.25,
      "d": 0.78125,
      "v": 100
    },
    {
      "midi": 41,
      "hit": false,
      "t": 206078.125,
      "d": 0.78125,
      "v": 100
    },
    {
      "midi": 43,
      "hit": false,
      "t": 206109.375,
      "d": 0.78125,
      "v": 100
    },
    {
      "midi": 45,
      "hit": false,
      "t": 206203.125,
      "d": 0.78125,
      "v": 100
    },
    {
      "midi": 47,
      "hit": false,
      "t": 206265.625,
      "d": 0.78125,
      "v": 100
    },
    {
      "midi": 45,
      "hit": false,
      "t": 206296.875,
      "d": 0.78125,
      "v": 100
    },
    {
      "midi": 43,
      "hit": false,
      "t": 206343.75,
      "d": 0.78125,
      "v": 100
    },
    {
      "midi": 41,
      "hit": false,
      "t": 206437.5,
      "d": 0.78125,
      "v": 100
    },
    {
      "midi": 41,
      "hit": false,
      "t": 206484.375,
      "d": 0.78125,
      "v": 100
    },
    {
      "midi": 41,
      "hit": false,
      "t": 206531.25,
      "d": 0.78125,
      "v": 100
    },
    {
      "midi": 41,
      "hit": false,
      "t": 206578.125,
      "d": 0.78125,
      "v": 100
    },
    {
      "midi": 41,
      "hit": false,
      "t": 206671.875,
      "d": 0.78125,
      "v": 100
    },
    {
      "midi": 41,
      "hit": false,
      "t": 206765.625,
      "d": 0.78125,
      "v": 100
    },
    {
      "midi": 41,
      "hit": false,
      "t": 206835.9375,
      "d": 0.78125,
      "v": 100
    },
    {
      "midi": 40,
      "hit": false,
      "t": 207000,
      "d": 0.78125,
      "v": 100
    },
    {
      "midi": 38,
      "hit": false,
      "t": 207000,
      "d": 0.78125,
      "v": 100
    },
    {
      "midi": 38,
      "hit": false,
      "t": 207281.25,
      "d": 0.78125,
      "v": 100
    },
    {
      "midi": 40,
      "hit": false,
      "t": 207281.25,
      "d": 0.78125,
      "v": 100
    },
    {
      "midi": 40,
      "hit": false,
      "t": 207562.5,
      "d": 0.78125,
      "v": 100
    },
    {
      "midi": 38,
      "hit": false,
      "t": 207562.5,
      "d": 0.78125,
      "v": 100
    },
    {
      "midi": 45,
      "hit": false,
      "t": 207656.25,
      "d": 0.78125,
      "v": 100
    },
    {
      "midi": 43,
      "hit": false,
      "t": 207703.125,
      "d": 0.78125,
      "v": 100
    },
    {
      "midi": 41,
      "hit": false,
      "t": 207750,
      "d": 0.78125,
      "v": 100
    },
    {
      "midi": 45,
      "hit": false,
      "t": 207796.875,
      "d": 0.78125,
      "v": 100
    },
    {
      "midi": 36,
      "hit": false,
      "t": 207812.5,
      "d": 0.78125,
      "v": 100
    },
    {
      "midi": 76,
      "hit": false,
      "t": 208875,
      "d": 750,
      "v": 100
    },
    {
      "midi": 40,
      "hit": false,
      "t": 208875,
      "d": 750,
      "v": 100
    },
    {
      "midi": 52,
      "hit": false,
      "t": 208875,
      "d": 750,
      "v": 100
    },
    {
      "midi": 40,
      "hit": false,
      "t": 208875,
      "d": 750,
      "v": 100
    },
    {
      "midi": 36,
      "hit": false,
      "t": 208875,
      "d": 0.78125,
      "v": 100
    },
    {
      "midi": 57,
      "hit": false,
      "t": 208875,
      "d": 0.78125,
      "v": 100
    },
    {
      "midi": 40,
      "hit": false,
      "t": 208875,
      "d": 0.78125,
      "v": 100
    },
    {
      "midi": 38,
      "hit": false,
      "t": 208875,
      "d": 0.78125,
      "v": 100
    },
    {
      "midi": 55,
      "hit": false,
      "t": 208875,
      "d": 0.78125,
      "v": 100
    },
    {
      "midi": 76,
      "hit": false,
      "t": 208875,
      "d": 750,
      "v": 100
    },
    {
      "midi": 40,
      "hit": false,
      "t": 208875,
      "d": 750,
      "v": 100
    },
    {
      "midi": 52,
      "hit": false,
      "t": 208875,
      "d": 750,
      "v": 100
    }
  ]
}