{
  "jsonPath": "Unknown/Unknown/R Kumar/jumelle-qui-joue.json",
  "path": "Unknown\\Unknown\\R Kumar\\Jumelle Qui Joue.mid",
  "name": "Jumelle Qui Joue",
  "difficulty": "Advanced",
  "bpm": 72.00002880001152,
  "notes": [
    {
      "midi": 62,
      "hit": false,
      "t": 0,
      "d": 833.3330000000001,
      "v": 127
    },
    {
      "midi": 42,
      "hit": false,
      "t": 0,
      "d": 833.3330000000001,
      "v": 127
    },
    {
      "midi": 58,
      "hit": false,
      "t": 833.3330000000001,
      "d": 833.3330000000001,
      "v": 127
    },
    {
      "midi": 49,
      "hit": false,
      "t": 833.3330000000001,
      "d": 833.3330000000001,
      "v": 127
    },
    {
      "midi": 54,
      "hit": false,
      "t": 1666.6660000000002,
      "d": 2499.9990000000007,
      "v": 127
    },
    {
      "midi": 61,
      "hit": false,
      "t": 1666.6660000000002,
      "d": 2499.9990000000007,
      "v": 127
    },
    {
      "midi": 51,
      "hit": false,
      "t": 1666.6660000000002,
      "d": 833.3330000000001,
      "v": 127
    },
    {
      "midi": 53,
      "hit": false,
      "t": 2499.9990000000003,
      "d": 833.3330000000001,
      "v": 127
    },
    {
      "midi": 51,
      "hit": false,
      "t": 3333.3320000000003,
      "d": 833.3330000000005,
      "v": 127
    },
    {
      "midi": 60,
      "hit": false,
      "t": 4166.665000000001,
      "d": 1666.6660000000002,
      "v": 127
    },
    {
      "midi": 43,
      "hit": false,
      "t": 4166.665000000001,
      "d": 833.3330000000005,
      "v": 127
    },
    {
      "midi": 50,
      "hit": false,
      "t": 4999.998000000001,
      "d": 833.3330000000005,
      "v": 127
    },
    {
      "midi": 55,
      "hit": false,
      "t": 5833.331000000001,
      "d": 833.3329999999996,
      "v": 127
    },
    {
      "midi": 52,
      "hit": false,
      "t": 5833.331000000002,
      "d": 833.3330000000005,
      "v": 127
    },
    {
      "midi": 62,
      "hit": false,
      "t": 6666.664000000001,
      "d": 833.3330000000005,
      "v": 127
    },
    {
      "midi": 53,
      "hit": false,
      "t": 6666.6640000000025,
      "d": 833.3330000000005,
      "v": 127
    },
    {
      "midi": 59,
      "hit": false,
      "t": 7499.997000000001,
      "d": 833.3330000000005,
      "v": 127
    },
    {
      "midi": 55,
      "hit": false,
      "t": 7499.997000000003,
      "d": 833.3330000000005,
      "v": 127
    },
    {
      "midi": 63,
      "hit": false,
      "t": 8333.330000000002,
      "d": 833.3330000000005,
      "v": 127
    },
    {
      "midi": 42,
      "hit": false,
      "t": 8333.330000000004,
      "d": 833.3330000000005,
      "v": 127
    },
    {
      "midi": 60,
      "hit": false,
      "t": 9166.663000000002,
      "d": 833.3330000000005,
      "v": 127
    },
    {
      "midi": 51,
      "hit": false,
      "t": 9166.663000000004,
      "d": 833.3330000000005,
      "v": 127
    },
    {
      "midi": 58,
      "hit": false,
      "t": 9999.996000000003,
      "d": 2499.999,
      "v": 127
    },
    {
      "midi": 62,
      "hit": false,
      "t": 9999.996000000003,
      "d": 2499.999,
      "v": 127
    },
    {
      "midi": 53,
      "hit": false,
      "t": 9999.996000000005,
      "d": 833.3330000000005,
      "v": 127
    },
    {
      "midi": 54,
      "hit": false,
      "t": 10833.329000000005,
      "d": 833.3330000000005,
      "v": 127
    },
    {
      "midi": 53,
      "hit": false,
      "t": 11666.662000000006,
      "d": 833.3330000000005,
      "v": 127
    },
    {
      "midi": 65,
      "hit": false,
      "t": 12499.995000000003,
      "d": 833.3330000000005,
      "v": 127
    },
    {
      "midi": 44,
      "hit": false,
      "t": 12499.995000000006,
      "d": 833.3330000000005,
      "v": 127
    },
    {
      "midi": 61,
      "hit": false,
      "t": 13333.328000000003,
      "d": 833.3330000000005,
      "v": 127
    },
    {
      "midi": 53,
      "hit": false,
      "t": 13333.328000000007,
      "d": 833.3330000000005,
      "v": 127
    },
    {
      "midi": 60,
      "hit": false,
      "t": 14166.661000000004,
      "d": 1666.666000000001,
      "v": 127
    },
    {
      "midi": 64,
      "hit": false,
      "t": 14166.661000000004,
      "d": 1666.666000000001,
      "v": 127
    },
    {
      "midi": 55,
      "hit": false,
      "t": 14166.661000000007,
      "d": 833.3330000000005,
      "v": 127
    },
    {
      "midi": 56,
      "hit": false,
      "t": 14999.994000000008,
      "d": 2499.9990000000016,
      "v": 127
    },
    {
      "midi": 61,
      "hit": false,
      "t": 15833.327000000005,
      "d": 833.3329999999987,
      "v": 127
    },
    {
      "midi": 67,
      "hit": false,
      "t": 15833.327000000005,
      "d": 833.3329999999987,
      "v": 127
    },
    {
      "midi": 63,
      "hit": false,
      "t": 16666.660000000003,
      "d": 833.3329999999987,
      "v": 127
    },
    {
      "midi": 65,
      "hit": false,
      "t": 17499.993000000002,
      "d": 2499.999,
      "v": 127
    },
    {
      "midi": 49,
      "hit": false,
      "t": 17499.99300000001,
      "d": 833.3329999999987,
      "v": 127
    },
    {
      "midi": 56,
      "hit": false,
      "t": 18333.32600000001,
      "d": 833.3329999999987,
      "v": 127
    },
    {
      "midi": 58,
      "hit": false,
      "t": 19166.659000000007,
      "d": 833.3329999999987,
      "v": 127
    },
    {
      "midi": 61,
      "hit": false,
      "t": 19999.992000000002,
      "d": 833.3329999999987,
      "v": 127
    },
    {
      "midi": 60,
      "hit": false,
      "t": 19999.992000000006,
      "d": 833.3329999999987,
      "v": 127
    },
    {
      "midi": 68,
      "hit": false,
      "t": 20833.325,
      "d": 833.3329999999987,
      "v": 127
    },
    {
      "midi": 58,
      "hit": false,
      "t": 20833.325000000004,
      "d": 1666.666000000001,
      "v": 127
    },
    {
      "midi": 65,
      "hit": false,
      "t": 21666.658,
      "d": 833.3329999999987,
      "v": 127
    },
    {
      "midi": 61,
      "hit": false,
      "t": 22499.990999999998,
      "d": 2499.999,
      "v": 127
    },
    {
      "midi": 67,
      "hit": false,
      "t": 22499.990999999998,
      "d": 2499.999,
      "v": 127
    },
    {
      "midi": 51,
      "hit": false,
      "t": 22499.991000000005,
      "d": 833.3329999999987,
      "v": 127
    },
    {
      "midi": 58,
      "hit": false,
      "t": 23333.324000000004,
      "d": 833.3329999999987,
      "v": 127
    },
    {
      "midi": 60,
      "hit": false,
      "t": 24166.657000000003,
      "d": 833.3329999999987,
      "v": 127
    },
    {
      "midi": 70,
      "hit": false,
      "t": 24999.989999999998,
      "d": 1666.666000000001,
      "v": 127
    },
    {
      "midi": 61,
      "hit": false,
      "t": 24999.99,
      "d": 2499.999,
      "v": 127
    },
    {
      "midi": 66,
      "hit": false,
      "t": 26666.656,
      "d": 833.3329999999987,
      "v": 127
    },
    {
      "midi": 65,
      "hit": false,
      "t": 27499.988999999998,
      "d": 2499.999,
      "v": 127
    },
    {
      "midi": 71,
      "hit": false,
      "t": 27499.988999999998,
      "d": 2499.999,
      "v": 127
    },
    {
      "midi": 54,
      "hit": false,
      "t": 27499.989,
      "d": 833.3329999999987,
      "v": 127
    },
    {
      "midi": 61,
      "hit": false,
      "t": 28333.322,
      "d": 833.3329999999987,
      "v": 127
    },
    {
      "midi": 63,
      "hit": false,
      "t": 29166.655,
      "d": 833.3329999999987,
      "v": 127
    },
    {
      "midi": 66,
      "hit": false,
      "t": 29999.987999999998,
      "d": 1666.666000000001,
      "v": 127
    },
    {
      "midi": 70,
      "hit": false,
      "t": 29999.987999999998,
      "d": 1666.666000000001,
      "v": 127
    },
    {
      "midi": 62,
      "hit": false,
      "t": 29999.987999999998,
      "d": 833.3329999999987,
      "v": 127
    },
    {
      "midi": 61,
      "hit": false,
      "t": 30833.320999999996,
      "d": 833.3329999999987,
      "v": 127
    },
    {
      "midi": 42,
      "hit": false,
      "t": 31666.653999999995,
      "d": 833.3329999999987,
      "v": 127
    },
    {
      "midi": 62,
      "hit": false,
      "t": 31666.654,
      "d": 833.3329999999987,
      "v": 127
    },
    {
      "midi": 49,
      "hit": false,
      "t": 32499.986999999994,
      "d": 833.3329999999987,
      "v": 127
    },
    {
      "midi": 58,
      "hit": false,
      "t": 32499.986999999997,
      "d": 833.3330000000024,
      "v": 127
    },
    {
      "midi": 51,
      "hit": false,
      "t": 33333.31999999999,
      "d": 833.3329999999987,
      "v": 127
    },
    {
      "midi": 54,
      "hit": false,
      "t": 33333.32,
      "d": 2499.9990000000034,
      "v": 127
    },
    {
      "midi": 61,
      "hit": false,
      "t": 33333.32,
      "d": 2499.9990000000034,
      "v": 127
    },
    {
      "midi": 53,
      "hit": false,
      "t": 34166.65299999999,
      "d": 833.3329999999987,
      "v": 127
    },
    {
      "midi": 51,
      "hit": false,
      "t": 34999.98599999999,
      "d": 833.3329999999987,
      "v": 127
    },
    {
      "midi": 42,
      "hit": false,
      "t": 35833.31899999999,
      "d": 833.3329999999987,
      "v": 127
    },
    {
      "midi": 53,
      "hit": false,
      "t": 35833.319,
      "d": 833.3329999999987,
      "v": 127
    },
    {
      "midi": 49,
      "hit": false,
      "t": 36666.65199999999,
      "d": 833.3329999999987,
      "v": 127
    },
    {
      "midi": 51,
      "hit": false,
      "t": 36666.652,
      "d": 833.3329999999987,
      "v": 127
    },
    {
      "midi": 48,
      "hit": false,
      "t": 37499.984999999986,
      "d": 833.3329999999987,
      "v": 127
    },
    {
      "midi": 58,
      "hit": false,
      "t": 37499.985,
      "d": 833.3329999999987,
      "v": 127
    },
    {
      "midi": 46,
      "hit": false,
      "t": 38333.317999999985,
      "d": 833.3329999999987,
      "v": 127
    },
    {
      "midi": 50,
      "hit": false,
      "t": 38333.318,
      "d": 1666.6659999999974,
      "v": 127
    },
    {
      "midi": 53,
      "hit": false,
      "t": 39166.65099999998,
      "d": 833.3329999999987,
      "v": 127
    },
    {
      "midi": 39,
      "hit": false,
      "t": 39999.98399999998,
      "d": 833.3329999999987,
      "v": 127
    },
    {
      "midi": 62,
      "hit": false,
      "t": 39999.984,
      "d": 833.3329999999987,
      "v": 127
    },
    {
      "midi": 46,
      "hit": false,
      "t": 40833.31699999998,
      "d": 833.3329999999987,
      "v": 127
    },
    {
      "midi": 58,
      "hit": false,
      "t": 40833.316999999995,
      "d": 833.3329999999987,
      "v": 127
    },
    {
      "midi": 51,
      "hit": false,
      "t": 41666.64999999998,
      "d": 833.3329999999987,
      "v": 127
    },
    {
      "midi": 54,
      "hit": false,
      "t": 41666.649999999994,
      "d": 2499.9990000000034,
      "v": 127
    },
    {
      "midi": 61,
      "hit": false,
      "t": 41666.649999999994,
      "d": 2499.9990000000034,
      "v": 127
    },
    {
      "midi": 53,
      "hit": false,
      "t": 42499.98299999998,
      "d": 833.3329999999987,
      "v": 127
    },
    {
      "midi": 51,
      "hit": false,
      "t": 43333.31599999998,
      "d": 833.3329999999987,
      "v": 127
    },
    {
      "midi": 47,
      "hit": false,
      "t": 44166.648999999976,
      "d": 833.3329999999987,
      "v": 127
    },
    {
      "midi": 65,
      "hit": false,
      "t": 44166.649,
      "d": 833.3329999999987,
      "v": 127
    },
    {
      "midi": 51,
      "hit": false,
      "t": 44999.981999999975,
      "d": 833.3329999999987,
      "v": 127
    },
    {
      "midi": 61,
      "hit": false,
      "t": 44999.981999999996,
      "d": 833.3329999999987,
      "v": 127
    },
    {
      "midi": 53,
      "hit": false,
      "t": 45833.31499999997,
      "d": 833.3329999999987,
      "v": 127
    },
    {
      "midi": 63,
      "hit": false,
      "t": 45833.314999999995,
      "d": 1666.6659999999974,
      "v": 127
    },
    {
      "midi": 54,
      "hit": false,
      "t": 46666.64799999997,
      "d": 2499.9990000000034,
      "v": 127
    },
    {
      "midi": 70,
      "hit": false,
      "t": 47499.98099999999,
      "d": 833.3329999999987,
      "v": 127
    },
    {
      "midi": 66,
      "hit": false,
      "t": 48333.31399999999,
      "d": 833.3329999999987,
      "v": 127
    },
    {
      "midi": 47,
      "hit": false,
      "t": 49166.646999999975,
      "d": 833.3329999999987,
      "v": 127
    },
    {
      "midi": 68,
      "hit": false,
      "t": 49166.64699999999,
      "d": 2499.9990000000034,
      "v": 127
    },
    {
      "midi": 52,
      "hit": false,
      "t": 49999.979999999974,
      "d": 833.3329999999987,
      "v": 127
    },
    {
      "midi": 54,
      "hit": false,
      "t": 50833.31299999997,
      "d": 833.3329999999987,
      "v": 127
    },
    {
      "midi": 56,
      "hit": false,
      "t": 51666.64599999997,
      "d": 2499.9990000000034,
      "v": 127
    },
    {
      "midi": 62,
      "hit": false,
      "t": 51666.64599999999,
      "d": 833.3329999999987,
      "v": 127
    },
    {
      "midi": 73,
      "hit": false,
      "t": 52499.97899999999,
      "d": 833.3329999999987,
      "v": 127
    },
    {
      "midi": 68,
      "hit": false,
      "t": 53333.31199999999,
      "d": 833.3329999999987,
      "v": 127
    },
    {
      "midi": 52,
      "hit": false,
      "t": 54166.644999999975,
      "d": 833.3329999999987,
      "v": 127
    },
    {
      "midi": 66,
      "hit": false,
      "t": 54166.64499999999,
      "d": 2499.9990000000034,
      "v": 127
    },
    {
      "midi": 71,
      "hit": false,
      "t": 54166.64499999999,
      "d": 2499.9990000000034,
      "v": 127
    },
    {
      "midi": 57,
      "hit": false,
      "t": 54999.977999999974,
      "d": 833.3329999999987,
      "v": 127
    },
    {
      "midi": 59,
      "hit": false,
      "t": 55833.31099999997,
      "d": 833.3329999999987,
      "v": 127
    },
    {
      "midi": 61,
      "hit": false,
      "t": 56666.64399999997,
      "d": 2499.9990000000034,
      "v": 127
    },
    {
      "midi": 69,
      "hit": false,
      "t": 56666.64399999999,
      "d": 833.3329999999987,
      "v": 127
    },
    {
      "midi": 68,
      "hit": false,
      "t": 57499.97699999999,
      "d": 833.3329999999987,
      "v": 127
    },
    {
      "midi": 64,
      "hit": false,
      "t": 58333.30999999999,
      "d": 833.3329999999987,
      "v": 127
    },
    {
      "midi": 51,
      "hit": false,
      "t": 59166.642999999975,
      "d": 833.3329999999987,
      "v": 127
    },
    {
      "midi": 59,
      "hit": false,
      "t": 59166.64299999999,
      "d": 2499.9990000000034,
      "v": 127
    },
    {
      "midi": 67,
      "hit": false,
      "t": 59166.64299999999,
      "d": 2499.9990000000034,
      "v": 127
    },
    {
      "midi": 56,
      "hit": false,
      "t": 59999.97599999997,
      "d": 833.3329999999987,
      "v": 127
    },
    {
      "midi": 58,
      "hit": false,
      "t": 60833.30899999997,
      "d": 833.3329999999987,
      "v": 127
    },
    {
      "midi": 60,
      "hit": false,
      "t": 61666.64199999997,
      "d": 833.3329999999987,
      "v": 127
    },
    {
      "midi": 65,
      "hit": false,
      "t": 61666.64199999999,
      "d": 833.3329999999987,
      "v": 127
    },
    {
      "midi": 58,
      "hit": false,
      "t": 62499.97499999997,
      "d": 1666.6659999999974,
      "v": 127
    },
    {
      "midi": 63,
      "hit": false,
      "t": 62499.97499999999,
      "d": 833.3329999999987,
      "v": 127
    },
    {
      "midi": 59,
      "hit": false,
      "t": 63333.30799999999,
      "d": 833.3329999999987,
      "v": 127
    },
    {
      "midi": 42,
      "hit": false,
      "t": 64166.64099999997,
      "d": 833.3329999999987,
      "v": 127
    },
    {
      "midi": 56,
      "hit": false,
      "t": 64166.64099999999,
      "d": 2499.998999999996,
      "v": 127
    },
    {
      "midi": 62,
      "hit": false,
      "t": 64166.64099999999,
      "d": 2499.998999999996,
      "v": 127
    },
    {
      "midi": 49,
      "hit": false,
      "t": 64999.973999999966,
      "d": 833.333000000006,
      "v": 127
    },
    {
      "midi": 50,
      "hit": false,
      "t": 65833.30699999997,
      "d": 833.3329999999987,
      "v": 127
    },
    {
      "midi": 51,
      "hit": false,
      "t": 66666.63999999997,
      "d": 2499.998999999996,
      "v": 127
    },
    {
      "midi": 61,
      "hit": false,
      "t": 66666.63999999998,
      "d": 833.3329999999987,
      "v": 127
    },
    {
      "midi": 64,
      "hit": false,
      "t": 67499.97299999998,
      "d": 833.3329999999987,
      "v": 127
    },
    {
      "midi": 60,
      "hit": false,
      "t": 68333.30599999998,
      "d": 833.3329999999987,
      "v": 127
    },
    {
      "midi": 41,
      "hit": false,
      "t": 69166.63899999997,
      "d": 833.3329999999987,
      "v": 127
    },
    {
      "midi": 56,
      "hit": false,
      "t": 69166.63899999998,
      "d": 2499.998999999996,
      "v": 127
    },
    {
      "midi": 63,
      "hit": false,
      "t": 69166.63899999998,
      "d": 2499.998999999996,
      "v": 127
    },
    {
      "midi": 52,
      "hit": false,
      "t": 69999.97199999997,
      "d": 833.3329999999987,
      "v": 127
    },
    {
      "midi": 48,
      "hit": false,
      "t": 70833.30499999996,
      "d": 833.3329999999987,
      "v": 127
    },
    {
      "midi": 51,
      "hit": false,
      "t": 71666.63799999996,
      "d": 2499.998999999996,
      "v": 127
    },
    {
      "midi": 61,
      "hit": false,
      "t": 71666.63799999998,
      "d": 833.3329999999987,
      "v": 127
    },
    {
      "midi": 70,
      "hit": false,
      "t": 72499.97099999998,
      "d": 833.3329999999987,
      "v": 127
    },
    {
      "midi": 66,
      "hit": false,
      "t": 73333.30399999997,
      "d": 833.3329999999987,
      "v": 127
    },
    {
      "midi": 47,
      "hit": false,
      "t": 74166.63699999996,
      "d": 833.3329999999987,
      "v": 127
    },
    {
      "midi": 68,
      "hit": false,
      "t": 74166.63699999997,
      "d": 2499.998999999996,
      "v": 127
    },
    {
      "midi": 58,
      "hit": false,
      "t": 74999.96999999996,
      "d": 833.3329999999987,
      "v": 127
    },
    {
      "midi": 54,
      "hit": false,
      "t": 75833.30299999996,
      "d": 833.3329999999987,
      "v": 127
    },
    {
      "midi": 56,
      "hit": false,
      "t": 76666.63599999995,
      "d": 2499.998999999996,
      "v": 127
    },
    {
      "midi": 59,
      "hit": false,
      "t": 76666.63599999997,
      "d": 833.3329999999987,
      "v": 127
    },
    {
      "midi": 66,
      "hit": false,
      "t": 77499.96899999997,
      "d": 833.3329999999987,
      "v": 127
    },
    {
      "midi": 63,
      "hit": false,
      "t": 78333.30199999997,
      "d": 833.3329999999987,
      "v": 127
    },
    {
      "midi": 49,
      "hit": false,
      "t": 79166.63499999995,
      "d": 833.3329999999987,
      "v": 127
    },
    {
      "midi": 59,
      "hit": false,
      "t": 79166.63499999997,
      "d": 2499.998999999996,
      "v": 127
    },
    {
      "midi": 66,
      "hit": false,
      "t": 79166.63499999997,
      "d": 2499.998999999996,
      "v": 127
    },
    {
      "midi": 56,
      "hit": false,
      "t": 79999.96799999995,
      "d": 833.3329999999987,
      "v": 127
    },
    {
      "midi": 52,
      "hit": false,
      "t": 80833.30099999995,
      "d": 833.3329999999987,
      "v": 127
    },
    {
      "midi": 52,
      "hit": false,
      "t": 81666.63399999995,
      "d": 833.3329999999987,
      "v": 127
    },
    {
      "midi": 63,
      "hit": false,
      "t": 81666.63399999996,
      "d": 1249.9995000000054,
      "v": 127
    },
    {
      "midi": 54,
      "hit": false,
      "t": 82499.96699999995,
      "d": 1666.6659999999974,
      "v": 127
    },
    {
      "midi": 61,
      "hit": false,
      "t": 82916.63349999997,
      "d": 1249.9995000000054,
      "v": 127
    },
    {
      "midi": 55,
      "hit": false,
      "t": 84166.63299999994,
      "d": 2499.998999999996,
      "v": 127
    },
    {
      "midi": 63,
      "hit": false,
      "t": 84166.63299999997,
      "d": 1666.6659999999974,
      "v": 127
    },
    {
      "midi": 58,
      "hit": false,
      "t": 85833.29899999997,
      "d": 833.3329999999987,
      "v": 127
    },
    {
      "midi": 55,
      "hit": false,
      "t": 86666.63199999997,
      "d": 833.3329999999987,
      "v": 127
    },
    {
      "midi": 39,
      "hit": false,
      "t": 87499.96499999994,
      "d": 833.3329999999987,
      "v": 127
    },
    {
      "midi": 57,
      "hit": false,
      "t": 87499.96499999997,
      "d": 2499.998999999996,
      "v": 127
    },
    {
      "midi": 46,
      "hit": false,
      "t": 88333.29799999994,
      "d": 833.3329999999987,
      "v": 127
    },
    {
      "midi": 48,
      "hit": false,
      "t": 89166.63099999994,
      "d": 833.3329999999987,
      "v": 127
    },
    {
      "midi": 50,
      "hit": false,
      "t": 89999.96399999993,
      "d": 2499.998999999996,
      "v": 127
    },
    {
      "midi": 63,
      "hit": false,
      "t": 89999.96399999996,
      "d": 1249.9995000000054,
      "v": 127
    },
    {
      "midi": 59,
      "hit": false,
      "t": 91249.96349999997,
      "d": 1249.9995000000054,
      "v": 127
    },
    {
      "midi": 43,
      "hit": false,
      "t": 92499.96299999993,
      "d": 833.3329999999987,
      "v": 127
    },
    {
      "midi": 62,
      "hit": false,
      "t": 92499.96299999997,
      "d": 2499.998999999996,
      "v": 127
    },
    {
      "midi": 50,
      "hit": false,
      "t": 93333.29599999993,
      "d": 833.3329999999987,
      "v": 127
    },
    {
      "midi": 57,
      "hit": false,
      "t": 94166.62899999993,
      "d": 833.3329999999987,
      "v": 127
    },
    {
      "midi": 59,
      "hit": false,
      "t": 94999.96199999993,
      "d": 2499.998999999996,
      "v": 127
    },
    {
      "midi": 69,
      "hit": false,
      "t": 94999.96199999997,
      "d": 1249.9995000000054,
      "v": 127
    },
    {
      "midi": 66,
      "hit": false,
      "t": 96249.96149999998,
      "d": 1249.9995000000054,
      "v": 127
    },
    {
      "midi": 40,
      "hit": false,
      "t": 97499.96099999992,
      "d": 833.3329999999987,
      "v": 127
    },
    {
      "midi": 62,
      "hit": false,
      "t": 97499.96099999998,
      "d": 2499.998999999996,
      "v": 127
    },
    {
      "midi": 68,
      "hit": false,
      "t": 97499.96099999998,
      "d": 2499.998999999996,
      "v": 127
    },
    {
      "midi": 47,
      "hit": false,
      "t": 98333.29399999992,
      "d": 833.3329999999987,
      "v": 127
    },
    {
      "midi": 54,
      "hit": false,
      "t": 99166.62699999992,
      "d": 833.3329999999987,
      "v": 127
    },
    {
      "midi": 64,
      "hit": false,
      "t": 99999.95999999992,
      "d": 2499.998999999996,
      "v": 127
    },
    {
      "midi": 74,
      "hit": false,
      "t": 99999.95999999998,
      "d": 1249.9995000000054,
      "v": 127
    },
    {
      "midi": 71,
      "hit": false,
      "t": 101249.95949999998,
      "d": 1249.9995000000054,
      "v": 127
    },
    {
      "midi": 41,
      "hit": false,
      "t": 102499.95899999992,
      "d": 833.3329999999987,
      "v": 127
    },
    {
      "midi": 73,
      "hit": false,
      "t": 102499.95899999999,
      "d": 3333.331999999995,
      "v": 127
    },
    {
      "midi": 48,
      "hit": false,
      "t": 103333.29199999991,
      "d": 833.3329999999987,
      "v": 127
    },
    {
      "midi": 57,
      "hit": false,
      "t": 104166.62499999991,
      "d": 833.3329999999987,
      "v": 127
    },
    {
      "midi": 60,
      "hit": false,
      "t": 104999.95799999991,
      "d": 2499.998999999996,
      "v": 127
    },
    {
      "midi": 69,
      "hit": false,
      "t": 106249.95749999999,
      "d": 1249.9995000000054,
      "v": 127
    },
    {
      "midi": 40,
      "hit": false,
      "t": 107499.95699999991,
      "d": 833.3329999999987,
      "v": 127
    },
    {
      "midi": 72,
      "hit": false,
      "t": 107499.957,
      "d": 2499.998999999996,
      "v": 127
    },
    {
      "midi": 47,
      "hit": false,
      "t": 108333.2899999999,
      "d": 833.3329999999987,
      "v": 127
    },
    {
      "midi": 59,
      "hit": false,
      "t": 109166.6229999999,
      "d": 833.3329999999987,
      "v": 127
    },
    {
      "midi": 60,
      "hit": false,
      "t": 109999.9559999999,
      "d": 2499.998999999996,
      "v": 127
    },
    {
      "midi": 67,
      "hit": false,
      "t": 109999.95599999999,
      "d": 1249.9995000000054,
      "v": 127
    },
    {
      "midi": 64,
      "hit": false,
      "t": 111249.9555,
      "d": 1249.9995000000054,
      "v": 127
    },
    {
      "midi": 38,
      "hit": false,
      "t": 112499.9549999999,
      "d": 833.3329999999987,
      "v": 127
    },
    {
      "midi": 66,
      "hit": false,
      "t": 112499.955,
      "d": 2499.998999999996,
      "v": 127
    },
    {
      "midi": 45,
      "hit": false,
      "t": 113333.2879999999,
      "d": 833.3329999999987,
      "v": 127
    },
    {
      "midi": 57,
      "hit": false,
      "t": 114166.6209999999,
      "d": 833.3329999999987,
      "v": 127
    },
    {
      "midi": 58,
      "hit": false,
      "t": 114999.9539999999,
      "d": 2499.998999999996,
      "v": 127
    },
    {
      "midi": 65,
      "hit": false,
      "t": 114999.954,
      "d": 1249.9995000000054,
      "v": 127
    },
    {
      "midi": 61,
      "hit": false,
      "t": 116249.9535,
      "d": 1249.9995000000054,
      "v": 127
    },
    {
      "midi": 45,
      "hit": false,
      "t": 117499.95299999989,
      "d": 833.3329999999987,
      "v": 127
    },
    {
      "midi": 64,
      "hit": false,
      "t": 117499.95300000001,
      "d": 833.3329999999987,
      "v": 127
    },
    {
      "midi": 54,
      "hit": false,
      "t": 118333.28599999989,
      "d": 833.3329999999987,
      "v": 127
    },
    {
      "midi": 60,
      "hit": false,
      "t": 118333.28600000001,
      "d": 833.3329999999987,
      "v": 127
    },
    {
      "midi": 56,
      "hit": false,
      "t": 119166.61899999989,
      "d": 1249.9995000000054,
      "v": 127
    },
    {
      "midi": 63,
      "hit": false,
      "t": 119166.619,
      "d": 1249.9995000000054,
      "v": 127
    },
    {
      "midi": 54,
      "hit": false,
      "t": 120416.6184999999,
      "d": 1666.6659999999974,
      "v": 127
    },
    {
      "midi": 58,
      "hit": false,
      "t": 120416.61850000001,
      "d": 1249.9995000000054,
      "v": 127
    },
    {
      "midi": 61,
      "hit": false,
      "t": 121666.61800000002,
      "d": 833.3329999999987,
      "v": 127
    },
    {
      "midi": 45,
      "hit": false,
      "t": 122499.9509999999,
      "d": 833.3329999999987,
      "v": 127
    },
    {
      "midi": 64,
      "hit": false,
      "t": 122499.95100000002,
      "d": 833.3329999999987,
      "v": 127
    },
    {
      "midi": 54,
      "hit": false,
      "t": 123333.2839999999,
      "d": 833.3329999999987,
      "v": 127
    },
    {
      "midi": 60,
      "hit": false,
      "t": 123333.28400000001,
      "d": 833.3329999999987,
      "v": 127
    },
    {
      "midi": 56,
      "hit": false,
      "t": 124166.6169999999,
      "d": 1249.9995000000054,
      "v": 127
    },
    {
      "midi": 63,
      "hit": false,
      "t": 124166.61700000001,
      "d": 1249.9995000000054,
      "v": 127
    },
    {
      "midi": 54,
      "hit": false,
      "t": 125416.6164999999,
      "d": 1666.6659999999974,
      "v": 127
    },
    {
      "midi": 58,
      "hit": false,
      "t": 125416.61650000002,
      "d": 1249.9995000000054,
      "v": 127
    },
    {
      "midi": 61,
      "hit": false,
      "t": 126666.61600000002,
      "d": 833.3329999999987,
      "v": 127
    },
    {
      "midi": 45,
      "hit": false,
      "t": 127499.9489999999,
      "d": 833.3329999999987,
      "v": 127
    },
    {
      "midi": 64,
      "hit": false,
      "t": 127499.94900000002,
      "d": 833.3329999999987,
      "v": 127
    },
    {
      "midi": 52,
      "hit": false,
      "t": 128333.2819999999,
      "d": 833.3329999999987,
      "v": 127
    },
    {
      "midi": 60,
      "hit": false,
      "t": 128333.28200000002,
      "d": 833.3329999999987,
      "v": 127
    },
    {
      "midi": 51,
      "hit": false,
      "t": 129166.6149999999,
      "d": 833.3329999999987,
      "v": 127
    },
    {
      "midi": 55,
      "hit": false,
      "t": 129166.61500000002,
      "d": 1666.6659999999974,
      "v": 127
    },
    {
      "midi": 63,
      "hit": false,
      "t": 129166.61500000002,
      "d": 1666.6659999999974,
      "v": 127
    },
    {
      "midi": 49,
      "hit": false,
      "t": 129999.9479999999,
      "d": 833.3329999999987,
      "v": 127
    },
    {
      "midi": 47,
      "hit": false,
      "t": 130833.2809999999,
      "d": 833.3330000000133,
      "v": 127
    },
    {
      "midi": 55,
      "hit": false,
      "t": 130833.28100000002,
      "d": 1666.6659999999974,
      "v": 127
    },
    {
      "midi": 46,
      "hit": false,
      "t": 131666.6139999999,
      "d": 833.3330000000133,
      "v": 127
    },
    {
      "midi": 44,
      "hit": false,
      "t": 132499.94699999993,
      "d": 833.3330000000133,
      "v": 127
    },
    {
      "midi": 63,
      "hit": false,
      "t": 132499.94700000001,
      "d": 833.3330000000133,
      "v": 127
    },
    {
      "midi": 51,
      "hit": false,
      "t": 133333.27999999994,
      "d": 833.3330000000133,
      "v": 127
    },
    {
      "midi": 59,
      "hit": false,
      "t": 133333.28000000003,
      "d": 833.3330000000133,
      "v": 127
    },
    {
      "midi": 53,
      "hit": false,
      "t": 134166.61299999995,
      "d": 833.3330000000133,
      "v": 127
    },
    {
      "midi": 62,
      "hit": false,
      "t": 134166.61300000004,
      "d": 2499.9990000000107,
      "v": 127
    },
    {
      "midi": 55,
      "hit": false,
      "t": 134999.94599999997,
      "d": 1249.9995000000054,
      "v": 127
    },
    {
      "midi": 53,
      "hit": false,
      "t": 136249.94549999997,
      "d": 1249.9995000000054,
      "v": 127
    },
    {
      "midi": 58,
      "hit": false,
      "t": 137083.27850000004,
      "d": 416.6664999999921,
      "v": 127
    },
    {
      "midi": 44,
      "hit": false,
      "t": 137499.94499999998,
      "d": 833.3330000000133,
      "v": 127
    },
    {
      "midi": 63,
      "hit": false,
      "t": 137499.94500000004,
      "d": 833.3330000000133,
      "v": 127
    },
    {
      "midi": 51,
      "hit": false,
      "t": 138333.278,
      "d": 833.3330000000133,
      "v": 127
    },
    {
      "midi": 59,
      "hit": false,
      "t": 138333.27800000005,
      "d": 833.3330000000133,
      "v": 127
    },
    {
      "midi": 53,
      "hit": false,
      "t": 139166.611,
      "d": 833.3330000000133,
      "v": 127
    },
    {
      "midi": 62,
      "hit": false,
      "t": 139166.61100000006,
      "d": 2499.9990000000107,
      "v": 127
    },
    {
      "midi": 55,
      "hit": false,
      "t": 139999.94400000002,
      "d": 1249.9995000000054,
      "v": 127
    },
    {
      "midi": 53,
      "hit": false,
      "t": 141249.94350000002,
      "d": 1249.9995000000054,
      "v": 127
    },
    {
      "midi": 58,
      "hit": false,
      "t": 142083.27650000007,
      "d": 416.6664999999921,
      "v": 127
    },
    {
      "midi": 47,
      "hit": false,
      "t": 142499.94300000003,
      "d": 833.3330000000133,
      "v": 127
    },
    {
      "midi": 63,
      "hit": false,
      "t": 142499.94300000006,
      "d": 833.3330000000133,
      "v": 127
    },
    {
      "midi": 51,
      "hit": false,
      "t": 143333.27600000004,
      "d": 833.3330000000133,
      "v": 127
    },
    {
      "midi": 59,
      "hit": false,
      "t": 143333.27600000007,
      "d": 833.3330000000133,
      "v": 127
    },
    {
      "midi": 53,
      "hit": false,
      "t": 144166.60900000005,
      "d": 833.3330000000133,
      "v": 127
    },
    {
      "midi": 56,
      "hit": false,
      "t": 144166.60900000008,
      "d": 833.3330000000133,
      "v": 127
    },
    {
      "midi": 62,
      "hit": false,
      "t": 144166.60900000008,
      "d": 833.3330000000133,
      "v": 127
    },
    {
      "midi": 54,
      "hit": false,
      "t": 144999.94200000007,
      "d": 833.3330000000133,
      "v": 127
    },
    {
      "midi": 63,
      "hit": false,
      "t": 144999.9420000001,
      "d": 833.3330000000133,
      "v": 127
    },
    {
      "midi": 56,
      "hit": false,
      "t": 145833.27500000008,
      "d": 833.3330000000133,
      "v": 127
    },
    {
      "midi": 59,
      "hit": false,
      "t": 145833.2750000001,
      "d": 833.3330000000133,
      "v": 127
    },
    {
      "midi": 46,
      "hit": false,
      "t": 146666.6080000001,
      "d": 833.3330000000133,
      "v": 127
    },
    {
      "midi": 58,
      "hit": false,
      "t": 146666.6080000001,
      "d": 833.3330000000133,
      "v": 127
    },
    {
      "midi": 62,
      "hit": false,
      "t": 146666.60800000012,
      "d": 833.3330000000133,
      "v": 127
    },
    {
      "midi": 59,
      "hit": false,
      "t": 147499.9410000001,
      "d": 833.3330000000133,
      "v": 127
    },
    {
      "midi": 70,
      "hit": false,
      "t": 147499.94100000014,
      "d": 833.3330000000133,
      "v": 127
    },
    {
      "midi": 61,
      "hit": false,
      "t": 148333.27400000012,
      "d": 833.3330000000133,
      "v": 127
    },
    {
      "midi": 66,
      "hit": false,
      "t": 148333.27400000015,
      "d": 833.3330000000133,
      "v": 127
    },
    {
      "midi": 51,
      "hit": false,
      "t": 149166.60700000013,
      "d": 833.3330000000133,
      "v": 127
    },
    {
      "midi": 63,
      "hit": false,
      "t": 149166.60700000013,
      "d": 833.3330000000133,
      "v": 127
    },
    {
      "midi": 69,
      "hit": false,
      "t": 149166.60700000016,
      "d": 833.3330000000133,
      "v": 127
    },
    {
      "midi": 65,
      "hit": false,
      "t": 149999.94000000015,
      "d": 833.3330000000133,
      "v": 127
    },
    {
      "midi": 75,
      "hit": false,
      "t": 149999.94000000018,
      "d": 833.3330000000133,
      "v": 127
    },
    {
      "midi": 67,
      "hit": false,
      "t": 150833.27300000016,
      "d": 833.3330000000133,
      "v": 127
    },
    {
      "midi": 71,
      "hit": false,
      "t": 150833.2730000002,
      "d": 833.3330000000133,
      "v": 127
    },
    {
      "midi": 68,
      "hit": false,
      "t": 151666.60600000017,
      "d": 833.3330000000133,
      "v": 127
    },
    {
      "midi": 70,
      "hit": false,
      "t": 151666.6060000002,
      "d": 833.3330000000133,
      "v": 127
    },
    {
      "midi": 74,
      "hit": false,
      "t": 151666.6060000002,
      "d": 833.3330000000133,
      "v": 127
    },
    {
      "midi": 48,
      "hit": false,
      "t": 152499.9390000002,
      "d": 833.3330000000133,
      "v": 127
    },
    {
      "midi": 69,
      "hit": false,
      "t": 152499.93900000022,
      "d": 1249.9995000000054,
      "v": 127
    },
    {
      "midi": 74,
      "hit": false,
      "t": 152499.93900000022,
      "d": 1249.9995000000054,
      "v": 127
    },
    {
      "midi": 76,
      "hit": false,
      "t": 152499.93900000022,
      "d": 1249.9995000000054,
      "v": 127
    },
    {
      "midi": 81,
      "hit": false,
      "t": 152499.93900000022,
      "d": 1249.9995000000054,
      "v": 127
    },
    {
      "midi": 57,
      "hit": false,
      "t": 153333.2720000002,
      "d": 1666.6659999999974,
      "v": 127
    },
    {
      "midi": 65,
      "hit": false,
      "t": 153749.93850000022,
      "d": 1249.9995000000054,
      "v": 127
    },
    {
      "midi": 70,
      "hit": false,
      "t": 153749.93850000022,
      "d": 1249.9995000000054,
      "v": 127
    },
    {
      "midi": 74,
      "hit": false,
      "t": 153749.93850000022,
      "d": 1249.9995000000054,
      "v": 127
    },
    {
      "midi": 77,
      "hit": false,
      "t": 153749.93850000022,
      "d": 1249.9995000000054,
      "v": 127
    },
    {
      "midi": 45,
      "hit": false,
      "t": 154999.9380000002,
      "d": 833.3330000000133,
      "v": 127
    },
    {
      "midi": 80,
      "hit": false,
      "t": 154999.93800000023,
      "d": 3333.331999999995,
      "v": 127
    },
    {
      "midi": 54,
      "hit": false,
      "t": 155833.2710000002,
      "d": 3333.331999999995,
      "v": 127
    },
    {
      "midi": 66,
      "hit": false,
      "t": 159166.60300000024,
      "d": 833.3330000000133,
      "v": 127
    },
    {
      "midi": 78,
      "hit": false,
      "t": 159166.60300000024,
      "d": 833.3330000000133,
      "v": 127
    },
    {
      "midi": 48,
      "hit": false,
      "t": 159999.93600000022,
      "d": 833.3330000000133,
      "v": 127
    },
    {
      "midi": 69,
      "hit": false,
      "t": 159999.93600000025,
      "d": 1249.9995000000054,
      "v": 127
    },
    {
      "midi": 74,
      "hit": false,
      "t": 159999.93600000025,
      "d": 1249.9995000000054,
      "v": 127
    },
    {
      "midi": 76,
      "hit": false,
      "t": 159999.93600000025,
      "d": 1249.9995000000054,
      "v": 127
    },
    {
      "midi": 81,
      "hit": false,
      "t": 159999.93600000025,
      "d": 1249.9995000000054,
      "v": 127
    },
    {
      "midi": 57,
      "hit": false,
      "t": 160833.26900000023,
      "d": 1666.6659999999974,
      "v": 127
    },
    {
      "midi": 65,
      "hit": false,
      "t": 161249.93550000025,
      "d": 1249.9995000000054,
      "v": 127
    },
    {
      "midi": 70,
      "hit": false,
      "t": 161249.93550000025,
      "d": 1249.9995000000054,
      "v": 127
    },
    {
      "midi": 74,
      "hit": false,
      "t": 161249.93550000025,
      "d": 1249.9995000000054,
      "v": 127
    },
    {
      "midi": 77,
      "hit": false,
      "t": 161249.93550000025,
      "d": 1249.9995000000054,
      "v": 127
    },
    {
      "midi": 45,
      "hit": false,
      "t": 162499.93500000023,
      "d": 833.3330000000133,
      "v": 127
    },
    {
      "midi": 80,
      "hit": false,
      "t": 162499.93500000026,
      "d": 3333.331999999995,
      "v": 127
    },
    {
      "midi": 54,
      "hit": false,
      "t": 163333.26800000024,
      "d": 3333.331999999995,
      "v": 127
    },
    {
      "midi": 66,
      "hit": false,
      "t": 166666.60000000027,
      "d": 833.3330000000133,
      "v": 127
    },
    {
      "midi": 78,
      "hit": false,
      "t": 166666.60000000027,
      "d": 833.3330000000133,
      "v": 127
    },
    {
      "midi": 48,
      "hit": false,
      "t": 167499.93300000025,
      "d": 833.3330000000133,
      "v": 127
    },
    {
      "midi": 69,
      "hit": false,
      "t": 167499.93300000028,
      "d": 1249.9995000000054,
      "v": 127
    },
    {
      "midi": 74,
      "hit": false,
      "t": 167499.93300000028,
      "d": 1249.9995000000054,
      "v": 127
    },
    {
      "midi": 76,
      "hit": false,
      "t": 167499.93300000028,
      "d": 1249.9995000000054,
      "v": 127
    },
    {
      "midi": 81,
      "hit": false,
      "t": 167499.93300000028,
      "d": 1249.9995000000054,
      "v": 127
    },
    {
      "midi": 57,
      "hit": false,
      "t": 168333.26600000027,
      "d": 1666.6659999999974,
      "v": 127
    },
    {
      "midi": 65,
      "hit": false,
      "t": 168749.9325000003,
      "d": 1249.9995000000054,
      "v": 127
    },
    {
      "midi": 70,
      "hit": false,
      "t": 168749.9325000003,
      "d": 1249.9995000000054,
      "v": 127
    },
    {
      "midi": 74,
      "hit": false,
      "t": 168749.9325000003,
      "d": 1249.9995000000054,
      "v": 127
    },
    {
      "midi": 77,
      "hit": false,
      "t": 168749.9325000003,
      "d": 1249.9995000000054,
      "v": 127
    },
    {
      "midi": 45,
      "hit": false,
      "t": 169999.93200000026,
      "d": 833.3330000000133,
      "v": 127
    },
    {
      "midi": 80,
      "hit": false,
      "t": 169999.9320000003,
      "d": 1249.9995000000054,
      "v": 127
    },
    {
      "midi": 54,
      "hit": false,
      "t": 170833.26500000028,
      "d": 1666.6659999999974,
      "v": 127
    },
    {
      "midi": 66,
      "hit": false,
      "t": 171249.9315000003,
      "d": 1249.9995000000054,
      "v": 127
    },
    {
      "midi": 78,
      "hit": false,
      "t": 171249.9315000003,
      "d": 1249.9995000000054,
      "v": 127
    },
    {
      "midi": 41,
      "hit": false,
      "t": 172499.93100000027,
      "d": 833.3330000000133,
      "v": 127
    },
    {
      "midi": 64,
      "hit": false,
      "t": 172499.9310000003,
      "d": 1249.9995000000054,
      "v": 127
    },
    {
      "midi": 69,
      "hit": false,
      "t": 172499.9310000003,
      "d": 1249.9995000000054,
      "v": 127
    },
    {
      "midi": 72,
      "hit": false,
      "t": 172499.9310000003,
      "d": 1249.9995000000054,
      "v": 127
    },
    {
      "midi": 76,
      "hit": false,
      "t": 172499.9310000003,
      "d": 1249.9995000000054,
      "v": 127
    },
    {
      "midi": 50,
      "hit": false,
      "t": 173333.2640000003,
      "d": 833.3330000000133,
      "v": 127
    },
    {
      "midi": 60,
      "hit": false,
      "t": 173749.9305000003,
      "d": 1249.9995000000054,
      "v": 127
    },
    {
      "midi": 72,
      "hit": false,
      "t": 173749.9305000003,
      "d": 1249.9995000000054,
      "v": 127
    },
    {
      "midi": 46,
      "hit": false,
      "t": 174166.5970000003,
      "d": 833.3330000000133,
      "v": 127
    },
    {
      "midi": 65,
      "hit": false,
      "t": 174999.9300000003,
      "d": 6666.66399999999,
      "v": 127
    },
    {
      "midi": 69,
      "hit": false,
      "t": 174999.9300000003,
      "d": 6666.66399999999,
      "v": 127
    },
    {
      "midi": 72,
      "hit": false,
      "t": 174999.9300000003,
      "d": 6666.66399999999,
      "v": 127
    },
    {
      "midi": 77,
      "hit": false,
      "t": 174999.9300000003,
      "d": 6666.66399999999,
      "v": 127
    },
    {
      "midi": 49,
      "hit": false,
      "t": 174999.9300000003,
      "d": 1249.9995000000054,
      "v": 127
    },
    {
      "midi": 56,
      "hit": false,
      "t": 176249.92950000032,
      "d": 1249.9995000000054,
      "v": 127
    },
    {
      "midi": 68,
      "hit": false,
      "t": 177499.92900000032,
      "d": 4999.997999999992,
      "v": 127
    },
    {
      "midi": 69,
      "hit": false,
      "t": 182499.92700000032,
      "d": 1249.9995000000054,
      "v": 127
    },
    {
      "midi": 74,
      "hit": false,
      "t": 182499.92700000032,
      "d": 1249.9995000000054,
      "v": 127
    },
    {
      "midi": 76,
      "hit": false,
      "t": 182499.92700000032,
      "d": 1249.9995000000054,
      "v": 127
    },
    {
      "midi": 81,
      "hit": false,
      "t": 182499.92700000032,
      "d": 1249.9995000000054,
      "v": 127
    },
    {
      "midi": 48,
      "hit": false,
      "t": 182499.92700000032,
      "d": 833.3330000000133,
      "v": 127
    },
    {
      "midi": 57,
      "hit": false,
      "t": 183333.26000000033,
      "d": 1666.6659999999974,
      "v": 127
    },
    {
      "midi": 65,
      "hit": false,
      "t": 183749.92650000032,
      "d": 1249.9995000000054,
      "v": 127
    },
    {
      "midi": 70,
      "hit": false,
      "t": 183749.92650000032,
      "d": 1249.9995000000054,
      "v": 127
    },
    {
      "midi": 74,
      "hit": false,
      "t": 183749.92650000032,
      "d": 1249.9995000000054,
      "v": 127
    },
    {
      "midi": 77,
      "hit": false,
      "t": 183749.92650000032,
      "d": 1249.9995000000054,
      "v": 127
    },
    {
      "midi": 80,
      "hit": false,
      "t": 184999.92600000033,
      "d": 3333.331999999995,
      "v": 127
    },
    {
      "midi": 45,
      "hit": false,
      "t": 184999.92600000033,
      "d": 833.3330000000133,
      "v": 127
    },
    {
      "midi": 54,
      "hit": false,
      "t": 185833.25900000034,
      "d": 3333.331999999995,
      "v": 127
    },
    {
      "midi": 66,
      "hit": false,
      "t": 189166.59100000034,
      "d": 833.3330000000133,
      "v": 127
    },
    {
      "midi": 78,
      "hit": false,
      "t": 189166.59100000034,
      "d": 833.3330000000133,
      "v": 127
    },
    {
      "midi": 69,
      "hit": false,
      "t": 189999.92400000035,
      "d": 1249.9995000000054,
      "v": 127
    },
    {
      "midi": 74,
      "hit": false,
      "t": 189999.92400000035,
      "d": 1249.9995000000054,
      "v": 127
    },
    {
      "midi": 76,
      "hit": false,
      "t": 189999.92400000035,
      "d": 1249.9995000000054,
      "v": 127
    },
    {
      "midi": 81,
      "hit": false,
      "t": 189999.92400000035,
      "d": 1249.9995000000054,
      "v": 127
    },
    {
      "midi": 48,
      "hit": false,
      "t": 189999.92400000035,
      "d": 833.3330000000133,
      "v": 127
    },
    {
      "midi": 57,
      "hit": false,
      "t": 190833.25700000036,
      "d": 1666.6659999999974,
      "v": 127
    },
    {
      "midi": 65,
      "hit": false,
      "t": 191249.92350000035,
      "d": 1249.9995000000054,
      "v": 127
    },
    {
      "midi": 70,
      "hit": false,
      "t": 191249.92350000035,
      "d": 1249.9995000000054,
      "v": 127
    },
    {
      "midi": 74,
      "hit": false,
      "t": 191249.92350000035,
      "d": 1249.9995000000054,
      "v": 127
    },
    {
      "midi": 77,
      "hit": false,
      "t": 191249.92350000035,
      "d": 1249.9995000000054,
      "v": 127
    },
    {
      "midi": 80,
      "hit": false,
      "t": 192499.92300000036,
      "d": 3333.331999999995,
      "v": 127
    },
    {
      "midi": 45,
      "hit": false,
      "t": 192499.92300000036,
      "d": 833.3330000000133,
      "v": 127
    },
    {
      "midi": 54,
      "hit": false,
      "t": 193333.25600000037,
      "d": 3333.331999999995,
      "v": 127
    },
    {
      "midi": 66,
      "hit": false,
      "t": 196666.58800000037,
      "d": 833.3330000000133,
      "v": 127
    },
    {
      "midi": 78,
      "hit": false,
      "t": 196666.58800000037,
      "d": 833.3330000000133,
      "v": 127
    },
    {
      "midi": 69,
      "hit": false,
      "t": 197499.92100000038,
      "d": 1249.9995000000054,
      "v": 127
    },
    {
      "midi": 74,
      "hit": false,
      "t": 197499.92100000038,
      "d": 1249.9995000000054,
      "v": 127
    },
    {
      "midi": 76,
      "hit": false,
      "t": 197499.92100000038,
      "d": 1249.9995000000054,
      "v": 127
    },
    {
      "midi": 81,
      "hit": false,
      "t": 197499.92100000038,
      "d": 1249.9995000000054,
      "v": 127
    },
    {
      "midi": 48,
      "hit": false,
      "t": 197499.92100000038,
      "d": 833.3330000000133,
      "v": 127
    },
    {
      "midi": 57,
      "hit": false,
      "t": 198333.2540000004,
      "d": 1666.6659999999974,
      "v": 127
    },
    {
      "midi": 65,
      "hit": false,
      "t": 198749.9205000004,
      "d": 1249.9995000000054,
      "v": 127
    },
    {
      "midi": 70,
      "hit": false,
      "t": 198749.9205000004,
      "d": 1249.9995000000054,
      "v": 127
    },
    {
      "midi": 74,
      "hit": false,
      "t": 198749.9205000004,
      "d": 1249.9995000000054,
      "v": 127
    },
    {
      "midi": 77,
      "hit": false,
      "t": 198749.9205000004,
      "d": 1249.9995000000054,
      "v": 127
    },
    {
      "midi": 80,
      "hit": false,
      "t": 199999.9200000004,
      "d": 1249.9995000000054,
      "v": 127
    },
    {
      "midi": 45,
      "hit": false,
      "t": 199999.9200000004,
      "d": 833.3330000000133,
      "v": 127
    },
    {
      "midi": 54,
      "hit": false,
      "t": 200833.2530000004,
      "d": 1666.6659999999974,
      "v": 127
    },
    {
      "midi": 66,
      "hit": false,
      "t": 201249.9195000004,
      "d": 1249.9995000000054,
      "v": 127
    },
    {
      "midi": 78,
      "hit": false,
      "t": 201249.9195000004,
      "d": 1249.9995000000054,
      "v": 127
    },
    {
      "midi": 76,
      "hit": false,
      "t": 202499.9190000004,
      "d": 1249.9995000000054,
      "v": 127
    },
    {
      "midi": 41,
      "hit": false,
      "t": 202499.9190000004,
      "d": 833.3330000000133,
      "v": 127
    },
    {
      "midi": 50,
      "hit": false,
      "t": 203333.25200000042,
      "d": 833.3330000000133,
      "v": 127
    },
    {
      "midi": 62,
      "hit": false,
      "t": 203749.9185000004,
      "d": 1249.9995000000054,
      "v": 127
    },
    {
      "midi": 74,
      "hit": false,
      "t": 203749.9185000004,
      "d": 1249.9995000000054,
      "v": 127
    },
    {
      "midi": 46,
      "hit": false,
      "t": 204166.58500000043,
      "d": 833.3330000000133,
      "v": 127
    },
    {
      "midi": 60,
      "hit": false,
      "t": 204999.9180000004,
      "d": 1666.6659999999974,
      "v": 127
    },
    {
      "midi": 65,
      "hit": false,
      "t": 204999.9180000004,
      "d": 1666.6659999999974,
      "v": 127
    },
    {
      "midi": 68,
      "hit": false,
      "t": 204999.9180000004,
      "d": 1666.6659999999974,
      "v": 127
    },
    {
      "midi": 72,
      "hit": false,
      "t": 204999.9180000004,
      "d": 1666.6659999999974,
      "v": 127
    },
    {
      "midi": 49,
      "hit": false,
      "t": 204999.91800000044,
      "d": 833.3330000000133,
      "v": 127
    },
    {
      "midi": 56,
      "hit": false,
      "t": 205833.25100000045,
      "d": 833.3330000000133,
      "v": 127
    },
    {
      "midi": 56,
      "hit": false,
      "t": 206666.5840000004,
      "d": 833.3330000000133,
      "v": 127
    },
    {
      "midi": 68,
      "hit": false,
      "t": 206666.5840000004,
      "d": 833.3330000000133,
      "v": 127
    },
    {
      "midi": 59,
      "hit": false,
      "t": 207499.91700000042,
      "d": 4999.997999999992,
      "v": 127
    },
    {
      "midi": 62,
      "hit": false,
      "t": 207499.91700000042,
      "d": 4999.997999999992,
      "v": 127
    },
    {
      "midi": 65,
      "hit": false,
      "t": 207499.91700000042,
      "d": 4999.997999999992,
      "v": 127
    },
    {
      "midi": 71,
      "hit": false,
      "t": 207499.91700000042,
      "d": 4999.997999999992,
      "v": 127
    },
    {
      "midi": 41,
      "hit": false,
      "t": 207499.91700000048,
      "d": 833.3330000000133,
      "v": 127
    },
    {
      "midi": 53,
      "hit": false,
      "t": 208333.2500000005,
      "d": 833.3330000000133,
      "v": 127
    },
    {
      "midi": 65,
      "hit": false,
      "t": 209166.5830000005,
      "d": 3333.331999999995,
      "v": 127
    },
    {
      "midi": 60,
      "hit": false,
      "t": 212499.91500000042,
      "d": 1666.6659999999974,
      "v": 127
    },
    {
      "midi": 65,
      "hit": false,
      "t": 212499.91500000042,
      "d": 1666.6659999999974,
      "v": 127
    },
    {
      "midi": 67,
      "hit": false,
      "t": 212499.91500000042,
      "d": 1666.6659999999974,
      "v": 127
    },
    {
      "midi": 72,
      "hit": false,
      "t": 212499.91500000042,
      "d": 1666.6659999999974,
      "v": 127
    },
    {
      "midi": 49,
      "hit": false,
      "t": 212499.9150000005,
      "d": 833.3330000000133,
      "v": 127
    },
    {
      "midi": 56,
      "hit": false,
      "t": 213333.24800000052,
      "d": 833.3330000000133,
      "v": 127
    },
    {
      "midi": 56,
      "hit": false,
      "t": 214166.5810000004,
      "d": 833.3330000000133,
      "v": 127
    },
    {
      "midi": 68,
      "hit": false,
      "t": 214166.5810000004,
      "d": 833.3330000000133,
      "v": 127
    },
    {
      "midi": 59,
      "hit": false,
      "t": 214999.91400000043,
      "d": 1666.6659999999974,
      "v": 127
    },
    {
      "midi": 62,
      "hit": false,
      "t": 214999.91400000043,
      "d": 1666.6659999999974,
      "v": 127
    },
    {
      "midi": 65,
      "hit": false,
      "t": 214999.91400000043,
      "d": 1666.6659999999974,
      "v": 127
    },
    {
      "midi": 71,
      "hit": false,
      "t": 214999.91400000043,
      "d": 1666.6659999999974,
      "v": 127
    },
    {
      "midi": 41,
      "hit": false,
      "t": 214999.91400000054,
      "d": 833.3330000000133,
      "v": 127
    },
    {
      "midi": 50,
      "hit": false,
      "t": 215833.24700000056,
      "d": 833.3330000000133,
      "v": 127
    },
    {
      "midi": 58,
      "hit": false,
      "t": 216666.58000000042,
      "d": 833.3330000000133,
      "v": 127
    },
    {
      "midi": 46,
      "hit": false,
      "t": 216666.58000000057,
      "d": 833.3330000000133,
      "v": 127
    },
    {
      "midi": 27,
      "hit": false,
      "t": 217499.91300000058,
      "d": 833.3330000000133,
      "v": 127
    },
    {
      "midi": 61,
      "hit": false,
      "t": 218333.24600000045,
      "d": 3333.331999999995,
      "v": 127
    },
    {
      "midi": 42,
      "hit": false,
      "t": 218333.2460000006,
      "d": 6666.66399999999,
      "v": 127
    },
    {
      "midi": 47,
      "hit": false,
      "t": 218333.2460000006,
      "d": 6666.66399999999,
      "v": 127
    },
    {
      "midi": 51,
      "hit": false,
      "t": 222499.91100000046,
      "d": 2499.9990000000107,
      "v": 127
    },
    {
      "midi": 53,
      "hit": false,
      "t": 224999.91000000047,
      "d": 833.3330000000133,
      "v": 127
    },
    {
      "midi": 42,
      "hit": false,
      "t": 224999.9100000006,
      "d": 833.3330000000133,
      "v": 127
    },
    {
      "midi": 51,
      "hit": false,
      "t": 225833.24300000048,
      "d": 833.3330000000133,
      "v": 127
    },
    {
      "midi": 49,
      "hit": false,
      "t": 225833.2430000006,
      "d": 833.3330000000133,
      "v": 127
    },
    {
      "midi": 58,
      "hit": false,
      "t": 226666.5760000005,
      "d": 833.3330000000133,
      "v": 127
    },
    {
      "midi": 48,
      "hit": false,
      "t": 226666.5760000006,
      "d": 833.3330000000133,
      "v": 127
    },
    {
      "midi": 50,
      "hit": false,
      "t": 227499.9090000005,
      "d": 1666.6659999999974,
      "v": 127
    },
    {
      "midi": 46,
      "hit": false,
      "t": 227499.90900000063,
      "d": 833.3330000000133,
      "v": 127
    },
    {
      "midi": 53,
      "hit": false,
      "t": 228333.24200000064,
      "d": 833.3330000000133,
      "v": 127
    },
    {
      "midi": 62,
      "hit": false,
      "t": 229166.5750000005,
      "d": 833.3330000000133,
      "v": 127
    },
    {
      "midi": 39,
      "hit": false,
      "t": 229166.57500000065,
      "d": 833.3330000000133,
      "v": 127
    },
    {
      "midi": 58,
      "hit": false,
      "t": 229999.90800000052,
      "d": 833.3330000000133,
      "v": 127
    },
    {
      "midi": 46,
      "hit": false,
      "t": 229999.90800000067,
      "d": 833.3330000000133,
      "v": 127
    },
    {
      "midi": 54,
      "hit": false,
      "t": 230833.24100000053,
      "d": 2499.9990000000107,
      "v": 127
    },
    {
      "midi": 61,
      "hit": false,
      "t": 230833.24100000053,
      "d": 2499.9990000000107,
      "v": 127
    },
    {
      "midi": 51,
      "hit": false,
      "t": 230833.24100000068,
      "d": 833.3330000000133,
      "v": 127
    },
    {
      "midi": 53,
      "hit": false,
      "t": 231666.5740000007,
      "d": 833.3330000000133,
      "v": 127
    },
    {
      "midi": 51,
      "hit": false,
      "t": 232499.9070000007,
      "d": 833.3330000000133,
      "v": 127
    },
    {
      "midi": 65,
      "hit": false,
      "t": 233333.24000000054,
      "d": 833.3330000000133,
      "v": 127
    },
    {
      "midi": 44,
      "hit": false,
      "t": 233333.24000000072,
      "d": 833.3330000000133,
      "v": 127
    },
    {
      "midi": 61,
      "hit": false,
      "t": 234166.57300000056,
      "d": 833.3330000000133,
      "v": 127
    },
    {
      "midi": 51,
      "hit": false,
      "t": 234166.57300000073,
      "d": 833.3330000000133,
      "v": 127
    },
    {
      "midi": 58,
      "hit": false,
      "t": 234999.90600000057,
      "d": 3333.331999999995,
      "v": 127
    },
    {
      "midi": 63,
      "hit": false,
      "t": 234999.90600000057,
      "d": 3333.331999999995,
      "v": 127
    },
    {
      "midi": 53,
      "hit": false,
      "t": 234999.90600000074,
      "d": 833.3330000000133,
      "v": 127
    },
    {
      "midi": 54,
      "hit": false,
      "t": 235833.23900000076,
      "d": 2499.9990000000107,
      "v": 127
    },
    {
      "midi": 63,
      "hit": false,
      "t": 238333.23800000057,
      "d": 833.3330000000133,
      "v": 127
    },
    {
      "midi": 46,
      "hit": false,
      "t": 238333.23800000077,
      "d": 833.3330000000133,
      "v": 127
    },
    {
      "midi": 59,
      "hit": false,
      "t": 239166.57100000058,
      "d": 833.3330000000133,
      "v": 127
    },
    {
      "midi": 51,
      "hit": false,
      "t": 239166.57100000078,
      "d": 833.3330000000133,
      "v": 127
    },
    {
      "midi": 58,
      "hit": false,
      "t": 239999.9040000006,
      "d": 2499.9990000000107,
      "v": 127
    },
    {
      "midi": 62,
      "hit": false,
      "t": 239999.9040000006,
      "d": 2499.9990000000107,
      "v": 127
    },
    {
      "midi": 53,
      "hit": false,
      "t": 239999.9040000008,
      "d": 833.3330000000133,
      "v": 127
    },
    {
      "midi": 54,
      "hit": false,
      "t": 240833.2370000008,
      "d": 833.3330000000133,
      "v": 127
    },
    {
      "midi": 53,
      "hit": false,
      "t": 241666.57000000082,
      "d": 833.3330000000133,
      "v": 127
    },
    {
      "midi": 62,
      "hit": false,
      "t": 242499.9030000006,
      "d": 833.3330000000133,
      "v": 127
    },
    {
      "midi": 42,
      "hit": false,
      "t": 242499.90300000084,
      "d": 833.3330000000133,
      "v": 127
    },
    {
      "midi": 58,
      "hit": false,
      "t": 243333.23600000062,
      "d": 833.3330000000133,
      "v": 127
    },
    {
      "midi": 53,
      "hit": false,
      "t": 243333.23600000085,
      "d": 833.3330000000133,
      "v": 127
    },
    {
      "midi": 54,
      "hit": false,
      "t": 244166.56900000063,
      "d": 2499.9990000000107,
      "v": 127
    },
    {
      "midi": 61,
      "hit": false,
      "t": 244166.56900000063,
      "d": 2499.9990000000107,
      "v": 127
    },
    {
      "midi": 51,
      "hit": false,
      "t": 244166.56900000086,
      "d": 2499.9990000000107,
      "v": 127
    }
  ]
}