{
  "jsonPath": "Unknown/Unknown/R Kumar/lani.json",
  "path": "Unknown\\Unknown\\R Kumar\\Lani.mid",
  "name": "Lani",
  "difficulty": "Advanced",
  "bpm": 60,
  "notes": [
    {
      "midi": 54,
      "hit": false,
      "t": 0,
      "d": 2000,
      "v": 127
    },
    {
      "midi": 61,
      "hit": false,
      "t": 0,
      "d": 2000,
      "v": 127
    },
    {
      "midi": 38,
      "hit": false,
      "t": 0,
      "d": 2000,
      "v": 127
    },
    {
      "midi": 50,
      "hit": false,
      "t": 0,
      "d": 2000,
      "v": 127
    },
    {
      "midi": 61,
      "hit": false,
      "t": 2000,
      "d": 1500,
      "v": 127
    },
    {
      "midi": 44,
      "hit": false,
      "t": 2000,
      "d": 2000,
      "v": 127
    },
    {
      "midi": 49,
      "hit": false,
      "t": 2000,
      "d": 2000,
      "v": 127
    },
    {
      "midi": 59,
      "hit": false,
      "t": 3500,
      "d": 500,
      "v": 127
    },
    {
      "midi": 59,
      "hit": false,
      "t": 4000,
      "d": 500,
      "v": 127
    },
    {
      "midi": 45,
      "hit": false,
      "t": 4000,
      "d": 2000,
      "v": 127
    },
    {
      "midi": 50,
      "hit": false,
      "t": 4000,
      "d": 2000,
      "v": 127
    },
    {
      "midi": 57,
      "hit": false,
      "t": 4500,
      "d": 500,
      "v": 127
    },
    {
      "midi": 56,
      "hit": false,
      "t": 5000,
      "d": 500,
      "v": 127
    },
    {
      "midi": 57,
      "hit": false,
      "t": 5500,
      "d": 500,
      "v": 127
    },
    {
      "midi": 56,
      "hit": false,
      "t": 6000,
      "d": 500,
      "v": 127
    },
    {
      "midi": 47,
      "hit": false,
      "t": 6000,
      "d": 2000,
      "v": 127
    },
    {
      "midi": 51,
      "hit": false,
      "t": 6000,
      "d": 2000,
      "v": 127
    },
    {
      "midi": 54,
      "hit": false,
      "t": 6500,
      "d": 500,
      "v": 127
    },
    {
      "midi": 54,
      "hit": false,
      "t": 7500,
      "d": 500,
      "v": 127
    },
    {
      "midi": 57,
      "hit": false,
      "t": 8000,
      "d": 500,
      "v": 127
    },
    {
      "midi": 40,
      "hit": false,
      "t": 8000,
      "d": 4000,
      "v": 127
    },
    {
      "midi": 47,
      "hit": false,
      "t": 8000,
      "d": 4000,
      "v": 127
    },
    {
      "midi": 56,
      "hit": false,
      "t": 8500,
      "d": 500,
      "v": 127
    },
    {
      "midi": 56,
      "hit": false,
      "t": 9000,
      "d": 500,
      "v": 127
    },
    {
      "midi": 54,
      "hit": false,
      "t": 9500,
      "d": 500,
      "v": 127
    },
    {
      "midi": 52,
      "hit": false,
      "t": 10000,
      "d": 1000,
      "v": 127
    },
    {
      "midi": 56,
      "hit": false,
      "t": 10000,
      "d": 1000,
      "v": 127
    },
    {
      "midi": 69,
      "hit": false,
      "t": 11000,
      "d": 1000,
      "v": 127
    },
    {
      "midi": 69,
      "hit": false,
      "t": 12000,
      "d": 500,
      "v": 127
    },
    {
      "midi": 56,
      "hit": false,
      "t": 12000,
      "d": 2000,
      "v": 127
    },
    {
      "midi": 68,
      "hit": false,
      "t": 12500,
      "d": 500,
      "v": 127
    },
    {
      "midi": 66,
      "hit": false,
      "t": 13000,
      "d": 500,
      "v": 127
    },
    {
      "midi": 68,
      "hit": false,
      "t": 13500,
      "d": 500,
      "v": 127
    },
    {
      "midi": 66,
      "hit": false,
      "t": 14000,
      "d": 500,
      "v": 127
    },
    {
      "midi": 57,
      "hit": false,
      "t": 14000,
      "d": 2000,
      "v": 127
    },
    {
      "midi": 64,
      "hit": false,
      "t": 14500,
      "d": 500,
      "v": 127
    },
    {
      "midi": 63,
      "hit": false,
      "t": 15000,
      "d": 500,
      "v": 127
    },
    {
      "midi": 64,
      "hit": false,
      "t": 15500,
      "d": 500,
      "v": 127
    },
    {
      "midi": 67,
      "hit": false,
      "t": 16000,
      "d": 500,
      "v": 127
    },
    {
      "midi": 52,
      "hit": false,
      "t": 16000,
      "d": 2000,
      "v": 127
    },
    {
      "midi": 66,
      "hit": false,
      "t": 16500,
      "d": 500,
      "v": 127
    },
    {
      "midi": 64,
      "hit": false,
      "t": 17000,
      "d": 500,
      "v": 127
    },
    {
      "midi": 66,
      "hit": false,
      "t": 17500,
      "d": 500,
      "v": 127
    },
    {
      "midi": 64,
      "hit": false,
      "t": 18000,
      "d": 500,
      "v": 127
    },
    {
      "midi": 48,
      "hit": false,
      "t": 18000,
      "d": 2000,
      "v": 127
    },
    {
      "midi": 53,
      "hit": false,
      "t": 18000,
      "d": 2000,
      "v": 127
    },
    {
      "midi": 62,
      "hit": false,
      "t": 18500,
      "d": 500,
      "v": 127
    },
    {
      "midi": 61,
      "hit": false,
      "t": 19000,
      "d": 500,
      "v": 127
    },
    {
      "midi": 62,
      "hit": false,
      "t": 19500,
      "d": 500,
      "v": 127
    },
    {
      "midi": 64,
      "hit": false,
      "t": 20000,
      "d": 500,
      "v": 127
    },
    {
      "midi": 48,
      "hit": false,
      "t": 20000,
      "d": 2000,
      "v": 127
    },
    {
      "midi": 50,
      "hit": false,
      "t": 20000,
      "d": 2000,
      "v": 127
    },
    {
      "midi": 54,
      "hit": false,
      "t": 20000,
      "d": 2000,
      "v": 127
    },
    {
      "midi": 62,
      "hit": false,
      "t": 20500,
      "d": 500,
      "v": 127
    },
    {
      "midi": 61,
      "hit": false,
      "t": 21000,
      "d": 500,
      "v": 127
    },
    {
      "midi": 62,
      "hit": false,
      "t": 21500,
      "d": 500,
      "v": 127
    },
    {
      "midi": 64,
      "hit": false,
      "t": 22000,
      "d": 500,
      "v": 127
    },
    {
      "midi": 55,
      "hit": false,
      "t": 22000,
      "d": 2000,
      "v": 127
    },
    {
      "midi": 62,
      "hit": false,
      "t": 22500,
      "d": 500,
      "v": 127
    },
    {
      "midi": 62,
      "hit": false,
      "t": 23000,
      "d": 500,
      "v": 127
    },
    {
      "midi": 64,
      "hit": false,
      "t": 23500,
      "d": 500,
      "v": 127
    },
    {
      "midi": 64,
      "hit": false,
      "t": 24000,
      "d": 500,
      "v": 127
    },
    {
      "midi": 57,
      "hit": false,
      "t": 24000,
      "d": 2000,
      "v": 127
    },
    {
      "midi": 63,
      "hit": false,
      "t": 24500,
      "d": 500,
      "v": 127
    },
    {
      "midi": 64,
      "hit": false,
      "t": 25000,
      "d": 500,
      "v": 127
    },
    {
      "midi": 66,
      "hit": false,
      "t": 25500,
      "d": 500,
      "v": 127
    },
    {
      "midi": 63,
      "hit": false,
      "t": 26000,
      "d": 1000,
      "v": 127
    },
    {
      "midi": 59,
      "hit": false,
      "t": 26000,
      "d": 2000,
      "v": 127
    },
    {
      "midi": 68,
      "hit": false,
      "t": 27000,
      "d": 1000,
      "v": 127
    },
    {
      "midi": 68,
      "hit": false,
      "t": 28000,
      "d": 1000,
      "v": 127
    },
    {
      "midi": 51,
      "hit": false,
      "t": 28000,
      "d": 2000,
      "v": 127
    },
    {
      "midi": 66,
      "hit": false,
      "t": 29000,
      "d": 1000,
      "v": 127
    },
    {
      "midi": 66,
      "hit": false,
      "t": 30000,
      "d": 1000,
      "v": 127
    },
    {
      "midi": 54,
      "hit": false,
      "t": 30000,
      "d": 2000,
      "v": 127
    },
    {
      "midi": 64,
      "hit": false,
      "t": 31000,
      "d": 1000,
      "v": 127
    },
    {
      "midi": 63,
      "hit": false,
      "t": 32000,
      "d": 1000,
      "v": 127
    },
    {
      "midi": 56,
      "hit": false,
      "t": 32000,
      "d": 2000,
      "v": 127
    },
    {
      "midi": 64,
      "hit": false,
      "t": 33000,
      "d": 1000,
      "v": 127
    },
    {
      "midi": 66,
      "hit": false,
      "t": 34000,
      "d": 1000,
      "v": 127
    },
    {
      "midi": 59,
      "hit": false,
      "t": 34000,
      "d": 2000,
      "v": 127
    },
    {
      "midi": 64,
      "hit": false,
      "t": 35000,
      "d": 1000,
      "v": 127
    },
    {
      "midi": 63,
      "hit": false,
      "t": 36000,
      "d": 1000,
      "v": 127
    },
    {
      "midi": 53,
      "hit": false,
      "t": 36000,
      "d": 2000,
      "v": 127
    },
    {
      "midi": 56,
      "hit": false,
      "t": 36000,
      "d": 2000,
      "v": 127
    },
    {
      "midi": 64,
      "hit": false,
      "t": 37000,
      "d": 1000,
      "v": 127
    },
    {
      "midi": 66,
      "hit": false,
      "t": 38000,
      "d": 1000,
      "v": 127
    },
    {
      "midi": 50,
      "hit": false,
      "t": 38000,
      "d": 2000,
      "v": 127
    },
    {
      "midi": 64,
      "hit": false,
      "t": 39000,
      "d": 1000,
      "v": 127
    },
    {
      "midi": 63,
      "hit": false,
      "t": 40000,
      "d": 1000,
      "v": 127
    },
    {
      "midi": 52,
      "hit": false,
      "t": 40000,
      "d": 2000,
      "v": 127
    },
    {
      "midi": 64,
      "hit": false,
      "t": 41000,
      "d": 1000,
      "v": 127
    },
    {
      "midi": 63,
      "hit": false,
      "t": 42000,
      "d": 1000,
      "v": 127
    },
    {
      "midi": 49,
      "hit": false,
      "t": 42000,
      "d": 2000,
      "v": 127
    },
    {
      "midi": 61,
      "hit": false,
      "t": 43000,
      "d": 1000,
      "v": 127
    },
    {
      "midi": 60,
      "hit": false,
      "t": 44000,
      "d": 1000,
      "v": 127
    },
    {
      "midi": 61,
      "hit": false,
      "t": 45000,
      "d": 1000,
      "v": 127
    },
    {
      "midi": 60,
      "hit": false,
      "t": 46000,
      "d": 500,
      "v": 127
    },
    {
      "midi": 43,
      "hit": false,
      "t": 46000,
      "d": 2000,
      "v": 127
    },
    {
      "midi": 55,
      "hit": false,
      "t": 46500,
      "d": 500,
      "v": 127
    },
    {
      "midi": 56,
      "hit": false,
      "t": 47000,
      "d": 500,
      "v": 127
    },
    {
      "midi": 58,
      "hit": false,
      "t": 47500,
      "d": 500,
      "v": 127
    },
    {
      "midi": 51,
      "hit": false,
      "t": 48000,
      "d": 500,
      "v": 127
    },
    {
      "midi": 42,
      "hit": false,
      "t": 48000,
      "d": 2000,
      "v": 127
    },
    {
      "midi": 56,
      "hit": false,
      "t": 48500,
      "d": 500,
      "v": 127
    },
    {
      "midi": 55,
      "hit": false,
      "t": 49000,
      "d": 500,
      "v": 127
    },
    {
      "midi": 56,
      "hit": false,
      "t": 49500,
      "d": 500,
      "v": 127
    },
    {
      "midi": 52,
      "hit": false,
      "t": 50000,
      "d": 500,
      "v": 127
    },
    {
      "midi": 48,
      "hit": false,
      "t": 50000,
      "d": 2000,
      "v": 127
    },
    {
      "midi": 55,
      "hit": false,
      "t": 50500,
      "d": 500,
      "v": 127
    },
    {
      "midi": 53,
      "hit": false,
      "t": 51000,
      "d": 500,
      "v": 127
    },
    {
      "midi": 55,
      "hit": false,
      "t": 51500,
      "d": 500,
      "v": 127
    },
    {
      "midi": 51,
      "hit": false,
      "t": 52000,
      "d": 500,
      "v": 127
    },
    {
      "midi": 49,
      "hit": false,
      "t": 52000,
      "d": 2000,
      "v": 127
    },
    {
      "midi": 53,
      "hit": false,
      "t": 52500,
      "d": 500,
      "v": 127
    },
    {
      "midi": 53,
      "hit": false,
      "t": 53500,
      "d": 1000,
      "v": 127
    },
    {
      "midi": 42,
      "hit": false,
      "t": 54000,
      "d": 2000,
      "v": 127
    },
    {
      "midi": 47,
      "hit": false,
      "t": 54000,
      "d": 2000,
      "v": 127
    },
    {
      "midi": 51,
      "hit": false,
      "t": 54500,
      "d": 500,
      "v": 127
    },
    {
      "midi": 49,
      "hit": false,
      "t": 55000,
      "d": 500,
      "v": 127
    },
    {
      "midi": 51,
      "hit": false,
      "t": 55500,
      "d": 500,
      "v": 127
    },
    {
      "midi": 48,
      "hit": false,
      "t": 56000,
      "d": 1000,
      "v": 127
    },
    {
      "midi": 44,
      "hit": false,
      "t": 56000,
      "d": 4000,
      "v": 127
    },
    {
      "midi": 52,
      "hit": false,
      "t": 57000,
      "d": 1000,
      "v": 127
    },
    {
      "midi": 51,
      "hit": false,
      "t": 58000,
      "d": 1000,
      "v": 127
    },
    {
      "midi": 56,
      "hit": false,
      "t": 59000,
      "d": 1000,
      "v": 127
    },
    {
      "midi": 60,
      "hit": false,
      "t": 60000,
      "d": 1000,
      "v": 127
    },
    {
      "midi": 49,
      "hit": false,
      "t": 60500,
      "d": 1000,
      "v": 127
    },
    {
      "midi": 51,
      "hit": false,
      "t": 60500,
      "d": 1000,
      "v": 127
    },
    {
      "midi": 58,
      "hit": false,
      "t": 61000,
      "d": 1000,
      "v": 127
    },
    {
      "midi": 49,
      "hit": false,
      "t": 61500,
      "d": 1000,
      "v": 127
    },
    {
      "midi": 51,
      "hit": false,
      "t": 61500,
      "d": 1000,
      "v": 127
    },
    {
      "midi": 61,
      "hit": false,
      "t": 62000,
      "d": 1000,
      "v": 127
    },
    {
      "midi": 49,
      "hit": false,
      "t": 62500,
      "d": 500,
      "v": 127
    },
    {
      "midi": 51,
      "hit": false,
      "t": 62500,
      "d": 500,
      "v": 127
    },
    {
      "midi": 60,
      "hit": false,
      "t": 63000,
      "d": 1000,
      "v": 127
    },
    {
      "midi": 54,
      "hit": false,
      "t": 63500,
      "d": 1000,
      "v": 127
    },
    {
      "midi": 56,
      "hit": false,
      "t": 63500,
      "d": 1000,
      "v": 127
    },
    {
      "midi": 58,
      "hit": false,
      "t": 64000,
      "d": 1000,
      "v": 127
    },
    {
      "midi": 54,
      "hit": false,
      "t": 64500,
      "d": 1000,
      "v": 127
    },
    {
      "midi": 56,
      "hit": false,
      "t": 64500,
      "d": 1000,
      "v": 127
    },
    {
      "midi": 65,
      "hit": false,
      "t": 65000,
      "d": 1000,
      "v": 127
    },
    {
      "midi": 54,
      "hit": false,
      "t": 65500,
      "d": 500,
      "v": 127
    },
    {
      "midi": 56,
      "hit": false,
      "t": 65500,
      "d": 500,
      "v": 127
    },
    {
      "midi": 65,
      "hit": false,
      "t": 66000,
      "d": 500,
      "v": 127
    },
    {
      "midi": 61,
      "hit": false,
      "t": 66500,
      "d": 500,
      "v": 127
    },
    {
      "midi": 59,
      "hit": false,
      "t": 66500,
      "d": 1000,
      "v": 127
    },
    {
      "midi": 63,
      "hit": false,
      "t": 67000,
      "d": 500,
      "v": 127
    },
    {
      "midi": 61,
      "hit": false,
      "t": 67500,
      "d": 500,
      "v": 127
    },
    {
      "midi": 59,
      "hit": false,
      "t": 67500,
      "d": 1000,
      "v": 127
    },
    {
      "midi": 70,
      "hit": false,
      "t": 68000,
      "d": 500,
      "v": 127
    },
    {
      "midi": 61,
      "hit": false,
      "t": 68500,
      "d": 500,
      "v": 127
    },
    {
      "midi": 59,
      "hit": false,
      "t": 68500,
      "d": 500,
      "v": 127
    },
    {
      "midi": 70,
      "hit": false,
      "t": 69000,
      "d": 500,
      "v": 127
    },
    {
      "midi": 54,
      "hit": false,
      "t": 69000,
      "d": 500,
      "v": 127
    },
    {
      "midi": 61,
      "hit": false,
      "t": 69500,
      "d": 500,
      "v": 127
    },
    {
      "midi": 59,
      "hit": false,
      "t": 69500,
      "d": 1000,
      "v": 127
    },
    {
      "midi": 66,
      "hit": false,
      "t": 70000,
      "d": 500,
      "v": 127
    },
    {
      "midi": 61,
      "hit": false,
      "t": 70500,
      "d": 500,
      "v": 127
    },
    {
      "midi": 59,
      "hit": false,
      "t": 70500,
      "d": 1000,
      "v": 127
    },
    {
      "midi": 65,
      "hit": false,
      "t": 71000,
      "d": 500,
      "v": 127
    },
    {
      "midi": 61,
      "hit": false,
      "t": 71500,
      "d": 500,
      "v": 127
    },
    {
      "midi": 59,
      "hit": false,
      "t": 71500,
      "d": 500,
      "v": 127
    },
    {
      "midi": 65,
      "hit": false,
      "t": 72000,
      "d": 500,
      "v": 127
    },
    {
      "midi": 54,
      "hit": false,
      "t": 72000,
      "d": 500,
      "v": 127
    },
    {
      "midi": 63,
      "hit": false,
      "t": 72500,
      "d": 500,
      "v": 127
    },
    {
      "midi": 61,
      "hit": false,
      "t": 72500,
      "d": 1000,
      "v": 127
    },
    {
      "midi": 66,
      "hit": false,
      "t": 73000,
      "d": 500,
      "v": 127
    },
    {
      "midi": 63,
      "hit": false,
      "t": 73500,
      "d": 500,
      "v": 127
    },
    {
      "midi": 61,
      "hit": false,
      "t": 73500,
      "d": 1000,
      "v": 127
    },
    {
      "midi": 65,
      "hit": false,
      "t": 74000,
      "d": 500,
      "v": 127
    },
    {
      "midi": 63,
      "hit": false,
      "t": 74500,
      "d": 500,
      "v": 127
    },
    {
      "midi": 61,
      "hit": false,
      "t": 74500,
      "d": 500,
      "v": 127
    },
    {
      "midi": 65,
      "hit": false,
      "t": 75000,
      "d": 500,
      "v": 127
    },
    {
      "midi": 54,
      "hit": false,
      "t": 75000,
      "d": 500,
      "v": 127
    },
    {
      "midi": 61,
      "hit": false,
      "t": 75500,
      "d": 500,
      "v": 127
    },
    {
      "midi": 59,
      "hit": false,
      "t": 75500,
      "d": 1000,
      "v": 127
    },
    {
      "midi": 63,
      "hit": false,
      "t": 76000,
      "d": 500,
      "v": 127
    },
    {
      "midi": 61,
      "hit": false,
      "t": 76500,
      "d": 500,
      "v": 127
    },
    {
      "midi": 59,
      "hit": false,
      "t": 76500,
      "d": 1000,
      "v": 127
    },
    {
      "midi": 65,
      "hit": false,
      "t": 77000,
      "d": 500,
      "v": 127
    },
    {
      "midi": 61,
      "hit": false,
      "t": 77500,
      "d": 500,
      "v": 127
    },
    {
      "midi": 59,
      "hit": false,
      "t": 77500,
      "d": 500,
      "v": 127
    },
    {
      "midi": 70,
      "hit": false,
      "t": 78000,
      "d": 500,
      "v": 127
    },
    {
      "midi": 42,
      "hit": false,
      "t": 78000,
      "d": 500,
      "v": 127
    },
    {
      "midi": 61,
      "hit": false,
      "t": 78500,
      "d": 500,
      "v": 127
    },
    {
      "midi": 58,
      "hit": false,
      "t": 78500,
      "d": 1000,
      "v": 127
    },
    {
      "midi": 68,
      "hit": false,
      "t": 79000,
      "d": 500,
      "v": 127
    },
    {
      "midi": 61,
      "hit": false,
      "t": 79500,
      "d": 500,
      "v": 127
    },
    {
      "midi": 59,
      "hit": false,
      "t": 79500,
      "d": 1000,
      "v": 127
    },
    {
      "midi": 71,
      "hit": false,
      "t": 80000,
      "d": 500,
      "v": 127
    },
    {
      "midi": 61,
      "hit": false,
      "t": 80500,
      "d": 500,
      "v": 127
    },
    {
      "midi": 59,
      "hit": false,
      "t": 80500,
      "d": 500,
      "v": 127
    },
    {
      "midi": 70,
      "hit": false,
      "t": 81000,
      "d": 500,
      "v": 127
    },
    {
      "midi": 47,
      "hit": false,
      "t": 81000,
      "d": 500,
      "v": 127
    },
    {
      "midi": 61,
      "hit": false,
      "t": 81500,
      "d": 500,
      "v": 127
    },
    {
      "midi": 59,
      "hit": false,
      "t": 81500,
      "d": 1000,
      "v": 127
    },
    {
      "midi": 68,
      "hit": false,
      "t": 82000,
      "d": 500,
      "v": 127
    },
    {
      "midi": 63,
      "hit": false,
      "t": 82500,
      "d": 500,
      "v": 127
    },
    {
      "midi": 61,
      "hit": false,
      "t": 82500,
      "d": 1000,
      "v": 127
    },
    {
      "midi": 75,
      "hit": false,
      "t": 83000,
      "d": 500,
      "v": 127
    },
    {
      "midi": 66,
      "hit": false,
      "t": 83500,
      "d": 500,
      "v": 127
    },
    {
      "midi": 63,
      "hit": false,
      "t": 83500,
      "d": 500,
      "v": 127
    },
    {
      "midi": 75,
      "hit": false,
      "t": 84000,
      "d": 500,
      "v": 127
    },
    {
      "midi": 52,
      "hit": false,
      "t": 84000,
      "d": 500,
      "v": 127
    },
    {
      "midi": 66,
      "hit": false,
      "t": 84500,
      "d": 500,
      "v": 127
    },
    {
      "midi": 64,
      "hit": false,
      "t": 84500,
      "d": 1000,
      "v": 127
    },
    {
      "midi": 73,
      "hit": false,
      "t": 85000,
      "d": 500,
      "v": 127
    },
    {
      "midi": 66,
      "hit": false,
      "t": 85500,
      "d": 500,
      "v": 127
    },
    {
      "midi": 64,
      "hit": false,
      "t": 85500,
      "d": 1000,
      "v": 127
    },
    {
      "midi": 80,
      "hit": false,
      "t": 86000,
      "d": 500,
      "v": 127
    },
    {
      "midi": 68,
      "hit": false,
      "t": 86500,
      "d": 500,
      "v": 127
    },
    {
      "midi": 66,
      "hit": false,
      "t": 86500,
      "d": 500,
      "v": 127
    },
    {
      "midi": 80,
      "hit": false,
      "t": 87000,
      "d": 500,
      "v": 127
    },
    {
      "midi": 59,
      "hit": false,
      "t": 87000,
      "d": 500,
      "v": 127
    },
    {
      "midi": 70,
      "hit": false,
      "t": 87500,
      "d": 500,
      "v": 127
    },
    {
      "midi": 66,
      "hit": false,
      "t": 87500,
      "d": 1000,
      "v": 127
    },
    {
      "midi": 78,
      "hit": false,
      "t": 88000,
      "d": 500,
      "v": 127
    },
    {
      "midi": 70,
      "hit": false,
      "t": 88500,
      "d": 500,
      "v": 127
    },
    {
      "midi": 68,
      "hit": false,
      "t": 88500,
      "d": 1000,
      "v": 127
    },
    {
      "midi": 75,
      "hit": false,
      "t": 89000,
      "d": 500,
      "v": 127
    },
    {
      "midi": 68,
      "hit": false,
      "t": 89500,
      "d": 500,
      "v": 127
    },
    {
      "midi": 66,
      "hit": false,
      "t": 89500,
      "d": 500,
      "v": 127
    },
    {
      "midi": 75,
      "hit": false,
      "t": 90000,
      "d": 500,
      "v": 127
    },
    {
      "midi": 57,
      "hit": false,
      "t": 90000,
      "d": 500,
      "v": 127
    },
    {
      "midi": 66,
      "hit": false,
      "t": 90500,
      "d": 500,
      "v": 127
    },
    {
      "midi": 64,
      "hit": false,
      "t": 90500,
      "d": 1000,
      "v": 127
    },
    {
      "midi": 73,
      "hit": false,
      "t": 91000,
      "d": 500,
      "v": 127
    },
    {
      "midi": 68,
      "hit": false,
      "t": 91500,
      "d": 500,
      "v": 127
    },
    {
      "midi": 66,
      "hit": false,
      "t": 91500,
      "d": 1000,
      "v": 127
    },
    {
      "midi": 76,
      "hit": false,
      "t": 92000,
      "d": 500,
      "v": 127
    },
    {
      "midi": 68,
      "hit": false,
      "t": 92500,
      "d": 500,
      "v": 127
    },
    {
      "midi": 66,
      "hit": false,
      "t": 92500,
      "d": 500,
      "v": 127
    },
    {
      "midi": 75,
      "hit": false,
      "t": 93000,
      "d": 500,
      "v": 127
    },
    {
      "midi": 57,
      "hit": false,
      "t": 93000,
      "d": 500,
      "v": 127
    },
    {
      "midi": 68,
      "hit": false,
      "t": 93500,
      "d": 500,
      "v": 127
    },
    {
      "midi": 63,
      "hit": false,
      "t": 93500,
      "d": 1000,
      "v": 127
    },
    {
      "midi": 73,
      "hit": false,
      "t": 94000,
      "d": 500,
      "v": 127
    },
    {
      "midi": 66,
      "hit": false,
      "t": 94500,
      "d": 500,
      "v": 127
    },
    {
      "midi": 63,
      "hit": false,
      "t": 94500,
      "d": 1000,
      "v": 127
    },
    {
      "midi": 76,
      "hit": false,
      "t": 95000,
      "d": 500,
      "v": 127
    },
    {
      "midi": 66,
      "hit": false,
      "t": 95500,
      "d": 500,
      "v": 127
    },
    {
      "midi": 64,
      "hit": false,
      "t": 95500,
      "d": 500,
      "v": 127
    },
    {
      "midi": 75,
      "hit": false,
      "t": 96000,
      "d": 500,
      "v": 127
    },
    {
      "midi": 58,
      "hit": false,
      "t": 96000,
      "d": 500,
      "v": 127
    },
    {
      "midi": 66,
      "hit": false,
      "t": 96500,
      "d": 500,
      "v": 127
    },
    {
      "midi": 64,
      "hit": false,
      "t": 96500,
      "d": 1000,
      "v": 127
    },
    {
      "midi": 73,
      "hit": false,
      "t": 97000,
      "d": 500,
      "v": 127
    },
    {
      "midi": 68,
      "hit": false,
      "t": 97500,
      "d": 500,
      "v": 127
    },
    {
      "midi": 64,
      "hit": false,
      "t": 97500,
      "d": 1000,
      "v": 127
    },
    {
      "midi": 75,
      "hit": false,
      "t": 98000,
      "d": 500,
      "v": 127
    },
    {
      "midi": 66,
      "hit": false,
      "t": 98500,
      "d": 500,
      "v": 127
    },
    {
      "midi": 64,
      "hit": false,
      "t": 98500,
      "d": 500,
      "v": 127
    },
    {
      "midi": 73,
      "hit": false,
      "t": 99000,
      "d": 500,
      "v": 127
    },
    {
      "midi": 59,
      "hit": false,
      "t": 99000,
      "d": 500,
      "v": 127
    },
    {
      "midi": 68,
      "hit": false,
      "t": 99500,
      "d": 500,
      "v": 127
    },
    {
      "midi": 64,
      "hit": false,
      "t": 99500,
      "d": 1000,
      "v": 127
    },
    {
      "midi": 71,
      "hit": false,
      "t": 100000,
      "d": 500,
      "v": 127
    },
    {
      "midi": 66,
      "hit": false,
      "t": 100500,
      "d": 500,
      "v": 127
    },
    {
      "midi": 64,
      "hit": false,
      "t": 100500,
      "d": 1000,
      "v": 127
    },
    {
      "midi": 69,
      "hit": false,
      "t": 101000,
      "d": 500,
      "v": 127
    },
    {
      "midi": 66,
      "hit": false,
      "t": 101500,
      "d": 500,
      "v": 127
    },
    {
      "midi": 63,
      "hit": false,
      "t": 101500,
      "d": 500,
      "v": 127
    },
    {
      "midi": 68,
      "hit": false,
      "t": 102000,
      "d": 500,
      "v": 127
    },
    {
      "midi": 52,
      "hit": false,
      "t": 102000,
      "d": 500,
      "v": 127
    },
    {
      "midi": 63,
      "hit": false,
      "t": 102500,
      "d": 500,
      "v": 127
    },
    {
      "midi": 59,
      "hit": false,
      "t": 102500,
      "d": 1000,
      "v": 127
    },
    {
      "midi": 66,
      "hit": false,
      "t": 103000,
      "d": 500,
      "v": 127
    },
    {
      "midi": 61,
      "hit": false,
      "t": 103500,
      "d": 500,
      "v": 127
    },
    {
      "midi": 59,
      "hit": false,
      "t": 103500,
      "d": 1000,
      "v": 127
    },
    {
      "midi": 69,
      "hit": false,
      "t": 104000,
      "d": 500,
      "v": 127
    },
    {
      "midi": 63,
      "hit": false,
      "t": 104500,
      "d": 500,
      "v": 127
    },
    {
      "midi": 59,
      "hit": false,
      "t": 104500,
      "d": 500,
      "v": 127
    },
    {
      "midi": 68,
      "hit": false,
      "t": 105000,
      "d": 500,
      "v": 127
    },
    {
      "midi": 57,
      "hit": false,
      "t": 105000,
      "d": 500,
      "v": 127
    },
    {
      "midi": 64,
      "hit": false,
      "t": 105500,
      "d": 500,
      "v": 127
    },
    {
      "midi": 61,
      "hit": false,
      "t": 105500,
      "d": 1000,
      "v": 127
    },
    {
      "midi": 66,
      "hit": false,
      "t": 106000,
      "d": 500,
      "v": 127
    },
    {
      "midi": 63,
      "hit": false,
      "t": 106500,
      "d": 500,
      "v": 127
    },
    {
      "midi": 61,
      "hit": false,
      "t": 106500,
      "d": 1000,
      "v": 127
    },
    {
      "midi": 69,
      "hit": false,
      "t": 107000,
      "d": 500,
      "v": 127
    },
    {
      "midi": 64,
      "hit": false,
      "t": 107500,
      "d": 500,
      "v": 127
    },
    {
      "midi": 61,
      "hit": false,
      "t": 107500,
      "d": 500,
      "v": 127
    },
    {
      "midi": 68,
      "hit": false,
      "t": 108000,
      "d": 500,
      "v": 127
    },
    {
      "midi": 51,
      "hit": false,
      "t": 108000,
      "d": 500,
      "v": 127
    },
    {
      "midi": 63,
      "hit": false,
      "t": 108500,
      "d": 500,
      "v": 127
    },
    {
      "midi": 57,
      "hit": false,
      "t": 108500,
      "d": 1000,
      "v": 127
    },
    {
      "midi": 59,
      "hit": false,
      "t": 108500,
      "d": 1000,
      "v": 127
    },
    {
      "midi": 66,
      "hit": false,
      "t": 109000,
      "d": 500,
      "v": 127
    },
    {
      "midi": 63,
      "hit": false,
      "t": 109500,
      "d": 500,
      "v": 127
    },
    {
      "midi": 57,
      "hit": false,
      "t": 109500,
      "d": 1000,
      "v": 127
    },
    {
      "midi": 59,
      "hit": false,
      "t": 109500,
      "d": 1000,
      "v": 127
    },
    {
      "midi": 69,
      "hit": false,
      "t": 110000,
      "d": 500,
      "v": 127
    },
    {
      "midi": 63,
      "hit": false,
      "t": 110500,
      "d": 500,
      "v": 127
    },
    {
      "midi": 59,
      "hit": false,
      "t": 110500,
      "d": 500,
      "v": 127
    },
    {
      "midi": 73,
      "hit": false,
      "t": 111000,
      "d": 500,
      "v": 127
    },
    {
      "midi": 52,
      "hit": false,
      "t": 111000,
      "d": 500,
      "v": 127
    },
    {
      "midi": 63,
      "hit": false,
      "t": 111500,
      "d": 500,
      "v": 127
    },
    {
      "midi": 57,
      "hit": false,
      "t": 111500,
      "d": 1000,
      "v": 127
    },
    {
      "midi": 59,
      "hit": false,
      "t": 111500,
      "d": 1000,
      "v": 127
    },
    {
      "midi": 71,
      "hit": false,
      "t": 112000,
      "d": 500,
      "v": 127
    },
    {
      "midi": 63,
      "hit": false,
      "t": 112500,
      "d": 500,
      "v": 127
    },
    {
      "midi": 57,
      "hit": false,
      "t": 112500,
      "d": 1000,
      "v": 127
    },
    {
      "midi": 59,
      "hit": false,
      "t": 112500,
      "d": 1000,
      "v": 127
    },
    {
      "midi": 68,
      "hit": false,
      "t": 113000,
      "d": 500,
      "v": 127
    },
    {
      "midi": 64,
      "hit": false,
      "t": 113500,
      "d": 500,
      "v": 127
    },
    {
      "midi": 56,
      "hit": false,
      "t": 113500,
      "d": 500,
      "v": 127
    },
    {
      "midi": 59,
      "hit": false,
      "t": 113500,
      "d": 500,
      "v": 127
    },
    {
      "midi": 68,
      "hit": false,
      "t": 114000,
      "d": 500,
      "v": 127
    },
    {
      "midi": 46,
      "hit": false,
      "t": 114000,
      "d": 500,
      "v": 127
    },
    {
      "midi": 58,
      "hit": false,
      "t": 114500,
      "d": 2000,
      "v": 127
    },
    {
      "midi": 61,
      "hit": false,
      "t": 114500,
      "d": 2000,
      "v": 127
    },
    {
      "midi": 52,
      "hit": false,
      "t": 114500,
      "d": 2000,
      "v": 127
    },
    {
      "midi": 56,
      "hit": false,
      "t": 114500,
      "d": 2000,
      "v": 127
    },
    {
      "midi": 68,
      "hit": false,
      "t": 117000,
      "d": 1000,
      "v": 127
    },
    {
      "midi": 51,
      "hit": false,
      "t": 117000,
      "d": 1000,
      "v": 127
    },
    {
      "midi": 61,
      "hit": false,
      "t": 118000,
      "d": 1000,
      "v": 127
    },
    {
      "midi": 63,
      "hit": false,
      "t": 118000,
      "d": 1000,
      "v": 127
    },
    {
      "midi": 56,
      "hit": false,
      "t": 118000,
      "d": 1000,
      "v": 127
    },
    {
      "midi": 58,
      "hit": false,
      "t": 118000,
      "d": 1000,
      "v": 127
    },
    {
      "midi": 67,
      "hit": false,
      "t": 119000,
      "d": 1000,
      "v": 127
    },
    {
      "midi": 55,
      "hit": false,
      "t": 119000,
      "d": 1000,
      "v": 127
    },
    {
      "midi": 60,
      "hit": false,
      "t": 120000,
      "d": 3000,
      "v": 127
    },
    {
      "midi": 67,
      "hit": false,
      "t": 120000,
      "d": 3000,
      "v": 127
    },
    {
      "midi": 72,
      "hit": false,
      "t": 120000,
      "d": 3000,
      "v": 127
    },
    {
      "midi": 56,
      "hit": false,
      "t": 120000,
      "d": 1000,
      "v": 127
    },
    {
      "midi": 51,
      "hit": false,
      "t": 121000,
      "d": 2000,
      "v": 127
    },
    {
      "midi": 71,
      "hit": false,
      "t": 123000,
      "d": 2000,
      "v": 127
    },
    {
      "midi": 55,
      "hit": false,
      "t": 123000,
      "d": 500,
      "v": 127
    },
    {
      "midi": 62,
      "hit": false,
      "t": 123500,
      "d": 2000,
      "v": 127
    },
    {
      "midi": 65,
      "hit": false,
      "t": 125000,
      "d": 1000,
      "v": 127
    },
    {
      "midi": 60,
      "hit": false,
      "t": 126000,
      "d": 1000,
      "v": 127
    },
    {
      "midi": 65,
      "hit": false,
      "t": 126000,
      "d": 1000,
      "v": 127
    },
    {
      "midi": 72,
      "hit": false,
      "t": 126000,
      "d": 1000,
      "v": 127
    },
    {
      "midi": 56,
      "hit": false,
      "t": 126000,
      "d": 500,
      "v": 127
    },
    {
      "midi": 63,
      "hit": false,
      "t": 126500,
      "d": 500,
      "v": 127
    },
    {
      "midi": 62,
      "hit": false,
      "t": 127000,
      "d": 1000,
      "v": 127
    },
    {
      "midi": 74,
      "hit": false,
      "t": 127000,
      "d": 1000,
      "v": 127
    },
    {
      "midi": 63,
      "hit": false,
      "t": 128000,
      "d": 1000,
      "v": 127
    },
    {
      "midi": 75,
      "hit": false,
      "t": 128000,
      "d": 1000,
      "v": 127
    },
    {
      "midi": 74,
      "hit": false,
      "t": 129000,
      "d": 1000,
      "v": 127
    },
    {
      "midi": 62,
      "hit": false,
      "t": 129000,
      "d": 500,
      "v": 127
    },
    {
      "midi": 60,
      "hit": false,
      "t": 129500,
      "d": 500,
      "v": 127
    },
    {
      "midi": 63,
      "hit": false,
      "t": 130000,
      "d": 1000,
      "v": 127
    },
    {
      "midi": 75,
      "hit": false,
      "t": 130000,
      "d": 1000,
      "v": 127
    },
    {
      "midi": 65,
      "hit": false,
      "t": 131000,
      "d": 1000,
      "v": 127
    },
    {
      "midi": 77,
      "hit": false,
      "t": 131000,
      "d": 1000,
      "v": 127
    },
    {
      "midi": 60,
      "hit": false,
      "t": 131000,
      "d": 1000,
      "v": 127
    },
    {
      "midi": 75,
      "hit": false,
      "t": 132000,
      "d": 1000,
      "v": 127
    },
    {
      "midi": 63,
      "hit": false,
      "t": 132000,
      "d": 500,
      "v": 127
    },
    {
      "midi": 62,
      "hit": false,
      "t": 132500,
      "d": 500,
      "v": 127
    },
    {
      "midi": 62,
      "hit": false,
      "t": 133000,
      "d": 1000,
      "v": 127
    },
    {
      "midi": 74,
      "hit": false,
      "t": 133000,
      "d": 1000,
      "v": 127
    },
    {
      "midi": 62,
      "hit": false,
      "t": 133000,
      "d": 1000,
      "v": 127
    },
    {
      "midi": 60,
      "hit": false,
      "t": 134000,
      "d": 1000,
      "v": 127
    },
    {
      "midi": 72,
      "hit": false,
      "t": 134000,
      "d": 1000,
      "v": 127
    },
    {
      "midi": 60,
      "hit": false,
      "t": 134000,
      "d": 1000,
      "v": 127
    },
    {
      "midi": 74,
      "hit": false,
      "t": 135000,
      "d": 2000,
      "v": 127
    },
    {
      "midi": 46,
      "hit": false,
      "t": 135000,
      "d": 3000,
      "v": 127
    },
    {
      "midi": 53,
      "hit": false,
      "t": 135000,
      "d": 3000,
      "v": 127
    },
    {
      "midi": 58,
      "hit": false,
      "t": 135000,
      "d": 3000,
      "v": 127
    },
    {
      "midi": 63,
      "hit": false,
      "t": 137000,
      "d": 1000,
      "v": 127
    },
    {
      "midi": 75,
      "hit": false,
      "t": 137000,
      "d": 1000,
      "v": 127
    },
    {
      "midi": 75,
      "hit": false,
      "t": 138000,
      "d": 500,
      "v": 127
    },
    {
      "midi": 54,
      "hit": false,
      "t": 138000,
      "d": 500,
      "v": 127
    },
    {
      "midi": 66,
      "hit": false,
      "t": 138500,
      "d": 500,
      "v": 127
    },
    {
      "midi": 63,
      "hit": false,
      "t": 138500,
      "d": 1000,
      "v": 127
    },
    {
      "midi": 73,
      "hit": false,
      "t": 139000,
      "d": 500,
      "v": 127
    },
    {
      "midi": 66,
      "hit": false,
      "t": 139500,
      "d": 500,
      "v": 127
    },
    {
      "midi": 63,
      "hit": false,
      "t": 139500,
      "d": 1000,
      "v": 127
    },
    {
      "midi": 70,
      "hit": false,
      "t": 140000,
      "d": 500,
      "v": 127
    },
    {
      "midi": 66,
      "hit": false,
      "t": 140500,
      "d": 500,
      "v": 127
    },
    {
      "midi": 63,
      "hit": false,
      "t": 140500,
      "d": 500,
      "v": 127
    },
    {
      "midi": 70,
      "hit": false,
      "t": 141000,
      "d": 500,
      "v": 127
    },
    {
      "midi": 66,
      "hit": false,
      "t": 141500,
      "d": 500,
      "v": 127
    },
    {
      "midi": 63,
      "hit": false,
      "t": 141500,
      "d": 1000,
      "v": 127
    },
    {
      "midi": 68,
      "hit": false,
      "t": 142000,
      "d": 500,
      "v": 127
    },
    {
      "midi": 66,
      "hit": false,
      "t": 142500,
      "d": 500,
      "v": 127
    },
    {
      "midi": 63,
      "hit": false,
      "t": 142500,
      "d": 1000,
      "v": 127
    },
    {
      "midi": 70,
      "hit": false,
      "t": 143000,
      "d": 500,
      "v": 127
    },
    {
      "midi": 66,
      "hit": false,
      "t": 143500,
      "d": 500,
      "v": 127
    },
    {
      "midi": 63,
      "hit": false,
      "t": 143500,
      "d": 500,
      "v": 127
    },
    {
      "midi": 73,
      "hit": false,
      "t": 144000,
      "d": 500,
      "v": 127
    },
    {
      "midi": 56,
      "hit": false,
      "t": 144000,
      "d": 500,
      "v": 127
    },
    {
      "midi": 66,
      "hit": false,
      "t": 144500,
      "d": 500,
      "v": 127
    },
    {
      "midi": 59,
      "hit": false,
      "t": 144500,
      "d": 1000,
      "v": 127
    },
    {
      "midi": 70,
      "hit": false,
      "t": 145000,
      "d": 500,
      "v": 127
    },
    {
      "midi": 66,
      "hit": false,
      "t": 145500,
      "d": 500,
      "v": 127
    },
    {
      "midi": 59,
      "hit": false,
      "t": 145500,
      "d": 1000,
      "v": 127
    },
    {
      "midi": 68,
      "hit": false,
      "t": 146000,
      "d": 500,
      "v": 127
    },
    {
      "midi": 66,
      "hit": false,
      "t": 146500,
      "d": 500,
      "v": 127
    },
    {
      "midi": 59,
      "hit": false,
      "t": 146500,
      "d": 500,
      "v": 127
    },
    {
      "midi": 68,
      "hit": false,
      "t": 147000,
      "d": 500,
      "v": 127
    },
    {
      "midi": 63,
      "hit": false,
      "t": 147500,
      "d": 500,
      "v": 127
    },
    {
      "midi": 53,
      "hit": false,
      "t": 147500,
      "d": 1000,
      "v": 127
    },
    {
      "midi": 66,
      "hit": false,
      "t": 148000,
      "d": 500,
      "v": 127
    },
    {
      "midi": 63,
      "hit": false,
      "t": 148500,
      "d": 500,
      "v": 127
    },
    {
      "midi": 59,
      "hit": false,
      "t": 148500,
      "d": 1000,
      "v": 127
    },
    {
      "midi": 68,
      "hit": false,
      "t": 149000,
      "d": 500,
      "v": 127
    },
    {
      "midi": 63,
      "hit": false,
      "t": 149500,
      "d": 500,
      "v": 127
    },
    {
      "midi": 59,
      "hit": false,
      "t": 149500,
      "d": 500,
      "v": 127
    },
    {
      "midi": 59,
      "hit": false,
      "t": 150000,
      "d": 1000,
      "v": 127
    },
    {
      "midi": 66,
      "hit": false,
      "t": 150000,
      "d": 1000,
      "v": 127
    },
    {
      "midi": 71,
      "hit": false,
      "t": 150000,
      "d": 1000,
      "v": 127
    },
    {
      "midi": 57,
      "hit": false,
      "t": 150000,
      "d": 500,
      "v": 127
    },
    {
      "midi": 61,
      "hit": false,
      "t": 150500,
      "d": 1000,
      "v": 127
    },
    {
      "midi": 68,
      "hit": false,
      "t": 151000,
      "d": 500,
      "v": 127
    },
    {
      "midi": 63,
      "hit": false,
      "t": 151500,
      "d": 500,
      "v": 127
    },
    {
      "midi": 61,
      "hit": false,
      "t": 151500,
      "d": 1000,
      "v": 127
    },
    {
      "midi": 69,
      "hit": false,
      "t": 152000,
      "d": 500,
      "v": 127
    },
    {
      "midi": 63,
      "hit": false,
      "t": 152500,
      "d": 500,
      "v": 127
    },
    {
      "midi": 61,
      "hit": false,
      "t": 152500,
      "d": 500,
      "v": 127
    },
    {
      "midi": 69,
      "hit": false,
      "t": 153000,
      "d": 500,
      "v": 127
    },
    {
      "midi": 55,
      "hit": false,
      "t": 153000,
      "d": 500,
      "v": 127
    },
    {
      "midi": 62,
      "hit": false,
      "t": 153500,
      "d": 500,
      "v": 127
    },
    {
      "midi": 59,
      "hit": false,
      "t": 153500,
      "d": 1000,
      "v": 127
    },
    {
      "midi": 67,
      "hit": false,
      "t": 154000,
      "d": 500,
      "v": 127
    },
    {
      "midi": 62,
      "hit": false,
      "t": 154500,
      "d": 1500,
      "v": 127
    },
    {
      "midi": 59,
      "hit": false,
      "t": 154500,
      "d": 1000,
      "v": 127
    },
    {
      "midi": 59,
      "hit": false,
      "t": 155500,
      "d": 500,
      "v": 127
    },
    {
      "midi": 65,
      "hit": false,
      "t": 156000,
      "d": 500,
      "v": 127
    },
    {
      "midi": 56,
      "hit": false,
      "t": 156000,
      "d": 500,
      "v": 127
    },
    {
      "midi": 58,
      "hit": false,
      "t": 156500,
      "d": 500,
      "v": 127
    },
    {
      "midi": 54,
      "hit": false,
      "t": 156500,
      "d": 1000,
      "v": 127
    },
    {
      "midi": 56,
      "hit": false,
      "t": 157500,
      "d": 500,
      "v": 127
    },
    {
      "midi": 54,
      "hit": false,
      "t": 157500,
      "d": 1000,
      "v": 127
    },
    {
      "midi": 63,
      "hit": false,
      "t": 158000,
      "d": 500,
      "v": 127
    },
    {
      "midi": 56,
      "hit": false,
      "t": 158500,
      "d": 500,
      "v": 127
    },
    {
      "midi": 54,
      "hit": false,
      "t": 158500,
      "d": 500,
      "v": 127
    },
    {
      "midi": 63,
      "hit": false,
      "t": 159000,
      "d": 500,
      "v": 127
    },
    {
      "midi": 49,
      "hit": false,
      "t": 159000,
      "d": 500,
      "v": 127
    },
    {
      "midi": 58,
      "hit": false,
      "t": 159500,
      "d": 500,
      "v": 127
    },
    {
      "midi": 54,
      "hit": false,
      "t": 159500,
      "d": 1000,
      "v": 127
    },
    {
      "midi": 60,
      "hit": false,
      "t": 160000,
      "d": 500,
      "v": 127
    },
    {
      "midi": 56,
      "hit": false,
      "t": 160500,
      "d": 500,
      "v": 127
    },
    {
      "midi": 54,
      "hit": false,
      "t": 160500,
      "d": 1000,
      "v": 127
    },
    {
      "midi": 63,
      "hit": false,
      "t": 161000,
      "d": 500,
      "v": 127
    },
    {
      "midi": 56,
      "hit": false,
      "t": 161500,
      "d": 500,
      "v": 127
    },
    {
      "midi": 54,
      "hit": false,
      "t": 161500,
      "d": 500,
      "v": 127
    },
    {
      "midi": 68,
      "hit": false,
      "t": 162000,
      "d": 500,
      "v": 127
    },
    {
      "midi": 51,
      "hit": false,
      "t": 162000,
      "d": 500,
      "v": 127
    },
    {
      "midi": 58,
      "hit": false,
      "t": 162500,
      "d": 500,
      "v": 127
    },
    {
      "midi": 54,
      "hit": false,
      "t": 162500,
      "d": 1000,
      "v": 127
    },
    {
      "midi": 60,
      "hit": false,
      "t": 163000,
      "d": 1000,
      "v": 127
    },
    {
      "midi": 54,
      "hit": false,
      "t": 163500,
      "d": 1000,
      "v": 127
    },
    {
      "midi": 66,
      "hit": false,
      "t": 164000,
      "d": 500,
      "v": 127
    },
    {
      "midi": 56,
      "hit": false,
      "t": 164500,
      "d": 500,
      "v": 127
    },
    {
      "midi": 54,
      "hit": false,
      "t": 164500,
      "d": 500,
      "v": 127
    },
    {
      "midi": 70,
      "hit": false,
      "t": 165000,
      "d": 500,
      "v": 127
    },
    {
      "midi": 53,
      "hit": false,
      "t": 165000,
      "d": 500,
      "v": 127
    },
    {
      "midi": 58,
      "hit": false,
      "t": 165500,
      "d": 500,
      "v": 127
    },
    {
      "midi": 54,
      "hit": false,
      "t": 165500,
      "d": 1000,
      "v": 127
    },
    {
      "midi": 60,
      "hit": false,
      "t": 166000,
      "d": 500,
      "v": 127
    },
    {
      "midi": 56,
      "hit": false,
      "t": 166500,
      "d": 500,
      "v": 127
    },
    {
      "midi": 54,
      "hit": false,
      "t": 166500,
      "d": 1000,
      "v": 127
    },
    {
      "midi": 68,
      "hit": false,
      "t": 167000,
      "d": 500,
      "v": 127
    },
    {
      "midi": 56,
      "hit": false,
      "t": 167500,
      "d": 500,
      "v": 127
    },
    {
      "midi": 54,
      "hit": false,
      "t": 167500,
      "d": 500,
      "v": 127
    },
    {
      "midi": 77,
      "hit": false,
      "t": 168000,
      "d": 500,
      "v": 127
    },
    {
      "midi": 58,
      "hit": false,
      "t": 168000,
      "d": 500,
      "v": 127
    },
    {
      "midi": 58,
      "hit": false,
      "t": 168500,
      "d": 500,
      "v": 127
    },
    {
      "midi": 54,
      "hit": false,
      "t": 168500,
      "d": 1000,
      "v": 127
    },
    {
      "midi": 60,
      "hit": false,
      "t": 169000,
      "d": 500,
      "v": 127
    },
    {
      "midi": 56,
      "hit": false,
      "t": 169500,
      "d": 500,
      "v": 127
    },
    {
      "midi": 54,
      "hit": false,
      "t": 169500,
      "d": 1000,
      "v": 127
    },
    {
      "midi": 63,
      "hit": false,
      "t": 170000,
      "d": 1000,
      "v": 127
    },
    {
      "midi": 75,
      "hit": false,
      "t": 170000,
      "d": 1000,
      "v": 127
    },
    {
      "midi": 54,
      "hit": false,
      "t": 170500,
      "d": 500,
      "v": 127
    },
    {
      "midi": 56,
      "hit": false,
      "t": 170500,
      "d": 500,
      "v": 127
    },
    {
      "midi": 75,
      "hit": false,
      "t": 171000,
      "d": 500,
      "v": 127
    },
    {
      "midi": 53,
      "hit": false,
      "t": 171000,
      "d": 500,
      "v": 127
    },
    {
      "midi": 58,
      "hit": false,
      "t": 171500,
      "d": 500,
      "v": 127
    },
    {
      "midi": 54,
      "hit": false,
      "t": 171500,
      "d": 1000,
      "v": 127
    },
    {
      "midi": 60,
      "hit": false,
      "t": 172000,
      "d": 500,
      "v": 127
    },
    {
      "midi": 56,
      "hit": false,
      "t": 172500,
      "d": 500,
      "v": 127
    },
    {
      "midi": 54,
      "hit": false,
      "t": 172500,
      "d": 1000,
      "v": 127
    },
    {
      "midi": 68,
      "hit": false,
      "t": 173000,
      "d": 500,
      "v": 127
    },
    {
      "midi": 56,
      "hit": false,
      "t": 173500,
      "d": 500,
      "v": 127
    },
    {
      "midi": 54,
      "hit": false,
      "t": 173500,
      "d": 500,
      "v": 127
    },
    {
      "midi": 67,
      "hit": false,
      "t": 174000,
      "d": 500,
      "v": 127
    },
    {
      "midi": 53,
      "hit": false,
      "t": 174000,
      "d": 500,
      "v": 127
    },
    {
      "midi": 58,
      "hit": false,
      "t": 174500,
      "d": 500,
      "v": 127
    },
    {
      "midi": 54,
      "hit": false,
      "t": 174500,
      "d": 1000,
      "v": 127
    },
    {
      "midi": 60,
      "hit": false,
      "t": 175000,
      "d": 500,
      "v": 127
    },
    {
      "midi": 56,
      "hit": false,
      "t": 175500,
      "d": 500,
      "v": 127
    },
    {
      "midi": 54,
      "hit": false,
      "t": 175500,
      "d": 1000,
      "v": 127
    },
    {
      "midi": 66,
      "hit": false,
      "t": 176000,
      "d": 500,
      "v": 127
    },
    {
      "midi": 56,
      "hit": false,
      "t": 176500,
      "d": 500,
      "v": 127
    },
    {
      "midi": 54,
      "hit": false,
      "t": 176500,
      "d": 500,
      "v": 127
    },
    {
      "midi": 65,
      "hit": false,
      "t": 177000,
      "d": 500,
      "v": 127
    },
    {
      "midi": 37,
      "hit": false,
      "t": 177000,
      "d": 500,
      "v": 127
    },
    {
      "midi": 58,
      "hit": false,
      "t": 177500,
      "d": 500,
      "v": 127
    },
    {
      "midi": 54,
      "hit": false,
      "t": 177500,
      "d": 1000,
      "v": 127
    },
    {
      "midi": 63,
      "hit": false,
      "t": 178000,
      "d": 500,
      "v": 127
    },
    {
      "midi": 56,
      "hit": false,
      "t": 178500,
      "d": 500,
      "v": 127
    },
    {
      "midi": 54,
      "hit": false,
      "t": 178500,
      "d": 1000,
      "v": 127
    },
    {
      "midi": 66,
      "hit": false,
      "t": 179000,
      "d": 500,
      "v": 127
    },
    {
      "midi": 56,
      "hit": false,
      "t": 179500,
      "d": 500,
      "v": 127
    },
    {
      "midi": 54,
      "hit": false,
      "t": 179500,
      "d": 500,
      "v": 127
    },
    {
      "midi": 65,
      "hit": false,
      "t": 180000,
      "d": 500,
      "v": 127
    },
    {
      "midi": 45,
      "hit": false,
      "t": 180000,
      "d": 500,
      "v": 127
    },
    {
      "midi": 58,
      "hit": false,
      "t": 180500,
      "d": 500,
      "v": 127
    },
    {
      "midi": 54,
      "hit": false,
      "t": 180500,
      "d": 1000,
      "v": 127
    },
    {
      "midi": 63,
      "hit": false,
      "t": 181000,
      "d": 500,
      "v": 127
    },
    {
      "midi": 56,
      "hit": false,
      "t": 181500,
      "d": 500,
      "v": 127
    },
    {
      "midi": 54,
      "hit": false,
      "t": 181500,
      "d": 1000,
      "v": 127
    },
    {
      "midi": 66,
      "hit": false,
      "t": 182000,
      "d": 500,
      "v": 127
    },
    {
      "midi": 56,
      "hit": false,
      "t": 182500,
      "d": 500,
      "v": 127
    },
    {
      "midi": 54,
      "hit": false,
      "t": 182500,
      "d": 500,
      "v": 127
    },
    {
      "midi": 65,
      "hit": false,
      "t": 183000,
      "d": 500,
      "v": 127
    },
    {
      "midi": 42,
      "hit": false,
      "t": 183000,
      "d": 3000,
      "v": 127
    },
    {
      "midi": 54,
      "hit": false,
      "t": 183000,
      "d": 3000,
      "v": 127
    },
    {
      "midi": 58,
      "hit": false,
      "t": 183500,
      "d": 500,
      "v": 127
    },
    {
      "midi": 63,
      "hit": false,
      "t": 184000,
      "d": 500,
      "v": 127
    },
    {
      "midi": 56,
      "hit": false,
      "t": 184500,
      "d": 500,
      "v": 127
    },
    {
      "midi": 66,
      "hit": false,
      "t": 185000,
      "d": 500,
      "v": 127
    },
    {
      "midi": 56,
      "hit": false,
      "t": 185500,
      "d": 500,
      "v": 127
    },
    {
      "midi": 65,
      "hit": false,
      "t": 186000,
      "d": 500,
      "v": 127
    },
    {
      "midi": 53,
      "hit": false,
      "t": 186000,
      "d": 500,
      "v": 127
    },
    {
      "midi": 58,
      "hit": false,
      "t": 186500,
      "d": 500,
      "v": 127
    },
    {
      "midi": 54,
      "hit": false,
      "t": 186500,
      "d": 1000,
      "v": 127
    },
    {
      "midi": 63,
      "hit": false,
      "t": 187000,
      "d": 500,
      "v": 127
    },
    {
      "midi": 57,
      "hit": false,
      "t": 187500,
      "d": 500,
      "v": 127
    },
    {
      "midi": 54,
      "hit": false,
      "t": 187500,
      "d": 1000,
      "v": 127
    },
    {
      "midi": 63,
      "hit": false,
      "t": 188000,
      "d": 500,
      "v": 127
    },
    {
      "midi": 57,
      "hit": false,
      "t": 188500,
      "d": 500,
      "v": 127
    },
    {
      "midi": 54,
      "hit": false,
      "t": 188500,
      "d": 500,
      "v": 127
    },
    {
      "midi": 63,
      "hit": false,
      "t": 189000,
      "d": 500,
      "v": 127
    },
    {
      "midi": 49,
      "hit": false,
      "t": 189000,
      "d": 2000,
      "v": 127
    },
    {
      "midi": 54,
      "hit": false,
      "t": 189000,
      "d": 2000,
      "v": 127
    },
    {
      "midi": 61,
      "hit": false,
      "t": 189500,
      "d": 500,
      "v": 127
    },
    {
      "midi": 60,
      "hit": false,
      "t": 190000,
      "d": 500,
      "v": 127
    },
    {
      "midi": 61,
      "hit": false,
      "t": 190500,
      "d": 500,
      "v": 127
    },
    {
      "midi": 60,
      "hit": false,
      "t": 191000,
      "d": 500,
      "v": 127
    },
    {
      "midi": 50,
      "hit": false,
      "t": 191000,
      "d": 1000,
      "v": 127
    },
    {
      "midi": 53,
      "hit": false,
      "t": 191000,
      "d": 1000,
      "v": 127
    },
    {
      "midi": 58,
      "hit": false,
      "t": 191500,
      "d": 500,
      "v": 127
    },
    {
      "midi": 57,
      "hit": false,
      "t": 192000,
      "d": 500,
      "v": 127
    },
    {
      "midi": 58,
      "hit": false,
      "t": 192500,
      "d": 500,
      "v": 127
    },
    {
      "midi": 61,
      "hit": false,
      "t": 193000,
      "d": 500,
      "v": 127
    },
    {
      "midi": 44,
      "hit": false,
      "t": 193000,
      "d": 2000,
      "v": 127
    },
    {
      "midi": 51,
      "hit": false,
      "t": 193000,
      "d": 2000,
      "v": 127
    },
    {
      "midi": 60,
      "hit": false,
      "t": 193500,
      "d": 500,
      "v": 127
    },
    {
      "midi": 60,
      "hit": false,
      "t": 194000,
      "d": 500,
      "v": 127
    },
    {
      "midi": 58,
      "hit": false,
      "t": 194500,
      "d": 500,
      "v": 127
    },
    {
      "midi": 56,
      "hit": false,
      "t": 195000,
      "d": 1000,
      "v": 127
    },
    {
      "midi": 60,
      "hit": false,
      "t": 195000,
      "d": 1000,
      "v": 127
    },
    {
      "midi": 54,
      "hit": false,
      "t": 196000,
      "d": 1000,
      "v": 127
    },
    {
      "midi": 61,
      "hit": false,
      "t": 196000,
      "d": 1000,
      "v": 127
    },
    {
      "midi": 54,
      "hit": false,
      "t": 197000,
      "d": 1000,
      "v": 127
    },
    {
      "midi": 61,
      "hit": false,
      "t": 197000,
      "d": 1000,
      "v": 127
    },
    {
      "midi": 38,
      "hit": false,
      "t": 197000,
      "d": 1000,
      "v": 127
    },
    {
      "midi": 50,
      "hit": false,
      "t": 197000,
      "d": 1000,
      "v": 127
    },
    {
      "midi": 53,
      "hit": false,
      "t": 199000,
      "d": 2000,
      "v": 127
    },
    {
      "midi": 61,
      "hit": false,
      "t": 199000,
      "d": 2000,
      "v": 127
    },
    {
      "midi": 44,
      "hit": false,
      "t": 199000,
      "d": 2000,
      "v": 127
    },
    {
      "midi": 49,
      "hit": false,
      "t": 199000,
      "d": 2000,
      "v": 127
    },
    {
      "midi": 54,
      "hit": false,
      "t": 201000,
      "d": 2000,
      "v": 127
    },
    {
      "midi": 61,
      "hit": false,
      "t": 201000,
      "d": 2000,
      "v": 127
    },
    {
      "midi": 45,
      "hit": false,
      "t": 201000,
      "d": 2000,
      "v": 127
    },
    {
      "midi": 50,
      "hit": false,
      "t": 201000,
      "d": 2000,
      "v": 127
    },
    {
      "midi": 54,
      "hit": false,
      "t": 203000,
      "d": 1000,
      "v": 127
    },
    {
      "midi": 56,
      "hit": false,
      "t": 203000,
      "d": 1000,
      "v": 127
    },
    {
      "midi": 61,
      "hit": false,
      "t": 203000,
      "d": 1000,
      "v": 127
    },
    {
      "midi": 47,
      "hit": false,
      "t": 203000,
      "d": 1000,
      "v": 127
    },
    {
      "midi": 51,
      "hit": false,
      "t": 203000,
      "d": 1000,
      "v": 127
    }
  ]
}