{
  "jsonPath": "Unknown/Unknown/R Kumar/prelude.json",
  "path": "Unknown\\Unknown\\R Kumar\\Prelude.mid",
  "name": "Prelude",
  "difficulty": "Advanced",
  "bpm": 60,
  "notes": [
    {
      "midi": 62,
      "hit": false,
      "t": 0,
      "d": 1000,
      "v": 127
    },
    {
      "midi": 66,
      "hit": false,
      "t": 0,
      "d": 1000,
      "v": 127
    },
    {
      "midi": 70,
      "hit": false,
      "t": 0,
      "d": 1000,
      "v": 127
    },
    {
      "midi": 58,
      "hit": false,
      "t": 0,
      "d": 1000,
      "v": 127
    },
    {
      "midi": 62,
      "hit": false,
      "t": 1000,
      "d": 1000,
      "v": 127
    },
    {
      "midi": 66,
      "hit": false,
      "t": 1000,
      "d": 1000,
      "v": 127
    },
    {
      "midi": 70,
      "hit": false,
      "t": 1000,
      "d": 1000,
      "v": 127
    },
    {
      "midi": 54,
      "hit": false,
      "t": 1000,
      "d": 1000,
      "v": 127
    },
    {
      "midi": 62,
      "hit": false,
      "t": 2000,
      "d": 1000,
      "v": 127
    },
    {
      "midi": 66,
      "hit": false,
      "t": 2000,
      "d": 1000,
      "v": 127
    },
    {
      "midi": 70,
      "hit": false,
      "t": 2000,
      "d": 1000,
      "v": 127
    },
    {
      "midi": 49,
      "hit": false,
      "t": 2000,
      "d": 1000,
      "v": 127
    },
    {
      "midi": 62,
      "hit": false,
      "t": 3000,
      "d": 3000,
      "v": 127
    },
    {
      "midi": 66,
      "hit": false,
      "t": 3000,
      "d": 3000,
      "v": 127
    },
    {
      "midi": 70,
      "hit": false,
      "t": 3000,
      "d": 3000,
      "v": 127
    },
    {
      "midi": 42,
      "hit": false,
      "t": 3000,
      "d": 3000,
      "v": 127
    },
    {
      "midi": 59,
      "hit": false,
      "t": 6000,
      "d": 1000,
      "v": 127
    },
    {
      "midi": 66,
      "hit": false,
      "t": 6000,
      "d": 1000,
      "v": 127
    },
    {
      "midi": 68,
      "hit": false,
      "t": 6000,
      "d": 1000,
      "v": 127
    },
    {
      "midi": 58,
      "hit": false,
      "t": 6000,
      "d": 1000,
      "v": 127
    },
    {
      "midi": 59,
      "hit": false,
      "t": 7000,
      "d": 1000,
      "v": 127
    },
    {
      "midi": 66,
      "hit": false,
      "t": 7000,
      "d": 1000,
      "v": 127
    },
    {
      "midi": 68,
      "hit": false,
      "t": 7000,
      "d": 1000,
      "v": 127
    },
    {
      "midi": 56,
      "hit": false,
      "t": 7000,
      "d": 1000,
      "v": 127
    },
    {
      "midi": 59,
      "hit": false,
      "t": 8000,
      "d": 1000,
      "v": 127
    },
    {
      "midi": 66,
      "hit": false,
      "t": 8000,
      "d": 1000,
      "v": 127
    },
    {
      "midi": 68,
      "hit": false,
      "t": 8000,
      "d": 1000,
      "v": 127
    },
    {
      "midi": 51,
      "hit": false,
      "t": 8000,
      "d": 1000,
      "v": 127
    },
    {
      "midi": 68,
      "hit": false,
      "t": 9000,
      "d": 2000,
      "v": 127
    },
    {
      "midi": 37,
      "hit": false,
      "t": 9000,
      "d": 2000,
      "v": 127
    },
    {
      "midi": 65,
      "hit": false,
      "t": 11000,
      "d": 1000,
      "v": 127
    },
    {
      "midi": 53,
      "hit": false,
      "t": 11000,
      "d": 1000,
      "v": 127
    },
    {
      "midi": 59,
      "hit": false,
      "t": 12000,
      "d": 1000,
      "v": 127
    },
    {
      "midi": 64,
      "hit": false,
      "t": 12000,
      "d": 1000,
      "v": 127
    },
    {
      "midi": 68,
      "hit": false,
      "t": 12000,
      "d": 1000,
      "v": 127
    },
    {
      "midi": 54,
      "hit": false,
      "t": 12000,
      "d": 1000,
      "v": 127
    },
    {
      "midi": 59,
      "hit": false,
      "t": 13000,
      "d": 1000,
      "v": 127
    },
    {
      "midi": 64,
      "hit": false,
      "t": 13000,
      "d": 1000,
      "v": 127
    },
    {
      "midi": 68,
      "hit": false,
      "t": 13000,
      "d": 1000,
      "v": 127
    },
    {
      "midi": 49,
      "hit": false,
      "t": 13000,
      "d": 1000,
      "v": 127
    },
    {
      "midi": 59,
      "hit": false,
      "t": 14000,
      "d": 1000,
      "v": 127
    },
    {
      "midi": 64,
      "hit": false,
      "t": 14000,
      "d": 1000,
      "v": 127
    },
    {
      "midi": 68,
      "hit": false,
      "t": 14000,
      "d": 1000,
      "v": 127
    },
    {
      "midi": 51,
      "hit": false,
      "t": 14000,
      "d": 1000,
      "v": 127
    },
    {
      "midi": 58,
      "hit": false,
      "t": 15000,
      "d": 2000,
      "v": 127
    },
    {
      "midi": 63,
      "hit": false,
      "t": 15000,
      "d": 2000,
      "v": 127
    },
    {
      "midi": 68,
      "hit": false,
      "t": 15000,
      "d": 2000,
      "v": 127
    },
    {
      "midi": 52,
      "hit": false,
      "t": 15000,
      "d": 2000,
      "v": 127
    },
    {
      "midi": 58,
      "hit": false,
      "t": 17000,
      "d": 1000,
      "v": 127
    },
    {
      "midi": 63,
      "hit": false,
      "t": 17000,
      "d": 1000,
      "v": 127
    },
    {
      "midi": 66,
      "hit": false,
      "t": 17000,
      "d": 1000,
      "v": 127
    },
    {
      "midi": 52,
      "hit": false,
      "t": 17000,
      "d": 1000,
      "v": 127
    },
    {
      "midi": 59,
      "hit": false,
      "t": 18000,
      "d": 1000,
      "v": 127
    },
    {
      "midi": 63,
      "hit": false,
      "t": 18000,
      "d": 1000,
      "v": 127
    },
    {
      "midi": 66,
      "hit": false,
      "t": 18000,
      "d": 1000,
      "v": 127
    },
    {
      "midi": 35,
      "hit": false,
      "t": 18000,
      "d": 1000,
      "v": 127
    },
    {
      "midi": 53,
      "hit": false,
      "t": 18000,
      "d": 1000,
      "v": 127
    },
    {
      "midi": 59,
      "hit": false,
      "t": 19000,
      "d": 1000,
      "v": 127
    },
    {
      "midi": 63,
      "hit": false,
      "t": 19000,
      "d": 1000,
      "v": 127
    },
    {
      "midi": 66,
      "hit": false,
      "t": 19000,
      "d": 1000,
      "v": 127
    },
    {
      "midi": 53,
      "hit": false,
      "t": 19000,
      "d": 1000,
      "v": 127
    },
    {
      "midi": 59,
      "hit": false,
      "t": 20000,
      "d": 1000,
      "v": 127
    },
    {
      "midi": 63,
      "hit": false,
      "t": 20000,
      "d": 1000,
      "v": 127
    },
    {
      "midi": 66,
      "hit": false,
      "t": 20000,
      "d": 1000,
      "v": 127
    },
    {
      "midi": 53,
      "hit": false,
      "t": 20000,
      "d": 1000,
      "v": 127
    },
    {
      "midi": 57,
      "hit": false,
      "t": 21000,
      "d": 1000,
      "v": 127
    },
    {
      "midi": 63,
      "hit": false,
      "t": 21000,
      "d": 1000,
      "v": 127
    },
    {
      "midi": 66,
      "hit": false,
      "t": 21000,
      "d": 1000,
      "v": 127
    },
    {
      "midi": 54,
      "hit": false,
      "t": 21000,
      "d": 1000,
      "v": 127
    },
    {
      "midi": 57,
      "hit": false,
      "t": 22000,
      "d": 1000,
      "v": 127
    },
    {
      "midi": 63,
      "hit": false,
      "t": 22000,
      "d": 1000,
      "v": 127
    },
    {
      "midi": 68,
      "hit": false,
      "t": 22000,
      "d": 1000,
      "v": 127
    },
    {
      "midi": 54,
      "hit": false,
      "t": 22000,
      "d": 1000,
      "v": 127
    },
    {
      "midi": 57,
      "hit": false,
      "t": 23000,
      "d": 1000,
      "v": 127
    },
    {
      "midi": 63,
      "hit": false,
      "t": 23000,
      "d": 1000,
      "v": 127
    },
    {
      "midi": 66,
      "hit": false,
      "t": 23000,
      "d": 1000,
      "v": 127
    },
    {
      "midi": 54,
      "hit": false,
      "t": 23000,
      "d": 1000,
      "v": 127
    },
    {
      "midi": 57,
      "hit": false,
      "t": 24000,
      "d": 1000,
      "v": 127
    },
    {
      "midi": 62,
      "hit": false,
      "t": 24000,
      "d": 1000,
      "v": 127
    },
    {
      "midi": 66,
      "hit": false,
      "t": 24000,
      "d": 1000,
      "v": 127
    },
    {
      "midi": 52,
      "hit": false,
      "t": 24000,
      "d": 1000,
      "v": 127
    },
    {
      "midi": 57,
      "hit": false,
      "t": 25000,
      "d": 1000,
      "v": 127
    },
    {
      "midi": 62,
      "hit": false,
      "t": 25000,
      "d": 1000,
      "v": 127
    },
    {
      "midi": 66,
      "hit": false,
      "t": 25000,
      "d": 1000,
      "v": 127
    },
    {
      "midi": 47,
      "hit": false,
      "t": 25000,
      "d": 1000,
      "v": 127
    },
    {
      "midi": 57,
      "hit": false,
      "t": 26000,
      "d": 1000,
      "v": 127
    },
    {
      "midi": 62,
      "hit": false,
      "t": 26000,
      "d": 1000,
      "v": 127
    },
    {
      "midi": 66,
      "hit": false,
      "t": 26000,
      "d": 1000,
      "v": 127
    },
    {
      "midi": 49,
      "hit": false,
      "t": 26000,
      "d": 1000,
      "v": 127
    },
    {
      "midi": 56,
      "hit": false,
      "t": 27000,
      "d": 2000,
      "v": 127
    },
    {
      "midi": 61,
      "hit": false,
      "t": 27000,
      "d": 2000,
      "v": 127
    },
    {
      "midi": 66,
      "hit": false,
      "t": 27000,
      "d": 2000,
      "v": 127
    },
    {
      "midi": 50,
      "hit": false,
      "t": 27000,
      "d": 2000,
      "v": 127
    },
    {
      "midi": 56,
      "hit": false,
      "t": 29000,
      "d": 1000,
      "v": 127
    },
    {
      "midi": 61,
      "hit": false,
      "t": 29000,
      "d": 1000,
      "v": 127
    },
    {
      "midi": 64,
      "hit": false,
      "t": 29000,
      "d": 1000,
      "v": 127
    },
    {
      "midi": 50,
      "hit": false,
      "t": 29000,
      "d": 1000,
      "v": 127
    },
    {
      "midi": 55,
      "hit": false,
      "t": 30000,
      "d": 1000,
      "v": 127
    },
    {
      "midi": 59,
      "hit": false,
      "t": 30000,
      "d": 1000,
      "v": 127
    },
    {
      "midi": 61,
      "hit": false,
      "t": 30000,
      "d": 1000,
      "v": 127
    },
    {
      "midi": 52,
      "hit": false,
      "t": 30000,
      "d": 1000,
      "v": 127
    },
    {
      "midi": 55,
      "hit": false,
      "t": 31000,
      "d": 1000,
      "v": 127
    },
    {
      "midi": 59,
      "hit": false,
      "t": 31000,
      "d": 1000,
      "v": 127
    },
    {
      "midi": 61,
      "hit": false,
      "t": 31000,
      "d": 1000,
      "v": 127
    },
    {
      "midi": 52,
      "hit": false,
      "t": 31000,
      "d": 1000,
      "v": 127
    },
    {
      "midi": 55,
      "hit": false,
      "t": 32000,
      "d": 1000,
      "v": 127
    },
    {
      "midi": 59,
      "hit": false,
      "t": 32000,
      "d": 1000,
      "v": 127
    },
    {
      "midi": 61,
      "hit": false,
      "t": 32000,
      "d": 1000,
      "v": 127
    },
    {
      "midi": 52,
      "hit": false,
      "t": 32000,
      "d": 1000,
      "v": 127
    },
    {
      "midi": 54,
      "hit": false,
      "t": 33000,
      "d": 2000,
      "v": 127
    },
    {
      "midi": 58,
      "hit": false,
      "t": 33000,
      "d": 2000,
      "v": 127
    },
    {
      "midi": 61,
      "hit": false,
      "t": 33000,
      "d": 2000,
      "v": 127
    },
    {
      "midi": 40,
      "hit": false,
      "t": 33000,
      "d": 2000,
      "v": 127
    },
    {
      "midi": 54,
      "hit": false,
      "t": 35000,
      "d": 1000,
      "v": 127
    },
    {
      "midi": 58,
      "hit": false,
      "t": 35000,
      "d": 1000,
      "v": 127
    },
    {
      "midi": 63,
      "hit": false,
      "t": 35000,
      "d": 1000,
      "v": 127
    },
    {
      "midi": 40,
      "hit": false,
      "t": 35000,
      "d": 1000,
      "v": 127
    },
    {
      "midi": 55,
      "hit": false,
      "t": 36000,
      "d": 1000,
      "v": 127
    },
    {
      "midi": 59,
      "hit": false,
      "t": 36000,
      "d": 1000,
      "v": 127
    },
    {
      "midi": 63,
      "hit": false,
      "t": 36000,
      "d": 1000,
      "v": 127
    },
    {
      "midi": 51,
      "hit": false,
      "t": 36000,
      "d": 1000,
      "v": 127
    },
    {
      "midi": 55,
      "hit": false,
      "t": 37000,
      "d": 1000,
      "v": 127
    },
    {
      "midi": 59,
      "hit": false,
      "t": 37000,
      "d": 1000,
      "v": 127
    },
    {
      "midi": 63,
      "hit": false,
      "t": 37000,
      "d": 1000,
      "v": 127
    },
    {
      "midi": 47,
      "hit": false,
      "t": 37000,
      "d": 1000,
      "v": 127
    },
    {
      "midi": 55,
      "hit": false,
      "t": 38000,
      "d": 1000,
      "v": 127
    },
    {
      "midi": 59,
      "hit": false,
      "t": 38000,
      "d": 1000,
      "v": 127
    },
    {
      "midi": 63,
      "hit": false,
      "t": 38000,
      "d": 1000,
      "v": 127
    },
    {
      "midi": 42,
      "hit": false,
      "t": 38000,
      "d": 1000,
      "v": 127
    },
    {
      "midi": 55,
      "hit": false,
      "t": 39000,
      "d": 3000,
      "v": 127
    },
    {
      "midi": 59,
      "hit": false,
      "t": 39000,
      "d": 3000,
      "v": 127
    },
    {
      "midi": 63,
      "hit": false,
      "t": 39000,
      "d": 3000,
      "v": 127
    },
    {
      "midi": 35,
      "hit": false,
      "t": 39000,
      "d": 3000,
      "v": 127
    },
    {
      "midi": 52,
      "hit": false,
      "t": 42000,
      "d": 1000,
      "v": 127
    },
    {
      "midi": 56,
      "hit": false,
      "t": 42000,
      "d": 1000,
      "v": 127
    },
    {
      "midi": 61,
      "hit": false,
      "t": 42000,
      "d": 1000,
      "v": 127
    },
    {
      "midi": 75,
      "hit": false,
      "t": 42000,
      "d": 1000,
      "v": 127
    },
    {
      "midi": 52,
      "hit": false,
      "t": 43000,
      "d": 1000,
      "v": 127
    },
    {
      "midi": 56,
      "hit": false,
      "t": 43000,
      "d": 1000,
      "v": 127
    },
    {
      "midi": 61,
      "hit": false,
      "t": 43000,
      "d": 1000,
      "v": 127
    },
    {
      "midi": 73,
      "hit": false,
      "t": 43000,
      "d": 1000,
      "v": 127
    },
    {
      "midi": 52,
      "hit": false,
      "t": 44000,
      "d": 1000,
      "v": 127
    },
    {
      "midi": 56,
      "hit": false,
      "t": 44000,
      "d": 1000,
      "v": 127
    },
    {
      "midi": 61,
      "hit": false,
      "t": 44000,
      "d": 1000,
      "v": 127
    },
    {
      "midi": 68,
      "hit": false,
      "t": 44000,
      "d": 1000,
      "v": 127
    },
    {
      "midi": 52,
      "hit": false,
      "t": 45000,
      "d": 2000,
      "v": 127
    },
    {
      "midi": 55,
      "hit": false,
      "t": 45000,
      "d": 2000,
      "v": 127
    },
    {
      "midi": 61,
      "hit": false,
      "t": 45000,
      "d": 2000,
      "v": 127
    },
    {
      "midi": 71,
      "hit": false,
      "t": 45000,
      "d": 2000,
      "v": 127
    },
    {
      "midi": 51,
      "hit": false,
      "t": 47000,
      "d": 1000,
      "v": 127
    },
    {
      "midi": 55,
      "hit": false,
      "t": 47000,
      "d": 1000,
      "v": 127
    },
    {
      "midi": 61,
      "hit": false,
      "t": 47000,
      "d": 1000,
      "v": 127
    },
    {
      "midi": 70,
      "hit": false,
      "t": 47000,
      "d": 1000,
      "v": 127
    },
    {
      "midi": 51,
      "hit": false,
      "t": 48000,
      "d": 1000,
      "v": 127
    },
    {
      "midi": 54,
      "hit": false,
      "t": 48000,
      "d": 1000,
      "v": 127
    },
    {
      "midi": 60,
      "hit": false,
      "t": 48000,
      "d": 1000,
      "v": 127
    },
    {
      "midi": 69,
      "hit": false,
      "t": 48000,
      "d": 1000,
      "v": 127
    },
    {
      "midi": 51,
      "hit": false,
      "t": 49000,
      "d": 1000,
      "v": 127
    },
    {
      "midi": 54,
      "hit": false,
      "t": 49000,
      "d": 1000,
      "v": 127
    },
    {
      "midi": 60,
      "hit": false,
      "t": 49000,
      "d": 1000,
      "v": 127
    },
    {
      "midi": 64,
      "hit": false,
      "t": 49000,
      "d": 1000,
      "v": 127
    },
    {
      "midi": 51,
      "hit": false,
      "t": 50000,
      "d": 1000,
      "v": 127
    },
    {
      "midi": 54,
      "hit": false,
      "t": 50000,
      "d": 1000,
      "v": 127
    },
    {
      "midi": 60,
      "hit": false,
      "t": 50000,
      "d": 1000,
      "v": 127
    },
    {
      "midi": 66,
      "hit": false,
      "t": 50000,
      "d": 1000,
      "v": 127
    },
    {
      "midi": 51,
      "hit": false,
      "t": 51000,
      "d": 2000,
      "v": 127
    },
    {
      "midi": 54,
      "hit": false,
      "t": 51000,
      "d": 2000,
      "v": 127
    },
    {
      "midi": 59,
      "hit": false,
      "t": 51000,
      "d": 2000,
      "v": 127
    },
    {
      "midi": 67,
      "hit": false,
      "t": 51000,
      "d": 2000,
      "v": 127
    },
    {
      "midi": 51,
      "hit": false,
      "t": 53000,
      "d": 1000,
      "v": 127
    },
    {
      "midi": 54,
      "hit": false,
      "t": 53000,
      "d": 1000,
      "v": 127
    },
    {
      "midi": 59,
      "hit": false,
      "t": 53000,
      "d": 1000,
      "v": 127
    },
    {
      "midi": 69,
      "hit": false,
      "t": 53000,
      "d": 1000,
      "v": 127
    },
    {
      "midi": 48,
      "hit": false,
      "t": 54000,
      "d": 1000,
      "v": 127
    },
    {
      "midi": 54,
      "hit": false,
      "t": 54000,
      "d": 1000,
      "v": 127
    },
    {
      "midi": 57,
      "hit": false,
      "t": 54000,
      "d": 1000,
      "v": 127
    },
    {
      "midi": 66,
      "hit": false,
      "t": 54000,
      "d": 1000,
      "v": 127
    },
    {
      "midi": 48,
      "hit": false,
      "t": 55000,
      "d": 1000,
      "v": 127
    },
    {
      "midi": 52,
      "hit": false,
      "t": 55000,
      "d": 1000,
      "v": 127
    },
    {
      "midi": 42,
      "hit": false,
      "t": 55000,
      "d": 1000,
      "v": 127
    },
    {
      "midi": 48,
      "hit": false,
      "t": 56000,
      "d": 1000,
      "v": 127
    },
    {
      "midi": 54,
      "hit": false,
      "t": 56000,
      "d": 1000,
      "v": 127
    },
    {
      "midi": 42,
      "hit": false,
      "t": 56000,
      "d": 1000,
      "v": 127
    },
    {
      "midi": 51,
      "hit": false,
      "t": 57000,
      "d": 2000,
      "v": 127
    },
    {
      "midi": 55,
      "hit": false,
      "t": 57000,
      "d": 2000,
      "v": 127
    },
    {
      "midi": 47,
      "hit": false,
      "t": 57000,
      "d": 2000,
      "v": 127
    },
    {
      "midi": 51,
      "hit": false,
      "t": 59000,
      "d": 1000,
      "v": 127
    },
    {
      "midi": 57,
      "hit": false,
      "t": 59000,
      "d": 1000,
      "v": 127
    },
    {
      "midi": 47,
      "hit": false,
      "t": 59000,
      "d": 1000,
      "v": 127
    },
    {
      "midi": 59,
      "hit": false,
      "t": 60000,
      "d": 1000,
      "v": 127
    },
    {
      "midi": 68,
      "hit": false,
      "t": 60000,
      "d": 1000,
      "v": 127
    },
    {
      "midi": 52,
      "hit": false,
      "t": 60000,
      "d": 2000,
      "v": 127
    },
    {
      "midi": 56,
      "hit": false,
      "t": 61000,
      "d": 1000,
      "v": 127
    },
    {
      "midi": 64,
      "hit": false,
      "t": 61000,
      "d": 1000,
      "v": 127
    },
    {
      "midi": 59,
      "hit": false,
      "t": 62000,
      "d": 1000,
      "v": 127
    },
    {
      "midi": 52,
      "hit": false,
      "t": 62000,
      "d": 1000,
      "v": 127
    },
    {
      "midi": 40,
      "hit": false,
      "t": 63000,
      "d": 3000,
      "v": 127
    },
    {
      "midi": 52,
      "hit": false,
      "t": 63000,
      "d": 3000,
      "v": 127
    },
    {
      "midi": 68,
      "hit": false,
      "t": 66000,
      "d": 1000,
      "v": 127
    },
    {
      "midi": 45,
      "hit": false,
      "t": 66000,
      "d": 1000,
      "v": 127
    },
    {
      "midi": 66,
      "hit": false,
      "t": 67000,
      "d": 1000,
      "v": 127
    },
    {
      "midi": 57,
      "hit": false,
      "t": 67000,
      "d": 1000,
      "v": 127
    },
    {
      "midi": 61,
      "hit": false,
      "t": 68000,
      "d": 1000,
      "v": 127
    },
    {
      "midi": 52,
      "hit": false,
      "t": 68000,
      "d": 1000,
      "v": 127
    },
    {
      "midi": 64,
      "hit": false,
      "t": 69000,
      "d": 2000,
      "v": 127
    },
    {
      "midi": 47,
      "hit": false,
      "t": 69000,
      "d": 1000,
      "v": 127
    },
    {
      "midi": 59,
      "hit": false,
      "t": 70000,
      "d": 1000,
      "v": 127
    },
    {
      "midi": 63,
      "hit": false,
      "t": 71000,
      "d": 1000,
      "v": 127
    },
    {
      "midi": 57,
      "hit": false,
      "t": 71000,
      "d": 1000,
      "v": 127
    },
    {
      "midi": 64,
      "hit": false,
      "t": 72000,
      "d": 1000,
      "v": 127
    },
    {
      "midi": 56,
      "hit": false,
      "t": 72000,
      "d": 1000,
      "v": 127
    },
    {
      "midi": 59,
      "hit": false,
      "t": 73000,
      "d": 1000,
      "v": 127
    },
    {
      "midi": 52,
      "hit": false,
      "t": 73000,
      "d": 1000,
      "v": 127
    },
    {
      "midi": 61,
      "hit": false,
      "t": 74000,
      "d": 1000,
      "v": 127
    },
    {
      "midi": 47,
      "hit": false,
      "t": 74000,
      "d": 1000,
      "v": 127
    },
    {
      "midi": 54,
      "hit": false,
      "t": 75000,
      "d": 2000,
      "v": 127
    },
    {
      "midi": 62,
      "hit": false,
      "t": 75000,
      "d": 2000,
      "v": 127
    },
    {
      "midi": 40,
      "hit": false,
      "t": 75000,
      "d": 1000,
      "v": 127
    },
    {
      "midi": 47,
      "hit": false,
      "t": 76000,
      "d": 2000,
      "v": 127
    },
    {
      "midi": 56,
      "hit": false,
      "t": 77000,
      "d": 1000,
      "v": 127
    },
    {
      "midi": 64,
      "hit": false,
      "t": 77000,
      "d": 1000,
      "v": 127
    },
    {
      "midi": 57,
      "hit": false,
      "t": 78000,
      "d": 2000,
      "v": 127
    },
    {
      "midi": 61,
      "hit": false,
      "t": 78000,
      "d": 2000,
      "v": 127
    },
    {
      "midi": 56,
      "hit": false,
      "t": 78000,
      "d": 1000,
      "v": 127
    },
    {
      "midi": 54,
      "hit": false,
      "t": 79000,
      "d": 1000,
      "v": 127
    },
    {
      "midi": 59,
      "hit": false,
      "t": 80000,
      "d": 1000,
      "v": 127
    },
    {
      "midi": 64,
      "hit": false,
      "t": 80000,
      "d": 1000,
      "v": 127
    },
    {
      "midi": 49,
      "hit": false,
      "t": 80000,
      "d": 1000,
      "v": 127
    },
    {
      "midi": 55,
      "hit": false,
      "t": 81000,
      "d": 2000,
      "v": 127
    },
    {
      "midi": 61,
      "hit": false,
      "t": 81000,
      "d": 2000,
      "v": 127
    },
    {
      "midi": 52,
      "hit": false,
      "t": 81000,
      "d": 2000,
      "v": 127
    },
    {
      "midi": 55,
      "hit": false,
      "t": 83000,
      "d": 1000,
      "v": 127
    },
    {
      "midi": 63,
      "hit": false,
      "t": 83000,
      "d": 1000,
      "v": 127
    },
    {
      "midi": 51,
      "hit": false,
      "t": 83000,
      "d": 1000,
      "v": 127
    },
    {
      "midi": 55,
      "hit": false,
      "t": 84000,
      "d": 1000,
      "v": 127
    },
    {
      "midi": 59,
      "hit": false,
      "t": 84000,
      "d": 1000,
      "v": 127
    },
    {
      "midi": 63,
      "hit": false,
      "t": 84000,
      "d": 1000,
      "v": 127
    },
    {
      "midi": 55,
      "hit": false,
      "t": 85000,
      "d": 1000,
      "v": 127
    },
    {
      "midi": 59,
      "hit": false,
      "t": 85000,
      "d": 1000,
      "v": 127
    },
    {
      "midi": 63,
      "hit": false,
      "t": 85000,
      "d": 1000,
      "v": 127
    },
    {
      "midi": 51,
      "hit": false,
      "t": 85000,
      "d": 1000,
      "v": 127
    },
    {
      "midi": 55,
      "hit": false,
      "t": 86000,
      "d": 1000,
      "v": 127
    },
    {
      "midi": 59,
      "hit": false,
      "t": 86000,
      "d": 1000,
      "v": 127
    },
    {
      "midi": 63,
      "hit": false,
      "t": 86000,
      "d": 1000,
      "v": 127
    },
    {
      "midi": 46,
      "hit": false,
      "t": 86000,
      "d": 1000,
      "v": 127
    },
    {
      "midi": 56,
      "hit": false,
      "t": 87000,
      "d": 2000,
      "v": 127
    },
    {
      "midi": 59,
      "hit": false,
      "t": 87000,
      "d": 2000,
      "v": 127
    },
    {
      "midi": 63,
      "hit": false,
      "t": 87000,
      "d": 2000,
      "v": 127
    },
    {
      "midi": 53,
      "hit": false,
      "t": 87000,
      "d": 2000,
      "v": 127
    },
    {
      "midi": 56,
      "hit": false,
      "t": 89000,
      "d": 1000,
      "v": 127
    },
    {
      "midi": 59,
      "hit": false,
      "t": 89000,
      "d": 1000,
      "v": 127
    },
    {
      "midi": 65,
      "hit": false,
      "t": 89000,
      "d": 1000,
      "v": 127
    },
    {
      "midi": 55,
      "hit": false,
      "t": 89000,
      "d": 1000,
      "v": 127
    },
    {
      "midi": 63,
      "hit": false,
      "t": 90000,
      "d": 1000,
      "v": 127
    },
    {
      "midi": 67,
      "hit": false,
      "t": 90000,
      "d": 1000,
      "v": 127
    },
    {
      "midi": 56,
      "hit": false,
      "t": 90000,
      "d": 2000,
      "v": 127
    },
    {
      "midi": 63,
      "hit": false,
      "t": 91000,
      "d": 1000,
      "v": 127
    },
    {
      "midi": 63,
      "hit": false,
      "t": 92000,
      "d": 1000,
      "v": 127
    },
    {
      "midi": 58,
      "hit": false,
      "t": 92000,
      "d": 1000,
      "v": 127
    },
    {
      "midi": 65,
      "hit": false,
      "t": 93000,
      "d": 2000,
      "v": 127
    },
    {
      "midi": 59,
      "hit": false,
      "t": 93000,
      "d": 1000,
      "v": 127
    },
    {
      "midi": 49,
      "hit": false,
      "t": 94000,
      "d": 2000,
      "v": 127
    },
    {
      "midi": 58,
      "hit": false,
      "t": 95000,
      "d": 1000,
      "v": 127
    },
    {
      "midi": 61,
      "hit": false,
      "t": 95000,
      "d": 1000,
      "v": 127
    },
    {
      "midi": 67,
      "hit": false,
      "t": 95000,
      "d": 1000,
      "v": 127
    },
    {
      "midi": 68,
      "hit": false,
      "t": 96000,
      "d": 1000,
      "v": 127
    },
    {
      "midi": 53,
      "hit": false,
      "t": 96000,
      "d": 2000,
      "v": 127
    },
    {
      "midi": 68,
      "hit": false,
      "t": 97000,
      "d": 1000,
      "v": 127
    },
    {
      "midi": 63,
      "hit": false,
      "t": 98000,
      "d": 1000,
      "v": 127
    },
    {
      "midi": 54,
      "hit": false,
      "t": 98000,
      "d": 1000,
      "v": 127
    },
    {
      "midi": 70,
      "hit": false,
      "t": 99000,
      "d": 1000,
      "v": 127
    },
    {
      "midi": 56,
      "hit": false,
      "t": 99000,
      "d": 2000,
      "v": 127
    },
    {
      "midi": 68,
      "hit": false,
      "t": 100000,
      "d": 1000,
      "v": 127
    },
    {
      "midi": 63,
      "hit": false,
      "t": 101000,
      "d": 1000,
      "v": 127
    },
    {
      "midi": 58,
      "hit": false,
      "t": 101000,
      "d": 1000,
      "v": 127
    },
    {
      "midi": 70,
      "hit": false,
      "t": 102000,
      "d": 1000,
      "v": 127
    },
    {
      "midi": 59,
      "hit": false,
      "t": 102000,
      "d": 2000,
      "v": 127
    },
    {
      "midi": 70,
      "hit": false,
      "t": 103000,
      "d": 1000,
      "v": 127
    },
    {
      "midi": 65,
      "hit": false,
      "t": 104000,
      "d": 1000,
      "v": 127
    },
    {
      "midi": 49,
      "hit": false,
      "t": 104000,
      "d": 1000,
      "v": 127
    },
    {
      "midi": 65,
      "hit": false,
      "t": 105000,
      "d": 1000,
      "v": 127
    },
    {
      "midi": 72,
      "hit": false,
      "t": 105000,
      "d": 1000,
      "v": 127
    },
    {
      "midi": 61,
      "hit": false,
      "t": 105000,
      "d": 3000,
      "v": 127
    },
    {
      "midi": 68,
      "hit": false,
      "t": 106000,
      "d": 1000,
      "v": 127
    },
    {
      "midi": 73,
      "hit": false,
      "t": 106000,
      "d": 1000,
      "v": 127
    },
    {
      "midi": 71,
      "hit": false,
      "t": 107000,
      "d": 1000,
      "v": 127
    },
    {
      "midi": 75,
      "hit": false,
      "t": 107000,
      "d": 1000,
      "v": 127
    },
    {
      "midi": 66,
      "hit": false,
      "t": 108000,
      "d": 1000,
      "v": 127
    },
    {
      "midi": 70,
      "hit": false,
      "t": 108000,
      "d": 1000,
      "v": 127
    },
    {
      "midi": 77,
      "hit": false,
      "t": 108000,
      "d": 1000,
      "v": 127
    },
    {
      "midi": 58,
      "hit": false,
      "t": 108000,
      "d": 1000,
      "v": 127
    },
    {
      "midi": 65,
      "hit": false,
      "t": 109000,
      "d": 1000,
      "v": 127
    },
    {
      "midi": 70,
      "hit": false,
      "t": 109000,
      "d": 1000,
      "v": 127
    },
    {
      "midi": 77,
      "hit": false,
      "t": 109000,
      "d": 1000,
      "v": 127
    },
    {
      "midi": 54,
      "hit": false,
      "t": 109000,
      "d": 1000,
      "v": 127
    },
    {
      "midi": 65,
      "hit": false,
      "t": 110000,
      "d": 1000,
      "v": 127
    },
    {
      "midi": 70,
      "hit": false,
      "t": 110000,
      "d": 1000,
      "v": 127
    },
    {
      "midi": 77,
      "hit": false,
      "t": 110000,
      "d": 1000,
      "v": 127
    },
    {
      "midi": 49,
      "hit": false,
      "t": 110000,
      "d": 1000,
      "v": 127
    },
    {
      "midi": 65,
      "hit": false,
      "t": 111000,
      "d": 3000,
      "v": 127
    },
    {
      "midi": 70,
      "hit": false,
      "t": 111000,
      "d": 3000,
      "v": 127
    },
    {
      "midi": 77,
      "hit": false,
      "t": 111000,
      "d": 3000,
      "v": 127
    },
    {
      "midi": 42,
      "hit": false,
      "t": 111000,
      "d": 3000,
      "v": 127
    },
    {
      "midi": 63,
      "hit": false,
      "t": 114000,
      "d": 1000,
      "v": 127
    },
    {
      "midi": 71,
      "hit": false,
      "t": 114000,
      "d": 1000,
      "v": 127
    },
    {
      "midi": 75,
      "hit": false,
      "t": 114000,
      "d": 1000,
      "v": 127
    },
    {
      "midi": 58,
      "hit": false,
      "t": 114000,
      "d": 1000,
      "v": 127
    },
    {
      "midi": 63,
      "hit": false,
      "t": 115000,
      "d": 1000,
      "v": 127
    },
    {
      "midi": 68,
      "hit": false,
      "t": 115000,
      "d": 1000,
      "v": 127
    },
    {
      "midi": 71,
      "hit": false,
      "t": 115000,
      "d": 1000,
      "v": 127
    },
    {
      "midi": 75,
      "hit": false,
      "t": 115000,
      "d": 1000,
      "v": 127
    },
    {
      "midi": 56,
      "hit": false,
      "t": 115000,
      "d": 1000,
      "v": 127
    },
    {
      "midi": 63,
      "hit": false,
      "t": 116000,
      "d": 1000,
      "v": 127
    },
    {
      "midi": 68,
      "hit": false,
      "t": 116000,
      "d": 1000,
      "v": 127
    },
    {
      "midi": 71,
      "hit": false,
      "t": 116000,
      "d": 1000,
      "v": 127
    },
    {
      "midi": 75,
      "hit": false,
      "t": 116000,
      "d": 1000,
      "v": 127
    },
    {
      "midi": 51,
      "hit": false,
      "t": 116000,
      "d": 1000,
      "v": 127
    },
    {
      "midi": 63,
      "hit": false,
      "t": 117000,
      "d": 2000,
      "v": 127
    },
    {
      "midi": 66,
      "hit": false,
      "t": 117000,
      "d": 2000,
      "v": 127
    },
    {
      "midi": 71,
      "hit": false,
      "t": 117000,
      "d": 2000,
      "v": 127
    },
    {
      "midi": 75,
      "hit": false,
      "t": 117000,
      "d": 2000,
      "v": 127
    },
    {
      "midi": 37,
      "hit": false,
      "t": 117000,
      "d": 1000,
      "v": 127
    },
    {
      "midi": 61,
      "hit": false,
      "t": 118000,
      "d": 2000,
      "v": 127
    },
    {
      "midi": 65,
      "hit": false,
      "t": 119000,
      "d": 1000,
      "v": 127
    },
    {
      "midi": 73,
      "hit": false,
      "t": 119000,
      "d": 1000,
      "v": 127
    },
    {
      "midi": 64,
      "hit": false,
      "t": 120000,
      "d": 1000,
      "v": 127
    },
    {
      "midi": 69,
      "hit": false,
      "t": 120000,
      "d": 1000,
      "v": 127
    },
    {
      "midi": 76,
      "hit": false,
      "t": 120000,
      "d": 1000,
      "v": 127
    },
    {
      "midi": 54,
      "hit": false,
      "t": 120000,
      "d": 1000,
      "v": 127
    },
    {
      "midi": 64,
      "hit": false,
      "t": 121000,
      "d": 1000,
      "v": 127
    },
    {
      "midi": 69,
      "hit": false,
      "t": 121000,
      "d": 1000,
      "v": 127
    },
    {
      "midi": 76,
      "hit": false,
      "t": 121000,
      "d": 1000,
      "v": 127
    },
    {
      "midi": 49,
      "hit": false,
      "t": 121000,
      "d": 1000,
      "v": 127
    },
    {
      "midi": 64,
      "hit": false,
      "t": 122000,
      "d": 1000,
      "v": 127
    },
    {
      "midi": 68,
      "hit": false,
      "t": 122000,
      "d": 1000,
      "v": 127
    },
    {
      "midi": 76,
      "hit": false,
      "t": 122000,
      "d": 1000,
      "v": 127
    },
    {
      "midi": 51,
      "hit": false,
      "t": 122000,
      "d": 1000,
      "v": 127
    },
    {
      "midi": 66,
      "hit": false,
      "t": 123000,
      "d": 2000,
      "v": 127
    },
    {
      "midi": 70,
      "hit": false,
      "t": 123000,
      "d": 2000,
      "v": 127
    },
    {
      "midi": 75,
      "hit": false,
      "t": 123000,
      "d": 2000,
      "v": 127
    },
    {
      "midi": 78,
      "hit": false,
      "t": 123000,
      "d": 2000,
      "v": 127
    },
    {
      "midi": 52,
      "hit": false,
      "t": 123000,
      "d": 1000,
      "v": 127
    },
    {
      "midi": 42,
      "hit": false,
      "t": 124000,
      "d": 1000,
      "v": 127
    },
    {
      "midi": 64,
      "hit": false,
      "t": 125000,
      "d": 1000,
      "v": 127
    },
    {
      "midi": 68,
      "hit": false,
      "t": 125000,
      "d": 1000,
      "v": 127
    },
    {
      "midi": 75,
      "hit": false,
      "t": 125000,
      "d": 1000,
      "v": 127
    },
    {
      "midi": 54,
      "hit": false,
      "t": 125000,
      "d": 1000,
      "v": 127
    },
    {
      "midi": 64,
      "hit": false,
      "t": 126000,
      "d": 1000,
      "v": 127
    },
    {
      "midi": 68,
      "hit": false,
      "t": 126000,
      "d": 1000,
      "v": 127
    },
    {
      "midi": 73,
      "hit": false,
      "t": 126000,
      "d": 1000,
      "v": 127
    },
    {
      "midi": 35,
      "hit": false,
      "t": 126000,
      "d": 1000,
      "v": 127
    },
    {
      "midi": 63,
      "hit": false,
      "t": 127000,
      "d": 1000,
      "v": 127
    },
    {
      "midi": 68,
      "hit": false,
      "t": 127000,
      "d": 1000,
      "v": 127
    },
    {
      "midi": 71,
      "hit": false,
      "t": 127000,
      "d": 1000,
      "v": 127
    },
    {
      "midi": 53,
      "hit": false,
      "t": 127000,
      "d": 1000,
      "v": 127
    },
    {
      "midi": 59,
      "hit": false,
      "t": 127000,
      "d": 1000,
      "v": 127
    },
    {
      "midi": 65,
      "hit": false,
      "t": 128000,
      "d": 1000,
      "v": 127
    },
    {
      "midi": 68,
      "hit": false,
      "t": 128000,
      "d": 1000,
      "v": 127
    },
    {
      "midi": 71,
      "hit": false,
      "t": 128000,
      "d": 1000,
      "v": 127
    },
    {
      "midi": 53,
      "hit": false,
      "t": 128000,
      "d": 1000,
      "v": 127
    },
    {
      "midi": 59,
      "hit": false,
      "t": 128000,
      "d": 1000,
      "v": 127
    },
    {
      "midi": 62,
      "hit": false,
      "t": 129000,
      "d": 2000,
      "v": 127
    },
    {
      "midi": 66,
      "hit": false,
      "t": 129000,
      "d": 2000,
      "v": 127
    },
    {
      "midi": 70,
      "hit": false,
      "t": 129000,
      "d": 2000,
      "v": 127
    },
    {
      "midi": 58,
      "hit": false,
      "t": 129000,
      "d": 1000,
      "v": 127
    },
    {
      "midi": 47,
      "hit": false,
      "t": 130000,
      "d": 1000,
      "v": 127
    },
    {
      "midi": 62,
      "hit": false,
      "t": 131000,
      "d": 1000,
      "v": 127
    },
    {
      "midi": 68,
      "hit": false,
      "t": 131000,
      "d": 1000,
      "v": 127
    },
    {
      "midi": 53,
      "hit": false,
      "t": 131000,
      "d": 1000,
      "v": 127
    },
    {
      "midi": 59,
      "hit": false,
      "t": 132000,
      "d": 1000,
      "v": 127
    },
    {
      "midi": 63,
      "hit": false,
      "t": 132000,
      "d": 1000,
      "v": 127
    },
    {
      "midi": 68,
      "hit": false,
      "t": 132000,
      "d": 1000,
      "v": 127
    },
    {
      "midi": 54,
      "hit": false,
      "t": 132000,
      "d": 1000,
      "v": 127
    },
    {
      "midi": 59,
      "hit": false,
      "t": 133000,
      "d": 1000,
      "v": 127
    },
    {
      "midi": 63,
      "hit": false,
      "t": 133000,
      "d": 1000,
      "v": 127
    },
    {
      "midi": 68,
      "hit": false,
      "t": 133000,
      "d": 1000,
      "v": 127
    },
    {
      "midi": 47,
      "hit": false,
      "t": 133000,
      "d": 1000,
      "v": 127
    },
    {
      "midi": 59,
      "hit": false,
      "t": 134000,
      "d": 1000,
      "v": 127
    },
    {
      "midi": 63,
      "hit": false,
      "t": 134000,
      "d": 1000,
      "v": 127
    },
    {
      "midi": 68,
      "hit": false,
      "t": 134000,
      "d": 1000,
      "v": 127
    },
    {
      "midi": 42,
      "hit": false,
      "t": 134000,
      "d": 1000,
      "v": 127
    },
    {
      "midi": 59,
      "hit": false,
      "t": 135000,
      "d": 2000,
      "v": 127
    },
    {
      "midi": 63,
      "hit": false,
      "t": 135000,
      "d": 2000,
      "v": 127
    },
    {
      "midi": 68,
      "hit": false,
      "t": 135000,
      "d": 2000,
      "v": 127
    },
    {
      "midi": 35,
      "hit": false,
      "t": 135000,
      "d": 2000,
      "v": 127
    },
    {
      "midi": 59,
      "hit": false,
      "t": 137000,
      "d": 1000,
      "v": 127
    },
    {
      "midi": 63,
      "hit": false,
      "t": 137000,
      "d": 1000,
      "v": 127
    },
    {
      "midi": 70,
      "hit": false,
      "t": 137000,
      "d": 1000,
      "v": 127
    },
    {
      "midi": 61,
      "hit": false,
      "t": 137000,
      "d": 1000,
      "v": 127
    },
    {
      "midi": 60,
      "hit": false,
      "t": 138000,
      "d": 1000,
      "v": 127
    },
    {
      "midi": 63,
      "hit": false,
      "t": 138000,
      "d": 1000,
      "v": 127
    },
    {
      "midi": 68,
      "hit": false,
      "t": 138000,
      "d": 1000,
      "v": 127
    },
    {
      "midi": 58,
      "hit": false,
      "t": 138000,
      "d": 1000,
      "v": 127
    },
    {
      "midi": 60,
      "hit": false,
      "t": 139000,
      "d": 1000,
      "v": 127
    },
    {
      "midi": 63,
      "hit": false,
      "t": 139000,
      "d": 1000,
      "v": 127
    },
    {
      "midi": 68,
      "hit": false,
      "t": 139000,
      "d": 1000,
      "v": 127
    },
    {
      "midi": 54,
      "hit": false,
      "t": 139000,
      "d": 1000,
      "v": 127
    },
    {
      "midi": 60,
      "hit": false,
      "t": 140000,
      "d": 1000,
      "v": 127
    },
    {
      "midi": 63,
      "hit": false,
      "t": 140000,
      "d": 1000,
      "v": 127
    },
    {
      "midi": 68,
      "hit": false,
      "t": 140000,
      "d": 1000,
      "v": 127
    },
    {
      "midi": 51,
      "hit": false,
      "t": 140000,
      "d": 1000,
      "v": 127
    },
    {
      "midi": 60,
      "hit": false,
      "t": 141000,
      "d": 2000,
      "v": 127
    },
    {
      "midi": 64,
      "hit": false,
      "t": 141000,
      "d": 2000,
      "v": 127
    },
    {
      "midi": 68,
      "hit": false,
      "t": 141000,
      "d": 2000,
      "v": 127
    },
    {
      "midi": 44,
      "hit": false,
      "t": 141000,
      "d": 2000,
      "v": 127
    },
    {
      "midi": 60,
      "hit": false,
      "t": 143000,
      "d": 1000,
      "v": 127
    },
    {
      "midi": 65,
      "hit": false,
      "t": 143000,
      "d": 1000,
      "v": 127
    },
    {
      "midi": 70,
      "hit": false,
      "t": 143000,
      "d": 1000,
      "v": 127
    },
    {
      "midi": 54,
      "hit": false,
      "t": 143000,
      "d": 1000,
      "v": 127
    },
    {
      "midi": 61,
      "hit": false,
      "t": 144000,
      "d": 1000,
      "v": 127
    },
    {
      "midi": 65,
      "hit": false,
      "t": 144000,
      "d": 1000,
      "v": 127
    },
    {
      "midi": 69,
      "hit": false,
      "t": 144000,
      "d": 1000,
      "v": 127
    },
    {
      "midi": 53,
      "hit": false,
      "t": 144000,
      "d": 1000,
      "v": 127
    },
    {
      "midi": 61,
      "hit": false,
      "t": 145000,
      "d": 1000,
      "v": 127
    },
    {
      "midi": 65,
      "hit": false,
      "t": 145000,
      "d": 1000,
      "v": 127
    },
    {
      "midi": 69,
      "hit": false,
      "t": 145000,
      "d": 1000,
      "v": 127
    },
    {
      "midi": 49,
      "hit": false,
      "t": 145000,
      "d": 1000,
      "v": 127
    },
    {
      "midi": 61,
      "hit": false,
      "t": 146000,
      "d": 1000,
      "v": 127
    },
    {
      "midi": 65,
      "hit": false,
      "t": 146000,
      "d": 1000,
      "v": 127
    },
    {
      "midi": 69,
      "hit": false,
      "t": 146000,
      "d": 1000,
      "v": 127
    },
    {
      "midi": 44,
      "hit": false,
      "t": 146000,
      "d": 1000,
      "v": 127
    },
    {
      "midi": 61,
      "hit": false,
      "t": 147000,
      "d": 3000,
      "v": 127
    },
    {
      "midi": 65,
      "hit": false,
      "t": 147000,
      "d": 3000,
      "v": 127
    },
    {
      "midi": 69,
      "hit": false,
      "t": 147000,
      "d": 3000,
      "v": 127
    },
    {
      "midi": 37,
      "hit": false,
      "t": 147000,
      "d": 3000,
      "v": 127
    },
    {
      "midi": 61,
      "hit": false,
      "t": 150000,
      "d": 1000,
      "v": 127
    },
    {
      "midi": 66,
      "hit": false,
      "t": 150000,
      "d": 1000,
      "v": 127
    },
    {
      "midi": 70,
      "hit": false,
      "t": 150000,
      "d": 1000,
      "v": 127
    },
    {
      "midi": 53,
      "hit": false,
      "t": 150000,
      "d": 1000,
      "v": 127
    },
    {
      "midi": 63,
      "hit": false,
      "t": 151000,
      "d": 1000,
      "v": 127
    },
    {
      "midi": 66,
      "hit": false,
      "t": 151000,
      "d": 1000,
      "v": 127
    },
    {
      "midi": 70,
      "hit": false,
      "t": 151000,
      "d": 1000,
      "v": 127
    },
    {
      "midi": 51,
      "hit": false,
      "t": 151000,
      "d": 1000,
      "v": 127
    },
    {
      "midi": 63,
      "hit": false,
      "t": 152000,
      "d": 1000,
      "v": 127
    },
    {
      "midi": 66,
      "hit": false,
      "t": 152000,
      "d": 1000,
      "v": 127
    },
    {
      "midi": 73,
      "hit": false,
      "t": 152000,
      "d": 1000,
      "v": 127
    },
    {
      "midi": 46,
      "hit": false,
      "t": 152000,
      "d": 1000,
      "v": 127
    },
    {
      "midi": 61,
      "hit": false,
      "t": 153000,
      "d": 2000,
      "v": 127
    },
    {
      "midi": 66,
      "hit": false,
      "t": 153000,
      "d": 2000,
      "v": 127
    },
    {
      "midi": 72,
      "hit": false,
      "t": 153000,
      "d": 2000,
      "v": 127
    },
    {
      "midi": 32,
      "hit": false,
      "t": 153000,
      "d": 3000,
      "v": 127
    },
    {
      "midi": 60,
      "hit": false,
      "t": 155000,
      "d": 1000,
      "v": 127
    },
    {
      "midi": 66,
      "hit": false,
      "t": 155000,
      "d": 1000,
      "v": 127
    },
    {
      "midi": 70,
      "hit": false,
      "t": 155000,
      "d": 1000,
      "v": 127
    },
    {
      "midi": 68,
      "hit": false,
      "t": 156000,
      "d": 2000,
      "v": 127
    },
    {
      "midi": 53,
      "hit": false,
      "t": 156000,
      "d": 3000,
      "v": 127
    },
    {
      "midi": 65,
      "hit": false,
      "t": 158000,
      "d": 1000,
      "v": 127
    },
    {
      "midi": 66,
      "hit": false,
      "t": 159000,
      "d": 2000,
      "v": 127
    },
    {
      "midi": 51,
      "hit": false,
      "t": 159000,
      "d": 3000,
      "v": 127
    },
    {
      "midi": 68,
      "hit": false,
      "t": 161000,
      "d": 1000,
      "v": 127
    },
    {
      "midi": 65,
      "hit": false,
      "t": 162000,
      "d": 1000,
      "v": 127
    },
    {
      "midi": 42,
      "hit": false,
      "t": 162000,
      "d": 3000,
      "v": 127
    },
    {
      "midi": 49,
      "hit": false,
      "t": 162000,
      "d": 3000,
      "v": 127
    },
    {
      "midi": 54,
      "hit": false,
      "t": 162000,
      "d": 3000,
      "v": 127
    },
    {
      "midi": 61,
      "hit": false,
      "t": 163000,
      "d": 1000,
      "v": 127
    },
    {
      "midi": 63,
      "hit": false,
      "t": 164000,
      "d": 1000,
      "v": 127
    },
    {
      "midi": 64,
      "hit": false,
      "t": 165000,
      "d": 2000,
      "v": 127
    },
    {
      "midi": 45,
      "hit": false,
      "t": 165000,
      "d": 3000,
      "v": 127
    },
    {
      "midi": 52,
      "hit": false,
      "t": 165000,
      "d": 3000,
      "v": 127
    },
    {
      "midi": 55,
      "hit": false,
      "t": 165000,
      "d": 3000,
      "v": 127
    },
    {
      "midi": 66,
      "hit": false,
      "t": 167000,
      "d": 1000,
      "v": 127
    },
    {
      "midi": 63,
      "hit": false,
      "t": 168000,
      "d": 1000,
      "v": 127
    },
    {
      "midi": 46,
      "hit": false,
      "t": 168000,
      "d": 3000,
      "v": 127
    },
    {
      "midi": 51,
      "hit": false,
      "t": 168000,
      "d": 3000,
      "v": 127
    },
    {
      "midi": 58,
      "hit": false,
      "t": 169000,
      "d": 1000,
      "v": 127
    },
    {
      "midi": 70,
      "hit": false,
      "t": 169000,
      "d": 1000,
      "v": 127
    },
    {
      "midi": 60,
      "hit": false,
      "t": 170000,
      "d": 1000,
      "v": 127
    },
    {
      "midi": 72,
      "hit": false,
      "t": 170000,
      "d": 1000,
      "v": 127
    },
    {
      "midi": 73,
      "hit": false,
      "t": 171000,
      "d": 2000,
      "v": 127
    },
    {
      "midi": 43,
      "hit": false,
      "t": 171000,
      "d": 3000,
      "v": 127
    },
    {
      "midi": 52,
      "hit": false,
      "t": 171000,
      "d": 3000,
      "v": 127
    },
    {
      "midi": 57,
      "hit": false,
      "t": 171000,
      "d": 3000,
      "v": 127
    },
    {
      "midi": 63,
      "hit": false,
      "t": 173000,
      "d": 1000,
      "v": 127
    },
    {
      "midi": 75,
      "hit": false,
      "t": 173000,
      "d": 1000,
      "v": 127
    },
    {
      "midi": 72,
      "hit": false,
      "t": 174000,
      "d": 1000,
      "v": 127
    },
    {
      "midi": 37,
      "hit": false,
      "t": 174000,
      "d": 3000,
      "v": 127
    },
    {
      "midi": 44,
      "hit": false,
      "t": 174000,
      "d": 3000,
      "v": 127
    },
    {
      "midi": 49,
      "hit": false,
      "t": 174000,
      "d": 3000,
      "v": 127
    },
    {
      "midi": 56,
      "hit": false,
      "t": 175000,
      "d": 1000,
      "v": 127
    },
    {
      "midi": 68,
      "hit": false,
      "t": 175000,
      "d": 1000,
      "v": 127
    },
    {
      "midi": 58,
      "hit": false,
      "t": 176000,
      "d": 1000,
      "v": 127
    },
    {
      "midi": 70,
      "hit": false,
      "t": 176000,
      "d": 1000,
      "v": 127
    },
    {
      "midi": 71,
      "hit": false,
      "t": 177000,
      "d": 2000,
      "v": 127
    },
    {
      "midi": 43,
      "hit": false,
      "t": 177000,
      "d": 3000,
      "v": 127
    },
    {
      "midi": 50,
      "hit": false,
      "t": 177000,
      "d": 3000,
      "v": 127
    },
    {
      "midi": 55,
      "hit": false,
      "t": 177000,
      "d": 3000,
      "v": 127
    },
    {
      "midi": 61,
      "hit": false,
      "t": 179000,
      "d": 1000,
      "v": 127
    },
    {
      "midi": 73,
      "hit": false,
      "t": 179000,
      "d": 1000,
      "v": 127
    },
    {
      "midi": 70,
      "hit": false,
      "t": 180000,
      "d": 1000,
      "v": 127
    },
    {
      "midi": 48,
      "hit": false,
      "t": 180000,
      "d": 3000,
      "v": 127
    },
    {
      "midi": 54,
      "hit": false,
      "t": 180000,
      "d": 3000,
      "v": 127
    },
    {
      "midi": 60,
      "hit": false,
      "t": 180000,
      "d": 3000,
      "v": 127
    },
    {
      "midi": 53,
      "hit": false,
      "t": 181000,
      "d": 1000,
      "v": 127
    },
    {
      "midi": 65,
      "hit": false,
      "t": 181000,
      "d": 1000,
      "v": 127
    },
    {
      "midi": 55,
      "hit": false,
      "t": 182000,
      "d": 1000,
      "v": 127
    },
    {
      "midi": 67,
      "hit": false,
      "t": 182000,
      "d": 1000,
      "v": 127
    },
    {
      "midi": 68,
      "hit": false,
      "t": 183000,
      "d": 2000,
      "v": 127
    },
    {
      "midi": 40,
      "hit": false,
      "t": 183000,
      "d": 3000,
      "v": 127
    },
    {
      "midi": 46,
      "hit": false,
      "t": 183000,
      "d": 3000,
      "v": 127
    },
    {
      "midi": 52,
      "hit": false,
      "t": 183000,
      "d": 3000,
      "v": 127
    },
    {
      "midi": 58,
      "hit": false,
      "t": 185000,
      "d": 1000,
      "v": 127
    },
    {
      "midi": 70,
      "hit": false,
      "t": 185000,
      "d": 1000,
      "v": 127
    },
    {
      "midi": 63,
      "hit": false,
      "t": 186000,
      "d": 1000,
      "v": 127
    },
    {
      "midi": 67,
      "hit": false,
      "t": 186000,
      "d": 1000,
      "v": 127
    },
    {
      "midi": 51,
      "hit": false,
      "t": 186000,
      "d": 1000,
      "v": 127
    },
    {
      "midi": 63,
      "hit": false,
      "t": 187000,
      "d": 1000,
      "v": 127
    },
    {
      "midi": 51,
      "hit": false,
      "t": 187000,
      "d": 1000,
      "v": 127
    },
    {
      "midi": 58,
      "hit": false,
      "t": 188000,
      "d": 4000,
      "v": 127
    },
    {
      "midi": 46,
      "hit": false,
      "t": 188000,
      "d": 1000,
      "v": 127
    },
    {
      "midi": 39,
      "hit": false,
      "t": 189000,
      "d": 3000,
      "v": 127
    },
    {
      "midi": 51,
      "hit": false,
      "t": 189000,
      "d": 3000,
      "v": 127
    },
    {
      "midi": 67,
      "hit": false,
      "t": 192000,
      "d": 1000,
      "v": 127
    },
    {
      "midi": 55,
      "hit": false,
      "t": 192000,
      "d": 2000,
      "v": 127
    },
    {
      "midi": 65,
      "hit": false,
      "t": 193000,
      "d": 1000,
      "v": 127
    },
    {
      "midi": 60,
      "hit": false,
      "t": 194000,
      "d": 1000,
      "v": 127
    },
    {
      "midi": 53,
      "hit": false,
      "t": 194000,
      "d": 1000,
      "v": 127
    },
    {
      "midi": 63,
      "hit": false,
      "t": 195000,
      "d": 2000,
      "v": 127
    },
    {
      "midi": 46,
      "hit": false,
      "t": 195000,
      "d": 1000,
      "v": 127
    },
    {
      "midi": 56,
      "hit": false,
      "t": 196000,
      "d": 1000,
      "v": 127
    },
    {
      "midi": 58,
      "hit": false,
      "t": 197000,
      "d": 1000,
      "v": 127
    },
    {
      "midi": 62,
      "hit": false,
      "t": 197000,
      "d": 1000,
      "v": 127
    },
    {
      "midi": 55,
      "hit": false,
      "t": 198000,
      "d": 1000,
      "v": 127
    },
    {
      "midi": 63,
      "hit": false,
      "t": 198000,
      "d": 1000,
      "v": 127
    },
    {
      "midi": 39,
      "hit": false,
      "t": 198000,
      "d": 1000,
      "v": 127
    },
    {
      "midi": 55,
      "hit": false,
      "t": 199000,
      "d": 1000,
      "v": 127
    },
    {
      "midi": 58,
      "hit": false,
      "t": 199000,
      "d": 1000,
      "v": 127
    },
    {
      "midi": 39,
      "hit": false,
      "t": 199000,
      "d": 1000,
      "v": 127
    },
    {
      "midi": 55,
      "hit": false,
      "t": 200000,
      "d": 1000,
      "v": 127
    },
    {
      "midi": 60,
      "hit": false,
      "t": 200000,
      "d": 1000,
      "v": 127
    },
    {
      "midi": 39,
      "hit": false,
      "t": 200000,
      "d": 1000,
      "v": 127
    },
    {
      "midi": 56,
      "hit": false,
      "t": 201000,
      "d": 2000,
      "v": 127
    },
    {
      "midi": 61,
      "hit": false,
      "t": 201000,
      "d": 2000,
      "v": 127
    },
    {
      "midi": 46,
      "hit": false,
      "t": 201000,
      "d": 2000,
      "v": 127
    },
    {
      "midi": 53,
      "hit": false,
      "t": 201000,
      "d": 2000,
      "v": 127
    },
    {
      "midi": 56,
      "hit": false,
      "t": 203000,
      "d": 1000,
      "v": 127
    },
    {
      "midi": 63,
      "hit": false,
      "t": 203000,
      "d": 1000,
      "v": 127
    },
    {
      "midi": 46,
      "hit": false,
      "t": 203000,
      "d": 1000,
      "v": 127
    },
    {
      "midi": 53,
      "hit": false,
      "t": 203000,
      "d": 1000,
      "v": 127
    },
    {
      "midi": 55,
      "hit": false,
      "t": 204000,
      "d": 2000,
      "v": 127
    },
    {
      "midi": 60,
      "hit": false,
      "t": 204000,
      "d": 2000,
      "v": 127
    },
    {
      "midi": 50,
      "hit": false,
      "t": 204000,
      "d": 1000,
      "v": 127
    },
    {
      "midi": 51,
      "hit": false,
      "t": 205000,
      "d": 1000,
      "v": 127
    },
    {
      "midi": 53,
      "hit": false,
      "t": 206000,
      "d": 1000,
      "v": 127
    },
    {
      "midi": 60,
      "hit": false,
      "t": 206000,
      "d": 1000,
      "v": 127
    },
    {
      "midi": 54,
      "hit": false,
      "t": 207000,
      "d": 2000,
      "v": 127
    },
    {
      "midi": 61,
      "hit": false,
      "t": 207000,
      "d": 2000,
      "v": 127
    },
    {
      "midi": 42,
      "hit": false,
      "t": 207000,
      "d": 2000,
      "v": 127
    },
    {
      "midi": 51,
      "hit": false,
      "t": 207000,
      "d": 2000,
      "v": 127
    },
    {
      "midi": 56,
      "hit": false,
      "t": 209000,
      "d": 1000,
      "v": 127
    },
    {
      "midi": 63,
      "hit": false,
      "t": 209000,
      "d": 1000,
      "v": 127
    },
    {
      "midi": 42,
      "hit": false,
      "t": 209000,
      "d": 1000,
      "v": 127
    },
    {
      "midi": 51,
      "hit": false,
      "t": 209000,
      "d": 1000,
      "v": 127
    },
    {
      "midi": 53,
      "hit": false,
      "t": 210000,
      "d": 1000,
      "v": 127
    },
    {
      "midi": 57,
      "hit": false,
      "t": 210000,
      "d": 1000,
      "v": 127
    },
    {
      "midi": 63,
      "hit": false,
      "t": 210000,
      "d": 1000,
      "v": 127
    },
    {
      "midi": 37,
      "hit": false,
      "t": 210000,
      "d": 1000,
      "v": 127
    },
    {
      "midi": 44,
      "hit": false,
      "t": 210000,
      "d": 1000,
      "v": 127
    },
    {
      "midi": 61,
      "hit": false,
      "t": 211000,
      "d": 1000,
      "v": 127
    },
    {
      "midi": 73,
      "hit": false,
      "t": 211000,
      "d": 1000,
      "v": 127
    },
    {
      "midi": 68,
      "hit": false,
      "t": 212000,
      "d": 1000,
      "v": 127
    },
    {
      "midi": 56,
      "hit": false,
      "t": 212000,
      "d": 1000,
      "v": 127
    },
    {
      "midi": 63,
      "hit": false,
      "t": 213000,
      "d": 2000,
      "v": 127
    },
    {
      "midi": 69,
      "hit": false,
      "t": 213000,
      "d": 2000,
      "v": 127
    },
    {
      "midi": 75,
      "hit": false,
      "t": 213000,
      "d": 2000,
      "v": 127
    },
    {
      "midi": 54,
      "hit": false,
      "t": 213000,
      "d": 2000,
      "v": 127
    },
    {
      "midi": 61,
      "hit": false,
      "t": 213000,
      "d": 2000,
      "v": 127
    },
    {
      "midi": 65,
      "hit": false,
      "t": 215000,
      "d": 1000,
      "v": 127
    },
    {
      "midi": 68,
      "hit": false,
      "t": 215000,
      "d": 1000,
      "v": 127
    },
    {
      "midi": 73,
      "hit": false,
      "t": 215000,
      "d": 1000,
      "v": 127
    },
    {
      "midi": 77,
      "hit": false,
      "t": 215000,
      "d": 1000,
      "v": 127
    },
    {
      "midi": 56,
      "hit": false,
      "t": 215000,
      "d": 1000,
      "v": 127
    },
    {
      "midi": 63,
      "hit": false,
      "t": 215000,
      "d": 1000,
      "v": 127
    },
    {
      "midi": 78,
      "hit": false,
      "t": 216000,
      "d": 1000,
      "v": 127
    },
    {
      "midi": 57,
      "hit": false,
      "t": 216000,
      "d": 2000,
      "v": 127
    },
    {
      "midi": 63,
      "hit": false,
      "t": 216000,
      "d": 2000,
      "v": 127
    },
    {
      "midi": 69,
      "hit": false,
      "t": 216000,
      "d": 2000,
      "v": 127
    },
    {
      "midi": 78,
      "hit": false,
      "t": 217000,
      "d": 1000,
      "v": 127
    },
    {
      "midi": 68,
      "hit": false,
      "t": 218000,
      "d": 1000,
      "v": 127
    },
    {
      "midi": 73,
      "hit": false,
      "t": 218000,
      "d": 1000,
      "v": 127
    },
    {
      "midi": 59,
      "hit": false,
      "t": 218000,
      "d": 1000,
      "v": 127
    },
    {
      "midi": 64,
      "hit": false,
      "t": 218000,
      "d": 1000,
      "v": 127
    },
    {
      "midi": 71,
      "hit": false,
      "t": 218000,
      "d": 1000,
      "v": 127
    },
    {
      "midi": 69,
      "hit": false,
      "t": 219000,
      "d": 2000,
      "v": 127
    },
    {
      "midi": 75,
      "hit": false,
      "t": 219000,
      "d": 2000,
      "v": 127
    },
    {
      "midi": 80,
      "hit": false,
      "t": 219000,
      "d": 2000,
      "v": 127
    },
    {
      "midi": 66,
      "hit": false,
      "t": 219000,
      "d": 1000,
      "v": 127
    },
    {
      "midi": 47,
      "hit": false,
      "t": 220000,
      "d": 1000,
      "v": 127
    },
    {
      "midi": 71,
      "hit": false,
      "t": 221000,
      "d": 1000,
      "v": 127
    },
    {
      "midi": 75,
      "hit": false,
      "t": 221000,
      "d": 1000,
      "v": 127
    },
    {
      "midi": 80,
      "hit": false,
      "t": 221000,
      "d": 1000,
      "v": 127
    },
    {
      "midi": 63,
      "hit": false,
      "t": 221000,
      "d": 1000,
      "v": 127
    },
    {
      "midi": 72,
      "hit": false,
      "t": 222000,
      "d": 1000,
      "v": 127
    },
    {
      "midi": 76,
      "hit": false,
      "t": 222000,
      "d": 1000,
      "v": 127
    },
    {
      "midi": 80,
      "hit": false,
      "t": 222000,
      "d": 1000,
      "v": 127
    },
    {
      "midi": 56,
      "hit": false,
      "t": 222000,
      "d": 1000,
      "v": 127
    },
    {
      "midi": 72,
      "hit": false,
      "t": 223000,
      "d": 1000,
      "v": 127
    },
    {
      "midi": 76,
      "hit": false,
      "t": 223000,
      "d": 1000,
      "v": 127
    },
    {
      "midi": 80,
      "hit": false,
      "t": 223000,
      "d": 1000,
      "v": 127
    },
    {
      "midi": 52,
      "hit": false,
      "t": 223000,
      "d": 1000,
      "v": 127
    },
    {
      "midi": 72,
      "hit": false,
      "t": 224000,
      "d": 1000,
      "v": 127
    },
    {
      "midi": 76,
      "hit": false,
      "t": 224000,
      "d": 1000,
      "v": 127
    },
    {
      "midi": 80,
      "hit": false,
      "t": 224000,
      "d": 1000,
      "v": 127
    },
    {
      "midi": 47,
      "hit": false,
      "t": 224000,
      "d": 1000,
      "v": 127
    },
    {
      "midi": 72,
      "hit": false,
      "t": 225000,
      "d": 3000,
      "v": 127
    },
    {
      "midi": 76,
      "hit": false,
      "t": 225000,
      "d": 3000,
      "v": 127
    },
    {
      "midi": 80,
      "hit": false,
      "t": 225000,
      "d": 3000,
      "v": 127
    },
    {
      "midi": 40,
      "hit": false,
      "t": 225000,
      "d": 3000,
      "v": 127
    },
    {
      "midi": 64,
      "hit": false,
      "t": 228000,
      "d": 1000,
      "v": 127
    },
    {
      "midi": 70,
      "hit": false,
      "t": 228000,
      "d": 1000,
      "v": 127
    },
    {
      "midi": 73,
      "hit": false,
      "t": 228000,
      "d": 1000,
      "v": 127
    },
    {
      "midi": 56,
      "hit": false,
      "t": 228000,
      "d": 1000,
      "v": 127
    },
    {
      "midi": 64,
      "hit": false,
      "t": 229000,
      "d": 1000,
      "v": 127
    },
    {
      "midi": 70,
      "hit": false,
      "t": 229000,
      "d": 1000,
      "v": 127
    },
    {
      "midi": 75,
      "hit": false,
      "t": 229000,
      "d": 1000,
      "v": 127
    },
    {
      "midi": 54,
      "hit": false,
      "t": 229000,
      "d": 1000,
      "v": 127
    },
    {
      "midi": 64,
      "hit": false,
      "t": 230000,
      "d": 1000,
      "v": 127
    },
    {
      "midi": 70,
      "hit": false,
      "t": 230000,
      "d": 1000,
      "v": 127
    },
    {
      "midi": 76,
      "hit": false,
      "t": 230000,
      "d": 1000,
      "v": 127
    },
    {
      "midi": 49,
      "hit": false,
      "t": 230000,
      "d": 1000,
      "v": 127
    },
    {
      "midi": 64,
      "hit": false,
      "t": 231000,
      "d": 2000,
      "v": 127
    },
    {
      "midi": 70,
      "hit": false,
      "t": 231000,
      "d": 2000,
      "v": 127
    },
    {
      "midi": 75,
      "hit": false,
      "t": 231000,
      "d": 2000,
      "v": 127
    },
    {
      "midi": 35,
      "hit": false,
      "t": 231000,
      "d": 3000,
      "v": 127
    },
    {
      "midi": 63,
      "hit": false,
      "t": 233000,
      "d": 1000,
      "v": 127
    },
    {
      "midi": 69,
      "hit": false,
      "t": 233000,
      "d": 1000,
      "v": 127
    },
    {
      "midi": 73,
      "hit": false,
      "t": 233000,
      "d": 1000,
      "v": 127
    },
    {
      "midi": 63,
      "hit": false,
      "t": 234000,
      "d": 1000,
      "v": 127
    },
    {
      "midi": 71,
      "hit": false,
      "t": 234000,
      "d": 1000,
      "v": 127
    },
    {
      "midi": 59,
      "hit": false,
      "t": 234000,
      "d": 1000,
      "v": 127
    },
    {
      "midi": 64,
      "hit": false,
      "t": 235000,
      "d": 1000,
      "v": 127
    },
    {
      "midi": 66,
      "hit": false,
      "t": 235000,
      "d": 1000,
      "v": 127
    },
    {
      "midi": 59,
      "hit": false,
      "t": 235000,
      "d": 1000,
      "v": 127
    },
    {
      "midi": 65,
      "hit": false,
      "t": 236000,
      "d": 1000,
      "v": 127
    },
    {
      "midi": 68,
      "hit": false,
      "t": 236000,
      "d": 1000,
      "v": 127
    },
    {
      "midi": 59,
      "hit": false,
      "t": 236000,
      "d": 1000,
      "v": 127
    },
    {
      "midi": 66,
      "hit": false,
      "t": 237000,
      "d": 2000,
      "v": 127
    },
    {
      "midi": 69,
      "hit": false,
      "t": 237000,
      "d": 2000,
      "v": 127
    },
    {
      "midi": 59,
      "hit": false,
      "t": 237000,
      "d": 2000,
      "v": 127
    },
    {
      "midi": 67,
      "hit": false,
      "t": 239000,
      "d": 1000,
      "v": 127
    },
    {
      "midi": 71,
      "hit": false,
      "t": 239000,
      "d": 1000,
      "v": 127
    },
    {
      "midi": 59,
      "hit": false,
      "t": 239000,
      "d": 1000,
      "v": 127
    },
    {
      "midi": 68,
      "hit": false,
      "t": 240000,
      "d": 1000,
      "v": 127
    },
    {
      "midi": 68,
      "hit": false,
      "t": 240000,
      "d": 1000,
      "v": 127
    },
    {
      "midi": 70,
      "hit": false,
      "t": 241000,
      "d": 1000,
      "v": 127
    },
    {
      "midi": 64,
      "hit": false,
      "t": 241000,
      "d": 1000,
      "v": 127
    },
    {
      "midi": 71,
      "hit": false,
      "t": 242000,
      "d": 1000,
      "v": 127
    },
    {
      "midi": 59,
      "hit": false,
      "t": 242000,
      "d": 1000,
      "v": 127
    },
    {
      "midi": 70,
      "hit": false,
      "t": 243000,
      "d": 2000,
      "v": 127
    },
    {
      "midi": 73,
      "hit": false,
      "t": 243000,
      "d": 2000,
      "v": 127
    },
    {
      "midi": 52,
      "hit": false,
      "t": 243000,
      "d": 2000,
      "v": 127
    },
    {
      "midi": 66,
      "hit": false,
      "t": 245000,
      "d": 1000,
      "v": 127
    },
    {
      "midi": 70,
      "hit": false,
      "t": 245000,
      "d": 1000,
      "v": 127
    },
    {
      "midi": 75,
      "hit": false,
      "t": 245000,
      "d": 1000,
      "v": 127
    },
    {
      "midi": 52,
      "hit": false,
      "t": 245000,
      "d": 1000,
      "v": 127
    },
    {
      "midi": 67,
      "hit": false,
      "t": 246000,
      "d": 1000,
      "v": 127
    },
    {
      "midi": 71,
      "hit": false,
      "t": 246000,
      "d": 1000,
      "v": 127
    },
    {
      "midi": 75,
      "hit": false,
      "t": 246000,
      "d": 1000,
      "v": 127
    },
    {
      "midi": 63,
      "hit": false,
      "t": 246000,
      "d": 1000,
      "v": 127
    },
    {
      "midi": 67,
      "hit": false,
      "t": 247000,
      "d": 1000,
      "v": 127
    },
    {
      "midi": 71,
      "hit": false,
      "t": 247000,
      "d": 1000,
      "v": 127
    },
    {
      "midi": 75,
      "hit": false,
      "t": 247000,
      "d": 1000,
      "v": 127
    },
    {
      "midi": 59,
      "hit": false,
      "t": 247000,
      "d": 1000,
      "v": 127
    },
    {
      "midi": 67,
      "hit": false,
      "t": 248000,
      "d": 1000,
      "v": 127
    },
    {
      "midi": 71,
      "hit": false,
      "t": 248000,
      "d": 1000,
      "v": 127
    },
    {
      "midi": 75,
      "hit": false,
      "t": 248000,
      "d": 1000,
      "v": 127
    },
    {
      "midi": 54,
      "hit": false,
      "t": 248000,
      "d": 1000,
      "v": 127
    },
    {
      "midi": 67,
      "hit": false,
      "t": 249000,
      "d": 3000,
      "v": 127
    },
    {
      "midi": 71,
      "hit": false,
      "t": 249000,
      "d": 3000,
      "v": 127
    },
    {
      "midi": 75,
      "hit": false,
      "t": 249000,
      "d": 3000,
      "v": 127
    },
    {
      "midi": 47,
      "hit": false,
      "t": 249000,
      "d": 3000,
      "v": 127
    }
  ]
}