{
  "jsonPath": "Unknown/Unknown/R Kumar/valse.json",
  "path": "Unknown\\Unknown\\R Kumar\\Valse.mid",
  "name": "Valse",
  "difficulty": "Advanced",
  "bpm": 92.00012880018032,
  "notes": [
    {
      "midi": 60,
      "hit": false,
      "t": 0,
      "d": 652.173,
      "v": 127
    },
    {
      "midi": 68,
      "hit": false,
      "t": 652.173,
      "d": 652.173,
      "v": 127
    },
    {
      "midi": 41,
      "hit": false,
      "t": 652.173,
      "d": 652.173,
      "v": 127
    },
    {
      "midi": 61,
      "hit": false,
      "t": 1304.346,
      "d": 652.173,
      "v": 127
    },
    {
      "midi": 52,
      "hit": false,
      "t": 1304.346,
      "d": 652.173,
      "v": 127
    },
    {
      "midi": 56,
      "hit": false,
      "t": 1304.346,
      "d": 652.173,
      "v": 127
    },
    {
      "midi": 67,
      "hit": false,
      "t": 1956.519,
      "d": 1304.3459999999998,
      "v": 127
    },
    {
      "midi": 41,
      "hit": false,
      "t": 2608.692,
      "d": 652.1729999999998,
      "v": 127
    },
    {
      "midi": 65,
      "hit": false,
      "t": 3260.865,
      "d": 652.1729999999998,
      "v": 127
    },
    {
      "midi": 53,
      "hit": false,
      "t": 3260.865,
      "d": 652.1729999999998,
      "v": 127
    },
    {
      "midi": 56,
      "hit": false,
      "t": 3260.865,
      "d": 652.1729999999998,
      "v": 127
    },
    {
      "midi": 60,
      "hit": false,
      "t": 3913.0379999999996,
      "d": 652.1729999999998,
      "v": 127
    },
    {
      "midi": 68,
      "hit": false,
      "t": 4565.210999999999,
      "d": 652.1729999999998,
      "v": 127
    },
    {
      "midi": 41,
      "hit": false,
      "t": 4565.210999999999,
      "d": 652.1729999999998,
      "v": 127
    },
    {
      "midi": 61,
      "hit": false,
      "t": 5217.383999999999,
      "d": 652.1729999999998,
      "v": 127
    },
    {
      "midi": 52,
      "hit": false,
      "t": 5217.383999999999,
      "d": 652.1729999999998,
      "v": 127
    },
    {
      "midi": 56,
      "hit": false,
      "t": 5217.383999999999,
      "d": 652.1729999999998,
      "v": 127
    },
    {
      "midi": 67,
      "hit": false,
      "t": 5869.556999999999,
      "d": 1304.3459999999995,
      "v": 127
    },
    {
      "midi": 41,
      "hit": false,
      "t": 6521.729999999999,
      "d": 652.1729999999998,
      "v": 127
    },
    {
      "midi": 65,
      "hit": false,
      "t": 7173.902999999998,
      "d": 652.1729999999998,
      "v": 127
    },
    {
      "midi": 53,
      "hit": false,
      "t": 7173.902999999998,
      "d": 652.1729999999998,
      "v": 127
    },
    {
      "midi": 57,
      "hit": false,
      "t": 7173.902999999998,
      "d": 652.1729999999998,
      "v": 127
    },
    {
      "midi": 65,
      "hit": false,
      "t": 7826.075999999998,
      "d": 652.1729999999998,
      "v": 127
    },
    {
      "midi": 39,
      "hit": false,
      "t": 7826.075999999998,
      "d": 652.1729999999998,
      "v": 127
    },
    {
      "midi": 73,
      "hit": false,
      "t": 8478.248999999998,
      "d": 1304.3459999999995,
      "v": 127
    },
    {
      "midi": 46,
      "hit": false,
      "t": 8478.248999999998,
      "d": 652.1730000000007,
      "v": 127
    },
    {
      "midi": 60,
      "hit": false,
      "t": 9130.421999999999,
      "d": 652.1730000000007,
      "v": 127
    },
    {
      "midi": 64,
      "hit": false,
      "t": 9130.421999999999,
      "d": 652.1730000000007,
      "v": 127
    },
    {
      "midi": 72,
      "hit": false,
      "t": 9782.594999999998,
      "d": 1304.3459999999995,
      "v": 127
    },
    {
      "midi": 44,
      "hit": false,
      "t": 10434.768,
      "d": 652.1730000000007,
      "v": 127
    },
    {
      "midi": 70,
      "hit": false,
      "t": 11086.940999999997,
      "d": 652.1730000000007,
      "v": 127
    },
    {
      "midi": 60,
      "hit": false,
      "t": 11086.941,
      "d": 652.1730000000007,
      "v": 127
    },
    {
      "midi": 65,
      "hit": false,
      "t": 11086.941,
      "d": 652.1730000000007,
      "v": 127
    },
    {
      "midi": 68,
      "hit": false,
      "t": 11739.113999999998,
      "d": 652.1730000000007,
      "v": 127
    },
    {
      "midi": 68,
      "hit": false,
      "t": 12391.286999999998,
      "d": 1304.3459999999995,
      "v": 127
    },
    {
      "midi": 43,
      "hit": false,
      "t": 12391.287000000002,
      "d": 652.1730000000007,
      "v": 127
    },
    {
      "midi": 59,
      "hit": false,
      "t": 13043.460000000003,
      "d": 652.1730000000007,
      "v": 127
    },
    {
      "midi": 65,
      "hit": false,
      "t": 13043.460000000003,
      "d": 652.1730000000007,
      "v": 127
    },
    {
      "midi": 67,
      "hit": false,
      "t": 13695.632999999998,
      "d": 1304.3459999999995,
      "v": 127
    },
    {
      "midi": 48,
      "hit": false,
      "t": 14347.806000000004,
      "d": 652.1730000000007,
      "v": 127
    },
    {
      "midi": 68,
      "hit": false,
      "t": 14999.978999999998,
      "d": 652.1730000000007,
      "v": 127
    },
    {
      "midi": 52,
      "hit": false,
      "t": 14999.979000000005,
      "d": 652.1730000000007,
      "v": 127
    },
    {
      "midi": 58,
      "hit": false,
      "t": 14999.979000000005,
      "d": 652.1730000000007,
      "v": 127
    },
    {
      "midi": 60,
      "hit": false,
      "t": 15652.151999999998,
      "d": 652.1730000000007,
      "v": 127
    },
    {
      "midi": 68,
      "hit": false,
      "t": 16304.324999999999,
      "d": 652.1730000000007,
      "v": 127
    },
    {
      "midi": 41,
      "hit": false,
      "t": 16304.325000000006,
      "d": 652.1730000000007,
      "v": 127
    },
    {
      "midi": 61,
      "hit": false,
      "t": 16956.498,
      "d": 652.1729999999989,
      "v": 127
    },
    {
      "midi": 52,
      "hit": false,
      "t": 16956.498000000007,
      "d": 652.1729999999989,
      "v": 127
    },
    {
      "midi": 56,
      "hit": false,
      "t": 16956.498000000007,
      "d": 652.1729999999989,
      "v": 127
    },
    {
      "midi": 67,
      "hit": false,
      "t": 17608.671,
      "d": 1304.3460000000014,
      "v": 127
    },
    {
      "midi": 41,
      "hit": false,
      "t": 18260.844000000005,
      "d": 652.1729999999989,
      "v": 127
    },
    {
      "midi": 65,
      "hit": false,
      "t": 18913.017,
      "d": 652.1729999999989,
      "v": 127
    },
    {
      "midi": 53,
      "hit": false,
      "t": 18913.017000000003,
      "d": 652.1729999999989,
      "v": 127
    },
    {
      "midi": 56,
      "hit": false,
      "t": 18913.017000000003,
      "d": 652.1729999999989,
      "v": 127
    },
    {
      "midi": 60,
      "hit": false,
      "t": 19565.19,
      "d": 652.1729999999989,
      "v": 127
    },
    {
      "midi": 72,
      "hit": false,
      "t": 20217.362999999998,
      "d": 652.1729999999989,
      "v": 127
    },
    {
      "midi": 41,
      "hit": false,
      "t": 20217.363,
      "d": 652.1729999999989,
      "v": 127
    },
    {
      "midi": 73,
      "hit": false,
      "t": 20869.535999999996,
      "d": 652.1729999999989,
      "v": 127
    },
    {
      "midi": 52,
      "hit": false,
      "t": 20869.536,
      "d": 652.1729999999989,
      "v": 127
    },
    {
      "midi": 56,
      "hit": false,
      "t": 20869.536,
      "d": 652.1729999999989,
      "v": 127
    },
    {
      "midi": 70,
      "hit": false,
      "t": 21521.708999999995,
      "d": 1304.3460000000014,
      "v": 127
    },
    {
      "midi": 41,
      "hit": false,
      "t": 22173.881999999998,
      "d": 652.1729999999989,
      "v": 127
    },
    {
      "midi": 69,
      "hit": false,
      "t": 22826.054999999997,
      "d": 652.1729999999989,
      "v": 127
    },
    {
      "midi": 53,
      "hit": false,
      "t": 22826.054999999997,
      "d": 652.1729999999989,
      "v": 127
    },
    {
      "midi": 57,
      "hit": false,
      "t": 22826.054999999997,
      "d": 652.1729999999989,
      "v": 127
    },
    {
      "midi": 72,
      "hit": false,
      "t": 23478.227999999996,
      "d": 652.1729999999989,
      "v": 127
    },
    {
      "midi": 72,
      "hit": false,
      "t": 24130.400999999994,
      "d": 652.1729999999989,
      "v": 127
    },
    {
      "midi": 46,
      "hit": false,
      "t": 24130.400999999994,
      "d": 652.1729999999989,
      "v": 127
    },
    {
      "midi": 73,
      "hit": false,
      "t": 24782.573999999993,
      "d": 652.1729999999989,
      "v": 127
    },
    {
      "midi": 58,
      "hit": false,
      "t": 24782.573999999993,
      "d": 652.1729999999989,
      "v": 127
    },
    {
      "midi": 61,
      "hit": false,
      "t": 24782.573999999993,
      "d": 652.1729999999989,
      "v": 127
    },
    {
      "midi": 68,
      "hit": false,
      "t": 25434.746999999992,
      "d": 1304.3460000000014,
      "v": 127
    },
    {
      "midi": 39,
      "hit": false,
      "t": 26086.91999999999,
      "d": 652.1729999999989,
      "v": 127
    },
    {
      "midi": 58,
      "hit": false,
      "t": 26739.09299999999,
      "d": 652.1729999999989,
      "v": 127
    },
    {
      "midi": 67,
      "hit": false,
      "t": 26739.092999999993,
      "d": 652.1729999999989,
      "v": 127
    },
    {
      "midi": 61,
      "hit": false,
      "t": 27391.26599999999,
      "d": 652.1729999999989,
      "v": 127
    },
    {
      "midi": 63,
      "hit": false,
      "t": 27391.265999999992,
      "d": 652.1729999999989,
      "v": 127
    },
    {
      "midi": 44,
      "hit": false,
      "t": 28043.438999999988,
      "d": 652.1729999999989,
      "v": 127
    },
    {
      "midi": 70,
      "hit": false,
      "t": 28043.43899999999,
      "d": 652.1729999999989,
      "v": 127
    },
    {
      "midi": 56,
      "hit": false,
      "t": 28695.611999999986,
      "d": 652.1729999999989,
      "v": 127
    },
    {
      "midi": 60,
      "hit": false,
      "t": 28695.611999999986,
      "d": 652.1729999999989,
      "v": 127
    },
    {
      "midi": 72,
      "hit": false,
      "t": 28695.61199999999,
      "d": 652.1729999999989,
      "v": 127
    },
    {
      "midi": 66,
      "hit": false,
      "t": 29347.78499999999,
      "d": 1304.3460000000014,
      "v": 127
    },
    {
      "midi": 37,
      "hit": false,
      "t": 29999.957999999984,
      "d": 652.1729999999989,
      "v": 127
    },
    {
      "midi": 56,
      "hit": false,
      "t": 30652.130999999983,
      "d": 652.1729999999989,
      "v": 127
    },
    {
      "midi": 65,
      "hit": false,
      "t": 30652.13099999999,
      "d": 652.1729999999989,
      "v": 127
    },
    {
      "midi": 59,
      "hit": false,
      "t": 31304.303999999982,
      "d": 652.1729999999989,
      "v": 127
    },
    {
      "midi": 61,
      "hit": false,
      "t": 31304.30399999999,
      "d": 652.1729999999989,
      "v": 127
    },
    {
      "midi": 42,
      "hit": false,
      "t": 31956.47699999998,
      "d": 652.1729999999989,
      "v": 127
    },
    {
      "midi": 70,
      "hit": false,
      "t": 31956.476999999988,
      "d": 1304.3460000000014,
      "v": 127
    },
    {
      "midi": 56,
      "hit": false,
      "t": 32608.64999999998,
      "d": 652.1730000000025,
      "v": 127
    },
    {
      "midi": 60,
      "hit": false,
      "t": 32608.64999999998,
      "d": 652.1730000000025,
      "v": 127
    },
    {
      "midi": 68,
      "hit": false,
      "t": 33260.82299999999,
      "d": 652.1730000000025,
      "v": 127
    },
    {
      "midi": 41,
      "hit": false,
      "t": 33912.995999999985,
      "d": 652.1730000000025,
      "v": 127
    },
    {
      "midi": 68,
      "hit": false,
      "t": 33912.99599999999,
      "d": 652.1730000000025,
      "v": 127
    },
    {
      "midi": 53,
      "hit": false,
      "t": 34565.16899999999,
      "d": 652.1730000000025,
      "v": 127
    },
    {
      "midi": 61,
      "hit": false,
      "t": 34565.168999999994,
      "d": 652.1730000000025,
      "v": 127
    },
    {
      "midi": 56,
      "hit": false,
      "t": 35217.34199999999,
      "d": 652.1730000000025,
      "v": 127
    },
    {
      "midi": 65,
      "hit": false,
      "t": 35217.342,
      "d": 652.1730000000025,
      "v": 127
    },
    {
      "midi": 44,
      "hit": false,
      "t": 35869.51499999999,
      "d": 652.1730000000025,
      "v": 127
    },
    {
      "midi": 66,
      "hit": false,
      "t": 35869.515,
      "d": 652.1730000000025,
      "v": 127
    },
    {
      "midi": 56,
      "hit": false,
      "t": 36521.687999999995,
      "d": 652.1730000000025,
      "v": 127
    },
    {
      "midi": 65,
      "hit": false,
      "t": 36521.688,
      "d": 652.1730000000025,
      "v": 127
    },
    {
      "midi": 54,
      "hit": false,
      "t": 37173.861,
      "d": 652.1730000000025,
      "v": 127
    },
    {
      "midi": 63,
      "hit": false,
      "t": 37173.861000000004,
      "d": 652.1730000000025,
      "v": 127
    },
    {
      "midi": 37,
      "hit": false,
      "t": 37826.034,
      "d": 652.1730000000025,
      "v": 127
    },
    {
      "midi": 61,
      "hit": false,
      "t": 37826.03400000001,
      "d": 1304.3459999999977,
      "v": 127
    },
    {
      "midi": 53,
      "hit": false,
      "t": 38478.207,
      "d": 652.1730000000025,
      "v": 127
    },
    {
      "midi": 56,
      "hit": false,
      "t": 38478.207,
      "d": 652.1730000000025,
      "v": 127
    },
    {
      "midi": 72,
      "hit": false,
      "t": 39130.380000000005,
      "d": 652.1730000000025,
      "v": 127
    },
    {
      "midi": 51,
      "hit": false,
      "t": 39130.380000000005,
      "d": 652.1730000000025,
      "v": 127
    },
    {
      "midi": 57,
      "hit": false,
      "t": 39130.380000000005,
      "d": 652.1730000000025,
      "v": 127
    },
    {
      "midi": 75,
      "hit": false,
      "t": 39782.55300000001,
      "d": 326.0864999999976,
      "v": 127
    },
    {
      "midi": 46,
      "hit": false,
      "t": 39782.55300000001,
      "d": 652.1730000000025,
      "v": 127
    },
    {
      "midi": 73,
      "hit": false,
      "t": 40108.639500000005,
      "d": 326.0864999999976,
      "v": 127
    },
    {
      "midi": 69,
      "hit": false,
      "t": 40434.726,
      "d": 326.0864999999976,
      "v": 127
    },
    {
      "midi": 61,
      "hit": false,
      "t": 40434.72600000001,
      "d": 652.1730000000025,
      "v": 127
    },
    {
      "midi": 65,
      "hit": false,
      "t": 40434.72600000001,
      "d": 652.1730000000025,
      "v": 127
    },
    {
      "midi": 70,
      "hit": false,
      "t": 40760.8125,
      "d": 326.0864999999976,
      "v": 127
    },
    {
      "midi": 72,
      "hit": false,
      "t": 41086.899,
      "d": 326.0864999999976,
      "v": 127
    },
    {
      "midi": 58,
      "hit": false,
      "t": 41086.89900000001,
      "d": 652.1730000000025,
      "v": 127
    },
    {
      "midi": 61,
      "hit": false,
      "t": 41086.89900000001,
      "d": 652.1730000000025,
      "v": 127
    },
    {
      "midi": 73,
      "hit": false,
      "t": 41412.985499999995,
      "d": 326.0864999999976,
      "v": 127
    },
    {
      "midi": 73,
      "hit": false,
      "t": 41739.07199999999,
      "d": 652.1730000000025,
      "v": 127
    },
    {
      "midi": 51,
      "hit": false,
      "t": 41739.072000000015,
      "d": 652.1730000000025,
      "v": 127
    },
    {
      "midi": 72,
      "hit": false,
      "t": 42391.244999999995,
      "d": 652.1730000000025,
      "v": 127
    },
    {
      "midi": 56,
      "hit": false,
      "t": 42391.24500000002,
      "d": 652.1730000000025,
      "v": 127
    },
    {
      "midi": 63,
      "hit": false,
      "t": 42391.24500000002,
      "d": 652.1730000000025,
      "v": 127
    },
    {
      "midi": 70,
      "hit": false,
      "t": 43043.418,
      "d": 652.1730000000025,
      "v": 127
    },
    {
      "midi": 55,
      "hit": false,
      "t": 43043.41800000002,
      "d": 652.1730000000025,
      "v": 127
    },
    {
      "midi": 64,
      "hit": false,
      "t": 43043.41800000002,
      "d": 652.1730000000025,
      "v": 127
    },
    {
      "midi": 72,
      "hit": false,
      "t": 43695.591,
      "d": 326.0864999999976,
      "v": 127
    },
    {
      "midi": 48,
      "hit": false,
      "t": 43695.59100000002,
      "d": 652.1730000000025,
      "v": 127
    },
    {
      "midi": 70,
      "hit": false,
      "t": 44021.6775,
      "d": 326.0864999999976,
      "v": 127
    },
    {
      "midi": 68,
      "hit": false,
      "t": 44347.763999999996,
      "d": 326.0864999999976,
      "v": 127
    },
    {
      "midi": 60,
      "hit": false,
      "t": 44347.764000000025,
      "d": 652.1730000000025,
      "v": 127
    },
    {
      "midi": 65,
      "hit": false,
      "t": 44347.764000000025,
      "d": 652.1730000000025,
      "v": 127
    },
    {
      "midi": 67,
      "hit": false,
      "t": 44673.85049999999,
      "d": 326.0864999999976,
      "v": 127
    },
    {
      "midi": 68,
      "hit": false,
      "t": 44999.93699999999,
      "d": 326.0864999999976,
      "v": 127
    },
    {
      "midi": 58,
      "hit": false,
      "t": 44999.93700000003,
      "d": 652.1730000000025,
      "v": 127
    },
    {
      "midi": 64,
      "hit": false,
      "t": 44999.93700000003,
      "d": 652.1730000000025,
      "v": 127
    },
    {
      "midi": 70,
      "hit": false,
      "t": 45326.02349999999,
      "d": 326.0864999999976,
      "v": 127
    },
    {
      "midi": 70,
      "hit": false,
      "t": 45652.109999999986,
      "d": 652.1730000000025,
      "v": 127
    },
    {
      "midi": 53,
      "hit": false,
      "t": 45652.11000000003,
      "d": 652.1730000000025,
      "v": 127
    },
    {
      "midi": 68,
      "hit": false,
      "t": 46304.28299999999,
      "d": 652.1730000000025,
      "v": 127
    },
    {
      "midi": 60,
      "hit": false,
      "t": 46304.28300000003,
      "d": 652.1730000000025,
      "v": 127
    },
    {
      "midi": 65,
      "hit": false,
      "t": 46304.28300000003,
      "d": 652.1730000000025,
      "v": 127
    },
    {
      "midi": 77,
      "hit": false,
      "t": 46956.45599999999,
      "d": 978.2595000000001,
      "v": 127
    },
    {
      "midi": 57,
      "hit": false,
      "t": 47608.62900000004,
      "d": 652.1730000000025,
      "v": 127
    },
    {
      "midi": 78,
      "hit": false,
      "t": 47934.71549999999,
      "d": 326.0864999999976,
      "v": 127
    },
    {
      "midi": 77,
      "hit": false,
      "t": 48260.80199999999,
      "d": 326.0864999999976,
      "v": 127
    },
    {
      "midi": 60,
      "hit": false,
      "t": 48260.80200000004,
      "d": 652.1730000000025,
      "v": 127
    },
    {
      "midi": 66,
      "hit": false,
      "t": 48260.80200000004,
      "d": 652.1730000000025,
      "v": 127
    },
    {
      "midi": 72,
      "hit": false,
      "t": 48586.88849999999,
      "d": 326.0864999999976,
      "v": 127
    },
    {
      "midi": 75,
      "hit": false,
      "t": 48912.974999999984,
      "d": 326.0864999999976,
      "v": 127
    },
    {
      "midi": 63,
      "hit": false,
      "t": 48912.97500000004,
      "d": 652.1730000000025,
      "v": 127
    },
    {
      "midi": 65,
      "hit": false,
      "t": 48912.97500000004,
      "d": 652.1730000000025,
      "v": 127
    },
    {
      "midi": 69,
      "hit": false,
      "t": 49239.06149999998,
      "d": 326.0864999999976,
      "v": 127
    },
    {
      "midi": 72,
      "hit": false,
      "t": 49565.14799999998,
      "d": 652.1730000000025,
      "v": 127
    },
    {
      "midi": 58,
      "hit": false,
      "t": 49565.148000000045,
      "d": 652.1730000000025,
      "v": 127
    },
    {
      "midi": 70,
      "hit": false,
      "t": 50217.32099999998,
      "d": 652.1730000000025,
      "v": 127
    },
    {
      "midi": 61,
      "hit": false,
      "t": 50217.32100000005,
      "d": 652.1730000000025,
      "v": 127
    },
    {
      "midi": 65,
      "hit": false,
      "t": 50217.32100000005,
      "d": 652.1730000000025,
      "v": 127
    },
    {
      "midi": 75,
      "hit": false,
      "t": 50869.493999999984,
      "d": 978.2595000000001,
      "v": 127
    },
    {
      "midi": 55,
      "hit": false,
      "t": 51521.66700000005,
      "d": 652.1730000000025,
      "v": 127
    },
    {
      "midi": 77,
      "hit": false,
      "t": 51847.753499999984,
      "d": 326.0864999999976,
      "v": 127
    },
    {
      "midi": 75,
      "hit": false,
      "t": 52173.83999999998,
      "d": 326.0864999999976,
      "v": 127
    },
    {
      "midi": 58,
      "hit": false,
      "t": 52173.840000000055,
      "d": 652.1730000000025,
      "v": 127
    },
    {
      "midi": 67,
      "hit": false,
      "t": 52173.840000000055,
      "d": 652.1730000000025,
      "v": 127
    },
    {
      "midi": 73,
      "hit": false,
      "t": 52499.92649999998,
      "d": 326.0864999999976,
      "v": 127
    },
    {
      "midi": 70,
      "hit": false,
      "t": 52826.01299999998,
      "d": 326.0864999999976,
      "v": 127
    },
    {
      "midi": 61,
      "hit": false,
      "t": 52826.01300000006,
      "d": 652.1730000000025,
      "v": 127
    },
    {
      "midi": 63,
      "hit": false,
      "t": 52826.01300000006,
      "d": 652.1730000000025,
      "v": 127
    },
    {
      "midi": 63,
      "hit": false,
      "t": 53152.099499999975,
      "d": 326.0864999999976,
      "v": 127
    },
    {
      "midi": 71,
      "hit": false,
      "t": 53478.18599999997,
      "d": 652.1730000000025,
      "v": 127
    },
    {
      "midi": 56,
      "hit": false,
      "t": 53478.18600000006,
      "d": 652.1730000000025,
      "v": 127
    },
    {
      "midi": 68,
      "hit": false,
      "t": 54130.358999999975,
      "d": 652.1730000000025,
      "v": 127
    },
    {
      "midi": 72,
      "hit": false,
      "t": 54130.358999999975,
      "d": 652.1730000000025,
      "v": 127
    },
    {
      "midi": 60,
      "hit": false,
      "t": 54130.35900000006,
      "d": 652.1730000000025,
      "v": 127
    },
    {
      "midi": 63,
      "hit": false,
      "t": 54130.35900000006,
      "d": 652.1730000000025,
      "v": 127
    },
    {
      "midi": 80,
      "hit": false,
      "t": 54782.53199999998,
      "d": 978.2595000000001,
      "v": 127
    },
    {
      "midi": 60,
      "hit": false,
      "t": 55434.70500000007,
      "d": 652.1730000000025,
      "v": 127
    },
    {
      "midi": 82,
      "hit": false,
      "t": 55760.79149999998,
      "d": 326.0864999999976,
      "v": 127
    },
    {
      "midi": 80,
      "hit": false,
      "t": 56086.877999999975,
      "d": 326.0864999999976,
      "v": 127
    },
    {
      "midi": 63,
      "hit": false,
      "t": 56086.87800000007,
      "d": 652.1730000000025,
      "v": 127
    },
    {
      "midi": 72,
      "hit": false,
      "t": 56086.87800000007,
      "d": 652.1730000000025,
      "v": 127
    },
    {
      "midi": 78,
      "hit": false,
      "t": 56412.96449999997,
      "d": 326.0864999999976,
      "v": 127
    },
    {
      "midi": 77,
      "hit": false,
      "t": 56739.05099999997,
      "d": 326.0864999999976,
      "v": 127
    },
    {
      "midi": 66,
      "hit": false,
      "t": 56739.05100000007,
      "d": 652.1730000000025,
      "v": 127
    },
    {
      "midi": 68,
      "hit": false,
      "t": 56739.05100000007,
      "d": 652.1730000000025,
      "v": 127
    },
    {
      "midi": 75,
      "hit": false,
      "t": 57065.13749999997,
      "d": 326.0864999999976,
      "v": 127
    },
    {
      "midi": 78,
      "hit": false,
      "t": 57391.223999999966,
      "d": 652.1730000000025,
      "v": 127
    },
    {
      "midi": 49,
      "hit": false,
      "t": 57391.224000000075,
      "d": 652.1730000000025,
      "v": 127
    },
    {
      "midi": 77,
      "hit": false,
      "t": 58043.39699999997,
      "d": 652.1730000000025,
      "v": 127
    },
    {
      "midi": 56,
      "hit": false,
      "t": 58043.39700000008,
      "d": 652.1730000000025,
      "v": 127
    },
    {
      "midi": 65,
      "hit": false,
      "t": 58043.39700000008,
      "d": 652.1730000000025,
      "v": 127
    },
    {
      "midi": 72,
      "hit": false,
      "t": 58695.56999999997,
      "d": 652.1730000000025,
      "v": 127
    },
    {
      "midi": 57,
      "hit": false,
      "t": 58695.57000000008,
      "d": 652.1730000000025,
      "v": 127
    },
    {
      "midi": 63,
      "hit": false,
      "t": 58695.57000000008,
      "d": 652.1730000000025,
      "v": 127
    },
    {
      "midi": 75,
      "hit": false,
      "t": 59347.74299999997,
      "d": 326.0864999999976,
      "v": 127
    },
    {
      "midi": 53,
      "hit": false,
      "t": 59347.74300000008,
      "d": 652.1730000000025,
      "v": 127
    },
    {
      "midi": 73,
      "hit": false,
      "t": 59673.82949999997,
      "d": 326.0864999999976,
      "v": 127
    },
    {
      "midi": 69,
      "hit": false,
      "t": 59999.91599999997,
      "d": 326.0864999999976,
      "v": 127
    },
    {
      "midi": 63,
      "hit": false,
      "t": 59999.916000000085,
      "d": 652.1730000000025,
      "v": 127
    },
    {
      "midi": 65,
      "hit": false,
      "t": 59999.916000000085,
      "d": 652.1730000000025,
      "v": 127
    },
    {
      "midi": 70,
      "hit": false,
      "t": 60326.002499999966,
      "d": 326.0864999999976,
      "v": 127
    },
    {
      "midi": 72,
      "hit": false,
      "t": 60652.08899999996,
      "d": 326.0864999999976,
      "v": 127
    },
    {
      "midi": 58,
      "hit": false,
      "t": 60652.08900000009,
      "d": 652.1730000000025,
      "v": 127
    },
    {
      "midi": 61,
      "hit": false,
      "t": 60652.08900000009,
      "d": 652.1730000000025,
      "v": 127
    },
    {
      "midi": 73,
      "hit": false,
      "t": 60978.17549999996,
      "d": 326.0864999999976,
      "v": 127
    },
    {
      "midi": 72,
      "hit": false,
      "t": 61304.26199999996,
      "d": 652.1730000000025,
      "v": 127
    },
    {
      "midi": 52,
      "hit": false,
      "t": 61304.26200000009,
      "d": 652.1730000000025,
      "v": 127
    },
    {
      "midi": 64,
      "hit": false,
      "t": 61956.43499999996,
      "d": 652.1730000000025,
      "v": 127
    },
    {
      "midi": 48,
      "hit": false,
      "t": 61956.43500000009,
      "d": 652.1730000000025,
      "v": 127
    },
    {
      "midi": 58,
      "hit": false,
      "t": 61956.43500000009,
      "d": 652.1730000000025,
      "v": 127
    },
    {
      "midi": 70,
      "hit": false,
      "t": 62608.607999999964,
      "d": 652.1730000000025,
      "v": 127
    },
    {
      "midi": 68,
      "hit": false,
      "t": 63260.780999999966,
      "d": 652.1730000000025,
      "v": 127
    },
    {
      "midi": 41,
      "hit": false,
      "t": 63260.7810000001,
      "d": 652.1730000000025,
      "v": 127
    },
    {
      "midi": 61,
      "hit": false,
      "t": 63912.95399999997,
      "d": 652.1730000000025,
      "v": 127
    },
    {
      "midi": 52,
      "hit": false,
      "t": 63912.9540000001,
      "d": 652.1730000000025,
      "v": 127
    },
    {
      "midi": 56,
      "hit": false,
      "t": 63912.9540000001,
      "d": 652.1730000000025,
      "v": 127
    },
    {
      "midi": 67,
      "hit": false,
      "t": 64565.12699999997,
      "d": 1304.3459999999977,
      "v": 127
    },
    {
      "midi": 41,
      "hit": false,
      "t": 65217.300000000105,
      "d": 652.1729999999952,
      "v": 127
    },
    {
      "midi": 65,
      "hit": false,
      "t": 65869.47299999997,
      "d": 652.1729999999952,
      "v": 127
    },
    {
      "midi": 53,
      "hit": false,
      "t": 65869.4730000001,
      "d": 652.1729999999952,
      "v": 127
    },
    {
      "midi": 56,
      "hit": false,
      "t": 65869.4730000001,
      "d": 652.1729999999952,
      "v": 127
    },
    {
      "midi": 60,
      "hit": false,
      "t": 66521.64599999996,
      "d": 652.1729999999952,
      "v": 127
    },
    {
      "midi": 68,
      "hit": false,
      "t": 67173.81899999996,
      "d": 652.1729999999952,
      "v": 127
    },
    {
      "midi": 41,
      "hit": false,
      "t": 67173.81900000009,
      "d": 652.1729999999952,
      "v": 127
    },
    {
      "midi": 61,
      "hit": false,
      "t": 67825.99199999995,
      "d": 652.1729999999952,
      "v": 127
    },
    {
      "midi": 52,
      "hit": false,
      "t": 67825.99200000009,
      "d": 652.1729999999952,
      "v": 127
    },
    {
      "midi": 56,
      "hit": false,
      "t": 67825.99200000009,
      "d": 652.1729999999952,
      "v": 127
    },
    {
      "midi": 67,
      "hit": false,
      "t": 68478.16499999995,
      "d": 1304.346000000005,
      "v": 127
    },
    {
      "midi": 41,
      "hit": false,
      "t": 69130.33800000008,
      "d": 652.1729999999952,
      "v": 127
    },
    {
      "midi": 65,
      "hit": false,
      "t": 69782.51099999995,
      "d": 652.1729999999952,
      "v": 127
    },
    {
      "midi": 53,
      "hit": false,
      "t": 69782.51100000007,
      "d": 652.1729999999952,
      "v": 127
    },
    {
      "midi": 57,
      "hit": false,
      "t": 69782.51100000007,
      "d": 652.1729999999952,
      "v": 127
    },
    {
      "midi": 65,
      "hit": false,
      "t": 70434.68399999995,
      "d": 652.1729999999952,
      "v": 127
    },
    {
      "midi": 39,
      "hit": false,
      "t": 70434.68400000007,
      "d": 652.1729999999952,
      "v": 127
    },
    {
      "midi": 73,
      "hit": false,
      "t": 71086.85699999995,
      "d": 1304.346000000005,
      "v": 127
    },
    {
      "midi": 46,
      "hit": false,
      "t": 71086.85700000006,
      "d": 652.1729999999952,
      "v": 127
    },
    {
      "midi": 60,
      "hit": false,
      "t": 71739.03000000006,
      "d": 652.1729999999952,
      "v": 127
    },
    {
      "midi": 64,
      "hit": false,
      "t": 71739.03000000006,
      "d": 652.1729999999952,
      "v": 127
    },
    {
      "midi": 72,
      "hit": false,
      "t": 72391.20299999995,
      "d": 1304.346000000005,
      "v": 127
    },
    {
      "midi": 44,
      "hit": false,
      "t": 73043.37600000005,
      "d": 652.1729999999952,
      "v": 127
    },
    {
      "midi": 70,
      "hit": false,
      "t": 73695.54899999996,
      "d": 652.1729999999952,
      "v": 127
    },
    {
      "midi": 60,
      "hit": false,
      "t": 73695.54900000004,
      "d": 652.1729999999952,
      "v": 127
    },
    {
      "midi": 65,
      "hit": false,
      "t": 73695.54900000004,
      "d": 652.1729999999952,
      "v": 127
    },
    {
      "midi": 68,
      "hit": false,
      "t": 74347.72199999995,
      "d": 652.1729999999952,
      "v": 127
    },
    {
      "midi": 68,
      "hit": false,
      "t": 74999.89499999995,
      "d": 1304.346000000005,
      "v": 127
    },
    {
      "midi": 43,
      "hit": false,
      "t": 74999.89500000003,
      "d": 652.1729999999952,
      "v": 127
    },
    {
      "midi": 59,
      "hit": false,
      "t": 75652.06800000003,
      "d": 652.1729999999952,
      "v": 127
    },
    {
      "midi": 65,
      "hit": false,
      "t": 75652.06800000003,
      "d": 652.1729999999952,
      "v": 127
    },
    {
      "midi": 67,
      "hit": false,
      "t": 76304.24099999995,
      "d": 1304.346000000005,
      "v": 127
    },
    {
      "midi": 48,
      "hit": false,
      "t": 76956.41400000002,
      "d": 652.1729999999952,
      "v": 127
    },
    {
      "midi": 68,
      "hit": false,
      "t": 77608.58699999996,
      "d": 652.1729999999952,
      "v": 127
    },
    {
      "midi": 52,
      "hit": false,
      "t": 77608.58700000001,
      "d": 652.1729999999952,
      "v": 127
    },
    {
      "midi": 58,
      "hit": false,
      "t": 77608.58700000001,
      "d": 652.1729999999952,
      "v": 127
    },
    {
      "midi": 60,
      "hit": false,
      "t": 78260.75999999995,
      "d": 652.1729999999952,
      "v": 127
    },
    {
      "midi": 72,
      "hit": false,
      "t": 78912.93299999995,
      "d": 1304.346000000005,
      "v": 127
    },
    {
      "midi": 41,
      "hit": false,
      "t": 78912.933,
      "d": 652.1729999999952,
      "v": 127
    },
    {
      "midi": 53,
      "hit": false,
      "t": 79565.106,
      "d": 652.1729999999952,
      "v": 127
    },
    {
      "midi": 56,
      "hit": false,
      "t": 79565.106,
      "d": 652.1729999999952,
      "v": 127
    },
    {
      "midi": 65,
      "hit": false,
      "t": 80217.27899999995,
      "d": 1304.346000000005,
      "v": 127
    },
    {
      "midi": 77,
      "hit": false,
      "t": 80217.27899999995,
      "d": 1304.346000000005,
      "v": 127
    },
    {
      "midi": 43,
      "hit": false,
      "t": 80869.45199999999,
      "d": 652.1729999999952,
      "v": 127
    },
    {
      "midi": 64,
      "hit": false,
      "t": 81521.62499999996,
      "d": 652.1729999999952,
      "v": 127
    },
    {
      "midi": 76,
      "hit": false,
      "t": 81521.62499999996,
      "d": 652.1729999999952,
      "v": 127
    },
    {
      "midi": 58,
      "hit": false,
      "t": 81521.62499999999,
      "d": 652.1729999999952,
      "v": 127
    },
    {
      "midi": 60,
      "hit": false,
      "t": 81521.62499999999,
      "d": 652.1729999999952,
      "v": 127
    },
    {
      "midi": 70,
      "hit": false,
      "t": 82173.79799999995,
      "d": 652.1729999999952,
      "v": 127
    },
    {
      "midi": 82,
      "hit": false,
      "t": 82173.79799999995,
      "d": 652.1729999999952,
      "v": 127
    },
    {
      "midi": 58,
      "hit": false,
      "t": 82173.79799999998,
      "d": 652.1729999999952,
      "v": 127
    },
    {
      "midi": 60,
      "hit": false,
      "t": 82173.79799999998,
      "d": 652.1729999999952,
      "v": 127
    },
    {
      "midi": 68,
      "hit": false,
      "t": 82825.97099999995,
      "d": 1304.346000000005,
      "v": 127
    },
    {
      "midi": 80,
      "hit": false,
      "t": 82825.97099999995,
      "d": 1304.346000000005,
      "v": 127
    },
    {
      "midi": 44,
      "hit": false,
      "t": 82825.97099999998,
      "d": 652.1729999999952,
      "v": 127
    },
    {
      "midi": 60,
      "hit": false,
      "t": 83478.14399999997,
      "d": 652.1729999999952,
      "v": 127
    },
    {
      "midi": 65,
      "hit": false,
      "t": 83478.14399999997,
      "d": 652.1729999999952,
      "v": 127
    },
    {
      "midi": 63,
      "hit": false,
      "t": 84130.31699999995,
      "d": 1304.346000000005,
      "v": 127
    },
    {
      "midi": 75,
      "hit": false,
      "t": 84130.31699999995,
      "d": 1304.346000000005,
      "v": 127
    },
    {
      "midi": 46,
      "hit": false,
      "t": 84782.48999999996,
      "d": 652.1729999999952,
      "v": 127
    },
    {
      "midi": 61,
      "hit": false,
      "t": 85434.66299999996,
      "d": 652.1729999999952,
      "v": 127
    },
    {
      "midi": 73,
      "hit": false,
      "t": 85434.66299999996,
      "d": 652.1729999999952,
      "v": 127
    },
    {
      "midi": 58,
      "hit": false,
      "t": 85434.66299999996,
      "d": 652.1729999999952,
      "v": 127
    },
    {
      "midi": 65,
      "hit": false,
      "t": 85434.66299999996,
      "d": 652.1729999999952,
      "v": 127
    },
    {
      "midi": 68,
      "hit": false,
      "t": 86086.83599999995,
      "d": 652.1729999999952,
      "v": 127
    },
    {
      "midi": 80,
      "hit": false,
      "t": 86086.83599999995,
      "d": 652.1729999999952,
      "v": 127
    },
    {
      "midi": 58,
      "hit": false,
      "t": 86086.83599999995,
      "d": 652.1729999999952,
      "v": 127
    },
    {
      "midi": 61,
      "hit": false,
      "t": 86086.83599999995,
      "d": 652.1729999999952,
      "v": 127
    },
    {
      "midi": 65,
      "hit": false,
      "t": 86086.83599999995,
      "d": 652.1729999999952,
      "v": 127
    },
    {
      "midi": 67,
      "hit": false,
      "t": 86739.00899999995,
      "d": 1304.346000000005,
      "v": 127
    },
    {
      "midi": 79,
      "hit": false,
      "t": 86739.00899999995,
      "d": 1304.346000000005,
      "v": 127
    },
    {
      "midi": 39,
      "hit": false,
      "t": 86739.00899999995,
      "d": 652.1729999999952,
      "v": 127
    },
    {
      "midi": 61,
      "hit": false,
      "t": 87391.18199999994,
      "d": 652.1729999999952,
      "v": 127
    },
    {
      "midi": 63,
      "hit": false,
      "t": 87391.18199999994,
      "d": 652.1729999999952,
      "v": 127
    },
    {
      "midi": 61,
      "hit": false,
      "t": 88043.35499999994,
      "d": 652.1729999999952,
      "v": 127
    },
    {
      "midi": 63,
      "hit": false,
      "t": 88043.35499999994,
      "d": 652.1729999999952,
      "v": 127
    },
    {
      "midi": 70,
      "hit": false,
      "t": 88043.35499999995,
      "d": 652.1729999999952,
      "v": 127
    },
    {
      "midi": 51,
      "hit": false,
      "t": 88695.52799999993,
      "d": 652.1729999999952,
      "v": 127
    },
    {
      "midi": 73,
      "hit": false,
      "t": 88695.52799999995,
      "d": 652.1729999999952,
      "v": 127
    },
    {
      "midi": 53,
      "hit": false,
      "t": 89347.70099999993,
      "d": 652.1729999999952,
      "v": 127
    },
    {
      "midi": 63,
      "hit": false,
      "t": 89347.70099999993,
      "d": 652.1729999999952,
      "v": 127
    },
    {
      "midi": 72,
      "hit": false,
      "t": 89347.70099999994,
      "d": 652.1729999999952,
      "v": 127
    },
    {
      "midi": 55,
      "hit": false,
      "t": 89999.87399999992,
      "d": 652.1729999999952,
      "v": 127
    },
    {
      "midi": 61,
      "hit": false,
      "t": 89999.87399999992,
      "d": 652.1729999999952,
      "v": 127
    },
    {
      "midi": 70,
      "hit": false,
      "t": 89999.87399999994,
      "d": 652.1729999999952,
      "v": 127
    },
    {
      "midi": 56,
      "hit": false,
      "t": 90652.04699999992,
      "d": 652.1729999999952,
      "v": 127
    },
    {
      "midi": 72,
      "hit": false,
      "t": 90652.04699999993,
      "d": 1304.346000000005,
      "v": 127
    },
    {
      "midi": 60,
      "hit": false,
      "t": 91304.21999999991,
      "d": 652.1729999999952,
      "v": 127
    },
    {
      "midi": 65,
      "hit": false,
      "t": 91304.21999999991,
      "d": 652.1729999999952,
      "v": 127
    },
    {
      "midi": 60,
      "hit": false,
      "t": 91956.39299999991,
      "d": 652.1729999999952,
      "v": 127
    },
    {
      "midi": 65,
      "hit": false,
      "t": 91956.39299999991,
      "d": 652.1729999999952,
      "v": 127
    },
    {
      "midi": 77,
      "hit": false,
      "t": 91956.39299999994,
      "d": 1304.346000000005,
      "v": 127
    },
    {
      "midi": 46,
      "hit": false,
      "t": 92608.5659999999,
      "d": 652.1729999999952,
      "v": 127
    },
    {
      "midi": 61,
      "hit": false,
      "t": 93260.7389999999,
      "d": 652.1729999999952,
      "v": 127
    },
    {
      "midi": 65,
      "hit": false,
      "t": 93260.7389999999,
      "d": 652.1729999999952,
      "v": 127
    },
    {
      "midi": 75,
      "hit": false,
      "t": 93586.82549999995,
      "d": 326.0865000000049,
      "v": 127
    },
    {
      "midi": 61,
      "hit": false,
      "t": 93912.9119999999,
      "d": 652.1729999999952,
      "v": 127
    },
    {
      "midi": 65,
      "hit": false,
      "t": 93912.9119999999,
      "d": 652.1729999999952,
      "v": 127
    },
    {
      "midi": 67,
      "hit": false,
      "t": 93912.91199999995,
      "d": 326.0865000000049,
      "v": 127
    },
    {
      "midi": 73,
      "hit": false,
      "t": 94238.99849999996,
      "d": 326.0865000000049,
      "v": 127
    },
    {
      "midi": 48,
      "hit": false,
      "t": 94565.08499999989,
      "d": 652.1729999999952,
      "v": 127
    },
    {
      "midi": 72,
      "hit": false,
      "t": 94565.08499999996,
      "d": 652.1729999999952,
      "v": 127
    },
    {
      "midi": 60,
      "hit": false,
      "t": 95217.25799999989,
      "d": 652.1729999999952,
      "v": 127
    },
    {
      "midi": 65,
      "hit": false,
      "t": 95217.25799999996,
      "d": 652.1729999999952,
      "v": 127
    },
    {
      "midi": 58,
      "hit": false,
      "t": 95869.43099999988,
      "d": 652.1729999999952,
      "v": 127
    },
    {
      "midi": 64,
      "hit": false,
      "t": 95869.43099999995,
      "d": 652.1729999999952,
      "v": 127
    },
    {
      "midi": 70,
      "hit": false,
      "t": 95869.43099999995,
      "d": 652.1729999999952,
      "v": 127
    },
    {
      "midi": 53,
      "hit": false,
      "t": 96521.60399999988,
      "d": 652.1729999999952,
      "v": 127
    },
    {
      "midi": 64,
      "hit": false,
      "t": 96521.60399999995,
      "d": 652.1729999999952,
      "v": 127
    },
    {
      "midi": 56,
      "hit": false,
      "t": 97173.77699999987,
      "d": 652.1729999999952,
      "v": 127
    },
    {
      "midi": 60,
      "hit": false,
      "t": 97173.77699999987,
      "d": 652.1729999999952,
      "v": 127
    },
    {
      "midi": 65,
      "hit": false,
      "t": 97173.77699999994,
      "d": 652.1729999999952,
      "v": 127
    },
    {
      "midi": 68,
      "hit": false,
      "t": 97173.77699999994,
      "d": 652.1729999999952,
      "v": 127
    },
    {
      "midi": 60,
      "hit": false,
      "t": 97825.94999999994,
      "d": 652.1729999999952,
      "v": 127
    },
    {
      "midi": 41,
      "hit": false,
      "t": 98478.12299999986,
      "d": 652.1729999999952,
      "v": 127
    },
    {
      "midi": 68,
      "hit": false,
      "t": 98478.12299999993,
      "d": 652.1729999999952,
      "v": 127
    },
    {
      "midi": 52,
      "hit": false,
      "t": 99130.29599999986,
      "d": 652.1729999999952,
      "v": 127
    },
    {
      "midi": 56,
      "hit": false,
      "t": 99130.29599999986,
      "d": 652.1729999999952,
      "v": 127
    },
    {
      "midi": 61,
      "hit": false,
      "t": 99130.29599999993,
      "d": 652.1729999999952,
      "v": 127
    },
    {
      "midi": 67,
      "hit": false,
      "t": 99782.46899999992,
      "d": 1304.346000000005,
      "v": 127
    },
    {
      "midi": 41,
      "hit": false,
      "t": 100434.64199999985,
      "d": 652.1729999999952,
      "v": 127
    },
    {
      "midi": 53,
      "hit": false,
      "t": 101086.81499999984,
      "d": 652.1729999999952,
      "v": 127
    },
    {
      "midi": 56,
      "hit": false,
      "t": 101086.81499999984,
      "d": 652.1729999999952,
      "v": 127
    },
    {
      "midi": 65,
      "hit": false,
      "t": 101086.81499999993,
      "d": 652.1729999999952,
      "v": 127
    },
    {
      "midi": 60,
      "hit": false,
      "t": 101738.98799999992,
      "d": 652.1729999999952,
      "v": 127
    },
    {
      "midi": 41,
      "hit": false,
      "t": 102391.16099999983,
      "d": 652.1729999999952,
      "v": 127
    },
    {
      "midi": 72,
      "hit": false,
      "t": 102391.16099999992,
      "d": 652.1729999999952,
      "v": 127
    },
    {
      "midi": 52,
      "hit": false,
      "t": 103043.33399999983,
      "d": 652.1729999999952,
      "v": 127
    },
    {
      "midi": 56,
      "hit": false,
      "t": 103043.33399999983,
      "d": 652.1729999999952,
      "v": 127
    },
    {
      "midi": 73,
      "hit": false,
      "t": 103043.33399999992,
      "d": 652.1729999999952,
      "v": 127
    },
    {
      "midi": 70,
      "hit": false,
      "t": 103695.50699999991,
      "d": 1304.346000000005,
      "v": 127
    },
    {
      "midi": 41,
      "hit": false,
      "t": 104347.67999999982,
      "d": 652.1729999999952,
      "v": 127
    },
    {
      "midi": 53,
      "hit": false,
      "t": 104999.85299999981,
      "d": 652.1729999999952,
      "v": 127
    },
    {
      "midi": 57,
      "hit": false,
      "t": 104999.85299999981,
      "d": 652.1729999999952,
      "v": 127
    },
    {
      "midi": 69,
      "hit": false,
      "t": 104999.85299999992,
      "d": 652.1729999999952,
      "v": 127
    },
    {
      "midi": 39,
      "hit": false,
      "t": 105652.02599999981,
      "d": 652.1729999999952,
      "v": 127
    },
    {
      "midi": 72,
      "hit": false,
      "t": 105652.02599999991,
      "d": 652.1729999999952,
      "v": 127
    },
    {
      "midi": 46,
      "hit": false,
      "t": 106304.1989999998,
      "d": 652.1729999999952,
      "v": 127
    },
    {
      "midi": 72,
      "hit": false,
      "t": 106304.1989999999,
      "d": 652.1729999999952,
      "v": 127
    },
    {
      "midi": 58,
      "hit": false,
      "t": 106956.3719999998,
      "d": 652.1729999999952,
      "v": 127
    },
    {
      "midi": 61,
      "hit": false,
      "t": 106956.3719999998,
      "d": 652.1729999999952,
      "v": 127
    },
    {
      "midi": 73,
      "hit": false,
      "t": 106956.3719999999,
      "d": 652.1729999999952,
      "v": 127
    },
    {
      "midi": 58,
      "hit": false,
      "t": 107608.5449999998,
      "d": 652.1729999999952,
      "v": 127
    },
    {
      "midi": 61,
      "hit": false,
      "t": 107608.5449999998,
      "d": 652.1729999999952,
      "v": 127
    },
    {
      "midi": 77,
      "hit": false,
      "t": 107608.5449999999,
      "d": 652.1729999999952,
      "v": 127
    },
    {
      "midi": 39,
      "hit": false,
      "t": 108260.71799999979,
      "d": 652.1729999999952,
      "v": 127
    },
    {
      "midi": 67,
      "hit": false,
      "t": 108260.71799999989,
      "d": 652.1729999999952,
      "v": 127
    },
    {
      "midi": 58,
      "hit": false,
      "t": 108912.89099999978,
      "d": 652.1729999999952,
      "v": 127
    },
    {
      "midi": 75,
      "hit": false,
      "t": 108912.89099999989,
      "d": 652.1729999999952,
      "v": 127
    },
    {
      "midi": 61,
      "hit": false,
      "t": 109565.06399999978,
      "d": 652.1729999999952,
      "v": 127
    },
    {
      "midi": 70,
      "hit": false,
      "t": 109565.06399999988,
      "d": 652.1729999999952,
      "v": 127
    },
    {
      "midi": 73,
      "hit": false,
      "t": 109565.06399999988,
      "d": 652.1729999999952,
      "v": 127
    },
    {
      "midi": 44,
      "hit": false,
      "t": 110217.23699999978,
      "d": 652.1729999999952,
      "v": 127
    },
    {
      "midi": 73,
      "hit": false,
      "t": 110217.23699999988,
      "d": 652.1729999999952,
      "v": 127
    },
    {
      "midi": 56,
      "hit": false,
      "t": 110869.40999999977,
      "d": 652.1729999999952,
      "v": 127
    },
    {
      "midi": 60,
      "hit": false,
      "t": 110869.40999999977,
      "d": 652.1729999999952,
      "v": 127
    },
    {
      "midi": 72,
      "hit": false,
      "t": 110869.40999999987,
      "d": 652.1729999999952,
      "v": 127
    },
    {
      "midi": 54,
      "hit": false,
      "t": 111521.58299999977,
      "d": 652.1729999999952,
      "v": 127
    },
    {
      "midi": 60,
      "hit": false,
      "t": 111521.58299999977,
      "d": 652.1729999999952,
      "v": 127
    },
    {
      "midi": 75,
      "hit": false,
      "t": 111521.58299999987,
      "d": 652.1729999999952,
      "v": 127
    },
    {
      "midi": 37,
      "hit": false,
      "t": 112173.75599999976,
      "d": 652.1729999999952,
      "v": 127
    },
    {
      "midi": 65,
      "hit": false,
      "t": 112173.75599999986,
      "d": 652.1729999999952,
      "v": 127
    },
    {
      "midi": 56,
      "hit": false,
      "t": 112825.92899999976,
      "d": 652.1729999999952,
      "v": 127
    },
    {
      "midi": 73,
      "hit": false,
      "t": 112825.92899999986,
      "d": 652.1729999999952,
      "v": 127
    },
    {
      "midi": 59,
      "hit": false,
      "t": 113478.10199999975,
      "d": 652.1729999999952,
      "v": 127
    },
    {
      "midi": 68,
      "hit": false,
      "t": 113478.10199999985,
      "d": 652.1729999999952,
      "v": 127
    },
    {
      "midi": 71,
      "hit": false,
      "t": 113478.10199999985,
      "d": 652.1729999999952,
      "v": 127
    },
    {
      "midi": 42,
      "hit": false,
      "t": 114130.27499999975,
      "d": 652.1729999999952,
      "v": 127
    },
    {
      "midi": 70,
      "hit": false,
      "t": 114130.27499999985,
      "d": 1304.346000000005,
      "v": 127
    },
    {
      "midi": 60,
      "hit": false,
      "t": 114782.44799999974,
      "d": 652.1729999999952,
      "v": 127
    },
    {
      "midi": 63,
      "hit": false,
      "t": 114782.44799999974,
      "d": 652.1729999999952,
      "v": 127
    },
    {
      "midi": 70,
      "hit": false,
      "t": 115434.62099999985,
      "d": 652.1729999999952,
      "v": 127
    },
    {
      "midi": 41,
      "hit": false,
      "t": 116086.79399999973,
      "d": 652.1729999999952,
      "v": 127
    },
    {
      "midi": 68,
      "hit": false,
      "t": 116086.79399999985,
      "d": 1304.346000000005,
      "v": 127
    },
    {
      "midi": 53,
      "hit": false,
      "t": 116738.96699999973,
      "d": 652.1729999999952,
      "v": 127
    },
    {
      "midi": 61,
      "hit": false,
      "t": 116738.96699999973,
      "d": 652.1729999999952,
      "v": 127
    },
    {
      "midi": 73,
      "hit": false,
      "t": 117391.13999999985,
      "d": 652.1729999999952,
      "v": 127
    },
    {
      "midi": 44,
      "hit": false,
      "t": 118043.31299999972,
      "d": 652.1729999999952,
      "v": 127
    },
    {
      "midi": 68,
      "hit": false,
      "t": 118043.31299999985,
      "d": 652.1729999999952,
      "v": 127
    },
    {
      "midi": 56,
      "hit": false,
      "t": 118695.48599999971,
      "d": 652.1729999999952,
      "v": 127
    },
    {
      "midi": 60,
      "hit": false,
      "t": 118695.48599999971,
      "d": 652.1729999999952,
      "v": 127
    },
    {
      "midi": 66,
      "hit": false,
      "t": 118695.48599999984,
      "d": 489.1297499999928,
      "v": 127
    },
    {
      "midi": 65,
      "hit": false,
      "t": 119184.61574999984,
      "d": 163.04325000000244,
      "v": 127
    },
    {
      "midi": 60,
      "hit": false,
      "t": 119347.65899999971,
      "d": 652.1729999999952,
      "v": 127
    },
    {
      "midi": 63,
      "hit": false,
      "t": 119347.65899999971,
      "d": 652.1729999999952,
      "v": 127
    },
    {
      "midi": 66,
      "hit": false,
      "t": 119347.65899999984,
      "d": 489.1297499999928,
      "v": 127
    },
    {
      "midi": 68,
      "hit": false,
      "t": 119836.78874999983,
      "d": 163.04325000000244,
      "v": 127
    },
    {
      "midi": 37,
      "hit": false,
      "t": 119999.8319999997,
      "d": 652.1729999999952,
      "v": 127
    },
    {
      "midi": 66,
      "hit": false,
      "t": 119999.83199999983,
      "d": 652.1729999999952,
      "v": 127
    },
    {
      "midi": 56,
      "hit": false,
      "t": 120652.0049999997,
      "d": 652.1729999999952,
      "v": 127
    },
    {
      "midi": 65,
      "hit": false,
      "t": 120652.00499999983,
      "d": 652.1729999999952,
      "v": 127
    },
    {
      "midi": 59,
      "hit": false,
      "t": 121304.1779999997,
      "d": 652.1729999999952,
      "v": 127
    },
    {
      "midi": 63,
      "hit": false,
      "t": 121304.17799999983,
      "d": 326.0865000000049,
      "v": 127
    },
    {
      "midi": 61,
      "hit": false,
      "t": 121630.26449999983,
      "d": 326.0865000000049,
      "v": 127
    },
    {
      "midi": 42,
      "hit": false,
      "t": 121956.35099999969,
      "d": 652.1729999999952,
      "v": 127
    },
    {
      "midi": 70,
      "hit": false,
      "t": 121956.35099999984,
      "d": 1304.346000000005,
      "v": 127
    },
    {
      "midi": 60,
      "hit": false,
      "t": 122608.52399999968,
      "d": 652.1729999999952,
      "v": 127
    },
    {
      "midi": 63,
      "hit": false,
      "t": 122608.52399999968,
      "d": 652.1729999999952,
      "v": 127
    },
    {
      "midi": 68,
      "hit": false,
      "t": 123260.69699999984,
      "d": 652.1729999999952,
      "v": 127
    },
    {
      "midi": 41,
      "hit": false,
      "t": 123912.86999999968,
      "d": 652.1729999999952,
      "v": 127
    },
    {
      "midi": 68,
      "hit": false,
      "t": 123912.86999999984,
      "d": 652.1729999999952,
      "v": 127
    },
    {
      "midi": 58,
      "hit": false,
      "t": 124565.04299999967,
      "d": 652.1729999999952,
      "v": 127
    },
    {
      "midi": 73,
      "hit": false,
      "t": 124565.04299999983,
      "d": 652.1729999999952,
      "v": 127
    },
    {
      "midi": 56,
      "hit": false,
      "t": 125217.21599999967,
      "d": 652.1729999999952,
      "v": 127
    },
    {
      "midi": 77,
      "hit": false,
      "t": 125217.21599999983,
      "d": 652.1729999999952,
      "v": 127
    },
    {
      "midi": 44,
      "hit": false,
      "t": 125869.38899999966,
      "d": 652.1729999999952,
      "v": 127
    },
    {
      "midi": 72,
      "hit": false,
      "t": 125869.38899999982,
      "d": 652.1729999999952,
      "v": 127
    },
    {
      "midi": 56,
      "hit": false,
      "t": 126521.56199999966,
      "d": 652.1729999999952,
      "v": 127
    },
    {
      "midi": 60,
      "hit": false,
      "t": 126521.56199999982,
      "d": 652.1729999999952,
      "v": 127
    },
    {
      "midi": 65,
      "hit": false,
      "t": 126521.56199999982,
      "d": 652.1729999999952,
      "v": 127
    },
    {
      "midi": 48,
      "hit": false,
      "t": 127173.73499999965,
      "d": 652.1729999999952,
      "v": 127
    },
    {
      "midi": 64,
      "hit": false,
      "t": 127173.73499999981,
      "d": 652.1729999999952,
      "v": 127
    },
    {
      "midi": 53,
      "hit": false,
      "t": 127825.90799999965,
      "d": 652.1729999999952,
      "v": 127
    },
    {
      "midi": 64,
      "hit": false,
      "t": 127825.9079999998,
      "d": 652.1729999999952,
      "v": 127
    },
    {
      "midi": 56,
      "hit": false,
      "t": 128478.08099999964,
      "d": 652.1729999999952,
      "v": 127
    },
    {
      "midi": 60,
      "hit": false,
      "t": 128478.08099999964,
      "d": 652.1729999999952,
      "v": 127
    },
    {
      "midi": 65,
      "hit": false,
      "t": 128478.0809999998,
      "d": 652.1729999999952,
      "v": 127
    }
  ]
}