{
  "jsonPath": "Unknown/Unknown/George O'Dowd/karma-chameleon.json",
  "path": "Unknown\\Unknown\\George O'Dowd\\Karma Chameleon.mid",
  "name": "Karma Chameleon",
  "difficulty": "Advanced",
  "bpm": 184.00053973491654,
  "notes": [
    {
      "midi": 65,
      "hit": false,
      "t": 652.172,
      "d": 326.086,
      "v": 100
    },
    {
      "midi": 67,
      "hit": false,
      "t": 978.258,
      "d": 326.086,
      "v": 100
    },
    {
      "midi": 70,
      "hit": false,
      "t": 1304.344,
      "d": 326.086,
      "v": 100
    },
    {
      "midi": 46,
      "hit": false,
      "t": 1304.344,
      "d": 489.1289999999999,
      "v": 100
    },
    {
      "midi": 70,
      "hit": false,
      "t": 1630.43,
      "d": 163.0429999999999,
      "v": 100
    },
    {
      "midi": 72,
      "hit": false,
      "t": 1793.473,
      "d": 489.1289999999999,
      "v": 100
    },
    {
      "midi": 55,
      "hit": false,
      "t": 1793.473,
      "d": 489.1289999999999,
      "v": 100
    },
    {
      "midi": 74,
      "hit": false,
      "t": 2282.602,
      "d": 326.08600000000024,
      "v": 100
    },
    {
      "midi": 53,
      "hit": false,
      "t": 2282.602,
      "d": 326.08600000000024,
      "v": 100
    },
    {
      "midi": 72,
      "hit": false,
      "t": 2608.688,
      "d": 489.1289999999999,
      "v": 100
    },
    {
      "midi": 41,
      "hit": false,
      "t": 2608.688,
      "d": 489.1289999999999,
      "v": 100
    },
    {
      "midi": 65,
      "hit": false,
      "t": 3097.817,
      "d": 489.1289999999999,
      "v": 100
    },
    {
      "midi": 74,
      "hit": false,
      "t": 3097.817,
      "d": 489.1289999999999,
      "v": 100
    },
    {
      "midi": 50,
      "hit": false,
      "t": 3097.817,
      "d": 489.1289999999999,
      "v": 100
    },
    {
      "midi": 63,
      "hit": false,
      "t": 3586.946,
      "d": 326.08600000000024,
      "v": 100
    },
    {
      "midi": 72,
      "hit": false,
      "t": 3586.946,
      "d": 326.08600000000024,
      "v": 100
    },
    {
      "midi": 48,
      "hit": false,
      "t": 3586.946,
      "d": 326.08600000000024,
      "v": 100
    },
    {
      "midi": 62,
      "hit": false,
      "t": 3913.032,
      "d": 1304.344,
      "v": 100
    },
    {
      "midi": 70,
      "hit": false,
      "t": 3913.032,
      "d": 1304.344,
      "v": 100
    },
    {
      "midi": 46,
      "hit": false,
      "t": 3913.032,
      "d": 489.1289999999999,
      "v": 100
    },
    {
      "midi": 55,
      "hit": false,
      "t": 4402.161,
      "d": 489.1289999999999,
      "v": 100
    },
    {
      "midi": 53,
      "hit": false,
      "t": 4891.29,
      "d": 326.08600000000024,
      "v": 100
    },
    {
      "midi": 46,
      "hit": false,
      "t": 5217.376,
      "d": 489.1289999999999,
      "v": 100
    },
    {
      "midi": 65,
      "hit": false,
      "t": 5706.505,
      "d": 326.08600000000024,
      "v": 100
    },
    {
      "midi": 55,
      "hit": false,
      "t": 5706.505,
      "d": 489.1289999999999,
      "v": 100
    },
    {
      "midi": 67,
      "hit": false,
      "t": 6032.591,
      "d": 489.1289999999999,
      "v": 100
    },
    {
      "midi": 53,
      "hit": false,
      "t": 6195.634,
      "d": 326.08600000000024,
      "v": 100
    },
    {
      "midi": 70,
      "hit": false,
      "t": 6521.72,
      "d": 326.08600000000024,
      "v": 100
    },
    {
      "midi": 46,
      "hit": false,
      "t": 6521.72,
      "d": 489.1289999999999,
      "v": 100
    },
    {
      "midi": 70,
      "hit": false,
      "t": 6847.8060000000005,
      "d": 163.04299999999967,
      "v": 100
    },
    {
      "midi": 72,
      "hit": false,
      "t": 7010.849,
      "d": 326.08600000000024,
      "v": 100
    },
    {
      "midi": 55,
      "hit": false,
      "t": 7010.849,
      "d": 489.1289999999999,
      "v": 100
    },
    {
      "midi": 74,
      "hit": false,
      "t": 7336.935,
      "d": 326.08600000000024,
      "v": 100
    },
    {
      "midi": 53,
      "hit": false,
      "t": 7499.978,
      "d": 326.08600000000024,
      "v": 100
    },
    {
      "midi": 72,
      "hit": false,
      "t": 7663.021000000001,
      "d": 652.1720000000005,
      "v": 100
    },
    {
      "midi": 41,
      "hit": false,
      "t": 7826.064,
      "d": 489.1290000000008,
      "v": 100
    },
    {
      "midi": 73,
      "hit": false,
      "t": 8315.193000000001,
      "d": 163.04299999999967,
      "v": 100
    },
    {
      "midi": 50,
      "hit": false,
      "t": 8315.193000000001,
      "d": 489.1290000000008,
      "v": 100
    },
    {
      "midi": 72,
      "hit": false,
      "t": 8478.236,
      "d": 326.08599999999933,
      "v": 100
    },
    {
      "midi": 70,
      "hit": false,
      "t": 8804.322,
      "d": 326.08599999999933,
      "v": 100
    },
    {
      "midi": 48,
      "hit": false,
      "t": 8804.322000000002,
      "d": 326.08599999999933,
      "v": 100
    },
    {
      "midi": 70,
      "hit": false,
      "t": 9130.408,
      "d": 1304.344000000001,
      "v": 100
    },
    {
      "midi": 46,
      "hit": false,
      "t": 9130.408000000001,
      "d": 489.1290000000008,
      "v": 100
    },
    {
      "midi": 55,
      "hit": false,
      "t": 9619.537000000002,
      "d": 489.1290000000008,
      "v": 100
    },
    {
      "midi": 53,
      "hit": false,
      "t": 10108.666000000003,
      "d": 326.08599999999933,
      "v": 100
    },
    {
      "midi": 46,
      "hit": false,
      "t": 10434.752000000002,
      "d": 489.1290000000008,
      "v": 100
    },
    {
      "midi": 74,
      "hit": false,
      "t": 10923.881000000001,
      "d": 489.1290000000008,
      "v": 100
    },
    {
      "midi": 46,
      "hit": false,
      "t": 10923.881000000003,
      "d": 489.1290000000008,
      "v": 100
    },
    {
      "midi": 72,
      "hit": false,
      "t": 11413.010000000002,
      "d": 326.08599999999933,
      "v": 100
    },
    {
      "midi": 53,
      "hit": false,
      "t": 11413.010000000004,
      "d": 326.08599999999933,
      "v": 100
    },
    {
      "midi": 70,
      "hit": false,
      "t": 11739.096000000001,
      "d": 1304.344000000001,
      "v": 100
    },
    {
      "midi": 51,
      "hit": false,
      "t": 11739.096000000003,
      "d": 489.1290000000008,
      "v": 100
    },
    {
      "midi": 55,
      "hit": false,
      "t": 11739.096000000003,
      "d": 489.1290000000008,
      "v": 100
    },
    {
      "midi": 51,
      "hit": false,
      "t": 12228.225000000004,
      "d": 489.1290000000008,
      "v": 100
    },
    {
      "midi": 55,
      "hit": false,
      "t": 12228.225000000004,
      "d": 489.1290000000008,
      "v": 100
    },
    {
      "midi": 51,
      "hit": false,
      "t": 12717.354000000005,
      "d": 326.08599999999933,
      "v": 100
    },
    {
      "midi": 55,
      "hit": false,
      "t": 12717.354000000005,
      "d": 326.08599999999933,
      "v": 100
    },
    {
      "midi": 51,
      "hit": false,
      "t": 13043.440000000004,
      "d": 489.1290000000008,
      "v": 100
    },
    {
      "midi": 55,
      "hit": false,
      "t": 13043.440000000004,
      "d": 489.1290000000008,
      "v": 100
    },
    {
      "midi": 70,
      "hit": false,
      "t": 13369.526000000002,
      "d": 163.04299999999967,
      "v": 100
    },
    {
      "midi": 69,
      "hit": false,
      "t": 13532.569000000001,
      "d": 489.1290000000008,
      "v": 100
    },
    {
      "midi": 51,
      "hit": false,
      "t": 13532.569000000005,
      "d": 489.1290000000008,
      "v": 100
    },
    {
      "midi": 55,
      "hit": false,
      "t": 13532.569000000005,
      "d": 489.1290000000008,
      "v": 100
    },
    {
      "midi": 70,
      "hit": false,
      "t": 14021.698000000002,
      "d": 326.08599999999933,
      "v": 100
    },
    {
      "midi": 51,
      "hit": false,
      "t": 14021.698000000006,
      "d": 326.08599999999933,
      "v": 100
    },
    {
      "midi": 55,
      "hit": false,
      "t": 14021.698000000006,
      "d": 326.08599999999933,
      "v": 100
    },
    {
      "midi": 72,
      "hit": false,
      "t": 14347.784000000001,
      "d": 489.1290000000008,
      "v": 100
    },
    {
      "midi": 53,
      "hit": false,
      "t": 14347.784000000005,
      "d": 489.1290000000008,
      "v": 100
    },
    {
      "midi": 56,
      "hit": false,
      "t": 14347.784000000005,
      "d": 489.1290000000008,
      "v": 100
    },
    {
      "midi": 74,
      "hit": false,
      "t": 14836.913000000002,
      "d": 815.2150000000001,
      "v": 100
    },
    {
      "midi": 53,
      "hit": false,
      "t": 14836.913000000006,
      "d": 489.1290000000008,
      "v": 100
    },
    {
      "midi": 56,
      "hit": false,
      "t": 14836.913000000006,
      "d": 489.1290000000008,
      "v": 100
    },
    {
      "midi": 53,
      "hit": false,
      "t": 15326.042000000007,
      "d": 326.08599999999933,
      "v": 100
    },
    {
      "midi": 56,
      "hit": false,
      "t": 15326.042000000007,
      "d": 326.08599999999933,
      "v": 100
    },
    {
      "midi": 53,
      "hit": false,
      "t": 15652.128000000006,
      "d": 489.1290000000008,
      "v": 100
    },
    {
      "midi": 56,
      "hit": false,
      "t": 15652.128000000006,
      "d": 489.1290000000008,
      "v": 100
    },
    {
      "midi": 74,
      "hit": false,
      "t": 16141.257000000003,
      "d": 489.128999999999,
      "v": 100
    },
    {
      "midi": 53,
      "hit": false,
      "t": 16141.257000000007,
      "d": 489.128999999999,
      "v": 100
    },
    {
      "midi": 56,
      "hit": false,
      "t": 16141.257000000007,
      "d": 489.128999999999,
      "v": 100
    },
    {
      "midi": 72,
      "hit": false,
      "t": 16630.386000000002,
      "d": 326.08599999999933,
      "v": 100
    },
    {
      "midi": 53,
      "hit": false,
      "t": 16630.386000000006,
      "d": 326.08599999999933,
      "v": 100
    },
    {
      "midi": 56,
      "hit": false,
      "t": 16630.386000000006,
      "d": 326.08599999999933,
      "v": 100
    },
    {
      "midi": 70,
      "hit": false,
      "t": 16956.472,
      "d": 1304.344000000001,
      "v": 100
    },
    {
      "midi": 51,
      "hit": false,
      "t": 16956.472000000005,
      "d": 489.1290000000008,
      "v": 100
    },
    {
      "midi": 55,
      "hit": false,
      "t": 16956.472000000005,
      "d": 489.1290000000008,
      "v": 100
    },
    {
      "midi": 51,
      "hit": false,
      "t": 17445.601000000006,
      "d": 489.1290000000008,
      "v": 100
    },
    {
      "midi": 55,
      "hit": false,
      "t": 17445.601000000006,
      "d": 489.1290000000008,
      "v": 100
    },
    {
      "midi": 51,
      "hit": false,
      "t": 17934.730000000007,
      "d": 326.08599999999933,
      "v": 100
    },
    {
      "midi": 55,
      "hit": false,
      "t": 17934.730000000007,
      "d": 326.08599999999933,
      "v": 100
    },
    {
      "midi": 51,
      "hit": false,
      "t": 18260.816000000006,
      "d": 489.1290000000008,
      "v": 100
    },
    {
      "midi": 55,
      "hit": false,
      "t": 18260.816000000006,
      "d": 489.1290000000008,
      "v": 100
    },
    {
      "midi": 70,
      "hit": false,
      "t": 18586.902000000002,
      "d": 163.04300000000148,
      "v": 100
    },
    {
      "midi": 69,
      "hit": false,
      "t": 18749.945000000003,
      "d": 489.1290000000008,
      "v": 100
    },
    {
      "midi": 51,
      "hit": false,
      "t": 18749.945000000007,
      "d": 489.1290000000008,
      "v": 100
    },
    {
      "midi": 55,
      "hit": false,
      "t": 18749.945000000007,
      "d": 489.1290000000008,
      "v": 100
    },
    {
      "midi": 70,
      "hit": false,
      "t": 19239.074000000004,
      "d": 326.08599999999933,
      "v": 100
    },
    {
      "midi": 51,
      "hit": false,
      "t": 19239.074000000008,
      "d": 326.08599999999933,
      "v": 100
    },
    {
      "midi": 55,
      "hit": false,
      "t": 19239.074000000008,
      "d": 326.08599999999933,
      "v": 100
    },
    {
      "midi": 72,
      "hit": false,
      "t": 19565.160000000003,
      "d": 1304.344000000001,
      "v": 100
    },
    {
      "midi": 53,
      "hit": false,
      "t": 19565.160000000007,
      "d": 489.1290000000008,
      "v": 100
    },
    {
      "midi": 56,
      "hit": false,
      "t": 19565.160000000007,
      "d": 489.1290000000008,
      "v": 100
    },
    {
      "midi": 53,
      "hit": false,
      "t": 20054.289000000008,
      "d": 489.1290000000008,
      "v": 100
    },
    {
      "midi": 56,
      "hit": false,
      "t": 20054.289000000008,
      "d": 489.1290000000008,
      "v": 100
    },
    {
      "midi": 53,
      "hit": false,
      "t": 20543.41800000001,
      "d": 326.08599999999933,
      "v": 100
    },
    {
      "midi": 56,
      "hit": false,
      "t": 20543.41800000001,
      "d": 326.08599999999933,
      "v": 100
    },
    {
      "midi": 53,
      "hit": false,
      "t": 20869.504000000008,
      "d": 489.1290000000008,
      "v": 100
    },
    {
      "midi": 56,
      "hit": false,
      "t": 20869.504000000008,
      "d": 489.1290000000008,
      "v": 100
    },
    {
      "midi": 74,
      "hit": false,
      "t": 21358.633000000005,
      "d": 489.1290000000008,
      "v": 100
    },
    {
      "midi": 53,
      "hit": false,
      "t": 21358.63300000001,
      "d": 489.1290000000008,
      "v": 100
    },
    {
      "midi": 56,
      "hit": false,
      "t": 21358.63300000001,
      "d": 489.1290000000008,
      "v": 100
    },
    {
      "midi": 72,
      "hit": false,
      "t": 21847.762000000006,
      "d": 326.08599999999933,
      "v": 100
    },
    {
      "midi": 53,
      "hit": false,
      "t": 21847.76200000001,
      "d": 326.08599999999933,
      "v": 100
    },
    {
      "midi": 56,
      "hit": false,
      "t": 21847.76200000001,
      "d": 326.08599999999933,
      "v": 100
    },
    {
      "midi": 70,
      "hit": false,
      "t": 22173.848000000005,
      "d": 1304.344000000001,
      "v": 100
    },
    {
      "midi": 51,
      "hit": false,
      "t": 22173.84800000001,
      "d": 489.1290000000008,
      "v": 100
    },
    {
      "midi": 55,
      "hit": false,
      "t": 22173.84800000001,
      "d": 489.1290000000008,
      "v": 100
    },
    {
      "midi": 51,
      "hit": false,
      "t": 22662.97700000001,
      "d": 489.1290000000008,
      "v": 100
    },
    {
      "midi": 55,
      "hit": false,
      "t": 22662.97700000001,
      "d": 489.1290000000008,
      "v": 100
    },
    {
      "midi": 51,
      "hit": false,
      "t": 23152.10600000001,
      "d": 326.08599999999933,
      "v": 100
    },
    {
      "midi": 55,
      "hit": false,
      "t": 23152.10600000001,
      "d": 326.08599999999933,
      "v": 100
    },
    {
      "midi": 51,
      "hit": false,
      "t": 23478.19200000001,
      "d": 489.1290000000008,
      "v": 100
    },
    {
      "midi": 55,
      "hit": false,
      "t": 23478.19200000001,
      "d": 489.1290000000008,
      "v": 100
    },
    {
      "midi": 70,
      "hit": false,
      "t": 23804.278000000006,
      "d": 163.04300000000148,
      "v": 100
    },
    {
      "midi": 69,
      "hit": false,
      "t": 23967.321000000007,
      "d": 489.1290000000008,
      "v": 100
    },
    {
      "midi": 51,
      "hit": false,
      "t": 23967.32100000001,
      "d": 489.1290000000008,
      "v": 100
    },
    {
      "midi": 55,
      "hit": false,
      "t": 23967.32100000001,
      "d": 489.1290000000008,
      "v": 100
    },
    {
      "midi": 70,
      "hit": false,
      "t": 24456.450000000008,
      "d": 326.08599999999933,
      "v": 100
    },
    {
      "midi": 51,
      "hit": false,
      "t": 24456.45000000001,
      "d": 326.08599999999933,
      "v": 100
    },
    {
      "midi": 55,
      "hit": false,
      "t": 24456.45000000001,
      "d": 326.08599999999933,
      "v": 100
    },
    {
      "midi": 72,
      "hit": false,
      "t": 24782.536000000007,
      "d": 489.1290000000008,
      "v": 100
    },
    {
      "midi": 53,
      "hit": false,
      "t": 24782.53600000001,
      "d": 489.1290000000008,
      "v": 100
    },
    {
      "midi": 56,
      "hit": false,
      "t": 24782.53600000001,
      "d": 489.1290000000008,
      "v": 100
    },
    {
      "midi": 74,
      "hit": false,
      "t": 25271.665000000008,
      "d": 815.2150000000001,
      "v": 100
    },
    {
      "midi": 53,
      "hit": false,
      "t": 25271.66500000001,
      "d": 489.1290000000008,
      "v": 100
    },
    {
      "midi": 56,
      "hit": false,
      "t": 25271.66500000001,
      "d": 489.1290000000008,
      "v": 100
    },
    {
      "midi": 53,
      "hit": false,
      "t": 25760.794000000013,
      "d": 326.08599999999933,
      "v": 100
    },
    {
      "midi": 56,
      "hit": false,
      "t": 25760.794000000013,
      "d": 326.08599999999933,
      "v": 100
    },
    {
      "midi": 53,
      "hit": false,
      "t": 26086.880000000012,
      "d": 489.1290000000008,
      "v": 100
    },
    {
      "midi": 56,
      "hit": false,
      "t": 26086.880000000012,
      "d": 489.1290000000008,
      "v": 100
    },
    {
      "midi": 74,
      "hit": false,
      "t": 26412.966000000008,
      "d": 163.04300000000148,
      "v": 100
    },
    {
      "midi": 72,
      "hit": false,
      "t": 26576.00900000001,
      "d": 489.1290000000008,
      "v": 100
    },
    {
      "midi": 53,
      "hit": false,
      "t": 26576.009000000013,
      "d": 489.1290000000008,
      "v": 100
    },
    {
      "midi": 56,
      "hit": false,
      "t": 26576.009000000013,
      "d": 489.1290000000008,
      "v": 100
    },
    {
      "midi": 70,
      "hit": false,
      "t": 27065.13800000001,
      "d": 326.08599999999933,
      "v": 100
    },
    {
      "midi": 53,
      "hit": false,
      "t": 27065.138000000014,
      "d": 326.08599999999933,
      "v": 100
    },
    {
      "midi": 56,
      "hit": false,
      "t": 27065.138000000014,
      "d": 326.08599999999933,
      "v": 100
    },
    {
      "midi": 64,
      "hit": false,
      "t": 27391.22400000001,
      "d": 1304.344000000001,
      "v": 100
    },
    {
      "midi": 70,
      "hit": false,
      "t": 27391.22400000001,
      "d": 1304.344000000001,
      "v": 100
    },
    {
      "midi": 48,
      "hit": false,
      "t": 27391.224000000013,
      "d": 489.1290000000008,
      "v": 100
    },
    {
      "midi": 48,
      "hit": false,
      "t": 27880.353000000014,
      "d": 489.1290000000008,
      "v": 100
    },
    {
      "midi": 48,
      "hit": false,
      "t": 28369.482000000015,
      "d": 326.08599999999933,
      "v": 100
    },
    {
      "midi": 48,
      "hit": false,
      "t": 28695.568000000014,
      "d": 489.1290000000008,
      "v": 100
    },
    {
      "midi": 74,
      "hit": false,
      "t": 29021.65400000001,
      "d": 163.04300000000148,
      "v": 100
    },
    {
      "midi": 72,
      "hit": false,
      "t": 29184.69700000001,
      "d": 489.1290000000008,
      "v": 100
    },
    {
      "midi": 48,
      "hit": false,
      "t": 29184.697000000015,
      "d": 489.1290000000008,
      "v": 100
    },
    {
      "midi": 70,
      "hit": false,
      "t": 29673.826000000012,
      "d": 326.08599999999933,
      "v": 100
    },
    {
      "midi": 48,
      "hit": false,
      "t": 29673.826000000015,
      "d": 326.08599999999933,
      "v": 100
    },
    {
      "midi": 62,
      "hit": false,
      "t": 29999.91200000001,
      "d": 1304.344000000001,
      "v": 100
    },
    {
      "midi": 70,
      "hit": false,
      "t": 29999.91200000001,
      "d": 1304.344000000001,
      "v": 100
    },
    {
      "midi": 55,
      "hit": false,
      "t": 29999.912000000015,
      "d": 489.1290000000008,
      "v": 100
    },
    {
      "midi": 55,
      "hit": false,
      "t": 30489.041000000016,
      "d": 489.1290000000008,
      "v": 100
    },
    {
      "midi": 55,
      "hit": false,
      "t": 30978.170000000016,
      "d": 326.08599999999933,
      "v": 100
    },
    {
      "midi": 60,
      "hit": false,
      "t": 31304.256000000012,
      "d": 326.08599999999933,
      "v": 100
    },
    {
      "midi": 69,
      "hit": false,
      "t": 31304.256000000012,
      "d": 326.08599999999933,
      "v": 100
    },
    {
      "midi": 53,
      "hit": false,
      "t": 31304.256000000016,
      "d": 489.1290000000008,
      "v": 100
    },
    {
      "midi": 53,
      "hit": false,
      "t": 31793.385000000017,
      "d": 489.1290000000008,
      "v": 100
    },
    {
      "midi": 41,
      "hit": false,
      "t": 32282.514000000017,
      "d": 326.08599999999933,
      "v": 100
    },
    {
      "midi": 74,
      "hit": false,
      "t": 32445.55700000001,
      "d": 326.08599999999933,
      "v": 100
    },
    {
      "midi": 46,
      "hit": false,
      "t": 32608.600000000017,
      "d": 489.1289999999972,
      "v": 100
    },
    {
      "midi": 74,
      "hit": false,
      "t": 32771.64300000001,
      "d": 163.04299999999785,
      "v": 100
    },
    {
      "midi": 74,
      "hit": false,
      "t": 32934.68600000001,
      "d": 163.04299999999785,
      "v": 100
    },
    {
      "midi": 74,
      "hit": false,
      "t": 33097.72900000001,
      "d": 163.04299999999785,
      "v": 100
    },
    {
      "midi": 46,
      "hit": false,
      "t": 33097.729000000014,
      "d": 489.1290000000008,
      "v": 100
    },
    {
      "midi": 74,
      "hit": false,
      "t": 33260.772000000004,
      "d": 163.04299999999785,
      "v": 100
    },
    {
      "midi": 74,
      "hit": false,
      "t": 33423.815,
      "d": 163.04299999999785,
      "v": 100
    },
    {
      "midi": 74,
      "hit": false,
      "t": 33586.858,
      "d": 163.04299999999785,
      "v": 100
    },
    {
      "midi": 46,
      "hit": false,
      "t": 33586.858000000015,
      "d": 326.08600000000297,
      "v": 100
    },
    {
      "midi": 74,
      "hit": false,
      "t": 33749.901,
      "d": 163.04299999999785,
      "v": 100
    },
    {
      "midi": 72,
      "hit": false,
      "t": 33912.943999999996,
      "d": 163.04299999999785,
      "v": 100
    },
    {
      "midi": 45,
      "hit": false,
      "t": 33912.94400000002,
      "d": 489.1290000000008,
      "v": 100
    },
    {
      "midi": 72,
      "hit": false,
      "t": 34075.986999999994,
      "d": 163.04299999999785,
      "v": 100
    },
    {
      "midi": 72,
      "hit": false,
      "t": 34239.02999999999,
      "d": 163.04299999999785,
      "v": 100
    },
    {
      "midi": 74,
      "hit": false,
      "t": 34402.07299999999,
      "d": 489.1290000000008,
      "v": 100
    },
    {
      "midi": 45,
      "hit": false,
      "t": 34402.07300000002,
      "d": 489.1290000000008,
      "v": 100
    },
    {
      "midi": 72,
      "hit": false,
      "t": 34891.20199999999,
      "d": 326.08600000000297,
      "v": 100
    },
    {
      "midi": 45,
      "hit": false,
      "t": 34891.20200000002,
      "d": 326.08600000000297,
      "v": 100
    },
    {
      "midi": 62,
      "hit": false,
      "t": 35217.28799999999,
      "d": 1304.3439999999973,
      "v": 100
    },
    {
      "midi": 70,
      "hit": false,
      "t": 35217.28799999999,
      "d": 1304.3439999999973,
      "v": 100
    },
    {
      "midi": 43,
      "hit": false,
      "t": 35217.28800000002,
      "d": 489.1290000000008,
      "v": 100
    },
    {
      "midi": 43,
      "hit": false,
      "t": 35706.41700000002,
      "d": 489.1290000000008,
      "v": 100
    },
    {
      "midi": 43,
      "hit": false,
      "t": 36195.546000000024,
      "d": 326.08600000000297,
      "v": 100
    },
    {
      "midi": 43,
      "hit": false,
      "t": 36521.63200000003,
      "d": 489.1290000000008,
      "v": 100
    },
    {
      "midi": 70,
      "hit": false,
      "t": 36847.71799999999,
      "d": 163.04299999999785,
      "v": 100
    },
    {
      "midi": 69,
      "hit": false,
      "t": 37010.76099999999,
      "d": 489.1290000000008,
      "v": 100
    },
    {
      "midi": 43,
      "hit": false,
      "t": 37010.76100000003,
      "d": 489.1290000000008,
      "v": 100
    },
    {
      "midi": 70,
      "hit": false,
      "t": 37499.88999999999,
      "d": 326.08600000000297,
      "v": 100
    },
    {
      "midi": 43,
      "hit": false,
      "t": 37499.89000000003,
      "d": 326.08600000000297,
      "v": 100
    },
    {
      "midi": 63,
      "hit": false,
      "t": 37825.975999999995,
      "d": 1304.3439999999973,
      "v": 100
    },
    {
      "midi": 72,
      "hit": false,
      "t": 37825.975999999995,
      "d": 1304.3439999999973,
      "v": 100
    },
    {
      "midi": 48,
      "hit": false,
      "t": 37825.97600000003,
      "d": 489.1290000000008,
      "v": 100
    },
    {
      "midi": 48,
      "hit": false,
      "t": 38315.10500000003,
      "d": 489.1290000000008,
      "v": 100
    },
    {
      "midi": 48,
      "hit": false,
      "t": 38804.23400000003,
      "d": 326.08600000000297,
      "v": 100
    },
    {
      "midi": 48,
      "hit": false,
      "t": 39130.320000000036,
      "d": 489.1290000000008,
      "v": 100
    },
    {
      "midi": 74,
      "hit": false,
      "t": 39456.405999999995,
      "d": 163.04299999999785,
      "v": 100
    },
    {
      "midi": 72,
      "hit": false,
      "t": 39619.44899999999,
      "d": 489.1290000000008,
      "v": 100
    },
    {
      "midi": 48,
      "hit": false,
      "t": 39619.44900000004,
      "d": 489.1290000000008,
      "v": 100
    },
    {
      "midi": 70,
      "hit": false,
      "t": 40108.577999999994,
      "d": 326.08600000000297,
      "v": 100
    },
    {
      "midi": 48,
      "hit": false,
      "t": 40108.57800000004,
      "d": 326.08600000000297,
      "v": 100
    },
    {
      "midi": 70,
      "hit": false,
      "t": 40434.664,
      "d": 815.2149999999965,
      "v": 100
    },
    {
      "midi": 53,
      "hit": false,
      "t": 40434.66400000004,
      "d": 489.1290000000008,
      "v": 100
    },
    {
      "midi": 53,
      "hit": false,
      "t": 40923.79300000004,
      "d": 489.1290000000008,
      "v": 100
    },
    {
      "midi": 72,
      "hit": false,
      "t": 41249.87899999999,
      "d": 163.04299999999785,
      "v": 100
    },
    {
      "midi": 74,
      "hit": false,
      "t": 41412.92199999999,
      "d": 326.08600000000297,
      "v": 100
    },
    {
      "midi": 53,
      "hit": false,
      "t": 41412.92200000004,
      "d": 326.08600000000297,
      "v": 100
    },
    {
      "midi": 60,
      "hit": false,
      "t": 41739.007999999994,
      "d": 978.2580000000016,
      "v": 100
    },
    {
      "midi": 69,
      "hit": false,
      "t": 41739.007999999994,
      "d": 978.2580000000016,
      "v": 100
    },
    {
      "midi": 72,
      "hit": false,
      "t": 41739.007999999994,
      "d": 978.2580000000016,
      "v": 100
    },
    {
      "midi": 53,
      "hit": false,
      "t": 41739.008000000045,
      "d": 489.1290000000008,
      "v": 100
    },
    {
      "midi": 53,
      "hit": false,
      "t": 42228.137000000046,
      "d": 489.1290000000008,
      "v": 100
    },
    {
      "midi": 41,
      "hit": false,
      "t": 42717.26600000005,
      "d": 326.08600000000297,
      "v": 100
    },
    {
      "midi": 74,
      "hit": false,
      "t": 43043.352,
      "d": 163.04299999999785,
      "v": 100
    },
    {
      "midi": 46,
      "hit": false,
      "t": 43043.35200000005,
      "d": 489.1290000000008,
      "v": 100
    },
    {
      "midi": 74,
      "hit": false,
      "t": 43206.395,
      "d": 163.04299999999785,
      "v": 100
    },
    {
      "midi": 74,
      "hit": false,
      "t": 43369.437999999995,
      "d": 163.04299999999785,
      "v": 100
    },
    {
      "midi": 74,
      "hit": false,
      "t": 43532.48099999999,
      "d": 163.04299999999785,
      "v": 100
    },
    {
      "midi": 46,
      "hit": false,
      "t": 43532.48100000005,
      "d": 489.1290000000008,
      "v": 100
    },
    {
      "midi": 74,
      "hit": false,
      "t": 43695.52399999999,
      "d": 163.04299999999785,
      "v": 100
    },
    {
      "midi": 74,
      "hit": false,
      "t": 43858.56699999999,
      "d": 163.04299999999785,
      "v": 100
    },
    {
      "midi": 74,
      "hit": false,
      "t": 44021.609999999986,
      "d": 163.04299999999785,
      "v": 100
    },
    {
      "midi": 46,
      "hit": false,
      "t": 44021.61000000005,
      "d": 326.08600000000297,
      "v": 100
    },
    {
      "midi": 74,
      "hit": false,
      "t": 44184.652999999984,
      "d": 163.04299999999785,
      "v": 100
    },
    {
      "midi": 72,
      "hit": false,
      "t": 44347.69599999998,
      "d": 163.04299999999785,
      "v": 100
    },
    {
      "midi": 50,
      "hit": false,
      "t": 44347.696000000054,
      "d": 489.1290000000008,
      "v": 100
    },
    {
      "midi": 72,
      "hit": false,
      "t": 44510.73899999998,
      "d": 163.04299999999785,
      "v": 100
    },
    {
      "midi": 72,
      "hit": false,
      "t": 44673.78199999998,
      "d": 163.04299999999785,
      "v": 100
    },
    {
      "midi": 74,
      "hit": false,
      "t": 44836.824999999975,
      "d": 489.1290000000008,
      "v": 100
    },
    {
      "midi": 50,
      "hit": false,
      "t": 44836.825000000055,
      "d": 489.1290000000008,
      "v": 100
    },
    {
      "midi": 72,
      "hit": false,
      "t": 45325.953999999976,
      "d": 326.08600000000297,
      "v": 100
    },
    {
      "midi": 50,
      "hit": false,
      "t": 45325.954000000056,
      "d": 326.08600000000297,
      "v": 100
    },
    {
      "midi": 62,
      "hit": false,
      "t": 45652.03999999998,
      "d": 1304.3439999999973,
      "v": 100
    },
    {
      "midi": 70,
      "hit": false,
      "t": 45652.03999999998,
      "d": 1304.3439999999973,
      "v": 100
    },
    {
      "midi": 43,
      "hit": false,
      "t": 45652.04000000006,
      "d": 489.1290000000008,
      "v": 100
    },
    {
      "midi": 43,
      "hit": false,
      "t": 46141.16900000006,
      "d": 489.1290000000008,
      "v": 100
    },
    {
      "midi": 43,
      "hit": false,
      "t": 46630.29800000006,
      "d": 326.08600000000297,
      "v": 100
    },
    {
      "midi": 43,
      "hit": false,
      "t": 46956.384000000064,
      "d": 489.1290000000008,
      "v": 100
    },
    {
      "midi": 70,
      "hit": false,
      "t": 47282.46999999998,
      "d": 326.08600000000297,
      "v": 100
    },
    {
      "midi": 43,
      "hit": false,
      "t": 47445.513000000064,
      "d": 489.1290000000008,
      "v": 100
    },
    {
      "midi": 69,
      "hit": false,
      "t": 47608.55599999998,
      "d": 326.08600000000297,
      "v": 100
    },
    {
      "midi": 70,
      "hit": false,
      "t": 47934.641999999985,
      "d": 326.08600000000297,
      "v": 100
    },
    {
      "midi": 43,
      "hit": false,
      "t": 47934.642000000065,
      "d": 326.08600000000297,
      "v": 100
    },
    {
      "midi": 63,
      "hit": false,
      "t": 48260.72799999999,
      "d": 1304.3439999999973,
      "v": 100
    },
    {
      "midi": 72,
      "hit": false,
      "t": 48260.72799999999,
      "d": 1304.3439999999973,
      "v": 100
    },
    {
      "midi": 48,
      "hit": false,
      "t": 48260.72800000007,
      "d": 489.1290000000008,
      "v": 100
    },
    {
      "midi": 48,
      "hit": false,
      "t": 48749.85700000007,
      "d": 489.1290000000008,
      "v": 100
    },
    {
      "midi": 48,
      "hit": false,
      "t": 49238.98600000007,
      "d": 326.08600000000297,
      "v": 100
    },
    {
      "midi": 48,
      "hit": false,
      "t": 49565.07200000007,
      "d": 489.1290000000008,
      "v": 100
    },
    {
      "midi": 74,
      "hit": false,
      "t": 49891.15799999999,
      "d": 326.08600000000297,
      "v": 100
    },
    {
      "midi": 48,
      "hit": false,
      "t": 50054.201000000074,
      "d": 489.1290000000008,
      "v": 100
    },
    {
      "midi": 74,
      "hit": false,
      "t": 50217.24399999999,
      "d": 163.04299999999785,
      "v": 100
    },
    {
      "midi": 72,
      "hit": false,
      "t": 50380.28699999999,
      "d": 163.04299999999785,
      "v": 100
    },
    {
      "midi": 70,
      "hit": false,
      "t": 50543.32999999999,
      "d": 326.08600000000297,
      "v": 100
    },
    {
      "midi": 48,
      "hit": false,
      "t": 50543.330000000075,
      "d": 326.08600000000297,
      "v": 100
    },
    {
      "midi": 70,
      "hit": false,
      "t": 50869.41599999999,
      "d": 815.2149999999965,
      "v": 100
    },
    {
      "midi": 53,
      "hit": false,
      "t": 50869.41600000008,
      "d": 489.1290000000008,
      "v": 100
    },
    {
      "midi": 53,
      "hit": false,
      "t": 51358.54500000008,
      "d": 489.1290000000008,
      "v": 100
    },
    {
      "midi": 72,
      "hit": false,
      "t": 51684.63099999999,
      "d": 163.04299999999785,
      "v": 100
    },
    {
      "midi": 74,
      "hit": false,
      "t": 51847.673999999985,
      "d": 326.08600000000297,
      "v": 100
    },
    {
      "midi": 53,
      "hit": false,
      "t": 51847.67400000008,
      "d": 326.08600000000297,
      "v": 100
    },
    {
      "midi": 60,
      "hit": false,
      "t": 52173.75999999999,
      "d": 978.2580000000016,
      "v": 100
    },
    {
      "midi": 69,
      "hit": false,
      "t": 52173.75999999999,
      "d": 978.2580000000016,
      "v": 100
    },
    {
      "midi": 72,
      "hit": false,
      "t": 52173.75999999999,
      "d": 978.2580000000016,
      "v": 100
    },
    {
      "midi": 53,
      "hit": false,
      "t": 52173.76000000008,
      "d": 489.1290000000008,
      "v": 100
    },
    {
      "midi": 53,
      "hit": false,
      "t": 52662.88900000008,
      "d": 489.1290000000008,
      "v": 100
    },
    {
      "midi": 41,
      "hit": false,
      "t": 53152.018000000084,
      "d": 326.08600000000297,
      "v": 100
    },
    {
      "midi": 74,
      "hit": false,
      "t": 53315.06099999999,
      "d": 163.04299999999785,
      "v": 100
    }
  ]
}