{
  "jsonPath": "Classical/Classical/Gaetano Donizetti/sextet.json",
  "path": "Classical\\Classical\\Gaetano Donizetti\\Sextet.mid",
  "name": "Sextet",
  "difficulty": "Advanced",
  "bpm": 100,
  "notes": [
    {
      "midi": 72,
      "hit": false,
      "t": 1200,
      "d": 450,
      "v": 100
    },
    {
      "midi": 72,
      "hit": false,
      "t": 1650,
      "d": 150,
      "v": 100
    },
    {
      "midi": 72,
      "hit": false,
      "t": 1800,
      "d": 900,
      "v": 100
    },
    {
      "midi": 53,
      "hit": false,
      "t": 1800,
      "d": 300,
      "v": 100
    },
    {
      "midi": 57,
      "hit": false,
      "t": 1800,
      "d": 300,
      "v": 100
    },
    {
      "midi": 60,
      "hit": false,
      "t": 2100,
      "d": 300,
      "v": 100
    },
    {
      "midi": 53,
      "hit": false,
      "t": 2400,
      "d": 300,
      "v": 100
    },
    {
      "midi": 57,
      "hit": false,
      "t": 2400,
      "d": 300,
      "v": 100
    },
    {
      "midi": 60,
      "hit": false,
      "t": 2700,
      "d": 300,
      "v": 100
    },
    {
      "midi": 77,
      "hit": false,
      "t": 2850,
      "d": 150,
      "v": 100
    },
    {
      "midi": 81,
      "hit": false,
      "t": 3000,
      "d": 450,
      "v": 100
    },
    {
      "midi": 52,
      "hit": false,
      "t": 3000,
      "d": 300,
      "v": 100
    },
    {
      "midi": 58,
      "hit": false,
      "t": 3000,
      "d": 300,
      "v": 100
    },
    {
      "midi": 60,
      "hit": false,
      "t": 3300,
      "d": 300,
      "v": 100
    },
    {
      "midi": 79,
      "hit": false,
      "t": 3450,
      "d": 150,
      "v": 100
    },
    {
      "midi": 77,
      "hit": false,
      "t": 3600,
      "d": 600,
      "v": 100
    },
    {
      "midi": 53,
      "hit": false,
      "t": 3600,
      "d": 300,
      "v": 100
    },
    {
      "midi": 57,
      "hit": false,
      "t": 3600,
      "d": 300,
      "v": 100
    },
    {
      "midi": 60,
      "hit": false,
      "t": 3900,
      "d": 300,
      "v": 100
    },
    {
      "midi": 72,
      "hit": false,
      "t": 4200,
      "d": 300,
      "v": 100
    },
    {
      "midi": 53,
      "hit": false,
      "t": 4200,
      "d": 300,
      "v": 100
    },
    {
      "midi": 57,
      "hit": false,
      "t": 4200,
      "d": 300,
      "v": 100
    },
    {
      "midi": 60,
      "hit": false,
      "t": 4500,
      "d": 300,
      "v": 100
    },
    {
      "midi": 77,
      "hit": false,
      "t": 4800,
      "d": 450,
      "v": 100
    },
    {
      "midi": 53,
      "hit": false,
      "t": 4800,
      "d": 300,
      "v": 100
    },
    {
      "midi": 57,
      "hit": false,
      "t": 4800,
      "d": 300,
      "v": 100
    },
    {
      "midi": 60,
      "hit": false,
      "t": 5100,
      "d": 300,
      "v": 100
    },
    {
      "midi": 76,
      "hit": false,
      "t": 5250,
      "d": 150,
      "v": 100
    },
    {
      "midi": 74,
      "hit": false,
      "t": 5400,
      "d": 900,
      "v": 100
    },
    {
      "midi": 53,
      "hit": false,
      "t": 5400,
      "d": 300,
      "v": 100
    },
    {
      "midi": 58,
      "hit": false,
      "t": 5400,
      "d": 300,
      "v": 100
    },
    {
      "midi": 62,
      "hit": false,
      "t": 5700,
      "d": 300,
      "v": 100
    },
    {
      "midi": 53,
      "hit": false,
      "t": 6000,
      "d": 300,
      "v": 100
    },
    {
      "midi": 58,
      "hit": false,
      "t": 6000,
      "d": 300,
      "v": 100
    },
    {
      "midi": 62,
      "hit": false,
      "t": 6300,
      "d": 300,
      "v": 100
    },
    {
      "midi": 76,
      "hit": false,
      "t": 6450,
      "d": 150,
      "v": 100
    },
    {
      "midi": 77,
      "hit": false,
      "t": 6600,
      "d": 450,
      "v": 100
    },
    {
      "midi": 53,
      "hit": false,
      "t": 6600,
      "d": 300,
      "v": 100
    },
    {
      "midi": 58,
      "hit": false,
      "t": 6600,
      "d": 300,
      "v": 100
    },
    {
      "midi": 62,
      "hit": false,
      "t": 6900,
      "d": 300,
      "v": 100
    },
    {
      "midi": 79,
      "hit": false,
      "t": 7050,
      "d": 150,
      "v": 100
    },
    {
      "midi": 72,
      "hit": false,
      "t": 7200,
      "d": 450,
      "v": 100
    },
    {
      "midi": 53,
      "hit": false,
      "t": 7200,
      "d": 300,
      "v": 100
    },
    {
      "midi": 57,
      "hit": false,
      "t": 7200,
      "d": 300,
      "v": 100
    },
    {
      "midi": 60,
      "hit": false,
      "t": 7500,
      "d": 300,
      "v": 100
    },
    {
      "midi": 69,
      "hit": false,
      "t": 7650,
      "d": 150,
      "v": 100
    },
    {
      "midi": 72,
      "hit": false,
      "t": 7800,
      "d": 600,
      "v": 100
    },
    {
      "midi": 53,
      "hit": false,
      "t": 7800,
      "d": 300,
      "v": 100
    },
    {
      "midi": 57,
      "hit": false,
      "t": 7800,
      "d": 300,
      "v": 100
    },
    {
      "midi": 60,
      "hit": false,
      "t": 8100,
      "d": 300,
      "v": 100
    },
    {
      "midi": 72,
      "hit": false,
      "t": 8400,
      "d": 450,
      "v": 100
    },
    {
      "midi": 53,
      "hit": false,
      "t": 8400,
      "d": 300,
      "v": 100
    },
    {
      "midi": 57,
      "hit": false,
      "t": 8400,
      "d": 300,
      "v": 100
    },
    {
      "midi": 60,
      "hit": false,
      "t": 8700,
      "d": 300,
      "v": 100
    },
    {
      "midi": 81,
      "hit": false,
      "t": 8850,
      "d": 150,
      "v": 100
    },
    {
      "midi": 81,
      "hit": false,
      "t": 9000,
      "d": 450,
      "v": 100
    },
    {
      "midi": 52,
      "hit": false,
      "t": 9000,
      "d": 300,
      "v": 100
    },
    {
      "midi": 58,
      "hit": false,
      "t": 9000,
      "d": 300,
      "v": 100
    },
    {
      "midi": 60,
      "hit": false,
      "t": 9300,
      "d": 300,
      "v": 100
    },
    {
      "midi": 82,
      "hit": false,
      "t": 9450,
      "d": 150,
      "v": 100
    },
    {
      "midi": 79,
      "hit": false,
      "t": 9600,
      "d": 450,
      "v": 100
    },
    {
      "midi": 52,
      "hit": false,
      "t": 9600,
      "d": 300,
      "v": 100
    },
    {
      "midi": 58,
      "hit": false,
      "t": 9600,
      "d": 300,
      "v": 100
    },
    {
      "midi": 60,
      "hit": false,
      "t": 9900,
      "d": 300,
      "v": 100
    },
    {
      "midi": 69,
      "hit": false,
      "t": 10050,
      "d": 150,
      "v": 100
    },
    {
      "midi": 76,
      "hit": false,
      "t": 10200,
      "d": 450,
      "v": 100
    },
    {
      "midi": 52,
      "hit": false,
      "t": 10200,
      "d": 300,
      "v": 100
    },
    {
      "midi": 58,
      "hit": false,
      "t": 10200,
      "d": 300,
      "v": 100
    },
    {
      "midi": 60,
      "hit": false,
      "t": 10500,
      "d": 300,
      "v": 100
    },
    {
      "midi": 79,
      "hit": false,
      "t": 10650,
      "d": 150,
      "v": 100
    },
    {
      "midi": 80,
      "hit": false,
      "t": 10800,
      "d": 450,
      "v": 100
    },
    {
      "midi": 53,
      "hit": false,
      "t": 10800,
      "d": 300,
      "v": 100
    },
    {
      "midi": 57,
      "hit": false,
      "t": 10800,
      "d": 300,
      "v": 100
    },
    {
      "midi": 60,
      "hit": false,
      "t": 11100,
      "d": 300,
      "v": 100
    },
    {
      "midi": 81,
      "hit": false,
      "t": 11250,
      "d": 150,
      "v": 100
    },
    {
      "midi": 77,
      "hit": false,
      "t": 11400,
      "d": 600,
      "v": 100
    },
    {
      "midi": 53,
      "hit": false,
      "t": 11400,
      "d": 300,
      "v": 100
    },
    {
      "midi": 57,
      "hit": false,
      "t": 11400,
      "d": 300,
      "v": 100
    },
    {
      "midi": 60,
      "hit": false,
      "t": 11700,
      "d": 300,
      "v": 100
    },
    {
      "midi": 81,
      "hit": false,
      "t": 12000,
      "d": 450,
      "v": 100
    },
    {
      "midi": 53,
      "hit": false,
      "t": 12000,
      "d": 300,
      "v": 100
    },
    {
      "midi": 57,
      "hit": false,
      "t": 12000,
      "d": 300,
      "v": 100
    },
    {
      "midi": 60,
      "hit": false,
      "t": 12300,
      "d": 300,
      "v": 100
    },
    {
      "midi": 81,
      "hit": false,
      "t": 12450,
      "d": 150,
      "v": 100
    },
    {
      "midi": 81,
      "hit": false,
      "t": 12600,
      "d": 600,
      "v": 100
    },
    {
      "midi": 46,
      "hit": false,
      "t": 12600,
      "d": 300,
      "v": 100
    },
    {
      "midi": 50,
      "hit": false,
      "t": 12600,
      "d": 300,
      "v": 100
    },
    {
      "midi": 55,
      "hit": false,
      "t": 12900,
      "d": 300,
      "v": 100
    },
    {
      "midi": 46,
      "hit": false,
      "t": 13200,
      "d": 300,
      "v": 100
    },
    {
      "midi": 50,
      "hit": false,
      "t": 13200,
      "d": 300,
      "v": 100
    },
    {
      "midi": 79,
      "hit": false,
      "t": 13350,
      "d": 150,
      "v": 100
    },
    {
      "midi": 82,
      "hit": false,
      "t": 13500,
      "d": 150,
      "v": 100
    },
    {
      "midi": 55,
      "hit": false,
      "t": 13500,
      "d": 300,
      "v": 100
    },
    {
      "midi": 81,
      "hit": false,
      "t": 13650,
      "d": 150,
      "v": 100
    },
    {
      "midi": 79,
      "hit": false,
      "t": 13800,
      "d": 150,
      "v": 100
    },
    {
      "midi": 46,
      "hit": false,
      "t": 13800,
      "d": 300,
      "v": 100
    },
    {
      "midi": 50,
      "hit": false,
      "t": 13800,
      "d": 300,
      "v": 100
    },
    {
      "midi": 77,
      "hit": false,
      "t": 13950,
      "d": 150,
      "v": 100
    },
    {
      "midi": 76,
      "hit": false,
      "t": 14100,
      "d": 150,
      "v": 100
    },
    {
      "midi": 56,
      "hit": false,
      "t": 14100,
      "d": 300,
      "v": 100
    },
    {
      "midi": 74,
      "hit": false,
      "t": 14250,
      "d": 150,
      "v": 100
    },
    {
      "midi": 73,
      "hit": false,
      "t": 14400,
      "d": 600,
      "v": 100
    },
    {
      "midi": 45,
      "hit": false,
      "t": 14400,
      "d": 300,
      "v": 100
    },
    {
      "midi": 57,
      "hit": false,
      "t": 14700,
      "d": 300,
      "v": 100
    },
    {
      "midi": 61,
      "hit": false,
      "t": 14700,
      "d": 300,
      "v": 100
    },
    {
      "midi": 64,
      "hit": false,
      "t": 14700,
      "d": 300,
      "v": 100
    },
    {
      "midi": 76,
      "hit": false,
      "t": 15000,
      "d": 300,
      "v": 100
    },
    {
      "midi": 57,
      "hit": false,
      "t": 15000,
      "d": 300,
      "v": 100
    },
    {
      "midi": 61,
      "hit": false,
      "t": 15000,
      "d": 300,
      "v": 100
    },
    {
      "midi": 64,
      "hit": false,
      "t": 15000,
      "d": 300,
      "v": 100
    },
    {
      "midi": 57,
      "hit": false,
      "t": 15300,
      "d": 300,
      "v": 100
    },
    {
      "midi": 61,
      "hit": false,
      "t": 15300,
      "d": 300,
      "v": 100
    },
    {
      "midi": 64,
      "hit": false,
      "t": 15300,
      "d": 300,
      "v": 100
    },
    {
      "midi": 81,
      "hit": false,
      "t": 15600,
      "d": 450,
      "v": 100
    },
    {
      "midi": 57,
      "hit": false,
      "t": 15600,
      "d": 300,
      "v": 100
    },
    {
      "midi": 61,
      "hit": false,
      "t": 15600,
      "d": 300,
      "v": 100
    },
    {
      "midi": 64,
      "hit": false,
      "t": 15600,
      "d": 300,
      "v": 100
    },
    {
      "midi": 57,
      "hit": false,
      "t": 15900,
      "d": 300,
      "v": 100
    },
    {
      "midi": 61,
      "hit": false,
      "t": 15900,
      "d": 300,
      "v": 100
    },
    {
      "midi": 64,
      "hit": false,
      "t": 15900,
      "d": 300,
      "v": 100
    },
    {
      "midi": 81,
      "hit": false,
      "t": 16050,
      "d": 150,
      "v": 100
    },
    {
      "midi": 79,
      "hit": false,
      "t": 16200,
      "d": 600,
      "v": 100
    },
    {
      "midi": 82,
      "hit": false,
      "t": 16200,
      "d": 600,
      "v": 100
    },
    {
      "midi": 48,
      "hit": false,
      "t": 16200,
      "d": 300,
      "v": 100
    },
    {
      "midi": 58,
      "hit": false,
      "t": 16500,
      "d": 300,
      "v": 100
    },
    {
      "midi": 60,
      "hit": false,
      "t": 16500,
      "d": 300,
      "v": 100
    },
    {
      "midi": 64,
      "hit": false,
      "t": 16500,
      "d": 300,
      "v": 100
    },
    {
      "midi": 58,
      "hit": false,
      "t": 16800,
      "d": 300,
      "v": 100
    },
    {
      "midi": 60,
      "hit": false,
      "t": 16800,
      "d": 300,
      "v": 100
    },
    {
      "midi": 64,
      "hit": false,
      "t": 16800,
      "d": 300,
      "v": 100
    },
    {
      "midi": 81,
      "hit": false,
      "t": 16950,
      "d": 150,
      "v": 100
    },
    {
      "midi": 79,
      "hit": false,
      "t": 17100,
      "d": 150,
      "v": 100
    },
    {
      "midi": 58,
      "hit": false,
      "t": 17100,
      "d": 300,
      "v": 100
    },
    {
      "midi": 60,
      "hit": false,
      "t": 17100,
      "d": 300,
      "v": 100
    },
    {
      "midi": 64,
      "hit": false,
      "t": 17100,
      "d": 300,
      "v": 100
    },
    {
      "midi": 77,
      "hit": false,
      "t": 17250,
      "d": 150,
      "v": 100
    },
    {
      "midi": 76,
      "hit": false,
      "t": 17400,
      "d": 150,
      "v": 100
    },
    {
      "midi": 58,
      "hit": false,
      "t": 17400,
      "d": 300,
      "v": 100
    },
    {
      "midi": 60,
      "hit": false,
      "t": 17400,
      "d": 300,
      "v": 100
    },
    {
      "midi": 64,
      "hit": false,
      "t": 17400,
      "d": 300,
      "v": 100
    },
    {
      "midi": 74,
      "hit": false,
      "t": 17550,
      "d": 150,
      "v": 100
    },
    {
      "midi": 72,
      "hit": false,
      "t": 17700,
      "d": 150,
      "v": 100
    },
    {
      "midi": 58,
      "hit": false,
      "t": 17700,
      "d": 300,
      "v": 100
    },
    {
      "midi": 60,
      "hit": false,
      "t": 17700,
      "d": 300,
      "v": 100
    },
    {
      "midi": 64,
      "hit": false,
      "t": 17700,
      "d": 300,
      "v": 100
    },
    {
      "midi": 70,
      "hit": false,
      "t": 17850,
      "d": 150,
      "v": 100
    },
    {
      "midi": 70,
      "hit": false,
      "t": 18000,
      "d": 150,
      "v": 100
    },
    {
      "midi": 53,
      "hit": false,
      "t": 18000,
      "d": 300,
      "v": 100
    },
    {
      "midi": 69,
      "hit": false,
      "t": 18150,
      "d": 150,
      "v": 100
    },
    {
      "midi": 74,
      "hit": false,
      "t": 18300,
      "d": 150,
      "v": 100
    },
    {
      "midi": 57,
      "hit": false,
      "t": 18300,
      "d": 300,
      "v": 100
    },
    {
      "midi": 60,
      "hit": false,
      "t": 18300,
      "d": 300,
      "v": 100
    },
    {
      "midi": 65,
      "hit": false,
      "t": 18300,
      "d": 300,
      "v": 100
    },
    {
      "midi": 72,
      "hit": false,
      "t": 18450,
      "d": 150,
      "v": 100
    },
    {
      "midi": 72,
      "hit": false,
      "t": 18600,
      "d": 600,
      "v": 100
    },
    {
      "midi": 57,
      "hit": false,
      "t": 18600,
      "d": 300,
      "v": 100
    },
    {
      "midi": 60,
      "hit": false,
      "t": 18600,
      "d": 300,
      "v": 100
    },
    {
      "midi": 65,
      "hit": false,
      "t": 18600,
      "d": 300,
      "v": 100
    },
    {
      "midi": 57,
      "hit": false,
      "t": 18900,
      "d": 300,
      "v": 100
    },
    {
      "midi": 60,
      "hit": false,
      "t": 18900,
      "d": 300,
      "v": 100
    },
    {
      "midi": 65,
      "hit": false,
      "t": 18900,
      "d": 300,
      "v": 100
    },
    {
      "midi": 81,
      "hit": false,
      "t": 19200,
      "d": 450,
      "v": 100
    },
    {
      "midi": 57,
      "hit": false,
      "t": 19200,
      "d": 300,
      "v": 100
    },
    {
      "midi": 60,
      "hit": false,
      "t": 19200,
      "d": 300,
      "v": 100
    },
    {
      "midi": 65,
      "hit": false,
      "t": 19200,
      "d": 300,
      "v": 100
    },
    {
      "midi": 57,
      "hit": false,
      "t": 19500,
      "d": 300,
      "v": 100
    },
    {
      "midi": 60,
      "hit": false,
      "t": 19500,
      "d": 300,
      "v": 100
    },
    {
      "midi": 65,
      "hit": false,
      "t": 19500,
      "d": 300,
      "v": 100
    },
    {
      "midi": 81,
      "hit": false,
      "t": 19650,
      "d": 150,
      "v": 100
    },
    {
      "midi": 79,
      "hit": false,
      "t": 19800,
      "d": 600,
      "v": 100
    },
    {
      "midi": 82,
      "hit": false,
      "t": 19800,
      "d": 600,
      "v": 100
    },
    {
      "midi": 48,
      "hit": false,
      "t": 19800,
      "d": 300,
      "v": 100
    },
    {
      "midi": 58,
      "hit": false,
      "t": 20100,
      "d": 300,
      "v": 100
    },
    {
      "midi": 60,
      "hit": false,
      "t": 20100,
      "d": 300,
      "v": 100
    },
    {
      "midi": 64,
      "hit": false,
      "t": 20100,
      "d": 300,
      "v": 100
    },
    {
      "midi": 58,
      "hit": false,
      "t": 20400,
      "d": 300,
      "v": 100
    },
    {
      "midi": 60,
      "hit": false,
      "t": 20400,
      "d": 300,
      "v": 100
    },
    {
      "midi": 64,
      "hit": false,
      "t": 20400,
      "d": 300,
      "v": 100
    },
    {
      "midi": 81,
      "hit": false,
      "t": 20550,
      "d": 150,
      "v": 100
    },
    {
      "midi": 79,
      "hit": false,
      "t": 20700,
      "d": 150,
      "v": 100
    },
    {
      "midi": 58,
      "hit": false,
      "t": 20700,
      "d": 300,
      "v": 100
    },
    {
      "midi": 60,
      "hit": false,
      "t": 20700,
      "d": 300,
      "v": 100
    },
    {
      "midi": 64,
      "hit": false,
      "t": 20700,
      "d": 300,
      "v": 100
    },
    {
      "midi": 77,
      "hit": false,
      "t": 20850,
      "d": 150,
      "v": 100
    },
    {
      "midi": 76,
      "hit": false,
      "t": 21000,
      "d": 150,
      "v": 100
    },
    {
      "midi": 58,
      "hit": false,
      "t": 21000,
      "d": 300,
      "v": 100
    },
    {
      "midi": 60,
      "hit": false,
      "t": 21000,
      "d": 300,
      "v": 100
    },
    {
      "midi": 64,
      "hit": false,
      "t": 21000,
      "d": 300,
      "v": 100
    },
    {
      "midi": 74,
      "hit": false,
      "t": 21150,
      "d": 150,
      "v": 100
    },
    {
      "midi": 72,
      "hit": false,
      "t": 21300,
      "d": 150,
      "v": 100
    },
    {
      "midi": 58,
      "hit": false,
      "t": 21300,
      "d": 300,
      "v": 100
    },
    {
      "midi": 60,
      "hit": false,
      "t": 21300,
      "d": 300,
      "v": 100
    },
    {
      "midi": 64,
      "hit": false,
      "t": 21300,
      "d": 300,
      "v": 100
    },
    {
      "midi": 70,
      "hit": false,
      "t": 21450,
      "d": 150,
      "v": 100
    },
    {
      "midi": 70,
      "hit": false,
      "t": 21600,
      "d": 150,
      "v": 100
    },
    {
      "midi": 53,
      "hit": false,
      "t": 21600,
      "d": 300,
      "v": 100
    },
    {
      "midi": 69,
      "hit": false,
      "t": 21750,
      "d": 150,
      "v": 100
    },
    {
      "midi": 74,
      "hit": false,
      "t": 21900,
      "d": 150,
      "v": 100
    },
    {
      "midi": 57,
      "hit": false,
      "t": 21900,
      "d": 300,
      "v": 100
    },
    {
      "midi": 60,
      "hit": false,
      "t": 21900,
      "d": 300,
      "v": 100
    },
    {
      "midi": 65,
      "hit": false,
      "t": 21900,
      "d": 300,
      "v": 100
    },
    {
      "midi": 72,
      "hit": false,
      "t": 22050,
      "d": 150,
      "v": 100
    },
    {
      "midi": 72,
      "hit": false,
      "t": 22200,
      "d": 600,
      "v": 100
    },
    {
      "midi": 57,
      "hit": false,
      "t": 22200,
      "d": 300,
      "v": 100
    },
    {
      "midi": 60,
      "hit": false,
      "t": 22200,
      "d": 300,
      "v": 100
    },
    {
      "midi": 65,
      "hit": false,
      "t": 22200,
      "d": 300,
      "v": 100
    },
    {
      "midi": 57,
      "hit": false,
      "t": 22500,
      "d": 300,
      "v": 100
    },
    {
      "midi": 60,
      "hit": false,
      "t": 22500,
      "d": 300,
      "v": 100
    },
    {
      "midi": 65,
      "hit": false,
      "t": 22500,
      "d": 300,
      "v": 100
    },
    {
      "midi": 72,
      "hit": false,
      "t": 22800,
      "d": 450,
      "v": 100
    },
    {
      "midi": 52,
      "hit": false,
      "t": 22800,
      "d": 300,
      "v": 100
    },
    {
      "midi": 58,
      "hit": false,
      "t": 23100,
      "d": 300,
      "v": 100
    },
    {
      "midi": 60,
      "hit": false,
      "t": 23100,
      "d": 300,
      "v": 100
    },
    {
      "midi": 72,
      "hit": false,
      "t": 23250,
      "d": 150,
      "v": 100
    },
    {
      "midi": 81,
      "hit": false,
      "t": 23400,
      "d": 900,
      "v": 100
    },
    {
      "midi": 53,
      "hit": false,
      "t": 23400,
      "d": 300,
      "v": 100
    },
    {
      "midi": 57,
      "hit": false,
      "t": 23700,
      "d": 300,
      "v": 100
    },
    {
      "midi": 60,
      "hit": false,
      "t": 23700,
      "d": 300,
      "v": 100
    },
    {
      "midi": 57,
      "hit": false,
      "t": 24000,
      "d": 300,
      "v": 100
    },
    {
      "midi": 60,
      "hit": false,
      "t": 24000,
      "d": 300,
      "v": 100
    },
    {
      "midi": 79,
      "hit": false,
      "t": 24300,
      "d": 150,
      "v": 100
    },
    {
      "midi": 57,
      "hit": false,
      "t": 24300,
      "d": 300,
      "v": 100
    },
    {
      "midi": 60,
      "hit": false,
      "t": 24300,
      "d": 300,
      "v": 100
    },
    {
      "midi": 77,
      "hit": false,
      "t": 24450,
      "d": 150,
      "v": 100
    },
    {
      "midi": 77,
      "hit": false,
      "t": 24600,
      "d": 150,
      "v": 100
    },
    {
      "midi": 55,
      "hit": false,
      "t": 24600,
      "d": 300,
      "v": 100
    },
    {
      "midi": 76,
      "hit": false,
      "t": 24750,
      "d": 150,
      "v": 100
    },
    {
      "midi": 74,
      "hit": false,
      "t": 24900,
      "d": 150,
      "v": 100
    },
    {
      "midi": 58,
      "hit": false,
      "t": 24900,
      "d": 300,
      "v": 100
    },
    {
      "midi": 60,
      "hit": false,
      "t": 24900,
      "d": 300,
      "v": 100
    },
    {
      "midi": 64,
      "hit": false,
      "t": 24900,
      "d": 300,
      "v": 100
    },
    {
      "midi": 72,
      "hit": false,
      "t": 25050,
      "d": 150,
      "v": 100
    },
    {
      "midi": 84,
      "hit": false,
      "t": 25200,
      "d": 900,
      "v": 100
    },
    {
      "midi": 57,
      "hit": false,
      "t": 25200,
      "d": 300,
      "v": 100
    },
    {
      "midi": 60,
      "hit": false,
      "t": 25500,
      "d": 300,
      "v": 100
    },
    {
      "midi": 62,
      "hit": false,
      "t": 25500,
      "d": 300,
      "v": 100
    },
    {
      "midi": 66,
      "hit": false,
      "t": 25500,
      "d": 300,
      "v": 100
    },
    {
      "midi": 58,
      "hit": false,
      "t": 25800,
      "d": 300,
      "v": 100
    },
    {
      "midi": 62,
      "hit": false,
      "t": 25800,
      "d": 300,
      "v": 100
    },
    {
      "midi": 67,
      "hit": false,
      "t": 25800,
      "d": 300,
      "v": 100
    },
    {
      "midi": 82,
      "hit": false,
      "t": 26100,
      "d": 300,
      "v": 100
    },
    {
      "midi": 78,
      "hit": false,
      "t": 26400,
      "d": 300,
      "v": 100
    },
    {
      "midi": 79,
      "hit": false,
      "t": 26700,
      "d": 300,
      "v": 100
    },
    {
      "midi": 82,
      "hit": false,
      "t": 27000,
      "d": 450,
      "v": 100
    },
    {
      "midi": 48,
      "hit": false,
      "t": 27000,
      "d": 300,
      "v": 100
    },
    {
      "midi": 53,
      "hit": false,
      "t": 27300,
      "d": 300,
      "v": 100
    },
    {
      "midi": 57,
      "hit": false,
      "t": 27300,
      "d": 300,
      "v": 100
    },
    {
      "midi": 81,
      "hit": false,
      "t": 27450,
      "d": 150,
      "v": 100
    },
    {
      "midi": 82,
      "hit": false,
      "t": 27600,
      "d": 450,
      "v": 100
    },
    {
      "midi": 48,
      "hit": false,
      "t": 27600,
      "d": 300,
      "v": 100
    },
    {
      "midi": 53,
      "hit": false,
      "t": 27900,
      "d": 300,
      "v": 100
    },
    {
      "midi": 57,
      "hit": false,
      "t": 27900,
      "d": 300,
      "v": 100
    },
    {
      "midi": 81,
      "hit": false,
      "t": 28050,
      "d": 150,
      "v": 100
    },
    {
      "midi": 82,
      "hit": false,
      "t": 28200,
      "d": 450,
      "v": 100
    },
    {
      "midi": 48,
      "hit": false,
      "t": 28200,
      "d": 300,
      "v": 100
    },
    {
      "midi": 53,
      "hit": false,
      "t": 28500,
      "d": 300,
      "v": 100
    },
    {
      "midi": 57,
      "hit": false,
      "t": 28500,
      "d": 300,
      "v": 100
    },
    {
      "midi": 81,
      "hit": false,
      "t": 28650,
      "d": 150,
      "v": 100
    },
    {
      "midi": 81,
      "hit": false,
      "t": 28800,
      "d": 300,
      "v": 100
    },
    {
      "midi": 48,
      "hit": false,
      "t": 28800,
      "d": 300,
      "v": 100
    },
    {
      "midi": 79,
      "hit": false,
      "t": 29100,
      "d": 300,
      "v": 100
    },
    {
      "midi": 58,
      "hit": false,
      "t": 29100,
      "d": 300,
      "v": 100
    },
    {
      "midi": 60,
      "hit": false,
      "t": 29100,
      "d": 300,
      "v": 100
    },
    {
      "midi": 64,
      "hit": false,
      "t": 29100,
      "d": 300,
      "v": 100
    },
    {
      "midi": 82,
      "hit": false,
      "t": 29400,
      "d": 900,
      "v": 100
    },
    {
      "midi": 58,
      "hit": false,
      "t": 29400,
      "d": 900,
      "v": 100
    },
    {
      "midi": 60,
      "hit": false,
      "t": 29400,
      "d": 900,
      "v": 100
    },
    {
      "midi": 64,
      "hit": false,
      "t": 29400,
      "d": 900,
      "v": 100
    },
    {
      "midi": 76,
      "hit": false,
      "t": 30300,
      "d": 300,
      "v": 100
    },
    {
      "midi": 77,
      "hit": false,
      "t": 30600,
      "d": 1200,
      "v": 100
    },
    {
      "midi": 53,
      "hit": false,
      "t": 30600,
      "d": 200,
      "v": 100
    },
    {
      "midi": 57,
      "hit": false,
      "t": 30800,
      "d": 200,
      "v": 100
    },
    {
      "midi": 60,
      "hit": false,
      "t": 31000,
      "d": 200,
      "v": 100
    },
    {
      "midi": 53,
      "hit": false,
      "t": 31200,
      "d": 200,
      "v": 100
    },
    {
      "midi": 57,
      "hit": false,
      "t": 31400,
      "d": 200,
      "v": 100
    },
    {
      "midi": 60,
      "hit": false,
      "t": 31600,
      "d": 200,
      "v": 100
    },
    {
      "midi": 77,
      "hit": false,
      "t": 31800,
      "d": 200,
      "v": 100
    },
    {
      "midi": 53,
      "hit": false,
      "t": 31800,
      "d": 200,
      "v": 100
    },
    {
      "midi": 76,
      "hit": false,
      "t": 32000,
      "d": 200,
      "v": 100
    },
    {
      "midi": 57,
      "hit": false,
      "t": 32000,
      "d": 200,
      "v": 100
    },
    {
      "midi": 74,
      "hit": false,
      "t": 32200,
      "d": 200,
      "v": 100
    },
    {
      "midi": 60,
      "hit": false,
      "t": 32200,
      "d": 200,
      "v": 100
    },
    {
      "midi": 74,
      "hit": false,
      "t": 32400,
      "d": 600,
      "v": 100
    },
    {
      "midi": 52,
      "hit": false,
      "t": 32400,
      "d": 200,
      "v": 100
    },
    {
      "midi": 58,
      "hit": false,
      "t": 32600,
      "d": 200,
      "v": 100
    },
    {
      "midi": 60,
      "hit": false,
      "t": 32800,
      "d": 200,
      "v": 100
    },
    {
      "midi": 74,
      "hit": false,
      "t": 33000,
      "d": 200,
      "v": 100
    },
    {
      "midi": 52,
      "hit": false,
      "t": 33000,
      "d": 200,
      "v": 100
    },
    {
      "midi": 71,
      "hit": false,
      "t": 33200,
      "d": 200,
      "v": 100
    },
    {
      "midi": 58,
      "hit": false,
      "t": 33200,
      "d": 200,
      "v": 100
    },
    {
      "midi": 72,
      "hit": false,
      "t": 33400,
      "d": 200,
      "v": 100
    },
    {
      "midi": 60,
      "hit": false,
      "t": 33400,
      "d": 200,
      "v": 100
    },
    {
      "midi": 76,
      "hit": false,
      "t": 33600,
      "d": 200,
      "v": 100
    },
    {
      "midi": 55,
      "hit": false,
      "t": 33600,
      "d": 200,
      "v": 100
    },
    {
      "midi": 74,
      "hit": false,
      "t": 33800,
      "d": 200,
      "v": 100
    },
    {
      "midi": 58,
      "hit": false,
      "t": 33800,
      "d": 200,
      "v": 100
    },
    {
      "midi": 72,
      "hit": false,
      "t": 34000,
      "d": 200,
      "v": 100
    },
    {
      "midi": 60,
      "hit": false,
      "t": 34000,
      "d": 200,
      "v": 100
    },
    {
      "midi": 72,
      "hit": false,
      "t": 34200,
      "d": 600,
      "v": 100
    },
    {
      "midi": 53,
      "hit": false,
      "t": 34200,
      "d": 200,
      "v": 100
    },
    {
      "midi": 57,
      "hit": false,
      "t": 34400,
      "d": 200,
      "v": 100
    },
    {
      "midi": 60,
      "hit": false,
      "t": 34600,
      "d": 200,
      "v": 100
    },
    {
      "midi": 77,
      "hit": false,
      "t": 34800,
      "d": 200,
      "v": 100
    },
    {
      "midi": 53,
      "hit": false,
      "t": 34800,
      "d": 200,
      "v": 100
    },
    {
      "midi": 81,
      "hit": false,
      "t": 35000,
      "d": 200,
      "v": 100
    },
    {
      "midi": 57,
      "hit": false,
      "t": 35000,
      "d": 200,
      "v": 100
    },
    {
      "midi": 79,
      "hit": false,
      "t": 35200,
      "d": 200,
      "v": 100
    },
    {
      "midi": 60,
      "hit": false,
      "t": 35200,
      "d": 200,
      "v": 100
    },
    {
      "midi": 77,
      "hit": false,
      "t": 35400,
      "d": 200,
      "v": 100
    },
    {
      "midi": 53,
      "hit": false,
      "t": 35400,
      "d": 200,
      "v": 100
    },
    {
      "midi": 76,
      "hit": false,
      "t": 35600,
      "d": 200,
      "v": 100
    },
    {
      "midi": 57,
      "hit": false,
      "t": 35600,
      "d": 200,
      "v": 100
    },
    {
      "midi": 74,
      "hit": false,
      "t": 35800,
      "d": 200,
      "v": 100
    },
    {
      "midi": 60,
      "hit": false,
      "t": 35800,
      "d": 200,
      "v": 100
    },
    {
      "midi": 74,
      "hit": false,
      "t": 36000,
      "d": 600,
      "v": 100
    },
    {
      "midi": 52,
      "hit": false,
      "t": 36000,
      "d": 200,
      "v": 100
    },
    {
      "midi": 58,
      "hit": false,
      "t": 36200,
      "d": 200,
      "v": 100
    },
    {
      "midi": 60,
      "hit": false,
      "t": 36400,
      "d": 200,
      "v": 100
    },
    {
      "midi": 74,
      "hit": false,
      "t": 36600,
      "d": 200,
      "v": 100
    },
    {
      "midi": 52,
      "hit": false,
      "t": 36600,
      "d": 200,
      "v": 100
    },
    {
      "midi": 71,
      "hit": false,
      "t": 36800,
      "d": 200,
      "v": 100
    },
    {
      "midi": 58,
      "hit": false,
      "t": 36800,
      "d": 200,
      "v": 100
    },
    {
      "midi": 72,
      "hit": false,
      "t": 37000,
      "d": 200,
      "v": 100
    },
    {
      "midi": 60,
      "hit": false,
      "t": 37000,
      "d": 200,
      "v": 100
    },
    {
      "midi": 76,
      "hit": false,
      "t": 37200,
      "d": 200,
      "v": 100
    },
    {
      "midi": 55,
      "hit": false,
      "t": 37200,
      "d": 200,
      "v": 100
    },
    {
      "midi": 74,
      "hit": false,
      "t": 37400,
      "d": 200,
      "v": 100
    },
    {
      "midi": 58,
      "hit": false,
      "t": 37400,
      "d": 200,
      "v": 100
    },
    {
      "midi": 72,
      "hit": false,
      "t": 37600,
      "d": 200,
      "v": 100
    },
    {
      "midi": 60,
      "hit": false,
      "t": 37600,
      "d": 200,
      "v": 100
    },
    {
      "midi": 72,
      "hit": false,
      "t": 37800,
      "d": 300,
      "v": 100
    },
    {
      "midi": 53,
      "hit": false,
      "t": 37800,
      "d": 200,
      "v": 100
    },
    {
      "midi": 57,
      "hit": false,
      "t": 38000,
      "d": 200,
      "v": 100
    },
    {
      "midi": 60,
      "hit": false,
      "t": 38200,
      "d": 200,
      "v": 100
    },
    {
      "midi": 81,
      "hit": false,
      "t": 38400,
      "d": 900,
      "v": 100
    },
    {
      "midi": 53,
      "hit": false,
      "t": 38400,
      "d": 200,
      "v": 100
    },
    {
      "midi": 57,
      "hit": false,
      "t": 38600,
      "d": 200,
      "v": 100
    },
    {
      "midi": 60,
      "hit": false,
      "t": 38800,
      "d": 200,
      "v": 100
    },
    {
      "midi": 51,
      "hit": false,
      "t": 39000,
      "d": 200,
      "v": 100
    },
    {
      "midi": 57,
      "hit": false,
      "t": 39200,
      "d": 200,
      "v": 100
    },
    {
      "midi": 60,
      "hit": false,
      "t": 39400,
      "d": 200,
      "v": 100
    },
    {
      "midi": 79,
      "hit": false,
      "t": 39450,
      "d": 150,
      "v": 100
    },
    {
      "midi": 79,
      "hit": false,
      "t": 39600,
      "d": 600,
      "v": 100
    },
    {
      "midi": 50,
      "hit": false,
      "t": 39600,
      "d": 200,
      "v": 100
    },
    {
      "midi": 57,
      "hit": false,
      "t": 39800,
      "d": 200,
      "v": 100
    },
    {
      "midi": 60,
      "hit": false,
      "t": 40000,
      "d": 200,
      "v": 100
    },
    {
      "midi": 78,
      "hit": false,
      "t": 40200,
      "d": 200,
      "v": 100
    },
    {
      "midi": 50,
      "hit": false,
      "t": 40200,
      "d": 200,
      "v": 100
    },
    {
      "midi": 73,
      "hit": false,
      "t": 40400,
      "d": 200,
      "v": 100
    },
    {
      "midi": 57,
      "hit": false,
      "t": 40400,
      "d": 200,
      "v": 100
    },
    {
      "midi": 74,
      "hit": false,
      "t": 40600,
      "d": 200,
      "v": 100
    },
    {
      "midi": 60,
      "hit": false,
      "t": 40600,
      "d": 200,
      "v": 100
    },
    {
      "midi": 77,
      "hit": false,
      "t": 40800,
      "d": 200,
      "v": 100
    },
    {
      "midi": 50,
      "hit": false,
      "t": 40800,
      "d": 200,
      "v": 100
    },
    {
      "midi": 75,
      "hit": false,
      "t": 41000,
      "d": 200,
      "v": 100
    },
    {
      "midi": 57,
      "hit": false,
      "t": 41000,
      "d": 200,
      "v": 100
    },
    {
      "midi": 74,
      "hit": false,
      "t": 41200,
      "d": 200,
      "v": 100
    },
    {
      "midi": 60,
      "hit": false,
      "t": 41200,
      "d": 200,
      "v": 100
    },
    {
      "midi": 74,
      "hit": false,
      "t": 41400,
      "d": 200,
      "v": 100
    },
    {
      "midi": 55,
      "hit": false,
      "t": 41400,
      "d": 200,
      "v": 100
    },
    {
      "midi": 74,
      "hit": false,
      "t": 41600,
      "d": 200,
      "v": 100
    },
    {
      "midi": 86,
      "hit": false,
      "t": 41600,
      "d": 200,
      "v": 100
    },
    {
      "midi": 58,
      "hit": false,
      "t": 41600,
      "d": 200,
      "v": 100
    },
    {
      "midi": 74,
      "hit": false,
      "t": 41800,
      "d": 200,
      "v": 100
    },
    {
      "midi": 86,
      "hit": false,
      "t": 41800,
      "d": 200,
      "v": 100
    },
    {
      "midi": 62,
      "hit": false,
      "t": 41800,
      "d": 200,
      "v": 100
    },
    {
      "midi": 74,
      "hit": false,
      "t": 42000,
      "d": 200,
      "v": 100
    },
    {
      "midi": 57,
      "hit": false,
      "t": 42000,
      "d": 200,
      "v": 100
    },
    {
      "midi": 74,
      "hit": false,
      "t": 42200,
      "d": 200,
      "v": 100
    },
    {
      "midi": 86,
      "hit": false,
      "t": 42200,
      "d": 200,
      "v": 100
    },
    {
      "midi": 60,
      "hit": false,
      "t": 42200,
      "d": 200,
      "v": 100
    },
    {
      "midi": 74,
      "hit": false,
      "t": 42400,
      "d": 200,
      "v": 100
    },
    {
      "midi": 86,
      "hit": false,
      "t": 42400,
      "d": 200,
      "v": 100
    },
    {
      "midi": 66,
      "hit": false,
      "t": 42400,
      "d": 200,
      "v": 100
    },
    {
      "midi": 74,
      "hit": false,
      "t": 42600,
      "d": 200,
      "v": 100
    },
    {
      "midi": 58,
      "hit": false,
      "t": 42600,
      "d": 200,
      "v": 100
    },
    {
      "midi": 74,
      "hit": false,
      "t": 42800,
      "d": 200,
      "v": 100
    },
    {
      "midi": 86,
      "hit": false,
      "t": 42800,
      "d": 200,
      "v": 100
    },
    {
      "midi": 62,
      "hit": false,
      "t": 42800,
      "d": 200,
      "v": 100
    },
    {
      "midi": 74,
      "hit": false,
      "t": 43000,
      "d": 200,
      "v": 100
    },
    {
      "midi": 86,
      "hit": false,
      "t": 43000,
      "d": 200,
      "v": 100
    },
    {
      "midi": 67,
      "hit": false,
      "t": 43000,
      "d": 200,
      "v": 100
    },
    {
      "midi": 74,
      "hit": false,
      "t": 43200,
      "d": 600,
      "v": 100
    },
    {
      "midi": 86,
      "hit": false,
      "t": 43200,
      "d": 600,
      "v": 100
    },
    {
      "midi": 59,
      "hit": false,
      "t": 43200,
      "d": 200,
      "v": 100
    },
    {
      "midi": 65,
      "hit": false,
      "t": 43400,
      "d": 200,
      "v": 100
    },
    {
      "midi": 68,
      "hit": false,
      "t": 43600,
      "d": 200,
      "v": 100
    },
    {
      "midi": 72,
      "hit": false,
      "t": 43800,
      "d": 600,
      "v": 100
    },
    {
      "midi": 84,
      "hit": false,
      "t": 43800,
      "d": 600,
      "v": 100
    },
    {
      "midi": 60,
      "hit": false,
      "t": 43800,
      "d": 200,
      "v": 100
    },
    {
      "midi": 65,
      "hit": false,
      "t": 44000,
      "d": 200,
      "v": 100
    },
    {
      "midi": 69,
      "hit": false,
      "t": 44200,
      "d": 200,
      "v": 100
    },
    {
      "midi": 71,
      "hit": false,
      "t": 44400,
      "d": 600,
      "v": 100
    },
    {
      "midi": 83,
      "hit": false,
      "t": 44400,
      "d": 600,
      "v": 100
    },
    {
      "midi": 61,
      "hit": false,
      "t": 44400,
      "d": 200,
      "v": 100
    },
    {
      "midi": 65,
      "hit": false,
      "t": 44600,
      "d": 200,
      "v": 100
    },
    {
      "midi": 68,
      "hit": false,
      "t": 44800,
      "d": 200,
      "v": 100
    },
    {
      "midi": 72,
      "hit": false,
      "t": 45000,
      "d": 600,
      "v": 100
    },
    {
      "midi": 84,
      "hit": false,
      "t": 45000,
      "d": 600,
      "v": 100
    },
    {
      "midi": 45,
      "hit": false,
      "t": 45000,
      "d": 200,
      "v": 100
    },
    {
      "midi": 57,
      "hit": false,
      "t": 45200,
      "d": 200,
      "v": 100
    },
    {
      "midi": 60,
      "hit": false,
      "t": 45200,
      "d": 200,
      "v": 100
    },
    {
      "midi": 65,
      "hit": false,
      "t": 45200,
      "d": 200,
      "v": 100
    },
    {
      "midi": 57,
      "hit": false,
      "t": 45400,
      "d": 200,
      "v": 100
    },
    {
      "midi": 60,
      "hit": false,
      "t": 45400,
      "d": 200,
      "v": 100
    },
    {
      "midi": 65,
      "hit": false,
      "t": 45400,
      "d": 200,
      "v": 100
    },
    {
      "midi": 72,
      "hit": false,
      "t": 45600,
      "d": 200,
      "v": 100
    },
    {
      "midi": 84,
      "hit": false,
      "t": 45600,
      "d": 200,
      "v": 100
    },
    {
      "midi": 57,
      "hit": false,
      "t": 45600,
      "d": 200,
      "v": 100
    },
    {
      "midi": 60,
      "hit": false,
      "t": 45600,
      "d": 200,
      "v": 100
    },
    {
      "midi": 65,
      "hit": false,
      "t": 45600,
      "d": 200,
      "v": 100
    },
    {
      "midi": 80,
      "hit": false,
      "t": 45800,
      "d": 200,
      "v": 100
    },
    {
      "midi": 57,
      "hit": false,
      "t": 45800,
      "d": 200,
      "v": 100
    },
    {
      "midi": 60,
      "hit": false,
      "t": 45800,
      "d": 200,
      "v": 100
    },
    {
      "midi": 65,
      "hit": false,
      "t": 45800,
      "d": 200,
      "v": 100
    },
    {
      "midi": 81,
      "hit": false,
      "t": 46000,
      "d": 200,
      "v": 100
    },
    {
      "midi": 57,
      "hit": false,
      "t": 46000,
      "d": 200,
      "v": 100
    },
    {
      "midi": 60,
      "hit": false,
      "t": 46000,
      "d": 200,
      "v": 100
    },
    {
      "midi": 65,
      "hit": false,
      "t": 46000,
      "d": 200,
      "v": 100
    },
    {
      "midi": 84,
      "hit": false,
      "t": 46200,
      "d": 200,
      "v": 100
    },
    {
      "midi": 57,
      "hit": false,
      "t": 46200,
      "d": 200,
      "v": 100
    },
    {
      "midi": 60,
      "hit": false,
      "t": 46200,
      "d": 200,
      "v": 100
    },
    {
      "midi": 65,
      "hit": false,
      "t": 46200,
      "d": 200,
      "v": 100
    },
    {
      "midi": 76,
      "hit": false,
      "t": 46400,
      "d": 200,
      "v": 100
    },
    {
      "midi": 57,
      "hit": false,
      "t": 46400,
      "d": 200,
      "v": 100
    },
    {
      "midi": 60,
      "hit": false,
      "t": 46400,
      "d": 200,
      "v": 100
    },
    {
      "midi": 65,
      "hit": false,
      "t": 46400,
      "d": 200,
      "v": 100
    },
    {
      "midi": 77,
      "hit": false,
      "t": 46600,
      "d": 200,
      "v": 100
    },
    {
      "midi": 57,
      "hit": false,
      "t": 46600,
      "d": 200,
      "v": 100
    },
    {
      "midi": 60,
      "hit": false,
      "t": 46600,
      "d": 200,
      "v": 100
    },
    {
      "midi": 65,
      "hit": false,
      "t": 46600,
      "d": 200,
      "v": 100
    },
    {
      "midi": 79,
      "hit": false,
      "t": 46800,
      "d": 600,
      "v": 100
    },
    {
      "midi": 48,
      "hit": false,
      "t": 46800,
      "d": 200,
      "v": 100
    },
    {
      "midi": 58,
      "hit": false,
      "t": 47000,
      "d": 200,
      "v": 100
    },
    {
      "midi": 60,
      "hit": false,
      "t": 47000,
      "d": 200,
      "v": 100
    },
    {
      "midi": 64,
      "hit": false,
      "t": 47000,
      "d": 200,
      "v": 100
    },
    {
      "midi": 58,
      "hit": false,
      "t": 47200,
      "d": 200,
      "v": 100
    },
    {
      "midi": 60,
      "hit": false,
      "t": 47200,
      "d": 200,
      "v": 100
    },
    {
      "midi": 64,
      "hit": false,
      "t": 47200,
      "d": 200,
      "v": 100
    },
    {
      "midi": 79,
      "hit": false,
      "t": 47400,
      "d": 200,
      "v": 100
    },
    {
      "midi": 58,
      "hit": false,
      "t": 47400,
      "d": 200,
      "v": 100
    },
    {
      "midi": 60,
      "hit": false,
      "t": 47400,
      "d": 200,
      "v": 100
    },
    {
      "midi": 64,
      "hit": false,
      "t": 47400,
      "d": 200,
      "v": 100
    },
    {
      "midi": 78,
      "hit": false,
      "t": 47600,
      "d": 200,
      "v": 100
    },
    {
      "midi": 58,
      "hit": false,
      "t": 47600,
      "d": 200,
      "v": 100
    },
    {
      "midi": 60,
      "hit": false,
      "t": 47600,
      "d": 200,
      "v": 100
    },
    {
      "midi": 64,
      "hit": false,
      "t": 47600,
      "d": 200,
      "v": 100
    },
    {
      "midi": 79,
      "hit": false,
      "t": 47800,
      "d": 200,
      "v": 100
    },
    {
      "midi": 58,
      "hit": false,
      "t": 47800,
      "d": 200,
      "v": 100
    },
    {
      "midi": 60,
      "hit": false,
      "t": 47800,
      "d": 200,
      "v": 100
    },
    {
      "midi": 64,
      "hit": false,
      "t": 47800,
      "d": 200,
      "v": 100
    },
    {
      "midi": 82,
      "hit": false,
      "t": 48000,
      "d": 200,
      "v": 100
    },
    {
      "midi": 58,
      "hit": false,
      "t": 48000,
      "d": 200,
      "v": 100
    },
    {
      "midi": 60,
      "hit": false,
      "t": 48000,
      "d": 200,
      "v": 100
    },
    {
      "midi": 64,
      "hit": false,
      "t": 48000,
      "d": 200,
      "v": 100
    },
    {
      "midi": 74,
      "hit": false,
      "t": 48200,
      "d": 200,
      "v": 100
    },
    {
      "midi": 58,
      "hit": false,
      "t": 48200,
      "d": 200,
      "v": 100
    },
    {
      "midi": 60,
      "hit": false,
      "t": 48200,
      "d": 200,
      "v": 100
    },
    {
      "midi": 64,
      "hit": false,
      "t": 48200,
      "d": 200,
      "v": 100
    },
    {
      "midi": 76,
      "hit": false,
      "t": 48400,
      "d": 200,
      "v": 100
    },
    {
      "midi": 58,
      "hit": false,
      "t": 48400,
      "d": 200,
      "v": 100
    },
    {
      "midi": 60,
      "hit": false,
      "t": 48400,
      "d": 200,
      "v": 100
    },
    {
      "midi": 64,
      "hit": false,
      "t": 48400,
      "d": 200,
      "v": 100
    },
    {
      "midi": 77,
      "hit": false,
      "t": 48600,
      "d": 600,
      "v": 100
    },
    {
      "midi": 53,
      "hit": false,
      "t": 48600,
      "d": 200,
      "v": 100
    },
    {
      "midi": 57,
      "hit": false,
      "t": 48800,
      "d": 200,
      "v": 100
    },
    {
      "midi": 60,
      "hit": false,
      "t": 49000,
      "d": 200,
      "v": 100
    },
    {
      "midi": 77,
      "hit": false,
      "t": 49200,
      "d": 200,
      "v": 100
    },
    {
      "midi": 53,
      "hit": false,
      "t": 49200,
      "d": 300,
      "v": 100
    },
    {
      "midi": 81,
      "hit": false,
      "t": 49400,
      "d": 200,
      "v": 100
    },
    {
      "midi": 72,
      "hit": false,
      "t": 49600,
      "d": 200,
      "v": 100
    },
    {
      "midi": 77,
      "hit": false,
      "t": 49800,
      "d": 200,
      "v": 100
    },
    {
      "midi": 69,
      "hit": false,
      "t": 50000,
      "d": 200,
      "v": 100
    },
    {
      "midi": 72,
      "hit": false,
      "t": 50200,
      "d": 200,
      "v": 100
    },
    {
      "midi": 65,
      "hit": false,
      "t": 50400,
      "d": 600,
      "v": 100
    },
    {
      "midi": 53,
      "hit": false,
      "t": 50400,
      "d": 200,
      "v": 100
    },
    {
      "midi": 57,
      "hit": false,
      "t": 50600,
      "d": 200,
      "v": 100
    },
    {
      "midi": 60,
      "hit": false,
      "t": 50800,
      "d": 200,
      "v": 100
    },
    {
      "midi": 65,
      "hit": false,
      "t": 51000,
      "d": 200,
      "v": 100
    },
    {
      "midi": 53,
      "hit": false,
      "t": 51000,
      "d": 300,
      "v": 100
    },
    {
      "midi": 69,
      "hit": false,
      "t": 51200,
      "d": 200,
      "v": 100
    },
    {
      "midi": 60,
      "hit": false,
      "t": 51400,
      "d": 200,
      "v": 100
    },
    {
      "midi": 65,
      "hit": false,
      "t": 51600,
      "d": 200,
      "v": 100
    },
    {
      "midi": 57,
      "hit": false,
      "t": 51800,
      "d": 200,
      "v": 100
    },
    {
      "midi": 60,
      "hit": false,
      "t": 52000,
      "d": 200,
      "v": 100
    },
    {
      "midi": 57,
      "hit": false,
      "t": 52200,
      "d": 600,
      "v": 100
    },
    {
      "midi": 60,
      "hit": false,
      "t": 52200,
      "d": 600,
      "v": 100
    },
    {
      "midi": 65,
      "hit": false,
      "t": 52200,
      "d": 600,
      "v": 100
    },
    {
      "midi": 41,
      "hit": false,
      "t": 52200,
      "d": 600,
      "v": 100
    },
    {
      "midi": 53,
      "hit": false,
      "t": 52200,
      "d": 600,
      "v": 100
    },
    {
      "midi": 67,
      "hit": false,
      "t": 54000,
      "d": 600,
      "v": 100
    },
    {
      "midi": 72,
      "hit": false,
      "t": 54000,
      "d": 600,
      "v": 100
    },
    {
      "midi": 77,
      "hit": false,
      "t": 54000,
      "d": 600,
      "v": 100
    },
    {
      "midi": 41,
      "hit": false,
      "t": 54000,
      "d": 600,
      "v": 100
    },
    {
      "midi": 53,
      "hit": false,
      "t": 54000,
      "d": 600,
      "v": 100
    },
    {
      "midi": 57,
      "hit": false,
      "t": 55800,
      "d": 2400,
      "v": 100
    },
    {
      "midi": 60,
      "hit": false,
      "t": 55800,
      "d": 2400,
      "v": 100
    },
    {
      "midi": 65,
      "hit": false,
      "t": 55800,
      "d": 2400,
      "v": 100
    },
    {
      "midi": 41,
      "hit": false,
      "t": 55800,
      "d": 2400,
      "v": 100
    },
    {
      "midi": 53,
      "hit": false,
      "t": 55800,
      "d": 2400,
      "v": 100
    }
  ]
}