{
  "jsonPath": "Soundtracks/Video Game Music/Legend of Zelda A Link to the Past/legend-of-zelda-a-link-to-the-past-darkworlddungeon.json",
  "path": "Soundtracks\\Video Game Music\\Legend of Zelda A Link to the Past\\Legend_of_Zelda_A_Link_to_the_Past_DarkWorldDungeon.mid",
  "name": "Legend_of_Zelda_A_Link_to_the_Past_DarkWorldDungeon",
  "difficulty": "Advanced",
  "bpm": 141.00030315065177,
  "notes": [
    {
      "midi": 65,
      "hit": false,
      "t": 0,
      "d": 101.95013541666667,
      "v": 127
    },
    {
      "midi": 71,
      "hit": false,
      "t": 0,
      "d": 101.95013541666667,
      "v": 127
    },
    {
      "midi": 65,
      "hit": false,
      "t": 106.38275,
      "d": 101.95013541666667,
      "v": 92
    },
    {
      "midi": 71,
      "hit": false,
      "t": 106.38275,
      "d": 101.95013541666667,
      "v": 92
    },
    {
      "midi": 65,
      "hit": false,
      "t": 212.7655,
      "d": 101.95013541666665,
      "v": 92
    },
    {
      "midi": 71,
      "hit": false,
      "t": 212.7655,
      "d": 101.95013541666665,
      "v": 92
    },
    {
      "midi": 65,
      "hit": false,
      "t": 319.14825,
      "d": 101.95013541666668,
      "v": 92
    },
    {
      "midi": 71,
      "hit": false,
      "t": 319.14825,
      "d": 101.95013541666668,
      "v": 92
    },
    {
      "midi": 65,
      "hit": false,
      "t": 425.53100000000006,
      "d": 101.95013541666663,
      "v": 127
    },
    {
      "midi": 71,
      "hit": false,
      "t": 425.53100000000006,
      "d": 101.95013541666663,
      "v": 127
    },
    {
      "midi": 65,
      "hit": false,
      "t": 531.91375,
      "d": 101.95013541666663,
      "v": 92
    },
    {
      "midi": 71,
      "hit": false,
      "t": 531.91375,
      "d": 101.95013541666663,
      "v": 92
    },
    {
      "midi": 65,
      "hit": false,
      "t": 638.2965,
      "d": 101.95013541666663,
      "v": 92
    },
    {
      "midi": 71,
      "hit": false,
      "t": 638.2965,
      "d": 101.95013541666663,
      "v": 92
    },
    {
      "midi": 65,
      "hit": false,
      "t": 744.67925,
      "d": 101.95013541666663,
      "v": 92
    },
    {
      "midi": 71,
      "hit": false,
      "t": 744.67925,
      "d": 101.95013541666663,
      "v": 92
    },
    {
      "midi": 65,
      "hit": false,
      "t": 851.062,
      "d": 101.95013541666663,
      "v": 127
    },
    {
      "midi": 71,
      "hit": false,
      "t": 851.062,
      "d": 101.95013541666663,
      "v": 127
    },
    {
      "midi": 65,
      "hit": false,
      "t": 957.44475,
      "d": 101.95013541666674,
      "v": 92
    },
    {
      "midi": 71,
      "hit": false,
      "t": 957.44475,
      "d": 101.95013541666674,
      "v": 92
    },
    {
      "midi": 65,
      "hit": false,
      "t": 1063.8275,
      "d": 101.95013541666663,
      "v": 92
    },
    {
      "midi": 71,
      "hit": false,
      "t": 1063.8275,
      "d": 101.95013541666663,
      "v": 92
    },
    {
      "midi": 65,
      "hit": false,
      "t": 1170.21025,
      "d": 101.95013541666663,
      "v": 92
    },
    {
      "midi": 71,
      "hit": false,
      "t": 1170.21025,
      "d": 101.95013541666663,
      "v": 92
    },
    {
      "midi": 65,
      "hit": false,
      "t": 1276.593,
      "d": 101.95013541666663,
      "v": 127
    },
    {
      "midi": 71,
      "hit": false,
      "t": 1276.593,
      "d": 101.95013541666663,
      "v": 127
    },
    {
      "midi": 65,
      "hit": false,
      "t": 1382.97575,
      "d": 101.95013541666663,
      "v": 92
    },
    {
      "midi": 71,
      "hit": false,
      "t": 1382.97575,
      "d": 101.95013541666663,
      "v": 92
    },
    {
      "midi": 65,
      "hit": false,
      "t": 1489.3585,
      "d": 101.95013541666663,
      "v": 92
    },
    {
      "midi": 71,
      "hit": false,
      "t": 1489.3585,
      "d": 101.95013541666663,
      "v": 92
    },
    {
      "midi": 65,
      "hit": false,
      "t": 1595.74125,
      "d": 101.95013541666663,
      "v": 92
    },
    {
      "midi": 71,
      "hit": false,
      "t": 1595.74125,
      "d": 101.95013541666663,
      "v": 92
    },
    {
      "midi": 64,
      "hit": false,
      "t": 1702.124,
      "d": 101.95013541666663,
      "v": 127
    },
    {
      "midi": 70,
      "hit": false,
      "t": 1702.124,
      "d": 101.95013541666663,
      "v": 127
    },
    {
      "midi": 64,
      "hit": false,
      "t": 1808.50675,
      "d": 101.95013541666663,
      "v": 92
    },
    {
      "midi": 70,
      "hit": false,
      "t": 1808.50675,
      "d": 101.95013541666663,
      "v": 92
    },
    {
      "midi": 64,
      "hit": false,
      "t": 1914.8895,
      "d": 101.95013541666663,
      "v": 92
    },
    {
      "midi": 70,
      "hit": false,
      "t": 1914.8895,
      "d": 101.95013541666663,
      "v": 92
    },
    {
      "midi": 64,
      "hit": false,
      "t": 2021.27225,
      "d": 101.95013541666685,
      "v": 92
    },
    {
      "midi": 70,
      "hit": false,
      "t": 2021.27225,
      "d": 101.95013541666685,
      "v": 92
    },
    {
      "midi": 64,
      "hit": false,
      "t": 2127.655,
      "d": 101.95013541666685,
      "v": 127
    },
    {
      "midi": 70,
      "hit": false,
      "t": 2127.655,
      "d": 101.95013541666685,
      "v": 127
    },
    {
      "midi": 64,
      "hit": false,
      "t": 2234.0377500000004,
      "d": 101.95013541666685,
      "v": 92
    },
    {
      "midi": 70,
      "hit": false,
      "t": 2234.0377500000004,
      "d": 101.95013541666685,
      "v": 92
    },
    {
      "midi": 64,
      "hit": false,
      "t": 2340.4205000000006,
      "d": 101.95013541666685,
      "v": 92
    },
    {
      "midi": 70,
      "hit": false,
      "t": 2340.4205000000006,
      "d": 101.95013541666685,
      "v": 92
    },
    {
      "midi": 64,
      "hit": false,
      "t": 2446.803250000001,
      "d": 101.95013541666685,
      "v": 92
    },
    {
      "midi": 70,
      "hit": false,
      "t": 2446.803250000001,
      "d": 101.95013541666685,
      "v": 92
    },
    {
      "midi": 64,
      "hit": false,
      "t": 2553.186000000001,
      "d": 101.95013541666685,
      "v": 127
    },
    {
      "midi": 70,
      "hit": false,
      "t": 2553.186000000001,
      "d": 101.95013541666685,
      "v": 127
    },
    {
      "midi": 64,
      "hit": false,
      "t": 2659.5687500000013,
      "d": 101.95013541666685,
      "v": 92
    },
    {
      "midi": 70,
      "hit": false,
      "t": 2659.5687500000013,
      "d": 101.95013541666685,
      "v": 92
    },
    {
      "midi": 64,
      "hit": false,
      "t": 2765.9515000000015,
      "d": 101.95013541666685,
      "v": 92
    },
    {
      "midi": 70,
      "hit": false,
      "t": 2765.9515000000015,
      "d": 101.95013541666685,
      "v": 92
    },
    {
      "midi": 64,
      "hit": false,
      "t": 2872.3342500000017,
      "d": 101.95013541666685,
      "v": 92
    },
    {
      "midi": 70,
      "hit": false,
      "t": 2872.3342500000017,
      "d": 101.95013541666685,
      "v": 92
    },
    {
      "midi": 64,
      "hit": false,
      "t": 2978.717000000002,
      "d": 101.95013541666685,
      "v": 127
    },
    {
      "midi": 70,
      "hit": false,
      "t": 2978.717000000002,
      "d": 101.95013541666685,
      "v": 127
    },
    {
      "midi": 64,
      "hit": false,
      "t": 3085.099750000002,
      "d": 101.95013541666685,
      "v": 92
    },
    {
      "midi": 70,
      "hit": false,
      "t": 3085.099750000002,
      "d": 101.95013541666685,
      "v": 92
    },
    {
      "midi": 64,
      "hit": false,
      "t": 3191.4825000000023,
      "d": 101.95013541666685,
      "v": 92
    },
    {
      "midi": 70,
      "hit": false,
      "t": 3191.4825000000023,
      "d": 101.95013541666685,
      "v": 92
    },
    {
      "midi": 64,
      "hit": false,
      "t": 3297.8652500000026,
      "d": 101.95013541666685,
      "v": 92
    },
    {
      "midi": 70,
      "hit": false,
      "t": 3297.8652500000026,
      "d": 101.95013541666685,
      "v": 92
    },
    {
      "midi": 68,
      "hit": false,
      "t": 3404.248000000003,
      "d": 101.95013541666685,
      "v": 127
    },
    {
      "midi": 74,
      "hit": false,
      "t": 3404.248000000003,
      "d": 101.95013541666685,
      "v": 127
    },
    {
      "midi": 68,
      "hit": false,
      "t": 3510.630750000003,
      "d": 101.95013541666685,
      "v": 92
    },
    {
      "midi": 74,
      "hit": false,
      "t": 3510.630750000003,
      "d": 101.95013541666685,
      "v": 92
    },
    {
      "midi": 68,
      "hit": false,
      "t": 3617.013500000003,
      "d": 101.95013541666685,
      "v": 92
    },
    {
      "midi": 74,
      "hit": false,
      "t": 3617.013500000003,
      "d": 101.95013541666685,
      "v": 92
    },
    {
      "midi": 68,
      "hit": false,
      "t": 3723.3962500000034,
      "d": 101.95013541666685,
      "v": 92
    },
    {
      "midi": 74,
      "hit": false,
      "t": 3723.3962500000034,
      "d": 101.95013541666685,
      "v": 92
    },
    {
      "midi": 68,
      "hit": false,
      "t": 3829.7790000000036,
      "d": 101.95013541666685,
      "v": 127
    },
    {
      "midi": 74,
      "hit": false,
      "t": 3829.7790000000036,
      "d": 101.95013541666685,
      "v": 127
    },
    {
      "midi": 68,
      "hit": false,
      "t": 3936.161750000004,
      "d": 101.95013541666685,
      "v": 92
    },
    {
      "midi": 74,
      "hit": false,
      "t": 3936.161750000004,
      "d": 101.95013541666685,
      "v": 92
    },
    {
      "midi": 68,
      "hit": false,
      "t": 4042.544500000004,
      "d": 101.9501354166664,
      "v": 92
    },
    {
      "midi": 74,
      "hit": false,
      "t": 4042.544500000004,
      "d": 101.9501354166664,
      "v": 92
    },
    {
      "midi": 68,
      "hit": false,
      "t": 4148.927250000003,
      "d": 101.95013541666685,
      "v": 92
    },
    {
      "midi": 74,
      "hit": false,
      "t": 4148.927250000003,
      "d": 101.95013541666685,
      "v": 92
    },
    {
      "midi": 68,
      "hit": false,
      "t": 4255.310000000003,
      "d": 101.95013541666685,
      "v": 127
    },
    {
      "midi": 74,
      "hit": false,
      "t": 4255.310000000003,
      "d": 101.95013541666685,
      "v": 127
    },
    {
      "midi": 68,
      "hit": false,
      "t": 4361.692750000003,
      "d": 101.95013541666685,
      "v": 92
    },
    {
      "midi": 74,
      "hit": false,
      "t": 4361.692750000003,
      "d": 101.95013541666685,
      "v": 92
    },
    {
      "midi": 68,
      "hit": false,
      "t": 4468.075500000003,
      "d": 101.95013541666685,
      "v": 92
    },
    {
      "midi": 74,
      "hit": false,
      "t": 4468.075500000003,
      "d": 101.95013541666685,
      "v": 92
    },
    {
      "midi": 68,
      "hit": false,
      "t": 4574.458250000002,
      "d": 101.95013541666685,
      "v": 92
    },
    {
      "midi": 74,
      "hit": false,
      "t": 4574.458250000002,
      "d": 101.95013541666685,
      "v": 92
    },
    {
      "midi": 68,
      "hit": false,
      "t": 4680.841000000002,
      "d": 101.95013541666685,
      "v": 127
    },
    {
      "midi": 74,
      "hit": false,
      "t": 4680.841000000002,
      "d": 101.95013541666685,
      "v": 127
    },
    {
      "midi": 68,
      "hit": false,
      "t": 4787.223750000002,
      "d": 101.95013541666685,
      "v": 92
    },
    {
      "midi": 74,
      "hit": false,
      "t": 4787.223750000002,
      "d": 101.95013541666685,
      "v": 92
    },
    {
      "midi": 68,
      "hit": false,
      "t": 4893.606500000002,
      "d": 101.95013541666685,
      "v": 92
    },
    {
      "midi": 74,
      "hit": false,
      "t": 4893.606500000002,
      "d": 101.95013541666685,
      "v": 92
    },
    {
      "midi": 68,
      "hit": false,
      "t": 4999.989250000001,
      "d": 101.95013541666685,
      "v": 92
    },
    {
      "midi": 74,
      "hit": false,
      "t": 4999.989250000001,
      "d": 101.95013541666685,
      "v": 92
    },
    {
      "midi": 67,
      "hit": false,
      "t": 5106.372000000001,
      "d": 101.95013541666685,
      "v": 127
    },
    {
      "midi": 73,
      "hit": false,
      "t": 5106.372000000001,
      "d": 101.95013541666685,
      "v": 127
    },
    {
      "midi": 67,
      "hit": false,
      "t": 5212.754750000001,
      "d": 101.95013541666685,
      "v": 92
    },
    {
      "midi": 73,
      "hit": false,
      "t": 5212.754750000001,
      "d": 101.95013541666685,
      "v": 92
    },
    {
      "midi": 67,
      "hit": false,
      "t": 5319.137500000001,
      "d": 101.95013541666685,
      "v": 92
    },
    {
      "midi": 73,
      "hit": false,
      "t": 5319.137500000001,
      "d": 101.95013541666685,
      "v": 92
    },
    {
      "midi": 67,
      "hit": false,
      "t": 5425.5202500000005,
      "d": 101.95013541666685,
      "v": 92
    },
    {
      "midi": 73,
      "hit": false,
      "t": 5425.5202500000005,
      "d": 101.95013541666685,
      "v": 92
    },
    {
      "midi": 67,
      "hit": false,
      "t": 5531.903,
      "d": 101.95013541666685,
      "v": 127
    },
    {
      "midi": 73,
      "hit": false,
      "t": 5531.903,
      "d": 101.95013541666685,
      "v": 127
    },
    {
      "midi": 67,
      "hit": false,
      "t": 5638.28575,
      "d": 101.95013541666685,
      "v": 92
    },
    {
      "midi": 73,
      "hit": false,
      "t": 5638.28575,
      "d": 101.95013541666685,
      "v": 92
    },
    {
      "midi": 67,
      "hit": false,
      "t": 5744.6685,
      "d": 101.95013541666685,
      "v": 92
    },
    {
      "midi": 73,
      "hit": false,
      "t": 5744.6685,
      "d": 101.95013541666685,
      "v": 92
    },
    {
      "midi": 67,
      "hit": false,
      "t": 5851.0512499999995,
      "d": 101.95013541666685,
      "v": 92
    },
    {
      "midi": 73,
      "hit": false,
      "t": 5851.0512499999995,
      "d": 101.95013541666685,
      "v": 92
    },
    {
      "midi": 67,
      "hit": false,
      "t": 5957.433999999999,
      "d": 101.95013541666685,
      "v": 127
    },
    {
      "midi": 73,
      "hit": false,
      "t": 5957.433999999999,
      "d": 101.95013541666685,
      "v": 127
    },
    {
      "midi": 67,
      "hit": false,
      "t": 6063.816749999999,
      "d": 101.95013541666685,
      "v": 92
    },
    {
      "midi": 73,
      "hit": false,
      "t": 6063.816749999999,
      "d": 101.95013541666685,
      "v": 92
    },
    {
      "midi": 67,
      "hit": false,
      "t": 6170.199499999999,
      "d": 101.95013541666685,
      "v": 92
    },
    {
      "midi": 73,
      "hit": false,
      "t": 6170.199499999999,
      "d": 101.95013541666685,
      "v": 92
    },
    {
      "midi": 67,
      "hit": false,
      "t": 6276.582249999999,
      "d": 101.95013541666685,
      "v": 92
    },
    {
      "midi": 73,
      "hit": false,
      "t": 6276.582249999999,
      "d": 101.95013541666685,
      "v": 92
    },
    {
      "midi": 67,
      "hit": false,
      "t": 6382.964999999998,
      "d": 101.95013541666685,
      "v": 127
    },
    {
      "midi": 73,
      "hit": false,
      "t": 6382.964999999998,
      "d": 101.95013541666685,
      "v": 127
    },
    {
      "midi": 67,
      "hit": false,
      "t": 6489.347749999998,
      "d": 101.95013541666685,
      "v": 92
    },
    {
      "midi": 73,
      "hit": false,
      "t": 6489.347749999998,
      "d": 101.95013541666685,
      "v": 92
    },
    {
      "midi": 67,
      "hit": false,
      "t": 6595.730499999998,
      "d": 101.95013541666685,
      "v": 92
    },
    {
      "midi": 73,
      "hit": false,
      "t": 6595.730499999998,
      "d": 101.95013541666685,
      "v": 92
    },
    {
      "midi": 67,
      "hit": false,
      "t": 6702.113249999998,
      "d": 101.95013541666685,
      "v": 92
    },
    {
      "midi": 73,
      "hit": false,
      "t": 6702.113249999998,
      "d": 101.95013541666685,
      "v": 92
    },
    {
      "midi": 65,
      "hit": false,
      "t": 6808.495999999997,
      "d": 101.95013541666685,
      "v": 127
    },
    {
      "midi": 71,
      "hit": false,
      "t": 6808.495999999997,
      "d": 101.95013541666685,
      "v": 127
    },
    {
      "midi": 65,
      "hit": false,
      "t": 6914.878749999997,
      "d": 101.95013541666685,
      "v": 92
    },
    {
      "midi": 71,
      "hit": false,
      "t": 6914.878749999997,
      "d": 101.95013541666685,
      "v": 92
    },
    {
      "midi": 65,
      "hit": false,
      "t": 7021.261499999997,
      "d": 101.95013541666685,
      "v": 92
    },
    {
      "midi": 71,
      "hit": false,
      "t": 7021.261499999997,
      "d": 101.95013541666685,
      "v": 92
    },
    {
      "midi": 65,
      "hit": false,
      "t": 7127.644249999997,
      "d": 101.95013541666685,
      "v": 92
    },
    {
      "midi": 71,
      "hit": false,
      "t": 7127.644249999997,
      "d": 101.95013541666685,
      "v": 92
    },
    {
      "midi": 65,
      "hit": false,
      "t": 7234.026999999996,
      "d": 101.95013541666685,
      "v": 127
    },
    {
      "midi": 71,
      "hit": false,
      "t": 7234.026999999996,
      "d": 101.95013541666685,
      "v": 127
    },
    {
      "midi": 65,
      "hit": false,
      "t": 7340.409749999996,
      "d": 101.95013541666685,
      "v": 92
    },
    {
      "midi": 71,
      "hit": false,
      "t": 7340.409749999996,
      "d": 101.95013541666685,
      "v": 92
    },
    {
      "midi": 65,
      "hit": false,
      "t": 7446.792499999996,
      "d": 101.95013541666685,
      "v": 92
    },
    {
      "midi": 71,
      "hit": false,
      "t": 7446.792499999996,
      "d": 101.95013541666685,
      "v": 92
    },
    {
      "midi": 65,
      "hit": false,
      "t": 7553.175249999996,
      "d": 101.95013541666685,
      "v": 92
    },
    {
      "midi": 71,
      "hit": false,
      "t": 7553.175249999996,
      "d": 101.95013541666685,
      "v": 92
    },
    {
      "midi": 65,
      "hit": false,
      "t": 7659.557999999995,
      "d": 101.95013541666685,
      "v": 127
    },
    {
      "midi": 71,
      "hit": false,
      "t": 7659.557999999995,
      "d": 101.95013541666685,
      "v": 127
    },
    {
      "midi": 39,
      "hit": false,
      "t": 7659.558000000001,
      "d": 319.1482500000002,
      "v": 110
    },
    {
      "midi": 51,
      "hit": false,
      "t": 7659.558000000001,
      "d": 319.1482500000002,
      "v": 110
    },
    {
      "midi": 65,
      "hit": false,
      "t": 7765.940749999995,
      "d": 101.95013541666685,
      "v": 92
    },
    {
      "midi": 71,
      "hit": false,
      "t": 7765.940749999995,
      "d": 101.95013541666685,
      "v": 92
    },
    {
      "midi": 65,
      "hit": false,
      "t": 7872.323499999995,
      "d": 101.95013541666685,
      "v": 92
    },
    {
      "midi": 71,
      "hit": false,
      "t": 7872.323499999995,
      "d": 101.95013541666685,
      "v": 92
    },
    {
      "midi": 65,
      "hit": false,
      "t": 7978.706249999995,
      "d": 101.95013541666685,
      "v": 92
    },
    {
      "midi": 71,
      "hit": false,
      "t": 7978.706249999995,
      "d": 101.95013541666685,
      "v": 92
    },
    {
      "midi": 38,
      "hit": false,
      "t": 7978.706250000001,
      "d": 319.1482500000002,
      "v": 110
    },
    {
      "midi": 50,
      "hit": false,
      "t": 7978.706250000001,
      "d": 319.1482500000002,
      "v": 110
    },
    {
      "midi": 65,
      "hit": false,
      "t": 8085.0889999999945,
      "d": 101.95013541666685,
      "v": 127
    },
    {
      "midi": 71,
      "hit": false,
      "t": 8085.0889999999945,
      "d": 101.95013541666685,
      "v": 127
    },
    {
      "midi": 65,
      "hit": false,
      "t": 8191.471749999994,
      "d": 101.95013541666685,
      "v": 92
    },
    {
      "midi": 71,
      "hit": false,
      "t": 8191.471749999994,
      "d": 101.95013541666685,
      "v": 92
    },
    {
      "midi": 65,
      "hit": false,
      "t": 8297.854499999994,
      "d": 101.95013541666594,
      "v": 92
    },
    {
      "midi": 71,
      "hit": false,
      "t": 8297.854499999994,
      "d": 101.95013541666594,
      "v": 92
    },
    {
      "midi": 44,
      "hit": false,
      "t": 8297.854500000001,
      "d": 212.76549999999952,
      "v": 110
    },
    {
      "midi": 56,
      "hit": false,
      "t": 8297.854500000001,
      "d": 212.76549999999952,
      "v": 110
    },
    {
      "midi": 65,
      "hit": false,
      "t": 8404.237249999993,
      "d": 101.95013541666594,
      "v": 92
    },
    {
      "midi": 71,
      "hit": false,
      "t": 8404.237249999993,
      "d": 101.95013541666594,
      "v": 92
    },
    {
      "midi": 64,
      "hit": false,
      "t": 8510.619999999992,
      "d": 101.95013541666594,
      "v": 127
    },
    {
      "midi": 70,
      "hit": false,
      "t": 8510.619999999992,
      "d": 101.95013541666594,
      "v": 127
    },
    {
      "midi": 43,
      "hit": false,
      "t": 8510.62,
      "d": 744.6792499999992,
      "v": 110
    },
    {
      "midi": 55,
      "hit": false,
      "t": 8510.62,
      "d": 744.6792499999992,
      "v": 110
    },
    {
      "midi": 64,
      "hit": false,
      "t": 8617.00274999999,
      "d": 101.95013541666594,
      "v": 92
    },
    {
      "midi": 70,
      "hit": false,
      "t": 8617.00274999999,
      "d": 101.95013541666594,
      "v": 92
    },
    {
      "midi": 64,
      "hit": false,
      "t": 8723.38549999999,
      "d": 101.95013541666594,
      "v": 92
    },
    {
      "midi": 70,
      "hit": false,
      "t": 8723.38549999999,
      "d": 101.95013541666594,
      "v": 92
    },
    {
      "midi": 64,
      "hit": false,
      "t": 8829.768249999988,
      "d": 101.95013541666594,
      "v": 92
    },
    {
      "midi": 70,
      "hit": false,
      "t": 8829.768249999988,
      "d": 101.95013541666594,
      "v": 92
    },
    {
      "midi": 64,
      "hit": false,
      "t": 8936.150999999987,
      "d": 101.95013541666594,
      "v": 127
    },
    {
      "midi": 70,
      "hit": false,
      "t": 8936.150999999987,
      "d": 101.95013541666594,
      "v": 127
    },
    {
      "midi": 64,
      "hit": false,
      "t": 9042.533749999986,
      "d": 101.95013541666594,
      "v": 92
    },
    {
      "midi": 70,
      "hit": false,
      "t": 9042.533749999986,
      "d": 101.95013541666594,
      "v": 92
    },
    {
      "midi": 64,
      "hit": false,
      "t": 9148.916499999985,
      "d": 101.95013541666594,
      "v": 92
    },
    {
      "midi": 70,
      "hit": false,
      "t": 9148.916499999985,
      "d": 101.95013541666594,
      "v": 92
    },
    {
      "midi": 64,
      "hit": false,
      "t": 9255.299249999984,
      "d": 101.95013541666594,
      "v": 92
    },
    {
      "midi": 70,
      "hit": false,
      "t": 9255.299249999984,
      "d": 101.95013541666594,
      "v": 92
    },
    {
      "midi": 64,
      "hit": false,
      "t": 9361.681999999983,
      "d": 101.95013541666594,
      "v": 127
    },
    {
      "midi": 70,
      "hit": false,
      "t": 9361.681999999983,
      "d": 101.95013541666594,
      "v": 127
    },
    {
      "midi": 34,
      "hit": false,
      "t": 9361.682,
      "d": 638.2965000000004,
      "v": 110
    },
    {
      "midi": 46,
      "hit": false,
      "t": 9361.682,
      "d": 638.2965000000004,
      "v": 110
    },
    {
      "midi": 64,
      "hit": false,
      "t": 9468.064749999981,
      "d": 101.95013541666594,
      "v": 92
    },
    {
      "midi": 70,
      "hit": false,
      "t": 9468.064749999981,
      "d": 101.95013541666594,
      "v": 92
    },
    {
      "midi": 64,
      "hit": false,
      "t": 9574.44749999998,
      "d": 101.95013541666594,
      "v": 92
    },
    {
      "midi": 70,
      "hit": false,
      "t": 9574.44749999998,
      "d": 101.95013541666594,
      "v": 92
    },
    {
      "midi": 64,
      "hit": false,
      "t": 9680.830249999979,
      "d": 101.95013541666594,
      "v": 92
    },
    {
      "midi": 70,
      "hit": false,
      "t": 9680.830249999979,
      "d": 101.95013541666594,
      "v": 92
    },
    {
      "midi": 64,
      "hit": false,
      "t": 9787.212999999978,
      "d": 101.95013541666594,
      "v": 127
    },
    {
      "midi": 70,
      "hit": false,
      "t": 9787.212999999978,
      "d": 101.95013541666594,
      "v": 127
    },
    {
      "midi": 64,
      "hit": false,
      "t": 9893.595749999977,
      "d": 101.95013541666594,
      "v": 92
    },
    {
      "midi": 70,
      "hit": false,
      "t": 9893.595749999977,
      "d": 101.95013541666594,
      "v": 92
    },
    {
      "midi": 64,
      "hit": false,
      "t": 9999.978499999976,
      "d": 101.95013541666594,
      "v": 92
    },
    {
      "midi": 70,
      "hit": false,
      "t": 9999.978499999976,
      "d": 101.95013541666594,
      "v": 92
    },
    {
      "midi": 33,
      "hit": false,
      "t": 9999.978500000001,
      "d": 1382.9757499999996,
      "v": 110
    },
    {
      "midi": 45,
      "hit": false,
      "t": 9999.978500000001,
      "d": 1382.9757499999996,
      "v": 110
    },
    {
      "midi": 64,
      "hit": false,
      "t": 10106.361249999974,
      "d": 101.95013541666594,
      "v": 92
    },
    {
      "midi": 70,
      "hit": false,
      "t": 10106.361249999974,
      "d": 101.95013541666594,
      "v": 92
    },
    {
      "midi": 68,
      "hit": false,
      "t": 10212.743999999973,
      "d": 101.95013541666594,
      "v": 127
    },
    {
      "midi": 74,
      "hit": false,
      "t": 10212.743999999973,
      "d": 101.95013541666594,
      "v": 127
    },
    {
      "midi": 68,
      "hit": false,
      "t": 10319.126749999972,
      "d": 101.95013541666594,
      "v": 92
    },
    {
      "midi": 74,
      "hit": false,
      "t": 10319.126749999972,
      "d": 101.95013541666594,
      "v": 92
    },
    {
      "midi": 68,
      "hit": false,
      "t": 10425.509499999971,
      "d": 101.95013541666594,
      "v": 92
    },
    {
      "midi": 74,
      "hit": false,
      "t": 10425.509499999971,
      "d": 101.95013541666594,
      "v": 92
    },
    {
      "midi": 68,
      "hit": false,
      "t": 10531.89224999997,
      "d": 101.95013541666594,
      "v": 92
    },
    {
      "midi": 74,
      "hit": false,
      "t": 10531.89224999997,
      "d": 101.95013541666594,
      "v": 92
    },
    {
      "midi": 68,
      "hit": false,
      "t": 10638.274999999969,
      "d": 101.95013541666594,
      "v": 127
    },
    {
      "midi": 74,
      "hit": false,
      "t": 10638.274999999969,
      "d": 101.95013541666594,
      "v": 127
    },
    {
      "midi": 68,
      "hit": false,
      "t": 10744.657749999968,
      "d": 101.95013541666594,
      "v": 92
    },
    {
      "midi": 74,
      "hit": false,
      "t": 10744.657749999968,
      "d": 101.95013541666594,
      "v": 92
    },
    {
      "midi": 68,
      "hit": false,
      "t": 10851.040499999966,
      "d": 101.95013541666594,
      "v": 92
    },
    {
      "midi": 74,
      "hit": false,
      "t": 10851.040499999966,
      "d": 101.95013541666594,
      "v": 92
    },
    {
      "midi": 68,
      "hit": false,
      "t": 10957.423249999965,
      "d": 101.95013541666594,
      "v": 92
    },
    {
      "midi": 74,
      "hit": false,
      "t": 10957.423249999965,
      "d": 101.95013541666594,
      "v": 92
    },
    {
      "midi": 68,
      "hit": false,
      "t": 11063.805999999964,
      "d": 101.95013541666594,
      "v": 127
    },
    {
      "midi": 74,
      "hit": false,
      "t": 11063.805999999964,
      "d": 101.95013541666594,
      "v": 127
    },
    {
      "midi": 68,
      "hit": false,
      "t": 11170.188749999963,
      "d": 101.95013541666594,
      "v": 92
    },
    {
      "midi": 74,
      "hit": false,
      "t": 11170.188749999963,
      "d": 101.95013541666594,
      "v": 92
    },
    {
      "midi": 68,
      "hit": false,
      "t": 11276.571499999962,
      "d": 101.95013541666594,
      "v": 92
    },
    {
      "midi": 74,
      "hit": false,
      "t": 11276.571499999962,
      "d": 101.95013541666594,
      "v": 92
    },
    {
      "midi": 68,
      "hit": false,
      "t": 11382.95424999996,
      "d": 101.95013541666594,
      "v": 92
    },
    {
      "midi": 74,
      "hit": false,
      "t": 11382.95424999996,
      "d": 101.95013541666594,
      "v": 92
    },
    {
      "midi": 68,
      "hit": false,
      "t": 11489.33699999996,
      "d": 101.95013541666594,
      "v": 127
    },
    {
      "midi": 74,
      "hit": false,
      "t": 11489.33699999996,
      "d": 101.95013541666594,
      "v": 127
    },
    {
      "midi": 46,
      "hit": false,
      "t": 11489.337000000001,
      "d": 212.76549999999952,
      "v": 110
    },
    {
      "midi": 58,
      "hit": false,
      "t": 11489.337000000001,
      "d": 212.76549999999952,
      "v": 110
    },
    {
      "midi": 68,
      "hit": false,
      "t": 11595.719749999958,
      "d": 101.95013541666594,
      "v": 92
    },
    {
      "midi": 74,
      "hit": false,
      "t": 11595.719749999958,
      "d": 101.95013541666594,
      "v": 92
    },
    {
      "midi": 68,
      "hit": false,
      "t": 11702.102499999957,
      "d": 101.95013541666594,
      "v": 92
    },
    {
      "midi": 74,
      "hit": false,
      "t": 11702.102499999957,
      "d": 101.95013541666594,
      "v": 92
    },
    {
      "midi": 45,
      "hit": false,
      "t": 11702.1025,
      "d": 1808.5067500000005,
      "v": 110
    },
    {
      "midi": 57,
      "hit": false,
      "t": 11702.1025,
      "d": 1808.5067500000005,
      "v": 110
    },
    {
      "midi": 68,
      "hit": false,
      "t": 11808.485249999956,
      "d": 101.95013541666594,
      "v": 92
    },
    {
      "midi": 74,
      "hit": false,
      "t": 11808.485249999956,
      "d": 101.95013541666594,
      "v": 92
    },
    {
      "midi": 67,
      "hit": false,
      "t": 11914.867999999955,
      "d": 101.95013541666594,
      "v": 127
    },
    {
      "midi": 73,
      "hit": false,
      "t": 11914.867999999955,
      "d": 101.95013541666594,
      "v": 127
    },
    {
      "midi": 67,
      "hit": false,
      "t": 12021.250749999954,
      "d": 101.95013541666594,
      "v": 92
    },
    {
      "midi": 73,
      "hit": false,
      "t": 12021.250749999954,
      "d": 101.95013541666594,
      "v": 92
    },
    {
      "midi": 67,
      "hit": false,
      "t": 12127.633499999953,
      "d": 101.95013541666594,
      "v": 92
    },
    {
      "midi": 73,
      "hit": false,
      "t": 12127.633499999953,
      "d": 101.95013541666594,
      "v": 92
    },
    {
      "midi": 67,
      "hit": false,
      "t": 12234.016249999951,
      "d": 101.95013541666594,
      "v": 92
    },
    {
      "midi": 73,
      "hit": false,
      "t": 12234.016249999951,
      "d": 101.95013541666594,
      "v": 92
    },
    {
      "midi": 67,
      "hit": false,
      "t": 12340.39899999995,
      "d": 101.95013541666594,
      "v": 127
    },
    {
      "midi": 73,
      "hit": false,
      "t": 12340.39899999995,
      "d": 101.95013541666594,
      "v": 127
    },
    {
      "midi": 67,
      "hit": false,
      "t": 12446.78174999995,
      "d": 101.95013541666594,
      "v": 92
    },
    {
      "midi": 73,
      "hit": false,
      "t": 12446.78174999995,
      "d": 101.95013541666594,
      "v": 92
    },
    {
      "midi": 67,
      "hit": false,
      "t": 12553.164499999948,
      "d": 101.95013541666594,
      "v": 92
    },
    {
      "midi": 73,
      "hit": false,
      "t": 12553.164499999948,
      "d": 101.95013541666594,
      "v": 92
    },
    {
      "midi": 67,
      "hit": false,
      "t": 12659.547249999947,
      "d": 101.95013541666594,
      "v": 92
    },
    {
      "midi": 73,
      "hit": false,
      "t": 12659.547249999947,
      "d": 101.95013541666594,
      "v": 92
    },
    {
      "midi": 67,
      "hit": false,
      "t": 12765.929999999946,
      "d": 101.95013541666594,
      "v": 127
    },
    {
      "midi": 73,
      "hit": false,
      "t": 12765.929999999946,
      "d": 101.95013541666594,
      "v": 127
    },
    {
      "midi": 67,
      "hit": false,
      "t": 12872.312749999945,
      "d": 101.95013541666594,
      "v": 92
    },
    {
      "midi": 73,
      "hit": false,
      "t": 12872.312749999945,
      "d": 101.95013541666594,
      "v": 92
    },
    {
      "midi": 67,
      "hit": false,
      "t": 12978.695499999943,
      "d": 101.95013541666594,
      "v": 92
    },
    {
      "midi": 73,
      "hit": false,
      "t": 12978.695499999943,
      "d": 101.95013541666594,
      "v": 92
    },
    {
      "midi": 67,
      "hit": false,
      "t": 13085.078249999942,
      "d": 101.95013541666594,
      "v": 92
    },
    {
      "midi": 73,
      "hit": false,
      "t": 13085.078249999942,
      "d": 101.95013541666594,
      "v": 92
    },
    {
      "midi": 67,
      "hit": false,
      "t": 13191.460999999941,
      "d": 101.95013541666594,
      "v": 127
    },
    {
      "midi": 73,
      "hit": false,
      "t": 13191.460999999941,
      "d": 101.95013541666594,
      "v": 127
    },
    {
      "midi": 67,
      "hit": false,
      "t": 13297.84374999994,
      "d": 101.95013541666594,
      "v": 92
    },
    {
      "midi": 73,
      "hit": false,
      "t": 13297.84374999994,
      "d": 101.95013541666594,
      "v": 92
    },
    {
      "midi": 67,
      "hit": false,
      "t": 13404.226499999939,
      "d": 101.95013541666594,
      "v": 92
    },
    {
      "midi": 73,
      "hit": false,
      "t": 13404.226499999939,
      "d": 101.95013541666594,
      "v": 92
    },
    {
      "midi": 67,
      "hit": false,
      "t": 13510.609249999938,
      "d": 101.95013541666594,
      "v": 92
    },
    {
      "midi": 73,
      "hit": false,
      "t": 13510.609249999938,
      "d": 101.95013541666594,
      "v": 92
    },
    {
      "midi": 65,
      "hit": false,
      "t": 13616.991999999937,
      "d": 101.95013541666594,
      "v": 127
    },
    {
      "midi": 71,
      "hit": false,
      "t": 13616.991999999937,
      "d": 101.95013541666594,
      "v": 127
    },
    {
      "midi": 65,
      "hit": false,
      "t": 13723.374749999935,
      "d": 101.95013541666594,
      "v": 92
    },
    {
      "midi": 71,
      "hit": false,
      "t": 13723.374749999935,
      "d": 101.95013541666594,
      "v": 92
    },
    {
      "midi": 65,
      "hit": false,
      "t": 13829.757499999934,
      "d": 101.95013541666594,
      "v": 92
    },
    {
      "midi": 71,
      "hit": false,
      "t": 13829.757499999934,
      "d": 101.95013541666594,
      "v": 92
    },
    {
      "midi": 65,
      "hit": false,
      "t": 13936.140249999933,
      "d": 101.95013541666594,
      "v": 92
    },
    {
      "midi": 71,
      "hit": false,
      "t": 13936.140249999933,
      "d": 101.95013541666594,
      "v": 92
    },
    {
      "midi": 65,
      "hit": false,
      "t": 14042.522999999932,
      "d": 101.95013541666594,
      "v": 127
    },
    {
      "midi": 71,
      "hit": false,
      "t": 14042.522999999932,
      "d": 101.95013541666594,
      "v": 127
    },
    {
      "midi": 65,
      "hit": false,
      "t": 14148.90574999993,
      "d": 101.95013541666594,
      "v": 92
    },
    {
      "midi": 71,
      "hit": false,
      "t": 14148.90574999993,
      "d": 101.95013541666594,
      "v": 92
    },
    {
      "midi": 65,
      "hit": false,
      "t": 14255.28849999993,
      "d": 101.95013541666594,
      "v": 92
    },
    {
      "midi": 71,
      "hit": false,
      "t": 14255.28849999993,
      "d": 101.95013541666594,
      "v": 92
    },
    {
      "midi": 65,
      "hit": false,
      "t": 14361.671249999928,
      "d": 101.95013541666594,
      "v": 92
    },
    {
      "midi": 71,
      "hit": false,
      "t": 14361.671249999928,
      "d": 101.95013541666594,
      "v": 92
    },
    {
      "midi": 65,
      "hit": false,
      "t": 14468.053999999927,
      "d": 101.95013541666594,
      "v": 127
    },
    {
      "midi": 71,
      "hit": false,
      "t": 14468.053999999927,
      "d": 101.95013541666594,
      "v": 127
    },
    {
      "midi": 39,
      "hit": false,
      "t": 14468.054000000002,
      "d": 319.1482500000002,
      "v": 110
    },
    {
      "midi": 51,
      "hit": false,
      "t": 14468.054000000002,
      "d": 319.1482500000002,
      "v": 110
    },
    {
      "midi": 65,
      "hit": false,
      "t": 14574.436749999926,
      "d": 101.95013541666594,
      "v": 92
    },
    {
      "midi": 71,
      "hit": false,
      "t": 14574.436749999926,
      "d": 101.95013541666594,
      "v": 92
    },
    {
      "midi": 65,
      "hit": false,
      "t": 14680.819499999925,
      "d": 101.95013541666594,
      "v": 92
    },
    {
      "midi": 71,
      "hit": false,
      "t": 14680.819499999925,
      "d": 101.95013541666594,
      "v": 92
    },
    {
      "midi": 65,
      "hit": false,
      "t": 14787.202249999924,
      "d": 101.95013541666594,
      "v": 92
    },
    {
      "midi": 71,
      "hit": false,
      "t": 14787.202249999924,
      "d": 101.95013541666594,
      "v": 92
    },
    {
      "midi": 38,
      "hit": false,
      "t": 14787.202250000002,
      "d": 319.1482500000002,
      "v": 110
    },
    {
      "midi": 50,
      "hit": false,
      "t": 14787.202250000002,
      "d": 319.1482500000002,
      "v": 110
    },
    {
      "midi": 65,
      "hit": false,
      "t": 14893.584999999923,
      "d": 101.95013541666594,
      "v": 127
    },
    {
      "midi": 71,
      "hit": false,
      "t": 14893.584999999923,
      "d": 101.95013541666594,
      "v": 127
    },
    {
      "midi": 65,
      "hit": false,
      "t": 14999.967749999922,
      "d": 101.95013541666594,
      "v": 92
    },
    {
      "midi": 71,
      "hit": false,
      "t": 14999.967749999922,
      "d": 101.95013541666594,
      "v": 92
    },
    {
      "midi": 65,
      "hit": false,
      "t": 15106.35049999992,
      "d": 101.95013541666594,
      "v": 92
    },
    {
      "midi": 71,
      "hit": false,
      "t": 15106.35049999992,
      "d": 101.95013541666594,
      "v": 92
    },
    {
      "midi": 44,
      "hit": false,
      "t": 15106.350500000002,
      "d": 212.76549999999952,
      "v": 110
    },
    {
      "midi": 56,
      "hit": false,
      "t": 15106.350500000002,
      "d": 212.76549999999952,
      "v": 110
    },
    {
      "midi": 65,
      "hit": false,
      "t": 15212.73324999992,
      "d": 101.95013541666594,
      "v": 92
    },
    {
      "midi": 71,
      "hit": false,
      "t": 15212.73324999992,
      "d": 101.95013541666594,
      "v": 92
    },
    {
      "midi": 64,
      "hit": false,
      "t": 15319.115999999918,
      "d": 101.95013541666594,
      "v": 127
    },
    {
      "midi": 70,
      "hit": false,
      "t": 15319.115999999918,
      "d": 101.95013541666594,
      "v": 127
    },
    {
      "midi": 43,
      "hit": false,
      "t": 15319.116000000002,
      "d": 744.6792499999992,
      "v": 110
    },
    {
      "midi": 55,
      "hit": false,
      "t": 15319.116000000002,
      "d": 744.6792499999992,
      "v": 110
    },
    {
      "midi": 64,
      "hit": false,
      "t": 15425.498749999917,
      "d": 101.95013541666594,
      "v": 92
    },
    {
      "midi": 70,
      "hit": false,
      "t": 15425.498749999917,
      "d": 101.95013541666594,
      "v": 92
    },
    {
      "midi": 64,
      "hit": false,
      "t": 15531.881499999916,
      "d": 101.95013541666594,
      "v": 92
    },
    {
      "midi": 70,
      "hit": false,
      "t": 15531.881499999916,
      "d": 101.95013541666594,
      "v": 92
    },
    {
      "midi": 64,
      "hit": false,
      "t": 15638.264249999915,
      "d": 101.95013541666594,
      "v": 92
    },
    {
      "midi": 70,
      "hit": false,
      "t": 15638.264249999915,
      "d": 101.95013541666594,
      "v": 92
    },
    {
      "midi": 64,
      "hit": false,
      "t": 15744.646999999914,
      "d": 101.95013541666594,
      "v": 127
    },
    {
      "midi": 70,
      "hit": false,
      "t": 15744.646999999914,
      "d": 101.95013541666594,
      "v": 127
    },
    {
      "midi": 64,
      "hit": false,
      "t": 15851.029749999912,
      "d": 101.95013541666594,
      "v": 92
    },
    {
      "midi": 70,
      "hit": false,
      "t": 15851.029749999912,
      "d": 101.95013541666594,
      "v": 92
    },
    {
      "midi": 64,
      "hit": false,
      "t": 15957.412499999911,
      "d": 101.95013541666594,
      "v": 92
    },
    {
      "midi": 70,
      "hit": false,
      "t": 15957.412499999911,
      "d": 101.95013541666594,
      "v": 92
    },
    {
      "midi": 64,
      "hit": false,
      "t": 16063.79524999991,
      "d": 101.95013541666594,
      "v": 92
    },
    {
      "midi": 70,
      "hit": false,
      "t": 16063.79524999991,
      "d": 101.95013541666594,
      "v": 92
    },
    {
      "midi": 64,
      "hit": false,
      "t": 16170.177999999909,
      "d": 101.95013541666594,
      "v": 127
    },
    {
      "midi": 70,
      "hit": false,
      "t": 16170.177999999909,
      "d": 101.95013541666594,
      "v": 127
    },
    {
      "midi": 34,
      "hit": false,
      "t": 16170.178000000002,
      "d": 638.2964999999986,
      "v": 110
    },
    {
      "midi": 46,
      "hit": false,
      "t": 16170.178000000002,
      "d": 638.2964999999986,
      "v": 110
    },
    {
      "midi": 64,
      "hit": false,
      "t": 16276.560749999908,
      "d": 101.95013541666594,
      "v": 92
    },
    {
      "midi": 70,
      "hit": false,
      "t": 16276.560749999908,
      "d": 101.95013541666594,
      "v": 92
    },
    {
      "midi": 64,
      "hit": false,
      "t": 16382.943499999907,
      "d": 101.95013541666776,
      "v": 92
    },
    {
      "midi": 70,
      "hit": false,
      "t": 16382.943499999907,
      "d": 101.95013541666776,
      "v": 92
    },
    {
      "midi": 64,
      "hit": false,
      "t": 16489.326249999907,
      "d": 101.95013541666776,
      "v": 92
    },
    {
      "midi": 70,
      "hit": false,
      "t": 16489.326249999907,
      "d": 101.95013541666776,
      "v": 92
    },
    {
      "midi": 64,
      "hit": false,
      "t": 16595.708999999908,
      "d": 101.95013541666776,
      "v": 127
    },
    {
      "midi": 70,
      "hit": false,
      "t": 16595.708999999908,
      "d": 101.95013541666776,
      "v": 127
    },
    {
      "midi": 64,
      "hit": false,
      "t": 16702.09174999991,
      "d": 101.95013541666776,
      "v": 92
    },
    {
      "midi": 70,
      "hit": false,
      "t": 16702.09174999991,
      "d": 101.95013541666776,
      "v": 92
    },
    {
      "midi": 64,
      "hit": false,
      "t": 16808.47449999991,
      "d": 101.95013541666776,
      "v": 92
    },
    {
      "midi": 70,
      "hit": false,
      "t": 16808.47449999991,
      "d": 101.95013541666776,
      "v": 92
    },
    {
      "midi": 33,
      "hit": false,
      "t": 16808.4745,
      "d": 1382.9757500000014,
      "v": 110
    },
    {
      "midi": 45,
      "hit": false,
      "t": 16808.4745,
      "d": 1382.9757500000014,
      "v": 110
    },
    {
      "midi": 64,
      "hit": false,
      "t": 16914.85724999991,
      "d": 101.95013541666776,
      "v": 92
    },
    {
      "midi": 70,
      "hit": false,
      "t": 16914.85724999991,
      "d": 101.95013541666776,
      "v": 92
    },
    {
      "midi": 68,
      "hit": false,
      "t": 17021.23999999991,
      "d": 101.95013541666776,
      "v": 127
    },
    {
      "midi": 74,
      "hit": false,
      "t": 17021.23999999991,
      "d": 101.95013541666776,
      "v": 127
    },
    {
      "midi": 68,
      "hit": false,
      "t": 17127.62274999991,
      "d": 101.95013541666776,
      "v": 92
    },
    {
      "midi": 74,
      "hit": false,
      "t": 17127.62274999991,
      "d": 101.95013541666776,
      "v": 92
    },
    {
      "midi": 68,
      "hit": false,
      "t": 17234.005499999912,
      "d": 101.95013541666776,
      "v": 92
    },
    {
      "midi": 74,
      "hit": false,
      "t": 17234.005499999912,
      "d": 101.95013541666776,
      "v": 92
    },
    {
      "midi": 68,
      "hit": false,
      "t": 17340.388249999913,
      "d": 101.95013541666776,
      "v": 92
    },
    {
      "midi": 74,
      "hit": false,
      "t": 17340.388249999913,
      "d": 101.95013541666776,
      "v": 92
    },
    {
      "midi": 68,
      "hit": false,
      "t": 17446.770999999913,
      "d": 101.95013541666776,
      "v": 127
    },
    {
      "midi": 74,
      "hit": false,
      "t": 17446.770999999913,
      "d": 101.95013541666776,
      "v": 127
    },
    {
      "midi": 68,
      "hit": false,
      "t": 17553.153749999914,
      "d": 101.95013541666776,
      "v": 92
    },
    {
      "midi": 74,
      "hit": false,
      "t": 17553.153749999914,
      "d": 101.95013541666776,
      "v": 92
    },
    {
      "midi": 68,
      "hit": false,
      "t": 17659.536499999915,
      "d": 101.95013541666776,
      "v": 92
    },
    {
      "midi": 74,
      "hit": false,
      "t": 17659.536499999915,
      "d": 101.95013541666776,
      "v": 92
    },
    {
      "midi": 68,
      "hit": false,
      "t": 17765.919249999915,
      "d": 101.95013541666776,
      "v": 92
    },
    {
      "midi": 74,
      "hit": false,
      "t": 17765.919249999915,
      "d": 101.95013541666776,
      "v": 92
    },
    {
      "midi": 68,
      "hit": false,
      "t": 17872.301999999916,
      "d": 101.95013541666776,
      "v": 127
    },
    {
      "midi": 74,
      "hit": false,
      "t": 17872.301999999916,
      "d": 101.95013541666776,
      "v": 127
    },
    {
      "midi": 68,
      "hit": false,
      "t": 17978.684749999917,
      "d": 101.95013541666776,
      "v": 92
    },
    {
      "midi": 74,
      "hit": false,
      "t": 17978.684749999917,
      "d": 101.95013541666776,
      "v": 92
    },
    {
      "midi": 68,
      "hit": false,
      "t": 18085.067499999917,
      "d": 101.95013541666776,
      "v": 92
    },
    {
      "midi": 74,
      "hit": false,
      "t": 18085.067499999917,
      "d": 101.95013541666776,
      "v": 92
    },
    {
      "midi": 68,
      "hit": false,
      "t": 18191.450249999918,
      "d": 101.95013541666776,
      "v": 92
    },
    {
      "midi": 74,
      "hit": false,
      "t": 18191.450249999918,
      "d": 101.95013541666776,
      "v": 92
    },
    {
      "midi": 68,
      "hit": false,
      "t": 18297.83299999992,
      "d": 101.95013541666776,
      "v": 127
    },
    {
      "midi": 74,
      "hit": false,
      "t": 18297.83299999992,
      "d": 101.95013541666776,
      "v": 127
    },
    {
      "midi": 46,
      "hit": false,
      "t": 18297.833000000002,
      "d": 212.76550000000134,
      "v": 110
    },
    {
      "midi": 58,
      "hit": false,
      "t": 18297.833000000002,
      "d": 212.76550000000134,
      "v": 110
    },
    {
      "midi": 68,
      "hit": false,
      "t": 18404.21574999992,
      "d": 101.95013541666776,
      "v": 92
    },
    {
      "midi": 74,
      "hit": false,
      "t": 18404.21574999992,
      "d": 101.95013541666776,
      "v": 92
    },
    {
      "midi": 68,
      "hit": false,
      "t": 18510.59849999992,
      "d": 101.95013541666776,
      "v": 92
    },
    {
      "midi": 74,
      "hit": false,
      "t": 18510.59849999992,
      "d": 101.95013541666776,
      "v": 92
    },
    {
      "midi": 45,
      "hit": false,
      "t": 18510.598500000004,
      "d": 1382.9757500000014,
      "v": 110
    },
    {
      "midi": 57,
      "hit": false,
      "t": 18510.598500000004,
      "d": 1382.9757500000014,
      "v": 110
    },
    {
      "midi": 68,
      "hit": false,
      "t": 18616.98124999992,
      "d": 101.95013541666776,
      "v": 92
    },
    {
      "midi": 74,
      "hit": false,
      "t": 18616.98124999992,
      "d": 101.95013541666776,
      "v": 92
    },
    {
      "midi": 67,
      "hit": false,
      "t": 18723.36399999992,
      "d": 101.95013541666776,
      "v": 127
    },
    {
      "midi": 73,
      "hit": false,
      "t": 18723.36399999992,
      "d": 101.95013541666776,
      "v": 127
    },
    {
      "midi": 67,
      "hit": false,
      "t": 18829.746749999922,
      "d": 101.95013541666776,
      "v": 92
    },
    {
      "midi": 73,
      "hit": false,
      "t": 18829.746749999922,
      "d": 101.95013541666776,
      "v": 92
    },
    {
      "midi": 67,
      "hit": false,
      "t": 18936.129499999923,
      "d": 101.95013541666776,
      "v": 92
    },
    {
      "midi": 73,
      "hit": false,
      "t": 18936.129499999923,
      "d": 101.95013541666776,
      "v": 92
    },
    {
      "midi": 67,
      "hit": false,
      "t": 19042.512249999923,
      "d": 101.95013541666776,
      "v": 92
    },
    {
      "midi": 73,
      "hit": false,
      "t": 19042.512249999923,
      "d": 101.95013541666776,
      "v": 92
    },
    {
      "midi": 67,
      "hit": false,
      "t": 19148.894999999924,
      "d": 101.95013541666776,
      "v": 127
    },
    {
      "midi": 73,
      "hit": false,
      "t": 19148.894999999924,
      "d": 101.95013541666776,
      "v": 127
    },
    {
      "midi": 67,
      "hit": false,
      "t": 19255.277749999925,
      "d": 101.95013541666776,
      "v": 92
    },
    {
      "midi": 73,
      "hit": false,
      "t": 19255.277749999925,
      "d": 101.95013541666776,
      "v": 92
    },
    {
      "midi": 67,
      "hit": false,
      "t": 19361.660499999925,
      "d": 101.95013541666776,
      "v": 92
    },
    {
      "midi": 73,
      "hit": false,
      "t": 19361.660499999925,
      "d": 101.95013541666776,
      "v": 92
    },
    {
      "midi": 67,
      "hit": false,
      "t": 19468.043249999926,
      "d": 101.95013541666776,
      "v": 92
    },
    {
      "midi": 73,
      "hit": false,
      "t": 19468.043249999926,
      "d": 101.95013541666776,
      "v": 92
    },
    {
      "midi": 67,
      "hit": false,
      "t": 19574.425999999927,
      "d": 101.95013541666776,
      "v": 127
    },
    {
      "midi": 73,
      "hit": false,
      "t": 19574.425999999927,
      "d": 101.95013541666776,
      "v": 127
    },
    {
      "midi": 67,
      "hit": false,
      "t": 19680.808749999927,
      "d": 101.95013541666776,
      "v": 92
    },
    {
      "midi": 73,
      "hit": false,
      "t": 19680.808749999927,
      "d": 101.95013541666776,
      "v": 92
    },
    {
      "midi": 67,
      "hit": false,
      "t": 19787.191499999928,
      "d": 101.95013541666776,
      "v": 92
    },
    {
      "midi": 73,
      "hit": false,
      "t": 19787.191499999928,
      "d": 101.95013541666776,
      "v": 92
    },
    {
      "midi": 67,
      "hit": false,
      "t": 19893.57424999993,
      "d": 101.95013541666776,
      "v": 92
    },
    {
      "midi": 73,
      "hit": false,
      "t": 19893.57424999993,
      "d": 101.95013541666776,
      "v": 92
    },
    {
      "midi": 67,
      "hit": false,
      "t": 19999.95699999993,
      "d": 101.95013541666776,
      "v": 127
    },
    {
      "midi": 73,
      "hit": false,
      "t": 19999.95699999993,
      "d": 101.95013541666776,
      "v": 127
    },
    {
      "midi": 48,
      "hit": false,
      "t": 19999.957000000006,
      "d": 212.76550000000134,
      "v": 110
    },
    {
      "midi": 60,
      "hit": false,
      "t": 19999.957000000006,
      "d": 212.76550000000134,
      "v": 110
    },
    {
      "midi": 67,
      "hit": false,
      "t": 20106.33974999993,
      "d": 101.95013541666776,
      "v": 92
    },
    {
      "midi": 73,
      "hit": false,
      "t": 20106.33974999993,
      "d": 101.95013541666776,
      "v": 92
    },
    {
      "midi": 67,
      "hit": false,
      "t": 20212.72249999993,
      "d": 101.95013541666776,
      "v": 92
    },
    {
      "midi": 73,
      "hit": false,
      "t": 20212.72249999993,
      "d": 101.95013541666776,
      "v": 92
    },
    {
      "midi": 47,
      "hit": false,
      "t": 20212.722500000007,
      "d": 1382.9757500000014,
      "v": 110
    },
    {
      "midi": 59,
      "hit": false,
      "t": 20212.722500000007,
      "d": 1382.9757500000014,
      "v": 110
    },
    {
      "midi": 67,
      "hit": false,
      "t": 20319.10524999993,
      "d": 101.95013541666776,
      "v": 92
    },
    {
      "midi": 73,
      "hit": false,
      "t": 20319.10524999993,
      "d": 101.95013541666776,
      "v": 92
    },
    {
      "midi": 69,
      "hit": false,
      "t": 20425.487999999932,
      "d": 101.95013541666776,
      "v": 127
    },
    {
      "midi": 75,
      "hit": false,
      "t": 20425.487999999932,
      "d": 101.95013541666776,
      "v": 127
    },
    {
      "midi": 69,
      "hit": false,
      "t": 20531.870749999933,
      "d": 101.95013541666776,
      "v": 92
    },
    {
      "midi": 75,
      "hit": false,
      "t": 20531.870749999933,
      "d": 101.95013541666776,
      "v": 92
    },
    {
      "midi": 69,
      "hit": false,
      "t": 20638.253499999933,
      "d": 101.95013541666776,
      "v": 92
    },
    {
      "midi": 75,
      "hit": false,
      "t": 20638.253499999933,
      "d": 101.95013541666776,
      "v": 92
    },
    {
      "midi": 69,
      "hit": false,
      "t": 20744.636249999934,
      "d": 101.95013541666776,
      "v": 92
    },
    {
      "midi": 75,
      "hit": false,
      "t": 20744.636249999934,
      "d": 101.95013541666776,
      "v": 92
    },
    {
      "midi": 69,
      "hit": false,
      "t": 20851.018999999935,
      "d": 101.95013541666776,
      "v": 127
    },
    {
      "midi": 75,
      "hit": false,
      "t": 20851.018999999935,
      "d": 101.95013541666776,
      "v": 127
    },
    {
      "midi": 69,
      "hit": false,
      "t": 20957.401749999935,
      "d": 101.95013541666776,
      "v": 92
    },
    {
      "midi": 75,
      "hit": false,
      "t": 20957.401749999935,
      "d": 101.95013541666776,
      "v": 92
    },
    {
      "midi": 69,
      "hit": false,
      "t": 21063.784499999936,
      "d": 101.95013541666776,
      "v": 92
    },
    {
      "midi": 75,
      "hit": false,
      "t": 21063.784499999936,
      "d": 101.95013541666776,
      "v": 92
    },
    {
      "midi": 69,
      "hit": false,
      "t": 21170.167249999937,
      "d": 101.95013541666776,
      "v": 92
    },
    {
      "midi": 75,
      "hit": false,
      "t": 21170.167249999937,
      "d": 101.95013541666776,
      "v": 92
    },
    {
      "midi": 69,
      "hit": false,
      "t": 21276.549999999937,
      "d": 101.95013541666776,
      "v": 127
    },
    {
      "midi": 75,
      "hit": false,
      "t": 21276.549999999937,
      "d": 101.95013541666776,
      "v": 127
    },
    {
      "midi": 69,
      "hit": false,
      "t": 21382.932749999938,
      "d": 101.95013541666776,
      "v": 92
    },
    {
      "midi": 75,
      "hit": false,
      "t": 21382.932749999938,
      "d": 101.95013541666776,
      "v": 92
    },
    {
      "midi": 69,
      "hit": false,
      "t": 21489.31549999994,
      "d": 101.95013541666776,
      "v": 92
    },
    {
      "midi": 75,
      "hit": false,
      "t": 21489.31549999994,
      "d": 101.95013541666776,
      "v": 92
    },
    {
      "midi": 69,
      "hit": false,
      "t": 21595.69824999994,
      "d": 101.95013541666776,
      "v": 92
    },
    {
      "midi": 75,
      "hit": false,
      "t": 21595.69824999994,
      "d": 101.95013541666776,
      "v": 92
    },
    {
      "midi": 69,
      "hit": false,
      "t": 21702.08099999994,
      "d": 101.95013541666776,
      "v": 127
    },
    {
      "midi": 75,
      "hit": false,
      "t": 21702.08099999994,
      "d": 101.95013541666776,
      "v": 127
    },
    {
      "midi": 50,
      "hit": false,
      "t": 21702.08100000001,
      "d": 212.76550000000134,
      "v": 110
    },
    {
      "midi": 62,
      "hit": false,
      "t": 21702.08100000001,
      "d": 212.76550000000134,
      "v": 110
    },
    {
      "midi": 69,
      "hit": false,
      "t": 21808.46374999994,
      "d": 101.95013541666776,
      "v": 92
    },
    {
      "midi": 75,
      "hit": false,
      "t": 21808.46374999994,
      "d": 101.95013541666776,
      "v": 92
    },
    {
      "midi": 69,
      "hit": false,
      "t": 21914.84649999994,
      "d": 101.95013541666776,
      "v": 92
    },
    {
      "midi": 75,
      "hit": false,
      "t": 21914.84649999994,
      "d": 101.95013541666776,
      "v": 92
    },
    {
      "midi": 49,
      "hit": false,
      "t": 21914.84650000001,
      "d": 1808.5067500000005,
      "v": 110
    },
    {
      "midi": 61,
      "hit": false,
      "t": 21914.84650000001,
      "d": 1808.5067500000005,
      "v": 110
    },
    {
      "midi": 69,
      "hit": false,
      "t": 22021.229249999942,
      "d": 101.95013541666776,
      "v": 92
    },
    {
      "midi": 75,
      "hit": false,
      "t": 22021.229249999942,
      "d": 101.95013541666776,
      "v": 92
    },
    {
      "midi": 71,
      "hit": false,
      "t": 22127.611999999943,
      "d": 101.95013541666776,
      "v": 127
    },
    {
      "midi": 77,
      "hit": false,
      "t": 22127.611999999943,
      "d": 101.95013541666776,
      "v": 127
    },
    {
      "midi": 71,
      "hit": false,
      "t": 22233.994749999943,
      "d": 101.95013541666776,
      "v": 92
    },
    {
      "midi": 77,
      "hit": false,
      "t": 22233.994749999943,
      "d": 101.95013541666776,
      "v": 92
    },
    {
      "midi": 71,
      "hit": false,
      "t": 22340.377499999944,
      "d": 101.95013541666776,
      "v": 92
    },
    {
      "midi": 77,
      "hit": false,
      "t": 22340.377499999944,
      "d": 101.95013541666776,
      "v": 92
    },
    {
      "midi": 71,
      "hit": false,
      "t": 22446.760249999945,
      "d": 101.95013541666776,
      "v": 92
    },
    {
      "midi": 77,
      "hit": false,
      "t": 22446.760249999945,
      "d": 101.95013541666776,
      "v": 92
    },
    {
      "midi": 71,
      "hit": false,
      "t": 22553.142999999945,
      "d": 101.95013541666776,
      "v": 127
    },
    {
      "midi": 77,
      "hit": false,
      "t": 22553.142999999945,
      "d": 101.95013541666776,
      "v": 127
    },
    {
      "midi": 71,
      "hit": false,
      "t": 22659.525749999946,
      "d": 101.95013541666776,
      "v": 92
    },
    {
      "midi": 77,
      "hit": false,
      "t": 22659.525749999946,
      "d": 101.95013541666776,
      "v": 92
    },
    {
      "midi": 71,
      "hit": false,
      "t": 22765.908499999947,
      "d": 101.95013541666776,
      "v": 92
    },
    {
      "midi": 77,
      "hit": false,
      "t": 22765.908499999947,
      "d": 101.95013541666776,
      "v": 92
    },
    {
      "midi": 71,
      "hit": false,
      "t": 22872.291249999947,
      "d": 101.95013541666776,
      "v": 92
    },
    {
      "midi": 77,
      "hit": false,
      "t": 22872.291249999947,
      "d": 101.95013541666776,
      "v": 92
    },
    {
      "midi": 71,
      "hit": false,
      "t": 22978.673999999948,
      "d": 101.95013541666776,
      "v": 127
    },
    {
      "midi": 77,
      "hit": false,
      "t": 22978.673999999948,
      "d": 101.95013541666776,
      "v": 127
    },
    {
      "midi": 71,
      "hit": false,
      "t": 23085.05674999995,
      "d": 101.95013541666776,
      "v": 92
    },
    {
      "midi": 77,
      "hit": false,
      "t": 23085.05674999995,
      "d": 101.95013541666776,
      "v": 92
    },
    {
      "midi": 71,
      "hit": false,
      "t": 23191.43949999995,
      "d": 101.95013541666776,
      "v": 92
    },
    {
      "midi": 77,
      "hit": false,
      "t": 23191.43949999995,
      "d": 101.95013541666776,
      "v": 92
    },
    {
      "midi": 71,
      "hit": false,
      "t": 23297.82224999995,
      "d": 101.95013541666776,
      "v": 92
    },
    {
      "midi": 77,
      "hit": false,
      "t": 23297.82224999995,
      "d": 101.95013541666776,
      "v": 92
    },
    {
      "midi": 71,
      "hit": false,
      "t": 23404.20499999995,
      "d": 101.95013541666776,
      "v": 127
    },
    {
      "midi": 77,
      "hit": false,
      "t": 23404.20499999995,
      "d": 101.95013541666776,
      "v": 127
    },
    {
      "midi": 71,
      "hit": false,
      "t": 23510.58774999995,
      "d": 101.95013541666776,
      "v": 92
    },
    {
      "midi": 77,
      "hit": false,
      "t": 23510.58774999995,
      "d": 101.95013541666776,
      "v": 92
    },
    {
      "midi": 71,
      "hit": false,
      "t": 23616.970499999952,
      "d": 101.95013541666776,
      "v": 92
    },
    {
      "midi": 77,
      "hit": false,
      "t": 23616.970499999952,
      "d": 101.95013541666776,
      "v": 92
    },
    {
      "midi": 71,
      "hit": false,
      "t": 23723.353249999953,
      "d": 101.95013541666776,
      "v": 92
    },
    {
      "midi": 77,
      "hit": false,
      "t": 23723.353249999953,
      "d": 101.95013541666776,
      "v": 92
    },
    {
      "midi": 69,
      "hit": false,
      "t": 23829.735999999953,
      "d": 101.95013541666776,
      "v": 127
    },
    {
      "midi": 75,
      "hit": false,
      "t": 23829.735999999953,
      "d": 101.95013541666776,
      "v": 127
    },
    {
      "midi": 69,
      "hit": false,
      "t": 23936.118749999954,
      "d": 101.95013541666776,
      "v": 92
    },
    {
      "midi": 75,
      "hit": false,
      "t": 23936.118749999954,
      "d": 101.95013541666776,
      "v": 92
    },
    {
      "midi": 69,
      "hit": false,
      "t": 24042.501499999955,
      "d": 101.95013541666776,
      "v": 92
    },
    {
      "midi": 75,
      "hit": false,
      "t": 24042.501499999955,
      "d": 101.95013541666776,
      "v": 92
    },
    {
      "midi": 69,
      "hit": false,
      "t": 24148.884249999956,
      "d": 101.95013541666776,
      "v": 92
    },
    {
      "midi": 75,
      "hit": false,
      "t": 24148.884249999956,
      "d": 101.95013541666776,
      "v": 92
    },
    {
      "midi": 69,
      "hit": false,
      "t": 24255.266999999956,
      "d": 101.95013541666776,
      "v": 127
    },
    {
      "midi": 75,
      "hit": false,
      "t": 24255.266999999956,
      "d": 101.95013541666776,
      "v": 127
    },
    {
      "midi": 69,
      "hit": false,
      "t": 24361.649749999957,
      "d": 101.95013541666776,
      "v": 92
    },
    {
      "midi": 75,
      "hit": false,
      "t": 24361.649749999957,
      "d": 101.95013541666776,
      "v": 92
    },
    {
      "midi": 69,
      "hit": false,
      "t": 24468.032499999958,
      "d": 101.95013541666776,
      "v": 92
    },
    {
      "midi": 75,
      "hit": false,
      "t": 24468.032499999958,
      "d": 101.95013541666776,
      "v": 92
    },
    {
      "midi": 69,
      "hit": false,
      "t": 24574.415249999958,
      "d": 101.95013541666776,
      "v": 92
    },
    {
      "midi": 75,
      "hit": false,
      "t": 24574.415249999958,
      "d": 101.95013541666776,
      "v": 92
    },
    {
      "midi": 69,
      "hit": false,
      "t": 24680.79799999996,
      "d": 101.95013541666776,
      "v": 127
    },
    {
      "midi": 75,
      "hit": false,
      "t": 24680.79799999996,
      "d": 101.95013541666776,
      "v": 127
    },
    {
      "midi": 43,
      "hit": false,
      "t": 24680.79800000001,
      "d": 319.14824999999837,
      "v": 110
    },
    {
      "midi": 55,
      "hit": false,
      "t": 24680.79800000001,
      "d": 319.14824999999837,
      "v": 110
    },
    {
      "midi": 69,
      "hit": false,
      "t": 24787.18074999996,
      "d": 101.95013541666776,
      "v": 92
    },
    {
      "midi": 75,
      "hit": false,
      "t": 24787.18074999996,
      "d": 101.95013541666776,
      "v": 92
    },
    {
      "midi": 69,
      "hit": false,
      "t": 24893.56349999996,
      "d": 101.95013541666776,
      "v": 92
    },
    {
      "midi": 75,
      "hit": false,
      "t": 24893.56349999996,
      "d": 101.95013541666776,
      "v": 92
    },
    {
      "midi": 69,
      "hit": false,
      "t": 24999.94624999996,
      "d": 101.95013541666776,
      "v": 92
    },
    {
      "midi": 75,
      "hit": false,
      "t": 24999.94624999996,
      "d": 101.95013541666776,
      "v": 92
    },
    {
      "midi": 42,
      "hit": false,
      "t": 24999.946250000008,
      "d": 319.14824999999837,
      "v": 110
    },
    {
      "midi": 54,
      "hit": false,
      "t": 24999.946250000008,
      "d": 319.14824999999837,
      "v": 110
    },
    {
      "midi": 69,
      "hit": false,
      "t": 25106.32899999996,
      "d": 101.95013541666776,
      "v": 127
    },
    {
      "midi": 75,
      "hit": false,
      "t": 25106.32899999996,
      "d": 101.95013541666776,
      "v": 127
    },
    {
      "midi": 69,
      "hit": false,
      "t": 25212.711749999962,
      "d": 101.95013541666776,
      "v": 92
    },
    {
      "midi": 75,
      "hit": false,
      "t": 25212.711749999962,
      "d": 101.95013541666776,
      "v": 92
    },
    {
      "midi": 69,
      "hit": false,
      "t": 25319.094499999963,
      "d": 101.95013541666776,
      "v": 92
    },
    {
      "midi": 75,
      "hit": false,
      "t": 25319.094499999963,
      "d": 101.95013541666776,
      "v": 92
    },
    {
      "midi": 48,
      "hit": false,
      "t": 25319.094500000007,
      "d": 212.76550000000134,
      "v": 110
    },
    {
      "midi": 60,
      "hit": false,
      "t": 25319.094500000007,
      "d": 212.76550000000134,
      "v": 110
    },
    {
      "midi": 69,
      "hit": false,
      "t": 25425.477249999964,
      "d": 101.95013541666776,
      "v": 92
    },
    {
      "midi": 75,
      "hit": false,
      "t": 25425.477249999964,
      "d": 101.95013541666776,
      "v": 92
    },
    {
      "midi": 68,
      "hit": false,
      "t": 25531.859999999964,
      "d": 101.95013541666776,
      "v": 127
    },
    {
      "midi": 74,
      "hit": false,
      "t": 25531.859999999964,
      "d": 101.95013541666776,
      "v": 127
    },
    {
      "midi": 47,
      "hit": false,
      "t": 25531.860000000008,
      "d": 744.679250000001,
      "v": 110
    },
    {
      "midi": 59,
      "hit": false,
      "t": 25531.860000000008,
      "d": 744.679250000001,
      "v": 110
    },
    {
      "midi": 68,
      "hit": false,
      "t": 25638.242749999965,
      "d": 101.95013541666776,
      "v": 92
    },
    {
      "midi": 74,
      "hit": false,
      "t": 25638.242749999965,
      "d": 101.95013541666776,
      "v": 92
    },
    {
      "midi": 68,
      "hit": false,
      "t": 25744.625499999966,
      "d": 101.95013541666776,
      "v": 92
    },
    {
      "midi": 74,
      "hit": false,
      "t": 25744.625499999966,
      "d": 101.95013541666776,
      "v": 92
    },
    {
      "midi": 68,
      "hit": false,
      "t": 25851.008249999966,
      "d": 101.95013541666776,
      "v": 92
    },
    {
      "midi": 74,
      "hit": false,
      "t": 25851.008249999966,
      "d": 101.95013541666776,
      "v": 92
    },
    {
      "midi": 68,
      "hit": false,
      "t": 25957.390999999967,
      "d": 101.95013541666776,
      "v": 127
    },
    {
      "midi": 74,
      "hit": false,
      "t": 25957.390999999967,
      "d": 101.95013541666776,
      "v": 127
    },
    {
      "midi": 68,
      "hit": false,
      "t": 26063.773749999968,
      "d": 101.95013541666776,
      "v": 92
    },
    {
      "midi": 74,
      "hit": false,
      "t": 26063.773749999968,
      "d": 101.95013541666776,
      "v": 92
    },
    {
      "midi": 68,
      "hit": false,
      "t": 26170.15649999997,
      "d": 101.95013541666776,
      "v": 92
    },
    {
      "midi": 74,
      "hit": false,
      "t": 26170.15649999997,
      "d": 101.95013541666776,
      "v": 92
    },
    {
      "midi": 68,
      "hit": false,
      "t": 26276.53924999997,
      "d": 101.95013541666776,
      "v": 92
    },
    {
      "midi": 74,
      "hit": false,
      "t": 26276.53924999997,
      "d": 101.95013541666776,
      "v": 92
    },
    {
      "midi": 68,
      "hit": false,
      "t": 26382.92199999997,
      "d": 101.95013541666776,
      "v": 127
    },
    {
      "midi": 74,
      "hit": false,
      "t": 26382.92199999997,
      "d": 101.95013541666776,
      "v": 127
    },
    {
      "midi": 41,
      "hit": false,
      "t": 26382.92200000001,
      "d": 638.2965000000004,
      "v": 110
    },
    {
      "midi": 53,
      "hit": false,
      "t": 26382.92200000001,
      "d": 638.2965000000004,
      "v": 110
    },
    {
      "midi": 68,
      "hit": false,
      "t": 26489.30474999997,
      "d": 101.95013541666776,
      "v": 92
    },
    {
      "midi": 74,
      "hit": false,
      "t": 26489.30474999997,
      "d": 101.95013541666776,
      "v": 92
    },
    {
      "midi": 68,
      "hit": false,
      "t": 26595.68749999997,
      "d": 101.95013541666776,
      "v": 92
    },
    {
      "midi": 74,
      "hit": false,
      "t": 26595.68749999997,
      "d": 101.95013541666776,
      "v": 92
    },
    {
      "midi": 68,
      "hit": false,
      "t": 26702.07024999997,
      "d": 101.95013541666776,
      "v": 92
    },
    {
      "midi": 74,
      "hit": false,
      "t": 26702.07024999997,
      "d": 101.95013541666776,
      "v": 92
    },
    {
      "midi": 68,
      "hit": false,
      "t": 26808.452999999972,
      "d": 101.95013541666776,
      "v": 127
    },
    {
      "midi": 74,
      "hit": false,
      "t": 26808.452999999972,
      "d": 101.95013541666776,
      "v": 127
    },
    {
      "midi": 68,
      "hit": false,
      "t": 26914.835749999973,
      "d": 101.95013541666776,
      "v": 92
    },
    {
      "midi": 74,
      "hit": false,
      "t": 26914.835749999973,
      "d": 101.95013541666776,
      "v": 92
    },
    {
      "midi": 68,
      "hit": false,
      "t": 27021.218499999974,
      "d": 101.95013541666776,
      "v": 92
    },
    {
      "midi": 74,
      "hit": false,
      "t": 27021.218499999974,
      "d": 101.95013541666776,
      "v": 92
    },
    {
      "midi": 40,
      "hit": false,
      "t": 27021.21850000001,
      "d": 957.4447499999987,
      "v": 110
    },
    {
      "midi": 52,
      "hit": false,
      "t": 27021.21850000001,
      "d": 957.4447499999987,
      "v": 110
    },
    {
      "midi": 68,
      "hit": false,
      "t": 27127.601249999974,
      "d": 101.95013541666776,
      "v": 92
    },
    {
      "midi": 74,
      "hit": false,
      "t": 27127.601249999974,
      "d": 101.95013541666776,
      "v": 92
    },
    {
      "midi": 67,
      "hit": false,
      "t": 27233.983999999975,
      "d": 101.95013541666776,
      "v": 127
    },
    {
      "midi": 73,
      "hit": false,
      "t": 27233.983999999975,
      "d": 101.95013541666776,
      "v": 127
    },
    {
      "midi": 67,
      "hit": false,
      "t": 27340.366749999976,
      "d": 101.95013541666776,
      "v": 92
    },
    {
      "midi": 73,
      "hit": false,
      "t": 27340.366749999976,
      "d": 101.95013541666776,
      "v": 92
    },
    {
      "midi": 67,
      "hit": false,
      "t": 27446.749499999976,
      "d": 101.95013541666776,
      "v": 92
    },
    {
      "midi": 73,
      "hit": false,
      "t": 27446.749499999976,
      "d": 101.95013541666776,
      "v": 92
    },
    {
      "midi": 67,
      "hit": false,
      "t": 27553.132249999977,
      "d": 101.95013541666776,
      "v": 92
    },
    {
      "midi": 73,
      "hit": false,
      "t": 27553.132249999977,
      "d": 101.95013541666776,
      "v": 92
    },
    {
      "midi": 67,
      "hit": false,
      "t": 27659.514999999978,
      "d": 101.95013541666776,
      "v": 127
    },
    {
      "midi": 73,
      "hit": false,
      "t": 27659.514999999978,
      "d": 101.95013541666776,
      "v": 127
    },
    {
      "midi": 67,
      "hit": false,
      "t": 27765.89774999998,
      "d": 101.95013541666776,
      "v": 92
    },
    {
      "midi": 73,
      "hit": false,
      "t": 27765.89774999998,
      "d": 101.95013541666776,
      "v": 92
    },
    {
      "midi": 67,
      "hit": false,
      "t": 27872.28049999998,
      "d": 101.95013541666776,
      "v": 92
    },
    {
      "midi": 73,
      "hit": false,
      "t": 27872.28049999998,
      "d": 101.95013541666776,
      "v": 92
    },
    {
      "midi": 67,
      "hit": false,
      "t": 27978.66324999998,
      "d": 101.95013541666776,
      "v": 92
    },
    {
      "midi": 73,
      "hit": false,
      "t": 27978.66324999998,
      "d": 101.95013541666776,
      "v": 92
    },
    {
      "midi": 67,
      "hit": false,
      "t": 28085.04599999998,
      "d": 101.95013541666776,
      "v": 127
    },
    {
      "midi": 73,
      "hit": false,
      "t": 28085.04599999998,
      "d": 101.95013541666776,
      "v": 127
    },
    {
      "midi": 40,
      "hit": false,
      "t": 28085.04600000001,
      "d": 319.14824999999837,
      "v": 110
    },
    {
      "midi": 52,
      "hit": false,
      "t": 28085.04600000001,
      "d": 319.14824999999837,
      "v": 110
    },
    {
      "midi": 67,
      "hit": false,
      "t": 28191.42874999998,
      "d": 101.95013541666776,
      "v": 92
    },
    {
      "midi": 73,
      "hit": false,
      "t": 28191.42874999998,
      "d": 101.95013541666776,
      "v": 92
    },
    {
      "midi": 67,
      "hit": false,
      "t": 28297.81149999998,
      "d": 101.95013541666776,
      "v": 92
    },
    {
      "midi": 73,
      "hit": false,
      "t": 28297.81149999998,
      "d": 101.95013541666776,
      "v": 92
    },
    {
      "midi": 67,
      "hit": false,
      "t": 28404.194249999982,
      "d": 101.95013541666776,
      "v": 92
    },
    {
      "midi": 73,
      "hit": false,
      "t": 28404.194249999982,
      "d": 101.95013541666776,
      "v": 92
    },
    {
      "midi": 39,
      "hit": false,
      "t": 28404.194250000008,
      "d": 319.14824999999837,
      "v": 110
    },
    {
      "midi": 51,
      "hit": false,
      "t": 28404.194250000008,
      "d": 319.14824999999837,
      "v": 110
    },
    {
      "midi": 67,
      "hit": false,
      "t": 28510.576999999983,
      "d": 101.95013541666776,
      "v": 127
    },
    {
      "midi": 73,
      "hit": false,
      "t": 28510.576999999983,
      "d": 101.95013541666776,
      "v": 127
    },
    {
      "midi": 67,
      "hit": false,
      "t": 28616.959749999984,
      "d": 101.95013541666776,
      "v": 92
    },
    {
      "midi": 73,
      "hit": false,
      "t": 28616.959749999984,
      "d": 101.95013541666776,
      "v": 92
    },
    {
      "midi": 67,
      "hit": false,
      "t": 28723.342499999984,
      "d": 101.95013541666776,
      "v": 92
    },
    {
      "midi": 73,
      "hit": false,
      "t": 28723.342499999984,
      "d": 101.95013541666776,
      "v": 92
    },
    {
      "midi": 46,
      "hit": false,
      "t": 28723.342500000006,
      "d": 212.76550000000134,
      "v": 110
    },
    {
      "midi": 58,
      "hit": false,
      "t": 28723.342500000006,
      "d": 212.76550000000134,
      "v": 110
    },
    {
      "midi": 67,
      "hit": false,
      "t": 28829.725249999985,
      "d": 101.95013541666776,
      "v": 92
    },
    {
      "midi": 73,
      "hit": false,
      "t": 28829.725249999985,
      "d": 101.95013541666776,
      "v": 92
    },
    {
      "midi": 66,
      "hit": false,
      "t": 28936.107999999986,
      "d": 101.95013541666776,
      "v": 127
    },
    {
      "midi": 72,
      "hit": false,
      "t": 28936.107999999986,
      "d": 101.95013541666776,
      "v": 127
    },
    {
      "midi": 45,
      "hit": false,
      "t": 28936.108000000007,
      "d": 744.679250000001,
      "v": 110
    },
    {
      "midi": 57,
      "hit": false,
      "t": 28936.108000000007,
      "d": 744.679250000001,
      "v": 110
    },
    {
      "midi": 66,
      "hit": false,
      "t": 29042.490749999986,
      "d": 101.95013541666776,
      "v": 92
    },
    {
      "midi": 72,
      "hit": false,
      "t": 29042.490749999986,
      "d": 101.95013541666776,
      "v": 92
    },
    {
      "midi": 66,
      "hit": false,
      "t": 29148.873499999987,
      "d": 101.95013541666776,
      "v": 92
    },
    {
      "midi": 72,
      "hit": false,
      "t": 29148.873499999987,
      "d": 101.95013541666776,
      "v": 92
    },
    {
      "midi": 66,
      "hit": false,
      "t": 29255.256249999988,
      "d": 101.95013541666776,
      "v": 92
    },
    {
      "midi": 72,
      "hit": false,
      "t": 29255.256249999988,
      "d": 101.95013541666776,
      "v": 92
    },
    {
      "midi": 66,
      "hit": false,
      "t": 29361.63899999999,
      "d": 101.95013541666776,
      "v": 127
    },
    {
      "midi": 72,
      "hit": false,
      "t": 29361.63899999999,
      "d": 101.95013541666776,
      "v": 127
    },
    {
      "midi": 66,
      "hit": false,
      "t": 29468.02174999999,
      "d": 101.95013541666776,
      "v": 92
    },
    {
      "midi": 72,
      "hit": false,
      "t": 29468.02174999999,
      "d": 101.95013541666776,
      "v": 92
    },
    {
      "midi": 66,
      "hit": false,
      "t": 29574.40449999999,
      "d": 101.95013541666776,
      "v": 92
    },
    {
      "midi": 72,
      "hit": false,
      "t": 29574.40449999999,
      "d": 101.95013541666776,
      "v": 92
    },
    {
      "midi": 66,
      "hit": false,
      "t": 29680.78724999999,
      "d": 101.95013541666776,
      "v": 92
    },
    {
      "midi": 72,
      "hit": false,
      "t": 29680.78724999999,
      "d": 101.95013541666776,
      "v": 92
    },
    {
      "midi": 66,
      "hit": false,
      "t": 29787.16999999999,
      "d": 101.95013541666776,
      "v": 127
    },
    {
      "midi": 72,
      "hit": false,
      "t": 29787.16999999999,
      "d": 101.95013541666776,
      "v": 127
    },
    {
      "midi": 39,
      "hit": false,
      "t": 29787.17000000001,
      "d": 638.2965000000004,
      "v": 110
    },
    {
      "midi": 51,
      "hit": false,
      "t": 29787.17000000001,
      "d": 638.2965000000004,
      "v": 110
    },
    {
      "midi": 66,
      "hit": false,
      "t": 29893.55274999999,
      "d": 101.95013541666776,
      "v": 92
    },
    {
      "midi": 72,
      "hit": false,
      "t": 29893.55274999999,
      "d": 101.95013541666776,
      "v": 92
    },
    {
      "midi": 66,
      "hit": false,
      "t": 29999.935499999992,
      "d": 101.95013541666776,
      "v": 92
    },
    {
      "midi": 72,
      "hit": false,
      "t": 29999.935499999992,
      "d": 101.95013541666776,
      "v": 92
    },
    {
      "midi": 66,
      "hit": false,
      "t": 30106.318249999993,
      "d": 101.95013541666776,
      "v": 92
    },
    {
      "midi": 72,
      "hit": false,
      "t": 30106.318249999993,
      "d": 101.95013541666776,
      "v": 92
    },
    {
      "midi": 66,
      "hit": false,
      "t": 30212.700999999994,
      "d": 101.95013541666776,
      "v": 127
    },
    {
      "midi": 72,
      "hit": false,
      "t": 30212.700999999994,
      "d": 101.95013541666776,
      "v": 127
    },
    {
      "midi": 66,
      "hit": false,
      "t": 30319.083749999994,
      "d": 101.95013541666776,
      "v": 92
    },
    {
      "midi": 72,
      "hit": false,
      "t": 30319.083749999994,
      "d": 101.95013541666776,
      "v": 92
    },
    {
      "midi": 66,
      "hit": false,
      "t": 30425.466499999995,
      "d": 101.95013541666776,
      "v": 92
    },
    {
      "midi": 72,
      "hit": false,
      "t": 30425.466499999995,
      "d": 101.95013541666776,
      "v": 92
    },
    {
      "midi": 38,
      "hit": false,
      "t": 30425.46650000001,
      "d": 1382.9757500000014,
      "v": 110
    },
    {
      "midi": 50,
      "hit": false,
      "t": 30425.46650000001,
      "d": 1382.9757500000014,
      "v": 110
    },
    {
      "midi": 66,
      "hit": false,
      "t": 30531.849249999996,
      "d": 101.95013541666776,
      "v": 92
    },
    {
      "midi": 72,
      "hit": false,
      "t": 30531.849249999996,
      "d": 101.95013541666776,
      "v": 92
    },
    {
      "midi": 65,
      "hit": false,
      "t": 30638.231999999996,
      "d": 101.95013541666776,
      "v": 127
    },
    {
      "midi": 71,
      "hit": false,
      "t": 30638.231999999996,
      "d": 101.95013541666776,
      "v": 127
    },
    {
      "midi": 65,
      "hit": false,
      "t": 30744.614749999997,
      "d": 101.95013541666776,
      "v": 92
    },
    {
      "midi": 71,
      "hit": false,
      "t": 30744.614749999997,
      "d": 101.95013541666776,
      "v": 92
    },
    {
      "midi": 65,
      "hit": false,
      "t": 30850.997499999998,
      "d": 101.95013541666776,
      "v": 92
    },
    {
      "midi": 71,
      "hit": false,
      "t": 30850.997499999998,
      "d": 101.95013541666776,
      "v": 92
    },
    {
      "midi": 65,
      "hit": false,
      "t": 30957.38025,
      "d": 101.95013541666776,
      "v": 92
    },
    {
      "midi": 71,
      "hit": false,
      "t": 30957.38025,
      "d": 101.95013541666776,
      "v": 92
    },
    {
      "midi": 65,
      "hit": false,
      "t": 31063.763,
      "d": 101.95013541666776,
      "v": 127
    },
    {
      "midi": 71,
      "hit": false,
      "t": 31063.763,
      "d": 101.95013541666776,
      "v": 127
    },
    {
      "midi": 65,
      "hit": false,
      "t": 31170.14575,
      "d": 101.95013541666776,
      "v": 92
    },
    {
      "midi": 71,
      "hit": false,
      "t": 31170.14575,
      "d": 101.95013541666776,
      "v": 92
    },
    {
      "midi": 65,
      "hit": false,
      "t": 31276.5285,
      "d": 101.95013541666776,
      "v": 92
    },
    {
      "midi": 71,
      "hit": false,
      "t": 31276.5285,
      "d": 101.95013541666776,
      "v": 92
    },
    {
      "midi": 65,
      "hit": false,
      "t": 31382.91125,
      "d": 101.95013541666776,
      "v": 92
    },
    {
      "midi": 71,
      "hit": false,
      "t": 31382.91125,
      "d": 101.95013541666776,
      "v": 92
    },
    {
      "midi": 65,
      "hit": false,
      "t": 31489.294,
      "d": 101.95013541666776,
      "v": 127
    },
    {
      "midi": 71,
      "hit": false,
      "t": 31489.294,
      "d": 101.95013541666776,
      "v": 127
    },
    {
      "midi": 65,
      "hit": false,
      "t": 31595.676750000002,
      "d": 101.95013541666776,
      "v": 92
    },
    {
      "midi": 71,
      "hit": false,
      "t": 31595.676750000002,
      "d": 101.95013541666776,
      "v": 92
    },
    {
      "midi": 65,
      "hit": false,
      "t": 31702.059500000003,
      "d": 101.95013541666776,
      "v": 92
    },
    {
      "midi": 71,
      "hit": false,
      "t": 31702.059500000003,
      "d": 101.95013541666776,
      "v": 92
    },
    {
      "midi": 65,
      "hit": false,
      "t": 31808.442250000004,
      "d": 101.95013541666776,
      "v": 92
    },
    {
      "midi": 71,
      "hit": false,
      "t": 31808.442250000004,
      "d": 101.95013541666776,
      "v": 92
    },
    {
      "midi": 65,
      "hit": false,
      "t": 31914.825000000004,
      "d": 101.95013541666776,
      "v": 127
    },
    {
      "midi": 71,
      "hit": false,
      "t": 31914.825000000004,
      "d": 101.95013541666776,
      "v": 127
    },
    {
      "midi": 38,
      "hit": false,
      "t": 31914.82500000001,
      "d": 212.76550000000134,
      "v": 110
    },
    {
      "midi": 50,
      "hit": false,
      "t": 31914.82500000001,
      "d": 212.76550000000134,
      "v": 110
    },
    {
      "midi": 65,
      "hit": false,
      "t": 32021.207750000005,
      "d": 101.95013541666776,
      "v": 92
    },
    {
      "midi": 71,
      "hit": false,
      "t": 32021.207750000005,
      "d": 101.95013541666776,
      "v": 92
    },
    {
      "midi": 65,
      "hit": false,
      "t": 32127.590500000006,
      "d": 101.95013541666776,
      "v": 92
    },
    {
      "midi": 71,
      "hit": false,
      "t": 32127.590500000006,
      "d": 101.95013541666776,
      "v": 92
    },
    {
      "midi": 37,
      "hit": false,
      "t": 32127.590500000013,
      "d": 567.3746666666666,
      "v": 110
    },
    {
      "midi": 49,
      "hit": false,
      "t": 32127.590500000013,
      "d": 567.3746666666666,
      "v": 110
    },
    {
      "midi": 65,
      "hit": false,
      "t": 32233.973250000006,
      "d": 101.95013541666776,
      "v": 92
    },
    {
      "midi": 71,
      "hit": false,
      "t": 32233.973250000006,
      "d": 101.95013541666776,
      "v": 92
    },
    {
      "midi": 65,
      "hit": false,
      "t": 32340.356000000007,
      "d": 101.95013541666776,
      "v": 127
    },
    {
      "midi": 71,
      "hit": false,
      "t": 32340.356000000007,
      "d": 101.95013541666776,
      "v": 127
    },
    {
      "midi": 65,
      "hit": false,
      "t": 32446.738750000008,
      "d": 101.95013541666776,
      "v": 92
    },
    {
      "midi": 71,
      "hit": false,
      "t": 32446.738750000008,
      "d": 101.95013541666776,
      "v": 92
    },
    {
      "midi": 65,
      "hit": false,
      "t": 32553.12150000001,
      "d": 101.95013541666776,
      "v": 92
    },
    {
      "midi": 71,
      "hit": false,
      "t": 32553.12150000001,
      "d": 101.95013541666776,
      "v": 92
    },
    {
      "midi": 65,
      "hit": false,
      "t": 32659.50425000001,
      "d": 101.95013541666776,
      "v": 92
    },
    {
      "midi": 71,
      "hit": false,
      "t": 32659.50425000001,
      "d": 101.95013541666776,
      "v": 92
    },
    {
      "midi": 65,
      "hit": false,
      "t": 32765.88700000001,
      "d": 101.95013541666412,
      "v": 127
    },
    {
      "midi": 71,
      "hit": false,
      "t": 32765.88700000001,
      "d": 101.95013541666412,
      "v": 127
    },
    {
      "midi": 41,
      "hit": false,
      "t": 32765.887000000013,
      "d": 212.7654999999977,
      "v": 110
    },
    {
      "midi": 53,
      "hit": false,
      "t": 32765.887000000013,
      "d": 212.7654999999977,
      "v": 110
    },
    {
      "midi": 65,
      "hit": false,
      "t": 32872.26975000001,
      "d": 101.95013541666412,
      "v": 92
    },
    {
      "midi": 71,
      "hit": false,
      "t": 32872.26975000001,
      "d": 101.95013541666412,
      "v": 92
    },
    {
      "midi": 65,
      "hit": false,
      "t": 32978.652500000004,
      "d": 101.95013541666412,
      "v": 92
    },
    {
      "midi": 71,
      "hit": false,
      "t": 32978.652500000004,
      "d": 101.95013541666412,
      "v": 92
    },
    {
      "midi": 40,
      "hit": false,
      "t": 32978.65250000001,
      "d": 567.3746666666702,
      "v": 110
    },
    {
      "midi": 52,
      "hit": false,
      "t": 32978.65250000001,
      "d": 567.3746666666702,
      "v": 110
    },
    {
      "midi": 65,
      "hit": false,
      "t": 33085.03525,
      "d": 101.95013541666412,
      "v": 92
    },
    {
      "midi": 71,
      "hit": false,
      "t": 33085.03525,
      "d": 101.95013541666412,
      "v": 92
    },
    {
      "midi": 65,
      "hit": false,
      "t": 33191.418,
      "d": 101.95013541666412,
      "v": 127
    },
    {
      "midi": 71,
      "hit": false,
      "t": 33191.418,
      "d": 101.95013541666412,
      "v": 127
    },
    {
      "midi": 65,
      "hit": false,
      "t": 33297.800749999995,
      "d": 101.95013541666412,
      "v": 92
    },
    {
      "midi": 71,
      "hit": false,
      "t": 33297.800749999995,
      "d": 101.95013541666412,
      "v": 92
    },
    {
      "midi": 65,
      "hit": false,
      "t": 33404.18349999999,
      "d": 101.95013541666412,
      "v": 92
    },
    {
      "midi": 71,
      "hit": false,
      "t": 33404.18349999999,
      "d": 101.95013541666412,
      "v": 92
    },
    {
      "midi": 65,
      "hit": false,
      "t": 33510.56624999999,
      "d": 101.95013541666412,
      "v": 92
    },
    {
      "midi": 71,
      "hit": false,
      "t": 33510.56624999999,
      "d": 101.95013541666412,
      "v": 92
    },
    {
      "midi": 65,
      "hit": false,
      "t": 33616.948999999986,
      "d": 101.95013541666412,
      "v": 127
    },
    {
      "midi": 71,
      "hit": false,
      "t": 33616.948999999986,
      "d": 101.95013541666412,
      "v": 127
    },
    {
      "midi": 44,
      "hit": false,
      "t": 33616.949000000015,
      "d": 212.76550000000134,
      "v": 110
    },
    {
      "midi": 56,
      "hit": false,
      "t": 33616.949000000015,
      "d": 212.76550000000134,
      "v": 110
    },
    {
      "midi": 65,
      "hit": false,
      "t": 33723.33174999998,
      "d": 101.95013541666412,
      "v": 92
    },
    {
      "midi": 71,
      "hit": false,
      "t": 33723.33174999998,
      "d": 101.95013541666412,
      "v": 92
    },
    {
      "midi": 65,
      "hit": false,
      "t": 33829.71449999998,
      "d": 101.95013541666412,
      "v": 92
    },
    {
      "midi": 71,
      "hit": false,
      "t": 33829.71449999998,
      "d": 101.95013541666412,
      "v": 92
    },
    {
      "midi": 43,
      "hit": false,
      "t": 33829.71450000002,
      "d": 567.3746666666702,
      "v": 110
    },
    {
      "midi": 55,
      "hit": false,
      "t": 33829.71450000002,
      "d": 567.3746666666702,
      "v": 110
    },
    {
      "midi": 65,
      "hit": false,
      "t": 33936.09724999998,
      "d": 101.95013541666412,
      "v": 92
    },
    {
      "midi": 71,
      "hit": false,
      "t": 33936.09724999998,
      "d": 101.95013541666412,
      "v": 92
    },
    {
      "midi": 65,
      "hit": false,
      "t": 34042.479999999974,
      "d": 101.95013541666412,
      "v": 127
    },
    {
      "midi": 71,
      "hit": false,
      "t": 34042.479999999974,
      "d": 101.95013541666412,
      "v": 127
    },
    {
      "midi": 65,
      "hit": false,
      "t": 34148.86274999997,
      "d": 101.95013541666412,
      "v": 92
    },
    {
      "midi": 71,
      "hit": false,
      "t": 34148.86274999997,
      "d": 101.95013541666412,
      "v": 92
    },
    {
      "midi": 65,
      "hit": false,
      "t": 34255.24549999997,
      "d": 101.95013541666412,
      "v": 92
    },
    {
      "midi": 71,
      "hit": false,
      "t": 34255.24549999997,
      "d": 101.95013541666412,
      "v": 92
    },
    {
      "midi": 65,
      "hit": false,
      "t": 34361.628249999965,
      "d": 101.95013541666412,
      "v": 92
    },
    {
      "midi": 71,
      "hit": false,
      "t": 34361.628249999965,
      "d": 101.95013541666412,
      "v": 92
    },
    {
      "midi": 65,
      "hit": false,
      "t": 34468.01099999996,
      "d": 101.95013541666412,
      "v": 127
    },
    {
      "midi": 71,
      "hit": false,
      "t": 34468.01099999996,
      "d": 101.95013541666412,
      "v": 127
    },
    {
      "midi": 50,
      "hit": false,
      "t": 34468.01100000002,
      "d": 212.76550000000134,
      "v": 110
    },
    {
      "midi": 62,
      "hit": false,
      "t": 34468.01100000002,
      "d": 212.76550000000134,
      "v": 110
    },
    {
      "midi": 65,
      "hit": false,
      "t": 34574.39374999996,
      "d": 101.95013541666412,
      "v": 92
    },
    {
      "midi": 71,
      "hit": false,
      "t": 34574.39374999996,
      "d": 101.95013541666412,
      "v": 92
    },
    {
      "midi": 65,
      "hit": false,
      "t": 34680.776499999956,
      "d": 101.95013541666412,
      "v": 92
    },
    {
      "midi": 71,
      "hit": false,
      "t": 34680.776499999956,
      "d": 101.95013541666412,
      "v": 92
    },
    {
      "midi": 49,
      "hit": false,
      "t": 34680.77650000002,
      "d": 567.3746666666702,
      "v": 110
    },
    {
      "midi": 61,
      "hit": false,
      "t": 34680.77650000002,
      "d": 567.3746666666702,
      "v": 110
    },
    {
      "midi": 65,
      "hit": false,
      "t": 34787.15924999995,
      "d": 101.95013541666412,
      "v": 92
    },
    {
      "midi": 71,
      "hit": false,
      "t": 34787.15924999995,
      "d": 101.95013541666412,
      "v": 92
    },
    {
      "midi": 65,
      "hit": false,
      "t": 34893.54199999995,
      "d": 101.95013541666412,
      "v": 127
    },
    {
      "midi": 71,
      "hit": false,
      "t": 34893.54199999995,
      "d": 101.95013541666412,
      "v": 127
    },
    {
      "midi": 65,
      "hit": false,
      "t": 34999.92474999995,
      "d": 101.95013541666412,
      "v": 92
    },
    {
      "midi": 71,
      "hit": false,
      "t": 34999.92474999995,
      "d": 101.95013541666412,
      "v": 92
    },
    {
      "midi": 65,
      "hit": false,
      "t": 35106.307499999944,
      "d": 101.95013541666412,
      "v": 92
    },
    {
      "midi": 71,
      "hit": false,
      "t": 35106.307499999944,
      "d": 101.95013541666412,
      "v": 92
    },
    {
      "midi": 65,
      "hit": false,
      "t": 35212.69024999994,
      "d": 101.95013541666412,
      "v": 92
    },
    {
      "midi": 71,
      "hit": false,
      "t": 35212.69024999994,
      "d": 101.95013541666412,
      "v": 92
    },
    {
      "midi": 65,
      "hit": false,
      "t": 35319.07299999994,
      "d": 101.95013541666412,
      "v": 127
    },
    {
      "midi": 71,
      "hit": false,
      "t": 35319.07299999994,
      "d": 101.95013541666412,
      "v": 127
    },
    {
      "midi": 53,
      "hit": false,
      "t": 35319.073000000026,
      "d": 212.76550000000134,
      "v": 110
    },
    {
      "midi": 65,
      "hit": false,
      "t": 35319.073000000026,
      "d": 212.76550000000134,
      "v": 110
    },
    {
      "midi": 65,
      "hit": false,
      "t": 35425.455749999936,
      "d": 101.95013541666412,
      "v": 92
    },
    {
      "midi": 71,
      "hit": false,
      "t": 35425.455749999936,
      "d": 101.95013541666412,
      "v": 92
    },
    {
      "midi": 65,
      "hit": false,
      "t": 35531.83849999993,
      "d": 101.95013541666412,
      "v": 92
    },
    {
      "midi": 71,
      "hit": false,
      "t": 35531.83849999993,
      "d": 101.95013541666412,
      "v": 92
    },
    {
      "midi": 52,
      "hit": false,
      "t": 35531.83850000003,
      "d": 1808.5067500000005,
      "v": 110
    },
    {
      "midi": 64,
      "hit": false,
      "t": 35531.83850000003,
      "d": 1808.5067500000005,
      "v": 110
    },
    {
      "midi": 65,
      "hit": false,
      "t": 35638.22124999993,
      "d": 101.95013541666412,
      "v": 92
    },
    {
      "midi": 71,
      "hit": false,
      "t": 35638.22124999993,
      "d": 101.95013541666412,
      "v": 92
    },
    {
      "midi": 65,
      "hit": false,
      "t": 35744.60399999993,
      "d": 101.95013541666412,
      "v": 127
    },
    {
      "midi": 71,
      "hit": false,
      "t": 35744.60399999993,
      "d": 101.95013541666412,
      "v": 127
    },
    {
      "midi": 65,
      "hit": false,
      "t": 35850.98674999992,
      "d": 101.95013541666412,
      "v": 92
    },
    {
      "midi": 71,
      "hit": false,
      "t": 35850.98674999992,
      "d": 101.95013541666412,
      "v": 92
    },
    {
      "midi": 65,
      "hit": false,
      "t": 35957.36949999992,
      "d": 101.95013541666412,
      "v": 92
    },
    {
      "midi": 71,
      "hit": false,
      "t": 35957.36949999992,
      "d": 101.95013541666412,
      "v": 92
    },
    {
      "midi": 65,
      "hit": false,
      "t": 36063.75224999992,
      "d": 101.95013541666412,
      "v": 92
    },
    {
      "midi": 71,
      "hit": false,
      "t": 36063.75224999992,
      "d": 101.95013541666412,
      "v": 92
    },
    {
      "midi": 65,
      "hit": false,
      "t": 36170.134999999915,
      "d": 101.95013541666412,
      "v": 127
    },
    {
      "midi": 71,
      "hit": false,
      "t": 36170.134999999915,
      "d": 101.95013541666412,
      "v": 127
    },
    {
      "midi": 65,
      "hit": false,
      "t": 36276.51774999991,
      "d": 101.95013541666412,
      "v": 92
    },
    {
      "midi": 71,
      "hit": false,
      "t": 36276.51774999991,
      "d": 101.95013541666412,
      "v": 92
    },
    {
      "midi": 65,
      "hit": false,
      "t": 36382.90049999991,
      "d": 101.95013541666412,
      "v": 92
    },
    {
      "midi": 71,
      "hit": false,
      "t": 36382.90049999991,
      "d": 101.95013541666412,
      "v": 92
    },
    {
      "midi": 65,
      "hit": false,
      "t": 36489.283249999906,
      "d": 101.95013541666412,
      "v": 92
    },
    {
      "midi": 71,
      "hit": false,
      "t": 36489.283249999906,
      "d": 101.95013541666412,
      "v": 92
    },
    {
      "midi": 65,
      "hit": false,
      "t": 36595.6659999999,
      "d": 101.95013541666412,
      "v": 127
    },
    {
      "midi": 71,
      "hit": false,
      "t": 36595.6659999999,
      "d": 101.95013541666412,
      "v": 127
    },
    {
      "midi": 65,
      "hit": false,
      "t": 36702.0487499999,
      "d": 101.95013541666412,
      "v": 92
    },
    {
      "midi": 71,
      "hit": false,
      "t": 36702.0487499999,
      "d": 101.95013541666412,
      "v": 92
    },
    {
      "midi": 65,
      "hit": false,
      "t": 36808.4314999999,
      "d": 101.95013541666412,
      "v": 92
    },
    {
      "midi": 71,
      "hit": false,
      "t": 36808.4314999999,
      "d": 101.95013541666412,
      "v": 92
    },
    {
      "midi": 65,
      "hit": false,
      "t": 36914.814249999894,
      "d": 101.95013541666412,
      "v": 92
    },
    {
      "midi": 71,
      "hit": false,
      "t": 36914.814249999894,
      "d": 101.95013541666412,
      "v": 92
    },
    {
      "midi": 65,
      "hit": false,
      "t": 37021.19699999989,
      "d": 101.95013541666412,
      "v": 127
    },
    {
      "midi": 71,
      "hit": false,
      "t": 37021.19699999989,
      "d": 101.95013541666412,
      "v": 127
    },
    {
      "midi": 65,
      "hit": false,
      "t": 37127.57974999989,
      "d": 101.95013541666412,
      "v": 92
    },
    {
      "midi": 71,
      "hit": false,
      "t": 37127.57974999989,
      "d": 101.95013541666412,
      "v": 92
    },
    {
      "midi": 65,
      "hit": false,
      "t": 37233.962499999885,
      "d": 101.95013541666412,
      "v": 92
    },
    {
      "midi": 71,
      "hit": false,
      "t": 37233.962499999885,
      "d": 101.95013541666412,
      "v": 92
    },
    {
      "midi": 65,
      "hit": false,
      "t": 37340.34524999988,
      "d": 101.95013541666412,
      "v": 92
    },
    {
      "midi": 71,
      "hit": false,
      "t": 37340.34524999988,
      "d": 101.95013541666412,
      "v": 92
    },
    {
      "midi": 64,
      "hit": false,
      "t": 37446.72799999988,
      "d": 101.95013541666412,
      "v": 127
    },
    {
      "midi": 70,
      "hit": false,
      "t": 37446.72799999988,
      "d": 101.95013541666412,
      "v": 127
    },
    {
      "midi": 64,
      "hit": false,
      "t": 37553.110749999876,
      "d": 101.95013541666412,
      "v": 92
    },
    {
      "midi": 70,
      "hit": false,
      "t": 37553.110749999876,
      "d": 101.95013541666412,
      "v": 92
    },
    {
      "midi": 64,
      "hit": false,
      "t": 37659.49349999987,
      "d": 101.95013541666412,
      "v": 92
    },
    {
      "midi": 70,
      "hit": false,
      "t": 37659.49349999987,
      "d": 101.95013541666412,
      "v": 92
    },
    {
      "midi": 64,
      "hit": false,
      "t": 37765.87624999987,
      "d": 101.95013541666412,
      "v": 92
    },
    {
      "midi": 70,
      "hit": false,
      "t": 37765.87624999987,
      "d": 101.95013541666412,
      "v": 92
    },
    {
      "midi": 64,
      "hit": false,
      "t": 37872.25899999987,
      "d": 101.95013541666412,
      "v": 127
    },
    {
      "midi": 70,
      "hit": false,
      "t": 37872.25899999987,
      "d": 101.95013541666412,
      "v": 127
    },
    {
      "midi": 64,
      "hit": false,
      "t": 37978.641749999864,
      "d": 101.95013541666412,
      "v": 92
    },
    {
      "midi": 70,
      "hit": false,
      "t": 37978.641749999864,
      "d": 101.95013541666412,
      "v": 92
    },
    {
      "midi": 64,
      "hit": false,
      "t": 38085.02449999986,
      "d": 101.95013541666412,
      "v": 92
    },
    {
      "midi": 70,
      "hit": false,
      "t": 38085.02449999986,
      "d": 101.95013541666412,
      "v": 92
    },
    {
      "midi": 64,
      "hit": false,
      "t": 38191.40724999986,
      "d": 101.95013541666412,
      "v": 92
    },
    {
      "midi": 70,
      "hit": false,
      "t": 38191.40724999986,
      "d": 101.95013541666412,
      "v": 92
    },
    {
      "midi": 64,
      "hit": false,
      "t": 38297.789999999855,
      "d": 101.95013541666412,
      "v": 127
    },
    {
      "midi": 70,
      "hit": false,
      "t": 38297.789999999855,
      "d": 101.95013541666412,
      "v": 127
    },
    {
      "midi": 37,
      "hit": false,
      "t": 38297.79000000003,
      "d": 212.76550000000134,
      "v": 110
    },
    {
      "midi": 49,
      "hit": false,
      "t": 38297.79000000003,
      "d": 212.76550000000134,
      "v": 110
    },
    {
      "midi": 64,
      "hit": false,
      "t": 38404.17274999985,
      "d": 101.95013541666412,
      "v": 92
    },
    {
      "midi": 70,
      "hit": false,
      "t": 38404.17274999985,
      "d": 101.95013541666412,
      "v": 92
    },
    {
      "midi": 64,
      "hit": false,
      "t": 38510.55549999985,
      "d": 101.95013541666412,
      "v": 92
    },
    {
      "midi": 70,
      "hit": false,
      "t": 38510.55549999985,
      "d": 101.95013541666412,
      "v": 92
    },
    {
      "midi": 36,
      "hit": false,
      "t": 38510.55550000003,
      "d": 638.2964999999967,
      "v": 110
    },
    {
      "midi": 48,
      "hit": false,
      "t": 38510.55550000003,
      "d": 638.2964999999967,
      "v": 110
    },
    {
      "midi": 64,
      "hit": false,
      "t": 38616.93824999985,
      "d": 101.95013541666412,
      "v": 92
    },
    {
      "midi": 70,
      "hit": false,
      "t": 38616.93824999985,
      "d": 101.95013541666412,
      "v": 92
    },
    {
      "midi": 64,
      "hit": false,
      "t": 38723.32099999984,
      "d": 101.95013541666412,
      "v": 127
    },
    {
      "midi": 70,
      "hit": false,
      "t": 38723.32099999984,
      "d": 101.95013541666412,
      "v": 127
    },
    {
      "midi": 64,
      "hit": false,
      "t": 38829.70374999984,
      "d": 101.95013541666412,
      "v": 92
    },
    {
      "midi": 70,
      "hit": false,
      "t": 38829.70374999984,
      "d": 101.95013541666412,
      "v": 92
    },
    {
      "midi": 64,
      "hit": false,
      "t": 38936.08649999984,
      "d": 101.95013541666412,
      "v": 92
    },
    {
      "midi": 70,
      "hit": false,
      "t": 38936.08649999984,
      "d": 101.95013541666412,
      "v": 92
    },
    {
      "midi": 64,
      "hit": false,
      "t": 39042.469249999835,
      "d": 101.95013541666412,
      "v": 92
    },
    {
      "midi": 70,
      "hit": false,
      "t": 39042.469249999835,
      "d": 101.95013541666412,
      "v": 92
    },
    {
      "midi": 64,
      "hit": false,
      "t": 39148.85199999983,
      "d": 101.95013541666412,
      "v": 127
    },
    {
      "midi": 70,
      "hit": false,
      "t": 39148.85199999983,
      "d": 101.95013541666412,
      "v": 127
    },
    {
      "midi": 40,
      "hit": false,
      "t": 39148.85200000003,
      "d": 212.76550000000134,
      "v": 110
    },
    {
      "midi": 52,
      "hit": false,
      "t": 39148.85200000003,
      "d": 212.76550000000134,
      "v": 110
    },
    {
      "midi": 64,
      "hit": false,
      "t": 39255.23474999983,
      "d": 101.95013541666412,
      "v": 92
    },
    {
      "midi": 70,
      "hit": false,
      "t": 39255.23474999983,
      "d": 101.95013541666412,
      "v": 92
    },
    {
      "midi": 64,
      "hit": false,
      "t": 39361.617499999826,
      "d": 101.95013541666412,
      "v": 92
    },
    {
      "midi": 70,
      "hit": false,
      "t": 39361.617499999826,
      "d": 101.95013541666412,
      "v": 92
    },
    {
      "midi": 39,
      "hit": false,
      "t": 39361.61750000003,
      "d": 567.3746666666702,
      "v": 110
    },
    {
      "midi": 51,
      "hit": false,
      "t": 39361.61750000003,
      "d": 567.3746666666702,
      "v": 110
    },
    {
      "midi": 64,
      "hit": false,
      "t": 39468.00024999982,
      "d": 101.95013541666412,
      "v": 92
    },
    {
      "midi": 70,
      "hit": false,
      "t": 39468.00024999982,
      "d": 101.95013541666412,
      "v": 92
    },
    {
      "midi": 64,
      "hit": false,
      "t": 39574.38299999982,
      "d": 101.95013541666412,
      "v": 127
    },
    {
      "midi": 70,
      "hit": false,
      "t": 39574.38299999982,
      "d": 101.95013541666412,
      "v": 127
    },
    {
      "midi": 64,
      "hit": false,
      "t": 39680.76574999982,
      "d": 101.95013541666412,
      "v": 92
    },
    {
      "midi": 70,
      "hit": false,
      "t": 39680.76574999982,
      "d": 101.95013541666412,
      "v": 92
    },
    {
      "midi": 64,
      "hit": false,
      "t": 39787.148499999814,
      "d": 101.95013541666412,
      "v": 92
    },
    {
      "midi": 70,
      "hit": false,
      "t": 39787.148499999814,
      "d": 101.95013541666412,
      "v": 92
    },
    {
      "midi": 64,
      "hit": false,
      "t": 39893.53124999981,
      "d": 101.95013541666412,
      "v": 92
    },
    {
      "midi": 70,
      "hit": false,
      "t": 39893.53124999981,
      "d": 101.95013541666412,
      "v": 92
    },
    {
      "midi": 64,
      "hit": false,
      "t": 39999.91399999981,
      "d": 101.95013541666412,
      "v": 127
    },
    {
      "midi": 70,
      "hit": false,
      "t": 39999.91399999981,
      "d": 101.95013541666412,
      "v": 127
    },
    {
      "midi": 43,
      "hit": false,
      "t": 39999.91400000003,
      "d": 212.76550000000134,
      "v": 110
    },
    {
      "midi": 55,
      "hit": false,
      "t": 39999.91400000003,
      "d": 212.76550000000134,
      "v": 110
    },
    {
      "midi": 64,
      "hit": false,
      "t": 40106.296749999805,
      "d": 101.95013541666412,
      "v": 92
    },
    {
      "midi": 70,
      "hit": false,
      "t": 40106.296749999805,
      "d": 101.95013541666412,
      "v": 92
    },
    {
      "midi": 64,
      "hit": false,
      "t": 40212.6794999998,
      "d": 101.95013541666412,
      "v": 92
    },
    {
      "midi": 70,
      "hit": false,
      "t": 40212.6794999998,
      "d": 101.95013541666412,
      "v": 92
    },
    {
      "midi": 42,
      "hit": false,
      "t": 40212.679500000035,
      "d": 638.2964999999967,
      "v": 110
    },
    {
      "midi": 54,
      "hit": false,
      "t": 40212.679500000035,
      "d": 638.2964999999967,
      "v": 110
    },
    {
      "midi": 64,
      "hit": false,
      "t": 40319.0622499998,
      "d": 101.95013541666412,
      "v": 92
    },
    {
      "midi": 70,
      "hit": false,
      "t": 40319.0622499998,
      "d": 101.95013541666412,
      "v": 92
    },
    {
      "midi": 64,
      "hit": false,
      "t": 40425.444999999796,
      "d": 101.95013541666412,
      "v": 127
    },
    {
      "midi": 70,
      "hit": false,
      "t": 40425.444999999796,
      "d": 101.95013541666412,
      "v": 127
    },
    {
      "midi": 64,
      "hit": false,
      "t": 40531.82774999979,
      "d": 101.95013541666412,
      "v": 92
    },
    {
      "midi": 70,
      "hit": false,
      "t": 40531.82774999979,
      "d": 101.95013541666412,
      "v": 92
    },
    {
      "midi": 64,
      "hit": false,
      "t": 40638.21049999979,
      "d": 101.95013541666412,
      "v": 92
    },
    {
      "midi": 70,
      "hit": false,
      "t": 40638.21049999979,
      "d": 101.95013541666412,
      "v": 92
    },
    {
      "midi": 64,
      "hit": false,
      "t": 40744.59324999979,
      "d": 101.95013541666412,
      "v": 92
    },
    {
      "midi": 70,
      "hit": false,
      "t": 40744.59324999979,
      "d": 101.95013541666412,
      "v": 92
    },
    {
      "midi": 64,
      "hit": false,
      "t": 40850.975999999784,
      "d": 101.95013541666412,
      "v": 127
    },
    {
      "midi": 70,
      "hit": false,
      "t": 40850.975999999784,
      "d": 101.95013541666412,
      "v": 127
    },
    {
      "midi": 49,
      "hit": false,
      "t": 40850.97600000003,
      "d": 212.76550000000134,
      "v": 110
    },
    {
      "midi": 61,
      "hit": false,
      "t": 40850.97600000003,
      "d": 212.76550000000134,
      "v": 110
    },
    {
      "midi": 64,
      "hit": false,
      "t": 40957.35874999978,
      "d": 101.95013541666412,
      "v": 92
    },
    {
      "midi": 70,
      "hit": false,
      "t": 40957.35874999978,
      "d": 101.95013541666412,
      "v": 92
    },
    {
      "midi": 64,
      "hit": false,
      "t": 41063.74149999978,
      "d": 101.95013541666412,
      "v": 92
    },
    {
      "midi": 70,
      "hit": false,
      "t": 41063.74149999978,
      "d": 101.95013541666412,
      "v": 92
    },
    {
      "midi": 48,
      "hit": false,
      "t": 41063.74150000003,
      "d": 567.3746666666702,
      "v": 110
    },
    {
      "midi": 60,
      "hit": false,
      "t": 41063.74150000003,
      "d": 567.3746666666702,
      "v": 110
    },
    {
      "midi": 64,
      "hit": false,
      "t": 41170.124249999775,
      "d": 101.95013541666412,
      "v": 92
    },
    {
      "midi": 70,
      "hit": false,
      "t": 41170.124249999775,
      "d": 101.95013541666412,
      "v": 92
    },
    {
      "midi": 64,
      "hit": false,
      "t": 41276.50699999977,
      "d": 101.95013541666412,
      "v": 127
    },
    {
      "midi": 70,
      "hit": false,
      "t": 41276.50699999977,
      "d": 101.95013541666412,
      "v": 127
    },
    {
      "midi": 64,
      "hit": false,
      "t": 41382.88974999977,
      "d": 101.95013541666412,
      "v": 92
    },
    {
      "midi": 70,
      "hit": false,
      "t": 41382.88974999977,
      "d": 101.95013541666412,
      "v": 92
    },
    {
      "midi": 64,
      "hit": false,
      "t": 41489.272499999766,
      "d": 101.95013541666412,
      "v": 92
    },
    {
      "midi": 70,
      "hit": false,
      "t": 41489.272499999766,
      "d": 101.95013541666412,
      "v": 92
    },
    {
      "midi": 64,
      "hit": false,
      "t": 41595.65524999976,
      "d": 101.95013541666412,
      "v": 92
    },
    {
      "midi": 70,
      "hit": false,
      "t": 41595.65524999976,
      "d": 101.95013541666412,
      "v": 92
    },
    {
      "midi": 64,
      "hit": false,
      "t": 41702.03799999976,
      "d": 101.95013541666412,
      "v": 127
    },
    {
      "midi": 70,
      "hit": false,
      "t": 41702.03799999976,
      "d": 101.95013541666412,
      "v": 127
    },
    {
      "midi": 52,
      "hit": false,
      "t": 41702.03800000004,
      "d": 212.76550000000134,
      "v": 110
    },
    {
      "midi": 64,
      "hit": false,
      "t": 41702.03800000004,
      "d": 212.76550000000134,
      "v": 110
    },
    {
      "midi": 64,
      "hit": false,
      "t": 41808.42074999976,
      "d": 101.95013541666412,
      "v": 92
    },
    {
      "midi": 70,
      "hit": false,
      "t": 41808.42074999976,
      "d": 101.95013541666412,
      "v": 92
    },
    {
      "midi": 64,
      "hit": false,
      "t": 41914.803499999754,
      "d": 101.95013541666412,
      "v": 92
    },
    {
      "midi": 70,
      "hit": false,
      "t": 41914.803499999754,
      "d": 101.95013541666412,
      "v": 92
    },
    {
      "midi": 51,
      "hit": false,
      "t": 41914.80350000004,
      "d": 2234.037750000003,
      "v": 110
    },
    {
      "midi": 63,
      "hit": false,
      "t": 41914.80350000004,
      "d": 2234.037750000003,
      "v": 110
    },
    {
      "midi": 64,
      "hit": false,
      "t": 42021.18624999975,
      "d": 101.95013541666412,
      "v": 92
    },
    {
      "midi": 70,
      "hit": false,
      "t": 42021.18624999975,
      "d": 101.95013541666412,
      "v": 92
    },
    {
      "midi": 64,
      "hit": false,
      "t": 42127.56899999975,
      "d": 101.95013541666412,
      "v": 127
    },
    {
      "midi": 70,
      "hit": false,
      "t": 42127.56899999975,
      "d": 101.95013541666412,
      "v": 127
    },
    {
      "midi": 64,
      "hit": false,
      "t": 42233.951749999746,
      "d": 101.95013541666412,
      "v": 92
    },
    {
      "midi": 70,
      "hit": false,
      "t": 42233.951749999746,
      "d": 101.95013541666412,
      "v": 92
    },
    {
      "midi": 64,
      "hit": false,
      "t": 42340.33449999974,
      "d": 101.95013541666412,
      "v": 92
    },
    {
      "midi": 70,
      "hit": false,
      "t": 42340.33449999974,
      "d": 101.95013541666412,
      "v": 92
    },
    {
      "midi": 64,
      "hit": false,
      "t": 42446.71724999974,
      "d": 101.95013541666412,
      "v": 92
    },
    {
      "midi": 70,
      "hit": false,
      "t": 42446.71724999974,
      "d": 101.95013541666412,
      "v": 92
    },
    {
      "midi": 64,
      "hit": false,
      "t": 42553.09999999974,
      "d": 101.95013541666412,
      "v": 127
    },
    {
      "midi": 70,
      "hit": false,
      "t": 42553.09999999974,
      "d": 101.95013541666412,
      "v": 127
    },
    {
      "midi": 64,
      "hit": false,
      "t": 42659.482749999734,
      "d": 101.95013541666412,
      "v": 92
    },
    {
      "midi": 70,
      "hit": false,
      "t": 42659.482749999734,
      "d": 101.95013541666412,
      "v": 92
    },
    {
      "midi": 64,
      "hit": false,
      "t": 42765.86549999973,
      "d": 101.95013541666412,
      "v": 92
    },
    {
      "midi": 70,
      "hit": false,
      "t": 42765.86549999973,
      "d": 101.95013541666412,
      "v": 92
    },
    {
      "midi": 64,
      "hit": false,
      "t": 42872.24824999973,
      "d": 101.95013541666412,
      "v": 92
    },
    {
      "midi": 70,
      "hit": false,
      "t": 42872.24824999973,
      "d": 101.95013541666412,
      "v": 92
    },
    {
      "midi": 64,
      "hit": false,
      "t": 42978.630999999725,
      "d": 101.95013541666412,
      "v": 127
    },
    {
      "midi": 70,
      "hit": false,
      "t": 42978.630999999725,
      "d": 101.95013541666412,
      "v": 127
    },
    {
      "midi": 64,
      "hit": false,
      "t": 43085.01374999972,
      "d": 101.95013541666412,
      "v": 92
    },
    {
      "midi": 70,
      "hit": false,
      "t": 43085.01374999972,
      "d": 101.95013541666412,
      "v": 92
    },
    {
      "midi": 64,
      "hit": false,
      "t": 43191.39649999972,
      "d": 101.95013541666412,
      "v": 92
    },
    {
      "midi": 70,
      "hit": false,
      "t": 43191.39649999972,
      "d": 101.95013541666412,
      "v": 92
    },
    {
      "midi": 64,
      "hit": false,
      "t": 43297.779249999716,
      "d": 101.95013541666412,
      "v": 92
    },
    {
      "midi": 70,
      "hit": false,
      "t": 43297.779249999716,
      "d": 101.95013541666412,
      "v": 92
    },
    {
      "midi": 64,
      "hit": false,
      "t": 43404.16199999971,
      "d": 101.95013541666412,
      "v": 127
    },
    {
      "midi": 70,
      "hit": false,
      "t": 43404.16199999971,
      "d": 101.95013541666412,
      "v": 127
    },
    {
      "midi": 64,
      "hit": false,
      "t": 43510.54474999971,
      "d": 101.95013541666412,
      "v": 92
    },
    {
      "midi": 70,
      "hit": false,
      "t": 43510.54474999971,
      "d": 101.95013541666412,
      "v": 92
    },
    {
      "midi": 64,
      "hit": false,
      "t": 43616.92749999971,
      "d": 101.95013541666412,
      "v": 92
    },
    {
      "midi": 70,
      "hit": false,
      "t": 43616.92749999971,
      "d": 101.95013541666412,
      "v": 92
    },
    {
      "midi": 64,
      "hit": false,
      "t": 43723.310249999704,
      "d": 101.95013541666412,
      "v": 92
    },
    {
      "midi": 70,
      "hit": false,
      "t": 43723.310249999704,
      "d": 101.95013541666412,
      "v": 92
    },
    {
      "midi": 64,
      "hit": false,
      "t": 43829.6929999997,
      "d": 101.95013541666412,
      "v": 127
    },
    {
      "midi": 70,
      "hit": false,
      "t": 43829.6929999997,
      "d": 101.95013541666412,
      "v": 127
    },
    {
      "midi": 64,
      "hit": false,
      "t": 43936.0757499997,
      "d": 101.95013541666412,
      "v": 92
    },
    {
      "midi": 70,
      "hit": false,
      "t": 43936.0757499997,
      "d": 101.95013541666412,
      "v": 92
    },
    {
      "midi": 64,
      "hit": false,
      "t": 44042.458499999695,
      "d": 101.95013541666412,
      "v": 92
    },
    {
      "midi": 70,
      "hit": false,
      "t": 44042.458499999695,
      "d": 101.95013541666412,
      "v": 92
    },
    {
      "midi": 64,
      "hit": false,
      "t": 44148.84124999969,
      "d": 101.95013541666412,
      "v": 92
    },
    {
      "midi": 70,
      "hit": false,
      "t": 44148.84124999969,
      "d": 101.95013541666412,
      "v": 92
    },
    {
      "midi": 65,
      "hit": false,
      "t": 44255.22399999969,
      "d": 101.95013541666412,
      "v": 127
    },
    {
      "midi": 71,
      "hit": false,
      "t": 44255.22399999969,
      "d": 101.95013541666412,
      "v": 127
    },
    {
      "midi": 52,
      "hit": false,
      "t": 44255.22400000004,
      "d": 1595.7412499999991,
      "v": 110
    },
    {
      "midi": 59,
      "hit": false,
      "t": 44255.22400000004,
      "d": 1595.7412499999991,
      "v": 110
    },
    {
      "midi": 64,
      "hit": false,
      "t": 44255.22400000004,
      "d": 1595.7412499999991,
      "v": 110
    },
    {
      "midi": 65,
      "hit": false,
      "t": 44361.606749999686,
      "d": 101.95013541666412,
      "v": 92
    },
    {
      "midi": 71,
      "hit": false,
      "t": 44361.606749999686,
      "d": 101.95013541666412,
      "v": 92
    },
    {
      "midi": 65,
      "hit": false,
      "t": 44467.98949999968,
      "d": 101.95013541666412,
      "v": 92
    },
    {
      "midi": 71,
      "hit": false,
      "t": 44467.98949999968,
      "d": 101.95013541666412,
      "v": 92
    },
    {
      "midi": 65,
      "hit": false,
      "t": 44574.37224999968,
      "d": 101.95013541666412,
      "v": 92
    },
    {
      "midi": 71,
      "hit": false,
      "t": 44574.37224999968,
      "d": 101.95013541666412,
      "v": 92
    },
    {
      "midi": 65,
      "hit": false,
      "t": 44680.75499999968,
      "d": 101.95013541666412,
      "v": 127
    },
    {
      "midi": 71,
      "hit": false,
      "t": 44680.75499999968,
      "d": 101.95013541666412,
      "v": 127
    },
    {
      "midi": 65,
      "hit": false,
      "t": 44787.137749999674,
      "d": 101.95013541666412,
      "v": 92
    },
    {
      "midi": 71,
      "hit": false,
      "t": 44787.137749999674,
      "d": 101.95013541666412,
      "v": 92
    },
    {
      "midi": 65,
      "hit": false,
      "t": 44893.52049999967,
      "d": 101.95013541666412,
      "v": 92
    },
    {
      "midi": 71,
      "hit": false,
      "t": 44893.52049999967,
      "d": 101.95013541666412,
      "v": 92
    },
    {
      "midi": 65,
      "hit": false,
      "t": 44999.90324999967,
      "d": 101.95013541666412,
      "v": 92
    },
    {
      "midi": 71,
      "hit": false,
      "t": 44999.90324999967,
      "d": 101.95013541666412,
      "v": 92
    },
    {
      "midi": 65,
      "hit": false,
      "t": 45106.285999999665,
      "d": 101.95013541666412,
      "v": 127
    },
    {
      "midi": 71,
      "hit": false,
      "t": 45106.285999999665,
      "d": 101.95013541666412,
      "v": 127
    },
    {
      "midi": 65,
      "hit": false,
      "t": 45212.66874999966,
      "d": 101.95013541666412,
      "v": 92
    },
    {
      "midi": 71,
      "hit": false,
      "t": 45212.66874999966,
      "d": 101.95013541666412,
      "v": 92
    },
    {
      "midi": 65,
      "hit": false,
      "t": 45319.05149999966,
      "d": 101.95013541666412,
      "v": 92
    },
    {
      "midi": 71,
      "hit": false,
      "t": 45319.05149999966,
      "d": 101.95013541666412,
      "v": 92
    },
    {
      "midi": 65,
      "hit": false,
      "t": 45425.43424999966,
      "d": 101.95013541666412,
      "v": 92
    },
    {
      "midi": 71,
      "hit": false,
      "t": 45425.43424999966,
      "d": 101.95013541666412,
      "v": 92
    },
    {
      "midi": 65,
      "hit": false,
      "t": 45531.81699999965,
      "d": 101.95013541666412,
      "v": 127
    },
    {
      "midi": 71,
      "hit": false,
      "t": 45531.81699999965,
      "d": 101.95013541666412,
      "v": 127
    },
    {
      "midi": 65,
      "hit": false,
      "t": 45638.19974999965,
      "d": 101.95013541666412,
      "v": 92
    },
    {
      "midi": 71,
      "hit": false,
      "t": 45638.19974999965,
      "d": 101.95013541666412,
      "v": 92
    },
    {
      "midi": 65,
      "hit": false,
      "t": 45744.58249999965,
      "d": 101.95013541666412,
      "v": 92
    },
    {
      "midi": 71,
      "hit": false,
      "t": 45744.58249999965,
      "d": 101.95013541666412,
      "v": 92
    },
    {
      "midi": 65,
      "hit": false,
      "t": 45850.965249999645,
      "d": 101.95013541666412,
      "v": 92
    },
    {
      "midi": 71,
      "hit": false,
      "t": 45850.965249999645,
      "d": 101.95013541666412,
      "v": 92
    },
    {
      "midi": 64,
      "hit": false,
      "t": 45957.34799999964,
      "d": 101.95013541666412,
      "v": 127
    },
    {
      "midi": 70,
      "hit": false,
      "t": 45957.34799999964,
      "d": 101.95013541666412,
      "v": 127
    },
    {
      "midi": 64,
      "hit": false,
      "t": 46063.73074999964,
      "d": 101.95013541666412,
      "v": 92
    },
    {
      "midi": 70,
      "hit": false,
      "t": 46063.73074999964,
      "d": 101.95013541666412,
      "v": 92
    },
    {
      "midi": 64,
      "hit": false,
      "t": 46170.113499999636,
      "d": 101.95013541666412,
      "v": 92
    },
    {
      "midi": 70,
      "hit": false,
      "t": 46170.113499999636,
      "d": 101.95013541666412,
      "v": 92
    },
    {
      "midi": 64,
      "hit": false,
      "t": 46276.49624999963,
      "d": 101.95013541666412,
      "v": 92
    },
    {
      "midi": 70,
      "hit": false,
      "t": 46276.49624999963,
      "d": 101.95013541666412,
      "v": 92
    },
    {
      "midi": 64,
      "hit": false,
      "t": 46382.87899999963,
      "d": 101.95013541666412,
      "v": 127
    },
    {
      "midi": 70,
      "hit": false,
      "t": 46382.87899999963,
      "d": 101.95013541666412,
      "v": 127
    },
    {
      "midi": 64,
      "hit": false,
      "t": 46489.26174999963,
      "d": 101.95013541666412,
      "v": 92
    },
    {
      "midi": 70,
      "hit": false,
      "t": 46489.26174999963,
      "d": 101.95013541666412,
      "v": 92
    },
    {
      "midi": 64,
      "hit": false,
      "t": 46595.644499999624,
      "d": 101.95013541666412,
      "v": 92
    },
    {
      "midi": 70,
      "hit": false,
      "t": 46595.644499999624,
      "d": 101.95013541666412,
      "v": 92
    },
    {
      "midi": 64,
      "hit": false,
      "t": 46702.02724999962,
      "d": 101.95013541666412,
      "v": 92
    },
    {
      "midi": 70,
      "hit": false,
      "t": 46702.02724999962,
      "d": 101.95013541666412,
      "v": 92
    },
    {
      "midi": 64,
      "hit": false,
      "t": 46808.40999999962,
      "d": 101.95013541666412,
      "v": 127
    },
    {
      "midi": 70,
      "hit": false,
      "t": 46808.40999999962,
      "d": 101.95013541666412,
      "v": 127
    },
    {
      "midi": 64,
      "hit": false,
      "t": 46914.792749999615,
      "d": 101.95013541666412,
      "v": 92
    },
    {
      "midi": 70,
      "hit": false,
      "t": 46914.792749999615,
      "d": 101.95013541666412,
      "v": 92
    },
    {
      "midi": 64,
      "hit": false,
      "t": 47021.17549999961,
      "d": 101.95013541666412,
      "v": 92
    },
    {
      "midi": 70,
      "hit": false,
      "t": 47021.17549999961,
      "d": 101.95013541666412,
      "v": 92
    },
    {
      "midi": 64,
      "hit": false,
      "t": 47127.55824999961,
      "d": 101.95013541666412,
      "v": 92
    },
    {
      "midi": 70,
      "hit": false,
      "t": 47127.55824999961,
      "d": 101.95013541666412,
      "v": 92
    },
    {
      "midi": 64,
      "hit": false,
      "t": 47233.940999999606,
      "d": 101.95013541666412,
      "v": 127
    },
    {
      "midi": 70,
      "hit": false,
      "t": 47233.940999999606,
      "d": 101.95013541666412,
      "v": 127
    },
    {
      "midi": 64,
      "hit": false,
      "t": 47340.3237499996,
      "d": 101.95013541666412,
      "v": 92
    },
    {
      "midi": 70,
      "hit": false,
      "t": 47340.3237499996,
      "d": 101.95013541666412,
      "v": 92
    },
    {
      "midi": 64,
      "hit": false,
      "t": 47446.7064999996,
      "d": 101.95013541666412,
      "v": 92
    },
    {
      "midi": 70,
      "hit": false,
      "t": 47446.7064999996,
      "d": 101.95013541666412,
      "v": 92
    },
    {
      "midi": 64,
      "hit": false,
      "t": 47553.0892499996,
      "d": 101.95013541666412,
      "v": 92
    },
    {
      "midi": 70,
      "hit": false,
      "t": 47553.0892499996,
      "d": 101.95013541666412,
      "v": 92
    },
    {
      "midi": 68,
      "hit": false,
      "t": 47659.471999999594,
      "d": 101.95013541666412,
      "v": 127
    },
    {
      "midi": 74,
      "hit": false,
      "t": 47659.471999999594,
      "d": 101.95013541666412,
      "v": 127
    },
    {
      "midi": 68,
      "hit": false,
      "t": 47765.85474999959,
      "d": 101.95013541666412,
      "v": 92
    },
    {
      "midi": 74,
      "hit": false,
      "t": 47765.85474999959,
      "d": 101.95013541666412,
      "v": 92
    },
    {
      "midi": 68,
      "hit": false,
      "t": 47872.23749999959,
      "d": 101.95013541666412,
      "v": 92
    },
    {
      "midi": 74,
      "hit": false,
      "t": 47872.23749999959,
      "d": 101.95013541666412,
      "v": 92
    },
    {
      "midi": 68,
      "hit": false,
      "t": 47978.620249999585,
      "d": 101.95013541666412,
      "v": 92
    },
    {
      "midi": 74,
      "hit": false,
      "t": 47978.620249999585,
      "d": 101.95013541666412,
      "v": 92
    },
    {
      "midi": 68,
      "hit": false,
      "t": 48085.00299999958,
      "d": 101.95013541666412,
      "v": 127
    },
    {
      "midi": 74,
      "hit": false,
      "t": 48085.00299999958,
      "d": 101.95013541666412,
      "v": 127
    },
    {
      "midi": 68,
      "hit": false,
      "t": 48191.38574999958,
      "d": 101.95013541666412,
      "v": 92
    },
    {
      "midi": 74,
      "hit": false,
      "t": 48191.38574999958,
      "d": 101.95013541666412,
      "v": 92
    },
    {
      "midi": 68,
      "hit": false,
      "t": 48297.768499999576,
      "d": 101.95013541666412,
      "v": 92
    },
    {
      "midi": 74,
      "hit": false,
      "t": 48297.768499999576,
      "d": 101.95013541666412,
      "v": 92
    },
    {
      "midi": 68,
      "hit": false,
      "t": 48404.15124999957,
      "d": 101.95013541666412,
      "v": 92
    },
    {
      "midi": 74,
      "hit": false,
      "t": 48404.15124999957,
      "d": 101.95013541666412,
      "v": 92
    },
    {
      "midi": 68,
      "hit": false,
      "t": 48510.53399999957,
      "d": 101.95013541666412,
      "v": 127
    },
    {
      "midi": 74,
      "hit": false,
      "t": 48510.53399999957,
      "d": 101.95013541666412,
      "v": 127
    },
    {
      "midi": 68,
      "hit": false,
      "t": 48616.91674999957,
      "d": 101.95013541666412,
      "v": 92
    },
    {
      "midi": 74,
      "hit": false,
      "t": 48616.91674999957,
      "d": 101.95013541666412,
      "v": 92
    },
    {
      "midi": 68,
      "hit": false,
      "t": 48723.299499999564,
      "d": 101.95013541666412,
      "v": 92
    },
    {
      "midi": 74,
      "hit": false,
      "t": 48723.299499999564,
      "d": 101.95013541666412,
      "v": 92
    },
    {
      "midi": 68,
      "hit": false,
      "t": 48829.68224999956,
      "d": 101.95013541666412,
      "v": 92
    },
    {
      "midi": 74,
      "hit": false,
      "t": 48829.68224999956,
      "d": 101.95013541666412,
      "v": 92
    },
    {
      "midi": 68,
      "hit": false,
      "t": 48936.06499999956,
      "d": 101.95013541666412,
      "v": 127
    },
    {
      "midi": 74,
      "hit": false,
      "t": 48936.06499999956,
      "d": 101.95013541666412,
      "v": 127
    },
    {
      "midi": 68,
      "hit": false,
      "t": 49042.447749999556,
      "d": 101.95013541666412,
      "v": 92
    },
    {
      "midi": 74,
      "hit": false,
      "t": 49042.447749999556,
      "d": 101.95013541666412,
      "v": 92
    },
    {
      "midi": 68,
      "hit": false,
      "t": 49148.83049999955,
      "d": 101.95013541666412,
      "v": 92
    },
    {
      "midi": 74,
      "hit": false,
      "t": 49148.83049999955,
      "d": 101.95013541666412,
      "v": 92
    },
    {
      "midi": 68,
      "hit": false,
      "t": 49255.21324999955,
      "d": 101.95013541666412,
      "v": 92
    },
    {
      "midi": 74,
      "hit": false,
      "t": 49255.21324999955,
      "d": 101.95013541666412,
      "v": 92
    },
    {
      "midi": 67,
      "hit": false,
      "t": 49361.59599999955,
      "d": 101.95013541666412,
      "v": 127
    },
    {
      "midi": 73,
      "hit": false,
      "t": 49361.59599999955,
      "d": 101.95013541666412,
      "v": 127
    },
    {
      "midi": 67,
      "hit": false,
      "t": 49467.978749999544,
      "d": 101.95013541666412,
      "v": 92
    },
    {
      "midi": 73,
      "hit": false,
      "t": 49467.978749999544,
      "d": 101.95013541666412,
      "v": 92
    },
    {
      "midi": 67,
      "hit": false,
      "t": 49574.36149999954,
      "d": 101.95013541666412,
      "v": 92
    },
    {
      "midi": 73,
      "hit": false,
      "t": 49574.36149999954,
      "d": 101.95013541666412,
      "v": 92
    },
    {
      "midi": 67,
      "hit": false,
      "t": 49680.74424999954,
      "d": 101.95013541666412,
      "v": 92
    },
    {
      "midi": 73,
      "hit": false,
      "t": 49680.74424999954,
      "d": 101.95013541666412,
      "v": 92
    },
    {
      "midi": 67,
      "hit": false,
      "t": 49787.126999999535,
      "d": 101.95013541666412,
      "v": 127
    },
    {
      "midi": 73,
      "hit": false,
      "t": 49787.126999999535,
      "d": 101.95013541666412,
      "v": 127
    },
    {
      "midi": 67,
      "hit": false,
      "t": 49893.50974999953,
      "d": 101.95013541666412,
      "v": 92
    },
    {
      "midi": 73,
      "hit": false,
      "t": 49893.50974999953,
      "d": 101.95013541666412,
      "v": 92
    },
    {
      "midi": 67,
      "hit": false,
      "t": 49999.89249999953,
      "d": 101.95013541666412,
      "v": 92
    },
    {
      "midi": 73,
      "hit": false,
      "t": 49999.89249999953,
      "d": 101.95013541666412,
      "v": 92
    },
    {
      "midi": 67,
      "hit": false,
      "t": 50106.275249999526,
      "d": 101.95013541666412,
      "v": 92
    },
    {
      "midi": 73,
      "hit": false,
      "t": 50106.275249999526,
      "d": 101.95013541666412,
      "v": 92
    },
    {
      "midi": 67,
      "hit": false,
      "t": 50212.65799999952,
      "d": 101.95013541666412,
      "v": 127
    },
    {
      "midi": 73,
      "hit": false,
      "t": 50212.65799999952,
      "d": 101.95013541666412,
      "v": 127
    },
    {
      "midi": 67,
      "hit": false,
      "t": 50319.04074999952,
      "d": 101.95013541666412,
      "v": 92
    },
    {
      "midi": 73,
      "hit": false,
      "t": 50319.04074999952,
      "d": 101.95013541666412,
      "v": 92
    },
    {
      "midi": 67,
      "hit": false,
      "t": 50425.42349999952,
      "d": 101.95013541666412,
      "v": 92
    },
    {
      "midi": 73,
      "hit": false,
      "t": 50425.42349999952,
      "d": 101.95013541666412,
      "v": 92
    },
    {
      "midi": 67,
      "hit": false,
      "t": 50531.806249999514,
      "d": 101.95013541666412,
      "v": 92
    },
    {
      "midi": 73,
      "hit": false,
      "t": 50531.806249999514,
      "d": 101.95013541666412,
      "v": 92
    },
    {
      "midi": 67,
      "hit": false,
      "t": 50638.18899999951,
      "d": 101.95013541666412,
      "v": 127
    },
    {
      "midi": 73,
      "hit": false,
      "t": 50638.18899999951,
      "d": 101.95013541666412,
      "v": 127
    },
    {
      "midi": 67,
      "hit": false,
      "t": 50744.57174999951,
      "d": 101.95013541666412,
      "v": 92
    },
    {
      "midi": 73,
      "hit": false,
      "t": 50744.57174999951,
      "d": 101.95013541666412,
      "v": 92
    },
    {
      "midi": 67,
      "hit": false,
      "t": 50850.954499999505,
      "d": 101.95013541666412,
      "v": 92
    },
    {
      "midi": 73,
      "hit": false,
      "t": 50850.954499999505,
      "d": 101.95013541666412,
      "v": 92
    },
    {
      "midi": 67,
      "hit": false,
      "t": 50957.3372499995,
      "d": 101.95013541666412,
      "v": 92
    },
    {
      "midi": 73,
      "hit": false,
      "t": 50957.3372499995,
      "d": 101.95013541666412,
      "v": 92
    },
    {
      "midi": 65,
      "hit": false,
      "t": 51063.7199999995,
      "d": 101.95013541666412,
      "v": 127
    },
    {
      "midi": 71,
      "hit": false,
      "t": 51063.7199999995,
      "d": 101.95013541666412,
      "v": 127
    },
    {
      "midi": 65,
      "hit": false,
      "t": 51170.102749999496,
      "d": 101.95013541666412,
      "v": 92
    },
    {
      "midi": 71,
      "hit": false,
      "t": 51170.102749999496,
      "d": 101.95013541666412,
      "v": 92
    },
    {
      "midi": 65,
      "hit": false,
      "t": 51276.48549999949,
      "d": 101.95013541666412,
      "v": 92
    },
    {
      "midi": 71,
      "hit": false,
      "t": 51276.48549999949,
      "d": 101.95013541666412,
      "v": 92
    },
    {
      "midi": 65,
      "hit": false,
      "t": 51382.86824999949,
      "d": 101.95013541666412,
      "v": 92
    },
    {
      "midi": 71,
      "hit": false,
      "t": 51382.86824999949,
      "d": 101.95013541666412,
      "v": 92
    },
    {
      "midi": 65,
      "hit": false,
      "t": 51489.25099999949,
      "d": 101.95013541666412,
      "v": 127
    },
    {
      "midi": 71,
      "hit": false,
      "t": 51489.25099999949,
      "d": 101.95013541666412,
      "v": 127
    },
    {
      "midi": 65,
      "hit": false,
      "t": 51595.633749999484,
      "d": 101.95013541666412,
      "v": 92
    },
    {
      "midi": 71,
      "hit": false,
      "t": 51595.633749999484,
      "d": 101.95013541666412,
      "v": 92
    },
    {
      "midi": 65,
      "hit": false,
      "t": 51702.01649999948,
      "d": 101.95013541666412,
      "v": 92
    },
    {
      "midi": 71,
      "hit": false,
      "t": 51702.01649999948,
      "d": 101.95013541666412,
      "v": 92
    },
    {
      "midi": 65,
      "hit": false,
      "t": 51808.39924999948,
      "d": 101.95013541666412,
      "v": 92
    },
    {
      "midi": 71,
      "hit": false,
      "t": 51808.39924999948,
      "d": 101.95013541666412,
      "v": 92
    },
    {
      "midi": 65,
      "hit": false,
      "t": 51914.781999999475,
      "d": 101.95013541666412,
      "v": 127
    },
    {
      "midi": 71,
      "hit": false,
      "t": 51914.781999999475,
      "d": 101.95013541666412,
      "v": 127
    },
    {
      "midi": 39,
      "hit": false,
      "t": 51914.782000000036,
      "d": 319.14824999999837,
      "v": 110
    },
    {
      "midi": 51,
      "hit": false,
      "t": 51914.782000000036,
      "d": 319.14824999999837,
      "v": 110
    },
    {
      "midi": 65,
      "hit": false,
      "t": 52021.16474999947,
      "d": 101.95013541666412,
      "v": 92
    },
    {
      "midi": 71,
      "hit": false,
      "t": 52021.16474999947,
      "d": 101.95013541666412,
      "v": 92
    },
    {
      "midi": 65,
      "hit": false,
      "t": 52127.54749999947,
      "d": 101.95013541666412,
      "v": 92
    },
    {
      "midi": 71,
      "hit": false,
      "t": 52127.54749999947,
      "d": 101.95013541666412,
      "v": 92
    },
    {
      "midi": 65,
      "hit": false,
      "t": 52233.93024999947,
      "d": 101.95013541666412,
      "v": 92
    },
    {
      "midi": 71,
      "hit": false,
      "t": 52233.93024999947,
      "d": 101.95013541666412,
      "v": 92
    },
    {
      "midi": 38,
      "hit": false,
      "t": 52233.930250000034,
      "d": 319.14824999999837,
      "v": 110
    },
    {
      "midi": 50,
      "hit": false,
      "t": 52233.930250000034,
      "d": 319.14824999999837,
      "v": 110
    },
    {
      "midi": 65,
      "hit": false,
      "t": 52340.31299999946,
      "d": 101.95013541666412,
      "v": 127
    },
    {
      "midi": 71,
      "hit": false,
      "t": 52340.31299999946,
      "d": 101.95013541666412,
      "v": 127
    },
    {
      "midi": 65,
      "hit": false,
      "t": 52446.69574999946,
      "d": 101.95013541666412,
      "v": 92
    },
    {
      "midi": 71,
      "hit": false,
      "t": 52446.69574999946,
      "d": 101.95013541666412,
      "v": 92
    },
    {
      "midi": 65,
      "hit": false,
      "t": 52553.07849999946,
      "d": 101.95013541666412,
      "v": 92
    },
    {
      "midi": 71,
      "hit": false,
      "t": 52553.07849999946,
      "d": 101.95013541666412,
      "v": 92
    },
    {
      "midi": 44,
      "hit": false,
      "t": 52553.07850000003,
      "d": 212.76550000000134,
      "v": 110
    },
    {
      "midi": 56,
      "hit": false,
      "t": 52553.07850000003,
      "d": 212.76550000000134,
      "v": 110
    },
    {
      "midi": 65,
      "hit": false,
      "t": 52659.461249999455,
      "d": 101.95013541666412,
      "v": 92
    },
    {
      "midi": 71,
      "hit": false,
      "t": 52659.461249999455,
      "d": 101.95013541666412,
      "v": 92
    },
    {
      "midi": 64,
      "hit": false,
      "t": 52765.84399999945,
      "d": 101.95013541666412,
      "v": 127
    },
    {
      "midi": 70,
      "hit": false,
      "t": 52765.84399999945,
      "d": 101.95013541666412,
      "v": 127
    },
    {
      "midi": 43,
      "hit": false,
      "t": 52765.844000000034,
      "d": 744.679250000001,
      "v": 110
    },
    {
      "midi": 55,
      "hit": false,
      "t": 52765.844000000034,
      "d": 744.679250000001,
      "v": 110
    },
    {
      "midi": 64,
      "hit": false,
      "t": 52872.22674999945,
      "d": 101.95013541666412,
      "v": 92
    },
    {
      "midi": 70,
      "hit": false,
      "t": 52872.22674999945,
      "d": 101.95013541666412,
      "v": 92
    },
    {
      "midi": 64,
      "hit": false,
      "t": 52978.609499999446,
      "d": 101.95013541666412,
      "v": 92
    },
    {
      "midi": 70,
      "hit": false,
      "t": 52978.609499999446,
      "d": 101.95013541666412,
      "v": 92
    },
    {
      "midi": 64,
      "hit": false,
      "t": 53084.99224999944,
      "d": 101.95013541666412,
      "v": 92
    },
    {
      "midi": 70,
      "hit": false,
      "t": 53084.99224999944,
      "d": 101.95013541666412,
      "v": 92
    },
    {
      "midi": 64,
      "hit": false,
      "t": 53191.37499999944,
      "d": 101.95013541666412,
      "v": 127
    },
    {
      "midi": 70,
      "hit": false,
      "t": 53191.37499999944,
      "d": 101.95013541666412,
      "v": 127
    },
    {
      "midi": 64,
      "hit": false,
      "t": 53297.75774999944,
      "d": 101.95013541666412,
      "v": 92
    },
    {
      "midi": 70,
      "hit": false,
      "t": 53297.75774999944,
      "d": 101.95013541666412,
      "v": 92
    },
    {
      "midi": 64,
      "hit": false,
      "t": 53404.140499999434,
      "d": 101.95013541666412,
      "v": 92
    },
    {
      "midi": 70,
      "hit": false,
      "t": 53404.140499999434,
      "d": 101.95013541666412,
      "v": 92
    },
    {
      "midi": 64,
      "hit": false,
      "t": 53510.52324999943,
      "d": 101.95013541666412,
      "v": 92
    },
    {
      "midi": 70,
      "hit": false,
      "t": 53510.52324999943,
      "d": 101.95013541666412,
      "v": 92
    },
    {
      "midi": 64,
      "hit": false,
      "t": 53616.90599999943,
      "d": 101.95013541666412,
      "v": 127
    },
    {
      "midi": 70,
      "hit": false,
      "t": 53616.90599999943,
      "d": 101.95013541666412,
      "v": 127
    },
    {
      "midi": 34,
      "hit": false,
      "t": 53616.90600000003,
      "d": 638.2964999999967,
      "v": 110
    },
    {
      "midi": 46,
      "hit": false,
      "t": 53616.90600000003,
      "d": 638.2964999999967,
      "v": 110
    },
    {
      "midi": 64,
      "hit": false,
      "t": 53723.288749999425,
      "d": 101.95013541666412,
      "v": 92
    },
    {
      "midi": 70,
      "hit": false,
      "t": 53723.288749999425,
      "d": 101.95013541666412,
      "v": 92
    },
    {
      "midi": 64,
      "hit": false,
      "t": 53829.67149999942,
      "d": 101.95013541666412,
      "v": 92
    },
    {
      "midi": 70,
      "hit": false,
      "t": 53829.67149999942,
      "d": 101.95013541666412,
      "v": 92
    },
    {
      "midi": 64,
      "hit": false,
      "t": 53936.05424999942,
      "d": 101.95013541666412,
      "v": 92
    },
    {
      "midi": 70,
      "hit": false,
      "t": 53936.05424999942,
      "d": 101.95013541666412,
      "v": 92
    },
    {
      "midi": 64,
      "hit": false,
      "t": 54042.436999999416,
      "d": 101.95013541666412,
      "v": 127
    },
    {
      "midi": 70,
      "hit": false,
      "t": 54042.436999999416,
      "d": 101.95013541666412,
      "v": 127
    },
    {
      "midi": 64,
      "hit": false,
      "t": 54148.81974999941,
      "d": 101.95013541666412,
      "v": 92
    },
    {
      "midi": 70,
      "hit": false,
      "t": 54148.81974999941,
      "d": 101.95013541666412,
      "v": 92
    },
    {
      "midi": 64,
      "hit": false,
      "t": 54255.20249999941,
      "d": 101.95013541666412,
      "v": 92
    },
    {
      "midi": 70,
      "hit": false,
      "t": 54255.20249999941,
      "d": 101.95013541666412,
      "v": 92
    },
    {
      "midi": 33,
      "hit": false,
      "t": 54255.20250000003,
      "d": 1382.9757499999978,
      "v": 110
    },
    {
      "midi": 45,
      "hit": false,
      "t": 54255.20250000003,
      "d": 1382.9757499999978,
      "v": 110
    },
    {
      "midi": 64,
      "hit": false,
      "t": 54361.58524999941,
      "d": 101.95013541666412,
      "v": 92
    },
    {
      "midi": 70,
      "hit": false,
      "t": 54361.58524999941,
      "d": 101.95013541666412,
      "v": 92
    },
    {
      "midi": 68,
      "hit": false,
      "t": 54467.967999999404,
      "d": 101.95013541666412,
      "v": 127
    },
    {
      "midi": 74,
      "hit": false,
      "t": 54467.967999999404,
      "d": 101.95013541666412,
      "v": 127
    },
    {
      "midi": 68,
      "hit": false,
      "t": 54574.3507499994,
      "d": 101.95013541666412,
      "v": 92
    },
    {
      "midi": 74,
      "hit": false,
      "t": 54574.3507499994,
      "d": 101.95013541666412,
      "v": 92
    },
    {
      "midi": 68,
      "hit": false,
      "t": 54680.7334999994,
      "d": 101.95013541666412,
      "v": 92
    },
    {
      "midi": 74,
      "hit": false,
      "t": 54680.7334999994,
      "d": 101.95013541666412,
      "v": 92
    },
    {
      "midi": 68,
      "hit": false,
      "t": 54787.116249999395,
      "d": 101.95013541666412,
      "v": 92
    },
    {
      "midi": 74,
      "hit": false,
      "t": 54787.116249999395,
      "d": 101.95013541666412,
      "v": 92
    },
    {
      "midi": 68,
      "hit": false,
      "t": 54893.49899999939,
      "d": 101.95013541666412,
      "v": 127
    },
    {
      "midi": 74,
      "hit": false,
      "t": 54893.49899999939,
      "d": 101.95013541666412,
      "v": 127
    },
    {
      "midi": 68,
      "hit": false,
      "t": 54999.88174999939,
      "d": 101.95013541666412,
      "v": 92
    },
    {
      "midi": 74,
      "hit": false,
      "t": 54999.88174999939,
      "d": 101.95013541666412,
      "v": 92
    },
    {
      "midi": 68,
      "hit": false,
      "t": 55106.264499999386,
      "d": 101.95013541666412,
      "v": 92
    },
    {
      "midi": 74,
      "hit": false,
      "t": 55106.264499999386,
      "d": 101.95013541666412,
      "v": 92
    },
    {
      "midi": 68,
      "hit": false,
      "t": 55212.64724999938,
      "d": 101.95013541666412,
      "v": 92
    },
    {
      "midi": 74,
      "hit": false,
      "t": 55212.64724999938,
      "d": 101.95013541666412,
      "v": 92
    },
    {
      "midi": 68,
      "hit": false,
      "t": 55319.02999999938,
      "d": 101.95013541666412,
      "v": 127
    },
    {
      "midi": 74,
      "hit": false,
      "t": 55319.02999999938,
      "d": 101.95013541666412,
      "v": 127
    },
    {
      "midi": 68,
      "hit": false,
      "t": 55425.41274999938,
      "d": 101.95013541666412,
      "v": 92
    },
    {
      "midi": 74,
      "hit": false,
      "t": 55425.41274999938,
      "d": 101.95013541666412,
      "v": 92
    },
    {
      "midi": 68,
      "hit": false,
      "t": 55531.795499999374,
      "d": 101.95013541666412,
      "v": 92
    },
    {
      "midi": 74,
      "hit": false,
      "t": 55531.795499999374,
      "d": 101.95013541666412,
      "v": 92
    },
    {
      "midi": 68,
      "hit": false,
      "t": 55638.17824999937,
      "d": 101.95013541666412,
      "v": 92
    },
    {
      "midi": 74,
      "hit": false,
      "t": 55638.17824999937,
      "d": 101.95013541666412,
      "v": 92
    },
    {
      "midi": 68,
      "hit": false,
      "t": 55744.56099999937,
      "d": 101.95013541666412,
      "v": 127
    },
    {
      "midi": 74,
      "hit": false,
      "t": 55744.56099999937,
      "d": 101.95013541666412,
      "v": 127
    },
    {
      "midi": 46,
      "hit": false,
      "t": 55744.56100000002,
      "d": 212.76550000000134,
      "v": 110
    },
    {
      "midi": 58,
      "hit": false,
      "t": 55744.56100000002,
      "d": 212.76550000000134,
      "v": 110
    },
    {
      "midi": 68,
      "hit": false,
      "t": 55850.943749999366,
      "d": 101.95013541666412,
      "v": 92
    },
    {
      "midi": 74,
      "hit": false,
      "t": 55850.943749999366,
      "d": 101.95013541666412,
      "v": 92
    },
    {
      "midi": 68,
      "hit": false,
      "t": 55957.32649999936,
      "d": 101.95013541666412,
      "v": 92
    },
    {
      "midi": 74,
      "hit": false,
      "t": 55957.32649999936,
      "d": 101.95013541666412,
      "v": 92
    },
    {
      "midi": 45,
      "hit": false,
      "t": 55957.326500000025,
      "d": 1808.5067500000005,
      "v": 110
    },
    {
      "midi": 57,
      "hit": false,
      "t": 55957.326500000025,
      "d": 1808.5067500000005,
      "v": 110
    },
    {
      "midi": 68,
      "hit": false,
      "t": 56063.70924999936,
      "d": 101.95013541666412,
      "v": 92
    },
    {
      "midi": 74,
      "hit": false,
      "t": 56063.70924999936,
      "d": 101.95013541666412,
      "v": 92
    },
    {
      "midi": 67,
      "hit": false,
      "t": 56170.09199999936,
      "d": 101.95013541666412,
      "v": 127
    },
    {
      "midi": 73,
      "hit": false,
      "t": 56170.09199999936,
      "d": 101.95013541666412,
      "v": 127
    },
    {
      "midi": 67,
      "hit": false,
      "t": 56276.474749999354,
      "d": 101.95013541666412,
      "v": 92
    },
    {
      "midi": 73,
      "hit": false,
      "t": 56276.474749999354,
      "d": 101.95013541666412,
      "v": 92
    },
    {
      "midi": 67,
      "hit": false,
      "t": 56382.85749999935,
      "d": 101.95013541666412,
      "v": 92
    },
    {
      "midi": 73,
      "hit": false,
      "t": 56382.85749999935,
      "d": 101.95013541666412,
      "v": 92
    },
    {
      "midi": 67,
      "hit": false,
      "t": 56489.24024999935,
      "d": 101.95013541666412,
      "v": 92
    },
    {
      "midi": 73,
      "hit": false,
      "t": 56489.24024999935,
      "d": 101.95013541666412,
      "v": 92
    },
    {
      "midi": 67,
      "hit": false,
      "t": 56595.622999999345,
      "d": 101.95013541666412,
      "v": 127
    },
    {
      "midi": 73,
      "hit": false,
      "t": 56595.622999999345,
      "d": 101.95013541666412,
      "v": 127
    },
    {
      "midi": 67,
      "hit": false,
      "t": 56702.00574999934,
      "d": 101.95013541666412,
      "v": 92
    },
    {
      "midi": 73,
      "hit": false,
      "t": 56702.00574999934,
      "d": 101.95013541666412,
      "v": 92
    },
    {
      "midi": 67,
      "hit": false,
      "t": 56808.38849999934,
      "d": 101.95013541666412,
      "v": 92
    },
    {
      "midi": 73,
      "hit": false,
      "t": 56808.38849999934,
      "d": 101.95013541666412,
      "v": 92
    },
    {
      "midi": 67,
      "hit": false,
      "t": 56914.771249999336,
      "d": 101.95013541666412,
      "v": 92
    },
    {
      "midi": 73,
      "hit": false,
      "t": 56914.771249999336,
      "d": 101.95013541666412,
      "v": 92
    },
    {
      "midi": 67,
      "hit": false,
      "t": 57021.15399999933,
      "d": 101.95013541666412,
      "v": 127
    },
    {
      "midi": 73,
      "hit": false,
      "t": 57021.15399999933,
      "d": 101.95013541666412,
      "v": 127
    },
    {
      "midi": 67,
      "hit": false,
      "t": 57127.53674999933,
      "d": 101.95013541666412,
      "v": 92
    },
    {
      "midi": 73,
      "hit": false,
      "t": 57127.53674999933,
      "d": 101.95013541666412,
      "v": 92
    },
    {
      "midi": 67,
      "hit": false,
      "t": 57233.91949999933,
      "d": 101.95013541666412,
      "v": 92
    },
    {
      "midi": 73,
      "hit": false,
      "t": 57233.91949999933,
      "d": 101.95013541666412,
      "v": 92
    },
    {
      "midi": 67,
      "hit": false,
      "t": 57340.302249999324,
      "d": 101.95013541666412,
      "v": 92
    },
    {
      "midi": 73,
      "hit": false,
      "t": 57340.302249999324,
      "d": 101.95013541666412,
      "v": 92
    },
    {
      "midi": 67,
      "hit": false,
      "t": 57446.68499999932,
      "d": 101.95013541666412,
      "v": 127
    },
    {
      "midi": 73,
      "hit": false,
      "t": 57446.68499999932,
      "d": 101.95013541666412,
      "v": 127
    },
    {
      "midi": 67,
      "hit": false,
      "t": 57553.06774999932,
      "d": 101.95013541666412,
      "v": 92
    },
    {
      "midi": 73,
      "hit": false,
      "t": 57553.06774999932,
      "d": 101.95013541666412,
      "v": 92
    },
    {
      "midi": 67,
      "hit": false,
      "t": 57659.450499999315,
      "d": 101.95013541666412,
      "v": 92
    },
    {
      "midi": 73,
      "hit": false,
      "t": 57659.450499999315,
      "d": 101.95013541666412,
      "v": 92
    },
    {
      "midi": 67,
      "hit": false,
      "t": 57765.83324999931,
      "d": 101.95013541666412,
      "v": 92
    },
    {
      "midi": 73,
      "hit": false,
      "t": 57765.83324999931,
      "d": 101.95013541666412,
      "v": 92
    },
    {
      "midi": 65,
      "hit": false,
      "t": 57872.21599999931,
      "d": 101.95013541666412,
      "v": 127
    },
    {
      "midi": 71,
      "hit": false,
      "t": 57872.21599999931,
      "d": 101.95013541666412,
      "v": 127
    },
    {
      "midi": 65,
      "hit": false,
      "t": 57978.598749999306,
      "d": 101.95013541666412,
      "v": 92
    },
    {
      "midi": 71,
      "hit": false,
      "t": 57978.598749999306,
      "d": 101.95013541666412,
      "v": 92
    },
    {
      "midi": 65,
      "hit": false,
      "t": 58084.9814999993,
      "d": 101.95013541666412,
      "v": 92
    },
    {
      "midi": 71,
      "hit": false,
      "t": 58084.9814999993,
      "d": 101.95013541666412,
      "v": 92
    },
    {
      "midi": 65,
      "hit": false,
      "t": 58191.3642499993,
      "d": 101.95013541666412,
      "v": 92
    },
    {
      "midi": 71,
      "hit": false,
      "t": 58191.3642499993,
      "d": 101.95013541666412,
      "v": 92
    },
    {
      "midi": 65,
      "hit": false,
      "t": 58297.7469999993,
      "d": 101.95013541666412,
      "v": 127
    },
    {
      "midi": 71,
      "hit": false,
      "t": 58297.7469999993,
      "d": 101.95013541666412,
      "v": 127
    },
    {
      "midi": 65,
      "hit": false,
      "t": 58404.129749999294,
      "d": 101.95013541666412,
      "v": 92
    },
    {
      "midi": 71,
      "hit": false,
      "t": 58404.129749999294,
      "d": 101.95013541666412,
      "v": 92
    },
    {
      "midi": 65,
      "hit": false,
      "t": 58510.51249999929,
      "d": 101.95013541666412,
      "v": 92
    },
    {
      "midi": 71,
      "hit": false,
      "t": 58510.51249999929,
      "d": 101.95013541666412,
      "v": 92
    },
    {
      "midi": 65,
      "hit": false,
      "t": 58616.89524999929,
      "d": 101.95013541666412,
      "v": 92
    },
    {
      "midi": 71,
      "hit": false,
      "t": 58616.89524999929,
      "d": 101.95013541666412,
      "v": 92
    },
    {
      "midi": 65,
      "hit": false,
      "t": 58723.277999999285,
      "d": 101.95013541666412,
      "v": 127
    },
    {
      "midi": 71,
      "hit": false,
      "t": 58723.277999999285,
      "d": 101.95013541666412,
      "v": 127
    },
    {
      "midi": 39,
      "hit": false,
      "t": 58723.27800000003,
      "d": 319.14824999999837,
      "v": 110
    },
    {
      "midi": 51,
      "hit": false,
      "t": 58723.27800000003,
      "d": 319.14824999999837,
      "v": 110
    },
    {
      "midi": 65,
      "hit": false,
      "t": 58829.66074999928,
      "d": 101.95013541666412,
      "v": 92
    },
    {
      "midi": 71,
      "hit": false,
      "t": 58829.66074999928,
      "d": 101.95013541666412,
      "v": 92
    },
    {
      "midi": 65,
      "hit": false,
      "t": 58936.04349999928,
      "d": 101.95013541666412,
      "v": 92
    },
    {
      "midi": 71,
      "hit": false,
      "t": 58936.04349999928,
      "d": 101.95013541666412,
      "v": 92
    },
    {
      "midi": 65,
      "hit": false,
      "t": 59042.42624999928,
      "d": 101.95013541666412,
      "v": 92
    },
    {
      "midi": 71,
      "hit": false,
      "t": 59042.42624999928,
      "d": 101.95013541666412,
      "v": 92
    },
    {
      "midi": 38,
      "hit": false,
      "t": 59042.426250000026,
      "d": 319.14824999999837,
      "v": 110
    },
    {
      "midi": 50,
      "hit": false,
      "t": 59042.426250000026,
      "d": 319.14824999999837,
      "v": 110
    },
    {
      "midi": 65,
      "hit": false,
      "t": 59148.80899999927,
      "d": 101.95013541666412,
      "v": 127
    },
    {
      "midi": 71,
      "hit": false,
      "t": 59148.80899999927,
      "d": 101.95013541666412,
      "v": 127
    },
    {
      "midi": 65,
      "hit": false,
      "t": 59255.19174999927,
      "d": 101.95013541666412,
      "v": 92
    },
    {
      "midi": 71,
      "hit": false,
      "t": 59255.19174999927,
      "d": 101.95013541666412,
      "v": 92
    },
    {
      "midi": 65,
      "hit": false,
      "t": 59361.57449999927,
      "d": 101.95013541666412,
      "v": 92
    },
    {
      "midi": 71,
      "hit": false,
      "t": 59361.57449999927,
      "d": 101.95013541666412,
      "v": 92
    },
    {
      "midi": 44,
      "hit": false,
      "t": 59361.574500000024,
      "d": 212.76550000000134,
      "v": 110
    },
    {
      "midi": 56,
      "hit": false,
      "t": 59361.574500000024,
      "d": 212.76550000000134,
      "v": 110
    },
    {
      "midi": 65,
      "hit": false,
      "t": 59467.957249999265,
      "d": 101.95013541666412,
      "v": 92
    },
    {
      "midi": 71,
      "hit": false,
      "t": 59467.957249999265,
      "d": 101.95013541666412,
      "v": 92
    },
    {
      "midi": 64,
      "hit": false,
      "t": 59574.33999999926,
      "d": 101.95013541666412,
      "v": 127
    },
    {
      "midi": 70,
      "hit": false,
      "t": 59574.33999999926,
      "d": 101.95013541666412,
      "v": 127
    },
    {
      "midi": 43,
      "hit": false,
      "t": 59574.340000000026,
      "d": 744.679250000001,
      "v": 110
    },
    {
      "midi": 55,
      "hit": false,
      "t": 59574.340000000026,
      "d": 744.679250000001,
      "v": 110
    },
    {
      "midi": 64,
      "hit": false,
      "t": 59680.72274999926,
      "d": 101.95013541666412,
      "v": 92
    },
    {
      "midi": 70,
      "hit": false,
      "t": 59680.72274999926,
      "d": 101.95013541666412,
      "v": 92
    },
    {
      "midi": 64,
      "hit": false,
      "t": 59787.105499999256,
      "d": 101.95013541666412,
      "v": 92
    },
    {
      "midi": 70,
      "hit": false,
      "t": 59787.105499999256,
      "d": 101.95013541666412,
      "v": 92
    },
    {
      "midi": 64,
      "hit": false,
      "t": 59893.48824999925,
      "d": 101.95013541666412,
      "v": 92
    },
    {
      "midi": 70,
      "hit": false,
      "t": 59893.48824999925,
      "d": 101.95013541666412,
      "v": 92
    },
    {
      "midi": 64,
      "hit": false,
      "t": 59999.87099999925,
      "d": 101.95013541666412,
      "v": 127
    },
    {
      "midi": 70,
      "hit": false,
      "t": 59999.87099999925,
      "d": 101.95013541666412,
      "v": 127
    },
    {
      "midi": 64,
      "hit": false,
      "t": 60106.25374999925,
      "d": 101.95013541666412,
      "v": 92
    },
    {
      "midi": 70,
      "hit": false,
      "t": 60106.25374999925,
      "d": 101.95013541666412,
      "v": 92
    },
    {
      "midi": 64,
      "hit": false,
      "t": 60212.636499999244,
      "d": 101.95013541666412,
      "v": 92
    },
    {
      "midi": 70,
      "hit": false,
      "t": 60212.636499999244,
      "d": 101.95013541666412,
      "v": 92
    },
    {
      "midi": 64,
      "hit": false,
      "t": 60319.01924999924,
      "d": 101.95013541666412,
      "v": 92
    },
    {
      "midi": 70,
      "hit": false,
      "t": 60319.01924999924,
      "d": 101.95013541666412,
      "v": 92
    },
    {
      "midi": 64,
      "hit": false,
      "t": 60425.40199999924,
      "d": 101.95013541666412,
      "v": 127
    },
    {
      "midi": 70,
      "hit": false,
      "t": 60425.40199999924,
      "d": 101.95013541666412,
      "v": 127
    },
    {
      "midi": 34,
      "hit": false,
      "t": 60425.402000000024,
      "d": 638.2964999999967,
      "v": 110
    },
    {
      "midi": 46,
      "hit": false,
      "t": 60425.402000000024,
      "d": 638.2964999999967,
      "v": 110
    },
    {
      "midi": 64,
      "hit": false,
      "t": 60531.784749999235,
      "d": 101.95013541666412,
      "v": 92
    },
    {
      "midi": 70,
      "hit": false,
      "t": 60531.784749999235,
      "d": 101.95013541666412,
      "v": 92
    },
    {
      "midi": 64,
      "hit": false,
      "t": 60638.16749999923,
      "d": 101.95013541666412,
      "v": 92
    },
    {
      "midi": 70,
      "hit": false,
      "t": 60638.16749999923,
      "d": 101.95013541666412,
      "v": 92
    },
    {
      "midi": 64,
      "hit": false,
      "t": 60744.55024999923,
      "d": 101.95013541666412,
      "v": 92
    },
    {
      "midi": 70,
      "hit": false,
      "t": 60744.55024999923,
      "d": 101.95013541666412,
      "v": 92
    },
    {
      "midi": 64,
      "hit": false,
      "t": 60850.932999999226,
      "d": 101.95013541666412,
      "v": 127
    },
    {
      "midi": 70,
      "hit": false,
      "t": 60850.932999999226,
      "d": 101.95013541666412,
      "v": 127
    },
    {
      "midi": 64,
      "hit": false,
      "t": 60957.31574999922,
      "d": 101.95013541666412,
      "v": 92
    },
    {
      "midi": 70,
      "hit": false,
      "t": 60957.31574999922,
      "d": 101.95013541666412,
      "v": 92
    },
    {
      "midi": 64,
      "hit": false,
      "t": 61063.69849999922,
      "d": 101.95013541666412,
      "v": 92
    },
    {
      "midi": 70,
      "hit": false,
      "t": 61063.69849999922,
      "d": 101.95013541666412,
      "v": 92
    },
    {
      "midi": 33,
      "hit": false,
      "t": 61063.69850000002,
      "d": 1382.9757499999978,
      "v": 110
    },
    {
      "midi": 45,
      "hit": false,
      "t": 61063.69850000002,
      "d": 1382.9757499999978,
      "v": 110
    },
    {
      "midi": 64,
      "hit": false,
      "t": 61170.08124999922,
      "d": 101.95013541666412,
      "v": 92
    },
    {
      "midi": 70,
      "hit": false,
      "t": 61170.08124999922,
      "d": 101.95013541666412,
      "v": 92
    },
    {
      "midi": 68,
      "hit": false,
      "t": 61276.463999999214,
      "d": 101.95013541666412,
      "v": 127
    },
    {
      "midi": 74,
      "hit": false,
      "t": 61276.463999999214,
      "d": 101.95013541666412,
      "v": 127
    },
    {
      "midi": 68,
      "hit": false,
      "t": 61382.84674999921,
      "d": 101.95013541666412,
      "v": 92
    },
    {
      "midi": 74,
      "hit": false,
      "t": 61382.84674999921,
      "d": 101.95013541666412,
      "v": 92
    },
    {
      "midi": 68,
      "hit": false,
      "t": 61489.22949999921,
      "d": 101.95013541666412,
      "v": 92
    },
    {
      "midi": 74,
      "hit": false,
      "t": 61489.22949999921,
      "d": 101.95013541666412,
      "v": 92
    },
    {
      "midi": 68,
      "hit": false,
      "t": 61595.612249999205,
      "d": 101.95013541666412,
      "v": 92
    },
    {
      "midi": 74,
      "hit": false,
      "t": 61595.612249999205,
      "d": 101.95013541666412,
      "v": 92
    },
    {
      "midi": 68,
      "hit": false,
      "t": 61701.9949999992,
      "d": 101.95013541666412,
      "v": 127
    },
    {
      "midi": 74,
      "hit": false,
      "t": 61701.9949999992,
      "d": 101.95013541666412,
      "v": 127
    },
    {
      "midi": 68,
      "hit": false,
      "t": 61808.3777499992,
      "d": 101.95013541666412,
      "v": 92
    },
    {
      "midi": 74,
      "hit": false,
      "t": 61808.3777499992,
      "d": 101.95013541666412,
      "v": 92
    },
    {
      "midi": 68,
      "hit": false,
      "t": 61914.760499999196,
      "d": 101.95013541666412,
      "v": 92
    },
    {
      "midi": 74,
      "hit": false,
      "t": 61914.760499999196,
      "d": 101.95013541666412,
      "v": 92
    },
    {
      "midi": 68,
      "hit": false,
      "t": 62021.14324999919,
      "d": 101.95013541666412,
      "v": 92
    },
    {
      "midi": 74,
      "hit": false,
      "t": 62021.14324999919,
      "d": 101.95013541666412,
      "v": 92
    },
    {
      "midi": 68,
      "hit": false,
      "t": 62127.52599999919,
      "d": 101.95013541666412,
      "v": 127
    },
    {
      "midi": 74,
      "hit": false,
      "t": 62127.52599999919,
      "d": 101.95013541666412,
      "v": 127
    },
    {
      "midi": 68,
      "hit": false,
      "t": 62233.90874999919,
      "d": 101.95013541666412,
      "v": 92
    },
    {
      "midi": 74,
      "hit": false,
      "t": 62233.90874999919,
      "d": 101.95013541666412,
      "v": 92
    },
    {
      "midi": 68,
      "hit": false,
      "t": 62340.291499999184,
      "d": 101.95013541666412,
      "v": 92
    },
    {
      "midi": 74,
      "hit": false,
      "t": 62340.291499999184,
      "d": 101.95013541666412,
      "v": 92
    },
    {
      "midi": 68,
      "hit": false,
      "t": 62446.67424999918,
      "d": 101.95013541666412,
      "v": 92
    },
    {
      "midi": 74,
      "hit": false,
      "t": 62446.67424999918,
      "d": 101.95013541666412,
      "v": 92
    },
    {
      "midi": 68,
      "hit": false,
      "t": 62553.05699999918,
      "d": 101.95013541666412,
      "v": 127
    },
    {
      "midi": 74,
      "hit": false,
      "t": 62553.05699999918,
      "d": 101.95013541666412,
      "v": 127
    },
    {
      "midi": 46,
      "hit": false,
      "t": 62553.057000000015,
      "d": 212.76550000000134,
      "v": 110
    },
    {
      "midi": 58,
      "hit": false,
      "t": 62553.057000000015,
      "d": 212.76550000000134,
      "v": 110
    },
    {
      "midi": 68,
      "hit": false,
      "t": 62659.439749999176,
      "d": 101.95013541666412,
      "v": 92
    },
    {
      "midi": 74,
      "hit": false,
      "t": 62659.439749999176,
      "d": 101.95013541666412,
      "v": 92
    },
    {
      "midi": 68,
      "hit": false,
      "t": 62765.82249999917,
      "d": 101.95013541666412,
      "v": 92
    },
    {
      "midi": 74,
      "hit": false,
      "t": 62765.82249999917,
      "d": 101.95013541666412,
      "v": 92
    },
    {
      "midi": 45,
      "hit": false,
      "t": 62765.82250000002,
      "d": 1382.9757499999978,
      "v": 110
    },
    {
      "midi": 57,
      "hit": false,
      "t": 62765.82250000002,
      "d": 1382.9757499999978,
      "v": 110
    },
    {
      "midi": 68,
      "hit": false,
      "t": 62872.20524999917,
      "d": 101.95013541666412,
      "v": 92
    },
    {
      "midi": 74,
      "hit": false,
      "t": 62872.20524999917,
      "d": 101.95013541666412,
      "v": 92
    },
    {
      "midi": 67,
      "hit": false,
      "t": 62978.58799999917,
      "d": 101.95013541666412,
      "v": 127
    },
    {
      "midi": 73,
      "hit": false,
      "t": 62978.58799999917,
      "d": 101.95013541666412,
      "v": 127
    },
    {
      "midi": 67,
      "hit": false,
      "t": 63084.970749999164,
      "d": 101.95013541666412,
      "v": 92
    },
    {
      "midi": 73,
      "hit": false,
      "t": 63084.970749999164,
      "d": 101.95013541666412,
      "v": 92
    },
    {
      "midi": 67,
      "hit": false,
      "t": 63191.35349999916,
      "d": 101.95013541666412,
      "v": 92
    },
    {
      "midi": 73,
      "hit": false,
      "t": 63191.35349999916,
      "d": 101.95013541666412,
      "v": 92
    },
    {
      "midi": 67,
      "hit": false,
      "t": 63297.73624999916,
      "d": 101.95013541666412,
      "v": 92
    },
    {
      "midi": 73,
      "hit": false,
      "t": 63297.73624999916,
      "d": 101.95013541666412,
      "v": 92
    },
    {
      "midi": 67,
      "hit": false,
      "t": 63404.118999999155,
      "d": 101.95013541666412,
      "v": 127
    },
    {
      "midi": 73,
      "hit": false,
      "t": 63404.118999999155,
      "d": 101.95013541666412,
      "v": 127
    },
    {
      "midi": 67,
      "hit": false,
      "t": 63510.50174999915,
      "d": 101.95013541666412,
      "v": 92
    },
    {
      "midi": 73,
      "hit": false,
      "t": 63510.50174999915,
      "d": 101.95013541666412,
      "v": 92
    },
    {
      "midi": 67,
      "hit": false,
      "t": 63616.88449999915,
      "d": 101.95013541666412,
      "v": 92
    },
    {
      "midi": 73,
      "hit": false,
      "t": 63616.88449999915,
      "d": 101.95013541666412,
      "v": 92
    },
    {
      "midi": 67,
      "hit": false,
      "t": 63723.267249999146,
      "d": 101.95013541666412,
      "v": 92
    },
    {
      "midi": 73,
      "hit": false,
      "t": 63723.267249999146,
      "d": 101.95013541666412,
      "v": 92
    },
    {
      "midi": 67,
      "hit": false,
      "t": 63829.64999999914,
      "d": 101.95013541666412,
      "v": 127
    },
    {
      "midi": 73,
      "hit": false,
      "t": 63829.64999999914,
      "d": 101.95013541666412,
      "v": 127
    },
    {
      "midi": 67,
      "hit": false,
      "t": 63936.03274999914,
      "d": 101.95013541666412,
      "v": 92
    },
    {
      "midi": 73,
      "hit": false,
      "t": 63936.03274999914,
      "d": 101.95013541666412,
      "v": 92
    },
    {
      "midi": 67,
      "hit": false,
      "t": 64042.41549999914,
      "d": 101.95013541666412,
      "v": 92
    },
    {
      "midi": 73,
      "hit": false,
      "t": 64042.41549999914,
      "d": 101.95013541666412,
      "v": 92
    },
    {
      "midi": 67,
      "hit": false,
      "t": 64148.798249999134,
      "d": 101.95013541666412,
      "v": 92
    },
    {
      "midi": 73,
      "hit": false,
      "t": 64148.798249999134,
      "d": 101.95013541666412,
      "v": 92
    },
    {
      "midi": 67,
      "hit": false,
      "t": 64255.18099999913,
      "d": 101.95013541666412,
      "v": 127
    },
    {
      "midi": 73,
      "hit": false,
      "t": 64255.18099999913,
      "d": 101.95013541666412,
      "v": 127
    },
    {
      "midi": 48,
      "hit": false,
      "t": 64255.18100000001,
      "d": 212.76550000000134,
      "v": 110
    },
    {
      "midi": 60,
      "hit": false,
      "t": 64255.18100000001,
      "d": 212.76550000000134,
      "v": 110
    },
    {
      "midi": 67,
      "hit": false,
      "t": 64361.56374999913,
      "d": 101.95013541666412,
      "v": 92
    },
    {
      "midi": 73,
      "hit": false,
      "t": 64361.56374999913,
      "d": 101.95013541666412,
      "v": 92
    },
    {
      "midi": 67,
      "hit": false,
      "t": 64467.946499999125,
      "d": 101.95013541666412,
      "v": 92
    },
    {
      "midi": 73,
      "hit": false,
      "t": 64467.946499999125,
      "d": 101.95013541666412,
      "v": 92
    },
    {
      "midi": 47,
      "hit": false,
      "t": 64467.94650000001,
      "d": 1382.975750000005,
      "v": 110
    },
    {
      "midi": 59,
      "hit": false,
      "t": 64467.94650000001,
      "d": 1382.975750000005,
      "v": 110
    },
    {
      "midi": 67,
      "hit": false,
      "t": 64574.32924999912,
      "d": 101.95013541666412,
      "v": 92
    },
    {
      "midi": 73,
      "hit": false,
      "t": 64574.32924999912,
      "d": 101.95013541666412,
      "v": 92
    },
    {
      "midi": 69,
      "hit": false,
      "t": 64680.71199999912,
      "d": 101.95013541666412,
      "v": 127
    },
    {
      "midi": 75,
      "hit": false,
      "t": 64680.71199999912,
      "d": 101.95013541666412,
      "v": 127
    },
    {
      "midi": 69,
      "hit": false,
      "t": 64787.094749999116,
      "d": 101.95013541666412,
      "v": 92
    },
    {
      "midi": 75,
      "hit": false,
      "t": 64787.094749999116,
      "d": 101.95013541666412,
      "v": 92
    },
    {
      "midi": 69,
      "hit": false,
      "t": 64893.47749999911,
      "d": 101.95013541666412,
      "v": 92
    },
    {
      "midi": 75,
      "hit": false,
      "t": 64893.47749999911,
      "d": 101.95013541666412,
      "v": 92
    },
    {
      "midi": 69,
      "hit": false,
      "t": 64999.86024999911,
      "d": 101.95013541666412,
      "v": 92
    },
    {
      "midi": 75,
      "hit": false,
      "t": 64999.86024999911,
      "d": 101.95013541666412,
      "v": 92
    },
    {
      "midi": 69,
      "hit": false,
      "t": 65106.24299999911,
      "d": 101.95013541666412,
      "v": 127
    },
    {
      "midi": 75,
      "hit": false,
      "t": 65106.24299999911,
      "d": 101.95013541666412,
      "v": 127
    },
    {
      "midi": 69,
      "hit": false,
      "t": 65212.625749999104,
      "d": 101.95013541666412,
      "v": 92
    },
    {
      "midi": 75,
      "hit": false,
      "t": 65212.625749999104,
      "d": 101.95013541666412,
      "v": 92
    },
    {
      "midi": 69,
      "hit": false,
      "t": 65319.0084999991,
      "d": 101.95013541666412,
      "v": 92
    },
    {
      "midi": 75,
      "hit": false,
      "t": 65319.0084999991,
      "d": 101.95013541666412,
      "v": 92
    },
    {
      "midi": 69,
      "hit": false,
      "t": 65425.3912499991,
      "d": 101.95013541666412,
      "v": 92
    },
    {
      "midi": 75,
      "hit": false,
      "t": 65425.3912499991,
      "d": 101.95013541666412,
      "v": 92
    },
    {
      "midi": 69,
      "hit": false,
      "t": 65531.773999999095,
      "d": 101.95013541666412,
      "v": 127
    },
    {
      "midi": 75,
      "hit": false,
      "t": 65531.773999999095,
      "d": 101.95013541666412,
      "v": 127
    },
    {
      "midi": 69,
      "hit": false,
      "t": 65638.15674999909,
      "d": 101.9501354166714,
      "v": 92
    },
    {
      "midi": 75,
      "hit": false,
      "t": 65638.15674999909,
      "d": 101.9501354166714,
      "v": 92
    },
    {
      "midi": 69,
      "hit": false,
      "t": 65744.5394999991,
      "d": 101.9501354166714,
      "v": 92
    },
    {
      "midi": 75,
      "hit": false,
      "t": 65744.5394999991,
      "d": 101.9501354166714,
      "v": 92
    },
    {
      "midi": 69,
      "hit": false,
      "t": 65850.9222499991,
      "d": 101.9501354166714,
      "v": 92
    },
    {
      "midi": 75,
      "hit": false,
      "t": 65850.9222499991,
      "d": 101.9501354166714,
      "v": 92
    },
    {
      "midi": 69,
      "hit": false,
      "t": 65957.3049999991,
      "d": 101.9501354166714,
      "v": 127
    },
    {
      "midi": 75,
      "hit": false,
      "t": 65957.3049999991,
      "d": 101.9501354166714,
      "v": 127
    },
    {
      "midi": 50,
      "hit": false,
      "t": 65957.30500000002,
      "d": 212.76549999999406,
      "v": 110
    },
    {
      "midi": 62,
      "hit": false,
      "t": 65957.30500000002,
      "d": 212.76549999999406,
      "v": 110
    },
    {
      "midi": 69,
      "hit": false,
      "t": 66063.68774999911,
      "d": 101.9501354166714,
      "v": 92
    },
    {
      "midi": 75,
      "hit": false,
      "t": 66063.68774999911,
      "d": 101.9501354166714,
      "v": 92
    },
    {
      "midi": 69,
      "hit": false,
      "t": 66170.07049999911,
      "d": 101.9501354166714,
      "v": 92
    },
    {
      "midi": 75,
      "hit": false,
      "t": 66170.07049999911,
      "d": 101.9501354166714,
      "v": 92
    },
    {
      "midi": 49,
      "hit": false,
      "t": 66170.07050000002,
      "d": 1808.5067500000005,
      "v": 110
    },
    {
      "midi": 61,
      "hit": false,
      "t": 66170.07050000002,
      "d": 1808.5067500000005,
      "v": 110
    },
    {
      "midi": 69,
      "hit": false,
      "t": 66276.45324999912,
      "d": 101.9501354166714,
      "v": 92
    },
    {
      "midi": 75,
      "hit": false,
      "t": 66276.45324999912,
      "d": 101.9501354166714,
      "v": 92
    },
    {
      "midi": 71,
      "hit": false,
      "t": 66382.83599999912,
      "d": 101.9501354166714,
      "v": 127
    },
    {
      "midi": 77,
      "hit": false,
      "t": 66382.83599999912,
      "d": 101.9501354166714,
      "v": 127
    },
    {
      "midi": 71,
      "hit": false,
      "t": 66489.21874999913,
      "d": 101.9501354166714,
      "v": 92
    },
    {
      "midi": 77,
      "hit": false,
      "t": 66489.21874999913,
      "d": 101.9501354166714,
      "v": 92
    },
    {
      "midi": 71,
      "hit": false,
      "t": 66595.60149999913,
      "d": 101.9501354166714,
      "v": 92
    },
    {
      "midi": 77,
      "hit": false,
      "t": 66595.60149999913,
      "d": 101.9501354166714,
      "v": 92
    },
    {
      "midi": 71,
      "hit": false,
      "t": 66701.98424999914,
      "d": 101.9501354166714,
      "v": 92
    },
    {
      "midi": 77,
      "hit": false,
      "t": 66701.98424999914,
      "d": 101.9501354166714,
      "v": 92
    },
    {
      "midi": 71,
      "hit": false,
      "t": 66808.36699999914,
      "d": 101.9501354166714,
      "v": 127
    },
    {
      "midi": 77,
      "hit": false,
      "t": 66808.36699999914,
      "d": 101.9501354166714,
      "v": 127
    },
    {
      "midi": 71,
      "hit": false,
      "t": 66914.74974999914,
      "d": 101.9501354166714,
      "v": 92
    },
    {
      "midi": 77,
      "hit": false,
      "t": 66914.74974999914,
      "d": 101.9501354166714,
      "v": 92
    },
    {
      "midi": 71,
      "hit": false,
      "t": 67021.13249999915,
      "d": 101.9501354166714,
      "v": 92
    },
    {
      "midi": 77,
      "hit": false,
      "t": 67021.13249999915,
      "d": 101.9501354166714,
      "v": 92
    },
    {
      "midi": 71,
      "hit": false,
      "t": 67127.51524999915,
      "d": 101.9501354166714,
      "v": 92
    },
    {
      "midi": 77,
      "hit": false,
      "t": 67127.51524999915,
      "d": 101.9501354166714,
      "v": 92
    },
    {
      "midi": 71,
      "hit": false,
      "t": 67233.89799999916,
      "d": 101.9501354166714,
      "v": 127
    },
    {
      "midi": 77,
      "hit": false,
      "t": 67233.89799999916,
      "d": 101.9501354166714,
      "v": 127
    },
    {
      "midi": 71,
      "hit": false,
      "t": 67340.28074999916,
      "d": 101.9501354166714,
      "v": 92
    },
    {
      "midi": 77,
      "hit": false,
      "t": 67340.28074999916,
      "d": 101.9501354166714,
      "v": 92
    },
    {
      "midi": 71,
      "hit": false,
      "t": 67446.66349999917,
      "d": 101.9501354166714,
      "v": 92
    },
    {
      "midi": 77,
      "hit": false,
      "t": 67446.66349999917,
      "d": 101.9501354166714,
      "v": 92
    },
    {
      "midi": 71,
      "hit": false,
      "t": 67553.04624999917,
      "d": 101.9501354166714,
      "v": 92
    },
    {
      "midi": 77,
      "hit": false,
      "t": 67553.04624999917,
      "d": 101.9501354166714,
      "v": 92
    },
    {
      "midi": 71,
      "hit": false,
      "t": 67659.42899999917,
      "d": 101.9501354166714,
      "v": 127
    },
    {
      "midi": 77,
      "hit": false,
      "t": 67659.42899999917,
      "d": 101.9501354166714,
      "v": 127
    },
    {
      "midi": 71,
      "hit": false,
      "t": 67765.81174999918,
      "d": 101.9501354166714,
      "v": 92
    },
    {
      "midi": 77,
      "hit": false,
      "t": 67765.81174999918,
      "d": 101.9501354166714,
      "v": 92
    },
    {
      "midi": 71,
      "hit": false,
      "t": 67872.19449999918,
      "d": 101.9501354166714,
      "v": 92
    },
    {
      "midi": 77,
      "hit": false,
      "t": 67872.19449999918,
      "d": 101.9501354166714,
      "v": 92
    },
    {
      "midi": 71,
      "hit": false,
      "t": 67978.57724999919,
      "d": 101.9501354166714,
      "v": 92
    },
    {
      "midi": 77,
      "hit": false,
      "t": 67978.57724999919,
      "d": 101.9501354166714,
      "v": 92
    },
    {
      "midi": 69,
      "hit": false,
      "t": 68084.95999999919,
      "d": 101.9501354166714,
      "v": 127
    },
    {
      "midi": 75,
      "hit": false,
      "t": 68084.95999999919,
      "d": 101.9501354166714,
      "v": 127
    },
    {
      "midi": 69,
      "hit": false,
      "t": 68191.3427499992,
      "d": 101.9501354166714,
      "v": 92
    },
    {
      "midi": 75,
      "hit": false,
      "t": 68191.3427499992,
      "d": 101.9501354166714,
      "v": 92
    },
    {
      "midi": 69,
      "hit": false,
      "t": 68297.7254999992,
      "d": 101.9501354166714,
      "v": 92
    },
    {
      "midi": 75,
      "hit": false,
      "t": 68297.7254999992,
      "d": 101.9501354166714,
      "v": 92
    },
    {
      "midi": 69,
      "hit": false,
      "t": 68404.1082499992,
      "d": 101.9501354166714,
      "v": 92
    },
    {
      "midi": 75,
      "hit": false,
      "t": 68404.1082499992,
      "d": 101.9501354166714,
      "v": 92
    },
    {
      "midi": 69,
      "hit": false,
      "t": 68510.49099999921,
      "d": 101.9501354166714,
      "v": 127
    },
    {
      "midi": 75,
      "hit": false,
      "t": 68510.49099999921,
      "d": 101.9501354166714,
      "v": 127
    },
    {
      "midi": 69,
      "hit": false,
      "t": 68616.87374999921,
      "d": 101.9501354166714,
      "v": 92
    },
    {
      "midi": 75,
      "hit": false,
      "t": 68616.87374999921,
      "d": 101.9501354166714,
      "v": 92
    },
    {
      "midi": 69,
      "hit": false,
      "t": 68723.25649999922,
      "d": 101.9501354166714,
      "v": 92
    },
    {
      "midi": 75,
      "hit": false,
      "t": 68723.25649999922,
      "d": 101.9501354166714,
      "v": 92
    },
    {
      "midi": 69,
      "hit": false,
      "t": 68829.63924999922,
      "d": 101.9501354166714,
      "v": 92
    },
    {
      "midi": 75,
      "hit": false,
      "t": 68829.63924999922,
      "d": 101.9501354166714,
      "v": 92
    },
    {
      "midi": 69,
      "hit": false,
      "t": 68936.02199999923,
      "d": 101.9501354166714,
      "v": 127
    },
    {
      "midi": 75,
      "hit": false,
      "t": 68936.02199999923,
      "d": 101.9501354166714,
      "v": 127
    },
    {
      "midi": 43,
      "hit": false,
      "t": 68936.02200000001,
      "d": 319.14824999999837,
      "v": 110
    },
    {
      "midi": 55,
      "hit": false,
      "t": 68936.02200000001,
      "d": 319.14824999999837,
      "v": 110
    },
    {
      "midi": 69,
      "hit": false,
      "t": 69042.40474999923,
      "d": 101.9501354166714,
      "v": 92
    },
    {
      "midi": 75,
      "hit": false,
      "t": 69042.40474999923,
      "d": 101.9501354166714,
      "v": 92
    },
    {
      "midi": 69,
      "hit": false,
      "t": 69148.78749999923,
      "d": 101.9501354166714,
      "v": 92
    },
    {
      "midi": 75,
      "hit": false,
      "t": 69148.78749999923,
      "d": 101.9501354166714,
      "v": 92
    },
    {
      "midi": 69,
      "hit": false,
      "t": 69255.17024999924,
      "d": 101.9501354166714,
      "v": 92
    },
    {
      "midi": 75,
      "hit": false,
      "t": 69255.17024999924,
      "d": 101.9501354166714,
      "v": 92
    },
    {
      "midi": 42,
      "hit": false,
      "t": 69255.17025000001,
      "d": 319.14824999999837,
      "v": 110
    },
    {
      "midi": 54,
      "hit": false,
      "t": 69255.17025000001,
      "d": 319.14824999999837,
      "v": 110
    },
    {
      "midi": 69,
      "hit": false,
      "t": 69361.55299999924,
      "d": 101.9501354166714,
      "v": 127
    },
    {
      "midi": 75,
      "hit": false,
      "t": 69361.55299999924,
      "d": 101.9501354166714,
      "v": 127
    },
    {
      "midi": 69,
      "hit": false,
      "t": 69467.93574999925,
      "d": 101.9501354166714,
      "v": 92
    },
    {
      "midi": 75,
      "hit": false,
      "t": 69467.93574999925,
      "d": 101.9501354166714,
      "v": 92
    },
    {
      "midi": 69,
      "hit": false,
      "t": 69574.31849999925,
      "d": 101.9501354166714,
      "v": 92
    },
    {
      "midi": 75,
      "hit": false,
      "t": 69574.31849999925,
      "d": 101.9501354166714,
      "v": 92
    },
    {
      "midi": 48,
      "hit": false,
      "t": 69574.31850000001,
      "d": 212.76549999999406,
      "v": 110
    },
    {
      "midi": 60,
      "hit": false,
      "t": 69574.31850000001,
      "d": 212.76549999999406,
      "v": 110
    },
    {
      "midi": 69,
      "hit": false,
      "t": 69680.70124999926,
      "d": 101.9501354166714,
      "v": 92
    },
    {
      "midi": 75,
      "hit": false,
      "t": 69680.70124999926,
      "d": 101.9501354166714,
      "v": 92
    },
    {
      "midi": 68,
      "hit": false,
      "t": 69787.08399999926,
      "d": 101.9501354166714,
      "v": 127
    },
    {
      "midi": 74,
      "hit": false,
      "t": 69787.08399999926,
      "d": 101.9501354166714,
      "v": 127
    },
    {
      "midi": 47,
      "hit": false,
      "t": 69787.084,
      "d": 744.679250000001,
      "v": 110
    },
    {
      "midi": 59,
      "hit": false,
      "t": 69787.084,
      "d": 744.679250000001,
      "v": 110
    },
    {
      "midi": 68,
      "hit": false,
      "t": 69893.46674999926,
      "d": 101.9501354166714,
      "v": 92
    },
    {
      "midi": 74,
      "hit": false,
      "t": 69893.46674999926,
      "d": 101.9501354166714,
      "v": 92
    },
    {
      "midi": 68,
      "hit": false,
      "t": 69999.84949999927,
      "d": 101.9501354166714,
      "v": 92
    },
    {
      "midi": 74,
      "hit": false,
      "t": 69999.84949999927,
      "d": 101.9501354166714,
      "v": 92
    },
    {
      "midi": 68,
      "hit": false,
      "t": 70106.23224999927,
      "d": 101.9501354166714,
      "v": 92
    },
    {
      "midi": 74,
      "hit": false,
      "t": 70106.23224999927,
      "d": 101.9501354166714,
      "v": 92
    },
    {
      "midi": 68,
      "hit": false,
      "t": 70212.61499999928,
      "d": 101.9501354166714,
      "v": 127
    },
    {
      "midi": 74,
      "hit": false,
      "t": 70212.61499999928,
      "d": 101.9501354166714,
      "v": 127
    },
    {
      "midi": 68,
      "hit": false,
      "t": 70318.99774999928,
      "d": 101.9501354166714,
      "v": 92
    },
    {
      "midi": 74,
      "hit": false,
      "t": 70318.99774999928,
      "d": 101.9501354166714,
      "v": 92
    },
    {
      "midi": 68,
      "hit": false,
      "t": 70425.38049999929,
      "d": 101.9501354166714,
      "v": 92
    },
    {
      "midi": 74,
      "hit": false,
      "t": 70425.38049999929,
      "d": 101.9501354166714,
      "v": 92
    },
    {
      "midi": 68,
      "hit": false,
      "t": 70531.76324999929,
      "d": 101.9501354166714,
      "v": 92
    },
    {
      "midi": 74,
      "hit": false,
      "t": 70531.76324999929,
      "d": 101.9501354166714,
      "v": 92
    },
    {
      "midi": 68,
      "hit": false,
      "t": 70638.1459999993,
      "d": 101.9501354166714,
      "v": 127
    },
    {
      "midi": 74,
      "hit": false,
      "t": 70638.1459999993,
      "d": 101.9501354166714,
      "v": 127
    },
    {
      "midi": 41,
      "hit": false,
      "t": 70638.14600000001,
      "d": 638.2964999999967,
      "v": 110
    },
    {
      "midi": 53,
      "hit": false,
      "t": 70638.14600000001,
      "d": 638.2964999999967,
      "v": 110
    },
    {
      "midi": 68,
      "hit": false,
      "t": 70744.5287499993,
      "d": 101.9501354166714,
      "v": 92
    },
    {
      "midi": 74,
      "hit": false,
      "t": 70744.5287499993,
      "d": 101.9501354166714,
      "v": 92
    },
    {
      "midi": 68,
      "hit": false,
      "t": 70850.9114999993,
      "d": 101.9501354166714,
      "v": 92
    },
    {
      "midi": 74,
      "hit": false,
      "t": 70850.9114999993,
      "d": 101.9501354166714,
      "v": 92
    },
    {
      "midi": 68,
      "hit": false,
      "t": 70957.29424999931,
      "d": 101.9501354166714,
      "v": 92
    },
    {
      "midi": 74,
      "hit": false,
      "t": 70957.29424999931,
      "d": 101.9501354166714,
      "v": 92
    },
    {
      "midi": 68,
      "hit": false,
      "t": 71063.67699999931,
      "d": 101.9501354166714,
      "v": 127
    },
    {
      "midi": 74,
      "hit": false,
      "t": 71063.67699999931,
      "d": 101.9501354166714,
      "v": 127
    },
    {
      "midi": 68,
      "hit": false,
      "t": 71170.05974999932,
      "d": 101.9501354166714,
      "v": 92
    },
    {
      "midi": 74,
      "hit": false,
      "t": 71170.05974999932,
      "d": 101.9501354166714,
      "v": 92
    },
    {
      "midi": 68,
      "hit": false,
      "t": 71276.44249999932,
      "d": 101.9501354166714,
      "v": 92
    },
    {
      "midi": 74,
      "hit": false,
      "t": 71276.44249999932,
      "d": 101.9501354166714,
      "v": 92
    },
    {
      "midi": 40,
      "hit": false,
      "t": 71276.4425,
      "d": 957.4447499999951,
      "v": 110
    },
    {
      "midi": 52,
      "hit": false,
      "t": 71276.4425,
      "d": 957.4447499999951,
      "v": 110
    },
    {
      "midi": 68,
      "hit": false,
      "t": 71382.82524999933,
      "d": 101.9501354166714,
      "v": 92
    },
    {
      "midi": 74,
      "hit": false,
      "t": 71382.82524999933,
      "d": 101.9501354166714,
      "v": 92
    },
    {
      "midi": 67,
      "hit": false,
      "t": 71489.20799999933,
      "d": 101.9501354166714,
      "v": 127
    },
    {
      "midi": 73,
      "hit": false,
      "t": 71489.20799999933,
      "d": 101.9501354166714,
      "v": 127
    },
    {
      "midi": 67,
      "hit": false,
      "t": 71595.59074999933,
      "d": 101.9501354166714,
      "v": 92
    },
    {
      "midi": 73,
      "hit": false,
      "t": 71595.59074999933,
      "d": 101.9501354166714,
      "v": 92
    },
    {
      "midi": 67,
      "hit": false,
      "t": 71701.97349999934,
      "d": 101.9501354166714,
      "v": 92
    },
    {
      "midi": 73,
      "hit": false,
      "t": 71701.97349999934,
      "d": 101.9501354166714,
      "v": 92
    },
    {
      "midi": 67,
      "hit": false,
      "t": 71808.35624999934,
      "d": 101.9501354166714,
      "v": 92
    },
    {
      "midi": 73,
      "hit": false,
      "t": 71808.35624999934,
      "d": 101.9501354166714,
      "v": 92
    },
    {
      "midi": 67,
      "hit": false,
      "t": 71914.73899999935,
      "d": 101.9501354166714,
      "v": 127
    },
    {
      "midi": 73,
      "hit": false,
      "t": 71914.73899999935,
      "d": 101.9501354166714,
      "v": 127
    },
    {
      "midi": 67,
      "hit": false,
      "t": 72021.12174999935,
      "d": 101.9501354166714,
      "v": 92
    },
    {
      "midi": 73,
      "hit": false,
      "t": 72021.12174999935,
      "d": 101.9501354166714,
      "v": 92
    },
    {
      "midi": 67,
      "hit": false,
      "t": 72127.50449999936,
      "d": 101.9501354166714,
      "v": 92
    },
    {
      "midi": 73,
      "hit": false,
      "t": 72127.50449999936,
      "d": 101.9501354166714,
      "v": 92
    },
    {
      "midi": 67,
      "hit": false,
      "t": 72233.88724999936,
      "d": 101.9501354166714,
      "v": 92
    },
    {
      "midi": 73,
      "hit": false,
      "t": 72233.88724999936,
      "d": 101.9501354166714,
      "v": 92
    },
    {
      "midi": 67,
      "hit": false,
      "t": 72340.26999999936,
      "d": 101.9501354166714,
      "v": 127
    },
    {
      "midi": 73,
      "hit": false,
      "t": 72340.26999999936,
      "d": 101.9501354166714,
      "v": 127
    },
    {
      "midi": 40,
      "hit": false,
      "t": 72340.27,
      "d": 319.14824999999837,
      "v": 110
    },
    {
      "midi": 52,
      "hit": false,
      "t": 72340.27,
      "d": 319.14824999999837,
      "v": 110
    },
    {
      "midi": 67,
      "hit": false,
      "t": 72446.65274999937,
      "d": 101.9501354166714,
      "v": 92
    },
    {
      "midi": 73,
      "hit": false,
      "t": 72446.65274999937,
      "d": 101.9501354166714,
      "v": 92
    },
    {
      "midi": 67,
      "hit": false,
      "t": 72553.03549999937,
      "d": 101.9501354166714,
      "v": 92
    },
    {
      "midi": 73,
      "hit": false,
      "t": 72553.03549999937,
      "d": 101.9501354166714,
      "v": 92
    },
    {
      "midi": 67,
      "hit": false,
      "t": 72659.41824999938,
      "d": 101.9501354166714,
      "v": 92
    },
    {
      "midi": 73,
      "hit": false,
      "t": 72659.41824999938,
      "d": 101.9501354166714,
      "v": 92
    },
    {
      "midi": 39,
      "hit": false,
      "t": 72659.41825,
      "d": 319.14824999999837,
      "v": 110
    },
    {
      "midi": 51,
      "hit": false,
      "t": 72659.41825,
      "d": 319.14824999999837,
      "v": 110
    },
    {
      "midi": 67,
      "hit": false,
      "t": 72765.80099999938,
      "d": 101.9501354166714,
      "v": 127
    },
    {
      "midi": 73,
      "hit": false,
      "t": 72765.80099999938,
      "d": 101.9501354166714,
      "v": 127
    },
    {
      "midi": 67,
      "hit": false,
      "t": 72872.18374999939,
      "d": 101.9501354166714,
      "v": 92
    },
    {
      "midi": 73,
      "hit": false,
      "t": 72872.18374999939,
      "d": 101.9501354166714,
      "v": 92
    },
    {
      "midi": 67,
      "hit": false,
      "t": 72978.56649999939,
      "d": 101.9501354166714,
      "v": 92
    },
    {
      "midi": 73,
      "hit": false,
      "t": 72978.56649999939,
      "d": 101.9501354166714,
      "v": 92
    },
    {
      "midi": 46,
      "hit": false,
      "t": 72978.5665,
      "d": 212.76549999999406,
      "v": 110
    },
    {
      "midi": 58,
      "hit": false,
      "t": 72978.5665,
      "d": 212.76549999999406,
      "v": 110
    },
    {
      "midi": 67,
      "hit": false,
      "t": 73084.9492499994,
      "d": 101.9501354166714,
      "v": 92
    },
    {
      "midi": 73,
      "hit": false,
      "t": 73084.9492499994,
      "d": 101.9501354166714,
      "v": 92
    },
    {
      "midi": 66,
      "hit": false,
      "t": 73191.3319999994,
      "d": 101.9501354166714,
      "v": 127
    },
    {
      "midi": 72,
      "hit": false,
      "t": 73191.3319999994,
      "d": 101.9501354166714,
      "v": 127
    },
    {
      "midi": 45,
      "hit": false,
      "t": 73191.332,
      "d": 744.679250000001,
      "v": 110
    },
    {
      "midi": 57,
      "hit": false,
      "t": 73191.332,
      "d": 744.679250000001,
      "v": 110
    },
    {
      "midi": 66,
      "hit": false,
      "t": 73297.7147499994,
      "d": 101.9501354166714,
      "v": 92
    },
    {
      "midi": 72,
      "hit": false,
      "t": 73297.7147499994,
      "d": 101.9501354166714,
      "v": 92
    },
    {
      "midi": 66,
      "hit": false,
      "t": 73404.0974999994,
      "d": 101.9501354166714,
      "v": 92
    },
    {
      "midi": 72,
      "hit": false,
      "t": 73404.0974999994,
      "d": 101.9501354166714,
      "v": 92
    },
    {
      "midi": 66,
      "hit": false,
      "t": 73510.48024999941,
      "d": 101.9501354166714,
      "v": 92
    },
    {
      "midi": 72,
      "hit": false,
      "t": 73510.48024999941,
      "d": 101.9501354166714,
      "v": 92
    },
    {
      "midi": 66,
      "hit": false,
      "t": 73616.86299999942,
      "d": 101.9501354166714,
      "v": 127
    },
    {
      "midi": 72,
      "hit": false,
      "t": 73616.86299999942,
      "d": 101.9501354166714,
      "v": 127
    },
    {
      "midi": 66,
      "hit": false,
      "t": 73723.24574999942,
      "d": 101.9501354166714,
      "v": 92
    },
    {
      "midi": 72,
      "hit": false,
      "t": 73723.24574999942,
      "d": 101.9501354166714,
      "v": 92
    },
    {
      "midi": 66,
      "hit": false,
      "t": 73829.62849999942,
      "d": 101.9501354166714,
      "v": 92
    },
    {
      "midi": 72,
      "hit": false,
      "t": 73829.62849999942,
      "d": 101.9501354166714,
      "v": 92
    },
    {
      "midi": 66,
      "hit": false,
      "t": 73936.01124999943,
      "d": 101.9501354166714,
      "v": 92
    },
    {
      "midi": 72,
      "hit": false,
      "t": 73936.01124999943,
      "d": 101.9501354166714,
      "v": 92
    },
    {
      "midi": 66,
      "hit": false,
      "t": 74042.39399999943,
      "d": 101.9501354166714,
      "v": 127
    },
    {
      "midi": 72,
      "hit": false,
      "t": 74042.39399999943,
      "d": 101.9501354166714,
      "v": 127
    },
    {
      "midi": 39,
      "hit": false,
      "t": 74042.394,
      "d": 638.2964999999967,
      "v": 110
    },
    {
      "midi": 51,
      "hit": false,
      "t": 74042.394,
      "d": 638.2964999999967,
      "v": 110
    },
    {
      "midi": 66,
      "hit": false,
      "t": 74148.77674999944,
      "d": 101.9501354166714,
      "v": 92
    },
    {
      "midi": 72,
      "hit": false,
      "t": 74148.77674999944,
      "d": 101.9501354166714,
      "v": 92
    },
    {
      "midi": 66,
      "hit": false,
      "t": 74255.15949999944,
      "d": 101.9501354166714,
      "v": 92
    },
    {
      "midi": 72,
      "hit": false,
      "t": 74255.15949999944,
      "d": 101.9501354166714,
      "v": 92
    },
    {
      "midi": 66,
      "hit": false,
      "t": 74361.54224999945,
      "d": 101.9501354166714,
      "v": 92
    },
    {
      "midi": 72,
      "hit": false,
      "t": 74361.54224999945,
      "d": 101.9501354166714,
      "v": 92
    },
    {
      "midi": 66,
      "hit": false,
      "t": 74467.92499999945,
      "d": 101.9501354166714,
      "v": 127
    },
    {
      "midi": 72,
      "hit": false,
      "t": 74467.92499999945,
      "d": 101.9501354166714,
      "v": 127
    },
    {
      "midi": 66,
      "hit": false,
      "t": 74574.30774999945,
      "d": 101.9501354166714,
      "v": 92
    },
    {
      "midi": 72,
      "hit": false,
      "t": 74574.30774999945,
      "d": 101.9501354166714,
      "v": 92
    },
    {
      "midi": 66,
      "hit": false,
      "t": 74680.69049999946,
      "d": 101.9501354166714,
      "v": 92
    },
    {
      "midi": 72,
      "hit": false,
      "t": 74680.69049999946,
      "d": 101.9501354166714,
      "v": 92
    },
    {
      "midi": 38,
      "hit": false,
      "t": 74680.6905,
      "d": 1382.9757499999978,
      "v": 110
    },
    {
      "midi": 50,
      "hit": false,
      "t": 74680.6905,
      "d": 1382.9757499999978,
      "v": 110
    },
    {
      "midi": 66,
      "hit": false,
      "t": 74787.07324999946,
      "d": 101.9501354166714,
      "v": 92
    },
    {
      "midi": 72,
      "hit": false,
      "t": 74787.07324999946,
      "d": 101.9501354166714,
      "v": 92
    },
    {
      "midi": 65,
      "hit": false,
      "t": 74893.45599999947,
      "d": 101.9501354166714,
      "v": 127
    },
    {
      "midi": 71,
      "hit": false,
      "t": 74893.45599999947,
      "d": 101.9501354166714,
      "v": 127
    },
    {
      "midi": 65,
      "hit": false,
      "t": 74999.83874999947,
      "d": 101.9501354166714,
      "v": 92
    },
    {
      "midi": 71,
      "hit": false,
      "t": 74999.83874999947,
      "d": 101.9501354166714,
      "v": 92
    },
    {
      "midi": 65,
      "hit": false,
      "t": 75106.22149999948,
      "d": 101.9501354166714,
      "v": 92
    },
    {
      "midi": 71,
      "hit": false,
      "t": 75106.22149999948,
      "d": 101.9501354166714,
      "v": 92
    },
    {
      "midi": 65,
      "hit": false,
      "t": 75212.60424999948,
      "d": 101.9501354166714,
      "v": 92
    },
    {
      "midi": 71,
      "hit": false,
      "t": 75212.60424999948,
      "d": 101.9501354166714,
      "v": 92
    },
    {
      "midi": 65,
      "hit": false,
      "t": 75318.98699999948,
      "d": 101.9501354166714,
      "v": 127
    },
    {
      "midi": 71,
      "hit": false,
      "t": 75318.98699999948,
      "d": 101.9501354166714,
      "v": 127
    },
    {
      "midi": 65,
      "hit": false,
      "t": 75425.36974999949,
      "d": 101.9501354166714,
      "v": 92
    },
    {
      "midi": 71,
      "hit": false,
      "t": 75425.36974999949,
      "d": 101.9501354166714,
      "v": 92
    },
    {
      "midi": 65,
      "hit": false,
      "t": 75531.7524999995,
      "d": 101.9501354166714,
      "v": 92
    },
    {
      "midi": 71,
      "hit": false,
      "t": 75531.7524999995,
      "d": 101.9501354166714,
      "v": 92
    },
    {
      "midi": 65,
      "hit": false,
      "t": 75638.1352499995,
      "d": 101.9501354166714,
      "v": 92
    },
    {
      "midi": 71,
      "hit": false,
      "t": 75638.1352499995,
      "d": 101.9501354166714,
      "v": 92
    },
    {
      "midi": 65,
      "hit": false,
      "t": 75744.5179999995,
      "d": 101.9501354166714,
      "v": 127
    },
    {
      "midi": 71,
      "hit": false,
      "t": 75744.5179999995,
      "d": 101.9501354166714,
      "v": 127
    },
    {
      "midi": 65,
      "hit": false,
      "t": 75850.9007499995,
      "d": 101.9501354166714,
      "v": 92
    },
    {
      "midi": 71,
      "hit": false,
      "t": 75850.9007499995,
      "d": 101.9501354166714,
      "v": 92
    },
    {
      "midi": 65,
      "hit": false,
      "t": 75957.28349999951,
      "d": 101.9501354166714,
      "v": 92
    },
    {
      "midi": 71,
      "hit": false,
      "t": 75957.28349999951,
      "d": 101.9501354166714,
      "v": 92
    },
    {
      "midi": 65,
      "hit": false,
      "t": 76063.66624999951,
      "d": 101.9501354166714,
      "v": 92
    },
    {
      "midi": 71,
      "hit": false,
      "t": 76063.66624999951,
      "d": 101.9501354166714,
      "v": 92
    },
    {
      "midi": 65,
      "hit": false,
      "t": 76170.04899999952,
      "d": 101.9501354166714,
      "v": 127
    },
    {
      "midi": 71,
      "hit": false,
      "t": 76170.04899999952,
      "d": 101.9501354166714,
      "v": 127
    },
    {
      "midi": 38,
      "hit": false,
      "t": 76170.049,
      "d": 212.76549999999406,
      "v": 110
    },
    {
      "midi": 50,
      "hit": false,
      "t": 76170.049,
      "d": 212.76549999999406,
      "v": 110
    },
    {
      "midi": 65,
      "hit": false,
      "t": 76276.43174999952,
      "d": 101.9501354166714,
      "v": 92
    },
    {
      "midi": 71,
      "hit": false,
      "t": 76276.43174999952,
      "d": 101.9501354166714,
      "v": 92
    },
    {
      "midi": 65,
      "hit": false,
      "t": 76382.81449999953,
      "d": 101.9501354166714,
      "v": 92
    },
    {
      "midi": 71,
      "hit": false,
      "t": 76382.81449999953,
      "d": 101.9501354166714,
      "v": 92
    },
    {
      "midi": 37,
      "hit": false,
      "t": 76382.8145,
      "d": 567.3746666666702,
      "v": 110
    },
    {
      "midi": 49,
      "hit": false,
      "t": 76382.8145,
      "d": 567.3746666666702,
      "v": 110
    },
    {
      "midi": 65,
      "hit": false,
      "t": 76489.19724999953,
      "d": 101.9501354166714,
      "v": 92
    },
    {
      "midi": 71,
      "hit": false,
      "t": 76489.19724999953,
      "d": 101.9501354166714,
      "v": 92
    },
    {
      "midi": 65,
      "hit": false,
      "t": 76595.57999999954,
      "d": 101.9501354166714,
      "v": 127
    },
    {
      "midi": 71,
      "hit": false,
      "t": 76595.57999999954,
      "d": 101.9501354166714,
      "v": 127
    },
    {
      "midi": 65,
      "hit": false,
      "t": 76701.96274999954,
      "d": 101.9501354166714,
      "v": 92
    },
    {
      "midi": 71,
      "hit": false,
      "t": 76701.96274999954,
      "d": 101.9501354166714,
      "v": 92
    },
    {
      "midi": 65,
      "hit": false,
      "t": 76808.34549999954,
      "d": 101.9501354166714,
      "v": 92
    },
    {
      "midi": 71,
      "hit": false,
      "t": 76808.34549999954,
      "d": 101.9501354166714,
      "v": 92
    },
    {
      "midi": 65,
      "hit": false,
      "t": 76914.72824999955,
      "d": 101.9501354166714,
      "v": 92
    },
    {
      "midi": 71,
      "hit": false,
      "t": 76914.72824999955,
      "d": 101.9501354166714,
      "v": 92
    },
    {
      "midi": 65,
      "hit": false,
      "t": 77021.11099999955,
      "d": 101.9501354166714,
      "v": 127
    },
    {
      "midi": 71,
      "hit": false,
      "t": 77021.11099999955,
      "d": 101.9501354166714,
      "v": 127
    },
    {
      "midi": 41,
      "hit": false,
      "t": 77021.11099999999,
      "d": 212.76549999999406,
      "v": 110
    },
    {
      "midi": 53,
      "hit": false,
      "t": 77021.11099999999,
      "d": 212.76549999999406,
      "v": 110
    },
    {
      "midi": 65,
      "hit": false,
      "t": 77127.49374999956,
      "d": 101.9501354166714,
      "v": 92
    },
    {
      "midi": 71,
      "hit": false,
      "t": 77127.49374999956,
      "d": 101.9501354166714,
      "v": 92
    },
    {
      "midi": 65,
      "hit": false,
      "t": 77233.87649999956,
      "d": 101.9501354166714,
      "v": 92
    },
    {
      "midi": 71,
      "hit": false,
      "t": 77233.87649999956,
      "d": 101.9501354166714,
      "v": 92
    },
    {
      "midi": 40,
      "hit": false,
      "t": 77233.87649999998,
      "d": 567.3746666666702,
      "v": 110
    },
    {
      "midi": 52,
      "hit": false,
      "t": 77233.87649999998,
      "d": 567.3746666666702,
      "v": 110
    },
    {
      "midi": 65,
      "hit": false,
      "t": 77340.25924999957,
      "d": 101.9501354166714,
      "v": 92
    },
    {
      "midi": 71,
      "hit": false,
      "t": 77340.25924999957,
      "d": 101.9501354166714,
      "v": 92
    },
    {
      "midi": 65,
      "hit": false,
      "t": 77446.64199999957,
      "d": 101.9501354166714,
      "v": 127
    },
    {
      "midi": 71,
      "hit": false,
      "t": 77446.64199999957,
      "d": 101.9501354166714,
      "v": 127
    },
    {
      "midi": 65,
      "hit": false,
      "t": 77553.02474999957,
      "d": 101.9501354166714,
      "v": 92
    },
    {
      "midi": 71,
      "hit": false,
      "t": 77553.02474999957,
      "d": 101.9501354166714,
      "v": 92
    },
    {
      "midi": 65,
      "hit": false,
      "t": 77659.40749999958,
      "d": 101.9501354166714,
      "v": 92
    },
    {
      "midi": 71,
      "hit": false,
      "t": 77659.40749999958,
      "d": 101.9501354166714,
      "v": 92
    },
    {
      "midi": 65,
      "hit": false,
      "t": 77765.79024999958,
      "d": 101.9501354166714,
      "v": 92
    },
    {
      "midi": 71,
      "hit": false,
      "t": 77765.79024999958,
      "d": 101.9501354166714,
      "v": 92
    },
    {
      "midi": 65,
      "hit": false,
      "t": 77872.17299999959,
      "d": 101.9501354166714,
      "v": 127
    },
    {
      "midi": 71,
      "hit": false,
      "t": 77872.17299999959,
      "d": 101.9501354166714,
      "v": 127
    },
    {
      "midi": 44,
      "hit": false,
      "t": 77872.17299999998,
      "d": 212.76549999999406,
      "v": 110
    },
    {
      "midi": 56,
      "hit": false,
      "t": 77872.17299999998,
      "d": 212.76549999999406,
      "v": 110
    },
    {
      "midi": 65,
      "hit": false,
      "t": 77978.55574999959,
      "d": 101.9501354166714,
      "v": 92
    },
    {
      "midi": 71,
      "hit": false,
      "t": 77978.55574999959,
      "d": 101.9501354166714,
      "v": 92
    },
    {
      "midi": 65,
      "hit": false,
      "t": 78084.9384999996,
      "d": 101.9501354166714,
      "v": 92
    },
    {
      "midi": 71,
      "hit": false,
      "t": 78084.9384999996,
      "d": 101.9501354166714,
      "v": 92
    },
    {
      "midi": 43,
      "hit": false,
      "t": 78084.93849999997,
      "d": 567.3746666666702,
      "v": 110
    },
    {
      "midi": 55,
      "hit": false,
      "t": 78084.93849999997,
      "d": 567.3746666666702,
      "v": 110
    },
    {
      "midi": 65,
      "hit": false,
      "t": 78191.3212499996,
      "d": 101.9501354166714,
      "v": 92
    },
    {
      "midi": 71,
      "hit": false,
      "t": 78191.3212499996,
      "d": 101.9501354166714,
      "v": 92
    },
    {
      "midi": 65,
      "hit": false,
      "t": 78297.7039999996,
      "d": 101.9501354166714,
      "v": 127
    },
    {
      "midi": 71,
      "hit": false,
      "t": 78297.7039999996,
      "d": 101.9501354166714,
      "v": 127
    },
    {
      "midi": 65,
      "hit": false,
      "t": 78404.08674999961,
      "d": 101.9501354166714,
      "v": 92
    },
    {
      "midi": 71,
      "hit": false,
      "t": 78404.08674999961,
      "d": 101.9501354166714,
      "v": 92
    },
    {
      "midi": 65,
      "hit": false,
      "t": 78510.46949999961,
      "d": 101.9501354166714,
      "v": 92
    },
    {
      "midi": 71,
      "hit": false,
      "t": 78510.46949999961,
      "d": 101.9501354166714,
      "v": 92
    },
    {
      "midi": 65,
      "hit": false,
      "t": 78616.85224999962,
      "d": 101.9501354166714,
      "v": 92
    },
    {
      "midi": 71,
      "hit": false,
      "t": 78616.85224999962,
      "d": 101.9501354166714,
      "v": 92
    },
    {
      "midi": 65,
      "hit": false,
      "t": 78723.23499999962,
      "d": 101.9501354166714,
      "v": 127
    },
    {
      "midi": 71,
      "hit": false,
      "t": 78723.23499999962,
      "d": 101.9501354166714,
      "v": 127
    },
    {
      "midi": 50,
      "hit": false,
      "t": 78723.23499999997,
      "d": 212.76549999999406,
      "v": 110
    },
    {
      "midi": 62,
      "hit": false,
      "t": 78723.23499999997,
      "d": 212.76549999999406,
      "v": 110
    },
    {
      "midi": 65,
      "hit": false,
      "t": 78829.61774999963,
      "d": 101.9501354166714,
      "v": 92
    },
    {
      "midi": 71,
      "hit": false,
      "t": 78829.61774999963,
      "d": 101.9501354166714,
      "v": 92
    },
    {
      "midi": 65,
      "hit": false,
      "t": 78936.00049999963,
      "d": 101.9501354166714,
      "v": 92
    },
    {
      "midi": 71,
      "hit": false,
      "t": 78936.00049999963,
      "d": 101.9501354166714,
      "v": 92
    },
    {
      "midi": 49,
      "hit": false,
      "t": 78936.00049999997,
      "d": 567.3746666666702,
      "v": 110
    },
    {
      "midi": 61,
      "hit": false,
      "t": 78936.00049999997,
      "d": 567.3746666666702,
      "v": 110
    },
    {
      "midi": 65,
      "hit": false,
      "t": 79042.38324999964,
      "d": 101.9501354166714,
      "v": 92
    },
    {
      "midi": 71,
      "hit": false,
      "t": 79042.38324999964,
      "d": 101.9501354166714,
      "v": 92
    },
    {
      "midi": 65,
      "hit": false,
      "t": 79148.76599999964,
      "d": 101.9501354166714,
      "v": 127
    },
    {
      "midi": 71,
      "hit": false,
      "t": 79148.76599999964,
      "d": 101.9501354166714,
      "v": 127
    },
    {
      "midi": 65,
      "hit": false,
      "t": 79255.14874999964,
      "d": 101.9501354166714,
      "v": 92
    },
    {
      "midi": 71,
      "hit": false,
      "t": 79255.14874999964,
      "d": 101.9501354166714,
      "v": 92
    },
    {
      "midi": 65,
      "hit": false,
      "t": 79361.53149999965,
      "d": 101.9501354166714,
      "v": 92
    },
    {
      "midi": 71,
      "hit": false,
      "t": 79361.53149999965,
      "d": 101.9501354166714,
      "v": 92
    },
    {
      "midi": 65,
      "hit": false,
      "t": 79467.91424999965,
      "d": 101.9501354166714,
      "v": 92
    },
    {
      "midi": 71,
      "hit": false,
      "t": 79467.91424999965,
      "d": 101.9501354166714,
      "v": 92
    },
    {
      "midi": 65,
      "hit": false,
      "t": 79574.29699999966,
      "d": 101.9501354166714,
      "v": 127
    },
    {
      "midi": 71,
      "hit": false,
      "t": 79574.29699999966,
      "d": 101.9501354166714,
      "v": 127
    },
    {
      "midi": 53,
      "hit": false,
      "t": 79574.29699999996,
      "d": 212.76549999999406,
      "v": 110
    },
    {
      "midi": 65,
      "hit": false,
      "t": 79574.29699999996,
      "d": 212.76549999999406,
      "v": 110
    },
    {
      "midi": 65,
      "hit": false,
      "t": 79680.67974999966,
      "d": 101.9501354166714,
      "v": 92
    },
    {
      "midi": 71,
      "hit": false,
      "t": 79680.67974999966,
      "d": 101.9501354166714,
      "v": 92
    },
    {
      "midi": 65,
      "hit": false,
      "t": 79787.06249999967,
      "d": 101.9501354166714,
      "v": 92
    },
    {
      "midi": 71,
      "hit": false,
      "t": 79787.06249999967,
      "d": 101.9501354166714,
      "v": 92
    },
    {
      "midi": 52,
      "hit": false,
      "t": 79787.06249999996,
      "d": 1808.5067500000005,
      "v": 110
    },
    {
      "midi": 64,
      "hit": false,
      "t": 79787.06249999996,
      "d": 1808.5067500000005,
      "v": 110
    },
    {
      "midi": 65,
      "hit": false,
      "t": 79893.44524999967,
      "d": 101.9501354166714,
      "v": 92
    },
    {
      "midi": 71,
      "hit": false,
      "t": 79893.44524999967,
      "d": 101.9501354166714,
      "v": 92
    },
    {
      "midi": 65,
      "hit": false,
      "t": 79999.82799999967,
      "d": 101.9501354166714,
      "v": 127
    },
    {
      "midi": 71,
      "hit": false,
      "t": 79999.82799999967,
      "d": 101.9501354166714,
      "v": 127
    },
    {
      "midi": 65,
      "hit": false,
      "t": 80106.21074999968,
      "d": 101.9501354166714,
      "v": 92
    },
    {
      "midi": 71,
      "hit": false,
      "t": 80106.21074999968,
      "d": 101.9501354166714,
      "v": 92
    },
    {
      "midi": 65,
      "hit": false,
      "t": 80212.59349999968,
      "d": 101.9501354166714,
      "v": 92
    },
    {
      "midi": 71,
      "hit": false,
      "t": 80212.59349999968,
      "d": 101.9501354166714,
      "v": 92
    },
    {
      "midi": 65,
      "hit": false,
      "t": 80318.97624999969,
      "d": 101.9501354166714,
      "v": 92
    },
    {
      "midi": 71,
      "hit": false,
      "t": 80318.97624999969,
      "d": 101.9501354166714,
      "v": 92
    },
    {
      "midi": 65,
      "hit": false,
      "t": 80425.35899999969,
      "d": 101.9501354166714,
      "v": 127
    },
    {
      "midi": 71,
      "hit": false,
      "t": 80425.35899999969,
      "d": 101.9501354166714,
      "v": 127
    },
    {
      "midi": 65,
      "hit": false,
      "t": 80531.7417499997,
      "d": 101.9501354166714,
      "v": 92
    },
    {
      "midi": 71,
      "hit": false,
      "t": 80531.7417499997,
      "d": 101.9501354166714,
      "v": 92
    },
    {
      "midi": 65,
      "hit": false,
      "t": 80638.1244999997,
      "d": 101.9501354166714,
      "v": 92
    },
    {
      "midi": 71,
      "hit": false,
      "t": 80638.1244999997,
      "d": 101.9501354166714,
      "v": 92
    },
    {
      "midi": 65,
      "hit": false,
      "t": 80744.5072499997,
      "d": 101.9501354166714,
      "v": 92
    },
    {
      "midi": 71,
      "hit": false,
      "t": 80744.5072499997,
      "d": 101.9501354166714,
      "v": 92
    },
    {
      "midi": 65,
      "hit": false,
      "t": 80850.88999999971,
      "d": 101.9501354166714,
      "v": 127
    },
    {
      "midi": 71,
      "hit": false,
      "t": 80850.88999999971,
      "d": 101.9501354166714,
      "v": 127
    },
    {
      "midi": 65,
      "hit": false,
      "t": 80957.27274999971,
      "d": 101.9501354166714,
      "v": 92
    },
    {
      "midi": 71,
      "hit": false,
      "t": 80957.27274999971,
      "d": 101.9501354166714,
      "v": 92
    },
    {
      "midi": 65,
      "hit": false,
      "t": 81063.65549999972,
      "d": 101.9501354166714,
      "v": 92
    },
    {
      "midi": 71,
      "hit": false,
      "t": 81063.65549999972,
      "d": 101.9501354166714,
      "v": 92
    },
    {
      "midi": 65,
      "hit": false,
      "t": 81170.03824999972,
      "d": 101.9501354166714,
      "v": 92
    },
    {
      "midi": 71,
      "hit": false,
      "t": 81170.03824999972,
      "d": 101.9501354166714,
      "v": 92
    },
    {
      "midi": 65,
      "hit": false,
      "t": 81276.42099999973,
      "d": 101.9501354166714,
      "v": 127
    },
    {
      "midi": 71,
      "hit": false,
      "t": 81276.42099999973,
      "d": 101.9501354166714,
      "v": 127
    },
    {
      "midi": 65,
      "hit": false,
      "t": 81382.80374999973,
      "d": 101.9501354166714,
      "v": 92
    },
    {
      "midi": 71,
      "hit": false,
      "t": 81382.80374999973,
      "d": 101.9501354166714,
      "v": 92
    },
    {
      "midi": 65,
      "hit": false,
      "t": 81489.18649999973,
      "d": 101.9501354166714,
      "v": 92
    },
    {
      "midi": 71,
      "hit": false,
      "t": 81489.18649999973,
      "d": 101.9501354166714,
      "v": 92
    },
    {
      "midi": 65,
      "hit": false,
      "t": 81595.56924999974,
      "d": 101.9501354166714,
      "v": 92
    },
    {
      "midi": 71,
      "hit": false,
      "t": 81595.56924999974,
      "d": 101.9501354166714,
      "v": 92
    },
    {
      "midi": 64,
      "hit": false,
      "t": 81701.95199999974,
      "d": 101.9501354166714,
      "v": 127
    },
    {
      "midi": 70,
      "hit": false,
      "t": 81701.95199999974,
      "d": 101.9501354166714,
      "v": 127
    },
    {
      "midi": 64,
      "hit": false,
      "t": 81808.33474999975,
      "d": 101.9501354166714,
      "v": 92
    },
    {
      "midi": 70,
      "hit": false,
      "t": 81808.33474999975,
      "d": 101.9501354166714,
      "v": 92
    },
    {
      "midi": 64,
      "hit": false,
      "t": 81914.71749999975,
      "d": 101.9501354166714,
      "v": 92
    },
    {
      "midi": 70,
      "hit": false,
      "t": 81914.71749999975,
      "d": 101.9501354166714,
      "v": 92
    },
    {
      "midi": 64,
      "hit": false,
      "t": 82021.10024999976,
      "d": 101.9501354166714,
      "v": 92
    },
    {
      "midi": 70,
      "hit": false,
      "t": 82021.10024999976,
      "d": 101.9501354166714,
      "v": 92
    },
    {
      "midi": 64,
      "hit": false,
      "t": 82127.48299999976,
      "d": 101.9501354166714,
      "v": 127
    },
    {
      "midi": 70,
      "hit": false,
      "t": 82127.48299999976,
      "d": 101.9501354166714,
      "v": 127
    },
    {
      "midi": 64,
      "hit": false,
      "t": 82233.86574999976,
      "d": 101.9501354166714,
      "v": 92
    },
    {
      "midi": 70,
      "hit": false,
      "t": 82233.86574999976,
      "d": 101.9501354166714,
      "v": 92
    },
    {
      "midi": 64,
      "hit": false,
      "t": 82340.24849999977,
      "d": 101.9501354166714,
      "v": 92
    },
    {
      "midi": 70,
      "hit": false,
      "t": 82340.24849999977,
      "d": 101.9501354166714,
      "v": 92
    },
    {
      "midi": 64,
      "hit": false,
      "t": 82446.63124999977,
      "d": 101.9501354166714,
      "v": 92
    },
    {
      "midi": 70,
      "hit": false,
      "t": 82446.63124999977,
      "d": 101.9501354166714,
      "v": 92
    },
    {
      "midi": 64,
      "hit": false,
      "t": 82553.01399999978,
      "d": 101.9501354166714,
      "v": 127
    },
    {
      "midi": 70,
      "hit": false,
      "t": 82553.01399999978,
      "d": 101.9501354166714,
      "v": 127
    },
    {
      "midi": 37,
      "hit": false,
      "t": 82553.01399999995,
      "d": 212.76549999999406,
      "v": 110
    },
    {
      "midi": 49,
      "hit": false,
      "t": 82553.01399999995,
      "d": 212.76549999999406,
      "v": 110
    },
    {
      "midi": 64,
      "hit": false,
      "t": 82659.39674999978,
      "d": 101.9501354166714,
      "v": 92
    },
    {
      "midi": 70,
      "hit": false,
      "t": 82659.39674999978,
      "d": 101.9501354166714,
      "v": 92
    },
    {
      "midi": 64,
      "hit": false,
      "t": 82765.77949999979,
      "d": 101.9501354166714,
      "v": 92
    },
    {
      "midi": 70,
      "hit": false,
      "t": 82765.77949999979,
      "d": 101.9501354166714,
      "v": 92
    },
    {
      "midi": 36,
      "hit": false,
      "t": 82765.77949999995,
      "d": 638.2964999999967,
      "v": 110
    },
    {
      "midi": 48,
      "hit": false,
      "t": 82765.77949999995,
      "d": 638.2964999999967,
      "v": 110
    },
    {
      "midi": 64,
      "hit": false,
      "t": 82872.16224999979,
      "d": 101.9501354166714,
      "v": 92
    },
    {
      "midi": 70,
      "hit": false,
      "t": 82872.16224999979,
      "d": 101.9501354166714,
      "v": 92
    },
    {
      "midi": 64,
      "hit": false,
      "t": 82978.5449999998,
      "d": 101.9501354166714,
      "v": 127
    },
    {
      "midi": 70,
      "hit": false,
      "t": 82978.5449999998,
      "d": 101.9501354166714,
      "v": 127
    },
    {
      "midi": 64,
      "hit": false,
      "t": 83084.9277499998,
      "d": 101.9501354166714,
      "v": 92
    },
    {
      "midi": 70,
      "hit": false,
      "t": 83084.9277499998,
      "d": 101.9501354166714,
      "v": 92
    },
    {
      "midi": 64,
      "hit": false,
      "t": 83191.3104999998,
      "d": 101.9501354166714,
      "v": 92
    },
    {
      "midi": 70,
      "hit": false,
      "t": 83191.3104999998,
      "d": 101.9501354166714,
      "v": 92
    },
    {
      "midi": 64,
      "hit": false,
      "t": 83297.69324999981,
      "d": 101.9501354166714,
      "v": 92
    },
    {
      "midi": 70,
      "hit": false,
      "t": 83297.69324999981,
      "d": 101.9501354166714,
      "v": 92
    },
    {
      "midi": 64,
      "hit": false,
      "t": 83404.07599999981,
      "d": 101.9501354166714,
      "v": 127
    },
    {
      "midi": 70,
      "hit": false,
      "t": 83404.07599999981,
      "d": 101.9501354166714,
      "v": 127
    },
    {
      "midi": 40,
      "hit": false,
      "t": 83404.07599999994,
      "d": 212.76549999999406,
      "v": 110
    },
    {
      "midi": 52,
      "hit": false,
      "t": 83404.07599999994,
      "d": 212.76549999999406,
      "v": 110
    },
    {
      "midi": 64,
      "hit": false,
      "t": 83510.45874999982,
      "d": 101.9501354166714,
      "v": 92
    },
    {
      "midi": 70,
      "hit": false,
      "t": 83510.45874999982,
      "d": 101.9501354166714,
      "v": 92
    },
    {
      "midi": 64,
      "hit": false,
      "t": 83616.84149999982,
      "d": 101.9501354166714,
      "v": 92
    },
    {
      "midi": 70,
      "hit": false,
      "t": 83616.84149999982,
      "d": 101.9501354166714,
      "v": 92
    },
    {
      "midi": 39,
      "hit": false,
      "t": 83616.84149999994,
      "d": 567.3746666666702,
      "v": 110
    },
    {
      "midi": 51,
      "hit": false,
      "t": 83616.84149999994,
      "d": 567.3746666666702,
      "v": 110
    },
    {
      "midi": 64,
      "hit": false,
      "t": 83723.22424999982,
      "d": 101.9501354166714,
      "v": 92
    },
    {
      "midi": 70,
      "hit": false,
      "t": 83723.22424999982,
      "d": 101.9501354166714,
      "v": 92
    },
    {
      "midi": 64,
      "hit": false,
      "t": 83829.60699999983,
      "d": 101.9501354166714,
      "v": 127
    },
    {
      "midi": 70,
      "hit": false,
      "t": 83829.60699999983,
      "d": 101.9501354166714,
      "v": 127
    },
    {
      "midi": 64,
      "hit": false,
      "t": 83935.98974999983,
      "d": 101.9501354166714,
      "v": 92
    },
    {
      "midi": 70,
      "hit": false,
      "t": 83935.98974999983,
      "d": 101.9501354166714,
      "v": 92
    },
    {
      "midi": 64,
      "hit": false,
      "t": 84042.37249999984,
      "d": 101.9501354166714,
      "v": 92
    },
    {
      "midi": 70,
      "hit": false,
      "t": 84042.37249999984,
      "d": 101.9501354166714,
      "v": 92
    },
    {
      "midi": 64,
      "hit": false,
      "t": 84148.75524999984,
      "d": 101.9501354166714,
      "v": 92
    },
    {
      "midi": 70,
      "hit": false,
      "t": 84148.75524999984,
      "d": 101.9501354166714,
      "v": 92
    },
    {
      "midi": 64,
      "hit": false,
      "t": 84255.13799999985,
      "d": 101.9501354166714,
      "v": 127
    },
    {
      "midi": 70,
      "hit": false,
      "t": 84255.13799999985,
      "d": 101.9501354166714,
      "v": 127
    },
    {
      "midi": 43,
      "hit": false,
      "t": 84255.13799999993,
      "d": 212.76549999999406,
      "v": 110
    },
    {
      "midi": 55,
      "hit": false,
      "t": 84255.13799999993,
      "d": 212.76549999999406,
      "v": 110
    },
    {
      "midi": 64,
      "hit": false,
      "t": 84361.52074999985,
      "d": 101.9501354166714,
      "v": 92
    },
    {
      "midi": 70,
      "hit": false,
      "t": 84361.52074999985,
      "d": 101.9501354166714,
      "v": 92
    },
    {
      "midi": 64,
      "hit": false,
      "t": 84467.90349999985,
      "d": 101.9501354166714,
      "v": 92
    },
    {
      "midi": 70,
      "hit": false,
      "t": 84467.90349999985,
      "d": 101.9501354166714,
      "v": 92
    },
    {
      "midi": 42,
      "hit": false,
      "t": 84467.90349999993,
      "d": 638.2964999999967,
      "v": 110
    },
    {
      "midi": 54,
      "hit": false,
      "t": 84467.90349999993,
      "d": 638.2964999999967,
      "v": 110
    },
    {
      "midi": 64,
      "hit": false,
      "t": 84574.28624999986,
      "d": 101.9501354166714,
      "v": 92
    },
    {
      "midi": 70,
      "hit": false,
      "t": 84574.28624999986,
      "d": 101.9501354166714,
      "v": 92
    },
    {
      "midi": 64,
      "hit": false,
      "t": 84680.66899999986,
      "d": 101.9501354166714,
      "v": 127
    },
    {
      "midi": 70,
      "hit": false,
      "t": 84680.66899999986,
      "d": 101.9501354166714,
      "v": 127
    },
    {
      "midi": 64,
      "hit": false,
      "t": 84787.05174999987,
      "d": 101.9501354166714,
      "v": 92
    },
    {
      "midi": 70,
      "hit": false,
      "t": 84787.05174999987,
      "d": 101.9501354166714,
      "v": 92
    },
    {
      "midi": 64,
      "hit": false,
      "t": 84893.43449999987,
      "d": 101.9501354166714,
      "v": 92
    },
    {
      "midi": 70,
      "hit": false,
      "t": 84893.43449999987,
      "d": 101.9501354166714,
      "v": 92
    },
    {
      "midi": 64,
      "hit": false,
      "t": 84999.81724999988,
      "d": 101.9501354166714,
      "v": 92
    },
    {
      "midi": 70,
      "hit": false,
      "t": 84999.81724999988,
      "d": 101.9501354166714,
      "v": 92
    },
    {
      "midi": 64,
      "hit": false,
      "t": 85106.19999999988,
      "d": 101.9501354166714,
      "v": 127
    },
    {
      "midi": 70,
      "hit": false,
      "t": 85106.19999999988,
      "d": 101.9501354166714,
      "v": 127
    },
    {
      "midi": 49,
      "hit": false,
      "t": 85106.19999999992,
      "d": 212.76549999999406,
      "v": 110
    },
    {
      "midi": 61,
      "hit": false,
      "t": 85106.19999999992,
      "d": 212.76549999999406,
      "v": 110
    },
    {
      "midi": 64,
      "hit": false,
      "t": 85212.58274999988,
      "d": 101.9501354166714,
      "v": 92
    },
    {
      "midi": 70,
      "hit": false,
      "t": 85212.58274999988,
      "d": 101.9501354166714,
      "v": 92
    },
    {
      "midi": 64,
      "hit": false,
      "t": 85318.96549999989,
      "d": 101.9501354166714,
      "v": 92
    },
    {
      "midi": 70,
      "hit": false,
      "t": 85318.96549999989,
      "d": 101.9501354166714,
      "v": 92
    },
    {
      "midi": 48,
      "hit": false,
      "t": 85318.96549999992,
      "d": 567.3746666666702,
      "v": 110
    },
    {
      "midi": 60,
      "hit": false,
      "t": 85318.96549999992,
      "d": 567.3746666666702,
      "v": 110
    },
    {
      "midi": 64,
      "hit": false,
      "t": 85425.3482499999,
      "d": 101.9501354166714,
      "v": 92
    },
    {
      "midi": 70,
      "hit": false,
      "t": 85425.3482499999,
      "d": 101.9501354166714,
      "v": 92
    },
    {
      "midi": 64,
      "hit": false,
      "t": 85531.7309999999,
      "d": 101.9501354166714,
      "v": 127
    },
    {
      "midi": 70,
      "hit": false,
      "t": 85531.7309999999,
      "d": 101.9501354166714,
      "v": 127
    },
    {
      "midi": 64,
      "hit": false,
      "t": 85638.1137499999,
      "d": 101.9501354166714,
      "v": 92
    },
    {
      "midi": 70,
      "hit": false,
      "t": 85638.1137499999,
      "d": 101.9501354166714,
      "v": 92
    },
    {
      "midi": 64,
      "hit": false,
      "t": 85744.4964999999,
      "d": 101.9501354166714,
      "v": 92
    },
    {
      "midi": 70,
      "hit": false,
      "t": 85744.4964999999,
      "d": 101.9501354166714,
      "v": 92
    },
    {
      "midi": 64,
      "hit": false,
      "t": 85850.87924999991,
      "d": 101.9501354166714,
      "v": 92
    },
    {
      "midi": 70,
      "hit": false,
      "t": 85850.87924999991,
      "d": 101.9501354166714,
      "v": 92
    },
    {
      "midi": 64,
      "hit": false,
      "t": 85957.26199999992,
      "d": 101.9501354166714,
      "v": 127
    },
    {
      "midi": 70,
      "hit": false,
      "t": 85957.26199999992,
      "d": 101.9501354166714,
      "v": 127
    },
    {
      "midi": 52,
      "hit": false,
      "t": 85957.26199999992,
      "d": 212.76549999999406,
      "v": 110
    },
    {
      "midi": 64,
      "hit": false,
      "t": 85957.26199999992,
      "d": 212.76549999999406,
      "v": 110
    },
    {
      "midi": 64,
      "hit": false,
      "t": 86063.64474999992,
      "d": 101.9501354166714,
      "v": 92
    },
    {
      "midi": 70,
      "hit": false,
      "t": 86063.64474999992,
      "d": 101.9501354166714,
      "v": 92
    },
    {
      "midi": 51,
      "hit": false,
      "t": 86170.02749999991,
      "d": 2234.037750000003,
      "v": 110
    },
    {
      "midi": 63,
      "hit": false,
      "t": 86170.02749999991,
      "d": 2234.037750000003,
      "v": 110
    },
    {
      "midi": 64,
      "hit": false,
      "t": 86170.02749999992,
      "d": 101.9501354166714,
      "v": 92
    },
    {
      "midi": 70,
      "hit": false,
      "t": 86170.02749999992,
      "d": 101.9501354166714,
      "v": 92
    },
    {
      "midi": 64,
      "hit": false,
      "t": 86276.41024999993,
      "d": 101.9501354166714,
      "v": 92
    },
    {
      "midi": 70,
      "hit": false,
      "t": 86276.41024999993,
      "d": 101.9501354166714,
      "v": 92
    },
    {
      "midi": 64,
      "hit": false,
      "t": 86382.79299999993,
      "d": 101.9501354166714,
      "v": 127
    },
    {
      "midi": 70,
      "hit": false,
      "t": 86382.79299999993,
      "d": 101.9501354166714,
      "v": 127
    },
    {
      "midi": 64,
      "hit": false,
      "t": 86489.17574999994,
      "d": 101.9501354166714,
      "v": 92
    },
    {
      "midi": 70,
      "hit": false,
      "t": 86489.17574999994,
      "d": 101.9501354166714,
      "v": 92
    },
    {
      "midi": 64,
      "hit": false,
      "t": 86595.55849999994,
      "d": 101.9501354166714,
      "v": 92
    },
    {
      "midi": 70,
      "hit": false,
      "t": 86595.55849999994,
      "d": 101.9501354166714,
      "v": 92
    },
    {
      "midi": 64,
      "hit": false,
      "t": 86701.94124999995,
      "d": 101.9501354166714,
      "v": 92
    },
    {
      "midi": 70,
      "hit": false,
      "t": 86701.94124999995,
      "d": 101.9501354166714,
      "v": 92
    },
    {
      "midi": 64,
      "hit": false,
      "t": 86808.32399999995,
      "d": 101.9501354166714,
      "v": 127
    },
    {
      "midi": 70,
      "hit": false,
      "t": 86808.32399999995,
      "d": 101.9501354166714,
      "v": 127
    },
    {
      "midi": 64,
      "hit": false,
      "t": 86914.70674999995,
      "d": 101.9501354166714,
      "v": 92
    },
    {
      "midi": 70,
      "hit": false,
      "t": 86914.70674999995,
      "d": 101.9501354166714,
      "v": 92
    },
    {
      "midi": 64,
      "hit": false,
      "t": 87021.08949999996,
      "d": 101.9501354166714,
      "v": 92
    },
    {
      "midi": 70,
      "hit": false,
      "t": 87021.08949999996,
      "d": 101.9501354166714,
      "v": 92
    },
    {
      "midi": 64,
      "hit": false,
      "t": 87127.47224999996,
      "d": 101.9501354166714,
      "v": 92
    },
    {
      "midi": 70,
      "hit": false,
      "t": 87127.47224999996,
      "d": 101.9501354166714,
      "v": 92
    },
    {
      "midi": 64,
      "hit": false,
      "t": 87233.85499999997,
      "d": 101.9501354166714,
      "v": 127
    },
    {
      "midi": 70,
      "hit": false,
      "t": 87233.85499999997,
      "d": 101.9501354166714,
      "v": 127
    },
    {
      "midi": 64,
      "hit": false,
      "t": 87340.23774999997,
      "d": 101.9501354166714,
      "v": 92
    },
    {
      "midi": 70,
      "hit": false,
      "t": 87340.23774999997,
      "d": 101.9501354166714,
      "v": 92
    },
    {
      "midi": 64,
      "hit": false,
      "t": 87446.62049999998,
      "d": 101.9501354166714,
      "v": 92
    },
    {
      "midi": 70,
      "hit": false,
      "t": 87446.62049999998,
      "d": 101.9501354166714,
      "v": 92
    },
    {
      "midi": 64,
      "hit": false,
      "t": 87553.00324999998,
      "d": 101.9501354166714,
      "v": 92
    },
    {
      "midi": 70,
      "hit": false,
      "t": 87553.00324999998,
      "d": 101.9501354166714,
      "v": 92
    },
    {
      "midi": 64,
      "hit": false,
      "t": 87659.38599999998,
      "d": 101.9501354166714,
      "v": 127
    },
    {
      "midi": 70,
      "hit": false,
      "t": 87659.38599999998,
      "d": 101.9501354166714,
      "v": 127
    },
    {
      "midi": 64,
      "hit": false,
      "t": 87765.76874999999,
      "d": 101.9501354166714,
      "v": 92
    },
    {
      "midi": 70,
      "hit": false,
      "t": 87765.76874999999,
      "d": 101.9501354166714,
      "v": 92
    },
    {
      "midi": 64,
      "hit": false,
      "t": 87872.15149999999,
      "d": 101.9501354166714,
      "v": 92
    },
    {
      "midi": 70,
      "hit": false,
      "t": 87872.15149999999,
      "d": 101.9501354166714,
      "v": 92
    },
    {
      "midi": 64,
      "hit": false,
      "t": 87978.53425,
      "d": 101.9501354166714,
      "v": 92
    },
    {
      "midi": 70,
      "hit": false,
      "t": 87978.53425,
      "d": 101.9501354166714,
      "v": 92
    },
    {
      "midi": 64,
      "hit": false,
      "t": 88084.917,
      "d": 101.9501354166714,
      "v": 127
    },
    {
      "midi": 70,
      "hit": false,
      "t": 88084.917,
      "d": 101.9501354166714,
      "v": 127
    },
    {
      "midi": 64,
      "hit": false,
      "t": 88191.29975,
      "d": 101.9501354166714,
      "v": 92
    },
    {
      "midi": 70,
      "hit": false,
      "t": 88191.29975,
      "d": 101.9501354166714,
      "v": 92
    },
    {
      "midi": 64,
      "hit": false,
      "t": 88297.68250000001,
      "d": 101.9501354166714,
      "v": 92
    },
    {
      "midi": 70,
      "hit": false,
      "t": 88297.68250000001,
      "d": 101.9501354166714,
      "v": 92
    },
    {
      "midi": 64,
      "hit": false,
      "t": 88404.06525000001,
      "d": 101.9501354166714,
      "v": 92
    },
    {
      "midi": 70,
      "hit": false,
      "t": 88404.06525000001,
      "d": 101.9501354166714,
      "v": 92
    },
    {
      "midi": 52,
      "hit": false,
      "t": 88510.44799999992,
      "d": 1595.7412500000064,
      "v": 110
    },
    {
      "midi": 59,
      "hit": false,
      "t": 88510.44799999992,
      "d": 1595.7412500000064,
      "v": 110
    },
    {
      "midi": 64,
      "hit": false,
      "t": 88510.44799999992,
      "d": 1595.7412500000064,
      "v": 110
    },
    {
      "midi": 65,
      "hit": false,
      "t": 88510.44800000002,
      "d": 101.9501354166714,
      "v": 127
    },
    {
      "midi": 71,
      "hit": false,
      "t": 88510.44800000002,
      "d": 101.9501354166714,
      "v": 127
    },
    {
      "midi": 65,
      "hit": false,
      "t": 88616.83075000002,
      "d": 101.9501354166714,
      "v": 92
    },
    {
      "midi": 71,
      "hit": false,
      "t": 88616.83075000002,
      "d": 101.9501354166714,
      "v": 92
    },
    {
      "midi": 65,
      "hit": false,
      "t": 88723.21350000003,
      "d": 101.9501354166714,
      "v": 92
    },
    {
      "midi": 71,
      "hit": false,
      "t": 88723.21350000003,
      "d": 101.9501354166714,
      "v": 92
    },
    {
      "midi": 65,
      "hit": false,
      "t": 88829.59625000003,
      "d": 101.9501354166714,
      "v": 92
    },
    {
      "midi": 71,
      "hit": false,
      "t": 88829.59625000003,
      "d": 101.9501354166714,
      "v": 92
    },
    {
      "midi": 65,
      "hit": false,
      "t": 88935.97900000004,
      "d": 101.9501354166714,
      "v": 127
    },
    {
      "midi": 71,
      "hit": false,
      "t": 88935.97900000004,
      "d": 101.9501354166714,
      "v": 127
    },
    {
      "midi": 65,
      "hit": false,
      "t": 89042.36175000004,
      "d": 101.9501354166714,
      "v": 92
    },
    {
      "midi": 71,
      "hit": false,
      "t": 89042.36175000004,
      "d": 101.9501354166714,
      "v": 92
    },
    {
      "midi": 65,
      "hit": false,
      "t": 89148.74450000004,
      "d": 101.9501354166714,
      "v": 92
    },
    {
      "midi": 71,
      "hit": false,
      "t": 89148.74450000004,
      "d": 101.9501354166714,
      "v": 92
    },
    {
      "midi": 65,
      "hit": false,
      "t": 89255.12725000005,
      "d": 101.9501354166714,
      "v": 92
    },
    {
      "midi": 71,
      "hit": false,
      "t": 89255.12725000005,
      "d": 101.9501354166714,
      "v": 92
    },
    {
      "midi": 65,
      "hit": false,
      "t": 89361.51000000005,
      "d": 101.9501354166714,
      "v": 127
    },
    {
      "midi": 71,
      "hit": false,
      "t": 89361.51000000005,
      "d": 101.9501354166714,
      "v": 127
    },
    {
      "midi": 65,
      "hit": false,
      "t": 89467.89275000006,
      "d": 101.9501354166714,
      "v": 92
    },
    {
      "midi": 71,
      "hit": false,
      "t": 89467.89275000006,
      "d": 101.9501354166714,
      "v": 92
    },
    {
      "midi": 65,
      "hit": false,
      "t": 89574.27550000006,
      "d": 101.9501354166714,
      "v": 92
    },
    {
      "midi": 71,
      "hit": false,
      "t": 89574.27550000006,
      "d": 101.9501354166714,
      "v": 92
    },
    {
      "midi": 65,
      "hit": false,
      "t": 89680.65825000007,
      "d": 101.9501354166714,
      "v": 92
    },
    {
      "midi": 71,
      "hit": false,
      "t": 89680.65825000007,
      "d": 101.9501354166714,
      "v": 92
    },
    {
      "midi": 65,
      "hit": false,
      "t": 89787.04100000007,
      "d": 101.9501354166714,
      "v": 127
    },
    {
      "midi": 71,
      "hit": false,
      "t": 89787.04100000007,
      "d": 101.9501354166714,
      "v": 127
    },
    {
      "midi": 65,
      "hit": false,
      "t": 89893.42375000007,
      "d": 101.9501354166714,
      "v": 92
    },
    {
      "midi": 71,
      "hit": false,
      "t": 89893.42375000007,
      "d": 101.9501354166714,
      "v": 92
    },
    {
      "midi": 65,
      "hit": false,
      "t": 89999.80650000008,
      "d": 101.9501354166714,
      "v": 92
    },
    {
      "midi": 71,
      "hit": false,
      "t": 89999.80650000008,
      "d": 101.9501354166714,
      "v": 92
    },
    {
      "midi": 65,
      "hit": false,
      "t": 90106.18925000008,
      "d": 101.9501354166714,
      "v": 92
    },
    {
      "midi": 71,
      "hit": false,
      "t": 90106.18925000008,
      "d": 101.9501354166714,
      "v": 92
    },
    {
      "midi": 64,
      "hit": false,
      "t": 90212.57200000009,
      "d": 101.9501354166714,
      "v": 127
    },
    {
      "midi": 70,
      "hit": false,
      "t": 90212.57200000009,
      "d": 101.9501354166714,
      "v": 127
    },
    {
      "midi": 64,
      "hit": false,
      "t": 90318.95475000009,
      "d": 101.9501354166714,
      "v": 92
    },
    {
      "midi": 70,
      "hit": false,
      "t": 90318.95475000009,
      "d": 101.9501354166714,
      "v": 92
    },
    {
      "midi": 64,
      "hit": false,
      "t": 90425.3375000001,
      "d": 101.9501354166714,
      "v": 92
    },
    {
      "midi": 70,
      "hit": false,
      "t": 90425.3375000001,
      "d": 101.9501354166714,
      "v": 92
    },
    {
      "midi": 64,
      "hit": false,
      "t": 90531.7202500001,
      "d": 101.9501354166714,
      "v": 92
    },
    {
      "midi": 70,
      "hit": false,
      "t": 90531.7202500001,
      "d": 101.9501354166714,
      "v": 92
    },
    {
      "midi": 64,
      "hit": false,
      "t": 90638.1030000001,
      "d": 101.9501354166714,
      "v": 127
    },
    {
      "midi": 70,
      "hit": false,
      "t": 90638.1030000001,
      "d": 101.9501354166714,
      "v": 127
    },
    {
      "midi": 64,
      "hit": false,
      "t": 90744.48575000011,
      "d": 101.9501354166714,
      "v": 92
    },
    {
      "midi": 70,
      "hit": false,
      "t": 90744.48575000011,
      "d": 101.9501354166714,
      "v": 92
    },
    {
      "midi": 64,
      "hit": false,
      "t": 90850.86850000011,
      "d": 101.9501354166714,
      "v": 92
    },
    {
      "midi": 70,
      "hit": false,
      "t": 90850.86850000011,
      "d": 101.9501354166714,
      "v": 92
    },
    {
      "midi": 64,
      "hit": false,
      "t": 90957.25125000012,
      "d": 101.9501354166714,
      "v": 92
    },
    {
      "midi": 70,
      "hit": false,
      "t": 90957.25125000012,
      "d": 101.9501354166714,
      "v": 92
    },
    {
      "midi": 64,
      "hit": false,
      "t": 91063.63400000012,
      "d": 101.9501354166714,
      "v": 127
    },
    {
      "midi": 70,
      "hit": false,
      "t": 91063.63400000012,
      "d": 101.9501354166714,
      "v": 127
    },
    {
      "midi": 64,
      "hit": false,
      "t": 91170.01675000013,
      "d": 101.9501354166714,
      "v": 92
    },
    {
      "midi": 70,
      "hit": false,
      "t": 91170.01675000013,
      "d": 101.9501354166714,
      "v": 92
    },
    {
      "midi": 64,
      "hit": false,
      "t": 91276.39950000013,
      "d": 101.9501354166714,
      "v": 92
    },
    {
      "midi": 70,
      "hit": false,
      "t": 91276.39950000013,
      "d": 101.9501354166714,
      "v": 92
    },
    {
      "midi": 64,
      "hit": false,
      "t": 91382.78225000013,
      "d": 101.9501354166714,
      "v": 92
    },
    {
      "midi": 70,
      "hit": false,
      "t": 91382.78225000013,
      "d": 101.9501354166714,
      "v": 92
    },
    {
      "midi": 64,
      "hit": false,
      "t": 91489.16500000014,
      "d": 101.9501354166714,
      "v": 127
    },
    {
      "midi": 70,
      "hit": false,
      "t": 91489.16500000014,
      "d": 101.9501354166714,
      "v": 127
    },
    {
      "midi": 64,
      "hit": false,
      "t": 91595.54775000014,
      "d": 101.9501354166714,
      "v": 92
    },
    {
      "midi": 70,
      "hit": false,
      "t": 91595.54775000014,
      "d": 101.9501354166714,
      "v": 92
    },
    {
      "midi": 64,
      "hit": false,
      "t": 91701.93050000015,
      "d": 101.9501354166714,
      "v": 92
    },
    {
      "midi": 70,
      "hit": false,
      "t": 91701.93050000015,
      "d": 101.9501354166714,
      "v": 92
    },
    {
      "midi": 64,
      "hit": false,
      "t": 91808.31325000015,
      "d": 101.9501354166714,
      "v": 92
    },
    {
      "midi": 70,
      "hit": false,
      "t": 91808.31325000015,
      "d": 101.9501354166714,
      "v": 92
    },
    {
      "midi": 68,
      "hit": false,
      "t": 91914.69600000016,
      "d": 101.9501354166714,
      "v": 127
    },
    {
      "midi": 74,
      "hit": false,
      "t": 91914.69600000016,
      "d": 101.9501354166714,
      "v": 127
    },
    {
      "midi": 68,
      "hit": false,
      "t": 92021.07875000016,
      "d": 101.9501354166714,
      "v": 92
    },
    {
      "midi": 74,
      "hit": false,
      "t": 92021.07875000016,
      "d": 101.9501354166714,
      "v": 92
    },
    {
      "midi": 68,
      "hit": false,
      "t": 92127.46150000016,
      "d": 101.9501354166714,
      "v": 92
    },
    {
      "midi": 74,
      "hit": false,
      "t": 92127.46150000016,
      "d": 101.9501354166714,
      "v": 92
    },
    {
      "midi": 68,
      "hit": false,
      "t": 92233.84425000017,
      "d": 101.9501354166714,
      "v": 92
    },
    {
      "midi": 74,
      "hit": false,
      "t": 92233.84425000017,
      "d": 101.9501354166714,
      "v": 92
    },
    {
      "midi": 68,
      "hit": false,
      "t": 92340.22700000017,
      "d": 101.9501354166714,
      "v": 127
    },
    {
      "midi": 74,
      "hit": false,
      "t": 92340.22700000017,
      "d": 101.9501354166714,
      "v": 127
    },
    {
      "midi": 68,
      "hit": false,
      "t": 92446.60975000018,
      "d": 101.9501354166714,
      "v": 92
    },
    {
      "midi": 74,
      "hit": false,
      "t": 92446.60975000018,
      "d": 101.9501354166714,
      "v": 92
    },
    {
      "midi": 68,
      "hit": false,
      "t": 92552.99250000018,
      "d": 101.9501354166714,
      "v": 92
    },
    {
      "midi": 74,
      "hit": false,
      "t": 92552.99250000018,
      "d": 101.9501354166714,
      "v": 92
    },
    {
      "midi": 68,
      "hit": false,
      "t": 92659.37525000019,
      "d": 101.9501354166714,
      "v": 92
    },
    {
      "midi": 74,
      "hit": false,
      "t": 92659.37525000019,
      "d": 101.9501354166714,
      "v": 92
    },
    {
      "midi": 68,
      "hit": false,
      "t": 92765.75800000019,
      "d": 101.9501354166714,
      "v": 127
    },
    {
      "midi": 74,
      "hit": false,
      "t": 92765.75800000019,
      "d": 101.9501354166714,
      "v": 127
    },
    {
      "midi": 68,
      "hit": false,
      "t": 92872.1407500002,
      "d": 101.9501354166714,
      "v": 92
    },
    {
      "midi": 74,
      "hit": false,
      "t": 92872.1407500002,
      "d": 101.9501354166714,
      "v": 92
    },
    {
      "midi": 68,
      "hit": false,
      "t": 92978.5235000002,
      "d": 101.9501354166714,
      "v": 92
    },
    {
      "midi": 74,
      "hit": false,
      "t": 92978.5235000002,
      "d": 101.9501354166714,
      "v": 92
    },
    {
      "midi": 68,
      "hit": false,
      "t": 93084.9062500002,
      "d": 101.9501354166714,
      "v": 92
    },
    {
      "midi": 74,
      "hit": false,
      "t": 93084.9062500002,
      "d": 101.9501354166714,
      "v": 92
    },
    {
      "midi": 68,
      "hit": false,
      "t": 93191.28900000021,
      "d": 101.9501354166714,
      "v": 127
    },
    {
      "midi": 74,
      "hit": false,
      "t": 93191.28900000021,
      "d": 101.9501354166714,
      "v": 127
    },
    {
      "midi": 68,
      "hit": false,
      "t": 93297.67175000021,
      "d": 101.9501354166714,
      "v": 92
    },
    {
      "midi": 74,
      "hit": false,
      "t": 93297.67175000021,
      "d": 101.9501354166714,
      "v": 92
    },
    {
      "midi": 68,
      "hit": false,
      "t": 93404.05450000022,
      "d": 101.9501354166714,
      "v": 92
    },
    {
      "midi": 74,
      "hit": false,
      "t": 93404.05450000022,
      "d": 101.9501354166714,
      "v": 92
    },
    {
      "midi": 68,
      "hit": false,
      "t": 93510.43725000022,
      "d": 101.9501354166714,
      "v": 92
    },
    {
      "midi": 74,
      "hit": false,
      "t": 93510.43725000022,
      "d": 101.9501354166714,
      "v": 92
    },
    {
      "midi": 67,
      "hit": false,
      "t": 93616.82000000023,
      "d": 101.9501354166714,
      "v": 127
    },
    {
      "midi": 73,
      "hit": false,
      "t": 93616.82000000023,
      "d": 101.9501354166714,
      "v": 127
    },
    {
      "midi": 67,
      "hit": false,
      "t": 93723.20275000023,
      "d": 101.9501354166714,
      "v": 92
    },
    {
      "midi": 73,
      "hit": false,
      "t": 93723.20275000023,
      "d": 101.9501354166714,
      "v": 92
    },
    {
      "midi": 67,
      "hit": false,
      "t": 93829.58550000023,
      "d": 101.9501354166714,
      "v": 92
    },
    {
      "midi": 73,
      "hit": false,
      "t": 93829.58550000023,
      "d": 101.9501354166714,
      "v": 92
    },
    {
      "midi": 67,
      "hit": false,
      "t": 93935.96825000024,
      "d": 101.9501354166714,
      "v": 92
    },
    {
      "midi": 73,
      "hit": false,
      "t": 93935.96825000024,
      "d": 101.9501354166714,
      "v": 92
    },
    {
      "midi": 67,
      "hit": false,
      "t": 94042.35100000024,
      "d": 101.9501354166714,
      "v": 127
    },
    {
      "midi": 73,
      "hit": false,
      "t": 94042.35100000024,
      "d": 101.9501354166714,
      "v": 127
    },
    {
      "midi": 67,
      "hit": false,
      "t": 94148.73375000025,
      "d": 101.9501354166714,
      "v": 92
    },
    {
      "midi": 73,
      "hit": false,
      "t": 94148.73375000025,
      "d": 101.9501354166714,
      "v": 92
    },
    {
      "midi": 67,
      "hit": false,
      "t": 94255.11650000025,
      "d": 101.9501354166714,
      "v": 92
    },
    {
      "midi": 73,
      "hit": false,
      "t": 94255.11650000025,
      "d": 101.9501354166714,
      "v": 92
    },
    {
      "midi": 67,
      "hit": false,
      "t": 94361.49925000026,
      "d": 101.9501354166714,
      "v": 92
    },
    {
      "midi": 73,
      "hit": false,
      "t": 94361.49925000026,
      "d": 101.9501354166714,
      "v": 92
    },
    {
      "midi": 67,
      "hit": false,
      "t": 94467.88200000026,
      "d": 101.9501354166714,
      "v": 127
    },
    {
      "midi": 73,
      "hit": false,
      "t": 94467.88200000026,
      "d": 101.9501354166714,
      "v": 127
    },
    {
      "midi": 67,
      "hit": false,
      "t": 94574.26475000026,
      "d": 101.9501354166714,
      "v": 92
    },
    {
      "midi": 73,
      "hit": false,
      "t": 94574.26475000026,
      "d": 101.9501354166714,
      "v": 92
    },
    {
      "midi": 67,
      "hit": false,
      "t": 94680.64750000027,
      "d": 101.9501354166714,
      "v": 92
    },
    {
      "midi": 73,
      "hit": false,
      "t": 94680.64750000027,
      "d": 101.9501354166714,
      "v": 92
    },
    {
      "midi": 67,
      "hit": false,
      "t": 94787.03025000027,
      "d": 101.9501354166714,
      "v": 92
    },
    {
      "midi": 73,
      "hit": false,
      "t": 94787.03025000027,
      "d": 101.9501354166714,
      "v": 92
    },
    {
      "midi": 67,
      "hit": false,
      "t": 94893.41300000028,
      "d": 101.9501354166714,
      "v": 127
    },
    {
      "midi": 73,
      "hit": false,
      "t": 94893.41300000028,
      "d": 101.9501354166714,
      "v": 127
    },
    {
      "midi": 67,
      "hit": false,
      "t": 94999.79575000028,
      "d": 101.9501354166714,
      "v": 92
    },
    {
      "midi": 73,
      "hit": false,
      "t": 94999.79575000028,
      "d": 101.9501354166714,
      "v": 92
    },
    {
      "midi": 67,
      "hit": false,
      "t": 95106.17850000029,
      "d": 101.9501354166714,
      "v": 92
    },
    {
      "midi": 73,
      "hit": false,
      "t": 95106.17850000029,
      "d": 101.9501354166714,
      "v": 92
    },
    {
      "midi": 67,
      "hit": false,
      "t": 95212.56125000029,
      "d": 101.9501354166714,
      "v": 92
    },
    {
      "midi": 73,
      "hit": false,
      "t": 95212.56125000029,
      "d": 101.9501354166714,
      "v": 92
    }
  ]
}