{
  "jsonPath": "Soundtracks/Video Game Music/Legend of Zelda A Link to the Past/legend-of-zelda-a-link-to-the-past-victory-by-gori-fater.json",
  "path": "Soundtracks\\Video Game Music\\Legend of Zelda A Link to the Past\\Legend_of_Zelda_A_Link_to_the_Past_-_Victory_by_Gori_Fater.mid",
  "name": "Legend_of_Zelda_A_Link_to_the_Past_-_Victory_by_Gori_Fater",
  "difficulty": "Advanced",
  "bpm": 139.9998133335822,
  "notes": [
    {
      "midi": 41,
      "hit": false,
      "t": 0,
      "d": 3203.864240234375,
      "v": 64
    },
    {
      "midi": 48,
      "hit": false,
      "t": 0,
      "d": 3203.864240234375,
      "v": 64
    },
    {
      "midi": 53,
      "hit": false,
      "t": 4.185869140625,
      "d": 3212.235978515625,
      "v": 56
    },
    {
      "midi": 62,
      "hit": false,
      "t": 228.548455078125,
      "d": 103.80955468749997,
      "v": 68
    },
    {
      "midi": 67,
      "hit": false,
      "t": 228.548455078125,
      "d": 103.80955468749997,
      "v": 68
    },
    {
      "midi": 70,
      "hit": false,
      "t": 228.548455078125,
      "d": 103.80955468749997,
      "v": 68
    },
    {
      "midi": 74,
      "hit": false,
      "t": 228.548455078125,
      "d": 103.80955468749997,
      "v": 78
    },
    {
      "midi": 62,
      "hit": false,
      "t": 332.77659667968743,
      "d": 107.99542382812501,
      "v": 68
    },
    {
      "midi": 67,
      "hit": false,
      "t": 332.77659667968743,
      "d": 107.99542382812501,
      "v": 68
    },
    {
      "midi": 70,
      "hit": false,
      "t": 332.77659667968743,
      "d": 107.99542382812501,
      "v": 68
    },
    {
      "midi": 74,
      "hit": false,
      "t": 332.77659667968743,
      "d": 107.99542382812501,
      "v": 78
    },
    {
      "midi": 62,
      "hit": false,
      "t": 441.1906074218749,
      "d": 198.41019726562502,
      "v": 81
    },
    {
      "midi": 67,
      "hit": false,
      "t": 441.1906074218749,
      "d": 198.41019726562502,
      "v": 81
    },
    {
      "midi": 70,
      "hit": false,
      "t": 441.1906074218749,
      "d": 210.9678046875,
      "v": 81
    },
    {
      "midi": 74,
      "hit": false,
      "t": 441.1906074218749,
      "d": 210.9678046875,
      "v": 95
    },
    {
      "midi": 60,
      "hit": false,
      "t": 652.5769990234375,
      "d": 103.39096777343752,
      "v": 68
    },
    {
      "midi": 65,
      "hit": false,
      "t": 652.5769990234375,
      "d": 103.39096777343752,
      "v": 68
    },
    {
      "midi": 69,
      "hit": false,
      "t": 652.5769990234375,
      "d": 103.39096777343752,
      "v": 68
    },
    {
      "midi": 72,
      "hit": false,
      "t": 652.5769990234375,
      "d": 103.39096777343752,
      "v": 82
    },
    {
      "midi": 60,
      "hit": false,
      "t": 756.3865537109375,
      "d": 109.25118457031249,
      "v": 68
    },
    {
      "midi": 65,
      "hit": false,
      "t": 756.3865537109375,
      "d": 109.25118457031249,
      "v": 68
    },
    {
      "midi": 69,
      "hit": false,
      "t": 756.3865537109375,
      "d": 109.25118457031249,
      "v": 68
    },
    {
      "midi": 72,
      "hit": false,
      "t": 756.3865537109375,
      "d": 109.25118457031249,
      "v": 78
    },
    {
      "midi": 60,
      "hit": false,
      "t": 866.0563251953125,
      "d": 200.50313183593755,
      "v": 83
    },
    {
      "midi": 65,
      "hit": false,
      "t": 866.0563251953125,
      "d": 200.50313183593755,
      "v": 83
    },
    {
      "midi": 69,
      "hit": false,
      "t": 866.0563251953125,
      "d": 213.06073925781254,
      "v": 83
    },
    {
      "midi": 72,
      "hit": false,
      "t": 866.0563251953125,
      "d": 213.06073925781254,
      "v": 97
    },
    {
      "midi": 58,
      "hit": false,
      "t": 1079.5356513671875,
      "d": 103.39096777343752,
      "v": 68
    },
    {
      "midi": 63,
      "hit": false,
      "t": 1079.5356513671875,
      "d": 103.39096777343752,
      "v": 68
    },
    {
      "midi": 67,
      "hit": false,
      "t": 1079.5356513671875,
      "d": 103.39096777343752,
      "v": 68
    },
    {
      "midi": 70,
      "hit": false,
      "t": 1079.5356513671875,
      "d": 103.39096777343752,
      "v": 82
    },
    {
      "midi": 58,
      "hit": false,
      "t": 1183.3452060546874,
      "d": 107.15824999999995,
      "v": 68
    },
    {
      "midi": 63,
      "hit": false,
      "t": 1183.3452060546874,
      "d": 107.15824999999995,
      "v": 68
    },
    {
      "midi": 67,
      "hit": false,
      "t": 1183.3452060546874,
      "d": 107.15824999999995,
      "v": 68
    },
    {
      "midi": 70,
      "hit": false,
      "t": 1183.3452060546874,
      "d": 107.15824999999995,
      "v": 78
    },
    {
      "midi": 58,
      "hit": false,
      "t": 1290.9220429687498,
      "d": 198.4101972656249,
      "v": 81
    },
    {
      "midi": 63,
      "hit": false,
      "t": 1290.9220429687498,
      "d": 198.4101972656249,
      "v": 81
    },
    {
      "midi": 67,
      "hit": false,
      "t": 1290.9220429687498,
      "d": 210.9678046874999,
      "v": 81
    },
    {
      "midi": 70,
      "hit": false,
      "t": 1290.9220429687498,
      "d": 210.9678046874999,
      "v": 95
    },
    {
      "midi": 60,
      "hit": false,
      "t": 1502.308434570312,
      "d": 1502.7270214843754,
      "v": 80
    },
    {
      "midi": 65,
      "hit": false,
      "t": 1502.308434570312,
      "d": 1502.7270214843754,
      "v": 80
    },
    {
      "midi": 72,
      "hit": false,
      "t": 1502.308434570312,
      "d": 1502.7270214843754,
      "v": 94
    },
    {
      "midi": 69,
      "hit": false,
      "t": 1838.8523134765621,
      "d": 97.53075097656256,
      "v": 88
    },
    {
      "midi": 74,
      "hit": false,
      "t": 1943.0804550781247,
      "d": 97.53075097656256,
      "v": 88
    },
    {
      "midi": 77,
      "hit": false,
      "t": 2047.3085966796873,
      "d": 101.7166201171874,
      "v": 88
    },
    {
      "midi": 81,
      "hit": false,
      "t": 2155.7226074218747,
      "d": 101.29803320312521,
      "v": 89
    },
    {
      "midi": 77,
      "hit": false,
      "t": 2263.71803125,
      "d": 96.69357714843727,
      "v": 88
    },
    {
      "midi": 81,
      "hit": false,
      "t": 2367.1089990234373,
      "d": 97.11216406250014,
      "v": 88
    },
    {
      "midi": 86,
      "hit": false,
      "t": 2470.9185537109374,
      "d": 102.97238085937488,
      "v": 88
    },
    {
      "midi": 89,
      "hit": false,
      "t": 2580.5883251953123,
      "d": 103.3909677734373,
      "v": 91
    },
    {
      "midi": 84,
      "hit": false,
      "t": 2690.6766835937497,
      "d": 96.69357714843773,
      "v": 88
    },
    {
      "midi": 87,
      "hit": false,
      "t": 2794.0676513671874,
      "d": 97.11216406250014,
      "v": 88
    },
    {
      "midi": 93,
      "hit": false,
      "t": 2897.8772060546876,
      "d": 100.87944628906234,
      "v": 88
    },
    {
      "midi": 96,
      "hit": false,
      "t": 3005.45404296875,
      "d": 423.1913701171875,
      "v": 89
    },
    {
      "midi": 42,
      "hit": false,
      "t": 3216.8404345703125,
      "d": 97.11216406250014,
      "v": 56
    },
    {
      "midi": 54,
      "hit": false,
      "t": 3216.8404345703125,
      "d": 103.39096777343775,
      "v": 70
    },
    {
      "midi": 43,
      "hit": false,
      "t": 3320.6499892578126,
      "d": 101.71662011718763,
      "v": 56
    },
    {
      "midi": 55,
      "hit": false,
      "t": 3320.6499892578126,
      "d": 107.99542382812524,
      "v": 70
    },
    {
      "midi": 44,
      "hit": false,
      "t": 3430.7383476562504,
      "d": 3202.1898925781247,
      "v": 56
    },
    {
      "midi": 51,
      "hit": false,
      "t": 3430.7383476562504,
      "d": 3202.1898925781247,
      "v": 56
    },
    {
      "midi": 56,
      "hit": false,
      "t": 3430.7383476562504,
      "d": 3214.7475,
      "v": 70
    },
    {
      "midi": 65,
      "hit": false,
      "t": 3657.612455078125,
      "d": 103.80955468750017,
      "v": 68
    },
    {
      "midi": 70,
      "hit": false,
      "t": 3657.612455078125,
      "d": 103.80955468750017,
      "v": 68
    },
    {
      "midi": 77,
      "hit": false,
      "t": 3657.612455078125,
      "d": 103.80955468750017,
      "v": 78
    },
    {
      "midi": 65,
      "hit": false,
      "t": 3761.8405966796877,
      "d": 107.99542382812479,
      "v": 68
    },
    {
      "midi": 70,
      "hit": false,
      "t": 3761.8405966796877,
      "d": 107.99542382812479,
      "v": 68
    },
    {
      "midi": 77,
      "hit": false,
      "t": 3761.8405966796877,
      "d": 107.99542382812479,
      "v": 78
    },
    {
      "midi": 65,
      "hit": false,
      "t": 3870.254607421875,
      "d": 198.4101972656249,
      "v": 81
    },
    {
      "midi": 70,
      "hit": false,
      "t": 3870.254607421875,
      "d": 198.4101972656249,
      "v": 81
    },
    {
      "midi": 77,
      "hit": false,
      "t": 3870.254607421875,
      "d": 210.96780468750012,
      "v": 95
    },
    {
      "midi": 63,
      "hit": false,
      "t": 4081.6409990234374,
      "d": 103.39096777343775,
      "v": 68
    },
    {
      "midi": 68,
      "hit": false,
      "t": 4081.6409990234374,
      "d": 103.39096777343775,
      "v": 68
    },
    {
      "midi": 75,
      "hit": false,
      "t": 4081.6409990234374,
      "d": 103.39096777343775,
      "v": 82
    },
    {
      "midi": 63,
      "hit": false,
      "t": 4185.450553710938,
      "d": 109.25118457031203,
      "v": 68
    },
    {
      "midi": 68,
      "hit": false,
      "t": 4185.450553710938,
      "d": 109.25118457031203,
      "v": 68
    },
    {
      "midi": 75,
      "hit": false,
      "t": 4185.450553710938,
      "d": 109.25118457031203,
      "v": 78
    },
    {
      "midi": 63,
      "hit": false,
      "t": 4295.120325195313,
      "d": 200.5031318359379,
      "v": 83
    },
    {
      "midi": 68,
      "hit": false,
      "t": 4295.120325195313,
      "d": 200.5031318359379,
      "v": 83
    },
    {
      "midi": 75,
      "hit": false,
      "t": 4295.120325195313,
      "d": 213.0607392578131,
      "v": 97
    },
    {
      "midi": 61,
      "hit": false,
      "t": 4508.599651367189,
      "d": 103.3909677734373,
      "v": 68
    },
    {
      "midi": 70,
      "hit": false,
      "t": 4508.599651367189,
      "d": 103.3909677734373,
      "v": 68
    },
    {
      "midi": 73,
      "hit": false,
      "t": 4508.599651367189,
      "d": 103.3909677734373,
      "v": 82
    },
    {
      "midi": 61,
      "hit": false,
      "t": 4612.409206054689,
      "d": 107.15825000000041,
      "v": 68
    },
    {
      "midi": 70,
      "hit": false,
      "t": 4612.409206054689,
      "d": 107.15825000000041,
      "v": 68
    },
    {
      "midi": 73,
      "hit": false,
      "t": 4612.409206054689,
      "d": 107.15825000000041,
      "v": 78
    },
    {
      "midi": 61,
      "hit": false,
      "t": 4719.986042968752,
      "d": 198.41019726562536,
      "v": 81
    },
    {
      "midi": 70,
      "hit": false,
      "t": 4719.986042968752,
      "d": 198.41019726562536,
      "v": 81
    },
    {
      "midi": 73,
      "hit": false,
      "t": 4719.986042968752,
      "d": 210.96780468750057,
      "v": 95
    },
    {
      "midi": 63,
      "hit": false,
      "t": 4931.372434570316,
      "d": 1502.727021484371,
      "v": 80
    },
    {
      "midi": 68,
      "hit": false,
      "t": 4931.372434570316,
      "d": 1502.727021484371,
      "v": 80
    },
    {
      "midi": 72,
      "hit": false,
      "t": 5267.916313476566,
      "d": 97.53075097656256,
      "v": 88
    },
    {
      "midi": 75,
      "hit": false,
      "t": 5372.144455078128,
      "d": 97.53075097656256,
      "v": 88
    },
    {
      "midi": 80,
      "hit": false,
      "t": 5476.37259667969,
      "d": 101.71662011718763,
      "v": 88
    },
    {
      "midi": 84,
      "hit": false,
      "t": 5584.786607421877,
      "d": 101.29803320312476,
      "v": 89
    },
    {
      "midi": 80,
      "hit": false,
      "t": 5692.782031250002,
      "d": 96.69357714843773,
      "v": 88
    },
    {
      "midi": 84,
      "hit": false,
      "t": 5796.172999023439,
      "d": 97.11216406249969,
      "v": 88
    },
    {
      "midi": 89,
      "hit": false,
      "t": 5899.982553710938,
      "d": 102.97238085937533,
      "v": 88
    },
    {
      "midi": 92,
      "hit": false,
      "t": 6009.652325195313,
      "d": 103.3909677734373,
      "v": 91
    },
    {
      "midi": 89,
      "hit": false,
      "t": 6119.74068359375,
      "d": 96.69357714843773,
      "v": 88
    },
    {
      "midi": 92,
      "hit": false,
      "t": 6223.131651367187,
      "d": 97.11216406249969,
      "v": 88
    },
    {
      "midi": 96,
      "hit": false,
      "t": 6326.9412060546865,
      "d": 100.8794462890628,
      "v": 88
    },
    {
      "midi": 99,
      "hit": false,
      "t": 6434.51804296875,
      "d": 423.19137011718703,
      "v": 89
    },
    {
      "midi": 45,
      "hit": false,
      "t": 6645.904434570313,
      "d": 97.11216406249969,
      "v": 56
    },
    {
      "midi": 57,
      "hit": false,
      "t": 6645.904434570313,
      "d": 103.3909677734373,
      "v": 70
    },
    {
      "midi": 46,
      "hit": false,
      "t": 6749.713989257813,
      "d": 101.71662011718763,
      "v": 56
    },
    {
      "midi": 58,
      "hit": false,
      "t": 6749.713989257813,
      "d": 107.99542382812524,
      "v": 70
    },
    {
      "midi": 47,
      "hit": false,
      "t": 6859.802347656251,
      "d": 1712.4390654296867,
      "v": 56
    },
    {
      "midi": 59,
      "hit": false,
      "t": 6859.802347656251,
      "d": 1712.4390654296867,
      "v": 70
    },
    {
      "midi": 68,
      "hit": false,
      "t": 7086.6764550781245,
      "d": 103.80955468750017,
      "v": 68
    },
    {
      "midi": 75,
      "hit": false,
      "t": 7086.6764550781245,
      "d": 103.80955468750017,
      "v": 68
    },
    {
      "midi": 80,
      "hit": false,
      "t": 7086.6764550781245,
      "d": 103.80955468750017,
      "v": 82
    },
    {
      "midi": 68,
      "hit": false,
      "t": 7190.9045966796875,
      "d": 107.99542382812524,
      "v": 68
    },
    {
      "midi": 75,
      "hit": false,
      "t": 7190.9045966796875,
      "d": 107.99542382812524,
      "v": 68
    },
    {
      "midi": 80,
      "hit": false,
      "t": 7190.9045966796875,
      "d": 107.99542382812524,
      "v": 78
    },
    {
      "midi": 68,
      "hit": false,
      "t": 7299.318607421876,
      "d": 198.41019726562536,
      "v": 81
    },
    {
      "midi": 75,
      "hit": false,
      "t": 7299.318607421876,
      "d": 198.41019726562536,
      "v": 81
    },
    {
      "midi": 80,
      "hit": false,
      "t": 7299.318607421876,
      "d": 210.96780468750057,
      "v": 95
    },
    {
      "midi": 66,
      "hit": false,
      "t": 7510.704999023439,
      "d": 103.3909677734373,
      "v": 68
    },
    {
      "midi": 71,
      "hit": false,
      "t": 7510.704999023439,
      "d": 103.3909677734373,
      "v": 68
    },
    {
      "midi": 78,
      "hit": false,
      "t": 7510.704999023439,
      "d": 103.3909677734373,
      "v": 82
    },
    {
      "midi": 66,
      "hit": false,
      "t": 7614.514553710939,
      "d": 109.25118457031294,
      "v": 68
    },
    {
      "midi": 71,
      "hit": false,
      "t": 7614.514553710939,
      "d": 109.25118457031294,
      "v": 68
    },
    {
      "midi": 78,
      "hit": false,
      "t": 7614.514553710939,
      "d": 109.25118457031294,
      "v": 78
    },
    {
      "midi": 66,
      "hit": false,
      "t": 7724.184325195315,
      "d": 200.5031318359379,
      "v": 83
    },
    {
      "midi": 71,
      "hit": false,
      "t": 7724.184325195315,
      "d": 200.5031318359379,
      "v": 83
    },
    {
      "midi": 78,
      "hit": false,
      "t": 7724.184325195315,
      "d": 213.0607392578131,
      "v": 97
    },
    {
      "midi": 64,
      "hit": false,
      "t": 7937.663651367191,
      "d": 103.3909677734373,
      "v": 68
    },
    {
      "midi": 69,
      "hit": false,
      "t": 7937.663651367191,
      "d": 103.3909677734373,
      "v": 68
    },
    {
      "midi": 76,
      "hit": false,
      "t": 7937.663651367191,
      "d": 103.3909677734373,
      "v": 82
    },
    {
      "midi": 64,
      "hit": false,
      "t": 8041.473206054691,
      "d": 107.15825000000041,
      "v": 68
    },
    {
      "midi": 69,
      "hit": false,
      "t": 8041.473206054691,
      "d": 107.15825000000041,
      "v": 68
    },
    {
      "midi": 76,
      "hit": false,
      "t": 8041.473206054691,
      "d": 107.15825000000041,
      "v": 78
    },
    {
      "midi": 64,
      "hit": false,
      "t": 8149.0500429687545,
      "d": 198.41019726562445,
      "v": 81
    },
    {
      "midi": 69,
      "hit": false,
      "t": 8149.0500429687545,
      "d": 198.41019726562445,
      "v": 81
    },
    {
      "midi": 76,
      "hit": false,
      "t": 8149.0500429687545,
      "d": 210.96780468749967,
      "v": 95
    },
    {
      "midi": 68,
      "hit": false,
      "t": 8360.436434570316,
      "d": 199.2473710937502,
      "v": 80
    },
    {
      "midi": 76,
      "hit": false,
      "t": 8360.436434570316,
      "d": 199.2473710937502,
      "v": 80
    },
    {
      "midi": 80,
      "hit": false,
      "t": 8360.436434570316,
      "d": 211.8049785156254,
      "v": 94
    },
    {
      "midi": 34,
      "hit": false,
      "t": 8574.33434765625,
      "d": 1712.4390654296876,
      "v": 54
    },
    {
      "midi": 39,
      "hit": false,
      "t": 8574.33434765625,
      "d": 1712.4390654296876,
      "v": 55
    },
    {
      "midi": 43,
      "hit": false,
      "t": 8574.33434765625,
      "d": 1712.4390654296876,
      "v": 56
    },
    {
      "midi": 46,
      "hit": false,
      "t": 8574.33434765625,
      "d": 1712.4390654296876,
      "v": 70
    },
    {
      "midi": 70,
      "hit": false,
      "t": 8574.334347656253,
      "d": 1712.4390654296876,
      "v": 80
    },
    {
      "midi": 75,
      "hit": false,
      "t": 8574.334347656253,
      "d": 1712.4390654296876,
      "v": 80
    },
    {
      "midi": 79,
      "hit": false,
      "t": 8574.334347656253,
      "d": 1712.4390654296876,
      "v": 80
    },
    {
      "midi": 82,
      "hit": false,
      "t": 8574.334347656253,
      "d": 1712.4390654296876,
      "v": 94
    }
  ]
}