{
  "jsonPath": "Rock/Progressive House/John OCallaghan/big-sky.json",
  "path": "Rock\\Progressive House\\John OCallaghan\\Big Sky.mid",
  "name": "Big Sky",
  "difficulty": "Advanced",
  "bpm": 67.00002903334591,
  "notes": [
    {
      "midi": 57,
      "hit": false,
      "t": 7164.1759999999995,
      "d": 570.8952749999999,
      "v": 67
    },
    {
      "midi": 45,
      "hit": false,
      "t": 7164.1759999999995,
      "d": 3076.491204166665,
      "v": 67
    },
    {
      "midi": 52,
      "hit": false,
      "t": 7164.1759999999995,
      "d": 3138.058341666665,
      "v": 67
    },
    {
      "midi": 61,
      "hit": false,
      "t": 7388.0565,
      "d": 255.59690416666672,
      "v": 67
    },
    {
      "midi": 64,
      "hit": false,
      "t": 7611.937,
      "d": 244.40287916666603,
      "v": 71
    },
    {
      "midi": 61,
      "hit": false,
      "t": 7835.817499999999,
      "d": 208.95513333333383,
      "v": 71
    },
    {
      "midi": 57,
      "hit": false,
      "t": 8059.697999999999,
      "d": 455.2236833333345,
      "v": 69
    },
    {
      "midi": 61,
      "hit": false,
      "t": 8283.5785,
      "d": 220.14915833333362,
      "v": 70
    },
    {
      "midi": 64,
      "hit": false,
      "t": 8507.459,
      "d": 255.59690416666672,
      "v": 65
    },
    {
      "midi": 61,
      "hit": false,
      "t": 8731.3395,
      "d": 210.82080416666759,
      "v": 70
    },
    {
      "midi": 57,
      "hit": false,
      "t": 8955.220000000001,
      "d": 546.6415541666647,
      "v": 71
    },
    {
      "midi": 61,
      "hit": false,
      "t": 9179.1005,
      "d": 201.49244999999974,
      "v": 70
    },
    {
      "midi": 64,
      "hit": false,
      "t": 9402.981,
      "d": 242.53720833333318,
      "v": 67
    },
    {
      "midi": 61,
      "hit": false,
      "t": 9626.861499999999,
      "d": 207.08946250000008,
      "v": 70
    },
    {
      "midi": 57,
      "hit": false,
      "t": 9850.741999999998,
      "d": 404.8505708333323,
      "v": 69
    },
    {
      "midi": 61,
      "hit": false,
      "t": 10074.622499999998,
      "d": 197.76110833333223,
      "v": 70
    },
    {
      "midi": 64,
      "hit": false,
      "t": 10298.502999999997,
      "d": 192.1640958333337,
      "v": 65
    },
    {
      "midi": 61,
      "hit": false,
      "t": 10522.383499999998,
      "d": 152.9850083333331,
      "v": 68
    },
    {
      "midi": 56,
      "hit": false,
      "t": 10746.263999999997,
      "d": 682.8355250000004,
      "v": 71
    },
    {
      "midi": 44,
      "hit": false,
      "t": 10746.263999999997,
      "d": 3186.565783333337,
      "v": 71
    },
    {
      "midi": 52,
      "hit": false,
      "t": 10746.263999999997,
      "d": 3244.4015791666698,
      "v": 71
    },
    {
      "midi": 61,
      "hit": false,
      "t": 10970.144499999997,
      "d": 223.88050000000112,
      "v": 65
    },
    {
      "midi": 64,
      "hit": false,
      "t": 11194.024999999998,
      "d": 235.074525,
      "v": 71
    },
    {
      "midi": 61,
      "hit": false,
      "t": 11417.905499999997,
      "d": 210.82080416666759,
      "v": 65
    },
    {
      "midi": 56,
      "hit": false,
      "t": 11641.785999999998,
      "d": 494.4027708333342,
      "v": 72
    },
    {
      "midi": 61,
      "hit": false,
      "t": 11865.666499999998,
      "d": 192.1640958333337,
      "v": 69
    },
    {
      "midi": 64,
      "hit": false,
      "t": 12089.546999999999,
      "d": 227.61184166666862,
      "v": 69
    },
    {
      "midi": 61,
      "hit": false,
      "t": 12313.4275,
      "d": 201.49245000000155,
      "v": 68
    },
    {
      "midi": 56,
      "hit": false,
      "t": 12537.308,
      "d": 531.7161875000002,
      "v": 70
    },
    {
      "midi": 61,
      "hit": false,
      "t": 12761.1885,
      "d": 197.76110833333405,
      "v": 68
    },
    {
      "midi": 64,
      "hit": false,
      "t": 12985.069000000001,
      "d": 255.59690416666672,
      "v": 71
    },
    {
      "midi": 61,
      "hit": false,
      "t": 13208.9495,
      "d": 190.29842500000086,
      "v": 66
    },
    {
      "midi": 56,
      "hit": false,
      "t": 13432.830000000002,
      "d": 597.014666666666,
      "v": 72
    },
    {
      "midi": 61,
      "hit": false,
      "t": 13656.710500000001,
      "d": 175.37305833333266,
      "v": 68
    },
    {
      "midi": 64,
      "hit": false,
      "t": 13880.591,
      "d": 240.67153750000034,
      "v": 71
    },
    {
      "midi": 61,
      "hit": false,
      "t": 14104.471500000001,
      "d": 184.7014124999987,
      "v": 67
    },
    {
      "midi": 54,
      "hit": false,
      "t": 14328.352,
      "d": 548.5072250000012,
      "v": 72
    },
    {
      "midi": 49,
      "hit": false,
      "t": 14328.352,
      "d": 3063.431508333333,
      "v": 72
    },
    {
      "midi": 42,
      "hit": false,
      "t": 14328.352,
      "d": 3083.953887499998,
      "v": 72
    },
    {
      "midi": 61,
      "hit": false,
      "t": 14552.232500000002,
      "d": 139.92531249999956,
      "v": 68
    },
    {
      "midi": 66,
      "hit": false,
      "t": 14776.113000000001,
      "d": 227.61184166666862,
      "v": 75
    },
    {
      "midi": 61,
      "hit": false,
      "t": 14999.993500000002,
      "d": 205.22379166666724,
      "v": 75
    },
    {
      "midi": 54,
      "hit": false,
      "t": 15223.874000000003,
      "d": 264.92525833333275,
      "v": 75
    },
    {
      "midi": 61,
      "hit": false,
      "t": 15447.754500000003,
      "d": 249.99989166666637,
      "v": 73
    },
    {
      "midi": 66,
      "hit": false,
      "t": 15671.635000000002,
      "d": 251.86556250000103,
      "v": 68
    },
    {
      "midi": 61,
      "hit": false,
      "t": 15895.515500000003,
      "d": 212.68647500000043,
      "v": 69
    },
    {
      "midi": 54,
      "hit": false,
      "t": 16119.396000000004,
      "d": 264.92525833333275,
      "v": 68
    },
    {
      "midi": 61,
      "hit": false,
      "t": 16343.276500000004,
      "d": 208.95513333333292,
      "v": 68
    },
    {
      "midi": 66,
      "hit": false,
      "t": 16567.157000000003,
      "d": 240.67153749999852,
      "v": 68
    },
    {
      "midi": 61,
      "hit": false,
      "t": 16791.037500000002,
      "d": 173.507387499998,
      "v": 73
    },
    {
      "midi": 54,
      "hit": false,
      "t": 17014.918,
      "d": 535.447529166664,
      "v": 73
    },
    {
      "midi": 61,
      "hit": false,
      "t": 17238.7985,
      "d": 154.85067916666594,
      "v": 75
    },
    {
      "midi": 66,
      "hit": false,
      "t": 17462.679,
      "d": 236.94019583333284,
      "v": 75
    },
    {
      "midi": 61,
      "hit": false,
      "t": 17686.5595,
      "d": 212.6864749999986,
      "v": 78
    },
    {
      "midi": 57,
      "hit": false,
      "t": 17910.44,
      "d": 671.6414999999979,
      "v": 76
    },
    {
      "midi": 38,
      "hit": false,
      "t": 17910.44,
      "d": 3408.5806124999945,
      "v": 76
    },
    {
      "midi": 45,
      "hit": false,
      "t": 17910.44,
      "d": 3417.9089666666623,
      "v": 76
    },
    {
      "midi": 50,
      "hit": false,
      "t": 17910.44,
      "d": 3417.9089666666623,
      "v": 76
    },
    {
      "midi": 62,
      "hit": false,
      "t": 18134.320499999998,
      "d": 270.5222708333313,
      "v": 75
    },
    {
      "midi": 66,
      "hit": false,
      "t": 18358.200999999997,
      "d": 235.074525,
      "v": 74
    },
    {
      "midi": 62,
      "hit": false,
      "t": 18582.081499999997,
      "d": 229.47751249999783,
      "v": 74
    },
    {
      "midi": 57,
      "hit": false,
      "t": 18805.961999999996,
      "d": 444.0296583333329,
      "v": 75
    },
    {
      "midi": 62,
      "hit": false,
      "t": 19029.842499999995,
      "d": 242.53720833333136,
      "v": 79
    },
    {
      "midi": 66,
      "hit": false,
      "t": 19253.722999999994,
      "d": 240.67153749999852,
      "v": 76
    },
    {
      "midi": 62,
      "hit": false,
      "t": 19477.603499999994,
      "d": 205.22379166666724,
      "v": 76
    },
    {
      "midi": 57,
      "hit": false,
      "t": 19701.483999999993,
      "d": 251.8655624999992,
      "v": 76
    },
    {
      "midi": 62,
      "hit": false,
      "t": 19925.364499999992,
      "d": 205.22379166666724,
      "v": 76
    },
    {
      "midi": 66,
      "hit": false,
      "t": 20149.24499999999,
      "d": 240.67153749999852,
      "v": 75
    },
    {
      "midi": 62,
      "hit": false,
      "t": 20373.12549999999,
      "d": 223.8804999999993,
      "v": 75
    },
    {
      "midi": 57,
      "hit": false,
      "t": 20597.00599999999,
      "d": 268.65659999999843,
      "v": 72
    },
    {
      "midi": 62,
      "hit": false,
      "t": 20820.88649999999,
      "d": 197.76110833333223,
      "v": 71
    },
    {
      "midi": 66,
      "hit": false,
      "t": 21044.76699999999,
      "d": 216.41781666666793,
      "v": 69
    },
    {
      "midi": 62,
      "hit": false,
      "t": 21268.647499999992,
      "d": 110.07457916667045,
      "v": 68
    },
    {
      "midi": 57,
      "hit": false,
      "t": 21492.527999999995,
      "d": 570.895274999999,
      "v": 78
    },
    {
      "midi": 45,
      "hit": false,
      "t": 21492.527999999995,
      "d": 3076.491204166665,
      "v": 78
    },
    {
      "midi": 52,
      "hit": false,
      "t": 21492.527999999995,
      "d": 3138.058341666663,
      "v": 78
    },
    {
      "midi": 61,
      "hit": false,
      "t": 21716.408499999994,
      "d": 255.5969041666649,
      "v": 72
    },
    {
      "midi": 64,
      "hit": false,
      "t": 21940.288999999993,
      "d": 244.4028791666642,
      "v": 76
    },
    {
      "midi": 61,
      "hit": false,
      "t": 22164.169499999993,
      "d": 208.95513333333292,
      "v": 76
    },
    {
      "midi": 57,
      "hit": false,
      "t": 22388.049999999992,
      "d": 455.2236833333336,
      "v": 74
    },
    {
      "midi": 61,
      "hit": false,
      "t": 22611.93049999999,
      "d": 220.14915833333362,
      "v": 75
    },
    {
      "midi": 64,
      "hit": false,
      "t": 22835.81099999999,
      "d": 255.59690416666854,
      "v": 70
    },
    {
      "midi": 61,
      "hit": false,
      "t": 23059.691499999994,
      "d": 210.82080416666577,
      "v": 75
    },
    {
      "midi": 57,
      "hit": false,
      "t": 23283.571999999993,
      "d": 546.6415541666684,
      "v": 76
    },
    {
      "midi": 61,
      "hit": false,
      "t": 23507.452499999992,
      "d": 201.49245000000155,
      "v": 75
    },
    {
      "midi": 64,
      "hit": false,
      "t": 23731.332999999995,
      "d": 242.53720833333136,
      "v": 73
    },
    {
      "midi": 61,
      "hit": false,
      "t": 23955.213499999994,
      "d": 207.08946250000008,
      "v": 75
    },
    {
      "midi": 57,
      "hit": false,
      "t": 24179.093999999994,
      "d": 404.8505708333323,
      "v": 74
    },
    {
      "midi": 61,
      "hit": false,
      "t": 24402.974499999993,
      "d": 197.76110833333223,
      "v": 75
    },
    {
      "midi": 64,
      "hit": false,
      "t": 24626.854999999992,
      "d": 192.1640958333337,
      "v": 70
    },
    {
      "midi": 61,
      "hit": false,
      "t": 24850.73549999999,
      "d": 152.9850083333331,
      "v": 75
    },
    {
      "midi": 56,
      "hit": false,
      "t": 25074.61599999999,
      "d": 682.8355250000022,
      "v": 75
    },
    {
      "midi": 44,
      "hit": false,
      "t": 25074.61599999999,
      "d": 3186.565783333328,
      "v": 75
    },
    {
      "midi": 52,
      "hit": false,
      "t": 25074.61599999999,
      "d": 3244.4015791666607,
      "v": 77
    },
    {
      "midi": 61,
      "hit": false,
      "t": 25298.496499999994,
      "d": 223.8804999999993,
      "v": 70
    },
    {
      "midi": 64,
      "hit": false,
      "t": 25522.376999999993,
      "d": 235.074525,
      "v": 74
    },
    {
      "midi": 61,
      "hit": false,
      "t": 25746.257499999992,
      "d": 210.82080416666577,
      "v": 70
    },
    {
      "midi": 56,
      "hit": false,
      "t": 25970.13799999999,
      "d": 494.4027708333306,
      "v": 77
    },
    {
      "midi": 61,
      "hit": false,
      "t": 26194.01849999999,
      "d": 192.1640958333337,
      "v": 74
    },
    {
      "midi": 64,
      "hit": false,
      "t": 26417.89899999999,
      "d": 227.611841666665,
      "v": 74
    },
    {
      "midi": 61,
      "hit": false,
      "t": 26641.77949999999,
      "d": 201.49244999999792,
      "v": 74
    },
    {
      "midi": 56,
      "hit": false,
      "t": 26865.65999999999,
      "d": 531.7161874999983,
      "v": 75
    },
    {
      "midi": 61,
      "hit": false,
      "t": 27089.54049999999,
      "d": 197.76110833333223,
      "v": 73
    },
    {
      "midi": 64,
      "hit": false,
      "t": 27313.420999999988,
      "d": 255.5969041666649,
      "v": 74
    },
    {
      "midi": 61,
      "hit": false,
      "t": 27537.301499999987,
      "d": 190.29842499999722,
      "v": 71
    },
    {
      "midi": 56,
      "hit": false,
      "t": 27761.181999999983,
      "d": 597.0146666666697,
      "v": 77
    },
    {
      "midi": 61,
      "hit": false,
      "t": 27985.06249999998,
      "d": 175.37305833333448,
      "v": 73
    },
    {
      "midi": 64,
      "hit": false,
      "t": 28208.942999999985,
      "d": 240.67153749999852,
      "v": 76
    },
    {
      "midi": 61,
      "hit": false,
      "t": 28432.823499999984,
      "d": 184.7014124999987,
      "v": 72
    },
    {
      "midi": 54,
      "hit": false,
      "t": 28656.703999999983,
      "d": 548.5072250000012,
      "v": 75
    },
    {
      "midi": 49,
      "hit": false,
      "t": 28656.703999999983,
      "d": 3063.4315083333277,
      "v": 75
    },
    {
      "midi": 42,
      "hit": false,
      "t": 28656.703999999983,
      "d": 3083.9538874999926,
      "v": 75
    },
    {
      "midi": 61,
      "hit": false,
      "t": 28880.584499999983,
      "d": 139.9253125000032,
      "v": 71
    },
    {
      "midi": 66,
      "hit": false,
      "t": 29104.464999999986,
      "d": 227.611841666665,
      "v": 72
    },
    {
      "midi": 61,
      "hit": false,
      "t": 29328.345499999985,
      "d": 205.22379166666724,
      "v": 73
    },
    {
      "midi": 54,
      "hit": false,
      "t": 29552.225999999984,
      "d": 264.92525833333275,
      "v": 69
    },
    {
      "midi": 61,
      "hit": false,
      "t": 29776.106499999983,
      "d": 249.99989166666637,
      "v": 72
    },
    {
      "midi": 66,
      "hit": false,
      "t": 29999.986999999983,
      "d": 251.8655624999992,
      "v": 73
    },
    {
      "midi": 61,
      "hit": false,
      "t": 30223.867499999982,
      "d": 212.6864749999986,
      "v": 72
    },
    {
      "midi": 54,
      "hit": false,
      "t": 30447.74799999998,
      "d": 264.92525833333275,
      "v": 74
    },
    {
      "midi": 61,
      "hit": false,
      "t": 30671.62849999998,
      "d": 208.95513333333292,
      "v": 70
    },
    {
      "midi": 66,
      "hit": false,
      "t": 30895.50899999998,
      "d": 240.67153749999852,
      "v": 74
    },
    {
      "midi": 61,
      "hit": false,
      "t": 31119.38949999998,
      "d": 173.507387499998,
      "v": 73
    },
    {
      "midi": 54,
      "hit": false,
      "t": 31343.26999999998,
      "d": 535.447529166664,
      "v": 74
    },
    {
      "midi": 61,
      "hit": false,
      "t": 31567.150499999978,
      "d": 154.85067916666594,
      "v": 71
    },
    {
      "midi": 66,
      "hit": false,
      "t": 31791.030999999977,
      "d": 236.94019583333284,
      "v": 75
    },
    {
      "midi": 61,
      "hit": false,
      "t": 32014.911499999977,
      "d": 212.6864749999986,
      "v": 71
    },
    {
      "midi": 54,
      "hit": false,
      "t": 32238.791999999976,
      "d": 671.6414999999943,
      "v": 76
    },
    {
      "midi": 38,
      "hit": false,
      "t": 32238.791999999976,
      "d": 3408.580612499998,
      "v": 76
    },
    {
      "midi": 45,
      "hit": false,
      "t": 32238.791999999976,
      "d": 3417.908966666666,
      "v": 76
    },
    {
      "midi": 62,
      "hit": false,
      "t": 32462.672499999975,
      "d": 270.5222708333313,
      "v": 71
    },
    {
      "midi": 66,
      "hit": false,
      "t": 32686.552999999974,
      "d": 235.07452499999272,
      "v": 74
    },
    {
      "midi": 62,
      "hit": false,
      "t": 32910.43349999997,
      "d": 229.47751250000147,
      "v": 74
    },
    {
      "midi": 54,
      "hit": false,
      "t": 33134.31399999997,
      "d": 444.0296583333329,
      "v": 75
    },
    {
      "midi": 62,
      "hit": false,
      "t": 33358.19449999997,
      "d": 242.537208333335,
      "v": 74
    },
    {
      "midi": 66,
      "hit": false,
      "t": 33582.07499999997,
      "d": 240.67153749999852,
      "v": 74
    },
    {
      "midi": 62,
      "hit": false,
      "t": 33805.95549999997,
      "d": 205.2237916666636,
      "v": 77
    },
    {
      "midi": 54,
      "hit": false,
      "t": 34029.83599999997,
      "d": 251.86556250000285,
      "v": 75
    },
    {
      "midi": 62,
      "hit": false,
      "t": 34253.716499999966,
      "d": 205.22379166667088,
      "v": 74
    },
    {
      "midi": 66,
      "hit": false,
      "t": 34477.59699999997,
      "d": 240.67153749999852,
      "v": 74
    },
    {
      "midi": 62,
      "hit": false,
      "t": 34701.47749999997,
      "d": 223.8804999999993,
      "v": 78
    },
    {
      "midi": 54,
      "hit": false,
      "t": 34925.35799999997,
      "d": 268.6566000000021,
      "v": 75
    },
    {
      "midi": 62,
      "hit": false,
      "t": 35149.23849999997,
      "d": 197.7611083333395,
      "v": 75
    },
    {
      "midi": 66,
      "hit": false,
      "t": 35373.11899999998,
      "d": 216.41781666666793,
      "v": 75
    },
    {
      "midi": 62,
      "hit": false,
      "t": 35596.999499999976,
      "d": 110.07457916666317,
      "v": 75
    },
    {
      "midi": 57,
      "hit": false,
      "t": 35820.879999999976,
      "d": 570.8952750000099,
      "v": 75
    },
    {
      "midi": 45,
      "hit": false,
      "t": 35820.879999999976,
      "d": 3076.4912041666757,
      "v": 75
    },
    {
      "midi": 52,
      "hit": false,
      "t": 35820.879999999976,
      "d": 3138.0583416666777,
      "v": 75
    },
    {
      "midi": 61,
      "hit": false,
      "t": 36044.760499999975,
      "d": 255.5969041666758,
      "v": 72
    },
    {
      "midi": 64,
      "hit": false,
      "t": 36268.64099999998,
      "d": 244.40287916667148,
      "v": 76
    },
    {
      "midi": 61,
      "hit": false,
      "t": 36492.52149999999,
      "d": 208.9551333333293,
      "v": 76
    },
    {
      "midi": 57,
      "hit": false,
      "t": 36716.40199999999,
      "d": 455.22368333333,
      "v": 74
    },
    {
      "midi": 61,
      "hit": false,
      "t": 36940.28249999999,
      "d": 220.14915833333362,
      "v": 75
    },
    {
      "midi": 64,
      "hit": false,
      "t": 37164.162999999986,
      "d": 255.59690416666854,
      "v": 70
    },
    {
      "midi": 61,
      "hit": false,
      "t": 37388.043499999985,
      "d": 210.82080416666577,
      "v": 75
    },
    {
      "midi": 57,
      "hit": false,
      "t": 37611.923999999985,
      "d": 546.6415541666647,
      "v": 76
    },
    {
      "midi": 61,
      "hit": false,
      "t": 37835.804499999984,
      "d": 201.49244999999792,
      "v": 75
    },
    {
      "midi": 64,
      "hit": false,
      "t": 38059.68499999998,
      "d": 242.537208333335,
      "v": 73
    },
    {
      "midi": 61,
      "hit": false,
      "t": 38283.56549999998,
      "d": 207.08946250000008,
      "v": 75
    },
    {
      "midi": 57,
      "hit": false,
      "t": 38507.44599999998,
      "d": 404.8505708333396,
      "v": 74
    },
    {
      "midi": 61,
      "hit": false,
      "t": 38731.32649999998,
      "d": 197.7611083333395,
      "v": 75
    },
    {
      "midi": 64,
      "hit": false,
      "t": 38955.20699999999,
      "d": 192.16409583333007,
      "v": 70
    },
    {
      "midi": 61,
      "hit": false,
      "t": 39179.08749999999,
      "d": 152.98500833333674,
      "v": 75
    },
    {
      "midi": 56,
      "hit": false,
      "t": 39402.96799999999,
      "d": 682.835524999995,
      "v": 75
    },
    {
      "midi": 44,
      "hit": false,
      "t": 39402.96799999999,
      "d": 3186.5657833333316,
      "v": 75
    },
    {
      "midi": 52,
      "hit": false,
      "t": 39402.96799999999,
      "d": 3244.401579166668,
      "v": 77
    },
    {
      "midi": 61,
      "hit": false,
      "t": 39626.84849999999,
      "d": 223.8804999999993,
      "v": 70
    },
    {
      "midi": 64,
      "hit": false,
      "t": 39850.72899999999,
      "d": 235.07452499999636,
      "v": 74
    },
    {
      "midi": 61,
      "hit": false,
      "t": 40074.60949999999,
      "d": 210.82080416666577,
      "v": 70
    },
    {
      "midi": 56,
      "hit": false,
      "t": 40298.48999999999,
      "d": 494.4027708333306,
      "v": 77
    },
    {
      "midi": 61,
      "hit": false,
      "t": 40522.37049999999,
      "d": 192.16409583333007,
      "v": 74
    },
    {
      "midi": 64,
      "hit": false,
      "t": 40746.25099999999,
      "d": 227.611841666665,
      "v": 74
    },
    {
      "midi": 61,
      "hit": false,
      "t": 40970.13149999999,
      "d": 201.49244999999792,
      "v": 74
    },
    {
      "midi": 56,
      "hit": false,
      "t": 41194.01199999999,
      "d": 531.716187500002,
      "v": 75
    },
    {
      "midi": 61,
      "hit": false,
      "t": 41417.89249999999,
      "d": 197.76110833333223,
      "v": 68
    },
    {
      "midi": 64,
      "hit": false,
      "t": 41641.77299999999,
      "d": 255.5969041666758,
      "v": 74
    },
    {
      "midi": 61,
      "hit": false,
      "t": 41865.65349999999,
      "d": 190.29842500000086,
      "v": 71
    },
    {
      "midi": 56,
      "hit": false,
      "t": 42089.53399999999,
      "d": 597.0146666666697,
      "v": 77
    },
    {
      "midi": 61,
      "hit": false,
      "t": 42313.41449999999,
      "d": 175.37305833333085,
      "v": 73
    },
    {
      "midi": 64,
      "hit": false,
      "t": 42537.29499999999,
      "d": 240.6715375000058,
      "v": 76
    },
    {
      "midi": 61,
      "hit": false,
      "t": 42761.1755,
      "d": 184.7014124999987,
      "v": 72
    },
    {
      "midi": 54,
      "hit": false,
      "t": 42985.056,
      "d": 548.5072250000085,
      "v": 73
    },
    {
      "midi": 49,
      "hit": false,
      "t": 42985.056,
      "d": 3063.431508333335,
      "v": 73
    },
    {
      "midi": 42,
      "hit": false,
      "t": 42985.056,
      "d": 3083.953887500007,
      "v": 73
    },
    {
      "midi": 61,
      "hit": false,
      "t": 43208.936499999996,
      "d": 139.9253125000032,
      "v": 68
    },
    {
      "midi": 66,
      "hit": false,
      "t": 43432.817,
      "d": 227.611841666665,
      "v": 72
    },
    {
      "midi": 61,
      "hit": false,
      "t": 43656.6975,
      "d": 205.2237916666636,
      "v": 73
    },
    {
      "midi": 54,
      "hit": false,
      "t": 43880.578,
      "d": 264.9252583333291,
      "v": 69
    },
    {
      "midi": 61,
      "hit": false,
      "t": 44104.4585,
      "d": 249.99989166666637,
      "v": 72
    },
    {
      "midi": 66,
      "hit": false,
      "t": 44328.339,
      "d": 251.86556250000285,
      "v": 73
    },
    {
      "midi": 61,
      "hit": false,
      "t": 44552.2195,
      "d": 212.68647500000225,
      "v": 72
    },
    {
      "midi": 54,
      "hit": false,
      "t": 44776.1,
      "d": 264.9252583333291,
      "v": 74
    },
    {
      "midi": 61,
      "hit": false,
      "t": 44999.9805,
      "d": 208.9551333333293,
      "v": 70
    },
    {
      "midi": 66,
      "hit": false,
      "t": 45223.861,
      "d": 240.67153749999852,
      "v": 74
    },
    {
      "midi": 61,
      "hit": false,
      "t": 45447.7415,
      "d": 173.50738750000164,
      "v": 73
    },
    {
      "midi": 54,
      "hit": false,
      "t": 45671.621999999996,
      "d": 535.4475291666749,
      "v": 74
    },
    {
      "midi": 61,
      "hit": false,
      "t": 45895.502499999995,
      "d": 154.85067916667322,
      "v": 71
    },
    {
      "midi": 66,
      "hit": false,
      "t": 46119.383,
      "d": 236.94019583333284,
      "v": 75
    },
    {
      "midi": 61,
      "hit": false,
      "t": 46343.2635,
      "d": 212.68647500000225,
      "v": 71
    },
    {
      "midi": 54,
      "hit": false,
      "t": 46567.144,
      "d": 671.6414999999979,
      "v": 76
    },
    {
      "midi": 38,
      "hit": false,
      "t": 46567.144,
      "d": 3408.5806125000017,
      "v": 76
    },
    {
      "midi": 45,
      "hit": false,
      "t": 46567.144,
      "d": 3417.9089666666696,
      "v": 76
    },
    {
      "midi": 62,
      "hit": false,
      "t": 46791.0245,
      "d": 270.5222708333313,
      "v": 71
    },
    {
      "midi": 66,
      "hit": false,
      "t": 47014.905,
      "d": 235.07452499999636,
      "v": 74
    },
    {
      "midi": 62,
      "hit": false,
      "t": 47238.7855,
      "d": 229.47751250000147,
      "v": 74
    },
    {
      "midi": 54,
      "hit": false,
      "t": 47462.666,
      "d": 444.0296583333329,
      "v": 75
    },
    {
      "midi": 62,
      "hit": false,
      "t": 47686.5465,
      "d": 242.537208333335,
      "v": 74
    },
    {
      "midi": 66,
      "hit": false,
      "t": 47910.426999999996,
      "d": 240.67153749999852,
      "v": 74
    },
    {
      "midi": 62,
      "hit": false,
      "t": 48134.307499999995,
      "d": 205.2237916666636,
      "v": 77
    },
    {
      "midi": 54,
      "hit": false,
      "t": 48358.187999999995,
      "d": 251.86556250000285,
      "v": 75
    },
    {
      "midi": 62,
      "hit": false,
      "t": 48582.068499999994,
      "d": 205.22379166667088,
      "v": 74
    },
    {
      "midi": 66,
      "hit": false,
      "t": 48805.949,
      "d": 240.67153749999852,
      "v": 74
    },
    {
      "midi": 62,
      "hit": false,
      "t": 49029.8295,
      "d": 223.8804999999993,
      "v": 78
    },
    {
      "midi": 54,
      "hit": false,
      "t": 49253.71,
      "d": 268.6566000000021,
      "v": 75
    },
    {
      "midi": 62,
      "hit": false,
      "t": 49477.5905,
      "d": 197.7611083333395,
      "v": 78
    },
    {
      "midi": 66,
      "hit": false,
      "t": 49701.471000000005,
      "d": 216.41781666666793,
      "v": 78
    },
    {
      "midi": 62,
      "hit": false,
      "t": 49925.351500000004,
      "d": 110.07457916666317,
      "v": 78
    },
    {
      "midi": 57,
      "hit": false,
      "t": 50149.232,
      "d": 570.8952750000099,
      "v": 78
    },
    {
      "midi": 45,
      "hit": false,
      "t": 50149.232,
      "d": 3076.4912041666757,
      "v": 78
    },
    {
      "midi": 52,
      "hit": false,
      "t": 50149.232,
      "d": 3138.0583416666777,
      "v": 78
    },
    {
      "midi": 61,
      "hit": false,
      "t": 50373.1125,
      "d": 255.5969041666758,
      "v": 72
    },
    {
      "midi": 64,
      "hit": false,
      "t": 50596.99300000001,
      "d": 244.40287916667148,
      "v": 76
    },
    {
      "midi": 61,
      "hit": false,
      "t": 50820.873500000016,
      "d": 208.9551333333293,
      "v": 76
    },
    {
      "midi": 57,
      "hit": false,
      "t": 51044.754000000015,
      "d": 455.22368333333,
      "v": 74
    },
    {
      "midi": 61,
      "hit": false,
      "t": 51268.634500000015,
      "d": 220.14915833333362,
      "v": 75
    },
    {
      "midi": 64,
      "hit": false,
      "t": 51492.515000000014,
      "d": 255.59690416666854,
      "v": 70
    },
    {
      "midi": 61,
      "hit": false,
      "t": 51716.39550000001,
      "d": 210.82080416666577,
      "v": 75
    },
    {
      "midi": 57,
      "hit": false,
      "t": 51940.27600000001,
      "d": 546.6415541666647,
      "v": 76
    },
    {
      "midi": 61,
      "hit": false,
      "t": 52164.15650000001,
      "d": 201.49244999999792,
      "v": 75
    },
    {
      "midi": 64,
      "hit": false,
      "t": 52388.03700000001,
      "d": 242.537208333335,
      "v": 73
    },
    {
      "midi": 61,
      "hit": false,
      "t": 52611.91750000001,
      "d": 207.08946250000008,
      "v": 75
    },
    {
      "midi": 57,
      "hit": false,
      "t": 52835.79800000001,
      "d": 404.8505708333396,
      "v": 74
    },
    {
      "midi": 61,
      "hit": false,
      "t": 53059.67850000001,
      "d": 197.7611083333395,
      "v": 75
    },
    {
      "midi": 64,
      "hit": false,
      "t": 53283.559000000016,
      "d": 192.16409583333007,
      "v": 70
    },
    {
      "midi": 61,
      "hit": false,
      "t": 53507.439500000015,
      "d": 152.98500833333674,
      "v": 75
    },
    {
      "midi": 56,
      "hit": false,
      "t": 53731.32000000002,
      "d": 682.835524999995,
      "v": 75
    },
    {
      "midi": 44,
      "hit": false,
      "t": 53731.32000000002,
      "d": 3186.5657833333316,
      "v": 75
    },
    {
      "midi": 52,
      "hit": false,
      "t": 53731.32000000002,
      "d": 3244.401579166668,
      "v": 77
    },
    {
      "midi": 61,
      "hit": false,
      "t": 53955.20050000002,
      "d": 223.8804999999993,
      "v": 70
    },
    {
      "midi": 64,
      "hit": false,
      "t": 54179.08100000002,
      "d": 235.07452499999636,
      "v": 74
    },
    {
      "midi": 61,
      "hit": false,
      "t": 54402.96150000002,
      "d": 210.82080416666577,
      "v": 70
    },
    {
      "midi": 56,
      "hit": false,
      "t": 54626.84200000002,
      "d": 494.4027708333306,
      "v": 77
    },
    {
      "midi": 61,
      "hit": false,
      "t": 54850.72250000002,
      "d": 192.16409583333007,
      "v": 70
    },
    {
      "midi": 64,
      "hit": false,
      "t": 55074.60300000002,
      "d": 227.611841666665,
      "v": 74
    },
    {
      "midi": 61,
      "hit": false,
      "t": 55298.48350000002,
      "d": 201.49244999999792,
      "v": 74
    },
    {
      "midi": 56,
      "hit": false,
      "t": 55522.364000000016,
      "d": 531.716187500002,
      "v": 75
    },
    {
      "midi": 61,
      "hit": false,
      "t": 55746.244500000015,
      "d": 197.76110833333223,
      "v": 68
    },
    {
      "midi": 64,
      "hit": false,
      "t": 55970.125000000015,
      "d": 255.5969041666758,
      "v": 74
    },
    {
      "midi": 61,
      "hit": false,
      "t": 56194.00550000002,
      "d": 190.29842500000086,
      "v": 71
    },
    {
      "midi": 56,
      "hit": false,
      "t": 56417.88600000002,
      "d": 597.0146666666697,
      "v": 77
    },
    {
      "midi": 61,
      "hit": false,
      "t": 56641.76650000002,
      "d": 175.37305833333085,
      "v": 73
    },
    {
      "midi": 64,
      "hit": false,
      "t": 56865.64700000002,
      "d": 240.6715375000058,
      "v": 76
    },
    {
      "midi": 61,
      "hit": false,
      "t": 57089.527500000026,
      "d": 184.7014124999987,
      "v": 72
    },
    {
      "midi": 54,
      "hit": false,
      "t": 57313.408000000025,
      "d": 548.5072250000085,
      "v": 73
    },
    {
      "midi": 49,
      "hit": false,
      "t": 57313.408000000025,
      "d": 3063.431508333335,
      "v": 76
    },
    {
      "midi": 42,
      "hit": false,
      "t": 57313.408000000025,
      "d": 3083.953887500007,
      "v": 76
    },
    {
      "midi": 61,
      "hit": false,
      "t": 57537.288500000024,
      "d": 139.9253125000032,
      "v": 78
    },
    {
      "midi": 66,
      "hit": false,
      "t": 57761.16900000003,
      "d": 227.611841666665,
      "v": 78
    },
    {
      "midi": 61,
      "hit": false,
      "t": 57985.04950000003,
      "d": 205.2237916666636,
      "v": 79
    },
    {
      "midi": 54,
      "hit": false,
      "t": 58208.93000000003,
      "d": 264.9252583333291,
      "v": 80
    },
    {
      "midi": 61,
      "hit": false,
      "t": 58432.81050000003,
      "d": 249.99989166666637,
      "v": 81
    },
    {
      "midi": 66,
      "hit": false,
      "t": 58656.69100000003,
      "d": 251.86556250000285,
      "v": 81
    },
    {
      "midi": 61,
      "hit": false,
      "t": 58880.57150000003,
      "d": 212.68647500000225,
      "v": 82
    },
    {
      "midi": 54,
      "hit": false,
      "t": 59104.45200000003,
      "d": 264.9252583333291,
      "v": 82
    },
    {
      "midi": 61,
      "hit": false,
      "t": 59328.332500000026,
      "d": 208.9551333333293,
      "v": 82
    },
    {
      "midi": 66,
      "hit": false,
      "t": 59552.213000000025,
      "d": 240.67153749999852,
      "v": 81
    },
    {
      "midi": 61,
      "hit": false,
      "t": 59776.093500000025,
      "d": 173.50738750000164,
      "v": 81
    },
    {
      "midi": 54,
      "hit": false,
      "t": 59999.974000000024,
      "d": 535.4475291666749,
      "v": 80
    },
    {
      "midi": 61,
      "hit": false,
      "t": 60223.85450000002,
      "d": 154.85067916667322,
      "v": 79
    },
    {
      "midi": 66,
      "hit": false,
      "t": 60447.73500000003,
      "d": 236.94019583333284,
      "v": 79
    },
    {
      "midi": 61,
      "hit": false,
      "t": 60671.61550000003,
      "d": 212.68647500000225,
      "v": 79
    },
    {
      "midi": 54,
      "hit": false,
      "t": 60895.49600000003,
      "d": 671.6414999999979,
      "v": 81
    },
    {
      "midi": 38,
      "hit": false,
      "t": 60895.49600000003,
      "d": 3408.5806125000017,
      "v": 81
    },
    {
      "midi": 45,
      "hit": false,
      "t": 60895.49600000003,
      "d": 3417.9089666666696,
      "v": 81
    },
    {
      "midi": 57,
      "hit": false,
      "t": 61119.37650000003,
      "d": 270.5222708333313,
      "v": 78
    },
    {
      "midi": 66,
      "hit": false,
      "t": 61343.25700000003,
      "d": 235.07452499999636,
      "v": 78
    },
    {
      "midi": 57,
      "hit": false,
      "t": 61567.137500000026,
      "d": 229.47751250000147,
      "v": 79
    },
    {
      "midi": 54,
      "hit": false,
      "t": 61791.018000000025,
      "d": 444.0296583333329,
      "v": 79
    },
    {
      "midi": 57,
      "hit": false,
      "t": 62014.898500000025,
      "d": 242.537208333335,
      "v": 79
    },
    {
      "midi": 66,
      "hit": false,
      "t": 62238.779000000024,
      "d": 240.67153749999852,
      "v": 79
    },
    {
      "midi": 57,
      "hit": false,
      "t": 62462.65950000002,
      "d": 205.2237916666636,
      "v": 79
    },
    {
      "midi": 54,
      "hit": false,
      "t": 62686.54000000002,
      "d": 251.86556250000285,
      "v": 79
    },
    {
      "midi": 57,
      "hit": false,
      "t": 62910.42050000002,
      "d": 205.22379166667088,
      "v": 79
    },
    {
      "midi": 66,
      "hit": false,
      "t": 63134.30100000003,
      "d": 240.67153749999852,
      "v": 79
    },
    {
      "midi": 57,
      "hit": false,
      "t": 63358.18150000003,
      "d": 223.8804999999993,
      "v": 79
    },
    {
      "midi": 54,
      "hit": false,
      "t": 63582.06200000003,
      "d": 268.6566000000021,
      "v": 79
    },
    {
      "midi": 57,
      "hit": false,
      "t": 63805.94250000003,
      "d": 197.7611083333395,
      "v": 79
    },
    {
      "midi": 66,
      "hit": false,
      "t": 64029.82300000003,
      "d": 216.41781666666793,
      "v": 79
    },
    {
      "midi": 57,
      "hit": false,
      "t": 64253.70350000003,
      "d": 110.07457916666317,
      "v": 79
    },
    {
      "midi": 54,
      "hit": false,
      "t": 64477.58400000003,
      "d": 671.6414999999979,
      "v": 76
    },
    {
      "midi": 40,
      "hit": false,
      "t": 64477.58400000003,
      "d": 1783.5813166666776,
      "v": 76
    },
    {
      "midi": 47,
      "hit": false,
      "t": 64477.58400000003,
      "d": 1783.5813166666776,
      "v": 76
    },
    {
      "midi": 56,
      "hit": false,
      "t": 64701.46450000003,
      "d": 270.5222708333313,
      "v": 75
    },
    {
      "midi": 64,
      "hit": false,
      "t": 64925.34500000003,
      "d": 235.07452499999636,
      "v": 74
    },
    {
      "midi": 56,
      "hit": false,
      "t": 65149.22550000003,
      "d": 229.47751250000147,
      "v": 74
    },
    {
      "midi": 54,
      "hit": false,
      "t": 65373.10600000003,
      "d": 444.02965833332564,
      "v": 75
    },
    {
      "midi": 56,
      "hit": false,
      "t": 65596.98650000003,
      "d": 242.537208333335,
      "v": 74
    },
    {
      "midi": 64,
      "hit": false,
      "t": 65820.86700000003,
      "d": 240.6715375000058,
      "v": 74
    },
    {
      "midi": 56,
      "hit": false,
      "t": 66044.74750000003,
      "d": 205.22379166667815,
      "v": 77
    },
    {
      "midi": 54,
      "hit": false,
      "t": 66268.62800000004,
      "d": 251.86556249999558,
      "v": 75
    },
    {
      "midi": 42,
      "hit": false,
      "t": 66268.62800000004,
      "d": 1617.5366125,
      "v": 76
    },
    {
      "midi": 49,
      "hit": false,
      "t": 66268.62800000004,
      "d": 1626.8649666666606,
      "v": 76
    },
    {
      "midi": 57,
      "hit": false,
      "t": 66492.50850000004,
      "d": 205.2237916666636,
      "v": 74
    },
    {
      "midi": 64,
      "hit": false,
      "t": 66716.38900000004,
      "d": 240.6715375000058,
      "v": 74
    },
    {
      "midi": 57,
      "hit": false,
      "t": 66940.26950000004,
      "d": 223.8804999999993,
      "v": 78
    },
    {
      "midi": 54,
      "hit": false,
      "t": 67164.15000000004,
      "d": 268.6566000000021,
      "v": 75
    },
    {
      "midi": 57,
      "hit": false,
      "t": 67388.03050000004,
      "d": 197.76110833333223,
      "v": 78
    },
    {
      "midi": 64,
      "hit": false,
      "t": 67611.91100000004,
      "d": 216.41781666666793,
      "v": 78
    },
    {
      "midi": 57,
      "hit": false,
      "t": 67835.79150000004,
      "d": 110.07457916667045,
      "v": 78
    },
    {
      "midi": 54,
      "hit": false,
      "t": 68059.67200000004,
      "d": 671.6414999999979,
      "v": 76
    },
    {
      "midi": 38,
      "hit": false,
      "t": 68059.67200000004,
      "d": 3408.580612500009,
      "v": 76
    },
    {
      "midi": 45,
      "hit": false,
      "t": 68059.67200000004,
      "d": 3417.9089666666696,
      "v": 76
    },
    {
      "midi": 57,
      "hit": false,
      "t": 68283.55250000003,
      "d": 270.5222708333313,
      "v": 71
    },
    {
      "midi": 62,
      "hit": false,
      "t": 68507.43300000003,
      "d": 235.07452500000363,
      "v": 74
    },
    {
      "midi": 57,
      "hit": false,
      "t": 68731.31350000003,
      "d": 229.47751250000147,
      "v": 74
    },
    {
      "midi": 54,
      "hit": false,
      "t": 68955.19400000003,
      "d": 444.02965833332564,
      "v": 75
    },
    {
      "midi": 57,
      "hit": false,
      "t": 69179.07450000003,
      "d": 242.537208333335,
      "v": 74
    },
    {
      "midi": 62,
      "hit": false,
      "t": 69402.95500000003,
      "d": 240.6715375000058,
      "v": 74
    },
    {
      "midi": 57,
      "hit": false,
      "t": 69626.83550000003,
      "d": 205.22379166667815,
      "v": 77
    },
    {
      "midi": 54,
      "hit": false,
      "t": 69850.71600000004,
      "d": 251.86556249999558,
      "v": 75
    },
    {
      "midi": 57,
      "hit": false,
      "t": 70074.59650000004,
      "d": 205.2237916666636,
      "v": 74
    },
    {
      "midi": 62,
      "hit": false,
      "t": 70298.47700000004,
      "d": 240.6715375000058,
      "v": 74
    },
    {
      "midi": 57,
      "hit": false,
      "t": 70522.35750000004,
      "d": 223.8804999999993,
      "v": 78
    },
    {
      "midi": 54,
      "hit": false,
      "t": 70746.23800000004,
      "d": 268.6566000000021,
      "v": 75
    },
    {
      "midi": 57,
      "hit": false,
      "t": 70970.11850000004,
      "d": 197.76110833333223,
      "v": 78
    },
    {
      "midi": 62,
      "hit": false,
      "t": 71193.99900000004,
      "d": 216.41781666666793,
      "v": 78
    },
    {
      "midi": 57,
      "hit": false,
      "t": 71417.87950000004,
      "d": 110.07457916667045,
      "v": 78
    },
    {
      "midi": 54,
      "hit": false,
      "t": 71641.76000000005,
      "d": 671.6414999999979,
      "v": 76
    },
    {
      "midi": 40,
      "hit": false,
      "t": 71641.76000000005,
      "d": 1783.5813166666776,
      "v": 76
    },
    {
      "midi": 47,
      "hit": false,
      "t": 71641.76000000005,
      "d": 1783.5813166666776,
      "v": 76
    },
    {
      "midi": 56,
      "hit": false,
      "t": 71865.64050000005,
      "d": 270.5222708333313,
      "v": 71
    },
    {
      "midi": 64,
      "hit": false,
      "t": 72089.52100000005,
      "d": 235.07452500000363,
      "v": 74
    },
    {
      "midi": 56,
      "hit": false,
      "t": 72313.40150000005,
      "d": 229.47751250000147,
      "v": 74
    },
    {
      "midi": 54,
      "hit": false,
      "t": 72537.28200000005,
      "d": 444.02965833332564,
      "v": 75
    },
    {
      "midi": 56,
      "hit": false,
      "t": 72761.16250000005,
      "d": 242.537208333335,
      "v": 74
    },
    {
      "midi": 64,
      "hit": false,
      "t": 72985.04300000005,
      "d": 240.6715375000058,
      "v": 74
    },
    {
      "midi": 56,
      "hit": false,
      "t": 73208.92350000005,
      "d": 205.22379166667815,
      "v": 77
    },
    {
      "midi": 54,
      "hit": false,
      "t": 73432.80400000006,
      "d": 251.86556249999558,
      "v": 75
    },
    {
      "midi": 42,
      "hit": false,
      "t": 73432.80400000006,
      "d": 1617.5366125,
      "v": 76
    },
    {
      "midi": 49,
      "hit": false,
      "t": 73432.80400000006,
      "d": 1626.8649666666606,
      "v": 76
    },
    {
      "midi": 57,
      "hit": false,
      "t": 73656.68450000006,
      "d": 205.2237916666636,
      "v": 74
    },
    {
      "midi": 64,
      "hit": false,
      "t": 73880.56500000006,
      "d": 240.6715375000058,
      "v": 74
    },
    {
      "midi": 57,
      "hit": false,
      "t": 74104.44550000006,
      "d": 223.8804999999993,
      "v": 78
    },
    {
      "midi": 54,
      "hit": false,
      "t": 74328.32600000006,
      "d": 268.6566000000021,
      "v": 75
    },
    {
      "midi": 57,
      "hit": false,
      "t": 74552.20650000006,
      "d": 197.76110833333223,
      "v": 78
    },
    {
      "midi": 64,
      "hit": false,
      "t": 74776.08700000006,
      "d": 216.41781666666793,
      "v": 78
    },
    {
      "midi": 57,
      "hit": false,
      "t": 74999.96750000006,
      "d": 110.07457916667045,
      "v": 78
    },
    {
      "midi": 54,
      "hit": false,
      "t": 75223.84800000006,
      "d": 671.6414999999979,
      "v": 74
    },
    {
      "midi": 38,
      "hit": false,
      "t": 75223.84800000006,
      "d": 5141.788816666682,
      "v": 74
    },
    {
      "midi": 45,
      "hit": false,
      "t": 75223.84800000006,
      "d": 5151.117170833342,
      "v": 74
    },
    {
      "midi": 57,
      "hit": false,
      "t": 75447.72850000006,
      "d": 270.5222708333313,
      "v": 73
    },
    {
      "midi": 66,
      "hit": false,
      "t": 75671.60900000005,
      "d": 235.07452500000363,
      "v": 70
    },
    {
      "midi": 57,
      "hit": false,
      "t": 75895.48950000005,
      "d": 229.47751250000147,
      "v": 70
    },
    {
      "midi": 54,
      "hit": false,
      "t": 76119.37000000005,
      "d": 444.02965833332564,
      "v": 69
    },
    {
      "midi": 57,
      "hit": false,
      "t": 76343.25050000005,
      "d": 242.537208333335,
      "v": 69
    },
    {
      "midi": 66,
      "hit": false,
      "t": 76567.13100000005,
      "d": 240.6715375000058,
      "v": 69
    },
    {
      "midi": 57,
      "hit": false,
      "t": 76791.01150000005,
      "d": 205.22379166667815,
      "v": 67
    },
    {
      "midi": 54,
      "hit": false,
      "t": 77014.89200000007,
      "d": 251.86556249999558,
      "v": 65
    },
    {
      "midi": 56,
      "hit": false,
      "t": 77238.77250000006,
      "d": 205.2237916666636,
      "v": 64
    },
    {
      "midi": 64,
      "hit": false,
      "t": 77462.65300000006,
      "d": 240.6715375000058,
      "v": 64
    },
    {
      "midi": 56,
      "hit": false,
      "t": 77686.53350000006,
      "d": 223.8804999999993,
      "v": 61
    },
    {
      "midi": 54,
      "hit": false,
      "t": 77910.41400000006,
      "d": 268.6566000000021,
      "v": 58
    },
    {
      "midi": 56,
      "hit": false,
      "t": 78134.29450000006,
      "d": 197.76110833333223,
      "v": 57
    },
    {
      "midi": 64,
      "hit": false,
      "t": 78358.17500000006,
      "d": 216.41781666666793,
      "v": 54
    },
    {
      "midi": 56,
      "hit": false,
      "t": 78582.05550000006,
      "d": 110.07457916667045,
      "v": 52
    },
    {
      "midi": 54,
      "hit": false,
      "t": 78805.93600000007,
      "d": 671.6414999999979,
      "v": 54
    },
    {
      "midi": 57,
      "hit": false,
      "t": 79029.81650000007,
      "d": 270.5222708333313,
      "v": 51
    },
    {
      "midi": 66,
      "hit": false,
      "t": 79253.69700000007,
      "d": 235.07452500000363,
      "v": 51
    },
    {
      "midi": 57,
      "hit": false,
      "t": 79477.57750000007,
      "d": 229.47751250000147,
      "v": 50
    },
    {
      "midi": 54,
      "hit": false,
      "t": 79701.45800000007,
      "d": 444.02965833332564,
      "v": 49
    },
    {
      "midi": 57,
      "hit": false,
      "t": 79925.33850000007,
      "d": 242.537208333335,
      "v": 49
    },
    {
      "midi": 66,
      "hit": false,
      "t": 80149.21900000007,
      "d": 240.67153749999125,
      "v": 47
    },
    {
      "midi": 57,
      "hit": false,
      "t": 80373.09950000007,
      "d": 160.44769166666083,
      "v": 41
    },
    {
      "midi": 57,
      "hit": false,
      "t": 80596.98000000005,
      "d": 570.8952750000026,
      "v": 95
    },
    {
      "midi": 33,
      "hit": false,
      "t": 80596.98000000005,
      "d": 1705.2231416666618,
      "v": 95
    },
    {
      "midi": 45,
      "hit": false,
      "t": 80596.98000000005,
      "d": 1714.5514958333224,
      "v": 95
    },
    {
      "midi": 61,
      "hit": false,
      "t": 80820.86050000005,
      "d": 255.59690416666854,
      "v": 89
    },
    {
      "midi": 69,
      "hit": false,
      "t": 81044.74100000005,
      "d": 244.4028791666642,
      "v": 93
    },
    {
      "midi": 61,
      "hit": false,
      "t": 81268.62150000005,
      "d": 208.95513333333656,
      "v": 93
    },
    {
      "midi": 57,
      "hit": false,
      "t": 81492.50200000005,
      "d": 455.22368333333,
      "v": 91
    },
    {
      "midi": 61,
      "hit": false,
      "t": 81716.38250000005,
      "d": 220.14915833332634,
      "v": 92
    },
    {
      "midi": 69,
      "hit": false,
      "t": 81940.26300000005,
      "d": 255.59690416666854,
      "v": 87
    },
    {
      "midi": 61,
      "hit": false,
      "t": 82164.14350000005,
      "d": 210.82080416666577,
      "v": 92
    },
    {
      "midi": 56,
      "hit": false,
      "t": 82388.02400000005,
      "d": 546.6415541666647,
      "v": 93
    },
    {
      "midi": 40,
      "hit": false,
      "t": 82388.02400000005,
      "d": 1714.5514958333515,
      "v": 95
    },
    {
      "midi": 47,
      "hit": false,
      "t": 82388.02400000005,
      "d": 1714.5514958333515,
      "v": 95
    },
    {
      "midi": 59,
      "hit": false,
      "t": 82611.90450000005,
      "d": 201.4924500000052,
      "v": 92
    },
    {
      "midi": 68,
      "hit": false,
      "t": 82835.78500000005,
      "d": 242.537208333335,
      "v": 90
    },
    {
      "midi": 59,
      "hit": false,
      "t": 83059.66550000005,
      "d": 207.08946250000736,
      "v": 92
    },
    {
      "midi": 56,
      "hit": false,
      "t": 83283.54600000006,
      "d": 404.8505708333396,
      "v": 91
    },
    {
      "midi": 59,
      "hit": false,
      "t": 83507.42650000006,
      "d": 197.76110833334678,
      "v": 92
    },
    {
      "midi": 68,
      "hit": false,
      "t": 83731.30700000007,
      "d": 192.16409583333007,
      "v": 87
    },
    {
      "midi": 59,
      "hit": false,
      "t": 83955.18750000007,
      "d": 152.98500833332946,
      "v": 92
    },
    {
      "midi": 57,
      "hit": false,
      "t": 84179.06800000007,
      "d": 682.8355250000022,
      "v": 92
    },
    {
      "midi": 42,
      "hit": false,
      "t": 84179.06800000007,
      "d": 1783.581316666663,
      "v": 92
    },
    {
      "midi": 49,
      "hit": false,
      "t": 84179.06800000007,
      "d": 1783.581316666663,
      "v": 94
    },
    {
      "midi": 61,
      "hit": false,
      "t": 84402.94850000007,
      "d": 223.8804999999993,
      "v": 87
    },
    {
      "midi": 69,
      "hit": false,
      "t": 84626.82900000007,
      "d": 235.07452500000363,
      "v": 91
    },
    {
      "midi": 61,
      "hit": false,
      "t": 84850.70950000007,
      "d": 210.82080416666577,
      "v": 87
    },
    {
      "midi": 57,
      "hit": false,
      "t": 85074.59000000007,
      "d": 494.4027708333306,
      "v": 94
    },
    {
      "midi": 61,
      "hit": false,
      "t": 85298.47050000007,
      "d": 192.16409583333007,
      "v": 91
    },
    {
      "midi": 69,
      "hit": false,
      "t": 85522.35100000007,
      "d": 227.61184166667226,
      "v": 91
    },
    {
      "midi": 61,
      "hit": false,
      "t": 85746.23150000007,
      "d": 201.4924500000052,
      "v": 91
    },
    {
      "midi": 57,
      "hit": false,
      "t": 85970.11200000007,
      "d": 531.716187500002,
      "v": 92
    },
    {
      "midi": 38,
      "hit": false,
      "t": 85970.11200000007,
      "d": 1675.3724083333364,
      "v": 92
    },
    {
      "midi": 50,
      "hit": false,
      "t": 85970.11200000007,
      "d": 1733.2082041666727,
      "v": 94
    },
    {
      "midi": 62,
      "hit": false,
      "t": 86193.99250000007,
      "d": 197.76110833333223,
      "v": 89
    },
    {
      "midi": 69,
      "hit": false,
      "t": 86417.87300000007,
      "d": 255.59690416666854,
      "v": 91
    },
    {
      "midi": 62,
      "hit": false,
      "t": 86641.75350000006,
      "d": 190.29842500000086,
      "v": 88
    },
    {
      "midi": 57,
      "hit": false,
      "t": 86865.63400000006,
      "d": 597.0146666666697,
      "v": 94
    },
    {
      "midi": 62,
      "hit": false,
      "t": 87089.51450000006,
      "d": 175.37305833333812,
      "v": 90
    },
    {
      "midi": 69,
      "hit": false,
      "t": 87313.39500000006,
      "d": 240.6715375000058,
      "v": 93
    },
    {
      "midi": 62,
      "hit": false,
      "t": 87537.27550000006,
      "d": 184.70141250001325,
      "v": 89
    },
    {
      "midi": 57,
      "hit": false,
      "t": 87761.15600000008,
      "d": 570.8952750000026,
      "v": 95
    },
    {
      "midi": 33,
      "hit": false,
      "t": 87761.15600000008,
      "d": 1705.2231416666618,
      "v": 95
    },
    {
      "midi": 45,
      "hit": false,
      "t": 87761.15600000008,
      "d": 1714.5514958333224,
      "v": 95
    },
    {
      "midi": 61,
      "hit": false,
      "t": 87985.03650000007,
      "d": 255.59690416666854,
      "v": 89
    },
    {
      "midi": 69,
      "hit": false,
      "t": 88208.91700000007,
      "d": 244.4028791666642,
      "v": 93
    },
    {
      "midi": 61,
      "hit": false,
      "t": 88432.79750000007,
      "d": 208.95513333333656,
      "v": 93
    },
    {
      "midi": 57,
      "hit": false,
      "t": 88656.67800000007,
      "d": 455.22368333333,
      "v": 91
    },
    {
      "midi": 61,
      "hit": false,
      "t": 88880.55850000007,
      "d": 220.14915833332634,
      "v": 92
    },
    {
      "midi": 69,
      "hit": false,
      "t": 89104.43900000007,
      "d": 255.59690416666854,
      "v": 87
    },
    {
      "midi": 61,
      "hit": false,
      "t": 89328.31950000007,
      "d": 210.82080416666577,
      "v": 92
    },
    {
      "midi": 59,
      "hit": false,
      "t": 89552.20000000007,
      "d": 546.6415541666647,
      "v": 93
    },
    {
      "midi": 40,
      "hit": false,
      "t": 89552.20000000007,
      "d": 1714.5514958333515,
      "v": 95
    },
    {
      "midi": 52,
      "hit": false,
      "t": 89552.20000000007,
      "d": 1714.5514958333515,
      "v": 95
    },
    {
      "midi": 64,
      "hit": false,
      "t": 89776.08050000007,
      "d": 201.4924500000052,
      "v": 92
    },
    {
      "midi": 68,
      "hit": false,
      "t": 89999.96100000007,
      "d": 242.537208333335,
      "v": 90
    },
    {
      "midi": 64,
      "hit": false,
      "t": 90223.84150000007,
      "d": 207.08946250000736,
      "v": 92
    },
    {
      "midi": 59,
      "hit": false,
      "t": 90447.72200000008,
      "d": 404.8505708333396,
      "v": 91
    },
    {
      "midi": 64,
      "hit": false,
      "t": 90671.60250000008,
      "d": 197.76110833334678,
      "v": 92
    },
    {
      "midi": 68,
      "hit": false,
      "t": 90895.4830000001,
      "d": 192.16409583333007,
      "v": 87
    },
    {
      "midi": 64,
      "hit": false,
      "t": 91119.3635000001,
      "d": 152.98500833332946,
      "v": 92
    },
    {
      "midi": 57,
      "hit": false,
      "t": 91343.2440000001,
      "d": 682.8355250000022,
      "v": 92
    },
    {
      "midi": 42,
      "hit": false,
      "t": 91343.2440000001,
      "d": 1783.581316666663,
      "v": 92
    },
    {
      "midi": 49,
      "hit": false,
      "t": 91343.2440000001,
      "d": 1783.581316666663,
      "v": 94
    },
    {
      "midi": 61,
      "hit": false,
      "t": 91567.12450000009,
      "d": 223.8804999999993,
      "v": 90
    },
    {
      "midi": 69,
      "hit": false,
      "t": 91791.00500000009,
      "d": 235.07452500000363,
      "v": 91
    },
    {
      "midi": 61,
      "hit": false,
      "t": 92014.88550000009,
      "d": 210.82080416666577,
      "v": 87
    },
    {
      "midi": 57,
      "hit": false,
      "t": 92238.76600000009,
      "d": 494.4027708333306,
      "v": 94
    },
    {
      "midi": 61,
      "hit": false,
      "t": 92462.64650000009,
      "d": 192.16409583333007,
      "v": 91
    },
    {
      "midi": 69,
      "hit": false,
      "t": 92686.52700000009,
      "d": 227.61184166667226,
      "v": 91
    },
    {
      "midi": 61,
      "hit": false,
      "t": 92910.40750000009,
      "d": 201.4924500000052,
      "v": 91
    },
    {
      "midi": 57,
      "hit": false,
      "t": 93134.28800000009,
      "d": 531.716187500002,
      "v": 92
    },
    {
      "midi": 38,
      "hit": false,
      "t": 93134.28800000009,
      "d": 1675.3724083333364,
      "v": 92
    },
    {
      "midi": 50,
      "hit": false,
      "t": 93134.28800000009,
      "d": 1733.2082041666727,
      "v": 94
    },
    {
      "midi": 62,
      "hit": false,
      "t": 93358.16850000009,
      "d": 197.76110833333223,
      "v": 89
    },
    {
      "midi": 69,
      "hit": false,
      "t": 93582.04900000009,
      "d": 255.59690416666854,
      "v": 91
    },
    {
      "midi": 62,
      "hit": false,
      "t": 93805.92950000009,
      "d": 190.29842500000086,
      "v": 88
    },
    {
      "midi": 57,
      "hit": false,
      "t": 94029.81000000008,
      "d": 597.0146666666697,
      "v": 94
    },
    {
      "midi": 62,
      "hit": false,
      "t": 94253.69050000008,
      "d": 175.37305833333812,
      "v": 90
    },
    {
      "midi": 69,
      "hit": false,
      "t": 94477.57100000008,
      "d": 240.6715375000058,
      "v": 93
    },
    {
      "midi": 62,
      "hit": false,
      "t": 94701.45150000008,
      "d": 184.70141250001325,
      "v": 89
    },
    {
      "midi": 57,
      "hit": false,
      "t": 94925.3320000001,
      "d": 570.8952750000026,
      "v": 95
    },
    {
      "midi": 52,
      "hit": false,
      "t": 94925.3320000001,
      "d": 1705.2231416666618,
      "v": 95
    },
    {
      "midi": 45,
      "hit": false,
      "t": 94925.3320000001,
      "d": 1714.5514958333224,
      "v": 95
    },
    {
      "midi": 61,
      "hit": false,
      "t": 95149.2125000001,
      "d": 255.59690416666854,
      "v": 89
    },
    {
      "midi": 69,
      "hit": false,
      "t": 95373.0930000001,
      "d": 244.4028791666642,
      "v": 93
    },
    {
      "midi": 61,
      "hit": false,
      "t": 95596.9735000001,
      "d": 208.95513333333656,
      "v": 93
    },
    {
      "midi": 57,
      "hit": false,
      "t": 95820.8540000001,
      "d": 455.22368333333,
      "v": 91
    },
    {
      "midi": 61,
      "hit": false,
      "t": 96044.7345000001,
      "d": 220.14915833332634,
      "v": 92
    },
    {
      "midi": 69,
      "hit": false,
      "t": 96268.61500000009,
      "d": 255.59690416666854,
      "v": 87
    },
    {
      "midi": 61,
      "hit": false,
      "t": 96492.49550000009,
      "d": 210.82080416666577,
      "v": 92
    },
    {
      "midi": 56,
      "hit": false,
      "t": 96716.37600000009,
      "d": 546.6415541666647,
      "v": 93
    },
    {
      "midi": 40,
      "hit": false,
      "t": 96716.37600000009,
      "d": 1714.5514958333515,
      "v": 95
    },
    {
      "midi": 52,
      "hit": false,
      "t": 96716.37600000009,
      "d": 1714.5514958333515,
      "v": 95
    },
    {
      "midi": 59,
      "hit": false,
      "t": 96940.25650000009,
      "d": 201.4924500000052,
      "v": 92
    },
    {
      "midi": 68,
      "hit": false,
      "t": 97164.13700000009,
      "d": 242.537208333335,
      "v": 90
    },
    {
      "midi": 59,
      "hit": false,
      "t": 97388.01750000009,
      "d": 207.08946250000736,
      "v": 92
    },
    {
      "midi": 56,
      "hit": false,
      "t": 97611.8980000001,
      "d": 404.8505708333396,
      "v": 91
    },
    {
      "midi": 59,
      "hit": false,
      "t": 97835.7785000001,
      "d": 197.76110833334678,
      "v": 92
    },
    {
      "midi": 68,
      "hit": false,
      "t": 98059.65900000012,
      "d": 192.16409583333007,
      "v": 87
    },
    {
      "midi": 59,
      "hit": false,
      "t": 98283.53950000012,
      "d": 152.98500833332946,
      "v": 92
    },
    {
      "midi": 57,
      "hit": false,
      "t": 98507.42000000011,
      "d": 682.8355250000022,
      "v": 92
    },
    {
      "midi": 42,
      "hit": false,
      "t": 98507.42000000011,
      "d": 1783.581316666663,
      "v": 92
    },
    {
      "midi": 49,
      "hit": false,
      "t": 98507.42000000011,
      "d": 1783.581316666663,
      "v": 94
    },
    {
      "midi": 61,
      "hit": false,
      "t": 98731.30050000011,
      "d": 223.8804999999993,
      "v": 87
    },
    {
      "midi": 69,
      "hit": false,
      "t": 98955.18100000011,
      "d": 235.07452500000363,
      "v": 91
    },
    {
      "midi": 61,
      "hit": false,
      "t": 99179.06150000011,
      "d": 210.82080416666577,
      "v": 87
    },
    {
      "midi": 57,
      "hit": false,
      "t": 99402.94200000011,
      "d": 494.4027708333306,
      "v": 90
    },
    {
      "midi": 61,
      "hit": false,
      "t": 99626.82250000011,
      "d": 192.16409583333007,
      "v": 89
    },
    {
      "midi": 69,
      "hit": false,
      "t": 99850.70300000011,
      "d": 227.61184166667226,
      "v": 88
    },
    {
      "midi": 61,
      "hit": false,
      "t": 100074.58350000011,
      "d": 201.4924500000052,
      "v": 88
    },
    {
      "midi": 57,
      "hit": false,
      "t": 100298.46400000011,
      "d": 531.716187500002,
      "v": 88
    },
    {
      "midi": 38,
      "hit": false,
      "t": 100298.46400000011,
      "d": 1675.3724083333364,
      "v": 88
    },
    {
      "midi": 50,
      "hit": false,
      "t": 100298.46400000011,
      "d": 1733.2082041666727,
      "v": 88
    },
    {
      "midi": 62,
      "hit": false,
      "t": 100522.34450000011,
      "d": 197.76110833333223,
      "v": 88
    },
    {
      "midi": 69,
      "hit": false,
      "t": 100746.22500000011,
      "d": 255.59690416666854,
      "v": 87
    },
    {
      "midi": 62,
      "hit": false,
      "t": 100970.1055000001,
      "d": 190.29842500000086,
      "v": 87
    },
    {
      "midi": 57,
      "hit": false,
      "t": 101193.9860000001,
      "d": 597.0146666666697,
      "v": 87
    },
    {
      "midi": 62,
      "hit": false,
      "t": 101417.8665000001,
      "d": 175.37305833333812,
      "v": 87
    },
    {
      "midi": 69,
      "hit": false,
      "t": 101641.7470000001,
      "d": 240.6715375000058,
      "v": 93
    },
    {
      "midi": 62,
      "hit": false,
      "t": 101865.6275000001,
      "d": 184.70141250001325,
      "v": 89
    },
    {
      "midi": 57,
      "hit": false,
      "t": 102089.50800000012,
      "d": 570.8952750000026,
      "v": 91
    },
    {
      "midi": 33,
      "hit": false,
      "t": 102089.50800000012,
      "d": 1705.2231416666618,
      "v": 91
    },
    {
      "midi": 45,
      "hit": false,
      "t": 102089.50800000012,
      "d": 1714.5514958333224,
      "v": 91
    },
    {
      "midi": 61,
      "hit": false,
      "t": 102313.38850000012,
      "d": 255.59690416666854,
      "v": 83
    },
    {
      "midi": 69,
      "hit": false,
      "t": 102537.26900000012,
      "d": 244.4028791666642,
      "v": 86
    },
    {
      "midi": 61,
      "hit": false,
      "t": 102761.14950000012,
      "d": 208.95513333333656,
      "v": 86
    },
    {
      "midi": 57,
      "hit": false,
      "t": 102985.03000000012,
      "d": 455.22368333333,
      "v": 84
    },
    {
      "midi": 61,
      "hit": false,
      "t": 103208.91050000011,
      "d": 220.14915833332634,
      "v": 85
    },
    {
      "midi": 69,
      "hit": false,
      "t": 103432.79100000011,
      "d": 255.59690416666854,
      "v": 80
    },
    {
      "midi": 61,
      "hit": false,
      "t": 103656.67150000011,
      "d": 210.82080416666577,
      "v": 85
    },
    {
      "midi": 59,
      "hit": false,
      "t": 103880.55200000011,
      "d": 546.6415541666647,
      "v": 86
    },
    {
      "midi": 40,
      "hit": false,
      "t": 103880.55200000011,
      "d": 1714.5514958333515,
      "v": 88
    },
    {
      "midi": 47,
      "hit": false,
      "t": 103880.55200000011,
      "d": 1714.5514958333515,
      "v": 88
    },
    {
      "midi": 64,
      "hit": false,
      "t": 104104.43250000011,
      "d": 201.4924500000052,
      "v": 85
    },
    {
      "midi": 68,
      "hit": false,
      "t": 104328.31300000011,
      "d": 242.537208333335,
      "v": 83
    },
    {
      "midi": 64,
      "hit": false,
      "t": 104552.19350000011,
      "d": 207.08946250000736,
      "v": 85
    },
    {
      "midi": 59,
      "hit": false,
      "t": 104776.07400000012,
      "d": 404.8505708333396,
      "v": 84
    },
    {
      "midi": 64,
      "hit": false,
      "t": 104999.95450000012,
      "d": 197.76110833334678,
      "v": 85
    },
    {
      "midi": 68,
      "hit": false,
      "t": 105223.83500000014,
      "d": 192.16409583333007,
      "v": 80
    },
    {
      "midi": 64,
      "hit": false,
      "t": 105447.71550000014,
      "d": 152.98500833332946,
      "v": 85
    },
    {
      "midi": 57,
      "hit": false,
      "t": 105671.59600000014,
      "d": 682.8355250000022,
      "v": 85
    },
    {
      "midi": 42,
      "hit": false,
      "t": 105671.59600000014,
      "d": 1783.581316666663,
      "v": 85
    },
    {
      "midi": 49,
      "hit": false,
      "t": 105671.59600000014,
      "d": 1783.581316666663,
      "v": 87
    },
    {
      "midi": 61,
      "hit": false,
      "t": 105895.47650000014,
      "d": 223.8804999999993,
      "v": 83
    },
    {
      "midi": 66,
      "hit": false,
      "t": 106119.35700000013,
      "d": 235.07452500000363,
      "v": 84
    },
    {
      "midi": 61,
      "hit": false,
      "t": 106343.23750000013,
      "d": 210.82080416666577,
      "v": 80
    },
    {
      "midi": 57,
      "hit": false,
      "t": 106567.11800000013,
      "d": 494.4027708333306,
      "v": 87
    },
    {
      "midi": 61,
      "hit": false,
      "t": 106790.99850000013,
      "d": 192.16409583333007,
      "v": 84
    },
    {
      "midi": 66,
      "hit": false,
      "t": 107014.87900000013,
      "d": 227.61184166667226,
      "v": 84
    },
    {
      "midi": 61,
      "hit": false,
      "t": 107238.75950000013,
      "d": 201.4924500000052,
      "v": 84
    },
    {
      "midi": 57,
      "hit": false,
      "t": 107462.64000000013,
      "d": 531.716187500002,
      "v": 85
    },
    {
      "midi": 38,
      "hit": false,
      "t": 107462.64000000013,
      "d": 1675.3724083333364,
      "v": 85
    },
    {
      "midi": 50,
      "hit": false,
      "t": 107462.64000000013,
      "d": 1733.2082041666727,
      "v": 87
    },
    {
      "midi": 62,
      "hit": false,
      "t": 107686.52050000013,
      "d": 197.76110833333223,
      "v": 82
    },
    {
      "midi": 66,
      "hit": false,
      "t": 107910.40100000013,
      "d": 255.59690416666854,
      "v": 84
    },
    {
      "midi": 62,
      "hit": false,
      "t": 108134.28150000013,
      "d": 190.29842500000086,
      "v": 81
    },
    {
      "midi": 57,
      "hit": false,
      "t": 108358.16200000013,
      "d": 597.0146666666697,
      "v": 87
    },
    {
      "midi": 62,
      "hit": false,
      "t": 108582.04250000013,
      "d": 175.37305833333812,
      "v": 83
    },
    {
      "midi": 66,
      "hit": false,
      "t": 108805.92300000013,
      "d": 240.6715375000058,
      "v": 86
    },
    {
      "midi": 62,
      "hit": false,
      "t": 109029.80350000013,
      "d": 184.70141250001325,
      "v": 82
    },
    {
      "midi": 57,
      "hit": false,
      "t": 109253.68400000014,
      "d": 570.8952750000026,
      "v": 85
    },
    {
      "midi": 33,
      "hit": false,
      "t": 109253.68400000014,
      "d": 1705.2231416666618,
      "v": 85
    },
    {
      "midi": 45,
      "hit": false,
      "t": 109253.68400000014,
      "d": 1714.5514958333224,
      "v": 85
    },
    {
      "midi": 61,
      "hit": false,
      "t": 109477.56450000014,
      "d": 255.59690416666854,
      "v": 82
    },
    {
      "midi": 64,
      "hit": false,
      "t": 109701.44500000014,
      "d": 244.4028791666642,
      "v": 86
    },
    {
      "midi": 61,
      "hit": false,
      "t": 109925.32550000014,
      "d": 208.95513333333656,
      "v": 86
    },
    {
      "midi": 57,
      "hit": false,
      "t": 110149.20600000014,
      "d": 455.22368333333,
      "v": 84
    },
    {
      "midi": 61,
      "hit": false,
      "t": 110373.08650000014,
      "d": 220.14915833332634,
      "v": 85
    },
    {
      "midi": 64,
      "hit": false,
      "t": 110596.96700000014,
      "d": 255.59690416666854,
      "v": 80
    },
    {
      "midi": 61,
      "hit": false,
      "t": 110820.84750000013,
      "d": 210.82080416666577,
      "v": 85
    },
    {
      "midi": 56,
      "hit": false,
      "t": 111044.72800000013,
      "d": 546.6415541666647,
      "v": 85
    },
    {
      "midi": 40,
      "hit": false,
      "t": 111044.72800000013,
      "d": 1714.5514958333515,
      "v": 85
    },
    {
      "midi": 47,
      "hit": false,
      "t": 111044.72800000013,
      "d": 1714.5514958333515,
      "v": 85
    },
    {
      "midi": 59,
      "hit": false,
      "t": 111268.60850000013,
      "d": 201.4924500000052,
      "v": 85
    },
    {
      "midi": 64,
      "hit": false,
      "t": 111492.48900000013,
      "d": 242.537208333335,
      "v": 83
    },
    {
      "midi": 59,
      "hit": false,
      "t": 111716.36950000013,
      "d": 207.08946250000736,
      "v": 85
    },
    {
      "midi": 56,
      "hit": false,
      "t": 111940.25000000015,
      "d": 404.8505708333396,
      "v": 84
    },
    {
      "midi": 59,
      "hit": false,
      "t": 112164.13050000014,
      "d": 197.76110833334678,
      "v": 85
    },
    {
      "midi": 64,
      "hit": false,
      "t": 112388.01100000016,
      "d": 192.16409583333007,
      "v": 80
    },
    {
      "midi": 59,
      "hit": false,
      "t": 112611.89150000016,
      "d": 152.98500833332946,
      "v": 85
    },
    {
      "midi": 57,
      "hit": false,
      "t": 112835.77200000016,
      "d": 682.8355250000022,
      "v": 85
    },
    {
      "midi": 42,
      "hit": false,
      "t": 112835.77200000016,
      "d": 1783.581316666663,
      "v": 85
    },
    {
      "midi": 49,
      "hit": false,
      "t": 112835.77200000016,
      "d": 1783.581316666663,
      "v": 85
    },
    {
      "midi": 61,
      "hit": false,
      "t": 113059.65250000016,
      "d": 223.8804999999993,
      "v": 76
    },
    {
      "midi": 66,
      "hit": false,
      "t": 113283.53300000016,
      "d": 235.07452500000363,
      "v": 77
    },
    {
      "midi": 61,
      "hit": false,
      "t": 113507.41350000016,
      "d": 210.82080416666577,
      "v": 76
    },
    {
      "midi": 57,
      "hit": false,
      "t": 113731.29400000015,
      "d": 494.4027708333306,
      "v": 75
    },
    {
      "midi": 61,
      "hit": false,
      "t": 113955.17450000015,
      "d": 192.16409583333007,
      "v": 78
    },
    {
      "midi": 66,
      "hit": false,
      "t": 114179.05500000015,
      "d": 227.61184166667226,
      "v": 74
    },
    {
      "midi": 61,
      "hit": false,
      "t": 114402.93550000015,
      "d": 201.4924500000052,
      "v": 75
    },
    {
      "midi": 57,
      "hit": false,
      "t": 114626.81600000015,
      "d": 531.716187500002,
      "v": 76
    },
    {
      "midi": 38,
      "hit": false,
      "t": 114626.81600000015,
      "d": 3475.744762500006,
      "v": 76
    },
    {
      "midi": 45,
      "hit": false,
      "t": 114626.81600000015,
      "d": 3505.595495833346,
      "v": 76
    },
    {
      "midi": 62,
      "hit": false,
      "t": 114850.69650000015,
      "d": 197.76110833333223,
      "v": 73
    },
    {
      "midi": 66,
      "hit": false,
      "t": 115074.57700000015,
      "d": 255.59690416666854,
      "v": 73
    },
    {
      "midi": 62,
      "hit": false,
      "t": 115298.45750000015,
      "d": 190.29842500000086,
      "v": 73
    },
    {
      "midi": 57,
      "hit": false,
      "t": 115522.33800000015,
      "d": 597.0146666666697,
      "v": 73
    },
    {
      "midi": 62,
      "hit": false,
      "t": 115746.21850000015,
      "d": 175.37305833333812,
      "v": 73
    },
    {
      "midi": 66,
      "hit": false,
      "t": 115970.09900000015,
      "d": 240.6715375000058,
      "v": 73
    },
    {
      "midi": 62,
      "hit": false,
      "t": 116193.97950000015,
      "d": 184.70141250001325,
      "v": 68
    },
    {
      "midi": 57,
      "hit": false,
      "t": 116417.86000000016,
      "d": 531.716187500002,
      "v": 67
    },
    {
      "midi": 62,
      "hit": false,
      "t": 116641.74050000016,
      "d": 197.76110833333223,
      "v": 74
    },
    {
      "midi": 66,
      "hit": false,
      "t": 116865.62100000016,
      "d": 255.59690416666854,
      "v": 80
    },
    {
      "midi": 62,
      "hit": false,
      "t": 117089.50150000016,
      "d": 190.29842500000086,
      "v": 85
    },
    {
      "midi": 57,
      "hit": false,
      "t": 117313.38200000016,
      "d": 597.0146666666697,
      "v": 90
    },
    {
      "midi": 62,
      "hit": false,
      "t": 117537.26250000016,
      "d": 175.37305833333812,
      "v": 96
    },
    {
      "midi": 66,
      "hit": false,
      "t": 117761.14300000016,
      "d": 240.6715375000058,
      "v": 95
    },
    {
      "midi": 62,
      "hit": false,
      "t": 117985.02350000016,
      "d": 184.70141250001325,
      "v": 81
    },
    {
      "midi": 57,
      "hit": false,
      "t": 118208.90400000017,
      "d": 570.8952750000026,
      "v": 75
    },
    {
      "midi": 45,
      "hit": false,
      "t": 118208.90400000017,
      "d": 3076.4912041666685,
      "v": 79
    },
    {
      "midi": 52,
      "hit": false,
      "t": 118208.90400000017,
      "d": 3138.0583416666777,
      "v": 79
    },
    {
      "midi": 61,
      "hit": false,
      "t": 118432.78450000017,
      "d": 255.59690416666854,
      "v": 75
    },
    {
      "midi": 64,
      "hit": false,
      "t": 118656.66500000017,
      "d": 244.4028791666642,
      "v": 79
    },
    {
      "midi": 61,
      "hit": false,
      "t": 118880.54550000017,
      "d": 208.95513333333656,
      "v": 79
    },
    {
      "midi": 57,
      "hit": false,
      "t": 119104.42600000017,
      "d": 455.22368333333,
      "v": 77
    },
    {
      "midi": 61,
      "hit": false,
      "t": 119328.30650000017,
      "d": 220.14915833332634,
      "v": 78
    },
    {
      "midi": 64,
      "hit": false,
      "t": 119552.18700000017,
      "d": 255.59690416666854,
      "v": 82
    },
    {
      "midi": 61,
      "hit": false,
      "t": 119776.06750000016,
      "d": 210.82080416666577,
      "v": 82
    },
    {
      "midi": 57,
      "hit": false,
      "t": 119999.94800000016,
      "d": 546.6415541666647,
      "v": 82
    },
    {
      "midi": 61,
      "hit": false,
      "t": 120223.82850000016,
      "d": 201.4924500000052,
      "v": 78
    },
    {
      "midi": 64,
      "hit": false,
      "t": 120447.70900000016,
      "d": 242.537208333335,
      "v": 76
    },
    {
      "midi": 61,
      "hit": false,
      "t": 120671.58950000016,
      "d": 207.08946250000736,
      "v": 78
    },
    {
      "midi": 57,
      "hit": false,
      "t": 120895.47000000018,
      "d": 404.85057083332504,
      "v": 77
    },
    {
      "midi": 61,
      "hit": false,
      "t": 121119.35050000018,
      "d": 197.76110833333223,
      "v": 78
    },
    {
      "midi": 64,
      "hit": false,
      "t": 121343.23100000017,
      "d": 192.16409583334462,
      "v": 73
    },
    {
      "midi": 61,
      "hit": false,
      "t": 121567.11150000019,
      "d": 152.98500833332946,
      "v": 78
    },
    {
      "midi": 56,
      "hit": false,
      "t": 121790.99200000019,
      "d": 682.8355250000022,
      "v": 78
    },
    {
      "midi": 44,
      "hit": false,
      "t": 121790.99200000019,
      "d": 3186.5657833333244,
      "v": 78
    },
    {
      "midi": 52,
      "hit": false,
      "t": 121790.99200000019,
      "d": 3244.4015791666607,
      "v": 80
    },
    {
      "midi": 61,
      "hit": false,
      "t": 122014.87250000019,
      "d": 223.8804999999993,
      "v": 73
    },
    {
      "midi": 64,
      "hit": false,
      "t": 122238.75300000019,
      "d": 235.07452500000363,
      "v": 77
    },
    {
      "midi": 61,
      "hit": false,
      "t": 122462.63350000019,
      "d": 210.82080416666577,
      "v": 73
    },
    {
      "midi": 56,
      "hit": false,
      "t": 122686.51400000018,
      "d": 494.4027708333306,
      "v": 80
    },
    {
      "midi": 61,
      "hit": false,
      "t": 122910.39450000018,
      "d": 192.16409583333007,
      "v": 77
    },
    {
      "midi": 64,
      "hit": false,
      "t": 123134.27500000018,
      "d": 227.61184166667226,
      "v": 77
    },
    {
      "midi": 61,
      "hit": false,
      "t": 123358.15550000018,
      "d": 201.4924500000052,
      "v": 77
    },
    {
      "midi": 56,
      "hit": false,
      "t": 123582.03600000018,
      "d": 531.716187500002,
      "v": 78
    },
    {
      "midi": 61,
      "hit": false,
      "t": 123805.91650000018,
      "d": 197.76110833333223,
      "v": 71
    },
    {
      "midi": 64,
      "hit": false,
      "t": 124029.79700000018,
      "d": 255.59690416666854,
      "v": 77
    },
    {
      "midi": 61,
      "hit": false,
      "t": 124253.67750000018,
      "d": 190.29842500000086,
      "v": 74
    },
    {
      "midi": 56,
      "hit": false,
      "t": 124477.55800000018,
      "d": 597.0146666666697,
      "v": 80
    },
    {
      "midi": 61,
      "hit": false,
      "t": 124701.43850000018,
      "d": 175.37305833333812,
      "v": 76
    },
    {
      "midi": 64,
      "hit": false,
      "t": 124925.31900000018,
      "d": 240.6715375000058,
      "v": 74
    },
    {
      "midi": 61,
      "hit": false,
      "t": 125149.19950000018,
      "d": 184.70141250001325,
      "v": 75
    },
    {
      "midi": 54,
      "hit": false,
      "t": 125373.08000000019,
      "d": 548.5072249999939,
      "v": 76
    },
    {
      "midi": 49,
      "hit": false,
      "t": 125373.08000000019,
      "d": 3063.4315083333495,
      "v": 76
    },
    {
      "midi": 42,
      "hit": false,
      "t": 125373.08000000019,
      "d": 3083.9538875000144,
      "v": 76
    },
    {
      "midi": 61,
      "hit": false,
      "t": 125596.96050000019,
      "d": 139.92531249999593,
      "v": 71
    },
    {
      "midi": 66,
      "hit": false,
      "t": 125820.84100000019,
      "d": 227.61184166667226,
      "v": 75
    },
    {
      "midi": 61,
      "hit": false,
      "t": 126044.72150000019,
      "d": 205.22379166667815,
      "v": 76
    },
    {
      "midi": 54,
      "hit": false,
      "t": 126268.6020000002,
      "d": 264.9252583333291,
      "v": 72
    },
    {
      "midi": 61,
      "hit": false,
      "t": 126492.4825000002,
      "d": 249.99989166666637,
      "v": 75
    },
    {
      "midi": 66,
      "hit": false,
      "t": 126716.3630000002,
      "d": 251.86556249999558,
      "v": 76
    },
    {
      "midi": 61,
      "hit": false,
      "t": 126940.2435000002,
      "d": 212.68647499999497,
      "v": 75
    },
    {
      "midi": 54,
      "hit": false,
      "t": 127164.1240000002,
      "d": 264.9252583333291,
      "v": 77
    },
    {
      "midi": 61,
      "hit": false,
      "t": 127388.0045000002,
      "d": 208.95513333333656,
      "v": 73
    },
    {
      "midi": 66,
      "hit": false,
      "t": 127611.8850000002,
      "d": 240.6715375000058,
      "v": 77
    },
    {
      "midi": 61,
      "hit": false,
      "t": 127835.7655000002,
      "d": 173.50738750000892,
      "v": 76
    },
    {
      "midi": 54,
      "hit": false,
      "t": 128059.64600000021,
      "d": 535.4475291666604,
      "v": 77
    },
    {
      "midi": 61,
      "hit": false,
      "t": 128283.52650000021,
      "d": 154.85067916665867,
      "v": 74
    },
    {
      "midi": 66,
      "hit": false,
      "t": 128507.40700000021,
      "d": 236.94019583333284,
      "v": 78
    },
    {
      "midi": 61,
      "hit": false,
      "t": 128731.28750000021,
      "d": 212.68647499999497,
      "v": 74
    },
    {
      "midi": 54,
      "hit": false,
      "t": 128955.16800000021,
      "d": 671.6414999999979,
      "v": 79
    },
    {
      "midi": 38,
      "hit": false,
      "t": 128955.16800000021,
      "d": 3408.5806124999945,
      "v": 79
    },
    {
      "midi": 50,
      "hit": false,
      "t": 128955.16800000021,
      "d": 3417.9089666666696,
      "v": 79
    },
    {
      "midi": 62,
      "hit": false,
      "t": 129179.04850000021,
      "d": 270.5222708333313,
      "v": 79
    },
    {
      "midi": 66,
      "hit": false,
      "t": 129402.92900000021,
      "d": 235.07452500000363,
      "v": 77
    },
    {
      "midi": 62,
      "hit": false,
      "t": 129626.8095000002,
      "d": 229.47751250000147,
      "v": 82
    },
    {
      "midi": 54,
      "hit": false,
      "t": 129850.6900000002,
      "d": 444.02965833332564,
      "v": 88
    },
    {
      "midi": 62,
      "hit": false,
      "t": 130074.5705000002,
      "d": 242.537208333335,
      "v": 92
    },
    {
      "midi": 66,
      "hit": false,
      "t": 130298.4510000002,
      "d": 240.6715375000058,
      "v": 93
    },
    {
      "midi": 62,
      "hit": false,
      "t": 130522.3315000002,
      "d": 205.22379166667815,
      "v": 90
    },
    {
      "midi": 54,
      "hit": false,
      "t": 130746.21200000022,
      "d": 251.86556249999558,
      "v": 92
    },
    {
      "midi": 62,
      "hit": false,
      "t": 130970.09250000022,
      "d": 205.2237916666636,
      "v": 92
    },
    {
      "midi": 66,
      "hit": false,
      "t": 131193.9730000002,
      "d": 240.67153749999125,
      "v": 88
    },
    {
      "midi": 62,
      "hit": false,
      "t": 131417.8535000002,
      "d": 223.8804999999993,
      "v": 87
    },
    {
      "midi": 54,
      "hit": false,
      "t": 131641.7340000002,
      "d": 268.6565999999875,
      "v": 82
    },
    {
      "midi": 62,
      "hit": false,
      "t": 131865.6145000002,
      "d": 197.76110833333223,
      "v": 81
    },
    {
      "midi": 66,
      "hit": false,
      "t": 132089.4950000002,
      "d": 216.41781666665338,
      "v": 81
    },
    {
      "midi": 62,
      "hit": false,
      "t": 132313.3755000002,
      "d": 110.074579166685,
      "v": 81
    },
    {
      "midi": 57,
      "hit": false,
      "t": 132537.2560000002,
      "d": 570.895274999988,
      "v": 81
    },
    {
      "midi": 45,
      "hit": false,
      "t": 132537.2560000002,
      "d": 3076.4912041666685,
      "v": 81
    },
    {
      "midi": 33,
      "hit": false,
      "t": 132537.2560000002,
      "d": 3138.0583416666486,
      "v": 81
    },
    {
      "midi": 61,
      "hit": false,
      "t": 132761.1365000002,
      "d": 255.59690416665399,
      "v": 79
    },
    {
      "midi": 64,
      "hit": false,
      "t": 132985.0170000002,
      "d": 244.40287916667876,
      "v": 79
    },
    {
      "midi": 61,
      "hit": false,
      "t": 133208.8975000002,
      "d": 208.95513333333656,
      "v": 79
    },
    {
      "midi": 57,
      "hit": false,
      "t": 133432.7780000002,
      "d": 455.2236833333445,
      "v": 77
    },
    {
      "midi": 61,
      "hit": false,
      "t": 133656.6585000002,
      "d": 220.1491583333409,
      "v": 78
    },
    {
      "midi": 64,
      "hit": false,
      "t": 133880.5390000002,
      "d": 255.59690416665399,
      "v": 73
    },
    {
      "midi": 61,
      "hit": false,
      "t": 134104.4195000002,
      "d": 210.82080416666577,
      "v": 78
    },
    {
      "midi": 57,
      "hit": false,
      "t": 134328.3000000002,
      "d": 546.6415541666793,
      "v": 79
    },
    {
      "midi": 61,
      "hit": false,
      "t": 134552.1805000002,
      "d": 201.49244999999064,
      "v": 78
    },
    {
      "midi": 64,
      "hit": false,
      "t": 134776.0610000002,
      "d": 242.53720833334955,
      "v": 76
    },
    {
      "midi": 61,
      "hit": false,
      "t": 134999.94150000022,
      "d": 207.08946249997825,
      "v": 78
    },
    {
      "midi": 57,
      "hit": false,
      "t": 135223.8220000002,
      "d": 404.8505708333396,
      "v": 77
    },
    {
      "midi": 61,
      "hit": false,
      "t": 135447.7025000002,
      "d": 197.76110833333223,
      "v": 78
    },
    {
      "midi": 64,
      "hit": false,
      "t": 135671.5830000002,
      "d": 192.1640958333155,
      "v": 73
    },
    {
      "midi": 61,
      "hit": false,
      "t": 135895.46350000016,
      "d": 152.985008333344,
      "v": 78
    },
    {
      "midi": 56,
      "hit": false,
      "t": 136119.34400000016,
      "d": 682.8355250000022,
      "v": 78
    },
    {
      "midi": 44,
      "hit": false,
      "t": 136119.34400000016,
      "d": 3186.5657833333244,
      "v": 78
    },
    {
      "midi": 32,
      "hit": false,
      "t": 136119.34400000016,
      "d": 3244.401579166646,
      "v": 80
    },
    {
      "midi": 61,
      "hit": false,
      "t": 136343.22450000016,
      "d": 223.8804999999993,
      "v": 78
    },
    {
      "midi": 64,
      "hit": false,
      "t": 136567.10500000016,
      "d": 235.07452500000363,
      "v": 77
    },
    {
      "midi": 61,
      "hit": false,
      "t": 136790.98550000016,
      "d": 210.82080416666577,
      "v": 78
    },
    {
      "midi": 56,
      "hit": false,
      "t": 137014.86600000015,
      "d": 494.40277083334513,
      "v": 80
    },
    {
      "midi": 61,
      "hit": false,
      "t": 137238.74650000015,
      "d": 192.16409583334462,
      "v": 73
    },
    {
      "midi": 64,
      "hit": false,
      "t": 137462.62700000015,
      "d": 227.6118416666577,
      "v": 77
    },
    {
      "midi": 61,
      "hit": false,
      "t": 137686.50750000015,
      "d": 201.49244999999064,
      "v": 77
    },
    {
      "midi": 56,
      "hit": false,
      "t": 137910.38800000015,
      "d": 531.7161874999874,
      "v": 78
    },
    {
      "midi": 61,
      "hit": false,
      "t": 138134.26850000015,
      "d": 197.76110833333223,
      "v": 78
    },
    {
      "midi": 64,
      "hit": false,
      "t": 138358.14900000015,
      "d": 255.59690416665399,
      "v": 77
    },
    {
      "midi": 61,
      "hit": false,
      "t": 138582.02950000015,
      "d": 190.2984249999863,
      "v": 74
    },
    {
      "midi": 56,
      "hit": false,
      "t": 138805.91000000015,
      "d": 597.0146666666551,
      "v": 80
    },
    {
      "midi": 61,
      "hit": false,
      "t": 139029.79050000015,
      "d": 175.37305833332357,
      "v": 76
    },
    {
      "midi": 64,
      "hit": false,
      "t": 139253.67100000015,
      "d": 240.67153749999125,
      "v": 79
    },
    {
      "midi": 61,
      "hit": false,
      "t": 139477.55150000015,
      "d": 184.7014124999987,
      "v": 75
    },
    {
      "midi": 54,
      "hit": false,
      "t": 139701.43200000015,
      "d": 548.5072250000085,
      "v": 76
    },
    {
      "midi": 30,
      "hit": false,
      "t": 139701.43200000015,
      "d": 3063.431508333306,
      "v": 79
    },
    {
      "midi": 42,
      "hit": false,
      "t": 139701.43200000015,
      "d": 3083.953887499956,
      "v": 79
    },
    {
      "midi": 61,
      "hit": false,
      "t": 139925.31250000015,
      "d": 139.92531250001048,
      "v": 71
    },
    {
      "midi": 66,
      "hit": false,
      "t": 140149.19300000014,
      "d": 227.6118416666577,
      "v": 75
    },
    {
      "midi": 61,
      "hit": false,
      "t": 140373.07350000014,
      "d": 205.22379166664905,
      "v": 76
    },
    {
      "midi": 54,
      "hit": false,
      "t": 140596.9540000001,
      "d": 264.9252583333291,
      "v": 72
    },
    {
      "midi": 61,
      "hit": false,
      "t": 140820.8345000001,
      "d": 249.99989166666637,
      "v": 75
    },
    {
      "midi": 66,
      "hit": false,
      "t": 141044.7150000001,
      "d": 251.86556249999558,
      "v": 76
    },
    {
      "midi": 61,
      "hit": false,
      "t": 141268.5955000001,
      "d": 212.68647499999497,
      "v": 75
    },
    {
      "midi": 54,
      "hit": false,
      "t": 141492.4760000001,
      "d": 264.9252583333291,
      "v": 77
    },
    {
      "midi": 61,
      "hit": false,
      "t": 141716.3565000001,
      "d": 208.95513333333656,
      "v": 73
    },
    {
      "midi": 66,
      "hit": false,
      "t": 141940.2370000001,
      "d": 240.67153749999125,
      "v": 77
    },
    {
      "midi": 61,
      "hit": false,
      "t": 142164.1175000001,
      "d": 173.50738749999437,
      "v": 76
    },
    {
      "midi": 54,
      "hit": false,
      "t": 142387.9980000001,
      "d": 535.4475291666749,
      "v": 77
    },
    {
      "midi": 61,
      "hit": false,
      "t": 142611.8785000001,
      "d": 154.85067916667322,
      "v": 74
    },
    {
      "midi": 66,
      "hit": false,
      "t": 142835.7590000001,
      "d": 236.94019583333284,
      "v": 78
    },
    {
      "midi": 61,
      "hit": false,
      "t": 143059.6395000001,
      "d": 212.68647499999497,
      "v": 74
    },
    {
      "midi": 54,
      "hit": false,
      "t": 143283.5200000001,
      "d": 671.641500000027,
      "v": 79
    },
    {
      "midi": 38,
      "hit": false,
      "t": 143283.5200000001,
      "d": 3408.5806124999654,
      "v": 79
    },
    {
      "midi": 26,
      "hit": false,
      "t": 143283.5200000001,
      "d": 3417.9089666666405,
      "v": 79
    },
    {
      "midi": 57,
      "hit": false,
      "t": 143507.4005000001,
      "d": 270.52227083337493,
      "v": 74
    },
    {
      "midi": 66,
      "hit": false,
      "t": 143731.28100000013,
      "d": 235.07452500000363,
      "v": 77
    },
    {
      "midi": 57,
      "hit": false,
      "t": 143955.16150000013,
      "d": 229.47751249998691,
      "v": 77
    },
    {
      "midi": 54,
      "hit": false,
      "t": 144179.04200000013,
      "d": 444.0296583333402,
      "v": 78
    },
    {
      "midi": 57,
      "hit": false,
      "t": 144402.92250000013,
      "d": 242.53720833332045,
      "v": 77
    },
    {
      "midi": 66,
      "hit": false,
      "t": 144626.80300000013,
      "d": 240.67153749999125,
      "v": 77
    },
    {
      "midi": 57,
      "hit": false,
      "t": 144850.68350000013,
      "d": 205.22379166664905,
      "v": 80
    },
    {
      "midi": 54,
      "hit": false,
      "t": 145074.5640000001,
      "d": 251.86556249999558,
      "v": 78
    },
    {
      "midi": 57,
      "hit": false,
      "t": 145298.4445000001,
      "d": 205.22379166664905,
      "v": 77
    },
    {
      "midi": 66,
      "hit": false,
      "t": 145522.32500000007,
      "d": 240.67153749999125,
      "v": 77
    },
    {
      "midi": 57,
      "hit": false,
      "t": 145746.20550000007,
      "d": 223.8804999999993,
      "v": 81
    },
    {
      "midi": 54,
      "hit": false,
      "t": 145970.08600000007,
      "d": 268.6565999999875,
      "v": 78
    },
    {
      "midi": 57,
      "hit": false,
      "t": 146193.96650000007,
      "d": 197.76110833333223,
      "v": 81
    },
    {
      "midi": 66,
      "hit": false,
      "t": 146417.84700000007,
      "d": 216.41781666665338,
      "v": 76
    },
    {
      "midi": 57,
      "hit": false,
      "t": 146641.72750000007,
      "d": 110.074579166685,
      "v": 76
    },
    {
      "midi": 54,
      "hit": false,
      "t": 146865.60800000007,
      "d": 671.641500000027,
      "v": 79
    },
    {
      "midi": 28,
      "hit": false,
      "t": 146865.60800000007,
      "d": 1783.5813166666776,
      "v": 79
    },
    {
      "midi": 40,
      "hit": false,
      "t": 146865.60800000007,
      "d": 1783.5813166666776,
      "v": 79
    },
    {
      "midi": 56,
      "hit": false,
      "t": 147089.48850000006,
      "d": 270.52227083337493,
      "v": 74
    },
    {
      "midi": 64,
      "hit": false,
      "t": 147313.3690000001,
      "d": 235.07452500000363,
      "v": 77
    },
    {
      "midi": 56,
      "hit": false,
      "t": 147537.2495000001,
      "d": 229.47751249998691,
      "v": 77
    },
    {
      "midi": 54,
      "hit": false,
      "t": 147761.1300000001,
      "d": 444.0296583333402,
      "v": 78
    },
    {
      "midi": 56,
      "hit": false,
      "t": 147985.0105000001,
      "d": 242.53720833332045,
      "v": 77
    },
    {
      "midi": 64,
      "hit": false,
      "t": 148208.8910000001,
      "d": 240.67153749999125,
      "v": 77
    },
    {
      "midi": 56,
      "hit": false,
      "t": 148432.7715000001,
      "d": 205.22379166664905,
      "v": 80
    },
    {
      "midi": 54,
      "hit": false,
      "t": 148656.6520000001,
      "d": 251.86556249999558,
      "v": 78
    },
    {
      "midi": 42,
      "hit": false,
      "t": 148656.6520000001,
      "d": 1617.536612499971,
      "v": 79
    },
    {
      "midi": 30,
      "hit": false,
      "t": 148656.6520000001,
      "d": 1626.864966666646,
      "v": 79
    },
    {
      "midi": 57,
      "hit": false,
      "t": 148880.5325000001,
      "d": 205.22379166664905,
      "v": 77
    },
    {
      "midi": 64,
      "hit": false,
      "t": 149104.41300000006,
      "d": 240.67153749999125,
      "v": 77
    },
    {
      "midi": 57,
      "hit": false,
      "t": 149328.29350000006,
      "d": 223.8804999999993,
      "v": 81
    },
    {
      "midi": 54,
      "hit": false,
      "t": 149552.17400000006,
      "d": 268.6565999999875,
      "v": 78
    },
    {
      "midi": 57,
      "hit": false,
      "t": 149776.05450000006,
      "d": 197.76110833333223,
      "v": 81
    },
    {
      "midi": 64,
      "hit": false,
      "t": 149999.93500000006,
      "d": 216.41781666665338,
      "v": 81
    },
    {
      "midi": 57,
      "hit": false,
      "t": 150223.81550000006,
      "d": 110.074579166685,
      "v": 81
    },
    {
      "midi": 54,
      "hit": false,
      "t": 150447.69600000005,
      "d": 671.641500000027,
      "v": 79
    },
    {
      "midi": 38,
      "hit": false,
      "t": 150447.69600000005,
      "d": 3408.5806124999654,
      "v": 79
    },
    {
      "midi": 50,
      "hit": false,
      "t": 150447.69600000005,
      "d": 3417.9089666666405,
      "v": 79
    },
    {
      "midi": 57,
      "hit": false,
      "t": 150671.57650000005,
      "d": 270.52227083337493,
      "v": 74
    },
    {
      "midi": 62,
      "hit": false,
      "t": 150895.45700000008,
      "d": 235.07452500000363,
      "v": 77
    },
    {
      "midi": 57,
      "hit": false,
      "t": 151119.33750000008,
      "d": 229.47751249998691,
      "v": 77
    },
    {
      "midi": 54,
      "hit": false,
      "t": 151343.21800000008,
      "d": 444.0296583333402,
      "v": 78
    },
    {
      "midi": 57,
      "hit": false,
      "t": 151567.09850000008,
      "d": 242.53720833332045,
      "v": 77
    },
    {
      "midi": 62,
      "hit": false,
      "t": 151790.97900000008,
      "d": 240.67153749999125,
      "v": 77
    },
    {
      "midi": 57,
      "hit": false,
      "t": 152014.85950000008,
      "d": 205.22379166664905,
      "v": 80
    },
    {
      "midi": 54,
      "hit": false,
      "t": 152238.74000000005,
      "d": 251.86556249999558,
      "v": 78
    },
    {
      "midi": 57,
      "hit": false,
      "t": 152462.62050000005,
      "d": 205.22379166664905,
      "v": 77
    },
    {
      "midi": 62,
      "hit": false,
      "t": 152686.50100000002,
      "d": 240.67153749999125,
      "v": 77
    },
    {
      "midi": 57,
      "hit": false,
      "t": 152910.38150000002,
      "d": 223.8804999999993,
      "v": 81
    },
    {
      "midi": 54,
      "hit": false,
      "t": 153134.26200000002,
      "d": 268.6565999999875,
      "v": 78
    },
    {
      "midi": 57,
      "hit": false,
      "t": 153358.14250000002,
      "d": 197.76110833333223,
      "v": 81
    },
    {
      "midi": 62,
      "hit": false,
      "t": 153582.02300000002,
      "d": 216.41781666665338,
      "v": 81
    },
    {
      "midi": 57,
      "hit": false,
      "t": 153805.90350000001,
      "d": 110.074579166685,
      "v": 81
    },
    {
      "midi": 54,
      "hit": false,
      "t": 154029.784,
      "d": 671.641500000027,
      "v": 79
    },
    {
      "midi": 28,
      "hit": false,
      "t": 154029.784,
      "d": 1783.5813166666776,
      "v": 79
    },
    {
      "midi": 40,
      "hit": false,
      "t": 154029.784,
      "d": 1783.5813166666776,
      "v": 79
    },
    {
      "midi": 56,
      "hit": false,
      "t": 154253.6645,
      "d": 270.52227083337493,
      "v": 74
    },
    {
      "midi": 64,
      "hit": false,
      "t": 154477.54500000004,
      "d": 235.07452500000363,
      "v": 77
    },
    {
      "midi": 56,
      "hit": false,
      "t": 154701.42550000004,
      "d": 229.47751249998691,
      "v": 77
    },
    {
      "midi": 54,
      "hit": false,
      "t": 154925.30600000004,
      "d": 444.0296583333402,
      "v": 78
    },
    {
      "midi": 56,
      "hit": false,
      "t": 155149.18650000004,
      "d": 242.53720833332045,
      "v": 77
    },
    {
      "midi": 64,
      "hit": false,
      "t": 155373.06700000004,
      "d": 240.67153749999125,
      "v": 77
    },
    {
      "midi": 56,
      "hit": false,
      "t": 155596.94750000004,
      "d": 205.22379166664905,
      "v": 80
    },
    {
      "midi": 54,
      "hit": false,
      "t": 155820.82800000004,
      "d": 251.86556249999558,
      "v": 78
    },
    {
      "midi": 42,
      "hit": false,
      "t": 155820.82800000004,
      "d": 1617.536612499971,
      "v": 79
    },
    {
      "midi": 30,
      "hit": false,
      "t": 155820.82800000004,
      "d": 1626.864966666646,
      "v": 79
    },
    {
      "midi": 57,
      "hit": false,
      "t": 156044.70850000004,
      "d": 205.22379166664905,
      "v": 77
    },
    {
      "midi": 64,
      "hit": false,
      "t": 156268.589,
      "d": 240.67153749999125,
      "v": 77
    },
    {
      "midi": 57,
      "hit": false,
      "t": 156492.4695,
      "d": 223.8804999999993,
      "v": 81
    },
    {
      "midi": 54,
      "hit": false,
      "t": 156716.35,
      "d": 268.6565999999875,
      "v": 78
    },
    {
      "midi": 57,
      "hit": false,
      "t": 156940.2305,
      "d": 197.76110833333223,
      "v": 81
    },
    {
      "midi": 64,
      "hit": false,
      "t": 157164.111,
      "d": 216.41781666665338,
      "v": 81
    },
    {
      "midi": 57,
      "hit": false,
      "t": 157387.9915,
      "d": 110.074579166685,
      "v": 81
    },
    {
      "midi": 54,
      "hit": false,
      "t": 157611.87200000003,
      "d": 671.641500000027,
      "v": 79
    },
    {
      "midi": 38,
      "hit": false,
      "t": 157611.87200000003,
      "d": 7156.7133166665735,
      "v": 79
    },
    {
      "midi": 50,
      "hit": false,
      "t": 157611.87200000003,
      "d": 7166.041670833249,
      "v": 79
    },
    {
      "midi": 57,
      "hit": false,
      "t": 157835.75250000003,
      "d": 270.52227083337493,
      "v": 76
    },
    {
      "midi": 62,
      "hit": false,
      "t": 158059.63300000006,
      "d": 235.07452500000363,
      "v": 80
    },
    {
      "midi": 57,
      "hit": false,
      "t": 158283.51350000006,
      "d": 229.47751249998691,
      "v": 81
    },
    {
      "midi": 54,
      "hit": false,
      "t": 158507.39400000006,
      "d": 444.0296583333402,
      "v": 75
    },
    {
      "midi": 57,
      "hit": false,
      "t": 158731.27450000006,
      "d": 242.53720833332045,
      "v": 75
    },
    {
      "midi": 62,
      "hit": false,
      "t": 158955.15500000006,
      "d": 240.67153749999125,
      "v": 75
    },
    {
      "midi": 57,
      "hit": false,
      "t": 159179.03550000006,
      "d": 205.22379166664905,
      "v": 75
    },
    {
      "midi": 54,
      "hit": false,
      "t": 159402.91600000003,
      "d": 251.86556249999558,
      "v": 78
    },
    {
      "midi": 56,
      "hit": false,
      "t": 159626.79650000003,
      "d": 205.22379166664905,
      "v": 79
    },
    {
      "midi": 64,
      "hit": false,
      "t": 159850.677,
      "d": 240.67153749999125,
      "v": 82
    },
    {
      "midi": 56,
      "hit": false,
      "t": 160074.5575,
      "d": 223.8804999999993,
      "v": 82
    },
    {
      "midi": 54,
      "hit": false,
      "t": 160298.438,
      "d": 268.6565999999875,
      "v": 82
    },
    {
      "midi": 56,
      "hit": false,
      "t": 160522.3185,
      "d": 197.76110833333223,
      "v": 83
    },
    {
      "midi": 64,
      "hit": false,
      "t": 160746.199,
      "d": 216.41781666665338,
      "v": 83
    },
    {
      "midi": 56,
      "hit": false,
      "t": 160970.0795,
      "d": 110.0745791666559,
      "v": 83
    },
    {
      "midi": 54,
      "hit": false,
      "t": 161193.95999999996,
      "d": 671.641500000027,
      "v": 86
    },
    {
      "midi": 57,
      "hit": false,
      "t": 161417.84049999996,
      "d": 270.52227083337493,
      "v": 88
    },
    {
      "midi": 66,
      "hit": false,
      "t": 161641.721,
      "d": 235.07452500000363,
      "v": 88
    },
    {
      "midi": 57,
      "hit": false,
      "t": 161865.6015,
      "d": 229.47751249998691,
      "v": 88
    },
    {
      "midi": 54,
      "hit": false,
      "t": 162089.482,
      "d": 444.0296583333402,
      "v": 89
    },
    {
      "midi": 57,
      "hit": false,
      "t": 162313.3625,
      "d": 242.53720833332045,
      "v": 90
    },
    {
      "midi": 66,
      "hit": false,
      "t": 162537.243,
      "d": 240.67153749999125,
      "v": 90
    },
    {
      "midi": 57,
      "hit": false,
      "t": 162761.1235,
      "d": 205.22379166664905,
      "v": 90
    },
    {
      "midi": 54,
      "hit": false,
      "t": 162985.00399999996,
      "d": 716.4175999999861,
      "v": 90
    },
    {
      "midi": 59,
      "hit": false,
      "t": 163208.88449999996,
      "d": 238.80586666666204,
      "v": 90
    },
    {
      "midi": 68,
      "hit": false,
      "t": 163432.76499999996,
      "d": 341.4177625000011,
      "v": 90
    },
    {
      "midi": 59,
      "hit": false,
      "t": 163656.64549999996,
      "d": 244.40287916667876,
      "v": 86
    },
    {
      "midi": 54,
      "hit": false,
      "t": 163880.52599999995,
      "d": 339.5520916666719,
      "v": 80
    },
    {
      "midi": 59,
      "hit": false,
      "t": 164104.40649999995,
      "d": 195.89543750000303,
      "v": 79
    },
    {
      "midi": 68,
      "hit": false,
      "t": 164328.28699999995,
      "d": 238.80586666666204,
      "v": 75
    },
    {
      "midi": 57,
      "hit": false,
      "t": 164776.04799999995,
      "d": 570.895274999988,
      "v": 95
    },
    {
      "midi": 33,
      "hit": false,
      "t": 164776.04799999995,
      "d": 1705.2231416666473,
      "v": 95
    },
    {
      "midi": 45,
      "hit": false,
      "t": 164776.04799999995,
      "d": 1714.5514958333224,
      "v": 95
    },
    {
      "midi": 61,
      "hit": false,
      "t": 164999.92849999995,
      "d": 255.59690416665399,
      "v": 89
    },
    {
      "midi": 69,
      "hit": false,
      "t": 165223.80899999995,
      "d": 244.40287916667876,
      "v": 93
    },
    {
      "midi": 61,
      "hit": false,
      "t": 165447.68949999995,
      "d": 208.95513333333656,
      "v": 93
    },
    {
      "midi": 57,
      "hit": false,
      "t": 165671.56999999995,
      "d": 455.2236833333445,
      "v": 91
    },
    {
      "midi": 61,
      "hit": false,
      "t": 165895.45049999995,
      "d": 220.1491583333409,
      "v": 92
    },
    {
      "midi": 69,
      "hit": false,
      "t": 166119.33099999995,
      "d": 255.59690416665399,
      "v": 87
    },
    {
      "midi": 61,
      "hit": false,
      "t": 166343.21149999995,
      "d": 210.82080416666577,
      "v": 92
    },
    {
      "midi": 56,
      "hit": false,
      "t": 166567.09199999995,
      "d": 546.6415541667084,
      "v": 93
    },
    {
      "midi": 40,
      "hit": false,
      "t": 166567.09199999995,
      "d": 1714.5514958333515,
      "v": 95
    },
    {
      "midi": 47,
      "hit": false,
      "t": 166567.09199999995,
      "d": 1714.5514958333515,
      "v": 95
    },
    {
      "midi": 59,
      "hit": false,
      "t": 166790.97249999995,
      "d": 201.49245000001974,
      "v": 92
    },
    {
      "midi": 68,
      "hit": false,
      "t": 167014.85299999997,
      "d": 242.53720833334955,
      "v": 90
    },
    {
      "midi": 59,
      "hit": false,
      "t": 167238.7335,
      "d": 207.08946249997825,
      "v": 92
    },
    {
      "midi": 56,
      "hit": false,
      "t": 167462.61399999997,
      "d": 404.8505708333396,
      "v": 91
    },
    {
      "midi": 59,
      "hit": false,
      "t": 167686.49449999997,
      "d": 197.76110833333223,
      "v": 92
    },
    {
      "midi": 68,
      "hit": false,
      "t": 167910.37499999997,
      "d": 192.16409583334462,
      "v": 87
    },
    {
      "midi": 59,
      "hit": false,
      "t": 168134.25549999997,
      "d": 152.9850083333149,
      "v": 92
    },
    {
      "midi": 57,
      "hit": false,
      "t": 168358.13599999994,
      "d": 682.8355250000022,
      "v": 92
    },
    {
      "midi": 30,
      "hit": false,
      "t": 168358.13599999994,
      "d": 1783.5813166666485,
      "v": 94
    },
    {
      "midi": 42,
      "hit": false,
      "t": 168358.13599999994,
      "d": 1783.5813166666485,
      "v": 92
    },
    {
      "midi": 61,
      "hit": false,
      "t": 168582.01649999994,
      "d": 223.8804999999993,
      "v": 87
    },
    {
      "midi": 69,
      "hit": false,
      "t": 168805.89699999994,
      "d": 235.07452500000363,
      "v": 91
    },
    {
      "midi": 61,
      "hit": false,
      "t": 169029.77749999994,
      "d": 210.82080416666577,
      "v": 87
    },
    {
      "midi": 57,
      "hit": false,
      "t": 169253.65799999994,
      "d": 494.40277083334513,
      "v": 94
    },
    {
      "midi": 61,
      "hit": false,
      "t": 169477.53849999994,
      "d": 192.16409583334462,
      "v": 91
    },
    {
      "midi": 69,
      "hit": false,
      "t": 169701.41899999994,
      "d": 227.6118416666577,
      "v": 91
    },
    {
      "midi": 61,
      "hit": false,
      "t": 169925.29949999994,
      "d": 201.49244999999064,
      "v": 91
    },
    {
      "midi": 57,
      "hit": false,
      "t": 170149.17999999993,
      "d": 531.7161874999874,
      "v": 92
    },
    {
      "midi": 50,
      "hit": false,
      "t": 170149.17999999993,
      "d": 1733.2082041666436,
      "v": 94
    },
    {
      "midi": 38,
      "hit": false,
      "t": 170149.17999999993,
      "d": 1735.0738749999728,
      "v": 92
    },
    {
      "midi": 62,
      "hit": false,
      "t": 170373.06049999993,
      "d": 197.76110833333223,
      "v": 89
    },
    {
      "midi": 69,
      "hit": false,
      "t": 170596.94099999993,
      "d": 255.59690416665399,
      "v": 91
    },
    {
      "midi": 62,
      "hit": false,
      "t": 170820.82149999993,
      "d": 190.2984249999863,
      "v": 88
    },
    {
      "midi": 57,
      "hit": false,
      "t": 171044.70199999993,
      "d": 597.0146666666551,
      "v": 94
    },
    {
      "midi": 62,
      "hit": false,
      "t": 171268.58249999993,
      "d": 175.37305833332357,
      "v": 90
    },
    {
      "midi": 69,
      "hit": false,
      "t": 171492.46299999993,
      "d": 240.67153749999125,
      "v": 93
    },
    {
      "midi": 62,
      "hit": false,
      "t": 171716.34349999993,
      "d": 184.7014124999696,
      "v": 89
    },
    {
      "midi": 57,
      "hit": false,
      "t": 171940.2239999999,
      "d": 570.895274999988,
      "v": 95
    },
    {
      "midi": 33,
      "hit": false,
      "t": 171940.2239999999,
      "d": 1705.2231416666473,
      "v": 95
    },
    {
      "midi": 45,
      "hit": false,
      "t": 171940.2239999999,
      "d": 1714.5514958333224,
      "v": 95
    },
    {
      "midi": 61,
      "hit": false,
      "t": 172164.1044999999,
      "d": 255.59690416665399,
      "v": 89
    },
    {
      "midi": 69,
      "hit": false,
      "t": 172387.9849999999,
      "d": 244.40287916667876,
      "v": 93
    },
    {
      "midi": 61,
      "hit": false,
      "t": 172611.8654999999,
      "d": 208.95513333333656,
      "v": 93
    },
    {
      "midi": 57,
      "hit": false,
      "t": 172835.7459999999,
      "d": 455.2236833333445,
      "v": 91
    },
    {
      "midi": 61,
      "hit": false,
      "t": 173059.6264999999,
      "d": 220.1491583333409,
      "v": 92
    },
    {
      "midi": 69,
      "hit": false,
      "t": 173283.5069999999,
      "d": 255.59690416665399,
      "v": 87
    },
    {
      "midi": 61,
      "hit": false,
      "t": 173507.3874999999,
      "d": 210.82080416666577,
      "v": 92
    },
    {
      "midi": 59,
      "hit": false,
      "t": 173731.2679999999,
      "d": 546.6415541667084,
      "v": 90
    },
    {
      "midi": 40,
      "hit": false,
      "t": 173731.2679999999,
      "d": 1714.5514958333515,
      "v": 90
    },
    {
      "midi": 52,
      "hit": false,
      "t": 173731.2679999999,
      "d": 1714.5514958333515,
      "v": 90
    },
    {
      "midi": 64,
      "hit": false,
      "t": 173955.1484999999,
      "d": 201.49245000001974,
      "v": 92
    },
    {
      "midi": 68,
      "hit": false,
      "t": 174179.02899999992,
      "d": 242.53720833334955,
      "v": 90
    },
    {
      "midi": 64,
      "hit": false,
      "t": 174402.90949999995,
      "d": 207.08946249997825,
      "v": 92
    },
    {
      "midi": 59,
      "hit": false,
      "t": 174626.78999999992,
      "d": 404.8505708333396,
      "v": 91
    },
    {
      "midi": 64,
      "hit": false,
      "t": 174850.67049999992,
      "d": 197.76110833333223,
      "v": 92
    },
    {
      "midi": 68,
      "hit": false,
      "t": 175074.55099999992,
      "d": 192.16409583334462,
      "v": 87
    },
    {
      "midi": 64,
      "hit": false,
      "t": 175298.43149999992,
      "d": 152.9850083333149,
      "v": 92
    },
    {
      "midi": 57,
      "hit": false,
      "t": 175522.3119999999,
      "d": 682.8355250000022,
      "v": 92
    },
    {
      "midi": 42,
      "hit": false,
      "t": 175522.3119999999,
      "d": 1783.5813166666485,
      "v": 92
    },
    {
      "midi": 49,
      "hit": false,
      "t": 175522.3119999999,
      "d": 1783.5813166666485,
      "v": 94
    },
    {
      "midi": 61,
      "hit": false,
      "t": 175746.1924999999,
      "d": 223.8804999999993,
      "v": 90
    },
    {
      "midi": 69,
      "hit": false,
      "t": 175970.0729999999,
      "d": 235.07452500000363,
      "v": 91
    },
    {
      "midi": 61,
      "hit": false,
      "t": 176193.9534999999,
      "d": 210.82080416666577,
      "v": 87
    },
    {
      "midi": 57,
      "hit": false,
      "t": 176417.8339999999,
      "d": 494.40277083334513,
      "v": 94
    },
    {
      "midi": 61,
      "hit": false,
      "t": 176641.71449999989,
      "d": 192.16409583334462,
      "v": 91
    },
    {
      "midi": 69,
      "hit": false,
      "t": 176865.59499999988,
      "d": 227.6118416666577,
      "v": 91
    },
    {
      "midi": 61,
      "hit": false,
      "t": 177089.47549999988,
      "d": 201.49244999999064,
      "v": 91
    },
    {
      "midi": 57,
      "hit": false,
      "t": 177313.35599999988,
      "d": 531.7161874999874,
      "v": 92
    },
    {
      "midi": 38,
      "hit": false,
      "t": 177313.35599999988,
      "d": 1675.3724083333218,
      "v": 92
    },
    {
      "midi": 50,
      "hit": false,
      "t": 177313.35599999988,
      "d": 1733.2082041666436,
      "v": 94
    },
    {
      "midi": 62,
      "hit": false,
      "t": 177537.23649999988,
      "d": 197.76110833333223,
      "v": 89
    },
    {
      "midi": 69,
      "hit": false,
      "t": 177761.11699999988,
      "d": 255.59690416665399,
      "v": 91
    },
    {
      "midi": 62,
      "hit": false,
      "t": 177984.99749999988,
      "d": 190.2984249999863,
      "v": 88
    },
    {
      "midi": 57,
      "hit": false,
      "t": 178208.87799999988,
      "d": 597.0146666666551,
      "v": 94
    },
    {
      "midi": 62,
      "hit": false,
      "t": 178432.75849999988,
      "d": 175.37305833332357,
      "v": 90
    },
    {
      "midi": 69,
      "hit": false,
      "t": 178656.63899999988,
      "d": 240.67153749999125,
      "v": 93
    },
    {
      "midi": 62,
      "hit": false,
      "t": 178880.51949999988,
      "d": 184.7014124999696,
      "v": 89
    },
    {
      "midi": 57,
      "hit": false,
      "t": 179104.39999999985,
      "d": 570.895274999988,
      "v": 95
    },
    {
      "midi": 52,
      "hit": false,
      "t": 179104.39999999985,
      "d": 1705.2231416666473,
      "v": 95
    },
    {
      "midi": 45,
      "hit": false,
      "t": 179104.39999999985,
      "d": 1714.5514958333224,
      "v": 95
    },
    {
      "midi": 61,
      "hit": false,
      "t": 179328.28049999985,
      "d": 255.59690416665399,
      "v": 89
    },
    {
      "midi": 69,
      "hit": false,
      "t": 179552.16099999985,
      "d": 244.40287916667876,
      "v": 93
    },
    {
      "midi": 61,
      "hit": false,
      "t": 179776.04149999985,
      "d": 208.95513333333656,
      "v": 93
    },
    {
      "midi": 57,
      "hit": false,
      "t": 179999.92199999985,
      "d": 455.2236833333445,
      "v": 91
    },
    {
      "midi": 61,
      "hit": false,
      "t": 180223.80249999985,
      "d": 220.1491583333409,
      "v": 92
    },
    {
      "midi": 69,
      "hit": false,
      "t": 180447.68299999984,
      "d": 255.59690416665399,
      "v": 87
    },
    {
      "midi": 61,
      "hit": false,
      "t": 180671.56349999984,
      "d": 210.82080416666577,
      "v": 92
    },
    {
      "midi": 59,
      "hit": false,
      "t": 180895.44399999984,
      "d": 546.6415541667084,
      "v": 93
    },
    {
      "midi": 40,
      "hit": false,
      "t": 180895.44399999984,
      "d": 1714.5514958333515,
      "v": 95
    },
    {
      "midi": 52,
      "hit": false,
      "t": 180895.44399999984,
      "d": 1714.5514958333515,
      "v": 95
    },
    {
      "midi": 64,
      "hit": false,
      "t": 181119.32449999984,
      "d": 201.49245000001974,
      "v": 92
    },
    {
      "midi": 68,
      "hit": false,
      "t": 181343.20499999987,
      "d": 242.53720833334955,
      "v": 90
    },
    {
      "midi": 64,
      "hit": false,
      "t": 181567.0854999999,
      "d": 207.08946249997825,
      "v": 92
    },
    {
      "midi": 59,
      "hit": false,
      "t": 181790.96599999987,
      "d": 404.8505708333396,
      "v": 91
    },
    {
      "midi": 64,
      "hit": false,
      "t": 182014.84649999987,
      "d": 197.76110833333223,
      "v": 92
    },
    {
      "midi": 68,
      "hit": false,
      "t": 182238.72699999987,
      "d": 192.16409583334462,
      "v": 87
    },
    {
      "midi": 64,
      "hit": false,
      "t": 182462.60749999987,
      "d": 152.9850083333149,
      "v": 92
    },
    {
      "midi": 57,
      "hit": false,
      "t": 182686.48799999984,
      "d": 682.8355250000022,
      "v": 92
    },
    {
      "midi": 42,
      "hit": false,
      "t": 182686.48799999984,
      "d": 1783.5813166666485,
      "v": 92
    },
    {
      "midi": 49,
      "hit": false,
      "t": 182686.48799999984,
      "d": 1783.5813166666485,
      "v": 94
    },
    {
      "midi": 61,
      "hit": false,
      "t": 182910.36849999984,
      "d": 223.8804999999993,
      "v": 87
    },
    {
      "midi": 69,
      "hit": false,
      "t": 183134.24899999984,
      "d": 235.07452500000363,
      "v": 91
    },
    {
      "midi": 61,
      "hit": false,
      "t": 183358.12949999984,
      "d": 210.82080416666577,
      "v": 87
    },
    {
      "midi": 57,
      "hit": false,
      "t": 183582.00999999983,
      "d": 494.40277083334513,
      "v": 94
    },
    {
      "midi": 61,
      "hit": false,
      "t": 183805.89049999983,
      "d": 192.16409583334462,
      "v": 91
    },
    {
      "midi": 69,
      "hit": false,
      "t": 184029.77099999983,
      "d": 227.6118416666577,
      "v": 91
    },
    {
      "midi": 61,
      "hit": false,
      "t": 184253.65149999983,
      "d": 201.49244999999064,
      "v": 91
    },
    {
      "midi": 57,
      "hit": false,
      "t": 184477.53199999983,
      "d": 531.7161874999874,
      "v": 92
    },
    {
      "midi": 38,
      "hit": false,
      "t": 184477.53199999983,
      "d": 1675.3724083333218,
      "v": 92
    },
    {
      "midi": 50,
      "hit": false,
      "t": 184477.53199999983,
      "d": 1733.2082041666436,
      "v": 94
    },
    {
      "midi": 62,
      "hit": false,
      "t": 184701.41249999983,
      "d": 197.76110833333223,
      "v": 89
    },
    {
      "midi": 69,
      "hit": false,
      "t": 184925.29299999983,
      "d": 255.59690416665399,
      "v": 91
    },
    {
      "midi": 62,
      "hit": false,
      "t": 185149.17349999983,
      "d": 190.2984249999863,
      "v": 88
    },
    {
      "midi": 57,
      "hit": false,
      "t": 185373.05399999983,
      "d": 597.0146666666551,
      "v": 94
    },
    {
      "midi": 62,
      "hit": false,
      "t": 185596.93449999983,
      "d": 175.37305833332357,
      "v": 90
    },
    {
      "midi": 69,
      "hit": false,
      "t": 185820.81499999983,
      "d": 240.67153749999125,
      "v": 93
    },
    {
      "midi": 62,
      "hit": false,
      "t": 186044.69549999983,
      "d": 184.7014124999696,
      "v": 89
    },
    {
      "midi": 57,
      "hit": false,
      "t": 186268.5759999998,
      "d": 570.895274999988,
      "v": 91
    },
    {
      "midi": 33,
      "hit": false,
      "t": 186268.5759999998,
      "d": 1705.2231416666473,
      "v": 91
    },
    {
      "midi": 45,
      "hit": false,
      "t": 186268.5759999998,
      "d": 1714.5514958333224,
      "v": 91
    },
    {
      "midi": 61,
      "hit": false,
      "t": 186492.4564999998,
      "d": 255.59690416665399,
      "v": 89
    },
    {
      "midi": 69,
      "hit": false,
      "t": 186716.3369999998,
      "d": 244.40287916667876,
      "v": 92
    },
    {
      "midi": 61,
      "hit": false,
      "t": 186940.2174999998,
      "d": 208.95513333333656,
      "v": 92
    },
    {
      "midi": 57,
      "hit": false,
      "t": 187164.0979999998,
      "d": 455.2236833333445,
      "v": 90
    },
    {
      "midi": 61,
      "hit": false,
      "t": 187387.9784999998,
      "d": 220.1491583333409,
      "v": 91
    },
    {
      "midi": 69,
      "hit": false,
      "t": 187611.8589999998,
      "d": 255.59690416665399,
      "v": 86
    },
    {
      "midi": 61,
      "hit": false,
      "t": 187835.7394999998,
      "d": 210.82080416666577,
      "v": 91
    },
    {
      "midi": 56,
      "hit": false,
      "t": 188059.6199999998,
      "d": 546.6415541667084,
      "v": 92
    },
    {
      "midi": 40,
      "hit": false,
      "t": 188059.6199999998,
      "d": 1714.5514958333515,
      "v": 94
    },
    {
      "midi": 47,
      "hit": false,
      "t": 188059.6199999998,
      "d": 1714.5514958333515,
      "v": 94
    },
    {
      "midi": 59,
      "hit": false,
      "t": 188283.5004999998,
      "d": 201.49245000001974,
      "v": 91
    },
    {
      "midi": 68,
      "hit": false,
      "t": 188507.38099999982,
      "d": 242.53720833334955,
      "v": 89
    },
    {
      "midi": 59,
      "hit": false,
      "t": 188731.26149999985,
      "d": 207.08946249997825,
      "v": 91
    },
    {
      "midi": 56,
      "hit": false,
      "t": 188955.14199999982,
      "d": 404.8505708333396,
      "v": 90
    },
    {
      "midi": 59,
      "hit": false,
      "t": 189179.02249999982,
      "d": 197.76110833333223,
      "v": 91
    },
    {
      "midi": 68,
      "hit": false,
      "t": 189402.90299999982,
      "d": 192.16409583334462,
      "v": 86
    },
    {
      "midi": 59,
      "hit": false,
      "t": 189626.78349999982,
      "d": 152.9850083333149,
      "v": 91
    },
    {
      "midi": 57,
      "hit": false,
      "t": 189850.6639999998,
      "d": 682.8355250000022,
      "v": 91
    },
    {
      "midi": 42,
      "hit": false,
      "t": 189850.6639999998,
      "d": 1783.5813166666485,
      "v": 91
    },
    {
      "midi": 49,
      "hit": false,
      "t": 189850.6639999998,
      "d": 1783.5813166666485,
      "v": 93
    },
    {
      "midi": 61,
      "hit": false,
      "t": 190074.54449999979,
      "d": 223.8804999999993,
      "v": 89
    },
    {
      "midi": 66,
      "hit": false,
      "t": 190298.42499999978,
      "d": 235.07452500000363,
      "v": 90
    },
    {
      "midi": 61,
      "hit": false,
      "t": 190522.30549999978,
      "d": 210.82080416666577,
      "v": 86
    },
    {
      "midi": 57,
      "hit": false,
      "t": 190746.18599999978,
      "d": 494.40277083334513,
      "v": 93
    },
    {
      "midi": 61,
      "hit": false,
      "t": 190970.06649999978,
      "d": 192.16409583334462,
      "v": 90
    },
    {
      "midi": 66,
      "hit": false,
      "t": 191193.94699999978,
      "d": 227.6118416666577,
      "v": 90
    },
    {
      "midi": 61,
      "hit": false,
      "t": 191417.82749999978,
      "d": 201.49244999999064,
      "v": 90
    },
    {
      "midi": 57,
      "hit": false,
      "t": 191641.70799999978,
      "d": 531.7161874999874,
      "v": 91
    },
    {
      "midi": 38,
      "hit": false,
      "t": 191641.70799999978,
      "d": 1675.3724083333218,
      "v": 91
    },
    {
      "midi": 50,
      "hit": false,
      "t": 191641.70799999978,
      "d": 1733.2082041666436,
      "v": 93
    },
    {
      "midi": 62,
      "hit": false,
      "t": 191865.58849999978,
      "d": 197.76110833333223,
      "v": 88
    },
    {
      "midi": 66,
      "hit": false,
      "t": 192089.46899999978,
      "d": 255.59690416665399,
      "v": 90
    },
    {
      "midi": 62,
      "hit": false,
      "t": 192313.34949999978,
      "d": 190.2984249999863,
      "v": 87
    },
    {
      "midi": 57,
      "hit": false,
      "t": 192537.22999999978,
      "d": 597.0146666666551,
      "v": 93
    },
    {
      "midi": 62,
      "hit": false,
      "t": 192761.11049999978,
      "d": 175.37305833332357,
      "v": 89
    },
    {
      "midi": 66,
      "hit": false,
      "t": 192984.99099999978,
      "d": 240.67153749999125,
      "v": 92
    },
    {
      "midi": 62,
      "hit": false,
      "t": 193208.87149999978,
      "d": 184.7014124999696,
      "v": 88
    },
    {
      "midi": 56,
      "hit": false,
      "t": 193432.75199999975,
      "d": 570.895274999988,
      "v": 92
    },
    {
      "midi": 35,
      "hit": false,
      "t": 193432.75199999975,
      "d": 3468.2820791666745,
      "v": 92
    },
    {
      "midi": 47,
      "hit": false,
      "t": 193432.75199999975,
      "d": 3468.2820791666745,
      "v": 92
    },
    {
      "midi": 64,
      "hit": false,
      "t": 193432.752,
      "d": 3578.3566583333304,
      "v": 1
    },
    {
      "midi": 59,
      "hit": false,
      "t": 193656.63249999975,
      "d": 255.59690416665399,
      "v": 88
    },
    {
      "midi": 64,
      "hit": false,
      "t": 193880.51299999974,
      "d": 244.40287916667876,
      "v": 92
    },
    {
      "midi": 59,
      "hit": false,
      "t": 194104.39349999974,
      "d": 208.95513333333656,
      "v": 92
    },
    {
      "midi": 56,
      "hit": false,
      "t": 194328.27399999974,
      "d": 455.2236833333445,
      "v": 90
    },
    {
      "midi": 59,
      "hit": false,
      "t": 194552.15449999974,
      "d": 220.1491583333409,
      "v": 91
    },
    {
      "midi": 64,
      "hit": false,
      "t": 194776.03499999974,
      "d": 255.59690416665399,
      "v": 86
    },
    {
      "midi": 59,
      "hit": false,
      "t": 194999.91549999974,
      "d": 210.82080416666577,
      "v": 91
    },
    {
      "midi": 56,
      "hit": false,
      "t": 195223.79599999974,
      "d": 546.6415541667084,
      "v": 92
    },
    {
      "midi": 59,
      "hit": false,
      "t": 195447.67649999974,
      "d": 201.49245000001974,
      "v": 91
    },
    {
      "midi": 64,
      "hit": false,
      "t": 195671.55699999977,
      "d": 242.53720833334955,
      "v": 89
    },
    {
      "midi": 59,
      "hit": false,
      "t": 195895.4374999998,
      "d": 207.08946249997825,
      "v": 91
    },
    {
      "midi": 56,
      "hit": false,
      "t": 196119.31799999977,
      "d": 404.8505708333396,
      "v": 90
    },
    {
      "midi": 59,
      "hit": false,
      "t": 196343.19849999977,
      "d": 197.76110833333223,
      "v": 91
    },
    {
      "midi": 64,
      "hit": false,
      "t": 196567.07899999977,
      "d": 192.16409583334462,
      "v": 86
    },
    {
      "midi": 59,
      "hit": false,
      "t": 196790.95949999976,
      "d": 152.9850083333149,
      "v": 91
    },
    {
      "midi": 57,
      "hit": false,
      "t": 197014.83999999973,
      "d": 682.8355250000022,
      "v": 92
    },
    {
      "midi": 37,
      "hit": false,
      "t": 197014.83999999973,
      "d": 3473.879091666662,
      "v": 92
    },
    {
      "midi": 49,
      "hit": false,
      "t": 197014.83999999973,
      "d": 3473.879091666662,
      "v": 92
    },
    {
      "midi": 66,
      "hit": false,
      "t": 197014.84,
      "d": 294.7759916666546,
      "v": 1
    },
    {
      "midi": 61,
      "hit": false,
      "t": 197238.72049999973,
      "d": 223.8804999999993,
      "v": 89
    },
    {
      "midi": 64,
      "hit": false,
      "t": 197313.3473333333,
      "d": 1488.805324999994,
      "v": 1
    },
    {
      "midi": 66,
      "hit": false,
      "t": 197462.60099999973,
      "d": 235.07452500000363,
      "v": 88
    },
    {
      "midi": 61,
      "hit": false,
      "t": 197686.48149999973,
      "d": 210.82080416666577,
      "v": 90
    },
    {
      "midi": 57,
      "hit": false,
      "t": 197910.36199999973,
      "d": 494.40277083334513,
      "v": 90
    },
    {
      "midi": 61,
      "hit": false,
      "t": 198134.24249999973,
      "d": 192.16409583334462,
      "v": 90
    },
    {
      "midi": 66,
      "hit": false,
      "t": 198358.12299999973,
      "d": 227.6118416666577,
      "v": 90
    },
    {
      "midi": 61,
      "hit": false,
      "t": 198582.00349999973,
      "d": 201.49244999999064,
      "v": 86
    },
    {
      "midi": 57,
      "hit": false,
      "t": 198805.88399999973,
      "d": 531.7161874999874,
      "v": 90
    },
    {
      "midi": 66,
      "hit": false,
      "t": 198805.88399999996,
      "d": 294.7759916666546,
      "v": 1
    },
    {
      "midi": 61,
      "hit": false,
      "t": 199029.76449999973,
      "d": 197.76110833333223,
      "v": 90
    },
    {
      "midi": 64,
      "hit": false,
      "t": 199104.39133333327,
      "d": 5070.893325000012,
      "v": 1
    },
    {
      "midi": 66,
      "hit": false,
      "t": 199253.64499999973,
      "d": 255.59690416665399,
      "v": 90
    },
    {
      "midi": 61,
      "hit": false,
      "t": 199477.52549999973,
      "d": 190.2984249999863,
      "v": 90
    },
    {
      "midi": 57,
      "hit": false,
      "t": 199701.40599999973,
      "d": 597.0146666666551,
      "v": 90
    },
    {
      "midi": 61,
      "hit": false,
      "t": 199925.28649999973,
      "d": 175.37305833332357,
      "v": 90
    },
    {
      "midi": 66,
      "hit": false,
      "t": 200149.16699999972,
      "d": 240.67153749999125,
      "v": 89
    },
    {
      "midi": 61,
      "hit": false,
      "t": 200373.04749999972,
      "d": 184.7014124999987,
      "v": 86
    },
    {
      "midi": 57,
      "hit": false,
      "t": 200596.92799999972,
      "d": 570.895274999988,
      "v": 92
    },
    {
      "midi": 38,
      "hit": false,
      "t": 200596.92799999972,
      "d": 3468.2820791666745,
      "v": 92
    },
    {
      "midi": 50,
      "hit": false,
      "t": 200596.92799999972,
      "d": 3468.2820791666745,
      "v": 92
    },
    {
      "midi": 62,
      "hit": false,
      "t": 200820.80849999972,
      "d": 255.59690416665399,
      "v": 88
    },
    {
      "midi": 69,
      "hit": false,
      "t": 201044.68899999972,
      "d": 244.40287916667876,
      "v": 92
    },
    {
      "midi": 62,
      "hit": false,
      "t": 201268.56949999972,
      "d": 208.95513333333656,
      "v": 92
    },
    {
      "midi": 57,
      "hit": false,
      "t": 201492.44999999972,
      "d": 455.2236833333445,
      "v": 90
    },
    {
      "midi": 62,
      "hit": false,
      "t": 201716.33049999972,
      "d": 220.1491583333409,
      "v": 91
    },
    {
      "midi": 69,
      "hit": false,
      "t": 201940.21099999972,
      "d": 255.59690416665399,
      "v": 86
    },
    {
      "midi": 62,
      "hit": false,
      "t": 202164.09149999972,
      "d": 210.82080416666577,
      "v": 91
    },
    {
      "midi": 57,
      "hit": false,
      "t": 202387.97199999972,
      "d": 546.6415541667084,
      "v": 92
    },
    {
      "midi": 62,
      "hit": false,
      "t": 202611.85249999972,
      "d": 201.49245000001974,
      "v": 91
    },
    {
      "midi": 69,
      "hit": false,
      "t": 202835.73299999975,
      "d": 242.53720833334955,
      "v": 89
    },
    {
      "midi": 62,
      "hit": false,
      "t": 203059.61349999977,
      "d": 207.08946249997825,
      "v": 91
    },
    {
      "midi": 57,
      "hit": false,
      "t": 203283.49399999974,
      "d": 404.8505708333396,
      "v": 90
    },
    {
      "midi": 62,
      "hit": false,
      "t": 203507.37449999974,
      "d": 197.76110833333223,
      "v": 91
    },
    {
      "midi": 69,
      "hit": false,
      "t": 203731.25499999974,
      "d": 192.16409583334462,
      "v": 86
    },
    {
      "midi": 62,
      "hit": false,
      "t": 203955.13549999974,
      "d": 152.9850083333149,
      "v": 91
    },
    {
      "midi": 59,
      "hit": false,
      "t": 204179.0159999997,
      "d": 682.8355250000022,
      "v": 92
    },
    {
      "midi": 35,
      "hit": false,
      "t": 204179.0159999997,
      "d": 1783.5813166666485,
      "v": 92
    },
    {
      "midi": 47,
      "hit": false,
      "t": 204179.0159999997,
      "d": 1783.5813166666485,
      "v": 92
    },
    {
      "midi": 62,
      "hit": false,
      "t": 204179.01599999995,
      "d": 2682.834658333013,
      "v": 1
    },
    {
      "midi": 62,
      "hit": false,
      "t": 204402.8964999997,
      "d": 223.8804999999993,
      "v": 89
    },
    {
      "midi": 71,
      "hit": false,
      "t": 204626.7769999997,
      "d": 235.07452500000363,
      "v": 88
    },
    {
      "midi": 62,
      "hit": false,
      "t": 204850.6574999997,
      "d": 210.82080416666577,
      "v": 90
    },
    {
      "midi": 59,
      "hit": false,
      "t": 205074.5379999997,
      "d": 494.40277083334513,
      "v": 90
    },
    {
      "midi": 62,
      "hit": false,
      "t": 205298.4184999997,
      "d": 192.16409583334462,
      "v": 90
    },
    {
      "midi": 71,
      "hit": false,
      "t": 205522.2989999997,
      "d": 227.6118416666577,
      "v": 90
    },
    {
      "midi": 62,
      "hit": false,
      "t": 205746.1794999997,
      "d": 201.49244999999064,
      "v": 86
    },
    {
      "midi": 61,
      "hit": false,
      "t": 205970.0599999997,
      "d": 531.7161874999874,
      "v": 90
    },
    {
      "midi": 37,
      "hit": false,
      "t": 205970.0599999997,
      "d": 1751.8649124999938,
      "v": 92
    },
    {
      "midi": 49,
      "hit": false,
      "t": 205970.0599999997,
      "d": 1751.8649124999938,
      "v": 92
    },
    {
      "midi": 64,
      "hit": false,
      "t": 206193.9404999997,
      "d": 197.76110833333223,
      "v": 90
    },
    {
      "midi": 69,
      "hit": false,
      "t": 206417.8209999997,
      "d": 255.59690416665399,
      "v": 90
    },
    {
      "midi": 64,
      "hit": false,
      "t": 206641.7014999997,
      "d": 190.2984249999863,
      "v": 90
    },
    {
      "midi": 64,
      "hit": false,
      "t": 206865.58199999962,
      "d": 3578.3566583333304,
      "v": 1
    },
    {
      "midi": 61,
      "hit": false,
      "t": 206865.5819999997,
      "d": 597.0146666666551,
      "v": 90
    },
    {
      "midi": 64,
      "hit": false,
      "t": 207089.4624999997,
      "d": 175.37305833332357,
      "v": 90
    },
    {
      "midi": 69,
      "hit": false,
      "t": 207313.3429999997,
      "d": 240.67153749999125,
      "v": 89
    },
    {
      "midi": 64,
      "hit": false,
      "t": 207537.2234999997,
      "d": 184.7014124999987,
      "v": 86
    },
    {
      "midi": 62,
      "hit": false,
      "t": 207761.1039999997,
      "d": 604.4773499999719,
      "v": 90
    },
    {
      "midi": 38,
      "hit": false,
      "t": 207761.1039999997,
      "d": 3524.252204166667,
      "v": 90
    },
    {
      "midi": 50,
      "hit": false,
      "t": 207761.1039999997,
      "d": 3531.714887500013,
      "v": 90
    },
    {
      "midi": 66,
      "hit": false,
      "t": 207984.9844999997,
      "d": 287.31330833330867,
      "v": 81
    },
    {
      "midi": 69,
      "hit": false,
      "t": 208208.8649999997,
      "d": 333.9550791666261,
      "v": 82
    },
    {
      "midi": 66,
      "hit": false,
      "t": 208432.74549999967,
      "d": 225.7461708333285,
      "v": 82
    },
    {
      "midi": 62,
      "hit": false,
      "t": 208656.62599999967,
      "d": 608.2086916666594,
      "v": 78
    },
    {
      "midi": 66,
      "hit": false,
      "t": 208880.50649999967,
      "d": 208.95513333333656,
      "v": 78
    },
    {
      "midi": 69,
      "hit": false,
      "t": 209104.38699999967,
      "d": 259.3282458333415,
      "v": 78
    },
    {
      "midi": 66,
      "hit": false,
      "t": 209328.26749999967,
      "d": 203.35812083334895,
      "v": 78
    },
    {
      "midi": 64,
      "hit": false,
      "t": 209552.1479999997,
      "d": 722.0146125000028,
      "v": 78
    },
    {
      "midi": 68,
      "hit": false,
      "t": 209776.0284999997,
      "d": 268.6565999999875,
      "v": 78
    },
    {
      "midi": 71,
      "hit": false,
      "t": 209999.9089999997,
      "d": 440.2983166666818,
      "v": 78
    },
    {
      "midi": 68,
      "hit": false,
      "t": 210223.7894999997,
      "d": 277.98495416669175,
      "v": 76
    },
    {
      "midi": 64,
      "hit": false,
      "t": 210447.66999999972,
      "d": 863.8055958333134,
      "v": 75
    },
    {
      "midi": 68,
      "hit": false,
      "t": 210671.55049999972,
      "d": 309.70135833334643,
      "v": 74
    },
    {
      "midi": 71,
      "hit": false,
      "t": 210895.43099999972,
      "d": 268.6565999999875,
      "v": 72
    },
    {
      "midi": 68,
      "hit": false,
      "t": 211119.31149999972,
      "d": 216.41781666665338,
      "v": 69
    },
    {
      "midi": 69,
      "hit": false,
      "t": 211343.19199999972,
      "d": 1470.1486166666728,
      "v": 85
    },
    {
      "midi": 45,
      "hit": false,
      "t": 211343.19199999972,
      "d": 1485.0739833333355,
      "v": 85
    },
    {
      "midi": 52,
      "hit": false,
      "t": 211343.19199999972,
      "d": 1507.4620333333442,
      "v": 85
    },
    {
      "midi": 61,
      "hit": false,
      "t": 211343.19199999972,
      "d": 1527.9844125000236,
      "v": 85
    },
    {
      "midi": 64,
      "hit": false,
      "t": 211343.19199999972,
      "d": 1539.178437500028,
      "v": 85
    },
    {
      "midi": 59,
      "hit": false,
      "t": 213134.23599999974,
      "d": 1236.9397624999692,
      "v": 81
    },
    {
      "midi": 44,
      "hit": false,
      "t": 213134.23599999974,
      "d": 1246.2681166666443,
      "v": 81
    },
    {
      "midi": 64,
      "hit": false,
      "t": 213134.23599999974,
      "d": 1251.865129166632,
      "v": 81
    },
    {
      "midi": 52,
      "hit": false,
      "t": 213134.23599999974,
      "d": 1268.656166666624,
      "v": 81
    },
    {
      "midi": 68,
      "hit": false,
      "t": 213134.23599999974,
      "d": 1276.1188499999698,
      "v": 81
    },
    {
      "midi": 49,
      "hit": false,
      "t": 214925.2799999997,
      "d": 1197.7606749999977,
      "v": 83
    },
    {
      "midi": 42,
      "hit": false,
      "t": 214925.2799999997,
      "d": 1264.9248249999946,
      "v": 83
    },
    {
      "midi": 66,
      "hit": false,
      "t": 214925.2799999997,
      "d": 1313.4322666666703,
      "v": 83
    },
    {
      "midi": 57,
      "hit": false,
      "t": 214925.2799999997,
      "d": 1324.6262916666747,
      "v": 83
    },
    {
      "midi": 61,
      "hit": false,
      "t": 214925.2799999997,
      "d": 1332.0889750000206,
      "v": 83
    },
    {
      "midi": 38,
      "hit": false,
      "t": 216716.32399999973,
      "d": 1746.2679000000062,
      "v": 79
    },
    {
      "midi": 45,
      "hit": false,
      "t": 216716.32399999973,
      "d": 1764.9246083333273,
      "v": 79
    },
    {
      "midi": 57,
      "hit": false,
      "t": 216716.32399999973,
      "d": 1779.84997499999,
      "v": 79
    },
    {
      "midi": 62,
      "hit": false,
      "t": 216716.32399999973,
      "d": 1779.84997499999,
      "v": 79
    },
    {
      "midi": 66,
      "hit": false,
      "t": 216716.32399999973,
      "d": 1787.312658333336,
      "v": 79
    },
    {
      "midi": 69,
      "hit": false,
      "t": 218507.36799999973,
      "d": 1470.1486166667019,
      "v": 79
    },
    {
      "midi": 45,
      "hit": false,
      "t": 218507.36799999973,
      "d": 1485.0739833333646,
      "v": 79
    },
    {
      "midi": 52,
      "hit": false,
      "t": 218507.36799999973,
      "d": 1507.4620333333733,
      "v": 79
    },
    {
      "midi": 61,
      "hit": false,
      "t": 218507.36799999973,
      "d": 1527.9844125000527,
      "v": 79
    },
    {
      "midi": 64,
      "hit": false,
      "t": 218507.36799999973,
      "d": 1539.178437500057,
      "v": 79
    },
    {
      "midi": 59,
      "hit": false,
      "t": 220298.41199999978,
      "d": 1236.9397624999692,
      "v": 79
    },
    {
      "midi": 44,
      "hit": false,
      "t": 220298.41199999978,
      "d": 1246.2681166666443,
      "v": 79
    },
    {
      "midi": 64,
      "hit": false,
      "t": 220298.41199999978,
      "d": 1251.865129166632,
      "v": 79
    },
    {
      "midi": 52,
      "hit": false,
      "t": 220298.41199999978,
      "d": 1268.656166666624,
      "v": 79
    },
    {
      "midi": 68,
      "hit": false,
      "t": 220298.41199999978,
      "d": 1276.1188499999698,
      "v": 79
    },
    {
      "midi": 49,
      "hit": false,
      "t": 222089.45599999974,
      "d": 1197.7606749999977,
      "v": 79
    },
    {
      "midi": 42,
      "hit": false,
      "t": 222089.45599999974,
      "d": 1264.9248249999946,
      "v": 79
    },
    {
      "midi": 66,
      "hit": false,
      "t": 222089.45599999974,
      "d": 1313.4322666666703,
      "v": 79
    },
    {
      "midi": 57,
      "hit": false,
      "t": 222089.45599999974,
      "d": 1324.6262916666747,
      "v": 79
    },
    {
      "midi": 61,
      "hit": false,
      "t": 222089.45599999974,
      "d": 1332.0889750000206,
      "v": 79
    },
    {
      "midi": 62,
      "hit": false,
      "t": 223880.49999999977,
      "d": 835.8205333333462,
      "v": 79
    },
    {
      "midi": 69,
      "hit": false,
      "t": 223880.49999999977,
      "d": 1654.8500291667006,
      "v": 79
    },
    {
      "midi": 38,
      "hit": false,
      "t": 223880.49999999977,
      "d": 1746.2679000000353,
      "v": 79
    },
    {
      "midi": 45,
      "hit": false,
      "t": 223880.49999999977,
      "d": 1764.9246083333564,
      "v": 79
    },
    {
      "midi": 66,
      "hit": false,
      "t": 223880.49999999977,
      "d": 1787.312658333365,
      "v": 79
    },
    {
      "midi": 57,
      "hit": false,
      "t": 224776.0219999998,
      "d": 852.6115708333382,
      "v": 87
    },
    {
      "midi": 62,
      "hit": false,
      "t": 224776.0219999998,
      "d": 852.6115708333382,
      "v": 87
    },
    {
      "midi": 61,
      "hit": false,
      "t": 225671.5439999998,
      "d": 363.8058125000098,
      "v": 76
    },
    {
      "midi": 69,
      "hit": false,
      "t": 225671.5439999998,
      "d": 410.4475833333563,
      "v": 76
    },
    {
      "midi": 45,
      "hit": false,
      "t": 225671.5439999998,
      "d": 1783.5813166667067,
      "v": 76
    },
    {
      "midi": 52,
      "hit": false,
      "t": 225671.5439999998,
      "d": 1783.5813166667067,
      "v": 76
    },
    {
      "midi": 57,
      "hit": false,
      "t": 226119.30499999982,
      "d": 373.1341666666558,
      "v": 73
    },
    {
      "midi": 64,
      "hit": false,
      "t": 226119.30499999982,
      "d": 408.581912499998,
      "v": 73
    },
    {
      "midi": 61,
      "hit": false,
      "t": 226567.06599999982,
      "d": 363.8058125000098,
      "v": 76
    },
    {
      "midi": 69,
      "hit": false,
      "t": 226567.06599999982,
      "d": 410.4475833333563,
      "v": 76
    },
    {
      "midi": 57,
      "hit": false,
      "t": 227014.82699999984,
      "d": 373.1341666666558,
      "v": 74
    },
    {
      "midi": 64,
      "hit": false,
      "t": 227014.82699999984,
      "d": 408.581912499998,
      "v": 74
    },
    {
      "midi": 59,
      "hit": false,
      "t": 227462.58799999984,
      "d": 363.8058124999807,
      "v": 75
    },
    {
      "midi": 68,
      "hit": false,
      "t": 227462.58799999984,
      "d": 410.4475833333272,
      "v": 75
    },
    {
      "midi": 40,
      "hit": false,
      "t": 227462.58799999984,
      "d": 1695.8947875000304,
      "v": 76
    },
    {
      "midi": 47,
      "hit": false,
      "t": 227462.58799999984,
      "d": 1755.5962541667104,
      "v": 76
    },
    {
      "midi": 56,
      "hit": false,
      "t": 227910.34899999984,
      "d": 373.1341666666558,
      "v": 73
    },
    {
      "midi": 64,
      "hit": false,
      "t": 227910.34899999984,
      "d": 408.581912499998,
      "v": 73
    },
    {
      "midi": 59,
      "hit": false,
      "t": 228358.10999999984,
      "d": 363.8058125000098,
      "v": 78
    },
    {
      "midi": 68,
      "hit": false,
      "t": 228358.10999999984,
      "d": 410.4475833333563,
      "v": 78
    },
    {
      "midi": 56,
      "hit": false,
      "t": 228805.87099999987,
      "d": 373.1341666666849,
      "v": 74
    },
    {
      "midi": 64,
      "hit": false,
      "t": 228805.87099999987,
      "d": 408.5819125000271,
      "v": 74
    },
    {
      "midi": 61,
      "hit": false,
      "t": 229253.6319999999,
      "d": 363.8058125000098,
      "v": 76
    },
    {
      "midi": 69,
      "hit": false,
      "t": 229253.6319999999,
      "d": 410.4475833333563,
      "v": 76
    },
    {
      "midi": 42,
      "hit": false,
      "t": 229253.6319999999,
      "d": 1783.5813166667067,
      "v": 73
    },
    {
      "midi": 49,
      "hit": false,
      "t": 229253.6319999999,
      "d": 1783.5813166667067,
      "v": 73
    },
    {
      "midi": 57,
      "hit": false,
      "t": 229701.39299999992,
      "d": 373.1341666666558,
      "v": 73
    },
    {
      "midi": 66,
      "hit": false,
      "t": 229701.39299999992,
      "d": 408.581912499998,
      "v": 73
    },
    {
      "midi": 61,
      "hit": false,
      "t": 230149.15399999992,
      "d": 363.8058125000098,
      "v": 76
    },
    {
      "midi": 69,
      "hit": false,
      "t": 230149.15399999992,
      "d": 410.4475833333563,
      "v": 76
    },
    {
      "midi": 57,
      "hit": false,
      "t": 230596.91499999995,
      "d": 373.1341666666558,
      "v": 74
    },
    {
      "midi": 66,
      "hit": false,
      "t": 230596.91499999995,
      "d": 408.581912499998,
      "v": 74
    },
    {
      "midi": 62,
      "hit": false,
      "t": 231044.67599999995,
      "d": 363.8058125000098,
      "v": 75
    },
    {
      "midi": 69,
      "hit": false,
      "t": 231044.67599999995,
      "d": 410.4475833333563,
      "v": 75
    },
    {
      "midi": 38,
      "hit": false,
      "t": 231044.67599999995,
      "d": 1677.2380791667092,
      "v": 73
    },
    {
      "midi": 45,
      "hit": false,
      "t": 231044.67599999995,
      "d": 1735.073875000031,
      "v": 73
    },
    {
      "midi": 57,
      "hit": false,
      "t": 231492.43699999998,
      "d": 373.1341666666558,
      "v": 75
    },
    {
      "midi": 66,
      "hit": false,
      "t": 231492.43699999998,
      "d": 408.581912499998,
      "v": 75
    },
    {
      "midi": 62,
      "hit": false,
      "t": 231940.19799999997,
      "d": 363.8058125000098,
      "v": 86
    },
    {
      "midi": 69,
      "hit": false,
      "t": 231940.19799999997,
      "d": 410.4475833333563,
      "v": 86
    },
    {
      "midi": 57,
      "hit": false,
      "t": 232387.959,
      "d": 373.1341666666558,
      "v": 83
    },
    {
      "midi": 66,
      "hit": false,
      "t": 232387.959,
      "d": 408.5819124999689,
      "v": 83
    },
    {
      "midi": 61,
      "hit": false,
      "t": 232835.71999999997,
      "d": 363.8058125000098,
      "v": 76
    },
    {
      "midi": 69,
      "hit": false,
      "t": 232835.71999999997,
      "d": 410.4475833333563,
      "v": 76
    },
    {
      "midi": 45,
      "hit": false,
      "t": 232835.71999999997,
      "d": 1675.37240833338,
      "v": 76
    },
    {
      "midi": 52,
      "hit": false,
      "t": 232835.71999999997,
      "d": 1675.37240833338,
      "v": 76
    },
    {
      "midi": 57,
      "hit": false,
      "t": 233283.481,
      "d": 373.1341666666558,
      "v": 73
    },
    {
      "midi": 64,
      "hit": false,
      "t": 233283.481,
      "d": 408.581912499998,
      "v": 73
    },
    {
      "midi": 61,
      "hit": false,
      "t": 233731.242,
      "d": 363.8058125000098,
      "v": 76
    },
    {
      "midi": 69,
      "hit": false,
      "t": 233731.242,
      "d": 410.4475833333563,
      "v": 76
    },
    {
      "midi": 57,
      "hit": false,
      "t": 234179.00300000003,
      "d": 373.1341666666558,
      "v": 74
    },
    {
      "midi": 64,
      "hit": false,
      "t": 234179.00300000003,
      "d": 408.581912499998,
      "v": 74
    },
    {
      "midi": 59,
      "hit": false,
      "t": 234626.76400000002,
      "d": 363.8058125000098,
      "v": 75
    },
    {
      "midi": 68,
      "hit": false,
      "t": 234626.76400000002,
      "d": 410.4475833333563,
      "v": 75
    },
    {
      "midi": 44,
      "hit": false,
      "t": 234626.76400000002,
      "d": 1695.8947875000595,
      "v": 76
    },
    {
      "midi": 52,
      "hit": false,
      "t": 234626.76400000002,
      "d": 1755.5962541667395,
      "v": 76
    },
    {
      "midi": 56,
      "hit": false,
      "t": 235074.52500000005,
      "d": 373.1341666666558,
      "v": 73
    },
    {
      "midi": 64,
      "hit": false,
      "t": 235074.52500000005,
      "d": 408.581912499998,
      "v": 73
    },
    {
      "midi": 59,
      "hit": false,
      "t": 235522.28600000005,
      "d": 363.8058125000098,
      "v": 78
    },
    {
      "midi": 68,
      "hit": false,
      "t": 235522.28600000005,
      "d": 410.4475833333563,
      "v": 78
    },
    {
      "midi": 56,
      "hit": false,
      "t": 235970.04700000008,
      "d": 373.1341666666849,
      "v": 74
    },
    {
      "midi": 64,
      "hit": false,
      "t": 235970.04700000008,
      "d": 408.5819125000271,
      "v": 74
    },
    {
      "midi": 57,
      "hit": false,
      "t": 236417.8080000001,
      "d": 363.8058125000098,
      "v": 76
    },
    {
      "midi": 66,
      "hit": false,
      "t": 236417.8080000001,
      "d": 410.4475833333563,
      "v": 76
    },
    {
      "midi": 42,
      "hit": false,
      "t": 236417.8080000001,
      "d": 1783.5813166667067,
      "v": 73
    },
    {
      "midi": 49,
      "hit": false,
      "t": 236417.8080000001,
      "d": 1783.5813166667067,
      "v": 73
    },
    {
      "midi": 54,
      "hit": false,
      "t": 236865.56900000013,
      "d": 373.1341666666558,
      "v": 81
    },
    {
      "midi": 61,
      "hit": false,
      "t": 236865.56900000013,
      "d": 408.581912499998,
      "v": 81
    },
    {
      "midi": 57,
      "hit": false,
      "t": 237313.33000000013,
      "d": 363.8058125000098,
      "v": 94
    },
    {
      "midi": 66,
      "hit": false,
      "t": 237313.33000000013,
      "d": 410.4475833333563,
      "v": 94
    },
    {
      "midi": 54,
      "hit": false,
      "t": 237761.09100000016,
      "d": 373.1341666666558,
      "v": 96
    },
    {
      "midi": 61,
      "hit": false,
      "t": 237761.09100000016,
      "d": 408.581912499998,
      "v": 96
    },
    {
      "midi": 57,
      "hit": false,
      "t": 238208.85200000016,
      "d": 363.8058125000098,
      "v": 90
    },
    {
      "midi": 66,
      "hit": false,
      "t": 238208.85200000016,
      "d": 410.4475833333563,
      "v": 90
    },
    {
      "midi": 38,
      "hit": false,
      "t": 238208.85200000016,
      "d": 1677.2380791667092,
      "v": 90
    },
    {
      "midi": 45,
      "hit": false,
      "t": 238208.85200000016,
      "d": 1735.073875000031,
      "v": 90
    },
    {
      "midi": 54,
      "hit": false,
      "t": 238656.6130000002,
      "d": 373.1341666666558,
      "v": 80
    },
    {
      "midi": 62,
      "hit": false,
      "t": 238656.6130000002,
      "d": 408.581912499998,
      "v": 80
    },
    {
      "midi": 57,
      "hit": false,
      "t": 239104.37400000019,
      "d": 363.8058125000098,
      "v": 74
    },
    {
      "midi": 66,
      "hit": false,
      "t": 239104.37400000019,
      "d": 410.4475833333563,
      "v": 74
    },
    {
      "midi": 54,
      "hit": false,
      "t": 239552.1350000002,
      "d": 373.1341666666558,
      "v": 71
    },
    {
      "midi": 62,
      "hit": false,
      "t": 239552.1350000002,
      "d": 408.5819124999689,
      "v": 71
    },
    {
      "midi": 57,
      "hit": false,
      "t": 239999.89600000018,
      "d": 570.895274999988,
      "v": 96
    },
    {
      "midi": 33,
      "hit": false,
      "t": 239999.89600000018,
      "d": 1705.2231416666473,
      "v": 96
    },
    {
      "midi": 45,
      "hit": false,
      "t": 239999.89600000018,
      "d": 1714.5514958333224,
      "v": 96
    },
    {
      "midi": 61,
      "hit": false,
      "t": 240223.77650000018,
      "d": 255.59690416665399,
      "v": 89
    },
    {
      "midi": 69,
      "hit": false,
      "t": 240447.65700000018,
      "d": 244.40287916667876,
      "v": 93
    },
    {
      "midi": 61,
      "hit": false,
      "t": 240671.53750000018,
      "d": 208.95513333333656,
      "v": 93
    },
    {
      "midi": 57,
      "hit": false,
      "t": 240895.41800000018,
      "d": 455.2236833333445,
      "v": 91
    },
    {
      "midi": 61,
      "hit": false,
      "t": 241119.29850000018,
      "d": 220.1491583333409,
      "v": 92
    },
    {
      "midi": 69,
      "hit": false,
      "t": 241343.17900000018,
      "d": 255.59690416665399,
      "v": 87
    },
    {
      "midi": 61,
      "hit": false,
      "t": 241567.05950000018,
      "d": 210.82080416666577,
      "v": 92
    },
    {
      "midi": 56,
      "hit": false,
      "t": 241790.94000000018,
      "d": 546.6415541667084,
      "v": 93
    },
    {
      "midi": 40,
      "hit": false,
      "t": 241790.94000000018,
      "d": 1714.5514958333515,
      "v": 95
    },
    {
      "midi": 47,
      "hit": false,
      "t": 241790.94000000018,
      "d": 1714.5514958333515,
      "v": 95
    },
    {
      "midi": 59,
      "hit": false,
      "t": 242014.82050000018,
      "d": 201.49245000001974,
      "v": 92
    },
    {
      "midi": 68,
      "hit": false,
      "t": 242238.7010000002,
      "d": 242.53720833334955,
      "v": 90
    },
    {
      "midi": 59,
      "hit": false,
      "t": 242462.58150000023,
      "d": 207.08946249997825,
      "v": 92
    },
    {
      "midi": 56,
      "hit": false,
      "t": 242686.4620000002,
      "d": 404.8505708333396,
      "v": 91
    },
    {
      "midi": 59,
      "hit": false,
      "t": 242910.3425000002,
      "d": 197.76110833333223,
      "v": 92
    },
    {
      "midi": 68,
      "hit": false,
      "t": 243134.2230000002,
      "d": 192.16409583334462,
      "v": 87
    },
    {
      "midi": 59,
      "hit": false,
      "t": 243358.1035000002,
      "d": 152.9850083333149,
      "v": 92
    },
    {
      "midi": 57,
      "hit": false,
      "t": 243581.98400000017,
      "d": 682.8355250000022,
      "v": 92
    },
    {
      "midi": 42,
      "hit": false,
      "t": 243581.98400000017,
      "d": 1274.2531791666697,
      "v": 92
    },
    {
      "midi": 30,
      "hit": false,
      "t": 243581.98400000017,
      "d": 1783.5813166666485,
      "v": 94
    },
    {
      "midi": 61,
      "hit": false,
      "t": 243805.86450000017,
      "d": 223.8804999999993,
      "v": 87
    },
    {
      "midi": 69,
      "hit": false,
      "t": 244029.74500000017,
      "d": 235.07452500000363,
      "v": 91
    },
    {
      "midi": 61,
      "hit": false,
      "t": 244253.62550000017,
      "d": 210.82080416666577,
      "v": 87
    },
    {
      "midi": 57,
      "hit": false,
      "t": 244477.50600000017,
      "d": 494.40277083334513,
      "v": 94
    },
    {
      "midi": 61,
      "hit": false,
      "t": 244701.38650000017,
      "d": 192.16409583334462,
      "v": 91
    },
    {
      "midi": 69,
      "hit": false,
      "t": 244925.26700000017,
      "d": 227.6118416666577,
      "v": 91
    },
    {
      "midi": 42,
      "hit": false,
      "t": 244925.26700000017,
      "d": 440.2983166666527,
      "v": 92
    },
    {
      "midi": 61,
      "hit": false,
      "t": 245149.14750000017,
      "d": 201.49244999999064,
      "v": 91
    },
    {
      "midi": 57,
      "hit": false,
      "t": 245373.02800000017,
      "d": 531.7161874999874,
      "v": 92
    },
    {
      "midi": 45,
      "hit": false,
      "t": 245373.02800000017,
      "d": 835.8205333333171,
      "v": 94
    },
    {
      "midi": 38,
      "hit": false,
      "t": 245373.02800000017,
      "d": 888.0593166666513,
      "v": 92
    },
    {
      "midi": 62,
      "hit": false,
      "t": 245596.90850000017,
      "d": 197.76110833333223,
      "v": 89
    },
    {
      "midi": 69,
      "hit": false,
      "t": 245820.78900000016,
      "d": 255.59690416665399,
      "v": 91
    },
    {
      "midi": 62,
      "hit": false,
      "t": 246044.66950000016,
      "d": 190.2984249999863,
      "v": 88
    },
    {
      "midi": 45,
      "hit": false,
      "t": 246268.55000000016,
      "d": 388.05953333331854,
      "v": 92
    },
    {
      "midi": 57,
      "hit": false,
      "t": 246268.55000000016,
      "d": 597.0146666666551,
      "v": 94
    },
    {
      "midi": 50,
      "hit": false,
      "t": 246268.55000000016,
      "d": 837.6862041666463,
      "v": 94
    },
    {
      "midi": 62,
      "hit": false,
      "t": 246492.43050000016,
      "d": 175.37305833332357,
      "v": 90
    },
    {
      "midi": 69,
      "hit": false,
      "t": 246716.31100000016,
      "d": 240.67153749999125,
      "v": 93
    },
    {
      "midi": 45,
      "hit": false,
      "t": 246716.31100000016,
      "d": 391.79087499997695,
      "v": 87
    },
    {
      "midi": 62,
      "hit": false,
      "t": 246940.19150000016,
      "d": 184.7014124999696,
      "v": 89
    },
    {
      "midi": 57,
      "hit": false,
      "t": 247164.07200000013,
      "d": 570.895274999988,
      "v": 95
    },
    {
      "midi": 33,
      "hit": false,
      "t": 247164.07200000013,
      "d": 1705.2231416666473,
      "v": 95
    },
    {
      "midi": 45,
      "hit": false,
      "t": 247164.07200000013,
      "d": 1718.2828374999808,
      "v": 95
    },
    {
      "midi": 61,
      "hit": false,
      "t": 247387.95250000013,
      "d": 255.59690416665399,
      "v": 89
    },
    {
      "midi": 69,
      "hit": false,
      "t": 247611.83300000013,
      "d": 244.40287916667876,
      "v": 93
    },
    {
      "midi": 61,
      "hit": false,
      "t": 247835.71350000013,
      "d": 208.95513333333656,
      "v": 93
    },
    {
      "midi": 57,
      "hit": false,
      "t": 248059.59400000013,
      "d": 382.4625208333309,
      "v": 91
    },
    {
      "midi": 61,
      "hit": false,
      "t": 248283.47450000013,
      "d": 220.1491583333409,
      "v": 92
    },
    {
      "midi": 69,
      "hit": false,
      "t": 248507.35500000013,
      "d": 255.59690416665399,
      "v": 87
    },
    {
      "midi": 57,
      "hit": false,
      "t": 248507.35500000013,
      "d": 371.2684958333266,
      "v": 95
    },
    {
      "midi": 61,
      "hit": false,
      "t": 248731.23550000013,
      "d": 210.82080416666577,
      "v": 92
    },
    {
      "midi": 59,
      "hit": false,
      "t": 248955.11600000013,
      "d": 546.6415541667084,
      "v": 93
    },
    {
      "midi": 40,
      "hit": false,
      "t": 248955.11600000013,
      "d": 1714.5514958333515,
      "v": 95
    },
    {
      "midi": 47,
      "hit": false,
      "t": 248955.11600000013,
      "d": 1714.5514958333515,
      "v": 95
    },
    {
      "midi": 64,
      "hit": false,
      "t": 249178.99650000012,
      "d": 201.49245000001974,
      "v": 92
    },
    {
      "midi": 68,
      "hit": false,
      "t": 249402.87700000015,
      "d": 242.53720833334955,
      "v": 90
    },
    {
      "midi": 64,
      "hit": false,
      "t": 249626.75750000018,
      "d": 207.08946249997825,
      "v": 92
    },
    {
      "midi": 59,
      "hit": false,
      "t": 249850.63800000015,
      "d": 404.8505708333396,
      "v": 91
    },
    {
      "midi": 64,
      "hit": false,
      "t": 250074.51850000015,
      "d": 197.76110833333223,
      "v": 92
    },
    {
      "midi": 68,
      "hit": false,
      "t": 250298.39900000015,
      "d": 192.16409583334462,
      "v": 87
    },
    {
      "midi": 64,
      "hit": false,
      "t": 250522.27950000015,
      "d": 152.9850083333149,
      "v": 92
    },
    {
      "midi": 57,
      "hit": false,
      "t": 250746.16000000012,
      "d": 682.8355250000022,
      "v": 92
    },
    {
      "midi": 30,
      "hit": false,
      "t": 250746.16000000012,
      "d": 1783.5813166666485,
      "v": 94
    },
    {
      "midi": 42,
      "hit": false,
      "t": 250746.16000000012,
      "d": 1783.5813166666485,
      "v": 92
    },
    {
      "midi": 61,
      "hit": false,
      "t": 250970.04050000012,
      "d": 223.8804999999993,
      "v": 90
    },
    {
      "midi": 69,
      "hit": false,
      "t": 251193.92100000012,
      "d": 235.07452500000363,
      "v": 91
    },
    {
      "midi": 61,
      "hit": false,
      "t": 251417.80150000012,
      "d": 210.82080416666577,
      "v": 87
    },
    {
      "midi": 57,
      "hit": false,
      "t": 251641.68200000012,
      "d": 494.40277083334513,
      "v": 94
    },
    {
      "midi": 61,
      "hit": false,
      "t": 251865.56250000012,
      "d": 192.16409583334462,
      "v": 91
    },
    {
      "midi": 69,
      "hit": false,
      "t": 252089.44300000012,
      "d": 227.6118416666577,
      "v": 91
    },
    {
      "midi": 61,
      "hit": false,
      "t": 252313.32350000012,
      "d": 201.49244999999064,
      "v": 91
    },
    {
      "midi": 57,
      "hit": false,
      "t": 252537.2040000001,
      "d": 531.7161874999874,
      "v": 92
    },
    {
      "midi": 38,
      "hit": false,
      "t": 252537.2040000001,
      "d": 1675.3724083333218,
      "v": 92
    },
    {
      "midi": 50,
      "hit": false,
      "t": 252537.2040000001,
      "d": 1733.2082041666436,
      "v": 94
    },
    {
      "midi": 62,
      "hit": false,
      "t": 252761.0845000001,
      "d": 197.76110833333223,
      "v": 89
    },
    {
      "midi": 69,
      "hit": false,
      "t": 252984.9650000001,
      "d": 255.59690416665399,
      "v": 91
    },
    {
      "midi": 62,
      "hit": false,
      "t": 253208.8455000001,
      "d": 190.2984249999863,
      "v": 88
    },
    {
      "midi": 57,
      "hit": false,
      "t": 253432.7260000001,
      "d": 597.0146666666551,
      "v": 94
    },
    {
      "midi": 62,
      "hit": false,
      "t": 253656.6065000001,
      "d": 175.37305833332357,
      "v": 90
    },
    {
      "midi": 69,
      "hit": false,
      "t": 253880.4870000001,
      "d": 240.67153749999125,
      "v": 93
    },
    {
      "midi": 62,
      "hit": false,
      "t": 254104.3675000001,
      "d": 184.7014124999696,
      "v": 89
    },
    {
      "midi": 57,
      "hit": false,
      "t": 254328.24800000008,
      "d": 570.895274999988,
      "v": 95
    },
    {
      "midi": 33,
      "hit": false,
      "t": 254328.24800000008,
      "d": 815.2981541666668,
      "v": 95
    },
    {
      "midi": 45,
      "hit": false,
      "t": 254328.24800000008,
      "d": 815.2981541666668,
      "v": 95
    },
    {
      "midi": 61,
      "hit": false,
      "t": 254552.12850000008,
      "d": 255.59690416665399,
      "v": 89
    },
    {
      "midi": 69,
      "hit": false,
      "t": 254776.00900000008,
      "d": 244.40287916667876,
      "v": 93
    },
    {
      "midi": 61,
      "hit": false,
      "t": 254999.88950000008,
      "d": 208.95513333333656,
      "v": 93
    },
    {
      "midi": 57,
      "hit": false,
      "t": 255223.77000000008,
      "d": 455.2236833333445,
      "v": 91
    },
    {
      "midi": 33,
      "hit": false,
      "t": 255223.77000000008,
      "d": 809.7011416666501,
      "v": 95
    },
    {
      "midi": 45,
      "hit": false,
      "t": 255223.77000000008,
      "d": 819.0294958333252,
      "v": 95
    },
    {
      "midi": 61,
      "hit": false,
      "t": 255447.65050000008,
      "d": 220.1491583333409,
      "v": 92
    },
    {
      "midi": 69,
      "hit": false,
      "t": 255671.53100000008,
      "d": 255.59690416665399,
      "v": 87
    },
    {
      "midi": 61,
      "hit": false,
      "t": 255895.41150000007,
      "d": 210.82080416666577,
      "v": 92
    },
    {
      "midi": 59,
      "hit": false,
      "t": 256119.29200000007,
      "d": 546.6415541667084,
      "v": 93
    },
    {
      "midi": 40,
      "hit": false,
      "t": 256119.29200000007,
      "d": 813.4324833333667,
      "v": 95
    },
    {
      "midi": 52,
      "hit": false,
      "t": 256119.29200000007,
      "d": 813.4324833333667,
      "v": 95
    },
    {
      "midi": 64,
      "hit": false,
      "t": 256343.17250000007,
      "d": 201.49245000001974,
      "v": 92
    },
    {
      "midi": 68,
      "hit": false,
      "t": 256567.0530000001,
      "d": 242.53720833334955,
      "v": 90
    },
    {
      "midi": 64,
      "hit": false,
      "t": 256790.93350000013,
      "d": 207.08946249997825,
      "v": 92
    },
    {
      "midi": 59,
      "hit": false,
      "t": 257014.8140000001,
      "d": 404.8505708333396,
      "v": 91
    },
    {
      "midi": 40,
      "hit": false,
      "t": 257014.8140000001,
      "d": 819.0294958333252,
      "v": 95
    },
    {
      "midi": 47,
      "hit": false,
      "t": 257014.8140000001,
      "d": 819.0294958333252,
      "v": 95
    },
    {
      "midi": 64,
      "hit": false,
      "t": 257238.6945000001,
      "d": 197.76110833333223,
      "v": 92
    },
    {
      "midi": 68,
      "hit": false,
      "t": 257462.5750000001,
      "d": 192.16409583334462,
      "v": 87
    },
    {
      "midi": 64,
      "hit": false,
      "t": 257686.4555000001,
      "d": 152.9850083333149,
      "v": 92
    },
    {
      "midi": 57,
      "hit": false,
      "t": 257910.33600000007,
      "d": 682.8355250000022,
      "v": 92
    },
    {
      "midi": 42,
      "hit": false,
      "t": 257910.33600000007,
      "d": 804.1041291666625,
      "v": 92
    },
    {
      "midi": 49,
      "hit": false,
      "t": 257910.33600000007,
      "d": 804.1041291666625,
      "v": 94
    },
    {
      "midi": 61,
      "hit": false,
      "t": 258134.21650000007,
      "d": 223.8804999999993,
      "v": 87
    },
    {
      "midi": 69,
      "hit": false,
      "t": 258358.09700000007,
      "d": 235.07452500000363,
      "v": 91
    },
    {
      "midi": 61,
      "hit": false,
      "t": 258581.97750000007,
      "d": 210.82080416666577,
      "v": 87
    },
    {
      "midi": 57,
      "hit": false,
      "t": 258805.85800000007,
      "d": 494.40277083334513,
      "v": 94
    },
    {
      "midi": 42,
      "hit": false,
      "t": 258805.85800000007,
      "d": 888.0593166666513,
      "v": 92
    },
    {
      "midi": 49,
      "hit": false,
      "t": 258805.85800000007,
      "d": 888.0593166666513,
      "v": 94
    },
    {
      "midi": 61,
      "hit": false,
      "t": 259029.73850000006,
      "d": 192.16409583334462,
      "v": 91
    },
    {
      "midi": 69,
      "hit": false,
      "t": 259253.61900000006,
      "d": 227.6118416666577,
      "v": 91
    },
    {
      "midi": 61,
      "hit": false,
      "t": 259477.49950000006,
      "d": 201.49244999999064,
      "v": 91
    },
    {
      "midi": 57,
      "hit": false,
      "t": 259701.38000000006,
      "d": 531.7161874999874,
      "v": 92
    },
    {
      "midi": 38,
      "hit": false,
      "t": 259701.38000000006,
      "d": 781.7160791666538,
      "v": 92
    },
    {
      "midi": 50,
      "hit": false,
      "t": 259701.38000000006,
      "d": 781.7160791666538,
      "v": 94
    },
    {
      "midi": 62,
      "hit": false,
      "t": 259925.26050000006,
      "d": 197.76110833333223,
      "v": 89
    },
    {
      "midi": 69,
      "hit": false,
      "t": 260149.14100000006,
      "d": 255.59690416665399,
      "v": 91
    },
    {
      "midi": 62,
      "hit": false,
      "t": 260373.02150000006,
      "d": 190.2984249999863,
      "v": 88
    },
    {
      "midi": 57,
      "hit": false,
      "t": 260596.90200000006,
      "d": 597.0146666666551,
      "v": 94
    },
    {
      "midi": 38,
      "hit": false,
      "t": 260596.90200000006,
      "d": 779.8504083333246,
      "v": 92
    },
    {
      "midi": 50,
      "hit": false,
      "t": 260596.90200000006,
      "d": 837.6862041666463,
      "v": 94
    },
    {
      "midi": 62,
      "hit": false,
      "t": 260820.78250000006,
      "d": 175.37305833332357,
      "v": 90
    },
    {
      "midi": 69,
      "hit": false,
      "t": 261044.66300000006,
      "d": 240.67153749999125,
      "v": 93
    },
    {
      "midi": 62,
      "hit": false,
      "t": 261268.54350000006,
      "d": 184.7014124999696,
      "v": 89
    },
    {
      "midi": 57,
      "hit": false,
      "t": 261492.42400000003,
      "d": 570.895274999988,
      "v": 86
    },
    {
      "midi": 33,
      "hit": false,
      "t": 261492.42400000003,
      "d": 1705.2231416666473,
      "v": 86
    },
    {
      "midi": 45,
      "hit": false,
      "t": 261492.42400000003,
      "d": 1714.5514958332933,
      "v": 86
    },
    {
      "midi": 61,
      "hit": false,
      "t": 261716.30450000003,
      "d": 255.59690416665399,
      "v": 84
    },
    {
      "midi": 69,
      "hit": false,
      "t": 261940.18500000003,
      "d": 244.40287916667876,
      "v": 87
    },
    {
      "midi": 61,
      "hit": false,
      "t": 262164.0655,
      "d": 208.95513333333656,
      "v": 87
    },
    {
      "midi": 57,
      "hit": false,
      "t": 262387.94600000005,
      "d": 455.2236833333154,
      "v": 85
    },
    {
      "midi": 61,
      "hit": false,
      "t": 262611.8265000001,
      "d": 220.1491583333118,
      "v": 86
    },
    {
      "midi": 69,
      "hit": false,
      "t": 262835.70700000005,
      "d": 255.59690416662488,
      "v": 81
    },
    {
      "midi": 61,
      "hit": false,
      "t": 263059.5875,
      "d": 210.82080416660756,
      "v": 86
    },
    {
      "midi": 56,
      "hit": false,
      "t": 263283.46799999994,
      "d": 546.6415541666793,
      "v": 87
    },
    {
      "midi": 40,
      "hit": false,
      "t": 263283.46799999994,
      "d": 1714.5514958334388,
      "v": 89
    },
    {
      "midi": 47,
      "hit": false,
      "t": 263283.46799999994,
      "d": 1714.5514958334388,
      "v": 89
    },
    {
      "midi": 59,
      "hit": false,
      "t": 263507.3484999999,
      "d": 201.49245000001974,
      "v": 86
    },
    {
      "midi": 68,
      "hit": false,
      "t": 263731.22899999993,
      "d": 242.53720833337866,
      "v": 84
    },
    {
      "midi": 59,
      "hit": false,
      "t": 263955.10949999996,
      "d": 207.08946250000736,
      "v": 86
    },
    {
      "midi": 56,
      "hit": false,
      "t": 264178.99,
      "d": 404.8505708333687,
      "v": 85
    },
    {
      "midi": 59,
      "hit": false,
      "t": 264402.8705,
      "d": 197.76110833336134,
      "v": 86
    },
    {
      "midi": 68,
      "hit": false,
      "t": 264626.75100000005,
      "d": 192.1640958333155,
      "v": 81
    },
    {
      "midi": 59,
      "hit": false,
      "t": 264850.6315,
      "d": 152.985008333344,
      "v": 86
    },
    {
      "midi": 57,
      "hit": false,
      "t": 265074.51200000005,
      "d": 682.8355250000022,
      "v": 86
    },
    {
      "midi": 42,
      "hit": false,
      "t": 265074.51200000005,
      "d": 1783.5813166667358,
      "v": 86
    },
    {
      "midi": 49,
      "hit": false,
      "t": 265074.51200000005,
      "d": 1783.5813166667358,
      "v": 88
    },
    {
      "midi": 61,
      "hit": false,
      "t": 265298.3925,
      "d": 223.8805000000284,
      "v": 84
    },
    {
      "midi": 66,
      "hit": false,
      "t": 265522.27300000004,
      "d": 235.07452500000363,
      "v": 85
    },
    {
      "midi": 61,
      "hit": false,
      "t": 265746.1535000001,
      "d": 210.82080416666577,
      "v": 85
    },
    {
      "midi": 57,
      "hit": false,
      "t": 265970.03400000004,
      "d": 494.40277083334513,
      "v": 85
    },
    {
      "midi": 61,
      "hit": false,
      "t": 266193.9145000001,
      "d": 192.1640958333155,
      "v": 85
    },
    {
      "midi": 66,
      "hit": false,
      "t": 266417.79500000004,
      "d": 227.61184166668681,
      "v": 85
    },
    {
      "midi": 61,
      "hit": false,
      "t": 266641.67550000007,
      "d": 201.49245000001974,
      "v": 85
    },
    {
      "midi": 57,
      "hit": false,
      "t": 266865.5560000001,
      "d": 531.7161874999292,
      "v": 85
    },
    {
      "midi": 38,
      "hit": false,
      "t": 266865.5560000001,
      "d": 1675.3724083332927,
      "v": 85
    },
    {
      "midi": 45,
      "hit": false,
      "t": 266865.5560000001,
      "d": 1733.2082041666145,
      "v": 85
    },
    {
      "midi": 62,
      "hit": false,
      "t": 267089.43650000007,
      "d": 197.76110833330313,
      "v": 85
    },
    {
      "midi": 66,
      "hit": false,
      "t": 267313.31700000004,
      "d": 255.59690416662488,
      "v": 85
    },
    {
      "midi": 62,
      "hit": false,
      "t": 267537.1975,
      "d": 190.2984249999863,
      "v": 85
    },
    {
      "midi": 57,
      "hit": false,
      "t": 267761.078,
      "d": 597.0146666667424,
      "v": 85
    },
    {
      "midi": 62,
      "hit": false,
      "t": 267984.9585,
      "d": 175.37305833335267,
      "v": 85
    },
    {
      "midi": 66,
      "hit": false,
      "t": 268208.83900000004,
      "d": 240.67153750004945,
      "v": 85
    },
    {
      "midi": 62,
      "hit": false,
      "t": 268432.71950000006,
      "d": 184.7014124999987,
      "v": 83
    },
    {
      "midi": 52,
      "hit": false,
      "t": 268656.60000000003,
      "d": 570.8952750000171,
      "v": 83
    },
    {
      "midi": 33,
      "hit": false,
      "t": 268656.60000000003,
      "d": 1705.2231416666764,
      "v": 83
    },
    {
      "midi": 45,
      "hit": false,
      "t": 268656.60000000003,
      "d": 1714.5514958333224,
      "v": 83
    },
    {
      "midi": 57,
      "hit": false,
      "t": 268880.48050000006,
      "d": 255.5969041666831,
      "v": 83
    },
    {
      "midi": 61,
      "hit": false,
      "t": 269104.3610000001,
      "d": 244.40287916664965,
      "v": 83
    },
    {
      "midi": 57,
      "hit": false,
      "t": 269328.24150000006,
      "d": 208.95513333333656,
      "v": 83
    },
    {
      "midi": 52,
      "hit": false,
      "t": 269552.1220000001,
      "d": 455.2236833333154,
      "v": 80
    },
    {
      "midi": 57,
      "hit": false,
      "t": 269776.0025000001,
      "d": 220.1491583333118,
      "v": 80
    },
    {
      "midi": 61,
      "hit": false,
      "t": 269999.8830000001,
      "d": 255.59690416662488,
      "v": 80
    },
    {
      "midi": 57,
      "hit": false,
      "t": 270223.76350000006,
      "d": 210.82080416660756,
      "v": 79
    },
    {
      "midi": 52,
      "hit": false,
      "t": 270447.644,
      "d": 546.6415541666793,
      "v": 79
    },
    {
      "midi": 40,
      "hit": false,
      "t": 270447.644,
      "d": 1714.5514958334388,
      "v": 79
    },
    {
      "midi": 47,
      "hit": false,
      "t": 270447.644,
      "d": 1714.5514958334388,
      "v": 79
    },
    {
      "midi": 56,
      "hit": false,
      "t": 270671.52449999994,
      "d": 201.49245000001974,
      "v": 79
    },
    {
      "midi": 59,
      "hit": false,
      "t": 270895.40499999997,
      "d": 242.53720833337866,
      "v": 79
    },
    {
      "midi": 56,
      "hit": false,
      "t": 271119.2855,
      "d": 207.08946250000736,
      "v": 79
    },
    {
      "midi": 52,
      "hit": false,
      "t": 271343.166,
      "d": 404.8505708333687,
      "v": 79
    },
    {
      "midi": 56,
      "hit": false,
      "t": 271567.04650000005,
      "d": 197.76110833336134,
      "v": 79
    },
    {
      "midi": 59,
      "hit": false,
      "t": 271790.9270000001,
      "d": 192.1640958333155,
      "v": 79
    },
    {
      "midi": 56,
      "hit": false,
      "t": 272014.80750000005,
      "d": 152.985008333344,
      "v": 79
    },
    {
      "midi": 54,
      "hit": false,
      "t": 272238.6880000001,
      "d": 682.8355250000022,
      "v": 78
    },
    {
      "midi": 42,
      "hit": false,
      "t": 272238.6880000001,
      "d": 1783.5813166667358,
      "v": 78
    },
    {
      "midi": 49,
      "hit": false,
      "t": 272238.6880000001,
      "d": 1783.5813166667358,
      "v": 78
    },
    {
      "midi": 57,
      "hit": false,
      "t": 272462.56850000005,
      "d": 223.8805000000284,
      "v": 76
    },
    {
      "midi": 61,
      "hit": false,
      "t": 272686.4490000001,
      "d": 235.07452500000363,
      "v": 76
    },
    {
      "midi": 57,
      "hit": false,
      "t": 272910.3295000001,
      "d": 210.82080416666577,
      "v": 76
    },
    {
      "midi": 54,
      "hit": false,
      "t": 273134.2100000001,
      "d": 494.40277083334513,
      "v": 76
    },
    {
      "midi": 57,
      "hit": false,
      "t": 273358.0905000001,
      "d": 192.1640958333155,
      "v": 75
    },
    {
      "midi": 61,
      "hit": false,
      "t": 273581.9710000001,
      "d": 227.61184166668681,
      "v": 75
    },
    {
      "midi": 57,
      "hit": false,
      "t": 273805.8515000001,
      "d": 201.49245000001974,
      "v": 75
    },
    {
      "midi": 50,
      "hit": false,
      "t": 274029.73200000013,
      "d": 531.7161874999292,
      "v": 75
    },
    {
      "midi": 38,
      "hit": false,
      "t": 274029.73200000013,
      "d": 10641.786433333298,
      "v": 75
    },
    {
      "midi": 45,
      "hit": false,
      "t": 274029.73200000013,
      "d": 10641.786433333298,
      "v": 75
    },
    {
      "midi": 54,
      "hit": false,
      "t": 274253.6125000001,
      "d": 197.76110833330313,
      "v": 75
    },
    {
      "midi": 57,
      "hit": false,
      "t": 274477.4930000001,
      "d": 255.59690416662488,
      "v": 75
    },
    {
      "midi": 54,
      "hit": false,
      "t": 274701.37350000005,
      "d": 190.2984249999863,
      "v": 75
    },
    {
      "midi": 50,
      "hit": false,
      "t": 274925.254,
      "d": 597.0146666667424,
      "v": 75
    },
    {
      "midi": 54,
      "hit": false,
      "t": 275149.13450000004,
      "d": 175.37305833335267,
      "v": 74
    },
    {
      "midi": 57,
      "hit": false,
      "t": 275373.0150000001,
      "d": 240.67153750004945,
      "v": 74
    },
    {
      "midi": 54,
      "hit": false,
      "t": 275596.8955000001,
      "d": 184.7014124999987,
      "v": 74
    },
    {
      "midi": 50,
      "hit": false,
      "t": 275820.77600000007,
      "d": 531.7161875000456,
      "v": 74
    },
    {
      "midi": 54,
      "hit": false,
      "t": 276044.6565000001,
      "d": 197.76110833336134,
      "v": 74
    },
    {
      "midi": 57,
      "hit": false,
      "t": 276268.5370000001,
      "d": 255.59690416662488,
      "v": 74
    },
    {
      "midi": 54,
      "hit": false,
      "t": 276492.4175000001,
      "d": 190.2984249999863,
      "v": 73
    },
    {
      "midi": 50,
      "hit": false,
      "t": 276716.29800000007,
      "d": 597.0146666667424,
      "v": 73
    },
    {
      "midi": 54,
      "hit": false,
      "t": 276940.1785000001,
      "d": 175.37305833335267,
      "v": 73
    },
    {
      "midi": 57,
      "hit": false,
      "t": 277164.0590000001,
      "d": 240.67153750004945,
      "v": 72
    },
    {
      "midi": 54,
      "hit": false,
      "t": 277387.93950000015,
      "d": 184.7014124999987,
      "v": 72
    },
    {
      "midi": 50,
      "hit": false,
      "t": 277611.8200000001,
      "d": 531.7161874999292,
      "v": 72
    },
    {
      "midi": 56,
      "hit": false,
      "t": 277835.7005000001,
      "d": 197.76110833330313,
      "v": 72
    },
    {
      "midi": 59,
      "hit": false,
      "t": 278059.58100000006,
      "d": 255.59690416662488,
      "v": 72
    },
    {
      "midi": 56,
      "hit": false,
      "t": 278283.46150000003,
      "d": 190.2984249999863,
      "v": 72
    },
    {
      "midi": 50,
      "hit": false,
      "t": 278507.342,
      "d": 597.0146666667424,
      "v": 72
    },
    {
      "midi": 56,
      "hit": false,
      "t": 278731.22250000003,
      "d": 175.37305833335267,
      "v": 72
    },
    {
      "midi": 59,
      "hit": false,
      "t": 278955.10300000006,
      "d": 240.67153750004945,
      "v": 72
    },
    {
      "midi": 56,
      "hit": false,
      "t": 279178.9835000001,
      "d": 184.7014124999987,
      "v": 72
    },
    {
      "midi": 50,
      "hit": false,
      "t": 279402.86400000006,
      "d": 531.7161874999874,
      "v": 72
    },
    {
      "midi": 57,
      "hit": false,
      "t": 279626.74450000003,
      "d": 197.76110833336134,
      "v": 71
    },
    {
      "midi": 61,
      "hit": false,
      "t": 279850.62500000006,
      "d": 255.59690416662488,
      "v": 71
    },
    {
      "midi": 57,
      "hit": false,
      "t": 280074.5055,
      "d": 190.2984249999863,
      "v": 69
    },
    {
      "midi": 50,
      "hit": false,
      "t": 280298.386,
      "d": 597.0146666667424,
      "v": 69
    },
    {
      "midi": 57,
      "hit": false,
      "t": 280522.2665,
      "d": 175.37305833335267,
      "v": 68
    },
    {
      "midi": 61,
      "hit": false,
      "t": 280746.14700000006,
      "d": 240.67153750004945,
      "v": 68
    },
    {
      "midi": 57,
      "hit": false,
      "t": 280970.0275000001,
      "d": 184.7014124999987,
      "v": 67
    },
    {
      "midi": 54,
      "hit": false,
      "t": 281193.90800000005,
      "d": 531.7161874999292,
      "v": 68
    },
    {
      "midi": 57,
      "hit": false,
      "t": 281417.7885,
      "d": 197.76110833330313,
      "v": 68
    },
    {
      "midi": 62,
      "hit": false,
      "t": 281641.669,
      "d": 255.59690416662488,
      "v": 68
    },
    {
      "midi": 57,
      "hit": false,
      "t": 281865.54949999996,
      "d": 190.2984249999863,
      "v": 68
    },
    {
      "midi": 54,
      "hit": false,
      "t": 282089.42999999993,
      "d": 597.0146666667424,
      "v": 66
    },
    {
      "midi": 57,
      "hit": false,
      "t": 282313.31049999996,
      "d": 175.37305833335267,
      "v": 66
    },
    {
      "midi": 62,
      "hit": false,
      "t": 282537.191,
      "d": 240.67153750004945,
      "v": 66
    },
    {
      "midi": 57,
      "hit": false,
      "t": 282761.0715,
      "d": 184.7014124999987,
      "v": 65
    },
    {
      "midi": 54,
      "hit": false,
      "t": 282984.952,
      "d": 531.7161875000456,
      "v": 64
    },
    {
      "midi": 57,
      "hit": false,
      "t": 283208.8325,
      "d": 197.76110833336134,
      "v": 64
    },
    {
      "midi": 62,
      "hit": false,
      "t": 283432.71300000005,
      "d": 255.59690416662488,
      "v": 64
    },
    {
      "midi": 57,
      "hit": false,
      "t": 283656.5935,
      "d": 190.2984249999863,
      "v": 64
    },
    {
      "midi": 54,
      "hit": false,
      "t": 283880.474,
      "d": 597.0146666667424,
      "v": 64
    },
    {
      "midi": 57,
      "hit": false,
      "t": 284104.3545,
      "d": 175.37305833335267,
      "v": 64
    },
    {
      "midi": 62,
      "hit": false,
      "t": 284328.23500000004,
      "d": 240.67153750004945,
      "v": 64
    },
    {
      "midi": 57,
      "hit": false,
      "t": 284552.1155000001,
      "d": 184.7014124999987,
      "v": 64
    },
    {
      "midi": 33,
      "hit": false,
      "t": 284775.99600000004,
      "d": 5408.5797458333545,
      "v": 72
    },
    {
      "midi": 40,
      "hit": false,
      "t": 284775.99600000004,
      "d": 5408.5797458333545,
      "v": 72
    },
    {
      "midi": 45,
      "hit": false,
      "t": 284775.99600000004,
      "d": 5408.5797458333545,
      "v": 72
    },
    {
      "midi": 52,
      "hit": false,
      "t": 284775.99600000004,
      "d": 5408.5797458333545,
      "v": 72
    }
  ]
}