{
  "jsonPath": "Rock/Album Rock/Eddie Money/gimme-some-water.json",
  "path": "Rock\\Album Rock\\Eddie Money\\Gimme Some Water.mid",
  "name": "Gimme Some Water",
  "difficulty": "Advanced",
  "bpm": 89.9999550000225,
  "notes": [
    {
      "midi": 57,
      "hit": false,
      "t": 5333.336,
      "d": 433.3335499999994,
      "v": 68
    },
    {
      "midi": 60,
      "hit": false,
      "t": 5333.336,
      "d": 433.3335499999994,
      "v": 68
    },
    {
      "midi": 64,
      "hit": false,
      "t": 5333.336,
      "d": 433.3335499999994,
      "v": 68
    },
    {
      "midi": 57,
      "hit": false,
      "t": 5333.336,
      "d": 133.33340000000044,
      "v": 80
    },
    {
      "midi": 62,
      "hit": false,
      "t": 5333.336,
      "d": 133.33340000000044,
      "v": 80
    },
    {
      "midi": 67,
      "hit": false,
      "t": 5333.336,
      "d": 133.33340000000044,
      "v": 80
    },
    {
      "midi": 64,
      "hit": false,
      "t": 5500.002750000001,
      "d": 133.33340000000044,
      "v": 80
    },
    {
      "midi": 69,
      "hit": false,
      "t": 5500.002750000001,
      "d": 133.33340000000044,
      "v": 80
    },
    {
      "midi": 45,
      "hit": false,
      "t": 5666.6695,
      "d": 650.000325,
      "v": 78
    },
    {
      "midi": 57,
      "hit": false,
      "t": 6000.003,
      "d": 372.222408333334,
      "v": 80
    },
    {
      "midi": 60,
      "hit": false,
      "t": 6000.003,
      "d": 372.222408333334,
      "v": 80
    },
    {
      "midi": 64,
      "hit": false,
      "t": 6000.003,
      "d": 372.222408333334,
      "v": 80
    },
    {
      "midi": 64,
      "hit": false,
      "t": 6000.003000000001,
      "d": 400.0002000000004,
      "v": 80
    },
    {
      "midi": 69,
      "hit": false,
      "t": 6000.003000000001,
      "d": 400.0002000000004,
      "v": 80
    },
    {
      "midi": 72,
      "hit": false,
      "t": 6000.003000000001,
      "d": 400.0002000000004,
      "v": 80
    },
    {
      "midi": 64,
      "hit": false,
      "t": 6500.003250000001,
      "d": 133.33340000000044,
      "v": 80
    },
    {
      "midi": 69,
      "hit": false,
      "t": 6500.003250000001,
      "d": 133.33340000000044,
      "v": 80
    },
    {
      "midi": 72,
      "hit": false,
      "t": 6500.003250000001,
      "d": 133.33340000000044,
      "v": 80
    },
    {
      "midi": 55,
      "hit": false,
      "t": 6666.67,
      "d": 1333.3339999999998,
      "v": 80
    },
    {
      "midi": 59,
      "hit": false,
      "t": 6666.67,
      "d": 1333.3339999999998,
      "v": 80
    },
    {
      "midi": 62,
      "hit": false,
      "t": 6666.67,
      "d": 1333.3339999999998,
      "v": 80
    },
    {
      "midi": 64,
      "hit": false,
      "t": 6666.670000000001,
      "d": 133.33340000000044,
      "v": 80
    },
    {
      "midi": 69,
      "hit": false,
      "t": 6666.670000000001,
      "d": 133.33340000000044,
      "v": 80
    },
    {
      "midi": 72,
      "hit": false,
      "t": 6666.670000000001,
      "d": 133.33340000000044,
      "v": 80
    },
    {
      "midi": 67,
      "hit": false,
      "t": 6833.336750000001,
      "d": 133.33340000000044,
      "v": 80
    },
    {
      "midi": 55,
      "hit": false,
      "t": 7000.003500000002,
      "d": 266.66679999999997,
      "v": 80
    },
    {
      "midi": 62,
      "hit": false,
      "t": 7333.337000000001,
      "d": 400.0002000000004,
      "v": 80
    },
    {
      "midi": 67,
      "hit": false,
      "t": 7333.337000000001,
      "d": 400.0002000000004,
      "v": 80
    },
    {
      "midi": 71,
      "hit": false,
      "t": 7333.337000000001,
      "d": 400.0002000000004,
      "v": 80
    },
    {
      "midi": 62,
      "hit": false,
      "t": 7833.337250000001,
      "d": 133.33340000000044,
      "v": 80
    },
    {
      "midi": 67,
      "hit": false,
      "t": 7833.337250000001,
      "d": 133.33340000000044,
      "v": 80
    },
    {
      "midi": 71,
      "hit": false,
      "t": 7833.337250000001,
      "d": 133.33340000000044,
      "v": 80
    },
    {
      "midi": 54,
      "hit": false,
      "t": 8000.004,
      "d": 1333.3339999999998,
      "v": 80
    },
    {
      "midi": 57,
      "hit": false,
      "t": 8000.004,
      "d": 1333.3339999999998,
      "v": 80
    },
    {
      "midi": 62,
      "hit": false,
      "t": 8000.004,
      "d": 1333.3339999999998,
      "v": 80
    },
    {
      "midi": 62,
      "hit": false,
      "t": 8000.004000000002,
      "d": 133.33340000000044,
      "v": 80
    },
    {
      "midi": 67,
      "hit": false,
      "t": 8000.004000000002,
      "d": 133.33340000000044,
      "v": 80
    },
    {
      "midi": 71,
      "hit": false,
      "t": 8000.004000000002,
      "d": 133.33340000000044,
      "v": 80
    },
    {
      "midi": 69,
      "hit": false,
      "t": 8166.670750000002,
      "d": 133.33340000000044,
      "v": 80
    },
    {
      "midi": 74,
      "hit": false,
      "t": 8166.670750000002,
      "d": 133.33340000000044,
      "v": 80
    },
    {
      "midi": 69,
      "hit": false,
      "t": 8333.337500000003,
      "d": 133.33339999999953,
      "v": 80
    },
    {
      "midi": 74,
      "hit": false,
      "t": 8333.337500000003,
      "d": 133.33339999999953,
      "v": 80
    },
    {
      "midi": 69,
      "hit": false,
      "t": 8666.671000000002,
      "d": 133.33339999999953,
      "v": 80
    },
    {
      "midi": 74,
      "hit": false,
      "t": 8666.671000000002,
      "d": 133.33339999999953,
      "v": 80
    },
    {
      "midi": 76,
      "hit": false,
      "t": 8666.671000000002,
      "d": 133.33339999999953,
      "v": 80
    },
    {
      "midi": 78,
      "hit": false,
      "t": 8833.337750000002,
      "d": 266.6668000000009,
      "v": 80
    },
    {
      "midi": 76,
      "hit": false,
      "t": 9166.671250000003,
      "d": 133.33339999999953,
      "v": 80
    },
    {
      "midi": 57,
      "hit": false,
      "t": 9333.338,
      "d": 1333.3340000000007,
      "v": 80
    },
    {
      "midi": 60,
      "hit": false,
      "t": 9333.338,
      "d": 1333.3340000000007,
      "v": 80
    },
    {
      "midi": 64,
      "hit": false,
      "t": 9333.338,
      "d": 1333.3340000000007,
      "v": 80
    },
    {
      "midi": 72,
      "hit": false,
      "t": 9333.338000000003,
      "d": 133.33339999999953,
      "v": 80
    },
    {
      "midi": 76,
      "hit": false,
      "t": 9333.338000000003,
      "d": 133.33339999999953,
      "v": 80
    },
    {
      "midi": 72,
      "hit": false,
      "t": 9500.004750000004,
      "d": 133.33339999999953,
      "v": 80
    },
    {
      "midi": 76,
      "hit": false,
      "t": 9500.004750000004,
      "d": 133.33339999999953,
      "v": 80
    },
    {
      "midi": 57,
      "hit": false,
      "t": 9666.671500000004,
      "d": 266.6668000000009,
      "v": 80
    },
    {
      "midi": 64,
      "hit": false,
      "t": 10000.005000000005,
      "d": 266.6668000000009,
      "v": 80
    },
    {
      "midi": 69,
      "hit": false,
      "t": 10000.005000000005,
      "d": 266.6668000000009,
      "v": 80
    },
    {
      "midi": 72,
      "hit": false,
      "t": 10000.005000000005,
      "d": 266.6668000000009,
      "v": 80
    },
    {
      "midi": 64,
      "hit": false,
      "t": 10333.338500000005,
      "d": 133.33339999999953,
      "v": 80
    },
    {
      "midi": 69,
      "hit": false,
      "t": 10333.338500000005,
      "d": 133.33339999999953,
      "v": 80
    },
    {
      "midi": 72,
      "hit": false,
      "t": 10333.338500000005,
      "d": 133.33339999999953,
      "v": 80
    },
    {
      "midi": 64,
      "hit": false,
      "t": 10500.005250000006,
      "d": 133.33339999999953,
      "v": 80
    },
    {
      "midi": 69,
      "hit": false,
      "t": 10500.005250000006,
      "d": 133.33339999999953,
      "v": 80
    },
    {
      "midi": 72,
      "hit": false,
      "t": 10500.005250000006,
      "d": 133.33339999999953,
      "v": 80
    },
    {
      "midi": 57,
      "hit": false,
      "t": 10666.672000000006,
      "d": 133.33339999999953,
      "v": 80
    },
    {
      "midi": 62,
      "hit": false,
      "t": 10666.672000000006,
      "d": 133.33339999999953,
      "v": 80
    },
    {
      "midi": 67,
      "hit": false,
      "t": 10666.672000000006,
      "d": 133.33339999999953,
      "v": 80
    },
    {
      "midi": 64,
      "hit": false,
      "t": 10677.783116666667,
      "d": 1116.667225000001,
      "v": 72
    },
    {
      "midi": 67,
      "hit": false,
      "t": 10677.783116666667,
      "d": 1116.667225000001,
      "v": 72
    },
    {
      "midi": 69,
      "hit": false,
      "t": 10677.783116666667,
      "d": 1116.667225000001,
      "v": 72
    },
    {
      "midi": 64,
      "hit": false,
      "t": 10833.338750000006,
      "d": 133.33339999999953,
      "v": 80
    },
    {
      "midi": 69,
      "hit": false,
      "t": 10833.338750000006,
      "d": 133.33339999999953,
      "v": 80
    },
    {
      "midi": 69,
      "hit": false,
      "t": 11333.339000000005,
      "d": 266.6668000000009,
      "v": 80
    },
    {
      "midi": 72,
      "hit": false,
      "t": 11333.339000000005,
      "d": 266.6668000000009,
      "v": 80
    },
    {
      "midi": 79,
      "hit": false,
      "t": 11333.339000000005,
      "d": 266.6668000000009,
      "v": 80
    },
    {
      "midi": 72,
      "hit": false,
      "t": 11666.672500000006,
      "d": 133.33339999999953,
      "v": 80
    },
    {
      "midi": 60,
      "hit": false,
      "t": 11683.339175000001,
      "d": 111.11116666666749,
      "v": 66
    },
    {
      "midi": 69,
      "hit": false,
      "t": 11833.339250000006,
      "d": 133.33339999999953,
      "v": 80
    },
    {
      "midi": 64,
      "hit": false,
      "t": 11855.561483333335,
      "d": 144.44451666666646,
      "v": 70
    },
    {
      "midi": 67,
      "hit": false,
      "t": 12000.006000000007,
      "d": 133.33339999999953,
      "v": 80
    },
    {
      "midi": 67,
      "hit": false,
      "t": 12166.672750000007,
      "d": 133.33339999999953,
      "v": 80
    },
    {
      "midi": 55,
      "hit": false,
      "t": 12333.339500000002,
      "d": 672.2225583333347,
      "v": 68
    },
    {
      "midi": 55,
      "hit": false,
      "t": 12333.339500000007,
      "d": 266.6668000000009,
      "v": 80
    },
    {
      "midi": 59,
      "hit": false,
      "t": 12666.673000000003,
      "d": 450.0002250000016,
      "v": 85
    },
    {
      "midi": 62,
      "hit": false,
      "t": 12666.673000000008,
      "d": 400.0002000000004,
      "v": 80
    },
    {
      "midi": 67,
      "hit": false,
      "t": 12666.673000000008,
      "d": 400.0002000000004,
      "v": 80
    },
    {
      "midi": 71,
      "hit": false,
      "t": 12666.673000000008,
      "d": 400.0002000000004,
      "v": 80
    },
    {
      "midi": 62,
      "hit": false,
      "t": 13000.006500000003,
      "d": 138.8889583333348,
      "v": 87
    },
    {
      "midi": 62,
      "hit": false,
      "t": 13166.673250000009,
      "d": 133.33339999999953,
      "v": 80
    },
    {
      "midi": 67,
      "hit": false,
      "t": 13166.673250000009,
      "d": 133.33339999999953,
      "v": 80
    },
    {
      "midi": 71,
      "hit": false,
      "t": 13166.673250000009,
      "d": 133.33339999999953,
      "v": 80
    },
    {
      "midi": 57,
      "hit": false,
      "t": 13333.340000000004,
      "d": 1138.8894583333367,
      "v": 76
    },
    {
      "midi": 62,
      "hit": false,
      "t": 13333.34000000001,
      "d": 133.33339999999953,
      "v": 80
    },
    {
      "midi": 67,
      "hit": false,
      "t": 13333.34000000001,
      "d": 133.33339999999953,
      "v": 80
    },
    {
      "midi": 71,
      "hit": false,
      "t": 13333.34000000001,
      "d": 133.33339999999953,
      "v": 80
    },
    {
      "midi": 69,
      "hit": false,
      "t": 13500.00675000001,
      "d": 133.33339999999953,
      "v": 80
    },
    {
      "midi": 74,
      "hit": false,
      "t": 13500.00675000001,
      "d": 133.33339999999953,
      "v": 80
    },
    {
      "midi": 62,
      "hit": false,
      "t": 13666.673500000004,
      "d": 672.2225583333347,
      "v": 68
    },
    {
      "midi": 69,
      "hit": false,
      "t": 13666.67350000001,
      "d": 266.6668000000009,
      "v": 80
    },
    {
      "midi": 66,
      "hit": false,
      "t": 14000.007000000005,
      "d": 450.0002250000016,
      "v": 85
    },
    {
      "midi": 69,
      "hit": false,
      "t": 14000.00700000001,
      "d": 133.33339999999953,
      "v": 80
    },
    {
      "midi": 74,
      "hit": false,
      "t": 14000.00700000001,
      "d": 133.33339999999953,
      "v": 80
    },
    {
      "midi": 76,
      "hit": false,
      "t": 14000.00700000001,
      "d": 133.33339999999953,
      "v": 80
    },
    {
      "midi": 78,
      "hit": false,
      "t": 14166.67375000001,
      "d": 266.6668000000009,
      "v": 80
    },
    {
      "midi": 69,
      "hit": false,
      "t": 14333.340500000006,
      "d": 188.88898333333418,
      "v": 87
    },
    {
      "midi": 76,
      "hit": false,
      "t": 14500.007250000011,
      "d": 133.33339999999953,
      "v": 80
    },
    {
      "midi": 69,
      "hit": false,
      "t": 14666.674000000012,
      "d": 133.33339999999953,
      "v": 80
    },
    {
      "midi": 72,
      "hit": false,
      "t": 14666.674000000012,
      "d": 133.33339999999953,
      "v": 80
    },
    {
      "midi": 76,
      "hit": false,
      "t": 14666.674000000012,
      "d": 133.33339999999953,
      "v": 80
    },
    {
      "midi": 69,
      "hit": false,
      "t": 14833.340750000012,
      "d": 133.33339999999953,
      "v": 80
    },
    {
      "midi": 72,
      "hit": false,
      "t": 14833.340750000012,
      "d": 133.33339999999953,
      "v": 80
    },
    {
      "midi": 76,
      "hit": false,
      "t": 14833.340750000012,
      "d": 133.33339999999953,
      "v": 80
    },
    {
      "midi": 57,
      "hit": false,
      "t": 15000.007500000007,
      "d": 672.2225583333347,
      "v": 68
    },
    {
      "midi": 69,
      "hit": false,
      "t": 15000.007500000012,
      "d": 266.6668000000009,
      "v": 80
    },
    {
      "midi": 60,
      "hit": false,
      "t": 15333.341000000008,
      "d": 450.0002250000016,
      "v": 85
    },
    {
      "midi": 64,
      "hit": false,
      "t": 15333.341000000013,
      "d": 266.6668000000009,
      "v": 80
    },
    {
      "midi": 69,
      "hit": false,
      "t": 15333.341000000013,
      "d": 266.6668000000009,
      "v": 80
    },
    {
      "midi": 72,
      "hit": false,
      "t": 15333.341000000013,
      "d": 266.6668000000009,
      "v": 80
    },
    {
      "midi": 64,
      "hit": false,
      "t": 15666.674500000008,
      "d": 138.8889583333348,
      "v": 87
    },
    {
      "midi": 62,
      "hit": false,
      "t": 15666.674500000014,
      "d": 266.6668000000009,
      "v": 80
    },
    {
      "midi": 67,
      "hit": false,
      "t": 15666.674500000014,
      "d": 266.6668000000009,
      "v": 80
    },
    {
      "midi": 71,
      "hit": false,
      "t": 15666.674500000014,
      "d": 266.6668000000009,
      "v": 80
    },
    {
      "midi": 57,
      "hit": false,
      "t": 16000.008000000014,
      "d": 133.33339999999953,
      "v": 80
    },
    {
      "midi": 62,
      "hit": false,
      "t": 16000.008000000014,
      "d": 133.33339999999953,
      "v": 80
    },
    {
      "midi": 67,
      "hit": false,
      "t": 16000.008000000014,
      "d": 133.33339999999953,
      "v": 80
    },
    {
      "midi": 57,
      "hit": false,
      "t": 16011.119116666676,
      "d": 1116.6672249999974,
      "v": 72
    },
    {
      "midi": 64,
      "hit": false,
      "t": 16011.119116666676,
      "d": 1116.6672249999974,
      "v": 72
    },
    {
      "midi": 64,
      "hit": false,
      "t": 16166.674750000015,
      "d": 400.0002000000004,
      "v": 80
    },
    {
      "midi": 69,
      "hit": false,
      "t": 16166.674750000015,
      "d": 400.0002000000004,
      "v": 80
    },
    {
      "midi": 64,
      "hit": false,
      "t": 16666.675000000014,
      "d": 400.0001999999986,
      "v": 80
    },
    {
      "midi": 69,
      "hit": false,
      "t": 16666.675000000014,
      "d": 400.0001999999986,
      "v": 80
    },
    {
      "midi": 72,
      "hit": false,
      "t": 16666.675000000014,
      "d": 400.0001999999986,
      "v": 80
    },
    {
      "midi": 60,
      "hit": false,
      "t": 17016.675175000008,
      "d": 111.11116666666567,
      "v": 66
    },
    {
      "midi": 64,
      "hit": false,
      "t": 17166.67525000001,
      "d": 133.33339999999953,
      "v": 80
    },
    {
      "midi": 69,
      "hit": false,
      "t": 17166.67525000001,
      "d": 133.33339999999953,
      "v": 80
    },
    {
      "midi": 72,
      "hit": false,
      "t": 17166.67525000001,
      "d": 133.33339999999953,
      "v": 80
    },
    {
      "midi": 64,
      "hit": false,
      "t": 17188.89748333334,
      "d": 144.44451666666646,
      "v": 70
    },
    {
      "midi": 55,
      "hit": false,
      "t": 17333.342000000008,
      "d": 1333.333999999999,
      "v": 80
    },
    {
      "midi": 59,
      "hit": false,
      "t": 17333.342000000008,
      "d": 1333.333999999999,
      "v": 80
    },
    {
      "midi": 62,
      "hit": false,
      "t": 17333.342000000008,
      "d": 1333.333999999999,
      "v": 80
    },
    {
      "midi": 55,
      "hit": false,
      "t": 17333.34200000001,
      "d": 266.66679999999906,
      "v": 80
    },
    {
      "midi": 55,
      "hit": false,
      "t": 17666.675500000012,
      "d": 266.66679999999906,
      "v": 80
    },
    {
      "midi": 62,
      "hit": false,
      "t": 18000.009000000013,
      "d": 400.0001999999986,
      "v": 80
    },
    {
      "midi": 67,
      "hit": false,
      "t": 18000.009000000013,
      "d": 400.0001999999986,
      "v": 80
    },
    {
      "midi": 71,
      "hit": false,
      "t": 18000.009000000013,
      "d": 400.0001999999986,
      "v": 80
    },
    {
      "midi": 62,
      "hit": false,
      "t": 18500.00925000001,
      "d": 133.33339999999953,
      "v": 80
    },
    {
      "midi": 67,
      "hit": false,
      "t": 18500.00925000001,
      "d": 133.33339999999953,
      "v": 80
    },
    {
      "midi": 71,
      "hit": false,
      "t": 18500.00925000001,
      "d": 133.33339999999953,
      "v": 80
    },
    {
      "midi": 57,
      "hit": false,
      "t": 18666.676000000007,
      "d": 1333.333999999999,
      "v": 80
    },
    {
      "midi": 62,
      "hit": false,
      "t": 18666.676000000007,
      "d": 1333.333999999999,
      "v": 80
    },
    {
      "midi": 66,
      "hit": false,
      "t": 18666.676000000007,
      "d": 1333.333999999999,
      "v": 80
    },
    {
      "midi": 62,
      "hit": false,
      "t": 18666.67600000001,
      "d": 266.66679999999906,
      "v": 80
    },
    {
      "midi": 62,
      "hit": false,
      "t": 19000.00950000001,
      "d": 266.66679999999906,
      "v": 80
    },
    {
      "midi": 69,
      "hit": false,
      "t": 19000.00950000001,
      "d": 266.66679999999906,
      "v": 80
    },
    {
      "midi": 62,
      "hit": false,
      "t": 19333.34300000001,
      "d": 133.33339999999953,
      "v": 80
    },
    {
      "midi": 69,
      "hit": false,
      "t": 19333.34300000001,
      "d": 133.33339999999953,
      "v": 80
    },
    {
      "midi": 74,
      "hit": false,
      "t": 19333.34300000001,
      "d": 133.33339999999953,
      "v": 80
    },
    {
      "midi": 76,
      "hit": false,
      "t": 19333.34300000001,
      "d": 133.33339999999953,
      "v": 80
    },
    {
      "midi": 78,
      "hit": false,
      "t": 19500.009750000012,
      "d": 400.0001999999986,
      "v": 80
    },
    {
      "midi": 57,
      "hit": false,
      "t": 20000.01000000001,
      "d": 133.33339999999953,
      "v": 80
    },
    {
      "midi": 64,
      "hit": false,
      "t": 20000.01000000001,
      "d": 133.33339999999953,
      "v": 80
    },
    {
      "midi": 69,
      "hit": false,
      "t": 20000.01000000001,
      "d": 133.33339999999953,
      "v": 80
    },
    {
      "midi": 57,
      "hit": false,
      "t": 20011.121116666673,
      "d": 1116.6672249999974,
      "v": 72
    },
    {
      "midi": 64,
      "hit": false,
      "t": 20011.121116666673,
      "d": 1116.6672249999974,
      "v": 72
    },
    {
      "midi": 76,
      "hit": false,
      "t": 20166.67675000001,
      "d": 133.33339999999953,
      "v": 80
    },
    {
      "midi": 57,
      "hit": false,
      "t": 20333.34350000001,
      "d": 266.66679999999906,
      "v": 80
    },
    {
      "midi": 64,
      "hit": false,
      "t": 20333.34350000001,
      "d": 266.66679999999906,
      "v": 80
    },
    {
      "midi": 69,
      "hit": false,
      "t": 20333.34350000001,
      "d": 266.66679999999906,
      "v": 80
    },
    {
      "midi": 57,
      "hit": false,
      "t": 20666.67700000001,
      "d": 266.66679999999906,
      "v": 80
    },
    {
      "midi": 64,
      "hit": false,
      "t": 20666.67700000001,
      "d": 266.66679999999906,
      "v": 80
    },
    {
      "midi": 69,
      "hit": false,
      "t": 20666.67700000001,
      "d": 266.66679999999906,
      "v": 80
    },
    {
      "midi": 72,
      "hit": false,
      "t": 20666.67700000001,
      "d": 266.66679999999906,
      "v": 80
    },
    {
      "midi": 64,
      "hit": false,
      "t": 21000.01050000001,
      "d": 133.33339999999953,
      "v": 80
    },
    {
      "midi": 60,
      "hit": false,
      "t": 21016.677175000004,
      "d": 111.11116666666567,
      "v": 66
    },
    {
      "midi": 64,
      "hit": false,
      "t": 21166.67725000001,
      "d": 133.33339999999953,
      "v": 80
    },
    {
      "midi": 64,
      "hit": false,
      "t": 21188.899483333338,
      "d": 144.44451666666646,
      "v": 70
    },
    {
      "midi": 57,
      "hit": false,
      "t": 21333.344000000005,
      "d": 433.3335499999994,
      "v": 68
    },
    {
      "midi": 60,
      "hit": false,
      "t": 21333.344000000005,
      "d": 433.3335499999994,
      "v": 68
    },
    {
      "midi": 64,
      "hit": false,
      "t": 21333.344000000005,
      "d": 433.3335499999994,
      "v": 68
    },
    {
      "midi": 57,
      "hit": false,
      "t": 21333.344000000012,
      "d": 133.33339999999953,
      "v": 80
    },
    {
      "midi": 62,
      "hit": false,
      "t": 21333.344000000012,
      "d": 133.33339999999953,
      "v": 80
    },
    {
      "midi": 67,
      "hit": false,
      "t": 21333.344000000012,
      "d": 133.33339999999953,
      "v": 80
    },
    {
      "midi": 71,
      "hit": false,
      "t": 21333.344000000012,
      "d": 133.33339999999953,
      "v": 80
    },
    {
      "midi": 76,
      "hit": false,
      "t": 21333.344000000012,
      "d": 133.33339999999953,
      "v": 80
    },
    {
      "midi": 64,
      "hit": false,
      "t": 21500.010750000012,
      "d": 133.33339999999953,
      "v": 80
    },
    {
      "midi": 69,
      "hit": false,
      "t": 21500.010750000012,
      "d": 133.33339999999953,
      "v": 80
    },
    {
      "midi": 72,
      "hit": false,
      "t": 21500.010750000012,
      "d": 133.33339999999953,
      "v": 80
    },
    {
      "midi": 76,
      "hit": false,
      "t": 21500.010750000012,
      "d": 133.33339999999953,
      "v": 80
    },
    {
      "midi": 45,
      "hit": false,
      "t": 21666.677500000005,
      "d": 650.0003249999972,
      "v": 78
    },
    {
      "midi": 57,
      "hit": false,
      "t": 22000.011000000002,
      "d": 372.2224083333349,
      "v": 80
    },
    {
      "midi": 60,
      "hit": false,
      "t": 22000.011000000002,
      "d": 372.2224083333349,
      "v": 80
    },
    {
      "midi": 64,
      "hit": false,
      "t": 22000.011000000002,
      "d": 372.2224083333349,
      "v": 80
    },
    {
      "midi": 57,
      "hit": false,
      "t": 22000.011000000013,
      "d": 266.66679999999906,
      "v": 80
    },
    {
      "midi": 64,
      "hit": false,
      "t": 22000.011000000013,
      "d": 266.66679999999906,
      "v": 80
    },
    {
      "midi": 69,
      "hit": false,
      "t": 22000.011000000013,
      "d": 266.66679999999906,
      "v": 80
    },
    {
      "midi": 72,
      "hit": false,
      "t": 22000.011000000013,
      "d": 266.66679999999906,
      "v": 80
    },
    {
      "midi": 76,
      "hit": false,
      "t": 22000.011000000013,
      "d": 266.66679999999906,
      "v": 80
    },
    {
      "midi": 57,
      "hit": false,
      "t": 22333.344500000014,
      "d": 133.33339999999953,
      "v": 80
    },
    {
      "midi": 64,
      "hit": false,
      "t": 22333.344500000014,
      "d": 133.33339999999953,
      "v": 80
    },
    {
      "midi": 69,
      "hit": false,
      "t": 22333.344500000014,
      "d": 133.33339999999953,
      "v": 80
    },
    {
      "midi": 72,
      "hit": false,
      "t": 22333.344500000014,
      "d": 133.33339999999953,
      "v": 80
    },
    {
      "midi": 57,
      "hit": false,
      "t": 22500.011250000014,
      "d": 133.33339999999953,
      "v": 80
    },
    {
      "midi": 64,
      "hit": false,
      "t": 22500.011250000014,
      "d": 133.33339999999953,
      "v": 80
    },
    {
      "midi": 69,
      "hit": false,
      "t": 22500.011250000014,
      "d": 133.33339999999953,
      "v": 80
    },
    {
      "midi": 72,
      "hit": false,
      "t": 22500.011250000014,
      "d": 133.33339999999953,
      "v": 80
    },
    {
      "midi": 55,
      "hit": false,
      "t": 22666.678000000004,
      "d": 433.3335499999994,
      "v": 68
    },
    {
      "midi": 59,
      "hit": false,
      "t": 22666.678000000004,
      "d": 433.3335499999994,
      "v": 68
    },
    {
      "midi": 62,
      "hit": false,
      "t": 22666.678000000004,
      "d": 433.3335499999994,
      "v": 68
    },
    {
      "midi": 55,
      "hit": false,
      "t": 22666.678000000014,
      "d": 133.33339999999953,
      "v": 80
    },
    {
      "midi": 62,
      "hit": false,
      "t": 22666.678000000014,
      "d": 133.33339999999953,
      "v": 80
    },
    {
      "midi": 67,
      "hit": false,
      "t": 22666.678000000014,
      "d": 133.33339999999953,
      "v": 80
    },
    {
      "midi": 62,
      "hit": false,
      "t": 22833.344750000015,
      "d": 133.33339999999953,
      "v": 80
    },
    {
      "midi": 67,
      "hit": false,
      "t": 22833.344750000015,
      "d": 133.33339999999953,
      "v": 80
    },
    {
      "midi": 43,
      "hit": false,
      "t": 23000.011500000004,
      "d": 650.0003249999972,
      "v": 78
    },
    {
      "midi": 55,
      "hit": false,
      "t": 23000.011500000015,
      "d": 266.66679999999906,
      "v": 80
    },
    {
      "midi": 62,
      "hit": false,
      "t": 23000.011500000015,
      "d": 266.66679999999906,
      "v": 80
    },
    {
      "midi": 67,
      "hit": false,
      "t": 23000.011500000015,
      "d": 266.66679999999906,
      "v": 80
    },
    {
      "midi": 55,
      "hit": false,
      "t": 23333.345,
      "d": 372.2224083333349,
      "v": 80
    },
    {
      "midi": 59,
      "hit": false,
      "t": 23333.345,
      "d": 372.2224083333349,
      "v": 80
    },
    {
      "midi": 62,
      "hit": false,
      "t": 23333.345,
      "d": 372.2224083333349,
      "v": 80
    },
    {
      "midi": 62,
      "hit": false,
      "t": 23333.345000000016,
      "d": 533.3336000000018,
      "v": 80
    },
    {
      "midi": 67,
      "hit": false,
      "t": 23333.345000000016,
      "d": 533.3336000000018,
      "v": 80
    },
    {
      "midi": 71,
      "hit": false,
      "t": 23333.345000000016,
      "d": 533.3336000000018,
      "v": 80
    },
    {
      "midi": 57,
      "hit": false,
      "t": 24000.012000000002,
      "d": 1138.889458333335,
      "v": 76
    },
    {
      "midi": 62,
      "hit": false,
      "t": 24000.012000000017,
      "d": 133.33339999999953,
      "v": 80
    },
    {
      "midi": 69,
      "hit": false,
      "t": 24000.012000000017,
      "d": 133.33339999999953,
      "v": 80
    },
    {
      "midi": 62,
      "hit": false,
      "t": 24166.678750000017,
      "d": 133.33339999999953,
      "v": 80
    },
    {
      "midi": 69,
      "hit": false,
      "t": 24166.678750000017,
      "d": 133.33339999999953,
      "v": 80
    },
    {
      "midi": 62,
      "hit": false,
      "t": 24333.345500000003,
      "d": 672.2225583333347,
      "v": 68
    },
    {
      "midi": 62,
      "hit": false,
      "t": 24333.345500000018,
      "d": 266.66679999999906,
      "v": 80
    },
    {
      "midi": 69,
      "hit": false,
      "t": 24333.345500000018,
      "d": 266.66679999999906,
      "v": 80
    },
    {
      "midi": 66,
      "hit": false,
      "t": 24666.679000000004,
      "d": 450.0002249999998,
      "v": 85
    },
    {
      "midi": 62,
      "hit": false,
      "t": 24666.67900000002,
      "d": 133.33339999999953,
      "v": 80
    },
    {
      "midi": 69,
      "hit": false,
      "t": 24666.67900000002,
      "d": 133.33339999999953,
      "v": 80
    },
    {
      "midi": 74,
      "hit": false,
      "t": 24666.67900000002,
      "d": 133.33339999999953,
      "v": 80
    },
    {
      "midi": 76,
      "hit": false,
      "t": 24666.67900000002,
      "d": 133.33339999999953,
      "v": 80
    },
    {
      "midi": 78,
      "hit": false,
      "t": 24833.34575000002,
      "d": 400.0001999999986,
      "v": 80
    },
    {
      "midi": 69,
      "hit": false,
      "t": 25000.012500000004,
      "d": 188.88898333333418,
      "v": 87
    },
    {
      "midi": 57,
      "hit": false,
      "t": 25333.346000000016,
      "d": 133.33339999999953,
      "v": 80
    },
    {
      "midi": 64,
      "hit": false,
      "t": 25333.346000000016,
      "d": 133.33339999999953,
      "v": 80
    },
    {
      "midi": 69,
      "hit": false,
      "t": 25333.346000000016,
      "d": 133.33339999999953,
      "v": 80
    },
    {
      "midi": 72,
      "hit": false,
      "t": 25333.346000000016,
      "d": 133.33339999999953,
      "v": 80
    },
    {
      "midi": 76,
      "hit": false,
      "t": 25333.346000000016,
      "d": 133.33339999999953,
      "v": 80
    },
    {
      "midi": 57,
      "hit": false,
      "t": 25344.457116666672,
      "d": 1116.6672249999974,
      "v": 72
    },
    {
      "midi": 64,
      "hit": false,
      "t": 25344.457116666672,
      "d": 1116.6672249999974,
      "v": 72
    },
    {
      "midi": 69,
      "hit": false,
      "t": 25500.012750000016,
      "d": 133.33339999999953,
      "v": 80
    },
    {
      "midi": 72,
      "hit": false,
      "t": 25500.012750000016,
      "d": 133.33339999999953,
      "v": 80
    },
    {
      "midi": 76,
      "hit": false,
      "t": 25500.012750000016,
      "d": 133.33339999999953,
      "v": 80
    },
    {
      "midi": 57,
      "hit": false,
      "t": 25666.679500000017,
      "d": 266.66679999999906,
      "v": 80
    },
    {
      "midi": 64,
      "hit": false,
      "t": 26000.013000000017,
      "d": 400.0001999999986,
      "v": 80
    },
    {
      "midi": 69,
      "hit": false,
      "t": 26000.013000000017,
      "d": 400.0001999999986,
      "v": 80
    },
    {
      "midi": 72,
      "hit": false,
      "t": 26000.013000000017,
      "d": 400.0001999999986,
      "v": 80
    },
    {
      "midi": 76,
      "hit": false,
      "t": 26000.013000000017,
      "d": 400.0001999999986,
      "v": 80
    },
    {
      "midi": 60,
      "hit": false,
      "t": 26350.013175000004,
      "d": 111.11116666666567,
      "v": 66
    },
    {
      "midi": 64,
      "hit": false,
      "t": 26500.013250000015,
      "d": 133.33339999999953,
      "v": 80
    },
    {
      "midi": 69,
      "hit": false,
      "t": 26500.013250000015,
      "d": 133.33339999999953,
      "v": 80
    },
    {
      "midi": 72,
      "hit": false,
      "t": 26500.013250000015,
      "d": 133.33339999999953,
      "v": 80
    },
    {
      "midi": 76,
      "hit": false,
      "t": 26500.013250000015,
      "d": 133.33339999999953,
      "v": 80
    },
    {
      "midi": 64,
      "hit": false,
      "t": 26522.235483333337,
      "d": 144.44451666666646,
      "v": 70
    },
    {
      "midi": 57,
      "hit": false,
      "t": 26666.680000000004,
      "d": 433.3335499999994,
      "v": 68
    },
    {
      "midi": 60,
      "hit": false,
      "t": 26666.680000000004,
      "d": 433.3335499999994,
      "v": 68
    },
    {
      "midi": 64,
      "hit": false,
      "t": 26666.680000000004,
      "d": 433.3335499999994,
      "v": 68
    },
    {
      "midi": 72,
      "hit": false,
      "t": 26666.680000000015,
      "d": 133.33339999999953,
      "v": 80
    },
    {
      "midi": 72,
      "hit": false,
      "t": 26833.346750000015,
      "d": 400.0001999999986,
      "v": 80
    },
    {
      "midi": 45,
      "hit": false,
      "t": 27000.013500000005,
      "d": 650.0003249999972,
      "v": 78
    },
    {
      "midi": 57,
      "hit": false,
      "t": 27333.347,
      "d": 372.2224083333349,
      "v": 80
    },
    {
      "midi": 60,
      "hit": false,
      "t": 27333.347,
      "d": 372.2224083333349,
      "v": 80
    },
    {
      "midi": 64,
      "hit": false,
      "t": 27333.347,
      "d": 372.2224083333349,
      "v": 80
    },
    {
      "midi": 72,
      "hit": false,
      "t": 27333.347000000012,
      "d": 266.66679999999906,
      "v": 80
    },
    {
      "midi": 69,
      "hit": false,
      "t": 27666.680500000013,
      "d": 133.33339999999953,
      "v": 80
    },
    {
      "midi": 67,
      "hit": false,
      "t": 27833.347250000013,
      "d": 133.33339999999953,
      "v": 80
    },
    {
      "midi": 72,
      "hit": false,
      "t": 28000.014000000014,
      "d": 133.33339999999953,
      "v": 80
    },
    {
      "midi": 69,
      "hit": false,
      "t": 28166.680750000014,
      "d": 133.33339999999953,
      "v": 80
    },
    {
      "midi": 55,
      "hit": false,
      "t": 28333.347500000003,
      "d": 672.2225583333347,
      "v": 68
    },
    {
      "midi": 72,
      "hit": false,
      "t": 28333.347500000014,
      "d": 133.33339999999953,
      "v": 80
    },
    {
      "midi": 69,
      "hit": false,
      "t": 28500.014250000015,
      "d": 133.33339999999953,
      "v": 80
    },
    {
      "midi": 59,
      "hit": false,
      "t": 28666.681000000004,
      "d": 450.0002249999998,
      "v": 85
    },
    {
      "midi": 72,
      "hit": false,
      "t": 28666.681000000015,
      "d": 266.66679999999906,
      "v": 80
    },
    {
      "midi": 62,
      "hit": false,
      "t": 29000.014500000005,
      "d": 138.888958333333,
      "v": 87
    },
    {
      "midi": 69,
      "hit": false,
      "t": 29000.014500000016,
      "d": 133.33339999999953,
      "v": 80
    },
    {
      "midi": 67,
      "hit": false,
      "t": 29166.681250000016,
      "d": 133.33339999999953,
      "v": 80
    },
    {
      "midi": 72,
      "hit": false,
      "t": 29333.348000000016,
      "d": 266.66679999999906,
      "v": 80
    },
    {
      "midi": 57,
      "hit": false,
      "t": 29344.459116666672,
      "d": 1116.6672249999974,
      "v": 72
    },
    {
      "midi": 62,
      "hit": false,
      "t": 29344.459116666672,
      "d": 1116.6672249999974,
      "v": 72
    },
    {
      "midi": 72,
      "hit": false,
      "t": 29666.681500000017,
      "d": 133.33339999999953,
      "v": 80
    },
    {
      "midi": 72,
      "hit": false,
      "t": 29833.348250000017,
      "d": 133.33339999999953,
      "v": 80
    },
    {
      "midi": 69,
      "hit": false,
      "t": 30000.015000000018,
      "d": 133.33339999999953,
      "v": 80
    },
    {
      "midi": 66,
      "hit": false,
      "t": 30166.681750000018,
      "d": 266.66679999999906,
      "v": 80
    },
    {
      "midi": 66,
      "hit": false,
      "t": 30350.015175000004,
      "d": 111.11116666666567,
      "v": 66
    },
    {
      "midi": 66,
      "hit": false,
      "t": 30500.01525000002,
      "d": 133.33339999999953,
      "v": 80
    },
    {
      "midi": 69,
      "hit": false,
      "t": 30522.237483333338,
      "d": 144.44451666666646,
      "v": 70
    },
    {
      "midi": 72,
      "hit": false,
      "t": 30666.68200000002,
      "d": 133.33339999999953,
      "v": 80
    },
    {
      "midi": 72,
      "hit": false,
      "t": 30833.34875000002,
      "d": 133.33339999999953,
      "v": 80
    },
    {
      "midi": 57,
      "hit": false,
      "t": 31000.015500000005,
      "d": 672.2225583333347,
      "v": 68
    },
    {
      "midi": 72,
      "hit": false,
      "t": 31000.01550000002,
      "d": 133.33339999999953,
      "v": 80
    },
    {
      "midi": 72,
      "hit": false,
      "t": 31166.68225000002,
      "d": 133.33339999999953,
      "v": 80
    },
    {
      "midi": 60,
      "hit": false,
      "t": 31333.349000000006,
      "d": 450.0002249999998,
      "v": 85
    },
    {
      "midi": 69,
      "hit": false,
      "t": 31333.34900000002,
      "d": 266.66679999999906,
      "v": 80
    },
    {
      "midi": 64,
      "hit": false,
      "t": 31666.682500000006,
      "d": 138.888958333333,
      "v": 87
    },
    {
      "midi": 67,
      "hit": false,
      "t": 31666.68250000002,
      "d": 133.33339999999953,
      "v": 80
    },
    {
      "midi": 67,
      "hit": false,
      "t": 31833.34925000002,
      "d": 133.33339999999953,
      "v": 80
    },
    {
      "midi": 72,
      "hit": false,
      "t": 32000.01600000002,
      "d": 133.33339999999953,
      "v": 80
    },
    {
      "midi": 72,
      "hit": false,
      "t": 32166.68275000002,
      "d": 266.66679999999906,
      "v": 80
    },
    {
      "midi": 57,
      "hit": false,
      "t": 32333.349500000008,
      "d": 672.2225583333311,
      "v": 68
    },
    {
      "midi": 72,
      "hit": false,
      "t": 32500.016250000022,
      "d": 433.333550000003,
      "v": 80
    },
    {
      "midi": 60,
      "hit": false,
      "t": 32666.683000000008,
      "d": 450.0002249999998,
      "v": 85
    },
    {
      "midi": 64,
      "hit": false,
      "t": 33000.016500000005,
      "d": 138.88895833333663,
      "v": 87
    },
    {
      "midi": 69,
      "hit": false,
      "t": 33000.01650000003,
      "d": 133.33340000000317,
      "v": 80
    },
    {
      "midi": 67,
      "hit": false,
      "t": 33166.68325000003,
      "d": 133.33340000000317,
      "v": 80
    },
    {
      "midi": 72,
      "hit": false,
      "t": 33333.350000000035,
      "d": 133.33340000000317,
      "v": 80
    },
    {
      "midi": 55,
      "hit": false,
      "t": 33344.46111666667,
      "d": 1116.6672250000047,
      "v": 72
    },
    {
      "midi": 62,
      "hit": false,
      "t": 33344.46111666667,
      "d": 1116.6672250000047,
      "v": 72
    },
    {
      "midi": 72,
      "hit": false,
      "t": 33500.01675000004,
      "d": 266.66679999999906,
      "v": 80
    },
    {
      "midi": 72,
      "hit": false,
      "t": 33833.35025000004,
      "d": 433.333550000003,
      "v": 80
    },
    {
      "midi": 69,
      "hit": false,
      "t": 34333.350500000044,
      "d": 133.33340000000317,
      "v": 80
    },
    {
      "midi": 59,
      "hit": false,
      "t": 34350.01717500001,
      "d": 111.1111666666693,
      "v": 66
    },
    {
      "midi": 67,
      "hit": false,
      "t": 34500.01725000005,
      "d": 133.33340000000317,
      "v": 80
    },
    {
      "midi": 62,
      "hit": false,
      "t": 34522.239483333346,
      "d": 144.4445166666701,
      "v": 70
    },
    {
      "midi": 57,
      "hit": false,
      "t": 34666.684000000016,
      "d": 1333.3340000000026,
      "v": 80
    },
    {
      "midi": 62,
      "hit": false,
      "t": 34666.684000000016,
      "d": 1333.3340000000026,
      "v": 80
    },
    {
      "midi": 66,
      "hit": false,
      "t": 34666.684000000016,
      "d": 1333.3340000000026,
      "v": 80
    },
    {
      "midi": 72,
      "hit": false,
      "t": 34666.68400000005,
      "d": 133.33340000000317,
      "v": 80
    },
    {
      "midi": 72,
      "hit": false,
      "t": 34833.350750000056,
      "d": 133.33340000000317,
      "v": 80
    },
    {
      "midi": 72,
      "hit": false,
      "t": 35000.01750000006,
      "d": 133.33340000000317,
      "v": 80
    },
    {
      "midi": 69,
      "hit": false,
      "t": 35166.684250000064,
      "d": 133.33340000000317,
      "v": 80
    },
    {
      "midi": 69,
      "hit": false,
      "t": 35333.35100000007,
      "d": 266.66679999999906,
      "v": 80
    },
    {
      "midi": 69,
      "hit": false,
      "t": 35666.68450000007,
      "d": 133.33340000000317,
      "v": 80
    },
    {
      "midi": 69,
      "hit": false,
      "t": 35833.35125000007,
      "d": 133.33340000000317,
      "v": 80
    },
    {
      "midi": 72,
      "hit": false,
      "t": 36000.01800000008,
      "d": 133.33340000000317,
      "v": 80
    },
    {
      "midi": 57,
      "hit": false,
      "t": 36011.129116666685,
      "d": 1116.6672250000047,
      "v": 72
    },
    {
      "midi": 64,
      "hit": false,
      "t": 36011.129116666685,
      "d": 1116.6672250000047,
      "v": 72
    },
    {
      "midi": 72,
      "hit": false,
      "t": 36166.68475000008,
      "d": 133.33340000000317,
      "v": 80
    },
    {
      "midi": 72,
      "hit": false,
      "t": 36333.351500000084,
      "d": 133.33340000000317,
      "v": 80
    },
    {
      "midi": 72,
      "hit": false,
      "t": 36500.01825000009,
      "d": 133.33340000000317,
      "v": 80
    },
    {
      "midi": 69,
      "hit": false,
      "t": 36666.68500000009,
      "d": 533.3335999999981,
      "v": 80
    },
    {
      "midi": 60,
      "hit": false,
      "t": 37016.68517500002,
      "d": 111.1111666666693,
      "v": 66
    },
    {
      "midi": 64,
      "hit": false,
      "t": 37188.90748333336,
      "d": 144.4445166666701,
      "v": 70
    },
    {
      "midi": 60,
      "hit": false,
      "t": 37333.35200000003,
      "d": 1333.3340000000026,
      "v": 80
    },
    {
      "midi": 64,
      "hit": false,
      "t": 37333.35200000003,
      "d": 1333.3340000000026,
      "v": 80
    },
    {
      "midi": 67,
      "hit": false,
      "t": 37333.35200000003,
      "d": 1333.3340000000026,
      "v": 80
    },
    {
      "midi": 69,
      "hit": false,
      "t": 37333.35200000003,
      "d": 1333.3340000000026,
      "v": 80
    },
    {
      "midi": 55,
      "hit": false,
      "t": 38666.68600000003,
      "d": 433.333550000003,
      "v": 68
    },
    {
      "midi": 59,
      "hit": false,
      "t": 38666.68600000003,
      "d": 433.333550000003,
      "v": 68
    },
    {
      "midi": 62,
      "hit": false,
      "t": 38666.68600000003,
      "d": 433.333550000003,
      "v": 68
    },
    {
      "midi": 43,
      "hit": false,
      "t": 39000.01950000003,
      "d": 650.0003250000009,
      "v": 78
    },
    {
      "midi": 55,
      "hit": false,
      "t": 39333.35300000003,
      "d": 372.2224083333349,
      "v": 80
    },
    {
      "midi": 59,
      "hit": false,
      "t": 39333.35300000003,
      "d": 372.2224083333349,
      "v": 80
    },
    {
      "midi": 62,
      "hit": false,
      "t": 39333.35300000003,
      "d": 372.2224083333349,
      "v": 80
    },
    {
      "midi": 57,
      "hit": false,
      "t": 40011.1311166667,
      "d": 1116.6672250000047,
      "v": 72
    },
    {
      "midi": 62,
      "hit": false,
      "t": 40011.1311166667,
      "d": 1116.6672250000047,
      "v": 72
    },
    {
      "midi": 76,
      "hit": false,
      "t": 40333.35350000009,
      "d": 133.33340000000317,
      "v": 80
    },
    {
      "midi": 74,
      "hit": false,
      "t": 40500.020250000096,
      "d": 300.00014999999985,
      "v": 80
    },
    {
      "midi": 72,
      "hit": false,
      "t": 40833.3537500001,
      "d": 133.33340000000317,
      "v": 80
    },
    {
      "midi": 69,
      "hit": false,
      "t": 41000.0205000001,
      "d": 866.6670999999988,
      "v": 80
    },
    {
      "midi": 66,
      "hit": false,
      "t": 41016.687175000035,
      "d": 111.1111666666693,
      "v": 66
    },
    {
      "midi": 69,
      "hit": false,
      "t": 41188.90948333337,
      "d": 144.4445166666701,
      "v": 70
    },
    {
      "midi": 57,
      "hit": false,
      "t": 41666.687500000044,
      "d": 672.2225583333347,
      "v": 68
    },
    {
      "midi": 60,
      "hit": false,
      "t": 42000.021000000044,
      "d": 450.0002250000034,
      "v": 85
    },
    {
      "midi": 64,
      "hit": false,
      "t": 42333.354500000045,
      "d": 138.88895833333663,
      "v": 87
    },
    {
      "midi": 64,
      "hit": false,
      "t": 42677.79911666671,
      "d": 1116.6672250000047,
      "v": 72
    },
    {
      "midi": 67,
      "hit": false,
      "t": 42677.79911666671,
      "d": 1116.6672250000047,
      "v": 72
    },
    {
      "midi": 69,
      "hit": false,
      "t": 42677.79911666671,
      "d": 1116.6672250000047,
      "v": 72
    },
    {
      "midi": 60,
      "hit": false,
      "t": 43683.35517500005,
      "d": 111.1111666666693,
      "v": 66
    },
    {
      "midi": 64,
      "hit": false,
      "t": 43855.577483333385,
      "d": 144.4445166666701,
      "v": 70
    },
    {
      "midi": 55,
      "hit": false,
      "t": 44000.022000000055,
      "d": 1333.3340000000026,
      "v": 80
    },
    {
      "midi": 59,
      "hit": false,
      "t": 44000.022000000055,
      "d": 1333.3340000000026,
      "v": 80
    },
    {
      "midi": 62,
      "hit": false,
      "t": 44000.022000000055,
      "d": 1333.3340000000026,
      "v": 80
    },
    {
      "midi": 57,
      "hit": false,
      "t": 45333.35600000006,
      "d": 1333.3340000000026,
      "v": 80
    },
    {
      "midi": 62,
      "hit": false,
      "t": 45333.35600000006,
      "d": 1333.3340000000026,
      "v": 80
    },
    {
      "midi": 66,
      "hit": false,
      "t": 45333.35600000006,
      "d": 1333.3340000000026,
      "v": 80
    },
    {
      "midi": 76,
      "hit": false,
      "t": 45666.6895000001,
      "d": 133.33340000000317,
      "v": 80
    },
    {
      "midi": 74,
      "hit": false,
      "t": 45833.356250000106,
      "d": 300.00014999999985,
      "v": 80
    },
    {
      "midi": 72,
      "hit": false,
      "t": 46166.68975000011,
      "d": 133.33340000000317,
      "v": 80
    },
    {
      "midi": 69,
      "hit": false,
      "t": 46333.35650000011,
      "d": 866.6670999999988,
      "v": 80
    },
    {
      "midi": 57,
      "hit": false,
      "t": 46677.80111666673,
      "d": 1116.6672250000047,
      "v": 72
    },
    {
      "midi": 64,
      "hit": false,
      "t": 46677.80111666673,
      "d": 1116.6672250000047,
      "v": 72
    },
    {
      "midi": 72,
      "hit": false,
      "t": 47666.690500000106,
      "d": 133.33340000000317,
      "v": 80
    },
    {
      "midi": 60,
      "hit": false,
      "t": 47683.35717500006,
      "d": 111.1111666666693,
      "v": 66
    },
    {
      "midi": 67,
      "hit": false,
      "t": 47833.35725000011,
      "d": 133.33340000000317,
      "v": 80
    },
    {
      "midi": 64,
      "hit": false,
      "t": 47855.5794833334,
      "d": 144.4445166666701,
      "v": 70
    },
    {
      "midi": 72,
      "hit": false,
      "t": 48000.024000000114,
      "d": 266.66679999999906,
      "v": 80
    },
    {
      "midi": 57,
      "hit": false,
      "t": 48333.35750000007,
      "d": 672.2225583333347,
      "v": 68
    },
    {
      "midi": 72,
      "hit": false,
      "t": 48333.357500000115,
      "d": 266.66679999999906,
      "v": 80
    },
    {
      "midi": 60,
      "hit": false,
      "t": 48666.69100000007,
      "d": 450.0002250000034,
      "v": 85
    },
    {
      "midi": 72,
      "hit": false,
      "t": 48666.691000000115,
      "d": 266.66679999999906,
      "v": 80
    },
    {
      "midi": 64,
      "hit": false,
      "t": 49000.02450000007,
      "d": 138.88895833333663,
      "v": 87
    },
    {
      "midi": 69,
      "hit": false,
      "t": 49000.024500000116,
      "d": 133.33340000000317,
      "v": 80
    },
    {
      "midi": 69,
      "hit": false,
      "t": 49166.69125000012,
      "d": 133.33340000000317,
      "v": 80
    },
    {
      "midi": 72,
      "hit": false,
      "t": 49333.358000000124,
      "d": 133.33340000000317,
      "v": 80
    },
    {
      "midi": 55,
      "hit": false,
      "t": 49344.46911666674,
      "d": 1116.6672250000047,
      "v": 72
    },
    {
      "midi": 62,
      "hit": false,
      "t": 49344.46911666674,
      "d": 1116.6672250000047,
      "v": 72
    },
    {
      "midi": 69,
      "hit": false,
      "t": 49500.02475000013,
      "d": 133.33340000000317,
      "v": 80
    },
    {
      "midi": 72,
      "hit": false,
      "t": 49666.69150000013,
      "d": 266.66679999999906,
      "v": 80
    },
    {
      "midi": 72,
      "hit": false,
      "t": 50000.02500000013,
      "d": 400.0002000000022,
      "v": 80
    },
    {
      "midi": 59,
      "hit": false,
      "t": 50350.025175000075,
      "d": 111.1111666666693,
      "v": 66
    },
    {
      "midi": 69,
      "hit": false,
      "t": 50500.02525000014,
      "d": 133.33340000000317,
      "v": 80
    },
    {
      "midi": 62,
      "hit": false,
      "t": 50522.24748333341,
      "d": 144.4445166666701,
      "v": 70
    },
    {
      "midi": 57,
      "hit": false,
      "t": 50666.69200000008,
      "d": 1333.3340000000026,
      "v": 80
    },
    {
      "midi": 62,
      "hit": false,
      "t": 50666.69200000008,
      "d": 1333.3340000000026,
      "v": 80
    },
    {
      "midi": 66,
      "hit": false,
      "t": 50666.69200000008,
      "d": 1333.3340000000026,
      "v": 80
    },
    {
      "midi": 72,
      "hit": false,
      "t": 50666.69200000014,
      "d": 133.33340000000317,
      "v": 80
    },
    {
      "midi": 72,
      "hit": false,
      "t": 50833.358750000145,
      "d": 133.33340000000317,
      "v": 80
    },
    {
      "midi": 72,
      "hit": false,
      "t": 51000.02550000015,
      "d": 133.33340000000317,
      "v": 80
    },
    {
      "midi": 72,
      "hit": false,
      "t": 51166.69225000015,
      "d": 133.33340000000317,
      "v": 80
    },
    {
      "midi": 69,
      "hit": false,
      "t": 51333.35900000016,
      "d": 266.66679999999906,
      "v": 80
    },
    {
      "midi": 67,
      "hit": false,
      "t": 51666.69250000016,
      "d": 133.33340000000317,
      "v": 80
    },
    {
      "midi": 72,
      "hit": false,
      "t": 51833.35925000016,
      "d": 300.00014999999985,
      "v": 80
    },
    {
      "midi": 57,
      "hit": false,
      "t": 52000.026000000085,
      "d": 433.333550000003,
      "v": 68
    },
    {
      "midi": 60,
      "hit": false,
      "t": 52000.026000000085,
      "d": 433.333550000003,
      "v": 68
    },
    {
      "midi": 64,
      "hit": false,
      "t": 52000.026000000085,
      "d": 433.333550000003,
      "v": 68
    },
    {
      "midi": 72,
      "hit": false,
      "t": 52166.69275000016,
      "d": 133.33340000000317,
      "v": 80
    },
    {
      "midi": 45,
      "hit": false,
      "t": 52333.359500000086,
      "d": 650.0003250000009,
      "v": 78
    },
    {
      "midi": 72,
      "hit": false,
      "t": 52333.359500000166,
      "d": 266.66679999999906,
      "v": 80
    },
    {
      "midi": 57,
      "hit": false,
      "t": 52666.69300000009,
      "d": 372.2224083333349,
      "v": 80
    },
    {
      "midi": 60,
      "hit": false,
      "t": 52666.69300000009,
      "d": 372.2224083333349,
      "v": 80
    },
    {
      "midi": 64,
      "hit": false,
      "t": 52666.69300000009,
      "d": 372.2224083333349,
      "v": 80
    },
    {
      "midi": 69,
      "hit": false,
      "t": 52666.69300000017,
      "d": 533.3335999999981,
      "v": 80
    },
    {
      "midi": 72,
      "hit": false,
      "t": 53333.36000000017,
      "d": 133.33340000000317,
      "v": 80
    },
    {
      "midi": 57,
      "hit": false,
      "t": 53344.471116666755,
      "d": 1116.6672250000047,
      "v": 72
    },
    {
      "midi": 64,
      "hit": false,
      "t": 53344.471116666755,
      "d": 1116.6672250000047,
      "v": 72
    },
    {
      "midi": 72,
      "hit": false,
      "t": 53500.02675000017,
      "d": 133.33340000000317,
      "v": 80
    },
    {
      "midi": 72,
      "hit": false,
      "t": 53666.693500000176,
      "d": 133.33340000000317,
      "v": 80
    },
    {
      "midi": 72,
      "hit": false,
      "t": 53833.36025000018,
      "d": 133.33340000000317,
      "v": 80
    },
    {
      "midi": 72,
      "hit": false,
      "t": 54000.027000000184,
      "d": 266.66679999999906,
      "v": 80
    },
    {
      "midi": 72,
      "hit": false,
      "t": 54333.360500000184,
      "d": 133.33340000000317,
      "v": 80
    },
    {
      "midi": 60,
      "hit": false,
      "t": 54350.02717500009,
      "d": 111.1111666666693,
      "v": 66
    },
    {
      "midi": 69,
      "hit": false,
      "t": 54500.02725000019,
      "d": 133.33340000000317,
      "v": 80
    },
    {
      "midi": 64,
      "hit": false,
      "t": 54522.24948333343,
      "d": 144.4445166666701,
      "v": 70
    },
    {
      "midi": 72,
      "hit": false,
      "t": 54666.69400000019,
      "d": 266.66679999999906,
      "v": 80
    },
    {
      "midi": 55,
      "hit": false,
      "t": 55000.0275000001,
      "d": 672.2225583333347,
      "v": 68
    },
    {
      "midi": 72,
      "hit": false,
      "t": 55000.02750000019,
      "d": 133.33340000000317,
      "v": 80
    },
    {
      "midi": 72,
      "hit": false,
      "t": 55166.6942500002,
      "d": 133.33340000000317,
      "v": 80
    },
    {
      "midi": 59,
      "hit": false,
      "t": 55333.3610000001,
      "d": 450.0002250000034,
      "v": 85
    },
    {
      "midi": 72,
      "hit": false,
      "t": 55333.3610000002,
      "d": 133.33340000000317,
      "v": 80
    },
    {
      "midi": 72,
      "hit": false,
      "t": 55500.027750000205,
      "d": 266.66679999999906,
      "v": 80
    },
    {
      "midi": 62,
      "hit": false,
      "t": 55666.6945000001,
      "d": 138.88895833333663,
      "v": 87
    },
    {
      "midi": 69,
      "hit": false,
      "t": 55833.361250000205,
      "d": 133.33340000000317,
      "v": 80
    },
    {
      "midi": 57,
      "hit": false,
      "t": 56000.0280000001,
      "d": 433.333550000003,
      "v": 68
    },
    {
      "midi": 62,
      "hit": false,
      "t": 56000.0280000001,
      "d": 433.333550000003,
      "v": 68
    },
    {
      "midi": 66,
      "hit": false,
      "t": 56000.0280000001,
      "d": 433.333550000003,
      "v": 68
    },
    {
      "midi": 72,
      "hit": false,
      "t": 56000.02800000021,
      "d": 133.33340000000317,
      "v": 80
    },
    {
      "midi": 72,
      "hit": false,
      "t": 56166.69475000021,
      "d": 133.33340000000317,
      "v": 80
    },
    {
      "midi": 50,
      "hit": false,
      "t": 56333.3615000001,
      "d": 650.0003250000009,
      "v": 78
    },
    {
      "midi": 72,
      "hit": false,
      "t": 56333.36150000022,
      "d": 133.33340000000317,
      "v": 80
    },
    {
      "midi": 69,
      "hit": false,
      "t": 56500.02825000022,
      "d": 133.33340000000317,
      "v": 80
    },
    {
      "midi": 57,
      "hit": false,
      "t": 56666.6950000001,
      "d": 372.2224083333349,
      "v": 80
    },
    {
      "midi": 62,
      "hit": false,
      "t": 56666.6950000001,
      "d": 372.2224083333349,
      "v": 80
    },
    {
      "midi": 66,
      "hit": false,
      "t": 56666.6950000001,
      "d": 372.2224083333349,
      "v": 80
    },
    {
      "midi": 69,
      "hit": false,
      "t": 56666.695000000225,
      "d": 133.33340000000317,
      "v": 80
    },
    {
      "midi": 69,
      "hit": false,
      "t": 56833.36175000023,
      "d": 133.33340000000317,
      "v": 80
    },
    {
      "midi": 69,
      "hit": false,
      "t": 57000.02850000023,
      "d": 133.33340000000317,
      "v": 80
    },
    {
      "midi": 69,
      "hit": false,
      "t": 57166.69525000024,
      "d": 133.33340000000317,
      "v": 80
    },
    {
      "midi": 57,
      "hit": false,
      "t": 57333.3620000001,
      "d": 1333.3340000000026,
      "v": 80
    },
    {
      "midi": 60,
      "hit": false,
      "t": 57333.3620000001,
      "d": 1333.3340000000026,
      "v": 80
    },
    {
      "midi": 64,
      "hit": false,
      "t": 57333.3620000001,
      "d": 1333.3340000000026,
      "v": 80
    },
    {
      "midi": 72,
      "hit": false,
      "t": 57333.36200000024,
      "d": 133.33340000000317,
      "v": 80
    },
    {
      "midi": 72,
      "hit": false,
      "t": 57500.028750000245,
      "d": 133.33340000000317,
      "v": 80
    },
    {
      "midi": 72,
      "hit": false,
      "t": 57666.69550000025,
      "d": 266.66679999999906,
      "v": 80
    },
    {
      "midi": 69,
      "hit": false,
      "t": 58000.02900000025,
      "d": 266.66679999999906,
      "v": 80
    },
    {
      "midi": 66,
      "hit": false,
      "t": 58333.36250000025,
      "d": 266.66679999999906,
      "v": 80
    },
    {
      "midi": 60,
      "hit": false,
      "t": 58666.696000000105,
      "d": 1333.3340000000026,
      "v": 80
    },
    {
      "midi": 64,
      "hit": false,
      "t": 58666.696000000105,
      "d": 1333.3340000000026,
      "v": 80
    },
    {
      "midi": 67,
      "hit": false,
      "t": 58666.696000000105,
      "d": 1333.3340000000026,
      "v": 80
    },
    {
      "midi": 69,
      "hit": false,
      "t": 58666.696000000105,
      "d": 1333.3340000000026,
      "v": 80
    },
    {
      "midi": 69,
      "hit": false,
      "t": 59833.36325000025,
      "d": 433.333550000003,
      "v": 80
    },
    {
      "midi": 55,
      "hit": false,
      "t": 60011.141116666775,
      "d": 1116.6672250000047,
      "v": 72
    },
    {
      "midi": 62,
      "hit": false,
      "t": 60011.141116666775,
      "d": 1116.6672250000047,
      "v": 72
    },
    {
      "midi": 59,
      "hit": false,
      "t": 61016.69717500011,
      "d": 111.1111666666693,
      "v": 66
    },
    {
      "midi": 62,
      "hit": false,
      "t": 61188.91948333345,
      "d": 144.4445166666701,
      "v": 70
    },
    {
      "midi": 57,
      "hit": false,
      "t": 61344.475116666785,
      "d": 1116.6672250000047,
      "v": 72
    },
    {
      "midi": 62,
      "hit": false,
      "t": 61344.475116666785,
      "d": 1116.6672250000047,
      "v": 72
    },
    {
      "midi": 69,
      "hit": false,
      "t": 61666.69750000025,
      "d": 266.66679999999906,
      "v": 80
    },
    {
      "midi": 69,
      "hit": false,
      "t": 62000.03100000025,
      "d": 133.33340000000317,
      "v": 80
    },
    {
      "midi": 69,
      "hit": false,
      "t": 62166.697750000254,
      "d": 133.33340000000317,
      "v": 80
    },
    {
      "midi": 69,
      "hit": false,
      "t": 62333.36450000026,
      "d": 266.66679999999906,
      "v": 80
    },
    {
      "midi": 66,
      "hit": false,
      "t": 62350.03117500012,
      "d": 111.1111666666693,
      "v": 66
    },
    {
      "midi": 69,
      "hit": false,
      "t": 62522.25348333346,
      "d": 144.4445166666701,
      "v": 70
    },
    {
      "midi": 57,
      "hit": false,
      "t": 62677.809116666795,
      "d": 1116.6672250000047,
      "v": 72
    },
    {
      "midi": 64,
      "hit": false,
      "t": 62677.809116666795,
      "d": 1116.6672250000047,
      "v": 72
    },
    {
      "midi": 60,
      "hit": false,
      "t": 63683.36517500013,
      "d": 111.1111666666693,
      "v": 66
    },
    {
      "midi": 64,
      "hit": false,
      "t": 63855.58748333347,
      "d": 144.4445166666701,
      "v": 70
    },
    {
      "midi": 60,
      "hit": false,
      "t": 64000.03200000014,
      "d": 433.333550000003,
      "v": 68
    },
    {
      "midi": 64,
      "hit": false,
      "t": 64000.03200000014,
      "d": 433.333550000003,
      "v": 68
    },
    {
      "midi": 67,
      "hit": false,
      "t": 64000.03200000014,
      "d": 433.333550000003,
      "v": 68
    },
    {
      "midi": 69,
      "hit": false,
      "t": 64000.03200000014,
      "d": 433.333550000003,
      "v": 68
    },
    {
      "midi": 45,
      "hit": false,
      "t": 64333.36550000014,
      "d": 650.0003250000009,
      "v": 78
    },
    {
      "midi": 60,
      "hit": false,
      "t": 64666.69900000014,
      "d": 372.2224083333349,
      "v": 80
    },
    {
      "midi": 64,
      "hit": false,
      "t": 64666.69900000014,
      "d": 372.2224083333349,
      "v": 80
    },
    {
      "midi": 67,
      "hit": false,
      "t": 64666.69900000014,
      "d": 372.2224083333349,
      "v": 80
    },
    {
      "midi": 69,
      "hit": false,
      "t": 64666.69900000014,
      "d": 372.2224083333349,
      "v": 80
    },
    {
      "midi": 55,
      "hit": false,
      "t": 65666.69950000013,
      "d": 672.2225583333202,
      "v": 68
    },
    {
      "midi": 59,
      "hit": false,
      "t": 66000.03300000013,
      "d": 450.00022499999614,
      "v": 85
    },
    {
      "midi": 62,
      "hit": false,
      "t": 66333.36650000012,
      "d": 138.88895833333663,
      "v": 87
    },
    {
      "midi": 57,
      "hit": false,
      "t": 66666.70000000013,
      "d": 1333.3340000000026,
      "v": 80
    },
    {
      "midi": 62,
      "hit": false,
      "t": 66666.70000000013,
      "d": 1333.3340000000026,
      "v": 80
    },
    {
      "midi": 66,
      "hit": false,
      "t": 66666.70000000013,
      "d": 1333.3340000000026,
      "v": 80
    },
    {
      "midi": 57,
      "hit": false,
      "t": 68000.03400000013,
      "d": 433.33354999999574,
      "v": 68
    },
    {
      "midi": 60,
      "hit": false,
      "t": 68000.03400000013,
      "d": 433.33354999999574,
      "v": 68
    },
    {
      "midi": 64,
      "hit": false,
      "t": 68000.03400000013,
      "d": 433.33354999999574,
      "v": 68
    },
    {
      "midi": 45,
      "hit": false,
      "t": 68333.36750000012,
      "d": 650.0003250000009,
      "v": 78
    },
    {
      "midi": 57,
      "hit": false,
      "t": 68666.70100000013,
      "d": 372.2224083333276,
      "v": 80
    },
    {
      "midi": 60,
      "hit": false,
      "t": 68666.70100000013,
      "d": 372.2224083333276,
      "v": 80
    },
    {
      "midi": 64,
      "hit": false,
      "t": 68666.70100000013,
      "d": 372.2224083333276,
      "v": 80
    },
    {
      "midi": 74,
      "hit": false,
      "t": 69333.36800000026,
      "d": 533.3335999999981,
      "v": 80
    },
    {
      "midi": 67,
      "hit": false,
      "t": 69338.92355833347,
      "d": 305.5557083333406,
      "v": 60
    },
    {
      "midi": 76,
      "hit": false,
      "t": 69344.4791166668,
      "d": 305.5557083333406,
      "v": 68
    },
    {
      "midi": 52,
      "hit": false,
      "t": 69344.4791166668,
      "d": 5211.113716666703,
      "v": 53
    },
    {
      "midi": 71,
      "hit": false,
      "t": 69350.03467500013,
      "d": 294.44459166667366,
      "v": 68
    },
    {
      "midi": 64,
      "hit": false,
      "t": 69361.1457916668,
      "d": 3361.1127916666883,
      "v": 41
    },
    {
      "midi": 74,
      "hit": false,
      "t": 70000.03500000027,
      "d": 266.66680000000633,
      "v": 80
    },
    {
      "midi": 74,
      "hit": false,
      "t": 70333.36850000027,
      "d": 133.33340000000317,
      "v": 80
    },
    {
      "midi": 88,
      "hit": false,
      "t": 70494.47969166681,
      "d": 150.00007500000356,
      "v": 58
    },
    {
      "midi": 74,
      "hit": false,
      "t": 70500.03525000028,
      "d": 433.33354999999574,
      "v": 80
    },
    {
      "midi": 83,
      "hit": false,
      "t": 70633.36865000015,
      "d": 127.7778416666697,
      "v": 70
    },
    {
      "midi": 79,
      "hit": false,
      "t": 70694.47979166682,
      "d": 116.66672500000277,
      "v": 70
    },
    {
      "midi": 73,
      "hit": false,
      "t": 71000.03550000027,
      "d": 133.33340000000317,
      "v": 80
    },
    {
      "midi": 71,
      "hit": false,
      "t": 71166.70225000028,
      "d": 700.0003500000021,
      "v": 80
    },
    {
      "midi": 76,
      "hit": false,
      "t": 71788.92478333348,
      "d": 105.55560833333584,
      "v": 45
    },
    {
      "midi": 71,
      "hit": false,
      "t": 71900.03595000015,
      "d": 133.33340000000317,
      "v": 60
    },
    {
      "midi": 67,
      "hit": false,
      "t": 71966.70265000015,
      "d": 305.5557083333406,
      "v": 76
    },
    {
      "midi": 74,
      "hit": false,
      "t": 72000.03600000028,
      "d": 266.66680000000633,
      "v": 80
    },
    {
      "midi": 74,
      "hit": false,
      "t": 72333.36950000029,
      "d": 266.66680000000633,
      "v": 80
    },
    {
      "midi": 74,
      "hit": false,
      "t": 72666.7030000003,
      "d": 266.66680000000633,
      "v": 80
    },
    {
      "midi": 74,
      "hit": false,
      "t": 73000.03650000031,
      "d": 133.33340000000317,
      "v": 80
    },
    {
      "midi": 64,
      "hit": false,
      "t": 73011.14761666683,
      "d": 500.0002499999973,
      "v": 85
    },
    {
      "midi": 74,
      "hit": false,
      "t": 73166.70325000031,
      "d": 433.33354999999574,
      "v": 80
    },
    {
      "midi": 71,
      "hit": false,
      "t": 73338.92555833349,
      "d": 466.6669000000111,
      "v": 82
    },
    {
      "midi": 67,
      "hit": false,
      "t": 73338.92555833349,
      "d": 688.8892333333497,
      "v": 74
    },
    {
      "midi": 73,
      "hit": false,
      "t": 73666.70350000031,
      "d": 133.33340000000317,
      "v": 80
    },
    {
      "midi": 64,
      "hit": false,
      "t": 73700.03685000016,
      "d": 161.1111916666705,
      "v": 91
    },
    {
      "midi": 71,
      "hit": false,
      "t": 73833.37025000031,
      "d": 433.33354999999574,
      "v": 80
    },
    {
      "midi": 64,
      "hit": false,
      "t": 74011.14811666684,
      "d": 372.2224083333276,
      "v": 87
    },
    {
      "midi": 69,
      "hit": false,
      "t": 74333.37050000031,
      "d": 266.66680000000633,
      "v": 80
    },
    {
      "midi": 67,
      "hit": false,
      "t": 74338.9260583335,
      "d": 111.1111666666693,
      "v": 85
    },
    {
      "midi": 57,
      "hit": false,
      "t": 74666.70400000017,
      "d": 2188.8899833333417,
      "v": 72
    },
    {
      "midi": 61,
      "hit": false,
      "t": 74666.70400000017,
      "d": 2188.8899833333417,
      "v": 72
    },
    {
      "midi": 64,
      "hit": false,
      "t": 74666.70400000017,
      "d": 2188.8899833333417,
      "v": 72
    },
    {
      "midi": 71,
      "hit": false,
      "t": 74666.70400000017,
      "d": 2188.8899833333417,
      "v": 72
    },
    {
      "midi": 73,
      "hit": false,
      "t": 74666.70400000032,
      "d": 1066.6671999999962,
      "v": 80
    },
    {
      "midi": 59,
      "hit": false,
      "t": 76688.92723333351,
      "d": 211.11121666667168,
      "v": 61
    },
    {
      "midi": 61,
      "hit": false,
      "t": 76861.14954166685,
      "d": 233.33345000000554,
      "v": 74
    },
    {
      "midi": 64,
      "hit": false,
      "t": 77027.81629166685,
      "d": 216.66677500000515,
      "v": 68
    },
    {
      "midi": 71,
      "hit": false,
      "t": 77200.03860000019,
      "d": 122.22228333333624,
      "v": 68
    },
    {
      "midi": 57,
      "hit": false,
      "t": 77377.81646666686,
      "d": 2400.001199999999,
      "v": 78
    },
    {
      "midi": 61,
      "hit": false,
      "t": 77377.81646666686,
      "d": 2400.001199999999,
      "v": 78
    },
    {
      "midi": 64,
      "hit": false,
      "t": 77377.81646666686,
      "d": 2400.001199999999,
      "v": 78
    },
    {
      "midi": 74,
      "hit": false,
      "t": 80000.04000000031,
      "d": 266.66680000000633,
      "v": 80
    },
    {
      "midi": 67,
      "hit": false,
      "t": 80005.59555833353,
      "d": 305.5557083333406,
      "v": 60
    },
    {
      "midi": 76,
      "hit": false,
      "t": 80011.15111666686,
      "d": 305.5557083333406,
      "v": 68
    },
    {
      "midi": 52,
      "hit": false,
      "t": 80011.15111666686,
      "d": 5211.113716666703,
      "v": 53
    },
    {
      "midi": 71,
      "hit": false,
      "t": 80016.7066750002,
      "d": 294.44459166667366,
      "v": 68
    },
    {
      "midi": 64,
      "hit": false,
      "t": 80027.81779166686,
      "d": 3361.1127916666883,
      "v": 41
    },
    {
      "midi": 74,
      "hit": false,
      "t": 80333.37350000032,
      "d": 266.66680000000633,
      "v": 80
    },
    {
      "midi": 74,
      "hit": false,
      "t": 80666.70700000033,
      "d": 133.33340000000317,
      "v": 80
    },
    {
      "midi": 74,
      "hit": false,
      "t": 80833.37375000033,
      "d": 400.00019999999495,
      "v": 80
    },
    {
      "midi": 88,
      "hit": false,
      "t": 81161.15169166688,
      "d": 150.00007500000356,
      "v": 58
    },
    {
      "midi": 83,
      "hit": false,
      "t": 81300.04065000021,
      "d": 127.7778416666697,
      "v": 70
    },
    {
      "midi": 74,
      "hit": false,
      "t": 81333.37400000033,
      "d": 266.66680000000633,
      "v": 80
    },
    {
      "midi": 79,
      "hit": false,
      "t": 81361.15179166688,
      "d": 116.66672500000277,
      "v": 70
    },
    {
      "midi": 73,
      "hit": false,
      "t": 81666.70750000034,
      "d": 133.33340000000317,
      "v": 80
    },
    {
      "midi": 71,
      "hit": false,
      "t": 81833.37425000034,
      "d": 300.0001500000071,
      "v": 80
    },
    {
      "midi": 71,
      "hit": false,
      "t": 82166.70775000035,
      "d": 133.33340000000317,
      "v": 80
    },
    {
      "midi": 69,
      "hit": false,
      "t": 82333.37450000035,
      "d": 266.66680000000633,
      "v": 80
    },
    {
      "midi": 76,
      "hit": false,
      "t": 82455.59678333355,
      "d": 105.55560833333584,
      "v": 45
    },
    {
      "midi": 71,
      "hit": false,
      "t": 82566.70795000021,
      "d": 133.33340000000317,
      "v": 60
    },
    {
      "midi": 67,
      "hit": false,
      "t": 82633.37465000022,
      "d": 305.5557083333406,
      "v": 76
    },
    {
      "midi": 74,
      "hit": false,
      "t": 83000.04150000036,
      "d": 466.66689999999653,
      "v": 80
    },
    {
      "midi": 74,
      "hit": false,
      "t": 83500.04175000035,
      "d": 133.33340000000317,
      "v": 80
    },
    {
      "midi": 74,
      "hit": false,
      "t": 83666.70850000036,
      "d": 266.66680000000633,
      "v": 80
    },
    {
      "midi": 64,
      "hit": false,
      "t": 83677.8196166669,
      "d": 500.0002499999973,
      "v": 85
    },
    {
      "midi": 74,
      "hit": false,
      "t": 84000.04200000037,
      "d": 266.66680000000633,
      "v": 80
    },
    {
      "midi": 71,
      "hit": false,
      "t": 84005.59755833355,
      "d": 466.6669000000111,
      "v": 82
    },
    {
      "midi": 67,
      "hit": false,
      "t": 84005.59755833355,
      "d": 688.8892333333497,
      "v": 74
    },
    {
      "midi": 73,
      "hit": false,
      "t": 84333.37550000037,
      "d": 133.33340000000317,
      "v": 80
    },
    {
      "midi": 64,
      "hit": false,
      "t": 84366.70885000023,
      "d": 161.1111916666705,
      "v": 91
    },
    {
      "midi": 71,
      "hit": false,
      "t": 84500.04225000038,
      "d": 433.33354999999574,
      "v": 80
    },
    {
      "midi": 64,
      "hit": false,
      "t": 84677.8201166669,
      "d": 372.2224083333276,
      "v": 87
    },
    {
      "midi": 69,
      "hit": false,
      "t": 85000.04250000037,
      "d": 266.66680000000633,
      "v": 80
    },
    {
      "midi": 67,
      "hit": false,
      "t": 85005.59805833356,
      "d": 111.1111666666693,
      "v": 85
    },
    {
      "midi": 73,
      "hit": false,
      "t": 85333.37600000038,
      "d": 1066.6671999999962,
      "v": 80
    },
    {
      "midi": 57,
      "hit": false,
      "t": 85350.04267500024,
      "d": 1922.2231833333353,
      "v": 87
    },
    {
      "midi": 61,
      "hit": false,
      "t": 85350.04267500024,
      "d": 1922.2231833333353,
      "v": 87
    },
    {
      "midi": 71,
      "hit": false,
      "t": 85350.04267500024,
      "d": 1922.2231833333353,
      "v": 87
    },
    {
      "midi": 64,
      "hit": false,
      "t": 87016.71017500023,
      "d": 255.5556833333394,
      "v": 68
    },
    {
      "midi": 61,
      "hit": false,
      "t": 87350.04367500024,
      "d": 388.889083333328,
      "v": 64
    },
    {
      "midi": 59,
      "hit": false,
      "t": 87694.4882916669,
      "d": 288.8890333333402,
      "v": 91
    },
    {
      "midi": 57,
      "hit": false,
      "t": 88022.26623333358,
      "d": 1516.667425000007,
      "v": 74
    },
    {
      "midi": 61,
      "hit": false,
      "t": 88022.26623333358,
      "d": 1516.667425000007,
      "v": 74
    },
    {
      "midi": 64,
      "hit": false,
      "t": 88022.26623333358,
      "d": 1516.667425000007,
      "v": 74
    },
    {
      "midi": 71,
      "hit": false,
      "t": 88022.26623333358,
      "d": 1516.667425000007,
      "v": 74
    },
    {
      "midi": 43,
      "hit": false,
      "t": 89683.37817500025,
      "d": 377.7779666666611,
      "v": 78
    },
    {
      "midi": 57,
      "hit": false,
      "t": 90011.15611666691,
      "d": 466.66689999999653,
      "v": 74
    },
    {
      "midi": 61,
      "hit": false,
      "t": 90011.15611666691,
      "d": 466.66689999999653,
      "v": 74
    },
    {
      "midi": 64,
      "hit": false,
      "t": 90011.15611666691,
      "d": 466.66689999999653,
      "v": 74
    },
    {
      "midi": 71,
      "hit": false,
      "t": 90011.15611666691,
      "d": 466.66689999999653,
      "v": 74
    },
    {
      "midi": 57,
      "hit": false,
      "t": 90666.71200000025,
      "d": 433.33354999999574,
      "v": 68
    },
    {
      "midi": 60,
      "hit": false,
      "t": 90666.71200000025,
      "d": 433.33354999999574,
      "v": 68
    },
    {
      "midi": 64,
      "hit": false,
      "t": 90666.71200000025,
      "d": 433.33354999999574,
      "v": 68
    },
    {
      "midi": 45,
      "hit": false,
      "t": 91000.04550000024,
      "d": 650.0003250000009,
      "v": 78
    },
    {
      "midi": 75,
      "hit": false,
      "t": 91000.04550000039,
      "d": 266.66680000000633,
      "v": 80
    },
    {
      "midi": 79,
      "hit": false,
      "t": 91000.04550000039,
      "d": 266.66680000000633,
      "v": 80
    },
    {
      "midi": 57,
      "hit": false,
      "t": 91333.37900000025,
      "d": 372.2224083333276,
      "v": 80
    },
    {
      "midi": 60,
      "hit": false,
      "t": 91333.37900000025,
      "d": 372.2224083333276,
      "v": 80
    },
    {
      "midi": 64,
      "hit": false,
      "t": 91333.37900000025,
      "d": 372.2224083333276,
      "v": 80
    },
    {
      "midi": 74,
      "hit": false,
      "t": 91333.3790000004,
      "d": 133.33340000000317,
      "v": 80
    },
    {
      "midi": 78,
      "hit": false,
      "t": 91333.3790000004,
      "d": 133.33340000000317,
      "v": 80
    },
    {
      "midi": 72,
      "hit": false,
      "t": 91500.0457500004,
      "d": 133.33340000000317,
      "v": 80
    },
    {
      "midi": 76,
      "hit": false,
      "t": 91500.0457500004,
      "d": 133.33340000000317,
      "v": 80
    },
    {
      "midi": 69,
      "hit": false,
      "t": 91666.7125000004,
      "d": 266.66680000000633,
      "v": 80
    },
    {
      "midi": 55,
      "hit": false,
      "t": 92000.04600000025,
      "d": 433.33354999999574,
      "v": 68
    },
    {
      "midi": 59,
      "hit": false,
      "t": 92000.04600000025,
      "d": 433.33354999999574,
      "v": 68
    },
    {
      "midi": 62,
      "hit": false,
      "t": 92000.04600000025,
      "d": 433.33354999999574,
      "v": 68
    },
    {
      "midi": 72,
      "hit": false,
      "t": 92000.04600000041,
      "d": 533.3335999999981,
      "v": 80
    },
    {
      "midi": 76,
      "hit": false,
      "t": 92000.04600000041,
      "d": 533.3335999999981,
      "v": 80
    },
    {
      "midi": 43,
      "hit": false,
      "t": 92333.37950000024,
      "d": 650.0003250000009,
      "v": 78
    },
    {
      "midi": 55,
      "hit": false,
      "t": 92666.71300000025,
      "d": 372.2224083333276,
      "v": 80
    },
    {
      "midi": 59,
      "hit": false,
      "t": 92666.71300000025,
      "d": 372.2224083333276,
      "v": 80
    },
    {
      "midi": 62,
      "hit": false,
      "t": 92666.71300000025,
      "d": 372.2224083333276,
      "v": 80
    },
    {
      "midi": 75,
      "hit": false,
      "t": 92666.71300000041,
      "d": 533.3335999999981,
      "v": 80
    },
    {
      "midi": 79,
      "hit": false,
      "t": 92666.71300000041,
      "d": 533.3335999999981,
      "v": 80
    },
    {
      "midi": 57,
      "hit": false,
      "t": 93333.38000000025,
      "d": 1333.3340000000026,
      "v": 80
    },
    {
      "midi": 62,
      "hit": false,
      "t": 93333.38000000025,
      "d": 1333.3340000000026,
      "v": 80
    },
    {
      "midi": 67,
      "hit": false,
      "t": 93333.38000000025,
      "d": 1333.3340000000026,
      "v": 80
    },
    {
      "midi": 75,
      "hit": false,
      "t": 93666.7135000004,
      "d": 266.66680000000633,
      "v": 80
    },
    {
      "midi": 79,
      "hit": false,
      "t": 93666.7135000004,
      "d": 266.66680000000633,
      "v": 80
    },
    {
      "midi": 74,
      "hit": false,
      "t": 94000.04700000041,
      "d": 133.33340000000317,
      "v": 80
    },
    {
      "midi": 78,
      "hit": false,
      "t": 94000.04700000041,
      "d": 133.33340000000317,
      "v": 80
    },
    {
      "midi": 72,
      "hit": false,
      "t": 94166.71375000042,
      "d": 133.33340000000317,
      "v": 80
    },
    {
      "midi": 76,
      "hit": false,
      "t": 94166.71375000042,
      "d": 133.33340000000317,
      "v": 80
    },
    {
      "midi": 69,
      "hit": false,
      "t": 94333.38050000042,
      "d": 266.66680000000633,
      "v": 80
    },
    {
      "midi": 72,
      "hit": false,
      "t": 94666.71400000043,
      "d": 533.3335999999981,
      "v": 80
    },
    {
      "midi": 76,
      "hit": false,
      "t": 94666.71400000043,
      "d": 533.3335999999981,
      "v": 80
    },
    {
      "midi": 57,
      "hit": false,
      "t": 95000.04750000025,
      "d": 672.2225583333202,
      "v": 68
    },
    {
      "midi": 60,
      "hit": false,
      "t": 95333.38100000024,
      "d": 450.00022499999614,
      "v": 85
    },
    {
      "midi": 69,
      "hit": false,
      "t": 95333.38100000043,
      "d": 533.3335999999981,
      "v": 80
    },
    {
      "midi": 64,
      "hit": false,
      "t": 95666.71450000023,
      "d": 138.88895833333663,
      "v": 87
    },
    {
      "midi": 57,
      "hit": false,
      "t": 96333.38150000024,
      "d": 672.2225583333202,
      "v": 68
    },
    {
      "midi": 75,
      "hit": false,
      "t": 96333.38150000043,
      "d": 266.66680000000633,
      "v": 80
    },
    {
      "midi": 79,
      "hit": false,
      "t": 96333.38150000043,
      "d": 266.66680000000633,
      "v": 80
    },
    {
      "midi": 60,
      "hit": false,
      "t": 96666.71500000023,
      "d": 450.00022499999614,
      "v": 85
    },
    {
      "midi": 74,
      "hit": false,
      "t": 96666.71500000043,
      "d": 133.33340000000317,
      "v": 80
    },
    {
      "midi": 78,
      "hit": false,
      "t": 96666.71500000043,
      "d": 133.33340000000317,
      "v": 80
    },
    {
      "midi": 72,
      "hit": false,
      "t": 96833.38175000044,
      "d": 133.33340000000317,
      "v": 80
    },
    {
      "midi": 76,
      "hit": false,
      "t": 96833.38175000044,
      "d": 133.33340000000317,
      "v": 80
    },
    {
      "midi": 64,
      "hit": false,
      "t": 97000.04850000022,
      "d": 138.88895833333663,
      "v": 87
    },
    {
      "midi": 69,
      "hit": false,
      "t": 97000.04850000044,
      "d": 266.66680000000633,
      "v": 80
    },
    {
      "midi": 55,
      "hit": false,
      "t": 97333.38200000023,
      "d": 433.33354999999574,
      "v": 68
    },
    {
      "midi": 59,
      "hit": false,
      "t": 97333.38200000023,
      "d": 433.33354999999574,
      "v": 68
    },
    {
      "midi": 62,
      "hit": false,
      "t": 97333.38200000023,
      "d": 433.33354999999574,
      "v": 68
    },
    {
      "midi": 72,
      "hit": false,
      "t": 97333.38200000045,
      "d": 533.3335999999981,
      "v": 80
    },
    {
      "midi": 76,
      "hit": false,
      "t": 97333.38200000045,
      "d": 533.3335999999981,
      "v": 80
    },
    {
      "midi": 43,
      "hit": false,
      "t": 97666.71550000022,
      "d": 650.0003250000009,
      "v": 78
    },
    {
      "midi": 55,
      "hit": false,
      "t": 98000.04900000023,
      "d": 372.2224083333276,
      "v": 80
    },
    {
      "midi": 59,
      "hit": false,
      "t": 98000.04900000023,
      "d": 372.2224083333276,
      "v": 80
    },
    {
      "midi": 62,
      "hit": false,
      "t": 98000.04900000023,
      "d": 372.2224083333276,
      "v": 80
    },
    {
      "midi": 75,
      "hit": false,
      "t": 98000.04900000045,
      "d": 533.3335999999981,
      "v": 80
    },
    {
      "midi": 79,
      "hit": false,
      "t": 98000.04900000045,
      "d": 533.3335999999981,
      "v": 80
    },
    {
      "midi": 55,
      "hit": false,
      "t": 98677.8271166669,
      "d": 1116.6672249999974,
      "v": 72
    },
    {
      "midi": 57,
      "hit": false,
      "t": 98677.8271166669,
      "d": 1116.6672249999974,
      "v": 72
    },
    {
      "midi": 62,
      "hit": false,
      "t": 98677.8271166669,
      "d": 1116.6672249999974,
      "v": 72
    },
    {
      "midi": 75,
      "hit": false,
      "t": 99000.04950000044,
      "d": 266.66680000000633,
      "v": 80
    },
    {
      "midi": 79,
      "hit": false,
      "t": 99000.04950000044,
      "d": 266.66680000000633,
      "v": 80
    },
    {
      "midi": 74,
      "hit": false,
      "t": 99333.38300000045,
      "d": 133.33340000000317,
      "v": 80
    },
    {
      "midi": 78,
      "hit": false,
      "t": 99333.38300000045,
      "d": 133.33340000000317,
      "v": 80
    },
    {
      "midi": 72,
      "hit": false,
      "t": 99500.04975000046,
      "d": 133.33340000000317,
      "v": 80
    },
    {
      "midi": 76,
      "hit": false,
      "t": 99500.04975000046,
      "d": 133.33340000000317,
      "v": 80
    },
    {
      "midi": 69,
      "hit": false,
      "t": 99666.71650000046,
      "d": 266.66680000000633,
      "v": 80
    },
    {
      "midi": 67,
      "hit": false,
      "t": 99683.38317500023,
      "d": 183.33342500000435,
      "v": 66
    },
    {
      "midi": 69,
      "hit": false,
      "t": 99855.60548333357,
      "d": 144.4445166666701,
      "v": 70
    },
    {
      "midi": 72,
      "hit": false,
      "t": 100000.05000000047,
      "d": 533.3335999999981,
      "v": 80
    },
    {
      "midi": 76,
      "hit": false,
      "t": 100000.05000000047,
      "d": 533.3335999999981,
      "v": 80
    },
    {
      "midi": 57,
      "hit": false,
      "t": 100011.1611166669,
      "d": 1116.6672249999974,
      "v": 72
    },
    {
      "midi": 64,
      "hit": false,
      "t": 100011.1611166669,
      "d": 1116.6672249999974,
      "v": 72
    },
    {
      "midi": 69,
      "hit": false,
      "t": 100666.71700000047,
      "d": 266.66680000000633,
      "v": 80
    },
    {
      "midi": 71,
      "hit": false,
      "t": 101000.05050000048,
      "d": 133.33340000000317,
      "v": 80
    },
    {
      "midi": 76,
      "hit": false,
      "t": 101000.05050000048,
      "d": 133.33340000000317,
      "v": 80
    },
    {
      "midi": 60,
      "hit": false,
      "t": 101016.71717500023,
      "d": 111.1111666666693,
      "v": 66
    },
    {
      "midi": 64,
      "hit": false,
      "t": 101188.93948333357,
      "d": 144.4445166666701,
      "v": 70
    },
    {
      "midi": 76,
      "hit": false,
      "t": 101333.38400000049,
      "d": 266.66680000000633,
      "v": 80
    },
    {
      "midi": 81,
      "hit": false,
      "t": 101333.38400000049,
      "d": 266.66680000000633,
      "v": 80
    },
    {
      "midi": 57,
      "hit": false,
      "t": 101344.4951166669,
      "d": 1116.6672249999974,
      "v": 72
    },
    {
      "midi": 64,
      "hit": false,
      "t": 101344.4951166669,
      "d": 1116.6672249999974,
      "v": 72
    },
    {
      "midi": 76,
      "hit": false,
      "t": 101666.7175000005,
      "d": 266.66680000000633,
      "v": 80
    },
    {
      "midi": 81,
      "hit": false,
      "t": 101666.7175000005,
      "d": 266.66680000000633,
      "v": 80
    },
    {
      "midi": 76,
      "hit": false,
      "t": 102000.0510000005,
      "d": 266.66680000000633,
      "v": 80
    },
    {
      "midi": 79,
      "hit": false,
      "t": 102000.0510000005,
      "d": 266.66680000000633,
      "v": 80
    },
    {
      "midi": 76,
      "hit": false,
      "t": 102333.38450000051,
      "d": 266.66680000000633,
      "v": 80
    },
    {
      "midi": 81,
      "hit": false,
      "t": 102333.38450000051,
      "d": 266.66680000000633,
      "v": 80
    },
    {
      "midi": 60,
      "hit": false,
      "t": 102350.05117500023,
      "d": 111.1111666666693,
      "v": 66
    },
    {
      "midi": 64,
      "hit": false,
      "t": 102522.27348333357,
      "d": 144.4445166666701,
      "v": 70
    },
    {
      "midi": 76,
      "hit": false,
      "t": 102666.71800000052,
      "d": 133.33340000000317,
      "v": 80
    },
    {
      "midi": 79,
      "hit": false,
      "t": 102833.38475000052,
      "d": 133.33340000000317,
      "v": 80
    },
    {
      "midi": 55,
      "hit": false,
      "t": 103000.05150000023,
      "d": 672.2225583333202,
      "v": 68
    },
    {
      "midi": 67,
      "hit": false,
      "t": 103000.05150000053,
      "d": 266.66680000000633,
      "v": 80
    },
    {
      "midi": 59,
      "hit": false,
      "t": 103333.38500000023,
      "d": 450.00022499999614,
      "v": 85
    },
    {
      "midi": 79,
      "hit": false,
      "t": 103333.38500000053,
      "d": 266.66680000000633,
      "v": 80
    },
    {
      "midi": 62,
      "hit": false,
      "t": 103666.71850000022,
      "d": 138.88895833333663,
      "v": 87
    },
    {
      "midi": 79,
      "hit": false,
      "t": 103666.71850000054,
      "d": 133.33340000000317,
      "v": 80
    },
    {
      "midi": 67,
      "hit": false,
      "t": 103833.38525000055,
      "d": 133.33340000000317,
      "v": 80
    },
    {
      "midi": 57,
      "hit": false,
      "t": 104000.05200000023,
      "d": 1138.8894583333167,
      "v": 76
    },
    {
      "midi": 76,
      "hit": false,
      "t": 104000.05200000055,
      "d": 133.33340000000317,
      "v": 80
    },
    {
      "midi": 79,
      "hit": false,
      "t": 104000.05200000055,
      "d": 133.33340000000317,
      "v": 80
    },
    {
      "midi": 81,
      "hit": false,
      "t": 104166.71875000055,
      "d": 400.00019999999495,
      "v": 80
    },
    {
      "midi": 62,
      "hit": false,
      "t": 104333.38550000022,
      "d": 672.2225583333202,
      "v": 68
    },
    {
      "midi": 67,
      "hit": false,
      "t": 104666.71900000022,
      "d": 450.00022499999614,
      "v": 85
    },
    {
      "midi": 76,
      "hit": false,
      "t": 104666.71900000055,
      "d": 133.33340000000317,
      "v": 80
    },
    {
      "midi": 79,
      "hit": false,
      "t": 104666.71900000055,
      "d": 133.33340000000317,
      "v": 80
    },
    {
      "midi": 81,
      "hit": false,
      "t": 104833.38575000055,
      "d": 133.33340000000317,
      "v": 80
    },
    {
      "midi": 69,
      "hit": false,
      "t": 105000.05250000021,
      "d": 188.88898333333782,
      "v": 87
    },
    {
      "midi": 76,
      "hit": false,
      "t": 105000.05250000056,
      "d": 133.33340000000317,
      "v": 80
    },
    {
      "midi": 81,
      "hit": false,
      "t": 105000.05250000056,
      "d": 133.33340000000317,
      "v": 80
    },
    {
      "midi": 76,
      "hit": false,
      "t": 105166.71925000056,
      "d": 133.33340000000317,
      "v": 80
    },
    {
      "midi": 83,
      "hit": false,
      "t": 105166.71925000056,
      "d": 133.33340000000317,
      "v": 80
    },
    {
      "midi": 57,
      "hit": false,
      "t": 105333.38600000022,
      "d": 433.33354999999574,
      "v": 68
    },
    {
      "midi": 60,
      "hit": false,
      "t": 105333.38600000022,
      "d": 433.33354999999574,
      "v": 68
    },
    {
      "midi": 64,
      "hit": false,
      "t": 105333.38600000022,
      "d": 433.33354999999574,
      "v": 68
    },
    {
      "midi": 81,
      "hit": false,
      "t": 105333.38600000057,
      "d": 133.33340000000317,
      "v": 80
    },
    {
      "midi": 76,
      "hit": false,
      "t": 105500.05275000057,
      "d": 133.33340000000317,
      "v": 80
    },
    {
      "midi": 45,
      "hit": false,
      "t": 105666.71950000021,
      "d": 650.0003250000009,
      "v": 78
    },
    {
      "midi": 79,
      "hit": false,
      "t": 105666.71950000057,
      "d": 266.66680000000633,
      "v": 80
    },
    {
      "midi": 57,
      "hit": false,
      "t": 106000.05300000022,
      "d": 372.2224083333276,
      "v": 80
    },
    {
      "midi": 60,
      "hit": false,
      "t": 106000.05300000022,
      "d": 372.2224083333276,
      "v": 80
    },
    {
      "midi": 64,
      "hit": false,
      "t": 106000.05300000022,
      "d": 372.2224083333276,
      "v": 80
    },
    {
      "midi": 79,
      "hit": false,
      "t": 106000.05300000058,
      "d": 133.33340000000317,
      "v": 80
    },
    {
      "midi": 76,
      "hit": false,
      "t": 106166.71975000059,
      "d": 133.33340000000317,
      "v": 80
    },
    {
      "midi": 81,
      "hit": false,
      "t": 106333.38650000059,
      "d": 266.66680000000633,
      "v": 80
    },
    {
      "midi": 57,
      "hit": false,
      "t": 106666.72000000022,
      "d": 433.33354999999574,
      "v": 68
    },
    {
      "midi": 60,
      "hit": false,
      "t": 106666.72000000022,
      "d": 433.33354999999574,
      "v": 68
    },
    {
      "midi": 64,
      "hit": false,
      "t": 106666.72000000022,
      "d": 433.33354999999574,
      "v": 68
    },
    {
      "midi": 79,
      "hit": false,
      "t": 106666.7200000006,
      "d": 133.33340000000317,
      "v": 80
    },
    {
      "midi": 81,
      "hit": false,
      "t": 106833.3867500006,
      "d": 133.33340000000317,
      "v": 80
    },
    {
      "midi": 45,
      "hit": false,
      "t": 107000.05350000021,
      "d": 650.0003250000009,
      "v": 78
    },
    {
      "midi": 76,
      "hit": false,
      "t": 107000.0535000006,
      "d": 266.66680000000633,
      "v": 80
    },
    {
      "midi": 57,
      "hit": false,
      "t": 107333.38700000022,
      "d": 372.2224083333276,
      "v": 80
    },
    {
      "midi": 60,
      "hit": false,
      "t": 107333.38700000022,
      "d": 372.2224083333276,
      "v": 80
    },
    {
      "midi": 64,
      "hit": false,
      "t": 107333.38700000022,
      "d": 372.2224083333276,
      "v": 80
    },
    {
      "midi": 79,
      "hit": false,
      "t": 107333.38700000061,
      "d": 133.33340000000317,
      "v": 80
    },
    {
      "midi": 81,
      "hit": false,
      "t": 107500.05375000062,
      "d": 133.33340000000317,
      "v": 80
    },
    {
      "midi": 76,
      "hit": false,
      "t": 107666.72050000062,
      "d": 266.66680000000633,
      "v": 80
    },
    {
      "midi": 81,
      "hit": false,
      "t": 108000.05400000063,
      "d": 133.33340000000317,
      "v": 80
    },
    {
      "midi": 79,
      "hit": false,
      "t": 108166.72075000063,
      "d": 133.33340000000317,
      "v": 80
    },
    {
      "midi": 55,
      "hit": false,
      "t": 108333.38750000022,
      "d": 672.2225583333202,
      "v": 68
    },
    {
      "midi": 76,
      "hit": false,
      "t": 108333.38750000064,
      "d": 266.66680000000633,
      "v": 80
    },
    {
      "midi": 59,
      "hit": false,
      "t": 108666.72100000021,
      "d": 450.00022499999614,
      "v": 85
    },
    {
      "midi": 76,
      "hit": false,
      "t": 108666.72100000065,
      "d": 266.66680000000633,
      "v": 80
    },
    {
      "midi": 62,
      "hit": false,
      "t": 109000.0545000002,
      "d": 138.88895833333663,
      "v": 87
    },
    {
      "midi": 74,
      "hit": false,
      "t": 109000.05450000065,
      "d": 133.33340000000317,
      "v": 80
    },
    {
      "midi": 76,
      "hit": false,
      "t": 109166.72125000066,
      "d": 133.33340000000317,
      "v": 80
    },
    {
      "midi": 57,
      "hit": false,
      "t": 109333.38800000021,
      "d": 1138.8894583333167,
      "v": 76
    },
    {
      "midi": 74,
      "hit": false,
      "t": 109333.38800000066,
      "d": 266.66680000000633,
      "v": 80
    },
    {
      "midi": 76,
      "hit": false,
      "t": 109333.38800000066,
      "d": 266.66680000000633,
      "v": 80
    },
    {
      "midi": 62,
      "hit": false,
      "t": 109666.7215000002,
      "d": 672.2225583333202,
      "v": 68
    },
    {
      "midi": 72,
      "hit": false,
      "t": 109666.72150000067,
      "d": 133.33340000000317,
      "v": 80
    },
    {
      "midi": 74,
      "hit": false,
      "t": 109833.38825000067,
      "d": 133.33340000000317,
      "v": 80
    },
    {
      "midi": 67,
      "hit": false,
      "t": 110000.0550000002,
      "d": 450.00022499999614,
      "v": 85
    },
    {
      "midi": 72,
      "hit": false,
      "t": 110000.05500000068,
      "d": 133.33340000000317,
      "v": 80
    },
    {
      "midi": 69,
      "hit": false,
      "t": 110166.72175000068,
      "d": 133.33340000000317,
      "v": 80
    },
    {
      "midi": 69,
      "hit": false,
      "t": 110333.38850000019,
      "d": 188.88898333333782,
      "v": 87
    },
    {
      "midi": 67,
      "hit": false,
      "t": 110333.38850000068,
      "d": 266.66680000000633,
      "v": 80
    },
    {
      "midi": 69,
      "hit": false,
      "t": 110666.7220000007,
      "d": 1066.6671999999962,
      "v": 80
    },
    {
      "midi": 57,
      "hit": false,
      "t": 110677.83311666686,
      "d": 1116.6672249999974,
      "v": 72
    },
    {
      "midi": 64,
      "hit": false,
      "t": 110677.83311666686,
      "d": 1116.6672249999974,
      "v": 72
    },
    {
      "midi": 60,
      "hit": false,
      "t": 111683.3891750002,
      "d": 111.1111666666693,
      "v": 66
    },
    {
      "midi": 64,
      "hit": false,
      "t": 111855.61148333353,
      "d": 144.4445166666701,
      "v": 70
    },
    {
      "midi": 57,
      "hit": false,
      "t": 112000.0560000002,
      "d": 433.33354999999574,
      "v": 68
    },
    {
      "midi": 60,
      "hit": false,
      "t": 112000.0560000002,
      "d": 433.33354999999574,
      "v": 68
    },
    {
      "midi": 64,
      "hit": false,
      "t": 112000.0560000002,
      "d": 433.33354999999574,
      "v": 68
    },
    {
      "midi": 57,
      "hit": false,
      "t": 112000.0560000007,
      "d": 133.33340000000317,
      "v": 80
    },
    {
      "midi": 62,
      "hit": false,
      "t": 112000.0560000007,
      "d": 133.33340000000317,
      "v": 80
    },
    {
      "midi": 67,
      "hit": false,
      "t": 112000.0560000007,
      "d": 133.33340000000317,
      "v": 80
    },
    {
      "midi": 64,
      "hit": false,
      "t": 112166.7227500007,
      "d": 133.33340000000317,
      "v": 80
    },
    {
      "midi": 69,
      "hit": false,
      "t": 112166.7227500007,
      "d": 133.33340000000317,
      "v": 80
    },
    {
      "midi": 45,
      "hit": false,
      "t": 112333.3895000002,
      "d": 650.0003250000009,
      "v": 78
    },
    {
      "midi": 57,
      "hit": false,
      "t": 112666.7230000002,
      "d": 372.2224083333276,
      "v": 80
    },
    {
      "midi": 60,
      "hit": false,
      "t": 112666.7230000002,
      "d": 372.2224083333276,
      "v": 80
    },
    {
      "midi": 64,
      "hit": false,
      "t": 112666.7230000002,
      "d": 372.2224083333276,
      "v": 80
    },
    {
      "midi": 64,
      "hit": false,
      "t": 112666.7230000007,
      "d": 400.00019999999495,
      "v": 80
    },
    {
      "midi": 69,
      "hit": false,
      "t": 112666.7230000007,
      "d": 400.00019999999495,
      "v": 80
    },
    {
      "midi": 72,
      "hit": false,
      "t": 112666.7230000007,
      "d": 400.00019999999495,
      "v": 80
    },
    {
      "midi": 64,
      "hit": false,
      "t": 113166.7232500007,
      "d": 133.33340000000317,
      "v": 80
    },
    {
      "midi": 69,
      "hit": false,
      "t": 113166.7232500007,
      "d": 133.33340000000317,
      "v": 80
    },
    {
      "midi": 72,
      "hit": false,
      "t": 113166.7232500007,
      "d": 133.33340000000317,
      "v": 80
    },
    {
      "midi": 64,
      "hit": false,
      "t": 113333.3900000007,
      "d": 133.33340000000317,
      "v": 80
    },
    {
      "midi": 69,
      "hit": false,
      "t": 113333.3900000007,
      "d": 133.33340000000317,
      "v": 80
    },
    {
      "midi": 72,
      "hit": false,
      "t": 113333.3900000007,
      "d": 133.33340000000317,
      "v": 80
    },
    {
      "midi": 67,
      "hit": false,
      "t": 113500.0567500007,
      "d": 133.33340000000317,
      "v": 80
    },
    {
      "midi": 55,
      "hit": false,
      "t": 113666.7235000002,
      "d": 672.2225583333202,
      "v": 68
    },
    {
      "midi": 55,
      "hit": false,
      "t": 113666.7235000007,
      "d": 266.66680000000633,
      "v": 80
    },
    {
      "midi": 59,
      "hit": false,
      "t": 114000.05700000019,
      "d": 450.00022499999614,
      "v": 85
    },
    {
      "midi": 62,
      "hit": false,
      "t": 114000.05700000071,
      "d": 400.00019999999495,
      "v": 80
    },
    {
      "midi": 67,
      "hit": false,
      "t": 114000.05700000071,
      "d": 400.00019999999495,
      "v": 80
    },
    {
      "midi": 71,
      "hit": false,
      "t": 114000.05700000071,
      "d": 400.00019999999495,
      "v": 80
    },
    {
      "midi": 62,
      "hit": false,
      "t": 114333.39050000018,
      "d": 138.88895833333663,
      "v": 87
    },
    {
      "midi": 62,
      "hit": false,
      "t": 114500.05725000071,
      "d": 133.33340000000317,
      "v": 80
    },
    {
      "midi": 67,
      "hit": false,
      "t": 114500.05725000071,
      "d": 133.33340000000317,
      "v": 80
    },
    {
      "midi": 71,
      "hit": false,
      "t": 114500.05725000071,
      "d": 133.33340000000317,
      "v": 80
    },
    {
      "midi": 62,
      "hit": false,
      "t": 114666.72400000072,
      "d": 133.33340000000317,
      "v": 80
    },
    {
      "midi": 67,
      "hit": false,
      "t": 114666.72400000072,
      "d": 133.33340000000317,
      "v": 80
    },
    {
      "midi": 71,
      "hit": false,
      "t": 114666.72400000072,
      "d": 133.33340000000317,
      "v": 80
    },
    {
      "midi": 57,
      "hit": false,
      "t": 114677.83511666686,
      "d": 1116.6672249999974,
      "v": 72
    },
    {
      "midi": 62,
      "hit": false,
      "t": 114677.83511666686,
      "d": 1116.6672249999974,
      "v": 72
    },
    {
      "midi": 69,
      "hit": false,
      "t": 114833.39075000072,
      "d": 133.33340000000317,
      "v": 80
    },
    {
      "midi": 74,
      "hit": false,
      "t": 114833.39075000072,
      "d": 133.33340000000317,
      "v": 80
    },
    {
      "midi": 69,
      "hit": false,
      "t": 115000.05750000072,
      "d": 133.33340000000317,
      "v": 80
    },
    {
      "midi": 74,
      "hit": false,
      "t": 115000.05750000072,
      "d": 133.33340000000317,
      "v": 80
    },
    {
      "midi": 69,
      "hit": false,
      "t": 115333.39100000073,
      "d": 133.33340000000317,
      "v": 80
    },
    {
      "midi": 74,
      "hit": false,
      "t": 115333.39100000073,
      "d": 133.33340000000317,
      "v": 80
    },
    {
      "midi": 76,
      "hit": false,
      "t": 115333.39100000073,
      "d": 133.33340000000317,
      "v": 80
    },
    {
      "midi": 78,
      "hit": false,
      "t": 115500.05775000073,
      "d": 266.66680000000633,
      "v": 80
    },
    {
      "midi": 66,
      "hit": false,
      "t": 115683.39117500019,
      "d": 111.1111666666693,
      "v": 66
    },
    {
      "midi": 76,
      "hit": false,
      "t": 115833.39125000074,
      "d": 133.33340000000317,
      "v": 80
    },
    {
      "midi": 69,
      "hit": false,
      "t": 115855.61348333352,
      "d": 144.4445166666701,
      "v": 70
    },
    {
      "midi": 57,
      "hit": false,
      "t": 116000.0580000002,
      "d": 1333.3340000000026,
      "v": 80
    },
    {
      "midi": 60,
      "hit": false,
      "t": 116000.0580000002,
      "d": 1333.3340000000026,
      "v": 80
    },
    {
      "midi": 64,
      "hit": false,
      "t": 116000.0580000002,
      "d": 1333.3340000000026,
      "v": 80
    },
    {
      "midi": 72,
      "hit": false,
      "t": 116000.05800000075,
      "d": 133.33340000000317,
      "v": 80
    },
    {
      "midi": 76,
      "hit": false,
      "t": 116000.05800000075,
      "d": 133.33340000000317,
      "v": 80
    },
    {
      "midi": 72,
      "hit": false,
      "t": 116166.72475000075,
      "d": 133.33340000000317,
      "v": 80
    },
    {
      "midi": 76,
      "hit": false,
      "t": 116166.72475000075,
      "d": 133.33340000000317,
      "v": 80
    },
    {
      "midi": 57,
      "hit": false,
      "t": 116333.39150000075,
      "d": 266.66680000000633,
      "v": 80
    },
    {
      "midi": 64,
      "hit": false,
      "t": 116666.72500000076,
      "d": 266.66680000000633,
      "v": 80
    },
    {
      "midi": 69,
      "hit": false,
      "t": 116666.72500000076,
      "d": 266.66680000000633,
      "v": 80
    },
    {
      "midi": 72,
      "hit": false,
      "t": 116666.72500000076,
      "d": 266.66680000000633,
      "v": 80
    },
    {
      "midi": 64,
      "hit": false,
      "t": 117000.05850000077,
      "d": 133.33340000000317,
      "v": 80
    },
    {
      "midi": 69,
      "hit": false,
      "t": 117000.05850000077,
      "d": 133.33340000000317,
      "v": 80
    },
    {
      "midi": 72,
      "hit": false,
      "t": 117000.05850000077,
      "d": 133.33340000000317,
      "v": 80
    },
    {
      "midi": 64,
      "hit": false,
      "t": 117166.72525000077,
      "d": 133.33340000000317,
      "v": 80
    },
    {
      "midi": 69,
      "hit": false,
      "t": 117166.72525000077,
      "d": 133.33340000000317,
      "v": 80
    },
    {
      "midi": 72,
      "hit": false,
      "t": 117166.72525000077,
      "d": 133.33340000000317,
      "v": 80
    },
    {
      "midi": 57,
      "hit": false,
      "t": 117333.3920000002,
      "d": 1333.3340000000026,
      "v": 80
    },
    {
      "midi": 60,
      "hit": false,
      "t": 117333.3920000002,
      "d": 1333.3340000000026,
      "v": 80
    },
    {
      "midi": 64,
      "hit": false,
      "t": 117333.3920000002,
      "d": 1333.3340000000026,
      "v": 80
    },
    {
      "midi": 57,
      "hit": false,
      "t": 117333.39200000078,
      "d": 133.33340000000317,
      "v": 80
    },
    {
      "midi": 62,
      "hit": false,
      "t": 117333.39200000078,
      "d": 133.33340000000317,
      "v": 80
    },
    {
      "midi": 67,
      "hit": false,
      "t": 117333.39200000078,
      "d": 133.33340000000317,
      "v": 80
    },
    {
      "midi": 64,
      "hit": false,
      "t": 117500.05875000078,
      "d": 133.33340000000317,
      "v": 80
    },
    {
      "midi": 69,
      "hit": false,
      "t": 117500.05875000078,
      "d": 133.33340000000317,
      "v": 80
    },
    {
      "midi": 69,
      "hit": false,
      "t": 118000.05900000078,
      "d": 266.66680000000633,
      "v": 80
    },
    {
      "midi": 72,
      "hit": false,
      "t": 118000.05900000078,
      "d": 266.66680000000633,
      "v": 80
    },
    {
      "midi": 79,
      "hit": false,
      "t": 118000.05900000078,
      "d": 266.66680000000633,
      "v": 80
    },
    {
      "midi": 72,
      "hit": false,
      "t": 118333.39250000079,
      "d": 133.33340000000317,
      "v": 80
    },
    {
      "midi": 69,
      "hit": false,
      "t": 118500.05925000079,
      "d": 133.33340000000317,
      "v": 80
    },
    {
      "midi": 55,
      "hit": false,
      "t": 118666.7260000002,
      "d": 433.33354999999574,
      "v": 68
    },
    {
      "midi": 59,
      "hit": false,
      "t": 118666.7260000002,
      "d": 433.33354999999574,
      "v": 68
    },
    {
      "midi": 62,
      "hit": false,
      "t": 118666.7260000002,
      "d": 433.33354999999574,
      "v": 68
    },
    {
      "midi": 67,
      "hit": false,
      "t": 118666.7260000008,
      "d": 133.33340000000317,
      "v": 80
    },
    {
      "midi": 67,
      "hit": false,
      "t": 118833.3927500008,
      "d": 133.33340000000317,
      "v": 80
    },
    {
      "midi": 43,
      "hit": false,
      "t": 119000.05950000019,
      "d": 650.0003250000009,
      "v": 78
    },
    {
      "midi": 55,
      "hit": false,
      "t": 119000.0595000008,
      "d": 266.66680000000633,
      "v": 80
    },
    {
      "midi": 55,
      "hit": false,
      "t": 119333.3930000002,
      "d": 372.2224083333276,
      "v": 80
    },
    {
      "midi": 59,
      "hit": false,
      "t": 119333.3930000002,
      "d": 372.2224083333276,
      "v": 80
    },
    {
      "midi": 62,
      "hit": false,
      "t": 119333.3930000002,
      "d": 372.2224083333276,
      "v": 80
    },
    {
      "midi": 62,
      "hit": false,
      "t": 119333.39300000081,
      "d": 400.00019999999495,
      "v": 80
    },
    {
      "midi": 67,
      "hit": false,
      "t": 119333.39300000081,
      "d": 400.00019999999495,
      "v": 80
    },
    {
      "midi": 71,
      "hit": false,
      "t": 119333.39300000081,
      "d": 400.00019999999495,
      "v": 80
    },
    {
      "midi": 62,
      "hit": false,
      "t": 119833.39325000081,
      "d": 133.33340000000317,
      "v": 80
    },
    {
      "midi": 67,
      "hit": false,
      "t": 119833.39325000081,
      "d": 133.33340000000317,
      "v": 80
    },
    {
      "midi": 71,
      "hit": false,
      "t": 119833.39325000081,
      "d": 133.33340000000317,
      "v": 80
    },
    {
      "midi": 57,
      "hit": false,
      "t": 120000.0600000002,
      "d": 1138.8894583333167,
      "v": 76
    },
    {
      "midi": 62,
      "hit": false,
      "t": 120000.06000000081,
      "d": 133.33340000000317,
      "v": 80
    },
    {
      "midi": 67,
      "hit": false,
      "t": 120000.06000000081,
      "d": 133.33340000000317,
      "v": 80
    },
    {
      "midi": 71,
      "hit": false,
      "t": 120000.06000000081,
      "d": 133.33340000000317,
      "v": 80
    },
    {
      "midi": 69,
      "hit": false,
      "t": 120166.72675000082,
      "d": 133.33340000000317,
      "v": 80
    },
    {
      "midi": 74,
      "hit": false,
      "t": 120166.72675000082,
      "d": 133.33340000000317,
      "v": 80
    },
    {
      "midi": 62,
      "hit": false,
      "t": 120333.3935000002,
      "d": 672.2225583333202,
      "v": 68
    },
    {
      "midi": 69,
      "hit": false,
      "t": 120333.39350000082,
      "d": 266.66680000000633,
      "v": 80
    },
    {
      "midi": 66,
      "hit": false,
      "t": 120666.72700000019,
      "d": 450.00022499999614,
      "v": 85
    },
    {
      "midi": 69,
      "hit": false,
      "t": 120666.72700000083,
      "d": 133.33340000000317,
      "v": 80
    },
    {
      "midi": 74,
      "hit": false,
      "t": 120666.72700000083,
      "d": 133.33340000000317,
      "v": 80
    },
    {
      "midi": 76,
      "hit": false,
      "t": 120666.72700000083,
      "d": 133.33340000000317,
      "v": 80
    },
    {
      "midi": 78,
      "hit": false,
      "t": 120833.39375000083,
      "d": 266.66680000000633,
      "v": 80
    },
    {
      "midi": 69,
      "hit": false,
      "t": 121000.06050000018,
      "d": 188.88898333333782,
      "v": 87
    },
    {
      "midi": 76,
      "hit": false,
      "t": 121166.72725000084,
      "d": 133.33340000000317,
      "v": 80
    },
    {
      "midi": 57,
      "hit": false,
      "t": 121333.39400000019,
      "d": 433.33354999999574,
      "v": 68
    },
    {
      "midi": 60,
      "hit": false,
      "t": 121333.39400000019,
      "d": 433.33354999999574,
      "v": 68
    },
    {
      "midi": 64,
      "hit": false,
      "t": 121333.39400000019,
      "d": 433.33354999999574,
      "v": 68
    },
    {
      "midi": 69,
      "hit": false,
      "t": 121333.39400000084,
      "d": 133.33340000000317,
      "v": 80
    },
    {
      "midi": 72,
      "hit": false,
      "t": 121333.39400000084,
      "d": 133.33340000000317,
      "v": 80
    },
    {
      "midi": 76,
      "hit": false,
      "t": 121333.39400000084,
      "d": 133.33340000000317,
      "v": 80
    },
    {
      "midi": 69,
      "hit": false,
      "t": 121500.06075000085,
      "d": 133.33340000000317,
      "v": 80
    },
    {
      "midi": 72,
      "hit": false,
      "t": 121500.06075000085,
      "d": 133.33340000000317,
      "v": 80
    },
    {
      "midi": 76,
      "hit": false,
      "t": 121500.06075000085,
      "d": 133.33340000000317,
      "v": 80
    },
    {
      "midi": 45,
      "hit": false,
      "t": 121666.72750000018,
      "d": 650.0003250000009,
      "v": 78
    },
    {
      "midi": 69,
      "hit": false,
      "t": 121666.72750000085,
      "d": 266.66680000000633,
      "v": 80
    },
    {
      "midi": 57,
      "hit": false,
      "t": 122000.06100000019,
      "d": 372.2224083333276,
      "v": 80
    },
    {
      "midi": 60,
      "hit": false,
      "t": 122000.06100000019,
      "d": 372.2224083333276,
      "v": 80
    },
    {
      "midi": 64,
      "hit": false,
      "t": 122000.06100000019,
      "d": 372.2224083333276,
      "v": 80
    },
    {
      "midi": 64,
      "hit": false,
      "t": 122000.06100000086,
      "d": 266.66680000000633,
      "v": 80
    },
    {
      "midi": 69,
      "hit": false,
      "t": 122000.06100000086,
      "d": 266.66680000000633,
      "v": 80
    },
    {
      "midi": 72,
      "hit": false,
      "t": 122000.06100000086,
      "d": 266.66680000000633,
      "v": 80
    },
    {
      "midi": 62,
      "hit": false,
      "t": 122333.39450000087,
      "d": 266.66680000000633,
      "v": 80
    },
    {
      "midi": 67,
      "hit": false,
      "t": 122333.39450000087,
      "d": 266.66680000000633,
      "v": 80
    },
    {
      "midi": 71,
      "hit": false,
      "t": 122333.39450000087,
      "d": 266.66680000000633,
      "v": 80
    },
    {
      "midi": 60,
      "hit": false,
      "t": 122666.72800000019,
      "d": 433.33354999999574,
      "v": 68
    },
    {
      "midi": 64,
      "hit": false,
      "t": 122666.72800000019,
      "d": 433.33354999999574,
      "v": 68
    },
    {
      "midi": 67,
      "hit": false,
      "t": 122666.72800000019,
      "d": 433.33354999999574,
      "v": 68
    },
    {
      "midi": 69,
      "hit": false,
      "t": 122666.72800000019,
      "d": 433.33354999999574,
      "v": 68
    },
    {
      "midi": 57,
      "hit": false,
      "t": 122666.72800000088,
      "d": 133.33340000000317,
      "v": 80
    },
    {
      "midi": 62,
      "hit": false,
      "t": 122666.72800000088,
      "d": 133.33340000000317,
      "v": 80
    },
    {
      "midi": 67,
      "hit": false,
      "t": 122666.72800000088,
      "d": 133.33340000000317,
      "v": 80
    },
    {
      "midi": 64,
      "hit": false,
      "t": 122833.39475000088,
      "d": 400.00019999999495,
      "v": 80
    },
    {
      "midi": 69,
      "hit": false,
      "t": 122833.39475000088,
      "d": 400.00019999999495,
      "v": 80
    },
    {
      "midi": 45,
      "hit": false,
      "t": 123000.06150000019,
      "d": 650.0003250000009,
      "v": 78
    },
    {
      "midi": 60,
      "hit": false,
      "t": 123333.3950000002,
      "d": 372.2224083333276,
      "v": 80
    },
    {
      "midi": 64,
      "hit": false,
      "t": 123333.3950000002,
      "d": 372.2224083333276,
      "v": 80
    },
    {
      "midi": 67,
      "hit": false,
      "t": 123333.3950000002,
      "d": 372.2224083333276,
      "v": 80
    },
    {
      "midi": 69,
      "hit": false,
      "t": 123333.3950000002,
      "d": 372.2224083333276,
      "v": 80
    },
    {
      "midi": 64,
      "hit": false,
      "t": 123333.39500000088,
      "d": 400.00019999999495,
      "v": 80
    },
    {
      "midi": 69,
      "hit": false,
      "t": 123333.39500000088,
      "d": 400.00019999999495,
      "v": 80
    },
    {
      "midi": 72,
      "hit": false,
      "t": 123333.39500000088,
      "d": 400.00019999999495,
      "v": 80
    },
    {
      "midi": 64,
      "hit": false,
      "t": 123833.39525000087,
      "d": 133.33340000000317,
      "v": 80
    },
    {
      "midi": 69,
      "hit": false,
      "t": 123833.39525000087,
      "d": 133.33340000000317,
      "v": 80
    },
    {
      "midi": 72,
      "hit": false,
      "t": 123833.39525000087,
      "d": 133.33340000000317,
      "v": 80
    },
    {
      "midi": 55,
      "hit": false,
      "t": 124000.06200000088,
      "d": 266.66680000000633,
      "v": 80
    },
    {
      "midi": 55,
      "hit": false,
      "t": 124333.39550000019,
      "d": 672.2225583333202,
      "v": 68
    },
    {
      "midi": 55,
      "hit": false,
      "t": 124333.39550000089,
      "d": 266.66680000000633,
      "v": 80
    },
    {
      "midi": 59,
      "hit": false,
      "t": 124666.72900000018,
      "d": 450.00022499999614,
      "v": 85
    },
    {
      "midi": 62,
      "hit": false,
      "t": 124666.7290000009,
      "d": 400.00019999999495,
      "v": 80
    },
    {
      "midi": 67,
      "hit": false,
      "t": 124666.7290000009,
      "d": 400.00019999999495,
      "v": 80
    },
    {
      "midi": 71,
      "hit": false,
      "t": 124666.7290000009,
      "d": 400.00019999999495,
      "v": 80
    },
    {
      "midi": 62,
      "hit": false,
      "t": 125000.06250000017,
      "d": 138.88895833333663,
      "v": 87
    },
    {
      "midi": 62,
      "hit": false,
      "t": 125166.72925000089,
      "d": 133.33340000000317,
      "v": 80
    },
    {
      "midi": 67,
      "hit": false,
      "t": 125166.72925000089,
      "d": 133.33340000000317,
      "v": 80
    },
    {
      "midi": 71,
      "hit": false,
      "t": 125166.72925000089,
      "d": 133.33340000000317,
      "v": 80
    },
    {
      "midi": 62,
      "hit": false,
      "t": 125333.3960000009,
      "d": 266.66680000000633,
      "v": 80
    },
    {
      "midi": 57,
      "hit": false,
      "t": 125344.50711666685,
      "d": 1116.6672249999974,
      "v": 72
    },
    {
      "midi": 62,
      "hit": false,
      "t": 125344.50711666685,
      "d": 1116.6672249999974,
      "v": 72
    },
    {
      "midi": 62,
      "hit": false,
      "t": 125666.7295000009,
      "d": 266.66680000000633,
      "v": 80
    },
    {
      "midi": 69,
      "hit": false,
      "t": 125666.7295000009,
      "d": 266.66680000000633,
      "v": 80
    },
    {
      "midi": 62,
      "hit": false,
      "t": 126000.06300000091,
      "d": 133.33340000000317,
      "v": 80
    },
    {
      "midi": 69,
      "hit": false,
      "t": 126000.06300000091,
      "d": 133.33340000000317,
      "v": 80
    },
    {
      "midi": 74,
      "hit": false,
      "t": 126000.06300000091,
      "d": 133.33340000000317,
      "v": 80
    },
    {
      "midi": 76,
      "hit": false,
      "t": 126000.06300000091,
      "d": 133.33340000000317,
      "v": 80
    },
    {
      "midi": 78,
      "hit": false,
      "t": 126166.72975000092,
      "d": 400.00019999999495,
      "v": 80
    },
    {
      "midi": 66,
      "hit": false,
      "t": 126350.06317500018,
      "d": 111.1111666666693,
      "v": 66
    },
    {
      "midi": 69,
      "hit": false,
      "t": 126522.28548333352,
      "d": 144.4445166666701,
      "v": 70
    },
    {
      "midi": 57,
      "hit": false,
      "t": 126666.73000000091,
      "d": 133.33340000000317,
      "v": 80
    },
    {
      "midi": 64,
      "hit": false,
      "t": 126666.73000000091,
      "d": 133.33340000000317,
      "v": 80
    },
    {
      "midi": 69,
      "hit": false,
      "t": 126666.73000000091,
      "d": 133.33340000000317,
      "v": 80
    },
    {
      "midi": 76,
      "hit": false,
      "t": 126833.39675000092,
      "d": 133.33340000000317,
      "v": 80
    },
    {
      "midi": 57,
      "hit": false,
      "t": 127000.06350000018,
      "d": 672.2225583333202,
      "v": 68
    },
    {
      "midi": 57,
      "hit": false,
      "t": 127000.06350000092,
      "d": 266.66680000000633,
      "v": 80
    },
    {
      "midi": 64,
      "hit": false,
      "t": 127000.06350000092,
      "d": 266.66680000000633,
      "v": 80
    },
    {
      "midi": 69,
      "hit": false,
      "t": 127000.06350000092,
      "d": 266.66680000000633,
      "v": 80
    },
    {
      "midi": 60,
      "hit": false,
      "t": 127333.39700000017,
      "d": 450.00022499999614,
      "v": 85
    },
    {
      "midi": 57,
      "hit": false,
      "t": 127333.39700000093,
      "d": 266.66680000000633,
      "v": 80
    },
    {
      "midi": 64,
      "hit": false,
      "t": 127333.39700000093,
      "d": 266.66680000000633,
      "v": 80
    },
    {
      "midi": 69,
      "hit": false,
      "t": 127333.39700000093,
      "d": 266.66680000000633,
      "v": 80
    },
    {
      "midi": 72,
      "hit": false,
      "t": 127333.39700000093,
      "d": 266.66680000000633,
      "v": 80
    },
    {
      "midi": 64,
      "hit": false,
      "t": 127666.73050000017,
      "d": 138.88895833333663,
      "v": 87
    },
    {
      "midi": 64,
      "hit": false,
      "t": 127666.73050000094,
      "d": 133.33340000000317,
      "v": 80
    },
    {
      "midi": 64,
      "hit": false,
      "t": 127833.39725000094,
      "d": 133.33340000000317,
      "v": 80
    },
    {
      "midi": 60,
      "hit": false,
      "t": 128000.06400000017,
      "d": 433.33354999999574,
      "v": 68
    },
    {
      "midi": 64,
      "hit": false,
      "t": 128000.06400000017,
      "d": 433.33354999999574,
      "v": 68
    },
    {
      "midi": 67,
      "hit": false,
      "t": 128000.06400000017,
      "d": 433.33354999999574,
      "v": 68
    },
    {
      "midi": 69,
      "hit": false,
      "t": 128000.06400000017,
      "d": 433.33354999999574,
      "v": 68
    },
    {
      "midi": 57,
      "hit": false,
      "t": 128000.06400000094,
      "d": 133.33340000000317,
      "v": 80
    },
    {
      "midi": 62,
      "hit": false,
      "t": 128000.06400000094,
      "d": 133.33340000000317,
      "v": 80
    },
    {
      "midi": 67,
      "hit": false,
      "t": 128000.06400000094,
      "d": 133.33340000000317,
      "v": 80
    },
    {
      "midi": 71,
      "hit": false,
      "t": 128000.06400000094,
      "d": 133.33340000000317,
      "v": 80
    },
    {
      "midi": 76,
      "hit": false,
      "t": 128000.06400000094,
      "d": 133.33340000000317,
      "v": 80
    },
    {
      "midi": 64,
      "hit": false,
      "t": 128166.73075000095,
      "d": 133.33340000000317,
      "v": 80
    },
    {
      "midi": 69,
      "hit": false,
      "t": 128166.73075000095,
      "d": 133.33340000000317,
      "v": 80
    },
    {
      "midi": 72,
      "hit": false,
      "t": 128166.73075000095,
      "d": 133.33340000000317,
      "v": 80
    },
    {
      "midi": 76,
      "hit": false,
      "t": 128166.73075000095,
      "d": 133.33340000000317,
      "v": 80
    },
    {
      "midi": 45,
      "hit": false,
      "t": 128333.39750000017,
      "d": 650.0003250000009,
      "v": 78
    },
    {
      "midi": 60,
      "hit": false,
      "t": 128666.73100000017,
      "d": 372.2224083333276,
      "v": 80
    },
    {
      "midi": 64,
      "hit": false,
      "t": 128666.73100000017,
      "d": 372.2224083333276,
      "v": 80
    },
    {
      "midi": 67,
      "hit": false,
      "t": 128666.73100000017,
      "d": 372.2224083333276,
      "v": 80
    },
    {
      "midi": 69,
      "hit": false,
      "t": 128666.73100000017,
      "d": 372.2224083333276,
      "v": 80
    },
    {
      "midi": 57,
      "hit": false,
      "t": 128666.73100000095,
      "d": 266.66680000000633,
      "v": 80
    },
    {
      "midi": 64,
      "hit": false,
      "t": 128666.73100000095,
      "d": 266.66680000000633,
      "v": 80
    },
    {
      "midi": 69,
      "hit": false,
      "t": 128666.73100000095,
      "d": 266.66680000000633,
      "v": 80
    },
    {
      "midi": 72,
      "hit": false,
      "t": 128666.73100000095,
      "d": 266.66680000000633,
      "v": 80
    },
    {
      "midi": 76,
      "hit": false,
      "t": 128666.73100000095,
      "d": 266.66680000000633,
      "v": 80
    },
    {
      "midi": 57,
      "hit": false,
      "t": 129000.06450000095,
      "d": 133.33340000000317,
      "v": 80
    },
    {
      "midi": 64,
      "hit": false,
      "t": 129000.06450000095,
      "d": 133.33340000000317,
      "v": 80
    },
    {
      "midi": 69,
      "hit": false,
      "t": 129000.06450000095,
      "d": 133.33340000000317,
      "v": 80
    },
    {
      "midi": 72,
      "hit": false,
      "t": 129000.06450000095,
      "d": 133.33340000000317,
      "v": 80
    },
    {
      "midi": 57,
      "hit": false,
      "t": 129166.73125000096,
      "d": 133.33340000000317,
      "v": 80
    },
    {
      "midi": 64,
      "hit": false,
      "t": 129166.73125000096,
      "d": 133.33340000000317,
      "v": 80
    },
    {
      "midi": 69,
      "hit": false,
      "t": 129166.73125000096,
      "d": 133.33340000000317,
      "v": 80
    },
    {
      "midi": 72,
      "hit": false,
      "t": 129166.73125000096,
      "d": 133.33340000000317,
      "v": 80
    },
    {
      "midi": 55,
      "hit": false,
      "t": 129333.39800000018,
      "d": 433.33354999999574,
      "v": 68
    },
    {
      "midi": 59,
      "hit": false,
      "t": 129333.39800000018,
      "d": 433.33354999999574,
      "v": 68
    },
    {
      "midi": 62,
      "hit": false,
      "t": 129333.39800000018,
      "d": 433.33354999999574,
      "v": 68
    },
    {
      "midi": 55,
      "hit": false,
      "t": 129333.39800000096,
      "d": 133.33340000000317,
      "v": 80
    },
    {
      "midi": 62,
      "hit": false,
      "t": 129333.39800000096,
      "d": 133.33340000000317,
      "v": 80
    },
    {
      "midi": 67,
      "hit": false,
      "t": 129333.39800000096,
      "d": 133.33340000000317,
      "v": 80
    },
    {
      "midi": 62,
      "hit": false,
      "t": 129500.06475000097,
      "d": 133.33340000000317,
      "v": 80
    },
    {
      "midi": 67,
      "hit": false,
      "t": 129500.06475000097,
      "d": 133.33340000000317,
      "v": 80
    },
    {
      "midi": 43,
      "hit": false,
      "t": 129666.73150000017,
      "d": 650.0003250000009,
      "v": 78
    },
    {
      "midi": 55,
      "hit": false,
      "t": 129666.73150000097,
      "d": 266.66680000000633,
      "v": 80
    },
    {
      "midi": 62,
      "hit": false,
      "t": 129666.73150000097,
      "d": 266.66680000000633,
      "v": 80
    },
    {
      "midi": 67,
      "hit": false,
      "t": 129666.73150000097,
      "d": 266.66680000000633,
      "v": 80
    },
    {
      "midi": 55,
      "hit": false,
      "t": 130000.06500000018,
      "d": 372.2224083333276,
      "v": 80
    },
    {
      "midi": 59,
      "hit": false,
      "t": 130000.06500000018,
      "d": 372.2224083333276,
      "v": 80
    },
    {
      "midi": 62,
      "hit": false,
      "t": 130000.06500000018,
      "d": 372.2224083333276,
      "v": 80
    },
    {
      "midi": 62,
      "hit": false,
      "t": 130000.06500000098,
      "d": 533.3335999999981,
      "v": 80
    },
    {
      "midi": 67,
      "hit": false,
      "t": 130000.06500000098,
      "d": 533.3335999999981,
      "v": 80
    },
    {
      "midi": 71,
      "hit": false,
      "t": 130000.06500000098,
      "d": 533.3335999999981,
      "v": 80
    },
    {
      "midi": 57,
      "hit": false,
      "t": 130666.73200000018,
      "d": 1138.8894583333313,
      "v": 76
    },
    {
      "midi": 62,
      "hit": false,
      "t": 130666.73200000098,
      "d": 133.33340000000317,
      "v": 80
    },
    {
      "midi": 69,
      "hit": false,
      "t": 130666.73200000098,
      "d": 133.33340000000317,
      "v": 80
    },
    {
      "midi": 62,
      "hit": false,
      "t": 130833.39875000098,
      "d": 133.33340000000317,
      "v": 80
    },
    {
      "midi": 69,
      "hit": false,
      "t": 130833.39875000098,
      "d": 133.33340000000317,
      "v": 80
    },
    {
      "midi": 62,
      "hit": false,
      "t": 131000.06550000017,
      "d": 672.2225583333347,
      "v": 68
    },
    {
      "midi": 62,
      "hit": false,
      "t": 131000.06550000099,
      "d": 266.66680000000633,
      "v": 80
    },
    {
      "midi": 69,
      "hit": false,
      "t": 131000.06550000099,
      "d": 266.66680000000633,
      "v": 80
    },
    {
      "midi": 66,
      "hit": false,
      "t": 131333.39900000018,
      "d": 450.00022499999614,
      "v": 85
    },
    {
      "midi": 62,
      "hit": false,
      "t": 131333.399000001,
      "d": 133.33340000000317,
      "v": 80
    },
    {
      "midi": 69,
      "hit": false,
      "t": 131333.399000001,
      "d": 133.33340000000317,
      "v": 80
    },
    {
      "midi": 74,
      "hit": false,
      "t": 131333.399000001,
      "d": 133.33340000000317,
      "v": 80
    },
    {
      "midi": 76,
      "hit": false,
      "t": 131333.399000001,
      "d": 133.33340000000317,
      "v": 80
    },
    {
      "midi": 78,
      "hit": false,
      "t": 131500.065750001,
      "d": 400.0002000000095,
      "v": 80
    },
    {
      "midi": 69,
      "hit": false,
      "t": 131666.7325000002,
      "d": 188.88898333330872,
      "v": 87
    },
    {
      "midi": 57,
      "hit": false,
      "t": 132000.06600000017,
      "d": 433.3335500000103,
      "v": 68
    },
    {
      "midi": 60,
      "hit": false,
      "t": 132000.06600000017,
      "d": 433.3335500000103,
      "v": 68
    },
    {
      "midi": 64,
      "hit": false,
      "t": 132000.06600000017,
      "d": 433.3335500000103,
      "v": 68
    },
    {
      "midi": 57,
      "hit": false,
      "t": 132000.066000001,
      "d": 133.33340000000317,
      "v": 80
    },
    {
      "midi": 64,
      "hit": false,
      "t": 132000.066000001,
      "d": 133.33340000000317,
      "v": 80
    },
    {
      "midi": 69,
      "hit": false,
      "t": 132000.066000001,
      "d": 133.33340000000317,
      "v": 80
    },
    {
      "midi": 72,
      "hit": false,
      "t": 132000.066000001,
      "d": 133.33340000000317,
      "v": 80
    },
    {
      "midi": 76,
      "hit": false,
      "t": 132000.066000001,
      "d": 133.33340000000317,
      "v": 80
    },
    {
      "midi": 69,
      "hit": false,
      "t": 132166.732750001,
      "d": 133.33340000000317,
      "v": 80
    },
    {
      "midi": 72,
      "hit": false,
      "t": 132166.732750001,
      "d": 133.33340000000317,
      "v": 80
    },
    {
      "midi": 76,
      "hit": false,
      "t": 132166.732750001,
      "d": 133.33340000000317,
      "v": 80
    },
    {
      "midi": 45,
      "hit": false,
      "t": 132333.39950000017,
      "d": 650.0003250000009,
      "v": 78
    },
    {
      "midi": 57,
      "hit": false,
      "t": 132333.39950000102,
      "d": 266.66680000000633,
      "v": 80
    },
    {
      "midi": 57,
      "hit": false,
      "t": 132666.73300000018,
      "d": 372.2224083333276,
      "v": 80
    },
    {
      "midi": 60,
      "hit": false,
      "t": 132666.73300000018,
      "d": 372.2224083333276,
      "v": 80
    },
    {
      "midi": 64,
      "hit": false,
      "t": 132666.73300000018,
      "d": 372.2224083333276,
      "v": 80
    },
    {
      "midi": 64,
      "hit": false,
      "t": 132666.73300000103,
      "d": 400.0002000000095,
      "v": 80
    },
    {
      "midi": 69,
      "hit": false,
      "t": 132666.73300000103,
      "d": 400.0002000000095,
      "v": 80
    },
    {
      "midi": 72,
      "hit": false,
      "t": 132666.73300000103,
      "d": 400.0002000000095,
      "v": 80
    },
    {
      "midi": 76,
      "hit": false,
      "t": 132666.73300000103,
      "d": 400.0002000000095,
      "v": 80
    },
    {
      "midi": 64,
      "hit": false,
      "t": 133166.73325000104,
      "d": 133.33340000000317,
      "v": 80
    },
    {
      "midi": 69,
      "hit": false,
      "t": 133166.73325000104,
      "d": 133.33340000000317,
      "v": 80
    },
    {
      "midi": 72,
      "hit": false,
      "t": 133166.73325000104,
      "d": 133.33340000000317,
      "v": 80
    },
    {
      "midi": 76,
      "hit": false,
      "t": 133166.73325000104,
      "d": 133.33340000000317,
      "v": 80
    },
    {
      "midi": 74,
      "hit": false,
      "t": 133333.40000000104,
      "d": 533.3336000000127,
      "v": 80
    },
    {
      "midi": 67,
      "hit": false,
      "t": 133338.9555583335,
      "d": 305.55570833329693,
      "v": 60
    },
    {
      "midi": 76,
      "hit": false,
      "t": 133344.5111166668,
      "d": 305.55570833329693,
      "v": 68
    },
    {
      "midi": 52,
      "hit": false,
      "t": 133344.5111166668,
      "d": 5211.113716666499,
      "v": 53
    },
    {
      "midi": 71,
      "hit": false,
      "t": 133350.06667500013,
      "d": 294.4445916666591,
      "v": 68
    },
    {
      "midi": 64,
      "hit": false,
      "t": 133361.1777916668,
      "d": 3361.1127916665573,
      "v": 41
    },
    {
      "midi": 74,
      "hit": false,
      "t": 134000.06700000106,
      "d": 266.66680000000633,
      "v": 80
    },
    {
      "midi": 74,
      "hit": false,
      "t": 134333.40050000107,
      "d": 133.33340000000317,
      "v": 80
    },
    {
      "midi": 88,
      "hit": false,
      "t": 134494.51169166676,
      "d": 150.000074999989,
      "v": 58
    },
    {
      "midi": 74,
      "hit": false,
      "t": 134500.06725000107,
      "d": 433.3335500000103,
      "v": 80
    },
    {
      "midi": 83,
      "hit": false,
      "t": 134633.40065000008,
      "d": 127.77784166665515,
      "v": 70
    },
    {
      "midi": 79,
      "hit": false,
      "t": 134694.51179166674,
      "d": 116.66672499998822,
      "v": 70
    },
    {
      "midi": 73,
      "hit": false,
      "t": 135000.06750000108,
      "d": 133.33340000000317,
      "v": 80
    },
    {
      "midi": 71,
      "hit": false,
      "t": 135166.7342500011,
      "d": 700.0003499999875,
      "v": 80
    },
    {
      "midi": 76,
      "hit": false,
      "t": 135788.9567833334,
      "d": 105.55560833332129,
      "v": 45
    },
    {
      "midi": 71,
      "hit": false,
      "t": 135900.06795000003,
      "d": 133.33340000000317,
      "v": 60
    },
    {
      "midi": 67,
      "hit": false,
      "t": 135966.73465000003,
      "d": 305.55570833332604,
      "v": 76
    },
    {
      "midi": 74,
      "hit": false,
      "t": 136000.06800000108,
      "d": 266.66680000000633,
      "v": 80
    },
    {
      "midi": 74,
      "hit": false,
      "t": 136333.40150000108,
      "d": 266.66680000000633,
      "v": 80
    },
    {
      "midi": 74,
      "hit": false,
      "t": 136666.7350000011,
      "d": 266.66680000000633,
      "v": 80
    },
    {
      "midi": 74,
      "hit": false,
      "t": 137000.0685000011,
      "d": 133.33340000000317,
      "v": 80
    },
    {
      "midi": 64,
      "hit": false,
      "t": 137011.1796166667,
      "d": 500.00024999998277,
      "v": 85
    },
    {
      "midi": 74,
      "hit": false,
      "t": 137166.7352500011,
      "d": 433.3335500000103,
      "v": 80
    },
    {
      "midi": 71,
      "hit": false,
      "t": 137338.95755833335,
      "d": 466.666899999982,
      "v": 82
    },
    {
      "midi": 67,
      "hit": false,
      "t": 137338.95755833335,
      "d": 688.8892333332915,
      "v": 74
    },
    {
      "midi": 73,
      "hit": false,
      "t": 137666.73550000112,
      "d": 133.33340000000317,
      "v": 80
    },
    {
      "midi": 64,
      "hit": false,
      "t": 137700.06885,
      "d": 161.11119166665594,
      "v": 91
    },
    {
      "midi": 71,
      "hit": false,
      "t": 137833.40225000112,
      "d": 433.3335500000103,
      "v": 80
    },
    {
      "midi": 64,
      "hit": false,
      "t": 138011.18011666666,
      "d": 372.2224083333276,
      "v": 87
    },
    {
      "midi": 69,
      "hit": false,
      "t": 138333.40250000113,
      "d": 266.66680000000633,
      "v": 80
    },
    {
      "midi": 67,
      "hit": false,
      "t": 138338.95805833332,
      "d": 111.1111666666693,
      "v": 85
    },
    {
      "midi": 45,
      "hit": false,
      "t": 138666.73599999998,
      "d": 1088.88943333333,
      "v": 54
    },
    {
      "midi": 61,
      "hit": false,
      "t": 138666.73599999998,
      "d": 1333.3340000000026,
      "v": 57
    },
    {
      "midi": 64,
      "hit": false,
      "t": 138666.73599999998,
      "d": 1361.1117916666553,
      "v": 56
    },
    {
      "midi": 59,
      "hit": false,
      "t": 138666.73599999998,
      "d": 1383.3340249999892,
      "v": 61
    },
    {
      "midi": 73,
      "hit": false,
      "t": 138666.73600000114,
      "d": 1066.6671999999962,
      "v": 80
    },
    {
      "midi": 45,
      "hit": false,
      "t": 140000.06999999998,
      "d": 1088.889433333301,
      "v": 52
    },
    {
      "midi": 59,
      "hit": false,
      "t": 140333.40349999996,
      "d": 905.5560083333112,
      "v": 76
    },
    {
      "midi": 61,
      "hit": false,
      "t": 141000.07049999994,
      "d": 211.11121666667168,
      "v": 87
    },
    {
      "midi": 57,
      "hit": false,
      "t": 141350.07067499994,
      "d": 994.4449416666757,
      "v": 82
    },
    {
      "midi": 61,
      "hit": false,
      "t": 141350.07067499994,
      "d": 994.4449416666757,
      "v": 82
    },
    {
      "midi": 64,
      "hit": false,
      "t": 141350.07067499994,
      "d": 994.4449416666757,
      "v": 82
    },
    {
      "midi": 45,
      "hit": false,
      "t": 142322.29338333328,
      "d": 1622.2230333333137,
      "v": 63
    },
    {
      "midi": 57,
      "hit": false,
      "t": 142677.84911666662,
      "d": 1277.7784166666388,
      "v": 66
    },
    {
      "midi": 61,
      "hit": false,
      "t": 143000.07149999996,
      "d": 933.333799999964,
      "v": 68
    },
    {
      "midi": 64,
      "hit": false,
      "t": 143355.62723333327,
      "d": 566.6669500000135,
      "v": 82
    },
    {
      "midi": 69,
      "hit": false,
      "t": 143655.62738333328,
      "d": 266.66680000000633,
      "v": 59
    },
    {
      "midi": 52,
      "hit": false,
      "t": 144000.07199999993,
      "d": 4933.335799999826,
      "v": 58
    },
    {
      "midi": 74,
      "hit": false,
      "t": 144000.07200000115,
      "d": 266.66680000000633,
      "v": 80
    },
    {
      "midi": 76,
      "hit": false,
      "t": 144005.62755833325,
      "d": 555.5558333332883,
      "v": 70
    },
    {
      "midi": 67,
      "hit": false,
      "t": 144011.18311666657,
      "d": 605.555858333275,
      "v": 63
    },
    {
      "midi": 71,
      "hit": false,
      "t": 144016.73867499988,
      "d": 561.1113916666363,
      "v": 76
    },
    {
      "midi": 64,
      "hit": false,
      "t": 144027.84979166655,
      "d": 511.1113666666497,
      "v": 47
    },
    {
      "midi": 74,
      "hit": false,
      "t": 144333.40550000116,
      "d": 266.66680000000633,
      "v": 80
    },
    {
      "midi": 59,
      "hit": false,
      "t": 144355.6277333332,
      "d": 922.222683333297,
      "v": 60
    },
    {
      "midi": 74,
      "hit": false,
      "t": 144666.73900000117,
      "d": 133.33340000000317,
      "v": 80
    },
    {
      "midi": 64,
      "hit": false,
      "t": 144694.5167916665,
      "d": 827.7781916666718,
      "v": 63
    },
    {
      "midi": 74,
      "hit": false,
      "t": 144833.40575000117,
      "d": 400.0002000000095,
      "v": 80
    },
    {
      "midi": 71,
      "hit": false,
      "t": 145022.29473333317,
      "d": 511.1113666666788,
      "v": 72
    },
    {
      "midi": 67,
      "hit": false,
      "t": 145022.29473333317,
      "d": 516.6669249999977,
      "v": 72
    },
    {
      "midi": 74,
      "hit": false,
      "t": 145333.40600000118,
      "d": 266.66680000000633,
      "v": 80
    },
    {
      "midi": 73,
      "hit": false,
      "t": 145666.7395000012,
      "d": 133.33340000000317,
      "v": 80
    },
    {
      "midi": 59,
      "hit": false,
      "t": 145672.29505833317,
      "d": 988.8893833333277,
      "v": 85
    },
    {
      "midi": 71,
      "hit": false,
      "t": 145833.4062500012,
      "d": 300.0001500000071,
      "v": 80
    },
    {
      "midi": 64,
      "hit": false,
      "t": 146016.73967499984,
      "d": 1244.4450666666671,
      "v": 68
    },
    {
      "midi": 71,
      "hit": false,
      "t": 146166.7397500012,
      "d": 133.33340000000317,
      "v": 80
    },
    {
      "midi": 69,
      "hit": false,
      "t": 146333.4065000012,
      "d": 266.66680000000633,
      "v": 80
    },
    {
      "midi": 71,
      "hit": false,
      "t": 146366.73984999984,
      "d": 2366.66784999994,
      "v": 72
    },
    {
      "midi": 67,
      "hit": false,
      "t": 146372.29540833316,
      "d": 1205.5561583333474,
      "v": 64
    },
    {
      "midi": 76,
      "hit": false,
      "t": 146372.29540833316,
      "d": 1305.5562083333207,
      "v": 64
    },
    {
      "midi": 74,
      "hit": false,
      "t": 147000.07350000122,
      "d": 466.6669000000111,
      "v": 80
    },
    {
      "midi": 59,
      "hit": false,
      "t": 147005.62905833317,
      "d": 1888.8898333332618,
      "v": 85
    },
    {
      "midi": 64,
      "hit": false,
      "t": 147344.5181166665,
      "d": 827.7781916666427,
      "v": 62
    },
    {
      "midi": 74,
      "hit": false,
      "t": 147500.07375000123,
      "d": 133.33340000000317,
      "v": 80
    },
    {
      "midi": 74,
      "hit": false,
      "t": 147666.74050000124,
      "d": 266.66680000000633,
      "v": 80
    },
    {
      "midi": 67,
      "hit": false,
      "t": 147672.29605833316,
      "d": 927.778241666645,
      "v": 74
    },
    {
      "midi": 74,
      "hit": false,
      "t": 148000.07400000124,
      "d": 266.66680000000633,
      "v": 80
    },
    {
      "midi": 76,
      "hit": false,
      "t": 148011.1851166665,
      "d": 716.6670249999734,
      "v": 80
    },
    {
      "midi": 64,
      "hit": false,
      "t": 148322.29638333313,
      "d": 594.4447416666371,
      "v": 58
    },
    {
      "midi": 73,
      "hit": false,
      "t": 148333.40750000125,
      "d": 133.33340000000317,
      "v": 80
    },
    {
      "midi": 71,
      "hit": false,
      "t": 148500.07425000126,
      "d": 433.3335500000103,
      "v": 80
    },
    {
      "midi": 67,
      "hit": false,
      "t": 148683.4076749998,
      "d": 255.5556833332812,
      "v": 68
    },
    {
      "midi": 69,
      "hit": false,
      "t": 149000.07450000127,
      "d": 266.66680000000633,
      "v": 80
    },
    {
      "midi": 57,
      "hit": false,
      "t": 149333.40799999973,
      "d": 2188.889983333327,
      "v": 72
    },
    {
      "midi": 61,
      "hit": false,
      "t": 149333.40799999973,
      "d": 2188.889983333327,
      "v": 72
    },
    {
      "midi": 64,
      "hit": false,
      "t": 149333.40799999973,
      "d": 2188.889983333327,
      "v": 72
    },
    {
      "midi": 71,
      "hit": false,
      "t": 149333.40799999973,
      "d": 2188.889983333327,
      "v": 72
    },
    {
      "midi": 73,
      "hit": false,
      "t": 149333.40800000128,
      "d": 1066.6671999999962,
      "v": 80
    },
    {
      "midi": 59,
      "hit": false,
      "t": 151355.63123333306,
      "d": 211.11121666664258,
      "v": 61
    },
    {
      "midi": 61,
      "hit": false,
      "t": 151527.85354166638,
      "d": 233.33344999997644,
      "v": 74
    },
    {
      "midi": 64,
      "hit": false,
      "t": 151694.52029166635,
      "d": 216.6667749999906,
      "v": 68
    },
    {
      "midi": 71,
      "hit": false,
      "t": 151866.74259999968,
      "d": 122.22228333333624,
      "v": 68
    },
    {
      "midi": 57,
      "hit": false,
      "t": 152016.74267499967,
      "d": 1922.2231833333499,
      "v": 87
    },
    {
      "midi": 61,
      "hit": false,
      "t": 152016.74267499967,
      "d": 1922.2231833333499,
      "v": 87
    },
    {
      "midi": 71,
      "hit": false,
      "t": 152016.74267499967,
      "d": 1922.2231833333499,
      "v": 87
    },
    {
      "midi": 64,
      "hit": false,
      "t": 153683.41017499968,
      "d": 255.5556833333394,
      "v": 68
    },
    {
      "midi": 61,
      "hit": false,
      "t": 154016.74367499969,
      "d": 388.88908333334257,
      "v": 64
    },
    {
      "midi": 59,
      "hit": false,
      "t": 154361.18829166636,
      "d": 288.8890333333402,
      "v": 91
    },
    {
      "midi": 72,
      "hit": false,
      "t": 154666.7440000013,
      "d": 266.66680000000633,
      "v": 80
    },
    {
      "midi": 57,
      "hit": false,
      "t": 154677.85511666635,
      "d": 1116.667225000012,
      "v": 72
    },
    {
      "midi": 64,
      "hit": false,
      "t": 154677.85511666635,
      "d": 1116.667225000012,
      "v": 72
    },
    {
      "midi": 71,
      "hit": false,
      "t": 154677.85511666635,
      "d": 1116.667225000012,
      "v": 72
    },
    {
      "midi": 72,
      "hit": false,
      "t": 155000.0775000013,
      "d": 266.66680000000633,
      "v": 80
    },
    {
      "midi": 72,
      "hit": false,
      "t": 155333.4110000013,
      "d": 266.66680000000633,
      "v": 80
    },
    {
      "midi": 69,
      "hit": false,
      "t": 155666.7445000013,
      "d": 133.33340000000317,
      "v": 80
    },
    {
      "midi": 61,
      "hit": false,
      "t": 155683.4111749997,
      "d": 111.1111666666693,
      "v": 66
    },
    {
      "midi": 69,
      "hit": false,
      "t": 155833.4112500013,
      "d": 133.33340000000317,
      "v": 80
    },
    {
      "midi": 64,
      "hit": false,
      "t": 155855.63348333302,
      "d": 144.4445166666701,
      "v": 70
    },
    {
      "midi": 55,
      "hit": false,
      "t": 156000.0779999997,
      "d": 433.3335500000103,
      "v": 68
    },
    {
      "midi": 59,
      "hit": false,
      "t": 156000.0779999997,
      "d": 433.3335500000103,
      "v": 68
    },
    {
      "midi": 62,
      "hit": false,
      "t": 156000.0779999997,
      "d": 433.3335500000103,
      "v": 68
    },
    {
      "midi": 72,
      "hit": false,
      "t": 156000.07800000132,
      "d": 133.33340000000317,
      "v": 80
    },
    {
      "midi": 69,
      "hit": false,
      "t": 156166.74475000132,
      "d": 133.33340000000317,
      "v": 80
    },
    {
      "midi": 43,
      "hit": false,
      "t": 156333.4114999997,
      "d": 650.0003250000009,
      "v": 78
    },
    {
      "midi": 72,
      "hit": false,
      "t": 156333.41150000133,
      "d": 266.66680000000633,
      "v": 80
    },
    {
      "midi": 55,
      "hit": false,
      "t": 156666.7449999997,
      "d": 372.2224083333276,
      "v": 80
    },
    {
      "midi": 59,
      "hit": false,
      "t": 156666.7449999997,
      "d": 372.2224083333276,
      "v": 80
    },
    {
      "midi": 62,
      "hit": false,
      "t": 156666.7449999997,
      "d": 372.2224083333276,
      "v": 80
    },
    {
      "midi": 72,
      "hit": false,
      "t": 156666.74500000133,
      "d": 400.0002000000095,
      "v": 80
    },
    {
      "midi": 69,
      "hit": false,
      "t": 157166.74525000135,
      "d": 133.33340000000317,
      "v": 80
    },
    {
      "midi": 72,
      "hit": false,
      "t": 157333.41200000135,
      "d": 133.33340000000317,
      "v": 80
    },
    {
      "midi": 57,
      "hit": false,
      "t": 157344.52311666636,
      "d": 1116.667225000012,
      "v": 72
    },
    {
      "midi": 62,
      "hit": false,
      "t": 157344.52311666636,
      "d": 1116.667225000012,
      "v": 72
    },
    {
      "midi": 72,
      "hit": false,
      "t": 157500.07875000135,
      "d": 133.33340000000317,
      "v": 80
    },
    {
      "midi": 72,
      "hit": false,
      "t": 157666.74550000136,
      "d": 133.33340000000317,
      "v": 80
    },
    {
      "midi": 72,
      "hit": false,
      "t": 157833.41225000136,
      "d": 133.33340000000317,
      "v": 80
    },
    {
      "midi": 69,
      "hit": false,
      "t": 158000.07900000137,
      "d": 266.66680000000633,
      "v": 80
    },
    {
      "midi": 67,
      "hit": false,
      "t": 158333.41250000137,
      "d": 133.33340000000317,
      "v": 80
    },
    {
      "midi": 66,
      "hit": false,
      "t": 158350.0791749997,
      "d": 111.1111666666693,
      "v": 66
    },
    {
      "midi": 72,
      "hit": false,
      "t": 158500.07925000138,
      "d": 300.0001500000071,
      "v": 80
    },
    {
      "midi": 69,
      "hit": false,
      "t": 158522.30148333302,
      "d": 144.4445166666701,
      "v": 70
    },
    {
      "midi": 57,
      "hit": false,
      "t": 158666.7459999997,
      "d": 1333.3340000000026,
      "v": 80
    },
    {
      "midi": 60,
      "hit": false,
      "t": 158666.7459999997,
      "d": 1333.3340000000026,
      "v": 80
    },
    {
      "midi": 64,
      "hit": false,
      "t": 158666.7459999997,
      "d": 1333.3340000000026,
      "v": 80
    },
    {
      "midi": 72,
      "hit": false,
      "t": 158833.4127500014,
      "d": 133.33340000000317,
      "v": 80
    },
    {
      "midi": 72,
      "hit": false,
      "t": 159000.0795000014,
      "d": 266.66680000000633,
      "v": 80
    },
    {
      "midi": 69,
      "hit": false,
      "t": 159333.4130000014,
      "d": 533.3336000000127,
      "v": 80
    },
    {
      "midi": 57,
      "hit": false,
      "t": 160000.0799999997,
      "d": 1333.3340000000026,
      "v": 80
    },
    {
      "midi": 60,
      "hit": false,
      "t": 160000.0799999997,
      "d": 1333.3340000000026,
      "v": 80
    },
    {
      "midi": 64,
      "hit": false,
      "t": 160000.0799999997,
      "d": 1333.3340000000026,
      "v": 80
    },
    {
      "midi": 72,
      "hit": false,
      "t": 160000.0800000014,
      "d": 133.33340000000317,
      "v": 80
    },
    {
      "midi": 72,
      "hit": false,
      "t": 160166.74675000142,
      "d": 133.33340000000317,
      "v": 80
    },
    {
      "midi": 72,
      "hit": false,
      "t": 160333.41350000142,
      "d": 133.33340000000317,
      "v": 80
    },
    {
      "midi": 72,
      "hit": false,
      "t": 160500.08025000143,
      "d": 133.33340000000317,
      "v": 80
    },
    {
      "midi": 72,
      "hit": false,
      "t": 160666.74700000143,
      "d": 266.66680000000633,
      "v": 80
    },
    {
      "midi": 72,
      "hit": false,
      "t": 161000.08050000144,
      "d": 133.33340000000317,
      "v": 80
    },
    {
      "midi": 69,
      "hit": false,
      "t": 161166.74725000144,
      "d": 133.33340000000317,
      "v": 80
    },
    {
      "midi": 72,
      "hit": false,
      "t": 161333.41400000144,
      "d": 266.66680000000633,
      "v": 80
    },
    {
      "midi": 55,
      "hit": false,
      "t": 161666.7474999997,
      "d": 672.2225583333347,
      "v": 68
    },
    {
      "midi": 72,
      "hit": false,
      "t": 161666.74750000145,
      "d": 133.33340000000317,
      "v": 80
    },
    {
      "midi": 72,
      "hit": false,
      "t": 161833.41425000146,
      "d": 133.33340000000317,
      "v": 80
    },
    {
      "midi": 59,
      "hit": false,
      "t": 162000.0809999997,
      "d": 450.00022499999614,
      "v": 85
    },
    {
      "midi": 72,
      "hit": false,
      "t": 162000.08100000146,
      "d": 133.33340000000317,
      "v": 80
    },
    {
      "midi": 72,
      "hit": false,
      "t": 162166.74775000146,
      "d": 266.66680000000633,
      "v": 80
    },
    {
      "midi": 62,
      "hit": false,
      "t": 162333.41449999972,
      "d": 138.88895833332208,
      "v": 87
    },
    {
      "midi": 69,
      "hit": false,
      "t": 162500.08125000147,
      "d": 133.33340000000317,
      "v": 80
    },
    {
      "midi": 57,
      "hit": false,
      "t": 162666.7479999997,
      "d": 1138.8894583333458,
      "v": 76
    },
    {
      "midi": 72,
      "hit": false,
      "t": 162666.74800000148,
      "d": 133.33340000000317,
      "v": 80
    },
    {
      "midi": 72,
      "hit": false,
      "t": 162833.41475000148,
      "d": 133.33340000000317,
      "v": 80
    },
    {
      "midi": 62,
      "hit": false,
      "t": 163000.0814999997,
      "d": 672.2225583333347,
      "v": 68
    },
    {
      "midi": 72,
      "hit": false,
      "t": 163000.08150000148,
      "d": 133.33340000000317,
      "v": 80
    },
    {
      "midi": 69,
      "hit": false,
      "t": 163166.7482500015,
      "d": 133.33340000000317,
      "v": 80
    },
    {
      "midi": 66,
      "hit": false,
      "t": 163333.41499999972,
      "d": 450.00022499999614,
      "v": 85
    },
    {
      "midi": 69,
      "hit": false,
      "t": 163333.4150000015,
      "d": 133.33340000000317,
      "v": 80
    },
    {
      "midi": 69,
      "hit": false,
      "t": 163500.0817500015,
      "d": 133.33340000000317,
      "v": 80
    },
    {
      "midi": 69,
      "hit": false,
      "t": 163666.74849999973,
      "d": 188.88898333330872,
      "v": 87
    },
    {
      "midi": 69,
      "hit": false,
      "t": 163666.7485000015,
      "d": 133.33340000000317,
      "v": 80
    },
    {
      "midi": 69,
      "hit": false,
      "t": 163833.4152500015,
      "d": 133.33340000000317,
      "v": 80
    },
    {
      "midi": 57,
      "hit": false,
      "t": 164000.0819999997,
      "d": 1333.3340000000026,
      "v": 80
    },
    {
      "midi": 60,
      "hit": false,
      "t": 164000.0819999997,
      "d": 1333.3340000000026,
      "v": 80
    },
    {
      "midi": 64,
      "hit": false,
      "t": 164000.0819999997,
      "d": 1333.3340000000026,
      "v": 80
    },
    {
      "midi": 72,
      "hit": false,
      "t": 164000.0820000015,
      "d": 133.33340000000317,
      "v": 80
    },
    {
      "midi": 72,
      "hit": false,
      "t": 164166.7487500015,
      "d": 133.33340000000317,
      "v": 80
    },
    {
      "midi": 72,
      "hit": false,
      "t": 164333.41550000152,
      "d": 266.66680000000633,
      "v": 80
    },
    {
      "midi": 69,
      "hit": false,
      "t": 164666.74900000152,
      "d": 266.66680000000633,
      "v": 80
    },
    {
      "midi": 66,
      "hit": false,
      "t": 165000.08250000153,
      "d": 266.66680000000633,
      "v": 80
    },
    {
      "midi": 67,
      "hit": false,
      "t": 165333.4159999997,
      "d": 1138.8894583333458,
      "v": 76
    },
    {
      "midi": 69,
      "hit": false,
      "t": 165333.4159999997,
      "d": 1138.8894583333458,
      "v": 76
    },
    {
      "midi": 57,
      "hit": false,
      "t": 165666.7494999997,
      "d": 672.2225583333347,
      "v": 68
    },
    {
      "midi": 60,
      "hit": false,
      "t": 166000.08299999972,
      "d": 450.00022499999614,
      "v": 85
    },
    {
      "midi": 64,
      "hit": false,
      "t": 166333.41649999973,
      "d": 138.88895833332208,
      "v": 87
    },
    {
      "midi": 69,
      "hit": false,
      "t": 166500.08325000154,
      "d": 433.3335500000103,
      "v": 80
    },
    {
      "midi": 55,
      "hit": false,
      "t": 166677.86111666638,
      "d": 1116.667225000012,
      "v": 72
    },
    {
      "midi": 62,
      "hit": false,
      "t": 166677.86111666638,
      "d": 1116.667225000012,
      "v": 72
    },
    {
      "midi": 59,
      "hit": false,
      "t": 167683.41717499972,
      "d": 111.1111666666693,
      "v": 66
    },
    {
      "midi": 62,
      "hit": false,
      "t": 167855.63948333304,
      "d": 144.4445166666701,
      "v": 70
    },
    {
      "midi": 57,
      "hit": false,
      "t": 168000.0839999997,
      "d": 1333.3340000000026,
      "v": 80
    },
    {
      "midi": 62,
      "hit": false,
      "t": 168000.0839999997,
      "d": 1333.3340000000026,
      "v": 80
    },
    {
      "midi": 66,
      "hit": false,
      "t": 168000.0839999997,
      "d": 1333.3340000000026,
      "v": 80
    },
    {
      "midi": 69,
      "hit": false,
      "t": 168333.41750000155,
      "d": 266.66680000000633,
      "v": 80
    },
    {
      "midi": 69,
      "hit": false,
      "t": 168666.75100000156,
      "d": 133.33340000000317,
      "v": 80
    },
    {
      "midi": 69,
      "hit": false,
      "t": 168833.41775000156,
      "d": 133.33340000000317,
      "v": 80
    },
    {
      "midi": 69,
      "hit": false,
      "t": 169000.08450000157,
      "d": 266.66680000000633,
      "v": 80
    },
    {
      "midi": 57,
      "hit": false,
      "t": 169344.52911666638,
      "d": 1116.667225000012,
      "v": 72
    },
    {
      "midi": 64,
      "hit": false,
      "t": 169344.52911666638,
      "d": 1116.667225000012,
      "v": 72
    },
    {
      "midi": 60,
      "hit": false,
      "t": 170350.08517499972,
      "d": 111.1111666666693,
      "v": 66
    },
    {
      "midi": 64,
      "hit": false,
      "t": 170522.30748333305,
      "d": 144.4445166666701,
      "v": 70
    },
    {
      "midi": 64,
      "hit": false,
      "t": 170677.86311666638,
      "d": 1116.667225000012,
      "v": 72
    },
    {
      "midi": 67,
      "hit": false,
      "t": 170677.86311666638,
      "d": 1116.667225000012,
      "v": 72
    },
    {
      "midi": 69,
      "hit": false,
      "t": 170677.86311666638,
      "d": 1116.667225000012,
      "v": 72
    },
    {
      "midi": 60,
      "hit": false,
      "t": 171683.41917499973,
      "d": 111.1111666666693,
      "v": 66
    },
    {
      "midi": 64,
      "hit": false,
      "t": 171855.64148333305,
      "d": 144.4445166666701,
      "v": 70
    },
    {
      "midi": 55,
      "hit": false,
      "t": 172011.1971166664,
      "d": 1116.667225000012,
      "v": 72
    },
    {
      "midi": 62,
      "hit": false,
      "t": 172011.1971166664,
      "d": 1116.667225000012,
      "v": 72
    },
    {
      "midi": 59,
      "hit": false,
      "t": 173016.75317499973,
      "d": 111.1111666666693,
      "v": 66
    },
    {
      "midi": 62,
      "hit": false,
      "t": 173188.97548333305,
      "d": 144.4445166666701,
      "v": 70
    },
    {
      "midi": 57,
      "hit": false,
      "t": 173333.41999999972,
      "d": 433.3335500000103,
      "v": 68
    },
    {
      "midi": 62,
      "hit": false,
      "t": 173333.41999999972,
      "d": 433.3335500000103,
      "v": 68
    },
    {
      "midi": 66,
      "hit": false,
      "t": 173333.41999999972,
      "d": 433.3335500000103,
      "v": 68
    },
    {
      "midi": 50,
      "hit": false,
      "t": 173666.75349999973,
      "d": 650.0003250000009,
      "v": 78
    },
    {
      "midi": 57,
      "hit": false,
      "t": 174000.08699999974,
      "d": 372.2224083333276,
      "v": 80
    },
    {
      "midi": 62,
      "hit": false,
      "t": 174000.08699999974,
      "d": 372.2224083333276,
      "v": 80
    },
    {
      "midi": 66,
      "hit": false,
      "t": 174000.08699999974,
      "d": 372.2224083333276,
      "v": 80
    },
    {
      "midi": 57,
      "hit": false,
      "t": 174677.8651166664,
      "d": 1116.667225000012,
      "v": 72
    },
    {
      "midi": 64,
      "hit": false,
      "t": 174677.8651166664,
      "d": 1116.667225000012,
      "v": 72
    },
    {
      "midi": 60,
      "hit": false,
      "t": 175683.42117499973,
      "d": 111.1111666666693,
      "v": 66
    },
    {
      "midi": 64,
      "hit": false,
      "t": 175855.64348333306,
      "d": 144.4445166666701,
      "v": 70
    },
    {
      "midi": 74,
      "hit": false,
      "t": 176000.0880000016,
      "d": 533.3336000000127,
      "v": 80
    },
    {
      "midi": 76,
      "hit": false,
      "t": 176033.42134999973,
      "d": 1950.0009749999444,
      "v": 63
    },
    {
      "midi": 67,
      "hit": false,
      "t": 176038.97690833305,
      "d": 1800.0008999999554,
      "v": 57
    },
    {
      "midi": 71,
      "hit": false,
      "t": 176038.97690833305,
      "d": 1977.7787666666263,
      "v": 66
    },
    {
      "midi": 64,
      "hit": false,
      "t": 176044.53246666637,
      "d": 1300.0006499999727,
      "v": 53
    },
    {
      "midi": 74,
      "hit": false,
      "t": 176666.7550000016,
      "d": 266.66680000000633,
      "v": 80
    },
    {
      "midi": 74,
      "hit": false,
      "t": 177000.0885000016,
      "d": 133.33340000000317,
      "v": 80
    },
    {
      "midi": 52,
      "hit": false,
      "t": 177038.977408333,
      "d": 4233.3354499998095,
      "v": 46
    },
    {
      "midi": 74,
      "hit": false,
      "t": 177166.75525000162,
      "d": 433.3335500000103,
      "v": 80
    },
    {
      "midi": 73,
      "hit": false,
      "t": 177666.75550000163,
      "d": 133.33340000000317,
      "v": 80
    },
    {
      "midi": 64,
      "hit": false,
      "t": 177711.19996666635,
      "d": 805.5559583333088,
      "v": 57
    },
    {
      "midi": 71,
      "hit": false,
      "t": 177833.42225000163,
      "d": 700.0003499999875,
      "v": 80
    },
    {
      "midi": 67,
      "hit": false,
      "t": 178033.42234999966,
      "d": 600.0002999999851,
      "v": 62
    },
    {
      "midi": 71,
      "hit": false,
      "t": 178366.75584999967,
      "d": 1388.88958333325,
      "v": 60
    },
    {
      "midi": 74,
      "hit": false,
      "t": 178666.75600000162,
      "d": 266.66680000000633,
      "v": 80
    },
    {
      "midi": 76,
      "hit": false,
      "t": 178683.42267499963,
      "d": 1083.333874999953,
      "v": 68
    },
    {
      "midi": 64,
      "hit": false,
      "t": 178688.97823333295,
      "d": 761.1114916666411,
      "v": 50
    },
    {
      "midi": 67,
      "hit": false,
      "t": 178694.53379166627,
      "d": 1061.1116416666482,
      "v": 61
    },
    {
      "midi": 74,
      "hit": false,
      "t": 179000.08950000163,
      "d": 266.66680000000633,
      "v": 80
    },
    {
      "midi": 74,
      "hit": false,
      "t": 179333.42300000164,
      "d": 266.66680000000633,
      "v": 80
    },
    {
      "midi": 74,
      "hit": false,
      "t": 179666.75650000165,
      "d": 133.33340000000317,
      "v": 80
    },
    {
      "midi": 64,
      "hit": false,
      "t": 179688.97873333291,
      "d": 722.2225833333214,
      "v": 72
    },
    {
      "midi": 74,
      "hit": false,
      "t": 179833.42325000165,
      "d": 433.3335500000103,
      "v": 80
    },
    {
      "midi": 76,
      "hit": false,
      "t": 180027.86779166624,
      "d": 477.7780166666489,
      "v": 95
    },
    {
      "midi": 73,
      "hit": false,
      "t": 180333.42350000166,
      "d": 133.33340000000317,
      "v": 80
    },
    {
      "midi": 71,
      "hit": false,
      "t": 180500.09025000167,
      "d": 433.3335500000103,
      "v": 80
    },
    {
      "midi": 64,
      "hit": false,
      "t": 180505.6458083329,
      "d": 750.000374999945,
      "v": 70
    },
    {
      "midi": 76,
      "hit": false,
      "t": 180700.09034999955,
      "d": 266.66680000000633,
      "v": 72
    },
    {
      "midi": 71,
      "hit": false,
      "t": 180844.53486666622,
      "d": 227.77789166665752,
      "v": 68
    },
    {
      "midi": 69,
      "hit": false,
      "t": 181000.09050000168,
      "d": 266.66680000000633,
      "v": 80
    },
    {
      "midi": 67,
      "hit": false,
      "t": 181033.42384999956,
      "d": 194.44454166662763,
      "v": 80
    },
    {
      "midi": 64,
      "hit": false,
      "t": 181333.42399999948,
      "d": 822.2226333333238,
      "v": 55
    },
    {
      "midi": 61,
      "hit": false,
      "t": 181333.42399999948,
      "d": 855.5559833333245,
      "v": 58
    },
    {
      "midi": 59,
      "hit": false,
      "t": 181333.42399999948,
      "d": 894.4448916666443,
      "v": 53
    },
    {
      "midi": 73,
      "hit": false,
      "t": 181333.4240000017,
      "d": 1066.6671999999962,
      "v": 80
    },
    {
      "midi": 45,
      "hit": false,
      "t": 181361.20179166613,
      "d": 2311.112266666605,
      "v": 33
    },
    {
      "midi": 64,
      "hit": false,
      "t": 182466.75789999944,
      "d": 522.2224833332875,
      "v": 58
    },
    {
      "midi": 61,
      "hit": false,
      "t": 182500.09124999944,
      "d": 494.44469166660565,
      "v": 61
    },
    {
      "midi": 59,
      "hit": false,
      "t": 182561.2023916661,
      "d": 350.00017499999376,
      "v": 85
    },
    {
      "midi": 59,
      "hit": false,
      "t": 182994.53594166605,
      "d": 344.44461666667485,
      "v": 91
    },
    {
      "midi": 61,
      "hit": false,
      "t": 183338.98055833273,
      "d": 355.5557333333418,
      "v": 70
    },
    {
      "midi": 64,
      "hit": false,
      "t": 183683.4251749994,
      "d": 144.444516666641,
      "v": 68
    },
    {
      "midi": 61,
      "hit": false,
      "t": 184000.09199999936,
      "d": 2188.889983333327,
      "v": 72
    },
    {
      "midi": 64,
      "hit": false,
      "t": 184000.09199999936,
      "d": 2188.889983333327,
      "v": 72
    },
    {
      "midi": 57,
      "hit": false,
      "t": 186022.3152333327,
      "d": 166.66675000000396,
      "v": 61
    },
    {
      "midi": 61,
      "hit": false,
      "t": 186194.537541666,
      "d": 233.33345000000554,
      "v": 74
    },
    {
      "midi": 64,
      "hit": false,
      "t": 186361.204291666,
      "d": 216.6667749999906,
      "v": 68
    },
    {
      "midi": 69,
      "hit": false,
      "t": 186533.42659999934,
      "d": 122.22228333333624,
      "v": 68
    },
    {
      "midi": 52,
      "hit": false,
      "t": 186666.75999999934,
      "d": 4933.335799999826,
      "v": 58
    },
    {
      "midi": 74,
      "hit": false,
      "t": 186666.7600000017,
      "d": 266.66680000000633,
      "v": 80
    },
    {
      "midi": 76,
      "hit": false,
      "t": 186672.31555833266,
      "d": 555.5558333332883,
      "v": 70
    },
    {
      "midi": 67,
      "hit": false,
      "t": 186677.87111666598,
      "d": 605.555858333275,
      "v": 63
    },
    {
      "midi": 71,
      "hit": false,
      "t": 186683.4266749993,
      "d": 561.1113916666363,
      "v": 76
    },
    {
      "midi": 64,
      "hit": false,
      "t": 186694.53779166596,
      "d": 511.1113666666497,
      "v": 47
    },
    {
      "midi": 74,
      "hit": false,
      "t": 187000.0935000017,
      "d": 266.66680000000633,
      "v": 80
    },
    {
      "midi": 59,
      "hit": false,
      "t": 187022.31573333262,
      "d": 922.222683333297,
      "v": 60
    },
    {
      "midi": 74,
      "hit": false,
      "t": 187333.4270000017,
      "d": 133.33340000000317,
      "v": 80
    },
    {
      "midi": 64,
      "hit": false,
      "t": 187361.20479166592,
      "d": 827.7781916666718,
      "v": 63
    },
    {
      "midi": 74,
      "hit": false,
      "t": 187500.09375000172,
      "d": 400.0002000000095,
      "v": 80
    },
    {
      "midi": 71,
      "hit": false,
      "t": 187688.98273333258,
      "d": 511.1113666666788,
      "v": 72
    },
    {
      "midi": 67,
      "hit": false,
      "t": 187688.98273333258,
      "d": 516.6669249999977,
      "v": 72
    },
    {
      "midi": 74,
      "hit": false,
      "t": 188000.09400000173,
      "d": 266.66680000000633,
      "v": 80
    },
    {
      "midi": 73,
      "hit": false,
      "t": 188333.42750000174,
      "d": 133.33340000000317,
      "v": 80
    },
    {
      "midi": 59,
      "hit": false,
      "t": 188338.98305833258,
      "d": 988.8893833333277,
      "v": 85
    },
    {
      "midi": 71,
      "hit": false,
      "t": 188500.09425000174,
      "d": 300.0001500000071,
      "v": 80
    },
    {
      "midi": 64,
      "hit": false,
      "t": 188683.42767499926,
      "d": 1244.4450666666671,
      "v": 68
    },
    {
      "midi": 71,
      "hit": false,
      "t": 188833.42775000175,
      "d": 133.33340000000317,
      "v": 80
    },
    {
      "midi": 69,
      "hit": false,
      "t": 189000.09450000175,
      "d": 266.66680000000633,
      "v": 80
    },
    {
      "midi": 71,
      "hit": false,
      "t": 189033.42784999925,
      "d": 2366.66784999994,
      "v": 72
    },
    {
      "midi": 67,
      "hit": false,
      "t": 189038.98340833257,
      "d": 1205.5561583333474,
      "v": 64
    },
    {
      "midi": 76,
      "hit": false,
      "t": 189038.98340833257,
      "d": 1305.5562083333207,
      "v": 64
    },
    {
      "midi": 74,
      "hit": false,
      "t": 189666.76150000177,
      "d": 466.6669000000111,
      "v": 80
    },
    {
      "midi": 59,
      "hit": false,
      "t": 189672.31705833258,
      "d": 1888.8898333332618,
      "v": 85
    },
    {
      "midi": 64,
      "hit": false,
      "t": 190011.2061166659,
      "d": 827.7781916666427,
      "v": 62
    },
    {
      "midi": 74,
      "hit": false,
      "t": 190166.76175000178,
      "d": 133.33340000000317,
      "v": 80
    },
    {
      "midi": 74,
      "hit": false,
      "t": 190333.42850000178,
      "d": 266.66680000000633,
      "v": 80
    },
    {
      "midi": 67,
      "hit": false,
      "t": 190338.98405833257,
      "d": 927.778241666645,
      "v": 74
    },
    {
      "midi": 74,
      "hit": false,
      "t": 190666.7620000018,
      "d": 266.66680000000633,
      "v": 80
    },
    {
      "midi": 76,
      "hit": false,
      "t": 190677.8731166659,
      "d": 716.6670249999734,
      "v": 80
    },
    {
      "midi": 64,
      "hit": false,
      "t": 190988.98438333254,
      "d": 594.4447416666371,
      "v": 58
    },
    {
      "midi": 73,
      "hit": false,
      "t": 191000.0955000018,
      "d": 133.33340000000317,
      "v": 80
    },
    {
      "midi": 71,
      "hit": false,
      "t": 191166.7622500018,
      "d": 433.3335500000103,
      "v": 80
    },
    {
      "midi": 67,
      "hit": false,
      "t": 191350.0956749992,
      "d": 255.5556833332812,
      "v": 68
    },
    {
      "midi": 69,
      "hit": false,
      "t": 191666.76250000182,
      "d": 266.66680000000633,
      "v": 80
    },
    {
      "midi": 57,
      "hit": false,
      "t": 192000.09599999915,
      "d": 2188.889983333327,
      "v": 72
    },
    {
      "midi": 61,
      "hit": false,
      "t": 192000.09599999915,
      "d": 2188.889983333327,
      "v": 72
    },
    {
      "midi": 64,
      "hit": false,
      "t": 192000.09599999915,
      "d": 2188.889983333327,
      "v": 72
    },
    {
      "midi": 71,
      "hit": false,
      "t": 192000.09599999915,
      "d": 2188.889983333327,
      "v": 72
    },
    {
      "midi": 73,
      "hit": false,
      "t": 192000.09600000182,
      "d": 1066.6671999999962,
      "v": 80
    },
    {
      "midi": 59,
      "hit": false,
      "t": 194022.31923333247,
      "d": 211.11121666664258,
      "v": 61
    },
    {
      "midi": 61,
      "hit": false,
      "t": 194194.5415416658,
      "d": 233.33344999997644,
      "v": 74
    },
    {
      "midi": 64,
      "hit": false,
      "t": 194361.20829166577,
      "d": 216.6667749999906,
      "v": 68
    },
    {
      "midi": 71,
      "hit": false,
      "t": 194533.4305999991,
      "d": 122.22228333333624,
      "v": 68
    },
    {
      "midi": 43,
      "hit": false,
      "t": 194666.7639999991,
      "d": 1088.88943333333,
      "v": 54
    },
    {
      "midi": 61,
      "hit": false,
      "t": 194666.7639999991,
      "d": 1333.3340000000026,
      "v": 57
    },
    {
      "midi": 64,
      "hit": false,
      "t": 194666.7639999991,
      "d": 1361.1117916666553,
      "v": 56
    },
    {
      "midi": 59,
      "hit": false,
      "t": 194666.7639999991,
      "d": 1383.3340249999892,
      "v": 61
    },
    {
      "midi": 43,
      "hit": false,
      "t": 196000.0979999991,
      "d": 1088.889433333301,
      "v": 52
    },
    {
      "midi": 59,
      "hit": false,
      "t": 196333.43149999907,
      "d": 905.5560083333112,
      "v": 76
    },
    {
      "midi": 61,
      "hit": false,
      "t": 197000.09849999906,
      "d": 211.11121666667168,
      "v": 87
    },
    {
      "midi": 57,
      "hit": false,
      "t": 197333.43199999904,
      "d": 433.3335500000103,
      "v": 68
    },
    {
      "midi": 60,
      "hit": false,
      "t": 197333.43199999904,
      "d": 433.3335500000103,
      "v": 68
    },
    {
      "midi": 64,
      "hit": false,
      "t": 197333.43199999904,
      "d": 433.3335500000103,
      "v": 68
    },
    {
      "midi": 81,
      "hit": false,
      "t": 197333.43200000183,
      "d": 133.33340000000317,
      "v": 80
    },
    {
      "midi": 76,
      "hit": false,
      "t": 197500.09875000184,
      "d": 133.33340000000317,
      "v": 80
    },
    {
      "midi": 45,
      "hit": false,
      "t": 197666.76549999905,
      "d": 650.0003250000009,
      "v": 78
    },
    {
      "midi": 81,
      "hit": false,
      "t": 197666.76550000184,
      "d": 266.66680000000633,
      "v": 80
    },
    {
      "midi": 57,
      "hit": false,
      "t": 198000.09899999906,
      "d": 372.2224083333276,
      "v": 80
    },
    {
      "midi": 60,
      "hit": false,
      "t": 198000.09899999906,
      "d": 372.2224083333276,
      "v": 80
    },
    {
      "midi": 64,
      "hit": false,
      "t": 198000.09899999906,
      "d": 372.2224083333276,
      "v": 80
    },
    {
      "midi": 81,
      "hit": false,
      "t": 198000.09900000185,
      "d": 266.66680000000633,
      "v": 80
    },
    {
      "midi": 81,
      "hit": false,
      "t": 198333.43250000186,
      "d": 266.66680000000633,
      "v": 80
    },
    {
      "midi": 55,
      "hit": false,
      "t": 198666.76599999904,
      "d": 433.3335500000103,
      "v": 68
    },
    {
      "midi": 59,
      "hit": false,
      "t": 198666.76599999904,
      "d": 433.3335500000103,
      "v": 68
    },
    {
      "midi": 62,
      "hit": false,
      "t": 198666.76599999904,
      "d": 433.3335500000103,
      "v": 68
    },
    {
      "midi": 79,
      "hit": false,
      "t": 198666.76600000187,
      "d": 133.33340000000317,
      "v": 80
    },
    {
      "midi": 80,
      "hit": false,
      "t": 198833.43275000187,
      "d": 133.33340000000317,
      "v": 80
    },
    {
      "midi": 43,
      "hit": false,
      "t": 199000.09949999905,
      "d": 650.0003250000009,
      "v": 78
    },
    {
      "midi": 81,
      "hit": false,
      "t": 199000.09950000187,
      "d": 266.66680000000633,
      "v": 80
    },
    {
      "midi": 55,
      "hit": false,
      "t": 199333.43299999906,
      "d": 372.2224083333276,
      "v": 80
    },
    {
      "midi": 59,
      "hit": false,
      "t": 199333.43299999906,
      "d": 372.2224083333276,
      "v": 80
    },
    {
      "midi": 62,
      "hit": false,
      "t": 199333.43299999906,
      "d": 372.2224083333276,
      "v": 80
    },
    {
      "midi": 79,
      "hit": false,
      "t": 199333.43300000188,
      "d": 133.33340000000317,
      "v": 80
    },
    {
      "midi": 80,
      "hit": false,
      "t": 199500.0997500019,
      "d": 133.33340000000317,
      "v": 80
    },
    {
      "midi": 81,
      "hit": false,
      "t": 199666.7665000019,
      "d": 133.33340000000317,
      "v": 80
    },
    {
      "midi": 79,
      "hit": false,
      "t": 199833.4332500019,
      "d": 133.33340000000317,
      "v": 80
    },
    {
      "midi": 81,
      "hit": false,
      "t": 200000.1000000019,
      "d": 133.33340000000317,
      "v": 80
    },
    {
      "midi": 57,
      "hit": false,
      "t": 200022.32223333238,
      "d": 644.4447666666529,
      "v": 80
    },
    {
      "midi": 62,
      "hit": false,
      "t": 200022.32223333238,
      "d": 644.4447666666529,
      "v": 80
    },
    {
      "midi": 66,
      "hit": false,
      "t": 200022.32223333238,
      "d": 644.4447666666529,
      "v": 80
    },
    {
      "midi": 80,
      "hit": false,
      "t": 200166.7667500019,
      "d": 133.33340000000317,
      "v": 80
    },
    {
      "midi": 81,
      "hit": false,
      "t": 200333.4335000019,
      "d": 133.33340000000317,
      "v": 80
    },
    {
      "midi": 79,
      "hit": false,
      "t": 200500.1002500019,
      "d": 133.33340000000317,
      "v": 80
    },
    {
      "midi": 79,
      "hit": false,
      "t": 200666.7670000019,
      "d": 266.66680000000633,
      "v": 80
    },
    {
      "midi": 57,
      "hit": false,
      "t": 200688.98923333237,
      "d": 644.4447666666529,
      "v": 80
    },
    {
      "midi": 60,
      "hit": false,
      "t": 200688.98923333237,
      "d": 644.4447666666529,
      "v": 80
    },
    {
      "midi": 64,
      "hit": false,
      "t": 200688.98923333237,
      "d": 644.4447666666529,
      "v": 80
    },
    {
      "midi": 81,
      "hit": false,
      "t": 201000.10050000192,
      "d": 133.33340000000317,
      "v": 80
    },
    {
      "midi": 79,
      "hit": false,
      "t": 201166.76725000193,
      "d": 966.6671499999939,
      "v": 80
    },
    {
      "midi": 57,
      "hit": false,
      "t": 201333.43399999902,
      "d": 1333.3340000000026,
      "v": 80
    },
    {
      "midi": 60,
      "hit": false,
      "t": 201333.43399999902,
      "d": 1333.3340000000026,
      "v": 80
    },
    {
      "midi": 64,
      "hit": false,
      "t": 201333.43399999902,
      "d": 1333.3340000000026,
      "v": 80
    },
    {
      "midi": 76,
      "hit": false,
      "t": 202333.43450000192,
      "d": 133.33340000000317,
      "v": 80
    },
    {
      "midi": 79,
      "hit": false,
      "t": 202500.10125000193,
      "d": 433.3335500000103,
      "v": 80
    },
    {
      "midi": 57,
      "hit": false,
      "t": 202666.76799999902,
      "d": 433.3335500000103,
      "v": 68
    },
    {
      "midi": 60,
      "hit": false,
      "t": 202666.76799999902,
      "d": 433.3335500000103,
      "v": 68
    },
    {
      "midi": 64,
      "hit": false,
      "t": 202666.76799999902,
      "d": 433.3335500000103,
      "v": 68
    },
    {
      "midi": 45,
      "hit": false,
      "t": 203000.10149999903,
      "d": 650.0003250000009,
      "v": 78
    },
    {
      "midi": 79,
      "hit": false,
      "t": 203000.10150000194,
      "d": 133.33340000000317,
      "v": 80
    },
    {
      "midi": 81,
      "hit": false,
      "t": 203166.76825000194,
      "d": 300.0001500000071,
      "v": 80
    },
    {
      "midi": 57,
      "hit": false,
      "t": 203333.43499999904,
      "d": 372.2224083333276,
      "v": 80
    },
    {
      "midi": 60,
      "hit": false,
      "t": 203333.43499999904,
      "d": 372.2224083333276,
      "v": 80
    },
    {
      "midi": 64,
      "hit": false,
      "t": 203333.43499999904,
      "d": 372.2224083333276,
      "v": 80
    },
    {
      "midi": 81,
      "hit": false,
      "t": 203500.10175000195,
      "d": 266.66680000000633,
      "v": 80
    },
    {
      "midi": 81,
      "hit": false,
      "t": 203833.43525000196,
      "d": 133.33340000000317,
      "v": 80
    },
    {
      "midi": 55,
      "hit": false,
      "t": 204000.10199999902,
      "d": 433.3335500000103,
      "v": 68
    },
    {
      "midi": 59,
      "hit": false,
      "t": 204000.10199999902,
      "d": 433.3335500000103,
      "v": 68
    },
    {
      "midi": 62,
      "hit": false,
      "t": 204000.10199999902,
      "d": 433.3335500000103,
      "v": 68
    },
    {
      "midi": 81,
      "hit": false,
      "t": 204000.10200000196,
      "d": 133.33340000000317,
      "v": 80
    },
    {
      "midi": 84,
      "hit": false,
      "t": 204166.76875000197,
      "d": 266.66680000000633,
      "v": 80
    },
    {
      "midi": 43,
      "hit": false,
      "t": 204333.43549999903,
      "d": 650.0003250000009,
      "v": 78
    },
    {
      "midi": 81,
      "hit": false,
      "t": 204500.10225000198,
      "d": 433.3335500000103,
      "v": 80
    },
    {
      "midi": 55,
      "hit": false,
      "t": 204666.76899999904,
      "d": 372.2224083333276,
      "v": 80
    },
    {
      "midi": 59,
      "hit": false,
      "t": 204666.76899999904,
      "d": 372.2224083333276,
      "v": 80
    },
    {
      "midi": 62,
      "hit": false,
      "t": 204666.76899999904,
      "d": 372.2224083333276,
      "v": 80
    },
    {
      "midi": 81,
      "hit": false,
      "t": 205000.102500002,
      "d": 266.66680000000633,
      "v": 80
    },
    {
      "midi": 76,
      "hit": false,
      "t": 205333.436000002,
      "d": 266.66680000000633,
      "v": 80
    },
    {
      "midi": 57,
      "hit": false,
      "t": 205344.5471166657,
      "d": 1116.667225000012,
      "v": 72
    },
    {
      "midi": 62,
      "hit": false,
      "t": 205344.5471166657,
      "d": 1116.667225000012,
      "v": 72
    },
    {
      "midi": 79,
      "hit": false,
      "t": 205666.769500002,
      "d": 133.33340000000317,
      "v": 80
    },
    {
      "midi": 76,
      "hit": false,
      "t": 205833.436250002,
      "d": 133.33340000000317,
      "v": 80
    },
    {
      "midi": 79,
      "hit": false,
      "t": 206000.103000002,
      "d": 133.33340000000317,
      "v": 80
    },
    {
      "midi": 76,
      "hit": false,
      "t": 206166.76975000201,
      "d": 133.33340000000317,
      "v": 80
    },
    {
      "midi": 74,
      "hit": false,
      "t": 206333.43650000202,
      "d": 133.33340000000317,
      "v": 80
    },
    {
      "midi": 66,
      "hit": false,
      "t": 206350.10317499904,
      "d": 111.1111666666693,
      "v": 66
    },
    {
      "midi": 72,
      "hit": false,
      "t": 206500.10325000202,
      "d": 133.33340000000317,
      "v": 80
    },
    {
      "midi": 69,
      "hit": false,
      "t": 206522.32548333236,
      "d": 144.4445166666701,
      "v": 70
    },
    {
      "midi": 57,
      "hit": false,
      "t": 206666.76999999903,
      "d": 1333.3340000000026,
      "v": 80
    },
    {
      "midi": 60,
      "hit": false,
      "t": 206666.76999999903,
      "d": 1333.3340000000026,
      "v": 80
    },
    {
      "midi": 64,
      "hit": false,
      "t": 206666.76999999903,
      "d": 1333.3340000000026,
      "v": 80
    },
    {
      "midi": 72,
      "hit": false,
      "t": 206666.77000000203,
      "d": 266.66680000000633,
      "v": 80
    },
    {
      "midi": 69,
      "hit": false,
      "t": 207000.10350000203,
      "d": 266.66680000000633,
      "v": 80
    },
    {
      "midi": 69,
      "hit": false,
      "t": 207333.43700000204,
      "d": 266.66680000000633,
      "v": 80
    },
    {
      "midi": 69,
      "hit": false,
      "t": 207666.77050000205,
      "d": 133.33340000000317,
      "v": 80
    },
    {
      "midi": 69,
      "hit": false,
      "t": 207833.43725000205,
      "d": 133.33340000000317,
      "v": 80
    },
    {
      "midi": 57,
      "hit": false,
      "t": 208000.10399999903,
      "d": 1333.3340000000026,
      "v": 80
    },
    {
      "midi": 60,
      "hit": false,
      "t": 208000.10399999903,
      "d": 1333.3340000000026,
      "v": 80
    },
    {
      "midi": 64,
      "hit": false,
      "t": 208000.10399999903,
      "d": 1333.3340000000026,
      "v": 80
    },
    {
      "midi": 69,
      "hit": false,
      "t": 208000.10400000206,
      "d": 266.66680000000633,
      "v": 80
    },
    {
      "midi": 57,
      "hit": false,
      "t": 208333.43750000207,
      "d": 266.66680000000633,
      "v": 80
    },
    {
      "midi": 57,
      "hit": false,
      "t": 208666.77100000207,
      "d": 133.33340000000317,
      "v": 80
    },
    {
      "midi": 69,
      "hit": false,
      "t": 208666.77100000207,
      "d": 133.33340000000317,
      "v": 80
    },
    {
      "midi": 57,
      "hit": false,
      "t": 208833.43775000208,
      "d": 133.33340000000317,
      "v": 80
    },
    {
      "midi": 69,
      "hit": false,
      "t": 208833.43775000208,
      "d": 133.33340000000317,
      "v": 80
    },
    {
      "midi": 57,
      "hit": false,
      "t": 209000.10450000208,
      "d": 266.66680000000633,
      "v": 80
    },
    {
      "midi": 69,
      "hit": false,
      "t": 209000.10450000208,
      "d": 266.66680000000633,
      "v": 80
    },
    {
      "midi": 55,
      "hit": false,
      "t": 209333.43799999903,
      "d": 1333.3340000000026,
      "v": 80
    },
    {
      "midi": 59,
      "hit": false,
      "t": 209333.43799999903,
      "d": 1333.3340000000026,
      "v": 80
    },
    {
      "midi": 62,
      "hit": false,
      "t": 209333.43799999903,
      "d": 1333.3340000000026,
      "v": 80
    },
    {
      "midi": 57,
      "hit": false,
      "t": 209333.4380000021,
      "d": 266.66680000000633,
      "v": 80
    },
    {
      "midi": 69,
      "hit": false,
      "t": 209333.4380000021,
      "d": 266.66680000000633,
      "v": 80
    },
    {
      "midi": 57,
      "hit": false,
      "t": 209666.7715000021,
      "d": 266.66680000000633,
      "v": 80
    },
    {
      "midi": 69,
      "hit": false,
      "t": 209666.7715000021,
      "d": 266.66680000000633,
      "v": 80
    },
    {
      "midi": 57,
      "hit": false,
      "t": 210000.1050000021,
      "d": 533.3336000000127,
      "v": 80
    },
    {
      "midi": 69,
      "hit": false,
      "t": 210000.1050000021,
      "d": 533.3336000000127,
      "v": 80
    },
    {
      "midi": 57,
      "hit": false,
      "t": 210666.77199999904,
      "d": 433.3335500000103,
      "v": 68
    },
    {
      "midi": 62,
      "hit": false,
      "t": 210666.77199999904,
      "d": 433.3335500000103,
      "v": 68
    },
    {
      "midi": 66,
      "hit": false,
      "t": 210666.77199999904,
      "d": 433.3335500000103,
      "v": 68
    },
    {
      "midi": 57,
      "hit": false,
      "t": 210666.77200000212,
      "d": 266.66680000000633,
      "v": 80
    },
    {
      "midi": 69,
      "hit": false,
      "t": 210666.77200000212,
      "d": 266.66680000000633,
      "v": 80
    },
    {
      "midi": 50,
      "hit": false,
      "t": 211000.10549999904,
      "d": 650.0003250000009,
      "v": 78
    },
    {
      "midi": 57,
      "hit": false,
      "t": 211000.10550000213,
      "d": 266.66680000000633,
      "v": 80
    },
    {
      "midi": 69,
      "hit": false,
      "t": 211000.10550000213,
      "d": 266.66680000000633,
      "v": 80
    },
    {
      "midi": 57,
      "hit": false,
      "t": 211333.43899999905,
      "d": 372.2224083333276,
      "v": 80
    },
    {
      "midi": 62,
      "hit": false,
      "t": 211333.43899999905,
      "d": 372.2224083333276,
      "v": 80
    },
    {
      "midi": 66,
      "hit": false,
      "t": 211333.43899999905,
      "d": 372.2224083333276,
      "v": 80
    },
    {
      "midi": 57,
      "hit": false,
      "t": 211333.43900000214,
      "d": 133.33340000000317,
      "v": 80
    },
    {
      "midi": 69,
      "hit": false,
      "t": 211333.43900000214,
      "d": 133.33340000000317,
      "v": 80
    },
    {
      "midi": 57,
      "hit": false,
      "t": 211500.10575000214,
      "d": 133.33340000000317,
      "v": 80
    },
    {
      "midi": 69,
      "hit": false,
      "t": 211500.10575000214,
      "d": 133.33340000000317,
      "v": 80
    },
    {
      "midi": 72,
      "hit": false,
      "t": 211666.77250000215,
      "d": 600.0003000000142,
      "v": 80
    },
    {
      "midi": 57,
      "hit": false,
      "t": 212011.2171166657,
      "d": 1116.667225000012,
      "v": 72
    },
    {
      "midi": 64,
      "hit": false,
      "t": 212011.2171166657,
      "d": 1116.667225000012,
      "v": 72
    },
    {
      "midi": 69,
      "hit": false,
      "t": 212333.43950000216,
      "d": 266.66680000000633,
      "v": 80
    },
    {
      "midi": 69,
      "hit": false,
      "t": 212666.77300000217,
      "d": 133.33340000000317,
      "v": 80
    },
    {
      "midi": 69,
      "hit": false,
      "t": 212833.43975000217,
      "d": 133.33340000000317,
      "v": 80
    },
    {
      "midi": 67,
      "hit": false,
      "t": 213000.10650000218,
      "d": 133.33340000000317,
      "v": 80
    },
    {
      "midi": 60,
      "hit": false,
      "t": 213016.77317499905,
      "d": 111.1111666666693,
      "v": 66
    },
    {
      "midi": 69,
      "hit": false,
      "t": 213166.77325000218,
      "d": 133.33340000000317,
      "v": 80
    },
    {
      "midi": 64,
      "hit": false,
      "t": 213188.99548333237,
      "d": 144.4445166666701,
      "v": 70
    },
    {
      "midi": 60,
      "hit": false,
      "t": 213333.43999999904,
      "d": 3538.8906583333446,
      "v": 82
    },
    {
      "midi": 69,
      "hit": false,
      "t": 213333.43999999904,
      "d": 3538.8906583333446,
      "v": 82
    },
    {
      "midi": 76,
      "hit": false,
      "t": 213333.43999999904,
      "d": 3538.8906583333446,
      "v": 82
    },
    {
      "midi": 57,
      "hit": false,
      "t": 213333.44000000219,
      "d": 1066.6671999999962,
      "v": 80
    },
    {
      "midi": 57,
      "hit": false,
      "t": 214666.7740000022,
      "d": 133.33340000000317,
      "v": 80
    },
    {
      "midi": 67,
      "hit": false,
      "t": 214666.7740000022,
      "d": 133.33340000000317,
      "v": 80
    },
    {
      "midi": 69,
      "hit": false,
      "t": 214833.4407500022,
      "d": 400.0002000000095,
      "v": 80
    },
    {
      "midi": 57,
      "hit": false,
      "t": 215333.4410000022,
      "d": 133.33340000000317,
      "v": 80
    },
    {
      "midi": 67,
      "hit": false,
      "t": 215333.4410000022,
      "d": 133.33340000000317,
      "v": 80
    },
    {
      "midi": 69,
      "hit": false,
      "t": 215500.1077500022,
      "d": 400.0002000000095,
      "v": 80
    },
    {
      "midi": 57,
      "hit": false,
      "t": 216000.10800000222,
      "d": 133.33340000000317,
      "v": 80
    },
    {
      "midi": 67,
      "hit": false,
      "t": 216000.10800000222,
      "d": 133.33340000000317,
      "v": 80
    },
    {
      "midi": 69,
      "hit": false,
      "t": 216166.77475000222,
      "d": 133.33340000000317,
      "v": 80
    },
    {
      "midi": 57,
      "hit": false,
      "t": 216333.44150000223,
      "d": 133.33340000000317,
      "v": 80
    },
    {
      "midi": 67,
      "hit": false,
      "t": 216333.44150000223,
      "d": 133.33340000000317,
      "v": 80
    },
    {
      "midi": 57,
      "hit": false,
      "t": 216500.10825000223,
      "d": 133.33340000000317,
      "v": 80
    },
    {
      "midi": 67,
      "hit": false,
      "t": 216500.10825000223,
      "d": 133.33340000000317,
      "v": 80
    },
    {
      "midi": 69,
      "hit": false,
      "t": 216666.77500000224,
      "d": 133.33340000000317,
      "v": 80
    },
    {
      "midi": 64,
      "hit": false,
      "t": 216833.44175000224,
      "d": 133.33340000000317,
      "v": 80
    },
    {
      "midi": 45,
      "hit": false,
      "t": 217000.10849999904,
      "d": 355.5557333333418,
      "v": 59
    },
    {
      "midi": 67,
      "hit": false,
      "t": 217000.10850000224,
      "d": 133.33340000000317,
      "v": 80
    },
    {
      "midi": 60,
      "hit": false,
      "t": 217166.77525000225,
      "d": 133.33340000000317,
      "v": 80
    },
    {
      "midi": 60,
      "hit": false,
      "t": 217333.44199999905,
      "d": 661.1114416666678,
      "v": 68
    },
    {
      "midi": 69,
      "hit": false,
      "t": 217333.44199999905,
      "d": 661.1114416666678,
      "v": 68
    },
    {
      "midi": 76,
      "hit": false,
      "t": 217333.44199999905,
      "d": 661.1114416666678,
      "v": 68
    },
    {
      "midi": 67,
      "hit": false,
      "t": 217333.44200000225,
      "d": 133.33340000000317,
      "v": 80
    },
    {
      "midi": 69,
      "hit": false,
      "t": 217500.10875000225,
      "d": 133.33340000000317,
      "v": 80
    },
    {
      "midi": 69,
      "hit": false,
      "t": 217666.77550000226,
      "d": 266.66680000000633,
      "v": 80
    },
    {
      "midi": 69,
      "hit": false,
      "t": 218000.10900000227,
      "d": 266.66680000000633,
      "v": 80
    },
    {
      "midi": 72,
      "hit": false,
      "t": 218333.44250000227,
      "d": 133.33340000000317,
      "v": 80
    },
    {
      "midi": 69,
      "hit": false,
      "t": 218500.10925000228,
      "d": 133.33340000000317,
      "v": 80
    }
  ]
}