{
  "jsonPath": "Rock/Album Rock/Eddie Money/life-for-the-talking.json",
  "path": "Rock\\Album Rock\\Eddie Money\\Life For The Talking.mid",
  "name": "Life For The Talking",
  "difficulty": "Advanced",
  "bpm": 80,
  "notes": [
    {
      "midi": 63,
      "hit": false,
      "t": 10531.25,
      "d": 93.75,
      "v": 115
    },
    {
      "midi": 75,
      "hit": false,
      "t": 10531.25,
      "d": 93.75,
      "v": 120
    },
    {
      "midi": 51,
      "hit": false,
      "t": 10562.5,
      "d": 62.5,
      "v": 126
    },
    {
      "midi": 51,
      "hit": false,
      "t": 10718.75,
      "d": 468.75,
      "v": 117
    },
    {
      "midi": 63,
      "hit": false,
      "t": 10718.75,
      "d": 468.75,
      "v": 117
    },
    {
      "midi": 75,
      "hit": false,
      "t": 10718.75,
      "d": 468.75,
      "v": 115
    },
    {
      "midi": 50,
      "hit": false,
      "t": 11281.25,
      "d": 718.75,
      "v": 100
    },
    {
      "midi": 62,
      "hit": false,
      "t": 11312.5,
      "d": 531.25,
      "v": 126
    },
    {
      "midi": 74,
      "hit": false,
      "t": 11312.5,
      "d": 531.25,
      "v": 117
    },
    {
      "midi": 46,
      "hit": false,
      "t": 12031.25,
      "d": 4312.5,
      "v": 41
    },
    {
      "midi": 58,
      "hit": false,
      "t": 12031.25,
      "d": 4312.5,
      "v": 127
    },
    {
      "midi": 70,
      "hit": false,
      "t": 12031.25,
      "d": 4312.5,
      "v": 123
    },
    {
      "midi": 58,
      "hit": false,
      "t": 16500,
      "d": 562.5,
      "v": 117
    },
    {
      "midi": 70,
      "hit": false,
      "t": 16500,
      "d": 562.5,
      "v": 120
    },
    {
      "midi": 46,
      "hit": false,
      "t": 16531.25,
      "d": 812.5,
      "v": 109
    },
    {
      "midi": 53,
      "hit": false,
      "t": 17312.5,
      "d": 468.75,
      "v": 126
    },
    {
      "midi": 65,
      "hit": false,
      "t": 17312.5,
      "d": 468.75,
      "v": 123
    },
    {
      "midi": 41,
      "hit": false,
      "t": 17312.5,
      "d": 656.25,
      "v": 71
    },
    {
      "midi": 55,
      "hit": false,
      "t": 17968.75,
      "d": 3812.5,
      "v": 115
    },
    {
      "midi": 43,
      "hit": false,
      "t": 17968.75,
      "d": 4593.75,
      "v": 82
    },
    {
      "midi": 67,
      "hit": false,
      "t": 18000,
      "d": 3781.25,
      "v": 123
    },
    {
      "midi": 63,
      "hit": false,
      "t": 22531.25,
      "d": 625,
      "v": 117
    },
    {
      "midi": 75,
      "hit": false,
      "t": 22531.25,
      "d": 625,
      "v": 126
    },
    {
      "midi": 51,
      "hit": false,
      "t": 22531.25,
      "d": 843.75,
      "v": 100
    },
    {
      "midi": 62,
      "hit": false,
      "t": 23312.5,
      "d": 500,
      "v": 123
    },
    {
      "midi": 74,
      "hit": false,
      "t": 23312.5,
      "d": 500,
      "v": 117
    },
    {
      "midi": 50,
      "hit": false,
      "t": 23312.5,
      "d": 750,
      "v": 82
    },
    {
      "midi": 46,
      "hit": false,
      "t": 24031.25,
      "d": 4312.5,
      "v": 94
    },
    {
      "midi": 58,
      "hit": false,
      "t": 24031.25,
      "d": 4312.5,
      "v": 127
    },
    {
      "midi": 70,
      "hit": false,
      "t": 24031.25,
      "d": 4312.5,
      "v": 126
    },
    {
      "midi": 58,
      "hit": false,
      "t": 28500,
      "d": 593.75,
      "v": 115
    },
    {
      "midi": 70,
      "hit": false,
      "t": 28500,
      "d": 593.75,
      "v": 123
    },
    {
      "midi": 46,
      "hit": false,
      "t": 28500,
      "d": 843.75,
      "v": 117
    },
    {
      "midi": 53,
      "hit": false,
      "t": 29312.5,
      "d": 31.25,
      "v": 123
    },
    {
      "midi": 65,
      "hit": false,
      "t": 29312.5,
      "d": 531.25,
      "v": 117
    },
    {
      "midi": 41,
      "hit": false,
      "t": 29312.5,
      "d": 687.5,
      "v": 75
    },
    {
      "midi": 43,
      "hit": false,
      "t": 30000,
      "d": 6000,
      "v": 78
    },
    {
      "midi": 55,
      "hit": false,
      "t": 30000,
      "d": 6000,
      "v": 115
    },
    {
      "midi": 67,
      "hit": false,
      "t": 30031.25,
      "d": 5968.75,
      "v": 126
    },
    {
      "midi": 36,
      "hit": false,
      "t": 162031.25,
      "d": 2156.25,
      "v": 126
    },
    {
      "midi": 48,
      "hit": false,
      "t": 162031.25,
      "d": 2156.25,
      "v": 117
    },
    {
      "midi": 72,
      "hit": false,
      "t": 163500,
      "d": 781.25,
      "v": 127
    },
    {
      "midi": 74,
      "hit": false,
      "t": 163500,
      "d": 781.25,
      "v": 127
    },
    {
      "midi": 67,
      "hit": false,
      "t": 163500,
      "d": 1281.25,
      "v": 127
    },
    {
      "midi": 70,
      "hit": false,
      "t": 164281.25,
      "d": 562.5,
      "v": 127
    },
    {
      "midi": 70,
      "hit": false,
      "t": 165000,
      "d": 812.5,
      "v": 127
    },
    {
      "midi": 72,
      "hit": false,
      "t": 165000,
      "d": 937.5,
      "v": 127
    },
    {
      "midi": 46,
      "hit": false,
      "t": 165000,
      "d": 2562.5,
      "v": 115
    },
    {
      "midi": 58,
      "hit": false,
      "t": 165000,
      "d": 2562.5,
      "v": 97
    },
    {
      "midi": 65,
      "hit": false,
      "t": 165000,
      "d": 2875,
      "v": 123
    },
    {
      "midi": 70,
      "hit": false,
      "t": 165937.5,
      "d": 187.5,
      "v": 112
    },
    {
      "midi": 75,
      "hit": false,
      "t": 166125,
      "d": 156.25,
      "v": 120
    },
    {
      "midi": 74,
      "hit": false,
      "t": 166343.75,
      "d": 1218.75,
      "v": 115
    },
    {
      "midi": 70,
      "hit": false,
      "t": 167625,
      "d": 250,
      "v": 120
    },
    {
      "midi": 72,
      "hit": false,
      "t": 167812.5,
      "d": 62.5,
      "v": 112
    },
    {
      "midi": 74,
      "hit": false,
      "t": 168000,
      "d": 312.5,
      "v": 123
    },
    {
      "midi": 68,
      "hit": false,
      "t": 168000,
      "d": 500,
      "v": 123
    },
    {
      "midi": 62,
      "hit": false,
      "t": 168031.25,
      "d": 406.25,
      "v": 106
    },
    {
      "midi": 63,
      "hit": false,
      "t": 168031.25,
      "d": 406.25,
      "v": 123
    },
    {
      "midi": 51,
      "hit": false,
      "t": 168031.25,
      "d": 2312.5,
      "v": 109
    },
    {
      "midi": 56,
      "hit": false,
      "t": 168031.25,
      "d": 2312.5,
      "v": 97
    },
    {
      "midi": 58,
      "hit": false,
      "t": 168031.25,
      "d": 2312.5,
      "v": 102
    },
    {
      "midi": 75,
      "hit": false,
      "t": 168375,
      "d": 125,
      "v": 123
    },
    {
      "midi": 74,
      "hit": false,
      "t": 168406.25,
      "d": 31.25,
      "v": 67
    },
    {
      "midi": 60,
      "hit": false,
      "t": 168593.75,
      "d": 1750,
      "v": 100
    },
    {
      "midi": 68,
      "hit": false,
      "t": 168593.75,
      "d": 1937.5,
      "v": 120
    },
    {
      "midi": 63,
      "hit": false,
      "t": 168593.75,
      "d": 2062.5,
      "v": 102
    },
    {
      "midi": 72,
      "hit": false,
      "t": 168593.75,
      "d": 2062.5,
      "v": 126
    },
    {
      "midi": 70,
      "hit": false,
      "t": 170625,
      "d": 218.75,
      "v": 127
    },
    {
      "midi": 72,
      "hit": false,
      "t": 170812.5,
      "d": 125,
      "v": 104
    },
    {
      "midi": 48,
      "hit": false,
      "t": 171000,
      "d": 2500,
      "v": 94
    },
    {
      "midi": 51,
      "hit": false,
      "t": 171000,
      "d": 2500,
      "v": 97
    },
    {
      "midi": 55,
      "hit": false,
      "t": 171000,
      "d": 2500,
      "v": 100
    },
    {
      "midi": 65,
      "hit": false,
      "t": 171000,
      "d": 2562.5,
      "v": 117
    },
    {
      "midi": 60,
      "hit": false,
      "t": 171031.25,
      "d": 2343.75,
      "v": 112
    },
    {
      "midi": 63,
      "hit": false,
      "t": 171031.25,
      "d": 2406.25,
      "v": 117
    },
    {
      "midi": 63,
      "hit": false,
      "t": 173625,
      "d": 218.75,
      "v": 127
    },
    {
      "midi": 65,
      "hit": false,
      "t": 173812.5,
      "d": 218.75,
      "v": 117
    },
    {
      "midi": 58,
      "hit": false,
      "t": 174000,
      "d": 687.5,
      "v": 92
    },
    {
      "midi": 70,
      "hit": false,
      "t": 174031.25,
      "d": 468.75,
      "v": 117
    },
    {
      "midi": 55,
      "hit": false,
      "t": 174031.25,
      "d": 656.25,
      "v": 92
    },
    {
      "midi": 51,
      "hit": false,
      "t": 174031.25,
      "d": 2625,
      "v": 97
    },
    {
      "midi": 70,
      "hit": false,
      "t": 174781.25,
      "d": 312.5,
      "v": 127
    },
    {
      "midi": 58,
      "hit": false,
      "t": 174781.25,
      "d": 5062.5,
      "v": 97
    },
    {
      "midi": 75,
      "hit": false,
      "t": 175125,
      "d": 156.25,
      "v": 120
    },
    {
      "midi": 82,
      "hit": false,
      "t": 175343.75,
      "d": 187.5,
      "v": 112
    },
    {
      "midi": 65,
      "hit": false,
      "t": 175531.25,
      "d": 531.25,
      "v": 106
    },
    {
      "midi": 77,
      "hit": false,
      "t": 175531.25,
      "d": 687.5,
      "v": 123
    },
    {
      "midi": 63,
      "hit": false,
      "t": 176250,
      "d": 406.25,
      "v": 126
    },
    {
      "midi": 82,
      "hit": false,
      "t": 176250,
      "d": 406.25,
      "v": 126
    },
    {
      "midi": 75,
      "hit": false,
      "t": 176625,
      "d": 156.25,
      "v": 120
    },
    {
      "midi": 77,
      "hit": false,
      "t": 176812.5,
      "d": 125,
      "v": 109
    },
    {
      "midi": 53,
      "hit": false,
      "t": 177000,
      "d": 2718.75,
      "v": 97
    },
    {
      "midi": 65,
      "hit": false,
      "t": 177031.25,
      "d": 2406.25,
      "v": 126
    },
    {
      "midi": 62,
      "hit": false,
      "t": 177031.25,
      "d": 2750,
      "v": 104
    },
    {
      "midi": 74,
      "hit": false,
      "t": 177375,
      "d": 281.25,
      "v": 112
    },
    {
      "midi": 72,
      "hit": false,
      "t": 177593.75,
      "d": 343.75,
      "v": 109
    },
    {
      "midi": 74,
      "hit": false,
      "t": 177937.5,
      "d": 187.5,
      "v": 80
    },
    {
      "midi": 70,
      "hit": false,
      "t": 178125,
      "d": 1312.5,
      "v": 100
    },
    {
      "midi": 65,
      "hit": false,
      "t": 179625,
      "d": 93.75,
      "v": 127
    },
    {
      "midi": 70,
      "hit": false,
      "t": 179625,
      "d": 93.75,
      "v": 127
    },
    {
      "midi": 65,
      "hit": false,
      "t": 179812.5,
      "d": 31.25,
      "v": 67
    },
    {
      "midi": 70,
      "hit": false,
      "t": 179812.5,
      "d": 31.25,
      "v": 80
    },
    {
      "midi": 72,
      "hit": false,
      "t": 179812.5,
      "d": 93.75,
      "v": 120
    },
    {
      "midi": 74,
      "hit": false,
      "t": 180000,
      "d": 281.25,
      "v": 126
    },
    {
      "midi": 62,
      "hit": false,
      "t": 180000,
      "d": 375,
      "v": 120
    },
    {
      "midi": 63,
      "hit": false,
      "t": 180000,
      "d": 437.5,
      "v": 127
    },
    {
      "midi": 68,
      "hit": false,
      "t": 180000,
      "d": 437.5,
      "v": 123
    },
    {
      "midi": 51,
      "hit": false,
      "t": 180000,
      "d": 2281.25,
      "v": 120
    },
    {
      "midi": 56,
      "hit": false,
      "t": 180000,
      "d": 2281.25,
      "v": 106
    },
    {
      "midi": 58,
      "hit": false,
      "t": 180000,
      "d": 2281.25,
      "v": 120
    },
    {
      "midi": 75,
      "hit": false,
      "t": 180343.75,
      "d": 93.75,
      "v": 123
    },
    {
      "midi": 74,
      "hit": false,
      "t": 180375,
      "d": 6.25,
      "v": 65
    },
    {
      "midi": 60,
      "hit": false,
      "t": 180562.5,
      "d": 1718.75,
      "v": 112
    },
    {
      "midi": 63,
      "hit": false,
      "t": 180562.5,
      "d": 1718.75,
      "v": 112
    },
    {
      "midi": 68,
      "hit": false,
      "t": 180562.5,
      "d": 1718.75,
      "v": 126
    },
    {
      "midi": 72,
      "hit": false,
      "t": 180562.5,
      "d": 1718.75,
      "v": 126
    },
    {
      "midi": 60,
      "hit": false,
      "t": 182812.5,
      "d": 156.25,
      "v": 80
    },
    {
      "midi": 63,
      "hit": false,
      "t": 182843.75,
      "d": 125,
      "v": 102
    },
    {
      "midi": 65,
      "hit": false,
      "t": 182937.5,
      "d": 93.75,
      "v": 80
    },
    {
      "midi": 67,
      "hit": false,
      "t": 182968.75,
      "d": 156.25,
      "v": 117
    },
    {
      "midi": 55,
      "hit": false,
      "t": 182968.75,
      "d": 968.75,
      "v": 97
    },
    {
      "midi": 48,
      "hit": false,
      "t": 182968.75,
      "d": 1062.5,
      "v": 94
    },
    {
      "midi": 51,
      "hit": false,
      "t": 182968.75,
      "d": 1062.5,
      "v": 97
    },
    {
      "midi": 65,
      "hit": false,
      "t": 183156.25,
      "d": 156.25,
      "v": 100
    },
    {
      "midi": 63,
      "hit": false,
      "t": 183375,
      "d": 125,
      "v": 115
    },
    {
      "midi": 65,
      "hit": false,
      "t": 183562.5,
      "d": 375,
      "v": 117
    },
    {
      "midi": 63,
      "hit": false,
      "t": 183937.5,
      "d": 218.75,
      "v": 127
    },
    {
      "midi": 65,
      "hit": false,
      "t": 184125,
      "d": 1562.5,
      "v": 123
    },
    {
      "midi": 46,
      "hit": false,
      "t": 184500,
      "d": 1062.5,
      "v": 109
    },
    {
      "midi": 50,
      "hit": false,
      "t": 184500,
      "d": 1062.5,
      "v": 106
    },
    {
      "midi": 53,
      "hit": false,
      "t": 184500,
      "d": 1062.5,
      "v": 112
    },
    {
      "midi": 46,
      "hit": false,
      "t": 186000,
      "d": 812.5,
      "v": 97
    },
    {
      "midi": 51,
      "hit": false,
      "t": 186000,
      "d": 812.5,
      "v": 97
    },
    {
      "midi": 55,
      "hit": false,
      "t": 186000,
      "d": 812.5,
      "v": 97
    },
    {
      "midi": 63,
      "hit": false,
      "t": 186000,
      "d": 875,
      "v": 120
    }
  ]
}