{
  "jsonPath": "Rock/Album Rock/Eddie Money/ticket-to-ride.json",
  "path": "Rock\\Album Rock\\Eddie Money\\Ticket To Ride.mid",
  "name": "Ticket To Ride",
  "difficulty": "Advanced",
  "bpm": 120,
  "notes": [
    {
      "midi": 45,
      "hit": false,
      "t": 2000,
      "d": 600,
      "v": 93
    },
    {
      "midi": 64,
      "hit": false,
      "t": 2500,
      "d": 362.5,
      "v": 72
    },
    {
      "midi": 57,
      "hit": false,
      "t": 2500,
      "d": 375,
      "v": 78
    },
    {
      "midi": 61,
      "hit": false,
      "t": 2500,
      "d": 383.3333333333335,
      "v": 89
    },
    {
      "midi": 52,
      "hit": false,
      "t": 2883.3333333333335,
      "d": 66.66666666666652,
      "v": 91
    },
    {
      "midi": 64,
      "hit": false,
      "t": 3000,
      "d": 129.16666666666652,
      "v": 82
    },
    {
      "midi": 57,
      "hit": false,
      "t": 3000,
      "d": 137.5,
      "v": 84
    },
    {
      "midi": 61,
      "hit": false,
      "t": 3000,
      "d": 141.66666666666652,
      "v": 89
    },
    {
      "midi": 57,
      "hit": false,
      "t": 3250,
      "d": 437.5,
      "v": 91
    },
    {
      "midi": 61,
      "hit": false,
      "t": 3250,
      "d": 441.6666666666665,
      "v": 93
    },
    {
      "midi": 64,
      "hit": false,
      "t": 3250,
      "d": 441.6666666666665,
      "v": 86
    },
    {
      "midi": 52,
      "hit": false,
      "t": 3750,
      "d": 170.83333333333348,
      "v": 97
    },
    {
      "midi": 61,
      "hit": false,
      "t": 3750,
      "d": 229.16666666666697,
      "v": 106
    },
    {
      "midi": 57,
      "hit": false,
      "t": 3750,
      "d": 250.00000000000045,
      "v": 99
    },
    {
      "midi": 64,
      "hit": false,
      "t": 3750,
      "d": 250.00000000000045,
      "v": 93
    },
    {
      "midi": 45,
      "hit": false,
      "t": 4000.0000000000005,
      "d": 654.1666666666665,
      "v": 95
    },
    {
      "midi": 63,
      "hit": false,
      "t": 4500,
      "d": 62.5,
      "v": 56
    },
    {
      "midi": 57,
      "hit": false,
      "t": 4500,
      "d": 391.66666666666697,
      "v": 91
    },
    {
      "midi": 64,
      "hit": false,
      "t": 4500,
      "d": 400,
      "v": 78
    },
    {
      "midi": 61,
      "hit": false,
      "t": 4500,
      "d": 404.16666666666697,
      "v": 95
    },
    {
      "midi": 52,
      "hit": false,
      "t": 4904.166666666667,
      "d": 79.16666666666697,
      "v": 102
    },
    {
      "midi": 57,
      "hit": false,
      "t": 5000.000000000001,
      "d": 116.66666666666697,
      "v": 86
    },
    {
      "midi": 61,
      "hit": false,
      "t": 5000.000000000001,
      "d": 133.33333333333394,
      "v": 95
    },
    {
      "midi": 64,
      "hit": false,
      "t": 5000.000000000001,
      "d": 133.33333333333394,
      "v": 91
    },
    {
      "midi": 64,
      "hit": false,
      "t": 5250.000000000002,
      "d": 333.33333333333303,
      "v": 93
    },
    {
      "midi": 57,
      "hit": false,
      "t": 5250.000000000002,
      "d": 350,
      "v": 97
    },
    {
      "midi": 61,
      "hit": false,
      "t": 5250.000000000002,
      "d": 362.5,
      "v": 106
    },
    {
      "midi": 57,
      "hit": false,
      "t": 5750.000000000002,
      "d": 162.5,
      "v": 84
    },
    {
      "midi": 52,
      "hit": false,
      "t": 5750.000000000002,
      "d": 166.66666666666697,
      "v": 104
    },
    {
      "midi": 61,
      "hit": false,
      "t": 5750.000000000002,
      "d": 166.66666666666697,
      "v": 97
    },
    {
      "midi": 64,
      "hit": false,
      "t": 5750.000000000002,
      "d": 166.66666666666697,
      "v": 89
    },
    {
      "midi": 45,
      "hit": false,
      "t": 6000.000000000002,
      "d": 600,
      "v": 93
    },
    {
      "midi": 64,
      "hit": false,
      "t": 6500.000000000002,
      "d": 362.5,
      "v": 72
    },
    {
      "midi": 57,
      "hit": false,
      "t": 6500.000000000002,
      "d": 375,
      "v": 78
    },
    {
      "midi": 61,
      "hit": false,
      "t": 6500.000000000002,
      "d": 383.33333333333303,
      "v": 89
    },
    {
      "midi": 52,
      "hit": false,
      "t": 6883.333333333335,
      "d": 66.66666666666697,
      "v": 91
    },
    {
      "midi": 64,
      "hit": false,
      "t": 7000.000000000002,
      "d": 129.16666666666697,
      "v": 82
    },
    {
      "midi": 57,
      "hit": false,
      "t": 7000.000000000002,
      "d": 137.5,
      "v": 84
    },
    {
      "midi": 61,
      "hit": false,
      "t": 7000.000000000002,
      "d": 141.66666666666697,
      "v": 89
    },
    {
      "midi": 57,
      "hit": false,
      "t": 7250.000000000002,
      "d": 437.5,
      "v": 91
    },
    {
      "midi": 61,
      "hit": false,
      "t": 7250.000000000002,
      "d": 441.66666666666697,
      "v": 93
    },
    {
      "midi": 64,
      "hit": false,
      "t": 7250.000000000002,
      "d": 441.66666666666697,
      "v": 86
    },
    {
      "midi": 52,
      "hit": false,
      "t": 7750.000000000002,
      "d": 170.83333333333303,
      "v": 97
    },
    {
      "midi": 61,
      "hit": false,
      "t": 7750.000000000002,
      "d": 229.16666666666606,
      "v": 106
    },
    {
      "midi": 57,
      "hit": false,
      "t": 7750.000000000002,
      "d": 249.9999999999991,
      "v": 99
    },
    {
      "midi": 64,
      "hit": false,
      "t": 7750.000000000002,
      "d": 249.9999999999991,
      "v": 93
    },
    {
      "midi": 45,
      "hit": false,
      "t": 8000.000000000001,
      "d": 654.1666666666652,
      "v": 95
    },
    {
      "midi": 63,
      "hit": false,
      "t": 8500,
      "d": 62.5,
      "v": 56
    },
    {
      "midi": 57,
      "hit": false,
      "t": 8500,
      "d": 391.66666666666606,
      "v": 91
    },
    {
      "midi": 64,
      "hit": false,
      "t": 8500,
      "d": 400,
      "v": 78
    },
    {
      "midi": 61,
      "hit": false,
      "t": 8500,
      "d": 404.16666666666606,
      "v": 95
    },
    {
      "midi": 52,
      "hit": false,
      "t": 8904.166666666666,
      "d": 79.16666666666606,
      "v": 102
    },
    {
      "midi": 57,
      "hit": false,
      "t": 8999.999999999998,
      "d": 116.66666666666606,
      "v": 86
    },
    {
      "midi": 61,
      "hit": false,
      "t": 8999.999999999998,
      "d": 133.33333333333212,
      "v": 95
    },
    {
      "midi": 64,
      "hit": false,
      "t": 8999.999999999998,
      "d": 133.33333333333212,
      "v": 91
    },
    {
      "midi": 64,
      "hit": false,
      "t": 9249.999999999996,
      "d": 333.33333333333394,
      "v": 93
    },
    {
      "midi": 57,
      "hit": false,
      "t": 9249.999999999996,
      "d": 350,
      "v": 97
    },
    {
      "midi": 61,
      "hit": false,
      "t": 9249.999999999996,
      "d": 362.5,
      "v": 106
    },
    {
      "midi": 57,
      "hit": false,
      "t": 9749.999999999996,
      "d": 162.5,
      "v": 84
    },
    {
      "midi": 52,
      "hit": false,
      "t": 9749.999999999996,
      "d": 166.66666666666606,
      "v": 104
    },
    {
      "midi": 61,
      "hit": false,
      "t": 9749.999999999996,
      "d": 166.66666666666606,
      "v": 97
    },
    {
      "midi": 64,
      "hit": false,
      "t": 9749.999999999996,
      "d": 166.66666666666606,
      "v": 89
    },
    {
      "midi": 45,
      "hit": false,
      "t": 9999.999999999996,
      "d": 600,
      "v": 93
    },
    {
      "midi": 64,
      "hit": false,
      "t": 10499.999999999996,
      "d": 362.5,
      "v": 72
    },
    {
      "midi": 57,
      "hit": false,
      "t": 10499.999999999996,
      "d": 375,
      "v": 78
    },
    {
      "midi": 61,
      "hit": false,
      "t": 10499.999999999996,
      "d": 383.33333333333394,
      "v": 89
    },
    {
      "midi": 52,
      "hit": false,
      "t": 10883.33333333333,
      "d": 66.66666666666606,
      "v": 91
    },
    {
      "midi": 64,
      "hit": false,
      "t": 10999.999999999996,
      "d": 129.16666666666606,
      "v": 82
    },
    {
      "midi": 57,
      "hit": false,
      "t": 10999.999999999996,
      "d": 137.5,
      "v": 84
    },
    {
      "midi": 61,
      "hit": false,
      "t": 10999.999999999996,
      "d": 141.66666666666606,
      "v": 89
    },
    {
      "midi": 57,
      "hit": false,
      "t": 11249.999999999996,
      "d": 437.5,
      "v": 91
    },
    {
      "midi": 61,
      "hit": false,
      "t": 11249.999999999996,
      "d": 441.66666666666606,
      "v": 93
    },
    {
      "midi": 64,
      "hit": false,
      "t": 11249.999999999996,
      "d": 441.66666666666606,
      "v": 86
    },
    {
      "midi": 52,
      "hit": false,
      "t": 11749.999999999996,
      "d": 170.83333333333394,
      "v": 97
    },
    {
      "midi": 61,
      "hit": false,
      "t": 11749.999999999996,
      "d": 229.16666666666788,
      "v": 106
    },
    {
      "midi": 57,
      "hit": false,
      "t": 11749.999999999996,
      "d": 250.00000000000182,
      "v": 99
    },
    {
      "midi": 64,
      "hit": false,
      "t": 11749.999999999996,
      "d": 250.00000000000182,
      "v": 93
    },
    {
      "midi": 45,
      "hit": false,
      "t": 11999.999999999998,
      "d": 654.1666666666661,
      "v": 95
    },
    {
      "midi": 63,
      "hit": false,
      "t": 12499.999999999998,
      "d": 62.5,
      "v": 56
    },
    {
      "midi": 57,
      "hit": false,
      "t": 12499.999999999998,
      "d": 391.66666666666606,
      "v": 91
    },
    {
      "midi": 64,
      "hit": false,
      "t": 12499.999999999998,
      "d": 400,
      "v": 78
    },
    {
      "midi": 61,
      "hit": false,
      "t": 12499.999999999998,
      "d": 404.16666666666606,
      "v": 95
    },
    {
      "midi": 52,
      "hit": false,
      "t": 12904.166666666664,
      "d": 79.16666666666606,
      "v": 102
    },
    {
      "midi": 57,
      "hit": false,
      "t": 12999.999999999996,
      "d": 116.66666666666606,
      "v": 86
    },
    {
      "midi": 61,
      "hit": false,
      "t": 12999.999999999996,
      "d": 133.33333333333212,
      "v": 95
    },
    {
      "midi": 64,
      "hit": false,
      "t": 12999.999999999996,
      "d": 133.33333333333212,
      "v": 91
    },
    {
      "midi": 64,
      "hit": false,
      "t": 13249.999999999995,
      "d": 333.33333333333394,
      "v": 93
    },
    {
      "midi": 57,
      "hit": false,
      "t": 13249.999999999995,
      "d": 350,
      "v": 97
    },
    {
      "midi": 61,
      "hit": false,
      "t": 13249.999999999995,
      "d": 362.5,
      "v": 106
    },
    {
      "midi": 57,
      "hit": false,
      "t": 13749.999999999995,
      "d": 162.5,
      "v": 84
    },
    {
      "midi": 52,
      "hit": false,
      "t": 13749.999999999995,
      "d": 166.66666666666606,
      "v": 104
    },
    {
      "midi": 61,
      "hit": false,
      "t": 13749.999999999995,
      "d": 166.66666666666606,
      "v": 97
    },
    {
      "midi": 64,
      "hit": false,
      "t": 13749.999999999995,
      "d": 166.66666666666606,
      "v": 89
    },
    {
      "midi": 45,
      "hit": false,
      "t": 13999.999999999995,
      "d": 600,
      "v": 93
    },
    {
      "midi": 64,
      "hit": false,
      "t": 14499.999999999995,
      "d": 362.5,
      "v": 72
    },
    {
      "midi": 57,
      "hit": false,
      "t": 14499.999999999995,
      "d": 375,
      "v": 78
    },
    {
      "midi": 61,
      "hit": false,
      "t": 14499.999999999995,
      "d": 383.33333333333394,
      "v": 89
    },
    {
      "midi": 52,
      "hit": false,
      "t": 14883.333333333328,
      "d": 66.66666666666606,
      "v": 91
    },
    {
      "midi": 64,
      "hit": false,
      "t": 14999.999999999995,
      "d": 129.16666666666606,
      "v": 82
    },
    {
      "midi": 57,
      "hit": false,
      "t": 14999.999999999995,
      "d": 137.5,
      "v": 84
    },
    {
      "midi": 61,
      "hit": false,
      "t": 14999.999999999995,
      "d": 141.66666666666606,
      "v": 89
    },
    {
      "midi": 57,
      "hit": false,
      "t": 15249.999999999995,
      "d": 437.5,
      "v": 91
    },
    {
      "midi": 61,
      "hit": false,
      "t": 15249.999999999995,
      "d": 441.66666666666606,
      "v": 93
    },
    {
      "midi": 64,
      "hit": false,
      "t": 15249.999999999995,
      "d": 441.66666666666606,
      "v": 86
    },
    {
      "midi": 52,
      "hit": false,
      "t": 15749.999999999995,
      "d": 170.83333333333394,
      "v": 97
    },
    {
      "midi": 61,
      "hit": false,
      "t": 15749.999999999995,
      "d": 229.16666666666788,
      "v": 106
    },
    {
      "midi": 57,
      "hit": false,
      "t": 15749.999999999995,
      "d": 250.00000000000182,
      "v": 99
    },
    {
      "midi": 64,
      "hit": false,
      "t": 15749.999999999995,
      "d": 250.00000000000182,
      "v": 93
    },
    {
      "midi": 45,
      "hit": false,
      "t": 15999.999999999996,
      "d": 654.1666666666679,
      "v": 95
    },
    {
      "midi": 63,
      "hit": false,
      "t": 16499.999999999996,
      "d": 62.5,
      "v": 56
    },
    {
      "midi": 57,
      "hit": false,
      "t": 16499.999999999996,
      "d": 391.6666666666679,
      "v": 91
    },
    {
      "midi": 64,
      "hit": false,
      "t": 16499.999999999996,
      "d": 400,
      "v": 78
    },
    {
      "midi": 61,
      "hit": false,
      "t": 16499.999999999996,
      "d": 404.1666666666679,
      "v": 95
    },
    {
      "midi": 52,
      "hit": false,
      "t": 16904.166666666664,
      "d": 79.16666666666788,
      "v": 102
    },
    {
      "midi": 57,
      "hit": false,
      "t": 17000,
      "d": 116.66666666666788,
      "v": 86
    },
    {
      "midi": 61,
      "hit": false,
      "t": 17000,
      "d": 133.33333333333576,
      "v": 95
    },
    {
      "midi": 64,
      "hit": false,
      "t": 17000,
      "d": 133.33333333333576,
      "v": 91
    },
    {
      "midi": 64,
      "hit": false,
      "t": 17250.000000000004,
      "d": 333.3333333333321,
      "v": 93
    },
    {
      "midi": 57,
      "hit": false,
      "t": 17250.000000000004,
      "d": 350,
      "v": 97
    },
    {
      "midi": 61,
      "hit": false,
      "t": 17250.000000000004,
      "d": 362.5,
      "v": 106
    },
    {
      "midi": 57,
      "hit": false,
      "t": 17750.000000000004,
      "d": 162.5,
      "v": 84
    },
    {
      "midi": 52,
      "hit": false,
      "t": 17750.000000000004,
      "d": 166.66666666666788,
      "v": 104
    },
    {
      "midi": 61,
      "hit": false,
      "t": 17750.000000000004,
      "d": 166.66666666666788,
      "v": 97
    },
    {
      "midi": 64,
      "hit": false,
      "t": 17750.000000000004,
      "d": 166.66666666666788,
      "v": 89
    },
    {
      "midi": 45,
      "hit": false,
      "t": 18000.000000000004,
      "d": 600,
      "v": 93
    },
    {
      "midi": 64,
      "hit": false,
      "t": 18500.000000000004,
      "d": 362.5,
      "v": 72
    },
    {
      "midi": 57,
      "hit": false,
      "t": 18500.000000000004,
      "d": 375,
      "v": 78
    },
    {
      "midi": 61,
      "hit": false,
      "t": 18500.000000000004,
      "d": 383.3333333333321,
      "v": 89
    },
    {
      "midi": 52,
      "hit": false,
      "t": 18883.333333333336,
      "d": 66.66666666666788,
      "v": 91
    },
    {
      "midi": 64,
      "hit": false,
      "t": 19000.000000000004,
      "d": 129.16666666666788,
      "v": 82
    },
    {
      "midi": 57,
      "hit": false,
      "t": 19000.000000000004,
      "d": 137.5,
      "v": 84
    },
    {
      "midi": 61,
      "hit": false,
      "t": 19000.000000000004,
      "d": 141.66666666666788,
      "v": 89
    },
    {
      "midi": 57,
      "hit": false,
      "t": 19250.000000000004,
      "d": 437.5,
      "v": 91
    },
    {
      "midi": 61,
      "hit": false,
      "t": 19250.000000000004,
      "d": 441.6666666666679,
      "v": 93
    },
    {
      "midi": 64,
      "hit": false,
      "t": 19250.000000000004,
      "d": 441.6666666666679,
      "v": 86
    },
    {
      "midi": 52,
      "hit": false,
      "t": 19750.000000000004,
      "d": 170.83333333333212,
      "v": 97
    },
    {
      "midi": 61,
      "hit": false,
      "t": 19750.000000000004,
      "d": 229.16666666666424,
      "v": 106
    },
    {
      "midi": 57,
      "hit": false,
      "t": 19750.000000000004,
      "d": 249.99999999999636,
      "v": 99
    },
    {
      "midi": 64,
      "hit": false,
      "t": 19750.000000000004,
      "d": 249.99999999999636,
      "v": 93
    },
    {
      "midi": 45,
      "hit": false,
      "t": 20000,
      "d": 654.1666666666679,
      "v": 95
    },
    {
      "midi": 63,
      "hit": false,
      "t": 20500,
      "d": 62.5,
      "v": 56
    },
    {
      "midi": 57,
      "hit": false,
      "t": 20500,
      "d": 391.6666666666679,
      "v": 91
    },
    {
      "midi": 64,
      "hit": false,
      "t": 20500,
      "d": 400,
      "v": 78
    },
    {
      "midi": 61,
      "hit": false,
      "t": 20500,
      "d": 404.1666666666679,
      "v": 95
    },
    {
      "midi": 52,
      "hit": false,
      "t": 20904.166666666668,
      "d": 79.16666666666788,
      "v": 102
    },
    {
      "midi": 57,
      "hit": false,
      "t": 21000.000000000004,
      "d": 116.66666666666788,
      "v": 86
    },
    {
      "midi": 61,
      "hit": false,
      "t": 21000.000000000004,
      "d": 133.33333333333576,
      "v": 95
    },
    {
      "midi": 64,
      "hit": false,
      "t": 21000.000000000004,
      "d": 133.33333333333576,
      "v": 91
    },
    {
      "midi": 64,
      "hit": false,
      "t": 21250.000000000007,
      "d": 333.3333333333321,
      "v": 93
    },
    {
      "midi": 57,
      "hit": false,
      "t": 21250.000000000007,
      "d": 350,
      "v": 97
    },
    {
      "midi": 61,
      "hit": false,
      "t": 21250.000000000007,
      "d": 362.5,
      "v": 106
    },
    {
      "midi": 57,
      "hit": false,
      "t": 21750.000000000007,
      "d": 162.5,
      "v": 84
    },
    {
      "midi": 52,
      "hit": false,
      "t": 21750.000000000007,
      "d": 166.66666666666788,
      "v": 104
    },
    {
      "midi": 61,
      "hit": false,
      "t": 21750.000000000007,
      "d": 166.66666666666788,
      "v": 97
    },
    {
      "midi": 64,
      "hit": false,
      "t": 21750.000000000007,
      "d": 166.66666666666788,
      "v": 89
    },
    {
      "midi": 47,
      "hit": false,
      "t": 22020.833333333343,
      "d": 491.6666666666679,
      "v": 99
    },
    {
      "midi": 57,
      "hit": false,
      "t": 22495.833333333343,
      "d": 354.1666666666679,
      "v": 89
    },
    {
      "midi": 62,
      "hit": false,
      "t": 22495.833333333343,
      "d": 354.1666666666679,
      "v": 91
    },
    {
      "midi": 66,
      "hit": false,
      "t": 22500.00000000001,
      "d": 333.3333333333321,
      "v": 94
    },
    {
      "midi": 47,
      "hit": false,
      "t": 22887.50000000001,
      "d": 45.83333333333212,
      "v": 94
    },
    {
      "midi": 62,
      "hit": false,
      "t": 22991.666666666675,
      "d": 116.66666666666788,
      "v": 71
    },
    {
      "midi": 57,
      "hit": false,
      "t": 22991.666666666675,
      "d": 120.83333333333576,
      "v": 71
    },
    {
      "midi": 66,
      "hit": false,
      "t": 22995.833333333343,
      "d": 112.5,
      "v": 78
    },
    {
      "midi": 62,
      "hit": false,
      "t": 23245.833333333343,
      "d": 400,
      "v": 84
    },
    {
      "midi": 57,
      "hit": false,
      "t": 23250.00000000001,
      "d": 383.3333333333321,
      "v": 89
    },
    {
      "midi": 66,
      "hit": false,
      "t": 23250.00000000001,
      "d": 395.8333333333321,
      "v": 91
    },
    {
      "midi": 66,
      "hit": false,
      "t": 23762.50000000001,
      "d": 237.5,
      "v": 96
    },
    {
      "midi": 57,
      "hit": false,
      "t": 23766.66666666668,
      "d": 233.33333333333212,
      "v": 96
    },
    {
      "midi": 62,
      "hit": false,
      "t": 23766.66666666668,
      "d": 233.33333333333212,
      "v": 96
    },
    {
      "midi": 52,
      "hit": false,
      "t": 24000.00000000001,
      "d": 600,
      "v": 93
    },
    {
      "midi": 71,
      "hit": false,
      "t": 24500.00000000001,
      "d": 362.5,
      "v": 72
    },
    {
      "midi": 62,
      "hit": false,
      "t": 24500.00000000001,
      "d": 375,
      "v": 78
    },
    {
      "midi": 68,
      "hit": false,
      "t": 24500.00000000001,
      "d": 383.3333333333321,
      "v": 89
    },
    {
      "midi": 59,
      "hit": false,
      "t": 24883.333333333343,
      "d": 66.66666666666788,
      "v": 91
    },
    {
      "midi": 71,
      "hit": false,
      "t": 25000.00000000001,
      "d": 129.16666666666788,
      "v": 82
    },
    {
      "midi": 62,
      "hit": false,
      "t": 25000.00000000001,
      "d": 137.5,
      "v": 84
    },
    {
      "midi": 68,
      "hit": false,
      "t": 25000.00000000001,
      "d": 141.66666666666788,
      "v": 89
    },
    {
      "midi": 62,
      "hit": false,
      "t": 25250.00000000001,
      "d": 437.5,
      "v": 91
    },
    {
      "midi": 68,
      "hit": false,
      "t": 25250.00000000001,
      "d": 441.6666666666679,
      "v": 93
    },
    {
      "midi": 71,
      "hit": false,
      "t": 25250.00000000001,
      "d": 441.6666666666679,
      "v": 86
    },
    {
      "midi": 59,
      "hit": false,
      "t": 25750.00000000001,
      "d": 170.83333333333212,
      "v": 97
    },
    {
      "midi": 68,
      "hit": false,
      "t": 25750.00000000001,
      "d": 229.16666666666424,
      "v": 106
    },
    {
      "midi": 62,
      "hit": false,
      "t": 25750.00000000001,
      "d": 249.99999999999636,
      "v": 99
    },
    {
      "midi": 71,
      "hit": false,
      "t": 25750.00000000001,
      "d": 249.99999999999636,
      "v": 93
    },
    {
      "midi": 42,
      "hit": false,
      "t": 26020.83333333334,
      "d": 491.6666666666679,
      "v": 99
    },
    {
      "midi": 52,
      "hit": false,
      "t": 26495.83333333334,
      "d": 354.1666666666679,
      "v": 89
    },
    {
      "midi": 57,
      "hit": false,
      "t": 26495.83333333334,
      "d": 354.1666666666679,
      "v": 91
    },
    {
      "midi": 61,
      "hit": false,
      "t": 26500.000000000007,
      "d": 333.3333333333321,
      "v": 94
    },
    {
      "midi": 42,
      "hit": false,
      "t": 26887.500000000007,
      "d": 45.83333333333212,
      "v": 94
    },
    {
      "midi": 57,
      "hit": false,
      "t": 26991.66666666667,
      "d": 116.66666666666788,
      "v": 71
    },
    {
      "midi": 52,
      "hit": false,
      "t": 26991.66666666667,
      "d": 120.83333333333576,
      "v": 71
    },
    {
      "midi": 61,
      "hit": false,
      "t": 26995.83333333334,
      "d": 112.5,
      "v": 78
    },
    {
      "midi": 57,
      "hit": false,
      "t": 27245.83333333334,
      "d": 400,
      "v": 84
    },
    {
      "midi": 52,
      "hit": false,
      "t": 27250.000000000007,
      "d": 383.3333333333321,
      "v": 89
    },
    {
      "midi": 61,
      "hit": false,
      "t": 27250.000000000007,
      "d": 395.8333333333321,
      "v": 91
    },
    {
      "midi": 61,
      "hit": false,
      "t": 27762.500000000007,
      "d": 237.5,
      "v": 96
    },
    {
      "midi": 52,
      "hit": false,
      "t": 27766.666666666675,
      "d": 233.33333333333212,
      "v": 96
    },
    {
      "midi": 57,
      "hit": false,
      "t": 27766.666666666675,
      "d": 233.33333333333212,
      "v": 96
    },
    {
      "midi": 54,
      "hit": false,
      "t": 28000.000000000007,
      "d": 1616.6666666666679,
      "v": 90
    },
    {
      "midi": 62,
      "hit": false,
      "t": 28000.000000000007,
      "d": 1616.6666666666679,
      "v": 90
    },
    {
      "midi": 69,
      "hit": false,
      "t": 28000.000000000007,
      "d": 1616.6666666666679,
      "v": 90
    },
    {
      "midi": 42,
      "hit": false,
      "t": 30020.833333333343,
      "d": 491.6666666666679,
      "v": 99
    },
    {
      "midi": 52,
      "hit": false,
      "t": 30495.833333333343,
      "d": 354.1666666666679,
      "v": 89
    },
    {
      "midi": 57,
      "hit": false,
      "t": 30495.833333333343,
      "d": 354.1666666666679,
      "v": 91
    },
    {
      "midi": 61,
      "hit": false,
      "t": 30500.00000000001,
      "d": 333.3333333333321,
      "v": 94
    },
    {
      "midi": 42,
      "hit": false,
      "t": 30887.50000000001,
      "d": 45.83333333333212,
      "v": 94
    },
    {
      "midi": 57,
      "hit": false,
      "t": 30991.666666666675,
      "d": 116.66666666666788,
      "v": 71
    },
    {
      "midi": 52,
      "hit": false,
      "t": 30991.666666666675,
      "d": 120.83333333333576,
      "v": 71
    },
    {
      "midi": 61,
      "hit": false,
      "t": 30995.833333333343,
      "d": 112.5,
      "v": 78
    },
    {
      "midi": 57,
      "hit": false,
      "t": 31245.833333333343,
      "d": 400,
      "v": 84
    },
    {
      "midi": 52,
      "hit": false,
      "t": 31250.00000000001,
      "d": 383.3333333333321,
      "v": 89
    },
    {
      "midi": 61,
      "hit": false,
      "t": 31250.00000000001,
      "d": 395.8333333333321,
      "v": 91
    },
    {
      "midi": 61,
      "hit": false,
      "t": 31762.50000000001,
      "d": 237.5,
      "v": 96
    },
    {
      "midi": 52,
      "hit": false,
      "t": 31766.66666666668,
      "d": 233.33333333333212,
      "v": 96
    },
    {
      "midi": 57,
      "hit": false,
      "t": 31766.66666666668,
      "d": 233.33333333333212,
      "v": 96
    },
    {
      "midi": 54,
      "hit": false,
      "t": 32000.00000000001,
      "d": 1616.6666666666679,
      "v": 90
    },
    {
      "midi": 57,
      "hit": false,
      "t": 32000.00000000001,
      "d": 1616.6666666666679,
      "v": 90
    },
    {
      "midi": 62,
      "hit": false,
      "t": 32000.00000000001,
      "d": 1616.6666666666679,
      "v": 90
    },
    {
      "midi": 42,
      "hit": false,
      "t": 34020.83333333334,
      "d": 491.66666666666424,
      "v": 99
    },
    {
      "midi": 52,
      "hit": false,
      "t": 34495.83333333334,
      "d": 354.16666666666424,
      "v": 89
    },
    {
      "midi": 57,
      "hit": false,
      "t": 34495.83333333334,
      "d": 354.16666666666424,
      "v": 91
    },
    {
      "midi": 61,
      "hit": false,
      "t": 34500.00000000001,
      "d": 333.33333333333576,
      "v": 94
    },
    {
      "midi": 42,
      "hit": false,
      "t": 34887.50000000001,
      "d": 45.83333333333576,
      "v": 94
    },
    {
      "midi": 57,
      "hit": false,
      "t": 34991.66666666668,
      "d": 116.66666666666424,
      "v": 71
    },
    {
      "midi": 52,
      "hit": false,
      "t": 34991.66666666668,
      "d": 120.83333333332848,
      "v": 71
    },
    {
      "midi": 61,
      "hit": false,
      "t": 34995.83333333334,
      "d": 112.5,
      "v": 78
    },
    {
      "midi": 57,
      "hit": false,
      "t": 35245.83333333334,
      "d": 400,
      "v": 84
    },
    {
      "midi": 52,
      "hit": false,
      "t": 35250.00000000001,
      "d": 383.33333333333576,
      "v": 89
    },
    {
      "midi": 61,
      "hit": false,
      "t": 35250.00000000001,
      "d": 395.83333333333576,
      "v": 91
    },
    {
      "midi": 61,
      "hit": false,
      "t": 35762.50000000001,
      "d": 237.5,
      "v": 96
    },
    {
      "midi": 52,
      "hit": false,
      "t": 35766.66666666667,
      "d": 233.33333333333576,
      "v": 96
    },
    {
      "midi": 57,
      "hit": false,
      "t": 35766.66666666667,
      "d": 233.33333333333576,
      "v": 96
    },
    {
      "midi": 52,
      "hit": false,
      "t": 36000.00000000001,
      "d": 600,
      "v": 93
    },
    {
      "midi": 71,
      "hit": false,
      "t": 36500.00000000001,
      "d": 362.5,
      "v": 72
    },
    {
      "midi": 62,
      "hit": false,
      "t": 36500.00000000001,
      "d": 375,
      "v": 78
    },
    {
      "midi": 68,
      "hit": false,
      "t": 36500.00000000001,
      "d": 383.33333333333576,
      "v": 89
    },
    {
      "midi": 59,
      "hit": false,
      "t": 36883.33333333334,
      "d": 66.66666666666424,
      "v": 91
    },
    {
      "midi": 71,
      "hit": false,
      "t": 37000.00000000001,
      "d": 129.16666666666424,
      "v": 82
    },
    {
      "midi": 62,
      "hit": false,
      "t": 37000.00000000001,
      "d": 137.5,
      "v": 84
    },
    {
      "midi": 68,
      "hit": false,
      "t": 37000.00000000001,
      "d": 141.66666666666424,
      "v": 89
    },
    {
      "midi": 62,
      "hit": false,
      "t": 37250.00000000001,
      "d": 437.5,
      "v": 91
    },
    {
      "midi": 68,
      "hit": false,
      "t": 37250.00000000001,
      "d": 441.66666666666424,
      "v": 93
    },
    {
      "midi": 71,
      "hit": false,
      "t": 37250.00000000001,
      "d": 441.66666666666424,
      "v": 86
    },
    {
      "midi": 59,
      "hit": false,
      "t": 37750.00000000001,
      "d": 170.83333333333576,
      "v": 97
    },
    {
      "midi": 68,
      "hit": false,
      "t": 37750.00000000001,
      "d": 229.16666666667152,
      "v": 106
    },
    {
      "midi": 62,
      "hit": false,
      "t": 37750.00000000001,
      "d": 250.00000000000728,
      "v": 99
    },
    {
      "midi": 71,
      "hit": false,
      "t": 37750.00000000001,
      "d": 250.00000000000728,
      "v": 93
    },
    {
      "midi": 45,
      "hit": false,
      "t": 38000.000000000015,
      "d": 600,
      "v": 93
    },
    {
      "midi": 64,
      "hit": false,
      "t": 38500.000000000015,
      "d": 362.5,
      "v": 72
    },
    {
      "midi": 57,
      "hit": false,
      "t": 38500.000000000015,
      "d": 375,
      "v": 78
    },
    {
      "midi": 61,
      "hit": false,
      "t": 38500.000000000015,
      "d": 383.33333333333576,
      "v": 89
    },
    {
      "midi": 52,
      "hit": false,
      "t": 38883.33333333335,
      "d": 66.66666666666424,
      "v": 91
    },
    {
      "midi": 64,
      "hit": false,
      "t": 39000.000000000015,
      "d": 129.16666666666424,
      "v": 82
    },
    {
      "midi": 57,
      "hit": false,
      "t": 39000.000000000015,
      "d": 137.5,
      "v": 84
    },
    {
      "midi": 61,
      "hit": false,
      "t": 39000.000000000015,
      "d": 141.66666666666424,
      "v": 89
    },
    {
      "midi": 57,
      "hit": false,
      "t": 39250.000000000015,
      "d": 437.5,
      "v": 91
    },
    {
      "midi": 61,
      "hit": false,
      "t": 39250.000000000015,
      "d": 441.66666666666424,
      "v": 93
    },
    {
      "midi": 64,
      "hit": false,
      "t": 39250.000000000015,
      "d": 441.66666666666424,
      "v": 86
    },
    {
      "midi": 52,
      "hit": false,
      "t": 39750.000000000015,
      "d": 170.83333333333576,
      "v": 97
    },
    {
      "midi": 61,
      "hit": false,
      "t": 39750.000000000015,
      "d": 229.16666666667152,
      "v": 106
    },
    {
      "midi": 57,
      "hit": false,
      "t": 39750.000000000015,
      "d": 250.00000000000728,
      "v": 99
    },
    {
      "midi": 64,
      "hit": false,
      "t": 39750.000000000015,
      "d": 250.00000000000728,
      "v": 93
    },
    {
      "midi": 45,
      "hit": false,
      "t": 40000.00000000002,
      "d": 654.1666666666642,
      "v": 95
    },
    {
      "midi": 63,
      "hit": false,
      "t": 40500.00000000002,
      "d": 62.5,
      "v": 56
    },
    {
      "midi": 57,
      "hit": false,
      "t": 40500.00000000002,
      "d": 391.66666666666424,
      "v": 91
    },
    {
      "midi": 64,
      "hit": false,
      "t": 40500.00000000002,
      "d": 400,
      "v": 78
    },
    {
      "midi": 61,
      "hit": false,
      "t": 40500.00000000002,
      "d": 404.16666666666424,
      "v": 95
    },
    {
      "midi": 52,
      "hit": false,
      "t": 40904.166666666686,
      "d": 79.16666666666424,
      "v": 102
    },
    {
      "midi": 57,
      "hit": false,
      "t": 41000.000000000015,
      "d": 116.66666666666424,
      "v": 86
    },
    {
      "midi": 61,
      "hit": false,
      "t": 41000.000000000015,
      "d": 133.33333333332848,
      "v": 95
    },
    {
      "midi": 64,
      "hit": false,
      "t": 41000.000000000015,
      "d": 133.33333333332848,
      "v": 91
    },
    {
      "midi": 64,
      "hit": false,
      "t": 41250.00000000001,
      "d": 333.33333333333576,
      "v": 93
    },
    {
      "midi": 57,
      "hit": false,
      "t": 41250.00000000001,
      "d": 350,
      "v": 97
    },
    {
      "midi": 61,
      "hit": false,
      "t": 41250.00000000001,
      "d": 362.5,
      "v": 106
    },
    {
      "midi": 57,
      "hit": false,
      "t": 41750.00000000001,
      "d": 162.5,
      "v": 84
    },
    {
      "midi": 52,
      "hit": false,
      "t": 41750.00000000001,
      "d": 166.66666666666424,
      "v": 104
    },
    {
      "midi": 61,
      "hit": false,
      "t": 41750.00000000001,
      "d": 166.66666666666424,
      "v": 97
    },
    {
      "midi": 64,
      "hit": false,
      "t": 41750.00000000001,
      "d": 166.66666666666424,
      "v": 89
    },
    {
      "midi": 45,
      "hit": false,
      "t": 42000.00000000001,
      "d": 600,
      "v": 93
    },
    {
      "midi": 64,
      "hit": false,
      "t": 42500.00000000001,
      "d": 362.5,
      "v": 72
    },
    {
      "midi": 57,
      "hit": false,
      "t": 42500.00000000001,
      "d": 375,
      "v": 78
    },
    {
      "midi": 61,
      "hit": false,
      "t": 42500.00000000001,
      "d": 383.33333333333576,
      "v": 89
    },
    {
      "midi": 52,
      "hit": false,
      "t": 42883.33333333334,
      "d": 66.66666666666424,
      "v": 91
    },
    {
      "midi": 64,
      "hit": false,
      "t": 43000.00000000001,
      "d": 129.16666666666424,
      "v": 82
    },
    {
      "midi": 57,
      "hit": false,
      "t": 43000.00000000001,
      "d": 137.5,
      "v": 84
    },
    {
      "midi": 61,
      "hit": false,
      "t": 43000.00000000001,
      "d": 141.66666666666424,
      "v": 89
    },
    {
      "midi": 57,
      "hit": false,
      "t": 43250.00000000001,
      "d": 437.5,
      "v": 91
    },
    {
      "midi": 61,
      "hit": false,
      "t": 43250.00000000001,
      "d": 441.66666666666424,
      "v": 93
    },
    {
      "midi": 64,
      "hit": false,
      "t": 43250.00000000001,
      "d": 441.66666666666424,
      "v": 86
    },
    {
      "midi": 52,
      "hit": false,
      "t": 43750.00000000001,
      "d": 170.83333333333576,
      "v": 97
    },
    {
      "midi": 61,
      "hit": false,
      "t": 43750.00000000001,
      "d": 229.16666666667152,
      "v": 106
    },
    {
      "midi": 57,
      "hit": false,
      "t": 43750.00000000001,
      "d": 250.00000000000728,
      "v": 99
    },
    {
      "midi": 64,
      "hit": false,
      "t": 43750.00000000001,
      "d": 250.00000000000728,
      "v": 93
    },
    {
      "midi": 45,
      "hit": false,
      "t": 44000.000000000015,
      "d": 654.1666666666642,
      "v": 95
    },
    {
      "midi": 63,
      "hit": false,
      "t": 44500.000000000015,
      "d": 62.5,
      "v": 56
    },
    {
      "midi": 57,
      "hit": false,
      "t": 44500.000000000015,
      "d": 391.66666666666424,
      "v": 91
    },
    {
      "midi": 64,
      "hit": false,
      "t": 44500.000000000015,
      "d": 400,
      "v": 78
    },
    {
      "midi": 61,
      "hit": false,
      "t": 44500.000000000015,
      "d": 404.16666666666424,
      "v": 95
    },
    {
      "midi": 52,
      "hit": false,
      "t": 44904.16666666668,
      "d": 79.16666666666424,
      "v": 102
    },
    {
      "midi": 57,
      "hit": false,
      "t": 45000.00000000001,
      "d": 116.66666666666424,
      "v": 86
    },
    {
      "midi": 61,
      "hit": false,
      "t": 45000.00000000001,
      "d": 133.33333333332848,
      "v": 95
    },
    {
      "midi": 64,
      "hit": false,
      "t": 45000.00000000001,
      "d": 133.33333333332848,
      "v": 91
    },
    {
      "midi": 64,
      "hit": false,
      "t": 45250,
      "d": 333.33333333333576,
      "v": 93
    },
    {
      "midi": 57,
      "hit": false,
      "t": 45250,
      "d": 350,
      "v": 97
    },
    {
      "midi": 61,
      "hit": false,
      "t": 45250,
      "d": 362.5,
      "v": 106
    },
    {
      "midi": 57,
      "hit": false,
      "t": 45750,
      "d": 162.5,
      "v": 84
    },
    {
      "midi": 52,
      "hit": false,
      "t": 45750,
      "d": 166.66666666666424,
      "v": 104
    },
    {
      "midi": 61,
      "hit": false,
      "t": 45750,
      "d": 166.66666666666424,
      "v": 97
    },
    {
      "midi": 64,
      "hit": false,
      "t": 45750,
      "d": 166.66666666666424,
      "v": 89
    },
    {
      "midi": 45,
      "hit": false,
      "t": 46000,
      "d": 600,
      "v": 93
    },
    {
      "midi": 64,
      "hit": false,
      "t": 46500,
      "d": 362.5,
      "v": 72
    },
    {
      "midi": 57,
      "hit": false,
      "t": 46500,
      "d": 375,
      "v": 78
    },
    {
      "midi": 61,
      "hit": false,
      "t": 46500,
      "d": 383.33333333333576,
      "v": 89
    },
    {
      "midi": 52,
      "hit": false,
      "t": 46883.333333333336,
      "d": 66.66666666666424,
      "v": 91
    },
    {
      "midi": 64,
      "hit": false,
      "t": 47000,
      "d": 129.16666666666424,
      "v": 82
    },
    {
      "midi": 57,
      "hit": false,
      "t": 47000,
      "d": 137.5,
      "v": 84
    },
    {
      "midi": 61,
      "hit": false,
      "t": 47000,
      "d": 141.66666666666424,
      "v": 89
    },
    {
      "midi": 57,
      "hit": false,
      "t": 47250,
      "d": 437.5,
      "v": 91
    },
    {
      "midi": 61,
      "hit": false,
      "t": 47250,
      "d": 441.66666666666424,
      "v": 93
    },
    {
      "midi": 64,
      "hit": false,
      "t": 47250,
      "d": 441.66666666666424,
      "v": 86
    },
    {
      "midi": 52,
      "hit": false,
      "t": 47750,
      "d": 170.83333333333576,
      "v": 97
    },
    {
      "midi": 61,
      "hit": false,
      "t": 47750,
      "d": 229.16666666667152,
      "v": 106
    },
    {
      "midi": 57,
      "hit": false,
      "t": 47750,
      "d": 250.00000000000728,
      "v": 99
    },
    {
      "midi": 64,
      "hit": false,
      "t": 47750,
      "d": 250.00000000000728,
      "v": 93
    },
    {
      "midi": 45,
      "hit": false,
      "t": 48000.00000000001,
      "d": 654.1666666666642,
      "v": 95
    },
    {
      "midi": 63,
      "hit": false,
      "t": 48500.00000000001,
      "d": 62.5,
      "v": 56
    },
    {
      "midi": 57,
      "hit": false,
      "t": 48500.00000000001,
      "d": 391.66666666666424,
      "v": 91
    },
    {
      "midi": 64,
      "hit": false,
      "t": 48500.00000000001,
      "d": 400,
      "v": 78
    },
    {
      "midi": 61,
      "hit": false,
      "t": 48500.00000000001,
      "d": 404.16666666666424,
      "v": 95
    },
    {
      "midi": 52,
      "hit": false,
      "t": 48904.16666666667,
      "d": 79.16666666666424,
      "v": 102
    },
    {
      "midi": 57,
      "hit": false,
      "t": 49000,
      "d": 116.66666666666424,
      "v": 86
    },
    {
      "midi": 61,
      "hit": false,
      "t": 49000,
      "d": 133.33333333332848,
      "v": 95
    },
    {
      "midi": 64,
      "hit": false,
      "t": 49000,
      "d": 133.33333333332848,
      "v": 91
    },
    {
      "midi": 64,
      "hit": false,
      "t": 49249.99999999999,
      "d": 333.33333333333576,
      "v": 93
    },
    {
      "midi": 57,
      "hit": false,
      "t": 49249.99999999999,
      "d": 350,
      "v": 97
    },
    {
      "midi": 61,
      "hit": false,
      "t": 49249.99999999999,
      "d": 362.5,
      "v": 106
    },
    {
      "midi": 57,
      "hit": false,
      "t": 49749.99999999999,
      "d": 162.5,
      "v": 84
    },
    {
      "midi": 52,
      "hit": false,
      "t": 49749.99999999999,
      "d": 166.66666666666424,
      "v": 104
    },
    {
      "midi": 61,
      "hit": false,
      "t": 49749.99999999999,
      "d": 166.66666666666424,
      "v": 97
    },
    {
      "midi": 64,
      "hit": false,
      "t": 49749.99999999999,
      "d": 166.66666666666424,
      "v": 89
    },
    {
      "midi": 45,
      "hit": false,
      "t": 49999.99999999999,
      "d": 600,
      "v": 93
    },
    {
      "midi": 64,
      "hit": false,
      "t": 50499.99999999999,
      "d": 362.5,
      "v": 72
    },
    {
      "midi": 57,
      "hit": false,
      "t": 50499.99999999999,
      "d": 375,
      "v": 78
    },
    {
      "midi": 61,
      "hit": false,
      "t": 50499.99999999999,
      "d": 383.33333333333576,
      "v": 89
    },
    {
      "midi": 52,
      "hit": false,
      "t": 50883.33333333333,
      "d": 66.66666666666424,
      "v": 91
    },
    {
      "midi": 64,
      "hit": false,
      "t": 50999.99999999999,
      "d": 129.16666666666424,
      "v": 82
    },
    {
      "midi": 57,
      "hit": false,
      "t": 50999.99999999999,
      "d": 137.5,
      "v": 84
    },
    {
      "midi": 61,
      "hit": false,
      "t": 50999.99999999999,
      "d": 141.66666666666424,
      "v": 89
    },
    {
      "midi": 57,
      "hit": false,
      "t": 51249.99999999999,
      "d": 437.5,
      "v": 91
    },
    {
      "midi": 61,
      "hit": false,
      "t": 51249.99999999999,
      "d": 441.66666666666424,
      "v": 93
    },
    {
      "midi": 64,
      "hit": false,
      "t": 51249.99999999999,
      "d": 441.66666666666424,
      "v": 86
    },
    {
      "midi": 52,
      "hit": false,
      "t": 51749.99999999999,
      "d": 170.83333333333576,
      "v": 97
    },
    {
      "midi": 61,
      "hit": false,
      "t": 51749.99999999999,
      "d": 229.16666666667152,
      "v": 106
    },
    {
      "midi": 57,
      "hit": false,
      "t": 51749.99999999999,
      "d": 250.00000000000728,
      "v": 99
    },
    {
      "midi": 64,
      "hit": false,
      "t": 51749.99999999999,
      "d": 250.00000000000728,
      "v": 93
    },
    {
      "midi": 45,
      "hit": false,
      "t": 52000,
      "d": 654.1666666666642,
      "v": 95
    },
    {
      "midi": 63,
      "hit": false,
      "t": 52500,
      "d": 62.5,
      "v": 56
    },
    {
      "midi": 57,
      "hit": false,
      "t": 52500,
      "d": 391.66666666666424,
      "v": 91
    },
    {
      "midi": 64,
      "hit": false,
      "t": 52500,
      "d": 400,
      "v": 78
    },
    {
      "midi": 61,
      "hit": false,
      "t": 52500,
      "d": 404.16666666666424,
      "v": 95
    },
    {
      "midi": 52,
      "hit": false,
      "t": 52904.166666666664,
      "d": 79.16666666666424,
      "v": 102
    },
    {
      "midi": 57,
      "hit": false,
      "t": 52999.99999999999,
      "d": 116.66666666666424,
      "v": 86
    },
    {
      "midi": 61,
      "hit": false,
      "t": 52999.99999999999,
      "d": 133.33333333332848,
      "v": 95
    },
    {
      "midi": 64,
      "hit": false,
      "t": 52999.99999999999,
      "d": 133.33333333332848,
      "v": 91
    },
    {
      "midi": 64,
      "hit": false,
      "t": 53249.999999999985,
      "d": 333.33333333333576,
      "v": 93
    },
    {
      "midi": 57,
      "hit": false,
      "t": 53249.999999999985,
      "d": 350,
      "v": 97
    },
    {
      "midi": 61,
      "hit": false,
      "t": 53249.999999999985,
      "d": 362.5,
      "v": 106
    },
    {
      "midi": 57,
      "hit": false,
      "t": 53749.999999999985,
      "d": 162.5,
      "v": 84
    },
    {
      "midi": 52,
      "hit": false,
      "t": 53749.999999999985,
      "d": 166.66666666666424,
      "v": 104
    },
    {
      "midi": 61,
      "hit": false,
      "t": 53749.999999999985,
      "d": 166.66666666666424,
      "v": 97
    },
    {
      "midi": 64,
      "hit": false,
      "t": 53749.999999999985,
      "d": 166.66666666666424,
      "v": 89
    },
    {
      "midi": 47,
      "hit": false,
      "t": 54020.833333333314,
      "d": 491.66666666666424,
      "v": 99
    },
    {
      "midi": 57,
      "hit": false,
      "t": 54495.833333333314,
      "d": 354.16666666666424,
      "v": 89
    },
    {
      "midi": 62,
      "hit": false,
      "t": 54495.833333333314,
      "d": 354.16666666666424,
      "v": 91
    },
    {
      "midi": 66,
      "hit": false,
      "t": 54499.99999999998,
      "d": 333.33333333333576,
      "v": 94
    },
    {
      "midi": 47,
      "hit": false,
      "t": 54887.49999999998,
      "d": 45.83333333333576,
      "v": 94
    },
    {
      "midi": 62,
      "hit": false,
      "t": 54991.66666666665,
      "d": 116.66666666666424,
      "v": 71
    },
    {
      "midi": 57,
      "hit": false,
      "t": 54991.66666666665,
      "d": 120.83333333332848,
      "v": 71
    },
    {
      "midi": 66,
      "hit": false,
      "t": 54995.833333333314,
      "d": 112.5,
      "v": 78
    },
    {
      "midi": 62,
      "hit": false,
      "t": 55245.833333333314,
      "d": 400,
      "v": 84
    },
    {
      "midi": 57,
      "hit": false,
      "t": 55249.99999999998,
      "d": 383.33333333333576,
      "v": 89
    },
    {
      "midi": 66,
      "hit": false,
      "t": 55249.99999999998,
      "d": 395.83333333333576,
      "v": 91
    },
    {
      "midi": 66,
      "hit": false,
      "t": 55762.49999999998,
      "d": 237.5,
      "v": 96
    },
    {
      "midi": 57,
      "hit": false,
      "t": 55766.66666666664,
      "d": 233.33333333333576,
      "v": 96
    },
    {
      "midi": 62,
      "hit": false,
      "t": 55766.66666666664,
      "d": 233.33333333333576,
      "v": 96
    },
    {
      "midi": 56,
      "hit": false,
      "t": 55999.99999999998,
      "d": 1616.6666666666642,
      "v": 90
    },
    {
      "midi": 61,
      "hit": false,
      "t": 55999.99999999998,
      "d": 1616.6666666666642,
      "v": 90
    },
    {
      "midi": 62,
      "hit": false,
      "t": 55999.99999999998,
      "d": 1616.6666666666642,
      "v": 90
    },
    {
      "midi": 66,
      "hit": false,
      "t": 55999.99999999998,
      "d": 1616.6666666666642,
      "v": 90
    },
    {
      "midi": 42,
      "hit": false,
      "t": 58020.83333333331,
      "d": 491.66666666666424,
      "v": 99
    },
    {
      "midi": 52,
      "hit": false,
      "t": 58495.83333333331,
      "d": 354.16666666666424,
      "v": 89
    },
    {
      "midi": 57,
      "hit": false,
      "t": 58495.83333333331,
      "d": 354.16666666666424,
      "v": 91
    },
    {
      "midi": 61,
      "hit": false,
      "t": 58499.99999999997,
      "d": 333.33333333333576,
      "v": 94
    },
    {
      "midi": 42,
      "hit": false,
      "t": 58887.49999999997,
      "d": 45.83333333333576,
      "v": 94
    },
    {
      "midi": 57,
      "hit": false,
      "t": 58991.66666666664,
      "d": 116.66666666666424,
      "v": 71
    },
    {
      "midi": 52,
      "hit": false,
      "t": 58991.66666666664,
      "d": 120.83333333332848,
      "v": 71
    },
    {
      "midi": 61,
      "hit": false,
      "t": 58995.83333333331,
      "d": 112.5,
      "v": 78
    },
    {
      "midi": 57,
      "hit": false,
      "t": 59245.83333333331,
      "d": 400,
      "v": 84
    },
    {
      "midi": 52,
      "hit": false,
      "t": 59249.99999999997,
      "d": 383.33333333333576,
      "v": 89
    },
    {
      "midi": 61,
      "hit": false,
      "t": 59249.99999999997,
      "d": 395.83333333333576,
      "v": 91
    },
    {
      "midi": 61,
      "hit": false,
      "t": 59762.49999999997,
      "d": 237.5,
      "v": 96
    },
    {
      "midi": 52,
      "hit": false,
      "t": 59766.666666666635,
      "d": 233.33333333333576,
      "v": 96
    },
    {
      "midi": 57,
      "hit": false,
      "t": 59766.666666666635,
      "d": 233.33333333333576,
      "v": 96
    },
    {
      "midi": 50,
      "hit": false,
      "t": 59999.99999999997,
      "d": 600,
      "v": 93
    },
    {
      "midi": 69,
      "hit": false,
      "t": 60499.99999999997,
      "d": 362.5,
      "v": 72
    },
    {
      "midi": 62,
      "hit": false,
      "t": 60499.99999999997,
      "d": 375,
      "v": 78
    },
    {
      "midi": 66,
      "hit": false,
      "t": 60499.99999999997,
      "d": 383.33333333333576,
      "v": 89
    },
    {
      "midi": 57,
      "hit": false,
      "t": 60883.33333333331,
      "d": 66.66666666666424,
      "v": 91
    },
    {
      "midi": 69,
      "hit": false,
      "t": 60999.99999999997,
      "d": 129.16666666666424,
      "v": 82
    },
    {
      "midi": 62,
      "hit": false,
      "t": 60999.99999999997,
      "d": 137.5,
      "v": 84
    },
    {
      "midi": 66,
      "hit": false,
      "t": 60999.99999999997,
      "d": 141.66666666666424,
      "v": 89
    },
    {
      "midi": 62,
      "hit": false,
      "t": 61249.99999999997,
      "d": 437.5,
      "v": 91
    },
    {
      "midi": 66,
      "hit": false,
      "t": 61249.99999999997,
      "d": 441.66666666666424,
      "v": 93
    },
    {
      "midi": 69,
      "hit": false,
      "t": 61249.99999999997,
      "d": 441.66666666666424,
      "v": 86
    },
    {
      "midi": 57,
      "hit": false,
      "t": 61749.99999999997,
      "d": 170.83333333333576,
      "v": 97
    },
    {
      "midi": 66,
      "hit": false,
      "t": 61749.99999999997,
      "d": 229.16666666667152,
      "v": 106
    },
    {
      "midi": 62,
      "hit": false,
      "t": 61749.99999999997,
      "d": 250.00000000000728,
      "v": 99
    },
    {
      "midi": 69,
      "hit": false,
      "t": 61749.99999999997,
      "d": 250.00000000000728,
      "v": 93
    },
    {
      "midi": 42,
      "hit": false,
      "t": 62020.833333333314,
      "d": 491.66666666666424,
      "v": 99
    },
    {
      "midi": 52,
      "hit": false,
      "t": 62495.833333333314,
      "d": 354.16666666666424,
      "v": 89
    },
    {
      "midi": 57,
      "hit": false,
      "t": 62495.833333333314,
      "d": 354.16666666666424,
      "v": 91
    },
    {
      "midi": 61,
      "hit": false,
      "t": 62499.99999999998,
      "d": 333.33333333333576,
      "v": 94
    },
    {
      "midi": 42,
      "hit": false,
      "t": 62887.49999999998,
      "d": 45.83333333333576,
      "v": 94
    },
    {
      "midi": 57,
      "hit": false,
      "t": 62991.66666666665,
      "d": 116.66666666666424,
      "v": 71
    },
    {
      "midi": 52,
      "hit": false,
      "t": 62991.66666666665,
      "d": 120.83333333332848,
      "v": 71
    },
    {
      "midi": 61,
      "hit": false,
      "t": 62995.833333333314,
      "d": 112.5,
      "v": 78
    },
    {
      "midi": 57,
      "hit": false,
      "t": 63245.833333333314,
      "d": 400,
      "v": 84
    },
    {
      "midi": 52,
      "hit": false,
      "t": 63249.99999999998,
      "d": 383.33333333333576,
      "v": 89
    },
    {
      "midi": 61,
      "hit": false,
      "t": 63249.99999999998,
      "d": 395.83333333333576,
      "v": 91
    },
    {
      "midi": 61,
      "hit": false,
      "t": 63762.49999999998,
      "d": 237.5,
      "v": 96
    },
    {
      "midi": 52,
      "hit": false,
      "t": 63766.66666666664,
      "d": 233.33333333333576,
      "v": 96
    },
    {
      "midi": 57,
      "hit": false,
      "t": 63766.66666666664,
      "d": 233.33333333333576,
      "v": 96
    },
    {
      "midi": 50,
      "hit": false,
      "t": 63999.99999999998,
      "d": 600,
      "v": 93
    },
    {
      "midi": 69,
      "hit": false,
      "t": 64499.99999999998,
      "d": 362.5,
      "v": 72
    },
    {
      "midi": 62,
      "hit": false,
      "t": 64499.99999999998,
      "d": 375,
      "v": 78
    },
    {
      "midi": 66,
      "hit": false,
      "t": 64499.99999999998,
      "d": 383.33333333333576,
      "v": 89
    },
    {
      "midi": 57,
      "hit": false,
      "t": 64883.333333333314,
      "d": 66.66666666666424,
      "v": 91
    },
    {
      "midi": 69,
      "hit": false,
      "t": 64999.99999999998,
      "d": 129.16666666666424,
      "v": 82
    },
    {
      "midi": 62,
      "hit": false,
      "t": 64999.99999999998,
      "d": 137.5,
      "v": 84
    },
    {
      "midi": 66,
      "hit": false,
      "t": 64999.99999999998,
      "d": 141.66666666666424,
      "v": 89
    },
    {
      "midi": 62,
      "hit": false,
      "t": 65249.99999999998,
      "d": 437.4999999999927,
      "v": 91
    },
    {
      "midi": 66,
      "hit": false,
      "t": 65249.99999999998,
      "d": 441.66666666666424,
      "v": 93
    },
    {
      "midi": 69,
      "hit": false,
      "t": 65249.99999999998,
      "d": 441.66666666666424,
      "v": 86
    },
    {
      "midi": 57,
      "hit": false,
      "t": 65749.99999999997,
      "d": 170.83333333332848,
      "v": 97
    },
    {
      "midi": 66,
      "hit": false,
      "t": 65749.99999999997,
      "d": 229.16666666665697,
      "v": 106
    },
    {
      "midi": 62,
      "hit": false,
      "t": 65749.99999999997,
      "d": 249.99999999998545,
      "v": 99
    },
    {
      "midi": 69,
      "hit": false,
      "t": 65749.99999999997,
      "d": 249.99999999998545,
      "v": 93
    },
    {
      "midi": 42,
      "hit": false,
      "t": 66020.83333333328,
      "d": 491.6666666666715,
      "v": 99
    },
    {
      "midi": 52,
      "hit": false,
      "t": 66495.83333333328,
      "d": 354.1666666666715,
      "v": 89
    },
    {
      "midi": 57,
      "hit": false,
      "t": 66495.83333333328,
      "d": 354.1666666666715,
      "v": 91
    },
    {
      "midi": 61,
      "hit": false,
      "t": 66499.99999999996,
      "d": 333.3333333333285,
      "v": 94
    },
    {
      "midi": 42,
      "hit": false,
      "t": 66887.49999999996,
      "d": 45.83333333332848,
      "v": 94
    },
    {
      "midi": 57,
      "hit": false,
      "t": 66991.66666666661,
      "d": 116.66666666667152,
      "v": 71
    },
    {
      "midi": 52,
      "hit": false,
      "t": 66991.66666666661,
      "d": 120.83333333334303,
      "v": 71
    },
    {
      "midi": 61,
      "hit": false,
      "t": 66995.83333333328,
      "d": 112.5,
      "v": 78
    },
    {
      "midi": 57,
      "hit": false,
      "t": 67245.83333333328,
      "d": 400,
      "v": 84
    },
    {
      "midi": 52,
      "hit": false,
      "t": 67249.99999999996,
      "d": 383.3333333333285,
      "v": 89
    },
    {
      "midi": 61,
      "hit": false,
      "t": 67249.99999999996,
      "d": 395.8333333333285,
      "v": 91
    },
    {
      "midi": 61,
      "hit": false,
      "t": 67762.49999999996,
      "d": 237.5,
      "v": 96
    },
    {
      "midi": 52,
      "hit": false,
      "t": 67766.66666666663,
      "d": 233.33333333332848,
      "v": 96
    },
    {
      "midi": 57,
      "hit": false,
      "t": 67766.66666666663,
      "d": 233.33333333332848,
      "v": 96
    },
    {
      "midi": 56,
      "hit": false,
      "t": 67999.99999999996,
      "d": 1616.6666666666715,
      "v": 90
    },
    {
      "midi": 62,
      "hit": false,
      "t": 67999.99999999996,
      "d": 1616.6666666666715,
      "v": 90
    },
    {
      "midi": 65,
      "hit": false,
      "t": 67999.99999999996,
      "d": 1616.6666666666715,
      "v": 90
    },
    {
      "midi": 72,
      "hit": false,
      "t": 67999.99999999996,
      "d": 1616.6666666666715,
      "v": 90
    },
    {
      "midi": 45,
      "hit": false,
      "t": 69999.99999999996,
      "d": 600,
      "v": 93
    },
    {
      "midi": 64,
      "hit": false,
      "t": 70499.99999999996,
      "d": 362.5,
      "v": 72
    },
    {
      "midi": 57,
      "hit": false,
      "t": 70499.99999999996,
      "d": 375,
      "v": 78
    },
    {
      "midi": 61,
      "hit": false,
      "t": 70499.99999999996,
      "d": 383.3333333333285,
      "v": 89
    },
    {
      "midi": 52,
      "hit": false,
      "t": 70883.33333333328,
      "d": 66.66666666667152,
      "v": 91
    },
    {
      "midi": 64,
      "hit": false,
      "t": 70999.99999999996,
      "d": 129.16666666667152,
      "v": 82
    },
    {
      "midi": 57,
      "hit": false,
      "t": 70999.99999999996,
      "d": 137.5,
      "v": 84
    },
    {
      "midi": 61,
      "hit": false,
      "t": 70999.99999999996,
      "d": 141.66666666667152,
      "v": 89
    },
    {
      "midi": 57,
      "hit": false,
      "t": 71249.99999999996,
      "d": 437.5,
      "v": 91
    },
    {
      "midi": 61,
      "hit": false,
      "t": 71249.99999999996,
      "d": 441.6666666666715,
      "v": 93
    },
    {
      "midi": 64,
      "hit": false,
      "t": 71249.99999999996,
      "d": 441.6666666666715,
      "v": 86
    },
    {
      "midi": 52,
      "hit": false,
      "t": 71749.99999999996,
      "d": 170.83333333332848,
      "v": 97
    },
    {
      "midi": 61,
      "hit": false,
      "t": 71749.99999999996,
      "d": 229.16666666665697,
      "v": 106
    },
    {
      "midi": 57,
      "hit": false,
      "t": 71749.99999999996,
      "d": 249.99999999998545,
      "v": 99
    },
    {
      "midi": 64,
      "hit": false,
      "t": 71749.99999999996,
      "d": 249.99999999998545,
      "v": 93
    },
    {
      "midi": 45,
      "hit": false,
      "t": 71999.99999999994,
      "d": 654.1666666666715,
      "v": 95
    },
    {
      "midi": 63,
      "hit": false,
      "t": 72499.99999999994,
      "d": 62.5,
      "v": 56
    },
    {
      "midi": 57,
      "hit": false,
      "t": 72499.99999999994,
      "d": 391.6666666666715,
      "v": 91
    },
    {
      "midi": 64,
      "hit": false,
      "t": 72499.99999999994,
      "d": 400,
      "v": 78
    },
    {
      "midi": 61,
      "hit": false,
      "t": 72499.99999999994,
      "d": 404.1666666666715,
      "v": 95
    },
    {
      "midi": 52,
      "hit": false,
      "t": 72904.16666666661,
      "d": 79.16666666667152,
      "v": 102
    },
    {
      "midi": 57,
      "hit": false,
      "t": 72999.99999999996,
      "d": 116.66666666667152,
      "v": 86
    },
    {
      "midi": 61,
      "hit": false,
      "t": 72999.99999999996,
      "d": 133.33333333334303,
      "v": 95
    },
    {
      "midi": 64,
      "hit": false,
      "t": 72999.99999999996,
      "d": 133.33333333334303,
      "v": 91
    },
    {
      "midi": 64,
      "hit": false,
      "t": 73249.99999999997,
      "d": 333.3333333333285,
      "v": 93
    },
    {
      "midi": 57,
      "hit": false,
      "t": 73249.99999999997,
      "d": 350,
      "v": 97
    },
    {
      "midi": 61,
      "hit": false,
      "t": 73249.99999999997,
      "d": 362.5,
      "v": 106
    },
    {
      "midi": 57,
      "hit": false,
      "t": 73749.99999999997,
      "d": 162.5,
      "v": 84
    },
    {
      "midi": 52,
      "hit": false,
      "t": 73749.99999999997,
      "d": 166.66666666667152,
      "v": 104
    },
    {
      "midi": 61,
      "hit": false,
      "t": 73749.99999999997,
      "d": 166.66666666667152,
      "v": 97
    },
    {
      "midi": 64,
      "hit": false,
      "t": 73749.99999999997,
      "d": 166.66666666667152,
      "v": 89
    },
    {
      "midi": 54,
      "hit": false,
      "t": 73999.99999999997,
      "d": 958.3333333333285,
      "v": 95
    },
    {
      "midi": 56,
      "hit": false,
      "t": 73999.99999999997,
      "d": 958.3333333333285,
      "v": 95
    },
    {
      "midi": 60,
      "hit": false,
      "t": 73999.99999999997,
      "d": 958.3333333333285,
      "v": 95
    },
    {
      "midi": 64,
      "hit": false,
      "t": 73999.99999999997,
      "d": 958.3333333333285,
      "v": 95
    },
    {
      "midi": 71,
      "hit": false,
      "t": 73999.99999999997,
      "d": 958.3333333333285,
      "v": 95
    },
    {
      "midi": 60,
      "hit": false,
      "t": 74999.99999999997,
      "d": 662.5,
      "v": 86
    },
    {
      "midi": 62,
      "hit": false,
      "t": 74999.99999999997,
      "d": 662.5,
      "v": 86
    },
    {
      "midi": 66,
      "hit": false,
      "t": 74999.99999999997,
      "d": 662.5,
      "v": 86
    },
    {
      "midi": 69,
      "hit": false,
      "t": 74999.99999999997,
      "d": 662.5,
      "v": 86
    },
    {
      "midi": 54,
      "hit": false,
      "t": 75749.99999999997,
      "d": 1012.5,
      "v": 95
    },
    {
      "midi": 56,
      "hit": false,
      "t": 75749.99999999997,
      "d": 1012.5,
      "v": 95
    },
    {
      "midi": 60,
      "hit": false,
      "t": 75749.99999999997,
      "d": 1012.5,
      "v": 95
    },
    {
      "midi": 64,
      "hit": false,
      "t": 75749.99999999997,
      "d": 1012.5,
      "v": 95
    },
    {
      "midi": 71,
      "hit": false,
      "t": 75749.99999999997,
      "d": 1012.5,
      "v": 95
    },
    {
      "midi": 60,
      "hit": false,
      "t": 76762.49999999997,
      "d": 79.16666666667152,
      "v": 90
    },
    {
      "midi": 62,
      "hit": false,
      "t": 76762.49999999997,
      "d": 79.16666666667152,
      "v": 90
    },
    {
      "midi": 66,
      "hit": false,
      "t": 76762.49999999997,
      "d": 79.16666666667152,
      "v": 90
    },
    {
      "midi": 69,
      "hit": false,
      "t": 76762.49999999997,
      "d": 79.16666666667152,
      "v": 90
    },
    {
      "midi": 54,
      "hit": false,
      "t": 76999.99999999997,
      "d": 287.5,
      "v": 88
    },
    {
      "midi": 56,
      "hit": false,
      "t": 76999.99999999997,
      "d": 287.5,
      "v": 88
    },
    {
      "midi": 60,
      "hit": false,
      "t": 76999.99999999997,
      "d": 287.5,
      "v": 88
    },
    {
      "midi": 64,
      "hit": false,
      "t": 76999.99999999997,
      "d": 287.5,
      "v": 88
    },
    {
      "midi": 71,
      "hit": false,
      "t": 76999.99999999997,
      "d": 287.5,
      "v": 88
    },
    {
      "midi": 60,
      "hit": false,
      "t": 77499.99999999997,
      "d": 262.5,
      "v": 90
    },
    {
      "midi": 62,
      "hit": false,
      "t": 77499.99999999997,
      "d": 262.5,
      "v": 90
    },
    {
      "midi": 66,
      "hit": false,
      "t": 77499.99999999997,
      "d": 262.5,
      "v": 90
    },
    {
      "midi": 69,
      "hit": false,
      "t": 77499.99999999997,
      "d": 262.5,
      "v": 90
    },
    {
      "midi": 54,
      "hit": false,
      "t": 78249.99999999997,
      "d": 595.8333333333285,
      "v": 104
    },
    {
      "midi": 56,
      "hit": false,
      "t": 78249.99999999997,
      "d": 595.8333333333285,
      "v": 104
    },
    {
      "midi": 60,
      "hit": false,
      "t": 78249.99999999997,
      "d": 595.8333333333285,
      "v": 104
    },
    {
      "midi": 64,
      "hit": false,
      "t": 78249.99999999997,
      "d": 595.8333333333285,
      "v": 104
    },
    {
      "midi": 71,
      "hit": false,
      "t": 78249.99999999997,
      "d": 595.8333333333285,
      "v": 104
    },
    {
      "midi": 60,
      "hit": false,
      "t": 78999.99999999997,
      "d": 133.33333333332848,
      "v": 85
    },
    {
      "midi": 62,
      "hit": false,
      "t": 78999.99999999997,
      "d": 133.33333333332848,
      "v": 85
    },
    {
      "midi": 66,
      "hit": false,
      "t": 78999.99999999997,
      "d": 133.33333333332848,
      "v": 85
    },
    {
      "midi": 69,
      "hit": false,
      "t": 78999.99999999997,
      "d": 133.33333333332848,
      "v": 85
    },
    {
      "midi": 54,
      "hit": false,
      "t": 79249.99999999997,
      "d": 104.16666666667152,
      "v": 91
    },
    {
      "midi": 56,
      "hit": false,
      "t": 79249.99999999997,
      "d": 104.16666666667152,
      "v": 91
    },
    {
      "midi": 60,
      "hit": false,
      "t": 79249.99999999997,
      "d": 104.16666666667152,
      "v": 91
    },
    {
      "midi": 64,
      "hit": false,
      "t": 79249.99999999997,
      "d": 104.16666666667152,
      "v": 91
    },
    {
      "midi": 71,
      "hit": false,
      "t": 79249.99999999997,
      "d": 104.16666666667152,
      "v": 91
    },
    {
      "midi": 60,
      "hit": false,
      "t": 79499.99999999997,
      "d": 112.5,
      "v": 70
    },
    {
      "midi": 62,
      "hit": false,
      "t": 79499.99999999997,
      "d": 112.5,
      "v": 70
    },
    {
      "midi": 66,
      "hit": false,
      "t": 79499.99999999997,
      "d": 112.5,
      "v": 70
    },
    {
      "midi": 69,
      "hit": false,
      "t": 79499.99999999997,
      "d": 112.5,
      "v": 70
    },
    {
      "midi": 54,
      "hit": false,
      "t": 79749.99999999997,
      "d": 116.66666666667152,
      "v": 102
    },
    {
      "midi": 56,
      "hit": false,
      "t": 79749.99999999997,
      "d": 116.66666666667152,
      "v": 102
    },
    {
      "midi": 60,
      "hit": false,
      "t": 79749.99999999997,
      "d": 116.66666666667152,
      "v": 102
    },
    {
      "midi": 64,
      "hit": false,
      "t": 79749.99999999997,
      "d": 116.66666666667152,
      "v": 102
    },
    {
      "midi": 71,
      "hit": false,
      "t": 79749.99999999997,
      "d": 116.66666666667152,
      "v": 102
    },
    {
      "midi": 56,
      "hit": false,
      "t": 80249.99999999997,
      "d": 595.8333333333285,
      "v": 104
    },
    {
      "midi": 59,
      "hit": false,
      "t": 80249.99999999997,
      "d": 595.8333333333285,
      "v": 104
    },
    {
      "midi": 64,
      "hit": false,
      "t": 80249.99999999997,
      "d": 595.8333333333285,
      "v": 104
    },
    {
      "midi": 56,
      "hit": false,
      "t": 80999.99999999997,
      "d": 133.33333333332848,
      "v": 85
    },
    {
      "midi": 59,
      "hit": false,
      "t": 80999.99999999997,
      "d": 133.33333333332848,
      "v": 85
    },
    {
      "midi": 64,
      "hit": false,
      "t": 80999.99999999997,
      "d": 133.33333333332848,
      "v": 85
    },
    {
      "midi": 56,
      "hit": false,
      "t": 81249.99999999997,
      "d": 104.16666666667152,
      "v": 91
    },
    {
      "midi": 59,
      "hit": false,
      "t": 81249.99999999997,
      "d": 104.16666666667152,
      "v": 91
    },
    {
      "midi": 64,
      "hit": false,
      "t": 81249.99999999997,
      "d": 104.16666666667152,
      "v": 91
    },
    {
      "midi": 56,
      "hit": false,
      "t": 81499.99999999997,
      "d": 112.5,
      "v": 70
    },
    {
      "midi": 59,
      "hit": false,
      "t": 81499.99999999997,
      "d": 112.5,
      "v": 70
    },
    {
      "midi": 64,
      "hit": false,
      "t": 81499.99999999997,
      "d": 112.5,
      "v": 70
    },
    {
      "midi": 56,
      "hit": false,
      "t": 81749.99999999997,
      "d": 116.66666666667152,
      "v": 102
    },
    {
      "midi": 59,
      "hit": false,
      "t": 81749.99999999997,
      "d": 116.66666666667152,
      "v": 102
    },
    {
      "midi": 64,
      "hit": false,
      "t": 81749.99999999997,
      "d": 116.66666666667152,
      "v": 102
    },
    {
      "midi": 54,
      "hit": false,
      "t": 81999.99999999997,
      "d": 958.3333333333285,
      "v": 95
    },
    {
      "midi": 56,
      "hit": false,
      "t": 81999.99999999997,
      "d": 958.3333333333285,
      "v": 95
    },
    {
      "midi": 60,
      "hit": false,
      "t": 81999.99999999997,
      "d": 958.3333333333285,
      "v": 95
    },
    {
      "midi": 64,
      "hit": false,
      "t": 81999.99999999997,
      "d": 958.3333333333285,
      "v": 95
    },
    {
      "midi": 71,
      "hit": false,
      "t": 81999.99999999997,
      "d": 958.3333333333285,
      "v": 95
    },
    {
      "midi": 60,
      "hit": false,
      "t": 82999.99999999997,
      "d": 662.5,
      "v": 86
    },
    {
      "midi": 62,
      "hit": false,
      "t": 82999.99999999997,
      "d": 662.5,
      "v": 86
    },
    {
      "midi": 66,
      "hit": false,
      "t": 82999.99999999997,
      "d": 662.5,
      "v": 86
    },
    {
      "midi": 69,
      "hit": false,
      "t": 82999.99999999997,
      "d": 662.5,
      "v": 86
    },
    {
      "midi": 54,
      "hit": false,
      "t": 83749.99999999997,
      "d": 1012.5,
      "v": 95
    },
    {
      "midi": 56,
      "hit": false,
      "t": 83749.99999999997,
      "d": 1012.5,
      "v": 95
    },
    {
      "midi": 60,
      "hit": false,
      "t": 83749.99999999997,
      "d": 1012.5,
      "v": 95
    },
    {
      "midi": 64,
      "hit": false,
      "t": 83749.99999999997,
      "d": 1012.5,
      "v": 95
    },
    {
      "midi": 71,
      "hit": false,
      "t": 83749.99999999997,
      "d": 1012.5,
      "v": 95
    },
    {
      "midi": 60,
      "hit": false,
      "t": 84762.49999999997,
      "d": 79.16666666667152,
      "v": 90
    },
    {
      "midi": 62,
      "hit": false,
      "t": 84762.49999999997,
      "d": 79.16666666667152,
      "v": 90
    },
    {
      "midi": 66,
      "hit": false,
      "t": 84762.49999999997,
      "d": 79.16666666667152,
      "v": 90
    },
    {
      "midi": 69,
      "hit": false,
      "t": 84762.49999999997,
      "d": 79.16666666667152,
      "v": 90
    },
    {
      "midi": 54,
      "hit": false,
      "t": 84999.99999999997,
      "d": 287.5,
      "v": 88
    },
    {
      "midi": 56,
      "hit": false,
      "t": 84999.99999999997,
      "d": 287.5,
      "v": 88
    },
    {
      "midi": 60,
      "hit": false,
      "t": 84999.99999999997,
      "d": 287.5,
      "v": 88
    },
    {
      "midi": 64,
      "hit": false,
      "t": 84999.99999999997,
      "d": 287.5,
      "v": 88
    },
    {
      "midi": 71,
      "hit": false,
      "t": 84999.99999999997,
      "d": 287.5,
      "v": 88
    },
    {
      "midi": 60,
      "hit": false,
      "t": 85499.99999999997,
      "d": 262.5,
      "v": 90
    },
    {
      "midi": 62,
      "hit": false,
      "t": 85499.99999999997,
      "d": 262.5,
      "v": 90
    },
    {
      "midi": 66,
      "hit": false,
      "t": 85499.99999999997,
      "d": 262.5,
      "v": 90
    },
    {
      "midi": 69,
      "hit": false,
      "t": 85499.99999999997,
      "d": 262.5,
      "v": 90
    },
    {
      "midi": 54,
      "hit": false,
      "t": 86249.99999999997,
      "d": 595.8333333333285,
      "v": 104
    },
    {
      "midi": 60,
      "hit": false,
      "t": 86249.99999999997,
      "d": 595.8333333333285,
      "v": 104
    },
    {
      "midi": 64,
      "hit": false,
      "t": 86249.99999999997,
      "d": 595.8333333333285,
      "v": 104
    },
    {
      "midi": 71,
      "hit": false,
      "t": 86249.99999999997,
      "d": 595.8333333333285,
      "v": 104
    },
    {
      "midi": 60,
      "hit": false,
      "t": 86999.99999999997,
      "d": 133.33333333332848,
      "v": 85
    },
    {
      "midi": 62,
      "hit": false,
      "t": 86999.99999999997,
      "d": 133.33333333332848,
      "v": 85
    },
    {
      "midi": 66,
      "hit": false,
      "t": 86999.99999999997,
      "d": 133.33333333332848,
      "v": 85
    },
    {
      "midi": 69,
      "hit": false,
      "t": 86999.99999999997,
      "d": 133.33333333332848,
      "v": 85
    },
    {
      "midi": 54,
      "hit": false,
      "t": 87249.99999999997,
      "d": 104.16666666667152,
      "v": 91
    },
    {
      "midi": 60,
      "hit": false,
      "t": 87249.99999999997,
      "d": 104.16666666667152,
      "v": 91
    },
    {
      "midi": 64,
      "hit": false,
      "t": 87249.99999999997,
      "d": 104.16666666667152,
      "v": 91
    },
    {
      "midi": 71,
      "hit": false,
      "t": 87249.99999999997,
      "d": 104.16666666667152,
      "v": 91
    },
    {
      "midi": 60,
      "hit": false,
      "t": 87499.99999999997,
      "d": 112.5,
      "v": 70
    },
    {
      "midi": 62,
      "hit": false,
      "t": 87499.99999999997,
      "d": 112.5,
      "v": 70
    },
    {
      "midi": 66,
      "hit": false,
      "t": 87499.99999999997,
      "d": 112.5,
      "v": 70
    },
    {
      "midi": 69,
      "hit": false,
      "t": 87499.99999999997,
      "d": 112.5,
      "v": 70
    },
    {
      "midi": 54,
      "hit": false,
      "t": 87749.99999999997,
      "d": 116.66666666667152,
      "v": 102
    },
    {
      "midi": 60,
      "hit": false,
      "t": 87749.99999999997,
      "d": 116.66666666667152,
      "v": 102
    },
    {
      "midi": 64,
      "hit": false,
      "t": 87749.99999999997,
      "d": 116.66666666667152,
      "v": 102
    },
    {
      "midi": 71,
      "hit": false,
      "t": 87749.99999999997,
      "d": 116.66666666667152,
      "v": 102
    },
    {
      "midi": 56,
      "hit": false,
      "t": 87999.99999999997,
      "d": 541.6666666666715,
      "v": 89
    },
    {
      "midi": 59,
      "hit": false,
      "t": 87999.99999999997,
      "d": 541.6666666666715,
      "v": 89
    },
    {
      "midi": 64,
      "hit": false,
      "t": 87999.99999999997,
      "d": 541.6666666666715,
      "v": 89
    },
    {
      "midi": 56,
      "hit": false,
      "t": 88749.99999999997,
      "d": 1041.6666666666715,
      "v": 92
    },
    {
      "midi": 59,
      "hit": false,
      "t": 88749.99999999997,
      "d": 1041.6666666666715,
      "v": 92
    },
    {
      "midi": 64,
      "hit": false,
      "t": 88749.99999999997,
      "d": 1041.6666666666715,
      "v": 92
    },
    {
      "midi": 56,
      "hit": false,
      "t": 89999.99999999997,
      "d": 1891.6666666666715,
      "v": 90
    },
    {
      "midi": 59,
      "hit": false,
      "t": 89999.99999999997,
      "d": 1891.6666666666715,
      "v": 90
    },
    {
      "midi": 64,
      "hit": false,
      "t": 89999.99999999997,
      "d": 1891.6666666666715,
      "v": 90
    },
    {
      "midi": 45,
      "hit": false,
      "t": 91999.99999999997,
      "d": 600,
      "v": 93
    },
    {
      "midi": 64,
      "hit": false,
      "t": 92499.99999999997,
      "d": 362.5,
      "v": 72
    },
    {
      "midi": 57,
      "hit": false,
      "t": 92499.99999999997,
      "d": 375,
      "v": 78
    },
    {
      "midi": 61,
      "hit": false,
      "t": 92499.99999999997,
      "d": 383.3333333333285,
      "v": 89
    },
    {
      "midi": 52,
      "hit": false,
      "t": 92883.3333333333,
      "d": 66.66666666667152,
      "v": 91
    },
    {
      "midi": 64,
      "hit": false,
      "t": 92999.99999999997,
      "d": 129.16666666667152,
      "v": 82
    },
    {
      "midi": 57,
      "hit": false,
      "t": 92999.99999999997,
      "d": 137.5,
      "v": 84
    },
    {
      "midi": 61,
      "hit": false,
      "t": 92999.99999999997,
      "d": 141.66666666667152,
      "v": 89
    },
    {
      "midi": 57,
      "hit": false,
      "t": 93249.99999999997,
      "d": 437.5,
      "v": 91
    },
    {
      "midi": 61,
      "hit": false,
      "t": 93249.99999999997,
      "d": 441.6666666666715,
      "v": 93
    },
    {
      "midi": 64,
      "hit": false,
      "t": 93249.99999999997,
      "d": 441.6666666666715,
      "v": 86
    },
    {
      "midi": 52,
      "hit": false,
      "t": 93749.99999999997,
      "d": 170.83333333332848,
      "v": 97
    },
    {
      "midi": 61,
      "hit": false,
      "t": 93749.99999999997,
      "d": 229.16666666665697,
      "v": 106
    },
    {
      "midi": 57,
      "hit": false,
      "t": 93749.99999999997,
      "d": 249.99999999998545,
      "v": 99
    },
    {
      "midi": 64,
      "hit": false,
      "t": 93749.99999999997,
      "d": 249.99999999998545,
      "v": 93
    },
    {
      "midi": 45,
      "hit": false,
      "t": 93999.99999999996,
      "d": 654.1666666666715,
      "v": 95
    },
    {
      "midi": 63,
      "hit": false,
      "t": 94499.99999999996,
      "d": 62.5,
      "v": 56
    },
    {
      "midi": 57,
      "hit": false,
      "t": 94499.99999999996,
      "d": 391.6666666666715,
      "v": 91
    },
    {
      "midi": 64,
      "hit": false,
      "t": 94499.99999999996,
      "d": 400,
      "v": 78
    },
    {
      "midi": 61,
      "hit": false,
      "t": 94499.99999999996,
      "d": 404.1666666666715,
      "v": 95
    },
    {
      "midi": 52,
      "hit": false,
      "t": 94904.16666666663,
      "d": 79.16666666667152,
      "v": 102
    },
    {
      "midi": 57,
      "hit": false,
      "t": 94999.99999999997,
      "d": 116.66666666667152,
      "v": 86
    },
    {
      "midi": 61,
      "hit": false,
      "t": 94999.99999999997,
      "d": 133.33333333334303,
      "v": 95
    },
    {
      "midi": 64,
      "hit": false,
      "t": 94999.99999999997,
      "d": 133.33333333334303,
      "v": 91
    },
    {
      "midi": 64,
      "hit": false,
      "t": 95249.99999999999,
      "d": 333.3333333333285,
      "v": 93
    },
    {
      "midi": 57,
      "hit": false,
      "t": 95249.99999999999,
      "d": 350,
      "v": 97
    },
    {
      "midi": 61,
      "hit": false,
      "t": 95249.99999999999,
      "d": 362.5,
      "v": 106
    },
    {
      "midi": 57,
      "hit": false,
      "t": 95749.99999999999,
      "d": 162.5,
      "v": 84
    },
    {
      "midi": 52,
      "hit": false,
      "t": 95749.99999999999,
      "d": 166.66666666667152,
      "v": 104
    },
    {
      "midi": 61,
      "hit": false,
      "t": 95749.99999999999,
      "d": 166.66666666667152,
      "v": 97
    },
    {
      "midi": 64,
      "hit": false,
      "t": 95749.99999999999,
      "d": 166.66666666667152,
      "v": 89
    },
    {
      "midi": 45,
      "hit": false,
      "t": 95999.99999999999,
      "d": 600,
      "v": 93
    },
    {
      "midi": 64,
      "hit": false,
      "t": 96499.99999999999,
      "d": 362.5,
      "v": 72
    },
    {
      "midi": 57,
      "hit": false,
      "t": 96499.99999999999,
      "d": 375,
      "v": 78
    },
    {
      "midi": 61,
      "hit": false,
      "t": 96499.99999999999,
      "d": 383.3333333333285,
      "v": 89
    },
    {
      "midi": 52,
      "hit": false,
      "t": 96883.33333333331,
      "d": 66.66666666667152,
      "v": 91
    },
    {
      "midi": 64,
      "hit": false,
      "t": 96999.99999999999,
      "d": 129.16666666667152,
      "v": 82
    },
    {
      "midi": 57,
      "hit": false,
      "t": 96999.99999999999,
      "d": 137.5,
      "v": 84
    },
    {
      "midi": 61,
      "hit": false,
      "t": 96999.99999999999,
      "d": 141.66666666667152,
      "v": 89
    },
    {
      "midi": 57,
      "hit": false,
      "t": 97249.99999999999,
      "d": 437.5,
      "v": 91
    },
    {
      "midi": 61,
      "hit": false,
      "t": 97249.99999999999,
      "d": 441.6666666666715,
      "v": 93
    },
    {
      "midi": 64,
      "hit": false,
      "t": 97249.99999999999,
      "d": 441.6666666666715,
      "v": 86
    },
    {
      "midi": 52,
      "hit": false,
      "t": 97749.99999999999,
      "d": 170.83333333332848,
      "v": 97
    },
    {
      "midi": 61,
      "hit": false,
      "t": 97749.99999999999,
      "d": 229.16666666665697,
      "v": 106
    },
    {
      "midi": 57,
      "hit": false,
      "t": 97749.99999999999,
      "d": 249.99999999998545,
      "v": 99
    },
    {
      "midi": 64,
      "hit": false,
      "t": 97749.99999999999,
      "d": 249.99999999998545,
      "v": 93
    },
    {
      "midi": 45,
      "hit": false,
      "t": 97999.99999999997,
      "d": 654.1666666666715,
      "v": 95
    },
    {
      "midi": 63,
      "hit": false,
      "t": 98499.99999999997,
      "d": 62.5,
      "v": 56
    },
    {
      "midi": 57,
      "hit": false,
      "t": 98499.99999999997,
      "d": 391.6666666666715,
      "v": 91
    },
    {
      "midi": 64,
      "hit": false,
      "t": 98499.99999999997,
      "d": 400,
      "v": 78
    },
    {
      "midi": 61,
      "hit": false,
      "t": 98499.99999999997,
      "d": 404.1666666666715,
      "v": 95
    },
    {
      "midi": 52,
      "hit": false,
      "t": 98904.16666666664,
      "d": 79.16666666667152,
      "v": 102
    },
    {
      "midi": 57,
      "hit": false,
      "t": 98999.99999999999,
      "d": 116.66666666667152,
      "v": 86
    },
    {
      "midi": 61,
      "hit": false,
      "t": 98999.99999999999,
      "d": 133.33333333334303,
      "v": 95
    },
    {
      "midi": 64,
      "hit": false,
      "t": 98999.99999999999,
      "d": 133.33333333334303,
      "v": 91
    },
    {
      "midi": 64,
      "hit": false,
      "t": 99250,
      "d": 333.3333333333285,
      "v": 93
    },
    {
      "midi": 57,
      "hit": false,
      "t": 99250,
      "d": 350,
      "v": 97
    },
    {
      "midi": 61,
      "hit": false,
      "t": 99250,
      "d": 362.5,
      "v": 106
    },
    {
      "midi": 57,
      "hit": false,
      "t": 99750,
      "d": 162.5,
      "v": 84
    },
    {
      "midi": 52,
      "hit": false,
      "t": 99750,
      "d": 166.66666666667152,
      "v": 104
    },
    {
      "midi": 61,
      "hit": false,
      "t": 99750,
      "d": 166.66666666667152,
      "v": 97
    },
    {
      "midi": 64,
      "hit": false,
      "t": 99750,
      "d": 166.66666666667152,
      "v": 89
    },
    {
      "midi": 45,
      "hit": false,
      "t": 100000,
      "d": 600,
      "v": 93
    },
    {
      "midi": 64,
      "hit": false,
      "t": 100500,
      "d": 362.5,
      "v": 72
    },
    {
      "midi": 57,
      "hit": false,
      "t": 100500,
      "d": 375,
      "v": 78
    },
    {
      "midi": 61,
      "hit": false,
      "t": 100500,
      "d": 383.3333333333285,
      "v": 89
    },
    {
      "midi": 52,
      "hit": false,
      "t": 100883.33333333333,
      "d": 66.66666666667152,
      "v": 91
    },
    {
      "midi": 64,
      "hit": false,
      "t": 101000,
      "d": 129.16666666667152,
      "v": 82
    },
    {
      "midi": 57,
      "hit": false,
      "t": 101000,
      "d": 137.5,
      "v": 84
    },
    {
      "midi": 61,
      "hit": false,
      "t": 101000,
      "d": 141.66666666667152,
      "v": 89
    },
    {
      "midi": 57,
      "hit": false,
      "t": 101250,
      "d": 437.5,
      "v": 91
    },
    {
      "midi": 61,
      "hit": false,
      "t": 101250,
      "d": 441.6666666666715,
      "v": 93
    },
    {
      "midi": 64,
      "hit": false,
      "t": 101250,
      "d": 441.6666666666715,
      "v": 86
    },
    {
      "midi": 52,
      "hit": false,
      "t": 101750,
      "d": 170.83333333332848,
      "v": 97
    },
    {
      "midi": 61,
      "hit": false,
      "t": 101750,
      "d": 229.16666666665697,
      "v": 106
    },
    {
      "midi": 57,
      "hit": false,
      "t": 101750,
      "d": 249.99999999998545,
      "v": 99
    },
    {
      "midi": 64,
      "hit": false,
      "t": 101750,
      "d": 249.99999999998545,
      "v": 93
    },
    {
      "midi": 45,
      "hit": false,
      "t": 101999.99999999999,
      "d": 654.1666666666715,
      "v": 95
    },
    {
      "midi": 63,
      "hit": false,
      "t": 102499.99999999999,
      "d": 62.5,
      "v": 56
    },
    {
      "midi": 57,
      "hit": false,
      "t": 102499.99999999999,
      "d": 391.6666666666715,
      "v": 91
    },
    {
      "midi": 64,
      "hit": false,
      "t": 102499.99999999999,
      "d": 400,
      "v": 78
    },
    {
      "midi": 61,
      "hit": false,
      "t": 102499.99999999999,
      "d": 404.1666666666715,
      "v": 95
    },
    {
      "midi": 52,
      "hit": false,
      "t": 102904.16666666666,
      "d": 79.16666666667152,
      "v": 102
    },
    {
      "midi": 57,
      "hit": false,
      "t": 103000,
      "d": 116.66666666667152,
      "v": 86
    },
    {
      "midi": 61,
      "hit": false,
      "t": 103000,
      "d": 133.33333333334303,
      "v": 95
    },
    {
      "midi": 64,
      "hit": false,
      "t": 103000,
      "d": 133.33333333334303,
      "v": 91
    },
    {
      "midi": 64,
      "hit": false,
      "t": 103250.00000000001,
      "d": 333.3333333333285,
      "v": 93
    },
    {
      "midi": 57,
      "hit": false,
      "t": 103250.00000000001,
      "d": 350,
      "v": 97
    },
    {
      "midi": 61,
      "hit": false,
      "t": 103250.00000000001,
      "d": 362.5,
      "v": 106
    },
    {
      "midi": 57,
      "hit": false,
      "t": 103750.00000000001,
      "d": 162.5,
      "v": 84
    },
    {
      "midi": 52,
      "hit": false,
      "t": 103750.00000000001,
      "d": 166.66666666667152,
      "v": 104
    },
    {
      "midi": 61,
      "hit": false,
      "t": 103750.00000000001,
      "d": 166.66666666667152,
      "v": 97
    },
    {
      "midi": 64,
      "hit": false,
      "t": 103750.00000000001,
      "d": 166.66666666667152,
      "v": 89
    },
    {
      "midi": 47,
      "hit": false,
      "t": 104020.83333333336,
      "d": 491.6666666666715,
      "v": 99
    },
    {
      "midi": 57,
      "hit": false,
      "t": 104495.83333333336,
      "d": 354.1666666666715,
      "v": 89
    },
    {
      "midi": 62,
      "hit": false,
      "t": 104495.83333333336,
      "d": 354.1666666666715,
      "v": 91
    },
    {
      "midi": 66,
      "hit": false,
      "t": 104500.00000000003,
      "d": 333.3333333333285,
      "v": 94
    },
    {
      "midi": 47,
      "hit": false,
      "t": 104887.50000000003,
      "d": 45.83333333332848,
      "v": 94
    },
    {
      "midi": 62,
      "hit": false,
      "t": 104991.66666666669,
      "d": 116.66666666667152,
      "v": 71
    },
    {
      "midi": 57,
      "hit": false,
      "t": 104991.66666666669,
      "d": 120.83333333334303,
      "v": 71
    },
    {
      "midi": 66,
      "hit": false,
      "t": 104995.83333333336,
      "d": 112.5,
      "v": 78
    },
    {
      "midi": 62,
      "hit": false,
      "t": 105245.83333333336,
      "d": 400,
      "v": 84
    },
    {
      "midi": 57,
      "hit": false,
      "t": 105250.00000000003,
      "d": 383.3333333333285,
      "v": 89
    },
    {
      "midi": 66,
      "hit": false,
      "t": 105250.00000000003,
      "d": 395.8333333333285,
      "v": 91
    },
    {
      "midi": 66,
      "hit": false,
      "t": 105762.50000000003,
      "d": 237.5,
      "v": 96
    },
    {
      "midi": 57,
      "hit": false,
      "t": 105766.6666666667,
      "d": 233.33333333332848,
      "v": 96
    },
    {
      "midi": 62,
      "hit": false,
      "t": 105766.6666666667,
      "d": 233.33333333332848,
      "v": 96
    },
    {
      "midi": 56,
      "hit": false,
      "t": 106000.00000000003,
      "d": 1616.6666666666715,
      "v": 90
    },
    {
      "midi": 62,
      "hit": false,
      "t": 106000.00000000003,
      "d": 1616.6666666666715,
      "v": 90
    },
    {
      "midi": 66,
      "hit": false,
      "t": 106000.00000000003,
      "d": 1616.6666666666715,
      "v": 90
    },
    {
      "midi": 73,
      "hit": false,
      "t": 106000.00000000003,
      "d": 1616.6666666666715,
      "v": 90
    },
    {
      "midi": 42,
      "hit": false,
      "t": 108020.83333333337,
      "d": 491.6666666666715,
      "v": 99
    },
    {
      "midi": 52,
      "hit": false,
      "t": 108495.83333333337,
      "d": 354.1666666666715,
      "v": 89
    },
    {
      "midi": 57,
      "hit": false,
      "t": 108495.83333333337,
      "d": 354.1666666666715,
      "v": 91
    },
    {
      "midi": 61,
      "hit": false,
      "t": 108500.00000000004,
      "d": 333.3333333333285,
      "v": 94
    },
    {
      "midi": 42,
      "hit": false,
      "t": 108887.50000000004,
      "d": 45.83333333332848,
      "v": 94
    },
    {
      "midi": 57,
      "hit": false,
      "t": 108991.6666666667,
      "d": 116.66666666667152,
      "v": 71
    },
    {
      "midi": 52,
      "hit": false,
      "t": 108991.6666666667,
      "d": 120.83333333334303,
      "v": 71
    },
    {
      "midi": 61,
      "hit": false,
      "t": 108995.83333333337,
      "d": 112.5,
      "v": 78
    },
    {
      "midi": 57,
      "hit": false,
      "t": 109245.83333333337,
      "d": 400,
      "v": 84
    },
    {
      "midi": 52,
      "hit": false,
      "t": 109250.00000000004,
      "d": 383.3333333333285,
      "v": 89
    },
    {
      "midi": 61,
      "hit": false,
      "t": 109250.00000000004,
      "d": 395.8333333333285,
      "v": 91
    },
    {
      "midi": 61,
      "hit": false,
      "t": 109762.50000000004,
      "d": 237.5,
      "v": 96
    },
    {
      "midi": 52,
      "hit": false,
      "t": 109766.66666666672,
      "d": 233.33333333332848,
      "v": 96
    },
    {
      "midi": 57,
      "hit": false,
      "t": 109766.66666666672,
      "d": 233.33333333332848,
      "v": 96
    },
    {
      "midi": 62,
      "hit": false,
      "t": 110000.00000000004,
      "d": 1616.6666666666715,
      "v": 90
    },
    {
      "midi": 66,
      "hit": false,
      "t": 110000.00000000004,
      "d": 1616.6666666666715,
      "v": 90
    },
    {
      "midi": 69,
      "hit": false,
      "t": 110000.00000000004,
      "d": 1616.6666666666715,
      "v": 90
    },
    {
      "midi": 74,
      "hit": false,
      "t": 110000.00000000004,
      "d": 1616.6666666666715,
      "v": 90
    },
    {
      "midi": 42,
      "hit": false,
      "t": 112020.83333333339,
      "d": 491.6666666666715,
      "v": 99
    },
    {
      "midi": 52,
      "hit": false,
      "t": 112495.83333333339,
      "d": 354.1666666666715,
      "v": 89
    },
    {
      "midi": 57,
      "hit": false,
      "t": 112495.83333333339,
      "d": 354.1666666666715,
      "v": 91
    },
    {
      "midi": 61,
      "hit": false,
      "t": 112500.00000000006,
      "d": 333.3333333333285,
      "v": 94
    },
    {
      "midi": 42,
      "hit": false,
      "t": 112887.50000000006,
      "d": 45.83333333332848,
      "v": 94
    },
    {
      "midi": 57,
      "hit": false,
      "t": 112991.66666666672,
      "d": 116.66666666667152,
      "v": 71
    },
    {
      "midi": 52,
      "hit": false,
      "t": 112991.66666666672,
      "d": 120.83333333334303,
      "v": 71
    },
    {
      "midi": 61,
      "hit": false,
      "t": 112995.83333333339,
      "d": 112.5,
      "v": 78
    },
    {
      "midi": 57,
      "hit": false,
      "t": 113245.83333333339,
      "d": 400,
      "v": 84
    },
    {
      "midi": 52,
      "hit": false,
      "t": 113250.00000000006,
      "d": 383.3333333333285,
      "v": 89
    },
    {
      "midi": 61,
      "hit": false,
      "t": 113250.00000000006,
      "d": 395.8333333333285,
      "v": 91
    },
    {
      "midi": 61,
      "hit": false,
      "t": 113762.50000000006,
      "d": 237.5,
      "v": 96
    },
    {
      "midi": 52,
      "hit": false,
      "t": 113766.66666666673,
      "d": 233.33333333332848,
      "v": 96
    },
    {
      "midi": 57,
      "hit": false,
      "t": 113766.66666666673,
      "d": 233.33333333332848,
      "v": 96
    },
    {
      "midi": 62,
      "hit": false,
      "t": 114000.00000000006,
      "d": 1616.6666666666715,
      "v": 90
    },
    {
      "midi": 66,
      "hit": false,
      "t": 114000.00000000006,
      "d": 1616.6666666666715,
      "v": 90
    },
    {
      "midi": 69,
      "hit": false,
      "t": 114000.00000000006,
      "d": 1616.6666666666715,
      "v": 90
    },
    {
      "midi": 42,
      "hit": false,
      "t": 116020.8333333334,
      "d": 491.6666666666715,
      "v": 99
    },
    {
      "midi": 52,
      "hit": false,
      "t": 116495.8333333334,
      "d": 354.1666666666715,
      "v": 89
    },
    {
      "midi": 57,
      "hit": false,
      "t": 116495.8333333334,
      "d": 354.1666666666715,
      "v": 91
    },
    {
      "midi": 61,
      "hit": false,
      "t": 116500.00000000007,
      "d": 333.3333333333285,
      "v": 94
    },
    {
      "midi": 42,
      "hit": false,
      "t": 116887.50000000007,
      "d": 45.83333333332848,
      "v": 94
    },
    {
      "midi": 57,
      "hit": false,
      "t": 116991.66666666673,
      "d": 116.66666666667152,
      "v": 71
    },
    {
      "midi": 52,
      "hit": false,
      "t": 116991.66666666673,
      "d": 120.83333333334303,
      "v": 71
    },
    {
      "midi": 61,
      "hit": false,
      "t": 116995.8333333334,
      "d": 112.5,
      "v": 78
    },
    {
      "midi": 57,
      "hit": false,
      "t": 117245.8333333334,
      "d": 400,
      "v": 84
    },
    {
      "midi": 52,
      "hit": false,
      "t": 117250.00000000007,
      "d": 383.3333333333285,
      "v": 89
    },
    {
      "midi": 61,
      "hit": false,
      "t": 117250.00000000007,
      "d": 395.8333333333285,
      "v": 91
    },
    {
      "midi": 61,
      "hit": false,
      "t": 117762.50000000007,
      "d": 237.5,
      "v": 96
    },
    {
      "midi": 52,
      "hit": false,
      "t": 117766.66666666674,
      "d": 233.33333333332848,
      "v": 96
    },
    {
      "midi": 57,
      "hit": false,
      "t": 117766.66666666674,
      "d": 233.33333333332848,
      "v": 96
    },
    {
      "midi": 52,
      "hit": false,
      "t": 118000.00000000007,
      "d": 600,
      "v": 93
    },
    {
      "midi": 71,
      "hit": false,
      "t": 118500.00000000007,
      "d": 362.5,
      "v": 72
    },
    {
      "midi": 62,
      "hit": false,
      "t": 118500.00000000007,
      "d": 375,
      "v": 78
    },
    {
      "midi": 68,
      "hit": false,
      "t": 118500.00000000007,
      "d": 383.3333333333285,
      "v": 89
    },
    {
      "midi": 59,
      "hit": false,
      "t": 118883.3333333334,
      "d": 66.66666666667152,
      "v": 91
    },
    {
      "midi": 71,
      "hit": false,
      "t": 119000.00000000007,
      "d": 129.16666666667152,
      "v": 82
    },
    {
      "midi": 62,
      "hit": false,
      "t": 119000.00000000007,
      "d": 137.5,
      "v": 84
    },
    {
      "midi": 68,
      "hit": false,
      "t": 119000.00000000007,
      "d": 141.66666666667152,
      "v": 89
    },
    {
      "midi": 62,
      "hit": false,
      "t": 119250.00000000007,
      "d": 437.5,
      "v": 91
    },
    {
      "midi": 68,
      "hit": false,
      "t": 119250.00000000007,
      "d": 441.6666666666715,
      "v": 93
    },
    {
      "midi": 71,
      "hit": false,
      "t": 119250.00000000007,
      "d": 441.6666666666715,
      "v": 86
    },
    {
      "midi": 59,
      "hit": false,
      "t": 119750.00000000007,
      "d": 170.83333333332848,
      "v": 97
    },
    {
      "midi": 68,
      "hit": false,
      "t": 119750.00000000007,
      "d": 229.16666666665697,
      "v": 106
    },
    {
      "midi": 62,
      "hit": false,
      "t": 119750.00000000007,
      "d": 249.99999999998545,
      "v": 99
    },
    {
      "midi": 71,
      "hit": false,
      "t": 119750.00000000007,
      "d": 249.99999999998545,
      "v": 93
    },
    {
      "midi": 45,
      "hit": false,
      "t": 120000.00000000006,
      "d": 600,
      "v": 93
    },
    {
      "midi": 64,
      "hit": false,
      "t": 120500.00000000006,
      "d": 362.5,
      "v": 72
    },
    {
      "midi": 57,
      "hit": false,
      "t": 120500.00000000006,
      "d": 375,
      "v": 78
    },
    {
      "midi": 61,
      "hit": false,
      "t": 120500.00000000006,
      "d": 383.3333333333285,
      "v": 89
    },
    {
      "midi": 52,
      "hit": false,
      "t": 120883.33333333339,
      "d": 66.66666666667152,
      "v": 91
    },
    {
      "midi": 64,
      "hit": false,
      "t": 121000.00000000006,
      "d": 129.16666666667152,
      "v": 82
    },
    {
      "midi": 57,
      "hit": false,
      "t": 121000.00000000006,
      "d": 137.5,
      "v": 84
    },
    {
      "midi": 61,
      "hit": false,
      "t": 121000.00000000006,
      "d": 141.66666666667152,
      "v": 89
    },
    {
      "midi": 57,
      "hit": false,
      "t": 121250.00000000006,
      "d": 437.5,
      "v": 91
    },
    {
      "midi": 61,
      "hit": false,
      "t": 121250.00000000006,
      "d": 441.6666666666715,
      "v": 93
    },
    {
      "midi": 64,
      "hit": false,
      "t": 121250.00000000006,
      "d": 441.6666666666715,
      "v": 86
    },
    {
      "midi": 52,
      "hit": false,
      "t": 121750.00000000006,
      "d": 170.83333333332848,
      "v": 97
    },
    {
      "midi": 61,
      "hit": false,
      "t": 121750.00000000006,
      "d": 229.16666666665697,
      "v": 106
    },
    {
      "midi": 57,
      "hit": false,
      "t": 121750.00000000006,
      "d": 249.99999999998545,
      "v": 99
    },
    {
      "midi": 64,
      "hit": false,
      "t": 121750.00000000006,
      "d": 249.99999999998545,
      "v": 93
    },
    {
      "midi": 45,
      "hit": false,
      "t": 122000.00000000004,
      "d": 654.1666666666715,
      "v": 95
    },
    {
      "midi": 63,
      "hit": false,
      "t": 122500.00000000004,
      "d": 62.5,
      "v": 56
    },
    {
      "midi": 57,
      "hit": false,
      "t": 122500.00000000004,
      "d": 391.6666666666715,
      "v": 91
    },
    {
      "midi": 64,
      "hit": false,
      "t": 122500.00000000004,
      "d": 400,
      "v": 78
    },
    {
      "midi": 61,
      "hit": false,
      "t": 122500.00000000004,
      "d": 404.1666666666715,
      "v": 95
    },
    {
      "midi": 52,
      "hit": false,
      "t": 122904.16666666672,
      "d": 79.16666666667152,
      "v": 102
    },
    {
      "midi": 57,
      "hit": false,
      "t": 123000.00000000006,
      "d": 116.66666666667152,
      "v": 86
    },
    {
      "midi": 61,
      "hit": false,
      "t": 123000.00000000006,
      "d": 133.33333333334303,
      "v": 95
    },
    {
      "midi": 64,
      "hit": false,
      "t": 123000.00000000006,
      "d": 133.33333333334303,
      "v": 91
    },
    {
      "midi": 64,
      "hit": false,
      "t": 123250.00000000007,
      "d": 333.3333333333285,
      "v": 93
    },
    {
      "midi": 57,
      "hit": false,
      "t": 123250.00000000007,
      "d": 350,
      "v": 97
    },
    {
      "midi": 61,
      "hit": false,
      "t": 123250.00000000007,
      "d": 362.5,
      "v": 106
    },
    {
      "midi": 57,
      "hit": false,
      "t": 123750.00000000007,
      "d": 162.5,
      "v": 84
    },
    {
      "midi": 52,
      "hit": false,
      "t": 123750.00000000007,
      "d": 166.66666666667152,
      "v": 104
    },
    {
      "midi": 61,
      "hit": false,
      "t": 123750.00000000007,
      "d": 166.66666666667152,
      "v": 97
    },
    {
      "midi": 64,
      "hit": false,
      "t": 123750.00000000007,
      "d": 166.66666666667152,
      "v": 89
    },
    {
      "midi": 54,
      "hit": false,
      "t": 124000.00000000007,
      "d": 958.3333333333285,
      "v": 95
    },
    {
      "midi": 56,
      "hit": false,
      "t": 124000.00000000007,
      "d": 958.3333333333285,
      "v": 95
    },
    {
      "midi": 60,
      "hit": false,
      "t": 124000.00000000007,
      "d": 958.3333333333285,
      "v": 95
    },
    {
      "midi": 64,
      "hit": false,
      "t": 124000.00000000007,
      "d": 958.3333333333285,
      "v": 95
    },
    {
      "midi": 71,
      "hit": false,
      "t": 124000.00000000007,
      "d": 958.3333333333285,
      "v": 95
    },
    {
      "midi": 60,
      "hit": false,
      "t": 125000.00000000007,
      "d": 662.5,
      "v": 86
    },
    {
      "midi": 62,
      "hit": false,
      "t": 125000.00000000007,
      "d": 662.5,
      "v": 86
    },
    {
      "midi": 66,
      "hit": false,
      "t": 125000.00000000007,
      "d": 662.5,
      "v": 86
    },
    {
      "midi": 69,
      "hit": false,
      "t": 125000.00000000007,
      "d": 662.5,
      "v": 86
    },
    {
      "midi": 54,
      "hit": false,
      "t": 125750.00000000007,
      "d": 1012.5,
      "v": 95
    },
    {
      "midi": 56,
      "hit": false,
      "t": 125750.00000000007,
      "d": 1012.5,
      "v": 95
    },
    {
      "midi": 60,
      "hit": false,
      "t": 125750.00000000007,
      "d": 1012.5,
      "v": 95
    },
    {
      "midi": 64,
      "hit": false,
      "t": 125750.00000000007,
      "d": 1012.5,
      "v": 95
    },
    {
      "midi": 71,
      "hit": false,
      "t": 125750.00000000007,
      "d": 1012.5,
      "v": 95
    },
    {
      "midi": 60,
      "hit": false,
      "t": 126762.50000000007,
      "d": 79.16666666667152,
      "v": 90
    },
    {
      "midi": 62,
      "hit": false,
      "t": 126762.50000000007,
      "d": 79.16666666667152,
      "v": 90
    },
    {
      "midi": 66,
      "hit": false,
      "t": 126762.50000000007,
      "d": 79.16666666667152,
      "v": 90
    },
    {
      "midi": 69,
      "hit": false,
      "t": 126762.50000000007,
      "d": 79.16666666667152,
      "v": 90
    },
    {
      "midi": 54,
      "hit": false,
      "t": 127000.00000000007,
      "d": 287.5,
      "v": 88
    },
    {
      "midi": 56,
      "hit": false,
      "t": 127000.00000000007,
      "d": 287.5,
      "v": 88
    },
    {
      "midi": 60,
      "hit": false,
      "t": 127000.00000000007,
      "d": 287.5,
      "v": 88
    },
    {
      "midi": 64,
      "hit": false,
      "t": 127000.00000000007,
      "d": 287.5,
      "v": 88
    },
    {
      "midi": 71,
      "hit": false,
      "t": 127000.00000000007,
      "d": 287.5,
      "v": 88
    },
    {
      "midi": 60,
      "hit": false,
      "t": 127500.00000000007,
      "d": 262.5,
      "v": 90
    },
    {
      "midi": 62,
      "hit": false,
      "t": 127500.00000000007,
      "d": 262.5,
      "v": 90
    },
    {
      "midi": 66,
      "hit": false,
      "t": 127500.00000000007,
      "d": 262.5,
      "v": 90
    },
    {
      "midi": 69,
      "hit": false,
      "t": 127500.00000000007,
      "d": 262.5,
      "v": 90
    },
    {
      "midi": 60,
      "hit": false,
      "t": 128250.00000000007,
      "d": 354.1666666666715,
      "v": 84
    },
    {
      "midi": 62,
      "hit": false,
      "t": 128250.00000000007,
      "d": 354.1666666666715,
      "v": 84
    },
    {
      "midi": 66,
      "hit": false,
      "t": 128250.00000000007,
      "d": 354.1666666666715,
      "v": 84
    },
    {
      "midi": 69,
      "hit": false,
      "t": 128250.00000000007,
      "d": 354.1666666666715,
      "v": 84
    },
    {
      "midi": 60,
      "hit": false,
      "t": 128750.00000000007,
      "d": 312.5,
      "v": 94
    },
    {
      "midi": 62,
      "hit": false,
      "t": 128750.00000000007,
      "d": 312.5,
      "v": 94
    },
    {
      "midi": 66,
      "hit": false,
      "t": 128750.00000000007,
      "d": 312.5,
      "v": 94
    },
    {
      "midi": 69,
      "hit": false,
      "t": 128750.00000000007,
      "d": 312.5,
      "v": 94
    },
    {
      "midi": 60,
      "hit": false,
      "t": 129250.00000000007,
      "d": 354.1666666666715,
      "v": 91
    },
    {
      "midi": 62,
      "hit": false,
      "t": 129250.00000000007,
      "d": 354.1666666666715,
      "v": 91
    },
    {
      "midi": 66,
      "hit": false,
      "t": 129250.00000000007,
      "d": 354.1666666666715,
      "v": 91
    },
    {
      "midi": 69,
      "hit": false,
      "t": 129250.00000000007,
      "d": 354.1666666666715,
      "v": 91
    },
    {
      "midi": 60,
      "hit": false,
      "t": 129750.00000000007,
      "d": 112.5,
      "v": 94
    },
    {
      "midi": 62,
      "hit": false,
      "t": 129750.00000000007,
      "d": 112.5,
      "v": 94
    },
    {
      "midi": 66,
      "hit": false,
      "t": 129750.00000000007,
      "d": 112.5,
      "v": 94
    },
    {
      "midi": 69,
      "hit": false,
      "t": 129750.00000000007,
      "d": 112.5,
      "v": 94
    },
    {
      "midi": 56,
      "hit": false,
      "t": 130250.00000000007,
      "d": 595.8333333333285,
      "v": 104
    },
    {
      "midi": 59,
      "hit": false,
      "t": 130250.00000000007,
      "d": 595.8333333333285,
      "v": 104
    },
    {
      "midi": 64,
      "hit": false,
      "t": 130250.00000000007,
      "d": 595.8333333333285,
      "v": 104
    },
    {
      "midi": 56,
      "hit": false,
      "t": 131000.00000000007,
      "d": 133.33333333332848,
      "v": 85
    },
    {
      "midi": 59,
      "hit": false,
      "t": 131000.00000000007,
      "d": 133.33333333332848,
      "v": 85
    },
    {
      "midi": 64,
      "hit": false,
      "t": 131000.00000000007,
      "d": 133.33333333332848,
      "v": 85
    },
    {
      "midi": 56,
      "hit": false,
      "t": 131250.00000000006,
      "d": 104.16666666665697,
      "v": 91
    },
    {
      "midi": 59,
      "hit": false,
      "t": 131250.00000000006,
      "d": 104.16666666665697,
      "v": 91
    },
    {
      "midi": 64,
      "hit": false,
      "t": 131250.00000000006,
      "d": 104.16666666665697,
      "v": 91
    },
    {
      "midi": 56,
      "hit": false,
      "t": 131500.00000000006,
      "d": 112.5,
      "v": 70
    },
    {
      "midi": 59,
      "hit": false,
      "t": 131500.00000000006,
      "d": 112.5,
      "v": 70
    },
    {
      "midi": 64,
      "hit": false,
      "t": 131500.00000000006,
      "d": 112.5,
      "v": 70
    },
    {
      "midi": 56,
      "hit": false,
      "t": 131750.00000000006,
      "d": 116.66666666665697,
      "v": 102
    },
    {
      "midi": 59,
      "hit": false,
      "t": 131750.00000000006,
      "d": 116.66666666665697,
      "v": 102
    },
    {
      "midi": 64,
      "hit": false,
      "t": 131750.00000000006,
      "d": 116.66666666665697,
      "v": 102
    },
    {
      "midi": 54,
      "hit": false,
      "t": 132000.00000000006,
      "d": 958.333333333343,
      "v": 95
    },
    {
      "midi": 56,
      "hit": false,
      "t": 132000.00000000006,
      "d": 958.333333333343,
      "v": 95
    },
    {
      "midi": 60,
      "hit": false,
      "t": 132000.00000000006,
      "d": 958.333333333343,
      "v": 95
    },
    {
      "midi": 64,
      "hit": false,
      "t": 132000.00000000006,
      "d": 958.333333333343,
      "v": 95
    },
    {
      "midi": 71,
      "hit": false,
      "t": 132000.00000000006,
      "d": 958.333333333343,
      "v": 95
    },
    {
      "midi": 60,
      "hit": false,
      "t": 133000.00000000006,
      "d": 662.5,
      "v": 86
    },
    {
      "midi": 62,
      "hit": false,
      "t": 133000.00000000006,
      "d": 662.5,
      "v": 86
    },
    {
      "midi": 66,
      "hit": false,
      "t": 133000.00000000006,
      "d": 662.5,
      "v": 86
    },
    {
      "midi": 69,
      "hit": false,
      "t": 133000.00000000006,
      "d": 662.5,
      "v": 86
    },
    {
      "midi": 54,
      "hit": false,
      "t": 133750.00000000006,
      "d": 1012.5,
      "v": 95
    },
    {
      "midi": 56,
      "hit": false,
      "t": 133750.00000000006,
      "d": 1012.5,
      "v": 95
    },
    {
      "midi": 60,
      "hit": false,
      "t": 133750.00000000006,
      "d": 1012.5,
      "v": 95
    },
    {
      "midi": 64,
      "hit": false,
      "t": 133750.00000000006,
      "d": 1012.5,
      "v": 95
    },
    {
      "midi": 71,
      "hit": false,
      "t": 133750.00000000006,
      "d": 1012.5,
      "v": 95
    },
    {
      "midi": 60,
      "hit": false,
      "t": 134762.50000000006,
      "d": 79.16666666665697,
      "v": 90
    },
    {
      "midi": 62,
      "hit": false,
      "t": 134762.50000000006,
      "d": 79.16666666665697,
      "v": 90
    },
    {
      "midi": 66,
      "hit": false,
      "t": 134762.50000000006,
      "d": 79.16666666665697,
      "v": 90
    },
    {
      "midi": 69,
      "hit": false,
      "t": 134762.50000000006,
      "d": 79.16666666665697,
      "v": 90
    },
    {
      "midi": 54,
      "hit": false,
      "t": 135000.00000000006,
      "d": 287.5,
      "v": 88
    },
    {
      "midi": 56,
      "hit": false,
      "t": 135000.00000000006,
      "d": 287.5,
      "v": 88
    },
    {
      "midi": 60,
      "hit": false,
      "t": 135000.00000000006,
      "d": 287.5,
      "v": 88
    },
    {
      "midi": 64,
      "hit": false,
      "t": 135000.00000000006,
      "d": 287.5,
      "v": 88
    },
    {
      "midi": 71,
      "hit": false,
      "t": 135000.00000000006,
      "d": 287.5,
      "v": 88
    },
    {
      "midi": 60,
      "hit": false,
      "t": 135500.00000000006,
      "d": 262.5,
      "v": 90
    },
    {
      "midi": 62,
      "hit": false,
      "t": 135500.00000000006,
      "d": 262.5,
      "v": 90
    },
    {
      "midi": 66,
      "hit": false,
      "t": 135500.00000000006,
      "d": 262.5,
      "v": 90
    },
    {
      "midi": 69,
      "hit": false,
      "t": 135500.00000000006,
      "d": 262.5,
      "v": 90
    },
    {
      "midi": 60,
      "hit": false,
      "t": 136000.00000000006,
      "d": 541.666666666657,
      "v": 89
    },
    {
      "midi": 62,
      "hit": false,
      "t": 136000.00000000006,
      "d": 541.666666666657,
      "v": 89
    },
    {
      "midi": 66,
      "hit": false,
      "t": 136000.00000000006,
      "d": 541.666666666657,
      "v": 89
    },
    {
      "midi": 69,
      "hit": false,
      "t": 136000.00000000006,
      "d": 541.666666666657,
      "v": 89
    },
    {
      "midi": 60,
      "hit": false,
      "t": 136750.00000000006,
      "d": 1041.666666666657,
      "v": 92
    },
    {
      "midi": 62,
      "hit": false,
      "t": 136750.00000000006,
      "d": 1041.666666666657,
      "v": 92
    },
    {
      "midi": 66,
      "hit": false,
      "t": 136750.00000000006,
      "d": 1041.666666666657,
      "v": 92
    },
    {
      "midi": 69,
      "hit": false,
      "t": 136750.00000000006,
      "d": 1041.666666666657,
      "v": 92
    },
    {
      "midi": 56,
      "hit": false,
      "t": 138250.00000000006,
      "d": 595.833333333343,
      "v": 104
    },
    {
      "midi": 64,
      "hit": false,
      "t": 138250.00000000006,
      "d": 595.833333333343,
      "v": 104
    },
    {
      "midi": 71,
      "hit": false,
      "t": 138250.00000000006,
      "d": 595.833333333343,
      "v": 104
    },
    {
      "midi": 56,
      "hit": false,
      "t": 139000.00000000006,
      "d": 133.33333333334303,
      "v": 85
    },
    {
      "midi": 59,
      "hit": false,
      "t": 139000.00000000006,
      "d": 133.33333333334303,
      "v": 85
    },
    {
      "midi": 64,
      "hit": false,
      "t": 139000.00000000006,
      "d": 133.33333333334303,
      "v": 85
    },
    {
      "midi": 56,
      "hit": false,
      "t": 139250.00000000006,
      "d": 104.16666666665697,
      "v": 91
    },
    {
      "midi": 64,
      "hit": false,
      "t": 139250.00000000006,
      "d": 104.16666666665697,
      "v": 91
    },
    {
      "midi": 71,
      "hit": false,
      "t": 139250.00000000006,
      "d": 104.16666666665697,
      "v": 91
    },
    {
      "midi": 56,
      "hit": false,
      "t": 139500.00000000006,
      "d": 112.5,
      "v": 70
    },
    {
      "midi": 59,
      "hit": false,
      "t": 139500.00000000006,
      "d": 112.5,
      "v": 70
    },
    {
      "midi": 64,
      "hit": false,
      "t": 139500.00000000006,
      "d": 112.5,
      "v": 70
    },
    {
      "midi": 56,
      "hit": false,
      "t": 139750.00000000006,
      "d": 116.66666666665697,
      "v": 102
    },
    {
      "midi": 64,
      "hit": false,
      "t": 139750.00000000006,
      "d": 116.66666666665697,
      "v": 102
    },
    {
      "midi": 71,
      "hit": false,
      "t": 139750.00000000006,
      "d": 116.66666666665697,
      "v": 102
    },
    {
      "midi": 56,
      "hit": false,
      "t": 140250.00000000006,
      "d": 595.833333333343,
      "v": 104
    },
    {
      "midi": 64,
      "hit": false,
      "t": 140250.00000000006,
      "d": 595.833333333343,
      "v": 104
    },
    {
      "midi": 71,
      "hit": false,
      "t": 140250.00000000006,
      "d": 595.833333333343,
      "v": 104
    },
    {
      "midi": 56,
      "hit": false,
      "t": 141000.00000000006,
      "d": 133.33333333334303,
      "v": 85
    },
    {
      "midi": 59,
      "hit": false,
      "t": 141000.00000000006,
      "d": 133.33333333334303,
      "v": 85
    },
    {
      "midi": 64,
      "hit": false,
      "t": 141000.00000000006,
      "d": 133.33333333334303,
      "v": 85
    },
    {
      "midi": 56,
      "hit": false,
      "t": 141250.00000000006,
      "d": 104.16666666665697,
      "v": 91
    },
    {
      "midi": 64,
      "hit": false,
      "t": 141250.00000000006,
      "d": 104.16666666665697,
      "v": 91
    },
    {
      "midi": 71,
      "hit": false,
      "t": 141250.00000000006,
      "d": 104.16666666665697,
      "v": 91
    },
    {
      "midi": 56,
      "hit": false,
      "t": 141500.00000000006,
      "d": 112.5,
      "v": 70
    },
    {
      "midi": 59,
      "hit": false,
      "t": 141500.00000000006,
      "d": 112.5,
      "v": 70
    },
    {
      "midi": 64,
      "hit": false,
      "t": 141500.00000000006,
      "d": 112.5,
      "v": 70
    },
    {
      "midi": 56,
      "hit": false,
      "t": 141750.00000000006,
      "d": 116.66666666665697,
      "v": 102
    },
    {
      "midi": 64,
      "hit": false,
      "t": 141750.00000000006,
      "d": 116.66666666665697,
      "v": 102
    },
    {
      "midi": 71,
      "hit": false,
      "t": 141750.00000000006,
      "d": 116.66666666665697,
      "v": 102
    },
    {
      "midi": 45,
      "hit": false,
      "t": 142000.00000000006,
      "d": 600,
      "v": 93
    },
    {
      "midi": 64,
      "hit": false,
      "t": 142500.00000000006,
      "d": 362.5,
      "v": 72
    },
    {
      "midi": 57,
      "hit": false,
      "t": 142500.00000000006,
      "d": 375,
      "v": 78
    },
    {
      "midi": 61,
      "hit": false,
      "t": 142500.00000000006,
      "d": 383.33333333334303,
      "v": 89
    },
    {
      "midi": 52,
      "hit": false,
      "t": 142883.3333333334,
      "d": 66.66666666665697,
      "v": 91
    },
    {
      "midi": 64,
      "hit": false,
      "t": 143000.00000000006,
      "d": 129.16666666665697,
      "v": 82
    },
    {
      "midi": 57,
      "hit": false,
      "t": 143000.00000000006,
      "d": 137.5,
      "v": 84
    },
    {
      "midi": 61,
      "hit": false,
      "t": 143000.00000000006,
      "d": 141.66666666665697,
      "v": 89
    },
    {
      "midi": 57,
      "hit": false,
      "t": 143250.00000000006,
      "d": 437.5,
      "v": 91
    },
    {
      "midi": 61,
      "hit": false,
      "t": 143250.00000000006,
      "d": 441.66666666665697,
      "v": 93
    },
    {
      "midi": 64,
      "hit": false,
      "t": 143250.00000000006,
      "d": 441.66666666665697,
      "v": 86
    },
    {
      "midi": 52,
      "hit": false,
      "t": 143750.00000000006,
      "d": 170.83333333334303,
      "v": 97
    },
    {
      "midi": 61,
      "hit": false,
      "t": 143750.00000000006,
      "d": 229.16666666668607,
      "v": 106
    },
    {
      "midi": 57,
      "hit": false,
      "t": 143750.00000000006,
      "d": 250.0000000000291,
      "v": 99
    },
    {
      "midi": 64,
      "hit": false,
      "t": 143750.00000000006,
      "d": 250.0000000000291,
      "v": 93
    },
    {
      "midi": 45,
      "hit": false,
      "t": 144000.0000000001,
      "d": 654.166666666657,
      "v": 95
    },
    {
      "midi": 63,
      "hit": false,
      "t": 144500.0000000001,
      "d": 62.5,
      "v": 56
    },
    {
      "midi": 57,
      "hit": false,
      "t": 144500.0000000001,
      "d": 391.66666666665697,
      "v": 91
    },
    {
      "midi": 64,
      "hit": false,
      "t": 144500.0000000001,
      "d": 400,
      "v": 78
    },
    {
      "midi": 61,
      "hit": false,
      "t": 144500.0000000001,
      "d": 404.16666666665697,
      "v": 95
    },
    {
      "midi": 52,
      "hit": false,
      "t": 144904.16666666674,
      "d": 79.16666666665697,
      "v": 102
    },
    {
      "midi": 57,
      "hit": false,
      "t": 145000.00000000006,
      "d": 116.66666666665697,
      "v": 86
    },
    {
      "midi": 61,
      "hit": false,
      "t": 145000.00000000006,
      "d": 133.33333333331393,
      "v": 95
    },
    {
      "midi": 64,
      "hit": false,
      "t": 145000.00000000006,
      "d": 133.33333333331393,
      "v": 91
    },
    {
      "midi": 64,
      "hit": false,
      "t": 145250.00000000003,
      "d": 333.33333333334303,
      "v": 93
    },
    {
      "midi": 57,
      "hit": false,
      "t": 145250.00000000003,
      "d": 350,
      "v": 97
    },
    {
      "midi": 61,
      "hit": false,
      "t": 145250.00000000003,
      "d": 362.5,
      "v": 106
    },
    {
      "midi": 57,
      "hit": false,
      "t": 145750.00000000003,
      "d": 162.5,
      "v": 84
    },
    {
      "midi": 52,
      "hit": false,
      "t": 145750.00000000003,
      "d": 166.66666666665697,
      "v": 104
    },
    {
      "midi": 61,
      "hit": false,
      "t": 145750.00000000003,
      "d": 166.66666666665697,
      "v": 97
    },
    {
      "midi": 64,
      "hit": false,
      "t": 145750.00000000003,
      "d": 166.66666666665697,
      "v": 89
    },
    {
      "midi": 45,
      "hit": false,
      "t": 146000.00000000003,
      "d": 600,
      "v": 93
    },
    {
      "midi": 64,
      "hit": false,
      "t": 146500.00000000003,
      "d": 362.5,
      "v": 72
    },
    {
      "midi": 57,
      "hit": false,
      "t": 146500.00000000003,
      "d": 375,
      "v": 78
    },
    {
      "midi": 61,
      "hit": false,
      "t": 146500.00000000003,
      "d": 383.33333333334303,
      "v": 89
    },
    {
      "midi": 52,
      "hit": false,
      "t": 146883.33333333337,
      "d": 66.66666666665697,
      "v": 91
    },
    {
      "midi": 64,
      "hit": false,
      "t": 147000.00000000003,
      "d": 129.16666666665697,
      "v": 82
    },
    {
      "midi": 57,
      "hit": false,
      "t": 147000.00000000003,
      "d": 137.5,
      "v": 84
    },
    {
      "midi": 61,
      "hit": false,
      "t": 147000.00000000003,
      "d": 141.66666666665697,
      "v": 89
    },
    {
      "midi": 57,
      "hit": false,
      "t": 147250.00000000003,
      "d": 437.5,
      "v": 91
    },
    {
      "midi": 61,
      "hit": false,
      "t": 147250.00000000003,
      "d": 441.66666666665697,
      "v": 93
    },
    {
      "midi": 64,
      "hit": false,
      "t": 147250.00000000003,
      "d": 441.66666666665697,
      "v": 86
    },
    {
      "midi": 52,
      "hit": false,
      "t": 147750.00000000003,
      "d": 170.83333333334303,
      "v": 97
    },
    {
      "midi": 61,
      "hit": false,
      "t": 147750.00000000003,
      "d": 229.16666666668607,
      "v": 106
    },
    {
      "midi": 57,
      "hit": false,
      "t": 147750.00000000003,
      "d": 250.0000000000291,
      "v": 99
    },
    {
      "midi": 64,
      "hit": false,
      "t": 147750.00000000003,
      "d": 250.0000000000291,
      "v": 93
    },
    {
      "midi": 45,
      "hit": false,
      "t": 148000.00000000006,
      "d": 654.166666666657,
      "v": 95
    },
    {
      "midi": 63,
      "hit": false,
      "t": 148500.00000000006,
      "d": 62.5,
      "v": 56
    },
    {
      "midi": 57,
      "hit": false,
      "t": 148500.00000000006,
      "d": 391.66666666665697,
      "v": 91
    },
    {
      "midi": 64,
      "hit": false,
      "t": 148500.00000000006,
      "d": 400,
      "v": 78
    },
    {
      "midi": 61,
      "hit": false,
      "t": 148500.00000000006,
      "d": 404.16666666665697,
      "v": 95
    },
    {
      "midi": 52,
      "hit": false,
      "t": 148904.16666666672,
      "d": 79.16666666665697,
      "v": 102
    },
    {
      "midi": 57,
      "hit": false,
      "t": 149000.00000000003,
      "d": 116.66666666665697,
      "v": 86
    },
    {
      "midi": 61,
      "hit": false,
      "t": 149000.00000000003,
      "d": 133.33333333331393,
      "v": 95
    },
    {
      "midi": 64,
      "hit": false,
      "t": 149000.00000000003,
      "d": 133.33333333331393,
      "v": 91
    },
    {
      "midi": 64,
      "hit": false,
      "t": 149250,
      "d": 333.33333333334303,
      "v": 93
    },
    {
      "midi": 57,
      "hit": false,
      "t": 149250,
      "d": 350,
      "v": 97
    },
    {
      "midi": 61,
      "hit": false,
      "t": 149250,
      "d": 362.5,
      "v": 106
    },
    {
      "midi": 57,
      "hit": false,
      "t": 149750,
      "d": 162.5,
      "v": 84
    },
    {
      "midi": 52,
      "hit": false,
      "t": 149750,
      "d": 166.66666666665697,
      "v": 104
    },
    {
      "midi": 61,
      "hit": false,
      "t": 149750,
      "d": 166.66666666665697,
      "v": 97
    },
    {
      "midi": 64,
      "hit": false,
      "t": 149750,
      "d": 166.66666666665697,
      "v": 89
    },
    {
      "midi": 45,
      "hit": false,
      "t": 150000,
      "d": 600,
      "v": 93
    },
    {
      "midi": 64,
      "hit": false,
      "t": 150500,
      "d": 362.5,
      "v": 72
    },
    {
      "midi": 57,
      "hit": false,
      "t": 150500,
      "d": 375,
      "v": 78
    },
    {
      "midi": 61,
      "hit": false,
      "t": 150500,
      "d": 383.33333333334303,
      "v": 89
    },
    {
      "midi": 52,
      "hit": false,
      "t": 150883.33333333334,
      "d": 66.66666666665697,
      "v": 91
    },
    {
      "midi": 64,
      "hit": false,
      "t": 151000,
      "d": 129.16666666665697,
      "v": 82
    },
    {
      "midi": 57,
      "hit": false,
      "t": 151000,
      "d": 137.5,
      "v": 84
    },
    {
      "midi": 61,
      "hit": false,
      "t": 151000,
      "d": 141.66666666665697,
      "v": 89
    },
    {
      "midi": 57,
      "hit": false,
      "t": 151250,
      "d": 437.5,
      "v": 91
    },
    {
      "midi": 61,
      "hit": false,
      "t": 151250,
      "d": 441.66666666665697,
      "v": 93
    },
    {
      "midi": 64,
      "hit": false,
      "t": 151250,
      "d": 441.66666666665697,
      "v": 86
    },
    {
      "midi": 52,
      "hit": false,
      "t": 151750,
      "d": 170.83333333334303,
      "v": 97
    },
    {
      "midi": 61,
      "hit": false,
      "t": 151750,
      "d": 229.16666666668607,
      "v": 106
    },
    {
      "midi": 57,
      "hit": false,
      "t": 151750,
      "d": 250.0000000000291,
      "v": 99
    },
    {
      "midi": 64,
      "hit": false,
      "t": 151750,
      "d": 250.0000000000291,
      "v": 93
    },
    {
      "midi": 45,
      "hit": false,
      "t": 152000.00000000003,
      "d": 654.166666666657,
      "v": 95
    },
    {
      "midi": 63,
      "hit": false,
      "t": 152500.00000000003,
      "d": 62.5,
      "v": 56
    },
    {
      "midi": 57,
      "hit": false,
      "t": 152500.00000000003,
      "d": 391.66666666665697,
      "v": 91
    },
    {
      "midi": 64,
      "hit": false,
      "t": 152500.00000000003,
      "d": 400,
      "v": 78
    },
    {
      "midi": 61,
      "hit": false,
      "t": 152500.00000000003,
      "d": 404.16666666665697,
      "v": 95
    },
    {
      "midi": 52,
      "hit": false,
      "t": 152904.1666666667,
      "d": 79.16666666665697,
      "v": 102
    },
    {
      "midi": 57,
      "hit": false,
      "t": 153000,
      "d": 116.66666666665697,
      "v": 86
    },
    {
      "midi": 61,
      "hit": false,
      "t": 153000,
      "d": 133.33333333331393,
      "v": 95
    },
    {
      "midi": 64,
      "hit": false,
      "t": 153000,
      "d": 133.33333333331393,
      "v": 91
    },
    {
      "midi": 64,
      "hit": false,
      "t": 153249.99999999997,
      "d": 333.33333333334303,
      "v": 93
    },
    {
      "midi": 57,
      "hit": false,
      "t": 153249.99999999997,
      "d": 350,
      "v": 97
    },
    {
      "midi": 61,
      "hit": false,
      "t": 153249.99999999997,
      "d": 362.5,
      "v": 106
    },
    {
      "midi": 57,
      "hit": false,
      "t": 153749.99999999997,
      "d": 162.5,
      "v": 84
    },
    {
      "midi": 52,
      "hit": false,
      "t": 153749.99999999997,
      "d": 166.66666666665697,
      "v": 104
    },
    {
      "midi": 61,
      "hit": false,
      "t": 153749.99999999997,
      "d": 166.66666666665697,
      "v": 97
    },
    {
      "midi": 64,
      "hit": false,
      "t": 153749.99999999997,
      "d": 166.66666666665697,
      "v": 89
    },
    {
      "midi": 47,
      "hit": false,
      "t": 154020.83333333328,
      "d": 491.66666666665697,
      "v": 99
    },
    {
      "midi": 57,
      "hit": false,
      "t": 154495.83333333328,
      "d": 354.16666666665697,
      "v": 89
    },
    {
      "midi": 62,
      "hit": false,
      "t": 154495.83333333328,
      "d": 354.16666666665697,
      "v": 91
    },
    {
      "midi": 66,
      "hit": false,
      "t": 154499.99999999994,
      "d": 333.33333333334303,
      "v": 94
    },
    {
      "midi": 47,
      "hit": false,
      "t": 154887.49999999994,
      "d": 45.833333333343035,
      "v": 94
    },
    {
      "midi": 62,
      "hit": false,
      "t": 154991.66666666663,
      "d": 116.66666666665697,
      "v": 71
    },
    {
      "midi": 57,
      "hit": false,
      "t": 154991.66666666663,
      "d": 120.83333333331393,
      "v": 71
    },
    {
      "midi": 66,
      "hit": false,
      "t": 154995.83333333328,
      "d": 112.5,
      "v": 78
    },
    {
      "midi": 62,
      "hit": false,
      "t": 155245.83333333328,
      "d": 400,
      "v": 84
    },
    {
      "midi": 57,
      "hit": false,
      "t": 155249.99999999994,
      "d": 383.33333333334303,
      "v": 89
    },
    {
      "midi": 66,
      "hit": false,
      "t": 155249.99999999994,
      "d": 395.83333333334303,
      "v": 91
    },
    {
      "midi": 66,
      "hit": false,
      "t": 155762.49999999994,
      "d": 237.5,
      "v": 96
    },
    {
      "midi": 57,
      "hit": false,
      "t": 155766.6666666666,
      "d": 233.33333333334303,
      "v": 96
    },
    {
      "midi": 62,
      "hit": false,
      "t": 155766.6666666666,
      "d": 233.33333333334303,
      "v": 96
    },
    {
      "midi": 56,
      "hit": false,
      "t": 155999.99999999994,
      "d": 700,
      "v": 93
    },
    {
      "midi": 62,
      "hit": false,
      "t": 155999.99999999994,
      "d": 700,
      "v": 93
    },
    {
      "midi": 66,
      "hit": false,
      "t": 155999.99999999994,
      "d": 700,
      "v": 93
    },
    {
      "midi": 73,
      "hit": false,
      "t": 155999.99999999994,
      "d": 700,
      "v": 93
    },
    {
      "midi": 59,
      "hit": false,
      "t": 156749.99999999994,
      "d": 983.333333333343,
      "v": 88
    },
    {
      "midi": 62,
      "hit": false,
      "t": 156749.99999999994,
      "d": 983.333333333343,
      "v": 88
    },
    {
      "midi": 64,
      "hit": false,
      "t": 156749.99999999994,
      "d": 983.333333333343,
      "v": 88
    },
    {
      "midi": 68,
      "hit": false,
      "t": 156749.99999999994,
      "d": 983.333333333343,
      "v": 88
    },
    {
      "midi": 42,
      "hit": false,
      "t": 158020.83333333328,
      "d": 491.66666666665697,
      "v": 99
    },
    {
      "midi": 52,
      "hit": false,
      "t": 158495.83333333328,
      "d": 354.16666666665697,
      "v": 89
    },
    {
      "midi": 57,
      "hit": false,
      "t": 158495.83333333328,
      "d": 354.16666666665697,
      "v": 91
    },
    {
      "midi": 61,
      "hit": false,
      "t": 158499.99999999994,
      "d": 333.33333333334303,
      "v": 94
    },
    {
      "midi": 42,
      "hit": false,
      "t": 158887.49999999994,
      "d": 45.833333333343035,
      "v": 94
    },
    {
      "midi": 57,
      "hit": false,
      "t": 158991.66666666663,
      "d": 116.66666666665697,
      "v": 71
    },
    {
      "midi": 52,
      "hit": false,
      "t": 158991.66666666663,
      "d": 120.83333333331393,
      "v": 71
    },
    {
      "midi": 61,
      "hit": false,
      "t": 158995.83333333328,
      "d": 112.5,
      "v": 78
    },
    {
      "midi": 57,
      "hit": false,
      "t": 159245.83333333328,
      "d": 400,
      "v": 84
    },
    {
      "midi": 52,
      "hit": false,
      "t": 159249.99999999994,
      "d": 383.33333333334303,
      "v": 89
    },
    {
      "midi": 61,
      "hit": false,
      "t": 159249.99999999994,
      "d": 395.83333333334303,
      "v": 91
    },
    {
      "midi": 61,
      "hit": false,
      "t": 159762.49999999994,
      "d": 237.5,
      "v": 96
    },
    {
      "midi": 52,
      "hit": false,
      "t": 159766.6666666666,
      "d": 233.33333333334303,
      "v": 96
    },
    {
      "midi": 57,
      "hit": false,
      "t": 159766.6666666666,
      "d": 233.33333333334303,
      "v": 96
    },
    {
      "midi": 54,
      "hit": false,
      "t": 159999.99999999994,
      "d": 700,
      "v": 93
    },
    {
      "midi": 62,
      "hit": false,
      "t": 159999.99999999994,
      "d": 700,
      "v": 93
    },
    {
      "midi": 69,
      "hit": false,
      "t": 159999.99999999994,
      "d": 700,
      "v": 93
    },
    {
      "midi": 57,
      "hit": false,
      "t": 160749.99999999994,
      "d": 983.333333333343,
      "v": 88
    },
    {
      "midi": 62,
      "hit": false,
      "t": 160749.99999999994,
      "d": 983.333333333343,
      "v": 88
    },
    {
      "midi": 66,
      "hit": false,
      "t": 160749.99999999994,
      "d": 983.333333333343,
      "v": 88
    },
    {
      "midi": 42,
      "hit": false,
      "t": 162020.83333333328,
      "d": 491.66666666665697,
      "v": 99
    },
    {
      "midi": 52,
      "hit": false,
      "t": 162495.83333333328,
      "d": 354.16666666665697,
      "v": 89
    },
    {
      "midi": 57,
      "hit": false,
      "t": 162495.83333333328,
      "d": 354.16666666665697,
      "v": 91
    },
    {
      "midi": 61,
      "hit": false,
      "t": 162499.99999999994,
      "d": 333.33333333334303,
      "v": 94
    },
    {
      "midi": 42,
      "hit": false,
      "t": 162887.49999999994,
      "d": 45.833333333343035,
      "v": 94
    },
    {
      "midi": 57,
      "hit": false,
      "t": 162991.66666666663,
      "d": 116.66666666665697,
      "v": 71
    },
    {
      "midi": 52,
      "hit": false,
      "t": 162991.66666666663,
      "d": 120.83333333331393,
      "v": 71
    },
    {
      "midi": 61,
      "hit": false,
      "t": 162995.83333333328,
      "d": 112.5,
      "v": 78
    },
    {
      "midi": 57,
      "hit": false,
      "t": 163245.83333333328,
      "d": 400,
      "v": 84
    },
    {
      "midi": 52,
      "hit": false,
      "t": 163249.99999999994,
      "d": 383.33333333334303,
      "v": 89
    },
    {
      "midi": 61,
      "hit": false,
      "t": 163249.99999999994,
      "d": 395.83333333334303,
      "v": 91
    },
    {
      "midi": 61,
      "hit": false,
      "t": 163762.49999999994,
      "d": 237.5,
      "v": 96
    },
    {
      "midi": 52,
      "hit": false,
      "t": 163766.6666666666,
      "d": 233.33333333334303,
      "v": 96
    },
    {
      "midi": 57,
      "hit": false,
      "t": 163766.6666666666,
      "d": 233.33333333334303,
      "v": 96
    },
    {
      "midi": 50,
      "hit": false,
      "t": 163999.99999999994,
      "d": 600,
      "v": 93
    },
    {
      "midi": 69,
      "hit": false,
      "t": 164499.99999999994,
      "d": 362.5,
      "v": 72
    },
    {
      "midi": 62,
      "hit": false,
      "t": 164499.99999999994,
      "d": 375,
      "v": 78
    },
    {
      "midi": 66,
      "hit": false,
      "t": 164499.99999999994,
      "d": 383.33333333334303,
      "v": 89
    },
    {
      "midi": 57,
      "hit": false,
      "t": 164883.33333333328,
      "d": 66.66666666665697,
      "v": 91
    },
    {
      "midi": 69,
      "hit": false,
      "t": 164999.99999999994,
      "d": 129.16666666665697,
      "v": 82
    },
    {
      "midi": 62,
      "hit": false,
      "t": 164999.99999999994,
      "d": 137.5,
      "v": 84
    },
    {
      "midi": 66,
      "hit": false,
      "t": 164999.99999999994,
      "d": 141.66666666665697,
      "v": 89
    },
    {
      "midi": 62,
      "hit": false,
      "t": 165249.99999999994,
      "d": 437.5,
      "v": 91
    },
    {
      "midi": 66,
      "hit": false,
      "t": 165249.99999999994,
      "d": 441.66666666665697,
      "v": 93
    },
    {
      "midi": 69,
      "hit": false,
      "t": 165249.99999999994,
      "d": 441.66666666665697,
      "v": 86
    },
    {
      "midi": 57,
      "hit": false,
      "t": 165749.99999999994,
      "d": 170.83333333334303,
      "v": 97
    },
    {
      "midi": 66,
      "hit": false,
      "t": 165749.99999999994,
      "d": 229.16666666668607,
      "v": 106
    },
    {
      "midi": 62,
      "hit": false,
      "t": 165749.99999999994,
      "d": 250.0000000000291,
      "v": 99
    },
    {
      "midi": 69,
      "hit": false,
      "t": 165749.99999999994,
      "d": 250.0000000000291,
      "v": 93
    },
    {
      "midi": 42,
      "hit": false,
      "t": 166020.8333333333,
      "d": 491.66666666665697,
      "v": 99
    },
    {
      "midi": 52,
      "hit": false,
      "t": 166495.8333333333,
      "d": 354.16666666665697,
      "v": 89
    },
    {
      "midi": 57,
      "hit": false,
      "t": 166495.8333333333,
      "d": 354.16666666665697,
      "v": 91
    },
    {
      "midi": 61,
      "hit": false,
      "t": 166499.99999999997,
      "d": 333.33333333334303,
      "v": 94
    },
    {
      "midi": 42,
      "hit": false,
      "t": 166887.49999999997,
      "d": 45.833333333343035,
      "v": 94
    },
    {
      "midi": 57,
      "hit": false,
      "t": 166991.66666666666,
      "d": 116.66666666665697,
      "v": 71
    },
    {
      "midi": 52,
      "hit": false,
      "t": 166991.66666666666,
      "d": 120.83333333331393,
      "v": 71
    },
    {
      "midi": 61,
      "hit": false,
      "t": 166995.8333333333,
      "d": 112.5,
      "v": 78
    },
    {
      "midi": 57,
      "hit": false,
      "t": 167245.8333333333,
      "d": 400,
      "v": 84
    },
    {
      "midi": 52,
      "hit": false,
      "t": 167249.99999999997,
      "d": 383.33333333334303,
      "v": 89
    },
    {
      "midi": 61,
      "hit": false,
      "t": 167249.99999999997,
      "d": 395.83333333334303,
      "v": 91
    },
    {
      "midi": 61,
      "hit": false,
      "t": 167762.49999999997,
      "d": 237.5,
      "v": 96
    },
    {
      "midi": 52,
      "hit": false,
      "t": 167766.66666666663,
      "d": 233.33333333334303,
      "v": 96
    },
    {
      "midi": 57,
      "hit": false,
      "t": 167766.66666666663,
      "d": 233.33333333334303,
      "v": 96
    },
    {
      "midi": 56,
      "hit": false,
      "t": 167999.99999999997,
      "d": 1616.666666666657,
      "v": 90
    },
    {
      "midi": 62,
      "hit": false,
      "t": 167999.99999999997,
      "d": 1616.666666666657,
      "v": 90
    },
    {
      "midi": 67,
      "hit": false,
      "t": 167999.99999999997,
      "d": 1616.666666666657,
      "v": 90
    },
    {
      "midi": 71,
      "hit": false,
      "t": 167999.99999999997,
      "d": 1616.666666666657,
      "v": 90
    },
    {
      "midi": 45,
      "hit": false,
      "t": 169999.99999999997,
      "d": 600,
      "v": 93
    },
    {
      "midi": 64,
      "hit": false,
      "t": 170499.99999999997,
      "d": 362.5,
      "v": 72
    },
    {
      "midi": 57,
      "hit": false,
      "t": 170499.99999999997,
      "d": 375,
      "v": 78
    },
    {
      "midi": 61,
      "hit": false,
      "t": 170499.99999999997,
      "d": 383.33333333334303,
      "v": 89
    },
    {
      "midi": 52,
      "hit": false,
      "t": 170883.3333333333,
      "d": 66.66666666665697,
      "v": 91
    },
    {
      "midi": 64,
      "hit": false,
      "t": 170999.99999999997,
      "d": 129.16666666665697,
      "v": 82
    },
    {
      "midi": 57,
      "hit": false,
      "t": 170999.99999999997,
      "d": 137.5,
      "v": 84
    },
    {
      "midi": 61,
      "hit": false,
      "t": 170999.99999999997,
      "d": 141.66666666665697,
      "v": 89
    },
    {
      "midi": 57,
      "hit": false,
      "t": 171249.99999999997,
      "d": 437.5,
      "v": 91
    },
    {
      "midi": 61,
      "hit": false,
      "t": 171249.99999999997,
      "d": 441.66666666665697,
      "v": 93
    },
    {
      "midi": 64,
      "hit": false,
      "t": 171249.99999999997,
      "d": 441.66666666665697,
      "v": 86
    },
    {
      "midi": 52,
      "hit": false,
      "t": 171749.99999999997,
      "d": 170.83333333334303,
      "v": 97
    },
    {
      "midi": 61,
      "hit": false,
      "t": 171749.99999999997,
      "d": 229.16666666668607,
      "v": 106
    },
    {
      "midi": 57,
      "hit": false,
      "t": 171749.99999999997,
      "d": 250.0000000000291,
      "v": 99
    },
    {
      "midi": 64,
      "hit": false,
      "t": 171749.99999999997,
      "d": 250.0000000000291,
      "v": 93
    },
    {
      "midi": 45,
      "hit": false,
      "t": 172000,
      "d": 654.166666666657,
      "v": 95
    },
    {
      "midi": 63,
      "hit": false,
      "t": 172500,
      "d": 62.5,
      "v": 56
    },
    {
      "midi": 57,
      "hit": false,
      "t": 172500,
      "d": 391.66666666665697,
      "v": 91
    },
    {
      "midi": 64,
      "hit": false,
      "t": 172500,
      "d": 400,
      "v": 78
    },
    {
      "midi": 61,
      "hit": false,
      "t": 172500,
      "d": 404.16666666665697,
      "v": 95
    },
    {
      "midi": 52,
      "hit": false,
      "t": 172904.16666666666,
      "d": 79.16666666665697,
      "v": 102
    },
    {
      "midi": 57,
      "hit": false,
      "t": 172999.99999999997,
      "d": 116.66666666665697,
      "v": 86
    },
    {
      "midi": 61,
      "hit": false,
      "t": 172999.99999999997,
      "d": 133.33333333331393,
      "v": 95
    },
    {
      "midi": 64,
      "hit": false,
      "t": 172999.99999999997,
      "d": 133.33333333331393,
      "v": 91
    },
    {
      "midi": 64,
      "hit": false,
      "t": 173249.99999999994,
      "d": 333.33333333334303,
      "v": 93
    },
    {
      "midi": 57,
      "hit": false,
      "t": 173249.99999999994,
      "d": 350,
      "v": 97
    },
    {
      "midi": 61,
      "hit": false,
      "t": 173249.99999999994,
      "d": 362.5,
      "v": 106
    },
    {
      "midi": 57,
      "hit": false,
      "t": 173749.99999999994,
      "d": 162.5,
      "v": 84
    },
    {
      "midi": 52,
      "hit": false,
      "t": 173749.99999999994,
      "d": 166.66666666665697,
      "v": 104
    },
    {
      "midi": 61,
      "hit": false,
      "t": 173749.99999999994,
      "d": 166.66666666665697,
      "v": 97
    },
    {
      "midi": 64,
      "hit": false,
      "t": 173749.99999999994,
      "d": 166.66666666665697,
      "v": 89
    },
    {
      "midi": 45,
      "hit": false,
      "t": 173999.99999999994,
      "d": 600,
      "v": 93
    },
    {
      "midi": 64,
      "hit": false,
      "t": 174499.99999999994,
      "d": 362.5,
      "v": 72
    },
    {
      "midi": 57,
      "hit": false,
      "t": 174499.99999999994,
      "d": 375,
      "v": 78
    },
    {
      "midi": 61,
      "hit": false,
      "t": 174499.99999999994,
      "d": 383.33333333334303,
      "v": 89
    },
    {
      "midi": 52,
      "hit": false,
      "t": 174883.33333333328,
      "d": 66.66666666665697,
      "v": 91
    },
    {
      "midi": 64,
      "hit": false,
      "t": 174999.99999999994,
      "d": 129.16666666665697,
      "v": 82
    },
    {
      "midi": 57,
      "hit": false,
      "t": 174999.99999999994,
      "d": 137.5,
      "v": 84
    },
    {
      "midi": 61,
      "hit": false,
      "t": 174999.99999999994,
      "d": 141.66666666665697,
      "v": 89
    },
    {
      "midi": 57,
      "hit": false,
      "t": 175249.99999999994,
      "d": 437.5,
      "v": 91
    },
    {
      "midi": 61,
      "hit": false,
      "t": 175249.99999999994,
      "d": 441.66666666665697,
      "v": 93
    },
    {
      "midi": 64,
      "hit": false,
      "t": 175249.99999999994,
      "d": 441.66666666665697,
      "v": 86
    },
    {
      "midi": 52,
      "hit": false,
      "t": 175749.99999999994,
      "d": 170.83333333334303,
      "v": 97
    },
    {
      "midi": 61,
      "hit": false,
      "t": 175749.99999999994,
      "d": 229.16666666668607,
      "v": 106
    },
    {
      "midi": 57,
      "hit": false,
      "t": 175749.99999999994,
      "d": 250.0000000000291,
      "v": 99
    },
    {
      "midi": 64,
      "hit": false,
      "t": 175749.99999999994,
      "d": 250.0000000000291,
      "v": 93
    },
    {
      "midi": 45,
      "hit": false,
      "t": 175999.99999999997,
      "d": 654.166666666657,
      "v": 95
    },
    {
      "midi": 63,
      "hit": false,
      "t": 176499.99999999997,
      "d": 62.5,
      "v": 56
    },
    {
      "midi": 57,
      "hit": false,
      "t": 176499.99999999997,
      "d": 391.66666666665697,
      "v": 91
    },
    {
      "midi": 64,
      "hit": false,
      "t": 176499.99999999997,
      "d": 400,
      "v": 78
    },
    {
      "midi": 61,
      "hit": false,
      "t": 176499.99999999997,
      "d": 404.16666666665697,
      "v": 95
    },
    {
      "midi": 52,
      "hit": false,
      "t": 176904.16666666663,
      "d": 79.16666666665697,
      "v": 102
    },
    {
      "midi": 57,
      "hit": false,
      "t": 176999.99999999994,
      "d": 116.66666666665697,
      "v": 86
    },
    {
      "midi": 61,
      "hit": false,
      "t": 176999.99999999994,
      "d": 133.33333333331393,
      "v": 95
    },
    {
      "midi": 64,
      "hit": false,
      "t": 176999.99999999994,
      "d": 133.33333333331393,
      "v": 91
    },
    {
      "midi": 64,
      "hit": false,
      "t": 177249.9999999999,
      "d": 333.33333333334303,
      "v": 93
    },
    {
      "midi": 57,
      "hit": false,
      "t": 177249.9999999999,
      "d": 350,
      "v": 97
    },
    {
      "midi": 61,
      "hit": false,
      "t": 177249.9999999999,
      "d": 362.5,
      "v": 106
    },
    {
      "midi": 57,
      "hit": false,
      "t": 177749.9999999999,
      "d": 162.5,
      "v": 84
    },
    {
      "midi": 52,
      "hit": false,
      "t": 177749.9999999999,
      "d": 166.66666666665697,
      "v": 104
    },
    {
      "midi": 61,
      "hit": false,
      "t": 177749.9999999999,
      "d": 166.66666666665697,
      "v": 97
    },
    {
      "midi": 64,
      "hit": false,
      "t": 177749.9999999999,
      "d": 166.66666666665697,
      "v": 89
    },
    {
      "midi": 45,
      "hit": false,
      "t": 177999.9999999999,
      "d": 600,
      "v": 93
    },
    {
      "midi": 64,
      "hit": false,
      "t": 178499.9999999999,
      "d": 362.5,
      "v": 72
    },
    {
      "midi": 57,
      "hit": false,
      "t": 178499.9999999999,
      "d": 375,
      "v": 78
    },
    {
      "midi": 61,
      "hit": false,
      "t": 178499.9999999999,
      "d": 383.33333333334303,
      "v": 89
    },
    {
      "midi": 52,
      "hit": false,
      "t": 178883.33333333326,
      "d": 66.66666666665697,
      "v": 91
    },
    {
      "midi": 64,
      "hit": false,
      "t": 178999.9999999999,
      "d": 129.16666666665697,
      "v": 82
    },
    {
      "midi": 57,
      "hit": false,
      "t": 178999.9999999999,
      "d": 137.5,
      "v": 84
    },
    {
      "midi": 61,
      "hit": false,
      "t": 178999.9999999999,
      "d": 141.66666666665697,
      "v": 89
    },
    {
      "midi": 57,
      "hit": false,
      "t": 179249.9999999999,
      "d": 437.5,
      "v": 91
    },
    {
      "midi": 61,
      "hit": false,
      "t": 179249.9999999999,
      "d": 441.66666666665697,
      "v": 93
    },
    {
      "midi": 64,
      "hit": false,
      "t": 179249.9999999999,
      "d": 441.66666666665697,
      "v": 86
    },
    {
      "midi": 52,
      "hit": false,
      "t": 179749.9999999999,
      "d": 170.83333333334303,
      "v": 97
    },
    {
      "midi": 61,
      "hit": false,
      "t": 179749.9999999999,
      "d": 229.16666666668607,
      "v": 106
    },
    {
      "midi": 57,
      "hit": false,
      "t": 179749.9999999999,
      "d": 250.0000000000291,
      "v": 99
    },
    {
      "midi": 64,
      "hit": false,
      "t": 179749.9999999999,
      "d": 250.0000000000291,
      "v": 93
    },
    {
      "midi": 45,
      "hit": false,
      "t": 179999.99999999994,
      "d": 654.166666666657,
      "v": 95
    },
    {
      "midi": 63,
      "hit": false,
      "t": 180499.99999999994,
      "d": 62.5,
      "v": 56
    },
    {
      "midi": 57,
      "hit": false,
      "t": 180499.99999999994,
      "d": 391.66666666665697,
      "v": 91
    },
    {
      "midi": 64,
      "hit": false,
      "t": 180499.99999999994,
      "d": 400,
      "v": 78
    },
    {
      "midi": 61,
      "hit": false,
      "t": 180499.99999999994,
      "d": 404.16666666665697,
      "v": 95
    },
    {
      "midi": 52,
      "hit": false,
      "t": 180904.1666666666,
      "d": 79.16666666665697,
      "v": 102
    },
    {
      "midi": 57,
      "hit": false,
      "t": 180999.9999999999,
      "d": 116.66666666665697,
      "v": 86
    },
    {
      "midi": 61,
      "hit": false,
      "t": 180999.9999999999,
      "d": 133.33333333331393,
      "v": 95
    },
    {
      "midi": 64,
      "hit": false,
      "t": 180999.9999999999,
      "d": 133.33333333331393,
      "v": 91
    },
    {
      "midi": 64,
      "hit": false,
      "t": 181249.99999999988,
      "d": 333.33333333334303,
      "v": 93
    },
    {
      "midi": 57,
      "hit": false,
      "t": 181249.99999999988,
      "d": 350,
      "v": 97
    },
    {
      "midi": 61,
      "hit": false,
      "t": 181249.99999999988,
      "d": 362.5,
      "v": 106
    },
    {
      "midi": 57,
      "hit": false,
      "t": 181749.99999999988,
      "d": 162.5,
      "v": 84
    },
    {
      "midi": 52,
      "hit": false,
      "t": 181749.99999999988,
      "d": 166.66666666665697,
      "v": 104
    },
    {
      "midi": 61,
      "hit": false,
      "t": 181749.99999999988,
      "d": 166.66666666665697,
      "v": 97
    },
    {
      "midi": 64,
      "hit": false,
      "t": 181749.99999999988,
      "d": 166.66666666665697,
      "v": 89
    },
    {
      "midi": 45,
      "hit": false,
      "t": 181999.99999999988,
      "d": 600,
      "v": 93
    },
    {
      "midi": 64,
      "hit": false,
      "t": 182499.99999999988,
      "d": 362.5,
      "v": 72
    },
    {
      "midi": 57,
      "hit": false,
      "t": 182499.99999999988,
      "d": 375,
      "v": 78
    },
    {
      "midi": 61,
      "hit": false,
      "t": 182499.99999999988,
      "d": 383.33333333334303,
      "v": 89
    },
    {
      "midi": 52,
      "hit": false,
      "t": 182883.33333333323,
      "d": 66.66666666665697,
      "v": 91
    },
    {
      "midi": 64,
      "hit": false,
      "t": 182999.99999999988,
      "d": 129.16666666665697,
      "v": 82
    },
    {
      "midi": 57,
      "hit": false,
      "t": 182999.99999999988,
      "d": 137.5,
      "v": 84
    },
    {
      "midi": 61,
      "hit": false,
      "t": 182999.99999999988,
      "d": 141.66666666665697,
      "v": 89
    },
    {
      "midi": 57,
      "hit": false,
      "t": 183249.99999999988,
      "d": 437.5,
      "v": 91
    },
    {
      "midi": 61,
      "hit": false,
      "t": 183249.99999999988,
      "d": 441.66666666665697,
      "v": 93
    },
    {
      "midi": 64,
      "hit": false,
      "t": 183249.99999999988,
      "d": 441.66666666665697,
      "v": 86
    },
    {
      "midi": 52,
      "hit": false,
      "t": 183749.99999999988,
      "d": 170.83333333334303,
      "v": 97
    },
    {
      "midi": 61,
      "hit": false,
      "t": 183749.99999999988,
      "d": 229.16666666668607,
      "v": 106
    },
    {
      "midi": 57,
      "hit": false,
      "t": 183749.99999999988,
      "d": 250.0000000000291,
      "v": 99
    },
    {
      "midi": 64,
      "hit": false,
      "t": 183749.99999999988,
      "d": 250.0000000000291,
      "v": 93
    },
    {
      "midi": 45,
      "hit": false,
      "t": 183999.9999999999,
      "d": 654.166666666657,
      "v": 95
    },
    {
      "midi": 63,
      "hit": false,
      "t": 184499.9999999999,
      "d": 62.5,
      "v": 56
    },
    {
      "midi": 57,
      "hit": false,
      "t": 184499.9999999999,
      "d": 391.66666666665697,
      "v": 91
    },
    {
      "midi": 64,
      "hit": false,
      "t": 184499.9999999999,
      "d": 400,
      "v": 78
    },
    {
      "midi": 61,
      "hit": false,
      "t": 184499.9999999999,
      "d": 404.16666666665697,
      "v": 95
    },
    {
      "midi": 52,
      "hit": false,
      "t": 184904.16666666657,
      "d": 79.16666666665697,
      "v": 102
    },
    {
      "midi": 57,
      "hit": false,
      "t": 184999.99999999988,
      "d": 116.66666666665697,
      "v": 86
    },
    {
      "midi": 61,
      "hit": false,
      "t": 184999.99999999988,
      "d": 133.33333333331393,
      "v": 95
    },
    {
      "midi": 64,
      "hit": false,
      "t": 184999.99999999988,
      "d": 133.33333333331393,
      "v": 91
    },
    {
      "midi": 64,
      "hit": false,
      "t": 185249.99999999985,
      "d": 333.33333333334303,
      "v": 93
    },
    {
      "midi": 57,
      "hit": false,
      "t": 185249.99999999985,
      "d": 350,
      "v": 97
    },
    {
      "midi": 61,
      "hit": false,
      "t": 185249.99999999985,
      "d": 362.5,
      "v": 106
    },
    {
      "midi": 57,
      "hit": false,
      "t": 185749.99999999985,
      "d": 162.5,
      "v": 84
    },
    {
      "midi": 52,
      "hit": false,
      "t": 185749.99999999985,
      "d": 166.66666666665697,
      "v": 104
    },
    {
      "midi": 61,
      "hit": false,
      "t": 185749.99999999985,
      "d": 166.66666666665697,
      "v": 97
    },
    {
      "midi": 64,
      "hit": false,
      "t": 185749.99999999985,
      "d": 166.66666666665697,
      "v": 89
    },
    {
      "midi": 45,
      "hit": false,
      "t": 185999.99999999985,
      "d": 600,
      "v": 93
    },
    {
      "midi": 64,
      "hit": false,
      "t": 186499.99999999985,
      "d": 362.5,
      "v": 72
    },
    {
      "midi": 57,
      "hit": false,
      "t": 186499.99999999985,
      "d": 375,
      "v": 78
    },
    {
      "midi": 61,
      "hit": false,
      "t": 186499.99999999985,
      "d": 383.33333333334303,
      "v": 89
    },
    {
      "midi": 52,
      "hit": false,
      "t": 186883.3333333332,
      "d": 66.66666666665697,
      "v": 91
    },
    {
      "midi": 64,
      "hit": false,
      "t": 186999.99999999985,
      "d": 129.16666666665697,
      "v": 82
    },
    {
      "midi": 57,
      "hit": false,
      "t": 186999.99999999985,
      "d": 137.5,
      "v": 84
    },
    {
      "midi": 61,
      "hit": false,
      "t": 186999.99999999985,
      "d": 141.66666666665697,
      "v": 89
    },
    {
      "midi": 57,
      "hit": false,
      "t": 187249.99999999985,
      "d": 437.5,
      "v": 91
    },
    {
      "midi": 61,
      "hit": false,
      "t": 187249.99999999985,
      "d": 441.66666666665697,
      "v": 93
    },
    {
      "midi": 64,
      "hit": false,
      "t": 187249.99999999985,
      "d": 441.66666666665697,
      "v": 86
    },
    {
      "midi": 52,
      "hit": false,
      "t": 187749.99999999985,
      "d": 170.83333333334303,
      "v": 97
    },
    {
      "midi": 61,
      "hit": false,
      "t": 187749.99999999985,
      "d": 229.16666666668607,
      "v": 106
    },
    {
      "midi": 57,
      "hit": false,
      "t": 187749.99999999985,
      "d": 250.0000000000291,
      "v": 99
    },
    {
      "midi": 64,
      "hit": false,
      "t": 187749.99999999985,
      "d": 250.0000000000291,
      "v": 93
    },
    {
      "midi": 45,
      "hit": false,
      "t": 187999.99999999988,
      "d": 600,
      "v": 93
    },
    {
      "midi": 64,
      "hit": false,
      "t": 188499.99999999988,
      "d": 362.5,
      "v": 72
    },
    {
      "midi": 57,
      "hit": false,
      "t": 188499.99999999988,
      "d": 375,
      "v": 78
    },
    {
      "midi": 61,
      "hit": false,
      "t": 188499.99999999988,
      "d": 383.33333333334303,
      "v": 89
    },
    {
      "midi": 52,
      "hit": false,
      "t": 188883.33333333323,
      "d": 66.66666666665697,
      "v": 91
    },
    {
      "midi": 64,
      "hit": false,
      "t": 188999.99999999988,
      "d": 129.16666666665697,
      "v": 82
    },
    {
      "midi": 57,
      "hit": false,
      "t": 188999.99999999988,
      "d": 137.5,
      "v": 84
    },
    {
      "midi": 61,
      "hit": false,
      "t": 188999.99999999988,
      "d": 141.66666666665697,
      "v": 89
    },
    {
      "midi": 57,
      "hit": false,
      "t": 189249.99999999988,
      "d": 437.5,
      "v": 91
    },
    {
      "midi": 61,
      "hit": false,
      "t": 189249.99999999988,
      "d": 441.66666666665697,
      "v": 93
    },
    {
      "midi": 64,
      "hit": false,
      "t": 189249.99999999988,
      "d": 441.66666666665697,
      "v": 86
    },
    {
      "midi": 52,
      "hit": false,
      "t": 189749.99999999988,
      "d": 170.83333333334303,
      "v": 97
    },
    {
      "midi": 61,
      "hit": false,
      "t": 189749.99999999988,
      "d": 229.16666666668607,
      "v": 106
    },
    {
      "midi": 57,
      "hit": false,
      "t": 189749.99999999988,
      "d": 250.0000000000291,
      "v": 99
    },
    {
      "midi": 64,
      "hit": false,
      "t": 189749.99999999988,
      "d": 250.0000000000291,
      "v": 93
    }
  ]
}