{
  "jsonPath": "Unknown/Unknown/Frans BauerVader Abraham/waar-je-ook-bent-geboren-let-it-be-me.json",
  "path": "Unknown\\Unknown\\Frans BauerVader Abraham\\Waar Je Ook Bent Geboren (Let It Be Me).mid",
  "name": "Waar Je Ook Bent Geboren (Let It Be Me)",
  "difficulty": "Advanced",
  "bpm": 120,
  "notes": [
    {
      "midi": 57,
      "hit": false,
      "t": 666.6666666666666,
      "d": 1183.3333333333335,
      "v": 118
    },
    {
      "midi": 60,
      "hit": false,
      "t": 666.6666666666666,
      "d": 1183.3333333333335,
      "v": 118
    },
    {
      "midi": 65,
      "hit": false,
      "t": 666.6666666666666,
      "d": 1183.3333333333335,
      "v": 118
    },
    {
      "midi": 69,
      "hit": false,
      "t": 666.6666666666666,
      "d": 1183.3333333333335,
      "v": 118
    },
    {
      "midi": 58,
      "hit": false,
      "t": 2383.3333333333335,
      "d": 333.3333333333335,
      "v": 88
    },
    {
      "midi": 60,
      "hit": false,
      "t": 2716.666666666667,
      "d": 333.3333333333335,
      "v": 93
    },
    {
      "midi": 64,
      "hit": false,
      "t": 3066.666666666667,
      "d": 333.3333333333335,
      "v": 98
    },
    {
      "midi": 55,
      "hit": false,
      "t": 3400.0000000000005,
      "d": 283.3333333333335,
      "v": 98
    },
    {
      "midi": 60,
      "hit": false,
      "t": 3400.0000000000005,
      "d": 283.3333333333335,
      "v": 98
    },
    {
      "midi": 67,
      "hit": false,
      "t": 3400.0000000000005,
      "d": 283.3333333333335,
      "v": 98
    },
    {
      "midi": 48,
      "hit": false,
      "t": 3750.0000000000005,
      "d": 333.3333333333335,
      "v": 88
    },
    {
      "midi": 55,
      "hit": false,
      "t": 4083.333333333334,
      "d": 333.33333333333303,
      "v": 93
    },
    {
      "midi": 60,
      "hit": false,
      "t": 4766.666666666667,
      "d": 16.66666666666697,
      "v": 98
    },
    {
      "midi": 48,
      "hit": false,
      "t": 4766.666666666667,
      "d": 100,
      "v": 98
    },
    {
      "midi": 55,
      "hit": false,
      "t": 4766.666666666667,
      "d": 100,
      "v": 98
    },
    {
      "midi": 64,
      "hit": false,
      "t": 4766.666666666667,
      "d": 100,
      "v": 98
    },
    {
      "midi": 67,
      "hit": false,
      "t": 4766.666666666667,
      "d": 100,
      "v": 98
    },
    {
      "midi": 64,
      "hit": false,
      "t": 4933.333333333334,
      "d": 166.66666666666697,
      "v": 108
    },
    {
      "midi": 60,
      "hit": false,
      "t": 5100.000000000001,
      "d": 166.66666666666697,
      "v": 98
    },
    {
      "midi": 55,
      "hit": false,
      "t": 5283.333333333335,
      "d": 166.66666666666697,
      "v": 98
    },
    {
      "midi": 49,
      "hit": false,
      "t": 5450.000000000002,
      "d": 566.666666666667,
      "v": 98
    },
    {
      "midi": 58,
      "hit": false,
      "t": 5450.000000000002,
      "d": 566.666666666667,
      "v": 98
    },
    {
      "midi": 61,
      "hit": false,
      "t": 5450.000000000002,
      "d": 566.666666666667,
      "v": 98
    },
    {
      "midi": 64,
      "hit": false,
      "t": 5450.000000000002,
      "d": 566.666666666667,
      "v": 98
    },
    {
      "midi": 67,
      "hit": false,
      "t": 5450.000000000002,
      "d": 566.666666666667,
      "v": 98
    },
    {
      "midi": 57,
      "hit": false,
      "t": 6133.333333333336,
      "d": 1183.333333333333,
      "v": 98
    },
    {
      "midi": 62,
      "hit": false,
      "t": 6133.333333333336,
      "d": 1183.333333333333,
      "v": 98
    },
    {
      "midi": 65,
      "hit": false,
      "t": 6133.333333333336,
      "d": 1183.333333333333,
      "v": 98
    },
    {
      "midi": 50,
      "hit": false,
      "t": 7833.333333333336,
      "d": 333.33333333333303,
      "v": 98
    },
    {
      "midi": 57,
      "hit": false,
      "t": 8166.666666666669,
      "d": 666.666666666667,
      "v": 103
    },
    {
      "midi": 62,
      "hit": false,
      "t": 8166.666666666669,
      "d": 666.666666666667,
      "v": 103
    },
    {
      "midi": 65,
      "hit": false,
      "t": 8166.666666666669,
      "d": 666.666666666667,
      "v": 103
    },
    {
      "midi": 48,
      "hit": false,
      "t": 8850.000000000002,
      "d": 1183.333333333334,
      "v": 98
    },
    {
      "midi": 55,
      "hit": false,
      "t": 8850.000000000002,
      "d": 1183.333333333334,
      "v": 98
    },
    {
      "midi": 60,
      "hit": false,
      "t": 8850.000000000002,
      "d": 1183.333333333334,
      "v": 98
    },
    {
      "midi": 64,
      "hit": false,
      "t": 8850.000000000002,
      "d": 1183.333333333334,
      "v": 98
    },
    {
      "midi": 67,
      "hit": false,
      "t": 8850.000000000002,
      "d": 1183.333333333334,
      "v": 98
    },
    {
      "midi": 57,
      "hit": false,
      "t": 11583.333333333336,
      "d": 1183.333333333334,
      "v": 98
    },
    {
      "midi": 60,
      "hit": false,
      "t": 11583.333333333336,
      "d": 1183.333333333334,
      "v": 98
    },
    {
      "midi": 65,
      "hit": false,
      "t": 11583.333333333336,
      "d": 1183.333333333334,
      "v": 98
    },
    {
      "midi": 69,
      "hit": false,
      "t": 11583.333333333336,
      "d": 1183.333333333334,
      "v": 98
    },
    {
      "midi": 57,
      "hit": false,
      "t": 13283.333333333336,
      "d": 333.33333333333394,
      "v": 88
    },
    {
      "midi": 60,
      "hit": false,
      "t": 13633.333333333336,
      "d": 333.33333333333394,
      "v": 93
    },
    {
      "midi": 65,
      "hit": false,
      "t": 14316.66666666667,
      "d": 16.66666666666606,
      "v": 98
    },
    {
      "midi": 57,
      "hit": false,
      "t": 14316.66666666667,
      "d": 1183.3333333333321,
      "v": 98
    },
    {
      "midi": 60,
      "hit": false,
      "t": 14316.66666666667,
      "d": 1183.3333333333321,
      "v": 98
    },
    {
      "midi": 69,
      "hit": false,
      "t": 14316.66666666667,
      "d": 1183.3333333333321,
      "v": 98
    },
    {
      "midi": 57,
      "hit": false,
      "t": 16016.666666666668,
      "d": 333.33333333333394,
      "v": 88
    },
    {
      "midi": 60,
      "hit": false,
      "t": 16350.000000000002,
      "d": 333.33333333333394,
      "v": 93
    },
    {
      "midi": 65,
      "hit": false,
      "t": 16700.000000000004,
      "d": 333.3333333333321,
      "v": 98
    },
    {
      "midi": 58,
      "hit": false,
      "t": 17033.333333333336,
      "d": 283.3333333333321,
      "v": 98
    },
    {
      "midi": 60,
      "hit": false,
      "t": 17033.333333333336,
      "d": 283.3333333333321,
      "v": 98
    },
    {
      "midi": 64,
      "hit": false,
      "t": 17033.333333333336,
      "d": 283.3333333333321,
      "v": 98
    },
    {
      "midi": 67,
      "hit": false,
      "t": 17033.333333333336,
      "d": 283.3333333333321,
      "v": 98
    },
    {
      "midi": 58,
      "hit": false,
      "t": 17716.666666666668,
      "d": 283.3333333333321,
      "v": 98
    },
    {
      "midi": 60,
      "hit": false,
      "t": 18066.666666666668,
      "d": 283.3333333333321,
      "v": 88
    },
    {
      "midi": 58,
      "hit": false,
      "t": 18400,
      "d": 566.6666666666679,
      "v": 98
    },
    {
      "midi": 60,
      "hit": false,
      "t": 18400,
      "d": 566.6666666666679,
      "v": 98
    },
    {
      "midi": 64,
      "hit": false,
      "t": 18400,
      "d": 566.6666666666679,
      "v": 98
    },
    {
      "midi": 67,
      "hit": false,
      "t": 18400,
      "d": 566.6666666666679,
      "v": 98
    },
    {
      "midi": 58,
      "hit": false,
      "t": 19083.333333333336,
      "d": 566.6666666666679,
      "v": 98
    },
    {
      "midi": 61,
      "hit": false,
      "t": 19083.333333333336,
      "d": 566.6666666666679,
      "v": 98
    },
    {
      "midi": 64,
      "hit": false,
      "t": 19083.333333333336,
      "d": 566.6666666666679,
      "v": 98
    },
    {
      "midi": 67,
      "hit": false,
      "t": 19083.333333333336,
      "d": 566.6666666666679,
      "v": 98
    },
    {
      "midi": 57,
      "hit": false,
      "t": 19766.66666666667,
      "d": 1183.3333333333321,
      "v": 98
    },
    {
      "midi": 62,
      "hit": false,
      "t": 19766.66666666667,
      "d": 1183.3333333333321,
      "v": 98
    },
    {
      "midi": 65,
      "hit": false,
      "t": 19766.66666666667,
      "d": 1183.3333333333321,
      "v": 98
    },
    {
      "midi": 45,
      "hit": false,
      "t": 22500.000000000004,
      "d": 1183.3333333333321,
      "v": 98
    },
    {
      "midi": 57,
      "hit": false,
      "t": 22500.000000000004,
      "d": 1183.3333333333321,
      "v": 98
    },
    {
      "midi": 60,
      "hit": false,
      "t": 22500.000000000004,
      "d": 1183.3333333333321,
      "v": 98
    },
    {
      "midi": 64,
      "hit": false,
      "t": 22500.000000000004,
      "d": 1183.3333333333321,
      "v": 98
    },
    {
      "midi": 57,
      "hit": false,
      "t": 24200.000000000004,
      "d": 333.3333333333321,
      "v": 88
    },
    {
      "midi": 60,
      "hit": false,
      "t": 24533.333333333336,
      "d": 333.3333333333321,
      "v": 93
    },
    {
      "midi": 64,
      "hit": false,
      "t": 24883.333333333336,
      "d": 333.3333333333321,
      "v": 98
    },
    {
      "midi": 46,
      "hit": false,
      "t": 25216.666666666668,
      "d": 1183.3333333333321,
      "v": 98
    },
    {
      "midi": 53,
      "hit": false,
      "t": 25216.666666666668,
      "d": 1183.3333333333321,
      "v": 98
    },
    {
      "midi": 58,
      "hit": false,
      "t": 25216.666666666668,
      "d": 1183.3333333333321,
      "v": 98
    },
    {
      "midi": 62,
      "hit": false,
      "t": 25216.666666666668,
      "d": 1183.3333333333321,
      "v": 98
    },
    {
      "midi": 57,
      "hit": false,
      "t": 27950,
      "d": 1183.3333333333321,
      "v": 98
    },
    {
      "midi": 60,
      "hit": false,
      "t": 27950,
      "d": 1183.3333333333321,
      "v": 98
    },
    {
      "midi": 65,
      "hit": false,
      "t": 27950,
      "d": 1183.3333333333321,
      "v": 98
    },
    {
      "midi": 53,
      "hit": false,
      "t": 29650,
      "d": 333.3333333333321,
      "v": 98
    },
    {
      "midi": 57,
      "hit": false,
      "t": 30000,
      "d": 666.6666666666679,
      "v": 103
    },
    {
      "midi": 60,
      "hit": false,
      "t": 30000,
      "d": 666.6666666666679,
      "v": 103
    },
    {
      "midi": 69,
      "hit": false,
      "t": 30000,
      "d": 666.6666666666679,
      "v": 103
    },
    {
      "midi": 65,
      "hit": false,
      "t": 30000,
      "d": 683.3333333333358,
      "v": 103
    },
    {
      "midi": 58,
      "hit": false,
      "t": 30666.666666666668,
      "d": 283.33333333333576,
      "v": 98
    },
    {
      "midi": 62,
      "hit": false,
      "t": 30666.666666666668,
      "d": 283.33333333333576,
      "v": 98
    },
    {
      "midi": 67,
      "hit": false,
      "t": 30666.666666666668,
      "d": 283.33333333333576,
      "v": 98
    },
    {
      "midi": 55,
      "hit": false,
      "t": 31016.66666666667,
      "d": 333.3333333333321,
      "v": 88
    },
    {
      "midi": 58,
      "hit": false,
      "t": 31350.000000000004,
      "d": 333.3333333333321,
      "v": 93
    },
    {
      "midi": 62,
      "hit": false,
      "t": 32033.333333333336,
      "d": 16.66666666666788,
      "v": 98
    },
    {
      "midi": 55,
      "hit": false,
      "t": 32033.333333333336,
      "d": 566.6666666666679,
      "v": 98
    },
    {
      "midi": 58,
      "hit": false,
      "t": 32033.333333333336,
      "d": 566.6666666666679,
      "v": 98
    },
    {
      "midi": 65,
      "hit": false,
      "t": 32033.333333333336,
      "d": 566.6666666666679,
      "v": 98
    },
    {
      "midi": 67,
      "hit": false,
      "t": 32033.333333333336,
      "d": 566.6666666666679,
      "v": 98
    },
    {
      "midi": 48,
      "hit": false,
      "t": 32716.66666666667,
      "d": 566.6666666666642,
      "v": 98
    },
    {
      "midi": 58,
      "hit": false,
      "t": 32716.66666666667,
      "d": 566.6666666666642,
      "v": 98
    },
    {
      "midi": 61,
      "hit": false,
      "t": 32716.66666666667,
      "d": 566.6666666666642,
      "v": 98
    },
    {
      "midi": 64,
      "hit": false,
      "t": 32716.66666666667,
      "d": 566.6666666666642,
      "v": 98
    },
    {
      "midi": 67,
      "hit": false,
      "t": 32716.66666666667,
      "d": 566.6666666666642,
      "v": 98
    },
    {
      "midi": 57,
      "hit": false,
      "t": 33400,
      "d": 283.33333333333576,
      "v": 98
    },
    {
      "midi": 60,
      "hit": false,
      "t": 33400,
      "d": 283.33333333333576,
      "v": 98
    },
    {
      "midi": 65,
      "hit": false,
      "t": 33400,
      "d": 283.33333333333576,
      "v": 98
    },
    {
      "midi": 57,
      "hit": false,
      "t": 34083.333333333336,
      "d": 283.33333333333576,
      "v": 98
    },
    {
      "midi": 60,
      "hit": false,
      "t": 34416.66666666667,
      "d": 283.33333333333576,
      "v": 88
    },
    {
      "midi": 65,
      "hit": false,
      "t": 34766.66666666667,
      "d": 566.6666666666642,
      "v": 98
    },
    {
      "midi": 67,
      "hit": false,
      "t": 34766.66666666667,
      "d": 566.6666666666642,
      "v": 98
    },
    {
      "midi": 70,
      "hit": false,
      "t": 34766.66666666667,
      "d": 566.6666666666642,
      "v": 98
    },
    {
      "midi": 74,
      "hit": false,
      "t": 34766.66666666667,
      "d": 566.6666666666642,
      "v": 98
    },
    {
      "midi": 58,
      "hit": false,
      "t": 35450,
      "d": 566.6666666666642,
      "v": 98
    },
    {
      "midi": 60,
      "hit": false,
      "t": 35450,
      "d": 566.6666666666642,
      "v": 98
    },
    {
      "midi": 64,
      "hit": false,
      "t": 35450,
      "d": 566.6666666666642,
      "v": 98
    },
    {
      "midi": 67,
      "hit": false,
      "t": 35450,
      "d": 566.6666666666642,
      "v": 98
    },
    {
      "midi": 53,
      "hit": false,
      "t": 36133.33333333333,
      "d": 1183.3333333333358,
      "v": 98
    },
    {
      "midi": 57,
      "hit": false,
      "t": 36133.33333333333,
      "d": 1183.3333333333358,
      "v": 98
    },
    {
      "midi": 60,
      "hit": false,
      "t": 36133.33333333333,
      "d": 1183.3333333333358,
      "v": 98
    },
    {
      "midi": 65,
      "hit": false,
      "t": 36133.33333333333,
      "d": 1183.3333333333358,
      "v": 98
    },
    {
      "midi": 53,
      "hit": false,
      "t": 37833.33333333333,
      "d": 333.33333333333576,
      "v": 98
    },
    {
      "midi": 57,
      "hit": false,
      "t": 38166.666666666664,
      "d": 666.6666666666642,
      "v": 103
    },
    {
      "midi": 65,
      "hit": false,
      "t": 38166.666666666664,
      "d": 666.6666666666642,
      "v": 103
    },
    {
      "midi": 60,
      "hit": false,
      "t": 38166.666666666664,
      "d": 683.3333333333285,
      "v": 103
    },
    {
      "midi": 58,
      "hit": false,
      "t": 38849.99999999999,
      "d": 283.33333333333576,
      "v": 98
    },
    {
      "midi": 64,
      "hit": false,
      "t": 38849.99999999999,
      "d": 283.33333333333576,
      "v": 98
    },
    {
      "midi": 67,
      "hit": false,
      "t": 38849.99999999999,
      "d": 283.33333333333576,
      "v": 98
    },
    {
      "midi": 58,
      "hit": false,
      "t": 39533.33333333333,
      "d": 283.33333333333576,
      "v": 98
    },
    {
      "midi": 60,
      "hit": false,
      "t": 39883.33333333333,
      "d": 283.33333333333576,
      "v": 88
    },
    {
      "midi": 58,
      "hit": false,
      "t": 40216.666666666664,
      "d": 100,
      "v": 98
    },
    {
      "midi": 60,
      "hit": false,
      "t": 40216.666666666664,
      "d": 100,
      "v": 98
    },
    {
      "midi": 64,
      "hit": false,
      "t": 40216.666666666664,
      "d": 100,
      "v": 98
    },
    {
      "midi": 67,
      "hit": false,
      "t": 40216.666666666664,
      "d": 100,
      "v": 98
    },
    {
      "midi": 64,
      "hit": false,
      "t": 40383.33333333333,
      "d": 166.66666666666424,
      "v": 108
    },
    {
      "midi": 60,
      "hit": false,
      "t": 40566.66666666666,
      "d": 166.66666666666424,
      "v": 98
    },
    {
      "midi": 58,
      "hit": false,
      "t": 40899.999999999985,
      "d": 16.66666666666424,
      "v": 98
    },
    {
      "midi": 61,
      "hit": false,
      "t": 40899.999999999985,
      "d": 566.6666666666642,
      "v": 98
    },
    {
      "midi": 64,
      "hit": false,
      "t": 40899.999999999985,
      "d": 566.6666666666642,
      "v": 98
    },
    {
      "midi": 67,
      "hit": false,
      "t": 40899.999999999985,
      "d": 566.6666666666642,
      "v": 98
    },
    {
      "midi": 50,
      "hit": false,
      "t": 41583.333333333314,
      "d": 1183.3333333333358,
      "v": 98
    },
    {
      "midi": 57,
      "hit": false,
      "t": 41583.333333333314,
      "d": 1183.3333333333358,
      "v": 98
    },
    {
      "midi": 62,
      "hit": false,
      "t": 41583.333333333314,
      "d": 1183.3333333333358,
      "v": 98
    },
    {
      "midi": 65,
      "hit": false,
      "t": 41583.333333333314,
      "d": 1183.3333333333358,
      "v": 98
    },
    {
      "midi": 57,
      "hit": false,
      "t": 43283.333333333314,
      "d": 333.33333333333576,
      "v": 88
    },
    {
      "midi": 62,
      "hit": false,
      "t": 43633.333333333314,
      "d": 333.33333333333576,
      "v": 93
    },
    {
      "midi": 65,
      "hit": false,
      "t": 43966.66666666665,
      "d": 333.33333333333576,
      "v": 98
    },
    {
      "midi": 57,
      "hit": false,
      "t": 44316.66666666665,
      "d": 1183.3333333333358,
      "v": 98
    },
    {
      "midi": 60,
      "hit": false,
      "t": 44316.66666666665,
      "d": 1183.3333333333358,
      "v": 98
    },
    {
      "midi": 64,
      "hit": false,
      "t": 44316.66666666665,
      "d": 1183.3333333333358,
      "v": 98
    },
    {
      "midi": 46,
      "hit": false,
      "t": 47033.33333333332,
      "d": 1183.3333333333358,
      "v": 98
    },
    {
      "midi": 53,
      "hit": false,
      "t": 47033.33333333332,
      "d": 1183.3333333333358,
      "v": 98
    },
    {
      "midi": 58,
      "hit": false,
      "t": 47033.33333333332,
      "d": 1183.3333333333358,
      "v": 98
    },
    {
      "midi": 62,
      "hit": false,
      "t": 47033.33333333332,
      "d": 1183.3333333333358,
      "v": 98
    },
    {
      "midi": 53,
      "hit": false,
      "t": 48749.99999999999,
      "d": 333.33333333333576,
      "v": 88
    },
    {
      "midi": 58,
      "hit": false,
      "t": 49083.33333333333,
      "d": 333.33333333333576,
      "v": 93
    },
    {
      "midi": 62,
      "hit": false,
      "t": 49416.666666666664,
      "d": 333.33333333333576,
      "v": 98
    },
    {
      "midi": 57,
      "hit": false,
      "t": 49766.666666666664,
      "d": 1183.3333333333358,
      "v": 98
    },
    {
      "midi": 60,
      "hit": false,
      "t": 49766.666666666664,
      "d": 1183.3333333333358,
      "v": 98
    },
    {
      "midi": 65,
      "hit": false,
      "t": 49766.666666666664,
      "d": 1183.3333333333358,
      "v": 98
    },
    {
      "midi": 53,
      "hit": false,
      "t": 51466.666666666664,
      "d": 333.33333333333576,
      "v": 98
    },
    {
      "midi": 57,
      "hit": false,
      "t": 51816.666666666664,
      "d": 666.6666666666642,
      "v": 103
    },
    {
      "midi": 60,
      "hit": false,
      "t": 51816.666666666664,
      "d": 666.6666666666642,
      "v": 103
    },
    {
      "midi": 69,
      "hit": false,
      "t": 51816.666666666664,
      "d": 666.6666666666642,
      "v": 103
    },
    {
      "midi": 65,
      "hit": false,
      "t": 51816.666666666664,
      "d": 683.3333333333285,
      "v": 103
    },
    {
      "midi": 67,
      "hit": false,
      "t": 52499.99999999999,
      "d": 283.33333333333576,
      "v": 98
    },
    {
      "midi": 70,
      "hit": false,
      "t": 52499.99999999999,
      "d": 283.33333333333576,
      "v": 98
    },
    {
      "midi": 74,
      "hit": false,
      "t": 52499.99999999999,
      "d": 283.33333333333576,
      "v": 98
    },
    {
      "midi": 55,
      "hit": false,
      "t": 52833.33333333333,
      "d": 333.33333333333576,
      "v": 88
    },
    {
      "midi": 65,
      "hit": false,
      "t": 53166.666666666664,
      "d": 333.33333333333576,
      "v": 93
    },
    {
      "midi": 67,
      "hit": false,
      "t": 53850,
      "d": 16.66666666666424,
      "v": 98
    },
    {
      "midi": 65,
      "hit": false,
      "t": 53850,
      "d": 566.6666666666642,
      "v": 98
    },
    {
      "midi": 70,
      "hit": false,
      "t": 53850,
      "d": 566.6666666666642,
      "v": 98
    },
    {
      "midi": 74,
      "hit": false,
      "t": 53850,
      "d": 566.6666666666642,
      "v": 98
    },
    {
      "midi": 48,
      "hit": false,
      "t": 54533.33333333333,
      "d": 566.6666666666642,
      "v": 98
    },
    {
      "midi": 58,
      "hit": false,
      "t": 54533.33333333333,
      "d": 566.6666666666642,
      "v": 98
    },
    {
      "midi": 61,
      "hit": false,
      "t": 54533.33333333333,
      "d": 566.6666666666642,
      "v": 98
    },
    {
      "midi": 64,
      "hit": false,
      "t": 54533.33333333333,
      "d": 566.6666666666642,
      "v": 98
    },
    {
      "midi": 67,
      "hit": false,
      "t": 54533.33333333333,
      "d": 566.6666666666642,
      "v": 98
    },
    {
      "midi": 53,
      "hit": false,
      "t": 55216.66666666666,
      "d": 1183.3333333333358,
      "v": 98
    },
    {
      "midi": 57,
      "hit": false,
      "t": 55216.66666666666,
      "d": 1183.3333333333358,
      "v": 98
    },
    {
      "midi": 60,
      "hit": false,
      "t": 55216.66666666666,
      "d": 1183.3333333333358,
      "v": 98
    },
    {
      "midi": 65,
      "hit": false,
      "t": 55216.66666666666,
      "d": 1183.3333333333358,
      "v": 98
    },
    {
      "midi": 69,
      "hit": false,
      "t": 55216.66666666666,
      "d": 1183.3333333333358,
      "v": 98
    },
    {
      "midi": 57,
      "hit": false,
      "t": 56916.66666666666,
      "d": 333.33333333333576,
      "v": 88
    },
    {
      "midi": 60,
      "hit": false,
      "t": 57266.66666666666,
      "d": 333.33333333333576,
      "v": 93
    },
    {
      "midi": 65,
      "hit": false,
      "t": 57599.99999999999,
      "d": 333.33333333333576,
      "v": 98
    },
    {
      "midi": 58,
      "hit": false,
      "t": 57949.99999999999,
      "d": 1183.3333333333358,
      "v": 98
    },
    {
      "midi": 62,
      "hit": false,
      "t": 57949.99999999999,
      "d": 1183.3333333333358,
      "v": 98
    },
    {
      "midi": 70,
      "hit": false,
      "t": 57949.99999999999,
      "d": 1183.3333333333358,
      "v": 98
    },
    {
      "midi": 45,
      "hit": false,
      "t": 60666.666666666664,
      "d": 1183.3333333333358,
      "v": 98
    },
    {
      "midi": 57,
      "hit": false,
      "t": 60666.666666666664,
      "d": 1183.3333333333358,
      "v": 98
    },
    {
      "midi": 60,
      "hit": false,
      "t": 60666.666666666664,
      "d": 1183.3333333333358,
      "v": 98
    },
    {
      "midi": 64,
      "hit": false,
      "t": 60666.666666666664,
      "d": 1183.3333333333358,
      "v": 98
    },
    {
      "midi": 57,
      "hit": false,
      "t": 62383.333333333336,
      "d": 333.33333333333576,
      "v": 88
    },
    {
      "midi": 60,
      "hit": false,
      "t": 62716.66666666667,
      "d": 333.33333333333576,
      "v": 93
    },
    {
      "midi": 64,
      "hit": false,
      "t": 63066.66666666667,
      "d": 333.33333333333576,
      "v": 98
    },
    {
      "midi": 58,
      "hit": false,
      "t": 63400.00000000001,
      "d": 1183.3333333333358,
      "v": 98
    },
    {
      "midi": 62,
      "hit": false,
      "t": 63400.00000000001,
      "d": 1183.3333333333358,
      "v": 98
    },
    {
      "midi": 65,
      "hit": false,
      "t": 63400.00000000001,
      "d": 1183.3333333333358,
      "v": 98
    },
    {
      "midi": 57,
      "hit": false,
      "t": 66133.33333333334,
      "d": 1183.3333333333285,
      "v": 98
    },
    {
      "midi": 60,
      "hit": false,
      "t": 66133.33333333334,
      "d": 1183.3333333333285,
      "v": 98
    },
    {
      "midi": 65,
      "hit": false,
      "t": 66133.33333333334,
      "d": 1183.3333333333285,
      "v": 98
    },
    {
      "midi": 53,
      "hit": false,
      "t": 67833.33333333334,
      "d": 333.3333333333285,
      "v": 98
    },
    {
      "midi": 57,
      "hit": false,
      "t": 68166.66666666667,
      "d": 666.6666666666715,
      "v": 103
    },
    {
      "midi": 60,
      "hit": false,
      "t": 68166.66666666667,
      "d": 666.6666666666715,
      "v": 103
    },
    {
      "midi": 69,
      "hit": false,
      "t": 68166.66666666667,
      "d": 666.6666666666715,
      "v": 103
    },
    {
      "midi": 65,
      "hit": false,
      "t": 68166.66666666667,
      "d": 683.333333333343,
      "v": 103
    },
    {
      "midi": 58,
      "hit": false,
      "t": 68850.00000000001,
      "d": 1183.3333333333285,
      "v": 98
    },
    {
      "midi": 62,
      "hit": false,
      "t": 68850.00000000001,
      "d": 1183.3333333333285,
      "v": 98
    },
    {
      "midi": 67,
      "hit": false,
      "t": 68850.00000000001,
      "d": 1183.3333333333285,
      "v": 98
    },
    {
      "midi": 55,
      "hit": false,
      "t": 70566.66666666667,
      "d": 333.3333333333285,
      "v": 98
    },
    {
      "midi": 58,
      "hit": false,
      "t": 70900,
      "d": 666.6666666666715,
      "v": 103
    },
    {
      "midi": 62,
      "hit": false,
      "t": 70900,
      "d": 666.6666666666715,
      "v": 103
    },
    {
      "midi": 67,
      "hit": false,
      "t": 70900,
      "d": 666.6666666666715,
      "v": 103
    },
    {
      "midi": 65,
      "hit": false,
      "t": 70900,
      "d": 683.333333333343,
      "v": 103
    },
    {
      "midi": 57,
      "hit": false,
      "t": 71583.33333333334,
      "d": 1183.3333333333285,
      "v": 98
    },
    {
      "midi": 60,
      "hit": false,
      "t": 71583.33333333334,
      "d": 1183.3333333333285,
      "v": 98
    },
    {
      "midi": 53,
      "hit": false,
      "t": 73283.33333333334,
      "d": 333.3333333333285,
      "v": 98
    },
    {
      "midi": 57,
      "hit": false,
      "t": 73633.33333333334,
      "d": 666.6666666666715,
      "v": 103
    },
    {
      "midi": 60,
      "hit": false,
      "t": 73633.33333333334,
      "d": 666.6666666666715,
      "v": 103
    },
    {
      "midi": 69,
      "hit": false,
      "t": 73633.33333333334,
      "d": 666.6666666666715,
      "v": 103
    },
    {
      "midi": 65,
      "hit": false,
      "t": 73633.33333333334,
      "d": 683.333333333343,
      "v": 103
    },
    {
      "midi": 46,
      "hit": false,
      "t": 74316.66666666669,
      "d": 1183.3333333333285,
      "v": 98
    },
    {
      "midi": 58,
      "hit": false,
      "t": 74316.66666666669,
      "d": 1183.3333333333285,
      "v": 98
    },
    {
      "midi": 62,
      "hit": false,
      "t": 74316.66666666669,
      "d": 1183.3333333333285,
      "v": 98
    },
    {
      "midi": 70,
      "hit": false,
      "t": 74316.66666666669,
      "d": 1183.3333333333285,
      "v": 98
    },
    {
      "midi": 58,
      "hit": false,
      "t": 76016.66666666669,
      "d": 333.3333333333285,
      "v": 88
    },
    {
      "midi": 62,
      "hit": false,
      "t": 76350.00000000001,
      "d": 333.3333333333285,
      "v": 93
    },
    {
      "midi": 65,
      "hit": false,
      "t": 76700.00000000001,
      "d": 333.3333333333285,
      "v": 98
    },
    {
      "midi": 57,
      "hit": false,
      "t": 77033.33333333334,
      "d": 1183.3333333333285,
      "v": 98
    },
    {
      "midi": 61,
      "hit": false,
      "t": 77033.33333333334,
      "d": 1183.3333333333285,
      "v": 98
    },
    {
      "midi": 64,
      "hit": false,
      "t": 77033.33333333334,
      "d": 1183.3333333333285,
      "v": 98
    },
    {
      "midi": 53,
      "hit": false,
      "t": 79766.66666666667,
      "d": 1183.3333333333285,
      "v": 98
    },
    {
      "midi": 57,
      "hit": false,
      "t": 79766.66666666667,
      "d": 1183.3333333333285,
      "v": 98
    },
    {
      "midi": 60,
      "hit": false,
      "t": 79766.66666666667,
      "d": 1183.3333333333285,
      "v": 98
    },
    {
      "midi": 65,
      "hit": false,
      "t": 79766.66666666667,
      "d": 1183.3333333333285,
      "v": 98
    },
    {
      "midi": 69,
      "hit": false,
      "t": 79766.66666666667,
      "d": 1183.3333333333285,
      "v": 98
    },
    {
      "midi": 57,
      "hit": false,
      "t": 81466.66666666667,
      "d": 333.3333333333285,
      "v": 88
    },
    {
      "midi": 60,
      "hit": false,
      "t": 81816.66666666667,
      "d": 333.3333333333285,
      "v": 93
    },
    {
      "midi": 65,
      "hit": false,
      "t": 82150,
      "d": 333.3333333333285,
      "v": 98
    },
    {
      "midi": 58,
      "hit": false,
      "t": 82500,
      "d": 283.3333333333285,
      "v": 98
    },
    {
      "midi": 60,
      "hit": false,
      "t": 82500,
      "d": 283.3333333333285,
      "v": 98
    },
    {
      "midi": 64,
      "hit": false,
      "t": 82500,
      "d": 283.3333333333285,
      "v": 98
    },
    {
      "midi": 67,
      "hit": false,
      "t": 82500,
      "d": 283.3333333333285,
      "v": 98
    },
    {
      "midi": 48,
      "hit": false,
      "t": 82833.33333333333,
      "d": 333.3333333333285,
      "v": 88
    },
    {
      "midi": 58,
      "hit": false,
      "t": 83166.66666666666,
      "d": 333.3333333333285,
      "v": 93
    },
    {
      "midi": 60,
      "hit": false,
      "t": 83849.99999999999,
      "d": 16.666666666671517,
      "v": 98
    },
    {
      "midi": 58,
      "hit": false,
      "t": 83849.99999999999,
      "d": 566.6666666666715,
      "v": 98
    },
    {
      "midi": 64,
      "hit": false,
      "t": 83849.99999999999,
      "d": 566.6666666666715,
      "v": 98
    },
    {
      "midi": 67,
      "hit": false,
      "t": 83849.99999999999,
      "d": 566.6666666666715,
      "v": 98
    },
    {
      "midi": 58,
      "hit": false,
      "t": 84533.33333333333,
      "d": 566.6666666666715,
      "v": 98
    },
    {
      "midi": 61,
      "hit": false,
      "t": 84533.33333333333,
      "d": 566.6666666666715,
      "v": 98
    },
    {
      "midi": 64,
      "hit": false,
      "t": 84533.33333333333,
      "d": 566.6666666666715,
      "v": 98
    },
    {
      "midi": 67,
      "hit": false,
      "t": 84533.33333333333,
      "d": 566.6666666666715,
      "v": 98
    },
    {
      "midi": 57,
      "hit": false,
      "t": 85216.66666666667,
      "d": 1183.3333333333285,
      "v": 98
    },
    {
      "midi": 62,
      "hit": false,
      "t": 85216.66666666667,
      "d": 1183.3333333333285,
      "v": 98
    },
    {
      "midi": 65,
      "hit": false,
      "t": 85216.66666666667,
      "d": 1183.3333333333285,
      "v": 98
    },
    {
      "midi": 50,
      "hit": false,
      "t": 86916.66666666667,
      "d": 333.3333333333285,
      "v": 98
    },
    {
      "midi": 62,
      "hit": false,
      "t": 87266.66666666667,
      "d": 666.6666666666715,
      "v": 103
    },
    {
      "midi": 65,
      "hit": false,
      "t": 87266.66666666667,
      "d": 666.6666666666715,
      "v": 103
    },
    {
      "midi": 57,
      "hit": false,
      "t": 87266.66666666667,
      "d": 683.333333333343,
      "v": 103
    },
    {
      "midi": 60,
      "hit": false,
      "t": 87950.00000000001,
      "d": 1183.3333333333285,
      "v": 98
    },
    {
      "midi": 64,
      "hit": false,
      "t": 87950.00000000001,
      "d": 1183.3333333333285,
      "v": 98
    },
    {
      "midi": 69,
      "hit": false,
      "t": 87950.00000000001,
      "d": 1183.3333333333285,
      "v": 98
    },
    {
      "midi": 58,
      "hit": false,
      "t": 90666.66666666667,
      "d": 1183.3333333333285,
      "v": 98
    },
    {
      "midi": 62,
      "hit": false,
      "t": 90666.66666666667,
      "d": 1183.3333333333285,
      "v": 98
    },
    {
      "midi": 65,
      "hit": false,
      "t": 90666.66666666667,
      "d": 1183.3333333333285,
      "v": 98
    },
    {
      "midi": 46,
      "hit": false,
      "t": 92383.33333333333,
      "d": 333.3333333333285,
      "v": 98
    },
    {
      "midi": 58,
      "hit": false,
      "t": 92716.66666666666,
      "d": 666.6666666666715,
      "v": 103
    },
    {
      "midi": 62,
      "hit": false,
      "t": 92716.66666666666,
      "d": 666.6666666666715,
      "v": 103
    },
    {
      "midi": 65,
      "hit": false,
      "t": 92716.66666666666,
      "d": 683.333333333343,
      "v": 103
    },
    {
      "midi": 57,
      "hit": false,
      "t": 93400,
      "d": 1183.3333333333285,
      "v": 98
    },
    {
      "midi": 60,
      "hit": false,
      "t": 93400,
      "d": 1183.3333333333285,
      "v": 98
    },
    {
      "midi": 57,
      "hit": false,
      "t": 95100,
      "d": 333.3333333333285,
      "v": 88
    },
    {
      "midi": 60,
      "hit": false,
      "t": 95450,
      "d": 333.3333333333285,
      "v": 93
    },
    {
      "midi": 65,
      "hit": false,
      "t": 95783.33333333333,
      "d": 333.3333333333285,
      "v": 98
    },
    {
      "midi": 58,
      "hit": false,
      "t": 96133.33333333333,
      "d": 283.3333333333285,
      "v": 98
    },
    {
      "midi": 62,
      "hit": false,
      "t": 96133.33333333333,
      "d": 283.3333333333285,
      "v": 98
    },
    {
      "midi": 67,
      "hit": false,
      "t": 96133.33333333333,
      "d": 283.3333333333285,
      "v": 98
    },
    {
      "midi": 58,
      "hit": false,
      "t": 96816.66666666666,
      "d": 283.3333333333285,
      "v": 98
    },
    {
      "midi": 62,
      "hit": false,
      "t": 97149.99999999999,
      "d": 283.3333333333285,
      "v": 88
    },
    {
      "midi": 58,
      "hit": false,
      "t": 97499.99999999999,
      "d": 566.6666666666715,
      "v": 98
    },
    {
      "midi": 62,
      "hit": false,
      "t": 97499.99999999999,
      "d": 566.6666666666715,
      "v": 98
    },
    {
      "midi": 65,
      "hit": false,
      "t": 97499.99999999999,
      "d": 566.6666666666715,
      "v": 98
    },
    {
      "midi": 67,
      "hit": false,
      "t": 97499.99999999999,
      "d": 566.6666666666715,
      "v": 98
    },
    {
      "midi": 48,
      "hit": false,
      "t": 98166.66666666666,
      "d": 566.6666666666715,
      "v": 98
    },
    {
      "midi": 58,
      "hit": false,
      "t": 98166.66666666666,
      "d": 566.6666666666715,
      "v": 98
    },
    {
      "midi": 61,
      "hit": false,
      "t": 98166.66666666666,
      "d": 566.6666666666715,
      "v": 98
    },
    {
      "midi": 64,
      "hit": false,
      "t": 98166.66666666666,
      "d": 566.6666666666715,
      "v": 98
    },
    {
      "midi": 67,
      "hit": false,
      "t": 98166.66666666666,
      "d": 566.6666666666715,
      "v": 98
    },
    {
      "midi": 57,
      "hit": false,
      "t": 98850,
      "d": 283.3333333333285,
      "v": 98
    },
    {
      "midi": 60,
      "hit": false,
      "t": 98850,
      "d": 283.3333333333285,
      "v": 98
    },
    {
      "midi": 65,
      "hit": false,
      "t": 98850,
      "d": 283.3333333333285,
      "v": 98
    },
    {
      "midi": 69,
      "hit": false,
      "t": 98850,
      "d": 283.3333333333285,
      "v": 98
    },
    {
      "midi": 53,
      "hit": false,
      "t": 99200,
      "d": 333.3333333333285,
      "v": 98
    },
    {
      "midi": 57,
      "hit": false,
      "t": 99883.33333333333,
      "d": 16.666666666671517,
      "v": 93
    },
    {
      "midi": 60,
      "hit": false,
      "t": 99883.33333333333,
      "d": 283.33333333334303,
      "v": 93
    },
    {
      "midi": 65,
      "hit": false,
      "t": 99883.33333333333,
      "d": 283.33333333334303,
      "v": 93
    },
    {
      "midi": 69,
      "hit": false,
      "t": 99883.33333333333,
      "d": 283.33333333334303,
      "v": 93
    },
    {
      "midi": 58,
      "hit": false,
      "t": 100216.66666666667,
      "d": 566.6666666666715,
      "v": 98
    },
    {
      "midi": 62,
      "hit": false,
      "t": 100216.66666666667,
      "d": 566.6666666666715,
      "v": 98
    },
    {
      "midi": 65,
      "hit": false,
      "t": 100216.66666666667,
      "d": 566.6666666666715,
      "v": 98
    },
    {
      "midi": 67,
      "hit": false,
      "t": 100216.66666666667,
      "d": 566.6666666666715,
      "v": 98
    },
    {
      "midi": 58,
      "hit": false,
      "t": 100900.00000000001,
      "d": 500,
      "v": 98
    },
    {
      "midi": 60,
      "hit": false,
      "t": 100900.00000000001,
      "d": 500,
      "v": 98
    },
    {
      "midi": 64,
      "hit": false,
      "t": 100900.00000000001,
      "d": 500,
      "v": 98
    },
    {
      "midi": 67,
      "hit": false,
      "t": 100900.00000000001,
      "d": 500,
      "v": 98
    },
    {
      "midi": 57,
      "hit": false,
      "t": 101583.33333333334,
      "d": 1183.3333333333285,
      "v": 98
    },
    {
      "midi": 60,
      "hit": false,
      "t": 101583.33333333334,
      "d": 1183.3333333333285,
      "v": 98
    },
    {
      "midi": 65,
      "hit": false,
      "t": 101583.33333333334,
      "d": 1183.3333333333285,
      "v": 98
    },
    {
      "midi": 69,
      "hit": false,
      "t": 101583.33333333334,
      "d": 1183.3333333333285,
      "v": 98
    },
    {
      "midi": 57,
      "hit": false,
      "t": 103283.33333333334,
      "d": 333.3333333333285,
      "v": 88
    },
    {
      "midi": 60,
      "hit": false,
      "t": 103633.33333333334,
      "d": 333.3333333333285,
      "v": 93
    },
    {
      "midi": 65,
      "hit": false,
      "t": 103966.66666666667,
      "d": 333.3333333333285,
      "v": 98
    },
    {
      "midi": 58,
      "hit": false,
      "t": 104316.66666666667,
      "d": 283.3333333333285,
      "v": 98
    },
    {
      "midi": 60,
      "hit": false,
      "t": 104316.66666666667,
      "d": 283.3333333333285,
      "v": 98
    },
    {
      "midi": 64,
      "hit": false,
      "t": 104316.66666666667,
      "d": 283.3333333333285,
      "v": 98
    },
    {
      "midi": 67,
      "hit": false,
      "t": 104316.66666666667,
      "d": 283.3333333333285,
      "v": 98
    },
    {
      "midi": 58,
      "hit": false,
      "t": 105000,
      "d": 283.3333333333285,
      "v": 98
    },
    {
      "midi": 60,
      "hit": false,
      "t": 105333.33333333333,
      "d": 283.3333333333285,
      "v": 88
    },
    {
      "midi": 58,
      "hit": false,
      "t": 105666.66666666666,
      "d": 566.6666666666715,
      "v": 98
    },
    {
      "midi": 60,
      "hit": false,
      "t": 105666.66666666666,
      "d": 566.6666666666715,
      "v": 98
    },
    {
      "midi": 64,
      "hit": false,
      "t": 105666.66666666666,
      "d": 566.6666666666715,
      "v": 98
    },
    {
      "midi": 67,
      "hit": false,
      "t": 105666.66666666666,
      "d": 566.6666666666715,
      "v": 98
    },
    {
      "midi": 58,
      "hit": false,
      "t": 106350,
      "d": 566.6666666666715,
      "v": 98
    },
    {
      "midi": 61,
      "hit": false,
      "t": 106350,
      "d": 566.6666666666715,
      "v": 98
    },
    {
      "midi": 64,
      "hit": false,
      "t": 106350,
      "d": 566.6666666666715,
      "v": 98
    },
    {
      "midi": 67,
      "hit": false,
      "t": 106350,
      "d": 566.6666666666715,
      "v": 98
    },
    {
      "midi": 57,
      "hit": false,
      "t": 107033.33333333334,
      "d": 1183.3333333333285,
      "v": 98
    },
    {
      "midi": 62,
      "hit": false,
      "t": 107033.33333333334,
      "d": 1183.3333333333285,
      "v": 98
    },
    {
      "midi": 65,
      "hit": false,
      "t": 107033.33333333334,
      "d": 1183.3333333333285,
      "v": 98
    },
    {
      "midi": 45,
      "hit": false,
      "t": 109766.66666666667,
      "d": 1183.3333333333285,
      "v": 98
    },
    {
      "midi": 57,
      "hit": false,
      "t": 109766.66666666667,
      "d": 1183.3333333333285,
      "v": 98
    },
    {
      "midi": 60,
      "hit": false,
      "t": 109766.66666666667,
      "d": 1183.3333333333285,
      "v": 98
    },
    {
      "midi": 64,
      "hit": false,
      "t": 109766.66666666667,
      "d": 1183.3333333333285,
      "v": 98
    },
    {
      "midi": 57,
      "hit": false,
      "t": 111466.66666666667,
      "d": 333.3333333333285,
      "v": 88
    },
    {
      "midi": 60,
      "hit": false,
      "t": 111816.66666666667,
      "d": 333.3333333333285,
      "v": 93
    },
    {
      "midi": 64,
      "hit": false,
      "t": 112150,
      "d": 333.3333333333285,
      "v": 98
    },
    {
      "midi": 46,
      "hit": false,
      "t": 112500,
      "d": 1183.3333333333285,
      "v": 98
    },
    {
      "midi": 53,
      "hit": false,
      "t": 112500,
      "d": 1183.3333333333285,
      "v": 98
    },
    {
      "midi": 58,
      "hit": false,
      "t": 112500,
      "d": 1183.3333333333285,
      "v": 98
    },
    {
      "midi": 62,
      "hit": false,
      "t": 112500,
      "d": 1183.3333333333285,
      "v": 98
    },
    {
      "midi": 57,
      "hit": false,
      "t": 115216.66666666666,
      "d": 1183.3333333333285,
      "v": 98
    },
    {
      "midi": 60,
      "hit": false,
      "t": 115216.66666666666,
      "d": 1183.3333333333285,
      "v": 98
    },
    {
      "midi": 65,
      "hit": false,
      "t": 115216.66666666666,
      "d": 1183.3333333333285,
      "v": 98
    },
    {
      "midi": 53,
      "hit": false,
      "t": 116916.66666666666,
      "d": 333.3333333333285,
      "v": 98
    },
    {
      "midi": 57,
      "hit": false,
      "t": 117266.66666666666,
      "d": 666.6666666666715,
      "v": 103
    },
    {
      "midi": 60,
      "hit": false,
      "t": 117266.66666666666,
      "d": 666.6666666666715,
      "v": 103
    },
    {
      "midi": 69,
      "hit": false,
      "t": 117266.66666666666,
      "d": 666.6666666666715,
      "v": 103
    },
    {
      "midi": 65,
      "hit": false,
      "t": 117266.66666666666,
      "d": 683.333333333343,
      "v": 103
    },
    {
      "midi": 58,
      "hit": false,
      "t": 117950,
      "d": 283.3333333333285,
      "v": 98
    },
    {
      "midi": 62,
      "hit": false,
      "t": 117950,
      "d": 283.3333333333285,
      "v": 98
    },
    {
      "midi": 67,
      "hit": false,
      "t": 117950,
      "d": 283.3333333333285,
      "v": 98
    },
    {
      "midi": 55,
      "hit": false,
      "t": 118283.33333333333,
      "d": 333.3333333333285,
      "v": 88
    },
    {
      "midi": 58,
      "hit": false,
      "t": 118633.33333333333,
      "d": 333.3333333333285,
      "v": 93
    },
    {
      "midi": 62,
      "hit": false,
      "t": 119316.66666666666,
      "d": 16.666666666671517,
      "v": 98
    },
    {
      "midi": 55,
      "hit": false,
      "t": 119316.66666666666,
      "d": 566.6666666666715,
      "v": 98
    },
    {
      "midi": 58,
      "hit": false,
      "t": 119316.66666666666,
      "d": 566.6666666666715,
      "v": 98
    },
    {
      "midi": 65,
      "hit": false,
      "t": 119316.66666666666,
      "d": 566.6666666666715,
      "v": 98
    },
    {
      "midi": 67,
      "hit": false,
      "t": 119316.66666666666,
      "d": 566.6666666666715,
      "v": 98
    },
    {
      "midi": 48,
      "hit": false,
      "t": 120000,
      "d": 566.6666666666715,
      "v": 98
    },
    {
      "midi": 58,
      "hit": false,
      "t": 120000,
      "d": 566.6666666666715,
      "v": 98
    },
    {
      "midi": 61,
      "hit": false,
      "t": 120000,
      "d": 566.6666666666715,
      "v": 98
    },
    {
      "midi": 64,
      "hit": false,
      "t": 120000,
      "d": 566.6666666666715,
      "v": 98
    },
    {
      "midi": 67,
      "hit": false,
      "t": 120000,
      "d": 566.6666666666715,
      "v": 98
    },
    {
      "midi": 57,
      "hit": false,
      "t": 120666.66666666667,
      "d": 283.3333333333285,
      "v": 98
    },
    {
      "midi": 60,
      "hit": false,
      "t": 120666.66666666667,
      "d": 283.3333333333285,
      "v": 98
    },
    {
      "midi": 65,
      "hit": false,
      "t": 120666.66666666667,
      "d": 283.3333333333285,
      "v": 98
    },
    {
      "midi": 57,
      "hit": false,
      "t": 121350,
      "d": 283.3333333333285,
      "v": 98
    },
    {
      "midi": 60,
      "hit": false,
      "t": 121700,
      "d": 283.3333333333285,
      "v": 88
    },
    {
      "midi": 65,
      "hit": false,
      "t": 122033.33333333333,
      "d": 566.6666666666715,
      "v": 98
    },
    {
      "midi": 67,
      "hit": false,
      "t": 122033.33333333333,
      "d": 566.6666666666715,
      "v": 98
    },
    {
      "midi": 70,
      "hit": false,
      "t": 122033.33333333333,
      "d": 566.6666666666715,
      "v": 98
    },
    {
      "midi": 74,
      "hit": false,
      "t": 122033.33333333333,
      "d": 566.6666666666715,
      "v": 98
    },
    {
      "midi": 58,
      "hit": false,
      "t": 122716.66666666667,
      "d": 566.6666666666715,
      "v": 98
    },
    {
      "midi": 60,
      "hit": false,
      "t": 122716.66666666667,
      "d": 566.6666666666715,
      "v": 98
    },
    {
      "midi": 64,
      "hit": false,
      "t": 122716.66666666667,
      "d": 566.6666666666715,
      "v": 98
    },
    {
      "midi": 67,
      "hit": false,
      "t": 122716.66666666667,
      "d": 566.6666666666715,
      "v": 98
    },
    {
      "midi": 53,
      "hit": false,
      "t": 123400.00000000001,
      "d": 1183.3333333333285,
      "v": 98
    },
    {
      "midi": 57,
      "hit": false,
      "t": 123400.00000000001,
      "d": 1183.3333333333285,
      "v": 98
    },
    {
      "midi": 60,
      "hit": false,
      "t": 123400.00000000001,
      "d": 1183.3333333333285,
      "v": 98
    },
    {
      "midi": 65,
      "hit": false,
      "t": 123400.00000000001,
      "d": 1183.3333333333285,
      "v": 98
    },
    {
      "midi": 53,
      "hit": false,
      "t": 125100.00000000001,
      "d": 333.3333333333285,
      "v": 98
    },
    {
      "midi": 57,
      "hit": false,
      "t": 125450.00000000001,
      "d": 666.6666666666715,
      "v": 103
    },
    {
      "midi": 65,
      "hit": false,
      "t": 125450.00000000001,
      "d": 666.6666666666715,
      "v": 103
    },
    {
      "midi": 60,
      "hit": false,
      "t": 125450.00000000001,
      "d": 683.333333333343,
      "v": 103
    },
    {
      "midi": 58,
      "hit": false,
      "t": 126133.33333333336,
      "d": 283.3333333333285,
      "v": 98
    },
    {
      "midi": 64,
      "hit": false,
      "t": 126133.33333333336,
      "d": 283.3333333333285,
      "v": 98
    },
    {
      "midi": 67,
      "hit": false,
      "t": 126133.33333333336,
      "d": 283.3333333333285,
      "v": 98
    },
    {
      "midi": 58,
      "hit": false,
      "t": 126816.66666666669,
      "d": 283.3333333333285,
      "v": 98
    },
    {
      "midi": 60,
      "hit": false,
      "t": 127150.00000000001,
      "d": 283.3333333333285,
      "v": 88
    },
    {
      "midi": 58,
      "hit": false,
      "t": 127500.00000000001,
      "d": 100,
      "v": 98
    },
    {
      "midi": 60,
      "hit": false,
      "t": 127500.00000000001,
      "d": 100,
      "v": 98
    },
    {
      "midi": 64,
      "hit": false,
      "t": 127500.00000000001,
      "d": 100,
      "v": 98
    },
    {
      "midi": 67,
      "hit": false,
      "t": 127500.00000000001,
      "d": 100,
      "v": 98
    },
    {
      "midi": 64,
      "hit": false,
      "t": 127666.66666666669,
      "d": 166.66666666667152,
      "v": 108
    },
    {
      "midi": 60,
      "hit": false,
      "t": 127833.33333333336,
      "d": 166.66666666667152,
      "v": 98
    },
    {
      "midi": 58,
      "hit": false,
      "t": 128166.6666666667,
      "d": 16.666666666671517,
      "v": 98
    },
    {
      "midi": 61,
      "hit": false,
      "t": 128166.6666666667,
      "d": 566.6666666666715,
      "v": 98
    },
    {
      "midi": 64,
      "hit": false,
      "t": 128166.6666666667,
      "d": 566.6666666666715,
      "v": 98
    },
    {
      "midi": 67,
      "hit": false,
      "t": 128166.6666666667,
      "d": 566.6666666666715,
      "v": 98
    },
    {
      "midi": 50,
      "hit": false,
      "t": 128850.00000000004,
      "d": 1183.3333333333285,
      "v": 98
    },
    {
      "midi": 57,
      "hit": false,
      "t": 128850.00000000004,
      "d": 1183.3333333333285,
      "v": 98
    },
    {
      "midi": 62,
      "hit": false,
      "t": 128850.00000000004,
      "d": 1183.3333333333285,
      "v": 98
    },
    {
      "midi": 65,
      "hit": false,
      "t": 128850.00000000004,
      "d": 1183.3333333333285,
      "v": 98
    },
    {
      "midi": 57,
      "hit": false,
      "t": 130566.6666666667,
      "d": 333.3333333333285,
      "v": 88
    },
    {
      "midi": 62,
      "hit": false,
      "t": 130900.00000000003,
      "d": 333.33333333334303,
      "v": 93
    },
    {
      "midi": 65,
      "hit": false,
      "t": 131250.00000000003,
      "d": 333.33333333334303,
      "v": 98
    },
    {
      "midi": 57,
      "hit": false,
      "t": 131583.33333333337,
      "d": 1183.333333333343,
      "v": 98
    },
    {
      "midi": 60,
      "hit": false,
      "t": 131583.33333333337,
      "d": 1183.333333333343,
      "v": 98
    },
    {
      "midi": 64,
      "hit": false,
      "t": 131583.33333333337,
      "d": 1183.333333333343,
      "v": 98
    },
    {
      "midi": 46,
      "hit": false,
      "t": 134316.66666666672,
      "d": 1183.333333333343,
      "v": 98
    },
    {
      "midi": 53,
      "hit": false,
      "t": 134316.66666666672,
      "d": 1183.333333333343,
      "v": 98
    },
    {
      "midi": 58,
      "hit": false,
      "t": 134316.66666666672,
      "d": 1183.333333333343,
      "v": 98
    },
    {
      "midi": 62,
      "hit": false,
      "t": 134316.66666666672,
      "d": 1183.333333333343,
      "v": 98
    },
    {
      "midi": 53,
      "hit": false,
      "t": 136016.66666666672,
      "d": 333.33333333334303,
      "v": 88
    },
    {
      "midi": 58,
      "hit": false,
      "t": 136350.00000000006,
      "d": 333.33333333334303,
      "v": 93
    },
    {
      "midi": 62,
      "hit": false,
      "t": 136700.00000000006,
      "d": 333.33333333334303,
      "v": 98
    },
    {
      "midi": 57,
      "hit": false,
      "t": 137033.3333333334,
      "d": 1183.333333333343,
      "v": 98
    },
    {
      "midi": 60,
      "hit": false,
      "t": 137033.3333333334,
      "d": 1183.333333333343,
      "v": 98
    },
    {
      "midi": 65,
      "hit": false,
      "t": 137033.3333333334,
      "d": 1183.333333333343,
      "v": 98
    },
    {
      "midi": 53,
      "hit": false,
      "t": 138750.0000000001,
      "d": 333.33333333334303,
      "v": 98
    },
    {
      "midi": 57,
      "hit": false,
      "t": 139083.33333333343,
      "d": 666.666666666657,
      "v": 103
    },
    {
      "midi": 60,
      "hit": false,
      "t": 139083.33333333343,
      "d": 666.666666666657,
      "v": 103
    },
    {
      "midi": 69,
      "hit": false,
      "t": 139083.33333333343,
      "d": 666.666666666657,
      "v": 103
    },
    {
      "midi": 65,
      "hit": false,
      "t": 139083.33333333343,
      "d": 683.3333333333139,
      "v": 103
    },
    {
      "midi": 67,
      "hit": false,
      "t": 139766.66666666674,
      "d": 283.33333333334303,
      "v": 98
    },
    {
      "midi": 70,
      "hit": false,
      "t": 139766.66666666674,
      "d": 283.33333333334303,
      "v": 98
    },
    {
      "midi": 74,
      "hit": false,
      "t": 139766.66666666674,
      "d": 283.33333333334303,
      "v": 98
    },
    {
      "midi": 55,
      "hit": false,
      "t": 140100.0000000001,
      "d": 333.33333333334303,
      "v": 88
    },
    {
      "midi": 65,
      "hit": false,
      "t": 140450.0000000001,
      "d": 333.33333333334303,
      "v": 93
    },
    {
      "midi": 67,
      "hit": false,
      "t": 141133.33333333343,
      "d": 16.666666666656965,
      "v": 98
    },
    {
      "midi": 65,
      "hit": false,
      "t": 141133.33333333343,
      "d": 566.666666666657,
      "v": 98
    },
    {
      "midi": 70,
      "hit": false,
      "t": 141133.33333333343,
      "d": 566.666666666657,
      "v": 98
    },
    {
      "midi": 74,
      "hit": false,
      "t": 141133.33333333343,
      "d": 566.666666666657,
      "v": 98
    },
    {
      "midi": 48,
      "hit": false,
      "t": 141816.66666666674,
      "d": 566.666666666657,
      "v": 98
    },
    {
      "midi": 58,
      "hit": false,
      "t": 141816.66666666674,
      "d": 566.666666666657,
      "v": 98
    },
    {
      "midi": 61,
      "hit": false,
      "t": 141816.66666666674,
      "d": 566.666666666657,
      "v": 98
    },
    {
      "midi": 64,
      "hit": false,
      "t": 141816.66666666674,
      "d": 566.666666666657,
      "v": 98
    },
    {
      "midi": 67,
      "hit": false,
      "t": 141816.66666666674,
      "d": 566.666666666657,
      "v": 98
    },
    {
      "midi": 53,
      "hit": false,
      "t": 142500.00000000006,
      "d": 1183.333333333343,
      "v": 98
    },
    {
      "midi": 57,
      "hit": false,
      "t": 142500.00000000006,
      "d": 1183.333333333343,
      "v": 98
    },
    {
      "midi": 60,
      "hit": false,
      "t": 142500.00000000006,
      "d": 1183.333333333343,
      "v": 98
    },
    {
      "midi": 65,
      "hit": false,
      "t": 142500.00000000006,
      "d": 1183.333333333343,
      "v": 98
    },
    {
      "midi": 69,
      "hit": false,
      "t": 142500.00000000006,
      "d": 1183.333333333343,
      "v": 98
    },
    {
      "midi": 57,
      "hit": false,
      "t": 144200.00000000006,
      "d": 333.33333333334303,
      "v": 88
    },
    {
      "midi": 60,
      "hit": false,
      "t": 144533.3333333334,
      "d": 333.33333333334303,
      "v": 93
    },
    {
      "midi": 65,
      "hit": false,
      "t": 144883.3333333334,
      "d": 333.33333333334303,
      "v": 98
    },
    {
      "midi": 58,
      "hit": false,
      "t": 145216.66666666674,
      "d": 1183.333333333343,
      "v": 98
    },
    {
      "midi": 62,
      "hit": false,
      "t": 145216.66666666674,
      "d": 1183.333333333343,
      "v": 98
    },
    {
      "midi": 70,
      "hit": false,
      "t": 145216.66666666674,
      "d": 1183.333333333343,
      "v": 98
    },
    {
      "midi": 45,
      "hit": false,
      "t": 147950.0000000001,
      "d": 1183.333333333343,
      "v": 98
    },
    {
      "midi": 57,
      "hit": false,
      "t": 147950.0000000001,
      "d": 1183.333333333343,
      "v": 98
    },
    {
      "midi": 60,
      "hit": false,
      "t": 147950.0000000001,
      "d": 1183.333333333343,
      "v": 98
    },
    {
      "midi": 64,
      "hit": false,
      "t": 147950.0000000001,
      "d": 1183.333333333343,
      "v": 98
    },
    {
      "midi": 57,
      "hit": false,
      "t": 149650.0000000001,
      "d": 333.33333333334303,
      "v": 88
    },
    {
      "midi": 60,
      "hit": false,
      "t": 150000.0000000001,
      "d": 333.33333333334303,
      "v": 93
    },
    {
      "midi": 64,
      "hit": false,
      "t": 150333.33333333343,
      "d": 333.33333333334303,
      "v": 98
    },
    {
      "midi": 58,
      "hit": false,
      "t": 150666.66666666677,
      "d": 1183.333333333343,
      "v": 98
    },
    {
      "midi": 62,
      "hit": false,
      "t": 150666.66666666677,
      "d": 1183.333333333343,
      "v": 98
    },
    {
      "midi": 65,
      "hit": false,
      "t": 150666.66666666677,
      "d": 1183.333333333343,
      "v": 98
    },
    {
      "midi": 57,
      "hit": false,
      "t": 153400.00000000012,
      "d": 1183.333333333343,
      "v": 98
    },
    {
      "midi": 60,
      "hit": false,
      "t": 153400.00000000012,
      "d": 1183.333333333343,
      "v": 98
    },
    {
      "midi": 65,
      "hit": false,
      "t": 153400.00000000012,
      "d": 1183.333333333343,
      "v": 98
    },
    {
      "midi": 53,
      "hit": false,
      "t": 155100.00000000012,
      "d": 333.33333333334303,
      "v": 98
    },
    {
      "midi": 57,
      "hit": false,
      "t": 155450.00000000012,
      "d": 666.666666666657,
      "v": 103
    },
    {
      "midi": 60,
      "hit": false,
      "t": 155450.00000000012,
      "d": 666.666666666657,
      "v": 103
    },
    {
      "midi": 69,
      "hit": false,
      "t": 155450.00000000012,
      "d": 666.666666666657,
      "v": 103
    },
    {
      "midi": 65,
      "hit": false,
      "t": 155450.00000000012,
      "d": 683.3333333333139,
      "v": 103
    },
    {
      "midi": 58,
      "hit": false,
      "t": 156133.33333333343,
      "d": 1183.333333333343,
      "v": 98
    },
    {
      "midi": 62,
      "hit": false,
      "t": 156133.33333333343,
      "d": 1183.333333333343,
      "v": 98
    },
    {
      "midi": 67,
      "hit": false,
      "t": 156133.33333333343,
      "d": 1183.333333333343,
      "v": 98
    },
    {
      "midi": 55,
      "hit": false,
      "t": 157833.33333333343,
      "d": 333.33333333334303,
      "v": 98
    },
    {
      "midi": 58,
      "hit": false,
      "t": 158166.66666666677,
      "d": 666.666666666657,
      "v": 103
    },
    {
      "midi": 62,
      "hit": false,
      "t": 158166.66666666677,
      "d": 666.666666666657,
      "v": 103
    },
    {
      "midi": 67,
      "hit": false,
      "t": 158166.66666666677,
      "d": 666.666666666657,
      "v": 103
    },
    {
      "midi": 65,
      "hit": false,
      "t": 158166.66666666677,
      "d": 683.3333333333139,
      "v": 103
    },
    {
      "midi": 57,
      "hit": false,
      "t": 158850.0000000001,
      "d": 1183.333333333343,
      "v": 98
    },
    {
      "midi": 60,
      "hit": false,
      "t": 158850.0000000001,
      "d": 1183.333333333343,
      "v": 98
    },
    {
      "midi": 53,
      "hit": false,
      "t": 160566.66666666677,
      "d": 333.33333333334303,
      "v": 98
    },
    {
      "midi": 57,
      "hit": false,
      "t": 160900.00000000012,
      "d": 666.666666666657,
      "v": 103
    },
    {
      "midi": 60,
      "hit": false,
      "t": 160900.00000000012,
      "d": 666.666666666657,
      "v": 103
    },
    {
      "midi": 69,
      "hit": false,
      "t": 160900.00000000012,
      "d": 666.666666666657,
      "v": 103
    },
    {
      "midi": 65,
      "hit": false,
      "t": 160900.00000000012,
      "d": 683.3333333333139,
      "v": 103
    },
    {
      "midi": 46,
      "hit": false,
      "t": 161583.33333333343,
      "d": 1183.333333333343,
      "v": 98
    },
    {
      "midi": 58,
      "hit": false,
      "t": 161583.33333333343,
      "d": 1183.333333333343,
      "v": 98
    },
    {
      "midi": 62,
      "hit": false,
      "t": 161583.33333333343,
      "d": 1183.333333333343,
      "v": 98
    },
    {
      "midi": 70,
      "hit": false,
      "t": 161583.33333333343,
      "d": 1183.333333333343,
      "v": 98
    },
    {
      "midi": 58,
      "hit": false,
      "t": 163283.33333333343,
      "d": 333.33333333334303,
      "v": 88
    },
    {
      "midi": 62,
      "hit": false,
      "t": 163633.33333333343,
      "d": 333.33333333334303,
      "v": 93
    },
    {
      "midi": 65,
      "hit": false,
      "t": 163966.66666666677,
      "d": 333.33333333334303,
      "v": 98
    },
    {
      "midi": 57,
      "hit": false,
      "t": 164316.66666666677,
      "d": 1183.333333333343,
      "v": 98
    },
    {
      "midi": 61,
      "hit": false,
      "t": 164316.66666666677,
      "d": 1183.333333333343,
      "v": 98
    },
    {
      "midi": 64,
      "hit": false,
      "t": 164316.66666666677,
      "d": 1183.333333333343,
      "v": 98
    },
    {
      "midi": 53,
      "hit": false,
      "t": 167033.33333333346,
      "d": 1183.333333333343,
      "v": 98
    },
    {
      "midi": 57,
      "hit": false,
      "t": 167033.33333333346,
      "d": 1183.333333333343,
      "v": 98
    },
    {
      "midi": 60,
      "hit": false,
      "t": 167033.33333333346,
      "d": 1183.333333333343,
      "v": 98
    },
    {
      "midi": 65,
      "hit": false,
      "t": 167033.33333333346,
      "d": 1183.333333333343,
      "v": 98
    },
    {
      "midi": 69,
      "hit": false,
      "t": 167033.33333333346,
      "d": 1183.333333333343,
      "v": 98
    },
    {
      "midi": 57,
      "hit": false,
      "t": 168750.00000000015,
      "d": 333.33333333334303,
      "v": 88
    },
    {
      "midi": 60,
      "hit": false,
      "t": 169083.3333333335,
      "d": 333.33333333334303,
      "v": 93
    },
    {
      "midi": 65,
      "hit": false,
      "t": 169416.66666666683,
      "d": 333.33333333334303,
      "v": 98
    },
    {
      "midi": 58,
      "hit": false,
      "t": 169766.66666666683,
      "d": 283.33333333334303,
      "v": 98
    },
    {
      "midi": 60,
      "hit": false,
      "t": 169766.66666666683,
      "d": 283.33333333334303,
      "v": 98
    },
    {
      "midi": 64,
      "hit": false,
      "t": 169766.66666666683,
      "d": 283.33333333334303,
      "v": 98
    },
    {
      "midi": 67,
      "hit": false,
      "t": 169766.66666666683,
      "d": 283.33333333334303,
      "v": 98
    },
    {
      "midi": 48,
      "hit": false,
      "t": 170100.00000000017,
      "d": 333.33333333334303,
      "v": 88
    },
    {
      "midi": 58,
      "hit": false,
      "t": 170450.00000000017,
      "d": 333.33333333334303,
      "v": 93
    },
    {
      "midi": 60,
      "hit": false,
      "t": 171133.33333333352,
      "d": 16.666666666656965,
      "v": 98
    },
    {
      "midi": 58,
      "hit": false,
      "t": 171133.33333333352,
      "d": 566.666666666657,
      "v": 98
    },
    {
      "midi": 64,
      "hit": false,
      "t": 171133.33333333352,
      "d": 566.666666666657,
      "v": 98
    },
    {
      "midi": 67,
      "hit": false,
      "t": 171133.33333333352,
      "d": 566.666666666657,
      "v": 98
    },
    {
      "midi": 58,
      "hit": false,
      "t": 171816.66666666683,
      "d": 566.666666666657,
      "v": 98
    },
    {
      "midi": 61,
      "hit": false,
      "t": 171816.66666666683,
      "d": 566.666666666657,
      "v": 98
    },
    {
      "midi": 64,
      "hit": false,
      "t": 171816.66666666683,
      "d": 566.666666666657,
      "v": 98
    },
    {
      "midi": 67,
      "hit": false,
      "t": 171816.66666666683,
      "d": 566.666666666657,
      "v": 98
    },
    {
      "midi": 57,
      "hit": false,
      "t": 172500.00000000015,
      "d": 1183.333333333343,
      "v": 98
    },
    {
      "midi": 62,
      "hit": false,
      "t": 172500.00000000015,
      "d": 1183.333333333343,
      "v": 98
    },
    {
      "midi": 65,
      "hit": false,
      "t": 172500.00000000015,
      "d": 1183.333333333343,
      "v": 98
    },
    {
      "midi": 50,
      "hit": false,
      "t": 174200.00000000015,
      "d": 333.33333333334303,
      "v": 98
    },
    {
      "midi": 62,
      "hit": false,
      "t": 174533.3333333335,
      "d": 666.666666666657,
      "v": 103
    },
    {
      "midi": 65,
      "hit": false,
      "t": 174533.3333333335,
      "d": 666.666666666657,
      "v": 103
    },
    {
      "midi": 57,
      "hit": false,
      "t": 174533.3333333335,
      "d": 683.3333333333139,
      "v": 103
    },
    {
      "midi": 60,
      "hit": false,
      "t": 175216.6666666668,
      "d": 1183.333333333343,
      "v": 98
    },
    {
      "midi": 64,
      "hit": false,
      "t": 175216.6666666668,
      "d": 1183.333333333343,
      "v": 98
    },
    {
      "midi": 69,
      "hit": false,
      "t": 175216.6666666668,
      "d": 1183.333333333343,
      "v": 98
    },
    {
      "midi": 58,
      "hit": false,
      "t": 177950.00000000015,
      "d": 1183.333333333343,
      "v": 98
    },
    {
      "midi": 62,
      "hit": false,
      "t": 177950.00000000015,
      "d": 1183.333333333343,
      "v": 98
    },
    {
      "midi": 65,
      "hit": false,
      "t": 177950.00000000015,
      "d": 1183.333333333343,
      "v": 98
    },
    {
      "midi": 46,
      "hit": false,
      "t": 179650.00000000015,
      "d": 333.33333333334303,
      "v": 98
    },
    {
      "midi": 58,
      "hit": false,
      "t": 180000.00000000015,
      "d": 666.666666666657,
      "v": 103
    },
    {
      "midi": 62,
      "hit": false,
      "t": 180000.00000000015,
      "d": 666.666666666657,
      "v": 103
    },
    {
      "midi": 65,
      "hit": false,
      "t": 180000.00000000015,
      "d": 683.3333333333139,
      "v": 103
    },
    {
      "midi": 57,
      "hit": false,
      "t": 180666.6666666668,
      "d": 1183.333333333314,
      "v": 98
    },
    {
      "midi": 60,
      "hit": false,
      "t": 180666.6666666668,
      "d": 1183.333333333314,
      "v": 98
    },
    {
      "midi": 57,
      "hit": false,
      "t": 182383.33333333346,
      "d": 333.33333333334303,
      "v": 88
    },
    {
      "midi": 60,
      "hit": false,
      "t": 182716.6666666668,
      "d": 333.33333333334303,
      "v": 93
    },
    {
      "midi": 65,
      "hit": false,
      "t": 183066.6666666668,
      "d": 333.33333333334303,
      "v": 98
    },
    {
      "midi": 58,
      "hit": false,
      "t": 183400.00000000015,
      "d": 283.33333333334303,
      "v": 98
    },
    {
      "midi": 62,
      "hit": false,
      "t": 183400.00000000015,
      "d": 283.33333333334303,
      "v": 98
    },
    {
      "midi": 67,
      "hit": false,
      "t": 183400.00000000015,
      "d": 283.33333333334303,
      "v": 98
    },
    {
      "midi": 58,
      "hit": false,
      "t": 184083.3333333335,
      "d": 283.33333333334303,
      "v": 98
    },
    {
      "midi": 62,
      "hit": false,
      "t": 184416.66666666683,
      "d": 283.33333333334303,
      "v": 88
    },
    {
      "midi": 58,
      "hit": false,
      "t": 184766.66666666683,
      "d": 566.666666666657,
      "v": 98
    },
    {
      "midi": 62,
      "hit": false,
      "t": 184766.66666666683,
      "d": 566.666666666657,
      "v": 98
    },
    {
      "midi": 65,
      "hit": false,
      "t": 184766.66666666683,
      "d": 566.666666666657,
      "v": 98
    },
    {
      "midi": 67,
      "hit": false,
      "t": 184766.66666666683,
      "d": 566.666666666657,
      "v": 98
    },
    {
      "midi": 48,
      "hit": false,
      "t": 185450.00000000015,
      "d": 566.666666666657,
      "v": 98
    },
    {
      "midi": 58,
      "hit": false,
      "t": 185450.00000000015,
      "d": 566.666666666657,
      "v": 98
    },
    {
      "midi": 61,
      "hit": false,
      "t": 185450.00000000015,
      "d": 566.666666666657,
      "v": 98
    },
    {
      "midi": 64,
      "hit": false,
      "t": 185450.00000000015,
      "d": 566.666666666657,
      "v": 98
    },
    {
      "midi": 67,
      "hit": false,
      "t": 185450.00000000015,
      "d": 566.666666666657,
      "v": 98
    },
    {
      "midi": 60,
      "hit": false,
      "t": 186133.33333333346,
      "d": 2716.666666666657,
      "v": 103
    },
    {
      "midi": 65,
      "hit": false,
      "t": 186133.33333333346,
      "d": 2716.666666666657,
      "v": 103
    },
    {
      "midi": 69,
      "hit": false,
      "t": 186133.33333333346,
      "d": 2716.666666666657,
      "v": 103
    }
  ]
}