{
  "jsonPath": "Rock/Argentine Rock/Los Fabulosos Cadillacs/gitana-remix.json",
  "path": "Rock\\Argentine Rock\\Los Fabulosos Cadillacs\\Gitana (Remix).mid",
  "name": "Gitana (Remix)",
  "difficulty": "Advanced",
  "bpm": 140.00014000014,
  "notes": [
    {
      "midi": 66,
      "hit": false,
      "t": 5142.852,
      "d": 238.83904687500035,
      "v": 105
    },
    {
      "midi": 78,
      "hit": false,
      "t": 5142.852,
      "d": 243.303328125,
      "v": 107
    },
    {
      "midi": 74,
      "hit": false,
      "t": 5357.1375,
      "d": 116.0713125000002,
      "v": 105
    },
    {
      "midi": 62,
      "hit": false,
      "t": 5357.1375,
      "d": 133.92843750000065,
      "v": 102
    },
    {
      "midi": 64,
      "hit": false,
      "t": 5999.994000000001,
      "d": 220.9819218749999,
      "v": 99
    },
    {
      "midi": 76,
      "hit": false,
      "t": 5999.994000000001,
      "d": 241.07118749999972,
      "v": 105
    },
    {
      "midi": 71,
      "hit": false,
      "t": 6214.279500000001,
      "d": 109.37489062499935,
      "v": 105
    },
    {
      "midi": 59,
      "hit": false,
      "t": 6214.279500000001,
      "d": 140.6248593749997,
      "v": 99
    },
    {
      "midi": 64,
      "hit": false,
      "t": 6857.136,
      "d": 189.73195312499956,
      "v": 104
    },
    {
      "midi": 76,
      "hit": false,
      "t": 6857.136,
      "d": 203.12479687499945,
      "v": 106
    },
    {
      "midi": 61,
      "hit": false,
      "t": 7071.4214999999995,
      "d": 426.33885937499963,
      "v": 98
    },
    {
      "midi": 73,
      "hit": false,
      "t": 7071.4214999999995,
      "d": 430.8031406250002,
      "v": 105
    },
    {
      "midi": 69,
      "hit": false,
      "t": 7499.992499999999,
      "d": 91.51776562500072,
      "v": 103
    },
    {
      "midi": 57,
      "hit": false,
      "t": 7499.992499999999,
      "d": 136.16057812500094,
      "v": 100
    },
    {
      "midi": 57,
      "hit": false,
      "t": 7928.5635,
      "d": 196.42837500000041,
      "v": 103
    },
    {
      "midi": 69,
      "hit": false,
      "t": 7928.5635,
      "d": 225.44620312500047,
      "v": 99
    },
    {
      "midi": 71,
      "hit": false,
      "t": 8142.849000000001,
      "d": 212.05335937499967,
      "v": 102
    },
    {
      "midi": 59,
      "hit": false,
      "t": 8142.849000000001,
      "d": 214.28549999999905,
      "v": 99
    },
    {
      "midi": 69,
      "hit": false,
      "t": 8357.1345,
      "d": 80.3570624999993,
      "v": 98
    },
    {
      "midi": 57,
      "hit": false,
      "t": 8357.1345,
      "d": 111.60703124999964,
      "v": 92
    },
    {
      "midi": 66,
      "hit": false,
      "t": 8571.42,
      "d": 212.05335937500058,
      "v": 90
    },
    {
      "midi": 78,
      "hit": false,
      "t": 8571.42,
      "d": 216.51764062499933,
      "v": 107
    },
    {
      "midi": 74,
      "hit": false,
      "t": 8785.7055,
      "d": 98.21418749999975,
      "v": 99
    },
    {
      "midi": 62,
      "hit": false,
      "t": 8785.7055,
      "d": 111.60703124999964,
      "v": 104
    },
    {
      "midi": 64,
      "hit": false,
      "t": 9428.562,
      "d": 198.6605156250007,
      "v": 105
    },
    {
      "midi": 76,
      "hit": false,
      "t": 9428.562,
      "d": 214.28549999999996,
      "v": 105
    },
    {
      "midi": 83,
      "hit": false,
      "t": 9642.8475,
      "d": 93.74990624999919,
      "v": 99
    },
    {
      "midi": 71,
      "hit": false,
      "t": 9642.8475,
      "d": 107.14274999999907,
      "v": 97
    },
    {
      "midi": 61,
      "hit": false,
      "t": 10285.704,
      "d": 241.07118749999972,
      "v": 100
    },
    {
      "midi": 69,
      "hit": false,
      "t": 10285.704,
      "d": 323.6603906249984,
      "v": 103
    },
    {
      "midi": 81,
      "hit": false,
      "t": 10285.704,
      "d": 363.83892187499805,
      "v": 105
    },
    {
      "midi": 76,
      "hit": false,
      "t": 10607.132249999999,
      "d": 299.1068437499998,
      "v": 100
    },
    {
      "midi": 64,
      "hit": false,
      "t": 10607.132249999999,
      "d": 319.19610937499965,
      "v": 103
    },
    {
      "midi": 73,
      "hit": false,
      "t": 10928.560499999998,
      "d": 229.9104843749992,
      "v": 106
    },
    {
      "midi": 61,
      "hit": false,
      "t": 10928.560499999998,
      "d": 249.99974999999904,
      "v": 99
    },
    {
      "midi": 81,
      "hit": false,
      "t": 11357.131499999998,
      "d": 185.26767187500081,
      "v": 101
    },
    {
      "midi": 69,
      "hit": false,
      "t": 11357.131499999998,
      "d": 214.28549999999996,
      "v": 104
    },
    {
      "midi": 68,
      "hit": false,
      "t": 11571.416999999998,
      "d": 120.53559375000077,
      "v": 106
    },
    {
      "midi": 80,
      "hit": false,
      "t": 11571.416999999998,
      "d": 158.48198437500105,
      "v": 98
    },
    {
      "midi": 67,
      "hit": false,
      "t": 11785.7025,
      "d": 174.1069687500003,
      "v": 100
    },
    {
      "midi": 79,
      "hit": false,
      "t": 11785.7025,
      "d": 180.80339062500025,
      "v": 84
    },
    {
      "midi": 78,
      "hit": false,
      "t": 11999.988,
      "d": 133.92843750000065,
      "v": 107
    },
    {
      "midi": 66,
      "hit": false,
      "t": 11999.988,
      "d": 160.71412500000042,
      "v": 99
    },
    {
      "midi": 74,
      "hit": false,
      "t": 12214.2735,
      "d": 165.17840624999917,
      "v": 98
    },
    {
      "midi": 62,
      "hit": false,
      "t": 12214.2735,
      "d": 174.1069687499985,
      "v": 92
    },
    {
      "midi": 76,
      "hit": false,
      "t": 12857.129999999997,
      "d": 160.71412500000042,
      "v": 107
    },
    {
      "midi": 64,
      "hit": false,
      "t": 12857.129999999997,
      "d": 187.4998125000002,
      "v": 104
    },
    {
      "midi": 59,
      "hit": false,
      "t": 13071.415499999997,
      "d": 267.8568749999995,
      "v": 97
    },
    {
      "midi": 71,
      "hit": false,
      "t": 13071.415499999997,
      "d": 267.8568749999995,
      "v": 95
    },
    {
      "midi": 76,
      "hit": false,
      "t": 13714.271999999997,
      "d": 160.71412500000042,
      "v": 105
    },
    {
      "midi": 64,
      "hit": false,
      "t": 13714.271999999997,
      "d": 214.28549999999996,
      "v": 104
    },
    {
      "midi": 61,
      "hit": false,
      "t": 13928.557499999997,
      "d": 401.78531250000015,
      "v": 92
    },
    {
      "midi": 73,
      "hit": false,
      "t": 13928.557499999997,
      "d": 401.78531250000015,
      "v": 101
    },
    {
      "midi": 57,
      "hit": false,
      "t": 14357.128499999997,
      "d": 169.64268749999974,
      "v": 99
    },
    {
      "midi": 69,
      "hit": false,
      "t": 14357.128499999997,
      "d": 200.89265625000007,
      "v": 97
    },
    {
      "midi": 57,
      "hit": false,
      "t": 14785.699499999997,
      "d": 198.6605156250007,
      "v": 100
    },
    {
      "midi": 69,
      "hit": false,
      "t": 14785.699499999997,
      "d": 207.58907812500001,
      "v": 103
    },
    {
      "midi": 71,
      "hit": false,
      "t": 14999.984999999997,
      "d": 183.03553124999962,
      "v": 105
    },
    {
      "midi": 59,
      "hit": false,
      "t": 14999.984999999997,
      "d": 191.96409374999894,
      "v": 103
    },
    {
      "midi": 69,
      "hit": false,
      "t": 15214.270499999995,
      "d": 158.48198437499923,
      "v": 101
    },
    {
      "midi": 57,
      "hit": false,
      "t": 15214.270499999995,
      "d": 174.1069687499985,
      "v": 105
    },
    {
      "midi": 78,
      "hit": false,
      "t": 15428.555999999993,
      "d": 160.71412500000042,
      "v": 104
    },
    {
      "midi": 66,
      "hit": false,
      "t": 15428.555999999993,
      "d": 187.4998125000002,
      "v": 101
    },
    {
      "midi": 74,
      "hit": false,
      "t": 15642.841499999993,
      "d": 321.42825000000084,
      "v": 102
    },
    {
      "midi": 62,
      "hit": false,
      "t": 15642.841499999993,
      "d": 348.2139375000006,
      "v": 105
    },
    {
      "midi": 76,
      "hit": false,
      "t": 16285.697999999993,
      "d": 187.49981249999837,
      "v": 107
    },
    {
      "midi": 64,
      "hit": false,
      "t": 16285.697999999993,
      "d": 220.98192187499808,
      "v": 104
    },
    {
      "midi": 71,
      "hit": false,
      "t": 16499.98349999999,
      "d": 294.6425625000011,
      "v": 101
    },
    {
      "midi": 83,
      "hit": false,
      "t": 16499.98349999999,
      "d": 321.42825000000084,
      "v": 98
    },
    {
      "midi": 73,
      "hit": false,
      "t": 17142.839999999993,
      "d": 66.96421874999942,
      "v": 100
    },
    {
      "midi": 69,
      "hit": false,
      "t": 17142.839999999993,
      "d": 69.19635937500061,
      "v": 102
    },
    {
      "midi": 76,
      "hit": false,
      "t": 17142.839999999993,
      "d": 75.89278125000055,
      "v": 104
    },
    {
      "midi": 64,
      "hit": false,
      "t": 17142.839999999993,
      "d": 80.3570624999993,
      "v": 92
    },
    {
      "midi": 61,
      "hit": false,
      "t": 17142.839999999993,
      "d": 87.05348437499924,
      "v": 101
    },
    {
      "midi": 57,
      "hit": false,
      "t": 17142.839999999993,
      "d": 93.74990624999919,
      "v": 99
    },
    {
      "midi": 81,
      "hit": false,
      "t": 17142.839999999993,
      "d": 113.83917187499901,
      "v": 99
    },
    {
      "midi": 73,
      "hit": false,
      "t": 17357.12549999999,
      "d": 71.4285000000018,
      "v": 98
    },
    {
      "midi": 61,
      "hit": false,
      "t": 17357.12549999999,
      "d": 73.660640625003,
      "v": 96
    },
    {
      "midi": 64,
      "hit": false,
      "t": 17357.12549999999,
      "d": 75.89278125000419,
      "v": 92
    },
    {
      "midi": 69,
      "hit": false,
      "t": 17357.12549999999,
      "d": 75.89278125000419,
      "v": 100
    },
    {
      "midi": 76,
      "hit": false,
      "t": 17357.12549999999,
      "d": 75.89278125000419,
      "v": 101
    },
    {
      "midi": 57,
      "hit": false,
      "t": 17357.12549999999,
      "d": 84.82134375000533,
      "v": 97
    },
    {
      "midi": 81,
      "hit": false,
      "t": 17357.12549999999,
      "d": 109.3748906250039,
      "v": 95
    },
    {
      "midi": 73,
      "hit": false,
      "t": 17571.410999999996,
      "d": 129.4641562500001,
      "v": 103
    },
    {
      "midi": 61,
      "hit": false,
      "t": 17571.410999999996,
      "d": 133.92843749999884,
      "v": 107
    },
    {
      "midi": 76,
      "hit": false,
      "t": 17571.410999999996,
      "d": 133.92843749999884,
      "v": 104
    },
    {
      "midi": 64,
      "hit": false,
      "t": 17571.410999999996,
      "d": 136.16057812500003,
      "v": 103
    },
    {
      "midi": 69,
      "hit": false,
      "t": 17571.410999999996,
      "d": 142.85699999999997,
      "v": 104
    },
    {
      "midi": 57,
      "hit": false,
      "t": 17571.410999999996,
      "d": 147.32128124999872,
      "v": 104
    },
    {
      "midi": 81,
      "hit": false,
      "t": 17571.410999999996,
      "d": 169.64268749999974,
      "v": 100
    },
    {
      "midi": 66,
      "hit": false,
      "t": 18857.123999999996,
      "d": 238.83904687500035,
      "v": 105
    },
    {
      "midi": 78,
      "hit": false,
      "t": 18857.123999999996,
      "d": 243.3033281249991,
      "v": 107
    },
    {
      "midi": 74,
      "hit": false,
      "t": 19071.409499999998,
      "d": 116.07131249999657,
      "v": 105
    },
    {
      "midi": 62,
      "hit": false,
      "t": 19071.409499999998,
      "d": 133.9284374999952,
      "v": 102
    },
    {
      "midi": 64,
      "hit": false,
      "t": 19714.265999999992,
      "d": 220.98192187500172,
      "v": 99
    },
    {
      "midi": 76,
      "hit": false,
      "t": 19714.265999999992,
      "d": 241.07118750000154,
      "v": 105
    },
    {
      "midi": 71,
      "hit": false,
      "t": 19928.551499999994,
      "d": 109.37489062500026,
      "v": 105
    },
    {
      "midi": 59,
      "hit": false,
      "t": 19928.551499999994,
      "d": 140.62485937499878,
      "v": 99
    },
    {
      "midi": 64,
      "hit": false,
      "t": 20571.407999999992,
      "d": 189.73195312499956,
      "v": 104
    },
    {
      "midi": 76,
      "hit": false,
      "t": 20571.407999999992,
      "d": 203.12479687499945,
      "v": 106
    },
    {
      "midi": 61,
      "hit": false,
      "t": 20785.69349999999,
      "d": 426.3388593749987,
      "v": 98
    },
    {
      "midi": 73,
      "hit": false,
      "t": 20785.69349999999,
      "d": 430.8031406250011,
      "v": 105
    },
    {
      "midi": 69,
      "hit": false,
      "t": 21214.26449999999,
      "d": 91.51776562500163,
      "v": 103
    },
    {
      "midi": 57,
      "hit": false,
      "t": 21214.26449999999,
      "d": 136.16057812500003,
      "v": 100
    },
    {
      "midi": 57,
      "hit": false,
      "t": 21642.83549999999,
      "d": 196.4283749999995,
      "v": 103
    },
    {
      "midi": 69,
      "hit": false,
      "t": 21642.83549999999,
      "d": 225.44620312499683,
      "v": 99
    },
    {
      "midi": 71,
      "hit": false,
      "t": 21857.12099999999,
      "d": 212.05335937499694,
      "v": 102
    },
    {
      "midi": 59,
      "hit": false,
      "t": 21857.12099999999,
      "d": 214.28549999999814,
      "v": 99
    },
    {
      "midi": 69,
      "hit": false,
      "t": 22071.406499999986,
      "d": 80.3570624999993,
      "v": 98
    },
    {
      "midi": 57,
      "hit": false,
      "t": 22071.406499999986,
      "d": 111.60703124999782,
      "v": 92
    },
    {
      "midi": 66,
      "hit": false,
      "t": 22285.691999999985,
      "d": 212.05335937500058,
      "v": 90
    },
    {
      "midi": 78,
      "hit": false,
      "t": 22285.691999999985,
      "d": 216.51764062500297,
      "v": 107
    },
    {
      "midi": 74,
      "hit": false,
      "t": 22499.977499999986,
      "d": 98.21418750000157,
      "v": 99
    },
    {
      "midi": 62,
      "hit": false,
      "t": 22499.977499999986,
      "d": 111.60703125000146,
      "v": 104
    },
    {
      "midi": 64,
      "hit": false,
      "t": 23142.833999999988,
      "d": 198.6605156250007,
      "v": 105
    },
    {
      "midi": 76,
      "hit": false,
      "t": 23142.833999999988,
      "d": 214.28550000000178,
      "v": 105
    },
    {
      "midi": 83,
      "hit": false,
      "t": 23357.11949999999,
      "d": 93.74990624999919,
      "v": 99
    },
    {
      "midi": 71,
      "hit": false,
      "t": 23357.11949999999,
      "d": 107.14274999999907,
      "v": 97
    },
    {
      "midi": 61,
      "hit": false,
      "t": 23999.975999999988,
      "d": 241.07118750000154,
      "v": 100
    },
    {
      "midi": 69,
      "hit": false,
      "t": 23999.975999999988,
      "d": 323.66039062500204,
      "v": 103
    },
    {
      "midi": 81,
      "hit": false,
      "t": 23999.975999999988,
      "d": 363.8389218750017,
      "v": 105
    },
    {
      "midi": 76,
      "hit": false,
      "t": 24321.40424999999,
      "d": 299.1068437499998,
      "v": 100
    },
    {
      "midi": 64,
      "hit": false,
      "t": 24321.40424999999,
      "d": 319.19610937499965,
      "v": 103
    },
    {
      "midi": 73,
      "hit": false,
      "t": 24642.83249999999,
      "d": 229.9104843749992,
      "v": 106
    },
    {
      "midi": 61,
      "hit": false,
      "t": 24642.83249999999,
      "d": 249.99974999999904,
      "v": 99
    },
    {
      "midi": 81,
      "hit": false,
      "t": 25071.40349999999,
      "d": 185.26767187500081,
      "v": 101
    },
    {
      "midi": 69,
      "hit": false,
      "t": 25071.40349999999,
      "d": 214.28550000000178,
      "v": 104
    },
    {
      "midi": 68,
      "hit": false,
      "t": 25285.68899999999,
      "d": 120.53559374999895,
      "v": 106
    },
    {
      "midi": 80,
      "hit": false,
      "t": 25285.68899999999,
      "d": 158.4819843749974,
      "v": 98
    },
    {
      "midi": 67,
      "hit": false,
      "t": 25499.97449999999,
      "d": 174.1069687499985,
      "v": 100
    },
    {
      "midi": 79,
      "hit": false,
      "t": 25499.97449999999,
      "d": 180.80339062499843,
      "v": 84
    },
    {
      "midi": 78,
      "hit": false,
      "t": 25714.259999999987,
      "d": 133.92843749999884,
      "v": 107
    },
    {
      "midi": 66,
      "hit": false,
      "t": 25714.259999999987,
      "d": 160.7141249999986,
      "v": 99
    },
    {
      "midi": 74,
      "hit": false,
      "t": 25928.545499999986,
      "d": 165.178406250001,
      "v": 98
    },
    {
      "midi": 62,
      "hit": false,
      "t": 25928.545499999986,
      "d": 174.10696875000212,
      "v": 92
    },
    {
      "midi": 76,
      "hit": false,
      "t": 26571.401999999987,
      "d": 160.7141249999986,
      "v": 107
    },
    {
      "midi": 64,
      "hit": false,
      "t": 26571.401999999987,
      "d": 187.49981249999837,
      "v": 104
    },
    {
      "midi": 59,
      "hit": false,
      "t": 26785.687499999985,
      "d": 267.8568750000013,
      "v": 97
    },
    {
      "midi": 71,
      "hit": false,
      "t": 26785.687499999985,
      "d": 267.8568750000013,
      "v": 95
    },
    {
      "midi": 76,
      "hit": false,
      "t": 27428.543999999987,
      "d": 160.7141249999986,
      "v": 105
    },
    {
      "midi": 64,
      "hit": false,
      "t": 27428.543999999987,
      "d": 214.28549999999814,
      "v": 104
    },
    {
      "midi": 61,
      "hit": false,
      "t": 27642.829499999985,
      "d": 401.78531250000015,
      "v": 92
    },
    {
      "midi": 73,
      "hit": false,
      "t": 27642.829499999985,
      "d": 401.78531250000015,
      "v": 101
    },
    {
      "midi": 57,
      "hit": false,
      "t": 28071.400499999985,
      "d": 169.64268749999974,
      "v": 99
    },
    {
      "midi": 69,
      "hit": false,
      "t": 28071.400499999985,
      "d": 200.89265624999825,
      "v": 97
    },
    {
      "midi": 57,
      "hit": false,
      "t": 28499.971499999985,
      "d": 198.6605156250007,
      "v": 100
    },
    {
      "midi": 69,
      "hit": false,
      "t": 28499.971499999985,
      "d": 207.58907812500183,
      "v": 103
    },
    {
      "midi": 71,
      "hit": false,
      "t": 28714.256999999987,
      "d": 183.03553124999962,
      "v": 105
    },
    {
      "midi": 59,
      "hit": false,
      "t": 28714.256999999987,
      "d": 191.96409375000076,
      "v": 103
    },
    {
      "midi": 69,
      "hit": false,
      "t": 28928.54249999999,
      "d": 158.48198437500105,
      "v": 101
    },
    {
      "midi": 57,
      "hit": false,
      "t": 28928.54249999999,
      "d": 174.10696875000212,
      "v": 105
    },
    {
      "midi": 78,
      "hit": false,
      "t": 29142.82799999999,
      "d": 160.7141249999986,
      "v": 104
    },
    {
      "midi": 66,
      "hit": false,
      "t": 29142.82799999999,
      "d": 187.49981249999837,
      "v": 101
    },
    {
      "midi": 74,
      "hit": false,
      "t": 29357.11349999999,
      "d": 321.42825000000084,
      "v": 102
    },
    {
      "midi": 62,
      "hit": false,
      "t": 29357.11349999999,
      "d": 348.2139375000006,
      "v": 105
    },
    {
      "midi": 76,
      "hit": false,
      "t": 29999.96999999999,
      "d": 187.49981249999837,
      "v": 107
    },
    {
      "midi": 64,
      "hit": false,
      "t": 29999.96999999999,
      "d": 220.98192187499808,
      "v": 104
    },
    {
      "midi": 71,
      "hit": false,
      "t": 30214.25549999999,
      "d": 294.6425625000011,
      "v": 101
    },
    {
      "midi": 83,
      "hit": false,
      "t": 30214.25549999999,
      "d": 321.42825000000084,
      "v": 98
    },
    {
      "midi": 73,
      "hit": false,
      "t": 30857.11199999999,
      "d": 66.96421874999942,
      "v": 100
    },
    {
      "midi": 69,
      "hit": false,
      "t": 30857.11199999999,
      "d": 69.19635937500061,
      "v": 102
    },
    {
      "midi": 76,
      "hit": false,
      "t": 30857.11199999999,
      "d": 75.89278125000055,
      "v": 104
    },
    {
      "midi": 64,
      "hit": false,
      "t": 30857.11199999999,
      "d": 80.3570624999993,
      "v": 92
    },
    {
      "midi": 61,
      "hit": false,
      "t": 30857.11199999999,
      "d": 87.05348437499924,
      "v": 101
    },
    {
      "midi": 57,
      "hit": false,
      "t": 30857.11199999999,
      "d": 93.74990624999919,
      "v": 99
    },
    {
      "midi": 81,
      "hit": false,
      "t": 30857.11199999999,
      "d": 113.83917187499901,
      "v": 99
    },
    {
      "midi": 73,
      "hit": false,
      "t": 31071.39749999999,
      "d": 71.4285000000018,
      "v": 98
    },
    {
      "midi": 61,
      "hit": false,
      "t": 31071.39749999999,
      "d": 73.660640625003,
      "v": 96
    },
    {
      "midi": 64,
      "hit": false,
      "t": 31071.39749999999,
      "d": 75.89278125000419,
      "v": 92
    },
    {
      "midi": 69,
      "hit": false,
      "t": 31071.39749999999,
      "d": 75.89278125000419,
      "v": 100
    },
    {
      "midi": 76,
      "hit": false,
      "t": 31071.39749999999,
      "d": 75.89278125000419,
      "v": 101
    },
    {
      "midi": 57,
      "hit": false,
      "t": 31071.39749999999,
      "d": 84.82134375000533,
      "v": 97
    },
    {
      "midi": 81,
      "hit": false,
      "t": 31071.39749999999,
      "d": 109.3748906250039,
      "v": 95
    },
    {
      "midi": 73,
      "hit": false,
      "t": 31285.682999999994,
      "d": 129.4641562500001,
      "v": 103
    },
    {
      "midi": 61,
      "hit": false,
      "t": 31285.682999999994,
      "d": 133.92843749999884,
      "v": 107
    },
    {
      "midi": 76,
      "hit": false,
      "t": 31285.682999999994,
      "d": 133.92843749999884,
      "v": 104
    },
    {
      "midi": 64,
      "hit": false,
      "t": 31285.682999999994,
      "d": 136.16057812500003,
      "v": 103
    },
    {
      "midi": 69,
      "hit": false,
      "t": 31285.682999999994,
      "d": 142.85699999999997,
      "v": 104
    },
    {
      "midi": 57,
      "hit": false,
      "t": 31285.682999999994,
      "d": 147.32128124999872,
      "v": 104
    },
    {
      "midi": 81,
      "hit": false,
      "t": 31285.682999999994,
      "d": 169.64268749999974,
      "v": 100
    },
    {
      "midi": 66,
      "hit": false,
      "t": 32571.395999999993,
      "d": 238.83904687500035,
      "v": 105
    },
    {
      "midi": 78,
      "hit": false,
      "t": 32571.395999999993,
      "d": 243.30332812500274,
      "v": 107
    },
    {
      "midi": 74,
      "hit": false,
      "t": 32785.68149999999,
      "d": 116.07131250000384,
      "v": 105
    },
    {
      "midi": 62,
      "hit": false,
      "t": 32785.68149999999,
      "d": 133.9284375000061,
      "v": 102
    },
    {
      "midi": 64,
      "hit": false,
      "t": 33428.538,
      "d": 220.98192187499808,
      "v": 99
    },
    {
      "midi": 76,
      "hit": false,
      "t": 33428.538,
      "d": 241.0711874999979,
      "v": 105
    },
    {
      "midi": 71,
      "hit": false,
      "t": 33642.8235,
      "d": 109.37489062499662,
      "v": 105
    },
    {
      "midi": 59,
      "hit": false,
      "t": 33642.8235,
      "d": 140.62485937499878,
      "v": 99
    },
    {
      "midi": 64,
      "hit": false,
      "t": 34285.68,
      "d": 189.7319531250032,
      "v": 104
    },
    {
      "midi": 76,
      "hit": false,
      "t": 34285.68,
      "d": 203.12479687500309,
      "v": 106
    },
    {
      "midi": 61,
      "hit": false,
      "t": 34499.965500000006,
      "d": 426.3388593749987,
      "v": 98
    },
    {
      "midi": 73,
      "hit": false,
      "t": 34499.965500000006,
      "d": 430.80314062499383,
      "v": 105
    },
    {
      "midi": 69,
      "hit": false,
      "t": 34928.5365,
      "d": 91.51776562499435,
      "v": 103
    },
    {
      "midi": 57,
      "hit": false,
      "t": 34928.5365,
      "d": 136.1605781249964,
      "v": 100
    },
    {
      "midi": 57,
      "hit": false,
      "t": 35357.1075,
      "d": 196.42837500000314,
      "v": 103
    },
    {
      "midi": 69,
      "hit": false,
      "t": 35357.1075,
      "d": 225.44620312500774,
      "v": 99
    },
    {
      "midi": 71,
      "hit": false,
      "t": 35571.393000000004,
      "d": 212.05335937500058,
      "v": 102
    },
    {
      "midi": 59,
      "hit": false,
      "t": 35571.393000000004,
      "d": 214.28549999999814,
      "v": 99
    },
    {
      "midi": 69,
      "hit": false,
      "t": 35785.6785,
      "d": 80.3570624999993,
      "v": 98
    },
    {
      "midi": 57,
      "hit": false,
      "t": 35785.6785,
      "d": 111.60703125000146,
      "v": 92
    },
    {
      "midi": 66,
      "hit": false,
      "t": 35999.964,
      "d": 212.05335937500058,
      "v": 90
    },
    {
      "midi": 78,
      "hit": false,
      "t": 35999.964,
      "d": 216.5176406249957,
      "v": 107
    },
    {
      "midi": 74,
      "hit": false,
      "t": 36214.2495,
      "d": 98.2141874999943,
      "v": 99
    },
    {
      "midi": 62,
      "hit": false,
      "t": 36214.2495,
      "d": 111.60703124999418,
      "v": 104
    },
    {
      "midi": 64,
      "hit": false,
      "t": 36857.10599999999,
      "d": 198.6605156250007,
      "v": 105
    },
    {
      "midi": 76,
      "hit": false,
      "t": 36857.10599999999,
      "d": 214.28549999999814,
      "v": 105
    },
    {
      "midi": 83,
      "hit": false,
      "t": 37071.39149999999,
      "d": 93.74990624999919,
      "v": 99
    },
    {
      "midi": 71,
      "hit": false,
      "t": 37071.39149999999,
      "d": 107.14274999999907,
      "v": 97
    },
    {
      "midi": 61,
      "hit": false,
      "t": 37714.24799999999,
      "d": 241.0711874999979,
      "v": 100
    },
    {
      "midi": 69,
      "hit": false,
      "t": 37714.24799999999,
      "d": 323.66039062499476,
      "v": 103
    },
    {
      "midi": 81,
      "hit": false,
      "t": 37714.24799999999,
      "d": 363.8389218749944,
      "v": 105
    },
    {
      "midi": 76,
      "hit": false,
      "t": 38035.67624999999,
      "d": 299.1068437499998,
      "v": 100
    },
    {
      "midi": 64,
      "hit": false,
      "t": 38035.67624999999,
      "d": 319.19610937499965,
      "v": 103
    },
    {
      "midi": 73,
      "hit": false,
      "t": 38357.10449999999,
      "d": 229.91048437500285,
      "v": 106
    },
    {
      "midi": 61,
      "hit": false,
      "t": 38357.10449999999,
      "d": 249.99975000000268,
      "v": 99
    },
    {
      "midi": 81,
      "hit": false,
      "t": 38785.67549999999,
      "d": 185.26767187500081,
      "v": 101
    },
    {
      "midi": 69,
      "hit": false,
      "t": 38785.67549999999,
      "d": 214.28549999999814,
      "v": 104
    },
    {
      "midi": 68,
      "hit": false,
      "t": 38999.96099999999,
      "d": 120.53559374999895,
      "v": 106
    },
    {
      "midi": 80,
      "hit": false,
      "t": 38999.96099999999,
      "d": 158.48198437500105,
      "v": 98
    },
    {
      "midi": 67,
      "hit": false,
      "t": 39214.24649999999,
      "d": 174.1069687499985,
      "v": 100
    },
    {
      "midi": 79,
      "hit": false,
      "t": 39214.24649999999,
      "d": 180.80339062499843,
      "v": 84
    },
    {
      "midi": 78,
      "hit": false,
      "t": 39428.531999999985,
      "d": 133.92843749999884,
      "v": 107
    },
    {
      "midi": 66,
      "hit": false,
      "t": 39428.531999999985,
      "d": 160.7141249999986,
      "v": 99
    },
    {
      "midi": 74,
      "hit": false,
      "t": 39642.81749999998,
      "d": 165.178406250001,
      "v": 98
    },
    {
      "midi": 62,
      "hit": false,
      "t": 39642.81749999998,
      "d": 174.1069687499985,
      "v": 92
    },
    {
      "midi": 76,
      "hit": false,
      "t": 40285.673999999985,
      "d": 160.7141249999986,
      "v": 107
    },
    {
      "midi": 64,
      "hit": false,
      "t": 40285.673999999985,
      "d": 187.49981249999837,
      "v": 104
    },
    {
      "midi": 59,
      "hit": false,
      "t": 40499.95949999998,
      "d": 267.8568749999977,
      "v": 97
    },
    {
      "midi": 71,
      "hit": false,
      "t": 40499.95949999998,
      "d": 267.8568749999977,
      "v": 95
    },
    {
      "midi": 76,
      "hit": false,
      "t": 41142.81599999998,
      "d": 160.7141249999986,
      "v": 105
    },
    {
      "midi": 64,
      "hit": false,
      "t": 41142.81599999998,
      "d": 214.28549999999814,
      "v": 104
    },
    {
      "midi": 61,
      "hit": false,
      "t": 41357.101499999975,
      "d": 401.7853124999965,
      "v": 92
    },
    {
      "midi": 73,
      "hit": false,
      "t": 41357.101499999975,
      "d": 401.7853124999965,
      "v": 101
    },
    {
      "midi": 57,
      "hit": false,
      "t": 41785.67249999997,
      "d": 169.64268750000338,
      "v": 99
    },
    {
      "midi": 69,
      "hit": false,
      "t": 41785.67249999997,
      "d": 200.89265625000553,
      "v": 97
    },
    {
      "midi": 57,
      "hit": false,
      "t": 42214.243499999975,
      "d": 198.6605156250007,
      "v": 100
    },
    {
      "midi": 69,
      "hit": false,
      "t": 42214.243499999975,
      "d": 207.5890781249982,
      "v": 103
    },
    {
      "midi": 71,
      "hit": false,
      "t": 42428.52899999997,
      "d": 183.03553125000326,
      "v": 105
    },
    {
      "midi": 59,
      "hit": false,
      "t": 42428.52899999997,
      "d": 191.96409375000076,
      "v": 103
    },
    {
      "midi": 69,
      "hit": false,
      "t": 42642.81449999997,
      "d": 158.48198437500105,
      "v": 101
    },
    {
      "midi": 57,
      "hit": false,
      "t": 42642.81449999997,
      "d": 174.1069687499985,
      "v": 105
    },
    {
      "midi": 78,
      "hit": false,
      "t": 42857.09999999997,
      "d": 160.7141249999986,
      "v": 104
    },
    {
      "midi": 66,
      "hit": false,
      "t": 42857.09999999997,
      "d": 187.49981249999837,
      "v": 101
    },
    {
      "midi": 74,
      "hit": false,
      "t": 43071.38549999997,
      "d": 321.4282499999972,
      "v": 102
    },
    {
      "midi": 62,
      "hit": false,
      "t": 43071.38549999997,
      "d": 348.213937499997,
      "v": 105
    },
    {
      "midi": 76,
      "hit": false,
      "t": 43714.24199999996,
      "d": 187.49981249999837,
      "v": 107
    },
    {
      "midi": 64,
      "hit": false,
      "t": 43714.24199999996,
      "d": 220.98192187499808,
      "v": 104
    },
    {
      "midi": 71,
      "hit": false,
      "t": 43928.52749999996,
      "d": 294.64256249999744,
      "v": 101
    },
    {
      "midi": 83,
      "hit": false,
      "t": 43928.52749999996,
      "d": 321.4282499999972,
      "v": 98
    },
    {
      "midi": 69,
      "hit": false,
      "t": 44571.383999999955,
      "d": 354.9103593749969,
      "v": 96
    },
    {
      "midi": 81,
      "hit": false,
      "t": 44571.383999999955,
      "d": 363.8389218749944,
      "v": 100
    },
    {
      "midi": 73,
      "hit": false,
      "t": 44892.81224999995,
      "d": 89.2856249999968,
      "v": 76
    },
    {
      "midi": 76,
      "hit": false,
      "t": 44892.81224999995,
      "d": 325.8925312499996,
      "v": 97
    },
    {
      "midi": 64,
      "hit": false,
      "t": 44892.81224999995,
      "d": 334.8210937499971,
      "v": 92
    },
    {
      "midi": 61,
      "hit": false,
      "t": 44999.95499999995,
      "d": 214.28549999999814,
      "v": 33
    },
    {
      "midi": 81,
      "hit": false,
      "t": 45214.24049999995,
      "d": 814.7313281250026,
      "v": 102
    },
    {
      "midi": 69,
      "hit": false,
      "t": 45214.24049999995,
      "d": 830.3563125000001,
      "v": 98
    },
    {
      "midi": 73,
      "hit": false,
      "t": 46071.38249999995,
      "d": 247.76760937499785,
      "v": 88
    },
    {
      "midi": 64,
      "hit": false,
      "t": 46071.38249999995,
      "d": 292.4104218749999,
      "v": 78
    },
    {
      "midi": 61,
      "hit": false,
      "t": 46071.38249999995,
      "d": 325.8925312499996,
      "v": 76
    },
    {
      "midi": 76,
      "hit": false,
      "t": 46071.38249999995,
      "d": 354.9103593749969,
      "v": 96
    },
    {
      "midi": 81,
      "hit": false,
      "t": 46285.66799999995,
      "d": 156.24984374999622,
      "v": 104
    },
    {
      "midi": 69,
      "hit": false,
      "t": 46285.66799999995,
      "d": 162.94626562499616,
      "v": 103
    },
    {
      "midi": 66,
      "hit": false,
      "t": 47999.95199999995,
      "d": 258.9283125000002,
      "v": 104
    },
    {
      "midi": 54,
      "hit": false,
      "t": 47999.95199999995,
      "d": 261.16045312499773,
      "v": 96
    },
    {
      "midi": 57,
      "hit": false,
      "t": 48321.380249999944,
      "d": 290.1782812500023,
      "v": 76
    },
    {
      "midi": 69,
      "hit": false,
      "t": 48321.380249999944,
      "d": 332.5889531250068,
      "v": 92
    },
    {
      "midi": 62,
      "hit": false,
      "t": 48642.80849999995,
      "d": 205.35693750000064,
      "v": 100
    },
    {
      "midi": 74,
      "hit": false,
      "t": 48642.80849999995,
      "d": 241.0711874999979,
      "v": 96
    },
    {
      "midi": 59,
      "hit": false,
      "t": 48857.09399999995,
      "d": 395.08889062499657,
      "v": 95
    },
    {
      "midi": 71,
      "hit": false,
      "t": 48857.09399999995,
      "d": 397.3210312499941,
      "v": 97
    },
    {
      "midi": 67,
      "hit": false,
      "t": 49285.66499999994,
      "d": 379.4639062499991,
      "v": 90
    },
    {
      "midi": 55,
      "hit": false,
      "t": 49285.66499999994,
      "d": 435.2674218749962,
      "v": 90
    },
    {
      "midi": 57,
      "hit": false,
      "t": 49714.23599999994,
      "d": 279.017578125,
      "v": 103
    },
    {
      "midi": 69,
      "hit": false,
      "t": 49714.23599999994,
      "d": 301.3389843749974,
      "v": 104
    },
    {
      "midi": 61,
      "hit": false,
      "t": 50035.664249999936,
      "d": 120.53559374999895,
      "v": 99
    },
    {
      "midi": 73,
      "hit": false,
      "t": 50035.664249999936,
      "d": 129.46415624999645,
      "v": 107
    },
    {
      "midi": 64,
      "hit": false,
      "t": 50357.09249999993,
      "d": 363.8389218750017,
      "v": 100
    },
    {
      "midi": 52,
      "hit": false,
      "t": 50357.09249999993,
      "d": 401.7853125000038,
      "v": 98
    },
    {
      "midi": 69,
      "hit": false,
      "t": 50785.66349999994,
      "d": 169.64268750000338,
      "v": 104
    },
    {
      "midi": 57,
      "hit": false,
      "t": 50785.66349999994,
      "d": 205.35693750000064,
      "v": 103
    },
    {
      "midi": 61,
      "hit": false,
      "t": 50999.948999999935,
      "d": 102.67846874999668,
      "v": 101
    },
    {
      "midi": 73,
      "hit": false,
      "t": 50999.948999999935,
      "d": 151.78556249999383,
      "v": 107
    },
    {
      "midi": 66,
      "hit": false,
      "t": 51428.51999999993,
      "d": 270.0890156250025,
      "v": 107
    },
    {
      "midi": 54,
      "hit": false,
      "t": 51428.51999999993,
      "d": 285.71399999999994,
      "v": 92
    },
    {
      "midi": 57,
      "hit": false,
      "t": 51749.94824999993,
      "d": 292.4104218749999,
      "v": 92
    },
    {
      "midi": 69,
      "hit": false,
      "t": 51749.94824999993,
      "d": 330.3568124999947,
      "v": 86
    },
    {
      "midi": 62,
      "hit": false,
      "t": 52071.376499999926,
      "d": 200.89265624999825,
      "v": 101
    },
    {
      "midi": 74,
      "hit": false,
      "t": 52071.376499999926,
      "d": 200.89265624999825,
      "v": 99
    },
    {
      "midi": 59,
      "hit": false,
      "t": 52285.661999999924,
      "d": 388.3924687499966,
      "v": 99
    },
    {
      "midi": 71,
      "hit": false,
      "t": 52285.661999999924,
      "d": 395.08889062499657,
      "v": 95
    },
    {
      "midi": 67,
      "hit": false,
      "t": 52714.23299999992,
      "d": 374.99962499999674,
      "v": 92
    },
    {
      "midi": 55,
      "hit": false,
      "t": 52714.23299999992,
      "d": 404.01745312499406,
      "v": 90
    },
    {
      "midi": 57,
      "hit": false,
      "t": 53142.80399999992,
      "d": 323.66039062499476,
      "v": 100
    },
    {
      "midi": 69,
      "hit": false,
      "t": 53142.80399999992,
      "d": 337.05323437499464,
      "v": 104
    },
    {
      "midi": 73,
      "hit": false,
      "t": 53464.23224999991,
      "d": 171.87482812500093,
      "v": 107
    },
    {
      "midi": 61,
      "hit": false,
      "t": 53464.23224999991,
      "d": 236.6069062500028,
      "v": 94
    },
    {
      "midi": 64,
      "hit": false,
      "t": 53785.66049999992,
      "d": 370.53534375000163,
      "v": 100
    },
    {
      "midi": 52,
      "hit": false,
      "t": 53785.66049999992,
      "d": 383.9281875000015,
      "v": 98
    },
    {
      "midi": 69,
      "hit": false,
      "t": 54214.23149999992,
      "d": 187.49981249999837,
      "v": 105
    },
    {
      "midi": 57,
      "hit": false,
      "t": 54214.23149999992,
      "d": 209.82121874999575,
      "v": 99
    },
    {
      "midi": 61,
      "hit": false,
      "t": 54428.51699999992,
      "d": 109.37489062499662,
      "v": 105
    },
    {
      "midi": 73,
      "hit": false,
      "t": 54428.51699999992,
      "d": 120.53559374999895,
      "v": 107
    },
    {
      "midi": 66,
      "hit": false,
      "t": 54857.087999999916,
      "d": 258.9283125000002,
      "v": 104
    },
    {
      "midi": 54,
      "hit": false,
      "t": 54857.087999999916,
      "d": 261.16045312499773,
      "v": 96
    },
    {
      "midi": 57,
      "hit": false,
      "t": 55178.51624999991,
      "d": 290.1782812500023,
      "v": 76
    },
    {
      "midi": 69,
      "hit": false,
      "t": 55178.51624999991,
      "d": 332.5889531250068,
      "v": 92
    },
    {
      "midi": 62,
      "hit": false,
      "t": 55499.94449999992,
      "d": 205.35693750000064,
      "v": 100
    },
    {
      "midi": 74,
      "hit": false,
      "t": 55499.94449999992,
      "d": 241.0711874999979,
      "v": 96
    },
    {
      "midi": 59,
      "hit": false,
      "t": 55714.229999999916,
      "d": 395.08889062499657,
      "v": 95
    },
    {
      "midi": 71,
      "hit": false,
      "t": 55714.229999999916,
      "d": 397.3210312499941,
      "v": 97
    },
    {
      "midi": 67,
      "hit": false,
      "t": 56142.80099999991,
      "d": 379.4639062499991,
      "v": 90
    },
    {
      "midi": 55,
      "hit": false,
      "t": 56142.80099999991,
      "d": 435.2674218749962,
      "v": 90
    },
    {
      "midi": 57,
      "hit": false,
      "t": 56571.37199999991,
      "d": 279.017578125,
      "v": 103
    },
    {
      "midi": 69,
      "hit": false,
      "t": 56571.37199999991,
      "d": 301.3389843749974,
      "v": 104
    },
    {
      "midi": 61,
      "hit": false,
      "t": 56892.800249999906,
      "d": 120.53559374999895,
      "v": 99
    },
    {
      "midi": 73,
      "hit": false,
      "t": 56892.800249999906,
      "d": 129.46415624999645,
      "v": 107
    },
    {
      "midi": 64,
      "hit": false,
      "t": 57214.2284999999,
      "d": 363.8389218750017,
      "v": 100
    },
    {
      "midi": 52,
      "hit": false,
      "t": 57214.2284999999,
      "d": 401.7853125000038,
      "v": 98
    },
    {
      "midi": 69,
      "hit": false,
      "t": 57642.79949999991,
      "d": 169.64268750000338,
      "v": 104
    },
    {
      "midi": 57,
      "hit": false,
      "t": 57642.79949999991,
      "d": 205.35693750000064,
      "v": 103
    },
    {
      "midi": 61,
      "hit": false,
      "t": 57857.084999999905,
      "d": 102.67846874999668,
      "v": 101
    },
    {
      "midi": 73,
      "hit": false,
      "t": 57857.084999999905,
      "d": 151.78556249999383,
      "v": 107
    },
    {
      "midi": 66,
      "hit": false,
      "t": 58285.6559999999,
      "d": 270.0890156250025,
      "v": 107
    },
    {
      "midi": 54,
      "hit": false,
      "t": 58285.6559999999,
      "d": 285.71399999999994,
      "v": 92
    },
    {
      "midi": 57,
      "hit": false,
      "t": 58607.0842499999,
      "d": 292.4104218749999,
      "v": 92
    },
    {
      "midi": 69,
      "hit": false,
      "t": 58607.0842499999,
      "d": 330.3568124999947,
      "v": 86
    },
    {
      "midi": 62,
      "hit": false,
      "t": 58928.512499999895,
      "d": 200.89265624999825,
      "v": 101
    },
    {
      "midi": 74,
      "hit": false,
      "t": 58928.512499999895,
      "d": 200.89265624999825,
      "v": 99
    },
    {
      "midi": 59,
      "hit": false,
      "t": 59142.79799999989,
      "d": 388.3924687499966,
      "v": 99
    },
    {
      "midi": 71,
      "hit": false,
      "t": 59142.79799999989,
      "d": 395.08889062499657,
      "v": 95
    },
    {
      "midi": 67,
      "hit": false,
      "t": 59571.36899999989,
      "d": 374.99962499999674,
      "v": 92
    },
    {
      "midi": 55,
      "hit": false,
      "t": 59571.36899999989,
      "d": 404.01745312499406,
      "v": 90
    },
    {
      "midi": 69,
      "hit": false,
      "t": 59999.939999999886,
      "d": 160.7141249999986,
      "v": 102
    },
    {
      "midi": 57,
      "hit": false,
      "t": 59999.939999999886,
      "d": 169.6426874999961,
      "v": 101
    },
    {
      "midi": 73,
      "hit": false,
      "t": 60214.225499999884,
      "d": 136.1605781249964,
      "v": 103
    },
    {
      "midi": 64,
      "hit": false,
      "t": 60214.225499999884,
      "d": 142.85699999999633,
      "v": 103
    },
    {
      "midi": 61,
      "hit": false,
      "t": 60214.225499999884,
      "d": 145.0891406249939,
      "v": 100
    },
    {
      "midi": 76,
      "hit": false,
      "t": 60214.225499999884,
      "d": 154.01770312499139,
      "v": 102
    },
    {
      "midi": 73,
      "hit": false,
      "t": 60642.79649999987,
      "d": 154.01770312499866,
      "v": 107
    },
    {
      "midi": 64,
      "hit": false,
      "t": 60642.79649999987,
      "d": 165.178406250001,
      "v": 102
    },
    {
      "midi": 61,
      "hit": false,
      "t": 60642.79649999987,
      "d": 167.41054687499854,
      "v": 103
    },
    {
      "midi": 76,
      "hit": false,
      "t": 60642.79649999987,
      "d": 171.87482812500093,
      "v": 105
    },
    {
      "midi": 73,
      "hit": false,
      "t": 61071.36749999988,
      "d": 174.1069687499985,
      "v": 107
    },
    {
      "midi": 64,
      "hit": false,
      "t": 61071.36749999988,
      "d": 183.03553124999598,
      "v": 102
    },
    {
      "midi": 61,
      "hit": false,
      "t": 61071.36749999988,
      "d": 185.26767187499354,
      "v": 103
    },
    {
      "midi": 76,
      "hit": false,
      "t": 61071.36749999988,
      "d": 200.89265624999098,
      "v": 105
    },
    {
      "midi": 73,
      "hit": false,
      "t": 61499.938499999866,
      "d": 109.37489062499662,
      "v": 107
    },
    {
      "midi": 64,
      "hit": false,
      "t": 61499.938499999866,
      "d": 142.85699999999633,
      "v": 100
    },
    {
      "midi": 76,
      "hit": false,
      "t": 61499.938499999866,
      "d": 145.0891406249939,
      "v": 105
    },
    {
      "midi": 61,
      "hit": false,
      "t": 61499.938499999866,
      "d": 147.32128124999144,
      "v": 104
    },
    {
      "midi": 66,
      "hit": false,
      "t": 61714.22399999986,
      "d": 258.9283125000002,
      "v": 104
    },
    {
      "midi": 54,
      "hit": false,
      "t": 61714.22399999986,
      "d": 261.16045312499773,
      "v": 96
    },
    {
      "midi": 57,
      "hit": false,
      "t": 62035.652249999854,
      "d": 290.1782812500023,
      "v": 76
    },
    {
      "midi": 69,
      "hit": false,
      "t": 62035.652249999854,
      "d": 332.5889531250068,
      "v": 92
    },
    {
      "midi": 62,
      "hit": false,
      "t": 62357.08049999986,
      "d": 205.35693750000064,
      "v": 100
    },
    {
      "midi": 74,
      "hit": false,
      "t": 62357.08049999986,
      "d": 241.0711874999979,
      "v": 96
    },
    {
      "midi": 59,
      "hit": false,
      "t": 62571.365999999856,
      "d": 395.08889062499657,
      "v": 95
    },
    {
      "midi": 71,
      "hit": false,
      "t": 62571.365999999856,
      "d": 397.3210312499941,
      "v": 97
    },
    {
      "midi": 67,
      "hit": false,
      "t": 62999.93699999985,
      "d": 379.4639062499991,
      "v": 90
    },
    {
      "midi": 55,
      "hit": false,
      "t": 62999.93699999985,
      "d": 435.2674218749962,
      "v": 90
    },
    {
      "midi": 57,
      "hit": false,
      "t": 63428.50799999985,
      "d": 279.017578125,
      "v": 103
    },
    {
      "midi": 69,
      "hit": false,
      "t": 63428.50799999985,
      "d": 301.3389843749974,
      "v": 104
    },
    {
      "midi": 61,
      "hit": false,
      "t": 63749.936249999846,
      "d": 120.53559374999895,
      "v": 99
    },
    {
      "midi": 73,
      "hit": false,
      "t": 63749.936249999846,
      "d": 129.46415624999645,
      "v": 107
    },
    {
      "midi": 64,
      "hit": false,
      "t": 64071.36449999984,
      "d": 363.8389218750017,
      "v": 100
    },
    {
      "midi": 52,
      "hit": false,
      "t": 64071.36449999984,
      "d": 401.7853125000038,
      "v": 98
    },
    {
      "midi": 69,
      "hit": false,
      "t": 64499.93549999985,
      "d": 169.64268750000338,
      "v": 104
    },
    {
      "midi": 57,
      "hit": false,
      "t": 64499.93549999985,
      "d": 205.35693750000064,
      "v": 103
    },
    {
      "midi": 61,
      "hit": false,
      "t": 64714.220999999845,
      "d": 102.67846874999668,
      "v": 101
    },
    {
      "midi": 73,
      "hit": false,
      "t": 64714.220999999845,
      "d": 151.78556249999383,
      "v": 107
    },
    {
      "midi": 66,
      "hit": false,
      "t": 65142.79199999984,
      "d": 270.0890156250025,
      "v": 107
    },
    {
      "midi": 54,
      "hit": false,
      "t": 65142.79199999984,
      "d": 285.71399999999994,
      "v": 92
    },
    {
      "midi": 57,
      "hit": false,
      "t": 65464.22024999984,
      "d": 292.4104218749999,
      "v": 92
    },
    {
      "midi": 69,
      "hit": false,
      "t": 65464.22024999984,
      "d": 330.356812500002,
      "v": 86
    },
    {
      "midi": 62,
      "hit": false,
      "t": 65785.64849999984,
      "d": 200.89265624999825,
      "v": 101
    },
    {
      "midi": 74,
      "hit": false,
      "t": 65785.64849999984,
      "d": 200.89265624999825,
      "v": 99
    },
    {
      "midi": 59,
      "hit": false,
      "t": 65999.93399999983,
      "d": 388.3924687499966,
      "v": 99
    },
    {
      "midi": 71,
      "hit": false,
      "t": 65999.93399999983,
      "d": 395.08889062500384,
      "v": 95
    },
    {
      "midi": 67,
      "hit": false,
      "t": 66428.50499999984,
      "d": 374.99962499999674,
      "v": 92
    },
    {
      "midi": 55,
      "hit": false,
      "t": 66428.50499999984,
      "d": 404.01745312499406,
      "v": 90
    },
    {
      "midi": 69,
      "hit": false,
      "t": 66857.07599999984,
      "d": 160.7141249999986,
      "v": 102
    },
    {
      "midi": 57,
      "hit": false,
      "t": 66857.07599999984,
      "d": 169.64268750000338,
      "v": 101
    },
    {
      "midi": 73,
      "hit": false,
      "t": 67071.36149999984,
      "d": 136.1605781249964,
      "v": 103
    },
    {
      "midi": 64,
      "hit": false,
      "t": 67071.36149999984,
      "d": 142.8570000000036,
      "v": 103
    },
    {
      "midi": 61,
      "hit": false,
      "t": 67071.36149999984,
      "d": 145.08914062500116,
      "v": 100
    },
    {
      "midi": 76,
      "hit": false,
      "t": 67071.36149999984,
      "d": 154.01770312500594,
      "v": 102
    },
    {
      "midi": 73,
      "hit": false,
      "t": 67499.93249999985,
      "d": 154.01770312500594,
      "v": 107
    },
    {
      "midi": 64,
      "hit": false,
      "t": 67499.93249999985,
      "d": 165.17840625000827,
      "v": 102
    },
    {
      "midi": 61,
      "hit": false,
      "t": 67499.93249999985,
      "d": 167.41054687500582,
      "v": 103
    },
    {
      "midi": 76,
      "hit": false,
      "t": 67499.93249999985,
      "d": 171.87482812500093,
      "v": 105
    },
    {
      "midi": 73,
      "hit": false,
      "t": 67928.50349999985,
      "d": 174.1069687499985,
      "v": 107
    },
    {
      "midi": 64,
      "hit": false,
      "t": 67928.50349999985,
      "d": 183.03553125000326,
      "v": 102
    },
    {
      "midi": 61,
      "hit": false,
      "t": 67928.50349999985,
      "d": 185.26767187500081,
      "v": 103
    },
    {
      "midi": 76,
      "hit": false,
      "t": 67928.50349999985,
      "d": 200.89265624999825,
      "v": 105
    },
    {
      "midi": 73,
      "hit": false,
      "t": 68357.07449999984,
      "d": 109.37489062499662,
      "v": 107
    },
    {
      "midi": 64,
      "hit": false,
      "t": 68357.07449999984,
      "d": 142.8570000000036,
      "v": 100
    },
    {
      "midi": 76,
      "hit": false,
      "t": 68357.07449999984,
      "d": 145.08914062500116,
      "v": 105
    },
    {
      "midi": 61,
      "hit": false,
      "t": 68357.07449999984,
      "d": 147.32128124999872,
      "v": 104
    },
    {
      "midi": 66,
      "hit": false,
      "t": 68571.35999999984,
      "d": 258.9283124999929,
      "v": 104
    },
    {
      "midi": 54,
      "hit": false,
      "t": 68571.35999999984,
      "d": 261.16045312499045,
      "v": 96
    },
    {
      "midi": 57,
      "hit": false,
      "t": 68892.78824999984,
      "d": 290.1782812500023,
      "v": 76
    },
    {
      "midi": 69,
      "hit": false,
      "t": 68892.78824999984,
      "d": 332.58895312499953,
      "v": 92
    },
    {
      "midi": 62,
      "hit": false,
      "t": 69214.21649999983,
      "d": 205.35693750000792,
      "v": 100
    },
    {
      "midi": 74,
      "hit": false,
      "t": 69214.21649999983,
      "d": 241.07118750001246,
      "v": 96
    },
    {
      "midi": 59,
      "hit": false,
      "t": 69428.50199999985,
      "d": 395.08889062500384,
      "v": 95
    },
    {
      "midi": 71,
      "hit": false,
      "t": 69428.50199999985,
      "d": 397.3210312500014,
      "v": 97
    },
    {
      "midi": 67,
      "hit": false,
      "t": 69857.07299999984,
      "d": 379.4639062500064,
      "v": 90
    },
    {
      "midi": 55,
      "hit": false,
      "t": 69857.07299999984,
      "d": 435.26742187501804,
      "v": 90
    },
    {
      "midi": 57,
      "hit": false,
      "t": 70285.64399999985,
      "d": 279.017578125,
      "v": 103
    },
    {
      "midi": 69,
      "hit": false,
      "t": 70285.64399999985,
      "d": 301.33898437500466,
      "v": 104
    },
    {
      "midi": 61,
      "hit": false,
      "t": 70607.07224999987,
      "d": 120.53559374999895,
      "v": 99
    },
    {
      "midi": 73,
      "hit": false,
      "t": 70607.07224999987,
      "d": 129.46415625000373,
      "v": 107
    },
    {
      "midi": 64,
      "hit": false,
      "t": 70928.50049999986,
      "d": 363.8389218749944,
      "v": 100
    },
    {
      "midi": 52,
      "hit": false,
      "t": 70928.50049999986,
      "d": 401.7853124999965,
      "v": 98
    },
    {
      "midi": 69,
      "hit": false,
      "t": 71357.07149999986,
      "d": 169.64268750000338,
      "v": 104
    },
    {
      "midi": 57,
      "hit": false,
      "t": 71357.07149999986,
      "d": 205.35693750000792,
      "v": 103
    },
    {
      "midi": 61,
      "hit": false,
      "t": 71571.35699999987,
      "d": 102.67846875000396,
      "v": 101
    },
    {
      "midi": 73,
      "hit": false,
      "t": 71571.35699999987,
      "d": 151.78556250000838,
      "v": 107
    },
    {
      "midi": 66,
      "hit": false,
      "t": 71999.92799999988,
      "d": 270.0890156249952,
      "v": 107
    },
    {
      "midi": 54,
      "hit": false,
      "t": 71999.92799999988,
      "d": 285.71399999999267,
      "v": 92
    },
    {
      "midi": 57,
      "hit": false,
      "t": 72321.35624999988,
      "d": 292.4104218749999,
      "v": 92
    },
    {
      "midi": 69,
      "hit": false,
      "t": 72321.35624999988,
      "d": 330.356812500002,
      "v": 86
    },
    {
      "midi": 62,
      "hit": false,
      "t": 72642.78449999988,
      "d": 200.89265624999825,
      "v": 101
    },
    {
      "midi": 74,
      "hit": false,
      "t": 72642.78449999988,
      "d": 200.89265624999825,
      "v": 99
    },
    {
      "midi": 59,
      "hit": false,
      "t": 72857.06999999988,
      "d": 388.3924687499966,
      "v": 99
    },
    {
      "midi": 71,
      "hit": false,
      "t": 72857.06999999988,
      "d": 395.08889062500384,
      "v": 95
    },
    {
      "midi": 67,
      "hit": false,
      "t": 73285.64099999989,
      "d": 374.99962499999674,
      "v": 92
    },
    {
      "midi": 55,
      "hit": false,
      "t": 73285.64099999989,
      "d": 404.01745312499406,
      "v": 90
    },
    {
      "midi": 69,
      "hit": false,
      "t": 73714.21199999988,
      "d": 323.66039062499476,
      "v": 102
    },
    {
      "midi": 57,
      "hit": false,
      "t": 73714.21199999988,
      "d": 330.356812500002,
      "v": 88
    },
    {
      "midi": 73,
      "hit": false,
      "t": 74035.64024999988,
      "d": 265.6247343750001,
      "v": 104
    },
    {
      "midi": 61,
      "hit": false,
      "t": 74035.64024999988,
      "d": 308.0354062499973,
      "v": 74
    },
    {
      "midi": 76,
      "hit": false,
      "t": 74357.06849999988,
      "d": 843.7491562500072,
      "v": 100
    },
    {
      "midi": 64,
      "hit": false,
      "t": 74357.06849999988,
      "d": 868.3027031250094,
      "v": 99
    },
    {
      "midi": 80,
      "hit": false,
      "t": 75214.21049999988,
      "d": 189.73195312499593,
      "v": 92
    },
    {
      "midi": 68,
      "hit": false,
      "t": 75214.21049999988,
      "d": 194.19623437499104,
      "v": 97
    },
    {
      "midi": 73,
      "hit": false,
      "t": 75428.49599999988,
      "d": 147.32128124999872,
      "v": 105
    },
    {
      "midi": 81,
      "hit": false,
      "t": 75428.49599999988,
      "d": 167.41054687500582,
      "v": 97
    },
    {
      "midi": 61,
      "hit": false,
      "t": 75428.49599999988,
      "d": 171.87482812500093,
      "v": 80
    },
    {
      "midi": 69,
      "hit": false,
      "t": 75428.49599999988,
      "d": 178.57125000000815,
      "v": 95
    },
    {
      "midi": 71,
      "hit": false,
      "t": 77142.7799999999,
      "d": 87.05348437500652,
      "v": 98
    },
    {
      "midi": 59,
      "hit": false,
      "t": 77142.7799999999,
      "d": 109.37489062501118,
      "v": 84
    },
    {
      "midi": 68,
      "hit": false,
      "t": 77142.7799999999,
      "d": 109.37489062501118,
      "v": 82
    },
    {
      "midi": 76,
      "hit": false,
      "t": 77142.7799999999,
      "d": 118.30345312501595,
      "v": 82
    },
    {
      "midi": 64,
      "hit": false,
      "t": 77142.7799999999,
      "d": 120.5355937500135,
      "v": 88
    },
    {
      "midi": 56,
      "hit": false,
      "t": 77142.7799999999,
      "d": 127.23201562502072,
      "v": 51
    },
    {
      "midi": 64,
      "hit": false,
      "t": 77464.20824999992,
      "d": 198.6605156250007,
      "v": 60
    },
    {
      "midi": 56,
      "hit": false,
      "t": 77464.20824999992,
      "d": 214.28549999999814,
      "v": 54
    },
    {
      "midi": 76,
      "hit": false,
      "t": 77464.20824999992,
      "d": 225.44620312500047,
      "v": 68
    },
    {
      "midi": 71,
      "hit": false,
      "t": 77464.20824999992,
      "d": 229.91048437499558,
      "v": 94
    },
    {
      "midi": 68,
      "hit": false,
      "t": 77464.20824999992,
      "d": 234.3747656249907,
      "v": 76
    },
    {
      "midi": 59,
      "hit": false,
      "t": 77464.20824999992,
      "d": 241.0711874999979,
      "v": 51
    },
    {
      "midi": 74,
      "hit": false,
      "t": 77785.63649999992,
      "d": 763.3920937499934,
      "v": 86
    },
    {
      "midi": 62,
      "hit": false,
      "t": 77785.63649999992,
      "d": 919.6419374999969,
      "v": 100
    },
    {
      "midi": 73,
      "hit": false,
      "t": 78857.06399999991,
      "d": 84.82134374999441,
      "v": 92
    },
    {
      "midi": 61,
      "hit": false,
      "t": 78857.06399999991,
      "d": 98.2141874999943,
      "v": 88
    },
    {
      "midi": 69,
      "hit": false,
      "t": 78857.06399999991,
      "d": 107.14274999999907,
      "v": 88
    },
    {
      "midi": 57,
      "hit": false,
      "t": 78857.06399999991,
      "d": 109.37489062499662,
      "v": 90
    },
    {
      "midi": 76,
      "hit": false,
      "t": 78857.06399999991,
      "d": 113.83917187499173,
      "v": 90
    },
    {
      "midi": 64,
      "hit": false,
      "t": 78857.06399999991,
      "d": 116.07131249998929,
      "v": 90
    },
    {
      "midi": 61,
      "hit": false,
      "t": 79178.4922499999,
      "d": 136.1605781249964,
      "v": 64
    },
    {
      "midi": 64,
      "hit": false,
      "t": 79178.4922499999,
      "d": 136.1605781249964,
      "v": 76
    },
    {
      "midi": 57,
      "hit": false,
      "t": 79178.4922499999,
      "d": 151.78556249999383,
      "v": 84
    },
    {
      "midi": 73,
      "hit": false,
      "t": 79178.4922499999,
      "d": 167.41054687499127,
      "v": 70
    },
    {
      "midi": 69,
      "hit": false,
      "t": 79178.4922499999,
      "d": 180.80339062499115,
      "v": 80
    },
    {
      "midi": 76,
      "hit": false,
      "t": 79178.4922499999,
      "d": 180.80339062499115,
      "v": 80
    },
    {
      "midi": 71,
      "hit": false,
      "t": 80571.34799999988,
      "d": 95.98204687499674,
      "v": 97
    },
    {
      "midi": 68,
      "hit": false,
      "t": 80571.34799999988,
      "d": 109.37489062499662,
      "v": 76
    },
    {
      "midi": 76,
      "hit": false,
      "t": 80571.34799999988,
      "d": 127.23201562499162,
      "v": 78
    },
    {
      "midi": 64,
      "hit": false,
      "t": 80571.34799999988,
      "d": 149.55342187499627,
      "v": 80
    },
    {
      "midi": 56,
      "hit": false,
      "t": 80571.34799999988,
      "d": 154.01770312499139,
      "v": 62
    },
    {
      "midi": 59,
      "hit": false,
      "t": 80571.34799999988,
      "d": 169.64268749998882,
      "v": 68
    },
    {
      "midi": 64,
      "hit": false,
      "t": 80892.77624999986,
      "d": 160.7141249999986,
      "v": 70
    },
    {
      "midi": 71,
      "hit": false,
      "t": 80892.77624999986,
      "d": 205.35693749999336,
      "v": 94
    },
    {
      "midi": 56,
      "hit": false,
      "t": 80892.77624999986,
      "d": 214.28549999999814,
      "v": 56
    },
    {
      "midi": 76,
      "hit": false,
      "t": 80892.77624999986,
      "d": 216.5176406249957,
      "v": 82
    },
    {
      "midi": 68,
      "hit": false,
      "t": 80892.77624999986,
      "d": 218.74978124999325,
      "v": 74
    },
    {
      "midi": 59,
      "hit": false,
      "t": 80892.77624999986,
      "d": 241.0711874999979,
      "v": 51
    },
    {
      "midi": 74,
      "hit": false,
      "t": 81214.20449999986,
      "d": 890.6241093749995,
      "v": 86
    },
    {
      "midi": 62,
      "hit": false,
      "t": 81214.20449999986,
      "d": 908.4812343749945,
      "v": 78
    },
    {
      "midi": 73,
      "hit": false,
      "t": 82285.63199999985,
      "d": 167.41054687500582,
      "v": 74
    },
    {
      "midi": 69,
      "hit": false,
      "t": 82285.63199999985,
      "d": 174.10696875001304,
      "v": 84
    },
    {
      "midi": 57,
      "hit": false,
      "t": 82285.63199999985,
      "d": 183.0355312500178,
      "v": 92
    },
    {
      "midi": 76,
      "hit": false,
      "t": 82285.63199999985,
      "d": 185.26767187501537,
      "v": 80
    },
    {
      "midi": 64,
      "hit": false,
      "t": 82285.63199999985,
      "d": 205.35693750002247,
      "v": 80
    },
    {
      "midi": 61,
      "hit": false,
      "t": 82285.63199999985,
      "d": 220.9819218750199,
      "v": 84
    },
    {
      "midi": 71,
      "hit": false,
      "t": 83999.91599999987,
      "d": 109.37489062499662,
      "v": 97
    },
    {
      "midi": 68,
      "hit": false,
      "t": 83999.91599999987,
      "d": 116.07131250000384,
      "v": 80
    },
    {
      "midi": 56,
      "hit": false,
      "t": 83999.91599999987,
      "d": 131.69629687500128,
      "v": 58
    },
    {
      "midi": 64,
      "hit": false,
      "t": 83999.91599999987,
      "d": 131.69629687500128,
      "v": 68
    },
    {
      "midi": 76,
      "hit": false,
      "t": 83999.91599999987,
      "d": 136.1605781249964,
      "v": 74
    },
    {
      "midi": 59,
      "hit": false,
      "t": 83999.91599999987,
      "d": 151.78556249999383,
      "v": 62
    },
    {
      "midi": 64,
      "hit": false,
      "t": 84321.34424999986,
      "d": 154.01770312500594,
      "v": 74
    },
    {
      "midi": 68,
      "hit": false,
      "t": 84321.34424999986,
      "d": 156.2498437500035,
      "v": 84
    },
    {
      "midi": 71,
      "hit": false,
      "t": 84321.34424999986,
      "d": 158.48198437500105,
      "v": 96
    },
    {
      "midi": 56,
      "hit": false,
      "t": 84321.34424999986,
      "d": 160.7141249999986,
      "v": 58
    },
    {
      "midi": 76,
      "hit": false,
      "t": 84321.34424999986,
      "d": 178.5712499999936,
      "v": 78
    },
    {
      "midi": 59,
      "hit": false,
      "t": 84321.34424999986,
      "d": 205.35693749999336,
      "v": 35
    },
    {
      "midi": 74,
      "hit": false,
      "t": 84642.77249999986,
      "d": 1020.0882656250033,
      "v": 84
    },
    {
      "midi": 62,
      "hit": false,
      "t": 84642.77249999986,
      "d": 1055.8025156250078,
      "v": 98
    },
    {
      "midi": 73,
      "hit": false,
      "t": 85714.19999999987,
      "d": 256.69617187499534,
      "v": 72
    },
    {
      "midi": 76,
      "hit": false,
      "t": 85714.19999999987,
      "d": 270.0890156249952,
      "v": 86
    },
    {
      "midi": 69,
      "hit": false,
      "t": 85714.19999999987,
      "d": 279.017578125,
      "v": 84
    },
    {
      "midi": 57,
      "hit": false,
      "t": 85714.19999999987,
      "d": 287.9461406250048,
      "v": 84
    },
    {
      "midi": 61,
      "hit": false,
      "t": 85714.19999999987,
      "d": 287.9461406250048,
      "v": 84
    },
    {
      "midi": 64,
      "hit": false,
      "t": 85714.19999999987,
      "d": 294.642562500012,
      "v": 88
    },
    {
      "midi": 64,
      "hit": false,
      "t": 86035.62824999988,
      "d": 104.91060937500151,
      "v": 94
    },
    {
      "midi": 61,
      "hit": false,
      "t": 86035.62824999988,
      "d": 120.53559374999895,
      "v": 84
    },
    {
      "midi": 73,
      "hit": false,
      "t": 86035.62824999988,
      "d": 124.99987499999406,
      "v": 88
    },
    {
      "midi": 57,
      "hit": false,
      "t": 86035.62824999988,
      "d": 131.69629687500128,
      "v": 92
    },
    {
      "midi": 69,
      "hit": false,
      "t": 86035.62824999988,
      "d": 136.1605781249964,
      "v": 88
    },
    {
      "midi": 76,
      "hit": false,
      "t": 86035.62824999988,
      "d": 149.55342187499627,
      "v": 90
    },
    {
      "midi": 68,
      "hit": false,
      "t": 87428.48399999988,
      "d": 131.69629687500128,
      "v": 84
    },
    {
      "midi": 71,
      "hit": false,
      "t": 87428.48399999988,
      "d": 133.92843749999884,
      "v": 101
    },
    {
      "midi": 56,
      "hit": false,
      "t": 87428.48399999988,
      "d": 142.8570000000036,
      "v": 70
    },
    {
      "midi": 76,
      "hit": false,
      "t": 87428.48399999988,
      "d": 151.78556250000838,
      "v": 86
    },
    {
      "midi": 59,
      "hit": false,
      "t": 87428.48399999988,
      "d": 154.01770312500594,
      "v": 82
    },
    {
      "midi": 64,
      "hit": false,
      "t": 87428.48399999988,
      "d": 165.17840625000827,
      "v": 86
    },
    {
      "midi": 68,
      "hit": false,
      "t": 87749.91224999989,
      "d": 171.87482812500093,
      "v": 80
    },
    {
      "midi": 71,
      "hit": false,
      "t": 87749.91224999989,
      "d": 171.87482812500093,
      "v": 97
    },
    {
      "midi": 56,
      "hit": false,
      "t": 87749.91224999989,
      "d": 178.57125000000815,
      "v": 62
    },
    {
      "midi": 64,
      "hit": false,
      "t": 87749.91224999989,
      "d": 178.57125000000815,
      "v": 74
    },
    {
      "midi": 76,
      "hit": false,
      "t": 87749.91224999989,
      "d": 198.66051562501525,
      "v": 80
    },
    {
      "midi": 59,
      "hit": false,
      "t": 87749.91224999989,
      "d": 247.76760937501967,
      "v": 43
    },
    {
      "midi": 74,
      "hit": false,
      "t": 88071.34049999992,
      "d": 997.7668593749986,
      "v": 94
    },
    {
      "midi": 62,
      "hit": false,
      "t": 88071.34049999992,
      "d": 1049.1060937500006,
      "v": 99
    },
    {
      "midi": 73,
      "hit": false,
      "t": 89142.76799999992,
      "d": 171.87482812500093,
      "v": 78
    },
    {
      "midi": 64,
      "hit": false,
      "t": 89142.76799999992,
      "d": 176.33910937499604,
      "v": 90
    },
    {
      "midi": 61,
      "hit": false,
      "t": 89142.76799999992,
      "d": 178.5712499999936,
      "v": 72
    },
    {
      "midi": 69,
      "hit": false,
      "t": 89142.76799999992,
      "d": 178.5712499999936,
      "v": 94
    },
    {
      "midi": 57,
      "hit": false,
      "t": 89142.76799999992,
      "d": 183.0355312499887,
      "v": 86
    },
    {
      "midi": 76,
      "hit": false,
      "t": 89142.76799999992,
      "d": 198.66051562498615,
      "v": 90
    },
    {
      "midi": 54,
      "hit": false,
      "t": 90857.05199999991,
      "d": 343.74965625000186,
      "v": 88
    },
    {
      "midi": 66,
      "hit": false,
      "t": 90857.05199999991,
      "d": 359.3746406249993,
      "v": 105
    },
    {
      "midi": 57,
      "hit": false,
      "t": 91178.4802499999,
      "d": 301.33898437500466,
      "v": 90
    },
    {
      "midi": 69,
      "hit": false,
      "t": 91178.4802499999,
      "d": 330.35681250001653,
      "v": 95
    },
    {
      "midi": 74,
      "hit": false,
      "t": 91499.90849999992,
      "d": 229.91048437499558,
      "v": 70
    },
    {
      "midi": 62,
      "hit": false,
      "t": 91499.90849999992,
      "d": 241.0711874999979,
      "v": 64
    },
    {
      "midi": 55,
      "hit": false,
      "t": 91714.19399999992,
      "d": 296.874703124995,
      "v": 95
    },
    {
      "midi": 67,
      "hit": false,
      "t": 91714.19399999992,
      "d": 303.5711250000022,
      "v": 98
    },
    {
      "midi": 55,
      "hit": false,
      "t": 92142.76499999991,
      "d": 357.14250000000175,
      "v": 99
    },
    {
      "midi": 67,
      "hit": false,
      "t": 92142.76499999991,
      "d": 397.3210312500014,
      "v": 104
    },
    {
      "midi": 57,
      "hit": false,
      "t": 92571.33599999991,
      "d": 245.53546874999302,
      "v": 104
    },
    {
      "midi": 69,
      "hit": false,
      "t": 92571.33599999991,
      "d": 408.4817343750037,
      "v": 96
    },
    {
      "midi": 61,
      "hit": false,
      "t": 92892.7642499999,
      "d": 263.39259375000256,
      "v": 84
    },
    {
      "midi": 73,
      "hit": false,
      "t": 92892.7642499999,
      "d": 357.14250000000175,
      "v": 97
    },
    {
      "midi": 52,
      "hit": false,
      "t": 93214.1924999999,
      "d": 285.71399999999267,
      "v": 43
    },
    {
      "midi": 64,
      "hit": false,
      "t": 93214.1924999999,
      "d": 316.96396874998754,
      "v": 72
    },
    {
      "midi": 57,
      "hit": false,
      "t": 93428.4779999999,
      "d": 323.6603906249802,
      "v": 76
    },
    {
      "midi": 69,
      "hit": false,
      "t": 93535.62074999989,
      "d": 363.8389218749944,
      "v": 98
    },
    {
      "midi": 61,
      "hit": false,
      "t": 93749.90624999988,
      "d": 283.4818593749951,
      "v": 95
    },
    {
      "midi": 73,
      "hit": false,
      "t": 93749.90624999988,
      "d": 363.8389218749944,
      "v": 92
    },
    {
      "midi": 64,
      "hit": false,
      "t": 94071.33449999988,
      "d": 138.39271874999395,
      "v": 99
    },
    {
      "midi": 52,
      "hit": false,
      "t": 94071.33449999988,
      "d": 185.26767187500081,
      "v": 82
    },
    {
      "midi": 66,
      "hit": false,
      "t": 94285.61999999988,
      "d": 334.8210937499971,
      "v": 101
    },
    {
      "midi": 54,
      "hit": false,
      "t": 94285.61999999988,
      "d": 348.213937499997,
      "v": 68
    },
    {
      "midi": 57,
      "hit": false,
      "t": 94607.04824999988,
      "d": 301.33898437500466,
      "v": 68
    },
    {
      "midi": 69,
      "hit": false,
      "t": 94607.04824999988,
      "d": 301.33898437500466,
      "v": 97
    },
    {
      "midi": 74,
      "hit": false,
      "t": 94928.47649999989,
      "d": 223.2140625000029,
      "v": 64
    },
    {
      "midi": 62,
      "hit": false,
      "t": 94928.47649999989,
      "d": 229.91048437501013,
      "v": 90
    },
    {
      "midi": 67,
      "hit": false,
      "t": 95142.76199999989,
      "d": 270.0890156250098,
      "v": 100
    },
    {
      "midi": 55,
      "hit": false,
      "t": 95142.76199999989,
      "d": 296.87470312500955,
      "v": 97
    },
    {
      "midi": 55,
      "hit": false,
      "t": 95571.3329999999,
      "d": 312.499687500007,
      "v": 101
    },
    {
      "midi": 67,
      "hit": false,
      "t": 95571.3329999999,
      "d": 363.83892187500896,
      "v": 104
    },
    {
      "midi": 57,
      "hit": false,
      "t": 95999.90399999991,
      "d": 290.1782812500023,
      "v": 104
    },
    {
      "midi": 69,
      "hit": false,
      "t": 95999.90399999991,
      "d": 386.16032812499907,
      "v": 102
    },
    {
      "midi": 57,
      "hit": false,
      "t": 96321.3322499999,
      "d": 64.73207812500186,
      "v": 37
    },
    {
      "midi": 61,
      "hit": false,
      "t": 96321.3322499999,
      "d": 281.24971874999756,
      "v": 88
    },
    {
      "midi": 73,
      "hit": false,
      "t": 96321.3322499999,
      "d": 299.10684374999255,
      "v": 99
    },
    {
      "midi": 52,
      "hit": false,
      "t": 96642.7604999999,
      "d": 258.9283124999929,
      "v": 92
    },
    {
      "midi": 64,
      "hit": false,
      "t": 96642.7604999999,
      "d": 312.49968749999243,
      "v": 86
    },
    {
      "midi": 57,
      "hit": false,
      "t": 96857.0459999999,
      "d": 354.9103593750042,
      "v": 90
    },
    {
      "midi": 69,
      "hit": false,
      "t": 96857.0459999999,
      "d": 374.9996250000113,
      "v": 97
    },
    {
      "midi": 61,
      "hit": false,
      "t": 97178.4742499999,
      "d": 272.32115625000733,
      "v": 86
    },
    {
      "midi": 73,
      "hit": false,
      "t": 97178.4742499999,
      "d": 361.6067812500114,
      "v": 101
    },
    {
      "midi": 64,
      "hit": false,
      "t": 97499.90249999991,
      "d": 145.08914062500116,
      "v": 98
    },
    {
      "midi": 52,
      "hit": false,
      "t": 97499.90249999991,
      "d": 183.03553125000326,
      "v": 31
    },
    {
      "midi": 66,
      "hit": false,
      "t": 97714.18799999991,
      "d": 301.33898437500466,
      "v": 104
    },
    {
      "midi": 54,
      "hit": false,
      "t": 97714.18799999991,
      "d": 345.98179687501397,
      "v": 33
    },
    {
      "midi": 69,
      "hit": false,
      "t": 98035.61624999992,
      "d": 276.78543750000244,
      "v": 98
    },
    {
      "midi": 57,
      "hit": false,
      "t": 98035.61624999992,
      "d": 312.499687500007,
      "v": 86
    },
    {
      "midi": 74,
      "hit": false,
      "t": 98357.04449999993,
      "d": 187.49981249999837,
      "v": 94
    },
    {
      "midi": 62,
      "hit": false,
      "t": 98357.04449999993,
      "d": 283.4818593749951,
      "v": 31
    },
    {
      "midi": 67,
      "hit": false,
      "t": 98571.32999999993,
      "d": 319.19610937499965,
      "v": 86
    },
    {
      "midi": 55,
      "hit": false,
      "t": 98571.32999999993,
      "d": 323.66039062499476,
      "v": 100
    },
    {
      "midi": 55,
      "hit": false,
      "t": 98999.90099999993,
      "d": 308.0354062499973,
      "v": 105
    },
    {
      "midi": 67,
      "hit": false,
      "t": 98999.90099999993,
      "d": 361.60678124999686,
      "v": 105
    },
    {
      "midi": 69,
      "hit": false,
      "t": 99428.47199999992,
      "d": 399.55317187499895,
      "v": 104
    },
    {
      "midi": 57,
      "hit": false,
      "t": 99428.47199999992,
      "d": 401.7853124999965,
      "v": 94
    },
    {
      "midi": 73,
      "hit": false,
      "t": 99749.90024999992,
      "d": 303.5711250000022,
      "v": 90
    },
    {
      "midi": 61,
      "hit": false,
      "t": 99749.90024999992,
      "d": 308.0354062499973,
      "v": 78
    },
    {
      "midi": 52,
      "hit": false,
      "t": 100071.32849999992,
      "d": 270.0890156249952,
      "v": 94
    },
    {
      "midi": 64,
      "hit": false,
      "t": 100071.32849999992,
      "d": 301.3389843749901,
      "v": 96
    },
    {
      "midi": 57,
      "hit": false,
      "t": 100285.61399999991,
      "d": 379.46390624999185,
      "v": 96
    },
    {
      "midi": 69,
      "hit": false,
      "t": 100285.61399999991,
      "d": 401.7853124999965,
      "v": 98
    },
    {
      "midi": 61,
      "hit": false,
      "t": 100607.04224999991,
      "d": 263.39259375000256,
      "v": 84
    },
    {
      "midi": 73,
      "hit": false,
      "t": 100607.04224999991,
      "d": 343.74965625000186,
      "v": 84
    },
    {
      "midi": 64,
      "hit": false,
      "t": 100928.47049999991,
      "d": 129.46415625000373,
      "v": 97
    },
    {
      "midi": 52,
      "hit": false,
      "t": 100928.47049999991,
      "d": 185.26767187500081,
      "v": 76
    },
    {
      "midi": 54,
      "hit": false,
      "t": 101142.7559999999,
      "d": 299.1068437500071,
      "v": 78
    },
    {
      "midi": 66,
      "hit": false,
      "t": 101142.7559999999,
      "d": 332.5889531250141,
      "v": 107
    },
    {
      "midi": 69,
      "hit": false,
      "t": 101464.18424999992,
      "d": 283.4818593749951,
      "v": 86
    },
    {
      "midi": 57,
      "hit": false,
      "t": 101464.18424999992,
      "d": 328.1246718750044,
      "v": 88
    },
    {
      "midi": 62,
      "hit": false,
      "t": 101785.61249999992,
      "d": 196.42837500000314,
      "v": 74
    },
    {
      "midi": 74,
      "hit": false,
      "t": 101785.61249999992,
      "d": 203.12479687501036,
      "v": 88
    },
    {
      "midi": 55,
      "hit": false,
      "t": 101999.89799999993,
      "d": 270.0890156249952,
      "v": 102
    },
    {
      "midi": 67,
      "hit": false,
      "t": 101999.89799999993,
      "d": 305.80326562499977,
      "v": 100
    },
    {
      "midi": 67,
      "hit": false,
      "t": 102428.46899999992,
      "d": 290.1782812500023,
      "v": 106
    },
    {
      "midi": 55,
      "hit": false,
      "t": 102428.46899999992,
      "d": 323.6603906250093,
      "v": 105
    },
    {
      "midi": 69,
      "hit": false,
      "t": 102857.03999999994,
      "d": 100.4463281250064,
      "v": 105
    },
    {
      "midi": 57,
      "hit": false,
      "t": 102857.03999999994,
      "d": 104.91060937500151,
      "v": 107
    },
    {
      "midi": 69,
      "hit": false,
      "t": 103071.32549999993,
      "d": 87.05348437500652,
      "v": 107
    },
    {
      "midi": 57,
      "hit": false,
      "t": 103071.32549999993,
      "d": 98.21418750000885,
      "v": 107
    },
    {
      "midi": 69,
      "hit": false,
      "t": 103285.61099999995,
      "d": 100.4463281250064,
      "v": 107
    },
    {
      "midi": 57,
      "hit": false,
      "t": 103285.61099999995,
      "d": 136.16057812501094,
      "v": 107
    },
    {
      "midi": 66,
      "hit": false,
      "t": 104571.32399999996,
      "d": 238.83904687500035,
      "v": 105
    },
    {
      "midi": 78,
      "hit": false,
      "t": 104571.32399999996,
      "d": 243.30332812499546,
      "v": 107
    },
    {
      "midi": 74,
      "hit": false,
      "t": 104785.60949999996,
      "d": 116.07131250000384,
      "v": 105
    },
    {
      "midi": 62,
      "hit": false,
      "t": 104785.60949999996,
      "d": 133.92843749999884,
      "v": 102
    },
    {
      "midi": 64,
      "hit": false,
      "t": 105428.46599999996,
      "d": 220.98192187500536,
      "v": 99
    },
    {
      "midi": 76,
      "hit": false,
      "t": 105428.46599999996,
      "d": 241.07118750001246,
      "v": 105
    },
    {
      "midi": 71,
      "hit": false,
      "t": 105642.75149999995,
      "d": 109.37489062501118,
      "v": 105
    },
    {
      "midi": 59,
      "hit": false,
      "t": 105642.75149999995,
      "d": 140.62485937500605,
      "v": 99
    },
    {
      "midi": 64,
      "hit": false,
      "t": 106285.60799999996,
      "d": 189.73195312499593,
      "v": 104
    },
    {
      "midi": 76,
      "hit": false,
      "t": 106285.60799999996,
      "d": 203.1247968749958,
      "v": 106
    },
    {
      "midi": 61,
      "hit": false,
      "t": 106499.89349999996,
      "d": 426.3388593749987,
      "v": 98
    },
    {
      "midi": 73,
      "hit": false,
      "t": 106499.89349999996,
      "d": 430.80314062499383,
      "v": 105
    },
    {
      "midi": 69,
      "hit": false,
      "t": 106928.46449999996,
      "d": 91.51776562500163,
      "v": 103
    },
    {
      "midi": 57,
      "hit": false,
      "t": 106928.46449999996,
      "d": 136.1605781249964,
      "v": 100
    },
    {
      "midi": 57,
      "hit": false,
      "t": 107357.03549999995,
      "d": 196.42837500000314,
      "v": 103
    },
    {
      "midi": 69,
      "hit": false,
      "t": 107357.03549999995,
      "d": 225.44620312500047,
      "v": 99
    },
    {
      "midi": 71,
      "hit": false,
      "t": 107571.32099999995,
      "d": 212.05335937500058,
      "v": 102
    },
    {
      "midi": 59,
      "hit": false,
      "t": 107571.32099999995,
      "d": 214.28549999999814,
      "v": 99
    },
    {
      "midi": 69,
      "hit": false,
      "t": 107785.60649999995,
      "d": 80.3570624999993,
      "v": 98
    },
    {
      "midi": 57,
      "hit": false,
      "t": 107785.60649999995,
      "d": 111.60703124999418,
      "v": 92
    },
    {
      "midi": 66,
      "hit": false,
      "t": 107999.89199999995,
      "d": 212.05335937500058,
      "v": 90
    },
    {
      "midi": 78,
      "hit": false,
      "t": 107999.89199999995,
      "d": 216.5176406249957,
      "v": 107
    },
    {
      "midi": 74,
      "hit": false,
      "t": 108214.17749999995,
      "d": 98.2141874999943,
      "v": 99
    },
    {
      "midi": 62,
      "hit": false,
      "t": 108214.17749999995,
      "d": 111.60703124999418,
      "v": 104
    },
    {
      "midi": 64,
      "hit": false,
      "t": 108857.03399999994,
      "d": 198.6605156250007,
      "v": 105
    },
    {
      "midi": 76,
      "hit": false,
      "t": 108857.03399999994,
      "d": 214.28549999999814,
      "v": 105
    },
    {
      "midi": 83,
      "hit": false,
      "t": 109071.31949999994,
      "d": 93.74990624999919,
      "v": 99
    },
    {
      "midi": 71,
      "hit": false,
      "t": 109071.31949999994,
      "d": 107.14274999999907,
      "v": 97
    },
    {
      "midi": 61,
      "hit": false,
      "t": 109714.17599999993,
      "d": 241.0711874999979,
      "v": 100
    },
    {
      "midi": 69,
      "hit": false,
      "t": 109714.17599999993,
      "d": 323.66039062499476,
      "v": 103
    },
    {
      "midi": 81,
      "hit": false,
      "t": 109714.17599999993,
      "d": 363.8389218749944,
      "v": 105
    },
    {
      "midi": 76,
      "hit": false,
      "t": 110035.60424999993,
      "d": 299.10684374999255,
      "v": 100
    },
    {
      "midi": 64,
      "hit": false,
      "t": 110035.60424999993,
      "d": 319.19610937499965,
      "v": 103
    },
    {
      "midi": 73,
      "hit": false,
      "t": 110357.03249999993,
      "d": 229.91048437499558,
      "v": 106
    },
    {
      "midi": 61,
      "hit": false,
      "t": 110357.03249999993,
      "d": 249.99975000000268,
      "v": 99
    },
    {
      "midi": 81,
      "hit": false,
      "t": 110785.60349999992,
      "d": 185.26767187500081,
      "v": 101
    },
    {
      "midi": 69,
      "hit": false,
      "t": 110785.60349999992,
      "d": 214.28549999999814,
      "v": 104
    },
    {
      "midi": 68,
      "hit": false,
      "t": 110999.88899999992,
      "d": 120.53559374999895,
      "v": 106
    },
    {
      "midi": 80,
      "hit": false,
      "t": 110999.88899999992,
      "d": 158.48198437500105,
      "v": 98
    },
    {
      "midi": 67,
      "hit": false,
      "t": 111214.17449999992,
      "d": 174.1069687499985,
      "v": 100
    },
    {
      "midi": 79,
      "hit": false,
      "t": 111214.17449999992,
      "d": 180.8033906250057,
      "v": 84
    },
    {
      "midi": 78,
      "hit": false,
      "t": 111428.45999999993,
      "d": 133.92843749999884,
      "v": 107
    },
    {
      "midi": 66,
      "hit": false,
      "t": 111428.45999999993,
      "d": 160.7141249999986,
      "v": 99
    },
    {
      "midi": 74,
      "hit": false,
      "t": 111642.74549999993,
      "d": 165.1784062499937,
      "v": 98
    },
    {
      "midi": 62,
      "hit": false,
      "t": 111642.74549999993,
      "d": 174.1069687499985,
      "v": 92
    },
    {
      "midi": 76,
      "hit": false,
      "t": 112285.60199999993,
      "d": 160.7141249999986,
      "v": 107
    },
    {
      "midi": 64,
      "hit": false,
      "t": 112285.60199999993,
      "d": 187.49981249999837,
      "v": 104
    },
    {
      "midi": 59,
      "hit": false,
      "t": 112499.88749999992,
      "d": 267.8568749999977,
      "v": 97
    },
    {
      "midi": 71,
      "hit": false,
      "t": 112499.88749999992,
      "d": 267.8568749999977,
      "v": 95
    },
    {
      "midi": 76,
      "hit": false,
      "t": 113142.74399999992,
      "d": 160.7141249999986,
      "v": 105
    },
    {
      "midi": 64,
      "hit": false,
      "t": 113142.74399999992,
      "d": 214.28549999999814,
      "v": 104
    },
    {
      "midi": 61,
      "hit": false,
      "t": 113357.02949999992,
      "d": 401.7853124999965,
      "v": 92
    },
    {
      "midi": 73,
      "hit": false,
      "t": 113357.02949999992,
      "d": 401.7853124999965,
      "v": 101
    },
    {
      "midi": 57,
      "hit": false,
      "t": 113785.60049999991,
      "d": 169.64268750000338,
      "v": 99
    },
    {
      "midi": 69,
      "hit": false,
      "t": 113785.60049999991,
      "d": 200.89265624999825,
      "v": 97
    },
    {
      "midi": 57,
      "hit": false,
      "t": 114214.17149999991,
      "d": 198.6605156250007,
      "v": 100
    },
    {
      "midi": 69,
      "hit": false,
      "t": 114214.17149999991,
      "d": 207.58907812500547,
      "v": 103
    },
    {
      "midi": 71,
      "hit": false,
      "t": 114428.45699999992,
      "d": 183.03553125000326,
      "v": 105
    },
    {
      "midi": 59,
      "hit": false,
      "t": 114428.45699999992,
      "d": 191.96409375000803,
      "v": 103
    },
    {
      "midi": 69,
      "hit": false,
      "t": 114642.74249999993,
      "d": 158.48198437500105,
      "v": 101
    },
    {
      "midi": 57,
      "hit": false,
      "t": 114642.74249999993,
      "d": 174.1069687499985,
      "v": 105
    },
    {
      "midi": 78,
      "hit": false,
      "t": 114857.02799999993,
      "d": 160.7141249999986,
      "v": 104
    },
    {
      "midi": 66,
      "hit": false,
      "t": 114857.02799999993,
      "d": 187.49981249999837,
      "v": 101
    },
    {
      "midi": 74,
      "hit": false,
      "t": 115071.31349999993,
      "d": 321.4282499999972,
      "v": 102
    },
    {
      "midi": 62,
      "hit": false,
      "t": 115071.31349999993,
      "d": 348.213937499997,
      "v": 105
    },
    {
      "midi": 76,
      "hit": false,
      "t": 115714.16999999993,
      "d": 187.49981249999837,
      "v": 107
    },
    {
      "midi": 64,
      "hit": false,
      "t": 115714.16999999993,
      "d": 220.98192187500536,
      "v": 104
    },
    {
      "midi": 71,
      "hit": false,
      "t": 115928.45549999992,
      "d": 294.642562500012,
      "v": 101
    },
    {
      "midi": 83,
      "hit": false,
      "t": 115928.45549999992,
      "d": 321.42825000001176,
      "v": 98
    },
    {
      "midi": 69,
      "hit": false,
      "t": 116571.31199999993,
      "d": 354.9103593750042,
      "v": 96
    },
    {
      "midi": 81,
      "hit": false,
      "t": 116571.31199999993,
      "d": 363.83892187500896,
      "v": 100
    },
    {
      "midi": 73,
      "hit": false,
      "t": 116892.74024999993,
      "d": 89.28562500001863,
      "v": 76
    },
    {
      "midi": 76,
      "hit": false,
      "t": 116892.74024999993,
      "d": 325.89253125000687,
      "v": 97
    },
    {
      "midi": 64,
      "hit": false,
      "t": 116892.74024999993,
      "d": 334.82109375001164,
      "v": 92
    },
    {
      "midi": 61,
      "hit": false,
      "t": 116999.88299999994,
      "d": 214.28549999999814,
      "v": 33
    },
    {
      "midi": 69,
      "hit": false,
      "t": 117214.16849999994,
      "d": 214.28549999999814,
      "v": 98
    },
    {
      "midi": 81,
      "hit": false,
      "t": 117214.16849999994,
      "d": 214.28549999999814,
      "v": 102
    },
    {
      "midi": 66,
      "hit": false,
      "t": 118285.59599999995,
      "d": 238.83904687500035,
      "v": 105
    },
    {
      "midi": 78,
      "hit": false,
      "t": 118285.59599999995,
      "d": 243.30332812499546,
      "v": 107
    },
    {
      "midi": 74,
      "hit": false,
      "t": 118499.88149999994,
      "d": 116.07131250000384,
      "v": 105
    },
    {
      "midi": 62,
      "hit": false,
      "t": 118499.88149999994,
      "d": 133.92843749999884,
      "v": 102
    },
    {
      "midi": 64,
      "hit": false,
      "t": 119142.73799999994,
      "d": 220.98192187500536,
      "v": 99
    },
    {
      "midi": 76,
      "hit": false,
      "t": 119142.73799999994,
      "d": 241.07118750001246,
      "v": 105
    },
    {
      "midi": 71,
      "hit": false,
      "t": 119357.02349999994,
      "d": 109.37489062501118,
      "v": 105
    },
    {
      "midi": 59,
      "hit": false,
      "t": 119357.02349999994,
      "d": 140.62485937500605,
      "v": 99
    },
    {
      "midi": 64,
      "hit": false,
      "t": 119999.87999999995,
      "d": 189.73195312499593,
      "v": 104
    },
    {
      "midi": 76,
      "hit": false,
      "t": 119999.87999999995,
      "d": 203.1247968749958,
      "v": 106
    },
    {
      "midi": 61,
      "hit": false,
      "t": 120214.16549999994,
      "d": 426.3388593749987,
      "v": 98
    },
    {
      "midi": 73,
      "hit": false,
      "t": 120214.16549999994,
      "d": 430.80314062499383,
      "v": 105
    },
    {
      "midi": 69,
      "hit": false,
      "t": 120642.73649999994,
      "d": 91.51776562500163,
      "v": 103
    },
    {
      "midi": 57,
      "hit": false,
      "t": 120642.73649999994,
      "d": 136.1605781249964,
      "v": 100
    },
    {
      "midi": 57,
      "hit": false,
      "t": 121071.30749999994,
      "d": 196.42837500000314,
      "v": 103
    },
    {
      "midi": 69,
      "hit": false,
      "t": 121071.30749999994,
      "d": 225.44620312500047,
      "v": 99
    },
    {
      "midi": 71,
      "hit": false,
      "t": 121285.59299999994,
      "d": 212.05335937500058,
      "v": 102
    },
    {
      "midi": 59,
      "hit": false,
      "t": 121285.59299999994,
      "d": 214.28549999999814,
      "v": 99
    },
    {
      "midi": 69,
      "hit": false,
      "t": 121499.87849999993,
      "d": 80.3570624999993,
      "v": 98
    },
    {
      "midi": 57,
      "hit": false,
      "t": 121499.87849999993,
      "d": 111.60703124999418,
      "v": 92
    },
    {
      "midi": 66,
      "hit": false,
      "t": 121714.16399999993,
      "d": 212.05335937500058,
      "v": 90
    },
    {
      "midi": 78,
      "hit": false,
      "t": 121714.16399999993,
      "d": 216.5176406249957,
      "v": 107
    },
    {
      "midi": 74,
      "hit": false,
      "t": 121928.44949999993,
      "d": 98.2141874999943,
      "v": 99
    },
    {
      "midi": 62,
      "hit": false,
      "t": 121928.44949999993,
      "d": 111.60703124999418,
      "v": 104
    },
    {
      "midi": 64,
      "hit": false,
      "t": 122571.30599999992,
      "d": 198.6605156250007,
      "v": 105
    },
    {
      "midi": 76,
      "hit": false,
      "t": 122571.30599999992,
      "d": 214.28549999999814,
      "v": 105
    },
    {
      "midi": 83,
      "hit": false,
      "t": 122785.59149999992,
      "d": 93.74990624999919,
      "v": 99
    },
    {
      "midi": 71,
      "hit": false,
      "t": 122785.59149999992,
      "d": 107.14274999999907,
      "v": 97
    },
    {
      "midi": 61,
      "hit": false,
      "t": 123428.44799999992,
      "d": 241.0711874999979,
      "v": 100
    },
    {
      "midi": 69,
      "hit": false,
      "t": 123428.44799999992,
      "d": 323.66039062499476,
      "v": 103
    },
    {
      "midi": 81,
      "hit": false,
      "t": 123428.44799999992,
      "d": 363.8389218749944,
      "v": 105
    },
    {
      "midi": 76,
      "hit": false,
      "t": 123749.87624999991,
      "d": 299.10684374999255,
      "v": 100
    },
    {
      "midi": 64,
      "hit": false,
      "t": 123749.87624999991,
      "d": 319.19610937499965,
      "v": 103
    },
    {
      "midi": 73,
      "hit": false,
      "t": 124071.30449999991,
      "d": 229.91048437499558,
      "v": 106
    },
    {
      "midi": 61,
      "hit": false,
      "t": 124071.30449999991,
      "d": 249.99975000000268,
      "v": 99
    },
    {
      "midi": 81,
      "hit": false,
      "t": 124499.87549999991,
      "d": 185.26767187500081,
      "v": 101
    },
    {
      "midi": 69,
      "hit": false,
      "t": 124499.87549999991,
      "d": 214.28549999999814,
      "v": 104
    },
    {
      "midi": 68,
      "hit": false,
      "t": 124714.1609999999,
      "d": 120.53559374999895,
      "v": 106
    },
    {
      "midi": 80,
      "hit": false,
      "t": 124714.1609999999,
      "d": 158.48198437500105,
      "v": 98
    },
    {
      "midi": 67,
      "hit": false,
      "t": 124928.4464999999,
      "d": 174.1069687499985,
      "v": 100
    },
    {
      "midi": 79,
      "hit": false,
      "t": 124928.4464999999,
      "d": 180.8033906250057,
      "v": 84
    },
    {
      "midi": 78,
      "hit": false,
      "t": 125142.73199999992,
      "d": 133.92843749999884,
      "v": 107
    },
    {
      "midi": 66,
      "hit": false,
      "t": 125142.73199999992,
      "d": 160.7141249999986,
      "v": 99
    },
    {
      "midi": 74,
      "hit": false,
      "t": 125357.01749999991,
      "d": 165.1784062499937,
      "v": 98
    },
    {
      "midi": 62,
      "hit": false,
      "t": 125357.01749999991,
      "d": 174.1069687499985,
      "v": 92
    },
    {
      "midi": 76,
      "hit": false,
      "t": 125999.87399999991,
      "d": 160.7141249999986,
      "v": 107
    },
    {
      "midi": 64,
      "hit": false,
      "t": 125999.87399999991,
      "d": 187.49981249999837,
      "v": 104
    },
    {
      "midi": 59,
      "hit": false,
      "t": 126214.1594999999,
      "d": 267.8568749999977,
      "v": 97
    },
    {
      "midi": 71,
      "hit": false,
      "t": 126214.1594999999,
      "d": 267.8568749999977,
      "v": 95
    },
    {
      "midi": 76,
      "hit": false,
      "t": 126857.0159999999,
      "d": 160.7141249999986,
      "v": 105
    },
    {
      "midi": 64,
      "hit": false,
      "t": 126857.0159999999,
      "d": 214.28549999999814,
      "v": 104
    },
    {
      "midi": 61,
      "hit": false,
      "t": 127071.3014999999,
      "d": 401.7853124999965,
      "v": 92
    },
    {
      "midi": 73,
      "hit": false,
      "t": 127071.3014999999,
      "d": 401.7853124999965,
      "v": 101
    },
    {
      "midi": 57,
      "hit": false,
      "t": 127499.8724999999,
      "d": 169.64268750000338,
      "v": 99
    },
    {
      "midi": 69,
      "hit": false,
      "t": 127499.8724999999,
      "d": 200.89265624999825,
      "v": 97
    },
    {
      "midi": 57,
      "hit": false,
      "t": 127928.44349999989,
      "d": 198.6605156250007,
      "v": 100
    },
    {
      "midi": 69,
      "hit": false,
      "t": 127928.44349999989,
      "d": 207.58907812500547,
      "v": 103
    },
    {
      "midi": 71,
      "hit": false,
      "t": 128142.7289999999,
      "d": 183.03553125000326,
      "v": 105
    },
    {
      "midi": 59,
      "hit": false,
      "t": 128142.7289999999,
      "d": 191.96409375000803,
      "v": 103
    },
    {
      "midi": 69,
      "hit": false,
      "t": 128357.01449999992,
      "d": 158.48198437500105,
      "v": 101
    },
    {
      "midi": 57,
      "hit": false,
      "t": 128357.01449999992,
      "d": 174.1069687499985,
      "v": 105
    },
    {
      "midi": 78,
      "hit": false,
      "t": 128571.29999999992,
      "d": 160.7141249999986,
      "v": 104
    },
    {
      "midi": 66,
      "hit": false,
      "t": 128571.29999999992,
      "d": 187.49981249999837,
      "v": 101
    },
    {
      "midi": 74,
      "hit": false,
      "t": 128785.58549999991,
      "d": 321.4282499999972,
      "v": 102
    },
    {
      "midi": 62,
      "hit": false,
      "t": 128785.58549999991,
      "d": 348.213937499997,
      "v": 105
    },
    {
      "midi": 76,
      "hit": false,
      "t": 129428.44199999991,
      "d": 187.49981249999837,
      "v": 107
    },
    {
      "midi": 64,
      "hit": false,
      "t": 129428.44199999991,
      "d": 220.98192187500536,
      "v": 104
    },
    {
      "midi": 71,
      "hit": false,
      "t": 129642.7274999999,
      "d": 294.642562500012,
      "v": 101
    },
    {
      "midi": 83,
      "hit": false,
      "t": 129642.7274999999,
      "d": 321.42825000001176,
      "v": 98
    },
    {
      "midi": 57,
      "hit": false,
      "t": 130285.58399999992,
      "d": 854.9098593750095,
      "v": 86
    },
    {
      "midi": 61,
      "hit": false,
      "t": 130285.58399999992,
      "d": 854.9098593750095,
      "v": 72
    },
    {
      "midi": 64,
      "hit": false,
      "t": 130285.58399999992,
      "d": 854.9098593750095,
      "v": 90
    },
    {
      "midi": 69,
      "hit": false,
      "t": 130285.58399999992,
      "d": 854.9098593750095,
      "v": 94
    },
    {
      "midi": 73,
      "hit": false,
      "t": 130285.58399999992,
      "d": 854.9098593750095,
      "v": 78
    },
    {
      "midi": 76,
      "hit": false,
      "t": 130285.58399999992,
      "d": 854.9098593750095,
      "v": 90
    },
    {
      "midi": 54,
      "hit": false,
      "t": 131999.86799999993,
      "d": 343.74965625000186,
      "v": 88
    },
    {
      "midi": 66,
      "hit": false,
      "t": 131999.86799999993,
      "d": 359.3746406249993,
      "v": 105
    },
    {
      "midi": 57,
      "hit": false,
      "t": 132321.29624999993,
      "d": 301.33898437500466,
      "v": 90
    },
    {
      "midi": 69,
      "hit": false,
      "t": 132321.29624999993,
      "d": 330.3568124999874,
      "v": 95
    },
    {
      "midi": 74,
      "hit": false,
      "t": 132642.72449999992,
      "d": 229.91048437499558,
      "v": 70
    },
    {
      "midi": 62,
      "hit": false,
      "t": 132642.72449999992,
      "d": 241.0711874999979,
      "v": 64
    },
    {
      "midi": 55,
      "hit": false,
      "t": 132857.00999999992,
      "d": 296.87470312500955,
      "v": 95
    },
    {
      "midi": 67,
      "hit": false,
      "t": 132857.00999999992,
      "d": 303.57112500001676,
      "v": 98
    },
    {
      "midi": 55,
      "hit": false,
      "t": 133285.58099999995,
      "d": 357.1424999999872,
      "v": 99
    },
    {
      "midi": 67,
      "hit": false,
      "t": 133285.58099999995,
      "d": 397.3210312500014,
      "v": 104
    },
    {
      "midi": 57,
      "hit": false,
      "t": 133714.15199999994,
      "d": 245.53546874999302,
      "v": 104
    },
    {
      "midi": 69,
      "hit": false,
      "t": 133714.15199999994,
      "d": 408.4817343750037,
      "v": 96
    },
    {
      "midi": 61,
      "hit": false,
      "t": 134035.58024999994,
      "d": 263.39259375000256,
      "v": 84
    },
    {
      "midi": 73,
      "hit": false,
      "t": 134035.58024999994,
      "d": 357.1424999999872,
      "v": 97
    },
    {
      "midi": 52,
      "hit": false,
      "t": 134357.00849999994,
      "d": 285.7140000000072,
      "v": 43
    },
    {
      "midi": 64,
      "hit": false,
      "t": 134357.00849999994,
      "d": 316.9639687500021,
      "v": 72
    },
    {
      "midi": 57,
      "hit": false,
      "t": 134571.29399999994,
      "d": 323.6603906250093,
      "v": 76
    },
    {
      "midi": 69,
      "hit": false,
      "t": 134571.29399999994,
      "d": 363.8389218750235,
      "v": 98
    },
    {
      "midi": 61,
      "hit": false,
      "t": 134892.72224999993,
      "d": 283.4818593750242,
      "v": 95
    },
    {
      "midi": 73,
      "hit": false,
      "t": 134892.72224999993,
      "d": 363.8389218750235,
      "v": 92
    },
    {
      "midi": 64,
      "hit": false,
      "t": 135214.15049999996,
      "d": 138.39271874999395,
      "v": 99
    },
    {
      "midi": 52,
      "hit": false,
      "t": 135214.15049999996,
      "d": 185.26767187498626,
      "v": 82
    },
    {
      "midi": 66,
      "hit": false,
      "t": 135428.43599999996,
      "d": 334.82109375001164,
      "v": 101
    },
    {
      "midi": 54,
      "hit": false,
      "t": 135428.43599999996,
      "d": 348.2139375000261,
      "v": 68
    },
    {
      "midi": 57,
      "hit": false,
      "t": 135749.86424999996,
      "d": 301.33898437503376,
      "v": 68
    },
    {
      "midi": 69,
      "hit": false,
      "t": 135749.86424999996,
      "d": 301.33898437503376,
      "v": 97
    },
    {
      "midi": 74,
      "hit": false,
      "t": 136071.29249999998,
      "d": 223.21406249998836,
      "v": 64
    },
    {
      "midi": 62,
      "hit": false,
      "t": 136071.29249999998,
      "d": 229.91048437499558,
      "v": 90
    },
    {
      "midi": 67,
      "hit": false,
      "t": 136285.57799999998,
      "d": 270.0890156250098,
      "v": 100
    },
    {
      "midi": 55,
      "hit": false,
      "t": 136285.57799999998,
      "d": 296.87470312500955,
      "v": 97
    },
    {
      "midi": 55,
      "hit": false,
      "t": 136714.14899999998,
      "d": 312.499687500007,
      "v": 101
    },
    {
      "midi": 67,
      "hit": false,
      "t": 136714.14899999998,
      "d": 363.8389218749944,
      "v": 104
    },
    {
      "midi": 57,
      "hit": false,
      "t": 137142.71999999997,
      "d": 290.1782812500023,
      "v": 104
    },
    {
      "midi": 69,
      "hit": false,
      "t": 137142.71999999997,
      "d": 386.16032812499907,
      "v": 102
    },
    {
      "midi": 61,
      "hit": false,
      "t": 137464.14824999997,
      "d": 281.2497187500121,
      "v": 88
    },
    {
      "midi": 73,
      "hit": false,
      "t": 137464.14824999997,
      "d": 299.10684375002165,
      "v": 99
    },
    {
      "midi": 52,
      "hit": false,
      "t": 137785.5765,
      "d": 258.92831250000745,
      "v": 92
    },
    {
      "midi": 64,
      "hit": false,
      "t": 137785.5765,
      "d": 312.499687500007,
      "v": 86
    },
    {
      "midi": 57,
      "hit": false,
      "t": 137999.862,
      "d": 354.9103593750042,
      "v": 90
    },
    {
      "midi": 69,
      "hit": false,
      "t": 137999.862,
      "d": 374.99962499999674,
      "v": 97
    },
    {
      "midi": 61,
      "hit": false,
      "t": 138321.29025,
      "d": 272.3211562499928,
      "v": 86
    },
    {
      "midi": 73,
      "hit": false,
      "t": 138321.29025,
      "d": 361.6067812500114,
      "v": 101
    },
    {
      "midi": 64,
      "hit": false,
      "t": 138642.7185,
      "d": 145.08914062500116,
      "v": 98
    },
    {
      "midi": 52,
      "hit": false,
      "t": 138642.7185,
      "d": 183.03553125000326,
      "v": 31
    },
    {
      "midi": 66,
      "hit": false,
      "t": 138857.004,
      "d": 301.33898437500466,
      "v": 104
    },
    {
      "midi": 54,
      "hit": false,
      "t": 138857.004,
      "d": 345.98179687498487,
      "v": 33
    },
    {
      "midi": 69,
      "hit": false,
      "t": 139178.43224999998,
      "d": 276.7854374999879,
      "v": 98
    },
    {
      "midi": 57,
      "hit": false,
      "t": 139178.43224999998,
      "d": 312.4996874999779,
      "v": 86
    },
    {
      "midi": 74,
      "hit": false,
      "t": 139499.86049999995,
      "d": 187.49981249999837,
      "v": 94
    },
    {
      "midi": 62,
      "hit": false,
      "t": 139499.86049999995,
      "d": 283.4818593749951,
      "v": 31
    },
    {
      "midi": 67,
      "hit": false,
      "t": 139714.14599999995,
      "d": 319.1961093749851,
      "v": 86
    },
    {
      "midi": 55,
      "hit": false,
      "t": 139714.14599999995,
      "d": 323.6603906249802,
      "v": 100
    },
    {
      "midi": 55,
      "hit": false,
      "t": 140142.71699999992,
      "d": 308.0354062500119,
      "v": 105
    },
    {
      "midi": 67,
      "hit": false,
      "t": 140142.71699999992,
      "d": 361.6067812500114,
      "v": 105
    },
    {
      "midi": 69,
      "hit": false,
      "t": 140571.28799999994,
      "d": 399.5531718749844,
      "v": 104
    },
    {
      "midi": 57,
      "hit": false,
      "t": 140571.28799999994,
      "d": 401.7853124999965,
      "v": 94
    },
    {
      "midi": 73,
      "hit": false,
      "t": 140892.71624999994,
      "d": 303.57112499998766,
      "v": 90
    },
    {
      "midi": 61,
      "hit": false,
      "t": 140892.71624999994,
      "d": 308.03540624998277,
      "v": 78
    },
    {
      "midi": 52,
      "hit": false,
      "t": 141214.14449999994,
      "d": 270.0890156250098,
      "v": 94
    },
    {
      "midi": 64,
      "hit": false,
      "t": 141214.14449999994,
      "d": 301.33898437500466,
      "v": 96
    },
    {
      "midi": 57,
      "hit": false,
      "t": 141428.42999999993,
      "d": 379.46390624999185,
      "v": 96
    },
    {
      "midi": 69,
      "hit": false,
      "t": 141428.42999999993,
      "d": 401.7853124999965,
      "v": 98
    },
    {
      "midi": 61,
      "hit": false,
      "t": 141749.85824999993,
      "d": 263.39259375000256,
      "v": 84
    },
    {
      "midi": 73,
      "hit": false,
      "t": 141749.85824999993,
      "d": 343.74965625000186,
      "v": 84
    },
    {
      "midi": 64,
      "hit": false,
      "t": 142071.28649999993,
      "d": 129.46415625000373,
      "v": 97
    },
    {
      "midi": 52,
      "hit": false,
      "t": 142071.28649999993,
      "d": 185.26767187501537,
      "v": 76
    },
    {
      "midi": 54,
      "hit": false,
      "t": 142285.57199999996,
      "d": 299.10684374999255,
      "v": 78
    },
    {
      "midi": 66,
      "hit": false,
      "t": 142285.57199999996,
      "d": 332.58895312499953,
      "v": 107
    },
    {
      "midi": 69,
      "hit": false,
      "t": 142607.00024999995,
      "d": 283.4818593749951,
      "v": 86
    },
    {
      "midi": 57,
      "hit": false,
      "t": 142607.00024999995,
      "d": 328.1246718750044,
      "v": 88
    },
    {
      "midi": 62,
      "hit": false,
      "t": 142928.42849999995,
      "d": 196.4283750000177,
      "v": 74
    },
    {
      "midi": 74,
      "hit": false,
      "t": 142928.42849999995,
      "d": 203.1247968750249,
      "v": 88
    },
    {
      "midi": 55,
      "hit": false,
      "t": 143142.71399999998,
      "d": 270.0890156250098,
      "v": 102
    },
    {
      "midi": 67,
      "hit": false,
      "t": 143142.71399999998,
      "d": 305.80326562499977,
      "v": 100
    },
    {
      "midi": 67,
      "hit": false,
      "t": 143571.28499999997,
      "d": 290.1782812500023,
      "v": 106
    },
    {
      "midi": 55,
      "hit": false,
      "t": 143571.28499999997,
      "d": 323.6603906250093,
      "v": 105
    },
    {
      "midi": 69,
      "hit": false,
      "t": 143999.85599999997,
      "d": 100.44632812499185,
      "v": 105
    },
    {
      "midi": 57,
      "hit": false,
      "t": 143999.85599999997,
      "d": 104.91060937498696,
      "v": 107
    },
    {
      "midi": 69,
      "hit": false,
      "t": 144214.14149999997,
      "d": 87.05348437500652,
      "v": 107
    },
    {
      "midi": 57,
      "hit": false,
      "t": 144214.14149999997,
      "d": 98.21418750000885,
      "v": 107
    },
    {
      "midi": 69,
      "hit": false,
      "t": 144428.42699999997,
      "d": 100.44632812499185,
      "v": 107
    },
    {
      "midi": 57,
      "hit": false,
      "t": 144428.42699999997,
      "d": 136.16057812498184,
      "v": 107
    },
    {
      "midi": 69,
      "hit": false,
      "t": 157714.12799999994,
      "d": 160.7141249999986,
      "v": 102
    },
    {
      "midi": 57,
      "hit": false,
      "t": 157714.12799999994,
      "d": 169.64268749998882,
      "v": 101
    },
    {
      "midi": 73,
      "hit": false,
      "t": 157928.41349999994,
      "d": 136.16057812501094,
      "v": 103
    },
    {
      "midi": 64,
      "hit": false,
      "t": 157928.41349999994,
      "d": 142.85700000001816,
      "v": 103
    },
    {
      "midi": 61,
      "hit": false,
      "t": 157928.41349999994,
      "d": 145.08914062503027,
      "v": 100
    },
    {
      "midi": 76,
      "hit": false,
      "t": 157928.41349999994,
      "d": 154.0177031250205,
      "v": 102
    },
    {
      "midi": 73,
      "hit": false,
      "t": 158356.98449999996,
      "d": 154.01770312499139,
      "v": 107
    },
    {
      "midi": 64,
      "hit": false,
      "t": 158356.98449999996,
      "d": 165.1784062499937,
      "v": 102
    },
    {
      "midi": 61,
      "hit": false,
      "t": 158356.98449999996,
      "d": 167.41054687500582,
      "v": 103
    },
    {
      "midi": 76,
      "hit": false,
      "t": 158356.98449999996,
      "d": 171.87482812500093,
      "v": 105
    },
    {
      "midi": 73,
      "hit": false,
      "t": 158785.55549999996,
      "d": 174.10696875001304,
      "v": 107
    },
    {
      "midi": 64,
      "hit": false,
      "t": 158785.55549999996,
      "d": 183.03553125000326,
      "v": 102
    },
    {
      "midi": 61,
      "hit": false,
      "t": 158785.55549999996,
      "d": 185.26767187501537,
      "v": 103
    },
    {
      "midi": 76,
      "hit": false,
      "t": 158785.55549999996,
      "d": 200.8926562500128,
      "v": 105
    },
    {
      "midi": 73,
      "hit": false,
      "t": 159214.12649999998,
      "d": 109.37489062501118,
      "v": 107
    },
    {
      "midi": 64,
      "hit": false,
      "t": 159214.12649999998,
      "d": 142.85700000001816,
      "v": 100
    },
    {
      "midi": 76,
      "hit": false,
      "t": 159214.12649999998,
      "d": 145.08914062503027,
      "v": 105
    },
    {
      "midi": 61,
      "hit": false,
      "t": 159214.12649999998,
      "d": 147.32128125004238,
      "v": 104
    },
    {
      "midi": 66,
      "hit": false,
      "t": 159428.41200000004,
      "d": 238.8390468749858,
      "v": 105
    },
    {
      "midi": 78,
      "hit": false,
      "t": 159428.41200000004,
      "d": 243.3033281249809,
      "v": 107
    },
    {
      "midi": 74,
      "hit": false,
      "t": 159642.69750000004,
      "d": 116.07131249998929,
      "v": 105
    },
    {
      "midi": 62,
      "hit": false,
      "t": 159642.69750000004,
      "d": 133.92843749999884,
      "v": 102
    },
    {
      "midi": 64,
      "hit": false,
      "t": 160285.55400000003,
      "d": 220.98192187500536,
      "v": 99
    },
    {
      "midi": 76,
      "hit": false,
      "t": 160285.55400000003,
      "d": 241.0711874999979,
      "v": 105
    },
    {
      "midi": 71,
      "hit": false,
      "t": 160499.83950000003,
      "d": 109.37489062501118,
      "v": 105
    },
    {
      "midi": 59,
      "hit": false,
      "t": 160499.83950000003,
      "d": 140.62485937500605,
      "v": 99
    },
    {
      "midi": 64,
      "hit": false,
      "t": 161142.69600000003,
      "d": 189.73195312501048,
      "v": 104
    },
    {
      "midi": 76,
      "hit": false,
      "t": 161142.69600000003,
      "d": 203.1247968750249,
      "v": 106
    },
    {
      "midi": 61,
      "hit": false,
      "t": 161356.98150000005,
      "d": 426.33885937501327,
      "v": 98
    },
    {
      "midi": 73,
      "hit": false,
      "t": 161356.98150000005,
      "d": 430.8031406250375,
      "v": 105
    },
    {
      "midi": 69,
      "hit": false,
      "t": 161785.55250000008,
      "d": 91.51776562500163,
      "v": 103
    },
    {
      "midi": 57,
      "hit": false,
      "t": 161785.55250000008,
      "d": 136.16057812501094,
      "v": 100
    },
    {
      "midi": 57,
      "hit": false,
      "t": 162214.1235000001,
      "d": 196.4283749999886,
      "v": 103
    },
    {
      "midi": 69,
      "hit": false,
      "t": 162214.1235000001,
      "d": 225.44620312500047,
      "v": 99
    },
    {
      "midi": 71,
      "hit": false,
      "t": 162428.4090000001,
      "d": 212.05335937501513,
      "v": 102
    },
    {
      "midi": 59,
      "hit": false,
      "t": 162428.4090000001,
      "d": 214.28550000002724,
      "v": 99
    },
    {
      "midi": 69,
      "hit": false,
      "t": 162642.69450000013,
      "d": 80.3570624999993,
      "v": 98
    },
    {
      "midi": 57,
      "hit": false,
      "t": 162642.69450000013,
      "d": 111.60703124999418,
      "v": 92
    },
    {
      "midi": 66,
      "hit": false,
      "t": 162856.98000000013,
      "d": 212.05335937498603,
      "v": 90
    },
    {
      "midi": 78,
      "hit": false,
      "t": 162856.98000000013,
      "d": 216.51764062501024,
      "v": 107
    },
    {
      "midi": 74,
      "hit": false,
      "t": 163071.26550000013,
      "d": 98.21418750000885,
      "v": 99
    },
    {
      "midi": 62,
      "hit": false,
      "t": 163071.26550000013,
      "d": 111.60703125002328,
      "v": 104
    },
    {
      "midi": 64,
      "hit": false,
      "t": 163714.12200000015,
      "d": 198.6605156250007,
      "v": 105
    },
    {
      "midi": 76,
      "hit": false,
      "t": 163714.12200000015,
      "d": 214.28549999999814,
      "v": 105
    },
    {
      "midi": 83,
      "hit": false,
      "t": 163928.40750000015,
      "d": 93.74990625001374,
      "v": 99
    },
    {
      "midi": 71,
      "hit": false,
      "t": 163928.40750000015,
      "d": 107.14275000002817,
      "v": 97
    },
    {
      "midi": 61,
      "hit": false,
      "t": 164571.26400000017,
      "d": 241.0711874999979,
      "v": 100
    },
    {
      "midi": 69,
      "hit": false,
      "t": 164571.26400000017,
      "d": 323.6603906250093,
      "v": 103
    },
    {
      "midi": 81,
      "hit": false,
      "t": 164571.26400000017,
      "d": 363.8389218750235,
      "v": 105
    },
    {
      "midi": 76,
      "hit": false,
      "t": 164892.69225000017,
      "d": 299.10684375002165,
      "v": 100
    },
    {
      "midi": 64,
      "hit": false,
      "t": 164892.69225000017,
      "d": 319.1961093750142,
      "v": 103
    },
    {
      "midi": 73,
      "hit": false,
      "t": 165214.1205000002,
      "d": 229.91048437499558,
      "v": 106
    },
    {
      "midi": 61,
      "hit": false,
      "t": 165214.1205000002,
      "d": 249.99974999998813,
      "v": 99
    },
    {
      "midi": 81,
      "hit": false,
      "t": 165642.6915000002,
      "d": 185.26767187498626,
      "v": 101
    },
    {
      "midi": 69,
      "hit": false,
      "t": 165642.6915000002,
      "d": 214.28549999999814,
      "v": 104
    },
    {
      "midi": 68,
      "hit": false,
      "t": 165856.9770000002,
      "d": 120.5355937500135,
      "v": 106
    },
    {
      "midi": 80,
      "hit": false,
      "t": 165856.9770000002,
      "d": 158.4819843750156,
      "v": 98
    },
    {
      "midi": 67,
      "hit": false,
      "t": 166071.26250000022,
      "d": 174.10696875001304,
      "v": 100
    },
    {
      "midi": 79,
      "hit": false,
      "t": 166071.26250000022,
      "d": 180.80339062502026,
      "v": 84
    },
    {
      "midi": 78,
      "hit": false,
      "t": 166285.54800000024,
      "d": 133.92843749999884,
      "v": 107
    },
    {
      "midi": 66,
      "hit": false,
      "t": 166285.54800000024,
      "d": 160.7141249999986,
      "v": 99
    },
    {
      "midi": 74,
      "hit": false,
      "t": 166499.83350000024,
      "d": 165.1784062499937,
      "v": 98
    },
    {
      "midi": 62,
      "hit": false,
      "t": 166499.83350000024,
      "d": 174.10696874998393,
      "v": 92
    },
    {
      "midi": 76,
      "hit": false,
      "t": 167142.69000000024,
      "d": 160.7141249999986,
      "v": 107
    },
    {
      "midi": 64,
      "hit": false,
      "t": 167142.69000000024,
      "d": 187.49981249999837,
      "v": 104
    },
    {
      "midi": 59,
      "hit": false,
      "t": 167356.97550000023,
      "d": 267.8568749999977,
      "v": 97
    },
    {
      "midi": 71,
      "hit": false,
      "t": 167356.97550000023,
      "d": 267.8568749999977,
      "v": 95
    },
    {
      "midi": 76,
      "hit": false,
      "t": 167999.83200000023,
      "d": 160.7141249999986,
      "v": 105
    },
    {
      "midi": 64,
      "hit": false,
      "t": 167999.83200000023,
      "d": 214.28549999999814,
      "v": 104
    },
    {
      "midi": 61,
      "hit": false,
      "t": 168214.11750000023,
      "d": 401.7853124999965,
      "v": 92
    },
    {
      "midi": 73,
      "hit": false,
      "t": 168214.11750000023,
      "d": 401.7853124999965,
      "v": 101
    },
    {
      "midi": 57,
      "hit": false,
      "t": 168642.68850000022,
      "d": 169.64268749998882,
      "v": 99
    },
    {
      "midi": 69,
      "hit": false,
      "t": 168642.68850000022,
      "d": 200.8926562499837,
      "v": 97
    },
    {
      "midi": 57,
      "hit": false,
      "t": 169071.25950000022,
      "d": 198.6605156250007,
      "v": 100
    },
    {
      "midi": 69,
      "hit": false,
      "t": 169071.25950000022,
      "d": 207.58907812499092,
      "v": 103
    },
    {
      "midi": 71,
      "hit": false,
      "t": 169285.54500000022,
      "d": 183.03553125000326,
      "v": 105
    },
    {
      "midi": 59,
      "hit": false,
      "t": 169285.54500000022,
      "d": 191.96409374999348,
      "v": 103
    },
    {
      "midi": 69,
      "hit": false,
      "t": 169499.83050000021,
      "d": 158.4819843749865,
      "v": 101
    },
    {
      "midi": 57,
      "hit": false,
      "t": 169499.83050000021,
      "d": 174.10696874998393,
      "v": 105
    },
    {
      "midi": 78,
      "hit": false,
      "t": 169714.1160000002,
      "d": 160.7141249999986,
      "v": 104
    },
    {
      "midi": 66,
      "hit": false,
      "t": 169714.1160000002,
      "d": 187.49981249999837,
      "v": 101
    },
    {
      "midi": 74,
      "hit": false,
      "t": 169928.4015000002,
      "d": 321.4282499999972,
      "v": 102
    },
    {
      "midi": 62,
      "hit": false,
      "t": 169928.4015000002,
      "d": 348.213937499997,
      "v": 105
    },
    {
      "midi": 76,
      "hit": false,
      "t": 170571.2580000002,
      "d": 187.49981249999837,
      "v": 107
    },
    {
      "midi": 64,
      "hit": false,
      "t": 170571.2580000002,
      "d": 220.98192187500536,
      "v": 104
    },
    {
      "midi": 71,
      "hit": false,
      "t": 170785.5435000002,
      "d": 294.64256249999744,
      "v": 101
    },
    {
      "midi": 83,
      "hit": false,
      "t": 170785.5435000002,
      "d": 321.4282499999972,
      "v": 98
    },
    {
      "midi": 69,
      "hit": false,
      "t": 171428.4000000002,
      "d": 354.9103593750042,
      "v": 96
    },
    {
      "midi": 81,
      "hit": false,
      "t": 171428.4000000002,
      "d": 363.8389218750235,
      "v": 100
    },
    {
      "midi": 73,
      "hit": false,
      "t": 171749.8282500002,
      "d": 89.28562500001863,
      "v": 76
    },
    {
      "midi": 76,
      "hit": false,
      "t": 171749.8282500002,
      "d": 325.8925312500214,
      "v": 97
    },
    {
      "midi": 64,
      "hit": false,
      "t": 171749.8282500002,
      "d": 334.82109375001164,
      "v": 92
    },
    {
      "midi": 61,
      "hit": false,
      "t": 171785.5425000002,
      "d": 214.28549999999814,
      "v": 33
    },
    {
      "midi": 69,
      "hit": false,
      "t": 172071.25650000022,
      "d": 214.28549999999814,
      "v": 98
    },
    {
      "midi": 81,
      "hit": false,
      "t": 172071.25650000022,
      "d": 214.28549999999814,
      "v": 102
    },
    {
      "midi": 78,
      "hit": false,
      "t": 173142.6840000002,
      "d": 133.92843749999884,
      "v": 107
    },
    {
      "midi": 66,
      "hit": false,
      "t": 173142.6840000002,
      "d": 160.7141249999986,
      "v": 99
    },
    {
      "midi": 74,
      "hit": false,
      "t": 173356.9695000002,
      "d": 165.1784062499937,
      "v": 98
    },
    {
      "midi": 62,
      "hit": false,
      "t": 173356.9695000002,
      "d": 174.10696874998393,
      "v": 92
    },
    {
      "midi": 76,
      "hit": false,
      "t": 173999.8260000002,
      "d": 160.7141249999986,
      "v": 107
    },
    {
      "midi": 64,
      "hit": false,
      "t": 173999.8260000002,
      "d": 187.49981249999837,
      "v": 104
    },
    {
      "midi": 59,
      "hit": false,
      "t": 174214.1115000002,
      "d": 267.8568749999977,
      "v": 97
    },
    {
      "midi": 71,
      "hit": false,
      "t": 174214.1115000002,
      "d": 267.8568749999977,
      "v": 95
    },
    {
      "midi": 76,
      "hit": false,
      "t": 174856.9680000002,
      "d": 160.7141249999986,
      "v": 105
    },
    {
      "midi": 64,
      "hit": false,
      "t": 174856.9680000002,
      "d": 214.28549999999814,
      "v": 104
    },
    {
      "midi": 61,
      "hit": false,
      "t": 175071.2535000002,
      "d": 401.7853124999965,
      "v": 92
    },
    {
      "midi": 73,
      "hit": false,
      "t": 175071.2535000002,
      "d": 401.7853124999965,
      "v": 101
    },
    {
      "midi": 57,
      "hit": false,
      "t": 175499.8245000002,
      "d": 169.64268749998882,
      "v": 99
    },
    {
      "midi": 69,
      "hit": false,
      "t": 175499.8245000002,
      "d": 200.8926562499837,
      "v": 97
    },
    {
      "midi": 57,
      "hit": false,
      "t": 175928.3955000002,
      "d": 198.6605156250007,
      "v": 100
    },
    {
      "midi": 69,
      "hit": false,
      "t": 175928.3955000002,
      "d": 207.58907812499092,
      "v": 103
    },
    {
      "midi": 71,
      "hit": false,
      "t": 176142.6810000002,
      "d": 183.03553125000326,
      "v": 105
    },
    {
      "midi": 59,
      "hit": false,
      "t": 176142.6810000002,
      "d": 191.96409374999348,
      "v": 103
    },
    {
      "midi": 69,
      "hit": false,
      "t": 176356.96650000018,
      "d": 158.4819843749865,
      "v": 101
    },
    {
      "midi": 57,
      "hit": false,
      "t": 176356.96650000018,
      "d": 174.10696874998393,
      "v": 105
    },
    {
      "midi": 78,
      "hit": false,
      "t": 176571.25200000018,
      "d": 160.7141249999986,
      "v": 104
    },
    {
      "midi": 66,
      "hit": false,
      "t": 176571.25200000018,
      "d": 187.49981249999837,
      "v": 101
    },
    {
      "midi": 74,
      "hit": false,
      "t": 176785.53750000018,
      "d": 321.4282499999972,
      "v": 102
    },
    {
      "midi": 62,
      "hit": false,
      "t": 176785.53750000018,
      "d": 348.213937499997,
      "v": 105
    },
    {
      "midi": 76,
      "hit": false,
      "t": 177428.39400000017,
      "d": 187.49981249999837,
      "v": 107
    },
    {
      "midi": 64,
      "hit": false,
      "t": 177428.39400000017,
      "d": 220.98192187500536,
      "v": 104
    },
    {
      "midi": 71,
      "hit": false,
      "t": 177642.67950000017,
      "d": 294.64256249999744,
      "v": 101
    },
    {
      "midi": 83,
      "hit": false,
      "t": 177642.67950000017,
      "d": 321.4282499999972,
      "v": 98
    },
    {
      "midi": 73,
      "hit": false,
      "t": 178285.53600000017,
      "d": 66.96421875001397,
      "v": 100
    },
    {
      "midi": 69,
      "hit": false,
      "t": 178285.53600000017,
      "d": 69.19635937502608,
      "v": 102
    },
    {
      "midi": 76,
      "hit": false,
      "t": 178285.53600000017,
      "d": 75.8927812500333,
      "v": 104
    },
    {
      "midi": 64,
      "hit": false,
      "t": 178285.53600000017,
      "d": 80.3570625000284,
      "v": 92
    },
    {
      "midi": 61,
      "hit": false,
      "t": 178285.53600000017,
      "d": 87.05348437503562,
      "v": 101
    },
    {
      "midi": 57,
      "hit": false,
      "t": 178285.53600000017,
      "d": 93.74990625004284,
      "v": 99
    },
    {
      "midi": 81,
      "hit": false,
      "t": 178285.53600000017,
      "d": 113.83917187503539,
      "v": 99
    },
    {
      "midi": 73,
      "hit": false,
      "t": 178499.8215000002,
      "d": 71.42850000000908,
      "v": 98
    },
    {
      "midi": 61,
      "hit": false,
      "t": 178499.8215000002,
      "d": 73.66064062502119,
      "v": 96
    },
    {
      "midi": 64,
      "hit": false,
      "t": 178499.8215000002,
      "d": 75.8927812500333,
      "v": 92
    },
    {
      "midi": 69,
      "hit": false,
      "t": 178499.8215000002,
      "d": 75.8927812500333,
      "v": 100
    },
    {
      "midi": 76,
      "hit": false,
      "t": 178499.8215000002,
      "d": 75.8927812500333,
      "v": 101
    },
    {
      "midi": 57,
      "hit": false,
      "t": 178499.8215000002,
      "d": 84.82134375002352,
      "v": 97
    },
    {
      "midi": 81,
      "hit": false,
      "t": 178499.8215000002,
      "d": 109.37489062501118,
      "v": 95
    },
    {
      "midi": 73,
      "hit": false,
      "t": 178714.1070000002,
      "d": 129.46415625000373,
      "v": 103
    },
    {
      "midi": 61,
      "hit": false,
      "t": 178714.1070000002,
      "d": 133.92843749999884,
      "v": 107
    },
    {
      "midi": 76,
      "hit": false,
      "t": 178714.1070000002,
      "d": 133.92843749999884,
      "v": 104
    },
    {
      "midi": 64,
      "hit": false,
      "t": 178714.1070000002,
      "d": 136.16057812501094,
      "v": 103
    },
    {
      "midi": 69,
      "hit": false,
      "t": 178714.1070000002,
      "d": 142.85700000001816,
      "v": 104
    },
    {
      "midi": 57,
      "hit": false,
      "t": 178714.1070000002,
      "d": 147.32128125001327,
      "v": 104
    },
    {
      "midi": 81,
      "hit": false,
      "t": 178714.1070000002,
      "d": 169.64268750001793,
      "v": 100
    }
  ]
}