{
  "jsonPath": "Pop/Dance Pop/Jessica Simpson/take-my-breath-away.json",
  "path": "Pop\\Dance Pop\\Jessica Simpson\\Take My Breath Away.mid",
  "name": "Take My Breath Away",
  "difficulty": "Advanced",
  "bpm": 102.0000510000255,
  "notes": [
    {
      "midi": 67,
      "hit": false,
      "t": 13601.5625,
      "d": 125,
      "v": 97
    },
    {
      "midi": 79,
      "hit": false,
      "t": 13601.5625,
      "d": 125,
      "v": 104
    },
    {
      "midi": 78,
      "hit": false,
      "t": 14070.3125,
      "d": 93.75,
      "v": 91
    },
    {
      "midi": 66,
      "hit": false,
      "t": 14070.3125,
      "d": 101.5625,
      "v": 86
    },
    {
      "midi": 74,
      "hit": false,
      "t": 14539.0625,
      "d": 117.1875,
      "v": 99
    },
    {
      "midi": 62,
      "hit": false,
      "t": 14539.0625,
      "d": 125,
      "v": 93
    },
    {
      "midi": 67,
      "hit": false,
      "t": 14992.1875,
      "d": 2851.5625,
      "v": 75
    },
    {
      "midi": 60,
      "hit": false,
      "t": 14992.1875,
      "d": 2859.375,
      "v": 91
    },
    {
      "midi": 64,
      "hit": false,
      "t": 14992.1875,
      "d": 2882.8125,
      "v": 99
    },
    {
      "midi": 48,
      "hit": false,
      "t": 14992.1875,
      "d": 3000,
      "v": 88
    },
    {
      "midi": 76,
      "hit": false,
      "t": 15015.625,
      "d": 2976.5625,
      "v": 112
    },
    {
      "midi": 64,
      "hit": false,
      "t": 15015.625,
      "d": 2984.375,
      "v": 108
    },
    {
      "midi": 66,
      "hit": false,
      "t": 18726.5625,
      "d": 3250,
      "v": 92
    },
    {
      "midi": 57,
      "hit": false,
      "t": 18726.5625,
      "d": 3265.625,
      "v": 98
    },
    {
      "midi": 50,
      "hit": false,
      "t": 18726.5625,
      "d": 3367.1875,
      "v": 96
    },
    {
      "midi": 62,
      "hit": false,
      "t": 18734.375,
      "d": 3187.5,
      "v": 99
    },
    {
      "midi": 66,
      "hit": false,
      "t": 18742.1875,
      "d": 3179.6875,
      "v": 106
    },
    {
      "midi": 78,
      "hit": false,
      "t": 18742.1875,
      "d": 3226.5625,
      "v": 106
    },
    {
      "midi": 59,
      "hit": false,
      "t": 22492.1875,
      "d": 3156.25,
      "v": 103
    },
    {
      "midi": 62,
      "hit": false,
      "t": 22492.1875,
      "d": 3156.25,
      "v": 104
    },
    {
      "midi": 67,
      "hit": false,
      "t": 22492.1875,
      "d": 3195.3125,
      "v": 101
    },
    {
      "midi": 43,
      "hit": false,
      "t": 22500,
      "d": 3117.1875,
      "v": 96
    },
    {
      "midi": 42,
      "hit": false,
      "t": 26242.1875,
      "d": 1742.1875,
      "v": 88
    },
    {
      "midi": 57,
      "hit": false,
      "t": 26242.1875,
      "d": 1796.875,
      "v": 97
    },
    {
      "midi": 62,
      "hit": false,
      "t": 26242.1875,
      "d": 1820.3125,
      "v": 99
    },
    {
      "midi": 66,
      "hit": false,
      "t": 26242.1875,
      "d": 1843.75,
      "v": 91
    },
    {
      "midi": 60,
      "hit": false,
      "t": 29984.375,
      "d": 2937.5,
      "v": 92
    },
    {
      "midi": 64,
      "hit": false,
      "t": 29984.375,
      "d": 2976.5625,
      "v": 91
    },
    {
      "midi": 67,
      "hit": false,
      "t": 29984.375,
      "d": 2976.5625,
      "v": 91
    },
    {
      "midi": 36,
      "hit": false,
      "t": 29984.375,
      "d": 3078.125,
      "v": 90
    },
    {
      "midi": 69,
      "hit": false,
      "t": 33734.375,
      "d": 2937.5,
      "v": 91
    },
    {
      "midi": 57,
      "hit": false,
      "t": 33734.375,
      "d": 3101.5625,
      "v": 95
    },
    {
      "midi": 66,
      "hit": false,
      "t": 33734.375,
      "d": 3164.0625,
      "v": 78
    },
    {
      "midi": 62,
      "hit": false,
      "t": 33734.375,
      "d": 3171.875,
      "v": 86
    },
    {
      "midi": 38,
      "hit": false,
      "t": 33734.375,
      "d": 3296.875,
      "v": 98
    },
    {
      "midi": 59,
      "hit": false,
      "t": 37492.1875,
      "d": 3195.3125,
      "v": 101
    },
    {
      "midi": 62,
      "hit": false,
      "t": 37492.1875,
      "d": 3226.5625,
      "v": 103
    },
    {
      "midi": 67,
      "hit": false,
      "t": 37492.1875,
      "d": 3226.5625,
      "v": 99
    },
    {
      "midi": 43,
      "hit": false,
      "t": 37492.1875,
      "d": 3421.875,
      "v": 93
    },
    {
      "midi": 69,
      "hit": false,
      "t": 41242.1875,
      "d": 2796.875,
      "v": 98
    },
    {
      "midi": 62,
      "hit": false,
      "t": 41242.1875,
      "d": 2890.625,
      "v": 84
    },
    {
      "midi": 66,
      "hit": false,
      "t": 41242.1875,
      "d": 2890.625,
      "v": 86
    },
    {
      "midi": 57,
      "hit": false,
      "t": 41242.1875,
      "d": 2898.4375,
      "v": 94
    },
    {
      "midi": 50,
      "hit": false,
      "t": 41242.1875,
      "d": 3156.25,
      "v": 96
    },
    {
      "midi": 55,
      "hit": false,
      "t": 44992.1875,
      "d": 2882.8125,
      "v": 91
    },
    {
      "midi": 60,
      "hit": false,
      "t": 44992.1875,
      "d": 2929.6875,
      "v": 81
    },
    {
      "midi": 64,
      "hit": false,
      "t": 44992.1875,
      "d": 2945.3125,
      "v": 76
    },
    {
      "midi": 67,
      "hit": false,
      "t": 44992.1875,
      "d": 2976.5625,
      "v": 83
    },
    {
      "midi": 48,
      "hit": false,
      "t": 44992.1875,
      "d": 3023.4375,
      "v": 85
    },
    {
      "midi": 69,
      "hit": false,
      "t": 48750,
      "d": 2906.25,
      "v": 98
    },
    {
      "midi": 57,
      "hit": false,
      "t": 48750,
      "d": 2929.6875,
      "v": 92
    },
    {
      "midi": 66,
      "hit": false,
      "t": 48750,
      "d": 3132.8125,
      "v": 83
    },
    {
      "midi": 62,
      "hit": false,
      "t": 48765.625,
      "d": 3054.6875,
      "v": 92
    },
    {
      "midi": 50,
      "hit": false,
      "t": 48765.625,
      "d": 3093.75,
      "v": 92
    },
    {
      "midi": 66,
      "hit": false,
      "t": 52492.1875,
      "d": 2859.375,
      "v": 90
    },
    {
      "midi": 59,
      "hit": false,
      "t": 52492.1875,
      "d": 2875,
      "v": 95
    },
    {
      "midi": 62,
      "hit": false,
      "t": 52492.1875,
      "d": 2875,
      "v": 91
    },
    {
      "midi": 71,
      "hit": false,
      "t": 52492.1875,
      "d": 2906.25,
      "v": 94
    },
    {
      "midi": 47,
      "hit": false,
      "t": 52492.1875,
      "d": 3007.8125,
      "v": 87
    },
    {
      "midi": 67,
      "hit": false,
      "t": 56226.5625,
      "d": 3140.625,
      "v": 98
    },
    {
      "midi": 64,
      "hit": false,
      "t": 56226.5625,
      "d": 3164.0625,
      "v": 100
    },
    {
      "midi": 59,
      "hit": false,
      "t": 56226.5625,
      "d": 3195.3125,
      "v": 99
    },
    {
      "midi": 52,
      "hit": false,
      "t": 56234.375,
      "d": 3265.625,
      "v": 91
    },
    {
      "midi": 67,
      "hit": false,
      "t": 58585.9375,
      "d": 281.25,
      "v": 111
    },
    {
      "midi": 69,
      "hit": false,
      "t": 59054.6875,
      "d": 304.6875,
      "v": 109
    },
    {
      "midi": 71,
      "hit": false,
      "t": 59523.4375,
      "d": 250,
      "v": 100
    },
    {
      "midi": 72,
      "hit": false,
      "t": 59992.1875,
      "d": 1492.1875,
      "v": 100
    },
    {
      "midi": 57,
      "hit": false,
      "t": 59992.1875,
      "d": 1132.8125,
      "v": 99
    },
    {
      "midi": 60,
      "hit": false,
      "t": 59992.1875,
      "d": 1148.4375,
      "v": 96
    },
    {
      "midi": 64,
      "hit": false,
      "t": 59992.1875,
      "d": 1164.0625,
      "v": 81
    },
    {
      "midi": 45,
      "hit": false,
      "t": 59992.1875,
      "d": 1195.3125,
      "v": 94
    },
    {
      "midi": 62,
      "hit": false,
      "t": 61859.375,
      "d": 1156.25,
      "v": 99
    },
    {
      "midi": 59,
      "hit": false,
      "t": 61859.375,
      "d": 1164.0625,
      "v": 96
    },
    {
      "midi": 66,
      "hit": false,
      "t": 61859.375,
      "d": 1171.875,
      "v": 92
    },
    {
      "midi": 47,
      "hit": false,
      "t": 61859.375,
      "d": 1335.9375,
      "v": 92
    },
    {
      "midi": 64,
      "hit": false,
      "t": 63734.375,
      "d": 1062.5,
      "v": 103
    },
    {
      "midi": 60,
      "hit": false,
      "t": 63734.375,
      "d": 1078.125,
      "v": 101
    },
    {
      "midi": 48,
      "hit": false,
      "t": 63734.375,
      "d": 1093.75,
      "v": 87
    },
    {
      "midi": 67,
      "hit": false,
      "t": 63742.1875,
      "d": 1054.6875,
      "v": 99
    },
    {
      "midi": 66,
      "hit": false,
      "t": 65609.375,
      "d": 1140.625,
      "v": 94
    },
    {
      "midi": 50,
      "hit": false,
      "t": 65609.375,
      "d": 1179.6875,
      "v": 93
    },
    {
      "midi": 62,
      "hit": false,
      "t": 65609.375,
      "d": 1187.5,
      "v": 100
    },
    {
      "midi": 69,
      "hit": false,
      "t": 65609.375,
      "d": 1187.5,
      "v": 98
    },
    {
      "midi": 67,
      "hit": false,
      "t": 67492.1875,
      "d": 2890.625,
      "v": 95
    },
    {
      "midi": 71,
      "hit": false,
      "t": 67492.1875,
      "d": 2898.4375,
      "v": 93
    },
    {
      "midi": 62,
      "hit": false,
      "t": 67492.1875,
      "d": 2906.25,
      "v": 100
    },
    {
      "midi": 55,
      "hit": false,
      "t": 67507.8125,
      "d": 2984.375,
      "v": 82
    },
    {
      "midi": 66,
      "hit": false,
      "t": 71242.1875,
      "d": 2640.625,
      "v": 91
    },
    {
      "midi": 69,
      "hit": false,
      "t": 71242.1875,
      "d": 2671.875,
      "v": 94
    },
    {
      "midi": 62,
      "hit": false,
      "t": 71242.1875,
      "d": 2695.3125,
      "v": 97
    },
    {
      "midi": 50,
      "hit": false,
      "t": 71242.1875,
      "d": 2757.8125,
      "v": 83
    },
    {
      "midi": 64,
      "hit": false,
      "t": 74976.5625,
      "d": 3265.625,
      "v": 96
    },
    {
      "midi": 60,
      "hit": false,
      "t": 74976.5625,
      "d": 3273.4375,
      "v": 96
    },
    {
      "midi": 67,
      "hit": false,
      "t": 74976.5625,
      "d": 3289.0625,
      "v": 96
    },
    {
      "midi": 48,
      "hit": false,
      "t": 74976.5625,
      "d": 3375,
      "v": 88
    },
    {
      "midi": 79,
      "hit": false,
      "t": 75460.9375,
      "d": 171.875,
      "v": 91
    },
    {
      "midi": 78,
      "hit": false,
      "t": 75929.6875,
      "d": 93.75,
      "v": 61
    },
    {
      "midi": 74,
      "hit": false,
      "t": 76390.625,
      "d": 203.125,
      "v": 92
    },
    {
      "midi": 79,
      "hit": false,
      "t": 77335.9375,
      "d": 187.5,
      "v": 89
    },
    {
      "midi": 78,
      "hit": false,
      "t": 77804.6875,
      "d": 93.75,
      "v": 60
    },
    {
      "midi": 74,
      "hit": false,
      "t": 78273.4375,
      "d": 203.125,
      "v": 95
    },
    {
      "midi": 66,
      "hit": false,
      "t": 78742.1875,
      "d": 2937.5,
      "v": 99
    },
    {
      "midi": 69,
      "hit": false,
      "t": 78742.1875,
      "d": 2976.5625,
      "v": 99
    },
    {
      "midi": 62,
      "hit": false,
      "t": 78742.1875,
      "d": 3000,
      "v": 105
    },
    {
      "midi": 50,
      "hit": false,
      "t": 78742.1875,
      "d": 3039.0625,
      "v": 91
    },
    {
      "midi": 71,
      "hit": false,
      "t": 82492.1875,
      "d": 3062.5,
      "v": 92
    },
    {
      "midi": 62,
      "hit": false,
      "t": 82492.1875,
      "d": 3101.5625,
      "v": 100
    },
    {
      "midi": 55,
      "hit": false,
      "t": 82492.1875,
      "d": 3179.6875,
      "v": 91
    },
    {
      "midi": 67,
      "hit": false,
      "t": 82953.125,
      "d": 2640.625,
      "v": 98
    },
    {
      "midi": 66,
      "hit": false,
      "t": 86242.1875,
      "d": 2937.5,
      "v": 88
    },
    {
      "midi": 69,
      "hit": false,
      "t": 86242.1875,
      "d": 2984.375,
      "v": 94
    },
    {
      "midi": 62,
      "hit": false,
      "t": 86242.1875,
      "d": 3031.25,
      "v": 97
    },
    {
      "midi": 50,
      "hit": false,
      "t": 86242.1875,
      "d": 3054.6875,
      "v": 94
    },
    {
      "midi": 60,
      "hit": false,
      "t": 89992.1875,
      "d": 3125,
      "v": 96
    },
    {
      "midi": 64,
      "hit": false,
      "t": 89992.1875,
      "d": 3140.625,
      "v": 96
    },
    {
      "midi": 67,
      "hit": false,
      "t": 89992.1875,
      "d": 3148.4375,
      "v": 94
    },
    {
      "midi": 48,
      "hit": false,
      "t": 89992.1875,
      "d": 3203.125,
      "v": 92
    },
    {
      "midi": 79,
      "hit": false,
      "t": 90476.5625,
      "d": 156.25,
      "v": 94
    },
    {
      "midi": 78,
      "hit": false,
      "t": 90945.3125,
      "d": 125,
      "v": 75
    },
    {
      "midi": 74,
      "hit": false,
      "t": 91398.4375,
      "d": 234.375,
      "v": 86
    },
    {
      "midi": 79,
      "hit": false,
      "t": 92335.9375,
      "d": 156.25,
      "v": 92
    },
    {
      "midi": 78,
      "hit": false,
      "t": 92804.6875,
      "d": 109.375,
      "v": 75
    },
    {
      "midi": 74,
      "hit": false,
      "t": 93273.4375,
      "d": 140.625,
      "v": 90
    },
    {
      "midi": 62,
      "hit": false,
      "t": 93734.375,
      "d": 2054.6875,
      "v": 103
    },
    {
      "midi": 66,
      "hit": false,
      "t": 93742.1875,
      "d": 2007.8125,
      "v": 97
    },
    {
      "midi": 69,
      "hit": false,
      "t": 93742.1875,
      "d": 2031.25,
      "v": 98
    },
    {
      "midi": 50,
      "hit": false,
      "t": 93742.1875,
      "d": 2085.9375,
      "v": 96
    },
    {
      "midi": 66,
      "hit": false,
      "t": 97492.1875,
      "d": 2859.375,
      "v": 84
    },
    {
      "midi": 71,
      "hit": false,
      "t": 97492.1875,
      "d": 2937.5,
      "v": 98
    },
    {
      "midi": 62,
      "hit": false,
      "t": 97500,
      "d": 2843.75,
      "v": 96
    },
    {
      "midi": 47,
      "hit": false,
      "t": 97500,
      "d": 2953.125,
      "v": 99
    },
    {
      "midi": 59,
      "hit": false,
      "t": 97507.8125,
      "d": 2820.3125,
      "v": 97
    },
    {
      "midi": 67,
      "hit": false,
      "t": 101242.1875,
      "d": 2945.3125,
      "v": 99
    },
    {
      "midi": 64,
      "hit": false,
      "t": 101242.1875,
      "d": 2968.75,
      "v": 100
    },
    {
      "midi": 59,
      "hit": false,
      "t": 101242.1875,
      "d": 2992.1875,
      "v": 100
    },
    {
      "midi": 52,
      "hit": false,
      "t": 101242.1875,
      "d": 3078.125,
      "v": 96
    },
    {
      "midi": 57,
      "hit": false,
      "t": 104992.1875,
      "d": 1101.5625,
      "v": 90
    },
    {
      "midi": 60,
      "hit": false,
      "t": 104992.1875,
      "d": 1140.625,
      "v": 92
    },
    {
      "midi": 64,
      "hit": false,
      "t": 104992.1875,
      "d": 1164.0625,
      "v": 93
    },
    {
      "midi": 45,
      "hit": false,
      "t": 104992.1875,
      "d": 1179.6875,
      "v": 93
    },
    {
      "midi": 59,
      "hit": false,
      "t": 106867.1875,
      "d": 1062.5,
      "v": 94
    },
    {
      "midi": 62,
      "hit": false,
      "t": 106867.1875,
      "d": 1070.3125,
      "v": 96
    },
    {
      "midi": 66,
      "hit": false,
      "t": 106867.1875,
      "d": 1117.1875,
      "v": 88
    },
    {
      "midi": 47,
      "hit": false,
      "t": 106867.1875,
      "d": 1164.0625,
      "v": 85
    },
    {
      "midi": 60,
      "hit": false,
      "t": 108734.375,
      "d": 1039.0625,
      "v": 89
    },
    {
      "midi": 48,
      "hit": false,
      "t": 108734.375,
      "d": 1195.3125,
      "v": 82
    },
    {
      "midi": 64,
      "hit": false,
      "t": 108742.1875,
      "d": 1093.75,
      "v": 87
    },
    {
      "midi": 67,
      "hit": false,
      "t": 108742.1875,
      "d": 1132.8125,
      "v": 73
    },
    {
      "midi": 50,
      "hit": false,
      "t": 110617.1875,
      "d": 1250,
      "v": 90
    },
    {
      "midi": 66,
      "hit": false,
      "t": 110632.8125,
      "d": 1117.1875,
      "v": 94
    },
    {
      "midi": 62,
      "hit": false,
      "t": 110632.8125,
      "d": 1164.0625,
      "v": 96
    },
    {
      "midi": 69,
      "hit": false,
      "t": 110632.8125,
      "d": 1171.875,
      "v": 98
    },
    {
      "midi": 71,
      "hit": false,
      "t": 112492.1875,
      "d": 2890.625,
      "v": 93
    },
    {
      "midi": 67,
      "hit": false,
      "t": 112492.1875,
      "d": 2914.0625,
      "v": 98
    },
    {
      "midi": 62,
      "hit": false,
      "t": 112492.1875,
      "d": 2937.5,
      "v": 101
    },
    {
      "midi": 55,
      "hit": false,
      "t": 112960.9375,
      "d": 2664.0625,
      "v": 85
    },
    {
      "midi": 66,
      "hit": false,
      "t": 116242.1875,
      "d": 2921.875,
      "v": 96
    },
    {
      "midi": 62,
      "hit": false,
      "t": 116242.1875,
      "d": 2968.75,
      "v": 99
    },
    {
      "midi": 69,
      "hit": false,
      "t": 116242.1875,
      "d": 2968.75,
      "v": 96
    },
    {
      "midi": 50,
      "hit": false,
      "t": 116242.1875,
      "d": 3101.5625,
      "v": 88
    },
    {
      "midi": 71,
      "hit": false,
      "t": 119992.1875,
      "d": 3000,
      "v": 90
    },
    {
      "midi": 67,
      "hit": false,
      "t": 119992.1875,
      "d": 3015.625,
      "v": 95
    },
    {
      "midi": 62,
      "hit": false,
      "t": 119992.1875,
      "d": 3039.0625,
      "v": 98
    },
    {
      "midi": 55,
      "hit": false,
      "t": 119992.1875,
      "d": 3070.3125,
      "v": 94
    },
    {
      "midi": 66,
      "hit": false,
      "t": 123742.1875,
      "d": 2671.875,
      "v": 94
    },
    {
      "midi": 69,
      "hit": false,
      "t": 123742.1875,
      "d": 2718.75,
      "v": 100
    },
    {
      "midi": 62,
      "hit": false,
      "t": 123742.1875,
      "d": 2726.5625,
      "v": 99
    },
    {
      "midi": 54,
      "hit": false,
      "t": 123742.1875,
      "d": 2781.25,
      "v": 90
    },
    {
      "midi": 60,
      "hit": false,
      "t": 127484.375,
      "d": 2953.125,
      "v": 98
    },
    {
      "midi": 64,
      "hit": false,
      "t": 127484.375,
      "d": 2992.1875,
      "v": 98
    },
    {
      "midi": 67,
      "hit": false,
      "t": 127484.375,
      "d": 3054.6875,
      "v": 92
    },
    {
      "midi": 48,
      "hit": false,
      "t": 127484.375,
      "d": 3062.5,
      "v": 95
    },
    {
      "midi": 79,
      "hit": false,
      "t": 127976.5625,
      "d": 398.4375,
      "v": 81
    },
    {
      "midi": 78,
      "hit": false,
      "t": 128445.3125,
      "d": 460.9375,
      "v": 71
    },
    {
      "midi": 74,
      "hit": false,
      "t": 128914.0625,
      "d": 945.3125,
      "v": 79
    },
    {
      "midi": 79,
      "hit": false,
      "t": 129851.5625,
      "d": 492.1875,
      "v": 86
    },
    {
      "midi": 78,
      "hit": false,
      "t": 130304.6875,
      "d": 476.5625,
      "v": 79
    },
    {
      "midi": 74,
      "hit": false,
      "t": 130773.4375,
      "d": 2492.1875,
      "v": 52
    },
    {
      "midi": 62,
      "hit": false,
      "t": 131242.1875,
      "d": 3234.375,
      "v": 93
    },
    {
      "midi": 66,
      "hit": false,
      "t": 131242.1875,
      "d": 3289.0625,
      "v": 90
    },
    {
      "midi": 50,
      "hit": false,
      "t": 131242.1875,
      "d": 3304.6875,
      "v": 91
    },
    {
      "midi": 69,
      "hit": false,
      "t": 131242.1875,
      "d": 3312.5,
      "v": 94
    },
    {
      "midi": 43,
      "hit": false,
      "t": 135000,
      "d": 2812.5,
      "v": 86
    },
    {
      "midi": 59,
      "hit": false,
      "t": 135000,
      "d": 2812.5,
      "v": 86
    },
    {
      "midi": 62,
      "hit": false,
      "t": 135000,
      "d": 2812.5,
      "v": 86
    },
    {
      "midi": 67,
      "hit": false,
      "t": 135000,
      "d": 2812.5,
      "v": 86
    },
    {
      "midi": 42,
      "hit": false,
      "t": 138742.1875,
      "d": 1742.1875,
      "v": 88
    },
    {
      "midi": 57,
      "hit": false,
      "t": 138742.1875,
      "d": 1796.875,
      "v": 97
    },
    {
      "midi": 62,
      "hit": false,
      "t": 138742.1875,
      "d": 1820.3125,
      "v": 99
    },
    {
      "midi": 66,
      "hit": false,
      "t": 138742.1875,
      "d": 1843.75,
      "v": 91
    },
    {
      "midi": 60,
      "hit": false,
      "t": 142484.375,
      "d": 2937.5,
      "v": 92
    },
    {
      "midi": 64,
      "hit": false,
      "t": 142484.375,
      "d": 2976.5625,
      "v": 91
    },
    {
      "midi": 67,
      "hit": false,
      "t": 142484.375,
      "d": 2976.5625,
      "v": 91
    },
    {
      "midi": 36,
      "hit": false,
      "t": 142484.375,
      "d": 3078.125,
      "v": 90
    },
    {
      "midi": 69,
      "hit": false,
      "t": 146234.375,
      "d": 2937.5,
      "v": 91
    },
    {
      "midi": 57,
      "hit": false,
      "t": 146234.375,
      "d": 3101.5625,
      "v": 95
    },
    {
      "midi": 66,
      "hit": false,
      "t": 146234.375,
      "d": 3164.0625,
      "v": 78
    },
    {
      "midi": 62,
      "hit": false,
      "t": 146234.375,
      "d": 3171.875,
      "v": 86
    },
    {
      "midi": 38,
      "hit": false,
      "t": 146234.375,
      "d": 3296.875,
      "v": 98
    },
    {
      "midi": 59,
      "hit": false,
      "t": 149992.1875,
      "d": 3195.3125,
      "v": 101
    },
    {
      "midi": 62,
      "hit": false,
      "t": 149992.1875,
      "d": 3226.5625,
      "v": 103
    },
    {
      "midi": 67,
      "hit": false,
      "t": 149992.1875,
      "d": 3226.5625,
      "v": 99
    },
    {
      "midi": 43,
      "hit": false,
      "t": 149992.1875,
      "d": 3421.875,
      "v": 93
    },
    {
      "midi": 69,
      "hit": false,
      "t": 153742.1875,
      "d": 2796.875,
      "v": 98
    },
    {
      "midi": 62,
      "hit": false,
      "t": 153742.1875,
      "d": 2890.625,
      "v": 84
    },
    {
      "midi": 66,
      "hit": false,
      "t": 153742.1875,
      "d": 2890.625,
      "v": 86
    },
    {
      "midi": 57,
      "hit": false,
      "t": 153742.1875,
      "d": 2898.4375,
      "v": 94
    },
    {
      "midi": 50,
      "hit": false,
      "t": 153742.1875,
      "d": 3156.25,
      "v": 96
    },
    {
      "midi": 55,
      "hit": false,
      "t": 157492.1875,
      "d": 2882.8125,
      "v": 91
    },
    {
      "midi": 60,
      "hit": false,
      "t": 157492.1875,
      "d": 2929.6875,
      "v": 81
    },
    {
      "midi": 64,
      "hit": false,
      "t": 157492.1875,
      "d": 2945.3125,
      "v": 76
    },
    {
      "midi": 67,
      "hit": false,
      "t": 157492.1875,
      "d": 2976.5625,
      "v": 83
    },
    {
      "midi": 48,
      "hit": false,
      "t": 157492.1875,
      "d": 3023.4375,
      "v": 85
    },
    {
      "midi": 69,
      "hit": false,
      "t": 161250,
      "d": 2906.25,
      "v": 98
    },
    {
      "midi": 57,
      "hit": false,
      "t": 161250,
      "d": 2929.6875,
      "v": 92
    },
    {
      "midi": 66,
      "hit": false,
      "t": 161250,
      "d": 3132.8125,
      "v": 83
    },
    {
      "midi": 62,
      "hit": false,
      "t": 161265.625,
      "d": 3054.6875,
      "v": 92
    },
    {
      "midi": 50,
      "hit": false,
      "t": 161265.625,
      "d": 3093.75,
      "v": 92
    },
    {
      "midi": 66,
      "hit": false,
      "t": 164992.1875,
      "d": 2859.375,
      "v": 90
    },
    {
      "midi": 59,
      "hit": false,
      "t": 164992.1875,
      "d": 2875,
      "v": 95
    },
    {
      "midi": 62,
      "hit": false,
      "t": 164992.1875,
      "d": 2875,
      "v": 91
    },
    {
      "midi": 71,
      "hit": false,
      "t": 164992.1875,
      "d": 2906.25,
      "v": 94
    },
    {
      "midi": 47,
      "hit": false,
      "t": 164992.1875,
      "d": 3007.8125,
      "v": 87
    },
    {
      "midi": 67,
      "hit": false,
      "t": 168726.5625,
      "d": 3140.625,
      "v": 98
    },
    {
      "midi": 64,
      "hit": false,
      "t": 168726.5625,
      "d": 3164.0625,
      "v": 100
    },
    {
      "midi": 59,
      "hit": false,
      "t": 168726.5625,
      "d": 3195.3125,
      "v": 99
    },
    {
      "midi": 52,
      "hit": false,
      "t": 168734.375,
      "d": 3265.625,
      "v": 91
    },
    {
      "midi": 57,
      "hit": false,
      "t": 172492.1875,
      "d": 1132.8125,
      "v": 99
    },
    {
      "midi": 60,
      "hit": false,
      "t": 172492.1875,
      "d": 1148.4375,
      "v": 96
    },
    {
      "midi": 64,
      "hit": false,
      "t": 172492.1875,
      "d": 1164.0625,
      "v": 81
    },
    {
      "midi": 45,
      "hit": false,
      "t": 172492.1875,
      "d": 1195.3125,
      "v": 94
    },
    {
      "midi": 62,
      "hit": false,
      "t": 174359.375,
      "d": 1156.25,
      "v": 99
    },
    {
      "midi": 59,
      "hit": false,
      "t": 174359.375,
      "d": 1164.0625,
      "v": 96
    },
    {
      "midi": 66,
      "hit": false,
      "t": 174359.375,
      "d": 1171.875,
      "v": 92
    },
    {
      "midi": 47,
      "hit": false,
      "t": 174359.375,
      "d": 1335.9375,
      "v": 92
    },
    {
      "midi": 64,
      "hit": false,
      "t": 176234.375,
      "d": 1062.5,
      "v": 103
    },
    {
      "midi": 60,
      "hit": false,
      "t": 176234.375,
      "d": 1078.125,
      "v": 101
    },
    {
      "midi": 48,
      "hit": false,
      "t": 176234.375,
      "d": 1093.75,
      "v": 87
    },
    {
      "midi": 67,
      "hit": false,
      "t": 176242.1875,
      "d": 1054.6875,
      "v": 99
    },
    {
      "midi": 66,
      "hit": false,
      "t": 178109.375,
      "d": 1140.625,
      "v": 94
    },
    {
      "midi": 50,
      "hit": false,
      "t": 178109.375,
      "d": 1179.6875,
      "v": 93
    },
    {
      "midi": 62,
      "hit": false,
      "t": 178109.375,
      "d": 1187.5,
      "v": 100
    },
    {
      "midi": 69,
      "hit": false,
      "t": 178109.375,
      "d": 1187.5,
      "v": 98
    },
    {
      "midi": 67,
      "hit": false,
      "t": 179992.1875,
      "d": 2890.625,
      "v": 95
    },
    {
      "midi": 71,
      "hit": false,
      "t": 179992.1875,
      "d": 2898.4375,
      "v": 93
    },
    {
      "midi": 62,
      "hit": false,
      "t": 179992.1875,
      "d": 2906.25,
      "v": 100
    },
    {
      "midi": 55,
      "hit": false,
      "t": 180007.8125,
      "d": 2984.375,
      "v": 82
    },
    {
      "midi": 66,
      "hit": false,
      "t": 183742.1875,
      "d": 2640.625,
      "v": 91
    },
    {
      "midi": 69,
      "hit": false,
      "t": 183742.1875,
      "d": 2671.875,
      "v": 94
    },
    {
      "midi": 62,
      "hit": false,
      "t": 183742.1875,
      "d": 2695.3125,
      "v": 97
    },
    {
      "midi": 50,
      "hit": false,
      "t": 183742.1875,
      "d": 2757.8125,
      "v": 83
    },
    {
      "midi": 64,
      "hit": false,
      "t": 187476.5625,
      "d": 3265.625,
      "v": 96
    },
    {
      "midi": 60,
      "hit": false,
      "t": 187476.5625,
      "d": 3273.4375,
      "v": 96
    },
    {
      "midi": 67,
      "hit": false,
      "t": 187476.5625,
      "d": 3289.0625,
      "v": 96
    },
    {
      "midi": 48,
      "hit": false,
      "t": 187476.5625,
      "d": 3375,
      "v": 88
    },
    {
      "midi": 79,
      "hit": false,
      "t": 187960.9375,
      "d": 171.875,
      "v": 91
    },
    {
      "midi": 78,
      "hit": false,
      "t": 188429.6875,
      "d": 93.75,
      "v": 61
    },
    {
      "midi": 74,
      "hit": false,
      "t": 188890.625,
      "d": 203.125,
      "v": 92
    },
    {
      "midi": 79,
      "hit": false,
      "t": 189835.9375,
      "d": 187.5,
      "v": 89
    },
    {
      "midi": 78,
      "hit": false,
      "t": 190304.6875,
      "d": 93.75,
      "v": 60
    },
    {
      "midi": 74,
      "hit": false,
      "t": 190773.4375,
      "d": 203.125,
      "v": 95
    },
    {
      "midi": 66,
      "hit": false,
      "t": 191242.1875,
      "d": 2937.5,
      "v": 99
    },
    {
      "midi": 69,
      "hit": false,
      "t": 191242.1875,
      "d": 2976.5625,
      "v": 99
    },
    {
      "midi": 62,
      "hit": false,
      "t": 191242.1875,
      "d": 3000,
      "v": 105
    },
    {
      "midi": 50,
      "hit": false,
      "t": 191242.1875,
      "d": 3039.0625,
      "v": 91
    },
    {
      "midi": 71,
      "hit": false,
      "t": 194992.1875,
      "d": 3062.5,
      "v": 92
    },
    {
      "midi": 62,
      "hit": false,
      "t": 194992.1875,
      "d": 3101.5625,
      "v": 100
    },
    {
      "midi": 55,
      "hit": false,
      "t": 194992.1875,
      "d": 3179.6875,
      "v": 91
    },
    {
      "midi": 67,
      "hit": false,
      "t": 195453.125,
      "d": 2640.625,
      "v": 98
    },
    {
      "midi": 66,
      "hit": false,
      "t": 198742.1875,
      "d": 2937.5,
      "v": 88
    },
    {
      "midi": 69,
      "hit": false,
      "t": 198742.1875,
      "d": 2984.375,
      "v": 94
    },
    {
      "midi": 62,
      "hit": false,
      "t": 198742.1875,
      "d": 3031.25,
      "v": 97
    },
    {
      "midi": 50,
      "hit": false,
      "t": 198742.1875,
      "d": 3054.6875,
      "v": 94
    },
    {
      "midi": 60,
      "hit": false,
      "t": 202492.1875,
      "d": 3125,
      "v": 96
    },
    {
      "midi": 64,
      "hit": false,
      "t": 202492.1875,
      "d": 3140.625,
      "v": 96
    },
    {
      "midi": 67,
      "hit": false,
      "t": 202492.1875,
      "d": 3148.4375,
      "v": 94
    },
    {
      "midi": 48,
      "hit": false,
      "t": 202492.1875,
      "d": 3203.125,
      "v": 92
    },
    {
      "midi": 79,
      "hit": false,
      "t": 202976.5625,
      "d": 156.25,
      "v": 94
    },
    {
      "midi": 78,
      "hit": false,
      "t": 203445.3125,
      "d": 125,
      "v": 75
    },
    {
      "midi": 74,
      "hit": false,
      "t": 203898.4375,
      "d": 234.375,
      "v": 86
    },
    {
      "midi": 79,
      "hit": false,
      "t": 204835.9375,
      "d": 156.25,
      "v": 92
    },
    {
      "midi": 78,
      "hit": false,
      "t": 205304.6875,
      "d": 109.375,
      "v": 75
    },
    {
      "midi": 74,
      "hit": false,
      "t": 205773.4375,
      "d": 140.625,
      "v": 90
    },
    {
      "midi": 62,
      "hit": false,
      "t": 206234.375,
      "d": 2054.6875,
      "v": 103
    },
    {
      "midi": 66,
      "hit": false,
      "t": 206242.1875,
      "d": 2007.8125,
      "v": 97
    },
    {
      "midi": 69,
      "hit": false,
      "t": 206242.1875,
      "d": 2031.25,
      "v": 98
    },
    {
      "midi": 50,
      "hit": false,
      "t": 206242.1875,
      "d": 2085.9375,
      "v": 96
    },
    {
      "midi": 66,
      "hit": false,
      "t": 209992.1875,
      "d": 2859.375,
      "v": 84
    },
    {
      "midi": 71,
      "hit": false,
      "t": 209992.1875,
      "d": 2937.5,
      "v": 98
    },
    {
      "midi": 62,
      "hit": false,
      "t": 210000,
      "d": 2843.75,
      "v": 96
    },
    {
      "midi": 47,
      "hit": false,
      "t": 210000,
      "d": 2953.125,
      "v": 99
    },
    {
      "midi": 59,
      "hit": false,
      "t": 210007.8125,
      "d": 2820.3125,
      "v": 97
    },
    {
      "midi": 67,
      "hit": false,
      "t": 213742.1875,
      "d": 2945.3125,
      "v": 99
    },
    {
      "midi": 64,
      "hit": false,
      "t": 213742.1875,
      "d": 2968.75,
      "v": 100
    },
    {
      "midi": 59,
      "hit": false,
      "t": 213742.1875,
      "d": 2992.1875,
      "v": 100
    },
    {
      "midi": 52,
      "hit": false,
      "t": 213742.1875,
      "d": 3078.125,
      "v": 96
    },
    {
      "midi": 57,
      "hit": false,
      "t": 217492.1875,
      "d": 1101.5625,
      "v": 90
    },
    {
      "midi": 60,
      "hit": false,
      "t": 217492.1875,
      "d": 1140.625,
      "v": 92
    },
    {
      "midi": 64,
      "hit": false,
      "t": 217492.1875,
      "d": 1164.0625,
      "v": 93
    },
    {
      "midi": 45,
      "hit": false,
      "t": 217492.1875,
      "d": 1179.6875,
      "v": 93
    },
    {
      "midi": 59,
      "hit": false,
      "t": 219367.1875,
      "d": 1062.5,
      "v": 94
    },
    {
      "midi": 62,
      "hit": false,
      "t": 219367.1875,
      "d": 1070.3125,
      "v": 96
    },
    {
      "midi": 66,
      "hit": false,
      "t": 219367.1875,
      "d": 1117.1875,
      "v": 88
    },
    {
      "midi": 47,
      "hit": false,
      "t": 219367.1875,
      "d": 1164.0625,
      "v": 85
    },
    {
      "midi": 60,
      "hit": false,
      "t": 221234.375,
      "d": 1039.0625,
      "v": 89
    },
    {
      "midi": 48,
      "hit": false,
      "t": 221234.375,
      "d": 1195.3125,
      "v": 82
    },
    {
      "midi": 64,
      "hit": false,
      "t": 221242.1875,
      "d": 1093.75,
      "v": 87
    },
    {
      "midi": 67,
      "hit": false,
      "t": 221242.1875,
      "d": 1132.8125,
      "v": 73
    },
    {
      "midi": 50,
      "hit": false,
      "t": 223117.1875,
      "d": 1250,
      "v": 90
    },
    {
      "midi": 66,
      "hit": false,
      "t": 223132.8125,
      "d": 1117.1875,
      "v": 94
    },
    {
      "midi": 62,
      "hit": false,
      "t": 223132.8125,
      "d": 1164.0625,
      "v": 96
    },
    {
      "midi": 69,
      "hit": false,
      "t": 223132.8125,
      "d": 1171.875,
      "v": 98
    },
    {
      "midi": 71,
      "hit": false,
      "t": 224992.1875,
      "d": 2890.625,
      "v": 93
    },
    {
      "midi": 67,
      "hit": false,
      "t": 224992.1875,
      "d": 2914.0625,
      "v": 98
    },
    {
      "midi": 62,
      "hit": false,
      "t": 224992.1875,
      "d": 2937.5,
      "v": 101
    },
    {
      "midi": 55,
      "hit": false,
      "t": 225460.9375,
      "d": 2664.0625,
      "v": 85
    },
    {
      "midi": 66,
      "hit": false,
      "t": 228742.1875,
      "d": 2921.875,
      "v": 96
    },
    {
      "midi": 62,
      "hit": false,
      "t": 228742.1875,
      "d": 2968.75,
      "v": 99
    },
    {
      "midi": 69,
      "hit": false,
      "t": 228742.1875,
      "d": 2968.75,
      "v": 96
    },
    {
      "midi": 50,
      "hit": false,
      "t": 228742.1875,
      "d": 3101.5625,
      "v": 88
    },
    {
      "midi": 52,
      "hit": false,
      "t": 232492.1875,
      "d": 2921.875,
      "v": 105
    },
    {
      "midi": 67,
      "hit": false,
      "t": 232500,
      "d": 2875,
      "v": 107
    },
    {
      "midi": 59,
      "hit": false,
      "t": 232500,
      "d": 2914.0625,
      "v": 110
    },
    {
      "midi": 64,
      "hit": false,
      "t": 232507.8125,
      "d": 2882.8125,
      "v": 107
    },
    {
      "midi": 67,
      "hit": false,
      "t": 236242.1875,
      "d": 3093.75,
      "v": 104
    },
    {
      "midi": 60,
      "hit": false,
      "t": 236242.1875,
      "d": 3101.5625,
      "v": 106
    },
    {
      "midi": 64,
      "hit": false,
      "t": 236242.1875,
      "d": 3101.5625,
      "v": 106
    },
    {
      "midi": 48,
      "hit": false,
      "t": 236242.1875,
      "d": 3390.625,
      "v": 97
    },
    {
      "midi": 57,
      "hit": false,
      "t": 239992.1875,
      "d": 3148.4375,
      "v": 112
    },
    {
      "midi": 66,
      "hit": false,
      "t": 239992.1875,
      "d": 3187.5,
      "v": 99
    },
    {
      "midi": 62,
      "hit": false,
      "t": 239992.1875,
      "d": 3210.9375,
      "v": 111
    },
    {
      "midi": 50,
      "hit": false,
      "t": 239992.1875,
      "d": 3617.1875,
      "v": 97
    },
    {
      "midi": 67,
      "hit": false,
      "t": 243742.1875,
      "d": 1179.6875,
      "v": 106
    },
    {
      "midi": 55,
      "hit": false,
      "t": 243742.1875,
      "d": 1312.5,
      "v": 99
    },
    {
      "midi": 59,
      "hit": false,
      "t": 243750,
      "d": 1148.4375,
      "v": 108
    },
    {
      "midi": 62,
      "hit": false,
      "t": 243757.8125,
      "d": 1101.5625,
      "v": 108
    },
    {
      "midi": 57,
      "hit": false,
      "t": 245617.1875,
      "d": 1023.4375,
      "v": 107
    },
    {
      "midi": 62,
      "hit": false,
      "t": 245617.1875,
      "d": 1070.3125,
      "v": 112
    },
    {
      "midi": 54,
      "hit": false,
      "t": 245617.1875,
      "d": 1078.125,
      "v": 102
    },
    {
      "midi": 66,
      "hit": false,
      "t": 245617.1875,
      "d": 1085.9375,
      "v": 110
    },
    {
      "midi": 52,
      "hit": false,
      "t": 247492.1875,
      "d": 390.625,
      "v": 94
    },
    {
      "midi": 59,
      "hit": false,
      "t": 247492.1875,
      "d": 398.4375,
      "v": 106
    },
    {
      "midi": 64,
      "hit": false,
      "t": 247492.1875,
      "d": 429.6875,
      "v": 107
    },
    {
      "midi": 67,
      "hit": false,
      "t": 247492.1875,
      "d": 429.6875,
      "v": 104
    },
    {
      "midi": 59,
      "hit": false,
      "t": 248429.6875,
      "d": 328.125,
      "v": 100
    },
    {
      "midi": 64,
      "hit": false,
      "t": 248429.6875,
      "d": 351.5625,
      "v": 100
    },
    {
      "midi": 52,
      "hit": false,
      "t": 248429.6875,
      "d": 359.375,
      "v": 93
    },
    {
      "midi": 67,
      "hit": false,
      "t": 248429.6875,
      "d": 367.1875,
      "v": 99
    },
    {
      "midi": 59,
      "hit": false,
      "t": 249367.1875,
      "d": 343.75,
      "v": 96
    },
    {
      "midi": 67,
      "hit": false,
      "t": 249367.1875,
      "d": 351.5625,
      "v": 92
    },
    {
      "midi": 52,
      "hit": false,
      "t": 249367.1875,
      "d": 359.375,
      "v": 96
    },
    {
      "midi": 64,
      "hit": false,
      "t": 249367.1875,
      "d": 359.375,
      "v": 96
    },
    {
      "midi": 59,
      "hit": false,
      "t": 250304.6875,
      "d": 359.375,
      "v": 98
    },
    {
      "midi": 52,
      "hit": false,
      "t": 250304.6875,
      "d": 390.625,
      "v": 99
    },
    {
      "midi": 64,
      "hit": false,
      "t": 250304.6875,
      "d": 414.0625,
      "v": 100
    },
    {
      "midi": 67,
      "hit": false,
      "t": 250304.6875,
      "d": 437.5,
      "v": 95
    },
    {
      "midi": 59,
      "hit": false,
      "t": 251242.1875,
      "d": 320.3125,
      "v": 98
    },
    {
      "midi": 63,
      "hit": false,
      "t": 251242.1875,
      "d": 343.75,
      "v": 97
    },
    {
      "midi": 51,
      "hit": false,
      "t": 251242.1875,
      "d": 351.5625,
      "v": 97
    },
    {
      "midi": 67,
      "hit": false,
      "t": 251242.1875,
      "d": 359.375,
      "v": 98
    },
    {
      "midi": 59,
      "hit": false,
      "t": 252179.6875,
      "d": 359.375,
      "v": 100
    },
    {
      "midi": 63,
      "hit": false,
      "t": 252179.6875,
      "d": 367.1875,
      "v": 100
    },
    {
      "midi": 51,
      "hit": false,
      "t": 252179.6875,
      "d": 390.625,
      "v": 103
    },
    {
      "midi": 67,
      "hit": false,
      "t": 252179.6875,
      "d": 390.625,
      "v": 99
    },
    {
      "midi": 51,
      "hit": false,
      "t": 253117.1875,
      "d": 328.125,
      "v": 100
    },
    {
      "midi": 59,
      "hit": false,
      "t": 253117.1875,
      "d": 343.75,
      "v": 93
    },
    {
      "midi": 63,
      "hit": false,
      "t": 253117.1875,
      "d": 343.75,
      "v": 90
    },
    {
      "midi": 67,
      "hit": false,
      "t": 253117.1875,
      "d": 375,
      "v": 89
    },
    {
      "midi": 59,
      "hit": false,
      "t": 254054.6875,
      "d": 367.1875,
      "v": 99
    },
    {
      "midi": 63,
      "hit": false,
      "t": 254054.6875,
      "d": 375,
      "v": 99
    },
    {
      "midi": 51,
      "hit": false,
      "t": 254054.6875,
      "d": 382.8125,
      "v": 100
    },
    {
      "midi": 67,
      "hit": false,
      "t": 254054.6875,
      "d": 406.25,
      "v": 99
    },
    {
      "midi": 59,
      "hit": false,
      "t": 254992.1875,
      "d": 359.375,
      "v": 93
    },
    {
      "midi": 62,
      "hit": false,
      "t": 254992.1875,
      "d": 375,
      "v": 99
    },
    {
      "midi": 67,
      "hit": false,
      "t": 254992.1875,
      "d": 375,
      "v": 95
    },
    {
      "midi": 50,
      "hit": false,
      "t": 254992.1875,
      "d": 406.25,
      "v": 99
    },
    {
      "midi": 59,
      "hit": false,
      "t": 255921.875,
      "d": 351.5625,
      "v": 91
    },
    {
      "midi": 67,
      "hit": false,
      "t": 255921.875,
      "d": 382.8125,
      "v": 95
    },
    {
      "midi": 62,
      "hit": false,
      "t": 255921.875,
      "d": 398.4375,
      "v": 100
    },
    {
      "midi": 50,
      "hit": false,
      "t": 255921.875,
      "d": 406.25,
      "v": 98
    },
    {
      "midi": 59,
      "hit": false,
      "t": 256859.375,
      "d": 375,
      "v": 84
    },
    {
      "midi": 67,
      "hit": false,
      "t": 256859.375,
      "d": 398.4375,
      "v": 83
    },
    {
      "midi": 62,
      "hit": false,
      "t": 256859.375,
      "d": 414.0625,
      "v": 92
    },
    {
      "midi": 50,
      "hit": false,
      "t": 256859.375,
      "d": 429.6875,
      "v": 95
    },
    {
      "midi": 67,
      "hit": false,
      "t": 257796.875,
      "d": 226.5625,
      "v": 79
    },
    {
      "midi": 62,
      "hit": false,
      "t": 257796.875,
      "d": 281.25,
      "v": 92
    },
    {
      "midi": 59,
      "hit": false,
      "t": 257796.875,
      "d": 296.875,
      "v": 89
    },
    {
      "midi": 49,
      "hit": false,
      "t": 257796.875,
      "d": 898.4375,
      "v": 96
    },
    {
      "midi": 48,
      "hit": false,
      "t": 258750,
      "d": 1875,
      "v": 79
    },
    {
      "midi": 52,
      "hit": false,
      "t": 258750,
      "d": 1875,
      "v": 79
    },
    {
      "midi": 55,
      "hit": false,
      "t": 258750,
      "d": 1875,
      "v": 79
    },
    {
      "midi": 60,
      "hit": false,
      "t": 258750,
      "d": 1875,
      "v": 79
    },
    {
      "midi": 50,
      "hit": false,
      "t": 260625,
      "d": 1875,
      "v": 79
    },
    {
      "midi": 57,
      "hit": false,
      "t": 260625,
      "d": 1875,
      "v": 79
    },
    {
      "midi": 62,
      "hit": false,
      "t": 260625,
      "d": 1875,
      "v": 79
    },
    {
      "midi": 55,
      "hit": false,
      "t": 262492.1875,
      "d": 2890.625,
      "v": 94
    },
    {
      "midi": 59,
      "hit": false,
      "t": 262507.8125,
      "d": 2734.375,
      "v": 101
    },
    {
      "midi": 62,
      "hit": false,
      "t": 262507.8125,
      "d": 2765.625,
      "v": 107
    },
    {
      "midi": 67,
      "hit": false,
      "t": 262507.8125,
      "d": 2781.25,
      "v": 106
    },
    {
      "midi": 69,
      "hit": false,
      "t": 266234.375,
      "d": 2757.8125,
      "v": 98
    },
    {
      "midi": 66,
      "hit": false,
      "t": 266234.375,
      "d": 2835.9375,
      "v": 82
    },
    {
      "midi": 62,
      "hit": false,
      "t": 266234.375,
      "d": 2843.75,
      "v": 97
    },
    {
      "midi": 57,
      "hit": false,
      "t": 266234.375,
      "d": 2867.1875,
      "v": 99
    },
    {
      "midi": 50,
      "hit": false,
      "t": 266234.375,
      "d": 2906.25,
      "v": 96
    },
    {
      "midi": 55,
      "hit": false,
      "t": 269992.1875,
      "d": 3062.5,
      "v": 107
    },
    {
      "midi": 60,
      "hit": false,
      "t": 269992.1875,
      "d": 3062.5,
      "v": 99
    },
    {
      "midi": 64,
      "hit": false,
      "t": 269992.1875,
      "d": 3078.125,
      "v": 99
    },
    {
      "midi": 48,
      "hit": false,
      "t": 269992.1875,
      "d": 3500,
      "v": 98
    },
    {
      "midi": 50,
      "hit": false,
      "t": 273750,
      "d": 234.375,
      "v": 91
    },
    {
      "midi": 54,
      "hit": false,
      "t": 273750,
      "d": 234.375,
      "v": 91
    },
    {
      "midi": 57,
      "hit": false,
      "t": 273750,
      "d": 234.375,
      "v": 91
    },
    {
      "midi": 62,
      "hit": false,
      "t": 273750,
      "d": 234.375,
      "v": 91
    },
    {
      "midi": 57,
      "hit": false,
      "t": 277492.1875,
      "d": 3203.125,
      "v": 98
    },
    {
      "midi": 64,
      "hit": false,
      "t": 277500,
      "d": 3023.4375,
      "v": 106
    },
    {
      "midi": 73,
      "hit": false,
      "t": 277507.8125,
      "d": 2945.3125,
      "v": 99
    },
    {
      "midi": 69,
      "hit": false,
      "t": 277507.8125,
      "d": 2968.75,
      "v": 103
    },
    {
      "midi": 68,
      "hit": false,
      "t": 281234.375,
      "d": 2937.5,
      "v": 96
    },
    {
      "midi": 64,
      "hit": false,
      "t": 281234.375,
      "d": 2960.9375,
      "v": 100
    },
    {
      "midi": 71,
      "hit": false,
      "t": 281234.375,
      "d": 2960.9375,
      "v": 97
    },
    {
      "midi": 52,
      "hit": false,
      "t": 281234.375,
      "d": 3039.0625,
      "v": 99
    },
    {
      "midi": 62,
      "hit": false,
      "t": 284984.375,
      "d": 3054.6875,
      "v": 93
    },
    {
      "midi": 66,
      "hit": false,
      "t": 284984.375,
      "d": 3054.6875,
      "v": 94
    },
    {
      "midi": 69,
      "hit": false,
      "t": 284984.375,
      "d": 3054.6875,
      "v": 90
    },
    {
      "midi": 50,
      "hit": false,
      "t": 284984.375,
      "d": 3390.625,
      "v": 92
    },
    {
      "midi": 59,
      "hit": false,
      "t": 288734.375,
      "d": 3171.875,
      "v": 100
    },
    {
      "midi": 68,
      "hit": false,
      "t": 288734.375,
      "d": 3179.6875,
      "v": 94
    },
    {
      "midi": 64,
      "hit": false,
      "t": 288734.375,
      "d": 3234.375,
      "v": 98
    },
    {
      "midi": 52,
      "hit": false,
      "t": 288734.375,
      "d": 3500,
      "v": 92
    },
    {
      "midi": 57,
      "hit": false,
      "t": 292500,
      "d": 2968.75,
      "v": 93
    },
    {
      "midi": 61,
      "hit": false,
      "t": 292500,
      "d": 3070.3125,
      "v": 100
    },
    {
      "midi": 64,
      "hit": false,
      "t": 292507.8125,
      "d": 3046.875,
      "v": 100
    },
    {
      "midi": 69,
      "hit": false,
      "t": 292507.8125,
      "d": 3156.25,
      "v": 99
    },
    {
      "midi": 64,
      "hit": false,
      "t": 296242.1875,
      "d": 2992.1875,
      "v": 98
    },
    {
      "midi": 68,
      "hit": false,
      "t": 296242.1875,
      "d": 3000,
      "v": 91
    },
    {
      "midi": 59,
      "hit": false,
      "t": 296242.1875,
      "d": 3046.875,
      "v": 99
    },
    {
      "midi": 52,
      "hit": false,
      "t": 296242.1875,
      "d": 3148.4375,
      "v": 97
    },
    {
      "midi": 57,
      "hit": false,
      "t": 299984.375,
      "d": 3039.0625,
      "v": 98
    },
    {
      "midi": 62,
      "hit": false,
      "t": 299984.375,
      "d": 3062.5,
      "v": 91
    },
    {
      "midi": 66,
      "hit": false,
      "t": 299984.375,
      "d": 3093.75,
      "v": 92
    },
    {
      "midi": 50,
      "hit": false,
      "t": 299984.375,
      "d": 3218.75,
      "v": 92
    },
    {
      "midi": 59,
      "hit": false,
      "t": 303734.375,
      "d": 3054.6875,
      "v": 100
    },
    {
      "midi": 68,
      "hit": false,
      "t": 303734.375,
      "d": 3085.9375,
      "v": 91
    },
    {
      "midi": 64,
      "hit": false,
      "t": 303734.375,
      "d": 3101.5625,
      "v": 97
    },
    {
      "midi": 52,
      "hit": false,
      "t": 303734.375,
      "d": 3226.5625,
      "v": 89
    },
    {
      "midi": 64,
      "hit": false,
      "t": 307492.1875,
      "d": 3078.125,
      "v": 98
    },
    {
      "midi": 61,
      "hit": false,
      "t": 307492.1875,
      "d": 3101.5625,
      "v": 99
    },
    {
      "midi": 69,
      "hit": false,
      "t": 307492.1875,
      "d": 3156.25,
      "v": 95
    },
    {
      "midi": 57,
      "hit": false,
      "t": 307492.1875,
      "d": 3304.6875,
      "v": 93
    },
    {
      "midi": 64,
      "hit": false,
      "t": 311234.375,
      "d": 2898.4375,
      "v": 96
    },
    {
      "midi": 68,
      "hit": false,
      "t": 311234.375,
      "d": 2921.875,
      "v": 88
    },
    {
      "midi": 59,
      "hit": false,
      "t": 311234.375,
      "d": 3031.25,
      "v": 96
    },
    {
      "midi": 52,
      "hit": false,
      "t": 311234.375,
      "d": 3117.1875,
      "v": 95
    },
    {
      "midi": 66,
      "hit": false,
      "t": 314984.375,
      "d": 3023.4375,
      "v": 83
    },
    {
      "midi": 50,
      "hit": false,
      "t": 314984.375,
      "d": 3554.6875,
      "v": 96
    },
    {
      "midi": 57,
      "hit": false,
      "t": 314992.1875,
      "d": 2953.125,
      "v": 94
    },
    {
      "midi": 62,
      "hit": false,
      "t": 314992.1875,
      "d": 3000,
      "v": 93
    },
    {
      "midi": 81,
      "hit": false,
      "t": 315460.9375,
      "d": 171.875,
      "v": 97
    },
    {
      "midi": 80,
      "hit": false,
      "t": 315921.875,
      "d": 312.5,
      "v": 94
    },
    {
      "midi": 76,
      "hit": false,
      "t": 316398.4375,
      "d": 703.125,
      "v": 103
    },
    {
      "midi": 81,
      "hit": false,
      "t": 317335.9375,
      "d": 398.4375,
      "v": 108
    },
    {
      "midi": 80,
      "hit": false,
      "t": 317796.875,
      "d": 453.125,
      "v": 100
    },
    {
      "midi": 82,
      "hit": false,
      "t": 318273.4375,
      "d": 54.6875,
      "v": 79
    },
    {
      "midi": 76,
      "hit": false,
      "t": 318273.4375,
      "d": 2015.625,
      "v": 112
    },
    {
      "midi": 68,
      "hit": false,
      "t": 318742.1875,
      "d": 3000,
      "v": 90
    },
    {
      "midi": 59,
      "hit": false,
      "t": 318742.1875,
      "d": 3023.4375,
      "v": 90
    },
    {
      "midi": 64,
      "hit": false,
      "t": 318742.1875,
      "d": 3062.5,
      "v": 92
    },
    {
      "midi": 52,
      "hit": false,
      "t": 318742.1875,
      "d": 3226.5625,
      "v": 81
    },
    {
      "midi": 64,
      "hit": false,
      "t": 322484.375,
      "d": 3062.5,
      "v": 100
    },
    {
      "midi": 61,
      "hit": false,
      "t": 322484.375,
      "d": 3125,
      "v": 97
    },
    {
      "midi": 69,
      "hit": false,
      "t": 322484.375,
      "d": 3195.3125,
      "v": 94
    },
    {
      "midi": 57,
      "hit": false,
      "t": 322484.375,
      "d": 3328.125,
      "v": 95
    },
    {
      "midi": 68,
      "hit": false,
      "t": 326234.375,
      "d": 3125,
      "v": 86
    },
    {
      "midi": 64,
      "hit": false,
      "t": 326234.375,
      "d": 3140.625,
      "v": 95
    },
    {
      "midi": 59,
      "hit": false,
      "t": 326234.375,
      "d": 3156.25,
      "v": 93
    },
    {
      "midi": 52,
      "hit": false,
      "t": 326234.375,
      "d": 3226.5625,
      "v": 85
    },
    {
      "midi": 57,
      "hit": false,
      "t": 329992.1875,
      "d": 2914.0625,
      "v": 96
    },
    {
      "midi": 62,
      "hit": false,
      "t": 329992.1875,
      "d": 2960.9375,
      "v": 91
    },
    {
      "midi": 66,
      "hit": false,
      "t": 329992.1875,
      "d": 2984.375,
      "v": 88
    },
    {
      "midi": 50,
      "hit": false,
      "t": 329992.1875,
      "d": 3406.25,
      "v": 91
    },
    {
      "midi": 81,
      "hit": false,
      "t": 330460.9375,
      "d": 445.3125,
      "v": 104
    },
    {
      "midi": 80,
      "hit": false,
      "t": 330929.6875,
      "d": 421.875,
      "v": 99
    },
    {
      "midi": 76,
      "hit": false,
      "t": 331398.4375,
      "d": 851.5625,
      "v": 111
    },
    {
      "midi": 82,
      "hit": false,
      "t": 331414.0625,
      "d": 46.875,
      "v": 53
    },
    {
      "midi": 81,
      "hit": false,
      "t": 332335.9375,
      "d": 539.0625,
      "v": 112
    },
    {
      "midi": 80,
      "hit": false,
      "t": 332804.6875,
      "d": 382.8125,
      "v": 104
    },
    {
      "midi": 76,
      "hit": false,
      "t": 333273.4375,
      "d": 2554.6875,
      "v": 112
    },
    {
      "midi": 64,
      "hit": false,
      "t": 333742.1875,
      "d": 2898.4375,
      "v": 99
    },
    {
      "midi": 59,
      "hit": false,
      "t": 333742.1875,
      "d": 2906.25,
      "v": 98
    },
    {
      "midi": 68,
      "hit": false,
      "t": 333742.1875,
      "d": 2914.0625,
      "v": 91
    },
    {
      "midi": 52,
      "hit": false,
      "t": 333742.1875,
      "d": 3000,
      "v": 91
    },
    {
      "midi": 49,
      "hit": false,
      "t": 337500,
      "d": 937.5,
      "v": 100
    },
    {
      "midi": 56,
      "hit": false,
      "t": 337500,
      "d": 937.5,
      "v": 100
    },
    {
      "midi": 61,
      "hit": false,
      "t": 337500,
      "d": 937.5,
      "v": 100
    },
    {
      "midi": 64,
      "hit": false,
      "t": 337500,
      "d": 937.5,
      "v": 100
    },
    {
      "midi": 66,
      "hit": false,
      "t": 341242.1875,
      "d": 2875,
      "v": 94
    },
    {
      "midi": 61,
      "hit": false,
      "t": 341242.1875,
      "d": 2914.0625,
      "v": 94
    },
    {
      "midi": 54,
      "hit": false,
      "t": 341250,
      "d": 3078.125,
      "v": 91
    },
    {
      "midi": 69,
      "hit": false,
      "t": 341257.8125,
      "d": 2843.75,
      "v": 90
    },
    {
      "midi": 59,
      "hit": false,
      "t": 344992.1875,
      "d": 1070.3125,
      "v": 91
    },
    {
      "midi": 62,
      "hit": false,
      "t": 344992.1875,
      "d": 1156.25,
      "v": 91
    },
    {
      "midi": 66,
      "hit": false,
      "t": 344992.1875,
      "d": 1171.875,
      "v": 91
    },
    {
      "midi": 47,
      "hit": false,
      "t": 344992.1875,
      "d": 1179.6875,
      "v": 94
    },
    {
      "midi": 61,
      "hit": false,
      "t": 346867.1875,
      "d": 1007.8125,
      "v": 94
    },
    {
      "midi": 64,
      "hit": false,
      "t": 346867.1875,
      "d": 1031.25,
      "v": 97
    },
    {
      "midi": 68,
      "hit": false,
      "t": 346867.1875,
      "d": 1039.0625,
      "v": 87
    },
    {
      "midi": 49,
      "hit": false,
      "t": 346867.1875,
      "d": 1085.9375,
      "v": 83
    },
    {
      "midi": 62,
      "hit": false,
      "t": 348742.1875,
      "d": 992.1875,
      "v": 88
    },
    {
      "midi": 66,
      "hit": false,
      "t": 348742.1875,
      "d": 1023.4375,
      "v": 94
    },
    {
      "midi": 50,
      "hit": false,
      "t": 348742.1875,
      "d": 1093.75,
      "v": 87
    },
    {
      "midi": 69,
      "hit": false,
      "t": 348750,
      "d": 1000,
      "v": 93
    },
    {
      "midi": 59,
      "hit": false,
      "t": 350617.1875,
      "d": 1031.25,
      "v": 86
    },
    {
      "midi": 64,
      "hit": false,
      "t": 350617.1875,
      "d": 1054.6875,
      "v": 90
    },
    {
      "midi": 68,
      "hit": false,
      "t": 350617.1875,
      "d": 1062.5,
      "v": 85
    },
    {
      "midi": 52,
      "hit": false,
      "t": 350632.8125,
      "d": 1109.375,
      "v": 87
    },
    {
      "midi": 57,
      "hit": false,
      "t": 352492.1875,
      "d": 2851.5625,
      "v": 81
    },
    {
      "midi": 64,
      "hit": false,
      "t": 352492.1875,
      "d": 2953.125,
      "v": 97
    },
    {
      "midi": 61,
      "hit": false,
      "t": 352492.1875,
      "d": 2984.375,
      "v": 96
    },
    {
      "midi": 69,
      "hit": false,
      "t": 352492.1875,
      "d": 3117.1875,
      "v": 97
    },
    {
      "midi": 59,
      "hit": false,
      "t": 356234.375,
      "d": 2828.125,
      "v": 99
    },
    {
      "midi": 68,
      "hit": false,
      "t": 356234.375,
      "d": 2875,
      "v": 90
    },
    {
      "midi": 64,
      "hit": false,
      "t": 356234.375,
      "d": 2882.8125,
      "v": 96
    },
    {
      "midi": 52,
      "hit": false,
      "t": 356234.375,
      "d": 3007.8125,
      "v": 91
    },
    {
      "midi": 69,
      "hit": false,
      "t": 359992.1875,
      "d": 3195.3125,
      "v": 83
    },
    {
      "midi": 61,
      "hit": false,
      "t": 359992.1875,
      "d": 3242.1875,
      "v": 77
    },
    {
      "midi": 66,
      "hit": false,
      "t": 359992.1875,
      "d": 3242.1875,
      "v": 80
    },
    {
      "midi": 54,
      "hit": false,
      "t": 359992.1875,
      "d": 3289.0625,
      "v": 82
    },
    {
      "midi": 69,
      "hit": false,
      "t": 363742.1875,
      "d": 1171.875,
      "v": 84
    },
    {
      "midi": 66,
      "hit": false,
      "t": 363742.1875,
      "d": 1203.125,
      "v": 83
    },
    {
      "midi": 62,
      "hit": false,
      "t": 363742.1875,
      "d": 1210.9375,
      "v": 78
    },
    {
      "midi": 50,
      "hit": false,
      "t": 363742.1875,
      "d": 1312.5,
      "v": 78
    },
    {
      "midi": 59,
      "hit": false,
      "t": 365617.1875,
      "d": 937.5,
      "v": 72
    },
    {
      "midi": 68,
      "hit": false,
      "t": 365617.1875,
      "d": 1007.8125,
      "v": 72
    },
    {
      "midi": 64,
      "hit": false,
      "t": 365617.1875,
      "d": 1015.625,
      "v": 74
    },
    {
      "midi": 52,
      "hit": false,
      "t": 365617.1875,
      "d": 1093.75,
      "v": 72
    },
    {
      "midi": 69,
      "hit": false,
      "t": 367492.1875,
      "d": 5726.5625,
      "v": 78
    },
    {
      "midi": 61,
      "hit": false,
      "t": 367500,
      "d": 5554.6875,
      "v": 77
    },
    {
      "midi": 57,
      "hit": false,
      "t": 367500,
      "d": 5937.5,
      "v": 81
    },
    {
      "midi": 64,
      "hit": false,
      "t": 367507.8125,
      "d": 5625,
      "v": 86
    }
  ]
}