{
  "jsonPath": "Rock/Progressive Electro House/Chocolate Puma/another-day-dub-mix.json",
  "path": "Rock\\Progressive Electro House\\Chocolate Puma\\Another Day (Dub Mix).mid",
  "name": "Another Day (Dub Mix)",
  "difficulty": "Intermediate",
  "bpm": 89.00004005001803,
  "notes": [
    {
      "midi": 74,
      "hit": false,
      "t": 0,
      "d": 337.07849999999996,
      "v": 127
    },
    {
      "midi": 50,
      "hit": false,
      "t": 0,
      "d": 1348.3139999999999,
      "v": 127
    },
    {
      "midi": 69,
      "hit": false,
      "t": 337.07849999999996,
      "d": 337.07849999999996,
      "v": 127
    },
    {
      "midi": 74,
      "hit": false,
      "t": 674.1569999999999,
      "d": 337.07849999999996,
      "v": 127
    },
    {
      "midi": 69,
      "hit": false,
      "t": 1011.2354999999999,
      "d": 337.07849999999996,
      "v": 127
    },
    {
      "midi": 74,
      "hit": false,
      "t": 1348.3139999999999,
      "d": 337.0785000000001,
      "v": 127
    },
    {
      "midi": 50,
      "hit": false,
      "t": 1348.3139999999999,
      "d": 1348.3140000000003,
      "v": 127
    },
    {
      "midi": 69,
      "hit": false,
      "t": 1685.3925,
      "d": 337.0785000000001,
      "v": 127
    },
    {
      "midi": 74,
      "hit": false,
      "t": 2022.471,
      "d": 337.0785000000001,
      "v": 127
    },
    {
      "midi": 69,
      "hit": false,
      "t": 2359.5495,
      "d": 337.0785000000001,
      "v": 127
    },
    {
      "midi": 74,
      "hit": false,
      "t": 2696.628,
      "d": 337.0785000000001,
      "v": 127
    },
    {
      "midi": 50,
      "hit": false,
      "t": 2696.628,
      "d": 561.7975000000001,
      "v": 127
    },
    {
      "midi": 69,
      "hit": false,
      "t": 3033.7065000000002,
      "d": 337.0785000000001,
      "v": 127
    },
    {
      "midi": 50,
      "hit": false,
      "t": 3258.4255000000003,
      "d": 112.35950000000003,
      "v": 127
    },
    {
      "midi": 74,
      "hit": false,
      "t": 3370.7850000000003,
      "d": 337.0785000000001,
      "v": 127
    },
    {
      "midi": 50,
      "hit": false,
      "t": 3370.7850000000003,
      "d": 561.7975000000001,
      "v": 127
    },
    {
      "midi": 69,
      "hit": false,
      "t": 3707.8635000000004,
      "d": 337.0785000000001,
      "v": 127
    },
    {
      "midi": 50,
      "hit": false,
      "t": 3932.5825000000004,
      "d": 112.35950000000003,
      "v": 127
    },
    {
      "midi": 74,
      "hit": false,
      "t": 4044.9420000000005,
      "d": 337.0785000000001,
      "v": 127
    },
    {
      "midi": 50,
      "hit": false,
      "t": 4044.9420000000005,
      "d": 561.7975000000001,
      "v": 127
    },
    {
      "midi": 69,
      "hit": false,
      "t": 4382.0205000000005,
      "d": 337.0784999999996,
      "v": 127
    },
    {
      "midi": 50,
      "hit": false,
      "t": 4606.739500000001,
      "d": 112.35949999999957,
      "v": 127
    },
    {
      "midi": 74,
      "hit": false,
      "t": 4719.099,
      "d": 337.0784999999996,
      "v": 127
    },
    {
      "midi": 50,
      "hit": false,
      "t": 4719.099,
      "d": 561.7974999999997,
      "v": 127
    },
    {
      "midi": 69,
      "hit": false,
      "t": 5056.1775,
      "d": 337.0784999999996,
      "v": 127
    },
    {
      "midi": 50,
      "hit": false,
      "t": 5280.8965,
      "d": 112.35949999999957,
      "v": 127
    },
    {
      "midi": 74,
      "hit": false,
      "t": 5393.255999999999,
      "d": 337.0784999999996,
      "v": 127
    },
    {
      "midi": 50,
      "hit": false,
      "t": 5393.255999999999,
      "d": 2359.5494999999974,
      "v": 127
    },
    {
      "midi": 69,
      "hit": false,
      "t": 5730.334499999999,
      "d": 337.0784999999996,
      "v": 127
    },
    {
      "midi": 74,
      "hit": false,
      "t": 6067.412999999999,
      "d": 337.0784999999996,
      "v": 127
    },
    {
      "midi": 69,
      "hit": false,
      "t": 6404.491499999998,
      "d": 337.0784999999996,
      "v": 127
    },
    {
      "midi": 76,
      "hit": false,
      "t": 6741.569999999998,
      "d": 337.0784999999996,
      "v": 127
    },
    {
      "midi": 69,
      "hit": false,
      "t": 7078.6484999999975,
      "d": 337.0784999999996,
      "v": 127
    },
    {
      "midi": 76,
      "hit": false,
      "t": 7415.726999999997,
      "d": 337.0784999999996,
      "v": 127
    },
    {
      "midi": 45,
      "hit": false,
      "t": 7752.805499999997,
      "d": 337.0784999999996,
      "v": 127
    },
    {
      "midi": 69,
      "hit": false,
      "t": 7752.805499999997,
      "d": 337.0784999999996,
      "v": 127
    },
    {
      "midi": 77,
      "hit": false,
      "t": 8089.883999999996,
      "d": 337.0784999999996,
      "v": 127
    },
    {
      "midi": 50,
      "hit": false,
      "t": 8089.883999999996,
      "d": 2528.088749999997,
      "v": 127
    },
    {
      "midi": 69,
      "hit": false,
      "t": 8426.962499999996,
      "d": 337.0784999999996,
      "v": 127
    },
    {
      "midi": 77,
      "hit": false,
      "t": 8764.040999999996,
      "d": 337.0784999999996,
      "v": 127
    },
    {
      "midi": 69,
      "hit": false,
      "t": 9101.119499999995,
      "d": 337.0784999999996,
      "v": 127
    },
    {
      "midi": 76,
      "hit": false,
      "t": 9438.197999999995,
      "d": 337.0784999999996,
      "v": 127
    },
    {
      "midi": 77,
      "hit": false,
      "t": 9775.276499999994,
      "d": 337.0784999999996,
      "v": 127
    },
    {
      "midi": 76,
      "hit": false,
      "t": 10112.354999999994,
      "d": 337.0784999999996,
      "v": 127
    },
    {
      "midi": 69,
      "hit": false,
      "t": 10449.433499999994,
      "d": 337.0784999999996,
      "v": 127
    },
    {
      "midi": 74,
      "hit": false,
      "t": 10786.511999999993,
      "d": 337.0784999999996,
      "v": 127
    },
    {
      "midi": 50,
      "hit": false,
      "t": 10786.511999999993,
      "d": 2359.5494999999974,
      "v": 127
    },
    {
      "midi": 69,
      "hit": false,
      "t": 11123.590499999993,
      "d": 337.0784999999996,
      "v": 127
    },
    {
      "midi": 74,
      "hit": false,
      "t": 11460.668999999993,
      "d": 337.0784999999996,
      "v": 127
    },
    {
      "midi": 69,
      "hit": false,
      "t": 11797.747499999992,
      "d": 337.0784999999996,
      "v": 127
    },
    {
      "midi": 76,
      "hit": false,
      "t": 12134.825999999992,
      "d": 337.0784999999996,
      "v": 127
    },
    {
      "midi": 69,
      "hit": false,
      "t": 12471.904499999991,
      "d": 337.0784999999996,
      "v": 127
    },
    {
      "midi": 76,
      "hit": false,
      "t": 12808.982999999991,
      "d": 337.0784999999996,
      "v": 127
    },
    {
      "midi": 45,
      "hit": false,
      "t": 13146.06149999999,
      "d": 337.0784999999996,
      "v": 127
    },
    {
      "midi": 69,
      "hit": false,
      "t": 13146.06149999999,
      "d": 337.0784999999996,
      "v": 127
    },
    {
      "midi": 77,
      "hit": false,
      "t": 13483.13999999999,
      "d": 337.0784999999996,
      "v": 127
    },
    {
      "midi": 50,
      "hit": false,
      "t": 13483.13999999999,
      "d": 2528.088749999997,
      "v": 127
    },
    {
      "midi": 69,
      "hit": false,
      "t": 13820.21849999999,
      "d": 337.0784999999996,
      "v": 127
    },
    {
      "midi": 77,
      "hit": false,
      "t": 14157.29699999999,
      "d": 337.0784999999996,
      "v": 127
    },
    {
      "midi": 69,
      "hit": false,
      "t": 14494.37549999999,
      "d": 337.0784999999996,
      "v": 127
    },
    {
      "midi": 76,
      "hit": false,
      "t": 14831.453999999989,
      "d": 337.0784999999996,
      "v": 127
    },
    {
      "midi": 77,
      "hit": false,
      "t": 15168.532499999988,
      "d": 337.0784999999996,
      "v": 127
    },
    {
      "midi": 76,
      "hit": false,
      "t": 15505.610999999988,
      "d": 337.0784999999996,
      "v": 127
    },
    {
      "midi": 69,
      "hit": false,
      "t": 15842.689499999988,
      "d": 337.0784999999996,
      "v": 127
    },
    {
      "midi": 74,
      "hit": false,
      "t": 16179.767999999987,
      "d": 337.07850000000144,
      "v": 127
    },
    {
      "midi": 50,
      "hit": false,
      "t": 16179.767999999987,
      "d": 2359.549499999999,
      "v": 127
    },
    {
      "midi": 69,
      "hit": false,
      "t": 16516.84649999999,
      "d": 337.0784999999996,
      "v": 127
    },
    {
      "midi": 74,
      "hit": false,
      "t": 16853.92499999999,
      "d": 337.0784999999996,
      "v": 127
    },
    {
      "midi": 69,
      "hit": false,
      "t": 17191.003499999988,
      "d": 337.0784999999996,
      "v": 127
    },
    {
      "midi": 76,
      "hit": false,
      "t": 17528.081999999988,
      "d": 337.0784999999996,
      "v": 127
    },
    {
      "midi": 69,
      "hit": false,
      "t": 17865.160499999987,
      "d": 337.0784999999996,
      "v": 127
    },
    {
      "midi": 76,
      "hit": false,
      "t": 18202.238999999987,
      "d": 337.0784999999996,
      "v": 127
    },
    {
      "midi": 45,
      "hit": false,
      "t": 18539.317499999986,
      "d": 337.0784999999996,
      "v": 127
    },
    {
      "midi": 69,
      "hit": false,
      "t": 18539.317499999986,
      "d": 337.0784999999996,
      "v": 127
    },
    {
      "midi": 77,
      "hit": false,
      "t": 18876.395999999986,
      "d": 337.0784999999996,
      "v": 127
    },
    {
      "midi": 50,
      "hit": false,
      "t": 18876.395999999986,
      "d": 2528.088749999999,
      "v": 127
    },
    {
      "midi": 69,
      "hit": false,
      "t": 19213.474499999986,
      "d": 337.0784999999996,
      "v": 127
    },
    {
      "midi": 77,
      "hit": false,
      "t": 19550.552999999985,
      "d": 337.0784999999996,
      "v": 127
    },
    {
      "midi": 69,
      "hit": false,
      "t": 19887.631499999985,
      "d": 337.0784999999996,
      "v": 127
    },
    {
      "midi": 76,
      "hit": false,
      "t": 20224.709999999985,
      "d": 337.0784999999996,
      "v": 127
    },
    {
      "midi": 77,
      "hit": false,
      "t": 20561.788499999984,
      "d": 337.0784999999996,
      "v": 127
    },
    {
      "midi": 76,
      "hit": false,
      "t": 20898.866999999984,
      "d": 337.0784999999996,
      "v": 127
    },
    {
      "midi": 69,
      "hit": false,
      "t": 21235.945499999983,
      "d": 337.07850000000326,
      "v": 127
    },
    {
      "midi": 74,
      "hit": false,
      "t": 21573.023999999987,
      "d": 337.0784999999996,
      "v": 127
    },
    {
      "midi": 50,
      "hit": false,
      "t": 21573.023999999987,
      "d": 2359.5494999999974,
      "v": 127
    },
    {
      "midi": 69,
      "hit": false,
      "t": 21910.102499999986,
      "d": 337.0784999999996,
      "v": 127
    },
    {
      "midi": 74,
      "hit": false,
      "t": 22247.180999999986,
      "d": 337.0784999999996,
      "v": 127
    },
    {
      "midi": 69,
      "hit": false,
      "t": 22584.259499999986,
      "d": 337.0784999999996,
      "v": 127
    },
    {
      "midi": 76,
      "hit": false,
      "t": 22921.337999999985,
      "d": 337.0784999999996,
      "v": 127
    },
    {
      "midi": 69,
      "hit": false,
      "t": 23258.416499999985,
      "d": 337.0784999999996,
      "v": 127
    },
    {
      "midi": 76,
      "hit": false,
      "t": 23595.494999999984,
      "d": 337.0784999999996,
      "v": 127
    },
    {
      "midi": 45,
      "hit": false,
      "t": 23932.573499999984,
      "d": 337.0784999999996,
      "v": 127
    },
    {
      "midi": 69,
      "hit": false,
      "t": 23932.573499999984,
      "d": 337.0784999999996,
      "v": 127
    },
    {
      "midi": 77,
      "hit": false,
      "t": 24269.651999999984,
      "d": 337.0784999999996,
      "v": 127
    },
    {
      "midi": 50,
      "hit": false,
      "t": 24269.651999999984,
      "d": 2528.088749999999,
      "v": 127
    },
    {
      "midi": 69,
      "hit": false,
      "t": 24606.730499999983,
      "d": 337.0784999999996,
      "v": 127
    },
    {
      "midi": 77,
      "hit": false,
      "t": 24943.808999999983,
      "d": 337.0784999999996,
      "v": 127
    },
    {
      "midi": 69,
      "hit": false,
      "t": 25280.887499999983,
      "d": 337.0784999999996,
      "v": 127
    },
    {
      "midi": 76,
      "hit": false,
      "t": 25617.965999999982,
      "d": 337.0784999999996,
      "v": 127
    },
    {
      "midi": 77,
      "hit": false,
      "t": 25955.04449999998,
      "d": 337.0784999999996,
      "v": 127
    },
    {
      "midi": 76,
      "hit": false,
      "t": 26292.12299999998,
      "d": 337.0784999999996,
      "v": 127
    },
    {
      "midi": 69,
      "hit": false,
      "t": 26629.20149999998,
      "d": 337.07850000000326,
      "v": 127
    },
    {
      "midi": 74,
      "hit": false,
      "t": 26966.279999999984,
      "d": 337.0784999999996,
      "v": 127
    },
    {
      "midi": 50,
      "hit": false,
      "t": 26966.279999999984,
      "d": 2359.5494999999974,
      "v": 127
    },
    {
      "midi": 69,
      "hit": false,
      "t": 27303.358499999984,
      "d": 337.0784999999996,
      "v": 127
    },
    {
      "midi": 74,
      "hit": false,
      "t": 27640.436999999984,
      "d": 337.0784999999996,
      "v": 127
    },
    {
      "midi": 69,
      "hit": false,
      "t": 27977.515499999983,
      "d": 337.0784999999996,
      "v": 127
    },
    {
      "midi": 76,
      "hit": false,
      "t": 28314.593999999983,
      "d": 337.0784999999996,
      "v": 127
    },
    {
      "midi": 69,
      "hit": false,
      "t": 28651.672499999982,
      "d": 337.0784999999996,
      "v": 127
    },
    {
      "midi": 76,
      "hit": false,
      "t": 28988.750999999982,
      "d": 337.0784999999996,
      "v": 127
    },
    {
      "midi": 45,
      "hit": false,
      "t": 29325.82949999998,
      "d": 337.0784999999996,
      "v": 127
    },
    {
      "midi": 69,
      "hit": false,
      "t": 29325.82949999998,
      "d": 337.0784999999996,
      "v": 127
    },
    {
      "midi": 77,
      "hit": false,
      "t": 29662.90799999998,
      "d": 337.0784999999996,
      "v": 127
    },
    {
      "midi": 50,
      "hit": false,
      "t": 29662.90799999998,
      "d": 2528.088749999999,
      "v": 127
    },
    {
      "midi": 69,
      "hit": false,
      "t": 29999.98649999998,
      "d": 337.0784999999996,
      "v": 127
    },
    {
      "midi": 77,
      "hit": false,
      "t": 30337.06499999998,
      "d": 337.0784999999996,
      "v": 127
    },
    {
      "midi": 69,
      "hit": false,
      "t": 30674.14349999998,
      "d": 337.0784999999996,
      "v": 127
    },
    {
      "midi": 76,
      "hit": false,
      "t": 31011.22199999998,
      "d": 337.0784999999996,
      "v": 127
    },
    {
      "midi": 77,
      "hit": false,
      "t": 31348.30049999998,
      "d": 337.0784999999996,
      "v": 127
    },
    {
      "midi": 76,
      "hit": false,
      "t": 31685.37899999998,
      "d": 337.0784999999996,
      "v": 127
    },
    {
      "midi": 69,
      "hit": false,
      "t": 32022.45749999998,
      "d": 337.07850000000326,
      "v": 127
    },
    {
      "midi": 50,
      "hit": false,
      "t": 32359.535999999982,
      "d": 2359.5494999999974,
      "v": 127
    },
    {
      "midi": 45,
      "hit": false,
      "t": 34719.08549999998,
      "d": 337.07850000000326,
      "v": 127
    },
    {
      "midi": 50,
      "hit": false,
      "t": 35056.16399999998,
      "d": 2528.0887500000026,
      "v": 127
    },
    {
      "midi": 74,
      "hit": false,
      "t": 37752.79199999999,
      "d": 337.07850000000326,
      "v": 127
    },
    {
      "midi": 50,
      "hit": false,
      "t": 37752.79199999999,
      "d": 2359.549500000023,
      "v": 127
    },
    {
      "midi": 69,
      "hit": false,
      "t": 38089.87049999999,
      "d": 337.07850000000326,
      "v": 127
    },
    {
      "midi": 74,
      "hit": false,
      "t": 38426.94899999999,
      "d": 337.07850000000326,
      "v": 127
    },
    {
      "midi": 69,
      "hit": false,
      "t": 38764.0275,
      "d": 337.07850000000326,
      "v": 127
    },
    {
      "midi": 76,
      "hit": false,
      "t": 39101.106,
      "d": 337.07850000000326,
      "v": 127
    },
    {
      "midi": 69,
      "hit": false,
      "t": 39438.1845,
      "d": 337.07850000000326,
      "v": 127
    },
    {
      "midi": 76,
      "hit": false,
      "t": 39775.263000000006,
      "d": 337.07850000000326,
      "v": 127
    },
    {
      "midi": 45,
      "hit": false,
      "t": 40112.34150000001,
      "d": 337.07850000000326,
      "v": 127
    },
    {
      "midi": 69,
      "hit": false,
      "t": 40112.34150000001,
      "d": 337.07850000000326,
      "v": 127
    },
    {
      "midi": 77,
      "hit": false,
      "t": 40449.42000000001,
      "d": 337.07850000000326,
      "v": 127
    },
    {
      "midi": 50,
      "hit": false,
      "t": 40449.42000000001,
      "d": 2528.0887500000244,
      "v": 127
    },
    {
      "midi": 69,
      "hit": false,
      "t": 40786.498500000016,
      "d": 337.07850000000326,
      "v": 127
    },
    {
      "midi": 77,
      "hit": false,
      "t": 41123.57700000002,
      "d": 337.07850000000326,
      "v": 127
    },
    {
      "midi": 69,
      "hit": false,
      "t": 41460.65550000002,
      "d": 337.07850000000326,
      "v": 127
    },
    {
      "midi": 76,
      "hit": false,
      "t": 41797.734000000026,
      "d": 337.07850000000326,
      "v": 127
    },
    {
      "midi": 77,
      "hit": false,
      "t": 42134.81250000003,
      "d": 337.07850000000326,
      "v": 127
    },
    {
      "midi": 76,
      "hit": false,
      "t": 42471.89100000003,
      "d": 337.07850000000326,
      "v": 127
    },
    {
      "midi": 69,
      "hit": false,
      "t": 42808.969500000036,
      "d": 337.07850000000326,
      "v": 127
    },
    {
      "midi": 74,
      "hit": false,
      "t": 43146.04800000004,
      "d": 337.07850000000326,
      "v": 127
    },
    {
      "midi": 50,
      "hit": false,
      "t": 43146.04800000004,
      "d": 2359.549500000023,
      "v": 127
    },
    {
      "midi": 69,
      "hit": false,
      "t": 43483.12650000004,
      "d": 337.07850000000326,
      "v": 127
    },
    {
      "midi": 74,
      "hit": false,
      "t": 43820.205000000045,
      "d": 337.07850000000326,
      "v": 127
    },
    {
      "midi": 69,
      "hit": false,
      "t": 44157.28350000005,
      "d": 337.07850000000326,
      "v": 127
    },
    {
      "midi": 76,
      "hit": false,
      "t": 44494.36200000005,
      "d": 337.07850000000326,
      "v": 127
    },
    {
      "midi": 69,
      "hit": false,
      "t": 44831.440500000055,
      "d": 337.07850000000326,
      "v": 127
    },
    {
      "midi": 76,
      "hit": false,
      "t": 45168.51900000006,
      "d": 337.07850000000326,
      "v": 127
    },
    {
      "midi": 45,
      "hit": false,
      "t": 45505.59750000006,
      "d": 337.07850000000326,
      "v": 127
    },
    {
      "midi": 69,
      "hit": false,
      "t": 45505.59750000006,
      "d": 337.07850000000326,
      "v": 127
    },
    {
      "midi": 77,
      "hit": false,
      "t": 45842.676000000065,
      "d": 337.07850000000326,
      "v": 127
    },
    {
      "midi": 50,
      "hit": false,
      "t": 45842.676000000065,
      "d": 2528.0887500000244,
      "v": 127
    },
    {
      "midi": 69,
      "hit": false,
      "t": 46179.75450000007,
      "d": 337.07850000000326,
      "v": 127
    },
    {
      "midi": 77,
      "hit": false,
      "t": 46516.83300000007,
      "d": 337.07850000000326,
      "v": 127
    },
    {
      "midi": 69,
      "hit": false,
      "t": 46853.911500000075,
      "d": 337.07850000000326,
      "v": 127
    },
    {
      "midi": 76,
      "hit": false,
      "t": 47190.99000000008,
      "d": 337.07850000000326,
      "v": 127
    },
    {
      "midi": 77,
      "hit": false,
      "t": 47528.06850000008,
      "d": 337.07850000000326,
      "v": 127
    },
    {
      "midi": 76,
      "hit": false,
      "t": 47865.147000000085,
      "d": 337.07850000000326,
      "v": 127
    },
    {
      "midi": 69,
      "hit": false,
      "t": 48202.22550000009,
      "d": 337.07850000000326,
      "v": 127
    },
    {
      "midi": 74,
      "hit": false,
      "t": 48539.30400000009,
      "d": 337.07850000000326,
      "v": 127
    },
    {
      "midi": 50,
      "hit": false,
      "t": 48539.30400000009,
      "d": 2359.549500000023,
      "v": 127
    },
    {
      "midi": 69,
      "hit": false,
      "t": 48876.382500000094,
      "d": 337.07850000000326,
      "v": 127
    },
    {
      "midi": 74,
      "hit": false,
      "t": 49213.4610000001,
      "d": 337.07850000000326,
      "v": 127
    },
    {
      "midi": 69,
      "hit": false,
      "t": 49550.5395000001,
      "d": 337.07850000000326,
      "v": 127
    },
    {
      "midi": 76,
      "hit": false,
      "t": 49887.618000000104,
      "d": 337.07850000000326,
      "v": 127
    },
    {
      "midi": 69,
      "hit": false,
      "t": 50224.69650000011,
      "d": 337.07850000000326,
      "v": 127
    },
    {
      "midi": 76,
      "hit": false,
      "t": 50561.77500000011,
      "d": 337.07850000000326,
      "v": 127
    },
    {
      "midi": 45,
      "hit": false,
      "t": 50898.853500000114,
      "d": 337.07850000000326,
      "v": 127
    },
    {
      "midi": 69,
      "hit": false,
      "t": 50898.853500000114,
      "d": 337.07850000000326,
      "v": 127
    },
    {
      "midi": 77,
      "hit": false,
      "t": 51235.93200000012,
      "d": 337.07850000000326,
      "v": 127
    },
    {
      "midi": 50,
      "hit": false,
      "t": 51235.93200000012,
      "d": 2528.0887500000244,
      "v": 127
    },
    {
      "midi": 69,
      "hit": false,
      "t": 51573.01050000012,
      "d": 337.07850000000326,
      "v": 127
    },
    {
      "midi": 77,
      "hit": false,
      "t": 51910.08900000012,
      "d": 337.07850000000326,
      "v": 127
    },
    {
      "midi": 69,
      "hit": false,
      "t": 52247.16750000013,
      "d": 337.07850000000326,
      "v": 127
    },
    {
      "midi": 76,
      "hit": false,
      "t": 52584.24600000013,
      "d": 337.07850000000326,
      "v": 127
    },
    {
      "midi": 77,
      "hit": false,
      "t": 52921.32450000013,
      "d": 337.07850000000326,
      "v": 127
    },
    {
      "midi": 76,
      "hit": false,
      "t": 53258.40300000014,
      "d": 337.07850000000326,
      "v": 127
    },
    {
      "midi": 69,
      "hit": false,
      "t": 53595.48150000014,
      "d": 337.07850000000326,
      "v": 127
    },
    {
      "midi": 74,
      "hit": false,
      "t": 53932.56000000014,
      "d": 337.07850000000326,
      "v": 127
    },
    {
      "midi": 50,
      "hit": false,
      "t": 53932.56000000014,
      "d": 2359.549500000023,
      "v": 127
    },
    {
      "midi": 69,
      "hit": false,
      "t": 54269.63850000015,
      "d": 337.07850000000326,
      "v": 127
    },
    {
      "midi": 74,
      "hit": false,
      "t": 54606.71700000015,
      "d": 337.07850000000326,
      "v": 127
    },
    {
      "midi": 69,
      "hit": false,
      "t": 54943.79550000015,
      "d": 337.07850000000326,
      "v": 127
    },
    {
      "midi": 76,
      "hit": false,
      "t": 55280.874000000156,
      "d": 337.07850000000326,
      "v": 127
    },
    {
      "midi": 69,
      "hit": false,
      "t": 55617.95250000016,
      "d": 337.07850000000326,
      "v": 127
    },
    {
      "midi": 76,
      "hit": false,
      "t": 55955.03100000016,
      "d": 337.07850000000326,
      "v": 127
    },
    {
      "midi": 45,
      "hit": false,
      "t": 56292.109500000166,
      "d": 337.07850000000326,
      "v": 127
    },
    {
      "midi": 69,
      "hit": false,
      "t": 56292.109500000166,
      "d": 337.07850000000326,
      "v": 127
    },
    {
      "midi": 77,
      "hit": false,
      "t": 56629.18800000017,
      "d": 337.07850000000326,
      "v": 127
    },
    {
      "midi": 50,
      "hit": false,
      "t": 56629.18800000017,
      "d": 2528.0887500000244,
      "v": 127
    },
    {
      "midi": 69,
      "hit": false,
      "t": 56966.26650000017,
      "d": 337.07850000000326,
      "v": 127
    },
    {
      "midi": 77,
      "hit": false,
      "t": 57303.345000000176,
      "d": 337.07850000000326,
      "v": 127
    },
    {
      "midi": 69,
      "hit": false,
      "t": 57640.42350000018,
      "d": 337.07850000000326,
      "v": 127
    },
    {
      "midi": 76,
      "hit": false,
      "t": 57977.50200000018,
      "d": 337.07850000000326,
      "v": 127
    },
    {
      "midi": 77,
      "hit": false,
      "t": 58314.580500000186,
      "d": 337.07850000000326,
      "v": 127
    },
    {
      "midi": 76,
      "hit": false,
      "t": 58651.65900000019,
      "d": 337.07850000000326,
      "v": 127
    },
    {
      "midi": 69,
      "hit": false,
      "t": 58988.73750000019,
      "d": 337.07850000000326,
      "v": 127
    },
    {
      "midi": 74,
      "hit": false,
      "t": 59325.816000000195,
      "d": 337.07850000000326,
      "v": 127
    },
    {
      "midi": 50,
      "hit": false,
      "t": 59325.816000000195,
      "d": 2359.549500000023,
      "v": 127
    },
    {
      "midi": 69,
      "hit": false,
      "t": 59662.8945000002,
      "d": 337.07850000000326,
      "v": 127
    },
    {
      "midi": 74,
      "hit": false,
      "t": 59999.9730000002,
      "d": 337.07850000000326,
      "v": 127
    },
    {
      "midi": 69,
      "hit": false,
      "t": 60337.051500000205,
      "d": 337.07850000000326,
      "v": 127
    },
    {
      "midi": 76,
      "hit": false,
      "t": 60674.13000000021,
      "d": 337.07850000000326,
      "v": 127
    },
    {
      "midi": 69,
      "hit": false,
      "t": 61011.20850000021,
      "d": 337.07850000000326,
      "v": 127
    },
    {
      "midi": 76,
      "hit": false,
      "t": 61348.287000000215,
      "d": 337.07850000000326,
      "v": 127
    },
    {
      "midi": 45,
      "hit": false,
      "t": 61685.36550000022,
      "d": 337.07850000000326,
      "v": 127
    },
    {
      "midi": 69,
      "hit": false,
      "t": 61685.36550000022,
      "d": 337.07850000000326,
      "v": 127
    }
  ]
}