{
  "jsonPath": "Unknown/Unknown/Georg Friedrich Händel  Otto Sieben/cathedral-largo.json",
  "path": "Unknown\\Unknown\\Georg Friedrich Händel  Otto Sieben\\Cathedral Largo.mid",
  "name": "Cathedral Largo",
  "difficulty": "Advanced",
  "bpm": 67.00002903334591,
  "notes": [
    {
      "midi": 55,
      "hit": false,
      "t": 4484.375,
      "d": 1171.875,
      "v": 82
    },
    {
      "midi": 55,
      "hit": false,
      "t": 5890.625,
      "d": 1234.375,
      "v": 71
    },
    {
      "midi": 59,
      "hit": false,
      "t": 5953.125,
      "d": 1203.125,
      "v": 57
    },
    {
      "midi": 62,
      "hit": false,
      "t": 6000,
      "d": 1203.125,
      "v": 58
    },
    {
      "midi": 67,
      "hit": false,
      "t": 6078.125,
      "d": 2515.625,
      "v": 58
    },
    {
      "midi": 55,
      "hit": false,
      "t": 7359.375,
      "d": 1328.125,
      "v": 67
    },
    {
      "midi": 59,
      "hit": false,
      "t": 7453.125,
      "d": 1093.75,
      "v": 45
    },
    {
      "midi": 62,
      "hit": false,
      "t": 7515.625,
      "d": 1046.875,
      "v": 59
    },
    {
      "midi": 45,
      "hit": false,
      "t": 8812.5,
      "d": 1218.75,
      "v": 66
    },
    {
      "midi": 57,
      "hit": false,
      "t": 8906.25,
      "d": 3875,
      "v": 49
    },
    {
      "midi": 60,
      "hit": false,
      "t": 8984.375,
      "d": 3953.125,
      "v": 69
    },
    {
      "midi": 67,
      "hit": false,
      "t": 9046.875,
      "d": 1390.625,
      "v": 66
    },
    {
      "midi": 66,
      "hit": false,
      "t": 10421.875,
      "d": 1375,
      "v": 66
    },
    {
      "midi": 45,
      "hit": false,
      "t": 10468.75,
      "d": 937.5,
      "v": 56
    },
    {
      "midi": 45,
      "hit": false,
      "t": 11906.25,
      "d": 1328.125,
      "v": 57
    },
    {
      "midi": 47,
      "hit": false,
      "t": 13234.375,
      "d": 1062.5,
      "v": 60
    },
    {
      "midi": 55,
      "hit": false,
      "t": 13359.375,
      "d": 3984.375,
      "v": 56
    },
    {
      "midi": 62,
      "hit": false,
      "t": 13484.375,
      "d": 4015.625,
      "v": 58
    },
    {
      "midi": 67,
      "hit": false,
      "t": 13562.5,
      "d": 3781.25,
      "v": 61
    },
    {
      "midi": 47,
      "hit": false,
      "t": 14953.125,
      "d": 1140.625,
      "v": 41
    },
    {
      "midi": 47,
      "hit": false,
      "t": 16484.375,
      "d": 1359.375,
      "v": 63
    },
    {
      "midi": 48,
      "hit": false,
      "t": 17765.625,
      "d": 3171.875,
      "v": 79
    },
    {
      "midi": 55,
      "hit": false,
      "t": 17812.5,
      "d": 2187.5,
      "v": 27
    },
    {
      "midi": 60,
      "hit": false,
      "t": 17921.875,
      "d": 2250,
      "v": 48
    },
    {
      "midi": 64,
      "hit": false,
      "t": 18000,
      "d": 2421.875,
      "v": 69
    },
    {
      "midi": 45,
      "hit": false,
      "t": 19421.875,
      "d": 1390.625,
      "v": 63
    },
    {
      "midi": 43,
      "hit": false,
      "t": 20734.375,
      "d": 890.625,
      "v": 47
    },
    {
      "midi": 59,
      "hit": false,
      "t": 20843.75,
      "d": 875,
      "v": 41
    },
    {
      "midi": 62,
      "hit": false,
      "t": 20921.875,
      "d": 1078.125,
      "v": 52
    },
    {
      "midi": 67,
      "hit": false,
      "t": 20953.125,
      "d": 1156.25,
      "v": 63
    },
    {
      "midi": 50,
      "hit": false,
      "t": 20968.75,
      "d": 1046.875,
      "v": 59
    },
    {
      "midi": 54,
      "hit": false,
      "t": 22203.125,
      "d": 1781.25,
      "v": 64
    },
    {
      "midi": 62,
      "hit": false,
      "t": 22296.875,
      "d": 3312.5,
      "v": 51
    },
    {
      "midi": 66,
      "hit": false,
      "t": 22421.875,
      "d": 3875,
      "v": 58
    },
    {
      "midi": 69,
      "hit": false,
      "t": 22531.25,
      "d": 3921.875,
      "v": 62
    },
    {
      "midi": 50,
      "hit": false,
      "t": 23953.125,
      "d": 1609.375,
      "v": 66
    },
    {
      "midi": 54,
      "hit": false,
      "t": 25453.125,
      "d": 1718.75,
      "v": 77
    },
    {
      "midi": 62,
      "hit": false,
      "t": 26046.875,
      "d": 531.25,
      "v": 66
    },
    {
      "midi": 66,
      "hit": false,
      "t": 26531.25,
      "d": 390.625,
      "v": 67
    },
    {
      "midi": 48,
      "hit": false,
      "t": 26921.875,
      "d": 953.125,
      "v": 60
    },
    {
      "midi": 64,
      "hit": false,
      "t": 26984.375,
      "d": 2390.625,
      "v": 53
    },
    {
      "midi": 67,
      "hit": false,
      "t": 27078.125,
      "d": 2406.25,
      "v": 74
    },
    {
      "midi": 48,
      "hit": false,
      "t": 28515.625,
      "d": 843.75,
      "v": 68
    },
    {
      "midi": 48,
      "hit": false,
      "t": 29734.375,
      "d": 906.25,
      "v": 45
    },
    {
      "midi": 55,
      "hit": false,
      "t": 29859.375,
      "d": 812.5,
      "v": 55
    },
    {
      "midi": 64,
      "hit": false,
      "t": 29921.875,
      "d": 906.25,
      "v": 63
    },
    {
      "midi": 67,
      "hit": false,
      "t": 30046.875,
      "d": 1031.25,
      "v": 66
    },
    {
      "midi": 47,
      "hit": false,
      "t": 31140.625,
      "d": 1250,
      "v": 62
    },
    {
      "midi": 55,
      "hit": false,
      "t": 31234.375,
      "d": 1015.625,
      "v": 36
    },
    {
      "midi": 62,
      "hit": false,
      "t": 31343.75,
      "d": 4203.125,
      "v": 55
    },
    {
      "midi": 67,
      "hit": false,
      "t": 31468.75,
      "d": 4109.375,
      "v": 66
    },
    {
      "midi": 74,
      "hit": false,
      "t": 31562.5,
      "d": 3828.125,
      "v": 73
    },
    {
      "midi": 47,
      "hit": false,
      "t": 32937.5,
      "d": 1296.875,
      "v": 42
    },
    {
      "midi": 55,
      "hit": false,
      "t": 32968.75,
      "d": 1265.625,
      "v": 38
    },
    {
      "midi": 47,
      "hit": false,
      "t": 34515.625,
      "d": 1234.375,
      "v": 66
    },
    {
      "midi": 50,
      "hit": false,
      "t": 35703.125,
      "d": 1218.75,
      "v": 58
    },
    {
      "midi": 62,
      "hit": false,
      "t": 35812.5,
      "d": 2609.375,
      "v": 58
    },
    {
      "midi": 66,
      "hit": false,
      "t": 35875,
      "d": 2640.625,
      "v": 58
    },
    {
      "midi": 69,
      "hit": false,
      "t": 35953.125,
      "d": 2421.875,
      "v": 56
    },
    {
      "midi": 72,
      "hit": false,
      "t": 36093.75,
      "d": 2406.25,
      "v": 72
    },
    {
      "midi": 50,
      "hit": false,
      "t": 37406.25,
      "d": 921.875,
      "v": 54
    },
    {
      "midi": 50,
      "hit": false,
      "t": 38656.25,
      "d": 1640.625,
      "v": 66
    },
    {
      "midi": 62,
      "hit": false,
      "t": 38765.625,
      "d": 984.375,
      "v": 67
    },
    {
      "midi": 66,
      "hit": false,
      "t": 38890.625,
      "d": 1140.625,
      "v": 70
    },
    {
      "midi": 69,
      "hit": false,
      "t": 39015.625,
      "d": 1078.125,
      "v": 62
    },
    {
      "midi": 55,
      "hit": false,
      "t": 40234.375,
      "d": 1109.375,
      "v": 66
    },
    {
      "midi": 62,
      "hit": false,
      "t": 40359.375,
      "d": 3750,
      "v": 66
    },
    {
      "midi": 67,
      "hit": false,
      "t": 40453.125,
      "d": 3453.125,
      "v": 55
    },
    {
      "midi": 71,
      "hit": false,
      "t": 40562.5,
      "d": 3484.375,
      "v": 56
    },
    {
      "midi": 55,
      "hit": false,
      "t": 41984.375,
      "d": 890.625,
      "v": 61
    },
    {
      "midi": 55,
      "hit": false,
      "t": 43468.75,
      "d": 968.75,
      "v": 65
    },
    {
      "midi": 67,
      "hit": false,
      "t": 44953.125,
      "d": 937.5,
      "v": 70
    },
    {
      "midi": 62,
      "hit": false,
      "t": 44968.75,
      "d": 1203.125,
      "v": 64
    },
    {
      "midi": 71,
      "hit": false,
      "t": 44984.375,
      "d": 1265.625,
      "v": 70
    },
    {
      "midi": 55,
      "hit": false,
      "t": 46453.125,
      "d": 1421.875,
      "v": 73
    },
    {
      "midi": 57,
      "hit": false,
      "t": 46468.75,
      "d": 1468.75,
      "v": 70
    },
    {
      "midi": 62,
      "hit": false,
      "t": 46515.625,
      "d": 1156.25,
      "v": 66
    },
    {
      "midi": 72,
      "hit": false,
      "t": 46546.875,
      "d": 1046.875,
      "v": 86
    },
    {
      "midi": 59,
      "hit": false,
      "t": 47828.125,
      "d": 1359.375,
      "v": 75
    },
    {
      "midi": 74,
      "hit": false,
      "t": 47921.875,
      "d": 781.25,
      "v": 78
    },
    {
      "midi": 67,
      "hit": false,
      "t": 47921.875,
      "d": 812.5,
      "v": 72
    },
    {
      "midi": 62,
      "hit": false,
      "t": 47937.5,
      "d": 671.875,
      "v": 61
    },
    {
      "midi": 60,
      "hit": false,
      "t": 49156.25,
      "d": 1718.75,
      "v": 70
    },
    {
      "midi": 66,
      "hit": false,
      "t": 49328.125,
      "d": 1781.25,
      "v": 66
    },
    {
      "midi": 67,
      "hit": false,
      "t": 49453.125,
      "d": 2687.5,
      "v": 70
    },
    {
      "midi": 72,
      "hit": false,
      "t": 49546.875,
      "d": 2515.625,
      "v": 70
    },
    {
      "midi": 48,
      "hit": false,
      "t": 50953.125,
      "d": 1468.75,
      "v": 71
    },
    {
      "midi": 64,
      "hit": false,
      "t": 50968.75,
      "d": 859.375,
      "v": 64
    },
    {
      "midi": 50,
      "hit": false,
      "t": 52265.625,
      "d": 1578.125,
      "v": 65
    },
    {
      "midi": 62,
      "hit": false,
      "t": 52359.375,
      "d": 1015.625,
      "v": 39
    },
    {
      "midi": 67,
      "hit": false,
      "t": 52421.875,
      "d": 859.375,
      "v": 50
    },
    {
      "midi": 71,
      "hit": false,
      "t": 52515.625,
      "d": 812.5,
      "v": 74
    },
    {
      "midi": 52,
      "hit": false,
      "t": 53687.5,
      "d": 1296.875,
      "v": 62
    },
    {
      "midi": 55,
      "hit": false,
      "t": 53828.125,
      "d": 1156.25,
      "v": 45
    },
    {
      "midi": 62,
      "hit": false,
      "t": 53906.25,
      "d": 1093.75,
      "v": 64
    },
    {
      "midi": 67,
      "hit": false,
      "t": 53906.25,
      "d": 4203.125,
      "v": 68
    },
    {
      "midi": 61,
      "hit": false,
      "t": 55390.625,
      "d": 2468.75,
      "v": 60
    },
    {
      "midi": 55,
      "hit": false,
      "t": 55437.5,
      "d": 921.875,
      "v": 31
    },
    {
      "midi": 52,
      "hit": false,
      "t": 55453.125,
      "d": 875,
      "v": 44
    },
    {
      "midi": 52,
      "hit": false,
      "t": 57000,
      "d": 1093.75,
      "v": 48
    },
    {
      "midi": 55,
      "hit": false,
      "t": 57031.25,
      "d": 1000,
      "v": 50
    },
    {
      "midi": 50,
      "hit": false,
      "t": 58125,
      "d": 1703.125,
      "v": 76
    },
    {
      "midi": 54,
      "hit": false,
      "t": 58218.75,
      "d": 2531.25,
      "v": 47
    },
    {
      "midi": 62,
      "hit": false,
      "t": 58343.75,
      "d": 2640.625,
      "v": 64
    },
    {
      "midi": 66,
      "hit": false,
      "t": 58468.75,
      "d": 2343.75,
      "v": 62
    },
    {
      "midi": 69,
      "hit": false,
      "t": 58546.875,
      "d": 2484.375,
      "v": 71
    },
    {
      "midi": 48,
      "hit": false,
      "t": 59937.5,
      "d": 1031.25,
      "v": 45
    },
    {
      "midi": 47,
      "hit": false,
      "t": 61156.25,
      "d": 1468.75,
      "v": 55
    },
    {
      "midi": 55,
      "hit": false,
      "t": 61250,
      "d": 1109.375,
      "v": 62
    },
    {
      "midi": 62,
      "hit": false,
      "t": 61375,
      "d": 828.125,
      "v": 60
    },
    {
      "midi": 67,
      "hit": false,
      "t": 61453.125,
      "d": 875,
      "v": 63
    },
    {
      "midi": 71,
      "hit": false,
      "t": 61531.25,
      "d": 1062.5,
      "v": 48
    },
    {
      "midi": 48,
      "hit": false,
      "t": 62859.375,
      "d": 1546.875,
      "v": 65
    },
    {
      "midi": 64,
      "hit": false,
      "t": 62937.5,
      "d": 843.75,
      "v": 50
    },
    {
      "midi": 67,
      "hit": false,
      "t": 62968.75,
      "d": 937.5,
      "v": 56
    },
    {
      "midi": 72,
      "hit": false,
      "t": 62984.375,
      "d": 1000,
      "v": 64
    },
    {
      "midi": 50,
      "hit": false,
      "t": 64250,
      "d": 1031.25,
      "v": 56
    },
    {
      "midi": 62,
      "hit": false,
      "t": 64359.375,
      "d": 2359.375,
      "v": 57
    },
    {
      "midi": 67,
      "hit": false,
      "t": 64421.875,
      "d": 1546.875,
      "v": 65
    },
    {
      "midi": 69,
      "hit": false,
      "t": 64515.625,
      "d": 2937.5,
      "v": 63
    },
    {
      "midi": 66,
      "hit": false,
      "t": 65953.125,
      "d": 859.375,
      "v": 68
    },
    {
      "midi": 50,
      "hit": false,
      "t": 65953.125,
      "d": 1531.25,
      "v": 50
    },
    {
      "midi": 59,
      "hit": false,
      "t": 67390.625,
      "d": 2421.875,
      "v": 53
    },
    {
      "midi": 55,
      "hit": false,
      "t": 67406.25,
      "d": 2484.375,
      "v": 55
    },
    {
      "midi": 62,
      "hit": false,
      "t": 67531.25,
      "d": 2265.625,
      "v": 53
    },
    {
      "midi": 67,
      "hit": false,
      "t": 67625,
      "d": 2203.125,
      "v": 64
    },
    {
      "midi": 55,
      "hit": false,
      "t": 71703.125,
      "d": 2906.25,
      "v": 66
    },
    {
      "midi": 59,
      "hit": false,
      "t": 71796.875,
      "d": 2890.625,
      "v": 53
    },
    {
      "midi": 62,
      "hit": false,
      "t": 71859.375,
      "d": 2875,
      "v": 66
    },
    {
      "midi": 67,
      "hit": false,
      "t": 71921.875,
      "d": 4531.25,
      "v": 77
    },
    {
      "midi": 55,
      "hit": false,
      "t": 75015.625,
      "d": 1125,
      "v": 25
    },
    {
      "midi": 59,
      "hit": false,
      "t": 75062.5,
      "d": 953.125,
      "v": 70
    },
    {
      "midi": 62,
      "hit": false,
      "t": 75140.625,
      "d": 1187.5,
      "v": 58
    },
    {
      "midi": 50,
      "hit": false,
      "t": 76515.625,
      "d": 1093.75,
      "v": 73
    },
    {
      "midi": 62,
      "hit": false,
      "t": 76593.75,
      "d": 2687.5,
      "v": 58
    },
    {
      "midi": 59,
      "hit": false,
      "t": 76609.375,
      "d": 2093.75,
      "v": 45
    },
    {
      "midi": 50,
      "hit": false,
      "t": 77968.75,
      "d": 1312.5,
      "v": 73
    },
    {
      "midi": 50,
      "hit": false,
      "t": 79296.875,
      "d": 1343.75,
      "v": 51
    },
    {
      "midi": 57,
      "hit": false,
      "t": 79343.75,
      "d": 1062.5,
      "v": 57
    },
    {
      "midi": 60,
      "hit": false,
      "t": 79437.5,
      "d": 1468.75,
      "v": 67
    },
    {
      "midi": 66,
      "hit": false,
      "t": 79515.625,
      "d": 1468.75,
      "v": 70
    },
    {
      "midi": 52,
      "hit": false,
      "t": 80671.875,
      "d": 1203.125,
      "v": 56
    },
    {
      "midi": 55,
      "hit": false,
      "t": 80765.625,
      "d": 1046.875,
      "v": 52
    },
    {
      "midi": 59,
      "hit": false,
      "t": 80890.625,
      "d": 937.5,
      "v": 55
    },
    {
      "midi": 67,
      "hit": false,
      "t": 80984.375,
      "d": 984.375,
      "v": 72
    },
    {
      "midi": 52,
      "hit": false,
      "t": 82171.875,
      "d": 1531.25,
      "v": 59
    },
    {
      "midi": 55,
      "hit": false,
      "t": 82312.5,
      "d": 1421.875,
      "v": 54
    },
    {
      "midi": 59,
      "hit": false,
      "t": 82421.875,
      "d": 1234.375,
      "v": 60
    },
    {
      "midi": 67,
      "hit": false,
      "t": 82515.625,
      "d": 5718.75,
      "v": 78
    },
    {
      "midi": 66,
      "hit": false,
      "t": 83203.125,
      "d": 812.5,
      "v": 77
    },
    {
      "midi": 59,
      "hit": false,
      "t": 83906.25,
      "d": 1296.875,
      "v": 56
    },
    {
      "midi": 52,
      "hit": false,
      "t": 83906.25,
      "d": 1578.125,
      "v": 58
    },
    {
      "midi": 64,
      "hit": false,
      "t": 83937.5,
      "d": 1656.25,
      "v": 68
    },
    {
      "midi": 59,
      "hit": false,
      "t": 85359.375,
      "d": 1203.125,
      "v": 56
    },
    {
      "midi": 62,
      "hit": false,
      "t": 85484.375,
      "d": 2953.125,
      "v": 62
    },
    {
      "midi": 59,
      "hit": false,
      "t": 86875,
      "d": 1031.25,
      "v": 53
    },
    {
      "midi": 47,
      "hit": false,
      "t": 86890.625,
      "d": 1437.5,
      "v": 63
    },
    {
      "midi": 66,
      "hit": false,
      "t": 87000,
      "d": 968.75,
      "v": 53
    },
    {
      "midi": 48,
      "hit": false,
      "t": 88265.625,
      "d": 1515.625,
      "v": 66
    },
    {
      "midi": 60,
      "hit": false,
      "t": 88375,
      "d": 1046.875,
      "v": 47
    },
    {
      "midi": 64,
      "hit": false,
      "t": 88453.125,
      "d": 1296.875,
      "v": 53
    },
    {
      "midi": 67,
      "hit": false,
      "t": 88500,
      "d": 1015.625,
      "v": 53
    },
    {
      "midi": 43,
      "hit": false,
      "t": 89625,
      "d": 906.25,
      "v": 62
    },
    {
      "midi": 50,
      "hit": false,
      "t": 89750,
      "d": 2812.5,
      "v": 41
    },
    {
      "midi": 59,
      "hit": false,
      "t": 89812.5,
      "d": 3890.625,
      "v": 58
    },
    {
      "midi": 55,
      "hit": false,
      "t": 89875,
      "d": 4015.625,
      "v": 49
    },
    {
      "midi": 62,
      "hit": false,
      "t": 89968.75,
      "d": 4031.25,
      "v": 53
    },
    {
      "midi": 67,
      "hit": false,
      "t": 90062.5,
      "d": 4203.125,
      "v": 58
    },
    {
      "midi": 43,
      "hit": false,
      "t": 91468.75,
      "d": 843.75,
      "v": 49
    },
    {
      "midi": 43,
      "hit": false,
      "t": 92937.5,
      "d": 1359.375,
      "v": 46
    },
    {
      "midi": 48,
      "hit": false,
      "t": 94234.375,
      "d": 1906.25,
      "v": 71
    },
    {
      "midi": 60,
      "hit": false,
      "t": 94453.125,
      "d": 2187.5,
      "v": 65
    },
    {
      "midi": 64,
      "hit": false,
      "t": 94468.75,
      "d": 2421.875,
      "v": 71
    },
    {
      "midi": 45,
      "hit": false,
      "t": 95984.375,
      "d": 1015.625,
      "v": 49
    },
    {
      "midi": 55,
      "hit": false,
      "t": 97218.75,
      "d": 1312.5,
      "v": 57
    },
    {
      "midi": 59,
      "hit": false,
      "t": 97390.625,
      "d": 906.25,
      "v": 63
    },
    {
      "midi": 67,
      "hit": false,
      "t": 97390.625,
      "d": 1203.125,
      "v": 75
    },
    {
      "midi": 62,
      "hit": false,
      "t": 97390.625,
      "d": 4187.5,
      "v": 72
    },
    {
      "midi": 54,
      "hit": false,
      "t": 98718.75,
      "d": 1562.5,
      "v": 45
    },
    {
      "midi": 57,
      "hit": false,
      "t": 98828.125,
      "d": 1671.875,
      "v": 54
    },
    {
      "midi": 66,
      "hit": false,
      "t": 98937.5,
      "d": 2656.25,
      "v": 72
    },
    {
      "midi": 69,
      "hit": false,
      "t": 99000,
      "d": 2671.875,
      "v": 66
    },
    {
      "midi": 52,
      "hit": false,
      "t": 100421.875,
      "d": 1312.5,
      "v": 59
    },
    {
      "midi": 55,
      "hit": false,
      "t": 100453.125,
      "d": 1531.25,
      "v": 58
    },
    {
      "midi": 50,
      "hit": false,
      "t": 101656.25,
      "d": 1031.25,
      "v": 43
    },
    {
      "midi": 54,
      "hit": false,
      "t": 101796.875,
      "d": 1265.625,
      "v": 60
    },
    {
      "midi": 57,
      "hit": false,
      "t": 101859.375,
      "d": 1250,
      "v": 55
    },
    {
      "midi": 62,
      "hit": false,
      "t": 101937.5,
      "d": 968.75,
      "v": 58
    },
    {
      "midi": 69,
      "hit": false,
      "t": 101953.125,
      "d": 1187.5,
      "v": 51
    },
    {
      "midi": 66,
      "hit": false,
      "t": 101984.375,
      "d": 1187.5,
      "v": 60
    },
    {
      "midi": 48,
      "hit": false,
      "t": 103218.75,
      "d": 1453.125,
      "v": 77
    },
    {
      "midi": 55,
      "hit": false,
      "t": 103250,
      "d": 1484.375,
      "v": 54
    },
    {
      "midi": 60,
      "hit": false,
      "t": 103343.75,
      "d": 750,
      "v": 78
    },
    {
      "midi": 64,
      "hit": false,
      "t": 103421.875,
      "d": 2921.875,
      "v": 75
    },
    {
      "midi": 67,
      "hit": false,
      "t": 103484.375,
      "d": 3046.875,
      "v": 76
    },
    {
      "midi": 60,
      "hit": false,
      "t": 104953.125,
      "d": 1406.25,
      "v": 76
    },
    {
      "midi": 69,
      "hit": false,
      "t": 106468.75,
      "d": 1390.625,
      "v": 70
    },
    {
      "midi": 66,
      "hit": false,
      "t": 106484.375,
      "d": 1343.75,
      "v": 75
    },
    {
      "midi": 60,
      "hit": false,
      "t": 106531.25,
      "d": 1265.625,
      "v": 61
    },
    {
      "midi": 62,
      "hit": false,
      "t": 106546.875,
      "d": 1234.375,
      "v": 66
    },
    {
      "midi": 67,
      "hit": false,
      "t": 107937.5,
      "d": 2531.25,
      "v": 75
    },
    {
      "midi": 71,
      "hit": false,
      "t": 107937.5,
      "d": 2546.875,
      "v": 59
    },
    {
      "midi": 62,
      "hit": false,
      "t": 107968.75,
      "d": 1109.375,
      "v": 63
    },
    {
      "midi": 59,
      "hit": false,
      "t": 107968.75,
      "d": 1156.25,
      "v": 68
    },
    {
      "midi": 59,
      "hit": false,
      "t": 109437.5,
      "d": 1265.625,
      "v": 60
    },
    {
      "midi": 62,
      "hit": false,
      "t": 109468.75,
      "d": 1203.125,
      "v": 61
    },
    {
      "midi": 59,
      "hit": false,
      "t": 110906.25,
      "d": 1265.625,
      "v": 41
    },
    {
      "midi": 71,
      "hit": false,
      "t": 110953.125,
      "d": 968.75,
      "v": 69
    },
    {
      "midi": 62,
      "hit": false,
      "t": 110953.125,
      "d": 1000,
      "v": 54
    },
    {
      "midi": 67,
      "hit": false,
      "t": 110968.75,
      "d": 718.75,
      "v": 61
    },
    {
      "midi": 60,
      "hit": false,
      "t": 112171.875,
      "d": 1421.875,
      "v": 70
    },
    {
      "midi": 64,
      "hit": false,
      "t": 112281.25,
      "d": 1265.625,
      "v": 45
    },
    {
      "midi": 67,
      "hit": false,
      "t": 112390.625,
      "d": 1250,
      "v": 49
    },
    {
      "midi": 72,
      "hit": false,
      "t": 112484.375,
      "d": 1078.125,
      "v": 75
    },
    {
      "midi": 57,
      "hit": false,
      "t": 113765.625,
      "d": 1671.875,
      "v": 41
    },
    {
      "midi": 60,
      "hit": false,
      "t": 113843.75,
      "d": 1593.75,
      "v": 49
    },
    {
      "midi": 64,
      "hit": false,
      "t": 113953.125,
      "d": 1171.875,
      "v": 55
    },
    {
      "midi": 67,
      "hit": false,
      "t": 114015.625,
      "d": 1578.125,
      "v": 55
    },
    {
      "midi": 69,
      "hit": false,
      "t": 114078.125,
      "d": 3078.125,
      "v": 59
    },
    {
      "midi": 54,
      "hit": false,
      "t": 115359.375,
      "d": 1437.5,
      "v": 66
    },
    {
      "midi": 62,
      "hit": false,
      "t": 115406.25,
      "d": 6171.875,
      "v": 45
    },
    {
      "midi": 66,
      "hit": false,
      "t": 115437.5,
      "d": 1453.125,
      "v": 57
    },
    {
      "midi": 55,
      "hit": false,
      "t": 116734.375,
      "d": 1078.125,
      "v": 57
    },
    {
      "midi": 59,
      "hit": false,
      "t": 116828.125,
      "d": 937.5,
      "v": 52
    },
    {
      "midi": 67,
      "hit": false,
      "t": 116906.25,
      "d": 2453.125,
      "v": 58
    },
    {
      "midi": 71,
      "hit": false,
      "t": 116984.375,
      "d": 2406.25,
      "v": 62
    },
    {
      "midi": 59,
      "hit": false,
      "t": 118468.75,
      "d": 1000,
      "v": 53
    },
    {
      "midi": 55,
      "hit": false,
      "t": 118500,
      "d": 1015.625,
      "v": 38
    },
    {
      "midi": 69,
      "hit": false,
      "t": 119296.875,
      "d": 796.875,
      "v": 62
    },
    {
      "midi": 55,
      "hit": false,
      "t": 120015.625,
      "d": 1140.625,
      "v": 49
    },
    {
      "midi": 59,
      "hit": false,
      "t": 120015.625,
      "d": 1625,
      "v": 45
    },
    {
      "midi": 67,
      "hit": false,
      "t": 120015.625,
      "d": 4203.125,
      "v": 67
    },
    {
      "midi": 60,
      "hit": false,
      "t": 121484.375,
      "d": 2609.375,
      "v": 63
    },
    {
      "midi": 57,
      "hit": false,
      "t": 121531.25,
      "d": 1031.25,
      "v": 50
    },
    {
      "midi": 57,
      "hit": false,
      "t": 123000,
      "d": 1093.75,
      "v": 54
    },
    {
      "midi": 57,
      "hit": false,
      "t": 124312.5,
      "d": 1531.25,
      "v": 59
    },
    {
      "midi": 60,
      "hit": false,
      "t": 124375,
      "d": 1000,
      "v": 55
    },
    {
      "midi": 64,
      "hit": false,
      "t": 124453.125,
      "d": 1250,
      "v": 66
    },
    {
      "midi": 59,
      "hit": false,
      "t": 125875,
      "d": 1062.5,
      "v": 69
    },
    {
      "midi": 67,
      "hit": false,
      "t": 125984.375,
      "d": 906.25,
      "v": 72
    },
    {
      "midi": 62,
      "hit": false,
      "t": 126718.75,
      "d": 3656.25,
      "v": 76
    },
    {
      "midi": 59,
      "hit": false,
      "t": 127421.875,
      "d": 828.125,
      "v": 58
    },
    {
      "midi": 67,
      "hit": false,
      "t": 127468.75,
      "d": 2046.875,
      "v": 74
    },
    {
      "midi": 71,
      "hit": false,
      "t": 128187.5,
      "d": 937.5,
      "v": 62
    },
    {
      "midi": 59,
      "hit": false,
      "t": 128937.5,
      "d": 1703.125,
      "v": 37
    },
    {
      "midi": 74,
      "hit": false,
      "t": 129015.625,
      "d": 828.125,
      "v": 74
    },
    {
      "midi": 67,
      "hit": false,
      "t": 129812.5,
      "d": 2328.125,
      "v": 74
    },
    {
      "midi": 52,
      "hit": false,
      "t": 130375,
      "d": 1703.125,
      "v": 57
    },
    {
      "midi": 60,
      "hit": false,
      "t": 130593.75,
      "d": 1031.25,
      "v": 65
    },
    {
      "midi": 72,
      "hit": false,
      "t": 130593.75,
      "d": 2703.125,
      "v": 73
    },
    {
      "midi": 62,
      "hit": false,
      "t": 132015.625,
      "d": 1046.875,
      "v": 52
    },
    {
      "midi": 54,
      "hit": false,
      "t": 132031.25,
      "d": 1484.375,
      "v": 69
    },
    {
      "midi": 69,
      "hit": false,
      "t": 132062.5,
      "d": 1140.625,
      "v": 51
    },
    {
      "midi": 55,
      "hit": false,
      "t": 133390.625,
      "d": 937.5,
      "v": 70
    },
    {
      "midi": 62,
      "hit": false,
      "t": 133421.875,
      "d": 953.125,
      "v": 40
    },
    {
      "midi": 67,
      "hit": false,
      "t": 133453.125,
      "d": 1000,
      "v": 52
    },
    {
      "midi": 71,
      "hit": false,
      "t": 133531.25,
      "d": 765.625,
      "v": 63
    },
    {
      "midi": 50,
      "hit": false,
      "t": 134562.5,
      "d": 3125,
      "v": 63
    },
    {
      "midi": 55,
      "hit": false,
      "t": 134656.25,
      "d": 1765.625,
      "v": 46
    },
    {
      "midi": 57,
      "hit": false,
      "t": 134781.25,
      "d": 2828.125,
      "v": 49
    },
    {
      "midi": 62,
      "hit": false,
      "t": 134828.125,
      "d": 2781.25,
      "v": 55
    },
    {
      "midi": 67,
      "hit": false,
      "t": 134937.5,
      "d": 1609.375,
      "v": 58
    },
    {
      "midi": 69,
      "hit": false,
      "t": 135015.625,
      "d": 3250,
      "v": 61
    },
    {
      "midi": 54,
      "hit": false,
      "t": 136453.125,
      "d": 1546.875,
      "v": 68
    },
    {
      "midi": 66,
      "hit": false,
      "t": 136468.75,
      "d": 1500,
      "v": 65
    },
    {
      "midi": 52,
      "hit": false,
      "t": 137843.75,
      "d": 1593.75,
      "v": 66
    },
    {
      "midi": 59,
      "hit": false,
      "t": 137906.25,
      "d": 1281.25,
      "v": 52
    },
    {
      "midi": 64,
      "hit": false,
      "t": 137937.5,
      "d": 953.125,
      "v": 47
    },
    {
      "midi": 67,
      "hit": false,
      "t": 138000,
      "d": 1281.25,
      "v": 66
    },
    {
      "midi": 57,
      "hit": false,
      "t": 139296.875,
      "d": 1156.25,
      "v": 57
    },
    {
      "midi": 66,
      "hit": false,
      "t": 139484.375,
      "d": 2875,
      "v": 76
    },
    {
      "midi": 60,
      "hit": false,
      "t": 139500,
      "d": 2718.75,
      "v": 66
    },
    {
      "midi": 69,
      "hit": false,
      "t": 139546.875,
      "d": 2890.625,
      "v": 66
    },
    {
      "midi": 57,
      "hit": false,
      "t": 141062.5,
      "d": 1234.375,
      "v": 77
    },
    {
      "midi": 55,
      "hit": false,
      "t": 142406.25,
      "d": 1109.375,
      "v": 67
    },
    {
      "midi": 64,
      "hit": false,
      "t": 142437.5,
      "d": 796.875,
      "v": 80
    },
    {
      "midi": 59,
      "hit": false,
      "t": 142484.375,
      "d": 1078.125,
      "v": 55
    },
    {
      "midi": 54,
      "hit": false,
      "t": 143578.125,
      "d": 1890.625,
      "v": 79
    },
    {
      "midi": 57,
      "hit": false,
      "t": 143703.125,
      "d": 2937.5,
      "v": 51
    },
    {
      "midi": 63,
      "hit": false,
      "t": 143859.375,
      "d": 2578.125,
      "v": 80
    },
    {
      "midi": 66,
      "hit": false,
      "t": 143937.5,
      "d": 1921.875,
      "v": 74
    },
    {
      "midi": 69,
      "hit": false,
      "t": 144015.625,
      "d": 2921.875,
      "v": 61
    },
    {
      "midi": 47,
      "hit": false,
      "t": 145484.375,
      "d": 1218.75,
      "v": 66
    },
    {
      "midi": 48,
      "hit": false,
      "t": 146718.75,
      "d": 1625,
      "v": 70
    },
    {
      "midi": 55,
      "hit": false,
      "t": 146765.625,
      "d": 1218.75,
      "v": 40
    },
    {
      "midi": 64,
      "hit": false,
      "t": 146906.25,
      "d": 2468.75,
      "v": 70
    },
    {
      "midi": 67,
      "hit": false,
      "t": 146984.375,
      "d": 1578.125,
      "v": 66
    },
    {
      "midi": 57,
      "hit": false,
      "t": 148359.375,
      "d": 1468.75,
      "v": 50
    },
    {
      "midi": 60,
      "hit": false,
      "t": 148437.5,
      "d": 875,
      "v": 61
    },
    {
      "midi": 69,
      "hit": false,
      "t": 148468.75,
      "d": 1203.125,
      "v": 60
    },
    {
      "midi": 59,
      "hit": false,
      "t": 149859.375,
      "d": 2875,
      "v": 66
    },
    {
      "midi": 64,
      "hit": false,
      "t": 149921.875,
      "d": 921.875,
      "v": 61
    },
    {
      "midi": 66,
      "hit": false,
      "t": 149968.75,
      "d": 2906.25,
      "v": 65
    },
    {
      "midi": 47,
      "hit": false,
      "t": 151406.25,
      "d": 1078.125,
      "v": 45
    },
    {
      "midi": 63,
      "hit": false,
      "t": 151468.75,
      "d": 687.5,
      "v": 70
    },
    {
      "midi": 71,
      "hit": false,
      "t": 151562.5,
      "d": 1171.875,
      "v": 61
    },
    {
      "midi": 52,
      "hit": false,
      "t": 152843.75,
      "d": 984.375,
      "v": 47
    },
    {
      "midi": 55,
      "hit": false,
      "t": 152890.625,
      "d": 1171.875,
      "v": 45
    },
    {
      "midi": 64,
      "hit": false,
      "t": 152937.5,
      "d": 437.5,
      "v": 50
    },
    {
      "midi": 67,
      "hit": false,
      "t": 152937.5,
      "d": 765.625,
      "v": 74
    },
    {
      "midi": 64,
      "hit": false,
      "t": 153718.75,
      "d": 3015.625,
      "v": 78
    },
    {
      "midi": 52,
      "hit": false,
      "t": 154171.875,
      "d": 1125,
      "v": 44
    },
    {
      "midi": 55,
      "hit": false,
      "t": 154390.625,
      "d": 1015.625,
      "v": 22
    },
    {
      "midi": 67,
      "hit": false,
      "t": 154406.25,
      "d": 2578.125,
      "v": 58
    },
    {
      "midi": 72,
      "hit": false,
      "t": 154406.25,
      "d": 4515.625,
      "v": 73
    },
    {
      "midi": 60,
      "hit": false,
      "t": 154468.75,
      "d": 1031.25,
      "v": 32
    },
    {
      "midi": 60,
      "hit": false,
      "t": 156031.25,
      "d": 906.25,
      "v": 37
    },
    {
      "midi": 52,
      "hit": false,
      "t": 156031.25,
      "d": 1187.5,
      "v": 51
    },
    {
      "midi": 54,
      "hit": false,
      "t": 157218.75,
      "d": 1750,
      "v": 77
    },
    {
      "midi": 57,
      "hit": false,
      "t": 157343.75,
      "d": 1875,
      "v": 50
    },
    {
      "midi": 62,
      "hit": false,
      "t": 157421.875,
      "d": 1515.625,
      "v": 52
    },
    {
      "midi": 69,
      "hit": false,
      "t": 157515.625,
      "d": 1609.375,
      "v": 63
    },
    {
      "midi": 55,
      "hit": false,
      "t": 158921.875,
      "d": 1140.625,
      "v": 55
    },
    {
      "midi": 59,
      "hit": false,
      "t": 158968.75,
      "d": 2343.75,
      "v": 68
    },
    {
      "midi": 62,
      "hit": false,
      "t": 159000,
      "d": 2531.25,
      "v": 56
    },
    {
      "midi": 67,
      "hit": false,
      "t": 159015.625,
      "d": 2078.125,
      "v": 57
    },
    {
      "midi": 71,
      "hit": false,
      "t": 159062.5,
      "d": 2703.125,
      "v": 57
    },
    {
      "midi": 55,
      "hit": false,
      "t": 160468.75,
      "d": 1375,
      "v": 67
    },
    {
      "midi": 50,
      "hit": false,
      "t": 161828.125,
      "d": 703.125,
      "v": 53
    },
    {
      "midi": 62,
      "hit": false,
      "t": 161859.375,
      "d": 1734.375,
      "v": 60
    },
    {
      "midi": 57,
      "hit": false,
      "t": 161875,
      "d": 781.25,
      "v": 55
    },
    {
      "midi": 66,
      "hit": false,
      "t": 161921.875,
      "d": 2656.25,
      "v": 67
    },
    {
      "midi": 69,
      "hit": false,
      "t": 161984.375,
      "d": 2796.875,
      "v": 64
    },
    {
      "midi": 57,
      "hit": false,
      "t": 163468.75,
      "d": 1125,
      "v": 60
    },
    {
      "midi": 50,
      "hit": false,
      "t": 163484.375,
      "d": 1265.625,
      "v": 67
    },
    {
      "midi": 48,
      "hit": false,
      "t": 164593.75,
      "d": 1218.75,
      "v": 66
    },
    {
      "midi": 55,
      "hit": false,
      "t": 164718.75,
      "d": 1109.375,
      "v": 39
    },
    {
      "midi": 64,
      "hit": false,
      "t": 164921.875,
      "d": 2437.5,
      "v": 67
    },
    {
      "midi": 67,
      "hit": false,
      "t": 164984.375,
      "d": 2640.625,
      "v": 79
    },
    {
      "midi": 48,
      "hit": false,
      "t": 166468.75,
      "d": 921.875,
      "v": 43
    },
    {
      "midi": 55,
      "hit": false,
      "t": 166484.375,
      "d": 1062.5,
      "v": 53
    },
    {
      "midi": 50,
      "hit": false,
      "t": 167609.375,
      "d": 1406.25,
      "v": 74
    },
    {
      "midi": 55,
      "hit": false,
      "t": 167765.625,
      "d": 1390.625,
      "v": 53
    },
    {
      "midi": 62,
      "hit": false,
      "t": 167906.25,
      "d": 937.5,
      "v": 53
    },
    {
      "midi": 67,
      "hit": false,
      "t": 167984.375,
      "d": 1421.875,
      "v": 74
    },
    {
      "midi": 50,
      "hit": false,
      "t": 169078.125,
      "d": 1687.5,
      "v": 59
    },
    {
      "midi": 57,
      "hit": false,
      "t": 169234.375,
      "d": 1093.75,
      "v": 60
    },
    {
      "midi": 62,
      "hit": false,
      "t": 169343.75,
      "d": 1421.875,
      "v": 66
    },
    {
      "midi": 66,
      "hit": false,
      "t": 169453.125,
      "d": 1359.375,
      "v": 64
    },
    {
      "midi": 69,
      "hit": false,
      "t": 169531.25,
      "d": 1453.125,
      "v": 62
    },
    {
      "midi": 55,
      "hit": false,
      "t": 170921.875,
      "d": 390.625,
      "v": 30
    },
    {
      "midi": 59,
      "hit": false,
      "t": 170968.75,
      "d": 703.125,
      "v": 53
    },
    {
      "midi": 67,
      "hit": false,
      "t": 170984.375,
      "d": 1593.75,
      "v": 72
    },
    {
      "midi": 71,
      "hit": false,
      "t": 171000,
      "d": 2687.5,
      "v": 67
    },
    {
      "midi": 55,
      "hit": false,
      "t": 172421.875,
      "d": 906.25,
      "v": 43
    },
    {
      "midi": 59,
      "hit": false,
      "t": 172453.125,
      "d": 1078.125,
      "v": 55
    },
    {
      "midi": 62,
      "hit": false,
      "t": 172500,
      "d": 1000,
      "v": 66
    },
    {
      "midi": 67,
      "hit": false,
      "t": 173234.375,
      "d": 546.875,
      "v": 65
    },
    {
      "midi": 57,
      "hit": false,
      "t": 173687.5,
      "d": 2046.875,
      "v": 64
    },
    {
      "midi": 60,
      "hit": false,
      "t": 173781.25,
      "d": 1843.75,
      "v": 52
    },
    {
      "midi": 62,
      "hit": false,
      "t": 173875,
      "d": 1390.625,
      "v": 48
    },
    {
      "midi": 66,
      "hit": false,
      "t": 173953.125,
      "d": 1687.5,
      "v": 61
    },
    {
      "midi": 69,
      "hit": false,
      "t": 174062.5,
      "d": 828.125,
      "v": 74
    },
    {
      "midi": 72,
      "hit": false,
      "t": 174765.625,
      "d": 796.875,
      "v": 77
    },
    {
      "midi": 59,
      "hit": false,
      "t": 175390.625,
      "d": 1296.875,
      "v": 70
    },
    {
      "midi": 62,
      "hit": false,
      "t": 175437.5,
      "d": 1218.75,
      "v": 63
    },
    {
      "midi": 67,
      "hit": false,
      "t": 175515.625,
      "d": 2687.5,
      "v": 73
    },
    {
      "midi": 71,
      "hit": false,
      "t": 175531.25,
      "d": 2656.25,
      "v": 74
    },
    {
      "midi": 74,
      "hit": false,
      "t": 175562.5,
      "d": 2656.25,
      "v": 67
    },
    {
      "midi": 62,
      "hit": false,
      "t": 176968.75,
      "d": 1156.25,
      "v": 66
    },
    {
      "midi": 59,
      "hit": false,
      "t": 176968.75,
      "d": 1187.5,
      "v": 66
    },
    {
      "midi": 59,
      "hit": false,
      "t": 178421.875,
      "d": 1281.25,
      "v": 61
    },
    {
      "midi": 71,
      "hit": false,
      "t": 178437.5,
      "d": 625,
      "v": 72
    },
    {
      "midi": 74,
      "hit": false,
      "t": 178437.5,
      "d": 656.25,
      "v": 66
    },
    {
      "midi": 67,
      "hit": false,
      "t": 178437.5,
      "d": 765.625,
      "v": 65
    },
    {
      "midi": 62,
      "hit": false,
      "t": 178453.125,
      "d": 1078.125,
      "v": 53
    },
    {
      "midi": 60,
      "hit": false,
      "t": 179734.375,
      "d": 3156.25,
      "v": 81
    },
    {
      "midi": 66,
      "hit": false,
      "t": 179859.375,
      "d": 1656.25,
      "v": 52
    },
    {
      "midi": 67,
      "hit": false,
      "t": 179921.875,
      "d": 3234.375,
      "v": 66
    },
    {
      "midi": 72,
      "hit": false,
      "t": 179968.75,
      "d": 3093.75,
      "v": 80
    },
    {
      "midi": 64,
      "hit": false,
      "t": 181468.75,
      "d": 1078.125,
      "v": 55
    },
    {
      "midi": 48,
      "hit": false,
      "t": 181468.75,
      "d": 1500,
      "v": 71
    },
    {
      "midi": 50,
      "hit": false,
      "t": 182906.25,
      "d": 1312.5,
      "v": 74
    },
    {
      "midi": 62,
      "hit": false,
      "t": 182921.875,
      "d": 968.75,
      "v": 58
    },
    {
      "midi": 66,
      "hit": false,
      "t": 182953.125,
      "d": 953.125,
      "v": 61
    },
    {
      "midi": 69,
      "hit": false,
      "t": 183000,
      "d": 1218.75,
      "v": 45
    },
    {
      "midi": 52,
      "hit": false,
      "t": 184187.5,
      "d": 1593.75,
      "v": 69
    },
    {
      "midi": 55,
      "hit": false,
      "t": 184265.625,
      "d": 1500,
      "v": 65
    },
    {
      "midi": 62,
      "hit": false,
      "t": 184421.875,
      "d": 1062.5,
      "v": 61
    },
    {
      "midi": 67,
      "hit": false,
      "t": 184484.375,
      "d": 3953.125,
      "v": 69
    },
    {
      "midi": 61,
      "hit": false,
      "t": 185906.25,
      "d": 2218.75,
      "v": 55
    },
    {
      "midi": 69,
      "hit": false,
      "t": 185984.375,
      "d": 2218.75,
      "v": 50
    },
    {
      "midi": 55,
      "hit": false,
      "t": 186000,
      "d": 1093.75,
      "v": 44
    },
    {
      "midi": 52,
      "hit": false,
      "t": 186015.625,
      "d": 1015.625,
      "v": 35
    },
    {
      "midi": 52,
      "hit": false,
      "t": 187515.625,
      "d": 1218.75,
      "v": 58
    },
    {
      "midi": 55,
      "hit": false,
      "t": 187562.5,
      "d": 1000,
      "v": 46
    },
    {
      "midi": 50,
      "hit": false,
      "t": 188656.25,
      "d": 1750,
      "v": 59
    },
    {
      "midi": 54,
      "hit": false,
      "t": 188750,
      "d": 3046.875,
      "v": 36
    },
    {
      "midi": 57,
      "hit": false,
      "t": 188828.125,
      "d": 2593.75,
      "v": 56
    },
    {
      "midi": 62,
      "hit": false,
      "t": 188875,
      "d": 4187.5,
      "v": 71
    },
    {
      "midi": 66,
      "hit": false,
      "t": 188953.125,
      "d": 2921.875,
      "v": 68
    },
    {
      "midi": 69,
      "hit": false,
      "t": 189046.875,
      "d": 2843.75,
      "v": 69
    },
    {
      "midi": 48,
      "hit": false,
      "t": 190468.75,
      "d": 703.125,
      "v": 73
    },
    {
      "midi": 47,
      "hit": false,
      "t": 191750,
      "d": 1515.625,
      "v": 51
    },
    {
      "midi": 55,
      "hit": false,
      "t": 191812.5,
      "d": 3000,
      "v": 60
    },
    {
      "midi": 67,
      "hit": false,
      "t": 191906.25,
      "d": 4562.5,
      "v": 74
    },
    {
      "midi": 71,
      "hit": false,
      "t": 191968.75,
      "d": 1546.875,
      "v": 62
    },
    {
      "midi": 48,
      "hit": false,
      "t": 193437.5,
      "d": 1453.125,
      "v": 74
    },
    {
      "midi": 64,
      "hit": false,
      "t": 193484.375,
      "d": 1046.875,
      "v": 58
    },
    {
      "midi": 50,
      "hit": false,
      "t": 194859.375,
      "d": 812.5,
      "v": 80
    },
    {
      "midi": 62,
      "hit": false,
      "t": 194953.125,
      "d": 2484.375,
      "v": 70
    },
    {
      "midi": 69,
      "hit": false,
      "t": 195015.625,
      "d": 2875,
      "v": 61
    },
    {
      "midi": 50,
      "hit": false,
      "t": 196390.625,
      "d": 1140.625,
      "v": 53
    },
    {
      "midi": 66,
      "hit": false,
      "t": 196468.75,
      "d": 984.375,
      "v": 73
    },
    {
      "midi": 52,
      "hit": false,
      "t": 197671.875,
      "d": 2218.75,
      "v": 51
    },
    {
      "midi": 59,
      "hit": false,
      "t": 197796.875,
      "d": 1750,
      "v": 76
    },
    {
      "midi": 62,
      "hit": false,
      "t": 197921.875,
      "d": 1468.75,
      "v": 64
    },
    {
      "midi": 67,
      "hit": false,
      "t": 198015.625,
      "d": 2328.125,
      "v": 79
    },
    {
      "midi": 60,
      "hit": false,
      "t": 202421.875,
      "d": 1046.875,
      "v": 40
    },
    {
      "midi": 64,
      "hit": false,
      "t": 202453.125,
      "d": 1406.25,
      "v": 55
    },
    {
      "midi": 67,
      "hit": false,
      "t": 202500,
      "d": 2890.625,
      "v": 50
    },
    {
      "midi": 69,
      "hit": false,
      "t": 202515.625,
      "d": 1484.375,
      "v": 53
    },
    {
      "midi": 48,
      "hit": false,
      "t": 202562.5,
      "d": 1468.75,
      "v": 35
    },
    {
      "midi": 57,
      "hit": false,
      "t": 202562.5,
      "d": 1515.625,
      "v": 41
    },
    {
      "midi": 50,
      "hit": false,
      "t": 203953.125,
      "d": 828.125,
      "v": 71
    },
    {
      "midi": 62,
      "hit": false,
      "t": 204000,
      "d": 1328.125,
      "v": 41
    },
    {
      "midi": 71,
      "hit": false,
      "t": 204046.875,
      "d": 1250,
      "v": 64
    },
    {
      "midi": 69,
      "hit": false,
      "t": 205406.25,
      "d": 984.375,
      "v": 61
    },
    {
      "midi": 50,
      "hit": false,
      "t": 205421.875,
      "d": 609.375,
      "v": 53
    },
    {
      "midi": 66,
      "hit": false,
      "t": 205421.875,
      "d": 859.375,
      "v": 71
    },
    {
      "midi": 60,
      "hit": false,
      "t": 205453.125,
      "d": 921.875,
      "v": 48
    },
    {
      "midi": 55,
      "hit": false,
      "t": 206937.5,
      "d": 1140.625,
      "v": 51
    },
    {
      "midi": 59,
      "hit": false,
      "t": 206968.75,
      "d": 1171.875,
      "v": 57
    },
    {
      "midi": 62,
      "hit": false,
      "t": 207015.625,
      "d": 1281.25,
      "v": 70
    },
    {
      "midi": 67,
      "hit": false,
      "t": 207734.375,
      "d": 1000,
      "v": 72
    },
    {
      "midi": 55,
      "hit": false,
      "t": 208343.75,
      "d": 937.5,
      "v": 60
    },
    {
      "midi": 59,
      "hit": false,
      "t": 208390.625,
      "d": 1187.5,
      "v": 49
    },
    {
      "midi": 62,
      "hit": false,
      "t": 208453.125,
      "d": 1093.75,
      "v": 73
    },
    {
      "midi": 71,
      "hit": false,
      "t": 208531.25,
      "d": 937.5,
      "v": 84
    },
    {
      "midi": 67,
      "hit": false,
      "t": 209234.375,
      "d": 484.375,
      "v": 82
    },
    {
      "midi": 57,
      "hit": false,
      "t": 209656.25,
      "d": 1734.375,
      "v": 72
    },
    {
      "midi": 60,
      "hit": false,
      "t": 209750,
      "d": 1640.625,
      "v": 70
    },
    {
      "midi": 62,
      "hit": false,
      "t": 209843.75,
      "d": 1312.5,
      "v": 49
    },
    {
      "midi": 69,
      "hit": false,
      "t": 209953.125,
      "d": 921.875,
      "v": 77
    },
    {
      "midi": 72,
      "hit": false,
      "t": 210062.5,
      "d": 1265.625,
      "v": 90
    },
    {
      "midi": 66,
      "hit": false,
      "t": 210750,
      "d": 328.125,
      "v": 81
    },
    {
      "midi": 59,
      "hit": false,
      "t": 211218.75,
      "d": 1421.875,
      "v": 67
    },
    {
      "midi": 62,
      "hit": false,
      "t": 211328.125,
      "d": 1203.125,
      "v": 57
    },
    {
      "midi": 67,
      "hit": false,
      "t": 211406.25,
      "d": 2718.75,
      "v": 59
    },
    {
      "midi": 71,
      "hit": false,
      "t": 211468.75,
      "d": 2593.75,
      "v": 69
    },
    {
      "midi": 74,
      "hit": false,
      "t": 211578.125,
      "d": 2562.5,
      "v": 82
    },
    {
      "midi": 59,
      "hit": false,
      "t": 213015.625,
      "d": 953.125,
      "v": 63
    },
    {
      "midi": 62,
      "hit": false,
      "t": 213031.25,
      "d": 906.25,
      "v": 49
    },
    {
      "midi": 74,
      "hit": false,
      "t": 214500,
      "d": 656.25,
      "v": 70
    },
    {
      "midi": 59,
      "hit": false,
      "t": 214500,
      "d": 1250,
      "v": 61
    },
    {
      "midi": 62,
      "hit": false,
      "t": 214515.625,
      "d": 1078.125,
      "v": 56
    },
    {
      "midi": 71,
      "hit": false,
      "t": 214531.25,
      "d": 625,
      "v": 70
    },
    {
      "midi": 67,
      "hit": false,
      "t": 214531.25,
      "d": 734.375,
      "v": 66
    },
    {
      "midi": 60,
      "hit": false,
      "t": 215656.25,
      "d": 3234.375,
      "v": 74
    },
    {
      "midi": 64,
      "hit": false,
      "t": 215687.5,
      "d": 250,
      "v": 49
    },
    {
      "midi": 66,
      "hit": false,
      "t": 215796.875,
      "d": 1531.25,
      "v": 74
    },
    {
      "midi": 67,
      "hit": false,
      "t": 215875,
      "d": 4046.875,
      "v": 58
    },
    {
      "midi": 72,
      "hit": false,
      "t": 215906.25,
      "d": 2750,
      "v": 82
    },
    {
      "midi": 64,
      "hit": false,
      "t": 217421.875,
      "d": 1218.75,
      "v": 66
    },
    {
      "midi": 48,
      "hit": false,
      "t": 217421.875,
      "d": 1578.125,
      "v": 70
    },
    {
      "midi": 71,
      "hit": false,
      "t": 218953.125,
      "d": 1015.625,
      "v": 54
    },
    {
      "midi": 50,
      "hit": false,
      "t": 218968.75,
      "d": 1234.375,
      "v": 70
    },
    {
      "midi": 62,
      "hit": false,
      "t": 218984.375,
      "d": 906.25,
      "v": 55
    },
    {
      "midi": 52,
      "hit": false,
      "t": 220171.875,
      "d": 2734.375,
      "v": 59
    },
    {
      "midi": 55,
      "hit": false,
      "t": 220328.125,
      "d": 2578.125,
      "v": 61
    },
    {
      "midi": 62,
      "hit": false,
      "t": 220421.875,
      "d": 1078.125,
      "v": 69
    },
    {
      "midi": 67,
      "hit": false,
      "t": 220421.875,
      "d": 3437.5,
      "v": 70
    },
    {
      "midi": 69,
      "hit": false,
      "t": 220421.875,
      "d": 3437.5,
      "v": 70
    },
    {
      "midi": 61,
      "hit": false,
      "t": 221968.75,
      "d": 1921.875,
      "v": 60
    },
    {
      "midi": 52,
      "hit": false,
      "t": 223546.875,
      "d": 1281.25,
      "v": 59
    },
    {
      "midi": 55,
      "hit": false,
      "t": 223578.125,
      "d": 1062.5,
      "v": 56
    },
    {
      "midi": 69,
      "hit": false,
      "t": 224156.25,
      "d": 421.875,
      "v": 53
    },
    {
      "midi": 67,
      "hit": false,
      "t": 224203.125,
      "d": 453.125,
      "v": 47
    },
    {
      "midi": 61,
      "hit": false,
      "t": 224234.375,
      "d": 359.375,
      "v": 54
    },
    {
      "midi": 50,
      "hit": false,
      "t": 224765.625,
      "d": 1734.375,
      "v": 62
    },
    {
      "midi": 54,
      "hit": false,
      "t": 224843.75,
      "d": 2765.625,
      "v": 58
    },
    {
      "midi": 57,
      "hit": false,
      "t": 224906.25,
      "d": 2484.375,
      "v": 53
    },
    {
      "midi": 62,
      "hit": false,
      "t": 224953.125,
      "d": 2703.125,
      "v": 64
    },
    {
      "midi": 66,
      "hit": false,
      "t": 225000,
      "d": 2828.125,
      "v": 62
    },
    {
      "midi": 69,
      "hit": false,
      "t": 225046.875,
      "d": 2953.125,
      "v": 66
    },
    {
      "midi": 48,
      "hit": false,
      "t": 226421.875,
      "d": 1156.25,
      "v": 73
    },
    {
      "midi": 47,
      "hit": false,
      "t": 227906.25,
      "d": 1015.625,
      "v": 67
    },
    {
      "midi": 62,
      "hit": false,
      "t": 227937.5,
      "d": 1093.75,
      "v": 50
    },
    {
      "midi": 55,
      "hit": false,
      "t": 227937.5,
      "d": 1171.875,
      "v": 59
    },
    {
      "midi": 67,
      "hit": false,
      "t": 227968.75,
      "d": 1312.5,
      "v": 70
    },
    {
      "midi": 48,
      "hit": false,
      "t": 229406.25,
      "d": 765.625,
      "v": 71
    },
    {
      "midi": 64,
      "hit": false,
      "t": 229421.875,
      "d": 953.125,
      "v": 61
    },
    {
      "midi": 67,
      "hit": false,
      "t": 229468.75,
      "d": 984.375,
      "v": 64
    },
    {
      "midi": 50,
      "hit": false,
      "t": 230703.125,
      "d": 3156.25,
      "v": 70
    },
    {
      "midi": 62,
      "hit": false,
      "t": 230921.875,
      "d": 2375,
      "v": 65
    },
    {
      "midi": 67,
      "hit": false,
      "t": 230953.125,
      "d": 1109.375,
      "v": 70
    },
    {
      "midi": 69,
      "hit": false,
      "t": 230984.375,
      "d": 2484.375,
      "v": 63
    },
    {
      "midi": 60,
      "hit": false,
      "t": 232468.75,
      "d": 890.625,
      "v": 68
    },
    {
      "midi": 66,
      "hit": false,
      "t": 232484.375,
      "d": 1000,
      "v": 63
    },
    {
      "midi": 55,
      "hit": false,
      "t": 233750,
      "d": 3906.25,
      "v": 62
    },
    {
      "midi": 59,
      "hit": false,
      "t": 233937.5,
      "d": 4093.75,
      "v": 58
    },
    {
      "midi": 62,
      "hit": false,
      "t": 234046.875,
      "d": 4203.125,
      "v": 64
    },
    {
      "midi": 67,
      "hit": false,
      "t": 234156.25,
      "d": 4312.5,
      "v": 67
    }
  ]
}