{
  "jsonPath": "Rock/Album Rock/Daryl Hall  John Oates/maneater.json",
  "path": "Rock\\Album Rock\\Daryl Hall  John Oates\\Maneater.mid",
  "name": "Maneater",
  "difficulty": "Advanced",
  "bpm": 178.00034413399865,
  "notes": [
    {
      "midi": 35,
      "hit": false,
      "t": 12134.808,
      "d": 2682.579083333334,
      "v": 60
    },
    {
      "midi": 47,
      "hit": false,
      "t": 12134.808,
      "d": 2682.579083333334,
      "v": 60
    },
    {
      "midi": 59,
      "hit": false,
      "t": 12134.808,
      "d": 2682.579083333334,
      "v": 60
    },
    {
      "midi": 62,
      "hit": false,
      "t": 12134.808,
      "d": 2682.579083333334,
      "v": 60
    },
    {
      "midi": 66,
      "hit": false,
      "t": 12134.808,
      "d": 2696.624,
      "v": 60
    },
    {
      "midi": 33,
      "hit": false,
      "t": 14831.432,
      "d": 2682.579083333334,
      "v": 60
    },
    {
      "midi": 45,
      "hit": false,
      "t": 14831.432,
      "d": 2682.579083333334,
      "v": 60
    },
    {
      "midi": 57,
      "hit": false,
      "t": 14831.432,
      "d": 2682.579083333334,
      "v": 60
    },
    {
      "midi": 61,
      "hit": false,
      "t": 14831.432,
      "d": 2682.579083333334,
      "v": 60
    },
    {
      "midi": 64,
      "hit": false,
      "t": 14831.432,
      "d": 2696.624,
      "v": 60
    },
    {
      "midi": 31,
      "hit": false,
      "t": 17528.056,
      "d": 2682.579083333334,
      "v": 60
    },
    {
      "midi": 43,
      "hit": false,
      "t": 17528.056,
      "d": 2682.579083333334,
      "v": 60
    },
    {
      "midi": 55,
      "hit": false,
      "t": 17528.056,
      "d": 2682.579083333334,
      "v": 60
    },
    {
      "midi": 59,
      "hit": false,
      "t": 17528.056,
      "d": 2682.579083333334,
      "v": 60
    },
    {
      "midi": 62,
      "hit": false,
      "t": 17528.056,
      "d": 2696.624,
      "v": 60
    },
    {
      "midi": 33,
      "hit": false,
      "t": 20224.68,
      "d": 2682.579083333334,
      "v": 60
    },
    {
      "midi": 45,
      "hit": false,
      "t": 20224.68,
      "d": 2682.579083333334,
      "v": 60
    },
    {
      "midi": 57,
      "hit": false,
      "t": 20224.68,
      "d": 2682.579083333334,
      "v": 60
    },
    {
      "midi": 61,
      "hit": false,
      "t": 20224.68,
      "d": 2682.579083333334,
      "v": 60
    },
    {
      "midi": 64,
      "hit": false,
      "t": 20224.68,
      "d": 2696.624,
      "v": 60
    },
    {
      "midi": 35,
      "hit": false,
      "t": 22921.304,
      "d": 2682.579083333334,
      "v": 60
    },
    {
      "midi": 47,
      "hit": false,
      "t": 22921.304,
      "d": 2682.579083333334,
      "v": 60
    },
    {
      "midi": 59,
      "hit": false,
      "t": 22921.304,
      "d": 2682.579083333334,
      "v": 60
    },
    {
      "midi": 62,
      "hit": false,
      "t": 22921.304,
      "d": 2682.579083333334,
      "v": 60
    },
    {
      "midi": 66,
      "hit": false,
      "t": 22921.304,
      "d": 2696.624,
      "v": 60
    },
    {
      "midi": 33,
      "hit": false,
      "t": 25617.928,
      "d": 2668.534166666668,
      "v": 60
    },
    {
      "midi": 45,
      "hit": false,
      "t": 25617.928,
      "d": 2668.534166666668,
      "v": 60
    },
    {
      "midi": 57,
      "hit": false,
      "t": 25617.928,
      "d": 2668.534166666668,
      "v": 60
    },
    {
      "midi": 61,
      "hit": false,
      "t": 25617.928,
      "d": 2668.534166666668,
      "v": 60
    },
    {
      "midi": 64,
      "hit": false,
      "t": 25617.928,
      "d": 2682.579083333334,
      "v": 60
    },
    {
      "midi": 31,
      "hit": false,
      "t": 28300.507083333334,
      "d": 2682.579083333334,
      "v": 60
    },
    {
      "midi": 43,
      "hit": false,
      "t": 28300.507083333334,
      "d": 2682.579083333334,
      "v": 60
    },
    {
      "midi": 55,
      "hit": false,
      "t": 28300.507083333334,
      "d": 2682.579083333334,
      "v": 60
    },
    {
      "midi": 59,
      "hit": false,
      "t": 28300.507083333334,
      "d": 2682.579083333334,
      "v": 60
    },
    {
      "midi": 62,
      "hit": false,
      "t": 28300.507083333334,
      "d": 2696.624,
      "v": 60
    },
    {
      "midi": 33,
      "hit": false,
      "t": 30997.131083333334,
      "d": 2682.5790833333303,
      "v": 60
    },
    {
      "midi": 45,
      "hit": false,
      "t": 30997.131083333334,
      "d": 2682.5790833333303,
      "v": 60
    },
    {
      "midi": 57,
      "hit": false,
      "t": 30997.131083333334,
      "d": 2682.5790833333303,
      "v": 60
    },
    {
      "midi": 61,
      "hit": false,
      "t": 30997.131083333334,
      "d": 2682.5790833333303,
      "v": 60
    },
    {
      "midi": 64,
      "hit": false,
      "t": 30997.131083333334,
      "d": 2696.623999999996,
      "v": 60
    },
    {
      "midi": 35,
      "hit": false,
      "t": 33693.75508333333,
      "d": 2682.5790833333303,
      "v": 60
    },
    {
      "midi": 47,
      "hit": false,
      "t": 33693.75508333333,
      "d": 2682.5790833333303,
      "v": 60
    },
    {
      "midi": 59,
      "hit": false,
      "t": 33693.75508333333,
      "d": 2682.5790833333303,
      "v": 60
    },
    {
      "midi": 62,
      "hit": false,
      "t": 33693.75508333333,
      "d": 2682.5790833333303,
      "v": 60
    },
    {
      "midi": 66,
      "hit": false,
      "t": 33693.75508333333,
      "d": 2696.623999999996,
      "v": 60
    },
    {
      "midi": 33,
      "hit": false,
      "t": 36390.379083333326,
      "d": 2682.5790833333303,
      "v": 60
    },
    {
      "midi": 45,
      "hit": false,
      "t": 36390.379083333326,
      "d": 2682.5790833333303,
      "v": 60
    },
    {
      "midi": 57,
      "hit": false,
      "t": 36390.379083333326,
      "d": 2682.5790833333303,
      "v": 60
    },
    {
      "midi": 61,
      "hit": false,
      "t": 36390.379083333326,
      "d": 2682.5790833333303,
      "v": 60
    },
    {
      "midi": 64,
      "hit": false,
      "t": 36390.379083333326,
      "d": 2696.623999999996,
      "v": 60
    },
    {
      "midi": 31,
      "hit": false,
      "t": 39087.00308333332,
      "d": 2682.5790833333303,
      "v": 60
    },
    {
      "midi": 43,
      "hit": false,
      "t": 39087.00308333332,
      "d": 2682.5790833333303,
      "v": 60
    },
    {
      "midi": 55,
      "hit": false,
      "t": 39087.00308333332,
      "d": 2682.5790833333303,
      "v": 60
    },
    {
      "midi": 59,
      "hit": false,
      "t": 39087.00308333332,
      "d": 2682.5790833333303,
      "v": 60
    },
    {
      "midi": 62,
      "hit": false,
      "t": 39087.00308333332,
      "d": 2696.623999999996,
      "v": 60
    },
    {
      "midi": 33,
      "hit": false,
      "t": 41783.62708333332,
      "d": 2682.5790833333303,
      "v": 60
    },
    {
      "midi": 45,
      "hit": false,
      "t": 41783.62708333332,
      "d": 2682.5790833333303,
      "v": 60
    },
    {
      "midi": 57,
      "hit": false,
      "t": 41783.62708333332,
      "d": 2682.5790833333303,
      "v": 60
    },
    {
      "midi": 61,
      "hit": false,
      "t": 41783.62708333332,
      "d": 2682.5790833333303,
      "v": 60
    },
    {
      "midi": 64,
      "hit": false,
      "t": 41783.62708333332,
      "d": 2696.623999999996,
      "v": 60
    },
    {
      "midi": 38,
      "hit": false,
      "t": 44480.251083333314,
      "d": 2682.5790833333303,
      "v": 60
    },
    {
      "midi": 50,
      "hit": false,
      "t": 44480.251083333314,
      "d": 2682.5790833333303,
      "v": 60
    },
    {
      "midi": 66,
      "hit": false,
      "t": 44480.251083333314,
      "d": 2682.5790833333303,
      "v": 60
    },
    {
      "midi": 69,
      "hit": false,
      "t": 44480.251083333314,
      "d": 2682.5790833333303,
      "v": 60
    },
    {
      "midi": 62,
      "hit": false,
      "t": 44480.251083333314,
      "d": 2696.623999999996,
      "v": 60
    },
    {
      "midi": 33,
      "hit": false,
      "t": 47176.87508333331,
      "d": 2682.5790833333303,
      "v": 60
    },
    {
      "midi": 45,
      "hit": false,
      "t": 47176.87508333331,
      "d": 2682.5790833333303,
      "v": 60
    },
    {
      "midi": 61,
      "hit": false,
      "t": 47176.87508333331,
      "d": 2682.5790833333303,
      "v": 60
    },
    {
      "midi": 64,
      "hit": false,
      "t": 47176.87508333331,
      "d": 2682.5790833333303,
      "v": 60
    },
    {
      "midi": 69,
      "hit": false,
      "t": 47176.87508333331,
      "d": 2696.623999999996,
      "v": 60
    },
    {
      "midi": 36,
      "hit": false,
      "t": 49873.49908333331,
      "d": 2682.5790833333303,
      "v": 60
    },
    {
      "midi": 48,
      "hit": false,
      "t": 49873.49908333331,
      "d": 2682.5790833333303,
      "v": 60
    },
    {
      "midi": 60,
      "hit": false,
      "t": 49873.49908333331,
      "d": 2682.5790833333303,
      "v": 60
    },
    {
      "midi": 64,
      "hit": false,
      "t": 49873.49908333331,
      "d": 2682.5790833333303,
      "v": 60
    },
    {
      "midi": 67,
      "hit": false,
      "t": 49873.49908333331,
      "d": 2696.623999999996,
      "v": 60
    },
    {
      "midi": 35,
      "hit": false,
      "t": 52570.1230833333,
      "d": 2682.5790833333303,
      "v": 60
    },
    {
      "midi": 47,
      "hit": false,
      "t": 52570.1230833333,
      "d": 2682.5790833333303,
      "v": 60
    },
    {
      "midi": 59,
      "hit": false,
      "t": 52570.1230833333,
      "d": 2682.5790833333303,
      "v": 60
    },
    {
      "midi": 63,
      "hit": false,
      "t": 52570.1230833333,
      "d": 2682.5790833333303,
      "v": 60
    },
    {
      "midi": 66,
      "hit": false,
      "t": 52570.1230833333,
      "d": 2696.623999999996,
      "v": 60
    },
    {
      "midi": 40,
      "hit": false,
      "t": 55266.7470833333,
      "d": 2682.5790833333303,
      "v": 60
    },
    {
      "midi": 52,
      "hit": false,
      "t": 55266.7470833333,
      "d": 2682.5790833333303,
      "v": 60
    },
    {
      "midi": 55,
      "hit": false,
      "t": 55266.7470833333,
      "d": 2682.5790833333303,
      "v": 60
    },
    {
      "midi": 62,
      "hit": false,
      "t": 55266.7470833333,
      "d": 2682.5790833333303,
      "v": 60
    },
    {
      "midi": 45,
      "hit": false,
      "t": 57963.371083333295,
      "d": 1334.2670833333323,
      "v": 60
    },
    {
      "midi": 57,
      "hit": false,
      "t": 57963.371083333295,
      "d": 1334.2670833333323,
      "v": 60
    },
    {
      "midi": 61,
      "hit": false,
      "t": 57963.371083333295,
      "d": 1334.2670833333323,
      "v": 60
    },
    {
      "midi": 64,
      "hit": false,
      "t": 57963.371083333295,
      "d": 1334.2670833333323,
      "v": 60
    },
    {
      "midi": 46,
      "hit": false,
      "t": 59311.68308333329,
      "d": 1334.2670833333323,
      "v": 60
    },
    {
      "midi": 58,
      "hit": false,
      "t": 59311.68308333329,
      "d": 1334.2670833333323,
      "v": 60
    },
    {
      "midi": 61,
      "hit": false,
      "t": 59311.68308333329,
      "d": 1334.2670833333323,
      "v": 60
    },
    {
      "midi": 64,
      "hit": false,
      "t": 59311.68308333329,
      "d": 1334.2670833333323,
      "v": 60
    },
    {
      "midi": 47,
      "hit": false,
      "t": 60659.99508333329,
      "d": 2008.423083333335,
      "v": 60
    },
    {
      "midi": 59,
      "hit": false,
      "t": 60659.99508333329,
      "d": 2008.423083333335,
      "v": 60
    },
    {
      "midi": 62,
      "hit": false,
      "t": 60659.99508333329,
      "d": 2008.423083333335,
      "v": 60
    },
    {
      "midi": 66,
      "hit": false,
      "t": 60659.99508333329,
      "d": 2008.423083333335,
      "v": 60
    },
    {
      "midi": 45,
      "hit": false,
      "t": 62682.46308333329,
      "d": 646.0661666666638,
      "v": 60
    },
    {
      "midi": 57,
      "hit": false,
      "t": 62682.46308333329,
      "d": 646.0661666666638,
      "v": 60
    },
    {
      "midi": 61,
      "hit": false,
      "t": 62682.46308333329,
      "d": 646.0661666666638,
      "v": 60
    },
    {
      "midi": 64,
      "hit": false,
      "t": 62682.46308333329,
      "d": 646.0661666666638,
      "v": 60
    },
    {
      "midi": 47,
      "hit": false,
      "t": 63356.61908333329,
      "d": 2682.5790833333376,
      "v": 60
    },
    {
      "midi": 59,
      "hit": false,
      "t": 63356.61908333329,
      "d": 2682.5790833333376,
      "v": 60
    },
    {
      "midi": 62,
      "hit": false,
      "t": 63356.61908333329,
      "d": 2682.5790833333376,
      "v": 60
    },
    {
      "midi": 66,
      "hit": false,
      "t": 63356.61908333329,
      "d": 2682.5790833333376,
      "v": 60
    },
    {
      "midi": 38,
      "hit": false,
      "t": 66053.24308333329,
      "d": 2682.5790833333303,
      "v": 60
    },
    {
      "midi": 50,
      "hit": false,
      "t": 66053.24308333329,
      "d": 2682.5790833333303,
      "v": 60
    },
    {
      "midi": 66,
      "hit": false,
      "t": 66053.24308333329,
      "d": 2682.5790833333303,
      "v": 60
    },
    {
      "midi": 69,
      "hit": false,
      "t": 66053.24308333329,
      "d": 2682.5790833333303,
      "v": 60
    },
    {
      "midi": 62,
      "hit": false,
      "t": 66053.24308333329,
      "d": 2696.623999999996,
      "v": 60
    },
    {
      "midi": 33,
      "hit": false,
      "t": 68749.86708333329,
      "d": 2682.5790833333303,
      "v": 60
    },
    {
      "midi": 45,
      "hit": false,
      "t": 68749.86708333329,
      "d": 2682.5790833333303,
      "v": 60
    },
    {
      "midi": 61,
      "hit": false,
      "t": 68749.86708333329,
      "d": 2682.5790833333303,
      "v": 60
    },
    {
      "midi": 64,
      "hit": false,
      "t": 68749.86708333329,
      "d": 2682.5790833333303,
      "v": 60
    },
    {
      "midi": 69,
      "hit": false,
      "t": 68749.86708333329,
      "d": 2696.623999999996,
      "v": 60
    },
    {
      "midi": 36,
      "hit": false,
      "t": 71446.49108333328,
      "d": 2682.5790833333303,
      "v": 60
    },
    {
      "midi": 48,
      "hit": false,
      "t": 71446.49108333328,
      "d": 2682.5790833333303,
      "v": 60
    },
    {
      "midi": 60,
      "hit": false,
      "t": 71446.49108333328,
      "d": 2682.5790833333303,
      "v": 60
    },
    {
      "midi": 64,
      "hit": false,
      "t": 71446.49108333328,
      "d": 2682.5790833333303,
      "v": 60
    },
    {
      "midi": 67,
      "hit": false,
      "t": 71446.49108333328,
      "d": 2696.623999999996,
      "v": 60
    },
    {
      "midi": 35,
      "hit": false,
      "t": 74143.11508333328,
      "d": 2682.5790833333303,
      "v": 60
    },
    {
      "midi": 47,
      "hit": false,
      "t": 74143.11508333328,
      "d": 2682.5790833333303,
      "v": 60
    },
    {
      "midi": 59,
      "hit": false,
      "t": 74143.11508333328,
      "d": 2682.5790833333303,
      "v": 60
    },
    {
      "midi": 63,
      "hit": false,
      "t": 74143.11508333328,
      "d": 2682.5790833333303,
      "v": 60
    },
    {
      "midi": 66,
      "hit": false,
      "t": 74143.11508333328,
      "d": 2696.623999999996,
      "v": 60
    },
    {
      "midi": 40,
      "hit": false,
      "t": 76839.73908333328,
      "d": 2682.5790833333303,
      "v": 60
    },
    {
      "midi": 52,
      "hit": false,
      "t": 76839.73908333328,
      "d": 2682.5790833333303,
      "v": 60
    },
    {
      "midi": 55,
      "hit": false,
      "t": 76839.73908333328,
      "d": 2682.5790833333303,
      "v": 60
    },
    {
      "midi": 62,
      "hit": false,
      "t": 76839.73908333328,
      "d": 2682.5790833333303,
      "v": 60
    },
    {
      "midi": 45,
      "hit": false,
      "t": 79536.36308333327,
      "d": 1334.2670833333395,
      "v": 60
    },
    {
      "midi": 57,
      "hit": false,
      "t": 79536.36308333327,
      "d": 1334.2670833333395,
      "v": 60
    },
    {
      "midi": 61,
      "hit": false,
      "t": 79536.36308333327,
      "d": 1334.2670833333395,
      "v": 60
    },
    {
      "midi": 64,
      "hit": false,
      "t": 79536.36308333327,
      "d": 1334.2670833333395,
      "v": 60
    },
    {
      "midi": 46,
      "hit": false,
      "t": 80884.67508333328,
      "d": 1334.2670833333395,
      "v": 60
    },
    {
      "midi": 58,
      "hit": false,
      "t": 80884.67508333328,
      "d": 1334.2670833333395,
      "v": 60
    },
    {
      "midi": 61,
      "hit": false,
      "t": 80884.67508333328,
      "d": 1334.2670833333395,
      "v": 60
    },
    {
      "midi": 64,
      "hit": false,
      "t": 80884.67508333328,
      "d": 1334.2670833333395,
      "v": 60
    },
    {
      "midi": 47,
      "hit": false,
      "t": 82232.98708333328,
      "d": 2008.4230833333277,
      "v": 60
    },
    {
      "midi": 59,
      "hit": false,
      "t": 82232.98708333328,
      "d": 2008.4230833333277,
      "v": 60
    },
    {
      "midi": 62,
      "hit": false,
      "t": 82232.98708333328,
      "d": 2008.4230833333277,
      "v": 60
    },
    {
      "midi": 66,
      "hit": false,
      "t": 82232.98708333328,
      "d": 2008.4230833333277,
      "v": 60
    },
    {
      "midi": 45,
      "hit": false,
      "t": 84255.45508333328,
      "d": 646.066166666671,
      "v": 60
    },
    {
      "midi": 57,
      "hit": false,
      "t": 84255.45508333328,
      "d": 646.066166666671,
      "v": 60
    },
    {
      "midi": 61,
      "hit": false,
      "t": 84255.45508333328,
      "d": 646.066166666671,
      "v": 60
    },
    {
      "midi": 64,
      "hit": false,
      "t": 84255.45508333328,
      "d": 646.066166666671,
      "v": 60
    },
    {
      "midi": 47,
      "hit": false,
      "t": 84929.61108333328,
      "d": 2682.5790833333303,
      "v": 60
    },
    {
      "midi": 59,
      "hit": false,
      "t": 84929.61108333328,
      "d": 2682.5790833333303,
      "v": 60
    },
    {
      "midi": 63,
      "hit": false,
      "t": 84929.61108333328,
      "d": 2682.5790833333303,
      "v": 60
    },
    {
      "midi": 66,
      "hit": false,
      "t": 84929.61108333328,
      "d": 2682.5790833333303,
      "v": 60
    },
    {
      "midi": 35,
      "hit": false,
      "t": 87626.23508333327,
      "d": 2682.5790833333303,
      "v": 60
    },
    {
      "midi": 47,
      "hit": false,
      "t": 87626.23508333327,
      "d": 2682.5790833333303,
      "v": 60
    },
    {
      "midi": 59,
      "hit": false,
      "t": 87626.23508333327,
      "d": 2682.5790833333303,
      "v": 60
    },
    {
      "midi": 62,
      "hit": false,
      "t": 87626.23508333327,
      "d": 2682.5790833333303,
      "v": 60
    },
    {
      "midi": 66,
      "hit": false,
      "t": 87626.23508333327,
      "d": 2696.623999999996,
      "v": 60
    },
    {
      "midi": 33,
      "hit": false,
      "t": 90322.85908333327,
      "d": 2682.5790833333303,
      "v": 60
    },
    {
      "midi": 45,
      "hit": false,
      "t": 90322.85908333327,
      "d": 2682.5790833333303,
      "v": 60
    },
    {
      "midi": 57,
      "hit": false,
      "t": 90322.85908333327,
      "d": 2682.5790833333303,
      "v": 60
    },
    {
      "midi": 61,
      "hit": false,
      "t": 90322.85908333327,
      "d": 2682.5790833333303,
      "v": 60
    },
    {
      "midi": 64,
      "hit": false,
      "t": 90322.85908333327,
      "d": 2696.623999999996,
      "v": 60
    },
    {
      "midi": 31,
      "hit": false,
      "t": 93019.48308333327,
      "d": 2682.5790833333303,
      "v": 60
    },
    {
      "midi": 43,
      "hit": false,
      "t": 93019.48308333327,
      "d": 2682.5790833333303,
      "v": 60
    },
    {
      "midi": 55,
      "hit": false,
      "t": 93019.48308333327,
      "d": 2682.5790833333303,
      "v": 60
    },
    {
      "midi": 59,
      "hit": false,
      "t": 93019.48308333327,
      "d": 2682.5790833333303,
      "v": 60
    },
    {
      "midi": 62,
      "hit": false,
      "t": 93019.48308333327,
      "d": 2696.623999999996,
      "v": 60
    },
    {
      "midi": 66,
      "hit": false,
      "t": 93019.48308333327,
      "d": 2696.623999999996,
      "v": 60
    },
    {
      "midi": 30,
      "hit": false,
      "t": 95716.10708333326,
      "d": 1334.2670833333395,
      "v": 60
    },
    {
      "midi": 42,
      "hit": false,
      "t": 95716.10708333326,
      "d": 1334.2670833333395,
      "v": 60
    },
    {
      "midi": 54,
      "hit": false,
      "t": 95716.10708333326,
      "d": 1334.2670833333395,
      "v": 60
    },
    {
      "midi": 58,
      "hit": false,
      "t": 95716.10708333326,
      "d": 1334.2670833333395,
      "v": 60
    },
    {
      "midi": 61,
      "hit": false,
      "t": 95716.10708333326,
      "d": 1348.3120000000054,
      "v": 60
    },
    {
      "midi": 34,
      "hit": false,
      "t": 97064.41908333327,
      "d": 1334.2670833333395,
      "v": 60
    },
    {
      "midi": 46,
      "hit": false,
      "t": 97064.41908333327,
      "d": 1334.2670833333395,
      "v": 60
    },
    {
      "midi": 54,
      "hit": false,
      "t": 97064.41908333327,
      "d": 1334.2670833333395,
      "v": 60
    },
    {
      "midi": 61,
      "hit": false,
      "t": 97064.41908333327,
      "d": 1334.2670833333395,
      "v": 60
    },
    {
      "midi": 64,
      "hit": false,
      "t": 97064.41908333327,
      "d": 1348.3120000000054,
      "v": 60
    },
    {
      "midi": 35,
      "hit": false,
      "t": 98412.73108333327,
      "d": 2682.5790833333303,
      "v": 60
    },
    {
      "midi": 47,
      "hit": false,
      "t": 98412.73108333327,
      "d": 2682.5790833333303,
      "v": 60
    },
    {
      "midi": 59,
      "hit": false,
      "t": 98412.73108333327,
      "d": 2682.5790833333303,
      "v": 60
    },
    {
      "midi": 62,
      "hit": false,
      "t": 98412.73108333327,
      "d": 2682.5790833333303,
      "v": 60
    },
    {
      "midi": 66,
      "hit": false,
      "t": 98412.73108333327,
      "d": 2696.623999999996,
      "v": 60
    },
    {
      "midi": 33,
      "hit": false,
      "t": 101109.35508333327,
      "d": 2682.5790833333303,
      "v": 60
    },
    {
      "midi": 45,
      "hit": false,
      "t": 101109.35508333327,
      "d": 2682.5790833333303,
      "v": 60
    },
    {
      "midi": 57,
      "hit": false,
      "t": 101109.35508333327,
      "d": 2682.5790833333303,
      "v": 60
    },
    {
      "midi": 61,
      "hit": false,
      "t": 101109.35508333327,
      "d": 2682.5790833333303,
      "v": 60
    },
    {
      "midi": 64,
      "hit": false,
      "t": 101109.35508333327,
      "d": 2696.623999999996,
      "v": 60
    },
    {
      "midi": 40,
      "hit": false,
      "t": 103805.97908333327,
      "d": 2682.5790833333303,
      "v": 60
    },
    {
      "midi": 52,
      "hit": false,
      "t": 103805.97908333327,
      "d": 2682.5790833333303,
      "v": 60
    },
    {
      "midi": 55,
      "hit": false,
      "t": 103805.97908333327,
      "d": 2682.5790833333303,
      "v": 60
    },
    {
      "midi": 62,
      "hit": false,
      "t": 103805.97908333327,
      "d": 2682.5790833333303,
      "v": 60
    },
    {
      "midi": 31,
      "hit": false,
      "t": 106502.60308333326,
      "d": 1334.2670833333395,
      "v": 60
    },
    {
      "midi": 43,
      "hit": false,
      "t": 106502.60308333326,
      "d": 1334.2670833333395,
      "v": 60
    },
    {
      "midi": 55,
      "hit": false,
      "t": 106502.60308333326,
      "d": 1334.2670833333395,
      "v": 60
    },
    {
      "midi": 59,
      "hit": false,
      "t": 106502.60308333326,
      "d": 1334.2670833333395,
      "v": 60
    },
    {
      "midi": 62,
      "hit": false,
      "t": 106502.60308333326,
      "d": 1348.3120000000054,
      "v": 60
    },
    {
      "midi": 33,
      "hit": false,
      "t": 107850.91508333327,
      "d": 1334.2670833333395,
      "v": 60
    },
    {
      "midi": 45,
      "hit": false,
      "t": 107850.91508333327,
      "d": 1334.2670833333395,
      "v": 60
    },
    {
      "midi": 57,
      "hit": false,
      "t": 107850.91508333327,
      "d": 1334.2670833333395,
      "v": 60
    },
    {
      "midi": 61,
      "hit": false,
      "t": 107850.91508333327,
      "d": 1334.2670833333395,
      "v": 60
    },
    {
      "midi": 64,
      "hit": false,
      "t": 107850.91508333327,
      "d": 1348.3120000000054,
      "v": 60
    },
    {
      "midi": 35,
      "hit": false,
      "t": 109199.22708333327,
      "d": 2682.5790833333303,
      "v": 60
    },
    {
      "midi": 47,
      "hit": false,
      "t": 109199.22708333327,
      "d": 2682.5790833333303,
      "v": 60
    },
    {
      "midi": 59,
      "hit": false,
      "t": 109199.22708333327,
      "d": 2682.5790833333303,
      "v": 60
    },
    {
      "midi": 62,
      "hit": false,
      "t": 109199.22708333327,
      "d": 2682.5790833333303,
      "v": 60
    },
    {
      "midi": 66,
      "hit": false,
      "t": 109199.22708333327,
      "d": 2696.623999999996,
      "v": 60
    },
    {
      "midi": 35,
      "hit": false,
      "t": 111895.85108333327,
      "d": 2682.5790833333303,
      "v": 60
    },
    {
      "midi": 47,
      "hit": false,
      "t": 111895.85108333327,
      "d": 2682.5790833333303,
      "v": 60
    },
    {
      "midi": 59,
      "hit": false,
      "t": 111895.85108333327,
      "d": 2682.5790833333303,
      "v": 60
    },
    {
      "midi": 62,
      "hit": false,
      "t": 111895.85108333327,
      "d": 2682.5790833333303,
      "v": 60
    },
    {
      "midi": 66,
      "hit": false,
      "t": 111895.85108333327,
      "d": 2696.623999999996,
      "v": 60
    },
    {
      "midi": 38,
      "hit": false,
      "t": 114592.47508333327,
      "d": 2682.5790833333303,
      "v": 60
    },
    {
      "midi": 50,
      "hit": false,
      "t": 114592.47508333327,
      "d": 2682.5790833333303,
      "v": 60
    },
    {
      "midi": 66,
      "hit": false,
      "t": 114592.47508333327,
      "d": 2682.5790833333303,
      "v": 60
    },
    {
      "midi": 69,
      "hit": false,
      "t": 114592.47508333327,
      "d": 2682.5790833333303,
      "v": 60
    },
    {
      "midi": 62,
      "hit": false,
      "t": 114592.47508333327,
      "d": 2696.623999999996,
      "v": 60
    },
    {
      "midi": 33,
      "hit": false,
      "t": 117289.09908333326,
      "d": 2682.5790833333303,
      "v": 60
    },
    {
      "midi": 45,
      "hit": false,
      "t": 117289.09908333326,
      "d": 2682.5790833333303,
      "v": 60
    },
    {
      "midi": 61,
      "hit": false,
      "t": 117289.09908333326,
      "d": 2682.5790833333303,
      "v": 60
    },
    {
      "midi": 64,
      "hit": false,
      "t": 117289.09908333326,
      "d": 2682.5790833333303,
      "v": 60
    },
    {
      "midi": 69,
      "hit": false,
      "t": 117289.09908333326,
      "d": 2696.623999999996,
      "v": 60
    },
    {
      "midi": 36,
      "hit": false,
      "t": 119985.72308333326,
      "d": 2682.5790833333303,
      "v": 60
    },
    {
      "midi": 48,
      "hit": false,
      "t": 119985.72308333326,
      "d": 2682.5790833333303,
      "v": 60
    },
    {
      "midi": 60,
      "hit": false,
      "t": 119985.72308333326,
      "d": 2682.5790833333303,
      "v": 60
    },
    {
      "midi": 64,
      "hit": false,
      "t": 119985.72308333326,
      "d": 2682.5790833333303,
      "v": 60
    },
    {
      "midi": 67,
      "hit": false,
      "t": 119985.72308333326,
      "d": 2696.623999999996,
      "v": 60
    },
    {
      "midi": 35,
      "hit": false,
      "t": 122682.34708333325,
      "d": 2682.5790833333303,
      "v": 60
    },
    {
      "midi": 47,
      "hit": false,
      "t": 122682.34708333325,
      "d": 2682.5790833333303,
      "v": 60
    },
    {
      "midi": 59,
      "hit": false,
      "t": 122682.34708333325,
      "d": 2682.5790833333303,
      "v": 60
    },
    {
      "midi": 63,
      "hit": false,
      "t": 122682.34708333325,
      "d": 2682.5790833333303,
      "v": 60
    },
    {
      "midi": 66,
      "hit": false,
      "t": 122682.34708333325,
      "d": 2696.623999999996,
      "v": 60
    },
    {
      "midi": 40,
      "hit": false,
      "t": 125378.97108333325,
      "d": 2682.5790833333303,
      "v": 60
    },
    {
      "midi": 52,
      "hit": false,
      "t": 125378.97108333325,
      "d": 2682.5790833333303,
      "v": 60
    },
    {
      "midi": 55,
      "hit": false,
      "t": 125378.97108333325,
      "d": 2682.5790833333303,
      "v": 60
    },
    {
      "midi": 62,
      "hit": false,
      "t": 125378.97108333325,
      "d": 2682.5790833333303,
      "v": 60
    },
    {
      "midi": 45,
      "hit": false,
      "t": 128075.59508333325,
      "d": 1334.2670833333395,
      "v": 60
    },
    {
      "midi": 57,
      "hit": false,
      "t": 128075.59508333325,
      "d": 1334.2670833333395,
      "v": 60
    },
    {
      "midi": 61,
      "hit": false,
      "t": 128075.59508333325,
      "d": 1334.2670833333395,
      "v": 60
    },
    {
      "midi": 64,
      "hit": false,
      "t": 128075.59508333325,
      "d": 1334.2670833333395,
      "v": 60
    },
    {
      "midi": 46,
      "hit": false,
      "t": 129423.90708333325,
      "d": 1334.2670833333395,
      "v": 60
    },
    {
      "midi": 58,
      "hit": false,
      "t": 129423.90708333325,
      "d": 1334.2670833333395,
      "v": 60
    },
    {
      "midi": 61,
      "hit": false,
      "t": 129423.90708333325,
      "d": 1334.2670833333395,
      "v": 60
    },
    {
      "midi": 64,
      "hit": false,
      "t": 129423.90708333325,
      "d": 1334.2670833333395,
      "v": 60
    },
    {
      "midi": 47,
      "hit": false,
      "t": 130772.21908333326,
      "d": 2008.4230833333422,
      "v": 60
    },
    {
      "midi": 59,
      "hit": false,
      "t": 130772.21908333326,
      "d": 2008.4230833333422,
      "v": 60
    },
    {
      "midi": 62,
      "hit": false,
      "t": 130772.21908333326,
      "d": 2008.4230833333422,
      "v": 60
    },
    {
      "midi": 66,
      "hit": false,
      "t": 130772.21908333326,
      "d": 2008.4230833333422,
      "v": 60
    },
    {
      "midi": 45,
      "hit": false,
      "t": 132794.68708333327,
      "d": 646.0661666666565,
      "v": 60
    },
    {
      "midi": 57,
      "hit": false,
      "t": 132794.68708333327,
      "d": 646.0661666666565,
      "v": 60
    },
    {
      "midi": 61,
      "hit": false,
      "t": 132794.68708333327,
      "d": 646.0661666666565,
      "v": 60
    },
    {
      "midi": 64,
      "hit": false,
      "t": 132794.68708333327,
      "d": 646.0661666666565,
      "v": 60
    },
    {
      "midi": 47,
      "hit": false,
      "t": 133468.84308333325,
      "d": 2682.579083333345,
      "v": 60
    },
    {
      "midi": 59,
      "hit": false,
      "t": 133468.84308333325,
      "d": 2682.579083333345,
      "v": 60
    },
    {
      "midi": 63,
      "hit": false,
      "t": 133468.84308333325,
      "d": 2682.579083333345,
      "v": 60
    },
    {
      "midi": 66,
      "hit": false,
      "t": 133468.84308333325,
      "d": 2682.579083333345,
      "v": 60
    },
    {
      "midi": 35,
      "hit": false,
      "t": 136165.46708333326,
      "d": 2682.579083333345,
      "v": 60
    },
    {
      "midi": 47,
      "hit": false,
      "t": 136165.46708333326,
      "d": 2682.579083333345,
      "v": 60
    },
    {
      "midi": 59,
      "hit": false,
      "t": 136165.46708333326,
      "d": 2682.579083333345,
      "v": 60
    },
    {
      "midi": 62,
      "hit": false,
      "t": 136165.46708333326,
      "d": 2682.579083333345,
      "v": 60
    },
    {
      "midi": 66,
      "hit": false,
      "t": 136165.46708333326,
      "d": 2696.6240000000107,
      "v": 60
    },
    {
      "midi": 33,
      "hit": false,
      "t": 138862.09108333327,
      "d": 2682.579083333345,
      "v": 60
    },
    {
      "midi": 45,
      "hit": false,
      "t": 138862.09108333327,
      "d": 2682.579083333345,
      "v": 60
    },
    {
      "midi": 57,
      "hit": false,
      "t": 138862.09108333327,
      "d": 2682.579083333345,
      "v": 60
    },
    {
      "midi": 61,
      "hit": false,
      "t": 138862.09108333327,
      "d": 2682.579083333345,
      "v": 60
    },
    {
      "midi": 64,
      "hit": false,
      "t": 138862.09108333327,
      "d": 2696.6240000000107,
      "v": 60
    },
    {
      "midi": 31,
      "hit": false,
      "t": 141558.71508333329,
      "d": 2682.579083333345,
      "v": 60
    },
    {
      "midi": 43,
      "hit": false,
      "t": 141558.71508333329,
      "d": 2682.579083333345,
      "v": 60
    },
    {
      "midi": 55,
      "hit": false,
      "t": 141558.71508333329,
      "d": 2682.579083333345,
      "v": 60
    },
    {
      "midi": 59,
      "hit": false,
      "t": 141558.71508333329,
      "d": 2682.579083333345,
      "v": 60
    },
    {
      "midi": 62,
      "hit": false,
      "t": 141558.71508333329,
      "d": 2696.6240000000107,
      "v": 60
    },
    {
      "midi": 66,
      "hit": false,
      "t": 141558.71508333329,
      "d": 2696.6240000000107,
      "v": 60
    },
    {
      "midi": 30,
      "hit": false,
      "t": 144255.3390833333,
      "d": 1334.2670833333395,
      "v": 60
    },
    {
      "midi": 42,
      "hit": false,
      "t": 144255.3390833333,
      "d": 1334.2670833333395,
      "v": 60
    },
    {
      "midi": 54,
      "hit": false,
      "t": 144255.3390833333,
      "d": 1334.2670833333395,
      "v": 60
    },
    {
      "midi": 58,
      "hit": false,
      "t": 144255.3390833333,
      "d": 1334.2670833333395,
      "v": 60
    },
    {
      "midi": 61,
      "hit": false,
      "t": 144255.3390833333,
      "d": 1348.3120000000054,
      "v": 60
    },
    {
      "midi": 34,
      "hit": false,
      "t": 145603.6510833333,
      "d": 1334.2670833333395,
      "v": 60
    },
    {
      "midi": 46,
      "hit": false,
      "t": 145603.6510833333,
      "d": 1334.2670833333395,
      "v": 60
    },
    {
      "midi": 54,
      "hit": false,
      "t": 145603.6510833333,
      "d": 1334.2670833333395,
      "v": 60
    },
    {
      "midi": 61,
      "hit": false,
      "t": 145603.6510833333,
      "d": 1334.2670833333395,
      "v": 60
    },
    {
      "midi": 64,
      "hit": false,
      "t": 145603.6510833333,
      "d": 1348.3120000000054,
      "v": 60
    },
    {
      "midi": 35,
      "hit": false,
      "t": 146951.9630833333,
      "d": 2682.579083333345,
      "v": 60
    },
    {
      "midi": 47,
      "hit": false,
      "t": 146951.9630833333,
      "d": 2682.579083333345,
      "v": 60
    },
    {
      "midi": 59,
      "hit": false,
      "t": 146951.9630833333,
      "d": 2682.579083333345,
      "v": 60
    },
    {
      "midi": 62,
      "hit": false,
      "t": 146951.9630833333,
      "d": 2682.579083333345,
      "v": 60
    },
    {
      "midi": 66,
      "hit": false,
      "t": 146951.9630833333,
      "d": 2696.6240000000107,
      "v": 60
    },
    {
      "midi": 33,
      "hit": false,
      "t": 149648.58708333332,
      "d": 2682.579083333345,
      "v": 60
    },
    {
      "midi": 45,
      "hit": false,
      "t": 149648.58708333332,
      "d": 2682.579083333345,
      "v": 60
    },
    {
      "midi": 57,
      "hit": false,
      "t": 149648.58708333332,
      "d": 2682.579083333345,
      "v": 60
    },
    {
      "midi": 61,
      "hit": false,
      "t": 149648.58708333332,
      "d": 2682.579083333345,
      "v": 60
    },
    {
      "midi": 64,
      "hit": false,
      "t": 149648.58708333332,
      "d": 2696.6240000000107,
      "v": 60
    },
    {
      "midi": 40,
      "hit": false,
      "t": 152345.21108333333,
      "d": 2682.579083333345,
      "v": 60
    },
    {
      "midi": 52,
      "hit": false,
      "t": 152345.21108333333,
      "d": 2682.579083333345,
      "v": 60
    },
    {
      "midi": 55,
      "hit": false,
      "t": 152345.21108333333,
      "d": 2682.579083333345,
      "v": 60
    },
    {
      "midi": 62,
      "hit": false,
      "t": 152345.21108333333,
      "d": 2682.579083333345,
      "v": 60
    },
    {
      "midi": 31,
      "hit": false,
      "t": 155041.83508333334,
      "d": 1334.2670833333395,
      "v": 60
    },
    {
      "midi": 43,
      "hit": false,
      "t": 155041.83508333334,
      "d": 1334.2670833333395,
      "v": 60
    },
    {
      "midi": 55,
      "hit": false,
      "t": 155041.83508333334,
      "d": 1334.2670833333395,
      "v": 60
    },
    {
      "midi": 59,
      "hit": false,
      "t": 155041.83508333334,
      "d": 1334.2670833333395,
      "v": 60
    },
    {
      "midi": 62,
      "hit": false,
      "t": 155041.83508333334,
      "d": 1348.3120000000054,
      "v": 60
    },
    {
      "midi": 33,
      "hit": false,
      "t": 156390.14708333334,
      "d": 1334.2670833333395,
      "v": 60
    },
    {
      "midi": 45,
      "hit": false,
      "t": 156390.14708333334,
      "d": 1334.2670833333395,
      "v": 60
    },
    {
      "midi": 57,
      "hit": false,
      "t": 156390.14708333334,
      "d": 1334.2670833333395,
      "v": 60
    },
    {
      "midi": 61,
      "hit": false,
      "t": 156390.14708333334,
      "d": 1334.2670833333395,
      "v": 60
    },
    {
      "midi": 64,
      "hit": false,
      "t": 156390.14708333334,
      "d": 1348.3120000000054,
      "v": 60
    },
    {
      "midi": 35,
      "hit": false,
      "t": 163131.70708333334,
      "d": 2682.579083333345,
      "v": 60
    },
    {
      "midi": 47,
      "hit": false,
      "t": 163131.70708333334,
      "d": 2682.579083333345,
      "v": 60
    },
    {
      "midi": 59,
      "hit": false,
      "t": 163131.70708333334,
      "d": 2682.579083333345,
      "v": 60
    },
    {
      "midi": 62,
      "hit": false,
      "t": 163131.70708333334,
      "d": 2682.579083333345,
      "v": 60
    },
    {
      "midi": 66,
      "hit": false,
      "t": 163131.70708333334,
      "d": 2696.6240000000107,
      "v": 60
    },
    {
      "midi": 33,
      "hit": false,
      "t": 165828.33108333335,
      "d": 2682.579083333345,
      "v": 60
    },
    {
      "midi": 45,
      "hit": false,
      "t": 165828.33108333335,
      "d": 2682.579083333345,
      "v": 60
    },
    {
      "midi": 57,
      "hit": false,
      "t": 165828.33108333335,
      "d": 2682.579083333345,
      "v": 60
    },
    {
      "midi": 61,
      "hit": false,
      "t": 165828.33108333335,
      "d": 2682.579083333345,
      "v": 60
    },
    {
      "midi": 64,
      "hit": false,
      "t": 165828.33108333335,
      "d": 2696.6240000000107,
      "v": 60
    },
    {
      "midi": 31,
      "hit": false,
      "t": 168524.95508333336,
      "d": 2682.579083333345,
      "v": 60
    },
    {
      "midi": 43,
      "hit": false,
      "t": 168524.95508333336,
      "d": 2682.579083333345,
      "v": 60
    },
    {
      "midi": 55,
      "hit": false,
      "t": 168524.95508333336,
      "d": 2682.579083333345,
      "v": 60
    },
    {
      "midi": 59,
      "hit": false,
      "t": 168524.95508333336,
      "d": 2682.579083333345,
      "v": 60
    },
    {
      "midi": 62,
      "hit": false,
      "t": 168524.95508333336,
      "d": 2696.6240000000107,
      "v": 60
    },
    {
      "midi": 33,
      "hit": false,
      "t": 171221.57908333337,
      "d": 2682.579083333345,
      "v": 60
    },
    {
      "midi": 45,
      "hit": false,
      "t": 171221.57908333337,
      "d": 2682.579083333345,
      "v": 60
    },
    {
      "midi": 57,
      "hit": false,
      "t": 171221.57908333337,
      "d": 2682.579083333345,
      "v": 60
    },
    {
      "midi": 61,
      "hit": false,
      "t": 171221.57908333337,
      "d": 2682.579083333345,
      "v": 60
    },
    {
      "midi": 64,
      "hit": false,
      "t": 171221.57908333337,
      "d": 2696.6240000000107,
      "v": 60
    },
    {
      "midi": 35,
      "hit": false,
      "t": 173918.20308333338,
      "d": 2682.579083333345,
      "v": 60
    },
    {
      "midi": 47,
      "hit": false,
      "t": 173918.20308333338,
      "d": 2682.579083333345,
      "v": 60
    },
    {
      "midi": 59,
      "hit": false,
      "t": 173918.20308333338,
      "d": 2682.579083333345,
      "v": 60
    },
    {
      "midi": 62,
      "hit": false,
      "t": 173918.20308333338,
      "d": 2682.579083333345,
      "v": 60
    },
    {
      "midi": 66,
      "hit": false,
      "t": 173918.20308333338,
      "d": 2696.6240000000107,
      "v": 60
    },
    {
      "midi": 33,
      "hit": false,
      "t": 176614.8270833334,
      "d": 2682.579083333345,
      "v": 60
    },
    {
      "midi": 45,
      "hit": false,
      "t": 176614.8270833334,
      "d": 2682.579083333345,
      "v": 60
    },
    {
      "midi": 57,
      "hit": false,
      "t": 176614.8270833334,
      "d": 2682.579083333345,
      "v": 60
    },
    {
      "midi": 61,
      "hit": false,
      "t": 176614.8270833334,
      "d": 2682.579083333345,
      "v": 60
    },
    {
      "midi": 64,
      "hit": false,
      "t": 176614.8270833334,
      "d": 2696.6240000000107,
      "v": 60
    },
    {
      "midi": 31,
      "hit": false,
      "t": 179311.4510833334,
      "d": 2682.579083333345,
      "v": 60
    },
    {
      "midi": 43,
      "hit": false,
      "t": 179311.4510833334,
      "d": 2682.579083333345,
      "v": 60
    },
    {
      "midi": 55,
      "hit": false,
      "t": 179311.4510833334,
      "d": 2682.579083333345,
      "v": 60
    },
    {
      "midi": 59,
      "hit": false,
      "t": 179311.4510833334,
      "d": 2682.579083333345,
      "v": 60
    },
    {
      "midi": 62,
      "hit": false,
      "t": 179311.4510833334,
      "d": 2696.6240000000107,
      "v": 60
    },
    {
      "midi": 33,
      "hit": false,
      "t": 182008.07508333342,
      "d": 2682.579083333345,
      "v": 60
    },
    {
      "midi": 45,
      "hit": false,
      "t": 182008.07508333342,
      "d": 2682.579083333345,
      "v": 60
    },
    {
      "midi": 57,
      "hit": false,
      "t": 182008.07508333342,
      "d": 2682.579083333345,
      "v": 60
    },
    {
      "midi": 61,
      "hit": false,
      "t": 182008.07508333342,
      "d": 2682.579083333345,
      "v": 60
    },
    {
      "midi": 64,
      "hit": false,
      "t": 182008.07508333342,
      "d": 2696.6240000000107,
      "v": 60
    },
    {
      "midi": 35,
      "hit": false,
      "t": 184704.69908333343,
      "d": 2682.579083333345,
      "v": 60
    },
    {
      "midi": 47,
      "hit": false,
      "t": 184704.69908333343,
      "d": 2682.579083333345,
      "v": 60
    },
    {
      "midi": 59,
      "hit": false,
      "t": 184704.69908333343,
      "d": 2682.579083333345,
      "v": 60
    },
    {
      "midi": 62,
      "hit": false,
      "t": 184704.69908333343,
      "d": 2682.579083333345,
      "v": 60
    },
    {
      "midi": 66,
      "hit": false,
      "t": 184704.69908333343,
      "d": 2696.6240000000107,
      "v": 60
    },
    {
      "midi": 33,
      "hit": false,
      "t": 187401.32308333344,
      "d": 2682.579083333345,
      "v": 60
    },
    {
      "midi": 45,
      "hit": false,
      "t": 187401.32308333344,
      "d": 2682.579083333345,
      "v": 60
    },
    {
      "midi": 57,
      "hit": false,
      "t": 187401.32308333344,
      "d": 2682.579083333345,
      "v": 60
    },
    {
      "midi": 61,
      "hit": false,
      "t": 187401.32308333344,
      "d": 2682.579083333345,
      "v": 60
    },
    {
      "midi": 64,
      "hit": false,
      "t": 187401.32308333344,
      "d": 2696.6240000000107,
      "v": 60
    },
    {
      "midi": 31,
      "hit": false,
      "t": 190097.94708333345,
      "d": 2682.579083333345,
      "v": 60
    },
    {
      "midi": 43,
      "hit": false,
      "t": 190097.94708333345,
      "d": 2682.579083333345,
      "v": 60
    },
    {
      "midi": 55,
      "hit": false,
      "t": 190097.94708333345,
      "d": 2682.579083333345,
      "v": 60
    },
    {
      "midi": 59,
      "hit": false,
      "t": 190097.94708333345,
      "d": 2682.579083333345,
      "v": 60
    },
    {
      "midi": 62,
      "hit": false,
      "t": 190097.94708333345,
      "d": 2696.6240000000107,
      "v": 60
    },
    {
      "midi": 33,
      "hit": false,
      "t": 192794.57108333346,
      "d": 2682.579083333345,
      "v": 60
    },
    {
      "midi": 45,
      "hit": false,
      "t": 192794.57108333346,
      "d": 2682.579083333345,
      "v": 60
    },
    {
      "midi": 57,
      "hit": false,
      "t": 192794.57108333346,
      "d": 2682.579083333345,
      "v": 60
    },
    {
      "midi": 61,
      "hit": false,
      "t": 192794.57108333346,
      "d": 2682.579083333345,
      "v": 60
    },
    {
      "midi": 64,
      "hit": false,
      "t": 192794.57108333346,
      "d": 2696.6240000000107,
      "v": 60
    },
    {
      "midi": 35,
      "hit": false,
      "t": 195491.19508333347,
      "d": 2682.579083333345,
      "v": 60
    },
    {
      "midi": 47,
      "hit": false,
      "t": 195491.19508333347,
      "d": 2682.579083333345,
      "v": 60
    },
    {
      "midi": 59,
      "hit": false,
      "t": 195491.19508333347,
      "d": 2682.579083333345,
      "v": 60
    },
    {
      "midi": 62,
      "hit": false,
      "t": 195491.19508333347,
      "d": 2682.579083333345,
      "v": 60
    },
    {
      "midi": 66,
      "hit": false,
      "t": 195491.19508333347,
      "d": 2696.6240000000107,
      "v": 60
    },
    {
      "midi": 33,
      "hit": false,
      "t": 198187.81908333348,
      "d": 2682.579083333345,
      "v": 60
    },
    {
      "midi": 45,
      "hit": false,
      "t": 198187.81908333348,
      "d": 2682.579083333345,
      "v": 60
    },
    {
      "midi": 57,
      "hit": false,
      "t": 198187.81908333348,
      "d": 2682.579083333345,
      "v": 60
    },
    {
      "midi": 61,
      "hit": false,
      "t": 198187.81908333348,
      "d": 2682.579083333345,
      "v": 60
    },
    {
      "midi": 64,
      "hit": false,
      "t": 198187.81908333348,
      "d": 2696.6240000000107,
      "v": 60
    },
    {
      "midi": 31,
      "hit": false,
      "t": 200884.4430833335,
      "d": 2682.579083333345,
      "v": 60
    },
    {
      "midi": 43,
      "hit": false,
      "t": 200884.4430833335,
      "d": 2682.579083333345,
      "v": 60
    },
    {
      "midi": 55,
      "hit": false,
      "t": 200884.4430833335,
      "d": 2682.579083333345,
      "v": 60
    },
    {
      "midi": 59,
      "hit": false,
      "t": 200884.4430833335,
      "d": 2682.579083333345,
      "v": 60
    },
    {
      "midi": 62,
      "hit": false,
      "t": 200884.4430833335,
      "d": 2696.6240000000107,
      "v": 60
    },
    {
      "midi": 33,
      "hit": false,
      "t": 203581.0670833335,
      "d": 2682.579083333345,
      "v": 60
    },
    {
      "midi": 45,
      "hit": false,
      "t": 203581.0670833335,
      "d": 2682.579083333345,
      "v": 60
    },
    {
      "midi": 57,
      "hit": false,
      "t": 203581.0670833335,
      "d": 2682.579083333345,
      "v": 60
    },
    {
      "midi": 61,
      "hit": false,
      "t": 203581.0670833335,
      "d": 2682.579083333345,
      "v": 60
    },
    {
      "midi": 64,
      "hit": false,
      "t": 203581.0670833335,
      "d": 2696.6240000000107,
      "v": 60
    },
    {
      "midi": 35,
      "hit": false,
      "t": 206277.6910833335,
      "d": 2682.579083333345,
      "v": 60
    },
    {
      "midi": 47,
      "hit": false,
      "t": 206277.6910833335,
      "d": 2682.579083333345,
      "v": 60
    },
    {
      "midi": 59,
      "hit": false,
      "t": 206277.6910833335,
      "d": 2682.579083333345,
      "v": 60
    },
    {
      "midi": 62,
      "hit": false,
      "t": 206277.6910833335,
      "d": 2682.579083333345,
      "v": 60
    },
    {
      "midi": 66,
      "hit": false,
      "t": 206277.6910833335,
      "d": 2696.6240000000107,
      "v": 60
    },
    {
      "midi": 33,
      "hit": false,
      "t": 208974.31508333352,
      "d": 2682.579083333345,
      "v": 60
    },
    {
      "midi": 45,
      "hit": false,
      "t": 208974.31508333352,
      "d": 2682.579083333345,
      "v": 60
    },
    {
      "midi": 57,
      "hit": false,
      "t": 208974.31508333352,
      "d": 2682.579083333345,
      "v": 60
    },
    {
      "midi": 61,
      "hit": false,
      "t": 208974.31508333352,
      "d": 2682.579083333345,
      "v": 60
    },
    {
      "midi": 64,
      "hit": false,
      "t": 208974.31508333352,
      "d": 2696.6240000000107,
      "v": 60
    },
    {
      "midi": 31,
      "hit": false,
      "t": 211670.93908333353,
      "d": 2682.579083333345,
      "v": 60
    },
    {
      "midi": 43,
      "hit": false,
      "t": 211670.93908333353,
      "d": 2682.579083333345,
      "v": 60
    },
    {
      "midi": 55,
      "hit": false,
      "t": 211670.93908333353,
      "d": 2682.579083333345,
      "v": 60
    },
    {
      "midi": 59,
      "hit": false,
      "t": 211670.93908333353,
      "d": 2682.579083333345,
      "v": 60
    },
    {
      "midi": 62,
      "hit": false,
      "t": 211670.93908333353,
      "d": 2696.6240000000107,
      "v": 60
    },
    {
      "midi": 66,
      "hit": false,
      "t": 211670.93908333353,
      "d": 2696.6240000000107,
      "v": 60
    },
    {
      "midi": 30,
      "hit": false,
      "t": 214367.56308333355,
      "d": 1334.2670833333395,
      "v": 60
    },
    {
      "midi": 42,
      "hit": false,
      "t": 214367.56308333355,
      "d": 1334.2670833333395,
      "v": 60
    },
    {
      "midi": 54,
      "hit": false,
      "t": 214367.56308333355,
      "d": 1334.2670833333395,
      "v": 60
    },
    {
      "midi": 58,
      "hit": false,
      "t": 214367.56308333355,
      "d": 1334.2670833333395,
      "v": 60
    },
    {
      "midi": 61,
      "hit": false,
      "t": 214367.56308333355,
      "d": 1348.3120000000054,
      "v": 60
    },
    {
      "midi": 34,
      "hit": false,
      "t": 215715.87508333355,
      "d": 1334.2670833333395,
      "v": 60
    },
    {
      "midi": 46,
      "hit": false,
      "t": 215715.87508333355,
      "d": 1334.2670833333395,
      "v": 60
    },
    {
      "midi": 54,
      "hit": false,
      "t": 215715.87508333355,
      "d": 1334.2670833333395,
      "v": 60
    },
    {
      "midi": 61,
      "hit": false,
      "t": 215715.87508333355,
      "d": 1334.2670833333395,
      "v": 60
    },
    {
      "midi": 64,
      "hit": false,
      "t": 215715.87508333355,
      "d": 1348.3120000000054,
      "v": 60
    },
    {
      "midi": 35,
      "hit": false,
      "t": 217064.18708333356,
      "d": 2682.579083333345,
      "v": 60
    },
    {
      "midi": 47,
      "hit": false,
      "t": 217064.18708333356,
      "d": 2682.579083333345,
      "v": 60
    },
    {
      "midi": 59,
      "hit": false,
      "t": 217064.18708333356,
      "d": 2682.579083333345,
      "v": 60
    },
    {
      "midi": 62,
      "hit": false,
      "t": 217064.18708333356,
      "d": 2682.579083333345,
      "v": 60
    },
    {
      "midi": 66,
      "hit": false,
      "t": 217064.18708333356,
      "d": 2696.6240000000107,
      "v": 60
    },
    {
      "midi": 33,
      "hit": false,
      "t": 219760.81108333357,
      "d": 2682.579083333345,
      "v": 60
    },
    {
      "midi": 45,
      "hit": false,
      "t": 219760.81108333357,
      "d": 2682.579083333345,
      "v": 60
    },
    {
      "midi": 57,
      "hit": false,
      "t": 219760.81108333357,
      "d": 2682.579083333345,
      "v": 60
    },
    {
      "midi": 61,
      "hit": false,
      "t": 219760.81108333357,
      "d": 2682.579083333345,
      "v": 60
    },
    {
      "midi": 64,
      "hit": false,
      "t": 219760.81108333357,
      "d": 2696.6240000000107,
      "v": 60
    },
    {
      "midi": 40,
      "hit": false,
      "t": 222457.43508333358,
      "d": 2682.579083333345,
      "v": 60
    },
    {
      "midi": 52,
      "hit": false,
      "t": 222457.43508333358,
      "d": 2682.579083333345,
      "v": 60
    },
    {
      "midi": 55,
      "hit": false,
      "t": 222457.43508333358,
      "d": 2682.579083333345,
      "v": 60
    },
    {
      "midi": 62,
      "hit": false,
      "t": 222457.43508333358,
      "d": 2682.579083333345,
      "v": 60
    },
    {
      "midi": 31,
      "hit": false,
      "t": 225154.0590833336,
      "d": 1334.2670833333395,
      "v": 60
    },
    {
      "midi": 43,
      "hit": false,
      "t": 225154.0590833336,
      "d": 1334.2670833333395,
      "v": 60
    },
    {
      "midi": 55,
      "hit": false,
      "t": 225154.0590833336,
      "d": 1334.2670833333395,
      "v": 60
    },
    {
      "midi": 59,
      "hit": false,
      "t": 225154.0590833336,
      "d": 1334.2670833333395,
      "v": 60
    },
    {
      "midi": 62,
      "hit": false,
      "t": 225154.0590833336,
      "d": 1348.3120000000054,
      "v": 60
    },
    {
      "midi": 33,
      "hit": false,
      "t": 226502.3710833336,
      "d": 1334.2670833333395,
      "v": 60
    },
    {
      "midi": 45,
      "hit": false,
      "t": 226502.3710833336,
      "d": 1334.2670833333395,
      "v": 60
    },
    {
      "midi": 57,
      "hit": false,
      "t": 226502.3710833336,
      "d": 1334.2670833333395,
      "v": 60
    },
    {
      "midi": 61,
      "hit": false,
      "t": 226502.3710833336,
      "d": 1334.2670833333395,
      "v": 60
    },
    {
      "midi": 64,
      "hit": false,
      "t": 226502.3710833336,
      "d": 1348.3120000000054,
      "v": 60
    },
    {
      "midi": 35,
      "hit": false,
      "t": 227850.6830833336,
      "d": 2682.579083333345,
      "v": 60
    },
    {
      "midi": 47,
      "hit": false,
      "t": 227850.6830833336,
      "d": 2682.579083333345,
      "v": 60
    },
    {
      "midi": 59,
      "hit": false,
      "t": 227850.6830833336,
      "d": 2682.579083333345,
      "v": 60
    },
    {
      "midi": 62,
      "hit": false,
      "t": 227850.6830833336,
      "d": 2682.579083333345,
      "v": 60
    },
    {
      "midi": 66,
      "hit": false,
      "t": 227850.6830833336,
      "d": 2696.6240000000107,
      "v": 60
    },
    {
      "midi": 33,
      "hit": false,
      "t": 230547.3070833336,
      "d": 2682.579083333345,
      "v": 60
    },
    {
      "midi": 45,
      "hit": false,
      "t": 230547.3070833336,
      "d": 2682.579083333345,
      "v": 60
    },
    {
      "midi": 57,
      "hit": false,
      "t": 230547.3070833336,
      "d": 2682.579083333345,
      "v": 60
    },
    {
      "midi": 61,
      "hit": false,
      "t": 230547.3070833336,
      "d": 2682.579083333345,
      "v": 60
    },
    {
      "midi": 64,
      "hit": false,
      "t": 230547.3070833336,
      "d": 2696.6240000000107,
      "v": 60
    },
    {
      "midi": 31,
      "hit": false,
      "t": 233243.93108333362,
      "d": 2682.579083333345,
      "v": 60
    },
    {
      "midi": 43,
      "hit": false,
      "t": 233243.93108333362,
      "d": 2682.579083333345,
      "v": 60
    },
    {
      "midi": 55,
      "hit": false,
      "t": 233243.93108333362,
      "d": 2682.579083333345,
      "v": 60
    },
    {
      "midi": 59,
      "hit": false,
      "t": 233243.93108333362,
      "d": 2682.579083333345,
      "v": 60
    },
    {
      "midi": 62,
      "hit": false,
      "t": 233243.93108333362,
      "d": 2696.6240000000107,
      "v": 60
    },
    {
      "midi": 66,
      "hit": false,
      "t": 233243.93108333362,
      "d": 2696.6240000000107,
      "v": 60
    },
    {
      "midi": 30,
      "hit": false,
      "t": 235940.55508333363,
      "d": 1334.2670833333395,
      "v": 60
    },
    {
      "midi": 42,
      "hit": false,
      "t": 235940.55508333363,
      "d": 1334.2670833333395,
      "v": 60
    },
    {
      "midi": 54,
      "hit": false,
      "t": 235940.55508333363,
      "d": 1334.2670833333395,
      "v": 60
    },
    {
      "midi": 58,
      "hit": false,
      "t": 235940.55508333363,
      "d": 1334.2670833333395,
      "v": 60
    },
    {
      "midi": 61,
      "hit": false,
      "t": 235940.55508333363,
      "d": 1348.3120000000054,
      "v": 60
    },
    {
      "midi": 34,
      "hit": false,
      "t": 237288.86708333364,
      "d": 1334.2670833333395,
      "v": 60
    },
    {
      "midi": 46,
      "hit": false,
      "t": 237288.86708333364,
      "d": 1334.2670833333395,
      "v": 60
    },
    {
      "midi": 54,
      "hit": false,
      "t": 237288.86708333364,
      "d": 1334.2670833333395,
      "v": 60
    },
    {
      "midi": 61,
      "hit": false,
      "t": 237288.86708333364,
      "d": 1334.2670833333395,
      "v": 60
    },
    {
      "midi": 64,
      "hit": false,
      "t": 237288.86708333364,
      "d": 1348.3120000000054,
      "v": 60
    },
    {
      "midi": 35,
      "hit": false,
      "t": 238637.17908333364,
      "d": 2682.579083333345,
      "v": 60
    },
    {
      "midi": 47,
      "hit": false,
      "t": 238637.17908333364,
      "d": 2682.579083333345,
      "v": 60
    },
    {
      "midi": 59,
      "hit": false,
      "t": 238637.17908333364,
      "d": 2682.579083333345,
      "v": 60
    },
    {
      "midi": 62,
      "hit": false,
      "t": 238637.17908333364,
      "d": 2682.579083333345,
      "v": 60
    },
    {
      "midi": 66,
      "hit": false,
      "t": 238637.17908333364,
      "d": 2696.6240000000107,
      "v": 60
    },
    {
      "midi": 33,
      "hit": false,
      "t": 241333.80308333365,
      "d": 2682.579083333345,
      "v": 60
    },
    {
      "midi": 45,
      "hit": false,
      "t": 241333.80308333365,
      "d": 2682.579083333345,
      "v": 60
    },
    {
      "midi": 57,
      "hit": false,
      "t": 241333.80308333365,
      "d": 2682.579083333345,
      "v": 60
    },
    {
      "midi": 61,
      "hit": false,
      "t": 241333.80308333365,
      "d": 2682.579083333345,
      "v": 60
    },
    {
      "midi": 64,
      "hit": false,
      "t": 241333.80308333365,
      "d": 2696.6240000000107,
      "v": 60
    },
    {
      "midi": 40,
      "hit": false,
      "t": 244030.42708333366,
      "d": 2682.579083333345,
      "v": 60
    },
    {
      "midi": 52,
      "hit": false,
      "t": 244030.42708333366,
      "d": 2682.579083333345,
      "v": 60
    },
    {
      "midi": 55,
      "hit": false,
      "t": 244030.42708333366,
      "d": 2682.579083333345,
      "v": 60
    },
    {
      "midi": 62,
      "hit": false,
      "t": 244030.42708333366,
      "d": 2682.579083333345,
      "v": 60
    },
    {
      "midi": 31,
      "hit": false,
      "t": 246727.05108333367,
      "d": 1334.2670833333395,
      "v": 60
    },
    {
      "midi": 43,
      "hit": false,
      "t": 246727.05108333367,
      "d": 1334.2670833333395,
      "v": 60
    },
    {
      "midi": 55,
      "hit": false,
      "t": 246727.05108333367,
      "d": 1334.2670833333395,
      "v": 60
    },
    {
      "midi": 59,
      "hit": false,
      "t": 246727.05108333367,
      "d": 1334.2670833333395,
      "v": 60
    },
    {
      "midi": 62,
      "hit": false,
      "t": 246727.05108333367,
      "d": 1348.3120000000054,
      "v": 60
    },
    {
      "midi": 33,
      "hit": false,
      "t": 248075.36308333368,
      "d": 1334.2670833333395,
      "v": 60
    },
    {
      "midi": 45,
      "hit": false,
      "t": 248075.36308333368,
      "d": 1334.2670833333395,
      "v": 60
    },
    {
      "midi": 57,
      "hit": false,
      "t": 248075.36308333368,
      "d": 1334.2670833333395,
      "v": 60
    },
    {
      "midi": 61,
      "hit": false,
      "t": 248075.36308333368,
      "d": 1334.2670833333395,
      "v": 60
    },
    {
      "midi": 64,
      "hit": false,
      "t": 248075.36308333368,
      "d": 1348.3120000000054,
      "v": 60
    },
    {
      "midi": 35,
      "hit": false,
      "t": 249423.67508333368,
      "d": 2682.579083333345,
      "v": 60
    },
    {
      "midi": 47,
      "hit": false,
      "t": 249423.67508333368,
      "d": 2682.579083333345,
      "v": 60
    },
    {
      "midi": 59,
      "hit": false,
      "t": 249423.67508333368,
      "d": 2682.579083333345,
      "v": 60
    },
    {
      "midi": 62,
      "hit": false,
      "t": 249423.67508333368,
      "d": 2682.579083333345,
      "v": 60
    },
    {
      "midi": 66,
      "hit": false,
      "t": 249423.67508333368,
      "d": 2696.6240000000107,
      "v": 60
    },
    {
      "midi": 33,
      "hit": false,
      "t": 252120.2990833337,
      "d": 2682.579083333345,
      "v": 60
    },
    {
      "midi": 45,
      "hit": false,
      "t": 252120.2990833337,
      "d": 2682.579083333345,
      "v": 60
    },
    {
      "midi": 57,
      "hit": false,
      "t": 252120.2990833337,
      "d": 2682.579083333345,
      "v": 60
    },
    {
      "midi": 61,
      "hit": false,
      "t": 252120.2990833337,
      "d": 2682.579083333345,
      "v": 60
    },
    {
      "midi": 64,
      "hit": false,
      "t": 252120.2990833337,
      "d": 2696.6240000000107,
      "v": 60
    },
    {
      "midi": 31,
      "hit": false,
      "t": 254816.9230833337,
      "d": 2682.579083333345,
      "v": 60
    },
    {
      "midi": 43,
      "hit": false,
      "t": 254816.9230833337,
      "d": 2682.579083333345,
      "v": 60
    },
    {
      "midi": 55,
      "hit": false,
      "t": 254816.9230833337,
      "d": 2682.579083333345,
      "v": 60
    },
    {
      "midi": 59,
      "hit": false,
      "t": 254816.9230833337,
      "d": 2682.579083333345,
      "v": 60
    },
    {
      "midi": 62,
      "hit": false,
      "t": 254816.9230833337,
      "d": 2696.6240000000107,
      "v": 60
    },
    {
      "midi": 66,
      "hit": false,
      "t": 254816.9230833337,
      "d": 2696.6240000000107,
      "v": 60
    },
    {
      "midi": 30,
      "hit": false,
      "t": 257513.54708333372,
      "d": 1334.2670833333395,
      "v": 60
    },
    {
      "midi": 42,
      "hit": false,
      "t": 257513.54708333372,
      "d": 1334.2670833333395,
      "v": 60
    },
    {
      "midi": 54,
      "hit": false,
      "t": 257513.54708333372,
      "d": 1334.2670833333395,
      "v": 60
    },
    {
      "midi": 58,
      "hit": false,
      "t": 257513.54708333372,
      "d": 1334.2670833333395,
      "v": 60
    },
    {
      "midi": 61,
      "hit": false,
      "t": 257513.54708333372,
      "d": 1348.3120000000054,
      "v": 60
    },
    {
      "midi": 34,
      "hit": false,
      "t": 258861.85908333372,
      "d": 1334.2670833333395,
      "v": 60
    },
    {
      "midi": 46,
      "hit": false,
      "t": 258861.85908333372,
      "d": 1334.2670833333395,
      "v": 60
    },
    {
      "midi": 54,
      "hit": false,
      "t": 258861.85908333372,
      "d": 1334.2670833333395,
      "v": 60
    },
    {
      "midi": 61,
      "hit": false,
      "t": 258861.85908333372,
      "d": 1334.2670833333395,
      "v": 60
    },
    {
      "midi": 64,
      "hit": false,
      "t": 258861.85908333372,
      "d": 1348.3120000000054,
      "v": 60
    },
    {
      "midi": 35,
      "hit": false,
      "t": 260210.17108333373,
      "d": 2682.579083333316,
      "v": 60
    },
    {
      "midi": 47,
      "hit": false,
      "t": 260210.17108333373,
      "d": 2682.579083333316,
      "v": 60
    },
    {
      "midi": 59,
      "hit": false,
      "t": 260210.17108333373,
      "d": 2682.579083333316,
      "v": 60
    },
    {
      "midi": 62,
      "hit": false,
      "t": 260210.17108333373,
      "d": 2682.579083333316,
      "v": 60
    },
    {
      "midi": 66,
      "hit": false,
      "t": 260210.17108333373,
      "d": 2696.6240000000107,
      "v": 60
    },
    {
      "midi": 33,
      "hit": false,
      "t": 262906.79508333374,
      "d": 2682.579083333316,
      "v": 60
    },
    {
      "midi": 45,
      "hit": false,
      "t": 262906.79508333374,
      "d": 2682.579083333316,
      "v": 60
    },
    {
      "midi": 57,
      "hit": false,
      "t": 262906.79508333374,
      "d": 2682.579083333316,
      "v": 60
    },
    {
      "midi": 61,
      "hit": false,
      "t": 262906.79508333374,
      "d": 2682.579083333316,
      "v": 60
    },
    {
      "midi": 64,
      "hit": false,
      "t": 262906.79508333374,
      "d": 2696.6240000000107,
      "v": 60
    },
    {
      "midi": 40,
      "hit": false,
      "t": 265603.41908333375,
      "d": 2682.579083333316,
      "v": 60
    },
    {
      "midi": 52,
      "hit": false,
      "t": 265603.41908333375,
      "d": 2682.579083333316,
      "v": 60
    },
    {
      "midi": 55,
      "hit": false,
      "t": 265603.41908333375,
      "d": 2682.579083333316,
      "v": 60
    },
    {
      "midi": 62,
      "hit": false,
      "t": 265603.41908333375,
      "d": 2682.579083333316,
      "v": 60
    },
    {
      "midi": 31,
      "hit": false,
      "t": 268300.04308333376,
      "d": 1334.2670833333395,
      "v": 60
    },
    {
      "midi": 43,
      "hit": false,
      "t": 268300.04308333376,
      "d": 1334.2670833333395,
      "v": 60
    },
    {
      "midi": 55,
      "hit": false,
      "t": 268300.04308333376,
      "d": 1334.2670833333395,
      "v": 60
    },
    {
      "midi": 59,
      "hit": false,
      "t": 268300.04308333376,
      "d": 1334.2670833333395,
      "v": 60
    },
    {
      "midi": 62,
      "hit": false,
      "t": 268300.04308333376,
      "d": 1348.3120000000345,
      "v": 60
    },
    {
      "midi": 33,
      "hit": false,
      "t": 269648.3550833338,
      "d": 1334.2670833333395,
      "v": 60
    },
    {
      "midi": 45,
      "hit": false,
      "t": 269648.3550833338,
      "d": 1334.2670833333395,
      "v": 60
    },
    {
      "midi": 57,
      "hit": false,
      "t": 269648.3550833338,
      "d": 1334.2670833333395,
      "v": 60
    },
    {
      "midi": 61,
      "hit": false,
      "t": 269648.3550833338,
      "d": 1334.2670833333395,
      "v": 60
    },
    {
      "midi": 64,
      "hit": false,
      "t": 269648.3550833338,
      "d": 1348.3120000000345,
      "v": 60
    },
    {
      "midi": 35,
      "hit": false,
      "t": 270996.6670833338,
      "d": 1348.3119999999763,
      "v": 60
    },
    {
      "midi": 47,
      "hit": false,
      "t": 270996.6670833338,
      "d": 1348.3119999999763,
      "v": 60
    },
    {
      "midi": 59,
      "hit": false,
      "t": 270996.6670833338,
      "d": 1348.3119999999763,
      "v": 60
    },
    {
      "midi": 62,
      "hit": false,
      "t": 270996.6670833338,
      "d": 1348.3119999999763,
      "v": 60
    },
    {
      "midi": 66,
      "hit": false,
      "t": 270996.6670833338,
      "d": 1348.3119999999763,
      "v": 60
    }
  ]
}