{
  "jsonPath": "Rock/Album Rock/The Byrds/turn-turn-turn.json",
  "path": "Rock\\Album Rock\\The Byrds\\Turn Turn Turn.mid",
  "name": "Turn Turn Turn",
  "difficulty": "Advanced",
  "bpm": 125,
  "notes": [
    {
      "midi": 57,
      "hit": false,
      "t": 1920,
      "d": 342,
      "v": 91
    },
    {
      "midi": 54,
      "hit": false,
      "t": 1920,
      "d": 348,
      "v": 89
    },
    {
      "midi": 62,
      "hit": false,
      "t": 1920,
      "d": 380,
      "v": 100
    },
    {
      "midi": 64,
      "hit": false,
      "t": 2400,
      "d": 84,
      "v": 100
    },
    {
      "midi": 55,
      "hit": false,
      "t": 2400,
      "d": 92,
      "v": 66
    },
    {
      "midi": 59,
      "hit": false,
      "t": 2400,
      "d": 100,
      "v": 89
    },
    {
      "midi": 59,
      "hit": false,
      "t": 2640,
      "d": 1846,
      "v": 105
    },
    {
      "midi": 55,
      "hit": false,
      "t": 2640,
      "d": 1850,
      "v": 95
    },
    {
      "midi": 64,
      "hit": false,
      "t": 2640,
      "d": 1860,
      "v": 107
    },
    {
      "midi": 55,
      "hit": false,
      "t": 4800,
      "d": 324,
      "v": 105
    },
    {
      "midi": 66,
      "hit": false,
      "t": 4800,
      "d": 354,
      "v": 102
    },
    {
      "midi": 62,
      "hit": false,
      "t": 4800,
      "d": 356,
      "v": 110
    },
    {
      "midi": 59,
      "hit": false,
      "t": 4800,
      "d": 370,
      "v": 102
    },
    {
      "midi": 57,
      "hit": false,
      "t": 5280,
      "d": 286,
      "v": 93
    },
    {
      "midi": 64,
      "hit": false,
      "t": 5280,
      "d": 306,
      "v": 102
    },
    {
      "midi": 61,
      "hit": false,
      "t": 5280,
      "d": 308,
      "v": 102
    },
    {
      "midi": 57,
      "hit": false,
      "t": 5760,
      "d": 342,
      "v": 91
    },
    {
      "midi": 54,
      "hit": false,
      "t": 5760,
      "d": 348,
      "v": 89
    },
    {
      "midi": 62,
      "hit": false,
      "t": 5760,
      "d": 380,
      "v": 100
    },
    {
      "midi": 64,
      "hit": false,
      "t": 6240,
      "d": 84,
      "v": 100
    },
    {
      "midi": 55,
      "hit": false,
      "t": 6240,
      "d": 92,
      "v": 66
    },
    {
      "midi": 59,
      "hit": false,
      "t": 6240,
      "d": 100,
      "v": 89
    },
    {
      "midi": 59,
      "hit": false,
      "t": 6480,
      "d": 1846,
      "v": 105
    },
    {
      "midi": 55,
      "hit": false,
      "t": 6480,
      "d": 1850,
      "v": 95
    },
    {
      "midi": 64,
      "hit": false,
      "t": 6480,
      "d": 1860,
      "v": 107
    },
    {
      "midi": 55,
      "hit": false,
      "t": 8640,
      "d": 324,
      "v": 105
    },
    {
      "midi": 66,
      "hit": false,
      "t": 8640,
      "d": 354,
      "v": 102
    },
    {
      "midi": 62,
      "hit": false,
      "t": 8640,
      "d": 356,
      "v": 110
    },
    {
      "midi": 59,
      "hit": false,
      "t": 8640,
      "d": 370,
      "v": 102
    },
    {
      "midi": 57,
      "hit": false,
      "t": 9120,
      "d": 286,
      "v": 93
    },
    {
      "midi": 64,
      "hit": false,
      "t": 9120,
      "d": 306,
      "v": 102
    },
    {
      "midi": 61,
      "hit": false,
      "t": 9120,
      "d": 308,
      "v": 102
    },
    {
      "midi": 57,
      "hit": false,
      "t": 9600,
      "d": 342,
      "v": 91
    },
    {
      "midi": 54,
      "hit": false,
      "t": 9600,
      "d": 348,
      "v": 89
    },
    {
      "midi": 62,
      "hit": false,
      "t": 9600,
      "d": 380,
      "v": 100
    },
    {
      "midi": 64,
      "hit": false,
      "t": 10080,
      "d": 84,
      "v": 100
    },
    {
      "midi": 55,
      "hit": false,
      "t": 10080,
      "d": 92,
      "v": 66
    },
    {
      "midi": 59,
      "hit": false,
      "t": 10080,
      "d": 100,
      "v": 89
    },
    {
      "midi": 59,
      "hit": false,
      "t": 10320,
      "d": 1846,
      "v": 105
    },
    {
      "midi": 55,
      "hit": false,
      "t": 10320,
      "d": 1850,
      "v": 95
    },
    {
      "midi": 64,
      "hit": false,
      "t": 10320,
      "d": 1860,
      "v": 107
    },
    {
      "midi": 55,
      "hit": false,
      "t": 12480,
      "d": 324,
      "v": 105
    },
    {
      "midi": 66,
      "hit": false,
      "t": 12480,
      "d": 354,
      "v": 102
    },
    {
      "midi": 62,
      "hit": false,
      "t": 12480,
      "d": 356,
      "v": 110
    },
    {
      "midi": 59,
      "hit": false,
      "t": 12480,
      "d": 370,
      "v": 102
    },
    {
      "midi": 57,
      "hit": false,
      "t": 12960,
      "d": 286,
      "v": 93
    },
    {
      "midi": 64,
      "hit": false,
      "t": 12960,
      "d": 306,
      "v": 102
    },
    {
      "midi": 61,
      "hit": false,
      "t": 12960,
      "d": 308,
      "v": 102
    },
    {
      "midi": 57,
      "hit": false,
      "t": 13440,
      "d": 342,
      "v": 91
    },
    {
      "midi": 54,
      "hit": false,
      "t": 13440,
      "d": 348,
      "v": 89
    },
    {
      "midi": 62,
      "hit": false,
      "t": 13440,
      "d": 380,
      "v": 100
    },
    {
      "midi": 64,
      "hit": false,
      "t": 13920,
      "d": 84,
      "v": 100
    },
    {
      "midi": 55,
      "hit": false,
      "t": 13920,
      "d": 92,
      "v": 66
    },
    {
      "midi": 59,
      "hit": false,
      "t": 13920,
      "d": 100,
      "v": 89
    },
    {
      "midi": 59,
      "hit": false,
      "t": 14160,
      "d": 1846,
      "v": 105
    },
    {
      "midi": 55,
      "hit": false,
      "t": 14160,
      "d": 1850,
      "v": 95
    },
    {
      "midi": 64,
      "hit": false,
      "t": 14160,
      "d": 1860,
      "v": 107
    },
    {
      "midi": 55,
      "hit": false,
      "t": 16320,
      "d": 324,
      "v": 105
    },
    {
      "midi": 66,
      "hit": false,
      "t": 16320,
      "d": 354,
      "v": 102
    },
    {
      "midi": 62,
      "hit": false,
      "t": 16320,
      "d": 356,
      "v": 110
    },
    {
      "midi": 59,
      "hit": false,
      "t": 16320,
      "d": 370,
      "v": 102
    },
    {
      "midi": 57,
      "hit": false,
      "t": 16800,
      "d": 286,
      "v": 93
    },
    {
      "midi": 64,
      "hit": false,
      "t": 16800,
      "d": 306,
      "v": 102
    },
    {
      "midi": 61,
      "hit": false,
      "t": 16800,
      "d": 308,
      "v": 102
    },
    {
      "midi": 62,
      "hit": false,
      "t": 17280,
      "d": 412,
      "v": 105
    },
    {
      "midi": 57,
      "hit": false,
      "t": 17280,
      "d": 434,
      "v": 85
    },
    {
      "midi": 50,
      "hit": false,
      "t": 17280,
      "d": 452,
      "v": 95
    },
    {
      "midi": 62,
      "hit": false,
      "t": 18240,
      "d": 342,
      "v": 98
    },
    {
      "midi": 55,
      "hit": false,
      "t": 18240,
      "d": 364,
      "v": 91
    },
    {
      "midi": 59,
      "hit": false,
      "t": 18240,
      "d": 364,
      "v": 98
    },
    {
      "midi": 57,
      "hit": false,
      "t": 19200,
      "d": 394,
      "v": 95
    },
    {
      "midi": 54,
      "hit": false,
      "t": 19200,
      "d": 406,
      "v": 70
    },
    {
      "midi": 61,
      "hit": false,
      "t": 19200,
      "d": 414,
      "v": 89
    },
    {
      "midi": 57,
      "hit": false,
      "t": 20160,
      "d": 532,
      "v": 68
    },
    {
      "midi": 61,
      "hit": false,
      "t": 20160,
      "d": 630,
      "v": 68
    },
    {
      "midi": 45,
      "hit": false,
      "t": 20160,
      "d": 642,
      "v": 70
    },
    {
      "midi": 64,
      "hit": false,
      "t": 20160,
      "d": 720,
      "v": 57
    },
    {
      "midi": 52,
      "hit": false,
      "t": 20640,
      "d": 166,
      "v": 85
    },
    {
      "midi": 57,
      "hit": false,
      "t": 20880,
      "d": 134,
      "v": 87
    },
    {
      "midi": 50,
      "hit": false,
      "t": 21120,
      "d": 1618,
      "v": 100
    },
    {
      "midi": 57,
      "hit": false,
      "t": 21360,
      "d": 1356,
      "v": 87
    },
    {
      "midi": 62,
      "hit": false,
      "t": 21600,
      "d": 192,
      "v": 80
    },
    {
      "midi": 64,
      "hit": false,
      "t": 21840,
      "d": 180,
      "v": 87
    },
    {
      "midi": 66,
      "hit": false,
      "t": 22080,
      "d": 370,
      "v": 85
    },
    {
      "midi": 66,
      "hit": false,
      "t": 22560,
      "d": 130,
      "v": 85
    },
    {
      "midi": 55,
      "hit": false,
      "t": 22920,
      "d": 668,
      "v": 40
    },
    {
      "midi": 62,
      "hit": false,
      "t": 23040,
      "d": 524,
      "v": 102
    },
    {
      "midi": 59,
      "hit": false,
      "t": 23040,
      "d": 574,
      "v": 82
    },
    {
      "midi": 66,
      "hit": false,
      "t": 24000,
      "d": 362,
      "v": 82
    },
    {
      "midi": 54,
      "hit": false,
      "t": 24000,
      "d": 432,
      "v": 80
    },
    {
      "midi": 57,
      "hit": false,
      "t": 24960,
      "d": 516,
      "v": 78
    },
    {
      "midi": 61,
      "hit": false,
      "t": 24960,
      "d": 558,
      "v": 82
    },
    {
      "midi": 64,
      "hit": false,
      "t": 24960,
      "d": 566,
      "v": 89
    },
    {
      "midi": 45,
      "hit": false,
      "t": 24960,
      "d": 1186,
      "v": 85
    },
    {
      "midi": 52,
      "hit": false,
      "t": 25440,
      "d": 698,
      "v": 80
    },
    {
      "midi": 62,
      "hit": false,
      "t": 25680,
      "d": 392,
      "v": 100
    },
    {
      "midi": 64,
      "hit": false,
      "t": 25680,
      "d": 426,
      "v": 95
    },
    {
      "midi": 61,
      "hit": false,
      "t": 26160,
      "d": 312,
      "v": 98
    },
    {
      "midi": 64,
      "hit": false,
      "t": 26160,
      "d": 360,
      "v": 61
    },
    {
      "midi": 62,
      "hit": false,
      "t": 26880,
      "d": 420,
      "v": 70
    },
    {
      "midi": 67,
      "hit": false,
      "t": 26880,
      "d": 436,
      "v": 87
    },
    {
      "midi": 71,
      "hit": false,
      "t": 26880,
      "d": 436,
      "v": 89
    },
    {
      "midi": 59,
      "hit": false,
      "t": 26880,
      "d": 448,
      "v": 66
    },
    {
      "midi": 55,
      "hit": false,
      "t": 26880,
      "d": 474,
      "v": 66
    },
    {
      "midi": 66,
      "hit": false,
      "t": 27840,
      "d": 412,
      "v": 98
    },
    {
      "midi": 54,
      "hit": false,
      "t": 27840,
      "d": 416,
      "v": 87
    },
    {
      "midi": 52,
      "hit": false,
      "t": 28680,
      "d": 452,
      "v": 78
    },
    {
      "midi": 59,
      "hit": false,
      "t": 28800,
      "d": 294,
      "v": 89
    },
    {
      "midi": 67,
      "hit": false,
      "t": 28800,
      "d": 298,
      "v": 89
    },
    {
      "midi": 62,
      "hit": false,
      "t": 28800,
      "d": 312,
      "v": 91
    },
    {
      "midi": 55,
      "hit": false,
      "t": 28800,
      "d": 378,
      "v": 72
    },
    {
      "midi": 61,
      "hit": false,
      "t": 29760,
      "d": 426,
      "v": 87
    },
    {
      "midi": 64,
      "hit": false,
      "t": 29760,
      "d": 444,
      "v": 91
    },
    {
      "midi": 57,
      "hit": false,
      "t": 29760,
      "d": 446,
      "v": 85
    },
    {
      "midi": 52,
      "hit": false,
      "t": 29760,
      "d": 544,
      "v": 76
    },
    {
      "midi": 45,
      "hit": false,
      "t": 29760,
      "d": 548,
      "v": 85
    },
    {
      "midi": 59,
      "hit": false,
      "t": 30240,
      "d": 90,
      "v": 95
    },
    {
      "midi": 64,
      "hit": false,
      "t": 30240,
      "d": 156,
      "v": 89
    },
    {
      "midi": 62,
      "hit": false,
      "t": 30720,
      "d": 338,
      "v": 85
    },
    {
      "midi": 66,
      "hit": false,
      "t": 30720,
      "d": 442,
      "v": 76
    },
    {
      "midi": 50,
      "hit": false,
      "t": 30720,
      "d": 1832,
      "v": 91
    },
    {
      "midi": 57,
      "hit": false,
      "t": 30720,
      "d": 1860,
      "v": 85
    },
    {
      "midi": 62,
      "hit": false,
      "t": 31200,
      "d": 100,
      "v": 80
    },
    {
      "midi": 62,
      "hit": false,
      "t": 31440,
      "d": 382,
      "v": 98
    },
    {
      "midi": 67,
      "hit": false,
      "t": 31440,
      "d": 416,
      "v": 102
    },
    {
      "midi": 62,
      "hit": false,
      "t": 31920,
      "d": 374,
      "v": 95
    },
    {
      "midi": 64,
      "hit": false,
      "t": 32400,
      "d": 148,
      "v": 98
    },
    {
      "midi": 57,
      "hit": false,
      "t": 32640,
      "d": 1190,
      "v": 74
    },
    {
      "midi": 66,
      "hit": false,
      "t": 32640,
      "d": 1190,
      "v": 89
    },
    {
      "midi": 50,
      "hit": false,
      "t": 32640,
      "d": 1194,
      "v": 89
    },
    {
      "midi": 62,
      "hit": false,
      "t": 32640,
      "d": 1198,
      "v": 85
    },
    {
      "midi": 61,
      "hit": false,
      "t": 34560,
      "d": 1168,
      "v": 89
    },
    {
      "midi": 64,
      "hit": false,
      "t": 34560,
      "d": 1196,
      "v": 95
    },
    {
      "midi": 57,
      "hit": false,
      "t": 34560,
      "d": 1208,
      "v": 87
    },
    {
      "midi": 45,
      "hit": false,
      "t": 34560,
      "d": 1238,
      "v": 76
    },
    {
      "midi": 52,
      "hit": false,
      "t": 34560,
      "d": 1254,
      "v": 74
    },
    {
      "midi": 50,
      "hit": false,
      "t": 36480,
      "d": 1250,
      "v": 91
    },
    {
      "midi": 66,
      "hit": false,
      "t": 36480,
      "d": 1262,
      "v": 87
    },
    {
      "midi": 62,
      "hit": false,
      "t": 36480,
      "d": 1274,
      "v": 102
    },
    {
      "midi": 57,
      "hit": false,
      "t": 36480,
      "d": 1300,
      "v": 87
    },
    {
      "midi": 61,
      "hit": false,
      "t": 38400,
      "d": 964,
      "v": 89
    },
    {
      "midi": 52,
      "hit": false,
      "t": 38400,
      "d": 982,
      "v": 70
    },
    {
      "midi": 57,
      "hit": false,
      "t": 38400,
      "d": 982,
      "v": 85
    },
    {
      "midi": 45,
      "hit": false,
      "t": 38400,
      "d": 988,
      "v": 87
    },
    {
      "midi": 64,
      "hit": false,
      "t": 38400,
      "d": 1012,
      "v": 95
    },
    {
      "midi": 50,
      "hit": false,
      "t": 40320,
      "d": 1230,
      "v": 102
    },
    {
      "midi": 57,
      "hit": false,
      "t": 40320,
      "d": 1240,
      "v": 89
    },
    {
      "midi": 62,
      "hit": false,
      "t": 40320,
      "d": 1244,
      "v": 100
    },
    {
      "midi": 66,
      "hit": false,
      "t": 40320,
      "d": 1248,
      "v": 87
    },
    {
      "midi": 61,
      "hit": false,
      "t": 42240,
      "d": 802,
      "v": 89
    },
    {
      "midi": 57,
      "hit": false,
      "t": 42240,
      "d": 830,
      "v": 85
    },
    {
      "midi": 64,
      "hit": false,
      "t": 42240,
      "d": 854,
      "v": 89
    },
    {
      "midi": 52,
      "hit": false,
      "t": 42240,
      "d": 858,
      "v": 82
    },
    {
      "midi": 45,
      "hit": false,
      "t": 42240,
      "d": 860,
      "v": 85
    },
    {
      "midi": 57,
      "hit": false,
      "t": 44160,
      "d": 480,
      "v": 87
    },
    {
      "midi": 50,
      "hit": false,
      "t": 44160,
      "d": 488,
      "v": 95
    },
    {
      "midi": 62,
      "hit": false,
      "t": 44160,
      "d": 496,
      "v": 105
    },
    {
      "midi": 66,
      "hit": false,
      "t": 44160,
      "d": 518,
      "v": 87
    },
    {
      "midi": 62,
      "hit": false,
      "t": 46080,
      "d": 330,
      "v": 98
    },
    {
      "midi": 67,
      "hit": false,
      "t": 46080,
      "d": 352,
      "v": 100
    },
    {
      "midi": 59,
      "hit": false,
      "t": 46080,
      "d": 366,
      "v": 80
    },
    {
      "midi": 55,
      "hit": false,
      "t": 46080,
      "d": 388,
      "v": 89
    },
    {
      "midi": 61,
      "hit": false,
      "t": 47040,
      "d": 412,
      "v": 85
    },
    {
      "midi": 66,
      "hit": false,
      "t": 47040,
      "d": 414,
      "v": 85
    },
    {
      "midi": 54,
      "hit": false,
      "t": 47040,
      "d": 422,
      "v": 82
    },
    {
      "midi": 59,
      "hit": false,
      "t": 48000,
      "d": 310,
      "v": 76
    },
    {
      "midi": 55,
      "hit": false,
      "t": 48000,
      "d": 348,
      "v": 82
    },
    {
      "midi": 64,
      "hit": false,
      "t": 48000,
      "d": 348,
      "v": 100
    },
    {
      "midi": 52,
      "hit": false,
      "t": 48000,
      "d": 376,
      "v": 85
    },
    {
      "midi": 45,
      "hit": false,
      "t": 48960,
      "d": 442,
      "v": 89
    },
    {
      "midi": 52,
      "hit": false,
      "t": 48960,
      "d": 444,
      "v": 85
    },
    {
      "midi": 57,
      "hit": false,
      "t": 48960,
      "d": 454,
      "v": 85
    },
    {
      "midi": 61,
      "hit": false,
      "t": 48960,
      "d": 456,
      "v": 87
    },
    {
      "midi": 64,
      "hit": false,
      "t": 48960,
      "d": 468,
      "v": 93
    },
    {
      "midi": 62,
      "hit": false,
      "t": 49920,
      "d": 528,
      "v": 102
    },
    {
      "midi": 50,
      "hit": false,
      "t": 49920,
      "d": 1848,
      "v": 93
    },
    {
      "midi": 64,
      "hit": false,
      "t": 50640,
      "d": 510,
      "v": 100
    },
    {
      "midi": 67,
      "hit": false,
      "t": 50640,
      "d": 512,
      "v": 107
    },
    {
      "midi": 64,
      "hit": false,
      "t": 51360,
      "d": 414,
      "v": 100
    },
    {
      "midi": 50,
      "hit": false,
      "t": 51840,
      "d": 160,
      "v": 105
    },
    {
      "midi": 66,
      "hit": false,
      "t": 51840,
      "d": 162,
      "v": 107
    },
    {
      "midi": 57,
      "hit": false,
      "t": 51840,
      "d": 186,
      "v": 82
    },
    {
      "midi": 62,
      "hit": false,
      "t": 51840,
      "d": 202,
      "v": 102
    },
    {
      "midi": 62,
      "hit": false,
      "t": 53760,
      "d": 412,
      "v": 105
    },
    {
      "midi": 57,
      "hit": false,
      "t": 53760,
      "d": 434,
      "v": 85
    },
    {
      "midi": 50,
      "hit": false,
      "t": 53760,
      "d": 452,
      "v": 95
    },
    {
      "midi": 62,
      "hit": false,
      "t": 54720,
      "d": 342,
      "v": 98
    },
    {
      "midi": 55,
      "hit": false,
      "t": 54720,
      "d": 364,
      "v": 91
    },
    {
      "midi": 59,
      "hit": false,
      "t": 54720,
      "d": 364,
      "v": 98
    },
    {
      "midi": 57,
      "hit": false,
      "t": 55680,
      "d": 394,
      "v": 95
    },
    {
      "midi": 54,
      "hit": false,
      "t": 55680,
      "d": 406,
      "v": 70
    },
    {
      "midi": 61,
      "hit": false,
      "t": 55680,
      "d": 414,
      "v": 89
    },
    {
      "midi": 57,
      "hit": false,
      "t": 56640,
      "d": 532,
      "v": 68
    },
    {
      "midi": 61,
      "hit": false,
      "t": 56640,
      "d": 630,
      "v": 68
    },
    {
      "midi": 45,
      "hit": false,
      "t": 56640,
      "d": 642,
      "v": 70
    },
    {
      "midi": 64,
      "hit": false,
      "t": 56640,
      "d": 720,
      "v": 57
    },
    {
      "midi": 52,
      "hit": false,
      "t": 57120,
      "d": 166,
      "v": 85
    },
    {
      "midi": 57,
      "hit": false,
      "t": 57360,
      "d": 134,
      "v": 87
    },
    {
      "midi": 50,
      "hit": false,
      "t": 57600,
      "d": 1618,
      "v": 100
    },
    {
      "midi": 57,
      "hit": false,
      "t": 57840,
      "d": 1356,
      "v": 87
    },
    {
      "midi": 62,
      "hit": false,
      "t": 58080,
      "d": 192,
      "v": 80
    },
    {
      "midi": 64,
      "hit": false,
      "t": 58320,
      "d": 180,
      "v": 87
    },
    {
      "midi": 66,
      "hit": false,
      "t": 58560,
      "d": 370,
      "v": 85
    },
    {
      "midi": 66,
      "hit": false,
      "t": 59040,
      "d": 130,
      "v": 85
    },
    {
      "midi": 55,
      "hit": false,
      "t": 59400,
      "d": 668,
      "v": 40
    },
    {
      "midi": 62,
      "hit": false,
      "t": 59520,
      "d": 524,
      "v": 102
    },
    {
      "midi": 59,
      "hit": false,
      "t": 59520,
      "d": 574,
      "v": 82
    },
    {
      "midi": 66,
      "hit": false,
      "t": 60480,
      "d": 362,
      "v": 82
    },
    {
      "midi": 54,
      "hit": false,
      "t": 60480,
      "d": 432,
      "v": 80
    },
    {
      "midi": 57,
      "hit": false,
      "t": 61440,
      "d": 516,
      "v": 78
    },
    {
      "midi": 61,
      "hit": false,
      "t": 61440,
      "d": 558,
      "v": 82
    },
    {
      "midi": 64,
      "hit": false,
      "t": 61440,
      "d": 566,
      "v": 89
    },
    {
      "midi": 45,
      "hit": false,
      "t": 61440,
      "d": 1186,
      "v": 85
    },
    {
      "midi": 52,
      "hit": false,
      "t": 61920,
      "d": 698,
      "v": 80
    },
    {
      "midi": 62,
      "hit": false,
      "t": 62160,
      "d": 392,
      "v": 100
    },
    {
      "midi": 64,
      "hit": false,
      "t": 62160,
      "d": 426,
      "v": 95
    },
    {
      "midi": 61,
      "hit": false,
      "t": 62640,
      "d": 312,
      "v": 98
    },
    {
      "midi": 64,
      "hit": false,
      "t": 62640,
      "d": 360,
      "v": 61
    },
    {
      "midi": 62,
      "hit": false,
      "t": 63360,
      "d": 420,
      "v": 70
    },
    {
      "midi": 67,
      "hit": false,
      "t": 63360,
      "d": 436,
      "v": 87
    },
    {
      "midi": 71,
      "hit": false,
      "t": 63360,
      "d": 436,
      "v": 89
    },
    {
      "midi": 59,
      "hit": false,
      "t": 63360,
      "d": 448,
      "v": 66
    },
    {
      "midi": 55,
      "hit": false,
      "t": 63360,
      "d": 474,
      "v": 66
    },
    {
      "midi": 66,
      "hit": false,
      "t": 64320,
      "d": 412,
      "v": 98
    },
    {
      "midi": 54,
      "hit": false,
      "t": 64320,
      "d": 416,
      "v": 87
    },
    {
      "midi": 52,
      "hit": false,
      "t": 65160,
      "d": 452,
      "v": 78
    },
    {
      "midi": 59,
      "hit": false,
      "t": 65280,
      "d": 294,
      "v": 89
    },
    {
      "midi": 67,
      "hit": false,
      "t": 65280,
      "d": 298,
      "v": 89
    },
    {
      "midi": 62,
      "hit": false,
      "t": 65280,
      "d": 312,
      "v": 91
    },
    {
      "midi": 55,
      "hit": false,
      "t": 65280,
      "d": 378,
      "v": 72
    },
    {
      "midi": 61,
      "hit": false,
      "t": 66240,
      "d": 426,
      "v": 87
    },
    {
      "midi": 64,
      "hit": false,
      "t": 66240,
      "d": 444,
      "v": 91
    },
    {
      "midi": 57,
      "hit": false,
      "t": 66240,
      "d": 446,
      "v": 85
    },
    {
      "midi": 52,
      "hit": false,
      "t": 66240,
      "d": 544,
      "v": 76
    },
    {
      "midi": 45,
      "hit": false,
      "t": 66240,
      "d": 548,
      "v": 85
    },
    {
      "midi": 59,
      "hit": false,
      "t": 66720,
      "d": 90,
      "v": 95
    },
    {
      "midi": 64,
      "hit": false,
      "t": 66720,
      "d": 156,
      "v": 89
    },
    {
      "midi": 62,
      "hit": false,
      "t": 67200,
      "d": 338,
      "v": 85
    },
    {
      "midi": 66,
      "hit": false,
      "t": 67200,
      "d": 442,
      "v": 76
    },
    {
      "midi": 50,
      "hit": false,
      "t": 67200,
      "d": 1832,
      "v": 91
    },
    {
      "midi": 57,
      "hit": false,
      "t": 67200,
      "d": 1860,
      "v": 85
    },
    {
      "midi": 62,
      "hit": false,
      "t": 67680,
      "d": 100,
      "v": 80
    },
    {
      "midi": 62,
      "hit": false,
      "t": 67920,
      "d": 382,
      "v": 98
    },
    {
      "midi": 67,
      "hit": false,
      "t": 67920,
      "d": 416,
      "v": 102
    },
    {
      "midi": 62,
      "hit": false,
      "t": 68400,
      "d": 374,
      "v": 95
    },
    {
      "midi": 64,
      "hit": false,
      "t": 68880,
      "d": 148,
      "v": 98
    },
    {
      "midi": 57,
      "hit": false,
      "t": 69120,
      "d": 1190,
      "v": 74
    },
    {
      "midi": 66,
      "hit": false,
      "t": 69120,
      "d": 1190,
      "v": 89
    },
    {
      "midi": 50,
      "hit": false,
      "t": 69120,
      "d": 1194,
      "v": 89
    },
    {
      "midi": 62,
      "hit": false,
      "t": 69120,
      "d": 1198,
      "v": 85
    },
    {
      "midi": 61,
      "hit": false,
      "t": 71040,
      "d": 1168,
      "v": 89
    },
    {
      "midi": 64,
      "hit": false,
      "t": 71040,
      "d": 1196,
      "v": 95
    },
    {
      "midi": 57,
      "hit": false,
      "t": 71040,
      "d": 1208,
      "v": 87
    },
    {
      "midi": 45,
      "hit": false,
      "t": 71040,
      "d": 1238,
      "v": 76
    },
    {
      "midi": 52,
      "hit": false,
      "t": 71040,
      "d": 1254,
      "v": 74
    },
    {
      "midi": 50,
      "hit": false,
      "t": 72960,
      "d": 1250,
      "v": 91
    },
    {
      "midi": 66,
      "hit": false,
      "t": 72960,
      "d": 1262,
      "v": 87
    },
    {
      "midi": 62,
      "hit": false,
      "t": 72960,
      "d": 1274,
      "v": 102
    },
    {
      "midi": 57,
      "hit": false,
      "t": 72960,
      "d": 1300,
      "v": 87
    },
    {
      "midi": 61,
      "hit": false,
      "t": 74880,
      "d": 964,
      "v": 89
    },
    {
      "midi": 52,
      "hit": false,
      "t": 74880,
      "d": 982,
      "v": 70
    },
    {
      "midi": 57,
      "hit": false,
      "t": 74880,
      "d": 982,
      "v": 85
    },
    {
      "midi": 45,
      "hit": false,
      "t": 74880,
      "d": 988,
      "v": 87
    },
    {
      "midi": 64,
      "hit": false,
      "t": 74880,
      "d": 1012,
      "v": 95
    },
    {
      "midi": 50,
      "hit": false,
      "t": 76800,
      "d": 1230,
      "v": 102
    },
    {
      "midi": 57,
      "hit": false,
      "t": 76800,
      "d": 1240,
      "v": 89
    },
    {
      "midi": 62,
      "hit": false,
      "t": 76800,
      "d": 1244,
      "v": 100
    },
    {
      "midi": 66,
      "hit": false,
      "t": 76800,
      "d": 1248,
      "v": 87
    },
    {
      "midi": 61,
      "hit": false,
      "t": 78720,
      "d": 802,
      "v": 89
    },
    {
      "midi": 57,
      "hit": false,
      "t": 78720,
      "d": 830,
      "v": 85
    },
    {
      "midi": 64,
      "hit": false,
      "t": 78720,
      "d": 854,
      "v": 89
    },
    {
      "midi": 52,
      "hit": false,
      "t": 78720,
      "d": 858,
      "v": 82
    },
    {
      "midi": 45,
      "hit": false,
      "t": 78720,
      "d": 860,
      "v": 85
    },
    {
      "midi": 57,
      "hit": false,
      "t": 80640,
      "d": 480,
      "v": 87
    },
    {
      "midi": 50,
      "hit": false,
      "t": 80640,
      "d": 488,
      "v": 95
    },
    {
      "midi": 62,
      "hit": false,
      "t": 80640,
      "d": 496,
      "v": 105
    },
    {
      "midi": 66,
      "hit": false,
      "t": 80640,
      "d": 518,
      "v": 87
    },
    {
      "midi": 62,
      "hit": false,
      "t": 82560,
      "d": 330,
      "v": 98
    },
    {
      "midi": 67,
      "hit": false,
      "t": 82560,
      "d": 352,
      "v": 100
    },
    {
      "midi": 59,
      "hit": false,
      "t": 82560,
      "d": 366,
      "v": 80
    },
    {
      "midi": 55,
      "hit": false,
      "t": 82560,
      "d": 388,
      "v": 89
    },
    {
      "midi": 61,
      "hit": false,
      "t": 83520,
      "d": 412,
      "v": 85
    },
    {
      "midi": 66,
      "hit": false,
      "t": 83520,
      "d": 414,
      "v": 85
    },
    {
      "midi": 54,
      "hit": false,
      "t": 83520,
      "d": 422,
      "v": 82
    },
    {
      "midi": 59,
      "hit": false,
      "t": 84480,
      "d": 310,
      "v": 76
    },
    {
      "midi": 55,
      "hit": false,
      "t": 84480,
      "d": 348,
      "v": 82
    },
    {
      "midi": 64,
      "hit": false,
      "t": 84480,
      "d": 348,
      "v": 100
    },
    {
      "midi": 52,
      "hit": false,
      "t": 84480,
      "d": 376,
      "v": 85
    },
    {
      "midi": 45,
      "hit": false,
      "t": 85440,
      "d": 442,
      "v": 89
    },
    {
      "midi": 52,
      "hit": false,
      "t": 85440,
      "d": 444,
      "v": 85
    },
    {
      "midi": 57,
      "hit": false,
      "t": 85440,
      "d": 454,
      "v": 85
    },
    {
      "midi": 61,
      "hit": false,
      "t": 85440,
      "d": 456,
      "v": 87
    },
    {
      "midi": 64,
      "hit": false,
      "t": 85440,
      "d": 468,
      "v": 93
    },
    {
      "midi": 62,
      "hit": false,
      "t": 86400,
      "d": 528,
      "v": 102
    },
    {
      "midi": 50,
      "hit": false,
      "t": 86400,
      "d": 1848,
      "v": 93
    },
    {
      "midi": 64,
      "hit": false,
      "t": 87120,
      "d": 510,
      "v": 100
    },
    {
      "midi": 67,
      "hit": false,
      "t": 87120,
      "d": 512,
      "v": 107
    },
    {
      "midi": 64,
      "hit": false,
      "t": 87840,
      "d": 414,
      "v": 100
    },
    {
      "midi": 50,
      "hit": false,
      "t": 88320,
      "d": 160,
      "v": 105
    },
    {
      "midi": 66,
      "hit": false,
      "t": 88320,
      "d": 162,
      "v": 107
    },
    {
      "midi": 57,
      "hit": false,
      "t": 88320,
      "d": 186,
      "v": 82
    },
    {
      "midi": 62,
      "hit": false,
      "t": 88320,
      "d": 202,
      "v": 102
    },
    {
      "midi": 62,
      "hit": false,
      "t": 90240,
      "d": 412,
      "v": 105
    },
    {
      "midi": 57,
      "hit": false,
      "t": 90240,
      "d": 434,
      "v": 85
    },
    {
      "midi": 50,
      "hit": false,
      "t": 90240,
      "d": 452,
      "v": 95
    },
    {
      "midi": 62,
      "hit": false,
      "t": 91200,
      "d": 342,
      "v": 98
    },
    {
      "midi": 55,
      "hit": false,
      "t": 91200,
      "d": 364,
      "v": 91
    },
    {
      "midi": 59,
      "hit": false,
      "t": 91200,
      "d": 364,
      "v": 98
    },
    {
      "midi": 57,
      "hit": false,
      "t": 92160,
      "d": 394,
      "v": 95
    },
    {
      "midi": 54,
      "hit": false,
      "t": 92160,
      "d": 406,
      "v": 70
    },
    {
      "midi": 61,
      "hit": false,
      "t": 92160,
      "d": 414,
      "v": 89
    },
    {
      "midi": 57,
      "hit": false,
      "t": 93120,
      "d": 532,
      "v": 68
    },
    {
      "midi": 61,
      "hit": false,
      "t": 93120,
      "d": 630,
      "v": 68
    },
    {
      "midi": 45,
      "hit": false,
      "t": 93120,
      "d": 642,
      "v": 70
    },
    {
      "midi": 64,
      "hit": false,
      "t": 93120,
      "d": 720,
      "v": 57
    },
    {
      "midi": 52,
      "hit": false,
      "t": 93600,
      "d": 166,
      "v": 85
    },
    {
      "midi": 57,
      "hit": false,
      "t": 93840,
      "d": 134,
      "v": 87
    },
    {
      "midi": 50,
      "hit": false,
      "t": 94080,
      "d": 1618,
      "v": 100
    },
    {
      "midi": 57,
      "hit": false,
      "t": 94320,
      "d": 1356,
      "v": 87
    },
    {
      "midi": 62,
      "hit": false,
      "t": 94560,
      "d": 192,
      "v": 80
    },
    {
      "midi": 64,
      "hit": false,
      "t": 94800,
      "d": 180,
      "v": 87
    },
    {
      "midi": 66,
      "hit": false,
      "t": 95040,
      "d": 370,
      "v": 85
    },
    {
      "midi": 66,
      "hit": false,
      "t": 95520,
      "d": 130,
      "v": 85
    },
    {
      "midi": 55,
      "hit": false,
      "t": 95880,
      "d": 668,
      "v": 40
    },
    {
      "midi": 62,
      "hit": false,
      "t": 96000,
      "d": 524,
      "v": 102
    },
    {
      "midi": 59,
      "hit": false,
      "t": 96000,
      "d": 574,
      "v": 82
    },
    {
      "midi": 66,
      "hit": false,
      "t": 96960,
      "d": 362,
      "v": 82
    },
    {
      "midi": 54,
      "hit": false,
      "t": 96960,
      "d": 432,
      "v": 80
    },
    {
      "midi": 57,
      "hit": false,
      "t": 97920,
      "d": 516,
      "v": 78
    },
    {
      "midi": 61,
      "hit": false,
      "t": 97920,
      "d": 558,
      "v": 82
    },
    {
      "midi": 64,
      "hit": false,
      "t": 97920,
      "d": 566,
      "v": 89
    },
    {
      "midi": 45,
      "hit": false,
      "t": 97920,
      "d": 1186,
      "v": 85
    },
    {
      "midi": 52,
      "hit": false,
      "t": 98400,
      "d": 698,
      "v": 80
    },
    {
      "midi": 62,
      "hit": false,
      "t": 98640,
      "d": 392,
      "v": 100
    },
    {
      "midi": 64,
      "hit": false,
      "t": 98640,
      "d": 426,
      "v": 95
    },
    {
      "midi": 61,
      "hit": false,
      "t": 99120,
      "d": 312,
      "v": 98
    },
    {
      "midi": 64,
      "hit": false,
      "t": 99120,
      "d": 360,
      "v": 61
    },
    {
      "midi": 62,
      "hit": false,
      "t": 99840,
      "d": 420,
      "v": 70
    },
    {
      "midi": 67,
      "hit": false,
      "t": 99840,
      "d": 436,
      "v": 87
    },
    {
      "midi": 71,
      "hit": false,
      "t": 99840,
      "d": 436,
      "v": 89
    },
    {
      "midi": 59,
      "hit": false,
      "t": 99840,
      "d": 448,
      "v": 66
    },
    {
      "midi": 55,
      "hit": false,
      "t": 99840,
      "d": 474,
      "v": 66
    },
    {
      "midi": 66,
      "hit": false,
      "t": 100800,
      "d": 412,
      "v": 98
    },
    {
      "midi": 54,
      "hit": false,
      "t": 100800,
      "d": 416,
      "v": 87
    },
    {
      "midi": 52,
      "hit": false,
      "t": 101640,
      "d": 452,
      "v": 78
    },
    {
      "midi": 59,
      "hit": false,
      "t": 101760,
      "d": 294,
      "v": 89
    },
    {
      "midi": 67,
      "hit": false,
      "t": 101760,
      "d": 298,
      "v": 89
    },
    {
      "midi": 62,
      "hit": false,
      "t": 101760,
      "d": 312,
      "v": 91
    },
    {
      "midi": 55,
      "hit": false,
      "t": 101760,
      "d": 378,
      "v": 72
    },
    {
      "midi": 61,
      "hit": false,
      "t": 102720,
      "d": 426,
      "v": 87
    },
    {
      "midi": 64,
      "hit": false,
      "t": 102720,
      "d": 444,
      "v": 91
    },
    {
      "midi": 57,
      "hit": false,
      "t": 102720,
      "d": 446,
      "v": 85
    },
    {
      "midi": 52,
      "hit": false,
      "t": 102720,
      "d": 544,
      "v": 76
    },
    {
      "midi": 45,
      "hit": false,
      "t": 102720,
      "d": 548,
      "v": 85
    },
    {
      "midi": 59,
      "hit": false,
      "t": 103200,
      "d": 90,
      "v": 95
    },
    {
      "midi": 64,
      "hit": false,
      "t": 103200,
      "d": 156,
      "v": 89
    },
    {
      "midi": 62,
      "hit": false,
      "t": 103680,
      "d": 338,
      "v": 85
    },
    {
      "midi": 66,
      "hit": false,
      "t": 103680,
      "d": 442,
      "v": 76
    },
    {
      "midi": 50,
      "hit": false,
      "t": 103680,
      "d": 1832,
      "v": 91
    },
    {
      "midi": 57,
      "hit": false,
      "t": 103680,
      "d": 1860,
      "v": 85
    },
    {
      "midi": 62,
      "hit": false,
      "t": 104160,
      "d": 100,
      "v": 80
    },
    {
      "midi": 62,
      "hit": false,
      "t": 104400,
      "d": 382,
      "v": 98
    },
    {
      "midi": 67,
      "hit": false,
      "t": 104400,
      "d": 416,
      "v": 102
    },
    {
      "midi": 62,
      "hit": false,
      "t": 104880,
      "d": 374,
      "v": 95
    },
    {
      "midi": 64,
      "hit": false,
      "t": 105360,
      "d": 148,
      "v": 98
    },
    {
      "midi": 57,
      "hit": false,
      "t": 105600,
      "d": 1190,
      "v": 74
    },
    {
      "midi": 66,
      "hit": false,
      "t": 105600,
      "d": 1190,
      "v": 89
    },
    {
      "midi": 50,
      "hit": false,
      "t": 105600,
      "d": 1194,
      "v": 89
    },
    {
      "midi": 62,
      "hit": false,
      "t": 105600,
      "d": 1198,
      "v": 85
    },
    {
      "midi": 61,
      "hit": false,
      "t": 107520,
      "d": 1168,
      "v": 89
    },
    {
      "midi": 64,
      "hit": false,
      "t": 107520,
      "d": 1196,
      "v": 95
    },
    {
      "midi": 57,
      "hit": false,
      "t": 107520,
      "d": 1208,
      "v": 87
    },
    {
      "midi": 45,
      "hit": false,
      "t": 107520,
      "d": 1238,
      "v": 76
    },
    {
      "midi": 52,
      "hit": false,
      "t": 107520,
      "d": 1254,
      "v": 74
    },
    {
      "midi": 50,
      "hit": false,
      "t": 109440,
      "d": 1250,
      "v": 91
    },
    {
      "midi": 66,
      "hit": false,
      "t": 109440,
      "d": 1262,
      "v": 87
    },
    {
      "midi": 62,
      "hit": false,
      "t": 109440,
      "d": 1274,
      "v": 102
    },
    {
      "midi": 57,
      "hit": false,
      "t": 109440,
      "d": 1300,
      "v": 87
    },
    {
      "midi": 61,
      "hit": false,
      "t": 111360,
      "d": 964,
      "v": 89
    },
    {
      "midi": 52,
      "hit": false,
      "t": 111360,
      "d": 982,
      "v": 70
    },
    {
      "midi": 57,
      "hit": false,
      "t": 111360,
      "d": 982,
      "v": 85
    },
    {
      "midi": 45,
      "hit": false,
      "t": 111360,
      "d": 988,
      "v": 87
    },
    {
      "midi": 64,
      "hit": false,
      "t": 111360,
      "d": 1012,
      "v": 95
    },
    {
      "midi": 50,
      "hit": false,
      "t": 113280,
      "d": 1230,
      "v": 102
    },
    {
      "midi": 57,
      "hit": false,
      "t": 113280,
      "d": 1240,
      "v": 89
    },
    {
      "midi": 62,
      "hit": false,
      "t": 113280,
      "d": 1244,
      "v": 100
    },
    {
      "midi": 66,
      "hit": false,
      "t": 113280,
      "d": 1248,
      "v": 87
    },
    {
      "midi": 61,
      "hit": false,
      "t": 115200,
      "d": 802,
      "v": 89
    },
    {
      "midi": 57,
      "hit": false,
      "t": 115200,
      "d": 830,
      "v": 85
    },
    {
      "midi": 64,
      "hit": false,
      "t": 115200,
      "d": 854,
      "v": 89
    },
    {
      "midi": 52,
      "hit": false,
      "t": 115200,
      "d": 858,
      "v": 82
    },
    {
      "midi": 45,
      "hit": false,
      "t": 115200,
      "d": 860,
      "v": 85
    },
    {
      "midi": 57,
      "hit": false,
      "t": 117120,
      "d": 480,
      "v": 87
    },
    {
      "midi": 50,
      "hit": false,
      "t": 117120,
      "d": 488,
      "v": 95
    },
    {
      "midi": 62,
      "hit": false,
      "t": 117120,
      "d": 496,
      "v": 105
    },
    {
      "midi": 66,
      "hit": false,
      "t": 117120,
      "d": 518,
      "v": 87
    },
    {
      "midi": 62,
      "hit": false,
      "t": 119040,
      "d": 330,
      "v": 98
    },
    {
      "midi": 67,
      "hit": false,
      "t": 119040,
      "d": 352,
      "v": 100
    },
    {
      "midi": 59,
      "hit": false,
      "t": 119040,
      "d": 366,
      "v": 80
    },
    {
      "midi": 55,
      "hit": false,
      "t": 119040,
      "d": 388,
      "v": 89
    },
    {
      "midi": 61,
      "hit": false,
      "t": 120000,
      "d": 412,
      "v": 85
    },
    {
      "midi": 66,
      "hit": false,
      "t": 120000,
      "d": 414,
      "v": 85
    },
    {
      "midi": 54,
      "hit": false,
      "t": 120000,
      "d": 422,
      "v": 82
    },
    {
      "midi": 59,
      "hit": false,
      "t": 120960,
      "d": 310,
      "v": 76
    },
    {
      "midi": 55,
      "hit": false,
      "t": 120960,
      "d": 348,
      "v": 82
    },
    {
      "midi": 64,
      "hit": false,
      "t": 120960,
      "d": 348,
      "v": 100
    },
    {
      "midi": 52,
      "hit": false,
      "t": 120960,
      "d": 376,
      "v": 85
    },
    {
      "midi": 45,
      "hit": false,
      "t": 121920,
      "d": 442,
      "v": 89
    },
    {
      "midi": 52,
      "hit": false,
      "t": 121920,
      "d": 444,
      "v": 85
    },
    {
      "midi": 57,
      "hit": false,
      "t": 121920,
      "d": 454,
      "v": 85
    },
    {
      "midi": 61,
      "hit": false,
      "t": 121920,
      "d": 456,
      "v": 87
    },
    {
      "midi": 64,
      "hit": false,
      "t": 121920,
      "d": 468,
      "v": 93
    },
    {
      "midi": 62,
      "hit": false,
      "t": 122880,
      "d": 528,
      "v": 102
    },
    {
      "midi": 50,
      "hit": false,
      "t": 122880,
      "d": 1848,
      "v": 93
    },
    {
      "midi": 64,
      "hit": false,
      "t": 123600,
      "d": 510,
      "v": 100
    },
    {
      "midi": 67,
      "hit": false,
      "t": 123600,
      "d": 512,
      "v": 107
    },
    {
      "midi": 64,
      "hit": false,
      "t": 124320,
      "d": 414,
      "v": 100
    },
    {
      "midi": 50,
      "hit": false,
      "t": 124800,
      "d": 160,
      "v": 105
    },
    {
      "midi": 66,
      "hit": false,
      "t": 124800,
      "d": 162,
      "v": 107
    },
    {
      "midi": 57,
      "hit": false,
      "t": 124800,
      "d": 186,
      "v": 82
    },
    {
      "midi": 62,
      "hit": false,
      "t": 124800,
      "d": 202,
      "v": 102
    },
    {
      "midi": 62,
      "hit": false,
      "t": 126720,
      "d": 412,
      "v": 105
    },
    {
      "midi": 57,
      "hit": false,
      "t": 126720,
      "d": 434,
      "v": 85
    },
    {
      "midi": 50,
      "hit": false,
      "t": 126720,
      "d": 452,
      "v": 95
    },
    {
      "midi": 62,
      "hit": false,
      "t": 127680,
      "d": 342,
      "v": 98
    },
    {
      "midi": 55,
      "hit": false,
      "t": 127680,
      "d": 364,
      "v": 91
    },
    {
      "midi": 59,
      "hit": false,
      "t": 127680,
      "d": 364,
      "v": 98
    },
    {
      "midi": 57,
      "hit": false,
      "t": 128640,
      "d": 394,
      "v": 95
    },
    {
      "midi": 54,
      "hit": false,
      "t": 128640,
      "d": 406,
      "v": 70
    },
    {
      "midi": 61,
      "hit": false,
      "t": 128640,
      "d": 414,
      "v": 89
    },
    {
      "midi": 57,
      "hit": false,
      "t": 129600,
      "d": 532,
      "v": 68
    },
    {
      "midi": 61,
      "hit": false,
      "t": 129600,
      "d": 630,
      "v": 68
    },
    {
      "midi": 45,
      "hit": false,
      "t": 129600,
      "d": 642,
      "v": 70
    },
    {
      "midi": 64,
      "hit": false,
      "t": 129600,
      "d": 720,
      "v": 57
    },
    {
      "midi": 52,
      "hit": false,
      "t": 130080,
      "d": 166,
      "v": 85
    },
    {
      "midi": 57,
      "hit": false,
      "t": 130320,
      "d": 134,
      "v": 87
    },
    {
      "midi": 50,
      "hit": false,
      "t": 130560,
      "d": 1618,
      "v": 100
    },
    {
      "midi": 57,
      "hit": false,
      "t": 130800,
      "d": 1356,
      "v": 87
    },
    {
      "midi": 62,
      "hit": false,
      "t": 131040,
      "d": 192,
      "v": 80
    },
    {
      "midi": 64,
      "hit": false,
      "t": 131280,
      "d": 180,
      "v": 87
    },
    {
      "midi": 66,
      "hit": false,
      "t": 131520,
      "d": 370,
      "v": 85
    },
    {
      "midi": 66,
      "hit": false,
      "t": 132000,
      "d": 130,
      "v": 85
    },
    {
      "midi": 55,
      "hit": false,
      "t": 132360,
      "d": 668,
      "v": 40
    },
    {
      "midi": 62,
      "hit": false,
      "t": 132480,
      "d": 524,
      "v": 102
    },
    {
      "midi": 59,
      "hit": false,
      "t": 132480,
      "d": 574,
      "v": 82
    },
    {
      "midi": 66,
      "hit": false,
      "t": 133440,
      "d": 362,
      "v": 82
    },
    {
      "midi": 54,
      "hit": false,
      "t": 133440,
      "d": 432,
      "v": 80
    },
    {
      "midi": 57,
      "hit": false,
      "t": 134400,
      "d": 516,
      "v": 78
    },
    {
      "midi": 61,
      "hit": false,
      "t": 134400,
      "d": 558,
      "v": 82
    },
    {
      "midi": 64,
      "hit": false,
      "t": 134400,
      "d": 566,
      "v": 89
    },
    {
      "midi": 45,
      "hit": false,
      "t": 134400,
      "d": 1186,
      "v": 85
    },
    {
      "midi": 52,
      "hit": false,
      "t": 134880,
      "d": 698,
      "v": 80
    },
    {
      "midi": 62,
      "hit": false,
      "t": 135120,
      "d": 392,
      "v": 100
    },
    {
      "midi": 64,
      "hit": false,
      "t": 135120,
      "d": 426,
      "v": 95
    },
    {
      "midi": 61,
      "hit": false,
      "t": 135600,
      "d": 312,
      "v": 98
    },
    {
      "midi": 64,
      "hit": false,
      "t": 135600,
      "d": 360,
      "v": 61
    },
    {
      "midi": 62,
      "hit": false,
      "t": 136320,
      "d": 420,
      "v": 70
    },
    {
      "midi": 67,
      "hit": false,
      "t": 136320,
      "d": 436,
      "v": 87
    },
    {
      "midi": 71,
      "hit": false,
      "t": 136320,
      "d": 436,
      "v": 89
    },
    {
      "midi": 59,
      "hit": false,
      "t": 136320,
      "d": 448,
      "v": 66
    },
    {
      "midi": 55,
      "hit": false,
      "t": 136320,
      "d": 474,
      "v": 66
    },
    {
      "midi": 66,
      "hit": false,
      "t": 137280,
      "d": 412,
      "v": 98
    },
    {
      "midi": 54,
      "hit": false,
      "t": 137280,
      "d": 416,
      "v": 87
    },
    {
      "midi": 52,
      "hit": false,
      "t": 138120,
      "d": 452,
      "v": 78
    },
    {
      "midi": 59,
      "hit": false,
      "t": 138240,
      "d": 294,
      "v": 89
    },
    {
      "midi": 67,
      "hit": false,
      "t": 138240,
      "d": 298,
      "v": 89
    },
    {
      "midi": 62,
      "hit": false,
      "t": 138240,
      "d": 312,
      "v": 91
    },
    {
      "midi": 55,
      "hit": false,
      "t": 138240,
      "d": 378,
      "v": 72
    },
    {
      "midi": 61,
      "hit": false,
      "t": 139200,
      "d": 426,
      "v": 87
    },
    {
      "midi": 64,
      "hit": false,
      "t": 139200,
      "d": 444,
      "v": 91
    },
    {
      "midi": 57,
      "hit": false,
      "t": 139200,
      "d": 446,
      "v": 85
    },
    {
      "midi": 52,
      "hit": false,
      "t": 139200,
      "d": 544,
      "v": 76
    },
    {
      "midi": 45,
      "hit": false,
      "t": 139200,
      "d": 548,
      "v": 85
    },
    {
      "midi": 59,
      "hit": false,
      "t": 139680,
      "d": 90,
      "v": 95
    },
    {
      "midi": 64,
      "hit": false,
      "t": 139680,
      "d": 156,
      "v": 89
    },
    {
      "midi": 62,
      "hit": false,
      "t": 140160,
      "d": 338,
      "v": 85
    },
    {
      "midi": 66,
      "hit": false,
      "t": 140160,
      "d": 442,
      "v": 76
    },
    {
      "midi": 50,
      "hit": false,
      "t": 140160,
      "d": 1832,
      "v": 91
    },
    {
      "midi": 57,
      "hit": false,
      "t": 140160,
      "d": 1860,
      "v": 85
    },
    {
      "midi": 62,
      "hit": false,
      "t": 140640,
      "d": 100,
      "v": 80
    },
    {
      "midi": 62,
      "hit": false,
      "t": 140880,
      "d": 382,
      "v": 98
    },
    {
      "midi": 67,
      "hit": false,
      "t": 140880,
      "d": 416,
      "v": 102
    },
    {
      "midi": 62,
      "hit": false,
      "t": 141360,
      "d": 374,
      "v": 95
    },
    {
      "midi": 64,
      "hit": false,
      "t": 141840,
      "d": 148,
      "v": 98
    },
    {
      "midi": 57,
      "hit": false,
      "t": 142080,
      "d": 1190,
      "v": 74
    },
    {
      "midi": 66,
      "hit": false,
      "t": 142080,
      "d": 1190,
      "v": 89
    },
    {
      "midi": 50,
      "hit": false,
      "t": 142080,
      "d": 1194,
      "v": 89
    },
    {
      "midi": 62,
      "hit": false,
      "t": 142080,
      "d": 1198,
      "v": 85
    },
    {
      "midi": 61,
      "hit": false,
      "t": 144000,
      "d": 1168,
      "v": 89
    },
    {
      "midi": 64,
      "hit": false,
      "t": 144000,
      "d": 1196,
      "v": 95
    },
    {
      "midi": 57,
      "hit": false,
      "t": 144000,
      "d": 1208,
      "v": 87
    },
    {
      "midi": 45,
      "hit": false,
      "t": 144000,
      "d": 1238,
      "v": 76
    },
    {
      "midi": 52,
      "hit": false,
      "t": 144000,
      "d": 1254,
      "v": 74
    },
    {
      "midi": 50,
      "hit": false,
      "t": 145920,
      "d": 1250,
      "v": 91
    },
    {
      "midi": 66,
      "hit": false,
      "t": 145920,
      "d": 1262,
      "v": 87
    },
    {
      "midi": 62,
      "hit": false,
      "t": 145920,
      "d": 1274,
      "v": 102
    },
    {
      "midi": 57,
      "hit": false,
      "t": 145920,
      "d": 1300,
      "v": 87
    },
    {
      "midi": 61,
      "hit": false,
      "t": 147840,
      "d": 964,
      "v": 89
    },
    {
      "midi": 52,
      "hit": false,
      "t": 147840,
      "d": 982,
      "v": 70
    },
    {
      "midi": 57,
      "hit": false,
      "t": 147840,
      "d": 982,
      "v": 85
    },
    {
      "midi": 45,
      "hit": false,
      "t": 147840,
      "d": 988,
      "v": 87
    },
    {
      "midi": 64,
      "hit": false,
      "t": 147840,
      "d": 1012,
      "v": 95
    },
    {
      "midi": 50,
      "hit": false,
      "t": 149760,
      "d": 1230,
      "v": 102
    },
    {
      "midi": 57,
      "hit": false,
      "t": 149760,
      "d": 1240,
      "v": 89
    },
    {
      "midi": 62,
      "hit": false,
      "t": 149760,
      "d": 1244,
      "v": 100
    },
    {
      "midi": 66,
      "hit": false,
      "t": 149760,
      "d": 1248,
      "v": 87
    },
    {
      "midi": 61,
      "hit": false,
      "t": 151680,
      "d": 802,
      "v": 89
    },
    {
      "midi": 57,
      "hit": false,
      "t": 151680,
      "d": 830,
      "v": 85
    },
    {
      "midi": 64,
      "hit": false,
      "t": 151680,
      "d": 854,
      "v": 89
    },
    {
      "midi": 52,
      "hit": false,
      "t": 151680,
      "d": 858,
      "v": 82
    },
    {
      "midi": 45,
      "hit": false,
      "t": 151680,
      "d": 860,
      "v": 85
    },
    {
      "midi": 57,
      "hit": false,
      "t": 153600,
      "d": 480,
      "v": 87
    },
    {
      "midi": 50,
      "hit": false,
      "t": 153600,
      "d": 488,
      "v": 95
    },
    {
      "midi": 62,
      "hit": false,
      "t": 153600,
      "d": 496,
      "v": 105
    },
    {
      "midi": 66,
      "hit": false,
      "t": 153600,
      "d": 518,
      "v": 87
    },
    {
      "midi": 62,
      "hit": false,
      "t": 155520,
      "d": 330,
      "v": 98
    },
    {
      "midi": 67,
      "hit": false,
      "t": 155520,
      "d": 352,
      "v": 100
    },
    {
      "midi": 59,
      "hit": false,
      "t": 155520,
      "d": 366,
      "v": 80
    },
    {
      "midi": 55,
      "hit": false,
      "t": 155520,
      "d": 388,
      "v": 89
    },
    {
      "midi": 61,
      "hit": false,
      "t": 156480,
      "d": 412,
      "v": 85
    },
    {
      "midi": 66,
      "hit": false,
      "t": 156480,
      "d": 414,
      "v": 85
    },
    {
      "midi": 54,
      "hit": false,
      "t": 156480,
      "d": 422,
      "v": 82
    },
    {
      "midi": 59,
      "hit": false,
      "t": 157440,
      "d": 310,
      "v": 76
    },
    {
      "midi": 55,
      "hit": false,
      "t": 157440,
      "d": 348,
      "v": 82
    },
    {
      "midi": 64,
      "hit": false,
      "t": 157440,
      "d": 348,
      "v": 100
    },
    {
      "midi": 52,
      "hit": false,
      "t": 157440,
      "d": 376,
      "v": 85
    },
    {
      "midi": 45,
      "hit": false,
      "t": 158400,
      "d": 442,
      "v": 89
    },
    {
      "midi": 52,
      "hit": false,
      "t": 158400,
      "d": 444,
      "v": 85
    },
    {
      "midi": 57,
      "hit": false,
      "t": 158400,
      "d": 454,
      "v": 85
    },
    {
      "midi": 61,
      "hit": false,
      "t": 158400,
      "d": 456,
      "v": 87
    },
    {
      "midi": 64,
      "hit": false,
      "t": 158400,
      "d": 468,
      "v": 93
    },
    {
      "midi": 62,
      "hit": false,
      "t": 159360,
      "d": 528,
      "v": 102
    },
    {
      "midi": 50,
      "hit": false,
      "t": 159360,
      "d": 1848,
      "v": 93
    },
    {
      "midi": 64,
      "hit": false,
      "t": 160080,
      "d": 510,
      "v": 100
    },
    {
      "midi": 67,
      "hit": false,
      "t": 160080,
      "d": 512,
      "v": 107
    },
    {
      "midi": 64,
      "hit": false,
      "t": 160800,
      "d": 414,
      "v": 100
    },
    {
      "midi": 50,
      "hit": false,
      "t": 161280,
      "d": 160,
      "v": 105
    },
    {
      "midi": 66,
      "hit": false,
      "t": 161280,
      "d": 162,
      "v": 107
    },
    {
      "midi": 57,
      "hit": false,
      "t": 161280,
      "d": 186,
      "v": 82
    },
    {
      "midi": 62,
      "hit": false,
      "t": 161280,
      "d": 202,
      "v": 102
    },
    {
      "midi": 62,
      "hit": false,
      "t": 163200,
      "d": 412,
      "v": 105
    },
    {
      "midi": 57,
      "hit": false,
      "t": 163200,
      "d": 434,
      "v": 85
    },
    {
      "midi": 50,
      "hit": false,
      "t": 163200,
      "d": 452,
      "v": 95
    },
    {
      "midi": 62,
      "hit": false,
      "t": 164160,
      "d": 342,
      "v": 98
    },
    {
      "midi": 55,
      "hit": false,
      "t": 164160,
      "d": 364,
      "v": 91
    },
    {
      "midi": 59,
      "hit": false,
      "t": 164160,
      "d": 364,
      "v": 98
    },
    {
      "midi": 57,
      "hit": false,
      "t": 165120,
      "d": 394,
      "v": 95
    },
    {
      "midi": 54,
      "hit": false,
      "t": 165120,
      "d": 406,
      "v": 70
    },
    {
      "midi": 61,
      "hit": false,
      "t": 165120,
      "d": 414,
      "v": 89
    },
    {
      "midi": 57,
      "hit": false,
      "t": 166080,
      "d": 532,
      "v": 68
    },
    {
      "midi": 61,
      "hit": false,
      "t": 166080,
      "d": 630,
      "v": 68
    },
    {
      "midi": 45,
      "hit": false,
      "t": 166080,
      "d": 642,
      "v": 70
    },
    {
      "midi": 64,
      "hit": false,
      "t": 166080,
      "d": 720,
      "v": 57
    },
    {
      "midi": 52,
      "hit": false,
      "t": 166560,
      "d": 166,
      "v": 85
    },
    {
      "midi": 57,
      "hit": false,
      "t": 166800,
      "d": 134,
      "v": 87
    },
    {
      "midi": 50,
      "hit": false,
      "t": 167040,
      "d": 1618,
      "v": 100
    },
    {
      "midi": 57,
      "hit": false,
      "t": 167280,
      "d": 1356,
      "v": 87
    },
    {
      "midi": 62,
      "hit": false,
      "t": 167520,
      "d": 192,
      "v": 80
    },
    {
      "midi": 64,
      "hit": false,
      "t": 167760,
      "d": 180,
      "v": 87
    },
    {
      "midi": 66,
      "hit": false,
      "t": 168000,
      "d": 370,
      "v": 85
    },
    {
      "midi": 66,
      "hit": false,
      "t": 168480,
      "d": 130,
      "v": 85
    },
    {
      "midi": 55,
      "hit": false,
      "t": 168840,
      "d": 668,
      "v": 40
    },
    {
      "midi": 62,
      "hit": false,
      "t": 168960,
      "d": 524,
      "v": 102
    },
    {
      "midi": 59,
      "hit": false,
      "t": 168960,
      "d": 574,
      "v": 82
    },
    {
      "midi": 66,
      "hit": false,
      "t": 169920,
      "d": 362,
      "v": 82
    },
    {
      "midi": 54,
      "hit": false,
      "t": 169920,
      "d": 432,
      "v": 80
    },
    {
      "midi": 57,
      "hit": false,
      "t": 170880,
      "d": 516,
      "v": 78
    },
    {
      "midi": 61,
      "hit": false,
      "t": 170880,
      "d": 558,
      "v": 82
    },
    {
      "midi": 64,
      "hit": false,
      "t": 170880,
      "d": 566,
      "v": 89
    },
    {
      "midi": 45,
      "hit": false,
      "t": 170880,
      "d": 1186,
      "v": 85
    },
    {
      "midi": 52,
      "hit": false,
      "t": 171360,
      "d": 698,
      "v": 80
    },
    {
      "midi": 62,
      "hit": false,
      "t": 171600,
      "d": 392,
      "v": 100
    },
    {
      "midi": 64,
      "hit": false,
      "t": 171600,
      "d": 426,
      "v": 95
    },
    {
      "midi": 61,
      "hit": false,
      "t": 172080,
      "d": 312,
      "v": 98
    },
    {
      "midi": 64,
      "hit": false,
      "t": 172080,
      "d": 360,
      "v": 61
    },
    {
      "midi": 62,
      "hit": false,
      "t": 172800,
      "d": 420,
      "v": 70
    },
    {
      "midi": 67,
      "hit": false,
      "t": 172800,
      "d": 436,
      "v": 87
    },
    {
      "midi": 71,
      "hit": false,
      "t": 172800,
      "d": 436,
      "v": 89
    },
    {
      "midi": 59,
      "hit": false,
      "t": 172800,
      "d": 448,
      "v": 66
    },
    {
      "midi": 55,
      "hit": false,
      "t": 172800,
      "d": 474,
      "v": 66
    },
    {
      "midi": 66,
      "hit": false,
      "t": 173760,
      "d": 412,
      "v": 98
    },
    {
      "midi": 54,
      "hit": false,
      "t": 173760,
      "d": 416,
      "v": 87
    },
    {
      "midi": 52,
      "hit": false,
      "t": 174600,
      "d": 452,
      "v": 78
    },
    {
      "midi": 59,
      "hit": false,
      "t": 174720,
      "d": 294,
      "v": 89
    },
    {
      "midi": 67,
      "hit": false,
      "t": 174720,
      "d": 298,
      "v": 89
    },
    {
      "midi": 62,
      "hit": false,
      "t": 174720,
      "d": 312,
      "v": 91
    },
    {
      "midi": 55,
      "hit": false,
      "t": 174720,
      "d": 378,
      "v": 72
    },
    {
      "midi": 61,
      "hit": false,
      "t": 175680,
      "d": 426,
      "v": 87
    },
    {
      "midi": 64,
      "hit": false,
      "t": 175680,
      "d": 444,
      "v": 91
    },
    {
      "midi": 57,
      "hit": false,
      "t": 175680,
      "d": 446,
      "v": 85
    },
    {
      "midi": 52,
      "hit": false,
      "t": 175680,
      "d": 544,
      "v": 76
    },
    {
      "midi": 45,
      "hit": false,
      "t": 175680,
      "d": 548,
      "v": 85
    },
    {
      "midi": 59,
      "hit": false,
      "t": 176160,
      "d": 90,
      "v": 95
    },
    {
      "midi": 64,
      "hit": false,
      "t": 176160,
      "d": 156,
      "v": 89
    },
    {
      "midi": 62,
      "hit": false,
      "t": 176640,
      "d": 338,
      "v": 85
    },
    {
      "midi": 66,
      "hit": false,
      "t": 176640,
      "d": 442,
      "v": 76
    },
    {
      "midi": 50,
      "hit": false,
      "t": 176640,
      "d": 1832,
      "v": 91
    },
    {
      "midi": 57,
      "hit": false,
      "t": 176640,
      "d": 1860,
      "v": 85
    },
    {
      "midi": 62,
      "hit": false,
      "t": 177120,
      "d": 100,
      "v": 80
    },
    {
      "midi": 62,
      "hit": false,
      "t": 177360,
      "d": 382,
      "v": 98
    },
    {
      "midi": 67,
      "hit": false,
      "t": 177360,
      "d": 416,
      "v": 102
    },
    {
      "midi": 62,
      "hit": false,
      "t": 177840,
      "d": 374,
      "v": 95
    },
    {
      "midi": 64,
      "hit": false,
      "t": 178320,
      "d": 148,
      "v": 98
    },
    {
      "midi": 57,
      "hit": false,
      "t": 178560,
      "d": 1190,
      "v": 74
    },
    {
      "midi": 66,
      "hit": false,
      "t": 178560,
      "d": 1190,
      "v": 89
    },
    {
      "midi": 50,
      "hit": false,
      "t": 178560,
      "d": 1194,
      "v": 89
    },
    {
      "midi": 62,
      "hit": false,
      "t": 178560,
      "d": 1198,
      "v": 85
    },
    {
      "midi": 61,
      "hit": false,
      "t": 180480,
      "d": 1168,
      "v": 89
    },
    {
      "midi": 64,
      "hit": false,
      "t": 180480,
      "d": 1196,
      "v": 95
    },
    {
      "midi": 57,
      "hit": false,
      "t": 180480,
      "d": 1208,
      "v": 87
    },
    {
      "midi": 45,
      "hit": false,
      "t": 180480,
      "d": 1238,
      "v": 76
    },
    {
      "midi": 52,
      "hit": false,
      "t": 180480,
      "d": 1254,
      "v": 74
    },
    {
      "midi": 50,
      "hit": false,
      "t": 182400,
      "d": 1250,
      "v": 91
    },
    {
      "midi": 66,
      "hit": false,
      "t": 182400,
      "d": 1262,
      "v": 87
    },
    {
      "midi": 62,
      "hit": false,
      "t": 182400,
      "d": 1274,
      "v": 102
    },
    {
      "midi": 57,
      "hit": false,
      "t": 182400,
      "d": 1300,
      "v": 87
    },
    {
      "midi": 61,
      "hit": false,
      "t": 184320,
      "d": 964,
      "v": 89
    },
    {
      "midi": 52,
      "hit": false,
      "t": 184320,
      "d": 982,
      "v": 70
    },
    {
      "midi": 57,
      "hit": false,
      "t": 184320,
      "d": 982,
      "v": 85
    },
    {
      "midi": 45,
      "hit": false,
      "t": 184320,
      "d": 988,
      "v": 87
    },
    {
      "midi": 64,
      "hit": false,
      "t": 184320,
      "d": 1012,
      "v": 95
    },
    {
      "midi": 50,
      "hit": false,
      "t": 186240,
      "d": 1230,
      "v": 102
    },
    {
      "midi": 57,
      "hit": false,
      "t": 186240,
      "d": 1240,
      "v": 89
    },
    {
      "midi": 62,
      "hit": false,
      "t": 186240,
      "d": 1244,
      "v": 100
    },
    {
      "midi": 66,
      "hit": false,
      "t": 186240,
      "d": 1248,
      "v": 87
    },
    {
      "midi": 61,
      "hit": false,
      "t": 188160,
      "d": 802,
      "v": 89
    },
    {
      "midi": 57,
      "hit": false,
      "t": 188160,
      "d": 830,
      "v": 85
    },
    {
      "midi": 64,
      "hit": false,
      "t": 188160,
      "d": 854,
      "v": 89
    },
    {
      "midi": 52,
      "hit": false,
      "t": 188160,
      "d": 858,
      "v": 82
    },
    {
      "midi": 45,
      "hit": false,
      "t": 188160,
      "d": 860,
      "v": 85
    },
    {
      "midi": 57,
      "hit": false,
      "t": 190080,
      "d": 480,
      "v": 87
    },
    {
      "midi": 50,
      "hit": false,
      "t": 190080,
      "d": 488,
      "v": 95
    },
    {
      "midi": 62,
      "hit": false,
      "t": 190080,
      "d": 496,
      "v": 105
    },
    {
      "midi": 66,
      "hit": false,
      "t": 190080,
      "d": 518,
      "v": 87
    },
    {
      "midi": 62,
      "hit": false,
      "t": 192000,
      "d": 330,
      "v": 98
    },
    {
      "midi": 67,
      "hit": false,
      "t": 192000,
      "d": 352,
      "v": 100
    },
    {
      "midi": 59,
      "hit": false,
      "t": 192000,
      "d": 366,
      "v": 80
    },
    {
      "midi": 55,
      "hit": false,
      "t": 192000,
      "d": 388,
      "v": 89
    },
    {
      "midi": 61,
      "hit": false,
      "t": 192960,
      "d": 412,
      "v": 85
    },
    {
      "midi": 66,
      "hit": false,
      "t": 192960,
      "d": 414,
      "v": 85
    },
    {
      "midi": 54,
      "hit": false,
      "t": 192960,
      "d": 422,
      "v": 82
    },
    {
      "midi": 59,
      "hit": false,
      "t": 193920,
      "d": 310,
      "v": 76
    },
    {
      "midi": 55,
      "hit": false,
      "t": 193920,
      "d": 348,
      "v": 82
    },
    {
      "midi": 64,
      "hit": false,
      "t": 193920,
      "d": 348,
      "v": 100
    },
    {
      "midi": 52,
      "hit": false,
      "t": 193920,
      "d": 376,
      "v": 85
    },
    {
      "midi": 45,
      "hit": false,
      "t": 194880,
      "d": 442,
      "v": 89
    },
    {
      "midi": 52,
      "hit": false,
      "t": 194880,
      "d": 444,
      "v": 85
    },
    {
      "midi": 57,
      "hit": false,
      "t": 194880,
      "d": 454,
      "v": 85
    },
    {
      "midi": 61,
      "hit": false,
      "t": 194880,
      "d": 456,
      "v": 87
    },
    {
      "midi": 64,
      "hit": false,
      "t": 194880,
      "d": 468,
      "v": 93
    },
    {
      "midi": 62,
      "hit": false,
      "t": 195840,
      "d": 528,
      "v": 102
    },
    {
      "midi": 50,
      "hit": false,
      "t": 195840,
      "d": 1848,
      "v": 93
    },
    {
      "midi": 64,
      "hit": false,
      "t": 196560,
      "d": 510,
      "v": 100
    },
    {
      "midi": 67,
      "hit": false,
      "t": 196560,
      "d": 512,
      "v": 107
    },
    {
      "midi": 64,
      "hit": false,
      "t": 197280,
      "d": 414,
      "v": 100
    },
    {
      "midi": 50,
      "hit": false,
      "t": 197760,
      "d": 160,
      "v": 105
    },
    {
      "midi": 66,
      "hit": false,
      "t": 197760,
      "d": 162,
      "v": 107
    },
    {
      "midi": 57,
      "hit": false,
      "t": 197760,
      "d": 186,
      "v": 82
    },
    {
      "midi": 62,
      "hit": false,
      "t": 197760,
      "d": 202,
      "v": 102
    },
    {
      "midi": 57,
      "hit": false,
      "t": 199680,
      "d": 342,
      "v": 91
    },
    {
      "midi": 54,
      "hit": false,
      "t": 199680,
      "d": 348,
      "v": 89
    },
    {
      "midi": 62,
      "hit": false,
      "t": 199680,
      "d": 380,
      "v": 100
    },
    {
      "midi": 64,
      "hit": false,
      "t": 200160,
      "d": 84,
      "v": 100
    },
    {
      "midi": 55,
      "hit": false,
      "t": 200160,
      "d": 92,
      "v": 66
    },
    {
      "midi": 59,
      "hit": false,
      "t": 200160,
      "d": 100,
      "v": 89
    },
    {
      "midi": 59,
      "hit": false,
      "t": 200400,
      "d": 1846,
      "v": 105
    },
    {
      "midi": 55,
      "hit": false,
      "t": 200400,
      "d": 1850,
      "v": 95
    },
    {
      "midi": 64,
      "hit": false,
      "t": 200400,
      "d": 1860,
      "v": 107
    },
    {
      "midi": 55,
      "hit": false,
      "t": 202560,
      "d": 324,
      "v": 105
    },
    {
      "midi": 66,
      "hit": false,
      "t": 202560,
      "d": 354,
      "v": 102
    },
    {
      "midi": 62,
      "hit": false,
      "t": 202560,
      "d": 356,
      "v": 110
    },
    {
      "midi": 59,
      "hit": false,
      "t": 202560,
      "d": 370,
      "v": 102
    },
    {
      "midi": 57,
      "hit": false,
      "t": 203040,
      "d": 286,
      "v": 93
    },
    {
      "midi": 64,
      "hit": false,
      "t": 203040,
      "d": 306,
      "v": 102
    },
    {
      "midi": 61,
      "hit": false,
      "t": 203040,
      "d": 308,
      "v": 102
    },
    {
      "midi": 57,
      "hit": false,
      "t": 203520,
      "d": 342,
      "v": 91
    },
    {
      "midi": 54,
      "hit": false,
      "t": 203520,
      "d": 348,
      "v": 89
    },
    {
      "midi": 62,
      "hit": false,
      "t": 203520,
      "d": 380,
      "v": 100
    },
    {
      "midi": 64,
      "hit": false,
      "t": 204000,
      "d": 84,
      "v": 100
    },
    {
      "midi": 55,
      "hit": false,
      "t": 204000,
      "d": 92,
      "v": 66
    },
    {
      "midi": 59,
      "hit": false,
      "t": 204000,
      "d": 100,
      "v": 89
    },
    {
      "midi": 59,
      "hit": false,
      "t": 204240,
      "d": 1846,
      "v": 105
    },
    {
      "midi": 55,
      "hit": false,
      "t": 204240,
      "d": 1850,
      "v": 95
    },
    {
      "midi": 64,
      "hit": false,
      "t": 204240,
      "d": 1860,
      "v": 107
    },
    {
      "midi": 55,
      "hit": false,
      "t": 206400,
      "d": 324,
      "v": 105
    },
    {
      "midi": 66,
      "hit": false,
      "t": 206400,
      "d": 354,
      "v": 102
    },
    {
      "midi": 62,
      "hit": false,
      "t": 206400,
      "d": 356,
      "v": 110
    },
    {
      "midi": 59,
      "hit": false,
      "t": 206400,
      "d": 370,
      "v": 102
    },
    {
      "midi": 57,
      "hit": false,
      "t": 206880,
      "d": 286,
      "v": 93
    },
    {
      "midi": 64,
      "hit": false,
      "t": 206880,
      "d": 306,
      "v": 102
    },
    {
      "midi": 61,
      "hit": false,
      "t": 206880,
      "d": 308,
      "v": 102
    },
    {
      "midi": 57,
      "hit": false,
      "t": 207360,
      "d": 342,
      "v": 91
    },
    {
      "midi": 54,
      "hit": false,
      "t": 207360,
      "d": 348,
      "v": 89
    },
    {
      "midi": 62,
      "hit": false,
      "t": 207360,
      "d": 380,
      "v": 100
    },
    {
      "midi": 64,
      "hit": false,
      "t": 207840,
      "d": 84,
      "v": 100
    },
    {
      "midi": 55,
      "hit": false,
      "t": 207840,
      "d": 92,
      "v": 66
    },
    {
      "midi": 59,
      "hit": false,
      "t": 207840,
      "d": 100,
      "v": 89
    },
    {
      "midi": 59,
      "hit": false,
      "t": 208080,
      "d": 1846,
      "v": 105
    },
    {
      "midi": 55,
      "hit": false,
      "t": 208080,
      "d": 1850,
      "v": 95
    },
    {
      "midi": 64,
      "hit": false,
      "t": 208080,
      "d": 1860,
      "v": 107
    },
    {
      "midi": 55,
      "hit": false,
      "t": 210240,
      "d": 324,
      "v": 105
    },
    {
      "midi": 66,
      "hit": false,
      "t": 210240,
      "d": 354,
      "v": 102
    },
    {
      "midi": 62,
      "hit": false,
      "t": 210240,
      "d": 356,
      "v": 110
    },
    {
      "midi": 59,
      "hit": false,
      "t": 210240,
      "d": 370,
      "v": 102
    },
    {
      "midi": 57,
      "hit": false,
      "t": 210720,
      "d": 286,
      "v": 93
    },
    {
      "midi": 64,
      "hit": false,
      "t": 210720,
      "d": 306,
      "v": 102
    },
    {
      "midi": 61,
      "hit": false,
      "t": 210720,
      "d": 308,
      "v": 102
    },
    {
      "midi": 57,
      "hit": false,
      "t": 211200,
      "d": 342,
      "v": 91
    },
    {
      "midi": 54,
      "hit": false,
      "t": 211200,
      "d": 348,
      "v": 89
    },
    {
      "midi": 62,
      "hit": false,
      "t": 211200,
      "d": 380,
      "v": 100
    },
    {
      "midi": 64,
      "hit": false,
      "t": 211680,
      "d": 84,
      "v": 100
    },
    {
      "midi": 55,
      "hit": false,
      "t": 211680,
      "d": 92,
      "v": 66
    },
    {
      "midi": 59,
      "hit": false,
      "t": 211680,
      "d": 100,
      "v": 89
    },
    {
      "midi": 59,
      "hit": false,
      "t": 211920,
      "d": 1846,
      "v": 105
    },
    {
      "midi": 55,
      "hit": false,
      "t": 211920,
      "d": 1850,
      "v": 95
    },
    {
      "midi": 64,
      "hit": false,
      "t": 211920,
      "d": 1860,
      "v": 107
    },
    {
      "midi": 55,
      "hit": false,
      "t": 214080,
      "d": 324,
      "v": 105
    },
    {
      "midi": 66,
      "hit": false,
      "t": 214080,
      "d": 354,
      "v": 102
    },
    {
      "midi": 62,
      "hit": false,
      "t": 214080,
      "d": 356,
      "v": 110
    },
    {
      "midi": 59,
      "hit": false,
      "t": 214080,
      "d": 370,
      "v": 102
    },
    {
      "midi": 57,
      "hit": false,
      "t": 214560,
      "d": 286,
      "v": 93
    },
    {
      "midi": 64,
      "hit": false,
      "t": 214560,
      "d": 306,
      "v": 102
    },
    {
      "midi": 61,
      "hit": false,
      "t": 214560,
      "d": 308,
      "v": 102
    },
    {
      "midi": 50,
      "hit": false,
      "t": 215040,
      "d": 3908,
      "v": 95
    },
    {
      "midi": 57,
      "hit": false,
      "t": 215040,
      "d": 3910,
      "v": 87
    },
    {
      "midi": 62,
      "hit": false,
      "t": 215040,
      "d": 3914,
      "v": 85
    },
    {
      "midi": 66,
      "hit": false,
      "t": 215040,
      "d": 3914,
      "v": 93
    }
  ]
}