{
  "jsonPath": "Rock/Psychedelic Rock/The Beatles/blackbird.json",
  "path": "Rock\\Psychedelic Rock\\The Beatles\\Blackbird.mid",
  "name": "Blackbird",
  "difficulty": "Advanced",
  "bpm": 100,
  "notes": [
    {
      "midi": 62,
      "hit": false,
      "t": 0,
      "d": 600,
      "v": 102
    },
    {
      "midi": 67,
      "hit": false,
      "t": 0,
      "d": 600,
      "v": 100
    },
    {
      "midi": 55,
      "hit": false,
      "t": 0,
      "d": 1200,
      "v": 104
    },
    {
      "midi": 59,
      "hit": false,
      "t": 0,
      "d": 1200,
      "v": 94
    },
    {
      "midi": 67,
      "hit": false,
      "t": 600,
      "d": 600,
      "v": 102
    },
    {
      "midi": 64,
      "hit": false,
      "t": 1200,
      "d": 300,
      "v": 97
    },
    {
      "midi": 67,
      "hit": false,
      "t": 1200,
      "d": 300,
      "v": 68
    },
    {
      "midi": 50,
      "hit": false,
      "t": 1200,
      "d": 1200,
      "v": 84
    },
    {
      "midi": 55,
      "hit": false,
      "t": 1200,
      "d": 1200,
      "v": 96
    },
    {
      "midi": 60,
      "hit": false,
      "t": 1200,
      "d": 1200,
      "v": 71
    },
    {
      "midi": 67,
      "hit": false,
      "t": 1500,
      "d": 300,
      "v": 114
    },
    {
      "midi": 67,
      "hit": false,
      "t": 1800,
      "d": 300,
      "v": 106
    },
    {
      "midi": 67,
      "hit": false,
      "t": 2100,
      "d": 300,
      "v": 102
    },
    {
      "midi": 62,
      "hit": false,
      "t": 2400,
      "d": 300,
      "v": 87
    },
    {
      "midi": 67,
      "hit": false,
      "t": 2400,
      "d": 300,
      "v": 104
    },
    {
      "midi": 55,
      "hit": false,
      "t": 2400,
      "d": 1200,
      "v": 93
    },
    {
      "midi": 59,
      "hit": false,
      "t": 2400,
      "d": 1200,
      "v": 79
    },
    {
      "midi": 74,
      "hit": false,
      "t": 2700,
      "d": 300,
      "v": 104
    },
    {
      "midi": 74,
      "hit": false,
      "t": 3000,
      "d": 1200,
      "v": 117
    },
    {
      "midi": 55,
      "hit": false,
      "t": 3600,
      "d": 1200,
      "v": 104
    },
    {
      "midi": 59,
      "hit": false,
      "t": 3600,
      "d": 1200,
      "v": 100
    },
    {
      "midi": 62,
      "hit": false,
      "t": 4200,
      "d": 600,
      "v": 106
    },
    {
      "midi": 64,
      "hit": false,
      "t": 4800,
      "d": 300,
      "v": 97
    },
    {
      "midi": 69,
      "hit": false,
      "t": 4800,
      "d": 300,
      "v": 109
    },
    {
      "midi": 50,
      "hit": false,
      "t": 4800,
      "d": 600,
      "v": 99
    },
    {
      "midi": 60,
      "hit": false,
      "t": 4800,
      "d": 600,
      "v": 69
    },
    {
      "midi": 67,
      "hit": false,
      "t": 5100,
      "d": 300,
      "v": 106
    },
    {
      "midi": 64,
      "hit": false,
      "t": 5400,
      "d": 300,
      "v": 99
    },
    {
      "midi": 69,
      "hit": false,
      "t": 5400,
      "d": 300,
      "v": 109
    },
    {
      "midi": 57,
      "hit": false,
      "t": 5400,
      "d": 600,
      "v": 109
    },
    {
      "midi": 61,
      "hit": false,
      "t": 5400,
      "d": 600,
      "v": 79
    },
    {
      "midi": 69,
      "hit": false,
      "t": 5700,
      "d": 300,
      "v": 97
    },
    {
      "midi": 64,
      "hit": false,
      "t": 6000,
      "d": 300,
      "v": 83
    },
    {
      "midi": 69,
      "hit": false,
      "t": 6000,
      "d": 300,
      "v": 100
    },
    {
      "midi": 50,
      "hit": false,
      "t": 6000,
      "d": 600,
      "v": 83
    },
    {
      "midi": 60,
      "hit": false,
      "t": 6000,
      "d": 600,
      "v": 94
    },
    {
      "midi": 67,
      "hit": false,
      "t": 6300,
      "d": 300,
      "v": 100
    },
    {
      "midi": 69,
      "hit": false,
      "t": 6600,
      "d": 300,
      "v": 100
    },
    {
      "midi": 72,
      "hit": false,
      "t": 6600,
      "d": 300,
      "v": 99
    },
    {
      "midi": 54,
      "hit": false,
      "t": 6600,
      "d": 600,
      "v": 92
    },
    {
      "midi": 63,
      "hit": false,
      "t": 6600,
      "d": 600,
      "v": 92
    },
    {
      "midi": 74,
      "hit": false,
      "t": 6900,
      "d": 300,
      "v": 102
    },
    {
      "midi": 67,
      "hit": false,
      "t": 7200,
      "d": 2400,
      "v": 97
    },
    {
      "midi": 71,
      "hit": false,
      "t": 7200,
      "d": 2400,
      "v": 102
    },
    {
      "midi": 55,
      "hit": false,
      "t": 7200,
      "d": 600,
      "v": 109
    },
    {
      "midi": 62,
      "hit": false,
      "t": 7200,
      "d": 600,
      "v": 97
    },
    {
      "midi": 59,
      "hit": false,
      "t": 7800,
      "d": 300,
      "v": 99
    },
    {
      "midi": 62,
      "hit": false,
      "t": 8100,
      "d": 300,
      "v": 106
    },
    {
      "midi": 63,
      "hit": false,
      "t": 8400,
      "d": 600,
      "v": 71
    },
    {
      "midi": 59,
      "hit": false,
      "t": 9000,
      "d": 600,
      "v": 87
    },
    {
      "midi": 66,
      "hit": false,
      "t": 9600,
      "d": 600,
      "v": 95
    },
    {
      "midi": 69,
      "hit": false,
      "t": 9600,
      "d": 600,
      "v": 117
    },
    {
      "midi": 55,
      "hit": false,
      "t": 9600,
      "d": 600,
      "v": 106
    },
    {
      "midi": 62,
      "hit": false,
      "t": 9600,
      "d": 600,
      "v": 99
    },
    {
      "midi": 64,
      "hit": false,
      "t": 10200,
      "d": 600,
      "v": 89
    },
    {
      "midi": 71,
      "hit": false,
      "t": 10200,
      "d": 600,
      "v": 96
    },
    {
      "midi": 61,
      "hit": false,
      "t": 10200,
      "d": 600,
      "v": 100
    },
    {
      "midi": 64,
      "hit": false,
      "t": 10800,
      "d": 600,
      "v": 84
    },
    {
      "midi": 67,
      "hit": false,
      "t": 10800,
      "d": 600,
      "v": 102
    },
    {
      "midi": 55,
      "hit": false,
      "t": 10800,
      "d": 1200,
      "v": 71
    },
    {
      "midi": 60,
      "hit": false,
      "t": 10800,
      "d": 1200,
      "v": 114
    },
    {
      "midi": 64,
      "hit": false,
      "t": 11400,
      "d": 600,
      "v": 89
    },
    {
      "midi": 63,
      "hit": false,
      "t": 12000,
      "d": 1200,
      "v": 95
    },
    {
      "midi": 55,
      "hit": false,
      "t": 12000,
      "d": 600,
      "v": 102
    },
    {
      "midi": 57,
      "hit": false,
      "t": 12600,
      "d": 600,
      "v": 100
    },
    {
      "midi": 62,
      "hit": false,
      "t": 13200,
      "d": 300,
      "v": 89
    },
    {
      "midi": 67,
      "hit": false,
      "t": 13200,
      "d": 300,
      "v": 106
    },
    {
      "midi": 59,
      "hit": false,
      "t": 13200,
      "d": 1200,
      "v": 109
    },
    {
      "midi": 67,
      "hit": false,
      "t": 13500,
      "d": 300,
      "v": 109
    },
    {
      "midi": 67,
      "hit": false,
      "t": 13800,
      "d": 300,
      "v": 99
    },
    {
      "midi": 69,
      "hit": false,
      "t": 14100,
      "d": 300,
      "v": 102
    },
    {
      "midi": 64,
      "hit": false,
      "t": 14400,
      "d": 300,
      "v": 89
    },
    {
      "midi": 71,
      "hit": false,
      "t": 14400,
      "d": 300,
      "v": 99
    },
    {
      "midi": 45,
      "hit": false,
      "t": 14400,
      "d": 1200,
      "v": 89
    },
    {
      "midi": 55,
      "hit": false,
      "t": 14400,
      "d": 1200,
      "v": 86
    },
    {
      "midi": 69,
      "hit": false,
      "t": 14700,
      "d": 300,
      "v": 99
    },
    {
      "midi": 67,
      "hit": false,
      "t": 15000,
      "d": 300,
      "v": 106
    },
    {
      "midi": 64,
      "hit": false,
      "t": 15300,
      "d": 300,
      "v": 71
    },
    {
      "midi": 67,
      "hit": false,
      "t": 15300,
      "d": 300,
      "v": 93
    },
    {
      "midi": 64,
      "hit": false,
      "t": 15600,
      "d": 300,
      "v": 93
    },
    {
      "midi": 69,
      "hit": false,
      "t": 15600,
      "d": 300,
      "v": 111
    },
    {
      "midi": 50,
      "hit": false,
      "t": 15600,
      "d": 600,
      "v": 99
    },
    {
      "midi": 55,
      "hit": false,
      "t": 15600,
      "d": 600,
      "v": 91
    },
    {
      "midi": 67,
      "hit": false,
      "t": 15900,
      "d": 300,
      "v": 109
    },
    {
      "midi": 64,
      "hit": false,
      "t": 16200,
      "d": 300,
      "v": 104
    },
    {
      "midi": 71,
      "hit": false,
      "t": 16200,
      "d": 300,
      "v": 106
    },
    {
      "midi": 50,
      "hit": false,
      "t": 16200,
      "d": 600,
      "v": 97
    },
    {
      "midi": 54,
      "hit": false,
      "t": 16200,
      "d": 600,
      "v": 100
    },
    {
      "midi": 60,
      "hit": false,
      "t": 16200,
      "d": 600,
      "v": 86
    },
    {
      "midi": 69,
      "hit": false,
      "t": 16500,
      "d": 300,
      "v": 102
    },
    {
      "midi": 67,
      "hit": false,
      "t": 16800,
      "d": 300,
      "v": 102
    },
    {
      "midi": 55,
      "hit": false,
      "t": 16800,
      "d": 2400,
      "v": 102
    },
    {
      "midi": 59,
      "hit": false,
      "t": 16800,
      "d": 2400,
      "v": 86
    },
    {
      "midi": 62,
      "hit": false,
      "t": 17100,
      "d": 300,
      "v": 100
    },
    {
      "midi": 64,
      "hit": false,
      "t": 17400,
      "d": 300,
      "v": 102
    },
    {
      "midi": 62,
      "hit": false,
      "t": 17700,
      "d": 300,
      "v": 78
    },
    {
      "midi": 66,
      "hit": false,
      "t": 18000,
      "d": 300,
      "v": 97
    },
    {
      "midi": 65,
      "hit": false,
      "t": 18300,
      "d": 300,
      "v": 104
    },
    {
      "midi": 64,
      "hit": false,
      "t": 18600,
      "d": 300,
      "v": 80
    },
    {
      "midi": 63,
      "hit": false,
      "t": 18900,
      "d": 300,
      "v": 87
    },
    {
      "midi": 62,
      "hit": false,
      "t": 19200,
      "d": 600,
      "v": 86
    },
    {
      "midi": 67,
      "hit": false,
      "t": 19200,
      "d": 600,
      "v": 109
    },
    {
      "midi": 55,
      "hit": false,
      "t": 19200,
      "d": 1200,
      "v": 120
    },
    {
      "midi": 59,
      "hit": false,
      "t": 19200,
      "d": 1200,
      "v": 111
    },
    {
      "midi": 67,
      "hit": false,
      "t": 19800,
      "d": 600,
      "v": 111
    },
    {
      "midi": 64,
      "hit": false,
      "t": 20400,
      "d": 300,
      "v": 96
    },
    {
      "midi": 67,
      "hit": false,
      "t": 20400,
      "d": 300,
      "v": 106
    },
    {
      "midi": 55,
      "hit": false,
      "t": 20400,
      "d": 1200,
      "v": 111
    },
    {
      "midi": 60,
      "hit": false,
      "t": 20400,
      "d": 1200,
      "v": 99
    },
    {
      "midi": 67,
      "hit": false,
      "t": 20700,
      "d": 300,
      "v": 104
    },
    {
      "midi": 67,
      "hit": false,
      "t": 21000,
      "d": 300,
      "v": 99
    },
    {
      "midi": 67,
      "hit": false,
      "t": 21300,
      "d": 300,
      "v": 79
    },
    {
      "midi": 62,
      "hit": false,
      "t": 21600,
      "d": 300,
      "v": 89
    },
    {
      "midi": 67,
      "hit": false,
      "t": 21600,
      "d": 300,
      "v": 104
    },
    {
      "midi": 55,
      "hit": false,
      "t": 21600,
      "d": 1200,
      "v": 111
    },
    {
      "midi": 59,
      "hit": false,
      "t": 21600,
      "d": 1200,
      "v": 99
    },
    {
      "midi": 74,
      "hit": false,
      "t": 21900,
      "d": 300,
      "v": 91
    },
    {
      "midi": 74,
      "hit": false,
      "t": 22200,
      "d": 1200,
      "v": 117
    },
    {
      "midi": 55,
      "hit": false,
      "t": 22800,
      "d": 1200,
      "v": 109
    },
    {
      "midi": 59,
      "hit": false,
      "t": 22800,
      "d": 1200,
      "v": 96
    },
    {
      "midi": 62,
      "hit": false,
      "t": 23400,
      "d": 600,
      "v": 102
    },
    {
      "midi": 64,
      "hit": false,
      "t": 24000,
      "d": 300,
      "v": 91
    },
    {
      "midi": 69,
      "hit": false,
      "t": 24000,
      "d": 300,
      "v": 102
    },
    {
      "midi": 50,
      "hit": false,
      "t": 24000,
      "d": 600,
      "v": 80
    },
    {
      "midi": 60,
      "hit": false,
      "t": 24000,
      "d": 600,
      "v": 73
    },
    {
      "midi": 67,
      "hit": false,
      "t": 24300,
      "d": 300,
      "v": 106
    },
    {
      "midi": 64,
      "hit": false,
      "t": 24600,
      "d": 300,
      "v": 93
    },
    {
      "midi": 69,
      "hit": false,
      "t": 24600,
      "d": 300,
      "v": 109
    },
    {
      "midi": 57,
      "hit": false,
      "t": 24600,
      "d": 600,
      "v": 109
    },
    {
      "midi": 61,
      "hit": false,
      "t": 24600,
      "d": 600,
      "v": 79
    },
    {
      "midi": 69,
      "hit": false,
      "t": 24900,
      "d": 300,
      "v": 99
    },
    {
      "midi": 64,
      "hit": false,
      "t": 25200,
      "d": 300,
      "v": 86
    },
    {
      "midi": 69,
      "hit": false,
      "t": 25200,
      "d": 300,
      "v": 104
    },
    {
      "midi": 50,
      "hit": false,
      "t": 25200,
      "d": 600,
      "v": 94
    },
    {
      "midi": 60,
      "hit": false,
      "t": 25200,
      "d": 600,
      "v": 96
    },
    {
      "midi": 67,
      "hit": false,
      "t": 25500,
      "d": 300,
      "v": 96
    },
    {
      "midi": 69,
      "hit": false,
      "t": 25800,
      "d": 300,
      "v": 97
    },
    {
      "midi": 72,
      "hit": false,
      "t": 25800,
      "d": 300,
      "v": 97
    },
    {
      "midi": 54,
      "hit": false,
      "t": 25800,
      "d": 600,
      "v": 95
    },
    {
      "midi": 63,
      "hit": false,
      "t": 25800,
      "d": 600,
      "v": 87
    },
    {
      "midi": 74,
      "hit": false,
      "t": 26100,
      "d": 300,
      "v": 100
    },
    {
      "midi": 67,
      "hit": false,
      "t": 26400,
      "d": 2400,
      "v": 100
    },
    {
      "midi": 71,
      "hit": false,
      "t": 26400,
      "d": 2400,
      "v": 97
    },
    {
      "midi": 55,
      "hit": false,
      "t": 26400,
      "d": 600,
      "v": 102
    },
    {
      "midi": 62,
      "hit": false,
      "t": 26400,
      "d": 600,
      "v": 109
    },
    {
      "midi": 59,
      "hit": false,
      "t": 27000,
      "d": 300,
      "v": 97
    },
    {
      "midi": 62,
      "hit": false,
      "t": 27300,
      "d": 300,
      "v": 104
    },
    {
      "midi": 63,
      "hit": false,
      "t": 27600,
      "d": 600,
      "v": 79
    },
    {
      "midi": 59,
      "hit": false,
      "t": 28200,
      "d": 600,
      "v": 100
    },
    {
      "midi": 66,
      "hit": false,
      "t": 28800,
      "d": 600,
      "v": 95
    },
    {
      "midi": 69,
      "hit": false,
      "t": 28800,
      "d": 600,
      "v": 104
    },
    {
      "midi": 55,
      "hit": false,
      "t": 28800,
      "d": 600,
      "v": 102
    },
    {
      "midi": 62,
      "hit": false,
      "t": 28800,
      "d": 600,
      "v": 100
    },
    {
      "midi": 64,
      "hit": false,
      "t": 29400,
      "d": 600,
      "v": 94
    },
    {
      "midi": 71,
      "hit": false,
      "t": 29400,
      "d": 600,
      "v": 104
    },
    {
      "midi": 61,
      "hit": false,
      "t": 29400,
      "d": 600,
      "v": 84
    },
    {
      "midi": 64,
      "hit": false,
      "t": 30000,
      "d": 600,
      "v": 89
    },
    {
      "midi": 67,
      "hit": false,
      "t": 30000,
      "d": 600,
      "v": 111
    },
    {
      "midi": 60,
      "hit": false,
      "t": 30000,
      "d": 1800,
      "v": 83
    },
    {
      "midi": 64,
      "hit": false,
      "t": 30600,
      "d": 600,
      "v": 96
    },
    {
      "midi": 63,
      "hit": false,
      "t": 31200,
      "d": 1200,
      "v": 92
    },
    {
      "midi": 57,
      "hit": false,
      "t": 31800,
      "d": 600,
      "v": 96
    },
    {
      "midi": 62,
      "hit": false,
      "t": 32400,
      "d": 300,
      "v": 89
    },
    {
      "midi": 67,
      "hit": false,
      "t": 32400,
      "d": 300,
      "v": 109
    },
    {
      "midi": 59,
      "hit": false,
      "t": 32400,
      "d": 1200,
      "v": 100
    },
    {
      "midi": 67,
      "hit": false,
      "t": 32700,
      "d": 300,
      "v": 106
    },
    {
      "midi": 67,
      "hit": false,
      "t": 33000,
      "d": 300,
      "v": 104
    },
    {
      "midi": 69,
      "hit": false,
      "t": 33300,
      "d": 300,
      "v": 102
    },
    {
      "midi": 64,
      "hit": false,
      "t": 33600,
      "d": 300,
      "v": 89
    },
    {
      "midi": 71,
      "hit": false,
      "t": 33600,
      "d": 300,
      "v": 102
    },
    {
      "midi": 45,
      "hit": false,
      "t": 33600,
      "d": 1200,
      "v": 106
    },
    {
      "midi": 55,
      "hit": false,
      "t": 33600,
      "d": 1200,
      "v": 102
    },
    {
      "midi": 69,
      "hit": false,
      "t": 33900,
      "d": 300,
      "v": 102
    },
    {
      "midi": 67,
      "hit": false,
      "t": 34200,
      "d": 300,
      "v": 104
    },
    {
      "midi": 64,
      "hit": false,
      "t": 34500,
      "d": 300,
      "v": 75
    },
    {
      "midi": 67,
      "hit": false,
      "t": 34500,
      "d": 300,
      "v": 104
    },
    {
      "midi": 64,
      "hit": false,
      "t": 34800,
      "d": 300,
      "v": 99
    },
    {
      "midi": 69,
      "hit": false,
      "t": 34800,
      "d": 300,
      "v": 109
    },
    {
      "midi": 50,
      "hit": false,
      "t": 34800,
      "d": 600,
      "v": 104
    },
    {
      "midi": 55,
      "hit": false,
      "t": 34800,
      "d": 600,
      "v": 84
    },
    {
      "midi": 67,
      "hit": false,
      "t": 35100,
      "d": 300,
      "v": 106
    },
    {
      "midi": 64,
      "hit": false,
      "t": 35400,
      "d": 300,
      "v": 99
    },
    {
      "midi": 71,
      "hit": false,
      "t": 35400,
      "d": 300,
      "v": 104
    },
    {
      "midi": 50,
      "hit": false,
      "t": 35400,
      "d": 600,
      "v": 94
    },
    {
      "midi": 54,
      "hit": false,
      "t": 35400,
      "d": 600,
      "v": 95
    },
    {
      "midi": 60,
      "hit": false,
      "t": 35400,
      "d": 600,
      "v": 73
    },
    {
      "midi": 69,
      "hit": false,
      "t": 35700,
      "d": 300,
      "v": 104
    },
    {
      "midi": 67,
      "hit": false,
      "t": 36000,
      "d": 600,
      "v": 117
    },
    {
      "midi": 55,
      "hit": false,
      "t": 36000,
      "d": 2400,
      "v": 104
    },
    {
      "midi": 59,
      "hit": false,
      "t": 36000,
      "d": 2400,
      "v": 83
    },
    {
      "midi": 62,
      "hit": false,
      "t": 36600,
      "d": 600,
      "v": 104
    },
    {
      "midi": 63,
      "hit": false,
      "t": 37200,
      "d": 600,
      "v": 92
    },
    {
      "midi": 64,
      "hit": false,
      "t": 37800,
      "d": 600,
      "v": 99
    },
    {
      "midi": 65,
      "hit": false,
      "t": 38400,
      "d": 600,
      "v": 100
    },
    {
      "midi": 72,
      "hit": false,
      "t": 38400,
      "d": 600,
      "v": 102
    },
    {
      "midi": 57,
      "hit": false,
      "t": 38400,
      "d": 600,
      "v": 97
    },
    {
      "midi": 60,
      "hit": false,
      "t": 38400,
      "d": 600,
      "v": 71
    },
    {
      "midi": 64,
      "hit": false,
      "t": 39000,
      "d": 600,
      "v": 96
    },
    {
      "midi": 55,
      "hit": false,
      "t": 39000,
      "d": 600,
      "v": 91
    },
    {
      "midi": 59,
      "hit": false,
      "t": 39000,
      "d": 600,
      "v": 77
    },
    {
      "midi": 62,
      "hit": false,
      "t": 39600,
      "d": 600,
      "v": 104
    },
    {
      "midi": 67,
      "hit": false,
      "t": 39600,
      "d": 600,
      "v": 109
    },
    {
      "midi": 53,
      "hit": false,
      "t": 39600,
      "d": 600,
      "v": 89
    },
    {
      "midi": 57,
      "hit": false,
      "t": 39600,
      "d": 600,
      "v": 96
    },
    {
      "midi": 60,
      "hit": false,
      "t": 40200,
      "d": 600,
      "v": 93
    },
    {
      "midi": 52,
      "hit": false,
      "t": 40200,
      "d": 600,
      "v": 82
    },
    {
      "midi": 55,
      "hit": false,
      "t": 40200,
      "d": 600,
      "v": 96
    },
    {
      "midi": 58,
      "hit": false,
      "t": 40800,
      "d": 600,
      "v": 89
    },
    {
      "midi": 67,
      "hit": false,
      "t": 40800,
      "d": 600,
      "v": 109
    },
    {
      "midi": 46,
      "hit": false,
      "t": 40800,
      "d": 1200,
      "v": 100
    },
    {
      "midi": 53,
      "hit": false,
      "t": 40800,
      "d": 1200,
      "v": 111
    },
    {
      "midi": 58,
      "hit": false,
      "t": 41400,
      "d": 600,
      "v": 97
    },
    {
      "midi": 62,
      "hit": false,
      "t": 41400,
      "d": 600,
      "v": 109
    },
    {
      "midi": 60,
      "hit": false,
      "t": 42000,
      "d": 1200,
      "v": 104
    },
    {
      "midi": 48,
      "hit": false,
      "t": 42000,
      "d": 600,
      "v": 102
    },
    {
      "midi": 52,
      "hit": false,
      "t": 42000,
      "d": 600,
      "v": 99
    },
    {
      "midi": 55,
      "hit": false,
      "t": 42600,
      "d": 600,
      "v": 109
    },
    {
      "midi": 65,
      "hit": false,
      "t": 43200,
      "d": 600,
      "v": 102
    },
    {
      "midi": 72,
      "hit": false,
      "t": 43200,
      "d": 600,
      "v": 93
    },
    {
      "midi": 57,
      "hit": false,
      "t": 43200,
      "d": 600,
      "v": 104
    },
    {
      "midi": 60,
      "hit": false,
      "t": 43200,
      "d": 600,
      "v": 91
    },
    {
      "midi": 64,
      "hit": false,
      "t": 43800,
      "d": 600,
      "v": 84
    },
    {
      "midi": 55,
      "hit": false,
      "t": 43800,
      "d": 600,
      "v": 104
    },
    {
      "midi": 59,
      "hit": false,
      "t": 43800,
      "d": 600,
      "v": 96
    },
    {
      "midi": 62,
      "hit": false,
      "t": 44400,
      "d": 600,
      "v": 109
    },
    {
      "midi": 67,
      "hit": false,
      "t": 44400,
      "d": 600,
      "v": 114
    },
    {
      "midi": 53,
      "hit": false,
      "t": 44400,
      "d": 600,
      "v": 97
    },
    {
      "midi": 57,
      "hit": false,
      "t": 44400,
      "d": 600,
      "v": 82
    },
    {
      "midi": 60,
      "hit": false,
      "t": 45000,
      "d": 600,
      "v": 96
    },
    {
      "midi": 50,
      "hit": false,
      "t": 45000,
      "d": 600,
      "v": 86
    },
    {
      "midi": 55,
      "hit": false,
      "t": 45000,
      "d": 600,
      "v": 99
    },
    {
      "midi": 58,
      "hit": false,
      "t": 45600,
      "d": 600,
      "v": 61
    },
    {
      "midi": 67,
      "hit": false,
      "t": 45600,
      "d": 600,
      "v": 99
    },
    {
      "midi": 46,
      "hit": false,
      "t": 45600,
      "d": 1200,
      "v": 67
    },
    {
      "midi": 53,
      "hit": false,
      "t": 45600,
      "d": 1200,
      "v": 99
    },
    {
      "midi": 58,
      "hit": false,
      "t": 46200,
      "d": 600,
      "v": 84
    },
    {
      "midi": 62,
      "hit": false,
      "t": 46200,
      "d": 600,
      "v": 102
    },
    {
      "midi": 57,
      "hit": false,
      "t": 46800,
      "d": 300,
      "v": 83
    },
    {
      "midi": 61,
      "hit": false,
      "t": 46800,
      "d": 300,
      "v": 100
    },
    {
      "midi": 45,
      "hit": false,
      "t": 46800,
      "d": 1200,
      "v": 102
    },
    {
      "midi": 52,
      "hit": false,
      "t": 46800,
      "d": 1200,
      "v": 104
    },
    {
      "midi": 79,
      "hit": false,
      "t": 47100,
      "d": 300,
      "v": 97
    },
    {
      "midi": 77,
      "hit": false,
      "t": 47400,
      "d": 300,
      "v": 99
    },
    {
      "midi": 76,
      "hit": false,
      "t": 47700,
      "d": 300,
      "v": 114
    },
    {
      "midi": 65,
      "hit": false,
      "t": 48000,
      "d": 600,
      "v": 100
    },
    {
      "midi": 77,
      "hit": false,
      "t": 48000,
      "d": 600,
      "v": 84
    },
    {
      "midi": 50,
      "hit": false,
      "t": 48000,
      "d": 1200,
      "v": 111
    },
    {
      "midi": 57,
      "hit": false,
      "t": 48000,
      "d": 1200,
      "v": 99
    },
    {
      "midi": 74,
      "hit": false,
      "t": 48600,
      "d": 300,
      "v": 111
    },
    {
      "midi": 74,
      "hit": false,
      "t": 48900,
      "d": 300,
      "v": 104
    },
    {
      "midi": 65,
      "hit": false,
      "t": 49200,
      "d": 600,
      "v": 102
    },
    {
      "midi": 72,
      "hit": false,
      "t": 49200,
      "d": 600,
      "v": 111
    },
    {
      "midi": 50,
      "hit": false,
      "t": 49200,
      "d": 1200,
      "v": 100
    },
    {
      "midi": 60,
      "hit": false,
      "t": 49200,
      "d": 1200,
      "v": 100
    },
    {
      "midi": 65,
      "hit": false,
      "t": 49800,
      "d": 300,
      "v": 106
    },
    {
      "midi": 70,
      "hit": false,
      "t": 49800,
      "d": 300,
      "v": 108
    },
    {
      "midi": 69,
      "hit": false,
      "t": 50100,
      "d": 300,
      "v": 104
    },
    {
      "midi": 62,
      "hit": false,
      "t": 50400,
      "d": 1200,
      "v": 111
    },
    {
      "midi": 67,
      "hit": false,
      "t": 50400,
      "d": 1200,
      "v": 111
    },
    {
      "midi": 55,
      "hit": false,
      "t": 50400,
      "d": 600,
      "v": 100
    },
    {
      "midi": 59,
      "hit": false,
      "t": 50400,
      "d": 600,
      "v": 94
    },
    {
      "midi": 50,
      "hit": false,
      "t": 51000,
      "d": 600,
      "v": 97
    },
    {
      "midi": 64,
      "hit": false,
      "t": 51600,
      "d": 600,
      "v": 102
    },
    {
      "midi": 55,
      "hit": false,
      "t": 51600,
      "d": 600,
      "v": 80
    },
    {
      "midi": 60,
      "hit": false,
      "t": 51600,
      "d": 600,
      "v": 83
    },
    {
      "midi": 64,
      "hit": false,
      "t": 52200,
      "d": 600,
      "v": 106
    },
    {
      "midi": 50,
      "hit": false,
      "t": 52200,
      "d": 600,
      "v": 99
    },
    {
      "midi": 62,
      "hit": false,
      "t": 52800,
      "d": 1200,
      "v": 99
    },
    {
      "midi": 55,
      "hit": false,
      "t": 52800,
      "d": 600,
      "v": 104
    },
    {
      "midi": 59,
      "hit": false,
      "t": 52800,
      "d": 600,
      "v": 97
    },
    {
      "midi": 50,
      "hit": false,
      "t": 53400,
      "d": 600,
      "v": 97
    },
    {
      "midi": 64,
      "hit": false,
      "t": 54000,
      "d": 600,
      "v": 97
    },
    {
      "midi": 55,
      "hit": false,
      "t": 54000,
      "d": 600,
      "v": 100
    },
    {
      "midi": 60,
      "hit": false,
      "t": 54000,
      "d": 600,
      "v": 97
    },
    {
      "midi": 64,
      "hit": false,
      "t": 54600,
      "d": 600,
      "v": 102
    },
    {
      "midi": 50,
      "hit": false,
      "t": 54600,
      "d": 600,
      "v": 104
    },
    {
      "midi": 62,
      "hit": false,
      "t": 55200,
      "d": 2400,
      "v": 89
    },
    {
      "midi": 55,
      "hit": false,
      "t": 55200,
      "d": 2400,
      "v": 117
    },
    {
      "midi": 59,
      "hit": false,
      "t": 55200,
      "d": 2400,
      "v": 114
    }
  ]
}