{
  "jsonPath": "Rock/Psychedelic Rock/The Beatles/maxwells-silver-hammer.json",
  "path": "Rock\\Psychedelic Rock\\The Beatles\\Maxwells Silver Hammer.mid",
  "name": "Maxwells Silver Hammer",
  "difficulty": "Advanced",
  "bpm": 140.00014000014,
  "notes": [
    {
      "midi": 66,
      "hit": false,
      "t": 0,
      "d": 428.5710000000001,
      "v": 124
    },
    {
      "midi": 50,
      "hit": false,
      "t": 0,
      "d": 428.5710000000001,
      "v": 124
    },
    {
      "midi": 66,
      "hit": false,
      "t": 428.5710000000001,
      "d": 428.5710000000001,
      "v": 119
    },
    {
      "midi": 54,
      "hit": false,
      "t": 428.5710000000001,
      "d": 428.5710000000001,
      "v": 124
    },
    {
      "midi": 57,
      "hit": false,
      "t": 428.5710000000001,
      "d": 428.5710000000001,
      "v": 104
    },
    {
      "midi": 66,
      "hit": false,
      "t": 857.1420000000002,
      "d": 214.28550000000007,
      "v": 124
    },
    {
      "midi": 50,
      "hit": false,
      "t": 857.1420000000002,
      "d": 428.571,
      "v": 124
    },
    {
      "midi": 64,
      "hit": false,
      "t": 1071.4275000000002,
      "d": 214.28549999999996,
      "v": 124
    },
    {
      "midi": 62,
      "hit": false,
      "t": 1285.7130000000002,
      "d": 428.57100000000014,
      "v": 119
    },
    {
      "midi": 54,
      "hit": false,
      "t": 1285.7130000000002,
      "d": 428.57100000000014,
      "v": 124
    },
    {
      "midi": 57,
      "hit": false,
      "t": 1285.7130000000002,
      "d": 428.57100000000014,
      "v": 105
    },
    {
      "midi": 66,
      "hit": false,
      "t": 1714.2840000000003,
      "d": 214.28549999999996,
      "v": 124
    },
    {
      "midi": 47,
      "hit": false,
      "t": 1714.2840000000003,
      "d": 428.57100000000014,
      "v": 108
    },
    {
      "midi": 65,
      "hit": false,
      "t": 1928.5695000000003,
      "d": 214.28550000000018,
      "v": 124
    },
    {
      "midi": 66,
      "hit": false,
      "t": 2142.8550000000005,
      "d": 214.28549999999996,
      "v": 124
    },
    {
      "midi": 50,
      "hit": false,
      "t": 2142.8550000000005,
      "d": 428.5709999999999,
      "v": 124
    },
    {
      "midi": 54,
      "hit": false,
      "t": 2142.8550000000005,
      "d": 428.5709999999999,
      "v": 115
    },
    {
      "midi": 67,
      "hit": false,
      "t": 2357.1405000000004,
      "d": 214.28549999999996,
      "v": 124
    },
    {
      "midi": 64,
      "hit": false,
      "t": 2571.4260000000004,
      "d": 214.28549999999996,
      "v": 112
    },
    {
      "midi": 69,
      "hit": false,
      "t": 2571.4260000000004,
      "d": 214.28549999999996,
      "v": 111
    },
    {
      "midi": 48,
      "hit": false,
      "t": 2571.4260000000004,
      "d": 428.5709999999999,
      "v": 122
    },
    {
      "midi": 57,
      "hit": false,
      "t": 2571.4260000000004,
      "d": 428.5709999999999,
      "v": 118
    },
    {
      "midi": 71,
      "hit": false,
      "t": 2785.7115000000003,
      "d": 214.28549999999996,
      "v": 125
    },
    {
      "midi": 63,
      "hit": false,
      "t": 2999.9970000000003,
      "d": 428.5709999999999,
      "v": 95
    },
    {
      "midi": 72,
      "hit": false,
      "t": 2999.9970000000003,
      "d": 428.5709999999999,
      "v": 92
    },
    {
      "midi": 47,
      "hit": false,
      "t": 2999.9970000000003,
      "d": 428.5709999999999,
      "v": 125
    },
    {
      "midi": 57,
      "hit": false,
      "t": 2999.9970000000003,
      "d": 428.5709999999999,
      "v": 118
    },
    {
      "midi": 67,
      "hit": false,
      "t": 3428.568,
      "d": 428.5709999999999,
      "v": 124
    },
    {
      "midi": 71,
      "hit": false,
      "t": 3428.568,
      "d": 428.5709999999999,
      "v": 124
    },
    {
      "midi": 52,
      "hit": false,
      "t": 3428.568,
      "d": 428.5709999999999,
      "v": 125
    },
    {
      "midi": 64,
      "hit": false,
      "t": 3857.139,
      "d": 428.5709999999999,
      "v": 117
    },
    {
      "midi": 67,
      "hit": false,
      "t": 3857.139,
      "d": 428.5709999999999,
      "v": 111
    },
    {
      "midi": 55,
      "hit": false,
      "t": 3857.139,
      "d": 1285.7130000000006,
      "v": 123
    },
    {
      "midi": 59,
      "hit": false,
      "t": 3857.139,
      "d": 1285.7130000000006,
      "v": 104
    },
    {
      "midi": 64,
      "hit": false,
      "t": 4285.71,
      "d": 428.5709999999999,
      "v": 124
    },
    {
      "midi": 67,
      "hit": false,
      "t": 4285.71,
      "d": 428.5709999999999,
      "v": 125
    },
    {
      "midi": 64,
      "hit": false,
      "t": 4714.281,
      "d": 214.28549999999996,
      "v": 124
    },
    {
      "midi": 67,
      "hit": false,
      "t": 4714.281,
      "d": 214.28549999999996,
      "v": 125
    },
    {
      "midi": 64,
      "hit": false,
      "t": 4928.5665,
      "d": 1714.2840000000006,
      "v": 125
    },
    {
      "midi": 67,
      "hit": false,
      "t": 4928.5665,
      "d": 1714.2840000000006,
      "v": 125
    },
    {
      "midi": 52,
      "hit": false,
      "t": 5142.852000000001,
      "d": 428.5709999999999,
      "v": 125
    },
    {
      "midi": 55,
      "hit": false,
      "t": 5571.423000000001,
      "d": 428.5709999999999,
      "v": 119
    },
    {
      "midi": 59,
      "hit": false,
      "t": 5571.423000000001,
      "d": 428.5709999999999,
      "v": 121
    },
    {
      "midi": 52,
      "hit": false,
      "t": 5999.994000000001,
      "d": 428.5709999999999,
      "v": 123
    },
    {
      "midi": 55,
      "hit": false,
      "t": 6428.5650000000005,
      "d": 428.5709999999999,
      "v": 124
    },
    {
      "midi": 59,
      "hit": false,
      "t": 6428.5650000000005,
      "d": 428.5709999999999,
      "v": 123
    },
    {
      "midi": 67,
      "hit": false,
      "t": 6857.136,
      "d": 428.5709999999999,
      "v": 76
    },
    {
      "midi": 71,
      "hit": false,
      "t": 6857.136,
      "d": 428.5709999999999,
      "v": 121
    },
    {
      "midi": 45,
      "hit": false,
      "t": 6857.136,
      "d": 428.5709999999999,
      "v": 124
    },
    {
      "midi": 64,
      "hit": false,
      "t": 7285.707,
      "d": 428.5709999999999,
      "v": 112
    },
    {
      "midi": 67,
      "hit": false,
      "t": 7285.707,
      "d": 428.5709999999999,
      "v": 105
    },
    {
      "midi": 49,
      "hit": false,
      "t": 7285.707,
      "d": 857.1419999999998,
      "v": 124
    },
    {
      "midi": 55,
      "hit": false,
      "t": 7285.707,
      "d": 857.1419999999998,
      "v": 109
    },
    {
      "midi": 64,
      "hit": false,
      "t": 7714.278,
      "d": 428.5709999999999,
      "v": 107
    },
    {
      "midi": 67,
      "hit": false,
      "t": 7714.278,
      "d": 428.5709999999999,
      "v": 105
    },
    {
      "midi": 66,
      "hit": false,
      "t": 8142.849,
      "d": 428.5709999999999,
      "v": 124
    },
    {
      "midi": 69,
      "hit": false,
      "t": 8142.849,
      "d": 428.5709999999999,
      "v": 105
    },
    {
      "midi": 49,
      "hit": false,
      "t": 8142.849,
      "d": 428.5709999999999,
      "v": 125
    },
    {
      "midi": 55,
      "hit": false,
      "t": 8142.849,
      "d": 428.5709999999999,
      "v": 118
    },
    {
      "midi": 67,
      "hit": false,
      "t": 8571.42,
      "d": 214.28549999999996,
      "v": 105
    },
    {
      "midi": 71,
      "hit": false,
      "t": 8571.42,
      "d": 214.28549999999996,
      "v": 124
    },
    {
      "midi": 45,
      "hit": false,
      "t": 8571.42,
      "d": 428.5709999999999,
      "v": 124
    },
    {
      "midi": 73,
      "hit": false,
      "t": 8785.7055,
      "d": 214.28549999999996,
      "v": 124
    },
    {
      "midi": 67,
      "hit": false,
      "t": 8999.991,
      "d": 428.5709999999999,
      "v": 105
    },
    {
      "midi": 71,
      "hit": false,
      "t": 8999.991,
      "d": 428.5709999999999,
      "v": 124
    },
    {
      "midi": 49,
      "hit": false,
      "t": 8999.991,
      "d": 857.1419999999998,
      "v": 124
    },
    {
      "midi": 57,
      "hit": false,
      "t": 8999.991,
      "d": 857.1419999999998,
      "v": 115
    },
    {
      "midi": 66,
      "hit": false,
      "t": 9428.562,
      "d": 428.5709999999999,
      "v": 117
    },
    {
      "midi": 69,
      "hit": false,
      "t": 9428.562,
      "d": 428.5709999999999,
      "v": 123
    },
    {
      "midi": 64,
      "hit": false,
      "t": 9857.133,
      "d": 428.5709999999999,
      "v": 119
    },
    {
      "midi": 67,
      "hit": false,
      "t": 9857.133,
      "d": 428.5709999999999,
      "v": 122
    },
    {
      "midi": 49,
      "hit": false,
      "t": 9857.133,
      "d": 428.5709999999999,
      "v": 125
    },
    {
      "midi": 57,
      "hit": false,
      "t": 9857.133,
      "d": 428.5709999999999,
      "v": 111
    },
    {
      "midi": 62,
      "hit": false,
      "t": 10285.704,
      "d": 857.1419999999998,
      "v": 119
    },
    {
      "midi": 66,
      "hit": false,
      "t": 10285.704,
      "d": 857.1419999999998,
      "v": 125
    },
    {
      "midi": 50,
      "hit": false,
      "t": 10285.704,
      "d": 428.5709999999999,
      "v": 111
    },
    {
      "midi": 54,
      "hit": false,
      "t": 10714.275,
      "d": 1285.7129999999997,
      "v": 124
    },
    {
      "midi": 57,
      "hit": false,
      "t": 10714.275,
      "d": 1285.7129999999997,
      "v": 107
    },
    {
      "midi": 66,
      "hit": false,
      "t": 11142.846,
      "d": 214.28549999999996,
      "v": 125
    },
    {
      "midi": 69,
      "hit": false,
      "t": 11142.846,
      "d": 214.28549999999996,
      "v": 122
    },
    {
      "midi": 62,
      "hit": false,
      "t": 11357.1315,
      "d": 428.5709999999999,
      "v": 107
    },
    {
      "midi": 66,
      "hit": false,
      "t": 11357.1315,
      "d": 428.5709999999999,
      "v": 125
    },
    {
      "midi": 61,
      "hit": false,
      "t": 11785.7025,
      "d": 1714.2839999999997,
      "v": 124
    },
    {
      "midi": 64,
      "hit": false,
      "t": 11785.7025,
      "d": 1714.2839999999997,
      "v": 125
    },
    {
      "midi": 45,
      "hit": false,
      "t": 11999.988,
      "d": 428.5709999999999,
      "v": 102
    },
    {
      "midi": 49,
      "hit": false,
      "t": 12428.559,
      "d": 428.5709999999999,
      "v": 124
    },
    {
      "midi": 55,
      "hit": false,
      "t": 12428.559,
      "d": 428.5709999999999,
      "v": 124
    },
    {
      "midi": 57,
      "hit": false,
      "t": 12428.559,
      "d": 428.5709999999999,
      "v": 115
    },
    {
      "midi": 45,
      "hit": false,
      "t": 12857.13,
      "d": 428.5709999999999,
      "v": 124
    },
    {
      "midi": 49,
      "hit": false,
      "t": 13285.701,
      "d": 428.5709999999999,
      "v": 125
    },
    {
      "midi": 55,
      "hit": false,
      "t": 13285.701,
      "d": 428.5709999999999,
      "v": 122
    },
    {
      "midi": 57,
      "hit": false,
      "t": 13285.701,
      "d": 428.5709999999999,
      "v": 115
    },
    {
      "midi": 66,
      "hit": false,
      "t": 13714.271999999999,
      "d": 428.5709999999999,
      "v": 125
    },
    {
      "midi": 50,
      "hit": false,
      "t": 13714.271999999999,
      "d": 428.5709999999999,
      "v": 124
    },
    {
      "midi": 66,
      "hit": false,
      "t": 14142.842999999999,
      "d": 428.5709999999999,
      "v": 124
    },
    {
      "midi": 54,
      "hit": false,
      "t": 14142.842999999999,
      "d": 428.5709999999999,
      "v": 125
    },
    {
      "midi": 57,
      "hit": false,
      "t": 14142.842999999999,
      "d": 428.5709999999999,
      "v": 104
    },
    {
      "midi": 66,
      "hit": false,
      "t": 14571.413999999999,
      "d": 214.28549999999996,
      "v": 124
    },
    {
      "midi": 50,
      "hit": false,
      "t": 14571.413999999999,
      "d": 428.5709999999999,
      "v": 124
    },
    {
      "midi": 64,
      "hit": false,
      "t": 14785.699499999999,
      "d": 214.28549999999996,
      "v": 124
    },
    {
      "midi": 62,
      "hit": false,
      "t": 14999.984999999999,
      "d": 428.5709999999999,
      "v": 109
    },
    {
      "midi": 54,
      "hit": false,
      "t": 14999.984999999999,
      "d": 428.5709999999999,
      "v": 124
    },
    {
      "midi": 57,
      "hit": false,
      "t": 14999.984999999999,
      "d": 428.5709999999999,
      "v": 109
    },
    {
      "midi": 66,
      "hit": false,
      "t": 15428.555999999999,
      "d": 214.28549999999996,
      "v": 124
    },
    {
      "midi": 47,
      "hit": false,
      "t": 15428.555999999999,
      "d": 428.5709999999999,
      "v": 124
    },
    {
      "midi": 65,
      "hit": false,
      "t": 15642.841499999999,
      "d": 214.28549999999996,
      "v": 124
    },
    {
      "midi": 66,
      "hit": false,
      "t": 15857.126999999999,
      "d": 214.28549999999996,
      "v": 125
    },
    {
      "midi": 50,
      "hit": false,
      "t": 15857.126999999999,
      "d": 428.5709999999999,
      "v": 124
    },
    {
      "midi": 54,
      "hit": false,
      "t": 15857.126999999999,
      "d": 428.5709999999999,
      "v": 124
    },
    {
      "midi": 67,
      "hit": false,
      "t": 16071.412499999999,
      "d": 214.28549999999996,
      "v": 124
    },
    {
      "midi": 64,
      "hit": false,
      "t": 16285.697999999999,
      "d": 214.28549999999996,
      "v": 123
    },
    {
      "midi": 69,
      "hit": false,
      "t": 16285.697999999999,
      "d": 214.28549999999996,
      "v": 123
    },
    {
      "midi": 48,
      "hit": false,
      "t": 16285.697999999999,
      "d": 428.57100000000173,
      "v": 122
    },
    {
      "midi": 57,
      "hit": false,
      "t": 16285.697999999999,
      "d": 428.57100000000173,
      "v": 111
    },
    {
      "midi": 71,
      "hit": false,
      "t": 16499.9835,
      "d": 214.28550000000178,
      "v": 124
    },
    {
      "midi": 63,
      "hit": false,
      "t": 16714.269,
      "d": 428.5709999999999,
      "v": 123
    },
    {
      "midi": 72,
      "hit": false,
      "t": 16714.269,
      "d": 428.5709999999999,
      "v": 124
    },
    {
      "midi": 47,
      "hit": false,
      "t": 16714.269,
      "d": 428.5709999999999,
      "v": 125
    },
    {
      "midi": 57,
      "hit": false,
      "t": 16714.269,
      "d": 428.5709999999999,
      "v": 111
    },
    {
      "midi": 67,
      "hit": false,
      "t": 17142.84,
      "d": 428.5709999999999,
      "v": 123
    },
    {
      "midi": 71,
      "hit": false,
      "t": 17142.84,
      "d": 428.5709999999999,
      "v": 124
    },
    {
      "midi": 52,
      "hit": false,
      "t": 17142.84,
      "d": 428.5709999999999,
      "v": 124
    },
    {
      "midi": 64,
      "hit": false,
      "t": 17571.411,
      "d": 428.5709999999999,
      "v": 119
    },
    {
      "midi": 67,
      "hit": false,
      "t": 17571.411,
      "d": 428.5709999999999,
      "v": 122
    },
    {
      "midi": 55,
      "hit": false,
      "t": 17571.411,
      "d": 1285.7129999999997,
      "v": 123
    },
    {
      "midi": 59,
      "hit": false,
      "t": 17571.411,
      "d": 1285.7129999999997,
      "v": 106
    },
    {
      "midi": 64,
      "hit": false,
      "t": 17999.982,
      "d": 428.5709999999999,
      "v": 124
    },
    {
      "midi": 67,
      "hit": false,
      "t": 17999.982,
      "d": 428.5709999999999,
      "v": 124
    },
    {
      "midi": 64,
      "hit": false,
      "t": 18428.553,
      "d": 214.28550000000178,
      "v": 124
    },
    {
      "midi": 67,
      "hit": false,
      "t": 18428.553,
      "d": 214.28550000000178,
      "v": 124
    },
    {
      "midi": 64,
      "hit": false,
      "t": 18642.8385,
      "d": 1714.2839999999997,
      "v": 121
    },
    {
      "midi": 67,
      "hit": false,
      "t": 18642.8385,
      "d": 1714.2839999999997,
      "v": 124
    },
    {
      "midi": 52,
      "hit": false,
      "t": 18857.124,
      "d": 428.5709999999999,
      "v": 124
    },
    {
      "midi": 55,
      "hit": false,
      "t": 19285.695,
      "d": 428.5709999999999,
      "v": 119
    },
    {
      "midi": 59,
      "hit": false,
      "t": 19285.695,
      "d": 428.5709999999999,
      "v": 123
    },
    {
      "midi": 52,
      "hit": false,
      "t": 19714.266,
      "d": 428.5709999999999,
      "v": 123
    },
    {
      "midi": 55,
      "hit": false,
      "t": 20142.837,
      "d": 428.5709999999999,
      "v": 111
    },
    {
      "midi": 59,
      "hit": false,
      "t": 20142.837,
      "d": 428.5709999999999,
      "v": 121
    },
    {
      "midi": 45,
      "hit": false,
      "t": 20571.408,
      "d": 428.5709999999999,
      "v": 119
    },
    {
      "midi": 67,
      "hit": false,
      "t": 20571.408000000003,
      "d": 428.5709999999999,
      "v": 118
    },
    {
      "midi": 71,
      "hit": false,
      "t": 20571.408000000003,
      "d": 428.5709999999999,
      "v": 124
    },
    {
      "midi": 49,
      "hit": false,
      "t": 20999.979,
      "d": 857.1419999999998,
      "v": 124
    },
    {
      "midi": 55,
      "hit": false,
      "t": 20999.979,
      "d": 857.1419999999998,
      "v": 107
    },
    {
      "midi": 64,
      "hit": false,
      "t": 20999.979000000003,
      "d": 428.5709999999999,
      "v": 118
    },
    {
      "midi": 67,
      "hit": false,
      "t": 20999.979000000003,
      "d": 428.5709999999999,
      "v": 109
    },
    {
      "midi": 64,
      "hit": false,
      "t": 21428.550000000003,
      "d": 428.5709999999999,
      "v": 117
    },
    {
      "midi": 67,
      "hit": false,
      "t": 21428.550000000003,
      "d": 428.5709999999999,
      "v": 111
    },
    {
      "midi": 49,
      "hit": false,
      "t": 21857.121,
      "d": 428.5709999999999,
      "v": 125
    },
    {
      "midi": 55,
      "hit": false,
      "t": 21857.121,
      "d": 428.5709999999999,
      "v": 109
    },
    {
      "midi": 66,
      "hit": false,
      "t": 21857.121000000003,
      "d": 428.5709999999999,
      "v": 124
    },
    {
      "midi": 69,
      "hit": false,
      "t": 21857.121000000003,
      "d": 428.5709999999999,
      "v": 95
    },
    {
      "midi": 45,
      "hit": false,
      "t": 22285.692,
      "d": 428.5709999999999,
      "v": 124
    },
    {
      "midi": 67,
      "hit": false,
      "t": 22285.692000000003,
      "d": 214.28550000000178,
      "v": 122
    },
    {
      "midi": 71,
      "hit": false,
      "t": 22285.692000000003,
      "d": 214.28550000000178,
      "v": 118
    },
    {
      "midi": 73,
      "hit": false,
      "t": 22499.977500000005,
      "d": 214.28550000000178,
      "v": 124
    },
    {
      "midi": 49,
      "hit": false,
      "t": 22714.263,
      "d": 857.1419999999998,
      "v": 124
    },
    {
      "midi": 57,
      "hit": false,
      "t": 22714.263,
      "d": 857.1419999999998,
      "v": 115
    },
    {
      "midi": 67,
      "hit": false,
      "t": 22714.263000000006,
      "d": 428.5709999999999,
      "v": 107
    },
    {
      "midi": 71,
      "hit": false,
      "t": 22714.263000000006,
      "d": 428.5709999999999,
      "v": 124
    },
    {
      "midi": 66,
      "hit": false,
      "t": 23142.834000000006,
      "d": 428.5709999999999,
      "v": 123
    },
    {
      "midi": 69,
      "hit": false,
      "t": 23142.834000000006,
      "d": 428.5709999999999,
      "v": 124
    },
    {
      "midi": 49,
      "hit": false,
      "t": 23571.405,
      "d": 428.5709999999999,
      "v": 124
    },
    {
      "midi": 57,
      "hit": false,
      "t": 23571.405,
      "d": 428.5709999999999,
      "v": 105
    },
    {
      "midi": 64,
      "hit": false,
      "t": 23571.405000000006,
      "d": 428.5709999999999,
      "v": 119
    },
    {
      "midi": 67,
      "hit": false,
      "t": 23571.405000000006,
      "d": 428.5709999999999,
      "v": 124
    },
    {
      "midi": 50,
      "hit": false,
      "t": 23999.976,
      "d": 428.5709999999999,
      "v": 119
    },
    {
      "midi": 62,
      "hit": false,
      "t": 23999.976000000006,
      "d": 857.1419999999998,
      "v": 119
    },
    {
      "midi": 66,
      "hit": false,
      "t": 23999.976000000006,
      "d": 857.1419999999998,
      "v": 124
    },
    {
      "midi": 54,
      "hit": false,
      "t": 24428.547,
      "d": 1285.7129999999997,
      "v": 124
    },
    {
      "midi": 57,
      "hit": false,
      "t": 24428.547,
      "d": 1285.7129999999997,
      "v": 115
    },
    {
      "midi": 66,
      "hit": false,
      "t": 24857.118000000006,
      "d": 214.28550000000178,
      "v": 124
    },
    {
      "midi": 69,
      "hit": false,
      "t": 24857.118000000006,
      "d": 214.28550000000178,
      "v": 97
    },
    {
      "midi": 62,
      "hit": false,
      "t": 25071.403500000008,
      "d": 428.5709999999999,
      "v": 111
    },
    {
      "midi": 66,
      "hit": false,
      "t": 25071.403500000008,
      "d": 428.5709999999999,
      "v": 125
    },
    {
      "midi": 61,
      "hit": false,
      "t": 25499.974500000008,
      "d": 1714.2839999999997,
      "v": 124
    },
    {
      "midi": 64,
      "hit": false,
      "t": 25499.974500000008,
      "d": 1714.2839999999997,
      "v": 125
    },
    {
      "midi": 45,
      "hit": false,
      "t": 25714.26,
      "d": 428.5709999999999,
      "v": 118
    },
    {
      "midi": 49,
      "hit": false,
      "t": 26142.831,
      "d": 428.5709999999999,
      "v": 124
    },
    {
      "midi": 55,
      "hit": false,
      "t": 26142.831,
      "d": 428.5709999999999,
      "v": 109
    },
    {
      "midi": 57,
      "hit": false,
      "t": 26142.831,
      "d": 428.5709999999999,
      "v": 90
    },
    {
      "midi": 45,
      "hit": false,
      "t": 26571.402,
      "d": 428.5709999999999,
      "v": 104
    },
    {
      "midi": 49,
      "hit": false,
      "t": 26999.972999999998,
      "d": 428.5709999999999,
      "v": 124
    },
    {
      "midi": 55,
      "hit": false,
      "t": 26999.972999999998,
      "d": 428.5709999999999,
      "v": 115
    },
    {
      "midi": 57,
      "hit": false,
      "t": 26999.972999999998,
      "d": 428.5709999999999,
      "v": 99
    },
    {
      "midi": 59,
      "hit": false,
      "t": 27214.258500000007,
      "d": 214.28550000000178,
      "v": 124
    },
    {
      "midi": 52,
      "hit": false,
      "t": 27428.543999999998,
      "d": 2571.4259999999995,
      "v": 124
    },
    {
      "midi": 56,
      "hit": false,
      "t": 27428.543999999998,
      "d": 2571.4259999999995,
      "v": 124
    },
    {
      "midi": 62,
      "hit": false,
      "t": 27428.543999999998,
      "d": 2571.4259999999995,
      "v": 107
    },
    {
      "midi": 64,
      "hit": false,
      "t": 27428.54400000001,
      "d": 428.5709999999999,
      "v": 125
    },
    {
      "midi": 64,
      "hit": false,
      "t": 27857.11500000001,
      "d": 428.5709999999999,
      "v": 124
    },
    {
      "midi": 68,
      "hit": false,
      "t": 28285.68600000001,
      "d": 214.28550000000178,
      "v": 124
    },
    {
      "midi": 69,
      "hit": false,
      "t": 28499.97150000001,
      "d": 642.8565000000017,
      "v": 88
    },
    {
      "midi": 74,
      "hit": false,
      "t": 29142.828000000012,
      "d": 214.28550000000178,
      "v": 122
    },
    {
      "midi": 73,
      "hit": false,
      "t": 29357.113500000014,
      "d": 214.28550000000178,
      "v": 124
    },
    {
      "midi": 71,
      "hit": false,
      "t": 29571.399000000016,
      "d": 428.5709999999999,
      "v": 125
    },
    {
      "midi": 52,
      "hit": false,
      "t": 29999.969999999998,
      "d": 428.5709999999999,
      "v": 124
    },
    {
      "midi": 56,
      "hit": false,
      "t": 29999.969999999998,
      "d": 428.5709999999999,
      "v": 123
    },
    {
      "midi": 64,
      "hit": false,
      "t": 29999.970000000016,
      "d": 642.8565000000017,
      "v": 124
    },
    {
      "midi": 47,
      "hit": false,
      "t": 30428.540999999997,
      "d": 428.5709999999999,
      "v": 125
    },
    {
      "midi": 64,
      "hit": false,
      "t": 30642.826500000017,
      "d": 214.28550000000178,
      "v": 124
    },
    {
      "midi": 45,
      "hit": false,
      "t": 30857.111999999997,
      "d": 1714.2839999999997,
      "v": 124
    },
    {
      "midi": 55,
      "hit": false,
      "t": 30857.111999999997,
      "d": 1714.2839999999997,
      "v": 122
    },
    {
      "midi": 69,
      "hit": false,
      "t": 30857.11200000002,
      "d": 428.5709999999999,
      "v": 123
    },
    {
      "midi": 69,
      "hit": false,
      "t": 31285.68300000002,
      "d": 428.5709999999999,
      "v": 122
    },
    {
      "midi": 71,
      "hit": false,
      "t": 31714.25400000002,
      "d": 428.5709999999999,
      "v": 124
    },
    {
      "midi": 72,
      "hit": false,
      "t": 32142.82500000002,
      "d": 214.28550000000178,
      "v": 115
    },
    {
      "midi": 73,
      "hit": false,
      "t": 32357.11050000002,
      "d": 1714.2840000000033,
      "v": 126
    },
    {
      "midi": 57,
      "hit": false,
      "t": 32571.395999999997,
      "d": 321.42825000000084,
      "v": 124
    },
    {
      "midi": 57,
      "hit": false,
      "t": 32892.82425,
      "d": 107.14274999999907,
      "v": 111
    },
    {
      "midi": 55,
      "hit": false,
      "t": 32999.967,
      "d": 428.57100000000355,
      "v": 124
    },
    {
      "midi": 54,
      "hit": false,
      "t": 33428.538,
      "d": 321.4282499999972,
      "v": 126
    },
    {
      "midi": 54,
      "hit": false,
      "t": 33749.96625,
      "d": 107.14274999999907,
      "v": 124
    },
    {
      "midi": 52,
      "hit": false,
      "t": 33857.109,
      "d": 428.57100000000355,
      "v": 124
    },
    {
      "midi": 50,
      "hit": false,
      "t": 34285.68,
      "d": 428.57100000000355,
      "v": 124
    },
    {
      "midi": 54,
      "hit": false,
      "t": 34285.68,
      "d": 428.57100000000355,
      "v": 126
    },
    {
      "midi": 57,
      "hit": false,
      "t": 34285.68,
      "d": 428.57100000000355,
      "v": 107
    },
    {
      "midi": 66,
      "hit": false,
      "t": 34285.68000000002,
      "d": 428.57100000000355,
      "v": 117
    },
    {
      "midi": 50,
      "hit": false,
      "t": 34714.251000000004,
      "d": 428.57100000000355,
      "v": 124
    },
    {
      "midi": 54,
      "hit": false,
      "t": 34714.251000000004,
      "d": 428.57100000000355,
      "v": 125
    },
    {
      "midi": 57,
      "hit": false,
      "t": 34714.251000000004,
      "d": 428.57100000000355,
      "v": 118
    },
    {
      "midi": 69,
      "hit": false,
      "t": 34714.251000000026,
      "d": 428.57100000000355,
      "v": 118
    },
    {
      "midi": 50,
      "hit": false,
      "t": 35142.82200000001,
      "d": 857.1419999999998,
      "v": 124
    },
    {
      "midi": 54,
      "hit": false,
      "t": 35142.82200000001,
      "d": 857.1419999999998,
      "v": 125
    },
    {
      "midi": 57,
      "hit": false,
      "t": 35142.82200000001,
      "d": 857.1419999999998,
      "v": 111
    },
    {
      "midi": 74,
      "hit": false,
      "t": 35142.82200000003,
      "d": 428.57100000000355,
      "v": 115
    },
    {
      "midi": 73,
      "hit": false,
      "t": 35571.39300000003,
      "d": 428.57100000000355,
      "v": 124
    },
    {
      "midi": 50,
      "hit": false,
      "t": 35999.96400000001,
      "d": 1714.2839999999997,
      "v": 124
    },
    {
      "midi": 54,
      "hit": false,
      "t": 35999.96400000001,
      "d": 1714.2839999999997,
      "v": 125
    },
    {
      "midi": 57,
      "hit": false,
      "t": 35999.96400000001,
      "d": 1714.2839999999997,
      "v": 111
    },
    {
      "midi": 71,
      "hit": false,
      "t": 35999.964000000036,
      "d": 428.57100000000355,
      "v": 124
    },
    {
      "midi": 69,
      "hit": false,
      "t": 36428.53500000004,
      "d": 214.28549999999814,
      "v": 119
    },
    {
      "midi": 66,
      "hit": false,
      "t": 36642.82050000004,
      "d": 428.57100000000355,
      "v": 124
    },
    {
      "midi": 64,
      "hit": false,
      "t": 37071.39150000004,
      "d": 214.28549999999814,
      "v": 124
    },
    {
      "midi": 62,
      "hit": false,
      "t": 37285.67700000004,
      "d": 428.57100000000355,
      "v": 115
    },
    {
      "midi": 52,
      "hit": false,
      "t": 37714.24800000001,
      "d": 428.57100000000355,
      "v": 125
    },
    {
      "midi": 56,
      "hit": false,
      "t": 37714.24800000001,
      "d": 428.57100000000355,
      "v": 124
    },
    {
      "midi": 62,
      "hit": false,
      "t": 37714.24800000001,
      "d": 428.57100000000355,
      "v": 104
    },
    {
      "midi": 64,
      "hit": false,
      "t": 37714.24800000004,
      "d": 642.8565000000017,
      "v": 124
    },
    {
      "midi": 52,
      "hit": false,
      "t": 38142.81900000001,
      "d": 1285.7130000000034,
      "v": 124
    },
    {
      "midi": 56,
      "hit": false,
      "t": 38142.81900000001,
      "d": 1285.7130000000034,
      "v": 125
    },
    {
      "midi": 62,
      "hit": false,
      "t": 38142.81900000001,
      "d": 1285.7130000000034,
      "v": 118
    },
    {
      "midi": 64,
      "hit": false,
      "t": 38357.104500000045,
      "d": 214.28549999999814,
      "v": 124
    },
    {
      "midi": 68,
      "hit": false,
      "t": 38571.39000000004,
      "d": 214.28549999999814,
      "v": 124
    },
    {
      "midi": 71,
      "hit": false,
      "t": 38785.67550000004,
      "d": 428.57100000000355,
      "v": 124
    },
    {
      "midi": 74,
      "hit": false,
      "t": 39214.246500000045,
      "d": 1714.2839999999997,
      "v": 124
    },
    {
      "midi": 52,
      "hit": false,
      "t": 39428.532000000014,
      "d": 428.57100000000355,
      "v": 125
    },
    {
      "midi": 56,
      "hit": false,
      "t": 39857.10300000002,
      "d": 428.57100000000355,
      "v": 124
    },
    {
      "midi": 62,
      "hit": false,
      "t": 39857.10300000002,
      "d": 428.57100000000355,
      "v": 109
    },
    {
      "midi": 52,
      "hit": false,
      "t": 40285.67400000002,
      "d": 428.57100000000355,
      "v": 124
    },
    {
      "midi": 56,
      "hit": false,
      "t": 40714.245000000024,
      "d": 428.57100000000355,
      "v": 124
    },
    {
      "midi": 62,
      "hit": false,
      "t": 40714.245000000024,
      "d": 428.57100000000355,
      "v": 109
    },
    {
      "midi": 55,
      "hit": false,
      "t": 41142.81600000003,
      "d": 428.57100000000355,
      "v": 123
    },
    {
      "midi": 57,
      "hit": false,
      "t": 41142.81600000003,
      "d": 428.57100000000355,
      "v": 124
    },
    {
      "midi": 61,
      "hit": false,
      "t": 41142.81600000003,
      "d": 428.57100000000355,
      "v": 123
    },
    {
      "midi": 68,
      "hit": false,
      "t": 41142.81600000004,
      "d": 428.57100000000355,
      "v": 124
    },
    {
      "midi": 55,
      "hit": false,
      "t": 41571.38700000003,
      "d": 857.1419999999998,
      "v": 127
    },
    {
      "midi": 57,
      "hit": false,
      "t": 41571.38700000003,
      "d": 857.1419999999998,
      "v": 126
    },
    {
      "midi": 61,
      "hit": false,
      "t": 41571.38700000003,
      "d": 857.1419999999998,
      "v": 126
    },
    {
      "midi": 69,
      "hit": false,
      "t": 41571.387000000046,
      "d": 428.57100000000355,
      "v": 124
    },
    {
      "midi": 76,
      "hit": false,
      "t": 41999.95800000005,
      "d": 428.57100000000355,
      "v": 123
    },
    {
      "midi": 55,
      "hit": false,
      "t": 42428.52900000003,
      "d": 428.57100000000355,
      "v": 125
    },
    {
      "midi": 59,
      "hit": false,
      "t": 42428.52900000003,
      "d": 428.57100000000355,
      "v": 124
    },
    {
      "midi": 74,
      "hit": false,
      "t": 42428.52900000005,
      "d": 428.57100000000355,
      "v": 118
    },
    {
      "midi": 55,
      "hit": false,
      "t": 42857.100000000035,
      "d": 1714.2839999999997,
      "v": 126
    },
    {
      "midi": 57,
      "hit": false,
      "t": 42857.100000000035,
      "d": 1714.2839999999997,
      "v": 126
    },
    {
      "midi": 61,
      "hit": false,
      "t": 42857.100000000035,
      "d": 1714.2839999999997,
      "v": 126
    },
    {
      "midi": 73,
      "hit": false,
      "t": 42857.10000000006,
      "d": 428.57100000000355,
      "v": 124
    },
    {
      "midi": 71,
      "hit": false,
      "t": 43285.67100000006,
      "d": 214.28549999999814,
      "v": 124
    },
    {
      "midi": 69,
      "hit": false,
      "t": 43499.95650000006,
      "d": 428.57100000000355,
      "v": 118
    },
    {
      "midi": 67,
      "hit": false,
      "t": 43928.52750000006,
      "d": 214.28549999999814,
      "v": 124
    },
    {
      "midi": 66,
      "hit": false,
      "t": 44142.81300000006,
      "d": 428.57100000000355,
      "v": 124
    },
    {
      "midi": 52,
      "hit": false,
      "t": 44571.384000000035,
      "d": 857.1419999999998,
      "v": 124
    },
    {
      "midi": 55,
      "hit": false,
      "t": 44571.384000000035,
      "d": 857.1419999999998,
      "v": 124
    },
    {
      "midi": 59,
      "hit": false,
      "t": 44571.384000000035,
      "d": 857.1419999999998,
      "v": 124
    },
    {
      "midi": 64,
      "hit": false,
      "t": 44571.384000000064,
      "d": 428.57100000000355,
      "v": 123
    },
    {
      "midi": 64,
      "hit": false,
      "t": 44999.95500000007,
      "d": 428.57100000000355,
      "v": 124
    },
    {
      "midi": 45,
      "hit": false,
      "t": 45428.526000000034,
      "d": 857.1419999999998,
      "v": 124
    },
    {
      "midi": 55,
      "hit": false,
      "t": 45428.526000000034,
      "d": 857.1419999999998,
      "v": 124
    },
    {
      "midi": 61,
      "hit": false,
      "t": 45428.52600000007,
      "d": 214.28549999999814,
      "v": 123
    },
    {
      "midi": 69,
      "hit": false,
      "t": 45428.52600000007,
      "d": 214.28549999999814,
      "v": 124
    },
    {
      "midi": 66,
      "hit": false,
      "t": 45642.81150000007,
      "d": 428.57100000000355,
      "v": 124
    },
    {
      "midi": 62,
      "hit": false,
      "t": 46071.38250000007,
      "d": 1714.2839999999997,
      "v": 124
    },
    {
      "midi": 50,
      "hit": false,
      "t": 46285.668000000034,
      "d": 428.57100000000355,
      "v": 124
    },
    {
      "midi": 54,
      "hit": false,
      "t": 46714.23900000004,
      "d": 428.57100000000355,
      "v": 124
    },
    {
      "midi": 57,
      "hit": false,
      "t": 46714.23900000004,
      "d": 428.57100000000355,
      "v": 64
    },
    {
      "midi": 50,
      "hit": false,
      "t": 47142.81000000004,
      "d": 428.57100000000355,
      "v": 124
    },
    {
      "midi": 54,
      "hit": false,
      "t": 47571.381000000045,
      "d": 428.57100000000355,
      "v": 124
    },
    {
      "midi": 57,
      "hit": false,
      "t": 47571.381000000045,
      "d": 428.57100000000355,
      "v": 64
    },
    {
      "midi": 50,
      "hit": false,
      "t": 47999.95200000005,
      "d": 428.57100000000355,
      "v": 124
    },
    {
      "midi": 66,
      "hit": false,
      "t": 47999.95200000007,
      "d": 428.57100000000355,
      "v": 124
    },
    {
      "midi": 54,
      "hit": false,
      "t": 48428.52300000005,
      "d": 428.57100000000355,
      "v": 124
    },
    {
      "midi": 57,
      "hit": false,
      "t": 48428.52300000005,
      "d": 428.57100000000355,
      "v": 104
    },
    {
      "midi": 66,
      "hit": false,
      "t": 48428.523000000074,
      "d": 428.57100000000355,
      "v": 119
    },
    {
      "midi": 50,
      "hit": false,
      "t": 48857.094000000056,
      "d": 428.57100000000355,
      "v": 124
    },
    {
      "midi": 66,
      "hit": false,
      "t": 48857.09400000008,
      "d": 214.28549999999814,
      "v": 124
    },
    {
      "midi": 64,
      "hit": false,
      "t": 49071.379500000075,
      "d": 214.28549999999814,
      "v": 124
    },
    {
      "midi": 54,
      "hit": false,
      "t": 49285.66500000006,
      "d": 428.57100000000355,
      "v": 124
    },
    {
      "midi": 57,
      "hit": false,
      "t": 49285.66500000006,
      "d": 428.57100000000355,
      "v": 105
    },
    {
      "midi": 62,
      "hit": false,
      "t": 49285.66500000007,
      "d": 428.57100000000355,
      "v": 119
    },
    {
      "midi": 47,
      "hit": false,
      "t": 49714.23600000006,
      "d": 428.57100000000355,
      "v": 108
    },
    {
      "midi": 66,
      "hit": false,
      "t": 49714.23600000008,
      "d": 214.28549999999814,
      "v": 124
    },
    {
      "midi": 65,
      "hit": false,
      "t": 49928.521500000075,
      "d": 214.28549999999814,
      "v": 124
    },
    {
      "midi": 50,
      "hit": false,
      "t": 50142.807000000066,
      "d": 428.57100000000355,
      "v": 124
    },
    {
      "midi": 54,
      "hit": false,
      "t": 50142.807000000066,
      "d": 428.57100000000355,
      "v": 115
    },
    {
      "midi": 66,
      "hit": false,
      "t": 50142.80700000007,
      "d": 214.28549999999814,
      "v": 124
    },
    {
      "midi": 67,
      "hit": false,
      "t": 50357.09250000007,
      "d": 214.28549999999814,
      "v": 124
    },
    {
      "midi": 64,
      "hit": false,
      "t": 50571.37800000007,
      "d": 214.28549999999814,
      "v": 112
    },
    {
      "midi": 69,
      "hit": false,
      "t": 50571.37800000007,
      "d": 214.28549999999814,
      "v": 111
    },
    {
      "midi": 48,
      "hit": false,
      "t": 50571.37800000007,
      "d": 428.57100000000355,
      "v": 122
    },
    {
      "midi": 57,
      "hit": false,
      "t": 50571.37800000007,
      "d": 428.57100000000355,
      "v": 118
    },
    {
      "midi": 71,
      "hit": false,
      "t": 50785.66350000007,
      "d": 214.28549999999814,
      "v": 125
    },
    {
      "midi": 63,
      "hit": false,
      "t": 50999.949000000066,
      "d": 428.57100000000355,
      "v": 95
    },
    {
      "midi": 72,
      "hit": false,
      "t": 50999.949000000066,
      "d": 428.57100000000355,
      "v": 92
    },
    {
      "midi": 47,
      "hit": false,
      "t": 50999.94900000007,
      "d": 428.57100000000355,
      "v": 125
    },
    {
      "midi": 57,
      "hit": false,
      "t": 50999.94900000007,
      "d": 428.57100000000355,
      "v": 118
    },
    {
      "midi": 67,
      "hit": false,
      "t": 51428.52000000007,
      "d": 428.57100000000355,
      "v": 124
    },
    {
      "midi": 71,
      "hit": false,
      "t": 51428.52000000007,
      "d": 428.57100000000355,
      "v": 124
    },
    {
      "midi": 52,
      "hit": false,
      "t": 51428.52000000008,
      "d": 428.57100000000355,
      "v": 125
    },
    {
      "midi": 64,
      "hit": false,
      "t": 51857.09100000007,
      "d": 428.57100000000355,
      "v": 117
    },
    {
      "midi": 67,
      "hit": false,
      "t": 51857.09100000007,
      "d": 428.57100000000355,
      "v": 111
    },
    {
      "midi": 55,
      "hit": false,
      "t": 51857.09100000008,
      "d": 1285.7130000000034,
      "v": 123
    },
    {
      "midi": 59,
      "hit": false,
      "t": 51857.09100000008,
      "d": 1285.7130000000034,
      "v": 104
    },
    {
      "midi": 64,
      "hit": false,
      "t": 52285.66200000008,
      "d": 428.57100000000355,
      "v": 124
    },
    {
      "midi": 67,
      "hit": false,
      "t": 52285.66200000008,
      "d": 428.57100000000355,
      "v": 125
    },
    {
      "midi": 64,
      "hit": false,
      "t": 52714.23300000008,
      "d": 214.28549999999814,
      "v": 124
    },
    {
      "midi": 67,
      "hit": false,
      "t": 52714.23300000008,
      "d": 214.28549999999814,
      "v": 125
    },
    {
      "midi": 64,
      "hit": false,
      "t": 52928.51850000008,
      "d": 1714.2839999999997,
      "v": 125
    },
    {
      "midi": 67,
      "hit": false,
      "t": 52928.51850000008,
      "d": 1714.2839999999997,
      "v": 125
    },
    {
      "midi": 52,
      "hit": false,
      "t": 53142.804000000084,
      "d": 428.57100000000355,
      "v": 125
    },
    {
      "midi": 55,
      "hit": false,
      "t": 53571.37500000009,
      "d": 428.57100000000355,
      "v": 119
    },
    {
      "midi": 59,
      "hit": false,
      "t": 53571.37500000009,
      "d": 428.57100000000355,
      "v": 121
    },
    {
      "midi": 52,
      "hit": false,
      "t": 53999.94600000009,
      "d": 428.57100000000355,
      "v": 123
    },
    {
      "midi": 55,
      "hit": false,
      "t": 54428.517000000094,
      "d": 428.57100000000355,
      "v": 124
    },
    {
      "midi": 59,
      "hit": false,
      "t": 54428.517000000094,
      "d": 428.57100000000355,
      "v": 123
    },
    {
      "midi": 67,
      "hit": false,
      "t": 54857.088000000076,
      "d": 428.57100000000355,
      "v": 76
    },
    {
      "midi": 71,
      "hit": false,
      "t": 54857.088000000076,
      "d": 428.57100000000355,
      "v": 121
    },
    {
      "midi": 45,
      "hit": false,
      "t": 54857.0880000001,
      "d": 428.57100000000355,
      "v": 124
    },
    {
      "midi": 64,
      "hit": false,
      "t": 55285.65900000008,
      "d": 428.57100000000355,
      "v": 112
    },
    {
      "midi": 67,
      "hit": false,
      "t": 55285.65900000008,
      "d": 428.57100000000355,
      "v": 105
    },
    {
      "midi": 49,
      "hit": false,
      "t": 55285.6590000001,
      "d": 857.1419999999998,
      "v": 124
    },
    {
      "midi": 55,
      "hit": false,
      "t": 55285.6590000001,
      "d": 857.1419999999998,
      "v": 109
    },
    {
      "midi": 64,
      "hit": false,
      "t": 55714.23000000008,
      "d": 428.57100000000355,
      "v": 107
    },
    {
      "midi": 67,
      "hit": false,
      "t": 55714.23000000008,
      "d": 428.57100000000355,
      "v": 105
    },
    {
      "midi": 66,
      "hit": false,
      "t": 56142.80100000009,
      "d": 428.57100000000355,
      "v": 124
    },
    {
      "midi": 69,
      "hit": false,
      "t": 56142.80100000009,
      "d": 428.57100000000355,
      "v": 105
    },
    {
      "midi": 49,
      "hit": false,
      "t": 56142.8010000001,
      "d": 428.57100000000355,
      "v": 125
    },
    {
      "midi": 55,
      "hit": false,
      "t": 56142.8010000001,
      "d": 428.57100000000355,
      "v": 118
    },
    {
      "midi": 67,
      "hit": false,
      "t": 56571.37200000009,
      "d": 214.28549999999814,
      "v": 105
    },
    {
      "midi": 71,
      "hit": false,
      "t": 56571.37200000009,
      "d": 214.28549999999814,
      "v": 124
    },
    {
      "midi": 45,
      "hit": false,
      "t": 56571.372000000105,
      "d": 428.57100000000355,
      "v": 124
    },
    {
      "midi": 73,
      "hit": false,
      "t": 56785.65750000009,
      "d": 214.28549999999814,
      "v": 124
    },
    {
      "midi": 67,
      "hit": false,
      "t": 56999.94300000009,
      "d": 428.57100000000355,
      "v": 105
    },
    {
      "midi": 71,
      "hit": false,
      "t": 56999.94300000009,
      "d": 428.57100000000355,
      "v": 124
    },
    {
      "midi": 49,
      "hit": false,
      "t": 56999.94300000011,
      "d": 857.1419999999998,
      "v": 124
    },
    {
      "midi": 57,
      "hit": false,
      "t": 56999.94300000011,
      "d": 857.1419999999998,
      "v": 115
    },
    {
      "midi": 66,
      "hit": false,
      "t": 57428.51400000009,
      "d": 428.57100000000355,
      "v": 117
    },
    {
      "midi": 69,
      "hit": false,
      "t": 57428.51400000009,
      "d": 428.57100000000355,
      "v": 123
    },
    {
      "midi": 64,
      "hit": false,
      "t": 57857.085000000094,
      "d": 428.57100000000355,
      "v": 119
    },
    {
      "midi": 67,
      "hit": false,
      "t": 57857.085000000094,
      "d": 428.57100000000355,
      "v": 122
    },
    {
      "midi": 49,
      "hit": false,
      "t": 57857.08500000011,
      "d": 428.57100000000355,
      "v": 125
    },
    {
      "midi": 57,
      "hit": false,
      "t": 57857.08500000011,
      "d": 428.57100000000355,
      "v": 111
    },
    {
      "midi": 62,
      "hit": false,
      "t": 58285.6560000001,
      "d": 857.1419999999998,
      "v": 119
    },
    {
      "midi": 66,
      "hit": false,
      "t": 58285.6560000001,
      "d": 857.1419999999998,
      "v": 125
    },
    {
      "midi": 50,
      "hit": false,
      "t": 58285.65600000011,
      "d": 428.57100000000355,
      "v": 111
    },
    {
      "midi": 54,
      "hit": false,
      "t": 58714.227000000115,
      "d": 1285.7130000000034,
      "v": 124
    },
    {
      "midi": 57,
      "hit": false,
      "t": 58714.227000000115,
      "d": 1285.7130000000034,
      "v": 107
    },
    {
      "midi": 66,
      "hit": false,
      "t": 59142.7980000001,
      "d": 214.28549999999814,
      "v": 125
    },
    {
      "midi": 69,
      "hit": false,
      "t": 59142.7980000001,
      "d": 214.28549999999814,
      "v": 122
    },
    {
      "midi": 62,
      "hit": false,
      "t": 59357.083500000095,
      "d": 428.57100000000355,
      "v": 107
    },
    {
      "midi": 66,
      "hit": false,
      "t": 59357.083500000095,
      "d": 428.57100000000355,
      "v": 125
    },
    {
      "midi": 61,
      "hit": false,
      "t": 59785.6545000001,
      "d": 1714.2839999999997,
      "v": 124
    },
    {
      "midi": 64,
      "hit": false,
      "t": 59785.6545000001,
      "d": 1714.2839999999997,
      "v": 125
    },
    {
      "midi": 45,
      "hit": false,
      "t": 59999.94000000012,
      "d": 428.57100000000355,
      "v": 102
    },
    {
      "midi": 49,
      "hit": false,
      "t": 60428.51100000012,
      "d": 428.57100000000355,
      "v": 124
    },
    {
      "midi": 55,
      "hit": false,
      "t": 60428.51100000012,
      "d": 428.57100000000355,
      "v": 124
    },
    {
      "midi": 57,
      "hit": false,
      "t": 60428.51100000012,
      "d": 428.57100000000355,
      "v": 115
    },
    {
      "midi": 45,
      "hit": false,
      "t": 60857.082000000126,
      "d": 428.57100000000355,
      "v": 124
    },
    {
      "midi": 49,
      "hit": false,
      "t": 61285.65300000013,
      "d": 428.57100000000355,
      "v": 125
    },
    {
      "midi": 55,
      "hit": false,
      "t": 61285.65300000013,
      "d": 428.57100000000355,
      "v": 122
    },
    {
      "midi": 57,
      "hit": false,
      "t": 61285.65300000013,
      "d": 428.57100000000355,
      "v": 115
    },
    {
      "midi": 66,
      "hit": false,
      "t": 61714.2240000001,
      "d": 428.57100000000355,
      "v": 125
    },
    {
      "midi": 50,
      "hit": false,
      "t": 61714.22400000013,
      "d": 428.57100000000355,
      "v": 124
    },
    {
      "midi": 66,
      "hit": false,
      "t": 62142.7950000001,
      "d": 428.57100000000355,
      "v": 124
    },
    {
      "midi": 54,
      "hit": false,
      "t": 62142.79500000014,
      "d": 428.57100000000355,
      "v": 125
    },
    {
      "midi": 57,
      "hit": false,
      "t": 62142.79500000014,
      "d": 428.57100000000355,
      "v": 104
    },
    {
      "midi": 66,
      "hit": false,
      "t": 62571.366000000104,
      "d": 214.28549999999814,
      "v": 124
    },
    {
      "midi": 50,
      "hit": false,
      "t": 62571.36600000014,
      "d": 428.57100000000355,
      "v": 124
    },
    {
      "midi": 64,
      "hit": false,
      "t": 62785.6515000001,
      "d": 214.28549999999814,
      "v": 124
    },
    {
      "midi": 62,
      "hit": false,
      "t": 62999.9370000001,
      "d": 428.57100000000355,
      "v": 109
    },
    {
      "midi": 54,
      "hit": false,
      "t": 62999.93700000014,
      "d": 428.57100000000355,
      "v": 124
    },
    {
      "midi": 57,
      "hit": false,
      "t": 62999.93700000014,
      "d": 428.57100000000355,
      "v": 109
    },
    {
      "midi": 66,
      "hit": false,
      "t": 63428.5080000001,
      "d": 214.28549999999814,
      "v": 124
    },
    {
      "midi": 47,
      "hit": false,
      "t": 63428.50800000015,
      "d": 428.57100000000355,
      "v": 124
    },
    {
      "midi": 65,
      "hit": false,
      "t": 63642.7935000001,
      "d": 214.28549999999814,
      "v": 124
    },
    {
      "midi": 66,
      "hit": false,
      "t": 63857.0790000001,
      "d": 214.28549999999814,
      "v": 125
    },
    {
      "midi": 50,
      "hit": false,
      "t": 63857.07900000015,
      "d": 428.57100000000355,
      "v": 124
    },
    {
      "midi": 54,
      "hit": false,
      "t": 63857.07900000015,
      "d": 428.57100000000355,
      "v": 124
    },
    {
      "midi": 67,
      "hit": false,
      "t": 64071.3645000001,
      "d": 214.28549999999814,
      "v": 124
    },
    {
      "midi": 64,
      "hit": false,
      "t": 64285.650000000096,
      "d": 214.28549999999814,
      "v": 123
    },
    {
      "midi": 69,
      "hit": false,
      "t": 64285.650000000096,
      "d": 214.28549999999814,
      "v": 123
    },
    {
      "midi": 48,
      "hit": false,
      "t": 64285.650000000154,
      "d": 428.57100000000355,
      "v": 122
    },
    {
      "midi": 57,
      "hit": false,
      "t": 64285.650000000154,
      "d": 428.57100000000355,
      "v": 111
    },
    {
      "midi": 71,
      "hit": false,
      "t": 64499.935500000094,
      "d": 214.28549999999814,
      "v": 124
    },
    {
      "midi": 63,
      "hit": false,
      "t": 64714.22100000009,
      "d": 428.57100000000355,
      "v": 123
    },
    {
      "midi": 72,
      "hit": false,
      "t": 64714.22100000009,
      "d": 428.57100000000355,
      "v": 124
    },
    {
      "midi": 47,
      "hit": false,
      "t": 64714.22100000016,
      "d": 428.57100000000355,
      "v": 125
    },
    {
      "midi": 57,
      "hit": false,
      "t": 64714.22100000016,
      "d": 428.57100000000355,
      "v": 111
    },
    {
      "midi": 67,
      "hit": false,
      "t": 65142.792000000096,
      "d": 428.57100000000355,
      "v": 123
    },
    {
      "midi": 71,
      "hit": false,
      "t": 65142.792000000096,
      "d": 428.57100000000355,
      "v": 124
    },
    {
      "midi": 52,
      "hit": false,
      "t": 65142.79200000016,
      "d": 428.5709999999963,
      "v": 124
    },
    {
      "midi": 64,
      "hit": false,
      "t": 65571.3630000001,
      "d": 428.5709999999963,
      "v": 119
    },
    {
      "midi": 67,
      "hit": false,
      "t": 65571.3630000001,
      "d": 428.5709999999963,
      "v": 122
    },
    {
      "midi": 55,
      "hit": false,
      "t": 65571.36300000016,
      "d": 1285.7130000000034,
      "v": 123
    },
    {
      "midi": 59,
      "hit": false,
      "t": 65571.36300000016,
      "d": 1285.7130000000034,
      "v": 106
    },
    {
      "midi": 64,
      "hit": false,
      "t": 65999.9340000001,
      "d": 428.5709999999963,
      "v": 124
    },
    {
      "midi": 67,
      "hit": false,
      "t": 65999.9340000001,
      "d": 428.5709999999963,
      "v": 124
    },
    {
      "midi": 64,
      "hit": false,
      "t": 66428.50500000009,
      "d": 214.28549999999814,
      "v": 124
    },
    {
      "midi": 67,
      "hit": false,
      "t": 66428.50500000009,
      "d": 214.28549999999814,
      "v": 124
    },
    {
      "midi": 64,
      "hit": false,
      "t": 66642.79050000009,
      "d": 1714.2839999999997,
      "v": 121
    },
    {
      "midi": 67,
      "hit": false,
      "t": 66642.79050000009,
      "d": 1714.2839999999997,
      "v": 124
    },
    {
      "midi": 52,
      "hit": false,
      "t": 66857.07600000016,
      "d": 428.5709999999963,
      "v": 124
    },
    {
      "midi": 55,
      "hit": false,
      "t": 67285.64700000016,
      "d": 428.5709999999963,
      "v": 119
    },
    {
      "midi": 59,
      "hit": false,
      "t": 67285.64700000016,
      "d": 428.5709999999963,
      "v": 123
    },
    {
      "midi": 52,
      "hit": false,
      "t": 67714.21800000015,
      "d": 428.5709999999963,
      "v": 123
    },
    {
      "midi": 55,
      "hit": false,
      "t": 68142.78900000015,
      "d": 428.5709999999963,
      "v": 111
    },
    {
      "midi": 59,
      "hit": false,
      "t": 68142.78900000015,
      "d": 428.5709999999963,
      "v": 121
    },
    {
      "midi": 67,
      "hit": false,
      "t": 68571.36000000009,
      "d": 428.5709999999963,
      "v": 118
    },
    {
      "midi": 71,
      "hit": false,
      "t": 68571.36000000009,
      "d": 428.5709999999963,
      "v": 124
    },
    {
      "midi": 45,
      "hit": false,
      "t": 68571.36000000015,
      "d": 428.5709999999963,
      "v": 119
    },
    {
      "midi": 64,
      "hit": false,
      "t": 68999.93100000008,
      "d": 428.5709999999963,
      "v": 118
    },
    {
      "midi": 67,
      "hit": false,
      "t": 68999.93100000008,
      "d": 428.5709999999963,
      "v": 109
    },
    {
      "midi": 49,
      "hit": false,
      "t": 68999.93100000014,
      "d": 857.1420000000071,
      "v": 124
    },
    {
      "midi": 55,
      "hit": false,
      "t": 68999.93100000014,
      "d": 857.1420000000071,
      "v": 107
    },
    {
      "midi": 64,
      "hit": false,
      "t": 69428.50200000008,
      "d": 428.5709999999963,
      "v": 117
    },
    {
      "midi": 67,
      "hit": false,
      "t": 69428.50200000008,
      "d": 428.5709999999963,
      "v": 111
    },
    {
      "midi": 66,
      "hit": false,
      "t": 69857.07300000008,
      "d": 428.5709999999963,
      "v": 124
    },
    {
      "midi": 69,
      "hit": false,
      "t": 69857.07300000008,
      "d": 428.5709999999963,
      "v": 95
    },
    {
      "midi": 49,
      "hit": false,
      "t": 69857.07300000015,
      "d": 428.5709999999963,
      "v": 125
    },
    {
      "midi": 55,
      "hit": false,
      "t": 69857.07300000015,
      "d": 428.5709999999963,
      "v": 109
    },
    {
      "midi": 67,
      "hit": false,
      "t": 70285.64400000007,
      "d": 214.28549999999814,
      "v": 122
    },
    {
      "midi": 71,
      "hit": false,
      "t": 70285.64400000007,
      "d": 214.28549999999814,
      "v": 118
    },
    {
      "midi": 45,
      "hit": false,
      "t": 70285.64400000015,
      "d": 428.5709999999963,
      "v": 124
    },
    {
      "midi": 73,
      "hit": false,
      "t": 70499.92950000007,
      "d": 214.28549999999814,
      "v": 124
    },
    {
      "midi": 67,
      "hit": false,
      "t": 70714.21500000007,
      "d": 428.5709999999963,
      "v": 107
    },
    {
      "midi": 71,
      "hit": false,
      "t": 70714.21500000007,
      "d": 428.5709999999963,
      "v": 124
    },
    {
      "midi": 49,
      "hit": false,
      "t": 70714.21500000014,
      "d": 857.1420000000071,
      "v": 124
    },
    {
      "midi": 57,
      "hit": false,
      "t": 70714.21500000014,
      "d": 857.1420000000071,
      "v": 115
    },
    {
      "midi": 66,
      "hit": false,
      "t": 71142.78600000007,
      "d": 428.5709999999963,
      "v": 123
    },
    {
      "midi": 69,
      "hit": false,
      "t": 71142.78600000007,
      "d": 428.5709999999963,
      "v": 124
    },
    {
      "midi": 64,
      "hit": false,
      "t": 71571.35700000006,
      "d": 428.5709999999963,
      "v": 119
    },
    {
      "midi": 67,
      "hit": false,
      "t": 71571.35700000006,
      "d": 428.5709999999963,
      "v": 124
    },
    {
      "midi": 49,
      "hit": false,
      "t": 71571.35700000015,
      "d": 428.5709999999963,
      "v": 124
    },
    {
      "midi": 57,
      "hit": false,
      "t": 71571.35700000015,
      "d": 428.5709999999963,
      "v": 105
    },
    {
      "midi": 62,
      "hit": false,
      "t": 71999.92800000006,
      "d": 857.1420000000071,
      "v": 119
    },
    {
      "midi": 66,
      "hit": false,
      "t": 71999.92800000006,
      "d": 857.1420000000071,
      "v": 124
    },
    {
      "midi": 50,
      "hit": false,
      "t": 71999.92800000015,
      "d": 428.5709999999963,
      "v": 119
    },
    {
      "midi": 54,
      "hit": false,
      "t": 72428.49900000014,
      "d": 1285.7130000000034,
      "v": 124
    },
    {
      "midi": 57,
      "hit": false,
      "t": 72428.49900000014,
      "d": 1285.7130000000034,
      "v": 115
    },
    {
      "midi": 66,
      "hit": false,
      "t": 72857.07000000007,
      "d": 214.28549999999814,
      "v": 124
    },
    {
      "midi": 69,
      "hit": false,
      "t": 72857.07000000007,
      "d": 214.28549999999814,
      "v": 97
    },
    {
      "midi": 62,
      "hit": false,
      "t": 73071.35550000006,
      "d": 428.5709999999963,
      "v": 111
    },
    {
      "midi": 66,
      "hit": false,
      "t": 73071.35550000006,
      "d": 428.5709999999963,
      "v": 125
    },
    {
      "midi": 61,
      "hit": false,
      "t": 73499.92650000006,
      "d": 1714.2839999999997,
      "v": 124
    },
    {
      "midi": 64,
      "hit": false,
      "t": 73499.92650000006,
      "d": 1714.2839999999997,
      "v": 125
    },
    {
      "midi": 45,
      "hit": false,
      "t": 73714.21200000015,
      "d": 428.5709999999963,
      "v": 118
    },
    {
      "midi": 49,
      "hit": false,
      "t": 74142.78300000014,
      "d": 428.5709999999963,
      "v": 124
    },
    {
      "midi": 55,
      "hit": false,
      "t": 74142.78300000014,
      "d": 428.5709999999963,
      "v": 109
    },
    {
      "midi": 57,
      "hit": false,
      "t": 74142.78300000014,
      "d": 428.5709999999963,
      "v": 90
    },
    {
      "midi": 45,
      "hit": false,
      "t": 74571.35400000014,
      "d": 428.5709999999963,
      "v": 104
    },
    {
      "midi": 49,
      "hit": false,
      "t": 74999.92500000013,
      "d": 428.5709999999963,
      "v": 124
    },
    {
      "midi": 55,
      "hit": false,
      "t": 74999.92500000013,
      "d": 428.5709999999963,
      "v": 115
    },
    {
      "midi": 57,
      "hit": false,
      "t": 74999.92500000013,
      "d": 428.5709999999963,
      "v": 99
    },
    {
      "midi": 59,
      "hit": false,
      "t": 75214.21050000006,
      "d": 214.28549999999814,
      "v": 124
    },
    {
      "midi": 64,
      "hit": false,
      "t": 75428.49600000006,
      "d": 428.5709999999963,
      "v": 125
    },
    {
      "midi": 52,
      "hit": false,
      "t": 75428.49600000013,
      "d": 2571.4260000000068,
      "v": 124
    },
    {
      "midi": 56,
      "hit": false,
      "t": 75428.49600000013,
      "d": 2571.4260000000068,
      "v": 124
    },
    {
      "midi": 62,
      "hit": false,
      "t": 75428.49600000013,
      "d": 2571.4260000000068,
      "v": 107
    },
    {
      "midi": 64,
      "hit": false,
      "t": 75857.06700000005,
      "d": 428.5709999999963,
      "v": 124
    },
    {
      "midi": 68,
      "hit": false,
      "t": 76285.63800000005,
      "d": 214.28549999999814,
      "v": 124
    },
    {
      "midi": 69,
      "hit": false,
      "t": 76499.92350000005,
      "d": 642.8564999999944,
      "v": 88
    },
    {
      "midi": 74,
      "hit": false,
      "t": 77142.78000000004,
      "d": 214.28549999999814,
      "v": 122
    },
    {
      "midi": 73,
      "hit": false,
      "t": 77357.06550000004,
      "d": 214.28549999999814,
      "v": 124
    },
    {
      "midi": 71,
      "hit": false,
      "t": 77571.35100000004,
      "d": 428.5709999999963,
      "v": 125
    },
    {
      "midi": 64,
      "hit": false,
      "t": 77999.92200000004,
      "d": 642.8564999999944,
      "v": 124
    },
    {
      "midi": 52,
      "hit": false,
      "t": 77999.92200000014,
      "d": 428.5709999999963,
      "v": 124
    },
    {
      "midi": 56,
      "hit": false,
      "t": 77999.92200000014,
      "d": 428.5709999999963,
      "v": 123
    },
    {
      "midi": 47,
      "hit": false,
      "t": 78428.49300000013,
      "d": 428.5709999999963,
      "v": 125
    },
    {
      "midi": 64,
      "hit": false,
      "t": 78642.77850000003,
      "d": 214.28549999999814,
      "v": 124
    },
    {
      "midi": 69,
      "hit": false,
      "t": 78857.06400000003,
      "d": 428.5709999999963,
      "v": 123
    },
    {
      "midi": 45,
      "hit": false,
      "t": 78857.06400000013,
      "d": 1714.2839999999997,
      "v": 124
    },
    {
      "midi": 55,
      "hit": false,
      "t": 78857.06400000013,
      "d": 1714.2839999999997,
      "v": 122
    },
    {
      "midi": 69,
      "hit": false,
      "t": 79285.63500000002,
      "d": 428.5709999999963,
      "v": 122
    },
    {
      "midi": 71,
      "hit": false,
      "t": 79714.20600000002,
      "d": 428.5709999999963,
      "v": 124
    },
    {
      "midi": 72,
      "hit": false,
      "t": 80142.77700000002,
      "d": 214.28549999999814,
      "v": 115
    },
    {
      "midi": 73,
      "hit": false,
      "t": 80357.06250000001,
      "d": 1714.2839999999997,
      "v": 126
    },
    {
      "midi": 57,
      "hit": false,
      "t": 80571.34800000013,
      "d": 321.4282499999972,
      "v": 124
    },
    {
      "midi": 57,
      "hit": false,
      "t": 80892.77625000013,
      "d": 107.14274999999907,
      "v": 111
    },
    {
      "midi": 55,
      "hit": false,
      "t": 80999.91900000013,
      "d": 428.5709999999963,
      "v": 124
    },
    {
      "midi": 54,
      "hit": false,
      "t": 81428.49000000012,
      "d": 321.4282499999972,
      "v": 126
    },
    {
      "midi": 54,
      "hit": false,
      "t": 81749.91825000012,
      "d": 107.14274999999907,
      "v": 124
    },
    {
      "midi": 52,
      "hit": false,
      "t": 81857.06100000012,
      "d": 428.5709999999963,
      "v": 124
    },
    {
      "midi": 66,
      "hit": false,
      "t": 82285.63200000001,
      "d": 428.5709999999963,
      "v": 117
    },
    {
      "midi": 50,
      "hit": false,
      "t": 82285.63200000011,
      "d": 428.5709999999963,
      "v": 124
    },
    {
      "midi": 54,
      "hit": false,
      "t": 82285.63200000011,
      "d": 428.5709999999963,
      "v": 126
    },
    {
      "midi": 57,
      "hit": false,
      "t": 82285.63200000011,
      "d": 428.5709999999963,
      "v": 107
    },
    {
      "midi": 69,
      "hit": false,
      "t": 82714.20300000001,
      "d": 428.5709999999963,
      "v": 118
    },
    {
      "midi": 50,
      "hit": false,
      "t": 82714.20300000011,
      "d": 428.5709999999963,
      "v": 124
    },
    {
      "midi": 54,
      "hit": false,
      "t": 82714.20300000011,
      "d": 428.5709999999963,
      "v": 125
    },
    {
      "midi": 57,
      "hit": false,
      "t": 82714.20300000011,
      "d": 428.5709999999963,
      "v": 118
    },
    {
      "midi": 74,
      "hit": false,
      "t": 83142.774,
      "d": 428.5709999999963,
      "v": 115
    },
    {
      "midi": 50,
      "hit": false,
      "t": 83142.7740000001,
      "d": 857.1420000000071,
      "v": 124
    },
    {
      "midi": 54,
      "hit": false,
      "t": 83142.7740000001,
      "d": 857.1420000000071,
      "v": 125
    },
    {
      "midi": 57,
      "hit": false,
      "t": 83142.7740000001,
      "d": 857.1420000000071,
      "v": 111
    },
    {
      "midi": 73,
      "hit": false,
      "t": 83571.345,
      "d": 428.5709999999963,
      "v": 124
    },
    {
      "midi": 71,
      "hit": false,
      "t": 83999.916,
      "d": 428.5709999999963,
      "v": 124
    },
    {
      "midi": 50,
      "hit": false,
      "t": 83999.91600000011,
      "d": 1714.2839999999997,
      "v": 124
    },
    {
      "midi": 54,
      "hit": false,
      "t": 83999.91600000011,
      "d": 1714.2839999999997,
      "v": 125
    },
    {
      "midi": 57,
      "hit": false,
      "t": 83999.91600000011,
      "d": 1714.2839999999997,
      "v": 111
    },
    {
      "midi": 69,
      "hit": false,
      "t": 84428.487,
      "d": 214.28549999999814,
      "v": 119
    },
    {
      "midi": 66,
      "hit": false,
      "t": 84642.77249999999,
      "d": 428.5709999999963,
      "v": 124
    },
    {
      "midi": 64,
      "hit": false,
      "t": 85071.34349999999,
      "d": 214.28549999999814,
      "v": 124
    },
    {
      "midi": 62,
      "hit": false,
      "t": 85285.62899999999,
      "d": 428.5709999999963,
      "v": 115
    },
    {
      "midi": 64,
      "hit": false,
      "t": 85714.19999999998,
      "d": 642.8564999999944,
      "v": 124
    },
    {
      "midi": 52,
      "hit": false,
      "t": 85714.20000000011,
      "d": 428.5709999999963,
      "v": 125
    },
    {
      "midi": 56,
      "hit": false,
      "t": 85714.20000000011,
      "d": 428.5709999999963,
      "v": 124
    },
    {
      "midi": 62,
      "hit": false,
      "t": 85714.20000000011,
      "d": 428.5709999999963,
      "v": 104
    },
    {
      "midi": 52,
      "hit": false,
      "t": 86142.77100000011,
      "d": 1285.7130000000034,
      "v": 124
    },
    {
      "midi": 56,
      "hit": false,
      "t": 86142.77100000011,
      "d": 1285.7130000000034,
      "v": 125
    },
    {
      "midi": 62,
      "hit": false,
      "t": 86142.77100000011,
      "d": 1285.7130000000034,
      "v": 118
    },
    {
      "midi": 64,
      "hit": false,
      "t": 86357.05649999998,
      "d": 214.28549999999814,
      "v": 124
    },
    {
      "midi": 68,
      "hit": false,
      "t": 86571.34199999998,
      "d": 214.28549999999814,
      "v": 124
    },
    {
      "midi": 71,
      "hit": false,
      "t": 86785.62749999997,
      "d": 428.5709999999963,
      "v": 124
    },
    {
      "midi": 74,
      "hit": false,
      "t": 87214.19849999997,
      "d": 1714.2839999999997,
      "v": 124
    },
    {
      "midi": 52,
      "hit": false,
      "t": 87428.48400000011,
      "d": 428.5709999999963,
      "v": 125
    },
    {
      "midi": 56,
      "hit": false,
      "t": 87857.05500000011,
      "d": 428.5709999999963,
      "v": 124
    },
    {
      "midi": 62,
      "hit": false,
      "t": 87857.05500000011,
      "d": 428.5709999999963,
      "v": 109
    },
    {
      "midi": 52,
      "hit": false,
      "t": 88285.6260000001,
      "d": 428.5709999999963,
      "v": 124
    },
    {
      "midi": 56,
      "hit": false,
      "t": 88714.1970000001,
      "d": 428.5709999999963,
      "v": 124
    },
    {
      "midi": 62,
      "hit": false,
      "t": 88714.1970000001,
      "d": 428.5709999999963,
      "v": 109
    },
    {
      "midi": 68,
      "hit": false,
      "t": 89142.76799999997,
      "d": 428.5709999999963,
      "v": 124
    },
    {
      "midi": 55,
      "hit": false,
      "t": 89142.7680000001,
      "d": 428.5709999999963,
      "v": 123
    },
    {
      "midi": 57,
      "hit": false,
      "t": 89142.7680000001,
      "d": 428.5709999999963,
      "v": 124
    },
    {
      "midi": 61,
      "hit": false,
      "t": 89142.7680000001,
      "d": 428.5709999999963,
      "v": 123
    },
    {
      "midi": 69,
      "hit": false,
      "t": 89571.33899999996,
      "d": 428.5709999999963,
      "v": 124
    },
    {
      "midi": 55,
      "hit": false,
      "t": 89571.3390000001,
      "d": 857.1420000000071,
      "v": 127
    },
    {
      "midi": 57,
      "hit": false,
      "t": 89571.3390000001,
      "d": 857.1420000000071,
      "v": 126
    },
    {
      "midi": 61,
      "hit": false,
      "t": 89571.3390000001,
      "d": 857.1420000000071,
      "v": 126
    },
    {
      "midi": 76,
      "hit": false,
      "t": 89999.90999999996,
      "d": 428.5709999999963,
      "v": 123
    },
    {
      "midi": 74,
      "hit": false,
      "t": 90428.48099999996,
      "d": 428.5709999999963,
      "v": 118
    },
    {
      "midi": 55,
      "hit": false,
      "t": 90428.4810000001,
      "d": 428.5709999999963,
      "v": 125
    },
    {
      "midi": 59,
      "hit": false,
      "t": 90428.4810000001,
      "d": 428.5709999999963,
      "v": 124
    },
    {
      "midi": 73,
      "hit": false,
      "t": 90857.05199999995,
      "d": 428.5709999999963,
      "v": 124
    },
    {
      "midi": 55,
      "hit": false,
      "t": 90857.0520000001,
      "d": 1714.2839999999997,
      "v": 126
    },
    {
      "midi": 57,
      "hit": false,
      "t": 90857.0520000001,
      "d": 1714.2839999999997,
      "v": 126
    },
    {
      "midi": 61,
      "hit": false,
      "t": 90857.0520000001,
      "d": 1714.2839999999997,
      "v": 126
    },
    {
      "midi": 71,
      "hit": false,
      "t": 91285.62299999995,
      "d": 214.28549999999814,
      "v": 124
    },
    {
      "midi": 69,
      "hit": false,
      "t": 91499.90849999995,
      "d": 428.5709999999963,
      "v": 118
    },
    {
      "midi": 67,
      "hit": false,
      "t": 91928.47949999994,
      "d": 214.28549999999814,
      "v": 124
    },
    {
      "midi": 66,
      "hit": false,
      "t": 92142.76499999994,
      "d": 428.5709999999963,
      "v": 124
    },
    {
      "midi": 64,
      "hit": false,
      "t": 92571.33599999994,
      "d": 428.5709999999963,
      "v": 123
    },
    {
      "midi": 52,
      "hit": false,
      "t": 92571.3360000001,
      "d": 857.1420000000071,
      "v": 124
    },
    {
      "midi": 55,
      "hit": false,
      "t": 92571.3360000001,
      "d": 857.1420000000071,
      "v": 124
    },
    {
      "midi": 59,
      "hit": false,
      "t": 92571.3360000001,
      "d": 857.1420000000071,
      "v": 124
    },
    {
      "midi": 66,
      "hit": false,
      "t": 92999.90699999993,
      "d": 428.5709999999963,
      "v": 124
    },
    {
      "midi": 64,
      "hit": false,
      "t": 93428.47799999993,
      "d": 214.28549999999814,
      "v": 123
    },
    {
      "midi": 52,
      "hit": false,
      "t": 93428.4780000001,
      "d": 857.1420000000071,
      "v": 124
    },
    {
      "midi": 55,
      "hit": false,
      "t": 93428.4780000001,
      "d": 857.1420000000071,
      "v": 124
    },
    {
      "midi": 59,
      "hit": false,
      "t": 93428.4780000001,
      "d": 857.1420000000071,
      "v": 124
    },
    {
      "midi": 66,
      "hit": false,
      "t": 93642.76349999993,
      "d": 428.5709999999963,
      "v": 124
    },
    {
      "midi": 61,
      "hit": false,
      "t": 94071.33449999992,
      "d": 1714.2839999999997,
      "v": 124
    },
    {
      "midi": 69,
      "hit": false,
      "t": 94071.33449999992,
      "d": 1714.2839999999997,
      "v": 124
    },
    {
      "midi": 57,
      "hit": false,
      "t": 94285.62000000011,
      "d": 428.5709999999963,
      "v": 124
    },
    {
      "midi": 55,
      "hit": false,
      "t": 94714.19100000011,
      "d": 428.5709999999963,
      "v": 124
    },
    {
      "midi": 54,
      "hit": false,
      "t": 95142.7620000001,
      "d": 428.5709999999963,
      "v": 124
    },
    {
      "midi": 52,
      "hit": false,
      "t": 95571.3330000001,
      "d": 428.5709999999963,
      "v": 124
    },
    {
      "midi": 66,
      "hit": false,
      "t": 95999.90399999992,
      "d": 428.5709999999963,
      "v": 124
    },
    {
      "midi": 50,
      "hit": false,
      "t": 95999.9040000001,
      "d": 428.5709999999963,
      "v": 124
    },
    {
      "midi": 66,
      "hit": false,
      "t": 96428.47499999992,
      "d": 428.5709999999963,
      "v": 119
    },
    {
      "midi": 54,
      "hit": false,
      "t": 96428.4750000001,
      "d": 428.5709999999963,
      "v": 124
    },
    {
      "midi": 57,
      "hit": false,
      "t": 96428.4750000001,
      "d": 428.5709999999963,
      "v": 104
    },
    {
      "midi": 66,
      "hit": false,
      "t": 96857.04599999991,
      "d": 214.28549999999814,
      "v": 124
    },
    {
      "midi": 50,
      "hit": false,
      "t": 96857.04600000009,
      "d": 428.5709999999963,
      "v": 124
    },
    {
      "midi": 64,
      "hit": false,
      "t": 97071.33149999991,
      "d": 214.28549999999814,
      "v": 124
    },
    {
      "midi": 62,
      "hit": false,
      "t": 97285.61699999991,
      "d": 428.5709999999963,
      "v": 119
    },
    {
      "midi": 54,
      "hit": false,
      "t": 97285.61700000009,
      "d": 428.5709999999963,
      "v": 124
    },
    {
      "midi": 57,
      "hit": false,
      "t": 97285.61700000009,
      "d": 428.5709999999963,
      "v": 105
    },
    {
      "midi": 66,
      "hit": false,
      "t": 97714.18799999991,
      "d": 214.28549999999814,
      "v": 124
    },
    {
      "midi": 47,
      "hit": false,
      "t": 97714.18800000008,
      "d": 428.5709999999963,
      "v": 108
    },
    {
      "midi": 65,
      "hit": false,
      "t": 97928.4734999999,
      "d": 214.28549999999814,
      "v": 124
    },
    {
      "midi": 66,
      "hit": false,
      "t": 98142.7589999999,
      "d": 214.28549999999814,
      "v": 124
    },
    {
      "midi": 50,
      "hit": false,
      "t": 98142.75900000008,
      "d": 428.5709999999963,
      "v": 124
    },
    {
      "midi": 54,
      "hit": false,
      "t": 98142.75900000008,
      "d": 428.5709999999963,
      "v": 115
    },
    {
      "midi": 67,
      "hit": false,
      "t": 98357.0444999999,
      "d": 214.28549999999814,
      "v": 124
    },
    {
      "midi": 64,
      "hit": false,
      "t": 98571.3299999999,
      "d": 214.28549999999814,
      "v": 112
    },
    {
      "midi": 69,
      "hit": false,
      "t": 98571.3299999999,
      "d": 214.28549999999814,
      "v": 111
    },
    {
      "midi": 48,
      "hit": false,
      "t": 98571.33000000007,
      "d": 428.5709999999963,
      "v": 122
    },
    {
      "midi": 57,
      "hit": false,
      "t": 98571.33000000007,
      "d": 428.5709999999963,
      "v": 118
    },
    {
      "midi": 71,
      "hit": false,
      "t": 98785.6154999999,
      "d": 214.28549999999814,
      "v": 125
    },
    {
      "midi": 63,
      "hit": false,
      "t": 98999.9009999999,
      "d": 428.5709999999963,
      "v": 95
    },
    {
      "midi": 72,
      "hit": false,
      "t": 98999.9009999999,
      "d": 428.5709999999963,
      "v": 92
    },
    {
      "midi": 47,
      "hit": false,
      "t": 98999.90100000007,
      "d": 428.5709999999963,
      "v": 125
    },
    {
      "midi": 57,
      "hit": false,
      "t": 98999.90100000007,
      "d": 428.5709999999963,
      "v": 118
    },
    {
      "midi": 67,
      "hit": false,
      "t": 99428.47199999989,
      "d": 428.5709999999963,
      "v": 124
    },
    {
      "midi": 71,
      "hit": false,
      "t": 99428.47199999989,
      "d": 428.5709999999963,
      "v": 124
    },
    {
      "midi": 52,
      "hit": false,
      "t": 99428.47200000007,
      "d": 428.5709999999963,
      "v": 125
    },
    {
      "midi": 64,
      "hit": false,
      "t": 99857.04299999989,
      "d": 428.5709999999963,
      "v": 117
    },
    {
      "midi": 67,
      "hit": false,
      "t": 99857.04299999989,
      "d": 428.5709999999963,
      "v": 111
    },
    {
      "midi": 55,
      "hit": false,
      "t": 99857.04300000006,
      "d": 1285.7130000000034,
      "v": 123
    },
    {
      "midi": 59,
      "hit": false,
      "t": 99857.04300000006,
      "d": 1285.7130000000034,
      "v": 104
    },
    {
      "midi": 64,
      "hit": false,
      "t": 100285.61399999988,
      "d": 428.5709999999963,
      "v": 124
    },
    {
      "midi": 67,
      "hit": false,
      "t": 100285.61399999988,
      "d": 428.5709999999963,
      "v": 125
    },
    {
      "midi": 64,
      "hit": false,
      "t": 100714.18499999988,
      "d": 214.28549999999814,
      "v": 124
    },
    {
      "midi": 67,
      "hit": false,
      "t": 100714.18499999988,
      "d": 214.28549999999814,
      "v": 125
    },
    {
      "midi": 64,
      "hit": false,
      "t": 100928.47049999988,
      "d": 1714.2839999999997,
      "v": 125
    },
    {
      "midi": 67,
      "hit": false,
      "t": 100928.47049999988,
      "d": 1714.2839999999997,
      "v": 125
    },
    {
      "midi": 52,
      "hit": false,
      "t": 101142.75600000007,
      "d": 428.5709999999963,
      "v": 125
    },
    {
      "midi": 55,
      "hit": false,
      "t": 101571.32700000006,
      "d": 428.5709999999963,
      "v": 119
    },
    {
      "midi": 59,
      "hit": false,
      "t": 101571.32700000006,
      "d": 428.5709999999963,
      "v": 121
    },
    {
      "midi": 52,
      "hit": false,
      "t": 101999.89800000006,
      "d": 428.5709999999963,
      "v": 123
    },
    {
      "midi": 55,
      "hit": false,
      "t": 102428.46900000006,
      "d": 428.5709999999963,
      "v": 124
    },
    {
      "midi": 59,
      "hit": false,
      "t": 102428.46900000006,
      "d": 428.5709999999963,
      "v": 123
    },
    {
      "midi": 67,
      "hit": false,
      "t": 102857.03999999988,
      "d": 428.5709999999963,
      "v": 76
    },
    {
      "midi": 71,
      "hit": false,
      "t": 102857.03999999988,
      "d": 428.5709999999963,
      "v": 121
    },
    {
      "midi": 45,
      "hit": false,
      "t": 102857.04000000005,
      "d": 428.5709999999963,
      "v": 124
    },
    {
      "midi": 64,
      "hit": false,
      "t": 103285.61099999987,
      "d": 428.5709999999963,
      "v": 112
    },
    {
      "midi": 67,
      "hit": false,
      "t": 103285.61099999987,
      "d": 428.5709999999963,
      "v": 105
    },
    {
      "midi": 49,
      "hit": false,
      "t": 103285.61100000005,
      "d": 857.1420000000071,
      "v": 124
    },
    {
      "midi": 55,
      "hit": false,
      "t": 103285.61100000005,
      "d": 857.1420000000071,
      "v": 109
    },
    {
      "midi": 64,
      "hit": false,
      "t": 103714.18199999987,
      "d": 428.5709999999963,
      "v": 107
    },
    {
      "midi": 67,
      "hit": false,
      "t": 103714.18199999987,
      "d": 428.5709999999963,
      "v": 105
    },
    {
      "midi": 66,
      "hit": false,
      "t": 104142.75299999987,
      "d": 428.5709999999963,
      "v": 124
    },
    {
      "midi": 69,
      "hit": false,
      "t": 104142.75299999987,
      "d": 428.5709999999963,
      "v": 105
    },
    {
      "midi": 49,
      "hit": false,
      "t": 104142.75300000006,
      "d": 428.5709999999963,
      "v": 125
    },
    {
      "midi": 55,
      "hit": false,
      "t": 104142.75300000006,
      "d": 428.5709999999963,
      "v": 118
    },
    {
      "midi": 67,
      "hit": false,
      "t": 104571.32399999986,
      "d": 214.28549999999814,
      "v": 105
    },
    {
      "midi": 71,
      "hit": false,
      "t": 104571.32399999986,
      "d": 214.28549999999814,
      "v": 124
    },
    {
      "midi": 45,
      "hit": false,
      "t": 104571.32400000005,
      "d": 428.5709999999963,
      "v": 124
    },
    {
      "midi": 73,
      "hit": false,
      "t": 104785.60949999986,
      "d": 214.28549999999814,
      "v": 124
    },
    {
      "midi": 67,
      "hit": false,
      "t": 104999.89499999986,
      "d": 428.5709999999963,
      "v": 105
    },
    {
      "midi": 71,
      "hit": false,
      "t": 104999.89499999986,
      "d": 428.5709999999963,
      "v": 124
    },
    {
      "midi": 49,
      "hit": false,
      "t": 104999.89500000005,
      "d": 857.1420000000071,
      "v": 124
    },
    {
      "midi": 57,
      "hit": false,
      "t": 104999.89500000005,
      "d": 857.1420000000071,
      "v": 115
    },
    {
      "midi": 66,
      "hit": false,
      "t": 105428.46599999985,
      "d": 428.5709999999963,
      "v": 117
    },
    {
      "midi": 69,
      "hit": false,
      "t": 105428.46599999985,
      "d": 428.5709999999963,
      "v": 123
    },
    {
      "midi": 64,
      "hit": false,
      "t": 105857.03699999985,
      "d": 428.5709999999963,
      "v": 119
    },
    {
      "midi": 67,
      "hit": false,
      "t": 105857.03699999985,
      "d": 428.5709999999963,
      "v": 122
    },
    {
      "midi": 49,
      "hit": false,
      "t": 105857.03700000005,
      "d": 428.5709999999963,
      "v": 125
    },
    {
      "midi": 57,
      "hit": false,
      "t": 105857.03700000005,
      "d": 428.5709999999963,
      "v": 111
    },
    {
      "midi": 62,
      "hit": false,
      "t": 106285.60799999985,
      "d": 857.1420000000071,
      "v": 119
    },
    {
      "midi": 66,
      "hit": false,
      "t": 106285.60799999985,
      "d": 857.1420000000071,
      "v": 125
    },
    {
      "midi": 50,
      "hit": false,
      "t": 106285.60800000005,
      "d": 428.5709999999963,
      "v": 111
    },
    {
      "midi": 54,
      "hit": false,
      "t": 106714.17900000005,
      "d": 1285.7130000000034,
      "v": 124
    },
    {
      "midi": 57,
      "hit": false,
      "t": 106714.17900000005,
      "d": 1285.7130000000034,
      "v": 107
    },
    {
      "midi": 66,
      "hit": false,
      "t": 107142.74999999985,
      "d": 214.28549999999814,
      "v": 125
    },
    {
      "midi": 69,
      "hit": false,
      "t": 107142.74999999985,
      "d": 214.28549999999814,
      "v": 122
    },
    {
      "midi": 62,
      "hit": false,
      "t": 107357.03549999985,
      "d": 428.5709999999963,
      "v": 107
    },
    {
      "midi": 66,
      "hit": false,
      "t": 107357.03549999985,
      "d": 428.5709999999963,
      "v": 125
    },
    {
      "midi": 61,
      "hit": false,
      "t": 107785.60649999985,
      "d": 1714.2839999999997,
      "v": 124
    },
    {
      "midi": 64,
      "hit": false,
      "t": 107785.60649999985,
      "d": 1714.2839999999997,
      "v": 125
    },
    {
      "midi": 45,
      "hit": false,
      "t": 107999.89200000005,
      "d": 428.5709999999963,
      "v": 102
    },
    {
      "midi": 49,
      "hit": false,
      "t": 108428.46300000005,
      "d": 428.5709999999963,
      "v": 124
    },
    {
      "midi": 55,
      "hit": false,
      "t": 108428.46300000005,
      "d": 428.5709999999963,
      "v": 124
    },
    {
      "midi": 57,
      "hit": false,
      "t": 108428.46300000005,
      "d": 428.5709999999963,
      "v": 115
    },
    {
      "midi": 45,
      "hit": false,
      "t": 108857.03400000004,
      "d": 428.5709999999963,
      "v": 124
    },
    {
      "midi": 49,
      "hit": false,
      "t": 109285.60500000004,
      "d": 428.5709999999963,
      "v": 125
    },
    {
      "midi": 55,
      "hit": false,
      "t": 109285.60500000004,
      "d": 428.5709999999963,
      "v": 122
    },
    {
      "midi": 57,
      "hit": false,
      "t": 109285.60500000004,
      "d": 428.5709999999963,
      "v": 115
    },
    {
      "midi": 66,
      "hit": false,
      "t": 109714.17599999985,
      "d": 428.5709999999963,
      "v": 125
    },
    {
      "midi": 50,
      "hit": false,
      "t": 109714.17600000004,
      "d": 428.5709999999963,
      "v": 124
    },
    {
      "midi": 66,
      "hit": false,
      "t": 110142.74699999984,
      "d": 428.5709999999963,
      "v": 124
    },
    {
      "midi": 54,
      "hit": false,
      "t": 110142.74700000003,
      "d": 428.5709999999963,
      "v": 125
    },
    {
      "midi": 57,
      "hit": false,
      "t": 110142.74700000003,
      "d": 428.5709999999963,
      "v": 104
    },
    {
      "midi": 66,
      "hit": false,
      "t": 110571.31799999984,
      "d": 214.28549999999814,
      "v": 124
    },
    {
      "midi": 50,
      "hit": false,
      "t": 110571.31800000003,
      "d": 428.5709999999963,
      "v": 124
    },
    {
      "midi": 64,
      "hit": false,
      "t": 110785.60349999984,
      "d": 214.28549999999814,
      "v": 124
    },
    {
      "midi": 62,
      "hit": false,
      "t": 110999.88899999984,
      "d": 428.5709999999963,
      "v": 109
    },
    {
      "midi": 54,
      "hit": false,
      "t": 110999.88900000002,
      "d": 428.5709999999963,
      "v": 124
    },
    {
      "midi": 57,
      "hit": false,
      "t": 110999.88900000002,
      "d": 428.5709999999963,
      "v": 109
    },
    {
      "midi": 66,
      "hit": false,
      "t": 111428.45999999983,
      "d": 214.28549999999814,
      "v": 124
    },
    {
      "midi": 47,
      "hit": false,
      "t": 111428.46000000002,
      "d": 428.5709999999963,
      "v": 124
    },
    {
      "midi": 65,
      "hit": false,
      "t": 111642.74549999983,
      "d": 214.28549999999814,
      "v": 124
    },
    {
      "midi": 66,
      "hit": false,
      "t": 111857.03099999983,
      "d": 214.28549999999814,
      "v": 125
    },
    {
      "midi": 50,
      "hit": false,
      "t": 111857.03100000002,
      "d": 428.5709999999963,
      "v": 124
    },
    {
      "midi": 54,
      "hit": false,
      "t": 111857.03100000002,
      "d": 428.5709999999963,
      "v": 124
    },
    {
      "midi": 67,
      "hit": false,
      "t": 112071.31649999983,
      "d": 214.28549999999814,
      "v": 124
    },
    {
      "midi": 64,
      "hit": false,
      "t": 112285.60199999982,
      "d": 214.28549999999814,
      "v": 123
    },
    {
      "midi": 69,
      "hit": false,
      "t": 112285.60199999982,
      "d": 214.28549999999814,
      "v": 123
    },
    {
      "midi": 48,
      "hit": false,
      "t": 112285.60200000001,
      "d": 428.5709999999963,
      "v": 122
    },
    {
      "midi": 57,
      "hit": false,
      "t": 112285.60200000001,
      "d": 428.5709999999963,
      "v": 111
    },
    {
      "midi": 71,
      "hit": false,
      "t": 112499.88749999982,
      "d": 214.28549999999814,
      "v": 124
    },
    {
      "midi": 63,
      "hit": false,
      "t": 112714.17299999982,
      "d": 428.5709999999963,
      "v": 123
    },
    {
      "midi": 72,
      "hit": false,
      "t": 112714.17299999982,
      "d": 428.5709999999963,
      "v": 124
    },
    {
      "midi": 47,
      "hit": false,
      "t": 112714.17300000001,
      "d": 428.5709999999963,
      "v": 125
    },
    {
      "midi": 57,
      "hit": false,
      "t": 112714.17300000001,
      "d": 428.5709999999963,
      "v": 111
    },
    {
      "midi": 67,
      "hit": false,
      "t": 113142.74399999982,
      "d": 428.5709999999963,
      "v": 123
    },
    {
      "midi": 71,
      "hit": false,
      "t": 113142.74399999982,
      "d": 428.5709999999963,
      "v": 124
    },
    {
      "midi": 52,
      "hit": false,
      "t": 113142.744,
      "d": 428.5709999999963,
      "v": 124
    },
    {
      "midi": 64,
      "hit": false,
      "t": 113571.31499999981,
      "d": 428.5709999999963,
      "v": 119
    },
    {
      "midi": 67,
      "hit": false,
      "t": 113571.31499999981,
      "d": 428.5709999999963,
      "v": 122
    },
    {
      "midi": 55,
      "hit": false,
      "t": 113571.315,
      "d": 1285.7130000000034,
      "v": 123
    },
    {
      "midi": 59,
      "hit": false,
      "t": 113571.315,
      "d": 1285.7130000000034,
      "v": 106
    },
    {
      "midi": 64,
      "hit": false,
      "t": 113999.88599999981,
      "d": 428.5709999999963,
      "v": 124
    },
    {
      "midi": 67,
      "hit": false,
      "t": 113999.88599999981,
      "d": 428.5709999999963,
      "v": 124
    },
    {
      "midi": 64,
      "hit": false,
      "t": 114428.4569999998,
      "d": 214.28549999999814,
      "v": 124
    },
    {
      "midi": 67,
      "hit": false,
      "t": 114428.4569999998,
      "d": 214.28549999999814,
      "v": 124
    },
    {
      "midi": 64,
      "hit": false,
      "t": 114642.7424999998,
      "d": 1714.2839999999997,
      "v": 121
    },
    {
      "midi": 67,
      "hit": false,
      "t": 114642.7424999998,
      "d": 1714.2839999999997,
      "v": 124
    },
    {
      "midi": 52,
      "hit": false,
      "t": 114857.028,
      "d": 428.5709999999963,
      "v": 124
    },
    {
      "midi": 55,
      "hit": false,
      "t": 115285.599,
      "d": 428.5709999999963,
      "v": 119
    },
    {
      "midi": 59,
      "hit": false,
      "t": 115285.599,
      "d": 428.5709999999963,
      "v": 123
    },
    {
      "midi": 52,
      "hit": false,
      "t": 115714.17,
      "d": 428.5709999999963,
      "v": 123
    },
    {
      "midi": 55,
      "hit": false,
      "t": 116142.741,
      "d": 428.5709999999963,
      "v": 111
    },
    {
      "midi": 59,
      "hit": false,
      "t": 116142.741,
      "d": 428.5709999999963,
      "v": 121
    },
    {
      "midi": 67,
      "hit": false,
      "t": 116571.3119999998,
      "d": 428.5709999999963,
      "v": 118
    },
    {
      "midi": 71,
      "hit": false,
      "t": 116571.3119999998,
      "d": 428.5709999999963,
      "v": 124
    },
    {
      "midi": 45,
      "hit": false,
      "t": 116571.31199999999,
      "d": 428.5709999999963,
      "v": 119
    },
    {
      "midi": 64,
      "hit": false,
      "t": 116999.8829999998,
      "d": 428.5709999999963,
      "v": 118
    },
    {
      "midi": 67,
      "hit": false,
      "t": 116999.8829999998,
      "d": 428.5709999999963,
      "v": 109
    },
    {
      "midi": 49,
      "hit": false,
      "t": 116999.88299999999,
      "d": 857.1420000000071,
      "v": 124
    },
    {
      "midi": 55,
      "hit": false,
      "t": 116999.88299999999,
      "d": 857.1420000000071,
      "v": 107
    },
    {
      "midi": 64,
      "hit": false,
      "t": 117428.4539999998,
      "d": 428.5709999999963,
      "v": 117
    },
    {
      "midi": 67,
      "hit": false,
      "t": 117428.4539999998,
      "d": 428.5709999999963,
      "v": 111
    },
    {
      "midi": 66,
      "hit": false,
      "t": 117857.02499999979,
      "d": 428.5709999999963,
      "v": 124
    },
    {
      "midi": 69,
      "hit": false,
      "t": 117857.02499999979,
      "d": 428.5709999999963,
      "v": 95
    },
    {
      "midi": 49,
      "hit": false,
      "t": 117857.025,
      "d": 428.5709999999963,
      "v": 125
    },
    {
      "midi": 55,
      "hit": false,
      "t": 117857.025,
      "d": 428.5709999999963,
      "v": 109
    },
    {
      "midi": 67,
      "hit": false,
      "t": 118285.59599999979,
      "d": 214.28549999999814,
      "v": 122
    },
    {
      "midi": 71,
      "hit": false,
      "t": 118285.59599999979,
      "d": 214.28549999999814,
      "v": 118
    },
    {
      "midi": 45,
      "hit": false,
      "t": 118285.59599999999,
      "d": 428.5709999999963,
      "v": 124
    },
    {
      "midi": 73,
      "hit": false,
      "t": 118499.88149999978,
      "d": 214.28549999999814,
      "v": 124
    },
    {
      "midi": 67,
      "hit": false,
      "t": 118714.16699999978,
      "d": 428.5709999999963,
      "v": 107
    },
    {
      "midi": 71,
      "hit": false,
      "t": 118714.16699999978,
      "d": 428.5709999999963,
      "v": 124
    },
    {
      "midi": 49,
      "hit": false,
      "t": 118714.16699999999,
      "d": 857.1420000000071,
      "v": 124
    },
    {
      "midi": 57,
      "hit": false,
      "t": 118714.16699999999,
      "d": 857.1420000000071,
      "v": 115
    },
    {
      "midi": 66,
      "hit": false,
      "t": 119142.73799999978,
      "d": 428.5709999999963,
      "v": 123
    },
    {
      "midi": 69,
      "hit": false,
      "t": 119142.73799999978,
      "d": 428.5709999999963,
      "v": 124
    },
    {
      "midi": 64,
      "hit": false,
      "t": 119571.30899999978,
      "d": 428.5709999999963,
      "v": 119
    },
    {
      "midi": 67,
      "hit": false,
      "t": 119571.30899999978,
      "d": 428.5709999999963,
      "v": 124
    },
    {
      "midi": 49,
      "hit": false,
      "t": 119571.309,
      "d": 428.5709999999963,
      "v": 124
    },
    {
      "midi": 57,
      "hit": false,
      "t": 119571.309,
      "d": 428.5709999999963,
      "v": 105
    },
    {
      "midi": 62,
      "hit": false,
      "t": 119999.87999999977,
      "d": 857.1420000000071,
      "v": 119
    },
    {
      "midi": 66,
      "hit": false,
      "t": 119999.87999999977,
      "d": 857.1420000000071,
      "v": 124
    },
    {
      "midi": 50,
      "hit": false,
      "t": 119999.87999999999,
      "d": 428.5709999999963,
      "v": 119
    },
    {
      "midi": 54,
      "hit": false,
      "t": 120428.45099999999,
      "d": 1285.7130000000034,
      "v": 124
    },
    {
      "midi": 57,
      "hit": false,
      "t": 120428.45099999999,
      "d": 1285.7130000000034,
      "v": 115
    },
    {
      "midi": 66,
      "hit": false,
      "t": 120857.02199999978,
      "d": 214.28549999999814,
      "v": 124
    },
    {
      "midi": 69,
      "hit": false,
      "t": 120857.02199999978,
      "d": 214.28549999999814,
      "v": 97
    },
    {
      "midi": 62,
      "hit": false,
      "t": 121071.30749999978,
      "d": 428.5709999999963,
      "v": 111
    },
    {
      "midi": 66,
      "hit": false,
      "t": 121071.30749999978,
      "d": 428.5709999999963,
      "v": 125
    },
    {
      "midi": 61,
      "hit": false,
      "t": 121499.87849999977,
      "d": 1714.2839999999997,
      "v": 124
    },
    {
      "midi": 64,
      "hit": false,
      "t": 121499.87849999977,
      "d": 1714.2839999999997,
      "v": 125
    },
    {
      "midi": 45,
      "hit": false,
      "t": 121714.16399999999,
      "d": 428.5709999999963,
      "v": 118
    },
    {
      "midi": 49,
      "hit": false,
      "t": 122142.73499999999,
      "d": 428.5709999999963,
      "v": 124
    },
    {
      "midi": 55,
      "hit": false,
      "t": 122142.73499999999,
      "d": 428.5709999999963,
      "v": 109
    },
    {
      "midi": 57,
      "hit": false,
      "t": 122142.73499999999,
      "d": 428.5709999999963,
      "v": 90
    },
    {
      "midi": 45,
      "hit": false,
      "t": 122571.30599999998,
      "d": 428.5709999999963,
      "v": 104
    },
    {
      "midi": 49,
      "hit": false,
      "t": 122999.87699999998,
      "d": 428.5709999999963,
      "v": 124
    },
    {
      "midi": 55,
      "hit": false,
      "t": 122999.87699999998,
      "d": 428.5709999999963,
      "v": 115
    },
    {
      "midi": 57,
      "hit": false,
      "t": 122999.87699999998,
      "d": 428.5709999999963,
      "v": 99
    },
    {
      "midi": 59,
      "hit": false,
      "t": 123214.16249999977,
      "d": 214.28549999999814,
      "v": 124
    },
    {
      "midi": 64,
      "hit": false,
      "t": 123428.44799999977,
      "d": 428.5709999999963,
      "v": 125
    },
    {
      "midi": 52,
      "hit": false,
      "t": 123428.44799999997,
      "d": 2571.4260000000068,
      "v": 124
    },
    {
      "midi": 56,
      "hit": false,
      "t": 123428.44799999997,
      "d": 2571.4260000000068,
      "v": 124
    },
    {
      "midi": 62,
      "hit": false,
      "t": 123428.44799999997,
      "d": 2571.4260000000068,
      "v": 107
    },
    {
      "midi": 64,
      "hit": false,
      "t": 123857.01899999977,
      "d": 428.5709999999963,
      "v": 124
    },
    {
      "midi": 68,
      "hit": false,
      "t": 124285.58999999976,
      "d": 214.28549999999814,
      "v": 124
    },
    {
      "midi": 69,
      "hit": false,
      "t": 124499.87549999976,
      "d": 642.8564999999944,
      "v": 88
    },
    {
      "midi": 74,
      "hit": false,
      "t": 125142.73199999976,
      "d": 214.28549999999814,
      "v": 122
    },
    {
      "midi": 73,
      "hit": false,
      "t": 125357.01749999975,
      "d": 214.28549999999814,
      "v": 124
    },
    {
      "midi": 71,
      "hit": false,
      "t": 125571.30299999975,
      "d": 428.5709999999963,
      "v": 125
    },
    {
      "midi": 64,
      "hit": false,
      "t": 125999.87399999975,
      "d": 642.8564999999944,
      "v": 124
    },
    {
      "midi": 52,
      "hit": false,
      "t": 125999.87399999998,
      "d": 428.5709999999963,
      "v": 124
    },
    {
      "midi": 56,
      "hit": false,
      "t": 125999.87399999998,
      "d": 428.5709999999963,
      "v": 123
    },
    {
      "midi": 47,
      "hit": false,
      "t": 126428.44499999998,
      "d": 428.5709999999963,
      "v": 125
    },
    {
      "midi": 64,
      "hit": false,
      "t": 126642.73049999974,
      "d": 214.28549999999814,
      "v": 124
    },
    {
      "midi": 69,
      "hit": false,
      "t": 126857.01599999974,
      "d": 428.5709999999963,
      "v": 123
    },
    {
      "midi": 45,
      "hit": false,
      "t": 126857.01599999997,
      "d": 1714.2839999999997,
      "v": 124
    },
    {
      "midi": 55,
      "hit": false,
      "t": 126857.01599999997,
      "d": 1714.2839999999997,
      "v": 122
    },
    {
      "midi": 69,
      "hit": false,
      "t": 127285.58699999974,
      "d": 428.5709999999963,
      "v": 122
    },
    {
      "midi": 71,
      "hit": false,
      "t": 127714.15799999973,
      "d": 428.5709999999963,
      "v": 124
    },
    {
      "midi": 72,
      "hit": false,
      "t": 128142.72899999973,
      "d": 214.28549999999814,
      "v": 115
    },
    {
      "midi": 73,
      "hit": false,
      "t": 128357.01449999973,
      "d": 1714.2839999999997,
      "v": 126
    },
    {
      "midi": 57,
      "hit": false,
      "t": 128571.29999999997,
      "d": 321.4282499999972,
      "v": 124
    },
    {
      "midi": 57,
      "hit": false,
      "t": 128892.72824999997,
      "d": 107.14274999999907,
      "v": 111
    },
    {
      "midi": 55,
      "hit": false,
      "t": 128999.87099999997,
      "d": 428.5709999999963,
      "v": 124
    },
    {
      "midi": 54,
      "hit": false,
      "t": 129428.44199999997,
      "d": 321.4282499999972,
      "v": 126
    },
    {
      "midi": 54,
      "hit": false,
      "t": 129749.87024999996,
      "d": 107.14274999999907,
      "v": 124
    },
    {
      "midi": 52,
      "hit": false,
      "t": 129857.01299999996,
      "d": 428.5709999999963,
      "v": 124
    },
    {
      "midi": 66,
      "hit": false,
      "t": 130285.58399999973,
      "d": 428.5709999999963,
      "v": 117
    },
    {
      "midi": 50,
      "hit": false,
      "t": 130285.58399999996,
      "d": 428.5709999999963,
      "v": 124
    },
    {
      "midi": 54,
      "hit": false,
      "t": 130285.58399999996,
      "d": 428.5709999999963,
      "v": 126
    },
    {
      "midi": 57,
      "hit": false,
      "t": 130285.58399999996,
      "d": 428.5709999999963,
      "v": 107
    },
    {
      "midi": 69,
      "hit": false,
      "t": 130714.15499999972,
      "d": 428.5710000000108,
      "v": 118
    },
    {
      "midi": 50,
      "hit": false,
      "t": 130714.15499999996,
      "d": 428.5710000000108,
      "v": 124
    },
    {
      "midi": 54,
      "hit": false,
      "t": 130714.15499999996,
      "d": 428.5710000000108,
      "v": 125
    },
    {
      "midi": 57,
      "hit": false,
      "t": 130714.15499999996,
      "d": 428.5710000000108,
      "v": 118
    },
    {
      "midi": 74,
      "hit": false,
      "t": 131142.72599999973,
      "d": 428.5709999999963,
      "v": 115
    },
    {
      "midi": 50,
      "hit": false,
      "t": 131142.72599999997,
      "d": 857.1419999999925,
      "v": 124
    },
    {
      "midi": 54,
      "hit": false,
      "t": 131142.72599999997,
      "d": 857.1419999999925,
      "v": 125
    },
    {
      "midi": 57,
      "hit": false,
      "t": 131142.72599999997,
      "d": 857.1419999999925,
      "v": 111
    },
    {
      "midi": 73,
      "hit": false,
      "t": 131571.29699999973,
      "d": 428.5709999999963,
      "v": 124
    },
    {
      "midi": 71,
      "hit": false,
      "t": 131999.86799999973,
      "d": 428.5709999999963,
      "v": 124
    },
    {
      "midi": 50,
      "hit": false,
      "t": 131999.86799999996,
      "d": 1714.2840000000142,
      "v": 124
    },
    {
      "midi": 54,
      "hit": false,
      "t": 131999.86799999996,
      "d": 1714.2840000000142,
      "v": 125
    },
    {
      "midi": 57,
      "hit": false,
      "t": 131999.86799999996,
      "d": 1714.2840000000142,
      "v": 111
    },
    {
      "midi": 69,
      "hit": false,
      "t": 132428.43899999972,
      "d": 214.28549999999814,
      "v": 119
    },
    {
      "midi": 66,
      "hit": false,
      "t": 132642.72449999972,
      "d": 428.5709999999963,
      "v": 124
    },
    {
      "midi": 64,
      "hit": false,
      "t": 133071.29549999972,
      "d": 214.28549999999814,
      "v": 124
    },
    {
      "midi": 62,
      "hit": false,
      "t": 133285.5809999997,
      "d": 428.5709999999963,
      "v": 115
    },
    {
      "midi": 64,
      "hit": false,
      "t": 133714.1519999997,
      "d": 642.8564999999944,
      "v": 124
    },
    {
      "midi": 52,
      "hit": false,
      "t": 133714.15199999997,
      "d": 428.5709999999963,
      "v": 125
    },
    {
      "midi": 56,
      "hit": false,
      "t": 133714.15199999997,
      "d": 428.5709999999963,
      "v": 124
    },
    {
      "midi": 62,
      "hit": false,
      "t": 133714.15199999997,
      "d": 428.5709999999963,
      "v": 104
    },
    {
      "midi": 52,
      "hit": false,
      "t": 134142.72299999997,
      "d": 1285.7129999999888,
      "v": 124
    },
    {
      "midi": 56,
      "hit": false,
      "t": 134142.72299999997,
      "d": 1285.7129999999888,
      "v": 125
    },
    {
      "midi": 62,
      "hit": false,
      "t": 134142.72299999997,
      "d": 1285.7129999999888,
      "v": 118
    },
    {
      "midi": 64,
      "hit": false,
      "t": 134357.0084999997,
      "d": 214.28549999999814,
      "v": 124
    },
    {
      "midi": 68,
      "hit": false,
      "t": 134571.2939999997,
      "d": 214.28549999999814,
      "v": 124
    },
    {
      "midi": 71,
      "hit": false,
      "t": 134785.5794999997,
      "d": 428.5709999999963,
      "v": 124
    },
    {
      "midi": 74,
      "hit": false,
      "t": 135214.1504999997,
      "d": 1714.2840000000142,
      "v": 124
    },
    {
      "midi": 52,
      "hit": false,
      "t": 135428.43599999996,
      "d": 428.5709999999963,
      "v": 125
    },
    {
      "midi": 56,
      "hit": false,
      "t": 135857.00699999995,
      "d": 428.5709999999963,
      "v": 124
    },
    {
      "midi": 62,
      "hit": false,
      "t": 135857.00699999995,
      "d": 428.5709999999963,
      "v": 109
    },
    {
      "midi": 52,
      "hit": false,
      "t": 136285.57799999995,
      "d": 428.5709999999963,
      "v": 124
    },
    {
      "midi": 56,
      "hit": false,
      "t": 136714.14899999995,
      "d": 428.5709999999963,
      "v": 124
    },
    {
      "midi": 62,
      "hit": false,
      "t": 136714.14899999995,
      "d": 428.5709999999963,
      "v": 109
    },
    {
      "midi": 68,
      "hit": false,
      "t": 137142.7199999997,
      "d": 428.5709999999963,
      "v": 124
    },
    {
      "midi": 55,
      "hit": false,
      "t": 137142.71999999994,
      "d": 428.5709999999963,
      "v": 123
    },
    {
      "midi": 57,
      "hit": false,
      "t": 137142.71999999994,
      "d": 428.5709999999963,
      "v": 124
    },
    {
      "midi": 61,
      "hit": false,
      "t": 137142.71999999994,
      "d": 428.5709999999963,
      "v": 123
    },
    {
      "midi": 69,
      "hit": false,
      "t": 137571.2909999997,
      "d": 428.5709999999963,
      "v": 124
    },
    {
      "midi": 55,
      "hit": false,
      "t": 137571.29099999994,
      "d": 857.1419999999925,
      "v": 127
    },
    {
      "midi": 57,
      "hit": false,
      "t": 137571.29099999994,
      "d": 857.1419999999925,
      "v": 126
    },
    {
      "midi": 61,
      "hit": false,
      "t": 137571.29099999994,
      "d": 857.1419999999925,
      "v": 126
    },
    {
      "midi": 76,
      "hit": false,
      "t": 137999.8619999997,
      "d": 428.5709999999963,
      "v": 123
    },
    {
      "midi": 74,
      "hit": false,
      "t": 138428.4329999997,
      "d": 428.5709999999963,
      "v": 118
    },
    {
      "midi": 55,
      "hit": false,
      "t": 138428.43299999993,
      "d": 428.5709999999963,
      "v": 125
    },
    {
      "midi": 59,
      "hit": false,
      "t": 138428.43299999993,
      "d": 428.5709999999963,
      "v": 124
    },
    {
      "midi": 73,
      "hit": false,
      "t": 138857.0039999997,
      "d": 428.5709999999963,
      "v": 124
    },
    {
      "midi": 55,
      "hit": false,
      "t": 138857.00399999993,
      "d": 1714.2840000000142,
      "v": 126
    },
    {
      "midi": 57,
      "hit": false,
      "t": 138857.00399999993,
      "d": 1714.2840000000142,
      "v": 126
    },
    {
      "midi": 61,
      "hit": false,
      "t": 138857.00399999993,
      "d": 1714.2840000000142,
      "v": 126
    },
    {
      "midi": 71,
      "hit": false,
      "t": 139285.5749999997,
      "d": 214.28549999999814,
      "v": 124
    },
    {
      "midi": 69,
      "hit": false,
      "t": 139499.8604999997,
      "d": 428.5709999999963,
      "v": 118
    },
    {
      "midi": 67,
      "hit": false,
      "t": 139928.4314999997,
      "d": 214.28549999999814,
      "v": 124
    },
    {
      "midi": 66,
      "hit": false,
      "t": 140142.71699999968,
      "d": 428.5709999999963,
      "v": 124
    },
    {
      "midi": 64,
      "hit": false,
      "t": 140571.28799999968,
      "d": 428.5709999999963,
      "v": 123
    },
    {
      "midi": 52,
      "hit": false,
      "t": 140571.28799999994,
      "d": 857.1419999999925,
      "v": 124
    },
    {
      "midi": 55,
      "hit": false,
      "t": 140571.28799999994,
      "d": 857.1419999999925,
      "v": 124
    },
    {
      "midi": 59,
      "hit": false,
      "t": 140571.28799999994,
      "d": 857.1419999999925,
      "v": 124
    },
    {
      "midi": 66,
      "hit": false,
      "t": 140999.85899999968,
      "d": 428.5709999999963,
      "v": 124
    },
    {
      "midi": 64,
      "hit": false,
      "t": 141428.42999999967,
      "d": 214.28549999999814,
      "v": 123
    },
    {
      "midi": 52,
      "hit": false,
      "t": 141428.42999999993,
      "d": 857.1419999999925,
      "v": 124
    },
    {
      "midi": 55,
      "hit": false,
      "t": 141428.42999999993,
      "d": 857.1419999999925,
      "v": 124
    },
    {
      "midi": 59,
      "hit": false,
      "t": 141428.42999999993,
      "d": 857.1419999999925,
      "v": 124
    },
    {
      "midi": 66,
      "hit": false,
      "t": 141642.71549999967,
      "d": 428.5709999999963,
      "v": 124
    },
    {
      "midi": 61,
      "hit": false,
      "t": 142071.28649999967,
      "d": 1285.7129999999888,
      "v": 124
    },
    {
      "midi": 69,
      "hit": false,
      "t": 142071.28649999967,
      "d": 1285.7129999999888,
      "v": 124
    },
    {
      "midi": 57,
      "hit": false,
      "t": 142285.57199999993,
      "d": 428.5709999999963,
      "v": 124
    },
    {
      "midi": 55,
      "hit": false,
      "t": 142714.14299999992,
      "d": 428.5709999999963,
      "v": 124
    },
    {
      "midi": 54,
      "hit": false,
      "t": 143142.71399999992,
      "d": 428.5709999999963,
      "v": 124
    },
    {
      "midi": 69,
      "hit": false,
      "t": 143571.28499999965,
      "d": 428.5709999999963,
      "v": 124
    },
    {
      "midi": 52,
      "hit": false,
      "t": 143571.28499999992,
      "d": 428.5709999999963,
      "v": 124
    },
    {
      "midi": 74,
      "hit": false,
      "t": 143999.85599999965,
      "d": 428.5709999999963,
      "v": 119
    },
    {
      "midi": 50,
      "hit": false,
      "t": 143999.8559999999,
      "d": 1714.2840000000142,
      "v": 124
    },
    {
      "midi": 54,
      "hit": false,
      "t": 143999.8559999999,
      "d": 1714.2840000000142,
      "v": 126
    },
    {
      "midi": 57,
      "hit": false,
      "t": 143999.8559999999,
      "d": 1714.2840000000142,
      "v": 107
    },
    {
      "midi": 71,
      "hit": false,
      "t": 144428.42699999965,
      "d": 214.28549999999814,
      "v": 124
    },
    {
      "midi": 69,
      "hit": false,
      "t": 144642.71249999964,
      "d": 214.28549999999814,
      "v": 115
    },
    {
      "midi": 71,
      "hit": false,
      "t": 144856.99799999964,
      "d": 214.28549999999814,
      "v": 124
    },
    {
      "midi": 69,
      "hit": false,
      "t": 145071.28349999964,
      "d": 214.28549999999814,
      "v": 119
    },
    {
      "midi": 66,
      "hit": false,
      "t": 145285.56899999964,
      "d": 214.28549999999814,
      "v": 123
    },
    {
      "midi": 64,
      "hit": false,
      "t": 145499.85449999964,
      "d": 214.28549999999814,
      "v": 119
    },
    {
      "midi": 64,
      "hit": false,
      "t": 145714.13999999964,
      "d": 428.5709999999963,
      "v": 124
    },
    {
      "midi": 50,
      "hit": false,
      "t": 145714.13999999993,
      "d": 428.5709999999963,
      "v": 124
    },
    {
      "midi": 62,
      "hit": false,
      "t": 146142.71099999963,
      "d": 1285.7129999999888,
      "v": 119
    },
    {
      "midi": 54,
      "hit": false,
      "t": 146142.71099999992,
      "d": 428.5709999999963,
      "v": 125
    },
    {
      "midi": 57,
      "hit": false,
      "t": 146142.71099999992,
      "d": 428.5709999999963,
      "v": 105
    },
    {
      "midi": 50,
      "hit": false,
      "t": 146571.28199999992,
      "d": 428.5709999999963,
      "v": 124
    },
    {
      "midi": 54,
      "hit": false,
      "t": 146999.85299999992,
      "d": 428.5709999999963,
      "v": 124
    },
    {
      "midi": 57,
      "hit": false,
      "t": 146999.85299999992,
      "d": 428.5709999999963,
      "v": 115
    },
    {
      "midi": 62,
      "hit": false,
      "t": 147428.42399999962,
      "d": 857.1419999999925,
      "v": 119
    },
    {
      "midi": 66,
      "hit": false,
      "t": 147428.42399999962,
      "d": 857.1419999999925,
      "v": 47
    },
    {
      "midi": 50,
      "hit": false,
      "t": 147428.4239999999,
      "d": 857.1419999999925,
      "v": 124
    },
    {
      "midi": 57,
      "hit": false,
      "t": 147428.4239999999,
      "d": 857.1419999999925,
      "v": 124
    },
    {
      "midi": 61,
      "hit": false,
      "t": 148285.5659999996,
      "d": 857.1419999999925,
      "v": 123
    },
    {
      "midi": 66,
      "hit": false,
      "t": 148285.5659999996,
      "d": 857.1419999999925,
      "v": 125
    },
    {
      "midi": 54,
      "hit": false,
      "t": 148285.5659999999,
      "d": 857.1419999999925,
      "v": 126
    },
    {
      "midi": 58,
      "hit": false,
      "t": 148285.5659999999,
      "d": 857.1419999999925,
      "v": 124
    },
    {
      "midi": 62,
      "hit": false,
      "t": 149142.7079999996,
      "d": 857.1419999999925,
      "v": 105
    },
    {
      "midi": 66,
      "hit": false,
      "t": 149142.7079999996,
      "d": 857.1419999999925,
      "v": 124
    },
    {
      "midi": 59,
      "hit": false,
      "t": 149142.7079999999,
      "d": 857.1419999999925,
      "v": 124
    },
    {
      "midi": 60,
      "hit": false,
      "t": 149999.8499999996,
      "d": 857.1419999999925,
      "v": 99
    },
    {
      "midi": 66,
      "hit": false,
      "t": 149999.8499999996,
      "d": 857.1419999999925,
      "v": 124
    },
    {
      "midi": 50,
      "hit": false,
      "t": 149999.8499999999,
      "d": 857.1419999999925,
      "v": 124
    },
    {
      "midi": 57,
      "hit": false,
      "t": 149999.8499999999,
      "d": 857.1419999999925,
      "v": 124
    },
    {
      "midi": 59,
      "hit": false,
      "t": 150856.9919999996,
      "d": 1714.2840000000142,
      "v": 104
    },
    {
      "midi": 62,
      "hit": false,
      "t": 150856.9919999996,
      "d": 1714.2840000000142,
      "v": 119
    },
    {
      "midi": 55,
      "hit": false,
      "t": 150856.99199999988,
      "d": 428.5709999999963,
      "v": 118
    },
    {
      "midi": 57,
      "hit": false,
      "t": 151285.56299999988,
      "d": 428.5709999999963,
      "v": 123
    },
    {
      "midi": 59,
      "hit": false,
      "t": 151714.13399999987,
      "d": 428.5709999999963,
      "v": 117
    },
    {
      "midi": 55,
      "hit": false,
      "t": 152142.70499999987,
      "d": 428.5709999999963,
      "v": 119
    },
    {
      "midi": 57,
      "hit": false,
      "t": 152571.2759999996,
      "d": 1714.2840000000142,
      "v": 82
    },
    {
      "midi": 50,
      "hit": false,
      "t": 152571.27599999987,
      "d": 428.5709999999963,
      "v": 107
    },
    {
      "midi": 54,
      "hit": false,
      "t": 152571.27599999987,
      "d": 428.5709999999963,
      "v": 124
    },
    {
      "midi": 57,
      "hit": false,
      "t": 152999.84699999986,
      "d": 428.5709999999963,
      "v": 124
    },
    {
      "midi": 50,
      "hit": false,
      "t": 153428.41799999986,
      "d": 857.1419999999925,
      "v": 118
    },
    {
      "midi": 54,
      "hit": false,
      "t": 153428.41799999986,
      "d": 857.1419999999925,
      "v": 124
    }
  ]
}