{
  "jsonPath": "Rock/Psychedelic Rock/The Beatles/when-im-sixty-four.json",
  "path": "Rock\\Psychedelic Rock\\The Beatles\\When Im Sixty Four.mid",
  "name": "When Im Sixty Four",
  "difficulty": "Advanced",
  "bpm": 120,
  "notes": [
    {
      "midi": 65,
      "hit": false,
      "t": 0,
      "d": 375,
      "v": 124
    },
    {
      "midi": 49,
      "hit": false,
      "t": 0,
      "d": 500,
      "v": 111
    },
    {
      "midi": 64,
      "hit": false,
      "t": 375,
      "d": 125,
      "v": 107
    },
    {
      "midi": 65,
      "hit": false,
      "t": 500,
      "d": 250,
      "v": 118
    },
    {
      "midi": 56,
      "hit": false,
      "t": 500,
      "d": 500,
      "v": 123
    },
    {
      "midi": 68,
      "hit": false,
      "t": 750,
      "d": 750,
      "v": 110
    },
    {
      "midi": 49,
      "hit": false,
      "t": 1000,
      "d": 500,
      "v": 96
    },
    {
      "midi": 65,
      "hit": false,
      "t": 1500,
      "d": 500,
      "v": 115
    },
    {
      "midi": 56,
      "hit": false,
      "t": 1500,
      "d": 500,
      "v": 123
    },
    {
      "midi": 68,
      "hit": false,
      "t": 2000,
      "d": 375,
      "v": 124
    },
    {
      "midi": 49,
      "hit": false,
      "t": 2000,
      "d": 500,
      "v": 97
    },
    {
      "midi": 70,
      "hit": false,
      "t": 2375,
      "d": 125,
      "v": 124
    },
    {
      "midi": 68,
      "hit": false,
      "t": 2500,
      "d": 250,
      "v": 124
    },
    {
      "midi": 56,
      "hit": false,
      "t": 2500,
      "d": 500,
      "v": 115
    },
    {
      "midi": 65,
      "hit": false,
      "t": 2750,
      "d": 1000,
      "v": 124
    },
    {
      "midi": 73,
      "hit": false,
      "t": 2750,
      "d": 1000,
      "v": 124
    },
    {
      "midi": 49,
      "hit": false,
      "t": 3000,
      "d": 500,
      "v": 91
    },
    {
      "midi": 56,
      "hit": false,
      "t": 3500,
      "d": 500,
      "v": 115
    },
    {
      "midi": 65,
      "hit": false,
      "t": 4000,
      "d": 250,
      "v": 121
    },
    {
      "midi": 73,
      "hit": false,
      "t": 4000,
      "d": 250,
      "v": 115
    },
    {
      "midi": 49,
      "hit": false,
      "t": 4000,
      "d": 500,
      "v": 79
    },
    {
      "midi": 77,
      "hit": false,
      "t": 4250,
      "d": 500,
      "v": 123
    },
    {
      "midi": 56,
      "hit": false,
      "t": 4500,
      "d": 500,
      "v": 123
    },
    {
      "midi": 73,
      "hit": false,
      "t": 4750,
      "d": 750,
      "v": 125
    },
    {
      "midi": 49,
      "hit": false,
      "t": 5000,
      "d": 500,
      "v": 111
    },
    {
      "midi": 70,
      "hit": false,
      "t": 5500,
      "d": 500,
      "v": 124
    },
    {
      "midi": 56,
      "hit": false,
      "t": 5500,
      "d": 500,
      "v": 123
    },
    {
      "midi": 66,
      "hit": false,
      "t": 6000,
      "d": 500,
      "v": 124
    },
    {
      "midi": 75,
      "hit": false,
      "t": 6000,
      "d": 500,
      "v": 124
    },
    {
      "midi": 56,
      "hit": false,
      "t": 6000,
      "d": 1000,
      "v": 124
    },
    {
      "midi": 68,
      "hit": false,
      "t": 6500,
      "d": 375,
      "v": 124
    },
    {
      "midi": 70,
      "hit": false,
      "t": 6875,
      "d": 125,
      "v": 123
    },
    {
      "midi": 72,
      "hit": false,
      "t": 7000,
      "d": 375,
      "v": 125
    },
    {
      "midi": 56,
      "hit": false,
      "t": 7000,
      "d": 1000,
      "v": 126
    },
    {
      "midi": 70,
      "hit": false,
      "t": 7375,
      "d": 125,
      "v": 124
    },
    {
      "midi": 68,
      "hit": false,
      "t": 7500,
      "d": 500,
      "v": 124
    },
    {
      "midi": 66,
      "hit": false,
      "t": 8000,
      "d": 375,
      "v": 89
    },
    {
      "midi": 72,
      "hit": false,
      "t": 8000,
      "d": 375,
      "v": 124
    },
    {
      "midi": 56,
      "hit": false,
      "t": 8000,
      "d": 1000,
      "v": 126
    },
    {
      "midi": 73,
      "hit": false,
      "t": 8375,
      "d": 125,
      "v": 124
    },
    {
      "midi": 74,
      "hit": false,
      "t": 8500,
      "d": 375,
      "v": 123
    },
    {
      "midi": 75,
      "hit": false,
      "t": 8875,
      "d": 125,
      "v": 124
    },
    {
      "midi": 66,
      "hit": false,
      "t": 9000,
      "d": 375,
      "v": 111
    },
    {
      "midi": 72,
      "hit": false,
      "t": 9000,
      "d": 375,
      "v": 125
    },
    {
      "midi": 56,
      "hit": false,
      "t": 9000,
      "d": 1000,
      "v": 125
    },
    {
      "midi": 73,
      "hit": false,
      "t": 9375,
      "d": 125,
      "v": 119
    },
    {
      "midi": 74,
      "hit": false,
      "t": 9500,
      "d": 375,
      "v": 118
    },
    {
      "midi": 75,
      "hit": false,
      "t": 9875,
      "d": 125,
      "v": 124
    },
    {
      "midi": 66,
      "hit": false,
      "t": 10000,
      "d": 250,
      "v": 111
    },
    {
      "midi": 72,
      "hit": false,
      "t": 10000,
      "d": 250,
      "v": 125
    },
    {
      "midi": 56,
      "hit": false,
      "t": 10000,
      "d": 1000,
      "v": 125
    },
    {
      "midi": 63,
      "hit": false,
      "t": 10000,
      "d": 1000,
      "v": 124
    },
    {
      "midi": 71,
      "hit": false,
      "t": 10250,
      "d": 500,
      "v": 122
    },
    {
      "midi": 66,
      "hit": false,
      "t": 10750,
      "d": 1000,
      "v": 122
    },
    {
      "midi": 70,
      "hit": false,
      "t": 10750,
      "d": 1000,
      "v": 125
    },
    {
      "midi": 60,
      "hit": false,
      "t": 11000,
      "d": 500,
      "v": 125
    },
    {
      "midi": 56,
      "hit": false,
      "t": 11500,
      "d": 500,
      "v": 124
    },
    {
      "midi": 66,
      "hit": false,
      "t": 12000,
      "d": 500,
      "v": 119
    },
    {
      "midi": 72,
      "hit": false,
      "t": 12000,
      "d": 500,
      "v": 125
    },
    {
      "midi": 56,
      "hit": false,
      "t": 12000,
      "d": 500,
      "v": 123
    },
    {
      "midi": 73,
      "hit": false,
      "t": 12500,
      "d": 500,
      "v": 123
    },
    {
      "midi": 58,
      "hit": false,
      "t": 12500,
      "d": 500,
      "v": 119
    },
    {
      "midi": 74,
      "hit": false,
      "t": 13000,
      "d": 500,
      "v": 123
    },
    {
      "midi": 59,
      "hit": false,
      "t": 13000,
      "d": 500,
      "v": 123
    },
    {
      "midi": 75,
      "hit": false,
      "t": 13500,
      "d": 500,
      "v": 124
    },
    {
      "midi": 60,
      "hit": false,
      "t": 13500,
      "d": 500,
      "v": 124
    },
    {
      "midi": 68,
      "hit": false,
      "t": 14000,
      "d": 250,
      "v": 99
    },
    {
      "midi": 77,
      "hit": false,
      "t": 14000,
      "d": 250,
      "v": 124
    },
    {
      "midi": 61,
      "hit": false,
      "t": 14000,
      "d": 1500,
      "v": 109
    },
    {
      "midi": 67,
      "hit": false,
      "t": 14250,
      "d": 250,
      "v": 117
    },
    {
      "midi": 76,
      "hit": false,
      "t": 14250,
      "d": 250,
      "v": 115
    },
    {
      "midi": 66,
      "hit": false,
      "t": 14500,
      "d": 250,
      "v": 118
    },
    {
      "midi": 75,
      "hit": false,
      "t": 14500,
      "d": 250,
      "v": 125
    },
    {
      "midi": 65,
      "hit": false,
      "t": 14750,
      "d": 1000,
      "v": 121
    },
    {
      "midi": 73,
      "hit": false,
      "t": 14750,
      "d": 1000,
      "v": 123
    },
    {
      "midi": 56,
      "hit": false,
      "t": 15500,
      "d": 500,
      "v": 124
    },
    {
      "midi": 65,
      "hit": false,
      "t": 16000,
      "d": 375,
      "v": 121
    },
    {
      "midi": 49,
      "hit": false,
      "t": 16000,
      "d": 500,
      "v": 124
    },
    {
      "midi": 64,
      "hit": false,
      "t": 16375,
      "d": 125,
      "v": 97
    },
    {
      "midi": 65,
      "hit": false,
      "t": 16500,
      "d": 250,
      "v": 125
    },
    {
      "midi": 56,
      "hit": false,
      "t": 16500,
      "d": 500,
      "v": 124
    },
    {
      "midi": 68,
      "hit": false,
      "t": 16750,
      "d": 750,
      "v": 123
    },
    {
      "midi": 49,
      "hit": false,
      "t": 17000,
      "d": 500,
      "v": 93
    },
    {
      "midi": 65,
      "hit": false,
      "t": 17500,
      "d": 500,
      "v": 123
    },
    {
      "midi": 56,
      "hit": false,
      "t": 17500,
      "d": 500,
      "v": 119
    },
    {
      "midi": 68,
      "hit": false,
      "t": 18000,
      "d": 375,
      "v": 124
    },
    {
      "midi": 49,
      "hit": false,
      "t": 18000,
      "d": 500,
      "v": 115
    },
    {
      "midi": 70,
      "hit": false,
      "t": 18375,
      "d": 125,
      "v": 124
    },
    {
      "midi": 68,
      "hit": false,
      "t": 18500,
      "d": 250,
      "v": 124
    },
    {
      "midi": 56,
      "hit": false,
      "t": 18500,
      "d": 500,
      "v": 109
    },
    {
      "midi": 65,
      "hit": false,
      "t": 18750,
      "d": 1000,
      "v": 106
    },
    {
      "midi": 73,
      "hit": false,
      "t": 18750,
      "d": 1000,
      "v": 123
    },
    {
      "midi": 49,
      "hit": false,
      "t": 19000,
      "d": 500,
      "v": 102
    },
    {
      "midi": 56,
      "hit": false,
      "t": 19500,
      "d": 500,
      "v": 109
    },
    {
      "midi": 65,
      "hit": false,
      "t": 20000,
      "d": 250,
      "v": 113
    },
    {
      "midi": 77,
      "hit": false,
      "t": 20000,
      "d": 250,
      "v": 124
    },
    {
      "midi": 49,
      "hit": false,
      "t": 20000,
      "d": 500,
      "v": 123
    },
    {
      "midi": 77,
      "hit": false,
      "t": 20250,
      "d": 500,
      "v": 125
    },
    {
      "midi": 56,
      "hit": false,
      "t": 20500,
      "d": 500,
      "v": 124
    },
    {
      "midi": 75,
      "hit": false,
      "t": 20750,
      "d": 750,
      "v": 124
    },
    {
      "midi": 59,
      "hit": false,
      "t": 21000,
      "d": 500,
      "v": 107
    },
    {
      "midi": 65,
      "hit": false,
      "t": 21500,
      "d": 500,
      "v": 123
    },
    {
      "midi": 70,
      "hit": false,
      "t": 21500,
      "d": 500,
      "v": 125
    },
    {
      "midi": 49,
      "hit": false,
      "t": 21500,
      "d": 500,
      "v": 122
    },
    {
      "midi": 73,
      "hit": false,
      "t": 22000,
      "d": 500,
      "v": 123
    },
    {
      "midi": 54,
      "hit": false,
      "t": 22000,
      "d": 2000,
      "v": 124
    },
    {
      "midi": 58,
      "hit": false,
      "t": 22000,
      "d": 2000,
      "v": 124
    },
    {
      "midi": 61,
      "hit": false,
      "t": 22500,
      "d": 500,
      "v": 111
    },
    {
      "midi": 63,
      "hit": false,
      "t": 23000,
      "d": 500,
      "v": 118
    },
    {
      "midi": 65,
      "hit": false,
      "t": 23500,
      "d": 500,
      "v": 124
    },
    {
      "midi": 66,
      "hit": false,
      "t": 24000,
      "d": 375,
      "v": 124
    },
    {
      "midi": 73,
      "hit": false,
      "t": 24000,
      "d": 375,
      "v": 118
    },
    {
      "midi": 54,
      "hit": false,
      "t": 24000,
      "d": 750,
      "v": 122
    },
    {
      "midi": 58,
      "hit": false,
      "t": 24000,
      "d": 750,
      "v": 124
    },
    {
      "midi": 70,
      "hit": false,
      "t": 24375,
      "d": 125,
      "v": 124
    },
    {
      "midi": 73,
      "hit": false,
      "t": 24500,
      "d": 250,
      "v": 122
    },
    {
      "midi": 69,
      "hit": false,
      "t": 24750,
      "d": 500,
      "v": 71
    },
    {
      "midi": 76,
      "hit": false,
      "t": 24750,
      "d": 500,
      "v": 119
    },
    {
      "midi": 55,
      "hit": false,
      "t": 24750,
      "d": 1000,
      "v": 124
    },
    {
      "midi": 61,
      "hit": false,
      "t": 24750,
      "d": 1000,
      "v": 111
    },
    {
      "midi": 75,
      "hit": false,
      "t": 25250,
      "d": 750,
      "v": 125
    },
    {
      "midi": 68,
      "hit": false,
      "t": 26000,
      "d": 375,
      "v": 124
    },
    {
      "midi": 73,
      "hit": false,
      "t": 26000,
      "d": 375,
      "v": 119
    },
    {
      "midi": 56,
      "hit": false,
      "t": 26000,
      "d": 750,
      "v": 124
    },
    {
      "midi": 65,
      "hit": false,
      "t": 26000,
      "d": 750,
      "v": 96
    },
    {
      "midi": 70,
      "hit": false,
      "t": 26375,
      "d": 375,
      "v": 117
    },
    {
      "midi": 73,
      "hit": false,
      "t": 26500,
      "d": 250,
      "v": 109
    },
    {
      "midi": 68,
      "hit": false,
      "t": 26750,
      "d": 500,
      "v": 123
    },
    {
      "midi": 72,
      "hit": false,
      "t": 26750,
      "d": 500,
      "v": 124
    },
    {
      "midi": 58,
      "hit": false,
      "t": 26750,
      "d": 1000,
      "v": 124
    },
    {
      "midi": 62,
      "hit": false,
      "t": 26750,
      "d": 1000,
      "v": 125
    },
    {
      "midi": 70,
      "hit": false,
      "t": 27250,
      "d": 750,
      "v": 124
    },
    {
      "midi": 67,
      "hit": false,
      "t": 28000,
      "d": 500,
      "v": 103
    },
    {
      "midi": 77,
      "hit": false,
      "t": 28000,
      "d": 500,
      "v": 118
    },
    {
      "midi": 51,
      "hit": false,
      "t": 28000,
      "d": 1000,
      "v": 125
    },
    {
      "midi": 61,
      "hit": false,
      "t": 28000,
      "d": 1000,
      "v": 119
    },
    {
      "midi": 77,
      "hit": false,
      "t": 28500,
      "d": 500,
      "v": 124
    },
    {
      "midi": 66,
      "hit": false,
      "t": 29000,
      "d": 500,
      "v": 119
    },
    {
      "midi": 77,
      "hit": false,
      "t": 29000,
      "d": 500,
      "v": 124
    },
    {
      "midi": 56,
      "hit": false,
      "t": 29000,
      "d": 1000,
      "v": 124
    },
    {
      "midi": 60,
      "hit": false,
      "t": 29000,
      "d": 1000,
      "v": 119
    },
    {
      "midi": 77,
      "hit": false,
      "t": 29500,
      "d": 500,
      "v": 124
    },
    {
      "midi": 65,
      "hit": false,
      "t": 30000,
      "d": 2000,
      "v": 119
    },
    {
      "midi": 73,
      "hit": false,
      "t": 30000,
      "d": 2000,
      "v": 119
    },
    {
      "midi": 61,
      "hit": false,
      "t": 30000,
      "d": 375,
      "v": 109
    },
    {
      "midi": 58,
      "hit": false,
      "t": 30375,
      "d": 125,
      "v": 124
    },
    {
      "midi": 56,
      "hit": false,
      "t": 30500,
      "d": 375,
      "v": 125
    },
    {
      "midi": 58,
      "hit": false,
      "t": 30875,
      "d": 125,
      "v": 123
    },
    {
      "midi": 49,
      "hit": false,
      "t": 31000,
      "d": 1000,
      "v": 119
    },
    {
      "midi": 65,
      "hit": false,
      "t": 32000,
      "d": 375,
      "v": 118
    },
    {
      "midi": 73,
      "hit": false,
      "t": 32000,
      "d": 375,
      "v": 115
    },
    {
      "midi": 58,
      "hit": false,
      "t": 32000,
      "d": 2000,
      "v": 125
    },
    {
      "midi": 61,
      "hit": false,
      "t": 32000,
      "d": 2000,
      "v": 105
    },
    {
      "midi": 70,
      "hit": false,
      "t": 32375,
      "d": 125,
      "v": 121
    },
    {
      "midi": 73,
      "hit": false,
      "t": 32500,
      "d": 375,
      "v": 123
    },
    {
      "midi": 70,
      "hit": false,
      "t": 32875,
      "d": 125,
      "v": 124
    },
    {
      "midi": 73,
      "hit": false,
      "t": 33000,
      "d": 375,
      "v": 123
    },
    {
      "midi": 70,
      "hit": false,
      "t": 33375,
      "d": 125,
      "v": 124
    },
    {
      "midi": 73,
      "hit": false,
      "t": 33500,
      "d": 375,
      "v": 123
    },
    {
      "midi": 70,
      "hit": false,
      "t": 33875,
      "d": 125,
      "v": 124
    },
    {
      "midi": 65,
      "hit": false,
      "t": 34000,
      "d": 375,
      "v": 117
    },
    {
      "midi": 73,
      "hit": false,
      "t": 34000,
      "d": 375,
      "v": 123
    },
    {
      "midi": 58,
      "hit": false,
      "t": 34000,
      "d": 2000,
      "v": 126
    },
    {
      "midi": 61,
      "hit": false,
      "t": 34000,
      "d": 2000,
      "v": 124
    },
    {
      "midi": 70,
      "hit": false,
      "t": 34375,
      "d": 125,
      "v": 124
    },
    {
      "midi": 73,
      "hit": false,
      "t": 34500,
      "d": 375,
      "v": 123
    },
    {
      "midi": 70,
      "hit": false,
      "t": 34875,
      "d": 125,
      "v": 118
    },
    {
      "midi": 73,
      "hit": false,
      "t": 35000,
      "d": 500,
      "v": 124
    },
    {
      "midi": 66,
      "hit": false,
      "t": 35500,
      "d": 500,
      "v": 124
    },
    {
      "midi": 63,
      "hit": false,
      "t": 36000,
      "d": 500,
      "v": 121
    },
    {
      "midi": 68,
      "hit": false,
      "t": 36000,
      "d": 500,
      "v": 124
    },
    {
      "midi": 56,
      "hit": false,
      "t": 36000,
      "d": 2000,
      "v": 125
    },
    {
      "midi": 60,
      "hit": false,
      "t": 36000,
      "d": 2000,
      "v": 124
    },
    {
      "midi": 68,
      "hit": false,
      "t": 36500,
      "d": 375,
      "v": 124
    },
    {
      "midi": 68,
      "hit": false,
      "t": 36875,
      "d": 125,
      "v": 124
    },
    {
      "midi": 68,
      "hit": false,
      "t": 37000,
      "d": 500,
      "v": 124
    },
    {
      "midi": 70,
      "hit": false,
      "t": 37500,
      "d": 500,
      "v": 117
    },
    {
      "midi": 65,
      "hit": false,
      "t": 38000,
      "d": 2000,
      "v": 123
    },
    {
      "midi": 58,
      "hit": false,
      "t": 38000,
      "d": 375,
      "v": 124
    },
    {
      "midi": 60,
      "hit": false,
      "t": 38375,
      "d": 125,
      "v": 124
    },
    {
      "midi": 61,
      "hit": false,
      "t": 38500,
      "d": 375,
      "v": 124
    },
    {
      "midi": 63,
      "hit": false,
      "t": 38875,
      "d": 125,
      "v": 126
    },
    {
      "midi": 61,
      "hit": false,
      "t": 39000,
      "d": 500,
      "v": 125
    },
    {
      "midi": 58,
      "hit": false,
      "t": 39500,
      "d": 500,
      "v": 125
    },
    {
      "midi": 65,
      "hit": false,
      "t": 40000,
      "d": 1000,
      "v": 119
    },
    {
      "midi": 70,
      "hit": false,
      "t": 40000,
      "d": 1000,
      "v": 124
    },
    {
      "midi": 58,
      "hit": false,
      "t": 40000,
      "d": 500,
      "v": 124
    },
    {
      "midi": 61,
      "hit": false,
      "t": 40000,
      "d": 500,
      "v": 111
    },
    {
      "midi": 58,
      "hit": false,
      "t": 40500,
      "d": 1000,
      "v": 124
    },
    {
      "midi": 61,
      "hit": false,
      "t": 40500,
      "d": 1000,
      "v": 107
    },
    {
      "midi": 72,
      "hit": false,
      "t": 41000,
      "d": 1000,
      "v": 125
    },
    {
      "midi": 58,
      "hit": false,
      "t": 41500,
      "d": 500,
      "v": 123
    },
    {
      "midi": 61,
      "hit": false,
      "t": 41500,
      "d": 500,
      "v": 105
    },
    {
      "midi": 73,
      "hit": false,
      "t": 42000,
      "d": 1000,
      "v": 124
    },
    {
      "midi": 58,
      "hit": false,
      "t": 42000,
      "d": 500,
      "v": 124
    },
    {
      "midi": 61,
      "hit": false,
      "t": 42000,
      "d": 500,
      "v": 111
    },
    {
      "midi": 58,
      "hit": false,
      "t": 42500,
      "d": 1000,
      "v": 124
    },
    {
      "midi": 61,
      "hit": false,
      "t": 42500,
      "d": 1000,
      "v": 95
    },
    {
      "midi": 77,
      "hit": false,
      "t": 43000,
      "d": 1000,
      "v": 117
    },
    {
      "midi": 58,
      "hit": false,
      "t": 43500,
      "d": 500,
      "v": 124
    },
    {
      "midi": 61,
      "hit": false,
      "t": 43500,
      "d": 500,
      "v": 109
    },
    {
      "midi": 65,
      "hit": false,
      "t": 44000,
      "d": 4000,
      "v": 123
    },
    {
      "midi": 77,
      "hit": false,
      "t": 44000,
      "d": 4000,
      "v": 124
    },
    {
      "midi": 57,
      "hit": false,
      "t": 44000,
      "d": 500,
      "v": 122
    },
    {
      "midi": 60,
      "hit": false,
      "t": 44000,
      "d": 500,
      "v": 124
    },
    {
      "midi": 58,
      "hit": false,
      "t": 44500,
      "d": 500,
      "v": 124
    },
    {
      "midi": 61,
      "hit": false,
      "t": 44500,
      "d": 500,
      "v": 107
    },
    {
      "midi": 57,
      "hit": false,
      "t": 45000,
      "d": 500,
      "v": 109
    },
    {
      "midi": 60,
      "hit": false,
      "t": 45000,
      "d": 500,
      "v": 124
    },
    {
      "midi": 53,
      "hit": false,
      "t": 45500,
      "d": 500,
      "v": 124
    },
    {
      "midi": 57,
      "hit": false,
      "t": 46000,
      "d": 500,
      "v": 111
    },
    {
      "midi": 60,
      "hit": false,
      "t": 46000,
      "d": 500,
      "v": 119
    },
    {
      "midi": 58,
      "hit": false,
      "t": 46500,
      "d": 500,
      "v": 124
    },
    {
      "midi": 61,
      "hit": false,
      "t": 46500,
      "d": 500,
      "v": 118
    },
    {
      "midi": 57,
      "hit": false,
      "t": 47000,
      "d": 500,
      "v": 119
    },
    {
      "midi": 60,
      "hit": false,
      "t": 47000,
      "d": 500,
      "v": 124
    },
    {
      "midi": 53,
      "hit": false,
      "t": 47500,
      "d": 500,
      "v": 124
    },
    {
      "midi": 73,
      "hit": false,
      "t": 48000,
      "d": 1000,
      "v": 111
    },
    {
      "midi": 82,
      "hit": false,
      "t": 48000,
      "d": 1000,
      "v": 124
    },
    {
      "midi": 58,
      "hit": false,
      "t": 48000,
      "d": 500,
      "v": 125
    },
    {
      "midi": 65,
      "hit": false,
      "t": 48500,
      "d": 500,
      "v": 123
    },
    {
      "midi": 72,
      "hit": false,
      "t": 49000,
      "d": 1000,
      "v": 115
    },
    {
      "midi": 80,
      "hit": false,
      "t": 49000,
      "d": 1000,
      "v": 124
    },
    {
      "midi": 63,
      "hit": false,
      "t": 49000,
      "d": 500,
      "v": 125
    },
    {
      "midi": 56,
      "hit": false,
      "t": 49500,
      "d": 500,
      "v": 125
    },
    {
      "midi": 73,
      "hit": false,
      "t": 50000,
      "d": 1000,
      "v": 119
    },
    {
      "midi": 77,
      "hit": false,
      "t": 50000,
      "d": 1000,
      "v": 124
    },
    {
      "midi": 58,
      "hit": false,
      "t": 50000,
      "d": 500,
      "v": 124
    },
    {
      "midi": 65,
      "hit": false,
      "t": 50500,
      "d": 500,
      "v": 123
    },
    {
      "midi": 67,
      "hit": false,
      "t": 51000,
      "d": 500,
      "v": 96
    },
    {
      "midi": 75,
      "hit": false,
      "t": 51000,
      "d": 500,
      "v": 124
    },
    {
      "midi": 58,
      "hit": false,
      "t": 51000,
      "d": 1000,
      "v": 125
    },
    {
      "midi": 73,
      "hit": false,
      "t": 51500,
      "d": 500,
      "v": 124
    },
    {
      "midi": 66,
      "hit": false,
      "t": 52000,
      "d": 1000,
      "v": 123
    },
    {
      "midi": 75,
      "hit": false,
      "t": 52000,
      "d": 1000,
      "v": 125
    },
    {
      "midi": 51,
      "hit": false,
      "t": 52000,
      "d": 500,
      "v": 123
    },
    {
      "midi": 58,
      "hit": false,
      "t": 52500,
      "d": 1500,
      "v": 124
    },
    {
      "midi": 75,
      "hit": false,
      "t": 53000,
      "d": 500,
      "v": 124
    },
    {
      "midi": 70,
      "hit": false,
      "t": 53500,
      "d": 2000,
      "v": 125
    },
    {
      "midi": 63,
      "hit": false,
      "t": 54000,
      "d": 375,
      "v": 124
    },
    {
      "midi": 61,
      "hit": false,
      "t": 54375,
      "d": 125,
      "v": 122
    },
    {
      "midi": 58,
      "hit": false,
      "t": 54500,
      "d": 500,
      "v": 124
    },
    {
      "midi": 61,
      "hit": false,
      "t": 55000,
      "d": 375,
      "v": 124
    },
    {
      "midi": 58,
      "hit": false,
      "t": 55375,
      "d": 125,
      "v": 124
    },
    {
      "midi": 61,
      "hit": false,
      "t": 55500,
      "d": 500,
      "v": 125
    },
    {
      "midi": 70,
      "hit": false,
      "t": 56000,
      "d": 1000,
      "v": 124
    },
    {
      "midi": 73,
      "hit": false,
      "t": 56000,
      "d": 1000,
      "v": 122
    },
    {
      "midi": 54,
      "hit": false,
      "t": 56000,
      "d": 500,
      "v": 105
    },
    {
      "midi": 58,
      "hit": false,
      "t": 56000,
      "d": 500,
      "v": 124
    },
    {
      "midi": 61,
      "hit": false,
      "t": 56500,
      "d": 500,
      "v": 122
    },
    {
      "midi": 66,
      "hit": false,
      "t": 57000,
      "d": 1000,
      "v": 105
    },
    {
      "midi": 70,
      "hit": false,
      "t": 57000,
      "d": 1000,
      "v": 124
    },
    {
      "midi": 54,
      "hit": false,
      "t": 57000,
      "d": 500,
      "v": 115
    },
    {
      "midi": 58,
      "hit": false,
      "t": 57000,
      "d": 500,
      "v": 124
    },
    {
      "midi": 61,
      "hit": false,
      "t": 57500,
      "d": 500,
      "v": 123
    },
    {
      "midi": 63,
      "hit": false,
      "t": 58000,
      "d": 1000,
      "v": 102
    },
    {
      "midi": 68,
      "hit": false,
      "t": 58000,
      "d": 1000,
      "v": 123
    },
    {
      "midi": 56,
      "hit": false,
      "t": 58000,
      "d": 500,
      "v": 124
    },
    {
      "midi": 60,
      "hit": false,
      "t": 58500,
      "d": 500,
      "v": 124
    },
    {
      "midi": 66,
      "hit": false,
      "t": 59000,
      "d": 1000,
      "v": 105
    },
    {
      "midi": 70,
      "hit": false,
      "t": 59000,
      "d": 1000,
      "v": 124
    },
    {
      "midi": 60,
      "hit": false,
      "t": 59000,
      "d": 500,
      "v": 124
    },
    {
      "midi": 63,
      "hit": false,
      "t": 59000,
      "d": 500,
      "v": 119
    },
    {
      "midi": 56,
      "hit": false,
      "t": 59500,
      "d": 500,
      "v": 124
    },
    {
      "midi": 65,
      "hit": false,
      "t": 60000,
      "d": 4000,
      "v": 119
    },
    {
      "midi": 73,
      "hit": false,
      "t": 60000,
      "d": 4000,
      "v": 124
    },
    {
      "midi": 49,
      "hit": false,
      "t": 60000,
      "d": 500,
      "v": 119
    },
    {
      "midi": 56,
      "hit": false,
      "t": 60500,
      "d": 375,
      "v": 124
    },
    {
      "midi": 58,
      "hit": false,
      "t": 60875,
      "d": 125,
      "v": 119
    },
    {
      "midi": 56,
      "hit": false,
      "t": 61000,
      "d": 375,
      "v": 125
    },
    {
      "midi": 58,
      "hit": false,
      "t": 61375,
      "d": 125,
      "v": 124
    },
    {
      "midi": 61,
      "hit": false,
      "t": 61500,
      "d": 500,
      "v": 125
    },
    {
      "midi": 49,
      "hit": false,
      "t": 62000,
      "d": 500,
      "v": 124
    },
    {
      "midi": 56,
      "hit": false,
      "t": 62500,
      "d": 375,
      "v": 125
    },
    {
      "midi": 58,
      "hit": false,
      "t": 62875,
      "d": 125,
      "v": 124
    },
    {
      "midi": 56,
      "hit": false,
      "t": 63000,
      "d": 375,
      "v": 124
    },
    {
      "midi": 58,
      "hit": false,
      "t": 63375,
      "d": 125,
      "v": 124
    },
    {
      "midi": 61,
      "hit": false,
      "t": 63500,
      "d": 500,
      "v": 127
    },
    {
      "midi": 65,
      "hit": false,
      "t": 64000,
      "d": 375,
      "v": 124
    },
    {
      "midi": 49,
      "hit": false,
      "t": 64000,
      "d": 500,
      "v": 111
    },
    {
      "midi": 64,
      "hit": false,
      "t": 64375,
      "d": 125,
      "v": 107
    },
    {
      "midi": 65,
      "hit": false,
      "t": 64500,
      "d": 250,
      "v": 118
    },
    {
      "midi": 56,
      "hit": false,
      "t": 64500,
      "d": 500,
      "v": 123
    },
    {
      "midi": 68,
      "hit": false,
      "t": 64750,
      "d": 750,
      "v": 110
    },
    {
      "midi": 49,
      "hit": false,
      "t": 65000,
      "d": 500,
      "v": 96
    },
    {
      "midi": 65,
      "hit": false,
      "t": 65500,
      "d": 500,
      "v": 115
    },
    {
      "midi": 56,
      "hit": false,
      "t": 65500,
      "d": 500,
      "v": 123
    },
    {
      "midi": 68,
      "hit": false,
      "t": 66000,
      "d": 375,
      "v": 124
    },
    {
      "midi": 49,
      "hit": false,
      "t": 66000,
      "d": 500,
      "v": 97
    },
    {
      "midi": 70,
      "hit": false,
      "t": 66375,
      "d": 125,
      "v": 124
    },
    {
      "midi": 68,
      "hit": false,
      "t": 66500,
      "d": 250,
      "v": 124
    },
    {
      "midi": 56,
      "hit": false,
      "t": 66500,
      "d": 500,
      "v": 115
    },
    {
      "midi": 65,
      "hit": false,
      "t": 66750,
      "d": 1000,
      "v": 124
    },
    {
      "midi": 73,
      "hit": false,
      "t": 66750,
      "d": 1000,
      "v": 124
    },
    {
      "midi": 49,
      "hit": false,
      "t": 67000,
      "d": 500,
      "v": 91
    },
    {
      "midi": 56,
      "hit": false,
      "t": 67500,
      "d": 500,
      "v": 115
    },
    {
      "midi": 65,
      "hit": false,
      "t": 68000,
      "d": 250,
      "v": 121
    },
    {
      "midi": 73,
      "hit": false,
      "t": 68000,
      "d": 250,
      "v": 115
    },
    {
      "midi": 49,
      "hit": false,
      "t": 68000,
      "d": 500,
      "v": 79
    },
    {
      "midi": 77,
      "hit": false,
      "t": 68250,
      "d": 500,
      "v": 123
    },
    {
      "midi": 56,
      "hit": false,
      "t": 68500,
      "d": 500,
      "v": 123
    },
    {
      "midi": 73,
      "hit": false,
      "t": 68750,
      "d": 750,
      "v": 125
    },
    {
      "midi": 49,
      "hit": false,
      "t": 69000,
      "d": 500,
      "v": 111
    },
    {
      "midi": 70,
      "hit": false,
      "t": 69500,
      "d": 500,
      "v": 124
    },
    {
      "midi": 56,
      "hit": false,
      "t": 69500,
      "d": 500,
      "v": 123
    },
    {
      "midi": 66,
      "hit": false,
      "t": 70000,
      "d": 500,
      "v": 124
    },
    {
      "midi": 75,
      "hit": false,
      "t": 70000,
      "d": 500,
      "v": 124
    },
    {
      "midi": 56,
      "hit": false,
      "t": 70000,
      "d": 1000,
      "v": 124
    },
    {
      "midi": 68,
      "hit": false,
      "t": 70500,
      "d": 375,
      "v": 124
    },
    {
      "midi": 70,
      "hit": false,
      "t": 70875,
      "d": 125,
      "v": 123
    },
    {
      "midi": 72,
      "hit": false,
      "t": 71000,
      "d": 375,
      "v": 125
    },
    {
      "midi": 56,
      "hit": false,
      "t": 71000,
      "d": 1000,
      "v": 126
    },
    {
      "midi": 70,
      "hit": false,
      "t": 71375,
      "d": 125,
      "v": 124
    },
    {
      "midi": 68,
      "hit": false,
      "t": 71500,
      "d": 500,
      "v": 124
    },
    {
      "midi": 66,
      "hit": false,
      "t": 72000,
      "d": 375,
      "v": 89
    },
    {
      "midi": 72,
      "hit": false,
      "t": 72000,
      "d": 375,
      "v": 124
    },
    {
      "midi": 56,
      "hit": false,
      "t": 72000,
      "d": 1000,
      "v": 126
    },
    {
      "midi": 73,
      "hit": false,
      "t": 72375,
      "d": 125,
      "v": 124
    },
    {
      "midi": 74,
      "hit": false,
      "t": 72500,
      "d": 375,
      "v": 123
    },
    {
      "midi": 75,
      "hit": false,
      "t": 72875,
      "d": 125,
      "v": 124
    },
    {
      "midi": 66,
      "hit": false,
      "t": 73000,
      "d": 375,
      "v": 111
    },
    {
      "midi": 72,
      "hit": false,
      "t": 73000,
      "d": 375,
      "v": 125
    },
    {
      "midi": 56,
      "hit": false,
      "t": 73000,
      "d": 1000,
      "v": 125
    },
    {
      "midi": 73,
      "hit": false,
      "t": 73375,
      "d": 125,
      "v": 119
    },
    {
      "midi": 74,
      "hit": false,
      "t": 73500,
      "d": 375,
      "v": 118
    },
    {
      "midi": 75,
      "hit": false,
      "t": 73875,
      "d": 125,
      "v": 124
    },
    {
      "midi": 66,
      "hit": false,
      "t": 74000,
      "d": 250,
      "v": 111
    },
    {
      "midi": 72,
      "hit": false,
      "t": 74000,
      "d": 250,
      "v": 125
    },
    {
      "midi": 56,
      "hit": false,
      "t": 74000,
      "d": 1000,
      "v": 125
    },
    {
      "midi": 63,
      "hit": false,
      "t": 74000,
      "d": 1000,
      "v": 124
    },
    {
      "midi": 71,
      "hit": false,
      "t": 74250,
      "d": 500,
      "v": 122
    },
    {
      "midi": 66,
      "hit": false,
      "t": 74750,
      "d": 1000,
      "v": 122
    },
    {
      "midi": 70,
      "hit": false,
      "t": 74750,
      "d": 1000,
      "v": 125
    },
    {
      "midi": 60,
      "hit": false,
      "t": 75000,
      "d": 500,
      "v": 125
    },
    {
      "midi": 56,
      "hit": false,
      "t": 75500,
      "d": 500,
      "v": 124
    },
    {
      "midi": 66,
      "hit": false,
      "t": 76000,
      "d": 500,
      "v": 119
    },
    {
      "midi": 72,
      "hit": false,
      "t": 76000,
      "d": 500,
      "v": 125
    },
    {
      "midi": 56,
      "hit": false,
      "t": 76000,
      "d": 500,
      "v": 123
    },
    {
      "midi": 73,
      "hit": false,
      "t": 76500,
      "d": 500,
      "v": 123
    },
    {
      "midi": 58,
      "hit": false,
      "t": 76500,
      "d": 500,
      "v": 119
    },
    {
      "midi": 74,
      "hit": false,
      "t": 77000,
      "d": 500,
      "v": 123
    },
    {
      "midi": 59,
      "hit": false,
      "t": 77000,
      "d": 500,
      "v": 123
    },
    {
      "midi": 75,
      "hit": false,
      "t": 77500,
      "d": 500,
      "v": 124
    },
    {
      "midi": 60,
      "hit": false,
      "t": 77500,
      "d": 500,
      "v": 124
    },
    {
      "midi": 68,
      "hit": false,
      "t": 78000,
      "d": 250,
      "v": 99
    },
    {
      "midi": 77,
      "hit": false,
      "t": 78000,
      "d": 250,
      "v": 124
    },
    {
      "midi": 61,
      "hit": false,
      "t": 78000,
      "d": 1500,
      "v": 109
    },
    {
      "midi": 67,
      "hit": false,
      "t": 78250,
      "d": 250,
      "v": 117
    },
    {
      "midi": 76,
      "hit": false,
      "t": 78250,
      "d": 250,
      "v": 115
    },
    {
      "midi": 66,
      "hit": false,
      "t": 78500,
      "d": 250,
      "v": 118
    },
    {
      "midi": 75,
      "hit": false,
      "t": 78500,
      "d": 250,
      "v": 125
    },
    {
      "midi": 65,
      "hit": false,
      "t": 78750,
      "d": 1000,
      "v": 121
    },
    {
      "midi": 73,
      "hit": false,
      "t": 78750,
      "d": 1000,
      "v": 123
    },
    {
      "midi": 56,
      "hit": false,
      "t": 79500,
      "d": 500,
      "v": 124
    },
    {
      "midi": 65,
      "hit": false,
      "t": 80000,
      "d": 375,
      "v": 121
    },
    {
      "midi": 49,
      "hit": false,
      "t": 80000,
      "d": 500,
      "v": 124
    },
    {
      "midi": 64,
      "hit": false,
      "t": 80375,
      "d": 125,
      "v": 97
    },
    {
      "midi": 65,
      "hit": false,
      "t": 80500,
      "d": 250,
      "v": 125
    },
    {
      "midi": 56,
      "hit": false,
      "t": 80500,
      "d": 500,
      "v": 124
    },
    {
      "midi": 68,
      "hit": false,
      "t": 80750,
      "d": 750,
      "v": 123
    },
    {
      "midi": 49,
      "hit": false,
      "t": 81000,
      "d": 500,
      "v": 93
    },
    {
      "midi": 65,
      "hit": false,
      "t": 81500,
      "d": 500,
      "v": 123
    },
    {
      "midi": 56,
      "hit": false,
      "t": 81500,
      "d": 500,
      "v": 119
    },
    {
      "midi": 68,
      "hit": false,
      "t": 82000,
      "d": 375,
      "v": 124
    },
    {
      "midi": 49,
      "hit": false,
      "t": 82000,
      "d": 500,
      "v": 115
    },
    {
      "midi": 70,
      "hit": false,
      "t": 82375,
      "d": 125,
      "v": 124
    },
    {
      "midi": 68,
      "hit": false,
      "t": 82500,
      "d": 250,
      "v": 124
    },
    {
      "midi": 56,
      "hit": false,
      "t": 82500,
      "d": 500,
      "v": 109
    },
    {
      "midi": 65,
      "hit": false,
      "t": 82750,
      "d": 1000,
      "v": 106
    },
    {
      "midi": 73,
      "hit": false,
      "t": 82750,
      "d": 1000,
      "v": 123
    },
    {
      "midi": 49,
      "hit": false,
      "t": 83000,
      "d": 500,
      "v": 102
    },
    {
      "midi": 56,
      "hit": false,
      "t": 83500,
      "d": 500,
      "v": 109
    },
    {
      "midi": 65,
      "hit": false,
      "t": 84000,
      "d": 250,
      "v": 113
    },
    {
      "midi": 77,
      "hit": false,
      "t": 84000,
      "d": 250,
      "v": 124
    },
    {
      "midi": 49,
      "hit": false,
      "t": 84000,
      "d": 500,
      "v": 123
    },
    {
      "midi": 77,
      "hit": false,
      "t": 84250,
      "d": 500,
      "v": 125
    },
    {
      "midi": 56,
      "hit": false,
      "t": 84500,
      "d": 500,
      "v": 124
    },
    {
      "midi": 75,
      "hit": false,
      "t": 84750,
      "d": 750,
      "v": 124
    },
    {
      "midi": 59,
      "hit": false,
      "t": 85000,
      "d": 500,
      "v": 107
    },
    {
      "midi": 65,
      "hit": false,
      "t": 85500,
      "d": 500,
      "v": 123
    },
    {
      "midi": 70,
      "hit": false,
      "t": 85500,
      "d": 500,
      "v": 125
    },
    {
      "midi": 49,
      "hit": false,
      "t": 85500,
      "d": 500,
      "v": 122
    },
    {
      "midi": 73,
      "hit": false,
      "t": 86000,
      "d": 500,
      "v": 123
    },
    {
      "midi": 54,
      "hit": false,
      "t": 86000,
      "d": 2000,
      "v": 124
    },
    {
      "midi": 58,
      "hit": false,
      "t": 86000,
      "d": 2000,
      "v": 124
    },
    {
      "midi": 61,
      "hit": false,
      "t": 86500,
      "d": 500,
      "v": 111
    },
    {
      "midi": 63,
      "hit": false,
      "t": 87000,
      "d": 500,
      "v": 118
    },
    {
      "midi": 65,
      "hit": false,
      "t": 87500,
      "d": 500,
      "v": 124
    },
    {
      "midi": 66,
      "hit": false,
      "t": 88000,
      "d": 375,
      "v": 124
    },
    {
      "midi": 73,
      "hit": false,
      "t": 88000,
      "d": 375,
      "v": 118
    },
    {
      "midi": 54,
      "hit": false,
      "t": 88000,
      "d": 750,
      "v": 122
    },
    {
      "midi": 58,
      "hit": false,
      "t": 88000,
      "d": 750,
      "v": 124
    },
    {
      "midi": 70,
      "hit": false,
      "t": 88375,
      "d": 125,
      "v": 124
    },
    {
      "midi": 73,
      "hit": false,
      "t": 88500,
      "d": 250,
      "v": 122
    },
    {
      "midi": 69,
      "hit": false,
      "t": 88750,
      "d": 500,
      "v": 71
    },
    {
      "midi": 76,
      "hit": false,
      "t": 88750,
      "d": 500,
      "v": 119
    },
    {
      "midi": 55,
      "hit": false,
      "t": 88750,
      "d": 1000,
      "v": 124
    },
    {
      "midi": 61,
      "hit": false,
      "t": 88750,
      "d": 1000,
      "v": 111
    },
    {
      "midi": 75,
      "hit": false,
      "t": 89250,
      "d": 750,
      "v": 125
    },
    {
      "midi": 68,
      "hit": false,
      "t": 90000,
      "d": 375,
      "v": 124
    },
    {
      "midi": 73,
      "hit": false,
      "t": 90000,
      "d": 375,
      "v": 119
    },
    {
      "midi": 56,
      "hit": false,
      "t": 90000,
      "d": 750,
      "v": 124
    },
    {
      "midi": 65,
      "hit": false,
      "t": 90000,
      "d": 750,
      "v": 96
    },
    {
      "midi": 70,
      "hit": false,
      "t": 90375,
      "d": 375,
      "v": 117
    },
    {
      "midi": 73,
      "hit": false,
      "t": 90500,
      "d": 250,
      "v": 109
    },
    {
      "midi": 68,
      "hit": false,
      "t": 90750,
      "d": 500,
      "v": 123
    },
    {
      "midi": 72,
      "hit": false,
      "t": 90750,
      "d": 500,
      "v": 124
    },
    {
      "midi": 58,
      "hit": false,
      "t": 90750,
      "d": 1000,
      "v": 124
    },
    {
      "midi": 62,
      "hit": false,
      "t": 90750,
      "d": 1000,
      "v": 125
    },
    {
      "midi": 70,
      "hit": false,
      "t": 91250,
      "d": 750,
      "v": 124
    },
    {
      "midi": 67,
      "hit": false,
      "t": 92000,
      "d": 500,
      "v": 103
    },
    {
      "midi": 77,
      "hit": false,
      "t": 92000,
      "d": 500,
      "v": 118
    },
    {
      "midi": 51,
      "hit": false,
      "t": 92000,
      "d": 1000,
      "v": 125
    },
    {
      "midi": 61,
      "hit": false,
      "t": 92000,
      "d": 1000,
      "v": 119
    },
    {
      "midi": 77,
      "hit": false,
      "t": 92500,
      "d": 500,
      "v": 124
    },
    {
      "midi": 66,
      "hit": false,
      "t": 93000,
      "d": 500,
      "v": 119
    },
    {
      "midi": 77,
      "hit": false,
      "t": 93000,
      "d": 500,
      "v": 124
    },
    {
      "midi": 56,
      "hit": false,
      "t": 93000,
      "d": 1000,
      "v": 124
    },
    {
      "midi": 60,
      "hit": false,
      "t": 93000,
      "d": 1000,
      "v": 119
    },
    {
      "midi": 77,
      "hit": false,
      "t": 93500,
      "d": 500,
      "v": 124
    },
    {
      "midi": 65,
      "hit": false,
      "t": 94000,
      "d": 2000,
      "v": 119
    },
    {
      "midi": 73,
      "hit": false,
      "t": 94000,
      "d": 2000,
      "v": 119
    },
    {
      "midi": 61,
      "hit": false,
      "t": 94000,
      "d": 375,
      "v": 109
    },
    {
      "midi": 58,
      "hit": false,
      "t": 94375,
      "d": 125,
      "v": 124
    },
    {
      "midi": 56,
      "hit": false,
      "t": 94500,
      "d": 375,
      "v": 125
    },
    {
      "midi": 58,
      "hit": false,
      "t": 94875,
      "d": 125,
      "v": 123
    },
    {
      "midi": 49,
      "hit": false,
      "t": 95000,
      "d": 1000,
      "v": 119
    },
    {
      "midi": 65,
      "hit": false,
      "t": 96000,
      "d": 375,
      "v": 118
    },
    {
      "midi": 73,
      "hit": false,
      "t": 96000,
      "d": 375,
      "v": 115
    },
    {
      "midi": 58,
      "hit": false,
      "t": 96000,
      "d": 2000,
      "v": 125
    },
    {
      "midi": 61,
      "hit": false,
      "t": 96000,
      "d": 2000,
      "v": 105
    },
    {
      "midi": 70,
      "hit": false,
      "t": 96375,
      "d": 125,
      "v": 121
    },
    {
      "midi": 73,
      "hit": false,
      "t": 96500,
      "d": 375,
      "v": 123
    },
    {
      "midi": 70,
      "hit": false,
      "t": 96875,
      "d": 125,
      "v": 124
    },
    {
      "midi": 73,
      "hit": false,
      "t": 97000,
      "d": 375,
      "v": 123
    },
    {
      "midi": 70,
      "hit": false,
      "t": 97375,
      "d": 125,
      "v": 124
    },
    {
      "midi": 73,
      "hit": false,
      "t": 97500,
      "d": 375,
      "v": 123
    },
    {
      "midi": 70,
      "hit": false,
      "t": 97875,
      "d": 125,
      "v": 124
    },
    {
      "midi": 65,
      "hit": false,
      "t": 98000,
      "d": 375,
      "v": 117
    },
    {
      "midi": 73,
      "hit": false,
      "t": 98000,
      "d": 375,
      "v": 123
    },
    {
      "midi": 58,
      "hit": false,
      "t": 98000,
      "d": 2000,
      "v": 126
    },
    {
      "midi": 61,
      "hit": false,
      "t": 98000,
      "d": 2000,
      "v": 124
    },
    {
      "midi": 70,
      "hit": false,
      "t": 98375,
      "d": 125,
      "v": 124
    },
    {
      "midi": 73,
      "hit": false,
      "t": 98500,
      "d": 375,
      "v": 123
    },
    {
      "midi": 70,
      "hit": false,
      "t": 98875,
      "d": 125,
      "v": 118
    },
    {
      "midi": 73,
      "hit": false,
      "t": 99000,
      "d": 500,
      "v": 124
    },
    {
      "midi": 66,
      "hit": false,
      "t": 99500,
      "d": 500,
      "v": 124
    },
    {
      "midi": 63,
      "hit": false,
      "t": 100000,
      "d": 500,
      "v": 121
    },
    {
      "midi": 68,
      "hit": false,
      "t": 100000,
      "d": 500,
      "v": 124
    },
    {
      "midi": 56,
      "hit": false,
      "t": 100000,
      "d": 2000,
      "v": 125
    },
    {
      "midi": 60,
      "hit": false,
      "t": 100000,
      "d": 2000,
      "v": 124
    },
    {
      "midi": 68,
      "hit": false,
      "t": 100500,
      "d": 375,
      "v": 124
    },
    {
      "midi": 68,
      "hit": false,
      "t": 100875,
      "d": 125,
      "v": 124
    },
    {
      "midi": 68,
      "hit": false,
      "t": 101000,
      "d": 500,
      "v": 124
    },
    {
      "midi": 70,
      "hit": false,
      "t": 101500,
      "d": 500,
      "v": 117
    },
    {
      "midi": 65,
      "hit": false,
      "t": 102000,
      "d": 2000,
      "v": 123
    },
    {
      "midi": 58,
      "hit": false,
      "t": 102000,
      "d": 375,
      "v": 124
    },
    {
      "midi": 60,
      "hit": false,
      "t": 102375,
      "d": 125,
      "v": 124
    },
    {
      "midi": 61,
      "hit": false,
      "t": 102500,
      "d": 375,
      "v": 124
    },
    {
      "midi": 63,
      "hit": false,
      "t": 102875,
      "d": 125,
      "v": 126
    },
    {
      "midi": 61,
      "hit": false,
      "t": 103000,
      "d": 500,
      "v": 125
    },
    {
      "midi": 58,
      "hit": false,
      "t": 103500,
      "d": 500,
      "v": 125
    },
    {
      "midi": 65,
      "hit": false,
      "t": 104000,
      "d": 1000,
      "v": 119
    },
    {
      "midi": 70,
      "hit": false,
      "t": 104000,
      "d": 1000,
      "v": 124
    },
    {
      "midi": 58,
      "hit": false,
      "t": 104000,
      "d": 500,
      "v": 124
    },
    {
      "midi": 61,
      "hit": false,
      "t": 104000,
      "d": 500,
      "v": 111
    },
    {
      "midi": 58,
      "hit": false,
      "t": 104500,
      "d": 1000,
      "v": 124
    },
    {
      "midi": 61,
      "hit": false,
      "t": 104500,
      "d": 1000,
      "v": 107
    },
    {
      "midi": 72,
      "hit": false,
      "t": 105000,
      "d": 1000,
      "v": 125
    },
    {
      "midi": 58,
      "hit": false,
      "t": 105500,
      "d": 500,
      "v": 123
    },
    {
      "midi": 61,
      "hit": false,
      "t": 105500,
      "d": 500,
      "v": 105
    },
    {
      "midi": 73,
      "hit": false,
      "t": 106000,
      "d": 1000,
      "v": 124
    },
    {
      "midi": 58,
      "hit": false,
      "t": 106000,
      "d": 500,
      "v": 124
    },
    {
      "midi": 61,
      "hit": false,
      "t": 106000,
      "d": 500,
      "v": 111
    },
    {
      "midi": 58,
      "hit": false,
      "t": 106500,
      "d": 1000,
      "v": 124
    },
    {
      "midi": 61,
      "hit": false,
      "t": 106500,
      "d": 1000,
      "v": 95
    },
    {
      "midi": 77,
      "hit": false,
      "t": 107000,
      "d": 1000,
      "v": 117
    },
    {
      "midi": 58,
      "hit": false,
      "t": 107500,
      "d": 500,
      "v": 124
    },
    {
      "midi": 61,
      "hit": false,
      "t": 107500,
      "d": 500,
      "v": 109
    },
    {
      "midi": 65,
      "hit": false,
      "t": 108000,
      "d": 4000,
      "v": 123
    },
    {
      "midi": 77,
      "hit": false,
      "t": 108000,
      "d": 4000,
      "v": 124
    },
    {
      "midi": 57,
      "hit": false,
      "t": 108000,
      "d": 500,
      "v": 122
    },
    {
      "midi": 60,
      "hit": false,
      "t": 108000,
      "d": 500,
      "v": 124
    },
    {
      "midi": 58,
      "hit": false,
      "t": 108500,
      "d": 500,
      "v": 124
    },
    {
      "midi": 61,
      "hit": false,
      "t": 108500,
      "d": 500,
      "v": 107
    },
    {
      "midi": 57,
      "hit": false,
      "t": 109000,
      "d": 500,
      "v": 109
    },
    {
      "midi": 60,
      "hit": false,
      "t": 109000,
      "d": 500,
      "v": 124
    },
    {
      "midi": 53,
      "hit": false,
      "t": 109500,
      "d": 500,
      "v": 124
    },
    {
      "midi": 57,
      "hit": false,
      "t": 110000,
      "d": 500,
      "v": 111
    },
    {
      "midi": 60,
      "hit": false,
      "t": 110000,
      "d": 500,
      "v": 119
    },
    {
      "midi": 58,
      "hit": false,
      "t": 110500,
      "d": 500,
      "v": 124
    },
    {
      "midi": 61,
      "hit": false,
      "t": 110500,
      "d": 500,
      "v": 118
    },
    {
      "midi": 57,
      "hit": false,
      "t": 111000,
      "d": 500,
      "v": 119
    },
    {
      "midi": 60,
      "hit": false,
      "t": 111000,
      "d": 500,
      "v": 124
    },
    {
      "midi": 53,
      "hit": false,
      "t": 111500,
      "d": 500,
      "v": 124
    },
    {
      "midi": 73,
      "hit": false,
      "t": 112000,
      "d": 1000,
      "v": 111
    },
    {
      "midi": 82,
      "hit": false,
      "t": 112000,
      "d": 1000,
      "v": 124
    },
    {
      "midi": 58,
      "hit": false,
      "t": 112000,
      "d": 500,
      "v": 125
    },
    {
      "midi": 65,
      "hit": false,
      "t": 112500,
      "d": 500,
      "v": 123
    },
    {
      "midi": 72,
      "hit": false,
      "t": 113000,
      "d": 1000,
      "v": 115
    },
    {
      "midi": 80,
      "hit": false,
      "t": 113000,
      "d": 1000,
      "v": 124
    },
    {
      "midi": 63,
      "hit": false,
      "t": 113000,
      "d": 500,
      "v": 125
    },
    {
      "midi": 56,
      "hit": false,
      "t": 113500,
      "d": 500,
      "v": 125
    },
    {
      "midi": 73,
      "hit": false,
      "t": 114000,
      "d": 1000,
      "v": 119
    },
    {
      "midi": 77,
      "hit": false,
      "t": 114000,
      "d": 1000,
      "v": 124
    },
    {
      "midi": 58,
      "hit": false,
      "t": 114000,
      "d": 500,
      "v": 124
    },
    {
      "midi": 65,
      "hit": false,
      "t": 114500,
      "d": 500,
      "v": 123
    },
    {
      "midi": 67,
      "hit": false,
      "t": 115000,
      "d": 500,
      "v": 96
    },
    {
      "midi": 75,
      "hit": false,
      "t": 115000,
      "d": 500,
      "v": 124
    },
    {
      "midi": 58,
      "hit": false,
      "t": 115000,
      "d": 1000,
      "v": 125
    },
    {
      "midi": 73,
      "hit": false,
      "t": 115500,
      "d": 500,
      "v": 124
    },
    {
      "midi": 66,
      "hit": false,
      "t": 116000,
      "d": 1000,
      "v": 123
    },
    {
      "midi": 75,
      "hit": false,
      "t": 116000,
      "d": 1000,
      "v": 125
    },
    {
      "midi": 51,
      "hit": false,
      "t": 116000,
      "d": 500,
      "v": 123
    },
    {
      "midi": 58,
      "hit": false,
      "t": 116500,
      "d": 1500,
      "v": 124
    },
    {
      "midi": 75,
      "hit": false,
      "t": 117000,
      "d": 500,
      "v": 124
    },
    {
      "midi": 70,
      "hit": false,
      "t": 117500,
      "d": 2000,
      "v": 125
    },
    {
      "midi": 63,
      "hit": false,
      "t": 118000,
      "d": 375,
      "v": 124
    },
    {
      "midi": 61,
      "hit": false,
      "t": 118375,
      "d": 125,
      "v": 122
    },
    {
      "midi": 58,
      "hit": false,
      "t": 118500,
      "d": 500,
      "v": 124
    },
    {
      "midi": 61,
      "hit": false,
      "t": 119000,
      "d": 375,
      "v": 124
    },
    {
      "midi": 58,
      "hit": false,
      "t": 119375,
      "d": 125,
      "v": 124
    },
    {
      "midi": 61,
      "hit": false,
      "t": 119500,
      "d": 500,
      "v": 125
    },
    {
      "midi": 70,
      "hit": false,
      "t": 120000,
      "d": 1000,
      "v": 124
    },
    {
      "midi": 73,
      "hit": false,
      "t": 120000,
      "d": 1000,
      "v": 122
    },
    {
      "midi": 54,
      "hit": false,
      "t": 120000,
      "d": 500,
      "v": 105
    },
    {
      "midi": 58,
      "hit": false,
      "t": 120000,
      "d": 500,
      "v": 124
    },
    {
      "midi": 61,
      "hit": false,
      "t": 120500,
      "d": 500,
      "v": 122
    },
    {
      "midi": 66,
      "hit": false,
      "t": 121000,
      "d": 1000,
      "v": 105
    },
    {
      "midi": 70,
      "hit": false,
      "t": 121000,
      "d": 1000,
      "v": 124
    },
    {
      "midi": 54,
      "hit": false,
      "t": 121000,
      "d": 500,
      "v": 115
    },
    {
      "midi": 58,
      "hit": false,
      "t": 121000,
      "d": 500,
      "v": 124
    },
    {
      "midi": 61,
      "hit": false,
      "t": 121500,
      "d": 500,
      "v": 123
    },
    {
      "midi": 63,
      "hit": false,
      "t": 122000,
      "d": 1000,
      "v": 102
    },
    {
      "midi": 68,
      "hit": false,
      "t": 122000,
      "d": 1000,
      "v": 123
    },
    {
      "midi": 56,
      "hit": false,
      "t": 122000,
      "d": 500,
      "v": 124
    },
    {
      "midi": 60,
      "hit": false,
      "t": 122500,
      "d": 500,
      "v": 124
    },
    {
      "midi": 66,
      "hit": false,
      "t": 123000,
      "d": 1000,
      "v": 105
    },
    {
      "midi": 70,
      "hit": false,
      "t": 123000,
      "d": 1000,
      "v": 124
    },
    {
      "midi": 60,
      "hit": false,
      "t": 123000,
      "d": 500,
      "v": 124
    },
    {
      "midi": 63,
      "hit": false,
      "t": 123000,
      "d": 500,
      "v": 119
    },
    {
      "midi": 56,
      "hit": false,
      "t": 123500,
      "d": 500,
      "v": 124
    },
    {
      "midi": 65,
      "hit": false,
      "t": 124000,
      "d": 4000,
      "v": 119
    },
    {
      "midi": 73,
      "hit": false,
      "t": 124000,
      "d": 4000,
      "v": 124
    },
    {
      "midi": 49,
      "hit": false,
      "t": 124000,
      "d": 500,
      "v": 119
    },
    {
      "midi": 56,
      "hit": false,
      "t": 124500,
      "d": 375,
      "v": 124
    },
    {
      "midi": 58,
      "hit": false,
      "t": 124875,
      "d": 125,
      "v": 119
    },
    {
      "midi": 56,
      "hit": false,
      "t": 125000,
      "d": 375,
      "v": 125
    },
    {
      "midi": 58,
      "hit": false,
      "t": 125375,
      "d": 125,
      "v": 124
    },
    {
      "midi": 61,
      "hit": false,
      "t": 125500,
      "d": 500,
      "v": 125
    },
    {
      "midi": 49,
      "hit": false,
      "t": 126000,
      "d": 500,
      "v": 124
    },
    {
      "midi": 56,
      "hit": false,
      "t": 126500,
      "d": 375,
      "v": 125
    },
    {
      "midi": 58,
      "hit": false,
      "t": 126875,
      "d": 125,
      "v": 124
    },
    {
      "midi": 56,
      "hit": false,
      "t": 127000,
      "d": 375,
      "v": 124
    },
    {
      "midi": 58,
      "hit": false,
      "t": 127375,
      "d": 125,
      "v": 124
    },
    {
      "midi": 61,
      "hit": false,
      "t": 127500,
      "d": 500,
      "v": 127
    },
    {
      "midi": 65,
      "hit": false,
      "t": 128000,
      "d": 375,
      "v": 124
    },
    {
      "midi": 49,
      "hit": false,
      "t": 128000,
      "d": 500,
      "v": 111
    },
    {
      "midi": 64,
      "hit": false,
      "t": 128375,
      "d": 125,
      "v": 107
    },
    {
      "midi": 65,
      "hit": false,
      "t": 128500,
      "d": 250,
      "v": 118
    },
    {
      "midi": 56,
      "hit": false,
      "t": 128500,
      "d": 500,
      "v": 123
    },
    {
      "midi": 68,
      "hit": false,
      "t": 128750,
      "d": 750,
      "v": 110
    },
    {
      "midi": 49,
      "hit": false,
      "t": 129000,
      "d": 500,
      "v": 96
    },
    {
      "midi": 65,
      "hit": false,
      "t": 129500,
      "d": 500,
      "v": 115
    },
    {
      "midi": 56,
      "hit": false,
      "t": 129500,
      "d": 500,
      "v": 123
    },
    {
      "midi": 68,
      "hit": false,
      "t": 130000,
      "d": 375,
      "v": 124
    },
    {
      "midi": 49,
      "hit": false,
      "t": 130000,
      "d": 500,
      "v": 97
    },
    {
      "midi": 70,
      "hit": false,
      "t": 130375,
      "d": 125,
      "v": 124
    },
    {
      "midi": 68,
      "hit": false,
      "t": 130500,
      "d": 250,
      "v": 124
    },
    {
      "midi": 56,
      "hit": false,
      "t": 130500,
      "d": 500,
      "v": 115
    },
    {
      "midi": 65,
      "hit": false,
      "t": 130750,
      "d": 1000,
      "v": 124
    },
    {
      "midi": 73,
      "hit": false,
      "t": 130750,
      "d": 1000,
      "v": 124
    },
    {
      "midi": 49,
      "hit": false,
      "t": 131000,
      "d": 500,
      "v": 91
    },
    {
      "midi": 56,
      "hit": false,
      "t": 131500,
      "d": 500,
      "v": 115
    },
    {
      "midi": 65,
      "hit": false,
      "t": 132000,
      "d": 250,
      "v": 121
    },
    {
      "midi": 73,
      "hit": false,
      "t": 132000,
      "d": 250,
      "v": 115
    },
    {
      "midi": 49,
      "hit": false,
      "t": 132000,
      "d": 500,
      "v": 79
    },
    {
      "midi": 77,
      "hit": false,
      "t": 132250,
      "d": 500,
      "v": 123
    },
    {
      "midi": 56,
      "hit": false,
      "t": 132500,
      "d": 500,
      "v": 123
    },
    {
      "midi": 73,
      "hit": false,
      "t": 132750,
      "d": 750,
      "v": 125
    },
    {
      "midi": 49,
      "hit": false,
      "t": 133000,
      "d": 500,
      "v": 111
    },
    {
      "midi": 70,
      "hit": false,
      "t": 133500,
      "d": 500,
      "v": 124
    },
    {
      "midi": 56,
      "hit": false,
      "t": 133500,
      "d": 500,
      "v": 123
    },
    {
      "midi": 66,
      "hit": false,
      "t": 134000,
      "d": 500,
      "v": 124
    },
    {
      "midi": 75,
      "hit": false,
      "t": 134000,
      "d": 500,
      "v": 124
    },
    {
      "midi": 56,
      "hit": false,
      "t": 134000,
      "d": 1000,
      "v": 124
    },
    {
      "midi": 68,
      "hit": false,
      "t": 134500,
      "d": 375,
      "v": 124
    },
    {
      "midi": 70,
      "hit": false,
      "t": 134875,
      "d": 125,
      "v": 123
    },
    {
      "midi": 72,
      "hit": false,
      "t": 135000,
      "d": 375,
      "v": 125
    },
    {
      "midi": 56,
      "hit": false,
      "t": 135000,
      "d": 1000,
      "v": 126
    },
    {
      "midi": 70,
      "hit": false,
      "t": 135375,
      "d": 125,
      "v": 124
    },
    {
      "midi": 68,
      "hit": false,
      "t": 135500,
      "d": 500,
      "v": 124
    },
    {
      "midi": 66,
      "hit": false,
      "t": 136000,
      "d": 375,
      "v": 89
    },
    {
      "midi": 72,
      "hit": false,
      "t": 136000,
      "d": 375,
      "v": 124
    },
    {
      "midi": 56,
      "hit": false,
      "t": 136000,
      "d": 1000,
      "v": 126
    },
    {
      "midi": 73,
      "hit": false,
      "t": 136375,
      "d": 125,
      "v": 124
    },
    {
      "midi": 74,
      "hit": false,
      "t": 136500,
      "d": 375,
      "v": 123
    },
    {
      "midi": 75,
      "hit": false,
      "t": 136875,
      "d": 125,
      "v": 124
    },
    {
      "midi": 66,
      "hit": false,
      "t": 137000,
      "d": 375,
      "v": 111
    },
    {
      "midi": 72,
      "hit": false,
      "t": 137000,
      "d": 375,
      "v": 125
    },
    {
      "midi": 56,
      "hit": false,
      "t": 137000,
      "d": 1000,
      "v": 125
    },
    {
      "midi": 73,
      "hit": false,
      "t": 137375,
      "d": 125,
      "v": 119
    },
    {
      "midi": 74,
      "hit": false,
      "t": 137500,
      "d": 375,
      "v": 118
    },
    {
      "midi": 75,
      "hit": false,
      "t": 137875,
      "d": 125,
      "v": 124
    },
    {
      "midi": 66,
      "hit": false,
      "t": 138000,
      "d": 250,
      "v": 111
    },
    {
      "midi": 72,
      "hit": false,
      "t": 138000,
      "d": 250,
      "v": 125
    },
    {
      "midi": 56,
      "hit": false,
      "t": 138000,
      "d": 1000,
      "v": 125
    },
    {
      "midi": 63,
      "hit": false,
      "t": 138000,
      "d": 1000,
      "v": 124
    },
    {
      "midi": 71,
      "hit": false,
      "t": 138250,
      "d": 500,
      "v": 122
    },
    {
      "midi": 66,
      "hit": false,
      "t": 138750,
      "d": 1000,
      "v": 122
    },
    {
      "midi": 70,
      "hit": false,
      "t": 138750,
      "d": 1000,
      "v": 125
    },
    {
      "midi": 60,
      "hit": false,
      "t": 139000,
      "d": 500,
      "v": 125
    },
    {
      "midi": 56,
      "hit": false,
      "t": 139500,
      "d": 500,
      "v": 124
    },
    {
      "midi": 66,
      "hit": false,
      "t": 140000,
      "d": 500,
      "v": 119
    },
    {
      "midi": 72,
      "hit": false,
      "t": 140000,
      "d": 500,
      "v": 125
    },
    {
      "midi": 56,
      "hit": false,
      "t": 140000,
      "d": 500,
      "v": 123
    },
    {
      "midi": 73,
      "hit": false,
      "t": 140500,
      "d": 500,
      "v": 123
    },
    {
      "midi": 58,
      "hit": false,
      "t": 140500,
      "d": 500,
      "v": 119
    },
    {
      "midi": 74,
      "hit": false,
      "t": 141000,
      "d": 500,
      "v": 123
    },
    {
      "midi": 59,
      "hit": false,
      "t": 141000,
      "d": 500,
      "v": 123
    },
    {
      "midi": 75,
      "hit": false,
      "t": 141500,
      "d": 500,
      "v": 124
    },
    {
      "midi": 60,
      "hit": false,
      "t": 141500,
      "d": 500,
      "v": 124
    },
    {
      "midi": 68,
      "hit": false,
      "t": 142000,
      "d": 250,
      "v": 99
    },
    {
      "midi": 77,
      "hit": false,
      "t": 142000,
      "d": 250,
      "v": 124
    },
    {
      "midi": 61,
      "hit": false,
      "t": 142000,
      "d": 1500,
      "v": 109
    },
    {
      "midi": 67,
      "hit": false,
      "t": 142250,
      "d": 250,
      "v": 117
    },
    {
      "midi": 76,
      "hit": false,
      "t": 142250,
      "d": 250,
      "v": 115
    },
    {
      "midi": 66,
      "hit": false,
      "t": 142500,
      "d": 250,
      "v": 118
    },
    {
      "midi": 75,
      "hit": false,
      "t": 142500,
      "d": 250,
      "v": 125
    },
    {
      "midi": 65,
      "hit": false,
      "t": 142750,
      "d": 1000,
      "v": 121
    },
    {
      "midi": 73,
      "hit": false,
      "t": 142750,
      "d": 1000,
      "v": 123
    },
    {
      "midi": 56,
      "hit": false,
      "t": 143500,
      "d": 500,
      "v": 124
    },
    {
      "midi": 65,
      "hit": false,
      "t": 144000,
      "d": 375,
      "v": 121
    },
    {
      "midi": 49,
      "hit": false,
      "t": 144000,
      "d": 500,
      "v": 124
    },
    {
      "midi": 64,
      "hit": false,
      "t": 144375,
      "d": 125,
      "v": 97
    },
    {
      "midi": 65,
      "hit": false,
      "t": 144500,
      "d": 250,
      "v": 125
    },
    {
      "midi": 56,
      "hit": false,
      "t": 144500,
      "d": 500,
      "v": 124
    },
    {
      "midi": 68,
      "hit": false,
      "t": 144750,
      "d": 750,
      "v": 123
    },
    {
      "midi": 49,
      "hit": false,
      "t": 145000,
      "d": 500,
      "v": 93
    },
    {
      "midi": 65,
      "hit": false,
      "t": 145500,
      "d": 500,
      "v": 123
    },
    {
      "midi": 56,
      "hit": false,
      "t": 145500,
      "d": 500,
      "v": 119
    },
    {
      "midi": 68,
      "hit": false,
      "t": 146000,
      "d": 375,
      "v": 124
    },
    {
      "midi": 49,
      "hit": false,
      "t": 146000,
      "d": 500,
      "v": 115
    },
    {
      "midi": 70,
      "hit": false,
      "t": 146375,
      "d": 125,
      "v": 124
    },
    {
      "midi": 68,
      "hit": false,
      "t": 146500,
      "d": 250,
      "v": 124
    },
    {
      "midi": 56,
      "hit": false,
      "t": 146500,
      "d": 500,
      "v": 109
    },
    {
      "midi": 65,
      "hit": false,
      "t": 146750,
      "d": 1000,
      "v": 106
    },
    {
      "midi": 73,
      "hit": false,
      "t": 146750,
      "d": 1000,
      "v": 123
    },
    {
      "midi": 49,
      "hit": false,
      "t": 147000,
      "d": 500,
      "v": 102
    },
    {
      "midi": 56,
      "hit": false,
      "t": 147500,
      "d": 500,
      "v": 109
    },
    {
      "midi": 65,
      "hit": false,
      "t": 148000,
      "d": 250,
      "v": 113
    },
    {
      "midi": 77,
      "hit": false,
      "t": 148000,
      "d": 250,
      "v": 124
    },
    {
      "midi": 49,
      "hit": false,
      "t": 148000,
      "d": 500,
      "v": 123
    },
    {
      "midi": 77,
      "hit": false,
      "t": 148250,
      "d": 500,
      "v": 125
    },
    {
      "midi": 56,
      "hit": false,
      "t": 148500,
      "d": 500,
      "v": 124
    },
    {
      "midi": 75,
      "hit": false,
      "t": 148750,
      "d": 750,
      "v": 124
    },
    {
      "midi": 59,
      "hit": false,
      "t": 149000,
      "d": 500,
      "v": 107
    },
    {
      "midi": 65,
      "hit": false,
      "t": 149500,
      "d": 500,
      "v": 123
    },
    {
      "midi": 70,
      "hit": false,
      "t": 149500,
      "d": 500,
      "v": 125
    },
    {
      "midi": 49,
      "hit": false,
      "t": 149500,
      "d": 500,
      "v": 122
    },
    {
      "midi": 73,
      "hit": false,
      "t": 150000,
      "d": 500,
      "v": 123
    },
    {
      "midi": 54,
      "hit": false,
      "t": 150000,
      "d": 2000,
      "v": 124
    },
    {
      "midi": 58,
      "hit": false,
      "t": 150000,
      "d": 2000,
      "v": 124
    },
    {
      "midi": 61,
      "hit": false,
      "t": 150500,
      "d": 500,
      "v": 111
    },
    {
      "midi": 63,
      "hit": false,
      "t": 151000,
      "d": 500,
      "v": 118
    },
    {
      "midi": 65,
      "hit": false,
      "t": 151500,
      "d": 500,
      "v": 124
    },
    {
      "midi": 66,
      "hit": false,
      "t": 152000,
      "d": 375,
      "v": 124
    },
    {
      "midi": 73,
      "hit": false,
      "t": 152000,
      "d": 375,
      "v": 118
    },
    {
      "midi": 54,
      "hit": false,
      "t": 152000,
      "d": 750,
      "v": 122
    },
    {
      "midi": 58,
      "hit": false,
      "t": 152000,
      "d": 750,
      "v": 124
    },
    {
      "midi": 70,
      "hit": false,
      "t": 152375,
      "d": 125,
      "v": 124
    },
    {
      "midi": 73,
      "hit": false,
      "t": 152500,
      "d": 250,
      "v": 122
    },
    {
      "midi": 69,
      "hit": false,
      "t": 152750,
      "d": 500,
      "v": 71
    },
    {
      "midi": 76,
      "hit": false,
      "t": 152750,
      "d": 500,
      "v": 119
    },
    {
      "midi": 55,
      "hit": false,
      "t": 152750,
      "d": 1000,
      "v": 124
    },
    {
      "midi": 61,
      "hit": false,
      "t": 152750,
      "d": 1000,
      "v": 111
    },
    {
      "midi": 75,
      "hit": false,
      "t": 153250,
      "d": 750,
      "v": 125
    },
    {
      "midi": 68,
      "hit": false,
      "t": 154000,
      "d": 375,
      "v": 124
    },
    {
      "midi": 73,
      "hit": false,
      "t": 154000,
      "d": 375,
      "v": 119
    },
    {
      "midi": 56,
      "hit": false,
      "t": 154000,
      "d": 750,
      "v": 124
    },
    {
      "midi": 65,
      "hit": false,
      "t": 154000,
      "d": 750,
      "v": 96
    },
    {
      "midi": 70,
      "hit": false,
      "t": 154375,
      "d": 375,
      "v": 117
    },
    {
      "midi": 73,
      "hit": false,
      "t": 154500,
      "d": 250,
      "v": 109
    },
    {
      "midi": 68,
      "hit": false,
      "t": 154750,
      "d": 500,
      "v": 123
    },
    {
      "midi": 72,
      "hit": false,
      "t": 154750,
      "d": 500,
      "v": 124
    },
    {
      "midi": 58,
      "hit": false,
      "t": 154750,
      "d": 1000,
      "v": 124
    },
    {
      "midi": 62,
      "hit": false,
      "t": 154750,
      "d": 1000,
      "v": 125
    },
    {
      "midi": 70,
      "hit": false,
      "t": 155250,
      "d": 750,
      "v": 124
    },
    {
      "midi": 67,
      "hit": false,
      "t": 156000,
      "d": 500,
      "v": 103
    },
    {
      "midi": 77,
      "hit": false,
      "t": 156000,
      "d": 500,
      "v": 118
    },
    {
      "midi": 51,
      "hit": false,
      "t": 156000,
      "d": 1000,
      "v": 125
    },
    {
      "midi": 61,
      "hit": false,
      "t": 156000,
      "d": 1000,
      "v": 119
    },
    {
      "midi": 77,
      "hit": false,
      "t": 156500,
      "d": 500,
      "v": 124
    },
    {
      "midi": 66,
      "hit": false,
      "t": 157000,
      "d": 500,
      "v": 119
    },
    {
      "midi": 77,
      "hit": false,
      "t": 157000,
      "d": 500,
      "v": 124
    },
    {
      "midi": 56,
      "hit": false,
      "t": 157000,
      "d": 1000,
      "v": 124
    },
    {
      "midi": 60,
      "hit": false,
      "t": 157000,
      "d": 1000,
      "v": 119
    },
    {
      "midi": 77,
      "hit": false,
      "t": 157500,
      "d": 500,
      "v": 124
    },
    {
      "midi": 65,
      "hit": false,
      "t": 158000,
      "d": 2000,
      "v": 119
    },
    {
      "midi": 73,
      "hit": false,
      "t": 158000,
      "d": 2000,
      "v": 119
    },
    {
      "midi": 61,
      "hit": false,
      "t": 158000,
      "d": 375,
      "v": 109
    },
    {
      "midi": 58,
      "hit": false,
      "t": 158375,
      "d": 125,
      "v": 124
    },
    {
      "midi": 56,
      "hit": false,
      "t": 158500,
      "d": 375,
      "v": 125
    },
    {
      "midi": 58,
      "hit": false,
      "t": 158875,
      "d": 125,
      "v": 123
    },
    {
      "midi": 49,
      "hit": false,
      "t": 159000,
      "d": 1000,
      "v": 119
    }
  ]
}