{
  "jsonPath": "Classical/Operatic Pop/Lara Fabian/tout.json",
  "path": "Classical\\Operatic Pop\\Lara Fabian\\Tout.mid",
  "name": "Tout",
  "difficulty": "Advanced",
  "bpm": 62.000124000248,
  "notes": [
    {
      "midi": 72,
      "hit": false,
      "t": 0,
      "d": 216.73343750000004,
      "v": 127
    },
    {
      "midi": 56,
      "hit": false,
      "t": 0,
      "d": 1572.5775,
      "v": 124
    },
    {
      "midi": 63,
      "hit": false,
      "t": 241.93500000000003,
      "d": 136.08843749999997,
      "v": 64
    },
    {
      "midi": 68,
      "hit": false,
      "t": 483.87,
      "d": 136.08843749999994,
      "v": 68
    },
    {
      "midi": 63,
      "hit": false,
      "t": 725.805,
      "d": 80.64499999999998,
      "v": 54
    },
    {
      "midi": 72,
      "hit": false,
      "t": 967.74,
      "d": 168.85046875000012,
      "v": 127
    },
    {
      "midi": 63,
      "hit": false,
      "t": 1209.6750000000002,
      "d": 120.96749999999997,
      "v": 76
    },
    {
      "midi": 68,
      "hit": false,
      "t": 1451.6100000000001,
      "d": 120.96749999999997,
      "v": 61
    },
    {
      "midi": 63,
      "hit": false,
      "t": 1693.545,
      "d": 483.8699999999999,
      "v": 1
    },
    {
      "midi": 55,
      "hit": false,
      "t": 1935.48,
      "d": 1418.8479687500003,
      "v": 127
    },
    {
      "midi": 70,
      "hit": false,
      "t": 2177.415,
      "d": 161.28999999999996,
      "v": 94
    },
    {
      "midi": 68,
      "hit": false,
      "t": 2419.35,
      "d": 168.8504687499999,
      "v": 118
    },
    {
      "midi": 70,
      "hit": false,
      "t": 2661.285,
      "d": 136.08843750000005,
      "v": 108
    },
    {
      "midi": 63,
      "hit": false,
      "t": 2903.22,
      "d": 103.32640625000022,
      "v": 88
    },
    {
      "midi": 75,
      "hit": false,
      "t": 3145.155,
      "d": 88.20546874999991,
      "v": 127
    },
    {
      "midi": 68,
      "hit": false,
      "t": 3870.9600000000005,
      "d": 257.0559374999998,
      "v": 127
    },
    {
      "midi": 53,
      "hit": false,
      "t": 3870.9600000000005,
      "d": 1572.5774999999999,
      "v": 92
    },
    {
      "midi": 60,
      "hit": false,
      "t": 4112.895,
      "d": 249.49546874999942,
      "v": 56
    },
    {
      "midi": 65,
      "hit": false,
      "t": 4354.83,
      "d": 183.97140624999975,
      "v": 76
    },
    {
      "midi": 60,
      "hit": false,
      "t": 4596.764999999999,
      "d": 176.41093749999982,
      "v": 56
    },
    {
      "midi": 68,
      "hit": false,
      "t": 4838.699999999999,
      "d": 209.1729687500001,
      "v": 118
    },
    {
      "midi": 60,
      "hit": false,
      "t": 5080.634999999999,
      "d": 282.2575000000006,
      "v": 55
    },
    {
      "midi": 65,
      "hit": false,
      "t": 5322.57,
      "d": 531.752968750001,
      "v": 102
    },
    {
      "midi": 60,
      "hit": false,
      "t": 5564.505,
      "d": 564.5150000000012,
      "v": 54
    },
    {
      "midi": 63,
      "hit": false,
      "t": 5806.4400000000005,
      "d": 289.81796875000055,
      "v": 80
    },
    {
      "midi": 51,
      "hit": false,
      "t": 5806.4400000000005,
      "d": 1418.847968750002,
      "v": 92
    },
    {
      "midi": 67,
      "hit": false,
      "t": 6048.375000000001,
      "d": 282.2575000000006,
      "v": 94
    },
    {
      "midi": 65,
      "hit": false,
      "t": 6290.310000000001,
      "d": 201.61250000000018,
      "v": 124
    },
    {
      "midi": 63,
      "hit": false,
      "t": 6532.245000000002,
      "d": 22.68140624999978,
      "v": 61
    },
    {
      "midi": 60,
      "hit": false,
      "t": 6532.245000000002,
      "d": 128.52796874999967,
      "v": 110
    },
    {
      "midi": 67,
      "hit": false,
      "t": 6532.245000000002,
      "d": 224.29390624999996,
      "v": 108
    },
    {
      "midi": 60,
      "hit": false,
      "t": 6774.180000000002,
      "d": 143.64890625000044,
      "v": 54
    },
    {
      "midi": 72,
      "hit": false,
      "t": 7016.1150000000025,
      "d": 95.76593750000029,
      "v": 127
    },
    {
      "midi": 56,
      "hit": false,
      "t": 7499.985000000002,
      "d": 322.58000000000084,
      "v": 76
    },
    {
      "midi": 61,
      "hit": false,
      "t": 7741.920000000003,
      "d": 47.882968750000146,
      "v": 68
    },
    {
      "midi": 65,
      "hit": false,
      "t": 7741.920000000003,
      "d": 337.7009375000007,
      "v": 127
    },
    {
      "midi": 49,
      "hit": false,
      "t": 7741.920000000003,
      "d": 1660.7829687500043,
      "v": 100
    },
    {
      "midi": 56,
      "hit": false,
      "t": 7983.855000000003,
      "d": 183.97140625000065,
      "v": 76
    },
    {
      "midi": 61,
      "hit": false,
      "t": 8225.790000000005,
      "d": 209.1729687499992,
      "v": 94
    },
    {
      "midi": 56,
      "hit": false,
      "t": 8467.725000000004,
      "d": 161.29000000000087,
      "v": 55
    },
    {
      "midi": 63,
      "hit": false,
      "t": 8709.660000000005,
      "d": 168.8504687500008,
      "v": 76
    },
    {
      "midi": 56,
      "hit": false,
      "t": 8951.595000000007,
      "d": 241.9349999999995,
      "v": 54
    },
    {
      "midi": 61,
      "hit": false,
      "t": 9193.530000000006,
      "d": 136.0884375000005,
      "v": 88
    },
    {
      "midi": 56,
      "hit": false,
      "t": 9435.465000000007,
      "d": 564.5150000000012,
      "v": 68
    },
    {
      "midi": 61,
      "hit": false,
      "t": 9677.400000000007,
      "d": 201.6125000000011,
      "v": 108
    },
    {
      "midi": 58,
      "hit": false,
      "t": 9677.400000000007,
      "d": 289.81796875000146,
      "v": 64
    },
    {
      "midi": 64,
      "hit": false,
      "t": 9677.400000000007,
      "d": 531.7529687500028,
      "v": 116
    },
    {
      "midi": 49,
      "hit": false,
      "t": 9677.400000000007,
      "d": 1411.2875000000058,
      "v": 64
    },
    {
      "midi": 63,
      "hit": false,
      "t": 9919.335000000008,
      "d": 241.9350000000013,
      "v": 80
    },
    {
      "midi": 61,
      "hit": false,
      "t": 10161.27000000001,
      "d": 55.44343750000007,
      "v": 54
    },
    {
      "midi": 58,
      "hit": false,
      "t": 10161.27000000001,
      "d": 88.20546875000036,
      "v": 72
    },
    {
      "midi": 68,
      "hit": false,
      "t": 10403.205000000009,
      "d": 168.8504687500008,
      "v": 127
    },
    {
      "midi": 61,
      "hit": false,
      "t": 10645.14000000001,
      "d": 183.97140625000065,
      "v": 72
    },
    {
      "midi": 70,
      "hit": false,
      "t": 10887.075000000012,
      "d": 103.32640625000022,
      "v": 127
    },
    {
      "midi": 51,
      "hit": false,
      "t": 11612.880000000014,
      "d": 345.2614062499997,
      "v": 108
    },
    {
      "midi": 56,
      "hit": false,
      "t": 11612.880000000014,
      "d": 403.22500000000036,
      "v": 110
    },
    {
      "midi": 60,
      "hit": false,
      "t": 11612.880000000014,
      "d": 410.7854687500003,
      "v": 108
    },
    {
      "midi": 58,
      "hit": false,
      "t": 11612.880000000014,
      "d": 418.3459375000002,
      "v": 92
    },
    {
      "midi": 44,
      "hit": false,
      "t": 11612.880000000014,
      "d": 579.6359375000011,
      "v": 122
    },
    {
      "midi": 51,
      "hit": false,
      "t": 12096.750000000015,
      "d": 103.32640625000022,
      "v": 48
    },
    {
      "midi": 44,
      "hit": false,
      "t": 12338.685000000014,
      "d": 909.776406250001,
      "v": 76
    },
    {
      "midi": 56,
      "hit": false,
      "t": 12580.620000000014,
      "d": 216.73343749999913,
      "v": 110
    },
    {
      "midi": 58,
      "hit": false,
      "t": 12580.620000000014,
      "d": 216.73343749999913,
      "v": 122
    },
    {
      "midi": 60,
      "hit": false,
      "t": 12580.620000000014,
      "d": 297.37843749999956,
      "v": 102
    },
    {
      "midi": 51,
      "hit": false,
      "t": 12580.620000000014,
      "d": 370.4629687500001,
      "v": 100
    },
    {
      "midi": 56,
      "hit": false,
      "t": 13064.490000000014,
      "d": 95.76593750000029,
      "v": 76
    },
    {
      "midi": 51,
      "hit": false,
      "t": 13306.425000000016,
      "d": 95.76593750000029,
      "v": 92
    },
    {
      "midi": 44,
      "hit": false,
      "t": 13548.360000000015,
      "d": 1491.9325000000026,
      "v": 108
    },
    {
      "midi": 51,
      "hit": false,
      "t": 13790.295000000015,
      "d": 143.64890625000044,
      "v": 68
    },
    {
      "midi": 56,
      "hit": false,
      "t": 14032.230000000016,
      "d": 183.97140625000065,
      "v": 124
    },
    {
      "midi": 60,
      "hit": false,
      "t": 14274.165000000017,
      "d": 120.96750000000065,
      "v": 127
    },
    {
      "midi": 53,
      "hit": false,
      "t": 14516.100000000019,
      "d": 201.61249999999927,
      "v": 54
    },
    {
      "midi": 56,
      "hit": false,
      "t": 14516.100000000019,
      "d": 209.1729687499992,
      "v": 116
    },
    {
      "midi": 61,
      "hit": false,
      "t": 14516.100000000019,
      "d": 209.1729687499992,
      "v": 127
    },
    {
      "midi": 53,
      "hit": false,
      "t": 14758.035000000018,
      "d": 403.22500000000036,
      "v": 56
    },
    {
      "midi": 56,
      "hit": false,
      "t": 14758.035000000018,
      "d": 466.22890625000036,
      "v": 124
    },
    {
      "midi": 61,
      "hit": false,
      "t": 14758.035000000018,
      "d": 466.22890625000036,
      "v": 110
    },
    {
      "midi": 51,
      "hit": false,
      "t": 15483.84,
      "d": 370.4629687500001,
      "v": 103
    },
    {
      "midi": 56,
      "hit": false,
      "t": 15483.84,
      "d": 466.22890625000036,
      "v": 73
    },
    {
      "midi": 60,
      "hit": false,
      "t": 15483.84,
      "d": 483.8700000000008,
      "v": 62
    },
    {
      "midi": 58,
      "hit": false,
      "t": 15483.84,
      "d": 506.5514062500006,
      "v": 70
    },
    {
      "midi": 44,
      "hit": false,
      "t": 15483.84,
      "d": 1580.1379687500012,
      "v": 91
    },
    {
      "midi": 56,
      "hit": false,
      "t": 15483.840000000018,
      "d": 564.5149999999994,
      "v": 92
    },
    {
      "midi": 58,
      "hit": false,
      "t": 15483.840000000018,
      "d": 564.5149999999994,
      "v": 92
    },
    {
      "midi": 60,
      "hit": false,
      "t": 15483.840000000018,
      "d": 564.5149999999994,
      "v": 84
    },
    {
      "midi": 51,
      "hit": false,
      "t": 15483.840000000018,
      "d": 587.1964062499992,
      "v": 118
    },
    {
      "midi": 51,
      "hit": false,
      "t": 15967.710000000001,
      "d": 88.20546875000036,
      "v": 42
    },
    {
      "midi": 51,
      "hit": false,
      "t": 16209.645,
      "d": 136.0884375000005,
      "v": 62
    },
    {
      "midi": 56,
      "hit": false,
      "t": 16451.58,
      "d": 297.37843749999956,
      "v": 113
    },
    {
      "midi": 60,
      "hit": false,
      "t": 16451.58,
      "d": 403.22499999999854,
      "v": 73
    },
    {
      "midi": 51,
      "hit": false,
      "t": 16451.58,
      "d": 410.7854687500003,
      "v": 110
    },
    {
      "midi": 51,
      "hit": false,
      "t": 16451.580000000016,
      "d": 209.17296875000102,
      "v": 76
    },
    {
      "midi": 56,
      "hit": false,
      "t": 16693.515000000018,
      "d": 201.61249999999927,
      "v": 100
    },
    {
      "midi": 56,
      "hit": false,
      "t": 16935.45,
      "d": 168.85046874999898,
      "v": 55
    },
    {
      "midi": 51,
      "hit": false,
      "t": 17177.385,
      "d": 128.52796875000058,
      "v": 53
    },
    {
      "midi": 51,
      "hit": false,
      "t": 17177.385000000017,
      "d": 103.3264062499984,
      "v": 46
    },
    {
      "midi": 51,
      "hit": false,
      "t": 17419.319999999996,
      "d": 330.14046874999985,
      "v": 91
    },
    {
      "midi": 55,
      "hit": false,
      "t": 17419.319999999996,
      "d": 458.66843750000044,
      "v": 73
    },
    {
      "midi": 43,
      "hit": false,
      "t": 17419.319999999996,
      "d": 1539.8154687500028,
      "v": 77
    },
    {
      "midi": 60,
      "hit": false,
      "t": 17419.320000000014,
      "d": 289.8179687499978,
      "v": 84
    },
    {
      "midi": 51,
      "hit": false,
      "t": 17419.320000000014,
      "d": 345.2614062499997,
      "v": 100
    },
    {
      "midi": 55,
      "hit": false,
      "t": 17419.320000000014,
      "d": 345.2614062499997,
      "v": 102
    },
    {
      "midi": 58,
      "hit": false,
      "t": 17661.255000000012,
      "d": 216.73343750000276,
      "v": 72
    },
    {
      "midi": 51,
      "hit": false,
      "t": 17903.189999999995,
      "d": 161.29000000000087,
      "v": 52
    },
    {
      "midi": 51,
      "hit": false,
      "t": 17903.190000000013,
      "d": 183.97140624999884,
      "v": 72
    },
    {
      "midi": 58,
      "hit": false,
      "t": 18145.124999999996,
      "d": 209.17296875000102,
      "v": 98
    },
    {
      "midi": 58,
      "hit": false,
      "t": 18145.12500000001,
      "d": 224.29390625000087,
      "v": 92
    },
    {
      "midi": 51,
      "hit": false,
      "t": 18387.059999999998,
      "d": 161.29000000000087,
      "v": 96
    },
    {
      "midi": 51,
      "hit": false,
      "t": 18387.060000000012,
      "d": 161.29000000000087,
      "v": 61
    },
    {
      "midi": 63,
      "hit": false,
      "t": 18628.995,
      "d": 95.76593750000029,
      "v": 127
    },
    {
      "midi": 55,
      "hit": false,
      "t": 18628.995000000014,
      "d": 161.29000000000087,
      "v": 102
    },
    {
      "midi": 51,
      "hit": false,
      "t": 19112.864999999998,
      "d": 120.96749999999884,
      "v": 55
    },
    {
      "midi": 51,
      "hit": false,
      "t": 19354.799999999996,
      "d": 370.4629687500019,
      "v": 96
    },
    {
      "midi": 53,
      "hit": false,
      "t": 19354.799999999996,
      "d": 378.02343750000364,
      "v": 73
    },
    {
      "midi": 56,
      "hit": false,
      "t": 19354.799999999996,
      "d": 425.9064062500038,
      "v": 53
    },
    {
      "midi": 41,
      "hit": false,
      "t": 19354.799999999996,
      "d": 740.9259375000038,
      "v": 73
    },
    {
      "midi": 48,
      "hit": false,
      "t": 19354.800000000014,
      "d": 403.22499999999854,
      "v": 122
    },
    {
      "midi": 56,
      "hit": false,
      "t": 19354.800000000014,
      "d": 458.6684374999968,
      "v": 127
    },
    {
      "midi": 53,
      "hit": false,
      "t": 19354.800000000014,
      "d": 483.86999999999534,
      "v": 122
    },
    {
      "midi": 51,
      "hit": false,
      "t": 19838.67,
      "d": 88.20546874999854,
      "v": 52
    },
    {
      "midi": 53,
      "hit": false,
      "t": 19838.67,
      "d": 95.76593750000029,
      "v": 44
    },
    {
      "midi": 48,
      "hit": false,
      "t": 19838.67000000001,
      "d": 80.64500000000044,
      "v": 29
    },
    {
      "midi": 53,
      "hit": false,
      "t": 20322.54,
      "d": 370.46296874999825,
      "v": 96
    },
    {
      "midi": 56,
      "hit": false,
      "t": 20322.54,
      "d": 443.54749999999694,
      "v": 84
    },
    {
      "midi": 60,
      "hit": false,
      "t": 20322.54,
      "d": 443.54749999999694,
      "v": 103
    },
    {
      "midi": 53,
      "hit": false,
      "t": 20322.540000000008,
      "d": 304.9389062500013,
      "v": 56
    },
    {
      "midi": 60,
      "hit": false,
      "t": 20564.47500000001,
      "d": 330.14046874999985,
      "v": 118
    },
    {
      "midi": 53,
      "hit": false,
      "t": 20806.409999999996,
      "d": 161.29000000000087,
      "v": 28
    },
    {
      "midi": 53,
      "hit": false,
      "t": 20806.41000000001,
      "d": 128.52796874999694,
      "v": 49
    },
    {
      "midi": 56,
      "hit": false,
      "t": 21048.344999999998,
      "d": 748.4864062500019,
      "v": 23
    },
    {
      "midi": 56,
      "hit": false,
      "t": 21048.34500000001,
      "d": 176.41093750000073,
      "v": 38
    },
    {
      "midi": 51,
      "hit": false,
      "t": 21290.28,
      "d": 345.2614062499997,
      "v": 91
    },
    {
      "midi": 60,
      "hit": false,
      "t": 21290.28,
      "d": 498.99093749999884,
      "v": 52
    },
    {
      "midi": 56,
      "hit": false,
      "t": 21290.28000000001,
      "d": 304.9389062500013,
      "v": 56
    },
    {
      "midi": 51,
      "hit": false,
      "t": 21290.28000000001,
      "d": 378.0234375,
      "v": 110
    },
    {
      "midi": 60,
      "hit": false,
      "t": 21290.28000000001,
      "d": 451.1079687499987,
      "v": 92
    },
    {
      "midi": 58,
      "hit": false,
      "t": 21532.21500000001,
      "d": 304.9389062499977,
      "v": 68
    },
    {
      "midi": 51,
      "hit": false,
      "t": 21774.149999999998,
      "d": 128.52796875000058,
      "v": 44
    },
    {
      "midi": 56,
      "hit": false,
      "t": 21774.15000000001,
      "d": 330.14046874999985,
      "v": 110
    },
    {
      "midi": 58,
      "hit": false,
      "t": 22016.085,
      "d": 224.29390625000087,
      "v": 98
    },
    {
      "midi": 51,
      "hit": false,
      "t": 22016.08500000001,
      "d": 143.6489062499968,
      "v": 108
    },
    {
      "midi": 58,
      "hit": false,
      "t": 22016.08500000001,
      "d": 466.22890624999854,
      "v": 127
    },
    {
      "midi": 51,
      "hit": false,
      "t": 22258.02,
      "d": 183.97140624999884,
      "v": 98
    },
    {
      "midi": 51,
      "hit": false,
      "t": 22258.020000000008,
      "d": 201.61249999999927,
      "v": 61
    },
    {
      "midi": 56,
      "hit": false,
      "t": 22499.954999999998,
      "d": 128.52796875000058,
      "v": 66
    },
    {
      "midi": 56,
      "hit": false,
      "t": 22499.95500000001,
      "d": 216.73343749999913,
      "v": 72
    },
    {
      "midi": 51,
      "hit": false,
      "t": 22741.890000000007,
      "d": 40.3224999999984,
      "v": 29
    },
    {
      "midi": 56,
      "hit": false,
      "t": 23225.76,
      "d": 531.7529687499991,
      "v": 113
    },
    {
      "midi": 53,
      "hit": false,
      "t": 23225.76,
      "d": 539.3134375000009,
      "v": 91
    },
    {
      "midi": 53,
      "hit": false,
      "t": 23225.760000000006,
      "d": 410.78546874999665,
      "v": 92
    },
    {
      "midi": 56,
      "hit": false,
      "t": 23225.760000000006,
      "d": 546.8739062499953,
      "v": 84
    },
    {
      "midi": 60,
      "hit": false,
      "t": 23225.760000000006,
      "d": 587.1964062499937,
      "v": 76
    },
    {
      "midi": 53,
      "hit": false,
      "t": 23709.63,
      "d": 103.3264062499984,
      "v": 24
    },
    {
      "midi": 53,
      "hit": false,
      "t": 24193.5,
      "d": 183.97140624999884,
      "v": 92
    },
    {
      "midi": 56,
      "hit": false,
      "t": 24193.5,
      "d": 249.49546875000306,
      "v": 84
    },
    {
      "midi": 56,
      "hit": false,
      "t": 24435.434999999998,
      "d": 209.17296875000102,
      "v": 127
    },
    {
      "midi": 65,
      "hit": false,
      "t": 24435.435,
      "d": 216.73343750000276,
      "v": 122
    },
    {
      "midi": 61,
      "hit": false,
      "t": 24677.370000000003,
      "d": 209.17296875000102,
      "v": 96
    },
    {
      "midi": 56,
      "hit": false,
      "t": 24919.305000000004,
      "d": 1063.5059374999983,
      "v": 53
    },
    {
      "midi": 52,
      "hit": false,
      "t": 25161.239999999998,
      "d": 378.0234375,
      "v": 61
    },
    {
      "midi": 58,
      "hit": false,
      "t": 25161.239999999998,
      "d": 579.6359374999993,
      "v": 116
    },
    {
      "midi": 56,
      "hit": false,
      "t": 25161.239999999998,
      "d": 619.9584374999977,
      "v": 124
    },
    {
      "midi": 61,
      "hit": false,
      "t": 25161.240000000005,
      "d": 861.8934374999953,
      "v": 73
    },
    {
      "midi": 64,
      "hit": false,
      "t": 25161.240000000005,
      "d": 902.2159374999937,
      "v": 77
    },
    {
      "midi": 58,
      "hit": false,
      "t": 25161.240000000005,
      "d": 934.977968749994,
      "v": 55
    },
    {
      "midi": 52,
      "hit": false,
      "t": 25645.109999999997,
      "d": 224.29390624999724,
      "v": 44
    },
    {
      "midi": 61,
      "hit": false,
      "t": 25887.044999999995,
      "d": 385.58390625000175,
      "v": 110
    },
    {
      "midi": 52,
      "hit": false,
      "t": 26128.979999999996,
      "d": 209.17296875000102,
      "v": 108
    },
    {
      "midi": 56,
      "hit": false,
      "t": 26128.98,
      "d": 264.6164062499993,
      "v": 53
    },
    {
      "midi": 56,
      "hit": false,
      "t": 26370.914999999997,
      "d": 95.76593750000029,
      "v": 94
    },
    {
      "midi": 56,
      "hit": false,
      "t": 26612.85,
      "d": 88.20546874999854,
      "v": 55
    },
    {
      "midi": 58,
      "hit": false,
      "t": 26854.784999999996,
      "d": 55.443437499998254,
      "v": 38
    },
    {
      "midi": 56,
      "hit": false,
      "t": 27096.719999999994,
      "d": 241.93499999999767,
      "v": 96
    },
    {
      "midi": 51,
      "hit": false,
      "t": 27096.719999999998,
      "d": 304.9389062500013,
      "v": 122
    },
    {
      "midi": 58,
      "hit": false,
      "t": 27338.65499999999,
      "d": 330.14046874999985,
      "v": 98
    },
    {
      "midi": 60,
      "hit": false,
      "t": 27580.589999999993,
      "d": 209.17296874999738,
      "v": 73
    },
    {
      "midi": 51,
      "hit": false,
      "t": 27580.59,
      "d": 47.882968750000146,
      "v": 40
    },
    {
      "midi": 63,
      "hit": false,
      "t": 27822.52499999999,
      "d": 80.64500000000044,
      "v": 113
    },
    {
      "midi": 56,
      "hit": false,
      "t": 27822.525,
      "d": 120.96749999999884,
      "v": 80
    },
    {
      "midi": 60,
      "hit": false,
      "t": 27822.525,
      "d": 524.1924999999974,
      "v": 61
    },
    {
      "midi": 51,
      "hit": false,
      "t": 28064.46,
      "d": 209.17296875000102,
      "v": 94
    },
    {
      "midi": 56,
      "hit": false,
      "t": 28064.46,
      "d": 337.70093749999796,
      "v": 92
    },
    {
      "midi": 51,
      "hit": false,
      "t": 28790.264999999996,
      "d": 63.00390625,
      "v": 46
    },
    {
      "midi": 60,
      "hit": false,
      "t": 29032.19999999999,
      "d": 282.2574999999997,
      "v": 22
    },
    {
      "midi": 51,
      "hit": false,
      "t": 29032.199999999997,
      "d": 322.5799999999981,
      "v": 88
    },
    {
      "midi": 56,
      "hit": false,
      "t": 29032.199999999997,
      "d": 425.9064062499965,
      "v": 100
    },
    {
      "midi": 60,
      "hit": false,
      "t": 29032.199999999997,
      "d": 451.10796874999505,
      "v": 110
    },
    {
      "midi": 68,
      "hit": false,
      "t": 29274.13499999999,
      "d": 378.02343749999636,
      "v": 13
    },
    {
      "midi": 63,
      "hit": false,
      "t": 29516.06999999999,
      "d": 241.93499999999767,
      "v": 73
    },
    {
      "midi": 51,
      "hit": false,
      "t": 29516.069999999992,
      "d": 120.96749999999884,
      "v": 49
    },
    {
      "midi": 60,
      "hit": false,
      "t": 29758.004999999986,
      "d": 128.52796875000058,
      "v": 44
    },
    {
      "midi": 56,
      "hit": false,
      "t": 29758.00499999999,
      "d": 95.76593750000029,
      "v": 61
    },
    {
      "midi": 53,
      "hit": false,
      "t": 29999.93999999999,
      "d": 201.61249999999927,
      "v": 127
    },
    {
      "midi": 56,
      "hit": false,
      "t": 29999.93999999999,
      "d": 201.61249999999927,
      "v": 127
    },
    {
      "midi": 61,
      "hit": false,
      "t": 29999.93999999999,
      "d": 201.61249999999927,
      "v": 127
    },
    {
      "midi": 61,
      "hit": false,
      "t": 30241.87499999999,
      "d": 289.81796875000146,
      "v": 116
    },
    {
      "midi": 56,
      "hit": false,
      "t": 30241.87499999999,
      "d": 304.9389062500013,
      "v": 108
    },
    {
      "midi": 53,
      "hit": false,
      "t": 30241.87499999999,
      "d": 330.14046874999985,
      "v": 72
    },
    {
      "midi": 51,
      "hit": false,
      "t": 30725.744999999988,
      "d": 201.61249999999927,
      "v": 68
    },
    {
      "midi": 56,
      "hit": false,
      "t": 30967.679999999986,
      "d": 572.0754687500012,
      "v": 116
    },
    {
      "midi": 60,
      "hit": false,
      "t": 30967.679999999986,
      "d": 579.6359375000029,
      "v": 108
    },
    {
      "midi": 51,
      "hit": false,
      "t": 30967.679999999986,
      "d": 604.8375000000015,
      "v": 100
    },
    {
      "midi": 58,
      "hit": false,
      "t": 30967.679999999986,
      "d": 604.8375000000015,
      "v": 92
    },
    {
      "midi": 51,
      "hit": false,
      "t": 30967.679999999986,
      "d": 370.4629687500019,
      "v": 113
    },
    {
      "midi": 56,
      "hit": false,
      "t": 30967.679999999986,
      "d": 531.7529687500028,
      "v": 91
    },
    {
      "midi": 60,
      "hit": false,
      "t": 30967.679999999986,
      "d": 539.3134375000045,
      "v": 106
    },
    {
      "midi": 58,
      "hit": false,
      "t": 30967.679999999986,
      "d": 564.515000000003,
      "v": 84
    },
    {
      "midi": 51,
      "hit": false,
      "t": 31451.54999999999,
      "d": 120.96749999999884,
      "v": 24
    },
    {
      "midi": 51,
      "hit": false,
      "t": 31693.484999999986,
      "d": 63.00390625,
      "v": 54
    },
    {
      "midi": 51,
      "hit": false,
      "t": 31935.419999999987,
      "d": 249.49546874999942,
      "v": 56
    },
    {
      "midi": 56,
      "hit": false,
      "t": 31935.419999999987,
      "d": 322.5799999999981,
      "v": 68
    },
    {
      "midi": 58,
      "hit": false,
      "t": 31935.419999999987,
      "d": 337.70093749999796,
      "v": 88
    },
    {
      "midi": 60,
      "hit": false,
      "t": 31935.419999999987,
      "d": 403.22499999999854,
      "v": 68
    },
    {
      "midi": 51,
      "hit": false,
      "t": 31935.419999999987,
      "d": 120.96749999999884,
      "v": 66
    },
    {
      "midi": 56,
      "hit": false,
      "t": 32177.354999999985,
      "d": 168.85046874999898,
      "v": 50
    },
    {
      "midi": 51,
      "hit": false,
      "t": 32419.289999999983,
      "d": 136.0884374999987,
      "v": 46
    },
    {
      "midi": 51,
      "hit": false,
      "t": 32419.289999999986,
      "d": 55.443437499998254,
      "v": 40
    },
    {
      "midi": 51,
      "hit": false,
      "t": 32661.224999999984,
      "d": 120.96749999999884,
      "v": 23
    },
    {
      "midi": 56,
      "hit": false,
      "t": 32903.15999999998,
      "d": 257.05593750000844,
      "v": 76
    },
    {
      "midi": 51,
      "hit": false,
      "t": 32903.15999999998,
      "d": 304.93890625000495,
      "v": 64
    },
    {
      "midi": 60,
      "hit": false,
      "t": 32903.15999999998,
      "d": 362.9025000000038,
      "v": 72
    },
    {
      "midi": 51,
      "hit": false,
      "t": 32903.15999999998,
      "d": 257.05593750000116,
      "v": 73
    },
    {
      "midi": 58,
      "hit": false,
      "t": 33145.09499999999,
      "d": 209.17296875000466,
      "v": 68
    },
    {
      "midi": 51,
      "hit": false,
      "t": 33387.029999999984,
      "d": 176.4109374999971,
      "v": 50
    },
    {
      "midi": 56,
      "hit": false,
      "t": 33387.02999999999,
      "d": 209.17296874999738,
      "v": 88
    },
    {
      "midi": 51,
      "hit": false,
      "t": 33628.96499999998,
      "d": 161.29000000000087,
      "v": 106
    },
    {
      "midi": 58,
      "hit": false,
      "t": 33628.96499999998,
      "d": 249.49546874999942,
      "v": 110
    },
    {
      "midi": 55,
      "hit": false,
      "t": 33628.96499999998,
      "d": 282.2574999999997,
      "v": 103
    },
    {
      "midi": 51,
      "hit": false,
      "t": 33628.96499999999,
      "d": 120.96749999999884,
      "v": 61
    },
    {
      "midi": 55,
      "hit": false,
      "t": 33628.96499999999,
      "d": 806.4500000000044,
      "v": 102
    },
    {
      "midi": 58,
      "hit": false,
      "t": 33628.96499999999,
      "d": 806.4500000000044,
      "v": 80
    },
    {
      "midi": 51,
      "hit": false,
      "t": 33870.89999999998,
      "d": 136.08843750000233,
      "v": 84
    },
    {
      "midi": 51,
      "hit": false,
      "t": 33870.89999999999,
      "d": 345.261406250007,
      "v": 88
    },
    {
      "midi": 63,
      "hit": false,
      "t": 34112.834999999985,
      "d": 95.76593750000029,
      "v": 127
    },
    {
      "midi": 51,
      "hit": false,
      "t": 34354.77,
      "d": 136.08843749999505,
      "v": 56
    },
    {
      "midi": 55,
      "hit": false,
      "t": 34596.704999999994,
      "d": 183.97140624999884,
      "v": 54
    },
    {
      "midi": 56,
      "hit": false,
      "t": 34838.639999999985,
      "d": 491.4304687499971,
      "v": 70
    },
    {
      "midi": 53,
      "hit": false,
      "t": 34838.639999999985,
      "d": 498.99093749999884,
      "v": 84
    },
    {
      "midi": 53,
      "hit": false,
      "t": 34838.63999999999,
      "d": 418.34593750000204,
      "v": 116
    },
    {
      "midi": 60,
      "hit": false,
      "t": 34838.63999999999,
      "d": 483.8700000000026,
      "v": 64
    },
    {
      "midi": 56,
      "hit": false,
      "t": 34838.63999999999,
      "d": 531.7529687499991,
      "v": 102
    },
    {
      "midi": 53,
      "hit": false,
      "t": 35322.509999999995,
      "d": 88.20546874999854,
      "v": 49
    },
    {
      "midi": 56,
      "hit": false,
      "t": 35806.37999999998,
      "d": 345.2614062499997,
      "v": 50
    },
    {
      "midi": 56,
      "hit": false,
      "t": 35806.37999999999,
      "d": 297.3784375000032,
      "v": 108
    },
    {
      "midi": 60,
      "hit": false,
      "t": 35806.37999999999,
      "d": 345.2614062499997,
      "v": 94
    },
    {
      "midi": 53,
      "hit": false,
      "t": 35806.37999999999,
      "d": 524.1925000000047,
      "v": 100
    },
    {
      "midi": 65,
      "hit": false,
      "t": 36048.31499999998,
      "d": 458.6684375000041,
      "v": 55
    },
    {
      "midi": 60,
      "hit": false,
      "t": 36290.249999999985,
      "d": 425.9064062499965,
      "v": 48
    },
    {
      "midi": 56,
      "hit": false,
      "t": 36290.24999999999,
      "d": 128.52796875000058,
      "v": 49
    },
    {
      "midi": 56,
      "hit": false,
      "t": 36532.18499999998,
      "d": 183.97140624999884,
      "v": 59
    },
    {
      "midi": 60,
      "hit": false,
      "t": 36774.11999999998,
      "d": 1023.1834375000035,
      "v": 46
    },
    {
      "midi": 63,
      "hit": false,
      "t": 36774.11999999998,
      "d": 1096.2679687500058,
      "v": 120
    },
    {
      "midi": 56,
      "hit": false,
      "t": 36774.11999999998,
      "d": 1144.1509375000023,
      "v": 36
    },
    {
      "midi": 56,
      "hit": false,
      "t": 36774.119999999995,
      "d": 289.8179687499942,
      "v": 110
    },
    {
      "midi": 51,
      "hit": false,
      "t": 36774.119999999995,
      "d": 337.7009374999907,
      "v": 110
    },
    {
      "midi": 54,
      "hit": false,
      "t": 36774.119999999995,
      "d": 337.7009374999907,
      "v": 76
    },
    {
      "midi": 60,
      "hit": false,
      "t": 36774.119999999995,
      "d": 425.90640624998923,
      "v": 72
    },
    {
      "midi": 58,
      "hit": false,
      "t": 37016.05499999999,
      "d": 183.97140624999156,
      "v": 84
    },
    {
      "midi": 51,
      "hit": false,
      "t": 37257.98999999998,
      "d": 143.6489062499968,
      "v": 64
    },
    {
      "midi": 56,
      "hit": false,
      "t": 37499.92499999998,
      "d": 264.61640624999563,
      "v": 127
    },
    {
      "midi": 51,
      "hit": false,
      "t": 37741.85999999998,
      "d": 120.96749999999884,
      "v": 54
    },
    {
      "midi": 54,
      "hit": false,
      "t": 37983.79499999998,
      "d": 128.52796875000058,
      "v": 29
    },
    {
      "midi": 60,
      "hit": false,
      "t": 37983.794999999984,
      "d": 95.76593750000029,
      "v": 48
    },
    {
      "midi": 51,
      "hit": false,
      "t": 38225.729999999974,
      "d": 88.20546874999854,
      "v": 55
    },
    {
      "midi": 53,
      "hit": false,
      "t": 38709.59999999997,
      "d": 362.9024999999965,
      "v": 55
    },
    {
      "midi": 61,
      "hit": false,
      "t": 38709.59999999997,
      "d": 524.1924999999974,
      "v": 76
    },
    {
      "midi": 56,
      "hit": false,
      "t": 38709.59999999997,
      "d": 531.7529687499991,
      "v": 108
    },
    {
      "midi": 53,
      "hit": false,
      "t": 38709.599999999984,
      "d": 362.9024999999965,
      "v": 62
    },
    {
      "midi": 61,
      "hit": false,
      "t": 38709.599999999984,
      "d": 458.6684374999968,
      "v": 70
    },
    {
      "midi": 56,
      "hit": false,
      "t": 38709.599999999984,
      "d": 498.99093749999884,
      "v": 98
    },
    {
      "midi": 53,
      "hit": false,
      "t": 39193.469999999965,
      "d": 128.52796875000058,
      "v": 46
    },
    {
      "midi": 53,
      "hit": false,
      "t": 39193.46999999998,
      "d": 80.64500000000407,
      "v": 48
    },
    {
      "midi": 56,
      "hit": false,
      "t": 39435.40499999996,
      "d": 88.20546874999854,
      "v": 56
    },
    {
      "midi": 53,
      "hit": false,
      "t": 39677.33999999996,
      "d": 385.58390625000175,
      "v": 94
    },
    {
      "midi": 60,
      "hit": false,
      "t": 39677.33999999996,
      "d": 425.9064062500038,
      "v": 110
    },
    {
      "midi": 56,
      "hit": false,
      "t": 40161.20999999996,
      "d": 40.32250000000204,
      "v": 32
    },
    {
      "midi": 52,
      "hit": false,
      "t": 40645.079999999965,
      "d": 370.46296875000553,
      "v": 56
    },
    {
      "midi": 56,
      "hit": false,
      "t": 40645.079999999965,
      "d": 443.54750000000786,
      "v": 84
    },
    {
      "midi": 58,
      "hit": false,
      "t": 40645.079999999965,
      "d": 443.54750000000786,
      "v": 92
    },
    {
      "midi": 52,
      "hit": false,
      "t": 41128.949999999975,
      "d": 63.00390625,
      "v": 40
    },
    {
      "midi": 56,
      "hit": false,
      "t": 41612.81999999998,
      "d": 241.93499999999767,
      "v": 44
    },
    {
      "midi": 64,
      "hit": false,
      "t": 41854.754999999976,
      "d": 297.3784374999959,
      "v": 116
    },
    {
      "midi": 58,
      "hit": false,
      "t": 42096.68999999997,
      "d": 128.52796875000058,
      "v": 88
    },
    {
      "midi": 56,
      "hit": false,
      "t": 42338.62499999997,
      "d": 63.00390625,
      "v": 64
    },
    {
      "midi": 57,
      "hit": false,
      "t": 42580.55999999997,
      "d": 40.32250000000204,
      "v": 44
    },
    {
      "midi": 51,
      "hit": false,
      "t": 42580.55999999997,
      "d": 491.43046875000437,
      "v": 68
    },
    {
      "midi": 56,
      "hit": false,
      "t": 42580.55999999998,
      "d": 224.29390625000087,
      "v": 66
    },
    {
      "midi": 58,
      "hit": false,
      "t": 42822.49499999998,
      "d": 289.8179687499942,
      "v": 91
    },
    {
      "midi": 56,
      "hit": false,
      "t": 43064.42999999997,
      "d": 128.52796875000058,
      "v": 55
    },
    {
      "midi": 63,
      "hit": false,
      "t": 43064.42999999998,
      "d": 183.97140624999884,
      "v": 120
    },
    {
      "midi": 51,
      "hit": false,
      "t": 43306.36499999997,
      "d": 88.20546874999854,
      "v": 46
    },
    {
      "midi": 56,
      "hit": false,
      "t": 43306.364999999976,
      "d": 63.00390625,
      "v": 70
    },
    {
      "midi": 56,
      "hit": false,
      "t": 43548.29999999997,
      "d": 209.17296874999738,
      "v": 122
    },
    {
      "midi": 51,
      "hit": false,
      "t": 43548.29999999997,
      "d": 249.49546874999942,
      "v": 92
    },
    {
      "midi": 58,
      "hit": false,
      "t": 43548.29999999997,
      "d": 282.2574999999997,
      "v": 124
    },
    {
      "midi": 51,
      "hit": false,
      "t": 44032.16999999997,
      "d": 63.00390625,
      "v": 64
    },
    {
      "midi": 68,
      "hit": false,
      "t": 44032.16999999998,
      "d": 136.08843750000233,
      "v": 52
    },
    {
      "midi": 75,
      "hit": false,
      "t": 44274.10499999998,
      "d": 257.05593750000116,
      "v": 106
    },
    {
      "midi": 56,
      "hit": false,
      "t": 44516.03999999997,
      "d": 345.26140624999243,
      "v": 80
    },
    {
      "midi": 63,
      "hit": false,
      "t": 44516.03999999997,
      "d": 410.785468749993,
      "v": 84
    },
    {
      "midi": 58,
      "hit": false,
      "t": 44516.03999999997,
      "d": 418.34593749999476,
      "v": 68
    },
    {
      "midi": 60,
      "hit": false,
      "t": 44516.03999999997,
      "d": 458.6684374999968,
      "v": 68
    },
    {
      "midi": 70,
      "hit": false,
      "t": 44516.03999999998,
      "d": 183.9714062500061,
      "v": 118
    },
    {
      "midi": 68,
      "hit": false,
      "t": 44757.974999999984,
      "d": 88.20546874999854,
      "v": 113
    },
    {
      "midi": 56,
      "hit": false,
      "t": 44999.90999999997,
      "d": 80.6449999999968,
      "v": 29
    },
    {
      "midi": 56,
      "hit": false,
      "t": 45241.844999999965,
      "d": 128.52796875000058,
      "v": 52
    },
    {
      "midi": 58,
      "hit": false,
      "t": 45483.77999999996,
      "d": 95.76593750000029,
      "v": 102
    },
    {
      "midi": 56,
      "hit": false,
      "t": 45483.77999999996,
      "d": 120.96749999999884,
      "v": 84
    },
    {
      "midi": 63,
      "hit": false,
      "t": 45483.77999999996,
      "d": 201.61249999999563,
      "v": 116
    },
    {
      "midi": 60,
      "hit": false,
      "t": 45483.77999999996,
      "d": 249.49546874999942,
      "v": 56
    },
    {
      "midi": 56,
      "hit": false,
      "t": 45483.779999999984,
      "d": 143.6489062499968,
      "v": 55
    },
    {
      "midi": 58,
      "hit": false,
      "t": 45725.71499999996,
      "d": 209.17296875000466,
      "v": 76
    },
    {
      "midi": 58,
      "hit": false,
      "t": 45725.71499999998,
      "d": 362.9024999999965,
      "v": 70
    },
    {
      "midi": 56,
      "hit": false,
      "t": 45967.649999999965,
      "d": 95.76593750000029,
      "v": 56
    },
    {
      "midi": 60,
      "hit": false,
      "t": 45967.64999999998,
      "d": 322.57999999999447,
      "v": 62
    },
    {
      "midi": 58,
      "hit": false,
      "t": 46209.58499999998,
      "d": 55.443437499998254,
      "v": 16
    },
    {
      "midi": 56,
      "hit": false,
      "t": 46209.58499999998,
      "d": 95.76593750000029,
      "v": 55
    },
    {
      "midi": 63,
      "hit": false,
      "t": 46209.58499999998,
      "d": 95.76593750000029,
      "v": 120
    },
    {
      "midi": 56,
      "hit": false,
      "t": 46451.51999999996,
      "d": 2217.737500000003,
      "v": 76
    },
    {
      "midi": 65,
      "hit": false,
      "t": 46451.51999999996,
      "d": 2280.741406250003,
      "v": 92
    },
    {
      "midi": 60,
      "hit": false,
      "t": 46451.51999999996,
      "d": 2298.3824999999997,
      "v": 76
    },
    {
      "midi": 62,
      "hit": false,
      "t": 46451.51999999996,
      "d": 2338.7050000000017,
      "v": 64
    },
    {
      "midi": 56,
      "hit": false,
      "t": 46451.519999999975,
      "d": 1796.8714062500003,
      "v": 73
    },
    {
      "midi": 60,
      "hit": false,
      "t": 46451.519999999975,
      "d": 1910.2784374999974,
      "v": 70
    },
    {
      "midi": 62,
      "hit": false,
      "t": 46451.519999999975,
      "d": 1910.2784374999974,
      "v": 53
    },
    {
      "midi": 65,
      "hit": false,
      "t": 46451.519999999975,
      "d": 1935.479999999996,
      "v": 73
    },
    {
      "midi": 56,
      "hit": false,
      "t": 48386.99999999997,
      "d": 161.29000000000087,
      "v": 55
    },
    {
      "midi": 56,
      "hit": false,
      "t": 48870.86999999996,
      "d": 40.32250000000204,
      "v": 18
    },
    {
      "midi": 60,
      "hit": false,
      "t": 49112.804999999964,
      "d": 95.76593750000029,
      "v": 56
    },
    {
      "midi": 56,
      "hit": false,
      "t": 49112.80499999997,
      "d": 120.96749999999884,
      "v": 36
    },
    {
      "midi": 56,
      "hit": false,
      "t": 49354.73999999996,
      "d": 370.46296874999825,
      "v": 88
    },
    {
      "midi": 60,
      "hit": false,
      "t": 49354.73999999996,
      "d": 418.34593749999476,
      "v": 76
    },
    {
      "midi": 62,
      "hit": false,
      "t": 49354.73999999996,
      "d": 443.5474999999933,
      "v": 102
    },
    {
      "midi": 56,
      "hit": false,
      "t": 49354.73999999997,
      "d": 345.2614062499997,
      "v": 73
    },
    {
      "midi": 62,
      "hit": false,
      "t": 49354.73999999997,
      "d": 418.34593750000204,
      "v": 103
    },
    {
      "midi": 56,
      "hit": false,
      "t": 49838.60999999996,
      "d": 47.88296874999651,
      "v": 52
    },
    {
      "midi": 56,
      "hit": false,
      "t": 49838.60999999997,
      "d": 88.20546874999854,
      "v": 59
    },
    {
      "midi": 53,
      "hit": false,
      "t": 50322.47999999995,
      "d": 1330.6425000000017,
      "v": 102
    },
    {
      "midi": 56,
      "hit": false,
      "t": 50322.47999999995,
      "d": 1418.8479687500003,
      "v": 127
    },
    {
      "midi": 60,
      "hit": false,
      "t": 50322.47999999995,
      "d": 1433.9689062500038,
      "v": 52
    },
    {
      "midi": 61,
      "hit": false,
      "t": 50322.47999999995,
      "d": 1459.1704687500023,
      "v": 108
    },
    {
      "midi": 61,
      "hit": false,
      "t": 50322.47999999997,
      "d": 604.8375000000015,
      "v": 70
    },
    {
      "midi": 63,
      "hit": false,
      "t": 50322.47999999997,
      "d": 612.3979687500032,
      "v": 106
    },
    {
      "midi": 56,
      "hit": false,
      "t": 50322.47999999997,
      "d": 619.958437500005,
      "v": 73
    },
    {
      "midi": 65,
      "hit": false,
      "t": 50322.47999999997,
      "d": 619.958437500005,
      "v": 84
    },
    {
      "midi": 53,
      "hit": false,
      "t": 51774.08999999995,
      "d": 128.52796875000058,
      "v": 31
    },
    {
      "midi": 61,
      "hit": false,
      "t": 51774.089999999975,
      "d": 63.00390625,
      "v": 23
    },
    {
      "midi": 56,
      "hit": false,
      "t": 52016.02499999995,
      "d": 55.443437499998254,
      "v": 48
    },
    {
      "midi": 61,
      "hit": false,
      "t": 52016.02499999997,
      "d": 587.1964062499974,
      "v": 46
    },
    {
      "midi": 68,
      "hit": false,
      "t": 52257.95999999997,
      "d": 546.8739062500026,
      "v": 113
    },
    {
      "midi": 53,
      "hit": false,
      "t": 52741.82999999995,
      "d": 120.96749999999884,
      "v": 76
    },
    {
      "midi": 61,
      "hit": false,
      "t": 52741.82999999997,
      "d": 47.88296874999651,
      "v": 23
    },
    {
      "midi": 56,
      "hit": false,
      "t": 52983.76499999995,
      "d": 128.52796875000058,
      "v": 122
    },
    {
      "midi": 60,
      "hit": false,
      "t": 53467.63499999995,
      "d": 128.52796875000058,
      "v": 80
    },
    {
      "midi": 53,
      "hit": false,
      "t": 53467.63499999995,
      "d": 176.4109374999971,
      "v": 102
    },
    {
      "midi": 56,
      "hit": false,
      "t": 54193.43999999995,
      "d": 1071.06640625,
      "v": 110
    },
    {
      "midi": 51,
      "hit": false,
      "t": 54193.43999999995,
      "d": 1249.9974999999977,
      "v": 108
    },
    {
      "midi": 58,
      "hit": false,
      "t": 54193.43999999995,
      "d": 1265.1184375000012,
      "v": 108
    },
    {
      "midi": 60,
      "hit": false,
      "t": 54193.43999999995,
      "d": 1272.678906250003,
      "v": 92
    },
    {
      "midi": 51,
      "hit": false,
      "t": 54193.43999999997,
      "d": 806.4500000000044,
      "v": 96
    },
    {
      "midi": 60,
      "hit": false,
      "t": 54193.43999999997,
      "d": 902.2159375000047,
      "v": 46
    },
    {
      "midi": 56,
      "hit": false,
      "t": 54193.43999999997,
      "d": 967.7400000000052,
      "v": 66
    },
    {
      "midi": 58,
      "hit": false,
      "t": 54193.43999999997,
      "d": 1063.5059374999983,
      "v": 46
    },
    {
      "midi": 51,
      "hit": false,
      "t": 55161.17999999998,
      "d": 47.88296874999651,
      "v": 24
    },
    {
      "midi": 56,
      "hit": false,
      "t": 55403.11499999995,
      "d": 216.7334375000064,
      "v": 72
    },
    {
      "midi": 56,
      "hit": false,
      "t": 55403.11499999997,
      "d": 168.85046875000262,
      "v": 53
    },
    {
      "midi": 51,
      "hit": false,
      "t": 55645.04999999995,
      "d": 88.20546874999854,
      "v": 76
    },
    {
      "midi": 51,
      "hit": false,
      "t": 55645.049999999974,
      "d": 103.32640625000204,
      "v": 77
    },
    {
      "midi": 53,
      "hit": false,
      "t": 56128.91999999995,
      "d": 1330.6425000000017,
      "v": 92
    },
    {
      "midi": 58,
      "hit": false,
      "t": 56128.91999999995,
      "d": 1426.408437500002,
      "v": 118
    },
    {
      "midi": 61,
      "hit": false,
      "t": 56128.91999999995,
      "d": 1426.408437500002,
      "v": 100
    },
    {
      "midi": 53,
      "hit": false,
      "t": 56128.91999999997,
      "d": 1580.1379687500012,
      "v": 73
    },
    {
      "midi": 58,
      "hit": false,
      "t": 56128.91999999997,
      "d": 2661.2850000000035,
      "v": 84
    },
    {
      "midi": 61,
      "hit": false,
      "t": 56128.91999999997,
      "d": 2683.9664062500087,
      "v": 73
    },
    {
      "midi": 56,
      "hit": false,
      "t": 57580.52999999995,
      "d": 63.00390625,
      "v": 94
    },
    {
      "midi": 54,
      "hit": false,
      "t": 58064.39999999995,
      "d": 1257.5579687499994,
      "v": 94
    },
    {
      "midi": 56,
      "hit": false,
      "t": 58064.39999999995,
      "d": 1265.1184375000012,
      "v": 122
    },
    {
      "midi": 58,
      "hit": false,
      "t": 58064.39999999995,
      "d": 1290.3199999999997,
      "v": 92
    },
    {
      "midi": 49,
      "hit": false,
      "t": 58064.39999999995,
      "d": 1338.2029687499962,
      "v": 68
    },
    {
      "midi": 54,
      "hit": false,
      "t": 58064.39999999997,
      "d": 700.6034375000017,
      "v": 55
    },
    {
      "midi": 56,
      "hit": false,
      "t": 58064.39999999997,
      "d": 733.365468750002,
      "v": 48
    },
    {
      "midi": 54,
      "hit": false,
      "t": 59516.009999999944,
      "d": 120.96749999999884,
      "v": 49
    },
    {
      "midi": 58,
      "hit": false,
      "t": 59516.00999999998,
      "d": 241.93499999999767,
      "v": 44
    },
    {
      "midi": 49,
      "hit": false,
      "t": 59757.94499999994,
      "d": 128.52796875000058,
      "v": 29
    },
    {
      "midi": 68,
      "hit": false,
      "t": 59757.94499999998,
      "d": 264.61640624999563,
      "v": 53
    },
    {
      "midi": 49,
      "hit": false,
      "t": 59999.87999999994,
      "d": 209.17296874999738,
      "v": 68
    },
    {
      "midi": 54,
      "hit": false,
      "t": 59999.87999999994,
      "d": 209.17296874999738,
      "v": 88
    },
    {
      "midi": 56,
      "hit": false,
      "t": 59999.87999999994,
      "d": 216.73343749999913,
      "v": 108
    },
    {
      "midi": 58,
      "hit": false,
      "t": 59999.879999999976,
      "d": 216.73343749999913,
      "v": 31
    },
    {
      "midi": 66,
      "hit": false,
      "t": 60241.81499999997,
      "d": 950.0989062500012,
      "v": 70
    },
    {
      "midi": 58,
      "hit": false,
      "t": 60483.74999999997,
      "d": 693.04296875,
      "v": 52
    },
    {
      "midi": 54,
      "hit": false,
      "t": 60725.68499999994,
      "d": 403.22499999999854,
      "v": 37
    },
    {
      "midi": 61,
      "hit": false,
      "t": 60725.68499999997,
      "d": 466.2289062500058,
      "v": 62
    },
    {
      "midi": 61,
      "hit": false,
      "t": 60967.61999999994,
      "d": 322.57999999999447,
      "v": 124
    },
    {
      "midi": 56,
      "hit": false,
      "t": 61209.554999999935,
      "d": 201.61249999999563,
      "v": 102
    },
    {
      "midi": 58,
      "hit": false,
      "t": 61451.48999999993,
      "d": 80.6449999999968,
      "v": 122
    },
    {
      "midi": 54,
      "hit": false,
      "t": 61451.48999999993,
      "d": 95.76593750000029,
      "v": 56
    },
    {
      "midi": 56,
      "hit": false,
      "t": 61935.359999999935,
      "d": 693.04296875,
      "v": 72
    },
    {
      "midi": 60,
      "hit": false,
      "t": 61935.359999999935,
      "d": 733.365468750002,
      "v": 56
    },
    {
      "midi": 62,
      "hit": false,
      "t": 61935.359999999935,
      "d": 740.9259375000038,
      "v": 68
    },
    {
      "midi": 65,
      "hit": false,
      "t": 61935.359999999935,
      "d": 740.9259375000038,
      "v": 76
    },
    {
      "midi": 56,
      "hit": false,
      "t": 61935.35999999997,
      "d": 410.7854687500003,
      "v": 73
    },
    {
      "midi": 62,
      "hit": false,
      "t": 61935.35999999997,
      "d": 539.3134375000009,
      "v": 91
    },
    {
      "midi": 56,
      "hit": false,
      "t": 62419.229999999974,
      "d": 176.4109374999971,
      "v": 38
    },
    {
      "midi": 65,
      "hit": false,
      "t": 62661.16499999997,
      "d": 249.49546874999942,
      "v": 113
    },
    {
      "midi": 56,
      "hit": false,
      "t": 62903.09999999994,
      "d": 322.58000000000175,
      "v": 84
    },
    {
      "midi": 65,
      "hit": false,
      "t": 62903.09999999994,
      "d": 330.1404687500035,
      "v": 100
    },
    {
      "midi": 60,
      "hit": false,
      "t": 62903.09999999994,
      "d": 370.46296875000553,
      "v": 64
    },
    {
      "midi": 62,
      "hit": false,
      "t": 62903.09999999994,
      "d": 385.583906250009,
      "v": 72
    },
    {
      "midi": 56,
      "hit": false,
      "t": 62903.09999999997,
      "d": 183.97140624999884,
      "v": 66
    },
    {
      "midi": 62,
      "hit": false,
      "t": 63145.03499999997,
      "d": 304.9389062499977,
      "v": 55
    },
    {
      "midi": 56,
      "hit": false,
      "t": 63386.96999999995,
      "d": 95.76593750000029,
      "v": 54
    },
    {
      "midi": 56,
      "hit": false,
      "t": 63386.969999999965,
      "d": 183.97140624999884,
      "v": 42
    },
    {
      "midi": 60,
      "hit": false,
      "t": 63628.90499999995,
      "d": 47.88296874999651,
      "v": 32
    },
    {
      "midi": 60,
      "hit": false,
      "t": 63628.90499999996,
      "d": 103.32640625000204,
      "v": 24
    },
    {
      "midi": 56,
      "hit": false,
      "t": 63870.839999999946,
      "d": 330.1404687500035,
      "v": 54
    },
    {
      "midi": 62,
      "hit": false,
      "t": 63870.839999999946,
      "d": 418.34593750000204,
      "v": 56
    },
    {
      "midi": 56,
      "hit": false,
      "t": 64354.70999999995,
      "d": 80.6449999999968,
      "v": 37
    },
    {
      "midi": 56,
      "hit": false,
      "t": 64596.644999999946,
      "d": 80.6449999999968,
      "v": 80
    },
    {
      "midi": 60,
      "hit": false,
      "t": 64838.57999999994,
      "d": 201.6125000000029,
      "v": 68
    },
    {
      "midi": 56,
      "hit": false,
      "t": 64838.579999999965,
      "d": 168.85046875000262,
      "v": 59
    },
    {
      "midi": 62,
      "hit": false,
      "t": 65080.51499999995,
      "d": 95.76593750000029,
      "v": 72
    },
    {
      "midi": 60,
      "hit": false,
      "t": 65080.51499999997,
      "d": 128.52796875000058,
      "v": 70
    },
    {
      "midi": 65,
      "hit": false,
      "t": 65806.31999999995,
      "d": 1088.7074999999895,
      "v": 76
    },
    {
      "midi": 56,
      "hit": false,
      "t": 65806.31999999995,
      "d": 1144.1509374999878,
      "v": 88
    },
    {
      "midi": 63,
      "hit": false,
      "t": 65806.31999999995,
      "d": 1144.1509374999878,
      "v": 61
    },
    {
      "midi": 61,
      "hit": false,
      "t": 65806.31999999995,
      "d": 1176.9129687499808,
      "v": 68
    },
    {
      "midi": 56,
      "hit": false,
      "t": 65806.31999999996,
      "d": 370.46296874999825,
      "v": 70
    },
    {
      "midi": 63,
      "hit": false,
      "t": 65806.31999999996,
      "d": 451.1079687499878,
      "v": 122
    },
    {
      "midi": 61,
      "hit": false,
      "t": 65806.31999999996,
      "d": 466.22890624999127,
      "v": 80
    },
    {
      "midi": 56,
      "hit": false,
      "t": 66290.18999999996,
      "d": 80.64500000000407,
      "v": 48
    },
    {
      "midi": 61,
      "hit": false,
      "t": 66774.05999999997,
      "d": 241.93499999999767,
      "v": 36
    },
    {
      "midi": 63,
      "hit": false,
      "t": 67015.99499999997,
      "d": 47.88296874999651,
      "v": 36
    },
    {
      "midi": 56,
      "hit": false,
      "t": 67257.92999999993,
      "d": 63.00390625,
      "v": 46
    },
    {
      "midi": 68,
      "hit": false,
      "t": 67257.92999999996,
      "d": 249.49546874999942,
      "v": 77
    },
    {
      "midi": 56,
      "hit": false,
      "t": 67499.86499999993,
      "d": 103.32640624999476,
      "v": 46
    },
    {
      "midi": 61,
      "hit": false,
      "t": 67499.86499999996,
      "d": 539.3134375000081,
      "v": 53
    },
    {
      "midi": 63,
      "hit": false,
      "t": 67741.79999999993,
      "d": 216.7334375000064,
      "v": 100
    },
    {
      "midi": 56,
      "hit": false,
      "t": 67741.79999999993,
      "d": 241.93500000001222,
      "v": 80
    },
    {
      "midi": 61,
      "hit": false,
      "t": 67741.79999999993,
      "d": 241.93500000001222,
      "v": 108
    },
    {
      "midi": 63,
      "hit": false,
      "t": 67741.79999999996,
      "d": 216.7334375000064,
      "v": 55
    },
    {
      "midi": 61,
      "hit": false,
      "t": 68467.60499999994,
      "d": 201.6125000000029,
      "v": 55
    },
    {
      "midi": 63,
      "hit": false,
      "t": 68709.53999999994,
      "d": 209.17296875000466,
      "v": 108
    },
    {
      "midi": 68,
      "hit": false,
      "t": 68951.47499999993,
      "d": 55.443437499998254,
      "v": 116
    },
    {
      "midi": 60,
      "hit": false,
      "t": 69677.27999999994,
      "d": 773.6879687500041,
      "v": 108
    },
    {
      "midi": 51,
      "hit": false,
      "t": 69677.27999999994,
      "d": 806.4499999999971,
      "v": 92
    },
    {
      "midi": 56,
      "hit": false,
      "t": 69677.27999999994,
      "d": 814.0104687499988,
      "v": 92
    },
    {
      "midi": 58,
      "hit": false,
      "t": 69677.27999999994,
      "d": 814.0104687499988,
      "v": 92
    },
    {
      "midi": 51,
      "hit": false,
      "t": 69677.27999999997,
      "d": 418.34593749999476,
      "v": 127
    },
    {
      "midi": 60,
      "hit": false,
      "t": 69677.27999999997,
      "d": 498.99093749999884,
      "v": 55
    },
    {
      "midi": 58,
      "hit": false,
      "t": 69677.27999999997,
      "d": 524.1925000000047,
      "v": 73
    },
    {
      "midi": 56,
      "hit": false,
      "t": 69677.27999999997,
      "d": 539.3134375000081,
      "v": 73
    },
    {
      "midi": 51,
      "hit": false,
      "t": 70161.14999999997,
      "d": 80.64500000001863,
      "v": 52
    },
    {
      "midi": 51,
      "hit": false,
      "t": 70645.01999999995,
      "d": 183.97140624999884,
      "v": 80
    },
    {
      "midi": 56,
      "hit": false,
      "t": 70645.01999999999,
      "d": 128.52796875000058,
      "v": 50
    },
    {
      "midi": 56,
      "hit": false,
      "t": 70886.95499999994,
      "d": 168.85046874999534,
      "v": 122
    },
    {
      "midi": 58,
      "hit": false,
      "t": 71370.825,
      "d": 88.20546875000582,
      "v": 59
    },
    {
      "midi": 53,
      "hit": false,
      "t": 71612.75999999994,
      "d": 733.3654687500093,
      "v": 76
    },
    {
      "midi": 58,
      "hit": false,
      "t": 71612.75999999994,
      "d": 748.4864062500128,
      "v": 110
    },
    {
      "midi": 61,
      "hit": false,
      "t": 71612.75999999994,
      "d": 748.4864062500128,
      "v": 110
    },
    {
      "midi": 58,
      "hit": false,
      "t": 71612.76,
      "d": 693.04296875,
      "v": 103
    },
    {
      "midi": 56,
      "hit": false,
      "t": 71612.76,
      "d": 708.1639062500035,
      "v": 84
    },
    {
      "midi": 61,
      "hit": false,
      "t": 71612.76,
      "d": 748.4864062499983,
      "v": 84
    },
    {
      "midi": 53,
      "hit": false,
      "t": 72580.49999999996,
      "d": 168.85046874999534,
      "v": 55
    },
    {
      "midi": 56,
      "hit": false,
      "t": 72580.5,
      "d": 88.20546875000582,
      "v": 16
    },
    {
      "midi": 60,
      "hit": false,
      "t": 72822.43499999995,
      "d": 136.08843750000233,
      "v": 52
    },
    {
      "midi": 49,
      "hit": false,
      "t": 73548.23999999995,
      "d": 773.6879687500041,
      "v": 72
    },
    {
      "midi": 58,
      "hit": false,
      "t": 73548.23999999995,
      "d": 846.7725000000064,
      "v": 116
    },
    {
      "midi": 54,
      "hit": false,
      "t": 73548.23999999995,
      "d": 894.6554687500029,
      "v": 76
    },
    {
      "midi": 56,
      "hit": false,
      "t": 73548.23999999995,
      "d": 894.6554687500029,
      "v": 110
    },
    {
      "midi": 58,
      "hit": false,
      "t": 73548.24,
      "d": 22.68140625000524,
      "v": 37
    },
    {
      "midi": 61,
      "hit": false,
      "t": 73548.24,
      "d": 498.9909375000134,
      "v": 55
    },
    {
      "midi": 58,
      "hit": false,
      "t": 74032.11000000002,
      "d": 209.17296875000466,
      "v": 59
    },
    {
      "midi": 68,
      "hit": false,
      "t": 74274.04500000001,
      "d": 176.4109374999971,
      "v": 122
    },
    {
      "midi": 49,
      "hit": false,
      "t": 74515.97999999995,
      "d": 143.64890625000407,
      "v": 54
    },
    {
      "midi": 58,
      "hit": false,
      "t": 74515.98000000001,
      "d": 88.20546875000582,
      "v": 35
    },
    {
      "midi": 54,
      "hit": false,
      "t": 74757.91499999995,
      "d": 161.2899999999936,
      "v": 88
    },
    {
      "midi": 61,
      "hit": false,
      "t": 74757.91500000002,
      "d": 216.7334375000064,
      "v": 77
    },
    {
      "midi": 54,
      "hit": false,
      "t": 74999.84999999995,
      "d": 47.88296874999651,
      "v": 56
    },
    {
      "midi": 56,
      "hit": false,
      "t": 74999.84999999995,
      "d": 103.32640624999476,
      "v": 122
    },
    {
      "midi": 58,
      "hit": false,
      "t": 74999.85000000003,
      "d": 209.17296875000466,
      "v": 66
    },
    {
      "midi": 66,
      "hit": false,
      "t": 75241.78500000003,
      "d": 289.8179687499942,
      "v": 96
    },
    {
      "midi": 54,
      "hit": false,
      "t": 75483.71999999994,
      "d": 183.97140624999884,
      "v": 56
    },
    {
      "midi": 61,
      "hit": false,
      "t": 75725.65499999994,
      "d": 209.17296875000466,
      "v": 122
    },
    {
      "midi": 54,
      "hit": false,
      "t": 75967.58999999994,
      "d": 143.64890625000407,
      "v": 54
    },
    {
      "midi": 58,
      "hit": false,
      "t": 75967.59000000003,
      "d": 55.443437499998254,
      "v": 36
    },
    {
      "midi": 56,
      "hit": false,
      "t": 76209.52499999994,
      "d": 88.20546875000582,
      "v": 127
    },
    {
      "midi": 58,
      "hit": false,
      "t": 76209.52500000002,
      "d": 168.85046874999534,
      "v": 53
    },
    {
      "midi": 65,
      "hit": false,
      "t": 76451.46000000002,
      "d": 224.2939062499936,
      "v": 103
    },
    {
      "midi": 61,
      "hit": false,
      "t": 76693.39500000002,
      "d": 224.2939062499936,
      "v": 91
    },
    {
      "midi": 58,
      "hit": false,
      "t": 76935.33000000002,
      "d": 95.76593749999302,
      "v": 125
    },
    {
      "midi": 61,
      "hit": false,
      "t": 77419.19999999994,
      "d": 612.3979687500105,
      "v": 92
    },
    {
      "midi": 53,
      "hit": false,
      "t": 77419.19999999994,
      "d": 619.9584375000122,
      "v": 68
    },
    {
      "midi": 56,
      "hit": false,
      "t": 77419.19999999994,
      "d": 645.160000000018,
      "v": 88
    },
    {
      "midi": 53,
      "hit": false,
      "t": 77419.20000000001,
      "d": 685.4825000000128,
      "v": 66
    },
    {
      "midi": 56,
      "hit": false,
      "t": 77419.20000000001,
      "d": 693.0429687500146,
      "v": 73
    },
    {
      "midi": 61,
      "hit": false,
      "t": 77419.20000000001,
      "d": 725.8050000000076,
      "v": 80
    },
    {
      "midi": 53,
      "hit": false,
      "t": 78386.93999999996,
      "d": 282.257500000007,
      "v": 76
    },
    {
      "midi": 61,
      "hit": false,
      "t": 78386.93999999996,
      "d": 345.261406250007,
      "v": 100
    },
    {
      "midi": 56,
      "hit": false,
      "t": 78386.93999999996,
      "d": 362.90250000001106,
      "v": 100
    },
    {
      "midi": 56,
      "hit": false,
      "t": 78386.94000000002,
      "d": 241.93499999999767,
      "v": 103
    },
    {
      "midi": 53,
      "hit": false,
      "t": 78628.87500000001,
      "d": 95.76593749999302,
      "v": 55
    },
    {
      "midi": 53,
      "hit": false,
      "t": 78870.80999999997,
      "d": 80.64500000000407,
      "v": 49
    },
    {
      "midi": 58,
      "hit": false,
      "t": 79354.67999999996,
      "d": 902.2159375000047,
      "v": 122
    },
    {
      "midi": 63,
      "hit": false,
      "t": 79354.67999999996,
      "d": 1071.06640625,
      "v": 100
    },
    {
      "midi": 55,
      "hit": false,
      "t": 79354.67999999996,
      "d": 1290.320000000007,
      "v": 102
    },
    {
      "midi": 55,
      "hit": false,
      "t": 79354.68000000001,
      "d": 128.52796875000058,
      "v": 70
    },
    {
      "midi": 58,
      "hit": false,
      "t": 79354.68000000001,
      "d": 128.52796875000058,
      "v": 84
    },
    {
      "midi": 65,
      "hit": false,
      "t": 80080.485,
      "d": 216.7334375000064,
      "v": 73
    },
    {
      "midi": 67,
      "hit": false,
      "t": 80322.42000000001,
      "d": 241.93499999999767,
      "v": 50
    },
    {
      "midi": 58,
      "hit": false,
      "t": 80564.35499999997,
      "d": 209.17296875000466,
      "v": 46
    },
    {
      "midi": 63,
      "hit": false,
      "t": 80564.35500000001,
      "d": 136.08843750000233,
      "v": 62
    },
    {
      "midi": 55,
      "hit": false,
      "t": 80806.28999999996,
      "d": 120.96749999999884,
      "v": 64
    },
    {
      "midi": 60,
      "hit": false,
      "t": 81290.15999999996,
      "d": 740.9259374999965,
      "v": 61
    },
    {
      "midi": 51,
      "hit": false,
      "t": 81290.15999999996,
      "d": 748.4864062499983,
      "v": 88
    },
    {
      "midi": 56,
      "hit": false,
      "t": 81290.15999999996,
      "d": 773.6879687500041,
      "v": 76
    },
    {
      "midi": 58,
      "hit": false,
      "t": 81290.15999999996,
      "d": 788.8089062500076,
      "v": 76
    },
    {
      "midi": 72,
      "hit": false,
      "t": 81290.16,
      "d": 854.3329687499936,
      "v": 94
    },
    {
      "midi": 60,
      "hit": false,
      "t": 81290.16000000002,
      "d": 693.04296875,
      "v": 88
    },
    {
      "midi": 51,
      "hit": false,
      "t": 81290.16000000002,
      "d": 700.6034375000017,
      "v": 96
    },
    {
      "midi": 56,
      "hit": false,
      "t": 81290.16000000002,
      "d": 700.6034375000017,
      "v": 88
    },
    {
      "midi": 58,
      "hit": false,
      "t": 81290.16000000002,
      "d": 725.8050000000076,
      "v": 84
    },
    {
      "midi": 44,
      "hit": false,
      "t": 81290.16000000002,
      "d": 1290.320000000007,
      "v": 113
    },
    {
      "midi": 51,
      "hit": false,
      "t": 82257.89999999997,
      "d": 257.05593750000116,
      "v": 84
    },
    {
      "midi": 60,
      "hit": false,
      "t": 82257.89999999997,
      "d": 337.70093750000524,
      "v": 55
    },
    {
      "midi": 56,
      "hit": false,
      "t": 82257.89999999997,
      "d": 370.46296874999825,
      "v": 64
    },
    {
      "midi": 58,
      "hit": false,
      "t": 82257.89999999997,
      "d": 378.0234375,
      "v": 72
    },
    {
      "midi": 72,
      "hit": false,
      "t": 82257.9,
      "d": 1176.9129687499953,
      "v": 71
    },
    {
      "midi": 51,
      "hit": false,
      "t": 82257.90000000002,
      "d": 337.70093750000524,
      "v": 96
    },
    {
      "midi": 60,
      "hit": false,
      "t": 82257.90000000002,
      "d": 410.78546875000757,
      "v": 96
    },
    {
      "midi": 56,
      "hit": false,
      "t": 82257.90000000002,
      "d": 443.5475000000006,
      "v": 84
    },
    {
      "midi": 58,
      "hit": false,
      "t": 82257.90000000002,
      "d": 443.5475000000006,
      "v": 62
    },
    {
      "midi": 51,
      "hit": false,
      "t": 82741.76999999996,
      "d": 103.32640624999476,
      "v": 72
    },
    {
      "midi": 51,
      "hit": false,
      "t": 82741.77000000002,
      "d": 103.32640624999476,
      "v": 62
    },
    {
      "midi": 56,
      "hit": false,
      "t": 82983.70499999996,
      "d": 241.93499999999767,
      "v": 18
    },
    {
      "midi": 51,
      "hit": false,
      "t": 83225.63999999996,
      "d": 451.1079687499878,
      "v": 56
    },
    {
      "midi": 55,
      "hit": false,
      "t": 83225.63999999996,
      "d": 587.1964062499756,
      "v": 31
    },
    {
      "midi": 58,
      "hit": false,
      "t": 83225.63999999996,
      "d": 627.5189062499703,
      "v": 54
    },
    {
      "midi": 51,
      "hit": false,
      "t": 83225.64000000001,
      "d": 425.9064062499965,
      "v": 88
    },
    {
      "midi": 55,
      "hit": false,
      "t": 83225.64000000001,
      "d": 572.0754687500012,
      "v": 84
    },
    {
      "midi": 60,
      "hit": false,
      "t": 83225.64000000001,
      "d": 604.8374999999942,
      "v": 59
    },
    {
      "midi": 43,
      "hit": false,
      "t": 83225.64000000001,
      "d": 1305.4409374999814,
      "v": 53
    },
    {
      "midi": 70,
      "hit": false,
      "t": 83467.57499999998,
      "d": 224.2939062499936,
      "v": 65
    },
    {
      "midi": 51,
      "hit": false,
      "t": 83709.50999999994,
      "d": 216.73343749999185,
      "v": 29
    },
    {
      "midi": 68,
      "hit": false,
      "t": 83709.50999999998,
      "d": 209.17296875000466,
      "v": 95
    },
    {
      "midi": 51,
      "hit": false,
      "t": 83709.51000000001,
      "d": 176.4109374999971,
      "v": 24
    },
    {
      "midi": 55,
      "hit": false,
      "t": 83951.44499999993,
      "d": 143.64890625000407,
      "v": 31
    },
    {
      "midi": 70,
      "hit": false,
      "t": 83951.44499999998,
      "d": 483.86999999999534,
      "v": 100
    },
    {
      "midi": 51,
      "hit": false,
      "t": 84193.37999999993,
      "d": 297.3784374999959,
      "v": 84
    },
    {
      "midi": 58,
      "hit": false,
      "t": 84193.37999999993,
      "d": 425.9064062499965,
      "v": 92
    },
    {
      "midi": 55,
      "hit": false,
      "t": 84193.37999999993,
      "d": 451.1079687500023,
      "v": 80
    },
    {
      "midi": 51,
      "hit": false,
      "t": 84193.38,
      "d": 209.17296875000466,
      "v": 103
    },
    {
      "midi": 75,
      "hit": false,
      "t": 84435.31499999997,
      "d": 733.3654687499948,
      "v": 98
    },
    {
      "midi": 55,
      "hit": false,
      "t": 84435.315,
      "d": 120.96749999999884,
      "v": 110
    },
    {
      "midi": 51,
      "hit": false,
      "t": 84677.24999999993,
      "d": 80.64500000000407,
      "v": 46
    },
    {
      "midi": 43,
      "hit": false,
      "t": 84677.25,
      "d": 128.52796875000058,
      "v": 59
    },
    {
      "midi": 56,
      "hit": false,
      "t": 85161.11999999994,
      "d": 587.1964062500047,
      "v": 76
    },
    {
      "midi": 60,
      "hit": false,
      "t": 85161.11999999994,
      "d": 587.1964062500047,
      "v": 76
    },
    {
      "midi": 53,
      "hit": false,
      "t": 85161.11999999994,
      "d": 604.8375000000087,
      "v": 76
    },
    {
      "midi": 68,
      "hit": false,
      "t": 85161.11999999997,
      "d": 1756.5489062499983,
      "v": 91
    },
    {
      "midi": 56,
      "hit": false,
      "t": 85161.12,
      "d": 854.3329687500081,
      "v": 66
    },
    {
      "midi": 60,
      "hit": false,
      "t": 85161.12,
      "d": 967.7400000000052,
      "v": 98
    },
    {
      "midi": 65,
      "hit": false,
      "t": 85161.12,
      "d": 967.7400000000052,
      "v": 91
    },
    {
      "midi": 41,
      "hit": false,
      "t": 85161.12,
      "d": 1257.5579687499994,
      "v": 96
    },
    {
      "midi": 56,
      "hit": false,
      "t": 86128.85999999994,
      "d": 183.97140624999884,
      "v": 76
    },
    {
      "midi": 65,
      "hit": false,
      "t": 86128.85999999994,
      "d": 410.785468749993,
      "v": 116
    },
    {
      "midi": 56,
      "hit": false,
      "t": 86128.86,
      "d": 143.64890625000407,
      "v": 125
    },
    {
      "midi": 56,
      "hit": false,
      "t": 86370.79499999994,
      "d": 183.97140624999884,
      "v": 43
    },
    {
      "midi": 60,
      "hit": false,
      "t": 86370.795,
      "d": 1224.7959375000064,
      "v": 80
    },
    {
      "midi": 60,
      "hit": false,
      "t": 86612.72999999994,
      "d": 378.0234375,
      "v": 88
    },
    {
      "midi": 65,
      "hit": false,
      "t": 86612.73,
      "d": 531.7529687499919,
      "v": 103
    },
    {
      "midi": 65,
      "hit": false,
      "t": 86854.66499999994,
      "d": 304.9389062499977,
      "v": 88
    },
    {
      "midi": 56,
      "hit": false,
      "t": 86854.665,
      "d": 120.96749999999884,
      "v": 55
    },
    {
      "midi": 63,
      "hit": false,
      "t": 87096.59999999993,
      "d": 546.8739062500099,
      "v": 92
    },
    {
      "midi": 60,
      "hit": false,
      "t": 87096.59999999993,
      "d": 612.3979687500105,
      "v": 37
    },
    {
      "midi": 56,
      "hit": false,
      "t": 87096.59999999993,
      "d": 685.4825000000128,
      "v": 64
    },
    {
      "midi": 56,
      "hit": false,
      "t": 87096.59999999999,
      "d": 385.58390625000175,
      "v": 73
    },
    {
      "midi": 63,
      "hit": false,
      "t": 87096.59999999999,
      "d": 491.43046875001164,
      "v": 113
    },
    {
      "midi": 67,
      "hit": false,
      "t": 87338.53499999996,
      "d": 524.1924999999901,
      "v": 53
    },
    {
      "midi": 56,
      "hit": false,
      "t": 87580.47,
      "d": 143.64890625000407,
      "v": 55
    },
    {
      "midi": 68,
      "hit": false,
      "t": 87822.40499999996,
      "d": 546.8739062499953,
      "v": 56
    },
    {
      "midi": 60,
      "hit": false,
      "t": 87822.405,
      "d": 88.20546875000582,
      "v": 73
    },
    {
      "midi": 56,
      "hit": false,
      "t": 88064.33999999995,
      "d": 201.6125000000029,
      "v": 64
    },
    {
      "midi": 60,
      "hit": false,
      "t": 88306.27499999995,
      "d": 128.52796875000058,
      "v": 92
    },
    {
      "midi": 72,
      "hit": false,
      "t": 88306.27499999995,
      "d": 168.85046874999534,
      "v": 59
    },
    {
      "midi": 56,
      "hit": false,
      "t": 88548.21,
      "d": 95.76593749999302,
      "v": 84
    },
    {
      "midi": 65,
      "hit": false,
      "t": 89032.07999999994,
      "d": 1393.6464062500017,
      "v": 67
    },
    {
      "midi": 53,
      "hit": false,
      "t": 89032.07999999996,
      "d": 748.4864062500128,
      "v": 92
    },
    {
      "midi": 60,
      "hit": false,
      "t": 89032.07999999996,
      "d": 788.8089062500076,
      "v": 61
    },
    {
      "midi": 56,
      "hit": false,
      "t": 89032.07999999996,
      "d": 829.1314062500023,
      "v": 84
    },
    {
      "midi": 60,
      "hit": false,
      "t": 89032.07999999999,
      "d": 539.3134375000081,
      "v": 110
    },
    {
      "midi": 56,
      "hit": false,
      "t": 89032.07999999999,
      "d": 587.1964062500047,
      "v": 120
    },
    {
      "midi": 53,
      "hit": false,
      "t": 89032.07999999999,
      "d": 612.3979687500105,
      "v": 98
    },
    {
      "midi": 53,
      "hit": false,
      "t": 89999.81999999996,
      "d": 257.05593750000116,
      "v": 110
    },
    {
      "midi": 53,
      "hit": false,
      "t": 89999.81999999999,
      "d": 161.2899999999936,
      "v": 84
    },
    {
      "midi": 56,
      "hit": false,
      "t": 90241.75499999996,
      "d": 264.6164062500029,
      "v": 118
    },
    {
      "midi": 56,
      "hit": false,
      "t": 90241.75499999999,
      "d": 88.20546875000582,
      "v": 55
    },
    {
      "midi": 60,
      "hit": false,
      "t": 90483.68999999996,
      "d": 136.08843750000233,
      "v": 124
    },
    {
      "midi": 64,
      "hit": false,
      "t": 90967.55999999994,
      "d": 531.7529687499919,
      "v": 44
    },
    {
      "midi": 61,
      "hit": false,
      "t": 90967.55999999995,
      "d": 546.8739062499953,
      "v": 100
    },
    {
      "midi": 56,
      "hit": false,
      "t": 90967.56,
      "d": 337.7009374999907,
      "v": 73
    },
    {
      "midi": 61,
      "hit": false,
      "t": 90967.56,
      "d": 443.54749999998603,
      "v": 66
    },
    {
      "midi": 58,
      "hit": false,
      "t": 90967.56,
      "d": 451.1079687499878,
      "v": 70
    },
    {
      "midi": 64,
      "hit": false,
      "t": 90967.56,
      "d": 531.7529687499773,
      "v": 77
    },
    {
      "midi": 53,
      "hit": false,
      "t": 91209.49499999995,
      "d": 176.4109374999971,
      "v": 1
    },
    {
      "midi": 56,
      "hit": false,
      "t": 91451.42999999998,
      "d": 63.00390625,
      "v": 38
    },
    {
      "midi": 61,
      "hit": false,
      "t": 91693.36499999993,
      "d": 425.9064062499965,
      "v": 41
    },
    {
      "midi": 52,
      "hit": false,
      "t": 91693.36499999995,
      "d": 22.68140625000524,
      "v": 43
    },
    {
      "midi": 68,
      "hit": false,
      "t": 91935.29999999993,
      "d": 201.6125000000029,
      "v": 79
    },
    {
      "midi": 64,
      "hit": false,
      "t": 91935.29999999996,
      "d": 410.785468749993,
      "v": 127
    },
    {
      "midi": 68,
      "hit": false,
      "t": 91935.29999999997,
      "d": 176.4109374999971,
      "v": 80
    },
    {
      "midi": 61,
      "hit": false,
      "t": 91935.29999999997,
      "d": 209.1729687499901,
      "v": 53
    },
    {
      "midi": 64,
      "hit": false,
      "t": 91935.29999999997,
      "d": 289.8179687499942,
      "v": 53
    },
    {
      "midi": 56,
      "hit": false,
      "t": 92419.16999999995,
      "d": 55.443437499998254,
      "v": 56
    },
    {
      "midi": 56,
      "hit": false,
      "t": 92903.03999999995,
      "d": 337.7009374999907,
      "v": 80
    },
    {
      "midi": 63,
      "hit": false,
      "t": 92903.03999999995,
      "d": 337.7009374999907,
      "v": 88
    },
    {
      "midi": 58,
      "hit": false,
      "t": 92903.03999999995,
      "d": 378.02343749998545,
      "v": 72
    },
    {
      "midi": 60,
      "hit": false,
      "t": 92903.03999999995,
      "d": 378.02343749998545,
      "v": 56
    },
    {
      "midi": 60,
      "hit": false,
      "t": 92903.03999999996,
      "d": 304.9389062499977,
      "v": 80
    },
    {
      "midi": 68,
      "hit": false,
      "t": 93144.97499999996,
      "d": 168.85046874999534,
      "v": 91
    },
    {
      "midi": 63,
      "hit": false,
      "t": 93386.90999999996,
      "d": 168.85046874999534,
      "v": 103
    },
    {
      "midi": 60,
      "hit": false,
      "t": 93628.84499999996,
      "d": 63.00390625,
      "v": 62
    },
    {
      "midi": 56,
      "hit": false,
      "t": 93870.77999999993,
      "d": 241.93499999999767,
      "v": 43
    },
    {
      "midi": 51,
      "hit": false,
      "t": 93870.77999999994,
      "d": 249.49546874999942,
      "v": 84
    },
    {
      "midi": 60,
      "hit": false,
      "t": 93870.77999999994,
      "d": 304.9389062499977,
      "v": 68
    },
    {
      "midi": 58,
      "hit": false,
      "t": 93870.77999999994,
      "d": 330.1404687500035,
      "v": 72
    },
    {
      "midi": 56,
      "hit": false,
      "t": 93870.77999999994,
      "d": 378.0234375,
      "v": 76
    },
    {
      "midi": 58,
      "hit": false,
      "t": 94112.71499999992,
      "d": 385.5839062500163,
      "v": 62
    },
    {
      "midi": 51,
      "hit": false,
      "t": 94354.64999999994,
      "d": 55.443437499998254,
      "v": 18
    },
    {
      "midi": 60,
      "hit": false,
      "t": 94354.64999999994,
      "d": 249.49546874999942,
      "v": 56
    },
    {
      "midi": 51,
      "hit": false,
      "t": 94596.58499999993,
      "d": 88.20546875000582,
      "v": 43
    },
    {
      "midi": 63,
      "hit": false,
      "t": 94596.58499999993,
      "d": 63.00390625,
      "v": 77
    },
    {
      "midi": 68,
      "hit": false,
      "t": 94596.58499999996,
      "d": 418.34593749999476,
      "v": 53
    },
    {
      "midi": 51,
      "hit": false,
      "t": 94838.51999999995,
      "d": 249.49546874999942,
      "v": 100
    },
    {
      "midi": 58,
      "hit": false,
      "t": 94838.51999999995,
      "d": 403.2250000000058,
      "v": 61
    },
    {
      "midi": 60,
      "hit": false,
      "t": 94838.51999999995,
      "d": 410.78546875000757,
      "v": 72
    },
    {
      "midi": 56,
      "hit": false,
      "t": 94838.51999999995,
      "d": 425.90640625001106,
      "v": 61
    },
    {
      "midi": 75,
      "hit": false,
      "t": 94838.51999999996,
      "d": 330.1404687500035,
      "v": 106
    },
    {
      "midi": 70,
      "hit": false,
      "t": 95080.45499999996,
      "d": 143.64890625000407,
      "v": 73
    },
    {
      "midi": 51,
      "hit": false,
      "t": 95322.38999999996,
      "d": 128.52796875000058,
      "v": 64
    },
    {
      "midi": 56,
      "hit": false,
      "t": 95564.32499999995,
      "d": 209.17296875000466,
      "v": 92
    },
    {
      "midi": 61,
      "hit": false,
      "t": 95806.25999999995,
      "d": 183.97140624999884,
      "v": 68
    },
    {
      "midi": 53,
      "hit": false,
      "t": 95806.25999999995,
      "d": 201.6125000000029,
      "v": 118
    },
    {
      "midi": 56,
      "hit": false,
      "t": 95806.25999999995,
      "d": 201.6125000000029,
      "v": 116
    },
    {
      "midi": 53,
      "hit": false,
      "t": 96048.19499999995,
      "d": 410.78546875000757,
      "v": 124
    },
    {
      "midi": 56,
      "hit": false,
      "t": 96048.19499999995,
      "d": 443.5475000000006,
      "v": 127
    },
    {
      "midi": 61,
      "hit": false,
      "t": 96048.19499999995,
      "d": 498.99093749999884,
      "v": 122
    },
    {
      "midi": 56,
      "hit": false,
      "t": 96532.06499999994,
      "d": 40.32250000000931,
      "v": 37
    },
    {
      "midi": 72,
      "hit": false,
      "t": 96773.99999999994,
      "d": 1554.9364062499953,
      "v": 88
    },
    {
      "midi": 51,
      "hit": false,
      "t": 96773.99999999996,
      "d": 370.46296874999825,
      "v": 76
    },
    {
      "midi": 60,
      "hit": false,
      "t": 96773.99999999996,
      "d": 506.5514062500006,
      "v": 127
    },
    {
      "midi": 56,
      "hit": false,
      "t": 96773.99999999996,
      "d": 531.7529687500064,
      "v": 88
    },
    {
      "midi": 51,
      "hit": false,
      "t": 96773.99999999996,
      "d": 410.785468749993,
      "v": 113
    },
    {
      "midi": 56,
      "hit": false,
      "t": 96773.99999999996,
      "d": 531.7529687499919,
      "v": 91
    },
    {
      "midi": 58,
      "hit": false,
      "t": 96773.99999999996,
      "d": 539.3134374999936,
      "v": 103
    },
    {
      "midi": 60,
      "hit": false,
      "t": 96773.99999999996,
      "d": 539.3134374999936,
      "v": 80
    },
    {
      "midi": 44,
      "hit": false,
      "t": 96773.99999999996,
      "d": 1176.9129687499953,
      "v": 106
    },
    {
      "midi": 51,
      "hit": false,
      "t": 97257.86999999995,
      "d": 88.20546875000582,
      "v": 76
    },
    {
      "midi": 51,
      "hit": false,
      "t": 97257.86999999995,
      "d": 63.00390625,
      "v": 16
    },
    {
      "midi": 56,
      "hit": false,
      "t": 97741.73999999995,
      "d": 183.97140624999884,
      "v": 59
    },
    {
      "midi": 56,
      "hit": false,
      "t": 97741.73999999996,
      "d": 443.5475000000006,
      "v": 72
    },
    {
      "midi": 58,
      "hit": false,
      "t": 97983.67499999994,
      "d": 289.8179687499942,
      "v": 98
    },
    {
      "midi": 60,
      "hit": false,
      "t": 98225.60999999994,
      "d": 120.96749999999884,
      "v": 30
    },
    {
      "midi": 51,
      "hit": false,
      "t": 98225.60999999996,
      "d": 103.32640624999476,
      "v": 56
    },
    {
      "midi": 63,
      "hit": false,
      "t": 98467.54499999994,
      "d": 1257.5579687499994,
      "v": 98
    },
    {
      "midi": 55,
      "hit": false,
      "t": 98467.54499999995,
      "d": 103.32640624999476,
      "v": 46
    },
    {
      "midi": 55,
      "hit": false,
      "t": 98709.47999999994,
      "d": 821.5709375000006,
      "v": 80
    },
    {
      "midi": 58,
      "hit": false,
      "t": 98709.47999999994,
      "d": 967.7400000000052,
      "v": 103
    },
    {
      "midi": 43,
      "hit": false,
      "t": 98709.47999999994,
      "d": 1249.9974999999831,
      "v": 62
    },
    {
      "midi": 51,
      "hit": false,
      "t": 98709.47999999995,
      "d": 337.70093750000524,
      "v": 92
    },
    {
      "midi": 60,
      "hit": false,
      "t": 98709.47999999995,
      "d": 498.99093749999884,
      "v": 84
    },
    {
      "midi": 55,
      "hit": false,
      "t": 98709.47999999995,
      "d": 546.8739062499953,
      "v": 88
    },
    {
      "midi": 70,
      "hit": false,
      "t": 98951.41499999994,
      "d": 209.17296875000466,
      "v": 65
    },
    {
      "midi": 68,
      "hit": false,
      "t": 99193.34999999993,
      "d": 700.6034375000017,
      "v": 56
    },
    {
      "midi": 51,
      "hit": false,
      "t": 99193.34999999995,
      "d": 176.4109374999971,
      "v": 76
    },
    {
      "midi": 70,
      "hit": false,
      "t": 99435.28499999993,
      "d": 491.43046875001164,
      "v": 98
    },
    {
      "midi": 58,
      "hit": false,
      "t": 99435.28499999995,
      "d": 322.58000000000175,
      "v": 102
    },
    {
      "midi": 51,
      "hit": false,
      "t": 99677.21999999994,
      "d": 143.64890625000407,
      "v": 54
    },
    {
      "midi": 55,
      "hit": false,
      "t": 99677.21999999994,
      "d": 143.64890624998952,
      "v": 48
    },
    {
      "midi": 58,
      "hit": false,
      "t": 99919.15499999993,
      "d": 103.32640624999476,
      "v": 118
    },
    {
      "midi": 75,
      "hit": false,
      "t": 99919.15499999994,
      "d": 120.96749999999884,
      "v": 67
    },
    {
      "midi": 43,
      "hit": false,
      "t": 100161.08999999992,
      "d": 120.96749999999884,
      "v": 98
    },
    {
      "midi": 60,
      "hit": false,
      "t": 100644.95999999992,
      "d": 1353.323906250007,
      "v": 113
    },
    {
      "midi": 65,
      "hit": false,
      "t": 100644.95999999992,
      "d": 1532.2550000000047,
      "v": 88
    },
    {
      "midi": 56,
      "hit": false,
      "t": 100644.95999999992,
      "d": 1862.3954687499936,
      "v": 91
    },
    {
      "midi": 41,
      "hit": false,
      "t": 100644.95999999992,
      "d": 1895.1574999999866,
      "v": 96
    },
    {
      "midi": 68,
      "hit": false,
      "t": 100644.95999999993,
      "d": 1393.6464062500163,
      "v": 98
    },
    {
      "midi": 53,
      "hit": false,
      "t": 100644.95999999995,
      "d": 418.34593749999476,
      "v": 76
    },
    {
      "midi": 56,
      "hit": false,
      "t": 100644.95999999995,
      "d": 498.99093749999884,
      "v": 102
    },
    {
      "midi": 60,
      "hit": false,
      "t": 100644.95999999995,
      "d": 506.5514062500006,
      "v": 80
    },
    {
      "midi": 53,
      "hit": false,
      "t": 101128.82999999994,
      "d": 88.20546875000582,
      "v": 56
    },
    {
      "midi": 56,
      "hit": false,
      "t": 101612.69999999995,
      "d": 385.58390625000175,
      "v": 68
    },
    {
      "midi": 65,
      "hit": false,
      "t": 101612.69999999995,
      "d": 466.2289062500058,
      "v": 102
    },
    {
      "midi": 60,
      "hit": false,
      "t": 102096.56999999992,
      "d": 1554.9364062499808,
      "v": 20
    },
    {
      "midi": 60,
      "hit": false,
      "t": 102096.56999999996,
      "d": 161.2899999999936,
      "v": 29
    },
    {
      "midi": 65,
      "hit": false,
      "t": 102338.50499999992,
      "d": 546.8739062499808,
      "v": 70
    },
    {
      "midi": 56,
      "hit": false,
      "t": 102338.50499999996,
      "d": 161.2899999999936,
      "v": 23
    },
    {
      "midi": 63,
      "hit": false,
      "t": 102580.4399999999,
      "d": 1071.06640625,
      "v": 106
    },
    {
      "midi": 56,
      "hit": false,
      "t": 102580.4399999999,
      "d": 1144.1509375000023,
      "v": 77
    },
    {
      "midi": 60,
      "hit": false,
      "t": 102580.43999999996,
      "d": 458.6684375000041,
      "v": 94
    },
    {
      "midi": 63,
      "hit": false,
      "t": 102580.43999999996,
      "d": 491.4304687499971,
      "v": 94
    },
    {
      "midi": 56,
      "hit": false,
      "t": 102580.43999999996,
      "d": 524.1924999999901,
      "v": 92
    },
    {
      "midi": 70,
      "hit": false,
      "t": 103306.24499999995,
      "d": 700.6034375000017,
      "v": 73
    },
    {
      "midi": 53,
      "hit": false,
      "t": 103548.17999999995,
      "d": 209.17296875000466,
      "v": 55
    },
    {
      "midi": 60,
      "hit": false,
      "t": 103790.1149999999,
      "d": 128.52796875000058,
      "v": 80
    },
    {
      "midi": 53,
      "hit": false,
      "t": 104515.91999999991,
      "d": 788.8089062500076,
      "v": 80
    },
    {
      "midi": 56,
      "hit": false,
      "t": 104515.91999999991,
      "d": 909.7764062500064,
      "v": 106
    },
    {
      "midi": 60,
      "hit": false,
      "t": 104515.91999999991,
      "d": 927.4175000000105,
      "v": 73
    },
    {
      "midi": 53,
      "hit": false,
      "t": 104515.91999999995,
      "d": 378.0234375,
      "v": 68
    },
    {
      "midi": 56,
      "hit": false,
      "t": 104515.91999999995,
      "d": 539.3134374999936,
      "v": 100
    },
    {
      "midi": 61,
      "hit": false,
      "t": 104515.91999999995,
      "d": 579.6359374999884,
      "v": 116
    },
    {
      "midi": 68,
      "hit": false,
      "t": 104515.91999999995,
      "d": 1151.711406250004,
      "v": 100
    },
    {
      "midi": 53,
      "hit": false,
      "t": 104999.78999999995,
      "d": 161.2899999999936,
      "v": 49
    },
    {
      "midi": 53,
      "hit": false,
      "t": 105483.65999999992,
      "d": 176.4109374999971,
      "v": 44
    },
    {
      "midi": 53,
      "hit": false,
      "t": 105483.65999999995,
      "d": 183.97140624999884,
      "v": 110
    },
    {
      "midi": 56,
      "hit": false,
      "t": 105725.59499999991,
      "d": 128.52796875000058,
      "v": 77
    },
    {
      "midi": 56,
      "hit": false,
      "t": 105725.59499999994,
      "d": 337.70093750000524,
      "v": 84
    },
    {
      "midi": 61,
      "hit": false,
      "t": 106209.46499999995,
      "d": 63.00390625,
      "v": 42
    },
    {
      "midi": 52,
      "hit": false,
      "t": 106451.39999999995,
      "d": 345.261406250007,
      "v": 102
    },
    {
      "midi": 58,
      "hit": false,
      "t": 106451.39999999995,
      "d": 425.90640625001106,
      "v": 100
    },
    {
      "midi": 56,
      "hit": false,
      "t": 106451.39999999995,
      "d": 443.54750000001513,
      "v": 64
    },
    {
      "midi": 64,
      "hit": false,
      "t": 106451.39999999995,
      "d": 572.0754687500012,
      "v": 88
    },
    {
      "midi": 56,
      "hit": false,
      "t": 106693.3349999999,
      "d": 451.1079687500023,
      "v": 66
    },
    {
      "midi": 58,
      "hit": false,
      "t": 106935.2699999999,
      "d": 546.8739062499953,
      "v": 62
    },
    {
      "midi": 64,
      "hit": false,
      "t": 107177.2049999999,
      "d": 458.6684374999895,
      "v": 122
    },
    {
      "midi": 56,
      "hit": false,
      "t": 107419.1399999999,
      "d": 183.97140624999884,
      "v": 53
    },
    {
      "midi": 56,
      "hit": false,
      "t": 107419.13999999997,
      "d": 330.1404687500035,
      "v": 61
    },
    {
      "midi": 58,
      "hit": false,
      "t": 107419.13999999997,
      "d": 385.58390625000175,
      "v": 102
    },
    {
      "midi": 64,
      "hit": false,
      "t": 107419.13999999997,
      "d": 410.78546875000757,
      "v": 88
    },
    {
      "midi": 61,
      "hit": false,
      "t": 107661.0749999999,
      "d": 161.2899999999936,
      "v": 62
    },
    {
      "midi": 56,
      "hit": false,
      "t": 108386.87999999989,
      "d": 330.1404687500035,
      "v": 88
    },
    {
      "midi": 51,
      "hit": false,
      "t": 108386.87999999998,
      "d": 362.9024999999965,
      "v": 122
    },
    {
      "midi": 56,
      "hit": false,
      "t": 108386.87999999998,
      "d": 418.34593749999476,
      "v": 84
    },
    {
      "midi": 60,
      "hit": false,
      "t": 108386.87999999998,
      "d": 418.34593749999476,
      "v": 68
    },
    {
      "midi": 58,
      "hit": false,
      "t": 108386.87999999998,
      "d": 425.9064062499965,
      "v": 80
    },
    {
      "midi": 58,
      "hit": false,
      "t": 108628.81499999989,
      "d": 282.257500000007,
      "v": 77
    },
    {
      "midi": 56,
      "hit": false,
      "t": 108628.81499999996,
      "d": 282.25749999999243,
      "v": 30
    },
    {
      "midi": 63,
      "hit": false,
      "t": 108870.7499999999,
      "d": 80.64499999998952,
      "v": 127
    },
    {
      "midi": 58,
      "hit": false,
      "t": 108870.74999999996,
      "d": 345.26140624999243,
      "v": 53
    },
    {
      "midi": 51,
      "hit": false,
      "t": 108870.74999999997,
      "d": 55.443437499998254,
      "v": 68
    },
    {
      "midi": 63,
      "hit": false,
      "t": 109112.68499999995,
      "d": 128.52796875000058,
      "v": 98
    },
    {
      "midi": 68,
      "hit": false,
      "t": 109354.6199999999,
      "d": 282.25749999999243,
      "v": 80
    },
    {
      "midi": 56,
      "hit": false,
      "t": 109354.61999999997,
      "d": 209.17296875000466,
      "v": 72
    },
    {
      "midi": 75,
      "hit": false,
      "t": 109596.55499999989,
      "d": 209.1729687499901,
      "v": 113
    },
    {
      "midi": 58,
      "hit": false,
      "t": 109596.55499999996,
      "d": 216.7334375000064,
      "v": 56
    },
    {
      "midi": 70,
      "hit": false,
      "t": 109838.48999999987,
      "d": 63.00390625,
      "v": 120
    },
    {
      "midi": 63,
      "hit": false,
      "t": 109838.48999999998,
      "d": 80.64500000000407,
      "v": 124
    },
    {
      "midi": 68,
      "hit": false,
      "t": 110080.42499999996,
      "d": 345.26140624999243,
      "v": 50
    },
    {
      "midi": 75,
      "hit": false,
      "t": 110322.35999999996,
      "d": 241.93499999999767,
      "v": 79
    },
    {
      "midi": 68,
      "hit": false,
      "t": 110322.35999999999,
      "d": 264.6164062500029,
      "v": 124
    },
    {
      "midi": 70,
      "hit": false,
      "t": 110564.29499999995,
      "d": 88.20546875000582,
      "v": 77
    },
    {
      "midi": 75,
      "hit": false,
      "t": 110564.29499999998,
      "d": 201.6125000000029,
      "v": 118
    },
    {
      "midi": 70,
      "hit": false,
      "t": 110806.22999999998,
      "d": 55.443437499998254,
      "v": 118
    },
    {
      "midi": 51,
      "hit": false,
      "t": 111048.16499999988,
      "d": 201.6125000000029,
      "v": 106
    },
    {
      "midi": 56,
      "hit": false,
      "t": 111290.09999999987,
      "d": 168.8504687500099,
      "v": 70
    },
    {
      "midi": 60,
      "hit": false,
      "t": 111290.09999999987,
      "d": 304.9389062500122,
      "v": 84
    },
    {
      "midi": 51,
      "hit": false,
      "t": 111290.09999999987,
      "d": 330.14046875001804,
      "v": 106
    },
    {
      "midi": 58,
      "hit": false,
      "t": 111290.09999999987,
      "d": 572.0754687500157,
      "v": 77
    },
    {
      "midi": 80,
      "hit": false,
      "t": 111290.09999999998,
      "d": 176.4109374999971,
      "v": 56
    },
    {
      "midi": 87,
      "hit": false,
      "t": 111532.03499999997,
      "d": 241.93499999999767,
      "v": 76
    },
    {
      "midi": 51,
      "hit": false,
      "t": 111773.9699999999,
      "d": 55.443437499998254,
      "v": 31
    },
    {
      "midi": 56,
      "hit": false,
      "t": 111773.9699999999,
      "d": 128.52796874998603,
      "v": 103
    },
    {
      "midi": 82,
      "hit": false,
      "t": 111773.96999999997,
      "d": 80.64500000000407,
      "v": 76
    },
    {
      "midi": 56,
      "hit": false,
      "t": 112257.83999999988,
      "d": 1796.871406249993,
      "v": 73
    },
    {
      "midi": 60,
      "hit": false,
      "t": 112257.83999999988,
      "d": 1910.27843749999,
      "v": 70
    },
    {
      "midi": 62,
      "hit": false,
      "t": 112257.83999999988,
      "d": 1910.27843749999,
      "v": 53
    },
    {
      "midi": 65,
      "hit": false,
      "t": 112257.83999999988,
      "d": 1935.479999999996,
      "v": 73
    },
    {
      "midi": 56,
      "hit": false,
      "t": 112257.83999999998,
      "d": 2217.7374999999884,
      "v": 76
    },
    {
      "midi": 65,
      "hit": false,
      "t": 112257.83999999998,
      "d": 2280.7414062499884,
      "v": 92
    },
    {
      "midi": 60,
      "hit": false,
      "t": 112257.83999999998,
      "d": 2298.3824999999924,
      "v": 76
    },
    {
      "midi": 62,
      "hit": false,
      "t": 112257.83999999998,
      "d": 2338.704999999987,
      "v": 64
    },
    {
      "midi": 56,
      "hit": false,
      "t": 114193.31999999988,
      "d": 161.2899999999936,
      "v": 55
    },
    {
      "midi": 56,
      "hit": false,
      "t": 114677.18999999997,
      "d": 40.32249999999476,
      "v": 18
    },
    {
      "midi": 56,
      "hit": false,
      "t": 114919.12499999987,
      "d": 120.96749999999884,
      "v": 36
    },
    {
      "midi": 60,
      "hit": false,
      "t": 114919.12499999997,
      "d": 95.76593749999302,
      "v": 56
    },
    {
      "midi": 56,
      "hit": false,
      "t": 115161.05999999987,
      "d": 345.261406250007,
      "v": 73
    },
    {
      "midi": 62,
      "hit": false,
      "t": 115161.05999999987,
      "d": 418.3459375000093,
      "v": 103
    },
    {
      "midi": 56,
      "hit": false,
      "t": 115161.05999999997,
      "d": 370.46296874999825,
      "v": 88
    },
    {
      "midi": 60,
      "hit": false,
      "t": 115161.05999999997,
      "d": 418.34593749999476,
      "v": 76
    },
    {
      "midi": 62,
      "hit": false,
      "t": 115161.05999999997,
      "d": 443.5475000000006,
      "v": 102
    },
    {
      "midi": 56,
      "hit": false,
      "t": 115644.92999999988,
      "d": 88.20546875000582,
      "v": 59
    },
    {
      "midi": 56,
      "hit": false,
      "t": 115644.92999999996,
      "d": 47.88296874999651,
      "v": 52
    },
    {
      "midi": 61,
      "hit": false,
      "t": 116128.79999999989,
      "d": 604.8374999999942,
      "v": 70
    },
    {
      "midi": 63,
      "hit": false,
      "t": 116128.79999999989,
      "d": 612.3979687499959,
      "v": 106
    },
    {
      "midi": 56,
      "hit": false,
      "t": 116128.79999999989,
      "d": 619.9584374999977,
      "v": 73
    },
    {
      "midi": 65,
      "hit": false,
      "t": 116128.79999999989,
      "d": 619.9584374999977,
      "v": 84
    },
    {
      "midi": 53,
      "hit": false,
      "t": 116128.79999999996,
      "d": 1330.6425000000017,
      "v": 102
    },
    {
      "midi": 56,
      "hit": false,
      "t": 116128.79999999996,
      "d": 1418.8479687500076,
      "v": 127
    },
    {
      "midi": 60,
      "hit": false,
      "t": 116128.79999999996,
      "d": 1433.968906250011,
      "v": 52
    },
    {
      "midi": 61,
      "hit": false,
      "t": 116128.79999999996,
      "d": 1459.1704687500169,
      "v": 108
    },
    {
      "midi": 61,
      "hit": false,
      "t": 117580.40999999989,
      "d": 63.00390625,
      "v": 23
    },
    {
      "midi": 53,
      "hit": false,
      "t": 117580.40999999997,
      "d": 128.52796875000058,
      "v": 31
    },
    {
      "midi": 61,
      "hit": false,
      "t": 117822.34499999988,
      "d": 587.1964062500047,
      "v": 46
    },
    {
      "midi": 56,
      "hit": false,
      "t": 117822.34499999997,
      "d": 55.443437499998254,
      "v": 48
    },
    {
      "midi": 68,
      "hit": false,
      "t": 118064.27999999988,
      "d": 546.8739062500099,
      "v": 113
    },
    {
      "midi": 61,
      "hit": false,
      "t": 118548.14999999989,
      "d": 47.88296874999651,
      "v": 23
    },
    {
      "midi": 53,
      "hit": false,
      "t": 118548.14999999997,
      "d": 120.96749999999884,
      "v": 76
    },
    {
      "midi": 56,
      "hit": false,
      "t": 118790.08499999996,
      "d": 128.52796875000058,
      "v": 122
    },
    {
      "midi": 60,
      "hit": false,
      "t": 119273.95499999996,
      "d": 128.52796875000058,
      "v": 80
    },
    {
      "midi": 53,
      "hit": false,
      "t": 119273.95499999996,
      "d": 176.4109374999971,
      "v": 102
    },
    {
      "midi": 51,
      "hit": false,
      "t": 119999.75999999988,
      "d": 806.4499999999971,
      "v": 96
    },
    {
      "midi": 60,
      "hit": false,
      "t": 119999.75999999988,
      "d": 902.2159374999901,
      "v": 46
    },
    {
      "midi": 56,
      "hit": false,
      "t": 119999.75999999988,
      "d": 967.7399999999907,
      "v": 66
    },
    {
      "midi": 58,
      "hit": false,
      "t": 119999.75999999988,
      "d": 1063.5059374999837,
      "v": 46
    },
    {
      "midi": 56,
      "hit": false,
      "t": 119999.75999999995,
      "d": 1071.06640625,
      "v": 110
    },
    {
      "midi": 51,
      "hit": false,
      "t": 119999.75999999995,
      "d": 1249.9974999999977,
      "v": 108
    },
    {
      "midi": 58,
      "hit": false,
      "t": 119999.75999999995,
      "d": 1265.1184375000012,
      "v": 108
    },
    {
      "midi": 60,
      "hit": false,
      "t": 119999.75999999995,
      "d": 1272.678906250003,
      "v": 92
    },
    {
      "midi": 51,
      "hit": false,
      "t": 120967.49999999987,
      "d": 47.88296874999651,
      "v": 24
    },
    {
      "midi": 56,
      "hit": false,
      "t": 121209.43499999987,
      "d": 168.85046874999534,
      "v": 53
    },
    {
      "midi": 56,
      "hit": false,
      "t": 121209.43499999995,
      "d": 216.7334375000064,
      "v": 72
    },
    {
      "midi": 51,
      "hit": false,
      "t": 121451.36999999986,
      "d": 103.32640624999476,
      "v": 77
    },
    {
      "midi": 51,
      "hit": false,
      "t": 121451.36999999997,
      "d": 88.20546875000582,
      "v": 76
    },
    {
      "midi": 53,
      "hit": false,
      "t": 121935.23999999986,
      "d": 1580.1379687500012,
      "v": 73
    },
    {
      "midi": 58,
      "hit": false,
      "t": 121935.23999999986,
      "d": 2661.285000000018,
      "v": 84
    },
    {
      "midi": 61,
      "hit": false,
      "t": 121935.23999999986,
      "d": 2683.9664062500233,
      "v": 73
    },
    {
      "midi": 53,
      "hit": false,
      "t": 121935.23999999998,
      "d": 1330.6425000000017,
      "v": 92
    },
    {
      "midi": 58,
      "hit": false,
      "t": 121935.23999999998,
      "d": 1426.4084374999948,
      "v": 118
    },
    {
      "midi": 61,
      "hit": false,
      "t": 121935.23999999998,
      "d": 1426.4084374999948,
      "v": 100
    },
    {
      "midi": 56,
      "hit": false,
      "t": 123386.84999999998,
      "d": 63.00390625,
      "v": 94
    },
    {
      "midi": 54,
      "hit": false,
      "t": 123870.71999999987,
      "d": 700.6034375000017,
      "v": 55
    },
    {
      "midi": 56,
      "hit": false,
      "t": 123870.71999999987,
      "d": 733.3654687500093,
      "v": 48
    },
    {
      "midi": 54,
      "hit": false,
      "t": 123870.71999999997,
      "d": 1257.5579687499994,
      "v": 94
    },
    {
      "midi": 56,
      "hit": false,
      "t": 123870.71999999997,
      "d": 1265.1184375000012,
      "v": 122
    },
    {
      "midi": 58,
      "hit": false,
      "t": 123870.71999999997,
      "d": 1290.320000000007,
      "v": 92
    },
    {
      "midi": 49,
      "hit": false,
      "t": 123870.71999999997,
      "d": 1338.2029687500035,
      "v": 68
    },
    {
      "midi": 58,
      "hit": false,
      "t": 125322.32999999989,
      "d": 241.93499999999767,
      "v": 44
    },
    {
      "midi": 54,
      "hit": false,
      "t": 125322.32999999997,
      "d": 120.96749999999884,
      "v": 49
    },
    {
      "midi": 68,
      "hit": false,
      "t": 125564.26499999988,
      "d": 264.6164062500029,
      "v": 53
    },
    {
      "midi": 49,
      "hit": false,
      "t": 125564.26499999997,
      "d": 128.52796875000058,
      "v": 29
    },
    {
      "midi": 58,
      "hit": false,
      "t": 125806.19999999988,
      "d": 216.7334375000064,
      "v": 31
    },
    {
      "midi": 49,
      "hit": false,
      "t": 125806.19999999997,
      "d": 209.17296875000466,
      "v": 68
    },
    {
      "midi": 54,
      "hit": false,
      "t": 125806.19999999997,
      "d": 209.17296875000466,
      "v": 88
    },
    {
      "midi": 56,
      "hit": false,
      "t": 125806.19999999997,
      "d": 216.7334375000064,
      "v": 108
    },
    {
      "midi": 66,
      "hit": false,
      "t": 126048.1349999999,
      "d": 950.0989062500012,
      "v": 70
    },
    {
      "midi": 58,
      "hit": false,
      "t": 126290.06999999989,
      "d": 693.04296875,
      "v": 52
    },
    {
      "midi": 61,
      "hit": false,
      "t": 126532.00499999989,
      "d": 466.2289062500058,
      "v": 62
    },
    {
      "midi": 54,
      "hit": false,
      "t": 126532.00499999998,
      "d": 403.22499999999127,
      "v": 37
    },
    {
      "midi": 61,
      "hit": false,
      "t": 126773.93999999997,
      "d": 322.58000000000175,
      "v": 124
    },
    {
      "midi": 56,
      "hit": false,
      "t": 127015.87499999997,
      "d": 201.6125000000029,
      "v": 102
    },
    {
      "midi": 58,
      "hit": false,
      "t": 127257.80999999997,
      "d": 80.64500000000407,
      "v": 122
    },
    {
      "midi": 54,
      "hit": false,
      "t": 127257.80999999997,
      "d": 95.76593750000757,
      "v": 56
    },
    {
      "midi": 56,
      "hit": false,
      "t": 127741.67999999989,
      "d": 410.785468749993,
      "v": 73
    },
    {
      "midi": 62,
      "hit": false,
      "t": 127741.67999999989,
      "d": 539.3134374999936,
      "v": 91
    },
    {
      "midi": 56,
      "hit": false,
      "t": 127741.67999999998,
      "d": 693.04296875,
      "v": 72
    },
    {
      "midi": 60,
      "hit": false,
      "t": 127741.67999999998,
      "d": 733.3654687499948,
      "v": 56
    },
    {
      "midi": 62,
      "hit": false,
      "t": 127741.67999999998,
      "d": 740.9259374999965,
      "v": 68
    },
    {
      "midi": 65,
      "hit": false,
      "t": 127741.67999999998,
      "d": 740.9259374999965,
      "v": 76
    },
    {
      "midi": 56,
      "hit": false,
      "t": 128225.54999999989,
      "d": 176.4109374999971,
      "v": 38
    },
    {
      "midi": 65,
      "hit": false,
      "t": 128467.48499999988,
      "d": 249.49546874999942,
      "v": 113
    },
    {
      "midi": 56,
      "hit": false,
      "t": 128709.41999999988,
      "d": 183.97140624999884,
      "v": 66
    },
    {
      "midi": 56,
      "hit": false,
      "t": 128709.41999999997,
      "d": 322.58000000000175,
      "v": 84
    },
    {
      "midi": 65,
      "hit": false,
      "t": 128709.41999999997,
      "d": 330.1404687500035,
      "v": 100
    },
    {
      "midi": 60,
      "hit": false,
      "t": 128709.41999999997,
      "d": 370.46296874999825,
      "v": 64
    },
    {
      "midi": 62,
      "hit": false,
      "t": 128709.41999999997,
      "d": 385.58390625000175,
      "v": 72
    },
    {
      "midi": 62,
      "hit": false,
      "t": 128951.35499999988,
      "d": 304.9389062499977,
      "v": 55
    },
    {
      "midi": 56,
      "hit": false,
      "t": 129193.28999999988,
      "d": 183.97140624999884,
      "v": 42
    },
    {
      "midi": 56,
      "hit": false,
      "t": 129193.28999999996,
      "d": 95.76593749999302,
      "v": 54
    },
    {
      "midi": 60,
      "hit": false,
      "t": 129435.22499999987,
      "d": 103.32640624999476,
      "v": 24
    },
    {
      "midi": 60,
      "hit": false,
      "t": 129435.22499999996,
      "d": 47.88296874999651,
      "v": 32
    },
    {
      "midi": 56,
      "hit": false,
      "t": 129677.15999999996,
      "d": 330.1404687500035,
      "v": 54
    },
    {
      "midi": 62,
      "hit": false,
      "t": 129677.15999999996,
      "d": 418.3459375000093,
      "v": 56
    },
    {
      "midi": 56,
      "hit": false,
      "t": 130161.02999999997,
      "d": 80.64500000000407,
      "v": 37
    },
    {
      "midi": 56,
      "hit": false,
      "t": 130402.96499999997,
      "d": 80.64500000000407,
      "v": 80
    },
    {
      "midi": 56,
      "hit": false,
      "t": 130644.89999999986,
      "d": 168.85046874999534,
      "v": 59
    },
    {
      "midi": 60,
      "hit": false,
      "t": 130644.89999999997,
      "d": 201.6125000000029,
      "v": 68
    },
    {
      "midi": 60,
      "hit": false,
      "t": 130886.83499999986,
      "d": 128.52796875000058,
      "v": 70
    },
    {
      "midi": 62,
      "hit": false,
      "t": 130886.83499999996,
      "d": 95.76593749999302,
      "v": 72
    },
    {
      "midi": 56,
      "hit": false,
      "t": 131612.63999999987,
      "d": 370.4629687500128,
      "v": 70
    },
    {
      "midi": 63,
      "hit": false,
      "t": 131612.63999999987,
      "d": 451.1079687500023,
      "v": 122
    },
    {
      "midi": 61,
      "hit": false,
      "t": 131612.63999999987,
      "d": 466.2289062500058,
      "v": 80
    },
    {
      "midi": 65,
      "hit": false,
      "t": 131612.63999999996,
      "d": 1088.7075000000186,
      "v": 76
    },
    {
      "midi": 56,
      "hit": false,
      "t": 131612.63999999996,
      "d": 1144.1509375000314,
      "v": 88
    },
    {
      "midi": 63,
      "hit": false,
      "t": 131612.63999999996,
      "d": 1144.1509375000314,
      "v": 61
    },
    {
      "midi": 61,
      "hit": false,
      "t": 131612.63999999996,
      "d": 1176.9129687500244,
      "v": 68
    },
    {
      "midi": 56,
      "hit": false,
      "t": 132096.50999999986,
      "d": 80.64499999998952,
      "v": 48
    },
    {
      "midi": 61,
      "hit": false,
      "t": 132580.37999999986,
      "d": 241.93499999999767,
      "v": 36
    },
    {
      "midi": 63,
      "hit": false,
      "t": 132822.31499999986,
      "d": 47.88296874999651,
      "v": 36
    },
    {
      "midi": 68,
      "hit": false,
      "t": 133064.24999999985,
      "d": 249.49546874998487,
      "v": 77
    },
    {
      "midi": 56,
      "hit": false,
      "t": 133064.24999999997,
      "d": 63.00390625,
      "v": 46
    },
    {
      "midi": 61,
      "hit": false,
      "t": 133306.18499999985,
      "d": 539.313437499979,
      "v": 53
    },
    {
      "midi": 56,
      "hit": false,
      "t": 133306.18499999997,
      "d": 103.32640625000931,
      "v": 46
    },
    {
      "midi": 63,
      "hit": false,
      "t": 133548.11999999985,
      "d": 216.73343749999185,
      "v": 55
    },
    {
      "midi": 63,
      "hit": false,
      "t": 133548.11999999997,
      "d": 216.73343749999185,
      "v": 100
    },
    {
      "midi": 56,
      "hit": false,
      "t": 133548.11999999997,
      "d": 241.93499999999767,
      "v": 80
    },
    {
      "midi": 61,
      "hit": false,
      "t": 133548.11999999997,
      "d": 241.93499999999767,
      "v": 108
    },
    {
      "midi": 61,
      "hit": false,
      "t": 134273.92499999996,
      "d": 201.61249999998836,
      "v": 55
    },
    {
      "midi": 63,
      "hit": false,
      "t": 134515.85999999996,
      "d": 209.17296875000466,
      "v": 108
    },
    {
      "midi": 68,
      "hit": false,
      "t": 134757.79499999995,
      "d": 55.443437500012806,
      "v": 116
    },
    {
      "midi": 51,
      "hit": false,
      "t": 135483.59999999983,
      "d": 418.3459375000093,
      "v": 127
    },
    {
      "midi": 60,
      "hit": false,
      "t": 135483.59999999983,
      "d": 498.99093750002794,
      "v": 55
    },
    {
      "midi": 58,
      "hit": false,
      "t": 135483.59999999983,
      "d": 524.1925000000338,
      "v": 73
    },
    {
      "midi": 56,
      "hit": false,
      "t": 135483.59999999983,
      "d": 539.3134375000373,
      "v": 73
    },
    {
      "midi": 60,
      "hit": false,
      "t": 135483.59999999998,
      "d": 773.6879687499895,
      "v": 108
    },
    {
      "midi": 51,
      "hit": false,
      "t": 135483.59999999998,
      "d": 806.4499999999825,
      "v": 92
    },
    {
      "midi": 56,
      "hit": false,
      "t": 135483.59999999998,
      "d": 814.0104687499697,
      "v": 92
    },
    {
      "midi": 58,
      "hit": false,
      "t": 135483.59999999998,
      "d": 814.0104687499697,
      "v": 92
    },
    {
      "midi": 51,
      "hit": false,
      "t": 135967.46999999986,
      "d": 80.64500000001863,
      "v": 52
    },
    {
      "midi": 56,
      "hit": false,
      "t": 136451.33999999988,
      "d": 128.52796874998603,
      "v": 50
    },
    {
      "midi": 51,
      "hit": false,
      "t": 136451.33999999994,
      "d": 183.97140624999884,
      "v": 80
    },
    {
      "midi": 56,
      "hit": false,
      "t": 136693.27499999994,
      "d": 168.85046874999534,
      "v": 122
    },
    {
      "midi": 58,
      "hit": false,
      "t": 137177.14499999987,
      "d": 88.20546875000582,
      "v": 59
    },
    {
      "midi": 58,
      "hit": false,
      "t": 137419.07999999987,
      "d": 693.04296875,
      "v": 103
    },
    {
      "midi": 56,
      "hit": false,
      "t": 137419.07999999987,
      "d": 708.1639062500035,
      "v": 84
    },
    {
      "midi": 61,
      "hit": false,
      "t": 137419.07999999987,
      "d": 748.4864062500128,
      "v": 84
    },
    {
      "midi": 53,
      "hit": false,
      "t": 137419.07999999993,
      "d": 733.3654687499802,
      "v": 76
    },
    {
      "midi": 58,
      "hit": false,
      "t": 137419.07999999993,
      "d": 748.4864062499837,
      "v": 110
    },
    {
      "midi": 61,
      "hit": false,
      "t": 137419.07999999993,
      "d": 748.4864062499837,
      "v": 110
    },
    {
      "midi": 56,
      "hit": false,
      "t": 138386.8199999999,
      "d": 88.20546875000582,
      "v": 16
    },
    {
      "midi": 53,
      "hit": false,
      "t": 138386.81999999992,
      "d": 168.85046874999534,
      "v": 55
    },
    {
      "midi": 60,
      "hit": false,
      "t": 138628.75499999992,
      "d": 136.08843750000233,
      "v": 52
    },
    {
      "midi": 49,
      "hit": false,
      "t": 139354.5599999999,
      "d": 773.6879687500186,
      "v": 72
    },
    {
      "midi": 58,
      "hit": false,
      "t": 139354.5599999999,
      "d": 846.772500000021,
      "v": 116
    },
    {
      "midi": 54,
      "hit": false,
      "t": 139354.5599999999,
      "d": 894.6554687500175,
      "v": 76
    },
    {
      "midi": 56,
      "hit": false,
      "t": 139354.5599999999,
      "d": 894.6554687500175,
      "v": 110
    },
    {
      "midi": 58,
      "hit": false,
      "t": 139354.5599999999,
      "d": 22.681406249990687,
      "v": 37
    },
    {
      "midi": 61,
      "hit": false,
      "t": 139354.5599999999,
      "d": 498.99093749996973,
      "v": 55
    },
    {
      "midi": 58,
      "hit": false,
      "t": 139838.4299999999,
      "d": 209.17296874997555,
      "v": 59
    },
    {
      "midi": 68,
      "hit": false,
      "t": 140080.36499999987,
      "d": 176.41093750001164,
      "v": 122
    },
    {
      "midi": 58,
      "hit": false,
      "t": 140322.29999999987,
      "d": 88.20546875000582,
      "v": 35
    },
    {
      "midi": 49,
      "hit": false,
      "t": 140322.29999999993,
      "d": 143.64890624998952,
      "v": 54
    },
    {
      "midi": 61,
      "hit": false,
      "t": 140564.23499999987,
      "d": 216.73343749999185,
      "v": 77
    },
    {
      "midi": 54,
      "hit": false,
      "t": 140564.23499999993,
      "d": 161.29000000000815,
      "v": 88
    },
    {
      "midi": 58,
      "hit": false,
      "t": 140806.16999999987,
      "d": 209.17296875000466,
      "v": 66
    },
    {
      "midi": 54,
      "hit": false,
      "t": 140806.16999999993,
      "d": 47.88296874999651,
      "v": 56
    },
    {
      "midi": 56,
      "hit": false,
      "t": 140806.16999999993,
      "d": 103.32640625000931,
      "v": 122
    },
    {
      "midi": 66,
      "hit": false,
      "t": 141048.10499999986,
      "d": 289.8179687499942,
      "v": 96
    },
    {
      "midi": 54,
      "hit": false,
      "t": 141290.03999999992,
      "d": 183.97140624999884,
      "v": 56
    },
    {
      "midi": 61,
      "hit": false,
      "t": 141531.97499999992,
      "d": 209.17296875000466,
      "v": 122
    },
    {
      "midi": 58,
      "hit": false,
      "t": 141773.90999999986,
      "d": 55.443437500012806,
      "v": 36
    },
    {
      "midi": 54,
      "hit": false,
      "t": 141773.90999999992,
      "d": 143.64890624998952,
      "v": 54
    },
    {
      "midi": 58,
      "hit": false,
      "t": 142015.84499999988,
      "d": 168.85046874999534,
      "v": 53
    },
    {
      "midi": 56,
      "hit": false,
      "t": 142015.8449999999,
      "d": 88.20546875000582,
      "v": 127
    },
    {
      "midi": 65,
      "hit": false,
      "t": 142257.77999999988,
      "d": 224.29390625000815,
      "v": 103
    },
    {
      "midi": 61,
      "hit": false,
      "t": 142499.71499999988,
      "d": 224.29390625000815,
      "v": 91
    },
    {
      "midi": 58,
      "hit": false,
      "t": 142741.64999999988,
      "d": 95.76593749999302,
      "v": 125
    },
    {
      "midi": 53,
      "hit": false,
      "t": 143225.51999999987,
      "d": 685.4825000000128,
      "v": 66
    },
    {
      "midi": 56,
      "hit": false,
      "t": 143225.51999999987,
      "d": 693.04296875,
      "v": 73
    },
    {
      "midi": 61,
      "hit": false,
      "t": 143225.51999999987,
      "d": 725.804999999993,
      "v": 80
    },
    {
      "midi": 61,
      "hit": false,
      "t": 143225.51999999993,
      "d": 612.3979687500105,
      "v": 92
    },
    {
      "midi": 53,
      "hit": false,
      "t": 143225.51999999993,
      "d": 619.9584374999977,
      "v": 68
    },
    {
      "midi": 56,
      "hit": false,
      "t": 143225.51999999993,
      "d": 645.1600000000035,
      "v": 88
    },
    {
      "midi": 56,
      "hit": false,
      "t": 144193.25999999986,
      "d": 241.93499999999767,
      "v": 103
    },
    {
      "midi": 53,
      "hit": false,
      "t": 144193.25999999992,
      "d": 282.257500000007,
      "v": 76
    },
    {
      "midi": 61,
      "hit": false,
      "t": 144193.25999999992,
      "d": 345.261406250007,
      "v": 100
    },
    {
      "midi": 56,
      "hit": false,
      "t": 144193.25999999992,
      "d": 362.9024999999965,
      "v": 100
    },
    {
      "midi": 53,
      "hit": false,
      "t": 144435.19499999986,
      "d": 95.76593749999302,
      "v": 55
    },
    {
      "midi": 53,
      "hit": false,
      "t": 144677.12999999992,
      "d": 80.64499999998952,
      "v": 49
    },
    {
      "midi": 55,
      "hit": false,
      "t": 145160.99999999985,
      "d": 128.52796874998603,
      "v": 70
    },
    {
      "midi": 58,
      "hit": false,
      "t": 145160.99999999985,
      "d": 128.52796874998603,
      "v": 84
    },
    {
      "midi": 58,
      "hit": false,
      "t": 145160.9999999999,
      "d": 902.2159375000047,
      "v": 122
    },
    {
      "midi": 63,
      "hit": false,
      "t": 145160.9999999999,
      "d": 1071.06640625,
      "v": 100
    },
    {
      "midi": 55,
      "hit": false,
      "t": 145160.9999999999,
      "d": 1290.3199999999779,
      "v": 102
    },
    {
      "midi": 65,
      "hit": false,
      "t": 145886.80499999985,
      "d": 216.73343749999185,
      "v": 73
    },
    {
      "midi": 67,
      "hit": false,
      "t": 146128.73999999985,
      "d": 241.93499999999767,
      "v": 50
    },
    {
      "midi": 63,
      "hit": false,
      "t": 146370.67499999984,
      "d": 136.08843750000233,
      "v": 62
    },
    {
      "midi": 58,
      "hit": false,
      "t": 146370.6749999999,
      "d": 209.17296874997555,
      "v": 46
    },
    {
      "midi": 55,
      "hit": false,
      "t": 146612.60999999987,
      "d": 120.96749999999884,
      "v": 64
    },
    {
      "midi": 60,
      "hit": false,
      "t": 147096.47999999984,
      "d": 693.04296875,
      "v": 88
    },
    {
      "midi": 51,
      "hit": false,
      "t": 147096.47999999984,
      "d": 700.6034374999872,
      "v": 96
    },
    {
      "midi": 56,
      "hit": false,
      "t": 147096.47999999984,
      "d": 700.6034374999872,
      "v": 88
    },
    {
      "midi": 58,
      "hit": false,
      "t": 147096.47999999984,
      "d": 725.804999999993,
      "v": 84
    },
    {
      "midi": 44,
      "hit": false,
      "t": 147096.47999999984,
      "d": 1290.3199999999779,
      "v": 113
    },
    {
      "midi": 60,
      "hit": false,
      "t": 147096.47999999986,
      "d": 740.9259374999965,
      "v": 61
    },
    {
      "midi": 51,
      "hit": false,
      "t": 147096.47999999986,
      "d": 748.4864062499837,
      "v": 88
    },
    {
      "midi": 56,
      "hit": false,
      "t": 147096.47999999986,
      "d": 773.6879687499895,
      "v": 76
    },
    {
      "midi": 58,
      "hit": false,
      "t": 147096.47999999986,
      "d": 788.808906249993,
      "v": 76
    },
    {
      "midi": 51,
      "hit": false,
      "t": 148064.21999999983,
      "d": 337.7009374999907,
      "v": 96
    },
    {
      "midi": 60,
      "hit": false,
      "t": 148064.21999999983,
      "d": 410.785468749993,
      "v": 96
    },
    {
      "midi": 56,
      "hit": false,
      "t": 148064.21999999983,
      "d": 443.54749999998603,
      "v": 84
    },
    {
      "midi": 58,
      "hit": false,
      "t": 148064.21999999983,
      "d": 443.54749999998603,
      "v": 62
    },
    {
      "midi": 51,
      "hit": false,
      "t": 148064.21999999986,
      "d": 257.05593750000116,
      "v": 84
    },
    {
      "midi": 60,
      "hit": false,
      "t": 148064.21999999986,
      "d": 337.7009374999907,
      "v": 55
    },
    {
      "midi": 56,
      "hit": false,
      "t": 148064.21999999986,
      "d": 370.4629687499837,
      "v": 64
    },
    {
      "midi": 58,
      "hit": false,
      "t": 148064.21999999986,
      "d": 378.0234374999709,
      "v": 72
    },
    {
      "midi": 51,
      "hit": false,
      "t": 148548.08999999982,
      "d": 103.32640625000931,
      "v": 72
    },
    {
      "midi": 51,
      "hit": false,
      "t": 148548.08999999982,
      "d": 103.32640625000931,
      "v": 62
    },
    {
      "midi": 56,
      "hit": false,
      "t": 148790.02499999982,
      "d": 241.93499999999767,
      "v": 18
    },
    {
      "midi": 51,
      "hit": false,
      "t": 149031.95999999982,
      "d": 451.1079687500023,
      "v": 56
    },
    {
      "midi": 55,
      "hit": false,
      "t": 149031.95999999982,
      "d": 587.1964062499756,
      "v": 31
    },
    {
      "midi": 58,
      "hit": false,
      "t": 149031.95999999982,
      "d": 627.5189062499849,
      "v": 54
    },
    {
      "midi": 51,
      "hit": false,
      "t": 149031.95999999982,
      "d": 425.9064062499965,
      "v": 88
    },
    {
      "midi": 55,
      "hit": false,
      "t": 149031.95999999982,
      "d": 572.0754687500012,
      "v": 84
    },
    {
      "midi": 60,
      "hit": false,
      "t": 149031.95999999982,
      "d": 604.8374999999942,
      "v": 59
    },
    {
      "midi": 43,
      "hit": false,
      "t": 149031.95999999982,
      "d": 1305.4409375000105,
      "v": 53
    },
    {
      "midi": 51,
      "hit": false,
      "t": 149515.8299999998,
      "d": 216.73343749999185,
      "v": 29
    },
    {
      "midi": 51,
      "hit": false,
      "t": 149515.8299999998,
      "d": 176.41093750001164,
      "v": 24
    },
    {
      "midi": 55,
      "hit": false,
      "t": 149757.7649999998,
      "d": 143.64890624998952,
      "v": 31
    },
    {
      "midi": 51,
      "hit": false,
      "t": 149999.6999999998,
      "d": 297.3784375000105,
      "v": 84
    },
    {
      "midi": 58,
      "hit": false,
      "t": 149999.6999999998,
      "d": 425.9064062499965,
      "v": 92
    },
    {
      "midi": 55,
      "hit": false,
      "t": 149999.6999999998,
      "d": 451.1079687500023,
      "v": 80
    },
    {
      "midi": 51,
      "hit": false,
      "t": 149999.69999999984,
      "d": 209.17296875000466,
      "v": 103
    },
    {
      "midi": 55,
      "hit": false,
      "t": 150241.63499999983,
      "d": 120.96749999999884,
      "v": 110
    },
    {
      "midi": 51,
      "hit": false,
      "t": 150483.5699999998,
      "d": 80.64499999998952,
      "v": 46
    },
    {
      "midi": 43,
      "hit": false,
      "t": 150483.56999999983,
      "d": 128.52796874998603,
      "v": 59
    },
    {
      "midi": 56,
      "hit": false,
      "t": 150967.4399999998,
      "d": 587.1964062499756,
      "v": 76
    },
    {
      "midi": 60,
      "hit": false,
      "t": 150967.4399999998,
      "d": 587.1964062499756,
      "v": 76
    },
    {
      "midi": 53,
      "hit": false,
      "t": 150967.4399999998,
      "d": 604.8374999999651,
      "v": 76
    },
    {
      "midi": 56,
      "hit": false,
      "t": 150967.43999999983,
      "d": 854.3329687500081,
      "v": 66
    },
    {
      "midi": 60,
      "hit": false,
      "t": 150967.43999999983,
      "d": 967.7400000000198,
      "v": 98
    },
    {
      "midi": 65,
      "hit": false,
      "t": 150967.43999999983,
      "d": 967.7400000000198,
      "v": 91
    },
    {
      "midi": 41,
      "hit": false,
      "t": 150967.43999999983,
      "d": 1257.557968750014,
      "v": 96
    },
    {
      "midi": 56,
      "hit": false,
      "t": 151935.17999999976,
      "d": 183.97140624999884,
      "v": 76
    },
    {
      "midi": 65,
      "hit": false,
      "t": 151935.17999999976,
      "d": 410.785468749993,
      "v": 116
    },
    {
      "midi": 56,
      "hit": false,
      "t": 151935.17999999985,
      "d": 143.64890624998952,
      "v": 125
    },
    {
      "midi": 56,
      "hit": false,
      "t": 152177.11499999976,
      "d": 183.97140624999884,
      "v": 43
    },
    {
      "midi": 60,
      "hit": false,
      "t": 152177.11499999985,
      "d": 1224.7959374999336,
      "v": 80
    },
    {
      "midi": 60,
      "hit": false,
      "t": 152419.04999999976,
      "d": 378.0234375,
      "v": 88
    },
    {
      "midi": 65,
      "hit": false,
      "t": 152419.04999999984,
      "d": 531.7529687499919,
      "v": 103
    },
    {
      "midi": 65,
      "hit": false,
      "t": 152660.98499999975,
      "d": 304.9389062499977,
      "v": 88
    },
    {
      "midi": 56,
      "hit": false,
      "t": 152660.98499999984,
      "d": 120.96749999999884,
      "v": 55
    },
    {
      "midi": 63,
      "hit": false,
      "t": 152902.91999999975,
      "d": 546.8739062499953,
      "v": 92
    },
    {
      "midi": 60,
      "hit": false,
      "t": 152902.91999999975,
      "d": 612.3979687499814,
      "v": 37
    },
    {
      "midi": 56,
      "hit": false,
      "t": 152902.91999999975,
      "d": 685.4824999999837,
      "v": 64
    },
    {
      "midi": 56,
      "hit": false,
      "t": 152902.91999999984,
      "d": 385.5839062499872,
      "v": 73
    },
    {
      "midi": 63,
      "hit": false,
      "t": 152902.91999999984,
      "d": 491.43046874995343,
      "v": 113
    },
    {
      "midi": 56,
      "hit": false,
      "t": 153386.7899999998,
      "d": 143.64890624996042,
      "v": 55
    },
    {
      "midi": 60,
      "hit": false,
      "t": 153628.72499999977,
      "d": 88.20546875000582,
      "v": 73
    },
    {
      "midi": 56,
      "hit": false,
      "t": 153870.65999999974,
      "d": 201.61249999998836,
      "v": 64
    },
    {
      "midi": 60,
      "hit": false,
      "t": 154112.59499999974,
      "d": 128.52796874998603,
      "v": 92
    },
    {
      "midi": 56,
      "hit": false,
      "t": 154354.52999999977,
      "d": 95.76593749999302,
      "v": 84
    },
    {
      "midi": 53,
      "hit": false,
      "t": 154838.39999999973,
      "d": 748.4864062499837,
      "v": 92
    },
    {
      "midi": 60,
      "hit": false,
      "t": 154838.39999999973,
      "d": 788.808906249993,
      "v": 61
    },
    {
      "midi": 56,
      "hit": false,
      "t": 154838.39999999973,
      "d": 829.1314062500023,
      "v": 84
    },
    {
      "midi": 60,
      "hit": false,
      "t": 154838.39999999976,
      "d": 539.3134375000081,
      "v": 110
    },
    {
      "midi": 56,
      "hit": false,
      "t": 154838.39999999976,
      "d": 587.1964062500047,
      "v": 120
    },
    {
      "midi": 53,
      "hit": false,
      "t": 154838.39999999976,
      "d": 612.3979687500105,
      "v": 98
    },
    {
      "midi": 53,
      "hit": false,
      "t": 155806.13999999972,
      "d": 257.05593750000116,
      "v": 110
    },
    {
      "midi": 53,
      "hit": false,
      "t": 155806.13999999978,
      "d": 161.29000000000815,
      "v": 84
    },
    {
      "midi": 56,
      "hit": false,
      "t": 156048.07499999972,
      "d": 264.61640624998836,
      "v": 118
    },
    {
      "midi": 56,
      "hit": false,
      "t": 156048.07499999978,
      "d": 88.20546875000582,
      "v": 55
    },
    {
      "midi": 60,
      "hit": false,
      "t": 156290.00999999972,
      "d": 136.08843750000233,
      "v": 124
    },
    {
      "midi": 61,
      "hit": false,
      "t": 156773.8799999997,
      "d": 546.8739062499662,
      "v": 100
    },
    {
      "midi": 56,
      "hit": false,
      "t": 156773.87999999977,
      "d": 337.7009374999907,
      "v": 73
    },
    {
      "midi": 61,
      "hit": false,
      "t": 156773.87999999977,
      "d": 443.54749999998603,
      "v": 66
    },
    {
      "midi": 58,
      "hit": false,
      "t": 156773.87999999977,
      "d": 451.1079687499732,
      "v": 70
    },
    {
      "midi": 64,
      "hit": false,
      "t": 156773.87999999977,
      "d": 531.7529687499627,
      "v": 77
    },
    {
      "midi": 53,
      "hit": false,
      "t": 157015.8149999997,
      "d": 176.41093749998254,
      "v": 1
    },
    {
      "midi": 56,
      "hit": false,
      "t": 157257.74999999974,
      "d": 63.00390625,
      "v": 38
    },
    {
      "midi": 52,
      "hit": false,
      "t": 157499.68499999968,
      "d": 22.681406249990687,
      "v": 43
    },
    {
      "midi": 64,
      "hit": false,
      "t": 157741.61999999968,
      "d": 410.785468749993,
      "v": 127
    },
    {
      "midi": 68,
      "hit": false,
      "t": 157741.61999999973,
      "d": 176.41093750001164,
      "v": 80
    },
    {
      "midi": 61,
      "hit": false,
      "t": 157741.61999999973,
      "d": 209.17296875000466,
      "v": 53
    },
    {
      "midi": 64,
      "hit": false,
      "t": 157741.61999999973,
      "d": 289.8179687499942,
      "v": 53
    },
    {
      "midi": 56,
      "hit": false,
      "t": 158225.48999999967,
      "d": 55.443437500012806,
      "v": 56
    },
    {
      "midi": 56,
      "hit": false,
      "t": 158709.35999999967,
      "d": 337.7009374999907,
      "v": 80
    },
    {
      "midi": 63,
      "hit": false,
      "t": 158709.35999999967,
      "d": 337.7009374999907,
      "v": 88
    },
    {
      "midi": 58,
      "hit": false,
      "t": 158709.35999999967,
      "d": 378.0234375,
      "v": 72
    },
    {
      "midi": 60,
      "hit": false,
      "t": 158709.35999999967,
      "d": 378.0234375,
      "v": 56
    },
    {
      "midi": 60,
      "hit": false,
      "t": 158709.35999999972,
      "d": 304.9389062499977,
      "v": 80
    },
    {
      "midi": 68,
      "hit": false,
      "t": 158951.29499999972,
      "d": 168.85046874999534,
      "v": 91
    },
    {
      "midi": 63,
      "hit": false,
      "t": 159193.22999999972,
      "d": 168.85046874999534,
      "v": 103
    },
    {
      "midi": 60,
      "hit": false,
      "t": 159435.16499999972,
      "d": 63.00390625,
      "v": 62
    },
    {
      "midi": 51,
      "hit": false,
      "t": 159677.09999999966,
      "d": 249.49546875001397,
      "v": 84
    },
    {
      "midi": 60,
      "hit": false,
      "t": 159677.09999999966,
      "d": 304.9389062500268,
      "v": 68
    },
    {
      "midi": 58,
      "hit": false,
      "t": 159677.09999999966,
      "d": 330.1404687500326,
      "v": 72
    },
    {
      "midi": 56,
      "hit": false,
      "t": 159677.09999999966,
      "d": 378.0234375000291,
      "v": 76
    },
    {
      "midi": 51,
      "hit": false,
      "t": 160160.96999999968,
      "d": 55.443437500012806,
      "v": 18
    },
    {
      "midi": 51,
      "hit": false,
      "t": 160402.9049999997,
      "d": 88.20546875000582,
      "v": 43
    },
    {
      "midi": 68,
      "hit": false,
      "t": 160402.9049999997,
      "d": 418.3459375000093,
      "v": 53
    },
    {
      "midi": 51,
      "hit": false,
      "t": 160644.8399999997,
      "d": 249.49546875001397,
      "v": 100
    },
    {
      "midi": 58,
      "hit": false,
      "t": 160644.8399999997,
      "d": 403.2250000000058,
      "v": 61
    },
    {
      "midi": 60,
      "hit": false,
      "t": 160644.8399999997,
      "d": 410.785468749993,
      "v": 72
    },
    {
      "midi": 56,
      "hit": false,
      "t": 160644.8399999997,
      "d": 425.9064062499965,
      "v": 61
    },
    {
      "midi": 75,
      "hit": false,
      "t": 160644.8399999997,
      "d": 330.1404687500035,
      "v": 106
    },
    {
      "midi": 70,
      "hit": false,
      "t": 160886.7749999997,
      "d": 143.64890625001863,
      "v": 73
    },
    {
      "midi": 51,
      "hit": false,
      "t": 161128.7099999997,
      "d": 128.52796874998603,
      "v": 64
    },
    {
      "midi": 56,
      "hit": false,
      "t": 161370.6449999997,
      "d": 209.17296875000466,
      "v": 92
    },
    {
      "midi": 61,
      "hit": false,
      "t": 161612.5799999997,
      "d": 183.97140624999884,
      "v": 68
    },
    {
      "midi": 53,
      "hit": false,
      "t": 161612.5799999997,
      "d": 201.61249999998836,
      "v": 118
    },
    {
      "midi": 56,
      "hit": false,
      "t": 161612.5799999997,
      "d": 201.61249999998836,
      "v": 116
    },
    {
      "midi": 53,
      "hit": false,
      "t": 161854.5149999997,
      "d": 410.785468749993,
      "v": 124
    },
    {
      "midi": 56,
      "hit": false,
      "t": 161854.5149999997,
      "d": 443.54749999998603,
      "v": 127
    },
    {
      "midi": 61,
      "hit": false,
      "t": 161854.5149999997,
      "d": 498.99093749999884,
      "v": 122
    },
    {
      "midi": 56,
      "hit": false,
      "t": 162338.3849999997,
      "d": 40.32250000000931,
      "v": 37
    },
    {
      "midi": 51,
      "hit": false,
      "t": 162580.3199999997,
      "d": 370.4629687500128,
      "v": 76
    },
    {
      "midi": 60,
      "hit": false,
      "t": 162580.3199999997,
      "d": 506.55140625001513,
      "v": 127
    },
    {
      "midi": 56,
      "hit": false,
      "t": 162580.3199999997,
      "d": 531.752968750021,
      "v": 88
    },
    {
      "midi": 51,
      "hit": false,
      "t": 162580.31999999975,
      "d": 410.7854687500221,
      "v": 113
    },
    {
      "midi": 56,
      "hit": false,
      "t": 162580.31999999975,
      "d": 531.752968750021,
      "v": 91
    },
    {
      "midi": 58,
      "hit": false,
      "t": 162580.31999999975,
      "d": 539.3134375000081,
      "v": 103
    },
    {
      "midi": 60,
      "hit": false,
      "t": 162580.31999999975,
      "d": 539.3134375000081,
      "v": 80
    },
    {
      "midi": 44,
      "hit": false,
      "t": 162580.31999999975,
      "d": 1176.9129687499953,
      "v": 106
    },
    {
      "midi": 51,
      "hit": false,
      "t": 163064.1899999997,
      "d": 88.20546875000582,
      "v": 76
    },
    {
      "midi": 51,
      "hit": false,
      "t": 163064.18999999977,
      "d": 63.003906249970896,
      "v": 16
    },
    {
      "midi": 56,
      "hit": false,
      "t": 163548.0599999997,
      "d": 443.54749999998603,
      "v": 72
    },
    {
      "midi": 56,
      "hit": false,
      "t": 163548.05999999974,
      "d": 183.97140624999884,
      "v": 59
    },
    {
      "midi": 58,
      "hit": false,
      "t": 163789.99499999973,
      "d": 289.8179687499942,
      "v": 98
    },
    {
      "midi": 51,
      "hit": false,
      "t": 164031.9299999997,
      "d": 103.32640625000931,
      "v": 56
    },
    {
      "midi": 60,
      "hit": false,
      "t": 164031.92999999973,
      "d": 120.96749999999884,
      "v": 30
    },
    {
      "midi": 55,
      "hit": false,
      "t": 164273.8649999997,
      "d": 103.32640625000931,
      "v": 46
    },
    {
      "midi": 63,
      "hit": false,
      "t": 164273.86499999973,
      "d": 1257.557968750014,
      "v": 98
    },
    {
      "midi": 51,
      "hit": false,
      "t": 164515.7999999997,
      "d": 337.7009374999907,
      "v": 92
    },
    {
      "midi": 60,
      "hit": false,
      "t": 164515.7999999997,
      "d": 498.99093749999884,
      "v": 84
    },
    {
      "midi": 55,
      "hit": false,
      "t": 164515.7999999997,
      "d": 546.8739062499953,
      "v": 88
    },
    {
      "midi": 55,
      "hit": false,
      "t": 164515.79999999973,
      "d": 821.5709375000151,
      "v": 80
    },
    {
      "midi": 58,
      "hit": false,
      "t": 164515.79999999973,
      "d": 967.7400000000198,
      "v": 103
    },
    {
      "midi": 43,
      "hit": false,
      "t": 164515.79999999973,
      "d": 1249.9975000000268,
      "v": 62
    },
    {
      "midi": 51,
      "hit": false,
      "t": 164999.6699999997,
      "d": 176.41093750001164,
      "v": 76
    },
    {
      "midi": 58,
      "hit": false,
      "t": 165241.6049999997,
      "d": 322.5799999999872,
      "v": 102
    },
    {
      "midi": 51,
      "hit": false,
      "t": 165483.5399999997,
      "d": 143.64890624998952,
      "v": 54
    },
    {
      "midi": 55,
      "hit": false,
      "t": 165483.53999999975,
      "d": 143.64890624998952,
      "v": 48
    },
    {
      "midi": 58,
      "hit": false,
      "t": 165725.47499999974,
      "d": 103.32640625000931,
      "v": 118
    },
    {
      "midi": 43,
      "hit": false,
      "t": 165967.40999999974,
      "d": 120.96749999999884,
      "v": 98
    },
    {
      "midi": 53,
      "hit": false,
      "t": 166451.27999999968,
      "d": 418.3459375000093,
      "v": 76
    },
    {
      "midi": 56,
      "hit": false,
      "t": 166451.27999999968,
      "d": 498.99093749999884,
      "v": 102
    },
    {
      "midi": 60,
      "hit": false,
      "t": 166451.27999999968,
      "d": 506.55140624998603,
      "v": 80
    },
    {
      "midi": 60,
      "hit": false,
      "t": 166451.27999999974,
      "d": 1353.323906250007,
      "v": 113
    },
    {
      "midi": 65,
      "hit": false,
      "t": 166451.27999999974,
      "d": 1532.2550000000047,
      "v": 88
    },
    {
      "midi": 56,
      "hit": false,
      "t": 166451.27999999974,
      "d": 1862.3954687500081,
      "v": 91
    },
    {
      "midi": 41,
      "hit": false,
      "t": 166451.27999999974,
      "d": 1895.1575000000012,
      "v": 96
    },
    {
      "midi": 53,
      "hit": false,
      "t": 166935.14999999967,
      "d": 88.20546874997672,
      "v": 56
    },
    {
      "midi": 56,
      "hit": false,
      "t": 167419.01999999964,
      "d": 385.5839062499872,
      "v": 68
    },
    {
      "midi": 65,
      "hit": false,
      "t": 167419.01999999964,
      "d": 466.2289062499767,
      "v": 102
    },
    {
      "midi": 60,
      "hit": false,
      "t": 167902.8899999996,
      "d": 161.29000000000815,
      "v": 29
    },
    {
      "midi": 60,
      "hit": false,
      "t": 167902.88999999975,
      "d": 1554.9364062499953,
      "v": 20
    },
    {
      "midi": 56,
      "hit": false,
      "t": 168144.8249999996,
      "d": 161.29000000000815,
      "v": 23
    },
    {
      "midi": 65,
      "hit": false,
      "t": 168144.82499999975,
      "d": 546.8739062499953,
      "v": 70
    },
    {
      "midi": 60,
      "hit": false,
      "t": 168386.7599999996,
      "d": 458.6684374999895,
      "v": 94
    },
    {
      "midi": 63,
      "hit": false,
      "t": 168386.7599999996,
      "d": 491.43046874998254,
      "v": 94
    },
    {
      "midi": 56,
      "hit": false,
      "t": 168386.7599999996,
      "d": 524.1924999999756,
      "v": 92
    },
    {
      "midi": 63,
      "hit": false,
      "t": 168386.75999999975,
      "d": 1071.06640625,
      "v": 106
    },
    {
      "midi": 56,
      "hit": false,
      "t": 168386.75999999975,
      "d": 1144.1509375000023,
      "v": 77
    },
    {
      "midi": 53,
      "hit": false,
      "t": 169354.49999999956,
      "d": 209.17296875000466,
      "v": 55
    },
    {
      "midi": 60,
      "hit": false,
      "t": 169596.43499999974,
      "d": 128.52796874998603,
      "v": 80
    },
    {
      "midi": 53,
      "hit": false,
      "t": 170322.23999999958,
      "d": 378.0234375,
      "v": 68
    },
    {
      "midi": 56,
      "hit": false,
      "t": 170322.23999999958,
      "d": 539.3134375000081,
      "v": 100
    },
    {
      "midi": 61,
      "hit": false,
      "t": 170322.23999999958,
      "d": 579.6359375000175,
      "v": 116
    },
    {
      "midi": 53,
      "hit": false,
      "t": 170322.23999999973,
      "d": 788.8089062499639,
      "v": 80
    },
    {
      "midi": 56,
      "hit": false,
      "t": 170322.23999999973,
      "d": 909.7764062499627,
      "v": 106
    },
    {
      "midi": 60,
      "hit": false,
      "t": 170322.23999999973,
      "d": 927.4174999999523,
      "v": 73
    },
    {
      "midi": 53,
      "hit": false,
      "t": 170806.10999999958,
      "d": 161.29000000000815,
      "v": 49
    },
    {
      "midi": 53,
      "hit": false,
      "t": 171289.97999999957,
      "d": 183.97140624999884,
      "v": 110
    },
    {
      "midi": 53,
      "hit": false,
      "t": 171289.9799999997,
      "d": 176.41093750001164,
      "v": 44
    },
    {
      "midi": 56,
      "hit": false,
      "t": 171531.91499999957,
      "d": 337.7009374999907,
      "v": 84
    },
    {
      "midi": 56,
      "hit": false,
      "t": 171531.9149999997,
      "d": 128.52796874998603,
      "v": 77
    },
    {
      "midi": 52,
      "hit": false,
      "t": 172257.71999999956,
      "d": 345.261406250007,
      "v": 102
    },
    {
      "midi": 58,
      "hit": false,
      "t": 172257.71999999956,
      "d": 425.9064062500256,
      "v": 100
    },
    {
      "midi": 56,
      "hit": false,
      "t": 172257.71999999956,
      "d": 443.54750000001513,
      "v": 64
    },
    {
      "midi": 56,
      "hit": false,
      "t": 172499.65499999968,
      "d": 451.1079687500023,
      "v": 66
    },
    {
      "midi": 58,
      "hit": false,
      "t": 172741.58999999968,
      "d": 546.8739062499953,
      "v": 62
    },
    {
      "midi": 64,
      "hit": false,
      "t": 172983.52499999967,
      "d": 458.6684374999895,
      "v": 122
    },
    {
      "midi": 56,
      "hit": false,
      "t": 173225.45999999958,
      "d": 330.1404687500035,
      "v": 61
    },
    {
      "midi": 58,
      "hit": false,
      "t": 173225.45999999958,
      "d": 385.5839062500163,
      "v": 102
    },
    {
      "midi": 64,
      "hit": false,
      "t": 173225.45999999958,
      "d": 410.7854687500221,
      "v": 88
    },
    {
      "midi": 56,
      "hit": false,
      "t": 173225.45999999967,
      "d": 183.97140624999884,
      "v": 53
    },
    {
      "midi": 61,
      "hit": false,
      "t": 173467.39499999967,
      "d": 161.29000000000815,
      "v": 62
    },
    {
      "midi": 51,
      "hit": false,
      "t": 174193.1999999996,
      "d": 362.9024999999965,
      "v": 122
    },
    {
      "midi": 56,
      "hit": false,
      "t": 174193.1999999996,
      "d": 418.3459375000093,
      "v": 84
    },
    {
      "midi": 60,
      "hit": false,
      "t": 174193.1999999996,
      "d": 418.3459375000093,
      "v": 68
    },
    {
      "midi": 58,
      "hit": false,
      "t": 174193.1999999996,
      "d": 425.9064062499965,
      "v": 80
    },
    {
      "midi": 56,
      "hit": false,
      "t": 174193.1999999997,
      "d": 330.1404687499744,
      "v": 88
    },
    {
      "midi": 58,
      "hit": false,
      "t": 174435.1349999997,
      "d": 282.2574999999779,
      "v": 77
    },
    {
      "midi": 51,
      "hit": false,
      "t": 174677.0699999996,
      "d": 55.443437500012806,
      "v": 68
    },
    {
      "midi": 63,
      "hit": false,
      "t": 174677.06999999966,
      "d": 80.64500000001863,
      "v": 127
    },
    {
      "midi": 56,
      "hit": false,
      "t": 175160.93999999962,
      "d": 209.17296875000466,
      "v": 72
    },
    {
      "midi": 68,
      "hit": false,
      "t": 175160.93999999968,
      "d": 282.257500000007,
      "v": 80
    },
    {
      "midi": 58,
      "hit": false,
      "t": 175402.87499999962,
      "d": 216.73343749999185,
      "v": 56
    },
    {
      "midi": 75,
      "hit": false,
      "t": 175402.87499999968,
      "d": 209.17296875000466,
      "v": 113
    },
    {
      "midi": 63,
      "hit": false,
      "t": 175644.80999999962,
      "d": 80.64499999998952,
      "v": 124
    },
    {
      "midi": 70,
      "hit": false,
      "t": 175644.80999999968,
      "d": 63.00390625,
      "v": 120
    },
    {
      "midi": 68,
      "hit": false,
      "t": 176128.67999999961,
      "d": 264.61640624998836,
      "v": 124
    },
    {
      "midi": 75,
      "hit": false,
      "t": 176370.6149999996,
      "d": 201.61249999998836,
      "v": 118
    },
    {
      "midi": 70,
      "hit": false,
      "t": 176612.5499999996,
      "d": 55.443437500012806,
      "v": 118
    },
    {
      "midi": 51,
      "hit": false,
      "t": 176854.48499999967,
      "d": 201.61249999998836,
      "v": 106
    },
    {
      "midi": 80,
      "hit": false,
      "t": 177096.41999999963,
      "d": 176.41093750001164,
      "v": 56
    },
    {
      "midi": 56,
      "hit": false,
      "t": 177096.41999999966,
      "d": 168.85046874999534,
      "v": 70
    },
    {
      "midi": 60,
      "hit": false,
      "t": 177096.41999999966,
      "d": 304.9389062499977,
      "v": 84
    },
    {
      "midi": 51,
      "hit": false,
      "t": 177096.41999999966,
      "d": 330.1404687499744,
      "v": 106
    },
    {
      "midi": 58,
      "hit": false,
      "t": 177096.41999999966,
      "d": 572.0754687499721,
      "v": 77
    },
    {
      "midi": 87,
      "hit": false,
      "t": 177338.35499999963,
      "d": 241.93499999999767,
      "v": 76
    },
    {
      "midi": 82,
      "hit": false,
      "t": 177580.28999999963,
      "d": 80.64499999998952,
      "v": 76
    },
    {
      "midi": 51,
      "hit": false,
      "t": 177580.28999999963,
      "d": 55.443437500012806,
      "v": 31
    },
    {
      "midi": 56,
      "hit": false,
      "t": 177580.28999999963,
      "d": 128.52796875001513,
      "v": 103
    },
    {
      "midi": 53,
      "hit": false,
      "t": 178064.15999999963,
      "d": 781.2484374999767,
      "v": 94
    },
    {
      "midi": 56,
      "hit": false,
      "t": 178064.15999999963,
      "d": 829.1314062499732,
      "v": 116
    },
    {
      "midi": 58,
      "hit": false,
      "t": 178064.15999999963,
      "d": 909.7764062499627,
      "v": 116
    },
    {
      "midi": 62,
      "hit": false,
      "t": 178064.15999999963,
      "d": 967.7399999999616,
      "v": 118
    },
    {
      "midi": 53,
      "hit": false,
      "t": 178064.15999999965,
      "d": 410.785468749993,
      "v": 110
    },
    {
      "midi": 58,
      "hit": false,
      "t": 178064.15999999965,
      "d": 466.2289062499767,
      "v": 98
    },
    {
      "midi": 60,
      "hit": false,
      "t": 178064.15999999965,
      "d": 531.7529687499627,
      "v": 113
    },
    {
      "midi": 62,
      "hit": false,
      "t": 178064.15999999965,
      "d": 531.7529687499627,
      "v": 113
    },
    {
      "midi": 53,
      "hit": false,
      "t": 178548.02999999962,
      "d": 88.20546875000582,
      "v": 48
    },
    {
      "midi": 53,
      "hit": false,
      "t": 179031.8999999996,
      "d": 168.85046874999534,
      "v": 54
    },
    {
      "midi": 58,
      "hit": false,
      "t": 179031.89999999962,
      "d": 176.41093750001164,
      "v": 96
    },
    {
      "midi": 56,
      "hit": false,
      "t": 179273.83499999958,
      "d": 168.85046874999534,
      "v": 76
    },
    {
      "midi": 60,
      "hit": false,
      "t": 179273.8349999996,
      "d": 176.41093750001164,
      "v": 96
    },
    {
      "midi": 53,
      "hit": false,
      "t": 179515.76999999958,
      "d": 40.32250000000931,
      "v": 55
    },
    {
      "midi": 62,
      "hit": false,
      "t": 179515.7699999996,
      "d": 201.61249999998836,
      "v": 77
    },
    {
      "midi": 65,
      "hit": false,
      "t": 179757.7049999996,
      "d": 95.76593749999302,
      "v": 106
    },
    {
      "midi": 52,
      "hit": false,
      "t": 179999.63999999958,
      "d": 942.5384374999849,
      "v": 122
    },
    {
      "midi": 55,
      "hit": false,
      "t": 179999.63999999958,
      "d": 1096.2679687499767,
      "v": 72
    },
    {
      "midi": 60,
      "hit": false,
      "t": 179999.63999999958,
      "d": 1433.9689062499674,
      "v": 122
    },
    {
      "midi": 60,
      "hit": false,
      "t": 179999.6399999996,
      "d": 612.3979687499814,
      "v": 53
    },
    {
      "midi": 64,
      "hit": false,
      "t": 179999.6399999996,
      "d": 700.6034374999872,
      "v": 122
    },
    {
      "midi": 60,
      "hit": false,
      "t": 180725.4449999996,
      "d": 143.64890624998952,
      "v": 55
    },
    {
      "midi": 52,
      "hit": false,
      "t": 180967.37999999957,
      "d": 161.28999999997905,
      "v": 20
    },
    {
      "midi": 67,
      "hit": false,
      "t": 180967.3799999996,
      "d": 224.29390625000815,
      "v": 127
    },
    {
      "midi": 52,
      "hit": false,
      "t": 181209.31499999954,
      "d": 304.9389062499977,
      "v": 80
    },
    {
      "midi": 60,
      "hit": false,
      "t": 181209.3149999996,
      "d": 143.64890624998952,
      "v": 98
    },
    {
      "midi": 55,
      "hit": false,
      "t": 181451.24999999953,
      "d": 201.61249999998836,
      "v": 56
    },
    {
      "midi": 64,
      "hit": false,
      "t": 181451.2499999996,
      "d": 264.61640624998836,
      "v": 73
    },
    {
      "midi": 67,
      "hit": false,
      "t": 181693.1849999996,
      "d": 143.64890624998952,
      "v": 91
    },
    {
      "midi": 56,
      "hit": false,
      "t": 181935.11999999953,
      "d": 1096.2679687500058,
      "v": 124
    },
    {
      "midi": 53,
      "hit": false,
      "t": 181935.11999999953,
      "d": 1111.3889062500093,
      "v": 94
    },
    {
      "midi": 60,
      "hit": false,
      "t": 181935.11999999953,
      "d": 1136.5904687500151,
      "v": 102
    },
    {
      "midi": 60,
      "hit": false,
      "t": 181935.11999999956,
      "d": 403.2250000000058,
      "v": 96
    },
    {
      "midi": 68,
      "hit": false,
      "t": 181935.11999999956,
      "d": 491.43046874998254,
      "v": 103
    },
    {
      "midi": 65,
      "hit": false,
      "t": 181935.11999999956,
      "d": 524.1924999999756,
      "v": 96
    },
    {
      "midi": 60,
      "hit": false,
      "t": 182418.98999999955,
      "d": 63.003906249970896,
      "v": 31
    },
    {
      "midi": 68,
      "hit": false,
      "t": 183144.79499999952,
      "d": 241.93499999999767,
      "v": 55
    },
    {
      "midi": 77,
      "hit": false,
      "t": 183386.72999999952,
      "d": 216.73343749999185,
      "v": 106
    },
    {
      "midi": 53,
      "hit": false,
      "t": 183386.72999999954,
      "d": 63.00390625,
      "v": 38
    },
    {
      "midi": 72,
      "hit": false,
      "t": 183628.6649999995,
      "d": 88.20546875000582,
      "v": 106
    },
    {
      "midi": 51,
      "hit": false,
      "t": 183870.59999999954,
      "d": 708.1639062499744,
      "v": 102
    },
    {
      "midi": 58,
      "hit": false,
      "t": 183870.59999999954,
      "d": 740.9259374999674,
      "v": 122
    },
    {
      "midi": 55,
      "hit": false,
      "t": 183870.59999999954,
      "d": 748.4864062499546,
      "v": 84
    },
    {
      "midi": 67,
      "hit": false,
      "t": 184596.40499999953,
      "d": 506.55140624998603,
      "v": 84
    },
    {
      "midi": 51,
      "hit": false,
      "t": 184838.3399999995,
      "d": 168.85046874999534,
      "v": 94
    },
    {
      "midi": 75,
      "hit": false,
      "t": 184838.33999999953,
      "d": 249.49546874998487,
      "v": 127
    },
    {
      "midi": 55,
      "hit": false,
      "t": 185080.2749999995,
      "d": 176.41093750001164,
      "v": 56
    },
    {
      "midi": 70,
      "hit": false,
      "t": 185080.27499999953,
      "d": 183.97140624999884,
      "v": 110
    },
    {
      "midi": 67,
      "hit": false,
      "t": 185322.20999999953,
      "d": 80.64499999998952,
      "v": 125
    },
    {
      "midi": 51,
      "hit": false,
      "t": 185806.07999999952,
      "d": 619.9584374999686,
      "v": 102
    },
    {
      "midi": 56,
      "hit": false,
      "t": 185806.07999999952,
      "d": 660.2809374999779,
      "v": 122
    },
    {
      "midi": 60,
      "hit": false,
      "t": 185806.07999999952,
      "d": 667.8414062499651,
      "v": 100
    },
    {
      "midi": 58,
      "hit": false,
      "t": 185806.07999999952,
      "d": 693.0429687499709,
      "v": 116
    },
    {
      "midi": 70,
      "hit": false,
      "t": 185806.07999999952,
      "d": 498.99093749999884,
      "v": 118
    },
    {
      "midi": 72,
      "hit": false,
      "t": 185806.07999999952,
      "d": 498.99093749999884,
      "v": 113
    },
    {
      "midi": 68,
      "hit": false,
      "t": 185806.07999999952,
      "d": 524.1925000000047,
      "v": 122
    },
    {
      "midi": 63,
      "hit": false,
      "t": 185806.07999999952,
      "d": 546.8739062499953,
      "v": 122
    },
    {
      "midi": 51,
      "hit": false,
      "t": 186773.81999999948,
      "d": 161.29000000000815,
      "v": 76
    },
    {
      "midi": 60,
      "hit": false,
      "t": 186773.8199999995,
      "d": 176.41093750001164,
      "v": 55
    },
    {
      "midi": 56,
      "hit": false,
      "t": 187015.75499999948,
      "d": 304.9389062499977,
      "v": 88
    },
    {
      "midi": 63,
      "hit": false,
      "t": 187015.7549999995,
      "d": 289.8179687499942,
      "v": 103
    },
    {
      "midi": 58,
      "hit": false,
      "t": 187257.68999999948,
      "d": 176.41093750001164,
      "v": 76
    },
    {
      "midi": 68,
      "hit": false,
      "t": 187257.6899999995,
      "d": 80.64499999998952,
      "v": 127
    },
    {
      "midi": 60,
      "hit": false,
      "t": 187499.62499999948,
      "d": 95.76593749999302,
      "v": 116
    },
    {
      "midi": 53,
      "hit": false,
      "t": 187741.55999999947,
      "d": 645.1599999999744,
      "v": 76
    },
    {
      "midi": 58,
      "hit": false,
      "t": 187741.55999999947,
      "d": 645.1599999999744,
      "v": 116
    },
    {
      "midi": 61,
      "hit": false,
      "t": 187741.55999999947,
      "d": 660.2809374999779,
      "v": 127
    },
    {
      "midi": 65,
      "hit": false,
      "t": 187741.5599999995,
      "d": 604.8374999999942,
      "v": 96
    },
    {
      "midi": 61,
      "hit": false,
      "t": 187741.5599999995,
      "d": 660.280937500007,
      "v": 66
    },
    {
      "midi": 70,
      "hit": false,
      "t": 187741.5599999995,
      "d": 748.4864062500128,
      "v": 113
    },
    {
      "midi": 53,
      "hit": false,
      "t": 188709.29999999946,
      "d": 143.64890624998952,
      "v": 64
    },
    {
      "midi": 61,
      "hit": false,
      "t": 188709.29999999952,
      "d": 128.52796874998603,
      "v": 122
    },
    {
      "midi": 65,
      "hit": false,
      "t": 188951.23499999952,
      "d": 128.52796874998603,
      "v": 118
    },
    {
      "midi": 49,
      "hit": false,
      "t": 189677.03999999946,
      "d": 378.0234375,
      "v": 116
    },
    {
      "midi": 58,
      "hit": false,
      "t": 189677.03999999946,
      "d": 451.1079687500023,
      "v": 118
    },
    {
      "midi": 56,
      "hit": false,
      "t": 189677.03999999946,
      "d": 466.2289062500058,
      "v": 118
    },
    {
      "midi": 54,
      "hit": false,
      "t": 189677.03999999946,
      "d": 524.1925000000047,
      "v": 118
    },
    {
      "midi": 58,
      "hit": false,
      "t": 189677.0399999995,
      "d": 546.8739062499953,
      "v": 122
    },
    {
      "midi": 61,
      "hit": false,
      "t": 189677.0399999995,
      "d": 612.3979687499814,
      "v": 103
    },
    {
      "midi": 49,
      "hit": false,
      "t": 190160.90999999945,
      "d": 80.64500000001863,
      "v": 43
    },
    {
      "midi": 68,
      "hit": false,
      "t": 190160.9099999995,
      "d": 224.29390624997905,
      "v": 127
    },
    {
      "midi": 58,
      "hit": false,
      "t": 190402.84499999948,
      "d": 168.85046874999534,
      "v": 38
    },
    {
      "midi": 54,
      "hit": false,
      "t": 190644.77999999947,
      "d": 209.17296875000466,
      "v": 56
    },
    {
      "midi": 61,
      "hit": false,
      "t": 190644.77999999947,
      "d": 781.2484375000058,
      "v": 98
    },
    {
      "midi": 56,
      "hit": false,
      "t": 190886.71499999947,
      "d": 209.17296875000466,
      "v": 72
    },
    {
      "midi": 66,
      "hit": false,
      "t": 190886.71499999947,
      "d": 806.4499999999825,
      "v": 106
    },
    {
      "midi": 61,
      "hit": false,
      "t": 191128.64999999947,
      "d": 120.96749999999884,
      "v": 118
    },
    {
      "midi": 58,
      "hit": false,
      "t": 191128.64999999947,
      "d": 330.1404687500035,
      "v": 66
    },
    {
      "midi": 65,
      "hit": false,
      "t": 191370.58499999947,
      "d": 418.3459374999802,
      "v": 98
    },
    {
      "midi": 58,
      "hit": false,
      "t": 191612.51999999947,
      "d": 168.85046874999534,
      "v": 53
    },
    {
      "midi": 61,
      "hit": false,
      "t": 191854.45499999943,
      "d": 128.52796874998603,
      "v": 96
    },
    {
      "midi": 49,
      "hit": false,
      "t": 192338.32499999946,
      "d": 143.64890624998952,
      "v": 54
    },
    {
      "midi": 49,
      "hit": false,
      "t": 192580.25999999946,
      "d": 282.257500000007,
      "v": 108
    },
    {
      "midi": 56,
      "hit": false,
      "t": 192580.25999999946,
      "d": 304.9389062499977,
      "v": 122
    },
    {
      "midi": 58,
      "hit": false,
      "t": 192580.25999999946,
      "d": 304.9389062499977,
      "v": 127
    },
    {
      "midi": 54,
      "hit": false,
      "t": 192580.25999999946,
      "d": 322.5799999999872,
      "v": 102
    },
    {
      "midi": 49,
      "hit": false,
      "t": 193064.12999999945,
      "d": 80.64499999998952,
      "v": 49
    },
    {
      "midi": 56,
      "hit": false,
      "t": 193547.99999999942,
      "d": 766.1275000000023,
      "v": 94
    },
    {
      "midi": 58,
      "hit": false,
      "t": 193547.99999999942,
      "d": 861.8934374999953,
      "v": 118
    },
    {
      "midi": 61,
      "hit": false,
      "t": 193547.99999999942,
      "d": 887.0950000000012,
      "v": 102
    },
    {
      "midi": 63,
      "hit": false,
      "t": 193547.99999999942,
      "d": 909.7764062499919,
      "v": 108
    },
    {
      "midi": 56,
      "hit": false,
      "t": 193547.99999999942,
      "d": 425.9064062499965,
      "v": 127
    },
    {
      "midi": 63,
      "hit": false,
      "t": 193547.99999999942,
      "d": 539.3134375000081,
      "v": 106
    },
    {
      "midi": 61,
      "hit": false,
      "t": 193547.99999999942,
      "d": 546.8739062499953,
      "v": 96
    },
    {
      "midi": 58,
      "hit": false,
      "t": 193547.99999999942,
      "d": 572.0754687500012,
      "v": 127
    },
    {
      "midi": 56,
      "hit": false,
      "t": 194031.8699999994,
      "d": 88.20546875000582,
      "v": 38
    },
    {
      "midi": 56,
      "hit": false,
      "t": 194515.7399999994,
      "d": 120.96749999999884,
      "v": 56
    },
    {
      "midi": 58,
      "hit": false,
      "t": 194757.6749999994,
      "d": 55.443437500012806,
      "v": 56
    },
    {
      "midi": 68,
      "hit": false,
      "t": 194757.6749999994,
      "d": 161.29000000000815,
      "v": 96
    },
    {
      "midi": 70,
      "hit": false,
      "t": 194999.6099999994,
      "d": 143.64890624998952,
      "v": 120
    },
    {
      "midi": 75,
      "hit": false,
      "t": 195241.5449999994,
      "d": 660.2809374999779,
      "v": 125
    },
    {
      "midi": 70,
      "hit": false,
      "t": 195483.4799999994,
      "d": 418.3459374999802,
      "v": 127
    },
    {
      "midi": 67,
      "hit": false,
      "t": 195483.4799999994,
      "d": 458.6684374999895,
      "v": 127
    },
    {
      "midi": 55,
      "hit": false,
      "t": 195483.47999999943,
      "d": 418.3459375000093,
      "v": 84
    },
    {
      "midi": 58,
      "hit": false,
      "t": 195483.47999999943,
      "d": 604.8374999999942,
      "v": 100
    },
    {
      "midi": 63,
      "hit": false,
      "t": 195483.47999999943,
      "d": 700.6034375000163,
      "v": 108
    },
    {
      "midi": 55,
      "hit": false,
      "t": 195967.34999999942,
      "d": 161.29000000000815,
      "v": 49
    },
    {
      "midi": 58,
      "hit": false,
      "t": 196451.2199999994,
      "d": 95.76593749999302,
      "v": 73
    },
    {
      "midi": 58,
      "hit": false,
      "t": 196451.21999999945,
      "d": 176.41093750001164,
      "v": 100
    },
    {
      "midi": 61,
      "hit": false,
      "t": 196451.21999999945,
      "d": 201.61250000001746,
      "v": 100
    },
    {
      "midi": 55,
      "hit": false,
      "t": 196451.21999999945,
      "d": 241.93500000002678,
      "v": 56
    },
    {
      "midi": 63,
      "hit": false,
      "t": 196693.1549999994,
      "d": 47.88296874999651,
      "v": 55
    },
    {
      "midi": 54,
      "hit": false,
      "t": 197418.95999999938,
      "d": 362.9024999999965,
      "v": 127
    },
    {
      "midi": 59,
      "hit": false,
      "t": 197418.95999999938,
      "d": 564.5149999999849,
      "v": 127
    },
    {
      "midi": 63,
      "hit": false,
      "t": 197418.95999999938,
      "d": 564.5149999999849,
      "v": 127
    },
    {
      "midi": 47,
      "hit": false,
      "t": 197418.95999999938,
      "d": 1305.4409374999814,
      "v": 127
    },
    {
      "midi": 59,
      "hit": false,
      "t": 197418.95999999947,
      "d": 652.7204687499907,
      "v": 94
    },
    {
      "midi": 61,
      "hit": false,
      "t": 197418.95999999947,
      "d": 652.7204687499907,
      "v": 116
    },
    {
      "midi": 63,
      "hit": false,
      "t": 197418.95999999947,
      "d": 652.7204687499907,
      "v": 116
    },
    {
      "midi": 54,
      "hit": false,
      "t": 197418.95999999947,
      "d": 660.2809374999779,
      "v": 76
    },
    {
      "midi": 54,
      "hit": false,
      "t": 197902.82999999938,
      "d": 128.52796874998603,
      "v": 48
    },
    {
      "midi": 59,
      "hit": false,
      "t": 198386.69999999937,
      "d": 136.08843750000233,
      "v": 127
    },
    {
      "midi": 54,
      "hit": false,
      "t": 198386.69999999937,
      "d": 241.93499999999767,
      "v": 122
    },
    {
      "midi": 63,
      "hit": false,
      "t": 198386.69999999937,
      "d": 264.61640624998836,
      "v": 127
    },
    {
      "midi": 54,
      "hit": false,
      "t": 198386.69999999946,
      "d": 201.61249999998836,
      "v": 64
    },
    {
      "midi": 61,
      "hit": false,
      "t": 198628.63499999937,
      "d": 289.8179687499942,
      "v": 80
    },
    {
      "midi": 59,
      "hit": false,
      "t": 198628.63499999946,
      "d": 322.5799999999872,
      "v": 76
    },
    {
      "midi": 59,
      "hit": false,
      "t": 198870.56999999937,
      "d": 385.5839062499872,
      "v": 127
    },
    {
      "midi": 63,
      "hit": false,
      "t": 198870.56999999945,
      "d": 95.76593749999302,
      "v": 68
    },
    {
      "midi": 54,
      "hit": false,
      "t": 199354.43999999936,
      "d": 378.0234375,
      "v": 66
    },
    {
      "midi": 61,
      "hit": false,
      "t": 199354.43999999936,
      "d": 506.55140624998603,
      "v": 59
    },
    {
      "midi": 58,
      "hit": false,
      "t": 199354.43999999936,
      "d": 579.6359374999884,
      "v": 91
    },
    {
      "midi": 46,
      "hit": false,
      "t": 199354.43999999936,
      "d": 1338.2029687499744,
      "v": 62
    },
    {
      "midi": 54,
      "hit": false,
      "t": 199354.43999999945,
      "d": 410.785468749993,
      "v": 68
    },
    {
      "midi": 59,
      "hit": false,
      "t": 199354.43999999945,
      "d": 572.0754687500012,
      "v": 88
    },
    {
      "midi": 63,
      "hit": false,
      "t": 199354.43999999945,
      "d": 587.1964062500047,
      "v": 84
    },
    {
      "midi": 58,
      "hit": false,
      "t": 199354.43999999945,
      "d": 604.8374999999942,
      "v": 108
    },
    {
      "midi": 54,
      "hit": false,
      "t": 199838.30999999936,
      "d": 136.08843750000233,
      "v": 48
    },
    {
      "midi": 54,
      "hit": false,
      "t": 199838.30999999944,
      "d": 209.17296875000466,
      "v": 29
    },
    {
      "midi": 54,
      "hit": false,
      "t": 200080.24499999936,
      "d": 168.85046874999534,
      "v": 55
    },
    {
      "midi": 58,
      "hit": false,
      "t": 200322.17999999935,
      "d": 176.41093750001164,
      "v": 118
    },
    {
      "midi": 54,
      "hit": false,
      "t": 200322.17999999944,
      "d": 224.29390625000815,
      "v": 32
    },
    {
      "midi": 61,
      "hit": false,
      "t": 200564.11499999935,
      "d": 337.7009374999907,
      "v": 96
    },
    {
      "midi": 58,
      "hit": false,
      "t": 200564.11499999944,
      "d": 136.08843750000233,
      "v": 56
    },
    {
      "midi": 58,
      "hit": false,
      "t": 200806.04999999935,
      "d": 95.76593749999302,
      "v": 73
    },
    {
      "midi": 46,
      "hit": false,
      "t": 200806.04999999935,
      "d": 128.52796874998603,
      "v": 52
    },
    {
      "midi": 54,
      "hit": false,
      "t": 200806.04999999944,
      "d": 40.32250000000931,
      "v": 40
    },
    {
      "midi": 56,
      "hit": false,
      "t": 201289.9199999993,
      "d": 337.7009374999907,
      "v": 120
    },
    {
      "midi": 59,
      "hit": false,
      "t": 201289.9199999993,
      "d": 418.3459375000093,
      "v": 98
    },
    {
      "midi": 44,
      "hit": false,
      "t": 201289.9199999993,
      "d": 1507.0534374999988,
      "v": 118
    },
    {
      "midi": 51,
      "hit": false,
      "t": 201289.91999999946,
      "d": 660.280937500007,
      "v": 118
    },
    {
      "midi": 59,
      "hit": false,
      "t": 201289.91999999946,
      "d": 667.8414062499942,
      "v": 56
    },
    {
      "midi": 56,
      "hit": false,
      "t": 201289.91999999946,
      "d": 725.804999999993,
      "v": 116
    },
    {
      "midi": 56,
      "hit": false,
      "t": 201773.7899999993,
      "d": 63.00390625,
      "v": 38
    },
    {
      "midi": 59,
      "hit": false,
      "t": 202257.6599999993,
      "d": 403.2250000000058,
      "v": 127
    },
    {
      "midi": 68,
      "hit": false,
      "t": 202257.6599999993,
      "d": 483.86999999999534,
      "v": 127
    },
    {
      "midi": 51,
      "hit": false,
      "t": 202257.65999999945,
      "d": 224.29390625000815,
      "v": 56
    },
    {
      "midi": 56,
      "hit": false,
      "t": 202499.59499999945,
      "d": 249.49546874998487,
      "v": 72
    },
    {
      "midi": 51,
      "hit": false,
      "t": 202741.52999999945,
      "d": 95.76593749999302,
      "v": 61
    },
    {
      "midi": 44,
      "hit": false,
      "t": 202983.46499999933,
      "d": 120.96749999999884,
      "v": 59
    },
    {
      "midi": 59,
      "hit": false,
      "t": 203225.39999999932,
      "d": 345.261406250007,
      "v": 53
    },
    {
      "midi": 63,
      "hit": false,
      "t": 203225.39999999932,
      "d": 451.1079687500023,
      "v": 113
    },
    {
      "midi": 66,
      "hit": false,
      "t": 203225.39999999932,
      "d": 483.86999999999534,
      "v": 91
    },
    {
      "midi": 42,
      "hit": false,
      "t": 203225.39999999932,
      "d": 1539.8154687499919,
      "v": 66
    },
    {
      "midi": 54,
      "hit": false,
      "t": 203225.39999999944,
      "d": 524.1925000000047,
      "v": 108
    },
    {
      "midi": 59,
      "hit": false,
      "t": 203225.39999999944,
      "d": 531.7529687499919,
      "v": 122
    },
    {
      "midi": 51,
      "hit": false,
      "t": 203225.39999999944,
      "d": 564.5149999999849,
      "v": 100
    },
    {
      "midi": 59,
      "hit": false,
      "t": 203709.26999999932,
      "d": 120.96749999999884,
      "v": 48
    },
    {
      "midi": 63,
      "hit": false,
      "t": 204193.13999999932,
      "d": 128.52796874998603,
      "v": 62
    },
    {
      "midi": 70,
      "hit": false,
      "t": 204193.13999999932,
      "d": 176.41093749998254,
      "v": 122
    },
    {
      "midi": 54,
      "hit": false,
      "t": 204193.13999999943,
      "d": 201.61249999998836,
      "v": 64
    },
    {
      "midi": 59,
      "hit": false,
      "t": 204435.07499999943,
      "d": 88.20546875000582,
      "v": 94
    },
    {
      "midi": 71,
      "hit": false,
      "t": 204677.0099999993,
      "d": 55.443437500012806,
      "v": 127
    },
    {
      "midi": 59,
      "hit": false,
      "t": 205160.8799999993,
      "d": 337.7009374999907,
      "v": 52
    },
    {
      "midi": 68,
      "hit": false,
      "t": 205160.8799999993,
      "d": 458.6684374999895,
      "v": 125
    },
    {
      "midi": 64,
      "hit": false,
      "t": 205160.8799999993,
      "d": 491.43046874995343,
      "v": 59
    },
    {
      "midi": 52,
      "hit": false,
      "t": 205160.8799999993,
      "d": 587.1964062499464,
      "v": 118
    },
    {
      "midi": 56,
      "hit": false,
      "t": 205160.87999999942,
      "d": 524.1924999999756,
      "v": 108
    },
    {
      "midi": 59,
      "hit": false,
      "t": 205160.87999999942,
      "d": 531.7529687499627,
      "v": 102
    },
    {
      "midi": 64,
      "hit": false,
      "t": 205160.87999999942,
      "d": 546.8739062499662,
      "v": 118
    },
    {
      "midi": 59,
      "hit": false,
      "t": 205644.74999999927,
      "d": 80.64499999998952,
      "v": 36
    },
    {
      "midi": 52,
      "hit": false,
      "t": 205886.68499999924,
      "d": 887.0949999999721,
      "v": 103
    },
    {
      "midi": 56,
      "hit": false,
      "t": 206128.61999999924,
      "d": 201.61249999998836,
      "v": 127
    },
    {
      "midi": 56,
      "hit": false,
      "t": 206128.61999999938,
      "d": 249.49546874998487,
      "v": 72
    },
    {
      "midi": 59,
      "hit": false,
      "t": 206370.55499999924,
      "d": 103.32640625000931,
      "v": 118
    },
    {
      "midi": 59,
      "hit": false,
      "t": 206370.55499999938,
      "d": 370.4629687499837,
      "v": 64
    },
    {
      "midi": 66,
      "hit": false,
      "t": 206612.48999999923,
      "d": 95.76593749999302,
      "v": 127
    },
    {
      "midi": 66,
      "hit": false,
      "t": 206612.48999999938,
      "d": 128.52796874998603,
      "v": 116
    },
    {
      "midi": 56,
      "hit": false,
      "t": 207096.3599999992,
      "d": 80.64499999998952,
      "v": 48
    },
    {
      "midi": 52,
      "hit": false,
      "t": 207580.2299999992,
      "d": 909.776406250021,
      "v": 110
    },
    {
      "midi": 56,
      "hit": false,
      "t": 207580.22999999937,
      "d": 80.64499999998952,
      "v": 52
    },
    {
      "midi": 56,
      "hit": false,
      "t": 207822.1649999992,
      "d": 95.76593749999302,
      "v": 91
    },
    {
      "midi": 56,
      "hit": false,
      "t": 208064.0999999992,
      "d": 337.7009375000198,
      "v": 127
    },
    {
      "midi": 59,
      "hit": false,
      "t": 208064.0999999992,
      "d": 425.9064062500256,
      "v": 127
    },
    {
      "midi": 64,
      "hit": false,
      "t": 208064.0999999992,
      "d": 451.10796875003143,
      "v": 127
    },
    {
      "midi": 56,
      "hit": false,
      "t": 208064.09999999937,
      "d": 289.8179687499942,
      "v": 102
    },
    {
      "midi": 59,
      "hit": false,
      "t": 208064.09999999937,
      "d": 451.1079687500023,
      "v": 127
    },
    {
      "midi": 64,
      "hit": false,
      "t": 208064.09999999937,
      "d": 451.1079687500023,
      "v": 127
    },
    {
      "midi": 56,
      "hit": false,
      "t": 208547.96999999922,
      "d": 103.32640625000931,
      "v": 77
    },
    {
      "midi": 56,
      "hit": false,
      "t": 208547.96999999936,
      "d": 63.00390625,
      "v": 61
    },
    {
      "midi": 58,
      "hit": false,
      "t": 209031.83999999924,
      "d": 766.1275000000023,
      "v": 118
    },
    {
      "midi": 61,
      "hit": false,
      "t": 209031.83999999924,
      "d": 814.0104687499988,
      "v": 125
    },
    {
      "midi": 66,
      "hit": false,
      "t": 209031.83999999924,
      "d": 894.6554687499884,
      "v": 127
    },
    {
      "midi": 42,
      "hit": false,
      "t": 209031.83999999924,
      "d": 2998.985937499965,
      "v": 122
    },
    {
      "midi": 54,
      "hit": false,
      "t": 209031.83999999936,
      "d": 733.3654687500093,
      "v": 76
    },
    {
      "midi": 58,
      "hit": false,
      "t": 209031.83999999936,
      "d": 733.3654687500093,
      "v": 110
    },
    {
      "midi": 56,
      "hit": false,
      "t": 209031.83999999936,
      "d": 740.9259374999965,
      "v": 110
    },
    {
      "midi": 61,
      "hit": false,
      "t": 209031.83999999936,
      "d": 748.4864062499837,
      "v": 100
    },
    {
      "midi": 58,
      "hit": false,
      "t": 209999.57999999923,
      "d": 216.73343749999185,
      "v": 62
    },
    {
      "midi": 56,
      "hit": false,
      "t": 209999.57999999935,
      "d": 80.64499999998952,
      "v": 54
    },
    {
      "midi": 58,
      "hit": false,
      "t": 209999.57999999935,
      "d": 103.32640624998021,
      "v": 49
    },
    {
      "midi": 54,
      "hit": false,
      "t": 210241.51499999932,
      "d": 224.29390625000815,
      "v": 54
    },
    {
      "midi": 58,
      "hit": false,
      "t": 210483.44999999923,
      "d": 80.64499999998952,
      "v": 55
    },
    {
      "midi": 56,
      "hit": false,
      "t": 210483.4499999993,
      "d": 183.97140624999884,
      "v": 56
    },
    {
      "midi": 54,
      "hit": false,
      "t": 210725.38499999922,
      "d": 788.808906249993,
      "v": 73
    },
    {
      "midi": 58,
      "hit": false,
      "t": 210725.3849999993,
      "d": 80.64499999998952,
      "v": 100
    },
    {
      "midi": 66,
      "hit": false,
      "t": 210967.31999999922,
      "d": 322.5799999999872,
      "v": 96
    },
    {
      "midi": 61,
      "hit": false,
      "t": 210967.31999999922,
      "d": 345.2614062499779,
      "v": 73
    },
    {
      "midi": 68,
      "hit": false,
      "t": 210967.31999999922,
      "d": 370.4629687499837,
      "v": 110
    },
    {
      "midi": 70,
      "hit": false,
      "t": 211209.25499999922,
      "d": 143.64890624998952,
      "v": 73
    },
    {
      "midi": 61,
      "hit": false,
      "t": 211451.18999999922,
      "d": 88.20546875000582,
      "v": 66
    },
    {
      "midi": 58,
      "hit": false,
      "t": 211451.1899999993,
      "d": 224.29390625000815,
      "v": 61
    },
    {
      "midi": 54,
      "hit": false,
      "t": 211693.1249999992,
      "d": 491.43046874998254,
      "v": 70
    },
    {
      "midi": 66,
      "hit": false,
      "t": 211693.1249999993,
      "d": 498.99093749999884,
      "v": 124
    },
    {
      "midi": 66,
      "hit": false,
      "t": 211935.0599999992,
      "d": 201.61249999998836,
      "v": 53
    },
    {
      "midi": 61,
      "hit": false,
      "t": 211935.0599999993,
      "d": 289.8179687499942,
      "v": 84
    },
    {
      "midi": 68,
      "hit": false,
      "t": 212176.9949999992,
      "d": 322.5799999999872,
      "v": 77
    },
    {
      "midi": 58,
      "hit": false,
      "t": 212176.9949999993,
      "d": 136.08843750000233,
      "v": 76
    },
    {
      "midi": 70,
      "hit": false,
      "t": 212418.9299999992,
      "d": 216.73343749999185,
      "v": 70
    },
    {
      "midi": 73,
      "hit": false,
      "t": 212660.8649999992,
      "d": 88.20546875000582,
      "v": 98
    },
    {
      "midi": 60,
      "hit": false,
      "t": 212902.7999999992,
      "d": 693.04296875,
      "v": 88
    },
    {
      "midi": 51,
      "hit": false,
      "t": 212902.7999999992,
      "d": 700.6034374999872,
      "v": 96
    },
    {
      "midi": 56,
      "hit": false,
      "t": 212902.7999999992,
      "d": 700.6034374999872,
      "v": 88
    },
    {
      "midi": 58,
      "hit": false,
      "t": 212902.7999999992,
      "d": 725.804999999993,
      "v": 84
    },
    {
      "midi": 44,
      "hit": false,
      "t": 212902.7999999992,
      "d": 1290.3199999999779,
      "v": 113
    },
    {
      "midi": 51,
      "hit": false,
      "t": 212902.7999999993,
      "d": 362.9024999999965,
      "v": 100
    },
    {
      "midi": 56,
      "hit": false,
      "t": 212902.7999999993,
      "d": 410.785468749993,
      "v": 118
    },
    {
      "midi": 58,
      "hit": false,
      "t": 212902.7999999993,
      "d": 410.785468749993,
      "v": 110
    },
    {
      "midi": 60,
      "hit": false,
      "t": 212902.7999999993,
      "d": 451.1079687500023,
      "v": 102
    },
    {
      "midi": 51,
      "hit": false,
      "t": 213386.66999999929,
      "d": 63.00390625,
      "v": 56
    },
    {
      "midi": 51,
      "hit": false,
      "t": 213870.5399999992,
      "d": 337.7009374999907,
      "v": 96
    },
    {
      "midi": 60,
      "hit": false,
      "t": 213870.5399999992,
      "d": 410.785468749993,
      "v": 96
    },
    {
      "midi": 56,
      "hit": false,
      "t": 213870.5399999992,
      "d": 443.54749999998603,
      "v": 84
    },
    {
      "midi": 58,
      "hit": false,
      "t": 213870.5399999992,
      "d": 443.54749999998603,
      "v": 62
    },
    {
      "midi": 56,
      "hit": false,
      "t": 213870.53999999928,
      "d": 201.61249999998836,
      "v": 76
    },
    {
      "midi": 58,
      "hit": false,
      "t": 214112.47499999928,
      "d": 282.257500000007,
      "v": 92
    },
    {
      "midi": 51,
      "hit": false,
      "t": 214354.4099999992,
      "d": 103.32640625000931,
      "v": 62
    },
    {
      "midi": 60,
      "hit": false,
      "t": 214354.40999999928,
      "d": 201.61250000001746,
      "v": 108
    },
    {
      "midi": 63,
      "hit": false,
      "t": 214596.3449999993,
      "d": 1111.3889062500093,
      "v": 118
    },
    {
      "midi": 51,
      "hit": false,
      "t": 214838.27999999918,
      "d": 425.9064062499965,
      "v": 88
    },
    {
      "midi": 55,
      "hit": false,
      "t": 214838.27999999918,
      "d": 572.0754687500012,
      "v": 84
    },
    {
      "midi": 60,
      "hit": false,
      "t": 214838.27999999918,
      "d": 604.8374999999942,
      "v": 59
    },
    {
      "midi": 43,
      "hit": false,
      "t": 214838.27999999918,
      "d": 1305.4409375000105,
      "v": 53
    },
    {
      "midi": 55,
      "hit": false,
      "t": 214838.2799999993,
      "d": 788.8089062500221,
      "v": 80
    },
    {
      "midi": 58,
      "hit": false,
      "t": 214838.2799999993,
      "d": 846.772500000021,
      "v": 94
    },
    {
      "midi": 51,
      "hit": false,
      "t": 215322.14999999918,
      "d": 176.41093750001164,
      "v": 24
    },
    {
      "midi": 51,
      "hit": false,
      "t": 215806.0199999992,
      "d": 209.17296875000466,
      "v": 103
    },
    {
      "midi": 55,
      "hit": false,
      "t": 215806.01999999932,
      "d": 168.85046874999534,
      "v": 76
    },
    {
      "midi": 55,
      "hit": false,
      "t": 216047.9549999992,
      "d": 120.96749999999884,
      "v": 110
    },
    {
      "midi": 58,
      "hit": false,
      "t": 216047.95499999932,
      "d": 80.64499999998952,
      "v": 49
    },
    {
      "midi": 43,
      "hit": false,
      "t": 216289.8899999992,
      "d": 128.52796874998603,
      "v": 59
    },
    {
      "midi": 56,
      "hit": false,
      "t": 216773.7599999992,
      "d": 854.3329687500081,
      "v": 66
    },
    {
      "midi": 60,
      "hit": false,
      "t": 216773.7599999992,
      "d": 967.7400000000198,
      "v": 98
    },
    {
      "midi": 65,
      "hit": false,
      "t": 216773.7599999992,
      "d": 967.7400000000198,
      "v": 91
    },
    {
      "midi": 41,
      "hit": false,
      "t": 216773.7599999992,
      "d": 1257.557968750014,
      "v": 96
    },
    {
      "midi": 56,
      "hit": false,
      "t": 216773.7599999993,
      "d": 604.8374999999942,
      "v": 102
    },
    {
      "midi": 60,
      "hit": false,
      "t": 216773.7599999993,
      "d": 619.9584374999977,
      "v": 122
    },
    {
      "midi": 65,
      "hit": false,
      "t": 216773.7599999993,
      "d": 667.8414062499942,
      "v": 118
    },
    {
      "midi": 56,
      "hit": false,
      "t": 217741.4999999992,
      "d": 143.64890624998952,
      "v": 125
    },
    {
      "midi": 56,
      "hit": false,
      "t": 217741.4999999993,
      "d": 176.41093750001164,
      "v": 72
    },
    {
      "midi": 60,
      "hit": false,
      "t": 217983.4349999992,
      "d": 1224.7959374999336,
      "v": 80
    },
    {
      "midi": 60,
      "hit": false,
      "t": 217983.4349999993,
      "d": 330.1404687500035,
      "v": 100
    },
    {
      "midi": 65,
      "hit": false,
      "t": 218225.3699999992,
      "d": 531.7529687499919,
      "v": 103
    },
    {
      "midi": 65,
      "hit": false,
      "t": 218225.3699999993,
      "d": 297.3784375000105,
      "v": 124
    },
    {
      "midi": 56,
      "hit": false,
      "t": 218467.3049999992,
      "d": 120.96749999999884,
      "v": 55
    },
    {
      "midi": 56,
      "hit": false,
      "t": 218709.2399999992,
      "d": 385.5839062499872,
      "v": 73
    },
    {
      "midi": 63,
      "hit": false,
      "t": 218709.2399999992,
      "d": 491.43046874995343,
      "v": 113
    },
    {
      "midi": 63,
      "hit": false,
      "t": 218709.23999999932,
      "d": 491.43046875001164,
      "v": 108
    },
    {
      "midi": 60,
      "hit": false,
      "t": 218709.23999999932,
      "d": 524.1925000000047,
      "v": 110
    },
    {
      "midi": 56,
      "hit": false,
      "t": 218709.23999999932,
      "d": 546.8739062499953,
      "v": 94
    },
    {
      "midi": 56,
      "hit": false,
      "t": 219193.10999999917,
      "d": 143.64890624996042,
      "v": 55
    },
    {
      "midi": 60,
      "hit": false,
      "t": 219435.04499999914,
      "d": 88.20546875000582,
      "v": 73
    },
    {
      "midi": 56,
      "hit": false,
      "t": 220160.84999999913,
      "d": 95.76593749999302,
      "v": 84
    },
    {
      "midi": 60,
      "hit": false,
      "t": 220644.71999999913,
      "d": 539.3134375000081,
      "v": 110
    },
    {
      "midi": 56,
      "hit": false,
      "t": 220644.71999999913,
      "d": 587.1964062500047,
      "v": 120
    },
    {
      "midi": 53,
      "hit": false,
      "t": 220644.71999999913,
      "d": 612.3979687500105,
      "v": 98
    },
    {
      "midi": 56,
      "hit": false,
      "t": 220644.7199999993,
      "d": 604.8374999999942,
      "v": 61
    },
    {
      "midi": 53,
      "hit": false,
      "t": 220644.7199999993,
      "d": 660.280937500007,
      "v": 92
    },
    {
      "midi": 61,
      "hit": false,
      "t": 220644.7199999993,
      "d": 693.04296875,
      "v": 110
    },
    {
      "midi": 53,
      "hit": false,
      "t": 221612.45999999915,
      "d": 161.29000000000815,
      "v": 84
    },
    {
      "midi": 53,
      "hit": false,
      "t": 221612.4599999993,
      "d": 176.41093750001164,
      "v": 56
    },
    {
      "midi": 56,
      "hit": false,
      "t": 221854.39499999915,
      "d": 88.20546875000582,
      "v": 55
    },
    {
      "midi": 56,
      "hit": false,
      "t": 221854.3949999993,
      "d": 136.08843750000233,
      "v": 72
    },
    {
      "midi": 53,
      "hit": false,
      "t": 222096.3299999993,
      "d": 63.00390625,
      "v": 88
    },
    {
      "midi": 56,
      "hit": false,
      "t": 222338.2649999993,
      "d": 572.0754687500012,
      "v": 55
    },
    {
      "midi": 63,
      "hit": false,
      "t": 222338.2649999993,
      "d": 627.518906250014,
      "v": 94
    },
    {
      "midi": 56,
      "hit": false,
      "t": 222580.19999999914,
      "d": 337.7009374999907,
      "v": 73
    },
    {
      "midi": 61,
      "hit": false,
      "t": 222580.19999999914,
      "d": 443.54749999998603,
      "v": 66
    },
    {
      "midi": 58,
      "hit": false,
      "t": 222580.19999999914,
      "d": 451.1079687499732,
      "v": 70
    },
    {
      "midi": 64,
      "hit": false,
      "t": 222580.19999999914,
      "d": 531.7529687499627,
      "v": 77
    },
    {
      "midi": 56,
      "hit": false,
      "t": 223064.0699999991,
      "d": 63.00390625,
      "v": 38
    },
    {
      "midi": 68,
      "hit": false,
      "t": 223547.9399999991,
      "d": 176.41093750001164,
      "v": 80
    },
    {
      "midi": 61,
      "hit": false,
      "t": 223547.9399999991,
      "d": 209.17296875000466,
      "v": 53
    },
    {
      "midi": 64,
      "hit": false,
      "t": 223547.9399999991,
      "d": 289.8179687499942,
      "v": 53
    },
    {
      "midi": 52,
      "hit": false,
      "t": 223547.9399999993,
      "d": 370.4629687499837,
      "v": 84
    },
    {
      "midi": 56,
      "hit": false,
      "t": 223547.9399999993,
      "d": 458.6684374999895,
      "v": 108
    },
    {
      "midi": 61,
      "hit": false,
      "t": 223547.9399999993,
      "d": 491.43046874998254,
      "v": 110
    },
    {
      "midi": 52,
      "hit": false,
      "t": 224031.8099999993,
      "d": 103.32640624998021,
      "v": 55
    },
    {
      "midi": 60,
      "hit": false,
      "t": 224515.6799999991,
      "d": 304.9389062499977,
      "v": 80
    },
    {
      "midi": 58,
      "hit": false,
      "t": 224515.67999999927,
      "d": 458.6684375000186,
      "v": 94
    },
    {
      "midi": 60,
      "hit": false,
      "t": 224515.67999999927,
      "d": 458.6684375000186,
      "v": 116
    },
    {
      "midi": 56,
      "hit": false,
      "t": 224515.67999999927,
      "d": 466.2289062500058,
      "v": 102
    },
    {
      "midi": 51,
      "hit": false,
      "t": 224515.67999999927,
      "d": 531.7529687499919,
      "v": 92
    },
    {
      "midi": 68,
      "hit": false,
      "t": 224757.6149999991,
      "d": 168.85046874999534,
      "v": 91
    },
    {
      "midi": 63,
      "hit": false,
      "t": 224999.5499999991,
      "d": 168.85046874999534,
      "v": 103
    },
    {
      "midi": 60,
      "hit": false,
      "t": 225241.48499999908,
      "d": 63.00390625,
      "v": 62
    },
    {
      "midi": 51,
      "hit": false,
      "t": 225967.28999999925,
      "d": 88.20546875000582,
      "v": 25
    },
    {
      "midi": 68,
      "hit": false,
      "t": 226209.22499999907,
      "d": 418.3459375000093,
      "v": 53
    },
    {
      "midi": 51,
      "hit": false,
      "t": 226209.22499999925,
      "d": 168.85046874999534,
      "v": 49
    },
    {
      "midi": 75,
      "hit": false,
      "t": 226451.15999999907,
      "d": 330.1404687500035,
      "v": 106
    },
    {
      "midi": 51,
      "hit": false,
      "t": 226451.15999999925,
      "d": 257.05593750000116,
      "v": 38
    },
    {
      "midi": 58,
      "hit": false,
      "t": 226451.15999999925,
      "d": 264.61640624998836,
      "v": 64
    },
    {
      "midi": 56,
      "hit": false,
      "t": 226451.15999999925,
      "d": 289.8179687499942,
      "v": 54
    },
    {
      "midi": 70,
      "hit": false,
      "t": 226693.09499999907,
      "d": 143.64890625001863,
      "v": 73
    },
    {
      "midi": 56,
      "hit": false,
      "t": 227418.89999999924,
      "d": 80.64499999998952,
      "v": 52
    },
    {
      "midi": 58,
      "hit": false,
      "t": 227660.83499999924,
      "d": 103.32640625000931,
      "v": 88
    },
    {
      "midi": 63,
      "hit": false,
      "t": 227902.76999999923,
      "d": 63.00390625,
      "v": 110
    },
    {
      "midi": 72,
      "hit": false,
      "t": 228386.63999999923,
      "d": 370.4629687500128,
      "v": 127
    },
    {
      "midi": 56,
      "hit": false,
      "t": 228386.63999999923,
      "d": 1507.053437500057,
      "v": 127
    },
    {
      "midi": 63,
      "hit": false,
      "t": 229112.44499999925,
      "d": 168.85046874999534,
      "v": 88
    },
    {
      "midi": 72,
      "hit": false,
      "t": 229354.37999999925,
      "d": 201.61249999998836,
      "v": 127
    },
    {
      "midi": 63,
      "hit": false,
      "t": 229596.31499999925,
      "d": 55.443437500012806,
      "v": 29
    },
    {
      "midi": 68,
      "hit": false,
      "t": 229838.24999999927,
      "d": 103.32640625000931,
      "v": 56
    },
    {
      "midi": 63,
      "hit": false,
      "t": 230080.18499999927,
      "d": 88.20546875000582,
      "v": 36
    },
    {
      "midi": 72,
      "hit": false,
      "t": 230322.11999999927,
      "d": 264.61640624998836,
      "v": 92
    },
    {
      "midi": 63,
      "hit": false,
      "t": 230322.11999999927,
      "d": 322.5799999999872,
      "v": 49
    },
    {
      "midi": 55,
      "hit": false,
      "t": 230322.11999999927,
      "d": 1305.4409374999523,
      "v": 80
    },
    {
      "midi": 70,
      "hit": false,
      "t": 230564.05499999927,
      "d": 337.7009374999616,
      "v": 72
    },
    {
      "midi": 68,
      "hit": false,
      "t": 230805.98999999923,
      "d": 168.85046874999534,
      "v": 92
    },
    {
      "midi": 70,
      "hit": false,
      "t": 231047.92499999923,
      "d": 201.61249999998836,
      "v": 88
    },
    {
      "midi": 63,
      "hit": false,
      "t": 231289.85999999923,
      "d": 88.20546875000582,
      "v": 64
    },
    {
      "midi": 75,
      "hit": false,
      "t": 231531.79499999923,
      "d": 63.00390625,
      "v": 127
    },
    {
      "midi": 68,
      "hit": false,
      "t": 232257.59999999922,
      "d": 330.1404687500035,
      "v": 92
    },
    {
      "midi": 53,
      "hit": false,
      "t": 232257.59999999922,
      "d": 1474.2914062500058,
      "v": 122
    },
    {
      "midi": 60,
      "hit": false,
      "t": 232499.53499999922,
      "d": 161.29000000000815,
      "v": 44
    },
    {
      "midi": 65,
      "hit": false,
      "t": 232741.46999999922,
      "d": 80.64499999998952,
      "v": 1
    },
    {
      "midi": 60,
      "hit": false,
      "t": 232983.4049999992,
      "d": 55.443437500012806,
      "v": 29
    },
    {
      "midi": 60,
      "hit": false,
      "t": 233225.33999999924,
      "d": 176.41093750001164,
      "v": 43
    },
    {
      "midi": 65,
      "hit": false,
      "t": 233467.27499999924,
      "d": 224.29390625000815,
      "v": 76
    },
    {
      "midi": 60,
      "hit": false,
      "t": 233709.20999999924,
      "d": 136.08843750000233,
      "v": 37
    },
    {
      "midi": 65,
      "hit": false,
      "t": 233951.14499999923,
      "d": 88.20546875000582,
      "v": 18
    },
    {
      "midi": 68,
      "hit": false,
      "t": 234193.07999999923,
      "d": 241.93499999999767,
      "v": 88
    },
    {
      "midi": 60,
      "hit": false,
      "t": 234193.07999999923,
      "d": 345.261406250007,
      "v": 68
    },
    {
      "midi": 51,
      "hit": false,
      "t": 234193.07999999923,
      "d": 1393.6464062499872,
      "v": 127
    },
    {
      "midi": 67,
      "hit": false,
      "t": 234435.01499999923,
      "d": 322.5799999999872,
      "v": 94
    },
    {
      "midi": 65,
      "hit": false,
      "t": 234676.94999999923,
      "d": 136.08843750000233,
      "v": 84
    },
    {
      "midi": 67,
      "hit": false,
      "t": 234918.88499999922,
      "d": 201.61249999998836,
      "v": 54
    },
    {
      "midi": 60,
      "hit": false,
      "t": 235160.81999999922,
      "d": 103.32640625000931,
      "v": 84
    },
    {
      "midi": 72,
      "hit": false,
      "t": 235402.75499999922,
      "d": 55.443437500012806,
      "v": 92
    },
    {
      "midi": 56,
      "hit": false,
      "t": 236128.5599999992,
      "d": 103.32640625000931,
      "v": 44
    },
    {
      "midi": 61,
      "hit": false,
      "t": 236128.5599999992,
      "d": 297.3784375000105,
      "v": 94
    },
    {
      "midi": 63,
      "hit": false,
      "t": 236128.5599999992,
      "d": 322.5800000000163,
      "v": 94
    },
    {
      "midi": 65,
      "hit": false,
      "t": 236128.5599999992,
      "d": 330.1404687500035,
      "v": 100
    },
    {
      "midi": 49,
      "hit": false,
      "t": 236128.5599999992,
      "d": 1733.867499999964,
      "v": 102
    },
    {
      "midi": 56,
      "hit": false,
      "t": 236612.4299999992,
      "d": 168.85046874999534,
      "v": 56
    },
    {
      "midi": 63,
      "hit": false,
      "t": 236861.9254687492,
      "d": 249.49546875001397,
      "v": 84
    },
    {
      "midi": 56,
      "hit": false,
      "t": 237118.9814062492,
      "d": 234.37453125001048,
      "v": 49
    },
    {
      "midi": 65,
      "hit": false,
      "t": 237386.1179687492,
      "d": 209.17296875000466,
      "v": 118
    },
    {
      "midi": 56,
      "hit": false,
      "t": 237660.8149999992,
      "d": 168.85046874999534,
      "v": 72
    },
    {
      "midi": 61,
      "hit": false,
      "t": 237917.8709374992,
      "d": 241.93499999999767,
      "v": 92
    },
    {
      "midi": 49,
      "hit": false,
      "t": 238225.32999999917,
      "d": 2177.415000000008,
      "v": 108
    },
    {
      "midi": 56,
      "hit": false,
      "t": 238225.32999999917,
      "d": 2177.415000000008,
      "v": 56
    },
    {
      "midi": 58,
      "hit": false,
      "t": 238225.32999999917,
      "d": 2177.415000000008,
      "v": 108
    },
    {
      "midi": 61,
      "hit": false,
      "t": 238225.32999999917,
      "d": 2177.415000000008,
      "v": 116
    },
    {
      "midi": 64,
      "hit": false,
      "t": 238225.32999999917,
      "d": 2177.415000000008,
      "v": 108
    },
    {
      "midi": 84,
      "hit": false,
      "t": 242338.2249999991,
      "d": 1393.6464062499872,
      "v": 120
    },
    {
      "midi": 84,
      "hit": false,
      "t": 242338.2249999992,
      "d": 209.17296875000466,
      "v": 100
    },
    {
      "midi": 82,
      "hit": false,
      "t": 242580.1599999991,
      "d": 1151.7114062499895,
      "v": 118
    },
    {
      "midi": 82,
      "hit": false,
      "t": 242580.1599999992,
      "d": 168.85046874999534,
      "v": 68
    },
    {
      "midi": 80,
      "hit": false,
      "t": 242822.0949999991,
      "d": 927.4174999999814,
      "v": 106
    },
    {
      "midi": 80,
      "hit": false,
      "t": 242822.0949999992,
      "d": 143.64890624998952,
      "v": 68
    },
    {
      "midi": 75,
      "hit": false,
      "t": 243064.0299999991,
      "d": 667.8414062499942,
      "v": 96
    },
    {
      "midi": 75,
      "hit": false,
      "t": 243064.02999999918,
      "d": 88.20546875000582,
      "v": 61
    },
    {
      "midi": 63,
      "hit": false,
      "t": 245967.24999999907,
      "d": 209.17296875000466,
      "v": 84
    },
    {
      "midi": 72,
      "hit": false,
      "t": 246209.18499999907,
      "d": 264.61640624998836,
      "v": 113
    },
    {
      "midi": 72,
      "hit": false,
      "t": 246209.18499999918,
      "d": 183.97140624999884,
      "v": 94
    },
    {
      "midi": 70,
      "hit": false,
      "t": 246451.11999999906,
      "d": 201.61249999998836,
      "v": 66
    },
    {
      "midi": 70,
      "hit": false,
      "t": 246451.11999999918,
      "d": 128.52796874998603,
      "v": 68
    },
    {
      "midi": 68,
      "hit": false,
      "t": 246693.05499999906,
      "d": 161.29000000000815,
      "v": 122
    },
    {
      "midi": 68,
      "hit": false,
      "t": 246693.05499999918,
      "d": 143.64890624998952,
      "v": 100
    },
    {
      "midi": 63,
      "hit": false,
      "t": 246934.98999999906,
      "d": 88.20546875000582,
      "v": 113
    },
    {
      "midi": 63,
      "hit": false,
      "t": 246934.98999999918,
      "d": 120.96749999999884,
      "v": 108
    },
    {
      "midi": 56,
      "hit": false,
      "t": 249112.40499999918,
      "d": 103.32640625000931,
      "v": 55
    },
    {
      "midi": 58,
      "hit": false,
      "t": 249112.40499999918,
      "d": 103.32640625000931,
      "v": 48
    },
    {
      "midi": 60,
      "hit": false,
      "t": 249112.40499999918,
      "d": 103.32640625000931,
      "v": 64
    },
    {
      "midi": 84,
      "hit": false,
      "t": 250095.26593749906,
      "d": 201.61249999998836,
      "v": 98
    },
    {
      "midi": 84,
      "hit": false,
      "t": 250095.2659374992,
      "d": 249.49546875001397,
      "v": 72
    },
    {
      "midi": 82,
      "hit": false,
      "t": 250329.64046874904,
      "d": 88.20546875000582,
      "v": 88
    },
    {
      "midi": 82,
      "hit": false,
      "t": 250329.64046874922,
      "d": 120.96749999999884,
      "v": 118
    },
    {
      "midi": 80,
      "hit": false,
      "t": 250579.13593749906,
      "d": 176.41093750001164,
      "v": 80
    },
    {
      "midi": 80,
      "hit": false,
      "t": 250579.1359374992,
      "d": 168.85046874999534,
      "v": 68
    },
    {
      "midi": 75,
      "hit": false,
      "t": 250828.63140624907,
      "d": 80.64499999998952,
      "v": 103
    },
    {
      "midi": 75,
      "hit": false,
      "t": 250828.6314062492,
      "d": 88.20546875000582,
      "v": 124
    },
    {
      "midi": 32,
      "hit": false,
      "t": 253184.9774999992,
      "d": 6580.127968749992,
      "v": 74
    }
  ]
}