{
  "jsonPath": "Classical/Classical/Giacomo Puccini/o-my-beloved-father.json",
  "path": "Classical\\Classical\\Giacomo Puccini\\O My Beloved Father.mid",
  "name": "O My Beloved Father",
  "difficulty": "Advanced",
  "bpm": 100,
  "notes": [
    {
      "midi": 67,
      "hit": false,
      "t": 0,
      "d": 300,
      "v": 66
    },
    {
      "midi": 55,
      "hit": false,
      "t": 0,
      "d": 1800,
      "v": 68
    },
    {
      "midi": 59,
      "hit": false,
      "t": 0,
      "d": 1800,
      "v": 68
    },
    {
      "midi": 67,
      "hit": false,
      "t": 300,
      "d": 300,
      "v": 74
    },
    {
      "midi": 67,
      "hit": false,
      "t": 600,
      "d": 300,
      "v": 69
    },
    {
      "midi": 71,
      "hit": false,
      "t": 900,
      "d": 600,
      "v": 85
    },
    {
      "midi": 66,
      "hit": false,
      "t": 1500,
      "d": 300,
      "v": 71
    },
    {
      "midi": 64,
      "hit": false,
      "t": 1800,
      "d": 900,
      "v": 67
    },
    {
      "midi": 55,
      "hit": false,
      "t": 1800,
      "d": 1800,
      "v": 77
    },
    {
      "midi": 59,
      "hit": false,
      "t": 1800,
      "d": 1800,
      "v": 77
    },
    {
      "midi": 62,
      "hit": false,
      "t": 2700,
      "d": 900,
      "v": 70
    },
    {
      "midi": 67,
      "hit": false,
      "t": 3600,
      "d": 300,
      "v": 82
    },
    {
      "midi": 55,
      "hit": false,
      "t": 3600,
      "d": 600,
      "v": 70
    },
    {
      "midi": 69,
      "hit": false,
      "t": 3900,
      "d": 300,
      "v": 86
    },
    {
      "midi": 71,
      "hit": false,
      "t": 4200,
      "d": 300,
      "v": 83
    },
    {
      "midi": 50,
      "hit": false,
      "t": 4200,
      "d": 900,
      "v": 71
    },
    {
      "midi": 67,
      "hit": false,
      "t": 4500,
      "d": 600,
      "v": 68
    },
    {
      "midi": 79,
      "hit": false,
      "t": 5100,
      "d": 300,
      "v": 97
    },
    {
      "midi": 74,
      "hit": false,
      "t": 5400,
      "d": 1500,
      "v": 72
    },
    {
      "midi": 47,
      "hit": false,
      "t": 5400,
      "d": 900,
      "v": 69
    },
    {
      "midi": 43,
      "hit": false,
      "t": 6300,
      "d": 900,
      "v": 72
    },
    {
      "midi": 71,
      "hit": false,
      "t": 6900,
      "d": 300,
      "v": 66
    },
    {
      "midi": 74,
      "hit": false,
      "t": 7200,
      "d": 600,
      "v": 84
    },
    {
      "midi": 50,
      "hit": false,
      "t": 7200,
      "d": 900,
      "v": 75
    },
    {
      "midi": 54,
      "hit": false,
      "t": 7200,
      "d": 900,
      "v": 75
    },
    {
      "midi": 69,
      "hit": false,
      "t": 7800,
      "d": 300,
      "v": 69
    },
    {
      "midi": 72,
      "hit": false,
      "t": 8100,
      "d": 600,
      "v": 80
    },
    {
      "midi": 45,
      "hit": false,
      "t": 8100,
      "d": 900,
      "v": 76
    },
    {
      "midi": 55,
      "hit": false,
      "t": 8100,
      "d": 900,
      "v": 76
    },
    {
      "midi": 71,
      "hit": false,
      "t": 8700,
      "d": 300,
      "v": 73
    },
    {
      "midi": 67,
      "hit": false,
      "t": 9000,
      "d": 900,
      "v": 67
    },
    {
      "midi": 52,
      "hit": false,
      "t": 9000,
      "d": 1800,
      "v": 78
    },
    {
      "midi": 59,
      "hit": false,
      "t": 9000,
      "d": 1800,
      "v": 78
    },
    {
      "midi": 67,
      "hit": false,
      "t": 9900,
      "d": 600,
      "v": 72
    },
    {
      "midi": 67,
      "hit": false,
      "t": 10500,
      "d": 300,
      "v": 78
    },
    {
      "midi": 67,
      "hit": false,
      "t": 10800,
      "d": 300,
      "v": 75
    },
    {
      "midi": 45,
      "hit": false,
      "t": 10800,
      "d": 300,
      "v": 73
    },
    {
      "midi": 52,
      "hit": false,
      "t": 10800,
      "d": 300,
      "v": 66
    },
    {
      "midi": 69,
      "hit": false,
      "t": 11100,
      "d": 300,
      "v": 84
    },
    {
      "midi": 54,
      "hit": false,
      "t": 11100,
      "d": 300,
      "v": 83
    },
    {
      "midi": 71,
      "hit": false,
      "t": 11400,
      "d": 300,
      "v": 83
    },
    {
      "midi": 55,
      "hit": false,
      "t": 11400,
      "d": 300,
      "v": 78
    },
    {
      "midi": 67,
      "hit": false,
      "t": 11700,
      "d": 600,
      "v": 69
    },
    {
      "midi": 52,
      "hit": false,
      "t": 11700,
      "d": 900,
      "v": 74
    },
    {
      "midi": 66,
      "hit": false,
      "t": 12300,
      "d": 300,
      "v": 74
    },
    {
      "midi": 69,
      "hit": false,
      "t": 12600,
      "d": 1500,
      "v": 83
    },
    {
      "midi": 50,
      "hit": false,
      "t": 12600,
      "d": 900,
      "v": 77
    },
    {
      "midi": 54,
      "hit": false,
      "t": 12600,
      "d": 900,
      "v": 77
    },
    {
      "midi": 50,
      "hit": false,
      "t": 13500,
      "d": 300,
      "v": 76
    },
    {
      "midi": 57,
      "hit": false,
      "t": 13800,
      "d": 300,
      "v": 83
    },
    {
      "midi": 62,
      "hit": false,
      "t": 14100,
      "d": 300,
      "v": 62
    },
    {
      "midi": 60,
      "hit": false,
      "t": 14100,
      "d": 300,
      "v": 80
    },
    {
      "midi": 67,
      "hit": false,
      "t": 14400,
      "d": 900,
      "v": 83
    },
    {
      "midi": 55,
      "hit": false,
      "t": 14400,
      "d": 900,
      "v": 73
    },
    {
      "midi": 59,
      "hit": false,
      "t": 14400,
      "d": 900,
      "v": 73
    },
    {
      "midi": 71,
      "hit": false,
      "t": 15300,
      "d": 300,
      "v": 86
    },
    {
      "midi": 50,
      "hit": false,
      "t": 15300,
      "d": 300,
      "v": 76
    },
    {
      "midi": 59,
      "hit": false,
      "t": 15300,
      "d": 300,
      "v": 76
    },
    {
      "midi": 67,
      "hit": false,
      "t": 15600,
      "d": 300,
      "v": 66
    },
    {
      "midi": 55,
      "hit": false,
      "t": 15600,
      "d": 300,
      "v": 70
    },
    {
      "midi": 66,
      "hit": false,
      "t": 15900,
      "d": 300,
      "v": 74
    },
    {
      "midi": 54,
      "hit": false,
      "t": 15900,
      "d": 300,
      "v": 73
    },
    {
      "midi": 64,
      "hit": false,
      "t": 16200,
      "d": 900,
      "v": 70
    },
    {
      "midi": 47,
      "hit": false,
      "t": 16200,
      "d": 900,
      "v": 80
    },
    {
      "midi": 55,
      "hit": false,
      "t": 16200,
      "d": 900,
      "v": 76
    },
    {
      "midi": 62,
      "hit": false,
      "t": 17100,
      "d": 900,
      "v": 69
    },
    {
      "midi": 50,
      "hit": false,
      "t": 17100,
      "d": 900,
      "v": 82
    },
    {
      "midi": 67,
      "hit": false,
      "t": 18000,
      "d": 300,
      "v": 88
    },
    {
      "midi": 55,
      "hit": false,
      "t": 18000,
      "d": 900,
      "v": 75
    },
    {
      "midi": 69,
      "hit": false,
      "t": 18300,
      "d": 300,
      "v": 85
    },
    {
      "midi": 71,
      "hit": false,
      "t": 18600,
      "d": 300,
      "v": 81
    },
    {
      "midi": 67,
      "hit": false,
      "t": 18900,
      "d": 600,
      "v": 67
    },
    {
      "midi": 50,
      "hit": false,
      "t": 18900,
      "d": 900,
      "v": 67
    },
    {
      "midi": 79,
      "hit": false,
      "t": 19500,
      "d": 300,
      "v": 94
    },
    {
      "midi": 74,
      "hit": false,
      "t": 19800,
      "d": 1500,
      "v": 72
    },
    {
      "midi": 47,
      "hit": false,
      "t": 19800,
      "d": 900,
      "v": 71
    },
    {
      "midi": 55,
      "hit": false,
      "t": 19800,
      "d": 900,
      "v": 77
    },
    {
      "midi": 43,
      "hit": false,
      "t": 20700,
      "d": 900,
      "v": 68
    },
    {
      "midi": 76,
      "hit": false,
      "t": 21300,
      "d": 300,
      "v": 80
    },
    {
      "midi": 79,
      "hit": false,
      "t": 21600,
      "d": 600,
      "v": 82
    },
    {
      "midi": 48,
      "hit": false,
      "t": 21600,
      "d": 900,
      "v": 76
    },
    {
      "midi": 52,
      "hit": false,
      "t": 21600,
      "d": 900,
      "v": 76
    },
    {
      "midi": 76,
      "hit": false,
      "t": 22200,
      "d": 300,
      "v": 73
    },
    {
      "midi": 74,
      "hit": false,
      "t": 22500,
      "d": 600,
      "v": 68
    },
    {
      "midi": 45,
      "hit": false,
      "t": 22500,
      "d": 900,
      "v": 84
    },
    {
      "midi": 54,
      "hit": false,
      "t": 22500,
      "d": 900,
      "v": 84
    },
    {
      "midi": 72,
      "hit": false,
      "t": 23100,
      "d": 300,
      "v": 73
    },
    {
      "midi": 74,
      "hit": false,
      "t": 23400,
      "d": 900,
      "v": 80
    },
    {
      "midi": 47,
      "hit": false,
      "t": 23400,
      "d": 900,
      "v": 77
    },
    {
      "midi": 55,
      "hit": false,
      "t": 23400,
      "d": 900,
      "v": 77
    },
    {
      "midi": 71,
      "hit": false,
      "t": 24300,
      "d": 900,
      "v": 72
    },
    {
      "midi": 52,
      "hit": false,
      "t": 24300,
      "d": 900,
      "v": 77
    },
    {
      "midi": 67,
      "hit": false,
      "t": 25200,
      "d": 300,
      "v": 65
    },
    {
      "midi": 48,
      "hit": false,
      "t": 25200,
      "d": 900,
      "v": 74
    },
    {
      "midi": 52,
      "hit": false,
      "t": 25200,
      "d": 900,
      "v": 74
    },
    {
      "midi": 69,
      "hit": false,
      "t": 25500,
      "d": 300,
      "v": 79
    },
    {
      "midi": 71,
      "hit": false,
      "t": 25800,
      "d": 300,
      "v": 81
    },
    {
      "midi": 67,
      "hit": false,
      "t": 26100,
      "d": 600,
      "v": 73
    },
    {
      "midi": 57,
      "hit": false,
      "t": 26100,
      "d": 900,
      "v": 92
    },
    {
      "midi": 60,
      "hit": false,
      "t": 26100,
      "d": 900,
      "v": 92
    },
    {
      "midi": 64,
      "hit": false,
      "t": 26700,
      "d": 300,
      "v": 70
    },
    {
      "midi": 67,
      "hit": false,
      "t": 27000,
      "d": 900,
      "v": 84
    },
    {
      "midi": 52,
      "hit": false,
      "t": 27000,
      "d": 1800,
      "v": 72
    },
    {
      "midi": 59,
      "hit": false,
      "t": 27000,
      "d": 1800,
      "v": 72
    },
    {
      "midi": 67,
      "hit": false,
      "t": 27900,
      "d": 600,
      "v": 73
    },
    {
      "midi": 76,
      "hit": false,
      "t": 28500,
      "d": 300,
      "v": 90
    },
    {
      "midi": 79,
      "hit": false,
      "t": 28800,
      "d": 600,
      "v": 88
    },
    {
      "midi": 60,
      "hit": false,
      "t": 28800,
      "d": 900,
      "v": 87
    },
    {
      "midi": 64,
      "hit": false,
      "t": 28800,
      "d": 900,
      "v": 87
    },
    {
      "midi": 76,
      "hit": false,
      "t": 29400,
      "d": 300,
      "v": 72
    },
    {
      "midi": 74,
      "hit": false,
      "t": 29700,
      "d": 600,
      "v": 69
    },
    {
      "midi": 62,
      "hit": false,
      "t": 29700,
      "d": 900,
      "v": 83
    },
    {
      "midi": 66,
      "hit": false,
      "t": 29700,
      "d": 900,
      "v": 83
    },
    {
      "midi": 72,
      "hit": false,
      "t": 30300,
      "d": 300,
      "v": 73
    },
    {
      "midi": 79,
      "hit": false,
      "t": 30600,
      "d": 600,
      "v": 88
    },
    {
      "midi": 59,
      "hit": false,
      "t": 30600,
      "d": 900,
      "v": 82
    },
    {
      "midi": 67,
      "hit": false,
      "t": 30600,
      "d": 900,
      "v": 80
    },
    {
      "midi": 74,
      "hit": false,
      "t": 31200,
      "d": 300,
      "v": 66
    },
    {
      "midi": 72,
      "hit": false,
      "t": 31500,
      "d": 600,
      "v": 67
    },
    {
      "midi": 64,
      "hit": false,
      "t": 31500,
      "d": 900,
      "v": 88
    },
    {
      "midi": 71,
      "hit": false,
      "t": 32100,
      "d": 300,
      "v": 70
    },
    {
      "midi": 76,
      "hit": false,
      "t": 32400,
      "d": 2400,
      "v": 85
    },
    {
      "midi": 45,
      "hit": false,
      "t": 32400,
      "d": 300,
      "v": 62
    },
    {
      "midi": 52,
      "hit": false,
      "t": 32700,
      "d": 300,
      "v": 81
    },
    {
      "midi": 55,
      "hit": false,
      "t": 33000,
      "d": 300,
      "v": 83
    },
    {
      "midi": 60,
      "hit": false,
      "t": 33300,
      "d": 900,
      "v": 85
    },
    {
      "midi": 64,
      "hit": false,
      "t": 34200,
      "d": 900,
      "v": 88
    },
    {
      "midi": 72,
      "hit": false,
      "t": 34800,
      "d": 300,
      "v": 71
    },
    {
      "midi": 71,
      "hit": false,
      "t": 35100,
      "d": 600,
      "v": 77
    },
    {
      "midi": 50,
      "hit": false,
      "t": 35100,
      "d": 900,
      "v": 67
    },
    {
      "midi": 54,
      "hit": false,
      "t": 35100,
      "d": 900,
      "v": 67
    },
    {
      "midi": 60,
      "hit": false,
      "t": 35100,
      "d": 900,
      "v": 67
    },
    {
      "midi": 69,
      "hit": false,
      "t": 35700,
      "d": 300,
      "v": 72
    },
    {
      "midi": 67,
      "hit": false,
      "t": 36000,
      "d": 900,
      "v": 70
    },
    {
      "midi": 55,
      "hit": false,
      "t": 36000,
      "d": 1800,
      "v": 74
    },
    {
      "midi": 59,
      "hit": false,
      "t": 36000,
      "d": 1800,
      "v": 74
    },
    {
      "midi": 71,
      "hit": false,
      "t": 36900,
      "d": 600,
      "v": 80
    },
    {
      "midi": 66,
      "hit": false,
      "t": 37500,
      "d": 300,
      "v": 68
    },
    {
      "midi": 64,
      "hit": false,
      "t": 37800,
      "d": 900,
      "v": 73
    },
    {
      "midi": 55,
      "hit": false,
      "t": 37800,
      "d": 1800,
      "v": 82
    },
    {
      "midi": 59,
      "hit": false,
      "t": 37800,
      "d": 1800,
      "v": 82
    },
    {
      "midi": 62,
      "hit": false,
      "t": 38700,
      "d": 900,
      "v": 66
    },
    {
      "midi": 67,
      "hit": false,
      "t": 39600,
      "d": 300,
      "v": 85
    },
    {
      "midi": 55,
      "hit": false,
      "t": 39600,
      "d": 900,
      "v": 76
    },
    {
      "midi": 59,
      "hit": false,
      "t": 39600,
      "d": 900,
      "v": 79
    },
    {
      "midi": 69,
      "hit": false,
      "t": 39900,
      "d": 300,
      "v": 83
    },
    {
      "midi": 71,
      "hit": false,
      "t": 40200,
      "d": 300,
      "v": 88
    },
    {
      "midi": 67,
      "hit": false,
      "t": 40500,
      "d": 600,
      "v": 67
    },
    {
      "midi": 50,
      "hit": false,
      "t": 40500,
      "d": 900,
      "v": 68
    },
    {
      "midi": 79,
      "hit": false,
      "t": 41100,
      "d": 300,
      "v": 98
    },
    {
      "midi": 74,
      "hit": false,
      "t": 41400,
      "d": 1800,
      "v": 69
    },
    {
      "midi": 47,
      "hit": false,
      "t": 41400,
      "d": 1800,
      "v": 75
    },
    {
      "midi": 55,
      "hit": false,
      "t": 41400,
      "d": 1800,
      "v": 75
    },
    {
      "midi": 67,
      "hit": false,
      "t": 43200,
      "d": 300,
      "v": 63
    },
    {
      "midi": 60,
      "hit": false,
      "t": 43200,
      "d": 600,
      "v": 96
    },
    {
      "midi": 64,
      "hit": false,
      "t": 43200,
      "d": 600,
      "v": 96
    },
    {
      "midi": 69,
      "hit": false,
      "t": 43500,
      "d": 300,
      "v": 78
    },
    {
      "midi": 71,
      "hit": false,
      "t": 43800,
      "d": 300,
      "v": 81
    },
    {
      "midi": 59,
      "hit": false,
      "t": 43800,
      "d": 300,
      "v": 68
    },
    {
      "midi": 67,
      "hit": false,
      "t": 44100,
      "d": 600,
      "v": 72
    },
    {
      "midi": 57,
      "hit": false,
      "t": 44100,
      "d": 900,
      "v": 82
    },
    {
      "midi": 60,
      "hit": false,
      "t": 44100,
      "d": 900,
      "v": 82
    },
    {
      "midi": 64,
      "hit": false,
      "t": 44700,
      "d": 300,
      "v": 68
    },
    {
      "midi": 67,
      "hit": false,
      "t": 45000,
      "d": 1800,
      "v": 82
    },
    {
      "midi": 55,
      "hit": false,
      "t": 45000,
      "d": 1800,
      "v": 68
    },
    {
      "midi": 59,
      "hit": false,
      "t": 45000,
      "d": 1800,
      "v": 68
    }
  ]
}