{
  "jsonPath": "Classical/Classical/Giacomo Puccini/one-fine-day.json",
  "path": "Classical\\Classical\\Giacomo Puccini\\One Fine Day.mid",
  "name": "One Fine Day",
  "difficulty": "Advanced",
  "bpm": 80,
  "notes": [
    {
      "midi": 77,
      "hit": false,
      "t": 0,
      "d": 1125,
      "v": 89
    },
    {
      "midi": 65,
      "hit": false,
      "t": 0,
      "d": 375,
      "v": 66
    },
    {
      "midi": 69,
      "hit": false,
      "t": 375,
      "d": 1875,
      "v": 74
    },
    {
      "midi": 72,
      "hit": false,
      "t": 375,
      "d": 1875,
      "v": 76
    },
    {
      "midi": 74,
      "hit": false,
      "t": 1125,
      "d": 375,
      "v": 87
    },
    {
      "midi": 77,
      "hit": false,
      "t": 1500,
      "d": 375,
      "v": 74
    },
    {
      "midi": 74,
      "hit": false,
      "t": 1875,
      "d": 375,
      "v": 78
    },
    {
      "midi": 76,
      "hit": false,
      "t": 2250,
      "d": 1125,
      "v": 95
    },
    {
      "midi": 64,
      "hit": false,
      "t": 2250,
      "d": 375,
      "v": 61
    },
    {
      "midi": 67,
      "hit": false,
      "t": 2625,
      "d": 1125,
      "v": 80
    },
    {
      "midi": 72,
      "hit": false,
      "t": 2625,
      "d": 1125,
      "v": 74
    },
    {
      "midi": 72,
      "hit": false,
      "t": 3375,
      "d": 187.5,
      "v": 82
    },
    {
      "midi": 74,
      "hit": false,
      "t": 3562.5,
      "d": 187.5,
      "v": 84
    },
    {
      "midi": 76,
      "hit": false,
      "t": 3750,
      "d": 375,
      "v": 92
    },
    {
      "midi": 64,
      "hit": false,
      "t": 3750,
      "d": 750,
      "v": 65
    },
    {
      "midi": 67,
      "hit": false,
      "t": 3750,
      "d": 750,
      "v": 89
    },
    {
      "midi": 72,
      "hit": false,
      "t": 4125,
      "d": 375,
      "v": 74
    },
    {
      "midi": 74,
      "hit": false,
      "t": 4500,
      "d": 1125,
      "v": 82
    },
    {
      "midi": 62,
      "hit": false,
      "t": 4500,
      "d": 375,
      "v": 80
    },
    {
      "midi": 65,
      "hit": false,
      "t": 4875,
      "d": 1125,
      "v": 76
    },
    {
      "midi": 69,
      "hit": false,
      "t": 4875,
      "d": 1125,
      "v": 82
    },
    {
      "midi": 69,
      "hit": false,
      "t": 5625,
      "d": 375,
      "v": 84
    },
    {
      "midi": 74,
      "hit": false,
      "t": 6000,
      "d": 375,
      "v": 92
    },
    {
      "midi": 62,
      "hit": false,
      "t": 6000,
      "d": 750,
      "v": 78
    },
    {
      "midi": 65,
      "hit": false,
      "t": 6000,
      "d": 750,
      "v": 76
    },
    {
      "midi": 69,
      "hit": false,
      "t": 6375,
      "d": 375,
      "v": 82
    },
    {
      "midi": 72,
      "hit": false,
      "t": 6750,
      "d": 750,
      "v": 69
    },
    {
      "midi": 60,
      "hit": false,
      "t": 6750,
      "d": 375,
      "v": 66
    },
    {
      "midi": 64,
      "hit": false,
      "t": 7125,
      "d": 1875,
      "v": 64
    },
    {
      "midi": 67,
      "hit": false,
      "t": 7125,
      "d": 1875,
      "v": 95
    },
    {
      "midi": 72,
      "hit": false,
      "t": 7500,
      "d": 750,
      "v": 76
    },
    {
      "midi": 74,
      "hit": false,
      "t": 8250,
      "d": 375,
      "v": 89
    },
    {
      "midi": 72,
      "hit": false,
      "t": 8625,
      "d": 375,
      "v": 78
    },
    {
      "midi": 67,
      "hit": false,
      "t": 9000,
      "d": 1125,
      "v": 92
    },
    {
      "midi": 55,
      "hit": false,
      "t": 9000,
      "d": 375,
      "v": 50
    },
    {
      "midi": 58,
      "hit": false,
      "t": 9375,
      "d": 1875,
      "v": 74
    },
    {
      "midi": 62,
      "hit": false,
      "t": 9375,
      "d": 1875,
      "v": 78
    },
    {
      "midi": 64,
      "hit": false,
      "t": 10125,
      "d": 187.5,
      "v": 80
    },
    {
      "midi": 65,
      "hit": false,
      "t": 10312.5,
      "d": 187.5,
      "v": 76
    },
    {
      "midi": 67,
      "hit": false,
      "t": 10500,
      "d": 375,
      "v": 97
    },
    {
      "midi": 64,
      "hit": false,
      "t": 10875,
      "d": 375,
      "v": 82
    },
    {
      "midi": 69,
      "hit": false,
      "t": 11250,
      "d": 750,
      "v": 82
    },
    {
      "midi": 57,
      "hit": false,
      "t": 11250,
      "d": 375,
      "v": 60
    },
    {
      "midi": 60,
      "hit": false,
      "t": 11625,
      "d": 1875,
      "v": 78
    },
    {
      "midi": 64,
      "hit": false,
      "t": 11625,
      "d": 1875,
      "v": 82
    },
    {
      "midi": 69,
      "hit": false,
      "t": 12000,
      "d": 750,
      "v": 80
    },
    {
      "midi": 67,
      "hit": false,
      "t": 12750,
      "d": 375,
      "v": 87
    },
    {
      "midi": 65,
      "hit": false,
      "t": 13125,
      "d": 375,
      "v": 78
    },
    {
      "midi": 60,
      "hit": false,
      "t": 13500,
      "d": 1125,
      "v": 76
    },
    {
      "midi": 53,
      "hit": false,
      "t": 13500,
      "d": 375,
      "v": 63
    },
    {
      "midi": 55,
      "hit": false,
      "t": 13500,
      "d": 375,
      "v": 74
    },
    {
      "midi": 58,
      "hit": false,
      "t": 13500,
      "d": 375,
      "v": 82
    },
    {
      "midi": 53,
      "hit": false,
      "t": 13875,
      "d": 750,
      "v": 80
    },
    {
      "midi": 55,
      "hit": false,
      "t": 13875,
      "d": 750,
      "v": 82
    },
    {
      "midi": 58,
      "hit": false,
      "t": 13875,
      "d": 750,
      "v": 84
    },
    {
      "midi": 60,
      "hit": false,
      "t": 14625,
      "d": 187.5,
      "v": 72
    },
    {
      "midi": 52,
      "hit": false,
      "t": 14625,
      "d": 1125,
      "v": 71
    },
    {
      "midi": 55,
      "hit": false,
      "t": 14625,
      "d": 1125,
      "v": 76
    },
    {
      "midi": 58,
      "hit": false,
      "t": 14625,
      "d": 1125,
      "v": 82
    },
    {
      "midi": 62,
      "hit": false,
      "t": 14812.5,
      "d": 187.5,
      "v": 89
    },
    {
      "midi": 64,
      "hit": false,
      "t": 15000,
      "d": 375,
      "v": 97
    },
    {
      "midi": 60,
      "hit": false,
      "t": 15375,
      "d": 375,
      "v": 76
    },
    {
      "midi": 65,
      "hit": false,
      "t": 15750,
      "d": 750,
      "v": 92
    },
    {
      "midi": 53,
      "hit": false,
      "t": 15750,
      "d": 375,
      "v": 64
    },
    {
      "midi": 57,
      "hit": false,
      "t": 16125,
      "d": 750,
      "v": 101
    },
    {
      "midi": 60,
      "hit": false,
      "t": 16125,
      "d": 750,
      "v": 89
    },
    {
      "midi": 65,
      "hit": false,
      "t": 16500,
      "d": 1500,
      "v": 66
    },
    {
      "midi": 57,
      "hit": false,
      "t": 16875,
      "d": 750,
      "v": 74
    },
    {
      "midi": 60,
      "hit": false,
      "t": 16875,
      "d": 750,
      "v": 76
    },
    {
      "midi": 57,
      "hit": false,
      "t": 17625,
      "d": 375,
      "v": 76
    },
    {
      "midi": 60,
      "hit": false,
      "t": 17625,
      "d": 375,
      "v": 69
    },
    {
      "midi": 64,
      "hit": false,
      "t": 18000,
      "d": 375,
      "v": 95
    },
    {
      "midi": 57,
      "hit": false,
      "t": 18000,
      "d": 2250,
      "v": 97
    },
    {
      "midi": 60,
      "hit": false,
      "t": 18000,
      "d": 2250,
      "v": 92
    },
    {
      "midi": 65,
      "hit": false,
      "t": 18375,
      "d": 375,
      "v": 76
    },
    {
      "midi": 67,
      "hit": false,
      "t": 18750,
      "d": 750,
      "v": 87
    },
    {
      "midi": 69,
      "hit": false,
      "t": 19500,
      "d": 750,
      "v": 78
    },
    {
      "midi": 67,
      "hit": false,
      "t": 20250,
      "d": 375,
      "v": 78
    },
    {
      "midi": 65,
      "hit": false,
      "t": 20625,
      "d": 375,
      "v": 76
    },
    {
      "midi": 64,
      "hit": false,
      "t": 21000,
      "d": 1500,
      "v": 76
    },
    {
      "midi": 69,
      "hit": false,
      "t": 22500,
      "d": 750,
      "v": 82
    },
    {
      "midi": 57,
      "hit": false,
      "t": 22500,
      "d": 375,
      "v": 61
    },
    {
      "midi": 60,
      "hit": false,
      "t": 22875,
      "d": 750,
      "v": 64
    },
    {
      "midi": 64,
      "hit": false,
      "t": 22875,
      "d": 750,
      "v": 59
    },
    {
      "midi": 71,
      "hit": false,
      "t": 23250,
      "d": 750,
      "v": 84
    },
    {
      "midi": 60,
      "hit": false,
      "t": 23625,
      "d": 1125,
      "v": 66
    },
    {
      "midi": 64,
      "hit": false,
      "t": 23625,
      "d": 1125,
      "v": 62
    },
    {
      "midi": 69,
      "hit": false,
      "t": 24000,
      "d": 187.5,
      "v": 84
    },
    {
      "midi": 67,
      "hit": false,
      "t": 24187.5,
      "d": 187.5,
      "v": 78
    },
    {
      "midi": 65,
      "hit": false,
      "t": 24375,
      "d": 375,
      "v": 80
    },
    {
      "midi": 69,
      "hit": false,
      "t": 24750,
      "d": 1500,
      "v": 92
    },
    {
      "midi": 57,
      "hit": false,
      "t": 24750,
      "d": 375,
      "v": 58
    },
    {
      "midi": 60,
      "hit": false,
      "t": 25125,
      "d": 750,
      "v": 59
    },
    {
      "midi": 64,
      "hit": false,
      "t": 25125,
      "d": 750,
      "v": 59
    },
    {
      "midi": 60,
      "hit": false,
      "t": 25875,
      "d": 750,
      "v": 84
    },
    {
      "midi": 64,
      "hit": false,
      "t": 25875,
      "d": 750,
      "v": 76
    },
    {
      "midi": 69,
      "hit": false,
      "t": 26250,
      "d": 750,
      "v": 92
    },
    {
      "midi": 60,
      "hit": false,
      "t": 26625,
      "d": 375,
      "v": 63
    },
    {
      "midi": 64,
      "hit": false,
      "t": 26625,
      "d": 375,
      "v": 59
    },
    {
      "midi": 71,
      "hit": false,
      "t": 27000,
      "d": 375,
      "v": 65
    },
    {
      "midi": 64,
      "hit": false,
      "t": 27000,
      "d": 2250,
      "v": 32
    },
    {
      "midi": 67,
      "hit": false,
      "t": 27000,
      "d": 2250,
      "v": 95
    },
    {
      "midi": 72,
      "hit": false,
      "t": 27375,
      "d": 375,
      "v": 76
    },
    {
      "midi": 74,
      "hit": false,
      "t": 27750,
      "d": 750,
      "v": 87
    },
    {
      "midi": 76,
      "hit": false,
      "t": 28500,
      "d": 750,
      "v": 92
    },
    {
      "midi": 74,
      "hit": false,
      "t": 29250,
      "d": 375,
      "v": 82
    },
    {
      "midi": 72,
      "hit": false,
      "t": 29625,
      "d": 375,
      "v": 76
    },
    {
      "midi": 71,
      "hit": false,
      "t": 30000,
      "d": 1500,
      "v": 72
    },
    {
      "midi": 76,
      "hit": false,
      "t": 31500,
      "d": 750,
      "v": 95
    },
    {
      "midi": 64,
      "hit": false,
      "t": 31500,
      "d": 375,
      "v": 80
    },
    {
      "midi": 67,
      "hit": false,
      "t": 31875,
      "d": 750,
      "v": 87
    },
    {
      "midi": 71,
      "hit": false,
      "t": 31875,
      "d": 750,
      "v": 66
    },
    {
      "midi": 78,
      "hit": false,
      "t": 32250,
      "d": 750,
      "v": 72
    },
    {
      "midi": 67,
      "hit": false,
      "t": 32625,
      "d": 1125,
      "v": 89
    },
    {
      "midi": 71,
      "hit": false,
      "t": 32625,
      "d": 1125,
      "v": 80
    },
    {
      "midi": 76,
      "hit": false,
      "t": 33000,
      "d": 187.5,
      "v": 101
    },
    {
      "midi": 74,
      "hit": false,
      "t": 33187.5,
      "d": 187.5,
      "v": 84
    },
    {
      "midi": 72,
      "hit": false,
      "t": 33375,
      "d": 375,
      "v": 87
    },
    {
      "midi": 76,
      "hit": false,
      "t": 33750,
      "d": 1500,
      "v": 108
    },
    {
      "midi": 64,
      "hit": false,
      "t": 33750,
      "d": 375,
      "v": 67
    },
    {
      "midi": 67,
      "hit": false,
      "t": 34125,
      "d": 750,
      "v": 82
    },
    {
      "midi": 71,
      "hit": false,
      "t": 34125,
      "d": 750,
      "v": 78
    },
    {
      "midi": 67,
      "hit": false,
      "t": 34875,
      "d": 750,
      "v": 84
    },
    {
      "midi": 71,
      "hit": false,
      "t": 34875,
      "d": 750,
      "v": 78
    },
    {
      "midi": 76,
      "hit": false,
      "t": 35250,
      "d": 750,
      "v": 117
    },
    {
      "midi": 67,
      "hit": false,
      "t": 35625,
      "d": 375,
      "v": 71
    },
    {
      "midi": 71,
      "hit": false,
      "t": 35625,
      "d": 375,
      "v": 78
    },
    {
      "midi": 76,
      "hit": false,
      "t": 36000,
      "d": 750,
      "v": 113
    },
    {
      "midi": 62,
      "hit": false,
      "t": 36375,
      "d": 1875,
      "v": 71
    },
    {
      "midi": 65,
      "hit": false,
      "t": 36375,
      "d": 1875,
      "v": 92
    },
    {
      "midi": 74,
      "hit": false,
      "t": 36750,
      "d": 375,
      "v": 87
    },
    {
      "midi": 72,
      "hit": false,
      "t": 37125,
      "d": 375,
      "v": 89
    },
    {
      "midi": 69,
      "hit": false,
      "t": 37500,
      "d": 562.5,
      "v": 78
    },
    {
      "midi": 71,
      "hit": false,
      "t": 38062.5,
      "d": 187.5,
      "v": 84
    },
    {
      "midi": 72,
      "hit": false,
      "t": 38250,
      "d": 750,
      "v": 87
    },
    {
      "midi": 62,
      "hit": false,
      "t": 39000,
      "d": 562.5,
      "v": 95
    },
    {
      "midi": 53,
      "hit": false,
      "t": 39000,
      "d": 1500,
      "v": 82
    },
    {
      "midi": 57,
      "hit": false,
      "t": 39000,
      "d": 1500,
      "v": 101
    },
    {
      "midi": 65,
      "hit": false,
      "t": 39562.5,
      "d": 187.5,
      "v": 87
    },
    {
      "midi": 69,
      "hit": false,
      "t": 39750,
      "d": 562.5,
      "v": 95
    },
    {
      "midi": 71,
      "hit": false,
      "t": 40312.5,
      "d": 187.5,
      "v": 67
    },
    {
      "midi": 64,
      "hit": false,
      "t": 40500,
      "d": 375,
      "v": 95
    },
    {
      "midi": 55,
      "hit": false,
      "t": 40500,
      "d": 1500,
      "v": 82
    },
    {
      "midi": 59,
      "hit": false,
      "t": 40500,
      "d": 1500,
      "v": 76
    },
    {
      "midi": 64,
      "hit": false,
      "t": 40875,
      "d": 375,
      "v": 80
    },
    {
      "midi": 67,
      "hit": false,
      "t": 41250,
      "d": 375,
      "v": 92
    },
    {
      "midi": 71,
      "hit": false,
      "t": 41625,
      "d": 375,
      "v": 76
    },
    {
      "midi": 64,
      "hit": false,
      "t": 42000,
      "d": 375,
      "v": 74
    },
    {
      "midi": 69,
      "hit": false,
      "t": 42000,
      "d": 375,
      "v": 78
    },
    {
      "midi": 54,
      "hit": false,
      "t": 42000,
      "d": 750,
      "v": 77
    },
    {
      "midi": 60,
      "hit": false,
      "t": 42000,
      "d": 750,
      "v": 97
    },
    {
      "midi": 69,
      "hit": false,
      "t": 42375,
      "d": 187.5,
      "v": 76
    },
    {
      "midi": 69,
      "hit": false,
      "t": 42562.5,
      "d": 187.5,
      "v": 69
    },
    {
      "midi": 69,
      "hit": false,
      "t": 42750,
      "d": 375,
      "v": 89
    },
    {
      "midi": 69,
      "hit": false,
      "t": 43125,
      "d": 750,
      "v": 71
    },
    {
      "midi": 55,
      "hit": false,
      "t": 43500,
      "d": 1500,
      "v": 71
    },
    {
      "midi": 59,
      "hit": false,
      "t": 43500,
      "d": 1500,
      "v": 87
    },
    {
      "midi": 64,
      "hit": false,
      "t": 43875,
      "d": 375,
      "v": 71
    },
    {
      "midi": 67,
      "hit": false,
      "t": 44250,
      "d": 375,
      "v": 82
    },
    {
      "midi": 71,
      "hit": false,
      "t": 44625,
      "d": 375,
      "v": 78
    },
    {
      "midi": 54,
      "hit": false,
      "t": 45000,
      "d": 1500,
      "v": 69
    },
    {
      "midi": 60,
      "hit": false,
      "t": 45000,
      "d": 1500,
      "v": 82
    },
    {
      "midi": 69,
      "hit": false,
      "t": 45375,
      "d": 375,
      "v": 82
    },
    {
      "midi": 76,
      "hit": false,
      "t": 45750,
      "d": 375,
      "v": 92
    },
    {
      "midi": 76,
      "hit": false,
      "t": 46125,
      "d": 187.5,
      "v": 92
    },
    {
      "midi": 76,
      "hit": false,
      "t": 46312.5,
      "d": 187.5,
      "v": 97
    },
    {
      "midi": 76,
      "hit": false,
      "t": 46500,
      "d": 750,
      "v": 108
    },
    {
      "midi": 55,
      "hit": false,
      "t": 46500,
      "d": 750,
      "v": 82
    },
    {
      "midi": 59,
      "hit": false,
      "t": 46500,
      "d": 750,
      "v": 76
    },
    {
      "midi": 64,
      "hit": false,
      "t": 47250,
      "d": 187.5,
      "v": 80
    },
    {
      "midi": 54,
      "hit": false,
      "t": 47250,
      "d": 750,
      "v": 53
    },
    {
      "midi": 60,
      "hit": false,
      "t": 47250,
      "d": 750,
      "v": 92
    },
    {
      "midi": 64,
      "hit": false,
      "t": 47437.5,
      "d": 187.5,
      "v": 82
    },
    {
      "midi": 64,
      "hit": false,
      "t": 47625,
      "d": 187.5,
      "v": 87
    },
    {
      "midi": 64,
      "hit": false,
      "t": 47812.5,
      "d": 187.5,
      "v": 101
    },
    {
      "midi": 71,
      "hit": false,
      "t": 48000,
      "d": 375,
      "v": 89
    },
    {
      "midi": 55,
      "hit": false,
      "t": 48000,
      "d": 1500,
      "v": 72
    },
    {
      "midi": 59,
      "hit": false,
      "t": 48000,
      "d": 1500,
      "v": 63
    },
    {
      "midi": 71,
      "hit": false,
      "t": 48375,
      "d": 1125,
      "v": 117
    },
    {
      "midi": 54,
      "hit": false,
      "t": 49500,
      "d": 1500,
      "v": 53
    },
    {
      "midi": 60,
      "hit": false,
      "t": 49500,
      "d": 1500,
      "v": 92
    },
    {
      "midi": 69,
      "hit": false,
      "t": 49875,
      "d": 375,
      "v": 76
    },
    {
      "midi": 71,
      "hit": false,
      "t": 50250,
      "d": 375,
      "v": 72
    },
    {
      "midi": 72,
      "hit": false,
      "t": 50625,
      "d": 375,
      "v": 78
    },
    {
      "midi": 64,
      "hit": false,
      "t": 51000,
      "d": 375,
      "v": 57
    },
    {
      "midi": 55,
      "hit": false,
      "t": 51000,
      "d": 375,
      "v": 68
    },
    {
      "midi": 59,
      "hit": false,
      "t": 51000,
      "d": 375,
      "v": 69
    },
    {
      "midi": 64,
      "hit": false,
      "t": 51375,
      "d": 375,
      "v": 60
    },
    {
      "midi": 55,
      "hit": false,
      "t": 51375,
      "d": 375,
      "v": 67
    },
    {
      "midi": 59,
      "hit": false,
      "t": 51375,
      "d": 375,
      "v": 67
    },
    {
      "midi": 55,
      "hit": false,
      "t": 52125,
      "d": 750,
      "v": 71
    },
    {
      "midi": 59,
      "hit": false,
      "t": 52125,
      "d": 750,
      "v": 67
    },
    {
      "midi": 55,
      "hit": false,
      "t": 52875,
      "d": 1125,
      "v": 80
    },
    {
      "midi": 59,
      "hit": false,
      "t": 52875,
      "d": 1125,
      "v": 78
    },
    {
      "midi": 71,
      "hit": false,
      "t": 53625,
      "d": 375,
      "v": 74
    },
    {
      "midi": 71,
      "hit": false,
      "t": 54000,
      "d": 375,
      "v": 78
    },
    {
      "midi": 52,
      "hit": false,
      "t": 54000,
      "d": 2250,
      "v": 57
    },
    {
      "midi": 55,
      "hit": false,
      "t": 54000,
      "d": 2250,
      "v": 80
    },
    {
      "midi": 71,
      "hit": false,
      "t": 54375,
      "d": 375,
      "v": 65
    },
    {
      "midi": 71,
      "hit": false,
      "t": 54750,
      "d": 375,
      "v": 76
    },
    {
      "midi": 71,
      "hit": false,
      "t": 55125,
      "d": 375,
      "v": 67
    },
    {
      "midi": 71,
      "hit": false,
      "t": 55500,
      "d": 375,
      "v": 76
    },
    {
      "midi": 67,
      "hit": false,
      "t": 55875,
      "d": 375,
      "v": 65
    },
    {
      "midi": 69,
      "hit": false,
      "t": 56250,
      "d": 187.5,
      "v": 69
    },
    {
      "midi": 52,
      "hit": false,
      "t": 56250,
      "d": 750,
      "v": 66
    },
    {
      "midi": 54,
      "hit": false,
      "t": 56250,
      "d": 750,
      "v": 69
    },
    {
      "midi": 57,
      "hit": false,
      "t": 56250,
      "d": 750,
      "v": 74
    },
    {
      "midi": 71,
      "hit": false,
      "t": 56437.5,
      "d": 187.5,
      "v": 72
    },
    {
      "midi": 72,
      "hit": false,
      "t": 56625,
      "d": 375,
      "v": 72
    },
    {
      "midi": 71,
      "hit": false,
      "t": 57000,
      "d": 750,
      "v": 80
    },
    {
      "midi": 52,
      "hit": false,
      "t": 57000,
      "d": 375,
      "v": 71
    },
    {
      "midi": 55,
      "hit": false,
      "t": 57375,
      "d": 750,
      "v": 82
    },
    {
      "midi": 59,
      "hit": false,
      "t": 57375,
      "d": 750,
      "v": 61
    },
    {
      "midi": 71,
      "hit": false,
      "t": 57750,
      "d": 750,
      "v": 67
    },
    {
      "midi": 55,
      "hit": false,
      "t": 58125,
      "d": 375,
      "v": 82
    },
    {
      "midi": 59,
      "hit": false,
      "t": 58125,
      "d": 375,
      "v": 66
    },
    {
      "midi": 55,
      "hit": false,
      "t": 58875,
      "d": 375,
      "v": 78
    },
    {
      "midi": 59,
      "hit": false,
      "t": 58875,
      "d": 375,
      "v": 71
    },
    {
      "midi": 67,
      "hit": false,
      "t": 59250,
      "d": 750,
      "v": 89
    },
    {
      "midi": 74,
      "hit": false,
      "t": 59250,
      "d": 750,
      "v": 101
    },
    {
      "midi": 59,
      "hit": false,
      "t": 59250,
      "d": 750,
      "v": 80
    },
    {
      "midi": 67,
      "hit": false,
      "t": 60000,
      "d": 375,
      "v": 72
    },
    {
      "midi": 76,
      "hit": false,
      "t": 60000,
      "d": 375,
      "v": 92
    },
    {
      "midi": 60,
      "hit": false,
      "t": 60000,
      "d": 750,
      "v": 89
    },
    {
      "midi": 76,
      "hit": false,
      "t": 60375,
      "d": 375,
      "v": 80
    },
    {
      "midi": 74,
      "hit": false,
      "t": 60750,
      "d": 375,
      "v": 80
    },
    {
      "midi": 59,
      "hit": false,
      "t": 60750,
      "d": 750,
      "v": 82
    },
    {
      "midi": 74,
      "hit": false,
      "t": 61125,
      "d": 375,
      "v": 66
    },
    {
      "midi": 71,
      "hit": false,
      "t": 61500,
      "d": 750,
      "v": 55
    },
    {
      "midi": 55,
      "hit": false,
      "t": 61500,
      "d": 750,
      "v": 80
    },
    {
      "midi": 74,
      "hit": false,
      "t": 62250,
      "d": 375,
      "v": 92
    },
    {
      "midi": 50,
      "hit": false,
      "t": 62250,
      "d": 750,
      "v": 80
    },
    {
      "midi": 62,
      "hit": false,
      "t": 62625,
      "d": 375,
      "v": 65
    },
    {
      "midi": 67,
      "hit": false,
      "t": 63000,
      "d": 750,
      "v": 92
    },
    {
      "midi": 55,
      "hit": false,
      "t": 63000,
      "d": 750,
      "v": 76
    },
    {
      "midi": 69,
      "hit": false,
      "t": 63750,
      "d": 750,
      "v": 89
    },
    {
      "midi": 57,
      "hit": false,
      "t": 63750,
      "d": 750,
      "v": 80
    },
    {
      "midi": 71,
      "hit": false,
      "t": 64500,
      "d": 750,
      "v": 87
    },
    {
      "midi": 59,
      "hit": false,
      "t": 64500,
      "d": 750,
      "v": 76
    },
    {
      "midi": 73,
      "hit": false,
      "t": 65250,
      "d": 375,
      "v": 57
    },
    {
      "midi": 61,
      "hit": false,
      "t": 65250,
      "d": 375,
      "v": 51
    },
    {
      "midi": 69,
      "hit": false,
      "t": 65625,
      "d": 375,
      "v": 78
    },
    {
      "midi": 57,
      "hit": false,
      "t": 65625,
      "d": 375,
      "v": 72
    },
    {
      "midi": 71,
      "hit": false,
      "t": 66000,
      "d": 1500,
      "v": 89
    },
    {
      "midi": 59,
      "hit": false,
      "t": 66000,
      "d": 1500,
      "v": 84
    },
    {
      "midi": 63,
      "hit": false,
      "t": 67500,
      "d": 1875,
      "v": 55
    },
    {
      "midi": 66,
      "hit": false,
      "t": 67500,
      "d": 1875,
      "v": 81
    },
    {
      "midi": 71,
      "hit": false,
      "t": 67500,
      "d": 1875,
      "v": 92
    },
    {
      "midi": 52,
      "hit": false,
      "t": 69000,
      "d": 750,
      "v": 72
    },
    {
      "midi": 55,
      "hit": false,
      "t": 69000,
      "d": 750,
      "v": 82
    },
    {
      "midi": 67,
      "hit": false,
      "t": 69375,
      "d": 187.5,
      "v": 76
    },
    {
      "midi": 69,
      "hit": false,
      "t": 69562.5,
      "d": 187.5,
      "v": 74
    },
    {
      "midi": 71,
      "hit": false,
      "t": 69750,
      "d": 375,
      "v": 80
    },
    {
      "midi": 69,
      "hit": false,
      "t": 70125,
      "d": 187.5,
      "v": 71
    },
    {
      "midi": 67,
      "hit": false,
      "t": 70312.5,
      "d": 187.5,
      "v": 66
    },
    {
      "midi": 64,
      "hit": false,
      "t": 70500,
      "d": 562.5,
      "v": 97
    },
    {
      "midi": 52,
      "hit": false,
      "t": 70875,
      "d": 1125,
      "v": 67
    },
    {
      "midi": 55,
      "hit": false,
      "t": 70875,
      "d": 1125,
      "v": 74
    },
    {
      "midi": 64,
      "hit": false,
      "t": 71062.5,
      "d": 187.5,
      "v": 64
    },
    {
      "midi": 64,
      "hit": false,
      "t": 71250,
      "d": 187.5,
      "v": 97
    },
    {
      "midi": 64,
      "hit": false,
      "t": 71437.5,
      "d": 187.5,
      "v": 95
    },
    {
      "midi": 64,
      "hit": false,
      "t": 71625,
      "d": 187.5,
      "v": 89
    },
    {
      "midi": 64,
      "hit": false,
      "t": 71812.5,
      "d": 187.5,
      "v": 87
    },
    {
      "midi": 64,
      "hit": false,
      "t": 72000,
      "d": 187.5,
      "v": 108
    },
    {
      "midi": 50,
      "hit": false,
      "t": 72000,
      "d": 2250,
      "v": 74
    },
    {
      "midi": 52,
      "hit": false,
      "t": 72000,
      "d": 2250,
      "v": 76
    },
    {
      "midi": 55,
      "hit": false,
      "t": 72000,
      "d": 2250,
      "v": 80
    },
    {
      "midi": 64,
      "hit": false,
      "t": 72187.5,
      "d": 187.5,
      "v": 82
    },
    {
      "midi": 67,
      "hit": false,
      "t": 72375,
      "d": 187.5,
      "v": 80
    },
    {
      "midi": 69,
      "hit": false,
      "t": 72562.5,
      "d": 187.5,
      "v": 76
    },
    {
      "midi": 71,
      "hit": false,
      "t": 72750,
      "d": 375,
      "v": 82
    },
    {
      "midi": 69,
      "hit": false,
      "t": 73125,
      "d": 187.5,
      "v": 67
    },
    {
      "midi": 67,
      "hit": false,
      "t": 73312.5,
      "d": 187.5,
      "v": 87
    },
    {
      "midi": 64,
      "hit": false,
      "t": 73500,
      "d": 375,
      "v": 74
    },
    {
      "midi": 64,
      "hit": false,
      "t": 73875,
      "d": 187.5,
      "v": 82
    },
    {
      "midi": 64,
      "hit": false,
      "t": 74062.5,
      "d": 187.5,
      "v": 76
    },
    {
      "midi": 64,
      "hit": false,
      "t": 74250,
      "d": 375,
      "v": 92
    },
    {
      "midi": 64,
      "hit": false,
      "t": 74625,
      "d": 187.5,
      "v": 76
    },
    {
      "midi": 64,
      "hit": false,
      "t": 74812.5,
      "d": 187.5,
      "v": 72
    },
    {
      "midi": 64,
      "hit": false,
      "t": 75000,
      "d": 750,
      "v": 82
    },
    {
      "midi": 67,
      "hit": false,
      "t": 75000,
      "d": 750,
      "v": 89
    },
    {
      "midi": 48,
      "hit": false,
      "t": 75000,
      "d": 375,
      "v": 80
    },
    {
      "midi": 55,
      "hit": false,
      "t": 75375,
      "d": 750,
      "v": 80
    },
    {
      "midi": 64,
      "hit": false,
      "t": 75750,
      "d": 375,
      "v": 64
    },
    {
      "midi": 67,
      "hit": false,
      "t": 75750,
      "d": 375,
      "v": 68
    },
    {
      "midi": 60,
      "hit": false,
      "t": 76125,
      "d": 375,
      "v": 84
    },
    {
      "midi": 64,
      "hit": false,
      "t": 76125,
      "d": 375,
      "v": 84
    },
    {
      "midi": 55,
      "hit": false,
      "t": 76125,
      "d": 375,
      "v": 87
    },
    {
      "midi": 59,
      "hit": false,
      "t": 76500,
      "d": 750,
      "v": 76
    },
    {
      "midi": 62,
      "hit": false,
      "t": 76500,
      "d": 750,
      "v": 84
    },
    {
      "midi": 53,
      "hit": false,
      "t": 76500,
      "d": 375,
      "v": 61
    },
    {
      "midi": 57,
      "hit": false,
      "t": 76500,
      "d": 375,
      "v": 62
    },
    {
      "midi": 53,
      "hit": false,
      "t": 76875,
      "d": 750,
      "v": 71
    },
    {
      "midi": 57,
      "hit": false,
      "t": 76875,
      "d": 750,
      "v": 69
    },
    {
      "midi": 59,
      "hit": false,
      "t": 77250,
      "d": 750,
      "v": 84
    },
    {
      "midi": 62,
      "hit": false,
      "t": 77250,
      "d": 750,
      "v": 101
    },
    {
      "midi": 53,
      "hit": false,
      "t": 77625,
      "d": 375,
      "v": 66
    },
    {
      "midi": 57,
      "hit": false,
      "t": 77625,
      "d": 375,
      "v": 69
    },
    {
      "midi": 64,
      "hit": false,
      "t": 78000,
      "d": 375,
      "v": 84
    },
    {
      "midi": 67,
      "hit": false,
      "t": 78000,
      "d": 375,
      "v": 92
    },
    {
      "midi": 48,
      "hit": false,
      "t": 78000,
      "d": 375,
      "v": 53
    },
    {
      "midi": 67,
      "hit": false,
      "t": 78375,
      "d": 187.5,
      "v": 82
    },
    {
      "midi": 55,
      "hit": false,
      "t": 78375,
      "d": 375,
      "v": 87
    },
    {
      "midi": 67,
      "hit": false,
      "t": 78562.5,
      "d": 187.5,
      "v": 104
    },
    {
      "midi": 67,
      "hit": false,
      "t": 78750,
      "d": 562.5,
      "v": 95
    },
    {
      "midi": 55,
      "hit": false,
      "t": 79125,
      "d": 375,
      "v": 65
    },
    {
      "midi": 64,
      "hit": false,
      "t": 79312.5,
      "d": 187.5,
      "v": 84
    },
    {
      "midi": 62,
      "hit": false,
      "t": 79500,
      "d": 375,
      "v": 97
    },
    {
      "midi": 53,
      "hit": false,
      "t": 79500,
      "d": 1500,
      "v": 76
    },
    {
      "midi": 57,
      "hit": false,
      "t": 79500,
      "d": 1500,
      "v": 82
    },
    {
      "midi": 59,
      "hit": false,
      "t": 79500,
      "d": 1500,
      "v": 74
    },
    {
      "midi": 62,
      "hit": false,
      "t": 79875,
      "d": 187.5,
      "v": 82
    },
    {
      "midi": 62,
      "hit": false,
      "t": 80062.5,
      "d": 187.5,
      "v": 80
    },
    {
      "midi": 62,
      "hit": false,
      "t": 80250,
      "d": 187.5,
      "v": 95
    },
    {
      "midi": 62,
      "hit": false,
      "t": 80437.5,
      "d": 187.5,
      "v": 84
    },
    {
      "midi": 62,
      "hit": false,
      "t": 80625,
      "d": 187.5,
      "v": 87
    },
    {
      "midi": 62,
      "hit": false,
      "t": 80812.5,
      "d": 187.5,
      "v": 84
    },
    {
      "midi": 64,
      "hit": false,
      "t": 81000,
      "d": 937.5,
      "v": 92
    },
    {
      "midi": 48,
      "hit": false,
      "t": 81000,
      "d": 375,
      "v": 72
    },
    {
      "midi": 55,
      "hit": false,
      "t": 81375,
      "d": 750,
      "v": 95
    },
    {
      "midi": 64,
      "hit": false,
      "t": 81937.5,
      "d": 187.5,
      "v": 89
    },
    {
      "midi": 64,
      "hit": false,
      "t": 82125,
      "d": 187.5,
      "v": 92
    },
    {
      "midi": 55,
      "hit": false,
      "t": 82125,
      "d": 375,
      "v": 95
    },
    {
      "midi": 64,
      "hit": false,
      "t": 82312.5,
      "d": 187.5,
      "v": 82
    },
    {
      "midi": 64,
      "hit": false,
      "t": 82500,
      "d": 375,
      "v": 92
    },
    {
      "midi": 67,
      "hit": false,
      "t": 82500,
      "d": 375,
      "v": 84
    },
    {
      "midi": 48,
      "hit": false,
      "t": 82500,
      "d": 375,
      "v": 80
    },
    {
      "midi": 64,
      "hit": false,
      "t": 82875,
      "d": 375,
      "v": 80
    },
    {
      "midi": 67,
      "hit": false,
      "t": 82875,
      "d": 375,
      "v": 84
    },
    {
      "midi": 55,
      "hit": false,
      "t": 82875,
      "d": 375,
      "v": 84
    },
    {
      "midi": 67,
      "hit": false,
      "t": 83625,
      "d": 187.5,
      "v": 92
    },
    {
      "midi": 55,
      "hit": false,
      "t": 83625,
      "d": 375,
      "v": 78
    },
    {
      "midi": 67,
      "hit": false,
      "t": 83812.5,
      "d": 187.5,
      "v": 92
    },
    {
      "midi": 72,
      "hit": false,
      "t": 84000,
      "d": 375,
      "v": 95
    },
    {
      "midi": 60,
      "hit": false,
      "t": 84000,
      "d": 1500,
      "v": 82
    },
    {
      "midi": 72,
      "hit": false,
      "t": 84375,
      "d": 187.5,
      "v": 61
    },
    {
      "midi": 72,
      "hit": false,
      "t": 84562.5,
      "d": 187.5,
      "v": 89
    },
    {
      "midi": 72,
      "hit": false,
      "t": 84750,
      "d": 562.5,
      "v": 108
    },
    {
      "midi": 72,
      "hit": false,
      "t": 85312.5,
      "d": 187.5,
      "v": 84
    },
    {
      "midi": 65,
      "hit": false,
      "t": 85500,
      "d": 375,
      "v": 89
    },
    {
      "midi": 77,
      "hit": false,
      "t": 85500,
      "d": 375,
      "v": 97
    },
    {
      "midi": 65,
      "hit": false,
      "t": 85500,
      "d": 375,
      "v": 89
    },
    {
      "midi": 69,
      "hit": false,
      "t": 85875,
      "d": 750,
      "v": 82
    },
    {
      "midi": 72,
      "hit": false,
      "t": 85875,
      "d": 750,
      "v": 60
    },
    {
      "midi": 69,
      "hit": false,
      "t": 85875,
      "d": 1875,
      "v": 82
    },
    {
      "midi": 72,
      "hit": false,
      "t": 85875,
      "d": 1875,
      "v": 60
    },
    {
      "midi": 74,
      "hit": false,
      "t": 86625,
      "d": 375,
      "v": 74
    },
    {
      "midi": 77,
      "hit": false,
      "t": 87000,
      "d": 375,
      "v": 76
    },
    {
      "midi": 74,
      "hit": false,
      "t": 87375,
      "d": 375,
      "v": 74
    },
    {
      "midi": 64,
      "hit": false,
      "t": 87750,
      "d": 375,
      "v": 78
    },
    {
      "midi": 76,
      "hit": false,
      "t": 87750,
      "d": 375,
      "v": 89
    },
    {
      "midi": 64,
      "hit": false,
      "t": 87750,
      "d": 375,
      "v": 78
    },
    {
      "midi": 67,
      "hit": false,
      "t": 88125,
      "d": 750,
      "v": 66
    },
    {
      "midi": 72,
      "hit": false,
      "t": 88125,
      "d": 750,
      "v": 57
    },
    {
      "midi": 67,
      "hit": false,
      "t": 88125,
      "d": 1125,
      "v": 66
    },
    {
      "midi": 72,
      "hit": false,
      "t": 88125,
      "d": 1125,
      "v": 57
    },
    {
      "midi": 72,
      "hit": false,
      "t": 88875,
      "d": 187.5,
      "v": 69
    },
    {
      "midi": 74,
      "hit": false,
      "t": 89062.5,
      "d": 187.5,
      "v": 64
    },
    {
      "midi": 64,
      "hit": false,
      "t": 89250,
      "d": 375,
      "v": 74
    },
    {
      "midi": 67,
      "hit": false,
      "t": 89250,
      "d": 375,
      "v": 69
    },
    {
      "midi": 76,
      "hit": false,
      "t": 89250,
      "d": 375,
      "v": 71
    },
    {
      "midi": 64,
      "hit": false,
      "t": 89250,
      "d": 750,
      "v": 74
    },
    {
      "midi": 67,
      "hit": false,
      "t": 89250,
      "d": 750,
      "v": 69
    },
    {
      "midi": 72,
      "hit": false,
      "t": 89625,
      "d": 375,
      "v": 65
    },
    {
      "midi": 74,
      "hit": false,
      "t": 90000,
      "d": 187.5,
      "v": 65
    },
    {
      "midi": 62,
      "hit": false,
      "t": 90000,
      "d": 375,
      "v": 78
    },
    {
      "midi": 74,
      "hit": false,
      "t": 90187.5,
      "d": 187.5,
      "v": 122
    },
    {
      "midi": 74,
      "hit": false,
      "t": 90375,
      "d": 187.5,
      "v": 68
    },
    {
      "midi": 65,
      "hit": false,
      "t": 90375,
      "d": 1125,
      "v": 80
    },
    {
      "midi": 69,
      "hit": false,
      "t": 90375,
      "d": 1125,
      "v": 59
    },
    {
      "midi": 74,
      "hit": false,
      "t": 90562.5,
      "d": 187.5,
      "v": 78
    },
    {
      "midi": 74,
      "hit": false,
      "t": 90750,
      "d": 375,
      "v": 95
    },
    {
      "midi": 69,
      "hit": false,
      "t": 91125,
      "d": 375,
      "v": 72
    },
    {
      "midi": 62,
      "hit": false,
      "t": 91500,
      "d": 375,
      "v": 59
    },
    {
      "midi": 65,
      "hit": false,
      "t": 91500,
      "d": 375,
      "v": 76
    },
    {
      "midi": 74,
      "hit": false,
      "t": 91500,
      "d": 375,
      "v": 74
    },
    {
      "midi": 62,
      "hit": false,
      "t": 91500,
      "d": 750,
      "v": 59
    },
    {
      "midi": 65,
      "hit": false,
      "t": 91500,
      "d": 750,
      "v": 76
    },
    {
      "midi": 69,
      "hit": false,
      "t": 91875,
      "d": 375,
      "v": 66
    },
    {
      "midi": 60,
      "hit": false,
      "t": 92250,
      "d": 375,
      "v": 50
    },
    {
      "midi": 72,
      "hit": false,
      "t": 92250,
      "d": 375,
      "v": 71
    },
    {
      "midi": 60,
      "hit": false,
      "t": 92250,
      "d": 375,
      "v": 50
    },
    {
      "midi": 72,
      "hit": false,
      "t": 92625,
      "d": 187.5,
      "v": 55
    },
    {
      "midi": 64,
      "hit": false,
      "t": 92625,
      "d": 1875,
      "v": 74
    },
    {
      "midi": 67,
      "hit": false,
      "t": 92625,
      "d": 1875,
      "v": 50
    },
    {
      "midi": 72,
      "hit": false,
      "t": 92812.5,
      "d": 187.5,
      "v": 64
    },
    {
      "midi": 72,
      "hit": false,
      "t": 93000,
      "d": 750,
      "v": 92
    },
    {
      "midi": 74,
      "hit": false,
      "t": 93750,
      "d": 375,
      "v": 69
    },
    {
      "midi": 72,
      "hit": false,
      "t": 94125,
      "d": 375,
      "v": 50
    },
    {
      "midi": 67,
      "hit": false,
      "t": 94500,
      "d": 187.5,
      "v": 74
    },
    {
      "midi": 55,
      "hit": false,
      "t": 94500,
      "d": 375,
      "v": 59
    },
    {
      "midi": 67,
      "hit": false,
      "t": 94687.5,
      "d": 187.5,
      "v": 72
    },
    {
      "midi": 67,
      "hit": false,
      "t": 94875,
      "d": 187.5,
      "v": 68
    },
    {
      "midi": 58,
      "hit": false,
      "t": 94875,
      "d": 1875,
      "v": 82
    },
    {
      "midi": 62,
      "hit": false,
      "t": 94875,
      "d": 1875,
      "v": 62
    },
    {
      "midi": 67,
      "hit": false,
      "t": 95062.5,
      "d": 187.5,
      "v": 84
    },
    {
      "midi": 67,
      "hit": false,
      "t": 95250,
      "d": 375,
      "v": 97
    },
    {
      "midi": 64,
      "hit": false,
      "t": 95625,
      "d": 187.5,
      "v": 66
    },
    {
      "midi": 65,
      "hit": false,
      "t": 95812.5,
      "d": 187.5,
      "v": 71
    },
    {
      "midi": 67,
      "hit": false,
      "t": 96000,
      "d": 187.5,
      "v": 71
    },
    {
      "midi": 67,
      "hit": false,
      "t": 96187.5,
      "d": 187.5,
      "v": 76
    },
    {
      "midi": 64,
      "hit": false,
      "t": 96375,
      "d": 187.5,
      "v": 67
    },
    {
      "midi": 64,
      "hit": false,
      "t": 96562.5,
      "d": 187.5,
      "v": 71
    },
    {
      "midi": 53,
      "hit": false,
      "t": 96750,
      "d": 375,
      "v": 66
    },
    {
      "midi": 69,
      "hit": false,
      "t": 96750,
      "d": 375,
      "v": 84
    },
    {
      "midi": 53,
      "hit": false,
      "t": 96750,
      "d": 375,
      "v": 66
    },
    {
      "midi": 57,
      "hit": false,
      "t": 97125,
      "d": 375,
      "v": 76
    },
    {
      "midi": 60,
      "hit": false,
      "t": 97125,
      "d": 375,
      "v": 51
    },
    {
      "midi": 57,
      "hit": false,
      "t": 97125,
      "d": 1875,
      "v": 76
    },
    {
      "midi": 60,
      "hit": false,
      "t": 97125,
      "d": 1875,
      "v": 51
    },
    {
      "midi": 69,
      "hit": false,
      "t": 97500,
      "d": 750,
      "v": 60
    },
    {
      "midi": 67,
      "hit": false,
      "t": 98250,
      "d": 375,
      "v": 80
    },
    {
      "midi": 65,
      "hit": false,
      "t": 98625,
      "d": 375,
      "v": 76
    },
    {
      "midi": 60,
      "hit": false,
      "t": 99000,
      "d": 187.5,
      "v": 84
    },
    {
      "midi": 52,
      "hit": false,
      "t": 99000,
      "d": 1500,
      "v": 64
    },
    {
      "midi": 55,
      "hit": false,
      "t": 99000,
      "d": 1500,
      "v": 65
    },
    {
      "midi": 58,
      "hit": false,
      "t": 99000,
      "d": 1500,
      "v": 60
    },
    {
      "midi": 60,
      "hit": false,
      "t": 99187.5,
      "d": 187.5,
      "v": 80
    },
    {
      "midi": 60,
      "hit": false,
      "t": 99375,
      "d": 187.5,
      "v": 80
    },
    {
      "midi": 60,
      "hit": false,
      "t": 99562.5,
      "d": 187.5,
      "v": 2
    },
    {
      "midi": 60,
      "hit": false,
      "t": 99750,
      "d": 375,
      "v": 61
    },
    {
      "midi": 62,
      "hit": false,
      "t": 100125,
      "d": 375,
      "v": 61
    },
    {
      "midi": 48,
      "hit": false,
      "t": 100500,
      "d": 375,
      "v": 64
    },
    {
      "midi": 58,
      "hit": false,
      "t": 100500,
      "d": 375,
      "v": 82
    },
    {
      "midi": 64,
      "hit": false,
      "t": 100500,
      "d": 375,
      "v": 92
    },
    {
      "midi": 48,
      "hit": false,
      "t": 100500,
      "d": 750,
      "v": 64
    },
    {
      "midi": 58,
      "hit": false,
      "t": 100500,
      "d": 750,
      "v": 82
    },
    {
      "midi": 60,
      "hit": false,
      "t": 100875,
      "d": 375,
      "v": 80
    },
    {
      "midi": 53,
      "hit": false,
      "t": 101250,
      "d": 375,
      "v": 67
    },
    {
      "midi": 65,
      "hit": false,
      "t": 101250,
      "d": 375,
      "v": 72
    },
    {
      "midi": 53,
      "hit": false,
      "t": 101250,
      "d": 375,
      "v": 67
    },
    {
      "midi": 57,
      "hit": false,
      "t": 101625,
      "d": 375,
      "v": 84
    },
    {
      "midi": 60,
      "hit": false,
      "t": 101625,
      "d": 375,
      "v": 59
    },
    {
      "midi": 57,
      "hit": false,
      "t": 101625,
      "d": 750,
      "v": 84
    },
    {
      "midi": 60,
      "hit": false,
      "t": 101625,
      "d": 750,
      "v": 59
    },
    {
      "midi": 65,
      "hit": false,
      "t": 102000,
      "d": 375,
      "v": 61
    },
    {
      "midi": 57,
      "hit": false,
      "t": 102375,
      "d": 750,
      "v": 82
    },
    {
      "midi": 60,
      "hit": false,
      "t": 102375,
      "d": 750,
      "v": 68
    },
    {
      "midi": 57,
      "hit": false,
      "t": 102375,
      "d": 750,
      "v": 82
    },
    {
      "midi": 60,
      "hit": false,
      "t": 102375,
      "d": 750,
      "v": 68
    },
    {
      "midi": 57,
      "hit": false,
      "t": 103125,
      "d": 375,
      "v": 78
    },
    {
      "midi": 60,
      "hit": false,
      "t": 103125,
      "d": 375,
      "v": 61
    },
    {
      "midi": 57,
      "hit": false,
      "t": 103125,
      "d": 375,
      "v": 78
    },
    {
      "midi": 60,
      "hit": false,
      "t": 103125,
      "d": 375,
      "v": 61
    },
    {
      "midi": 50,
      "hit": false,
      "t": 103500,
      "d": 375,
      "v": 64
    },
    {
      "midi": 57,
      "hit": false,
      "t": 103500,
      "d": 375,
      "v": 95
    },
    {
      "midi": 50,
      "hit": false,
      "t": 103500,
      "d": 2250,
      "v": 64
    },
    {
      "midi": 57,
      "hit": false,
      "t": 103500,
      "d": 2250,
      "v": 95
    },
    {
      "midi": 65,
      "hit": false,
      "t": 103875,
      "d": 187.5,
      "v": 72
    },
    {
      "midi": 67,
      "hit": false,
      "t": 104062.5,
      "d": 187.5,
      "v": 65
    },
    {
      "midi": 69,
      "hit": false,
      "t": 104250,
      "d": 375,
      "v": 84
    },
    {
      "midi": 67,
      "hit": false,
      "t": 104625,
      "d": 187.5,
      "v": 55
    },
    {
      "midi": 65,
      "hit": false,
      "t": 104812.5,
      "d": 187.5,
      "v": 66
    },
    {
      "midi": 69,
      "hit": false,
      "t": 105000,
      "d": 375,
      "v": 64
    },
    {
      "midi": 69,
      "hit": false,
      "t": 105375,
      "d": 187.5,
      "v": 61
    },
    {
      "midi": 69,
      "hit": false,
      "t": 105562.5,
      "d": 187.5,
      "v": 74
    },
    {
      "midi": 57,
      "hit": false,
      "t": 105750,
      "d": 375,
      "v": 80
    },
    {
      "midi": 72,
      "hit": false,
      "t": 105750,
      "d": 375,
      "v": 84
    },
    {
      "midi": 57,
      "hit": false,
      "t": 105750,
      "d": 375,
      "v": 80
    },
    {
      "midi": 60,
      "hit": false,
      "t": 106125,
      "d": 375,
      "v": 74
    },
    {
      "midi": 64,
      "hit": false,
      "t": 106125,
      "d": 375,
      "v": 59
    },
    {
      "midi": 60,
      "hit": false,
      "t": 106125,
      "d": 750,
      "v": 74
    },
    {
      "midi": 64,
      "hit": false,
      "t": 106125,
      "d": 750,
      "v": 59
    },
    {
      "midi": 72,
      "hit": false,
      "t": 106500,
      "d": 375,
      "v": 74
    },
    {
      "midi": 57,
      "hit": false,
      "t": 106875,
      "d": 375,
      "v": 68
    },
    {
      "midi": 57,
      "hit": false,
      "t": 106875,
      "d": 375,
      "v": 68
    },
    {
      "midi": 60,
      "hit": false,
      "t": 107250,
      "d": 375,
      "v": 76
    },
    {
      "midi": 60,
      "hit": false,
      "t": 107250,
      "d": 375,
      "v": 76
    },
    {
      "midi": 64,
      "hit": false,
      "t": 107625,
      "d": 375,
      "v": 63
    },
    {
      "midi": 64,
      "hit": false,
      "t": 107625,
      "d": 375,
      "v": 63
    },
    {
      "midi": 57,
      "hit": false,
      "t": 108000,
      "d": 375,
      "v": 78
    },
    {
      "midi": 72,
      "hit": false,
      "t": 108000,
      "d": 375,
      "v": 84
    },
    {
      "midi": 76,
      "hit": false,
      "t": 108000,
      "d": 375,
      "v": 72
    },
    {
      "midi": 57,
      "hit": false,
      "t": 108000,
      "d": 375,
      "v": 78
    },
    {
      "midi": 64,
      "hit": false,
      "t": 108375,
      "d": 375,
      "v": 66
    },
    {
      "midi": 64,
      "hit": false,
      "t": 108375,
      "d": 1125,
      "v": 66
    },
    {
      "midi": 72,
      "hit": false,
      "t": 108750,
      "d": 562.5,
      "v": 71
    },
    {
      "midi": 76,
      "hit": false,
      "t": 108750,
      "d": 562.5,
      "v": 80
    },
    {
      "midi": 76,
      "hit": false,
      "t": 109312.5,
      "d": 187.5,
      "v": 89
    },
    {
      "midi": 62,
      "hit": false,
      "t": 109500,
      "d": 562.5,
      "v": 74
    },
    {
      "midi": 69,
      "hit": false,
      "t": 109500,
      "d": 562.5,
      "v": 84
    },
    {
      "midi": 78,
      "hit": false,
      "t": 109500,
      "d": 562.5,
      "v": 96
    },
    {
      "midi": 62,
      "hit": false,
      "t": 109500,
      "d": 750,
      "v": 74
    },
    {
      "midi": 74,
      "hit": false,
      "t": 110062.5,
      "d": 187.5,
      "v": 92
    },
    {
      "midi": 57,
      "hit": false,
      "t": 110250,
      "d": 375,
      "v": 71
    },
    {
      "midi": 72,
      "hit": false,
      "t": 110250,
      "d": 375,
      "v": 95
    },
    {
      "midi": 76,
      "hit": false,
      "t": 110250,
      "d": 375,
      "v": 95
    },
    {
      "midi": 57,
      "hit": false,
      "t": 110250,
      "d": 375,
      "v": 71
    },
    {
      "midi": 64,
      "hit": false,
      "t": 110625,
      "d": 750,
      "v": 64
    },
    {
      "midi": 64,
      "hit": false,
      "t": 110625,
      "d": 1125,
      "v": 64
    },
    {
      "midi": 76,
      "hit": false,
      "t": 111375,
      "d": 187.5,
      "v": 92
    },
    {
      "midi": 76,
      "hit": false,
      "t": 111562.5,
      "d": 187.5,
      "v": 82
    },
    {
      "midi": 62,
      "hit": false,
      "t": 111750,
      "d": 562.5,
      "v": 89
    },
    {
      "midi": 69,
      "hit": false,
      "t": 111750,
      "d": 562.5,
      "v": 76
    },
    {
      "midi": 78,
      "hit": false,
      "t": 111750,
      "d": 562.5,
      "v": 65
    },
    {
      "midi": 62,
      "hit": false,
      "t": 111750,
      "d": 750,
      "v": 89
    },
    {
      "midi": 74,
      "hit": false,
      "t": 112312.5,
      "d": 187.5,
      "v": 87
    },
    {
      "midi": 57,
      "hit": false,
      "t": 112500,
      "d": 375,
      "v": 72
    },
    {
      "midi": 72,
      "hit": false,
      "t": 112500,
      "d": 375,
      "v": 84
    },
    {
      "midi": 76,
      "hit": false,
      "t": 112500,
      "d": 375,
      "v": 66
    },
    {
      "midi": 57,
      "hit": false,
      "t": 112500,
      "d": 375,
      "v": 72
    },
    {
      "midi": 60,
      "hit": false,
      "t": 112875,
      "d": 375,
      "v": 67
    },
    {
      "midi": 60,
      "hit": false,
      "t": 112875,
      "d": 375,
      "v": 67
    },
    {
      "midi": 64,
      "hit": false,
      "t": 113250,
      "d": 375,
      "v": 65
    },
    {
      "midi": 64,
      "hit": false,
      "t": 113250,
      "d": 375,
      "v": 65
    },
    {
      "midi": 69,
      "hit": false,
      "t": 113625,
      "d": 375,
      "v": 69
    },
    {
      "midi": 69,
      "hit": false,
      "t": 113625,
      "d": 375,
      "v": 69
    },
    {
      "midi": 67,
      "hit": false,
      "t": 114000,
      "d": 375,
      "v": 89
    },
    {
      "midi": 70,
      "hit": false,
      "t": 114000,
      "d": 375,
      "v": 76
    },
    {
      "midi": 67,
      "hit": false,
      "t": 114000,
      "d": 750,
      "v": 89
    },
    {
      "midi": 70,
      "hit": false,
      "t": 114000,
      "d": 750,
      "v": 76
    },
    {
      "midi": 72,
      "hit": false,
      "t": 114375,
      "d": 375,
      "v": 74
    },
    {
      "midi": 65,
      "hit": false,
      "t": 114750,
      "d": 375,
      "v": 61
    },
    {
      "midi": 69,
      "hit": false,
      "t": 114750,
      "d": 375,
      "v": 66
    },
    {
      "midi": 72,
      "hit": false,
      "t": 114750,
      "d": 375,
      "v": 69
    },
    {
      "midi": 77,
      "hit": false,
      "t": 114750,
      "d": 375,
      "v": 95
    },
    {
      "midi": 81,
      "hit": false,
      "t": 114750,
      "d": 375,
      "v": 84
    },
    {
      "midi": 65,
      "hit": false,
      "t": 114750,
      "d": 375,
      "v": 61
    },
    {
      "midi": 69,
      "hit": false,
      "t": 114750,
      "d": 375,
      "v": 66
    },
    {
      "midi": 72,
      "hit": false,
      "t": 114750,
      "d": 375,
      "v": 69
    },
    {
      "midi": 65,
      "hit": false,
      "t": 115125,
      "d": 750,
      "v": 89
    },
    {
      "midi": 69,
      "hit": false,
      "t": 115125,
      "d": 750,
      "v": 80
    },
    {
      "midi": 72,
      "hit": false,
      "t": 115125,
      "d": 750,
      "v": 76
    },
    {
      "midi": 65,
      "hit": false,
      "t": 115125,
      "d": 1875,
      "v": 89
    },
    {
      "midi": 69,
      "hit": false,
      "t": 115125,
      "d": 1875,
      "v": 80
    },
    {
      "midi": 72,
      "hit": false,
      "t": 115125,
      "d": 1875,
      "v": 76
    },
    {
      "midi": 74,
      "hit": false,
      "t": 115875,
      "d": 375,
      "v": 72
    },
    {
      "midi": 77,
      "hit": false,
      "t": 116250,
      "d": 375,
      "v": 76
    },
    {
      "midi": 81,
      "hit": false,
      "t": 116250,
      "d": 375,
      "v": 66
    },
    {
      "midi": 74,
      "hit": false,
      "t": 116625,
      "d": 375,
      "v": 61
    },
    {
      "midi": 77,
      "hit": false,
      "t": 117000,
      "d": 375,
      "v": 87
    },
    {
      "midi": 65,
      "hit": false,
      "t": 117375,
      "d": 750,
      "v": 76
    },
    {
      "midi": 69,
      "hit": false,
      "t": 117375,
      "d": 750,
      "v": 71
    },
    {
      "midi": 72,
      "hit": false,
      "t": 117375,
      "d": 750,
      "v": 64
    },
    {
      "midi": 65,
      "hit": false,
      "t": 117375,
      "d": 1125,
      "v": 76
    },
    {
      "midi": 69,
      "hit": false,
      "t": 117375,
      "d": 1125,
      "v": 71
    },
    {
      "midi": 72,
      "hit": false,
      "t": 117375,
      "d": 1125,
      "v": 64
    },
    {
      "midi": 74,
      "hit": false,
      "t": 118125,
      "d": 375,
      "v": 65
    },
    {
      "midi": 65,
      "hit": false,
      "t": 118500,
      "d": 375,
      "v": 59
    },
    {
      "midi": 69,
      "hit": false,
      "t": 118500,
      "d": 375,
      "v": 56
    },
    {
      "midi": 72,
      "hit": false,
      "t": 118500,
      "d": 375,
      "v": 51
    },
    {
      "midi": 77,
      "hit": false,
      "t": 118500,
      "d": 375,
      "v": 65
    },
    {
      "midi": 65,
      "hit": false,
      "t": 118500,
      "d": 750,
      "v": 59
    },
    {
      "midi": 69,
      "hit": false,
      "t": 118500,
      "d": 750,
      "v": 56
    },
    {
      "midi": 72,
      "hit": false,
      "t": 118500,
      "d": 750,
      "v": 51
    },
    {
      "midi": 74,
      "hit": false,
      "t": 118875,
      "d": 375,
      "v": 62
    },
    {
      "midi": 77,
      "hit": false,
      "t": 119250,
      "d": 2250,
      "v": 56
    }
  ]
}