{
  "jsonPath": "Soundtracks/Video Game Music/Columns/columns-clothos.json",
  "path": "Soundtracks\\Video Game Music\\Columns\\Columns_Clothos.mid",
  "name": "Columns_Clothos",
  "difficulty": "Advanced",
  "bpm": 115.00002875000719,
  "notes": [
    {
      "midi": 69,
      "hit": false,
      "t": 0,
      "d": 260.86949999999996,
      "v": 127
    },
    {
      "midi": 64,
      "hit": false,
      "t": 260.86949999999996,
      "d": 260.86949999999996,
      "v": 127
    },
    {
      "midi": 72,
      "hit": false,
      "t": 521.7389999999999,
      "d": 260.8694999999999,
      "v": 127
    },
    {
      "midi": 64,
      "hit": false,
      "t": 782.6084999999998,
      "d": 260.8695,
      "v": 127
    },
    {
      "midi": 71,
      "hit": false,
      "t": 1043.4779999999998,
      "d": 260.8695,
      "v": 127
    },
    {
      "midi": 64,
      "hit": false,
      "t": 1304.3474999999999,
      "d": 260.8695,
      "v": 127
    },
    {
      "midi": 69,
      "hit": false,
      "t": 1565.2169999999999,
      "d": 260.8695,
      "v": 127
    },
    {
      "midi": 64,
      "hit": false,
      "t": 1826.0865,
      "d": 260.8694999999998,
      "v": 127
    },
    {
      "midi": 68,
      "hit": false,
      "t": 2086.9559999999997,
      "d": 260.8694999999998,
      "v": 127
    },
    {
      "midi": 64,
      "hit": false,
      "t": 2347.8254999999995,
      "d": 260.8694999999998,
      "v": 127
    },
    {
      "midi": 71,
      "hit": false,
      "t": 2608.6949999999993,
      "d": 260.8694999999998,
      "v": 127
    },
    {
      "midi": 64,
      "hit": false,
      "t": 2869.564499999999,
      "d": 260.8694999999998,
      "v": 127
    },
    {
      "midi": 69,
      "hit": false,
      "t": 3130.433999999999,
      "d": 260.8694999999998,
      "v": 127
    },
    {
      "midi": 64,
      "hit": false,
      "t": 3391.3034999999986,
      "d": 260.8694999999998,
      "v": 127
    },
    {
      "midi": 68,
      "hit": false,
      "t": 3652.1729999999984,
      "d": 260.8694999999998,
      "v": 127
    },
    {
      "midi": 64,
      "hit": false,
      "t": 3913.042499999998,
      "d": 260.86950000000024,
      "v": 127
    },
    {
      "midi": 67,
      "hit": false,
      "t": 4173.911999999998,
      "d": 260.8694999999998,
      "v": 127
    },
    {
      "midi": 62,
      "hit": false,
      "t": 4434.781499999998,
      "d": 260.8694999999998,
      "v": 127
    },
    {
      "midi": 71,
      "hit": false,
      "t": 4695.650999999998,
      "d": 260.8694999999998,
      "v": 127
    },
    {
      "midi": 62,
      "hit": false,
      "t": 4956.520499999998,
      "d": 260.8694999999998,
      "v": 127
    },
    {
      "midi": 69,
      "hit": false,
      "t": 5217.389999999998,
      "d": 260.8694999999998,
      "v": 127
    },
    {
      "midi": 62,
      "hit": false,
      "t": 5478.259499999997,
      "d": 260.8694999999998,
      "v": 127
    },
    {
      "midi": 67,
      "hit": false,
      "t": 5739.128999999997,
      "d": 260.8694999999998,
      "v": 127
    },
    {
      "midi": 62,
      "hit": false,
      "t": 5999.998499999997,
      "d": 260.8694999999998,
      "v": 127
    },
    {
      "midi": 66,
      "hit": false,
      "t": 6260.867999999997,
      "d": 260.8694999999998,
      "v": 127
    },
    {
      "midi": 62,
      "hit": false,
      "t": 6521.7374999999965,
      "d": 260.8694999999998,
      "v": 127
    },
    {
      "midi": 67,
      "hit": false,
      "t": 6782.606999999996,
      "d": 260.8694999999998,
      "v": 127
    },
    {
      "midi": 62,
      "hit": false,
      "t": 7043.476499999996,
      "d": 260.8694999999998,
      "v": 127
    },
    {
      "midi": 69,
      "hit": false,
      "t": 7304.345999999996,
      "d": 260.8694999999998,
      "v": 127
    },
    {
      "midi": 62,
      "hit": false,
      "t": 7565.215499999996,
      "d": 260.8694999999998,
      "v": 127
    },
    {
      "midi": 67,
      "hit": false,
      "t": 7826.0849999999955,
      "d": 260.8694999999998,
      "v": 127
    },
    {
      "midi": 62,
      "hit": false,
      "t": 8086.954499999995,
      "d": 260.8694999999998,
      "v": 127
    },
    {
      "midi": 69,
      "hit": false,
      "t": 8347.823999999995,
      "d": 260.8695000000007,
      "v": 127
    },
    {
      "midi": 57,
      "hit": false,
      "t": 8347.823999999999,
      "d": 521.7389999999996,
      "v": 127
    },
    {
      "midi": 64,
      "hit": false,
      "t": 8608.693499999996,
      "d": 260.8695000000007,
      "v": 127
    },
    {
      "midi": 72,
      "hit": false,
      "t": 8869.562999999996,
      "d": 260.8695000000007,
      "v": 127
    },
    {
      "midi": 52,
      "hit": false,
      "t": 8869.562999999998,
      "d": 521.7389999999996,
      "v": 127
    },
    {
      "midi": 64,
      "hit": false,
      "t": 9130.432499999997,
      "d": 260.8695000000007,
      "v": 127
    },
    {
      "midi": 71,
      "hit": false,
      "t": 9391.301999999998,
      "d": 260.8695000000007,
      "v": 127
    },
    {
      "midi": 57,
      "hit": false,
      "t": 9391.301999999998,
      "d": 521.7389999999996,
      "v": 127
    },
    {
      "midi": 64,
      "hit": false,
      "t": 9652.171499999999,
      "d": 260.8695000000007,
      "v": 127
    },
    {
      "midi": 60,
      "hit": false,
      "t": 9913.040999999997,
      "d": 521.7389999999996,
      "v": 127
    },
    {
      "midi": 69,
      "hit": false,
      "t": 9913.041,
      "d": 260.8695000000007,
      "v": 127
    },
    {
      "midi": 64,
      "hit": false,
      "t": 10173.9105,
      "d": 260.8695000000007,
      "v": 127
    },
    {
      "midi": 59,
      "hit": false,
      "t": 10434.779999999997,
      "d": 521.7389999999996,
      "v": 127
    },
    {
      "midi": 74,
      "hit": false,
      "t": 10434.78,
      "d": 260.8695000000007,
      "v": 127
    },
    {
      "midi": 64,
      "hit": false,
      "t": 10695.649500000001,
      "d": 260.8695000000007,
      "v": 127
    },
    {
      "midi": 56,
      "hit": false,
      "t": 10956.518999999997,
      "d": 521.7389999999996,
      "v": 127
    },
    {
      "midi": 71,
      "hit": false,
      "t": 10956.519000000002,
      "d": 260.8695000000007,
      "v": 127
    },
    {
      "midi": 64,
      "hit": false,
      "t": 11217.388500000003,
      "d": 260.8695000000007,
      "v": 127
    },
    {
      "midi": 52,
      "hit": false,
      "t": 11478.257999999996,
      "d": 521.7389999999996,
      "v": 127
    },
    {
      "midi": 68,
      "hit": false,
      "t": 11478.258000000003,
      "d": 260.8695000000007,
      "v": 127
    },
    {
      "midi": 64,
      "hit": false,
      "t": 11739.127500000004,
      "d": 260.8695000000007,
      "v": 127
    },
    {
      "midi": 56,
      "hit": false,
      "t": 11999.996999999996,
      "d": 521.7389999999996,
      "v": 127
    },
    {
      "midi": 71,
      "hit": false,
      "t": 11999.997000000005,
      "d": 260.8695000000007,
      "v": 127
    },
    {
      "midi": 64,
      "hit": false,
      "t": 12260.866500000006,
      "d": 260.8695000000007,
      "v": 127
    },
    {
      "midi": 55,
      "hit": false,
      "t": 12521.735999999995,
      "d": 521.7389999999996,
      "v": 127
    },
    {
      "midi": 67,
      "hit": false,
      "t": 12521.736000000006,
      "d": 260.8695000000007,
      "v": 127
    },
    {
      "midi": 62,
      "hit": false,
      "t": 12782.605500000007,
      "d": 260.8695000000007,
      "v": 127
    },
    {
      "midi": 59,
      "hit": false,
      "t": 13043.474999999995,
      "d": 521.7389999999996,
      "v": 127
    },
    {
      "midi": 71,
      "hit": false,
      "t": 13043.475000000008,
      "d": 260.8695000000007,
      "v": 127
    },
    {
      "midi": 62,
      "hit": false,
      "t": 13304.344500000008,
      "d": 260.8695000000007,
      "v": 127
    },
    {
      "midi": 62,
      "hit": false,
      "t": 13565.213999999994,
      "d": 521.7389999999996,
      "v": 127
    },
    {
      "midi": 69,
      "hit": false,
      "t": 13565.214000000009,
      "d": 260.8695000000007,
      "v": 127
    },
    {
      "midi": 62,
      "hit": false,
      "t": 13826.08350000001,
      "d": 260.8695000000007,
      "v": 127
    },
    {
      "midi": 55,
      "hit": false,
      "t": 14086.952999999994,
      "d": 521.7389999999996,
      "v": 127
    },
    {
      "midi": 72,
      "hit": false,
      "t": 14086.95300000001,
      "d": 260.8695000000007,
      "v": 127
    },
    {
      "midi": 62,
      "hit": false,
      "t": 14347.822500000011,
      "d": 260.8695000000007,
      "v": 127
    },
    {
      "midi": 59,
      "hit": false,
      "t": 14608.691999999994,
      "d": 521.7389999999996,
      "v": 127
    },
    {
      "midi": 71,
      "hit": false,
      "t": 14608.692000000012,
      "d": 260.8695000000007,
      "v": 127
    },
    {
      "midi": 62,
      "hit": false,
      "t": 14869.561500000013,
      "d": 260.8695000000007,
      "v": 127
    },
    {
      "midi": 50,
      "hit": false,
      "t": 15130.430999999993,
      "d": 521.7389999999996,
      "v": 127
    },
    {
      "midi": 67,
      "hit": false,
      "t": 15130.431000000013,
      "d": 260.8695000000007,
      "v": 127
    },
    {
      "midi": 62,
      "hit": false,
      "t": 15391.300500000014,
      "d": 260.8695000000007,
      "v": 127
    },
    {
      "midi": 55,
      "hit": false,
      "t": 15652.169999999993,
      "d": 521.7389999999996,
      "v": 127
    },
    {
      "midi": 66,
      "hit": false,
      "t": 15652.170000000015,
      "d": 260.8695000000007,
      "v": 127
    },
    {
      "midi": 62,
      "hit": false,
      "t": 15913.039500000015,
      "d": 260.8695000000007,
      "v": 127
    },
    {
      "midi": 59,
      "hit": false,
      "t": 16173.908999999992,
      "d": 521.7390000000014,
      "v": 127
    },
    {
      "midi": 67,
      "hit": false,
      "t": 16173.909000000016,
      "d": 260.8694999999989,
      "v": 127
    },
    {
      "midi": 62,
      "hit": false,
      "t": 16434.778500000015,
      "d": 260.8695000000007,
      "v": 127
    },
    {
      "midi": 57,
      "hit": false,
      "t": 16695.647999999994,
      "d": 260.8695000000007,
      "v": 127
    },
    {
      "midi": 69,
      "hit": false,
      "t": 16695.648000000016,
      "d": 260.8695000000007,
      "v": 127
    },
    {
      "midi": 52,
      "hit": false,
      "t": 16956.517499999994,
      "d": 260.8695000000007,
      "v": 127
    },
    {
      "midi": 64,
      "hit": false,
      "t": 16956.517500000016,
      "d": 260.8695000000007,
      "v": 127
    },
    {
      "midi": 57,
      "hit": false,
      "t": 17217.386999999995,
      "d": 260.8695000000007,
      "v": 127
    },
    {
      "midi": 72,
      "hit": false,
      "t": 17217.387000000017,
      "d": 260.8695000000007,
      "v": 127
    },
    {
      "midi": 59,
      "hit": false,
      "t": 17478.256499999996,
      "d": 260.8695000000007,
      "v": 127
    },
    {
      "midi": 64,
      "hit": false,
      "t": 17478.256500000018,
      "d": 260.8695000000007,
      "v": 127
    },
    {
      "midi": 60,
      "hit": false,
      "t": 17739.125999999997,
      "d": 260.8695000000007,
      "v": 127
    },
    {
      "midi": 71,
      "hit": false,
      "t": 17739.12600000002,
      "d": 260.8695000000007,
      "v": 127
    },
    {
      "midi": 59,
      "hit": false,
      "t": 17999.995499999997,
      "d": 260.8695000000007,
      "v": 127
    },
    {
      "midi": 64,
      "hit": false,
      "t": 17999.99550000002,
      "d": 260.8695000000007,
      "v": 127
    },
    {
      "midi": 57,
      "hit": false,
      "t": 18260.864999999998,
      "d": 260.8695000000007,
      "v": 127
    },
    {
      "midi": 72,
      "hit": false,
      "t": 18260.86500000002,
      "d": 260.8695000000007,
      "v": 127
    },
    {
      "midi": 67,
      "hit": false,
      "t": 18260.86500000002,
      "d": 260.8695000000007,
      "v": 127
    },
    {
      "midi": 52,
      "hit": false,
      "t": 18521.7345,
      "d": 260.8695000000007,
      "v": 127
    },
    {
      "midi": 64,
      "hit": false,
      "t": 18521.73450000002,
      "d": 260.8695000000007,
      "v": 127
    },
    {
      "midi": 74,
      "hit": false,
      "t": 18521.73450000002,
      "d": 260.8695000000007,
      "v": 127
    },
    {
      "midi": 59,
      "hit": false,
      "t": 18782.604,
      "d": 260.8695000000007,
      "v": 127
    },
    {
      "midi": 68,
      "hit": false,
      "t": 18782.60400000002,
      "d": 260.8695000000007,
      "v": 127
    },
    {
      "midi": 57,
      "hit": false,
      "t": 19043.4735,
      "d": 260.8695000000007,
      "v": 127
    },
    {
      "midi": 64,
      "hit": false,
      "t": 19043.473500000022,
      "d": 260.8695000000007,
      "v": 127
    },
    {
      "midi": 56,
      "hit": false,
      "t": 19304.343,
      "d": 260.8695000000007,
      "v": 127
    },
    {
      "midi": 71,
      "hit": false,
      "t": 19304.343000000023,
      "d": 260.8695000000007,
      "v": 127
    },
    {
      "midi": 57,
      "hit": false,
      "t": 19565.2125,
      "d": 260.8695000000007,
      "v": 127
    },
    {
      "midi": 64,
      "hit": false,
      "t": 19565.212500000023,
      "d": 260.8695000000007,
      "v": 127
    },
    {
      "midi": 56,
      "hit": false,
      "t": 19826.082000000002,
      "d": 260.8695000000007,
      "v": 127
    },
    {
      "midi": 74,
      "hit": false,
      "t": 19826.082000000024,
      "d": 260.8695000000007,
      "v": 127
    },
    {
      "midi": 52,
      "hit": false,
      "t": 20086.951500000003,
      "d": 260.8695000000007,
      "v": 127
    },
    {
      "midi": 64,
      "hit": false,
      "t": 20086.951500000025,
      "d": 260.8695000000007,
      "v": 127
    },
    {
      "midi": 50,
      "hit": false,
      "t": 20347.821000000004,
      "d": 260.8695000000007,
      "v": 127
    },
    {
      "midi": 72,
      "hit": false,
      "t": 20347.821000000025,
      "d": 260.8695000000007,
      "v": 127
    },
    {
      "midi": 52,
      "hit": false,
      "t": 20608.690500000004,
      "d": 260.8695000000007,
      "v": 127
    },
    {
      "midi": 71,
      "hit": false,
      "t": 20608.690500000026,
      "d": 260.8695000000007,
      "v": 127
    },
    {
      "midi": 50,
      "hit": false,
      "t": 20869.560000000005,
      "d": 521.7390000000014,
      "v": 127
    },
    {
      "midi": 62,
      "hit": false,
      "t": 20869.560000000027,
      "d": 260.8695000000007,
      "v": 127
    },
    {
      "midi": 67,
      "hit": false,
      "t": 20869.560000000027,
      "d": 260.8695000000007,
      "v": 127
    },
    {
      "midi": 62,
      "hit": false,
      "t": 21130.429500000027,
      "d": 260.8695000000007,
      "v": 127
    },
    {
      "midi": 66,
      "hit": false,
      "t": 21130.429500000027,
      "d": 260.8695000000007,
      "v": 127
    },
    {
      "midi": 47,
      "hit": false,
      "t": 21391.299000000006,
      "d": 521.7390000000014,
      "v": 127
    },
    {
      "midi": 62,
      "hit": false,
      "t": 21391.299000000028,
      "d": 260.8695000000007,
      "v": 127
    },
    {
      "midi": 67,
      "hit": false,
      "t": 21391.299000000028,
      "d": 260.8695000000007,
      "v": 127
    },
    {
      "midi": 60,
      "hit": false,
      "t": 21652.16850000003,
      "d": 260.8695000000007,
      "v": 127
    },
    {
      "midi": 69,
      "hit": false,
      "t": 21652.16850000003,
      "d": 260.8695000000007,
      "v": 127
    },
    {
      "midi": 43,
      "hit": false,
      "t": 21913.038000000008,
      "d": 521.7390000000014,
      "v": 127
    },
    {
      "midi": 71,
      "hit": false,
      "t": 21913.03800000003,
      "d": 260.8695000000007,
      "v": 127
    },
    {
      "midi": 59,
      "hit": false,
      "t": 21913.03800000003,
      "d": 260.8695000000007,
      "v": 127
    },
    {
      "midi": 69,
      "hit": false,
      "t": 22173.90750000003,
      "d": 260.8695000000007,
      "v": 127
    },
    {
      "midi": 57,
      "hit": false,
      "t": 22173.90750000003,
      "d": 260.8695000000007,
      "v": 127
    },
    {
      "midi": 47,
      "hit": false,
      "t": 22434.77700000001,
      "d": 521.7390000000014,
      "v": 127
    },
    {
      "midi": 59,
      "hit": false,
      "t": 22434.77700000003,
      "d": 260.8695000000007,
      "v": 127
    },
    {
      "midi": 67,
      "hit": false,
      "t": 22434.77700000003,
      "d": 260.8695000000007,
      "v": 127
    },
    {
      "midi": 62,
      "hit": false,
      "t": 22695.64650000003,
      "d": 260.8695000000007,
      "v": 127
    },
    {
      "midi": 69,
      "hit": false,
      "t": 22695.64650000003,
      "d": 260.8695000000007,
      "v": 127
    },
    {
      "midi": 54,
      "hit": false,
      "t": 22956.51600000001,
      "d": 521.7390000000014,
      "v": 127
    },
    {
      "midi": 57,
      "hit": false,
      "t": 22956.516000000032,
      "d": 260.8695000000007,
      "v": 127
    },
    {
      "midi": 66,
      "hit": false,
      "t": 22956.516000000032,
      "d": 260.8695000000007,
      "v": 127
    },
    {
      "midi": 67,
      "hit": false,
      "t": 23217.385500000033,
      "d": 260.8695000000007,
      "v": 127
    },
    {
      "midi": 59,
      "hit": false,
      "t": 23217.385500000033,
      "d": 260.8695000000007,
      "v": 127
    },
    {
      "midi": 50,
      "hit": false,
      "t": 23478.255000000012,
      "d": 521.7390000000014,
      "v": 127
    },
    {
      "midi": 60,
      "hit": false,
      "t": 23478.255000000034,
      "d": 260.8695000000007,
      "v": 127
    },
    {
      "midi": 69,
      "hit": false,
      "t": 23478.255000000034,
      "d": 260.8695000000007,
      "v": 127
    },
    {
      "midi": 66,
      "hit": false,
      "t": 23739.124500000034,
      "d": 260.8695000000007,
      "v": 127
    },
    {
      "midi": 57,
      "hit": false,
      "t": 23739.124500000034,
      "d": 260.8695000000007,
      "v": 127
    },
    {
      "midi": 45,
      "hit": false,
      "t": 23999.994000000013,
      "d": 521.7390000000014,
      "v": 127
    },
    {
      "midi": 62,
      "hit": false,
      "t": 23999.994000000035,
      "d": 260.8695000000007,
      "v": 127
    },
    {
      "midi": 54,
      "hit": false,
      "t": 23999.994000000035,
      "d": 260.8695000000007,
      "v": 127
    },
    {
      "midi": 55,
      "hit": false,
      "t": 24260.863500000036,
      "d": 260.8695000000007,
      "v": 127
    },
    {
      "midi": 64,
      "hit": false,
      "t": 24260.863500000036,
      "d": 260.8695000000007,
      "v": 127
    },
    {
      "midi": 50,
      "hit": false,
      "t": 24521.733000000015,
      "d": 521.7390000000014,
      "v": 127
    },
    {
      "midi": 66,
      "hit": false,
      "t": 24521.733000000037,
      "d": 260.8695000000007,
      "v": 127
    },
    {
      "midi": 57,
      "hit": false,
      "t": 24521.733000000037,
      "d": 260.8695000000007,
      "v": 127
    },
    {
      "midi": 62,
      "hit": false,
      "t": 24782.602500000037,
      "d": 260.8695000000007,
      "v": 127
    },
    {
      "midi": 54,
      "hit": false,
      "t": 24782.602500000037,
      "d": 260.8695000000007,
      "v": 127
    },
    {
      "midi": 57,
      "hit": false,
      "t": 25043.472000000016,
      "d": 1043.4779999999992,
      "v": 127
    },
    {
      "midi": 69,
      "hit": false,
      "t": 25043.472000000038,
      "d": 260.8695000000007,
      "v": 127
    },
    {
      "midi": 76,
      "hit": false,
      "t": 25043.472000000038,
      "d": 521.7390000000014,
      "v": 127
    },
    {
      "midi": 64,
      "hit": false,
      "t": 25304.34150000004,
      "d": 260.8695000000007,
      "v": 127
    },
    {
      "midi": 69,
      "hit": false,
      "t": 25565.21100000004,
      "d": 260.8695000000007,
      "v": 127
    },
    {
      "midi": 72,
      "hit": false,
      "t": 25565.21100000004,
      "d": 260.8695000000007,
      "v": 127
    },
    {
      "midi": 74,
      "hit": false,
      "t": 25826.08050000004,
      "d": 260.8695000000007,
      "v": 127
    },
    {
      "midi": 72,
      "hit": false,
      "t": 25826.08050000004,
      "d": 260.8695000000007,
      "v": 127
    },
    {
      "midi": 59,
      "hit": false,
      "t": 26086.950000000015,
      "d": 1043.4779999999992,
      "v": 127
    },
    {
      "midi": 71,
      "hit": false,
      "t": 26086.95000000004,
      "d": 260.8695000000007,
      "v": 127
    },
    {
      "midi": 76,
      "hit": false,
      "t": 26086.95000000004,
      "d": 521.7390000000014,
      "v": 127
    },
    {
      "midi": 68,
      "hit": false,
      "t": 26347.81950000004,
      "d": 260.8695000000007,
      "v": 127
    },
    {
      "midi": 74,
      "hit": false,
      "t": 26608.689000000042,
      "d": 260.8695000000007,
      "v": 127
    },
    {
      "midi": 71,
      "hit": false,
      "t": 26869.558500000043,
      "d": 260.8695000000007,
      "v": 127
    },
    {
      "midi": 52,
      "hit": false,
      "t": 27130.428000000014,
      "d": 1043.4779999999992,
      "v": 127
    },
    {
      "midi": 74,
      "hit": false,
      "t": 27130.428000000044,
      "d": 0,
      "v": 127
    },
    {
      "midi": 76,
      "hit": false,
      "t": 27130.428000000044,
      "d": 521.7390000000014,
      "v": 127
    },
    {
      "midi": 71,
      "hit": false,
      "t": 27391.297500000044,
      "d": 260.8695000000007,
      "v": 127
    },
    {
      "midi": 68,
      "hit": false,
      "t": 27652.167000000045,
      "d": 260.8695000000007,
      "v": 127
    },
    {
      "midi": 74,
      "hit": false,
      "t": 27652.167000000045,
      "d": 521.7390000000014,
      "v": 127
    },
    {
      "midi": 64,
      "hit": false,
      "t": 27913.036500000046,
      "d": 260.8695000000007,
      "v": 127
    },
    {
      "midi": 56,
      "hit": false,
      "t": 28173.906000000014,
      "d": 1043.4779999999992,
      "v": 127
    },
    {
      "midi": 68,
      "hit": false,
      "t": 28173.906000000046,
      "d": 260.8695000000007,
      "v": 127
    },
    {
      "midi": 71,
      "hit": false,
      "t": 28434.775500000047,
      "d": 260.8695000000007,
      "v": 127
    },
    {
      "midi": 68,
      "hit": false,
      "t": 28695.645000000048,
      "d": 260.8695000000007,
      "v": 127
    },
    {
      "midi": 74,
      "hit": false,
      "t": 28695.645000000048,
      "d": 521.7390000000014,
      "v": 127
    },
    {
      "midi": 68,
      "hit": false,
      "t": 28956.51450000005,
      "d": 260.8695000000007,
      "v": 127
    },
    {
      "midi": 55,
      "hit": false,
      "t": 29217.384000000013,
      "d": 521.7390000000014,
      "v": 127
    },
    {
      "midi": 67,
      "hit": false,
      "t": 29217.38400000005,
      "d": 260.8695000000007,
      "v": 127
    },
    {
      "midi": 71,
      "hit": false,
      "t": 29217.38400000005,
      "d": 260.8695000000007,
      "v": 127
    },
    {
      "midi": 69,
      "hit": false,
      "t": 29478.25350000005,
      "d": 260.8695000000007,
      "v": 127
    },
    {
      "midi": 72,
      "hit": false,
      "t": 29478.25350000005,
      "d": 260.8695000000007,
      "v": 127
    },
    {
      "midi": 52,
      "hit": false,
      "t": 29739.123000000014,
      "d": 521.7390000000014,
      "v": 127
    },
    {
      "midi": 71,
      "hit": false,
      "t": 29739.12300000005,
      "d": 260.8695000000007,
      "v": 127
    },
    {
      "midi": 74,
      "hit": false,
      "t": 29739.12300000005,
      "d": 260.8695000000007,
      "v": 127
    },
    {
      "midi": 64,
      "hit": false,
      "t": 29999.99250000005,
      "d": 260.8695000000007,
      "v": 127
    },
    {
      "midi": 71,
      "hit": false,
      "t": 29999.99250000005,
      "d": 260.8695000000007,
      "v": 127
    },
    {
      "midi": 60,
      "hit": false,
      "t": 30260.862000000016,
      "d": 521.7390000000014,
      "v": 127
    },
    {
      "midi": 69,
      "hit": false,
      "t": 30260.862000000052,
      "d": 260.8695000000007,
      "v": 127
    },
    {
      "midi": 72,
      "hit": false,
      "t": 30260.862000000052,
      "d": 260.8695000000007,
      "v": 127
    },
    {
      "midi": 74,
      "hit": false,
      "t": 30521.731500000053,
      "d": 260.8695000000007,
      "v": 127
    },
    {
      "midi": 71,
      "hit": false,
      "t": 30521.731500000053,
      "d": 260.8695000000007,
      "v": 127
    },
    {
      "midi": 57,
      "hit": false,
      "t": 30782.601000000017,
      "d": 521.7390000000014,
      "v": 127
    },
    {
      "midi": 72,
      "hit": false,
      "t": 30782.601000000053,
      "d": 260.8695000000007,
      "v": 127
    },
    {
      "midi": 76,
      "hit": false,
      "t": 30782.601000000053,
      "d": 260.8695000000007,
      "v": 127
    },
    {
      "midi": 72,
      "hit": false,
      "t": 31043.470500000054,
      "d": 260.8695000000007,
      "v": 127
    },
    {
      "midi": 69,
      "hit": false,
      "t": 31043.470500000054,
      "d": 260.8695000000007,
      "v": 127
    },
    {
      "midi": 54,
      "hit": false,
      "t": 31304.34000000002,
      "d": 260.8695000000007,
      "v": 127
    },
    {
      "midi": 69,
      "hit": false,
      "t": 31304.340000000055,
      "d": 260.8695000000007,
      "v": 127
    },
    {
      "midi": 66,
      "hit": false,
      "t": 31304.340000000055,
      "d": 260.8695000000007,
      "v": 127
    },
    {
      "midi": 50,
      "hit": false,
      "t": 31565.20950000002,
      "d": 260.8695000000007,
      "v": 127
    },
    {
      "midi": 71,
      "hit": false,
      "t": 31565.209500000055,
      "d": 260.8695000000007,
      "v": 127
    },
    {
      "midi": 67,
      "hit": false,
      "t": 31565.209500000055,
      "d": 260.8695000000007,
      "v": 127
    },
    {
      "midi": 57,
      "hit": false,
      "t": 31826.07900000002,
      "d": 260.8695000000007,
      "v": 127
    },
    {
      "midi": 72,
      "hit": false,
      "t": 31826.079000000056,
      "d": 260.8695000000007,
      "v": 127
    },
    {
      "midi": 69,
      "hit": false,
      "t": 31826.079000000056,
      "d": 260.8695000000007,
      "v": 127
    },
    {
      "midi": 54,
      "hit": false,
      "t": 32086.94850000002,
      "d": 260.8695000000007,
      "v": 127
    },
    {
      "midi": 69,
      "hit": false,
      "t": 32086.948500000057,
      "d": 260.8695000000007,
      "v": 127
    },
    {
      "midi": 62,
      "hit": false,
      "t": 32086.948500000057,
      "d": 260.8695000000007,
      "v": 127
    },
    {
      "midi": 59,
      "hit": false,
      "t": 32347.81800000002,
      "d": 260.8695000000007,
      "v": 127
    },
    {
      "midi": 71,
      "hit": false,
      "t": 32347.818000000058,
      "d": 260.8695000000007,
      "v": 127
    },
    {
      "midi": 74,
      "hit": false,
      "t": 32347.818000000058,
      "d": 260.8695000000007,
      "v": 127
    },
    {
      "midi": 55,
      "hit": false,
      "t": 32608.687500000022,
      "d": 260.8695000000007,
      "v": 127
    },
    {
      "midi": 69,
      "hit": false,
      "t": 32608.68750000006,
      "d": 260.8695000000007,
      "v": 127
    },
    {
      "midi": 72,
      "hit": false,
      "t": 32608.68750000006,
      "d": 260.8695000000007,
      "v": 127
    },
    {
      "midi": 50,
      "hit": false,
      "t": 32869.55700000002,
      "d": 260.8695000000007,
      "v": 127
    },
    {
      "midi": 67,
      "hit": false,
      "t": 32869.55700000006,
      "d": 260.8695000000007,
      "v": 127
    },
    {
      "midi": 71,
      "hit": false,
      "t": 32869.55700000006,
      "d": 260.8695000000007,
      "v": 127
    },
    {
      "midi": 55,
      "hit": false,
      "t": 33130.42650000002,
      "d": 260.8695000000007,
      "v": 127
    },
    {
      "midi": 72,
      "hit": false,
      "t": 33130.42650000006,
      "d": 260.8695000000007,
      "v": 127
    },
    {
      "midi": 69,
      "hit": false,
      "t": 33130.42650000006,
      "d": 260.8695000000007,
      "v": 127
    },
    {
      "midi": 59,
      "hit": false,
      "t": 33391.296000000024,
      "d": 2086.9559999999983,
      "v": 127
    },
    {
      "midi": 74,
      "hit": false,
      "t": 33391.29600000006,
      "d": 2086.9559999999983,
      "v": 127
    },
    {
      "midi": 67,
      "hit": false,
      "t": 33391.29600000006,
      "d": 2086.9559999999983,
      "v": 127
    },
    {
      "midi": 71,
      "hit": false,
      "t": 35478.25200000006,
      "d": 260.8695000000007,
      "v": 127
    },
    {
      "midi": 72,
      "hit": false,
      "t": 35739.12150000006,
      "d": 260.8695000000007,
      "v": 127
    },
    {
      "midi": 74,
      "hit": false,
      "t": 35999.99100000006,
      "d": 260.8695000000007,
      "v": 127
    },
    {
      "midi": 68,
      "hit": false,
      "t": 36260.86050000006,
      "d": 260.8695000000007,
      "v": 127
    },
    {
      "midi": 69,
      "hit": false,
      "t": 36521.73000000006,
      "d": 260.8695000000007,
      "v": 127
    },
    {
      "midi": 71,
      "hit": false,
      "t": 36782.59950000006,
      "d": 260.8695000000007,
      "v": 127
    },
    {
      "midi": 72,
      "hit": false,
      "t": 37043.46900000006,
      "d": 260.8695000000007,
      "v": 127
    },
    {
      "midi": 66,
      "hit": false,
      "t": 37304.33850000006,
      "d": 260.8695000000007,
      "v": 127
    },
    {
      "midi": 55,
      "hit": false,
      "t": 37565.20800000002,
      "d": 260.8695000000007,
      "v": 127
    },
    {
      "midi": 71,
      "hit": false,
      "t": 37565.208000000064,
      "d": 260.8695000000007,
      "v": 127
    },
    {
      "midi": 59,
      "hit": false,
      "t": 37826.07750000002,
      "d": 260.8695000000007,
      "v": 127
    },
    {
      "midi": 67,
      "hit": false,
      "t": 37826.077500000065,
      "d": 260.8695000000007,
      "v": 127
    },
    {
      "midi": 55,
      "hit": false,
      "t": 38086.94700000002,
      "d": 260.8695000000007,
      "v": 127
    },
    {
      "midi": 64,
      "hit": false,
      "t": 38086.947000000066,
      "d": 260.8695000000007,
      "v": 127
    },
    {
      "midi": 52,
      "hit": false,
      "t": 38347.81650000002,
      "d": 260.8695000000007,
      "v": 127
    },
    {
      "midi": 69,
      "hit": false,
      "t": 38347.816500000066,
      "d": 260.8695000000007,
      "v": 127
    },
    {
      "midi": 50,
      "hit": false,
      "t": 38608.68600000002,
      "d": 521.7390000000014,
      "v": 127
    },
    {
      "midi": 67,
      "hit": false,
      "t": 38608.68600000007,
      "d": 521.7390000000014,
      "v": 127
    },
    {
      "midi": 50,
      "hit": false,
      "t": 39130.425000000025,
      "d": 521.7390000000014,
      "v": 127
    },
    {
      "midi": 66,
      "hit": false,
      "t": 39130.42500000007,
      "d": 521.7390000000014,
      "v": 127
    },
    {
      "midi": 57,
      "hit": false,
      "t": 39652.164000000026,
      "d": 521.7390000000014,
      "v": 127
    },
    {
      "midi": 52,
      "hit": false,
      "t": 39652.164000000026,
      "d": 521.7390000000014,
      "v": 127
    },
    {
      "midi": 64,
      "hit": false,
      "t": 39652.16400000007,
      "d": 260.8695000000007,
      "v": 127
    },
    {
      "midi": 69,
      "hit": false,
      "t": 39913.03350000007,
      "d": 260.8695000000007,
      "v": 127
    },
    {
      "midi": 54,
      "hit": false,
      "t": 40173.90300000003,
      "d": 521.7390000000014,
      "v": 127
    },
    {
      "midi": 50,
      "hit": false,
      "t": 40173.90300000003,
      "d": 521.7390000000014,
      "v": 127
    },
    {
      "midi": 66,
      "hit": false,
      "t": 40173.90300000007,
      "d": 260.8695000000007,
      "v": 127
    },
    {
      "midi": 62,
      "hit": false,
      "t": 40434.77250000007,
      "d": 260.8695000000007,
      "v": 127
    },
    {
      "midi": 52,
      "hit": false,
      "t": 40695.64200000003,
      "d": 521.7390000000014,
      "v": 127
    },
    {
      "midi": 57,
      "hit": false,
      "t": 40695.64200000003,
      "d": 521.7390000000014,
      "v": 127
    },
    {
      "midi": 64,
      "hit": false,
      "t": 40695.64200000007,
      "d": 260.8695000000007,
      "v": 127
    },
    {
      "midi": 69,
      "hit": false,
      "t": 40956.51150000007,
      "d": 260.8695000000007,
      "v": 127
    },
    {
      "midi": 54,
      "hit": false,
      "t": 41217.38100000003,
      "d": 521.7390000000014,
      "v": 127
    },
    {
      "midi": 50,
      "hit": false,
      "t": 41217.38100000003,
      "d": 521.7390000000014,
      "v": 127
    },
    {
      "midi": 66,
      "hit": false,
      "t": 41217.381000000074,
      "d": 260.8695000000007,
      "v": 127
    },
    {
      "midi": 62,
      "hit": false,
      "t": 41478.250500000075,
      "d": 260.8695000000007,
      "v": 127
    },
    {
      "midi": 55,
      "hit": false,
      "t": 41739.12000000003,
      "d": 521.7390000000014,
      "v": 127
    },
    {
      "midi": 71,
      "hit": false,
      "t": 41739.120000000075,
      "d": 260.8695000000007,
      "v": 127
    },
    {
      "midi": 74,
      "hit": false,
      "t": 41739.120000000075,
      "d": 260.8695000000007,
      "v": 127
    },
    {
      "midi": 71,
      "hit": false,
      "t": 41999.989500000076,
      "d": 260.8695000000007,
      "v": 127
    },
    {
      "midi": 67,
      "hit": false,
      "t": 41999.989500000076,
      "d": 260.8695000000007,
      "v": 127
    },
    {
      "midi": 57,
      "hit": false,
      "t": 42260.85900000003,
      "d": 521.7390000000014,
      "v": 127
    },
    {
      "midi": 69,
      "hit": false,
      "t": 42260.85900000008,
      "d": 260.8695000000007,
      "v": 127
    },
    {
      "midi": 72,
      "hit": false,
      "t": 42260.85900000008,
      "d": 260.8695000000007,
      "v": 127
    },
    {
      "midi": 67,
      "hit": false,
      "t": 42521.72850000008,
      "d": 260.8695000000007,
      "v": 127
    },
    {
      "midi": 71,
      "hit": false,
      "t": 42521.72850000008,
      "d": 260.8695000000007,
      "v": 127
    },
    {
      "midi": 57,
      "hit": false,
      "t": 42782.598000000035,
      "d": 1043.4780000000028,
      "v": 127
    },
    {
      "midi": 66,
      "hit": false,
      "t": 42782.59800000008,
      "d": 1043.4780000000028,
      "v": 127
    },
    {
      "midi": 69,
      "hit": false,
      "t": 42782.59800000008,
      "d": 1043.4780000000028,
      "v": 127
    },
    {
      "midi": 52,
      "hit": false,
      "t": 43826.07600000004,
      "d": 260.8695000000007,
      "v": 127
    },
    {
      "midi": 71,
      "hit": false,
      "t": 43826.07600000008,
      "d": 260.8695000000007,
      "v": 127
    },
    {
      "midi": 56,
      "hit": false,
      "t": 44086.94550000004,
      "d": 260.8695000000007,
      "v": 127
    },
    {
      "midi": 72,
      "hit": false,
      "t": 44086.94550000008,
      "d": 260.8695000000007,
      "v": 127
    },
    {
      "midi": 59,
      "hit": false,
      "t": 44347.81500000004,
      "d": 260.8695000000007,
      "v": 127
    },
    {
      "midi": 74,
      "hit": false,
      "t": 44347.81500000008,
      "d": 260.8695000000007,
      "v": 127
    },
    {
      "midi": 52,
      "hit": false,
      "t": 44608.68450000004,
      "d": 260.8695000000007,
      "v": 127
    },
    {
      "midi": 68,
      "hit": false,
      "t": 44608.68450000008,
      "d": 260.8695000000007,
      "v": 127
    },
    {
      "midi": 57,
      "hit": false,
      "t": 44869.55400000004,
      "d": 260.8695000000007,
      "v": 127
    },
    {
      "midi": 69,
      "hit": false,
      "t": 44869.554000000084,
      "d": 260.8695000000007,
      "v": 127
    },
    {
      "midi": 54,
      "hit": false,
      "t": 45130.42350000004,
      "d": 260.8695000000007,
      "v": 127
    },
    {
      "midi": 71,
      "hit": false,
      "t": 45130.423500000084,
      "d": 260.8695000000007,
      "v": 127
    },
    {
      "midi": 50,
      "hit": false,
      "t": 45391.29300000004,
      "d": 260.8695000000007,
      "v": 127
    },
    {
      "midi": 72,
      "hit": false,
      "t": 45391.293000000085,
      "d": 260.8695000000007,
      "v": 127
    },
    {
      "midi": 54,
      "hit": false,
      "t": 45652.16250000004,
      "d": 260.8695000000007,
      "v": 127
    },
    {
      "midi": 66,
      "hit": false,
      "t": 45652.162500000086,
      "d": 260.8695000000007,
      "v": 127
    },
    {
      "midi": 52,
      "hit": false,
      "t": 45913.03200000004,
      "d": 260.8695000000007,
      "v": 127
    },
    {
      "midi": 67,
      "hit": false,
      "t": 45913.03200000009,
      "d": 260.8695000000007,
      "v": 127
    },
    {
      "midi": 59,
      "hit": false,
      "t": 46173.90150000004,
      "d": 260.8695000000007,
      "v": 127
    },
    {
      "midi": 71,
      "hit": false,
      "t": 46173.90150000009,
      "d": 260.8695000000007,
      "v": 127
    },
    {
      "midi": 55,
      "hit": false,
      "t": 46434.771000000044,
      "d": 260.8695000000007,
      "v": 127
    },
    {
      "midi": 69,
      "hit": false,
      "t": 46434.77100000009,
      "d": 260.8695000000007,
      "v": 127
    },
    {
      "midi": 52,
      "hit": false,
      "t": 46695.640500000045,
      "d": 260.8695000000007,
      "v": 127
    },
    {
      "midi": 67,
      "hit": false,
      "t": 46695.64050000009,
      "d": 260.8695000000007,
      "v": 127
    },
    {
      "midi": 50,
      "hit": false,
      "t": 46956.510000000046,
      "d": 260.8695000000007,
      "v": 127
    },
    {
      "midi": 66,
      "hit": false,
      "t": 46956.51000000009,
      "d": 260.8695000000007,
      "v": 127
    },
    {
      "midi": 57,
      "hit": false,
      "t": 47217.37950000005,
      "d": 260.8695000000007,
      "v": 127
    },
    {
      "midi": 69,
      "hit": false,
      "t": 47217.37950000009,
      "d": 260.8695000000007,
      "v": 127
    },
    {
      "midi": 54,
      "hit": false,
      "t": 47478.24900000005,
      "d": 260.8695000000007,
      "v": 127
    },
    {
      "midi": 67,
      "hit": false,
      "t": 47478.24900000009,
      "d": 260.8695000000007,
      "v": 127
    },
    {
      "midi": 50,
      "hit": false,
      "t": 47739.11850000005,
      "d": 260.8695000000007,
      "v": 127
    },
    {
      "midi": 66,
      "hit": false,
      "t": 47739.11850000009,
      "d": 260.8695000000007,
      "v": 127
    },
    {
      "midi": 57,
      "hit": false,
      "t": 47999.98800000005,
      "d": 521.7390000000014,
      "v": 127
    },
    {
      "midi": 52,
      "hit": false,
      "t": 47999.98800000005,
      "d": 521.7390000000014,
      "v": 127
    },
    {
      "midi": 64,
      "hit": false,
      "t": 47999.98800000009,
      "d": 260.8695000000007,
      "v": 127
    },
    {
      "midi": 69,
      "hit": false,
      "t": 48260.85750000009,
      "d": 260.8695000000007,
      "v": 127
    },
    {
      "midi": 50,
      "hit": false,
      "t": 48521.72700000005,
      "d": 521.7390000000014,
      "v": 127
    },
    {
      "midi": 54,
      "hit": false,
      "t": 48521.72700000005,
      "d": 521.7390000000014,
      "v": 127
    },
    {
      "midi": 66,
      "hit": false,
      "t": 48521.72700000009,
      "d": 260.8695000000007,
      "v": 127
    },
    {
      "midi": 62,
      "hit": false,
      "t": 48782.596500000094,
      "d": 260.8695000000007,
      "v": 127
    },
    {
      "midi": 52,
      "hit": false,
      "t": 49043.46600000005,
      "d": 521.7390000000014,
      "v": 127
    },
    {
      "midi": 57,
      "hit": false,
      "t": 49043.46600000005,
      "d": 521.7390000000014,
      "v": 127
    },
    {
      "midi": 64,
      "hit": false,
      "t": 49043.466000000095,
      "d": 260.8695000000007,
      "v": 127
    },
    {
      "midi": 69,
      "hit": false,
      "t": 49304.335500000096,
      "d": 260.8695000000007,
      "v": 127
    },
    {
      "midi": 50,
      "hit": false,
      "t": 49565.20500000005,
      "d": 521.7390000000014,
      "v": 127
    },
    {
      "midi": 54,
      "hit": false,
      "t": 49565.20500000005,
      "d": 521.7390000000014,
      "v": 127
    },
    {
      "midi": 66,
      "hit": false,
      "t": 49565.205000000096,
      "d": 260.8695000000007,
      "v": 127
    },
    {
      "midi": 62,
      "hit": false,
      "t": 49826.0745000001,
      "d": 260.8695000000007,
      "v": 127
    },
    {
      "midi": 57,
      "hit": false,
      "t": 50086.944000000054,
      "d": 521.7390000000014,
      "v": 127
    },
    {
      "midi": 52,
      "hit": false,
      "t": 50086.944000000054,
      "d": 521.7390000000014,
      "v": 127
    },
    {
      "midi": 64,
      "hit": false,
      "t": 50086.9440000001,
      "d": 260.8695000000007,
      "v": 127
    },
    {
      "midi": 69,
      "hit": false,
      "t": 50347.8135000001,
      "d": 260.8695000000007,
      "v": 127
    },
    {
      "midi": 50,
      "hit": false,
      "t": 50608.683000000055,
      "d": 521.7390000000014,
      "v": 127
    },
    {
      "midi": 54,
      "hit": false,
      "t": 50608.683000000055,
      "d": 521.7390000000014,
      "v": 127
    },
    {
      "midi": 66,
      "hit": false,
      "t": 50608.6830000001,
      "d": 260.8695000000007,
      "v": 127
    },
    {
      "midi": 62,
      "hit": false,
      "t": 50869.5525000001,
      "d": 260.8695000000007,
      "v": 127
    },
    {
      "midi": 57,
      "hit": false,
      "t": 51130.42200000006,
      "d": 1826.0864999999976,
      "v": 127
    },
    {
      "midi": 64,
      "hit": false,
      "t": 51130.4220000001,
      "d": 1043.4780000000028,
      "v": 127
    },
    {
      "midi": 69,
      "hit": false,
      "t": 52173.9000000001,
      "d": 260.8695000000007,
      "v": 127
    },
    {
      "midi": 71,
      "hit": false,
      "t": 52434.769500000104,
      "d": 260.8695000000007,
      "v": 127
    },
    {
      "midi": 72,
      "hit": false,
      "t": 52695.639000000105,
      "d": 260.8695000000007,
      "v": 127
    },
    {
      "midi": 53,
      "hit": false,
      "t": 52956.508500000054,
      "d": 2086.9559999999983,
      "v": 127
    },
    {
      "midi": 65,
      "hit": false,
      "t": 52956.508500000105,
      "d": 2086.9559999999983,
      "v": 127
    },
    {
      "midi": 48,
      "hit": false,
      "t": 55304.33400000005,
      "d": 521.7390000000014,
      "v": 127
    },
    {
      "midi": 64,
      "hit": false,
      "t": 55304.334000000104,
      "d": 521.7390000000014,
      "v": 127
    },
    {
      "midi": 67,
      "hit": false,
      "t": 55304.334000000104,
      "d": 521.7390000000014,
      "v": 127
    },
    {
      "midi": 46,
      "hit": false,
      "t": 55826.073000000055,
      "d": 521.7390000000014,
      "v": 127
    },
    {
      "midi": 62,
      "hit": false,
      "t": 55826.073000000106,
      "d": 521.7390000000014,
      "v": 127
    },
    {
      "midi": 65,
      "hit": false,
      "t": 55826.073000000106,
      "d": 521.7390000000014,
      "v": 127
    },
    {
      "midi": 45,
      "hit": false,
      "t": 56347.812000000056,
      "d": 4173.911999999997,
      "v": 127
    },
    {
      "midi": 61,
      "hit": false,
      "t": 56347.81200000011,
      "d": 4173.911999999997,
      "v": 127
    },
    {
      "midi": 64,
      "hit": false,
      "t": 56347.81200000011,
      "d": 4173.911999999997,
      "v": 127
    },
    {
      "midi": 57,
      "hit": false,
      "t": 60521.72400000005,
      "d": 782.6085000000021,
      "v": 127
    },
    {
      "midi": 69,
      "hit": false,
      "t": 60521.724000000104,
      "d": 260.8695000000007,
      "v": 127
    },
    {
      "midi": 71,
      "hit": false,
      "t": 60782.593500000105,
      "d": 260.8695000000007,
      "v": 127
    },
    {
      "midi": 72,
      "hit": false,
      "t": 61043.463000000105,
      "d": 260.8695000000007,
      "v": 127
    },
    {
      "midi": 53,
      "hit": false,
      "t": 61304.332500000055,
      "d": 1043.4780000000028,
      "v": 127
    },
    {
      "midi": 65,
      "hit": false,
      "t": 61304.332500000106,
      "d": 1043.4780000000028,
      "v": 127
    },
    {
      "midi": 53,
      "hit": false,
      "t": 62608.68000000006,
      "d": 521.7390000000014,
      "v": 127
    },
    {
      "midi": 65,
      "hit": false,
      "t": 62608.68000000011,
      "d": 521.7390000000014,
      "v": 127
    },
    {
      "midi": 74,
      "hit": false,
      "t": 62608.68000000011,
      "d": 521.7390000000014,
      "v": 127
    },
    {
      "midi": 52,
      "hit": false,
      "t": 63130.41900000006,
      "d": 521.7390000000014,
      "v": 127
    },
    {
      "midi": 64,
      "hit": false,
      "t": 63130.41900000011,
      "d": 521.7390000000014,
      "v": 127
    },
    {
      "midi": 72,
      "hit": false,
      "t": 63130.41900000011,
      "d": 521.7390000000014,
      "v": 127
    },
    {
      "midi": 55,
      "hit": false,
      "t": 63652.15800000006,
      "d": 3130.434000000001,
      "v": 127
    },
    {
      "midi": 71,
      "hit": false,
      "t": 63652.15800000011,
      "d": 3130.433999999994,
      "v": 127
    },
    {
      "midi": 62,
      "hit": false,
      "t": 63652.15800000011,
      "d": 3130.433999999994,
      "v": 127
    },
    {
      "midi": 57,
      "hit": false,
      "t": 66782.59200000006,
      "d": 521.7390000000014,
      "v": 127
    },
    {
      "midi": 76,
      "hit": false,
      "t": 66782.5920000001,
      "d": 260.8695000000007,
      "v": 127
    },
    {
      "midi": 72,
      "hit": false,
      "t": 67043.4615000001,
      "d": 0,
      "v": 127
    },
    {
      "midi": 69,
      "hit": false,
      "t": 67043.4615000001,
      "d": 260.8695000000007,
      "v": 127
    },
    {
      "midi": 55,
      "hit": false,
      "t": 67304.33100000006,
      "d": 521.7390000000014,
      "v": 127
    },
    {
      "midi": 71,
      "hit": false,
      "t": 67304.33100000011,
      "d": 260.8695000000007,
      "v": 127
    },
    {
      "midi": 74,
      "hit": false,
      "t": 67304.33100000011,
      "d": 260.8695000000007,
      "v": 127
    },
    {
      "midi": 67,
      "hit": false,
      "t": 67565.20050000011,
      "d": 260.8695000000007,
      "v": 127
    },
    {
      "midi": 71,
      "hit": false,
      "t": 67565.20050000011,
      "d": 260.8695000000007,
      "v": 127
    },
    {
      "midi": 53,
      "hit": false,
      "t": 67826.07000000007,
      "d": 521.7390000000014,
      "v": 127
    },
    {
      "midi": 72,
      "hit": false,
      "t": 67826.07000000011,
      "d": 260.8695000000007,
      "v": 127
    },
    {
      "midi": 69,
      "hit": false,
      "t": 68086.93950000011,
      "d": 0,
      "v": 127
    },
    {
      "midi": 64,
      "hit": false,
      "t": 68086.93950000011,
      "d": 260.8695000000007,
      "v": 127
    },
    {
      "midi": 52,
      "hit": false,
      "t": 68347.80900000007,
      "d": 2608.695000000007,
      "v": 127
    },
    {
      "midi": 68,
      "hit": false,
      "t": 68347.80900000011,
      "d": 260.8695000000007,
      "v": 127
    },
    {
      "midi": 64,
      "hit": false,
      "t": 68347.80900000011,
      "d": 260.8695000000007,
      "v": 127
    },
    {
      "midi": 65,
      "hit": false,
      "t": 68608.67850000011,
      "d": 260.8695000000007,
      "v": 127
    },
    {
      "midi": 69,
      "hit": false,
      "t": 68608.67850000011,
      "d": 260.8695000000007,
      "v": 127
    },
    {
      "midi": 71,
      "hit": false,
      "t": 68869.54800000011,
      "d": 2086.9560000000056,
      "v": 127
    },
    {
      "midi": 68,
      "hit": false,
      "t": 68869.54800000011,
      "d": 2086.9560000000056,
      "v": 127
    },
    {
      "midi": 52,
      "hit": false,
      "t": 70956.50400000007,
      "d": 1565.2170000000042,
      "v": 127
    },
    {
      "midi": 68,
      "hit": false,
      "t": 70956.50400000012,
      "d": 260.8695000000007,
      "v": 127
    },
    {
      "midi": 69,
      "hit": false,
      "t": 71217.37350000012,
      "d": 260.8695000000007,
      "v": 127
    },
    {
      "midi": 71,
      "hit": false,
      "t": 71478.24300000012,
      "d": 260.8695000000007,
      "v": 127
    },
    {
      "midi": 68,
      "hit": false,
      "t": 71739.11250000012,
      "d": 260.8695000000007,
      "v": 127
    },
    {
      "midi": 69,
      "hit": false,
      "t": 71999.98200000012,
      "d": 260.8695000000007,
      "v": 127
    },
    {
      "midi": 71,
      "hit": false,
      "t": 72260.85150000012,
      "d": 260.8695000000007,
      "v": 127
    },
    {
      "midi": 52,
      "hit": false,
      "t": 72521.72100000008,
      "d": 260.8695000000007,
      "v": 127
    },
    {
      "midi": 68,
      "hit": false,
      "t": 72521.72100000012,
      "d": 260.8695000000007,
      "v": 127
    },
    {
      "midi": 48,
      "hit": false,
      "t": 72782.59050000008,
      "d": 260.8695000000007,
      "v": 127
    },
    {
      "midi": 69,
      "hit": false,
      "t": 72782.59050000012,
      "d": 260.8695000000007,
      "v": 127
    },
    {
      "midi": 53,
      "hit": false,
      "t": 73043.46000000008,
      "d": 1565.2170000000042,
      "v": 127
    },
    {
      "midi": 69,
      "hit": false,
      "t": 73043.46000000012,
      "d": 260.8695000000007,
      "v": 127
    },
    {
      "midi": 71,
      "hit": false,
      "t": 73304.32950000012,
      "d": 260.8695000000007,
      "v": 127
    },
    {
      "midi": 72,
      "hit": false,
      "t": 73565.19900000012,
      "d": 260.8695000000007,
      "v": 127
    },
    {
      "midi": 69,
      "hit": false,
      "t": 73826.06850000012,
      "d": 260.8695000000007,
      "v": 127
    },
    {
      "midi": 71,
      "hit": false,
      "t": 74086.93800000013,
      "d": 260.8695000000007,
      "v": 127
    },
    {
      "midi": 72,
      "hit": false,
      "t": 74347.80750000013,
      "d": 260.8695000000007,
      "v": 127
    },
    {
      "midi": 53,
      "hit": false,
      "t": 74608.67700000008,
      "d": 260.8695000000007,
      "v": 127
    },
    {
      "midi": 69,
      "hit": false,
      "t": 74608.67700000013,
      "d": 260.8695000000007,
      "v": 127
    },
    {
      "midi": 50,
      "hit": false,
      "t": 74869.54650000008,
      "d": 260.8695000000007,
      "v": 127
    },
    {
      "midi": 71,
      "hit": false,
      "t": 74869.54650000013,
      "d": 260.8695000000007,
      "v": 127
    },
    {
      "midi": 55,
      "hit": false,
      "t": 75130.41600000008,
      "d": 1565.2170000000042,
      "v": 127
    },
    {
      "midi": 71,
      "hit": false,
      "t": 75130.41600000013,
      "d": 260.8695000000007,
      "v": 127
    },
    {
      "midi": 72,
      "hit": false,
      "t": 75391.28550000013,
      "d": 260.8695000000007,
      "v": 127
    },
    {
      "midi": 74,
      "hit": false,
      "t": 75652.15500000013,
      "d": 260.8695000000007,
      "v": 127
    },
    {
      "midi": 71,
      "hit": false,
      "t": 75913.02450000013,
      "d": 260.8695000000007,
      "v": 127
    },
    {
      "midi": 72,
      "hit": false,
      "t": 76173.89400000013,
      "d": 260.8695000000007,
      "v": 127
    },
    {
      "midi": 74,
      "hit": false,
      "t": 76434.76350000013,
      "d": 260.8695000000007,
      "v": 127
    },
    {
      "midi": 55,
      "hit": false,
      "t": 76695.63300000009,
      "d": 260.8695000000007,
      "v": 127
    },
    {
      "midi": 71,
      "hit": false,
      "t": 76695.63300000013,
      "d": 260.8695000000007,
      "v": 127
    },
    {
      "midi": 52,
      "hit": false,
      "t": 76956.50250000009,
      "d": 260.8695000000007,
      "v": 127
    },
    {
      "midi": 72,
      "hit": false,
      "t": 76956.50250000013,
      "d": 260.8695000000007,
      "v": 127
    },
    {
      "midi": 62,
      "hit": false,
      "t": 77217.37200000009,
      "d": 260.8695000000007,
      "v": 127
    },
    {
      "midi": 74,
      "hit": false,
      "t": 77217.37200000013,
      "d": 260.8695000000007,
      "v": 127
    },
    {
      "midi": 79,
      "hit": false,
      "t": 77217.37200000013,
      "d": 260.8695000000007,
      "v": 127
    },
    {
      "midi": 59,
      "hit": false,
      "t": 77478.24150000009,
      "d": 260.8695000000007,
      "v": 127
    },
    {
      "midi": 76,
      "hit": false,
      "t": 77478.24150000013,
      "d": 260.8695000000007,
      "v": 127
    },
    {
      "midi": 81,
      "hit": false,
      "t": 77478.24150000013,
      "d": 260.8695000000007,
      "v": 127
    },
    {
      "midi": 60,
      "hit": false,
      "t": 77739.11100000009,
      "d": 260.8695000000007,
      "v": 127
    },
    {
      "midi": 77,
      "hit": false,
      "t": 77739.11100000014,
      "d": 260.8695000000007,
      "v": 127
    },
    {
      "midi": 72,
      "hit": false,
      "t": 77739.11100000014,
      "d": 260.8695000000007,
      "v": 127
    },
    {
      "midi": 57,
      "hit": false,
      "t": 77999.98050000009,
      "d": 260.8695000000007,
      "v": 127
    },
    {
      "midi": 74,
      "hit": false,
      "t": 77999.98050000014,
      "d": 260.8695000000007,
      "v": 127
    },
    {
      "midi": 79,
      "hit": false,
      "t": 77999.98050000014,
      "d": 260.8695000000007,
      "v": 127
    },
    {
      "midi": 59,
      "hit": false,
      "t": 78260.8500000001,
      "d": 260.8695000000007,
      "v": 127
    },
    {
      "midi": 71,
      "hit": false,
      "t": 78260.85000000014,
      "d": 260.8695000000007,
      "v": 127
    },
    {
      "midi": 76,
      "hit": false,
      "t": 78260.85000000014,
      "d": 260.8695000000007,
      "v": 127
    },
    {
      "midi": 55,
      "hit": false,
      "t": 78521.7195000001,
      "d": 260.8695000000007,
      "v": 127
    },
    {
      "midi": 77,
      "hit": false,
      "t": 78521.71950000014,
      "d": 260.8695000000007,
      "v": 127
    },
    {
      "midi": 72,
      "hit": false,
      "t": 78521.71950000014,
      "d": 260.8695000000007,
      "v": 127
    },
    {
      "midi": 57,
      "hit": false,
      "t": 78782.5890000001,
      "d": 260.8695000000007,
      "v": 127
    },
    {
      "midi": 69,
      "hit": false,
      "t": 78782.58900000014,
      "d": 260.8695000000007,
      "v": 127
    },
    {
      "midi": 74,
      "hit": false,
      "t": 78782.58900000014,
      "d": 260.8695000000007,
      "v": 127
    },
    {
      "midi": 54,
      "hit": false,
      "t": 79043.4585000001,
      "d": 260.8695000000007,
      "v": 127
    },
    {
      "midi": 76,
      "hit": false,
      "t": 79043.45850000014,
      "d": 260.8695000000007,
      "v": 127
    },
    {
      "midi": 71,
      "hit": false,
      "t": 79043.45850000014,
      "d": 260.8695000000007,
      "v": 127
    },
    {
      "midi": 56,
      "hit": false,
      "t": 79304.3280000001,
      "d": 1565.2170000000042,
      "v": 127
    },
    {
      "midi": 68,
      "hit": false,
      "t": 79304.32800000014,
      "d": 260.8695000000007,
      "v": 127
    },
    {
      "midi": 69,
      "hit": false,
      "t": 79565.19750000014,
      "d": 260.8695000000007,
      "v": 127
    },
    {
      "midi": 71,
      "hit": false,
      "t": 79826.06700000014,
      "d": 260.8695000000007,
      "v": 127
    },
    {
      "midi": 68,
      "hit": false,
      "t": 80086.93650000014,
      "d": 260.8695000000007,
      "v": 127
    },
    {
      "midi": 69,
      "hit": false,
      "t": 80347.80600000014,
      "d": 260.8695000000007,
      "v": 127
    },
    {
      "midi": 71,
      "hit": false,
      "t": 80608.67550000014,
      "d": 260.8695000000007,
      "v": 127
    },
    {
      "midi": 56,
      "hit": false,
      "t": 80869.5450000001,
      "d": 260.8695000000007,
      "v": 127
    },
    {
      "midi": 68,
      "hit": false,
      "t": 80869.54500000014,
      "d": 260.8695000000007,
      "v": 127
    },
    {
      "midi": 52,
      "hit": false,
      "t": 81130.4145000001,
      "d": 260.8695000000007,
      "v": 127
    },
    {
      "midi": 69,
      "hit": false,
      "t": 81130.41450000014,
      "d": 260.8695000000007,
      "v": 127
    },
    {
      "midi": 69,
      "hit": false,
      "t": 81391.28400000015,
      "d": 260.8695000000007,
      "v": 127
    },
    {
      "midi": 71,
      "hit": false,
      "t": 81652.15350000015,
      "d": 260.8695000000007,
      "v": 127
    },
    {
      "midi": 72,
      "hit": false,
      "t": 81913.02300000015,
      "d": 260.8695000000007,
      "v": 127
    },
    {
      "midi": 69,
      "hit": false,
      "t": 82173.89250000015,
      "d": 260.8695000000007,
      "v": 127
    },
    {
      "midi": 71,
      "hit": false,
      "t": 82434.76200000015,
      "d": 260.8695000000007,
      "v": 127
    },
    {
      "midi": 72,
      "hit": false,
      "t": 82695.63150000015,
      "d": 260.8695000000007,
      "v": 127
    },
    {
      "midi": 69,
      "hit": false,
      "t": 82956.50100000015,
      "d": 260.8695000000007,
      "v": 127
    },
    {
      "midi": 71,
      "hit": false,
      "t": 83217.37050000015,
      "d": 260.8695000000007,
      "v": 127
    },
    {
      "midi": 57,
      "hit": false,
      "t": 83478.2400000001,
      "d": 0,
      "v": 127
    },
    {
      "midi": 60,
      "hit": false,
      "t": 83478.2400000001,
      "d": 521.7390000000014,
      "v": 127
    },
    {
      "midi": 76,
      "hit": false,
      "t": 83478.24000000015,
      "d": 260.8695000000007,
      "v": 127
    },
    {
      "midi": 72,
      "hit": false,
      "t": 83739.10950000015,
      "d": 260.8695000000007,
      "v": 127
    },
    {
      "midi": 59,
      "hit": false,
      "t": 83999.97900000011,
      "d": 521.7390000000014,
      "v": 127
    },
    {
      "midi": 55,
      "hit": false,
      "t": 83999.97900000011,
      "d": 521.7390000000014,
      "v": 127
    },
    {
      "midi": 74,
      "hit": false,
      "t": 83999.97900000015,
      "d": 260.8695000000007,
      "v": 127
    },
    {
      "midi": 71,
      "hit": false,
      "t": 84260.84850000015,
      "d": 260.8695000000007,
      "v": 127
    },
    {
      "midi": 56,
      "hit": false,
      "t": 84521.71800000011,
      "d": 782.6085000000021,
      "v": 127
    },
    {
      "midi": 68,
      "hit": false,
      "t": 84521.71800000015,
      "d": 782.6085000000021,
      "v": 127
    },
    {
      "midi": 52,
      "hit": false,
      "t": 85304.32650000011,
      "d": 0,
      "v": 127
    },
    {
      "midi": 69,
      "hit": false,
      "t": 85304.32650000016,
      "d": 260.8695000000007,
      "v": 127
    },
    {
      "midi": 60,
      "hit": false,
      "t": 85565.19600000011,
      "d": 0,
      "v": 127
    },
    {
      "midi": 52,
      "hit": false,
      "t": 85565.19600000011,
      "d": 2086.9560000000056,
      "v": 127
    },
    {
      "midi": 69,
      "hit": false,
      "t": 85565.19600000016,
      "d": 2086.9560000000056,
      "v": 127
    },
    {
      "midi": 57,
      "hit": false,
      "t": 87652.15200000012,
      "d": 173.91300000000047,
      "v": 127
    },
    {
      "midi": 76,
      "hit": false,
      "t": 87652.15200000016,
      "d": 173.91300000000047,
      "v": 127
    },
    {
      "midi": 52,
      "hit": false,
      "t": 87826.06500000012,
      "d": 173.91300000000047,
      "v": 127
    },
    {
      "midi": 72,
      "hit": false,
      "t": 87826.06500000016,
      "d": 173.91300000000047,
      "v": 127
    },
    {
      "midi": 57,
      "hit": false,
      "t": 87999.97800000012,
      "d": 173.91300000000047,
      "v": 127
    },
    {
      "midi": 69,
      "hit": false,
      "t": 87999.97800000016,
      "d": 173.91300000000047,
      "v": 127
    },
    {
      "midi": 60,
      "hit": false,
      "t": 88173.89100000012,
      "d": 173.91300000000047,
      "v": 127
    },
    {
      "midi": 76,
      "hit": false,
      "t": 88173.89100000016,
      "d": 173.91300000000047,
      "v": 127
    },
    {
      "midi": 57,
      "hit": false,
      "t": 88347.80400000012,
      "d": 173.91300000000047,
      "v": 127
    },
    {
      "midi": 72,
      "hit": false,
      "t": 88347.80400000016,
      "d": 173.91300000000047,
      "v": 127
    },
    {
      "midi": 60,
      "hit": false,
      "t": 88521.71700000012,
      "d": 173.91300000000047,
      "v": 127
    },
    {
      "midi": 69,
      "hit": false,
      "t": 88521.71700000016,
      "d": 173.91300000000047,
      "v": 127
    },
    {
      "midi": 64,
      "hit": false,
      "t": 88695.63000000012,
      "d": 173.91300000000047,
      "v": 127
    },
    {
      "midi": 76,
      "hit": false,
      "t": 88695.63000000016,
      "d": 173.91300000000047,
      "v": 127
    },
    {
      "midi": 60,
      "hit": false,
      "t": 88869.54300000012,
      "d": 173.91300000000047,
      "v": 127
    },
    {
      "midi": 72,
      "hit": false,
      "t": 88869.54300000017,
      "d": 173.91300000000047,
      "v": 127
    },
    {
      "midi": 57,
      "hit": false,
      "t": 89043.45600000012,
      "d": 173.91300000000047,
      "v": 127
    },
    {
      "midi": 69,
      "hit": false,
      "t": 89043.45600000017,
      "d": 173.91300000000047,
      "v": 127
    },
    {
      "midi": 60,
      "hit": false,
      "t": 89217.36900000012,
      "d": 173.91300000000047,
      "v": 127
    },
    {
      "midi": 76,
      "hit": false,
      "t": 89217.36900000017,
      "d": 173.91300000000047,
      "v": 127
    },
    {
      "midi": 57,
      "hit": false,
      "t": 89391.28200000012,
      "d": 173.91300000000047,
      "v": 127
    },
    {
      "midi": 72,
      "hit": false,
      "t": 89391.28200000017,
      "d": 173.91300000000047,
      "v": 127
    },
    {
      "midi": 52,
      "hit": false,
      "t": 89565.19500000012,
      "d": 173.91300000000047,
      "v": 127
    },
    {
      "midi": 69,
      "hit": false,
      "t": 89565.19500000017,
      "d": 173.91300000000047,
      "v": 127
    },
    {
      "midi": 62,
      "hit": false,
      "t": 89739.10800000012,
      "d": 173.91300000000047,
      "v": 127
    },
    {
      "midi": 74,
      "hit": false,
      "t": 89739.10800000017,
      "d": 173.91300000000047,
      "v": 127
    },
    {
      "midi": 59,
      "hit": false,
      "t": 89913.02100000012,
      "d": 173.91300000000047,
      "v": 127
    },
    {
      "midi": 71,
      "hit": false,
      "t": 89913.02100000017,
      "d": 173.91300000000047,
      "v": 127
    },
    {
      "midi": 55,
      "hit": false,
      "t": 90086.93400000012,
      "d": 173.91300000000047,
      "v": 127
    },
    {
      "midi": 67,
      "hit": false,
      "t": 90086.93400000017,
      "d": 173.91300000000047,
      "v": 127
    },
    {
      "midi": 47,
      "hit": false,
      "t": 90260.84700000013,
      "d": 173.91300000000047,
      "v": 127
    },
    {
      "midi": 74,
      "hit": false,
      "t": 90260.84700000017,
      "d": 173.91300000000047,
      "v": 127
    },
    {
      "midi": 50,
      "hit": false,
      "t": 90434.76000000013,
      "d": 173.91300000000047,
      "v": 127
    },
    {
      "midi": 71,
      "hit": false,
      "t": 90434.76000000017,
      "d": 173.91300000000047,
      "v": 127
    },
    {
      "midi": 54,
      "hit": false,
      "t": 90608.67300000013,
      "d": 173.91300000000047,
      "v": 127
    },
    {
      "midi": 67,
      "hit": false,
      "t": 90608.67300000017,
      "d": 173.91300000000047,
      "v": 127
    },
    {
      "midi": 55,
      "hit": false,
      "t": 90782.58600000013,
      "d": 173.91300000000047,
      "v": 127
    },
    {
      "midi": 74,
      "hit": false,
      "t": 90782.58600000017,
      "d": 173.91300000000047,
      "v": 127
    },
    {
      "midi": 59,
      "hit": false,
      "t": 90956.49900000013,
      "d": 173.91300000000047,
      "v": 127
    },
    {
      "midi": 71,
      "hit": false,
      "t": 90956.49900000017,
      "d": 173.91300000000047,
      "v": 127
    },
    {
      "midi": 55,
      "hit": false,
      "t": 91130.41200000013,
      "d": 173.91300000000047,
      "v": 127
    },
    {
      "midi": 67,
      "hit": false,
      "t": 91130.41200000017,
      "d": 173.91300000000047,
      "v": 127
    },
    {
      "midi": 62,
      "hit": false,
      "t": 91304.32500000013,
      "d": 173.91300000000047,
      "v": 127
    },
    {
      "midi": 74,
      "hit": false,
      "t": 91304.32500000017,
      "d": 173.91300000000047,
      "v": 127
    },
    {
      "midi": 59,
      "hit": false,
      "t": 91478.23800000013,
      "d": 173.91300000000047,
      "v": 127
    },
    {
      "midi": 71,
      "hit": false,
      "t": 91478.23800000017,
      "d": 173.91300000000047,
      "v": 127
    },
    {
      "midi": 55,
      "hit": false,
      "t": 91652.15100000013,
      "d": 173.91300000000047,
      "v": 127
    },
    {
      "midi": 67,
      "hit": false,
      "t": 91652.15100000017,
      "d": 173.91300000000047,
      "v": 127
    },
    {
      "midi": 53,
      "hit": false,
      "t": 91826.06400000013,
      "d": 695.6520000000019,
      "v": 127
    },
    {
      "midi": 72,
      "hit": false,
      "t": 91826.06400000017,
      "d": 173.91300000000047,
      "v": 127
    },
    {
      "midi": 69,
      "hit": false,
      "t": 91999.97700000017,
      "d": 173.91300000000047,
      "v": 127
    },
    {
      "midi": 65,
      "hit": false,
      "t": 92173.89000000017,
      "d": 173.91300000000047,
      "v": 127
    },
    {
      "midi": 72,
      "hit": false,
      "t": 92347.80300000017,
      "d": 173.91300000000047,
      "v": 127
    },
    {
      "midi": 45,
      "hit": false,
      "t": 92521.71600000013,
      "d": 173.91300000000047,
      "v": 127
    },
    {
      "midi": 69,
      "hit": false,
      "t": 92521.71600000017,
      "d": 173.91300000000047,
      "v": 127
    },
    {
      "midi": 48,
      "hit": false,
      "t": 92695.62900000013,
      "d": 173.91300000000047,
      "v": 127
    },
    {
      "midi": 65,
      "hit": false,
      "t": 92695.62900000018,
      "d": 173.91300000000047,
      "v": 127
    },
    {
      "midi": 52,
      "hit": false,
      "t": 92869.54200000013,
      "d": 173.91300000000047,
      "v": 127
    },
    {
      "midi": 71,
      "hit": false,
      "t": 92869.54200000018,
      "d": 173.91300000000047,
      "v": 127
    },
    {
      "midi": 55,
      "hit": false,
      "t": 93043.45500000013,
      "d": 173.91300000000047,
      "v": 127
    },
    {
      "midi": 67,
      "hit": false,
      "t": 93043.45500000018,
      "d": 173.91300000000047,
      "v": 127
    },
    {
      "midi": 59,
      "hit": false,
      "t": 93217.36800000013,
      "d": 173.91300000000047,
      "v": 127
    },
    {
      "midi": 64,
      "hit": false,
      "t": 93217.36800000018,
      "d": 173.91300000000047,
      "v": 127
    },
    {
      "midi": 62,
      "hit": false,
      "t": 93391.28100000013,
      "d": 173.91300000000047,
      "v": 127
    },
    {
      "midi": 64,
      "hit": false,
      "t": 93391.28100000018,
      "d": 173.91300000000047,
      "v": 127
    },
    {
      "midi": 59,
      "hit": false,
      "t": 93565.19400000013,
      "d": 173.91300000000047,
      "v": 127
    },
    {
      "midi": 67,
      "hit": false,
      "t": 93565.19400000018,
      "d": 173.91300000000047,
      "v": 127
    },
    {
      "midi": 55,
      "hit": false,
      "t": 93739.10700000013,
      "d": 173.91300000000047,
      "v": 127
    },
    {
      "midi": 71,
      "hit": false,
      "t": 93739.10700000018,
      "d": 173.91300000000047,
      "v": 127
    },
    {
      "midi": 57,
      "hit": false,
      "t": 93913.02000000014,
      "d": 173.91300000000047,
      "v": 127
    },
    {
      "midi": 62,
      "hit": false,
      "t": 93913.02000000018,
      "d": 173.91300000000047,
      "v": 127
    },
    {
      "midi": 62,
      "hit": false,
      "t": 94086.93300000014,
      "d": 173.91300000000047,
      "v": 127
    },
    {
      "midi": 65,
      "hit": false,
      "t": 94086.93300000018,
      "d": 173.91300000000047,
      "v": 127
    },
    {
      "midi": 60,
      "hit": false,
      "t": 94260.84600000014,
      "d": 173.91300000000047,
      "v": 127
    },
    {
      "midi": 69,
      "hit": false,
      "t": 94260.84600000018,
      "d": 173.91300000000047,
      "v": 127
    },
    {
      "midi": 57,
      "hit": false,
      "t": 94434.75900000014,
      "d": 173.91300000000047,
      "v": 127
    },
    {
      "midi": 72,
      "hit": false,
      "t": 94434.75900000018,
      "d": 173.91300000000047,
      "v": 127
    },
    {
      "midi": 53,
      "hit": false,
      "t": 94608.67200000014,
      "d": 173.91300000000047,
      "v": 127
    },
    {
      "midi": 69,
      "hit": false,
      "t": 94608.67200000018,
      "d": 173.91300000000047,
      "v": 127
    },
    {
      "midi": 50,
      "hit": false,
      "t": 94782.58500000014,
      "d": 173.91300000000047,
      "v": 127
    },
    {
      "midi": 72,
      "hit": false,
      "t": 94782.58500000018,
      "d": 173.91300000000047,
      "v": 127
    },
    {
      "midi": 57,
      "hit": false,
      "t": 94956.49800000014,
      "d": 173.91300000000047,
      "v": 127
    },
    {
      "midi": 64,
      "hit": false,
      "t": 94956.49800000018,
      "d": 173.91300000000047,
      "v": 127
    },
    {
      "midi": 55,
      "hit": false,
      "t": 95130.41100000014,
      "d": 173.91300000000047,
      "v": 127
    },
    {
      "midi": 69,
      "hit": false,
      "t": 95130.41100000018,
      "d": 173.91300000000047,
      "v": 127
    },
    {
      "midi": 52,
      "hit": false,
      "t": 95304.32400000014,
      "d": 173.91300000000047,
      "v": 127
    },
    {
      "midi": 72,
      "hit": false,
      "t": 95304.32400000018,
      "d": 173.91300000000047,
      "v": 127
    },
    {
      "midi": 48,
      "hit": false,
      "t": 95478.23700000014,
      "d": 173.91300000000047,
      "v": 127
    },
    {
      "midi": 76,
      "hit": false,
      "t": 95478.23700000018,
      "d": 173.91300000000047,
      "v": 127
    },
    {
      "midi": 52,
      "hit": false,
      "t": 95652.15000000014,
      "d": 173.91300000000047,
      "v": 127
    },
    {
      "midi": 72,
      "hit": false,
      "t": 95652.15000000018,
      "d": 173.91300000000047,
      "v": 127
    },
    {
      "midi": 57,
      "hit": false,
      "t": 95826.06300000014,
      "d": 173.91300000000047,
      "v": 127
    },
    {
      "midi": 69,
      "hit": false,
      "t": 95826.06300000018,
      "d": 173.91300000000047,
      "v": 127
    },
    {
      "midi": 57,
      "hit": false,
      "t": 95999.97600000014,
      "d": 173.91300000000047,
      "v": 127
    },
    {
      "midi": 76,
      "hit": false,
      "t": 95999.97600000018,
      "d": 173.91300000000047,
      "v": 127
    },
    {
      "midi": 55,
      "hit": false,
      "t": 96173.88900000014,
      "d": 173.91300000000047,
      "v": 127
    },
    {
      "midi": 72,
      "hit": false,
      "t": 96173.88900000018,
      "d": 173.91300000000047,
      "v": 127
    },
    {
      "midi": 57,
      "hit": false,
      "t": 96347.80200000014,
      "d": 173.91300000000047,
      "v": 127
    },
    {
      "midi": 69,
      "hit": false,
      "t": 96347.80200000019,
      "d": 173.91300000000047,
      "v": 127
    },
    {
      "midi": 57,
      "hit": false,
      "t": 96521.71500000014,
      "d": 173.91300000000047,
      "v": 127
    },
    {
      "midi": 76,
      "hit": false,
      "t": 96521.71500000019,
      "d": 173.91300000000047,
      "v": 127
    },
    {
      "midi": 52,
      "hit": false,
      "t": 96695.62800000014,
      "d": 173.91300000000047,
      "v": 127
    },
    {
      "midi": 72,
      "hit": false,
      "t": 96695.62800000019,
      "d": 173.91300000000047,
      "v": 127
    },
    {
      "midi": 57,
      "hit": false,
      "t": 96869.54100000014,
      "d": 173.91300000000047,
      "v": 127
    },
    {
      "midi": 69,
      "hit": false,
      "t": 96869.54100000019,
      "d": 173.91300000000047,
      "v": 127
    },
    {
      "midi": 60,
      "hit": false,
      "t": 97043.45400000014,
      "d": 173.91300000000047,
      "v": 127
    },
    {
      "midi": 76,
      "hit": false,
      "t": 97043.45400000019,
      "d": 173.91300000000047,
      "v": 127
    },
    {
      "midi": 57,
      "hit": false,
      "t": 97217.36700000014,
      "d": 173.91300000000047,
      "v": 127
    },
    {
      "midi": 72,
      "hit": false,
      "t": 97217.36700000019,
      "d": 173.91300000000047,
      "v": 127
    },
    {
      "midi": 60,
      "hit": false,
      "t": 97391.28000000014,
      "d": 173.91300000000047,
      "v": 127
    },
    {
      "midi": 69,
      "hit": false,
      "t": 97391.28000000019,
      "d": 173.91300000000047,
      "v": 127
    },
    {
      "midi": 64,
      "hit": false,
      "t": 97565.19300000014,
      "d": 173.91300000000047,
      "v": 127
    },
    {
      "midi": 76,
      "hit": false,
      "t": 97565.19300000019,
      "d": 173.91300000000047,
      "v": 127
    },
    {
      "midi": 60,
      "hit": false,
      "t": 97739.10600000015,
      "d": 173.91300000000047,
      "v": 127
    },
    {
      "midi": 72,
      "hit": false,
      "t": 97739.10600000019,
      "d": 173.91300000000047,
      "v": 127
    },
    {
      "midi": 64,
      "hit": false,
      "t": 97913.01900000015,
      "d": 173.91300000000047,
      "v": 127
    },
    {
      "midi": 69,
      "hit": false,
      "t": 97913.01900000019,
      "d": 173.91300000000047,
      "v": 127
    },
    {
      "midi": 59,
      "hit": false,
      "t": 98086.93200000015,
      "d": 173.91300000000047,
      "v": 127
    },
    {
      "midi": 74,
      "hit": false,
      "t": 98086.93200000019,
      "d": 173.91300000000047,
      "v": 127
    },
    {
      "midi": 67,
      "hit": false,
      "t": 98260.84500000015,
      "d": 173.91300000000047,
      "v": 127
    },
    {
      "midi": 71,
      "hit": false,
      "t": 98260.84500000019,
      "d": 173.91300000000047,
      "v": 127
    },
    {
      "midi": 65,
      "hit": false,
      "t": 98434.75800000015,
      "d": 173.91300000000047,
      "v": 127
    },
    {
      "midi": 67,
      "hit": false,
      "t": 98434.75800000019,
      "d": 173.91300000000047,
      "v": 127
    },
    {
      "midi": 62,
      "hit": false,
      "t": 98608.67100000015,
      "d": 173.91300000000047,
      "v": 127
    },
    {
      "midi": 74,
      "hit": false,
      "t": 98608.67100000019,
      "d": 173.91300000000047,
      "v": 127
    },
    {
      "midi": 59,
      "hit": false,
      "t": 98782.58400000015,
      "d": 173.91300000000047,
      "v": 127
    },
    {
      "midi": 71,
      "hit": false,
      "t": 98782.58400000019,
      "d": 173.91300000000047,
      "v": 127
    },
    {
      "midi": 55,
      "hit": false,
      "t": 98956.49700000015,
      "d": 173.91300000000047,
      "v": 127
    },
    {
      "midi": 67,
      "hit": false,
      "t": 98956.49700000019,
      "d": 173.91300000000047,
      "v": 127
    },
    {
      "midi": 53,
      "hit": false,
      "t": 99130.41000000015,
      "d": 173.91300000000047,
      "v": 127
    },
    {
      "midi": 74,
      "hit": false,
      "t": 99130.41000000019,
      "d": 173.91300000000047,
      "v": 127
    },
    {
      "midi": 50,
      "hit": false,
      "t": 99304.32300000015,
      "d": 173.91300000000047,
      "v": 127
    },
    {
      "midi": 71,
      "hit": false,
      "t": 99304.3230000002,
      "d": 173.91300000000047,
      "v": 127
    },
    {
      "midi": 53,
      "hit": false,
      "t": 99478.23600000015,
      "d": 173.91300000000047,
      "v": 127
    },
    {
      "midi": 67,
      "hit": false,
      "t": 99478.2360000002,
      "d": 173.91300000000047,
      "v": 127
    },
    {
      "midi": 55,
      "hit": false,
      "t": 99652.14900000015,
      "d": 173.91300000000047,
      "v": 127
    },
    {
      "midi": 74,
      "hit": false,
      "t": 99652.1490000002,
      "d": 173.91300000000047,
      "v": 127
    },
    {
      "midi": 59,
      "hit": false,
      "t": 99826.06200000015,
      "d": 173.91300000000047,
      "v": 127
    },
    {
      "midi": 71,
      "hit": false,
      "t": 99826.0620000002,
      "d": 173.91300000000047,
      "v": 127
    },
    {
      "midi": 62,
      "hit": false,
      "t": 99999.97500000015,
      "d": 173.91300000000047,
      "v": 127
    },
    {
      "midi": 67,
      "hit": false,
      "t": 99999.9750000002,
      "d": 173.91300000000047,
      "v": 127
    },
    {
      "midi": 60,
      "hit": false,
      "t": 100173.88800000015,
      "d": 173.91300000000047,
      "v": 127
    },
    {
      "midi": 65,
      "hit": false,
      "t": 100173.8880000002,
      "d": 173.91300000000047,
      "v": 127
    },
    {
      "midi": 57,
      "hit": false,
      "t": 100347.80100000015,
      "d": 173.91300000000047,
      "v": 127
    },
    {
      "midi": 69,
      "hit": false,
      "t": 100347.8010000002,
      "d": 173.91300000000047,
      "v": 127
    },
    {
      "midi": 53,
      "hit": false,
      "t": 100521.71400000015,
      "d": 173.91300000000047,
      "v": 127
    },
    {
      "midi": 72,
      "hit": false,
      "t": 100521.7140000002,
      "d": 173.91300000000047,
      "v": 127
    },
    {
      "midi": 60,
      "hit": false,
      "t": 100695.62700000015,
      "d": 173.91300000000047,
      "v": 127
    },
    {
      "midi": 76,
      "hit": false,
      "t": 100695.6270000002,
      "d": 173.91300000000047,
      "v": 127
    },
    {
      "midi": 59,
      "hit": false,
      "t": 100869.54000000015,
      "d": 173.91300000000047,
      "v": 127
    },
    {
      "midi": 74,
      "hit": false,
      "t": 100869.5400000002,
      "d": 173.91300000000047,
      "v": 127
    },
    {
      "midi": 57,
      "hit": false,
      "t": 101043.45300000015,
      "d": 173.91300000000047,
      "v": 127
    },
    {
      "midi": 72,
      "hit": false,
      "t": 101043.4530000002,
      "d": 173.91300000000047,
      "v": 127
    },
    {
      "midi": 55,
      "hit": false,
      "t": 101217.36600000015,
      "d": 173.91300000000047,
      "v": 127
    },
    {
      "midi": 71,
      "hit": false,
      "t": 101217.3660000002,
      "d": 173.91300000000047,
      "v": 127
    },
    {
      "midi": 57,
      "hit": false,
      "t": 101391.27900000016,
      "d": 173.91300000000047,
      "v": 127
    },
    {
      "midi": 72,
      "hit": false,
      "t": 101391.2790000002,
      "d": 173.91300000000047,
      "v": 127
    },
    {
      "midi": 55,
      "hit": false,
      "t": 101565.19200000016,
      "d": 173.91300000000047,
      "v": 127
    },
    {
      "midi": 71,
      "hit": false,
      "t": 101565.1920000002,
      "d": 173.91300000000047,
      "v": 127
    },
    {
      "midi": 53,
      "hit": false,
      "t": 101739.10500000016,
      "d": 173.91300000000047,
      "v": 127
    },
    {
      "midi": 69,
      "hit": false,
      "t": 101739.1050000002,
      "d": 173.91300000000047,
      "v": 127
    },
    {
      "midi": 52,
      "hit": false,
      "t": 101913.01800000016,
      "d": 173.91300000000047,
      "v": 127
    },
    {
      "midi": 71,
      "hit": false,
      "t": 101913.0180000002,
      "d": 173.91300000000047,
      "v": 127
    },
    {
      "midi": 57,
      "hit": false,
      "t": 102086.93100000016,
      "d": 173.91300000000047,
      "v": 127
    },
    {
      "midi": 72,
      "hit": false,
      "t": 102086.9310000002,
      "d": 173.91300000000047,
      "v": 127
    },
    {
      "midi": 56,
      "hit": false,
      "t": 102260.84400000016,
      "d": 173.91300000000047,
      "v": 127
    },
    {
      "midi": 71,
      "hit": false,
      "t": 102260.8440000002,
      "d": 173.91300000000047,
      "v": 127
    },
    {
      "midi": 52,
      "hit": false,
      "t": 102434.75700000016,
      "d": 173.91300000000047,
      "v": 127
    },
    {
      "midi": 72,
      "hit": false,
      "t": 102434.7570000002,
      "d": 173.91300000000047,
      "v": 127
    },
    {
      "midi": 56,
      "hit": false,
      "t": 102608.67000000016,
      "d": 173.91300000000047,
      "v": 127
    },
    {
      "midi": 74,
      "hit": false,
      "t": 102608.6700000002,
      "d": 173.91300000000047,
      "v": 127
    },
    {
      "midi": 62,
      "hit": false,
      "t": 102782.58300000016,
      "d": 173.91300000000047,
      "v": 127
    },
    {
      "midi": 76,
      "hit": false,
      "t": 102782.5830000002,
      "d": 173.91300000000047,
      "v": 127
    },
    {
      "midi": 60,
      "hit": false,
      "t": 102956.49600000016,
      "d": 173.91300000000047,
      "v": 127
    },
    {
      "midi": 74,
      "hit": false,
      "t": 102956.4960000002,
      "d": 173.91300000000047,
      "v": 127
    },
    {
      "midi": 59,
      "hit": false,
      "t": 103130.40900000016,
      "d": 173.91300000000047,
      "v": 127
    },
    {
      "midi": 72,
      "hit": false,
      "t": 103130.4090000002,
      "d": 173.91300000000047,
      "v": 127
    },
    {
      "midi": 55,
      "hit": false,
      "t": 103304.32200000016,
      "d": 173.91300000000047,
      "v": 127
    },
    {
      "midi": 71,
      "hit": false,
      "t": 103304.3220000002,
      "d": 173.91300000000047,
      "v": 127
    },
    {
      "midi": 50,
      "hit": false,
      "t": 103478.23500000016,
      "d": 173.91300000000047,
      "v": 127
    },
    {
      "midi": 72,
      "hit": false,
      "t": 103478.2350000002,
      "d": 173.91300000000047,
      "v": 127
    },
    {
      "midi": 55,
      "hit": false,
      "t": 103652.14800000016,
      "d": 173.91300000000047,
      "v": 127
    },
    {
      "midi": 71,
      "hit": false,
      "t": 103652.1480000002,
      "d": 173.91300000000047,
      "v": 127
    },
    {
      "midi": 53,
      "hit": false,
      "t": 103826.06100000016,
      "d": 173.91300000000047,
      "v": 127
    },
    {
      "midi": 69,
      "hit": false,
      "t": 103826.0610000002,
      "d": 173.91300000000047,
      "v": 127
    },
    {
      "midi": 48,
      "hit": false,
      "t": 103999.97400000016,
      "d": 173.91300000000047,
      "v": 127
    },
    {
      "midi": 67,
      "hit": false,
      "t": 103999.9740000002,
      "d": 173.91300000000047,
      "v": 127
    },
    {
      "midi": 53,
      "hit": false,
      "t": 104173.88700000016,
      "d": 173.91300000000047,
      "v": 127
    },
    {
      "midi": 65,
      "hit": false,
      "t": 104173.8870000002,
      "d": 173.91300000000047,
      "v": 127
    },
    {
      "midi": 59,
      "hit": false,
      "t": 104347.80000000016,
      "d": 173.91300000000047,
      "v": 127
    },
    {
      "midi": 64,
      "hit": false,
      "t": 104347.8000000002,
      "d": 173.91300000000047,
      "v": 127
    },
    {
      "midi": 55,
      "hit": false,
      "t": 104521.71300000016,
      "d": 173.91300000000047,
      "v": 127
    },
    {
      "midi": 67,
      "hit": false,
      "t": 104521.7130000002,
      "d": 173.91300000000047,
      "v": 127
    },
    {
      "midi": 52,
      "hit": false,
      "t": 104695.62600000016,
      "d": 173.91300000000047,
      "v": 127
    },
    {
      "midi": 71,
      "hit": false,
      "t": 104695.62600000021,
      "d": 173.91300000000047,
      "v": 127
    },
    {
      "midi": 52,
      "hit": false,
      "t": 104869.53900000016,
      "d": 173.91300000000047,
      "v": 127
    },
    {
      "midi": 64,
      "hit": false,
      "t": 104869.53900000021,
      "d": 173.91300000000047,
      "v": 127
    },
    {
      "midi": 55,
      "hit": false,
      "t": 105043.45200000016,
      "d": 173.91300000000047,
      "v": 127
    },
    {
      "midi": 67,
      "hit": false,
      "t": 105043.45200000021,
      "d": 173.91300000000047,
      "v": 127
    },
    {
      "midi": 59,
      "hit": false,
      "t": 105217.36500000017,
      "d": 173.91300000000047,
      "v": 127
    },
    {
      "midi": 71,
      "hit": false,
      "t": 105217.36500000021,
      "d": 173.91300000000047,
      "v": 127
    },
    {
      "midi": 64,
      "hit": false,
      "t": 105391.27800000017,
      "d": 521.7390000000014,
      "v": 127
    },
    {
      "midi": 64,
      "hit": false,
      "t": 105391.27800000021,
      "d": 173.91300000000047,
      "v": 127
    },
    {
      "midi": 67,
      "hit": false,
      "t": 105565.19100000021,
      "d": 173.91300000000047,
      "v": 127
    },
    {
      "midi": 71,
      "hit": false,
      "t": 105739.10400000021,
      "d": 173.91300000000047,
      "v": 127
    },
    {
      "midi": 64,
      "hit": false,
      "t": 105913.01700000017,
      "d": 173.91300000000047,
      "v": 127
    },
    {
      "midi": 64,
      "hit": false,
      "t": 105913.01700000021,
      "d": 173.91300000000047,
      "v": 127
    },
    {
      "midi": 62,
      "hit": false,
      "t": 106086.93000000017,
      "d": 173.91300000000047,
      "v": 127
    },
    {
      "midi": 67,
      "hit": false,
      "t": 106086.93000000021,
      "d": 173.91300000000047,
      "v": 127
    },
    {
      "midi": 59,
      "hit": false,
      "t": 106260.84300000017,
      "d": 173.91300000000047,
      "v": 127
    },
    {
      "midi": 71,
      "hit": false,
      "t": 106260.84300000021,
      "d": 173.91300000000047,
      "v": 127
    },
    {
      "midi": 57,
      "hit": false,
      "t": 106434.75600000017,
      "d": 173.91300000000047,
      "v": 127
    },
    {
      "midi": 62,
      "hit": false,
      "t": 106434.75600000021,
      "d": 173.91300000000047,
      "v": 127
    },
    {
      "midi": 54,
      "hit": false,
      "t": 106608.66900000017,
      "d": 173.91300000000047,
      "v": 127
    },
    {
      "midi": 66,
      "hit": false,
      "t": 106608.66900000021,
      "d": 173.91300000000047,
      "v": 127
    },
    {
      "midi": 50,
      "hit": false,
      "t": 106782.58200000017,
      "d": 173.91300000000047,
      "v": 127
    },
    {
      "midi": 69,
      "hit": false,
      "t": 106782.58200000021,
      "d": 173.91300000000047,
      "v": 127
    },
    {
      "midi": 50,
      "hit": false,
      "t": 106956.49500000017,
      "d": 173.91300000000047,
      "v": 127
    },
    {
      "midi": 62,
      "hit": false,
      "t": 106956.49500000021,
      "d": 173.91300000000047,
      "v": 127
    },
    {
      "midi": 54,
      "hit": false,
      "t": 107130.40800000017,
      "d": 173.91300000000047,
      "v": 127
    },
    {
      "midi": 66,
      "hit": false,
      "t": 107130.40800000021,
      "d": 173.91300000000047,
      "v": 127
    },
    {
      "midi": 57,
      "hit": false,
      "t": 107304.32100000017,
      "d": 173.91300000000047,
      "v": 127
    },
    {
      "midi": 69,
      "hit": false,
      "t": 107304.32100000021,
      "d": 173.91300000000047,
      "v": 127
    },
    {
      "midi": 62,
      "hit": false,
      "t": 107478.23400000017,
      "d": 173.91300000000047,
      "v": 127
    },
    {
      "midi": 62,
      "hit": false,
      "t": 107478.23400000022,
      "d": 173.91300000000047,
      "v": 127
    },
    {
      "midi": 60,
      "hit": false,
      "t": 107652.14700000017,
      "d": 173.91300000000047,
      "v": 127
    },
    {
      "midi": 66,
      "hit": false,
      "t": 107652.14700000022,
      "d": 173.91300000000047,
      "v": 127
    },
    {
      "midi": 57,
      "hit": false,
      "t": 107826.06000000017,
      "d": 173.91300000000047,
      "v": 127
    },
    {
      "midi": 69,
      "hit": false,
      "t": 107826.06000000022,
      "d": 173.91300000000047,
      "v": 127
    },
    {
      "midi": 57,
      "hit": false,
      "t": 107999.97300000017,
      "d": 173.91300000000047,
      "v": 127
    },
    {
      "midi": 62,
      "hit": false,
      "t": 107999.97300000022,
      "d": 173.91300000000047,
      "v": 127
    },
    {
      "midi": 54,
      "hit": false,
      "t": 108173.88600000017,
      "d": 173.91300000000047,
      "v": 127
    },
    {
      "midi": 66,
      "hit": false,
      "t": 108173.88600000022,
      "d": 173.91300000000047,
      "v": 127
    },
    {
      "midi": 50,
      "hit": false,
      "t": 108347.79900000017,
      "d": 173.91300000000047,
      "v": 127
    },
    {
      "midi": 69,
      "hit": false,
      "t": 108347.79900000022,
      "d": 173.91300000000047,
      "v": 127
    },
    {
      "midi": 54,
      "hit": false,
      "t": 108521.71200000017,
      "d": 173.91300000000047,
      "v": 127
    },
    {
      "midi": 66,
      "hit": false,
      "t": 108521.71200000022,
      "d": 173.91300000000047,
      "v": 127
    },
    {
      "midi": 57,
      "hit": false,
      "t": 108695.62500000017,
      "d": 173.91300000000047,
      "v": 127
    },
    {
      "midi": 69,
      "hit": false,
      "t": 108695.62500000022,
      "d": 173.91300000000047,
      "v": 127
    },
    {
      "midi": 60,
      "hit": false,
      "t": 108869.53800000018,
      "d": 173.91300000000047,
      "v": 127
    },
    {
      "midi": 72,
      "hit": false,
      "t": 108869.53800000022,
      "d": 173.91300000000047,
      "v": 127
    },
    {
      "midi": 63,
      "hit": false,
      "t": 109043.45100000018,
      "d": 173.91300000000047,
      "v": 127
    },
    {
      "midi": 66,
      "hit": false,
      "t": 109043.45100000022,
      "d": 173.91300000000047,
      "v": 127
    },
    {
      "midi": 60,
      "hit": false,
      "t": 109217.36400000018,
      "d": 173.91300000000047,
      "v": 127
    },
    {
      "midi": 69,
      "hit": false,
      "t": 109217.36400000022,
      "d": 173.91300000000047,
      "v": 127
    },
    {
      "midi": 57,
      "hit": false,
      "t": 109391.27700000018,
      "d": 173.91300000000047,
      "v": 127
    },
    {
      "midi": 72,
      "hit": false,
      "t": 109391.27700000022,
      "d": 173.91300000000047,
      "v": 127
    },
    {
      "midi": 54,
      "hit": false,
      "t": 109565.19000000018,
      "d": 173.91300000000047,
      "v": 127
    },
    {
      "midi": 66,
      "hit": false,
      "t": 109565.19000000022,
      "d": 173.91300000000047,
      "v": 127
    },
    {
      "midi": 57,
      "hit": false,
      "t": 109739.10300000018,
      "d": 173.91300000000047,
      "v": 127
    },
    {
      "midi": 69,
      "hit": false,
      "t": 109739.10300000022,
      "d": 173.91300000000047,
      "v": 127
    },
    {
      "midi": 54,
      "hit": false,
      "t": 109913.01600000018,
      "d": 173.91300000000047,
      "v": 127
    },
    {
      "midi": 72,
      "hit": false,
      "t": 109913.01600000022,
      "d": 173.91300000000047,
      "v": 127
    },
    {
      "midi": 51,
      "hit": false,
      "t": 110086.92900000018,
      "d": 173.91300000000047,
      "v": 127
    },
    {
      "midi": 66,
      "hit": false,
      "t": 110086.92900000022,
      "d": 173.91300000000047,
      "v": 127
    },
    {
      "midi": 48,
      "hit": false,
      "t": 110260.84200000018,
      "d": 173.91300000000047,
      "v": 127
    },
    {
      "midi": 69,
      "hit": false,
      "t": 110260.84200000022,
      "d": 173.91300000000047,
      "v": 127
    },
    {
      "midi": 51,
      "hit": false,
      "t": 110434.75500000018,
      "d": 173.91300000000047,
      "v": 127
    },
    {
      "midi": 72,
      "hit": false,
      "t": 110434.75500000022,
      "d": 173.91300000000047,
      "v": 127
    },
    {
      "midi": 59,
      "hit": false,
      "t": 110608.66800000018,
      "d": 173.91300000000047,
      "v": 127
    },
    {
      "midi": 64,
      "hit": false,
      "t": 110608.66800000022,
      "d": 173.91300000000047,
      "v": 127
    },
    {
      "midi": 55,
      "hit": false,
      "t": 110782.58100000018,
      "d": 173.91300000000047,
      "v": 127
    },
    {
      "midi": 67,
      "hit": false,
      "t": 110782.58100000022,
      "d": 173.91300000000047,
      "v": 127
    },
    {
      "midi": 52,
      "hit": false,
      "t": 110956.49400000018,
      "d": 173.91300000000047,
      "v": 127
    },
    {
      "midi": 71,
      "hit": false,
      "t": 110956.49400000022,
      "d": 173.91300000000047,
      "v": 127
    },
    {
      "midi": 52,
      "hit": false,
      "t": 111130.40700000018,
      "d": 173.91300000000047,
      "v": 127
    },
    {
      "midi": 64,
      "hit": false,
      "t": 111130.40700000022,
      "d": 173.91300000000047,
      "v": 127
    },
    {
      "midi": 55,
      "hit": false,
      "t": 111304.32000000018,
      "d": 173.91300000000047,
      "v": 127
    },
    {
      "midi": 67,
      "hit": false,
      "t": 111304.32000000023,
      "d": 173.91300000000047,
      "v": 127
    },
    {
      "midi": 59,
      "hit": false,
      "t": 111478.23300000018,
      "d": 173.91300000000047,
      "v": 127
    },
    {
      "midi": 71,
      "hit": false,
      "t": 111478.23300000023,
      "d": 173.91300000000047,
      "v": 127
    },
    {
      "midi": 59,
      "hit": false,
      "t": 111652.14600000018,
      "d": 173.91300000000047,
      "v": 127
    },
    {
      "midi": 64,
      "hit": false,
      "t": 111652.14600000023,
      "d": 173.91300000000047,
      "v": 127
    },
    {
      "midi": 60,
      "hit": false,
      "t": 111826.05900000018,
      "d": 173.91300000000047,
      "v": 127
    },
    {
      "midi": 67,
      "hit": false,
      "t": 111826.05900000023,
      "d": 173.91300000000047,
      "v": 127
    },
    {
      "midi": 62,
      "hit": false,
      "t": 111999.97200000018,
      "d": 173.91300000000047,
      "v": 127
    },
    {
      "midi": 71,
      "hit": false,
      "t": 111999.97200000023,
      "d": 173.91300000000047,
      "v": 127
    },
    {
      "midi": 64,
      "hit": false,
      "t": 112173.88500000018,
      "d": 173.91300000000047,
      "v": 127
    },
    {
      "midi": 72,
      "hit": false,
      "t": 112173.88500000023,
      "d": 173.91300000000047,
      "v": 127
    },
    {
      "midi": 62,
      "hit": false,
      "t": 112347.79800000018,
      "d": 173.91300000000047,
      "v": 127
    },
    {
      "midi": 71,
      "hit": false,
      "t": 112347.79800000023,
      "d": 173.91300000000047,
      "v": 127
    },
    {
      "midi": 60,
      "hit": false,
      "t": 112521.71100000018,
      "d": 173.91300000000047,
      "v": 127
    },
    {
      "midi": 69,
      "hit": false,
      "t": 112521.71100000023,
      "d": 173.91300000000047,
      "v": 127
    },
    {
      "midi": 57,
      "hit": false,
      "t": 112695.62400000019,
      "d": 347.82600000000093,
      "v": 127
    },
    {
      "midi": 76,
      "hit": false,
      "t": 112695.62400000023,
      "d": 173.91300000000047,
      "v": 127
    },
    {
      "midi": 72,
      "hit": false,
      "t": 112869.53700000023,
      "d": 173.91300000000047,
      "v": 127
    },
    {
      "midi": 59,
      "hit": false,
      "t": 113043.45000000019,
      "d": 173.91300000000047,
      "v": 127
    },
    {
      "midi": 69,
      "hit": false,
      "t": 113043.45000000023,
      "d": 173.91300000000047,
      "v": 127
    },
    {
      "midi": 60,
      "hit": false,
      "t": 113217.36300000019,
      "d": 173.91300000000047,
      "v": 127
    },
    {
      "midi": 76,
      "hit": false,
      "t": 113217.36300000023,
      "d": 173.91300000000047,
      "v": 127
    },
    {
      "midi": 59,
      "hit": false,
      "t": 113391.27600000019,
      "d": 173.91300000000047,
      "v": 127
    },
    {
      "midi": 72,
      "hit": false,
      "t": 113391.27600000023,
      "d": 173.91300000000047,
      "v": 127
    },
    {
      "midi": 57,
      "hit": false,
      "t": 113565.18900000019,
      "d": 173.91300000000047,
      "v": 127
    },
    {
      "midi": 69,
      "hit": false,
      "t": 113565.18900000023,
      "d": 173.91300000000047,
      "v": 127
    },
    {
      "midi": 64,
      "hit": false,
      "t": 113739.10200000019,
      "d": 521.7390000000014,
      "v": 127
    },
    {
      "midi": 76,
      "hit": false,
      "t": 113739.10200000023,
      "d": 173.91300000000047,
      "v": 127
    },
    {
      "midi": 72,
      "hit": false,
      "t": 113913.01500000023,
      "d": 173.91300000000047,
      "v": 127
    },
    {
      "midi": 69,
      "hit": false,
      "t": 114086.92800000023,
      "d": 173.91300000000047,
      "v": 127
    },
    {
      "midi": 62,
      "hit": false,
      "t": 114260.84100000019,
      "d": 173.91300000000047,
      "v": 127
    },
    {
      "midi": 76,
      "hit": false,
      "t": 114260.84100000023,
      "d": 173.91300000000047,
      "v": 127
    },
    {
      "midi": 60,
      "hit": false,
      "t": 114434.75400000019,
      "d": 173.91300000000047,
      "v": 127
    },
    {
      "midi": 72,
      "hit": false,
      "t": 114434.75400000023,
      "d": 173.91300000000047,
      "v": 127
    },
    {
      "midi": 59,
      "hit": false,
      "t": 114608.66700000019,
      "d": 173.91300000000047,
      "v": 127
    },
    {
      "midi": 69,
      "hit": false,
      "t": 114608.66700000023,
      "d": 173.91300000000047,
      "v": 127
    },
    {
      "midi": 55,
      "hit": false,
      "t": 114782.58000000019,
      "d": 347.82600000000093,
      "v": 127
    },
    {
      "midi": 74,
      "hit": false,
      "t": 114782.58000000023,
      "d": 173.91300000000047,
      "v": 127
    },
    {
      "midi": 71,
      "hit": false,
      "t": 114956.49300000024,
      "d": 173.91300000000047,
      "v": 127
    },
    {
      "midi": 57,
      "hit": false,
      "t": 115130.40600000019,
      "d": 173.91300000000047,
      "v": 127
    },
    {
      "midi": 67,
      "hit": false,
      "t": 115130.40600000024,
      "d": 173.91300000000047,
      "v": 127
    },
    {
      "midi": 59,
      "hit": false,
      "t": 115304.31900000019,
      "d": 173.91300000000047,
      "v": 127
    },
    {
      "midi": 74,
      "hit": false,
      "t": 115304.31900000024,
      "d": 173.91300000000047,
      "v": 127
    },
    {
      "midi": 57,
      "hit": false,
      "t": 115478.2320000002,
      "d": 173.91300000000047,
      "v": 127
    },
    {
      "midi": 71,
      "hit": false,
      "t": 115478.23200000024,
      "d": 173.91300000000047,
      "v": 127
    },
    {
      "midi": 55,
      "hit": false,
      "t": 115652.1450000002,
      "d": 173.91300000000047,
      "v": 127
    },
    {
      "midi": 67,
      "hit": false,
      "t": 115652.14500000024,
      "d": 173.91300000000047,
      "v": 127
    },
    {
      "midi": 62,
      "hit": false,
      "t": 115826.0580000002,
      "d": 521.7390000000014,
      "v": 127
    },
    {
      "midi": 74,
      "hit": false,
      "t": 115826.05800000024,
      "d": 173.91300000000047,
      "v": 127
    },
    {
      "midi": 71,
      "hit": false,
      "t": 115999.97100000024,
      "d": 173.91300000000047,
      "v": 127
    },
    {
      "midi": 67,
      "hit": false,
      "t": 116173.88400000024,
      "d": 173.91300000000047,
      "v": 127
    },
    {
      "midi": 62,
      "hit": false,
      "t": 116347.7970000002,
      "d": 173.91300000000047,
      "v": 127
    },
    {
      "midi": 74,
      "hit": false,
      "t": 116347.79700000024,
      "d": 173.91300000000047,
      "v": 127
    },
    {
      "midi": 60,
      "hit": false,
      "t": 116521.7100000002,
      "d": 173.91300000000047,
      "v": 127
    },
    {
      "midi": 71,
      "hit": false,
      "t": 116521.71000000024,
      "d": 173.91300000000047,
      "v": 127
    },
    {
      "midi": 59,
      "hit": false,
      "t": 116695.6230000002,
      "d": 173.91300000000047,
      "v": 127
    },
    {
      "midi": 67,
      "hit": false,
      "t": 116695.62300000024,
      "d": 173.91300000000047,
      "v": 127
    },
    {
      "midi": 53,
      "hit": false,
      "t": 116869.5360000002,
      "d": 173.91300000000047,
      "v": 127
    },
    {
      "midi": 69,
      "hit": false,
      "t": 116869.53600000024,
      "d": 173.91300000000047,
      "v": 127
    },
    {
      "midi": 57,
      "hit": false,
      "t": 117043.4490000002,
      "d": 173.91300000000047,
      "v": 127
    },
    {
      "midi": 65,
      "hit": false,
      "t": 117043.44900000024,
      "d": 173.91300000000047,
      "v": 127
    },
    {
      "midi": 59,
      "hit": false,
      "t": 117217.3620000002,
      "d": 173.91300000000047,
      "v": 127
    },
    {
      "midi": 69,
      "hit": false,
      "t": 117217.36200000024,
      "d": 173.91300000000047,
      "v": 127
    },
    {
      "midi": 60,
      "hit": false,
      "t": 117391.2750000002,
      "d": 173.91300000000047,
      "v": 127
    },
    {
      "midi": 72,
      "hit": false,
      "t": 117391.27500000024,
      "d": 173.91300000000047,
      "v": 127
    },
    {
      "midi": 62,
      "hit": false,
      "t": 117565.1880000002,
      "d": 173.91300000000047,
      "v": 127
    },
    {
      "midi": 69,
      "hit": false,
      "t": 117565.18800000024,
      "d": 173.91300000000047,
      "v": 127
    },
    {
      "midi": 60,
      "hit": false,
      "t": 117739.1010000002,
      "d": 173.91300000000047,
      "v": 127
    },
    {
      "midi": 72,
      "hit": false,
      "t": 117739.10100000024,
      "d": 173.91300000000047,
      "v": 127
    },
    {
      "midi": 54,
      "hit": false,
      "t": 117913.0140000002,
      "d": 173.91300000000047,
      "v": 127
    },
    {
      "midi": 74,
      "hit": false,
      "t": 117913.01400000024,
      "d": 173.91300000000047,
      "v": 127
    },
    {
      "midi": 57,
      "hit": false,
      "t": 118086.9270000002,
      "d": 173.91300000000047,
      "v": 127
    },
    {
      "midi": 72,
      "hit": false,
      "t": 118086.92700000024,
      "d": 173.91300000000047,
      "v": 127
    },
    {
      "midi": 59,
      "hit": false,
      "t": 118260.8400000002,
      "d": 173.91300000000047,
      "v": 127
    },
    {
      "midi": 71,
      "hit": false,
      "t": 118260.84000000024,
      "d": 173.91300000000047,
      "v": 127
    },
    {
      "midi": 60,
      "hit": false,
      "t": 118434.7530000002,
      "d": 173.91300000000047,
      "v": 127
    },
    {
      "midi": 69,
      "hit": false,
      "t": 118434.75300000024,
      "d": 173.91300000000047,
      "v": 127
    },
    {
      "midi": 62,
      "hit": false,
      "t": 118608.6660000002,
      "d": 173.91300000000047,
      "v": 127
    },
    {
      "midi": 71,
      "hit": false,
      "t": 118608.66600000024,
      "d": 173.91300000000047,
      "v": 127
    },
    {
      "midi": 60,
      "hit": false,
      "t": 118782.5790000002,
      "d": 173.91300000000047,
      "v": 127
    },
    {
      "midi": 69,
      "hit": false,
      "t": 118782.57900000025,
      "d": 173.91300000000047,
      "v": 127
    },
    {
      "midi": 59,
      "hit": false,
      "t": 118956.4920000002,
      "d": 782.6085000000021,
      "v": 127
    },
    {
      "midi": 68,
      "hit": false,
      "t": 118956.49200000025,
      "d": 782.6085000000021,
      "v": 127
    },
    {
      "midi": 60,
      "hit": false,
      "t": 119999.9700000002,
      "d": 0,
      "v": 127
    },
    {
      "midi": 69,
      "hit": false,
      "t": 119999.97000000025,
      "d": 0,
      "v": 127
    }
  ]
}