{
  "jsonPath": "Soul/Neo Soul/Jaheim/interlude-answering-machine-album-version.json",
  "path": "Soul\\Neo Soul\\Jaheim\\Interlude Answering Machine (Album Version).mid",
  "name": "Interlude Answering Machine (Album Version)",
  "difficulty": "Advanced",
  "bpm": 72.00002880001152,
  "notes": [
    {
      "midi": 31,
      "hit": false,
      "t": 21730.042041666668,
      "d": 2971.01033333335,
      "v": 106
    },
    {
      "midi": 55,
      "hit": false,
      "t": 21739.100000000002,
      "d": 425.72404166667184,
      "v": 91
    },
    {
      "midi": 43,
      "hit": false,
      "t": 21739.100000000002,
      "d": 2998.1842083333504,
      "v": 97
    },
    {
      "midi": 58,
      "hit": false,
      "t": 21748.157958333337,
      "d": 434.7820000000065,
      "v": 81
    },
    {
      "midi": 62,
      "hit": false,
      "t": 21757.21591666667,
      "d": 416.66608333333716,
      "v": 96
    },
    {
      "midi": 55,
      "hit": false,
      "t": 22173.88200000001,
      "d": 452.8979166666686,
      "v": 93
    },
    {
      "midi": 58,
      "hit": false,
      "t": 22608.66400000001,
      "d": 443.8399583333339,
      "v": 90
    },
    {
      "midi": 62,
      "hit": false,
      "t": 23043.44600000001,
      "d": 443.83995833333756,
      "v": 97
    },
    {
      "midi": 67,
      "hit": false,
      "t": 23478.228000000014,
      "d": 425.7240416666682,
      "v": 105
    },
    {
      "midi": 62,
      "hit": false,
      "t": 23913.010000000017,
      "d": 615.9411666666674,
      "v": 101
    },
    {
      "midi": 58,
      "hit": false,
      "t": 24347.792000000016,
      "d": 416.66608333333716,
      "v": 88
    },
    {
      "midi": 55,
      "hit": false,
      "t": 24782.57400000002,
      "d": 90.57958333333227,
      "v": 87
    },
    {
      "midi": 34,
      "hit": false,
      "t": 25153.950291666686,
      "d": 3143.111541666669,
      "v": 97
    },
    {
      "midi": 46,
      "hit": false,
      "t": 25181.124166666687,
      "d": 3143.111541666669,
      "v": 91
    },
    {
      "midi": 56,
      "hit": false,
      "t": 25190.18212500002,
      "d": 1675.7222916666688,
      "v": 80
    },
    {
      "midi": 58,
      "hit": false,
      "t": 25208.298041666687,
      "d": 1702.8961666666692,
      "v": 93
    },
    {
      "midi": 62,
      "hit": false,
      "t": 25235.471916666687,
      "d": 1603.2586250000022,
      "v": 89
    },
    {
      "midi": 65,
      "hit": false,
      "t": 25253.587833333353,
      "d": 1612.316583333337,
      "v": 96
    },
    {
      "midi": 63,
      "hit": false,
      "t": 28695.612000000023,
      "d": 262.68079166666575,
      "v": 81
    },
    {
      "midi": 67,
      "hit": false,
      "t": 28695.612000000023,
      "d": 416.6660833333335,
      "v": 99
    },
    {
      "midi": 39,
      "hit": false,
      "t": 28695.612000000023,
      "d": 2644.9238333333305,
      "v": 88
    },
    {
      "midi": 51,
      "hit": false,
      "t": 28695.612000000023,
      "d": 2644.9238333333305,
      "v": 100
    },
    {
      "midi": 63,
      "hit": false,
      "t": 29130.394000000022,
      "d": 498.1877083333311,
      "v": 91
    },
    {
      "midi": 67,
      "hit": false,
      "t": 29565.17600000002,
      "d": 344.202416666667,
      "v": 104
    },
    {
      "midi": 70,
      "hit": false,
      "t": 29999.95800000002,
      "d": 153.98529166666776,
      "v": 81
    },
    {
      "midi": 68,
      "hit": false,
      "t": 30434.74000000002,
      "d": 163.0432499999988,
      "v": 88
    },
    {
      "midi": 72,
      "hit": false,
      "t": 30434.74000000002,
      "d": 326.0864999999976,
      "v": 102
    },
    {
      "midi": 63,
      "hit": false,
      "t": 30434.74000000002,
      "d": 407.60812499999884,
      "v": 85
    },
    {
      "midi": 75,
      "hit": false,
      "t": 30869.52200000002,
      "d": 380.4342499999984,
      "v": 107
    },
    {
      "midi": 67,
      "hit": false,
      "t": 31304.30400000002,
      "d": 416.6660833333335,
      "v": 103
    },
    {
      "midi": 70,
      "hit": false,
      "t": 31304.30400000002,
      "d": 452.89791666666497,
      "v": 89
    },
    {
      "midi": 75,
      "hit": false,
      "t": 31739.086000000018,
      "d": 54.347750000000815,
      "v": 101
    },
    {
      "midi": 70,
      "hit": false,
      "t": 32173.868000000017,
      "d": 389.4922083333331,
      "v": 84
    },
    {
      "midi": 67,
      "hit": false,
      "t": 32173.868000000017,
      "d": 398.5501666666678,
      "v": 97
    },
    {
      "midi": 60,
      "hit": false,
      "t": 32173.868000000017,
      "d": 407.6081250000025,
      "v": 84
    },
    {
      "midi": 63,
      "hit": false,
      "t": 32173.868000000017,
      "d": 416.66608333333716,
      "v": 85
    },
    {
      "midi": 36,
      "hit": false,
      "t": 32173.868000000017,
      "d": 2182.9679583333345,
      "v": 96
    },
    {
      "midi": 48,
      "hit": false,
      "t": 32173.868000000017,
      "d": 2210.141833333335,
      "v": 96
    },
    {
      "midi": 67,
      "hit": false,
      "t": 33043.43200000002,
      "d": 108.69550000000163,
      "v": 102
    },
    {
      "midi": 70,
      "hit": false,
      "t": 33043.43200000002,
      "d": 117.75345833333267,
      "v": 79
    },
    {
      "midi": 63,
      "hit": false,
      "t": 33043.43200000002,
      "d": 126.81141666666372,
      "v": 84
    },
    {
      "midi": 60,
      "hit": false,
      "t": 33043.43200000002,
      "d": 135.86937499999476,
      "v": 81
    },
    {
      "midi": 60,
      "hit": false,
      "t": 33478.214000000014,
      "d": 425.7240416666682,
      "v": 80
    },
    {
      "midi": 63,
      "hit": false,
      "t": 33478.214000000014,
      "d": 425.7240416666682,
      "v": 83
    },
    {
      "midi": 67,
      "hit": false,
      "t": 33478.214000000014,
      "d": 443.83995833333756,
      "v": 90
    },
    {
      "midi": 67,
      "hit": false,
      "t": 34347.77800000002,
      "d": 525.3615833333315,
      "v": 93
    },
    {
      "midi": 70,
      "hit": false,
      "t": 34347.77800000002,
      "d": 552.5354583333319,
      "v": 92
    },
    {
      "midi": 63,
      "hit": false,
      "t": 34347.77800000002,
      "d": 570.6513750000013,
      "v": 80
    },
    {
      "midi": 60,
      "hit": false,
      "t": 34347.77800000002,
      "d": 579.7093333333323,
      "v": 70
    },
    {
      "midi": 63,
      "hit": false,
      "t": 35652.12400000002,
      "d": 778.9844166666662,
      "v": 82
    },
    {
      "midi": 65,
      "hit": false,
      "t": 35652.12400000002,
      "d": 815.2162499999977,
      "v": 97
    },
    {
      "midi": 60,
      "hit": false,
      "t": 35652.12400000002,
      "d": 842.3901249999981,
      "v": 80
    },
    {
      "midi": 53,
      "hit": false,
      "t": 35652.12400000002,
      "d": 3505.429875000009,
      "v": 90
    },
    {
      "midi": 41,
      "hit": false,
      "t": 35652.12400000002,
      "d": 3514.48783333334,
      "v": 82
    },
    {
      "midi": 67,
      "hit": false,
      "t": 36521.68800000002,
      "d": 81.52162500000122,
      "v": 58
    },
    {
      "midi": 63,
      "hit": false,
      "t": 36956.470000000016,
      "d": 615.941166666671,
      "v": 82
    },
    {
      "midi": 65,
      "hit": false,
      "t": 36956.470000000016,
      "d": 652.1730000000025,
      "v": 100
    },
    {
      "midi": 60,
      "hit": false,
      "t": 36956.470000000016,
      "d": 670.2889166666719,
      "v": 80
    },
    {
      "midi": 69,
      "hit": false,
      "t": 36956.470000000016,
      "d": 688.4048333333412,
      "v": 89
    },
    {
      "midi": 66,
      "hit": false,
      "t": 39130.38000000003,
      "d": 371.3762916666674,
      "v": 66
    },
    {
      "midi": 71,
      "hit": false,
      "t": 39130.38000000003,
      "d": 371.3762916666674,
      "v": 75
    },
    {
      "midi": 63,
      "hit": false,
      "t": 39130.38000000003,
      "d": 398.5501666666678,
      "v": 55
    },
    {
      "midi": 62,
      "hit": false,
      "t": 39999.944000000025,
      "d": 153.98529166666412,
      "v": 72
    },
    {
      "midi": 65,
      "hit": false,
      "t": 39999.944000000025,
      "d": 163.04324999999517,
      "v": 71
    },
    {
      "midi": 70,
      "hit": false,
      "t": 39999.944000000025,
      "d": 181.15916666666453,
      "v": 67
    },
    {
      "midi": 61,
      "hit": false,
      "t": 40869.50800000002,
      "d": 126.81141666666372,
      "v": 38
    },
    {
      "midi": 64,
      "hit": false,
      "t": 40869.50800000002,
      "d": 135.86937499999476,
      "v": 75
    },
    {
      "midi": 69,
      "hit": false,
      "t": 40869.50800000002,
      "d": 144.9273333333258,
      "v": 69
    },
    {
      "midi": 62,
      "hit": false,
      "t": 41739.072000000015,
      "d": 126.81141666666372,
      "v": 75
    },
    {
      "midi": 65,
      "hit": false,
      "t": 41739.072000000015,
      "d": 144.92733333333308,
      "v": 70
    },
    {
      "midi": 70,
      "hit": false,
      "t": 41739.072000000015,
      "d": 163.04325000000244,
      "v": 73
    },
    {
      "midi": 66,
      "hit": false,
      "t": 42608.63600000002,
      "d": 353.260374999998,
      "v": 87
    },
    {
      "midi": 71,
      "hit": false,
      "t": 42608.63600000002,
      "d": 362.31833333332906,
      "v": 98
    },
    {
      "midi": 63,
      "hit": false,
      "t": 42608.63600000002,
      "d": 371.3762916666601,
      "v": 82
    },
    {
      "midi": 62,
      "hit": false,
      "t": 43478.20000000001,
      "d": 217.39100000000326,
      "v": 83
    },
    {
      "midi": 70,
      "hit": false,
      "t": 43478.20000000001,
      "d": 217.39100000000326,
      "v": 71
    },
    {
      "midi": 65,
      "hit": false,
      "t": 43478.20000000001,
      "d": 226.4489583333343,
      "v": 84
    },
    {
      "midi": 69,
      "hit": false,
      "t": 44347.76400000001,
      "d": 172.1012083333335,
      "v": 91
    },
    {
      "midi": 61,
      "hit": false,
      "t": 44347.76400000001,
      "d": 181.15916666666453,
      "v": 76
    },
    {
      "midi": 64,
      "hit": false,
      "t": 44347.76400000001,
      "d": 181.15916666666453,
      "v": 98
    },
    {
      "midi": 62,
      "hit": false,
      "t": 45217.32800000001,
      "d": 135.86937500000204,
      "v": 86
    },
    {
      "midi": 65,
      "hit": false,
      "t": 45217.32800000001,
      "d": 135.86937500000204,
      "v": 91
    },
    {
      "midi": 70,
      "hit": false,
      "t": 45217.32800000001,
      "d": 181.1591666666718,
      "v": 86
    },
    {
      "midi": 63,
      "hit": false,
      "t": 46086.892000000014,
      "d": 262.68079166666575,
      "v": 93
    },
    {
      "midi": 67,
      "hit": false,
      "t": 46086.892000000014,
      "d": 407.60812499999884,
      "v": 111
    },
    {
      "midi": 39,
      "hit": false,
      "t": 46086.892000000014,
      "d": 1358.6937499999985,
      "v": 80
    },
    {
      "midi": 51,
      "hit": false,
      "t": 46086.892000000014,
      "d": 1385.867624999999,
      "v": 84
    },
    {
      "midi": 63,
      "hit": false,
      "t": 46521.67400000001,
      "d": 172.1012083333335,
      "v": 105
    },
    {
      "midi": 70,
      "hit": false,
      "t": 46956.45600000001,
      "d": 181.15916666666453,
      "v": 95
    },
    {
      "midi": 75,
      "hit": false,
      "t": 46956.45600000001,
      "d": 298.9126249999972,
      "v": 86
    },
    {
      "midi": 67,
      "hit": false,
      "t": 46956.45600000001,
      "d": 371.3762916666674,
      "v": 107
    },
    {
      "midi": 63,
      "hit": false,
      "t": 47391.23800000001,
      "d": 81.52162500000122,
      "v": 98
    },
    {
      "midi": 62,
      "hit": false,
      "t": 47826.02000000001,
      "d": 235.50691666667262,
      "v": 98
    },
    {
      "midi": 65,
      "hit": false,
      "t": 47826.02000000001,
      "d": 389.49220833333675,
      "v": 100
    },
    {
      "midi": 38,
      "hit": false,
      "t": 47826.02000000001,
      "d": 1195.6505000000034,
      "v": 94
    },
    {
      "midi": 50,
      "hit": false,
      "t": 47826.02000000001,
      "d": 1195.6505000000034,
      "v": 89
    },
    {
      "midi": 62,
      "hit": false,
      "t": 48260.80200000002,
      "d": 144.92733333333308,
      "v": 95
    },
    {
      "midi": 70,
      "hit": false,
      "t": 48695.58400000002,
      "d": 389.4922083333295,
      "v": 93
    },
    {
      "midi": 65,
      "hit": false,
      "t": 48695.58400000002,
      "d": 434.78199999999924,
      "v": 105
    },
    {
      "midi": 62,
      "hit": false,
      "t": 49130.366000000016,
      "d": 72.46366666667018,
      "v": 95
    },
    {
      "midi": 61,
      "hit": false,
      "t": 49565.148000000016,
      "d": 860.5060416666674,
      "v": 89
    },
    {
      "midi": 64,
      "hit": false,
      "t": 49565.148000000016,
      "d": 860.5060416666674,
      "v": 97
    },
    {
      "midi": 67,
      "hit": false,
      "t": 49565.148000000016,
      "d": 860.5060416666674,
      "v": 97
    },
    {
      "midi": 37,
      "hit": false,
      "t": 49565.148000000016,
      "d": 1730.070041666666,
      "v": 88
    },
    {
      "midi": 49,
      "hit": false,
      "t": 49565.148000000016,
      "d": 1730.070041666666,
      "v": 85
    },
    {
      "midi": 70,
      "hit": false,
      "t": 49999.930000000015,
      "d": 860.5060416666674,
      "v": 91
    },
    {
      "midi": 61,
      "hit": false,
      "t": 50434.712000000014,
      "d": 860.5060416666674,
      "v": 90
    },
    {
      "midi": 64,
      "hit": false,
      "t": 50434.712000000014,
      "d": 860.5060416666674,
      "v": 99
    },
    {
      "midi": 67,
      "hit": false,
      "t": 50434.712000000014,
      "d": 860.5060416666674,
      "v": 103
    },
    {
      "midi": 70,
      "hit": false,
      "t": 50869.49400000001,
      "d": 425.7240416666682,
      "v": 107
    },
    {
      "midi": 63,
      "hit": false,
      "t": 51304.27600000001,
      "d": 525.3615833333315,
      "v": 92
    },
    {
      "midi": 60,
      "hit": false,
      "t": 51304.27600000001,
      "d": 534.4195416666626,
      "v": 86
    },
    {
      "midi": 65,
      "hit": false,
      "t": 51304.27600000001,
      "d": 570.651374999994,
      "v": 103
    },
    {
      "midi": 36,
      "hit": false,
      "t": 51304.27600000001,
      "d": 4628.616708333342,
      "v": 93
    },
    {
      "midi": 48,
      "hit": false,
      "t": 51304.27600000001,
      "d": 4628.616708333342,
      "v": 93
    },
    {
      "midi": 60,
      "hit": false,
      "t": 52173.840000000004,
      "d": 1059.7811250000013,
      "v": 74
    },
    {
      "midi": 63,
      "hit": false,
      "t": 52173.840000000004,
      "d": 1114.1288750000022,
      "v": 85
    },
    {
      "midi": 65,
      "hit": false,
      "t": 52173.840000000004,
      "d": 1304.346000000005,
      "v": 99
    },
    {
      "midi": 69,
      "hit": false,
      "t": 52173.840000000004,
      "d": 1358.6937500000058,
      "v": 89
    },
    {
      "midi": 60,
      "hit": false,
      "t": 53478.18600000001,
      "d": 833.332166666667,
      "v": 84
    },
    {
      "midi": 63,
      "hit": false,
      "t": 53912.96800000001,
      "d": 407.60812499999884,
      "v": 87
    },
    {
      "midi": 65,
      "hit": false,
      "t": 54347.75000000001,
      "d": 81.52162500000122,
      "v": 96
    },
    {
      "midi": 69,
      "hit": false,
      "t": 54764.416083333344,
      "d": 135.86937500000204,
      "v": 86
    },
    {
      "midi": 72,
      "hit": false,
      "t": 54791.589958333345,
      "d": 172.10120833334076,
      "v": 95
    },
    {
      "midi": 75,
      "hit": false,
      "t": 54827.821791666676,
      "d": 117.75345833333995,
      "v": 98
    },
    {
      "midi": 63,
      "hit": false,
      "t": 55217.31400000002,
      "d": 434.78199999999924,
      "v": 42
    },
    {
      "midi": 58,
      "hit": false,
      "t": 56521.66000000002,
      "d": 416.6660833333299,
      "v": 69
    },
    {
      "midi": 62,
      "hit": false,
      "t": 56521.66000000002,
      "d": 443.8399583333303,
      "v": 83
    },
    {
      "midi": 34,
      "hit": false,
      "t": 56521.66000000002,
      "d": 2708.3295416666588,
      "v": 70
    },
    {
      "midi": 46,
      "hit": false,
      "t": 56521.66000000002,
      "d": 2735.503416666659,
      "v": 55
    },
    {
      "midi": 53,
      "hit": false,
      "t": 56956.44200000002,
      "d": 443.8399583333303,
      "v": 67
    },
    {
      "midi": 58,
      "hit": false,
      "t": 57391.22400000002,
      "d": 434.78199999999924,
      "v": 76
    },
    {
      "midi": 62,
      "hit": false,
      "t": 57826.006000000016,
      "d": 461.95587499999965,
      "v": 91
    },
    {
      "midi": 67,
      "hit": false,
      "t": 58260.788000000015,
      "d": 163.04325000000244,
      "v": 114
    },
    {
      "midi": 79,
      "hit": false,
      "t": 58269.845958333346,
      "d": 670.2889166666646,
      "v": 110
    },
    {
      "midi": 53,
      "hit": false,
      "t": 58695.570000000014,
      "d": 407.60812499999884,
      "v": 85
    },
    {
      "midi": 77,
      "hit": false,
      "t": 59121.29404166668,
      "d": 552.5354583333319,
      "v": 108
    },
    {
      "midi": 65,
      "hit": false,
      "t": 59130.35200000001,
      "d": 389.4922083333295,
      "v": 105
    },
    {
      "midi": 53,
      "hit": false,
      "t": 59565.13400000001,
      "d": 126.811416666671,
      "v": 72
    },
    {
      "midi": 58,
      "hit": false,
      "t": 59999.91600000002,
      "d": 471.01383333333797,
      "v": 72
    },
    {
      "midi": 62,
      "hit": false,
      "t": 59999.91600000002,
      "d": 498.1877083333384,
      "v": 85
    },
    {
      "midi": 34,
      "hit": false,
      "t": 59999.91600000002,
      "d": 2735.5034166666665,
      "v": 76
    },
    {
      "midi": 46,
      "hit": false,
      "t": 59999.91600000002,
      "d": 2780.793208333336,
      "v": 59
    },
    {
      "midi": 53,
      "hit": false,
      "t": 60434.698000000026,
      "d": 489.12975000000006,
      "v": 87
    },
    {
      "midi": 58,
      "hit": false,
      "t": 60869.480000000025,
      "d": 480.071791666669,
      "v": 82
    },
    {
      "midi": 62,
      "hit": false,
      "t": 61304.262000000024,
      "d": 480.071791666669,
      "v": 82
    },
    {
      "midi": 79,
      "hit": false,
      "t": 61739.04400000003,
      "d": 498.1877083333238,
      "v": 115
    },
    {
      "midi": 67,
      "hit": false,
      "t": 61748.10195833336,
      "d": 190.21712499999558,
      "v": 111
    },
    {
      "midi": 53,
      "hit": false,
      "t": 62173.82600000002,
      "d": 452.89791666666133,
      "v": 80
    },
    {
      "midi": 77,
      "hit": false,
      "t": 62608.60800000002,
      "d": 199.2750833333339,
      "v": 106
    },
    {
      "midi": 65,
      "hit": false,
      "t": 62617.66595833335,
      "d": 452.8979166666686,
      "v": 107
    },
    {
      "midi": 53,
      "hit": false,
      "t": 63043.39000000002,
      "d": 262.68079166666575,
      "v": 76
    },
    {
      "midi": 58,
      "hit": false,
      "t": 63478.17200000002,
      "d": 380.4342500000057,
      "v": 78
    },
    {
      "midi": 62,
      "hit": false,
      "t": 63478.17200000002,
      "d": 471.01383333333797,
      "v": 96
    },
    {
      "midi": 46,
      "hit": false,
      "t": 63478.17200000002,
      "d": 2164.8520416666724,
      "v": 85
    },
    {
      "midi": 34,
      "hit": false,
      "t": 63478.17200000002,
      "d": 2300.721416666667,
      "v": 100
    },
    {
      "midi": 53,
      "hit": false,
      "t": 63912.95400000003,
      "d": 471.0138333333307,
      "v": 87
    },
    {
      "midi": 58,
      "hit": false,
      "t": 64347.736000000026,
      "d": 452.8979166666686,
      "v": 85
    },
    {
      "midi": 62,
      "hit": false,
      "t": 64782.518000000025,
      "d": 443.8399583333303,
      "v": 85
    },
    {
      "midi": 79,
      "hit": false,
      "t": 65217.300000000025,
      "d": 153.98529166666412,
      "v": 115
    },
    {
      "midi": 67,
      "hit": false,
      "t": 65217.300000000025,
      "d": 199.2750833333339,
      "v": 103
    },
    {
      "midi": 53,
      "hit": false,
      "t": 65652.08200000002,
      "d": 443.839958333323,
      "v": 81
    },
    {
      "midi": 77,
      "hit": false,
      "t": 66086.86400000002,
      "d": 163.04325000000244,
      "v": 114
    },
    {
      "midi": 65,
      "hit": false,
      "t": 66086.86400000002,
      "d": 398.5501666666678,
      "v": 102
    },
    {
      "midi": 53,
      "hit": false,
      "t": 66521.64600000002,
      "d": 217.39100000000326,
      "v": 79
    },
    {
      "midi": 58,
      "hit": false,
      "t": 66956.42800000003,
      "d": 398.5501666666678,
      "v": 82
    },
    {
      "midi": 62,
      "hit": false,
      "t": 66956.42800000003,
      "d": 416.6660833333299,
      "v": 102
    },
    {
      "midi": 31,
      "hit": false,
      "t": 66956.42800000003,
      "d": 2237.315708333321,
      "v": 93
    },
    {
      "midi": 43,
      "hit": false,
      "t": 66956.42800000003,
      "d": 2346.0112083333224,
      "v": 87
    },
    {
      "midi": 55,
      "hit": false,
      "t": 67391.21000000002,
      "d": 471.01383333334525,
      "v": 93
    },
    {
      "midi": 58,
      "hit": false,
      "t": 67825.99200000003,
      "d": 489.12975000000733,
      "v": 85
    },
    {
      "midi": 62,
      "hit": false,
      "t": 68260.77400000003,
      "d": 507.2456666666694,
      "v": 110
    },
    {
      "midi": 69,
      "hit": false,
      "t": 68695.55600000004,
      "d": 208.33304166665766,
      "v": 115
    },
    {
      "midi": 81,
      "hit": false,
      "t": 68695.55600000004,
      "d": 235.5069166666508,
      "v": 115
    },
    {
      "midi": 55,
      "hit": false,
      "t": 69130.33800000002,
      "d": 425.7240416666609,
      "v": 87
    },
    {
      "midi": 79,
      "hit": false,
      "t": 69565.12000000001,
      "d": 108.69550000000163,
      "v": 115
    },
    {
      "midi": 67,
      "hit": false,
      "t": 69565.12000000001,
      "d": 362.31833333332906,
      "v": 111
    },
    {
      "midi": 55,
      "hit": false,
      "t": 69999.902,
      "d": 108.69550000000163,
      "v": 93
    },
    {
      "midi": 60,
      "hit": false,
      "t": 70434.68400000001,
      "d": 317.02854166667385,
      "v": 89
    },
    {
      "midi": 63,
      "hit": false,
      "t": 70434.68400000001,
      "d": 443.83995833333756,
      "v": 95
    },
    {
      "midi": 36,
      "hit": false,
      "t": 70434.68400000001,
      "d": 2943.8364583333314,
      "v": 86
    },
    {
      "midi": 48,
      "hit": false,
      "t": 70434.68400000001,
      "d": 2989.1262499999866,
      "v": 85
    },
    {
      "midi": 60,
      "hit": false,
      "t": 70869.46600000001,
      "d": 452.89791666665406,
      "v": 97
    },
    {
      "midi": 63,
      "hit": false,
      "t": 71304.248,
      "d": 389.4922083333222,
      "v": 107
    },
    {
      "midi": 67,
      "hit": false,
      "t": 71739.03,
      "d": 461.95587499999965,
      "v": 106
    },
    {
      "midi": 86,
      "hit": false,
      "t": 72173.812,
      "d": 126.81141666666372,
      "v": 115
    },
    {
      "midi": 74,
      "hit": false,
      "t": 72173.812,
      "d": 172.1012083333335,
      "v": 115
    },
    {
      "midi": 60,
      "hit": false,
      "t": 72608.59400000001,
      "d": 425.7240416666609,
      "v": 88
    },
    {
      "midi": 84,
      "hit": false,
      "t": 73043.376,
      "d": 90.57958333333954,
      "v": 115
    },
    {
      "midi": 72,
      "hit": false,
      "t": 73043.376,
      "d": 353.260374999998,
      "v": 104
    },
    {
      "midi": 60,
      "hit": false,
      "t": 73478.158,
      "d": 172.1012083333335,
      "v": 78
    },
    {
      "midi": 63,
      "hit": false,
      "t": 73912.94,
      "d": 425.7240416666609,
      "v": 90
    },
    {
      "midi": 67,
      "hit": false,
      "t": 73912.94,
      "d": 452.89791666665406,
      "v": 104
    },
    {
      "midi": 36,
      "hit": false,
      "t": 73912.94,
      "d": 769.9264583333279,
      "v": 83
    },
    {
      "midi": 48,
      "hit": false,
      "t": 73912.94,
      "d": 833.3321666666598,
      "v": 86
    },
    {
      "midi": 60,
      "hit": false,
      "t": 74347.722,
      "d": 570.6513750000013,
      "v": 93
    },
    {
      "midi": 63,
      "hit": false,
      "t": 74782.504,
      "d": 443.839958333323,
      "v": 98
    },
    {
      "midi": 67,
      "hit": false,
      "t": 75217.286,
      "d": 244.5648749999964,
      "v": 94
    },
    {
      "midi": 63,
      "hit": false,
      "t": 75652.06799999998,
      "d": 298.9126249999972,
      "v": 73
    },
    {
      "midi": 69,
      "hit": false,
      "t": 75652.06799999998,
      "d": 480.07179166666174,
      "v": 90
    },
    {
      "midi": 53,
      "hit": false,
      "t": 75652.06799999998,
      "d": 1023.5492916666699,
      "v": 70
    },
    {
      "midi": 41,
      "hit": false,
      "t": 75652.06799999998,
      "d": 1132.2447916666715,
      "v": 71
    },
    {
      "midi": 63,
      "hit": false,
      "t": 76086.84999999998,
      "d": 434.7820000000065,
      "v": 81
    },
    {
      "midi": 65,
      "hit": false,
      "t": 76521.63199999998,
      "d": 398.5501666666678,
      "v": 76
    },
    {
      "midi": 72,
      "hit": false,
      "t": 76956.41399999999,
      "d": 63.40570833333186,
      "v": 67
    },
    {
      "midi": 58,
      "hit": false,
      "t": 77391.19599999998,
      "d": 362.31833333332906,
      "v": 81
    },
    {
      "midi": 62,
      "hit": false,
      "t": 77391.19599999998,
      "d": 371.3762916666601,
      "v": 91
    },
    {
      "midi": 46,
      "hit": false,
      "t": 77391.19599999998,
      "d": 1612.3165833333187,
      "v": 72
    },
    {
      "midi": 34,
      "hit": false,
      "t": 77391.19599999998,
      "d": 1684.7802499999816,
      "v": 84
    },
    {
      "midi": 53,
      "hit": false,
      "t": 77825.97799999997,
      "d": 461.95587499999965,
      "v": 84
    },
    {
      "midi": 58,
      "hit": false,
      "t": 78260.75999999998,
      "d": 461.9558749999851,
      "v": 90
    },
    {
      "midi": 62,
      "hit": false,
      "t": 78695.54199999997,
      "d": 471.0138333333307,
      "v": 101
    },
    {
      "midi": 79,
      "hit": false,
      "t": 79130.32399999996,
      "d": 108.69550000000163,
      "v": 111
    },
    {
      "midi": 67,
      "hit": false,
      "t": 79130.32399999996,
      "d": 172.1012083333335,
      "v": 101
    },
    {
      "midi": 53,
      "hit": false,
      "t": 79565.10599999997,
      "d": 443.83995833333756,
      "v": 79
    },
    {
      "midi": 77,
      "hit": false,
      "t": 79999.88799999998,
      "d": 81.52162499999395,
      "v": 110
    },
    {
      "midi": 65,
      "hit": false,
      "t": 79999.88799999998,
      "d": 425.7240416666609,
      "v": 103
    },
    {
      "midi": 53,
      "hit": false,
      "t": 80434.66999999997,
      "d": 126.81141666666372,
      "v": 79
    },
    {
      "midi": 58,
      "hit": false,
      "t": 80869.45199999996,
      "d": 398.5501666666678,
      "v": 76
    },
    {
      "midi": 62,
      "hit": false,
      "t": 80869.45199999996,
      "d": 407.60812499999884,
      "v": 99
    },
    {
      "midi": 31,
      "hit": false,
      "t": 80869.45199999996,
      "d": 2047.0985833333252,
      "v": 88
    },
    {
      "midi": 43,
      "hit": false,
      "t": 80869.45199999996,
      "d": 2074.2724583333184,
      "v": 79
    },
    {
      "midi": 55,
      "hit": false,
      "t": 81304.23399999995,
      "d": 480.0717916666763,
      "v": 96
    },
    {
      "midi": 58,
      "hit": false,
      "t": 81739.01599999996,
      "d": 434.7820000000065,
      "v": 91
    },
    {
      "midi": 62,
      "hit": false,
      "t": 82173.79799999997,
      "d": 507.2456666666694,
      "v": 96
    },
    {
      "midi": 81,
      "hit": false,
      "t": 82608.57999999997,
      "d": 90.57958333332499,
      "v": 115
    },
    {
      "midi": 69,
      "hit": false,
      "t": 82608.57999999997,
      "d": 172.10120833331894,
      "v": 115
    },
    {
      "midi": 55,
      "hit": false,
      "t": 83043.36199999995,
      "d": 434.7820000000065,
      "v": 89
    },
    {
      "midi": 79,
      "hit": false,
      "t": 83478.14399999996,
      "d": 81.52162499999395,
      "v": 115
    },
    {
      "midi": 67,
      "hit": false,
      "t": 83478.14399999996,
      "d": 271.7387499999895,
      "v": 106
    },
    {
      "midi": 55,
      "hit": false,
      "t": 83912.92599999995,
      "d": 63.40570833333186,
      "v": 87
    },
    {
      "midi": 67,
      "hit": false,
      "t": 84347.70799999994,
      "d": 407.60812499999884,
      "v": 103
    },
    {
      "midi": 63,
      "hit": false,
      "t": 84347.70799999994,
      "d": 416.6660833333299,
      "v": 100
    },
    {
      "midi": 48,
      "hit": false,
      "t": 84347.70799999994,
      "d": 942.0276666666614,
      "v": 89
    },
    {
      "midi": 36,
      "hit": false,
      "t": 84347.70799999994,
      "d": 951.0856249999924,
      "v": 86
    },
    {
      "midi": 60,
      "hit": false,
      "t": 84782.48999999993,
      "d": 452.8979166666686,
      "v": 91
    },
    {
      "midi": 63,
      "hit": false,
      "t": 85217.27199999994,
      "d": 398.5501666666678,
      "v": 100
    },
    {
      "midi": 67,
      "hit": false,
      "t": 85652.05399999995,
      "d": 362.31833333332906,
      "v": 109
    },
    {
      "midi": 59,
      "hit": false,
      "t": 86086.83599999995,
      "d": 425.7240416666755,
      "v": 97
    },
    {
      "midi": 63,
      "hit": false,
      "t": 86086.83599999995,
      "d": 443.83995833333756,
      "v": 101
    },
    {
      "midi": 47,
      "hit": false,
      "t": 86086.83599999995,
      "d": 480.0717916666763,
      "v": 86
    },
    {
      "midi": 35,
      "hit": false,
      "t": 86086.83599999995,
      "d": 498.1877083333384,
      "v": 91
    },
    {
      "midi": 67,
      "hit": false,
      "t": 86521.61799999996,
      "d": 99.63754166667059,
      "v": 106
    },
    {
      "midi": 58,
      "hit": false,
      "t": 86956.39999999997,
      "d": 452.8979166666686,
      "v": 84
    },
    {
      "midi": 63,
      "hit": false,
      "t": 86956.39999999997,
      "d": 480.07179166666174,
      "v": 101
    },
    {
      "midi": 34,
      "hit": false,
      "t": 86956.39999999997,
      "d": 534.4195416666626,
      "v": 97
    },
    {
      "midi": 46,
      "hit": false,
      "t": 86956.39999999997,
      "d": 561.5934166666557,
      "v": 85
    },
    {
      "midi": 67,
      "hit": false,
      "t": 87391.18199999997,
      "d": 117.75345833331812,
      "v": 98
    },
    {
      "midi": 57,
      "hit": false,
      "t": 87825.96399999995,
      "d": 298.9126249999972,
      "v": 98
    },
    {
      "midi": 63,
      "hit": false,
      "t": 87825.96399999995,
      "d": 425.7240416666609,
      "v": 113
    },
    {
      "midi": 45,
      "hit": false,
      "t": 87825.96399999995,
      "d": 1168.4766249999957,
      "v": 96
    },
    {
      "midi": 33,
      "hit": false,
      "t": 87825.96399999995,
      "d": 1186.5925416666578,
      "v": 101
    },
    {
      "midi": 57,
      "hit": false,
      "t": 88260.74599999994,
      "d": 869.5639999999985,
      "v": 115
    },
    {
      "midi": 63,
      "hit": false,
      "t": 88695.52799999995,
      "d": 471.0138333333307,
      "v": 119
    },
    {
      "midi": 67,
      "hit": false,
      "t": 89130.30999999994,
      "d": 253.622833333342,
      "v": 125
    },
    {
      "midi": 56,
      "hit": false,
      "t": 89565.09199999995,
      "d": 434.7820000000065,
      "v": 112
    },
    {
      "midi": 63,
      "hit": false,
      "t": 89565.09199999995,
      "d": 434.7820000000065,
      "v": 124
    },
    {
      "midi": 32,
      "hit": false,
      "t": 89565.09199999995,
      "d": 561.5934166666702,
      "v": 111
    },
    {
      "midi": 44,
      "hit": false,
      "t": 89565.09199999995,
      "d": 570.6513750000013,
      "v": 87
    },
    {
      "midi": 67,
      "hit": false,
      "t": 89999.87399999995,
      "d": 371.3762916666601,
      "v": 127
    },
    {
      "midi": 31,
      "hit": false,
      "t": 90434.65599999994,
      "d": 371.3762916666601,
      "v": 102
    },
    {
      "midi": 55,
      "hit": false,
      "t": 90434.65599999994,
      "d": 398.55016666665324,
      "v": 123
    },
    {
      "midi": 63,
      "hit": false,
      "t": 90434.65599999994,
      "d": 434.78199999999197,
      "v": 122
    },
    {
      "midi": 43,
      "hit": false,
      "t": 90434.65599999994,
      "d": 452.89791666665406,
      "v": 103
    },
    {
      "midi": 67,
      "hit": false,
      "t": 90869.43799999994,
      "d": 99.63754166665603,
      "v": 127
    },
    {
      "midi": 63,
      "hit": false,
      "t": 91304.21999999993,
      "d": 298.9126249999972,
      "v": 120
    },
    {
      "midi": 67,
      "hit": false,
      "t": 91304.21999999993,
      "d": 461.9558749999851,
      "v": 127
    },
    {
      "midi": 51,
      "hit": false,
      "t": 91304.21999999993,
      "d": 2291.663458333307,
      "v": 115
    },
    {
      "midi": 39,
      "hit": false,
      "t": 91304.21999999993,
      "d": 2327.895291666646,
      "v": 102
    },
    {
      "midi": 63,
      "hit": false,
      "t": 91739.00199999992,
      "d": 253.62283333332743,
      "v": 102
    },
    {
      "midi": 67,
      "hit": false,
      "t": 92173.78399999991,
      "d": 190.21712499999558,
      "v": 115
    },
    {
      "midi": 75,
      "hit": false,
      "t": 92173.78399999991,
      "d": 389.4922083333222,
      "v": 116
    },
    {
      "midi": 70,
      "hit": false,
      "t": 92173.78399999991,
      "d": 443.839958333323,
      "v": 102
    },
    {
      "midi": 67,
      "hit": false,
      "t": 92608.5659999999,
      "d": 163.04325000000244,
      "v": 106
    },
    {
      "midi": 70,
      "hit": false,
      "t": 93043.34799999991,
      "d": 389.49220833333675,
      "v": 101
    },
    {
      "midi": 67,
      "hit": false,
      "t": 93043.34799999991,
      "d": 416.6660833333299,
      "v": 109
    },
    {
      "midi": 63,
      "hit": false,
      "t": 93478.1299999999,
      "d": 72.4636666666629,
      "v": 95
    },
    {
      "midi": 65,
      "hit": false,
      "t": 93912.91199999991,
      "d": 389.4922083333222,
      "v": 103
    },
    {
      "midi": 62,
      "hit": false,
      "t": 93912.91199999991,
      "d": 425.7240416666609,
      "v": 106
    },
    {
      "midi": 50,
      "hit": false,
      "t": 93912.91199999991,
      "d": 552.5354583333246,
      "v": 103
    },
    {
      "midi": 38,
      "hit": false,
      "t": 93912.91199999991,
      "d": 579.7093333333178,
      "v": 113
    },
    {
      "midi": 58,
      "hit": false,
      "t": 94347.6939999999,
      "d": 108.69550000000163,
      "v": 88
    },
    {
      "midi": 60,
      "hit": false,
      "t": 94782.4759999999,
      "d": 262.6807916666585,
      "v": 103
    },
    {
      "midi": 63,
      "hit": false,
      "t": 94782.4759999999,
      "d": 398.55016666665324,
      "v": 113
    },
    {
      "midi": 67,
      "hit": false,
      "t": 94782.4759999999,
      "d": 407.6081249999843,
      "v": 114
    },
    {
      "midi": 36,
      "hit": false,
      "t": 94782.4759999999,
      "d": 2581.518124999973,
      "v": 89
    },
    {
      "midi": 48,
      "hit": false,
      "t": 94782.4759999999,
      "d": 2653.981791666636,
      "v": 98
    },
    {
      "midi": 60,
      "hit": false,
      "t": 95217.25799999987,
      "d": 452.8979166666686,
      "v": 112
    },
    {
      "midi": 63,
      "hit": false,
      "t": 95652.03999999988,
      "d": 362.31833333332906,
      "v": 114
    },
    {
      "midi": 67,
      "hit": false,
      "t": 96086.82199999987,
      "d": 452.8979166666686,
      "v": 116
    },
    {
      "midi": 86,
      "hit": false,
      "t": 96521.60399999988,
      "d": 81.52162499999395,
      "v": 127
    },
    {
      "midi": 74,
      "hit": false,
      "t": 96521.60399999988,
      "d": 153.98529166665685,
      "v": 127
    },
    {
      "midi": 60,
      "hit": false,
      "t": 96956.38599999987,
      "d": 416.6660833333299,
      "v": 103
    },
    {
      "midi": 84,
      "hit": false,
      "t": 97391.16799999986,
      "d": 72.4636666666629,
      "v": 127
    },
    {
      "midi": 72,
      "hit": false,
      "t": 97391.16799999986,
      "d": 380.43424999999115,
      "v": 122
    },
    {
      "midi": 60,
      "hit": false,
      "t": 97825.94999999985,
      "d": 72.4636666666629,
      "v": 96
    },
    {
      "midi": 65,
      "hit": false,
      "t": 98260.73199999984,
      "d": 226.4489583333343,
      "v": 110
    },
    {
      "midi": 68,
      "hit": false,
      "t": 98260.73199999984,
      "d": 407.60812499999884,
      "v": 114
    },
    {
      "midi": 53,
      "hit": false,
      "t": 98260.73199999984,
      "d": 851.4480833333364,
      "v": 106
    },
    {
      "midi": 41,
      "hit": false,
      "t": 98260.73199999984,
      "d": 869.5639999999985,
      "v": 110
    },
    {
      "midi": 65,
      "hit": false,
      "t": 98695.51399999984,
      "d": 144.92733333334036,
      "v": 106
    },
    {
      "midi": 68,
      "hit": false,
      "t": 99130.29599999984,
      "d": 99.63754166667059,
      "v": 98
    },
    {
      "midi": 72,
      "hit": false,
      "t": 99130.29599999984,
      "d": 99.63754166667059,
      "v": 87
    },
    {
      "midi": 77,
      "hit": false,
      "t": 99130.29599999984,
      "d": 108.69550000000163,
      "v": 118
    },
    {
      "midi": 64,
      "hit": false,
      "t": 99565.07799999985,
      "d": 72.4636666666629,
      "v": 96
    },
    {
      "midi": 68,
      "hit": false,
      "t": 99565.07799999985,
      "d": 90.57958333332499,
      "v": 97
    },
    {
      "midi": 52,
      "hit": false,
      "t": 99565.07799999985,
      "d": 99.63754166665603,
      "v": 108
    },
    {
      "midi": 72,
      "hit": false,
      "t": 99565.07799999985,
      "d": 99.63754166665603,
      "v": 101
    },
    {
      "midi": 40,
      "hit": false,
      "t": 99565.07799999985,
      "d": 117.75345833331812,
      "v": 104
    },
    {
      "midi": 63,
      "hit": false,
      "t": 99999.85999999984,
      "d": 253.62283333332743,
      "v": 107
    },
    {
      "midi": 68,
      "hit": false,
      "t": 99999.85999999984,
      "d": 371.3762916666601,
      "v": 100
    },
    {
      "midi": 72,
      "hit": false,
      "t": 99999.85999999984,
      "d": 371.3762916666601,
      "v": 115
    },
    {
      "midi": 51,
      "hit": false,
      "t": 99999.85999999984,
      "d": 670.2889166666573,
      "v": 112
    },
    {
      "midi": 39,
      "hit": false,
      "t": 99999.85999999984,
      "d": 706.520749999996,
      "v": 114
    },
    {
      "midi": 63,
      "hit": false,
      "t": 100434.64199999983,
      "d": 135.86937499999476,
      "v": 105
    },
    {
      "midi": 62,
      "hit": false,
      "t": 100869.42399999984,
      "d": 280.7967083333351,
      "v": 105
    },
    {
      "midi": 68,
      "hit": false,
      "t": 100869.42399999984,
      "d": 480.0717916666763,
      "v": 114
    },
    {
      "midi": 72,
      "hit": false,
      "t": 100869.42399999984,
      "d": 489.12975000000733,
      "v": 120
    },
    {
      "midi": 50,
      "hit": false,
      "t": 100869.42399999984,
      "d": 498.1877083333384,
      "v": 94
    },
    {
      "midi": 38,
      "hit": false,
      "t": 100869.42399999984,
      "d": 570.6513750000013,
      "v": 110
    },
    {
      "midi": 62,
      "hit": false,
      "t": 101304.20599999985,
      "d": 63.40570833333186,
      "v": 104
    },
    {
      "midi": 65,
      "hit": false,
      "t": 101738.98799999984,
      "d": 317.0285416666593,
      "v": 108
    },
    {
      "midi": 62,
      "hit": false,
      "t": 101738.98799999984,
      "d": 371.3762916666601,
      "v": 105
    },
    {
      "midi": 34,
      "hit": false,
      "t": 101738.98799999984,
      "d": 398.55016666665324,
      "v": 102
    },
    {
      "midi": 46,
      "hit": false,
      "t": 101738.98799999984,
      "d": 398.55016666665324,
      "v": 84
    },
    {
      "midi": 58,
      "hit": false,
      "t": 101738.98799999984,
      "d": 416.6660833333153,
      "v": 93
    },
    {
      "midi": 46,
      "hit": false,
      "t": 102173.76999999981,
      "d": 72.4636666666629,
      "v": 90
    },
    {
      "midi": 34,
      "hit": false,
      "t": 102173.76999999981,
      "d": 117.75345833333267,
      "v": 74
    },
    {
      "midi": 34,
      "hit": false,
      "t": 102391.16099999982,
      "d": 108.69550000000163,
      "v": 97
    },
    {
      "midi": 46,
      "hit": false,
      "t": 102391.16099999982,
      "d": 108.69550000000163,
      "v": 83
    },
    {
      "midi": 34,
      "hit": false,
      "t": 102608.55199999982,
      "d": 298.9126249999972,
      "v": 109
    },
    {
      "midi": 46,
      "hit": false,
      "t": 102608.55199999982,
      "d": 298.9126249999972,
      "v": 90
    },
    {
      "midi": 62,
      "hit": false,
      "t": 102608.55199999982,
      "d": 317.0285416666593,
      "v": 118
    },
    {
      "midi": 65,
      "hit": false,
      "t": 102608.55199999982,
      "d": 317.0285416666593,
      "v": 108
    },
    {
      "midi": 70,
      "hit": false,
      "t": 102608.55199999982,
      "d": 362.31833333332906,
      "v": 105
    },
    {
      "midi": 46,
      "hit": false,
      "t": 103043.33399999981,
      "d": 99.63754166667059,
      "v": 100
    },
    {
      "midi": 34,
      "hit": false,
      "t": 103043.33399999981,
      "d": 108.69550000000163,
      "v": 98
    },
    {
      "midi": 34,
      "hit": false,
      "t": 103260.72499999982,
      "d": 99.63754166667059,
      "v": 108
    },
    {
      "midi": 46,
      "hit": false,
      "t": 103260.72499999982,
      "d": 99.63754166667059,
      "v": 95
    },
    {
      "midi": 58,
      "hit": false,
      "t": 103478.11599999982,
      "d": 298.9126249999972,
      "v": 93
    },
    {
      "midi": 62,
      "hit": false,
      "t": 103478.11599999982,
      "d": 335.14445833333593,
      "v": 115
    },
    {
      "midi": 34,
      "hit": false,
      "t": 103478.11599999982,
      "d": 353.260374999998,
      "v": 123
    },
    {
      "midi": 46,
      "hit": false,
      "t": 103478.11599999982,
      "d": 353.260374999998,
      "v": 92
    },
    {
      "midi": 34,
      "hit": false,
      "t": 103912.89799999981,
      "d": 108.69550000000163,
      "v": 94
    },
    {
      "midi": 46,
      "hit": false,
      "t": 103912.89799999981,
      "d": 108.69550000000163,
      "v": 102
    },
    {
      "midi": 46,
      "hit": false,
      "t": 104130.28899999982,
      "d": 81.52162499999395,
      "v": 89
    },
    {
      "midi": 34,
      "hit": false,
      "t": 104130.28899999982,
      "d": 90.57958333332499,
      "v": 97
    },
    {
      "midi": 46,
      "hit": false,
      "t": 104347.6799999998,
      "d": 90.57958333332499,
      "v": 104
    },
    {
      "midi": 34,
      "hit": false,
      "t": 104347.6799999998,
      "d": 108.69549999998708,
      "v": 115
    },
    {
      "midi": 62,
      "hit": false,
      "t": 104347.6799999998,
      "d": 335.1444583333214,
      "v": 121
    },
    {
      "midi": 58,
      "hit": false,
      "t": 104347.6799999998,
      "d": 344.2024166666524,
      "v": 102
    },
    {
      "midi": 68,
      "hit": false,
      "t": 104347.6799999998,
      "d": 389.4922083333222,
      "v": 107
    },
    {
      "midi": 34,
      "hit": false,
      "t": 104565.07099999979,
      "d": 72.4636666666629,
      "v": 115
    },
    {
      "midi": 46,
      "hit": false,
      "t": 104565.07099999979,
      "d": 72.4636666666629,
      "v": 111
    },
    {
      "midi": 34,
      "hit": false,
      "t": 104782.4619999998,
      "d": 72.4636666666629,
      "v": 125
    },
    {
      "midi": 46,
      "hit": false,
      "t": 104782.4619999998,
      "d": 72.4636666666629,
      "v": 115
    },
    {
      "midi": 63,
      "hit": false,
      "t": 105217.2439999998,
      "d": 244.5648749999964,
      "v": 100
    },
    {
      "midi": 67,
      "hit": false,
      "t": 105217.2439999998,
      "d": 389.49220833333675,
      "v": 109
    },
    {
      "midi": 39,
      "hit": false,
      "t": 105217.2439999998,
      "d": 1304.3459999999905,
      "v": 114
    },
    {
      "midi": 51,
      "hit": false,
      "t": 105217.2439999998,
      "d": 1313.4039583333215,
      "v": 102
    },
    {
      "midi": 63,
      "hit": false,
      "t": 105652.02599999981,
      "d": 190.21712499999558,
      "v": 109
    },
    {
      "midi": 70,
      "hit": false,
      "t": 106086.8079999998,
      "d": 153.9852916666714,
      "v": 95
    },
    {
      "midi": 75,
      "hit": false,
      "t": 106086.8079999998,
      "d": 280.7967083333351,
      "v": 110
    },
    {
      "midi": 67,
      "hit": false,
      "t": 106086.8079999998,
      "d": 362.31833333332906,
      "v": 118
    },
    {
      "midi": 63,
      "hit": false,
      "t": 106521.5899999998,
      "d": 108.69550000000163,
      "v": 98
    },
    {
      "midi": 62,
      "hit": false,
      "t": 106956.37199999978,
      "d": 244.5648749999964,
      "v": 115
    },
    {
      "midi": 65,
      "hit": false,
      "t": 106956.37199999978,
      "d": 398.5501666666678,
      "v": 111
    },
    {
      "midi": 50,
      "hit": false,
      "t": 106956.37199999978,
      "d": 1059.781124999994,
      "v": 107
    },
    {
      "midi": 38,
      "hit": false,
      "t": 106956.37199999978,
      "d": 1159.4186666666646,
      "v": 99
    },
    {
      "midi": 62,
      "hit": false,
      "t": 107391.15399999979,
      "d": 135.86937499999476,
      "v": 100
    },
    {
      "midi": 70,
      "hit": false,
      "t": 107825.93599999978,
      "d": 344.202416666667,
      "v": 102
    },
    {
      "midi": 65,
      "hit": false,
      "t": 107825.93599999978,
      "d": 380.4342500000057,
      "v": 116
    },
    {
      "midi": 62,
      "hit": false,
      "t": 108260.71799999979,
      "d": 72.4636666666629,
      "v": 100
    },
    {
      "midi": 63,
      "hit": false,
      "t": 108695.49999999978,
      "d": 389.49220833333675,
      "v": 102
    },
    {
      "midi": 67,
      "hit": false,
      "t": 108695.49999999978,
      "d": 398.5501666666678,
      "v": 101
    },
    {
      "midi": 48,
      "hit": false,
      "t": 108695.49999999978,
      "d": 914.8537916666683,
      "v": 86
    },
    {
      "midi": 36,
      "hit": false,
      "t": 108695.49999999978,
      "d": 978.2595000000001,
      "v": 81
    },
    {
      "midi": 60,
      "hit": false,
      "t": 109130.28199999979,
      "d": 452.8979166666686,
      "v": 86
    },
    {
      "midi": 63,
      "hit": false,
      "t": 109565.0639999998,
      "d": 407.6081249999843,
      "v": 88
    },
    {
      "midi": 67,
      "hit": false,
      "t": 109565.0639999998,
      "d": 416.6660833333153,
      "v": 99
    },
    {
      "midi": 60,
      "hit": false,
      "t": 109999.84599999977,
      "d": 72.4636666666629,
      "v": 91
    },
    {
      "midi": 63,
      "hit": false,
      "t": 110434.62799999978,
      "d": 923.9117499999993,
      "v": 86
    },
    {
      "midi": 56,
      "hit": false,
      "t": 110434.62799999978,
      "d": 960.143583333338,
      "v": 73
    },
    {
      "midi": 59,
      "hit": false,
      "t": 110434.62799999978,
      "d": 969.2015416666691,
      "v": 91
    },
    {
      "midi": 32,
      "hit": false,
      "t": 110434.62799999978,
      "d": 1096.0129583333328,
      "v": 84
    },
    {
      "midi": 44,
      "hit": false,
      "t": 110434.62799999978,
      "d": 1114.1288749999949,
      "v": 69
    },
    {
      "midi": 39,
      "hit": false,
      "t": 112146.58212499977,
      "d": 4492.747333333304,
      "v": 57
    },
    {
      "midi": 63,
      "hit": false,
      "t": 112164.69804166643,
      "d": 199.27508333332662,
      "v": 72
    },
    {
      "midi": 51,
      "hit": false,
      "t": 112164.69804166643,
      "d": 4501.805291666635,
      "v": 69
    },
    {
      "midi": 67,
      "hit": false,
      "t": 112182.81395833309,
      "d": 425.7240416666609,
      "v": 84
    },
    {
      "midi": 70,
      "hit": false,
      "t": 112191.87191666642,
      "d": 407.60812499999884,
      "v": 74
    },
    {
      "midi": 63,
      "hit": false,
      "t": 112608.53799999975,
      "d": 480.0717916666763,
      "v": 70
    },
    {
      "midi": 67,
      "hit": false,
      "t": 113043.31999999976,
      "d": 344.202416666667,
      "v": 86
    },
    {
      "midi": 70,
      "hit": false,
      "t": 113478.10199999977,
      "d": 63.40570833333186,
      "v": 75
    },
    {
      "midi": 72,
      "hit": false,
      "t": 113912.88399999976,
      "d": 344.202416666667,
      "v": 77
    },
    {
      "midi": 68,
      "hit": false,
      "t": 113912.88399999976,
      "d": 371.3762916666601,
      "v": 71
    },
    {
      "midi": 75,
      "hit": false,
      "t": 114347.66599999975,
      "d": 380.4342500000057,
      "v": 91
    },
    {
      "midi": 67,
      "hit": false,
      "t": 114782.44799999976,
      "d": 380.4342500000057,
      "v": 78
    },
    {
      "midi": 70,
      "hit": false,
      "t": 114782.44799999976,
      "d": 425.7240416666755,
      "v": 77
    },
    {
      "midi": 75,
      "hit": false,
      "t": 115217.22999999976,
      "d": 353.260374999998,
      "v": 84
    },
    {
      "midi": 66,
      "hit": false,
      "t": 115652.01199999976,
      "d": 425.7240416666609,
      "v": 83
    },
    {
      "midi": 69,
      "hit": false,
      "t": 115652.01199999976,
      "d": 452.89791666665406,
      "v": 86
    },
    {
      "midi": 75,
      "hit": false,
      "t": 116086.79399999975,
      "d": 452.89791666665406,
      "v": 92
    },
    {
      "midi": 65,
      "hit": false,
      "t": 116521.57599999974,
      "d": 425.7240416666609,
      "v": 76
    },
    {
      "midi": 68,
      "hit": false,
      "t": 116521.57599999974,
      "d": 434.78199999999197,
      "v": 83
    },
    {
      "midi": 75,
      "hit": false,
      "t": 116956.35799999973,
      "d": 208.33304166667222,
      "v": 78
    },
    {
      "midi": 58,
      "hit": false,
      "t": 117391.13999999974,
      "d": 443.839958333323,
      "v": 79
    },
    {
      "midi": 62,
      "hit": false,
      "t": 117391.13999999974,
      "d": 452.89791666665406,
      "v": 93
    },
    {
      "midi": 34,
      "hit": false,
      "t": 117391.13999999974,
      "d": 1838.765541666653,
      "v": 76
    },
    {
      "midi": 46,
      "hit": false,
      "t": 117391.13999999974,
      "d": 1856.881458333315,
      "v": 70
    },
    {
      "midi": 53,
      "hit": false,
      "t": 117825.92199999973,
      "d": 471.0138333333307,
      "v": 73
    },
    {
      "midi": 58,
      "hit": false,
      "t": 118260.70399999972,
      "d": 452.8979166666686,
      "v": 89
    },
    {
      "midi": 62,
      "hit": false,
      "t": 118695.48599999973,
      "d": 489.1297499999928,
      "v": 100
    },
    {
      "midi": 67,
      "hit": false,
      "t": 119130.26799999972,
      "d": 208.33304166667222,
      "v": 116
    },
    {
      "midi": 79,
      "hit": false,
      "t": 119130.26799999972,
      "d": 262.68079166667303,
      "v": 112
    },
    {
      "midi": 53,
      "hit": false,
      "t": 119565.04999999973,
      "d": 434.7820000000065,
      "v": 74
    },
    {
      "midi": 77,
      "hit": false,
      "t": 119999.83199999973,
      "d": 90.57958333333954,
      "v": 108
    },
    {
      "midi": 65,
      "hit": false,
      "t": 119999.83199999973,
      "d": 326.0865000000049,
      "v": 98
    },
    {
      "midi": 53,
      "hit": false,
      "t": 120434.61399999974,
      "d": 163.04325000000244,
      "v": 83
    },
    {
      "midi": 34,
      "hit": false,
      "t": 120869.39599999975,
      "d": 271.7387500000041,
      "v": 87
    },
    {
      "midi": 46,
      "hit": false,
      "t": 120869.39599999975,
      "d": 298.9126249999972,
      "v": 71
    },
    {
      "midi": 58,
      "hit": false,
      "t": 120869.39599999975,
      "d": 371.3762916666601,
      "v": 83
    },
    {
      "midi": 62,
      "hit": false,
      "t": 120869.39599999975,
      "d": 452.89791666665406,
      "v": 100
    },
    {
      "midi": 53,
      "hit": false,
      "t": 121304.17799999974,
      "d": 480.07179166666174,
      "v": 69
    },
    {
      "midi": 58,
      "hit": false,
      "t": 121738.95999999973,
      "d": 443.83995833333756,
      "v": 93
    },
    {
      "midi": 62,
      "hit": false,
      "t": 122173.74199999974,
      "d": 452.89791666665406,
      "v": 95
    },
    {
      "midi": 79,
      "hit": false,
      "t": 122608.52399999973,
      "d": 63.40570833333186,
      "v": 127
    },
    {
      "midi": 67,
      "hit": false,
      "t": 122608.52399999973,
      "d": 135.86937499999476,
      "v": 125
    },
    {
      "midi": 53,
      "hit": false,
      "t": 123043.30599999972,
      "d": 380.4342500000057,
      "v": 95
    },
    {
      "midi": 77,
      "hit": false,
      "t": 123478.08799999973,
      "d": 63.40570833333186,
      "v": 121
    },
    {
      "midi": 65,
      "hit": false,
      "t": 123478.08799999973,
      "d": 362.31833333332906,
      "v": 111
    },
    {
      "midi": 53,
      "hit": false,
      "t": 123912.86999999972,
      "d": 117.75345833333267,
      "v": 84
    },
    {
      "midi": 34,
      "hit": false,
      "t": 124347.65199999973,
      "d": 280.7967083333351,
      "v": 97
    },
    {
      "midi": 46,
      "hit": false,
      "t": 124347.65199999973,
      "d": 298.9126249999972,
      "v": 79
    },
    {
      "midi": 58,
      "hit": false,
      "t": 124347.65199999973,
      "d": 389.49220833333675,
      "v": 91
    },
    {
      "midi": 62,
      "hit": false,
      "t": 124347.65199999973,
      "d": 452.8979166666686,
      "v": 106
    },
    {
      "midi": 53,
      "hit": false,
      "t": 124782.43399999973,
      "d": 461.9558749999851,
      "v": 100
    },
    {
      "midi": 58,
      "hit": false,
      "t": 125217.21599999972,
      "d": 389.4922083333222,
      "v": 102
    },
    {
      "midi": 62,
      "hit": false,
      "t": 125651.99799999972,
      "d": 480.0717916666763,
      "v": 105
    },
    {
      "midi": 67,
      "hit": false,
      "t": 126086.77999999972,
      "d": 135.8693750000093,
      "v": 120
    },
    {
      "midi": 79,
      "hit": false,
      "t": 126086.77999999972,
      "d": 181.15916666667908,
      "v": 112
    },
    {
      "midi": 53,
      "hit": false,
      "t": 126521.56199999973,
      "d": 380.4342500000057,
      "v": 95
    },
    {
      "midi": 65,
      "hit": false,
      "t": 126956.34399999974,
      "d": 344.202416666667,
      "v": 114
    },
    {
      "midi": 77,
      "hit": false,
      "t": 126956.34399999974,
      "d": 380.4342500000057,
      "v": 118
    },
    {
      "midi": 53,
      "hit": false,
      "t": 127391.12599999974,
      "d": 99.63754166667059,
      "v": 91
    },
    {
      "midi": 31,
      "hit": false,
      "t": 127825.90799999975,
      "d": 335.14445833333593,
      "v": 98
    },
    {
      "midi": 43,
      "hit": false,
      "t": 127825.90799999975,
      "d": 344.202416666667,
      "v": 79
    },
    {
      "midi": 58,
      "hit": false,
      "t": 127825.90799999975,
      "d": 416.6660833333299,
      "v": 95
    },
    {
      "midi": 62,
      "hit": false,
      "t": 127825.90799999975,
      "d": 416.6660833333299,
      "v": 113
    },
    {
      "midi": 55,
      "hit": false,
      "t": 128260.68999999974,
      "d": 452.8979166666686,
      "v": 105
    },
    {
      "midi": 58,
      "hit": false,
      "t": 128695.47199999975,
      "d": 362.31833333332906,
      "v": 102
    },
    {
      "midi": 62,
      "hit": false,
      "t": 129130.25399999974,
      "d": 443.83995833333756,
      "v": 110
    },
    {
      "midi": 69,
      "hit": false,
      "t": 129565.03599999975,
      "d": 126.81141666666372,
      "v": 121
    },
    {
      "midi": 81,
      "hit": false,
      "t": 129565.03599999975,
      "d": 226.4489583333343,
      "v": 127
    },
    {
      "midi": 55,
      "hit": false,
      "t": 129999.81799999975,
      "d": 434.7820000000065,
      "v": 96
    },
    {
      "midi": 79,
      "hit": false,
      "t": 130434.59999999976,
      "d": 226.4489583333343,
      "v": 127
    },
    {
      "midi": 67,
      "hit": false,
      "t": 130434.59999999976,
      "d": 253.62283333332743,
      "v": 118
    },
    {
      "midi": 55,
      "hit": false,
      "t": 130869.38199999975,
      "d": 72.4636666666629,
      "v": 102
    },
    {
      "midi": 60,
      "hit": false,
      "t": 131304.16399999973,
      "d": 434.7820000000065,
      "v": 90
    },
    {
      "midi": 63,
      "hit": false,
      "t": 131304.16399999973,
      "d": 869.564000000013,
      "v": 108
    },
    {
      "midi": 36,
      "hit": false,
      "t": 131304.16399999973,
      "d": 3478.256000000023,
      "v": 95
    },
    {
      "midi": 48,
      "hit": false,
      "t": 131304.16399999973,
      "d": 3478.256000000023,
      "v": 82
    },
    {
      "midi": 60,
      "hit": false,
      "t": 131738.94599999973,
      "d": 1739.127999999997,
      "v": 108
    },
    {
      "midi": 63,
      "hit": false,
      "t": 132173.72799999974,
      "d": 2608.69200000001,
      "v": 106
    },
    {
      "midi": 67,
      "hit": false,
      "t": 132608.50999999975,
      "d": 2173.9100000000035,
      "v": 110
    },
    {
      "midi": 86,
      "hit": false,
      "t": 133043.29199999975,
      "d": 99.63754166665603,
      "v": 125
    },
    {
      "midi": 74,
      "hit": false,
      "t": 133043.29199999975,
      "d": 1739.127999999997,
      "v": 119
    },
    {
      "midi": 60,
      "hit": false,
      "t": 133478.07399999973,
      "d": 869.564000000013,
      "v": 97
    },
    {
      "midi": 84,
      "hit": false,
      "t": 133912.85599999974,
      "d": 126.81141666666372,
      "v": 127
    },
    {
      "midi": 72,
      "hit": false,
      "t": 133912.85599999974,
      "d": 869.564000000013,
      "v": 116
    },
    {
      "midi": 60,
      "hit": false,
      "t": 134347.63799999974,
      "d": 434.7820000000065,
      "v": 92
    },
    {
      "midi": 63,
      "hit": false,
      "t": 134782.41999999975,
      "d": 398.55016666665324,
      "v": 100
    },
    {
      "midi": 67,
      "hit": false,
      "t": 134782.41999999975,
      "d": 425.7240416666609,
      "v": 114
    },
    {
      "midi": 36,
      "hit": false,
      "t": 134782.41999999975,
      "d": 606.88320833334,
      "v": 95
    },
    {
      "midi": 48,
      "hit": false,
      "t": 134782.41999999975,
      "d": 624.9991250000021,
      "v": 90
    },
    {
      "midi": 60,
      "hit": false,
      "t": 135217.20199999976,
      "d": 516.3036250000005,
      "v": 97
    },
    {
      "midi": 63,
      "hit": false,
      "t": 135651.98399999976,
      "d": 362.31833333332906,
      "v": 101
    },
    {
      "midi": 67,
      "hit": false,
      "t": 136086.76599999977,
      "d": 117.75345833334723,
      "v": 108
    },
    {
      "midi": 63,
      "hit": false,
      "t": 136521.54799999978,
      "d": 262.6807916666439,
      "v": 86
    },
    {
      "midi": 69,
      "hit": false,
      "t": 136521.54799999978,
      "d": 471.0138333333016,
      "v": 104
    },
    {
      "midi": 53,
      "hit": false,
      "t": 136521.54799999978,
      "d": 507.24566666662577,
      "v": 96
    },
    {
      "midi": 41,
      "hit": false,
      "t": 136521.54799999978,
      "d": 570.6513749999576,
      "v": 106
    },
    {
      "midi": 63,
      "hit": false,
      "t": 136956.32999999975,
      "d": 380.43424999999115,
      "v": 100
    },
    {
      "midi": 65,
      "hit": false,
      "t": 137391.11199999973,
      "d": 443.8399583333521,
      "v": 97
    },
    {
      "midi": 72,
      "hit": false,
      "t": 137825.89399999974,
      "d": 72.46366666667745,
      "v": 99
    },
    {
      "midi": 58,
      "hit": false,
      "t": 138260.67599999974,
      "d": 380.43424999999115,
      "v": 86
    },
    {
      "midi": 62,
      "hit": false,
      "t": 138260.67599999974,
      "d": 389.49220833333675,
      "v": 106
    },
    {
      "midi": 34,
      "hit": false,
      "t": 138260.67599999974,
      "d": 960.1435833333526,
      "v": 86
    },
    {
      "midi": 46,
      "hit": false,
      "t": 138260.67599999974,
      "d": 960.1435833333526,
      "v": 76
    },
    {
      "midi": 53,
      "hit": false,
      "t": 138695.45799999975,
      "d": 480.0717916666763,
      "v": 90
    },
    {
      "midi": 58,
      "hit": false,
      "t": 139130.23999999976,
      "d": 398.55016666668234,
      "v": 102
    },
    {
      "midi": 62,
      "hit": false,
      "t": 139565.02199999976,
      "d": 434.7820000000065,
      "v": 100
    },
    {
      "midi": 79,
      "hit": false,
      "t": 139999.80399999977,
      "d": 81.52162499999395,
      "v": 126
    },
    {
      "midi": 67,
      "hit": false,
      "t": 139999.80399999977,
      "d": 172.1012083333335,
      "v": 120
    },
    {
      "midi": 53,
      "hit": false,
      "t": 140434.58599999978,
      "d": 362.31833333332906,
      "v": 92
    },
    {
      "midi": 77,
      "hit": false,
      "t": 140869.36799999978,
      "d": 126.81141666666372,
      "v": 118
    },
    {
      "midi": 65,
      "hit": false,
      "t": 140869.36799999978,
      "d": 461.9558750000142,
      "v": 115
    },
    {
      "midi": 53,
      "hit": false,
      "t": 141304.1499999998,
      "d": 190.21712499999558,
      "v": 93
    },
    {
      "midi": 58,
      "hit": false,
      "t": 141738.9319999998,
      "d": 407.60812499999884,
      "v": 106
    },
    {
      "midi": 62,
      "hit": false,
      "t": 141738.9319999998,
      "d": 434.7820000000065,
      "v": 120
    },
    {
      "midi": 31,
      "hit": false,
      "t": 141738.9319999998,
      "d": 561.5934166666702,
      "v": 104
    },
    {
      "midi": 43,
      "hit": false,
      "t": 141738.9319999998,
      "d": 588.7672916666779,
      "v": 86
    },
    {
      "midi": 55,
      "hit": false,
      "t": 142173.7139999998,
      "d": 489.1297499999928,
      "v": 101
    },
    {
      "midi": 58,
      "hit": false,
      "t": 142608.4959999998,
      "d": 480.0717916666472,
      "v": 98
    },
    {
      "midi": 62,
      "hit": false,
      "t": 143043.2779999998,
      "d": 443.8399583333521,
      "v": 101
    },
    {
      "midi": 69,
      "hit": false,
      "t": 143478.0599999998,
      "d": 117.75345833334723,
      "v": 125
    },
    {
      "midi": 81,
      "hit": false,
      "t": 143478.0599999998,
      "d": 163.043250000017,
      "v": 127
    },
    {
      "midi": 55,
      "hit": false,
      "t": 143912.8419999998,
      "d": 371.37629166667466,
      "v": 97
    },
    {
      "midi": 79,
      "hit": false,
      "t": 144347.6239999998,
      "d": 163.0432499999879,
      "v": 127
    },
    {
      "midi": 67,
      "hit": false,
      "t": 144347.6239999998,
      "d": 244.56487499998184,
      "v": 115
    },
    {
      "midi": 55,
      "hit": false,
      "t": 144782.40599999978,
      "d": 90.57958333333954,
      "v": 103
    },
    {
      "midi": 63,
      "hit": false,
      "t": 145217.1879999998,
      "d": 380.43424999999115,
      "v": 105
    },
    {
      "midi": 67,
      "hit": false,
      "t": 145217.1879999998,
      "d": 398.55016666665324,
      "v": 120
    },
    {
      "midi": 48,
      "hit": false,
      "t": 145217.1879999998,
      "d": 606.8832083333109,
      "v": 92
    },
    {
      "midi": 36,
      "hit": false,
      "t": 145217.1879999998,
      "d": 652.1729999999807,
      "v": 98
    },
    {
      "midi": 60,
      "hit": false,
      "t": 145651.96999999977,
      "d": 489.1297499999928,
      "v": 107
    },
    {
      "midi": 63,
      "hit": false,
      "t": 146086.75199999977,
      "d": 443.839958333323,
      "v": 119
    },
    {
      "midi": 67,
      "hit": false,
      "t": 146521.53399999975,
      "d": 226.44895833334886,
      "v": 127
    },
    {
      "midi": 47,
      "hit": false,
      "t": 146956.31599999976,
      "d": 289.8546666666807,
      "v": 101
    },
    {
      "midi": 35,
      "hit": false,
      "t": 146956.31599999976,
      "d": 307.9705833333428,
      "v": 115
    },
    {
      "midi": 59,
      "hit": false,
      "t": 146956.31599999976,
      "d": 416.66608333334443,
      "v": 115
    },
    {
      "midi": 63,
      "hit": false,
      "t": 146956.31599999976,
      "d": 425.72404166669,
      "v": 116
    },
    {
      "midi": 67,
      "hit": false,
      "t": 147391.0979999998,
      "d": 144.9273333333258,
      "v": 115
    },
    {
      "midi": 34,
      "hit": false,
      "t": 147825.87999999977,
      "d": 271.7387500000186,
      "v": 111
    },
    {
      "midi": 46,
      "hit": false,
      "t": 147825.87999999977,
      "d": 298.9126250000263,
      "v": 93
    },
    {
      "midi": 58,
      "hit": false,
      "t": 147825.87999999977,
      "d": 416.66608333337354,
      "v": 109
    },
    {
      "midi": 63,
      "hit": false,
      "t": 147825.87999999977,
      "d": 425.72404166671913,
      "v": 124
    },
    {
      "midi": 67,
      "hit": false,
      "t": 148260.66199999984,
      "d": 226.44895833331975,
      "v": 120
    },
    {
      "midi": 57,
      "hit": false,
      "t": 148695.4439999998,
      "d": 307.9705833333428,
      "v": 106
    },
    {
      "midi": 63,
      "hit": false,
      "t": 148695.4439999998,
      "d": 416.66608333334443,
      "v": 119
    },
    {
      "midi": 45,
      "hit": false,
      "t": 148695.4439999998,
      "d": 869.564000000013,
      "v": 104
    },
    {
      "midi": 33,
      "hit": false,
      "t": 148695.4439999998,
      "d": 905.7958333333372,
      "v": 114
    },
    {
      "midi": 57,
      "hit": false,
      "t": 149130.22599999982,
      "d": 688.404833333334,
      "v": 112
    },
    {
      "midi": 63,
      "hit": false,
      "t": 149565.00799999983,
      "d": 452.8979166666686,
      "v": 127
    },
    {
      "midi": 67,
      "hit": false,
      "t": 149999.78999999983,
      "d": 126.81141666666372,
      "v": 122
    },
    {
      "midi": 32,
      "hit": false,
      "t": 150434.57199999984,
      "d": 253.62283333332743,
      "v": 117
    },
    {
      "midi": 44,
      "hit": false,
      "t": 150434.57199999984,
      "d": 262.68079166667303,
      "v": 91
    },
    {
      "midi": 56,
      "hit": false,
      "t": 150434.57199999984,
      "d": 425.7240416666609,
      "v": 103
    },
    {
      "midi": 63,
      "hit": false,
      "t": 150434.57199999984,
      "d": 452.8979166666686,
      "v": 120
    },
    {
      "midi": 67,
      "hit": false,
      "t": 150869.35399999985,
      "d": 362.31833333332906,
      "v": 125
    },
    {
      "midi": 31,
      "hit": false,
      "t": 151304.13599999985,
      "d": 298.9126249999972,
      "v": 117
    },
    {
      "midi": 43,
      "hit": false,
      "t": 151304.13599999985,
      "d": 344.202416666667,
      "v": 106
    },
    {
      "midi": 55,
      "hit": false,
      "t": 151304.13599999985,
      "d": 416.66608333334443,
      "v": 121
    },
    {
      "midi": 63,
      "hit": false,
      "t": 151304.13599999985,
      "d": 452.8979166666686,
      "v": 119
    },
    {
      "midi": 67,
      "hit": false,
      "t": 151738.91799999986,
      "d": 81.52162499999395,
      "v": 127
    },
    {
      "midi": 63,
      "hit": false,
      "t": 152173.69999999987,
      "d": 434.7820000000065,
      "v": 116
    },
    {
      "midi": 67,
      "hit": false,
      "t": 152173.69999999987,
      "d": 869.564000000013,
      "v": 122
    },
    {
      "midi": 39,
      "hit": false,
      "t": 152173.69999999987,
      "d": 2608.692000000039,
      "v": 114
    },
    {
      "midi": 51,
      "hit": false,
      "t": 152173.69999999987,
      "d": 2608.692000000039,
      "v": 109
    },
    {
      "midi": 63,
      "hit": false,
      "t": 152608.48199999987,
      "d": 869.564000000013,
      "v": 102
    },
    {
      "midi": 67,
      "hit": false,
      "t": 153043.26399999988,
      "d": 869.564000000013,
      "v": 105
    },
    {
      "midi": 70,
      "hit": false,
      "t": 153043.26399999988,
      "d": 869.564000000013,
      "v": 102
    },
    {
      "midi": 75,
      "hit": false,
      "t": 153043.26399999988,
      "d": 1739.128000000026,
      "v": 108
    },
    {
      "midi": 63,
      "hit": false,
      "t": 153478.0459999999,
      "d": 869.564000000013,
      "v": 96
    },
    {
      "midi": 67,
      "hit": false,
      "t": 153912.8279999999,
      "d": 869.564000000013,
      "v": 122
    },
    {
      "midi": 70,
      "hit": false,
      "t": 153912.8279999999,
      "d": 869.564000000013,
      "v": 102
    },
    {
      "midi": 63,
      "hit": false,
      "t": 154347.6099999999,
      "d": 434.7820000000065,
      "v": 96
    },
    {
      "midi": 38,
      "hit": false,
      "t": 154782.3919999999,
      "d": 869.564000000013,
      "v": 111
    },
    {
      "midi": 50,
      "hit": false,
      "t": 154782.3919999999,
      "d": 869.564000000013,
      "v": 103
    },
    {
      "midi": 62,
      "hit": false,
      "t": 154782.3919999999,
      "d": 869.564000000013,
      "v": 118
    },
    {
      "midi": 65,
      "hit": false,
      "t": 154782.3919999999,
      "d": 869.564000000013,
      "v": 115
    },
    {
      "midi": 58,
      "hit": false,
      "t": 155217.1739999999,
      "d": 434.7820000000065,
      "v": 91
    },
    {
      "midi": 60,
      "hit": false,
      "t": 155651.95599999992,
      "d": 434.7820000000065,
      "v": 94
    },
    {
      "midi": 63,
      "hit": false,
      "t": 155651.95599999992,
      "d": 869.564000000013,
      "v": 117
    },
    {
      "midi": 67,
      "hit": false,
      "t": 155651.95599999992,
      "d": 1304.3460000000196,
      "v": 123
    },
    {
      "midi": 36,
      "hit": false,
      "t": 155651.95599999992,
      "d": 3478.256000000023,
      "v": 110
    },
    {
      "midi": 48,
      "hit": false,
      "t": 155651.95599999992,
      "d": 3478.256000000023,
      "v": 106
    },
    {
      "midi": 60,
      "hit": false,
      "t": 156086.73799999992,
      "d": 452.8979166666686,
      "v": 99
    },
    {
      "midi": 63,
      "hit": false,
      "t": 156521.51999999993,
      "d": 2608.69200000001,
      "v": 113
    },
    {
      "midi": 67,
      "hit": false,
      "t": 156956.30199999994,
      "d": 434.7820000000065,
      "v": 115
    },
    {
      "midi": 86,
      "hit": false,
      "t": 157391.08399999994,
      "d": 163.0432499999879,
      "v": 126
    },
    {
      "midi": 74,
      "hit": false,
      "t": 157391.08399999994,
      "d": 1739.127999999997,
      "v": 127
    },
    {
      "midi": 60,
      "hit": false,
      "t": 157825.86599999992,
      "d": 869.564000000013,
      "v": 103
    },
    {
      "midi": 84,
      "hit": false,
      "t": 158260.64799999993,
      "d": 262.68079166667303,
      "v": 127
    },
    {
      "midi": 72,
      "hit": false,
      "t": 158260.64799999993,
      "d": 869.564000000013,
      "v": 126
    },
    {
      "midi": 60,
      "hit": false,
      "t": 158695.42999999993,
      "d": 434.7820000000065,
      "v": 105
    },
    {
      "midi": 65,
      "hit": false,
      "t": 159130.21199999994,
      "d": 298.9126249999972,
      "v": 110
    },
    {
      "midi": 68,
      "hit": false,
      "t": 159130.21199999994,
      "d": 416.66608333334443,
      "v": 105
    },
    {
      "midi": 53,
      "hit": false,
      "t": 159130.21199999994,
      "d": 751.8105416666949,
      "v": 114
    },
    {
      "midi": 41,
      "hit": false,
      "t": 159130.21199999994,
      "d": 778.9844166667026,
      "v": 116
    },
    {
      "midi": 65,
      "hit": false,
      "t": 159564.99399999995,
      "d": 135.8693750000093,
      "v": 112
    },
    {
      "midi": 77,
      "hit": false,
      "t": 159999.77599999998,
      "d": 72.46366666667745,
      "v": 108
    },
    {
      "midi": 68,
      "hit": false,
      "t": 159999.77599999998,
      "d": 90.57958333333954,
      "v": 105
    },
    {
      "midi": 72,
      "hit": false,
      "t": 159999.77599999998,
      "d": 99.63754166668514,
      "v": 121
    },
    {
      "midi": 40,
      "hit": false,
      "t": 160434.55800000002,
      "d": 81.52162499999395,
      "v": 110
    },
    {
      "midi": 52,
      "hit": false,
      "t": 160434.55800000002,
      "d": 99.63754166665603,
      "v": 109
    },
    {
      "midi": 64,
      "hit": false,
      "t": 160434.55800000002,
      "d": 181.15916666664998,
      "v": 113
    },
    {
      "midi": 68,
      "hit": false,
      "t": 160434.55800000002,
      "d": 217.39099999997416,
      "v": 113
    },
    {
      "midi": 72,
      "hit": false,
      "t": 160434.55800000002,
      "d": 235.50691666663624,
      "v": 126
    },
    {
      "midi": 63,
      "hit": false,
      "t": 160869.34,
      "d": 289.8546666666807,
      "v": 117
    },
    {
      "midi": 39,
      "hit": false,
      "t": 160869.34,
      "d": 371.37629166667466,
      "v": 127
    },
    {
      "midi": 68,
      "hit": false,
      "t": 160869.34,
      "d": 407.60812499999884,
      "v": 120
    },
    {
      "midi": 51,
      "hit": false,
      "t": 160869.34,
      "d": 416.66608333334443,
      "v": 101
    },
    {
      "midi": 72,
      "hit": false,
      "t": 160869.34,
      "d": 425.72404166669,
      "v": 123
    },
    {
      "midi": 63,
      "hit": false,
      "t": 161304.12200000003,
      "d": 108.69550000000163,
      "v": 114
    },
    {
      "midi": 50,
      "hit": false,
      "t": 161738.904,
      "d": 326.0865000000049,
      "v": 110
    },
    {
      "midi": 62,
      "hit": false,
      "t": 161738.904,
      "d": 335.1444583333505,
      "v": 121
    },
    {
      "midi": 38,
      "hit": false,
      "t": 161738.904,
      "d": 362.31833333335817,
      "v": 115
    },
    {
      "midi": 68,
      "hit": false,
      "t": 161738.904,
      "d": 434.7820000000356,
      "v": 119
    },
    {
      "midi": 72,
      "hit": false,
      "t": 161738.904,
      "d": 461.9558750000433,
      "v": 122
    },
    {
      "midi": 62,
      "hit": false,
      "t": 162173.68600000005,
      "d": 72.46366666667745,
      "v": 110
    },
    {
      "midi": 34,
      "hit": false,
      "t": 162608.46800000005,
      "d": 298.9126249999972,
      "v": 117
    },
    {
      "midi": 46,
      "hit": false,
      "t": 162608.46800000005,
      "d": 307.9705833333428,
      "v": 92
    },
    {
      "midi": 62,
      "hit": false,
      "t": 162608.46800000005,
      "d": 362.31833333332906,
      "v": 121
    },
    {
      "midi": 58,
      "hit": false,
      "t": 162608.46800000005,
      "d": 371.37629166667466,
      "v": 108
    },
    {
      "midi": 53,
      "hit": false,
      "t": 162608.46800000005,
      "d": 407.60812499999884,
      "v": 112
    },
    {
      "midi": 34,
      "hit": false,
      "t": 163043.25000000006,
      "d": 90.57958333333954,
      "v": 97
    },
    {
      "midi": 46,
      "hit": false,
      "t": 163043.25000000006,
      "d": 90.57958333333954,
      "v": 84
    },
    {
      "midi": 46,
      "hit": false,
      "t": 163260.64100000006,
      "d": 72.46366666667745,
      "v": 84
    },
    {
      "midi": 58,
      "hit": false,
      "t": 163260.64100000006,
      "d": 72.46366666667745,
      "v": 102
    },
    {
      "midi": 62,
      "hit": false,
      "t": 163260.64100000006,
      "d": 72.46366666667745,
      "v": 115
    },
    {
      "midi": 34,
      "hit": false,
      "t": 163260.64100000006,
      "d": 81.52162500002305,
      "v": 108
    },
    {
      "midi": 65,
      "hit": false,
      "t": 163260.64100000006,
      "d": 90.57958333336865,
      "v": 107
    },
    {
      "midi": 34,
      "hit": false,
      "t": 163478.03200000012,
      "d": 117.75345833334723,
      "v": 125
    },
    {
      "midi": 46,
      "hit": false,
      "t": 163478.03200000012,
      "d": 117.75345833334723,
      "v": 103
    },
    {
      "midi": 62,
      "hit": false,
      "t": 163478.03200000012,
      "d": 407.60812500002794,
      "v": 121
    },
    {
      "midi": 58,
      "hit": false,
      "t": 163478.03200000012,
      "d": 416.66608333337354,
      "v": 110
    },
    {
      "midi": 65,
      "hit": false,
      "t": 163478.03200000012,
      "d": 416.66608333337354,
      "v": 107
    },
    {
      "midi": 46,
      "hit": false,
      "t": 163912.81400000016,
      "d": 72.46366666667745,
      "v": 97
    },
    {
      "midi": 34,
      "hit": false,
      "t": 163912.81400000016,
      "d": 81.52162500002305,
      "v": 104
    },
    {
      "midi": 34,
      "hit": false,
      "t": 164130.2050000002,
      "d": 72.46366666667745,
      "v": 105
    },
    {
      "midi": 46,
      "hit": false,
      "t": 164130.2050000002,
      "d": 72.46366666667745,
      "v": 93
    },
    {
      "midi": 58,
      "hit": false,
      "t": 164130.2050000002,
      "d": 81.52162500002305,
      "v": 98
    },
    {
      "midi": 62,
      "hit": false,
      "t": 164130.2050000002,
      "d": 81.52162500002305,
      "v": 115
    },
    {
      "midi": 34,
      "hit": false,
      "t": 164347.59600000022,
      "d": 108.69550000000163,
      "v": 119
    },
    {
      "midi": 46,
      "hit": false,
      "t": 164347.59600000022,
      "d": 126.81141666666372,
      "v": 101
    },
    {
      "midi": 58,
      "hit": false,
      "t": 164347.59600000022,
      "d": 190.21712499999558,
      "v": 112
    },
    {
      "midi": 62,
      "hit": false,
      "t": 164347.59600000022,
      "d": 235.50691666666535,
      "v": 127
    },
    {
      "midi": 34,
      "hit": false,
      "t": 164782.37800000023,
      "d": 72.46366666667745,
      "v": 104
    },
    {
      "midi": 46,
      "hit": false,
      "t": 164782.37800000023,
      "d": 72.46366666667745,
      "v": 88
    },
    {
      "midi": 34,
      "hit": false,
      "t": 164999.76900000023,
      "d": 63.40570833333186,
      "v": 100
    },
    {
      "midi": 46,
      "hit": false,
      "t": 164999.76900000023,
      "d": 63.40570833333186,
      "v": 86
    },
    {
      "midi": 62,
      "hit": false,
      "t": 164999.76900000023,
      "d": 90.57958333333954,
      "v": 112
    },
    {
      "midi": 58,
      "hit": false,
      "t": 164999.76900000023,
      "d": 99.63754166668514,
      "v": 93
    },
    {
      "midi": 68,
      "hit": false,
      "t": 164999.76900000023,
      "d": 99.63754166668514,
      "v": 102
    },
    {
      "midi": 34,
      "hit": false,
      "t": 165217.16000000027,
      "d": 99.63754166665603,
      "v": 105
    },
    {
      "midi": 46,
      "hit": false,
      "t": 165217.16000000027,
      "d": 108.69550000000163,
      "v": 101
    },
    {
      "midi": 68,
      "hit": false,
      "t": 165217.16000000027,
      "d": 217.39100000000326,
      "v": 127
    },
    {
      "midi": 58,
      "hit": false,
      "t": 165217.16000000027,
      "d": 262.68079166667303,
      "v": 117
    },
    {
      "midi": 62,
      "hit": false,
      "t": 165217.16000000027,
      "d": 271.7387500000186,
      "v": 127
    },
    {
      "midi": 46,
      "hit": false,
      "t": 165434.55100000027,
      "d": 72.46366666667745,
      "v": 105
    },
    {
      "midi": 34,
      "hit": false,
      "t": 165434.55100000027,
      "d": 81.52162500002305,
      "v": 108
    },
    {
      "midi": 34,
      "hit": false,
      "t": 165651.9420000003,
      "d": 63.40570833333186,
      "v": 127
    },
    {
      "midi": 46,
      "hit": false,
      "t": 165651.9420000003,
      "d": 72.46366666667745,
      "v": 109
    },
    {
      "midi": 58,
      "hit": false,
      "t": 165651.9420000003,
      "d": 72.46366666667745,
      "v": 119
    },
    {
      "midi": 68,
      "hit": false,
      "t": 165651.9420000003,
      "d": 72.46366666667745,
      "v": 124
    },
    {
      "midi": 62,
      "hit": false,
      "t": 165651.9420000003,
      "d": 90.57958333333954,
      "v": 127
    },
    {
      "midi": 58,
      "hit": false,
      "t": 166086.7240000003,
      "d": 244.56487499998184,
      "v": 110
    },
    {
      "midi": 63,
      "hit": false,
      "t": 166086.7240000003,
      "d": 389.49220833330764,
      "v": 124
    },
    {
      "midi": 67,
      "hit": false,
      "t": 166086.7240000003,
      "d": 389.49220833330764,
      "v": 127
    },
    {
      "midi": 51,
      "hit": false,
      "t": 166086.7240000003,
      "d": 1186.5925416666723,
      "v": 115
    },
    {
      "midi": 39,
      "hit": false,
      "t": 166086.7240000003,
      "d": 1195.650500000018,
      "v": 127
    },
    {
      "midi": 58,
      "hit": false,
      "t": 166521.50600000028,
      "d": 190.21712499999558,
      "v": 102
    },
    {
      "midi": 63,
      "hit": false,
      "t": 166956.2880000003,
      "d": 371.37629166670376,
      "v": 119
    },
    {
      "midi": 67,
      "hit": false,
      "t": 166956.2880000003,
      "d": 380.43425000004936,
      "v": 120
    },
    {
      "midi": 70,
      "hit": false,
      "t": 166956.2880000003,
      "d": 452.8979166666977,
      "v": 114
    },
    {
      "midi": 58,
      "hit": false,
      "t": 167391.07000000033,
      "d": 244.56487499998184,
      "v": 107
    },
    {
      "midi": 65,
      "hit": false,
      "t": 167825.8520000003,
      "d": 416.6660833333153,
      "v": 121
    },
    {
      "midi": 62,
      "hit": false,
      "t": 167825.8520000003,
      "d": 452.8979166666395,
      "v": 123
    },
    {
      "midi": 38,
      "hit": false,
      "t": 167825.8520000003,
      "d": 932.9697083333158,
      "v": 122
    },
    {
      "midi": 50,
      "hit": false,
      "t": 167825.8520000003,
      "d": 942.0276666666614,
      "v": 111
    },
    {
      "midi": 58,
      "hit": false,
      "t": 168260.63400000028,
      "d": 199.27508333334117,
      "v": 100
    },
    {
      "midi": 65,
      "hit": false,
      "t": 168695.4160000003,
      "d": 335.1444583333505,
      "v": 110
    },
    {
      "midi": 62,
      "hit": false,
      "t": 168695.4160000003,
      "d": 380.43425000002026,
      "v": 126
    },
    {
      "midi": 70,
      "hit": false,
      "t": 168695.4160000003,
      "d": 461.9558750000142,
      "v": 102
    },
    {
      "midi": 38,
      "hit": false,
      "t": 169130.1980000003,
      "d": 108.69550000000163,
      "v": 113
    },
    {
      "midi": 50,
      "hit": false,
      "t": 169130.1980000003,
      "d": 108.69550000000163,
      "v": 109
    },
    {
      "midi": 58,
      "hit": false,
      "t": 169130.1980000003,
      "d": 108.69550000000163,
      "v": 96
    },
    {
      "midi": 63,
      "hit": false,
      "t": 169564.98000000027,
      "d": 869.564000000013,
      "v": 117
    },
    {
      "midi": 67,
      "hit": false,
      "t": 169564.98000000027,
      "d": 1304.3460000000196,
      "v": 114
    },
    {
      "midi": 36,
      "hit": false,
      "t": 169564.98000000027,
      "d": 3478.256000000023,
      "v": 103
    },
    {
      "midi": 48,
      "hit": false,
      "t": 169564.98000000027,
      "d": 3478.256000000023,
      "v": 109
    },
    {
      "midi": 60,
      "hit": false,
      "t": 169999.76200000028,
      "d": 1739.128000000026,
      "v": 115
    },
    {
      "midi": 63,
      "hit": false,
      "t": 170434.5440000003,
      "d": 2608.69200000001,
      "v": 117
    },
    {
      "midi": 67,
      "hit": false,
      "t": 170869.3260000003,
      "d": 2173.9100000000035,
      "v": 115
    },
    {
      "midi": 86,
      "hit": false,
      "t": 171304.1080000003,
      "d": 751.8105416666658,
      "v": 126
    },
    {
      "midi": 74,
      "hit": false,
      "t": 171304.1080000003,
      "d": 1739.127999999997,
      "v": 127
    },
    {
      "midi": 60,
      "hit": false,
      "t": 171738.8900000003,
      "d": 869.564000000013,
      "v": 105
    },
    {
      "midi": 84,
      "hit": false,
      "t": 172173.6720000003,
      "d": 643.1150416666642,
      "v": 127
    },
    {
      "midi": 72,
      "hit": false,
      "t": 172173.6720000003,
      "d": 869.5639999999839,
      "v": 126
    },
    {
      "midi": 60,
      "hit": false,
      "t": 172608.45400000032,
      "d": 434.7819999999774,
      "v": 103
    },
    {
      "midi": 65,
      "hit": false,
      "t": 173043.2360000003,
      "d": 298.9126249999972,
      "v": 119
    },
    {
      "midi": 68,
      "hit": false,
      "t": 173043.2360000003,
      "d": 389.49220833333675,
      "v": 112
    },
    {
      "midi": 53,
      "hit": false,
      "t": 173043.2360000003,
      "d": 525.3615833333461,
      "v": 109
    },
    {
      "midi": 41,
      "hit": false,
      "t": 173043.2360000003,
      "d": 543.4775000000081,
      "v": 110
    },
    {
      "midi": 65,
      "hit": false,
      "t": 173478.0180000003,
      "d": 163.0432499999879,
      "v": 114
    },
    {
      "midi": 77,
      "hit": false,
      "t": 173912.80000000028,
      "d": 117.75345833334723,
      "v": 127
    },
    {
      "midi": 72,
      "hit": false,
      "t": 173912.80000000028,
      "d": 135.8693750000093,
      "v": 119
    },
    {
      "midi": 68,
      "hit": false,
      "t": 173912.80000000028,
      "d": 190.21712499999558,
      "v": 103
    },
    {
      "midi": 52,
      "hit": false,
      "t": 174347.5820000003,
      "d": 99.63754166665603,
      "v": 113
    },
    {
      "midi": 40,
      "hit": false,
      "t": 174347.5820000003,
      "d": 108.69550000000163,
      "v": 111
    },
    {
      "midi": 64,
      "hit": false,
      "t": 174347.5820000003,
      "d": 172.1012083333335,
      "v": 114
    },
    {
      "midi": 68,
      "hit": false,
      "t": 174347.5820000003,
      "d": 199.27508333334117,
      "v": 114
    },
    {
      "midi": 72,
      "hit": false,
      "t": 174347.5820000003,
      "d": 217.39100000000326,
      "v": 122
    },
    {
      "midi": 39,
      "hit": false,
      "t": 174782.3640000003,
      "d": 298.9126249999972,
      "v": 123
    },
    {
      "midi": 51,
      "hit": false,
      "t": 174782.3640000003,
      "d": 317.0285416666593,
      "v": 123
    },
    {
      "midi": 63,
      "hit": false,
      "t": 174782.3640000003,
      "d": 335.1444583333214,
      "v": 120
    },
    {
      "midi": 68,
      "hit": false,
      "t": 174782.3640000003,
      "d": 416.6660833333153,
      "v": 127
    },
    {
      "midi": 72,
      "hit": false,
      "t": 174782.3640000003,
      "d": 452.8979166666395,
      "v": 119
    },
    {
      "midi": 63,
      "hit": false,
      "t": 175217.14600000027,
      "d": 153.9852916666714,
      "v": 108
    },
    {
      "midi": 38,
      "hit": false,
      "t": 175651.92800000028,
      "d": 226.44895833331975,
      "v": 125
    },
    {
      "midi": 50,
      "hit": false,
      "t": 175651.92800000028,
      "d": 262.6807916666439,
      "v": 122
    },
    {
      "midi": 62,
      "hit": false,
      "t": 175651.92800000028,
      "d": 335.1444583333214,
      "v": 125
    },
    {
      "midi": 68,
      "hit": false,
      "t": 175651.92800000028,
      "d": 480.0717916666472,
      "v": 116
    },
    {
      "midi": 72,
      "hit": false,
      "t": 175651.92800000028,
      "d": 489.1297499999928,
      "v": 116
    },
    {
      "midi": 62,
      "hit": false,
      "t": 176086.71000000025,
      "d": 153.9852916666714,
      "v": 103
    },
    {
      "midi": 34,
      "hit": false,
      "t": 176521.4920000003,
      "d": 335.1444583333214,
      "v": 117
    },
    {
      "midi": 46,
      "hit": false,
      "t": 176521.4920000003,
      "d": 335.1444583333214,
      "v": 105
    },
    {
      "midi": 65,
      "hit": false,
      "t": 176521.4920000003,
      "d": 362.31833333332906,
      "v": 127
    },
    {
      "midi": 58,
      "hit": false,
      "t": 176521.4920000003,
      "d": 380.43424999999115,
      "v": 106
    },
    {
      "midi": 62,
      "hit": false,
      "t": 176521.4920000003,
      "d": 534.4195416666334,
      "v": 127
    },
    {
      "midi": 34,
      "hit": false,
      "t": 176956.27400000027,
      "d": 99.63754166665603,
      "v": 97
    },
    {
      "midi": 46,
      "hit": false,
      "t": 176956.27400000027,
      "d": 108.69550000000163,
      "v": 91
    },
    {
      "midi": 46,
      "hit": false,
      "t": 177173.66500000027,
      "d": 81.52162499999395,
      "v": 105
    },
    {
      "midi": 34,
      "hit": false,
      "t": 177173.66500000027,
      "d": 90.57958333333954,
      "v": 109
    },
    {
      "midi": 70,
      "hit": false,
      "t": 177173.66500000027,
      "d": 108.69550000000163,
      "v": 110
    },
    {
      "midi": 46,
      "hit": false,
      "t": 177391.05600000024,
      "d": 253.62283333332743,
      "v": 117
    },
    {
      "midi": 34,
      "hit": false,
      "t": 177391.05600000024,
      "d": 271.7387499999895,
      "v": 127
    },
    {
      "midi": 65,
      "hit": false,
      "t": 177391.05600000024,
      "d": 362.31833333332906,
      "v": 114
    },
    {
      "midi": 62,
      "hit": false,
      "t": 177391.05600000024,
      "d": 425.7240416666609,
      "v": 120
    },
    {
      "midi": 70,
      "hit": false,
      "t": 177391.05600000024,
      "d": 461.9558750000142,
      "v": 122
    },
    {
      "midi": 46,
      "hit": false,
      "t": 177825.83800000025,
      "d": 72.46366666667745,
      "v": 105
    },
    {
      "midi": 34,
      "hit": false,
      "t": 177825.83800000025,
      "d": 90.57958333333954,
      "v": 109
    },
    {
      "midi": 34,
      "hit": false,
      "t": 178043.22900000025,
      "d": 63.40570833333186,
      "v": 117
    },
    {
      "midi": 65,
      "hit": false,
      "t": 178043.22900000025,
      "d": 72.46366666667745,
      "v": 109
    },
    {
      "midi": 46,
      "hit": false,
      "t": 178043.22900000025,
      "d": 81.52162500002305,
      "v": 97
    },
    {
      "midi": 62,
      "hit": false,
      "t": 178043.22900000025,
      "d": 81.52162500002305,
      "v": 107
    },
    {
      "midi": 58,
      "hit": false,
      "t": 178043.22900000025,
      "d": 90.57958333336865,
      "v": 88
    },
    {
      "midi": 34,
      "hit": false,
      "t": 178260.6200000003,
      "d": 280.7967083333351,
      "v": 127
    },
    {
      "midi": 46,
      "hit": false,
      "t": 178260.6200000003,
      "d": 289.8546666666807,
      "v": 112
    },
    {
      "midi": 65,
      "hit": false,
      "t": 178260.6200000003,
      "d": 353.2603750000126,
      "v": 121
    },
    {
      "midi": 62,
      "hit": false,
      "t": 178260.6200000003,
      "d": 407.60812499999884,
      "v": 121
    },
    {
      "midi": 58,
      "hit": false,
      "t": 178260.6200000003,
      "d": 434.7820000000065,
      "v": 101
    },
    {
      "midi": 46,
      "hit": false,
      "t": 178695.4020000003,
      "d": 72.46366666667745,
      "v": 101
    },
    {
      "midi": 34,
      "hit": false,
      "t": 178695.4020000003,
      "d": 81.52162500002305,
      "v": 111
    },
    {
      "midi": 34,
      "hit": false,
      "t": 178912.79300000033,
      "d": 63.40570833333186,
      "v": 114
    },
    {
      "midi": 46,
      "hit": false,
      "t": 178912.79300000033,
      "d": 72.46366666667745,
      "v": 101
    },
    {
      "midi": 58,
      "hit": false,
      "t": 178912.79300000033,
      "d": 90.57958333333954,
      "v": 98
    },
    {
      "midi": 62,
      "hit": false,
      "t": 178912.79300000033,
      "d": 99.63754166668514,
      "v": 118
    },
    {
      "midi": 68,
      "hit": false,
      "t": 178912.79300000033,
      "d": 99.63754166668514,
      "v": 109
    },
    {
      "midi": 46,
      "hit": false,
      "t": 179130.18400000033,
      "d": 72.46366666667745,
      "v": 109
    },
    {
      "midi": 34,
      "hit": false,
      "t": 179130.18400000033,
      "d": 81.52162500002305,
      "v": 119
    },
    {
      "midi": 58,
      "hit": false,
      "t": 179130.18400000033,
      "d": 416.66608333337354,
      "v": 103
    },
    {
      "midi": 62,
      "hit": false,
      "t": 179130.18400000033,
      "d": 425.72404166671913,
      "v": 125
    },
    {
      "midi": 68,
      "hit": false,
      "t": 179130.18400000033,
      "d": 425.72404166671913,
      "v": 120
    },
    {
      "midi": 34,
      "hit": false,
      "t": 179347.57500000036,
      "d": 63.40570833333186,
      "v": 119
    },
    {
      "midi": 46,
      "hit": false,
      "t": 179347.57500000036,
      "d": 72.46366666667745,
      "v": 111
    },
    {
      "midi": 34,
      "hit": false,
      "t": 179564.9660000004,
      "d": 81.52162499999395,
      "v": 127
    },
    {
      "midi": 46,
      "hit": false,
      "t": 179564.9660000004,
      "d": 90.57958333333954,
      "v": 121
    },
    {
      "midi": 63,
      "hit": false,
      "t": 179999.7480000004,
      "d": 326.0865000000049,
      "v": 110
    },
    {
      "midi": 67,
      "hit": false,
      "t": 179999.7480000004,
      "d": 452.8979166666686,
      "v": 118
    },
    {
      "midi": 70,
      "hit": false,
      "t": 179999.7480000004,
      "d": 461.9558750000142,
      "v": 112
    },
    {
      "midi": 39,
      "hit": false,
      "t": 179999.7480000004,
      "d": 1186.5925416666723,
      "v": 127
    },
    {
      "midi": 51,
      "hit": false,
      "t": 179999.7480000004,
      "d": 1195.650500000018,
      "v": 123
    },
    {
      "midi": 63,
      "hit": false,
      "t": 180434.5300000004,
      "d": 199.27508333334117,
      "v": 102
    },
    {
      "midi": 70,
      "hit": false,
      "t": 180869.3120000004,
      "d": 398.55016666668234,
      "v": 110
    },
    {
      "midi": 67,
      "hit": false,
      "t": 180869.3120000004,
      "d": 407.60812500002794,
      "v": 120
    },
    {
      "midi": 63,
      "hit": false,
      "t": 181304.09400000045,
      "d": 72.46366666667745,
      "v": 106
    },
    {
      "midi": 62,
      "hit": false,
      "t": 181738.87600000045,
      "d": 307.9705833333137,
      "v": 114
    },
    {
      "midi": 65,
      "hit": false,
      "t": 181738.87600000045,
      "d": 443.839958333323,
      "v": 121
    },
    {
      "midi": 70,
      "hit": false,
      "t": 181738.87600000045,
      "d": 452.8979166666686,
      "v": 109
    },
    {
      "midi": 50,
      "hit": false,
      "t": 181738.87600000045,
      "d": 1096.0129583333037,
      "v": 113
    },
    {
      "midi": 38,
      "hit": false,
      "t": 181738.87600000045,
      "d": 1105.0709166666493,
      "v": 127
    },
    {
      "midi": 62,
      "hit": false,
      "t": 182173.65800000043,
      "d": 289.8546666666807,
      "v": 108
    },
    {
      "midi": 70,
      "hit": false,
      "t": 182608.44000000044,
      "d": 425.7240416666609,
      "v": 119
    },
    {
      "midi": 65,
      "hit": false,
      "t": 182608.44000000044,
      "d": 434.7820000000065,
      "v": 125
    },
    {
      "midi": 62,
      "hit": false,
      "t": 183043.22200000045,
      "d": 90.57958333333954,
      "v": 115
    },
    {
      "midi": 67,
      "hit": false,
      "t": 183478.00400000045,
      "d": 389.49220833333675,
      "v": 115
    },
    {
      "midi": 63,
      "hit": false,
      "t": 183478.00400000045,
      "d": 398.55016666668234,
      "v": 116
    },
    {
      "midi": 36,
      "hit": false,
      "t": 183478.00400000045,
      "d": 2264.489583333372,
      "v": 113
    },
    {
      "midi": 48,
      "hit": false,
      "t": 183478.00400000045,
      "d": 2282.605500000034,
      "v": 120
    },
    {
      "midi": 60,
      "hit": false,
      "t": 183912.78600000046,
      "d": 461.9558750000142,
      "v": 111
    },
    {
      "midi": 63,
      "hit": false,
      "t": 184347.56800000046,
      "d": 380.43425000002026,
      "v": 124
    },
    {
      "midi": 67,
      "hit": false,
      "t": 184782.35000000047,
      "d": 507.245666666684,
      "v": 119
    },
    {
      "midi": 74,
      "hit": false,
      "t": 185217.13200000048,
      "d": 135.8693750000093,
      "v": 127
    },
    {
      "midi": 86,
      "hit": false,
      "t": 185217.13200000048,
      "d": 480.0717916666763,
      "v": 127
    },
    {
      "midi": 60,
      "hit": false,
      "t": 185651.91400000048,
      "d": 434.7820000000065,
      "v": 108
    },
    {
      "midi": 72,
      "hit": false,
      "t": 186086.6960000005,
      "d": 416.66608333334443,
      "v": 127
    },
    {
      "midi": 84,
      "hit": false,
      "t": 186086.6960000005,
      "d": 606.88320833334,
      "v": 127
    },
    {
      "midi": 60,
      "hit": false,
      "t": 186521.4780000005,
      "d": 208.33304166665766,
      "v": 108
    },
    {
      "midi": 65,
      "hit": false,
      "t": 186956.2600000005,
      "d": 262.68079166667303,
      "v": 116
    },
    {
      "midi": 68,
      "hit": false,
      "t": 186956.2600000005,
      "d": 353.2603750000126,
      "v": 105
    },
    {
      "midi": 53,
      "hit": false,
      "t": 186956.2600000005,
      "d": 733.6946250000328,
      "v": 117
    },
    {
      "midi": 41,
      "hit": false,
      "t": 186956.2600000005,
      "d": 788.0423750000191,
      "v": 110
    },
    {
      "midi": 65,
      "hit": false,
      "t": 187391.0420000005,
      "d": 117.75345833334723,
      "v": 112
    },
    {
      "midi": 72,
      "hit": false,
      "t": 187825.82400000052,
      "d": 108.69550000000163,
      "v": 103
    },
    {
      "midi": 77,
      "hit": false,
      "t": 187825.82400000052,
      "d": 108.69550000000163,
      "v": 116
    },
    {
      "midi": 68,
      "hit": false,
      "t": 187825.82400000052,
      "d": 172.1012083333335,
      "v": 98
    },
    {
      "midi": 40,
      "hit": false,
      "t": 188260.60600000052,
      "d": 117.75345833334723,
      "v": 127
    },
    {
      "midi": 52,
      "hit": false,
      "t": 188260.60600000052,
      "d": 117.75345833334723,
      "v": 113
    },
    {
      "midi": 64,
      "hit": false,
      "t": 188260.60600000052,
      "d": 181.15916666667908,
      "v": 116
    },
    {
      "midi": 72,
      "hit": false,
      "t": 188260.60600000052,
      "d": 208.33304166668677,
      "v": 127
    },
    {
      "midi": 68,
      "hit": false,
      "t": 188260.60600000052,
      "d": 217.39100000003236,
      "v": 116
    },
    {
      "midi": 63,
      "hit": false,
      "t": 188695.38800000056,
      "d": 298.9126250000263,
      "v": 120
    },
    {
      "midi": 68,
      "hit": false,
      "t": 188695.38800000056,
      "d": 416.66608333337354,
      "v": 119
    },
    {
      "midi": 72,
      "hit": false,
      "t": 188695.38800000056,
      "d": 452.8979166666977,
      "v": 127
    },
    {
      "midi": 39,
      "hit": false,
      "t": 188695.38800000056,
      "d": 543.4775000000373,
      "v": 127
    },
    {
      "midi": 51,
      "hit": false,
      "t": 188695.38800000056,
      "d": 579.7093333333905,
      "v": 112
    },
    {
      "midi": 63,
      "hit": false,
      "t": 189130.1700000006,
      "d": 135.8693750000093,
      "v": 109
    },
    {
      "midi": 62,
      "hit": false,
      "t": 189564.95200000063,
      "d": 298.9126249999972,
      "v": 127
    },
    {
      "midi": 50,
      "hit": false,
      "t": 189564.95200000063,
      "d": 416.66608333334443,
      "v": 117
    },
    {
      "midi": 68,
      "hit": false,
      "t": 189564.95200000063,
      "d": 425.72404166669,
      "v": 116
    },
    {
      "midi": 38,
      "hit": false,
      "t": 189564.95200000063,
      "d": 461.9558750000433,
      "v": 125
    },
    {
      "midi": 72,
      "hit": false,
      "t": 189564.95200000063,
      "d": 461.9558750000433,
      "v": 125
    },
    {
      "midi": 62,
      "hit": false,
      "t": 189999.73400000067,
      "d": 90.57958333333954,
      "v": 108
    },
    {
      "midi": 68,
      "hit": false,
      "t": 190434.51600000067,
      "d": 262.68079166667303,
      "v": 119
    },
    {
      "midi": 65,
      "hit": false,
      "t": 190434.51600000067,
      "d": 353.2603750000126,
      "v": 126
    },
    {
      "midi": 61,
      "hit": false,
      "t": 190434.51600000067,
      "d": 362.31833333335817,
      "v": 112
    },
    {
      "midi": 37,
      "hit": false,
      "t": 190434.51600000067,
      "d": 1023.5492916667135,
      "v": 127
    },
    {
      "midi": 49,
      "hit": false,
      "t": 190434.51600000067,
      "d": 1023.5492916667135,
      "v": 112
    },
    {
      "midi": 68,
      "hit": false,
      "t": 191086.6890000007,
      "d": 81.52162499999395,
      "v": 103
    },
    {
      "midi": 73,
      "hit": false,
      "t": 191086.6890000007,
      "d": 81.52162499999395,
      "v": 116
    },
    {
      "midi": 65,
      "hit": false,
      "t": 191086.6890000007,
      "d": 99.63754166665603,
      "v": 121
    },
    {
      "midi": 68,
      "hit": false,
      "t": 191304.08000000071,
      "d": 262.68079166667303,
      "v": 119
    },
    {
      "midi": 73,
      "hit": false,
      "t": 191304.08000000071,
      "d": 353.2603750000126,
      "v": 124
    },
    {
      "midi": 65,
      "hit": false,
      "t": 191304.08000000071,
      "d": 371.37629166667466,
      "v": 121
    },
    {
      "midi": 37,
      "hit": false,
      "t": 191584.87670833405,
      "d": 90.57958333333954,
      "v": 127
    },
    {
      "midi": 49,
      "hit": false,
      "t": 191593.9346666674,
      "d": 81.52162499999395,
      "v": 115
    },
    {
      "midi": 36,
      "hit": false,
      "t": 191874.73137500073,
      "d": 72.46366666667745,
      "v": 127
    },
    {
      "midi": 48,
      "hit": false,
      "t": 191883.78933333408,
      "d": 72.46366666667745,
      "v": 127
    },
    {
      "midi": 61,
      "hit": false,
      "t": 192173.64400000076,
      "d": 443.8399583333521,
      "v": 112
    },
    {
      "midi": 68,
      "hit": false,
      "t": 192173.64400000076,
      "d": 443.8399583333521,
      "v": 119
    },
    {
      "midi": 65,
      "hit": false,
      "t": 192173.64400000076,
      "d": 489.1297500000219,
      "v": 121
    },
    {
      "midi": 47,
      "hit": false,
      "t": 192173.64400000076,
      "d": 498.1877083333675,
      "v": 127
    },
    {
      "midi": 35,
      "hit": false,
      "t": 192173.64400000076,
      "d": 507.2456666667131,
      "v": 127
    },
    {
      "midi": 73,
      "hit": false,
      "t": 192608.42600000076,
      "d": 208.33304166671587,
      "v": 127
    },
    {
      "midi": 68,
      "hit": false,
      "t": 193043.2080000008,
      "d": 516.3036250000005,
      "v": 117
    },
    {
      "midi": 61,
      "hit": false,
      "t": 193043.2080000008,
      "d": 525.3615833333461,
      "v": 113
    },
    {
      "midi": 65,
      "hit": false,
      "t": 193043.2080000008,
      "d": 525.3615833333461,
      "v": 120
    },
    {
      "midi": 34,
      "hit": false,
      "t": 193043.2080000008,
      "d": 624.9991250000021,
      "v": 127
    },
    {
      "midi": 46,
      "hit": false,
      "t": 193043.2080000008,
      "d": 643.1150416666642,
      "v": 121
    },
    {
      "midi": 57,
      "hit": false,
      "t": 193912.77200000078,
      "d": 163.0432499999879,
      "v": 88
    },
    {
      "midi": 61,
      "hit": false,
      "t": 193912.77200000078,
      "d": 190.21712499999558,
      "v": 90
    },
    {
      "midi": 64,
      "hit": false,
      "t": 193912.77200000078,
      "d": 199.27508333334117,
      "v": 98
    },
    {
      "midi": 33,
      "hit": false,
      "t": 193912.77200000078,
      "d": 425.7240416666609,
      "v": 97
    },
    {
      "midi": 45,
      "hit": false,
      "t": 193912.77200000078,
      "d": 471.0138333333307,
      "v": 90
    },
    {
      "midi": 61,
      "hit": false,
      "t": 194782.33600000077,
      "d": 117.75345833334723,
      "v": 85
    },
    {
      "midi": 64,
      "hit": false,
      "t": 194782.33600000077,
      "d": 172.1012083333335,
      "v": 92
    },
    {
      "midi": 57,
      "hit": false,
      "t": 194782.33600000077,
      "d": 181.15916666667908,
      "v": 86
    },
    {
      "midi": 61,
      "hit": false,
      "t": 195651.90000000078,
      "d": 172.1012083333335,
      "v": 88
    },
    {
      "midi": 57,
      "hit": false,
      "t": 195651.90000000078,
      "d": 181.15916666667908,
      "v": 88
    },
    {
      "midi": 64,
      "hit": false,
      "t": 195651.90000000078,
      "d": 190.21712500002468,
      "v": 97
    },
    {
      "midi": 57,
      "hit": false,
      "t": 196521.4640000008,
      "d": 153.9852916666714,
      "v": 86
    },
    {
      "midi": 61,
      "hit": false,
      "t": 196521.4640000008,
      "d": 172.1012083333335,
      "v": 92
    },
    {
      "midi": 64,
      "hit": false,
      "t": 196521.4640000008,
      "d": 172.1012083333335,
      "v": 98
    },
    {
      "midi": 57,
      "hit": false,
      "t": 197391.0280000008,
      "d": 153.9852916666714,
      "v": 88
    },
    {
      "midi": 61,
      "hit": false,
      "t": 197391.0280000008,
      "d": 153.9852916666714,
      "v": 96
    },
    {
      "midi": 64,
      "hit": false,
      "t": 197391.0280000008,
      "d": 163.043250000017,
      "v": 97
    },
    {
      "midi": 57,
      "hit": false,
      "t": 198260.59200000082,
      "d": 144.9273333333258,
      "v": 82
    },
    {
      "midi": 64,
      "hit": false,
      "t": 198260.59200000082,
      "d": 153.9852916666714,
      "v": 91
    },
    {
      "midi": 61,
      "hit": false,
      "t": 198260.59200000082,
      "d": 163.043250000017,
      "v": 96
    },
    {
      "midi": 61,
      "hit": false,
      "t": 199130.15600000083,
      "d": 144.9273333333258,
      "v": 102
    },
    {
      "midi": 57,
      "hit": false,
      "t": 199130.15600000083,
      "d": 163.0432499999879,
      "v": 91
    },
    {
      "midi": 64,
      "hit": false,
      "t": 199130.15600000083,
      "d": 163.0432499999879,
      "v": 94
    },
    {
      "midi": 61,
      "hit": false,
      "t": 199999.72000000082,
      "d": 153.9852916666714,
      "v": 91
    },
    {
      "midi": 57,
      "hit": false,
      "t": 199999.72000000082,
      "d": 163.043250000017,
      "v": 83
    },
    {
      "midi": 64,
      "hit": false,
      "t": 199999.72000000082,
      "d": 163.043250000017,
      "v": 91
    },
    {
      "midi": 57,
      "hit": false,
      "t": 200869.28400000083,
      "d": 181.15916666667908,
      "v": 91
    },
    {
      "midi": 66,
      "hit": false,
      "t": 200869.28400000083,
      "d": 181.15916666667908,
      "v": 88
    },
    {
      "midi": 62,
      "hit": false,
      "t": 200869.28400000083,
      "d": 190.21712500002468,
      "v": 98
    },
    {
      "midi": 61,
      "hit": false,
      "t": 201738.84800000084,
      "d": 153.9852916666714,
      "v": 81
    },
    {
      "midi": 64,
      "hit": false,
      "t": 201738.84800000084,
      "d": 153.9852916666714,
      "v": 91
    },
    {
      "midi": 57,
      "hit": false,
      "t": 201738.84800000084,
      "d": 163.043250000017,
      "v": 83
    },
    {
      "midi": 57,
      "hit": false,
      "t": 202173.63000000085,
      "d": 126.81141666666372,
      "v": 76
    },
    {
      "midi": 61,
      "hit": false,
      "t": 202173.63000000085,
      "d": 144.9273333333258,
      "v": 83
    },
    {
      "midi": 64,
      "hit": false,
      "t": 202173.63000000085,
      "d": 153.9852916666714,
      "v": 93
    },
    {
      "midi": 57,
      "hit": false,
      "t": 202608.41200000086,
      "d": 190.21712499999558,
      "v": 88
    },
    {
      "midi": 63,
      "hit": false,
      "t": 202608.41200000086,
      "d": 190.21712499999558,
      "v": 100
    },
    {
      "midi": 60,
      "hit": false,
      "t": 202608.41200000086,
      "d": 199.27508333334117,
      "v": 98
    },
    {
      "midi": 57,
      "hit": false,
      "t": 203477.97600000087,
      "d": 144.9273333333258,
      "v": 83
    },
    {
      "midi": 64,
      "hit": false,
      "t": 203477.97600000087,
      "d": 163.0432499999879,
      "v": 92
    },
    {
      "midi": 61,
      "hit": false,
      "t": 203477.97600000087,
      "d": 181.15916666664998,
      "v": 96
    },
    {
      "midi": 66,
      "hit": false,
      "t": 204347.54000000085,
      "d": 63.40570833333186,
      "v": 83
    },
    {
      "midi": 57,
      "hit": false,
      "t": 204347.54000000085,
      "d": 190.21712499999558,
      "v": 78
    },
    {
      "midi": 62,
      "hit": false,
      "t": 204347.54000000085,
      "d": 208.33304166665766,
      "v": 95
    },
    {
      "midi": 61,
      "hit": false,
      "t": 205217.10400000084,
      "d": 153.9852916666714,
      "v": 84
    },
    {
      "midi": 64,
      "hit": false,
      "t": 205217.10400000084,
      "d": 153.9852916666714,
      "v": 89
    },
    {
      "midi": 57,
      "hit": false,
      "t": 205217.10400000084,
      "d": 163.043250000017,
      "v": 76
    },
    {
      "midi": 57,
      "hit": false,
      "t": 205651.88600000084,
      "d": 117.75345833334723,
      "v": 72
    },
    {
      "midi": 61,
      "hit": false,
      "t": 205651.88600000084,
      "d": 144.9273333333549,
      "v": 85
    },
    {
      "midi": 64,
      "hit": false,
      "t": 205651.88600000084,
      "d": 163.043250000017,
      "v": 96
    },
    {
      "midi": 63,
      "hit": false,
      "t": 206086.66800000085,
      "d": 153.9852916666714,
      "v": 99
    },
    {
      "midi": 57,
      "hit": false,
      "t": 206086.66800000085,
      "d": 181.15916666667908,
      "v": 84
    },
    {
      "midi": 60,
      "hit": false,
      "t": 206086.66800000085,
      "d": 181.15916666667908,
      "v": 90
    },
    {
      "midi": 57,
      "hit": false,
      "t": 206956.23200000086,
      "d": 153.9852916666714,
      "v": 84
    },
    {
      "midi": 61,
      "hit": false,
      "t": 206956.23200000086,
      "d": 153.9852916666714,
      "v": 99
    },
    {
      "midi": 64,
      "hit": false,
      "t": 206956.23200000086,
      "d": 153.9852916666714,
      "v": 97
    },
    {
      "midi": 57,
      "hit": false,
      "t": 207391.01400000087,
      "d": 90.57958333333954,
      "v": 78
    },
    {
      "midi": 64,
      "hit": false,
      "t": 207391.01400000087,
      "d": 117.75345833334723,
      "v": 86
    },
    {
      "midi": 61,
      "hit": false,
      "t": 207391.01400000087,
      "d": 135.8693750000093,
      "v": 88
    },
    {
      "midi": 69,
      "hit": false,
      "t": 207825.79600000088,
      "d": 135.8693750000093,
      "v": 110
    },
    {
      "midi": 66,
      "hit": false,
      "t": 207825.79600000088,
      "d": 163.043250000017,
      "v": 117
    },
    {
      "midi": 62,
      "hit": false,
      "t": 207825.79600000088,
      "d": 172.1012083333626,
      "v": 98
    },
    {
      "midi": 57,
      "hit": false,
      "t": 208695.36000000092,
      "d": 144.9273333333258,
      "v": 88
    },
    {
      "midi": 64,
      "hit": false,
      "t": 208695.36000000092,
      "d": 153.9852916666714,
      "v": 91
    },
    {
      "midi": 61,
      "hit": false,
      "t": 208695.36000000092,
      "d": 163.043250000017,
      "v": 88
    },
    {
      "midi": 57,
      "hit": false,
      "t": 209130.14200000092,
      "d": 54.34774999998626,
      "v": 63
    },
    {
      "midi": 64,
      "hit": false,
      "t": 209130.14200000092,
      "d": 135.8693749999802,
      "v": 89
    },
    {
      "midi": 61,
      "hit": false,
      "t": 209130.14200000092,
      "d": 153.9852916666423,
      "v": 85
    },
    {
      "midi": 66,
      "hit": false,
      "t": 209564.9240000009,
      "d": 99.63754166665603,
      "v": 115
    },
    {
      "midi": 69,
      "hit": false,
      "t": 209564.9240000009,
      "d": 135.8693749999802,
      "v": 110
    },
    {
      "midi": 62,
      "hit": false,
      "t": 209564.9240000009,
      "d": 144.9273333333258,
      "v": 98
    },
    {
      "midi": 57,
      "hit": false,
      "t": 210434.48800000089,
      "d": 144.9273333333258,
      "v": 80
    },
    {
      "midi": 61,
      "hit": false,
      "t": 210434.48800000089,
      "d": 153.9852916666714,
      "v": 85
    },
    {
      "midi": 64,
      "hit": false,
      "t": 210434.48800000089,
      "d": 172.1012083333335,
      "v": 98
    },
    {
      "midi": 57,
      "hit": false,
      "t": 210869.2700000009,
      "d": 108.69550000000163,
      "v": 77
    },
    {
      "midi": 61,
      "hit": false,
      "t": 210869.2700000009,
      "d": 144.9273333333258,
      "v": 93
    },
    {
      "midi": 64,
      "hit": false,
      "t": 210869.2700000009,
      "d": 153.9852916666714,
      "v": 98
    },
    {
      "midi": 63,
      "hit": false,
      "t": 211304.0520000009,
      "d": 126.81141666666372,
      "v": 107
    },
    {
      "midi": 57,
      "hit": false,
      "t": 211304.0520000009,
      "d": 153.9852916666714,
      "v": 91
    },
    {
      "midi": 60,
      "hit": false,
      "t": 211304.0520000009,
      "d": 163.043250000017,
      "v": 102
    },
    {
      "midi": 60,
      "hit": false,
      "t": 211738.8340000009,
      "d": 90.57958333333954,
      "v": 76
    },
    {
      "midi": 57,
      "hit": false,
      "t": 211738.8340000009,
      "d": 126.81141666666372,
      "v": 70
    },
    {
      "midi": 63,
      "hit": false,
      "t": 211738.8340000009,
      "d": 181.15916666664998,
      "v": 102
    },
    {
      "midi": 57,
      "hit": false,
      "t": 212173.61600000088,
      "d": 172.1012083333335,
      "v": 91
    },
    {
      "midi": 64,
      "hit": false,
      "t": 212173.61600000088,
      "d": 199.27508333334117,
      "v": 105
    },
    {
      "midi": 61,
      "hit": false,
      "t": 212173.61600000088,
      "d": 208.33304166668677,
      "v": 115
    },
    {
      "midi": 66,
      "hit": false,
      "t": 213043.1800000009,
      "d": 181.15916666667908,
      "v": 107
    },
    {
      "midi": 57,
      "hit": false,
      "t": 213043.1800000009,
      "d": 190.21712500002468,
      "v": 84
    },
    {
      "midi": 62,
      "hit": false,
      "t": 213043.1800000009,
      "d": 190.21712500002468,
      "v": 102
    },
    {
      "midi": 57,
      "hit": false,
      "t": 213912.7440000009,
      "d": 153.9852916666714,
      "v": 90
    },
    {
      "midi": 61,
      "hit": false,
      "t": 213912.7440000009,
      "d": 190.21712499999558,
      "v": 86
    },
    {
      "midi": 64,
      "hit": false,
      "t": 213912.7440000009,
      "d": 190.21712499999558,
      "v": 103
    },
    {
      "midi": 56,
      "hit": false,
      "t": 214782.3080000009,
      "d": 163.0432499999879,
      "v": 95
    },
    {
      "midi": 61,
      "hit": false,
      "t": 214782.3080000009,
      "d": 208.33304166665766,
      "v": 107
    },
    {
      "midi": 65,
      "hit": false,
      "t": 214782.3080000009,
      "d": 208.33304166665766,
      "v": 112
    },
    {
      "midi": 44,
      "hit": false,
      "t": 214782.3080000009,
      "d": 235.50691666666535,
      "v": 94
    },
    {
      "midi": 32,
      "hit": false,
      "t": 214782.3080000009,
      "d": 244.56487500001094,
      "v": 104
    },
    {
      "midi": 56,
      "hit": false,
      "t": 215217.0900000009,
      "d": 126.81141666666372,
      "v": 107
    },
    {
      "midi": 61,
      "hit": false,
      "t": 215217.0900000009,
      "d": 126.81141666666372,
      "v": 97
    },
    {
      "midi": 65,
      "hit": false,
      "t": 215217.0900000009,
      "d": 135.8693750000093,
      "v": 112
    },
    {
      "midi": 32,
      "hit": false,
      "t": 215217.0900000009,
      "d": 217.39100000000326,
      "v": 104
    },
    {
      "midi": 44,
      "hit": false,
      "t": 215217.0900000009,
      "d": 217.39100000000326,
      "v": 75
    },
    {
      "midi": 61,
      "hit": false,
      "t": 215651.8720000009,
      "d": 117.75345833334723,
      "v": 103
    },
    {
      "midi": 56,
      "hit": false,
      "t": 215651.8720000009,
      "d": 126.81141666669282,
      "v": 107
    },
    {
      "midi": 65,
      "hit": false,
      "t": 215651.8720000009,
      "d": 126.81141666669282,
      "v": 118
    },
    {
      "midi": 44,
      "hit": false,
      "t": 215651.8720000009,
      "d": 190.21712500002468,
      "v": 102
    },
    {
      "midi": 32,
      "hit": false,
      "t": 215651.8720000009,
      "d": 199.27508333337028,
      "v": 106
    },
    {
      "midi": 61,
      "hit": false,
      "t": 216086.65400000094,
      "d": 126.81141666666372,
      "v": 103
    },
    {
      "midi": 56,
      "hit": false,
      "t": 216086.65400000094,
      "d": 135.8693750000093,
      "v": 109
    },
    {
      "midi": 65,
      "hit": false,
      "t": 216086.65400000094,
      "d": 144.9273333333549,
      "v": 116
    },
    {
      "midi": 32,
      "hit": false,
      "t": 216086.65400000094,
      "d": 181.15916666667908,
      "v": 110
    },
    {
      "midi": 44,
      "hit": false,
      "t": 216086.65400000094,
      "d": 181.15916666667908,
      "v": 97
    },
    {
      "midi": 44,
      "hit": false,
      "t": 216521.43600000095,
      "d": 235.50691666666535,
      "v": 108
    },
    {
      "midi": 32,
      "hit": false,
      "t": 216521.43600000095,
      "d": 262.68079166667303,
      "v": 114
    },
    {
      "midi": 56,
      "hit": false,
      "t": 216521.43600000095,
      "d": 307.9705833333428,
      "v": 105
    },
    {
      "midi": 63,
      "hit": false,
      "t": 216521.43600000095,
      "d": 326.0865000000049,
      "v": 119
    },
    {
      "midi": 60,
      "hit": false,
      "t": 216521.43600000095,
      "d": 362.31833333332906,
      "v": 120
    },
    {
      "midi": 56,
      "hit": false,
      "t": 217391.00000000093,
      "d": 135.8693750000093,
      "v": 127
    },
    {
      "midi": 63,
      "hit": false,
      "t": 217391.00000000093,
      "d": 190.21712499999558,
      "v": 127
    },
    {
      "midi": 60,
      "hit": false,
      "t": 217391.00000000093,
      "d": 199.27508333334117,
      "v": 127
    },
    {
      "midi": 44,
      "hit": false,
      "t": 217391.00000000093,
      "d": 208.33304166668677,
      "v": 110
    },
    {
      "midi": 32,
      "hit": false,
      "t": 217391.00000000093,
      "d": 217.39100000003236,
      "v": 123
    },
    {
      "midi": 64,
      "hit": false,
      "t": 218260.56400000097,
      "d": 208.33304166665766,
      "v": 115
    },
    {
      "midi": 67,
      "hit": false,
      "t": 218260.56400000097,
      "d": 208.33304166665766,
      "v": 113
    },
    {
      "midi": 60,
      "hit": false,
      "t": 218260.56400000097,
      "d": 217.39100000000326,
      "v": 104
    },
    {
      "midi": 31,
      "hit": false,
      "t": 218260.56400000097,
      "d": 235.50691666666535,
      "v": 107
    },
    {
      "midi": 43,
      "hit": false,
      "t": 218260.56400000097,
      "d": 280.7967083333351,
      "v": 93
    },
    {
      "midi": 64,
      "hit": false,
      "t": 218695.34600000098,
      "d": 153.9852916666714,
      "v": 112
    },
    {
      "midi": 67,
      "hit": false,
      "t": 218695.34600000098,
      "d": 153.9852916666714,
      "v": 104
    },
    {
      "midi": 60,
      "hit": false,
      "t": 218695.34600000098,
      "d": 163.043250000017,
      "v": 97
    },
    {
      "midi": 43,
      "hit": false,
      "t": 218695.34600000098,
      "d": 190.21712500002468,
      "v": 108
    },
    {
      "midi": 31,
      "hit": false,
      "t": 218695.34600000098,
      "d": 199.27508333337028,
      "v": 101
    },
    {
      "midi": 64,
      "hit": false,
      "t": 219130.12800000102,
      "d": 135.8693750000093,
      "v": 115
    },
    {
      "midi": 60,
      "hit": false,
      "t": 219130.12800000102,
      "d": 144.9273333333549,
      "v": 105
    },
    {
      "midi": 67,
      "hit": false,
      "t": 219130.12800000102,
      "d": 163.043250000017,
      "v": 112
    },
    {
      "midi": 43,
      "hit": false,
      "t": 219130.12800000102,
      "d": 199.27508333334117,
      "v": 100
    },
    {
      "midi": 31,
      "hit": false,
      "t": 219130.12800000102,
      "d": 217.39100000000326,
      "v": 105
    },
    {
      "midi": 60,
      "hit": false,
      "t": 219564.91000000102,
      "d": 81.52162499999395,
      "v": 75
    },
    {
      "midi": 31,
      "hit": false,
      "t": 219564.91000000102,
      "d": 135.8693749999802,
      "v": 103
    },
    {
      "midi": 67,
      "hit": false,
      "t": 219564.91000000102,
      "d": 135.8693749999802,
      "v": 98
    },
    {
      "midi": 64,
      "hit": false,
      "t": 219564.91000000102,
      "d": 144.9273333333258,
      "v": 112
    },
    {
      "midi": 43,
      "hit": false,
      "t": 219564.91000000102,
      "d": 208.33304166665766,
      "v": 117
    },
    {
      "midi": 40,
      "hit": false,
      "t": 219999.692000001,
      "d": 217.39100000000326,
      "v": 117
    },
    {
      "midi": 68,
      "hit": false,
      "t": 219999.692000001,
      "d": 326.0865000000049,
      "v": 122
    },
    {
      "midi": 59,
      "hit": false,
      "t": 219999.692000001,
      "d": 335.1444583333505,
      "v": 104
    },
    {
      "midi": 62,
      "hit": false,
      "t": 219999.692000001,
      "d": 362.31833333335817,
      "v": 115
    },
    {
      "midi": 59,
      "hit": false,
      "t": 220869.256000001,
      "d": 144.9273333333258,
      "v": 120
    },
    {
      "midi": 68,
      "hit": false,
      "t": 220869.256000001,
      "d": 163.0432499999879,
      "v": 127
    },
    {
      "midi": 62,
      "hit": false,
      "t": 220869.256000001,
      "d": 181.15916666664998,
      "v": 126
    },
    {
      "midi": 40,
      "hit": false,
      "t": 220869.256000001,
      "d": 371.37629166664556,
      "v": 113
    },
    {
      "midi": 57,
      "hit": false,
      "t": 221738.820000001,
      "d": 307.9705833333428,
      "v": 108
    },
    {
      "midi": 33,
      "hit": false,
      "t": 221738.820000001,
      "d": 326.0865000000049,
      "v": 125
    },
    {
      "midi": 61,
      "hit": false,
      "t": 221738.820000001,
      "d": 335.1444583333505,
      "v": 111
    },
    {
      "midi": 64,
      "hit": false,
      "t": 221738.820000001,
      "d": 344.2024166666961,
      "v": 120
    },
    {
      "midi": 45,
      "hit": false,
      "t": 221738.820000001,
      "d": 362.31833333335817,
      "v": 117
    },
    {
      "midi": 69,
      "hit": false,
      "t": 221738.820000001,
      "d": 371.37629166670376,
      "v": 126
    },
    {
      "midi": 45,
      "hit": false,
      "t": 229564.89600000103,
      "d": 144.9273333333258,
      "v": 94
    },
    {
      "midi": 57,
      "hit": false,
      "t": 229564.89600000103,
      "d": 153.9852916666714,
      "v": 100
    },
    {
      "midi": 45,
      "hit": false,
      "t": 229999.67800000103,
      "d": 208.33304166665766,
      "v": 110
    },
    {
      "midi": 57,
      "hit": false,
      "t": 229999.67800000103,
      "d": 335.1444583333214,
      "v": 117
    },
    {
      "midi": 46,
      "hit": false,
      "t": 230434.460000001,
      "d": 307.9705833333428,
      "v": 110
    },
    {
      "midi": 58,
      "hit": false,
      "t": 230434.460000001,
      "d": 371.37629166667466,
      "v": 114
    },
    {
      "midi": 45,
      "hit": false,
      "t": 230869.24200000102,
      "d": 217.39100000000326,
      "v": 103
    },
    {
      "midi": 57,
      "hit": false,
      "t": 230869.24200000102,
      "d": 235.50691666666535,
      "v": 107
    },
    {
      "midi": 43,
      "hit": false,
      "t": 231304.02400000102,
      "d": 217.39100000000326,
      "v": 103
    },
    {
      "midi": 55,
      "hit": false,
      "t": 231304.02400000102,
      "d": 244.56487500001094,
      "v": 107
    },
    {
      "midi": 53,
      "hit": false,
      "t": 231738.80600000103,
      "d": 199.27508333334117,
      "v": 96
    },
    {
      "midi": 41,
      "hit": false,
      "t": 231738.80600000103,
      "d": 208.33304166668677,
      "v": 99
    },
    {
      "midi": 40,
      "hit": false,
      "t": 232173.58800000104,
      "d": 135.8693750000093,
      "v": 115
    },
    {
      "midi": 52,
      "hit": false,
      "t": 232173.58800000104,
      "d": 153.9852916666714,
      "v": 117
    },
    {
      "midi": 66,
      "hit": false,
      "t": 237390.97200000103,
      "d": 126.81141666666372,
      "v": 81
    },
    {
      "midi": 71,
      "hit": false,
      "t": 237390.97200000103,
      "d": 144.9273333333258,
      "v": 94
    },
    {
      "midi": 63,
      "hit": false,
      "t": 237390.97200000103,
      "d": 153.9852916666714,
      "v": 70
    },
    {
      "midi": 62,
      "hit": false,
      "t": 238260.53600000104,
      "d": 108.69550000000163,
      "v": 81
    },
    {
      "midi": 65,
      "hit": false,
      "t": 238260.53600000104,
      "d": 108.69550000000163,
      "v": 89
    },
    {
      "midi": 70,
      "hit": false,
      "t": 238260.53600000104,
      "d": 163.0432499999879,
      "v": 92
    },
    {
      "midi": 64,
      "hit": false,
      "t": 239130.10000000102,
      "d": 99.63754166665603,
      "v": 84
    },
    {
      "midi": 69,
      "hit": false,
      "t": 239130.10000000102,
      "d": 117.75345833331812,
      "v": 93
    },
    {
      "midi": 61,
      "hit": false,
      "t": 239130.10000000102,
      "d": 135.8693749999802,
      "v": 71
    },
    {
      "midi": 62,
      "hit": false,
      "t": 239999.664000001,
      "d": 126.81141666666372,
      "v": 85
    },
    {
      "midi": 65,
      "hit": false,
      "t": 239999.664000001,
      "d": 135.8693750000093,
      "v": 86
    },
    {
      "midi": 70,
      "hit": false,
      "t": 239999.664000001,
      "d": 172.1012083333335,
      "v": 85
    },
    {
      "midi": 66,
      "hit": false,
      "t": 240869.22800000102,
      "d": 126.81141666666372,
      "v": 86
    },
    {
      "midi": 71,
      "hit": false,
      "t": 240869.22800000102,
      "d": 126.81141666666372,
      "v": 91
    },
    {
      "midi": 63,
      "hit": false,
      "t": 240869.22800000102,
      "d": 135.8693750000093,
      "v": 67
    },
    {
      "midi": 65,
      "hit": false,
      "t": 241738.79200000103,
      "d": 99.63754166665603,
      "v": 84
    },
    {
      "midi": 62,
      "hit": false,
      "t": 241738.79200000103,
      "d": 126.81141666666372,
      "v": 83
    },
    {
      "midi": 70,
      "hit": false,
      "t": 241738.79200000103,
      "d": 172.1012083333335,
      "v": 93
    },
    {
      "midi": 61,
      "hit": false,
      "t": 242608.35600000105,
      "d": 126.81141666666372,
      "v": 64
    },
    {
      "midi": 64,
      "hit": false,
      "t": 242608.35600000105,
      "d": 135.8693750000093,
      "v": 93
    },
    {
      "midi": 69,
      "hit": false,
      "t": 242608.35600000105,
      "d": 153.9852916666714,
      "v": 93
    },
    {
      "midi": 62,
      "hit": false,
      "t": 243477.92000000106,
      "d": 99.63754166665603,
      "v": 95
    },
    {
      "midi": 65,
      "hit": false,
      "t": 243477.92000000106,
      "d": 144.9273333333258,
      "v": 91
    },
    {
      "midi": 70,
      "hit": false,
      "t": 243477.92000000106,
      "d": 172.1012083333335,
      "v": 86
    },
    {
      "midi": 68,
      "hit": false,
      "t": 244347.48400000107,
      "d": 289.8546666666807,
      "v": 104
    },
    {
      "midi": 72,
      "hit": false,
      "t": 244347.48400000107,
      "d": 344.202416666667,
      "v": 112
    },
    {
      "midi": 63,
      "hit": false,
      "t": 244347.48400000107,
      "d": 353.2603750000126,
      "v": 103
    },
    {
      "midi": 51,
      "hit": false,
      "t": 244347.48400000107,
      "d": 643.1150416666933,
      "v": 110
    },
    {
      "midi": 39,
      "hit": false,
      "t": 244347.48400000107,
      "d": 652.1730000000389,
      "v": 104
    },
    {
      "midi": 51,
      "hit": false,
      "t": 245217.04800000112,
      "d": 135.8693750000093,
      "v": 91
    },
    {
      "midi": 39,
      "hit": false,
      "t": 245217.04800000112,
      "d": 172.1012083333335,
      "v": 93
    },
    {
      "midi": 63,
      "hit": false,
      "t": 245217.04800000112,
      "d": 181.15916666667908,
      "v": 95
    },
    {
      "midi": 70,
      "hit": false,
      "t": 245217.04800000112,
      "d": 208.33304166668677,
      "v": 97
    },
    {
      "midi": 67,
      "hit": false,
      "t": 245217.04800000112,
      "d": 226.44895833334886,
      "v": 109
    },
    {
      "midi": 51,
      "hit": false,
      "t": 245651.83000000112,
      "d": 117.75345833334723,
      "v": 89
    },
    {
      "midi": 39,
      "hit": false,
      "t": 245651.83000000112,
      "d": 135.8693750000093,
      "v": 88
    },
    {
      "midi": 63,
      "hit": false,
      "t": 245651.83000000112,
      "d": 144.9273333333549,
      "v": 91
    },
    {
      "midi": 67,
      "hit": false,
      "t": 245651.83000000112,
      "d": 144.9273333333549,
      "v": 99
    },
    {
      "midi": 70,
      "hit": false,
      "t": 245651.83000000112,
      "d": 181.15916666667908,
      "v": 99
    },
    {
      "midi": 66,
      "hit": false,
      "t": 246086.61200000113,
      "d": 362.31833333332906,
      "v": 97
    },
    {
      "midi": 63,
      "hit": false,
      "t": 246086.61200000113,
      "d": 398.55016666665324,
      "v": 104
    },
    {
      "midi": 69,
      "hit": false,
      "t": 246086.61200000113,
      "d": 489.1297499999928,
      "v": 113
    },
    {
      "midi": 39,
      "hit": false,
      "t": 246086.61200000113,
      "d": 624.9991250000021,
      "v": 114
    },
    {
      "midi": 51,
      "hit": false,
      "t": 246086.61200000113,
      "d": 634.0570833333477,
      "v": 107
    },
    {
      "midi": 63,
      "hit": false,
      "t": 246956.17600000114,
      "d": 307.9705833333428,
      "v": 102
    },
    {
      "midi": 67,
      "hit": false,
      "t": 246956.17600000114,
      "d": 344.202416666667,
      "v": 111
    },
    {
      "midi": 70,
      "hit": false,
      "t": 246956.17600000114,
      "d": 344.202416666667,
      "v": 104
    },
    {
      "midi": 39,
      "hit": false,
      "t": 246956.17600000114,
      "d": 579.7093333333323,
      "v": 99
    },
    {
      "midi": 51,
      "hit": false,
      "t": 246956.17600000114,
      "d": 615.9411666666565,
      "v": 100
    },
    {
      "midi": 51,
      "hit": false,
      "t": 247825.74000000113,
      "d": 190.21712499999558,
      "v": 92
    },
    {
      "midi": 63,
      "hit": false,
      "t": 247825.74000000113,
      "d": 208.33304166665766,
      "v": 104
    },
    {
      "midi": 68,
      "hit": false,
      "t": 247825.74000000113,
      "d": 208.33304166665766,
      "v": 106
    },
    {
      "midi": 72,
      "hit": false,
      "t": 247825.74000000113,
      "d": 208.33304166665766,
      "v": 106
    },
    {
      "midi": 39,
      "hit": false,
      "t": 247825.74000000113,
      "d": 217.39100000000326,
      "v": 86
    },
    {
      "midi": 63,
      "hit": false,
      "t": 248260.52200000113,
      "d": 153.9852916666714,
      "v": 86
    },
    {
      "midi": 72,
      "hit": false,
      "t": 248260.52200000113,
      "d": 172.1012083333335,
      "v": 105
    },
    {
      "midi": 51,
      "hit": false,
      "t": 248260.52200000113,
      "d": 181.15916666667908,
      "v": 92
    },
    {
      "midi": 68,
      "hit": false,
      "t": 248260.52200000113,
      "d": 181.15916666667908,
      "v": 98
    },
    {
      "midi": 39,
      "hit": false,
      "t": 248260.52200000113,
      "d": 190.21712500002468,
      "v": 97
    },
    {
      "midi": 70,
      "hit": false,
      "t": 248695.30400000117,
      "d": 317.0285416666593,
      "v": 102
    },
    {
      "midi": 67,
      "hit": false,
      "t": 248695.30400000117,
      "d": 335.1444583333214,
      "v": 112
    },
    {
      "midi": 63,
      "hit": false,
      "t": 248695.30400000117,
      "d": 353.26037499998347,
      "v": 99
    },
    {
      "midi": 39,
      "hit": false,
      "t": 248695.30400000117,
      "d": 643.1150416666642,
      "v": 102
    },
    {
      "midi": 51,
      "hit": false,
      "t": 248695.30400000117,
      "d": 643.1150416666642,
      "v": 110
    },
    {
      "midi": 39,
      "hit": false,
      "t": 249564.86800000115,
      "d": 190.21712499999558,
      "v": 102
    },
    {
      "midi": 51,
      "hit": false,
      "t": 249564.86800000115,
      "d": 190.21712499999558,
      "v": 104
    },
    {
      "midi": 63,
      "hit": false,
      "t": 249564.86800000115,
      "d": 190.21712499999558,
      "v": 93
    },
    {
      "midi": 66,
      "hit": false,
      "t": 249564.86800000115,
      "d": 199.27508333334117,
      "v": 103
    },
    {
      "midi": 69,
      "hit": false,
      "t": 249564.86800000115,
      "d": 208.33304166668677,
      "v": 109
    },
    {
      "midi": 66,
      "hit": false,
      "t": 249999.65000000116,
      "d": 117.75345833334723,
      "v": 86
    },
    {
      "midi": 39,
      "hit": false,
      "t": 249999.65000000116,
      "d": 126.81141666669282,
      "v": 92
    },
    {
      "midi": 63,
      "hit": false,
      "t": 249999.65000000116,
      "d": 135.86937500003842,
      "v": 79
    },
    {
      "midi": 51,
      "hit": false,
      "t": 249999.65000000116,
      "d": 153.9852916667005,
      "v": 91
    },
    {
      "midi": 69,
      "hit": false,
      "t": 249999.65000000116,
      "d": 181.1591666667082,
      "v": 96
    },
    {
      "midi": 63,
      "hit": false,
      "t": 250434.4320000012,
      "d": 307.9705833333428,
      "v": 95
    },
    {
      "midi": 67,
      "hit": false,
      "t": 250434.4320000012,
      "d": 307.9705833333428,
      "v": 106
    },
    {
      "midi": 70,
      "hit": false,
      "t": 250434.4320000012,
      "d": 335.1444583333505,
      "v": 118
    },
    {
      "midi": 51,
      "hit": false,
      "t": 250434.4320000012,
      "d": 769.926458333357,
      "v": 109
    },
    {
      "midi": 39,
      "hit": false,
      "t": 250434.4320000012,
      "d": 833.3321666666889,
      "v": 109
    },
    {
      "midi": 72,
      "hit": false,
      "t": 251303.9960000012,
      "d": 507.24566666665487,
      "v": 110
    },
    {
      "midi": 68,
      "hit": false,
      "t": 251303.9960000012,
      "d": 516.3036250000005,
      "v": 104
    },
    {
      "midi": 63,
      "hit": false,
      "t": 251303.9960000012,
      "d": 552.5354583333246,
      "v": 100
    },
    {
      "midi": 56,
      "hit": false,
      "t": 251303.9960000012,
      "d": 1702.8961666666728,
      "v": 93
    },
    {
      "midi": 44,
      "hit": false,
      "t": 251303.9960000012,
      "d": 1748.1859583333426,
      "v": 107
    },
    {
      "midi": 68,
      "hit": false,
      "t": 252173.5600000012,
      "d": 163.0432499999879,
      "v": 97
    },
    {
      "midi": 63,
      "hit": false,
      "t": 252173.5600000012,
      "d": 172.1012083333335,
      "v": 100
    },
    {
      "midi": 72,
      "hit": false,
      "t": 252173.5600000012,
      "d": 181.15916666667908,
      "v": 111
    },
    {
      "midi": 63,
      "hit": false,
      "t": 252608.3420000012,
      "d": 117.75345833334723,
      "v": 93
    },
    {
      "midi": 68,
      "hit": false,
      "t": 252608.3420000012,
      "d": 135.8693750000093,
      "v": 99
    },
    {
      "midi": 72,
      "hit": false,
      "t": 252608.3420000012,
      "d": 153.9852916666714,
      "v": 113
    },
    {
      "midi": 67,
      "hit": false,
      "t": 253043.1240000012,
      "d": 452.8979166666686,
      "v": 111
    },
    {
      "midi": 70,
      "hit": false,
      "t": 253043.1240000012,
      "d": 461.9558750000142,
      "v": 103
    },
    {
      "midi": 63,
      "hit": false,
      "t": 253043.1240000012,
      "d": 471.0138333333598,
      "v": 99
    },
    {
      "midi": 43,
      "hit": false,
      "t": 253043.1240000012,
      "d": 1594.2006666666712,
      "v": 100
    },
    {
      "midi": 55,
      "hit": false,
      "t": 253043.1240000012,
      "d": 1648.5484166666574,
      "v": 116
    },
    {
      "midi": 63,
      "hit": false,
      "t": 253912.68800000122,
      "d": 163.0432499999879,
      "v": 97
    },
    {
      "midi": 67,
      "hit": false,
      "t": 253912.68800000122,
      "d": 199.27508333331207,
      "v": 112
    },
    {
      "midi": 70,
      "hit": false,
      "t": 253912.68800000122,
      "d": 208.33304166665766,
      "v": 96
    },
    {
      "midi": 70,
      "hit": false,
      "t": 254347.4700000012,
      "d": 126.81141666666372,
      "v": 86
    },
    {
      "midi": 63,
      "hit": false,
      "t": 254347.4700000012,
      "d": 153.9852916666714,
      "v": 81
    },
    {
      "midi": 69,
      "hit": false,
      "t": 254782.2520000012,
      "d": 534.4195416666626,
      "v": 105
    },
    {
      "midi": 63,
      "hit": false,
      "t": 254782.2520000012,
      "d": 543.4775000000081,
      "v": 97
    },
    {
      "midi": 60,
      "hit": false,
      "t": 254782.2520000012,
      "d": 552.5354583333537,
      "v": 93
    },
    {
      "midi": 53,
      "hit": false,
      "t": 254782.2520000012,
      "d": 1557.968833333347,
      "v": 108
    },
    {
      "midi": 41,
      "hit": false,
      "t": 254782.2520000012,
      "d": 1702.8961666666728,
      "v": 105
    },
    {
      "midi": 69,
      "hit": false,
      "t": 255651.8160000012,
      "d": 153.9852916666714,
      "v": 103
    },
    {
      "midi": 60,
      "hit": false,
      "t": 255651.8160000012,
      "d": 172.1012083333335,
      "v": 89
    },
    {
      "midi": 63,
      "hit": false,
      "t": 255651.8160000012,
      "d": 181.15916666667908,
      "v": 100
    },
    {
      "midi": 60,
      "hit": false,
      "t": 256086.59800000122,
      "d": 90.57958333333954,
      "v": 85
    },
    {
      "midi": 69,
      "hit": false,
      "t": 256086.59800000122,
      "d": 144.9273333333258,
      "v": 90
    },
    {
      "midi": 63,
      "hit": false,
      "t": 256086.59800000122,
      "d": 153.9852916666714,
      "v": 90
    },
    {
      "midi": 62,
      "hit": false,
      "t": 256521.3800000012,
      "d": 289.8546666666807,
      "v": 94
    },
    {
      "midi": 70,
      "hit": false,
      "t": 256521.3800000012,
      "d": 298.9126250000263,
      "v": 112
    },
    {
      "midi": 65,
      "hit": false,
      "t": 256521.3800000012,
      "d": 344.2024166666961,
      "v": 95
    },
    {
      "midi": 34,
      "hit": false,
      "t": 256521.3800000012,
      "d": 371.37629166670376,
      "v": 92
    },
    {
      "midi": 46,
      "hit": false,
      "t": 256521.3800000012,
      "d": 371.37629166670376,
      "v": 89
    },
    {
      "midi": 70,
      "hit": false,
      "t": 256956.16200000123,
      "d": 217.39100000000326,
      "v": 87
    },
    {
      "midi": 70,
      "hit": false,
      "t": 257390.94400000124,
      "d": 226.44895833331975,
      "v": 79
    },
    {
      "midi": 70,
      "hit": false,
      "t": 257825.72600000122,
      "d": 307.9705833333428,
      "v": 92
    },
    {
      "midi": 72,
      "hit": false,
      "t": 258260.50800000122,
      "d": 416.66608333334443,
      "v": 88
    },
    {
      "midi": 68,
      "hit": false,
      "t": 258260.50800000122,
      "d": 498.1877083333384,
      "v": 83
    },
    {
      "midi": 75,
      "hit": false,
      "t": 258695.29000000123,
      "d": 344.202416666667,
      "v": 81
    },
    {
      "midi": 67,
      "hit": false,
      "t": 259130.07200000124,
      "d": 398.55016666665324,
      "v": 89
    },
    {
      "midi": 70,
      "hit": false,
      "t": 259130.07200000124,
      "d": 480.0717916666472,
      "v": 90
    },
    {
      "midi": 75,
      "hit": false,
      "t": 259564.8540000012,
      "d": 371.37629166667466,
      "v": 93
    },
    {
      "midi": 66,
      "hit": false,
      "t": 259999.63600000122,
      "d": 452.8979166666686,
      "v": 96
    },
    {
      "midi": 69,
      "hit": false,
      "t": 259999.63600000122,
      "d": 452.8979166666686,
      "v": 98
    },
    {
      "midi": 75,
      "hit": false,
      "t": 260434.41800000123,
      "d": 434.7820000000065,
      "v": 97
    },
    {
      "midi": 65,
      "hit": false,
      "t": 260869.20000000123,
      "d": 344.202416666667,
      "v": 95
    },
    {
      "midi": 68,
      "hit": false,
      "t": 260869.20000000123,
      "d": 416.66608333334443,
      "v": 93
    },
    {
      "midi": 75,
      "hit": false,
      "t": 261303.98200000124,
      "d": 190.21712499999558,
      "v": 79
    },
    {
      "midi": 66,
      "hit": false,
      "t": 261738.76400000125,
      "d": 144.9273333333258,
      "v": 78
    },
    {
      "midi": 71,
      "hit": false,
      "t": 261738.76400000125,
      "d": 153.9852916666714,
      "v": 89
    },
    {
      "midi": 63,
      "hit": false,
      "t": 261738.76400000125,
      "d": 217.39100000000326,
      "v": 69
    },
    {
      "midi": 62,
      "hit": false,
      "t": 262608.32800000126,
      "d": 99.63754166668514,
      "v": 85
    },
    {
      "midi": 65,
      "hit": false,
      "t": 262608.32800000126,
      "d": 126.81141666666372,
      "v": 84
    },
    {
      "midi": 70,
      "hit": false,
      "t": 262608.32800000126,
      "d": 163.0432499999879,
      "v": 83
    },
    {
      "midi": 69,
      "hit": false,
      "t": 263477.8920000013,
      "d": 81.52162499999395,
      "v": 90
    },
    {
      "midi": 61,
      "hit": false,
      "t": 263477.8920000013,
      "d": 126.81141666666372,
      "v": 64
    },
    {
      "midi": 64,
      "hit": false,
      "t": 263477.8920000013,
      "d": 135.8693750000093,
      "v": 90
    },
    {
      "midi": 62,
      "hit": false,
      "t": 264347.4560000013,
      "d": 108.69549999997253,
      "v": 81
    },
    {
      "midi": 65,
      "hit": false,
      "t": 264347.4560000013,
      "d": 153.9852916666423,
      "v": 83
    },
    {
      "midi": 70,
      "hit": false,
      "t": 264347.4560000013,
      "d": 190.21712499996647,
      "v": 81
    },
    {
      "midi": 66,
      "hit": false,
      "t": 265217.02000000124,
      "d": 99.63754166668514,
      "v": 82
    },
    {
      "midi": 71,
      "hit": false,
      "t": 265217.02000000124,
      "d": 117.75345833337633,
      "v": 93
    },
    {
      "midi": 63,
      "hit": false,
      "t": 265217.02000000124,
      "d": 135.86937500006752,
      "v": 74
    },
    {
      "midi": 65,
      "hit": false,
      "t": 266086.5840000013,
      "d": 90.57958333333954,
      "v": 84
    },
    {
      "midi": 62,
      "hit": false,
      "t": 266086.5840000013,
      "d": 108.69550000003073,
      "v": 91
    },
    {
      "midi": 70,
      "hit": false,
      "t": 266086.5840000013,
      "d": 135.8693750000093,
      "v": 86
    },
    {
      "midi": 69,
      "hit": false,
      "t": 266956.1480000013,
      "d": 99.63754166668514,
      "v": 103
    },
    {
      "midi": 61,
      "hit": false,
      "t": 266956.1480000013,
      "d": 108.69550000003073,
      "v": 71
    },
    {
      "midi": 64,
      "hit": false,
      "t": 266956.1480000013,
      "d": 117.75345833337633,
      "v": 98
    },
    {
      "midi": 58,
      "hit": false,
      "t": 267825.7120000014,
      "d": 208.33304166665766,
      "v": 127
    },
    {
      "midi": 46,
      "hit": false,
      "t": 267825.7120000014,
      "d": 253.62283333332743,
      "v": 104
    },
    {
      "midi": 34,
      "hit": false,
      "t": 267825.7120000014,
      "d": 280.796708333306,
      "v": 102
    },
    {
      "midi": 63,
      "hit": false,
      "t": 268695.27600000135,
      "d": 172.1012083333335,
      "v": 127
    },
    {
      "midi": 39,
      "hit": false,
      "t": 268695.27600000135,
      "d": 217.39100000000326,
      "v": 103
    },
    {
      "midi": 51,
      "hit": false,
      "t": 268695.27600000135,
      "d": 217.39100000000326,
      "v": 112
    },
    {
      "midi": 58,
      "hit": false,
      "t": 269564.84000000136,
      "d": 190.21712500002468,
      "v": 118
    },
    {
      "midi": 46,
      "hit": false,
      "t": 269564.84000000136,
      "d": 262.68079166667303,
      "v": 104
    },
    {
      "midi": 34,
      "hit": false,
      "t": 269564.84000000136,
      "d": 289.8546666666516,
      "v": 109
    },
    {
      "midi": 58,
      "hit": false,
      "t": 270434.4040000014,
      "d": 525.3615833333461,
      "v": 124
    },
    {
      "midi": 63,
      "hit": false,
      "t": 270434.4040000014,
      "d": 543.4775000000373,
      "v": 127
    },
    {
      "midi": 67,
      "hit": false,
      "t": 270434.4040000014,
      "d": 561.5934166667284,
      "v": 125
    },
    {
      "midi": 51,
      "hit": false,
      "t": 270434.4040000014,
      "d": 1231.8823333333712,
      "v": 114
    },
    {
      "midi": 39,
      "hit": false,
      "t": 270434.4040000014,
      "d": 1286.2300833333866,
      "v": 110
    },
    {
      "midi": 65,
      "hit": false,
      "t": 271738.75000000146,
      "d": 117.75345833331812,
      "v": 99
    },
    {
      "midi": 58,
      "hit": false,
      "t": 271738.75000000146,
      "d": 135.8693750000093,
      "v": 93
    },
    {
      "midi": 62,
      "hit": false,
      "t": 271738.75000000146,
      "d": 135.8693750000093,
      "v": 105
    },
    {
      "midi": 34,
      "hit": false,
      "t": 271738.75000000146,
      "d": 208.33304166665766,
      "v": 96
    },
    {
      "midi": 46,
      "hit": false,
      "t": 271738.75000000146,
      "d": 217.39100000000326,
      "v": 88
    },
    {
      "midi": 58,
      "hit": false,
      "t": 272173.53200000146,
      "d": 144.9273333333549,
      "v": 102
    },
    {
      "midi": 65,
      "hit": false,
      "t": 272173.53200000146,
      "d": 163.0432500000461,
      "v": 119
    },
    {
      "midi": 62,
      "hit": false,
      "t": 272173.53200000146,
      "d": 181.1591666667373,
      "v": 115
    },
    {
      "midi": 34,
      "hit": false,
      "t": 272173.53200000146,
      "d": 253.62283333338564,
      "v": 95
    },
    {
      "midi": 46,
      "hit": false,
      "t": 272173.53200000146,
      "d": 253.62283333338564,
      "v": 87
    },
    {
      "midi": 58,
      "hit": false,
      "t": 272608.3140000015,
      "d": 108.69549999997253,
      "v": 109
    },
    {
      "midi": 63,
      "hit": false,
      "t": 272608.3140000015,
      "d": 117.75345833331812,
      "v": 110
    },
    {
      "midi": 67,
      "hit": false,
      "t": 272608.3140000015,
      "d": 117.75345833331812,
      "v": 119
    },
    {
      "midi": 34,
      "hit": false,
      "t": 272608.3140000015,
      "d": 226.44895833329065,
      "v": 103
    },
    {
      "midi": 46,
      "hit": false,
      "t": 272608.3140000015,
      "d": 244.56487499998184,
      "v": 91
    },
    {
      "midi": 58,
      "hit": false,
      "t": 273043.09600000153,
      "d": 144.9273333333549,
      "v": 100
    },
    {
      "midi": 65,
      "hit": false,
      "t": 273043.09600000153,
      "d": 144.9273333333549,
      "v": 106
    },
    {
      "midi": 68,
      "hit": false,
      "t": 273043.09600000153,
      "d": 172.1012083333335,
      "v": 114
    },
    {
      "midi": 34,
      "hit": false,
      "t": 273043.09600000153,
      "d": 244.56487499998184,
      "v": 106
    },
    {
      "midi": 46,
      "hit": false,
      "t": 273043.09600000153,
      "d": 244.56487499998184,
      "v": 95
    },
    {
      "midi": 58,
      "hit": false,
      "t": 273477.87800000154,
      "d": 108.69549999997253,
      "v": 86
    },
    {
      "midi": 67,
      "hit": false,
      "t": 273477.87800000154,
      "d": 126.81141666666372,
      "v": 111
    },
    {
      "midi": 63,
      "hit": false,
      "t": 273477.87800000154,
      "d": 135.8693750000093,
      "v": 97
    },
    {
      "midi": 34,
      "hit": false,
      "t": 273477.87800000154,
      "d": 217.39100000000326,
      "v": 106
    },
    {
      "midi": 46,
      "hit": false,
      "t": 273477.87800000154,
      "d": 217.39100000000326,
      "v": 92
    },
    {
      "midi": 58,
      "hit": false,
      "t": 273912.66000000155,
      "d": 289.8546666666516,
      "v": 116
    },
    {
      "midi": 65,
      "hit": false,
      "t": 273912.66000000155,
      "d": 317.0285416666302,
      "v": 123
    },
    {
      "midi": 62,
      "hit": false,
      "t": 273912.66000000155,
      "d": 344.20241666660877,
      "v": 123
    },
    {
      "midi": 46,
      "hit": false,
      "t": 273912.66000000155,
      "d": 389.49220833327854,
      "v": 92
    },
    {
      "midi": 34,
      "hit": false,
      "t": 273912.66000000155,
      "d": 416.6660833332571,
      "v": 104
    },
    {
      "midi": 58,
      "hit": false,
      "t": 276521.35200000147,
      "d": 190.21712500002468,
      "v": 109
    },
    {
      "midi": 34,
      "hit": false,
      "t": 276521.35200000147,
      "d": 262.68079166667303,
      "v": 112
    },
    {
      "midi": 46,
      "hit": false,
      "t": 276521.35200000147,
      "d": 289.8546666666516,
      "v": 124
    },
    {
      "midi": 63,
      "hit": false,
      "t": 277390.9160000015,
      "d": 108.69549999997253,
      "v": 107
    },
    {
      "midi": 51,
      "hit": false,
      "t": 277390.9160000015,
      "d": 226.44895833329065,
      "v": 122
    },
    {
      "midi": 39,
      "hit": false,
      "t": 277390.9160000015,
      "d": 235.50691666663624,
      "v": 118
    },
    {
      "midi": 46,
      "hit": false,
      "t": 278260.48000000144,
      "d": 163.0432499999879,
      "v": 114
    },
    {
      "midi": 34,
      "hit": false,
      "t": 278260.48000000144,
      "d": 181.15916666667908,
      "v": 96
    },
    {
      "midi": 58,
      "hit": false,
      "t": 278260.48000000144,
      "d": 190.21712500002468,
      "v": 92
    },
    {
      "midi": 65,
      "hit": false,
      "t": 278695.26200000144,
      "d": 90.57958333333954,
      "v": 98
    },
    {
      "midi": 58,
      "hit": false,
      "t": 278695.26200000144,
      "d": 99.63754166668514,
      "v": 81
    },
    {
      "midi": 62,
      "hit": false,
      "t": 278695.26200000144,
      "d": 99.63754166668514,
      "v": 98
    },
    {
      "midi": 34,
      "hit": false,
      "t": 278695.26200000144,
      "d": 172.1012083333335,
      "v": 109
    },
    {
      "midi": 46,
      "hit": false,
      "t": 278695.26200000144,
      "d": 181.15916666667908,
      "v": 114
    },
    {
      "midi": 62,
      "hit": false,
      "t": 279130.04400000145,
      "d": 63.40570833336096,
      "v": 98
    },
    {
      "midi": 58,
      "hit": false,
      "t": 279130.04400000145,
      "d": 163.0432500000461,
      "v": 96
    },
    {
      "midi": 34,
      "hit": false,
      "t": 279130.04400000145,
      "d": 172.1012083333917,
      "v": 109
    },
    {
      "midi": 65,
      "hit": false,
      "t": 279130.04400000145,
      "d": 172.1012083333917,
      "v": 109
    },
    {
      "midi": 46,
      "hit": false,
      "t": 279130.04400000145,
      "d": 181.1591666667373,
      "v": 112
    },
    {
      "midi": 58,
      "hit": false,
      "t": 279564.8260000015,
      "d": 90.57958333333954,
      "v": 92
    },
    {
      "midi": 63,
      "hit": false,
      "t": 279564.8260000015,
      "d": 108.69550000003073,
      "v": 97
    },
    {
      "midi": 67,
      "hit": false,
      "t": 279564.8260000015,
      "d": 126.81141666672193,
      "v": 106
    },
    {
      "midi": 34,
      "hit": false,
      "t": 279564.8260000015,
      "d": 163.0432500000461,
      "v": 103
    },
    {
      "midi": 46,
      "hit": false,
      "t": 279564.8260000015,
      "d": 181.1591666667373,
      "v": 112
    },
    {
      "midi": 58,
      "hit": false,
      "t": 279999.6080000016,
      "d": 90.57958333333954,
      "v": 96
    },
    {
      "midi": 68,
      "hit": false,
      "t": 279999.6080000016,
      "d": 144.9273333333549,
      "v": 98
    },
    {
      "midi": 34,
      "hit": false,
      "t": 279999.6080000016,
      "d": 199.27508333337028,
      "v": 98
    },
    {
      "midi": 65,
      "hit": false,
      "t": 279999.6080000016,
      "d": 199.27508333337028,
      "v": 110
    },
    {
      "midi": 46,
      "hit": false,
      "t": 279999.6080000016,
      "d": 226.44895833334886,
      "v": 99
    },
    {
      "midi": 58,
      "hit": false,
      "t": 280434.3900000016,
      "d": 108.69549999997253,
      "v": 71
    },
    {
      "midi": 63,
      "hit": false,
      "t": 280434.3900000016,
      "d": 117.75345833331812,
      "v": 95
    },
    {
      "midi": 67,
      "hit": false,
      "t": 280434.3900000016,
      "d": 144.9273333332967,
      "v": 109
    },
    {
      "midi": 34,
      "hit": false,
      "t": 280434.3900000016,
      "d": 181.15916666662088,
      "v": 99
    },
    {
      "midi": 46,
      "hit": false,
      "t": 280434.3900000016,
      "d": 199.27508333331207,
      "v": 92
    },
    {
      "midi": 58,
      "hit": false,
      "t": 280869.1720000016,
      "d": 126.81141666666372,
      "v": 109
    },
    {
      "midi": 62,
      "hit": false,
      "t": 280869.1720000016,
      "d": 153.9852916666423,
      "v": 111
    },
    {
      "midi": 65,
      "hit": false,
      "t": 280869.1720000016,
      "d": 181.15916666662088,
      "v": 108
    },
    {
      "midi": 34,
      "hit": false,
      "t": 280869.1720000016,
      "d": 190.21712499996647,
      "v": 109
    },
    {
      "midi": 46,
      "hit": false,
      "t": 280869.1720000016,
      "d": 226.44895833329065,
      "v": 118
    },
    {
      "midi": 46,
      "hit": false,
      "t": 283477.8640000016,
      "d": 190.21712500002468,
      "v": 126
    },
    {
      "midi": 34,
      "hit": false,
      "t": 283477.8640000016,
      "d": 217.39100000000326,
      "v": 110
    },
    {
      "midi": 58,
      "hit": false,
      "t": 283477.8640000016,
      "d": 217.39100000000326,
      "v": 102
    },
    {
      "midi": 63,
      "hit": false,
      "t": 284347.4280000016,
      "d": 153.9852916666423,
      "v": 124
    },
    {
      "midi": 39,
      "hit": false,
      "t": 284347.4280000016,
      "d": 190.21712499996647,
      "v": 126
    },
    {
      "midi": 51,
      "hit": false,
      "t": 284347.4280000016,
      "d": 190.21712499996647,
      "v": 124
    },
    {
      "midi": 34,
      "hit": false,
      "t": 285216.99200000154,
      "d": 153.9852916666423,
      "v": 103
    },
    {
      "midi": 46,
      "hit": false,
      "t": 285216.99200000154,
      "d": 163.0432499999879,
      "v": 126
    },
    {
      "midi": 58,
      "hit": false,
      "t": 285216.99200000154,
      "d": 190.21712499996647,
      "v": 106
    },
    {
      "midi": 65,
      "hit": false,
      "t": 285651.7740000015,
      "d": 108.69549999997253,
      "v": 103
    },
    {
      "midi": 58,
      "hit": false,
      "t": 285651.7740000015,
      "d": 126.81141666666372,
      "v": 93
    },
    {
      "midi": 62,
      "hit": false,
      "t": 285651.7740000015,
      "d": 126.81141666666372,
      "v": 105
    },
    {
      "midi": 46,
      "hit": false,
      "t": 285651.7740000015,
      "d": 144.9273333333549,
      "v": 118
    },
    {
      "midi": 34,
      "hit": false,
      "t": 285651.7740000015,
      "d": 153.9852916667005,
      "v": 118
    },
    {
      "midi": 58,
      "hit": false,
      "t": 286086.5560000015,
      "d": 190.21712500002468,
      "v": 107
    },
    {
      "midi": 65,
      "hit": false,
      "t": 286086.5560000015,
      "d": 199.27508333337028,
      "v": 122
    },
    {
      "midi": 34,
      "hit": false,
      "t": 286086.5560000015,
      "d": 208.33304166671587,
      "v": 124
    },
    {
      "midi": 46,
      "hit": false,
      "t": 286086.5560000015,
      "d": 217.39100000006147,
      "v": 127
    },
    {
      "midi": 58,
      "hit": false,
      "t": 286521.33800000156,
      "d": 108.69549999997253,
      "v": 89
    },
    {
      "midi": 63,
      "hit": false,
      "t": 286521.33800000156,
      "d": 135.8693749999511,
      "v": 106
    },
    {
      "midi": 67,
      "hit": false,
      "t": 286521.33800000156,
      "d": 135.8693749999511,
      "v": 109
    },
    {
      "midi": 34,
      "hit": false,
      "t": 286521.33800000156,
      "d": 199.27508333331207,
      "v": 106
    },
    {
      "midi": 46,
      "hit": false,
      "t": 286521.33800000156,
      "d": 226.44895833329065,
      "v": 114
    },
    {
      "midi": 58,
      "hit": false,
      "t": 286956.1200000015,
      "d": 144.9273333333549,
      "v": 96
    },
    {
      "midi": 65,
      "hit": false,
      "t": 286956.1200000015,
      "d": 163.0432500000461,
      "v": 100
    },
    {
      "midi": 68,
      "hit": false,
      "t": 286956.1200000015,
      "d": 181.1591666667373,
      "v": 120
    },
    {
      "midi": 34,
      "hit": false,
      "t": 286956.1200000015,
      "d": 217.39100000006147,
      "v": 104
    },
    {
      "midi": 46,
      "hit": false,
      "t": 286956.1200000015,
      "d": 217.39100000006147,
      "v": 109
    },
    {
      "midi": 63,
      "hit": false,
      "t": 287390.9020000016,
      "d": 117.75345833331812,
      "v": 104
    },
    {
      "midi": 58,
      "hit": false,
      "t": 287390.9020000016,
      "d": 126.81141666666372,
      "v": 83
    },
    {
      "midi": 67,
      "hit": false,
      "t": 287390.9020000016,
      "d": 153.9852916666423,
      "v": 116
    },
    {
      "midi": 34,
      "hit": false,
      "t": 287390.9020000016,
      "d": 199.27508333331207,
      "v": 98
    },
    {
      "midi": 46,
      "hit": false,
      "t": 287390.9020000016,
      "d": 199.27508333331207,
      "v": 102
    },
    {
      "midi": 58,
      "hit": false,
      "t": 287825.6840000016,
      "d": 172.1012083333335,
      "v": 103
    },
    {
      "midi": 65,
      "hit": false,
      "t": 287825.6840000016,
      "d": 208.33304166665766,
      "v": 109
    },
    {
      "midi": 62,
      "hit": false,
      "t": 287825.6840000016,
      "d": 226.44895833334886,
      "v": 115
    },
    {
      "midi": 34,
      "hit": false,
      "t": 287825.6840000016,
      "d": 253.62283333332743,
      "v": 116
    },
    {
      "midi": 46,
      "hit": false,
      "t": 287825.6840000016,
      "d": 253.62283333332743,
      "v": 120
    },
    {
      "midi": 58,
      "hit": false,
      "t": 289564.81200000155,
      "d": 199.27508333331207,
      "v": 91
    },
    {
      "midi": 62,
      "hit": false,
      "t": 289564.81200000155,
      "d": 226.44895833329065,
      "v": 111
    },
    {
      "midi": 65,
      "hit": false,
      "t": 289564.81200000155,
      "d": 244.56487499998184,
      "v": 98
    },
    {
      "midi": 34,
      "hit": false,
      "t": 289564.81200000155,
      "d": 262.68079166667303,
      "v": 116
    },
    {
      "midi": 46,
      "hit": false,
      "t": 289564.81200000155,
      "d": 271.7387500000186,
      "v": 114
    },
    {
      "midi": 58,
      "hit": false,
      "t": 289999.59400000155,
      "d": 163.0432499999879,
      "v": 102
    },
    {
      "midi": 63,
      "hit": false,
      "t": 289999.59400000155,
      "d": 163.0432499999879,
      "v": 100
    },
    {
      "midi": 67,
      "hit": false,
      "t": 289999.59400000155,
      "d": 172.1012083333335,
      "v": 113
    },
    {
      "midi": 34,
      "hit": false,
      "t": 289999.59400000155,
      "d": 217.39100000000326,
      "v": 106
    },
    {
      "midi": 46,
      "hit": false,
      "t": 289999.59400000155,
      "d": 235.50691666669445,
      "v": 100
    },
    {
      "midi": 58,
      "hit": false,
      "t": 290434.37600000156,
      "d": 99.63754166668514,
      "v": 71
    },
    {
      "midi": 65,
      "hit": false,
      "t": 290434.37600000156,
      "d": 172.1012083333335,
      "v": 93
    },
    {
      "midi": 34,
      "hit": false,
      "t": 290434.37600000156,
      "d": 217.39100000000326,
      "v": 102
    },
    {
      "midi": 46,
      "hit": false,
      "t": 290434.37600000156,
      "d": 217.39100000000326,
      "v": 98
    },
    {
      "midi": 68,
      "hit": false,
      "t": 290434.37600000156,
      "d": 226.44895833334886,
      "v": 107
    },
    {
      "midi": 63,
      "hit": false,
      "t": 290869.15800000157,
      "d": 54.34775000001537,
      "v": 98
    },
    {
      "midi": 67,
      "hit": false,
      "t": 290869.15800000157,
      "d": 108.69550000003073,
      "v": 106
    },
    {
      "midi": 58,
      "hit": false,
      "t": 290869.15800000157,
      "d": 117.75345833337633,
      "v": 81
    },
    {
      "midi": 34,
      "hit": false,
      "t": 290869.15800000157,
      "d": 244.56487500004005,
      "v": 104
    },
    {
      "midi": 46,
      "hit": false,
      "t": 290869.15800000157,
      "d": 262.68079166673124,
      "v": 100
    },
    {
      "midi": 58,
      "hit": false,
      "t": 291303.94000000163,
      "d": 217.39100000000326,
      "v": 90
    },
    {
      "midi": 62,
      "hit": false,
      "t": 291303.94000000163,
      "d": 235.50691666669445,
      "v": 102
    },
    {
      "midi": 65,
      "hit": false,
      "t": 291303.94000000163,
      "d": 235.50691666669445,
      "v": 112
    },
    {
      "midi": 34,
      "hit": false,
      "t": 291303.94000000163,
      "d": 298.9126250000554,
      "v": 116
    },
    {
      "midi": 46,
      "hit": false,
      "t": 291303.94000000163,
      "d": 326.086500000034,
      "v": 118
    },
    {
      "midi": 58,
      "hit": false,
      "t": 293043.06800000166,
      "d": 163.0432499999879,
      "v": 87
    },
    {
      "midi": 65,
      "hit": false,
      "t": 293043.06800000166,
      "d": 199.27508333331207,
      "v": 106
    },
    {
      "midi": 62,
      "hit": false,
      "t": 293043.06800000166,
      "d": 208.33304166665766,
      "v": 105
    },
    {
      "midi": 34,
      "hit": false,
      "t": 293043.06800000166,
      "d": 226.44895833334886,
      "v": 100
    },
    {
      "midi": 46,
      "hit": false,
      "t": 293043.06800000166,
      "d": 244.56487500004005,
      "v": 104
    },
    {
      "midi": 63,
      "hit": false,
      "t": 293477.8500000017,
      "d": 163.0432499999879,
      "v": 93
    },
    {
      "midi": 67,
      "hit": false,
      "t": 293477.8500000017,
      "d": 163.0432499999879,
      "v": 113
    },
    {
      "midi": 58,
      "hit": false,
      "t": 293477.8500000017,
      "d": 172.1012083333335,
      "v": 92
    },
    {
      "midi": 46,
      "hit": false,
      "t": 293477.8500000017,
      "d": 226.44895833334886,
      "v": 99
    },
    {
      "midi": 34,
      "hit": false,
      "t": 293477.8500000017,
      "d": 244.56487500004005,
      "v": 99
    },
    {
      "midi": 58,
      "hit": false,
      "t": 293912.6320000018,
      "d": 172.1012083333335,
      "v": 83
    },
    {
      "midi": 68,
      "hit": false,
      "t": 293912.6320000018,
      "d": 172.1012083333335,
      "v": 104
    },
    {
      "midi": 34,
      "hit": false,
      "t": 293912.6320000018,
      "d": 226.44895833334886,
      "v": 103
    },
    {
      "midi": 46,
      "hit": false,
      "t": 293912.6320000018,
      "d": 253.62283333332743,
      "v": 114
    },
    {
      "midi": 65,
      "hit": false,
      "t": 293912.6320000018,
      "d": 253.62283333332743,
      "v": 108
    },
    {
      "midi": 63,
      "hit": false,
      "t": 294347.4140000018,
      "d": 153.9852916666423,
      "v": 102
    },
    {
      "midi": 58,
      "hit": false,
      "t": 294347.4140000018,
      "d": 163.0432499999879,
      "v": 81
    },
    {
      "midi": 67,
      "hit": false,
      "t": 294347.4140000018,
      "d": 172.1012083333335,
      "v": 113
    },
    {
      "midi": 34,
      "hit": false,
      "t": 294347.4140000018,
      "d": 235.50691666669445,
      "v": 104
    },
    {
      "midi": 46,
      "hit": false,
      "t": 294347.4140000018,
      "d": 244.56487500004005,
      "v": 104
    },
    {
      "midi": 58,
      "hit": false,
      "t": 294782.19600000186,
      "d": 217.39100000000326,
      "v": 109
    },
    {
      "midi": 65,
      "hit": false,
      "t": 294782.19600000186,
      "d": 253.62283333332743,
      "v": 113
    },
    {
      "midi": 62,
      "hit": false,
      "t": 294782.19600000186,
      "d": 262.68079166667303,
      "v": 120
    },
    {
      "midi": 34,
      "hit": false,
      "t": 294782.19600000186,
      "d": 289.8546666666516,
      "v": 107
    },
    {
      "midi": 46,
      "hit": false,
      "t": 294782.19600000186,
      "d": 335.1444583333214,
      "v": 104
    },
    {
      "midi": 62,
      "hit": false,
      "t": 299999.5800000018,
      "d": 244.56487499998184,
      "v": 110
    },
    {
      "midi": 59,
      "hit": false,
      "t": 299999.5800000018,
      "d": 262.68079166667303,
      "v": 105
    },
    {
      "midi": 66,
      "hit": false,
      "t": 299999.5800000018,
      "d": 307.9705833333428,
      "v": 96
    },
    {
      "midi": 47,
      "hit": false,
      "t": 299999.5800000018,
      "d": 326.086500000034,
      "v": 110
    },
    {
      "midi": 35,
      "hit": false,
      "t": 299999.5800000018,
      "d": 344.2024166667252,
      "v": 103
    },
    {
      "midi": 61,
      "hit": false,
      "t": 300869.1440000019,
      "d": 217.39100000000326,
      "v": 104
    },
    {
      "midi": 69,
      "hit": false,
      "t": 300869.1440000019,
      "d": 235.50691666669445,
      "v": 120
    },
    {
      "midi": 33,
      "hit": false,
      "t": 300869.1440000019,
      "d": 262.68079166667303,
      "v": 100
    },
    {
      "midi": 64,
      "hit": false,
      "t": 300869.1440000019,
      "d": 280.7967083333642,
      "v": 125
    },
    {
      "midi": 45,
      "hit": false,
      "t": 300869.1440000019,
      "d": 289.8546666667098,
      "v": 113
    },
    {
      "midi": 62,
      "hit": false,
      "t": 301738.70800000196,
      "d": 199.27508333331207,
      "v": 113
    },
    {
      "midi": 66,
      "hit": false,
      "t": 301738.70800000196,
      "d": 253.62283333332743,
      "v": 110
    },
    {
      "midi": 69,
      "hit": false,
      "t": 301738.70800000196,
      "d": 253.62283333332743,
      "v": 116
    },
    {
      "midi": 38,
      "hit": false,
      "t": 301738.70800000196,
      "d": 298.9126249999972,
      "v": 119
    },
    {
      "midi": 50,
      "hit": false,
      "t": 301738.70800000196,
      "d": 326.0864999999758,
      "v": 115
    },
    {
      "midi": 61,
      "hit": false,
      "t": 302608.2720000019,
      "d": 208.33304166665766,
      "v": 92
    },
    {
      "midi": 65,
      "hit": false,
      "t": 302608.2720000019,
      "d": 217.39100000000326,
      "v": 110
    },
    {
      "midi": 71,
      "hit": false,
      "t": 302608.2720000019,
      "d": 226.44895833334886,
      "v": 112
    },
    {
      "midi": 37,
      "hit": false,
      "t": 302608.2720000019,
      "d": 235.50691666669445,
      "v": 118
    },
    {
      "midi": 68,
      "hit": false,
      "t": 302608.2720000019,
      "d": 244.56487500004005,
      "v": 99
    },
    {
      "midi": 49,
      "hit": false,
      "t": 302608.2720000019,
      "d": 253.62283333338564,
      "v": 122
    },
    {
      "midi": 42,
      "hit": false,
      "t": 303477.836000002,
      "d": 172.1012083333335,
      "v": 122
    },
    {
      "midi": 54,
      "hit": false,
      "t": 303477.836000002,
      "d": 235.50691666669445,
      "v": 118
    },
    {
      "midi": 66,
      "hit": false,
      "t": 303477.836000002,
      "d": 253.62283333338564,
      "v": 116
    },
    {
      "midi": 61,
      "hit": false,
      "t": 303477.836000002,
      "d": 262.68079166673124,
      "v": 107
    },
    {
      "midi": 70,
      "hit": false,
      "t": 303477.836000002,
      "d": 271.73875000007683,
      "v": 110
    },
    {
      "midi": 62,
      "hit": false,
      "t": 304347.40000000206,
      "d": 262.68079166667303,
      "v": 100
    },
    {
      "midi": 65,
      "hit": false,
      "t": 304347.40000000206,
      "d": 271.7387500000186,
      "v": 108
    },
    {
      "midi": 46,
      "hit": false,
      "t": 304347.40000000206,
      "d": 280.7967083333642,
      "v": 106
    },
    {
      "midi": 70,
      "hit": false,
      "t": 304347.40000000206,
      "d": 298.9126250000554,
      "v": 97
    },
    {
      "midi": 34,
      "hit": false,
      "t": 304347.40000000206,
      "d": 335.1444583333796,
      "v": 99
    },
    {
      "midi": 63,
      "hit": false,
      "t": 305216.96400000213,
      "d": 280.796708333306,
      "v": 100
    },
    {
      "midi": 67,
      "hit": false,
      "t": 305216.96400000213,
      "d": 289.8546666666516,
      "v": 115
    },
    {
      "midi": 70,
      "hit": false,
      "t": 305216.96400000213,
      "d": 298.9126249999972,
      "v": 102
    },
    {
      "midi": 51,
      "hit": false,
      "t": 305216.96400000213,
      "d": 335.1444583333214,
      "v": 118
    },
    {
      "midi": 39,
      "hit": false,
      "t": 305216.96400000213,
      "d": 344.202416666667,
      "v": 112
    },
    {
      "midi": 39,
      "hit": false,
      "t": 309564.78400000214,
      "d": 163.0432499999879,
      "v": 97
    },
    {
      "midi": 51,
      "hit": false,
      "t": 309564.78400000214,
      "d": 163.0432499999879,
      "v": 114
    },
    {
      "midi": 39,
      "hit": false,
      "t": 309999.56600000215,
      "d": 163.0432499999879,
      "v": 120
    },
    {
      "midi": 51,
      "hit": false,
      "t": 309999.56600000215,
      "d": 190.21712499996647,
      "v": 122
    },
    {
      "midi": 44,
      "hit": false,
      "t": 310434.3480000021,
      "d": 280.796708333306,
      "v": 110
    },
    {
      "midi": 56,
      "hit": false,
      "t": 310434.3480000021,
      "d": 289.8546666666516,
      "v": 124
    },
    {
      "midi": 39,
      "hit": false,
      "t": 310869.1300000021,
      "d": 172.1012083333335,
      "v": 98
    },
    {
      "midi": 51,
      "hit": false,
      "t": 310869.1300000021,
      "d": 181.15916666667908,
      "v": 112
    },
    {
      "midi": 38,
      "hit": false,
      "t": 311303.9120000021,
      "d": 117.75345833331812,
      "v": 99
    },
    {
      "midi": 50,
      "hit": false,
      "t": 311303.9120000021,
      "d": 190.21712499996647,
      "v": 112
    },
    {
      "midi": 36,
      "hit": false,
      "t": 311738.69400000205,
      "d": 135.8693750000093,
      "v": 100
    },
    {
      "midi": 48,
      "hit": false,
      "t": 311738.69400000205,
      "d": 190.21712500002468,
      "v": 105
    },
    {
      "midi": 34,
      "hit": false,
      "t": 312173.47600000206,
      "d": 271.7387500000186,
      "v": 102
    },
    {
      "midi": 46,
      "hit": false,
      "t": 312173.47600000206,
      "d": 280.7967083333642,
      "v": 112
    },
    {
      "midi": 51,
      "hit": false,
      "t": 313912.6040000021,
      "d": 606.88320833334,
      "v": 109
    },
    {
      "midi": 39,
      "hit": false,
      "t": 313912.6040000021,
      "d": 624.9991250000312,
      "v": 106
    },
    {
      "midi": 67,
      "hit": false,
      "t": 313912.6040000021,
      "d": 1150.3607083333773,
      "v": 111
    },
    {
      "midi": 63,
      "hit": false,
      "t": 313912.6040000021,
      "d": 1403.9835416667047,
      "v": 99
    },
    {
      "midi": 58,
      "hit": false,
      "t": 313912.6040000021,
      "d": 1440.2153750000289,
      "v": 90
    },
    {
      "midi": 67,
      "hit": false,
      "t": 315216.9500000021,
      "d": 262.68079166667303,
      "v": 112
    },
    {
      "midi": 32,
      "hit": false,
      "t": 315651.7320000021,
      "d": 498.1877083333093,
      "v": 102
    },
    {
      "midi": 44,
      "hit": false,
      "t": 315651.7320000021,
      "d": 498.1877083333093,
      "v": 99
    },
    {
      "midi": 68,
      "hit": false,
      "t": 315651.7320000021,
      "d": 534.4195416666334,
      "v": 106
    },
    {
      "midi": 63,
      "hit": false,
      "t": 315651.7320000021,
      "d": 561.593416666612,
      "v": 104
    },
    {
      "midi": 60,
      "hit": false,
      "t": 315651.7320000021,
      "d": 597.8252499999362,
      "v": 101
    },
    {
      "midi": 68,
      "hit": false,
      "t": 316521.29600000207,
      "d": 443.8399583333521,
      "v": 99
    },
    {
      "midi": 60,
      "hit": false,
      "t": 316521.29600000207,
      "d": 471.0138333333307,
      "v": 105
    },
    {
      "midi": 63,
      "hit": false,
      "t": 316521.29600000207,
      "d": 507.24566666665487,
      "v": 110
    },
    {
      "midi": 50,
      "hit": false,
      "t": 317390.860000002,
      "d": 480.0717916666763,
      "v": 115
    },
    {
      "midi": 38,
      "hit": false,
      "t": 317390.860000002,
      "d": 507.24566666665487,
      "v": 110
    },
    {
      "midi": 69,
      "hit": false,
      "t": 317390.860000002,
      "d": 624.999124999973,
      "v": 112
    },
    {
      "midi": 66,
      "hit": false,
      "t": 317390.860000002,
      "d": 634.0570833333186,
      "v": 109
    },
    {
      "midi": 62,
      "hit": false,
      "t": 317390.860000002,
      "d": 670.2889166666428,
      "v": 105
    },
    {
      "midi": 62,
      "hit": false,
      "t": 318260.424000002,
      "d": 271.7387500000186,
      "v": 105
    },
    {
      "midi": 66,
      "hit": false,
      "t": 318260.424000002,
      "d": 271.7387500000186,
      "v": 96
    },
    {
      "midi": 69,
      "hit": false,
      "t": 318260.424000002,
      "d": 280.7967083333642,
      "v": 110
    },
    {
      "midi": 66,
      "hit": false,
      "t": 318695.206000002,
      "d": 172.1012083333335,
      "v": 92
    },
    {
      "midi": 69,
      "hit": false,
      "t": 318695.206000002,
      "d": 181.15916666667908,
      "v": 106
    },
    {
      "midi": 62,
      "hit": false,
      "t": 318695.206000002,
      "d": 190.21712500002468,
      "v": 106
    },
    {
      "midi": 62,
      "hit": false,
      "t": 319129.988000002,
      "d": 588.7672916666488,
      "v": 98
    },
    {
      "midi": 70,
      "hit": false,
      "t": 319129.988000002,
      "d": 624.999124999973,
      "v": 114
    },
    {
      "midi": 67,
      "hit": false,
      "t": 319129.988000002,
      "d": 643.1150416666642,
      "v": 106
    },
    {
      "midi": 55,
      "hit": false,
      "t": 319129.988000002,
      "d": 652.1730000000098,
      "v": 116
    },
    {
      "midi": 43,
      "hit": false,
      "t": 319129.988000002,
      "d": 688.404833333334,
      "v": 105
    },
    {
      "midi": 62,
      "hit": false,
      "t": 319999.552000002,
      "d": 480.0717916666763,
      "v": 105
    },
    {
      "midi": 67,
      "hit": false,
      "t": 319999.552000002,
      "d": 489.1297500000219,
      "v": 106
    },
    {
      "midi": 70,
      "hit": false,
      "t": 319999.552000002,
      "d": 507.2456666667131,
      "v": 102
    },
    {
      "midi": 62,
      "hit": false,
      "t": 320841.94212500204,
      "d": 3423.908250000153,
      "v": 100
    },
    {
      "midi": 34,
      "hit": false,
      "t": 320851.0000833354,
      "d": 244.56487499998184,
      "v": 106
    },
    {
      "midi": 46,
      "hit": false,
      "t": 320878.17395833536,
      "d": 253.62283333332743,
      "v": 100
    },
    {
      "midi": 68,
      "hit": false,
      "t": 320905.34783333534,
      "d": 3442.0241666668444,
      "v": 109
    },
    {
      "midi": 34,
      "hit": false,
      "t": 321303.898000002,
      "d": 117.75345833331812,
      "v": 86
    },
    {
      "midi": 46,
      "hit": false,
      "t": 321303.898000002,
      "d": 126.81141666666372,
      "v": 75
    },
    {
      "midi": 46,
      "hit": false,
      "t": 321738.68000000203,
      "d": 99.63754166668514,
      "v": 114
    },
    {
      "midi": 34,
      "hit": false,
      "t": 321738.68000000203,
      "d": 117.75345833337633,
      "v": 100
    },
    {
      "midi": 46,
      "hit": false,
      "t": 322173.4620000021,
      "d": 90.57958333333954,
      "v": 107
    },
    {
      "midi": 34,
      "hit": false,
      "t": 322173.4620000021,
      "d": 108.69550000003073,
      "v": 110
    },
    {
      "midi": 46,
      "hit": false,
      "t": 322608.2440000021,
      "d": 90.57958333333954,
      "v": 112
    },
    {
      "midi": 34,
      "hit": false,
      "t": 322608.2440000021,
      "d": 108.69550000003073,
      "v": 114
    },
    {
      "midi": 46,
      "hit": false,
      "t": 323043.0260000021,
      "d": 54.34775000001537,
      "v": 92
    },
    {
      "midi": 34,
      "hit": false,
      "t": 323043.0260000021,
      "d": 72.46366666670656,
      "v": 103
    },
    {
      "midi": 46,
      "hit": false,
      "t": 323477.8080000022,
      "d": 72.46366666664835,
      "v": 114
    },
    {
      "midi": 34,
      "hit": false,
      "t": 323477.8080000022,
      "d": 90.57958333333954,
      "v": 110
    },
    {
      "midi": 34,
      "hit": false,
      "t": 323912.5900000022,
      "d": 81.52162499999395,
      "v": 100
    },
    {
      "midi": 34,
      "hit": false,
      "t": 324347.3720000022,
      "d": 153.9852916666423,
      "v": 124
    },
    {
      "midi": 46,
      "hit": false,
      "t": 324374.54587500216,
      "d": 163.0432499999879,
      "v": 118
    },
    {
      "midi": 34,
      "hit": false,
      "t": 324782.15400000213,
      "d": 81.52162499999395,
      "v": 80
    },
    {
      "midi": 46,
      "hit": false,
      "t": 324782.15400000213,
      "d": 90.57958333333954,
      "v": 86
    },
    {
      "midi": 46,
      "hit": false,
      "t": 325216.93600000214,
      "d": 90.57958333333954,
      "v": 116
    },
    {
      "midi": 34,
      "hit": false,
      "t": 325216.93600000214,
      "d": 99.63754166668514,
      "v": 110
    },
    {
      "midi": 34,
      "hit": false,
      "t": 325651.71800000215,
      "d": 72.46366666664835,
      "v": 103
    },
    {
      "midi": 46,
      "hit": false,
      "t": 325651.71800000215,
      "d": 72.46366666664835,
      "v": 104
    },
    {
      "midi": 46,
      "hit": false,
      "t": 326086.50000000215,
      "d": 90.57958333333954,
      "v": 120
    },
    {
      "midi": 34,
      "hit": false,
      "t": 326086.50000000215,
      "d": 99.63754166668514,
      "v": 109
    },
    {
      "midi": 46,
      "hit": false,
      "t": 326521.28200000216,
      "d": 63.40570833336096,
      "v": 90
    },
    {
      "midi": 34,
      "hit": false,
      "t": 326521.28200000216,
      "d": 90.57958333333954,
      "v": 102
    },
    {
      "midi": 46,
      "hit": false,
      "t": 326956.06400000217,
      "d": 63.40570833336096,
      "v": 114
    },
    {
      "midi": 34,
      "hit": false,
      "t": 326956.06400000217,
      "d": 72.46366666670656,
      "v": 106
    },
    {
      "midi": 46,
      "hit": false,
      "t": 327390.84600000223,
      "d": 72.46366666664835,
      "v": 106
    },
    {
      "midi": 34,
      "hit": false,
      "t": 327390.84600000223,
      "d": 81.52162499999395,
      "v": 99
    },
    {
      "midi": 34,
      "hit": false,
      "t": 327825.62800000224,
      "d": 153.9852916666423,
      "v": 114
    },
    {
      "midi": 46,
      "hit": false,
      "t": 327825.62800000224,
      "d": 153.9852916666423,
      "v": 118
    },
    {
      "midi": 34,
      "hit": false,
      "t": 328260.4100000022,
      "d": 90.57958333333954,
      "v": 98
    },
    {
      "midi": 46,
      "hit": false,
      "t": 328260.4100000022,
      "d": 90.57958333333954,
      "v": 107
    },
    {
      "midi": 46,
      "hit": false,
      "t": 328695.1920000022,
      "d": 81.52162499999395,
      "v": 112
    },
    {
      "midi": 34,
      "hit": false,
      "t": 328695.1920000022,
      "d": 90.57958333333954,
      "v": 107
    },
    {
      "midi": 46,
      "hit": false,
      "t": 329129.9740000022,
      "d": 54.34775000001537,
      "v": 92
    },
    {
      "midi": 34,
      "hit": false,
      "t": 329129.9740000022,
      "d": 81.52162499999395,
      "v": 112
    },
    {
      "midi": 46,
      "hit": false,
      "t": 329564.7560000022,
      "d": 72.46366666664835,
      "v": 103
    },
    {
      "midi": 34,
      "hit": false,
      "t": 329564.7560000022,
      "d": 99.63754166662693,
      "v": 114
    },
    {
      "midi": 46,
      "hit": false,
      "t": 329999.53800000215,
      "d": 63.40570833336096,
      "v": 106
    },
    {
      "midi": 34,
      "hit": false,
      "t": 329999.53800000215,
      "d": 81.52162500005215,
      "v": 106
    },
    {
      "midi": 46,
      "hit": false,
      "t": 330434.3200000022,
      "d": 72.46366666664835,
      "v": 112
    },
    {
      "midi": 34,
      "hit": false,
      "t": 330434.3200000022,
      "d": 90.57958333333954,
      "v": 112
    },
    {
      "midi": 46,
      "hit": false,
      "t": 330869.1020000022,
      "d": 81.52162499999395,
      "v": 102
    },
    {
      "midi": 34,
      "hit": false,
      "t": 330869.1020000022,
      "d": 90.57958333333954,
      "v": 112
    },
    {
      "midi": 46,
      "hit": false,
      "t": 331303.88400000223,
      "d": 135.8693750000093,
      "v": 116
    },
    {
      "midi": 34,
      "hit": false,
      "t": 331303.88400000223,
      "d": 153.9852916667005,
      "v": 116
    },
    {
      "midi": 46,
      "hit": false,
      "t": 331738.66600000224,
      "d": 81.52162499999395,
      "v": 107
    },
    {
      "midi": 34,
      "hit": false,
      "t": 331738.66600000224,
      "d": 90.57958333333954,
      "v": 104
    },
    {
      "midi": 34,
      "hit": false,
      "t": 332173.44800000224,
      "d": 90.57958333333954,
      "v": 102
    },
    {
      "midi": 46,
      "hit": false,
      "t": 332173.44800000224,
      "d": 90.57958333333954,
      "v": 107
    },
    {
      "midi": 46,
      "hit": false,
      "t": 332608.23000000225,
      "d": 81.52162499999395,
      "v": 109
    },
    {
      "midi": 34,
      "hit": false,
      "t": 332608.23000000225,
      "d": 90.57958333333954,
      "v": 103
    },
    {
      "midi": 46,
      "hit": false,
      "t": 333043.01200000226,
      "d": 90.57958333333954,
      "v": 107
    },
    {
      "midi": 34,
      "hit": false,
      "t": 333043.01200000226,
      "d": 108.69550000003073,
      "v": 104
    },
    {
      "midi": 34,
      "hit": false,
      "t": 333477.79400000226,
      "d": 108.69549999997253,
      "v": 112
    },
    {
      "midi": 46,
      "hit": false,
      "t": 333477.79400000226,
      "d": 108.69549999997253,
      "v": 110
    },
    {
      "midi": 34,
      "hit": false,
      "t": 333912.5760000022,
      "d": 552.5354583333828,
      "v": 120
    },
    {
      "midi": 46,
      "hit": false,
      "t": 333912.5760000022,
      "d": 552.5354583333828,
      "v": 122
    },
    {
      "midi": 46,
      "hit": false,
      "t": 462608.0480000023,
      "d": 190.21712500002468,
      "v": 83
    },
    {
      "midi": 34,
      "hit": false,
      "t": 462608.0480000023,
      "d": 271.7387500000186,
      "v": 91
    },
    {
      "midi": 48,
      "hit": false,
      "t": 463042.8300000023,
      "d": 190.21712500002468,
      "v": 86
    },
    {
      "midi": 36,
      "hit": false,
      "t": 463042.8300000023,
      "d": 208.33304166671587,
      "v": 89
    },
    {
      "midi": 46,
      "hit": false,
      "t": 463477.61200000235,
      "d": 181.15916666667908,
      "v": 79
    },
    {
      "midi": 34,
      "hit": false,
      "t": 463477.61200000235,
      "d": 335.1444583333214,
      "v": 96
    },
    {
      "midi": 48,
      "hit": false,
      "t": 463912.39400000236,
      "d": 208.33304166665766,
      "v": 98
    },
    {
      "midi": 36,
      "hit": false,
      "t": 463912.39400000236,
      "d": 289.8546666666516,
      "v": 86
    },
    {
      "midi": 50,
      "hit": false,
      "t": 464347.17600000236,
      "d": 144.9273333333549,
      "v": 99
    },
    {
      "midi": 38,
      "hit": false,
      "t": 464347.17600000236,
      "d": 307.9705833333428,
      "v": 95
    },
    {
      "midi": 51,
      "hit": false,
      "t": 464781.95800000237,
      "d": 126.81141666666372,
      "v": 96
    },
    {
      "midi": 39,
      "hit": false,
      "t": 464781.95800000237,
      "d": 163.0432499999879,
      "v": 97
    },
    {
      "midi": 50,
      "hit": false,
      "t": 465216.7400000024,
      "d": 172.1012083333335,
      "v": 83
    },
    {
      "midi": 38,
      "hit": false,
      "t": 465216.7400000024,
      "d": 253.62283333332743,
      "v": 95
    },
    {
      "midi": 51,
      "hit": false,
      "t": 465651.5220000024,
      "d": 181.15916666667908,
      "v": 106
    },
    {
      "midi": 39,
      "hit": false,
      "t": 465651.5220000024,
      "d": 253.62283333332743,
      "v": 93
    },
    {
      "midi": 53,
      "hit": false,
      "t": 466086.3040000024,
      "d": 199.27508333331207,
      "v": 91
    },
    {
      "midi": 41,
      "hit": false,
      "t": 466086.3040000024,
      "d": 335.1444583333214,
      "v": 91
    },
    {
      "midi": 55,
      "hit": false,
      "t": 466521.0860000024,
      "d": 181.15916666667908,
      "v": 98
    },
    {
      "midi": 43,
      "hit": false,
      "t": 466521.0860000024,
      "d": 289.8546666666516,
      "v": 85
    },
    {
      "midi": 56,
      "hit": false,
      "t": 466955.8680000024,
      "d": 190.21712500002468,
      "v": 109
    },
    {
      "midi": 44,
      "hit": false,
      "t": 466955.8680000024,
      "d": 235.50691666669445,
      "v": 92
    },
    {
      "midi": 55,
      "hit": false,
      "t": 467390.6500000024,
      "d": 199.27508333331207,
      "v": 95
    },
    {
      "midi": 43,
      "hit": false,
      "t": 467390.6500000024,
      "d": 235.50691666663624,
      "v": 91
    },
    {
      "midi": 44,
      "hit": false,
      "t": 467825.43200000236,
      "d": 172.1012083333335,
      "v": 84
    },
    {
      "midi": 56,
      "hit": false,
      "t": 467825.43200000236,
      "d": 190.21712500002468,
      "v": 91
    },
    {
      "midi": 58,
      "hit": false,
      "t": 468260.21400000236,
      "d": 163.0432499999879,
      "v": 98
    },
    {
      "midi": 46,
      "hit": false,
      "t": 468260.21400000236,
      "d": 208.33304166665766,
      "v": 83
    },
    {
      "midi": 60,
      "hit": false,
      "t": 468694.9960000024,
      "d": 135.8693750000093,
      "v": 97
    },
    {
      "midi": 48,
      "hit": false,
      "t": 468694.9960000024,
      "d": 190.21712500002468,
      "v": 87
    },
    {
      "midi": 58,
      "hit": false,
      "t": 469129.7780000024,
      "d": 135.8693750000093,
      "v": 93
    },
    {
      "midi": 46,
      "hit": false,
      "t": 469129.7780000024,
      "d": 163.0432499999879,
      "v": 81
    },
    {
      "midi": 62,
      "hit": false,
      "t": 469564.5600000024,
      "d": 153.9852916666423,
      "v": 113
    },
    {
      "midi": 50,
      "hit": false,
      "t": 469564.5600000024,
      "d": 190.21712499996647,
      "v": 92
    },
    {
      "midi": 58,
      "hit": false,
      "t": 469999.34200000233,
      "d": 135.8693750000093,
      "v": 88
    },
    {
      "midi": 46,
      "hit": false,
      "t": 469999.34200000233,
      "d": 172.1012083333335,
      "v": 88
    },
    {
      "midi": 65,
      "hit": false,
      "t": 470434.12400000234,
      "d": 172.1012083333335,
      "v": 105
    },
    {
      "midi": 53,
      "hit": false,
      "t": 470434.12400000234,
      "d": 181.15916666667908,
      "v": 96
    },
    {
      "midi": 58,
      "hit": false,
      "t": 470868.90600000235,
      "d": 362.31833333335817,
      "v": 79
    },
    {
      "midi": 46,
      "hit": false,
      "t": 470868.90600000235,
      "d": 398.55016666668234,
      "v": 81
    },
    {
      "midi": 58,
      "hit": false,
      "t": 471303.68800000235,
      "d": 253.62283333338564,
      "v": 81
    },
    {
      "midi": 67,
      "hit": false,
      "t": 471303.68800000235,
      "d": 389.49220833339496,
      "v": 100
    },
    {
      "midi": 63,
      "hit": false,
      "t": 471303.68800000235,
      "d": 398.55016666674055,
      "v": 97
    },
    {
      "midi": 51,
      "hit": false,
      "t": 471303.68800000235,
      "d": 1259.056208333408,
      "v": 93
    },
    {
      "midi": 39,
      "hit": false,
      "t": 471303.68800000235,
      "d": 1268.1141666667536,
      "v": 92
    },
    {
      "midi": 58,
      "hit": false,
      "t": 471738.4700000024,
      "d": 307.9705833333428,
      "v": 83
    },
    {
      "midi": 67,
      "hit": false,
      "t": 472173.2520000024,
      "d": 135.8693750000093,
      "v": 109
    },
    {
      "midi": 63,
      "hit": false,
      "t": 472173.2520000024,
      "d": 335.1444583333214,
      "v": 100
    },
    {
      "midi": 70,
      "hit": false,
      "t": 472173.2520000024,
      "d": 398.55016666668234,
      "v": 93
    },
    {
      "midi": 58,
      "hit": false,
      "t": 472608.03400000243,
      "d": 153.9852916666423,
      "v": 83
    },
    {
      "midi": 58,
      "hit": false,
      "t": 473042.8160000024,
      "d": 280.796708333306,
      "v": 89
    },
    {
      "midi": 65,
      "hit": false,
      "t": 473042.8160000024,
      "d": 416.6660833333153,
      "v": 101
    },
    {
      "midi": 62,
      "hit": false,
      "t": 473042.8160000024,
      "d": 452.8979166666977,
      "v": 101
    },
    {
      "midi": 38,
      "hit": false,
      "t": 473042.8160000024,
      "d": 1313.4039583334234,
      "v": 108
    },
    {
      "midi": 50,
      "hit": false,
      "t": 473042.8160000024,
      "d": 1331.5198750001146,
      "v": 105
    },
    {
      "midi": 58,
      "hit": false,
      "t": 473477.5980000024,
      "d": 163.0432500000461,
      "v": 97
    },
    {
      "midi": 65,
      "hit": false,
      "t": 473912.38000000245,
      "d": 172.1012083333335,
      "v": 97
    },
    {
      "midi": 62,
      "hit": false,
      "t": 473912.38000000245,
      "d": 326.0864999999758,
      "v": 105
    },
    {
      "midi": 70,
      "hit": false,
      "t": 473912.38000000245,
      "d": 335.1444583333214,
      "v": 96
    },
    {
      "midi": 58,
      "hit": false,
      "t": 474347.16200000246,
      "d": 90.57958333339775,
      "v": 81
    },
    {
      "midi": 63,
      "hit": false,
      "t": 474781.9440000025,
      "d": 380.43424999999115,
      "v": 103
    },
    {
      "midi": 67,
      "hit": false,
      "t": 474781.9440000025,
      "d": 380.43424999999115,
      "v": 103
    },
    {
      "midi": 48,
      "hit": false,
      "t": 474781.9440000025,
      "d": 1431.1574166666833,
      "v": 100
    },
    {
      "midi": 36,
      "hit": false,
      "t": 474781.9440000025,
      "d": 1458.3312916666619,
      "v": 96
    },
    {
      "midi": 60,
      "hit": false,
      "t": 475216.7260000025,
      "d": 208.33304166665766,
      "v": 93
    },
    {
      "midi": 72,
      "hit": false,
      "t": 475651.50800000253,
      "d": 217.39100000000326,
      "v": 98
    },
    {
      "midi": 63,
      "hit": false,
      "t": 475651.50800000253,
      "d": 298.9126249999972,
      "v": 89
    },
    {
      "midi": 67,
      "hit": false,
      "t": 475651.50800000253,
      "d": 298.9126249999972,
      "v": 103
    },
    {
      "midi": 60,
      "hit": false,
      "t": 476086.29000000254,
      "d": 90.57958333333954,
      "v": 90
    },
    {
      "midi": 47,
      "hit": false,
      "t": 476521.0720000025,
      "d": 461.9558750000433,
      "v": 103
    },
    {
      "midi": 59,
      "hit": false,
      "t": 476521.0720000025,
      "d": 480.0717916667345,
      "v": 91
    },
    {
      "midi": 67,
      "hit": false,
      "t": 476521.0720000025,
      "d": 498.1877083334257,
      "v": 87
    },
    {
      "midi": 62,
      "hit": false,
      "t": 476521.0720000025,
      "d": 507.2456666667713,
      "v": 95
    },
    {
      "midi": 65,
      "hit": false,
      "t": 476521.0720000025,
      "d": 516.3036250001169,
      "v": 93
    },
    {
      "midi": 67,
      "hit": false,
      "t": 477390.6360000026,
      "d": 353.2603750000126,
      "v": 101
    },
    {
      "midi": 63,
      "hit": false,
      "t": 477390.6360000026,
      "d": 362.31833333335817,
      "v": 95
    },
    {
      "midi": 60,
      "hit": false,
      "t": 477390.6360000026,
      "d": 389.49220833333675,
      "v": 94
    },
    {
      "midi": 48,
      "hit": false,
      "t": 477390.6360000026,
      "d": 733.6946250000037,
      "v": 106
    },
    {
      "midi": 67,
      "hit": false,
      "t": 478260.20000000263,
      "d": 271.7387500000186,
      "v": 96
    },
    {
      "midi": 65,
      "hit": false,
      "t": 478260.20000000263,
      "d": 280.7967083333642,
      "v": 99
    },
    {
      "midi": 62,
      "hit": false,
      "t": 478260.20000000263,
      "d": 289.8546666667098,
      "v": 104
    },
    {
      "midi": 59,
      "hit": false,
      "t": 478260.20000000263,
      "d": 307.970583333401,
      "v": 98
    },
    {
      "midi": 47,
      "hit": false,
      "t": 478260.20000000263,
      "d": 498.1877083334257,
      "v": 98
    },
    {
      "midi": 68,
      "hit": false,
      "t": 478912.3730000027,
      "d": 108.69549999997253,
      "v": 102
    },
    {
      "midi": 60,
      "hit": false,
      "t": 479129.76400000264,
      "d": 326.0864999999758,
      "v": 95
    },
    {
      "midi": 63,
      "hit": false,
      "t": 479129.76400000264,
      "d": 326.0864999999758,
      "v": 90
    },
    {
      "midi": 67,
      "hit": false,
      "t": 479129.76400000264,
      "d": 335.1444583333214,
      "v": 99
    },
    {
      "midi": 48,
      "hit": false,
      "t": 479129.76400000264,
      "d": 452.8979166666395,
      "v": 106
    },
    {
      "midi": 62,
      "hit": false,
      "t": 479999.3280000026,
      "d": 298.9126249999972,
      "v": 102
    },
    {
      "midi": 65,
      "hit": false,
      "t": 479999.3280000026,
      "d": 298.9126249999972,
      "v": 98
    },
    {
      "midi": 70,
      "hit": false,
      "t": 479999.3280000026,
      "d": 353.2603750000126,
      "v": 96
    },
    {
      "midi": 46,
      "hit": false,
      "t": 479999.3280000026,
      "d": 715.5787083333707,
      "v": 98
    },
    {
      "midi": 34,
      "hit": false,
      "t": 479999.3280000026,
      "d": 797.1003333333647,
      "v": 92
    },
    {
      "midi": 67,
      "hit": false,
      "t": 480868.8920000026,
      "d": 271.7387500000186,
      "v": 108
    },
    {
      "midi": 63,
      "hit": false,
      "t": 480868.8920000026,
      "d": 280.7967083333642,
      "v": 92
    },
    {
      "midi": 70,
      "hit": false,
      "t": 480868.8920000026,
      "d": 280.7967083333642,
      "v": 95
    },
    {
      "midi": 51,
      "hit": false,
      "t": 480868.8920000026,
      "d": 715.5787083333707,
      "v": 106
    },
    {
      "midi": 39,
      "hit": false,
      "t": 480868.8920000026,
      "d": 788.0423750000191,
      "v": 104
    },
    {
      "midi": 62,
      "hit": false,
      "t": 481738.4560000026,
      "d": 235.50691666669445,
      "v": 86
    },
    {
      "midi": 74,
      "hit": false,
      "t": 481738.4560000026,
      "d": 362.31833333335817,
      "v": 100
    },
    {
      "midi": 66,
      "hit": false,
      "t": 481738.4560000026,
      "d": 389.49220833333675,
      "v": 92
    },
    {
      "midi": 69,
      "hit": false,
      "t": 481738.4560000026,
      "d": 407.60812500002794,
      "v": 105
    },
    {
      "midi": 38,
      "hit": false,
      "t": 481738.4560000026,
      "d": 679.3468749999884,
      "v": 105
    },
    {
      "midi": 50,
      "hit": false,
      "t": 481738.4560000026,
      "d": 688.404833333334,
      "v": 106
    },
    {
      "midi": 62,
      "hit": false,
      "t": 482173.23800000263,
      "d": 45.28979166666977,
      "v": 93
    },
    {
      "midi": 69,
      "hit": false,
      "t": 482608.02000000264,
      "d": 271.7387500000186,
      "v": 86
    },
    {
      "midi": 81,
      "hit": false,
      "t": 482608.02000000264,
      "d": 434.7820000000065,
      "v": 89
    },
    {
      "midi": 74,
      "hit": false,
      "t": 482608.02000000264,
      "d": 443.8399583333521,
      "v": 98
    },
    {
      "midi": 78,
      "hit": false,
      "t": 482608.02000000264,
      "d": 443.8399583333521,
      "v": 92
    },
    {
      "midi": 69,
      "hit": false,
      "t": 483042.80200000264,
      "d": 54.34775000001537,
      "v": 86
    },
    {
      "midi": 62,
      "hit": false,
      "t": 483477.58400000265,
      "d": 271.7387499999604,
      "v": 99
    },
    {
      "midi": 70,
      "hit": false,
      "t": 483477.58400000265,
      "d": 425.7240416666027,
      "v": 98
    },
    {
      "midi": 67,
      "hit": false,
      "t": 483477.58400000265,
      "d": 452.8979166666395,
      "v": 99
    },
    {
      "midi": 55,
      "hit": false,
      "t": 483477.58400000265,
      "d": 1385.8676250000135,
      "v": 110
    },
    {
      "midi": 43,
      "hit": false,
      "t": 483477.58400000265,
      "d": 1394.925583333359,
      "v": 100
    },
    {
      "midi": 62,
      "hit": false,
      "t": 483912.3660000026,
      "d": 126.81141666666372,
      "v": 96
    },
    {
      "midi": 74,
      "hit": false,
      "t": 484347.1480000026,
      "d": 253.62283333332743,
      "v": 98
    },
    {
      "midi": 70,
      "hit": false,
      "t": 484347.1480000026,
      "d": 398.55016666668234,
      "v": 84
    },
    {
      "midi": 67,
      "hit": false,
      "t": 484347.1480000026,
      "d": 407.60812500002794,
      "v": 99
    },
    {
      "midi": 62,
      "hit": false,
      "t": 484781.9300000026,
      "d": 63.40570833336096,
      "v": 96
    },
    {
      "midi": 60,
      "hit": false,
      "t": 485216.7120000027,
      "d": 307.9705833333428,
      "v": 89
    },
    {
      "midi": 68,
      "hit": false,
      "t": 485216.7120000027,
      "d": 416.6660833333153,
      "v": 78
    },
    {
      "midi": 63,
      "hit": false,
      "t": 485216.7120000027,
      "d": 425.7240416666609,
      "v": 86
    },
    {
      "midi": 44,
      "hit": false,
      "t": 485216.7120000027,
      "d": 1521.7370000000228,
      "v": 76
    },
    {
      "midi": 56,
      "hit": false,
      "t": 485216.7120000027,
      "d": 1521.7370000000228,
      "v": 88
    },
    {
      "midi": 60,
      "hit": false,
      "t": 485651.4940000027,
      "d": 425.7240416666609,
      "v": 82
    },
    {
      "midi": 68,
      "hit": false,
      "t": 486086.2760000027,
      "d": 389.49220833333675,
      "v": 91
    },
    {
      "midi": 63,
      "hit": false,
      "t": 486521.0580000027,
      "d": 63.40570833336096,
      "v": 83
    },
    {
      "midi": 63,
      "hit": false,
      "t": 486955.8400000027,
      "d": 244.56487499998184,
      "v": 83
    },
    {
      "midi": 70,
      "hit": false,
      "t": 486955.8400000027,
      "d": 398.55016666662414,
      "v": 79
    },
    {
      "midi": 67,
      "hit": false,
      "t": 486955.8400000027,
      "d": 425.7240416666027,
      "v": 91
    },
    {
      "midi": 39,
      "hit": false,
      "t": 486955.8400000027,
      "d": 1349.6357916666311,
      "v": 73
    },
    {
      "midi": 51,
      "hit": false,
      "t": 486955.8400000027,
      "d": 1394.925583333301,
      "v": 86
    },
    {
      "midi": 63,
      "hit": false,
      "t": 487390.62200000265,
      "d": 452.8979166666977,
      "v": 81
    },
    {
      "midi": 75,
      "hit": false,
      "t": 487825.40400000266,
      "d": 434.7820000000065,
      "v": 83
    },
    {
      "midi": 63,
      "hit": false,
      "t": 488260.18600000266,
      "d": 81.52162499999395,
      "v": 86
    },
    {
      "midi": 60,
      "hit": false,
      "t": 488694.9680000027,
      "d": 307.9705833333428,
      "v": 80
    },
    {
      "midi": 63,
      "hit": false,
      "t": 488694.9680000027,
      "d": 425.7240416666609,
      "v": 83
    },
    {
      "midi": 67,
      "hit": false,
      "t": 488694.9680000027,
      "d": 425.7240416666609,
      "v": 93
    },
    {
      "midi": 48,
      "hit": false,
      "t": 488694.9680000027,
      "d": 1621.3745416666497,
      "v": 83
    },
    {
      "midi": 36,
      "hit": false,
      "t": 488694.9680000027,
      "d": 1657.606374999974,
      "v": 75
    },
    {
      "midi": 60,
      "hit": false,
      "t": 489129.7500000027,
      "d": 461.9558749999851,
      "v": 89
    },
    {
      "midi": 67,
      "hit": false,
      "t": 489564.5320000027,
      "d": 407.60812499996973,
      "v": 98
    },
    {
      "midi": 63,
      "hit": false,
      "t": 489564.5320000027,
      "d": 416.6660833333153,
      "v": 95
    },
    {
      "midi": 60,
      "hit": false,
      "t": 489999.3140000027,
      "d": 72.46366666664835,
      "v": 99
    },
    {
      "midi": 62,
      "hit": false,
      "t": 490434.09600000264,
      "d": 407.60812500002794,
      "v": 105
    },
    {
      "midi": 58,
      "hit": false,
      "t": 490434.09600000264,
      "d": 443.8399583333521,
      "v": 91
    },
    {
      "midi": 43,
      "hit": false,
      "t": 490434.09600000264,
      "d": 1259.056208333408,
      "v": 95
    },
    {
      "midi": 31,
      "hit": false,
      "t": 490434.09600000264,
      "d": 1304.3460000000778,
      "v": 98
    },
    {
      "midi": 55,
      "hit": false,
      "t": 490868.87800000265,
      "d": 443.8399583333521,
      "v": 96
    },
    {
      "midi": 67,
      "hit": false,
      "t": 491303.66000000265,
      "d": 326.086500000034,
      "v": 91
    },
    {
      "midi": 55,
      "hit": false,
      "t": 491738.4420000027,
      "d": 208.33304166665766,
      "v": 83
    },
    {
      "midi": 63,
      "hit": false,
      "t": 492173.22400000266,
      "d": 407.60812499996973,
      "v": 85
    },
    {
      "midi": 67,
      "hit": false,
      "t": 492173.22400000266,
      "d": 434.7819999999483,
      "v": 93
    },
    {
      "midi": 36,
      "hit": false,
      "t": 492173.22400000266,
      "d": 1557.968833333347,
      "v": 86
    },
    {
      "midi": 48,
      "hit": false,
      "t": 492173.22400000266,
      "d": 1576.0847500000382,
      "v": 91
    },
    {
      "midi": 60,
      "hit": false,
      "t": 492608.0060000026,
      "d": 461.9558749999851,
      "v": 85
    },
    {
      "midi": 63,
      "hit": false,
      "t": 493042.7880000026,
      "d": 489.1297500000219,
      "v": 100
    },
    {
      "midi": 67,
      "hit": false,
      "t": 493477.5700000026,
      "d": 63.40570833336096,
      "v": 109
    },
    {
      "midi": 62,
      "hit": false,
      "t": 493912.3520000027,
      "d": 371.37629166664556,
      "v": 99
    },
    {
      "midi": 58,
      "hit": false,
      "t": 493912.3520000027,
      "d": 389.49220833333675,
      "v": 86
    },
    {
      "midi": 43,
      "hit": false,
      "t": 493912.3520000027,
      "d": 624.9991250000312,
      "v": 88
    },
    {
      "midi": 31,
      "hit": false,
      "t": 493912.3520000027,
      "d": 643.1150416667224,
      "v": 88
    },
    {
      "midi": 55,
      "hit": false,
      "t": 494347.1340000027,
      "d": 471.0138333333889,
      "v": 93
    },
    {
      "midi": 58,
      "hit": false,
      "t": 494781.91600000276,
      "d": 371.37629166664556,
      "v": 92
    },
    {
      "midi": 62,
      "hit": false,
      "t": 495216.69800000277,
      "d": 63.40570833336096,
      "v": 94
    },
    {
      "midi": 36,
      "hit": false,
      "t": 495597.1322500028,
      "d": 1231.8823333333712,
      "v": 82
    },
    {
      "midi": 48,
      "hit": false,
      "t": 495624.3061250028,
      "d": 1114.128875000053,
      "v": 77
    },
    {
      "midi": 60,
      "hit": false,
      "t": 495642.4220416695,
      "d": 217.39100000000326,
      "v": 79
    },
    {
      "midi": 63,
      "hit": false,
      "t": 495660.5379583362,
      "d": 416.6660833333153,
      "v": 92
    },
    {
      "midi": 67,
      "hit": false,
      "t": 495687.71183333616,
      "d": 371.37629166664556,
      "v": 113
    },
    {
      "midi": 60,
      "hit": false,
      "t": 496086.26200000284,
      "d": 824.2742083333433,
      "v": 97
    },
    {
      "midi": 63,
      "hit": false,
      "t": 496521.04400000285,
      "d": 434.7820000000065,
      "v": 116
    },
    {
      "midi": 67,
      "hit": false,
      "t": 496955.82600000285,
      "d": 99.63754166668514,
      "v": 116
    },
    {
      "midi": 32,
      "hit": false,
      "t": 497309.08637500287,
      "d": 733.6946250000037,
      "v": 81
    },
    {
      "midi": 44,
      "hit": false,
      "t": 497336.26025000284,
      "d": 742.7525833333493,
      "v": 56
    },
    {
      "midi": 56,
      "hit": false,
      "t": 497363.4341250028,
      "d": 670.288916666701,
      "v": 60
    },
    {
      "midi": 59,
      "hit": false,
      "t": 497381.5500416695,
      "d": 652.1730000000098,
      "v": 95
    },
    {
      "midi": 63,
      "hit": false,
      "t": 497426.8398333362,
      "d": 615.9411666666856,
      "v": 99
    },
    {
      "midi": 34,
      "hit": false,
      "t": 499066.3302916695,
      "d": 3360.502541666676,
      "v": 76
    },
    {
      "midi": 46,
      "hit": false,
      "t": 499102.56212500285,
      "d": 3414.850291666691,
      "v": 72
    },
    {
      "midi": 56,
      "hit": false,
      "t": 499120.67804166954,
      "d": 1739.1279999999679,
      "v": 77
    },
    {
      "midi": 60,
      "hit": false,
      "t": 499147.8519166695,
      "d": 1594.2006666666712,
      "v": 95
    },
    {
      "midi": 63,
      "hit": false,
      "t": 499184.08375000284,
      "d": 2862.3148333333666,
      "v": 109
    },
    {
      "midi": 56,
      "hit": false,
      "t": 500868.86400000285,
      "d": 1621.374541666708,
      "v": 53
    },
    {
      "midi": 60,
      "hit": false,
      "t": 500868.86400000285,
      "d": 1657.6063750000321,
      "v": 67
    },
    {
      "midi": 63,
      "hit": false,
      "t": 502607.9920000029,
      "d": 253.62283333332743,
      "v": 69
    },
    {
      "midi": 67,
      "hit": false,
      "t": 502607.9920000029,
      "d": 425.7240416666609,
      "v": 87
    },
    {
      "midi": 39,
      "hit": false,
      "t": 502607.9920000029,
      "d": 3070.647875000024,
      "v": 79
    },
    {
      "midi": 51,
      "hit": false,
      "t": 502607.9920000029,
      "d": 3088.7637916667154,
      "v": 70
    },
    {
      "midi": 63,
      "hit": false,
      "t": 503042.7740000029,
      "d": 597.8252499999944,
      "v": 92
    },
    {
      "midi": 67,
      "hit": false,
      "t": 503477.5560000029,
      "d": 425.7240416666609,
      "v": 105
    },
    {
      "midi": 70,
      "hit": false,
      "t": 503912.3380000029,
      "d": 335.1444583333214,
      "v": 102
    },
    {
      "midi": 68,
      "hit": false,
      "t": 504347.1200000029,
      "d": 371.37629166664556,
      "v": 91
    },
    {
      "midi": 63,
      "hit": false,
      "t": 504347.1200000029,
      "d": 407.60812499996973,
      "v": 78
    },
    {
      "midi": 72,
      "hit": false,
      "t": 504347.1200000029,
      "d": 443.8399583332939,
      "v": 98
    },
    {
      "midi": 74,
      "hit": false,
      "t": 504781.90200000285,
      "d": 362.31833333335817,
      "v": 105
    },
    {
      "midi": 68,
      "hit": false,
      "t": 505216.68400000286,
      "d": 425.7240416666609,
      "v": 95
    },
    {
      "midi": 63,
      "hit": false,
      "t": 505216.68400000286,
      "d": 434.7820000000065,
      "v": 92
    },
    {
      "midi": 72,
      "hit": false,
      "t": 505216.68400000286,
      "d": 443.8399583333521,
      "v": 102
    },
    {
      "midi": 74,
      "hit": false,
      "t": 505651.46600000287,
      "d": 208.33304166671587,
      "v": 98
    },
    {
      "midi": 63,
      "hit": false,
      "t": 506086.24800000293,
      "d": 271.7387500000186,
      "v": 73
    },
    {
      "midi": 70,
      "hit": false,
      "t": 506086.24800000293,
      "d": 452.8979166666977,
      "v": 68
    },
    {
      "midi": 67,
      "hit": false,
      "t": 506086.24800000293,
      "d": 461.9558750000433,
      "v": 78
    },
    {
      "midi": 39,
      "hit": false,
      "t": 506086.24800000293,
      "d": 2880.430750000174,
      "v": 82
    },
    {
      "midi": 51,
      "hit": false,
      "t": 506086.24800000293,
      "d": 2880.430750000174,
      "v": 70
    },
    {
      "midi": 63,
      "hit": false,
      "t": 506521.03000000294,
      "d": 842.3901250000927,
      "v": 87
    },
    {
      "midi": 67,
      "hit": false,
      "t": 506955.812000003,
      "d": 416.66608333337354,
      "v": 104
    },
    {
      "midi": 70,
      "hit": false,
      "t": 507390.59400000307,
      "d": 81.52162499999395,
      "v": 104
    },
    {
      "midi": 66,
      "hit": false,
      "t": 507825.3760000031,
      "d": 416.6660833333153,
      "v": 94
    },
    {
      "midi": 69,
      "hit": false,
      "t": 507825.3760000031,
      "d": 416.6660833333153,
      "v": 106
    },
    {
      "midi": 72,
      "hit": false,
      "t": 507825.3760000031,
      "d": 425.7240416666609,
      "v": 109
    },
    {
      "midi": 74,
      "hit": false,
      "t": 508260.1580000031,
      "d": 380.43424999999115,
      "v": 98
    },
    {
      "midi": 72,
      "hit": false,
      "t": 508694.9400000031,
      "d": 344.202416666667,
      "v": 109
    },
    {
      "midi": 69,
      "hit": false,
      "t": 508694.9400000031,
      "d": 434.7820000000065,
      "v": 107
    },
    {
      "midi": 66,
      "hit": false,
      "t": 508694.9400000031,
      "d": 443.8399583333521,
      "v": 97
    },
    {
      "midi": 74,
      "hit": false,
      "t": 509129.7220000031,
      "d": 99.63754166668514,
      "v": 110
    },
    {
      "midi": 38,
      "hit": false,
      "t": 509519.21420833643,
      "d": 1295.2880416667322,
      "v": 93
    },
    {
      "midi": 50,
      "hit": false,
      "t": 509537.3301250031,
      "d": 1231.8823333333712,
      "v": 87
    },
    {
      "midi": 62,
      "hit": false,
      "t": 509555.4460416698,
      "d": 389.49220833333675,
      "v": 85
    },
    {
      "midi": 65,
      "hit": false,
      "t": 509573.5619583365,
      "d": 507.24566666665487,
      "v": 98
    },
    {
      "midi": 70,
      "hit": false,
      "t": 509618.8517500032,
      "d": 461.9558749999851,
      "v": 98
    },
    {
      "midi": 62,
      "hit": false,
      "t": 509999.28600000317,
      "d": 869.564000000013,
      "v": 101
    },
    {
      "midi": 65,
      "hit": false,
      "t": 510434.0680000032,
      "d": 471.0138333333307,
      "v": 116
    },
    {
      "midi": 70,
      "hit": false,
      "t": 510868.8500000032,
      "d": 226.44895833334886,
      "v": 96
    },
    {
      "midi": 37,
      "hit": false,
      "t": 511231.16833333654,
      "d": 1358.6937500000931,
      "v": 86
    },
    {
      "midi": 49,
      "hit": false,
      "t": 511285.51608333655,
      "d": 1349.6357916667475,
      "v": 71
    },
    {
      "midi": 70,
      "hit": false,
      "t": 511303.63200000324,
      "d": 434.7820000000065,
      "v": 99
    },
    {
      "midi": 61,
      "hit": false,
      "t": 511303.63200000324,
      "d": 489.1297500000219,
      "v": 81
    },
    {
      "midi": 65,
      "hit": false,
      "t": 511303.63200000324,
      "d": 489.1297500000219,
      "v": 98
    },
    {
      "midi": 72,
      "hit": false,
      "t": 511738.41400000325,
      "d": 416.66608333337354,
      "v": 87
    },
    {
      "midi": 70,
      "hit": false,
      "t": 512173.1960000033,
      "d": 425.7240416666609,
      "v": 93
    },
    {
      "midi": 61,
      "hit": false,
      "t": 512173.1960000033,
      "d": 461.9558749999851,
      "v": 78
    },
    {
      "midi": 65,
      "hit": false,
      "t": 512173.1960000033,
      "d": 498.1877083333093,
      "v": 87
    },
    {
      "midi": 72,
      "hit": false,
      "t": 512607.9780000033,
      "d": 135.8693749999511,
      "v": 98
    },
    {
      "midi": 36,
      "hit": false,
      "t": 513006.52816666994,
      "d": 5072.4566666667815,
      "v": 84
    },
    {
      "midi": 48,
      "hit": false,
      "t": 513015.5861250033,
      "d": 5072.4566666667815,
      "v": 85
    },
    {
      "midi": 60,
      "hit": false,
      "t": 513033.70204167,
      "d": 362.31833333335817,
      "v": 71
    },
    {
      "midi": 64,
      "hit": false,
      "t": 513042.7600000033,
      "d": 525.3615833333461,
      "v": 81
    },
    {
      "midi": 67,
      "hit": false,
      "t": 513051.8179583367,
      "d": 443.8399583333521,
      "v": 91
    },
    {
      "midi": 60,
      "hit": false,
      "t": 513477.54200000333,
      "d": 851.4480833333218,
      "v": 93
    },
    {
      "midi": 64,
      "hit": false,
      "t": 513912.32400000334,
      "d": 416.6660833333153,
      "v": 105
    },
    {
      "midi": 67,
      "hit": false,
      "t": 514347.10600000335,
      "d": 108.69549999997253,
      "v": 114
    },
    {
      "midi": 70,
      "hit": false,
      "t": 514781.8880000033,
      "d": 443.8399583333521,
      "v": 103
    },
    {
      "midi": 64,
      "hit": false,
      "t": 514781.8880000033,
      "d": 1123.1868333333987,
      "v": 70
    },
    {
      "midi": 61,
      "hit": false,
      "t": 514781.8880000033,
      "d": 1222.8243750000838,
      "v": 101
    },
    {
      "midi": 68,
      "hit": false,
      "t": 515216.6700000033,
      "d": 199.27508333337028,
      "v": 109
    },
    {
      "midi": 68,
      "hit": false,
      "t": 515651.45200000337,
      "d": 226.44895833334886,
      "v": 100
    },
    {
      "midi": 67,
      "hit": false,
      "t": 516086.2340000034,
      "d": 253.62283333332743,
      "v": 70
    },
    {
      "midi": 64,
      "hit": false,
      "t": 516521.0160000034,
      "d": 226.44895833334886,
      "v": 74
    },
    {
      "midi": 60,
      "hit": false,
      "t": 516521.0160000034,
      "d": 516.3036250000005,
      "v": 73
    },
    {
      "midi": 67,
      "hit": false,
      "t": 516521.0160000034,
      "d": 688.404833333334,
      "v": 72
    },
    {
      "midi": 64,
      "hit": false,
      "t": 516955.7980000034,
      "d": 434.7820000000065,
      "v": 90
    },
    {
      "midi": 60,
      "hit": false,
      "t": 517390.5800000034,
      "d": 471.0138333333307,
      "v": 95
    },
    {
      "midi": 58,
      "hit": false,
      "t": 517825.3620000034,
      "d": 99.63754166668514,
      "v": 86
    },
    {
      "midi": 41,
      "hit": false,
      "t": 518205.7962500034,
      "d": 5217.384000000136,
      "v": 85
    },
    {
      "midi": 57,
      "hit": false,
      "t": 518287.3178750034,
      "d": 5217.384000000195,
      "v": 81
    },
    {
      "midi": 65,
      "hit": false,
      "t": 518296.37583333673,
      "d": 1268.1141666666954,
      "v": 89
    },
    {
      "midi": 60,
      "hit": false,
      "t": 518296.37583333673,
      "d": 5172.094208333467,
      "v": 83
    },
    {
      "midi": 69,
      "hit": false,
      "t": 518694.9260000034,
      "d": 2173.9100000000326,
      "v": 66
    },
    {
      "midi": 77,
      "hit": false,
      "t": 519129.7080000034,
      "d": 1304.3460000000196,
      "v": 90
    },
    {
      "midi": 65,
      "hit": false,
      "t": 519564.4900000034,
      "d": 3913.038000000117,
      "v": 45
    },
    {
      "midi": 70,
      "hit": false,
      "t": 519999.27200000343,
      "d": 2608.692000000039,
      "v": 60
    },
    {
      "midi": 74,
      "hit": false,
      "t": 519999.27200000343,
      "d": 3478.2560000001104,
      "v": 83
    },
    {
      "midi": 77,
      "hit": false,
      "t": 520434.05400000344,
      "d": 869.564000000013,
      "v": 82
    },
    {
      "midi": 69,
      "hit": false,
      "t": 520868.83600000344,
      "d": 2608.6920000000973,
      "v": 70
    },
    {
      "midi": 72,
      "hit": false,
      "t": 520868.83600000344,
      "d": 2608.6920000000973,
      "v": 77
    },
    {
      "midi": 77,
      "hit": false,
      "t": 521303.61800000345,
      "d": 869.564000000013,
      "v": 73
    },
    {
      "midi": 68,
      "hit": false,
      "t": 521738.40000000346,
      "d": 1739.1280000000843,
      "v": 64
    },
    {
      "midi": 71,
      "hit": false,
      "t": 521738.40000000346,
      "d": 1739.1280000000843,
      "v": 86
    },
    {
      "midi": 77,
      "hit": false,
      "t": 522173.18200000346,
      "d": 652.1730000000098,
      "v": 83
    },
    {
      "midi": 67,
      "hit": false,
      "t": 522607.96400000347,
      "d": 869.5640000000712,
      "v": 77
    },
    {
      "midi": 70,
      "hit": false,
      "t": 522607.96400000347,
      "d": 869.5640000000712,
      "v": 61
    },
    {
      "midi": 77,
      "hit": false,
      "t": 522970.2823333368,
      "d": 434.7820000000065,
      "v": 73
    },
    {
      "midi": 53,
      "hit": false,
      "t": 523477.52800000354,
      "d": 751.8105416667531,
      "v": 61
    },
    {
      "midi": 60,
      "hit": false,
      "t": 523495.64391667023,
      "d": 597.8252500000526,
      "v": 46
    },
    {
      "midi": 57,
      "hit": false,
      "t": 523522.81779167027,
      "d": 697.4627916666795,
      "v": 45
    },
    {
      "midi": 41,
      "hit": false,
      "t": 523540.93370833696,
      "d": 778.9844166666153,
      "v": 42
    }
  ]
}