{
  "jsonPath": "Animes/Hamtaro MIDI Collection/japenese-opening.json",
  "path": "Animes\\Hamtaro MIDI Collection\\Japenese Opening.mid",
  "name": "Japenese Opening",
  "difficulty": "Advanced",
  "bpm": 140.00014000014,
  "notes": [
    {
      "midi": 45,
      "hit": false,
      "t": 0,
      "d": 1457.1414000000002,
      "v": 100
    },
    {
      "midi": 45,
      "hit": false,
      "t": 0,
      "d": 1457.1414000000002,
      "v": 100
    },
    {
      "midi": 45,
      "hit": false,
      "t": 1499.9985000000001,
      "d": 85.71419999999989,
      "v": 100
    },
    {
      "midi": 45,
      "hit": false,
      "t": 1499.9985000000001,
      "d": 85.71419999999989,
      "v": 100
    },
    {
      "midi": 45,
      "hit": false,
      "t": 1607.1412500000001,
      "d": 85.71419999999989,
      "v": 100
    },
    {
      "midi": 45,
      "hit": false,
      "t": 1607.1412500000001,
      "d": 85.71419999999989,
      "v": 100
    },
    {
      "midi": 50,
      "hit": false,
      "t": 1714.284,
      "d": 342.8568,
      "v": 100
    },
    {
      "midi": 50,
      "hit": false,
      "t": 1714.284,
      "d": 342.8568,
      "v": 100
    },
    {
      "midi": 69,
      "hit": false,
      "t": 1928.5695000000003,
      "d": 85.71420000000012,
      "v": 95
    },
    {
      "midi": 74,
      "hit": false,
      "t": 1928.5695000000003,
      "d": 85.71420000000012,
      "v": 95
    },
    {
      "midi": 78,
      "hit": false,
      "t": 1928.5695000000003,
      "d": 85.71420000000012,
      "v": 95
    },
    {
      "midi": 69,
      "hit": false,
      "t": 1928.5695000000003,
      "d": 85.71420000000012,
      "v": 95
    },
    {
      "midi": 74,
      "hit": false,
      "t": 1928.5695000000003,
      "d": 85.71420000000012,
      "v": 95
    },
    {
      "midi": 78,
      "hit": false,
      "t": 1928.5695000000003,
      "d": 85.71420000000012,
      "v": 95
    },
    {
      "midi": 69,
      "hit": false,
      "t": 2035.7122500000005,
      "d": 192.85694999999987,
      "v": 95
    },
    {
      "midi": 74,
      "hit": false,
      "t": 2035.7122500000005,
      "d": 192.85694999999987,
      "v": 95
    },
    {
      "midi": 78,
      "hit": false,
      "t": 2035.7122500000005,
      "d": 192.85694999999987,
      "v": 95
    },
    {
      "midi": 69,
      "hit": false,
      "t": 2035.7122500000005,
      "d": 192.85694999999987,
      "v": 95
    },
    {
      "midi": 74,
      "hit": false,
      "t": 2035.7122500000005,
      "d": 192.85694999999987,
      "v": 95
    },
    {
      "midi": 78,
      "hit": false,
      "t": 2035.7122500000005,
      "d": 192.85694999999987,
      "v": 95
    },
    {
      "midi": 50,
      "hit": false,
      "t": 2142.855,
      "d": 342.8568,
      "v": 100
    },
    {
      "midi": 50,
      "hit": false,
      "t": 2142.855,
      "d": 342.8568,
      "v": 100
    },
    {
      "midi": 69,
      "hit": false,
      "t": 2249.9977500000005,
      "d": 85.71419999999989,
      "v": 95
    },
    {
      "midi": 74,
      "hit": false,
      "t": 2249.9977500000005,
      "d": 85.71419999999989,
      "v": 95
    },
    {
      "midi": 78,
      "hit": false,
      "t": 2249.9977500000005,
      "d": 85.71419999999989,
      "v": 95
    },
    {
      "midi": 69,
      "hit": false,
      "t": 2249.9977500000005,
      "d": 85.71419999999989,
      "v": 95
    },
    {
      "midi": 74,
      "hit": false,
      "t": 2249.9977500000005,
      "d": 85.71419999999989,
      "v": 95
    },
    {
      "midi": 78,
      "hit": false,
      "t": 2249.9977500000005,
      "d": 85.71419999999989,
      "v": 95
    },
    {
      "midi": 69,
      "hit": false,
      "t": 2357.1405000000004,
      "d": 171.42839999999978,
      "v": 95
    },
    {
      "midi": 74,
      "hit": false,
      "t": 2357.1405000000004,
      "d": 171.42839999999978,
      "v": 95
    },
    {
      "midi": 78,
      "hit": false,
      "t": 2357.1405000000004,
      "d": 171.42839999999978,
      "v": 95
    },
    {
      "midi": 69,
      "hit": false,
      "t": 2357.1405000000004,
      "d": 171.42839999999978,
      "v": 95
    },
    {
      "midi": 74,
      "hit": false,
      "t": 2357.1405000000004,
      "d": 171.42839999999978,
      "v": 95
    },
    {
      "midi": 78,
      "hit": false,
      "t": 2357.1405000000004,
      "d": 171.42839999999978,
      "v": 95
    },
    {
      "midi": 50,
      "hit": false,
      "t": 2571.426,
      "d": 342.8568,
      "v": 100
    },
    {
      "midi": 50,
      "hit": false,
      "t": 2571.426,
      "d": 342.8568,
      "v": 100
    },
    {
      "midi": 69,
      "hit": false,
      "t": 2571.4260000000004,
      "d": 171.42839999999978,
      "v": 95
    },
    {
      "midi": 74,
      "hit": false,
      "t": 2571.4260000000004,
      "d": 171.42839999999978,
      "v": 95
    },
    {
      "midi": 79,
      "hit": false,
      "t": 2571.4260000000004,
      "d": 171.42839999999978,
      "v": 95
    },
    {
      "midi": 69,
      "hit": false,
      "t": 2571.4260000000004,
      "d": 171.42839999999978,
      "v": 95
    },
    {
      "midi": 74,
      "hit": false,
      "t": 2571.4260000000004,
      "d": 171.42839999999978,
      "v": 95
    },
    {
      "midi": 79,
      "hit": false,
      "t": 2571.4260000000004,
      "d": 171.42839999999978,
      "v": 95
    },
    {
      "midi": 69,
      "hit": false,
      "t": 2785.7115000000003,
      "d": 171.42839999999978,
      "v": 95
    },
    {
      "midi": 74,
      "hit": false,
      "t": 2785.7115000000003,
      "d": 171.42839999999978,
      "v": 95
    },
    {
      "midi": 78,
      "hit": false,
      "t": 2785.7115000000003,
      "d": 171.42839999999978,
      "v": 95
    },
    {
      "midi": 69,
      "hit": false,
      "t": 2785.7115000000003,
      "d": 171.42839999999978,
      "v": 95
    },
    {
      "midi": 74,
      "hit": false,
      "t": 2785.7115000000003,
      "d": 171.42839999999978,
      "v": 95
    },
    {
      "midi": 78,
      "hit": false,
      "t": 2785.7115000000003,
      "d": 171.42839999999978,
      "v": 95
    },
    {
      "midi": 50,
      "hit": false,
      "t": 2999.997,
      "d": 342.8568,
      "v": 100
    },
    {
      "midi": 50,
      "hit": false,
      "t": 2999.997,
      "d": 342.8568,
      "v": 100
    },
    {
      "midi": 50,
      "hit": false,
      "t": 3428.5679999999998,
      "d": 342.8568,
      "v": 100
    },
    {
      "midi": 50,
      "hit": false,
      "t": 3428.5679999999998,
      "d": 342.8568,
      "v": 100
    },
    {
      "midi": 69,
      "hit": false,
      "t": 3642.8535,
      "d": 85.71419999999989,
      "v": 95
    },
    {
      "midi": 74,
      "hit": false,
      "t": 3642.8535,
      "d": 85.71419999999989,
      "v": 95
    },
    {
      "midi": 78,
      "hit": false,
      "t": 3642.8535,
      "d": 85.71419999999989,
      "v": 95
    },
    {
      "midi": 69,
      "hit": false,
      "t": 3642.8535,
      "d": 85.71419999999989,
      "v": 95
    },
    {
      "midi": 74,
      "hit": false,
      "t": 3642.8535,
      "d": 85.71419999999989,
      "v": 95
    },
    {
      "midi": 78,
      "hit": false,
      "t": 3642.8535,
      "d": 85.71419999999989,
      "v": 95
    },
    {
      "midi": 69,
      "hit": false,
      "t": 3749.99625,
      "d": 192.85694999999987,
      "v": 95
    },
    {
      "midi": 74,
      "hit": false,
      "t": 3749.99625,
      "d": 192.85694999999987,
      "v": 95
    },
    {
      "midi": 78,
      "hit": false,
      "t": 3749.99625,
      "d": 192.85694999999987,
      "v": 95
    },
    {
      "midi": 69,
      "hit": false,
      "t": 3749.99625,
      "d": 192.85694999999987,
      "v": 95
    },
    {
      "midi": 74,
      "hit": false,
      "t": 3749.99625,
      "d": 192.85694999999987,
      "v": 95
    },
    {
      "midi": 78,
      "hit": false,
      "t": 3749.99625,
      "d": 192.85694999999987,
      "v": 95
    },
    {
      "midi": 50,
      "hit": false,
      "t": 3857.1389999999997,
      "d": 342.8568,
      "v": 100
    },
    {
      "midi": 50,
      "hit": false,
      "t": 3857.1389999999997,
      "d": 342.8568,
      "v": 100
    },
    {
      "midi": 69,
      "hit": false,
      "t": 3964.28175,
      "d": 85.71419999999989,
      "v": 95
    },
    {
      "midi": 74,
      "hit": false,
      "t": 3964.28175,
      "d": 85.71419999999989,
      "v": 95
    },
    {
      "midi": 78,
      "hit": false,
      "t": 3964.28175,
      "d": 85.71419999999989,
      "v": 95
    },
    {
      "midi": 69,
      "hit": false,
      "t": 3964.28175,
      "d": 85.71419999999989,
      "v": 95
    },
    {
      "midi": 74,
      "hit": false,
      "t": 3964.28175,
      "d": 85.71419999999989,
      "v": 95
    },
    {
      "midi": 78,
      "hit": false,
      "t": 3964.28175,
      "d": 85.71419999999989,
      "v": 95
    },
    {
      "midi": 69,
      "hit": false,
      "t": 4071.4245,
      "d": 171.42839999999978,
      "v": 95
    },
    {
      "midi": 74,
      "hit": false,
      "t": 4071.4245,
      "d": 171.42839999999978,
      "v": 95
    },
    {
      "midi": 78,
      "hit": false,
      "t": 4071.4245,
      "d": 171.42839999999978,
      "v": 95
    },
    {
      "midi": 69,
      "hit": false,
      "t": 4071.4245,
      "d": 171.42839999999978,
      "v": 95
    },
    {
      "midi": 74,
      "hit": false,
      "t": 4071.4245,
      "d": 171.42839999999978,
      "v": 95
    },
    {
      "midi": 78,
      "hit": false,
      "t": 4071.4245,
      "d": 171.42839999999978,
      "v": 95
    },
    {
      "midi": 50,
      "hit": false,
      "t": 4285.71,
      "d": 342.8568000000005,
      "v": 100
    },
    {
      "midi": 69,
      "hit": false,
      "t": 4285.71,
      "d": 171.42839999999978,
      "v": 95
    },
    {
      "midi": 74,
      "hit": false,
      "t": 4285.71,
      "d": 171.42839999999978,
      "v": 95
    },
    {
      "midi": 79,
      "hit": false,
      "t": 4285.71,
      "d": 171.42839999999978,
      "v": 95
    },
    {
      "midi": 69,
      "hit": false,
      "t": 4285.71,
      "d": 171.42839999999978,
      "v": 95
    },
    {
      "midi": 74,
      "hit": false,
      "t": 4285.71,
      "d": 171.42839999999978,
      "v": 95
    },
    {
      "midi": 79,
      "hit": false,
      "t": 4285.71,
      "d": 171.42839999999978,
      "v": 95
    },
    {
      "midi": 50,
      "hit": false,
      "t": 4285.71,
      "d": 342.8568000000005,
      "v": 100
    },
    {
      "midi": 69,
      "hit": false,
      "t": 4499.9955,
      "d": 171.42839999999978,
      "v": 95
    },
    {
      "midi": 74,
      "hit": false,
      "t": 4499.9955,
      "d": 171.42839999999978,
      "v": 95
    },
    {
      "midi": 78,
      "hit": false,
      "t": 4499.9955,
      "d": 171.42839999999978,
      "v": 95
    },
    {
      "midi": 69,
      "hit": false,
      "t": 4499.9955,
      "d": 171.42839999999978,
      "v": 95
    },
    {
      "midi": 74,
      "hit": false,
      "t": 4499.9955,
      "d": 171.42839999999978,
      "v": 95
    },
    {
      "midi": 78,
      "hit": false,
      "t": 4499.9955,
      "d": 171.42839999999978,
      "v": 95
    },
    {
      "midi": 69,
      "hit": false,
      "t": 4714.281,
      "d": 171.42839999999978,
      "v": 95
    },
    {
      "midi": 74,
      "hit": false,
      "t": 4714.281,
      "d": 171.42839999999978,
      "v": 95
    },
    {
      "midi": 76,
      "hit": false,
      "t": 4714.281,
      "d": 171.42839999999978,
      "v": 95
    },
    {
      "midi": 69,
      "hit": false,
      "t": 4714.281,
      "d": 171.42839999999978,
      "v": 95
    },
    {
      "midi": 74,
      "hit": false,
      "t": 4714.281,
      "d": 171.42839999999978,
      "v": 95
    },
    {
      "midi": 76,
      "hit": false,
      "t": 4714.281,
      "d": 171.42839999999978,
      "v": 95
    },
    {
      "midi": 50,
      "hit": false,
      "t": 4714.281000000001,
      "d": 342.85679999999957,
      "v": 100
    },
    {
      "midi": 50,
      "hit": false,
      "t": 4714.281000000001,
      "d": 342.85679999999957,
      "v": 100
    },
    {
      "midi": 69,
      "hit": false,
      "t": 4928.5665,
      "d": 171.42839999999978,
      "v": 95
    },
    {
      "midi": 74,
      "hit": false,
      "t": 4928.5665,
      "d": 171.42839999999978,
      "v": 95
    },
    {
      "midi": 69,
      "hit": false,
      "t": 4928.5665,
      "d": 171.42839999999978,
      "v": 95
    },
    {
      "midi": 74,
      "hit": false,
      "t": 4928.5665,
      "d": 171.42839999999978,
      "v": 95
    },
    {
      "midi": 47,
      "hit": false,
      "t": 5142.852000000001,
      "d": 342.85679999999957,
      "v": 100
    },
    {
      "midi": 47,
      "hit": false,
      "t": 5142.852000000001,
      "d": 342.85679999999957,
      "v": 100
    },
    {
      "midi": 71,
      "hit": false,
      "t": 5357.1375,
      "d": 85.71420000000035,
      "v": 95
    },
    {
      "midi": 74,
      "hit": false,
      "t": 5357.1375,
      "d": 85.71420000000035,
      "v": 95
    },
    {
      "midi": 78,
      "hit": false,
      "t": 5357.1375,
      "d": 85.71420000000035,
      "v": 95
    },
    {
      "midi": 71,
      "hit": false,
      "t": 5357.1375,
      "d": 85.71420000000035,
      "v": 95
    },
    {
      "midi": 74,
      "hit": false,
      "t": 5357.1375,
      "d": 85.71420000000035,
      "v": 95
    },
    {
      "midi": 78,
      "hit": false,
      "t": 5357.1375,
      "d": 85.71420000000035,
      "v": 95
    },
    {
      "midi": 71,
      "hit": false,
      "t": 5464.28025,
      "d": 192.85695000000032,
      "v": 95
    },
    {
      "midi": 74,
      "hit": false,
      "t": 5464.28025,
      "d": 192.85695000000032,
      "v": 95
    },
    {
      "midi": 78,
      "hit": false,
      "t": 5464.28025,
      "d": 192.85695000000032,
      "v": 95
    },
    {
      "midi": 71,
      "hit": false,
      "t": 5464.28025,
      "d": 192.85695000000032,
      "v": 95
    },
    {
      "midi": 74,
      "hit": false,
      "t": 5464.28025,
      "d": 192.85695000000032,
      "v": 95
    },
    {
      "midi": 78,
      "hit": false,
      "t": 5464.28025,
      "d": 192.85695000000032,
      "v": 95
    },
    {
      "midi": 47,
      "hit": false,
      "t": 5571.423000000001,
      "d": 342.85679999999957,
      "v": 100
    },
    {
      "midi": 47,
      "hit": false,
      "t": 5571.423000000001,
      "d": 342.85679999999957,
      "v": 100
    },
    {
      "midi": 71,
      "hit": false,
      "t": 5678.56575,
      "d": 85.71420000000035,
      "v": 95
    },
    {
      "midi": 74,
      "hit": false,
      "t": 5678.56575,
      "d": 85.71420000000035,
      "v": 95
    },
    {
      "midi": 78,
      "hit": false,
      "t": 5678.56575,
      "d": 85.71420000000035,
      "v": 95
    },
    {
      "midi": 71,
      "hit": false,
      "t": 5678.56575,
      "d": 85.71420000000035,
      "v": 95
    },
    {
      "midi": 74,
      "hit": false,
      "t": 5678.56575,
      "d": 85.71420000000035,
      "v": 95
    },
    {
      "midi": 78,
      "hit": false,
      "t": 5678.56575,
      "d": 85.71420000000035,
      "v": 95
    },
    {
      "midi": 71,
      "hit": false,
      "t": 5785.7085,
      "d": 171.42839999999978,
      "v": 95
    },
    {
      "midi": 74,
      "hit": false,
      "t": 5785.7085,
      "d": 171.42839999999978,
      "v": 95
    },
    {
      "midi": 78,
      "hit": false,
      "t": 5785.7085,
      "d": 171.42839999999978,
      "v": 95
    },
    {
      "midi": 71,
      "hit": false,
      "t": 5785.7085,
      "d": 171.42839999999978,
      "v": 95
    },
    {
      "midi": 74,
      "hit": false,
      "t": 5785.7085,
      "d": 171.42839999999978,
      "v": 95
    },
    {
      "midi": 78,
      "hit": false,
      "t": 5785.7085,
      "d": 171.42839999999978,
      "v": 95
    },
    {
      "midi": 71,
      "hit": false,
      "t": 5999.994,
      "d": 171.42839999999978,
      "v": 95
    },
    {
      "midi": 74,
      "hit": false,
      "t": 5999.994,
      "d": 171.42839999999978,
      "v": 95
    },
    {
      "midi": 79,
      "hit": false,
      "t": 5999.994,
      "d": 171.42839999999978,
      "v": 95
    },
    {
      "midi": 71,
      "hit": false,
      "t": 5999.994,
      "d": 171.42839999999978,
      "v": 95
    },
    {
      "midi": 74,
      "hit": false,
      "t": 5999.994,
      "d": 171.42839999999978,
      "v": 95
    },
    {
      "midi": 79,
      "hit": false,
      "t": 5999.994,
      "d": 171.42839999999978,
      "v": 95
    },
    {
      "midi": 47,
      "hit": false,
      "t": 5999.994000000001,
      "d": 342.85679999999957,
      "v": 100
    },
    {
      "midi": 47,
      "hit": false,
      "t": 5999.994000000001,
      "d": 342.85679999999957,
      "v": 100
    },
    {
      "midi": 71,
      "hit": false,
      "t": 6214.2795,
      "d": 171.42839999999978,
      "v": 95
    },
    {
      "midi": 74,
      "hit": false,
      "t": 6214.2795,
      "d": 171.42839999999978,
      "v": 95
    },
    {
      "midi": 78,
      "hit": false,
      "t": 6214.2795,
      "d": 171.42839999999978,
      "v": 95
    },
    {
      "midi": 71,
      "hit": false,
      "t": 6214.2795,
      "d": 171.42839999999978,
      "v": 95
    },
    {
      "midi": 74,
      "hit": false,
      "t": 6214.2795,
      "d": 171.42839999999978,
      "v": 95
    },
    {
      "midi": 78,
      "hit": false,
      "t": 6214.2795,
      "d": 171.42839999999978,
      "v": 95
    },
    {
      "midi": 47,
      "hit": false,
      "t": 6428.5650000000005,
      "d": 342.85679999999957,
      "v": 100
    },
    {
      "midi": 47,
      "hit": false,
      "t": 6428.5650000000005,
      "d": 342.85679999999957,
      "v": 100
    },
    {
      "midi": 47,
      "hit": false,
      "t": 6857.136,
      "d": 342.85679999999957,
      "v": 100
    },
    {
      "midi": 47,
      "hit": false,
      "t": 6857.136,
      "d": 342.85679999999957,
      "v": 100
    },
    {
      "midi": 71,
      "hit": false,
      "t": 7071.4214999999995,
      "d": 85.71420000000035,
      "v": 95
    },
    {
      "midi": 74,
      "hit": false,
      "t": 7071.4214999999995,
      "d": 85.71420000000035,
      "v": 95
    },
    {
      "midi": 78,
      "hit": false,
      "t": 7071.4214999999995,
      "d": 85.71420000000035,
      "v": 95
    },
    {
      "midi": 71,
      "hit": false,
      "t": 7071.4214999999995,
      "d": 85.71420000000035,
      "v": 95
    },
    {
      "midi": 74,
      "hit": false,
      "t": 7071.4214999999995,
      "d": 85.71420000000035,
      "v": 95
    },
    {
      "midi": 78,
      "hit": false,
      "t": 7071.4214999999995,
      "d": 85.71420000000035,
      "v": 95
    },
    {
      "midi": 71,
      "hit": false,
      "t": 7178.564249999999,
      "d": 192.85695000000032,
      "v": 95
    },
    {
      "midi": 74,
      "hit": false,
      "t": 7178.564249999999,
      "d": 192.85695000000032,
      "v": 95
    },
    {
      "midi": 78,
      "hit": false,
      "t": 7178.564249999999,
      "d": 192.85695000000032,
      "v": 95
    },
    {
      "midi": 71,
      "hit": false,
      "t": 7178.564249999999,
      "d": 192.85695000000032,
      "v": 95
    },
    {
      "midi": 74,
      "hit": false,
      "t": 7178.564249999999,
      "d": 192.85695000000032,
      "v": 95
    },
    {
      "midi": 78,
      "hit": false,
      "t": 7178.564249999999,
      "d": 192.85695000000032,
      "v": 95
    },
    {
      "midi": 47,
      "hit": false,
      "t": 7285.707,
      "d": 342.85679999999957,
      "v": 100
    },
    {
      "midi": 47,
      "hit": false,
      "t": 7285.707,
      "d": 342.85679999999957,
      "v": 100
    },
    {
      "midi": 78,
      "hit": false,
      "t": 7392.849749999999,
      "d": 85.71420000000035,
      "v": 95
    },
    {
      "midi": 74,
      "hit": false,
      "t": 7392.849749999999,
      "d": 85.71420000000035,
      "v": 95
    },
    {
      "midi": 71,
      "hit": false,
      "t": 7392.849749999999,
      "d": 85.71420000000035,
      "v": 95
    },
    {
      "midi": 78,
      "hit": false,
      "t": 7392.849749999999,
      "d": 85.71420000000035,
      "v": 95
    },
    {
      "midi": 74,
      "hit": false,
      "t": 7392.849749999999,
      "d": 85.71420000000035,
      "v": 95
    },
    {
      "midi": 71,
      "hit": false,
      "t": 7392.849749999999,
      "d": 85.71420000000035,
      "v": 95
    },
    {
      "midi": 71,
      "hit": false,
      "t": 7499.992499999999,
      "d": 171.42839999999978,
      "v": 95
    },
    {
      "midi": 74,
      "hit": false,
      "t": 7499.992499999999,
      "d": 171.42839999999978,
      "v": 95
    },
    {
      "midi": 78,
      "hit": false,
      "t": 7499.992499999999,
      "d": 171.42839999999978,
      "v": 95
    },
    {
      "midi": 71,
      "hit": false,
      "t": 7499.992499999999,
      "d": 171.42839999999978,
      "v": 95
    },
    {
      "midi": 74,
      "hit": false,
      "t": 7499.992499999999,
      "d": 171.42839999999978,
      "v": 95
    },
    {
      "midi": 78,
      "hit": false,
      "t": 7499.992499999999,
      "d": 171.42839999999978,
      "v": 95
    },
    {
      "midi": 71,
      "hit": false,
      "t": 7714.277999999999,
      "d": 171.42839999999978,
      "v": 95
    },
    {
      "midi": 74,
      "hit": false,
      "t": 7714.277999999999,
      "d": 171.42839999999978,
      "v": 95
    },
    {
      "midi": 79,
      "hit": false,
      "t": 7714.277999999999,
      "d": 171.42839999999978,
      "v": 95
    },
    {
      "midi": 71,
      "hit": false,
      "t": 7714.277999999999,
      "d": 171.42839999999978,
      "v": 95
    },
    {
      "midi": 74,
      "hit": false,
      "t": 7714.277999999999,
      "d": 171.42839999999978,
      "v": 95
    },
    {
      "midi": 79,
      "hit": false,
      "t": 7714.277999999999,
      "d": 171.42839999999978,
      "v": 95
    },
    {
      "midi": 47,
      "hit": false,
      "t": 7714.278,
      "d": 342.85679999999957,
      "v": 100
    },
    {
      "midi": 47,
      "hit": false,
      "t": 7714.278,
      "d": 342.85679999999957,
      "v": 100
    },
    {
      "midi": 74,
      "hit": false,
      "t": 7928.563499999999,
      "d": 171.42839999999978,
      "v": 95
    },
    {
      "midi": 78,
      "hit": false,
      "t": 7928.563499999999,
      "d": 171.42839999999978,
      "v": 95
    },
    {
      "midi": 71,
      "hit": false,
      "t": 7928.563499999999,
      "d": 171.42839999999978,
      "v": 95
    },
    {
      "midi": 74,
      "hit": false,
      "t": 7928.563499999999,
      "d": 171.42839999999978,
      "v": 95
    },
    {
      "midi": 78,
      "hit": false,
      "t": 7928.563499999999,
      "d": 171.42839999999978,
      "v": 95
    },
    {
      "midi": 71,
      "hit": false,
      "t": 7928.563499999999,
      "d": 171.42839999999978,
      "v": 95
    },
    {
      "midi": 71,
      "hit": false,
      "t": 8142.848999999999,
      "d": 171.42839999999978,
      "v": 95
    },
    {
      "midi": 74,
      "hit": false,
      "t": 8142.848999999999,
      "d": 171.42839999999978,
      "v": 95
    },
    {
      "midi": 76,
      "hit": false,
      "t": 8142.848999999999,
      "d": 171.42839999999978,
      "v": 95
    },
    {
      "midi": 71,
      "hit": false,
      "t": 8142.848999999999,
      "d": 171.42839999999978,
      "v": 95
    },
    {
      "midi": 74,
      "hit": false,
      "t": 8142.848999999999,
      "d": 171.42839999999978,
      "v": 95
    },
    {
      "midi": 76,
      "hit": false,
      "t": 8142.848999999999,
      "d": 171.42839999999978,
      "v": 95
    },
    {
      "midi": 47,
      "hit": false,
      "t": 8142.849,
      "d": 342.85679999999957,
      "v": 100
    },
    {
      "midi": 47,
      "hit": false,
      "t": 8142.849,
      "d": 342.85679999999957,
      "v": 100
    },
    {
      "midi": 71,
      "hit": false,
      "t": 8357.134499999998,
      "d": 171.4284000000007,
      "v": 95
    },
    {
      "midi": 74,
      "hit": false,
      "t": 8357.134499999998,
      "d": 171.4284000000007,
      "v": 95
    },
    {
      "midi": 71,
      "hit": false,
      "t": 8357.134499999998,
      "d": 171.4284000000007,
      "v": 95
    },
    {
      "midi": 74,
      "hit": false,
      "t": 8357.134499999998,
      "d": 171.4284000000007,
      "v": 95
    },
    {
      "midi": 43,
      "hit": false,
      "t": 8571.42,
      "d": 342.85679999999957,
      "v": 100
    },
    {
      "midi": 43,
      "hit": false,
      "t": 8571.42,
      "d": 342.85679999999957,
      "v": 100
    },
    {
      "midi": 71,
      "hit": false,
      "t": 8785.705499999998,
      "d": 85.71420000000035,
      "v": 95
    },
    {
      "midi": 74,
      "hit": false,
      "t": 8785.705499999998,
      "d": 85.71420000000035,
      "v": 95
    },
    {
      "midi": 79,
      "hit": false,
      "t": 8785.705499999998,
      "d": 85.71420000000035,
      "v": 95
    },
    {
      "midi": 71,
      "hit": false,
      "t": 8785.705499999998,
      "d": 85.71420000000035,
      "v": 95
    },
    {
      "midi": 74,
      "hit": false,
      "t": 8785.705499999998,
      "d": 85.71420000000035,
      "v": 95
    },
    {
      "midi": 79,
      "hit": false,
      "t": 8785.705499999998,
      "d": 85.71420000000035,
      "v": 95
    },
    {
      "midi": 71,
      "hit": false,
      "t": 8892.84825,
      "d": 192.85694999999942,
      "v": 95
    },
    {
      "midi": 74,
      "hit": false,
      "t": 8892.84825,
      "d": 192.85694999999942,
      "v": 95
    },
    {
      "midi": 79,
      "hit": false,
      "t": 8892.84825,
      "d": 192.85694999999942,
      "v": 95
    },
    {
      "midi": 71,
      "hit": false,
      "t": 8892.84825,
      "d": 192.85694999999942,
      "v": 95
    },
    {
      "midi": 74,
      "hit": false,
      "t": 8892.84825,
      "d": 192.85694999999942,
      "v": 95
    },
    {
      "midi": 79,
      "hit": false,
      "t": 8892.84825,
      "d": 192.85694999999942,
      "v": 95
    },
    {
      "midi": 43,
      "hit": false,
      "t": 8999.991,
      "d": 342.85679999999957,
      "v": 100
    },
    {
      "midi": 43,
      "hit": false,
      "t": 8999.991,
      "d": 342.85679999999957,
      "v": 100
    },
    {
      "midi": 71,
      "hit": false,
      "t": 9107.133749999999,
      "d": 85.71420000000035,
      "v": 95
    },
    {
      "midi": 74,
      "hit": false,
      "t": 9107.133749999999,
      "d": 85.71420000000035,
      "v": 95
    },
    {
      "midi": 79,
      "hit": false,
      "t": 9107.133749999999,
      "d": 85.71420000000035,
      "v": 95
    },
    {
      "midi": 71,
      "hit": false,
      "t": 9107.133749999999,
      "d": 85.71420000000035,
      "v": 95
    },
    {
      "midi": 74,
      "hit": false,
      "t": 9107.133749999999,
      "d": 85.71420000000035,
      "v": 95
    },
    {
      "midi": 79,
      "hit": false,
      "t": 9107.133749999999,
      "d": 85.71420000000035,
      "v": 95
    },
    {
      "midi": 71,
      "hit": false,
      "t": 9214.2765,
      "d": 171.4284000000007,
      "v": 95
    },
    {
      "midi": 74,
      "hit": false,
      "t": 9214.2765,
      "d": 171.4284000000007,
      "v": 95
    },
    {
      "midi": 79,
      "hit": false,
      "t": 9214.2765,
      "d": 171.4284000000007,
      "v": 95
    },
    {
      "midi": 71,
      "hit": false,
      "t": 9214.2765,
      "d": 171.4284000000007,
      "v": 95
    },
    {
      "midi": 74,
      "hit": false,
      "t": 9214.2765,
      "d": 171.4284000000007,
      "v": 95
    },
    {
      "midi": 79,
      "hit": false,
      "t": 9214.2765,
      "d": 171.4284000000007,
      "v": 95
    },
    {
      "midi": 43,
      "hit": false,
      "t": 9428.562,
      "d": 342.85679999999957,
      "v": 100
    },
    {
      "midi": 71,
      "hit": false,
      "t": 9428.562,
      "d": 171.4284000000007,
      "v": 95
    },
    {
      "midi": 74,
      "hit": false,
      "t": 9428.562,
      "d": 171.4284000000007,
      "v": 95
    },
    {
      "midi": 81,
      "hit": false,
      "t": 9428.562,
      "d": 171.4284000000007,
      "v": 95
    },
    {
      "midi": 71,
      "hit": false,
      "t": 9428.562,
      "d": 171.4284000000007,
      "v": 95
    },
    {
      "midi": 74,
      "hit": false,
      "t": 9428.562,
      "d": 171.4284000000007,
      "v": 95
    },
    {
      "midi": 81,
      "hit": false,
      "t": 9428.562,
      "d": 171.4284000000007,
      "v": 95
    },
    {
      "midi": 43,
      "hit": false,
      "t": 9428.562,
      "d": 342.85679999999957,
      "v": 100
    },
    {
      "midi": 71,
      "hit": false,
      "t": 9642.8475,
      "d": 171.4284000000007,
      "v": 95
    },
    {
      "midi": 74,
      "hit": false,
      "t": 9642.8475,
      "d": 171.4284000000007,
      "v": 95
    },
    {
      "midi": 79,
      "hit": false,
      "t": 9642.8475,
      "d": 171.4284000000007,
      "v": 95
    },
    {
      "midi": 71,
      "hit": false,
      "t": 9642.8475,
      "d": 171.4284000000007,
      "v": 95
    },
    {
      "midi": 74,
      "hit": false,
      "t": 9642.8475,
      "d": 171.4284000000007,
      "v": 95
    },
    {
      "midi": 79,
      "hit": false,
      "t": 9642.8475,
      "d": 171.4284000000007,
      "v": 95
    },
    {
      "midi": 43,
      "hit": false,
      "t": 9857.133,
      "d": 342.85679999999957,
      "v": 100
    },
    {
      "midi": 43,
      "hit": false,
      "t": 9857.133,
      "d": 342.85679999999957,
      "v": 100
    },
    {
      "midi": 43,
      "hit": false,
      "t": 10285.704,
      "d": 342.85679999999957,
      "v": 100
    },
    {
      "midi": 43,
      "hit": false,
      "t": 10285.704,
      "d": 342.85679999999957,
      "v": 100
    },
    {
      "midi": 71,
      "hit": false,
      "t": 10499.9895,
      "d": 85.71420000000035,
      "v": 95
    },
    {
      "midi": 74,
      "hit": false,
      "t": 10499.9895,
      "d": 85.71420000000035,
      "v": 95
    },
    {
      "midi": 79,
      "hit": false,
      "t": 10499.9895,
      "d": 85.71420000000035,
      "v": 95
    },
    {
      "midi": 71,
      "hit": false,
      "t": 10499.9895,
      "d": 85.71420000000035,
      "v": 95
    },
    {
      "midi": 74,
      "hit": false,
      "t": 10499.9895,
      "d": 85.71420000000035,
      "v": 95
    },
    {
      "midi": 79,
      "hit": false,
      "t": 10499.9895,
      "d": 85.71420000000035,
      "v": 95
    },
    {
      "midi": 71,
      "hit": false,
      "t": 10607.13225,
      "d": 192.85694999999942,
      "v": 95
    },
    {
      "midi": 74,
      "hit": false,
      "t": 10607.13225,
      "d": 192.85694999999942,
      "v": 95
    },
    {
      "midi": 79,
      "hit": false,
      "t": 10607.13225,
      "d": 192.85694999999942,
      "v": 95
    },
    {
      "midi": 71,
      "hit": false,
      "t": 10607.13225,
      "d": 192.85694999999942,
      "v": 95
    },
    {
      "midi": 74,
      "hit": false,
      "t": 10607.13225,
      "d": 192.85694999999942,
      "v": 95
    },
    {
      "midi": 79,
      "hit": false,
      "t": 10607.13225,
      "d": 192.85694999999942,
      "v": 95
    },
    {
      "midi": 43,
      "hit": false,
      "t": 10714.275,
      "d": 342.85679999999957,
      "v": 100
    },
    {
      "midi": 43,
      "hit": false,
      "t": 10714.275,
      "d": 342.85679999999957,
      "v": 100
    },
    {
      "midi": 71,
      "hit": false,
      "t": 10821.41775,
      "d": 85.71420000000035,
      "v": 95
    },
    {
      "midi": 74,
      "hit": false,
      "t": 10821.41775,
      "d": 85.71420000000035,
      "v": 95
    },
    {
      "midi": 79,
      "hit": false,
      "t": 10821.41775,
      "d": 85.71420000000035,
      "v": 95
    },
    {
      "midi": 71,
      "hit": false,
      "t": 10821.41775,
      "d": 85.71420000000035,
      "v": 95
    },
    {
      "midi": 74,
      "hit": false,
      "t": 10821.41775,
      "d": 85.71420000000035,
      "v": 95
    },
    {
      "midi": 79,
      "hit": false,
      "t": 10821.41775,
      "d": 85.71420000000035,
      "v": 95
    },
    {
      "midi": 71,
      "hit": false,
      "t": 10928.560500000001,
      "d": 171.4284000000007,
      "v": 95
    },
    {
      "midi": 74,
      "hit": false,
      "t": 10928.560500000001,
      "d": 171.4284000000007,
      "v": 95
    },
    {
      "midi": 79,
      "hit": false,
      "t": 10928.560500000001,
      "d": 171.4284000000007,
      "v": 95
    },
    {
      "midi": 71,
      "hit": false,
      "t": 10928.560500000001,
      "d": 171.4284000000007,
      "v": 95
    },
    {
      "midi": 74,
      "hit": false,
      "t": 10928.560500000001,
      "d": 171.4284000000007,
      "v": 95
    },
    {
      "midi": 79,
      "hit": false,
      "t": 10928.560500000001,
      "d": 171.4284000000007,
      "v": 95
    },
    {
      "midi": 43,
      "hit": false,
      "t": 11142.846,
      "d": 342.85679999999957,
      "v": 100
    },
    {
      "midi": 43,
      "hit": false,
      "t": 11142.846,
      "d": 342.85679999999957,
      "v": 100
    },
    {
      "midi": 71,
      "hit": false,
      "t": 11142.846000000001,
      "d": 171.4284000000007,
      "v": 95
    },
    {
      "midi": 74,
      "hit": false,
      "t": 11142.846000000001,
      "d": 171.4284000000007,
      "v": 95
    },
    {
      "midi": 81,
      "hit": false,
      "t": 11142.846000000001,
      "d": 171.4284000000007,
      "v": 95
    },
    {
      "midi": 71,
      "hit": false,
      "t": 11142.846000000001,
      "d": 171.4284000000007,
      "v": 95
    },
    {
      "midi": 74,
      "hit": false,
      "t": 11142.846000000001,
      "d": 171.4284000000007,
      "v": 95
    },
    {
      "midi": 81,
      "hit": false,
      "t": 11142.846000000001,
      "d": 171.4284000000007,
      "v": 95
    },
    {
      "midi": 71,
      "hit": false,
      "t": 11357.131500000001,
      "d": 171.4284000000007,
      "v": 95
    },
    {
      "midi": 74,
      "hit": false,
      "t": 11357.131500000001,
      "d": 171.4284000000007,
      "v": 95
    },
    {
      "midi": 79,
      "hit": false,
      "t": 11357.131500000001,
      "d": 171.4284000000007,
      "v": 95
    },
    {
      "midi": 71,
      "hit": false,
      "t": 11357.131500000001,
      "d": 171.4284000000007,
      "v": 95
    },
    {
      "midi": 74,
      "hit": false,
      "t": 11357.131500000001,
      "d": 171.4284000000007,
      "v": 95
    },
    {
      "midi": 79,
      "hit": false,
      "t": 11357.131500000001,
      "d": 171.4284000000007,
      "v": 95
    },
    {
      "midi": 43,
      "hit": false,
      "t": 11571.417,
      "d": 342.85679999999957,
      "v": 100
    },
    {
      "midi": 43,
      "hit": false,
      "t": 11571.417,
      "d": 342.85679999999957,
      "v": 100
    },
    {
      "midi": 71,
      "hit": false,
      "t": 11571.417000000001,
      "d": 171.4284000000007,
      "v": 95
    },
    {
      "midi": 74,
      "hit": false,
      "t": 11571.417000000001,
      "d": 171.4284000000007,
      "v": 95
    },
    {
      "midi": 78,
      "hit": false,
      "t": 11571.417000000001,
      "d": 171.4284000000007,
      "v": 95
    },
    {
      "midi": 71,
      "hit": false,
      "t": 11571.417000000001,
      "d": 171.4284000000007,
      "v": 95
    },
    {
      "midi": 74,
      "hit": false,
      "t": 11571.417000000001,
      "d": 171.4284000000007,
      "v": 95
    },
    {
      "midi": 78,
      "hit": false,
      "t": 11571.417000000001,
      "d": 171.4284000000007,
      "v": 95
    },
    {
      "midi": 71,
      "hit": false,
      "t": 11785.702500000001,
      "d": 171.4284000000007,
      "v": 95
    },
    {
      "midi": 74,
      "hit": false,
      "t": 11785.702500000001,
      "d": 171.4284000000007,
      "v": 95
    },
    {
      "midi": 76,
      "hit": false,
      "t": 11785.702500000001,
      "d": 171.4284000000007,
      "v": 95
    },
    {
      "midi": 71,
      "hit": false,
      "t": 11785.702500000001,
      "d": 171.4284000000007,
      "v": 95
    },
    {
      "midi": 74,
      "hit": false,
      "t": 11785.702500000001,
      "d": 171.4284000000007,
      "v": 95
    },
    {
      "midi": 76,
      "hit": false,
      "t": 11785.702500000001,
      "d": 171.4284000000007,
      "v": 95
    },
    {
      "midi": 45,
      "hit": false,
      "t": 11999.988,
      "d": 342.85679999999957,
      "v": 100
    },
    {
      "midi": 45,
      "hit": false,
      "t": 11999.988,
      "d": 342.85679999999957,
      "v": 100
    },
    {
      "midi": 61,
      "hit": false,
      "t": 11999.988000000001,
      "d": 171.4284000000007,
      "v": 100
    },
    {
      "midi": 57,
      "hit": false,
      "t": 12214.273500000001,
      "d": 171.4284000000007,
      "v": 100
    },
    {
      "midi": 45,
      "hit": false,
      "t": 12428.559,
      "d": 342.85679999999957,
      "v": 100
    },
    {
      "midi": 45,
      "hit": false,
      "t": 12428.559,
      "d": 342.85679999999957,
      "v": 100
    },
    {
      "midi": 61,
      "hit": false,
      "t": 12428.559000000001,
      "d": 171.4284000000007,
      "v": 100
    },
    {
      "midi": 64,
      "hit": false,
      "t": 12642.844500000001,
      "d": 171.4284000000007,
      "v": 100
    },
    {
      "midi": 47,
      "hit": false,
      "t": 12857.13,
      "d": 342.85679999999957,
      "v": 100
    },
    {
      "midi": 47,
      "hit": false,
      "t": 12857.13,
      "d": 342.85679999999957,
      "v": 100
    },
    {
      "midi": 62,
      "hit": false,
      "t": 12857.130000000001,
      "d": 171.4284000000007,
      "v": 100
    },
    {
      "midi": 59,
      "hit": false,
      "t": 13071.415500000001,
      "d": 171.4284000000007,
      "v": 100
    },
    {
      "midi": 47,
      "hit": false,
      "t": 13285.701,
      "d": 342.85679999999957,
      "v": 100
    },
    {
      "midi": 47,
      "hit": false,
      "t": 13285.701,
      "d": 342.85679999999957,
      "v": 100
    },
    {
      "midi": 62,
      "hit": false,
      "t": 13285.701000000001,
      "d": 171.4284000000007,
      "v": 100
    },
    {
      "midi": 66,
      "hit": false,
      "t": 13499.9865,
      "d": 171.4284000000007,
      "v": 100
    },
    {
      "midi": 48,
      "hit": false,
      "t": 13714.271999999999,
      "d": 342.85679999999957,
      "v": 100
    },
    {
      "midi": 48,
      "hit": false,
      "t": 13714.271999999999,
      "d": 342.85679999999957,
      "v": 100
    },
    {
      "midi": 63,
      "hit": false,
      "t": 13714.272,
      "d": 171.4284000000007,
      "v": 100
    },
    {
      "midi": 60,
      "hit": false,
      "t": 13928.5575,
      "d": 171.4284000000007,
      "v": 100
    },
    {
      "midi": 48,
      "hit": false,
      "t": 14142.842999999999,
      "d": 342.85679999999957,
      "v": 100
    },
    {
      "midi": 48,
      "hit": false,
      "t": 14142.842999999999,
      "d": 342.85679999999957,
      "v": 100
    },
    {
      "midi": 63,
      "hit": false,
      "t": 14142.843,
      "d": 171.4284000000007,
      "v": 100
    },
    {
      "midi": 66,
      "hit": false,
      "t": 14357.1285,
      "d": 171.4284000000007,
      "v": 100
    },
    {
      "midi": 49,
      "hit": false,
      "t": 14571.413999999999,
      "d": 342.85679999999957,
      "v": 100
    },
    {
      "midi": 49,
      "hit": false,
      "t": 14571.413999999999,
      "d": 342.85679999999957,
      "v": 100
    },
    {
      "midi": 69,
      "hit": false,
      "t": 14571.414,
      "d": 685.7135999999991,
      "v": 100
    },
    {
      "midi": 57,
      "hit": false,
      "t": 14785.699500000002,
      "d": 171.4284000000007,
      "v": 100
    },
    {
      "midi": 57,
      "hit": false,
      "t": 14785.699500000002,
      "d": 171.4284000000007,
      "v": 100
    },
    {
      "midi": 49,
      "hit": false,
      "t": 14999.984999999999,
      "d": 342.85679999999957,
      "v": 100
    },
    {
      "midi": 49,
      "hit": false,
      "t": 14999.984999999999,
      "d": 342.85679999999957,
      "v": 100
    },
    {
      "midi": 62,
      "hit": false,
      "t": 14999.985000000002,
      "d": 171.4284000000007,
      "v": 100
    },
    {
      "midi": 62,
      "hit": false,
      "t": 14999.985000000002,
      "d": 171.4284000000007,
      "v": 100
    },
    {
      "midi": 64,
      "hit": false,
      "t": 15214.270500000002,
      "d": 171.4284000000007,
      "v": 100
    },
    {
      "midi": 64,
      "hit": false,
      "t": 15214.270500000002,
      "d": 171.4284000000007,
      "v": 100
    },
    {
      "midi": 50,
      "hit": false,
      "t": 15428.555999999999,
      "d": 342.85679999999957,
      "v": 100
    },
    {
      "midi": 50,
      "hit": false,
      "t": 15428.555999999999,
      "d": 342.85679999999957,
      "v": 100
    },
    {
      "midi": 66,
      "hit": false,
      "t": 15428.556000000002,
      "d": 685.713600000001,
      "v": 100
    },
    {
      "midi": 66,
      "hit": false,
      "t": 15428.556000000002,
      "d": 685.713600000001,
      "v": 100
    },
    {
      "midi": 62,
      "hit": false,
      "t": 15428.556000000002,
      "d": 3085.7111999999997,
      "v": 100
    },
    {
      "midi": 66,
      "hit": false,
      "t": 15428.556000000002,
      "d": 3085.7111999999997,
      "v": 100
    },
    {
      "midi": 69,
      "hit": false,
      "t": 15428.556000000002,
      "d": 3085.7111999999997,
      "v": 100
    },
    {
      "midi": 50,
      "hit": false,
      "t": 15857.126999999999,
      "d": 342.85679999999957,
      "v": 100
    },
    {
      "midi": 50,
      "hit": false,
      "t": 15857.126999999999,
      "d": 342.85679999999957,
      "v": 100
    },
    {
      "midi": 50,
      "hit": false,
      "t": 16285.697999999999,
      "d": 342.85679999999957,
      "v": 100
    },
    {
      "midi": 50,
      "hit": false,
      "t": 16285.697999999999,
      "d": 342.85679999999957,
      "v": 100
    },
    {
      "midi": 64,
      "hit": false,
      "t": 16285.698000000004,
      "d": 171.4284000000007,
      "v": 100
    },
    {
      "midi": 64,
      "hit": false,
      "t": 16285.698000000004,
      "d": 171.4284000000007,
      "v": 100
    },
    {
      "midi": 66,
      "hit": false,
      "t": 16499.983500000006,
      "d": 171.4284000000007,
      "v": 100
    },
    {
      "midi": 66,
      "hit": false,
      "t": 16499.983500000006,
      "d": 171.4284000000007,
      "v": 100
    },
    {
      "midi": 50,
      "hit": false,
      "t": 16714.268999999997,
      "d": 342.8568000000014,
      "v": 100
    },
    {
      "midi": 50,
      "hit": false,
      "t": 16714.268999999997,
      "d": 342.8568000000014,
      "v": 100
    },
    {
      "midi": 64,
      "hit": false,
      "t": 16714.269000000008,
      "d": 171.4284000000007,
      "v": 100
    },
    {
      "midi": 64,
      "hit": false,
      "t": 16714.269000000008,
      "d": 171.4284000000007,
      "v": 100
    },
    {
      "midi": 66,
      "hit": false,
      "t": 16928.55450000001,
      "d": 171.4284000000007,
      "v": 100
    },
    {
      "midi": 66,
      "hit": false,
      "t": 16928.55450000001,
      "d": 171.4284000000007,
      "v": 100
    },
    {
      "midi": 50,
      "hit": false,
      "t": 17142.839999999997,
      "d": 342.8568000000014,
      "v": 100
    },
    {
      "midi": 50,
      "hit": false,
      "t": 17142.839999999997,
      "d": 342.8568000000014,
      "v": 100
    },
    {
      "midi": 64,
      "hit": false,
      "t": 17142.84000000001,
      "d": 171.4284000000007,
      "v": 100
    },
    {
      "midi": 64,
      "hit": false,
      "t": 17142.84000000001,
      "d": 171.4284000000007,
      "v": 100
    },
    {
      "midi": 62,
      "hit": false,
      "t": 17357.125500000013,
      "d": 171.4284000000007,
      "v": 100
    },
    {
      "midi": 62,
      "hit": false,
      "t": 17357.125500000013,
      "d": 171.4284000000007,
      "v": 100
    },
    {
      "midi": 50,
      "hit": false,
      "t": 17571.410999999996,
      "d": 342.8568000000014,
      "v": 100
    },
    {
      "midi": 50,
      "hit": false,
      "t": 17571.410999999996,
      "d": 342.8568000000014,
      "v": 100
    },
    {
      "midi": 62,
      "hit": false,
      "t": 17571.411000000015,
      "d": 171.4284000000007,
      "v": 100
    },
    {
      "midi": 62,
      "hit": false,
      "t": 17571.411000000015,
      "d": 171.4284000000007,
      "v": 100
    },
    {
      "midi": 62,
      "hit": false,
      "t": 17785.696500000016,
      "d": 171.4284000000007,
      "v": 100
    },
    {
      "midi": 62,
      "hit": false,
      "t": 17785.696500000016,
      "d": 171.4284000000007,
      "v": 100
    },
    {
      "midi": 50,
      "hit": false,
      "t": 17999.981999999996,
      "d": 342.8568000000014,
      "v": 100
    },
    {
      "midi": 50,
      "hit": false,
      "t": 17999.981999999996,
      "d": 342.8568000000014,
      "v": 100
    },
    {
      "midi": 62,
      "hit": false,
      "t": 17999.982000000018,
      "d": 171.4284000000007,
      "v": 100
    },
    {
      "midi": 62,
      "hit": false,
      "t": 17999.982000000018,
      "d": 171.4284000000007,
      "v": 100
    },
    {
      "midi": 57,
      "hit": false,
      "t": 18214.26750000002,
      "d": 171.4284000000007,
      "v": 100
    },
    {
      "midi": 57,
      "hit": false,
      "t": 18214.26750000002,
      "d": 171.4284000000007,
      "v": 100
    },
    {
      "midi": 50,
      "hit": false,
      "t": 18428.552999999996,
      "d": 342.8568000000014,
      "v": 100
    },
    {
      "midi": 50,
      "hit": false,
      "t": 18428.552999999996,
      "d": 342.8568000000014,
      "v": 100
    },
    {
      "midi": 62,
      "hit": false,
      "t": 18428.55300000002,
      "d": 171.4284000000007,
      "v": 100
    },
    {
      "midi": 62,
      "hit": false,
      "t": 18428.55300000002,
      "d": 171.4284000000007,
      "v": 100
    },
    {
      "midi": 64,
      "hit": false,
      "t": 18642.838500000023,
      "d": 171.4284000000007,
      "v": 100
    },
    {
      "midi": 64,
      "hit": false,
      "t": 18642.838500000023,
      "d": 171.4284000000007,
      "v": 100
    },
    {
      "midi": 50,
      "hit": false,
      "t": 18857.123999999996,
      "d": 342.8568000000014,
      "v": 100
    },
    {
      "midi": 50,
      "hit": false,
      "t": 18857.123999999996,
      "d": 342.8568000000014,
      "v": 100
    },
    {
      "midi": 62,
      "hit": false,
      "t": 18857.124000000003,
      "d": 3085.7112000000016,
      "v": 100
    },
    {
      "midi": 66,
      "hit": false,
      "t": 18857.124000000003,
      "d": 3085.7112000000016,
      "v": 100
    },
    {
      "midi": 69,
      "hit": false,
      "t": 18857.124000000003,
      "d": 3085.7112000000016,
      "v": 100
    },
    {
      "midi": 66,
      "hit": false,
      "t": 18857.124000000025,
      "d": 685.7135999999991,
      "v": 100
    },
    {
      "midi": 66,
      "hit": false,
      "t": 18857.124000000025,
      "d": 685.7135999999991,
      "v": 100
    },
    {
      "midi": 50,
      "hit": false,
      "t": 19285.694999999996,
      "d": 342.8568000000014,
      "v": 100
    },
    {
      "midi": 50,
      "hit": false,
      "t": 19285.694999999996,
      "d": 342.8568000000014,
      "v": 100
    },
    {
      "midi": 50,
      "hit": false,
      "t": 19714.265999999996,
      "d": 342.8568000000014,
      "v": 100
    },
    {
      "midi": 50,
      "hit": false,
      "t": 19714.265999999996,
      "d": 342.8568000000014,
      "v": 100
    },
    {
      "midi": 64,
      "hit": false,
      "t": 19714.266000000025,
      "d": 171.4284000000007,
      "v": 100
    },
    {
      "midi": 64,
      "hit": false,
      "t": 19714.266000000025,
      "d": 171.4284000000007,
      "v": 100
    },
    {
      "midi": 66,
      "hit": false,
      "t": 19928.551500000027,
      "d": 171.4284000000007,
      "v": 100
    },
    {
      "midi": 66,
      "hit": false,
      "t": 19928.551500000027,
      "d": 171.4284000000007,
      "v": 100
    },
    {
      "midi": 50,
      "hit": false,
      "t": 20142.836999999996,
      "d": 342.8568000000014,
      "v": 100
    },
    {
      "midi": 50,
      "hit": false,
      "t": 20142.836999999996,
      "d": 342.8568000000014,
      "v": 100
    },
    {
      "midi": 64,
      "hit": false,
      "t": 20142.83700000003,
      "d": 171.4284000000007,
      "v": 100
    },
    {
      "midi": 64,
      "hit": false,
      "t": 20142.83700000003,
      "d": 171.4284000000007,
      "v": 100
    },
    {
      "midi": 66,
      "hit": false,
      "t": 20357.12250000003,
      "d": 171.4284000000007,
      "v": 100
    },
    {
      "midi": 66,
      "hit": false,
      "t": 20357.12250000003,
      "d": 171.4284000000007,
      "v": 100
    },
    {
      "midi": 50,
      "hit": false,
      "t": 20571.407999999996,
      "d": 342.8568000000014,
      "v": 100
    },
    {
      "midi": 50,
      "hit": false,
      "t": 20571.407999999996,
      "d": 342.8568000000014,
      "v": 100
    },
    {
      "midi": 64,
      "hit": false,
      "t": 20571.408000000032,
      "d": 171.4284000000007,
      "v": 100
    },
    {
      "midi": 64,
      "hit": false,
      "t": 20571.408000000032,
      "d": 171.4284000000007,
      "v": 100
    },
    {
      "midi": 62,
      "hit": false,
      "t": 20785.693500000034,
      "d": 171.4284000000007,
      "v": 100
    },
    {
      "midi": 62,
      "hit": false,
      "t": 20785.693500000034,
      "d": 171.4284000000007,
      "v": 100
    },
    {
      "midi": 50,
      "hit": false,
      "t": 20999.978999999996,
      "d": 342.8568000000014,
      "v": 100
    },
    {
      "midi": 50,
      "hit": false,
      "t": 20999.978999999996,
      "d": 342.8568000000014,
      "v": 100
    },
    {
      "midi": 62,
      "hit": false,
      "t": 20999.979000000036,
      "d": 171.4284000000007,
      "v": 100
    },
    {
      "midi": 62,
      "hit": false,
      "t": 20999.979000000036,
      "d": 171.4284000000007,
      "v": 100
    },
    {
      "midi": 62,
      "hit": false,
      "t": 21214.264500000038,
      "d": 171.4284000000007,
      "v": 100
    },
    {
      "midi": 62,
      "hit": false,
      "t": 21214.264500000038,
      "d": 171.4284000000007,
      "v": 100
    },
    {
      "midi": 50,
      "hit": false,
      "t": 21428.549999999996,
      "d": 342.8568000000014,
      "v": 100
    },
    {
      "midi": 50,
      "hit": false,
      "t": 21428.549999999996,
      "d": 342.8568000000014,
      "v": 100
    },
    {
      "midi": 62,
      "hit": false,
      "t": 21428.55000000004,
      "d": 685.7135999999991,
      "v": 100
    },
    {
      "midi": 62,
      "hit": false,
      "t": 21428.55000000004,
      "d": 685.7135999999991,
      "v": 100
    },
    {
      "midi": 52,
      "hit": false,
      "t": 21857.120999999996,
      "d": 171.4284000000007,
      "v": 100
    },
    {
      "midi": 52,
      "hit": false,
      "t": 21857.120999999996,
      "d": 171.4284000000007,
      "v": 100
    },
    {
      "midi": 54,
      "hit": false,
      "t": 22071.406499999997,
      "d": 171.4284000000007,
      "v": 100
    },
    {
      "midi": 54,
      "hit": false,
      "t": 22071.406499999997,
      "d": 171.4284000000007,
      "v": 100
    },
    {
      "midi": 55,
      "hit": false,
      "t": 22285.692,
      "d": 342.8568000000014,
      "v": 100
    },
    {
      "midi": 55,
      "hit": false,
      "t": 22285.692,
      "d": 342.8568000000014,
      "v": 100
    },
    {
      "midi": 62,
      "hit": false,
      "t": 22285.692000000006,
      "d": 1371.427200000002,
      "v": 100
    },
    {
      "midi": 67,
      "hit": false,
      "t": 22285.692000000006,
      "d": 1371.427200000002,
      "v": 100
    },
    {
      "midi": 71,
      "hit": false,
      "t": 22285.692000000006,
      "d": 1371.427200000002,
      "v": 100
    },
    {
      "midi": 71,
      "hit": false,
      "t": 22285.69200000004,
      "d": 514.2851999999984,
      "v": 100
    },
    {
      "midi": 71,
      "hit": false,
      "t": 22285.69200000004,
      "d": 514.2851999999984,
      "v": 100
    },
    {
      "midi": 55,
      "hit": false,
      "t": 22714.263,
      "d": 342.8568000000014,
      "v": 100
    },
    {
      "midi": 55,
      "hit": false,
      "t": 22714.263,
      "d": 342.8568000000014,
      "v": 100
    },
    {
      "midi": 67,
      "hit": false,
      "t": 22928.548500000037,
      "d": 171.4284000000007,
      "v": 100
    },
    {
      "midi": 67,
      "hit": false,
      "t": 22928.548500000037,
      "d": 171.4284000000007,
      "v": 100
    },
    {
      "midi": 55,
      "hit": false,
      "t": 23142.834,
      "d": 342.8568000000014,
      "v": 100
    },
    {
      "midi": 55,
      "hit": false,
      "t": 23142.834,
      "d": 342.8568000000014,
      "v": 100
    },
    {
      "midi": 62,
      "hit": false,
      "t": 23142.83400000004,
      "d": 171.4284000000007,
      "v": 100
    },
    {
      "midi": 62,
      "hit": false,
      "t": 23142.83400000004,
      "d": 171.4284000000007,
      "v": 100
    },
    {
      "midi": 62,
      "hit": false,
      "t": 23357.11950000004,
      "d": 171.4284000000007,
      "v": 100
    },
    {
      "midi": 62,
      "hit": false,
      "t": 23357.11950000004,
      "d": 171.4284000000007,
      "v": 100
    },
    {
      "midi": 55,
      "hit": false,
      "t": 23571.405,
      "d": 342.8568000000014,
      "v": 100
    },
    {
      "midi": 55,
      "hit": false,
      "t": 23571.405,
      "d": 342.8568000000014,
      "v": 100
    },
    {
      "midi": 62,
      "hit": false,
      "t": 23571.405000000042,
      "d": 171.4284000000007,
      "v": 100
    },
    {
      "midi": 62,
      "hit": false,
      "t": 23571.405000000042,
      "d": 171.4284000000007,
      "v": 100
    },
    {
      "midi": 71,
      "hit": false,
      "t": 23785.690500000044,
      "d": 171.4284000000007,
      "v": 100
    },
    {
      "midi": 71,
      "hit": false,
      "t": 23785.690500000044,
      "d": 171.4284000000007,
      "v": 100
    },
    {
      "midi": 54,
      "hit": false,
      "t": 23999.976,
      "d": 342.8568000000014,
      "v": 100
    },
    {
      "midi": 54,
      "hit": false,
      "t": 23999.976,
      "d": 342.8568000000014,
      "v": 100
    },
    {
      "midi": 62,
      "hit": false,
      "t": 23999.97600000001,
      "d": 1371.4271999999983,
      "v": 100
    },
    {
      "midi": 66,
      "hit": false,
      "t": 23999.97600000001,
      "d": 1371.4271999999983,
      "v": 100
    },
    {
      "midi": 69,
      "hit": false,
      "t": 23999.97600000001,
      "d": 1371.4271999999983,
      "v": 100
    },
    {
      "midi": 69,
      "hit": false,
      "t": 23999.976000000046,
      "d": 1371.4271999999983,
      "v": 100
    },
    {
      "midi": 69,
      "hit": false,
      "t": 23999.976000000046,
      "d": 1371.4271999999983,
      "v": 100
    },
    {
      "midi": 54,
      "hit": false,
      "t": 24428.547,
      "d": 342.8568000000014,
      "v": 100
    },
    {
      "midi": 54,
      "hit": false,
      "t": 24428.547,
      "d": 342.8568000000014,
      "v": 100
    },
    {
      "midi": 54,
      "hit": false,
      "t": 24857.118,
      "d": 342.8568000000014,
      "v": 100
    },
    {
      "midi": 54,
      "hit": false,
      "t": 24857.118,
      "d": 342.8568000000014,
      "v": 100
    },
    {
      "midi": 54,
      "hit": false,
      "t": 25285.689,
      "d": 342.8568000000014,
      "v": 100
    },
    {
      "midi": 54,
      "hit": false,
      "t": 25285.689,
      "d": 342.8568000000014,
      "v": 100
    },
    {
      "midi": 52,
      "hit": false,
      "t": 25714.26,
      "d": 342.8568000000014,
      "v": 100
    },
    {
      "midi": 52,
      "hit": false,
      "t": 25714.26,
      "d": 342.8568000000014,
      "v": 100
    },
    {
      "midi": 64,
      "hit": false,
      "t": 25714.26000000001,
      "d": 685.7135999999991,
      "v": 100
    },
    {
      "midi": 67,
      "hit": false,
      "t": 25714.26000000001,
      "d": 685.7135999999991,
      "v": 100
    },
    {
      "midi": 71,
      "hit": false,
      "t": 25714.26000000001,
      "d": 685.7135999999991,
      "v": 100
    },
    {
      "midi": 64,
      "hit": false,
      "t": 25714.260000000046,
      "d": 514.2851999999984,
      "v": 100
    },
    {
      "midi": 64,
      "hit": false,
      "t": 25714.260000000046,
      "d": 514.2851999999984,
      "v": 100
    },
    {
      "midi": 52,
      "hit": false,
      "t": 26142.831,
      "d": 171.4284000000007,
      "v": 100
    },
    {
      "midi": 52,
      "hit": false,
      "t": 26142.831,
      "d": 171.4284000000007,
      "v": 100
    },
    {
      "midi": 50,
      "hit": false,
      "t": 26357.1165,
      "d": 171.4284000000007,
      "v": 100
    },
    {
      "midi": 50,
      "hit": false,
      "t": 26357.1165,
      "d": 171.4284000000007,
      "v": 100
    },
    {
      "midi": 66,
      "hit": false,
      "t": 26357.116500000044,
      "d": 171.4284000000007,
      "v": 100
    },
    {
      "midi": 66,
      "hit": false,
      "t": 26357.116500000044,
      "d": 171.4284000000007,
      "v": 100
    },
    {
      "midi": 48,
      "hit": false,
      "t": 26571.402000000002,
      "d": 342.8568000000014,
      "v": 100
    },
    {
      "midi": 48,
      "hit": false,
      "t": 26571.402000000002,
      "d": 342.8568000000014,
      "v": 100
    },
    {
      "midi": 64,
      "hit": false,
      "t": 26571.40200000001,
      "d": 685.7135999999991,
      "v": 100
    },
    {
      "midi": 67,
      "hit": false,
      "t": 26571.40200000001,
      "d": 685.7135999999991,
      "v": 100
    },
    {
      "midi": 72,
      "hit": false,
      "t": 26571.40200000001,
      "d": 685.7135999999991,
      "v": 100
    },
    {
      "midi": 64,
      "hit": false,
      "t": 26571.402000000046,
      "d": 171.4284000000007,
      "v": 100
    },
    {
      "midi": 64,
      "hit": false,
      "t": 26571.402000000046,
      "d": 171.4284000000007,
      "v": 100
    },
    {
      "midi": 64,
      "hit": false,
      "t": 26785.687500000047,
      "d": 171.4284000000007,
      "v": 100
    },
    {
      "midi": 64,
      "hit": false,
      "t": 26785.687500000047,
      "d": 171.4284000000007,
      "v": 100
    },
    {
      "midi": 48,
      "hit": false,
      "t": 26999.973,
      "d": 171.4284000000007,
      "v": 100
    },
    {
      "midi": 48,
      "hit": false,
      "t": 26999.973,
      "d": 171.4284000000007,
      "v": 100
    },
    {
      "midi": 66,
      "hit": false,
      "t": 26999.97300000005,
      "d": 171.4284000000007,
      "v": 100
    },
    {
      "midi": 66,
      "hit": false,
      "t": 26999.97300000005,
      "d": 171.4284000000007,
      "v": 100
    },
    {
      "midi": 47,
      "hit": false,
      "t": 27214.258500000004,
      "d": 171.4284000000007,
      "v": 100
    },
    {
      "midi": 47,
      "hit": false,
      "t": 27214.258500000004,
      "d": 171.4284000000007,
      "v": 100
    },
    {
      "midi": 67,
      "hit": false,
      "t": 27214.25850000005,
      "d": 171.4284000000007,
      "v": 100
    },
    {
      "midi": 67,
      "hit": false,
      "t": 27214.25850000005,
      "d": 171.4284000000007,
      "v": 100
    },
    {
      "midi": 45,
      "hit": false,
      "t": 27428.544000000005,
      "d": 342.8568000000014,
      "v": 100
    },
    {
      "midi": 45,
      "hit": false,
      "t": 27428.544000000005,
      "d": 342.8568000000014,
      "v": 100
    },
    {
      "midi": 64,
      "hit": false,
      "t": 27428.54400000001,
      "d": 1371.4271999999983,
      "v": 100
    },
    {
      "midi": 69,
      "hit": false,
      "t": 27428.54400000001,
      "d": 1371.4271999999983,
      "v": 100
    },
    {
      "midi": 73,
      "hit": false,
      "t": 27428.54400000001,
      "d": 1371.4271999999983,
      "v": 100
    },
    {
      "midi": 69,
      "hit": false,
      "t": 27428.544000000053,
      "d": 685.7135999999991,
      "v": 100
    },
    {
      "midi": 69,
      "hit": false,
      "t": 27428.544000000053,
      "d": 685.7135999999991,
      "v": 100
    },
    {
      "midi": 45,
      "hit": false,
      "t": 27857.115000000005,
      "d": 342.8568000000014,
      "v": 100
    },
    {
      "midi": 45,
      "hit": false,
      "t": 27857.115000000005,
      "d": 342.8568000000014,
      "v": 100
    },
    {
      "midi": 45,
      "hit": false,
      "t": 28285.686000000005,
      "d": 342.8568000000014,
      "v": 100
    },
    {
      "midi": 45,
      "hit": false,
      "t": 28285.686000000005,
      "d": 342.8568000000014,
      "v": 100
    },
    {
      "midi": 57,
      "hit": false,
      "t": 28499.97150000005,
      "d": 171.4284000000007,
      "v": 100
    },
    {
      "midi": 57,
      "hit": false,
      "t": 28499.97150000005,
      "d": 171.4284000000007,
      "v": 100
    },
    {
      "midi": 45,
      "hit": false,
      "t": 28714.257000000005,
      "d": 342.8568000000014,
      "v": 100
    },
    {
      "midi": 45,
      "hit": false,
      "t": 28714.257000000005,
      "d": 342.8568000000014,
      "v": 100
    },
    {
      "midi": 62,
      "hit": false,
      "t": 28714.257000000052,
      "d": 171.4284000000007,
      "v": 100
    },
    {
      "midi": 62,
      "hit": false,
      "t": 28714.257000000052,
      "d": 171.4284000000007,
      "v": 100
    },
    {
      "midi": 64,
      "hit": false,
      "t": 28928.542500000054,
      "d": 171.4284000000007,
      "v": 100
    },
    {
      "midi": 64,
      "hit": false,
      "t": 28928.542500000054,
      "d": 171.4284000000007,
      "v": 100
    },
    {
      "midi": 50,
      "hit": false,
      "t": 29142.828000000005,
      "d": 342.8568000000014,
      "v": 100
    },
    {
      "midi": 50,
      "hit": false,
      "t": 29142.828000000005,
      "d": 342.8568000000014,
      "v": 100
    },
    {
      "midi": 66,
      "hit": false,
      "t": 29142.82800000001,
      "d": 1371.4271999999983,
      "v": 100
    },
    {
      "midi": 69,
      "hit": false,
      "t": 29142.82800000001,
      "d": 1371.4271999999983,
      "v": 100
    },
    {
      "midi": 74,
      "hit": false,
      "t": 29142.82800000001,
      "d": 1371.4271999999983,
      "v": 100
    },
    {
      "midi": 66,
      "hit": false,
      "t": 29142.828000000056,
      "d": 685.7135999999991,
      "v": 100
    },
    {
      "midi": 66,
      "hit": false,
      "t": 29142.828000000056,
      "d": 685.7135999999991,
      "v": 100
    },
    {
      "midi": 50,
      "hit": false,
      "t": 29571.399000000005,
      "d": 342.8568000000014,
      "v": 100
    },
    {
      "midi": 50,
      "hit": false,
      "t": 29571.399000000005,
      "d": 342.8568000000014,
      "v": 100
    },
    {
      "midi": 50,
      "hit": false,
      "t": 29999.970000000005,
      "d": 342.8568000000014,
      "v": 100
    },
    {
      "midi": 50,
      "hit": false,
      "t": 29999.970000000005,
      "d": 342.8568000000014,
      "v": 100
    },
    {
      "midi": 64,
      "hit": false,
      "t": 29999.970000000056,
      "d": 171.4284000000007,
      "v": 100
    },
    {
      "midi": 64,
      "hit": false,
      "t": 29999.970000000056,
      "d": 171.4284000000007,
      "v": 100
    },
    {
      "midi": 66,
      "hit": false,
      "t": 30214.255500000058,
      "d": 171.4284000000007,
      "v": 100
    },
    {
      "midi": 66,
      "hit": false,
      "t": 30214.255500000058,
      "d": 171.4284000000007,
      "v": 100
    },
    {
      "midi": 50,
      "hit": false,
      "t": 30428.541000000005,
      "d": 342.8568000000014,
      "v": 100
    },
    {
      "midi": 50,
      "hit": false,
      "t": 30428.541000000005,
      "d": 342.8568000000014,
      "v": 100
    },
    {
      "midi": 64,
      "hit": false,
      "t": 30428.54100000006,
      "d": 171.4284000000007,
      "v": 100
    },
    {
      "midi": 64,
      "hit": false,
      "t": 30428.54100000006,
      "d": 171.4284000000007,
      "v": 100
    },
    {
      "midi": 62,
      "hit": false,
      "t": 30642.82650000006,
      "d": 171.4284000000007,
      "v": 100
    },
    {
      "midi": 62,
      "hit": false,
      "t": 30642.82650000006,
      "d": 171.4284000000007,
      "v": 100
    },
    {
      "midi": 45,
      "hit": false,
      "t": 30857.112000000005,
      "d": 342.8568000000014,
      "v": 100
    },
    {
      "midi": 45,
      "hit": false,
      "t": 30857.112000000005,
      "d": 342.8568000000014,
      "v": 100
    },
    {
      "midi": 64,
      "hit": false,
      "t": 30857.11200000001,
      "d": 514.2851999999984,
      "v": 100
    },
    {
      "midi": 69,
      "hit": false,
      "t": 30857.11200000001,
      "d": 514.2851999999984,
      "v": 100
    },
    {
      "midi": 73,
      "hit": false,
      "t": 30857.11200000001,
      "d": 514.2851999999984,
      "v": 100
    },
    {
      "midi": 61,
      "hit": false,
      "t": 30857.112000000063,
      "d": 171.4284000000007,
      "v": 100
    },
    {
      "midi": 61,
      "hit": false,
      "t": 30857.112000000063,
      "d": 171.4284000000007,
      "v": 100
    },
    {
      "midi": 61,
      "hit": false,
      "t": 31071.397500000065,
      "d": 171.4284000000007,
      "v": 100
    },
    {
      "midi": 61,
      "hit": false,
      "t": 31071.397500000065,
      "d": 171.4284000000007,
      "v": 100
    },
    {
      "midi": 45,
      "hit": false,
      "t": 31285.683000000005,
      "d": 171.4284000000007,
      "v": 100
    },
    {
      "midi": 45,
      "hit": false,
      "t": 31285.683000000005,
      "d": 171.4284000000007,
      "v": 100
    },
    {
      "midi": 61,
      "hit": false,
      "t": 31285.683000000066,
      "d": 171.4284000000007,
      "v": 100
    },
    {
      "midi": 61,
      "hit": false,
      "t": 31285.683000000066,
      "d": 171.4284000000007,
      "v": 100
    },
    {
      "midi": 43,
      "hit": false,
      "t": 31499.968500000006,
      "d": 385.71389999999883,
      "v": 100
    },
    {
      "midi": 62,
      "hit": false,
      "t": 31499.968500000006,
      "d": 899.9991000000009,
      "v": 100
    },
    {
      "midi": 67,
      "hit": false,
      "t": 31499.968500000006,
      "d": 899.9991000000009,
      "v": 100
    },
    {
      "midi": 71,
      "hit": false,
      "t": 31499.968500000006,
      "d": 899.9991000000009,
      "v": 100
    },
    {
      "midi": 43,
      "hit": false,
      "t": 31499.968500000006,
      "d": 385.71389999999883,
      "v": 100
    },
    {
      "midi": 62,
      "hit": false,
      "t": 31499.968500000068,
      "d": 899.9991000000009,
      "v": 100
    },
    {
      "midi": 62,
      "hit": false,
      "t": 31499.968500000068,
      "d": 899.9991000000009,
      "v": 100
    },
    {
      "midi": 42,
      "hit": false,
      "t": 31928.539500000006,
      "d": 171.4284000000007,
      "v": 100
    },
    {
      "midi": 42,
      "hit": false,
      "t": 31928.539500000006,
      "d": 171.4284000000007,
      "v": 100
    },
    {
      "midi": 43,
      "hit": false,
      "t": 32142.825000000008,
      "d": 171.4284000000007,
      "v": 100
    },
    {
      "midi": 43,
      "hit": false,
      "t": 32142.825000000008,
      "d": 171.4284000000007,
      "v": 100
    },
    {
      "midi": 44,
      "hit": false,
      "t": 32357.11050000001,
      "d": 171.4284000000007,
      "v": 100
    },
    {
      "midi": 44,
      "hit": false,
      "t": 32357.11050000001,
      "d": 171.4284000000007,
      "v": 100
    },
    {
      "midi": 69,
      "hit": false,
      "t": 32571.396,
      "d": 171.4284000000007,
      "v": 100
    },
    {
      "midi": 45,
      "hit": false,
      "t": 32571.39600000001,
      "d": 342.85679999999775,
      "v": 100
    },
    {
      "midi": 45,
      "hit": false,
      "t": 32571.39600000001,
      "d": 342.85679999999775,
      "v": 100
    },
    {
      "midi": 61,
      "hit": false,
      "t": 32785.6815,
      "d": 171.42839999999705,
      "v": 100
    },
    {
      "midi": 64,
      "hit": false,
      "t": 32999.967,
      "d": 171.42839999999705,
      "v": 100
    },
    {
      "midi": 45,
      "hit": false,
      "t": 32999.96700000001,
      "d": 342.8568000000014,
      "v": 100
    },
    {
      "midi": 45,
      "hit": false,
      "t": 32999.96700000001,
      "d": 342.8568000000014,
      "v": 100
    },
    {
      "midi": 69,
      "hit": false,
      "t": 33214.252499999995,
      "d": 171.42839999999705,
      "v": 100
    },
    {
      "midi": 67,
      "hit": false,
      "t": 33428.53799999999,
      "d": 171.42839999999705,
      "v": 100
    },
    {
      "midi": 43,
      "hit": false,
      "t": 33428.538000000015,
      "d": 342.8568000000014,
      "v": 100
    },
    {
      "midi": 43,
      "hit": false,
      "t": 33428.538000000015,
      "d": 342.8568000000014,
      "v": 100
    },
    {
      "midi": 61,
      "hit": false,
      "t": 33642.82349999999,
      "d": 171.42839999999705,
      "v": 100
    },
    {
      "midi": 64,
      "hit": false,
      "t": 33857.10899999999,
      "d": 171.42839999999705,
      "v": 100
    },
    {
      "midi": 43,
      "hit": false,
      "t": 33857.10900000002,
      "d": 342.8568000000014,
      "v": 100
    },
    {
      "midi": 43,
      "hit": false,
      "t": 33857.10900000002,
      "d": 342.8568000000014,
      "v": 100
    },
    {
      "midi": 67,
      "hit": false,
      "t": 34071.39449999999,
      "d": 171.42839999999705,
      "v": 100
    },
    {
      "midi": 66,
      "hit": false,
      "t": 34285.679999999986,
      "d": 171.42839999999705,
      "v": 100
    },
    {
      "midi": 42,
      "hit": false,
      "t": 34285.68000000002,
      "d": 342.8568000000014,
      "v": 100
    },
    {
      "midi": 42,
      "hit": false,
      "t": 34285.68000000002,
      "d": 342.8568000000014,
      "v": 100
    },
    {
      "midi": 57,
      "hit": false,
      "t": 34499.965499999984,
      "d": 171.42839999999705,
      "v": 100
    },
    {
      "midi": 61,
      "hit": false,
      "t": 34714.25099999998,
      "d": 171.42839999999705,
      "v": 100
    },
    {
      "midi": 42,
      "hit": false,
      "t": 34714.251000000026,
      "d": 342.8568000000014,
      "v": 100
    },
    {
      "midi": 42,
      "hit": false,
      "t": 34714.251000000026,
      "d": 342.8568000000014,
      "v": 100
    },
    {
      "midi": 66,
      "hit": false,
      "t": 34928.53649999998,
      "d": 171.42839999999705,
      "v": 100
    },
    {
      "midi": 64,
      "hit": false,
      "t": 35142.82199999998,
      "d": 171.42839999999705,
      "v": 100
    },
    {
      "midi": 40,
      "hit": false,
      "t": 35142.82200000003,
      "d": 342.8568000000014,
      "v": 100
    },
    {
      "midi": 40,
      "hit": false,
      "t": 35142.82200000003,
      "d": 342.8568000000014,
      "v": 100
    },
    {
      "midi": 57,
      "hit": false,
      "t": 35142.82200000007,
      "d": 171.42839999999705,
      "v": 100
    },
    {
      "midi": 57,
      "hit": false,
      "t": 35142.82200000007,
      "d": 171.42839999999705,
      "v": 100
    },
    {
      "midi": 57,
      "hit": false,
      "t": 35357.10749999998,
      "d": 171.42839999999705,
      "v": 100
    },
    {
      "midi": 62,
      "hit": false,
      "t": 35357.10750000007,
      "d": 171.42839999999705,
      "v": 100
    },
    {
      "midi": 62,
      "hit": false,
      "t": 35357.10750000007,
      "d": 171.42839999999705,
      "v": 100
    },
    {
      "midi": 61,
      "hit": false,
      "t": 35571.392999999975,
      "d": 171.42839999999705,
      "v": 100
    },
    {
      "midi": 40,
      "hit": false,
      "t": 35571.39300000003,
      "d": 342.8568000000014,
      "v": 100
    },
    {
      "midi": 40,
      "hit": false,
      "t": 35571.39300000003,
      "d": 342.8568000000014,
      "v": 100
    },
    {
      "midi": 64,
      "hit": false,
      "t": 35571.39300000007,
      "d": 171.42839999999705,
      "v": 100
    },
    {
      "midi": 64,
      "hit": false,
      "t": 35571.39300000007,
      "d": 171.42839999999705,
      "v": 100
    },
    {
      "midi": 64,
      "hit": false,
      "t": 35785.67849999997,
      "d": 171.42839999999705,
      "v": 100
    },
    {
      "midi": 62,
      "hit": false,
      "t": 35999.96400000001,
      "d": 3085.711199999998,
      "v": 100
    },
    {
      "midi": 66,
      "hit": false,
      "t": 35999.96400000001,
      "d": 3085.711199999998,
      "v": 100
    },
    {
      "midi": 69,
      "hit": false,
      "t": 35999.96400000001,
      "d": 3085.711199999998,
      "v": 100
    },
    {
      "midi": 50,
      "hit": false,
      "t": 35999.964000000036,
      "d": 342.8568000000014,
      "v": 100
    },
    {
      "midi": 50,
      "hit": false,
      "t": 35999.964000000036,
      "d": 342.8568000000014,
      "v": 100
    },
    {
      "midi": 66,
      "hit": false,
      "t": 35999.964000000065,
      "d": 685.7136000000028,
      "v": 100
    },
    {
      "midi": 66,
      "hit": false,
      "t": 35999.964000000065,
      "d": 685.7136000000028,
      "v": 100
    },
    {
      "midi": 50,
      "hit": false,
      "t": 36428.53500000004,
      "d": 342.8568000000014,
      "v": 100
    },
    {
      "midi": 50,
      "hit": false,
      "t": 36428.53500000004,
      "d": 342.8568000000014,
      "v": 100
    },
    {
      "midi": 50,
      "hit": false,
      "t": 36857.10600000004,
      "d": 342.8568000000014,
      "v": 100
    },
    {
      "midi": 50,
      "hit": false,
      "t": 36857.10600000004,
      "d": 342.8568000000014,
      "v": 100
    },
    {
      "midi": 64,
      "hit": false,
      "t": 36857.106000000065,
      "d": 171.42839999999705,
      "v": 100
    },
    {
      "midi": 64,
      "hit": false,
      "t": 36857.106000000065,
      "d": 171.42839999999705,
      "v": 100
    },
    {
      "midi": 66,
      "hit": false,
      "t": 37071.39150000006,
      "d": 171.42839999999705,
      "v": 100
    },
    {
      "midi": 66,
      "hit": false,
      "t": 37071.39150000006,
      "d": 171.42839999999705,
      "v": 100
    },
    {
      "midi": 50,
      "hit": false,
      "t": 37285.67700000005,
      "d": 342.8568000000014,
      "v": 100
    },
    {
      "midi": 50,
      "hit": false,
      "t": 37285.67700000005,
      "d": 342.8568000000014,
      "v": 100
    },
    {
      "midi": 64,
      "hit": false,
      "t": 37285.67700000006,
      "d": 171.42839999999705,
      "v": 100
    },
    {
      "midi": 64,
      "hit": false,
      "t": 37285.67700000006,
      "d": 171.42839999999705,
      "v": 100
    },
    {
      "midi": 66,
      "hit": false,
      "t": 37499.96250000006,
      "d": 171.42839999999705,
      "v": 100
    },
    {
      "midi": 66,
      "hit": false,
      "t": 37499.96250000006,
      "d": 171.42839999999705,
      "v": 100
    },
    {
      "midi": 50,
      "hit": false,
      "t": 37714.24800000005,
      "d": 342.8568000000014,
      "v": 100
    },
    {
      "midi": 50,
      "hit": false,
      "t": 37714.24800000005,
      "d": 342.8568000000014,
      "v": 100
    },
    {
      "midi": 64,
      "hit": false,
      "t": 37714.24800000006,
      "d": 171.42839999999705,
      "v": 100
    },
    {
      "midi": 64,
      "hit": false,
      "t": 37714.24800000006,
      "d": 171.42839999999705,
      "v": 100
    },
    {
      "midi": 62,
      "hit": false,
      "t": 37928.533500000056,
      "d": 171.42839999999705,
      "v": 100
    },
    {
      "midi": 62,
      "hit": false,
      "t": 37928.533500000056,
      "d": 171.42839999999705,
      "v": 100
    },
    {
      "midi": 62,
      "hit": false,
      "t": 38142.819000000054,
      "d": 171.42839999999705,
      "v": 100
    },
    {
      "midi": 50,
      "hit": false,
      "t": 38142.819000000054,
      "d": 342.8568000000014,
      "v": 100
    },
    {
      "midi": 62,
      "hit": false,
      "t": 38142.819000000054,
      "d": 171.42839999999705,
      "v": 100
    },
    {
      "midi": 50,
      "hit": false,
      "t": 38142.819000000054,
      "d": 342.8568000000014,
      "v": 100
    },
    {
      "midi": 62,
      "hit": false,
      "t": 38357.10450000005,
      "d": 171.42839999999705,
      "v": 100
    },
    {
      "midi": 62,
      "hit": false,
      "t": 38357.10450000005,
      "d": 171.42839999999705,
      "v": 100
    },
    {
      "midi": 62,
      "hit": false,
      "t": 38571.39000000005,
      "d": 171.42839999999705,
      "v": 100
    },
    {
      "midi": 62,
      "hit": false,
      "t": 38571.39000000005,
      "d": 171.42839999999705,
      "v": 100
    },
    {
      "midi": 50,
      "hit": false,
      "t": 38571.39000000006,
      "d": 342.8568000000014,
      "v": 100
    },
    {
      "midi": 50,
      "hit": false,
      "t": 38571.39000000006,
      "d": 342.8568000000014,
      "v": 100
    },
    {
      "midi": 57,
      "hit": false,
      "t": 38785.67550000005,
      "d": 171.42839999999705,
      "v": 100
    },
    {
      "midi": 57,
      "hit": false,
      "t": 38785.67550000005,
      "d": 171.42839999999705,
      "v": 100
    },
    {
      "midi": 62,
      "hit": false,
      "t": 38999.96100000005,
      "d": 171.42839999999705,
      "v": 100
    },
    {
      "midi": 62,
      "hit": false,
      "t": 38999.96100000005,
      "d": 171.42839999999705,
      "v": 100
    },
    {
      "midi": 50,
      "hit": false,
      "t": 38999.96100000006,
      "d": 342.8568000000014,
      "v": 100
    },
    {
      "midi": 50,
      "hit": false,
      "t": 38999.96100000006,
      "d": 342.8568000000014,
      "v": 100
    },
    {
      "midi": 64,
      "hit": false,
      "t": 39214.246500000045,
      "d": 171.42839999999705,
      "v": 100
    },
    {
      "midi": 64,
      "hit": false,
      "t": 39214.246500000045,
      "d": 171.42839999999705,
      "v": 100
    },
    {
      "midi": 62,
      "hit": false,
      "t": 39428.53200000001,
      "d": 3085.711199999998,
      "v": 100
    },
    {
      "midi": 66,
      "hit": false,
      "t": 39428.53200000001,
      "d": 3085.711199999998,
      "v": 100
    },
    {
      "midi": 69,
      "hit": false,
      "t": 39428.53200000001,
      "d": 3085.711199999998,
      "v": 100
    },
    {
      "midi": 66,
      "hit": false,
      "t": 39428.53200000004,
      "d": 685.7136000000028,
      "v": 100
    },
    {
      "midi": 66,
      "hit": false,
      "t": 39428.53200000004,
      "d": 685.7136000000028,
      "v": 100
    },
    {
      "midi": 50,
      "hit": false,
      "t": 39428.532000000065,
      "d": 342.8568000000014,
      "v": 100
    },
    {
      "midi": 50,
      "hit": false,
      "t": 39428.532000000065,
      "d": 342.8568000000014,
      "v": 100
    },
    {
      "midi": 50,
      "hit": false,
      "t": 39857.10300000007,
      "d": 342.8568000000014,
      "v": 100
    },
    {
      "midi": 50,
      "hit": false,
      "t": 39857.10300000007,
      "d": 342.8568000000014,
      "v": 100
    },
    {
      "midi": 64,
      "hit": false,
      "t": 40285.67400000004,
      "d": 171.42839999999705,
      "v": 100
    },
    {
      "midi": 64,
      "hit": false,
      "t": 40285.67400000004,
      "d": 171.42839999999705,
      "v": 100
    },
    {
      "midi": 50,
      "hit": false,
      "t": 40285.67400000007,
      "d": 342.8568000000014,
      "v": 100
    },
    {
      "midi": 50,
      "hit": false,
      "t": 40285.67400000007,
      "d": 342.8568000000014,
      "v": 100
    },
    {
      "midi": 66,
      "hit": false,
      "t": 40499.95950000004,
      "d": 171.42839999999705,
      "v": 100
    },
    {
      "midi": 66,
      "hit": false,
      "t": 40499.95950000004,
      "d": 171.42839999999705,
      "v": 100
    },
    {
      "midi": 64,
      "hit": false,
      "t": 40714.24500000004,
      "d": 171.42839999999705,
      "v": 100
    },
    {
      "midi": 64,
      "hit": false,
      "t": 40714.24500000004,
      "d": 171.42839999999705,
      "v": 100
    },
    {
      "midi": 50,
      "hit": false,
      "t": 40714.245000000075,
      "d": 342.8568000000014,
      "v": 100
    },
    {
      "midi": 50,
      "hit": false,
      "t": 40714.245000000075,
      "d": 342.8568000000014,
      "v": 100
    },
    {
      "midi": 66,
      "hit": false,
      "t": 40928.53050000004,
      "d": 171.42839999999705,
      "v": 100
    },
    {
      "midi": 66,
      "hit": false,
      "t": 40928.53050000004,
      "d": 171.42839999999705,
      "v": 100
    },
    {
      "midi": 64,
      "hit": false,
      "t": 41142.816000000035,
      "d": 171.42839999999705,
      "v": 100
    },
    {
      "midi": 64,
      "hit": false,
      "t": 41142.816000000035,
      "d": 171.42839999999705,
      "v": 100
    },
    {
      "midi": 50,
      "hit": false,
      "t": 41142.81600000008,
      "d": 342.8568000000014,
      "v": 100
    },
    {
      "midi": 50,
      "hit": false,
      "t": 41142.81600000008,
      "d": 342.8568000000014,
      "v": 100
    },
    {
      "midi": 62,
      "hit": false,
      "t": 41357.10150000003,
      "d": 171.42839999999705,
      "v": 100
    },
    {
      "midi": 62,
      "hit": false,
      "t": 41357.10150000003,
      "d": 171.42839999999705,
      "v": 100
    },
    {
      "midi": 62,
      "hit": false,
      "t": 41571.38700000003,
      "d": 171.42839999999705,
      "v": 100
    },
    {
      "midi": 62,
      "hit": false,
      "t": 41571.38700000003,
      "d": 171.42839999999705,
      "v": 100
    },
    {
      "midi": 50,
      "hit": false,
      "t": 41571.38700000008,
      "d": 342.8568000000014,
      "v": 100
    },
    {
      "midi": 50,
      "hit": false,
      "t": 41571.38700000008,
      "d": 342.8568000000014,
      "v": 100
    },
    {
      "midi": 62,
      "hit": false,
      "t": 41785.67250000003,
      "d": 171.42839999999705,
      "v": 100
    },
    {
      "midi": 62,
      "hit": false,
      "t": 41785.67250000003,
      "d": 171.42839999999705,
      "v": 100
    },
    {
      "midi": 62,
      "hit": false,
      "t": 41999.95800000003,
      "d": 685.7136000000028,
      "v": 100
    },
    {
      "midi": 62,
      "hit": false,
      "t": 41999.95800000003,
      "d": 685.7136000000028,
      "v": 100
    },
    {
      "midi": 50,
      "hit": false,
      "t": 41999.958000000086,
      "d": 342.8568000000014,
      "v": 100
    },
    {
      "midi": 50,
      "hit": false,
      "t": 41999.958000000086,
      "d": 342.8568000000014,
      "v": 100
    },
    {
      "midi": 52,
      "hit": false,
      "t": 42428.52900000009,
      "d": 171.42839999999705,
      "v": 100
    },
    {
      "midi": 52,
      "hit": false,
      "t": 42428.52900000009,
      "d": 171.42839999999705,
      "v": 100
    },
    {
      "midi": 54,
      "hit": false,
      "t": 42642.81450000009,
      "d": 171.42839999999705,
      "v": 100
    },
    {
      "midi": 54,
      "hit": false,
      "t": 42642.81450000009,
      "d": 171.42839999999705,
      "v": 100
    },
    {
      "midi": 62,
      "hit": false,
      "t": 42857.100000000006,
      "d": 1371.4271999999983,
      "v": 100
    },
    {
      "midi": 67,
      "hit": false,
      "t": 42857.100000000006,
      "d": 1371.4271999999983,
      "v": 100
    },
    {
      "midi": 71,
      "hit": false,
      "t": 42857.100000000006,
      "d": 1371.4271999999983,
      "v": 100
    },
    {
      "midi": 71,
      "hit": false,
      "t": 42857.10000000003,
      "d": 514.2851999999984,
      "v": 100
    },
    {
      "midi": 71,
      "hit": false,
      "t": 42857.10000000003,
      "d": 514.2851999999984,
      "v": 100
    },
    {
      "midi": 55,
      "hit": false,
      "t": 42857.100000000086,
      "d": 342.8568000000014,
      "v": 100
    },
    {
      "midi": 55,
      "hit": false,
      "t": 42857.100000000086,
      "d": 342.8568000000014,
      "v": 100
    },
    {
      "midi": 55,
      "hit": false,
      "t": 43285.67100000009,
      "d": 342.8568000000014,
      "v": 100
    },
    {
      "midi": 55,
      "hit": false,
      "t": 43285.67100000009,
      "d": 342.8568000000014,
      "v": 100
    },
    {
      "midi": 67,
      "hit": false,
      "t": 43499.95650000003,
      "d": 171.42839999999705,
      "v": 100
    },
    {
      "midi": 67,
      "hit": false,
      "t": 43499.95650000003,
      "d": 171.42839999999705,
      "v": 100
    },
    {
      "midi": 62,
      "hit": false,
      "t": 43714.24200000003,
      "d": 171.42839999999705,
      "v": 100
    },
    {
      "midi": 62,
      "hit": false,
      "t": 43714.24200000003,
      "d": 171.42839999999705,
      "v": 100
    },
    {
      "midi": 55,
      "hit": false,
      "t": 43714.24200000009,
      "d": 342.8568000000014,
      "v": 100
    },
    {
      "midi": 55,
      "hit": false,
      "t": 43714.24200000009,
      "d": 342.8568000000014,
      "v": 100
    },
    {
      "midi": 62,
      "hit": false,
      "t": 43928.527500000026,
      "d": 171.42839999999705,
      "v": 100
    },
    {
      "midi": 62,
      "hit": false,
      "t": 43928.527500000026,
      "d": 171.42839999999705,
      "v": 100
    },
    {
      "midi": 62,
      "hit": false,
      "t": 44142.813000000024,
      "d": 171.42839999999705,
      "v": 100
    },
    {
      "midi": 62,
      "hit": false,
      "t": 44142.813000000024,
      "d": 171.42839999999705,
      "v": 100
    },
    {
      "midi": 55,
      "hit": false,
      "t": 44142.8130000001,
      "d": 342.8568000000014,
      "v": 100
    },
    {
      "midi": 55,
      "hit": false,
      "t": 44142.8130000001,
      "d": 342.8568000000014,
      "v": 100
    },
    {
      "midi": 71,
      "hit": false,
      "t": 44357.09850000002,
      "d": 171.42839999999705,
      "v": 100
    },
    {
      "midi": 71,
      "hit": false,
      "t": 44357.09850000002,
      "d": 171.42839999999705,
      "v": 100
    },
    {
      "midi": 62,
      "hit": false,
      "t": 44571.384000000005,
      "d": 1371.4271999999983,
      "v": 100
    },
    {
      "midi": 66,
      "hit": false,
      "t": 44571.384000000005,
      "d": 1371.4271999999983,
      "v": 100
    },
    {
      "midi": 69,
      "hit": false,
      "t": 44571.384000000005,
      "d": 1371.4271999999983,
      "v": 100
    },
    {
      "midi": 69,
      "hit": false,
      "t": 44571.38400000002,
      "d": 1371.4271999999983,
      "v": 100
    },
    {
      "midi": 69,
      "hit": false,
      "t": 44571.38400000002,
      "d": 1371.4271999999983,
      "v": 100
    },
    {
      "midi": 54,
      "hit": false,
      "t": 44571.3840000001,
      "d": 342.8568000000014,
      "v": 100
    },
    {
      "midi": 54,
      "hit": false,
      "t": 44571.3840000001,
      "d": 342.8568000000014,
      "v": 100
    },
    {
      "midi": 54,
      "hit": false,
      "t": 44999.9550000001,
      "d": 342.8568000000014,
      "v": 100
    },
    {
      "midi": 54,
      "hit": false,
      "t": 44999.9550000001,
      "d": 342.8568000000014,
      "v": 100
    },
    {
      "midi": 54,
      "hit": false,
      "t": 45428.52600000011,
      "d": 342.8568000000014,
      "v": 100
    },
    {
      "midi": 54,
      "hit": false,
      "t": 45428.52600000011,
      "d": 342.8568000000014,
      "v": 100
    },
    {
      "midi": 54,
      "hit": false,
      "t": 45857.09700000011,
      "d": 342.8568000000014,
      "v": 100
    },
    {
      "midi": 54,
      "hit": false,
      "t": 45857.09700000011,
      "d": 342.8568000000014,
      "v": 100
    },
    {
      "midi": 64,
      "hit": false,
      "t": 46285.668000000005,
      "d": 685.7136000000028,
      "v": 100
    },
    {
      "midi": 67,
      "hit": false,
      "t": 46285.668000000005,
      "d": 685.7136000000028,
      "v": 100
    },
    {
      "midi": 71,
      "hit": false,
      "t": 46285.668000000005,
      "d": 685.7136000000028,
      "v": 100
    },
    {
      "midi": 64,
      "hit": false,
      "t": 46285.66800000002,
      "d": 514.2851999999984,
      "v": 100
    },
    {
      "midi": 64,
      "hit": false,
      "t": 46285.66800000002,
      "d": 514.2851999999984,
      "v": 100
    },
    {
      "midi": 52,
      "hit": false,
      "t": 46285.668000000114,
      "d": 342.8568000000014,
      "v": 100
    },
    {
      "midi": 52,
      "hit": false,
      "t": 46285.668000000114,
      "d": 342.8568000000014,
      "v": 100
    },
    {
      "midi": 52,
      "hit": false,
      "t": 46714.23900000012,
      "d": 171.42839999999705,
      "v": 100
    },
    {
      "midi": 52,
      "hit": false,
      "t": 46714.23900000012,
      "d": 171.42839999999705,
      "v": 100
    },
    {
      "midi": 66,
      "hit": false,
      "t": 46928.52450000002,
      "d": 171.42839999999705,
      "v": 100
    },
    {
      "midi": 66,
      "hit": false,
      "t": 46928.52450000002,
      "d": 171.42839999999705,
      "v": 100
    },
    {
      "midi": 50,
      "hit": false,
      "t": 46928.524500000116,
      "d": 171.42839999999705,
      "v": 100
    },
    {
      "midi": 50,
      "hit": false,
      "t": 46928.524500000116,
      "d": 171.42839999999705,
      "v": 100
    },
    {
      "midi": 64,
      "hit": false,
      "t": 47142.810000000005,
      "d": 685.7136000000028,
      "v": 100
    },
    {
      "midi": 67,
      "hit": false,
      "t": 47142.810000000005,
      "d": 685.7136000000028,
      "v": 100
    },
    {
      "midi": 72,
      "hit": false,
      "t": 47142.810000000005,
      "d": 685.7136000000028,
      "v": 100
    },
    {
      "midi": 64,
      "hit": false,
      "t": 47142.81000000002,
      "d": 171.42839999999705,
      "v": 100
    },
    {
      "midi": 64,
      "hit": false,
      "t": 47142.81000000002,
      "d": 171.42839999999705,
      "v": 100
    },
    {
      "midi": 48,
      "hit": false,
      "t": 47142.810000000114,
      "d": 342.8568000000014,
      "v": 100
    },
    {
      "midi": 48,
      "hit": false,
      "t": 47142.810000000114,
      "d": 342.8568000000014,
      "v": 100
    },
    {
      "midi": 64,
      "hit": false,
      "t": 47357.09550000002,
      "d": 171.42839999999705,
      "v": 100
    },
    {
      "midi": 64,
      "hit": false,
      "t": 47357.09550000002,
      "d": 171.42839999999705,
      "v": 100
    },
    {
      "midi": 66,
      "hit": false,
      "t": 47571.381000000016,
      "d": 171.42839999999705,
      "v": 100
    },
    {
      "midi": 66,
      "hit": false,
      "t": 47571.381000000016,
      "d": 171.42839999999705,
      "v": 100
    },
    {
      "midi": 48,
      "hit": false,
      "t": 47571.38100000012,
      "d": 171.42839999999705,
      "v": 100
    },
    {
      "midi": 48,
      "hit": false,
      "t": 47571.38100000012,
      "d": 171.42839999999705,
      "v": 100
    },
    {
      "midi": 67,
      "hit": false,
      "t": 47785.666500000014,
      "d": 171.42839999999705,
      "v": 100
    },
    {
      "midi": 67,
      "hit": false,
      "t": 47785.666500000014,
      "d": 171.42839999999705,
      "v": 100
    },
    {
      "midi": 47,
      "hit": false,
      "t": 47785.666500000116,
      "d": 171.42839999999705,
      "v": 100
    },
    {
      "midi": 47,
      "hit": false,
      "t": 47785.666500000116,
      "d": 171.42839999999705,
      "v": 100
    },
    {
      "midi": 64,
      "hit": false,
      "t": 47999.952000000005,
      "d": 1371.4271999999983,
      "v": 100
    },
    {
      "midi": 69,
      "hit": false,
      "t": 47999.952000000005,
      "d": 1371.4271999999983,
      "v": 100
    },
    {
      "midi": 73,
      "hit": false,
      "t": 47999.952000000005,
      "d": 1371.4271999999983,
      "v": 100
    },
    {
      "midi": 69,
      "hit": false,
      "t": 47999.95200000001,
      "d": 685.7136000000028,
      "v": 100
    },
    {
      "midi": 69,
      "hit": false,
      "t": 47999.95200000001,
      "d": 685.7136000000028,
      "v": 100
    },
    {
      "midi": 45,
      "hit": false,
      "t": 47999.952000000114,
      "d": 342.8568000000014,
      "v": 100
    },
    {
      "midi": 45,
      "hit": false,
      "t": 47999.952000000114,
      "d": 342.8568000000014,
      "v": 100
    },
    {
      "midi": 45,
      "hit": false,
      "t": 48428.52300000012,
      "d": 342.8568000000014,
      "v": 100
    },
    {
      "midi": 45,
      "hit": false,
      "t": 48428.52300000012,
      "d": 342.8568000000014,
      "v": 100
    },
    {
      "midi": 45,
      "hit": false,
      "t": 48857.09400000012,
      "d": 342.8568000000014,
      "v": 100
    },
    {
      "midi": 45,
      "hit": false,
      "t": 48857.09400000012,
      "d": 342.8568000000014,
      "v": 100
    },
    {
      "midi": 57,
      "hit": false,
      "t": 49071.37950000002,
      "d": 171.42839999999705,
      "v": 100
    },
    {
      "midi": 57,
      "hit": false,
      "t": 49071.37950000002,
      "d": 171.42839999999705,
      "v": 100
    },
    {
      "midi": 62,
      "hit": false,
      "t": 49285.665000000015,
      "d": 171.42839999999705,
      "v": 100
    },
    {
      "midi": 62,
      "hit": false,
      "t": 49285.665000000015,
      "d": 171.42839999999705,
      "v": 100
    },
    {
      "midi": 45,
      "hit": false,
      "t": 49285.665000000125,
      "d": 342.8568000000014,
      "v": 100
    },
    {
      "midi": 45,
      "hit": false,
      "t": 49285.665000000125,
      "d": 342.8568000000014,
      "v": 100
    },
    {
      "midi": 64,
      "hit": false,
      "t": 49499.95050000001,
      "d": 171.42839999999705,
      "v": 100
    },
    {
      "midi": 64,
      "hit": false,
      "t": 49499.95050000001,
      "d": 171.42839999999705,
      "v": 100
    },
    {
      "midi": 66,
      "hit": false,
      "t": 49714.236000000004,
      "d": 1371.4271999999983,
      "v": 100
    },
    {
      "midi": 69,
      "hit": false,
      "t": 49714.236000000004,
      "d": 1371.4271999999983,
      "v": 100
    },
    {
      "midi": 74,
      "hit": false,
      "t": 49714.236000000004,
      "d": 1371.4271999999983,
      "v": 100
    },
    {
      "midi": 66,
      "hit": false,
      "t": 49714.23600000001,
      "d": 685.7136000000028,
      "v": 100
    },
    {
      "midi": 66,
      "hit": false,
      "t": 49714.23600000001,
      "d": 685.7136000000028,
      "v": 100
    },
    {
      "midi": 50,
      "hit": false,
      "t": 49714.23600000013,
      "d": 342.8568000000014,
      "v": 100
    },
    {
      "midi": 50,
      "hit": false,
      "t": 49714.23600000013,
      "d": 342.8568000000014,
      "v": 100
    },
    {
      "midi": 50,
      "hit": false,
      "t": 50142.80700000013,
      "d": 342.8568000000014,
      "v": 100
    },
    {
      "midi": 50,
      "hit": false,
      "t": 50142.80700000013,
      "d": 342.8568000000014,
      "v": 100
    },
    {
      "midi": 64,
      "hit": false,
      "t": 50571.37800000001,
      "d": 171.42839999999705,
      "v": 100
    },
    {
      "midi": 64,
      "hit": false,
      "t": 50571.37800000001,
      "d": 171.42839999999705,
      "v": 100
    },
    {
      "midi": 50,
      "hit": false,
      "t": 50571.378000000135,
      "d": 342.8568000000014,
      "v": 100
    },
    {
      "midi": 50,
      "hit": false,
      "t": 50571.378000000135,
      "d": 342.8568000000014,
      "v": 100
    },
    {
      "midi": 66,
      "hit": false,
      "t": 50785.66350000001,
      "d": 171.42839999999705,
      "v": 100
    },
    {
      "midi": 66,
      "hit": false,
      "t": 50785.66350000001,
      "d": 171.42839999999705,
      "v": 100
    },
    {
      "midi": 64,
      "hit": false,
      "t": 50999.94900000001,
      "d": 171.42839999999705,
      "v": 100
    },
    {
      "midi": 64,
      "hit": false,
      "t": 50999.94900000001,
      "d": 171.42839999999705,
      "v": 100
    },
    {
      "midi": 50,
      "hit": false,
      "t": 50999.94900000014,
      "d": 342.8568000000014,
      "v": 100
    },
    {
      "midi": 50,
      "hit": false,
      "t": 50999.94900000014,
      "d": 342.8568000000014,
      "v": 100
    },
    {
      "midi": 62,
      "hit": false,
      "t": 51214.234500000006,
      "d": 171.42839999999705,
      "v": 100
    },
    {
      "midi": 62,
      "hit": false,
      "t": 51214.234500000006,
      "d": 171.42839999999705,
      "v": 100
    },
    {
      "midi": 61,
      "hit": false,
      "t": 51428.520000000004,
      "d": 171.42839999999705,
      "v": 100
    },
    {
      "midi": 61,
      "hit": false,
      "t": 51428.520000000004,
      "d": 171.42839999999705,
      "v": 100
    },
    {
      "midi": 64,
      "hit": false,
      "t": 51428.520000000004,
      "d": 514.2851999999984,
      "v": 100
    },
    {
      "midi": 69,
      "hit": false,
      "t": 51428.520000000004,
      "d": 514.2851999999984,
      "v": 100
    },
    {
      "midi": 73,
      "hit": false,
      "t": 51428.520000000004,
      "d": 514.2851999999984,
      "v": 100
    },
    {
      "midi": 45,
      "hit": false,
      "t": 51428.52000000014,
      "d": 342.8568000000014,
      "v": 100
    },
    {
      "midi": 45,
      "hit": false,
      "t": 51428.52000000014,
      "d": 342.8568000000014,
      "v": 100
    },
    {
      "midi": 61,
      "hit": false,
      "t": 51642.8055,
      "d": 171.42839999999705,
      "v": 100
    },
    {
      "midi": 61,
      "hit": false,
      "t": 51642.8055,
      "d": 171.42839999999705,
      "v": 100
    },
    {
      "midi": 61,
      "hit": false,
      "t": 51857.091,
      "d": 171.42839999999705,
      "v": 100
    },
    {
      "midi": 61,
      "hit": false,
      "t": 51857.091,
      "d": 171.42839999999705,
      "v": 100
    },
    {
      "midi": 45,
      "hit": false,
      "t": 51857.091000000146,
      "d": 171.42839999999705,
      "v": 100
    },
    {
      "midi": 45,
      "hit": false,
      "t": 51857.091000000146,
      "d": 171.42839999999705,
      "v": 100
    },
    {
      "midi": 62,
      "hit": false,
      "t": 52071.3765,
      "d": 899.9991000000009,
      "v": 100
    },
    {
      "midi": 62,
      "hit": false,
      "t": 52071.3765,
      "d": 899.9991000000009,
      "v": 100
    },
    {
      "midi": 62,
      "hit": false,
      "t": 52071.376500000006,
      "d": 899.9991000000009,
      "v": 100
    },
    {
      "midi": 67,
      "hit": false,
      "t": 52071.376500000006,
      "d": 899.9991000000009,
      "v": 100
    },
    {
      "midi": 71,
      "hit": false,
      "t": 52071.376500000006,
      "d": 899.9991000000009,
      "v": 100
    },
    {
      "midi": 43,
      "hit": false,
      "t": 52071.376500000144,
      "d": 385.71390000000247,
      "v": 100
    },
    {
      "midi": 43,
      "hit": false,
      "t": 52071.376500000144,
      "d": 385.71390000000247,
      "v": 100
    },
    {
      "midi": 42,
      "hit": false,
      "t": 52499.94750000015,
      "d": 171.42839999999705,
      "v": 100
    },
    {
      "midi": 42,
      "hit": false,
      "t": 52499.94750000015,
      "d": 171.42839999999705,
      "v": 100
    },
    {
      "midi": 43,
      "hit": false,
      "t": 52714.233000000146,
      "d": 171.42839999999705,
      "v": 100
    },
    {
      "midi": 43,
      "hit": false,
      "t": 52714.233000000146,
      "d": 171.42839999999705,
      "v": 100
    },
    {
      "midi": 44,
      "hit": false,
      "t": 52928.518500000144,
      "d": 171.42839999999705,
      "v": 100
    },
    {
      "midi": 44,
      "hit": false,
      "t": 52928.518500000144,
      "d": 171.42839999999705,
      "v": 100
    },
    {
      "midi": 61,
      "hit": false,
      "t": 53142.803999999975,
      "d": 171.42839999999705,
      "v": 100
    },
    {
      "midi": 45,
      "hit": false,
      "t": 53142.80400000014,
      "d": 342.8568000000014,
      "v": 100
    },
    {
      "midi": 45,
      "hit": false,
      "t": 53142.80400000014,
      "d": 342.8568000000014,
      "v": 100
    },
    {
      "midi": 57,
      "hit": false,
      "t": 53357.08949999997,
      "d": 171.42839999999705,
      "v": 100
    },
    {
      "midi": 61,
      "hit": false,
      "t": 53571.37499999997,
      "d": 171.42839999999705,
      "v": 100
    },
    {
      "midi": 45,
      "hit": false,
      "t": 53571.375000000146,
      "d": 342.8568000000014,
      "v": 100
    },
    {
      "midi": 45,
      "hit": false,
      "t": 53571.375000000146,
      "d": 342.8568000000014,
      "v": 100
    },
    {
      "midi": 64,
      "hit": false,
      "t": 53785.66049999997,
      "d": 171.42839999999705,
      "v": 100
    },
    {
      "midi": 62,
      "hit": false,
      "t": 53999.94599999997,
      "d": 171.42839999999705,
      "v": 100
    },
    {
      "midi": 47,
      "hit": false,
      "t": 53999.94600000015,
      "d": 342.8568000000014,
      "v": 100
    },
    {
      "midi": 47,
      "hit": false,
      "t": 53999.94600000015,
      "d": 342.8568000000014,
      "v": 100
    },
    {
      "midi": 59,
      "hit": false,
      "t": 54214.231499999965,
      "d": 171.42839999999705,
      "v": 100
    },
    {
      "midi": 62,
      "hit": false,
      "t": 54428.51699999996,
      "d": 171.42839999999705,
      "v": 100
    },
    {
      "midi": 47,
      "hit": false,
      "t": 54428.51700000015,
      "d": 342.8568000000014,
      "v": 100
    },
    {
      "midi": 47,
      "hit": false,
      "t": 54428.51700000015,
      "d": 342.8568000000014,
      "v": 100
    },
    {
      "midi": 66,
      "hit": false,
      "t": 54642.80249999996,
      "d": 171.42839999999705,
      "v": 100
    },
    {
      "midi": 63,
      "hit": false,
      "t": 54857.08799999996,
      "d": 171.42839999999705,
      "v": 100
    },
    {
      "midi": 48,
      "hit": false,
      "t": 54857.088000000156,
      "d": 342.8568000000014,
      "v": 100
    },
    {
      "midi": 48,
      "hit": false,
      "t": 54857.088000000156,
      "d": 342.8568000000014,
      "v": 100
    },
    {
      "midi": 60,
      "hit": false,
      "t": 55071.37349999996,
      "d": 171.42839999999705,
      "v": 100
    },
    {
      "midi": 63,
      "hit": false,
      "t": 55285.658999999956,
      "d": 171.42839999999705,
      "v": 100
    },
    {
      "midi": 48,
      "hit": false,
      "t": 55285.65900000016,
      "d": 342.8568000000014,
      "v": 100
    },
    {
      "midi": 48,
      "hit": false,
      "t": 55285.65900000016,
      "d": 342.8568000000014,
      "v": 100
    },
    {
      "midi": 66,
      "hit": false,
      "t": 55499.944499999954,
      "d": 171.42839999999705,
      "v": 100
    },
    {
      "midi": 69,
      "hit": false,
      "t": 55714.22999999995,
      "d": 685.7136000000028,
      "v": 100
    },
    {
      "midi": 49,
      "hit": false,
      "t": 55714.23000000016,
      "d": 342.8568000000014,
      "v": 100
    },
    {
      "midi": 49,
      "hit": false,
      "t": 55714.23000000016,
      "d": 342.8568000000014,
      "v": 100
    },
    {
      "midi": 57,
      "hit": false,
      "t": 55928.5155,
      "d": 171.42839999999705,
      "v": 100
    },
    {
      "midi": 57,
      "hit": false,
      "t": 55928.5155,
      "d": 171.42839999999705,
      "v": 100
    },
    {
      "midi": 62,
      "hit": false,
      "t": 56142.801,
      "d": 171.42839999999705,
      "v": 100
    },
    {
      "midi": 62,
      "hit": false,
      "t": 56142.801,
      "d": 171.42839999999705,
      "v": 100
    },
    {
      "midi": 49,
      "hit": false,
      "t": 56142.80100000017,
      "d": 342.8568000000014,
      "v": 100
    },
    {
      "midi": 49,
      "hit": false,
      "t": 56142.80100000017,
      "d": 342.8568000000014,
      "v": 100
    },
    {
      "midi": 64,
      "hit": false,
      "t": 56357.0865,
      "d": 171.42839999999705,
      "v": 100
    },
    {
      "midi": 64,
      "hit": false,
      "t": 56357.0865,
      "d": 171.42839999999705,
      "v": 100
    },
    {
      "midi": 66,
      "hit": false,
      "t": 56571.371999999996,
      "d": 685.7136000000028,
      "v": 100
    },
    {
      "midi": 66,
      "hit": false,
      "t": 56571.371999999996,
      "d": 685.7136000000028,
      "v": 100
    },
    {
      "midi": 62,
      "hit": false,
      "t": 56571.37200000001,
      "d": 3085.711199999998,
      "v": 100
    },
    {
      "midi": 66,
      "hit": false,
      "t": 56571.37200000001,
      "d": 3085.711199999998,
      "v": 100
    },
    {
      "midi": 69,
      "hit": false,
      "t": 56571.37200000001,
      "d": 3085.711199999998,
      "v": 100
    },
    {
      "midi": 50,
      "hit": false,
      "t": 56571.37200000017,
      "d": 342.8568000000014,
      "v": 100
    },
    {
      "midi": 50,
      "hit": false,
      "t": 56571.37200000017,
      "d": 342.8568000000014,
      "v": 100
    },
    {
      "midi": 50,
      "hit": false,
      "t": 56999.943000000174,
      "d": 342.8568000000014,
      "v": 100
    },
    {
      "midi": 50,
      "hit": false,
      "t": 56999.943000000174,
      "d": 342.8568000000014,
      "v": 100
    },
    {
      "midi": 64,
      "hit": false,
      "t": 57428.513999999996,
      "d": 171.42839999999705,
      "v": 100
    },
    {
      "midi": 64,
      "hit": false,
      "t": 57428.513999999996,
      "d": 171.42839999999705,
      "v": 100
    },
    {
      "midi": 50,
      "hit": false,
      "t": 57428.51400000018,
      "d": 342.8568000000014,
      "v": 100
    },
    {
      "midi": 50,
      "hit": false,
      "t": 57428.51400000018,
      "d": 342.8568000000014,
      "v": 100
    },
    {
      "midi": 66,
      "hit": false,
      "t": 57642.799499999994,
      "d": 171.42839999999705,
      "v": 100
    },
    {
      "midi": 66,
      "hit": false,
      "t": 57642.799499999994,
      "d": 171.42839999999705,
      "v": 100
    },
    {
      "midi": 64,
      "hit": false,
      "t": 57857.08499999999,
      "d": 171.42839999999705,
      "v": 100
    },
    {
      "midi": 64,
      "hit": false,
      "t": 57857.08499999999,
      "d": 171.42839999999705,
      "v": 100
    },
    {
      "midi": 50,
      "hit": false,
      "t": 57857.08500000018,
      "d": 342.8568000000014,
      "v": 100
    },
    {
      "midi": 50,
      "hit": false,
      "t": 57857.08500000018,
      "d": 342.8568000000014,
      "v": 100
    },
    {
      "midi": 66,
      "hit": false,
      "t": 58071.37049999999,
      "d": 171.42839999999705,
      "v": 100
    },
    {
      "midi": 66,
      "hit": false,
      "t": 58071.37049999999,
      "d": 171.42839999999705,
      "v": 100
    },
    {
      "midi": 64,
      "hit": false,
      "t": 58285.65599999999,
      "d": 171.42839999999705,
      "v": 100
    },
    {
      "midi": 64,
      "hit": false,
      "t": 58285.65599999999,
      "d": 171.42839999999705,
      "v": 100
    },
    {
      "midi": 50,
      "hit": false,
      "t": 58285.656000000185,
      "d": 342.8568000000014,
      "v": 100
    },
    {
      "midi": 50,
      "hit": false,
      "t": 58285.656000000185,
      "d": 342.8568000000014,
      "v": 100
    },
    {
      "midi": 62,
      "hit": false,
      "t": 58499.941499999986,
      "d": 171.42839999999705,
      "v": 100
    },
    {
      "midi": 62,
      "hit": false,
      "t": 58499.941499999986,
      "d": 171.42839999999705,
      "v": 100
    },
    {
      "midi": 62,
      "hit": false,
      "t": 58714.226999999984,
      "d": 171.42839999999705,
      "v": 100
    },
    {
      "midi": 62,
      "hit": false,
      "t": 58714.226999999984,
      "d": 171.42839999999705,
      "v": 100
    },
    {
      "midi": 50,
      "hit": false,
      "t": 58714.22700000019,
      "d": 342.8568000000014,
      "v": 100
    },
    {
      "midi": 50,
      "hit": false,
      "t": 58714.22700000019,
      "d": 342.8568000000014,
      "v": 100
    },
    {
      "midi": 62,
      "hit": false,
      "t": 58928.51249999998,
      "d": 171.42839999999705,
      "v": 100
    },
    {
      "midi": 62,
      "hit": false,
      "t": 58928.51249999998,
      "d": 171.42839999999705,
      "v": 100
    },
    {
      "midi": 62,
      "hit": false,
      "t": 59142.79799999998,
      "d": 171.42839999999705,
      "v": 100
    },
    {
      "midi": 62,
      "hit": false,
      "t": 59142.79799999998,
      "d": 171.42839999999705,
      "v": 100
    },
    {
      "midi": 50,
      "hit": false,
      "t": 59142.79800000019,
      "d": 342.8568000000014,
      "v": 100
    },
    {
      "midi": 50,
      "hit": false,
      "t": 59142.79800000019,
      "d": 342.8568000000014,
      "v": 100
    },
    {
      "midi": 57,
      "hit": false,
      "t": 59357.08349999998,
      "d": 171.42839999999705,
      "v": 100
    },
    {
      "midi": 57,
      "hit": false,
      "t": 59357.08349999998,
      "d": 171.42839999999705,
      "v": 100
    },
    {
      "midi": 62,
      "hit": false,
      "t": 59571.36899999998,
      "d": 171.42839999999705,
      "v": 100
    },
    {
      "midi": 62,
      "hit": false,
      "t": 59571.36899999998,
      "d": 171.42839999999705,
      "v": 100
    },
    {
      "midi": 50,
      "hit": false,
      "t": 59571.369000000195,
      "d": 342.8568000000014,
      "v": 100
    },
    {
      "midi": 50,
      "hit": false,
      "t": 59571.369000000195,
      "d": 342.8568000000014,
      "v": 100
    },
    {
      "midi": 64,
      "hit": false,
      "t": 59785.654499999975,
      "d": 171.42839999999705,
      "v": 100
    },
    {
      "midi": 64,
      "hit": false,
      "t": 59785.654499999975,
      "d": 171.42839999999705,
      "v": 100
    },
    {
      "midi": 66,
      "hit": false,
      "t": 59999.93999999997,
      "d": 685.7136000000028,
      "v": 100
    },
    {
      "midi": 66,
      "hit": false,
      "t": 59999.93999999997,
      "d": 685.7136000000028,
      "v": 100
    },
    {
      "midi": 69,
      "hit": false,
      "t": 59999.94000000001,
      "d": 3085.711199999998,
      "v": 100
    },
    {
      "midi": 66,
      "hit": false,
      "t": 59999.94000000001,
      "d": 3085.711199999998,
      "v": 100
    },
    {
      "midi": 62,
      "hit": false,
      "t": 59999.94000000001,
      "d": 3085.711199999998,
      "v": 100
    },
    {
      "midi": 50,
      "hit": false,
      "t": 59999.9400000002,
      "d": 342.8568000000014,
      "v": 100
    },
    {
      "midi": 50,
      "hit": false,
      "t": 59999.9400000002,
      "d": 342.8568000000014,
      "v": 100
    },
    {
      "midi": 50,
      "hit": false,
      "t": 60428.5110000002,
      "d": 342.8568000000014,
      "v": 100
    },
    {
      "midi": 50,
      "hit": false,
      "t": 60428.5110000002,
      "d": 342.8568000000014,
      "v": 100
    },
    {
      "midi": 64,
      "hit": false,
      "t": 60857.08199999997,
      "d": 171.42839999999705,
      "v": 100
    },
    {
      "midi": 64,
      "hit": false,
      "t": 60857.08199999997,
      "d": 171.42839999999705,
      "v": 100
    },
    {
      "midi": 50,
      "hit": false,
      "t": 60857.082000000206,
      "d": 342.8568000000014,
      "v": 100
    },
    {
      "midi": 50,
      "hit": false,
      "t": 60857.082000000206,
      "d": 342.8568000000014,
      "v": 100
    },
    {
      "midi": 66,
      "hit": false,
      "t": 61071.36749999997,
      "d": 171.42839999999705,
      "v": 100
    },
    {
      "midi": 66,
      "hit": false,
      "t": 61071.36749999997,
      "d": 171.42839999999705,
      "v": 100
    },
    {
      "midi": 64,
      "hit": false,
      "t": 61285.65299999997,
      "d": 171.42839999999705,
      "v": 100
    },
    {
      "midi": 64,
      "hit": false,
      "t": 61285.65299999997,
      "d": 171.42839999999705,
      "v": 100
    },
    {
      "midi": 50,
      "hit": false,
      "t": 61285.65300000021,
      "d": 342.8568000000014,
      "v": 100
    },
    {
      "midi": 50,
      "hit": false,
      "t": 61285.65300000021,
      "d": 342.8568000000014,
      "v": 100
    },
    {
      "midi": 66,
      "hit": false,
      "t": 61499.93849999997,
      "d": 171.42839999999705,
      "v": 100
    },
    {
      "midi": 66,
      "hit": false,
      "t": 61499.93849999997,
      "d": 171.42839999999705,
      "v": 100
    },
    {
      "midi": 64,
      "hit": false,
      "t": 61714.223999999966,
      "d": 171.42839999999705,
      "v": 100
    },
    {
      "midi": 64,
      "hit": false,
      "t": 61714.223999999966,
      "d": 171.42839999999705,
      "v": 100
    },
    {
      "midi": 50,
      "hit": false,
      "t": 61714.22400000021,
      "d": 342.8568000000014,
      "v": 100
    },
    {
      "midi": 50,
      "hit": false,
      "t": 61714.22400000021,
      "d": 342.8568000000014,
      "v": 100
    },
    {
      "midi": 62,
      "hit": false,
      "t": 61928.509499999964,
      "d": 171.42839999999705,
      "v": 100
    },
    {
      "midi": 62,
      "hit": false,
      "t": 61928.509499999964,
      "d": 171.42839999999705,
      "v": 100
    },
    {
      "midi": 62,
      "hit": false,
      "t": 62142.79499999996,
      "d": 171.42839999999705,
      "v": 100
    },
    {
      "midi": 62,
      "hit": false,
      "t": 62142.79499999996,
      "d": 171.42839999999705,
      "v": 100
    },
    {
      "midi": 50,
      "hit": false,
      "t": 62142.79500000022,
      "d": 342.8568000000014,
      "v": 100
    },
    {
      "midi": 50,
      "hit": false,
      "t": 62142.79500000022,
      "d": 342.8568000000014,
      "v": 100
    },
    {
      "midi": 62,
      "hit": false,
      "t": 62357.08049999996,
      "d": 171.42839999999705,
      "v": 100
    },
    {
      "midi": 62,
      "hit": false,
      "t": 62357.08049999996,
      "d": 171.42839999999705,
      "v": 100
    },
    {
      "midi": 62,
      "hit": false,
      "t": 62571.36599999996,
      "d": 685.7136000000028,
      "v": 100
    },
    {
      "midi": 62,
      "hit": false,
      "t": 62571.36599999996,
      "d": 685.7136000000028,
      "v": 100
    },
    {
      "midi": 50,
      "hit": false,
      "t": 62571.36600000022,
      "d": 342.8568000000014,
      "v": 100
    },
    {
      "midi": 50,
      "hit": false,
      "t": 62571.36600000022,
      "d": 342.8568000000014,
      "v": 100
    },
    {
      "midi": 52,
      "hit": false,
      "t": 62999.93700000022,
      "d": 171.42839999999705,
      "v": 100
    },
    {
      "midi": 52,
      "hit": false,
      "t": 62999.93700000022,
      "d": 171.42839999999705,
      "v": 100
    },
    {
      "midi": 54,
      "hit": false,
      "t": 63214.22250000022,
      "d": 171.42839999999705,
      "v": 100
    },
    {
      "midi": 54,
      "hit": false,
      "t": 63214.22250000022,
      "d": 171.42839999999705,
      "v": 100
    },
    {
      "midi": 71,
      "hit": false,
      "t": 63428.50799999996,
      "d": 514.2851999999984,
      "v": 100
    },
    {
      "midi": 71,
      "hit": false,
      "t": 63428.50799999996,
      "d": 514.2851999999984,
      "v": 100
    },
    {
      "midi": 67,
      "hit": false,
      "t": 63428.50800000001,
      "d": 1371.4271999999983,
      "v": 100
    },
    {
      "midi": 62,
      "hit": false,
      "t": 63428.50800000001,
      "d": 1371.4271999999983,
      "v": 100
    },
    {
      "midi": 71,
      "hit": false,
      "t": 63428.50800000001,
      "d": 1371.4271999999983,
      "v": 100
    },
    {
      "midi": 55,
      "hit": false,
      "t": 63428.50800000022,
      "d": 342.8568000000014,
      "v": 100
    },
    {
      "midi": 55,
      "hit": false,
      "t": 63428.50800000022,
      "d": 342.8568000000014,
      "v": 100
    },
    {
      "midi": 55,
      "hit": false,
      "t": 63857.07900000022,
      "d": 342.8568000000014,
      "v": 100
    },
    {
      "midi": 55,
      "hit": false,
      "t": 63857.07900000022,
      "d": 342.8568000000014,
      "v": 100
    },
    {
      "midi": 67,
      "hit": false,
      "t": 64071.36449999996,
      "d": 171.42839999999705,
      "v": 100
    },
    {
      "midi": 67,
      "hit": false,
      "t": 64071.36449999996,
      "d": 171.42839999999705,
      "v": 100
    },
    {
      "midi": 62,
      "hit": false,
      "t": 64285.64999999996,
      "d": 171.42839999999705,
      "v": 100
    },
    {
      "midi": 62,
      "hit": false,
      "t": 64285.64999999996,
      "d": 171.42839999999705,
      "v": 100
    },
    {
      "midi": 55,
      "hit": false,
      "t": 64285.65000000023,
      "d": 342.8568000000014,
      "v": 100
    },
    {
      "midi": 55,
      "hit": false,
      "t": 64285.65000000023,
      "d": 342.8568000000014,
      "v": 100
    },
    {
      "midi": 62,
      "hit": false,
      "t": 64499.935499999956,
      "d": 171.42839999999705,
      "v": 100
    },
    {
      "midi": 62,
      "hit": false,
      "t": 64499.935499999956,
      "d": 171.42839999999705,
      "v": 100
    },
    {
      "midi": 62,
      "hit": false,
      "t": 64714.220999999954,
      "d": 171.42839999999705,
      "v": 100
    },
    {
      "midi": 62,
      "hit": false,
      "t": 64714.220999999954,
      "d": 171.42839999999705,
      "v": 100
    },
    {
      "midi": 55,
      "hit": false,
      "t": 64714.22100000023,
      "d": 342.8568000000014,
      "v": 100
    },
    {
      "midi": 55,
      "hit": false,
      "t": 64714.22100000023,
      "d": 342.8568000000014,
      "v": 100
    },
    {
      "midi": 71,
      "hit": false,
      "t": 64928.50649999995,
      "d": 171.42839999999705,
      "v": 100
    },
    {
      "midi": 71,
      "hit": false,
      "t": 64928.50649999995,
      "d": 171.42839999999705,
      "v": 100
    },
    {
      "midi": 69,
      "hit": false,
      "t": 65142.79199999995,
      "d": 1371.4271999999983,
      "v": 100
    },
    {
      "midi": 69,
      "hit": false,
      "t": 65142.79199999995,
      "d": 1371.4271999999983,
      "v": 100
    },
    {
      "midi": 62,
      "hit": false,
      "t": 65142.79200000001,
      "d": 1371.4271999999983,
      "v": 100
    },
    {
      "midi": 66,
      "hit": false,
      "t": 65142.79200000001,
      "d": 1371.4271999999983,
      "v": 100
    },
    {
      "midi": 69,
      "hit": false,
      "t": 65142.79200000001,
      "d": 1371.4271999999983,
      "v": 100
    },
    {
      "midi": 54,
      "hit": false,
      "t": 65142.792000000234,
      "d": 342.8568000000014,
      "v": 100
    },
    {
      "midi": 54,
      "hit": false,
      "t": 65142.792000000234,
      "d": 342.8568000000014,
      "v": 100
    },
    {
      "midi": 54,
      "hit": false,
      "t": 65571.36300000023,
      "d": 342.8567999999941,
      "v": 100
    },
    {
      "midi": 54,
      "hit": false,
      "t": 65571.36300000023,
      "d": 342.8567999999941,
      "v": 100
    },
    {
      "midi": 54,
      "hit": false,
      "t": 65999.93400000023,
      "d": 342.8567999999941,
      "v": 100
    },
    {
      "midi": 54,
      "hit": false,
      "t": 65999.93400000023,
      "d": 342.8567999999941,
      "v": 100
    },
    {
      "midi": 54,
      "hit": false,
      "t": 66428.50500000022,
      "d": 342.8567999999941,
      "v": 100
    },
    {
      "midi": 54,
      "hit": false,
      "t": 66428.50500000022,
      "d": 342.8567999999941,
      "v": 100
    },
    {
      "midi": 64,
      "hit": false,
      "t": 66857.07599999994,
      "d": 514.2851999999984,
      "v": 100
    },
    {
      "midi": 64,
      "hit": false,
      "t": 66857.07599999994,
      "d": 514.2851999999984,
      "v": 100
    },
    {
      "midi": 64,
      "hit": false,
      "t": 66857.076,
      "d": 685.7136000000028,
      "v": 100
    },
    {
      "midi": 67,
      "hit": false,
      "t": 66857.076,
      "d": 685.7136000000028,
      "v": 100
    },
    {
      "midi": 71,
      "hit": false,
      "t": 66857.076,
      "d": 685.7136000000028,
      "v": 100
    },
    {
      "midi": 52,
      "hit": false,
      "t": 66857.07600000022,
      "d": 342.8567999999941,
      "v": 100
    },
    {
      "midi": 52,
      "hit": false,
      "t": 66857.07600000022,
      "d": 342.8567999999941,
      "v": 100
    },
    {
      "midi": 52,
      "hit": false,
      "t": 67285.64700000022,
      "d": 171.42840000000433,
      "v": 100
    },
    {
      "midi": 52,
      "hit": false,
      "t": 67285.64700000022,
      "d": 171.42840000000433,
      "v": 100
    },
    {
      "midi": 66,
      "hit": false,
      "t": 67499.93249999994,
      "d": 171.42840000000433,
      "v": 100
    },
    {
      "midi": 66,
      "hit": false,
      "t": 67499.93249999994,
      "d": 171.42840000000433,
      "v": 100
    },
    {
      "midi": 50,
      "hit": false,
      "t": 67499.93250000021,
      "d": 171.42840000000433,
      "v": 100
    },
    {
      "midi": 50,
      "hit": false,
      "t": 67499.93250000021,
      "d": 171.42840000000433,
      "v": 100
    },
    {
      "midi": 64,
      "hit": false,
      "t": 67714.21799999994,
      "d": 171.42840000000433,
      "v": 100
    },
    {
      "midi": 64,
      "hit": false,
      "t": 67714.21799999994,
      "d": 171.42840000000433,
      "v": 100
    },
    {
      "midi": 64,
      "hit": false,
      "t": 67714.21800000001,
      "d": 685.7136000000028,
      "v": 100
    },
    {
      "midi": 67,
      "hit": false,
      "t": 67714.21800000001,
      "d": 685.7136000000028,
      "v": 100
    },
    {
      "midi": 72,
      "hit": false,
      "t": 67714.21800000001,
      "d": 685.7136000000028,
      "v": 100
    },
    {
      "midi": 48,
      "hit": false,
      "t": 67714.21800000021,
      "d": 342.8567999999941,
      "v": 100
    },
    {
      "midi": 48,
      "hit": false,
      "t": 67714.21800000021,
      "d": 342.8567999999941,
      "v": 100
    },
    {
      "midi": 64,
      "hit": false,
      "t": 67928.50349999993,
      "d": 171.42840000000433,
      "v": 100
    },
    {
      "midi": 64,
      "hit": false,
      "t": 67928.50349999993,
      "d": 171.42840000000433,
      "v": 100
    },
    {
      "midi": 66,
      "hit": false,
      "t": 68142.78899999993,
      "d": 171.42840000000433,
      "v": 100
    },
    {
      "midi": 66,
      "hit": false,
      "t": 68142.78899999993,
      "d": 171.42840000000433,
      "v": 100
    },
    {
      "midi": 48,
      "hit": false,
      "t": 68142.78900000021,
      "d": 171.42840000000433,
      "v": 100
    },
    {
      "midi": 48,
      "hit": false,
      "t": 68142.78900000021,
      "d": 171.42840000000433,
      "v": 100
    },
    {
      "midi": 67,
      "hit": false,
      "t": 68357.07449999993,
      "d": 171.42840000000433,
      "v": 100
    },
    {
      "midi": 67,
      "hit": false,
      "t": 68357.07449999993,
      "d": 171.42840000000433,
      "v": 100
    },
    {
      "midi": 47,
      "hit": false,
      "t": 68357.0745000002,
      "d": 171.42840000000433,
      "v": 100
    },
    {
      "midi": 47,
      "hit": false,
      "t": 68357.0745000002,
      "d": 171.42840000000433,
      "v": 100
    },
    {
      "midi": 69,
      "hit": false,
      "t": 68571.35999999993,
      "d": 685.7136000000028,
      "v": 100
    },
    {
      "midi": 69,
      "hit": false,
      "t": 68571.35999999993,
      "d": 685.7136000000028,
      "v": 100
    },
    {
      "midi": 69,
      "hit": false,
      "t": 68571.36000000002,
      "d": 1371.4272000000055,
      "v": 100
    },
    {
      "midi": 64,
      "hit": false,
      "t": 68571.36000000002,
      "d": 1371.4272000000055,
      "v": 100
    },
    {
      "midi": 73,
      "hit": false,
      "t": 68571.36000000002,
      "d": 1371.4272000000055,
      "v": 100
    },
    {
      "midi": 45,
      "hit": false,
      "t": 68571.3600000002,
      "d": 342.8567999999941,
      "v": 100
    },
    {
      "midi": 45,
      "hit": false,
      "t": 68571.3600000002,
      "d": 342.8567999999941,
      "v": 100
    },
    {
      "midi": 45,
      "hit": false,
      "t": 68999.9310000002,
      "d": 342.8567999999941,
      "v": 100
    },
    {
      "midi": 45,
      "hit": false,
      "t": 68999.9310000002,
      "d": 342.8567999999941,
      "v": 100
    },
    {
      "midi": 45,
      "hit": false,
      "t": 69428.5020000002,
      "d": 342.8567999999941,
      "v": 100
    },
    {
      "midi": 45,
      "hit": false,
      "t": 69428.5020000002,
      "d": 342.8567999999941,
      "v": 100
    },
    {
      "midi": 57,
      "hit": false,
      "t": 69642.78749999993,
      "d": 171.42840000000433,
      "v": 100
    },
    {
      "midi": 57,
      "hit": false,
      "t": 69642.78749999993,
      "d": 171.42840000000433,
      "v": 100
    },
    {
      "midi": 62,
      "hit": false,
      "t": 69857.07299999993,
      "d": 171.42840000000433,
      "v": 100
    },
    {
      "midi": 62,
      "hit": false,
      "t": 69857.07299999993,
      "d": 171.42840000000433,
      "v": 100
    },
    {
      "midi": 45,
      "hit": false,
      "t": 69857.0730000002,
      "d": 342.8567999999941,
      "v": 100
    },
    {
      "midi": 45,
      "hit": false,
      "t": 69857.0730000002,
      "d": 342.8567999999941,
      "v": 100
    },
    {
      "midi": 64,
      "hit": false,
      "t": 70071.35849999993,
      "d": 171.42840000000433,
      "v": 100
    },
    {
      "midi": 64,
      "hit": false,
      "t": 70071.35849999993,
      "d": 171.42840000000433,
      "v": 100
    },
    {
      "midi": 66,
      "hit": false,
      "t": 70285.64399999993,
      "d": 685.7136000000028,
      "v": 100
    },
    {
      "midi": 66,
      "hit": false,
      "t": 70285.64399999993,
      "d": 685.7136000000028,
      "v": 100
    },
    {
      "midi": 74,
      "hit": false,
      "t": 70285.64400000001,
      "d": 1371.4272000000055,
      "v": 100
    },
    {
      "midi": 69,
      "hit": false,
      "t": 70285.64400000001,
      "d": 1371.4272000000055,
      "v": 100
    },
    {
      "midi": 66,
      "hit": false,
      "t": 70285.64400000001,
      "d": 1371.4272000000055,
      "v": 100
    },
    {
      "midi": 50,
      "hit": false,
      "t": 70285.64400000019,
      "d": 342.8567999999941,
      "v": 100
    },
    {
      "midi": 50,
      "hit": false,
      "t": 70285.64400000019,
      "d": 342.8567999999941,
      "v": 100
    },
    {
      "midi": 50,
      "hit": false,
      "t": 70714.21500000019,
      "d": 342.8567999999941,
      "v": 100
    },
    {
      "midi": 50,
      "hit": false,
      "t": 70714.21500000019,
      "d": 342.8567999999941,
      "v": 100
    },
    {
      "midi": 64,
      "hit": false,
      "t": 71142.78599999993,
      "d": 171.42840000000433,
      "v": 100
    },
    {
      "midi": 64,
      "hit": false,
      "t": 71142.78599999993,
      "d": 171.42840000000433,
      "v": 100
    },
    {
      "midi": 50,
      "hit": false,
      "t": 71142.78600000018,
      "d": 342.8567999999941,
      "v": 100
    },
    {
      "midi": 50,
      "hit": false,
      "t": 71142.78600000018,
      "d": 342.8567999999941,
      "v": 100
    },
    {
      "midi": 66,
      "hit": false,
      "t": 71357.07149999993,
      "d": 171.42840000000433,
      "v": 100
    },
    {
      "midi": 66,
      "hit": false,
      "t": 71357.07149999993,
      "d": 171.42840000000433,
      "v": 100
    },
    {
      "midi": 64,
      "hit": false,
      "t": 71571.35699999993,
      "d": 171.42840000000433,
      "v": 100
    },
    {
      "midi": 64,
      "hit": false,
      "t": 71571.35699999993,
      "d": 171.42840000000433,
      "v": 100
    },
    {
      "midi": 50,
      "hit": false,
      "t": 71571.35700000018,
      "d": 342.8567999999941,
      "v": 100
    },
    {
      "midi": 50,
      "hit": false,
      "t": 71571.35700000018,
      "d": 342.8567999999941,
      "v": 100
    },
    {
      "midi": 62,
      "hit": false,
      "t": 71785.64249999993,
      "d": 171.42840000000433,
      "v": 100
    },
    {
      "midi": 62,
      "hit": false,
      "t": 71785.64249999993,
      "d": 171.42840000000433,
      "v": 100
    },
    {
      "midi": 61,
      "hit": false,
      "t": 71999.92799999993,
      "d": 171.42840000000433,
      "v": 100
    },
    {
      "midi": 61,
      "hit": false,
      "t": 71999.92799999993,
      "d": 171.42840000000433,
      "v": 100
    },
    {
      "midi": 64,
      "hit": false,
      "t": 71999.92800000001,
      "d": 514.2851999999984,
      "v": 100
    },
    {
      "midi": 69,
      "hit": false,
      "t": 71999.92800000001,
      "d": 514.2851999999984,
      "v": 100
    },
    {
      "midi": 73,
      "hit": false,
      "t": 71999.92800000001,
      "d": 514.2851999999984,
      "v": 100
    },
    {
      "midi": 45,
      "hit": false,
      "t": 71999.92800000017,
      "d": 342.8567999999941,
      "v": 100
    },
    {
      "midi": 45,
      "hit": false,
      "t": 71999.92800000017,
      "d": 342.8567999999941,
      "v": 100
    },
    {
      "midi": 61,
      "hit": false,
      "t": 72214.21349999993,
      "d": 171.42840000000433,
      "v": 100
    },
    {
      "midi": 61,
      "hit": false,
      "t": 72214.21349999993,
      "d": 171.42840000000433,
      "v": 100
    },
    {
      "midi": 61,
      "hit": false,
      "t": 72428.49899999992,
      "d": 171.42840000000433,
      "v": 100
    },
    {
      "midi": 61,
      "hit": false,
      "t": 72428.49899999992,
      "d": 171.42840000000433,
      "v": 100
    },
    {
      "midi": 45,
      "hit": false,
      "t": 72428.49900000017,
      "d": 171.42840000000433,
      "v": 100
    },
    {
      "midi": 45,
      "hit": false,
      "t": 72428.49900000017,
      "d": 171.42840000000433,
      "v": 100
    },
    {
      "midi": 62,
      "hit": false,
      "t": 72642.78449999992,
      "d": 899.9991000000009,
      "v": 100
    },
    {
      "midi": 62,
      "hit": false,
      "t": 72642.78449999992,
      "d": 899.9991000000009,
      "v": 100
    },
    {
      "midi": 62,
      "hit": false,
      "t": 72642.78450000001,
      "d": 899.9991000000009,
      "v": 100
    },
    {
      "midi": 67,
      "hit": false,
      "t": 72642.78450000001,
      "d": 899.9991000000009,
      "v": 100
    },
    {
      "midi": 71,
      "hit": false,
      "t": 72642.78450000001,
      "d": 899.9991000000009,
      "v": 100
    },
    {
      "midi": 43,
      "hit": false,
      "t": 72642.78450000017,
      "d": 385.71390000000247,
      "v": 100
    },
    {
      "midi": 43,
      "hit": false,
      "t": 72642.78450000017,
      "d": 385.71390000000247,
      "v": 100
    },
    {
      "midi": 42,
      "hit": false,
      "t": 73071.35550000017,
      "d": 171.42840000000433,
      "v": 100
    },
    {
      "midi": 42,
      "hit": false,
      "t": 73071.35550000017,
      "d": 171.42840000000433,
      "v": 100
    },
    {
      "midi": 43,
      "hit": false,
      "t": 73285.64100000016,
      "d": 171.42840000000433,
      "v": 100
    },
    {
      "midi": 43,
      "hit": false,
      "t": 73285.64100000016,
      "d": 171.42840000000433,
      "v": 100
    },
    {
      "midi": 44,
      "hit": false,
      "t": 73499.92650000016,
      "d": 171.42840000000433,
      "v": 100
    },
    {
      "midi": 44,
      "hit": false,
      "t": 73499.92650000016,
      "d": 171.42840000000433,
      "v": 100
    },
    {
      "midi": 69,
      "hit": false,
      "t": 73714.21199999996,
      "d": 171.42840000000433,
      "v": 100
    },
    {
      "midi": 45,
      "hit": false,
      "t": 73714.21200000016,
      "d": 342.8567999999941,
      "v": 100
    },
    {
      "midi": 45,
      "hit": false,
      "t": 73714.21200000016,
      "d": 342.8567999999941,
      "v": 100
    },
    {
      "midi": 61,
      "hit": false,
      "t": 73928.49749999995,
      "d": 171.42840000000433,
      "v": 100
    },
    {
      "midi": 64,
      "hit": false,
      "t": 74142.78299999995,
      "d": 171.42840000000433,
      "v": 100
    },
    {
      "midi": 45,
      "hit": false,
      "t": 74142.78300000016,
      "d": 342.8567999999941,
      "v": 100
    },
    {
      "midi": 45,
      "hit": false,
      "t": 74142.78300000016,
      "d": 342.8567999999941,
      "v": 100
    },
    {
      "midi": 69,
      "hit": false,
      "t": 74357.06849999995,
      "d": 171.42840000000433,
      "v": 100
    },
    {
      "midi": 67,
      "hit": false,
      "t": 74571.35399999995,
      "d": 171.42840000000433,
      "v": 100
    },
    {
      "midi": 43,
      "hit": false,
      "t": 74571.35400000015,
      "d": 342.8567999999941,
      "v": 100
    },
    {
      "midi": 43,
      "hit": false,
      "t": 74571.35400000015,
      "d": 342.8567999999941,
      "v": 100
    },
    {
      "midi": 61,
      "hit": false,
      "t": 74785.63949999995,
      "d": 171.42840000000433,
      "v": 100
    },
    {
      "midi": 64,
      "hit": false,
      "t": 74999.92499999994,
      "d": 171.42840000000433,
      "v": 100
    },
    {
      "midi": 43,
      "hit": false,
      "t": 74999.92500000015,
      "d": 342.8567999999941,
      "v": 100
    },
    {
      "midi": 43,
      "hit": false,
      "t": 74999.92500000015,
      "d": 342.8567999999941,
      "v": 100
    },
    {
      "midi": 67,
      "hit": false,
      "t": 75214.21049999994,
      "d": 171.42840000000433,
      "v": 100
    },
    {
      "midi": 66,
      "hit": false,
      "t": 75428.49599999994,
      "d": 171.42840000000433,
      "v": 100
    },
    {
      "midi": 42,
      "hit": false,
      "t": 75428.49600000014,
      "d": 342.8567999999941,
      "v": 100
    },
    {
      "midi": 42,
      "hit": false,
      "t": 75428.49600000014,
      "d": 342.8567999999941,
      "v": 100
    },
    {
      "midi": 57,
      "hit": false,
      "t": 75642.78149999994,
      "d": 171.42840000000433,
      "v": 100
    },
    {
      "midi": 61,
      "hit": false,
      "t": 75857.06699999994,
      "d": 171.42840000000433,
      "v": 100
    },
    {
      "midi": 42,
      "hit": false,
      "t": 75857.06700000014,
      "d": 342.8567999999941,
      "v": 100
    },
    {
      "midi": 42,
      "hit": false,
      "t": 75857.06700000014,
      "d": 342.8567999999941,
      "v": 100
    },
    {
      "midi": 66,
      "hit": false,
      "t": 76071.35249999994,
      "d": 171.42840000000433,
      "v": 100
    },
    {
      "midi": 64,
      "hit": false,
      "t": 76285.63799999993,
      "d": 171.42840000000433,
      "v": 100
    },
    {
      "midi": 40,
      "hit": false,
      "t": 76285.63800000014,
      "d": 342.8567999999941,
      "v": 100
    },
    {
      "midi": 40,
      "hit": false,
      "t": 76285.63800000014,
      "d": 342.8567999999941,
      "v": 100
    },
    {
      "midi": 57,
      "hit": false,
      "t": 76499.92349999993,
      "d": 171.42840000000433,
      "v": 100
    },
    {
      "midi": 61,
      "hit": false,
      "t": 76714.20899999993,
      "d": 171.42840000000433,
      "v": 100
    },
    {
      "midi": 40,
      "hit": false,
      "t": 76714.20900000013,
      "d": 342.8567999999941,
      "v": 100
    },
    {
      "midi": 40,
      "hit": false,
      "t": 76714.20900000013,
      "d": 342.8567999999941,
      "v": 100
    },
    {
      "midi": 64,
      "hit": false,
      "t": 76928.49449999993,
      "d": 171.42840000000433,
      "v": 100
    },
    {
      "midi": 62,
      "hit": false,
      "t": 77142.78000000001,
      "d": 171.42840000000433,
      "v": 95
    },
    {
      "midi": 62,
      "hit": false,
      "t": 77142.78000000001,
      "d": 171.42840000000433,
      "v": 95
    },
    {
      "midi": 38,
      "hit": false,
      "t": 77142.78000000013,
      "d": 342.8567999999941,
      "v": 100
    },
    {
      "midi": 38,
      "hit": false,
      "t": 77142.78000000013,
      "d": 342.8567999999941,
      "v": 100
    },
    {
      "midi": 71,
      "hit": false,
      "t": 77357.06550000001,
      "d": 85.71420000000217,
      "v": 95
    },
    {
      "midi": 74,
      "hit": false,
      "t": 77357.06550000001,
      "d": 85.71420000000217,
      "v": 95
    },
    {
      "midi": 79,
      "hit": false,
      "t": 77357.06550000001,
      "d": 85.71420000000217,
      "v": 95
    },
    {
      "midi": 71,
      "hit": false,
      "t": 77357.06550000001,
      "d": 85.71420000000217,
      "v": 95
    },
    {
      "midi": 74,
      "hit": false,
      "t": 77357.06550000001,
      "d": 85.71420000000217,
      "v": 95
    },
    {
      "midi": 79,
      "hit": false,
      "t": 77357.06550000001,
      "d": 85.71420000000217,
      "v": 95
    },
    {
      "midi": 71,
      "hit": false,
      "t": 77464.20825000001,
      "d": 192.85695000000123,
      "v": 95
    },
    {
      "midi": 74,
      "hit": false,
      "t": 77464.20825000001,
      "d": 192.85695000000123,
      "v": 95
    },
    {
      "midi": 79,
      "hit": false,
      "t": 77464.20825000001,
      "d": 192.85695000000123,
      "v": 95
    },
    {
      "midi": 71,
      "hit": false,
      "t": 77464.20825000001,
      "d": 192.85695000000123,
      "v": 95
    },
    {
      "midi": 74,
      "hit": false,
      "t": 77464.20825000001,
      "d": 192.85695000000123,
      "v": 95
    },
    {
      "midi": 79,
      "hit": false,
      "t": 77464.20825000001,
      "d": 192.85695000000123,
      "v": 95
    },
    {
      "midi": 38,
      "hit": false,
      "t": 77571.35100000013,
      "d": 342.8567999999941,
      "v": 100
    },
    {
      "midi": 38,
      "hit": false,
      "t": 77571.35100000013,
      "d": 342.8567999999941,
      "v": 100
    },
    {
      "midi": 71,
      "hit": false,
      "t": 77678.49375000001,
      "d": 85.71420000000217,
      "v": 95
    },
    {
      "midi": 74,
      "hit": false,
      "t": 77678.49375000001,
      "d": 85.71420000000217,
      "v": 95
    },
    {
      "midi": 79,
      "hit": false,
      "t": 77678.49375000001,
      "d": 85.71420000000217,
      "v": 95
    },
    {
      "midi": 71,
      "hit": false,
      "t": 77678.49375000001,
      "d": 85.71420000000217,
      "v": 95
    },
    {
      "midi": 74,
      "hit": false,
      "t": 77678.49375000001,
      "d": 85.71420000000217,
      "v": 95
    },
    {
      "midi": 79,
      "hit": false,
      "t": 77678.49375000001,
      "d": 85.71420000000217,
      "v": 95
    },
    {
      "midi": 71,
      "hit": false,
      "t": 77785.63650000001,
      "d": 171.42840000000433,
      "v": 95
    },
    {
      "midi": 74,
      "hit": false,
      "t": 77785.63650000001,
      "d": 171.42840000000433,
      "v": 95
    },
    {
      "midi": 79,
      "hit": false,
      "t": 77785.63650000001,
      "d": 171.42840000000433,
      "v": 95
    },
    {
      "midi": 71,
      "hit": false,
      "t": 77785.63650000001,
      "d": 171.42840000000433,
      "v": 95
    },
    {
      "midi": 74,
      "hit": false,
      "t": 77785.63650000001,
      "d": 171.42840000000433,
      "v": 95
    },
    {
      "midi": 79,
      "hit": false,
      "t": 77785.63650000001,
      "d": 171.42840000000433,
      "v": 95
    },
    {
      "midi": 71,
      "hit": false,
      "t": 77999.922,
      "d": 171.42840000000433,
      "v": 95
    },
    {
      "midi": 74,
      "hit": false,
      "t": 77999.922,
      "d": 171.42840000000433,
      "v": 95
    },
    {
      "midi": 81,
      "hit": false,
      "t": 77999.922,
      "d": 171.42840000000433,
      "v": 95
    },
    {
      "midi": 71,
      "hit": false,
      "t": 77999.922,
      "d": 171.42840000000433,
      "v": 95
    },
    {
      "midi": 74,
      "hit": false,
      "t": 77999.922,
      "d": 171.42840000000433,
      "v": 95
    },
    {
      "midi": 81,
      "hit": false,
      "t": 77999.922,
      "d": 171.42840000000433,
      "v": 95
    },
    {
      "midi": 38,
      "hit": false,
      "t": 77999.92200000012,
      "d": 342.8567999999941,
      "v": 100
    },
    {
      "midi": 38,
      "hit": false,
      "t": 77999.92200000012,
      "d": 342.8567999999941,
      "v": 100
    },
    {
      "midi": 71,
      "hit": false,
      "t": 78214.2075,
      "d": 171.42840000000433,
      "v": 95
    },
    {
      "midi": 74,
      "hit": false,
      "t": 78214.2075,
      "d": 171.42840000000433,
      "v": 95
    },
    {
      "midi": 79,
      "hit": false,
      "t": 78214.2075,
      "d": 171.42840000000433,
      "v": 95
    },
    {
      "midi": 71,
      "hit": false,
      "t": 78214.2075,
      "d": 171.42840000000433,
      "v": 95
    },
    {
      "midi": 74,
      "hit": false,
      "t": 78214.2075,
      "d": 171.42840000000433,
      "v": 95
    },
    {
      "midi": 79,
      "hit": false,
      "t": 78214.2075,
      "d": 171.42840000000433,
      "v": 95
    },
    {
      "midi": 38,
      "hit": false,
      "t": 78428.49300000012,
      "d": 342.8567999999941,
      "v": 100
    },
    {
      "midi": 38,
      "hit": false,
      "t": 78428.49300000012,
      "d": 342.8567999999941,
      "v": 100
    },
    {
      "midi": 38,
      "hit": false,
      "t": 78857.06400000011,
      "d": 342.8567999999941,
      "v": 100
    },
    {
      "midi": 38,
      "hit": false,
      "t": 78857.06400000011,
      "d": 342.8567999999941,
      "v": 100
    },
    {
      "midi": 71,
      "hit": false,
      "t": 79071.34950000001,
      "d": 85.71420000000217,
      "v": 95
    },
    {
      "midi": 74,
      "hit": false,
      "t": 79071.34950000001,
      "d": 85.71420000000217,
      "v": 95
    },
    {
      "midi": 79,
      "hit": false,
      "t": 79071.34950000001,
      "d": 85.71420000000217,
      "v": 95
    },
    {
      "midi": 71,
      "hit": false,
      "t": 79071.34950000001,
      "d": 85.71420000000217,
      "v": 95
    },
    {
      "midi": 74,
      "hit": false,
      "t": 79071.34950000001,
      "d": 85.71420000000217,
      "v": 95
    },
    {
      "midi": 79,
      "hit": false,
      "t": 79071.34950000001,
      "d": 85.71420000000217,
      "v": 95
    },
    {
      "midi": 71,
      "hit": false,
      "t": 79178.49225000001,
      "d": 192.85695000000123,
      "v": 95
    },
    {
      "midi": 74,
      "hit": false,
      "t": 79178.49225000001,
      "d": 192.85695000000123,
      "v": 95
    },
    {
      "midi": 79,
      "hit": false,
      "t": 79178.49225000001,
      "d": 192.85695000000123,
      "v": 95
    },
    {
      "midi": 71,
      "hit": false,
      "t": 79178.49225000001,
      "d": 192.85695000000123,
      "v": 95
    },
    {
      "midi": 74,
      "hit": false,
      "t": 79178.49225000001,
      "d": 192.85695000000123,
      "v": 95
    },
    {
      "midi": 79,
      "hit": false,
      "t": 79178.49225000001,
      "d": 192.85695000000123,
      "v": 95
    },
    {
      "midi": 38,
      "hit": false,
      "t": 79285.63500000011,
      "d": 342.8567999999941,
      "v": 100
    },
    {
      "midi": 38,
      "hit": false,
      "t": 79285.63500000011,
      "d": 342.8567999999941,
      "v": 100
    },
    {
      "midi": 71,
      "hit": false,
      "t": 79392.77775000001,
      "d": 85.71420000000217,
      "v": 95
    },
    {
      "midi": 74,
      "hit": false,
      "t": 79392.77775000001,
      "d": 85.71420000000217,
      "v": 95
    },
    {
      "midi": 79,
      "hit": false,
      "t": 79392.77775000001,
      "d": 85.71420000000217,
      "v": 95
    },
    {
      "midi": 71,
      "hit": false,
      "t": 79392.77775000001,
      "d": 85.71420000000217,
      "v": 95
    },
    {
      "midi": 74,
      "hit": false,
      "t": 79392.77775000001,
      "d": 85.71420000000217,
      "v": 95
    },
    {
      "midi": 79,
      "hit": false,
      "t": 79392.77775000001,
      "d": 85.71420000000217,
      "v": 95
    },
    {
      "midi": 71,
      "hit": false,
      "t": 79499.92050000001,
      "d": 171.42840000000433,
      "v": 95
    },
    {
      "midi": 74,
      "hit": false,
      "t": 79499.92050000001,
      "d": 171.42840000000433,
      "v": 95
    },
    {
      "midi": 79,
      "hit": false,
      "t": 79499.92050000001,
      "d": 171.42840000000433,
      "v": 95
    },
    {
      "midi": 71,
      "hit": false,
      "t": 79499.92050000001,
      "d": 171.42840000000433,
      "v": 95
    },
    {
      "midi": 74,
      "hit": false,
      "t": 79499.92050000001,
      "d": 171.42840000000433,
      "v": 95
    },
    {
      "midi": 79,
      "hit": false,
      "t": 79499.92050000001,
      "d": 171.42840000000433,
      "v": 95
    },
    {
      "midi": 71,
      "hit": false,
      "t": 79714.206,
      "d": 171.42840000000433,
      "v": 95
    },
    {
      "midi": 74,
      "hit": false,
      "t": 79714.206,
      "d": 171.42840000000433,
      "v": 95
    },
    {
      "midi": 81,
      "hit": false,
      "t": 79714.206,
      "d": 171.42840000000433,
      "v": 95
    },
    {
      "midi": 71,
      "hit": false,
      "t": 79714.206,
      "d": 171.42840000000433,
      "v": 95
    },
    {
      "midi": 74,
      "hit": false,
      "t": 79714.206,
      "d": 171.42840000000433,
      "v": 95
    },
    {
      "midi": 81,
      "hit": false,
      "t": 79714.206,
      "d": 171.42840000000433,
      "v": 95
    },
    {
      "midi": 38,
      "hit": false,
      "t": 79714.20600000011,
      "d": 342.8567999999941,
      "v": 100
    },
    {
      "midi": 38,
      "hit": false,
      "t": 79714.20600000011,
      "d": 342.8567999999941,
      "v": 100
    },
    {
      "midi": 71,
      "hit": false,
      "t": 79928.4915,
      "d": 171.42840000000433,
      "v": 95
    },
    {
      "midi": 74,
      "hit": false,
      "t": 79928.4915,
      "d": 171.42840000000433,
      "v": 95
    },
    {
      "midi": 79,
      "hit": false,
      "t": 79928.4915,
      "d": 171.42840000000433,
      "v": 95
    },
    {
      "midi": 71,
      "hit": false,
      "t": 79928.4915,
      "d": 171.42840000000433,
      "v": 95
    },
    {
      "midi": 74,
      "hit": false,
      "t": 79928.4915,
      "d": 171.42840000000433,
      "v": 95
    },
    {
      "midi": 79,
      "hit": false,
      "t": 79928.4915,
      "d": 171.42840000000433,
      "v": 95
    },
    {
      "midi": 71,
      "hit": false,
      "t": 80142.777,
      "d": 171.42840000000433,
      "v": 95
    },
    {
      "midi": 74,
      "hit": false,
      "t": 80142.777,
      "d": 171.42840000000433,
      "v": 95
    },
    {
      "midi": 78,
      "hit": false,
      "t": 80142.777,
      "d": 171.42840000000433,
      "v": 95
    },
    {
      "midi": 71,
      "hit": false,
      "t": 80142.777,
      "d": 171.42840000000433,
      "v": 95
    },
    {
      "midi": 74,
      "hit": false,
      "t": 80142.777,
      "d": 171.42840000000433,
      "v": 95
    },
    {
      "midi": 78,
      "hit": false,
      "t": 80142.777,
      "d": 171.42840000000433,
      "v": 95
    },
    {
      "midi": 38,
      "hit": false,
      "t": 80142.7770000001,
      "d": 342.8567999999941,
      "v": 100
    },
    {
      "midi": 38,
      "hit": false,
      "t": 80142.7770000001,
      "d": 342.8567999999941,
      "v": 100
    },
    {
      "midi": 71,
      "hit": false,
      "t": 80357.0625,
      "d": 171.42840000000433,
      "v": 95
    },
    {
      "midi": 74,
      "hit": false,
      "t": 80357.0625,
      "d": 171.42840000000433,
      "v": 95
    },
    {
      "midi": 76,
      "hit": false,
      "t": 80357.0625,
      "d": 171.42840000000433,
      "v": 95
    },
    {
      "midi": 71,
      "hit": false,
      "t": 80357.0625,
      "d": 171.42840000000433,
      "v": 95
    },
    {
      "midi": 74,
      "hit": false,
      "t": 80357.0625,
      "d": 171.42840000000433,
      "v": 95
    },
    {
      "midi": 76,
      "hit": false,
      "t": 80357.0625,
      "d": 171.42840000000433,
      "v": 95
    },
    {
      "midi": 38,
      "hit": false,
      "t": 80571.3480000001,
      "d": 342.8567999999941,
      "v": 100
    },
    {
      "midi": 38,
      "hit": false,
      "t": 80571.3480000001,
      "d": 342.8567999999941,
      "v": 100
    },
    {
      "midi": 69,
      "hit": false,
      "t": 80785.63350000001,
      "d": 85.71420000000217,
      "v": 95
    },
    {
      "midi": 78,
      "hit": false,
      "t": 80785.63350000001,
      "d": 85.71420000000217,
      "v": 95
    },
    {
      "midi": 74,
      "hit": false,
      "t": 80785.63350000001,
      "d": 85.71420000000217,
      "v": 95
    },
    {
      "midi": 69,
      "hit": false,
      "t": 80785.63350000001,
      "d": 85.71420000000217,
      "v": 95
    },
    {
      "midi": 78,
      "hit": false,
      "t": 80785.63350000001,
      "d": 85.71420000000217,
      "v": 95
    },
    {
      "midi": 74,
      "hit": false,
      "t": 80785.63350000001,
      "d": 85.71420000000217,
      "v": 95
    },
    {
      "midi": 69,
      "hit": false,
      "t": 80892.77625000001,
      "d": 192.85695000000123,
      "v": 95
    },
    {
      "midi": 74,
      "hit": false,
      "t": 80892.77625000001,
      "d": 192.85695000000123,
      "v": 95
    },
    {
      "midi": 78,
      "hit": false,
      "t": 80892.77625000001,
      "d": 192.85695000000123,
      "v": 95
    },
    {
      "midi": 69,
      "hit": false,
      "t": 80892.77625000001,
      "d": 192.85695000000123,
      "v": 95
    },
    {
      "midi": 74,
      "hit": false,
      "t": 80892.77625000001,
      "d": 192.85695000000123,
      "v": 95
    },
    {
      "midi": 78,
      "hit": false,
      "t": 80892.77625000001,
      "d": 192.85695000000123,
      "v": 95
    },
    {
      "midi": 38,
      "hit": false,
      "t": 80999.9190000001,
      "d": 342.8567999999941,
      "v": 100
    },
    {
      "midi": 38,
      "hit": false,
      "t": 80999.9190000001,
      "d": 342.8567999999941,
      "v": 100
    },
    {
      "midi": 69,
      "hit": false,
      "t": 81107.06175000001,
      "d": 85.71420000000217,
      "v": 95
    },
    {
      "midi": 74,
      "hit": false,
      "t": 81107.06175000001,
      "d": 85.71420000000217,
      "v": 95
    },
    {
      "midi": 78,
      "hit": false,
      "t": 81107.06175000001,
      "d": 85.71420000000217,
      "v": 95
    },
    {
      "midi": 69,
      "hit": false,
      "t": 81107.06175000001,
      "d": 85.71420000000217,
      "v": 95
    },
    {
      "midi": 74,
      "hit": false,
      "t": 81107.06175000001,
      "d": 85.71420000000217,
      "v": 95
    },
    {
      "midi": 78,
      "hit": false,
      "t": 81107.06175000001,
      "d": 85.71420000000217,
      "v": 95
    },
    {
      "midi": 69,
      "hit": false,
      "t": 81214.2045,
      "d": 171.42840000000433,
      "v": 95
    },
    {
      "midi": 74,
      "hit": false,
      "t": 81214.2045,
      "d": 171.42840000000433,
      "v": 95
    },
    {
      "midi": 78,
      "hit": false,
      "t": 81214.2045,
      "d": 171.42840000000433,
      "v": 95
    },
    {
      "midi": 69,
      "hit": false,
      "t": 81214.2045,
      "d": 171.42840000000433,
      "v": 95
    },
    {
      "midi": 74,
      "hit": false,
      "t": 81214.2045,
      "d": 171.42840000000433,
      "v": 95
    },
    {
      "midi": 78,
      "hit": false,
      "t": 81214.2045,
      "d": 171.42840000000433,
      "v": 95
    },
    {
      "midi": 69,
      "hit": false,
      "t": 81428.49,
      "d": 171.42840000000433,
      "v": 95
    },
    {
      "midi": 74,
      "hit": false,
      "t": 81428.49,
      "d": 171.42840000000433,
      "v": 95
    },
    {
      "midi": 79,
      "hit": false,
      "t": 81428.49,
      "d": 171.42840000000433,
      "v": 95
    },
    {
      "midi": 69,
      "hit": false,
      "t": 81428.49,
      "d": 171.42840000000433,
      "v": 95
    },
    {
      "midi": 74,
      "hit": false,
      "t": 81428.49,
      "d": 171.42840000000433,
      "v": 95
    },
    {
      "midi": 79,
      "hit": false,
      "t": 81428.49,
      "d": 171.42840000000433,
      "v": 95
    },
    {
      "midi": 38,
      "hit": false,
      "t": 81428.49000000009,
      "d": 342.8567999999941,
      "v": 100
    },
    {
      "midi": 38,
      "hit": false,
      "t": 81428.49000000009,
      "d": 342.8567999999941,
      "v": 100
    },
    {
      "midi": 69,
      "hit": false,
      "t": 81642.7755,
      "d": 171.42840000000433,
      "v": 95
    },
    {
      "midi": 74,
      "hit": false,
      "t": 81642.7755,
      "d": 171.42840000000433,
      "v": 95
    },
    {
      "midi": 78,
      "hit": false,
      "t": 81642.7755,
      "d": 171.42840000000433,
      "v": 95
    },
    {
      "midi": 69,
      "hit": false,
      "t": 81642.7755,
      "d": 171.42840000000433,
      "v": 95
    },
    {
      "midi": 74,
      "hit": false,
      "t": 81642.7755,
      "d": 171.42840000000433,
      "v": 95
    },
    {
      "midi": 78,
      "hit": false,
      "t": 81642.7755,
      "d": 171.42840000000433,
      "v": 95
    },
    {
      "midi": 69,
      "hit": false,
      "t": 81857.061,
      "d": 171.42840000000433,
      "v": 95
    },
    {
      "midi": 74,
      "hit": false,
      "t": 81857.061,
      "d": 171.42840000000433,
      "v": 95
    },
    {
      "midi": 76,
      "hit": false,
      "t": 81857.061,
      "d": 171.42840000000433,
      "v": 95
    },
    {
      "midi": 69,
      "hit": false,
      "t": 81857.061,
      "d": 171.42840000000433,
      "v": 95
    },
    {
      "midi": 74,
      "hit": false,
      "t": 81857.061,
      "d": 171.42840000000433,
      "v": 95
    },
    {
      "midi": 76,
      "hit": false,
      "t": 81857.061,
      "d": 171.42840000000433,
      "v": 95
    },
    {
      "midi": 38,
      "hit": false,
      "t": 81857.06100000009,
      "d": 342.8567999999941,
      "v": 100
    },
    {
      "midi": 38,
      "hit": false,
      "t": 81857.06100000009,
      "d": 342.8567999999941,
      "v": 100
    },
    {
      "midi": 69,
      "hit": false,
      "t": 82071.3465,
      "d": 171.42840000000433,
      "v": 95
    },
    {
      "midi": 74,
      "hit": false,
      "t": 82071.3465,
      "d": 171.42840000000433,
      "v": 95
    },
    {
      "midi": 69,
      "hit": false,
      "t": 82071.3465,
      "d": 171.42840000000433,
      "v": 95
    },
    {
      "midi": 74,
      "hit": false,
      "t": 82071.3465,
      "d": 171.42840000000433,
      "v": 95
    },
    {
      "midi": 66,
      "hit": false,
      "t": 82285.632,
      "d": 342.8567999999941,
      "v": 95
    },
    {
      "midi": 69,
      "hit": false,
      "t": 82285.632,
      "d": 342.8567999999941,
      "v": 95
    },
    {
      "midi": 74,
      "hit": false,
      "t": 82285.632,
      "d": 342.8567999999941,
      "v": 95
    },
    {
      "midi": 66,
      "hit": false,
      "t": 82285.632,
      "d": 342.8567999999941,
      "v": 95
    },
    {
      "midi": 69,
      "hit": false,
      "t": 82285.632,
      "d": 342.8567999999941,
      "v": 95
    },
    {
      "midi": 74,
      "hit": false,
      "t": 82285.632,
      "d": 342.8567999999941,
      "v": 95
    },
    {
      "midi": 38,
      "hit": false,
      "t": 82285.63200000009,
      "d": 342.8567999999941,
      "v": 100
    },
    {
      "midi": 38,
      "hit": false,
      "t": 82285.63200000009,
      "d": 342.8567999999941,
      "v": 100
    }
  ]
}