{
  "jsonPath": "Jazz/Jazz Funk/George Duke/wake-me-gently-album-version.json",
  "path": "Jazz\\Jazz Funk\\George Duke\\Wake Me Gently (Album Version).mid",
  "name": "Wake Me Gently (Album Version)",
  "difficulty": "Advanced",
  "bpm": 77.000077000077,
  "notes": [
    {
      "midi": 40,
      "hit": false,
      "t": 3157.896,
      "d": 1963.8165749999994,
      "v": 59
    },
    {
      "midi": 47,
      "hit": false,
      "t": 3552.6330000000003,
      "d": 1501.6453374999996,
      "v": 54
    },
    {
      "midi": 59,
      "hit": false,
      "t": 3947.3700000000003,
      "d": 983.5530249999997,
      "v": 59
    },
    {
      "midi": 54,
      "hit": false,
      "t": 4342.107,
      "d": 629.9344625000003,
      "v": 64
    },
    {
      "midi": 56,
      "hit": false,
      "t": 5131.580999999999,
      "d": 718.7502875,
      "v": 60
    },
    {
      "midi": 40,
      "hit": false,
      "t": 5526.317999999999,
      "d": 1935.8560375000006,
      "v": 59
    },
    {
      "midi": 47,
      "hit": false,
      "t": 5921.054999999999,
      "d": 1506.5795500000004,
      "v": 56
    },
    {
      "midi": 59,
      "hit": false,
      "t": 6315.7919999999995,
      "d": 307.5659125000002,
      "v": 71
    },
    {
      "midi": 54,
      "hit": false,
      "t": 6710.5289999999995,
      "d": 695.7239625000002,
      "v": 40
    },
    {
      "midi": 66,
      "hit": false,
      "t": 7105.266,
      "d": 1031.2504125000005,
      "v": 58
    },
    {
      "midi": 40,
      "hit": false,
      "t": 7894.74,
      "d": 1952.3034124999995,
      "v": 63
    },
    {
      "midi": 47,
      "hit": false,
      "t": 8289.477,
      "d": 1564.1453624999976,
      "v": 59
    },
    {
      "midi": 59,
      "hit": false,
      "t": 8684.214,
      "d": 488.48703749999913,
      "v": 64
    },
    {
      "midi": 54,
      "hit": false,
      "t": 9078.951,
      "d": 713.8160750000006,
      "v": 60
    },
    {
      "midi": 56,
      "hit": false,
      "t": 9868.425,
      "d": 682.5660624999982,
      "v": 59
    },
    {
      "midi": 40,
      "hit": false,
      "t": 10263.161999999998,
      "d": 1904.6060249999991,
      "v": 58
    },
    {
      "midi": 47,
      "hit": false,
      "t": 10657.898999999998,
      "d": 1468.7505875000006,
      "v": 52
    },
    {
      "midi": 64,
      "hit": false,
      "t": 11052.635999999997,
      "d": 167.7632250000006,
      "v": 60
    },
    {
      "midi": 54,
      "hit": false,
      "t": 11447.372999999998,
      "d": 626.6449874999998,
      "v": 40
    },
    {
      "midi": 66,
      "hit": false,
      "t": 11842.109999999997,
      "d": 1167.7636249999996,
      "v": 51
    },
    {
      "midi": 59,
      "hit": false,
      "t": 12236.846999999998,
      "d": 800.9871624999978,
      "v": 38
    },
    {
      "midi": 40,
      "hit": false,
      "t": 12631.583999999997,
      "d": 1819.079674999999,
      "v": 62
    },
    {
      "midi": 47,
      "hit": false,
      "t": 13026.320999999996,
      "d": 1391.4479250000004,
      "v": 62
    },
    {
      "midi": 59,
      "hit": false,
      "t": 13421.057999999995,
      "d": 393.0922625000003,
      "v": 65
    },
    {
      "midi": 54,
      "hit": false,
      "t": 13815.794999999996,
      "d": 562.5002249999998,
      "v": 51
    },
    {
      "midi": 56,
      "hit": false,
      "t": 14605.268999999997,
      "d": 697.3686999999991,
      "v": 61
    },
    {
      "midi": 40,
      "hit": false,
      "t": 15000.005999999996,
      "d": 2144.737699999996,
      "v": 59
    },
    {
      "midi": 47,
      "hit": false,
      "t": 15394.742999999995,
      "d": 1797.6980874999972,
      "v": 53
    },
    {
      "midi": 64,
      "hit": false,
      "t": 15789.479999999994,
      "d": 297.6974874999996,
      "v": 66
    },
    {
      "midi": 59,
      "hit": false,
      "t": 16184.216999999993,
      "d": 83.88161249999939,
      "v": 40
    },
    {
      "midi": 66,
      "hit": false,
      "t": 16578.953999999994,
      "d": 317.43433749999895,
      "v": 57
    },
    {
      "midi": 54,
      "hit": false,
      "t": 16973.69099999999,
      "d": 210.52639999999883,
      "v": 43
    },
    {
      "midi": 40,
      "hit": false,
      "t": 17368.427999999993,
      "d": 1625.0006500000018,
      "v": 64
    },
    {
      "midi": 47,
      "hit": false,
      "t": 17763.164999999994,
      "d": 1202.3031125000016,
      "v": 57
    },
    {
      "midi": 59,
      "hit": false,
      "t": 18157.901999999995,
      "d": 254.9343125000014,
      "v": 62
    },
    {
      "midi": 54,
      "hit": false,
      "t": 18552.638999999996,
      "d": 335.5264500000012,
      "v": 40
    },
    {
      "midi": 56,
      "hit": false,
      "t": 19342.112999999994,
      "d": 651.3160500000013,
      "v": 56
    },
    {
      "midi": 40,
      "hit": false,
      "t": 19736.849999999995,
      "d": 1833.8823125000054,
      "v": 58
    },
    {
      "midi": 47,
      "hit": false,
      "t": 20131.586999999996,
      "d": 1633.2243375000035,
      "v": 60
    },
    {
      "midi": 64,
      "hit": false,
      "t": 20526.323999999997,
      "d": 139.8026874999996,
      "v": 57
    },
    {
      "midi": 54,
      "hit": false,
      "t": 20921.060999999998,
      "d": 279.6053749999992,
      "v": 43
    },
    {
      "midi": 59,
      "hit": false,
      "t": 21315.798,
      "d": 342.1054000000004,
      "v": 48
    },
    {
      "midi": 56,
      "hit": false,
      "t": 21710.535,
      "d": 93.75003749999814,
      "v": 39
    },
    {
      "midi": 40,
      "hit": false,
      "t": 22105.271999999997,
      "d": 1865.132324999995,
      "v": 66
    },
    {
      "midi": 54,
      "hit": false,
      "t": 22500.008999999995,
      "d": 763.158199999998,
      "v": 68
    },
    {
      "midi": 59,
      "hit": false,
      "t": 22894.745999999996,
      "d": 269.7369499999986,
      "v": 64
    },
    {
      "midi": 66,
      "hit": false,
      "t": 23289.482999999993,
      "d": 1503.2900750000008,
      "v": 70
    },
    {
      "midi": 63,
      "hit": false,
      "t": 23684.219999999994,
      "d": 1062.5004249999984,
      "v": 54
    },
    {
      "midi": 40,
      "hit": false,
      "t": 24473.693999999992,
      "d": 1853.6191625000029,
      "v": 61
    },
    {
      "midi": 54,
      "hit": false,
      "t": 24868.430999999993,
      "d": 537.829162500002,
      "v": 64
    },
    {
      "midi": 63,
      "hit": false,
      "t": 25263.167999999994,
      "d": 203.94744999999966,
      "v": 85
    },
    {
      "midi": 71,
      "hit": false,
      "t": 25263.167999999994,
      "d": 222.03956249999828,
      "v": 80
    },
    {
      "midi": 66,
      "hit": false,
      "t": 25657.90499999999,
      "d": 157.8947999999982,
      "v": 61
    },
    {
      "midi": 59,
      "hit": false,
      "t": 25657.90499999999,
      "d": 182.56586249999964,
      "v": 51
    },
    {
      "midi": 54,
      "hit": false,
      "t": 26052.641999999993,
      "d": 105.26320000000123,
      "v": 35
    },
    {
      "midi": 54,
      "hit": false,
      "t": 26447.378999999994,
      "d": 715.4608125000013,
      "v": 42
    },
    {
      "midi": 63,
      "hit": false,
      "t": 26447.378999999994,
      "d": 759.8687250000003,
      "v": 42
    },
    {
      "midi": 56,
      "hit": false,
      "t": 26842.115999999995,
      "d": 1687.500675000003,
      "v": 68
    },
    {
      "midi": 40,
      "hit": false,
      "t": 26845.405474999996,
      "d": 1687.500675000003,
      "v": 68
    },
    {
      "midi": 47,
      "hit": false,
      "t": 27236.852999999996,
      "d": 1228.618912500002,
      "v": 56
    },
    {
      "midi": 59,
      "hit": false,
      "t": 27631.589999999997,
      "d": 437.50017500000104,
      "v": 72
    },
    {
      "midi": 54,
      "hit": false,
      "t": 28026.326999999997,
      "d": 449.0133375000005,
      "v": 60
    },
    {
      "midi": 56,
      "hit": false,
      "t": 28815.801,
      "d": 669.4081625000035,
      "v": 68
    },
    {
      "midi": 40,
      "hit": false,
      "t": 29210.538,
      "d": 457.2370250000022,
      "v": 72
    },
    {
      "midi": 47,
      "hit": false,
      "t": 29605.275,
      "d": 199.01323750000302,
      "v": 54
    },
    {
      "midi": 57,
      "hit": false,
      "t": 30000.012000000006,
      "d": 462.1712374999988,
      "v": 58
    },
    {
      "midi": 42,
      "hit": false,
      "t": 30000.012000000006,
      "d": 491.77651250000054,
      "v": 59
    },
    {
      "midi": 52,
      "hit": false,
      "t": 30394.749000000003,
      "d": 126.6447875000049,
      "v": 38
    },
    {
      "midi": 64,
      "hit": false,
      "t": 30789.486000000008,
      "d": 296.0527499999989,
      "v": 47
    },
    {
      "midi": 56,
      "hit": false,
      "t": 30789.486000000008,
      "d": 416.1185874999974,
      "v": 48
    },
    {
      "midi": 44,
      "hit": false,
      "t": 30789.486000000008,
      "d": 419.4080624999988,
      "v": 66
    },
    {
      "midi": 59,
      "hit": false,
      "t": 30789.486000000008,
      "d": 462.1712374999988,
      "v": 58
    },
    {
      "midi": 64,
      "hit": false,
      "t": 31578.960000000006,
      "d": 629.9344625000012,
      "v": 44
    },
    {
      "midi": 59,
      "hit": false,
      "t": 31578.960000000006,
      "d": 639.8028875000018,
      "v": 40
    },
    {
      "midi": 45,
      "hit": false,
      "t": 31578.960000000006,
      "d": 2009.869224999995,
      "v": 68
    },
    {
      "midi": 52,
      "hit": false,
      "t": 31973.697000000007,
      "d": 1574.0137875,
      "v": 56
    },
    {
      "midi": 57,
      "hit": false,
      "t": 32368.43400000001,
      "d": 1167.7636249999996,
      "v": 40
    },
    {
      "midi": 59,
      "hit": false,
      "t": 33157.90800000001,
      "d": 1185.8557374999873,
      "v": 78
    },
    {
      "midi": 61,
      "hit": false,
      "t": 33552.645000000004,
      "d": 735.1976624999952,
      "v": 66
    },
    {
      "midi": 45,
      "hit": false,
      "t": 33947.382,
      "d": 1947.3692000000083,
      "v": 75
    },
    {
      "midi": 52,
      "hit": false,
      "t": 34342.119,
      "d": 1562.5006250000079,
      "v": 53
    },
    {
      "midi": 57,
      "hit": false,
      "t": 34736.856,
      "d": 851.9740250000032,
      "v": 35
    },
    {
      "midi": 59,
      "hit": false,
      "t": 35131.593,
      "d": 1162.8294125000102,
      "v": 48
    },
    {
      "midi": 64,
      "hit": false,
      "t": 35526.33,
      "d": 503.28967500000726,
      "v": 75
    },
    {
      "midi": 44,
      "hit": false,
      "t": 36315.80400000001,
      "d": 2060.856087500004,
      "v": 65
    },
    {
      "midi": 52,
      "hit": false,
      "t": 36710.54100000001,
      "d": 1712.1717375000007,
      "v": 62
    },
    {
      "midi": 64,
      "hit": false,
      "t": 37105.27800000001,
      "d": 427.63175000000047,
      "v": 71
    },
    {
      "midi": 59,
      "hit": false,
      "t": 37500.015000000014,
      "d": 1536.1848249999966,
      "v": 66
    },
    {
      "midi": 56,
      "hit": false,
      "t": 38289.489000000016,
      "d": 501.64493749999383,
      "v": 48
    },
    {
      "midi": 44,
      "hit": false,
      "t": 38684.22600000001,
      "d": 1955.5928875000027,
      "v": 62
    },
    {
      "midi": 52,
      "hit": false,
      "t": 39078.96300000001,
      "d": 1564.1453624999995,
      "v": 56
    },
    {
      "midi": 71,
      "hit": false,
      "t": 39473.70000000001,
      "d": 281.25011249999807,
      "v": 78
    },
    {
      "midi": 64,
      "hit": false,
      "t": 39868.43700000001,
      "d": 212.17113750000135,
      "v": 33
    },
    {
      "midi": 68,
      "hit": false,
      "t": 40263.17400000001,
      "d": 600.3291874999923,
      "v": 62
    },
    {
      "midi": 59,
      "hit": false,
      "t": 40657.91100000001,
      "d": 259.86852499999804,
      "v": 54
    },
    {
      "midi": 59,
      "hit": false,
      "t": 41052.64800000001,
      "d": 412.82911250000325,
      "v": 61
    },
    {
      "midi": 68,
      "hit": false,
      "t": 41052.64800000001,
      "d": 425.9870125000016,
      "v": 64
    },
    {
      "midi": 45,
      "hit": false,
      "t": 41052.64800000001,
      "d": 2024.6718625000067,
      "v": 67
    },
    {
      "midi": 52,
      "hit": false,
      "t": 41447.38500000001,
      "d": 1644.737500000003,
      "v": 48
    },
    {
      "midi": 69,
      "hit": false,
      "t": 41842.12200000001,
      "d": 547.6975874999989,
      "v": 50
    },
    {
      "midi": 61,
      "hit": false,
      "t": 41842.12200000001,
      "d": 559.2107499999984,
      "v": 50
    },
    {
      "midi": 57,
      "hit": false,
      "t": 42631.59600000001,
      "d": 370.0659375000032,
      "v": 39
    },
    {
      "midi": 59,
      "hit": false,
      "t": 43026.33300000001,
      "d": 159.53953750000073,
      "v": 59
    },
    {
      "midi": 64,
      "hit": false,
      "t": 43026.33300000001,
      "d": 175.9869125000041,
      "v": 50
    },
    {
      "midi": 64,
      "hit": false,
      "t": 43421.070000000014,
      "d": 625.0002499999973,
      "v": 63
    },
    {
      "midi": 55,
      "hit": false,
      "t": 43421.070000000014,
      "d": 906.2503624999954,
      "v": 54
    },
    {
      "midi": 46,
      "hit": false,
      "t": 43421.070000000014,
      "d": 1912.8297124999954,
      "v": 73
    },
    {
      "midi": 58,
      "hit": false,
      "t": 43815.80700000001,
      "d": 360.19751250000263,
      "v": 62
    },
    {
      "midi": 61,
      "hit": false,
      "t": 44210.54400000001,
      "d": 425.9870125000016,
      "v": 77
    },
    {
      "midi": 55,
      "hit": false,
      "t": 44605.28100000001,
      "d": 799.3424250000025,
      "v": 53
    },
    {
      "midi": 64,
      "hit": false,
      "t": 45000.01800000001,
      "d": 375.00014999999985,
      "v": 60
    },
    {
      "midi": 59,
      "hit": false,
      "t": 45789.49200000001,
      "d": 376.64488749999873,
      "v": 39
    },
    {
      "midi": 64,
      "hit": false,
      "t": 45789.49200000001,
      "d": 422.6975375000038,
      "v": 37
    },
    {
      "midi": 47,
      "hit": false,
      "t": 45789.49200000001,
      "d": 1809.2112500000003,
      "v": 63
    },
    {
      "midi": 56,
      "hit": false,
      "t": 46184.229000000014,
      "d": 1217.1057500000024,
      "v": 57
    },
    {
      "midi": 59,
      "hit": false,
      "t": 46578.966000000015,
      "d": 513.1581000000006,
      "v": 66
    },
    {
      "midi": 71,
      "hit": false,
      "t": 47368.44000000002,
      "d": 194.0790249999991,
      "v": 84
    },
    {
      "midi": 64,
      "hit": false,
      "t": 47763.17700000001,
      "d": 101.97372500000347,
      "v": 59
    },
    {
      "midi": 66,
      "hit": false,
      "t": 48157.91400000001,
      "d": 468.75018750000163,
      "v": 74
    },
    {
      "midi": 68,
      "hit": false,
      "t": 48157.91400000001,
      "d": 664.4739499999996,
      "v": 74
    },
    {
      "midi": 49,
      "hit": false,
      "t": 48157.91400000001,
      "d": 741.776612499998,
      "v": 74
    },
    {
      "midi": 56,
      "hit": false,
      "t": 48552.65100000001,
      "d": 363.4869875000004,
      "v": 74
    },
    {
      "midi": 61,
      "hit": false,
      "t": 48947.38800000001,
      "d": 279.6053749999992,
      "v": 92
    },
    {
      "midi": 66,
      "hit": false,
      "t": 49342.125000000015,
      "d": 139.8026874999996,
      "v": 87
    },
    {
      "midi": 56,
      "hit": false,
      "t": 49736.86200000001,
      "d": 294.4080125000037,
      "v": 71
    },
    {
      "midi": 61,
      "hit": false,
      "t": 49736.86200000001,
      "d": 368.4212000000043,
      "v": 82
    },
    {
      "midi": 65,
      "hit": false,
      "t": 49736.86200000001,
      "d": 375.0001500000071,
      "v": 65
    },
    {
      "midi": 53,
      "hit": false,
      "t": 49736.86200000001,
      "d": 394.73700000000827,
      "v": 64
    },
    {
      "midi": 41,
      "hit": false,
      "t": 49736.86200000001,
      "d": 435.85543750000943,
      "v": 72
    },
    {
      "midi": 56,
      "hit": false,
      "t": 50131.59900000002,
      "d": 70.72371250000288,
      "v": 52
    },
    {
      "midi": 57,
      "hit": false,
      "t": 50526.33600000002,
      "d": 348.6843500000032,
      "v": 68
    },
    {
      "midi": 61,
      "hit": false,
      "t": 50526.33600000002,
      "d": 547.6975875000062,
      "v": 68
    },
    {
      "midi": 64,
      "hit": false,
      "t": 50526.33600000002,
      "d": 552.6318000000028,
      "v": 68
    },
    {
      "midi": 42,
      "hit": false,
      "t": 50526.33600000002,
      "d": 1759.8691250000047,
      "v": 68
    },
    {
      "midi": 52,
      "hit": false,
      "t": 50526.33600000002,
      "d": 1873.3560125000076,
      "v": 68
    },
    {
      "midi": 57,
      "hit": false,
      "t": 51315.81000000002,
      "d": 248.3553624999986,
      "v": 44
    },
    {
      "midi": 64,
      "hit": false,
      "t": 52105.28400000002,
      "d": 202.30271250000078,
      "v": 59
    },
    {
      "midi": 57,
      "hit": false,
      "t": 52894.75800000002,
      "d": 381.5790999999954,
      "v": 54
    },
    {
      "midi": 61,
      "hit": false,
      "t": 52894.75800000002,
      "d": 488.4870374999955,
      "v": 39
    },
    {
      "midi": 64,
      "hit": false,
      "t": 52894.75800000002,
      "d": 500.00019999999495,
      "v": 55
    },
    {
      "midi": 54,
      "hit": false,
      "t": 52894.75800000002,
      "d": 1103.6188624999995,
      "v": 63
    },
    {
      "midi": 47,
      "hit": false,
      "t": 52894.75800000002,
      "d": 1134.8688750000001,
      "v": 54
    },
    {
      "midi": 57,
      "hit": false,
      "t": 53684.23200000002,
      "d": 233.55272500000137,
      "v": 76
    },
    {
      "midi": 61,
      "hit": false,
      "t": 54078.96900000003,
      "d": 128.28952500000014,
      "v": 97
    },
    {
      "midi": 60,
      "hit": false,
      "t": 54473.70600000003,
      "d": 315.7895999999964,
      "v": 66
    },
    {
      "midi": 63,
      "hit": false,
      "t": 54473.70600000003,
      "d": 322.36854999999923,
      "v": 82
    },
    {
      "midi": 54,
      "hit": false,
      "t": 54473.70600000003,
      "d": 327.3027624999959,
      "v": 64
    },
    {
      "midi": 48,
      "hit": false,
      "t": 54473.70600000003,
      "d": 332.2369749999925,
      "v": 68
    },
    {
      "midi": 66,
      "hit": false,
      "t": 54868.44300000002,
      "d": 106.90793750000012,
      "v": 87
    },
    {
      "midi": 59,
      "hit": false,
      "t": 55263.18000000002,
      "d": 263.1579999999958,
      "v": 39
    },
    {
      "midi": 64,
      "hit": false,
      "t": 55263.18000000002,
      "d": 320.7238124999931,
      "v": 43
    },
    {
      "midi": 68,
      "hit": false,
      "t": 55263.18000000002,
      "d": 335.5264499999903,
      "v": 43
    },
    {
      "midi": 37,
      "hit": false,
      "t": 55263.18000000002,
      "d": 782.8950499999919,
      "v": 66
    },
    {
      "midi": 49,
      "hit": false,
      "t": 55263.18000000002,
      "d": 830.5924374999959,
      "v": 56
    },
    {
      "midi": 59,
      "hit": false,
      "t": 55657.917000000016,
      "d": 414.47385000000213,
      "v": 56
    },
    {
      "midi": 64,
      "hit": false,
      "t": 56052.65400000002,
      "d": 291.11853749999864,
      "v": 43
    },
    {
      "midi": 64,
      "hit": false,
      "t": 56842.12800000002,
      "d": 320.72381250000035,
      "v": 68
    },
    {
      "midi": 66,
      "hit": false,
      "t": 57236.86500000002,
      "d": 87.17108749999898,
      "v": 76
    },
    {
      "midi": 58,
      "hit": false,
      "t": 57631.60200000002,
      "d": 460.52649999999267,
      "v": 43
    },
    {
      "midi": 61,
      "hit": false,
      "t": 57631.60200000002,
      "d": 513.1580999999933,
      "v": 59
    },
    {
      "midi": 68,
      "hit": false,
      "t": 57631.60200000002,
      "d": 516.447574999991,
      "v": 43
    },
    {
      "midi": 66,
      "hit": false,
      "t": 57631.60200000002,
      "d": 542.7633749999877,
      "v": 49
    },
    {
      "midi": 54,
      "hit": false,
      "t": 57631.60200000002,
      "d": 1958.882362499986,
      "v": 45
    },
    {
      "midi": 46,
      "hit": false,
      "t": 57631.60200000002,
      "d": 1960.5270999999848,
      "v": 59
    },
    {
      "midi": 58,
      "hit": false,
      "t": 58421.07600000001,
      "d": 236.84219999999914,
      "v": 39
    },
    {
      "midi": 61,
      "hit": false,
      "t": 58815.81300000001,
      "d": 215.46061249999912,
      "v": 55
    },
    {
      "midi": 66,
      "hit": false,
      "t": 59210.55000000001,
      "d": 383.22383749999426,
      "v": 47
    },
    {
      "midi": 59,
      "hit": false,
      "t": 60000.024000000005,
      "d": 376.64488749999873,
      "v": 41
    },
    {
      "midi": 64,
      "hit": false,
      "t": 60000.024000000005,
      "d": 388.1580499999982,
      "v": 38
    },
    {
      "midi": 47,
      "hit": false,
      "t": 60000.024000000005,
      "d": 1379.934762500001,
      "v": 37
    },
    {
      "midi": 56,
      "hit": false,
      "t": 60394.761000000006,
      "d": 981.9082875000022,
      "v": 55
    },
    {
      "midi": 71,
      "hit": false,
      "t": 60789.49800000001,
      "d": 235.19746250000026,
      "v": 74
    },
    {
      "midi": 59,
      "hit": false,
      "t": 61184.23500000001,
      "d": 213.81587500000023,
      "v": 44
    },
    {
      "midi": 64,
      "hit": false,
      "t": 61578.97200000001,
      "d": 194.0790249999991,
      "v": 26
    },
    {
      "midi": 59,
      "hit": false,
      "t": 61973.70900000001,
      "d": 75.65792499999952,
      "v": 35
    },
    {
      "midi": 57,
      "hit": false,
      "t": 62368.44600000001,
      "d": 509.8686250000028,
      "v": 30
    },
    {
      "midi": 61,
      "hit": false,
      "t": 62368.44600000001,
      "d": 511.5133625000017,
      "v": 48
    },
    {
      "midi": 64,
      "hit": false,
      "t": 62368.44600000001,
      "d": 570.7239125000051,
      "v": 41
    },
    {
      "midi": 56,
      "hit": false,
      "t": 62368.44600000001,
      "d": 1085.5267500000045,
      "v": 35
    },
    {
      "midi": 47,
      "hit": false,
      "t": 62368.44600000001,
      "d": 1924.3428750000166,
      "v": 45
    },
    {
      "midi": 57,
      "hit": false,
      "t": 63157.92000000001,
      "d": 187.50007500000356,
      "v": 19
    },
    {
      "midi": 61,
      "hit": false,
      "t": 63552.657000000014,
      "d": 156.25006250000297,
      "v": 56
    },
    {
      "midi": 54,
      "hit": false,
      "t": 63947.39400000002,
      "d": 294.4080125000037,
      "v": 32
    },
    {
      "midi": 63,
      "hit": false,
      "t": 63947.39400000002,
      "d": 299.3422250000003,
      "v": 50
    },
    {
      "midi": 57,
      "hit": false,
      "t": 63947.39400000002,
      "d": 327.30276250000315,
      "v": 35
    },
    {
      "midi": 59,
      "hit": false,
      "t": 64342.13100000003,
      "d": 78.94739999999729,
      "v": 38
    },
    {
      "midi": 56,
      "hit": false,
      "t": 64736.86800000003,
      "d": 389.80278749999707,
      "v": 48
    },
    {
      "midi": 64,
      "hit": false,
      "t": 64736.86800000003,
      "d": 435.8554374999949,
      "v": 30
    },
    {
      "midi": 40,
      "hit": false,
      "t": 64736.86800000003,
      "d": 1937.500775000066,
      "v": 57
    },
    {
      "midi": 47,
      "hit": false,
      "t": 65131.605000000025,
      "d": 1386.513712500062,
      "v": 45
    },
    {
      "midi": 59,
      "hit": false,
      "t": 65526.34200000003,
      "d": 360.1975125000172,
      "v": 38
    },
    {
      "midi": 54,
      "hit": false,
      "t": 65921.07900000006,
      "d": 657.8950000000332,
      "v": 42
    },
    {
      "midi": 56,
      "hit": false,
      "t": 66710.55300000009,
      "d": 745.0660875000176,
      "v": 48
    },
    {
      "midi": 40,
      "hit": false,
      "t": 67105.2900000001,
      "d": 1684.2112000000197,
      "v": 52
    },
    {
      "midi": 47,
      "hit": false,
      "t": 67500.0270000001,
      "d": 1254.9347125000058,
      "v": 49
    },
    {
      "midi": 59,
      "hit": false,
      "t": 67894.7640000001,
      "d": 205.59218750000582,
      "v": 43
    },
    {
      "midi": 54,
      "hit": false,
      "t": 68289.5010000001,
      "d": 450.65807499999937,
      "v": 30
    },
    {
      "midi": 56,
      "hit": false,
      "t": 69078.97500000012,
      "d": 146.3816375000024,
      "v": 40
    },
    {
      "midi": 40,
      "hit": false,
      "t": 69473.71200000013,
      "d": 1819.0796750001464,
      "v": 62
    },
    {
      "midi": 47,
      "hit": false,
      "t": 69868.44900000014,
      "d": 1391.4479250001314,
      "v": 66
    },
    {
      "midi": 59,
      "hit": false,
      "t": 70263.18600000018,
      "d": 393.0922625000385,
      "v": 79
    },
    {
      "midi": 54,
      "hit": false,
      "t": 70657.92300000021,
      "d": 562.5002250000543,
      "v": 51
    },
    {
      "midi": 56,
      "hit": false,
      "t": 71447.39700000029,
      "d": 697.36870000005,
      "v": 66
    },
    {
      "midi": 40,
      "hit": false,
      "t": 71842.13400000033,
      "d": 2144.7377000000415,
      "v": 67
    },
    {
      "midi": 47,
      "hit": false,
      "t": 72236.87100000033,
      "d": 1797.69808750003,
      "v": 53
    },
    {
      "midi": 64,
      "hit": false,
      "t": 72631.60800000034,
      "d": 297.69748750000144,
      "v": 66
    },
    {
      "midi": 59,
      "hit": false,
      "t": 73026.34500000035,
      "d": 83.88161250000121,
      "v": 40
    },
    {
      "midi": 66,
      "hit": false,
      "t": 73421.08200000036,
      "d": 317.4343375000026,
      "v": 57
    },
    {
      "midi": 54,
      "hit": false,
      "t": 73815.81900000037,
      "d": 210.52640000000247,
      "v": 51
    },
    {
      "midi": 40,
      "hit": false,
      "t": 74210.55600000036,
      "d": 1625.0006500000018,
      "v": 68
    },
    {
      "midi": 47,
      "hit": false,
      "t": 74605.29300000035,
      "d": 1202.3031125000125,
      "v": 57
    },
    {
      "midi": 59,
      "hit": false,
      "t": 75000.03000000035,
      "d": 254.9343125000014,
      "v": 62
    },
    {
      "midi": 54,
      "hit": false,
      "t": 75394.76700000036,
      "d": 335.52645000000484,
      "v": 40
    },
    {
      "midi": 56,
      "hit": false,
      "t": 76184.24100000036,
      "d": 651.316049999994,
      "v": 71
    },
    {
      "midi": 40,
      "hit": false,
      "t": 76578.97800000035,
      "d": 1833.8823124999908,
      "v": 72
    },
    {
      "midi": 47,
      "hit": false,
      "t": 76973.71500000035,
      "d": 1633.2243374999962,
      "v": 60
    },
    {
      "midi": 64,
      "hit": false,
      "t": 77368.45200000034,
      "d": 139.80268750000687,
      "v": 57
    },
    {
      "midi": 54,
      "hit": false,
      "t": 77763.18900000035,
      "d": 279.6053749999992,
      "v": 43
    },
    {
      "midi": 59,
      "hit": false,
      "t": 78157.92600000034,
      "d": 342.1054000000004,
      "v": 44
    },
    {
      "midi": 56,
      "hit": false,
      "t": 78552.66300000034,
      "d": 93.75003750000906,
      "v": 39
    },
    {
      "midi": 40,
      "hit": false,
      "t": 78947.40000000034,
      "d": 1865.1323249999987,
      "v": 68
    },
    {
      "midi": 54,
      "hit": false,
      "t": 79342.13700000035,
      "d": 763.1582000000053,
      "v": 68
    },
    {
      "midi": 59,
      "hit": false,
      "t": 79736.87400000035,
      "d": 269.7369500000059,
      "v": 64
    },
    {
      "midi": 66,
      "hit": false,
      "t": 80131.61100000035,
      "d": 1503.2900749999972,
      "v": 70
    },
    {
      "midi": 63,
      "hit": false,
      "t": 80526.34800000035,
      "d": 1062.5004250000056,
      "v": 54
    },
    {
      "midi": 40,
      "hit": false,
      "t": 81315.82200000035,
      "d": 1853.6191625000065,
      "v": 72
    },
    {
      "midi": 54,
      "hit": false,
      "t": 81710.55900000036,
      "d": 537.8291624999983,
      "v": 64
    },
    {
      "midi": 63,
      "hit": false,
      "t": 82105.29600000035,
      "d": 203.94745000000694,
      "v": 85
    },
    {
      "midi": 71,
      "hit": false,
      "t": 82105.29600000035,
      "d": 222.0395625000092,
      "v": 80
    },
    {
      "midi": 66,
      "hit": false,
      "t": 82500.03300000036,
      "d": 157.89479999999458,
      "v": 61
    },
    {
      "midi": 59,
      "hit": false,
      "t": 82500.03300000036,
      "d": 182.56586249999236,
      "v": 51
    },
    {
      "midi": 54,
      "hit": false,
      "t": 82894.77000000035,
      "d": 105.26320000000123,
      "v": 35
    },
    {
      "midi": 54,
      "hit": false,
      "t": 83289.50700000036,
      "d": 715.4608124999941,
      "v": 48
    },
    {
      "midi": 63,
      "hit": false,
      "t": 83289.50700000036,
      "d": 759.868724999993,
      "v": 51
    },
    {
      "midi": 40,
      "hit": false,
      "t": 83684.24400000036,
      "d": 1687.5006749999884,
      "v": 77
    },
    {
      "midi": 47,
      "hit": false,
      "t": 84078.98100000035,
      "d": 1228.6189124999946,
      "v": 56
    },
    {
      "midi": 59,
      "hit": false,
      "t": 84473.71800000034,
      "d": 437.50017499999376,
      "v": 72
    },
    {
      "midi": 54,
      "hit": false,
      "t": 84868.45500000034,
      "d": 449.0133375000005,
      "v": 60
    },
    {
      "midi": 56,
      "hit": false,
      "t": 85657.92900000034,
      "d": 669.4081624999963,
      "v": 68
    },
    {
      "midi": 40,
      "hit": false,
      "t": 86052.66600000033,
      "d": 457.23702500000945,
      "v": 83
    },
    {
      "midi": 47,
      "hit": false,
      "t": 86447.40300000034,
      "d": 199.01323749999574,
      "v": 45
    },
    {
      "midi": 64,
      "hit": false,
      "t": 86842.14000000033,
      "d": 296.05275000000256,
      "v": 65
    },
    {
      "midi": 52,
      "hit": false,
      "t": 86842.14000000033,
      "d": 462.1712375000061,
      "v": 65
    },
    {
      "midi": 57,
      "hit": false,
      "t": 86842.14000000033,
      "d": 462.1712375000061,
      "v": 65
    },
    {
      "midi": 42,
      "hit": false,
      "t": 86842.14000000033,
      "d": 491.77651250000054,
      "v": 65
    },
    {
      "midi": 64,
      "hit": false,
      "t": 87631.61400000034,
      "d": 296.05275000000256,
      "v": 63
    },
    {
      "midi": 54,
      "hit": false,
      "t": 87631.61400000034,
      "d": 416.1185875000083,
      "v": 63
    },
    {
      "midi": 44,
      "hit": false,
      "t": 87631.61400000034,
      "d": 419.40806250000605,
      "v": 63
    },
    {
      "midi": 59,
      "hit": false,
      "t": 87631.61400000034,
      "d": 462.1712375000061,
      "v": 63
    },
    {
      "midi": 64,
      "hit": false,
      "t": 88421.08800000034,
      "d": 629.9344625000085,
      "v": 63
    },
    {
      "midi": 59,
      "hit": false,
      "t": 88421.08800000034,
      "d": 639.8028875000018,
      "v": 63
    },
    {
      "midi": 45,
      "hit": false,
      "t": 88421.08800000034,
      "d": 2009.8692250000167,
      "v": 63
    },
    {
      "midi": 52,
      "hit": false,
      "t": 88815.82500000035,
      "d": 1574.0137875000073,
      "v": 56
    },
    {
      "midi": 57,
      "hit": false,
      "t": 89210.56200000034,
      "d": 1167.7636250000069,
      "v": 40
    },
    {
      "midi": 59,
      "hit": false,
      "t": 90000.03600000034,
      "d": 1185.8557375000237,
      "v": 78
    },
    {
      "midi": 61,
      "hit": false,
      "t": 90394.77300000035,
      "d": 735.1976625000098,
      "v": 66
    },
    {
      "midi": 45,
      "hit": false,
      "t": 90789.51000000036,
      "d": 1947.3691999999864,
      "v": 75
    },
    {
      "midi": 52,
      "hit": false,
      "t": 91184.24700000037,
      "d": 1562.5006249999715,
      "v": 53
    },
    {
      "midi": 57,
      "hit": false,
      "t": 91578.98400000036,
      "d": 851.9740249999886,
      "v": 35
    },
    {
      "midi": 59,
      "hit": false,
      "t": 91973.72100000035,
      "d": 1162.8294124999811,
      "v": 48
    },
    {
      "midi": 64,
      "hit": false,
      "t": 92368.45800000035,
      "d": 503.2896749999927,
      "v": 75
    },
    {
      "midi": 44,
      "hit": false,
      "t": 93157.93200000034,
      "d": 2060.856087500011,
      "v": 67
    },
    {
      "midi": 52,
      "hit": false,
      "t": 93552.66900000034,
      "d": 1712.1717375000007,
      "v": 62
    },
    {
      "midi": 64,
      "hit": false,
      "t": 93947.40600000034,
      "d": 427.63175000000047,
      "v": 71
    },
    {
      "midi": 59,
      "hit": false,
      "t": 94342.14300000033,
      "d": 1536.1848250000185,
      "v": 66
    },
    {
      "midi": 56,
      "hit": false,
      "t": 94736.88000000034,
      "d": 501.6449375000084,
      "v": 60
    },
    {
      "midi": 44,
      "hit": false,
      "t": 95526.35400000034,
      "d": 1955.59288750001,
      "v": 73
    },
    {
      "midi": 52,
      "hit": false,
      "t": 95921.09100000035,
      "d": 1564.1453624999995,
      "v": 56
    },
    {
      "midi": 71,
      "hit": false,
      "t": 96315.82800000034,
      "d": 281.25011249999807,
      "v": 74
    },
    {
      "midi": 64,
      "hit": false,
      "t": 96710.56500000034,
      "d": 212.17113750000135,
      "v": 33
    },
    {
      "midi": 68,
      "hit": false,
      "t": 97105.30200000035,
      "d": 600.3291875000141,
      "v": 70
    },
    {
      "midi": 59,
      "hit": false,
      "t": 97500.03900000035,
      "d": 259.8685250000126,
      "v": 54
    },
    {
      "midi": 59,
      "hit": false,
      "t": 97894.77600000036,
      "d": 412.829112499996,
      "v": 61
    },
    {
      "midi": 68,
      "hit": false,
      "t": 97894.77600000036,
      "d": 425.9870125000016,
      "v": 64
    },
    {
      "midi": 45,
      "hit": false,
      "t": 97894.77600000036,
      "d": 2024.6718624999921,
      "v": 67
    },
    {
      "midi": 52,
      "hit": false,
      "t": 98289.51300000036,
      "d": 1644.737500000003,
      "v": 48
    },
    {
      "midi": 69,
      "hit": false,
      "t": 98684.25000000036,
      "d": 547.6975874999916,
      "v": 50
    },
    {
      "midi": 61,
      "hit": false,
      "t": 98684.25000000036,
      "d": 559.2107499999984,
      "v": 50
    },
    {
      "midi": 57,
      "hit": false,
      "t": 99473.72400000037,
      "d": 370.0659374999959,
      "v": 39
    },
    {
      "midi": 59,
      "hit": false,
      "t": 99868.46100000036,
      "d": 159.53953749999346,
      "v": 59
    },
    {
      "midi": 64,
      "hit": false,
      "t": 99868.46100000036,
      "d": 175.98691249999683,
      "v": 50
    },
    {
      "midi": 64,
      "hit": false,
      "t": 100263.19800000035,
      "d": 625.0002499999973,
      "v": 63
    },
    {
      "midi": 55,
      "hit": false,
      "t": 100263.19800000035,
      "d": 906.2503624999954,
      "v": 54
    },
    {
      "midi": 46,
      "hit": false,
      "t": 100263.19800000035,
      "d": 1912.8297124999954,
      "v": 73
    },
    {
      "midi": 58,
      "hit": false,
      "t": 100657.93500000035,
      "d": 360.19751250000263,
      "v": 62
    },
    {
      "midi": 61,
      "hit": false,
      "t": 101052.67200000036,
      "d": 425.98701249998703,
      "v": 77
    },
    {
      "midi": 55,
      "hit": false,
      "t": 101447.40900000035,
      "d": 799.3424249999953,
      "v": 53
    },
    {
      "midi": 64,
      "hit": false,
      "t": 101842.14600000034,
      "d": 375.0001500000071,
      "v": 60
    },
    {
      "midi": 59,
      "hit": false,
      "t": 102631.62000000034,
      "d": 376.64488749999146,
      "v": 39
    },
    {
      "midi": 64,
      "hit": false,
      "t": 102631.62000000034,
      "d": 422.69753749998927,
      "v": 37
    },
    {
      "midi": 47,
      "hit": false,
      "t": 102631.62000000034,
      "d": 1809.2112500000076,
      "v": 63
    },
    {
      "midi": 56,
      "hit": false,
      "t": 103026.35700000034,
      "d": 1217.1057500000024,
      "v": 57
    },
    {
      "midi": 59,
      "hit": false,
      "t": 103421.09400000033,
      "d": 513.1581000000006,
      "v": 66
    },
    {
      "midi": 71,
      "hit": false,
      "t": 104210.56800000033,
      "d": 194.07902500001364,
      "v": 84
    },
    {
      "midi": 64,
      "hit": false,
      "t": 104605.30500000036,
      "d": 101.97372500000347,
      "v": 59
    },
    {
      "midi": 66,
      "hit": false,
      "t": 105000.04200000037,
      "d": 468.75018750000163,
      "v": 71
    },
    {
      "midi": 68,
      "hit": false,
      "t": 105000.04200000037,
      "d": 664.4739499999996,
      "v": 71
    },
    {
      "midi": 49,
      "hit": false,
      "t": 105000.04200000037,
      "d": 741.7766125000053,
      "v": 79
    },
    {
      "midi": 56,
      "hit": false,
      "t": 105394.77900000037,
      "d": 363.4869875000004,
      "v": 74
    },
    {
      "midi": 61,
      "hit": false,
      "t": 105789.51600000037,
      "d": 279.6053749999992,
      "v": 92
    },
    {
      "midi": 66,
      "hit": false,
      "t": 106184.25300000036,
      "d": 139.80268750000687,
      "v": 87
    },
    {
      "midi": 56,
      "hit": false,
      "t": 106578.99000000037,
      "d": 294.4080125000037,
      "v": 71
    },
    {
      "midi": 61,
      "hit": false,
      "t": 106578.99000000037,
      "d": 368.42119999999704,
      "v": 82
    },
    {
      "midi": 65,
      "hit": false,
      "t": 106578.99000000037,
      "d": 375.0001499999926,
      "v": 65
    },
    {
      "midi": 53,
      "hit": false,
      "t": 106578.99000000037,
      "d": 394.7369999999937,
      "v": 68
    },
    {
      "midi": 41,
      "hit": false,
      "t": 106578.99000000037,
      "d": 435.8554374999949,
      "v": 77
    },
    {
      "midi": 56,
      "hit": false,
      "t": 106973.72700000036,
      "d": 70.7237124999956,
      "v": 65
    },
    {
      "midi": 57,
      "hit": false,
      "t": 107368.46400000036,
      "d": 348.68435000001045,
      "v": 86
    },
    {
      "midi": 61,
      "hit": false,
      "t": 107368.46400000036,
      "d": 547.6975875000062,
      "v": 86
    },
    {
      "midi": 64,
      "hit": false,
      "t": 107368.46400000036,
      "d": 552.6318000000028,
      "v": 86
    },
    {
      "midi": 42,
      "hit": false,
      "t": 107368.46400000036,
      "d": 1759.8691249999974,
      "v": 86
    },
    {
      "midi": 52,
      "hit": false,
      "t": 107368.46400000036,
      "d": 1873.356012499993,
      "v": 86
    },
    {
      "midi": 57,
      "hit": false,
      "t": 108157.93800000036,
      "d": 248.35536250000587,
      "v": 44
    },
    {
      "midi": 64,
      "hit": false,
      "t": 108947.41200000036,
      "d": 202.3027124999935,
      "v": 90
    },
    {
      "midi": 57,
      "hit": false,
      "t": 109736.88600000036,
      "d": 381.57910000000265,
      "v": 81
    },
    {
      "midi": 61,
      "hit": false,
      "t": 109736.88600000036,
      "d": 488.48703750000277,
      "v": 81
    },
    {
      "midi": 64,
      "hit": false,
      "t": 109736.88600000036,
      "d": 500.0002000000095,
      "v": 81
    },
    {
      "midi": 54,
      "hit": false,
      "t": 109736.88600000036,
      "d": 1103.6188625000214,
      "v": 81
    },
    {
      "midi": 47,
      "hit": false,
      "t": 109736.88600000036,
      "d": 1134.8688750000147,
      "v": 81
    },
    {
      "midi": 57,
      "hit": false,
      "t": 110526.36000000038,
      "d": 233.55272500000137,
      "v": 76
    },
    {
      "midi": 61,
      "hit": false,
      "t": 110921.09700000037,
      "d": 128.28952500000014,
      "v": 97
    },
    {
      "midi": 60,
      "hit": false,
      "t": 111315.83400000037,
      "d": 315.7896000000037,
      "v": 87
    },
    {
      "midi": 63,
      "hit": false,
      "t": 111315.83400000037,
      "d": 322.36854999999923,
      "v": 87
    },
    {
      "midi": 54,
      "hit": false,
      "t": 111315.83400000037,
      "d": 327.3027624999959,
      "v": 87
    },
    {
      "midi": 48,
      "hit": false,
      "t": 111315.83400000037,
      "d": 332.2369749999925,
      "v": 87
    },
    {
      "midi": 66,
      "hit": false,
      "t": 111710.57100000036,
      "d": 106.90793750000012,
      "v": 87
    },
    {
      "midi": 59,
      "hit": false,
      "t": 112105.30800000037,
      "d": 263.15800000001036,
      "v": 72
    },
    {
      "midi": 64,
      "hit": false,
      "t": 112105.30800000037,
      "d": 320.7238125000149,
      "v": 72
    },
    {
      "midi": 68,
      "hit": false,
      "t": 112105.30800000037,
      "d": 335.5264500000194,
      "v": 72
    },
    {
      "midi": 37,
      "hit": false,
      "t": 112105.30800000037,
      "d": 782.895050000021,
      "v": 72
    },
    {
      "midi": 59,
      "hit": false,
      "t": 112500.04500000039,
      "d": 414.47384999999485,
      "v": 56
    },
    {
      "midi": 64,
      "hit": false,
      "t": 112894.78200000038,
      "d": 291.1185375000059,
      "v": 60
    },
    {
      "midi": 64,
      "hit": false,
      "t": 113684.25600000039,
      "d": 320.72381250000035,
      "v": 57
    },
    {
      "midi": 66,
      "hit": false,
      "t": 114078.99300000038,
      "d": 87.17108749999898,
      "v": 76
    },
    {
      "midi": 58,
      "hit": false,
      "t": 114473.73000000037,
      "d": 460.52649999999267,
      "v": 43
    },
    {
      "midi": 61,
      "hit": false,
      "t": 114473.73000000037,
      "d": 513.158099999986,
      "v": 59
    },
    {
      "midi": 66,
      "hit": false,
      "t": 114473.73000000037,
      "d": 542.7633749999804,
      "v": 49
    },
    {
      "midi": 54,
      "hit": false,
      "t": 114473.73000000037,
      "d": 1958.8823624999786,
      "v": 45
    },
    {
      "midi": 46,
      "hit": false,
      "t": 114473.73000000037,
      "d": 1960.5270999999775,
      "v": 59
    },
    {
      "midi": 58,
      "hit": false,
      "t": 115263.20400000036,
      "d": 236.84219999999914,
      "v": 39
    },
    {
      "midi": 61,
      "hit": false,
      "t": 115657.94100000036,
      "d": 215.46061249999912,
      "v": 55
    },
    {
      "midi": 66,
      "hit": false,
      "t": 116052.67800000035,
      "d": 383.22383750000154,
      "v": 47
    },
    {
      "midi": 59,
      "hit": false,
      "t": 116842.15200000035,
      "d": 376.644887500006,
      "v": 41
    },
    {
      "midi": 64,
      "hit": false,
      "t": 116842.15200000035,
      "d": 388.15805000001274,
      "v": 38
    },
    {
      "midi": 47,
      "hit": false,
      "t": 116842.15200000035,
      "d": 1379.9347624999937,
      "v": 37
    },
    {
      "midi": 56,
      "hit": false,
      "t": 117236.88900000036,
      "d": 981.9082874999876,
      "v": 55
    },
    {
      "midi": 71,
      "hit": false,
      "t": 117631.62600000035,
      "d": 235.19746250000026,
      "v": 68
    },
    {
      "midi": 59,
      "hit": false,
      "t": 118026.36300000035,
      "d": 213.81587500000023,
      "v": 44
    },
    {
      "midi": 64,
      "hit": false,
      "t": 118421.10000000034,
      "d": 194.0790249999991,
      "v": 26
    },
    {
      "midi": 59,
      "hit": false,
      "t": 118815.83700000033,
      "d": 75.6579250000068,
      "v": 35
    },
    {
      "midi": 57,
      "hit": false,
      "t": 119210.57400000034,
      "d": 509.8686250000028,
      "v": 30
    },
    {
      "midi": 64,
      "hit": false,
      "t": 119210.57400000034,
      "d": 570.7239125000051,
      "v": 41
    },
    {
      "midi": 61,
      "hit": false,
      "t": 119210.57400000034,
      "d": 1893.0928625000088,
      "v": 48
    },
    {
      "midi": 56,
      "hit": false,
      "t": 119210.57400000034,
      "d": 1894.7376000000077,
      "v": 35
    },
    {
      "midi": 47,
      "hit": false,
      "t": 119210.57400000034,
      "d": 1924.342875000002,
      "v": 45
    },
    {
      "midi": 54,
      "hit": false,
      "t": 120789.52200000035,
      "d": 294.4080125000037,
      "v": 43
    },
    {
      "midi": 63,
      "hit": false,
      "t": 120789.52200000035,
      "d": 299.3422250000003,
      "v": 43
    },
    {
      "midi": 56,
      "hit": false,
      "t": 121578.99600000033,
      "d": 389.80278749999707,
      "v": 48
    },
    {
      "midi": 64,
      "hit": false,
      "t": 121578.99600000033,
      "d": 435.8554374999949,
      "v": 30
    },
    {
      "midi": 40,
      "hit": false,
      "t": 121578.99600000033,
      "d": 1937.5007750000077,
      "v": 46
    },
    {
      "midi": 47,
      "hit": false,
      "t": 121973.73300000033,
      "d": 1386.5137125000183,
      "v": 45
    },
    {
      "midi": 59,
      "hit": false,
      "t": 122368.47000000034,
      "d": 360.19751250000263,
      "v": 38
    },
    {
      "midi": 54,
      "hit": false,
      "t": 122763.20700000034,
      "d": 657.8950000000041,
      "v": 42
    },
    {
      "midi": 56,
      "hit": false,
      "t": 123552.68100000035,
      "d": 750.0002999999997,
      "v": 38
    },
    {
      "midi": 40,
      "hit": false,
      "t": 123957.28642500035,
      "d": 1735.1980624999997,
      "v": 38
    },
    {
      "midi": 47,
      "hit": false,
      "t": 124368.47080000034,
      "d": 1299.3426250000048,
      "v": 33
    },
    {
      "midi": 59,
      "hit": false,
      "t": 124812.54992500035,
      "d": 213.81587500000023,
      "v": 36
    },
    {
      "midi": 54,
      "hit": false,
      "t": 125263.20800000035,
      "d": 465.46071250000386,
      "v": 25
    },
    {
      "midi": 56,
      "hit": false,
      "t": 126220.44522500035,
      "d": 151.31584999999905,
      "v": 23
    }
  ]
}