{
  "jsonPath": "Rock/Dance Rock/Blondie/heart-of-glass-lp-version.json",
  "path": "Rock\\Dance Rock\\Blondie\\Heart Of Glass (LP Version).mid",
  "name": "Heart Of Glass (LP Version)",
  "difficulty": "Advanced",
  "bpm": 110.00011000011,
  "notes": [
    {
      "midi": 52,
      "hit": false,
      "t": 2181.8160000000003,
      "d": 62.499937500000215,
      "v": 113
    },
    {
      "midi": 52,
      "hit": false,
      "t": 2318.1795000000006,
      "d": 62.499937500000215,
      "v": 89
    },
    {
      "midi": 52,
      "hit": false,
      "t": 2454.543000000001,
      "d": 45.454499999999825,
      "v": 49
    },
    {
      "midi": 52,
      "hit": false,
      "t": 2590.906500000001,
      "d": 73.86356250000017,
      "v": 93
    },
    {
      "midi": 52,
      "hit": false,
      "t": 2863.6335000000013,
      "d": 62.499937500000215,
      "v": 80
    },
    {
      "midi": 52,
      "hit": false,
      "t": 2999.9970000000017,
      "d": 73.86356250000017,
      "v": 113
    },
    {
      "midi": 52,
      "hit": false,
      "t": 3136.360500000002,
      "d": 68.18175000000019,
      "v": 64
    },
    {
      "midi": 52,
      "hit": false,
      "t": 3272.7240000000024,
      "d": 68.18175000000019,
      "v": 93
    },
    {
      "midi": 52,
      "hit": false,
      "t": 3409.087500000003,
      "d": 79.54537500000015,
      "v": 102
    },
    {
      "midi": 52,
      "hit": false,
      "t": 3681.814500000003,
      "d": 73.86356250000017,
      "v": 72
    },
    {
      "midi": 52,
      "hit": false,
      "t": 3818.1780000000035,
      "d": 79.54537500000015,
      "v": 107
    },
    {
      "midi": 52,
      "hit": false,
      "t": 3954.5415000000035,
      "d": 73.86356250000017,
      "v": 80
    },
    {
      "midi": 52,
      "hit": false,
      "t": 4090.905000000004,
      "d": 79.54537500000015,
      "v": 102
    },
    {
      "midi": 52,
      "hit": false,
      "t": 4227.268500000004,
      "d": 85.22718749999967,
      "v": 102
    },
    {
      "midi": 52,
      "hit": false,
      "t": 4363.632000000003,
      "d": 68.18174999999974,
      "v": 107
    },
    {
      "midi": 52,
      "hit": false,
      "t": 4499.995500000003,
      "d": 51.1363124999998,
      "v": 52
    },
    {
      "midi": 52,
      "hit": false,
      "t": 4636.359000000002,
      "d": 85.22718749999967,
      "v": 102
    },
    {
      "midi": 52,
      "hit": false,
      "t": 4772.722500000002,
      "d": 85.22718749999967,
      "v": 102
    },
    {
      "midi": 52,
      "hit": false,
      "t": 5045.4495000000015,
      "d": 79.5453749999997,
      "v": 98
    },
    {
      "midi": 52,
      "hit": false,
      "t": 5181.813000000001,
      "d": 68.18174999999974,
      "v": 93
    },
    {
      "midi": 52,
      "hit": false,
      "t": 5318.1765000000005,
      "d": 45.454499999999825,
      "v": 62
    },
    {
      "midi": 52,
      "hit": false,
      "t": 5590.9035,
      "d": 79.5453749999997,
      "v": 107
    },
    {
      "midi": 52,
      "hit": false,
      "t": 5727.267,
      "d": 39.77268749999985,
      "v": 57
    },
    {
      "midi": 52,
      "hit": false,
      "t": 5863.630499999999,
      "d": 79.5453749999997,
      "v": 89
    },
    {
      "midi": 52,
      "hit": false,
      "t": 5999.993999999999,
      "d": 73.86356249999972,
      "v": 113
    },
    {
      "midi": 52,
      "hit": false,
      "t": 6136.357499999998,
      "d": 79.5453749999997,
      "v": 80
    },
    {
      "midi": 52,
      "hit": false,
      "t": 6272.720999999998,
      "d": 68.18174999999974,
      "v": 98
    },
    {
      "midi": 52,
      "hit": false,
      "t": 6409.084499999997,
      "d": 73.86356249999972,
      "v": 85
    },
    {
      "midi": 52,
      "hit": false,
      "t": 6545.447999999997,
      "d": 79.5453749999997,
      "v": 113
    },
    {
      "midi": 52,
      "hit": false,
      "t": 6681.811499999996,
      "d": 68.18174999999974,
      "v": 93
    },
    {
      "midi": 52,
      "hit": false,
      "t": 6818.174999999996,
      "d": 79.5453749999997,
      "v": 93
    },
    {
      "midi": 52,
      "hit": false,
      "t": 6954.538499999995,
      "d": 79.5453749999997,
      "v": 107
    },
    {
      "midi": 52,
      "hit": false,
      "t": 7227.265499999995,
      "d": 73.86356249999972,
      "v": 93
    },
    {
      "midi": 52,
      "hit": false,
      "t": 7363.628999999994,
      "d": 73.86356249999972,
      "v": 107
    },
    {
      "midi": 52,
      "hit": false,
      "t": 7499.992499999994,
      "d": 62.49993749999976,
      "v": 93
    },
    {
      "midi": 52,
      "hit": false,
      "t": 7636.355999999993,
      "d": 73.86356249999972,
      "v": 98
    },
    {
      "midi": 52,
      "hit": false,
      "t": 7772.719499999993,
      "d": 79.5453749999997,
      "v": 93
    },
    {
      "midi": 52,
      "hit": false,
      "t": 8045.446499999993,
      "d": 79.5453749999997,
      "v": 93
    },
    {
      "midi": 52,
      "hit": false,
      "t": 8181.809999999992,
      "d": 79.5453749999997,
      "v": 107
    },
    {
      "midi": 52,
      "hit": false,
      "t": 8318.173499999992,
      "d": 45.454499999999825,
      "v": 49
    },
    {
      "midi": 52,
      "hit": false,
      "t": 8454.536999999991,
      "d": 79.5453749999997,
      "v": 102
    },
    {
      "midi": 52,
      "hit": false,
      "t": 8590.90049999999,
      "d": 68.18174999999974,
      "v": 72
    },
    {
      "midi": 52,
      "hit": false,
      "t": 8727.26399999999,
      "d": 85.22718750000058,
      "v": 107
    },
    {
      "midi": 52,
      "hit": false,
      "t": 8863.627499999991,
      "d": 73.86356250000063,
      "v": 85
    },
    {
      "midi": 52,
      "hit": false,
      "t": 8999.990999999993,
      "d": 90.90899999999965,
      "v": 102
    },
    {
      "midi": 52,
      "hit": false,
      "t": 9136.354499999992,
      "d": 85.22718750000058,
      "v": 102
    },
    {
      "midi": 52,
      "hit": false,
      "t": 9409.081499999993,
      "d": 85.22718750000058,
      "v": 98
    },
    {
      "midi": 52,
      "hit": false,
      "t": 9545.444999999994,
      "d": 79.5453749999997,
      "v": 113
    },
    {
      "midi": 52,
      "hit": false,
      "t": 9681.808499999994,
      "d": 73.86356250000063,
      "v": 89
    },
    {
      "midi": 52,
      "hit": false,
      "t": 9818.171999999995,
      "d": 73.86356250000063,
      "v": 98
    },
    {
      "midi": 52,
      "hit": false,
      "t": 9954.535499999996,
      "d": 79.5453749999997,
      "v": 98
    },
    {
      "midi": 52,
      "hit": false,
      "t": 10227.262499999995,
      "d": 90.90899999999965,
      "v": 98
    },
    {
      "midi": 52,
      "hit": false,
      "t": 10363.625999999995,
      "d": 90.90899999999965,
      "v": 107
    },
    {
      "midi": 52,
      "hit": false,
      "t": 10499.989499999994,
      "d": 79.5453749999997,
      "v": 102
    },
    {
      "midi": 52,
      "hit": false,
      "t": 10636.352999999994,
      "d": 90.90899999999965,
      "v": 98
    },
    {
      "midi": 52,
      "hit": false,
      "t": 10772.716499999993,
      "d": 79.5453749999997,
      "v": 93
    },
    {
      "midi": 68,
      "hit": false,
      "t": 10909.079999999993,
      "d": 1340.9077500000003,
      "v": 93
    },
    {
      "midi": 64,
      "hit": false,
      "t": 10909.079999999993,
      "d": 1346.5895625000012,
      "v": 89
    },
    {
      "midi": 56,
      "hit": false,
      "t": 10909.079999999993,
      "d": 1374.998625000002,
      "v": 76
    },
    {
      "midi": 59,
      "hit": false,
      "t": 10909.079999999993,
      "d": 1380.6804375000029,
      "v": 93
    },
    {
      "midi": 52,
      "hit": false,
      "t": 10909.079999999993,
      "d": 1397.7258750000037,
      "v": 85
    },
    {
      "midi": 65,
      "hit": false,
      "t": 13090.895999999997,
      "d": 1573.8620625000003,
      "v": 93
    },
    {
      "midi": 49,
      "hit": false,
      "t": 13090.895999999997,
      "d": 1602.2711250000011,
      "v": 76
    },
    {
      "midi": 68,
      "hit": false,
      "t": 13090.895999999997,
      "d": 1602.2711250000011,
      "v": 89
    },
    {
      "midi": 61,
      "hit": false,
      "t": 13090.895999999997,
      "d": 1659.089250000001,
      "v": 68
    },
    {
      "midi": 68,
      "hit": false,
      "t": 15272.711999999998,
      "d": 1335.2259374999976,
      "v": 85
    },
    {
      "midi": 64,
      "hit": false,
      "t": 15272.711999999998,
      "d": 1374.9986249999984,
      "v": 89
    },
    {
      "midi": 61,
      "hit": false,
      "t": 15272.711999999998,
      "d": 1409.0895,
      "v": 72
    },
    {
      "midi": 37,
      "hit": false,
      "t": 15272.711999999998,
      "d": 1460.225812499999,
      "v": 80
    },
    {
      "midi": 64,
      "hit": false,
      "t": 17454.528,
      "d": 1954.5434999999998,
      "v": 76
    },
    {
      "midi": 56,
      "hit": false,
      "t": 17454.528,
      "d": 1988.6343750000015,
      "v": 64
    },
    {
      "midi": 40,
      "hit": false,
      "t": 17454.528,
      "d": 1999.9980000000032,
      "v": 89
    },
    {
      "midi": 59,
      "hit": false,
      "t": 17454.528,
      "d": 2022.7252500000031,
      "v": 76
    },
    {
      "midi": 40,
      "hit": false,
      "t": 19636.344,
      "d": 1227.271499999999,
      "v": 89
    },
    {
      "midi": 64,
      "hit": false,
      "t": 19636.344,
      "d": 1244.3169374999998,
      "v": 89
    },
    {
      "midi": 56,
      "hit": false,
      "t": 19636.344,
      "d": 1249.9987499999988,
      "v": 80
    },
    {
      "midi": 59,
      "hit": false,
      "t": 19636.344,
      "d": 1261.3623750000006,
      "v": 98
    },
    {
      "midi": 65,
      "hit": false,
      "t": 21818.16,
      "d": 1761.3618750000023,
      "v": 68
    },
    {
      "midi": 61,
      "hit": false,
      "t": 21818.16,
      "d": 1806.8163750000022,
      "v": 72
    },
    {
      "midi": 68,
      "hit": false,
      "t": 21818.16,
      "d": 1806.8163750000022,
      "v": 80
    },
    {
      "midi": 49,
      "hit": false,
      "t": 21818.16,
      "d": 1840.9072500000038,
      "v": 89
    },
    {
      "midi": 68,
      "hit": false,
      "t": 23999.976000000002,
      "d": 1238.6351250000007,
      "v": 85
    },
    {
      "midi": 64,
      "hit": false,
      "t": 23999.976000000002,
      "d": 1249.9987500000025,
      "v": 93
    },
    {
      "midi": 49,
      "hit": false,
      "t": 23999.976000000002,
      "d": 1267.0441875000033,
      "v": 89
    },
    {
      "midi": 61,
      "hit": false,
      "t": 23999.976000000002,
      "d": 1284.0896250000042,
      "v": 72
    },
    {
      "midi": 52,
      "hit": false,
      "t": 26181.792000000005,
      "d": 62.49993750000067,
      "v": 113
    },
    {
      "midi": 52,
      "hit": false,
      "t": 26318.155500000004,
      "d": 62.49993750000067,
      "v": 89
    },
    {
      "midi": 52,
      "hit": false,
      "t": 26454.519000000004,
      "d": 45.454499999999825,
      "v": 49
    },
    {
      "midi": 52,
      "hit": false,
      "t": 26590.882500000003,
      "d": 73.8635624999988,
      "v": 93
    },
    {
      "midi": 52,
      "hit": false,
      "t": 26863.609500000002,
      "d": 62.49993750000067,
      "v": 80
    },
    {
      "midi": 52,
      "hit": false,
      "t": 26999.973,
      "d": 73.8635624999988,
      "v": 113
    },
    {
      "midi": 52,
      "hit": false,
      "t": 27136.3365,
      "d": 68.18174999999974,
      "v": 64
    },
    {
      "midi": 52,
      "hit": false,
      "t": 27272.7,
      "d": 68.18174999999974,
      "v": 93
    },
    {
      "midi": 52,
      "hit": false,
      "t": 27409.0635,
      "d": 79.54537500000151,
      "v": 102
    },
    {
      "midi": 52,
      "hit": false,
      "t": 27681.790500000003,
      "d": 73.8635624999988,
      "v": 72
    },
    {
      "midi": 52,
      "hit": false,
      "t": 27818.154000000002,
      "d": 79.54537500000151,
      "v": 107
    },
    {
      "midi": 52,
      "hit": false,
      "t": 27954.517500000005,
      "d": 73.8635624999988,
      "v": 80
    },
    {
      "midi": 52,
      "hit": false,
      "t": 28090.881000000005,
      "d": 79.54537500000151,
      "v": 102
    },
    {
      "midi": 52,
      "hit": false,
      "t": 28227.244500000008,
      "d": 85.22718750000058,
      "v": 102
    },
    {
      "midi": 52,
      "hit": false,
      "t": 28363.608000000007,
      "d": 68.18174999999974,
      "v": 107
    },
    {
      "midi": 52,
      "hit": false,
      "t": 28499.971500000007,
      "d": 51.136312499998894,
      "v": 52
    },
    {
      "midi": 52,
      "hit": false,
      "t": 28636.335000000006,
      "d": 85.22718750000058,
      "v": 102
    },
    {
      "midi": 52,
      "hit": false,
      "t": 28772.698500000006,
      "d": 85.22718750000058,
      "v": 102
    },
    {
      "midi": 52,
      "hit": false,
      "t": 29045.425500000005,
      "d": 79.54537500000151,
      "v": 98
    },
    {
      "midi": 52,
      "hit": false,
      "t": 29181.789000000008,
      "d": 68.18174999999974,
      "v": 93
    },
    {
      "midi": 52,
      "hit": false,
      "t": 29318.152500000007,
      "d": 45.454499999999825,
      "v": 62
    },
    {
      "midi": 52,
      "hit": false,
      "t": 29590.879500000006,
      "d": 79.54537500000151,
      "v": 107
    },
    {
      "midi": 52,
      "hit": false,
      "t": 29727.24300000001,
      "d": 39.77268750000076,
      "v": 57
    },
    {
      "midi": 52,
      "hit": false,
      "t": 29863.60650000001,
      "d": 79.54537500000151,
      "v": 89
    },
    {
      "midi": 52,
      "hit": false,
      "t": 29999.970000000012,
      "d": 73.8635624999988,
      "v": 113
    },
    {
      "midi": 52,
      "hit": false,
      "t": 30136.33350000001,
      "d": 79.54537500000151,
      "v": 80
    },
    {
      "midi": 52,
      "hit": false,
      "t": 30272.697000000015,
      "d": 68.18174999999974,
      "v": 98
    },
    {
      "midi": 52,
      "hit": false,
      "t": 30409.060500000014,
      "d": 73.8635624999988,
      "v": 85
    },
    {
      "midi": 52,
      "hit": false,
      "t": 30545.424000000014,
      "d": 79.54537500000151,
      "v": 113
    },
    {
      "midi": 52,
      "hit": false,
      "t": 30681.787500000017,
      "d": 68.18174999999974,
      "v": 93
    },
    {
      "midi": 52,
      "hit": false,
      "t": 30818.151000000016,
      "d": 79.54537500000151,
      "v": 93
    },
    {
      "midi": 52,
      "hit": false,
      "t": 30954.51450000002,
      "d": 79.54537500000151,
      "v": 107
    },
    {
      "midi": 52,
      "hit": false,
      "t": 31227.241500000022,
      "d": 73.8635624999988,
      "v": 93
    },
    {
      "midi": 52,
      "hit": false,
      "t": 31363.60500000002,
      "d": 73.8635624999988,
      "v": 107
    },
    {
      "midi": 52,
      "hit": false,
      "t": 31499.96850000002,
      "d": 62.49993750000067,
      "v": 93
    },
    {
      "midi": 52,
      "hit": false,
      "t": 31636.33200000002,
      "d": 73.8635624999988,
      "v": 98
    },
    {
      "midi": 52,
      "hit": false,
      "t": 31772.69550000002,
      "d": 79.54537500000151,
      "v": 93
    },
    {
      "midi": 52,
      "hit": false,
      "t": 32045.422500000022,
      "d": 79.54537500000151,
      "v": 93
    },
    {
      "midi": 52,
      "hit": false,
      "t": 32181.786000000026,
      "d": 79.54537500000151,
      "v": 107
    },
    {
      "midi": 52,
      "hit": false,
      "t": 32318.14950000003,
      "d": 45.454499999999825,
      "v": 49
    },
    {
      "midi": 52,
      "hit": false,
      "t": 32454.513000000028,
      "d": 79.54537500000151,
      "v": 102
    },
    {
      "midi": 52,
      "hit": false,
      "t": 32590.87650000003,
      "d": 68.18174999999974,
      "v": 72
    },
    {
      "midi": 52,
      "hit": false,
      "t": 32727.24000000003,
      "d": 85.22718749999694,
      "v": 107
    },
    {
      "midi": 52,
      "hit": false,
      "t": 32863.60350000003,
      "d": 73.86356250000244,
      "v": 85
    },
    {
      "midi": 52,
      "hit": false,
      "t": 32999.967000000026,
      "d": 90.90899999999965,
      "v": 102
    },
    {
      "midi": 52,
      "hit": false,
      "t": 33136.330500000025,
      "d": 85.22718750000058,
      "v": 102
    },
    {
      "midi": 52,
      "hit": false,
      "t": 33409.057500000024,
      "d": 85.22718750000058,
      "v": 98
    },
    {
      "midi": 52,
      "hit": false,
      "t": 33545.421000000024,
      "d": 79.54537500000151,
      "v": 113
    },
    {
      "midi": 52,
      "hit": false,
      "t": 33681.78450000002,
      "d": 73.86356250000244,
      "v": 89
    },
    {
      "midi": 52,
      "hit": false,
      "t": 33818.14800000002,
      "d": 73.86356250000244,
      "v": 98
    },
    {
      "midi": 52,
      "hit": false,
      "t": 33954.51150000002,
      "d": 79.54537500000151,
      "v": 98
    },
    {
      "midi": 52,
      "hit": false,
      "t": 34227.23850000002,
      "d": 90.90899999999965,
      "v": 98
    },
    {
      "midi": 52,
      "hit": false,
      "t": 34363.60200000002,
      "d": 90.90899999999965,
      "v": 107
    },
    {
      "midi": 52,
      "hit": false,
      "t": 34499.96550000002,
      "d": 79.54537500000151,
      "v": 102
    },
    {
      "midi": 52,
      "hit": false,
      "t": 34636.32900000002,
      "d": 90.90899999999965,
      "v": 98
    },
    {
      "midi": 52,
      "hit": false,
      "t": 34772.69250000002,
      "d": 79.54537500000151,
      "v": 93
    },
    {
      "midi": 68,
      "hit": false,
      "t": 34909.05600000002,
      "d": 1340.9077499999985,
      "v": 93
    },
    {
      "midi": 64,
      "hit": false,
      "t": 34909.05600000002,
      "d": 1346.5895624999976,
      "v": 89
    },
    {
      "midi": 56,
      "hit": false,
      "t": 34909.05600000002,
      "d": 1374.9986250000002,
      "v": 76
    },
    {
      "midi": 59,
      "hit": false,
      "t": 34909.05600000002,
      "d": 1380.6804374999992,
      "v": 93
    },
    {
      "midi": 52,
      "hit": false,
      "t": 34909.05600000002,
      "d": 1397.7258749999964,
      "v": 85
    },
    {
      "midi": 65,
      "hit": false,
      "t": 37090.87200000002,
      "d": 1573.862062500004,
      "v": 93
    },
    {
      "midi": 49,
      "hit": false,
      "t": 37090.87200000002,
      "d": 1602.2711250000066,
      "v": 76
    },
    {
      "midi": 68,
      "hit": false,
      "t": 37090.87200000002,
      "d": 1602.2711250000066,
      "v": 89
    },
    {
      "midi": 61,
      "hit": false,
      "t": 37090.87200000002,
      "d": 1659.0892500000045,
      "v": 68
    },
    {
      "midi": 68,
      "hit": false,
      "t": 39272.688000000024,
      "d": 1335.2259374999994,
      "v": 85
    },
    {
      "midi": 64,
      "hit": false,
      "t": 39272.688000000024,
      "d": 1374.9986250000002,
      "v": 89
    },
    {
      "midi": 61,
      "hit": false,
      "t": 39272.688000000024,
      "d": 1409.0895000000019,
      "v": 72
    },
    {
      "midi": 37,
      "hit": false,
      "t": 39272.688000000024,
      "d": 1460.2258125000008,
      "v": 80
    },
    {
      "midi": 64,
      "hit": false,
      "t": 41454.50400000002,
      "d": 1954.5434999999998,
      "v": 76
    },
    {
      "midi": 56,
      "hit": false,
      "t": 41454.50400000002,
      "d": 1988.6343750000015,
      "v": 64
    },
    {
      "midi": 40,
      "hit": false,
      "t": 41454.50400000002,
      "d": 1999.9979999999996,
      "v": 89
    },
    {
      "midi": 59,
      "hit": false,
      "t": 41454.50400000002,
      "d": 2022.7252500000031,
      "v": 76
    },
    {
      "midi": 40,
      "hit": false,
      "t": 43636.32000000003,
      "d": 1227.2715000000026,
      "v": 89
    },
    {
      "midi": 64,
      "hit": false,
      "t": 43636.32000000003,
      "d": 1244.3169374999998,
      "v": 89
    },
    {
      "midi": 56,
      "hit": false,
      "t": 43636.32000000003,
      "d": 1249.9987499999988,
      "v": 80
    },
    {
      "midi": 59,
      "hit": false,
      "t": 43636.32000000003,
      "d": 1261.362374999997,
      "v": 98
    },
    {
      "midi": 65,
      "hit": false,
      "t": 45818.13600000003,
      "d": 1761.3618750000023,
      "v": 68
    },
    {
      "midi": 61,
      "hit": false,
      "t": 45818.13600000003,
      "d": 1806.8163750000022,
      "v": 72
    },
    {
      "midi": 68,
      "hit": false,
      "t": 45818.13600000003,
      "d": 1806.8163750000022,
      "v": 80
    },
    {
      "midi": 49,
      "hit": false,
      "t": 45818.13600000003,
      "d": 1840.9072500000038,
      "v": 89
    },
    {
      "midi": 68,
      "hit": false,
      "t": 47999.952000000034,
      "d": 1238.6351250000007,
      "v": 85
    },
    {
      "midi": 64,
      "hit": false,
      "t": 47999.952000000034,
      "d": 1249.9987499999988,
      "v": 93
    },
    {
      "midi": 49,
      "hit": false,
      "t": 47999.952000000034,
      "d": 1267.044187499996,
      "v": 89
    },
    {
      "midi": 61,
      "hit": false,
      "t": 47999.952000000034,
      "d": 1284.0896249999932,
      "v": 72
    },
    {
      "midi": 59,
      "hit": false,
      "t": 50181.768000000025,
      "d": 1068.1807499999995,
      "v": 76
    },
    {
      "midi": 40,
      "hit": false,
      "t": 50181.768000000025,
      "d": 1102.2716250000012,
      "v": 89
    },
    {
      "midi": 68,
      "hit": false,
      "t": 50181.768000000025,
      "d": 1102.2716250000012,
      "v": 85
    },
    {
      "midi": 64,
      "hit": false,
      "t": 50181.768000000025,
      "d": 1119.3170624999984,
      "v": 98
    },
    {
      "midi": 52,
      "hit": false,
      "t": 52363.584000000024,
      "d": 249.99975000000268,
      "v": 119
    },
    {
      "midi": 64,
      "hit": false,
      "t": 52636.31100000003,
      "d": 159.09075000000303,
      "v": 107
    },
    {
      "midi": 54,
      "hit": false,
      "t": 52909.03800000004,
      "d": 244.3179375000036,
      "v": 113
    },
    {
      "midi": 66,
      "hit": false,
      "t": 53181.76500000004,
      "d": 176.13618750000023,
      "v": 113
    },
    {
      "midi": 55,
      "hit": false,
      "t": 53454.49200000004,
      "d": 261.3633750000008,
      "v": 113
    },
    {
      "midi": 67,
      "hit": false,
      "t": 53727.21900000004,
      "d": 221.59068750000006,
      "v": 107
    },
    {
      "midi": 56,
      "hit": false,
      "t": 53999.94600000004,
      "d": 284.0906249999971,
      "v": 113
    },
    {
      "midi": 68,
      "hit": false,
      "t": 54272.67300000004,
      "d": 130.6816875000004,
      "v": 113
    },
    {
      "midi": 52,
      "hit": false,
      "t": 54545.40000000004,
      "d": 1738.634625000006,
      "v": 85
    },
    {
      "midi": 57,
      "hit": false,
      "t": 54545.40000000004,
      "d": 1772.7255000000077,
      "v": 85
    },
    {
      "midi": 61,
      "hit": false,
      "t": 54545.40000000004,
      "d": 1806.8163750000094,
      "v": 93
    },
    {
      "midi": 64,
      "hit": false,
      "t": 54545.40000000004,
      "d": 1806.8163750000094,
      "v": 93
    },
    {
      "midi": 45,
      "hit": false,
      "t": 54545.40000000004,
      "d": 1863.6345000000074,
      "v": 93
    },
    {
      "midi": 61,
      "hit": false,
      "t": 56727.216000000044,
      "d": 903.4081874999974,
      "v": 72
    },
    {
      "midi": 64,
      "hit": false,
      "t": 56727.216000000044,
      "d": 965.9081249999945,
      "v": 85
    },
    {
      "midi": 52,
      "hit": false,
      "t": 56727.216000000044,
      "d": 1551.1348125000004,
      "v": 80
    },
    {
      "midi": 45,
      "hit": false,
      "t": 56727.216000000044,
      "d": 1585.225687500002,
      "v": 89
    },
    {
      "midi": 61,
      "hit": false,
      "t": 57818.12400000004,
      "d": 176.13618750000023,
      "v": 76
    },
    {
      "midi": 64,
      "hit": false,
      "t": 57818.12400000004,
      "d": 198.86343750000378,
      "v": 102
    },
    {
      "midi": 69,
      "hit": false,
      "t": 57818.12400000004,
      "d": 215.908875000001,
      "v": 98
    },
    {
      "midi": 64,
      "hit": false,
      "t": 58909.03200000004,
      "d": 1693.180124999999,
      "v": 102
    },
    {
      "midi": 59,
      "hit": false,
      "t": 58909.03200000004,
      "d": 1715.9073750000025,
      "v": 89
    },
    {
      "midi": 68,
      "hit": false,
      "t": 58909.03200000004,
      "d": 1721.5891875000016,
      "v": 89
    },
    {
      "midi": 56,
      "hit": false,
      "t": 61090.84800000004,
      "d": 90.90899999999965,
      "v": 76
    },
    {
      "midi": 40,
      "hit": false,
      "t": 61090.84800000004,
      "d": 1272.725999999995,
      "v": 93
    },
    {
      "midi": 59,
      "hit": false,
      "t": 61090.84800000004,
      "d": 1374.998624999993,
      "v": 89
    },
    {
      "midi": 64,
      "hit": false,
      "t": 61090.84800000004,
      "d": 1403.4076874999955,
      "v": 85
    },
    {
      "midi": 61,
      "hit": false,
      "t": 63272.66400000004,
      "d": 1642.0438125,
      "v": 107
    },
    {
      "midi": 64,
      "hit": false,
      "t": 63272.66400000004,
      "d": 1732.9528124999997,
      "v": 113
    },
    {
      "midi": 57,
      "hit": false,
      "t": 63272.66400000004,
      "d": 1772.7255000000005,
      "v": 89
    },
    {
      "midi": 45,
      "hit": false,
      "t": 63272.66400000004,
      "d": 1784.0891249999986,
      "v": 98
    },
    {
      "midi": 52,
      "hit": false,
      "t": 63272.66400000004,
      "d": 1829.5436249999984,
      "v": 98
    },
    {
      "midi": 45,
      "hit": false,
      "t": 65454.48000000004,
      "d": 960.2263125000027,
      "v": 89
    },
    {
      "midi": 57,
      "hit": false,
      "t": 65454.48000000004,
      "d": 977.2717499999999,
      "v": 85
    },
    {
      "midi": 64,
      "hit": false,
      "t": 65454.48000000004,
      "d": 999.9989999999962,
      "v": 102
    },
    {
      "midi": 61,
      "hit": false,
      "t": 65454.48000000004,
      "d": 1022.7262499999924,
      "v": 98
    },
    {
      "midi": 66,
      "hit": false,
      "t": 67636.29600000003,
      "d": 1295.4532499999914,
      "v": 98
    },
    {
      "midi": 70,
      "hit": false,
      "t": 67636.29600000003,
      "d": 1312.4986874999886,
      "v": 98
    },
    {
      "midi": 54,
      "hit": false,
      "t": 67636.29600000003,
      "d": 1346.589562499983,
      "v": 64
    },
    {
      "midi": 58,
      "hit": false,
      "t": 67636.29600000003,
      "d": 1346.589562499983,
      "v": 62
    },
    {
      "midi": 61,
      "hit": false,
      "t": 67636.29600000003,
      "d": 1346.589562499983,
      "v": 93
    },
    {
      "midi": 49,
      "hit": false,
      "t": 67636.29600000003,
      "d": 1420.4531249999854,
      "v": 102
    },
    {
      "midi": 57,
      "hit": false,
      "t": 69818.11200000002,
      "d": 880.6809375000012,
      "v": 76
    },
    {
      "midi": 63,
      "hit": false,
      "t": 69818.11200000002,
      "d": 1772.725499999986,
      "v": 93
    },
    {
      "midi": 66,
      "hit": false,
      "t": 69818.11200000002,
      "d": 1789.7709374999831,
      "v": 76
    },
    {
      "midi": 47,
      "hit": false,
      "t": 69818.11200000002,
      "d": 1795.4527499999822,
      "v": 93
    },
    {
      "midi": 59,
      "hit": false,
      "t": 70909.02000000002,
      "d": 659.0902499999938,
      "v": 93
    },
    {
      "midi": 52,
      "hit": false,
      "t": 71999.928,
      "d": 62.49993750000431,
      "v": 113
    },
    {
      "midi": 52,
      "hit": false,
      "t": 72136.2915,
      "d": 62.49993750000431,
      "v": 89
    },
    {
      "midi": 52,
      "hit": false,
      "t": 72272.65500000001,
      "d": 45.4545000000071,
      "v": 49
    },
    {
      "midi": 52,
      "hit": false,
      "t": 72409.01850000002,
      "d": 73.86356250000244,
      "v": 93
    },
    {
      "midi": 52,
      "hit": false,
      "t": 72681.74550000002,
      "d": 62.49993750000431,
      "v": 80
    },
    {
      "midi": 52,
      "hit": false,
      "t": 72818.10900000003,
      "d": 73.86356250000244,
      "v": 113
    },
    {
      "midi": 52,
      "hit": false,
      "t": 72954.47250000003,
      "d": 68.18175000000338,
      "v": 64
    },
    {
      "midi": 52,
      "hit": false,
      "t": 73090.83600000004,
      "d": 68.18175000000338,
      "v": 93
    },
    {
      "midi": 52,
      "hit": false,
      "t": 73227.19950000005,
      "d": 79.54537500000151,
      "v": 102
    },
    {
      "midi": 52,
      "hit": false,
      "t": 73499.92650000005,
      "d": 73.86356250000244,
      "v": 72
    },
    {
      "midi": 52,
      "hit": false,
      "t": 73636.29000000005,
      "d": 79.54537500000151,
      "v": 107
    },
    {
      "midi": 52,
      "hit": false,
      "t": 73772.65350000006,
      "d": 73.86356250000244,
      "v": 80
    },
    {
      "midi": 52,
      "hit": false,
      "t": 73909.01700000007,
      "d": 79.54537500000151,
      "v": 102
    },
    {
      "midi": 52,
      "hit": false,
      "t": 74045.38050000007,
      "d": 85.22718750000058,
      "v": 102
    },
    {
      "midi": 52,
      "hit": false,
      "t": 74181.74400000008,
      "d": 68.18175000000338,
      "v": 107
    },
    {
      "midi": 52,
      "hit": false,
      "t": 74318.10750000009,
      "d": 51.13631250000617,
      "v": 52
    },
    {
      "midi": 52,
      "hit": false,
      "t": 74454.47100000009,
      "d": 85.22718750000058,
      "v": 102
    },
    {
      "midi": 52,
      "hit": false,
      "t": 74590.8345000001,
      "d": 85.22718750000058,
      "v": 102
    },
    {
      "midi": 52,
      "hit": false,
      "t": 74863.5615000001,
      "d": 79.54537500000151,
      "v": 98
    },
    {
      "midi": 52,
      "hit": false,
      "t": 74999.9250000001,
      "d": 68.18175000000338,
      "v": 93
    },
    {
      "midi": 52,
      "hit": false,
      "t": 75136.28850000011,
      "d": 45.4545000000071,
      "v": 62
    },
    {
      "midi": 52,
      "hit": false,
      "t": 75409.01550000013,
      "d": 79.54537500000151,
      "v": 107
    },
    {
      "midi": 52,
      "hit": false,
      "t": 75545.37900000013,
      "d": 39.77268749999348,
      "v": 57
    },
    {
      "midi": 52,
      "hit": false,
      "t": 75681.74250000012,
      "d": 79.54537500000151,
      "v": 89
    },
    {
      "midi": 52,
      "hit": false,
      "t": 75818.10600000013,
      "d": 73.86356250000244,
      "v": 113
    },
    {
      "midi": 52,
      "hit": false,
      "t": 75954.46950000014,
      "d": 79.54537500000151,
      "v": 80
    },
    {
      "midi": 52,
      "hit": false,
      "t": 76090.83300000014,
      "d": 68.18175000000338,
      "v": 98
    },
    {
      "midi": 52,
      "hit": false,
      "t": 76227.19650000015,
      "d": 73.86356250000244,
      "v": 85
    },
    {
      "midi": 52,
      "hit": false,
      "t": 76363.56000000016,
      "d": 79.54537500000151,
      "v": 113
    },
    {
      "midi": 52,
      "hit": false,
      "t": 76499.92350000016,
      "d": 68.18175000000338,
      "v": 93
    },
    {
      "midi": 52,
      "hit": false,
      "t": 76636.28700000017,
      "d": 79.54537500000151,
      "v": 93
    },
    {
      "midi": 52,
      "hit": false,
      "t": 76772.65050000018,
      "d": 79.54537500000151,
      "v": 107
    },
    {
      "midi": 52,
      "hit": false,
      "t": 77045.37750000018,
      "d": 73.86356250000244,
      "v": 93
    },
    {
      "midi": 52,
      "hit": false,
      "t": 77181.74100000018,
      "d": 73.86356250000244,
      "v": 107
    },
    {
      "midi": 52,
      "hit": false,
      "t": 77318.10450000019,
      "d": 62.49993750000431,
      "v": 93
    },
    {
      "midi": 52,
      "hit": false,
      "t": 77454.4680000002,
      "d": 73.86356250000244,
      "v": 98
    },
    {
      "midi": 52,
      "hit": false,
      "t": 77590.8315000002,
      "d": 79.54537500000151,
      "v": 93
    },
    {
      "midi": 52,
      "hit": false,
      "t": 77863.5585000002,
      "d": 79.54537500000151,
      "v": 93
    },
    {
      "midi": 52,
      "hit": false,
      "t": 77999.92200000021,
      "d": 79.54537500000151,
      "v": 107
    },
    {
      "midi": 52,
      "hit": false,
      "t": 78136.28550000022,
      "d": 45.4545000000071,
      "v": 49
    },
    {
      "midi": 52,
      "hit": false,
      "t": 78272.64900000022,
      "d": 79.54537500000151,
      "v": 102
    },
    {
      "midi": 52,
      "hit": false,
      "t": 78409.01250000023,
      "d": 68.18175000000338,
      "v": 72
    },
    {
      "midi": 52,
      "hit": false,
      "t": 78545.37600000024,
      "d": 85.22718750000058,
      "v": 107
    },
    {
      "midi": 52,
      "hit": false,
      "t": 78681.73950000024,
      "d": 73.86356250000244,
      "v": 85
    },
    {
      "midi": 52,
      "hit": false,
      "t": 78818.10300000025,
      "d": 90.90899999999965,
      "v": 102
    },
    {
      "midi": 52,
      "hit": false,
      "t": 78954.46650000026,
      "d": 85.22718750000058,
      "v": 102
    },
    {
      "midi": 52,
      "hit": false,
      "t": 79227.19350000026,
      "d": 85.22718750000058,
      "v": 98
    },
    {
      "midi": 52,
      "hit": false,
      "t": 79363.55700000026,
      "d": 79.54537500000151,
      "v": 113
    },
    {
      "midi": 52,
      "hit": false,
      "t": 79499.92050000027,
      "d": 73.86356250000244,
      "v": 89
    },
    {
      "midi": 52,
      "hit": false,
      "t": 79636.28400000028,
      "d": 73.86356250000244,
      "v": 98
    },
    {
      "midi": 52,
      "hit": false,
      "t": 79772.64750000028,
      "d": 79.54537500000151,
      "v": 98
    },
    {
      "midi": 52,
      "hit": false,
      "t": 80045.37450000028,
      "d": 90.90899999999965,
      "v": 98
    },
    {
      "midi": 52,
      "hit": false,
      "t": 80181.73800000029,
      "d": 90.90899999999965,
      "v": 107
    },
    {
      "midi": 52,
      "hit": false,
      "t": 80318.1015000003,
      "d": 79.54537500000151,
      "v": 102
    },
    {
      "midi": 52,
      "hit": false,
      "t": 80454.4650000003,
      "d": 90.90899999999965,
      "v": 98
    },
    {
      "midi": 52,
      "hit": false,
      "t": 80590.82850000031,
      "d": 79.54537500000151,
      "v": 93
    },
    {
      "midi": 68,
      "hit": false,
      "t": 80727.19200000032,
      "d": 1340.9077499999985,
      "v": 93
    },
    {
      "midi": 64,
      "hit": false,
      "t": 80727.19200000032,
      "d": 1346.5895624999976,
      "v": 89
    },
    {
      "midi": 56,
      "hit": false,
      "t": 80727.19200000032,
      "d": 1374.998624999993,
      "v": 76
    },
    {
      "midi": 59,
      "hit": false,
      "t": 80727.19200000032,
      "d": 1380.680437499992,
      "v": 93
    },
    {
      "midi": 52,
      "hit": false,
      "t": 80727.19200000032,
      "d": 1397.7258749999892,
      "v": 85
    },
    {
      "midi": 65,
      "hit": false,
      "t": 82909.0080000003,
      "d": 1573.8620624999894,
      "v": 93
    },
    {
      "midi": 49,
      "hit": false,
      "t": 82909.0080000003,
      "d": 1602.2711249999847,
      "v": 76
    },
    {
      "midi": 68,
      "hit": false,
      "t": 82909.0080000003,
      "d": 1602.2711249999847,
      "v": 89
    },
    {
      "midi": 61,
      "hit": false,
      "t": 82909.0080000003,
      "d": 1659.08924999999,
      "v": 68
    },
    {
      "midi": 68,
      "hit": false,
      "t": 85090.8240000003,
      "d": 1335.2259374999994,
      "v": 85
    },
    {
      "midi": 64,
      "hit": false,
      "t": 85090.8240000003,
      "d": 1374.998624999993,
      "v": 89
    },
    {
      "midi": 61,
      "hit": false,
      "t": 85090.8240000003,
      "d": 1409.0894999999873,
      "v": 72
    },
    {
      "midi": 37,
      "hit": false,
      "t": 85090.8240000003,
      "d": 1460.2258124999935,
      "v": 80
    },
    {
      "midi": 64,
      "hit": false,
      "t": 87272.64000000029,
      "d": 1954.5434999999998,
      "v": 76
    },
    {
      "midi": 56,
      "hit": false,
      "t": 87272.64000000029,
      "d": 1988.6343749999942,
      "v": 64
    },
    {
      "midi": 40,
      "hit": false,
      "t": 87272.64000000029,
      "d": 1999.9979999999923,
      "v": 89
    },
    {
      "midi": 59,
      "hit": false,
      "t": 87272.64000000029,
      "d": 2022.7252499999886,
      "v": 76
    },
    {
      "midi": 40,
      "hit": false,
      "t": 89454.45600000028,
      "d": 1227.2715000000026,
      "v": 89
    },
    {
      "midi": 64,
      "hit": false,
      "t": 89454.45600000028,
      "d": 1244.3169374999998,
      "v": 89
    },
    {
      "midi": 56,
      "hit": false,
      "t": 89454.45600000028,
      "d": 1249.9987499999988,
      "v": 80
    },
    {
      "midi": 59,
      "hit": false,
      "t": 89454.45600000028,
      "d": 1261.362374999997,
      "v": 98
    },
    {
      "midi": 65,
      "hit": false,
      "t": 91636.27200000027,
      "d": 1761.3618750000023,
      "v": 68
    },
    {
      "midi": 61,
      "hit": false,
      "t": 91636.27200000027,
      "d": 1806.8163750000094,
      "v": 72
    },
    {
      "midi": 68,
      "hit": false,
      "t": 91636.27200000027,
      "d": 1806.8163750000094,
      "v": 80
    },
    {
      "midi": 49,
      "hit": false,
      "t": 91636.27200000027,
      "d": 1840.9072500000038,
      "v": 89
    },
    {
      "midi": 68,
      "hit": false,
      "t": 93818.08800000028,
      "d": 1238.6351250000007,
      "v": 85
    },
    {
      "midi": 64,
      "hit": false,
      "t": 93818.08800000028,
      "d": 1249.9987499999988,
      "v": 93
    },
    {
      "midi": 49,
      "hit": false,
      "t": 93818.08800000028,
      "d": 1267.044187499996,
      "v": 89
    },
    {
      "midi": 61,
      "hit": false,
      "t": 93818.08800000028,
      "d": 1284.0896249999932,
      "v": 72
    },
    {
      "midi": 59,
      "hit": false,
      "t": 95999.90400000029,
      "d": 1068.1807499999995,
      "v": 76
    },
    {
      "midi": 40,
      "hit": false,
      "t": 95999.90400000029,
      "d": 1102.271624999994,
      "v": 89
    },
    {
      "midi": 68,
      "hit": false,
      "t": 95999.90400000029,
      "d": 1102.271624999994,
      "v": 85
    },
    {
      "midi": 64,
      "hit": false,
      "t": 95999.90400000029,
      "d": 1119.3170624999912,
      "v": 98
    },
    {
      "midi": 52,
      "hit": false,
      "t": 98181.72000000028,
      "d": 249.99975000000268,
      "v": 119
    },
    {
      "midi": 64,
      "hit": false,
      "t": 98454.44700000028,
      "d": 159.09075000000303,
      "v": 107
    },
    {
      "midi": 54,
      "hit": false,
      "t": 98727.17400000028,
      "d": 244.3179375000036,
      "v": 113
    },
    {
      "midi": 66,
      "hit": false,
      "t": 98999.90100000027,
      "d": 176.13618750000023,
      "v": 113
    },
    {
      "midi": 55,
      "hit": false,
      "t": 99272.62800000027,
      "d": 261.3633750000008,
      "v": 113
    },
    {
      "midi": 67,
      "hit": false,
      "t": 99545.35500000027,
      "d": 221.59068749999278,
      "v": 107
    },
    {
      "midi": 56,
      "hit": false,
      "t": 99818.08200000027,
      "d": 284.0906249999971,
      "v": 113
    },
    {
      "midi": 68,
      "hit": false,
      "t": 100090.80900000027,
      "d": 130.68168749999313,
      "v": 113
    },
    {
      "midi": 52,
      "hit": false,
      "t": 100363.53600000027,
      "d": 1738.6346249999915,
      "v": 85
    },
    {
      "midi": 57,
      "hit": false,
      "t": 100363.53600000027,
      "d": 1772.725499999986,
      "v": 85
    },
    {
      "midi": 61,
      "hit": false,
      "t": 100363.53600000027,
      "d": 1806.8163749999803,
      "v": 93
    },
    {
      "midi": 64,
      "hit": false,
      "t": 100363.53600000027,
      "d": 1806.8163749999803,
      "v": 93
    },
    {
      "midi": 45,
      "hit": false,
      "t": 100363.53600000027,
      "d": 1863.6344999999856,
      "v": 93
    },
    {
      "midi": 61,
      "hit": false,
      "t": 102545.35200000026,
      "d": 903.4081874999974,
      "v": 72
    },
    {
      "midi": 64,
      "hit": false,
      "t": 102545.35200000026,
      "d": 965.9081250000017,
      "v": 85
    },
    {
      "midi": 52,
      "hit": false,
      "t": 102545.35200000026,
      "d": 1551.1348124999931,
      "v": 80
    },
    {
      "midi": 45,
      "hit": false,
      "t": 102545.35200000026,
      "d": 1585.2256874999875,
      "v": 89
    },
    {
      "midi": 61,
      "hit": false,
      "t": 103636.26000000026,
      "d": 176.13618750000023,
      "v": 76
    },
    {
      "midi": 64,
      "hit": false,
      "t": 103636.26000000026,
      "d": 198.8634374999965,
      "v": 102
    },
    {
      "midi": 69,
      "hit": false,
      "t": 103636.26000000026,
      "d": 215.9088749999937,
      "v": 98
    },
    {
      "midi": 64,
      "hit": false,
      "t": 104727.16800000025,
      "d": 1693.180124999999,
      "v": 102
    },
    {
      "midi": 59,
      "hit": false,
      "t": 104727.16800000025,
      "d": 1715.9073749999952,
      "v": 89
    },
    {
      "midi": 68,
      "hit": false,
      "t": 104727.16800000025,
      "d": 1721.5891874999943,
      "v": 89
    },
    {
      "midi": 56,
      "hit": false,
      "t": 106908.98400000024,
      "d": 90.90899999999965,
      "v": 76
    },
    {
      "midi": 40,
      "hit": false,
      "t": 106908.98400000024,
      "d": 1272.725999999995,
      "v": 93
    },
    {
      "midi": 59,
      "hit": false,
      "t": 106908.98400000024,
      "d": 1374.998624999993,
      "v": 89
    },
    {
      "midi": 64,
      "hit": false,
      "t": 106908.98400000024,
      "d": 1403.4076874999882,
      "v": 85
    },
    {
      "midi": 61,
      "hit": false,
      "t": 109090.80000000024,
      "d": 1642.0438124999928,
      "v": 107
    },
    {
      "midi": 64,
      "hit": false,
      "t": 109090.80000000024,
      "d": 1732.9528124999924,
      "v": 113
    },
    {
      "midi": 57,
      "hit": false,
      "t": 109090.80000000024,
      "d": 1772.725499999986,
      "v": 89
    },
    {
      "midi": 45,
      "hit": false,
      "t": 109090.80000000024,
      "d": 1784.089124999984,
      "v": 98
    },
    {
      "midi": 52,
      "hit": false,
      "t": 109090.80000000024,
      "d": 1829.5436249999912,
      "v": 98
    },
    {
      "midi": 45,
      "hit": false,
      "t": 111272.61600000023,
      "d": 960.2263125000027,
      "v": 89
    },
    {
      "midi": 57,
      "hit": false,
      "t": 111272.61600000023,
      "d": 977.2717499999999,
      "v": 85
    },
    {
      "midi": 64,
      "hit": false,
      "t": 111272.61600000023,
      "d": 999.9989999999962,
      "v": 102
    },
    {
      "midi": 61,
      "hit": false,
      "t": 111272.61600000023,
      "d": 1022.7262499999924,
      "v": 98
    },
    {
      "midi": 64,
      "hit": false,
      "t": 113454.43200000022,
      "d": 1693.180124999999,
      "v": 102
    },
    {
      "midi": 59,
      "hit": false,
      "t": 113454.43200000022,
      "d": 1715.9073749999952,
      "v": 89
    },
    {
      "midi": 68,
      "hit": false,
      "t": 113454.43200000022,
      "d": 1721.5891874999943,
      "v": 89
    },
    {
      "midi": 56,
      "hit": false,
      "t": 115636.24800000021,
      "d": 90.90899999999965,
      "v": 76
    },
    {
      "midi": 40,
      "hit": false,
      "t": 115636.24800000021,
      "d": 1272.725999999995,
      "v": 93
    },
    {
      "midi": 59,
      "hit": false,
      "t": 115636.24800000021,
      "d": 1374.998624999993,
      "v": 89
    },
    {
      "midi": 64,
      "hit": false,
      "t": 115636.24800000021,
      "d": 1403.4076874999882,
      "v": 85
    },
    {
      "midi": 52,
      "hit": false,
      "t": 117818.0640000002,
      "d": 1738.6346249999915,
      "v": 85
    },
    {
      "midi": 57,
      "hit": false,
      "t": 117818.0640000002,
      "d": 1772.725499999986,
      "v": 85
    },
    {
      "midi": 61,
      "hit": false,
      "t": 117818.0640000002,
      "d": 1806.8163749999803,
      "v": 93
    },
    {
      "midi": 64,
      "hit": false,
      "t": 117818.0640000002,
      "d": 1806.8163749999803,
      "v": 93
    },
    {
      "midi": 45,
      "hit": false,
      "t": 117818.0640000002,
      "d": 1863.634499999971,
      "v": 93
    },
    {
      "midi": 45,
      "hit": false,
      "t": 119999.88000000018,
      "d": 1147.726125000001,
      "v": 93
    },
    {
      "midi": 52,
      "hit": false,
      "t": 119999.88000000018,
      "d": 1147.726125000001,
      "v": 76
    },
    {
      "midi": 61,
      "hit": false,
      "t": 119999.88000000018,
      "d": 1181.8169999999955,
      "v": 89
    },
    {
      "midi": 64,
      "hit": false,
      "t": 119999.88000000018,
      "d": 1181.8169999999955,
      "v": 89
    },
    {
      "midi": 57,
      "hit": false,
      "t": 119999.88000000018,
      "d": 1193.1806249999936,
      "v": 80
    },
    {
      "midi": 61,
      "hit": false,
      "t": 121363.51500000017,
      "d": 79.54537500000151,
      "v": 89
    },
    {
      "midi": 64,
      "hit": false,
      "t": 121363.51500000017,
      "d": 85.22718750000058,
      "v": 98
    },
    {
      "midi": 57,
      "hit": false,
      "t": 121363.51500000017,
      "d": 96.59081249999872,
      "v": 89
    },
    {
      "midi": 52,
      "hit": false,
      "t": 121363.51500000017,
      "d": 119.318062499995,
      "v": 89
    },
    {
      "midi": 52,
      "hit": false,
      "t": 121636.24200000017,
      "d": 2062.4979374999966,
      "v": 107
    },
    {
      "midi": 64,
      "hit": false,
      "t": 121636.24200000017,
      "d": 2068.1797499999957,
      "v": 85
    },
    {
      "midi": 56,
      "hit": false,
      "t": 121636.24200000017,
      "d": 2079.543374999994,
      "v": 85
    },
    {
      "midi": 59,
      "hit": false,
      "t": 121636.24200000017,
      "d": 2085.225187499993,
      "v": 98
    },
    {
      "midi": 52,
      "hit": false,
      "t": 123818.05800000016,
      "d": 1107.953437499993,
      "v": 80
    },
    {
      "midi": 64,
      "hit": false,
      "t": 123818.05800000016,
      "d": 1153.4079375000001,
      "v": 89
    },
    {
      "midi": 56,
      "hit": false,
      "t": 123818.05800000016,
      "d": 1159.0897499999992,
      "v": 68
    },
    {
      "midi": 59,
      "hit": false,
      "t": 123818.05800000016,
      "d": 1170.4533749999973,
      "v": 93
    },
    {
      "midi": 56,
      "hit": false,
      "t": 125181.69300000016,
      "d": 56.81812500000524,
      "v": 72
    },
    {
      "midi": 52,
      "hit": false,
      "t": 125181.69300000016,
      "d": 102.27262500001234,
      "v": 89
    },
    {
      "midi": 59,
      "hit": false,
      "t": 125181.69300000016,
      "d": 102.27262500001234,
      "v": 98
    },
    {
      "midi": 64,
      "hit": false,
      "t": 125181.69300000016,
      "d": 136.36350000000675,
      "v": 89
    },
    {
      "midi": 52,
      "hit": false,
      "t": 125454.42000000017,
      "d": 2045.4524999999994,
      "v": 89
    },
    {
      "midi": 45,
      "hit": false,
      "t": 125454.42000000017,
      "d": 2062.4979374999966,
      "v": 98
    },
    {
      "midi": 64,
      "hit": false,
      "t": 125454.42000000017,
      "d": 2079.543374999994,
      "v": 85
    },
    {
      "midi": 57,
      "hit": false,
      "t": 125454.42000000017,
      "d": 2085.225187499993,
      "v": 76
    },
    {
      "midi": 61,
      "hit": false,
      "t": 125454.42000000017,
      "d": 2090.906999999992,
      "v": 89
    },
    {
      "midi": 52,
      "hit": false,
      "t": 127636.23600000016,
      "d": 1136.362500000003,
      "v": 59
    },
    {
      "midi": 45,
      "hit": false,
      "t": 127636.23600000016,
      "d": 1170.4533749999973,
      "v": 80
    },
    {
      "midi": 64,
      "hit": false,
      "t": 127636.23600000016,
      "d": 1193.1806249999936,
      "v": 60
    },
    {
      "midi": 61,
      "hit": false,
      "t": 127636.23600000016,
      "d": 1198.8624374999927,
      "v": 64
    },
    {
      "midi": 57,
      "hit": false,
      "t": 127636.23600000016,
      "d": 1210.2260624999908,
      "v": 62
    },
    {
      "midi": 52,
      "hit": false,
      "t": 128999.87100000016,
      "d": 68.18174999998882,
      "v": 85
    },
    {
      "midi": 61,
      "hit": false,
      "t": 128999.87100000016,
      "d": 68.18174999998882,
      "v": 107
    },
    {
      "midi": 57,
      "hit": false,
      "t": 128999.87100000016,
      "d": 73.86356249998789,
      "v": 93
    },
    {
      "midi": 45,
      "hit": false,
      "t": 128999.87100000016,
      "d": 85.22718749998603,
      "v": 107
    },
    {
      "midi": 64,
      "hit": false,
      "t": 128999.87100000016,
      "d": 90.9089999999851,
      "v": 113
    },
    {
      "midi": 56,
      "hit": false,
      "t": 129272.59800000014,
      "d": 693.1811250000028,
      "v": 76
    },
    {
      "midi": 52,
      "hit": false,
      "t": 129272.59800000014,
      "d": 829.544624999995,
      "v": 93
    },
    {
      "midi": 59,
      "hit": false,
      "t": 129272.59800000014,
      "d": 852.2718749999913,
      "v": 102
    },
    {
      "midi": 64,
      "hit": false,
      "t": 129272.59800000014,
      "d": 1210.2260624999908,
      "v": 93
    },
    {
      "midi": 56,
      "hit": false,
      "t": 130090.77900000014,
      "d": 363.6359999999986,
      "v": 68
    },
    {
      "midi": 52,
      "hit": false,
      "t": 130363.50600000014,
      "d": 249.99974999998813,
      "v": 76
    },
    {
      "midi": 59,
      "hit": false,
      "t": 130636.23300000012,
      "d": 159.09075000000303,
      "v": 85
    },
    {
      "midi": 64,
      "hit": false,
      "t": 130636.23300000012,
      "d": 204.54525000001013,
      "v": 89
    },
    {
      "midi": 52,
      "hit": false,
      "t": 130908.96000000014,
      "d": 215.9088749999937,
      "v": 76
    },
    {
      "midi": 71,
      "hit": false,
      "t": 131727.14100000012,
      "d": 96.59081250001327,
      "v": 89
    },
    {
      "midi": 76,
      "hit": false,
      "t": 132136.23150000014,
      "d": 79.54537499998696,
      "v": 89
    },
    {
      "midi": 76,
      "hit": false,
      "t": 132545.32200000013,
      "d": 79.54537499998696,
      "v": 113
    },
    {
      "midi": 71,
      "hit": false,
      "t": 132545.32200000013,
      "d": 96.59081249998417,
      "v": 98
    },
    {
      "midi": 76,
      "hit": false,
      "t": 132954.41250000012,
      "d": 85.22718749998603,
      "v": 107
    },
    {
      "midi": 71,
      "hit": false,
      "t": 132954.41250000012,
      "d": 90.9089999999851,
      "v": 89
    },
    {
      "midi": 76,
      "hit": false,
      "t": 133363.50300000008,
      "d": 68.18174999998882,
      "v": 98
    },
    {
      "midi": 71,
      "hit": false,
      "t": 133363.50300000008,
      "d": 73.86356249998789,
      "v": 89
    },
    {
      "midi": 52,
      "hit": false,
      "t": 133636.23000000007,
      "d": 1738.634625000006,
      "v": 85
    },
    {
      "midi": 57,
      "hit": false,
      "t": 133636.23000000007,
      "d": 1772.7255000000005,
      "v": 85
    },
    {
      "midi": 61,
      "hit": false,
      "t": 133636.23000000007,
      "d": 1806.8163749999949,
      "v": 93
    },
    {
      "midi": 64,
      "hit": false,
      "t": 133636.23000000007,
      "d": 1806.8163749999949,
      "v": 93
    },
    {
      "midi": 45,
      "hit": false,
      "t": 133636.23000000007,
      "d": 1863.6344999999856,
      "v": 93
    },
    {
      "midi": 61,
      "hit": false,
      "t": 135818.04600000006,
      "d": 903.4081874999974,
      "v": 72
    },
    {
      "midi": 64,
      "hit": false,
      "t": 135818.04600000006,
      "d": 965.9081249999872,
      "v": 85
    },
    {
      "midi": 52,
      "hit": false,
      "t": 135818.04600000006,
      "d": 1551.1348124999786,
      "v": 80
    },
    {
      "midi": 45,
      "hit": false,
      "t": 135818.04600000006,
      "d": 1585.225687499973,
      "v": 89
    },
    {
      "midi": 61,
      "hit": false,
      "t": 136908.95400000006,
      "d": 176.13618750000023,
      "v": 76
    },
    {
      "midi": 64,
      "hit": false,
      "t": 136908.95400000006,
      "d": 198.8634374999965,
      "v": 102
    },
    {
      "midi": 69,
      "hit": false,
      "t": 136908.95400000006,
      "d": 215.9088749999937,
      "v": 98
    },
    {
      "midi": 64,
      "hit": false,
      "t": 137999.86200000002,
      "d": 1693.1801249999844,
      "v": 102
    },
    {
      "midi": 59,
      "hit": false,
      "t": 137999.86200000002,
      "d": 1715.9073749999807,
      "v": 89
    },
    {
      "midi": 68,
      "hit": false,
      "t": 137999.86200000002,
      "d": 1721.5891874999797,
      "v": 89
    },
    {
      "midi": 56,
      "hit": false,
      "t": 140181.678,
      "d": 90.9090000000142,
      "v": 76
    },
    {
      "midi": 40,
      "hit": false,
      "t": 140181.678,
      "d": 1272.7260000000242,
      "v": 93
    },
    {
      "midi": 59,
      "hit": false,
      "t": 140181.678,
      "d": 1374.9986250000366,
      "v": 89
    },
    {
      "midi": 64,
      "hit": false,
      "t": 140181.678,
      "d": 1403.407687500032,
      "v": 85
    },
    {
      "midi": 61,
      "hit": false,
      "t": 142363.49400000006,
      "d": 1642.0438124999928,
      "v": 107
    },
    {
      "midi": 64,
      "hit": false,
      "t": 142363.49400000006,
      "d": 1732.952812500007,
      "v": 113
    },
    {
      "midi": 57,
      "hit": false,
      "t": 142363.49400000006,
      "d": 1772.7255000000005,
      "v": 89
    },
    {
      "midi": 45,
      "hit": false,
      "t": 142363.49400000006,
      "d": 1784.0891249999986,
      "v": 98
    },
    {
      "midi": 52,
      "hit": false,
      "t": 142363.49400000006,
      "d": 1829.5436249999912,
      "v": 98
    },
    {
      "midi": 45,
      "hit": false,
      "t": 144545.31000000006,
      "d": 960.2263124999881,
      "v": 89
    },
    {
      "midi": 57,
      "hit": false,
      "t": 144545.31000000006,
      "d": 977.2717499999853,
      "v": 85
    },
    {
      "midi": 64,
      "hit": false,
      "t": 144545.31000000006,
      "d": 999.9989999999816,
      "v": 102
    },
    {
      "midi": 61,
      "hit": false,
      "t": 144545.31000000006,
      "d": 1022.7262499999779,
      "v": 98
    },
    {
      "midi": 66,
      "hit": false,
      "t": 146727.12600000002,
      "d": 1295.4532499999914,
      "v": 98
    },
    {
      "midi": 70,
      "hit": false,
      "t": 146727.12600000002,
      "d": 1312.4986874999886,
      "v": 98
    },
    {
      "midi": 54,
      "hit": false,
      "t": 146727.12600000002,
      "d": 1346.589562499983,
      "v": 64
    },
    {
      "midi": 58,
      "hit": false,
      "t": 146727.12600000002,
      "d": 1346.589562499983,
      "v": 62
    },
    {
      "midi": 61,
      "hit": false,
      "t": 146727.12600000002,
      "d": 1346.589562499983,
      "v": 93
    },
    {
      "midi": 49,
      "hit": false,
      "t": 146727.12600000002,
      "d": 1420.453124999971,
      "v": 102
    },
    {
      "midi": 57,
      "hit": false,
      "t": 148908.94199999998,
      "d": 880.6809375000012,
      "v": 76
    },
    {
      "midi": 63,
      "hit": false,
      "t": 148908.94199999998,
      "d": 1772.7255000000005,
      "v": 93
    },
    {
      "midi": 66,
      "hit": false,
      "t": 148908.94199999998,
      "d": 1789.7709374999977,
      "v": 76
    },
    {
      "midi": 47,
      "hit": false,
      "t": 148908.94199999998,
      "d": 1795.4527499999967,
      "v": 93
    },
    {
      "midi": 59,
      "hit": false,
      "t": 149999.84999999998,
      "d": 659.0902500000084,
      "v": 93
    },
    {
      "midi": 52,
      "hit": false,
      "t": 151090.75799999997,
      "d": 62.499937499989755,
      "v": 113
    },
    {
      "midi": 52,
      "hit": false,
      "t": 151227.12149999995,
      "d": 62.499937499989755,
      "v": 89
    },
    {
      "midi": 52,
      "hit": false,
      "t": 151363.48499999993,
      "d": 45.45449999999255,
      "v": 49
    },
    {
      "midi": 52,
      "hit": false,
      "t": 151499.84849999993,
      "d": 73.86356249998789,
      "v": 93
    },
    {
      "midi": 52,
      "hit": false,
      "t": 151772.57549999992,
      "d": 62.499937499989755,
      "v": 80
    },
    {
      "midi": 52,
      "hit": false,
      "t": 151908.9389999999,
      "d": 73.86356249998789,
      "v": 113
    },
    {
      "midi": 52,
      "hit": false,
      "t": 152045.30249999987,
      "d": 68.18174999998882,
      "v": 64
    },
    {
      "midi": 52,
      "hit": false,
      "t": 152181.66599999985,
      "d": 68.18174999998882,
      "v": 93
    },
    {
      "midi": 52,
      "hit": false,
      "t": 152318.02949999983,
      "d": 79.54537499998696,
      "v": 102
    },
    {
      "midi": 52,
      "hit": false,
      "t": 152590.7564999998,
      "d": 73.86356249998789,
      "v": 72
    },
    {
      "midi": 52,
      "hit": false,
      "t": 152727.1199999998,
      "d": 79.54537499998696,
      "v": 107
    },
    {
      "midi": 52,
      "hit": false,
      "t": 152863.48349999977,
      "d": 73.86356249998789,
      "v": 80
    },
    {
      "midi": 52,
      "hit": false,
      "t": 152999.84699999975,
      "d": 79.54537499998696,
      "v": 102
    },
    {
      "midi": 52,
      "hit": false,
      "t": 153136.21049999972,
      "d": 85.22718749998603,
      "v": 102
    },
    {
      "midi": 52,
      "hit": false,
      "t": 153272.5739999997,
      "d": 68.18174999998882,
      "v": 107
    },
    {
      "midi": 52,
      "hit": false,
      "t": 153408.93749999968,
      "d": 51.13631249999162,
      "v": 52
    },
    {
      "midi": 52,
      "hit": false,
      "t": 153545.30099999966,
      "d": 85.22718749998603,
      "v": 102
    },
    {
      "midi": 52,
      "hit": false,
      "t": 153681.66449999964,
      "d": 85.22718749998603,
      "v": 102
    },
    {
      "midi": 52,
      "hit": false,
      "t": 153954.39149999962,
      "d": 79.54537499998696,
      "v": 98
    },
    {
      "midi": 52,
      "hit": false,
      "t": 154090.7549999996,
      "d": 68.18174999998882,
      "v": 93
    },
    {
      "midi": 52,
      "hit": false,
      "t": 154227.11849999957,
      "d": 45.45449999999255,
      "v": 62
    },
    {
      "midi": 52,
      "hit": false,
      "t": 154499.84549999956,
      "d": 79.54537499998696,
      "v": 107
    },
    {
      "midi": 52,
      "hit": false,
      "t": 154636.20899999954,
      "d": 39.77268749999348,
      "v": 57
    },
    {
      "midi": 52,
      "hit": false,
      "t": 154772.57249999954,
      "d": 79.54537499998696,
      "v": 89
    },
    {
      "midi": 52,
      "hit": false,
      "t": 154908.93599999952,
      "d": 73.86356249998789,
      "v": 113
    },
    {
      "midi": 52,
      "hit": false,
      "t": 155045.2994999995,
      "d": 79.54537499998696,
      "v": 80
    },
    {
      "midi": 52,
      "hit": false,
      "t": 155181.66299999948,
      "d": 68.18174999998882,
      "v": 98
    },
    {
      "midi": 52,
      "hit": false,
      "t": 155318.02649999945,
      "d": 73.86356249998789,
      "v": 85
    },
    {
      "midi": 52,
      "hit": false,
      "t": 155454.38999999943,
      "d": 79.54537499998696,
      "v": 113
    },
    {
      "midi": 52,
      "hit": false,
      "t": 155590.7534999994,
      "d": 68.18174999998882,
      "v": 93
    },
    {
      "midi": 52,
      "hit": false,
      "t": 155727.1169999994,
      "d": 79.54537499998696,
      "v": 93
    },
    {
      "midi": 52,
      "hit": false,
      "t": 155863.48049999936,
      "d": 79.54537499998696,
      "v": 107
    },
    {
      "midi": 52,
      "hit": false,
      "t": 156136.20749999935,
      "d": 73.86356249998789,
      "v": 93
    },
    {
      "midi": 52,
      "hit": false,
      "t": 156272.57099999933,
      "d": 73.86356249998789,
      "v": 107
    },
    {
      "midi": 52,
      "hit": false,
      "t": 156408.9344999993,
      "d": 62.499937499989755,
      "v": 93
    },
    {
      "midi": 52,
      "hit": false,
      "t": 156545.29799999928,
      "d": 73.86356249998789,
      "v": 98
    },
    {
      "midi": 52,
      "hit": false,
      "t": 156681.66149999926,
      "d": 79.54537499998696,
      "v": 93
    },
    {
      "midi": 52,
      "hit": false,
      "t": 156954.38849999924,
      "d": 79.54537499998696,
      "v": 93
    },
    {
      "midi": 52,
      "hit": false,
      "t": 157090.75199999922,
      "d": 79.54537499998696,
      "v": 107
    },
    {
      "midi": 52,
      "hit": false,
      "t": 157227.1154999992,
      "d": 45.45449999999255,
      "v": 49
    },
    {
      "midi": 52,
      "hit": false,
      "t": 157363.4789999992,
      "d": 79.54537499998696,
      "v": 102
    },
    {
      "midi": 52,
      "hit": false,
      "t": 157499.84249999918,
      "d": 68.18174999998882,
      "v": 72
    },
    {
      "midi": 52,
      "hit": false,
      "t": 157636.20599999916,
      "d": 85.22718749998603,
      "v": 107
    },
    {
      "midi": 52,
      "hit": false,
      "t": 157772.56949999914,
      "d": 73.86356249998789,
      "v": 85
    },
    {
      "midi": 52,
      "hit": false,
      "t": 157908.93299999912,
      "d": 90.9090000000142,
      "v": 102
    },
    {
      "midi": 52,
      "hit": false,
      "t": 158045.29649999912,
      "d": 85.22718749998603,
      "v": 102
    },
    {
      "midi": 52,
      "hit": false,
      "t": 158318.0234999991,
      "d": 85.22718749998603,
      "v": 98
    },
    {
      "midi": 52,
      "hit": false,
      "t": 158454.3869999991,
      "d": 79.54537499998696,
      "v": 113
    },
    {
      "midi": 52,
      "hit": false,
      "t": 158590.75049999906,
      "d": 73.86356249998789,
      "v": 89
    },
    {
      "midi": 52,
      "hit": false,
      "t": 158727.11399999904,
      "d": 73.86356249998789,
      "v": 98
    },
    {
      "midi": 52,
      "hit": false,
      "t": 158863.47749999902,
      "d": 79.54537499998696,
      "v": 98
    },
    {
      "midi": 52,
      "hit": false,
      "t": 159136.204499999,
      "d": 90.9090000000142,
      "v": 98
    },
    {
      "midi": 52,
      "hit": false,
      "t": 159272.567999999,
      "d": 90.9090000000142,
      "v": 107
    },
    {
      "midi": 52,
      "hit": false,
      "t": 159408.93149999902,
      "d": 79.54537499998696,
      "v": 102
    },
    {
      "midi": 52,
      "hit": false,
      "t": 159545.294999999,
      "d": 90.9090000000142,
      "v": 98
    },
    {
      "midi": 52,
      "hit": false,
      "t": 159681.658499999,
      "d": 79.54537499998696,
      "v": 93
    },
    {
      "midi": 52,
      "hit": false,
      "t": 159818.02199999898,
      "d": 62.499937499989755,
      "v": 113
    },
    {
      "midi": 52,
      "hit": false,
      "t": 159954.38549999896,
      "d": 62.499937499989755,
      "v": 89
    },
    {
      "midi": 52,
      "hit": false,
      "t": 160090.74899999893,
      "d": 45.45449999999255,
      "v": 49
    },
    {
      "midi": 52,
      "hit": false,
      "t": 160227.11249999894,
      "d": 73.86356249998789,
      "v": 93
    },
    {
      "midi": 52,
      "hit": false,
      "t": 160499.83949999893,
      "d": 62.499937499989755,
      "v": 80
    },
    {
      "midi": 52,
      "hit": false,
      "t": 160636.2029999989,
      "d": 73.86356249998789,
      "v": 113
    },
    {
      "midi": 52,
      "hit": false,
      "t": 160772.56649999888,
      "d": 68.18174999998882,
      "v": 64
    },
    {
      "midi": 52,
      "hit": false,
      "t": 160908.92999999886,
      "d": 68.18174999998882,
      "v": 93
    },
    {
      "midi": 52,
      "hit": false,
      "t": 161045.29349999884,
      "d": 79.54537499998696,
      "v": 102
    },
    {
      "midi": 52,
      "hit": false,
      "t": 161318.02049999882,
      "d": 73.86356249998789,
      "v": 72
    },
    {
      "midi": 52,
      "hit": false,
      "t": 161454.3839999988,
      "d": 79.54537499998696,
      "v": 107
    },
    {
      "midi": 52,
      "hit": false,
      "t": 161590.74749999878,
      "d": 73.86356249998789,
      "v": 80
    },
    {
      "midi": 52,
      "hit": false,
      "t": 161727.11099999875,
      "d": 79.54537499998696,
      "v": 102
    },
    {
      "midi": 52,
      "hit": false,
      "t": 161863.47449999873,
      "d": 85.22718749998603,
      "v": 102
    },
    {
      "midi": 52,
      "hit": false,
      "t": 161999.8379999987,
      "d": 68.18174999998882,
      "v": 107
    },
    {
      "midi": 52,
      "hit": false,
      "t": 162136.2014999987,
      "d": 51.13631249999162,
      "v": 52
    },
    {
      "midi": 52,
      "hit": false,
      "t": 162272.56499999866,
      "d": 85.22718749998603,
      "v": 102
    },
    {
      "midi": 52,
      "hit": false,
      "t": 162408.92849999864,
      "d": 85.22718749998603,
      "v": 102
    },
    {
      "midi": 52,
      "hit": false,
      "t": 162681.65549999863,
      "d": 79.54537499998696,
      "v": 98
    },
    {
      "midi": 52,
      "hit": false,
      "t": 162818.0189999986,
      "d": 68.18174999998882,
      "v": 93
    },
    {
      "midi": 52,
      "hit": false,
      "t": 162954.38249999858,
      "d": 45.45449999999255,
      "v": 62
    },
    {
      "midi": 52,
      "hit": false,
      "t": 163227.10949999857,
      "d": 79.54537499998696,
      "v": 107
    },
    {
      "midi": 52,
      "hit": false,
      "t": 163363.47299999854,
      "d": 39.77268749999348,
      "v": 57
    },
    {
      "midi": 52,
      "hit": false,
      "t": 163499.83649999855,
      "d": 79.54537499998696,
      "v": 89
    },
    {
      "midi": 52,
      "hit": false,
      "t": 163636.19999999853,
      "d": 73.86356249998789,
      "v": 113
    },
    {
      "midi": 52,
      "hit": false,
      "t": 163772.5634999985,
      "d": 79.54537499998696,
      "v": 80
    },
    {
      "midi": 52,
      "hit": false,
      "t": 163908.92699999848,
      "d": 68.18174999998882,
      "v": 98
    },
    {
      "midi": 52,
      "hit": false,
      "t": 164045.29049999846,
      "d": 73.86356249998789,
      "v": 85
    },
    {
      "midi": 52,
      "hit": false,
      "t": 164181.65399999844,
      "d": 79.54537499998696,
      "v": 113
    },
    {
      "midi": 52,
      "hit": false,
      "t": 164318.01749999842,
      "d": 68.18174999998882,
      "v": 93
    },
    {
      "midi": 52,
      "hit": false,
      "t": 164454.3809999984,
      "d": 79.54537499998696,
      "v": 93
    },
    {
      "midi": 52,
      "hit": false,
      "t": 164590.74449999837,
      "d": 79.54537499998696,
      "v": 107
    },
    {
      "midi": 52,
      "hit": false,
      "t": 164863.47149999836,
      "d": 73.86356249998789,
      "v": 93
    },
    {
      "midi": 52,
      "hit": false,
      "t": 164999.83499999833,
      "d": 73.86356249998789,
      "v": 107
    },
    {
      "midi": 52,
      "hit": false,
      "t": 165136.1984999983,
      "d": 62.499937499989755,
      "v": 93
    },
    {
      "midi": 52,
      "hit": false,
      "t": 165272.5619999983,
      "d": 73.86356249998789,
      "v": 98
    },
    {
      "midi": 52,
      "hit": false,
      "t": 165408.92549999827,
      "d": 79.54537499998696,
      "v": 93
    },
    {
      "midi": 52,
      "hit": false,
      "t": 165681.65249999825,
      "d": 79.54537499998696,
      "v": 93
    },
    {
      "midi": 52,
      "hit": false,
      "t": 165818.01599999823,
      "d": 79.54537499998696,
      "v": 107
    },
    {
      "midi": 52,
      "hit": false,
      "t": 165954.3794999982,
      "d": 45.45449999999255,
      "v": 49
    },
    {
      "midi": 52,
      "hit": false,
      "t": 166090.7429999982,
      "d": 79.54537499998696,
      "v": 102
    },
    {
      "midi": 52,
      "hit": false,
      "t": 166227.1064999982,
      "d": 68.18174999998882,
      "v": 72
    },
    {
      "midi": 52,
      "hit": false,
      "t": 166363.46999999817,
      "d": 85.22718749998603,
      "v": 107
    },
    {
      "midi": 52,
      "hit": false,
      "t": 166499.83349999815,
      "d": 73.86356249998789,
      "v": 85
    },
    {
      "midi": 52,
      "hit": false,
      "t": 166636.19699999812,
      "d": 90.9090000000142,
      "v": 102
    },
    {
      "midi": 52,
      "hit": false,
      "t": 166772.56049999813,
      "d": 85.22718749998603,
      "v": 102
    },
    {
      "midi": 52,
      "hit": false,
      "t": 167045.2874999981,
      "d": 85.22718749998603,
      "v": 98
    },
    {
      "midi": 52,
      "hit": false,
      "t": 167181.6509999981,
      "d": 79.54537499998696,
      "v": 113
    },
    {
      "midi": 52,
      "hit": false,
      "t": 167318.01449999807,
      "d": 73.86356249998789,
      "v": 89
    },
    {
      "midi": 52,
      "hit": false,
      "t": 167454.37799999805,
      "d": 73.86356249998789,
      "v": 98
    },
    {
      "midi": 52,
      "hit": false,
      "t": 167590.74149999802,
      "d": 79.54537499998696,
      "v": 98
    },
    {
      "midi": 52,
      "hit": false,
      "t": 167863.468499998,
      "d": 90.9090000000142,
      "v": 98
    },
    {
      "midi": 52,
      "hit": false,
      "t": 167999.83199999802,
      "d": 90.9090000000142,
      "v": 107
    },
    {
      "midi": 52,
      "hit": false,
      "t": 168136.19549999802,
      "d": 79.54537499998696,
      "v": 102
    },
    {
      "midi": 52,
      "hit": false,
      "t": 168272.558999998,
      "d": 90.9090000000142,
      "v": 98
    },
    {
      "midi": 52,
      "hit": false,
      "t": 168408.922499998,
      "d": 79.54537499998696,
      "v": 93
    },
    {
      "midi": 68,
      "hit": false,
      "t": 168545.28599999798,
      "d": 1340.907750000013,
      "v": 93
    },
    {
      "midi": 64,
      "hit": false,
      "t": 168545.28599999798,
      "d": 1346.589562500012,
      "v": 89
    },
    {
      "midi": 56,
      "hit": false,
      "t": 168545.28599999798,
      "d": 1374.9986250000075,
      "v": 76
    },
    {
      "midi": 59,
      "hit": false,
      "t": 168545.28599999798,
      "d": 1380.6804375000065,
      "v": 93
    },
    {
      "midi": 52,
      "hit": false,
      "t": 168545.28599999798,
      "d": 1397.7258750000037,
      "v": 85
    },
    {
      "midi": 65,
      "hit": false,
      "t": 170727.10199999798,
      "d": 1573.862062500004,
      "v": 93
    },
    {
      "midi": 49,
      "hit": false,
      "t": 170727.10199999798,
      "d": 1602.2711249999993,
      "v": 76
    },
    {
      "midi": 68,
      "hit": false,
      "t": 170727.10199999798,
      "d": 1602.2711249999993,
      "v": 89
    },
    {
      "midi": 61,
      "hit": false,
      "t": 170727.10199999798,
      "d": 1659.08924999999,
      "v": 68
    },
    {
      "midi": 68,
      "hit": false,
      "t": 172908.91799999797,
      "d": 1335.225937500014,
      "v": 85
    },
    {
      "midi": 64,
      "hit": false,
      "t": 172908.91799999797,
      "d": 1374.9986250000075,
      "v": 89
    },
    {
      "midi": 61,
      "hit": false,
      "t": 172908.91799999797,
      "d": 1409.0895000000019,
      "v": 72
    },
    {
      "midi": 37,
      "hit": false,
      "t": 172908.91799999797,
      "d": 1460.2258124999935,
      "v": 80
    },
    {
      "midi": 64,
      "hit": false,
      "t": 175090.73399999796,
      "d": 1954.5434999999998,
      "v": 76
    },
    {
      "midi": 56,
      "hit": false,
      "t": 175090.73399999796,
      "d": 1988.6343749999942,
      "v": 64
    },
    {
      "midi": 40,
      "hit": false,
      "t": 175090.73399999796,
      "d": 1999.9979999999923,
      "v": 89
    },
    {
      "midi": 59,
      "hit": false,
      "t": 175090.73399999796,
      "d": 2022.7252499999886,
      "v": 76
    },
    {
      "midi": 40,
      "hit": false,
      "t": 177272.54999999795,
      "d": 1227.2715000000026,
      "v": 89
    },
    {
      "midi": 64,
      "hit": false,
      "t": 177272.54999999795,
      "d": 1244.3169374999998,
      "v": 89
    },
    {
      "midi": 56,
      "hit": false,
      "t": 177272.54999999795,
      "d": 1249.9987499999988,
      "v": 80
    },
    {
      "midi": 59,
      "hit": false,
      "t": 177272.54999999795,
      "d": 1261.362374999997,
      "v": 98
    },
    {
      "midi": 65,
      "hit": false,
      "t": 179454.36599999794,
      "d": 1761.3618749999732,
      "v": 68
    },
    {
      "midi": 61,
      "hit": false,
      "t": 179454.36599999794,
      "d": 1806.8163749999658,
      "v": 72
    },
    {
      "midi": 68,
      "hit": false,
      "t": 179454.36599999794,
      "d": 1806.8163749999658,
      "v": 80
    },
    {
      "midi": 49,
      "hit": false,
      "t": 179454.36599999794,
      "d": 1840.9072499999602,
      "v": 89
    },
    {
      "midi": 68,
      "hit": false,
      "t": 181636.1819999979,
      "d": 1238.6351250000007,
      "v": 85
    },
    {
      "midi": 64,
      "hit": false,
      "t": 181636.1819999979,
      "d": 1249.9987499999988,
      "v": 93
    },
    {
      "midi": 49,
      "hit": false,
      "t": 181636.1819999979,
      "d": 1267.044187499996,
      "v": 89
    },
    {
      "midi": 61,
      "hit": false,
      "t": 181636.1819999979,
      "d": 1284.0896249999932,
      "v": 72
    },
    {
      "midi": 59,
      "hit": false,
      "t": 183817.9979999979,
      "d": 1068.1807499999995,
      "v": 76
    },
    {
      "midi": 40,
      "hit": false,
      "t": 183817.9979999979,
      "d": 1102.271624999994,
      "v": 89
    },
    {
      "midi": 68,
      "hit": false,
      "t": 183817.9979999979,
      "d": 1102.271624999994,
      "v": 85
    },
    {
      "midi": 64,
      "hit": false,
      "t": 183817.9979999979,
      "d": 1119.3170624999912,
      "v": 98
    },
    {
      "midi": 52,
      "hit": false,
      "t": 185999.8139999979,
      "d": 62.499937499989755,
      "v": 113
    },
    {
      "midi": 52,
      "hit": false,
      "t": 186136.17749999787,
      "d": 62.499937499989755,
      "v": 89
    },
    {
      "midi": 52,
      "hit": false,
      "t": 186272.54099999784,
      "d": 45.45449999999255,
      "v": 49
    },
    {
      "midi": 52,
      "hit": false,
      "t": 186408.90449999785,
      "d": 73.86356249998789,
      "v": 93
    },
    {
      "midi": 52,
      "hit": false,
      "t": 186681.63149999783,
      "d": 62.499937499989755,
      "v": 80
    },
    {
      "midi": 52,
      "hit": false,
      "t": 186817.9949999978,
      "d": 73.86356249998789,
      "v": 113
    },
    {
      "midi": 52,
      "hit": false,
      "t": 186954.3584999978,
      "d": 68.18174999998882,
      "v": 64
    },
    {
      "midi": 52,
      "hit": false,
      "t": 187090.72199999777,
      "d": 68.18174999998882,
      "v": 93
    },
    {
      "midi": 52,
      "hit": false,
      "t": 187227.08549999775,
      "d": 79.54537499998696,
      "v": 102
    },
    {
      "midi": 52,
      "hit": false,
      "t": 187499.81249999773,
      "d": 73.86356249998789,
      "v": 72
    },
    {
      "midi": 52,
      "hit": false,
      "t": 187636.1759999977,
      "d": 79.54537499998696,
      "v": 107
    },
    {
      "midi": 52,
      "hit": false,
      "t": 187772.53949999769,
      "d": 73.86356249998789,
      "v": 80
    },
    {
      "midi": 52,
      "hit": false,
      "t": 187908.90299999766,
      "d": 79.54537499998696,
      "v": 102
    },
    {
      "midi": 52,
      "hit": false,
      "t": 188045.26649999764,
      "d": 85.22718749998603,
      "v": 102
    },
    {
      "midi": 52,
      "hit": false,
      "t": 188181.62999999762,
      "d": 68.18174999998882,
      "v": 107
    },
    {
      "midi": 52,
      "hit": false,
      "t": 188317.9934999976,
      "d": 51.13631249999162,
      "v": 52
    },
    {
      "midi": 52,
      "hit": false,
      "t": 188454.35699999757,
      "d": 85.22718749998603,
      "v": 102
    },
    {
      "midi": 52,
      "hit": false,
      "t": 188590.72049999755,
      "d": 85.22718749998603,
      "v": 102
    },
    {
      "midi": 52,
      "hit": false,
      "t": 188863.44749999754,
      "d": 79.54537499998696,
      "v": 98
    },
    {
      "midi": 52,
      "hit": false,
      "t": 188999.8109999975,
      "d": 68.18174999998882,
      "v": 93
    },
    {
      "midi": 52,
      "hit": false,
      "t": 189136.1744999975,
      "d": 45.45449999999255,
      "v": 62
    },
    {
      "midi": 52,
      "hit": false,
      "t": 189408.90149999748,
      "d": 79.54537499998696,
      "v": 107
    },
    {
      "midi": 52,
      "hit": false,
      "t": 189545.26499999745,
      "d": 39.77268749999348,
      "v": 57
    },
    {
      "midi": 52,
      "hit": false,
      "t": 189681.62849999746,
      "d": 79.54537499998696,
      "v": 89
    },
    {
      "midi": 52,
      "hit": false,
      "t": 189817.99199999744,
      "d": 73.86356249998789,
      "v": 113
    },
    {
      "midi": 52,
      "hit": false,
      "t": 189954.35549999741,
      "d": 79.54537499998696,
      "v": 80
    },
    {
      "midi": 52,
      "hit": false,
      "t": 190090.7189999974,
      "d": 68.18174999998882,
      "v": 98
    },
    {
      "midi": 52,
      "hit": false,
      "t": 190227.08249999737,
      "d": 73.86356249998789,
      "v": 85
    },
    {
      "midi": 52,
      "hit": false,
      "t": 190363.44599999735,
      "d": 79.54537499998696,
      "v": 113
    },
    {
      "midi": 52,
      "hit": false,
      "t": 190499.80949999733,
      "d": 68.18174999998882,
      "v": 93
    },
    {
      "midi": 52,
      "hit": false,
      "t": 190636.1729999973,
      "d": 79.54537499998696,
      "v": 93
    },
    {
      "midi": 52,
      "hit": false,
      "t": 190772.53649999728,
      "d": 79.54537499998696,
      "v": 107
    },
    {
      "midi": 52,
      "hit": false,
      "t": 191045.26349999727,
      "d": 73.86356249998789,
      "v": 93
    },
    {
      "midi": 52,
      "hit": false,
      "t": 191181.62699999724,
      "d": 73.86356249998789,
      "v": 107
    },
    {
      "midi": 52,
      "hit": false,
      "t": 191317.99049999722,
      "d": 62.499937499989755,
      "v": 93
    },
    {
      "midi": 52,
      "hit": false,
      "t": 191454.3539999972,
      "d": 73.86356249998789,
      "v": 98
    },
    {
      "midi": 52,
      "hit": false,
      "t": 191590.71749999718,
      "d": 79.54537499998696,
      "v": 93
    },
    {
      "midi": 52,
      "hit": false,
      "t": 191863.44449999716,
      "d": 79.54537499998696,
      "v": 93
    },
    {
      "midi": 52,
      "hit": false,
      "t": 191999.80799999714,
      "d": 79.54537499998696,
      "v": 107
    },
    {
      "midi": 52,
      "hit": false,
      "t": 192136.17149999712,
      "d": 45.45449999999255,
      "v": 49
    },
    {
      "midi": 52,
      "hit": false,
      "t": 192272.53499999712,
      "d": 79.54537499998696,
      "v": 102
    },
    {
      "midi": 52,
      "hit": false,
      "t": 192408.8984999971,
      "d": 68.18174999998882,
      "v": 72
    },
    {
      "midi": 52,
      "hit": false,
      "t": 192545.26199999708,
      "d": 85.22718749998603,
      "v": 107
    },
    {
      "midi": 52,
      "hit": false,
      "t": 192681.62549999706,
      "d": 73.86356249998789,
      "v": 85
    },
    {
      "midi": 52,
      "hit": false,
      "t": 192817.98899999703,
      "d": 90.9090000000142,
      "v": 102
    },
    {
      "midi": 52,
      "hit": false,
      "t": 192954.35249999704,
      "d": 85.22718749998603,
      "v": 102
    },
    {
      "midi": 52,
      "hit": false,
      "t": 193227.07949999702,
      "d": 85.22718749998603,
      "v": 98
    },
    {
      "midi": 52,
      "hit": false,
      "t": 193363.442999997,
      "d": 79.54537499998696,
      "v": 113
    },
    {
      "midi": 52,
      "hit": false,
      "t": 193499.80649999698,
      "d": 73.86356249998789,
      "v": 89
    },
    {
      "midi": 52,
      "hit": false,
      "t": 193636.16999999696,
      "d": 73.86356249998789,
      "v": 98
    },
    {
      "midi": 52,
      "hit": false,
      "t": 193772.53349999693,
      "d": 79.54537499998696,
      "v": 98
    },
    {
      "midi": 52,
      "hit": false,
      "t": 194045.26049999692,
      "d": 90.9090000000142,
      "v": 98
    },
    {
      "midi": 52,
      "hit": false,
      "t": 194181.62399999693,
      "d": 90.9090000000142,
      "v": 107
    },
    {
      "midi": 52,
      "hit": false,
      "t": 194317.98749999693,
      "d": 79.54537499998696,
      "v": 102
    },
    {
      "midi": 52,
      "hit": false,
      "t": 194454.3509999969,
      "d": 90.9090000000142,
      "v": 98
    },
    {
      "midi": 52,
      "hit": false,
      "t": 194590.71449999692,
      "d": 79.54537499998696,
      "v": 93
    },
    {
      "midi": 52,
      "hit": false,
      "t": 194727.0779999969,
      "d": 62.499937499989755,
      "v": 113
    },
    {
      "midi": 52,
      "hit": false,
      "t": 194863.44149999687,
      "d": 62.499937499989755,
      "v": 89
    },
    {
      "midi": 52,
      "hit": false,
      "t": 194999.80499999685,
      "d": 45.45449999999255,
      "v": 49
    },
    {
      "midi": 52,
      "hit": false,
      "t": 195136.16849999686,
      "d": 73.86356249998789,
      "v": 93
    },
    {
      "midi": 52,
      "hit": false,
      "t": 195408.89549999684,
      "d": 62.499937499989755,
      "v": 80
    },
    {
      "midi": 52,
      "hit": false,
      "t": 195545.25899999682,
      "d": 73.86356249998789,
      "v": 113
    },
    {
      "midi": 52,
      "hit": false,
      "t": 195681.6224999968,
      "d": 68.18174999998882,
      "v": 64
    },
    {
      "midi": 52,
      "hit": false,
      "t": 195817.98599999677,
      "d": 68.18174999998882,
      "v": 93
    },
    {
      "midi": 52,
      "hit": false,
      "t": 195954.34949999675,
      "d": 79.54537499998696,
      "v": 102
    },
    {
      "midi": 52,
      "hit": false,
      "t": 196227.07649999674,
      "d": 73.86356249998789,
      "v": 72
    },
    {
      "midi": 52,
      "hit": false,
      "t": 196363.4399999967,
      "d": 79.54537499998696,
      "v": 107
    },
    {
      "midi": 52,
      "hit": false,
      "t": 196499.8034999967,
      "d": 73.86356249998789,
      "v": 80
    },
    {
      "midi": 52,
      "hit": false,
      "t": 196636.16699999667,
      "d": 79.54537499998696,
      "v": 102
    },
    {
      "midi": 52,
      "hit": false,
      "t": 196772.53049999665,
      "d": 85.22718749998603,
      "v": 102
    },
    {
      "midi": 52,
      "hit": false,
      "t": 196908.89399999662,
      "d": 68.18174999998882,
      "v": 107
    },
    {
      "midi": 52,
      "hit": false,
      "t": 197045.2574999966,
      "d": 51.13631249999162,
      "v": 52
    },
    {
      "midi": 52,
      "hit": false,
      "t": 197181.62099999658,
      "d": 85.22718749998603,
      "v": 102
    },
    {
      "midi": 52,
      "hit": false,
      "t": 197317.98449999656,
      "d": 85.22718749998603,
      "v": 102
    },
    {
      "midi": 52,
      "hit": false,
      "t": 197590.71149999654,
      "d": 79.54537499998696,
      "v": 98
    },
    {
      "midi": 52,
      "hit": false,
      "t": 197727.07499999652,
      "d": 68.18174999998882,
      "v": 93
    },
    {
      "midi": 52,
      "hit": false,
      "t": 197863.4384999965,
      "d": 45.45449999999255,
      "v": 62
    },
    {
      "midi": 52,
      "hit": false,
      "t": 198136.16549999648,
      "d": 79.54537499998696,
      "v": 107
    },
    {
      "midi": 52,
      "hit": false,
      "t": 198272.52899999646,
      "d": 39.77268749999348,
      "v": 57
    },
    {
      "midi": 52,
      "hit": false,
      "t": 198408.89249999647,
      "d": 79.54537499998696,
      "v": 89
    },
    {
      "midi": 52,
      "hit": false,
      "t": 198545.25599999644,
      "d": 73.86356249998789,
      "v": 113
    },
    {
      "midi": 52,
      "hit": false,
      "t": 198681.61949999642,
      "d": 79.54537499998696,
      "v": 80
    },
    {
      "midi": 52,
      "hit": false,
      "t": 198817.9829999964,
      "d": 68.18174999998882,
      "v": 98
    },
    {
      "midi": 52,
      "hit": false,
      "t": 198954.34649999638,
      "d": 73.86356249998789,
      "v": 85
    },
    {
      "midi": 52,
      "hit": false,
      "t": 199090.70999999635,
      "d": 79.54537499998696,
      "v": 113
    },
    {
      "midi": 52,
      "hit": false,
      "t": 199227.07349999633,
      "d": 68.18174999998882,
      "v": 93
    },
    {
      "midi": 52,
      "hit": false,
      "t": 199363.4369999963,
      "d": 79.54537499998696,
      "v": 93
    },
    {
      "midi": 52,
      "hit": false,
      "t": 199499.8004999963,
      "d": 79.54537499998696,
      "v": 107
    },
    {
      "midi": 52,
      "hit": false,
      "t": 199772.52749999627,
      "d": 73.86356249998789,
      "v": 93
    },
    {
      "midi": 52,
      "hit": false,
      "t": 199908.89099999625,
      "d": 73.86356249998789,
      "v": 107
    },
    {
      "midi": 52,
      "hit": false,
      "t": 200045.25449999623,
      "d": 62.499937499989755,
      "v": 93
    },
    {
      "midi": 52,
      "hit": false,
      "t": 200181.6179999962,
      "d": 73.86356249998789,
      "v": 98
    },
    {
      "midi": 52,
      "hit": false,
      "t": 200317.98149999618,
      "d": 79.54537499998696,
      "v": 93
    },
    {
      "midi": 52,
      "hit": false,
      "t": 200590.70849999617,
      "d": 79.54537499998696,
      "v": 93
    },
    {
      "midi": 52,
      "hit": false,
      "t": 200727.07199999614,
      "d": 79.54537499998696,
      "v": 107
    },
    {
      "midi": 52,
      "hit": false,
      "t": 200863.43549999612,
      "d": 45.45449999999255,
      "v": 49
    },
    {
      "midi": 52,
      "hit": false,
      "t": 200999.79899999613,
      "d": 79.54537499998696,
      "v": 102
    },
    {
      "midi": 52,
      "hit": false,
      "t": 201136.1624999961,
      "d": 68.18174999998882,
      "v": 72
    },
    {
      "midi": 52,
      "hit": false,
      "t": 201272.52599999608,
      "d": 85.22718749998603,
      "v": 107
    },
    {
      "midi": 52,
      "hit": false,
      "t": 201408.88949999606,
      "d": 73.86356249998789,
      "v": 85
    },
    {
      "midi": 52,
      "hit": false,
      "t": 201545.25299999604,
      "d": 90.9090000000142,
      "v": 102
    },
    {
      "midi": 52,
      "hit": false,
      "t": 201681.61649999605,
      "d": 85.22718749998603,
      "v": 102
    },
    {
      "midi": 52,
      "hit": false,
      "t": 201954.34349999603,
      "d": 85.22718749998603,
      "v": 98
    },
    {
      "midi": 52,
      "hit": false,
      "t": 202090.706999996,
      "d": 79.54537499998696,
      "v": 113
    },
    {
      "midi": 52,
      "hit": false,
      "t": 202227.07049999599,
      "d": 73.86356249998789,
      "v": 89
    },
    {
      "midi": 52,
      "hit": false,
      "t": 202363.43399999596,
      "d": 73.86356249998789,
      "v": 98
    },
    {
      "midi": 52,
      "hit": false,
      "t": 202499.79749999594,
      "d": 79.54537499998696,
      "v": 98
    },
    {
      "midi": 52,
      "hit": false,
      "t": 202772.52449999592,
      "d": 90.9090000000142,
      "v": 98
    },
    {
      "midi": 52,
      "hit": false,
      "t": 202908.88799999593,
      "d": 90.9090000000142,
      "v": 107
    },
    {
      "midi": 52,
      "hit": false,
      "t": 203045.25149999594,
      "d": 79.54537499998696,
      "v": 102
    },
    {
      "midi": 52,
      "hit": false,
      "t": 203181.61499999592,
      "d": 90.9090000000142,
      "v": 98
    },
    {
      "midi": 52,
      "hit": false,
      "t": 203317.97849999592,
      "d": 79.54537499998696,
      "v": 93
    },
    {
      "midi": 52,
      "hit": false,
      "t": 203454.3419999959,
      "d": 62.499937499989755,
      "v": 113
    },
    {
      "midi": 52,
      "hit": false,
      "t": 203590.70549999588,
      "d": 62.499937499989755,
      "v": 89
    },
    {
      "midi": 52,
      "hit": false,
      "t": 203727.06899999586,
      "d": 45.45449999999255,
      "v": 49
    },
    {
      "midi": 52,
      "hit": false,
      "t": 203863.43249999586,
      "d": 73.86356249998789,
      "v": 93
    },
    {
      "midi": 52,
      "hit": false,
      "t": 204136.15949999585,
      "d": 62.499937499989755,
      "v": 80
    },
    {
      "midi": 52,
      "hit": false,
      "t": 204272.52299999582,
      "d": 73.86356249998789,
      "v": 113
    },
    {
      "midi": 52,
      "hit": false,
      "t": 204408.8864999958,
      "d": 68.18174999998882,
      "v": 64
    },
    {
      "midi": 52,
      "hit": false,
      "t": 204545.24999999578,
      "d": 68.18174999998882,
      "v": 93
    },
    {
      "midi": 52,
      "hit": false,
      "t": 204681.61349999576,
      "d": 79.54537499998696,
      "v": 102
    },
    {
      "midi": 52,
      "hit": false,
      "t": 204954.34049999574,
      "d": 73.86356249998789,
      "v": 72
    },
    {
      "midi": 52,
      "hit": false,
      "t": 205090.70399999572,
      "d": 79.54537499998696,
      "v": 107
    },
    {
      "midi": 52,
      "hit": false,
      "t": 205227.0674999957,
      "d": 73.86356249998789,
      "v": 80
    },
    {
      "midi": 52,
      "hit": false,
      "t": 205363.43099999567,
      "d": 79.54537499998696,
      "v": 102
    },
    {
      "midi": 52,
      "hit": false,
      "t": 205499.79449999565,
      "d": 85.22718749998603,
      "v": 102
    },
    {
      "midi": 52,
      "hit": false,
      "t": 205636.15799999563,
      "d": 68.18174999998882,
      "v": 107
    },
    {
      "midi": 52,
      "hit": false,
      "t": 205772.5214999956,
      "d": 51.13631249999162,
      "v": 52
    },
    {
      "midi": 52,
      "hit": false,
      "t": 205908.8849999956,
      "d": 85.22718749998603,
      "v": 102
    },
    {
      "midi": 52,
      "hit": false,
      "t": 206045.24849999556,
      "d": 85.22718749998603,
      "v": 102
    },
    {
      "midi": 52,
      "hit": false,
      "t": 206317.97549999555,
      "d": 79.54537499998696,
      "v": 98
    },
    {
      "midi": 52,
      "hit": false,
      "t": 206454.33899999553,
      "d": 68.18174999998882,
      "v": 93
    },
    {
      "midi": 52,
      "hit": false,
      "t": 206590.7024999955,
      "d": 45.45449999999255,
      "v": 62
    },
    {
      "midi": 52,
      "hit": false,
      "t": 206863.4294999955,
      "d": 79.54537499998696,
      "v": 107
    },
    {
      "midi": 52,
      "hit": false,
      "t": 206999.79299999546,
      "d": 39.77268749999348,
      "v": 57
    },
    {
      "midi": 52,
      "hit": false,
      "t": 207136.15649999547,
      "d": 79.54537499998696,
      "v": 89
    },
    {
      "midi": 52,
      "hit": false,
      "t": 207272.51999999545,
      "d": 73.86356249998789,
      "v": 113
    },
    {
      "midi": 52,
      "hit": false,
      "t": 207408.88349999543,
      "d": 79.54537499998696,
      "v": 80
    },
    {
      "midi": 52,
      "hit": false,
      "t": 207545.2469999954,
      "d": 68.18174999998882,
      "v": 98
    },
    {
      "midi": 52,
      "hit": false,
      "t": 207681.61049999538,
      "d": 73.86356249998789,
      "v": 85
    },
    {
      "midi": 52,
      "hit": false,
      "t": 207817.97399999536,
      "d": 79.54537499998696,
      "v": 113
    },
    {
      "midi": 52,
      "hit": false,
      "t": 207954.33749999534,
      "d": 68.18174999998882,
      "v": 93
    },
    {
      "midi": 52,
      "hit": false,
      "t": 208090.70099999532,
      "d": 79.54537499998696,
      "v": 93
    },
    {
      "midi": 52,
      "hit": false,
      "t": 208227.0644999953,
      "d": 79.54537499998696,
      "v": 107
    },
    {
      "midi": 52,
      "hit": false,
      "t": 208499.79149999528,
      "d": 73.86356249998789,
      "v": 93
    },
    {
      "midi": 52,
      "hit": false,
      "t": 208636.15499999525,
      "d": 73.86356249998789,
      "v": 107
    },
    {
      "midi": 52,
      "hit": false,
      "t": 208772.51849999523,
      "d": 62.499937499989755,
      "v": 93
    },
    {
      "midi": 52,
      "hit": false,
      "t": 208908.8819999952,
      "d": 73.86356249998789,
      "v": 98
    },
    {
      "midi": 52,
      "hit": false,
      "t": 209045.2454999952,
      "d": 79.54537499998696,
      "v": 93
    },
    {
      "midi": 52,
      "hit": false,
      "t": 209317.97249999517,
      "d": 79.54537499998696,
      "v": 93
    },
    {
      "midi": 52,
      "hit": false,
      "t": 209454.33599999515,
      "d": 79.54537499998696,
      "v": 107
    },
    {
      "midi": 52,
      "hit": false,
      "t": 209590.69949999513,
      "d": 45.45449999999255,
      "v": 49
    },
    {
      "midi": 52,
      "hit": false,
      "t": 209727.06299999513,
      "d": 79.54537499998696,
      "v": 102
    },
    {
      "midi": 52,
      "hit": false,
      "t": 209863.4264999951,
      "d": 68.18174999998882,
      "v": 72
    },
    {
      "midi": 52,
      "hit": false,
      "t": 209999.7899999951,
      "d": 85.22718749998603,
      "v": 107
    },
    {
      "midi": 52,
      "hit": false,
      "t": 210136.15349999507,
      "d": 73.86356249998789,
      "v": 85
    },
    {
      "midi": 52,
      "hit": false,
      "t": 210272.51699999504,
      "d": 90.9090000000142,
      "v": 102
    },
    {
      "midi": 52,
      "hit": false,
      "t": 210408.88049999505,
      "d": 85.22718749998603,
      "v": 102
    },
    {
      "midi": 52,
      "hit": false,
      "t": 210681.60749999504,
      "d": 85.22718749998603,
      "v": 98
    },
    {
      "midi": 52,
      "hit": false,
      "t": 210817.970999995,
      "d": 79.54537499998696,
      "v": 113
    },
    {
      "midi": 52,
      "hit": false,
      "t": 210954.334499995,
      "d": 73.86356249998789,
      "v": 89
    },
    {
      "midi": 52,
      "hit": false,
      "t": 211090.69799999497,
      "d": 73.86356249998789,
      "v": 98
    },
    {
      "midi": 52,
      "hit": false,
      "t": 211227.06149999495,
      "d": 79.54537499998696,
      "v": 98
    },
    {
      "midi": 52,
      "hit": false,
      "t": 211499.78849999493,
      "d": 90.9090000000142,
      "v": 98
    },
    {
      "midi": 52,
      "hit": false,
      "t": 211636.15199999494,
      "d": 90.9090000000142,
      "v": 107
    },
    {
      "midi": 52,
      "hit": false,
      "t": 211772.51549999494,
      "d": 79.54537499998696,
      "v": 102
    },
    {
      "midi": 52,
      "hit": false,
      "t": 211908.87899999492,
      "d": 90.9089999999851,
      "v": 98
    },
    {
      "midi": 52,
      "hit": false,
      "t": 212045.2424999949,
      "d": 79.54537499998696,
      "v": 93
    },
    {
      "midi": 52,
      "hit": false,
      "t": 212181.60599999488,
      "d": 3499.9965000000084,
      "v": 80
    },
    {
      "midi": 56,
      "hit": false,
      "t": 212181.60599999488,
      "d": 3545.451000000001,
      "v": 89
    },
    {
      "midi": 59,
      "hit": false,
      "t": 212181.60599999488,
      "d": 3897.7233750000014,
      "v": 107
    },
    {
      "midi": 40,
      "hit": false,
      "t": 212181.60599999488,
      "d": 4551.131812500011,
      "v": 102
    }
  ]
}