{
  "jsonPath": "Pop/Classic Italian Pop/Michele Zarrillo/lacrobata.json",
  "path": "Pop\\Classic Italian Pop\\Michele Zarrillo\\LAcrobata.mid",
  "name": "LAcrobata",
  "difficulty": "Intermediate",
  "bpm": 111.000111000111,
  "notes": [
    {
      "midi": 58,
      "hit": false,
      "t": 2170.6059375,
      "d": 777.0262499999999,
      "v": 76
    },
    {
      "midi": 55,
      "hit": false,
      "t": 2173.42125,
      "d": 777.0262499999999,
      "v": 88
    },
    {
      "midi": 51,
      "hit": false,
      "t": 2176.2365624999998,
      "d": 777.0262499999999,
      "v": 86
    },
    {
      "midi": 58,
      "hit": false,
      "t": 2981.4159374999995,
      "d": 2393.0156250000005,
      "v": 84
    },
    {
      "midi": 55,
      "hit": false,
      "t": 2984.2312499999994,
      "d": 2393.0156250000005,
      "v": 85
    },
    {
      "midi": 51,
      "hit": false,
      "t": 2984.2312499999994,
      "d": 3474.0956249999995,
      "v": 89
    },
    {
      "midi": 58,
      "hit": false,
      "t": 5408.2153124999995,
      "d": 962.836874999999,
      "v": 85
    },
    {
      "midi": 55,
      "hit": false,
      "t": 5411.030624999999,
      "d": 951.5756249999995,
      "v": 80
    },
    {
      "midi": 51,
      "hit": false,
      "t": 6483.664687499999,
      "d": 777.0262499999999,
      "v": 81
    },
    {
      "midi": 55,
      "hit": false,
      "t": 6483.664687499999,
      "d": 777.0262499999999,
      "v": 85
    },
    {
      "midi": 60,
      "hit": false,
      "t": 6486.479999999999,
      "d": 777.0262499999999,
      "v": 79
    },
    {
      "midi": 51,
      "hit": false,
      "t": 7297.289999999998,
      "d": 2404.2768749999987,
      "v": 79
    },
    {
      "midi": 55,
      "hit": false,
      "t": 7300.105312499998,
      "d": 2404.2768749999996,
      "v": 82
    },
    {
      "midi": 60,
      "hit": false,
      "t": 7305.735937499998,
      "d": 3482.5415624999987,
      "v": 80
    },
    {
      "midi": 51,
      "hit": false,
      "t": 9715.643437499997,
      "d": 534.9093749999993,
      "v": 71
    },
    {
      "midi": 55,
      "hit": false,
      "t": 9721.274062499997,
      "d": 1072.6340624999993,
      "v": 75
    },
    {
      "midi": 51,
      "hit": false,
      "t": 10258.998749999997,
      "d": 534.9093749999993,
      "v": 64
    },
    {
      "midi": 58,
      "hit": false,
      "t": 10819.245937499996,
      "d": 777.0262500000008,
      "v": 64
    },
    {
      "midi": 55,
      "hit": false,
      "t": 10822.061249999997,
      "d": 777.0262500000008,
      "v": 70
    },
    {
      "midi": 51,
      "hit": false,
      "t": 10824.876562499998,
      "d": 777.0262500000008,
      "v": 72
    },
    {
      "midi": 58,
      "hit": false,
      "t": 11630.0559375,
      "d": 3474.095625,
      "v": 58
    },
    {
      "midi": 51,
      "hit": false,
      "t": 11632.87125,
      "d": 3474.095625,
      "v": 65
    },
    {
      "midi": 55,
      "hit": false,
      "t": 11632.87125,
      "d": 3474.095625,
      "v": 62
    },
    {
      "midi": 60,
      "hit": false,
      "t": 15143.5659375,
      "d": 777.0262500000008,
      "v": 59
    },
    {
      "midi": 55,
      "hit": false,
      "t": 15146.38125,
      "d": 777.0262500000008,
      "v": 68
    },
    {
      "midi": 51,
      "hit": false,
      "t": 15149.196562500001,
      "d": 777.0262500000008,
      "v": 75
    },
    {
      "midi": 48,
      "hit": false,
      "t": 15149.196562500001,
      "d": 2139.6375000000044,
      "v": 80
    },
    {
      "midi": 60,
      "hit": false,
      "t": 15954.375937500003,
      "d": 1337.2734375000018,
      "v": 62
    },
    {
      "midi": 53,
      "hit": false,
      "t": 15957.191250000003,
      "d": 534.9093749999993,
      "v": 74
    },
    {
      "midi": 51,
      "hit": false,
      "t": 16497.731250000004,
      "d": 774.2109375,
      "v": 63
    },
    {
      "midi": 62,
      "hit": false,
      "t": 17297.280000000006,
      "d": 802.3640624999971,
      "v": 120
    },
    {
      "midi": 48,
      "hit": false,
      "t": 17311.356562500005,
      "d": 2139.6375000000007,
      "v": 68
    },
    {
      "midi": 60,
      "hit": false,
      "t": 18108.090000000004,
      "d": 802.3640625000007,
      "v": 108
    },
    {
      "midi": 55,
      "hit": false,
      "t": 18918.900000000005,
      "d": 532.0940625000003,
      "v": 105
    },
    {
      "midi": 58,
      "hit": false,
      "t": 19467.885937500007,
      "d": 777.026249999999,
      "v": 64
    },
    {
      "midi": 55,
      "hit": false,
      "t": 19470.701250000006,
      "d": 777.026249999999,
      "v": 73
    },
    {
      "midi": 51,
      "hit": false,
      "t": 19473.516562500005,
      "d": 777.026249999999,
      "v": 77
    },
    {
      "midi": 58,
      "hit": false,
      "t": 20278.695937500004,
      "d": 3474.095624999998,
      "v": 65
    },
    {
      "midi": 51,
      "hit": false,
      "t": 20281.511250000003,
      "d": 3474.095624999998,
      "v": 69
    },
    {
      "midi": 55,
      "hit": false,
      "t": 20281.511250000003,
      "d": 3474.095624999998,
      "v": 65
    },
    {
      "midi": 63,
      "hit": false,
      "t": 23792.205937500003,
      "d": 777.026249999999,
      "v": 66
    },
    {
      "midi": 55,
      "hit": false,
      "t": 23795.02125,
      "d": 777.026249999999,
      "v": 78
    },
    {
      "midi": 51,
      "hit": false,
      "t": 23797.8365625,
      "d": 777.026249999999,
      "v": 82
    },
    {
      "midi": 48,
      "hit": false,
      "t": 23797.8365625,
      "d": 2139.6375000000007,
      "v": 82
    },
    {
      "midi": 63,
      "hit": false,
      "t": 24603.0159375,
      "d": 1337.2734375,
      "v": 63
    },
    {
      "midi": 55,
      "hit": false,
      "t": 24605.83125,
      "d": 534.9093749999993,
      "v": 80
    },
    {
      "midi": 51,
      "hit": false,
      "t": 25146.37125,
      "d": 2936.3709375,
      "v": 69
    },
    {
      "midi": 65,
      "hit": false,
      "t": 25945.920000000002,
      "d": 802.3640624999971,
      "v": 121
    },
    {
      "midi": 48,
      "hit": false,
      "t": 25959.9965625,
      "d": 2139.6375000000007,
      "v": 66
    },
    {
      "midi": 60,
      "hit": false,
      "t": 26756.73,
      "d": 802.3640625000007,
      "v": 92
    },
    {
      "midi": 67,
      "hit": false,
      "t": 26762.360625,
      "d": 1331.6428124999984,
      "v": 95
    },
    {
      "midi": 55,
      "hit": false,
      "t": 27567.54,
      "d": 532.0940625000003,
      "v": 63
    },
    {
      "midi": 58,
      "hit": false,
      "t": 28116.525937500002,
      "d": 777.026249999999,
      "v": 67
    },
    {
      "midi": 55,
      "hit": false,
      "t": 28119.34125,
      "d": 777.026249999999,
      "v": 75
    },
    {
      "midi": 50,
      "hit": false,
      "t": 28122.1565625,
      "d": 777.026249999999,
      "v": 78
    },
    {
      "midi": 58,
      "hit": false,
      "t": 28927.3359375,
      "d": 3474.095624999998,
      "v": 68
    },
    {
      "midi": 50,
      "hit": false,
      "t": 28930.15125,
      "d": 3474.095624999998,
      "v": 75
    },
    {
      "midi": 55,
      "hit": false,
      "t": 28930.15125,
      "d": 3474.095624999998,
      "v": 66
    },
    {
      "midi": 63,
      "hit": false,
      "t": 32440.8459375,
      "d": 777.026249999999,
      "v": 64
    },
    {
      "midi": 60,
      "hit": false,
      "t": 32443.661249999997,
      "d": 777.0262500000026,
      "v": 78
    },
    {
      "midi": 56,
      "hit": false,
      "t": 32446.476562499996,
      "d": 777.0262500000063,
      "v": 82
    },
    {
      "midi": 51,
      "hit": false,
      "t": 32446.476562499996,
      "d": 2139.637500000008,
      "v": 81
    },
    {
      "midi": 63,
      "hit": false,
      "t": 33251.6559375,
      "d": 1337.2734375000073,
      "v": 67
    },
    {
      "midi": 60,
      "hit": false,
      "t": 33254.47125,
      "d": 534.9093750000029,
      "v": 83
    },
    {
      "midi": 56,
      "hit": false,
      "t": 33795.01125,
      "d": 1576.574999999997,
      "v": 66
    },
    {
      "midi": 65,
      "hit": false,
      "t": 34594.560000000005,
      "d": 2139.637499999997,
      "v": 119
    },
    {
      "midi": 44,
      "hit": false,
      "t": 34608.6365625,
      "d": 2139.637499999997,
      "v": 66
    },
    {
      "midi": 56,
      "hit": false,
      "t": 35405.37,
      "d": 1326.0121874999968,
      "v": 67
    },
    {
      "midi": 60,
      "hit": false,
      "t": 35411.000625,
      "d": 1331.642812500002,
      "v": 70
    },
    {
      "midi": 51,
      "hit": false,
      "t": 36216.18,
      "d": 532.0940625000003,
      "v": 53
    },
    {
      "midi": 58,
      "hit": false,
      "t": 36765.1659375,
      "d": 777.0262500000026,
      "v": 68
    },
    {
      "midi": 55,
      "hit": false,
      "t": 36767.981250000004,
      "d": 777.0262500000026,
      "v": 75
    },
    {
      "midi": 50,
      "hit": false,
      "t": 36770.79656250001,
      "d": 777.0262500000026,
      "v": 81
    },
    {
      "midi": 58,
      "hit": false,
      "t": 37575.97593750001,
      "d": 3474.0956250000017,
      "v": 64
    },
    {
      "midi": 50,
      "hit": false,
      "t": 37578.79125000001,
      "d": 3474.0956250000017,
      "v": 72
    },
    {
      "midi": 55,
      "hit": false,
      "t": 37578.79125000001,
      "d": 3474.0956250000017,
      "v": 64
    },
    {
      "midi": 65,
      "hit": false,
      "t": 41089.48593750001,
      "d": 777.0262500000026,
      "v": 93
    },
    {
      "midi": 60,
      "hit": false,
      "t": 41092.30125000001,
      "d": 777.0262500000026,
      "v": 78
    },
    {
      "midi": 56,
      "hit": false,
      "t": 41095.116562500014,
      "d": 796.7334374999991,
      "v": 77
    },
    {
      "midi": 51,
      "hit": false,
      "t": 41095.116562500014,
      "d": 2139.6375000000044,
      "v": 84
    },
    {
      "midi": 56,
      "hit": false,
      "t": 41900.295937500014,
      "d": 1337.2734375000073,
      "v": 62
    },
    {
      "midi": 60,
      "hit": false,
      "t": 41903.111250000016,
      "d": 534.9093750000029,
      "v": 95
    },
    {
      "midi": 65,
      "hit": false,
      "t": 42443.65125000002,
      "d": 2939.186249999999,
      "v": 100
    },
    {
      "midi": 63,
      "hit": false,
      "t": 43243.20000000002,
      "d": 2128.376249999994,
      "v": 124
    },
    {
      "midi": 46,
      "hit": false,
      "t": 43257.27656250002,
      "d": 2139.637499999997,
      "v": 70
    },
    {
      "midi": 53,
      "hit": false,
      "t": 44054.01000000002,
      "d": 785.4721874999959,
      "v": 70
    },
    {
      "midi": 58,
      "hit": false,
      "t": 44059.640625000015,
      "d": 1331.642812500002,
      "v": 69
    },
    {
      "midi": 53,
      "hit": false,
      "t": 44864.820000000014,
      "d": 532.0940625000003,
      "v": 56
    },
    {
      "midi": 46,
      "hit": false,
      "t": 45405.360000000015,
      "d": 2139.6375000000116,
      "v": 71
    },
    {
      "midi": 53,
      "hit": false,
      "t": 45416.62125000002,
      "d": 2128.3762500000084,
      "v": 75
    },
    {
      "midi": 58,
      "hit": false,
      "t": 45427.88250000002,
      "d": 2128.376250000001,
      "v": 80
    },
    {
      "midi": 62,
      "hit": false,
      "t": 45439.143750000025,
      "d": 2111.484375,
      "v": 94
    },
    {
      "midi": 58,
      "hit": false,
      "t": 47575.96593750002,
      "d": 777.0262500000026,
      "v": 65
    },
    {
      "midi": 55,
      "hit": false,
      "t": 47578.78125000002,
      "d": 777.0262500000026,
      "v": 74
    },
    {
      "midi": 51,
      "hit": false,
      "t": 47581.596562500024,
      "d": 777.0262500000026,
      "v": 79
    },
    {
      "midi": 58,
      "hit": false,
      "t": 48386.775937500024,
      "d": 1311.9356250000055,
      "v": 70
    },
    {
      "midi": 51,
      "hit": false,
      "t": 48389.59125000003,
      "d": 1311.9356250000055,
      "v": 73
    },
    {
      "midi": 55,
      "hit": false,
      "t": 48389.59125000003,
      "d": 1311.9356250000055,
      "v": 64
    },
    {
      "midi": 58,
      "hit": false,
      "t": 49738.12593750003,
      "d": 777.0262500000026,
      "v": 65
    },
    {
      "midi": 55,
      "hit": false,
      "t": 49740.94125000003,
      "d": 777.0262500000026,
      "v": 79
    },
    {
      "midi": 51,
      "hit": false,
      "t": 49743.756562500035,
      "d": 777.0262500000026,
      "v": 78
    },
    {
      "midi": 58,
      "hit": false,
      "t": 50548.935937500035,
      "d": 1311.9356250000055,
      "v": 66
    },
    {
      "midi": 51,
      "hit": false,
      "t": 50551.75125000004,
      "d": 1311.9356250000055,
      "v": 72
    },
    {
      "midi": 55,
      "hit": false,
      "t": 50551.75125000004,
      "d": 1311.9356250000055,
      "v": 67
    },
    {
      "midi": 60,
      "hit": false,
      "t": 51900.28593750004,
      "d": 777.0262500000026,
      "v": 66
    },
    {
      "midi": 55,
      "hit": false,
      "t": 51903.10125000004,
      "d": 777.0262500000026,
      "v": 80
    },
    {
      "midi": 63,
      "hit": false,
      "t": 51905.916562500046,
      "d": 777.0262500000026,
      "v": 102
    },
    {
      "midi": 48,
      "hit": false,
      "t": 51905.916562500046,
      "d": 2139.6375000000044,
      "v": 83
    },
    {
      "midi": 60,
      "hit": false,
      "t": 52711.095937500046,
      "d": 1337.2734375000073,
      "v": 68
    },
    {
      "midi": 55,
      "hit": false,
      "t": 52713.91125000005,
      "d": 534.9093750000029,
      "v": 80
    },
    {
      "midi": 51,
      "hit": false,
      "t": 53254.45125000005,
      "d": 774.2109375,
      "v": 73
    },
    {
      "midi": 62,
      "hit": false,
      "t": 54054.00000000005,
      "d": 802.3640624999971,
      "v": 127
    },
    {
      "midi": 48,
      "hit": false,
      "t": 54068.07656250005,
      "d": 2139.637499999997,
      "v": 77
    },
    {
      "midi": 60,
      "hit": false,
      "t": 54864.81000000005,
      "d": 802.3640624999971,
      "v": 113
    },
    {
      "midi": 55,
      "hit": false,
      "t": 55675.620000000046,
      "d": 532.0940625000003,
      "v": 112
    },
    {
      "midi": 58,
      "hit": false,
      "t": 56224.60593750005,
      "d": 777.0262500000026,
      "v": 66
    },
    {
      "midi": 55,
      "hit": false,
      "t": 56227.42125000005,
      "d": 777.0262500000026,
      "v": 80
    },
    {
      "midi": 51,
      "hit": false,
      "t": 56230.23656250005,
      "d": 777.0262500000026,
      "v": 79
    },
    {
      "midi": 58,
      "hit": false,
      "t": 57035.41593750005,
      "d": 1311.9356250000055,
      "v": 70
    },
    {
      "midi": 51,
      "hit": false,
      "t": 57038.231250000055,
      "d": 1311.9356250000055,
      "v": 77
    },
    {
      "midi": 55,
      "hit": false,
      "t": 57038.231250000055,
      "d": 1311.9356250000055,
      "v": 63
    },
    {
      "midi": 58,
      "hit": false,
      "t": 58386.76593750006,
      "d": 777.0262500000026,
      "v": 67
    },
    {
      "midi": 55,
      "hit": false,
      "t": 58389.58125000006,
      "d": 777.0262500000026,
      "v": 78
    },
    {
      "midi": 51,
      "hit": false,
      "t": 58392.396562500064,
      "d": 777.0262500000026,
      "v": 81
    },
    {
      "midi": 58,
      "hit": false,
      "t": 59197.57593750006,
      "d": 1311.9356250000055,
      "v": 66
    },
    {
      "midi": 51,
      "hit": false,
      "t": 59200.391250000066,
      "d": 1311.9356250000055,
      "v": 74
    },
    {
      "midi": 55,
      "hit": false,
      "t": 59200.391250000066,
      "d": 1311.9356250000055,
      "v": 66
    },
    {
      "midi": 63,
      "hit": false,
      "t": 60548.92593750007,
      "d": 777.0262500000026,
      "v": 68
    },
    {
      "midi": 55,
      "hit": false,
      "t": 60551.74125000007,
      "d": 777.0262500000026,
      "v": 78
    },
    {
      "midi": 51,
      "hit": false,
      "t": 60554.556562500075,
      "d": 777.0262500000026,
      "v": 87
    },
    {
      "midi": 48,
      "hit": false,
      "t": 60554.556562500075,
      "d": 2139.6375000000044,
      "v": 83
    },
    {
      "midi": 63,
      "hit": false,
      "t": 61359.735937500074,
      "d": 1337.2734375000073,
      "v": 75
    },
    {
      "midi": 55,
      "hit": false,
      "t": 61362.55125000008,
      "d": 534.9093750000029,
      "v": 84
    },
    {
      "midi": 51,
      "hit": false,
      "t": 61903.09125000008,
      "d": 2936.3709375000035,
      "v": 76
    },
    {
      "midi": 65,
      "hit": false,
      "t": 62702.64000000008,
      "d": 802.3640624999971,
      "v": 127
    },
    {
      "midi": 48,
      "hit": false,
      "t": 62716.71656250008,
      "d": 2139.6375000000044,
      "v": 73
    },
    {
      "midi": 60,
      "hit": false,
      "t": 63513.45000000008,
      "d": 802.3640625000044,
      "v": 83
    },
    {
      "midi": 67,
      "hit": false,
      "t": 63789.35062500008,
      "d": 1061.3728125000052,
      "v": 102
    },
    {
      "midi": 55,
      "hit": false,
      "t": 64324.26000000008,
      "d": 532.0940625000003,
      "v": 70
    },
    {
      "midi": 58,
      "hit": false,
      "t": 64873.24593750008,
      "d": 777.0262500000026,
      "v": 67
    },
    {
      "midi": 55,
      "hit": false,
      "t": 64876.061250000086,
      "d": 777.0262499999953,
      "v": 81
    },
    {
      "midi": 50,
      "hit": false,
      "t": 64878.87656250009,
      "d": 777.0262499999881,
      "v": 83
    },
    {
      "midi": 58,
      "hit": false,
      "t": 65684.05593750007,
      "d": 1311.9356249999983,
      "v": 67
    },
    {
      "midi": 50,
      "hit": false,
      "t": 65686.87125000007,
      "d": 1311.9356249999983,
      "v": 78
    },
    {
      "midi": 55,
      "hit": false,
      "t": 65686.87125000007,
      "d": 1311.9356249999983,
      "v": 68
    },
    {
      "midi": 58,
      "hit": false,
      "t": 67035.40593750007,
      "d": 777.0262499999953,
      "v": 74
    },
    {
      "midi": 55,
      "hit": false,
      "t": 67038.22125000006,
      "d": 777.0262499999953,
      "v": 84
    },
    {
      "midi": 50,
      "hit": false,
      "t": 67041.03656250006,
      "d": 777.0262499999953,
      "v": 81
    },
    {
      "midi": 58,
      "hit": false,
      "t": 67846.21593750005,
      "d": 1311.9356249999983,
      "v": 71
    },
    {
      "midi": 50,
      "hit": false,
      "t": 67849.03125000004,
      "d": 1311.9356249999983,
      "v": 78
    },
    {
      "midi": 55,
      "hit": false,
      "t": 67849.03125000004,
      "d": 1311.9356249999983,
      "v": 73
    },
    {
      "midi": 63,
      "hit": false,
      "t": 69197.56593750004,
      "d": 1317.566249999989,
      "v": 71
    },
    {
      "midi": 60,
      "hit": false,
      "t": 69200.38125000003,
      "d": 777.0262499999953,
      "v": 84
    },
    {
      "midi": 56,
      "hit": false,
      "t": 69203.19656250003,
      "d": 777.0262499999953,
      "v": 85
    },
    {
      "midi": 51,
      "hit": false,
      "t": 69203.19656250003,
      "d": 2139.6375000000116,
      "v": 89
    },
    {
      "midi": 60,
      "hit": false,
      "t": 70011.19125000003,
      "d": 534.9093750000029,
      "v": 88
    },
    {
      "midi": 56,
      "hit": false,
      "t": 70551.73125000004,
      "d": 1576.5750000000116,
      "v": 79
    },
    {
      "midi": 65,
      "hit": false,
      "t": 71351.28000000004,
      "d": 2139.637500000026,
      "v": 127
    },
    {
      "midi": 44,
      "hit": false,
      "t": 71365.35656250005,
      "d": 2139.637500000026,
      "v": 77
    },
    {
      "midi": 56,
      "hit": false,
      "t": 72162.09000000005,
      "d": 1326.0121875000186,
      "v": 69
    },
    {
      "midi": 60,
      "hit": false,
      "t": 72167.72062500006,
      "d": 1331.6428125000093,
      "v": 72
    },
    {
      "midi": 51,
      "hit": false,
      "t": 72972.90000000007,
      "d": 532.0940625000076,
      "v": 65
    },
    {
      "midi": 58,
      "hit": false,
      "t": 73521.88593750008,
      "d": 777.0262499999953,
      "v": 71
    },
    {
      "midi": 55,
      "hit": false,
      "t": 73524.70125000007,
      "d": 777.0262499999953,
      "v": 83
    },
    {
      "midi": 62,
      "hit": false,
      "t": 73527.51656250007,
      "d": 777.0262499999953,
      "v": 84
    },
    {
      "midi": 58,
      "hit": false,
      "t": 74332.69593750006,
      "d": 1311.9356249999983,
      "v": 72
    },
    {
      "midi": 55,
      "hit": false,
      "t": 74335.51125000005,
      "d": 1311.9356249999983,
      "v": 73
    },
    {
      "midi": 62,
      "hit": false,
      "t": 74335.51125000005,
      "d": 1311.9356249999983,
      "v": 75
    },
    {
      "midi": 58,
      "hit": false,
      "t": 75684.04593750005,
      "d": 777.0262499999953,
      "v": 74
    },
    {
      "midi": 55,
      "hit": false,
      "t": 75686.86125000005,
      "d": 777.0262499999953,
      "v": 80
    },
    {
      "midi": 62,
      "hit": false,
      "t": 75689.67656250004,
      "d": 777.0262499999953,
      "v": 82
    },
    {
      "midi": 58,
      "hit": false,
      "t": 76494.85593750003,
      "d": 1311.9356249999983,
      "v": 69
    },
    {
      "midi": 55,
      "hit": false,
      "t": 76497.67125000003,
      "d": 1311.9356249999983,
      "v": 73
    },
    {
      "midi": 62,
      "hit": false,
      "t": 76497.67125000003,
      "d": 1311.9356249999983,
      "v": 78
    },
    {
      "midi": 65,
      "hit": false,
      "t": 77846.20593750002,
      "d": 777.0262499999953,
      "v": 102
    },
    {
      "midi": 60,
      "hit": false,
      "t": 77849.02125000002,
      "d": 777.0262499999953,
      "v": 84
    },
    {
      "midi": 56,
      "hit": false,
      "t": 77851.83656250002,
      "d": 796.7334375000064,
      "v": 86
    },
    {
      "midi": 51,
      "hit": false,
      "t": 77851.83656250002,
      "d": 2139.6375000000116,
      "v": 90
    },
    {
      "midi": 56,
      "hit": false,
      "t": 78657.01593750002,
      "d": 1337.2734375,
      "v": 69
    },
    {
      "midi": 60,
      "hit": false,
      "t": 78659.83125000002,
      "d": 534.9093750000029,
      "v": 103
    },
    {
      "midi": 65,
      "hit": false,
      "t": 79200.37125000003,
      "d": 2939.186250000028,
      "v": 104
    },
    {
      "midi": 63,
      "hit": false,
      "t": 79999.92000000003,
      "d": 2128.3762500000303,
      "v": 127
    },
    {
      "midi": 46,
      "hit": false,
      "t": 80013.99656250003,
      "d": 2139.637500000026,
      "v": 71
    },
    {
      "midi": 53,
      "hit": false,
      "t": 80810.73000000004,
      "d": 785.4721875000105,
      "v": 70
    },
    {
      "midi": 58,
      "hit": false,
      "t": 80816.36062500004,
      "d": 1331.6428125000093,
      "v": 78
    },
    {
      "midi": 53,
      "hit": false,
      "t": 81621.54000000005,
      "d": 532.0940625000076,
      "v": 66
    },
    {
      "midi": 46,
      "hit": false,
      "t": 82162.08000000006,
      "d": 2139.6374999999825,
      "v": 68
    },
    {
      "midi": 53,
      "hit": false,
      "t": 82173.34125000006,
      "d": 2128.3762499999866,
      "v": 79
    },
    {
      "midi": 58,
      "hit": false,
      "t": 82184.60250000005,
      "d": 2128.376250000001,
      "v": 82
    },
    {
      "midi": 62,
      "hit": false,
      "t": 82195.86375000005,
      "d": 2111.484375,
      "v": 92
    },
    {
      "midi": 58,
      "hit": false,
      "t": 84332.68593750005,
      "d": 2100.2231249999895,
      "v": 76
    },
    {
      "midi": 55,
      "hit": false,
      "t": 84335.50125000004,
      "d": 2100.2231249999895,
      "v": 87
    },
    {
      "midi": 51,
      "hit": false,
      "t": 84338.31656250004,
      "d": 2100.2231249999895,
      "v": 89
    },
    {
      "midi": 58,
      "hit": false,
      "t": 86494.84593750002,
      "d": 2100.2231249999895,
      "v": 74
    },
    {
      "midi": 55,
      "hit": false,
      "t": 86497.66125000002,
      "d": 2100.2231249999895,
      "v": 87
    },
    {
      "midi": 51,
      "hit": false,
      "t": 86500.47656250001,
      "d": 2100.2231249999895,
      "v": 90
    },
    {
      "midi": 58,
      "hit": false,
      "t": 88657.0059375,
      "d": 2100.2231249999895,
      "v": 72
    },
    {
      "midi": 53,
      "hit": false,
      "t": 88659.82125,
      "d": 2100.2231249999895,
      "v": 86
    },
    {
      "midi": 50,
      "hit": false,
      "t": 88662.63656249999,
      "d": 2100.2231249999895,
      "v": 87
    },
    {
      "midi": 58,
      "hit": false,
      "t": 90819.16593749997,
      "d": 2100.2231249999895,
      "v": 75
    },
    {
      "midi": 53,
      "hit": false,
      "t": 90821.98124999997,
      "d": 2100.2231249999895,
      "v": 86
    },
    {
      "midi": 50,
      "hit": false,
      "t": 90824.79656249996,
      "d": 2100.2231249999895,
      "v": 89
    },
    {
      "midi": 60,
      "hit": false,
      "t": 92981.32593749995,
      "d": 2100.2231249999895,
      "v": 75
    },
    {
      "midi": 55,
      "hit": false,
      "t": 92984.14124999994,
      "d": 2100.2231249999895,
      "v": 83
    },
    {
      "midi": 51,
      "hit": false,
      "t": 92986.95656249994,
      "d": 2100.2231249999895,
      "v": 87
    },
    {
      "midi": 60,
      "hit": false,
      "t": 95143.48593749992,
      "d": 2100.2231249999895,
      "v": 73
    },
    {
      "midi": 55,
      "hit": false,
      "t": 95146.30124999992,
      "d": 2100.2231249999895,
      "v": 86
    },
    {
      "midi": 51,
      "hit": false,
      "t": 95149.11656249991,
      "d": 2100.2231249999895,
      "v": 85
    },
    {
      "midi": 58,
      "hit": false,
      "t": 97305.6459374999,
      "d": 2100.2231249999895,
      "v": 71
    },
    {
      "midi": 55,
      "hit": false,
      "t": 97308.46124999989,
      "d": 2100.2231249999895,
      "v": 82
    },
    {
      "midi": 50,
      "hit": false,
      "t": 97311.27656249989,
      "d": 2100.2231249999895,
      "v": 87
    },
    {
      "midi": 58,
      "hit": false,
      "t": 99467.80593749987,
      "d": 1019.1431249999878,
      "v": 76
    },
    {
      "midi": 53,
      "hit": false,
      "t": 99470.62124999987,
      "d": 1019.1431249999878,
      "v": 81
    },
    {
      "midi": 50,
      "hit": false,
      "t": 99473.43656249986,
      "d": 1019.1431249999878,
      "v": 87
    },
    {
      "midi": 56,
      "hit": false,
      "t": 100548.88593749984,
      "d": 1019.1431249999878,
      "v": 75
    },
    {
      "midi": 53,
      "hit": false,
      "t": 100551.70124999984,
      "d": 1019.1431249999878,
      "v": 82
    },
    {
      "midi": 50,
      "hit": false,
      "t": 100554.51656249983,
      "d": 1019.1431249999878,
      "v": 87
    },
    {
      "midi": 58,
      "hit": false,
      "t": 101629.96593749982,
      "d": 2100.2231249999895,
      "v": 71
    },
    {
      "midi": 55,
      "hit": false,
      "t": 101632.78124999981,
      "d": 2100.2231249999895,
      "v": 81
    },
    {
      "midi": 51,
      "hit": false,
      "t": 101635.5965624998,
      "d": 2100.2231249999895,
      "v": 88
    },
    {
      "midi": 58,
      "hit": false,
      "t": 103792.12593749979,
      "d": 2100.2231249999895,
      "v": 71
    },
    {
      "midi": 55,
      "hit": false,
      "t": 103794.94124999979,
      "d": 2100.2231249999895,
      "v": 85
    },
    {
      "midi": 51,
      "hit": false,
      "t": 103797.75656249978,
      "d": 2100.2231249999895,
      "v": 91
    },
    {
      "midi": 58,
      "hit": false,
      "t": 105954.28593749976,
      "d": 2100.2231249999895,
      "v": 75
    },
    {
      "midi": 53,
      "hit": false,
      "t": 105957.10124999976,
      "d": 2100.2231249999895,
      "v": 83
    },
    {
      "midi": 50,
      "hit": false,
      "t": 105959.91656249975,
      "d": 2100.2231249999895,
      "v": 91
    },
    {
      "midi": 58,
      "hit": false,
      "t": 108116.44593749974,
      "d": 2100.2231249999895,
      "v": 74
    },
    {
      "midi": 53,
      "hit": false,
      "t": 108119.26124999973,
      "d": 2100.2231249999895,
      "v": 83
    },
    {
      "midi": 50,
      "hit": false,
      "t": 108122.07656249973,
      "d": 2100.2231249999895,
      "v": 87
    },
    {
      "midi": 60,
      "hit": false,
      "t": 110278.60593749971,
      "d": 2100.2231249999895,
      "v": 75
    },
    {
      "midi": 55,
      "hit": false,
      "t": 110281.42124999971,
      "d": 2100.2231249999895,
      "v": 81
    },
    {
      "midi": 51,
      "hit": false,
      "t": 110284.2365624997,
      "d": 2100.2231249999895,
      "v": 85
    },
    {
      "midi": 60,
      "hit": false,
      "t": 112440.76593749969,
      "d": 2100.2231249999895,
      "v": 77
    },
    {
      "midi": 55,
      "hit": false,
      "t": 112443.58124999968,
      "d": 2100.2231249999895,
      "v": 84
    },
    {
      "midi": 51,
      "hit": false,
      "t": 112446.39656249968,
      "d": 2100.2231249999895,
      "v": 86
    },
    {
      "midi": 58,
      "hit": false,
      "t": 114602.92593749966,
      "d": 2100.2231249999895,
      "v": 72
    },
    {
      "midi": 55,
      "hit": false,
      "t": 114605.74124999966,
      "d": 2100.2231249999895,
      "v": 83
    },
    {
      "midi": 50,
      "hit": false,
      "t": 114608.55656249965,
      "d": 2100.2231249999895,
      "v": 86
    },
    {
      "midi": 58,
      "hit": false,
      "t": 116765.08593749964,
      "d": 2100.2231249999895,
      "v": 71
    },
    {
      "midi": 55,
      "hit": false,
      "t": 116767.90124999963,
      "d": 2100.2231249999895,
      "v": 83
    },
    {
      "midi": 50,
      "hit": false,
      "t": 116770.71656249963,
      "d": 2100.2231249999895,
      "v": 88
    },
    {
      "midi": 60,
      "hit": false,
      "t": 118927.24593749961,
      "d": 2100.2231249999895,
      "v": 75
    },
    {
      "midi": 56,
      "hit": false,
      "t": 118930.0612499996,
      "d": 2100.2231249999895,
      "v": 82
    },
    {
      "midi": 51,
      "hit": false,
      "t": 118932.8765624996,
      "d": 2100.2231249999895,
      "v": 91
    },
    {
      "midi": 60,
      "hit": false,
      "t": 121089.40593749958,
      "d": 2100.2231249999895,
      "v": 77
    },
    {
      "midi": 56,
      "hit": false,
      "t": 121092.22124999958,
      "d": 2100.2231249999895,
      "v": 82
    },
    {
      "midi": 51,
      "hit": false,
      "t": 121095.03656249958,
      "d": 2100.2231249999895,
      "v": 89
    },
    {
      "midi": 58,
      "hit": false,
      "t": 123251.56593749956,
      "d": 2100.2231249999895,
      "v": 71
    },
    {
      "midi": 55,
      "hit": false,
      "t": 123254.38124999955,
      "d": 2100.2231249999895,
      "v": 82
    },
    {
      "midi": 50,
      "hit": false,
      "t": 123257.19656249955,
      "d": 2100.2231249999895,
      "v": 92
    },
    {
      "midi": 58,
      "hit": false,
      "t": 125413.72593749953,
      "d": 2100.2231249999895,
      "v": 78
    },
    {
      "midi": 55,
      "hit": false,
      "t": 125416.54124999953,
      "d": 2100.2231249999895,
      "v": 87
    },
    {
      "midi": 50,
      "hit": false,
      "t": 125419.35656249952,
      "d": 2100.2231249999895,
      "v": 90
    },
    {
      "midi": 60,
      "hit": false,
      "t": 127575.88593749951,
      "d": 2100.2231249999895,
      "v": 73
    },
    {
      "midi": 56,
      "hit": false,
      "t": 127578.7012499995,
      "d": 2100.2231249999895,
      "v": 83
    },
    {
      "midi": 51,
      "hit": false,
      "t": 127581.5165624995,
      "d": 2100.2231249999895,
      "v": 86
    },
    {
      "midi": 63,
      "hit": false,
      "t": 129738.04593749948,
      "d": 2100.223125000004,
      "v": 74
    },
    {
      "midi": 58,
      "hit": false,
      "t": 129740.86124999948,
      "d": 2100.223125000004,
      "v": 82
    },
    {
      "midi": 53,
      "hit": false,
      "t": 129743.67656249947,
      "d": 2100.223125000004,
      "v": 88
    },
    {
      "midi": 46,
      "hit": false,
      "t": 131891.75999999949,
      "d": 2100.2231250000186,
      "v": 79
    },
    {
      "midi": 53,
      "hit": false,
      "t": 131903.0212499995,
      "d": 2100.2231250000186,
      "v": 85
    },
    {
      "midi": 58,
      "hit": false,
      "t": 131914.2824999995,
      "d": 2100.2231250000186,
      "v": 86
    },
    {
      "midi": 62,
      "hit": false,
      "t": 131925.54374999952,
      "d": 2100.2231250000186,
      "v": 96
    },
    {
      "midi": 58,
      "hit": false,
      "t": 134062.36593749953,
      "d": 777.0262499999953,
      "v": 66
    },
    {
      "midi": 55,
      "hit": false,
      "t": 134065.18124999953,
      "d": 777.0262499999953,
      "v": 76
    },
    {
      "midi": 51,
      "hit": false,
      "t": 134067.99656249952,
      "d": 777.0262499999953,
      "v": 80
    },
    {
      "midi": 58,
      "hit": false,
      "t": 134873.17593749953,
      "d": 1311.9356249999837,
      "v": 66
    },
    {
      "midi": 51,
      "hit": false,
      "t": 134875.99124999953,
      "d": 1311.9356249999837,
      "v": 72
    },
    {
      "midi": 55,
      "hit": false,
      "t": 134875.99124999953,
      "d": 1311.9356249999837,
      "v": 68
    },
    {
      "midi": 58,
      "hit": false,
      "t": 136224.5259374995,
      "d": 777.0262499999953,
      "v": 70
    },
    {
      "midi": 55,
      "hit": false,
      "t": 136227.3412499995,
      "d": 777.0262499999953,
      "v": 80
    },
    {
      "midi": 51,
      "hit": false,
      "t": 136230.1565624995,
      "d": 777.0262499999953,
      "v": 80
    },
    {
      "midi": 58,
      "hit": false,
      "t": 137035.3359374995,
      "d": 1311.9356249999837,
      "v": 66
    },
    {
      "midi": 51,
      "hit": false,
      "t": 137038.1512499995,
      "d": 1311.9356249999837,
      "v": 78
    },
    {
      "midi": 55,
      "hit": false,
      "t": 137038.1512499995,
      "d": 1311.9356249999837,
      "v": 66
    },
    {
      "midi": 60,
      "hit": false,
      "t": 138386.68593749948,
      "d": 777.0262499999953,
      "v": 70
    },
    {
      "midi": 55,
      "hit": false,
      "t": 138389.50124999948,
      "d": 777.0262499999953,
      "v": 82
    },
    {
      "midi": 63,
      "hit": false,
      "t": 138392.31656249947,
      "d": 777.0262499999953,
      "v": 104
    },
    {
      "midi": 48,
      "hit": false,
      "t": 138392.31656249947,
      "d": 2139.6374999999825,
      "v": 85
    },
    {
      "midi": 60,
      "hit": false,
      "t": 139197.49593749948,
      "d": 1337.273437499971,
      "v": 70
    },
    {
      "midi": 55,
      "hit": false,
      "t": 139200.31124999947,
      "d": 534.9093749999884,
      "v": 82
    },
    {
      "midi": 51,
      "hit": false,
      "t": 139740.85124999945,
      "d": 774.2109375,
      "v": 73
    },
    {
      "midi": 62,
      "hit": false,
      "t": 140540.39999999944,
      "d": 802.3640625000116,
      "v": 126
    },
    {
      "midi": 48,
      "hit": false,
      "t": 140554.47656249945,
      "d": 2139.6374999999825,
      "v": 72
    },
    {
      "midi": 60,
      "hit": false,
      "t": 141351.20999999944,
      "d": 802.3640625000116,
      "v": 119
    },
    {
      "midi": 55,
      "hit": false,
      "t": 142162.01999999944,
      "d": 532.094062499993,
      "v": 119
    },
    {
      "midi": 58,
      "hit": false,
      "t": 142711.00593749943,
      "d": 777.0262499999953,
      "v": 66
    },
    {
      "midi": 55,
      "hit": false,
      "t": 142713.82124999943,
      "d": 777.0262499999953,
      "v": 79
    },
    {
      "midi": 51,
      "hit": false,
      "t": 142716.63656249942,
      "d": 777.0262499999953,
      "v": 78
    },
    {
      "midi": 58,
      "hit": false,
      "t": 143521.81593749943,
      "d": 1311.9356249999837,
      "v": 67
    },
    {
      "midi": 51,
      "hit": false,
      "t": 143524.63124999942,
      "d": 1311.9356249999837,
      "v": 78
    },
    {
      "midi": 55,
      "hit": false,
      "t": 143524.63124999942,
      "d": 1311.9356249999837,
      "v": 67
    },
    {
      "midi": 58,
      "hit": false,
      "t": 144873.1659374994,
      "d": 777.0262499999953,
      "v": 68
    },
    {
      "midi": 55,
      "hit": false,
      "t": 144875.9812499994,
      "d": 777.0262499999953,
      "v": 80
    },
    {
      "midi": 51,
      "hit": false,
      "t": 144878.7965624994,
      "d": 777.0262499999953,
      "v": 83
    },
    {
      "midi": 58,
      "hit": false,
      "t": 145683.9759374994,
      "d": 1311.9356249999837,
      "v": 68
    },
    {
      "midi": 51,
      "hit": false,
      "t": 145686.7912499994,
      "d": 1311.9356249999837,
      "v": 73
    },
    {
      "midi": 55,
      "hit": false,
      "t": 145686.7912499994,
      "d": 1311.9356249999837,
      "v": 64
    },
    {
      "midi": 63,
      "hit": false,
      "t": 147035.32593749938,
      "d": 777.0262499999953,
      "v": 74
    },
    {
      "midi": 55,
      "hit": false,
      "t": 147038.14124999937,
      "d": 777.0262499999953,
      "v": 84
    },
    {
      "midi": 51,
      "hit": false,
      "t": 147040.95656249937,
      "d": 777.0262499999953,
      "v": 86
    },
    {
      "midi": 48,
      "hit": false,
      "t": 147040.95656249937,
      "d": 2139.6374999999825,
      "v": 86
    },
    {
      "midi": 63,
      "hit": false,
      "t": 147846.13593749938,
      "d": 1337.273437499971,
      "v": 76
    },
    {
      "midi": 55,
      "hit": false,
      "t": 147848.95124999937,
      "d": 534.9093749999884,
      "v": 86
    },
    {
      "midi": 51,
      "hit": false,
      "t": 148389.49124999935,
      "d": 2936.3709374999744,
      "v": 77
    },
    {
      "midi": 65,
      "hit": false,
      "t": 149189.03999999934,
      "d": 802.3640625000116,
      "v": 125
    },
    {
      "midi": 48,
      "hit": false,
      "t": 149203.11656249934,
      "d": 2139.6374999999825,
      "v": 78
    },
    {
      "midi": 60,
      "hit": false,
      "t": 149999.84999999934,
      "d": 802.3640625000116,
      "v": 86
    },
    {
      "midi": 67,
      "hit": false,
      "t": 150275.75062499935,
      "d": 1061.3728124999907,
      "v": 106
    },
    {
      "midi": 55,
      "hit": false,
      "t": 150810.65999999933,
      "d": 532.094062499993,
      "v": 72
    },
    {
      "midi": 58,
      "hit": false,
      "t": 151359.64593749933,
      "d": 777.0262499999953,
      "v": 72
    },
    {
      "midi": 55,
      "hit": false,
      "t": 151362.46124999932,
      "d": 777.0262499999953,
      "v": 81
    },
    {
      "midi": 50,
      "hit": false,
      "t": 151365.27656249932,
      "d": 777.0262499999953,
      "v": 89
    },
    {
      "midi": 58,
      "hit": false,
      "t": 152170.45593749933,
      "d": 1311.9356249999837,
      "v": 70
    },
    {
      "midi": 50,
      "hit": false,
      "t": 152173.27124999932,
      "d": 1311.9356249999837,
      "v": 82
    },
    {
      "midi": 55,
      "hit": false,
      "t": 152173.27124999932,
      "d": 1311.9356249999837,
      "v": 69
    },
    {
      "midi": 58,
      "hit": false,
      "t": 153521.8059374993,
      "d": 777.0262499999953,
      "v": 69
    },
    {
      "midi": 55,
      "hit": false,
      "t": 153524.6212499993,
      "d": 777.0262499999953,
      "v": 81
    },
    {
      "midi": 50,
      "hit": false,
      "t": 153527.4365624993,
      "d": 777.0262499999953,
      "v": 86
    },
    {
      "midi": 58,
      "hit": false,
      "t": 154332.6159374993,
      "d": 1311.9356249999837,
      "v": 75
    },
    {
      "midi": 50,
      "hit": false,
      "t": 154335.4312499993,
      "d": 1311.9356249999837,
      "v": 83
    },
    {
      "midi": 55,
      "hit": false,
      "t": 154335.4312499993,
      "d": 1311.9356249999837,
      "v": 72
    },
    {
      "midi": 63,
      "hit": false,
      "t": 155683.96593749928,
      "d": 1317.5662500000035,
      "v": 75
    },
    {
      "midi": 60,
      "hit": false,
      "t": 155686.78124999927,
      "d": 777.0262499999953,
      "v": 84
    },
    {
      "midi": 56,
      "hit": false,
      "t": 155689.59656249927,
      "d": 777.0262499999953,
      "v": 85
    },
    {
      "midi": 51,
      "hit": false,
      "t": 155689.59656249927,
      "d": 2139.6375000000116,
      "v": 90
    },
    {
      "midi": 60,
      "hit": false,
      "t": 156497.59124999927,
      "d": 534.9093750000175,
      "v": 91
    },
    {
      "midi": 56,
      "hit": false,
      "t": 157038.13124999928,
      "d": 1576.5749999999825,
      "v": 77
    },
    {
      "midi": 65,
      "hit": false,
      "t": 157837.67999999927,
      "d": 2139.6374999999825,
      "v": 127
    },
    {
      "midi": 44,
      "hit": false,
      "t": 157851.75656249927,
      "d": 2139.6374999999534,
      "v": 76
    },
    {
      "midi": 56,
      "hit": false,
      "t": 158648.48999999926,
      "d": 1326.0121874999895,
      "v": 74
    },
    {
      "midi": 60,
      "hit": false,
      "t": 158654.12062499925,
      "d": 1331.6428124999802,
      "v": 75
    },
    {
      "midi": 51,
      "hit": false,
      "t": 159459.29999999926,
      "d": 532.0940624999639,
      "v": 62
    },
    {
      "midi": 58,
      "hit": false,
      "t": 160008.28593749923,
      "d": 777.0262499999953,
      "v": 74
    },
    {
      "midi": 55,
      "hit": false,
      "t": 160011.10124999922,
      "d": 777.0262499999953,
      "v": 81
    },
    {
      "midi": 62,
      "hit": false,
      "t": 160013.91656249922,
      "d": 777.0262499999953,
      "v": 89
    },
    {
      "midi": 58,
      "hit": false,
      "t": 160819.09593749922,
      "d": 1311.9356249999837,
      "v": 69
    },
    {
      "midi": 55,
      "hit": false,
      "t": 160821.91124999922,
      "d": 1311.9356249999837,
      "v": 68
    },
    {
      "midi": 62,
      "hit": false,
      "t": 160821.91124999922,
      "d": 1311.9356249999837,
      "v": 82
    },
    {
      "midi": 58,
      "hit": false,
      "t": 162170.4459374992,
      "d": 1047.2962499999849,
      "v": 71
    },
    {
      "midi": 55,
      "hit": false,
      "t": 162173.2612499992,
      "d": 1047.2962499999849,
      "v": 81
    },
    {
      "midi": 62,
      "hit": false,
      "t": 162176.0765624992,
      "d": 1047.2962499999849,
      "v": 88
    },
    {
      "midi": 58,
      "hit": false,
      "t": 163251.5259374992,
      "d": 1041.6656249999942,
      "v": 73
    },
    {
      "midi": 55,
      "hit": false,
      "t": 163254.34124999918,
      "d": 1041.6656249999942,
      "v": 75
    },
    {
      "midi": 61,
      "hit": false,
      "t": 163254.34124999918,
      "d": 1041.6656249999942,
      "v": 83
    },
    {
      "midi": 60,
      "hit": false,
      "t": 164335.42124999917,
      "d": 777.0262499999953,
      "v": 85
    },
    {
      "midi": 56,
      "hit": false,
      "t": 164338.23656249917,
      "d": 796.7334374999919,
      "v": 83
    },
    {
      "midi": 51,
      "hit": false,
      "t": 164338.23656249917,
      "d": 2139.6374999999534,
      "v": 90
    },
    {
      "midi": 56,
      "hit": false,
      "t": 165143.41593749914,
      "d": 1337.273437499971,
      "v": 70
    },
    {
      "midi": 60,
      "hit": false,
      "t": 165146.23124999914,
      "d": 534.9093749999884,
      "v": 107
    },
    {
      "midi": 65,
      "hit": false,
      "t": 165686.77124999912,
      "d": 2939.1862499999697,
      "v": 102
    },
    {
      "midi": 63,
      "hit": false,
      "t": 166486.3199999991,
      "d": 2128.376249999972,
      "v": 126
    },
    {
      "midi": 46,
      "hit": false,
      "t": 166500.3965624991,
      "d": 2139.6374999999534,
      "v": 74
    },
    {
      "midi": 53,
      "hit": false,
      "t": 167297.1299999991,
      "d": 785.4721874999814,
      "v": 74
    },
    {
      "midi": 58,
      "hit": false,
      "t": 167302.7606249991,
      "d": 1331.6428124999802,
      "v": 77
    },
    {
      "midi": 53,
      "hit": false,
      "t": 168107.93999999907,
      "d": 532.094062499993,
      "v": 67
    },
    {
      "midi": 46,
      "hit": false,
      "t": 168648.47999999905,
      "d": 2139.6375000000407,
      "v": 68
    },
    {
      "midi": 53,
      "hit": false,
      "t": 168659.74124999906,
      "d": 2128.3762500000303,
      "v": 78
    },
    {
      "midi": 58,
      "hit": false,
      "t": 168671.00249999907,
      "d": 2128.376250000001,
      "v": 84
    },
    {
      "midi": 62,
      "hit": false,
      "t": 168682.26374999908,
      "d": 2111.484375,
      "v": 92
    },
    {
      "midi": 58,
      "hit": false,
      "t": 170819.08593749907,
      "d": 2100.2231249999895,
      "v": 66
    },
    {
      "midi": 55,
      "hit": false,
      "t": 170821.90124999906,
      "d": 2100.2231249999895,
      "v": 76
    },
    {
      "midi": 51,
      "hit": false,
      "t": 170824.71656249906,
      "d": 2100.2231249999895,
      "v": 86
    },
    {
      "midi": 58,
      "hit": false,
      "t": 172981.24593749904,
      "d": 2100.2231249999895,
      "v": 71
    },
    {
      "midi": 55,
      "hit": false,
      "t": 172984.06124999904,
      "d": 2100.2231249999895,
      "v": 82
    },
    {
      "midi": 51,
      "hit": false,
      "t": 172986.87656249903,
      "d": 2100.2231249999895,
      "v": 81
    },
    {
      "midi": 58,
      "hit": false,
      "t": 175143.40593749902,
      "d": 2100.2231249999895,
      "v": 68
    },
    {
      "midi": 53,
      "hit": false,
      "t": 175146.221249999,
      "d": 2100.2231249999895,
      "v": 81
    },
    {
      "midi": 50,
      "hit": false,
      "t": 175149.036562499,
      "d": 2100.2231249999895,
      "v": 81
    },
    {
      "midi": 58,
      "hit": false,
      "t": 177305.565937499,
      "d": 2100.2231249999895,
      "v": 66
    },
    {
      "midi": 53,
      "hit": false,
      "t": 177308.381249999,
      "d": 2100.2231249999895,
      "v": 76
    },
    {
      "midi": 50,
      "hit": false,
      "t": 177311.19656249898,
      "d": 2100.2231249999895,
      "v": 80
    },
    {
      "midi": 60,
      "hit": false,
      "t": 179467.72593749897,
      "d": 2100.2231249999895,
      "v": 71
    },
    {
      "midi": 55,
      "hit": false,
      "t": 179470.54124999896,
      "d": 2100.2231249999895,
      "v": 76
    },
    {
      "midi": 51,
      "hit": false,
      "t": 179473.35656249896,
      "d": 2100.2231249999895,
      "v": 81
    },
    {
      "midi": 60,
      "hit": false,
      "t": 181629.88593749894,
      "d": 2100.2231249999895,
      "v": 68
    },
    {
      "midi": 55,
      "hit": false,
      "t": 181632.70124999894,
      "d": 2100.2231249999895,
      "v": 77
    },
    {
      "midi": 51,
      "hit": false,
      "t": 181635.51656249893,
      "d": 2100.2231249999895,
      "v": 81
    },
    {
      "midi": 58,
      "hit": false,
      "t": 183792.04593749892,
      "d": 2100.2231249999895,
      "v": 67
    },
    {
      "midi": 55,
      "hit": false,
      "t": 183794.8612499989,
      "d": 2100.2231249999895,
      "v": 83
    },
    {
      "midi": 50,
      "hit": false,
      "t": 183797.6765624989,
      "d": 2100.2231249999895,
      "v": 80
    },
    {
      "midi": 58,
      "hit": false,
      "t": 185954.2059374989,
      "d": 1019.1431250000023,
      "v": 66
    },
    {
      "midi": 53,
      "hit": false,
      "t": 185957.02124999888,
      "d": 1019.1431250000023,
      "v": 78
    },
    {
      "midi": 50,
      "hit": false,
      "t": 185959.83656249888,
      "d": 1019.1431250000023,
      "v": 82
    },
    {
      "midi": 56,
      "hit": false,
      "t": 187035.28593749888,
      "d": 1019.1431250000023,
      "v": 73
    },
    {
      "midi": 53,
      "hit": false,
      "t": 187038.10124999887,
      "d": 1019.1431250000023,
      "v": 79
    },
    {
      "midi": 50,
      "hit": false,
      "t": 187040.91656249887,
      "d": 1019.1431250000023,
      "v": 80
    },
    {
      "midi": 58,
      "hit": false,
      "t": 188116.36593749886,
      "d": 2100.2231249999895,
      "v": 66
    },
    {
      "midi": 55,
      "hit": false,
      "t": 188119.18124999886,
      "d": 2100.2231249999895,
      "v": 79
    },
    {
      "midi": 51,
      "hit": false,
      "t": 188121.99656249885,
      "d": 2100.2231249999895,
      "v": 87
    },
    {
      "midi": 58,
      "hit": false,
      "t": 190278.52593749884,
      "d": 2100.2231249999895,
      "v": 70
    },
    {
      "midi": 55,
      "hit": false,
      "t": 190281.34124999883,
      "d": 2100.2231249999895,
      "v": 78
    },
    {
      "midi": 51,
      "hit": false,
      "t": 190284.15656249883,
      "d": 2100.2231249999895,
      "v": 81
    },
    {
      "midi": 58,
      "hit": false,
      "t": 192440.6859374988,
      "d": 2100.2231249999895,
      "v": 69
    },
    {
      "midi": 53,
      "hit": false,
      "t": 192443.5012499988,
      "d": 2100.2231249999895,
      "v": 78
    },
    {
      "midi": 50,
      "hit": false,
      "t": 192446.3165624988,
      "d": 2100.2231249999895,
      "v": 87
    },
    {
      "midi": 58,
      "hit": false,
      "t": 194602.8459374988,
      "d": 2100.2231249999895,
      "v": 70
    },
    {
      "midi": 53,
      "hit": false,
      "t": 194605.66124999878,
      "d": 2100.2231249999895,
      "v": 79
    },
    {
      "midi": 50,
      "hit": false,
      "t": 194608.47656249878,
      "d": 2100.2231249999895,
      "v": 84
    },
    {
      "midi": 60,
      "hit": false,
      "t": 196765.00593749876,
      "d": 2100.2231249999895,
      "v": 67
    },
    {
      "midi": 55,
      "hit": false,
      "t": 196767.82124999876,
      "d": 2100.2231249999895,
      "v": 80
    },
    {
      "midi": 51,
      "hit": false,
      "t": 196770.63656249875,
      "d": 2100.2231249999895,
      "v": 86
    },
    {
      "midi": 60,
      "hit": false,
      "t": 198927.16593749874,
      "d": 2100.2231249999895,
      "v": 71
    },
    {
      "midi": 55,
      "hit": false,
      "t": 198929.98124999873,
      "d": 2100.2231249999895,
      "v": 80
    },
    {
      "midi": 51,
      "hit": false,
      "t": 198932.79656249873,
      "d": 2100.2231249999895,
      "v": 83
    },
    {
      "midi": 58,
      "hit": false,
      "t": 201089.3259374987,
      "d": 2100.2231249999895,
      "v": 67
    },
    {
      "midi": 55,
      "hit": false,
      "t": 201092.1412499987,
      "d": 2100.2231249999895,
      "v": 76
    },
    {
      "midi": 50,
      "hit": false,
      "t": 201094.9565624987,
      "d": 2100.2231249999895,
      "v": 84
    },
    {
      "midi": 58,
      "hit": false,
      "t": 203251.48593749868,
      "d": 1019.1431250000023,
      "v": 73
    },
    {
      "midi": 55,
      "hit": false,
      "t": 203254.30124999868,
      "d": 1019.1431250000023,
      "v": 80
    },
    {
      "midi": 50,
      "hit": false,
      "t": 203257.11656249868,
      "d": 1019.1431250000023,
      "v": 80
    },
    {
      "midi": 58,
      "hit": false,
      "t": 204332.56593749867,
      "d": 1019.1431250000023,
      "v": 71
    },
    {
      "midi": 53,
      "hit": false,
      "t": 204335.38124999867,
      "d": 1019.1431250000023,
      "v": 80
    },
    {
      "midi": 62,
      "hit": false,
      "t": 204338.19656249866,
      "d": 1019.1431250000023,
      "v": 81
    },
    {
      "midi": 60,
      "hit": false,
      "t": 205413.64593749866,
      "d": 2100.2231249999895,
      "v": 72
    },
    {
      "midi": 56,
      "hit": false,
      "t": 205416.46124999865,
      "d": 2100.2231249999895,
      "v": 78
    },
    {
      "midi": 51,
      "hit": false,
      "t": 205419.27656249865,
      "d": 2100.2231249999895,
      "v": 88
    },
    {
      "midi": 60,
      "hit": false,
      "t": 207575.80593749863,
      "d": 2100.2231249999895,
      "v": 67
    },
    {
      "midi": 56,
      "hit": false,
      "t": 207578.62124999863,
      "d": 2100.2231249999895,
      "v": 83
    },
    {
      "midi": 51,
      "hit": false,
      "t": 207581.43656249862,
      "d": 2100.2231249999895,
      "v": 87
    },
    {
      "midi": 58,
      "hit": false,
      "t": 209737.9659374986,
      "d": 2100.2231249999895,
      "v": 71
    },
    {
      "midi": 55,
      "hit": false,
      "t": 209740.7812499986,
      "d": 2100.2231249999895,
      "v": 76
    },
    {
      "midi": 50,
      "hit": false,
      "t": 209743.5965624986,
      "d": 2100.2231249999895,
      "v": 84
    },
    {
      "midi": 58,
      "hit": false,
      "t": 211900.12593749858,
      "d": 2100.2231249999895,
      "v": 66
    },
    {
      "midi": 55,
      "hit": false,
      "t": 211902.94124999858,
      "d": 2100.2231249999895,
      "v": 80
    },
    {
      "midi": 50,
      "hit": false,
      "t": 211905.75656249857,
      "d": 2100.2231249999895,
      "v": 84
    },
    {
      "midi": 60,
      "hit": false,
      "t": 214062.28593749856,
      "d": 2100.2231249999895,
      "v": 68
    },
    {
      "midi": 56,
      "hit": false,
      "t": 214065.10124999855,
      "d": 2100.2231249999895,
      "v": 77
    },
    {
      "midi": 51,
      "hit": false,
      "t": 214067.91656249855,
      "d": 2100.2231249999895,
      "v": 86
    },
    {
      "midi": 63,
      "hit": false,
      "t": 216224.44593749853,
      "d": 2100.2231249999895,
      "v": 69
    },
    {
      "midi": 58,
      "hit": false,
      "t": 216227.26124999853,
      "d": 2100.2231249999895,
      "v": 77
    },
    {
      "midi": 53,
      "hit": false,
      "t": 216230.07656249852,
      "d": 2100.2231249999895,
      "v": 84
    },
    {
      "midi": 46,
      "hit": false,
      "t": 218378.15999999852,
      "d": 2100.2231250000186,
      "v": 69
    },
    {
      "midi": 53,
      "hit": false,
      "t": 218389.42124999853,
      "d": 2100.2231250000186,
      "v": 79
    },
    {
      "midi": 58,
      "hit": false,
      "t": 218400.68249999854,
      "d": 2100.2231250000186,
      "v": 85
    },
    {
      "midi": 62,
      "hit": false,
      "t": 218411.94374999855,
      "d": 2100.2231250000186,
      "v": 90
    },
    {
      "midi": 60,
      "hit": false,
      "t": 220548.76593749857,
      "d": 2100.2231249999895,
      "v": 71
    },
    {
      "midi": 57,
      "hit": false,
      "t": 220551.58124999856,
      "d": 2100.2231249999895,
      "v": 80
    },
    {
      "midi": 53,
      "hit": false,
      "t": 220554.39656249856,
      "d": 2100.2231249999895,
      "v": 83
    },
    {
      "midi": 60,
      "hit": false,
      "t": 222710.92593749854,
      "d": 2100.2231249999895,
      "v": 73
    },
    {
      "midi": 57,
      "hit": false,
      "t": 222713.74124999854,
      "d": 2100.2231249999895,
      "v": 86
    },
    {
      "midi": 53,
      "hit": false,
      "t": 222716.55656249853,
      "d": 2100.2231249999895,
      "v": 87
    },
    {
      "midi": 62,
      "hit": false,
      "t": 224873.08593749852,
      "d": 2100.2231249999895,
      "v": 69
    },
    {
      "midi": 57,
      "hit": false,
      "t": 224875.9012499985,
      "d": 2100.2231249999895,
      "v": 80
    },
    {
      "midi": 53,
      "hit": false,
      "t": 224878.7165624985,
      "d": 2100.2231249999895,
      "v": 85
    },
    {
      "midi": 62,
      "hit": false,
      "t": 227035.2459374985,
      "d": 2100.2231249999895,
      "v": 69
    },
    {
      "midi": 57,
      "hit": false,
      "t": 227038.06124999849,
      "d": 2100.2231249999895,
      "v": 82
    },
    {
      "midi": 53,
      "hit": false,
      "t": 227040.87656249848,
      "d": 2100.2231249999895,
      "v": 82
    },
    {
      "midi": 60,
      "hit": false,
      "t": 229197.40593749846,
      "d": 2100.2231249999895,
      "v": 71
    },
    {
      "midi": 57,
      "hit": false,
      "t": 229200.22124999846,
      "d": 2100.2231249999895,
      "v": 84
    },
    {
      "midi": 53,
      "hit": false,
      "t": 229203.03656249846,
      "d": 2100.2231249999895,
      "v": 83
    },
    {
      "midi": 60,
      "hit": false,
      "t": 231359.56593749844,
      "d": 2100.2231249999895,
      "v": 74
    },
    {
      "midi": 57,
      "hit": false,
      "t": 231362.38124999843,
      "d": 2100.2231249999895,
      "v": 81
    },
    {
      "midi": 53,
      "hit": false,
      "t": 231365.19656249843,
      "d": 2100.2231249999895,
      "v": 89
    },
    {
      "midi": 62,
      "hit": false,
      "t": 233521.7259374984,
      "d": 2100.2231249999895,
      "v": 75
    },
    {
      "midi": 57,
      "hit": false,
      "t": 233524.5412499984,
      "d": 2100.2231249999895,
      "v": 82
    },
    {
      "midi": 53,
      "hit": false,
      "t": 233527.3565624984,
      "d": 2100.2231249999895,
      "v": 84
    },
    {
      "midi": 62,
      "hit": false,
      "t": 235683.8859374984,
      "d": 2100.2231249999895,
      "v": 73
    },
    {
      "midi": 57,
      "hit": false,
      "t": 235686.70124999838,
      "d": 2100.2231249999895,
      "v": 82
    },
    {
      "midi": 53,
      "hit": false,
      "t": 235689.51656249838,
      "d": 2100.2231249999895,
      "v": 83
    },
    {
      "midi": 60,
      "hit": false,
      "t": 237846.04593749836,
      "d": 2100.2231249999895,
      "v": 70
    },
    {
      "midi": 57,
      "hit": false,
      "t": 237848.86124999836,
      "d": 2100.2231249999895,
      "v": 81
    },
    {
      "midi": 52,
      "hit": false,
      "t": 237851.67656249835,
      "d": 2100.2231249999895,
      "v": 83
    },
    {
      "midi": 60,
      "hit": false,
      "t": 240008.20593749834,
      "d": 2100.2231249999895,
      "v": 74
    },
    {
      "midi": 57,
      "hit": false,
      "t": 240011.02124999833,
      "d": 2100.2231249999895,
      "v": 81
    },
    {
      "midi": 52,
      "hit": false,
      "t": 240013.83656249833,
      "d": 2100.2231249999895,
      "v": 82
    },
    {
      "midi": 62,
      "hit": false,
      "t": 242170.3659374983,
      "d": 2100.2231249999895,
      "v": 69
    },
    {
      "midi": 58,
      "hit": false,
      "t": 242173.1812499983,
      "d": 2100.2231249999895,
      "v": 80
    },
    {
      "midi": 53,
      "hit": false,
      "t": 242175.9965624983,
      "d": 2100.2231249999895,
      "v": 88
    },
    {
      "midi": 62,
      "hit": false,
      "t": 244332.52593749829,
      "d": 2100.2231249999895,
      "v": 69
    },
    {
      "midi": 58,
      "hit": false,
      "t": 244335.34124999828,
      "d": 2100.2231249999895,
      "v": 84
    },
    {
      "midi": 53,
      "hit": false,
      "t": 244338.15656249828,
      "d": 2100.2231249999895,
      "v": 87
    },
    {
      "midi": 60,
      "hit": false,
      "t": 246494.68593749826,
      "d": 2100.2231249999895,
      "v": 71
    },
    {
      "midi": 57,
      "hit": false,
      "t": 246497.50124999825,
      "d": 2100.2231249999895,
      "v": 83
    },
    {
      "midi": 52,
      "hit": false,
      "t": 246500.31656249825,
      "d": 2100.2231249999895,
      "v": 87
    },
    {
      "midi": 60,
      "hit": false,
      "t": 248656.84593749823,
      "d": 2100.2231249999895,
      "v": 74
    },
    {
      "midi": 57,
      "hit": false,
      "t": 248659.66124999823,
      "d": 2100.2231249999895,
      "v": 83
    },
    {
      "midi": 52,
      "hit": false,
      "t": 248662.47656249822,
      "d": 2100.2231249999895,
      "v": 82
    },
    {
      "midi": 62,
      "hit": false,
      "t": 250819.0059374982,
      "d": 2100.2231249999895,
      "v": 74
    },
    {
      "midi": 58,
      "hit": false,
      "t": 250821.8212499982,
      "d": 2100.2231249999895,
      "v": 84
    },
    {
      "midi": 53,
      "hit": false,
      "t": 250824.6365624982,
      "d": 2100.2231249999895,
      "v": 83
    },
    {
      "midi": 65,
      "hit": false,
      "t": 252981.16593749818,
      "d": 2100.2231249999895,
      "v": 70
    },
    {
      "midi": 60,
      "hit": false,
      "t": 252983.98124999818,
      "d": 2100.2231249999895,
      "v": 84
    },
    {
      "midi": 55,
      "hit": false,
      "t": 252986.79656249817,
      "d": 2100.2231249999895,
      "v": 85
    },
    {
      "midi": 48,
      "hit": false,
      "t": 255134.87999999817,
      "d": 5343.463125000038,
      "v": 73
    },
    {
      "midi": 55,
      "hit": false,
      "t": 255146.14124999818,
      "d": 5343.463125000038,
      "v": 83
    },
    {
      "midi": 60,
      "hit": false,
      "t": 255157.4024999982,
      "d": 5343.463125000038,
      "v": 86
    },
    {
      "midi": 64,
      "hit": false,
      "t": 255168.6637499982,
      "d": 5343.463125000038,
      "v": 92
    }
  ]
}