{
  "jsonPath": "Pop/Classic Italian Pop/Michele Zarrillo/lelefante-e-la-farfalla.json",
  "path": "Pop\\Classic Italian Pop\\Michele Zarrillo\\LElefante E La Farfalla.mid",
  "name": "LElefante E La Farfalla",
  "difficulty": "Advanced",
  "bpm": 80,
  "notes": [
    {
      "midi": 59,
      "hit": false,
      "t": 3287.6400000000003,
      "d": 402.3934374999999,
      "v": 61
    },
    {
      "midi": 67,
      "hit": false,
      "t": 3287.6400000000003,
      "d": 813.3484374999998,
      "v": 90
    },
    {
      "midi": 40,
      "hit": false,
      "t": 3287.6400000000003,
      "d": 3287.6399999999994,
      "v": 95
    },
    {
      "midi": 59,
      "hit": false,
      "t": 3698.5950000000003,
      "d": 1215.7418749999997,
      "v": 77
    },
    {
      "midi": 64,
      "hit": false,
      "t": 4109.55,
      "d": 813.3484374999998,
      "v": 85
    },
    {
      "midi": 67,
      "hit": false,
      "t": 4520.505,
      "d": 402.3934374999999,
      "v": 92
    },
    {
      "midi": 57,
      "hit": false,
      "t": 4931.46,
      "d": 393.83187499999985,
      "v": 47
    },
    {
      "midi": 66,
      "hit": false,
      "t": 4931.46,
      "d": 813.3484374999998,
      "v": 99
    },
    {
      "midi": 57,
      "hit": false,
      "t": 5342.415,
      "d": 1232.8649999999998,
      "v": 71
    },
    {
      "midi": 62,
      "hit": false,
      "t": 5753.37,
      "d": 813.3484374999998,
      "v": 69
    },
    {
      "midi": 66,
      "hit": false,
      "t": 6164.325,
      "d": 393.83187499999985,
      "v": 86
    },
    {
      "midi": 59,
      "hit": false,
      "t": 6575.28,
      "d": 402.3934374999999,
      "v": 61
    },
    {
      "midi": 67,
      "hit": false,
      "t": 6575.28,
      "d": 813.3484374999998,
      "v": 78
    },
    {
      "midi": 40,
      "hit": false,
      "t": 6575.28,
      "d": 3279.0784374999976,
      "v": 83
    },
    {
      "midi": 59,
      "hit": false,
      "t": 6986.235,
      "d": 1224.3034374999997,
      "v": 74
    },
    {
      "midi": 64,
      "hit": false,
      "t": 7397.19,
      "d": 813.3484374999998,
      "v": 73
    },
    {
      "midi": 67,
      "hit": false,
      "t": 7808.1449999999995,
      "d": 402.3934374999999,
      "v": 90
    },
    {
      "midi": 57,
      "hit": false,
      "t": 8219.099999999999,
      "d": 393.83187499999985,
      "v": 47
    },
    {
      "midi": 66,
      "hit": false,
      "t": 8219.099999999999,
      "d": 813.3484375000007,
      "v": 84
    },
    {
      "midi": 57,
      "hit": false,
      "t": 8630.054999999998,
      "d": 1215.7418749999997,
      "v": 69
    },
    {
      "midi": 62,
      "hit": false,
      "t": 9041.009999999998,
      "d": 796.2253125000007,
      "v": 75
    },
    {
      "midi": 66,
      "hit": false,
      "t": 9451.964999999998,
      "d": 402.393437499999,
      "v": 82
    },
    {
      "midi": 67,
      "hit": false,
      "t": 9862.919999999996,
      "d": 1215.7418749999997,
      "v": 90
    },
    {
      "midi": 40,
      "hit": false,
      "t": 9862.919999999996,
      "d": 3236.270624999999,
      "v": 86
    },
    {
      "midi": 59,
      "hit": false,
      "t": 10273.874999999996,
      "d": 2465.7299999999996,
      "v": 58
    },
    {
      "midi": 64,
      "hit": false,
      "t": 10684.829999999996,
      "d": 1215.7418749999997,
      "v": 73
    },
    {
      "midi": 67,
      "hit": false,
      "t": 11095.784999999996,
      "d": 2876.6849999999995,
      "v": 99
    },
    {
      "midi": 64,
      "hit": false,
      "t": 11917.694999999996,
      "d": 1215.7418749999997,
      "v": 72
    },
    {
      "midi": 59,
      "hit": false,
      "t": 12739.604999999996,
      "d": 393.83187499999985,
      "v": 68
    },
    {
      "midi": 48,
      "hit": false,
      "t": 13150.559999999996,
      "d": 1626.6968749999996,
      "v": 88
    },
    {
      "midi": 55,
      "hit": false,
      "t": 13150.559999999996,
      "d": 1626.6968749999996,
      "v": 63
    },
    {
      "midi": 62,
      "hit": false,
      "t": 13972.469999999996,
      "d": 1215.7418749999997,
      "v": 78
    },
    {
      "midi": 64,
      "hit": false,
      "t": 14383.424999999996,
      "d": 1215.7418749999997,
      "v": 76
    },
    {
      "midi": 48,
      "hit": false,
      "t": 14794.379999999996,
      "d": 1635.2584374999988,
      "v": 78
    },
    {
      "midi": 55,
      "hit": false,
      "t": 15205.334999999995,
      "d": 804.7868749999998,
      "v": 63
    },
    {
      "midi": 64,
      "hit": false,
      "t": 15616.289999999995,
      "d": 804.7868749999998,
      "v": 84
    },
    {
      "midi": 55,
      "hit": false,
      "t": 16027.244999999995,
      "d": 393.83187499999985,
      "v": 70
    },
    {
      "midi": 59,
      "hit": false,
      "t": 16438.199999999993,
      "d": 787.6637500000033,
      "v": 92
    },
    {
      "midi": 55,
      "hit": false,
      "t": 16438.199999999993,
      "d": 804.7868750000016,
      "v": 64
    },
    {
      "midi": 43,
      "hit": false,
      "t": 16438.199999999993,
      "d": 2876.6849999999977,
      "v": 88
    },
    {
      "midi": 50,
      "hit": false,
      "t": 16849.154999999995,
      "d": 1506.8349999999955,
      "v": 73
    },
    {
      "midi": 57,
      "hit": false,
      "t": 17260.109999999993,
      "d": 402.393437499999,
      "v": 71
    },
    {
      "midi": 55,
      "hit": false,
      "t": 17671.06499999999,
      "d": 1172.9340625000004,
      "v": 59
    },
    {
      "midi": 59,
      "hit": false,
      "t": 17671.06499999999,
      "d": 1232.8650000000016,
      "v": 97
    },
    {
      "midi": 50,
      "hit": false,
      "t": 18492.97499999999,
      "d": 804.7868750000016,
      "v": 51
    },
    {
      "midi": 62,
      "hit": false,
      "t": 18903.929999999993,
      "d": 804.786874999998,
      "v": 74
    },
    {
      "midi": 67,
      "hit": false,
      "t": 18903.929999999993,
      "d": 813.3484374999971,
      "v": 76
    },
    {
      "midi": 43,
      "hit": false,
      "t": 19314.88499999999,
      "d": 402.393437499999,
      "v": 76
    },
    {
      "midi": 59,
      "hit": false,
      "t": 19314.88499999999,
      "d": 402.393437499999,
      "v": 61
    },
    {
      "midi": 60,
      "hit": false,
      "t": 19725.83999999999,
      "d": 787.6637499999997,
      "v": 76
    },
    {
      "midi": 64,
      "hit": false,
      "t": 19725.83999999999,
      "d": 787.6637499999997,
      "v": 82
    },
    {
      "midi": 67,
      "hit": false,
      "t": 19725.83999999999,
      "d": 787.6637499999997,
      "v": 76
    },
    {
      "midi": 45,
      "hit": false,
      "t": 19725.83999999999,
      "d": 1626.6968750000015,
      "v": 101
    },
    {
      "midi": 64,
      "hit": false,
      "t": 20547.74999999999,
      "d": 804.7868750000016,
      "v": 82
    },
    {
      "midi": 67,
      "hit": false,
      "t": 20547.74999999999,
      "d": 804.7868750000016,
      "v": 72
    },
    {
      "midi": 60,
      "hit": false,
      "t": 20547.74999999999,
      "d": 813.3484375000007,
      "v": 88
    },
    {
      "midi": 59,
      "hit": false,
      "t": 21369.65999999999,
      "d": 804.7868750000016,
      "v": 78
    },
    {
      "midi": 63,
      "hit": false,
      "t": 21369.65999999999,
      "d": 804.7868750000016,
      "v": 74
    },
    {
      "midi": 66,
      "hit": false,
      "t": 21369.65999999999,
      "d": 813.3484375000007,
      "v": 70
    },
    {
      "midi": 47,
      "hit": false,
      "t": 21369.65999999999,
      "d": 1618.1353124999987,
      "v": 95
    },
    {
      "midi": 59,
      "hit": false,
      "t": 22191.56999999999,
      "d": 804.786874999998,
      "v": 90
    },
    {
      "midi": 66,
      "hit": false,
      "t": 22191.56999999999,
      "d": 804.786874999998,
      "v": 80
    },
    {
      "midi": 63,
      "hit": false,
      "t": 22191.56999999999,
      "d": 813.3484374999971,
      "v": 78
    },
    {
      "midi": 67,
      "hit": false,
      "t": 23013.479999999985,
      "d": 1215.7418750000033,
      "v": 90
    },
    {
      "midi": 40,
      "hit": false,
      "t": 23013.479999999985,
      "d": 3236.270625000001,
      "v": 86
    },
    {
      "midi": 59,
      "hit": false,
      "t": 23424.434999999987,
      "d": 2448.6068750000013,
      "v": 58
    },
    {
      "midi": 64,
      "hit": false,
      "t": 23835.38999999999,
      "d": 1224.3034374999988,
      "v": 73
    },
    {
      "midi": 67,
      "hit": false,
      "t": 24246.344999999987,
      "d": 2876.6849999999977,
      "v": 99
    },
    {
      "midi": 64,
      "hit": false,
      "t": 25068.254999999986,
      "d": 1147.2493749999994,
      "v": 72
    },
    {
      "midi": 59,
      "hit": false,
      "t": 25890.164999999986,
      "d": 402.393437499999,
      "v": 68
    },
    {
      "midi": 55,
      "hit": false,
      "t": 26301.119999999984,
      "d": 1626.6968750000015,
      "v": 63
    },
    {
      "midi": 48,
      "hit": false,
      "t": 26301.119999999984,
      "d": 1635.2584375000006,
      "v": 88
    },
    {
      "midi": 62,
      "hit": false,
      "t": 27123.029999999984,
      "d": 1224.3034374999988,
      "v": 78
    },
    {
      "midi": 64,
      "hit": false,
      "t": 27533.984999999986,
      "d": 1215.741874999996,
      "v": 76
    },
    {
      "midi": 48,
      "hit": false,
      "t": 27944.939999999984,
      "d": 1635.2584374999933,
      "v": 78
    },
    {
      "midi": 55,
      "hit": false,
      "t": 28355.894999999982,
      "d": 804.786874999998,
      "v": 63
    },
    {
      "midi": 64,
      "hit": false,
      "t": 28766.84999999998,
      "d": 813.3484374999971,
      "v": 84
    },
    {
      "midi": 55,
      "hit": false,
      "t": 29177.80499999998,
      "d": 402.393437499999,
      "v": 70
    },
    {
      "midi": 59,
      "hit": false,
      "t": 29588.759999999977,
      "d": 787.6637500000033,
      "v": 92
    },
    {
      "midi": 55,
      "hit": false,
      "t": 29588.759999999977,
      "d": 804.7868750000016,
      "v": 64
    },
    {
      "midi": 43,
      "hit": false,
      "t": 29588.759999999977,
      "d": 2876.6849999999977,
      "v": 88
    },
    {
      "midi": 50,
      "hit": false,
      "t": 29999.71499999998,
      "d": 1506.8349999999955,
      "v": 73
    },
    {
      "midi": 64,
      "hit": false,
      "t": 30410.669999999976,
      "d": 393.83187499999985,
      "v": 62
    },
    {
      "midi": 55,
      "hit": false,
      "t": 30821.624999999975,
      "d": 1172.9340625000004,
      "v": 59
    },
    {
      "midi": 62,
      "hit": false,
      "t": 30821.624999999975,
      "d": 1232.8650000000016,
      "v": 97
    },
    {
      "midi": 50,
      "hit": false,
      "t": 31643.534999999974,
      "d": 813.3484375000007,
      "v": 51
    },
    {
      "midi": 62,
      "hit": false,
      "t": 32054.489999999976,
      "d": 804.786874999998,
      "v": 74
    },
    {
      "midi": 67,
      "hit": false,
      "t": 32054.489999999976,
      "d": 804.786874999998,
      "v": 76
    },
    {
      "midi": 43,
      "hit": false,
      "t": 32465.444999999974,
      "d": 393.83187499999985,
      "v": 76
    },
    {
      "midi": 59,
      "hit": false,
      "t": 32465.444999999974,
      "d": 393.83187499999985,
      "v": 61
    },
    {
      "midi": 60,
      "hit": false,
      "t": 32876.39999999997,
      "d": 787.6637499999997,
      "v": 76
    },
    {
      "midi": 64,
      "hit": false,
      "t": 32876.39999999997,
      "d": 787.6637499999997,
      "v": 82
    },
    {
      "midi": 67,
      "hit": false,
      "t": 32876.39999999997,
      "d": 787.6637499999997,
      "v": 76
    },
    {
      "midi": 45,
      "hit": false,
      "t": 32876.39999999997,
      "d": 1635.2584374999933,
      "v": 101
    },
    {
      "midi": 60,
      "hit": false,
      "t": 33698.30999999997,
      "d": 804.786874999998,
      "v": 88
    },
    {
      "midi": 64,
      "hit": false,
      "t": 33698.30999999997,
      "d": 804.786874999998,
      "v": 82
    },
    {
      "midi": 67,
      "hit": false,
      "t": 33698.30999999997,
      "d": 813.3484374999971,
      "v": 72
    },
    {
      "midi": 59,
      "hit": false,
      "t": 34520.219999999965,
      "d": 804.786874999998,
      "v": 78
    },
    {
      "midi": 63,
      "hit": false,
      "t": 34520.219999999965,
      "d": 804.786874999998,
      "v": 74
    },
    {
      "midi": 66,
      "hit": false,
      "t": 34520.219999999965,
      "d": 804.786874999998,
      "v": 70
    },
    {
      "midi": 47,
      "hit": false,
      "t": 34520.219999999965,
      "d": 1618.135312499995,
      "v": 95
    },
    {
      "midi": 59,
      "hit": false,
      "t": 35342.12999999996,
      "d": 804.786874999998,
      "v": 90
    },
    {
      "midi": 63,
      "hit": false,
      "t": 35342.12999999996,
      "d": 804.786874999998,
      "v": 78
    },
    {
      "midi": 66,
      "hit": false,
      "t": 35342.12999999996,
      "d": 804.786874999998,
      "v": 80
    },
    {
      "midi": 59,
      "hit": false,
      "t": 36164.03999999996,
      "d": 804.786874999998,
      "v": 59
    },
    {
      "midi": 64,
      "hit": false,
      "t": 36164.03999999996,
      "d": 804.786874999998,
      "v": 60
    },
    {
      "midi": 67,
      "hit": false,
      "t": 36164.03999999996,
      "d": 804.786874999998,
      "v": 56
    },
    {
      "midi": 59,
      "hit": false,
      "t": 36985.94999999995,
      "d": 804.786874999998,
      "v": 53
    },
    {
      "midi": 64,
      "hit": false,
      "t": 36985.94999999995,
      "d": 804.786874999998,
      "v": 56
    },
    {
      "midi": 67,
      "hit": false,
      "t": 36985.94999999995,
      "d": 804.786874999998,
      "v": 52
    },
    {
      "midi": 57,
      "hit": false,
      "t": 37807.85999999995,
      "d": 804.786874999998,
      "v": 60
    },
    {
      "midi": 62,
      "hit": false,
      "t": 37807.85999999995,
      "d": 804.786874999998,
      "v": 67
    },
    {
      "midi": 66,
      "hit": false,
      "t": 37807.85999999995,
      "d": 804.786874999998,
      "v": 55
    },
    {
      "midi": 42,
      "hit": false,
      "t": 37807.85999999995,
      "d": 1635.2584374999933,
      "v": 82
    },
    {
      "midi": 57,
      "hit": false,
      "t": 38629.769999999946,
      "d": 804.786874999998,
      "v": 60
    },
    {
      "midi": 62,
      "hit": false,
      "t": 38629.769999999946,
      "d": 804.786874999998,
      "v": 55
    },
    {
      "midi": 66,
      "hit": false,
      "t": 38629.769999999946,
      "d": 813.3484374999971,
      "v": 49
    },
    {
      "midi": 62,
      "hit": false,
      "t": 39451.67999999994,
      "d": 804.786874999998,
      "v": 63
    },
    {
      "midi": 67,
      "hit": false,
      "t": 39451.67999999994,
      "d": 804.786874999998,
      "v": 47
    },
    {
      "midi": 59,
      "hit": false,
      "t": 39451.67999999994,
      "d": 813.3484374999971,
      "v": 58
    },
    {
      "midi": 43,
      "hit": false,
      "t": 39451.67999999994,
      "d": 1635.2584374999933,
      "v": 88
    },
    {
      "midi": 59,
      "hit": false,
      "t": 40273.58999999994,
      "d": 804.786874999998,
      "v": 53
    },
    {
      "midi": 62,
      "hit": false,
      "t": 40273.58999999994,
      "d": 804.786874999998,
      "v": 58
    },
    {
      "midi": 67,
      "hit": false,
      "t": 40273.58999999994,
      "d": 804.786874999998,
      "v": 44
    },
    {
      "midi": 60,
      "hit": false,
      "t": 41095.499999999935,
      "d": 804.786874999998,
      "v": 59
    },
    {
      "midi": 64,
      "hit": false,
      "t": 41095.499999999935,
      "d": 804.786874999998,
      "v": 49
    },
    {
      "midi": 67,
      "hit": false,
      "t": 41095.499999999935,
      "d": 804.786874999998,
      "v": 42
    },
    {
      "midi": 48,
      "hit": false,
      "t": 41095.499999999935,
      "d": 1635.2584374999933,
      "v": 72
    },
    {
      "midi": 60,
      "hit": false,
      "t": 41917.40999999993,
      "d": 804.786874999998,
      "v": 55
    },
    {
      "midi": 67,
      "hit": false,
      "t": 41917.40999999993,
      "d": 804.786874999998,
      "v": 46
    },
    {
      "midi": 64,
      "hit": false,
      "t": 41917.40999999993,
      "d": 813.3484374999971,
      "v": 50
    },
    {
      "midi": 60,
      "hit": false,
      "t": 42739.31999999993,
      "d": 804.786874999998,
      "v": 59
    },
    {
      "midi": 64,
      "hit": false,
      "t": 42739.31999999993,
      "d": 804.786874999998,
      "v": 58
    },
    {
      "midi": 55,
      "hit": false,
      "t": 42739.31999999993,
      "d": 813.3484374999971,
      "v": 47
    },
    {
      "midi": 45,
      "hit": false,
      "t": 42739.31999999993,
      "d": 1626.6968749999942,
      "v": 91
    },
    {
      "midi": 55,
      "hit": false,
      "t": 43561.22999999992,
      "d": 804.786874999998,
      "v": 45
    },
    {
      "midi": 60,
      "hit": false,
      "t": 43561.22999999992,
      "d": 813.3484374999971,
      "v": 68
    },
    {
      "midi": 64,
      "hit": false,
      "t": 43561.22999999992,
      "d": 813.3484374999971,
      "v": 55
    },
    {
      "midi": 60,
      "hit": false,
      "t": 44383.13999999992,
      "d": 804.786874999998,
      "v": 66
    },
    {
      "midi": 64,
      "hit": false,
      "t": 44383.13999999992,
      "d": 804.786874999998,
      "v": 55
    },
    {
      "midi": 55,
      "hit": false,
      "t": 44383.13999999992,
      "d": 813.3484374999971,
      "v": 49
    },
    {
      "midi": 43,
      "hit": false,
      "t": 44383.13999999992,
      "d": 1635.2584374999933,
      "v": 93
    },
    {
      "midi": 58,
      "hit": false,
      "t": 45205.049999999916,
      "d": 804.786874999998,
      "v": 55
    },
    {
      "midi": 64,
      "hit": false,
      "t": 45205.049999999916,
      "d": 804.786874999998,
      "v": 70
    },
    {
      "midi": 61,
      "hit": false,
      "t": 45205.049999999916,
      "d": 813.3484374999971,
      "v": 66
    },
    {
      "midi": 66,
      "hit": false,
      "t": 46026.95999999991,
      "d": 804.786874999998,
      "v": 61
    },
    {
      "midi": 59,
      "hit": false,
      "t": 46026.95999999991,
      "d": 813.3484374999971,
      "v": 65
    },
    {
      "midi": 64,
      "hit": false,
      "t": 46026.95999999991,
      "d": 813.3484374999971,
      "v": 56
    },
    {
      "midi": 47,
      "hit": false,
      "t": 46026.95999999991,
      "d": 3219.147499999992,
      "v": 88
    },
    {
      "midi": 64,
      "hit": false,
      "t": 46848.86999999991,
      "d": 804.786874999998,
      "v": 66
    },
    {
      "midi": 66,
      "hit": false,
      "t": 46848.86999999991,
      "d": 2440.0453124999985,
      "v": 66
    },
    {
      "midi": 59,
      "hit": false,
      "t": 46848.86999999991,
      "d": 2465.729999999996,
      "v": 65
    },
    {
      "midi": 63,
      "hit": false,
      "t": 47670.779999999904,
      "d": 1618.1353125000023,
      "v": 84
    },
    {
      "midi": 67,
      "hit": false,
      "t": 49314.599999999904,
      "d": 719.1712499999994,
      "v": 73
    },
    {
      "midi": 59,
      "hit": false,
      "t": 49314.599999999904,
      "d": 770.5406250000015,
      "v": 73
    },
    {
      "midi": 64,
      "hit": false,
      "t": 49314.599999999904,
      "d": 770.5406250000015,
      "v": 76
    },
    {
      "midi": 59,
      "hit": false,
      "t": 50136.50999999991,
      "d": 1181.4956250000032,
      "v": 69
    },
    {
      "midi": 64,
      "hit": false,
      "t": 50136.50999999991,
      "d": 1592.450625000005,
      "v": 80
    },
    {
      "midi": 67,
      "hit": false,
      "t": 50136.50999999991,
      "d": 1592.450625000005,
      "v": 76
    },
    {
      "midi": 59,
      "hit": false,
      "t": 51369.37499999991,
      "d": 1130.1262500000012,
      "v": 72
    },
    {
      "midi": 67,
      "hit": false,
      "t": 51780.329999999914,
      "d": 719.1712499999994,
      "v": 74
    },
    {
      "midi": 64,
      "hit": false,
      "t": 51780.329999999914,
      "d": 770.5406250000015,
      "v": 76
    },
    {
      "midi": 60,
      "hit": false,
      "t": 52602.23999999992,
      "d": 770.5406250000015,
      "v": 71
    },
    {
      "midi": 64,
      "hit": false,
      "t": 52602.23999999992,
      "d": 770.5406250000015,
      "v": 80
    },
    {
      "midi": 67,
      "hit": false,
      "t": 52602.23999999992,
      "d": 770.5406250000015,
      "v": 71
    },
    {
      "midi": 60,
      "hit": false,
      "t": 53424.14999999992,
      "d": 1130.1262500000012,
      "v": 68
    },
    {
      "midi": 64,
      "hit": false,
      "t": 53424.14999999992,
      "d": 1592.4506249999977,
      "v": 82
    },
    {
      "midi": 67,
      "hit": false,
      "t": 53424.14999999992,
      "d": 1592.4506249999977,
      "v": 67
    },
    {
      "midi": 60,
      "hit": false,
      "t": 54657.01499999992,
      "d": 1130.1262500000012,
      "v": 68
    },
    {
      "midi": 67,
      "hit": false,
      "t": 55067.96999999992,
      "d": 667.8018749999974,
      "v": 73
    },
    {
      "midi": 64,
      "hit": false,
      "t": 55067.96999999992,
      "d": 770.5406250000015,
      "v": 76
    },
    {
      "midi": 59,
      "hit": false,
      "t": 55889.879999999925,
      "d": 719.1712499999994,
      "v": 74
    },
    {
      "midi": 67,
      "hit": false,
      "t": 55889.879999999925,
      "d": 719.1712499999994,
      "v": 68
    },
    {
      "midi": 62,
      "hit": false,
      "t": 55889.879999999925,
      "d": 770.5406250000015,
      "v": 84
    },
    {
      "midi": 59,
      "hit": false,
      "t": 56711.78999999993,
      "d": 1181.4956250000032,
      "v": 74
    },
    {
      "midi": 62,
      "hit": false,
      "t": 56711.78999999993,
      "d": 1541.081250000003,
      "v": 78
    },
    {
      "midi": 67,
      "hit": false,
      "t": 56711.78999999993,
      "d": 1541.081250000003,
      "v": 69
    },
    {
      "midi": 59,
      "hit": false,
      "t": 57944.65499999993,
      "d": 1224.3034374999988,
      "v": 65
    },
    {
      "midi": 62,
      "hit": false,
      "t": 58355.60999999993,
      "d": 719.1712499999994,
      "v": 73
    },
    {
      "midi": 67,
      "hit": false,
      "t": 58355.60999999993,
      "d": 770.5406250000015,
      "v": 70
    },
    {
      "midi": 60,
      "hit": false,
      "t": 59177.51999999993,
      "d": 770.5406250000015,
      "v": 73
    },
    {
      "midi": 64,
      "hit": false,
      "t": 59177.51999999993,
      "d": 770.5406250000015,
      "v": 76
    },
    {
      "midi": 67,
      "hit": false,
      "t": 59177.51999999993,
      "d": 770.5406250000015,
      "v": 76
    },
    {
      "midi": 67,
      "hit": false,
      "t": 59999.429999999935,
      "d": 719.1712499999994,
      "v": 70
    },
    {
      "midi": 64,
      "hit": false,
      "t": 59999.429999999935,
      "d": 770.5406250000015,
      "v": 80
    },
    {
      "midi": 60,
      "hit": false,
      "t": 59999.429999999935,
      "d": 813.3484375000044,
      "v": 78
    },
    {
      "midi": 63,
      "hit": false,
      "t": 60821.33999999994,
      "d": 1618.1353125000023,
      "v": 78
    },
    {
      "midi": 66,
      "hit": false,
      "t": 60821.33999999994,
      "d": 1626.6968750000015,
      "v": 73
    },
    {
      "midi": 59,
      "hit": false,
      "t": 61232.29499999994,
      "d": 402.3934375000026,
      "v": 53
    },
    {
      "midi": 71,
      "hit": false,
      "t": 61643.24999999994,
      "d": 787.6637499999997,
      "v": 73
    },
    {
      "midi": 59,
      "hit": false,
      "t": 62465.15999999994,
      "d": 770.5406250000015,
      "v": 73
    },
    {
      "midi": 64,
      "hit": false,
      "t": 62465.15999999994,
      "d": 770.5406250000015,
      "v": 76
    },
    {
      "midi": 67,
      "hit": false,
      "t": 62465.15999999994,
      "d": 770.5406250000015,
      "v": 73
    },
    {
      "midi": 59,
      "hit": false,
      "t": 63287.06999999994,
      "d": 1130.1262500000012,
      "v": 69
    },
    {
      "midi": 64,
      "hit": false,
      "t": 63287.06999999994,
      "d": 1592.4506249999977,
      "v": 80
    },
    {
      "midi": 67,
      "hit": false,
      "t": 63287.06999999994,
      "d": 1592.4506249999977,
      "v": 76
    },
    {
      "midi": 59,
      "hit": false,
      "t": 64519.93499999994,
      "d": 1130.1262500000012,
      "v": 72
    },
    {
      "midi": 64,
      "hit": false,
      "t": 64930.88999999994,
      "d": 770.5406249999942,
      "v": 76
    },
    {
      "midi": 67,
      "hit": false,
      "t": 64930.88999999994,
      "d": 770.5406249999942,
      "v": 74
    },
    {
      "midi": 64,
      "hit": false,
      "t": 65752.79999999993,
      "d": 770.5406249999942,
      "v": 80
    },
    {
      "midi": 67,
      "hit": false,
      "t": 65752.79999999993,
      "d": 770.5406249999942,
      "v": 71
    },
    {
      "midi": 60,
      "hit": false,
      "t": 65752.79999999993,
      "d": 813.3484374999971,
      "v": 71
    },
    {
      "midi": 60,
      "hit": false,
      "t": 66574.70999999993,
      "d": 1181.495624999996,
      "v": 68
    },
    {
      "midi": 64,
      "hit": false,
      "t": 66574.70999999993,
      "d": 1592.4506249999977,
      "v": 82
    },
    {
      "midi": 67,
      "hit": false,
      "t": 66574.70999999993,
      "d": 1592.4506249999977,
      "v": 67
    },
    {
      "midi": 60,
      "hit": false,
      "t": 67807.57499999992,
      "d": 1181.495624999996,
      "v": 68
    },
    {
      "midi": 64,
      "hit": false,
      "t": 68218.52999999993,
      "d": 770.5406249999942,
      "v": 76
    },
    {
      "midi": 67,
      "hit": false,
      "t": 68218.52999999993,
      "d": 770.5406249999942,
      "v": 73
    },
    {
      "midi": 59,
      "hit": false,
      "t": 69040.43999999992,
      "d": 770.5406249999942,
      "v": 74
    },
    {
      "midi": 62,
      "hit": false,
      "t": 69040.43999999992,
      "d": 770.5406249999942,
      "v": 84
    },
    {
      "midi": 67,
      "hit": false,
      "t": 69040.43999999992,
      "d": 770.5406249999942,
      "v": 68
    },
    {
      "midi": 59,
      "hit": false,
      "t": 69862.3499999999,
      "d": 1130.1262500000012,
      "v": 74
    },
    {
      "midi": 62,
      "hit": false,
      "t": 69862.3499999999,
      "d": 1592.4506250000122,
      "v": 78
    },
    {
      "midi": 67,
      "hit": false,
      "t": 69862.3499999999,
      "d": 1592.4506250000122,
      "v": 69
    },
    {
      "midi": 59,
      "hit": false,
      "t": 71095.21499999991,
      "d": 1215.7418749999924,
      "v": 65
    },
    {
      "midi": 67,
      "hit": false,
      "t": 71506.16999999991,
      "d": 770.5406249999942,
      "v": 70
    },
    {
      "midi": 62,
      "hit": false,
      "t": 71506.16999999991,
      "d": 804.7868749999907,
      "v": 73
    },
    {
      "midi": 60,
      "hit": false,
      "t": 72328.0799999999,
      "d": 770.5406249999942,
      "v": 73
    },
    {
      "midi": 64,
      "hit": false,
      "t": 72328.0799999999,
      "d": 770.5406249999942,
      "v": 76
    },
    {
      "midi": 67,
      "hit": false,
      "t": 72328.0799999999,
      "d": 770.5406249999942,
      "v": 76
    },
    {
      "midi": 60,
      "hit": false,
      "t": 73149.98999999989,
      "d": 719.1712499999994,
      "v": 78
    },
    {
      "midi": 64,
      "hit": false,
      "t": 73149.98999999989,
      "d": 770.5406249999942,
      "v": 80
    },
    {
      "midi": 67,
      "hit": false,
      "t": 73149.98999999989,
      "d": 770.5406249999942,
      "v": 70
    },
    {
      "midi": 63,
      "hit": false,
      "t": 73971.89999999988,
      "d": 736.2943749999977,
      "v": 67
    },
    {
      "midi": 59,
      "hit": false,
      "t": 73971.89999999988,
      "d": 770.5406249999942,
      "v": 65
    },
    {
      "midi": 69,
      "hit": false,
      "t": 73971.89999999988,
      "d": 770.5406249999942,
      "v": 58
    },
    {
      "midi": 59,
      "hit": false,
      "t": 74793.80999999987,
      "d": 753.4174999999959,
      "v": 63
    },
    {
      "midi": 63,
      "hit": false,
      "t": 74793.80999999987,
      "d": 761.9790625000023,
      "v": 74
    },
    {
      "midi": 69,
      "hit": false,
      "t": 74793.80999999987,
      "d": 787.663750000007,
      "v": 65
    },
    {
      "midi": 59,
      "hit": false,
      "t": 75615.71999999987,
      "d": 804.7868750000052,
      "v": 70
    },
    {
      "midi": 67,
      "hit": false,
      "t": 75615.71999999987,
      "d": 804.7868750000052,
      "v": 67
    },
    {
      "midi": 64,
      "hit": false,
      "t": 75615.71999999987,
      "d": 813.3484375000116,
      "v": 71
    },
    {
      "midi": 59,
      "hit": false,
      "t": 76437.62999999989,
      "d": 804.7868750000052,
      "v": 64
    },
    {
      "midi": 67,
      "hit": false,
      "t": 76437.62999999989,
      "d": 804.7868750000052,
      "v": 63
    },
    {
      "midi": 64,
      "hit": false,
      "t": 76437.62999999989,
      "d": 813.3484375000116,
      "v": 67
    },
    {
      "midi": 57,
      "hit": false,
      "t": 77259.5399999999,
      "d": 804.7868750000052,
      "v": 71
    },
    {
      "midi": 62,
      "hit": false,
      "t": 77259.5399999999,
      "d": 804.7868750000052,
      "v": 78
    },
    {
      "midi": 66,
      "hit": false,
      "t": 77259.5399999999,
      "d": 804.7868750000052,
      "v": 66
    },
    {
      "midi": 57,
      "hit": false,
      "t": 78081.44999999991,
      "d": 804.7868750000052,
      "v": 71
    },
    {
      "midi": 62,
      "hit": false,
      "t": 78081.44999999991,
      "d": 804.7868750000052,
      "v": 66
    },
    {
      "midi": 66,
      "hit": false,
      "t": 78081.44999999991,
      "d": 804.7868750000052,
      "v": 60
    },
    {
      "midi": 59,
      "hit": false,
      "t": 78903.35999999991,
      "d": 804.7868750000052,
      "v": 69
    },
    {
      "midi": 62,
      "hit": false,
      "t": 78903.35999999991,
      "d": 804.7868750000052,
      "v": 74
    },
    {
      "midi": 67,
      "hit": false,
      "t": 78903.35999999991,
      "d": 804.7868750000052,
      "v": 58
    },
    {
      "midi": 59,
      "hit": false,
      "t": 79725.26999999992,
      "d": 804.7868750000052,
      "v": 64
    },
    {
      "midi": 67,
      "hit": false,
      "t": 79725.26999999992,
      "d": 804.7868750000052,
      "v": 55
    },
    {
      "midi": 62,
      "hit": false,
      "t": 79725.26999999992,
      "d": 813.3484375000116,
      "v": 69
    },
    {
      "midi": 60,
      "hit": false,
      "t": 80547.17999999993,
      "d": 804.7868750000052,
      "v": 70
    },
    {
      "midi": 64,
      "hit": false,
      "t": 80547.17999999993,
      "d": 804.7868750000052,
      "v": 60
    },
    {
      "midi": 67,
      "hit": false,
      "t": 80547.17999999993,
      "d": 804.7868750000052,
      "v": 53
    },
    {
      "midi": 67,
      "hit": false,
      "t": 81369.08999999994,
      "d": 796.2253124999988,
      "v": 57
    },
    {
      "midi": 60,
      "hit": false,
      "t": 81369.08999999994,
      "d": 804.7868750000052,
      "v": 66
    },
    {
      "midi": 64,
      "hit": false,
      "t": 81369.08999999994,
      "d": 804.7868750000052,
      "v": 61
    },
    {
      "midi": 55,
      "hit": false,
      "t": 82190.99999999994,
      "d": 804.7868750000052,
      "v": 58
    },
    {
      "midi": 60,
      "hit": false,
      "t": 82190.99999999994,
      "d": 804.7868750000052,
      "v": 70
    },
    {
      "midi": 64,
      "hit": false,
      "t": 82190.99999999994,
      "d": 813.3484375000116,
      "v": 69
    },
    {
      "midi": 60,
      "hit": false,
      "t": 83012.90999999996,
      "d": 796.2253124999988,
      "v": 79
    },
    {
      "midi": 55,
      "hit": false,
      "t": 83012.90999999996,
      "d": 804.7868750000052,
      "v": 56
    },
    {
      "midi": 64,
      "hit": false,
      "t": 83012.90999999996,
      "d": 804.7868750000052,
      "v": 66
    },
    {
      "midi": 55,
      "hit": false,
      "t": 83834.81999999996,
      "d": 804.7868750000052,
      "v": 60
    },
    {
      "midi": 60,
      "hit": false,
      "t": 83834.81999999996,
      "d": 804.7868750000052,
      "v": 77
    },
    {
      "midi": 64,
      "hit": false,
      "t": 83834.81999999996,
      "d": 804.7868750000052,
      "v": 66
    },
    {
      "midi": 58,
      "hit": false,
      "t": 84656.72999999997,
      "d": 804.7868750000052,
      "v": 66
    },
    {
      "midi": 64,
      "hit": false,
      "t": 84656.72999999997,
      "d": 804.7868750000052,
      "v": 81
    },
    {
      "midi": 61,
      "hit": false,
      "t": 84656.72999999997,
      "d": 813.3484375000116,
      "v": 77
    },
    {
      "midi": 59,
      "hit": false,
      "t": 85478.63999999998,
      "d": 804.7868750000052,
      "v": 76
    },
    {
      "midi": 64,
      "hit": false,
      "t": 85478.63999999998,
      "d": 804.7868750000052,
      "v": 67
    },
    {
      "midi": 66,
      "hit": false,
      "t": 85478.63999999998,
      "d": 804.7868750000052,
      "v": 72
    },
    {
      "midi": 64,
      "hit": false,
      "t": 86300.54999999999,
      "d": 804.7868750000052,
      "v": 77
    },
    {
      "midi": 66,
      "hit": false,
      "t": 86300.54999999999,
      "d": 2440.045312500006,
      "v": 77
    },
    {
      "midi": 59,
      "hit": false,
      "t": 86300.54999999999,
      "d": 2448.606875000012,
      "v": 76
    },
    {
      "midi": 63,
      "hit": false,
      "t": 87122.45999999999,
      "d": 1618.1353125000023,
      "v": 95
    },
    {
      "midi": 59,
      "hit": false,
      "t": 88766.28,
      "d": 804.7868750000052,
      "v": 77
    },
    {
      "midi": 64,
      "hit": false,
      "t": 88766.28,
      "d": 804.7868750000052,
      "v": 78
    },
    {
      "midi": 67,
      "hit": false,
      "t": 88766.28,
      "d": 804.7868750000052,
      "v": 74
    },
    {
      "midi": 59,
      "hit": false,
      "t": 89588.19,
      "d": 804.7868750000052,
      "v": 71
    },
    {
      "midi": 64,
      "hit": false,
      "t": 89588.19,
      "d": 813.3484375000116,
      "v": 74
    },
    {
      "midi": 67,
      "hit": false,
      "t": 89588.19,
      "d": 813.3484375000116,
      "v": 70
    },
    {
      "midi": 57,
      "hit": false,
      "t": 90410.10000000002,
      "d": 813.3484374999971,
      "v": 78
    },
    {
      "midi": 62,
      "hit": false,
      "t": 90410.10000000002,
      "d": 813.3484374999971,
      "v": 85
    },
    {
      "midi": 66,
      "hit": false,
      "t": 90410.10000000002,
      "d": 813.3484374999971,
      "v": 73
    },
    {
      "midi": 62,
      "hit": false,
      "t": 91232.01000000002,
      "d": 804.7868750000052,
      "v": 73
    },
    {
      "midi": 66,
      "hit": false,
      "t": 91232.01000000002,
      "d": 804.7868750000052,
      "v": 67
    },
    {
      "midi": 57,
      "hit": false,
      "t": 91232.01000000002,
      "d": 813.3484375000116,
      "v": 78
    },
    {
      "midi": 62,
      "hit": false,
      "t": 92053.92000000004,
      "d": 804.7868750000052,
      "v": 81
    },
    {
      "midi": 67,
      "hit": false,
      "t": 92053.92000000004,
      "d": 804.7868750000052,
      "v": 65
    },
    {
      "midi": 59,
      "hit": false,
      "t": 92053.92000000004,
      "d": 813.3484375000116,
      "v": 76
    },
    {
      "midi": 67,
      "hit": false,
      "t": 92875.83000000006,
      "d": 804.7868750000052,
      "v": 62
    },
    {
      "midi": 59,
      "hit": false,
      "t": 92875.83000000006,
      "d": 813.3484375000116,
      "v": 71
    },
    {
      "midi": 62,
      "hit": false,
      "t": 92875.83000000006,
      "d": 813.3484375000116,
      "v": 76
    },
    {
      "midi": 60,
      "hit": false,
      "t": 93697.74000000008,
      "d": 804.7868750000052,
      "v": 77
    },
    {
      "midi": 64,
      "hit": false,
      "t": 93697.74000000008,
      "d": 804.7868750000052,
      "v": 67
    },
    {
      "midi": 67,
      "hit": false,
      "t": 93697.74000000008,
      "d": 804.7868750000052,
      "v": 60
    },
    {
      "midi": 64,
      "hit": false,
      "t": 94519.65000000008,
      "d": 804.7868750000052,
      "v": 68
    },
    {
      "midi": 60,
      "hit": false,
      "t": 94519.65000000008,
      "d": 813.3484375000116,
      "v": 73
    },
    {
      "midi": 67,
      "hit": false,
      "t": 94519.65000000008,
      "d": 813.3484375000116,
      "v": 64
    },
    {
      "midi": 60,
      "hit": false,
      "t": 95341.5600000001,
      "d": 804.7868750000052,
      "v": 77
    },
    {
      "midi": 64,
      "hit": false,
      "t": 95341.5600000001,
      "d": 804.7868750000052,
      "v": 76
    },
    {
      "midi": 55,
      "hit": false,
      "t": 95341.5600000001,
      "d": 813.3484375000116,
      "v": 65
    },
    {
      "midi": 55,
      "hit": false,
      "t": 96163.47000000012,
      "d": 804.7868750000052,
      "v": 63
    },
    {
      "midi": 60,
      "hit": false,
      "t": 96163.47000000012,
      "d": 813.3484375000116,
      "v": 86
    },
    {
      "midi": 64,
      "hit": false,
      "t": 96163.47000000012,
      "d": 813.3484375000116,
      "v": 73
    },
    {
      "midi": 55,
      "hit": false,
      "t": 96985.38000000014,
      "d": 804.7868750000052,
      "v": 67
    },
    {
      "midi": 64,
      "hit": false,
      "t": 96985.38000000014,
      "d": 804.7868750000052,
      "v": 73
    },
    {
      "midi": 60,
      "hit": false,
      "t": 96985.38000000014,
      "d": 813.3484375000116,
      "v": 84
    },
    {
      "midi": 58,
      "hit": false,
      "t": 97807.29000000015,
      "d": 813.3484374999971,
      "v": 73
    },
    {
      "midi": 61,
      "hit": false,
      "t": 97807.29000000015,
      "d": 813.3484374999971,
      "v": 84
    },
    {
      "midi": 64,
      "hit": false,
      "t": 97807.29000000015,
      "d": 813.3484374999971,
      "v": 88
    },
    {
      "midi": 59,
      "hit": false,
      "t": 98629.20000000016,
      "d": 813.3484374999971,
      "v": 83
    },
    {
      "midi": 64,
      "hit": false,
      "t": 98629.20000000016,
      "d": 813.3484374999971,
      "v": 74
    },
    {
      "midi": 66,
      "hit": false,
      "t": 98629.20000000016,
      "d": 813.3484374999971,
      "v": 79
    },
    {
      "midi": 64,
      "hit": false,
      "t": 99451.11000000016,
      "d": 804.7868750000052,
      "v": 84
    },
    {
      "midi": 66,
      "hit": false,
      "t": 99451.11000000016,
      "d": 2440.045312500006,
      "v": 84
    },
    {
      "midi": 59,
      "hit": false,
      "t": 99451.11000000016,
      "d": 2448.606875000012,
      "v": 83
    },
    {
      "midi": 63,
      "hit": false,
      "t": 100273.02000000016,
      "d": 1618.1353125000023,
      "v": 102
    },
    {
      "midi": 59,
      "hit": false,
      "t": 101916.84000000017,
      "d": 804.7868750000052,
      "v": 59
    },
    {
      "midi": 64,
      "hit": false,
      "t": 101916.84000000017,
      "d": 804.7868750000052,
      "v": 60
    },
    {
      "midi": 67,
      "hit": false,
      "t": 101916.84000000017,
      "d": 804.7868750000052,
      "v": 56
    },
    {
      "midi": 40,
      "hit": false,
      "t": 101916.84000000017,
      "d": 1635.2584375000151,
      "v": 82
    },
    {
      "midi": 59,
      "hit": false,
      "t": 102738.75000000017,
      "d": 804.7868750000052,
      "v": 53
    },
    {
      "midi": 64,
      "hit": false,
      "t": 102738.75000000017,
      "d": 813.3484375000116,
      "v": 56
    },
    {
      "midi": 67,
      "hit": false,
      "t": 102738.75000000017,
      "d": 813.3484375000116,
      "v": 52
    },
    {
      "midi": 57,
      "hit": false,
      "t": 103560.66000000019,
      "d": 813.3484374999971,
      "v": 60
    },
    {
      "midi": 62,
      "hit": false,
      "t": 103560.66000000019,
      "d": 813.3484374999971,
      "v": 67
    },
    {
      "midi": 66,
      "hit": false,
      "t": 103560.66000000019,
      "d": 813.3484374999971,
      "v": 55
    },
    {
      "midi": 42,
      "hit": false,
      "t": 103560.66000000019,
      "d": 1635.2584375000151,
      "v": 82
    },
    {
      "midi": 57,
      "hit": false,
      "t": 104382.5700000002,
      "d": 804.7868750000052,
      "v": 60
    },
    {
      "midi": 62,
      "hit": false,
      "t": 104382.5700000002,
      "d": 804.7868750000052,
      "v": 55
    },
    {
      "midi": 66,
      "hit": false,
      "t": 104382.5700000002,
      "d": 813.3484375000116,
      "v": 49
    },
    {
      "midi": 59,
      "hit": false,
      "t": 105204.48000000021,
      "d": 813.3484374999971,
      "v": 58
    },
    {
      "midi": 62,
      "hit": false,
      "t": 105204.48000000021,
      "d": 813.3484374999971,
      "v": 63
    },
    {
      "midi": 67,
      "hit": false,
      "t": 105204.48000000021,
      "d": 813.3484374999971,
      "v": 47
    },
    {
      "midi": 47,
      "hit": false,
      "t": 105204.48000000021,
      "d": 1215.741875000007,
      "v": 88
    },
    {
      "midi": 59,
      "hit": false,
      "t": 106026.39000000022,
      "d": 393.8318750000035,
      "v": 53
    },
    {
      "midi": 62,
      "hit": false,
      "t": 106026.39000000022,
      "d": 393.8318750000035,
      "v": 58
    },
    {
      "midi": 67,
      "hit": false,
      "t": 106026.39000000022,
      "d": 402.3934375000099,
      "v": 44
    },
    {
      "midi": 60,
      "hit": false,
      "t": 106437.34500000023,
      "d": 1232.8650000000052,
      "v": 59
    },
    {
      "midi": 64,
      "hit": false,
      "t": 106437.34500000023,
      "d": 1232.8650000000052,
      "v": 49
    },
    {
      "midi": 67,
      "hit": false,
      "t": 106437.34500000023,
      "d": 1232.8650000000052,
      "v": 42
    },
    {
      "midi": 48,
      "hit": false,
      "t": 106437.34500000023,
      "d": 2054.7750000000233,
      "v": 72
    },
    {
      "midi": 64,
      "hit": false,
      "t": 107670.21000000024,
      "d": 804.7868750000052,
      "v": 50
    },
    {
      "midi": 60,
      "hit": false,
      "t": 107670.21000000024,
      "d": 813.3484375000116,
      "v": 55
    },
    {
      "midi": 67,
      "hit": false,
      "t": 107670.21000000024,
      "d": 813.3484375000116,
      "v": 46
    },
    {
      "midi": 55,
      "hit": false,
      "t": 108492.12000000026,
      "d": 804.7868750000052,
      "v": 47
    },
    {
      "midi": 64,
      "hit": false,
      "t": 108492.12000000026,
      "d": 804.7868750000052,
      "v": 58
    },
    {
      "midi": 60,
      "hit": false,
      "t": 108492.12000000026,
      "d": 813.3484375000116,
      "v": 59
    },
    {
      "midi": 45,
      "hit": false,
      "t": 108492.12000000026,
      "d": 1643.820000000036,
      "v": 91
    },
    {
      "midi": 64,
      "hit": false,
      "t": 109314.03000000028,
      "d": 804.7868750000052,
      "v": 55
    },
    {
      "midi": 55,
      "hit": false,
      "t": 109314.03000000028,
      "d": 813.3484375000116,
      "v": 45
    },
    {
      "midi": 60,
      "hit": false,
      "t": 109314.03000000028,
      "d": 813.3484375000116,
      "v": 68
    },
    {
      "midi": 55,
      "hit": false,
      "t": 110135.9400000003,
      "d": 804.7868750000052,
      "v": 49
    },
    {
      "midi": 60,
      "hit": false,
      "t": 110135.9400000003,
      "d": 804.7868750000052,
      "v": 66
    },
    {
      "midi": 64,
      "hit": false,
      "t": 110135.9400000003,
      "d": 804.7868750000052,
      "v": 55
    },
    {
      "midi": 43,
      "hit": false,
      "t": 110135.9400000003,
      "d": 1643.8200000000215,
      "v": 93
    },
    {
      "midi": 64,
      "hit": false,
      "t": 110957.8500000003,
      "d": 804.7868750000052,
      "v": 70
    },
    {
      "midi": 58,
      "hit": false,
      "t": 110957.8500000003,
      "d": 813.3484375000116,
      "v": 55
    },
    {
      "midi": 61,
      "hit": false,
      "t": 110957.8500000003,
      "d": 813.3484375000116,
      "v": 66
    },
    {
      "midi": 59,
      "hit": false,
      "t": 111779.76000000031,
      "d": 804.7868750000052,
      "v": 65
    },
    {
      "midi": 64,
      "hit": false,
      "t": 111779.76000000031,
      "d": 804.7868750000052,
      "v": 56
    },
    {
      "midi": 66,
      "hit": false,
      "t": 111779.76000000031,
      "d": 804.7868750000052,
      "v": 61
    },
    {
      "midi": 47,
      "hit": false,
      "t": 111779.76000000031,
      "d": 3219.1475000000064,
      "v": 88
    },
    {
      "midi": 64,
      "hit": false,
      "t": 112601.67000000032,
      "d": 804.7868750000052,
      "v": 66
    },
    {
      "midi": 66,
      "hit": false,
      "t": 112601.67000000032,
      "d": 2440.045312500006,
      "v": 66
    },
    {
      "midi": 59,
      "hit": false,
      "t": 112601.67000000032,
      "d": 2448.606875000012,
      "v": 65
    },
    {
      "midi": 63,
      "hit": false,
      "t": 113423.58000000032,
      "d": 1618.1353125000023,
      "v": 84
    },
    {
      "midi": 67,
      "hit": false,
      "t": 115067.40000000033,
      "d": 719.1712499999994,
      "v": 73
    },
    {
      "midi": 59,
      "hit": false,
      "t": 115067.40000000033,
      "d": 770.5406249999942,
      "v": 73
    },
    {
      "midi": 64,
      "hit": false,
      "t": 115067.40000000033,
      "d": 770.5406249999942,
      "v": 76
    },
    {
      "midi": 59,
      "hit": false,
      "t": 115889.31000000032,
      "d": 1181.495624999996,
      "v": 69
    },
    {
      "midi": 64,
      "hit": false,
      "t": 115889.31000000032,
      "d": 1592.4506249999977,
      "v": 80
    },
    {
      "midi": 67,
      "hit": false,
      "t": 115889.31000000032,
      "d": 1592.4506249999977,
      "v": 76
    },
    {
      "midi": 59,
      "hit": false,
      "t": 117122.17500000031,
      "d": 1130.1262500000012,
      "v": 72
    },
    {
      "midi": 67,
      "hit": false,
      "t": 117533.13000000031,
      "d": 719.1712499999994,
      "v": 74
    },
    {
      "midi": 64,
      "hit": false,
      "t": 117533.13000000031,
      "d": 770.5406249999942,
      "v": 76
    },
    {
      "midi": 60,
      "hit": false,
      "t": 118355.0400000003,
      "d": 770.5406249999942,
      "v": 71
    },
    {
      "midi": 64,
      "hit": false,
      "t": 118355.0400000003,
      "d": 770.5406249999942,
      "v": 80
    },
    {
      "midi": 67,
      "hit": false,
      "t": 118355.0400000003,
      "d": 770.5406249999942,
      "v": 71
    },
    {
      "midi": 60,
      "hit": false,
      "t": 119176.95000000029,
      "d": 1130.1262500000012,
      "v": 68
    },
    {
      "midi": 64,
      "hit": false,
      "t": 119176.95000000029,
      "d": 1592.4506250000122,
      "v": 82
    },
    {
      "midi": 67,
      "hit": false,
      "t": 119176.95000000029,
      "d": 1592.4506250000122,
      "v": 67
    },
    {
      "midi": 60,
      "hit": false,
      "t": 120409.8150000003,
      "d": 1130.1262500000012,
      "v": 68
    },
    {
      "midi": 67,
      "hit": false,
      "t": 120820.7700000003,
      "d": 667.8018750000047,
      "v": 73
    },
    {
      "midi": 64,
      "hit": false,
      "t": 120820.7700000003,
      "d": 770.5406249999942,
      "v": 76
    },
    {
      "midi": 59,
      "hit": false,
      "t": 121642.68000000028,
      "d": 719.1712499999994,
      "v": 74
    },
    {
      "midi": 67,
      "hit": false,
      "t": 121642.68000000028,
      "d": 719.1712499999994,
      "v": 68
    },
    {
      "midi": 62,
      "hit": false,
      "t": 121642.68000000028,
      "d": 770.5406249999942,
      "v": 84
    },
    {
      "midi": 59,
      "hit": false,
      "t": 122464.59000000027,
      "d": 1181.495624999996,
      "v": 74
    },
    {
      "midi": 62,
      "hit": false,
      "t": 122464.59000000027,
      "d": 1541.0812499999884,
      "v": 78
    },
    {
      "midi": 67,
      "hit": false,
      "t": 122464.59000000027,
      "d": 1541.0812499999884,
      "v": 69
    },
    {
      "midi": 59,
      "hit": false,
      "t": 123697.45500000026,
      "d": 1232.8649999999907,
      "v": 65
    },
    {
      "midi": 62,
      "hit": false,
      "t": 124108.41000000027,
      "d": 719.1712499999994,
      "v": 73
    },
    {
      "midi": 67,
      "hit": false,
      "t": 124108.41000000027,
      "d": 770.5406249999942,
      "v": 70
    },
    {
      "midi": 60,
      "hit": false,
      "t": 124930.32000000025,
      "d": 770.5406249999942,
      "v": 73
    },
    {
      "midi": 64,
      "hit": false,
      "t": 124930.32000000025,
      "d": 770.5406249999942,
      "v": 76
    },
    {
      "midi": 67,
      "hit": false,
      "t": 124930.32000000025,
      "d": 770.5406249999942,
      "v": 76
    },
    {
      "midi": 67,
      "hit": false,
      "t": 125752.23000000024,
      "d": 719.1712499999994,
      "v": 70
    },
    {
      "midi": 64,
      "hit": false,
      "t": 125752.23000000024,
      "d": 770.5406249999942,
      "v": 80
    },
    {
      "midi": 60,
      "hit": false,
      "t": 125752.23000000024,
      "d": 804.7868749999907,
      "v": 78
    },
    {
      "midi": 63,
      "hit": false,
      "t": 126574.14000000023,
      "d": 1618.1353125000169,
      "v": 78
    },
    {
      "midi": 66,
      "hit": false,
      "t": 126574.14000000023,
      "d": 1626.6968750000233,
      "v": 73
    },
    {
      "midi": 59,
      "hit": false,
      "t": 126985.09500000023,
      "d": 402.39343749999534,
      "v": 53
    },
    {
      "midi": 71,
      "hit": false,
      "t": 127396.05000000024,
      "d": 787.663750000007,
      "v": 73
    },
    {
      "midi": 59,
      "hit": false,
      "t": 128217.96000000025,
      "d": 770.5406249999942,
      "v": 73
    },
    {
      "midi": 64,
      "hit": false,
      "t": 128217.96000000025,
      "d": 770.5406249999942,
      "v": 76
    },
    {
      "midi": 67,
      "hit": false,
      "t": 128217.96000000025,
      "d": 770.5406249999942,
      "v": 73
    },
    {
      "midi": 59,
      "hit": false,
      "t": 129039.87000000024,
      "d": 1130.1262500000012,
      "v": 69
    },
    {
      "midi": 64,
      "hit": false,
      "t": 129039.87000000024,
      "d": 1592.4506250000122,
      "v": 80
    },
    {
      "midi": 67,
      "hit": false,
      "t": 129039.87000000024,
      "d": 1592.4506250000122,
      "v": 76
    },
    {
      "midi": 59,
      "hit": false,
      "t": 130272.73500000025,
      "d": 1130.1262500000012,
      "v": 72
    },
    {
      "midi": 64,
      "hit": false,
      "t": 130683.69000000025,
      "d": 770.5406250000087,
      "v": 76
    },
    {
      "midi": 67,
      "hit": false,
      "t": 130683.69000000025,
      "d": 770.5406250000087,
      "v": 74
    },
    {
      "midi": 64,
      "hit": false,
      "t": 131505.60000000027,
      "d": 770.5406249999942,
      "v": 80
    },
    {
      "midi": 67,
      "hit": false,
      "t": 131505.60000000027,
      "d": 770.5406249999942,
      "v": 71
    },
    {
      "midi": 60,
      "hit": false,
      "t": 131505.60000000027,
      "d": 804.7868749999907,
      "v": 71
    },
    {
      "midi": 60,
      "hit": false,
      "t": 132327.51000000027,
      "d": 1181.4956250000105,
      "v": 68
    },
    {
      "midi": 64,
      "hit": false,
      "t": 132327.51000000027,
      "d": 1592.4506250000268,
      "v": 82
    },
    {
      "midi": 67,
      "hit": false,
      "t": 132327.51000000027,
      "d": 1592.4506250000268,
      "v": 67
    },
    {
      "midi": 60,
      "hit": false,
      "t": 133560.3750000003,
      "d": 1181.4956250000105,
      "v": 68
    },
    {
      "midi": 64,
      "hit": false,
      "t": 133971.3300000003,
      "d": 770.5406249999942,
      "v": 76
    },
    {
      "midi": 67,
      "hit": false,
      "t": 133971.3300000003,
      "d": 770.5406249999942,
      "v": 73
    },
    {
      "midi": 59,
      "hit": false,
      "t": 134793.2400000003,
      "d": 770.5406249999942,
      "v": 74
    },
    {
      "midi": 62,
      "hit": false,
      "t": 134793.2400000003,
      "d": 770.5406249999942,
      "v": 84
    },
    {
      "midi": 67,
      "hit": false,
      "t": 134793.2400000003,
      "d": 770.5406249999942,
      "v": 68
    },
    {
      "midi": 59,
      "hit": false,
      "t": 135615.1500000003,
      "d": 1130.1262500000012,
      "v": 74
    },
    {
      "midi": 62,
      "hit": false,
      "t": 135615.1500000003,
      "d": 1592.4506249999977,
      "v": 78
    },
    {
      "midi": 67,
      "hit": false,
      "t": 135615.1500000003,
      "d": 1592.4506249999977,
      "v": 69
    },
    {
      "midi": 59,
      "hit": false,
      "t": 136848.0150000003,
      "d": 1215.741875000007,
      "v": 65
    },
    {
      "midi": 67,
      "hit": false,
      "t": 137258.97000000032,
      "d": 770.5406249999942,
      "v": 70
    },
    {
      "midi": 62,
      "hit": false,
      "t": 137258.97000000032,
      "d": 813.3484374999825,
      "v": 73
    },
    {
      "midi": 60,
      "hit": false,
      "t": 138080.8800000003,
      "d": 770.5406249999942,
      "v": 73
    },
    {
      "midi": 64,
      "hit": false,
      "t": 138080.8800000003,
      "d": 770.5406249999942,
      "v": 76
    },
    {
      "midi": 67,
      "hit": false,
      "t": 138080.8800000003,
      "d": 770.5406249999942,
      "v": 76
    },
    {
      "midi": 60,
      "hit": false,
      "t": 138902.7900000003,
      "d": 719.171250000014,
      "v": 78
    },
    {
      "midi": 64,
      "hit": false,
      "t": 138902.7900000003,
      "d": 770.5406250000233,
      "v": 80
    },
    {
      "midi": 67,
      "hit": false,
      "t": 138902.7900000003,
      "d": 770.5406250000233,
      "v": 70
    },
    {
      "midi": 63,
      "hit": false,
      "t": 139724.70000000033,
      "d": 736.2943749999977,
      "v": 67
    },
    {
      "midi": 59,
      "hit": false,
      "t": 139724.70000000033,
      "d": 770.5406249999942,
      "v": 65
    },
    {
      "midi": 66,
      "hit": false,
      "t": 139724.70000000033,
      "d": 770.5406249999942,
      "v": 67
    },
    {
      "midi": 59,
      "hit": false,
      "t": 140546.61000000034,
      "d": 753.4175000000105,
      "v": 63
    },
    {
      "midi": 63,
      "hit": false,
      "t": 140546.61000000034,
      "d": 761.9790625000023,
      "v": 74
    },
    {
      "midi": 71,
      "hit": false,
      "t": 140546.61000000034,
      "d": 787.663750000007,
      "v": 65
    },
    {
      "midi": 59,
      "hit": false,
      "t": 141368.52000000034,
      "d": 804.7868749999907,
      "v": 70
    },
    {
      "midi": 64,
      "hit": false,
      "t": 141368.52000000034,
      "d": 804.7868749999907,
      "v": 71
    },
    {
      "midi": 67,
      "hit": false,
      "t": 141368.52000000034,
      "d": 804.7868749999907,
      "v": 67
    },
    {
      "midi": 59,
      "hit": false,
      "t": 142190.43000000034,
      "d": 804.7868749999907,
      "v": 64
    },
    {
      "midi": 64,
      "hit": false,
      "t": 142190.43000000034,
      "d": 804.7868749999907,
      "v": 67
    },
    {
      "midi": 67,
      "hit": false,
      "t": 142190.43000000034,
      "d": 804.7868749999907,
      "v": 63
    },
    {
      "midi": 62,
      "hit": false,
      "t": 143012.34000000035,
      "d": 804.7868749999907,
      "v": 78
    },
    {
      "midi": 66,
      "hit": false,
      "t": 143012.34000000035,
      "d": 804.7868749999907,
      "v": 66
    },
    {
      "midi": 57,
      "hit": false,
      "t": 143012.34000000035,
      "d": 813.3484374999825,
      "v": 71
    },
    {
      "midi": 57,
      "hit": false,
      "t": 143834.25000000032,
      "d": 804.7868749999907,
      "v": 71
    },
    {
      "midi": 62,
      "hit": false,
      "t": 143834.25000000032,
      "d": 804.7868749999907,
      "v": 66
    },
    {
      "midi": 66,
      "hit": false,
      "t": 143834.25000000032,
      "d": 813.3484374999825,
      "v": 60
    },
    {
      "midi": 59,
      "hit": false,
      "t": 144656.1600000003,
      "d": 804.7868749999907,
      "v": 69
    },
    {
      "midi": 62,
      "hit": false,
      "t": 144656.1600000003,
      "d": 804.7868749999907,
      "v": 74
    },
    {
      "midi": 67,
      "hit": false,
      "t": 144656.1600000003,
      "d": 804.7868749999907,
      "v": 58
    },
    {
      "midi": 67,
      "hit": false,
      "t": 145478.0700000003,
      "d": 804.7868749999907,
      "v": 55
    },
    {
      "midi": 59,
      "hit": false,
      "t": 145478.0700000003,
      "d": 813.3484374999825,
      "v": 64
    },
    {
      "midi": 62,
      "hit": false,
      "t": 145478.0700000003,
      "d": 813.3484374999825,
      "v": 69
    },
    {
      "midi": 60,
      "hit": false,
      "t": 146299.98000000027,
      "d": 804.7868749999907,
      "v": 70
    },
    {
      "midi": 64,
      "hit": false,
      "t": 146299.98000000027,
      "d": 804.7868749999907,
      "v": 60
    },
    {
      "midi": 67,
      "hit": false,
      "t": 146299.98000000027,
      "d": 804.7868749999907,
      "v": 53
    },
    {
      "midi": 60,
      "hit": false,
      "t": 147121.89000000028,
      "d": 804.7868749999907,
      "v": 66
    },
    {
      "midi": 64,
      "hit": false,
      "t": 147121.89000000028,
      "d": 804.7868749999907,
      "v": 61
    },
    {
      "midi": 67,
      "hit": false,
      "t": 147121.89000000028,
      "d": 804.7868749999907,
      "v": 57
    },
    {
      "midi": 55,
      "hit": false,
      "t": 147943.80000000028,
      "d": 796.2253124999988,
      "v": 58
    },
    {
      "midi": 60,
      "hit": false,
      "t": 147943.80000000028,
      "d": 804.7868749999907,
      "v": 70
    },
    {
      "midi": 64,
      "hit": false,
      "t": 147943.80000000028,
      "d": 804.7868749999907,
      "v": 69
    },
    {
      "midi": 55,
      "hit": false,
      "t": 148765.71000000028,
      "d": 804.7868749999907,
      "v": 56
    },
    {
      "midi": 60,
      "hit": false,
      "t": 148765.71000000028,
      "d": 804.7868749999907,
      "v": 79
    },
    {
      "midi": 64,
      "hit": false,
      "t": 148765.71000000028,
      "d": 813.3484374999825,
      "v": 66
    },
    {
      "midi": 64,
      "hit": false,
      "t": 149587.62000000026,
      "d": 796.2253124999988,
      "v": 66
    },
    {
      "midi": 55,
      "hit": false,
      "t": 149587.62000000026,
      "d": 804.7868749999907,
      "v": 60
    },
    {
      "midi": 60,
      "hit": false,
      "t": 149587.62000000026,
      "d": 804.7868749999907,
      "v": 77
    },
    {
      "midi": 64,
      "hit": false,
      "t": 150409.53000000026,
      "d": 796.2253124999988,
      "v": 81
    },
    {
      "midi": 58,
      "hit": false,
      "t": 150409.53000000026,
      "d": 804.7868749999907,
      "v": 66
    },
    {
      "midi": 61,
      "hit": false,
      "t": 150409.53000000026,
      "d": 804.7868749999907,
      "v": 77
    },
    {
      "midi": 64,
      "hit": false,
      "t": 151231.44000000026,
      "d": 796.2253124999988,
      "v": 67
    },
    {
      "midi": 59,
      "hit": false,
      "t": 151231.44000000026,
      "d": 804.7868749999907,
      "v": 76
    },
    {
      "midi": 66,
      "hit": false,
      "t": 151231.44000000026,
      "d": 804.7868749999907,
      "v": 72
    },
    {
      "midi": 64,
      "hit": false,
      "t": 152053.35000000027,
      "d": 804.7868749999907,
      "v": 77
    },
    {
      "midi": 66,
      "hit": false,
      "t": 152053.35000000027,
      "d": 2440.045312500006,
      "v": 77
    },
    {
      "midi": 59,
      "hit": false,
      "t": 152053.35000000027,
      "d": 2465.7300000000105,
      "v": 76
    },
    {
      "midi": 63,
      "hit": false,
      "t": 152875.26000000027,
      "d": 1618.1353125000023,
      "v": 95
    },
    {
      "midi": 59,
      "hit": false,
      "t": 154519.08000000028,
      "d": 804.7868749999907,
      "v": 77
    },
    {
      "midi": 64,
      "hit": false,
      "t": 154519.08000000028,
      "d": 804.7868749999907,
      "v": 78
    },
    {
      "midi": 67,
      "hit": false,
      "t": 154519.08000000028,
      "d": 804.7868749999907,
      "v": 74
    },
    {
      "midi": 64,
      "hit": false,
      "t": 155340.99000000028,
      "d": 804.7868749999907,
      "v": 74
    },
    {
      "midi": 67,
      "hit": false,
      "t": 155340.99000000028,
      "d": 804.7868749999907,
      "v": 70
    },
    {
      "midi": 59,
      "hit": false,
      "t": 155340.99000000028,
      "d": 813.3484374999825,
      "v": 71
    },
    {
      "midi": 62,
      "hit": false,
      "t": 156162.90000000026,
      "d": 804.7868749999907,
      "v": 85
    },
    {
      "midi": 66,
      "hit": false,
      "t": 156162.90000000026,
      "d": 804.7868749999907,
      "v": 73
    },
    {
      "midi": 57,
      "hit": false,
      "t": 156162.90000000026,
      "d": 813.3484374999825,
      "v": 78
    },
    {
      "midi": 57,
      "hit": false,
      "t": 156984.81000000023,
      "d": 804.7868749999907,
      "v": 78
    },
    {
      "midi": 62,
      "hit": false,
      "t": 156984.81000000023,
      "d": 804.7868749999907,
      "v": 73
    },
    {
      "midi": 66,
      "hit": false,
      "t": 156984.81000000023,
      "d": 804.7868749999907,
      "v": 67
    },
    {
      "midi": 59,
      "hit": false,
      "t": 157806.72000000023,
      "d": 804.7868749999907,
      "v": 76
    },
    {
      "midi": 62,
      "hit": false,
      "t": 157806.72000000023,
      "d": 804.7868749999907,
      "v": 81
    },
    {
      "midi": 67,
      "hit": false,
      "t": 157806.72000000023,
      "d": 804.7868749999907,
      "v": 65
    },
    {
      "midi": 59,
      "hit": false,
      "t": 158628.63000000024,
      "d": 804.7868749999907,
      "v": 71
    },
    {
      "midi": 62,
      "hit": false,
      "t": 158628.63000000024,
      "d": 804.7868749999907,
      "v": 76
    },
    {
      "midi": 67,
      "hit": false,
      "t": 158628.63000000024,
      "d": 804.7868749999907,
      "v": 62
    },
    {
      "midi": 60,
      "hit": false,
      "t": 159450.54000000024,
      "d": 804.7868749999907,
      "v": 77
    },
    {
      "midi": 64,
      "hit": false,
      "t": 159450.54000000024,
      "d": 804.7868749999907,
      "v": 67
    },
    {
      "midi": 67,
      "hit": false,
      "t": 159450.54000000024,
      "d": 804.7868749999907,
      "v": 60
    },
    {
      "midi": 60,
      "hit": false,
      "t": 160272.45000000024,
      "d": 804.7868749999907,
      "v": 73
    },
    {
      "midi": 64,
      "hit": false,
      "t": 160272.45000000024,
      "d": 804.7868749999907,
      "v": 68
    },
    {
      "midi": 67,
      "hit": false,
      "t": 160272.45000000024,
      "d": 804.7868749999907,
      "v": 64
    },
    {
      "midi": 55,
      "hit": false,
      "t": 161094.36000000025,
      "d": 804.7868749999907,
      "v": 65
    },
    {
      "midi": 60,
      "hit": false,
      "t": 161094.36000000025,
      "d": 804.7868749999907,
      "v": 77
    },
    {
      "midi": 64,
      "hit": false,
      "t": 161094.36000000025,
      "d": 804.7868749999907,
      "v": 76
    },
    {
      "midi": 55,
      "hit": false,
      "t": 161916.27000000025,
      "d": 804.7868749999907,
      "v": 63
    },
    {
      "midi": 60,
      "hit": false,
      "t": 161916.27000000025,
      "d": 804.7868749999907,
      "v": 86
    },
    {
      "midi": 64,
      "hit": false,
      "t": 161916.27000000025,
      "d": 804.7868749999907,
      "v": 73
    },
    {
      "midi": 60,
      "hit": false,
      "t": 162738.18000000025,
      "d": 804.7868749999907,
      "v": 84
    },
    {
      "midi": 55,
      "hit": false,
      "t": 162738.18000000025,
      "d": 813.3484374999825,
      "v": 67
    },
    {
      "midi": 64,
      "hit": false,
      "t": 162738.18000000025,
      "d": 813.3484374999825,
      "v": 73
    },
    {
      "midi": 58,
      "hit": false,
      "t": 163560.09000000023,
      "d": 804.7868749999907,
      "v": 73
    },
    {
      "midi": 61,
      "hit": false,
      "t": 163560.09000000023,
      "d": 804.7868749999907,
      "v": 84
    },
    {
      "midi": 64,
      "hit": false,
      "t": 163560.09000000023,
      "d": 804.7868749999907,
      "v": 88
    },
    {
      "midi": 59,
      "hit": false,
      "t": 164382.00000000023,
      "d": 804.7868749999907,
      "v": 83
    },
    {
      "midi": 64,
      "hit": false,
      "t": 164382.00000000023,
      "d": 804.7868749999907,
      "v": 74
    },
    {
      "midi": 66,
      "hit": false,
      "t": 164382.00000000023,
      "d": 804.7868749999907,
      "v": 79
    },
    {
      "midi": 64,
      "hit": false,
      "t": 165203.91000000024,
      "d": 804.7868749999907,
      "v": 84
    },
    {
      "midi": 66,
      "hit": false,
      "t": 165203.91000000024,
      "d": 2440.045312500006,
      "v": 84
    },
    {
      "midi": 59,
      "hit": false,
      "t": 165203.91000000024,
      "d": 2465.7300000000105,
      "v": 83
    },
    {
      "midi": 63,
      "hit": false,
      "t": 166025.82000000024,
      "d": 1618.1353125000023,
      "v": 102
    },
    {
      "midi": 67,
      "hit": false,
      "t": 167669.64000000025,
      "d": 804.7868749999907,
      "v": 101
    },
    {
      "midi": 59,
      "hit": false,
      "t": 168080.59500000023,
      "d": 1207.1803125000151,
      "v": 73
    },
    {
      "midi": 62,
      "hit": false,
      "t": 168491.55000000025,
      "d": 1215.741875000007,
      "v": 97
    },
    {
      "midi": 67,
      "hit": false,
      "t": 168902.50500000024,
      "d": 402.39343750002445,
      "v": 69
    },
    {
      "midi": 66,
      "hit": false,
      "t": 169313.46000000025,
      "d": 804.7868750000198,
      "v": 103
    },
    {
      "midi": 57,
      "hit": false,
      "t": 169724.41500000027,
      "d": 813.3484375000116,
      "v": 76
    },
    {
      "midi": 62,
      "hit": false,
      "t": 170135.3700000003,
      "d": 1215.741875000007,
      "v": 95
    },
    {
      "midi": 66,
      "hit": false,
      "t": 170546.32500000027,
      "d": 385.27031250001164,
      "v": 88
    },
    {
      "midi": 67,
      "hit": false,
      "t": 170957.2800000003,
      "d": 804.7868750000198,
      "v": 88
    },
    {
      "midi": 59,
      "hit": false,
      "t": 171368.2350000003,
      "d": 804.7868750000198,
      "v": 74
    },
    {
      "midi": 62,
      "hit": false,
      "t": 171779.19000000032,
      "d": 1207.1803125000442,
      "v": 97
    },
    {
      "midi": 67,
      "hit": false,
      "t": 172190.14500000034,
      "d": 393.8318750000035,
      "v": 82
    },
    {
      "midi": 66,
      "hit": false,
      "t": 172601.10000000036,
      "d": 804.7868750000198,
      "v": 103
    },
    {
      "midi": 57,
      "hit": false,
      "t": 173012.05500000037,
      "d": 804.7868750000198,
      "v": 86
    },
    {
      "midi": 62,
      "hit": false,
      "t": 173423.0100000004,
      "d": 744.8559375000186,
      "v": 95
    },
    {
      "midi": 66,
      "hit": false,
      "t": 173833.9650000004,
      "d": 385.27031250001164,
      "v": 88
    },
    {
      "midi": 60,
      "hit": false,
      "t": 174244.92000000042,
      "d": 667.8018750000047,
      "v": 79
    },
    {
      "midi": 71,
      "hit": false,
      "t": 174244.92000000042,
      "d": 667.8018750000047,
      "v": 79
    },
    {
      "midi": 64,
      "hit": false,
      "t": 174244.92000000042,
      "d": 710.609687499993,
      "v": 79
    },
    {
      "midi": 71,
      "hit": false,
      "t": 175066.83000000042,
      "d": 693.4865625000093,
      "v": 86
    },
    {
      "midi": 60,
      "hit": false,
      "t": 175066.83000000042,
      "d": 702.0481250000012,
      "v": 86
    },
    {
      "midi": 64,
      "hit": false,
      "t": 175066.83000000042,
      "d": 727.7328125000058,
      "v": 86
    },
    {
      "midi": 60,
      "hit": false,
      "t": 175888.74000000043,
      "d": 719.171250000014,
      "v": 90
    },
    {
      "midi": 64,
      "hit": false,
      "t": 175888.74000000043,
      "d": 736.2943750000268,
      "v": 90
    },
    {
      "midi": 69,
      "hit": false,
      "t": 175888.74000000043,
      "d": 736.2943750000268,
      "v": 90
    },
    {
      "midi": 60,
      "hit": false,
      "t": 176710.65000000046,
      "d": 676.3634374999965,
      "v": 101
    },
    {
      "midi": 64,
      "hit": false,
      "t": 176710.65000000046,
      "d": 702.0481250000012,
      "v": 101
    },
    {
      "midi": 69,
      "hit": false,
      "t": 176710.65000000046,
      "d": 727.7328125000058,
      "v": 101
    },
    {
      "midi": 59,
      "hit": false,
      "t": 177532.56000000046,
      "d": 624.9940624999872,
      "v": 104
    },
    {
      "midi": 69,
      "hit": false,
      "t": 177532.56000000046,
      "d": 684.9249999999884,
      "v": 87
    },
    {
      "midi": 62,
      "hit": false,
      "t": 177532.56000000046,
      "d": 702.0481250000012,
      "v": 104
    },
    {
      "midi": 69,
      "hit": false,
      "t": 178354.47000000047,
      "d": 710.609687499993,
      "v": 87
    },
    {
      "midi": 59,
      "hit": false,
      "t": 178354.47000000047,
      "d": 744.8559374999895,
      "v": 93
    },
    {
      "midi": 62,
      "hit": false,
      "t": 178354.47000000047,
      "d": 753.4174999999814,
      "v": 95
    },
    {
      "midi": 59,
      "hit": false,
      "t": 179176.38000000044,
      "d": 684.9249999999884,
      "v": 70
    },
    {
      "midi": 67,
      "hit": false,
      "t": 179176.38000000044,
      "d": 710.609687499993,
      "v": 82
    },
    {
      "midi": 62,
      "hit": false,
      "t": 179176.38000000044,
      "d": 736.2943749999977,
      "v": 87
    },
    {
      "midi": 59,
      "hit": false,
      "t": 179998.29000000044,
      "d": 642.1171875,
      "v": 95
    },
    {
      "midi": 62,
      "hit": false,
      "t": 179998.29000000044,
      "d": 684.9249999999884,
      "v": 102
    },
    {
      "midi": 67,
      "hit": false,
      "t": 179998.29000000044,
      "d": 702.0481250000012,
      "v": 91
    },
    {
      "midi": 57,
      "hit": false,
      "t": 180820.20000000045,
      "d": 616.4324999999953,
      "v": 102
    },
    {
      "midi": 60,
      "hit": false,
      "t": 180820.20000000045,
      "d": 753.4174999999814,
      "v": 107
    },
    {
      "midi": 67,
      "hit": false,
      "t": 180820.20000000045,
      "d": 753.4174999999814,
      "v": 82
    },
    {
      "midi": 57,
      "hit": false,
      "t": 181642.11000000042,
      "d": 633.5556250000081,
      "v": 93
    },
    {
      "midi": 67,
      "hit": false,
      "t": 181642.11000000042,
      "d": 676.3634374999965,
      "v": 84
    },
    {
      "midi": 60,
      "hit": false,
      "t": 181642.11000000042,
      "d": 702.0481250000012,
      "v": 91
    },
    {
      "midi": 57,
      "hit": false,
      "t": 182464.02000000043,
      "d": 684.9249999999884,
      "v": 87
    },
    {
      "midi": 60,
      "hit": false,
      "t": 182464.02000000043,
      "d": 702.0481250000012,
      "v": 93
    },
    {
      "midi": 66,
      "hit": false,
      "t": 182464.02000000043,
      "d": 710.609687499993,
      "v": 89
    },
    {
      "midi": 57,
      "hit": false,
      "t": 183285.93000000043,
      "d": 573.624687500007,
      "v": 87
    },
    {
      "midi": 60,
      "hit": false,
      "t": 183285.93000000043,
      "d": 582.1862499999988,
      "v": 91
    },
    {
      "midi": 66,
      "hit": false,
      "t": 183285.93000000043,
      "d": 599.3093750000116,
      "v": 91
    },
    {
      "midi": 56,
      "hit": false,
      "t": 184107.84000000043,
      "d": 736.2943749999977,
      "v": 102
    },
    {
      "midi": 59,
      "hit": false,
      "t": 184107.84000000043,
      "d": 736.2943749999977,
      "v": 87
    },
    {
      "midi": 66,
      "hit": false,
      "t": 184107.84000000043,
      "d": 744.8559374999895,
      "v": 89
    },
    {
      "midi": 59,
      "hit": false,
      "t": 184929.75000000044,
      "d": 710.609687499993,
      "v": 89
    },
    {
      "midi": 56,
      "hit": false,
      "t": 184929.75000000044,
      "d": 719.1712499999849,
      "v": 95
    },
    {
      "midi": 66,
      "hit": false,
      "t": 184929.75000000044,
      "d": 719.1712499999849,
      "v": 78
    },
    {
      "midi": 56,
      "hit": false,
      "t": 185751.6600000004,
      "d": 761.9790625000023,
      "v": 89
    },
    {
      "midi": 59,
      "hit": false,
      "t": 185751.6600000004,
      "d": 1643.820000000007,
      "v": 80
    },
    {
      "midi": 64,
      "hit": false,
      "t": 185751.6600000004,
      "d": 1643.820000000007,
      "v": 91
    },
    {
      "midi": 71,
      "hit": false,
      "t": 186573.5700000004,
      "d": 753.4175000000105,
      "v": 95
    },
    {
      "midi": 60,
      "hit": false,
      "t": 187395.48000000042,
      "d": 667.8018750000047,
      "v": 99
    },
    {
      "midi": 71,
      "hit": false,
      "t": 187395.48000000042,
      "d": 667.8018750000047,
      "v": 102
    },
    {
      "midi": 64,
      "hit": false,
      "t": 187395.48000000042,
      "d": 710.609687499993,
      "v": 99
    },
    {
      "midi": 71,
      "hit": false,
      "t": 188217.39000000042,
      "d": 693.4865625000093,
      "v": 88
    },
    {
      "midi": 60,
      "hit": false,
      "t": 188217.39000000042,
      "d": 702.0481250000012,
      "v": 92
    },
    {
      "midi": 64,
      "hit": false,
      "t": 188217.39000000042,
      "d": 727.7328125000058,
      "v": 97
    },
    {
      "midi": 60,
      "hit": false,
      "t": 189039.30000000042,
      "d": 719.171250000014,
      "v": 88
    },
    {
      "midi": 64,
      "hit": false,
      "t": 189039.30000000042,
      "d": 736.2943750000268,
      "v": 97
    },
    {
      "midi": 69,
      "hit": false,
      "t": 189039.30000000042,
      "d": 736.2943750000268,
      "v": 88
    },
    {
      "midi": 60,
      "hit": false,
      "t": 189861.21000000046,
      "d": 676.3634374999965,
      "v": 95
    },
    {
      "midi": 64,
      "hit": false,
      "t": 189861.21000000046,
      "d": 702.0481250000012,
      "v": 102
    },
    {
      "midi": 69,
      "hit": false,
      "t": 189861.21000000046,
      "d": 727.7328125000058,
      "v": 92
    },
    {
      "midi": 62,
      "hit": false,
      "t": 190683.12000000046,
      "d": 702.0481250000012,
      "v": 99
    },
    {
      "midi": 74,
      "hit": false,
      "t": 190683.12000000046,
      "d": 719.171250000014,
      "v": 82
    },
    {
      "midi": 69,
      "hit": false,
      "t": 190683.12000000046,
      "d": 770.5406250000233,
      "v": 99
    },
    {
      "midi": 69,
      "hit": false,
      "t": 191505.0300000005,
      "d": 710.609687499993,
      "v": 82
    },
    {
      "midi": 59,
      "hit": false,
      "t": 191505.0300000005,
      "d": 744.8559374999895,
      "v": 88
    },
    {
      "midi": 62,
      "hit": false,
      "t": 191505.0300000005,
      "d": 753.4174999999814,
      "v": 90
    },
    {
      "midi": 59,
      "hit": false,
      "t": 192326.94000000047,
      "d": 684.9249999999884,
      "v": 65
    },
    {
      "midi": 67,
      "hit": false,
      "t": 192326.94000000047,
      "d": 710.609687499993,
      "v": 77
    },
    {
      "midi": 62,
      "hit": false,
      "t": 192326.94000000047,
      "d": 736.2943749999977,
      "v": 82
    },
    {
      "midi": 59,
      "hit": false,
      "t": 193148.85000000047,
      "d": 642.1171875,
      "v": 90
    },
    {
      "midi": 62,
      "hit": false,
      "t": 193148.85000000047,
      "d": 684.9249999999884,
      "v": 97
    },
    {
      "midi": 67,
      "hit": false,
      "t": 193148.85000000047,
      "d": 702.0481250000012,
      "v": 86
    },
    {
      "midi": 57,
      "hit": false,
      "t": 193970.76000000047,
      "d": 616.4324999999953,
      "v": 97
    },
    {
      "midi": 60,
      "hit": false,
      "t": 193970.76000000047,
      "d": 753.4174999999814,
      "v": 102
    },
    {
      "midi": 67,
      "hit": false,
      "t": 193970.76000000047,
      "d": 753.4174999999814,
      "v": 77
    },
    {
      "midi": 57,
      "hit": false,
      "t": 194792.67000000045,
      "d": 633.5556250000081,
      "v": 88
    },
    {
      "midi": 67,
      "hit": false,
      "t": 194792.67000000045,
      "d": 676.3634374999965,
      "v": 79
    },
    {
      "midi": 60,
      "hit": false,
      "t": 194792.67000000045,
      "d": 702.0481250000012,
      "v": 86
    },
    {
      "midi": 57,
      "hit": false,
      "t": 195614.58000000045,
      "d": 684.9249999999884,
      "v": 82
    },
    {
      "midi": 60,
      "hit": false,
      "t": 195614.58000000045,
      "d": 702.0481250000012,
      "v": 88
    },
    {
      "midi": 66,
      "hit": false,
      "t": 195614.58000000045,
      "d": 710.609687499993,
      "v": 84
    },
    {
      "midi": 57,
      "hit": false,
      "t": 196436.49000000046,
      "d": 573.624687500007,
      "v": 82
    },
    {
      "midi": 60,
      "hit": false,
      "t": 196436.49000000046,
      "d": 582.1862499999988,
      "v": 86
    },
    {
      "midi": 66,
      "hit": false,
      "t": 196436.49000000046,
      "d": 599.3093750000116,
      "v": 86
    },
    {
      "midi": 56,
      "hit": false,
      "t": 197258.40000000046,
      "d": 736.2943749999977,
      "v": 97
    },
    {
      "midi": 59,
      "hit": false,
      "t": 197258.40000000046,
      "d": 736.2943749999977,
      "v": 82
    },
    {
      "midi": 66,
      "hit": false,
      "t": 197258.40000000046,
      "d": 744.8559374999895,
      "v": 84
    },
    {
      "midi": 59,
      "hit": false,
      "t": 198080.31000000046,
      "d": 710.609687499993,
      "v": 84
    },
    {
      "midi": 56,
      "hit": false,
      "t": 198080.31000000046,
      "d": 719.1712499999849,
      "v": 90
    },
    {
      "midi": 66,
      "hit": false,
      "t": 198080.31000000046,
      "d": 719.1712499999849,
      "v": 73
    },
    {
      "midi": 56,
      "hit": false,
      "t": 198902.22000000044,
      "d": 761.9790625000023,
      "v": 84
    },
    {
      "midi": 59,
      "hit": false,
      "t": 198902.22000000044,
      "d": 1626.6968750000233,
      "v": 75
    },
    {
      "midi": 64,
      "hit": false,
      "t": 198902.22000000044,
      "d": 1635.2584375000151,
      "v": 86
    },
    {
      "midi": 71,
      "hit": false,
      "t": 199724.13000000044,
      "d": 753.4175000000105,
      "v": 90
    },
    {
      "midi": 57,
      "hit": false,
      "t": 200546.04000000044,
      "d": 727.7328125000058,
      "v": 106
    },
    {
      "midi": 64,
      "hit": false,
      "t": 200546.04000000044,
      "d": 736.2943749999977,
      "v": 78
    },
    {
      "midi": 64,
      "hit": false,
      "t": 201367.95000000045,
      "d": 659.2403124999837,
      "v": 95
    },
    {
      "midi": 57,
      "hit": false,
      "t": 201367.95000000045,
      "d": 719.1712499999849,
      "v": 108
    },
    {
      "midi": 53,
      "hit": false,
      "t": 201778.90500000044,
      "d": 1232.8649999999907,
      "v": 91
    },
    {
      "midi": 57,
      "hit": false,
      "t": 202189.86000000042,
      "d": 761.9790625000023,
      "v": 111
    },
    {
      "midi": 62,
      "hit": false,
      "t": 202189.86000000042,
      "d": 1472.5887499999953,
      "v": 113
    },
    {
      "midi": 57,
      "hit": false,
      "t": 203011.77000000043,
      "d": 684.9249999999884,
      "v": 106
    },
    {
      "midi": 53,
      "hit": false,
      "t": 203422.7250000004,
      "d": 393.8318750000035,
      "v": 76
    },
    {
      "midi": 55,
      "hit": false,
      "t": 203833.68000000043,
      "d": 727.7328125000058,
      "v": 108
    },
    {
      "midi": 62,
      "hit": false,
      "t": 203833.68000000043,
      "d": 753.4175000000105,
      "v": 88
    },
    {
      "midi": 62,
      "hit": false,
      "t": 204655.59000000043,
      "d": 650.6787499999919,
      "v": 93
    },
    {
      "midi": 55,
      "hit": false,
      "t": 204655.59000000043,
      "d": 702.0481250000012,
      "v": 108
    },
    {
      "midi": 52,
      "hit": false,
      "t": 205066.54500000042,
      "d": 1344.1653125000012,
      "v": 84
    },
    {
      "midi": 55,
      "hit": false,
      "t": 205477.50000000044,
      "d": 710.609687499993,
      "v": 108
    },
    {
      "midi": 60,
      "hit": false,
      "t": 205477.50000000044,
      "d": 719.1712499999849,
      "v": 91
    },
    {
      "midi": 60,
      "hit": false,
      "t": 206299.4100000004,
      "d": 727.7328125000058,
      "v": 95
    },
    {
      "midi": 55,
      "hit": false,
      "t": 206299.4100000004,
      "d": 736.2943749999977,
      "v": 106
    },
    {
      "midi": 52,
      "hit": false,
      "t": 206710.36500000043,
      "d": 385.27031249998254,
      "v": 88
    },
    {
      "midi": 53,
      "hit": false,
      "t": 207121.3200000004,
      "d": 719.171250000014,
      "v": 113
    },
    {
      "midi": 60,
      "hit": false,
      "t": 207121.3200000004,
      "d": 761.9790625000023,
      "v": 91
    },
    {
      "midi": 60,
      "hit": false,
      "t": 207943.23000000042,
      "d": 676.3634374999965,
      "v": 62
    },
    {
      "midi": 53,
      "hit": false,
      "t": 207943.23000000042,
      "d": 744.8559374999895,
      "v": 104
    },
    {
      "midi": 50,
      "hit": false,
      "t": 208354.1850000004,
      "d": 1215.741875000036,
      "v": 88
    },
    {
      "midi": 53,
      "hit": false,
      "t": 208765.14000000042,
      "d": 727.7328125000058,
      "v": 106
    },
    {
      "midi": 59,
      "hit": false,
      "t": 208765.14000000042,
      "d": 804.7868750000198,
      "v": 113
    },
    {
      "midi": 59,
      "hit": false,
      "t": 209587.05000000045,
      "d": 787.663750000007,
      "v": 106
    },
    {
      "midi": 53,
      "hit": false,
      "t": 209587.05000000045,
      "d": 804.7868750000198,
      "v": 111
    },
    {
      "midi": 50,
      "hit": false,
      "t": 209998.00500000044,
      "d": 325.3393750000105,
      "v": 88
    },
    {
      "midi": 52,
      "hit": false,
      "t": 210408.9600000005,
      "d": 1523.9581250000047,
      "v": 93
    },
    {
      "midi": 57,
      "hit": false,
      "t": 210408.9600000005,
      "d": 1532.5196874999965,
      "v": 104
    },
    {
      "midi": 61,
      "hit": false,
      "t": 210408.9600000005,
      "d": 1541.0812499999884,
      "v": 82
    },
    {
      "midi": 57,
      "hit": false,
      "t": 212052.78000000046,
      "d": 1618.1353124999732,
      "v": 109
    },
    {
      "midi": 59,
      "hit": false,
      "t": 212463.73500000045,
      "d": 1215.7418749999779,
      "v": 105
    },
    {
      "midi": 61,
      "hit": false,
      "t": 212874.69000000044,
      "d": 804.7868749999907,
      "v": 105
    },
    {
      "midi": 64,
      "hit": false,
      "t": 213285.64500000043,
      "d": 393.8318750000035,
      "v": 108
    },
    {
      "midi": 57,
      "hit": false,
      "t": 213696.60000000044,
      "d": 727.7328125000058,
      "v": 106
    },
    {
      "midi": 64,
      "hit": false,
      "t": 213696.60000000044,
      "d": 736.2943749999977,
      "v": 78
    },
    {
      "midi": 64,
      "hit": false,
      "t": 214518.51000000045,
      "d": 659.2403124999837,
      "v": 95
    },
    {
      "midi": 57,
      "hit": false,
      "t": 214518.51000000045,
      "d": 719.1712499999849,
      "v": 108
    },
    {
      "midi": 53,
      "hit": false,
      "t": 214929.46500000043,
      "d": 1215.7418749999779,
      "v": 91
    },
    {
      "midi": 57,
      "hit": false,
      "t": 215340.42000000042,
      "d": 761.9790625000023,
      "v": 111
    },
    {
      "midi": 62,
      "hit": false,
      "t": 215340.42000000042,
      "d": 1472.5887499999953,
      "v": 113
    },
    {
      "midi": 57,
      "hit": false,
      "t": 216162.33000000042,
      "d": 684.9249999999884,
      "v": 106
    },
    {
      "midi": 53,
      "hit": false,
      "t": 216573.2850000004,
      "d": 393.8318750000035,
      "v": 76
    },
    {
      "midi": 55,
      "hit": false,
      "t": 216984.24000000043,
      "d": 727.7328125000058,
      "v": 108
    },
    {
      "midi": 62,
      "hit": false,
      "t": 216984.24000000043,
      "d": 753.4175000000105,
      "v": 88
    },
    {
      "midi": 62,
      "hit": false,
      "t": 217806.15000000043,
      "d": 650.6787499999919,
      "v": 93
    },
    {
      "midi": 55,
      "hit": false,
      "t": 217806.15000000043,
      "d": 702.0481250000012,
      "v": 108
    },
    {
      "midi": 52,
      "hit": false,
      "t": 218217.10500000042,
      "d": 1215.741875000007,
      "v": 84
    },
    {
      "midi": 55,
      "hit": false,
      "t": 218628.06000000043,
      "d": 710.609687499993,
      "v": 108
    },
    {
      "midi": 60,
      "hit": false,
      "t": 218628.06000000043,
      "d": 719.1712499999849,
      "v": 91
    },
    {
      "midi": 60,
      "hit": false,
      "t": 219449.97000000044,
      "d": 727.7328124999767,
      "v": 95
    },
    {
      "midi": 55,
      "hit": false,
      "t": 219449.97000000044,
      "d": 736.2943749999686,
      "v": 106
    },
    {
      "midi": 52,
      "hit": false,
      "t": 219860.92500000042,
      "d": 393.8318749999744,
      "v": 88
    },
    {
      "midi": 53,
      "hit": false,
      "t": 220271.8800000004,
      "d": 719.171250000014,
      "v": 113
    },
    {
      "midi": 60,
      "hit": false,
      "t": 220271.8800000004,
      "d": 761.9790625000023,
      "v": 91
    },
    {
      "midi": 60,
      "hit": false,
      "t": 221093.79000000042,
      "d": 676.3634374999965,
      "v": 62
    },
    {
      "midi": 53,
      "hit": false,
      "t": 221093.79000000042,
      "d": 744.8559374999895,
      "v": 104
    },
    {
      "midi": 50,
      "hit": false,
      "t": 221504.7450000004,
      "d": 1232.865000000049,
      "v": 88
    },
    {
      "midi": 53,
      "hit": false,
      "t": 221915.70000000042,
      "d": 727.7328125000058,
      "v": 106
    },
    {
      "midi": 59,
      "hit": false,
      "t": 221915.70000000042,
      "d": 804.7868750000198,
      "v": 113
    },
    {
      "midi": 59,
      "hit": false,
      "t": 222737.61000000045,
      "d": 727.7328124999767,
      "v": 106
    },
    {
      "midi": 53,
      "hit": false,
      "t": 222737.61000000045,
      "d": 796.2253124999697,
      "v": 111
    },
    {
      "midi": 50,
      "hit": false,
      "t": 223148.56500000044,
      "d": 325.3393749999814,
      "v": 88
    },
    {
      "midi": 52,
      "hit": false,
      "t": 223559.52000000043,
      "d": 1523.9581250000047,
      "v": 93
    },
    {
      "midi": 57,
      "hit": false,
      "t": 223559.52000000043,
      "d": 1532.5196874999965,
      "v": 104
    },
    {
      "midi": 61,
      "hit": false,
      "t": 223559.52000000043,
      "d": 1541.0812499999884,
      "v": 82
    },
    {
      "midi": 57,
      "hit": false,
      "t": 225203.3400000004,
      "d": 1618.1353124999732,
      "v": 106
    },
    {
      "midi": 59,
      "hit": false,
      "t": 225614.2950000004,
      "d": 1215.7418749999779,
      "v": 99
    },
    {
      "midi": 61,
      "hit": false,
      "t": 226025.25000000038,
      "d": 804.7868749999907,
      "v": 97
    },
    {
      "midi": 64,
      "hit": false,
      "t": 226436.20500000037,
      "d": 393.8318750000035,
      "v": 99
    },
    {
      "midi": 62,
      "hit": false,
      "t": 226847.16000000038,
      "d": 719.171250000014,
      "v": 72
    },
    {
      "midi": 65,
      "hit": false,
      "t": 226847.16000000038,
      "d": 770.5406250000233,
      "v": 68
    },
    {
      "midi": 57,
      "hit": false,
      "t": 226847.16000000038,
      "d": 804.7868750000198,
      "v": 71
    },
    {
      "midi": 62,
      "hit": false,
      "t": 227669.0700000004,
      "d": 770.5406249999942,
      "v": 68
    },
    {
      "midi": 65,
      "hit": false,
      "t": 227669.0700000004,
      "d": 770.5406249999942,
      "v": 64
    },
    {
      "midi": 57,
      "hit": false,
      "t": 227669.0700000004,
      "d": 804.7868749999907,
      "v": 65
    },
    {
      "midi": 64,
      "hit": false,
      "t": 228490.98000000042,
      "d": 719.171250000014,
      "v": 67
    },
    {
      "midi": 60,
      "hit": false,
      "t": 228490.98000000042,
      "d": 770.5406250000233,
      "v": 79
    },
    {
      "midi": 55,
      "hit": false,
      "t": 228490.98000000042,
      "d": 796.2253125000279,
      "v": 72
    },
    {
      "midi": 64,
      "hit": false,
      "t": 229312.89000000045,
      "d": 719.171250000014,
      "v": 61
    },
    {
      "midi": 60,
      "hit": false,
      "t": 229312.89000000045,
      "d": 796.2253125000279,
      "v": 67
    },
    {
      "midi": 55,
      "hit": false,
      "t": 229312.89000000045,
      "d": 804.7868750000198,
      "v": 72
    },
    {
      "midi": 57,
      "hit": false,
      "t": 230134.80000000048,
      "d": 1078.7568749999919,
      "v": 78
    },
    {
      "midi": 60,
      "hit": false,
      "t": 230134.80000000048,
      "d": 1130.1262500000012,
      "v": 83
    },
    {
      "midi": 65,
      "hit": false,
      "t": 230134.80000000048,
      "d": 1130.1262500000012,
      "v": 67
    },
    {
      "midi": 58,
      "hit": false,
      "t": 231367.66500000047,
      "d": 1130.1262500000012,
      "v": 79
    },
    {
      "midi": 60,
      "hit": false,
      "t": 231367.66500000047,
      "d": 1232.8649999999907,
      "v": 69
    },
    {
      "midi": 62,
      "hit": false,
      "t": 231367.66500000047,
      "d": 1643.820000000007,
      "v": 69
    },
    {
      "midi": 65,
      "hit": false,
      "t": 231367.66500000047,
      "d": 1849.2975000000151,
      "v": 62
    },
    {
      "midi": 58,
      "hit": false,
      "t": 232600.53000000046,
      "d": 393.8318750000035,
      "v": 104
    },
    {
      "midi": 57,
      "hit": false,
      "t": 233011.48500000048,
      "d": 393.8318750000035,
      "v": 107
    },
    {
      "midi": 62,
      "hit": false,
      "t": 233422.4400000005,
      "d": 719.171250000014,
      "v": 70
    },
    {
      "midi": 55,
      "hit": false,
      "t": 233422.4400000005,
      "d": 770.5406250000233,
      "v": 53
    },
    {
      "midi": 58,
      "hit": false,
      "t": 233422.4400000005,
      "d": 1626.6968750000524,
      "v": 109
    },
    {
      "midi": 62,
      "hit": false,
      "t": 234244.35000000053,
      "d": 719.171250000014,
      "v": 67
    },
    {
      "midi": 55,
      "hit": false,
      "t": 234244.35000000053,
      "d": 770.5406250000233,
      "v": 57
    },
    {
      "midi": 62,
      "hit": false,
      "t": 235066.26000000056,
      "d": 719.171250000014,
      "v": 67
    },
    {
      "midi": 53,
      "hit": false,
      "t": 235066.26000000056,
      "d": 770.5406250000233,
      "v": 61
    },
    {
      "midi": 58,
      "hit": false,
      "t": 235066.26000000056,
      "d": 770.5406250000233,
      "v": 78
    },
    {
      "midi": 41,
      "hit": false,
      "t": 235066.26000000056,
      "d": 1626.6968750000524,
      "v": 105
    },
    {
      "midi": 53,
      "hit": false,
      "t": 235888.1700000006,
      "d": 667.8018750000047,
      "v": 67
    },
    {
      "midi": 58,
      "hit": false,
      "t": 235888.1700000006,
      "d": 719.171250000014,
      "v": 78
    },
    {
      "midi": 62,
      "hit": false,
      "t": 235888.1700000006,
      "d": 719.171250000014,
      "v": 82
    },
    {
      "midi": 64,
      "hit": false,
      "t": 236710.08000000063,
      "d": 719.171250000014,
      "v": 73
    },
    {
      "midi": 57,
      "hit": false,
      "t": 236710.08000000063,
      "d": 770.5406250000233,
      "v": 77
    },
    {
      "midi": 62,
      "hit": false,
      "t": 236710.08000000063,
      "d": 770.5406250000233,
      "v": 63
    },
    {
      "midi": 62,
      "hit": false,
      "t": 237531.99000000066,
      "d": 770.5406249999942,
      "v": 100
    },
    {
      "midi": 64,
      "hit": false,
      "t": 237531.99000000066,
      "d": 2440.045312500006,
      "v": 78
    },
    {
      "midi": 57,
      "hit": false,
      "t": 237531.99000000066,
      "d": 2465.7300000000105,
      "v": 77
    },
    {
      "midi": 61,
      "hit": false,
      "t": 238353.90000000066,
      "d": 1618.1353125000023,
      "v": 110
    },
    {
      "midi": 62,
      "hit": false,
      "t": 239997.72000000067,
      "d": 719.171250000014,
      "v": 77
    },
    {
      "midi": 65,
      "hit": false,
      "t": 239997.72000000067,
      "d": 770.5406250000233,
      "v": 73
    },
    {
      "midi": 57,
      "hit": false,
      "t": 239997.72000000067,
      "d": 796.2253125000279,
      "v": 76
    },
    {
      "midi": 65,
      "hit": false,
      "t": 240819.6300000007,
      "d": 770.5406249999942,
      "v": 69
    },
    {
      "midi": 62,
      "hit": false,
      "t": 240819.6300000007,
      "d": 787.663750000007,
      "v": 73
    },
    {
      "midi": 57,
      "hit": false,
      "t": 240819.6300000007,
      "d": 804.7868750000198,
      "v": 70
    },
    {
      "midi": 64,
      "hit": false,
      "t": 241641.54000000074,
      "d": 719.171250000014,
      "v": 72
    },
    {
      "midi": 60,
      "hit": false,
      "t": 241641.54000000074,
      "d": 770.5406250000233,
      "v": 84
    },
    {
      "midi": 55,
      "hit": false,
      "t": 241641.54000000074,
      "d": 804.7868750000198,
      "v": 77
    },
    {
      "midi": 64,
      "hit": false,
      "t": 242463.45000000077,
      "d": 719.171250000014,
      "v": 66
    },
    {
      "midi": 60,
      "hit": false,
      "t": 242463.45000000077,
      "d": 796.2253125000279,
      "v": 72
    },
    {
      "midi": 55,
      "hit": false,
      "t": 242463.45000000077,
      "d": 804.7868750000198,
      "v": 77
    },
    {
      "midi": 57,
      "hit": false,
      "t": 243285.3600000008,
      "d": 1078.7568749999919,
      "v": 83
    },
    {
      "midi": 60,
      "hit": false,
      "t": 243285.3600000008,
      "d": 1130.1262500000012,
      "v": 88
    },
    {
      "midi": 65,
      "hit": false,
      "t": 243285.3600000008,
      "d": 1130.1262500000012,
      "v": 72
    },
    {
      "midi": 58,
      "hit": false,
      "t": 244518.2250000008,
      "d": 1130.1262500000012,
      "v": 84
    },
    {
      "midi": 60,
      "hit": false,
      "t": 244518.2250000008,
      "d": 1207.1803125000151,
      "v": 74
    },
    {
      "midi": 62,
      "hit": false,
      "t": 244518.2250000008,
      "d": 1626.6968750000233,
      "v": 74
    },
    {
      "midi": 65,
      "hit": false,
      "t": 244518.2250000008,
      "d": 1849.2975000000442,
      "v": 67
    },
    {
      "midi": 58,
      "hit": false,
      "t": 245751.0900000008,
      "d": 393.8318750000035,
      "v": 109
    },
    {
      "midi": 57,
      "hit": false,
      "t": 246162.04500000083,
      "d": 393.8318750000035,
      "v": 112
    },
    {
      "midi": 62,
      "hit": false,
      "t": 246573.00000000084,
      "d": 719.171250000014,
      "v": 75
    },
    {
      "midi": 55,
      "hit": false,
      "t": 246573.00000000084,
      "d": 770.5406250000233,
      "v": 58
    },
    {
      "midi": 58,
      "hit": false,
      "t": 246573.00000000084,
      "d": 1643.8200000000652,
      "v": 114
    },
    {
      "midi": 62,
      "hit": false,
      "t": 247394.91000000088,
      "d": 719.171250000014,
      "v": 72
    },
    {
      "midi": 55,
      "hit": false,
      "t": 247394.91000000088,
      "d": 770.5406250000233,
      "v": 62
    },
    {
      "midi": 62,
      "hit": false,
      "t": 248216.8200000009,
      "d": 719.171250000014,
      "v": 72
    },
    {
      "midi": 53,
      "hit": false,
      "t": 248216.8200000009,
      "d": 770.5406250000233,
      "v": 66
    },
    {
      "midi": 58,
      "hit": false,
      "t": 248216.8200000009,
      "d": 770.5406250000233,
      "v": 83
    },
    {
      "midi": 41,
      "hit": false,
      "t": 248216.8200000009,
      "d": 1626.6968750000524,
      "v": 110
    },
    {
      "midi": 53,
      "hit": false,
      "t": 249038.73000000094,
      "d": 667.8018750000047,
      "v": 72
    },
    {
      "midi": 58,
      "hit": false,
      "t": 249038.73000000094,
      "d": 719.171250000014,
      "v": 83
    },
    {
      "midi": 62,
      "hit": false,
      "t": 249038.73000000094,
      "d": 719.171250000014,
      "v": 87
    },
    {
      "midi": 64,
      "hit": false,
      "t": 249860.64000000097,
      "d": 719.171250000014,
      "v": 78
    },
    {
      "midi": 57,
      "hit": false,
      "t": 249860.64000000097,
      "d": 770.5406250000233,
      "v": 82
    },
    {
      "midi": 62,
      "hit": false,
      "t": 249860.64000000097,
      "d": 770.5406250000233,
      "v": 68
    },
    {
      "midi": 62,
      "hit": false,
      "t": 250682.550000001,
      "d": 770.5406249999942,
      "v": 105
    },
    {
      "midi": 64,
      "hit": false,
      "t": 250682.550000001,
      "d": 2440.045312500006,
      "v": 83
    },
    {
      "midi": 57,
      "hit": false,
      "t": 250682.550000001,
      "d": 2465.7300000000105,
      "v": 82
    },
    {
      "midi": 61,
      "hit": false,
      "t": 251504.460000001,
      "d": 1618.1353125000023,
      "v": 115
    },
    {
      "midi": 58,
      "hit": false,
      "t": 253148.28000000102,
      "d": 667.8018750000047,
      "v": 104
    },
    {
      "midi": 69,
      "hit": false,
      "t": 253148.28000000102,
      "d": 667.8018750000047,
      "v": 107
    },
    {
      "midi": 62,
      "hit": false,
      "t": 253148.28000000102,
      "d": 710.609687499993,
      "v": 104
    },
    {
      "midi": 69,
      "hit": false,
      "t": 253970.19000000102,
      "d": 693.4865625000093,
      "v": 93
    },
    {
      "midi": 58,
      "hit": false,
      "t": 253970.19000000102,
      "d": 702.0481250000012,
      "v": 97
    },
    {
      "midi": 62,
      "hit": false,
      "t": 253970.19000000102,
      "d": 727.7328125000058,
      "v": 102
    },
    {
      "midi": 58,
      "hit": false,
      "t": 254792.10000000102,
      "d": 719.171250000014,
      "v": 93
    },
    {
      "midi": 62,
      "hit": false,
      "t": 254792.10000000102,
      "d": 736.2943750000268,
      "v": 102
    },
    {
      "midi": 67,
      "hit": false,
      "t": 254792.10000000102,
      "d": 736.2943750000268,
      "v": 93
    },
    {
      "midi": 58,
      "hit": false,
      "t": 255614.01000000106,
      "d": 676.3634374999965,
      "v": 100
    },
    {
      "midi": 62,
      "hit": false,
      "t": 255614.01000000106,
      "d": 702.0481250000012,
      "v": 107
    },
    {
      "midi": 67,
      "hit": false,
      "t": 255614.01000000106,
      "d": 727.7328125000058,
      "v": 97
    },
    {
      "midi": 57,
      "hit": false,
      "t": 256435.92000000106,
      "d": 624.9940624999872,
      "v": 104
    },
    {
      "midi": 67,
      "hit": false,
      "t": 256435.92000000106,
      "d": 684.9249999999884,
      "v": 87
    },
    {
      "midi": 60,
      "hit": false,
      "t": 256435.92000000106,
      "d": 702.0481250000012,
      "v": 104
    },
    {
      "midi": 67,
      "hit": false,
      "t": 257257.83000000106,
      "d": 710.609687499993,
      "v": 87
    },
    {
      "midi": 57,
      "hit": false,
      "t": 257257.83000000106,
      "d": 744.8559374999895,
      "v": 93
    },
    {
      "midi": 60,
      "hit": false,
      "t": 257257.83000000106,
      "d": 753.4174999999814,
      "v": 95
    },
    {
      "midi": 57,
      "hit": false,
      "t": 258079.74000000104,
      "d": 684.9249999999884,
      "v": 70
    },
    {
      "midi": 65,
      "hit": false,
      "t": 258079.74000000104,
      "d": 710.609687499993,
      "v": 82
    },
    {
      "midi": 60,
      "hit": false,
      "t": 258079.74000000104,
      "d": 736.2943749999977,
      "v": 87
    },
    {
      "midi": 57,
      "hit": false,
      "t": 258901.65000000104,
      "d": 642.1171875,
      "v": 95
    },
    {
      "midi": 60,
      "hit": false,
      "t": 258901.65000000104,
      "d": 684.9249999999884,
      "v": 102
    },
    {
      "midi": 65,
      "hit": false,
      "t": 258901.65000000104,
      "d": 702.0481250000012,
      "v": 91
    },
    {
      "midi": 55,
      "hit": false,
      "t": 259723.56000000105,
      "d": 3287.640000000014,
      "v": 102
    },
    {
      "midi": 58,
      "hit": false,
      "t": 259723.56000000105,
      "d": 3287.640000000014,
      "v": 107
    },
    {
      "midi": 65,
      "hit": false,
      "t": 259723.56000000105,
      "d": 3287.640000000014,
      "v": 82
    },
    {
      "midi": 62,
      "hit": false,
      "t": 263011.20000000106,
      "d": 1618.1353125000023,
      "v": 86
    },
    {
      "midi": 57,
      "hit": false,
      "t": 263011.20000000106,
      "d": 1635.258437499986,
      "v": 88
    },
    {
      "midi": 65,
      "hit": false,
      "t": 263011.20000000106,
      "d": 1635.258437499986,
      "v": 92
    },
    {
      "midi": 60,
      "hit": false,
      "t": 264655.02000000107,
      "d": 1626.6968750000233,
      "v": 59
    },
    {
      "midi": 64,
      "hit": false,
      "t": 264655.02000000107,
      "d": 1626.6968750000233,
      "v": 92
    },
    {
      "midi": 55,
      "hit": false,
      "t": 264655.02000000107,
      "d": 1635.2584375000442,
      "v": 71
    },
    {
      "midi": 57,
      "hit": false,
      "t": 266298.84000000113,
      "d": 1626.6968750000233,
      "v": 64
    },
    {
      "midi": 62,
      "hit": false,
      "t": 266298.84000000113,
      "d": 1626.6968750000233,
      "v": 76
    },
    {
      "midi": 65,
      "hit": false,
      "t": 266298.84000000113,
      "d": 1626.6968750000233,
      "v": 92
    },
    {
      "midi": 55,
      "hit": false,
      "t": 267942.66000000114,
      "d": 4623.2437500000815,
      "v": 82
    },
    {
      "midi": 60,
      "hit": false,
      "t": 267942.66000000114,
      "d": 4623.2437500000815,
      "v": 63
    },
    {
      "midi": 64,
      "hit": false,
      "t": 267942.66000000114,
      "d": 4640.366875000065,
      "v": 95
    },
    {
      "midi": 84,
      "hit": false,
      "t": 269381.00250000117,
      "d": 3741.4028125000186,
      "v": 64
    },
    {
      "midi": 77,
      "hit": false,
      "t": 269483.7412500012,
      "d": 3681.4718750000466,
      "v": 86
    },
    {
      "midi": 76,
      "hit": false,
      "t": 269586.4800000012,
      "d": 3544.4868750000023,
      "v": 82
    }
  ]
}