{
  "jsonPath": "Pop/Dance Pop/Spice Girls/viva-forever-radio-edit.json",
  "path": "Pop\\Dance Pop\\Spice Girls\\Viva Forever (Radio Edit).mid",
  "name": "Viva Forever (Radio Edit)",
  "difficulty": "Advanced",
  "bpm": 84.00149522661503,
  "notes": [
    {
      "midi": 82,
      "hit": false,
      "t": 27440.37758333333,
      "d": 111.5306166666669,
      "v": 65
    },
    {
      "midi": 85,
      "hit": false,
      "t": 27524.02554583333,
      "d": 41.34324583333364,
      "v": 74
    },
    {
      "midi": 90,
      "hit": false,
      "t": 27552.86967083333,
      "d": 50.95795416666806,
      "v": 68
    },
    {
      "midi": 94,
      "hit": false,
      "t": 27586.521149999997,
      "d": 77.87913750000007,
      "v": 68
    },
    {
      "midi": 97,
      "hit": false,
      "t": 27661.515874999997,
      "d": 26.92118333333201,
      "v": 68
    },
    {
      "midi": 102,
      "hit": false,
      "t": 27690.359999999997,
      "d": 94.22414166666567,
      "v": 68
    },
    {
      "midi": 97,
      "hit": false,
      "t": 27783.62267083333,
      "d": 44.22765833333324,
      "v": 74
    },
    {
      "midi": 94,
      "hit": false,
      "t": 27831.696212499995,
      "d": 60.57266249999884,
      "v": 66
    },
    {
      "midi": 90,
      "hit": false,
      "t": 27868.232104166662,
      "d": 46.15060000000085,
      "v": 53
    },
    {
      "midi": 97,
      "hit": false,
      "t": 27918.228587499994,
      "d": 2.8844124999995984,
      "v": 61
    },
    {
      "midi": 97,
      "hit": false,
      "t": 27927.84329583333,
      "d": 26.92118333333201,
      "v": 42
    },
    {
      "midi": 85,
      "hit": false,
      "t": 27956.68742083333,
      "d": 68.26442916666929,
      "v": 58
    },
    {
      "midi": 102,
      "hit": false,
      "t": 27956.68742083333,
      "d": 94.22414166666931,
      "v": 42
    },
    {
      "midi": 82,
      "hit": false,
      "t": 28007.645374999996,
      "d": 361.51303333333635,
      "v": 52
    },
    {
      "midi": 97,
      "hit": false,
      "t": 28050.911562499998,
      "d": 44.22765833333324,
      "v": 48
    },
    {
      "midi": 94,
      "hit": false,
      "t": 28098.985104166662,
      "d": 60.57266250000248,
      "v": 40
    },
    {
      "midi": 90,
      "hit": false,
      "t": 28134.559524999997,
      "d": 46.15060000000085,
      "v": 43
    },
    {
      "midi": 97,
      "hit": false,
      "t": 28185.517479166665,
      "d": 41.34324583333364,
      "v": 46
    },
    {
      "midi": 85,
      "hit": false,
      "t": 28223.9763125,
      "d": 68.26442916666565,
      "v": 40
    },
    {
      "midi": 73,
      "hit": false,
      "t": 42453.74464583333,
      "d": 34.612950000002456,
      "v": 98
    },
    {
      "midi": 75,
      "hit": false,
      "t": 42489.31906666666,
      "d": 36.53589166666643,
      "v": 94
    },
    {
      "midi": 78,
      "hit": false,
      "t": 42540.27702083333,
      "d": 39.420304166669666,
      "v": 89
    },
    {
      "midi": 80,
      "hit": false,
      "t": 42583.543208333336,
      "d": 26.92118333333201,
      "v": 84
    },
    {
      "midi": 82,
      "hit": false,
      "t": 42619.11762916667,
      "d": 22.1138291666648,
      "v": 81
    },
    {
      "midi": 85,
      "hit": false,
      "t": 42650.84616666667,
      "d": 29.805595833335246,
      "v": 77
    },
    {
      "midi": 87,
      "hit": false,
      "t": 42681.61323333334,
      "d": 26.92118333333201,
      "v": 74
    },
    {
      "midi": 90,
      "hit": false,
      "t": 42722.95647916667,
      "d": 26.92118333333201,
      "v": 70
    },
    {
      "midi": 92,
      "hit": false,
      "t": 42758.530900000005,
      "d": 17.30647499999759,
      "v": 66
    },
    {
      "midi": 94,
      "hit": false,
      "t": 42785.45208333334,
      "d": 15.383533333333617,
      "v": 63
    },
    {
      "midi": 97,
      "hit": false,
      "t": 42819.10356250001,
      "d": 15.383533333333617,
      "v": 60
    },
    {
      "midi": 99,
      "hit": false,
      "t": 42845.06327500001,
      "d": 17.30647499999759,
      "v": 57
    },
    {
      "midi": 102,
      "hit": false,
      "t": 42900.828583333336,
      "d": 24.998241666668036,
      "v": 51
    },
    {
      "midi": 51,
      "hit": false,
      "t": 42920.058,
      "d": 688.4131166666702,
      "v": 1
    },
    {
      "midi": 63,
      "hit": false,
      "t": 42920.058,
      "d": 688.4131166666702,
      "v": 1
    },
    {
      "midi": 53,
      "hit": false,
      "t": 43612.317,
      "d": 688.4131166666702,
      "v": 1
    },
    {
      "midi": 65,
      "hit": false,
      "t": 43612.317,
      "d": 688.4131166666702,
      "v": 1
    },
    {
      "midi": 54,
      "hit": false,
      "t": 44304.57600000001,
      "d": 457.660116666666,
      "v": 1
    },
    {
      "midi": 66,
      "hit": false,
      "t": 44304.57600000001,
      "d": 457.660116666666,
      "v": 1
    },
    {
      "midi": 58,
      "hit": false,
      "t": 44766.08200000001,
      "d": 457.6601166666733,
      "v": 1
    },
    {
      "midi": 70,
      "hit": false,
      "t": 44766.08200000001,
      "d": 457.6601166666733,
      "v": 1
    },
    {
      "midi": 53,
      "hit": false,
      "t": 45227.58800000002,
      "d": 1380.6721166666684,
      "v": 1
    },
    {
      "midi": 65,
      "hit": false,
      "t": 45227.58800000002,
      "d": 1380.6721166666684,
      "v": 1
    },
    {
      "midi": 54,
      "hit": false,
      "t": 46612.10600000002,
      "d": 688.4131166666702,
      "v": 1
    },
    {
      "midi": 63,
      "hit": false,
      "t": 46612.10600000002,
      "d": 688.4131166666702,
      "v": 1
    },
    {
      "midi": 66,
      "hit": false,
      "t": 46612.10600000002,
      "d": 688.4131166666702,
      "v": 1
    },
    {
      "midi": 56,
      "hit": false,
      "t": 47304.36500000003,
      "d": 688.4131166666702,
      "v": 1
    },
    {
      "midi": 65,
      "hit": false,
      "t": 47304.36500000003,
      "d": 688.4131166666702,
      "v": 1
    },
    {
      "midi": 68,
      "hit": false,
      "t": 47304.36500000003,
      "d": 688.4131166666702,
      "v": 1
    },
    {
      "midi": 58,
      "hit": false,
      "t": 47996.62400000003,
      "d": 457.660116666666,
      "v": 1
    },
    {
      "midi": 66,
      "hit": false,
      "t": 47996.62400000003,
      "d": 457.660116666666,
      "v": 1
    },
    {
      "midi": 70,
      "hit": false,
      "t": 47996.62400000003,
      "d": 457.660116666666,
      "v": 1
    },
    {
      "midi": 54,
      "hit": false,
      "t": 48458.130000000034,
      "d": 1149.9191166666642,
      "v": 1
    },
    {
      "midi": 66,
      "hit": false,
      "t": 48458.130000000034,
      "d": 1149.9191166666642,
      "v": 1
    },
    {
      "midi": 70,
      "hit": false,
      "t": 48458.130000000034,
      "d": 1149.9191166666642,
      "v": 1
    },
    {
      "midi": 61,
      "hit": false,
      "t": 49611.89500000003,
      "d": 457.660116666666,
      "v": 1
    },
    {
      "midi": 66,
      "hit": false,
      "t": 49611.89500000003,
      "d": 457.660116666666,
      "v": 1
    },
    {
      "midi": 70,
      "hit": false,
      "t": 49611.89500000003,
      "d": 457.660116666666,
      "v": 1
    },
    {
      "midi": 59,
      "hit": false,
      "t": 50073.401000000034,
      "d": 457.660116666666,
      "v": 1
    },
    {
      "midi": 65,
      "hit": false,
      "t": 50073.401000000034,
      "d": 457.660116666666,
      "v": 1
    },
    {
      "midi": 68,
      "hit": false,
      "t": 50073.401000000034,
      "d": 457.660116666666,
      "v": 1
    },
    {
      "midi": 87,
      "hit": false,
      "t": 50304.153999999995,
      "d": 935.5111208333328,
      "v": 108
    },
    {
      "midi": 58,
      "hit": false,
      "t": 50534.907000000036,
      "d": 1149.9191166666642,
      "v": 1
    },
    {
      "midi": 63,
      "hit": false,
      "t": 50534.907000000036,
      "d": 1149.9191166666642,
      "v": 1
    },
    {
      "midi": 66,
      "hit": false,
      "t": 50534.907000000036,
      "d": 1149.9191166666642,
      "v": 1
    },
    {
      "midi": 61,
      "hit": false,
      "t": 51688.672000000035,
      "d": 226.90711666666903,
      "v": 1
    },
    {
      "midi": 65,
      "hit": false,
      "t": 51688.672000000035,
      "d": 226.90711666666903,
      "v": 1
    },
    {
      "midi": 68,
      "hit": false,
      "t": 51688.672000000035,
      "d": 226.90711666666903,
      "v": 1
    },
    {
      "midi": 63,
      "hit": false,
      "t": 51919.42500000004,
      "d": 111.53061666666326,
      "v": 1
    },
    {
      "midi": 66,
      "hit": false,
      "t": 51919.42500000004,
      "d": 111.53061666666326,
      "v": 1
    },
    {
      "midi": 70,
      "hit": false,
      "t": 51919.42500000004,
      "d": 111.53061666666326,
      "v": 1
    },
    {
      "midi": 61,
      "hit": false,
      "t": 52034.80150000004,
      "d": 342.2836166666675,
      "v": 1
    },
    {
      "midi": 65,
      "hit": false,
      "t": 52034.80150000004,
      "d": 342.2836166666675,
      "v": 1
    },
    {
      "midi": 68,
      "hit": false,
      "t": 52034.80150000004,
      "d": 342.2836166666675,
      "v": 1
    },
    {
      "midi": 85,
      "hit": false,
      "t": 52150.17799999999,
      "d": 728.7948916666646,
      "v": 104
    },
    {
      "midi": 58,
      "hit": false,
      "t": 52380.93100000004,
      "d": 1149.9191166666642,
      "v": 1
    },
    {
      "midi": 61,
      "hit": false,
      "t": 52380.93100000004,
      "d": 1149.9191166666642,
      "v": 1
    },
    {
      "midi": 65,
      "hit": false,
      "t": 52380.93100000004,
      "d": 1149.9191166666642,
      "v": 1
    },
    {
      "midi": 59,
      "hit": false,
      "t": 53534.69600000004,
      "d": 226.90711666666903,
      "v": 1
    },
    {
      "midi": 63,
      "hit": false,
      "t": 53534.69600000004,
      "d": 226.90711666666903,
      "v": 1
    },
    {
      "midi": 66,
      "hit": false,
      "t": 53534.69600000004,
      "d": 226.90711666666903,
      "v": 1
    },
    {
      "midi": 61,
      "hit": false,
      "t": 53765.449000000044,
      "d": 111.53061666666326,
      "v": 1
    },
    {
      "midi": 65,
      "hit": false,
      "t": 53765.449000000044,
      "d": 111.53061666666326,
      "v": 1
    },
    {
      "midi": 68,
      "hit": false,
      "t": 53765.449000000044,
      "d": 111.53061666666326,
      "v": 1
    },
    {
      "midi": 59,
      "hit": false,
      "t": 53880.82550000004,
      "d": 342.2836166666675,
      "v": 1
    },
    {
      "midi": 63,
      "hit": false,
      "t": 53880.82550000004,
      "d": 342.2836166666675,
      "v": 1
    },
    {
      "midi": 66,
      "hit": false,
      "t": 53880.82550000004,
      "d": 342.2836166666675,
      "v": 1
    },
    {
      "midi": 87,
      "hit": false,
      "t": 53996.20199999999,
      "d": 618.2257458333333,
      "v": 113
    },
    {
      "midi": 54,
      "hit": false,
      "t": 54226.955000000045,
      "d": 1149.9191166666642,
      "v": 1
    },
    {
      "midi": 59,
      "hit": false,
      "t": 54226.955000000045,
      "d": 1149.9191166666642,
      "v": 1
    },
    {
      "midi": 63,
      "hit": false,
      "t": 54226.955000000045,
      "d": 1149.9191166666642,
      "v": 1
    },
    {
      "midi": 82,
      "hit": false,
      "t": 55380.71999999999,
      "d": 265.36594999999943,
      "v": 99
    },
    {
      "midi": 58,
      "hit": false,
      "t": 55380.720000000045,
      "d": 226.90711666666903,
      "v": 1
    },
    {
      "midi": 61,
      "hit": false,
      "t": 55380.720000000045,
      "d": 226.90711666666903,
      "v": 1
    },
    {
      "midi": 66,
      "hit": false,
      "t": 55380.720000000045,
      "d": 226.90711666666903,
      "v": 1
    },
    {
      "midi": 59,
      "hit": false,
      "t": 55611.47300000005,
      "d": 111.53061666666326,
      "v": 1
    },
    {
      "midi": 63,
      "hit": false,
      "t": 55611.47300000005,
      "d": 111.53061666666326,
      "v": 1
    },
    {
      "midi": 68,
      "hit": false,
      "t": 55611.47300000005,
      "d": 111.53061666666326,
      "v": 1
    },
    {
      "midi": 58,
      "hit": false,
      "t": 55726.84950000005,
      "d": 1496.048616666667,
      "v": 1
    },
    {
      "midi": 61,
      "hit": false,
      "t": 55726.84950000005,
      "d": 1496.048616666667,
      "v": 1
    },
    {
      "midi": 66,
      "hit": false,
      "t": 55726.84950000005,
      "d": 1496.048616666667,
      "v": 1
    },
    {
      "midi": 85,
      "hit": false,
      "t": 55842.22599999999,
      "d": 611.4954500000022,
      "v": 99
    },
    {
      "midi": 90,
      "hit": false,
      "t": 57226.74399999999,
      "d": 198.06299166666577,
      "v": 108
    },
    {
      "midi": 61,
      "hit": false,
      "t": 57226.74400000005,
      "d": 226.90711666666903,
      "v": 1
    },
    {
      "midi": 66,
      "hit": false,
      "t": 57226.74400000005,
      "d": 226.90711666666903,
      "v": 1
    },
    {
      "midi": 70,
      "hit": false,
      "t": 57226.74400000005,
      "d": 226.90711666666903,
      "v": 1
    },
    {
      "midi": 59,
      "hit": false,
      "t": 57457.497000000054,
      "d": 457.660116666666,
      "v": 1
    },
    {
      "midi": 65,
      "hit": false,
      "t": 57457.497000000054,
      "d": 457.660116666666,
      "v": 1
    },
    {
      "midi": 68,
      "hit": false,
      "t": 57457.497000000054,
      "d": 457.660116666666,
      "v": 1
    },
    {
      "midi": 87,
      "hit": false,
      "t": 57688.24999999999,
      "d": 445.1609958333356,
      "v": 91
    },
    {
      "midi": 58,
      "hit": false,
      "t": 57919.003000000055,
      "d": 1149.9191166666642,
      "v": 1
    },
    {
      "midi": 63,
      "hit": false,
      "t": 57919.003000000055,
      "d": 1149.9191166666642,
      "v": 1
    },
    {
      "midi": 66,
      "hit": false,
      "t": 57919.003000000055,
      "d": 1149.9191166666642,
      "v": 1
    },
    {
      "midi": 82,
      "hit": false,
      "t": 59072.768,
      "d": 49.03501249999681,
      "v": 74
    },
    {
      "midi": 61,
      "hit": false,
      "t": 59072.768000000055,
      "d": 226.90711666666903,
      "v": 1
    },
    {
      "midi": 68,
      "hit": false,
      "t": 59072.768000000055,
      "d": 226.90711666666903,
      "v": 1
    },
    {
      "midi": 65,
      "hit": false,
      "t": 59072.768000000055,
      "d": 233.63741250000749,
      "v": 1
    },
    {
      "midi": 63,
      "hit": false,
      "t": 59303.52100000006,
      "d": 111.53061666667054,
      "v": 1
    },
    {
      "midi": 66,
      "hit": false,
      "t": 59303.52100000006,
      "d": 111.53061666667054,
      "v": 1
    },
    {
      "midi": 70,
      "hit": false,
      "t": 59303.52100000006,
      "d": 111.53061666667054,
      "v": 1
    },
    {
      "midi": 65,
      "hit": false,
      "t": 59418.897500000065,
      "d": 342.2836166666675,
      "v": 1
    },
    {
      "midi": 70,
      "hit": false,
      "t": 59418.897500000065,
      "d": 342.2836166666675,
      "v": 1
    },
    {
      "midi": 73,
      "hit": false,
      "t": 59418.897500000065,
      "d": 342.2836166666675,
      "v": 1
    },
    {
      "midi": 85,
      "hit": false,
      "t": 59534.27399999999,
      "d": 414.3939291666684,
      "v": 104
    },
    {
      "midi": 61,
      "hit": false,
      "t": 59765.02700000007,
      "d": 1149.9191166666642,
      "v": 1
    },
    {
      "midi": 65,
      "hit": false,
      "t": 59765.02700000007,
      "d": 1149.9191166666642,
      "v": 1
    },
    {
      "midi": 70,
      "hit": false,
      "t": 59765.02700000007,
      "d": 1149.9191166666642,
      "v": 1
    },
    {
      "midi": 83,
      "hit": false,
      "t": 60918.791999999994,
      "d": 202.87034583333298,
      "v": 99
    },
    {
      "midi": 61,
      "hit": false,
      "t": 60918.79200000007,
      "d": 226.90711666666903,
      "v": 1
    },
    {
      "midi": 66,
      "hit": false,
      "t": 60918.79200000007,
      "d": 226.90711666666903,
      "v": 1
    },
    {
      "midi": 63,
      "hit": false,
      "t": 61149.54500000007,
      "d": 457.660116666666,
      "v": 1
    },
    {
      "midi": 68,
      "hit": false,
      "t": 61149.54500000007,
      "d": 457.660116666666,
      "v": 1
    },
    {
      "midi": 87,
      "hit": false,
      "t": 61380.297999999995,
      "d": 680.7213499999998,
      "v": 104
    },
    {
      "midi": 59,
      "hit": false,
      "t": 61611.05100000007,
      "d": 1149.9191166666642,
      "v": 1
    },
    {
      "midi": 66,
      "hit": false,
      "t": 61611.05100000007,
      "d": 1380.6721166666684,
      "v": 1
    },
    {
      "midi": 82,
      "hit": false,
      "t": 62764.81599999999,
      "d": 199.98593333332974,
      "v": 78
    },
    {
      "midi": 61,
      "hit": false,
      "t": 62764.81600000007,
      "d": 226.90711666666903,
      "v": 1
    },
    {
      "midi": 70,
      "hit": false,
      "t": 62764.81600000007,
      "d": 226.90711666666903,
      "v": 1
    },
    {
      "midi": 59,
      "hit": false,
      "t": 62995.569000000076,
      "d": 113.45355833333451,
      "v": 1
    },
    {
      "midi": 65,
      "hit": false,
      "t": 62995.569000000076,
      "d": 113.45355833333451,
      "v": 1
    },
    {
      "midi": 68,
      "hit": false,
      "t": 62995.569000000076,
      "d": 113.45355833333451,
      "v": 1
    },
    {
      "midi": 58,
      "hit": false,
      "t": 63110.945500000074,
      "d": 1957.5546166666682,
      "v": 1
    },
    {
      "midi": 61,
      "hit": false,
      "t": 63110.945500000074,
      "d": 1957.5546166666682,
      "v": 1
    },
    {
      "midi": 66,
      "hit": false,
      "t": 63110.945500000074,
      "d": 1957.5546166666682,
      "v": 1
    },
    {
      "midi": 85,
      "hit": false,
      "t": 63226.321999999986,
      "d": 654.7616374999998,
      "v": 108
    },
    {
      "midi": 73,
      "hit": false,
      "t": 64606.03264583334,
      "d": 34.612950000002456,
      "v": 98
    },
    {
      "midi": 75,
      "hit": false,
      "t": 64641.60706666667,
      "d": 36.53589166666643,
      "v": 94
    },
    {
      "midi": 78,
      "hit": false,
      "t": 64692.56502083334,
      "d": 39.420304166669666,
      "v": 89
    },
    {
      "midi": 80,
      "hit": false,
      "t": 64735.831208333344,
      "d": 26.92118333333201,
      "v": 84
    },
    {
      "midi": 82,
      "hit": false,
      "t": 64771.40562916668,
      "d": 22.1138291666648,
      "v": 81
    },
    {
      "midi": 85,
      "hit": false,
      "t": 64803.13416666668,
      "d": 29.805595833335246,
      "v": 77
    },
    {
      "midi": 87,
      "hit": false,
      "t": 64831.97829166668,
      "d": 26.92118333333201,
      "v": 74
    },
    {
      "midi": 90,
      "hit": false,
      "t": 64875.24447916668,
      "d": 26.92118333333201,
      "v": 70
    },
    {
      "midi": 92,
      "hit": false,
      "t": 64910.81890000001,
      "d": 17.30647499999759,
      "v": 66
    },
    {
      "midi": 94,
      "hit": false,
      "t": 64937.740083333345,
      "d": 15.383533333333617,
      "v": 63
    },
    {
      "midi": 97,
      "hit": false,
      "t": 64971.391562500015,
      "d": 15.383533333333617,
      "v": 60
    },
    {
      "midi": 99,
      "hit": false,
      "t": 64997.351275000015,
      "d": 17.30647499999759,
      "v": 57
    },
    {
      "midi": 102,
      "hit": false,
      "t": 65053.11658333334,
      "d": 24.998241666668036,
      "v": 51
    },
    {
      "midi": 82,
      "hit": false,
      "t": 65072.34599999998,
      "d": 60.57266250000248,
      "v": 99
    },
    {
      "midi": 73,
      "hit": false,
      "t": 65086.76806250001,
      "d": 34.612950000002456,
      "v": 82
    },
    {
      "midi": 75,
      "hit": false,
      "t": 65110.80483333334,
      "d": 36.53589166666643,
      "v": 73
    },
    {
      "midi": 78,
      "hit": false,
      "t": 65160.80131666668,
      "d": 39.420304166669666,
      "v": 84
    },
    {
      "midi": 80,
      "hit": false,
      "t": 65204.067504166684,
      "d": 26.92118333333201,
      "v": 79
    },
    {
      "midi": 82,
      "hit": false,
      "t": 65240.60339583335,
      "d": 22.1138291666648,
      "v": 76
    },
    {
      "midi": 85,
      "hit": false,
      "t": 65271.37046250002,
      "d": 29.805595833335246,
      "v": 72
    },
    {
      "midi": 87,
      "hit": false,
      "t": 65303.09900000002,
      "d": 26.92118333333201,
      "v": 69
    },
    {
      "midi": 90,
      "hit": false,
      "t": 65343.48077500002,
      "d": 26.92118333333201,
      "v": 65
    },
    {
      "midi": 92,
      "hit": false,
      "t": 65380.016666666685,
      "d": 17.30647499999759,
      "v": 61
    },
    {
      "midi": 94,
      "hit": false,
      "t": 65405.976379166685,
      "d": 15.383533333333617,
      "v": 58
    },
    {
      "midi": 97,
      "hit": false,
      "t": 65439.627858333355,
      "d": 15.383533333333617,
      "v": 55
    },
    {
      "midi": 99,
      "hit": false,
      "t": 65466.54904166669,
      "d": 17.30647499999759,
      "v": 52
    },
    {
      "midi": 102,
      "hit": false,
      "t": 65521.35287916668,
      "d": 24.998241666668036,
      "v": 46
    },
    {
      "midi": 73,
      "hit": false,
      "t": 65555.00435833335,
      "d": 34.61295000000973,
      "v": 74
    },
    {
      "midi": 75,
      "hit": false,
      "t": 65579.04112916668,
      "d": 36.535891666673706,
      "v": 65
    },
    {
      "midi": 78,
      "hit": false,
      "t": 65629.99908333336,
      "d": 39.42030416666239,
      "v": 76
    },
    {
      "midi": 80,
      "hit": false,
      "t": 65673.26527083335,
      "d": 26.921183333339286,
      "v": 71
    },
    {
      "midi": 82,
      "hit": false,
      "t": 65708.83969166668,
      "d": 22.113829166672076,
      "v": 68
    },
    {
      "midi": 85,
      "hit": false,
      "t": 65740.56822916669,
      "d": 29.80559583332797,
      "v": 64
    },
    {
      "midi": 87,
      "hit": false,
      "t": 65771.33529583336,
      "d": 26.921183333339286,
      "v": 61
    },
    {
      "midi": 90,
      "hit": false,
      "t": 65812.6785416667,
      "d": 26.921183333339286,
      "v": 57
    },
    {
      "midi": 92,
      "hit": false,
      "t": 65848.25296250003,
      "d": 17.306475000004866,
      "v": 53
    },
    {
      "midi": 94,
      "hit": false,
      "t": 65875.17414583337,
      "d": 15.38353333332634,
      "v": 50
    },
    {
      "midi": 97,
      "hit": false,
      "t": 65908.82562500003,
      "d": 15.38353333332634,
      "v": 47
    },
    {
      "midi": 99,
      "hit": false,
      "t": 65934.78533750003,
      "d": 17.306475000004866,
      "v": 44
    },
    {
      "midi": 102,
      "hit": false,
      "t": 65990.55064583337,
      "d": 24.99824166666076,
      "v": 38
    },
    {
      "midi": 85,
      "hit": false,
      "t": 66918.36999999998,
      "d": 510.5410125000053,
      "v": 95
    },
    {
      "midi": 87,
      "hit": false,
      "t": 68764.39399999999,
      "d": 491.31159583333647,
      "v": 91
    },
    {
      "midi": 66,
      "hit": false,
      "t": 68764.39400000007,
      "d": 342.2836166666675,
      "v": 1
    },
    {
      "midi": 63,
      "hit": false,
      "t": 69110.52350000007,
      "d": 573.0366166666645,
      "v": 1
    },
    {
      "midi": 61,
      "hit": false,
      "t": 69687.40600000006,
      "d": 342.2836166666675,
      "v": 1
    },
    {
      "midi": 59,
      "hit": false,
      "t": 70033.53550000006,
      "d": 457.660116666666,
      "v": 1
    },
    {
      "midi": 58,
      "hit": false,
      "t": 70495.04150000005,
      "d": 111.53061666667054,
      "v": 1
    },
    {
      "midi": 85,
      "hit": false,
      "t": 70610.41799999999,
      "d": 377.85803750000196,
      "v": 108
    },
    {
      "midi": 61,
      "hit": false,
      "t": 70610.41800000005,
      "d": 688.413116666663,
      "v": 1
    },
    {
      "midi": 59,
      "hit": false,
      "t": 71302.67700000004,
      "d": 111.53061666667054,
      "v": 1
    },
    {
      "midi": 61,
      "hit": false,
      "t": 71418.05350000004,
      "d": 1034.542616666673,
      "v": 1
    },
    {
      "midi": 87,
      "hit": false,
      "t": 72456.442,
      "d": 486.50424166666926,
      "v": 95
    },
    {
      "midi": 85,
      "hit": false,
      "t": 74302.466,
      "d": 584.5742666666629,
      "v": 104
    },
    {
      "midi": 87,
      "hit": false,
      "t": 76148.48999999999,
      "d": 707.6425333333318,
      "v": 95
    },
    {
      "midi": 66,
      "hit": false,
      "t": 76148.49000000005,
      "d": 342.2836166666675,
      "v": 1
    },
    {
      "midi": 63,
      "hit": false,
      "t": 76494.61950000004,
      "d": 573.0366166666645,
      "v": 1
    },
    {
      "midi": 61,
      "hit": false,
      "t": 77071.50200000004,
      "d": 342.2836166666675,
      "v": 1
    },
    {
      "midi": 59,
      "hit": false,
      "t": 77417.63150000003,
      "d": 457.660116666666,
      "v": 1
    },
    {
      "midi": 58,
      "hit": false,
      "t": 77879.13750000003,
      "d": 111.53061666667054,
      "v": 1
    },
    {
      "midi": 85,
      "hit": false,
      "t": 77994.514,
      "d": 803.7896166666615,
      "v": 95
    },
    {
      "midi": 61,
      "hit": false,
      "t": 77994.51400000002,
      "d": 688.413116666663,
      "v": 1
    },
    {
      "midi": 63,
      "hit": false,
      "t": 78686.77300000002,
      "d": 111.53061666667054,
      "v": 1
    },
    {
      "midi": 61,
      "hit": false,
      "t": 78802.14950000001,
      "d": 1034.542616666673,
      "v": 1
    },
    {
      "midi": 73,
      "hit": false,
      "t": 79374.22464583335,
      "d": 34.61294999999518,
      "v": 90
    },
    {
      "midi": 75,
      "hit": false,
      "t": 79409.79906666669,
      "d": 36.535891666673706,
      "v": 86
    },
    {
      "midi": 78,
      "hit": false,
      "t": 79460.75702083336,
      "d": 39.42030416666239,
      "v": 81
    },
    {
      "midi": 80,
      "hit": false,
      "t": 79504.02320833335,
      "d": 26.921183333339286,
      "v": 76
    },
    {
      "midi": 82,
      "hit": false,
      "t": 79539.59762916669,
      "d": 22.113829166672076,
      "v": 73
    },
    {
      "midi": 85,
      "hit": false,
      "t": 79571.3261666667,
      "d": 29.805595833342522,
      "v": 69
    },
    {
      "midi": 87,
      "hit": false,
      "t": 79600.1702916667,
      "d": 26.921183333339286,
      "v": 66
    },
    {
      "midi": 90,
      "hit": false,
      "t": 79643.4364791667,
      "d": 26.921183333339286,
      "v": 62
    },
    {
      "midi": 92,
      "hit": false,
      "t": 79679.01090000004,
      "d": 17.306475000004866,
      "v": 58
    },
    {
      "midi": 94,
      "hit": false,
      "t": 79705.93208333338,
      "d": 15.38353333332634,
      "v": 55
    },
    {
      "midi": 97,
      "hit": false,
      "t": 79739.58356250003,
      "d": 15.38353333332634,
      "v": 52
    },
    {
      "midi": 99,
      "hit": false,
      "t": 79765.54327500003,
      "d": 17.306475000004866,
      "v": 49
    },
    {
      "midi": 102,
      "hit": false,
      "t": 79821.30858333338,
      "d": 24.99824166666076,
      "v": 43
    },
    {
      "midi": 51,
      "hit": false,
      "t": 79840.53800000002,
      "d": 688.413116666663,
      "v": 1
    },
    {
      "midi": 63,
      "hit": false,
      "t": 79840.53800000002,
      "d": 688.413116666663,
      "v": 1
    },
    {
      "midi": 66,
      "hit": false,
      "t": 79840.53800000002,
      "d": 688.413116666663,
      "v": 1
    },
    {
      "midi": 73,
      "hit": false,
      "t": 79854.96006250003,
      "d": 34.61295000000973,
      "v": 74
    },
    {
      "midi": 75,
      "hit": false,
      "t": 79878.99683333337,
      "d": 36.535891666673706,
      "v": 65
    },
    {
      "midi": 78,
      "hit": false,
      "t": 79928.9933166667,
      "d": 39.42030416666239,
      "v": 76
    },
    {
      "midi": 80,
      "hit": false,
      "t": 79972.2595041667,
      "d": 26.921183333339286,
      "v": 71
    },
    {
      "midi": 82,
      "hit": false,
      "t": 80008.79539583337,
      "d": 22.113829166672076,
      "v": 68
    },
    {
      "midi": 85,
      "hit": false,
      "t": 80039.56246250003,
      "d": 29.80559583332797,
      "v": 64
    },
    {
      "midi": 87,
      "hit": false,
      "t": 80071.29100000003,
      "d": 26.921183333339286,
      "v": 61
    },
    {
      "midi": 90,
      "hit": false,
      "t": 80111.67277500003,
      "d": 26.921183333339286,
      "v": 57
    },
    {
      "midi": 92,
      "hit": false,
      "t": 80148.2086666667,
      "d": 17.306475000004866,
      "v": 53
    },
    {
      "midi": 94,
      "hit": false,
      "t": 80174.1683791667,
      "d": 15.38353333332634,
      "v": 50
    },
    {
      "midi": 97,
      "hit": false,
      "t": 80207.81985833336,
      "d": 15.38353333332634,
      "v": 47
    },
    {
      "midi": 99,
      "hit": false,
      "t": 80234.74104166668,
      "d": 17.306475000004866,
      "v": 44
    },
    {
      "midi": 102,
      "hit": false,
      "t": 80289.54487916669,
      "d": 24.99824166666076,
      "v": 38
    },
    {
      "midi": 73,
      "hit": false,
      "t": 80323.19635833334,
      "d": 34.61295000000973,
      "v": 66
    },
    {
      "midi": 75,
      "hit": false,
      "t": 80347.23312916668,
      "d": 36.535891666673706,
      "v": 57
    },
    {
      "midi": 78,
      "hit": false,
      "t": 80398.19108333335,
      "d": 39.42030416666239,
      "v": 68
    },
    {
      "midi": 80,
      "hit": false,
      "t": 80441.45727083334,
      "d": 26.921183333339286,
      "v": 63
    },
    {
      "midi": 82,
      "hit": false,
      "t": 80477.03169166668,
      "d": 22.113829166672076,
      "v": 60
    },
    {
      "midi": 85,
      "hit": false,
      "t": 80508.76022916668,
      "d": 29.80559583332797,
      "v": 56
    },
    {
      "midi": 53,
      "hit": false,
      "t": 80532.797,
      "d": 688.413116666663,
      "v": 1
    },
    {
      "midi": 65,
      "hit": false,
      "t": 80532.797,
      "d": 688.413116666663,
      "v": 1
    },
    {
      "midi": 68,
      "hit": false,
      "t": 80532.797,
      "d": 688.413116666663,
      "v": 1
    },
    {
      "midi": 87,
      "hit": false,
      "t": 80539.52729583335,
      "d": 26.921183333339286,
      "v": 53
    },
    {
      "midi": 90,
      "hit": false,
      "t": 80580.87054166669,
      "d": 26.921183333339286,
      "v": 49
    },
    {
      "midi": 92,
      "hit": false,
      "t": 80616.44496250003,
      "d": 17.306475000004866,
      "v": 45
    },
    {
      "midi": 94,
      "hit": false,
      "t": 80643.36614583337,
      "d": 15.38353333332634,
      "v": 42
    },
    {
      "midi": 97,
      "hit": false,
      "t": 80677.01762500002,
      "d": 15.38353333332634,
      "v": 39
    },
    {
      "midi": 99,
      "hit": false,
      "t": 80702.97733750002,
      "d": 17.306475000004866,
      "v": 36
    },
    {
      "midi": 102,
      "hit": false,
      "t": 80758.74264583336,
      "d": 24.99824166666076,
      "v": 30
    },
    {
      "midi": 54,
      "hit": false,
      "t": 81225.056,
      "d": 457.660116666666,
      "v": 1
    },
    {
      "midi": 66,
      "hit": false,
      "t": 81225.056,
      "d": 457.660116666666,
      "v": 1
    },
    {
      "midi": 70,
      "hit": false,
      "t": 81225.056,
      "d": 457.660116666666,
      "v": 1
    },
    {
      "midi": 58,
      "hit": false,
      "t": 81686.56199999999,
      "d": 457.660116666666,
      "v": 1
    },
    {
      "midi": 70,
      "hit": false,
      "t": 81686.56199999999,
      "d": 457.660116666666,
      "v": 1
    },
    {
      "midi": 73,
      "hit": false,
      "t": 81686.56199999999,
      "d": 457.660116666666,
      "v": 1
    },
    {
      "midi": 53,
      "hit": false,
      "t": 82148.06799999998,
      "d": 1380.6721166666684,
      "v": 1
    },
    {
      "midi": 65,
      "hit": false,
      "t": 82148.06799999998,
      "d": 1380.6721166666684,
      "v": 1
    },
    {
      "midi": 68,
      "hit": false,
      "t": 82148.06799999998,
      "d": 1380.6721166666684,
      "v": 1
    },
    {
      "midi": 54,
      "hit": false,
      "t": 83532.58599999998,
      "d": 688.413116666663,
      "v": 1
    },
    {
      "midi": 63,
      "hit": false,
      "t": 83532.58599999998,
      "d": 688.413116666663,
      "v": 1
    },
    {
      "midi": 66,
      "hit": false,
      "t": 83532.58599999998,
      "d": 688.413116666663,
      "v": 1
    },
    {
      "midi": 56,
      "hit": false,
      "t": 84224.84499999997,
      "d": 688.413116666663,
      "v": 1
    },
    {
      "midi": 65,
      "hit": false,
      "t": 84224.84499999997,
      "d": 688.413116666663,
      "v": 1
    },
    {
      "midi": 68,
      "hit": false,
      "t": 84224.84499999997,
      "d": 688.413116666663,
      "v": 1
    },
    {
      "midi": 58,
      "hit": false,
      "t": 84917.10399999996,
      "d": 457.660116666666,
      "v": 1
    },
    {
      "midi": 66,
      "hit": false,
      "t": 84917.10399999996,
      "d": 457.660116666666,
      "v": 1
    },
    {
      "midi": 70,
      "hit": false,
      "t": 84917.10399999996,
      "d": 457.660116666666,
      "v": 1
    },
    {
      "midi": 54,
      "hit": false,
      "t": 85378.60999999996,
      "d": 1380.6721166666684,
      "v": 1
    },
    {
      "midi": 66,
      "hit": false,
      "t": 85378.60999999996,
      "d": 1380.6721166666684,
      "v": 1
    },
    {
      "midi": 70,
      "hit": false,
      "t": 85378.60999999996,
      "d": 1380.6721166666684,
      "v": 1
    },
    {
      "midi": 61,
      "hit": false,
      "t": 86763.12799999995,
      "d": 226.90711666666903,
      "v": 1
    },
    {
      "midi": 66,
      "hit": false,
      "t": 86763.12799999995,
      "d": 226.90711666666903,
      "v": 1
    },
    {
      "midi": 70,
      "hit": false,
      "t": 86763.12799999995,
      "d": 226.90711666666903,
      "v": 1
    },
    {
      "midi": 59,
      "hit": false,
      "t": 86993.88099999995,
      "d": 457.660116666666,
      "v": 1
    },
    {
      "midi": 65,
      "hit": false,
      "t": 86993.88099999995,
      "d": 457.660116666666,
      "v": 1
    },
    {
      "midi": 68,
      "hit": false,
      "t": 86993.88099999995,
      "d": 457.660116666666,
      "v": 1
    },
    {
      "midi": 87,
      "hit": false,
      "t": 87224.63399999999,
      "d": 935.5111208333401,
      "v": 108
    },
    {
      "midi": 58,
      "hit": false,
      "t": 87455.38699999994,
      "d": 1149.9191166666715,
      "v": 1
    },
    {
      "midi": 63,
      "hit": false,
      "t": 87455.38699999994,
      "d": 1149.9191166666715,
      "v": 1
    },
    {
      "midi": 66,
      "hit": false,
      "t": 87455.38699999994,
      "d": 1149.9191166666715,
      "v": 1
    },
    {
      "midi": 61,
      "hit": false,
      "t": 88609.15199999994,
      "d": 226.90711666666903,
      "v": 1
    },
    {
      "midi": 65,
      "hit": false,
      "t": 88609.15199999994,
      "d": 226.90711666666903,
      "v": 1
    },
    {
      "midi": 68,
      "hit": false,
      "t": 88609.15199999994,
      "d": 226.90711666666903,
      "v": 1
    },
    {
      "midi": 63,
      "hit": false,
      "t": 88839.90499999994,
      "d": 111.53061666667054,
      "v": 1
    },
    {
      "midi": 66,
      "hit": false,
      "t": 88839.90499999994,
      "d": 111.53061666667054,
      "v": 1
    },
    {
      "midi": 70,
      "hit": false,
      "t": 88839.90499999994,
      "d": 111.53061666667054,
      "v": 1
    },
    {
      "midi": 61,
      "hit": false,
      "t": 88955.28149999994,
      "d": 342.2836166666675,
      "v": 1
    },
    {
      "midi": 65,
      "hit": false,
      "t": 88955.28149999994,
      "d": 342.2836166666675,
      "v": 1
    },
    {
      "midi": 68,
      "hit": false,
      "t": 88955.28149999994,
      "d": 342.2836166666675,
      "v": 1
    },
    {
      "midi": 85,
      "hit": false,
      "t": 89070.658,
      "d": 728.7948916666646,
      "v": 104
    },
    {
      "midi": 58,
      "hit": false,
      "t": 89301.41099999993,
      "d": 1149.9191166666715,
      "v": 1
    },
    {
      "midi": 61,
      "hit": false,
      "t": 89301.41099999993,
      "d": 1149.9191166666715,
      "v": 1
    },
    {
      "midi": 65,
      "hit": false,
      "t": 89301.41099999993,
      "d": 1149.9191166666715,
      "v": 1
    },
    {
      "midi": 59,
      "hit": false,
      "t": 90455.17599999993,
      "d": 226.90711666666903,
      "v": 1
    },
    {
      "midi": 63,
      "hit": false,
      "t": 90455.17599999993,
      "d": 226.90711666666903,
      "v": 1
    },
    {
      "midi": 66,
      "hit": false,
      "t": 90455.17599999993,
      "d": 226.90711666666903,
      "v": 1
    },
    {
      "midi": 61,
      "hit": false,
      "t": 90685.92899999993,
      "d": 111.53061666667054,
      "v": 1
    },
    {
      "midi": 65,
      "hit": false,
      "t": 90685.92899999993,
      "d": 111.53061666667054,
      "v": 1
    },
    {
      "midi": 68,
      "hit": false,
      "t": 90685.92899999993,
      "d": 111.53061666667054,
      "v": 1
    },
    {
      "midi": 59,
      "hit": false,
      "t": 90801.30549999993,
      "d": 342.2836166666675,
      "v": 1
    },
    {
      "midi": 63,
      "hit": false,
      "t": 90801.30549999993,
      "d": 342.2836166666675,
      "v": 1
    },
    {
      "midi": 66,
      "hit": false,
      "t": 90801.30549999993,
      "d": 342.2836166666675,
      "v": 1
    },
    {
      "midi": 87,
      "hit": false,
      "t": 90916.682,
      "d": 618.2257458333333,
      "v": 113
    },
    {
      "midi": 54,
      "hit": false,
      "t": 91147.43499999992,
      "d": 1149.9191166666715,
      "v": 1
    },
    {
      "midi": 59,
      "hit": false,
      "t": 91147.43499999992,
      "d": 1149.9191166666715,
      "v": 1
    },
    {
      "midi": 63,
      "hit": false,
      "t": 91147.43499999992,
      "d": 1149.9191166666715,
      "v": 1
    },
    {
      "midi": 58,
      "hit": false,
      "t": 92301.19999999992,
      "d": 226.90711666666903,
      "v": 1
    },
    {
      "midi": 61,
      "hit": false,
      "t": 92301.19999999992,
      "d": 226.90711666666903,
      "v": 1
    },
    {
      "midi": 66,
      "hit": false,
      "t": 92301.19999999992,
      "d": 226.90711666666903,
      "v": 1
    },
    {
      "midi": 82,
      "hit": false,
      "t": 92301.2,
      "d": 265.3659500000067,
      "v": 99
    },
    {
      "midi": 59,
      "hit": false,
      "t": 92531.95299999992,
      "d": 111.53061666667054,
      "v": 1
    },
    {
      "midi": 63,
      "hit": false,
      "t": 92531.95299999992,
      "d": 111.53061666667054,
      "v": 1
    },
    {
      "midi": 68,
      "hit": false,
      "t": 92531.95299999992,
      "d": 111.53061666667054,
      "v": 1
    },
    {
      "midi": 58,
      "hit": false,
      "t": 92647.32949999992,
      "d": 1496.048616666667,
      "v": 1
    },
    {
      "midi": 61,
      "hit": false,
      "t": 92647.32949999992,
      "d": 1496.048616666667,
      "v": 1
    },
    {
      "midi": 66,
      "hit": false,
      "t": 92647.32949999992,
      "d": 1496.048616666667,
      "v": 1
    },
    {
      "midi": 85,
      "hit": false,
      "t": 92762.706,
      "d": 611.4954500000022,
      "v": 99
    },
    {
      "midi": 61,
      "hit": false,
      "t": 94147.22399999991,
      "d": 226.90711666666903,
      "v": 1
    },
    {
      "midi": 66,
      "hit": false,
      "t": 94147.22399999991,
      "d": 226.90711666666903,
      "v": 1
    },
    {
      "midi": 70,
      "hit": false,
      "t": 94147.22399999991,
      "d": 226.90711666666903,
      "v": 1
    },
    {
      "midi": 90,
      "hit": false,
      "t": 94147.224,
      "d": 198.06299166666577,
      "v": 108
    },
    {
      "midi": 59,
      "hit": false,
      "t": 94377.97699999991,
      "d": 457.660116666666,
      "v": 1
    },
    {
      "midi": 65,
      "hit": false,
      "t": 94377.97699999991,
      "d": 457.660116666666,
      "v": 1
    },
    {
      "midi": 68,
      "hit": false,
      "t": 94377.97699999991,
      "d": 457.660116666666,
      "v": 1
    },
    {
      "midi": 87,
      "hit": false,
      "t": 94608.73,
      "d": 445.16099583332834,
      "v": 91
    },
    {
      "midi": 58,
      "hit": false,
      "t": 94839.4829999999,
      "d": 1149.9191166666715,
      "v": 1
    },
    {
      "midi": 63,
      "hit": false,
      "t": 94839.4829999999,
      "d": 1149.9191166666715,
      "v": 1
    },
    {
      "midi": 66,
      "hit": false,
      "t": 94839.4829999999,
      "d": 1149.9191166666715,
      "v": 1
    },
    {
      "midi": 61,
      "hit": false,
      "t": 95993.2479999999,
      "d": 204.79328749999695,
      "v": 1
    },
    {
      "midi": 68,
      "hit": false,
      "t": 95993.2479999999,
      "d": 204.79328749999695,
      "v": 1
    },
    {
      "midi": 65,
      "hit": false,
      "t": 95993.2479999999,
      "d": 233.6374125000002,
      "v": 1
    },
    {
      "midi": 82,
      "hit": false,
      "t": 95993.24799999999,
      "d": 49.03501249999681,
      "v": 74
    },
    {
      "midi": 63,
      "hit": false,
      "t": 96224.0009999999,
      "d": 111.53061666667054,
      "v": 1
    },
    {
      "midi": 66,
      "hit": false,
      "t": 96224.0009999999,
      "d": 111.53061666667054,
      "v": 1
    },
    {
      "midi": 70,
      "hit": false,
      "t": 96224.0009999999,
      "d": 111.53061666667054,
      "v": 1
    },
    {
      "midi": 65,
      "hit": false,
      "t": 96339.3774999999,
      "d": 342.2836166666675,
      "v": 1
    },
    {
      "midi": 70,
      "hit": false,
      "t": 96339.3774999999,
      "d": 342.2836166666675,
      "v": 1
    },
    {
      "midi": 73,
      "hit": false,
      "t": 96339.3774999999,
      "d": 342.2836166666675,
      "v": 1
    },
    {
      "midi": 85,
      "hit": false,
      "t": 96454.75399999999,
      "d": 414.3939291666611,
      "v": 104
    },
    {
      "midi": 61,
      "hit": false,
      "t": 96685.5069999999,
      "d": 1149.9191166666715,
      "v": 1
    },
    {
      "midi": 65,
      "hit": false,
      "t": 96685.5069999999,
      "d": 1149.9191166666715,
      "v": 1
    },
    {
      "midi": 70,
      "hit": false,
      "t": 96685.5069999999,
      "d": 1149.9191166666715,
      "v": 1
    },
    {
      "midi": 61,
      "hit": false,
      "t": 97839.2719999999,
      "d": 226.90711666666903,
      "v": 1
    },
    {
      "midi": 66,
      "hit": false,
      "t": 97839.2719999999,
      "d": 226.90711666666903,
      "v": 1
    },
    {
      "midi": 83,
      "hit": false,
      "t": 97839.27199999998,
      "d": 202.87034583333298,
      "v": 99
    },
    {
      "midi": 63,
      "hit": false,
      "t": 98070.02499999989,
      "d": 457.660116666666,
      "v": 1
    },
    {
      "midi": 68,
      "hit": false,
      "t": 98070.02499999989,
      "d": 457.660116666666,
      "v": 1
    },
    {
      "midi": 87,
      "hit": false,
      "t": 98300.77799999998,
      "d": 680.7213500000071,
      "v": 104
    },
    {
      "midi": 59,
      "hit": false,
      "t": 98531.53099999989,
      "d": 1149.9191166666715,
      "v": 1
    },
    {
      "midi": 66,
      "hit": false,
      "t": 98531.53099999989,
      "d": 1149.9191166666715,
      "v": 1
    },
    {
      "midi": 58,
      "hit": false,
      "t": 99685.29599999989,
      "d": 226.90711666666903,
      "v": 1
    },
    {
      "midi": 61,
      "hit": false,
      "t": 99685.29599999989,
      "d": 226.90711666666903,
      "v": 1
    },
    {
      "midi": 66,
      "hit": false,
      "t": 99685.29599999989,
      "d": 226.90711666666903,
      "v": 1
    },
    {
      "midi": 82,
      "hit": false,
      "t": 99685.29599999999,
      "d": 199.98593333332974,
      "v": 78
    },
    {
      "midi": 56,
      "hit": false,
      "t": 99916.04899999988,
      "d": 113.45355833333451,
      "v": 1
    },
    {
      "midi": 59,
      "hit": false,
      "t": 99916.04899999988,
      "d": 113.45355833333451,
      "v": 1
    },
    {
      "midi": 65,
      "hit": false,
      "t": 99916.04899999988,
      "d": 113.45355833333451,
      "v": 1
    },
    {
      "midi": 54,
      "hit": false,
      "t": 100031.42549999988,
      "d": 1842.1781166666624,
      "v": 1
    },
    {
      "midi": 58,
      "hit": false,
      "t": 100031.42549999988,
      "d": 1842.1781166666624,
      "v": 1
    },
    {
      "midi": 66,
      "hit": false,
      "t": 100031.42549999988,
      "d": 1842.1781166666624,
      "v": 1
    },
    {
      "midi": 85,
      "hit": false,
      "t": 100146.80199999998,
      "d": 654.761637500007,
      "v": 108
    },
    {
      "midi": 82,
      "hit": false,
      "t": 101992.82599999999,
      "d": 60.572662499995204,
      "v": 99
    },
    {
      "midi": 73,
      "hit": false,
      "t": 102007.24806250002,
      "d": 34.61295000000973,
      "v": 82
    },
    {
      "midi": 75,
      "hit": false,
      "t": 102031.28483333335,
      "d": 36.535891666673706,
      "v": 73
    },
    {
      "midi": 78,
      "hit": false,
      "t": 102081.28131666669,
      "d": 39.42030416666239,
      "v": 84
    },
    {
      "midi": 80,
      "hit": false,
      "t": 102124.54750416668,
      "d": 26.921183333339286,
      "v": 79
    },
    {
      "midi": 82,
      "hit": false,
      "t": 102161.08339583335,
      "d": 22.113829166672076,
      "v": 76
    },
    {
      "midi": 85,
      "hit": false,
      "t": 102191.85046250002,
      "d": 29.80559583332797,
      "v": 72
    },
    {
      "midi": 87,
      "hit": false,
      "t": 102223.57900000001,
      "d": 26.921183333339286,
      "v": 69
    },
    {
      "midi": 90,
      "hit": false,
      "t": 102263.96077500001,
      "d": 26.921183333339286,
      "v": 65
    },
    {
      "midi": 92,
      "hit": false,
      "t": 102300.49666666669,
      "d": 17.306475000004866,
      "v": 61
    },
    {
      "midi": 94,
      "hit": false,
      "t": 102326.45637916669,
      "d": 15.38353333332634,
      "v": 58
    },
    {
      "midi": 97,
      "hit": false,
      "t": 102360.10785833334,
      "d": 15.38353333332634,
      "v": 55
    },
    {
      "midi": 99,
      "hit": false,
      "t": 102387.02904166667,
      "d": 17.306475000004866,
      "v": 52
    },
    {
      "midi": 102,
      "hit": false,
      "t": 102441.83287916667,
      "d": 24.99824166666076,
      "v": 46
    },
    {
      "midi": 73,
      "hit": false,
      "t": 102475.48435833333,
      "d": 34.61295000000973,
      "v": 74
    },
    {
      "midi": 75,
      "hit": false,
      "t": 102499.52112916666,
      "d": 36.535891666673706,
      "v": 65
    },
    {
      "midi": 78,
      "hit": false,
      "t": 102550.47908333334,
      "d": 39.42030416666239,
      "v": 76
    },
    {
      "midi": 80,
      "hit": false,
      "t": 102593.74527083333,
      "d": 26.921183333339286,
      "v": 71
    },
    {
      "midi": 82,
      "hit": false,
      "t": 102629.31969166666,
      "d": 22.113829166672076,
      "v": 68
    },
    {
      "midi": 85,
      "hit": false,
      "t": 102661.04822916667,
      "d": 29.80559583332797,
      "v": 64
    },
    {
      "midi": 87,
      "hit": false,
      "t": 102691.81529583334,
      "d": 26.921183333339286,
      "v": 61
    },
    {
      "midi": 90,
      "hit": false,
      "t": 102733.15854166668,
      "d": 26.921183333339286,
      "v": 57
    },
    {
      "midi": 92,
      "hit": false,
      "t": 102768.73296250001,
      "d": 17.306475000004866,
      "v": 53
    },
    {
      "midi": 94,
      "hit": false,
      "t": 102795.65414583335,
      "d": 15.38353333332634,
      "v": 50
    },
    {
      "midi": 97,
      "hit": false,
      "t": 102829.30562500001,
      "d": 15.38353333332634,
      "v": 47
    },
    {
      "midi": 99,
      "hit": false,
      "t": 102855.26533750001,
      "d": 17.306475000004866,
      "v": 44
    },
    {
      "midi": 102,
      "hit": false,
      "t": 102911.03064583335,
      "d": 24.99824166666076,
      "v": 38
    },
    {
      "midi": 85,
      "hit": false,
      "t": 103838.84999999998,
      "d": 510.5410125000053,
      "v": 95
    },
    {
      "midi": 90,
      "hit": false,
      "t": 105800.25049999998,
      "d": 137.49032916667056,
      "v": 68
    },
    {
      "midi": 87,
      "hit": false,
      "t": 105915.62699999998,
      "d": 371.1277416666562,
      "v": 63
    },
    {
      "midi": 90,
      "hit": false,
      "t": 106031.00349999998,
      "d": 375.93509583332343,
      "v": 70
    },
    {
      "midi": 95,
      "hit": false,
      "t": 106261.75649999997,
      "d": 406.70216249999066,
      "v": 48
    },
    {
      "midi": 87,
      "hit": false,
      "t": 106377.13299999997,
      "d": 416.3168708333251,
      "v": 61
    },
    {
      "midi": 90,
      "hit": false,
      "t": 106492.50949999997,
      "d": 397.08745416665624,
      "v": 70
    },
    {
      "midi": 95,
      "hit": false,
      "t": 106723.26249999997,
      "d": 741.2940124999877,
      "v": 68
    },
    {
      "midi": 87,
      "hit": false,
      "t": 106838.63899999997,
      "d": 154.79680416666088,
      "v": 63
    },
    {
      "midi": 90,
      "hit": false,
      "t": 106954.01549999996,
      "d": 522.0786624999892,
      "v": 66
    },
    {
      "midi": 83,
      "hit": false,
      "t": 107184.76849999996,
      "d": 320.16978749999544,
      "v": 63
    },
    {
      "midi": 87,
      "hit": false,
      "t": 109376.92199999996,
      "d": 486.50424166666926,
      "v": 95
    },
    {
      "midi": 85,
      "hit": false,
      "t": 111222.94599999997,
      "d": 584.5742666666629,
      "v": 104
    },
    {
      "midi": 87,
      "hit": false,
      "t": 113068.96999999996,
      "d": 707.6425333333318,
      "v": 95
    },
    {
      "midi": 85,
      "hit": false,
      "t": 114914.99399999996,
      "d": 803.7896166666615,
      "v": 95
    },
    {
      "midi": 73,
      "hit": false,
      "t": 116294.70464583334,
      "d": 34.61294999999518,
      "v": 90
    },
    {
      "midi": 75,
      "hit": false,
      "t": 116330.27906666667,
      "d": 36.535891666673706,
      "v": 86
    },
    {
      "midi": 78,
      "hit": false,
      "t": 116381.23702083335,
      "d": 39.42030416666239,
      "v": 81
    },
    {
      "midi": 80,
      "hit": false,
      "t": 116424.50320833334,
      "d": 26.921183333339286,
      "v": 76
    },
    {
      "midi": 82,
      "hit": false,
      "t": 116460.07762916667,
      "d": 22.113829166672076,
      "v": 73
    },
    {
      "midi": 85,
      "hit": false,
      "t": 116491.80616666668,
      "d": 29.805595833342522,
      "v": 69
    },
    {
      "midi": 87,
      "hit": false,
      "t": 116520.65029166668,
      "d": 26.921183333339286,
      "v": 66
    },
    {
      "midi": 90,
      "hit": false,
      "t": 116563.91647916668,
      "d": 26.921183333339286,
      "v": 62
    },
    {
      "midi": 92,
      "hit": false,
      "t": 116599.49090000002,
      "d": 17.306475000004866,
      "v": 58
    },
    {
      "midi": 94,
      "hit": false,
      "t": 116626.41208333336,
      "d": 15.38353333332634,
      "v": 55
    },
    {
      "midi": 97,
      "hit": false,
      "t": 116660.06356250001,
      "d": 15.38353333332634,
      "v": 52
    },
    {
      "midi": 99,
      "hit": false,
      "t": 116686.02327500001,
      "d": 17.306475000004866,
      "v": 49
    },
    {
      "midi": 70,
      "hit": false,
      "t": 116741.78858333321,
      "d": 1808.5266375000065,
      "v": 1
    },
    {
      "midi": 102,
      "hit": false,
      "t": 116741.78858333336,
      "d": 24.99824166666076,
      "v": 43
    },
    {
      "midi": 63,
      "hit": false,
      "t": 116761.01799999988,
      "d": 1842.1781166666624,
      "v": 1
    },
    {
      "midi": 66,
      "hit": false,
      "t": 116761.01799999988,
      "d": 1842.1781166666624,
      "v": 1
    },
    {
      "midi": 73,
      "hit": false,
      "t": 116775.44006250001,
      "d": 34.61295000000973,
      "v": 74
    },
    {
      "midi": 75,
      "hit": false,
      "t": 116799.47683333335,
      "d": 36.535891666673706,
      "v": 65
    },
    {
      "midi": 78,
      "hit": false,
      "t": 116849.47331666668,
      "d": 39.42030416666239,
      "v": 76
    },
    {
      "midi": 80,
      "hit": false,
      "t": 116892.73950416668,
      "d": 26.921183333339286,
      "v": 71
    },
    {
      "midi": 82,
      "hit": false,
      "t": 116929.27539583335,
      "d": 22.113829166672076,
      "v": 68
    },
    {
      "midi": 85,
      "hit": false,
      "t": 116960.04246250002,
      "d": 29.80559583332797,
      "v": 64
    },
    {
      "midi": 87,
      "hit": false,
      "t": 116991.77100000001,
      "d": 26.921183333339286,
      "v": 61
    },
    {
      "midi": 90,
      "hit": false,
      "t": 117032.15277500001,
      "d": 26.921183333339286,
      "v": 57
    },
    {
      "midi": 92,
      "hit": false,
      "t": 117068.68866666668,
      "d": 17.306475000004866,
      "v": 53
    },
    {
      "midi": 94,
      "hit": false,
      "t": 117094.64837916668,
      "d": 15.38353333332634,
      "v": 50
    },
    {
      "midi": 97,
      "hit": false,
      "t": 117128.29985833334,
      "d": 15.38353333332634,
      "v": 47
    },
    {
      "midi": 99,
      "hit": false,
      "t": 117155.22104166666,
      "d": 17.306475000004866,
      "v": 44
    },
    {
      "midi": 102,
      "hit": false,
      "t": 117210.02487916667,
      "d": 24.99824166666076,
      "v": 38
    },
    {
      "midi": 73,
      "hit": false,
      "t": 117243.67635833332,
      "d": 34.61295000000973,
      "v": 66
    },
    {
      "midi": 75,
      "hit": false,
      "t": 117267.71312916666,
      "d": 36.535891666673706,
      "v": 57
    },
    {
      "midi": 78,
      "hit": false,
      "t": 117318.67108333333,
      "d": 39.42030416666239,
      "v": 68
    },
    {
      "midi": 80,
      "hit": false,
      "t": 117361.93727083332,
      "d": 26.921183333339286,
      "v": 63
    },
    {
      "midi": 82,
      "hit": false,
      "t": 117397.51169166666,
      "d": 22.113829166672076,
      "v": 60
    },
    {
      "midi": 85,
      "hit": false,
      "t": 117429.24022916667,
      "d": 29.80559583332797,
      "v": 56
    },
    {
      "midi": 87,
      "hit": false,
      "t": 117460.00729583333,
      "d": 26.921183333339286,
      "v": 53
    },
    {
      "midi": 90,
      "hit": false,
      "t": 117501.35054166667,
      "d": 26.921183333339286,
      "v": 49
    },
    {
      "midi": 92,
      "hit": false,
      "t": 117536.92496250001,
      "d": 17.306475000004866,
      "v": 45
    },
    {
      "midi": 94,
      "hit": false,
      "t": 117563.84614583335,
      "d": 15.38353333332634,
      "v": 42
    },
    {
      "midi": 97,
      "hit": false,
      "t": 117597.497625,
      "d": 15.38353333332634,
      "v": 39
    },
    {
      "midi": 99,
      "hit": false,
      "t": 117623.4573375,
      "d": 17.306475000004866,
      "v": 36
    },
    {
      "midi": 102,
      "hit": false,
      "t": 117679.22264583335,
      "d": 24.99824166666076,
      "v": 30
    },
    {
      "midi": 70,
      "hit": false,
      "t": 118554.16110416655,
      "d": 1851.7928249999968,
      "v": 1
    },
    {
      "midi": 61,
      "hit": false,
      "t": 118607.04199999987,
      "d": 935.5111208333401,
      "v": 1
    },
    {
      "midi": 65,
      "hit": false,
      "t": 118607.04199999987,
      "d": 1842.1781166666624,
      "v": 1
    },
    {
      "midi": 58,
      "hit": false,
      "t": 119530.05399999987,
      "d": 919.16611666666,
      "v": 1
    },
    {
      "midi": 66,
      "hit": false,
      "t": 120409.79981249987,
      "d": 476.8895333333203,
      "v": 1
    },
    {
      "midi": 59,
      "hit": false,
      "t": 120453.06599999986,
      "d": 1842.1781166666624,
      "v": 1
    },
    {
      "midi": 63,
      "hit": false,
      "t": 120453.06599999986,
      "d": 1842.1781166666624,
      "v": 1
    },
    {
      "midi": 68,
      "hit": false,
      "t": 120866.4984583332,
      "d": 265.36594999999215,
      "v": 1
    },
    {
      "midi": 70,
      "hit": false,
      "t": 121116.48087499986,
      "d": 669.1836999999941,
      "v": 1
    },
    {
      "midi": 71,
      "hit": false,
      "t": 121775.08839583318,
      "d": 507.6566000000021,
      "v": 1
    },
    {
      "midi": 73,
      "hit": false,
      "t": 122262.55410833319,
      "d": 1762.3760374999983,
      "v": 1
    },
    {
      "midi": 58,
      "hit": false,
      "t": 122299.08999999985,
      "d": 3226.6961166666733,
      "v": 1
    },
    {
      "midi": 66,
      "hit": false,
      "t": 122299.08999999985,
      "d": 3226.6961166666733,
      "v": 1
    },
    {
      "midi": 87,
      "hit": false,
      "t": 124145.11399999996,
      "d": 486.50424166666926,
      "v": 95
    },
    {
      "midi": 85,
      "hit": false,
      "t": 125991.13799999996,
      "d": 584.5742666666629,
      "v": 104
    },
    {
      "midi": 66,
      "hit": false,
      "t": 127837.16199999985,
      "d": 342.2836166666675,
      "v": 1
    },
    {
      "midi": 87,
      "hit": false,
      "t": 127837.16199999995,
      "d": 707.6425333333318,
      "v": 95
    },
    {
      "midi": 63,
      "hit": false,
      "t": 128183.29149999985,
      "d": 573.0366166666645,
      "v": 1
    },
    {
      "midi": 61,
      "hit": false,
      "t": 128760.17399999984,
      "d": 342.2836166666675,
      "v": 1
    },
    {
      "midi": 59,
      "hit": false,
      "t": 129106.30349999983,
      "d": 457.660116666666,
      "v": 1
    },
    {
      "midi": 58,
      "hit": false,
      "t": 129567.80949999983,
      "d": 111.53061666667054,
      "v": 1
    },
    {
      "midi": 61,
      "hit": false,
      "t": 129683.18599999983,
      "d": 688.413116666663,
      "v": 1
    },
    {
      "midi": 85,
      "hit": false,
      "t": 129683.18599999996,
      "d": 803.7896166666615,
      "v": 95
    },
    {
      "midi": 63,
      "hit": false,
      "t": 130375.44499999982,
      "d": 111.53061666667054,
      "v": 1
    },
    {
      "midi": 61,
      "hit": false,
      "t": 130490.82149999982,
      "d": 1034.542616666673,
      "v": 1
    },
    {
      "midi": 73,
      "hit": false,
      "t": 131062.89664583333,
      "d": 34.61295000000973,
      "v": 90
    },
    {
      "midi": 75,
      "hit": false,
      "t": 131098.47106666668,
      "d": 36.535891666659154,
      "v": 86
    },
    {
      "midi": 78,
      "hit": false,
      "t": 131149.42902083334,
      "d": 39.42030416667694,
      "v": 81
    },
    {
      "midi": 80,
      "hit": false,
      "t": 131192.69520833335,
      "d": 26.921183333324734,
      "v": 76
    },
    {
      "midi": 82,
      "hit": false,
      "t": 131228.26962916667,
      "d": 22.113829166657524,
      "v": 73
    },
    {
      "midi": 85,
      "hit": false,
      "t": 131259.99816666666,
      "d": 29.805595833342522,
      "v": 69
    },
    {
      "midi": 87,
      "hit": false,
      "t": 131288.84229166666,
      "d": 26.921183333324734,
      "v": 66
    },
    {
      "midi": 90,
      "hit": false,
      "t": 131332.10847916667,
      "d": 26.921183333324734,
      "v": 62
    },
    {
      "midi": 92,
      "hit": false,
      "t": 131367.68289999999,
      "d": 17.306474999990314,
      "v": 58
    },
    {
      "midi": 94,
      "hit": false,
      "t": 131394.6040833333,
      "d": 15.383533333340893,
      "v": 55
    },
    {
      "midi": 97,
      "hit": false,
      "t": 131428.25556249998,
      "d": 15.383533333340893,
      "v": 52
    },
    {
      "midi": 99,
      "hit": false,
      "t": 131454.215275,
      "d": 17.306474999990314,
      "v": 49
    },
    {
      "midi": 102,
      "hit": false,
      "t": 131509.98058333332,
      "d": 24.998241666675312,
      "v": 43
    },
    {
      "midi": 51,
      "hit": false,
      "t": 131529.20999999982,
      "d": 688.413116666663,
      "v": 1
    },
    {
      "midi": 63,
      "hit": false,
      "t": 131529.20999999982,
      "d": 688.413116666663,
      "v": 1
    },
    {
      "midi": 66,
      "hit": false,
      "t": 131529.20999999982,
      "d": 688.413116666663,
      "v": 1
    },
    {
      "midi": 73,
      "hit": false,
      "t": 131543.63206250002,
      "d": 34.61295000000973,
      "v": 74
    },
    {
      "midi": 75,
      "hit": false,
      "t": 131567.66883333336,
      "d": 36.535891666659154,
      "v": 65
    },
    {
      "midi": 78,
      "hit": false,
      "t": 131617.66531666668,
      "d": 39.42030416667694,
      "v": 76
    },
    {
      "midi": 80,
      "hit": false,
      "t": 131660.93150416669,
      "d": 26.921183333324734,
      "v": 71
    },
    {
      "midi": 82,
      "hit": false,
      "t": 131697.46739583334,
      "d": 22.113829166657524,
      "v": 68
    },
    {
      "midi": 85,
      "hit": false,
      "t": 131728.2344625,
      "d": 29.805595833342522,
      "v": 64
    },
    {
      "midi": 87,
      "hit": false,
      "t": 131759.96300000002,
      "d": 26.921183333353838,
      "v": 61
    },
    {
      "midi": 90,
      "hit": false,
      "t": 131800.34477500003,
      "d": 26.921183333324734,
      "v": 57
    },
    {
      "midi": 92,
      "hit": false,
      "t": 131836.8806666667,
      "d": 17.306474999990314,
      "v": 53
    },
    {
      "midi": 94,
      "hit": false,
      "t": 131862.84037916668,
      "d": 15.383533333340893,
      "v": 50
    },
    {
      "midi": 97,
      "hit": false,
      "t": 131896.49185833335,
      "d": 15.383533333340893,
      "v": 47
    },
    {
      "midi": 99,
      "hit": false,
      "t": 131923.4130416667,
      "d": 17.306474999990314,
      "v": 44
    },
    {
      "midi": 102,
      "hit": false,
      "t": 131978.2168791667,
      "d": 24.998241666675312,
      "v": 38
    },
    {
      "midi": 73,
      "hit": false,
      "t": 132011.86835833336,
      "d": 34.61295000000973,
      "v": 66
    },
    {
      "midi": 75,
      "hit": false,
      "t": 132035.9051291667,
      "d": 36.535891666659154,
      "v": 57
    },
    {
      "midi": 78,
      "hit": false,
      "t": 132086.86308333336,
      "d": 39.42030416667694,
      "v": 68
    },
    {
      "midi": 80,
      "hit": false,
      "t": 132130.12927083336,
      "d": 26.921183333324734,
      "v": 63
    },
    {
      "midi": 82,
      "hit": false,
      "t": 132165.70369166668,
      "d": 22.113829166657524,
      "v": 60
    },
    {
      "midi": 85,
      "hit": false,
      "t": 132197.43222916668,
      "d": 29.805595833342522,
      "v": 56
    },
    {
      "midi": 53,
      "hit": false,
      "t": 132221.4689999998,
      "d": 688.413116666663,
      "v": 1
    },
    {
      "midi": 65,
      "hit": false,
      "t": 132221.4689999998,
      "d": 688.413116666663,
      "v": 1
    },
    {
      "midi": 68,
      "hit": false,
      "t": 132221.4689999998,
      "d": 688.413116666663,
      "v": 1
    },
    {
      "midi": 87,
      "hit": false,
      "t": 132228.19929583336,
      "d": 26.921183333353838,
      "v": 53
    },
    {
      "midi": 90,
      "hit": false,
      "t": 132269.5425416667,
      "d": 26.921183333324734,
      "v": 49
    },
    {
      "midi": 92,
      "hit": false,
      "t": 132305.11696250003,
      "d": 17.306474999990314,
      "v": 45
    },
    {
      "midi": 94,
      "hit": false,
      "t": 132332.03814583336,
      "d": 15.383533333340893,
      "v": 42
    },
    {
      "midi": 97,
      "hit": false,
      "t": 132365.68962500003,
      "d": 15.383533333340893,
      "v": 39
    },
    {
      "midi": 99,
      "hit": false,
      "t": 132391.64933750004,
      "d": 17.306474999990314,
      "v": 36
    },
    {
      "midi": 102,
      "hit": false,
      "t": 132447.41464583337,
      "d": 24.998241666675312,
      "v": 30
    },
    {
      "midi": 54,
      "hit": false,
      "t": 132913.7279999998,
      "d": 457.660116666666,
      "v": 1
    },
    {
      "midi": 66,
      "hit": false,
      "t": 132913.7279999998,
      "d": 457.660116666666,
      "v": 1
    },
    {
      "midi": 70,
      "hit": false,
      "t": 132913.7279999998,
      "d": 457.660116666666,
      "v": 1
    },
    {
      "midi": 58,
      "hit": false,
      "t": 133375.2339999998,
      "d": 457.660116666666,
      "v": 1
    },
    {
      "midi": 70,
      "hit": false,
      "t": 133375.2339999998,
      "d": 457.660116666666,
      "v": 1
    },
    {
      "midi": 73,
      "hit": false,
      "t": 133375.2339999998,
      "d": 457.660116666666,
      "v": 1
    },
    {
      "midi": 53,
      "hit": false,
      "t": 133836.7399999998,
      "d": 1380.672116666683,
      "v": 1
    },
    {
      "midi": 65,
      "hit": false,
      "t": 133836.7399999998,
      "d": 1380.672116666683,
      "v": 1
    },
    {
      "midi": 68,
      "hit": false,
      "t": 133836.7399999998,
      "d": 1380.672116666683,
      "v": 1
    },
    {
      "midi": 54,
      "hit": false,
      "t": 135221.2579999998,
      "d": 688.413116666663,
      "v": 1
    },
    {
      "midi": 63,
      "hit": false,
      "t": 135221.2579999998,
      "d": 688.413116666663,
      "v": 1
    },
    {
      "midi": 66,
      "hit": false,
      "t": 135221.2579999998,
      "d": 688.413116666663,
      "v": 1
    },
    {
      "midi": 56,
      "hit": false,
      "t": 135913.5169999998,
      "d": 688.413116666663,
      "v": 1
    },
    {
      "midi": 65,
      "hit": false,
      "t": 135913.5169999998,
      "d": 688.413116666663,
      "v": 1
    },
    {
      "midi": 68,
      "hit": false,
      "t": 135913.5169999998,
      "d": 688.413116666663,
      "v": 1
    },
    {
      "midi": 58,
      "hit": false,
      "t": 136605.77599999978,
      "d": 457.660116666666,
      "v": 1
    },
    {
      "midi": 66,
      "hit": false,
      "t": 136605.77599999978,
      "d": 457.660116666666,
      "v": 1
    },
    {
      "midi": 70,
      "hit": false,
      "t": 136605.77599999978,
      "d": 457.660116666666,
      "v": 1
    },
    {
      "midi": 54,
      "hit": false,
      "t": 137067.28199999977,
      "d": 1380.672116666654,
      "v": 1
    },
    {
      "midi": 66,
      "hit": false,
      "t": 137067.28199999977,
      "d": 1380.672116666654,
      "v": 1
    },
    {
      "midi": 70,
      "hit": false,
      "t": 137067.28199999977,
      "d": 1380.672116666654,
      "v": 1
    },
    {
      "midi": 61,
      "hit": false,
      "t": 138451.79999999976,
      "d": 226.90711666666903,
      "v": 1
    },
    {
      "midi": 66,
      "hit": false,
      "t": 138451.79999999976,
      "d": 226.90711666666903,
      "v": 1
    },
    {
      "midi": 70,
      "hit": false,
      "t": 138451.79999999976,
      "d": 226.90711666666903,
      "v": 1
    },
    {
      "midi": 59,
      "hit": false,
      "t": 138682.55299999975,
      "d": 457.660116666666,
      "v": 1
    },
    {
      "midi": 65,
      "hit": false,
      "t": 138682.55299999975,
      "d": 457.660116666666,
      "v": 1
    },
    {
      "midi": 68,
      "hit": false,
      "t": 138682.55299999975,
      "d": 457.660116666666,
      "v": 1
    },
    {
      "midi": 87,
      "hit": false,
      "t": 138913.30599999995,
      "d": 935.5111208333401,
      "v": 112
    },
    {
      "midi": 58,
      "hit": false,
      "t": 139144.05899999975,
      "d": 1149.919116666657,
      "v": 1
    },
    {
      "midi": 63,
      "hit": false,
      "t": 139144.05899999975,
      "d": 1149.919116666657,
      "v": 1
    },
    {
      "midi": 66,
      "hit": false,
      "t": 139144.05899999975,
      "d": 1149.919116666657,
      "v": 1
    },
    {
      "midi": 61,
      "hit": false,
      "t": 140297.82399999973,
      "d": 226.90711666666903,
      "v": 1
    },
    {
      "midi": 65,
      "hit": false,
      "t": 140297.82399999973,
      "d": 226.90711666666903,
      "v": 1
    },
    {
      "midi": 68,
      "hit": false,
      "t": 140297.82399999973,
      "d": 226.90711666666903,
      "v": 1
    },
    {
      "midi": 63,
      "hit": false,
      "t": 140528.57699999973,
      "d": 111.53061666665599,
      "v": 1
    },
    {
      "midi": 66,
      "hit": false,
      "t": 140528.57699999973,
      "d": 111.53061666665599,
      "v": 1
    },
    {
      "midi": 70,
      "hit": false,
      "t": 140528.57699999973,
      "d": 111.53061666665599,
      "v": 1
    },
    {
      "midi": 61,
      "hit": false,
      "t": 140643.9534999997,
      "d": 342.28361666665296,
      "v": 1
    },
    {
      "midi": 65,
      "hit": false,
      "t": 140643.9534999997,
      "d": 342.28361666665296,
      "v": 1
    },
    {
      "midi": 68,
      "hit": false,
      "t": 140643.9534999997,
      "d": 342.28361666665296,
      "v": 1
    },
    {
      "midi": 85,
      "hit": false,
      "t": 140759.32999999996,
      "d": 728.7948916666792,
      "v": 108
    },
    {
      "midi": 58,
      "hit": false,
      "t": 140990.0829999997,
      "d": 1149.919116666657,
      "v": 1
    },
    {
      "midi": 61,
      "hit": false,
      "t": 140990.0829999997,
      "d": 1149.919116666657,
      "v": 1
    },
    {
      "midi": 65,
      "hit": false,
      "t": 140990.0829999997,
      "d": 1149.919116666657,
      "v": 1
    },
    {
      "midi": 59,
      "hit": false,
      "t": 142143.84799999968,
      "d": 226.90711666666903,
      "v": 1
    },
    {
      "midi": 63,
      "hit": false,
      "t": 142143.84799999968,
      "d": 226.90711666666903,
      "v": 1
    },
    {
      "midi": 66,
      "hit": false,
      "t": 142143.84799999968,
      "d": 226.90711666666903,
      "v": 1
    },
    {
      "midi": 61,
      "hit": false,
      "t": 142374.60099999967,
      "d": 111.53061666665599,
      "v": 1
    },
    {
      "midi": 65,
      "hit": false,
      "t": 142374.60099999967,
      "d": 111.53061666665599,
      "v": 1
    },
    {
      "midi": 68,
      "hit": false,
      "t": 142374.60099999967,
      "d": 111.53061666665599,
      "v": 1
    },
    {
      "midi": 59,
      "hit": false,
      "t": 142489.97749999966,
      "d": 342.28361666665296,
      "v": 1
    },
    {
      "midi": 63,
      "hit": false,
      "t": 142489.97749999966,
      "d": 342.28361666665296,
      "v": 1
    },
    {
      "midi": 66,
      "hit": false,
      "t": 142489.97749999966,
      "d": 342.28361666665296,
      "v": 1
    },
    {
      "midi": 87,
      "hit": false,
      "t": 142605.35399999996,
      "d": 618.2257458333333,
      "v": 117
    },
    {
      "midi": 54,
      "hit": false,
      "t": 142836.10699999964,
      "d": 1149.919116666657,
      "v": 1
    },
    {
      "midi": 59,
      "hit": false,
      "t": 142836.10699999964,
      "d": 1149.919116666657,
      "v": 1
    },
    {
      "midi": 63,
      "hit": false,
      "t": 142836.10699999964,
      "d": 1149.919116666657,
      "v": 1
    },
    {
      "midi": 58,
      "hit": false,
      "t": 143989.87199999962,
      "d": 226.90711666666903,
      "v": 1
    },
    {
      "midi": 61,
      "hit": false,
      "t": 143989.87199999962,
      "d": 226.90711666666903,
      "v": 1
    },
    {
      "midi": 66,
      "hit": false,
      "t": 143989.87199999962,
      "d": 226.90711666666903,
      "v": 1
    },
    {
      "midi": 82,
      "hit": false,
      "t": 143989.87199999997,
      "d": 265.3659500000067,
      "v": 103
    },
    {
      "midi": 59,
      "hit": false,
      "t": 144220.62499999962,
      "d": 111.53061666665599,
      "v": 1
    },
    {
      "midi": 63,
      "hit": false,
      "t": 144220.62499999962,
      "d": 111.53061666665599,
      "v": 1
    },
    {
      "midi": 68,
      "hit": false,
      "t": 144220.62499999962,
      "d": 111.53061666665599,
      "v": 1
    },
    {
      "midi": 58,
      "hit": false,
      "t": 144336.0014999996,
      "d": 1496.048616666667,
      "v": 1
    },
    {
      "midi": 61,
      "hit": false,
      "t": 144336.0014999996,
      "d": 1496.048616666667,
      "v": 1
    },
    {
      "midi": 66,
      "hit": false,
      "t": 144336.0014999996,
      "d": 1496.048616666667,
      "v": 1
    },
    {
      "midi": 85,
      "hit": false,
      "t": 144451.37799999997,
      "d": 611.4954499999876,
      "v": 103
    },
    {
      "midi": 61,
      "hit": false,
      "t": 145835.8959999996,
      "d": 226.90711666666903,
      "v": 1
    },
    {
      "midi": 66,
      "hit": false,
      "t": 145835.8959999996,
      "d": 226.90711666666903,
      "v": 1
    },
    {
      "midi": 70,
      "hit": false,
      "t": 145835.8959999996,
      "d": 226.90711666666903,
      "v": 1
    },
    {
      "midi": 90,
      "hit": false,
      "t": 145835.89599999995,
      "d": 198.06299166666577,
      "v": 112
    },
    {
      "midi": 59,
      "hit": false,
      "t": 146066.6489999996,
      "d": 457.660116666666,
      "v": 1
    },
    {
      "midi": 65,
      "hit": false,
      "t": 146066.6489999996,
      "d": 457.660116666666,
      "v": 1
    },
    {
      "midi": 68,
      "hit": false,
      "t": 146066.6489999996,
      "d": 457.660116666666,
      "v": 1
    },
    {
      "midi": 87,
      "hit": false,
      "t": 146297.40199999994,
      "d": 445.1609958333429,
      "v": 95
    },
    {
      "midi": 58,
      "hit": false,
      "t": 146528.1549999996,
      "d": 1149.919116666657,
      "v": 1
    },
    {
      "midi": 63,
      "hit": false,
      "t": 146528.1549999996,
      "d": 1149.919116666657,
      "v": 1
    },
    {
      "midi": 66,
      "hit": false,
      "t": 146528.1549999996,
      "d": 1149.919116666657,
      "v": 1
    },
    {
      "midi": 61,
      "hit": false,
      "t": 147681.91999999958,
      "d": 204.7932875000115,
      "v": 1
    },
    {
      "midi": 68,
      "hit": false,
      "t": 147681.91999999958,
      "d": 204.7932875000115,
      "v": 1
    },
    {
      "midi": 65,
      "hit": false,
      "t": 147681.91999999958,
      "d": 233.63741249998566,
      "v": 1
    },
    {
      "midi": 82,
      "hit": false,
      "t": 147681.91999999995,
      "d": 49.03501250001136,
      "v": 78
    },
    {
      "midi": 63,
      "hit": false,
      "t": 147912.67299999957,
      "d": 111.53061666665599,
      "v": 1
    },
    {
      "midi": 66,
      "hit": false,
      "t": 147912.67299999957,
      "d": 111.53061666665599,
      "v": 1
    },
    {
      "midi": 70,
      "hit": false,
      "t": 147912.67299999957,
      "d": 111.53061666665599,
      "v": 1
    },
    {
      "midi": 65,
      "hit": false,
      "t": 148028.04949999956,
      "d": 342.28361666665296,
      "v": 1
    },
    {
      "midi": 70,
      "hit": false,
      "t": 148028.04949999956,
      "d": 342.28361666665296,
      "v": 1
    },
    {
      "midi": 73,
      "hit": false,
      "t": 148028.04949999956,
      "d": 342.28361666665296,
      "v": 1
    },
    {
      "midi": 85,
      "hit": false,
      "t": 148143.42599999998,
      "d": 414.3939291666611,
      "v": 108
    },
    {
      "midi": 61,
      "hit": false,
      "t": 148374.17899999954,
      "d": 1149.919116666657,
      "v": 1
    },
    {
      "midi": 65,
      "hit": false,
      "t": 148374.17899999954,
      "d": 1149.919116666657,
      "v": 1
    },
    {
      "midi": 70,
      "hit": false,
      "t": 148374.17899999954,
      "d": 1149.919116666657,
      "v": 1
    },
    {
      "midi": 61,
      "hit": false,
      "t": 149527.94399999952,
      "d": 226.90711666666903,
      "v": 1
    },
    {
      "midi": 66,
      "hit": false,
      "t": 149527.94399999952,
      "d": 226.90711666666903,
      "v": 1
    },
    {
      "midi": 83,
      "hit": false,
      "t": 149527.94399999996,
      "d": 202.87034583333298,
      "v": 103
    },
    {
      "midi": 63,
      "hit": false,
      "t": 149758.69699999952,
      "d": 457.660116666666,
      "v": 1
    },
    {
      "midi": 68,
      "hit": false,
      "t": 149758.69699999952,
      "d": 457.660116666666,
      "v": 1
    },
    {
      "midi": 87,
      "hit": false,
      "t": 149989.44999999995,
      "d": 680.7213500000071,
      "v": 108
    },
    {
      "midi": 59,
      "hit": false,
      "t": 150220.2029999995,
      "d": 1149.919116666657,
      "v": 1
    },
    {
      "midi": 66,
      "hit": false,
      "t": 150220.2029999995,
      "d": 1149.919116666657,
      "v": 1
    },
    {
      "midi": 58,
      "hit": false,
      "t": 151373.9679999995,
      "d": 226.90711666666903,
      "v": 1
    },
    {
      "midi": 61,
      "hit": false,
      "t": 151373.9679999995,
      "d": 226.90711666666903,
      "v": 1
    },
    {
      "midi": 66,
      "hit": false,
      "t": 151373.9679999995,
      "d": 226.90711666666903,
      "v": 1
    },
    {
      "midi": 82,
      "hit": false,
      "t": 151373.96799999996,
      "d": 199.9859333333443,
      "v": 82
    },
    {
      "midi": 56,
      "hit": false,
      "t": 151604.7209999995,
      "d": 113.45355833333451,
      "v": 1
    },
    {
      "midi": 59,
      "hit": false,
      "t": 151604.7209999995,
      "d": 113.45355833333451,
      "v": 1
    },
    {
      "midi": 65,
      "hit": false,
      "t": 151604.7209999995,
      "d": 113.45355833333451,
      "v": 1
    },
    {
      "midi": 54,
      "hit": false,
      "t": 151720.0974999995,
      "d": 1496.048616666667,
      "v": 1
    },
    {
      "midi": 58,
      "hit": false,
      "t": 151720.0974999995,
      "d": 1496.048616666667,
      "v": 1
    },
    {
      "midi": 66,
      "hit": false,
      "t": 151720.0974999995,
      "d": 1496.048616666667,
      "v": 1
    },
    {
      "midi": 85,
      "hit": false,
      "t": 151835.474,
      "d": 654.7616374999925,
      "v": 112
    },
    {
      "midi": 61,
      "hit": false,
      "t": 153219.9919999995,
      "d": 226.90711666666903,
      "v": 1
    },
    {
      "midi": 66,
      "hit": false,
      "t": 153219.9919999995,
      "d": 226.90711666666903,
      "v": 1
    },
    {
      "midi": 70,
      "hit": false,
      "t": 153219.9919999995,
      "d": 226.90711666666903,
      "v": 1
    },
    {
      "midi": 59,
      "hit": false,
      "t": 153450.7449999995,
      "d": 457.660116666666,
      "v": 1
    },
    {
      "midi": 65,
      "hit": false,
      "t": 153450.7449999995,
      "d": 457.660116666666,
      "v": 1
    },
    {
      "midi": 68,
      "hit": false,
      "t": 153450.7449999995,
      "d": 457.660116666666,
      "v": 1
    },
    {
      "midi": 87,
      "hit": false,
      "t": 153681.498,
      "d": 935.5111208333401,
      "v": 112
    },
    {
      "midi": 58,
      "hit": false,
      "t": 153912.2509999995,
      "d": 1149.919116666657,
      "v": 1
    },
    {
      "midi": 63,
      "hit": false,
      "t": 153912.2509999995,
      "d": 1149.919116666657,
      "v": 1
    },
    {
      "midi": 66,
      "hit": false,
      "t": 153912.2509999995,
      "d": 1149.919116666657,
      "v": 1
    },
    {
      "midi": 61,
      "hit": false,
      "t": 155066.01599999948,
      "d": 226.90711666666903,
      "v": 1
    },
    {
      "midi": 65,
      "hit": false,
      "t": 155066.01599999948,
      "d": 226.90711666666903,
      "v": 1
    },
    {
      "midi": 68,
      "hit": false,
      "t": 155066.01599999948,
      "d": 226.90711666666903,
      "v": 1
    },
    {
      "midi": 63,
      "hit": false,
      "t": 155296.76899999948,
      "d": 111.53061666665599,
      "v": 1
    },
    {
      "midi": 66,
      "hit": false,
      "t": 155296.76899999948,
      "d": 111.53061666665599,
      "v": 1
    },
    {
      "midi": 70,
      "hit": false,
      "t": 155296.76899999948,
      "d": 111.53061666665599,
      "v": 1
    },
    {
      "midi": 61,
      "hit": false,
      "t": 155412.14549999946,
      "d": 342.28361666665296,
      "v": 1
    },
    {
      "midi": 65,
      "hit": false,
      "t": 155412.14549999946,
      "d": 342.28361666665296,
      "v": 1
    },
    {
      "midi": 68,
      "hit": false,
      "t": 155412.14549999946,
      "d": 342.28361666665296,
      "v": 1
    },
    {
      "midi": 85,
      "hit": false,
      "t": 155527.522,
      "d": 728.7948916666792,
      "v": 108
    },
    {
      "midi": 58,
      "hit": false,
      "t": 155758.27499999944,
      "d": 1149.919116666657,
      "v": 1
    },
    {
      "midi": 61,
      "hit": false,
      "t": 155758.27499999944,
      "d": 1149.919116666657,
      "v": 1
    },
    {
      "midi": 65,
      "hit": false,
      "t": 155758.27499999944,
      "d": 1149.919116666657,
      "v": 1
    },
    {
      "midi": 59,
      "hit": false,
      "t": 156912.03999999943,
      "d": 226.90711666666903,
      "v": 1
    },
    {
      "midi": 63,
      "hit": false,
      "t": 156912.03999999943,
      "d": 226.90711666666903,
      "v": 1
    },
    {
      "midi": 66,
      "hit": false,
      "t": 156912.03999999943,
      "d": 226.90711666666903,
      "v": 1
    },
    {
      "midi": 61,
      "hit": false,
      "t": 157142.79299999942,
      "d": 111.53061666665599,
      "v": 1
    },
    {
      "midi": 65,
      "hit": false,
      "t": 157142.79299999942,
      "d": 111.53061666665599,
      "v": 1
    },
    {
      "midi": 68,
      "hit": false,
      "t": 157142.79299999942,
      "d": 111.53061666665599,
      "v": 1
    },
    {
      "midi": 59,
      "hit": false,
      "t": 157258.1694999994,
      "d": 342.28361666665296,
      "v": 1
    },
    {
      "midi": 63,
      "hit": false,
      "t": 157258.1694999994,
      "d": 342.28361666665296,
      "v": 1
    },
    {
      "midi": 66,
      "hit": false,
      "t": 157258.1694999994,
      "d": 342.28361666665296,
      "v": 1
    },
    {
      "midi": 87,
      "hit": false,
      "t": 157373.546,
      "d": 618.2257458333333,
      "v": 117
    },
    {
      "midi": 54,
      "hit": false,
      "t": 157604.2989999994,
      "d": 1149.919116666657,
      "v": 1
    },
    {
      "midi": 59,
      "hit": false,
      "t": 157604.2989999994,
      "d": 1149.919116666657,
      "v": 1
    },
    {
      "midi": 63,
      "hit": false,
      "t": 157604.2989999994,
      "d": 1149.919116666657,
      "v": 1
    },
    {
      "midi": 58,
      "hit": false,
      "t": 158758.06399999937,
      "d": 226.90711666666903,
      "v": 1
    },
    {
      "midi": 61,
      "hit": false,
      "t": 158758.06399999937,
      "d": 226.90711666666903,
      "v": 1
    },
    {
      "midi": 66,
      "hit": false,
      "t": 158758.06399999937,
      "d": 226.90711666666903,
      "v": 1
    },
    {
      "midi": 82,
      "hit": false,
      "t": 158758.064,
      "d": 265.3659500000067,
      "v": 103
    },
    {
      "midi": 59,
      "hit": false,
      "t": 158988.81699999937,
      "d": 111.53061666665599,
      "v": 1
    },
    {
      "midi": 63,
      "hit": false,
      "t": 158988.81699999937,
      "d": 111.53061666665599,
      "v": 1
    },
    {
      "midi": 68,
      "hit": false,
      "t": 158988.81699999937,
      "d": 111.53061666665599,
      "v": 1
    },
    {
      "midi": 58,
      "hit": false,
      "t": 159104.19349999935,
      "d": 1496.048616666667,
      "v": 1
    },
    {
      "midi": 61,
      "hit": false,
      "t": 159104.19349999935,
      "d": 1496.048616666667,
      "v": 1
    },
    {
      "midi": 66,
      "hit": false,
      "t": 159104.19349999935,
      "d": 1496.048616666667,
      "v": 1
    },
    {
      "midi": 85,
      "hit": false,
      "t": 159219.57,
      "d": 611.4954499999876,
      "v": 103
    },
    {
      "midi": 61,
      "hit": false,
      "t": 160604.08799999935,
      "d": 226.90711666666903,
      "v": 1
    },
    {
      "midi": 66,
      "hit": false,
      "t": 160604.08799999935,
      "d": 226.90711666666903,
      "v": 1
    },
    {
      "midi": 70,
      "hit": false,
      "t": 160604.08799999935,
      "d": 226.90711666666903,
      "v": 1
    },
    {
      "midi": 90,
      "hit": false,
      "t": 160604.088,
      "d": 198.06299166666577,
      "v": 112
    },
    {
      "midi": 59,
      "hit": false,
      "t": 160834.84099999935,
      "d": 457.660116666666,
      "v": 1
    },
    {
      "midi": 65,
      "hit": false,
      "t": 160834.84099999935,
      "d": 457.660116666666,
      "v": 1
    },
    {
      "midi": 68,
      "hit": false,
      "t": 160834.84099999935,
      "d": 457.660116666666,
      "v": 1
    },
    {
      "midi": 87,
      "hit": false,
      "t": 161065.59399999998,
      "d": 445.1609958333429,
      "v": 95
    },
    {
      "midi": 58,
      "hit": false,
      "t": 161296.34699999934,
      "d": 1149.919116666657,
      "v": 1
    },
    {
      "midi": 63,
      "hit": false,
      "t": 161296.34699999934,
      "d": 1149.919116666657,
      "v": 1
    },
    {
      "midi": 66,
      "hit": false,
      "t": 161296.34699999934,
      "d": 1149.919116666657,
      "v": 1
    },
    {
      "midi": 61,
      "hit": false,
      "t": 162450.11199999932,
      "d": 204.7932875000115,
      "v": 1
    },
    {
      "midi": 68,
      "hit": false,
      "t": 162450.11199999932,
      "d": 204.7932875000115,
      "v": 1
    },
    {
      "midi": 65,
      "hit": false,
      "t": 162450.11199999932,
      "d": 233.63741249998566,
      "v": 1
    },
    {
      "midi": 82,
      "hit": false,
      "t": 162450.112,
      "d": 49.03501250001136,
      "v": 78
    },
    {
      "midi": 63,
      "hit": false,
      "t": 162680.86499999932,
      "d": 111.53061666665599,
      "v": 1
    },
    {
      "midi": 66,
      "hit": false,
      "t": 162680.86499999932,
      "d": 111.53061666665599,
      "v": 1
    },
    {
      "midi": 70,
      "hit": false,
      "t": 162680.86499999932,
      "d": 111.53061666665599,
      "v": 1
    },
    {
      "midi": 65,
      "hit": false,
      "t": 162796.2414999993,
      "d": 342.28361666665296,
      "v": 1
    },
    {
      "midi": 70,
      "hit": false,
      "t": 162796.2414999993,
      "d": 342.28361666665296,
      "v": 1
    },
    {
      "midi": 73,
      "hit": false,
      "t": 162796.2414999993,
      "d": 342.28361666665296,
      "v": 1
    },
    {
      "midi": 85,
      "hit": false,
      "t": 162911.61800000002,
      "d": 414.3939291666611,
      "v": 108
    },
    {
      "midi": 61,
      "hit": false,
      "t": 163142.3709999993,
      "d": 1149.919116666657,
      "v": 1
    },
    {
      "midi": 65,
      "hit": false,
      "t": 163142.3709999993,
      "d": 1149.919116666657,
      "v": 1
    },
    {
      "midi": 70,
      "hit": false,
      "t": 163142.3709999993,
      "d": 1149.919116666657,
      "v": 1
    },
    {
      "midi": 61,
      "hit": false,
      "t": 164296.13599999927,
      "d": 226.90711666666903,
      "v": 1
    },
    {
      "midi": 66,
      "hit": false,
      "t": 164296.13599999927,
      "d": 226.90711666666903,
      "v": 1
    },
    {
      "midi": 83,
      "hit": false,
      "t": 164296.136,
      "d": 202.87034583333298,
      "v": 103
    },
    {
      "midi": 63,
      "hit": false,
      "t": 164526.88899999927,
      "d": 457.660116666666,
      "v": 1
    },
    {
      "midi": 68,
      "hit": false,
      "t": 164526.88899999927,
      "d": 457.660116666666,
      "v": 1
    },
    {
      "midi": 87,
      "hit": false,
      "t": 164757.642,
      "d": 680.7213500000071,
      "v": 108
    },
    {
      "midi": 59,
      "hit": false,
      "t": 164988.39499999926,
      "d": 1149.919116666657,
      "v": 1
    },
    {
      "midi": 66,
      "hit": false,
      "t": 164988.39499999926,
      "d": 1149.919116666657,
      "v": 1
    },
    {
      "midi": 58,
      "hit": false,
      "t": 166142.15999999925,
      "d": 226.90711666666903,
      "v": 1
    },
    {
      "midi": 61,
      "hit": false,
      "t": 166142.15999999925,
      "d": 226.90711666666903,
      "v": 1
    },
    {
      "midi": 66,
      "hit": false,
      "t": 166142.15999999925,
      "d": 226.90711666666903,
      "v": 1
    },
    {
      "midi": 82,
      "hit": false,
      "t": 166142.16,
      "d": 199.9859333333443,
      "v": 82
    },
    {
      "midi": 56,
      "hit": false,
      "t": 166372.91299999924,
      "d": 113.45355833333451,
      "v": 1
    },
    {
      "midi": 59,
      "hit": false,
      "t": 166372.91299999924,
      "d": 113.45355833333451,
      "v": 1
    },
    {
      "midi": 65,
      "hit": false,
      "t": 166372.91299999924,
      "d": 113.45355833333451,
      "v": 1
    },
    {
      "midi": 54,
      "hit": false,
      "t": 166488.28949999926,
      "d": 1496.048616666667,
      "v": 1
    },
    {
      "midi": 58,
      "hit": false,
      "t": 166488.28949999926,
      "d": 1496.048616666667,
      "v": 1
    },
    {
      "midi": 66,
      "hit": false,
      "t": 166488.28949999926,
      "d": 1496.048616666667,
      "v": 1
    },
    {
      "midi": 85,
      "hit": false,
      "t": 166603.66600000003,
      "d": 654.7616374999925,
      "v": 112
    },
    {
      "midi": 61,
      "hit": false,
      "t": 167988.18399999925,
      "d": 226.90711666666903,
      "v": 1
    },
    {
      "midi": 66,
      "hit": false,
      "t": 167988.18399999925,
      "d": 226.90711666666903,
      "v": 1
    },
    {
      "midi": 70,
      "hit": false,
      "t": 167988.18399999925,
      "d": 226.90711666666903,
      "v": 1
    },
    {
      "midi": 59,
      "hit": false,
      "t": 168218.93699999925,
      "d": 457.660116666666,
      "v": 1
    },
    {
      "midi": 65,
      "hit": false,
      "t": 168218.93699999925,
      "d": 457.660116666666,
      "v": 1
    },
    {
      "midi": 68,
      "hit": false,
      "t": 168218.93699999925,
      "d": 457.660116666666,
      "v": 1
    },
    {
      "midi": 87,
      "hit": false,
      "t": 168449.69000000003,
      "d": 935.5111208333401,
      "v": 112
    },
    {
      "midi": 58,
      "hit": false,
      "t": 168680.44299999924,
      "d": 1149.919116666657,
      "v": 1
    },
    {
      "midi": 63,
      "hit": false,
      "t": 168680.44299999924,
      "d": 1149.919116666657,
      "v": 1
    },
    {
      "midi": 66,
      "hit": false,
      "t": 168680.44299999924,
      "d": 1149.919116666657,
      "v": 1
    },
    {
      "midi": 61,
      "hit": false,
      "t": 169834.20799999923,
      "d": 226.90711666666903,
      "v": 1
    },
    {
      "midi": 65,
      "hit": false,
      "t": 169834.20799999923,
      "d": 226.90711666666903,
      "v": 1
    },
    {
      "midi": 68,
      "hit": false,
      "t": 169834.20799999923,
      "d": 226.90711666666903,
      "v": 1
    },
    {
      "midi": 63,
      "hit": false,
      "t": 170064.96099999922,
      "d": 111.53061666665599,
      "v": 1
    },
    {
      "midi": 66,
      "hit": false,
      "t": 170064.96099999922,
      "d": 111.53061666665599,
      "v": 1
    },
    {
      "midi": 70,
      "hit": false,
      "t": 170064.96099999922,
      "d": 111.53061666665599,
      "v": 1
    },
    {
      "midi": 61,
      "hit": false,
      "t": 170180.3374999992,
      "d": 342.28361666665296,
      "v": 1
    },
    {
      "midi": 65,
      "hit": false,
      "t": 170180.3374999992,
      "d": 342.28361666665296,
      "v": 1
    },
    {
      "midi": 68,
      "hit": false,
      "t": 170180.3374999992,
      "d": 342.28361666665296,
      "v": 1
    },
    {
      "midi": 85,
      "hit": false,
      "t": 170295.71400000004,
      "d": 728.7948916666792,
      "v": 108
    },
    {
      "midi": 58,
      "hit": false,
      "t": 170526.4669999992,
      "d": 1149.919116666657,
      "v": 1
    },
    {
      "midi": 61,
      "hit": false,
      "t": 170526.4669999992,
      "d": 1149.919116666657,
      "v": 1
    },
    {
      "midi": 65,
      "hit": false,
      "t": 170526.4669999992,
      "d": 1149.919116666657,
      "v": 1
    },
    {
      "midi": 59,
      "hit": false,
      "t": 171680.23199999917,
      "d": 226.90711666666903,
      "v": 1
    },
    {
      "midi": 63,
      "hit": false,
      "t": 171680.23199999917,
      "d": 226.90711666666903,
      "v": 1
    },
    {
      "midi": 66,
      "hit": false,
      "t": 171680.23199999917,
      "d": 226.90711666666903,
      "v": 1
    },
    {
      "midi": 61,
      "hit": false,
      "t": 171910.98499999917,
      "d": 111.53061666665599,
      "v": 1
    },
    {
      "midi": 65,
      "hit": false,
      "t": 171910.98499999917,
      "d": 111.53061666665599,
      "v": 1
    },
    {
      "midi": 68,
      "hit": false,
      "t": 171910.98499999917,
      "d": 111.53061666665599,
      "v": 1
    },
    {
      "midi": 59,
      "hit": false,
      "t": 172026.36149999916,
      "d": 342.28361666665296,
      "v": 1
    },
    {
      "midi": 63,
      "hit": false,
      "t": 172026.36149999916,
      "d": 342.28361666665296,
      "v": 1
    },
    {
      "midi": 66,
      "hit": false,
      "t": 172026.36149999916,
      "d": 342.28361666665296,
      "v": 1
    },
    {
      "midi": 87,
      "hit": false,
      "t": 172141.73800000004,
      "d": 618.2257458333333,
      "v": 117
    },
    {
      "midi": 54,
      "hit": false,
      "t": 172372.49099999914,
      "d": 1149.919116666657,
      "v": 1
    },
    {
      "midi": 59,
      "hit": false,
      "t": 172372.49099999914,
      "d": 1149.919116666657,
      "v": 1
    },
    {
      "midi": 63,
      "hit": false,
      "t": 172372.49099999914,
      "d": 1149.919116666657,
      "v": 1
    },
    {
      "midi": 58,
      "hit": false,
      "t": 173526.25599999912,
      "d": 226.90711666666903,
      "v": 1
    },
    {
      "midi": 61,
      "hit": false,
      "t": 173526.25599999912,
      "d": 226.90711666666903,
      "v": 1
    },
    {
      "midi": 66,
      "hit": false,
      "t": 173526.25599999912,
      "d": 226.90711666666903,
      "v": 1
    },
    {
      "midi": 82,
      "hit": false,
      "t": 173526.25600000005,
      "d": 265.3659500000067,
      "v": 103
    },
    {
      "midi": 59,
      "hit": false,
      "t": 173757.00899999912,
      "d": 111.53061666665599,
      "v": 1
    },
    {
      "midi": 63,
      "hit": false,
      "t": 173757.00899999912,
      "d": 111.53061666665599,
      "v": 1
    },
    {
      "midi": 68,
      "hit": false,
      "t": 173757.00899999912,
      "d": 111.53061666665599,
      "v": 1
    },
    {
      "midi": 58,
      "hit": false,
      "t": 173872.3854999991,
      "d": 1496.048616666667,
      "v": 1
    },
    {
      "midi": 61,
      "hit": false,
      "t": 173872.3854999991,
      "d": 1496.048616666667,
      "v": 1
    },
    {
      "midi": 66,
      "hit": false,
      "t": 173872.3854999991,
      "d": 1496.048616666667,
      "v": 1
    },
    {
      "midi": 85,
      "hit": false,
      "t": 173987.76200000005,
      "d": 611.4954499999876,
      "v": 103
    },
    {
      "midi": 61,
      "hit": false,
      "t": 175372.2799999991,
      "d": 226.90711666666903,
      "v": 1
    },
    {
      "midi": 66,
      "hit": false,
      "t": 175372.2799999991,
      "d": 226.90711666666903,
      "v": 1
    },
    {
      "midi": 70,
      "hit": false,
      "t": 175372.2799999991,
      "d": 226.90711666666903,
      "v": 1
    },
    {
      "midi": 90,
      "hit": false,
      "t": 175372.28000000003,
      "d": 198.06299166666577,
      "v": 112
    },
    {
      "midi": 59,
      "hit": false,
      "t": 175603.0329999991,
      "d": 457.660116666666,
      "v": 1
    },
    {
      "midi": 65,
      "hit": false,
      "t": 175603.0329999991,
      "d": 457.660116666666,
      "v": 1
    },
    {
      "midi": 68,
      "hit": false,
      "t": 175603.0329999991,
      "d": 457.660116666666,
      "v": 1
    },
    {
      "midi": 87,
      "hit": false,
      "t": 175833.78600000002,
      "d": 445.1609958333429,
      "v": 95
    },
    {
      "midi": 58,
      "hit": false,
      "t": 176064.5389999991,
      "d": 1149.919116666657,
      "v": 1
    },
    {
      "midi": 63,
      "hit": false,
      "t": 176064.5389999991,
      "d": 1149.919116666657,
      "v": 1
    },
    {
      "midi": 66,
      "hit": false,
      "t": 176064.5389999991,
      "d": 1149.919116666657,
      "v": 1
    },
    {
      "midi": 61,
      "hit": false,
      "t": 177218.30399999907,
      "d": 204.7932875000115,
      "v": 1
    },
    {
      "midi": 68,
      "hit": false,
      "t": 177218.30399999907,
      "d": 204.7932875000115,
      "v": 1
    },
    {
      "midi": 65,
      "hit": false,
      "t": 177218.30399999907,
      "d": 233.63741249998566,
      "v": 1
    },
    {
      "midi": 82,
      "hit": false,
      "t": 177218.30400000003,
      "d": 49.03501250001136,
      "v": 78
    },
    {
      "midi": 63,
      "hit": false,
      "t": 177449.05699999907,
      "d": 111.53061666665599,
      "v": 1
    },
    {
      "midi": 66,
      "hit": false,
      "t": 177449.05699999907,
      "d": 111.53061666665599,
      "v": 1
    },
    {
      "midi": 70,
      "hit": false,
      "t": 177449.05699999907,
      "d": 111.53061666665599,
      "v": 1
    },
    {
      "midi": 65,
      "hit": false,
      "t": 177564.43349999905,
      "d": 342.28361666665296,
      "v": 1
    },
    {
      "midi": 70,
      "hit": false,
      "t": 177564.43349999905,
      "d": 342.28361666665296,
      "v": 1
    },
    {
      "midi": 73,
      "hit": false,
      "t": 177564.43349999905,
      "d": 342.28361666665296,
      "v": 1
    },
    {
      "midi": 85,
      "hit": false,
      "t": 177679.81000000006,
      "d": 414.3939291666611,
      "v": 108
    },
    {
      "midi": 61,
      "hit": false,
      "t": 177910.56299999903,
      "d": 1149.919116666657,
      "v": 1
    },
    {
      "midi": 65,
      "hit": false,
      "t": 177910.56299999903,
      "d": 1149.919116666657,
      "v": 1
    },
    {
      "midi": 70,
      "hit": false,
      "t": 177910.56299999903,
      "d": 1149.919116666657,
      "v": 1
    },
    {
      "midi": 61,
      "hit": false,
      "t": 179064.32799999902,
      "d": 226.90711666666903,
      "v": 1
    },
    {
      "midi": 66,
      "hit": false,
      "t": 179064.32799999902,
      "d": 226.90711666666903,
      "v": 1
    },
    {
      "midi": 83,
      "hit": false,
      "t": 179064.32800000004,
      "d": 202.87034583333298,
      "v": 103
    },
    {
      "midi": 63,
      "hit": false,
      "t": 179295.08099999902,
      "d": 457.660116666666,
      "v": 1
    },
    {
      "midi": 68,
      "hit": false,
      "t": 179295.08099999902,
      "d": 457.660116666666,
      "v": 1
    },
    {
      "midi": 87,
      "hit": false,
      "t": 179525.83400000003,
      "d": 680.7213500000071,
      "v": 108
    },
    {
      "midi": 59,
      "hit": false,
      "t": 179756.586999999,
      "d": 1149.919116666657,
      "v": 1
    },
    {
      "midi": 66,
      "hit": false,
      "t": 179756.586999999,
      "d": 1149.919116666657,
      "v": 1
    },
    {
      "midi": 58,
      "hit": false,
      "t": 180910.351999999,
      "d": 226.90711666666903,
      "v": 1
    },
    {
      "midi": 61,
      "hit": false,
      "t": 180910.351999999,
      "d": 226.90711666666903,
      "v": 1
    },
    {
      "midi": 66,
      "hit": false,
      "t": 180910.351999999,
      "d": 226.90711666666903,
      "v": 1
    },
    {
      "midi": 82,
      "hit": false,
      "t": 180910.35200000004,
      "d": 199.9859333333443,
      "v": 82
    },
    {
      "midi": 56,
      "hit": false,
      "t": 181141.104999999,
      "d": 113.45355833333451,
      "v": 1
    },
    {
      "midi": 59,
      "hit": false,
      "t": 181141.104999999,
      "d": 113.45355833333451,
      "v": 1
    },
    {
      "midi": 65,
      "hit": false,
      "t": 181141.104999999,
      "d": 113.45355833333451,
      "v": 1
    },
    {
      "midi": 54,
      "hit": false,
      "t": 181256.481499999,
      "d": 1496.048616666667,
      "v": 1
    },
    {
      "midi": 58,
      "hit": false,
      "t": 181256.481499999,
      "d": 1496.048616666667,
      "v": 1
    },
    {
      "midi": 66,
      "hit": false,
      "t": 181256.481499999,
      "d": 1496.048616666667,
      "v": 1
    },
    {
      "midi": 85,
      "hit": false,
      "t": 181371.85800000007,
      "d": 654.7616374999925,
      "v": 112
    },
    {
      "midi": 54,
      "hit": false,
      "t": 182756.375999999,
      "d": 226.90711666666903,
      "v": 1
    },
    {
      "midi": 66,
      "hit": false,
      "t": 182756.375999999,
      "d": 226.90711666666903,
      "v": 1
    },
    {
      "midi": 53,
      "hit": false,
      "t": 182987.128999999,
      "d": 457.660116666666,
      "v": 1
    },
    {
      "midi": 65,
      "hit": false,
      "t": 182987.128999999,
      "d": 457.660116666666,
      "v": 1
    },
    {
      "midi": 51,
      "hit": false,
      "t": 183448.634999999,
      "d": 1149.919116666657,
      "v": 1
    },
    {
      "midi": 63,
      "hit": false,
      "t": 183448.634999999,
      "d": 1149.919116666657,
      "v": 1
    },
    {
      "midi": 53,
      "hit": false,
      "t": 184602.39999999898,
      "d": 248.0594749999873,
      "v": 1
    },
    {
      "midi": 65,
      "hit": false,
      "t": 184602.39999999898,
      "d": 248.0594749999873,
      "v": 1
    },
    {
      "midi": 54,
      "hit": false,
      "t": 184833.15299999897,
      "d": 123.06826666663983,
      "v": 1
    },
    {
      "midi": 66,
      "hit": false,
      "t": 184833.15299999897,
      "d": 123.06826666663983,
      "v": 1
    },
    {
      "midi": 53,
      "hit": false,
      "t": 184948.52949999896,
      "d": 342.28361666665296,
      "v": 1
    },
    {
      "midi": 65,
      "hit": false,
      "t": 184948.52949999896,
      "d": 342.28361666665296,
      "v": 1
    },
    {
      "midi": 49,
      "hit": false,
      "t": 185294.65899999894,
      "d": 1149.919116666657,
      "v": 1
    },
    {
      "midi": 61,
      "hit": false,
      "t": 185294.65899999894,
      "d": 1149.919116666657,
      "v": 1
    },
    {
      "midi": 51,
      "hit": false,
      "t": 186448.42399999892,
      "d": 231.71447083333624,
      "v": 1
    },
    {
      "midi": 63,
      "hit": false,
      "t": 186448.42399999892,
      "d": 231.71447083333624,
      "v": 1
    },
    {
      "midi": 53,
      "hit": false,
      "t": 186679.17699999892,
      "d": 111.53061666668509,
      "v": 1
    },
    {
      "midi": 65,
      "hit": false,
      "t": 186679.17699999892,
      "d": 111.53061666668509,
      "v": 1
    },
    {
      "midi": 51,
      "hit": false,
      "t": 186794.55349999893,
      "d": 344.2065583333315,
      "v": 1
    },
    {
      "midi": 63,
      "hit": false,
      "t": 186794.55349999893,
      "d": 344.2065583333315,
      "v": 1
    },
    {
      "midi": 47,
      "hit": false,
      "t": 187140.68299999894,
      "d": 1149.919116666657,
      "v": 1
    },
    {
      "midi": 59,
      "hit": false,
      "t": 187140.68299999894,
      "d": 1149.919116666657,
      "v": 1
    },
    {
      "midi": 49,
      "hit": false,
      "t": 188294.44799999893,
      "d": 228.83005833334755,
      "v": 1
    },
    {
      "midi": 61,
      "hit": false,
      "t": 188294.44799999893,
      "d": 228.83005833334755,
      "v": 1
    },
    {
      "midi": 51,
      "hit": false,
      "t": 188525.20099999895,
      "d": 118.26091250000172,
      "v": 1
    },
    {
      "midi": 63,
      "hit": false,
      "t": 188525.20099999895,
      "d": 118.26091250000172,
      "v": 1
    },
    {
      "midi": 49,
      "hit": false,
      "t": 188640.57749999897,
      "d": 1496.048616666667,
      "v": 1
    },
    {
      "midi": 61,
      "hit": false,
      "t": 188640.57749999897,
      "d": 1496.048616666667,
      "v": 1
    },
    {
      "midi": 54,
      "hit": false,
      "t": 190140.47199999896,
      "d": 226.90711666666903,
      "v": 1
    },
    {
      "midi": 66,
      "hit": false,
      "t": 190140.47199999896,
      "d": 226.90711666666903,
      "v": 1
    },
    {
      "midi": 53,
      "hit": false,
      "t": 190371.22499999896,
      "d": 457.660116666666,
      "v": 1
    },
    {
      "midi": 65,
      "hit": false,
      "t": 190371.22499999896,
      "d": 457.660116666666,
      "v": 1
    },
    {
      "midi": 51,
      "hit": false,
      "t": 190832.73099999895,
      "d": 1149.919116666657,
      "v": 1
    },
    {
      "midi": 63,
      "hit": false,
      "t": 190832.73099999895,
      "d": 1149.919116666657,
      "v": 1
    },
    {
      "midi": 53,
      "hit": false,
      "t": 191986.49599999894,
      "d": 250.94388750000508,
      "v": 1
    },
    {
      "midi": 65,
      "hit": false,
      "t": 191986.49599999894,
      "d": 250.94388750000508,
      "v": 1
    },
    {
      "midi": 54,
      "hit": false,
      "t": 192217.24899999893,
      "d": 137.49032916667056,
      "v": 1
    },
    {
      "midi": 66,
      "hit": false,
      "t": 192217.24899999893,
      "d": 137.49032916667056,
      "v": 1
    },
    {
      "midi": 58,
      "hit": false,
      "t": 192332.62549999895,
      "d": 351.8983249999874,
      "v": 1
    },
    {
      "midi": 70,
      "hit": false,
      "t": 192332.62549999895,
      "d": 351.8983249999874,
      "v": 1
    },
    {
      "midi": 53,
      "hit": false,
      "t": 192678.75499999893,
      "d": 1149.919116666686,
      "v": 1
    },
    {
      "midi": 65,
      "hit": false,
      "t": 192678.75499999893,
      "d": 1149.919116666686,
      "v": 1
    },
    {
      "midi": 54,
      "hit": false,
      "t": 193832.51999999894,
      "d": 226.90711666666903,
      "v": 1
    },
    {
      "midi": 66,
      "hit": false,
      "t": 193832.51999999894,
      "d": 226.90711666666903,
      "v": 1
    },
    {
      "midi": 56,
      "hit": false,
      "t": 194063.27299999894,
      "d": 457.660116666666,
      "v": 1
    },
    {
      "midi": 68,
      "hit": false,
      "t": 194063.27299999894,
      "d": 457.660116666666,
      "v": 1
    },
    {
      "midi": 54,
      "hit": false,
      "t": 194524.77899999893,
      "d": 1380.672116666654,
      "v": 1
    },
    {
      "midi": 66,
      "hit": false,
      "t": 194524.77899999893,
      "d": 1380.672116666654,
      "v": 1
    },
    {
      "midi": 53,
      "hit": false,
      "t": 195909.2969999989,
      "d": 123.06826666666893,
      "v": 1
    },
    {
      "midi": 65,
      "hit": false,
      "t": 195909.2969999989,
      "d": 123.06826666666893,
      "v": 1
    },
    {
      "midi": 54,
      "hit": false,
      "t": 196024.67349999893,
      "d": 3342.0726166666427,
      "v": 1
    },
    {
      "midi": 66,
      "hit": false,
      "t": 196024.67349999893,
      "d": 3342.0726166666427,
      "v": 1
    }
  ]
}