{
  "jsonPath": "Unknown/Unknown/Ágata/duas-historias-iguais.json",
  "path": "Unknown\\Unknown\\Ágata\\Duas histórias iguais.mid",
  "name": "Duas histórias iguais",
  "difficulty": "Advanced",
  "bpm": 120,
  "notes": [
    {
      "midi": 81,
      "hit": false,
      "t": 2500,
      "d": 250,
      "v": 29
    },
    {
      "midi": 81,
      "hit": false,
      "t": 2750,
      "d": 250,
      "v": 46
    },
    {
      "midi": 81,
      "hit": false,
      "t": 3000,
      "d": 250,
      "v": 43
    },
    {
      "midi": 81,
      "hit": false,
      "t": 3250,
      "d": 250,
      "v": 76
    },
    {
      "midi": 50,
      "hit": false,
      "t": 3250,
      "d": 2000,
      "v": 42
    },
    {
      "midi": 78,
      "hit": false,
      "t": 3500,
      "d": 250,
      "v": 57
    },
    {
      "midi": 78,
      "hit": false,
      "t": 3750,
      "d": 250,
      "v": 48
    },
    {
      "midi": 57,
      "hit": false,
      "t": 3750,
      "d": 1500,
      "v": 51
    },
    {
      "midi": 78,
      "hit": false,
      "t": 4000,
      "d": 500,
      "v": 61
    },
    {
      "midi": 66,
      "hit": false,
      "t": 4250,
      "d": 1000,
      "v": 50
    },
    {
      "midi": 78,
      "hit": false,
      "t": 4500,
      "d": 250,
      "v": 38
    },
    {
      "midi": 78,
      "hit": false,
      "t": 4750,
      "d": 250,
      "v": 43
    },
    {
      "midi": 78,
      "hit": false,
      "t": 5000,
      "d": 250,
      "v": 51
    },
    {
      "midi": 78,
      "hit": false,
      "t": 5250,
      "d": 250,
      "v": 74
    },
    {
      "midi": 49,
      "hit": false,
      "t": 5250,
      "d": 2000,
      "v": 49
    },
    {
      "midi": 76,
      "hit": false,
      "t": 5500,
      "d": 250,
      "v": 45
    },
    {
      "midi": 76,
      "hit": false,
      "t": 5750,
      "d": 250,
      "v": 44
    },
    {
      "midi": 57,
      "hit": false,
      "t": 5750,
      "d": 1500,
      "v": 41
    },
    {
      "midi": 76,
      "hit": false,
      "t": 6000,
      "d": 500,
      "v": 62
    },
    {
      "midi": 64,
      "hit": false,
      "t": 6250,
      "d": 1000,
      "v": 41
    },
    {
      "midi": 76,
      "hit": false,
      "t": 6500,
      "d": 250,
      "v": 52
    },
    {
      "midi": 76,
      "hit": false,
      "t": 6750,
      "d": 250,
      "v": 53
    },
    {
      "midi": 76,
      "hit": false,
      "t": 7000,
      "d": 250,
      "v": 58
    },
    {
      "midi": 76,
      "hit": false,
      "t": 7250,
      "d": 250,
      "v": 80
    },
    {
      "midi": 47,
      "hit": false,
      "t": 7250,
      "d": 2000,
      "v": 52
    },
    {
      "midi": 74,
      "hit": false,
      "t": 7500,
      "d": 250,
      "v": 50
    },
    {
      "midi": 74,
      "hit": false,
      "t": 7750,
      "d": 250,
      "v": 58
    },
    {
      "midi": 54,
      "hit": false,
      "t": 7750,
      "d": 1500,
      "v": 37
    },
    {
      "midi": 74,
      "hit": false,
      "t": 8000,
      "d": 500,
      "v": 74
    },
    {
      "midi": 62,
      "hit": false,
      "t": 8250,
      "d": 1000,
      "v": 47
    },
    {
      "midi": 74,
      "hit": false,
      "t": 8750,
      "d": 250,
      "v": 68
    },
    {
      "midi": 76,
      "hit": false,
      "t": 9000,
      "d": 250,
      "v": 62
    },
    {
      "midi": 78,
      "hit": false,
      "t": 9250,
      "d": 500,
      "v": 67
    },
    {
      "midi": 45,
      "hit": false,
      "t": 9250,
      "d": 2000,
      "v": 62
    },
    {
      "midi": 81,
      "hit": false,
      "t": 9750,
      "d": 500,
      "v": 76
    },
    {
      "midi": 54,
      "hit": false,
      "t": 9750,
      "d": 1500,
      "v": 38
    },
    {
      "midi": 76,
      "hit": false,
      "t": 10250,
      "d": 500,
      "v": 78
    },
    {
      "midi": 62,
      "hit": false,
      "t": 10250,
      "d": 1000,
      "v": 47
    },
    {
      "midi": 74,
      "hit": false,
      "t": 10750,
      "d": 500,
      "v": 80
    },
    {
      "midi": 71,
      "hit": false,
      "t": 11250,
      "d": 500,
      "v": 65
    },
    {
      "midi": 43,
      "hit": false,
      "t": 11250,
      "d": 2000,
      "v": 61
    },
    {
      "midi": 50,
      "hit": false,
      "t": 11500,
      "d": 1750,
      "v": 47
    },
    {
      "midi": 55,
      "hit": false,
      "t": 11750,
      "d": 250,
      "v": 48
    },
    {
      "midi": 71,
      "hit": false,
      "t": 11750,
      "d": 250,
      "v": 76
    },
    {
      "midi": 57,
      "hit": false,
      "t": 12000,
      "d": 500,
      "v": 44
    },
    {
      "midi": 73,
      "hit": false,
      "t": 12000,
      "d": 500,
      "v": 64
    },
    {
      "midi": 59,
      "hit": false,
      "t": 12500,
      "d": 750,
      "v": 48
    },
    {
      "midi": 74,
      "hit": false,
      "t": 12500,
      "d": 750,
      "v": 68
    },
    {
      "midi": 76,
      "hit": false,
      "t": 13250,
      "d": 500,
      "v": 72
    },
    {
      "midi": 42,
      "hit": false,
      "t": 13250,
      "d": 2000.0000000000018,
      "v": 55
    },
    {
      "midi": 74,
      "hit": false,
      "t": 13750,
      "d": 500,
      "v": 70
    },
    {
      "midi": 50,
      "hit": false,
      "t": 13750,
      "d": 1500.0000000000018,
      "v": 56
    },
    {
      "midi": 69,
      "hit": false,
      "t": 14250,
      "d": 333.33333333333394,
      "v": 70
    },
    {
      "midi": 57,
      "hit": false,
      "t": 14250,
      "d": 1000.0000000000018,
      "v": 54
    },
    {
      "midi": 64,
      "hit": false,
      "t": 14583.333333333334,
      "d": 333.33333333333394,
      "v": 68
    },
    {
      "midi": 62,
      "hit": false,
      "t": 14916.666666666668,
      "d": 333.33333333333394,
      "v": 68
    },
    {
      "midi": 36,
      "hit": false,
      "t": 15250.000000000002,
      "d": 2999.999999999998,
      "v": 70
    },
    {
      "midi": 57,
      "hit": false,
      "t": 15250.000000000002,
      "d": 2999.999999999998,
      "v": 83
    },
    {
      "midi": 55,
      "hit": false,
      "t": 18000,
      "d": 250,
      "v": 58
    },
    {
      "midi": 54,
      "hit": false,
      "t": 18250,
      "d": 250,
      "v": 63
    },
    {
      "midi": 52,
      "hit": false,
      "t": 18500,
      "d": 250,
      "v": 59
    },
    {
      "midi": 50,
      "hit": false,
      "t": 18750,
      "d": 250,
      "v": 74
    },
    {
      "midi": 45,
      "hit": false,
      "t": 19000,
      "d": 250,
      "v": 74
    },
    {
      "midi": 33,
      "hit": false,
      "t": 19250,
      "d": 3500,
      "v": 80
    },
    {
      "midi": 45,
      "hit": false,
      "t": 19500,
      "d": 1750,
      "v": 53
    },
    {
      "midi": 52,
      "hit": false,
      "t": 19750,
      "d": 250,
      "v": 44
    },
    {
      "midi": 59,
      "hit": false,
      "t": 20000,
      "d": 250,
      "v": 54
    },
    {
      "midi": 62,
      "hit": false,
      "t": 20250,
      "d": 250,
      "v": 68
    },
    {
      "midi": 67,
      "hit": false,
      "t": 20500,
      "d": 1750,
      "v": 76
    },
    {
      "midi": 57,
      "hit": false,
      "t": 21250,
      "d": 1000,
      "v": 49
    },
    {
      "midi": 61,
      "hit": false,
      "t": 21250,
      "d": 1000,
      "v": 47
    },
    {
      "midi": 64,
      "hit": false,
      "t": 23250,
      "d": 500,
      "v": 59
    },
    {
      "midi": 66,
      "hit": false,
      "t": 23250,
      "d": 750,
      "v": 64
    },
    {
      "midi": 69,
      "hit": false,
      "t": 23250,
      "d": 750,
      "v": 83
    },
    {
      "midi": 50,
      "hit": false,
      "t": 23250,
      "d": 2000,
      "v": 61
    },
    {
      "midi": 57,
      "hit": false,
      "t": 23750,
      "d": 1500,
      "v": 66
    },
    {
      "midi": 64,
      "hit": false,
      "t": 24000,
      "d": 250,
      "v": 57
    },
    {
      "midi": 66,
      "hit": false,
      "t": 24250,
      "d": 1000,
      "v": 64
    },
    {
      "midi": 74,
      "hit": false,
      "t": 24500,
      "d": 750,
      "v": 80
    },
    {
      "midi": 69,
      "hit": false,
      "t": 25250,
      "d": 1000,
      "v": 76
    },
    {
      "midi": 49,
      "hit": false,
      "t": 25250,
      "d": 2000,
      "v": 57
    },
    {
      "midi": 76,
      "hit": false,
      "t": 25250,
      "d": 2000,
      "v": 70
    },
    {
      "midi": 57,
      "hit": false,
      "t": 25750,
      "d": 1500,
      "v": 74
    },
    {
      "midi": 64,
      "hit": false,
      "t": 26250,
      "d": 1000,
      "v": 62
    },
    {
      "midi": 61,
      "hit": false,
      "t": 27250,
      "d": 500,
      "v": 56
    },
    {
      "midi": 62,
      "hit": false,
      "t": 27250,
      "d": 750,
      "v": 76
    },
    {
      "midi": 66,
      "hit": false,
      "t": 27250,
      "d": 750,
      "v": 61
    },
    {
      "midi": 47,
      "hit": false,
      "t": 27250,
      "d": 2000,
      "v": 61
    },
    {
      "midi": 54,
      "hit": false,
      "t": 27750,
      "d": 1500,
      "v": 61
    },
    {
      "midi": 61,
      "hit": false,
      "t": 28000,
      "d": 250,
      "v": 60
    },
    {
      "midi": 62,
      "hit": false,
      "t": 28250,
      "d": 1000,
      "v": 76
    },
    {
      "midi": 71,
      "hit": false,
      "t": 28500,
      "d": 750,
      "v": 76
    },
    {
      "midi": 66,
      "hit": false,
      "t": 29250,
      "d": 1000,
      "v": 67
    },
    {
      "midi": 45,
      "hit": false,
      "t": 29250,
      "d": 2000,
      "v": 65
    },
    {
      "midi": 73,
      "hit": false,
      "t": 29250,
      "d": 2000,
      "v": 63
    },
    {
      "midi": 54,
      "hit": false,
      "t": 29750,
      "d": 1500,
      "v": 56
    },
    {
      "midi": 61,
      "hit": false,
      "t": 30250,
      "d": 1000,
      "v": 60
    },
    {
      "midi": 69,
      "hit": false,
      "t": 31250,
      "d": 250,
      "v": 72
    },
    {
      "midi": 43,
      "hit": false,
      "t": 31250,
      "d": 2000,
      "v": 66
    },
    {
      "midi": 74,
      "hit": false,
      "t": 31250,
      "d": 2000,
      "v": 66
    },
    {
      "midi": 71,
      "hit": false,
      "t": 31500,
      "d": 250,
      "v": 51
    },
    {
      "midi": 67,
      "hit": false,
      "t": 31750,
      "d": 250,
      "v": 61
    },
    {
      "midi": 50,
      "hit": false,
      "t": 31750,
      "d": 500,
      "v": 62
    },
    {
      "midi": 62,
      "hit": false,
      "t": 32000,
      "d": 1250,
      "v": 70
    },
    {
      "midi": 59,
      "hit": false,
      "t": 32250,
      "d": 1000,
      "v": 66
    },
    {
      "midi": 62,
      "hit": false,
      "t": 33250,
      "d": 1000,
      "v": 74
    },
    {
      "midi": 42,
      "hit": false,
      "t": 33250,
      "d": 2000,
      "v": 63
    },
    {
      "midi": 69,
      "hit": false,
      "t": 33250,
      "d": 2000,
      "v": 63
    },
    {
      "midi": 50,
      "hit": false,
      "t": 33750,
      "d": 1500,
      "v": 66
    },
    {
      "midi": 57,
      "hit": false,
      "t": 34250,
      "d": 1000,
      "v": 63
    },
    {
      "midi": 62,
      "hit": false,
      "t": 35250,
      "d": 1000,
      "v": 76
    },
    {
      "midi": 40,
      "hit": false,
      "t": 35250,
      "d": 2000,
      "v": 56
    },
    {
      "midi": 67,
      "hit": false,
      "t": 35250,
      "d": 2000,
      "v": 70
    },
    {
      "midi": 47,
      "hit": false,
      "t": 35750,
      "d": 1500,
      "v": 58
    },
    {
      "midi": 55,
      "hit": false,
      "t": 36250,
      "d": 1000,
      "v": 54
    },
    {
      "midi": 59,
      "hit": false,
      "t": 37250,
      "d": 250,
      "v": 29
    },
    {
      "midi": 61,
      "hit": false,
      "t": 37250,
      "d": 500,
      "v": 37
    },
    {
      "midi": 64,
      "hit": false,
      "t": 37250,
      "d": 750,
      "v": 51
    },
    {
      "midi": 45,
      "hit": false,
      "t": 37250,
      "d": 2000,
      "v": 51
    },
    {
      "midi": 52,
      "hit": false,
      "t": 37500,
      "d": 1750,
      "v": 55
    },
    {
      "midi": 59,
      "hit": false,
      "t": 37750,
      "d": 250,
      "v": 36
    },
    {
      "midi": 61,
      "hit": false,
      "t": 38000,
      "d": 1250,
      "v": 56
    },
    {
      "midi": 69,
      "hit": false,
      "t": 38250,
      "d": 1000,
      "v": 50
    },
    {
      "midi": 76,
      "hit": false,
      "t": 39250,
      "d": 750,
      "v": 70
    },
    {
      "midi": 57,
      "hit": false,
      "t": 39250,
      "d": 1750,
      "v": 63
    },
    {
      "midi": 66,
      "hit": false,
      "t": 39250,
      "d": 2000,
      "v": 57
    },
    {
      "midi": 74,
      "hit": false,
      "t": 40000,
      "d": 500,
      "v": 76
    },
    {
      "midi": 78,
      "hit": false,
      "t": 40500,
      "d": 500,
      "v": 66
    },
    {
      "midi": 69,
      "hit": false,
      "t": 41000,
      "d": 250,
      "v": 70
    },
    {
      "midi": 59,
      "hit": false,
      "t": 41250,
      "d": 750,
      "v": 48
    },
    {
      "midi": 67,
      "hit": false,
      "t": 41250,
      "d": 750,
      "v": 54
    },
    {
      "midi": 76,
      "hit": false,
      "t": 41250,
      "d": 1000,
      "v": 78
    },
    {
      "midi": 61,
      "hit": false,
      "t": 42250,
      "d": 750,
      "v": 57
    },
    {
      "midi": 69,
      "hit": false,
      "t": 42250,
      "d": 750,
      "v": 61
    },
    {
      "midi": 74,
      "hit": false,
      "t": 42250,
      "d": 750,
      "v": 74
    },
    {
      "midi": 64,
      "hit": false,
      "t": 43250,
      "d": 500,
      "v": 59
    },
    {
      "midi": 66,
      "hit": false,
      "t": 43250,
      "d": 750,
      "v": 64
    },
    {
      "midi": 69,
      "hit": false,
      "t": 43250,
      "d": 750,
      "v": 83
    },
    {
      "midi": 50,
      "hit": false,
      "t": 43250,
      "d": 2000,
      "v": 61
    },
    {
      "midi": 57,
      "hit": false,
      "t": 43750,
      "d": 1500,
      "v": 66
    },
    {
      "midi": 64,
      "hit": false,
      "t": 44000,
      "d": 250,
      "v": 57
    },
    {
      "midi": 66,
      "hit": false,
      "t": 44250,
      "d": 1000,
      "v": 64
    },
    {
      "midi": 74,
      "hit": false,
      "t": 44500,
      "d": 750,
      "v": 80
    },
    {
      "midi": 69,
      "hit": false,
      "t": 45250,
      "d": 1000,
      "v": 76
    },
    {
      "midi": 49,
      "hit": false,
      "t": 45250,
      "d": 2000,
      "v": 57
    },
    {
      "midi": 76,
      "hit": false,
      "t": 45250,
      "d": 2000,
      "v": 70
    },
    {
      "midi": 57,
      "hit": false,
      "t": 45750,
      "d": 1500,
      "v": 74
    },
    {
      "midi": 64,
      "hit": false,
      "t": 46250,
      "d": 1000,
      "v": 62
    },
    {
      "midi": 61,
      "hit": false,
      "t": 47250,
      "d": 500,
      "v": 56
    },
    {
      "midi": 62,
      "hit": false,
      "t": 47250,
      "d": 750,
      "v": 76
    },
    {
      "midi": 66,
      "hit": false,
      "t": 47250,
      "d": 750,
      "v": 61
    },
    {
      "midi": 47,
      "hit": false,
      "t": 47250,
      "d": 2000,
      "v": 61
    },
    {
      "midi": 54,
      "hit": false,
      "t": 47750,
      "d": 1500,
      "v": 61
    },
    {
      "midi": 61,
      "hit": false,
      "t": 48000,
      "d": 250,
      "v": 60
    },
    {
      "midi": 62,
      "hit": false,
      "t": 48250,
      "d": 1000,
      "v": 76
    },
    {
      "midi": 71,
      "hit": false,
      "t": 48500,
      "d": 750,
      "v": 76
    },
    {
      "midi": 66,
      "hit": false,
      "t": 49250,
      "d": 1000,
      "v": 67
    },
    {
      "midi": 45,
      "hit": false,
      "t": 49250,
      "d": 2000,
      "v": 65
    },
    {
      "midi": 73,
      "hit": false,
      "t": 49250,
      "d": 2000,
      "v": 63
    },
    {
      "midi": 54,
      "hit": false,
      "t": 49750,
      "d": 1500,
      "v": 56
    },
    {
      "midi": 61,
      "hit": false,
      "t": 50250,
      "d": 1000,
      "v": 60
    },
    {
      "midi": 69,
      "hit": false,
      "t": 51250,
      "d": 250,
      "v": 72
    },
    {
      "midi": 43,
      "hit": false,
      "t": 51250,
      "d": 2000,
      "v": 66
    },
    {
      "midi": 74,
      "hit": false,
      "t": 51250,
      "d": 2000,
      "v": 66
    },
    {
      "midi": 71,
      "hit": false,
      "t": 51500,
      "d": 250,
      "v": 51
    },
    {
      "midi": 67,
      "hit": false,
      "t": 51750,
      "d": 250,
      "v": 61
    },
    {
      "midi": 50,
      "hit": false,
      "t": 51750,
      "d": 500,
      "v": 62
    },
    {
      "midi": 62,
      "hit": false,
      "t": 52000,
      "d": 1250,
      "v": 70
    },
    {
      "midi": 59,
      "hit": false,
      "t": 52250,
      "d": 1000,
      "v": 66
    },
    {
      "midi": 62,
      "hit": false,
      "t": 53250,
      "d": 1000,
      "v": 74
    },
    {
      "midi": 42,
      "hit": false,
      "t": 53250,
      "d": 2000,
      "v": 63
    },
    {
      "midi": 69,
      "hit": false,
      "t": 53250,
      "d": 2000,
      "v": 63
    },
    {
      "midi": 50,
      "hit": false,
      "t": 53750,
      "d": 1500,
      "v": 66
    },
    {
      "midi": 57,
      "hit": false,
      "t": 54250,
      "d": 1000,
      "v": 63
    },
    {
      "midi": 62,
      "hit": false,
      "t": 55250,
      "d": 1000,
      "v": 76
    },
    {
      "midi": 40,
      "hit": false,
      "t": 55250,
      "d": 2000,
      "v": 56
    },
    {
      "midi": 67,
      "hit": false,
      "t": 55250,
      "d": 2000,
      "v": 70
    },
    {
      "midi": 47,
      "hit": false,
      "t": 55750,
      "d": 1500,
      "v": 58
    },
    {
      "midi": 55,
      "hit": false,
      "t": 56250,
      "d": 1000,
      "v": 54
    },
    {
      "midi": 59,
      "hit": false,
      "t": 57250,
      "d": 250,
      "v": 29
    },
    {
      "midi": 61,
      "hit": false,
      "t": 57250,
      "d": 500,
      "v": 37
    },
    {
      "midi": 64,
      "hit": false,
      "t": 57250,
      "d": 750,
      "v": 51
    },
    {
      "midi": 45,
      "hit": false,
      "t": 57250,
      "d": 2000,
      "v": 51
    },
    {
      "midi": 52,
      "hit": false,
      "t": 57500,
      "d": 1750,
      "v": 55
    },
    {
      "midi": 59,
      "hit": false,
      "t": 57750,
      "d": 250,
      "v": 36
    },
    {
      "midi": 61,
      "hit": false,
      "t": 58000,
      "d": 1250,
      "v": 56
    },
    {
      "midi": 69,
      "hit": false,
      "t": 58250,
      "d": 1000,
      "v": 50
    },
    {
      "midi": 64,
      "hit": false,
      "t": 59250,
      "d": 500,
      "v": 45
    },
    {
      "midi": 66,
      "hit": false,
      "t": 59250,
      "d": 500,
      "v": 66
    },
    {
      "midi": 69,
      "hit": false,
      "t": 59250,
      "d": 500,
      "v": 80
    },
    {
      "midi": 50,
      "hit": false,
      "t": 59250,
      "d": 2000,
      "v": 69
    },
    {
      "midi": 57,
      "hit": false,
      "t": 59750,
      "d": 750,
      "v": 85
    },
    {
      "midi": 64,
      "hit": false,
      "t": 60000,
      "d": 250,
      "v": 61
    },
    {
      "midi": 66,
      "hit": false,
      "t": 60250,
      "d": 1000,
      "v": 74
    },
    {
      "midi": 74,
      "hit": false,
      "t": 60500,
      "d": 750,
      "v": 93
    },
    {
      "midi": 45,
      "hit": false,
      "t": 61250,
      "d": 1766.666666666657,
      "v": 96
    },
    {
      "midi": 55,
      "hit": false,
      "t": 61366.666666666664,
      "d": 1666.666666666657,
      "v": 80
    },
    {
      "midi": 59,
      "hit": false,
      "t": 61416.666666666664,
      "d": 166.66666666666424,
      "v": 61
    },
    {
      "midi": 62,
      "hit": false,
      "t": 61533.33333333333,
      "d": 1516.666666666657,
      "v": 85
    },
    {
      "midi": 69,
      "hit": false,
      "t": 61649.99999999999,
      "d": 1399.9999999999927,
      "v": 96
    },
    {
      "midi": 64,
      "hit": false,
      "t": 63249.999999999985,
      "d": 500,
      "v": 59
    },
    {
      "midi": 66,
      "hit": false,
      "t": 63249.999999999985,
      "d": 750,
      "v": 64
    },
    {
      "midi": 69,
      "hit": false,
      "t": 63249.999999999985,
      "d": 750,
      "v": 83
    },
    {
      "midi": 50,
      "hit": false,
      "t": 63249.999999999985,
      "d": 2000,
      "v": 61
    },
    {
      "midi": 57,
      "hit": false,
      "t": 63749.999999999985,
      "d": 1500,
      "v": 66
    },
    {
      "midi": 64,
      "hit": false,
      "t": 63999.999999999985,
      "d": 250,
      "v": 57
    },
    {
      "midi": 66,
      "hit": false,
      "t": 64249.999999999985,
      "d": 1000,
      "v": 64
    },
    {
      "midi": 74,
      "hit": false,
      "t": 64499.999999999985,
      "d": 750,
      "v": 80
    },
    {
      "midi": 69,
      "hit": false,
      "t": 65249.999999999985,
      "d": 1000,
      "v": 76
    },
    {
      "midi": 49,
      "hit": false,
      "t": 65249.999999999985,
      "d": 2000,
      "v": 57
    },
    {
      "midi": 76,
      "hit": false,
      "t": 65249.999999999985,
      "d": 2000,
      "v": 70
    },
    {
      "midi": 57,
      "hit": false,
      "t": 65749.99999999999,
      "d": 1500,
      "v": 74
    },
    {
      "midi": 64,
      "hit": false,
      "t": 66249.99999999999,
      "d": 1000,
      "v": 62
    },
    {
      "midi": 61,
      "hit": false,
      "t": 67249.99999999999,
      "d": 500,
      "v": 56
    },
    {
      "midi": 62,
      "hit": false,
      "t": 67249.99999999999,
      "d": 750,
      "v": 76
    },
    {
      "midi": 66,
      "hit": false,
      "t": 67249.99999999999,
      "d": 750,
      "v": 61
    },
    {
      "midi": 47,
      "hit": false,
      "t": 67249.99999999999,
      "d": 2000,
      "v": 61
    },
    {
      "midi": 54,
      "hit": false,
      "t": 67749.99999999999,
      "d": 1500,
      "v": 61
    },
    {
      "midi": 61,
      "hit": false,
      "t": 67999.99999999999,
      "d": 250,
      "v": 60
    },
    {
      "midi": 62,
      "hit": false,
      "t": 68249.99999999999,
      "d": 1000,
      "v": 76
    },
    {
      "midi": 71,
      "hit": false,
      "t": 68499.99999999999,
      "d": 750,
      "v": 76
    },
    {
      "midi": 66,
      "hit": false,
      "t": 69249.99999999999,
      "d": 1000,
      "v": 67
    },
    {
      "midi": 45,
      "hit": false,
      "t": 69249.99999999999,
      "d": 2000,
      "v": 65
    },
    {
      "midi": 73,
      "hit": false,
      "t": 69249.99999999999,
      "d": 2000,
      "v": 63
    },
    {
      "midi": 54,
      "hit": false,
      "t": 69749.99999999999,
      "d": 1500,
      "v": 56
    },
    {
      "midi": 61,
      "hit": false,
      "t": 70249.99999999999,
      "d": 1000,
      "v": 60
    },
    {
      "midi": 69,
      "hit": false,
      "t": 71249.99999999999,
      "d": 250,
      "v": 72
    },
    {
      "midi": 43,
      "hit": false,
      "t": 71249.99999999999,
      "d": 2000,
      "v": 66
    },
    {
      "midi": 74,
      "hit": false,
      "t": 71249.99999999999,
      "d": 2000,
      "v": 66
    },
    {
      "midi": 71,
      "hit": false,
      "t": 71499.99999999999,
      "d": 250,
      "v": 51
    },
    {
      "midi": 67,
      "hit": false,
      "t": 71749.99999999999,
      "d": 250,
      "v": 61
    },
    {
      "midi": 50,
      "hit": false,
      "t": 71749.99999999999,
      "d": 500,
      "v": 62
    },
    {
      "midi": 62,
      "hit": false,
      "t": 71999.99999999999,
      "d": 1250,
      "v": 70
    },
    {
      "midi": 59,
      "hit": false,
      "t": 72249.99999999999,
      "d": 1000,
      "v": 66
    },
    {
      "midi": 62,
      "hit": false,
      "t": 73249.99999999999,
      "d": 1000,
      "v": 74
    },
    {
      "midi": 42,
      "hit": false,
      "t": 73249.99999999999,
      "d": 2000,
      "v": 63
    },
    {
      "midi": 69,
      "hit": false,
      "t": 73249.99999999999,
      "d": 2000,
      "v": 63
    },
    {
      "midi": 50,
      "hit": false,
      "t": 73749.99999999999,
      "d": 1500,
      "v": 66
    },
    {
      "midi": 57,
      "hit": false,
      "t": 74249.99999999999,
      "d": 1000,
      "v": 63
    },
    {
      "midi": 62,
      "hit": false,
      "t": 75249.99999999999,
      "d": 1000,
      "v": 76
    },
    {
      "midi": 40,
      "hit": false,
      "t": 75249.99999999999,
      "d": 2000,
      "v": 56
    },
    {
      "midi": 67,
      "hit": false,
      "t": 75249.99999999999,
      "d": 2000,
      "v": 70
    },
    {
      "midi": 47,
      "hit": false,
      "t": 75749.99999999999,
      "d": 1500,
      "v": 58
    },
    {
      "midi": 55,
      "hit": false,
      "t": 76249.99999999999,
      "d": 1000,
      "v": 54
    },
    {
      "midi": 59,
      "hit": false,
      "t": 77249.99999999999,
      "d": 250,
      "v": 29
    },
    {
      "midi": 61,
      "hit": false,
      "t": 77249.99999999999,
      "d": 500,
      "v": 37
    },
    {
      "midi": 64,
      "hit": false,
      "t": 77249.99999999999,
      "d": 750,
      "v": 51
    },
    {
      "midi": 45,
      "hit": false,
      "t": 77249.99999999999,
      "d": 2000,
      "v": 51
    },
    {
      "midi": 52,
      "hit": false,
      "t": 77499.99999999999,
      "d": 1750,
      "v": 55
    },
    {
      "midi": 59,
      "hit": false,
      "t": 77749.99999999999,
      "d": 250,
      "v": 36
    },
    {
      "midi": 61,
      "hit": false,
      "t": 77999.99999999999,
      "d": 1250,
      "v": 56
    },
    {
      "midi": 69,
      "hit": false,
      "t": 78249.99999999999,
      "d": 1000,
      "v": 50
    },
    {
      "midi": 64,
      "hit": false,
      "t": 79249.99999999999,
      "d": 500,
      "v": 59
    },
    {
      "midi": 66,
      "hit": false,
      "t": 79249.99999999999,
      "d": 750,
      "v": 64
    },
    {
      "midi": 69,
      "hit": false,
      "t": 79249.99999999999,
      "d": 750,
      "v": 83
    },
    {
      "midi": 50,
      "hit": false,
      "t": 79249.99999999999,
      "d": 2000,
      "v": 61
    },
    {
      "midi": 57,
      "hit": false,
      "t": 79749.99999999999,
      "d": 1500,
      "v": 66
    },
    {
      "midi": 64,
      "hit": false,
      "t": 79999.99999999999,
      "d": 250,
      "v": 57
    },
    {
      "midi": 66,
      "hit": false,
      "t": 80249.99999999999,
      "d": 1000,
      "v": 64
    },
    {
      "midi": 74,
      "hit": false,
      "t": 80499.99999999999,
      "d": 750,
      "v": 80
    },
    {
      "midi": 69,
      "hit": false,
      "t": 81249.99999999999,
      "d": 1000,
      "v": 76
    },
    {
      "midi": 49,
      "hit": false,
      "t": 81249.99999999999,
      "d": 2000,
      "v": 57
    },
    {
      "midi": 76,
      "hit": false,
      "t": 81249.99999999999,
      "d": 2000,
      "v": 70
    },
    {
      "midi": 57,
      "hit": false,
      "t": 81749.99999999999,
      "d": 1500,
      "v": 74
    },
    {
      "midi": 64,
      "hit": false,
      "t": 82249.99999999999,
      "d": 1000,
      "v": 62
    },
    {
      "midi": 61,
      "hit": false,
      "t": 83249.99999999999,
      "d": 500,
      "v": 56
    },
    {
      "midi": 62,
      "hit": false,
      "t": 83249.99999999999,
      "d": 750,
      "v": 76
    },
    {
      "midi": 66,
      "hit": false,
      "t": 83249.99999999999,
      "d": 750,
      "v": 61
    },
    {
      "midi": 47,
      "hit": false,
      "t": 83249.99999999999,
      "d": 2000,
      "v": 61
    },
    {
      "midi": 54,
      "hit": false,
      "t": 83749.99999999999,
      "d": 1500,
      "v": 61
    },
    {
      "midi": 61,
      "hit": false,
      "t": 83999.99999999999,
      "d": 250,
      "v": 60
    },
    {
      "midi": 62,
      "hit": false,
      "t": 84249.99999999999,
      "d": 1000,
      "v": 76
    },
    {
      "midi": 71,
      "hit": false,
      "t": 84499.99999999999,
      "d": 750,
      "v": 76
    },
    {
      "midi": 66,
      "hit": false,
      "t": 85249.99999999999,
      "d": 1000,
      "v": 67
    },
    {
      "midi": 45,
      "hit": false,
      "t": 85249.99999999999,
      "d": 2000,
      "v": 65
    },
    {
      "midi": 73,
      "hit": false,
      "t": 85249.99999999999,
      "d": 2000,
      "v": 63
    },
    {
      "midi": 54,
      "hit": false,
      "t": 85749.99999999999,
      "d": 1500,
      "v": 56
    },
    {
      "midi": 61,
      "hit": false,
      "t": 86249.99999999999,
      "d": 1000,
      "v": 60
    },
    {
      "midi": 69,
      "hit": false,
      "t": 87249.99999999999,
      "d": 250,
      "v": 72
    },
    {
      "midi": 43,
      "hit": false,
      "t": 87249.99999999999,
      "d": 2000,
      "v": 66
    },
    {
      "midi": 74,
      "hit": false,
      "t": 87249.99999999999,
      "d": 2000,
      "v": 66
    },
    {
      "midi": 71,
      "hit": false,
      "t": 87499.99999999999,
      "d": 250,
      "v": 51
    },
    {
      "midi": 67,
      "hit": false,
      "t": 87749.99999999999,
      "d": 250,
      "v": 61
    },
    {
      "midi": 50,
      "hit": false,
      "t": 87749.99999999999,
      "d": 500,
      "v": 62
    },
    {
      "midi": 62,
      "hit": false,
      "t": 87999.99999999999,
      "d": 1250,
      "v": 70
    },
    {
      "midi": 59,
      "hit": false,
      "t": 88249.99999999999,
      "d": 1000,
      "v": 66
    },
    {
      "midi": 62,
      "hit": false,
      "t": 89249.99999999999,
      "d": 1000,
      "v": 74
    },
    {
      "midi": 42,
      "hit": false,
      "t": 89249.99999999999,
      "d": 2000,
      "v": 63
    },
    {
      "midi": 69,
      "hit": false,
      "t": 89249.99999999999,
      "d": 2000,
      "v": 63
    },
    {
      "midi": 50,
      "hit": false,
      "t": 89749.99999999999,
      "d": 1500,
      "v": 66
    },
    {
      "midi": 57,
      "hit": false,
      "t": 90249.99999999999,
      "d": 1000,
      "v": 63
    },
    {
      "midi": 62,
      "hit": false,
      "t": 91249.99999999999,
      "d": 1000,
      "v": 76
    },
    {
      "midi": 40,
      "hit": false,
      "t": 91249.99999999999,
      "d": 2000,
      "v": 56
    },
    {
      "midi": 67,
      "hit": false,
      "t": 91249.99999999999,
      "d": 2000,
      "v": 70
    },
    {
      "midi": 47,
      "hit": false,
      "t": 91749.99999999999,
      "d": 1500,
      "v": 58
    },
    {
      "midi": 55,
      "hit": false,
      "t": 92249.99999999999,
      "d": 1000,
      "v": 54
    },
    {
      "midi": 59,
      "hit": false,
      "t": 93249.99999999999,
      "d": 250,
      "v": 29
    },
    {
      "midi": 61,
      "hit": false,
      "t": 93249.99999999999,
      "d": 500,
      "v": 37
    },
    {
      "midi": 64,
      "hit": false,
      "t": 93249.99999999999,
      "d": 750,
      "v": 51
    },
    {
      "midi": 45,
      "hit": false,
      "t": 93249.99999999999,
      "d": 2000,
      "v": 51
    },
    {
      "midi": 52,
      "hit": false,
      "t": 93499.99999999999,
      "d": 1750,
      "v": 55
    },
    {
      "midi": 59,
      "hit": false,
      "t": 93749.99999999999,
      "d": 250,
      "v": 36
    },
    {
      "midi": 61,
      "hit": false,
      "t": 93999.99999999999,
      "d": 1250,
      "v": 56
    },
    {
      "midi": 69,
      "hit": false,
      "t": 94249.99999999999,
      "d": 1000,
      "v": 50
    },
    {
      "midi": 76,
      "hit": false,
      "t": 95249.99999999999,
      "d": 750,
      "v": 104
    },
    {
      "midi": 74,
      "hit": false,
      "t": 95999.99999999999,
      "d": 750,
      "v": 98
    },
    {
      "midi": 78,
      "hit": false,
      "t": 96749.99999999999,
      "d": 500,
      "v": 86
    },
    {
      "midi": 76,
      "hit": false,
      "t": 97249.99999999999,
      "d": 750,
      "v": 96
    },
    {
      "midi": 74,
      "hit": false,
      "t": 97999.99999999999,
      "d": 750,
      "v": 101
    },
    {
      "midi": 67,
      "hit": false,
      "t": 98749.99999999999,
      "d": 250,
      "v": 87
    },
    {
      "midi": 74,
      "hit": false,
      "t": 98999.99999999999,
      "d": 250,
      "v": 96
    },
    {
      "midi": 76,
      "hit": false,
      "t": 99249.99999999999,
      "d": 500,
      "v": 98
    },
    {
      "midi": 74,
      "hit": false,
      "t": 99749.99999999999,
      "d": 250,
      "v": 96
    },
    {
      "midi": 76,
      "hit": false,
      "t": 99999.99999999999,
      "d": 500,
      "v": 98
    },
    {
      "midi": 78,
      "hit": false,
      "t": 100499.99999999999,
      "d": 750,
      "v": 91
    },
    {
      "midi": 74,
      "hit": false,
      "t": 101249.99999999999,
      "d": 3000,
      "v": 98
    },
    {
      "midi": 64,
      "hit": false,
      "t": 105249.99999999999,
      "d": 500,
      "v": 59
    },
    {
      "midi": 66,
      "hit": false,
      "t": 105249.99999999999,
      "d": 750,
      "v": 64
    },
    {
      "midi": 69,
      "hit": false,
      "t": 105249.99999999999,
      "d": 750,
      "v": 83
    },
    {
      "midi": 50,
      "hit": false,
      "t": 105249.99999999999,
      "d": 2000,
      "v": 61
    },
    {
      "midi": 57,
      "hit": false,
      "t": 105749.99999999999,
      "d": 1500,
      "v": 66
    },
    {
      "midi": 64,
      "hit": false,
      "t": 105999.99999999999,
      "d": 250,
      "v": 57
    },
    {
      "midi": 66,
      "hit": false,
      "t": 106249.99999999999,
      "d": 1000,
      "v": 64
    },
    {
      "midi": 74,
      "hit": false,
      "t": 106499.99999999999,
      "d": 750,
      "v": 80
    },
    {
      "midi": 69,
      "hit": false,
      "t": 107249.99999999999,
      "d": 1000,
      "v": 76
    },
    {
      "midi": 49,
      "hit": false,
      "t": 107249.99999999999,
      "d": 2000,
      "v": 57
    },
    {
      "midi": 76,
      "hit": false,
      "t": 107249.99999999999,
      "d": 2000,
      "v": 70
    },
    {
      "midi": 57,
      "hit": false,
      "t": 107749.99999999999,
      "d": 1500,
      "v": 74
    },
    {
      "midi": 64,
      "hit": false,
      "t": 108249.99999999999,
      "d": 1000,
      "v": 62
    },
    {
      "midi": 61,
      "hit": false,
      "t": 109249.99999999999,
      "d": 500,
      "v": 56
    },
    {
      "midi": 62,
      "hit": false,
      "t": 109249.99999999999,
      "d": 750,
      "v": 76
    },
    {
      "midi": 66,
      "hit": false,
      "t": 109249.99999999999,
      "d": 750,
      "v": 61
    },
    {
      "midi": 47,
      "hit": false,
      "t": 109249.99999999999,
      "d": 2000,
      "v": 61
    },
    {
      "midi": 54,
      "hit": false,
      "t": 109749.99999999999,
      "d": 1500,
      "v": 61
    },
    {
      "midi": 61,
      "hit": false,
      "t": 109999.99999999999,
      "d": 250,
      "v": 60
    },
    {
      "midi": 62,
      "hit": false,
      "t": 110249.99999999999,
      "d": 1000,
      "v": 76
    },
    {
      "midi": 71,
      "hit": false,
      "t": 110499.99999999999,
      "d": 750,
      "v": 76
    },
    {
      "midi": 66,
      "hit": false,
      "t": 111249.99999999999,
      "d": 1000,
      "v": 67
    },
    {
      "midi": 45,
      "hit": false,
      "t": 111249.99999999999,
      "d": 2000,
      "v": 65
    },
    {
      "midi": 73,
      "hit": false,
      "t": 111249.99999999999,
      "d": 2000,
      "v": 63
    },
    {
      "midi": 54,
      "hit": false,
      "t": 111749.99999999999,
      "d": 1500,
      "v": 56
    },
    {
      "midi": 61,
      "hit": false,
      "t": 112249.99999999999,
      "d": 1000,
      "v": 60
    },
    {
      "midi": 69,
      "hit": false,
      "t": 113249.99999999999,
      "d": 250,
      "v": 72
    },
    {
      "midi": 43,
      "hit": false,
      "t": 113249.99999999999,
      "d": 2000,
      "v": 66
    },
    {
      "midi": 74,
      "hit": false,
      "t": 113249.99999999999,
      "d": 2000,
      "v": 66
    },
    {
      "midi": 71,
      "hit": false,
      "t": 113499.99999999999,
      "d": 250,
      "v": 51
    },
    {
      "midi": 67,
      "hit": false,
      "t": 113749.99999999999,
      "d": 250,
      "v": 61
    },
    {
      "midi": 50,
      "hit": false,
      "t": 113749.99999999999,
      "d": 500,
      "v": 62
    },
    {
      "midi": 62,
      "hit": false,
      "t": 113999.99999999999,
      "d": 1250,
      "v": 70
    },
    {
      "midi": 59,
      "hit": false,
      "t": 114249.99999999999,
      "d": 1000,
      "v": 66
    },
    {
      "midi": 62,
      "hit": false,
      "t": 115249.99999999999,
      "d": 1000,
      "v": 74
    },
    {
      "midi": 42,
      "hit": false,
      "t": 115249.99999999999,
      "d": 2000,
      "v": 63
    },
    {
      "midi": 69,
      "hit": false,
      "t": 115249.99999999999,
      "d": 2000,
      "v": 63
    },
    {
      "midi": 50,
      "hit": false,
      "t": 115749.99999999999,
      "d": 1500,
      "v": 66
    },
    {
      "midi": 57,
      "hit": false,
      "t": 116249.99999999999,
      "d": 1000,
      "v": 63
    },
    {
      "midi": 62,
      "hit": false,
      "t": 117249.99999999999,
      "d": 1000,
      "v": 76
    },
    {
      "midi": 40,
      "hit": false,
      "t": 117249.99999999999,
      "d": 2000,
      "v": 56
    },
    {
      "midi": 67,
      "hit": false,
      "t": 117249.99999999999,
      "d": 2000,
      "v": 70
    },
    {
      "midi": 47,
      "hit": false,
      "t": 117749.99999999999,
      "d": 1500,
      "v": 58
    },
    {
      "midi": 55,
      "hit": false,
      "t": 118249.99999999999,
      "d": 1000,
      "v": 54
    },
    {
      "midi": 59,
      "hit": false,
      "t": 119249.99999999999,
      "d": 250,
      "v": 29
    },
    {
      "midi": 61,
      "hit": false,
      "t": 119249.99999999999,
      "d": 500,
      "v": 37
    },
    {
      "midi": 64,
      "hit": false,
      "t": 119249.99999999999,
      "d": 750,
      "v": 51
    },
    {
      "midi": 45,
      "hit": false,
      "t": 119249.99999999999,
      "d": 2000,
      "v": 51
    },
    {
      "midi": 52,
      "hit": false,
      "t": 119499.99999999999,
      "d": 1750,
      "v": 55
    },
    {
      "midi": 59,
      "hit": false,
      "t": 119749.99999999999,
      "d": 250,
      "v": 36
    },
    {
      "midi": 61,
      "hit": false,
      "t": 119999.99999999999,
      "d": 1250,
      "v": 56
    },
    {
      "midi": 69,
      "hit": false,
      "t": 120249.99999999999,
      "d": 1000,
      "v": 50
    },
    {
      "midi": 64,
      "hit": false,
      "t": 121249.99999999999,
      "d": 500,
      "v": 45
    },
    {
      "midi": 66,
      "hit": false,
      "t": 121249.99999999999,
      "d": 500,
      "v": 66
    },
    {
      "midi": 69,
      "hit": false,
      "t": 121249.99999999999,
      "d": 500,
      "v": 80
    },
    {
      "midi": 50,
      "hit": false,
      "t": 121249.99999999999,
      "d": 2000,
      "v": 69
    },
    {
      "midi": 57,
      "hit": false,
      "t": 121749.99999999999,
      "d": 750,
      "v": 85
    },
    {
      "midi": 64,
      "hit": false,
      "t": 121999.99999999999,
      "d": 250,
      "v": 61
    },
    {
      "midi": 66,
      "hit": false,
      "t": 122249.99999999999,
      "d": 1000,
      "v": 74
    },
    {
      "midi": 74,
      "hit": false,
      "t": 122499.99999999999,
      "d": 750,
      "v": 93
    },
    {
      "midi": 45,
      "hit": false,
      "t": 123249.99999999999,
      "d": 1766.666666666686,
      "v": 96
    },
    {
      "midi": 55,
      "hit": false,
      "t": 123366.66666666666,
      "d": 1666.666666666686,
      "v": 80
    },
    {
      "midi": 59,
      "hit": false,
      "t": 123416.66666666666,
      "d": 166.66666666667152,
      "v": 61
    },
    {
      "midi": 62,
      "hit": false,
      "t": 123533.33333333333,
      "d": 1516.666666666686,
      "v": 85
    },
    {
      "midi": 69,
      "hit": false,
      "t": 123650,
      "d": 1400.0000000000146,
      "v": 96
    },
    {
      "midi": 64,
      "hit": false,
      "t": 125250.00000000001,
      "d": 500,
      "v": 59
    },
    {
      "midi": 66,
      "hit": false,
      "t": 125250.00000000001,
      "d": 750,
      "v": 64
    },
    {
      "midi": 69,
      "hit": false,
      "t": 125250.00000000001,
      "d": 750,
      "v": 83
    },
    {
      "midi": 50,
      "hit": false,
      "t": 125250.00000000001,
      "d": 2000,
      "v": 61
    },
    {
      "midi": 57,
      "hit": false,
      "t": 125750.00000000001,
      "d": 1500,
      "v": 66
    },
    {
      "midi": 64,
      "hit": false,
      "t": 126000.00000000001,
      "d": 250,
      "v": 57
    },
    {
      "midi": 66,
      "hit": false,
      "t": 126250.00000000001,
      "d": 1000,
      "v": 64
    },
    {
      "midi": 74,
      "hit": false,
      "t": 126500.00000000001,
      "d": 750,
      "v": 80
    },
    {
      "midi": 69,
      "hit": false,
      "t": 127250.00000000001,
      "d": 1000,
      "v": 76
    },
    {
      "midi": 49,
      "hit": false,
      "t": 127250.00000000001,
      "d": 2000,
      "v": 57
    },
    {
      "midi": 76,
      "hit": false,
      "t": 127250.00000000001,
      "d": 2000,
      "v": 70
    },
    {
      "midi": 57,
      "hit": false,
      "t": 127750.00000000001,
      "d": 1500,
      "v": 74
    },
    {
      "midi": 64,
      "hit": false,
      "t": 128250.00000000001,
      "d": 1000,
      "v": 62
    },
    {
      "midi": 61,
      "hit": false,
      "t": 129250.00000000001,
      "d": 500,
      "v": 56
    },
    {
      "midi": 62,
      "hit": false,
      "t": 129250.00000000001,
      "d": 750,
      "v": 76
    },
    {
      "midi": 66,
      "hit": false,
      "t": 129250.00000000001,
      "d": 750,
      "v": 61
    },
    {
      "midi": 47,
      "hit": false,
      "t": 129250.00000000001,
      "d": 1999.9999999999854,
      "v": 61
    },
    {
      "midi": 54,
      "hit": false,
      "t": 129750.00000000001,
      "d": 1499.9999999999854,
      "v": 61
    },
    {
      "midi": 61,
      "hit": false,
      "t": 130000.00000000001,
      "d": 250,
      "v": 60
    },
    {
      "midi": 62,
      "hit": false,
      "t": 130250.00000000001,
      "d": 999.9999999999854,
      "v": 76
    },
    {
      "midi": 71,
      "hit": false,
      "t": 130500.00000000001,
      "d": 749.9999999999854,
      "v": 76
    },
    {
      "midi": 66,
      "hit": false,
      "t": 131250,
      "d": 1000,
      "v": 67
    },
    {
      "midi": 45,
      "hit": false,
      "t": 131250,
      "d": 2000,
      "v": 65
    },
    {
      "midi": 73,
      "hit": false,
      "t": 131250,
      "d": 2000,
      "v": 63
    },
    {
      "midi": 54,
      "hit": false,
      "t": 131750,
      "d": 1500,
      "v": 56
    },
    {
      "midi": 61,
      "hit": false,
      "t": 132250,
      "d": 1000,
      "v": 60
    },
    {
      "midi": 69,
      "hit": false,
      "t": 133250,
      "d": 250,
      "v": 72
    },
    {
      "midi": 43,
      "hit": false,
      "t": 133250,
      "d": 2000,
      "v": 66
    },
    {
      "midi": 74,
      "hit": false,
      "t": 133250,
      "d": 2000,
      "v": 66
    },
    {
      "midi": 71,
      "hit": false,
      "t": 133500,
      "d": 250,
      "v": 51
    },
    {
      "midi": 67,
      "hit": false,
      "t": 133750,
      "d": 250,
      "v": 61
    },
    {
      "midi": 50,
      "hit": false,
      "t": 133750,
      "d": 500,
      "v": 62
    },
    {
      "midi": 62,
      "hit": false,
      "t": 134000,
      "d": 1250,
      "v": 70
    },
    {
      "midi": 59,
      "hit": false,
      "t": 134250,
      "d": 1000,
      "v": 66
    },
    {
      "midi": 62,
      "hit": false,
      "t": 135250,
      "d": 1000,
      "v": 74
    },
    {
      "midi": 42,
      "hit": false,
      "t": 135250,
      "d": 2000,
      "v": 63
    },
    {
      "midi": 69,
      "hit": false,
      "t": 135250,
      "d": 2000,
      "v": 63
    },
    {
      "midi": 50,
      "hit": false,
      "t": 135750,
      "d": 1500,
      "v": 66
    },
    {
      "midi": 57,
      "hit": false,
      "t": 136250,
      "d": 1000,
      "v": 63
    },
    {
      "midi": 62,
      "hit": false,
      "t": 137250,
      "d": 1000,
      "v": 76
    },
    {
      "midi": 40,
      "hit": false,
      "t": 137250,
      "d": 2000,
      "v": 56
    },
    {
      "midi": 67,
      "hit": false,
      "t": 137250,
      "d": 2000,
      "v": 70
    },
    {
      "midi": 47,
      "hit": false,
      "t": 137750,
      "d": 1500,
      "v": 58
    },
    {
      "midi": 55,
      "hit": false,
      "t": 138250,
      "d": 1000,
      "v": 54
    },
    {
      "midi": 59,
      "hit": false,
      "t": 139250,
      "d": 250,
      "v": 29
    },
    {
      "midi": 61,
      "hit": false,
      "t": 139250,
      "d": 500,
      "v": 37
    },
    {
      "midi": 64,
      "hit": false,
      "t": 139250,
      "d": 750,
      "v": 51
    },
    {
      "midi": 45,
      "hit": false,
      "t": 139250,
      "d": 2000,
      "v": 51
    },
    {
      "midi": 52,
      "hit": false,
      "t": 139500,
      "d": 1750,
      "v": 55
    },
    {
      "midi": 59,
      "hit": false,
      "t": 139750,
      "d": 250,
      "v": 36
    },
    {
      "midi": 61,
      "hit": false,
      "t": 140000,
      "d": 1250,
      "v": 56
    },
    {
      "midi": 69,
      "hit": false,
      "t": 140250,
      "d": 1000,
      "v": 50
    },
    {
      "midi": 64,
      "hit": false,
      "t": 141250,
      "d": 500,
      "v": 59
    },
    {
      "midi": 66,
      "hit": false,
      "t": 141250,
      "d": 750,
      "v": 64
    },
    {
      "midi": 69,
      "hit": false,
      "t": 141250,
      "d": 750,
      "v": 83
    },
    {
      "midi": 50,
      "hit": false,
      "t": 141250,
      "d": 2000,
      "v": 61
    },
    {
      "midi": 57,
      "hit": false,
      "t": 141750,
      "d": 1500,
      "v": 66
    },
    {
      "midi": 64,
      "hit": false,
      "t": 142000,
      "d": 250,
      "v": 57
    },
    {
      "midi": 66,
      "hit": false,
      "t": 142250,
      "d": 1000,
      "v": 64
    },
    {
      "midi": 74,
      "hit": false,
      "t": 142500,
      "d": 750,
      "v": 80
    },
    {
      "midi": 69,
      "hit": false,
      "t": 143250,
      "d": 1000,
      "v": 76
    },
    {
      "midi": 49,
      "hit": false,
      "t": 143250,
      "d": 2000,
      "v": 57
    },
    {
      "midi": 76,
      "hit": false,
      "t": 143250,
      "d": 2000,
      "v": 70
    },
    {
      "midi": 57,
      "hit": false,
      "t": 143750,
      "d": 1500,
      "v": 74
    },
    {
      "midi": 64,
      "hit": false,
      "t": 144250,
      "d": 1000,
      "v": 62
    },
    {
      "midi": 61,
      "hit": false,
      "t": 145250,
      "d": 500,
      "v": 56
    },
    {
      "midi": 62,
      "hit": false,
      "t": 145250,
      "d": 750,
      "v": 76
    },
    {
      "midi": 66,
      "hit": false,
      "t": 145250,
      "d": 750,
      "v": 61
    },
    {
      "midi": 47,
      "hit": false,
      "t": 145250,
      "d": 2000,
      "v": 61
    },
    {
      "midi": 54,
      "hit": false,
      "t": 145750,
      "d": 1500,
      "v": 61
    },
    {
      "midi": 61,
      "hit": false,
      "t": 146000,
      "d": 250,
      "v": 60
    },
    {
      "midi": 62,
      "hit": false,
      "t": 146250,
      "d": 1000,
      "v": 76
    },
    {
      "midi": 71,
      "hit": false,
      "t": 146500,
      "d": 750,
      "v": 76
    },
    {
      "midi": 66,
      "hit": false,
      "t": 147250,
      "d": 1000,
      "v": 67
    },
    {
      "midi": 45,
      "hit": false,
      "t": 147250,
      "d": 2000,
      "v": 65
    },
    {
      "midi": 73,
      "hit": false,
      "t": 147250,
      "d": 2000,
      "v": 63
    },
    {
      "midi": 54,
      "hit": false,
      "t": 147750,
      "d": 1500,
      "v": 56
    },
    {
      "midi": 61,
      "hit": false,
      "t": 148250,
      "d": 1000,
      "v": 60
    },
    {
      "midi": 69,
      "hit": false,
      "t": 149250,
      "d": 250,
      "v": 72
    },
    {
      "midi": 43,
      "hit": false,
      "t": 149250,
      "d": 2000,
      "v": 66
    },
    {
      "midi": 74,
      "hit": false,
      "t": 149250,
      "d": 2000,
      "v": 66
    },
    {
      "midi": 71,
      "hit": false,
      "t": 149500,
      "d": 250,
      "v": 51
    },
    {
      "midi": 67,
      "hit": false,
      "t": 149750,
      "d": 250,
      "v": 61
    },
    {
      "midi": 50,
      "hit": false,
      "t": 149750,
      "d": 500,
      "v": 62
    },
    {
      "midi": 62,
      "hit": false,
      "t": 150000,
      "d": 1250,
      "v": 70
    },
    {
      "midi": 59,
      "hit": false,
      "t": 150250,
      "d": 1000,
      "v": 66
    },
    {
      "midi": 62,
      "hit": false,
      "t": 151250,
      "d": 1000,
      "v": 74
    },
    {
      "midi": 42,
      "hit": false,
      "t": 151250,
      "d": 2000,
      "v": 63
    },
    {
      "midi": 69,
      "hit": false,
      "t": 151250,
      "d": 2000,
      "v": 63
    },
    {
      "midi": 50,
      "hit": false,
      "t": 151750,
      "d": 1500,
      "v": 66
    },
    {
      "midi": 57,
      "hit": false,
      "t": 152250,
      "d": 1000,
      "v": 63
    },
    {
      "midi": 62,
      "hit": false,
      "t": 153250,
      "d": 1000,
      "v": 76
    },
    {
      "midi": 40,
      "hit": false,
      "t": 153250,
      "d": 2000,
      "v": 56
    },
    {
      "midi": 67,
      "hit": false,
      "t": 153250,
      "d": 2000,
      "v": 70
    },
    {
      "midi": 47,
      "hit": false,
      "t": 153750,
      "d": 1500,
      "v": 58
    },
    {
      "midi": 55,
      "hit": false,
      "t": 154250,
      "d": 1000,
      "v": 54
    },
    {
      "midi": 59,
      "hit": false,
      "t": 155250,
      "d": 250,
      "v": 29
    },
    {
      "midi": 61,
      "hit": false,
      "t": 155250,
      "d": 500,
      "v": 37
    },
    {
      "midi": 64,
      "hit": false,
      "t": 155250,
      "d": 750,
      "v": 51
    },
    {
      "midi": 45,
      "hit": false,
      "t": 155250,
      "d": 2000,
      "v": 51
    },
    {
      "midi": 52,
      "hit": false,
      "t": 155500,
      "d": 1750,
      "v": 55
    },
    {
      "midi": 59,
      "hit": false,
      "t": 155750,
      "d": 250,
      "v": 36
    },
    {
      "midi": 61,
      "hit": false,
      "t": 156000,
      "d": 1250,
      "v": 56
    },
    {
      "midi": 69,
      "hit": false,
      "t": 156250,
      "d": 1000,
      "v": 50
    },
    {
      "midi": 62,
      "hit": false,
      "t": 157250,
      "d": 750,
      "v": 74
    },
    {
      "midi": 66,
      "hit": false,
      "t": 157250,
      "d": 750,
      "v": 62
    },
    {
      "midi": 62,
      "hit": false,
      "t": 158250,
      "d": 750,
      "v": 85
    },
    {
      "midi": 66,
      "hit": false,
      "t": 158250,
      "d": 750,
      "v": 74
    },
    {
      "midi": 38,
      "hit": false,
      "t": 159000,
      "d": 1250,
      "v": 98
    },
    {
      "midi": 62,
      "hit": false,
      "t": 159250,
      "d": 1000,
      "v": 104
    },
    {
      "midi": 66,
      "hit": false,
      "t": 159250,
      "d": 1000,
      "v": 91
    },
    {
      "midi": 59,
      "hit": false,
      "t": 161250,
      "d": 1750,
      "v": 60
    },
    {
      "midi": 62,
      "hit": false,
      "t": 161250,
      "d": 1750,
      "v": 81
    },
    {
      "midi": 66,
      "hit": false,
      "t": 161250,
      "d": 1750,
      "v": 67
    },
    {
      "midi": 57,
      "hit": false,
      "t": 163250,
      "d": 1750,
      "v": 77
    },
    {
      "midi": 61,
      "hit": false,
      "t": 163250,
      "d": 1750,
      "v": 67
    },
    {
      "midi": 64,
      "hit": false,
      "t": 163250,
      "d": 1750,
      "v": 89
    },
    {
      "midi": 55,
      "hit": false,
      "t": 165250,
      "d": 1750,
      "v": 59
    },
    {
      "midi": 59,
      "hit": false,
      "t": 165250,
      "d": 1750,
      "v": 74
    },
    {
      "midi": 62,
      "hit": false,
      "t": 165250,
      "d": 1750,
      "v": 93
    },
    {
      "midi": 57,
      "hit": false,
      "t": 167250,
      "d": 1000,
      "v": 74
    },
    {
      "midi": 62,
      "hit": false,
      "t": 167250,
      "d": 1000,
      "v": 87
    },
    {
      "midi": 66,
      "hit": false,
      "t": 167250,
      "d": 1000,
      "v": 86
    },
    {
      "midi": 57,
      "hit": false,
      "t": 168500,
      "d": 750,
      "v": 77
    },
    {
      "midi": 61,
      "hit": false,
      "t": 168500,
      "d": 750,
      "v": 72
    },
    {
      "midi": 64,
      "hit": false,
      "t": 168500,
      "d": 750,
      "v": 87
    },
    {
      "midi": 59,
      "hit": false,
      "t": 169250,
      "d": 1750,
      "v": 64
    },
    {
      "midi": 62,
      "hit": false,
      "t": 169250,
      "d": 1750,
      "v": 78
    },
    {
      "midi": 66,
      "hit": false,
      "t": 169250,
      "d": 1750,
      "v": 72
    },
    {
      "midi": 57,
      "hit": false,
      "t": 171250,
      "d": 1750,
      "v": 78
    },
    {
      "midi": 61,
      "hit": false,
      "t": 171250,
      "d": 1750,
      "v": 72
    },
    {
      "midi": 64,
      "hit": false,
      "t": 171250,
      "d": 1750,
      "v": 85
    },
    {
      "midi": 55,
      "hit": false,
      "t": 173250,
      "d": 1750,
      "v": 78
    },
    {
      "midi": 59,
      "hit": false,
      "t": 173250,
      "d": 1750,
      "v": 77
    },
    {
      "midi": 62,
      "hit": false,
      "t": 173250,
      "d": 1750,
      "v": 69
    },
    {
      "midi": 59,
      "hit": false,
      "t": 175250,
      "d": 1000,
      "v": 56
    },
    {
      "midi": 62,
      "hit": false,
      "t": 175250,
      "d": 1000,
      "v": 85
    },
    {
      "midi": 69,
      "hit": false,
      "t": 175250,
      "d": 1000,
      "v": 72
    },
    {
      "midi": 45,
      "hit": false,
      "t": 176250,
      "d": 1000,
      "v": 93
    },
    {
      "midi": 52,
      "hit": false,
      "t": 176500,
      "d": 500,
      "v": 71
    },
    {
      "midi": 59,
      "hit": false,
      "t": 176750,
      "d": 250,
      "v": 75
    },
    {
      "midi": 67,
      "hit": false,
      "t": 177000,
      "d": 1250,
      "v": 87
    },
    {
      "midi": 57,
      "hit": false,
      "t": 177250,
      "d": 1000,
      "v": 67
    },
    {
      "midi": 61,
      "hit": false,
      "t": 177250,
      "d": 1000,
      "v": 74
    },
    {
      "midi": 64,
      "hit": false,
      "t": 179250,
      "d": 500,
      "v": 59
    },
    {
      "midi": 66,
      "hit": false,
      "t": 179250,
      "d": 750,
      "v": 64
    },
    {
      "midi": 69,
      "hit": false,
      "t": 179250,
      "d": 750,
      "v": 83
    },
    {
      "midi": 50,
      "hit": false,
      "t": 179250,
      "d": 2000,
      "v": 61
    },
    {
      "midi": 57,
      "hit": false,
      "t": 179750,
      "d": 1500,
      "v": 66
    },
    {
      "midi": 64,
      "hit": false,
      "t": 180000,
      "d": 250,
      "v": 57
    },
    {
      "midi": 66,
      "hit": false,
      "t": 180250,
      "d": 1000,
      "v": 64
    },
    {
      "midi": 74,
      "hit": false,
      "t": 180500,
      "d": 750,
      "v": 80
    },
    {
      "midi": 69,
      "hit": false,
      "t": 181250,
      "d": 1000,
      "v": 76
    },
    {
      "midi": 49,
      "hit": false,
      "t": 181250,
      "d": 2000,
      "v": 57
    },
    {
      "midi": 76,
      "hit": false,
      "t": 181250,
      "d": 2000,
      "v": 70
    },
    {
      "midi": 57,
      "hit": false,
      "t": 181750,
      "d": 1500,
      "v": 74
    },
    {
      "midi": 64,
      "hit": false,
      "t": 182250,
      "d": 1000,
      "v": 62
    },
    {
      "midi": 61,
      "hit": false,
      "t": 183250,
      "d": 500,
      "v": 56
    },
    {
      "midi": 62,
      "hit": false,
      "t": 183250,
      "d": 750,
      "v": 76
    },
    {
      "midi": 66,
      "hit": false,
      "t": 183250,
      "d": 750,
      "v": 61
    },
    {
      "midi": 47,
      "hit": false,
      "t": 183250,
      "d": 2000,
      "v": 61
    },
    {
      "midi": 54,
      "hit": false,
      "t": 183750,
      "d": 1500,
      "v": 61
    },
    {
      "midi": 61,
      "hit": false,
      "t": 184000,
      "d": 250,
      "v": 60
    },
    {
      "midi": 62,
      "hit": false,
      "t": 184250,
      "d": 1000,
      "v": 76
    },
    {
      "midi": 71,
      "hit": false,
      "t": 184500,
      "d": 750,
      "v": 76
    },
    {
      "midi": 66,
      "hit": false,
      "t": 185250,
      "d": 1000,
      "v": 67
    },
    {
      "midi": 45,
      "hit": false,
      "t": 185250,
      "d": 2000,
      "v": 65
    },
    {
      "midi": 73,
      "hit": false,
      "t": 185250,
      "d": 2000,
      "v": 63
    },
    {
      "midi": 54,
      "hit": false,
      "t": 185750,
      "d": 1500,
      "v": 56
    },
    {
      "midi": 61,
      "hit": false,
      "t": 186250,
      "d": 1000,
      "v": 60
    },
    {
      "midi": 69,
      "hit": false,
      "t": 187250,
      "d": 250,
      "v": 72
    },
    {
      "midi": 43,
      "hit": false,
      "t": 187250,
      "d": 2000,
      "v": 66
    },
    {
      "midi": 74,
      "hit": false,
      "t": 187250,
      "d": 2000,
      "v": 66
    },
    {
      "midi": 71,
      "hit": false,
      "t": 187500,
      "d": 250,
      "v": 51
    },
    {
      "midi": 67,
      "hit": false,
      "t": 187750,
      "d": 250,
      "v": 61
    },
    {
      "midi": 50,
      "hit": false,
      "t": 187750,
      "d": 500,
      "v": 62
    },
    {
      "midi": 62,
      "hit": false,
      "t": 188000,
      "d": 1250,
      "v": 70
    },
    {
      "midi": 59,
      "hit": false,
      "t": 188250,
      "d": 1000,
      "v": 66
    },
    {
      "midi": 62,
      "hit": false,
      "t": 189250,
      "d": 1000,
      "v": 74
    },
    {
      "midi": 42,
      "hit": false,
      "t": 189250,
      "d": 2000,
      "v": 63
    },
    {
      "midi": 69,
      "hit": false,
      "t": 189250,
      "d": 2000,
      "v": 63
    },
    {
      "midi": 50,
      "hit": false,
      "t": 189750,
      "d": 1500,
      "v": 66
    },
    {
      "midi": 57,
      "hit": false,
      "t": 190250,
      "d": 1000,
      "v": 63
    },
    {
      "midi": 62,
      "hit": false,
      "t": 191250,
      "d": 1000,
      "v": 76
    },
    {
      "midi": 40,
      "hit": false,
      "t": 191250,
      "d": 2000,
      "v": 56
    },
    {
      "midi": 67,
      "hit": false,
      "t": 191250,
      "d": 2000,
      "v": 70
    },
    {
      "midi": 47,
      "hit": false,
      "t": 191750,
      "d": 1500,
      "v": 58
    },
    {
      "midi": 55,
      "hit": false,
      "t": 192250,
      "d": 1000,
      "v": 54
    },
    {
      "midi": 59,
      "hit": false,
      "t": 193250,
      "d": 250,
      "v": 29
    },
    {
      "midi": 61,
      "hit": false,
      "t": 193250,
      "d": 500,
      "v": 37
    },
    {
      "midi": 64,
      "hit": false,
      "t": 193250,
      "d": 750,
      "v": 51
    },
    {
      "midi": 45,
      "hit": false,
      "t": 193250,
      "d": 2000,
      "v": 51
    },
    {
      "midi": 52,
      "hit": false,
      "t": 193500,
      "d": 1750,
      "v": 55
    },
    {
      "midi": 59,
      "hit": false,
      "t": 193750,
      "d": 250,
      "v": 36
    },
    {
      "midi": 61,
      "hit": false,
      "t": 194000,
      "d": 1250,
      "v": 56
    },
    {
      "midi": 69,
      "hit": false,
      "t": 194250,
      "d": 1000,
      "v": 50
    },
    {
      "midi": 64,
      "hit": false,
      "t": 195250,
      "d": 500,
      "v": 59
    },
    {
      "midi": 66,
      "hit": false,
      "t": 195250,
      "d": 750,
      "v": 64
    },
    {
      "midi": 69,
      "hit": false,
      "t": 195250,
      "d": 750,
      "v": 83
    },
    {
      "midi": 50,
      "hit": false,
      "t": 195250,
      "d": 2000,
      "v": 61
    },
    {
      "midi": 57,
      "hit": false,
      "t": 195750,
      "d": 1500,
      "v": 66
    },
    {
      "midi": 64,
      "hit": false,
      "t": 196000,
      "d": 250,
      "v": 57
    },
    {
      "midi": 66,
      "hit": false,
      "t": 196250,
      "d": 1000,
      "v": 64
    },
    {
      "midi": 74,
      "hit": false,
      "t": 196500,
      "d": 750,
      "v": 80
    },
    {
      "midi": 69,
      "hit": false,
      "t": 197250,
      "d": 1000,
      "v": 76
    },
    {
      "midi": 49,
      "hit": false,
      "t": 197250,
      "d": 2000,
      "v": 57
    },
    {
      "midi": 76,
      "hit": false,
      "t": 197250,
      "d": 2000,
      "v": 70
    },
    {
      "midi": 57,
      "hit": false,
      "t": 197750,
      "d": 1500,
      "v": 74
    },
    {
      "midi": 64,
      "hit": false,
      "t": 198250,
      "d": 1000,
      "v": 62
    },
    {
      "midi": 61,
      "hit": false,
      "t": 199250,
      "d": 500,
      "v": 56
    },
    {
      "midi": 62,
      "hit": false,
      "t": 199250,
      "d": 750,
      "v": 76
    },
    {
      "midi": 66,
      "hit": false,
      "t": 199250,
      "d": 750,
      "v": 61
    },
    {
      "midi": 47,
      "hit": false,
      "t": 199250,
      "d": 2000,
      "v": 61
    },
    {
      "midi": 54,
      "hit": false,
      "t": 199750,
      "d": 1500,
      "v": 61
    },
    {
      "midi": 61,
      "hit": false,
      "t": 200000,
      "d": 250,
      "v": 60
    },
    {
      "midi": 62,
      "hit": false,
      "t": 200250,
      "d": 1000,
      "v": 76
    },
    {
      "midi": 71,
      "hit": false,
      "t": 200500,
      "d": 750,
      "v": 76
    },
    {
      "midi": 66,
      "hit": false,
      "t": 201250,
      "d": 1000,
      "v": 67
    },
    {
      "midi": 45,
      "hit": false,
      "t": 201250,
      "d": 2000,
      "v": 65
    },
    {
      "midi": 73,
      "hit": false,
      "t": 201250,
      "d": 2000,
      "v": 63
    },
    {
      "midi": 54,
      "hit": false,
      "t": 201750,
      "d": 1500,
      "v": 56
    },
    {
      "midi": 61,
      "hit": false,
      "t": 202250,
      "d": 1000,
      "v": 60
    },
    {
      "midi": 69,
      "hit": false,
      "t": 203250,
      "d": 250,
      "v": 72
    },
    {
      "midi": 43,
      "hit": false,
      "t": 203250,
      "d": 2000,
      "v": 66
    },
    {
      "midi": 74,
      "hit": false,
      "t": 203250,
      "d": 2000,
      "v": 66
    },
    {
      "midi": 71,
      "hit": false,
      "t": 203500,
      "d": 250,
      "v": 51
    },
    {
      "midi": 67,
      "hit": false,
      "t": 203750,
      "d": 250,
      "v": 61
    },
    {
      "midi": 50,
      "hit": false,
      "t": 203750,
      "d": 500,
      "v": 62
    },
    {
      "midi": 62,
      "hit": false,
      "t": 204000,
      "d": 1250,
      "v": 70
    },
    {
      "midi": 59,
      "hit": false,
      "t": 204250,
      "d": 1000,
      "v": 66
    },
    {
      "midi": 62,
      "hit": false,
      "t": 205250,
      "d": 1000,
      "v": 74
    },
    {
      "midi": 42,
      "hit": false,
      "t": 205250,
      "d": 2000,
      "v": 63
    },
    {
      "midi": 69,
      "hit": false,
      "t": 205250,
      "d": 2000,
      "v": 63
    },
    {
      "midi": 50,
      "hit": false,
      "t": 205750,
      "d": 1500,
      "v": 66
    },
    {
      "midi": 57,
      "hit": false,
      "t": 206250,
      "d": 1000,
      "v": 63
    },
    {
      "midi": 62,
      "hit": false,
      "t": 207250,
      "d": 1000,
      "v": 76
    },
    {
      "midi": 40,
      "hit": false,
      "t": 207250,
      "d": 2000,
      "v": 56
    },
    {
      "midi": 67,
      "hit": false,
      "t": 207250,
      "d": 2000,
      "v": 70
    },
    {
      "midi": 47,
      "hit": false,
      "t": 207750,
      "d": 1500,
      "v": 58
    },
    {
      "midi": 55,
      "hit": false,
      "t": 208250,
      "d": 1000,
      "v": 54
    },
    {
      "midi": 59,
      "hit": false,
      "t": 209250,
      "d": 250,
      "v": 29
    },
    {
      "midi": 61,
      "hit": false,
      "t": 209250,
      "d": 500,
      "v": 37
    },
    {
      "midi": 64,
      "hit": false,
      "t": 209250,
      "d": 750,
      "v": 51
    },
    {
      "midi": 45,
      "hit": false,
      "t": 209250,
      "d": 2000,
      "v": 51
    },
    {
      "midi": 52,
      "hit": false,
      "t": 209500,
      "d": 1750,
      "v": 55
    },
    {
      "midi": 59,
      "hit": false,
      "t": 209750,
      "d": 250,
      "v": 36
    },
    {
      "midi": 61,
      "hit": false,
      "t": 210000,
      "d": 1250,
      "v": 56
    },
    {
      "midi": 69,
      "hit": false,
      "t": 210250,
      "d": 1000,
      "v": 50
    },
    {
      "midi": 76,
      "hit": false,
      "t": 211250,
      "d": 750,
      "v": 104
    },
    {
      "midi": 74,
      "hit": false,
      "t": 212000,
      "d": 750,
      "v": 98
    },
    {
      "midi": 78,
      "hit": false,
      "t": 212750,
      "d": 500,
      "v": 86
    },
    {
      "midi": 76,
      "hit": false,
      "t": 213250,
      "d": 750,
      "v": 96
    },
    {
      "midi": 74,
      "hit": false,
      "t": 214000,
      "d": 750,
      "v": 101
    },
    {
      "midi": 81,
      "hit": false,
      "t": 222500,
      "d": 250,
      "v": 29
    },
    {
      "midi": 81,
      "hit": false,
      "t": 222750,
      "d": 250,
      "v": 46
    },
    {
      "midi": 81,
      "hit": false,
      "t": 223000,
      "d": 250,
      "v": 43
    },
    {
      "midi": 81,
      "hit": false,
      "t": 223250,
      "d": 250,
      "v": 76
    },
    {
      "midi": 50,
      "hit": false,
      "t": 223250,
      "d": 2000,
      "v": 42
    },
    {
      "midi": 78,
      "hit": false,
      "t": 223500,
      "d": 250,
      "v": 57
    },
    {
      "midi": 78,
      "hit": false,
      "t": 223750,
      "d": 250,
      "v": 48
    },
    {
      "midi": 57,
      "hit": false,
      "t": 223750,
      "d": 1500,
      "v": 51
    },
    {
      "midi": 78,
      "hit": false,
      "t": 224000,
      "d": 500,
      "v": 61
    },
    {
      "midi": 66,
      "hit": false,
      "t": 224250,
      "d": 1000,
      "v": 50
    },
    {
      "midi": 78,
      "hit": false,
      "t": 224500,
      "d": 250,
      "v": 38
    },
    {
      "midi": 78,
      "hit": false,
      "t": 224750,
      "d": 250,
      "v": 43
    },
    {
      "midi": 78,
      "hit": false,
      "t": 225000,
      "d": 250,
      "v": 51
    },
    {
      "midi": 78,
      "hit": false,
      "t": 225250,
      "d": 250,
      "v": 74
    },
    {
      "midi": 49,
      "hit": false,
      "t": 225250,
      "d": 2000,
      "v": 49
    },
    {
      "midi": 76,
      "hit": false,
      "t": 225500,
      "d": 250,
      "v": 45
    },
    {
      "midi": 76,
      "hit": false,
      "t": 225750,
      "d": 250,
      "v": 44
    },
    {
      "midi": 57,
      "hit": false,
      "t": 225750,
      "d": 1500,
      "v": 41
    },
    {
      "midi": 76,
      "hit": false,
      "t": 226000,
      "d": 500,
      "v": 62
    },
    {
      "midi": 64,
      "hit": false,
      "t": 226250,
      "d": 1000,
      "v": 41
    },
    {
      "midi": 76,
      "hit": false,
      "t": 226500,
      "d": 250,
      "v": 52
    },
    {
      "midi": 76,
      "hit": false,
      "t": 226750,
      "d": 250,
      "v": 53
    },
    {
      "midi": 76,
      "hit": false,
      "t": 227000,
      "d": 250,
      "v": 58
    },
    {
      "midi": 76,
      "hit": false,
      "t": 227250,
      "d": 250,
      "v": 80
    },
    {
      "midi": 47,
      "hit": false,
      "t": 227250,
      "d": 2000,
      "v": 52
    },
    {
      "midi": 74,
      "hit": false,
      "t": 227500,
      "d": 250,
      "v": 50
    },
    {
      "midi": 74,
      "hit": false,
      "t": 227750,
      "d": 250,
      "v": 58
    },
    {
      "midi": 54,
      "hit": false,
      "t": 227750,
      "d": 1500,
      "v": 37
    },
    {
      "midi": 74,
      "hit": false,
      "t": 228000,
      "d": 500,
      "v": 74
    },
    {
      "midi": 62,
      "hit": false,
      "t": 228250,
      "d": 1000,
      "v": 47
    },
    {
      "midi": 74,
      "hit": false,
      "t": 228750,
      "d": 250,
      "v": 68
    },
    {
      "midi": 76,
      "hit": false,
      "t": 229000,
      "d": 250,
      "v": 62
    },
    {
      "midi": 78,
      "hit": false,
      "t": 229250,
      "d": 500,
      "v": 67
    },
    {
      "midi": 45,
      "hit": false,
      "t": 229250,
      "d": 2000,
      "v": 62
    },
    {
      "midi": 81,
      "hit": false,
      "t": 229750,
      "d": 500,
      "v": 76
    },
    {
      "midi": 54,
      "hit": false,
      "t": 229750,
      "d": 1500,
      "v": 38
    },
    {
      "midi": 76,
      "hit": false,
      "t": 230250,
      "d": 500,
      "v": 78
    },
    {
      "midi": 62,
      "hit": false,
      "t": 230250,
      "d": 1000,
      "v": 47
    },
    {
      "midi": 74,
      "hit": false,
      "t": 230750,
      "d": 500,
      "v": 80
    },
    {
      "midi": 71,
      "hit": false,
      "t": 231250,
      "d": 500,
      "v": 65
    },
    {
      "midi": 43,
      "hit": false,
      "t": 231250,
      "d": 2000,
      "v": 61
    },
    {
      "midi": 50,
      "hit": false,
      "t": 231500,
      "d": 1750,
      "v": 47
    },
    {
      "midi": 55,
      "hit": false,
      "t": 231750,
      "d": 250,
      "v": 48
    },
    {
      "midi": 71,
      "hit": false,
      "t": 231750,
      "d": 250,
      "v": 76
    },
    {
      "midi": 57,
      "hit": false,
      "t": 232000,
      "d": 500,
      "v": 44
    },
    {
      "midi": 73,
      "hit": false,
      "t": 232000,
      "d": 500,
      "v": 64
    },
    {
      "midi": 59,
      "hit": false,
      "t": 232500,
      "d": 750,
      "v": 48
    },
    {
      "midi": 74,
      "hit": false,
      "t": 232500,
      "d": 750,
      "v": 68
    },
    {
      "midi": 76,
      "hit": false,
      "t": 233250,
      "d": 500,
      "v": 72
    },
    {
      "midi": 42,
      "hit": false,
      "t": 233250,
      "d": 2000.000000000029,
      "v": 55
    },
    {
      "midi": 74,
      "hit": false,
      "t": 233750,
      "d": 500,
      "v": 70
    },
    {
      "midi": 50,
      "hit": false,
      "t": 233750,
      "d": 1500.000000000029,
      "v": 56
    },
    {
      "midi": 69,
      "hit": false,
      "t": 234250,
      "d": 333.33333333334303,
      "v": 70
    },
    {
      "midi": 57,
      "hit": false,
      "t": 234250,
      "d": 1000.0000000000291,
      "v": 54
    },
    {
      "midi": 64,
      "hit": false,
      "t": 234583.33333333334,
      "d": 333.33333333334303,
      "v": 68
    },
    {
      "midi": 62,
      "hit": false,
      "t": 234916.6666666667,
      "d": 333.33333333334303,
      "v": 68
    },
    {
      "midi": 36,
      "hit": false,
      "t": 235250.00000000003,
      "d": 3000,
      "v": 70
    },
    {
      "midi": 57,
      "hit": false,
      "t": 235250.00000000003,
      "d": 3000,
      "v": 83
    },
    {
      "midi": 55,
      "hit": false,
      "t": 238000.00000000003,
      "d": 250,
      "v": 58
    },
    {
      "midi": 54,
      "hit": false,
      "t": 238250.00000000003,
      "d": 250,
      "v": 63
    },
    {
      "midi": 52,
      "hit": false,
      "t": 238500.00000000003,
      "d": 250,
      "v": 59
    },
    {
      "midi": 50,
      "hit": false,
      "t": 238750.00000000003,
      "d": 250,
      "v": 74
    },
    {
      "midi": 45,
      "hit": false,
      "t": 239000.00000000003,
      "d": 250,
      "v": 74
    },
    {
      "midi": 33,
      "hit": false,
      "t": 239250.00000000003,
      "d": 3500,
      "v": 80
    },
    {
      "midi": 45,
      "hit": false,
      "t": 239500.00000000003,
      "d": 1750,
      "v": 53
    },
    {
      "midi": 52,
      "hit": false,
      "t": 239750.00000000003,
      "d": 250,
      "v": 44
    },
    {
      "midi": 59,
      "hit": false,
      "t": 240000.00000000003,
      "d": 250,
      "v": 54
    },
    {
      "midi": 62,
      "hit": false,
      "t": 240250.00000000003,
      "d": 250,
      "v": 68
    },
    {
      "midi": 67,
      "hit": false,
      "t": 240500.00000000003,
      "d": 1750,
      "v": 76
    },
    {
      "midi": 57,
      "hit": false,
      "t": 241250.00000000003,
      "d": 1000,
      "v": 49
    },
    {
      "midi": 61,
      "hit": false,
      "t": 241250.00000000003,
      "d": 1000,
      "v": 47
    },
    {
      "midi": 38,
      "hit": false,
      "t": 243250.00000000003,
      "d": 3116.666666666628,
      "v": 78
    },
    {
      "midi": 45,
      "hit": false,
      "t": 243566.6666666667,
      "d": 2799.999999999971,
      "v": 83
    },
    {
      "midi": 52,
      "hit": false,
      "t": 243883.33333333334,
      "d": 366.66666666665697,
      "v": 50
    },
    {
      "midi": 54,
      "hit": false,
      "t": 244200,
      "d": 2183.333333333314,
      "v": 69
    },
    {
      "midi": 57,
      "hit": false,
      "t": 244566.66666666666,
      "d": 383.33333333334303,
      "v": 78
    },
    {
      "midi": 62,
      "hit": false,
      "t": 244966.66666666666,
      "d": 1416.666666666657,
      "v": 72
    }
  ]
}