{
  "jsonPath": "Rock/Soft Rock/KC  The Sunshine Band/boogie-shoes.json",
  "path": "Rock\\Soft Rock\\KC  The Sunshine Band\\Boogie Shoes.mid",
  "name": "Boogie Shoes",
  "difficulty": "Advanced",
  "bpm": 118.00106200955808,
  "notes": [
    {
      "midi": 63,
      "hit": false,
      "t": 4067.7600000000007,
      "d": 245.76049999999987,
      "v": 84
    },
    {
      "midi": 68,
      "hit": false,
      "t": 4067.7600000000007,
      "d": 245.76049999999987,
      "v": 106
    },
    {
      "midi": 47,
      "hit": false,
      "t": 4067.7600000000007,
      "d": 1771.1705000000006,
      "v": 75
    },
    {
      "midi": 66,
      "hit": false,
      "t": 4321.995000000001,
      "d": 118.64300000000003,
      "v": 60
    },
    {
      "midi": 59,
      "hit": false,
      "t": 4576.2300000000005,
      "d": 1320.9626875000013,
      "v": 78
    },
    {
      "midi": 68,
      "hit": false,
      "t": 4830.465,
      "d": 881.3480000000009,
      "v": 104
    },
    {
      "midi": 63,
      "hit": false,
      "t": 4830.465,
      "d": 1008.4655000000012,
      "v": 89
    },
    {
      "midi": 54,
      "hit": false,
      "t": 5338.935,
      "d": 245.76050000000032,
      "v": 61
    },
    {
      "midi": 56,
      "hit": false,
      "t": 5593.170000000001,
      "d": 245.76050000000032,
      "v": 68
    },
    {
      "midi": 54,
      "hit": false,
      "t": 5847.405000000002,
      "d": 118.64300000000003,
      "v": 54
    },
    {
      "midi": 63,
      "hit": false,
      "t": 6101.640000000001,
      "d": 245.76050000000032,
      "v": 96
    },
    {
      "midi": 68,
      "hit": false,
      "t": 6101.640000000001,
      "d": 245.76050000000032,
      "v": 109
    },
    {
      "midi": 47,
      "hit": false,
      "t": 6101.640000000001,
      "d": 1771.170500000001,
      "v": 79
    },
    {
      "midi": 66,
      "hit": false,
      "t": 6355.875000000002,
      "d": 118.64300000000003,
      "v": 73
    },
    {
      "midi": 59,
      "hit": false,
      "t": 6610.1100000000015,
      "d": 1384.5214375000014,
      "v": 76
    },
    {
      "midi": 63,
      "hit": false,
      "t": 6864.345000000001,
      "d": 881.3480000000009,
      "v": 102
    },
    {
      "midi": 68,
      "hit": false,
      "t": 6864.345000000001,
      "d": 881.3480000000009,
      "v": 108
    },
    {
      "midi": 54,
      "hit": false,
      "t": 7372.815000000001,
      "d": 245.76050000000032,
      "v": 72
    },
    {
      "midi": 56,
      "hit": false,
      "t": 7627.050000000002,
      "d": 245.76050000000032,
      "v": 52
    },
    {
      "midi": 54,
      "hit": false,
      "t": 7881.285000000003,
      "d": 245.76050000000032,
      "v": 65
    },
    {
      "midi": 68,
      "hit": false,
      "t": 8135.520000000003,
      "d": 245.7604999999994,
      "v": 106
    },
    {
      "midi": 63,
      "hit": false,
      "t": 8135.520000000003,
      "d": 372.8779999999997,
      "v": 93
    },
    {
      "midi": 47,
      "hit": false,
      "t": 8135.520000000003,
      "d": 1771.170500000001,
      "v": 74
    },
    {
      "midi": 66,
      "hit": false,
      "t": 8389.755000000003,
      "d": 118.64300000000003,
      "v": 74
    },
    {
      "midi": 59,
      "hit": false,
      "t": 8643.990000000003,
      "d": 1130.2864375000008,
      "v": 70
    },
    {
      "midi": 63,
      "hit": false,
      "t": 8898.225000000004,
      "d": 881.348,
      "v": 91
    },
    {
      "midi": 68,
      "hit": false,
      "t": 8898.225000000004,
      "d": 881.348,
      "v": 109
    },
    {
      "midi": 54,
      "hit": false,
      "t": 9406.695000000003,
      "d": 245.76050000000032,
      "v": 64
    },
    {
      "midi": 56,
      "hit": false,
      "t": 9660.930000000004,
      "d": 245.76050000000032,
      "v": 68
    },
    {
      "midi": 54,
      "hit": false,
      "t": 9915.165000000005,
      "d": 245.76050000000032,
      "v": 47
    },
    {
      "midi": 68,
      "hit": false,
      "t": 10169.400000000005,
      "d": 372.8780000000006,
      "v": 110
    },
    {
      "midi": 63,
      "hit": false,
      "t": 10169.400000000005,
      "d": 499.9955000000009,
      "v": 100
    },
    {
      "midi": 47,
      "hit": false,
      "t": 10169.400000000005,
      "d": 1898.2880000000023,
      "v": 76
    },
    {
      "midi": 66,
      "hit": false,
      "t": 10423.635000000006,
      "d": 245.76050000000032,
      "v": 85
    },
    {
      "midi": 59,
      "hit": false,
      "t": 10677.870000000006,
      "d": 1008.4655000000002,
      "v": 68
    },
    {
      "midi": 63,
      "hit": false,
      "t": 10932.105000000007,
      "d": 1008.4655000000002,
      "v": 87
    },
    {
      "midi": 68,
      "hit": false,
      "t": 10932.105000000007,
      "d": 1008.4655000000002,
      "v": 101
    },
    {
      "midi": 54,
      "hit": false,
      "t": 11440.575000000006,
      "d": 245.76050000000032,
      "v": 72
    },
    {
      "midi": 56,
      "hit": false,
      "t": 11694.810000000007,
      "d": 245.76050000000032,
      "v": 77
    },
    {
      "midi": 54,
      "hit": false,
      "t": 11949.045000000007,
      "d": 118.64300000000003,
      "v": 89
    },
    {
      "midi": 63,
      "hit": false,
      "t": 12203.280000000008,
      "d": 372.8780000000006,
      "v": 92
    },
    {
      "midi": 71,
      "hit": false,
      "t": 12203.280000000008,
      "d": 372.8780000000006,
      "v": 102
    },
    {
      "midi": 47,
      "hit": false,
      "t": 12203.280000000008,
      "d": 1771.170500000002,
      "v": 81
    },
    {
      "midi": 66,
      "hit": false,
      "t": 12457.515000000009,
      "d": 118.64300000000003,
      "v": 79
    },
    {
      "midi": 59,
      "hit": false,
      "t": 12711.75000000001,
      "d": 118.64300000000003,
      "v": 66
    },
    {
      "midi": 75,
      "hit": false,
      "t": 12965.98500000001,
      "d": 754.2304999999997,
      "v": 114
    },
    {
      "midi": 78,
      "hit": false,
      "t": 12965.98500000001,
      "d": 754.2304999999997,
      "v": 112
    },
    {
      "midi": 68,
      "hit": false,
      "t": 12965.98500000001,
      "d": 881.348,
      "v": 96
    },
    {
      "midi": 54,
      "hit": false,
      "t": 13474.455000000009,
      "d": 245.76050000000032,
      "v": 62
    },
    {
      "midi": 56,
      "hit": false,
      "t": 13728.69000000001,
      "d": 245.76050000000032,
      "v": 59
    },
    {
      "midi": 54,
      "hit": false,
      "t": 13982.92500000001,
      "d": 245.76050000000032,
      "v": 57
    },
    {
      "midi": 63,
      "hit": false,
      "t": 14237.16000000001,
      "d": 245.76050000000032,
      "v": 90
    },
    {
      "midi": 71,
      "hit": false,
      "t": 14237.16000000001,
      "d": 245.76050000000032,
      "v": 109
    },
    {
      "midi": 47,
      "hit": false,
      "t": 14237.16000000001,
      "d": 1898.2880000000023,
      "v": 82
    },
    {
      "midi": 66,
      "hit": false,
      "t": 14491.395000000011,
      "d": 118.64300000000003,
      "v": 69
    },
    {
      "midi": 59,
      "hit": false,
      "t": 14745.630000000012,
      "d": 245.76050000000032,
      "v": 67
    },
    {
      "midi": 68,
      "hit": false,
      "t": 14999.865000000013,
      "d": 754.2304999999997,
      "v": 100
    },
    {
      "midi": 75,
      "hit": false,
      "t": 14999.865000000013,
      "d": 754.2304999999997,
      "v": 116
    },
    {
      "midi": 78,
      "hit": false,
      "t": 14999.865000000013,
      "d": 754.2304999999997,
      "v": 117
    },
    {
      "midi": 54,
      "hit": false,
      "t": 15508.335000000012,
      "d": 245.76050000000032,
      "v": 50
    },
    {
      "midi": 56,
      "hit": false,
      "t": 15762.570000000012,
      "d": 245.76050000000032,
      "v": 52
    },
    {
      "midi": 54,
      "hit": false,
      "t": 16016.805000000013,
      "d": 118.64300000000003,
      "v": 41
    },
    {
      "midi": 63,
      "hit": false,
      "t": 16271.040000000014,
      "d": 372.8779999999988,
      "v": 96
    },
    {
      "midi": 71,
      "hit": false,
      "t": 16271.040000000014,
      "d": 372.8779999999988,
      "v": 105
    },
    {
      "midi": 47,
      "hit": false,
      "t": 16271.040000000014,
      "d": 1771.170500000002,
      "v": 80
    },
    {
      "midi": 66,
      "hit": false,
      "t": 16525.275000000012,
      "d": 118.64300000000003,
      "v": 83
    },
    {
      "midi": 59,
      "hit": false,
      "t": 16779.510000000013,
      "d": 118.64300000000003,
      "v": 66
    },
    {
      "midi": 75,
      "hit": false,
      "t": 17033.745000000014,
      "d": 754.2305000000015,
      "v": 115
    },
    {
      "midi": 78,
      "hit": false,
      "t": 17033.745000000014,
      "d": 754.2305000000015,
      "v": 115
    },
    {
      "midi": 68,
      "hit": false,
      "t": 17033.745000000014,
      "d": 881.3480000000018,
      "v": 101
    },
    {
      "midi": 54,
      "hit": false,
      "t": 17542.215000000015,
      "d": 245.76050000000032,
      "v": 66
    },
    {
      "midi": 56,
      "hit": false,
      "t": 17796.450000000015,
      "d": 245.76050000000032,
      "v": 59
    },
    {
      "midi": 54,
      "hit": false,
      "t": 18050.685000000016,
      "d": 245.76050000000032,
      "v": 64
    },
    {
      "midi": 63,
      "hit": false,
      "t": 18304.920000000016,
      "d": 245.76050000000032,
      "v": 96
    },
    {
      "midi": 71,
      "hit": false,
      "t": 18304.920000000016,
      "d": 245.76050000000032,
      "v": 113
    },
    {
      "midi": 47,
      "hit": false,
      "t": 18304.920000000016,
      "d": 1898.288000000004,
      "v": 81
    },
    {
      "midi": 66,
      "hit": false,
      "t": 18559.155000000017,
      "d": 118.64300000000003,
      "v": 66
    },
    {
      "midi": 59,
      "hit": false,
      "t": 18813.390000000018,
      "d": 245.76050000000032,
      "v": 71
    },
    {
      "midi": 68,
      "hit": false,
      "t": 19067.62500000002,
      "d": 754.2305000000015,
      "v": 106
    },
    {
      "midi": 75,
      "hit": false,
      "t": 19067.62500000002,
      "d": 754.2305000000015,
      "v": 125
    },
    {
      "midi": 78,
      "hit": false,
      "t": 19067.62500000002,
      "d": 754.2305000000015,
      "v": 120
    },
    {
      "midi": 54,
      "hit": false,
      "t": 19576.09500000002,
      "d": 245.76050000000032,
      "v": 42
    },
    {
      "midi": 56,
      "hit": false,
      "t": 19830.33000000002,
      "d": 245.76050000000032,
      "v": 59
    },
    {
      "midi": 54,
      "hit": false,
      "t": 20084.56500000002,
      "d": 118.64300000000003,
      "v": 39
    },
    {
      "midi": 68,
      "hit": false,
      "t": 20338.80000000002,
      "d": 245.76050000000032,
      "v": 98
    },
    {
      "midi": 74,
      "hit": false,
      "t": 20338.80000000002,
      "d": 245.76050000000032,
      "v": 97
    },
    {
      "midi": 64,
      "hit": false,
      "t": 20338.80000000002,
      "d": 499.9955000000009,
      "v": 65
    },
    {
      "midi": 52,
      "hit": false,
      "t": 20338.80000000002,
      "d": 1771.1705000000038,
      "v": 75
    },
    {
      "midi": 71,
      "hit": false,
      "t": 20593.03500000002,
      "d": 245.76050000000032,
      "v": 72
    },
    {
      "midi": 64,
      "hit": false,
      "t": 21101.505000000023,
      "d": 1008.4655000000021,
      "v": 85
    },
    {
      "midi": 68,
      "hit": false,
      "t": 21101.505000000023,
      "d": 1008.4655000000021,
      "v": 105
    },
    {
      "midi": 74,
      "hit": false,
      "t": 21101.505000000023,
      "d": 1008.4655000000021,
      "v": 109
    },
    {
      "midi": 59,
      "hit": false,
      "t": 21609.975000000024,
      "d": 245.76050000000032,
      "v": 81
    },
    {
      "midi": 61,
      "hit": false,
      "t": 21864.210000000025,
      "d": 245.76050000000032,
      "v": 52
    },
    {
      "midi": 59,
      "hit": false,
      "t": 22118.445000000025,
      "d": 245.76050000000032,
      "v": 68
    },
    {
      "midi": 68,
      "hit": false,
      "t": 22372.680000000026,
      "d": 245.76050000000032,
      "v": 95
    },
    {
      "midi": 64,
      "hit": false,
      "t": 22372.680000000026,
      "d": 499.9955000000009,
      "v": 56
    },
    {
      "midi": 74,
      "hit": false,
      "t": 22372.680000000026,
      "d": 499.9955000000009,
      "v": 111
    },
    {
      "midi": 52,
      "hit": false,
      "t": 22372.680000000026,
      "d": 1771.1705000000038,
      "v": 86
    },
    {
      "midi": 71,
      "hit": false,
      "t": 22626.915000000026,
      "d": 245.76050000000032,
      "v": 77
    },
    {
      "midi": 68,
      "hit": false,
      "t": 22881.150000000027,
      "d": 245.76050000000032,
      "v": 55
    },
    {
      "midi": 64,
      "hit": false,
      "t": 23135.385000000028,
      "d": 1008.4655000000021,
      "v": 79
    },
    {
      "midi": 68,
      "hit": false,
      "t": 23135.385000000028,
      "d": 1008.4655000000021,
      "v": 96
    },
    {
      "midi": 74,
      "hit": false,
      "t": 23135.385000000028,
      "d": 1008.4655000000021,
      "v": 111
    },
    {
      "midi": 59,
      "hit": false,
      "t": 23643.85500000003,
      "d": 245.76050000000032,
      "v": 62
    },
    {
      "midi": 61,
      "hit": false,
      "t": 23898.09000000003,
      "d": 245.76050000000032,
      "v": 75
    },
    {
      "midi": 59,
      "hit": false,
      "t": 24152.32500000003,
      "d": 245.76050000000032,
      "v": 54
    },
    {
      "midi": 63,
      "hit": false,
      "t": 24406.56000000003,
      "d": 372.8780000000006,
      "v": 97
    },
    {
      "midi": 71,
      "hit": false,
      "t": 24406.56000000003,
      "d": 372.8780000000006,
      "v": 102
    },
    {
      "midi": 47,
      "hit": false,
      "t": 24406.56000000003,
      "d": 1771.1705000000038,
      "v": 84
    },
    {
      "midi": 66,
      "hit": false,
      "t": 24660.79500000003,
      "d": 118.64300000000003,
      "v": 83
    },
    {
      "midi": 59,
      "hit": false,
      "t": 24915.03000000003,
      "d": 118.64300000000003,
      "v": 69
    },
    {
      "midi": 75,
      "hit": false,
      "t": 25169.265000000032,
      "d": 754.2305000000015,
      "v": 118
    },
    {
      "midi": 78,
      "hit": false,
      "t": 25169.265000000032,
      "d": 754.2305000000015,
      "v": 112
    },
    {
      "midi": 68,
      "hit": false,
      "t": 25169.265000000032,
      "d": 881.3480000000018,
      "v": 97
    },
    {
      "midi": 54,
      "hit": false,
      "t": 25677.735000000033,
      "d": 245.76050000000032,
      "v": 55
    },
    {
      "midi": 56,
      "hit": false,
      "t": 25931.970000000034,
      "d": 245.76050000000032,
      "v": 62
    },
    {
      "midi": 54,
      "hit": false,
      "t": 26186.205000000034,
      "d": 245.76050000000032,
      "v": 60
    },
    {
      "midi": 63,
      "hit": false,
      "t": 26440.440000000035,
      "d": 245.76050000000032,
      "v": 91
    },
    {
      "midi": 71,
      "hit": false,
      "t": 26440.440000000035,
      "d": 245.76050000000032,
      "v": 110
    },
    {
      "midi": 47,
      "hit": false,
      "t": 26440.440000000035,
      "d": 1898.288000000004,
      "v": 82
    },
    {
      "midi": 66,
      "hit": false,
      "t": 26694.675000000036,
      "d": 118.64300000000003,
      "v": 71
    },
    {
      "midi": 59,
      "hit": false,
      "t": 26948.910000000036,
      "d": 245.76050000000032,
      "v": 70
    },
    {
      "midi": 68,
      "hit": false,
      "t": 27203.145000000037,
      "d": 754.2305000000015,
      "v": 106
    },
    {
      "midi": 75,
      "hit": false,
      "t": 27203.145000000037,
      "d": 754.2305000000015,
      "v": 119
    },
    {
      "midi": 78,
      "hit": false,
      "t": 27203.145000000037,
      "d": 754.2305000000015,
      "v": 112
    },
    {
      "midi": 54,
      "hit": false,
      "t": 27711.615000000038,
      "d": 245.76050000000032,
      "v": 48
    },
    {
      "midi": 56,
      "hit": false,
      "t": 27965.85000000004,
      "d": 245.76050000000032,
      "v": 56
    },
    {
      "midi": 54,
      "hit": false,
      "t": 28220.08500000004,
      "d": 118.64300000000003,
      "v": 40
    },
    {
      "midi": 54,
      "hit": false,
      "t": 28474.32000000004,
      "d": 1644.0530000000035,
      "v": 107
    },
    {
      "midi": 66,
      "hit": false,
      "t": 28728.555000000004,
      "d": 1776.4670624999999,
      "v": 1
    },
    {
      "midi": 70,
      "hit": false,
      "t": 28728.555000000004,
      "d": 1776.4670624999999,
      "v": 1
    },
    {
      "midi": 73,
      "hit": false,
      "t": 28728.555000000004,
      "d": 1776.4670624999999,
      "v": 1
    },
    {
      "midi": 61,
      "hit": false,
      "t": 28728.55500000004,
      "d": 1389.818000000003,
      "v": 61
    },
    {
      "midi": 66,
      "hit": false,
      "t": 29237.02500000004,
      "d": 754.2305000000015,
      "v": 116
    },
    {
      "midi": 70,
      "hit": false,
      "t": 29237.02500000004,
      "d": 754.2305000000015,
      "v": 110
    },
    {
      "midi": 73,
      "hit": false,
      "t": 29237.02500000004,
      "d": 754.2305000000015,
      "v": 105
    },
    {
      "midi": 64,
      "hit": false,
      "t": 29237.02500000004,
      "d": 881.3480000000018,
      "v": 103
    },
    {
      "midi": 52,
      "hit": false,
      "t": 30508.200000000044,
      "d": 1898.288000000004,
      "v": 97
    },
    {
      "midi": 64,
      "hit": false,
      "t": 30762.435000000005,
      "d": 1776.4670624999999,
      "v": 1
    },
    {
      "midi": 68,
      "hit": false,
      "t": 30762.435000000005,
      "d": 1776.4670624999999,
      "v": 1
    },
    {
      "midi": 74,
      "hit": false,
      "t": 30762.435000000005,
      "d": 1776.4670624999999,
      "v": 1
    },
    {
      "midi": 64,
      "hit": false,
      "t": 30762.435000000045,
      "d": 118.64300000000003,
      "v": 56
    },
    {
      "midi": 71,
      "hit": false,
      "t": 30762.435000000045,
      "d": 118.64300000000003,
      "v": 70
    },
    {
      "midi": 74,
      "hit": false,
      "t": 30762.435000000045,
      "d": 118.64300000000003,
      "v": 70
    },
    {
      "midi": 64,
      "hit": false,
      "t": 31016.670000000046,
      "d": 118.64300000000003,
      "v": 89
    },
    {
      "midi": 71,
      "hit": false,
      "t": 31016.670000000046,
      "d": 118.64300000000003,
      "v": 81
    },
    {
      "midi": 74,
      "hit": false,
      "t": 31016.670000000046,
      "d": 118.64300000000003,
      "v": 63
    },
    {
      "midi": 64,
      "hit": false,
      "t": 31270.905000000046,
      "d": 118.64300000000003,
      "v": 106
    },
    {
      "midi": 71,
      "hit": false,
      "t": 31270.905000000046,
      "d": 118.64300000000003,
      "v": 95
    },
    {
      "midi": 74,
      "hit": false,
      "t": 31270.905000000046,
      "d": 118.64300000000003,
      "v": 88
    },
    {
      "midi": 64,
      "hit": false,
      "t": 31525.140000000047,
      "d": 118.64300000000003,
      "v": 112
    },
    {
      "midi": 71,
      "hit": false,
      "t": 31525.140000000047,
      "d": 118.64300000000003,
      "v": 96
    },
    {
      "midi": 74,
      "hit": false,
      "t": 31525.140000000047,
      "d": 118.64300000000003,
      "v": 113
    },
    {
      "midi": 64,
      "hit": false,
      "t": 31779.375000000047,
      "d": 118.64300000000003,
      "v": 125
    },
    {
      "midi": 71,
      "hit": false,
      "t": 31779.375000000047,
      "d": 118.64300000000003,
      "v": 109
    },
    {
      "midi": 74,
      "hit": false,
      "t": 31779.375000000047,
      "d": 118.64300000000003,
      "v": 124
    },
    {
      "midi": 64,
      "hit": false,
      "t": 32033.610000000048,
      "d": 118.64300000000003,
      "v": 127
    },
    {
      "midi": 71,
      "hit": false,
      "t": 32033.610000000048,
      "d": 118.64300000000003,
      "v": 115
    },
    {
      "midi": 74,
      "hit": false,
      "t": 32033.610000000048,
      "d": 118.64300000000003,
      "v": 127
    },
    {
      "midi": 64,
      "hit": false,
      "t": 32287.84500000005,
      "d": 118.64300000000003,
      "v": 124
    },
    {
      "midi": 71,
      "hit": false,
      "t": 32287.84500000005,
      "d": 118.64300000000003,
      "v": 114
    },
    {
      "midi": 74,
      "hit": false,
      "t": 32287.84500000005,
      "d": 118.64300000000003,
      "v": 127
    },
    {
      "midi": 64,
      "hit": false,
      "t": 32542.080000000005,
      "d": 251.05706250000003,
      "v": 1
    },
    {
      "midi": 68,
      "hit": false,
      "t": 32542.080000000005,
      "d": 251.05706250000003,
      "v": 1
    },
    {
      "midi": 73,
      "hit": false,
      "t": 32542.080000000005,
      "d": 251.05706250000003,
      "v": 1
    },
    {
      "midi": 63,
      "hit": false,
      "t": 32542.08000000005,
      "d": 372.87799999999334,
      "v": 91
    },
    {
      "midi": 71,
      "hit": false,
      "t": 32542.08000000005,
      "d": 372.87799999999334,
      "v": 106
    },
    {
      "midi": 47,
      "hit": false,
      "t": 32542.08000000005,
      "d": 1771.1704999999893,
      "v": 78
    },
    {
      "midi": 63,
      "hit": false,
      "t": 32796.315,
      "d": 1013.7620624999981,
      "v": 1
    },
    {
      "midi": 66,
      "hit": false,
      "t": 32796.315,
      "d": 1013.7620624999981,
      "v": 1
    },
    {
      "midi": 71,
      "hit": false,
      "t": 32796.315,
      "d": 1013.7620624999981,
      "v": 1
    },
    {
      "midi": 66,
      "hit": false,
      "t": 32796.315000000046,
      "d": 118.64299999999639,
      "v": 78
    },
    {
      "midi": 59,
      "hit": false,
      "t": 33050.55000000004,
      "d": 939.6101875000022,
      "v": 68
    },
    {
      "midi": 75,
      "hit": false,
      "t": 33304.78500000004,
      "d": 754.2305000000051,
      "v": 112
    },
    {
      "midi": 78,
      "hit": false,
      "t": 33304.78500000004,
      "d": 754.2305000000051,
      "v": 116
    },
    {
      "midi": 68,
      "hit": false,
      "t": 33304.78500000004,
      "d": 881.3479999999981,
      "v": 100
    },
    {
      "midi": 66,
      "hit": false,
      "t": 33813.255,
      "d": 251.05706250000367,
      "v": 1
    },
    {
      "midi": 54,
      "hit": false,
      "t": 33813.25500000004,
      "d": 245.76050000000396,
      "v": 69
    },
    {
      "midi": 68,
      "hit": false,
      "t": 34067.49,
      "d": 505.292062499997,
      "v": 1
    },
    {
      "midi": 71,
      "hit": false,
      "t": 34067.49,
      "d": 505.292062499997,
      "v": 1
    },
    {
      "midi": 56,
      "hit": false,
      "t": 34067.49000000004,
      "d": 245.76049999999668,
      "v": 62
    },
    {
      "midi": 54,
      "hit": false,
      "t": 34321.725000000035,
      "d": 245.76049999999668,
      "v": 66
    },
    {
      "midi": 66,
      "hit": false,
      "t": 34575.95999999999,
      "d": 1395.114562499999,
      "v": 1
    },
    {
      "midi": 71,
      "hit": false,
      "t": 34575.95999999999,
      "d": 1395.114562499999,
      "v": 1
    },
    {
      "midi": 63,
      "hit": false,
      "t": 34575.96000000003,
      "d": 245.76049999999668,
      "v": 94
    },
    {
      "midi": 71,
      "hit": false,
      "t": 34575.96000000003,
      "d": 245.76049999999668,
      "v": 112
    },
    {
      "midi": 47,
      "hit": false,
      "t": 34575.96000000003,
      "d": 1898.2879999999714,
      "v": 79
    },
    {
      "midi": 66,
      "hit": false,
      "t": 34830.19500000002,
      "d": 118.64299999999639,
      "v": 69
    },
    {
      "midi": 59,
      "hit": false,
      "t": 35084.430000000015,
      "d": 876.0514374999984,
      "v": 73
    },
    {
      "midi": 68,
      "hit": false,
      "t": 35338.665000000015,
      "d": 754.2304999999978,
      "v": 102
    },
    {
      "midi": 75,
      "hit": false,
      "t": 35338.665000000015,
      "d": 754.2304999999978,
      "v": 124
    },
    {
      "midi": 78,
      "hit": false,
      "t": 35338.665000000015,
      "d": 754.2304999999978,
      "v": 119
    },
    {
      "midi": 54,
      "hit": false,
      "t": 35847.13500000002,
      "d": 245.76049999999668,
      "v": 46
    },
    {
      "midi": 56,
      "hit": false,
      "t": 36101.37000000001,
      "d": 245.76049999999668,
      "v": 57
    },
    {
      "midi": 54,
      "hit": false,
      "t": 36355.605,
      "d": 118.64299999999639,
      "v": 36
    },
    {
      "midi": 54,
      "hit": false,
      "t": 36609.84,
      "d": 1644.0529999999999,
      "v": 109
    },
    {
      "midi": 66,
      "hit": false,
      "t": 36864.07499999999,
      "d": 1776.4670624999999,
      "v": 1
    },
    {
      "midi": 70,
      "hit": false,
      "t": 36864.07499999999,
      "d": 1776.4670624999999,
      "v": 1
    },
    {
      "midi": 73,
      "hit": false,
      "t": 36864.07499999999,
      "d": 1776.4670624999999,
      "v": 1
    },
    {
      "midi": 61,
      "hit": false,
      "t": 36864.075,
      "d": 1389.8179999999993,
      "v": 54
    },
    {
      "midi": 66,
      "hit": false,
      "t": 37372.545,
      "d": 754.2304999999978,
      "v": 121
    },
    {
      "midi": 70,
      "hit": false,
      "t": 37372.545,
      "d": 754.2304999999978,
      "v": 118
    },
    {
      "midi": 73,
      "hit": false,
      "t": 37372.545,
      "d": 754.2304999999978,
      "v": 108
    },
    {
      "midi": 64,
      "hit": false,
      "t": 37372.545,
      "d": 881.3479999999981,
      "v": 107
    },
    {
      "midi": 52,
      "hit": false,
      "t": 38643.719999999994,
      "d": 1898.2879999999568,
      "v": 100
    },
    {
      "midi": 64,
      "hit": false,
      "t": 38897.95499999999,
      "d": 1776.4670624999999,
      "v": 1
    },
    {
      "midi": 68,
      "hit": false,
      "t": 38897.95499999999,
      "d": 1776.4670624999999,
      "v": 1
    },
    {
      "midi": 74,
      "hit": false,
      "t": 38897.95499999999,
      "d": 1776.4670624999999,
      "v": 1
    },
    {
      "midi": 64,
      "hit": false,
      "t": 38897.954999999994,
      "d": 118.64299999999639,
      "v": 63
    },
    {
      "midi": 71,
      "hit": false,
      "t": 38897.954999999994,
      "d": 118.64299999999639,
      "v": 74
    },
    {
      "midi": 74,
      "hit": false,
      "t": 38897.954999999994,
      "d": 118.64299999999639,
      "v": 65
    },
    {
      "midi": 64,
      "hit": false,
      "t": 39152.18999999999,
      "d": 118.64299999999639,
      "v": 85
    },
    {
      "midi": 71,
      "hit": false,
      "t": 39152.18999999999,
      "d": 118.64299999999639,
      "v": 83
    },
    {
      "midi": 74,
      "hit": false,
      "t": 39152.18999999999,
      "d": 118.64299999999639,
      "v": 71
    },
    {
      "midi": 64,
      "hit": false,
      "t": 39406.42499999998,
      "d": 118.64299999999639,
      "v": 105
    },
    {
      "midi": 71,
      "hit": false,
      "t": 39406.42499999998,
      "d": 118.64299999999639,
      "v": 95
    },
    {
      "midi": 74,
      "hit": false,
      "t": 39406.42499999998,
      "d": 118.64299999999639,
      "v": 94
    },
    {
      "midi": 64,
      "hit": false,
      "t": 39660.659999999974,
      "d": 118.64299999999639,
      "v": 109
    },
    {
      "midi": 71,
      "hit": false,
      "t": 39660.659999999974,
      "d": 118.64299999999639,
      "v": 96
    },
    {
      "midi": 74,
      "hit": false,
      "t": 39660.659999999974,
      "d": 118.64299999999639,
      "v": 116
    },
    {
      "midi": 64,
      "hit": false,
      "t": 39914.89499999997,
      "d": 118.64299999999639,
      "v": 121
    },
    {
      "midi": 71,
      "hit": false,
      "t": 39914.89499999997,
      "d": 118.64299999999639,
      "v": 107
    },
    {
      "midi": 74,
      "hit": false,
      "t": 39914.89499999997,
      "d": 118.64299999999639,
      "v": 127
    },
    {
      "midi": 64,
      "hit": false,
      "t": 40169.12999999996,
      "d": 118.64299999999639,
      "v": 127
    },
    {
      "midi": 71,
      "hit": false,
      "t": 40169.12999999996,
      "d": 118.64299999999639,
      "v": 116
    },
    {
      "midi": 74,
      "hit": false,
      "t": 40169.12999999996,
      "d": 118.64299999999639,
      "v": 126
    },
    {
      "midi": 64,
      "hit": false,
      "t": 40423.364999999954,
      "d": 118.64299999999639,
      "v": 127
    },
    {
      "midi": 71,
      "hit": false,
      "t": 40423.364999999954,
      "d": 118.64299999999639,
      "v": 118
    },
    {
      "midi": 74,
      "hit": false,
      "t": 40423.364999999954,
      "d": 118.64299999999639,
      "v": 127
    },
    {
      "midi": 63,
      "hit": false,
      "t": 40677.59999999995,
      "d": 372.877999999997,
      "v": 98
    },
    {
      "midi": 71,
      "hit": false,
      "t": 40677.59999999995,
      "d": 372.877999999997,
      "v": 103
    },
    {
      "midi": 47,
      "hit": false,
      "t": 40677.59999999995,
      "d": 1771.170499999993,
      "v": 85
    },
    {
      "midi": 64,
      "hit": false,
      "t": 40677.599999999984,
      "d": 251.05706250000367,
      "v": 1
    },
    {
      "midi": 68,
      "hit": false,
      "t": 40677.599999999984,
      "d": 251.05706250000367,
      "v": 1
    },
    {
      "midi": 73,
      "hit": false,
      "t": 40677.599999999984,
      "d": 251.05706250000367,
      "v": 1
    },
    {
      "midi": 66,
      "hit": false,
      "t": 40931.83499999995,
      "d": 118.64299999999639,
      "v": 82
    },
    {
      "midi": 63,
      "hit": false,
      "t": 40931.834999999985,
      "d": 1013.7620624999981,
      "v": 1
    },
    {
      "midi": 66,
      "hit": false,
      "t": 40931.834999999985,
      "d": 1013.7620624999981,
      "v": 1
    },
    {
      "midi": 71,
      "hit": false,
      "t": 40931.834999999985,
      "d": 1013.7620624999981,
      "v": 1
    },
    {
      "midi": 59,
      "hit": false,
      "t": 41186.06999999994,
      "d": 939.6101875000022,
      "v": 68
    },
    {
      "midi": 75,
      "hit": false,
      "t": 41440.30499999994,
      "d": 754.2305000000051,
      "v": 121
    },
    {
      "midi": 78,
      "hit": false,
      "t": 41440.30499999994,
      "d": 754.2305000000051,
      "v": 112
    },
    {
      "midi": 68,
      "hit": false,
      "t": 41440.30499999994,
      "d": 881.3479999999981,
      "v": 96
    },
    {
      "midi": 54,
      "hit": false,
      "t": 41948.77499999994,
      "d": 245.76050000000396,
      "v": 64
    },
    {
      "midi": 66,
      "hit": false,
      "t": 41948.77499999998,
      "d": 251.0570624999964,
      "v": 1
    },
    {
      "midi": 56,
      "hit": false,
      "t": 42203.009999999944,
      "d": 245.76049999999668,
      "v": 61
    },
    {
      "midi": 68,
      "hit": false,
      "t": 42203.00999999997,
      "d": 505.292062499997,
      "v": 1
    },
    {
      "midi": 71,
      "hit": false,
      "t": 42203.00999999997,
      "d": 505.292062499997,
      "v": 1
    },
    {
      "midi": 54,
      "hit": false,
      "t": 42457.24499999994,
      "d": 245.76049999999668,
      "v": 63
    },
    {
      "midi": 63,
      "hit": false,
      "t": 42711.47999999993,
      "d": 245.76049999999668,
      "v": 94
    },
    {
      "midi": 71,
      "hit": false,
      "t": 42711.47999999993,
      "d": 245.76049999999668,
      "v": 107
    },
    {
      "midi": 47,
      "hit": false,
      "t": 42711.47999999993,
      "d": 1898.2879999999714,
      "v": 82
    },
    {
      "midi": 66,
      "hit": false,
      "t": 42711.47999999997,
      "d": 1267.9970624999987,
      "v": 1
    },
    {
      "midi": 71,
      "hit": false,
      "t": 42711.47999999997,
      "d": 1267.9970624999987,
      "v": 1
    },
    {
      "midi": 66,
      "hit": false,
      "t": 42965.714999999924,
      "d": 118.64299999999639,
      "v": 68
    },
    {
      "midi": 59,
      "hit": false,
      "t": 43219.94999999992,
      "d": 876.0514374999984,
      "v": 74
    },
    {
      "midi": 68,
      "hit": false,
      "t": 43474.18499999992,
      "d": 754.2304999999978,
      "v": 105
    },
    {
      "midi": 75,
      "hit": false,
      "t": 43474.18499999992,
      "d": 754.2304999999978,
      "v": 116
    },
    {
      "midi": 78,
      "hit": false,
      "t": 43474.18499999992,
      "d": 754.2304999999978,
      "v": 121
    },
    {
      "midi": 54,
      "hit": false,
      "t": 43982.65499999992,
      "d": 245.76049999999668,
      "v": 45
    },
    {
      "midi": 56,
      "hit": false,
      "t": 44236.88999999991,
      "d": 245.76049999999668,
      "v": 57
    },
    {
      "midi": 54,
      "hit": false,
      "t": 44491.124999999905,
      "d": 118.64299999999639,
      "v": 34
    },
    {
      "midi": 63,
      "hit": false,
      "t": 44745.3599999999,
      "d": 245.76049999999668,
      "v": 108
    },
    {
      "midi": 71,
      "hit": false,
      "t": 44745.3599999999,
      "d": 245.76049999999668,
      "v": 109
    },
    {
      "midi": 47,
      "hit": false,
      "t": 44745.3599999999,
      "d": 754.2304999999833,
      "v": 74
    },
    {
      "midi": 66,
      "hit": false,
      "t": 44999.59499999989,
      "d": 118.64299999999639,
      "v": 76
    },
    {
      "midi": 59,
      "hit": false,
      "t": 45253.829999999885,
      "d": 1262.7004999999772,
      "v": 83
    },
    {
      "midi": 68,
      "hit": false,
      "t": 45508.06499999988,
      "d": 499.99549999999726,
      "v": 106
    },
    {
      "midi": 71,
      "hit": false,
      "t": 45508.06499999988,
      "d": 499.99549999999726,
      "v": 107
    },
    {
      "midi": 75,
      "hit": false,
      "t": 45508.06499999988,
      "d": 499.99549999999726,
      "v": 99
    },
    {
      "midi": 78,
      "hit": false,
      "t": 45508.06499999988,
      "d": 499.99549999999726,
      "v": 108
    },
    {
      "midi": 66,
      "hit": false,
      "t": 46016.53499999987,
      "d": 118.64299999999639,
      "v": 60
    },
    {
      "midi": 68,
      "hit": false,
      "t": 46270.769999999866,
      "d": 245.76049999999668,
      "v": 96
    },
    {
      "midi": 71,
      "hit": false,
      "t": 46270.769999999866,
      "d": 245.76049999999668,
      "v": 96
    },
    {
      "midi": 75,
      "hit": false,
      "t": 46270.769999999866,
      "d": 245.76049999999668,
      "v": 96
    },
    {
      "midi": 78,
      "hit": false,
      "t": 46270.769999999866,
      "d": 245.76049999999668,
      "v": 104
    },
    {
      "midi": 63,
      "hit": false,
      "t": 46779.23999999986,
      "d": 245.76049999999668,
      "v": 107
    },
    {
      "midi": 71,
      "hit": false,
      "t": 46779.23999999986,
      "d": 245.76049999999668,
      "v": 108
    },
    {
      "midi": 47,
      "hit": false,
      "t": 46779.23999999986,
      "d": 754.2304999999833,
      "v": 82
    },
    {
      "midi": 66,
      "hit": false,
      "t": 47033.47499999985,
      "d": 118.64299999999639,
      "v": 77
    },
    {
      "midi": 59,
      "hit": false,
      "t": 47287.709999999846,
      "d": 1262.7004999999772,
      "v": 84
    },
    {
      "midi": 68,
      "hit": false,
      "t": 47541.94499999984,
      "d": 499.99549999999726,
      "v": 99
    },
    {
      "midi": 71,
      "hit": false,
      "t": 47541.94499999984,
      "d": 499.99549999999726,
      "v": 105
    },
    {
      "midi": 75,
      "hit": false,
      "t": 47541.94499999984,
      "d": 499.99549999999726,
      "v": 106
    },
    {
      "midi": 78,
      "hit": false,
      "t": 47541.94499999984,
      "d": 499.99549999999726,
      "v": 104
    },
    {
      "midi": 66,
      "hit": false,
      "t": 48050.41499999983,
      "d": 118.64299999999639,
      "v": 60
    },
    {
      "midi": 68,
      "hit": false,
      "t": 48304.64999999983,
      "d": 245.76049999999668,
      "v": 101
    },
    {
      "midi": 71,
      "hit": false,
      "t": 48304.64999999983,
      "d": 245.76049999999668,
      "v": 104
    },
    {
      "midi": 75,
      "hit": false,
      "t": 48304.64999999983,
      "d": 245.76049999999668,
      "v": 101
    },
    {
      "midi": 78,
      "hit": false,
      "t": 48304.64999999983,
      "d": 245.76049999999668,
      "v": 96
    },
    {
      "midi": 63,
      "hit": false,
      "t": 48813.11999999982,
      "d": 245.76049999999668,
      "v": 103
    },
    {
      "midi": 71,
      "hit": false,
      "t": 48813.11999999982,
      "d": 245.76049999999668,
      "v": 108
    },
    {
      "midi": 47,
      "hit": false,
      "t": 48813.11999999982,
      "d": 754.2304999999833,
      "v": 73
    },
    {
      "midi": 66,
      "hit": false,
      "t": 49067.354999999814,
      "d": 118.64299999999639,
      "v": 71
    },
    {
      "midi": 59,
      "hit": false,
      "t": 49321.58999999981,
      "d": 1262.7004999999772,
      "v": 85
    },
    {
      "midi": 68,
      "hit": false,
      "t": 49575.8249999998,
      "d": 499.99549999999726,
      "v": 102
    },
    {
      "midi": 71,
      "hit": false,
      "t": 49575.8249999998,
      "d": 499.99549999999726,
      "v": 99
    },
    {
      "midi": 75,
      "hit": false,
      "t": 49575.8249999998,
      "d": 499.99549999999726,
      "v": 102
    },
    {
      "midi": 78,
      "hit": false,
      "t": 49575.8249999998,
      "d": 499.99549999999726,
      "v": 99
    },
    {
      "midi": 66,
      "hit": false,
      "t": 50084.294999999795,
      "d": 118.64299999999639,
      "v": 63
    },
    {
      "midi": 68,
      "hit": false,
      "t": 50338.52999999979,
      "d": 245.76049999999668,
      "v": 101
    },
    {
      "midi": 71,
      "hit": false,
      "t": 50338.52999999979,
      "d": 245.76049999999668,
      "v": 95
    },
    {
      "midi": 75,
      "hit": false,
      "t": 50338.52999999979,
      "d": 245.76049999999668,
      "v": 98
    },
    {
      "midi": 78,
      "hit": false,
      "t": 50338.52999999979,
      "d": 245.76049999999668,
      "v": 103
    },
    {
      "midi": 63,
      "hit": false,
      "t": 50846.99999999978,
      "d": 245.76049999999668,
      "v": 105
    },
    {
      "midi": 71,
      "hit": false,
      "t": 50846.99999999978,
      "d": 245.76049999999668,
      "v": 108
    },
    {
      "midi": 47,
      "hit": false,
      "t": 50846.99999999978,
      "d": 754.2304999999833,
      "v": 82
    },
    {
      "midi": 66,
      "hit": false,
      "t": 51101.234999999775,
      "d": 118.64299999999639,
      "v": 78
    },
    {
      "midi": 59,
      "hit": false,
      "t": 51355.46999999977,
      "d": 1262.7004999999772,
      "v": 79
    },
    {
      "midi": 68,
      "hit": false,
      "t": 51609.70499999976,
      "d": 499.99549999999726,
      "v": 103
    },
    {
      "midi": 71,
      "hit": false,
      "t": 51609.70499999976,
      "d": 499.99549999999726,
      "v": 104
    },
    {
      "midi": 75,
      "hit": false,
      "t": 51609.70499999976,
      "d": 499.99549999999726,
      "v": 100
    },
    {
      "midi": 78,
      "hit": false,
      "t": 51609.70499999976,
      "d": 499.99549999999726,
      "v": 99
    },
    {
      "midi": 66,
      "hit": false,
      "t": 52118.174999999756,
      "d": 118.64299999999639,
      "v": 63
    },
    {
      "midi": 68,
      "hit": false,
      "t": 52372.40999999975,
      "d": 245.76049999999668,
      "v": 95
    },
    {
      "midi": 71,
      "hit": false,
      "t": 52372.40999999975,
      "d": 245.76049999999668,
      "v": 95
    },
    {
      "midi": 75,
      "hit": false,
      "t": 52372.40999999975,
      "d": 245.76049999999668,
      "v": 104
    },
    {
      "midi": 78,
      "hit": false,
      "t": 52372.40999999975,
      "d": 245.76049999999668,
      "v": 97
    },
    {
      "midi": 62,
      "hit": false,
      "t": 52880.87999999974,
      "d": 245.76049999999668,
      "v": 78
    },
    {
      "midi": 68,
      "hit": false,
      "t": 52880.87999999974,
      "d": 245.76049999999668,
      "v": 108
    },
    {
      "midi": 52,
      "hit": false,
      "t": 52880.87999999974,
      "d": 1771.170499999971,
      "v": 70
    },
    {
      "midi": 64,
      "hit": false,
      "t": 53135.114999999736,
      "d": 113.34643749999668,
      "v": 57
    },
    {
      "midi": 59,
      "hit": false,
      "t": 53389.34999999973,
      "d": 245.76049999999668,
      "v": 73
    },
    {
      "midi": 64,
      "hit": false,
      "t": 53643.58499999972,
      "d": 499.99549999999726,
      "v": 84
    },
    {
      "midi": 68,
      "hit": false,
      "t": 53643.58499999972,
      "d": 499.99549999999726,
      "v": 107
    },
    {
      "midi": 74,
      "hit": false,
      "t": 53643.58499999972,
      "d": 499.99549999999726,
      "v": 109
    },
    {
      "midi": 71,
      "hit": false,
      "t": 54152.05499999972,
      "d": 118.64299999999639,
      "v": 57
    },
    {
      "midi": 68,
      "hit": false,
      "t": 54406.28999999971,
      "d": 176.90518750000047,
      "v": 111
    },
    {
      "midi": 74,
      "hit": false,
      "t": 54406.28999999971,
      "d": 176.90518750000047,
      "v": 111
    },
    {
      "midi": 64,
      "hit": false,
      "t": 54406.28999999971,
      "d": 245.76050000000396,
      "v": 83
    },
    {
      "midi": 62,
      "hit": false,
      "t": 54914.75999999971,
      "d": 245.76049999999668,
      "v": 70
    },
    {
      "midi": 68,
      "hit": false,
      "t": 54914.75999999971,
      "d": 245.76049999999668,
      "v": 107
    },
    {
      "midi": 52,
      "hit": false,
      "t": 54914.75999999971,
      "d": 1771.170499999971,
      "v": 77
    },
    {
      "midi": 64,
      "hit": false,
      "t": 55168.994999999704,
      "d": 118.64299999999639,
      "v": 70
    },
    {
      "midi": 59,
      "hit": false,
      "t": 55423.2299999997,
      "d": 1262.7004999999845,
      "v": 66
    },
    {
      "midi": 64,
      "hit": false,
      "t": 55677.4649999997,
      "d": 494.69893749999756,
      "v": 84
    },
    {
      "midi": 68,
      "hit": false,
      "t": 55677.4649999997,
      "d": 494.69893749999756,
      "v": 95
    },
    {
      "midi": 74,
      "hit": false,
      "t": 55677.4649999997,
      "d": 499.99549999999726,
      "v": 105
    },
    {
      "midi": 71,
      "hit": false,
      "t": 56185.93499999969,
      "d": 118.64299999999639,
      "v": 62
    },
    {
      "midi": 68,
      "hit": false,
      "t": 56440.169999999685,
      "d": 240.46393749999697,
      "v": 104
    },
    {
      "midi": 64,
      "hit": false,
      "t": 56440.169999999685,
      "d": 245.76049999999668,
      "v": 87
    },
    {
      "midi": 74,
      "hit": false,
      "t": 56440.169999999685,
      "d": 245.76049999999668,
      "v": 101
    },
    {
      "midi": 63,
      "hit": false,
      "t": 56948.63999999968,
      "d": 245.76049999999668,
      "v": 105
    },
    {
      "midi": 71,
      "hit": false,
      "t": 56948.63999999968,
      "d": 245.76049999999668,
      "v": 108
    },
    {
      "midi": 47,
      "hit": false,
      "t": 56948.63999999968,
      "d": 754.2304999999833,
      "v": 82
    },
    {
      "midi": 66,
      "hit": false,
      "t": 57202.87499999967,
      "d": 118.64299999999639,
      "v": 69
    },
    {
      "midi": 59,
      "hit": false,
      "t": 57457.109999999666,
      "d": 1262.7004999999772,
      "v": 83
    },
    {
      "midi": 68,
      "hit": false,
      "t": 57711.34499999966,
      "d": 499.99549999999726,
      "v": 100
    },
    {
      "midi": 71,
      "hit": false,
      "t": 57711.34499999966,
      "d": 499.99549999999726,
      "v": 106
    },
    {
      "midi": 75,
      "hit": false,
      "t": 57711.34499999966,
      "d": 499.99549999999726,
      "v": 109
    },
    {
      "midi": 78,
      "hit": false,
      "t": 57711.34499999966,
      "d": 499.99549999999726,
      "v": 100
    },
    {
      "midi": 66,
      "hit": false,
      "t": 58219.81499999965,
      "d": 118.64299999999639,
      "v": 66
    },
    {
      "midi": 68,
      "hit": false,
      "t": 58474.04999999965,
      "d": 245.76049999999668,
      "v": 104
    },
    {
      "midi": 71,
      "hit": false,
      "t": 58474.04999999965,
      "d": 245.76049999999668,
      "v": 96
    },
    {
      "midi": 75,
      "hit": false,
      "t": 58474.04999999965,
      "d": 245.76049999999668,
      "v": 99
    },
    {
      "midi": 78,
      "hit": false,
      "t": 58474.04999999965,
      "d": 245.76049999999668,
      "v": 104
    },
    {
      "midi": 63,
      "hit": false,
      "t": 58982.51999999964,
      "d": 245.76049999999668,
      "v": 111
    },
    {
      "midi": 71,
      "hit": false,
      "t": 58982.51999999964,
      "d": 245.76049999999668,
      "v": 110
    },
    {
      "midi": 47,
      "hit": false,
      "t": 58982.51999999964,
      "d": 754.2304999999833,
      "v": 77
    },
    {
      "midi": 66,
      "hit": false,
      "t": 59236.75499999963,
      "d": 118.64299999999639,
      "v": 76
    },
    {
      "midi": 59,
      "hit": false,
      "t": 59490.98999999963,
      "d": 1262.7004999999772,
      "v": 75
    },
    {
      "midi": 68,
      "hit": false,
      "t": 59745.22499999962,
      "d": 499.99549999999726,
      "v": 100
    },
    {
      "midi": 71,
      "hit": false,
      "t": 59745.22499999962,
      "d": 499.99549999999726,
      "v": 105
    },
    {
      "midi": 75,
      "hit": false,
      "t": 59745.22499999962,
      "d": 499.99549999999726,
      "v": 107
    },
    {
      "midi": 78,
      "hit": false,
      "t": 59745.22499999962,
      "d": 499.99549999999726,
      "v": 100
    },
    {
      "midi": 66,
      "hit": false,
      "t": 60253.694999999614,
      "d": 118.64299999999639,
      "v": 63
    },
    {
      "midi": 68,
      "hit": false,
      "t": 60507.92999999961,
      "d": 245.76049999999668,
      "v": 98
    },
    {
      "midi": 71,
      "hit": false,
      "t": 60507.92999999961,
      "d": 245.76049999999668,
      "v": 101
    },
    {
      "midi": 75,
      "hit": false,
      "t": 60507.92999999961,
      "d": 245.76049999999668,
      "v": 101
    },
    {
      "midi": 78,
      "hit": false,
      "t": 60507.92999999961,
      "d": 245.76049999999668,
      "v": 95
    },
    {
      "midi": 54,
      "hit": false,
      "t": 61016.3999999996,
      "d": 1644.0529999999999,
      "v": 102
    },
    {
      "midi": 61,
      "hit": false,
      "t": 61270.6349999996,
      "d": 1389.8179999999993,
      "v": 58
    },
    {
      "midi": 66,
      "hit": false,
      "t": 61270.634999999966,
      "d": 1776.4670624999999,
      "v": 1
    },
    {
      "midi": 70,
      "hit": false,
      "t": 61270.634999999966,
      "d": 1776.4670624999999,
      "v": 1
    },
    {
      "midi": 73,
      "hit": false,
      "t": 61270.634999999966,
      "d": 1776.4670624999999,
      "v": 1
    },
    {
      "midi": 66,
      "hit": false,
      "t": 61779.1049999996,
      "d": 754.2304999999978,
      "v": 121
    },
    {
      "midi": 70,
      "hit": false,
      "t": 61779.1049999996,
      "d": 754.2304999999978,
      "v": 116
    },
    {
      "midi": 73,
      "hit": false,
      "t": 61779.1049999996,
      "d": 754.2304999999978,
      "v": 106
    },
    {
      "midi": 64,
      "hit": false,
      "t": 61779.1049999996,
      "d": 881.3479999999981,
      "v": 108
    },
    {
      "midi": 52,
      "hit": false,
      "t": 63050.2799999996,
      "d": 1898.2879999999568,
      "v": 95
    },
    {
      "midi": 64,
      "hit": false,
      "t": 63304.5149999996,
      "d": 118.64299999999639,
      "v": 58
    },
    {
      "midi": 71,
      "hit": false,
      "t": 63304.5149999996,
      "d": 118.64299999999639,
      "v": 66
    },
    {
      "midi": 74,
      "hit": false,
      "t": 63304.5149999996,
      "d": 118.64299999999639,
      "v": 67
    },
    {
      "midi": 64,
      "hit": false,
      "t": 63304.51499999996,
      "d": 1776.4670624999999,
      "v": 1
    },
    {
      "midi": 68,
      "hit": false,
      "t": 63304.51499999996,
      "d": 1776.4670624999999,
      "v": 1
    },
    {
      "midi": 74,
      "hit": false,
      "t": 63304.51499999996,
      "d": 1776.4670624999999,
      "v": 1
    },
    {
      "midi": 64,
      "hit": false,
      "t": 63558.74999999959,
      "d": 118.64299999999639,
      "v": 89
    },
    {
      "midi": 71,
      "hit": false,
      "t": 63558.74999999959,
      "d": 118.64299999999639,
      "v": 84
    },
    {
      "midi": 74,
      "hit": false,
      "t": 63558.74999999959,
      "d": 118.64299999999639,
      "v": 68
    },
    {
      "midi": 64,
      "hit": false,
      "t": 63812.984999999586,
      "d": 118.64299999999639,
      "v": 103
    },
    {
      "midi": 71,
      "hit": false,
      "t": 63812.984999999586,
      "d": 118.64299999999639,
      "v": 95
    },
    {
      "midi": 74,
      "hit": false,
      "t": 63812.984999999586,
      "d": 118.64299999999639,
      "v": 95
    },
    {
      "midi": 64,
      "hit": false,
      "t": 64067.21999999958,
      "d": 118.64299999999639,
      "v": 115
    },
    {
      "midi": 71,
      "hit": false,
      "t": 64067.21999999958,
      "d": 118.64299999999639,
      "v": 97
    },
    {
      "midi": 74,
      "hit": false,
      "t": 64067.21999999958,
      "d": 118.64299999999639,
      "v": 113
    },
    {
      "midi": 64,
      "hit": false,
      "t": 64321.45499999957,
      "d": 118.64299999999639,
      "v": 120
    },
    {
      "midi": 71,
      "hit": false,
      "t": 64321.45499999957,
      "d": 118.64299999999639,
      "v": 107
    },
    {
      "midi": 74,
      "hit": false,
      "t": 64321.45499999957,
      "d": 118.64299999999639,
      "v": 123
    },
    {
      "midi": 64,
      "hit": false,
      "t": 64575.689999999566,
      "d": 118.64299999999639,
      "v": 127
    },
    {
      "midi": 71,
      "hit": false,
      "t": 64575.689999999566,
      "d": 118.64299999999639,
      "v": 113
    },
    {
      "midi": 74,
      "hit": false,
      "t": 64575.689999999566,
      "d": 118.64299999999639,
      "v": 121
    },
    {
      "midi": 64,
      "hit": false,
      "t": 64829.92499999956,
      "d": 118.64299999999639,
      "v": 124
    },
    {
      "midi": 71,
      "hit": false,
      "t": 64829.92499999956,
      "d": 118.64299999999639,
      "v": 109
    },
    {
      "midi": 74,
      "hit": false,
      "t": 64829.92499999956,
      "d": 118.64299999999639,
      "v": 123
    },
    {
      "midi": 63,
      "hit": false,
      "t": 65084.15999999955,
      "d": 372.877999999997,
      "v": 96
    },
    {
      "midi": 71,
      "hit": false,
      "t": 65084.15999999955,
      "d": 372.877999999997,
      "v": 106
    },
    {
      "midi": 47,
      "hit": false,
      "t": 65084.15999999955,
      "d": 1771.170499999993,
      "v": 85
    },
    {
      "midi": 64,
      "hit": false,
      "t": 65084.15999999996,
      "d": 251.0570624999964,
      "v": 1
    },
    {
      "midi": 68,
      "hit": false,
      "t": 65084.15999999996,
      "d": 251.0570624999964,
      "v": 1
    },
    {
      "midi": 73,
      "hit": false,
      "t": 65084.15999999996,
      "d": 251.0570624999964,
      "v": 1
    },
    {
      "midi": 66,
      "hit": false,
      "t": 65338.39499999955,
      "d": 118.64299999999639,
      "v": 82
    },
    {
      "midi": 63,
      "hit": false,
      "t": 65338.39499999995,
      "d": 1013.7620625000054,
      "v": 1
    },
    {
      "midi": 66,
      "hit": false,
      "t": 65338.39499999995,
      "d": 1013.7620625000054,
      "v": 1
    },
    {
      "midi": 71,
      "hit": false,
      "t": 65338.39499999995,
      "d": 1013.7620625000054,
      "v": 1
    },
    {
      "midi": 59,
      "hit": false,
      "t": 65592.62999999955,
      "d": 939.6101875000022,
      "v": 68
    },
    {
      "midi": 75,
      "hit": false,
      "t": 65846.86499999955,
      "d": 754.2305000000051,
      "v": 116
    },
    {
      "midi": 78,
      "hit": false,
      "t": 65846.86499999955,
      "d": 754.2305000000051,
      "v": 113
    },
    {
      "midi": 68,
      "hit": false,
      "t": 65846.86499999955,
      "d": 881.3479999999981,
      "v": 95
    },
    {
      "midi": 54,
      "hit": false,
      "t": 66355.33499999956,
      "d": 245.76050000000396,
      "v": 69
    },
    {
      "midi": 66,
      "hit": false,
      "t": 66355.33499999996,
      "d": 251.0570624999964,
      "v": 1
    },
    {
      "midi": 56,
      "hit": false,
      "t": 66609.56999999956,
      "d": 245.7604999999894,
      "v": 60
    },
    {
      "midi": 68,
      "hit": false,
      "t": 66609.56999999996,
      "d": 505.292062499997,
      "v": 1
    },
    {
      "midi": 71,
      "hit": false,
      "t": 66609.56999999996,
      "d": 505.292062499997,
      "v": 1
    },
    {
      "midi": 54,
      "hit": false,
      "t": 66863.80499999954,
      "d": 245.76050000000396,
      "v": 63
    },
    {
      "midi": 63,
      "hit": false,
      "t": 67118.03999999954,
      "d": 245.76050000000396,
      "v": 94
    },
    {
      "midi": 71,
      "hit": false,
      "t": 67118.03999999954,
      "d": 245.76050000000396,
      "v": 106
    },
    {
      "midi": 47,
      "hit": false,
      "t": 67118.03999999954,
      "d": 1898.2880000000005,
      "v": 83
    },
    {
      "midi": 66,
      "hit": false,
      "t": 67118.03999999996,
      "d": 1395.1145625000063,
      "v": 1
    },
    {
      "midi": 71,
      "hit": false,
      "t": 67118.03999999996,
      "d": 1395.1145625000063,
      "v": 1
    },
    {
      "midi": 66,
      "hit": false,
      "t": 67372.27499999954,
      "d": 118.64299999999639,
      "v": 68
    },
    {
      "midi": 59,
      "hit": false,
      "t": 67626.50999999954,
      "d": 876.0514375000057,
      "v": 67
    },
    {
      "midi": 68,
      "hit": false,
      "t": 67880.74499999954,
      "d": 754.2305000000051,
      "v": 102
    },
    {
      "midi": 75,
      "hit": false,
      "t": 67880.74499999954,
      "d": 754.2305000000051,
      "v": 118
    },
    {
      "midi": 78,
      "hit": false,
      "t": 67880.74499999954,
      "d": 754.2305000000051,
      "v": 119
    },
    {
      "midi": 54,
      "hit": false,
      "t": 68389.21499999955,
      "d": 245.76050000000396,
      "v": 46
    },
    {
      "midi": 56,
      "hit": false,
      "t": 68643.44999999955,
      "d": 245.76050000000396,
      "v": 54
    },
    {
      "midi": 54,
      "hit": false,
      "t": 68897.68499999955,
      "d": 118.64299999999639,
      "v": 34
    },
    {
      "midi": 54,
      "hit": false,
      "t": 69151.91999999955,
      "d": 1644.0529999999999,
      "v": 108
    },
    {
      "midi": 61,
      "hit": false,
      "t": 69406.15499999955,
      "d": 1389.8179999999993,
      "v": 52
    },
    {
      "midi": 66,
      "hit": false,
      "t": 69406.15499999997,
      "d": 1776.4670624999999,
      "v": 1
    },
    {
      "midi": 70,
      "hit": false,
      "t": 69406.15499999997,
      "d": 1776.4670624999999,
      "v": 1
    },
    {
      "midi": 73,
      "hit": false,
      "t": 69406.15499999997,
      "d": 1776.4670624999999,
      "v": 1
    },
    {
      "midi": 66,
      "hit": false,
      "t": 69914.62499999955,
      "d": 754.2305000000051,
      "v": 117
    },
    {
      "midi": 70,
      "hit": false,
      "t": 69914.62499999955,
      "d": 754.2305000000051,
      "v": 115
    },
    {
      "midi": 73,
      "hit": false,
      "t": 69914.62499999955,
      "d": 754.2305000000051,
      "v": 108
    },
    {
      "midi": 64,
      "hit": false,
      "t": 69914.62499999955,
      "d": 881.3479999999981,
      "v": 110
    },
    {
      "midi": 52,
      "hit": false,
      "t": 71185.79999999955,
      "d": 1898.2880000000005,
      "v": 98
    },
    {
      "midi": 64,
      "hit": false,
      "t": 71440.03499999955,
      "d": 118.64299999999639,
      "v": 61
    },
    {
      "midi": 71,
      "hit": false,
      "t": 71440.03499999955,
      "d": 118.64299999999639,
      "v": 68
    },
    {
      "midi": 74,
      "hit": false,
      "t": 71440.03499999955,
      "d": 118.64299999999639,
      "v": 71
    },
    {
      "midi": 64,
      "hit": false,
      "t": 71440.03499999997,
      "d": 1776.4670624999999,
      "v": 1
    },
    {
      "midi": 68,
      "hit": false,
      "t": 71440.03499999997,
      "d": 1776.4670624999999,
      "v": 1
    },
    {
      "midi": 74,
      "hit": false,
      "t": 71440.03499999997,
      "d": 1776.4670624999999,
      "v": 1
    },
    {
      "midi": 64,
      "hit": false,
      "t": 71694.26999999955,
      "d": 118.64299999999639,
      "v": 87
    },
    {
      "midi": 71,
      "hit": false,
      "t": 71694.26999999955,
      "d": 118.64299999999639,
      "v": 86
    },
    {
      "midi": 74,
      "hit": false,
      "t": 71694.26999999955,
      "d": 118.64299999999639,
      "v": 70
    },
    {
      "midi": 64,
      "hit": false,
      "t": 71948.50499999955,
      "d": 118.64299999999639,
      "v": 101
    },
    {
      "midi": 71,
      "hit": false,
      "t": 71948.50499999955,
      "d": 118.64299999999639,
      "v": 99
    },
    {
      "midi": 74,
      "hit": false,
      "t": 71948.50499999955,
      "d": 118.64299999999639,
      "v": 96
    },
    {
      "midi": 64,
      "hit": false,
      "t": 72202.73999999955,
      "d": 118.64299999999639,
      "v": 113
    },
    {
      "midi": 71,
      "hit": false,
      "t": 72202.73999999955,
      "d": 118.64299999999639,
      "v": 105
    },
    {
      "midi": 74,
      "hit": false,
      "t": 72202.73999999955,
      "d": 118.64299999999639,
      "v": 111
    },
    {
      "midi": 64,
      "hit": false,
      "t": 72456.97499999955,
      "d": 118.64299999999639,
      "v": 116
    },
    {
      "midi": 71,
      "hit": false,
      "t": 72456.97499999955,
      "d": 118.64299999999639,
      "v": 103
    },
    {
      "midi": 74,
      "hit": false,
      "t": 72456.97499999955,
      "d": 118.64299999999639,
      "v": 127
    },
    {
      "midi": 64,
      "hit": false,
      "t": 72711.20999999956,
      "d": 118.64299999999639,
      "v": 126
    },
    {
      "midi": 71,
      "hit": false,
      "t": 72711.20999999956,
      "d": 118.64299999999639,
      "v": 117
    },
    {
      "midi": 74,
      "hit": false,
      "t": 72711.20999999956,
      "d": 118.64299999999639,
      "v": 124
    },
    {
      "midi": 64,
      "hit": false,
      "t": 72965.44499999956,
      "d": 118.64299999999639,
      "v": 127
    },
    {
      "midi": 71,
      "hit": false,
      "t": 72965.44499999956,
      "d": 118.64299999999639,
      "v": 112
    },
    {
      "midi": 74,
      "hit": false,
      "t": 72965.44499999956,
      "d": 118.64299999999639,
      "v": 127
    },
    {
      "midi": 63,
      "hit": false,
      "t": 73219.67999999956,
      "d": 372.877999999997,
      "v": 89
    },
    {
      "midi": 71,
      "hit": false,
      "t": 73219.67999999956,
      "d": 372.877999999997,
      "v": 104
    },
    {
      "midi": 47,
      "hit": false,
      "t": 73219.67999999956,
      "d": 1771.170499999993,
      "v": 83
    },
    {
      "midi": 64,
      "hit": false,
      "t": 73219.67999999998,
      "d": 251.0570624999964,
      "v": 1
    },
    {
      "midi": 68,
      "hit": false,
      "t": 73219.67999999998,
      "d": 251.0570624999964,
      "v": 1
    },
    {
      "midi": 73,
      "hit": false,
      "t": 73219.67999999998,
      "d": 251.0570624999964,
      "v": 1
    },
    {
      "midi": 66,
      "hit": false,
      "t": 73473.91499999956,
      "d": 118.64299999999639,
      "v": 77
    },
    {
      "midi": 63,
      "hit": false,
      "t": 73473.91499999998,
      "d": 1013.7620624999981,
      "v": 1
    },
    {
      "midi": 66,
      "hit": false,
      "t": 73473.91499999998,
      "d": 1013.7620624999981,
      "v": 1
    },
    {
      "midi": 71,
      "hit": false,
      "t": 73473.91499999998,
      "d": 1013.7620624999981,
      "v": 1
    },
    {
      "midi": 59,
      "hit": false,
      "t": 73728.14999999956,
      "d": 939.6101875000022,
      "v": 66
    },
    {
      "midi": 75,
      "hit": false,
      "t": 73982.38499999956,
      "d": 754.2305000000051,
      "v": 118
    },
    {
      "midi": 78,
      "hit": false,
      "t": 73982.38499999956,
      "d": 754.2305000000051,
      "v": 115
    },
    {
      "midi": 68,
      "hit": false,
      "t": 73982.38499999956,
      "d": 881.3479999999981,
      "v": 95
    },
    {
      "midi": 54,
      "hit": false,
      "t": 74490.85499999956,
      "d": 245.76050000000396,
      "v": 70
    },
    {
      "midi": 66,
      "hit": false,
      "t": 74490.85499999998,
      "d": 251.0570624999964,
      "v": 1
    },
    {
      "midi": 56,
      "hit": false,
      "t": 74745.08999999956,
      "d": 245.7604999999894,
      "v": 63
    },
    {
      "midi": 68,
      "hit": false,
      "t": 74745.08999999998,
      "d": 505.292062499997,
      "v": 1
    },
    {
      "midi": 71,
      "hit": false,
      "t": 74745.08999999998,
      "d": 505.292062499997,
      "v": 1
    },
    {
      "midi": 54,
      "hit": false,
      "t": 74999.32499999955,
      "d": 245.76050000000396,
      "v": 65
    },
    {
      "midi": 63,
      "hit": false,
      "t": 75253.55999999955,
      "d": 245.76050000000396,
      "v": 97
    },
    {
      "midi": 71,
      "hit": false,
      "t": 75253.55999999955,
      "d": 245.76050000000396,
      "v": 105
    },
    {
      "midi": 47,
      "hit": false,
      "t": 75253.55999999955,
      "d": 1898.2880000000005,
      "v": 86
    },
    {
      "midi": 66,
      "hit": false,
      "t": 75253.55999999998,
      "d": 1267.9970624999987,
      "v": 1
    },
    {
      "midi": 71,
      "hit": false,
      "t": 75253.55999999998,
      "d": 1267.9970624999987,
      "v": 1
    },
    {
      "midi": 66,
      "hit": false,
      "t": 75507.79499999955,
      "d": 118.64299999999639,
      "v": 64
    },
    {
      "midi": 59,
      "hit": false,
      "t": 75762.02999999955,
      "d": 876.0514375000057,
      "v": 73
    },
    {
      "midi": 68,
      "hit": false,
      "t": 76016.26499999955,
      "d": 754.2305000000051,
      "v": 104
    },
    {
      "midi": 75,
      "hit": false,
      "t": 76016.26499999955,
      "d": 754.2305000000051,
      "v": 123
    },
    {
      "midi": 78,
      "hit": false,
      "t": 76016.26499999955,
      "d": 754.2305000000051,
      "v": 119
    },
    {
      "midi": 54,
      "hit": false,
      "t": 76524.73499999955,
      "d": 245.76050000000396,
      "v": 44
    },
    {
      "midi": 56,
      "hit": false,
      "t": 76778.96999999955,
      "d": 245.76050000000396,
      "v": 60
    },
    {
      "midi": 54,
      "hit": false,
      "t": 77033.20499999955,
      "d": 118.64299999999639,
      "v": 34
    },
    {
      "midi": 63,
      "hit": false,
      "t": 77287.43999999955,
      "d": 245.76050000000396,
      "v": 109
    },
    {
      "midi": 71,
      "hit": false,
      "t": 77287.43999999955,
      "d": 245.76050000000396,
      "v": 105
    },
    {
      "midi": 47,
      "hit": false,
      "t": 77287.43999999955,
      "d": 754.2305000000051,
      "v": 74
    },
    {
      "midi": 66,
      "hit": false,
      "t": 77541.67499999955,
      "d": 118.64299999999639,
      "v": 73
    },
    {
      "midi": 59,
      "hit": false,
      "t": 77795.90999999955,
      "d": 1262.7005000000063,
      "v": 82
    },
    {
      "midi": 68,
      "hit": false,
      "t": 78050.14499999955,
      "d": 499.99550000000454,
      "v": 104
    },
    {
      "midi": 71,
      "hit": false,
      "t": 78050.14499999955,
      "d": 499.99550000000454,
      "v": 105
    },
    {
      "midi": 75,
      "hit": false,
      "t": 78050.14499999955,
      "d": 499.99550000000454,
      "v": 108
    },
    {
      "midi": 78,
      "hit": false,
      "t": 78050.14499999955,
      "d": 499.99550000000454,
      "v": 106
    },
    {
      "midi": 66,
      "hit": false,
      "t": 78558.61499999955,
      "d": 118.64299999999639,
      "v": 58
    },
    {
      "midi": 68,
      "hit": false,
      "t": 78812.84999999955,
      "d": 245.76050000000396,
      "v": 95
    },
    {
      "midi": 71,
      "hit": false,
      "t": 78812.84999999955,
      "d": 245.76050000000396,
      "v": 99
    },
    {
      "midi": 75,
      "hit": false,
      "t": 78812.84999999955,
      "d": 245.76050000000396,
      "v": 102
    },
    {
      "midi": 78,
      "hit": false,
      "t": 78812.84999999955,
      "d": 245.76050000000396,
      "v": 96
    },
    {
      "midi": 63,
      "hit": false,
      "t": 79321.31999999956,
      "d": 245.76050000000396,
      "v": 109
    },
    {
      "midi": 71,
      "hit": false,
      "t": 79321.31999999956,
      "d": 245.76050000000396,
      "v": 110
    },
    {
      "midi": 47,
      "hit": false,
      "t": 79321.31999999956,
      "d": 754.2305000000051,
      "v": 79
    },
    {
      "midi": 66,
      "hit": false,
      "t": 79575.55499999956,
      "d": 118.64299999999639,
      "v": 77
    },
    {
      "midi": 59,
      "hit": false,
      "t": 79829.78999999956,
      "d": 1262.7005000000063,
      "v": 80
    },
    {
      "midi": 68,
      "hit": false,
      "t": 80084.02499999956,
      "d": 499.99550000000454,
      "v": 103
    },
    {
      "midi": 71,
      "hit": false,
      "t": 80084.02499999956,
      "d": 499.99550000000454,
      "v": 102
    },
    {
      "midi": 75,
      "hit": false,
      "t": 80084.02499999956,
      "d": 499.99550000000454,
      "v": 108
    },
    {
      "midi": 78,
      "hit": false,
      "t": 80084.02499999956,
      "d": 499.99550000000454,
      "v": 107
    },
    {
      "midi": 66,
      "hit": false,
      "t": 80592.49499999956,
      "d": 118.64299999999639,
      "v": 60
    },
    {
      "midi": 68,
      "hit": false,
      "t": 80846.72999999956,
      "d": 245.76050000000396,
      "v": 101
    },
    {
      "midi": 71,
      "hit": false,
      "t": 80846.72999999956,
      "d": 245.76050000000396,
      "v": 101
    },
    {
      "midi": 75,
      "hit": false,
      "t": 80846.72999999956,
      "d": 245.76050000000396,
      "v": 99
    },
    {
      "midi": 78,
      "hit": false,
      "t": 80846.72999999956,
      "d": 245.76050000000396,
      "v": 96
    },
    {
      "midi": 63,
      "hit": false,
      "t": 81355.19999999956,
      "d": 245.76050000000396,
      "v": 109
    },
    {
      "midi": 71,
      "hit": false,
      "t": 81355.19999999956,
      "d": 245.76050000000396,
      "v": 110
    },
    {
      "midi": 47,
      "hit": false,
      "t": 81355.19999999956,
      "d": 754.2305000000051,
      "v": 76
    },
    {
      "midi": 66,
      "hit": false,
      "t": 81609.43499999956,
      "d": 118.64299999999639,
      "v": 73
    },
    {
      "midi": 59,
      "hit": false,
      "t": 81863.66999999956,
      "d": 1262.7005000000063,
      "v": 78
    },
    {
      "midi": 68,
      "hit": false,
      "t": 82117.90499999956,
      "d": 499.99550000000454,
      "v": 100
    },
    {
      "midi": 71,
      "hit": false,
      "t": 82117.90499999956,
      "d": 499.99550000000454,
      "v": 105
    },
    {
      "midi": 75,
      "hit": false,
      "t": 82117.90499999956,
      "d": 499.99550000000454,
      "v": 101
    },
    {
      "midi": 78,
      "hit": false,
      "t": 82117.90499999956,
      "d": 499.99550000000454,
      "v": 103
    },
    {
      "midi": 66,
      "hit": false,
      "t": 82626.37499999956,
      "d": 118.64299999999639,
      "v": 58
    },
    {
      "midi": 68,
      "hit": false,
      "t": 82880.60999999956,
      "d": 245.76050000000396,
      "v": 98
    },
    {
      "midi": 71,
      "hit": false,
      "t": 82880.60999999956,
      "d": 245.76050000000396,
      "v": 95
    },
    {
      "midi": 75,
      "hit": false,
      "t": 82880.60999999956,
      "d": 245.76050000000396,
      "v": 101
    },
    {
      "midi": 78,
      "hit": false,
      "t": 82880.60999999956,
      "d": 245.76050000000396,
      "v": 98
    },
    {
      "midi": 63,
      "hit": false,
      "t": 83389.07999999957,
      "d": 245.76050000000396,
      "v": 110
    },
    {
      "midi": 71,
      "hit": false,
      "t": 83389.07999999957,
      "d": 245.76050000000396,
      "v": 107
    },
    {
      "midi": 47,
      "hit": false,
      "t": 83389.07999999957,
      "d": 754.2305000000051,
      "v": 80
    },
    {
      "midi": 66,
      "hit": false,
      "t": 83643.31499999957,
      "d": 118.64299999999639,
      "v": 77
    },
    {
      "midi": 59,
      "hit": false,
      "t": 83897.54999999957,
      "d": 1262.7005000000063,
      "v": 76
    },
    {
      "midi": 68,
      "hit": false,
      "t": 84151.78499999957,
      "d": 499.99550000000454,
      "v": 106
    },
    {
      "midi": 71,
      "hit": false,
      "t": 84151.78499999957,
      "d": 499.99550000000454,
      "v": 100
    },
    {
      "midi": 75,
      "hit": false,
      "t": 84151.78499999957,
      "d": 499.99550000000454,
      "v": 106
    },
    {
      "midi": 78,
      "hit": false,
      "t": 84151.78499999957,
      "d": 499.99550000000454,
      "v": 104
    },
    {
      "midi": 66,
      "hit": false,
      "t": 84660.25499999957,
      "d": 118.64299999999639,
      "v": 59
    },
    {
      "midi": 68,
      "hit": false,
      "t": 84914.48999999957,
      "d": 245.76050000000396,
      "v": 96
    },
    {
      "midi": 71,
      "hit": false,
      "t": 84914.48999999957,
      "d": 245.76050000000396,
      "v": 103
    },
    {
      "midi": 75,
      "hit": false,
      "t": 84914.48999999957,
      "d": 245.76050000000396,
      "v": 96
    },
    {
      "midi": 78,
      "hit": false,
      "t": 84914.48999999957,
      "d": 245.76050000000396,
      "v": 98
    },
    {
      "midi": 68,
      "hit": false,
      "t": 85422.95999999957,
      "d": 372.877999999997,
      "v": 101
    },
    {
      "midi": 71,
      "hit": false,
      "t": 85422.95999999957,
      "d": 372.877999999997,
      "v": 112
    },
    {
      "midi": 62,
      "hit": false,
      "t": 85422.95999999957,
      "d": 499.99549999999,
      "v": 70
    },
    {
      "midi": 52,
      "hit": false,
      "t": 85422.95999999957,
      "d": 1898.2879999999568,
      "v": 86
    },
    {
      "midi": 74,
      "hit": false,
      "t": 85677.19499999957,
      "d": 245.7604999999894,
      "v": 79
    },
    {
      "midi": 59,
      "hit": false,
      "t": 85931.42999999956,
      "d": 1135.5829999999842,
      "v": 59
    },
    {
      "midi": 68,
      "hit": false,
      "t": 86185.66499999956,
      "d": 372.877999999997,
      "v": 102
    },
    {
      "midi": 71,
      "hit": false,
      "t": 86185.66499999956,
      "d": 499.99549999999,
      "v": 105
    },
    {
      "midi": 62,
      "hit": false,
      "t": 86185.66499999956,
      "d": 627.112999999983,
      "v": 83
    },
    {
      "midi": 68,
      "hit": false,
      "t": 86694.13499999954,
      "d": 118.64299999999639,
      "v": 74
    },
    {
      "midi": 62,
      "hit": false,
      "t": 86948.36999999954,
      "d": 245.7604999999894,
      "v": 74
    },
    {
      "midi": 68,
      "hit": false,
      "t": 86948.36999999954,
      "d": 245.7604999999894,
      "v": 102
    },
    {
      "midi": 71,
      "hit": false,
      "t": 86948.36999999954,
      "d": 245.7604999999894,
      "v": 100
    },
    {
      "midi": 74,
      "hit": false,
      "t": 86948.36999999954,
      "d": 245.7604999999894,
      "v": 103
    },
    {
      "midi": 59,
      "hit": false,
      "t": 87202.60499999953,
      "d": 245.7604999999894,
      "v": 74
    },
    {
      "midi": 68,
      "hit": false,
      "t": 87456.83999999952,
      "d": 627.1129999999976,
      "v": 105
    },
    {
      "midi": 71,
      "hit": false,
      "t": 87456.83999999952,
      "d": 627.1129999999976,
      "v": 113
    },
    {
      "midi": 52,
      "hit": false,
      "t": 87456.83999999952,
      "d": 1644.0529999999708,
      "v": 75
    },
    {
      "midi": 74,
      "hit": false,
      "t": 87711.07499999952,
      "d": 372.877999999997,
      "v": 71
    },
    {
      "midi": 62,
      "hit": false,
      "t": 87711.07499999952,
      "d": 499.99549999999,
      "v": 87
    },
    {
      "midi": 59,
      "hit": false,
      "t": 87965.30999999952,
      "d": 1008.4654999999766,
      "v": 71
    },
    {
      "midi": 68,
      "hit": false,
      "t": 88219.5449999995,
      "d": 245.76050000000396,
      "v": 87
    },
    {
      "midi": 62,
      "hit": false,
      "t": 88219.5449999995,
      "d": 499.99550000000454,
      "v": 75
    },
    {
      "midi": 71,
      "hit": false,
      "t": 88219.5449999995,
      "d": 499.99550000000454,
      "v": 104
    },
    {
      "midi": 68,
      "hit": false,
      "t": 88728.0149999995,
      "d": 118.64299999999639,
      "v": 69
    },
    {
      "midi": 68,
      "hit": false,
      "t": 88982.24999999949,
      "d": 245.7604999999894,
      "v": 98
    },
    {
      "midi": 71,
      "hit": false,
      "t": 88982.24999999949,
      "d": 245.7604999999894,
      "v": 104
    },
    {
      "midi": 74,
      "hit": false,
      "t": 88982.24999999949,
      "d": 245.7604999999894,
      "v": 101
    },
    {
      "midi": 62,
      "hit": false,
      "t": 89236.48499999948,
      "d": 118.64299999999639,
      "v": 72
    },
    {
      "midi": 63,
      "hit": false,
      "t": 89490.71999999948,
      "d": 245.76050000000396,
      "v": 111
    },
    {
      "midi": 71,
      "hit": false,
      "t": 89490.71999999948,
      "d": 245.76050000000396,
      "v": 106
    },
    {
      "midi": 47,
      "hit": false,
      "t": 89490.71999999948,
      "d": 754.2305000000051,
      "v": 79
    },
    {
      "midi": 66,
      "hit": false,
      "t": 89744.95499999948,
      "d": 118.64299999999639,
      "v": 69
    },
    {
      "midi": 59,
      "hit": false,
      "t": 89999.18999999948,
      "d": 1262.7005000000063,
      "v": 83
    },
    {
      "midi": 68,
      "hit": false,
      "t": 90253.42499999948,
      "d": 499.99550000000454,
      "v": 105
    },
    {
      "midi": 71,
      "hit": false,
      "t": 90253.42499999948,
      "d": 499.99550000000454,
      "v": 103
    },
    {
      "midi": 75,
      "hit": false,
      "t": 90253.42499999948,
      "d": 499.99550000000454,
      "v": 104
    },
    {
      "midi": 78,
      "hit": false,
      "t": 90253.42499999948,
      "d": 499.99550000000454,
      "v": 107
    },
    {
      "midi": 66,
      "hit": false,
      "t": 90761.89499999948,
      "d": 118.64299999999639,
      "v": 63
    },
    {
      "midi": 68,
      "hit": false,
      "t": 91016.12999999948,
      "d": 245.76050000000396,
      "v": 99
    },
    {
      "midi": 71,
      "hit": false,
      "t": 91016.12999999948,
      "d": 245.76050000000396,
      "v": 105
    },
    {
      "midi": 75,
      "hit": false,
      "t": 91016.12999999948,
      "d": 245.76050000000396,
      "v": 103
    },
    {
      "midi": 78,
      "hit": false,
      "t": 91016.12999999948,
      "d": 245.76050000000396,
      "v": 99
    },
    {
      "midi": 63,
      "hit": false,
      "t": 91524.59999999948,
      "d": 245.76050000000396,
      "v": 112
    },
    {
      "midi": 71,
      "hit": false,
      "t": 91524.59999999948,
      "d": 245.76050000000396,
      "v": 109
    },
    {
      "midi": 47,
      "hit": false,
      "t": 91524.59999999948,
      "d": 754.2305000000051,
      "v": 78
    },
    {
      "midi": 66,
      "hit": false,
      "t": 91778.83499999948,
      "d": 118.64299999999639,
      "v": 76
    },
    {
      "midi": 59,
      "hit": false,
      "t": 92033.06999999948,
      "d": 1262.7005000000063,
      "v": 75
    },
    {
      "midi": 68,
      "hit": false,
      "t": 92287.30499999948,
      "d": 499.99550000000454,
      "v": 103
    },
    {
      "midi": 71,
      "hit": false,
      "t": 92287.30499999948,
      "d": 499.99550000000454,
      "v": 103
    },
    {
      "midi": 75,
      "hit": false,
      "t": 92287.30499999948,
      "d": 499.99550000000454,
      "v": 101
    },
    {
      "midi": 78,
      "hit": false,
      "t": 92287.30499999948,
      "d": 499.99550000000454,
      "v": 108
    },
    {
      "midi": 66,
      "hit": false,
      "t": 92795.77499999948,
      "d": 118.64299999999639,
      "v": 59
    },
    {
      "midi": 68,
      "hit": false,
      "t": 93050.00999999949,
      "d": 245.76050000000396,
      "v": 104
    },
    {
      "midi": 71,
      "hit": false,
      "t": 93050.00999999949,
      "d": 245.76050000000396,
      "v": 98
    },
    {
      "midi": 75,
      "hit": false,
      "t": 93050.00999999949,
      "d": 245.76050000000396,
      "v": 101
    },
    {
      "midi": 78,
      "hit": false,
      "t": 93050.00999999949,
      "d": 245.76050000000396,
      "v": 96
    },
    {
      "midi": 54,
      "hit": false,
      "t": 93558.47999999949,
      "d": 1644.0529999999999,
      "v": 103
    },
    {
      "midi": 61,
      "hit": false,
      "t": 93812.71499999949,
      "d": 1389.8179999999993,
      "v": 59
    },
    {
      "midi": 66,
      "hit": false,
      "t": 93812.71499999998,
      "d": 1776.4670624999999,
      "v": 1
    },
    {
      "midi": 70,
      "hit": false,
      "t": 93812.71499999998,
      "d": 1776.4670624999999,
      "v": 1
    },
    {
      "midi": 73,
      "hit": false,
      "t": 93812.71499999998,
      "d": 1776.4670624999999,
      "v": 1
    },
    {
      "midi": 66,
      "hit": false,
      "t": 94321.18499999949,
      "d": 754.2305000000051,
      "v": 112
    },
    {
      "midi": 70,
      "hit": false,
      "t": 94321.18499999949,
      "d": 754.2305000000051,
      "v": 113
    },
    {
      "midi": 73,
      "hit": false,
      "t": 94321.18499999949,
      "d": 754.2305000000051,
      "v": 112
    },
    {
      "midi": 64,
      "hit": false,
      "t": 94321.18499999949,
      "d": 881.3479999999981,
      "v": 103
    },
    {
      "midi": 52,
      "hit": false,
      "t": 95592.35999999949,
      "d": 1898.2880000000005,
      "v": 92
    },
    {
      "midi": 64,
      "hit": false,
      "t": 95846.59499999949,
      "d": 118.64299999999639,
      "v": 63
    },
    {
      "midi": 71,
      "hit": false,
      "t": 95846.59499999949,
      "d": 118.64299999999639,
      "v": 68
    },
    {
      "midi": 74,
      "hit": false,
      "t": 95846.59499999949,
      "d": 118.64299999999639,
      "v": 72
    },
    {
      "midi": 64,
      "hit": false,
      "t": 95846.59499999999,
      "d": 1776.4670624999999,
      "v": 1
    },
    {
      "midi": 68,
      "hit": false,
      "t": 95846.59499999999,
      "d": 1776.4670624999999,
      "v": 1
    },
    {
      "midi": 74,
      "hit": false,
      "t": 95846.59499999999,
      "d": 1776.4670624999999,
      "v": 1
    },
    {
      "midi": 64,
      "hit": false,
      "t": 96100.82999999949,
      "d": 118.64299999999639,
      "v": 83
    },
    {
      "midi": 71,
      "hit": false,
      "t": 96100.82999999949,
      "d": 118.64299999999639,
      "v": 80
    },
    {
      "midi": 74,
      "hit": false,
      "t": 96100.82999999949,
      "d": 118.64299999999639,
      "v": 70
    },
    {
      "midi": 64,
      "hit": false,
      "t": 96355.0649999995,
      "d": 118.64299999999639,
      "v": 102
    },
    {
      "midi": 71,
      "hit": false,
      "t": 96355.0649999995,
      "d": 118.64299999999639,
      "v": 96
    },
    {
      "midi": 74,
      "hit": false,
      "t": 96355.0649999995,
      "d": 118.64299999999639,
      "v": 90
    },
    {
      "midi": 64,
      "hit": false,
      "t": 96609.2999999995,
      "d": 118.64299999999639,
      "v": 108
    },
    {
      "midi": 71,
      "hit": false,
      "t": 96609.2999999995,
      "d": 118.64299999999639,
      "v": 105
    },
    {
      "midi": 74,
      "hit": false,
      "t": 96609.2999999995,
      "d": 118.64299999999639,
      "v": 118
    },
    {
      "midi": 64,
      "hit": false,
      "t": 96863.5349999995,
      "d": 118.64299999999639,
      "v": 123
    },
    {
      "midi": 71,
      "hit": false,
      "t": 96863.5349999995,
      "d": 118.64299999999639,
      "v": 109
    },
    {
      "midi": 74,
      "hit": false,
      "t": 96863.5349999995,
      "d": 118.64299999999639,
      "v": 127
    },
    {
      "midi": 64,
      "hit": false,
      "t": 97117.7699999995,
      "d": 118.64299999999639,
      "v": 127
    },
    {
      "midi": 71,
      "hit": false,
      "t": 97117.7699999995,
      "d": 118.64299999999639,
      "v": 112
    },
    {
      "midi": 74,
      "hit": false,
      "t": 97117.7699999995,
      "d": 118.64299999999639,
      "v": 124
    },
    {
      "midi": 64,
      "hit": false,
      "t": 97372.0049999995,
      "d": 118.64299999999639,
      "v": 122
    },
    {
      "midi": 71,
      "hit": false,
      "t": 97372.0049999995,
      "d": 118.64299999999639,
      "v": 117
    },
    {
      "midi": 74,
      "hit": false,
      "t": 97372.0049999995,
      "d": 118.64299999999639,
      "v": 122
    },
    {
      "midi": 63,
      "hit": false,
      "t": 97626.2399999995,
      "d": 372.877999999997,
      "v": 98
    },
    {
      "midi": 71,
      "hit": false,
      "t": 97626.2399999995,
      "d": 372.877999999997,
      "v": 105
    },
    {
      "midi": 47,
      "hit": false,
      "t": 97626.2399999995,
      "d": 1771.170499999993,
      "v": 79
    },
    {
      "midi": 64,
      "hit": false,
      "t": 97626.23999999999,
      "d": 251.0570624999964,
      "v": 1
    },
    {
      "midi": 68,
      "hit": false,
      "t": 97626.23999999999,
      "d": 251.0570624999964,
      "v": 1
    },
    {
      "midi": 73,
      "hit": false,
      "t": 97626.23999999999,
      "d": 251.0570624999964,
      "v": 1
    },
    {
      "midi": 66,
      "hit": false,
      "t": 97880.4749999995,
      "d": 118.64299999999639,
      "v": 81
    },
    {
      "midi": 63,
      "hit": false,
      "t": 97880.47499999999,
      "d": 1013.7620624999981,
      "v": 1
    },
    {
      "midi": 66,
      "hit": false,
      "t": 97880.47499999999,
      "d": 1013.7620624999981,
      "v": 1
    },
    {
      "midi": 71,
      "hit": false,
      "t": 97880.47499999999,
      "d": 1013.7620624999981,
      "v": 1
    },
    {
      "midi": 59,
      "hit": false,
      "t": 98134.7099999995,
      "d": 939.6101875000022,
      "v": 70
    },
    {
      "midi": 75,
      "hit": false,
      "t": 98388.9449999995,
      "d": 754.2305000000051,
      "v": 118
    },
    {
      "midi": 78,
      "hit": false,
      "t": 98388.9449999995,
      "d": 754.2305000000051,
      "v": 118
    },
    {
      "midi": 68,
      "hit": false,
      "t": 98388.9449999995,
      "d": 881.3479999999981,
      "v": 101
    },
    {
      "midi": 54,
      "hit": false,
      "t": 98897.4149999995,
      "d": 245.76050000000396,
      "v": 71
    },
    {
      "midi": 66,
      "hit": false,
      "t": 98897.415,
      "d": 251.0570624999964,
      "v": 1
    },
    {
      "midi": 56,
      "hit": false,
      "t": 99151.6499999995,
      "d": 245.7604999999894,
      "v": 62
    },
    {
      "midi": 68,
      "hit": false,
      "t": 99151.65,
      "d": 505.292062499997,
      "v": 1
    },
    {
      "midi": 71,
      "hit": false,
      "t": 99151.65,
      "d": 505.292062499997,
      "v": 1
    },
    {
      "midi": 54,
      "hit": false,
      "t": 99405.88499999949,
      "d": 245.76050000000396,
      "v": 66
    },
    {
      "midi": 63,
      "hit": false,
      "t": 99660.11999999949,
      "d": 245.76050000000396,
      "v": 94
    },
    {
      "midi": 71,
      "hit": false,
      "t": 99660.11999999949,
      "d": 245.76050000000396,
      "v": 107
    },
    {
      "midi": 47,
      "hit": false,
      "t": 99660.11999999949,
      "d": 1898.2880000000005,
      "v": 78
    },
    {
      "midi": 66,
      "hit": false,
      "t": 99660.12,
      "d": 1395.1145625000063,
      "v": 1
    },
    {
      "midi": 71,
      "hit": false,
      "t": 99660.12,
      "d": 1395.1145625000063,
      "v": 1
    },
    {
      "midi": 66,
      "hit": false,
      "t": 99914.35499999949,
      "d": 118.64299999999639,
      "v": 65
    },
    {
      "midi": 59,
      "hit": false,
      "t": 100168.58999999949,
      "d": 876.0514375000057,
      "v": 69
    },
    {
      "midi": 68,
      "hit": false,
      "t": 100422.82499999949,
      "d": 754.2305000000051,
      "v": 105
    },
    {
      "midi": 75,
      "hit": false,
      "t": 100422.82499999949,
      "d": 754.2305000000051,
      "v": 123
    },
    {
      "midi": 78,
      "hit": false,
      "t": 100422.82499999949,
      "d": 754.2305000000051,
      "v": 122
    },
    {
      "midi": 54,
      "hit": false,
      "t": 100931.29499999949,
      "d": 245.76050000000396,
      "v": 42
    },
    {
      "midi": 56,
      "hit": false,
      "t": 101185.52999999949,
      "d": 245.76050000000396,
      "v": 51
    },
    {
      "midi": 54,
      "hit": false,
      "t": 101439.76499999949,
      "d": 118.64299999999639,
      "v": 40
    },
    {
      "midi": 54,
      "hit": false,
      "t": 101693.99999999949,
      "d": 1644.0529999999999,
      "v": 102
    },
    {
      "midi": 61,
      "hit": false,
      "t": 101948.23499999949,
      "d": 1389.8179999999993,
      "v": 60
    },
    {
      "midi": 66,
      "hit": false,
      "t": 101948.235,
      "d": 1776.4670624999999,
      "v": 1
    },
    {
      "midi": 70,
      "hit": false,
      "t": 101948.235,
      "d": 1776.4670624999999,
      "v": 1
    },
    {
      "midi": 73,
      "hit": false,
      "t": 101948.235,
      "d": 1776.4670624999999,
      "v": 1
    },
    {
      "midi": 66,
      "hit": false,
      "t": 102456.70499999949,
      "d": 754.2305000000051,
      "v": 119
    },
    {
      "midi": 70,
      "hit": false,
      "t": 102456.70499999949,
      "d": 754.2305000000051,
      "v": 114
    },
    {
      "midi": 73,
      "hit": false,
      "t": 102456.70499999949,
      "d": 754.2305000000051,
      "v": 110
    },
    {
      "midi": 64,
      "hit": false,
      "t": 102456.70499999949,
      "d": 881.3479999999981,
      "v": 109
    },
    {
      "midi": 52,
      "hit": false,
      "t": 103727.8799999995,
      "d": 1898.2880000000005,
      "v": 91
    },
    {
      "midi": 64,
      "hit": false,
      "t": 103982.1149999995,
      "d": 118.64299999999639,
      "v": 57
    },
    {
      "midi": 71,
      "hit": false,
      "t": 103982.1149999995,
      "d": 118.64299999999639,
      "v": 71
    },
    {
      "midi": 74,
      "hit": false,
      "t": 103982.1149999995,
      "d": 118.64299999999639,
      "v": 67
    },
    {
      "midi": 64,
      "hit": false,
      "t": 103982.115,
      "d": 1776.4670624999999,
      "v": 1
    },
    {
      "midi": 68,
      "hit": false,
      "t": 103982.115,
      "d": 1776.4670624999999,
      "v": 1
    },
    {
      "midi": 74,
      "hit": false,
      "t": 103982.115,
      "d": 1776.4670624999999,
      "v": 1
    },
    {
      "midi": 64,
      "hit": false,
      "t": 104236.3499999995,
      "d": 118.64299999999639,
      "v": 85
    },
    {
      "midi": 71,
      "hit": false,
      "t": 104236.3499999995,
      "d": 118.64299999999639,
      "v": 87
    },
    {
      "midi": 74,
      "hit": false,
      "t": 104236.3499999995,
      "d": 118.64299999999639,
      "v": 63
    },
    {
      "midi": 64,
      "hit": false,
      "t": 104490.5849999995,
      "d": 118.64299999999639,
      "v": 104
    },
    {
      "midi": 71,
      "hit": false,
      "t": 104490.5849999995,
      "d": 118.64299999999639,
      "v": 98
    },
    {
      "midi": 74,
      "hit": false,
      "t": 104490.5849999995,
      "d": 118.64299999999639,
      "v": 92
    },
    {
      "midi": 64,
      "hit": false,
      "t": 104744.8199999995,
      "d": 118.64299999999639,
      "v": 116
    },
    {
      "midi": 71,
      "hit": false,
      "t": 104744.8199999995,
      "d": 118.64299999999639,
      "v": 99
    },
    {
      "midi": 74,
      "hit": false,
      "t": 104744.8199999995,
      "d": 118.64299999999639,
      "v": 113
    },
    {
      "midi": 64,
      "hit": false,
      "t": 104999.0549999995,
      "d": 118.64299999999639,
      "v": 118
    },
    {
      "midi": 71,
      "hit": false,
      "t": 104999.0549999995,
      "d": 118.64299999999639,
      "v": 105
    },
    {
      "midi": 74,
      "hit": false,
      "t": 104999.0549999995,
      "d": 118.64299999999639,
      "v": 127
    },
    {
      "midi": 64,
      "hit": false,
      "t": 105253.2899999995,
      "d": 118.64299999999639,
      "v": 127
    },
    {
      "midi": 71,
      "hit": false,
      "t": 105253.2899999995,
      "d": 118.64299999999639,
      "v": 110
    },
    {
      "midi": 74,
      "hit": false,
      "t": 105253.2899999995,
      "d": 118.64299999999639,
      "v": 127
    },
    {
      "midi": 64,
      "hit": false,
      "t": 105507.5249999995,
      "d": 118.64299999999639,
      "v": 127
    },
    {
      "midi": 71,
      "hit": false,
      "t": 105507.5249999995,
      "d": 118.64299999999639,
      "v": 111
    },
    {
      "midi": 74,
      "hit": false,
      "t": 105507.5249999995,
      "d": 118.64299999999639,
      "v": 126
    },
    {
      "midi": 63,
      "hit": false,
      "t": 105761.7599999995,
      "d": 372.877999999997,
      "v": 91
    },
    {
      "midi": 71,
      "hit": false,
      "t": 105761.7599999995,
      "d": 372.877999999997,
      "v": 110
    },
    {
      "midi": 47,
      "hit": false,
      "t": 105761.7599999995,
      "d": 1771.170499999993,
      "v": 82
    },
    {
      "midi": 64,
      "hit": false,
      "t": 105761.76000000001,
      "d": 251.0570624999964,
      "v": 1
    },
    {
      "midi": 68,
      "hit": false,
      "t": 105761.76000000001,
      "d": 251.0570624999964,
      "v": 1
    },
    {
      "midi": 73,
      "hit": false,
      "t": 105761.76000000001,
      "d": 251.0570624999964,
      "v": 1
    },
    {
      "midi": 66,
      "hit": false,
      "t": 106015.9949999995,
      "d": 118.64299999999639,
      "v": 75
    },
    {
      "midi": 63,
      "hit": false,
      "t": 106015.99500000001,
      "d": 1013.7620624999981,
      "v": 1
    },
    {
      "midi": 66,
      "hit": false,
      "t": 106015.99500000001,
      "d": 1013.7620624999981,
      "v": 1
    },
    {
      "midi": 71,
      "hit": false,
      "t": 106015.99500000001,
      "d": 1013.7620624999981,
      "v": 1
    },
    {
      "midi": 59,
      "hit": false,
      "t": 106270.2299999995,
      "d": 939.6101875000022,
      "v": 65
    },
    {
      "midi": 75,
      "hit": false,
      "t": 106524.4649999995,
      "d": 754.2305000000051,
      "v": 119
    },
    {
      "midi": 78,
      "hit": false,
      "t": 106524.4649999995,
      "d": 754.2305000000051,
      "v": 110
    },
    {
      "midi": 68,
      "hit": false,
      "t": 106524.4649999995,
      "d": 881.3479999999981,
      "v": 96
    },
    {
      "midi": 54,
      "hit": false,
      "t": 107032.9349999995,
      "d": 245.76050000000396,
      "v": 62
    },
    {
      "midi": 66,
      "hit": false,
      "t": 107032.93500000001,
      "d": 251.0570624999964,
      "v": 1
    },
    {
      "midi": 56,
      "hit": false,
      "t": 107287.1699999995,
      "d": 245.7604999999894,
      "v": 62
    },
    {
      "midi": 68,
      "hit": false,
      "t": 107287.17000000001,
      "d": 505.292062499997,
      "v": 1
    },
    {
      "midi": 71,
      "hit": false,
      "t": 107287.17000000001,
      "d": 505.292062499997,
      "v": 1
    },
    {
      "midi": 54,
      "hit": false,
      "t": 107541.40499999949,
      "d": 245.76050000000396,
      "v": 64
    },
    {
      "midi": 63,
      "hit": false,
      "t": 107795.63999999949,
      "d": 245.76050000000396,
      "v": 91
    },
    {
      "midi": 71,
      "hit": false,
      "t": 107795.63999999949,
      "d": 245.76050000000396,
      "v": 114
    },
    {
      "midi": 47,
      "hit": false,
      "t": 107795.63999999949,
      "d": 1898.2880000000005,
      "v": 86
    },
    {
      "midi": 66,
      "hit": false,
      "t": 107795.64000000001,
      "d": 1267.9970624999987,
      "v": 1
    },
    {
      "midi": 71,
      "hit": false,
      "t": 107795.64000000001,
      "d": 1267.9970624999987,
      "v": 1
    },
    {
      "midi": 66,
      "hit": false,
      "t": 108049.87499999949,
      "d": 118.64299999999639,
      "v": 70
    },
    {
      "midi": 59,
      "hit": false,
      "t": 108304.10999999949,
      "d": 876.0514375000057,
      "v": 69
    },
    {
      "midi": 68,
      "hit": false,
      "t": 108558.34499999949,
      "d": 754.2305000000051,
      "v": 105
    },
    {
      "midi": 75,
      "hit": false,
      "t": 108558.34499999949,
      "d": 754.2305000000051,
      "v": 125
    },
    {
      "midi": 78,
      "hit": false,
      "t": 108558.34499999949,
      "d": 754.2305000000051,
      "v": 119
    },
    {
      "midi": 54,
      "hit": false,
      "t": 109066.8149999995,
      "d": 245.76050000000396,
      "v": 45
    },
    {
      "midi": 56,
      "hit": false,
      "t": 109321.0499999995,
      "d": 245.76050000000396,
      "v": 60
    },
    {
      "midi": 54,
      "hit": false,
      "t": 109575.2849999995,
      "d": 118.64299999999639,
      "v": 32
    },
    {
      "midi": 54,
      "hit": false,
      "t": 109829.5199999995,
      "d": 1644.0529999999999,
      "v": 107
    },
    {
      "midi": 61,
      "hit": false,
      "t": 110083.7549999995,
      "d": 1389.8179999999993,
      "v": 57
    },
    {
      "midi": 66,
      "hit": false,
      "t": 110083.75500000002,
      "d": 1776.4670624999999,
      "v": 1
    },
    {
      "midi": 70,
      "hit": false,
      "t": 110083.75500000002,
      "d": 1776.4670624999999,
      "v": 1
    },
    {
      "midi": 73,
      "hit": false,
      "t": 110083.75500000002,
      "d": 1776.4670624999999,
      "v": 1
    },
    {
      "midi": 66,
      "hit": false,
      "t": 110592.2249999995,
      "d": 754.2305000000051,
      "v": 116
    },
    {
      "midi": 70,
      "hit": false,
      "t": 110592.2249999995,
      "d": 754.2305000000051,
      "v": 118
    },
    {
      "midi": 73,
      "hit": false,
      "t": 110592.2249999995,
      "d": 754.2305000000051,
      "v": 107
    },
    {
      "midi": 64,
      "hit": false,
      "t": 110592.2249999995,
      "d": 881.3479999999981,
      "v": 110
    },
    {
      "midi": 52,
      "hit": false,
      "t": 111863.3999999995,
      "d": 1898.2880000000005,
      "v": 95
    },
    {
      "midi": 64,
      "hit": false,
      "t": 112117.6349999995,
      "d": 118.64299999999639,
      "v": 61
    },
    {
      "midi": 71,
      "hit": false,
      "t": 112117.6349999995,
      "d": 118.64299999999639,
      "v": 73
    },
    {
      "midi": 74,
      "hit": false,
      "t": 112117.6349999995,
      "d": 118.64299999999639,
      "v": 70
    },
    {
      "midi": 64,
      "hit": false,
      "t": 112117.63500000002,
      "d": 1776.4670624999999,
      "v": 1
    },
    {
      "midi": 68,
      "hit": false,
      "t": 112117.63500000002,
      "d": 1776.4670624999999,
      "v": 1
    },
    {
      "midi": 74,
      "hit": false,
      "t": 112117.63500000002,
      "d": 1776.4670624999999,
      "v": 1
    },
    {
      "midi": 64,
      "hit": false,
      "t": 112371.8699999995,
      "d": 118.64299999999639,
      "v": 80
    },
    {
      "midi": 71,
      "hit": false,
      "t": 112371.8699999995,
      "d": 118.64299999999639,
      "v": 85
    },
    {
      "midi": 74,
      "hit": false,
      "t": 112371.8699999995,
      "d": 118.64299999999639,
      "v": 70
    },
    {
      "midi": 64,
      "hit": false,
      "t": 112626.1049999995,
      "d": 118.64299999999639,
      "v": 104
    },
    {
      "midi": 71,
      "hit": false,
      "t": 112626.1049999995,
      "d": 118.64299999999639,
      "v": 98
    },
    {
      "midi": 74,
      "hit": false,
      "t": 112626.1049999995,
      "d": 118.64299999999639,
      "v": 90
    },
    {
      "midi": 64,
      "hit": false,
      "t": 112880.3399999995,
      "d": 118.64299999999639,
      "v": 112
    },
    {
      "midi": 71,
      "hit": false,
      "t": 112880.3399999995,
      "d": 118.64299999999639,
      "v": 97
    },
    {
      "midi": 74,
      "hit": false,
      "t": 112880.3399999995,
      "d": 118.64299999999639,
      "v": 113
    },
    {
      "midi": 64,
      "hit": false,
      "t": 113134.5749999995,
      "d": 118.64299999999639,
      "v": 121
    },
    {
      "midi": 71,
      "hit": false,
      "t": 113134.5749999995,
      "d": 118.64299999999639,
      "v": 103
    },
    {
      "midi": 74,
      "hit": false,
      "t": 113134.5749999995,
      "d": 118.64299999999639,
      "v": 127
    },
    {
      "midi": 64,
      "hit": false,
      "t": 113388.8099999995,
      "d": 118.64299999999639,
      "v": 127
    },
    {
      "midi": 71,
      "hit": false,
      "t": 113388.8099999995,
      "d": 118.64299999999639,
      "v": 118
    },
    {
      "midi": 74,
      "hit": false,
      "t": 113388.8099999995,
      "d": 118.64299999999639,
      "v": 127
    },
    {
      "midi": 64,
      "hit": false,
      "t": 113643.0449999995,
      "d": 118.64299999999639,
      "v": 122
    },
    {
      "midi": 71,
      "hit": false,
      "t": 113643.0449999995,
      "d": 118.64299999999639,
      "v": 118
    },
    {
      "midi": 74,
      "hit": false,
      "t": 113643.0449999995,
      "d": 118.64299999999639,
      "v": 127
    },
    {
      "midi": 63,
      "hit": false,
      "t": 113897.2799999995,
      "d": 372.877999999997,
      "v": 96
    },
    {
      "midi": 71,
      "hit": false,
      "t": 113897.2799999995,
      "d": 372.877999999997,
      "v": 110
    },
    {
      "midi": 47,
      "hit": false,
      "t": 113897.2799999995,
      "d": 1771.170499999993,
      "v": 86
    },
    {
      "midi": 64,
      "hit": false,
      "t": 113897.28000000003,
      "d": 251.0570624999964,
      "v": 1
    },
    {
      "midi": 68,
      "hit": false,
      "t": 113897.28000000003,
      "d": 251.0570624999964,
      "v": 1
    },
    {
      "midi": 73,
      "hit": false,
      "t": 113897.28000000003,
      "d": 251.0570624999964,
      "v": 1
    },
    {
      "midi": 66,
      "hit": false,
      "t": 114151.5149999995,
      "d": 118.64299999999639,
      "v": 76
    },
    {
      "midi": 63,
      "hit": false,
      "t": 114151.51500000003,
      "d": 1013.7620624999981,
      "v": 1
    },
    {
      "midi": 66,
      "hit": false,
      "t": 114151.51500000003,
      "d": 1013.7620624999981,
      "v": 1
    },
    {
      "midi": 71,
      "hit": false,
      "t": 114151.51500000003,
      "d": 1013.7620624999981,
      "v": 1
    },
    {
      "midi": 59,
      "hit": false,
      "t": 114405.7499999995,
      "d": 939.6101875000022,
      "v": 70
    },
    {
      "midi": 75,
      "hit": false,
      "t": 114659.9849999995,
      "d": 754.2305000000051,
      "v": 115
    },
    {
      "midi": 78,
      "hit": false,
      "t": 114659.9849999995,
      "d": 754.2305000000051,
      "v": 115
    },
    {
      "midi": 68,
      "hit": false,
      "t": 114659.9849999995,
      "d": 881.3479999999981,
      "v": 93
    },
    {
      "midi": 54,
      "hit": false,
      "t": 115168.4549999995,
      "d": 245.76050000000396,
      "v": 69
    },
    {
      "midi": 66,
      "hit": false,
      "t": 115168.45500000003,
      "d": 251.0570624999964,
      "v": 1
    },
    {
      "midi": 56,
      "hit": false,
      "t": 115422.68999999951,
      "d": 245.7604999999894,
      "v": 58
    },
    {
      "midi": 68,
      "hit": false,
      "t": 115422.69000000003,
      "d": 505.292062499997,
      "v": 1
    },
    {
      "midi": 71,
      "hit": false,
      "t": 115422.69000000003,
      "d": 505.292062499997,
      "v": 1
    },
    {
      "midi": 54,
      "hit": false,
      "t": 115676.9249999995,
      "d": 245.76050000000396,
      "v": 66
    },
    {
      "midi": 63,
      "hit": false,
      "t": 115931.1599999995,
      "d": 245.76050000000396,
      "v": 90
    },
    {
      "midi": 71,
      "hit": false,
      "t": 115931.1599999995,
      "d": 245.76050000000396,
      "v": 114
    },
    {
      "midi": 47,
      "hit": false,
      "t": 115931.1599999995,
      "d": 1898.2880000000005,
      "v": 86
    },
    {
      "midi": 66,
      "hit": false,
      "t": 115931.16000000003,
      "d": 1395.1145625000063,
      "v": 1
    },
    {
      "midi": 71,
      "hit": false,
      "t": 115931.16000000003,
      "d": 1395.1145625000063,
      "v": 1
    },
    {
      "midi": 66,
      "hit": false,
      "t": 116185.3949999995,
      "d": 118.64299999999639,
      "v": 67
    },
    {
      "midi": 59,
      "hit": false,
      "t": 116439.6299999995,
      "d": 876.0514375000057,
      "v": 71
    },
    {
      "midi": 68,
      "hit": false,
      "t": 116693.8649999995,
      "d": 754.2305000000051,
      "v": 104
    },
    {
      "midi": 75,
      "hit": false,
      "t": 116693.8649999995,
      "d": 754.2305000000051,
      "v": 122
    },
    {
      "midi": 78,
      "hit": false,
      "t": 116693.8649999995,
      "d": 754.2305000000051,
      "v": 116
    },
    {
      "midi": 54,
      "hit": false,
      "t": 117202.3349999995,
      "d": 245.76050000000396,
      "v": 47
    },
    {
      "midi": 56,
      "hit": false,
      "t": 117456.5699999995,
      "d": 245.76050000000396,
      "v": 52
    },
    {
      "midi": 54,
      "hit": false,
      "t": 117710.8049999995,
      "d": 118.64299999999639,
      "v": 36
    },
    {
      "midi": 54,
      "hit": false,
      "t": 117965.0399999995,
      "d": 1644.0529999999999,
      "v": 107
    },
    {
      "midi": 61,
      "hit": false,
      "t": 118219.2749999995,
      "d": 1389.8179999999993,
      "v": 52
    },
    {
      "midi": 66,
      "hit": false,
      "t": 118219.27500000004,
      "d": 1776.4670624999999,
      "v": 1
    },
    {
      "midi": 70,
      "hit": false,
      "t": 118219.27500000004,
      "d": 1776.4670624999999,
      "v": 1
    },
    {
      "midi": 73,
      "hit": false,
      "t": 118219.27500000004,
      "d": 1776.4670624999999,
      "v": 1
    },
    {
      "midi": 66,
      "hit": false,
      "t": 118727.7449999995,
      "d": 754.2305000000051,
      "v": 113
    },
    {
      "midi": 70,
      "hit": false,
      "t": 118727.7449999995,
      "d": 754.2305000000051,
      "v": 111
    },
    {
      "midi": 73,
      "hit": false,
      "t": 118727.7449999995,
      "d": 754.2305000000051,
      "v": 106
    },
    {
      "midi": 64,
      "hit": false,
      "t": 118727.7449999995,
      "d": 881.3479999999981,
      "v": 106
    },
    {
      "midi": 52,
      "hit": false,
      "t": 119998.9199999995,
      "d": 1898.2880000000005,
      "v": 95
    },
    {
      "midi": 64,
      "hit": false,
      "t": 120253.1549999995,
      "d": 118.64299999999639,
      "v": 57
    },
    {
      "midi": 71,
      "hit": false,
      "t": 120253.1549999995,
      "d": 118.64299999999639,
      "v": 67
    },
    {
      "midi": 74,
      "hit": false,
      "t": 120253.1549999995,
      "d": 118.64299999999639,
      "v": 71
    },
    {
      "midi": 64,
      "hit": false,
      "t": 120253.15500000004,
      "d": 1776.4670624999999,
      "v": 1
    },
    {
      "midi": 68,
      "hit": false,
      "t": 120253.15500000004,
      "d": 1776.4670624999999,
      "v": 1
    },
    {
      "midi": 74,
      "hit": false,
      "t": 120253.15500000004,
      "d": 1776.4670624999999,
      "v": 1
    },
    {
      "midi": 64,
      "hit": false,
      "t": 120507.3899999995,
      "d": 118.64299999999639,
      "v": 80
    },
    {
      "midi": 71,
      "hit": false,
      "t": 120507.3899999995,
      "d": 118.64299999999639,
      "v": 82
    },
    {
      "midi": 74,
      "hit": false,
      "t": 120507.3899999995,
      "d": 118.64299999999639,
      "v": 71
    },
    {
      "midi": 64,
      "hit": false,
      "t": 120761.6249999995,
      "d": 118.64299999999639,
      "v": 104
    },
    {
      "midi": 71,
      "hit": false,
      "t": 120761.6249999995,
      "d": 118.64299999999639,
      "v": 94
    },
    {
      "midi": 74,
      "hit": false,
      "t": 120761.6249999995,
      "d": 118.64299999999639,
      "v": 87
    },
    {
      "midi": 64,
      "hit": false,
      "t": 121015.8599999995,
      "d": 118.64299999999639,
      "v": 113
    },
    {
      "midi": 71,
      "hit": false,
      "t": 121015.8599999995,
      "d": 118.64299999999639,
      "v": 99
    },
    {
      "midi": 74,
      "hit": false,
      "t": 121015.8599999995,
      "d": 118.64299999999639,
      "v": 114
    },
    {
      "midi": 64,
      "hit": false,
      "t": 121270.0949999995,
      "d": 118.64299999999639,
      "v": 116
    },
    {
      "midi": 71,
      "hit": false,
      "t": 121270.0949999995,
      "d": 118.64299999999639,
      "v": 103
    },
    {
      "midi": 74,
      "hit": false,
      "t": 121270.0949999995,
      "d": 118.64299999999639,
      "v": 126
    },
    {
      "midi": 64,
      "hit": false,
      "t": 121524.3299999995,
      "d": 118.64299999999639,
      "v": 126
    },
    {
      "midi": 71,
      "hit": false,
      "t": 121524.3299999995,
      "d": 118.64299999999639,
      "v": 116
    },
    {
      "midi": 74,
      "hit": false,
      "t": 121524.3299999995,
      "d": 118.64299999999639,
      "v": 126
    },
    {
      "midi": 64,
      "hit": false,
      "t": 121778.56499999951,
      "d": 118.64299999999639,
      "v": 127
    },
    {
      "midi": 71,
      "hit": false,
      "t": 121778.56499999951,
      "d": 118.64299999999639,
      "v": 118
    },
    {
      "midi": 74,
      "hit": false,
      "t": 121778.56499999951,
      "d": 118.64299999999639,
      "v": 122
    },
    {
      "midi": 63,
      "hit": false,
      "t": 122032.79999999951,
      "d": 372.877999999997,
      "v": 91
    },
    {
      "midi": 71,
      "hit": false,
      "t": 122032.79999999951,
      "d": 372.877999999997,
      "v": 107
    },
    {
      "midi": 47,
      "hit": false,
      "t": 122032.79999999951,
      "d": 1771.170499999993,
      "v": 79
    },
    {
      "midi": 64,
      "hit": false,
      "t": 122032.80000000005,
      "d": 251.0570624999964,
      "v": 1
    },
    {
      "midi": 68,
      "hit": false,
      "t": 122032.80000000005,
      "d": 251.0570624999964,
      "v": 1
    },
    {
      "midi": 73,
      "hit": false,
      "t": 122032.80000000005,
      "d": 251.0570624999964,
      "v": 1
    },
    {
      "midi": 66,
      "hit": false,
      "t": 122287.03499999951,
      "d": 118.64299999999639,
      "v": 75
    },
    {
      "midi": 63,
      "hit": false,
      "t": 122287.03500000005,
      "d": 1013.7620624999981,
      "v": 1
    },
    {
      "midi": 66,
      "hit": false,
      "t": 122287.03500000005,
      "d": 1013.7620624999981,
      "v": 1
    },
    {
      "midi": 71,
      "hit": false,
      "t": 122287.03500000005,
      "d": 1013.7620624999981,
      "v": 1
    },
    {
      "midi": 59,
      "hit": false,
      "t": 122541.26999999951,
      "d": 939.6101875000022,
      "v": 69
    },
    {
      "midi": 75,
      "hit": false,
      "t": 122795.50499999951,
      "d": 754.2305000000051,
      "v": 120
    },
    {
      "midi": 78,
      "hit": false,
      "t": 122795.50499999951,
      "d": 754.2305000000051,
      "v": 116
    },
    {
      "midi": 68,
      "hit": false,
      "t": 122795.50499999951,
      "d": 881.3479999999981,
      "v": 100
    },
    {
      "midi": 54,
      "hit": false,
      "t": 123303.97499999951,
      "d": 245.76050000000396,
      "v": 66
    },
    {
      "midi": 66,
      "hit": false,
      "t": 123303.97500000005,
      "d": 251.0570624999964,
      "v": 1
    },
    {
      "midi": 56,
      "hit": false,
      "t": 123558.20999999951,
      "d": 245.7604999999894,
      "v": 58
    },
    {
      "midi": 68,
      "hit": false,
      "t": 123558.21000000005,
      "d": 505.292062499997,
      "v": 1
    },
    {
      "midi": 71,
      "hit": false,
      "t": 123558.21000000005,
      "d": 505.292062499997,
      "v": 1
    },
    {
      "midi": 54,
      "hit": false,
      "t": 123812.4449999995,
      "d": 245.76050000000396,
      "v": 59
    },
    {
      "midi": 63,
      "hit": false,
      "t": 124066.6799999995,
      "d": 245.76050000000396,
      "v": 92
    },
    {
      "midi": 71,
      "hit": false,
      "t": 124066.6799999995,
      "d": 245.76050000000396,
      "v": 106
    },
    {
      "midi": 47,
      "hit": false,
      "t": 124066.6799999995,
      "d": 1898.2880000000005,
      "v": 85
    },
    {
      "midi": 66,
      "hit": false,
      "t": 124066.68000000005,
      "d": 1267.9970624999987,
      "v": 1
    },
    {
      "midi": 71,
      "hit": false,
      "t": 124066.68000000005,
      "d": 1267.9970624999987,
      "v": 1
    },
    {
      "midi": 66,
      "hit": false,
      "t": 124320.9149999995,
      "d": 118.64299999999639,
      "v": 64
    },
    {
      "midi": 59,
      "hit": false,
      "t": 124575.1499999995,
      "d": 876.0514375000057,
      "v": 70
    },
    {
      "midi": 68,
      "hit": false,
      "t": 124829.3849999995,
      "d": 754.2305000000051,
      "v": 105
    },
    {
      "midi": 75,
      "hit": false,
      "t": 124829.3849999995,
      "d": 754.2305000000051,
      "v": 121
    },
    {
      "midi": 78,
      "hit": false,
      "t": 124829.3849999995,
      "d": 754.2305000000051,
      "v": 121
    },
    {
      "midi": 54,
      "hit": false,
      "t": 125337.8549999995,
      "d": 245.76050000000396,
      "v": 45
    },
    {
      "midi": 56,
      "hit": false,
      "t": 125592.0899999995,
      "d": 245.76050000000396,
      "v": 57
    },
    {
      "midi": 54,
      "hit": false,
      "t": 125846.3249999995,
      "d": 118.64299999999639,
      "v": 36
    },
    {
      "midi": 54,
      "hit": false,
      "t": 126100.5599999995,
      "d": 1644.0529999999999,
      "v": 102
    },
    {
      "midi": 61,
      "hit": false,
      "t": 126354.7949999995,
      "d": 1389.8179999999993,
      "v": 56
    },
    {
      "midi": 66,
      "hit": false,
      "t": 126354.79500000006,
      "d": 1776.4670624999999,
      "v": 1
    },
    {
      "midi": 70,
      "hit": false,
      "t": 126354.79500000006,
      "d": 1776.4670624999999,
      "v": 1
    },
    {
      "midi": 73,
      "hit": false,
      "t": 126354.79500000006,
      "d": 1776.4670624999999,
      "v": 1
    },
    {
      "midi": 66,
      "hit": false,
      "t": 126863.2649999995,
      "d": 754.2305000000051,
      "v": 115
    },
    {
      "midi": 70,
      "hit": false,
      "t": 126863.2649999995,
      "d": 754.2305000000051,
      "v": 116
    },
    {
      "midi": 73,
      "hit": false,
      "t": 126863.2649999995,
      "d": 754.2305000000051,
      "v": 112
    },
    {
      "midi": 64,
      "hit": false,
      "t": 126863.2649999995,
      "d": 881.3479999999981,
      "v": 105
    },
    {
      "midi": 52,
      "hit": false,
      "t": 128134.43999999951,
      "d": 1898.2880000000005,
      "v": 96
    },
    {
      "midi": 64,
      "hit": false,
      "t": 128388.67499999951,
      "d": 118.64299999999639,
      "v": 59
    },
    {
      "midi": 71,
      "hit": false,
      "t": 128388.67499999951,
      "d": 118.64299999999639,
      "v": 69
    },
    {
      "midi": 74,
      "hit": false,
      "t": 128388.67499999951,
      "d": 118.64299999999639,
      "v": 72
    },
    {
      "midi": 64,
      "hit": false,
      "t": 128388.67500000006,
      "d": 1776.4670624999999,
      "v": 1
    },
    {
      "midi": 68,
      "hit": false,
      "t": 128388.67500000006,
      "d": 1776.4670624999999,
      "v": 1
    },
    {
      "midi": 74,
      "hit": false,
      "t": 128388.67500000006,
      "d": 1776.4670624999999,
      "v": 1
    },
    {
      "midi": 64,
      "hit": false,
      "t": 128642.90999999951,
      "d": 118.64299999999639,
      "v": 89
    },
    {
      "midi": 71,
      "hit": false,
      "t": 128642.90999999951,
      "d": 118.64299999999639,
      "v": 81
    },
    {
      "midi": 74,
      "hit": false,
      "t": 128642.90999999951,
      "d": 118.64299999999639,
      "v": 63
    },
    {
      "midi": 64,
      "hit": false,
      "t": 128897.14499999951,
      "d": 118.64299999999639,
      "v": 99
    },
    {
      "midi": 71,
      "hit": false,
      "t": 128897.14499999951,
      "d": 118.64299999999639,
      "v": 103
    },
    {
      "midi": 74,
      "hit": false,
      "t": 128897.14499999951,
      "d": 118.64299999999639,
      "v": 87
    },
    {
      "midi": 64,
      "hit": false,
      "t": 129151.37999999951,
      "d": 118.64299999999639,
      "v": 117
    },
    {
      "midi": 71,
      "hit": false,
      "t": 129151.37999999951,
      "d": 118.64299999999639,
      "v": 105
    },
    {
      "midi": 74,
      "hit": false,
      "t": 129151.37999999951,
      "d": 118.64299999999639,
      "v": 114
    },
    {
      "midi": 64,
      "hit": false,
      "t": 129405.61499999951,
      "d": 118.64299999999639,
      "v": 118
    },
    {
      "midi": 71,
      "hit": false,
      "t": 129405.61499999951,
      "d": 118.64299999999639,
      "v": 109
    },
    {
      "midi": 74,
      "hit": false,
      "t": 129405.61499999951,
      "d": 118.64299999999639,
      "v": 127
    },
    {
      "midi": 64,
      "hit": false,
      "t": 129659.84999999951,
      "d": 118.64299999999639,
      "v": 125
    },
    {
      "midi": 71,
      "hit": false,
      "t": 129659.84999999951,
      "d": 118.64299999999639,
      "v": 118
    },
    {
      "midi": 74,
      "hit": false,
      "t": 129659.84999999951,
      "d": 118.64299999999639,
      "v": 127
    },
    {
      "midi": 64,
      "hit": false,
      "t": 129914.08499999951,
      "d": 118.64299999999639,
      "v": 127
    },
    {
      "midi": 71,
      "hit": false,
      "t": 129914.08499999951,
      "d": 118.64299999999639,
      "v": 110
    },
    {
      "midi": 74,
      "hit": false,
      "t": 129914.08499999951,
      "d": 118.64299999999639,
      "v": 127
    },
    {
      "midi": 63,
      "hit": false,
      "t": 130168.31999999951,
      "d": 812.4926874999946,
      "v": 90
    },
    {
      "midi": 66,
      "hit": false,
      "t": 130168.31999999951,
      "d": 939.6101874999877,
      "v": 81
    },
    {
      "midi": 71,
      "hit": false,
      "t": 130168.31999999951,
      "d": 1003.1689374999842,
      "v": 109
    },
    {
      "midi": 47,
      "hit": false,
      "t": 130168.31999999951,
      "d": 1771.1704999999783,
      "v": 85
    },
    {
      "midi": 64,
      "hit": false,
      "t": 130168.32000000007,
      "d": 251.0570624999964,
      "v": 1
    },
    {
      "midi": 68,
      "hit": false,
      "t": 130168.32000000007,
      "d": 251.0570624999964,
      "v": 1
    },
    {
      "midi": 73,
      "hit": false,
      "t": 130168.32000000007,
      "d": 251.0570624999964,
      "v": 1
    },
    {
      "midi": 63,
      "hit": false,
      "t": 130422.55500000007,
      "d": 1013.7620625000127,
      "v": 1
    },
    {
      "midi": 66,
      "hit": false,
      "t": 130422.55500000007,
      "d": 1013.7620625000127,
      "v": 1
    },
    {
      "midi": 71,
      "hit": false,
      "t": 130422.55500000007,
      "d": 1013.7620625000127,
      "v": 1
    },
    {
      "midi": 66,
      "hit": false,
      "t": 131439.49500000008,
      "d": 251.05706250001094,
      "v": 1
    },
    {
      "midi": 68,
      "hit": false,
      "t": 131693.7300000001,
      "d": 505.292062499997,
      "v": 1
    },
    {
      "midi": 71,
      "hit": false,
      "t": 131693.7300000001,
      "d": 505.292062499997,
      "v": 1
    },
    {
      "midi": 66,
      "hit": false,
      "t": 132202.2000000001,
      "d": 1395.1145625000063,
      "v": 1
    },
    {
      "midi": 71,
      "hit": false,
      "t": 132202.2000000001,
      "d": 1395.1145625000063,
      "v": 1
    }
  ]
}