{
  "jsonPath": "Rock/Soft Rock/KC  The Sunshine Band/thats-the-way-i-like-it.json",
  "path": "Rock\\Soft Rock\\KC  The Sunshine Band\\Thats The Way (I Like It).mid",
  "name": "Thats The Way (I Like It)",
  "difficulty": "Intermediate",
  "bpm": 112.00005973336519,
  "notes": [
    {
      "midi": 72,
      "hit": false,
      "t": 2142.856,
      "d": 1668.5258958333334,
      "v": 78
    },
    {
      "midi": 63,
      "hit": false,
      "t": 2142.856,
      "d": 1735.4901458333334,
      "v": 90
    },
    {
      "midi": 67,
      "hit": false,
      "t": 2142.856,
      "d": 1735.4901458333334,
      "v": 82
    },
    {
      "midi": 72,
      "hit": false,
      "t": 4285.712,
      "d": 1741.0704999999998,
      "v": 74
    },
    {
      "midi": 67,
      "hit": false,
      "t": 4285.712,
      "d": 1763.3919166666665,
      "v": 78
    },
    {
      "midi": 63,
      "hit": false,
      "t": 4285.712,
      "d": 1808.0347499999998,
      "v": 90
    },
    {
      "midi": 72,
      "hit": false,
      "t": 6428.568,
      "d": 1757.8115625,
      "v": 78
    },
    {
      "midi": 63,
      "hit": false,
      "t": 6428.568,
      "d": 1802.4543958333334,
      "v": 94
    },
    {
      "midi": 67,
      "hit": false,
      "t": 6428.568,
      "d": 1808.0347499999998,
      "v": 82
    },
    {
      "midi": 72,
      "hit": false,
      "t": 8571.424,
      "d": 1785.7133333333331,
      "v": 78
    },
    {
      "midi": 67,
      "hit": false,
      "t": 8571.424,
      "d": 1852.677583333334,
      "v": 82
    },
    {
      "midi": 63,
      "hit": false,
      "t": 8571.424,
      "d": 1897.3204166666674,
      "v": 94
    },
    {
      "midi": 72,
      "hit": false,
      "t": 10714.280000000002,
      "d": 1805.2445729166666,
      "v": 78
    },
    {
      "midi": 63,
      "hit": false,
      "t": 10714.280000000002,
      "d": 1849.88740625,
      "v": 94
    },
    {
      "midi": 67,
      "hit": false,
      "t": 10714.280000000002,
      "d": 1849.88740625,
      "v": 78
    },
    {
      "midi": 72,
      "hit": false,
      "t": 12854.34582291667,
      "d": 1830.3561666666665,
      "v": 74
    },
    {
      "midi": 63,
      "hit": false,
      "t": 12854.34582291667,
      "d": 1874.9989999999998,
      "v": 90
    },
    {
      "midi": 67,
      "hit": false,
      "t": 12854.34582291667,
      "d": 1874.9989999999998,
      "v": 78
    },
    {
      "midi": 72,
      "hit": false,
      "t": 14997.20182291667,
      "d": 1852.6775833333322,
      "v": 82
    },
    {
      "midi": 67,
      "hit": false,
      "t": 14997.20182291667,
      "d": 1897.3204166666674,
      "v": 82
    },
    {
      "midi": 63,
      "hit": false,
      "t": 14997.20182291667,
      "d": 1919.6418333333331,
      "v": 94
    },
    {
      "midi": 72,
      "hit": false,
      "t": 17140.05782291667,
      "d": 1941.9632500000007,
      "v": 82
    },
    {
      "midi": 67,
      "hit": false,
      "t": 17140.05782291667,
      "d": 2008.9275000000016,
      "v": 86
    },
    {
      "midi": 63,
      "hit": false,
      "t": 17140.05782291667,
      "d": 2031.2489166666674,
      "v": 94
    },
    {
      "midi": 55,
      "hit": false,
      "t": 19818.62782291667,
      "d": 401.7855000000018,
      "v": 66
    },
    {
      "midi": 60,
      "hit": false,
      "t": 19818.62782291667,
      "d": 424.10691666666753,
      "v": 70
    },
    {
      "midi": 63,
      "hit": false,
      "t": 19818.62782291667,
      "d": 468.7497500000027,
      "v": 70
    },
    {
      "midi": 72,
      "hit": false,
      "t": 20890.055822916675,
      "d": 446.4283333333333,
      "v": 74
    },
    {
      "midi": 67,
      "hit": false,
      "t": 20890.055822916675,
      "d": 468.74974999999904,
      "v": 74
    },
    {
      "midi": 63,
      "hit": false,
      "t": 20890.055822916675,
      "d": 491.0711666666648,
      "v": 82
    },
    {
      "midi": 55,
      "hit": false,
      "t": 21961.483822916674,
      "d": 424.10691666666753,
      "v": 74
    },
    {
      "midi": 60,
      "hit": false,
      "t": 21961.483822916674,
      "d": 446.4283333333333,
      "v": 74
    },
    {
      "midi": 63,
      "hit": false,
      "t": 21961.483822916674,
      "d": 468.74974999999904,
      "v": 78
    },
    {
      "midi": 72,
      "hit": false,
      "t": 23032.911822916674,
      "d": 446.4283333333333,
      "v": 74
    },
    {
      "midi": 67,
      "hit": false,
      "t": 23032.911822916674,
      "d": 468.74974999999904,
      "v": 74
    },
    {
      "midi": 63,
      "hit": false,
      "t": 23032.911822916674,
      "d": 491.0711666666648,
      "v": 82
    },
    {
      "midi": 55,
      "hit": false,
      "t": 24104.339822916674,
      "d": 379.4640833333324,
      "v": 70
    },
    {
      "midi": 60,
      "hit": false,
      "t": 24104.339822916674,
      "d": 424.10691666666753,
      "v": 78
    },
    {
      "midi": 63,
      "hit": false,
      "t": 24104.339822916674,
      "d": 424.10691666666753,
      "v": 78
    },
    {
      "midi": 72,
      "hit": false,
      "t": 25175.767822916674,
      "d": 468.74974999999904,
      "v": 78
    },
    {
      "midi": 67,
      "hit": false,
      "t": 25175.767822916674,
      "d": 491.0711666666648,
      "v": 74
    },
    {
      "midi": 63,
      "hit": false,
      "t": 25175.767822916674,
      "d": 513.3925833333305,
      "v": 86
    },
    {
      "midi": 55,
      "hit": false,
      "t": 26247.19582291667,
      "d": 379.4640833333324,
      "v": 78
    },
    {
      "midi": 60,
      "hit": false,
      "t": 26247.19582291667,
      "d": 424.10691666666753,
      "v": 78
    },
    {
      "midi": 63,
      "hit": false,
      "t": 26247.19582291667,
      "d": 446.4283333333333,
      "v": 78
    },
    {
      "midi": 72,
      "hit": false,
      "t": 27318.62382291667,
      "d": 446.4283333333333,
      "v": 82
    },
    {
      "midi": 67,
      "hit": false,
      "t": 27318.62382291667,
      "d": 468.74974999999904,
      "v": 82
    },
    {
      "midi": 63,
      "hit": false,
      "t": 27318.62382291667,
      "d": 513.3925833333342,
      "v": 86
    },
    {
      "midi": 55,
      "hit": false,
      "t": 28390.05182291667,
      "d": 398.99532291666765,
      "v": 70
    },
    {
      "midi": 60,
      "hit": false,
      "t": 28390.05182291667,
      "d": 421.3167395833334,
      "v": 78
    },
    {
      "midi": 63,
      "hit": false,
      "t": 28390.05182291667,
      "d": 443.63815624999916,
      "v": 78
    },
    {
      "midi": 72,
      "hit": false,
      "t": 29461.47982291667,
      "d": 379.4640833333324,
      "v": 78
    },
    {
      "midi": 67,
      "hit": false,
      "t": 29461.47982291667,
      "d": 401.78549999999814,
      "v": 74
    },
    {
      "midi": 63,
      "hit": false,
      "t": 29461.47982291667,
      "d": 446.4283333333333,
      "v": 82
    },
    {
      "midi": 55,
      "hit": false,
      "t": 30532.90782291667,
      "d": 424.10691666666753,
      "v": 74
    },
    {
      "midi": 60,
      "hit": false,
      "t": 30532.90782291667,
      "d": 446.4283333333333,
      "v": 78
    },
    {
      "midi": 63,
      "hit": false,
      "t": 30532.90782291667,
      "d": 446.4283333333333,
      "v": 78
    },
    {
      "midi": 72,
      "hit": false,
      "t": 31604.33582291667,
      "d": 379.4640833333324,
      "v": 78
    },
    {
      "midi": 67,
      "hit": false,
      "t": 31604.33582291667,
      "d": 446.4283333333333,
      "v": 70
    },
    {
      "midi": 63,
      "hit": false,
      "t": 31604.33582291667,
      "d": 468.74974999999904,
      "v": 82
    },
    {
      "midi": 55,
      "hit": false,
      "t": 32675.76382291667,
      "d": 468.7497500000027,
      "v": 74
    },
    {
      "midi": 60,
      "hit": false,
      "t": 32675.76382291667,
      "d": 491.07116666666843,
      "v": 78
    },
    {
      "midi": 63,
      "hit": false,
      "t": 32675.76382291667,
      "d": 513.3925833333342,
      "v": 74
    },
    {
      "midi": 67,
      "hit": false,
      "t": 33747.19182291667,
      "d": 491.07116666666843,
      "v": 74
    },
    {
      "midi": 72,
      "hit": false,
      "t": 33747.19182291667,
      "d": 491.07116666666843,
      "v": 74
    },
    {
      "midi": 63,
      "hit": false,
      "t": 33747.19182291667,
      "d": 535.7139999999999,
      "v": 78
    },
    {
      "midi": 55,
      "hit": false,
      "t": 34818.61982291667,
      "d": 446.4283333333369,
      "v": 74
    },
    {
      "midi": 60,
      "hit": false,
      "t": 34818.61982291667,
      "d": 468.7497500000027,
      "v": 78
    },
    {
      "midi": 63,
      "hit": false,
      "t": 34818.61982291667,
      "d": 513.3925833333342,
      "v": 78
    },
    {
      "midi": 63,
      "hit": false,
      "t": 35890.04782291667,
      "d": 401.78549999999814,
      "v": 86
    },
    {
      "midi": 67,
      "hit": false,
      "t": 35890.04782291667,
      "d": 401.78549999999814,
      "v": 78
    },
    {
      "midi": 72,
      "hit": false,
      "t": 35890.04782291667,
      "d": 401.78549999999814,
      "v": 82
    },
    {
      "midi": 68,
      "hit": false,
      "t": 36425.76182291667,
      "d": 1537.3875729166684,
      "v": 74
    },
    {
      "midi": 77,
      "hit": false,
      "t": 36425.76182291667,
      "d": 1540.1777500000026,
      "v": 70
    },
    {
      "midi": 75,
      "hit": false,
      "t": 36425.76182291667,
      "d": 1607.1419999999998,
      "v": 74
    },
    {
      "midi": 72,
      "hit": false,
      "t": 36425.76182291667,
      "d": 1651.7848333333313,
      "v": 70
    },
    {
      "midi": 68,
      "hit": false,
      "t": 38568.61782291667,
      "d": 1629.4634166666656,
      "v": 70
    },
    {
      "midi": 77,
      "hit": false,
      "t": 38568.61782291667,
      "d": 1651.7848333333313,
      "v": 62
    },
    {
      "midi": 75,
      "hit": false,
      "t": 38568.61782291667,
      "d": 1696.4276666666628,
      "v": 70
    },
    {
      "midi": 72,
      "hit": false,
      "t": 38568.61782291667,
      "d": 1718.7490833333286,
      "v": 70
    },
    {
      "midi": 77,
      "hit": false,
      "t": 40711.47382291666,
      "d": 1651.7848333333313,
      "v": 58
    },
    {
      "midi": 68,
      "hit": false,
      "t": 40711.47382291666,
      "d": 1674.106249999997,
      "v": 74
    },
    {
      "midi": 75,
      "hit": false,
      "t": 40711.47382291666,
      "d": 1696.4276666666628,
      "v": 74
    },
    {
      "midi": 72,
      "hit": false,
      "t": 40711.47382291666,
      "d": 1718.7490833333286,
      "v": 74
    },
    {
      "midi": 77,
      "hit": false,
      "t": 42854.329822916654,
      "d": 1696.4276666666701,
      "v": 58
    },
    {
      "midi": 68,
      "hit": false,
      "t": 42854.329822916654,
      "d": 1741.0705000000016,
      "v": 74
    },
    {
      "midi": 72,
      "hit": false,
      "t": 42854.329822916654,
      "d": 1741.0705000000016,
      "v": 74
    },
    {
      "midi": 75,
      "hit": false,
      "t": 42854.329822916654,
      "d": 1763.3919166666674,
      "v": 74
    },
    {
      "midi": 77,
      "hit": false,
      "t": 44997.185822916654,
      "d": 1741.0705000000016,
      "v": 58
    },
    {
      "midi": 68,
      "hit": false,
      "t": 44997.185822916654,
      "d": 1785.7133333333331,
      "v": 82
    },
    {
      "midi": 72,
      "hit": false,
      "t": 44997.185822916654,
      "d": 1830.3561666666646,
      "v": 74
    },
    {
      "midi": 75,
      "hit": false,
      "t": 44997.185822916654,
      "d": 1830.3561666666646,
      "v": 74
    },
    {
      "midi": 77,
      "hit": false,
      "t": 47140.04182291665,
      "d": 1763.3919166666674,
      "v": 54
    },
    {
      "midi": 68,
      "hit": false,
      "t": 47140.04182291665,
      "d": 1830.3561666666646,
      "v": 82
    },
    {
      "midi": 72,
      "hit": false,
      "t": 47140.04182291665,
      "d": 1852.6775833333304,
      "v": 78
    },
    {
      "midi": 75,
      "hit": false,
      "t": 47140.04182291665,
      "d": 1852.6775833333304,
      "v": 78
    },
    {
      "midi": 77,
      "hit": false,
      "t": 49282.89782291665,
      "d": 1810.824927083333,
      "v": 58
    },
    {
      "midi": 68,
      "hit": false,
      "t": 49282.89782291665,
      "d": 1900.1105937500033,
      "v": 70
    },
    {
      "midi": 75,
      "hit": false,
      "t": 49282.89782291665,
      "d": 1900.1105937500033,
      "v": 74
    },
    {
      "midi": 72,
      "hit": false,
      "t": 49282.89782291665,
      "d": 1922.432010416669,
      "v": 70
    },
    {
      "midi": 68,
      "hit": false,
      "t": 51428.54399999999,
      "d": 2008.927499999998,
      "v": 74
    },
    {
      "midi": 72,
      "hit": false,
      "t": 51428.54399999999,
      "d": 2008.927499999998,
      "v": 74
    },
    {
      "midi": 77,
      "hit": false,
      "t": 51428.54399999999,
      "d": 2008.927499999998,
      "v": 58
    },
    {
      "midi": 75,
      "hit": false,
      "t": 51428.54399999999,
      "d": 2031.2489166666637,
      "v": 74
    },
    {
      "midi": 55,
      "hit": false,
      "t": 54107.11399999999,
      "d": 401.78549999999814,
      "v": 66
    },
    {
      "midi": 60,
      "hit": false,
      "t": 54107.11399999999,
      "d": 424.1069166666639,
      "v": 70
    },
    {
      "midi": 63,
      "hit": false,
      "t": 54107.11399999999,
      "d": 468.7497499999954,
      "v": 70
    },
    {
      "midi": 67,
      "hit": false,
      "t": 55178.54199999998,
      "d": 446.4283333333369,
      "v": 74
    },
    {
      "midi": 72,
      "hit": false,
      "t": 55178.54199999998,
      "d": 446.4283333333369,
      "v": 74
    },
    {
      "midi": 63,
      "hit": false,
      "t": 55178.54199999998,
      "d": 491.07116666666843,
      "v": 82
    },
    {
      "midi": 55,
      "hit": false,
      "t": 56249.96999999998,
      "d": 424.1069166666639,
      "v": 74
    },
    {
      "midi": 60,
      "hit": false,
      "t": 56249.96999999998,
      "d": 446.42833333332965,
      "v": 74
    },
    {
      "midi": 63,
      "hit": false,
      "t": 56249.96999999998,
      "d": 468.7497499999954,
      "v": 78
    },
    {
      "midi": 72,
      "hit": false,
      "t": 57321.39799999997,
      "d": 424.1069166666639,
      "v": 74
    },
    {
      "midi": 67,
      "hit": false,
      "t": 57321.39799999997,
      "d": 468.7497499999954,
      "v": 74
    },
    {
      "midi": 63,
      "hit": false,
      "t": 57321.39799999997,
      "d": 491.07116666666116,
      "v": 82
    },
    {
      "midi": 55,
      "hit": false,
      "t": 58392.825999999965,
      "d": 396.2051458333299,
      "v": 70
    },
    {
      "midi": 63,
      "hit": false,
      "t": 58392.825999999965,
      "d": 440.8479791666614,
      "v": 78
    },
    {
      "midi": 60,
      "hit": false,
      "t": 58392.825999999965,
      "d": 446.42833333332965,
      "v": 78
    },
    {
      "midi": 72,
      "hit": false,
      "t": 59464.253999999964,
      "d": 468.7497500000027,
      "v": 78
    },
    {
      "midi": 67,
      "hit": false,
      "t": 59464.253999999964,
      "d": 491.07116666666843,
      "v": 74
    },
    {
      "midi": 63,
      "hit": false,
      "t": 59464.253999999964,
      "d": 513.3925833333342,
      "v": 86
    },
    {
      "midi": 55,
      "hit": false,
      "t": 60535.681999999964,
      "d": 379.4640833333324,
      "v": 78
    },
    {
      "midi": 60,
      "hit": false,
      "t": 60535.681999999964,
      "d": 401.78549999999814,
      "v": 78
    },
    {
      "midi": 63,
      "hit": false,
      "t": 60535.681999999964,
      "d": 424.1069166666639,
      "v": 78
    },
    {
      "midi": 72,
      "hit": false,
      "t": 61607.109999999964,
      "d": 446.4283333333369,
      "v": 82
    },
    {
      "midi": 67,
      "hit": false,
      "t": 61607.109999999964,
      "d": 468.7497500000027,
      "v": 82
    },
    {
      "midi": 63,
      "hit": false,
      "t": 61607.109999999964,
      "d": 513.3925833333342,
      "v": 86
    },
    {
      "midi": 55,
      "hit": false,
      "t": 62678.537999999964,
      "d": 379.4640833333324,
      "v": 70
    },
    {
      "midi": 60,
      "hit": false,
      "t": 62678.537999999964,
      "d": 418.52656249999563,
      "v": 78
    },
    {
      "midi": 63,
      "hit": false,
      "t": 62678.537999999964,
      "d": 440.8479791666614,
      "v": 78
    },
    {
      "midi": 72,
      "hit": false,
      "t": 63749.96599999996,
      "d": 379.4640833333324,
      "v": 78
    },
    {
      "midi": 67,
      "hit": false,
      "t": 63749.96599999996,
      "d": 401.78549999999814,
      "v": 74
    },
    {
      "midi": 63,
      "hit": false,
      "t": 63749.96599999996,
      "d": 446.42833333332965,
      "v": 82
    },
    {
      "midi": 55,
      "hit": false,
      "t": 64821.39399999996,
      "d": 424.1069166666639,
      "v": 74
    },
    {
      "midi": 60,
      "hit": false,
      "t": 64821.39399999996,
      "d": 446.42833333332965,
      "v": 78
    },
    {
      "midi": 63,
      "hit": false,
      "t": 64821.39399999996,
      "d": 446.42833333332965,
      "v": 78
    },
    {
      "midi": 72,
      "hit": false,
      "t": 65892.82199999996,
      "d": 379.46408333333966,
      "v": 78
    },
    {
      "midi": 67,
      "hit": false,
      "t": 65892.82199999996,
      "d": 446.4283333333442,
      "v": 70
    },
    {
      "midi": 63,
      "hit": false,
      "t": 65892.82199999996,
      "d": 468.74975000001723,
      "v": 82
    },
    {
      "midi": 55,
      "hit": false,
      "t": 66964.24999999997,
      "d": 468.7497500000027,
      "v": 74
    },
    {
      "midi": 60,
      "hit": false,
      "t": 66964.24999999997,
      "d": 491.0711666666757,
      "v": 78
    },
    {
      "midi": 63,
      "hit": false,
      "t": 66964.24999999997,
      "d": 491.0711666666757,
      "v": 74
    },
    {
      "midi": 67,
      "hit": false,
      "t": 68035.67799999999,
      "d": 491.07116666666116,
      "v": 74
    },
    {
      "midi": 72,
      "hit": false,
      "t": 68035.67799999999,
      "d": 491.07116666666116,
      "v": 74
    },
    {
      "midi": 63,
      "hit": false,
      "t": 68035.67799999999,
      "d": 535.7139999999927,
      "v": 78
    },
    {
      "midi": 55,
      "hit": false,
      "t": 69107.10599999999,
      "d": 446.42833333332965,
      "v": 74
    },
    {
      "midi": 60,
      "hit": false,
      "t": 69107.10599999999,
      "d": 468.7497500000027,
      "v": 78
    },
    {
      "midi": 63,
      "hit": false,
      "t": 69107.10599999999,
      "d": 491.0711666666757,
      "v": 78
    },
    {
      "midi": 63,
      "hit": false,
      "t": 70178.534,
      "d": 401.78549999999814,
      "v": 86
    },
    {
      "midi": 67,
      "hit": false,
      "t": 70178.534,
      "d": 401.78549999999814,
      "v": 78
    },
    {
      "midi": 72,
      "hit": false,
      "t": 70178.534,
      "d": 401.78549999999814,
      "v": 82
    },
    {
      "midi": 68,
      "hit": false,
      "t": 70714.24799999999,
      "d": 1534.5973958333343,
      "v": 74
    },
    {
      "midi": 77,
      "hit": false,
      "t": 70714.24799999999,
      "d": 1540.1777500000026,
      "v": 70
    },
    {
      "midi": 75,
      "hit": false,
      "t": 70714.24799999999,
      "d": 1601.5616458333388,
      "v": 74
    },
    {
      "midi": 72,
      "hit": false,
      "t": 70714.24799999999,
      "d": 1651.7848333333386,
      "v": 70
    },
    {
      "midi": 68,
      "hit": false,
      "t": 72857.10399999999,
      "d": 1629.4634166666656,
      "v": 70
    },
    {
      "midi": 77,
      "hit": false,
      "t": 72857.10399999999,
      "d": 1651.7848333333386,
      "v": 62
    },
    {
      "midi": 72,
      "hit": false,
      "t": 72857.10399999999,
      "d": 1696.4276666666701,
      "v": 70
    },
    {
      "midi": 75,
      "hit": false,
      "t": 72857.10399999999,
      "d": 1696.4276666666701,
      "v": 70
    },
    {
      "midi": 77,
      "hit": false,
      "t": 74999.95999999999,
      "d": 1651.7848333333386,
      "v": 58
    },
    {
      "midi": 68,
      "hit": false,
      "t": 74999.95999999999,
      "d": 1674.1062500000116,
      "v": 74
    },
    {
      "midi": 75,
      "hit": false,
      "t": 74999.95999999999,
      "d": 1696.4276666666847,
      "v": 74
    },
    {
      "midi": 72,
      "hit": false,
      "t": 74999.95999999999,
      "d": 1718.7490833333577,
      "v": 74
    },
    {
      "midi": 77,
      "hit": false,
      "t": 77142.81600000002,
      "d": 1696.4276666666701,
      "v": 58
    },
    {
      "midi": 68,
      "hit": false,
      "t": 77142.81600000002,
      "d": 1718.7490833333432,
      "v": 74
    },
    {
      "midi": 72,
      "hit": false,
      "t": 77142.81600000002,
      "d": 1741.0705000000162,
      "v": 74
    },
    {
      "midi": 75,
      "hit": false,
      "t": 77142.81600000002,
      "d": 1763.3919166666892,
      "v": 74
    },
    {
      "midi": 77,
      "hit": false,
      "t": 79285.67200000005,
      "d": 1741.0705000000016,
      "v": 58
    },
    {
      "midi": 68,
      "hit": false,
      "t": 79285.67200000005,
      "d": 1785.7133333333331,
      "v": 82
    },
    {
      "midi": 72,
      "hit": false,
      "t": 79285.67200000005,
      "d": 1830.3561666666646,
      "v": 74
    },
    {
      "midi": 75,
      "hit": false,
      "t": 79285.67200000005,
      "d": 1830.3561666666646,
      "v": 74
    },
    {
      "midi": 77,
      "hit": false,
      "t": 81428.52800000005,
      "d": 1763.39191666666,
      "v": 54
    },
    {
      "midi": 68,
      "hit": false,
      "t": 81428.52800000005,
      "d": 1830.3561666666646,
      "v": 82
    },
    {
      "midi": 72,
      "hit": false,
      "t": 81428.52800000005,
      "d": 1852.6775833333377,
      "v": 78
    },
    {
      "midi": 75,
      "hit": false,
      "t": 81428.52800000005,
      "d": 1852.6775833333377,
      "v": 78
    },
    {
      "midi": 77,
      "hit": false,
      "t": 83571.38400000005,
      "d": 1808.0347500000062,
      "v": 58
    },
    {
      "midi": 68,
      "hit": false,
      "t": 83571.38400000005,
      "d": 1897.3204166666692,
      "v": 70
    },
    {
      "midi": 75,
      "hit": false,
      "t": 83571.38400000005,
      "d": 1897.3204166666692,
      "v": 74
    },
    {
      "midi": 72,
      "hit": false,
      "t": 83571.38400000005,
      "d": 1919.6418333333422,
      "v": 70
    },
    {
      "midi": 68,
      "hit": false,
      "t": 85714.24000000006,
      "d": 2008.9275000000052,
      "v": 74
    },
    {
      "midi": 72,
      "hit": false,
      "t": 85714.24000000006,
      "d": 2008.9275000000052,
      "v": 74
    },
    {
      "midi": 77,
      "hit": false,
      "t": 85714.24000000006,
      "d": 2008.9275000000052,
      "v": 58
    },
    {
      "midi": 75,
      "hit": false,
      "t": 85714.24000000006,
      "d": 2031.2489166666783,
      "v": 74
    },
    {
      "midi": 55,
      "hit": false,
      "t": 88392.81000000007,
      "d": 401.78549999999814,
      "v": 66
    },
    {
      "midi": 60,
      "hit": false,
      "t": 88392.81000000007,
      "d": 440.8479791666614,
      "v": 70
    },
    {
      "midi": 63,
      "hit": false,
      "t": 88392.81000000007,
      "d": 468.7497499999881,
      "v": 70
    },
    {
      "midi": 72,
      "hit": false,
      "t": 89464.23800000006,
      "d": 446.42833333332965,
      "v": 74
    },
    {
      "midi": 67,
      "hit": false,
      "t": 89464.23800000006,
      "d": 468.7497500000027,
      "v": 74
    },
    {
      "midi": 63,
      "hit": false,
      "t": 89464.23800000006,
      "d": 491.0711666666757,
      "v": 82
    },
    {
      "midi": 55,
      "hit": false,
      "t": 90535.66600000007,
      "d": 424.10691666667117,
      "v": 74
    },
    {
      "midi": 60,
      "hit": false,
      "t": 90535.66600000007,
      "d": 446.4283333333442,
      "v": 74
    },
    {
      "midi": 63,
      "hit": false,
      "t": 90535.66600000007,
      "d": 468.74975000001723,
      "v": 78
    },
    {
      "midi": 72,
      "hit": false,
      "t": 91607.09400000008,
      "d": 446.42833333332965,
      "v": 74
    },
    {
      "midi": 67,
      "hit": false,
      "t": 91607.09400000008,
      "d": 468.7497500000027,
      "v": 74
    },
    {
      "midi": 63,
      "hit": false,
      "t": 91607.09400000008,
      "d": 491.0711666666757,
      "v": 82
    },
    {
      "midi": 55,
      "hit": false,
      "t": 92678.5220000001,
      "d": 379.46408333333966,
      "v": 70
    },
    {
      "midi": 60,
      "hit": false,
      "t": 92678.5220000001,
      "d": 424.10691666667117,
      "v": 78
    },
    {
      "midi": 63,
      "hit": false,
      "t": 92678.5220000001,
      "d": 424.10691666667117,
      "v": 78
    },
    {
      "midi": 72,
      "hit": false,
      "t": 93749.9500000001,
      "d": 468.7497500000027,
      "v": 78
    },
    {
      "midi": 67,
      "hit": false,
      "t": 93749.9500000001,
      "d": 491.0711666666757,
      "v": 74
    },
    {
      "midi": 63,
      "hit": false,
      "t": 93749.9500000001,
      "d": 513.3925833333487,
      "v": 86
    },
    {
      "midi": 55,
      "hit": false,
      "t": 94821.37800000011,
      "d": 379.46408333333966,
      "v": 78
    },
    {
      "midi": 60,
      "hit": false,
      "t": 94821.37800000011,
      "d": 424.10691666667117,
      "v": 78
    },
    {
      "midi": 63,
      "hit": false,
      "t": 94821.37800000011,
      "d": 446.4283333333442,
      "v": 78
    },
    {
      "midi": 72,
      "hit": false,
      "t": 95892.80600000013,
      "d": 446.42833333332965,
      "v": 82
    },
    {
      "midi": 67,
      "hit": false,
      "t": 95892.80600000013,
      "d": 468.7497500000027,
      "v": 82
    },
    {
      "midi": 63,
      "hit": false,
      "t": 95892.80600000013,
      "d": 513.3925833333342,
      "v": 86
    },
    {
      "midi": 55,
      "hit": false,
      "t": 96964.23400000013,
      "d": 398.9953229166713,
      "v": 70
    },
    {
      "midi": 60,
      "hit": false,
      "t": 96964.23400000013,
      "d": 421.3167395833443,
      "v": 78
    },
    {
      "midi": 63,
      "hit": false,
      "t": 96964.23400000013,
      "d": 443.63815625001735,
      "v": 78
    },
    {
      "midi": 72,
      "hit": false,
      "t": 98035.66200000014,
      "d": 379.46408333333966,
      "v": 78
    },
    {
      "midi": 67,
      "hit": false,
      "t": 98035.66200000014,
      "d": 401.7855000000127,
      "v": 74
    },
    {
      "midi": 63,
      "hit": false,
      "t": 98035.66200000014,
      "d": 446.4283333333442,
      "v": 82
    },
    {
      "midi": 55,
      "hit": false,
      "t": 99107.09000000016,
      "d": 424.10691666667117,
      "v": 74
    },
    {
      "midi": 60,
      "hit": false,
      "t": 99107.09000000016,
      "d": 446.4283333333442,
      "v": 78
    },
    {
      "midi": 63,
      "hit": false,
      "t": 99107.09000000016,
      "d": 446.4283333333442,
      "v": 78
    },
    {
      "midi": 72,
      "hit": false,
      "t": 100178.51800000017,
      "d": 379.46408333333966,
      "v": 78
    },
    {
      "midi": 67,
      "hit": false,
      "t": 100178.51800000017,
      "d": 446.4283333333442,
      "v": 70
    },
    {
      "midi": 63,
      "hit": false,
      "t": 100178.51800000017,
      "d": 468.74975000001723,
      "v": 82
    },
    {
      "midi": 55,
      "hit": false,
      "t": 101249.94600000019,
      "d": 468.7497500000027,
      "v": 74
    },
    {
      "midi": 60,
      "hit": false,
      "t": 101249.94600000019,
      "d": 491.0711666666757,
      "v": 78
    },
    {
      "midi": 63,
      "hit": false,
      "t": 101249.94600000019,
      "d": 513.3925833333487,
      "v": 74
    },
    {
      "midi": 67,
      "hit": false,
      "t": 102321.3740000002,
      "d": 491.07116666666116,
      "v": 74
    },
    {
      "midi": 72,
      "hit": false,
      "t": 102321.3740000002,
      "d": 491.07116666666116,
      "v": 74
    },
    {
      "midi": 63,
      "hit": false,
      "t": 102321.3740000002,
      "d": 535.7139999999927,
      "v": 78
    },
    {
      "midi": 55,
      "hit": false,
      "t": 103392.8020000002,
      "d": 446.42833333332965,
      "v": 74
    },
    {
      "midi": 60,
      "hit": false,
      "t": 103392.8020000002,
      "d": 491.07116666666116,
      "v": 78
    },
    {
      "midi": 63,
      "hit": false,
      "t": 103392.8020000002,
      "d": 513.3925833333342,
      "v": 78
    },
    {
      "midi": 63,
      "hit": false,
      "t": 104464.2300000002,
      "d": 401.78549999999814,
      "v": 86
    },
    {
      "midi": 67,
      "hit": false,
      "t": 104464.2300000002,
      "d": 401.78549999999814,
      "v": 78
    },
    {
      "midi": 72,
      "hit": false,
      "t": 104464.2300000002,
      "d": 401.78549999999814,
      "v": 82
    },
    {
      "midi": 68,
      "hit": false,
      "t": 104999.94400000019,
      "d": 1537.3875729166612,
      "v": 74
    },
    {
      "midi": 77,
      "hit": false,
      "t": 104999.94400000019,
      "d": 1540.177749999988,
      "v": 70
    },
    {
      "midi": 75,
      "hit": false,
      "t": 104999.94400000019,
      "d": 1604.3518229166511,
      "v": 74
    },
    {
      "midi": 72,
      "hit": false,
      "t": 104999.94400000019,
      "d": 1651.784833333324,
      "v": 70
    },
    {
      "midi": 68,
      "hit": false,
      "t": 107142.80000000018,
      "d": 1629.4634166666656,
      "v": 70
    },
    {
      "midi": 77,
      "hit": false,
      "t": 107142.80000000018,
      "d": 1651.7848333333386,
      "v": 62
    },
    {
      "midi": 75,
      "hit": false,
      "t": 107142.80000000018,
      "d": 1696.4276666666701,
      "v": 70
    },
    {
      "midi": 72,
      "hit": false,
      "t": 107142.80000000018,
      "d": 1718.7490833333432,
      "v": 70
    },
    {
      "midi": 77,
      "hit": false,
      "t": 109285.65600000019,
      "d": 1651.7848333333386,
      "v": 58
    },
    {
      "midi": 68,
      "hit": false,
      "t": 109285.65600000019,
      "d": 1674.1062500000116,
      "v": 74
    },
    {
      "midi": 75,
      "hit": false,
      "t": 109285.65600000019,
      "d": 1696.4276666666847,
      "v": 74
    },
    {
      "midi": 72,
      "hit": false,
      "t": 109285.65600000019,
      "d": 1718.7490833333577,
      "v": 74
    },
    {
      "midi": 77,
      "hit": false,
      "t": 111428.51200000022,
      "d": 1696.4276666666701,
      "v": 58
    },
    {
      "midi": 68,
      "hit": false,
      "t": 111428.51200000022,
      "d": 1741.0705000000016,
      "v": 74
    },
    {
      "midi": 72,
      "hit": false,
      "t": 111428.51200000022,
      "d": 1741.0705000000016,
      "v": 74
    },
    {
      "midi": 75,
      "hit": false,
      "t": 111428.51200000022,
      "d": 1763.3919166666747,
      "v": 74
    },
    {
      "midi": 77,
      "hit": false,
      "t": 113571.36800000024,
      "d": 1741.0705000000016,
      "v": 58
    },
    {
      "midi": 68,
      "hit": false,
      "t": 113571.36800000024,
      "d": 1785.7133333333331,
      "v": 82
    },
    {
      "midi": 72,
      "hit": false,
      "t": 113571.36800000024,
      "d": 1830.3561666666646,
      "v": 74
    },
    {
      "midi": 75,
      "hit": false,
      "t": 113571.36800000024,
      "d": 1830.3561666666646,
      "v": 74
    },
    {
      "midi": 77,
      "hit": false,
      "t": 115714.22400000023,
      "d": 1763.39191666666,
      "v": 54
    },
    {
      "midi": 68,
      "hit": false,
      "t": 115714.22400000023,
      "d": 1830.3561666666646,
      "v": 82
    },
    {
      "midi": 72,
      "hit": false,
      "t": 115714.22400000023,
      "d": 1852.6775833333377,
      "v": 78
    },
    {
      "midi": 75,
      "hit": false,
      "t": 115714.22400000023,
      "d": 1852.6775833333377,
      "v": 78
    },
    {
      "midi": 77,
      "hit": false,
      "t": 117857.08000000023,
      "d": 1808.0347500000062,
      "v": 58
    },
    {
      "midi": 68,
      "hit": false,
      "t": 117857.08000000023,
      "d": 1897.3204166666692,
      "v": 70
    },
    {
      "midi": 75,
      "hit": false,
      "t": 117857.08000000023,
      "d": 1897.3204166666692,
      "v": 74
    },
    {
      "midi": 72,
      "hit": false,
      "t": 117857.08000000023,
      "d": 1919.6418333333422,
      "v": 70
    },
    {
      "midi": 68,
      "hit": false,
      "t": 119999.93600000025,
      "d": 2008.9275000000052,
      "v": 74
    },
    {
      "midi": 72,
      "hit": false,
      "t": 119999.93600000025,
      "d": 2008.9275000000052,
      "v": 74
    },
    {
      "midi": 77,
      "hit": false,
      "t": 119999.93600000025,
      "d": 2008.9275000000052,
      "v": 58
    },
    {
      "midi": 75,
      "hit": false,
      "t": 119999.93600000025,
      "d": 2031.2489166666783,
      "v": 74
    },
    {
      "midi": 79,
      "hit": false,
      "t": 122678.50600000026,
      "d": 357.1426666666666,
      "v": 46
    },
    {
      "midi": 84,
      "hit": false,
      "t": 122678.50600000026,
      "d": 379.46408333333966,
      "v": 30
    },
    {
      "midi": 75,
      "hit": false,
      "t": 122678.50600000026,
      "d": 401.7855000000127,
      "v": 54
    },
    {
      "midi": 75,
      "hit": false,
      "t": 123749.93400000027,
      "d": 446.42833333332965,
      "v": 50
    },
    {
      "midi": 79,
      "hit": false,
      "t": 123749.93400000027,
      "d": 446.42833333332965,
      "v": 50
    },
    {
      "midi": 84,
      "hit": false,
      "t": 123749.93400000027,
      "d": 468.7497500000027,
      "v": 30
    },
    {
      "midi": 84,
      "hit": false,
      "t": 124821.36200000027,
      "d": 401.78549999999814,
      "v": 22
    },
    {
      "midi": 75,
      "hit": false,
      "t": 124821.36200000027,
      "d": 424.10691666667117,
      "v": 46
    },
    {
      "midi": 79,
      "hit": false,
      "t": 124821.36200000027,
      "d": 446.4283333333442,
      "v": 46
    },
    {
      "midi": 84,
      "hit": false,
      "t": 125892.79000000028,
      "d": 424.10691666667117,
      "v": 26
    },
    {
      "midi": 75,
      "hit": false,
      "t": 125892.79000000028,
      "d": 446.4283333333442,
      "v": 50
    },
    {
      "midi": 79,
      "hit": false,
      "t": 125892.79000000028,
      "d": 446.4283333333442,
      "v": 50
    },
    {
      "midi": 75,
      "hit": false,
      "t": 126964.2180000003,
      "d": 488.2809895833343,
      "v": 46
    },
    {
      "midi": 79,
      "hit": false,
      "t": 126964.2180000003,
      "d": 488.2809895833343,
      "v": 50
    },
    {
      "midi": 84,
      "hit": false,
      "t": 126964.2180000003,
      "d": 491.07116666666116,
      "v": 26
    },
    {
      "midi": 84,
      "hit": false,
      "t": 128035.6460000003,
      "d": 446.42833333332965,
      "v": 30
    },
    {
      "midi": 79,
      "hit": false,
      "t": 128035.6460000003,
      "d": 465.9595729166613,
      "v": 50
    },
    {
      "midi": 75,
      "hit": false,
      "t": 128035.6460000003,
      "d": 491.07116666666116,
      "v": 54
    },
    {
      "midi": 79,
      "hit": false,
      "t": 129107.0740000003,
      "d": 491.07116666666116,
      "v": 46
    },
    {
      "midi": 75,
      "hit": false,
      "t": 129107.0740000003,
      "d": 513.3925833333342,
      "v": 46
    },
    {
      "midi": 84,
      "hit": false,
      "t": 129107.0740000003,
      "d": 513.3925833333342,
      "v": 22
    },
    {
      "midi": 84,
      "hit": false,
      "t": 130178.5020000003,
      "d": 491.07116666666116,
      "v": 22
    },
    {
      "midi": 75,
      "hit": false,
      "t": 130178.5020000003,
      "d": 510.6024062499928,
      "v": 50
    },
    {
      "midi": 79,
      "hit": false,
      "t": 130178.5020000003,
      "d": 510.6024062499928,
      "v": 46
    },
    {
      "midi": 84,
      "hit": false,
      "t": 131249.93000000028,
      "d": 446.4283333333442,
      "v": 22
    },
    {
      "midi": 75,
      "hit": false,
      "t": 131249.93000000028,
      "d": 468.74975000001723,
      "v": 46
    },
    {
      "midi": 79,
      "hit": false,
      "t": 131249.93000000028,
      "d": 468.74975000001723,
      "v": 42
    },
    {
      "midi": 75,
      "hit": false,
      "t": 132321.3580000003,
      "d": 446.4283333333442,
      "v": 46
    },
    {
      "midi": 79,
      "hit": false,
      "t": 132321.3580000003,
      "d": 446.4283333333442,
      "v": 46
    },
    {
      "midi": 84,
      "hit": false,
      "t": 132321.3580000003,
      "d": 446.4283333333442,
      "v": 22
    },
    {
      "midi": 79,
      "hit": false,
      "t": 133392.7860000003,
      "d": 446.4283333333442,
      "v": 46
    },
    {
      "midi": 84,
      "hit": false,
      "t": 133392.7860000003,
      "d": 446.4283333333442,
      "v": 30
    },
    {
      "midi": 75,
      "hit": false,
      "t": 133392.7860000003,
      "d": 468.74975000001723,
      "v": 46
    },
    {
      "midi": 84,
      "hit": false,
      "t": 134464.21400000033,
      "d": 401.78549999999814,
      "v": 30
    },
    {
      "midi": 79,
      "hit": false,
      "t": 134464.21400000033,
      "d": 446.4283333333442,
      "v": 50
    },
    {
      "midi": 75,
      "hit": false,
      "t": 134464.21400000033,
      "d": 468.74975000001723,
      "v": 50
    },
    {
      "midi": 75,
      "hit": false,
      "t": 135535.64200000034,
      "d": 465.9595729166758,
      "v": 46
    },
    {
      "midi": 79,
      "hit": false,
      "t": 135535.64200000034,
      "d": 465.9595729166758,
      "v": 46
    },
    {
      "midi": 84,
      "hit": false,
      "t": 135535.64200000034,
      "d": 465.9595729166758,
      "v": 30
    },
    {
      "midi": 84,
      "hit": false,
      "t": 136607.07000000036,
      "d": 424.10691666667117,
      "v": 26
    },
    {
      "midi": 79,
      "hit": false,
      "t": 136607.07000000036,
      "d": 446.4283333333442,
      "v": 46
    },
    {
      "midi": 75,
      "hit": false,
      "t": 136607.07000000036,
      "d": 491.07116666669026,
      "v": 46
    },
    {
      "midi": 84,
      "hit": false,
      "t": 137678.49800000037,
      "d": 468.7497499999881,
      "v": 34
    },
    {
      "midi": 75,
      "hit": false,
      "t": 137678.49800000037,
      "d": 491.07116666666116,
      "v": 58
    },
    {
      "midi": 79,
      "hit": false,
      "t": 137678.49800000037,
      "d": 491.07116666666116,
      "v": 50
    },
    {
      "midi": 79,
      "hit": false,
      "t": 138749.92600000036,
      "d": 421.31673958332976,
      "v": 46
    },
    {
      "midi": 84,
      "hit": false,
      "t": 138749.92600000036,
      "d": 424.10691666667117,
      "v": 30
    },
    {
      "midi": 75,
      "hit": false,
      "t": 138749.92600000036,
      "d": 443.6381562500028,
      "v": 54
    },
    {
      "midi": 84,
      "hit": false,
      "t": 139821.35400000037,
      "d": 424.10691666667117,
      "v": 30
    },
    {
      "midi": 79,
      "hit": false,
      "t": 139821.35400000037,
      "d": 446.4283333333442,
      "v": 46
    },
    {
      "midi": 75,
      "hit": false,
      "t": 139821.35400000037,
      "d": 491.07116666669026,
      "v": 42
    },
    {
      "midi": 79,
      "hit": false,
      "t": 140892.78200000038,
      "d": 446.4283333333442,
      "v": 50
    },
    {
      "midi": 75,
      "hit": false,
      "t": 140892.78200000038,
      "d": 468.74975000001723,
      "v": 54
    },
    {
      "midi": 84,
      "hit": false,
      "t": 140892.78200000038,
      "d": 468.74975000001723,
      "v": 30
    },
    {
      "midi": 84,
      "hit": false,
      "t": 141964.2100000004,
      "d": 468.7497499999881,
      "v": 30
    },
    {
      "midi": 75,
      "hit": false,
      "t": 141964.2100000004,
      "d": 491.07116666666116,
      "v": 50
    },
    {
      "midi": 79,
      "hit": false,
      "t": 141964.2100000004,
      "d": 491.07116666666116,
      "v": 46
    },
    {
      "midi": 75,
      "hit": false,
      "t": 143035.63800000038,
      "d": 491.07116666666116,
      "v": 58
    },
    {
      "midi": 79,
      "hit": false,
      "t": 143035.63800000038,
      "d": 491.07116666666116,
      "v": 54
    },
    {
      "midi": 84,
      "hit": false,
      "t": 143035.63800000038,
      "d": 491.07116666666116,
      "v": 22
    },
    {
      "midi": 84,
      "hit": false,
      "t": 144107.06600000037,
      "d": 491.07116666666116,
      "v": 26
    },
    {
      "midi": 75,
      "hit": false,
      "t": 144107.06600000037,
      "d": 513.3925833333342,
      "v": 54
    },
    {
      "midi": 79,
      "hit": false,
      "t": 144107.06600000037,
      "d": 513.3925833333342,
      "v": 50
    },
    {
      "midi": 79,
      "hit": false,
      "t": 145178.49400000038,
      "d": 513.3925833333342,
      "v": 50
    },
    {
      "midi": 75,
      "hit": false,
      "t": 145178.49400000038,
      "d": 535.7140000000072,
      "v": 58
    },
    {
      "midi": 84,
      "hit": false,
      "t": 145178.49400000038,
      "d": 535.7140000000072,
      "v": 22
    },
    {
      "midi": 84,
      "hit": false,
      "t": 146249.9220000004,
      "d": 468.7497499999881,
      "v": 34
    },
    {
      "midi": 75,
      "hit": false,
      "t": 146249.9220000004,
      "d": 491.07116666666116,
      "v": 54
    },
    {
      "midi": 79,
      "hit": false,
      "t": 146249.9220000004,
      "d": 491.07116666666116,
      "v": 50
    },
    {
      "midi": 84,
      "hit": false,
      "t": 147321.35000000038,
      "d": 446.4283333333442,
      "v": 22
    },
    {
      "midi": 75,
      "hit": false,
      "t": 147321.35000000038,
      "d": 491.07116666669026,
      "v": 46
    },
    {
      "midi": 79,
      "hit": false,
      "t": 147321.35000000038,
      "d": 491.07116666669026,
      "v": 46
    },
    {
      "midi": 75,
      "hit": false,
      "t": 148392.7780000004,
      "d": 513.3925833333342,
      "v": 42
    },
    {
      "midi": 84,
      "hit": false,
      "t": 148392.7780000004,
      "d": 513.3925833333342,
      "v": 30
    },
    {
      "midi": 79,
      "hit": false,
      "t": 148392.7780000004,
      "d": 535.7140000000072,
      "v": 46
    },
    {
      "midi": 75,
      "hit": false,
      "t": 149464.2060000004,
      "d": 513.3925833333342,
      "v": 50
    },
    {
      "midi": 79,
      "hit": false,
      "t": 149464.2060000004,
      "d": 513.3925833333342,
      "v": 46
    },
    {
      "midi": 84,
      "hit": false,
      "t": 149464.2060000004,
      "d": 513.3925833333342,
      "v": 18
    },
    {
      "midi": 79,
      "hit": false,
      "t": 150535.63400000043,
      "d": 513.3925833333342,
      "v": 46
    },
    {
      "midi": 75,
      "hit": false,
      "t": 150535.63400000043,
      "d": 535.7140000000072,
      "v": 54
    },
    {
      "midi": 84,
      "hit": false,
      "t": 150535.63400000043,
      "d": 535.7140000000072,
      "v": 30
    },
    {
      "midi": 75,
      "hit": false,
      "t": 151607.06200000044,
      "d": 535.7140000000072,
      "v": 46
    },
    {
      "midi": 79,
      "hit": false,
      "t": 151607.06200000044,
      "d": 558.0354166666802,
      "v": 46
    },
    {
      "midi": 84,
      "hit": false,
      "t": 151607.06200000044,
      "d": 558.0354166666802,
      "v": 26
    },
    {
      "midi": 75,
      "hit": false,
      "t": 152678.49000000046,
      "d": 491.07116666666116,
      "v": 46
    },
    {
      "midi": 79,
      "hit": false,
      "t": 152678.49000000046,
      "d": 491.07116666666116,
      "v": 46
    },
    {
      "midi": 84,
      "hit": false,
      "t": 152678.49000000046,
      "d": 491.07116666666116,
      "v": 26
    },
    {
      "midi": 75,
      "hit": false,
      "t": 153749.91800000044,
      "d": 535.7140000000072,
      "v": 50
    },
    {
      "midi": 79,
      "hit": false,
      "t": 153749.91800000044,
      "d": 535.7140000000072,
      "v": 50
    },
    {
      "midi": 84,
      "hit": false,
      "t": 153749.91800000044,
      "d": 535.7140000000072,
      "v": 26
    },
    {
      "midi": 84,
      "hit": false,
      "t": 154821.34600000046,
      "d": 513.3925833333342,
      "v": 30
    },
    {
      "midi": 75,
      "hit": false,
      "t": 154821.34600000046,
      "d": 535.7140000000072,
      "v": 46
    },
    {
      "midi": 79,
      "hit": false,
      "t": 154821.34600000046,
      "d": 535.7140000000072,
      "v": 46
    },
    {
      "midi": 79,
      "hit": false,
      "t": 155892.77400000047,
      "d": 446.4283333333442,
      "v": 46
    },
    {
      "midi": 84,
      "hit": false,
      "t": 155892.77400000047,
      "d": 446.4283333333442,
      "v": 30
    },
    {
      "midi": 75,
      "hit": false,
      "t": 155892.77400000047,
      "d": 468.74975000001723,
      "v": 42
    },
    {
      "midi": 63,
      "hit": false,
      "t": 156964.20200000048,
      "d": 290.1784166666621,
      "v": 54
    },
    {
      "midi": 67,
      "hit": false,
      "t": 156964.20200000048,
      "d": 312.4998333333351,
      "v": 54
    },
    {
      "midi": 72,
      "hit": false,
      "t": 156964.20200000048,
      "d": 312.4998333333351,
      "v": 50
    },
    {
      "midi": 84,
      "hit": false,
      "t": 156964.20200000048,
      "d": 312.4998333333351,
      "v": 46
    },
    {
      "midi": 72,
      "hit": false,
      "t": 158035.6300000005,
      "d": 332.03107291666674,
      "v": 50
    },
    {
      "midi": 63,
      "hit": false,
      "t": 158035.6300000005,
      "d": 334.82125000000815,
      "v": 54
    },
    {
      "midi": 67,
      "hit": false,
      "t": 158035.6300000005,
      "d": 334.82125000000815,
      "v": 54
    },
    {
      "midi": 84,
      "hit": false,
      "t": 158035.6300000005,
      "d": 357.1426666666812,
      "v": 46
    },
    {
      "midi": 72,
      "hit": false,
      "t": 159107.0580000005,
      "d": 290.1784166666621,
      "v": 50
    },
    {
      "midi": 84,
      "hit": false,
      "t": 159107.0580000005,
      "d": 290.1784166666621,
      "v": 54
    },
    {
      "midi": 63,
      "hit": false,
      "t": 159107.0580000005,
      "d": 312.4998333333351,
      "v": 58
    },
    {
      "midi": 67,
      "hit": false,
      "t": 159107.0580000005,
      "d": 312.4998333333351,
      "v": 50
    },
    {
      "midi": 63,
      "hit": false,
      "t": 159776.70050000053,
      "d": 156.249916666653,
      "v": 50
    },
    {
      "midi": 67,
      "hit": false,
      "t": 159776.70050000053,
      "d": 156.249916666653,
      "v": 58
    },
    {
      "midi": 72,
      "hit": false,
      "t": 159776.70050000053,
      "d": 200.89274999999907,
      "v": 50
    },
    {
      "midi": 63,
      "hit": false,
      "t": 160178.48600000053,
      "d": 357.1426666666812,
      "v": 54
    },
    {
      "midi": 67,
      "hit": false,
      "t": 160178.48600000053,
      "d": 379.4640833333542,
      "v": 58
    },
    {
      "midi": 72,
      "hit": false,
      "t": 160178.48600000053,
      "d": 379.4640833333542,
      "v": 54
    },
    {
      "midi": 84,
      "hit": false,
      "t": 161249.91400000054,
      "d": 312.4998333333351,
      "v": 46
    },
    {
      "midi": 63,
      "hit": false,
      "t": 161249.91400000054,
      "d": 334.82125000000815,
      "v": 58
    },
    {
      "midi": 72,
      "hit": false,
      "t": 161249.91400000054,
      "d": 334.82125000000815,
      "v": 50
    },
    {
      "midi": 67,
      "hit": false,
      "t": 161249.91400000054,
      "d": 357.1426666666812,
      "v": 58
    },
    {
      "midi": 63,
      "hit": false,
      "t": 162321.34200000056,
      "d": 312.4998333333351,
      "v": 58
    },
    {
      "midi": 72,
      "hit": false,
      "t": 162321.34200000056,
      "d": 312.4998333333351,
      "v": 42
    },
    {
      "midi": 67,
      "hit": false,
      "t": 162321.34200000056,
      "d": 334.82125000000815,
      "v": 54
    },
    {
      "midi": 84,
      "hit": false,
      "t": 162321.34200000056,
      "d": 334.82125000000815,
      "v": 50
    },
    {
      "midi": 63,
      "hit": false,
      "t": 163392.77000000057,
      "d": 267.85699999998906,
      "v": 58
    },
    {
      "midi": 72,
      "hit": false,
      "t": 163392.77000000057,
      "d": 290.1784166666621,
      "v": 50
    },
    {
      "midi": 84,
      "hit": false,
      "t": 163392.77000000057,
      "d": 290.1784166666621,
      "v": 54
    },
    {
      "midi": 67,
      "hit": false,
      "t": 163392.77000000057,
      "d": 334.82125000000815,
      "v": 50
    },
    {
      "midi": 63,
      "hit": false,
      "t": 164062.4125000006,
      "d": 133.92850000000908,
      "v": 50
    },
    {
      "midi": 67,
      "hit": false,
      "t": 164062.4125000006,
      "d": 133.92850000000908,
      "v": 50
    },
    {
      "midi": 72,
      "hit": false,
      "t": 164062.4125000006,
      "d": 178.57133333335514,
      "v": 50
    },
    {
      "midi": 63,
      "hit": false,
      "t": 164464.19800000062,
      "d": 357.1426666666812,
      "v": 58
    },
    {
      "midi": 72,
      "hit": false,
      "t": 164464.19800000062,
      "d": 357.1426666666812,
      "v": 54
    },
    {
      "midi": 67,
      "hit": false,
      "t": 164464.19800000062,
      "d": 379.4640833333542,
      "v": 62
    },
    {
      "midi": 63,
      "hit": false,
      "t": 165535.62600000063,
      "d": 267.85699999998906,
      "v": 58
    },
    {
      "midi": 67,
      "hit": false,
      "t": 165535.62600000063,
      "d": 290.1784166666621,
      "v": 54
    },
    {
      "midi": 72,
      "hit": false,
      "t": 165535.62600000063,
      "d": 290.1784166666621,
      "v": 50
    },
    {
      "midi": 84,
      "hit": false,
      "t": 165535.62600000063,
      "d": 290.1784166666621,
      "v": 54
    },
    {
      "midi": 63,
      "hit": false,
      "t": 166607.05400000061,
      "d": 334.82125000000815,
      "v": 50
    },
    {
      "midi": 84,
      "hit": false,
      "t": 166607.05400000061,
      "d": 334.82125000000815,
      "v": 50
    },
    {
      "midi": 72,
      "hit": false,
      "t": 166607.05400000061,
      "d": 357.1426666666812,
      "v": 50
    },
    {
      "midi": 67,
      "hit": false,
      "t": 166607.05400000061,
      "d": 379.4640833333542,
      "v": 54
    },
    {
      "midi": 84,
      "hit": false,
      "t": 167678.48200000063,
      "d": 267.85699999998906,
      "v": 54
    },
    {
      "midi": 72,
      "hit": false,
      "t": 167678.48200000063,
      "d": 287.3882395833207,
      "v": 50
    },
    {
      "midi": 63,
      "hit": false,
      "t": 167678.48200000063,
      "d": 290.1784166666621,
      "v": 62
    },
    {
      "midi": 67,
      "hit": false,
      "t": 167678.48200000063,
      "d": 334.82125000000815,
      "v": 54
    },
    {
      "midi": 67,
      "hit": false,
      "t": 168348.12450000065,
      "d": 200.89274999999907,
      "v": 50
    },
    {
      "midi": 63,
      "hit": false,
      "t": 168348.12450000065,
      "d": 223.2141666666721,
      "v": 50
    },
    {
      "midi": 72,
      "hit": false,
      "t": 168348.12450000065,
      "d": 245.53558333334513,
      "v": 50
    },
    {
      "midi": 63,
      "hit": false,
      "t": 168749.91000000064,
      "d": 357.1426666666812,
      "v": 58
    },
    {
      "midi": 67,
      "hit": false,
      "t": 168749.91000000064,
      "d": 379.4640833333542,
      "v": 58
    },
    {
      "midi": 72,
      "hit": false,
      "t": 168749.91000000064,
      "d": 401.78550000002724,
      "v": 50
    },
    {
      "midi": 63,
      "hit": false,
      "t": 169821.33800000066,
      "d": 267.85699999998906,
      "v": 58
    },
    {
      "midi": 72,
      "hit": false,
      "t": 169821.33800000066,
      "d": 290.1784166666621,
      "v": 50
    },
    {
      "midi": 67,
      "hit": false,
      "t": 169821.33800000066,
      "d": 312.4998333333351,
      "v": 54
    },
    {
      "midi": 84,
      "hit": false,
      "t": 169821.33800000066,
      "d": 334.82125000000815,
      "v": 54
    },
    {
      "midi": 63,
      "hit": false,
      "t": 170892.76600000067,
      "d": 357.1426666666812,
      "v": 58
    },
    {
      "midi": 67,
      "hit": false,
      "t": 170892.76600000067,
      "d": 379.4640833333542,
      "v": 58
    },
    {
      "midi": 72,
      "hit": false,
      "t": 170892.76600000067,
      "d": 379.4640833333542,
      "v": 54
    },
    {
      "midi": 84,
      "hit": false,
      "t": 170892.76600000067,
      "d": 379.4640833333542,
      "v": 54
    },
    {
      "midi": 63,
      "hit": false,
      "t": 171964.1940000007,
      "d": 312.4998333333351,
      "v": 54
    },
    {
      "midi": 72,
      "hit": false,
      "t": 171964.1940000007,
      "d": 312.4998333333351,
      "v": 50
    },
    {
      "midi": 84,
      "hit": false,
      "t": 171964.1940000007,
      "d": 312.4998333333351,
      "v": 54
    },
    {
      "midi": 67,
      "hit": false,
      "t": 171964.1940000007,
      "d": 334.82125000000815,
      "v": 50
    },
    {
      "midi": 63,
      "hit": false,
      "t": 172633.8365000007,
      "d": 223.2141666666721,
      "v": 58
    },
    {
      "midi": 67,
      "hit": false,
      "t": 172633.8365000007,
      "d": 223.2141666666721,
      "v": 54
    },
    {
      "midi": 72,
      "hit": false,
      "t": 172633.8365000007,
      "d": 245.53558333334513,
      "v": 54
    },
    {
      "midi": 63,
      "hit": false,
      "t": 173035.6220000007,
      "d": 357.1426666666812,
      "v": 54
    },
    {
      "midi": 67,
      "hit": false,
      "t": 173035.6220000007,
      "d": 401.78550000002724,
      "v": 54
    },
    {
      "midi": 72,
      "hit": false,
      "t": 173035.6220000007,
      "d": 401.78550000002724,
      "v": 54
    },
    {
      "midi": 60,
      "hit": false,
      "t": 174107.05000000072,
      "d": 334.82125000000815,
      "v": 62
    },
    {
      "midi": 70,
      "hit": false,
      "t": 174107.05000000072,
      "d": 334.82125000000815,
      "v": 66
    },
    {
      "midi": 67,
      "hit": false,
      "t": 174107.05000000072,
      "d": 357.1426666666812,
      "v": 66
    },
    {
      "midi": 63,
      "hit": false,
      "t": 174107.05000000072,
      "d": 424.10691666667117,
      "v": 74
    },
    {
      "midi": 60,
      "hit": false,
      "t": 175178.47800000073,
      "d": 334.82125000000815,
      "v": 66
    },
    {
      "midi": 70,
      "hit": false,
      "t": 175178.47800000073,
      "d": 334.82125000000815,
      "v": 62
    },
    {
      "midi": 67,
      "hit": false,
      "t": 175178.47800000073,
      "d": 379.4640833333542,
      "v": 66
    },
    {
      "midi": 63,
      "hit": false,
      "t": 175178.47800000073,
      "d": 424.1069166667003,
      "v": 74
    },
    {
      "midi": 67,
      "hit": false,
      "t": 176249.90600000077,
      "d": 245.53558333334513,
      "v": 70
    },
    {
      "midi": 60,
      "hit": false,
      "t": 176249.90600000077,
      "d": 357.1426666666812,
      "v": 62
    },
    {
      "midi": 70,
      "hit": false,
      "t": 176249.90600000077,
      "d": 357.1426666666812,
      "v": 70
    },
    {
      "midi": 63,
      "hit": false,
      "t": 176249.90600000077,
      "d": 424.10691666667117,
      "v": 74
    },
    {
      "midi": 60,
      "hit": false,
      "t": 176785.62000000078,
      "d": 44.64283333334606,
      "v": 46
    },
    {
      "midi": 63,
      "hit": false,
      "t": 176919.5485000008,
      "d": 22.32141666667303,
      "v": 30
    },
    {
      "midi": 67,
      "hit": false,
      "t": 176919.5485000008,
      "d": 22.32141666667303,
      "v": 50
    },
    {
      "midi": 70,
      "hit": false,
      "t": 176919.5485000008,
      "d": 22.32141666667303,
      "v": 50
    },
    {
      "midi": 60,
      "hit": false,
      "t": 177187.4055000008,
      "d": 22.32141666667303,
      "v": 22
    },
    {
      "midi": 69,
      "hit": false,
      "t": 177321.33400000082,
      "d": 446.4283333333442,
      "v": 70
    },
    {
      "midi": 60,
      "hit": false,
      "t": 177321.33400000082,
      "d": 468.74975000001723,
      "v": 46
    },
    {
      "midi": 65,
      "hit": false,
      "t": 177321.33400000082,
      "d": 513.3925833333633,
      "v": 70
    },
    {
      "midi": 60,
      "hit": false,
      "t": 178392.76200000086,
      "d": 357.1426666666812,
      "v": 66
    },
    {
      "midi": 70,
      "hit": false,
      "t": 178392.76200000086,
      "d": 357.1426666666812,
      "v": 62
    },
    {
      "midi": 67,
      "hit": false,
      "t": 178392.76200000086,
      "d": 401.78550000002724,
      "v": 66
    },
    {
      "midi": 63,
      "hit": false,
      "t": 178392.76200000086,
      "d": 424.1069166667003,
      "v": 74
    },
    {
      "midi": 60,
      "hit": false,
      "t": 179464.1900000009,
      "d": 379.4640833333251,
      "v": 58
    },
    {
      "midi": 70,
      "hit": false,
      "t": 179464.1900000009,
      "d": 379.4640833333251,
      "v": 70
    },
    {
      "midi": 67,
      "hit": false,
      "t": 179464.1900000009,
      "d": 424.10691666667117,
      "v": 66
    },
    {
      "midi": 63,
      "hit": false,
      "t": 179464.1900000009,
      "d": 468.74975000001723,
      "v": 74
    },
    {
      "midi": 67,
      "hit": false,
      "t": 180535.61800000092,
      "d": 312.4998333333351,
      "v": 70
    },
    {
      "midi": 70,
      "hit": false,
      "t": 180535.61800000092,
      "d": 312.4998333333351,
      "v": 66
    },
    {
      "midi": 60,
      "hit": false,
      "t": 180535.61800000092,
      "d": 334.82125000000815,
      "v": 62
    },
    {
      "midi": 63,
      "hit": false,
      "t": 180535.61800000092,
      "d": 468.74975000001723,
      "v": 74
    },
    {
      "midi": 60,
      "hit": false,
      "t": 181071.33200000093,
      "d": 44.64283333334606,
      "v": 42
    },
    {
      "midi": 63,
      "hit": false,
      "t": 181205.26050000094,
      "d": 22.32141666667303,
      "v": 22
    },
    {
      "midi": 67,
      "hit": false,
      "t": 181205.26050000094,
      "d": 22.32141666667303,
      "v": 34
    },
    {
      "midi": 70,
      "hit": false,
      "t": 181205.26050000094,
      "d": 22.32141666667303,
      "v": 38
    },
    {
      "midi": 60,
      "hit": false,
      "t": 181473.11750000095,
      "d": 22.32141666667303,
      "v": 34
    },
    {
      "midi": 69,
      "hit": false,
      "t": 181607.04600000096,
      "d": 446.4283333333442,
      "v": 66
    },
    {
      "midi": 60,
      "hit": false,
      "t": 181607.04600000096,
      "d": 468.74975000001723,
      "v": 42
    },
    {
      "midi": 65,
      "hit": false,
      "t": 181607.04600000096,
      "d": 513.3925833333633,
      "v": 66
    },
    {
      "midi": 60,
      "hit": false,
      "t": 182678.474000001,
      "d": 354.3524895833398,
      "v": 62
    },
    {
      "midi": 70,
      "hit": false,
      "t": 182678.474000001,
      "d": 354.3524895833398,
      "v": 62
    },
    {
      "midi": 67,
      "hit": false,
      "t": 182678.474000001,
      "d": 379.4640833333542,
      "v": 66
    },
    {
      "midi": 63,
      "hit": false,
      "t": 182678.474000001,
      "d": 421.31673958335887,
      "v": 74
    },
    {
      "midi": 60,
      "hit": false,
      "t": 183749.90200000102,
      "d": 357.1426666666812,
      "v": 62
    },
    {
      "midi": 70,
      "hit": false,
      "t": 183749.90200000102,
      "d": 379.4640833333542,
      "v": 66
    },
    {
      "midi": 67,
      "hit": false,
      "t": 183749.90200000102,
      "d": 401.78550000002724,
      "v": 66
    },
    {
      "midi": 63,
      "hit": false,
      "t": 183749.90200000102,
      "d": 446.4283333333733,
      "v": 74
    },
    {
      "midi": 67,
      "hit": false,
      "t": 184821.33000000106,
      "d": 357.1426666666812,
      "v": 66
    },
    {
      "midi": 70,
      "hit": false,
      "t": 184821.33000000106,
      "d": 357.1426666666812,
      "v": 70
    },
    {
      "midi": 60,
      "hit": false,
      "t": 184821.33000000106,
      "d": 379.4640833333542,
      "v": 58
    },
    {
      "midi": 63,
      "hit": false,
      "t": 184821.33000000106,
      "d": 468.74975000001723,
      "v": 74
    },
    {
      "midi": 60,
      "hit": false,
      "t": 185357.04400000107,
      "d": 44.64283333334606,
      "v": 38
    },
    {
      "midi": 63,
      "hit": false,
      "t": 185490.97250000108,
      "d": 22.32141666667303,
      "v": 34
    },
    {
      "midi": 67,
      "hit": false,
      "t": 185490.97250000108,
      "d": 22.32141666667303,
      "v": 54
    },
    {
      "midi": 70,
      "hit": false,
      "t": 185490.97250000108,
      "d": 22.32141666667303,
      "v": 58
    },
    {
      "midi": 60,
      "hit": false,
      "t": 185758.8295000011,
      "d": 22.32141666667303,
      "v": 10
    },
    {
      "midi": 69,
      "hit": false,
      "t": 185892.7580000011,
      "d": 446.4283333333442,
      "v": 66
    },
    {
      "midi": 60,
      "hit": false,
      "t": 185892.7580000011,
      "d": 468.74975000001723,
      "v": 50
    },
    {
      "midi": 65,
      "hit": false,
      "t": 185892.7580000011,
      "d": 491.07116666669026,
      "v": 66
    },
    {
      "midi": 60,
      "hit": false,
      "t": 186964.18600000112,
      "d": 354.3524895833398,
      "v": 58
    },
    {
      "midi": 70,
      "hit": false,
      "t": 186964.18600000112,
      "d": 354.3524895833398,
      "v": 62
    },
    {
      "midi": 67,
      "hit": false,
      "t": 186964.18600000112,
      "d": 376.6739062500128,
      "v": 66
    },
    {
      "midi": 63,
      "hit": false,
      "t": 186964.18600000112,
      "d": 443.6381562500028,
      "v": 74
    },
    {
      "midi": 70,
      "hit": false,
      "t": 188035.61400000114,
      "d": 379.4640833333251,
      "v": 66
    },
    {
      "midi": 60,
      "hit": false,
      "t": 188035.61400000114,
      "d": 401.78549999999814,
      "v": 66
    },
    {
      "midi": 67,
      "hit": false,
      "t": 188035.61400000114,
      "d": 424.10691666667117,
      "v": 66
    },
    {
      "midi": 63,
      "hit": false,
      "t": 188035.61400000114,
      "d": 468.74975000001723,
      "v": 74
    },
    {
      "midi": 70,
      "hit": false,
      "t": 189107.04200000115,
      "d": 379.4640833333251,
      "v": 70
    },
    {
      "midi": 60,
      "hit": false,
      "t": 189107.04200000115,
      "d": 424.10691666667117,
      "v": 62
    },
    {
      "midi": 63,
      "hit": false,
      "t": 189107.04200000115,
      "d": 510.6024062499928,
      "v": 74
    },
    {
      "midi": 67,
      "hit": false,
      "t": 189107.04200000115,
      "d": 513.3925833333342,
      "v": 66
    },
    {
      "midi": 60,
      "hit": false,
      "t": 189642.75600000116,
      "d": 66.96424999998999,
      "v": 38
    },
    {
      "midi": 67,
      "hit": false,
      "t": 189776.68450000114,
      "d": 22.32141666667303,
      "v": 30
    },
    {
      "midi": 70,
      "hit": false,
      "t": 189776.68450000114,
      "d": 22.32141666667303,
      "v": 18
    },
    {
      "midi": 60,
      "hit": false,
      "t": 190044.54150000116,
      "d": 22.32141666667303,
      "v": 34
    },
    {
      "midi": 69,
      "hit": false,
      "t": 190178.47000000117,
      "d": 468.7497499999881,
      "v": 70
    },
    {
      "midi": 60,
      "hit": false,
      "t": 190178.47000000117,
      "d": 491.07116666666116,
      "v": 38
    },
    {
      "midi": 65,
      "hit": false,
      "t": 190178.47000000117,
      "d": 535.7140000000072,
      "v": 66
    },
    {
      "midi": 67,
      "hit": false,
      "t": 191249.89800000118,
      "d": 401.78549999999814,
      "v": 66
    },
    {
      "midi": 60,
      "hit": false,
      "t": 191249.89800000118,
      "d": 421.31673958332976,
      "v": 54
    },
    {
      "midi": 70,
      "hit": false,
      "t": 191249.89800000118,
      "d": 421.31673958332976,
      "v": 70
    },
    {
      "midi": 63,
      "hit": false,
      "t": 191249.89800000118,
      "d": 446.4283333333442,
      "v": 74
    },
    {
      "midi": 60,
      "hit": false,
      "t": 192321.3260000012,
      "d": 379.4640833333251,
      "v": 62
    },
    {
      "midi": 70,
      "hit": false,
      "t": 192321.3260000012,
      "d": 379.4640833333251,
      "v": 66
    },
    {
      "midi": 67,
      "hit": false,
      "t": 192321.3260000012,
      "d": 421.31673958332976,
      "v": 66
    },
    {
      "midi": 63,
      "hit": false,
      "t": 192321.3260000012,
      "d": 468.7497499999881,
      "v": 74
    },
    {
      "midi": 60,
      "hit": false,
      "t": 193392.75400000118,
      "d": 379.4640833333251,
      "v": 66
    },
    {
      "midi": 70,
      "hit": false,
      "t": 193392.75400000118,
      "d": 379.4640833333251,
      "v": 66
    },
    {
      "midi": 67,
      "hit": false,
      "t": 193392.75400000118,
      "d": 491.07116666666116,
      "v": 66
    },
    {
      "midi": 63,
      "hit": false,
      "t": 193392.75400000118,
      "d": 513.3925833333342,
      "v": 74
    },
    {
      "midi": 60,
      "hit": false,
      "t": 193928.4680000012,
      "d": 44.64283333334606,
      "v": 38
    },
    {
      "midi": 60,
      "hit": false,
      "t": 194330.2535000012,
      "d": 22.32141666667303,
      "v": 22
    },
    {
      "midi": 69,
      "hit": false,
      "t": 194464.18200000122,
      "d": 468.7497499999881,
      "v": 66
    },
    {
      "midi": 60,
      "hit": false,
      "t": 194464.18200000122,
      "d": 513.3925833333342,
      "v": 38
    },
    {
      "midi": 65,
      "hit": false,
      "t": 194464.18200000122,
      "d": 535.7140000000072,
      "v": 66
    },
    {
      "midi": 60,
      "hit": false,
      "t": 195535.61000000124,
      "d": 421.31673958332976,
      "v": 66
    },
    {
      "midi": 70,
      "hit": false,
      "t": 195535.61000000124,
      "d": 424.10691666667117,
      "v": 70
    },
    {
      "midi": 67,
      "hit": false,
      "t": 195535.61000000124,
      "d": 443.6381562500028,
      "v": 66
    },
    {
      "midi": 63,
      "hit": false,
      "t": 195535.61000000124,
      "d": 465.9595729166758,
      "v": 74
    },
    {
      "midi": 70,
      "hit": false,
      "t": 196607.03800000125,
      "d": 357.1426666666812,
      "v": 66
    },
    {
      "midi": 60,
      "hit": false,
      "t": 196607.03800000125,
      "d": 401.78550000002724,
      "v": 62
    },
    {
      "midi": 67,
      "hit": false,
      "t": 196607.03800000125,
      "d": 401.78550000002724,
      "v": 66
    },
    {
      "midi": 63,
      "hit": false,
      "t": 196607.03800000125,
      "d": 468.74975000001723,
      "v": 74
    },
    {
      "midi": 60,
      "hit": false,
      "t": 197678.46600000127,
      "d": 334.82125000000815,
      "v": 54
    },
    {
      "midi": 70,
      "hit": false,
      "t": 197678.46600000127,
      "d": 357.1426666666812,
      "v": 66
    },
    {
      "midi": 67,
      "hit": false,
      "t": 197678.46600000127,
      "d": 491.07116666669026,
      "v": 66
    },
    {
      "midi": 63,
      "hit": false,
      "t": 197678.46600000127,
      "d": 535.7140000000363,
      "v": 70
    },
    {
      "midi": 60,
      "hit": false,
      "t": 198214.1800000013,
      "d": 44.64283333334606,
      "v": 38
    },
    {
      "midi": 67,
      "hit": false,
      "t": 198348.1085000013,
      "d": 22.32141666667303,
      "v": 42
    },
    {
      "midi": 70,
      "hit": false,
      "t": 198348.1085000013,
      "d": 22.32141666667303,
      "v": 50
    },
    {
      "midi": 60,
      "hit": false,
      "t": 198615.96550000133,
      "d": 44.64283333334606,
      "v": 42
    },
    {
      "midi": 69,
      "hit": false,
      "t": 198749.89400000134,
      "d": 491.07116666666116,
      "v": 66
    },
    {
      "midi": 60,
      "hit": false,
      "t": 198749.89400000134,
      "d": 513.3925833333342,
      "v": 38
    },
    {
      "midi": 65,
      "hit": false,
      "t": 198749.89400000134,
      "d": 513.3925833333342,
      "v": 62
    },
    {
      "midi": 60,
      "hit": false,
      "t": 199821.32200000135,
      "d": 334.82125000000815,
      "v": 62
    },
    {
      "midi": 67,
      "hit": false,
      "t": 199821.32200000135,
      "d": 357.1426666666812,
      "v": 66
    },
    {
      "midi": 70,
      "hit": false,
      "t": 199821.32200000135,
      "d": 357.1426666666812,
      "v": 66
    },
    {
      "midi": 63,
      "hit": false,
      "t": 199821.32200000135,
      "d": 424.10691666667117,
      "v": 74
    },
    {
      "midi": 60,
      "hit": false,
      "t": 200892.75000000137,
      "d": 334.82125000000815,
      "v": 66
    },
    {
      "midi": 70,
      "hit": false,
      "t": 200892.75000000137,
      "d": 334.82125000000815,
      "v": 62
    },
    {
      "midi": 67,
      "hit": false,
      "t": 200892.75000000137,
      "d": 379.4640833333542,
      "v": 66
    },
    {
      "midi": 63,
      "hit": false,
      "t": 200892.75000000137,
      "d": 424.1069166667003,
      "v": 74
    },
    {
      "midi": 67,
      "hit": false,
      "t": 201964.1780000014,
      "d": 245.53558333334513,
      "v": 70
    },
    {
      "midi": 60,
      "hit": false,
      "t": 201964.1780000014,
      "d": 357.1426666666812,
      "v": 62
    },
    {
      "midi": 70,
      "hit": false,
      "t": 201964.1780000014,
      "d": 357.1426666666812,
      "v": 70
    },
    {
      "midi": 63,
      "hit": false,
      "t": 201964.1780000014,
      "d": 424.10691666667117,
      "v": 74
    },
    {
      "midi": 60,
      "hit": false,
      "t": 202499.89200000142,
      "d": 44.64283333334606,
      "v": 46
    },
    {
      "midi": 63,
      "hit": false,
      "t": 202633.82050000143,
      "d": 22.32141666667303,
      "v": 30
    },
    {
      "midi": 67,
      "hit": false,
      "t": 202633.82050000143,
      "d": 22.32141666667303,
      "v": 50
    },
    {
      "midi": 70,
      "hit": false,
      "t": 202633.82050000143,
      "d": 22.32141666667303,
      "v": 50
    },
    {
      "midi": 60,
      "hit": false,
      "t": 202901.67750000145,
      "d": 22.32141666667303,
      "v": 22
    },
    {
      "midi": 69,
      "hit": false,
      "t": 203035.60600000145,
      "d": 446.4283333333442,
      "v": 70
    },
    {
      "midi": 60,
      "hit": false,
      "t": 203035.60600000145,
      "d": 468.74975000001723,
      "v": 46
    },
    {
      "midi": 65,
      "hit": false,
      "t": 203035.60600000145,
      "d": 513.3925833333633,
      "v": 70
    },
    {
      "midi": 60,
      "hit": false,
      "t": 204107.0340000015,
      "d": 357.1426666666812,
      "v": 66
    },
    {
      "midi": 70,
      "hit": false,
      "t": 204107.0340000015,
      "d": 357.1426666666812,
      "v": 62
    },
    {
      "midi": 67,
      "hit": false,
      "t": 204107.0340000015,
      "d": 379.4640833333542,
      "v": 66
    },
    {
      "midi": 63,
      "hit": false,
      "t": 204107.0340000015,
      "d": 424.1069166667003,
      "v": 74
    },
    {
      "midi": 60,
      "hit": false,
      "t": 205178.46200000154,
      "d": 379.4640833333251,
      "v": 58
    },
    {
      "midi": 70,
      "hit": false,
      "t": 205178.46200000154,
      "d": 379.4640833333251,
      "v": 70
    },
    {
      "midi": 67,
      "hit": false,
      "t": 205178.46200000154,
      "d": 424.10691666667117,
      "v": 66
    },
    {
      "midi": 63,
      "hit": false,
      "t": 205178.46200000154,
      "d": 468.74975000001723,
      "v": 74
    },
    {
      "midi": 67,
      "hit": false,
      "t": 206249.89000000156,
      "d": 312.4998333333351,
      "v": 70
    },
    {
      "midi": 70,
      "hit": false,
      "t": 206249.89000000156,
      "d": 312.4998333333351,
      "v": 66
    },
    {
      "midi": 60,
      "hit": false,
      "t": 206249.89000000156,
      "d": 334.82125000000815,
      "v": 62
    },
    {
      "midi": 63,
      "hit": false,
      "t": 206249.89000000156,
      "d": 468.74975000001723,
      "v": 74
    },
    {
      "midi": 60,
      "hit": false,
      "t": 206785.60400000156,
      "d": 44.64283333334606,
      "v": 42
    },
    {
      "midi": 63,
      "hit": false,
      "t": 206919.53250000157,
      "d": 22.32141666667303,
      "v": 22
    },
    {
      "midi": 67,
      "hit": false,
      "t": 206919.53250000157,
      "d": 22.32141666667303,
      "v": 34
    },
    {
      "midi": 70,
      "hit": false,
      "t": 206919.53250000157,
      "d": 22.32141666667303,
      "v": 38
    },
    {
      "midi": 60,
      "hit": false,
      "t": 207187.3895000016,
      "d": 22.32141666667303,
      "v": 34
    },
    {
      "midi": 69,
      "hit": false,
      "t": 207321.3180000016,
      "d": 446.4283333333442,
      "v": 66
    },
    {
      "midi": 60,
      "hit": false,
      "t": 207321.3180000016,
      "d": 468.74975000001723,
      "v": 42
    },
    {
      "midi": 65,
      "hit": false,
      "t": 207321.3180000016,
      "d": 513.3925833333633,
      "v": 66
    },
    {
      "midi": 60,
      "hit": false,
      "t": 208392.74600000164,
      "d": 354.3524895833398,
      "v": 62
    },
    {
      "midi": 70,
      "hit": false,
      "t": 208392.74600000164,
      "d": 354.3524895833398,
      "v": 62
    },
    {
      "midi": 67,
      "hit": false,
      "t": 208392.74600000164,
      "d": 379.4640833333542,
      "v": 66
    },
    {
      "midi": 63,
      "hit": false,
      "t": 208392.74600000164,
      "d": 421.31673958335887,
      "v": 74
    },
    {
      "midi": 60,
      "hit": false,
      "t": 209464.17400000166,
      "d": 357.1426666666812,
      "v": 62
    },
    {
      "midi": 70,
      "hit": false,
      "t": 209464.17400000166,
      "d": 379.4640833333542,
      "v": 66
    },
    {
      "midi": 67,
      "hit": false,
      "t": 209464.17400000166,
      "d": 401.78550000002724,
      "v": 66
    },
    {
      "midi": 63,
      "hit": false,
      "t": 209464.17400000166,
      "d": 446.4283333333733,
      "v": 74
    },
    {
      "midi": 67,
      "hit": false,
      "t": 210535.6020000017,
      "d": 357.1426666666812,
      "v": 66
    },
    {
      "midi": 70,
      "hit": false,
      "t": 210535.6020000017,
      "d": 357.1426666666812,
      "v": 70
    },
    {
      "midi": 60,
      "hit": false,
      "t": 210535.6020000017,
      "d": 379.4640833333542,
      "v": 58
    },
    {
      "midi": 63,
      "hit": false,
      "t": 210535.6020000017,
      "d": 468.74975000001723,
      "v": 74
    },
    {
      "midi": 60,
      "hit": false,
      "t": 211071.3160000017,
      "d": 66.96424999998999,
      "v": 38
    },
    {
      "midi": 63,
      "hit": false,
      "t": 211205.2445000017,
      "d": 22.32141666667303,
      "v": 34
    },
    {
      "midi": 67,
      "hit": false,
      "t": 211205.2445000017,
      "d": 22.32141666667303,
      "v": 54
    },
    {
      "midi": 70,
      "hit": false,
      "t": 211205.2445000017,
      "d": 22.32141666667303,
      "v": 58
    },
    {
      "midi": 60,
      "hit": false,
      "t": 211473.1015000017,
      "d": 22.32141666667303,
      "v": 10
    },
    {
      "midi": 69,
      "hit": false,
      "t": 211607.03000000172,
      "d": 446.4283333333442,
      "v": 66
    },
    {
      "midi": 60,
      "hit": false,
      "t": 211607.03000000172,
      "d": 468.74975000001723,
      "v": 50
    },
    {
      "midi": 65,
      "hit": false,
      "t": 211607.03000000172,
      "d": 491.07116666669026,
      "v": 66
    },
    {
      "midi": 70,
      "hit": false,
      "t": 212678.45800000173,
      "d": 334.82125000000815,
      "v": 62
    },
    {
      "midi": 60,
      "hit": false,
      "t": 212678.45800000173,
      "d": 357.1426666666812,
      "v": 58
    },
    {
      "midi": 67,
      "hit": false,
      "t": 212678.45800000173,
      "d": 357.1426666666812,
      "v": 66
    },
    {
      "midi": 63,
      "hit": false,
      "t": 212678.45800000173,
      "d": 424.10691666667117,
      "v": 74
    },
    {
      "midi": 70,
      "hit": false,
      "t": 213749.88600000174,
      "d": 379.4640833333251,
      "v": 66
    },
    {
      "midi": 60,
      "hit": false,
      "t": 213749.88600000174,
      "d": 401.78549999999814,
      "v": 66
    },
    {
      "midi": 67,
      "hit": false,
      "t": 213749.88600000174,
      "d": 424.10691666667117,
      "v": 66
    },
    {
      "midi": 63,
      "hit": false,
      "t": 213749.88600000174,
      "d": 468.74975000001723,
      "v": 74
    },
    {
      "midi": 70,
      "hit": false,
      "t": 214821.31400000176,
      "d": 379.4640833333251,
      "v": 70
    },
    {
      "midi": 60,
      "hit": false,
      "t": 214821.31400000176,
      "d": 424.10691666667117,
      "v": 62
    },
    {
      "midi": 63,
      "hit": false,
      "t": 214821.31400000176,
      "d": 491.07116666666116,
      "v": 74
    },
    {
      "midi": 67,
      "hit": false,
      "t": 214821.31400000176,
      "d": 513.3925833333342,
      "v": 66
    },
    {
      "midi": 60,
      "hit": false,
      "t": 215357.02800000177,
      "d": 44.64283333334606,
      "v": 38
    },
    {
      "midi": 67,
      "hit": false,
      "t": 215490.95650000178,
      "d": 22.32141666667303,
      "v": 30
    },
    {
      "midi": 70,
      "hit": false,
      "t": 215490.95650000178,
      "d": 22.32141666667303,
      "v": 18
    },
    {
      "midi": 60,
      "hit": false,
      "t": 215758.8135000018,
      "d": 22.32141666667303,
      "v": 34
    },
    {
      "midi": 69,
      "hit": false,
      "t": 215892.7420000018,
      "d": 468.7497499999881,
      "v": 70
    },
    {
      "midi": 60,
      "hit": false,
      "t": 215892.7420000018,
      "d": 491.07116666666116,
      "v": 38
    },
    {
      "midi": 65,
      "hit": false,
      "t": 215892.7420000018,
      "d": 535.7140000000072,
      "v": 66
    },
    {
      "midi": 60,
      "hit": false,
      "t": 216964.17000000182,
      "d": 401.78549999999814,
      "v": 54
    },
    {
      "midi": 67,
      "hit": false,
      "t": 216964.17000000182,
      "d": 401.78549999999814,
      "v": 66
    },
    {
      "midi": 70,
      "hit": false,
      "t": 216964.17000000182,
      "d": 401.78549999999814,
      "v": 70
    },
    {
      "midi": 63,
      "hit": false,
      "t": 216964.17000000182,
      "d": 446.4283333333442,
      "v": 74
    },
    {
      "midi": 60,
      "hit": false,
      "t": 218035.59800000183,
      "d": 379.4640833333251,
      "v": 62
    },
    {
      "midi": 70,
      "hit": false,
      "t": 218035.59800000183,
      "d": 379.4640833333251,
      "v": 66
    },
    {
      "midi": 67,
      "hit": false,
      "t": 218035.59800000183,
      "d": 424.10691666667117,
      "v": 66
    },
    {
      "midi": 63,
      "hit": false,
      "t": 218035.59800000183,
      "d": 491.07116666666116,
      "v": 74
    },
    {
      "midi": 60,
      "hit": false,
      "t": 219107.02600000182,
      "d": 379.4640833333251,
      "v": 66
    },
    {
      "midi": 70,
      "hit": false,
      "t": 219107.02600000182,
      "d": 379.4640833333251,
      "v": 66
    },
    {
      "midi": 67,
      "hit": false,
      "t": 219107.02600000182,
      "d": 491.07116666666116,
      "v": 66
    },
    {
      "midi": 63,
      "hit": false,
      "t": 219107.02600000182,
      "d": 513.3925833333342,
      "v": 74
    },
    {
      "midi": 60,
      "hit": false,
      "t": 219642.74000000182,
      "d": 44.64283333334606,
      "v": 38
    },
    {
      "midi": 60,
      "hit": false,
      "t": 220044.52550000185,
      "d": 22.32141666667303,
      "v": 22
    },
    {
      "midi": 69,
      "hit": false,
      "t": 220178.45400000186,
      "d": 468.7497499999881,
      "v": 66
    },
    {
      "midi": 60,
      "hit": false,
      "t": 220178.45400000186,
      "d": 513.3925833333342,
      "v": 38
    },
    {
      "midi": 65,
      "hit": false,
      "t": 220178.45400000186,
      "d": 535.7140000000072,
      "v": 66
    },
    {
      "midi": 60,
      "hit": false,
      "t": 221249.88200000187,
      "d": 421.31673958332976,
      "v": 66
    },
    {
      "midi": 70,
      "hit": false,
      "t": 221249.88200000187,
      "d": 424.10691666667117,
      "v": 70
    },
    {
      "midi": 67,
      "hit": false,
      "t": 221249.88200000187,
      "d": 443.6381562500028,
      "v": 66
    },
    {
      "midi": 63,
      "hit": false,
      "t": 221249.88200000187,
      "d": 465.9595729166758,
      "v": 74
    },
    {
      "midi": 70,
      "hit": false,
      "t": 222321.3100000019,
      "d": 357.1426666666812,
      "v": 66
    },
    {
      "midi": 60,
      "hit": false,
      "t": 222321.3100000019,
      "d": 379.4640833333542,
      "v": 62
    },
    {
      "midi": 67,
      "hit": false,
      "t": 222321.3100000019,
      "d": 401.78550000002724,
      "v": 66
    },
    {
      "midi": 63,
      "hit": false,
      "t": 222321.3100000019,
      "d": 468.74975000001723,
      "v": 74
    },
    {
      "midi": 60,
      "hit": false,
      "t": 223392.7380000019,
      "d": 334.82125000000815,
      "v": 54
    },
    {
      "midi": 70,
      "hit": false,
      "t": 223392.7380000019,
      "d": 357.1426666666812,
      "v": 66
    },
    {
      "midi": 67,
      "hit": false,
      "t": 223392.7380000019,
      "d": 491.07116666669026,
      "v": 66
    },
    {
      "midi": 63,
      "hit": false,
      "t": 223392.7380000019,
      "d": 535.7140000000363,
      "v": 70
    },
    {
      "midi": 60,
      "hit": false,
      "t": 223928.45200000194,
      "d": 44.64283333334606,
      "v": 38
    },
    {
      "midi": 67,
      "hit": false,
      "t": 224062.38050000195,
      "d": 22.32141666667303,
      "v": 42
    },
    {
      "midi": 70,
      "hit": false,
      "t": 224062.38050000195,
      "d": 22.32141666667303,
      "v": 50
    },
    {
      "midi": 60,
      "hit": false,
      "t": 224330.23750000197,
      "d": 44.64283333334606,
      "v": 42
    },
    {
      "midi": 65,
      "hit": false,
      "t": 224464.16600000198,
      "d": 513.3925833333342,
      "v": 62
    },
    {
      "midi": 69,
      "hit": false,
      "t": 224464.16600000198,
      "d": 513.3925833333342,
      "v": 66
    },
    {
      "midi": 60,
      "hit": false,
      "t": 224464.16600000198,
      "d": 535.7140000000072,
      "v": 38
    },
    {
      "midi": 60,
      "hit": false,
      "t": 225535.594000002,
      "d": 379.4640833333251,
      "v": 58
    },
    {
      "midi": 70,
      "hit": false,
      "t": 225535.594000002,
      "d": 379.4640833333251,
      "v": 62
    },
    {
      "midi": 67,
      "hit": false,
      "t": 225535.594000002,
      "d": 424.10691666667117,
      "v": 62
    },
    {
      "midi": 63,
      "hit": false,
      "t": 225535.594000002,
      "d": 468.74975000001723,
      "v": 74
    },
    {
      "midi": 60,
      "hit": false,
      "t": 226607.022000002,
      "d": 357.1426666666812,
      "v": 58
    },
    {
      "midi": 70,
      "hit": false,
      "t": 226607.022000002,
      "d": 379.4640833333542,
      "v": 66
    },
    {
      "midi": 67,
      "hit": false,
      "t": 226607.022000002,
      "d": 398.99532291668584,
      "v": 66
    },
    {
      "midi": 63,
      "hit": false,
      "t": 226607.022000002,
      "d": 443.6381562500319,
      "v": 74
    },
    {
      "midi": 67,
      "hit": false,
      "t": 227678.45000000205,
      "d": 334.82125000000815,
      "v": 66
    },
    {
      "midi": 70,
      "hit": false,
      "t": 227678.45000000205,
      "d": 334.82125000000815,
      "v": 62
    },
    {
      "midi": 60,
      "hit": false,
      "t": 227678.45000000205,
      "d": 424.10691666667117,
      "v": 54
    },
    {
      "midi": 63,
      "hit": false,
      "t": 227678.45000000205,
      "d": 468.74975000001723,
      "v": 70
    },
    {
      "midi": 60,
      "hit": false,
      "t": 228214.16400000206,
      "d": 44.64283333334606,
      "v": 50
    },
    {
      "midi": 67,
      "hit": false,
      "t": 228348.09250000207,
      "d": 22.32141666667303,
      "v": 22
    },
    {
      "midi": 70,
      "hit": false,
      "t": 228348.09250000207,
      "d": 22.32141666667303,
      "v": 50
    },
    {
      "midi": 60,
      "hit": false,
      "t": 228615.94950000208,
      "d": 44.64283333334606,
      "v": 46
    },
    {
      "midi": 65,
      "hit": false,
      "t": 228749.8780000021,
      "d": 468.7497499999881,
      "v": 66
    },
    {
      "midi": 69,
      "hit": false,
      "t": 228749.8780000021,
      "d": 468.7497499999881,
      "v": 62
    },
    {
      "midi": 60,
      "hit": false,
      "t": 228749.8780000021,
      "d": 491.07116666666116,
      "v": 42
    },
    {
      "midi": 72,
      "hit": false,
      "t": 229285.5920000021,
      "d": 1674.1062500000116,
      "v": 78
    },
    {
      "midi": 63,
      "hit": false,
      "t": 229285.5920000021,
      "d": 1741.0705000000016,
      "v": 90
    },
    {
      "midi": 67,
      "hit": false,
      "t": 229285.5920000021,
      "d": 1741.0705000000016,
      "v": 82
    },
    {
      "midi": 72,
      "hit": false,
      "t": 231428.4480000021,
      "d": 1741.0705000000016,
      "v": 74
    },
    {
      "midi": 67,
      "hit": false,
      "t": 231428.4480000021,
      "d": 1763.3919166666747,
      "v": 78
    },
    {
      "midi": 63,
      "hit": false,
      "t": 231428.4480000021,
      "d": 1808.0347500000207,
      "v": 90
    },
    {
      "midi": 72,
      "hit": false,
      "t": 233571.30400000213,
      "d": 1760.6017395833333,
      "v": 78
    },
    {
      "midi": 63,
      "hit": false,
      "t": 233571.30400000213,
      "d": 1805.2445729166793,
      "v": 94
    },
    {
      "midi": 67,
      "hit": false,
      "t": 233571.30400000213,
      "d": 1805.2445729166793,
      "v": 82
    },
    {
      "midi": 72,
      "hit": false,
      "t": 235714.16000000213,
      "d": 1782.9231562500063,
      "v": 78
    },
    {
      "midi": 67,
      "hit": false,
      "t": 235714.16000000213,
      "d": 1849.8874062499963,
      "v": 82
    },
    {
      "midi": 63,
      "hit": false,
      "t": 235714.16000000213,
      "d": 1894.5302395833423,
      "v": 94
    },
    {
      "midi": 72,
      "hit": false,
      "t": 237857.01600000213,
      "d": 1805.2445729166793,
      "v": 78
    },
    {
      "midi": 67,
      "hit": false,
      "t": 237857.01600000213,
      "d": 1849.8874062500254,
      "v": 78
    },
    {
      "midi": 63,
      "hit": false,
      "t": 237857.01600000213,
      "d": 1852.6775833333668,
      "v": 94
    },
    {
      "midi": 63,
      "hit": false,
      "t": 239999.87200000216,
      "d": 714.2853333333333,
      "v": 102
    },
    {
      "midi": 67,
      "hit": false,
      "t": 239999.87200000216,
      "d": 733.8165729166649,
      "v": 102
    },
    {
      "midi": 72,
      "hit": false,
      "t": 239999.87200000216,
      "d": 979.35215625001,
      "v": 102
    },
    {
      "midi": 69,
      "hit": false,
      "t": 241071.30000000217,
      "d": 736.6067500000063,
      "v": 102
    },
    {
      "midi": 65,
      "hit": false,
      "t": 241071.30000000217,
      "d": 848.2138333333423,
      "v": 102
    },
    {
      "midi": 72,
      "hit": false,
      "t": 241071.30000000217,
      "d": 982.1423333333514,
      "v": 102
    },
    {
      "midi": 70,
      "hit": false,
      "t": 241071.30000000217,
      "d": 1026.7851666666975,
      "v": 102
    },
    {
      "midi": 63,
      "hit": false,
      "t": 242142.72800000221,
      "d": 267.85699999998906,
      "v": 102
    },
    {
      "midi": 67,
      "hit": false,
      "t": 242142.72800000221,
      "d": 267.85699999998906,
      "v": 102
    },
    {
      "midi": 72,
      "hit": false,
      "t": 242142.72800000221,
      "d": 290.1784166666621,
      "v": 102
    }
  ]
}