{
  "jsonPath": "Jazz/Contemporary Vocal Jazz/Harry Connick, Jr_/begin-the-beguine.json",
  "path": "Jazz\\Contemporary Vocal Jazz\\Harry Connick, Jr_\\Begin The Beguine.mid",
  "name": "Begin The Beguine",
  "difficulty": "Advanced",
  "bpm": 170.0000850000425,
  "notes": [
    {
      "midi": 36,
      "hit": false,
      "t": 38.602921875,
      "d": 1209.55821875,
      "v": 40
    },
    {
      "midi": 43,
      "hit": false,
      "t": 211.396953125,
      "d": 123.161703125,
      "v": 27
    },
    {
      "midi": 42,
      "hit": false,
      "t": 220.58812500000002,
      "d": 47.79409374999997,
      "v": 42
    },
    {
      "midi": 43,
      "hit": false,
      "t": 553.308546875,
      "d": 124.99993749999999,
      "v": 30
    },
    {
      "midi": 42,
      "hit": false,
      "t": 560.6614843750001,
      "d": 40.44115624999995,
      "v": 29
    },
    {
      "midi": 42,
      "hit": false,
      "t": 884.190734375,
      "d": 71.691140625,
      "v": 33
    },
    {
      "midi": 43,
      "hit": false,
      "t": 889.7054375,
      "d": 106.61759374999997,
      "v": 29
    },
    {
      "midi": 43,
      "hit": false,
      "t": 1229.778796875,
      "d": 137.86757812500014,
      "v": 27
    },
    {
      "midi": 42,
      "hit": false,
      "t": 1231.6170312499999,
      "d": 101.1028906250001,
      "v": 26
    },
    {
      "midi": 36,
      "hit": false,
      "t": 1409.925765625,
      "d": 1248.1611406249997,
      "v": 36
    },
    {
      "midi": 43,
      "hit": false,
      "t": 1597.425671875,
      "d": 80.88231250000013,
      "v": 29
    },
    {
      "midi": 42,
      "hit": false,
      "t": 1615.808015625,
      "d": 36.764687500000036,
      "v": 32
    },
    {
      "midi": 42,
      "hit": false,
      "t": 1937.4990312500001,
      "d": 58.82349999999997,
      "v": 34
    },
    {
      "midi": 43,
      "hit": false,
      "t": 1939.337265625,
      "d": 126.83817187499994,
      "v": 33
    },
    {
      "midi": 42,
      "hit": false,
      "t": 2275.73415625,
      "d": 62.49996874999988,
      "v": 29
    },
    {
      "midi": 43,
      "hit": false,
      "t": 2290.44003125,
      "d": 101.10289062499987,
      "v": 35
    },
    {
      "midi": 42,
      "hit": false,
      "t": 2628.67515625,
      "d": 84.55878124999981,
      "v": 29
    },
    {
      "midi": 43,
      "hit": false,
      "t": 2656.2486718749997,
      "d": 266.5439843749996,
      "v": 20
    },
    {
      "midi": 53,
      "hit": false,
      "t": 2814.3368281249996,
      "d": 99.26465624999992,
      "v": 67
    },
    {
      "midi": 36,
      "hit": false,
      "t": 2862.1309218749993,
      "d": 1229.7787968749994,
      "v": 22
    },
    {
      "midi": 51,
      "hit": false,
      "t": 2893.3809062499995,
      "d": 104.77935937499979,
      "v": 50
    },
    {
      "midi": 49,
      "hit": false,
      "t": 2994.4837968749994,
      "d": 1193.0141093749994,
      "v": 57
    },
    {
      "midi": 43,
      "hit": false,
      "t": 3205.8807499999994,
      "d": 66.17643749999979,
      "v": 25
    },
    {
      "midi": 43,
      "hit": false,
      "t": 3433.821812499999,
      "d": 126.83817187499972,
      "v": 39
    },
    {
      "midi": 42,
      "hit": false,
      "t": 3443.0129843749987,
      "d": 25.735281249999844,
      "v": 30
    },
    {
      "midi": 43,
      "hit": false,
      "t": 3753.6745937499986,
      "d": 80.8823124999999,
      "v": 29
    },
    {
      "midi": 42,
      "hit": false,
      "t": 3757.3510624999985,
      "d": 56.98526562500001,
      "v": 32
    },
    {
      "midi": 43,
      "hit": false,
      "t": 4075.3656093749987,
      "d": 143.38228125000023,
      "v": 35
    },
    {
      "midi": 42,
      "hit": false,
      "t": 4091.909718749999,
      "d": 86.39701562500022,
      "v": 18
    },
    {
      "midi": 36,
      "hit": false,
      "t": 4255.512578124999,
      "d": 1237.1317343750015,
      "v": 41
    },
    {
      "midi": 53,
      "hit": false,
      "t": 4261.027281249999,
      "d": 88.23525000000063,
      "v": 62
    },
    {
      "midi": 51,
      "hit": false,
      "t": 4319.850781249999,
      "d": 143.38228125000023,
      "v": 53
    },
    {
      "midi": 49,
      "hit": false,
      "t": 4431.983078124999,
      "d": 1185.6611718750019,
      "v": 55
    },
    {
      "midi": 43,
      "hit": false,
      "t": 4527.571265625,
      "d": 60.66173437500038,
      "v": 22
    },
    {
      "midi": 42,
      "hit": false,
      "t": 4762.865265625001,
      "d": 33.088218750000124,
      "v": 40
    },
    {
      "midi": 43,
      "hit": false,
      "t": 4762.865265625001,
      "d": 101.10289062500033,
      "v": 43
    },
    {
      "midi": 43,
      "hit": false,
      "t": 5090.070984375001,
      "d": 113.97053125000002,
      "v": 38
    },
    {
      "midi": 42,
      "hit": false,
      "t": 5091.909218750001,
      "d": 38.60292187499999,
      "v": 36
    },
    {
      "midi": 42,
      "hit": false,
      "t": 5465.070796875001,
      "d": 62.499968749999425,
      "v": 27
    },
    {
      "midi": 43,
      "hit": false,
      "t": 5474.261968750001,
      "d": 117.64699999999993,
      "v": 20
    },
    {
      "midi": 48,
      "hit": false,
      "t": 5626.835421875001,
      "d": 2430.1458437499987,
      "v": 54
    },
    {
      "midi": 36,
      "hit": false,
      "t": 5645.2177656250005,
      "d": 1257.3523124999992,
      "v": 36
    },
    {
      "midi": 43,
      "hit": false,
      "t": 5819.850031250001,
      "d": 79.04407812499994,
      "v": 33
    },
    {
      "midi": 42,
      "hit": false,
      "t": 5832.717671875001,
      "d": 29.41175000000021,
      "v": 25
    },
    {
      "midi": 42,
      "hit": false,
      "t": 6141.541046875001,
      "d": 68.0146718750002,
      "v": 36
    },
    {
      "midi": 43,
      "hit": false,
      "t": 6147.05575,
      "d": 139.70581250000032,
      "v": 33
    },
    {
      "midi": 42,
      "hit": false,
      "t": 6533.08496875,
      "d": 69.85290625000016,
      "v": 34
    },
    {
      "midi": 43,
      "hit": false,
      "t": 6533.08496875,
      "d": 154.41168749999997,
      "v": 32
    },
    {
      "midi": 43,
      "hit": false,
      "t": 6895.217140625,
      "d": 154.41168749999997,
      "v": 31
    },
    {
      "midi": 42,
      "hit": false,
      "t": 6897.055375,
      "d": 112.13229687500007,
      "v": 29
    },
    {
      "midi": 36,
      "hit": false,
      "t": 7084.55528125,
      "d": 1334.5581562500001,
      "v": 33
    },
    {
      "midi": 43,
      "hit": false,
      "t": 7261.02578125,
      "d": 91.91171874999964,
      "v": 22
    },
    {
      "midi": 42,
      "hit": false,
      "t": 7272.0551875,
      "d": 53.30879687499964,
      "v": 32
    },
    {
      "midi": 42,
      "hit": false,
      "t": 7617.64325,
      "d": 25.73528124999939,
      "v": 31
    },
    {
      "midi": 43,
      "hit": false,
      "t": 7626.834421875,
      "d": 97.4264218749995,
      "v": 34
    },
    {
      "midi": 42,
      "hit": false,
      "t": 7963.231312499999,
      "d": 31.249984375000167,
      "v": 33
    },
    {
      "midi": 43,
      "hit": false,
      "t": 7974.260718749999,
      "d": 79.04407812500085,
      "v": 36
    },
    {
      "midi": 42,
      "hit": false,
      "t": 8299.628203125,
      "d": 75.36760937500003,
      "v": 31
    },
    {
      "midi": 43,
      "hit": false,
      "t": 8325.363484374999,
      "d": 213.2351875000004,
      "v": 33
    },
    {
      "midi": 58,
      "hit": false,
      "t": 8501.833984375,
      "d": 1354.7787343750006,
      "v": 59
    },
    {
      "midi": 36,
      "hit": false,
      "t": 8533.08396875,
      "d": 959.5583437500009,
      "v": 32
    },
    {
      "midi": 56,
      "hit": false,
      "t": 8582.716296875,
      "d": 110.2940624999992,
      "v": 49
    },
    {
      "midi": 53,
      "hit": false,
      "t": 8702.201531249999,
      "d": 1165.4405937500014,
      "v": 57
    },
    {
      "midi": 43,
      "hit": false,
      "t": 9009.186671874999,
      "d": 58.82350000000042,
      "v": 33
    },
    {
      "midi": 42,
      "hit": false,
      "t": 9347.421796875,
      "d": 23.897046874999432,
      "v": 35
    },
    {
      "midi": 43,
      "hit": false,
      "t": 9362.127671875,
      "d": 544.1173749999998,
      "v": 37
    },
    {
      "midi": 36,
      "hit": false,
      "t": 9709.55396875,
      "d": 42.279390625000815,
      "v": 30
    },
    {
      "midi": 56,
      "hit": false,
      "t": 9889.7009375,
      "d": 176.47049999999945,
      "v": 52
    },
    {
      "midi": 36,
      "hit": false,
      "t": 9911.75975,
      "d": 1246.3229062499959,
      "v": 32
    },
    {
      "midi": 55,
      "hit": false,
      "t": 9976.097953125,
      "d": 95.58818749999955,
      "v": 44
    },
    {
      "midi": 53,
      "hit": false,
      "t": 10080.877312499999,
      "d": 1181.9847031249974,
      "v": 55
    },
    {
      "midi": 42,
      "hit": false,
      "t": 10404.406562499998,
      "d": 29.4117499999993,
      "v": 39
    },
    {
      "midi": 43,
      "hit": false,
      "t": 10409.921265624998,
      "d": 132.35287499999868,
      "v": 40
    },
    {
      "midi": 42,
      "hit": false,
      "t": 10773.891671874997,
      "d": 33.088218749999214,
      "v": 38
    },
    {
      "midi": 43,
      "hit": false,
      "t": 10786.759312499997,
      "d": 84.55878124999981,
      "v": 35
    },
    {
      "midi": 42,
      "hit": false,
      "t": 11097.420921874997,
      "d": 101.10289062499942,
      "v": 33
    },
    {
      "midi": 43,
      "hit": false,
      "t": 11126.832671874996,
      "d": 163.60285937499975,
      "v": 32
    },
    {
      "midi": 52,
      "hit": false,
      "t": 11277.567890624996,
      "d": 2012.8666406249977,
      "v": 52
    },
    {
      "midi": 36,
      "hit": false,
      "t": 11294.111999999996,
      "d": 1283.0875937499986,
      "v": 49
    },
    {
      "midi": 43,
      "hit": false,
      "t": 11485.288374999996,
      "d": 71.6911406249983,
      "v": 22
    },
    {
      "midi": 42,
      "hit": false,
      "t": 11494.479546874996,
      "d": 31.249984374999258,
      "v": 25
    },
    {
      "midi": 42,
      "hit": false,
      "t": 11829.038203124996,
      "d": 31.249984374999258,
      "v": 33
    },
    {
      "midi": 43,
      "hit": false,
      "t": 11830.876437499996,
      "d": 115.80876562499907,
      "v": 33
    },
    {
      "midi": 42,
      "hit": false,
      "t": 12174.626265624995,
      "d": 73.52937500000007,
      "v": 33
    },
    {
      "midi": 43,
      "hit": false,
      "t": 12181.979203124994,
      "d": 115.80876562500089,
      "v": 34
    },
    {
      "midi": 42,
      "hit": false,
      "t": 12531.243734374995,
      "d": 104.77935937499933,
      "v": 36
    },
    {
      "midi": 43,
      "hit": false,
      "t": 12540.434906249995,
      "d": 139.70581250000032,
      "v": 31
    },
    {
      "midi": 36,
      "hit": false,
      "t": 12713.228937499995,
      "d": 1281.2493593749969,
      "v": 37
    },
    {
      "midi": 42,
      "hit": false,
      "t": 12909.920015624995,
      "d": 27.573515624999345,
      "v": 28
    },
    {
      "midi": 43,
      "hit": false,
      "t": 12911.758249999995,
      "d": 68.0146718750002,
      "v": 24
    },
    {
      "midi": 42,
      "hit": false,
      "t": 13231.611031249995,
      "d": 23.897046874999432,
      "v": 34
    },
    {
      "midi": 43,
      "hit": false,
      "t": 13242.640437499995,
      "d": 97.4264218749995,
      "v": 36
    },
    {
      "midi": 42,
      "hit": false,
      "t": 13599.257906249994,
      "d": 23.897046874999432,
      "v": 37
    },
    {
      "midi": 43,
      "hit": false,
      "t": 13608.449078124993,
      "d": 91.91171874999964,
      "v": 37
    },
    {
      "midi": 42,
      "hit": false,
      "t": 13963.228312499992,
      "d": 106.61759374999929,
      "v": 31
    },
    {
      "midi": 43,
      "hit": false,
      "t": 13970.581249999992,
      "d": 154.41168749999997,
      "v": 24
    },
    {
      "midi": 57,
      "hit": false,
      "t": 14117.639999999992,
      "d": 176.47049999999945,
      "v": 30
    },
    {
      "midi": 52,
      "hit": false,
      "t": 14123.154703124992,
      "d": 84.55878124999981,
      "v": 54
    },
    {
      "midi": 55,
      "hit": false,
      "t": 14132.345874999992,
      "d": 112.13229687499916,
      "v": 53
    },
    {
      "midi": 60,
      "hit": false,
      "t": 14134.184109374992,
      "d": 101.10289062499942,
      "v": 36
    },
    {
      "midi": 36,
      "hit": false,
      "t": 14141.537046874992,
      "d": 1272.0581874999953,
      "v": 38
    },
    {
      "midi": 53,
      "hit": false,
      "t": 14294.110499999992,
      "d": 176.47049999999763,
      "v": 40
    },
    {
      "midi": 62,
      "hit": false,
      "t": 14330.87518749999,
      "d": 66.17643749999843,
      "v": 51
    },
    {
      "midi": 57,
      "hit": false,
      "t": 14334.55165624999,
      "d": 60.66173437499856,
      "v": 37
    },
    {
      "midi": 59,
      "hit": false,
      "t": 14358.44870312499,
      "d": 45.95585937499891,
      "v": 39
    },
    {
      "midi": 64,
      "hit": false,
      "t": 14485.286874999989,
      "d": 102.94112499999937,
      "v": 49
    },
    {
      "midi": 55,
      "hit": false,
      "t": 14492.639812499989,
      "d": 75.36760937500003,
      "v": 47
    },
    {
      "midi": 60,
      "hit": false,
      "t": 14492.639812499989,
      "d": 102.94112499999937,
      "v": 46
    },
    {
      "midi": 59,
      "hit": false,
      "t": 14498.154515624989,
      "d": 97.4264218749995,
      "v": 60
    },
    {
      "midi": 42,
      "hit": false,
      "t": 14656.242671874988,
      "d": 62.499968749998516,
      "v": 32
    },
    {
      "midi": 67,
      "hit": false,
      "t": 14702.198531249987,
      "d": 1090.0729843749996,
      "v": 69
    },
    {
      "midi": 59,
      "hit": false,
      "t": 14707.713234374987,
      "d": 1136.0288437500003,
      "v": 69
    },
    {
      "midi": 62,
      "hit": false,
      "t": 14713.227937499987,
      "d": 1090.0729843749996,
      "v": 67
    },
    {
      "midi": 64,
      "hit": false,
      "t": 14724.257343749987,
      "d": 1058.8230000000003,
      "v": 57
    },
    {
      "midi": 43,
      "hit": false,
      "t": 14729.772046874987,
      "d": 115.80876562500089,
      "v": 39
    },
    {
      "midi": 43,
      "hit": false,
      "t": 15029.404249999987,
      "d": 71.69114062500012,
      "v": 45
    },
    {
      "midi": 42,
      "hit": false,
      "t": 15371.315843749988,
      "d": 91.91171874999964,
      "v": 36
    },
    {
      "midi": 43,
      "hit": false,
      "t": 15382.345249999988,
      "d": 126.83817187500063,
      "v": 33
    },
    {
      "midi": 36,
      "hit": false,
      "t": 15549.624578124989,
      "d": 1253.6758437500102,
      "v": 44
    },
    {
      "midi": 43,
      "hit": false,
      "t": 15740.800953124988,
      "d": 141.54404687500028,
      "v": 20
    },
    {
      "midi": 42,
      "hit": false,
      "t": 15744.477421874988,
      "d": 23.897046874999432,
      "v": 30
    },
    {
      "midi": 42,
      "hit": false,
      "t": 16038.594921874988,
      "d": 25.73528124999939,
      "v": 27
    },
    {
      "midi": 59,
      "hit": false,
      "t": 16055.139031249988,
      "d": 66.17643750000025,
      "v": 45
    },
    {
      "midi": 55,
      "hit": false,
      "t": 16060.653734374988,
      "d": 53.30879687500055,
      "v": 37
    },
    {
      "midi": 64,
      "hit": false,
      "t": 16060.653734374988,
      "d": 66.17643750000025,
      "v": 44
    },
    {
      "midi": 43,
      "hit": false,
      "t": 16064.330203124988,
      "d": 88.23524999999972,
      "v": 39
    },
    {
      "midi": 60,
      "hit": false,
      "t": 16068.006671874988,
      "d": 64.33820312500029,
      "v": 33
    },
    {
      "midi": 62,
      "hit": false,
      "t": 16384.182984374987,
      "d": 64.33820312500393,
      "v": 57
    },
    {
      "midi": 57,
      "hit": false,
      "t": 16386.02121874999,
      "d": 79.04407812500358,
      "v": 49
    },
    {
      "midi": 43,
      "hit": false,
      "t": 16391.53592187499,
      "d": 314.33807812500527,
      "v": 36
    },
    {
      "midi": 53,
      "hit": false,
      "t": 16395.21239062499,
      "d": 97.42642187500314,
      "v": 39
    },
    {
      "midi": 59,
      "hit": false,
      "t": 16411.756499999992,
      "d": 176.47050000000309,
      "v": 40
    },
    {
      "midi": 60,
      "hit": false,
      "t": 16564.329953124994,
      "d": 143.38228125000387,
      "v": 24
    },
    {
      "midi": 52,
      "hit": false,
      "t": 16588.226999999995,
      "d": 80.88231250000172,
      "v": 24
    },
    {
      "midi": 42,
      "hit": false,
      "t": 16746.31515625,
      "d": 117.64700000000084,
      "v": 31
    },
    {
      "midi": 64,
      "hit": false,
      "t": 16897.050375,
      "d": 1913.601984375,
      "v": 44
    },
    {
      "midi": 55,
      "hit": false,
      "t": 16902.565078125,
      "d": 1939.3372656249994,
      "v": 38
    },
    {
      "midi": 59,
      "hit": false,
      "t": 16906.241546875,
      "d": 1900.7343437499985,
      "v": 43
    },
    {
      "midi": 36,
      "hit": false,
      "t": 16913.594484375,
      "d": 985.2936249999984,
      "v": 34
    },
    {
      "midi": 60,
      "hit": false,
      "t": 16915.432718750002,
      "d": 1902.5725781249967,
      "v": 30
    },
    {
      "midi": 43,
      "hit": false,
      "t": 17117.6385,
      "d": 104.77935937499933,
      "v": 33
    },
    {
      "midi": 43,
      "hit": false,
      "t": 17470.5795,
      "d": 193.01460937500087,
      "v": 44
    },
    {
      "midi": 42,
      "hit": false,
      "t": 17476.094203125,
      "d": 64.33820312500029,
      "v": 42
    },
    {
      "midi": 42,
      "hit": false,
      "t": 17819.84403125,
      "d": 101.10289062499942,
      "v": 37
    },
    {
      "midi": 43,
      "hit": false,
      "t": 17823.5205,
      "d": 525.7350312499984,
      "v": 43
    },
    {
      "midi": 36,
      "hit": false,
      "t": 18161.755624999998,
      "d": 38.6029218750009,
      "v": 57
    },
    {
      "midi": 36,
      "hit": false,
      "t": 18349.255531249997,
      "d": 1261.0287812500137,
      "v": 55
    },
    {
      "midi": 43,
      "hit": false,
      "t": 18555.137781249996,
      "d": 126.83817187500244,
      "v": 44
    },
    {
      "midi": 42,
      "hit": false,
      "t": 18560.652484374998,
      "d": 23.89704687500125,
      "v": 25
    },
    {
      "midi": 43,
      "hit": false,
      "t": 18887.858203125,
      "d": 198.52931250000256,
      "v": 57
    },
    {
      "midi": 42,
      "hit": false,
      "t": 18891.534671875,
      "d": 34.92645312500099,
      "v": 39
    },
    {
      "midi": 60,
      "hit": false,
      "t": 19229.769796875004,
      "d": 82.72054687500349,
      "v": 46
    },
    {
      "midi": 55,
      "hit": false,
      "t": 19233.446265625003,
      "d": 102.94112500000483,
      "v": 52
    },
    {
      "midi": 52,
      "hit": false,
      "t": 19235.284500000005,
      "d": 53.30879687500055,
      "v": 50
    },
    {
      "midi": 42,
      "hit": false,
      "t": 19237.122734375007,
      "d": 25.73528124999939,
      "v": 27
    },
    {
      "midi": 57,
      "hit": false,
      "t": 19237.122734375007,
      "d": 97.4264218749995,
      "v": 55
    },
    {
      "midi": 43,
      "hit": false,
      "t": 19240.799203125007,
      "d": 222.42635937500017,
      "v": 46
    },
    {
      "midi": 60,
      "hit": false,
      "t": 19536.754937500005,
      "d": 104.7793593750066,
      "v": 41
    },
    {
      "midi": 52,
      "hit": false,
      "t": 19544.107875000005,
      "d": 119.48523437500626,
      "v": 47
    },
    {
      "midi": 55,
      "hit": false,
      "t": 19545.946109375007,
      "d": 123.16170312500617,
      "v": 53
    },
    {
      "midi": 42,
      "hit": false,
      "t": 19551.46081250001,
      "d": 80.88231250000172,
      "v": 34
    },
    {
      "midi": 57,
      "hit": false,
      "t": 19558.81375000001,
      "d": 123.16170312500617,
      "v": 44
    },
    {
      "midi": 43,
      "hit": false,
      "t": 19568.00492187501,
      "d": 194.8528437500063,
      "v": 50
    },
    {
      "midi": 36,
      "hit": false,
      "t": 19742.637187500015,
      "d": 1340.072859375021,
      "v": 61
    },
    {
      "midi": 52,
      "hit": false,
      "t": 19746.313656250015,
      "d": 69.85290625000562,
      "v": 38
    },
    {
      "midi": 60,
      "hit": false,
      "t": 19748.151890625017,
      "d": 75.36760937500367,
      "v": 39
    },
    {
      "midi": 55,
      "hit": false,
      "t": 19751.828359375017,
      "d": 101.1028906250067,
      "v": 41
    },
    {
      "midi": 57,
      "hit": false,
      "t": 19764.696000000018,
      "d": 176.47050000000309,
      "v": 45
    },
    {
      "midi": 59,
      "hit": false,
      "t": 19847.41654687502,
      "d": 31.249984375001077,
      "v": 19
    },
    {
      "midi": 53,
      "hit": false,
      "t": 19954.034140625023,
      "d": 42.27939062500445,
      "v": 41
    },
    {
      "midi": 62,
      "hit": false,
      "t": 19955.872375000024,
      "d": 60.661734375004016,
      "v": 55
    },
    {
      "midi": 57,
      "hit": false,
      "t": 19959.548843750028,
      "d": 69.85290625000198,
      "v": 39
    },
    {
      "midi": 59,
      "hit": false,
      "t": 20108.44582812503,
      "d": 9.1911718750016,
      "v": 43
    },
    {
      "midi": 55,
      "hit": false,
      "t": 20108.44582812503,
      "d": 36.764687500002765,
      "v": 42
    },
    {
      "midi": 64,
      "hit": false,
      "t": 20110.28406250003,
      "d": 66.17643750000207,
      "v": 50
    },
    {
      "midi": 60,
      "hit": false,
      "t": 20123.151703125033,
      "d": 40.44115624999904,
      "v": 48
    },
    {
      "midi": 69,
      "hit": false,
      "t": 20340.06335937503,
      "d": 954.0436406250083,
      "v": 74
    },
    {
      "midi": 43,
      "hit": false,
      "t": 20341.901593750033,
      "d": 174.63226562500495,
      "v": 62
    },
    {
      "midi": 63,
      "hit": false,
      "t": 20343.739828125035,
      "d": 1272.0581875000134,
      "v": 56
    },
    {
      "midi": 57,
      "hit": false,
      "t": 20349.254531250037,
      "d": 920.9554218750018,
      "v": 55
    },
    {
      "midi": 59,
      "hit": false,
      "t": 20352.931000000037,
      "d": 141.5440468750021,
      "v": 66
    },
    {
      "midi": 65,
      "hit": false,
      "t": 20358.44570312504,
      "d": 966.9112812500025,
      "v": 59
    },
    {
      "midi": 67,
      "hit": false,
      "t": 20376.828046875038,
      "d": 950.3671718750047,
      "v": 27
    },
    {
      "midi": 43,
      "hit": false,
      "t": 20694.84259375004,
      "d": 93.74995312499959,
      "v": 51
    },
    {
      "midi": 42,
      "hit": false,
      "t": 20716.90140625004,
      "d": 25.73528124999939,
      "v": 39
    },
    {
      "midi": 43,
      "hit": false,
      "t": 21027.563015625037,
      "d": 150.73521875000006,
      "v": 41
    },
    {
      "midi": 42,
      "hit": false,
      "t": 21031.239484375037,
      "d": 101.10289062499942,
      "v": 37
    },
    {
      "midi": 36,
      "hit": false,
      "t": 21193.004109375037,
      "d": 1148.896484375029,
      "v": 60
    },
    {
      "midi": 59,
      "hit": false,
      "t": 21404.40106250004,
      "d": 202.2057812500061,
      "v": 57
    },
    {
      "midi": 67,
      "hit": false,
      "t": 21406.239296875043,
      "d": 231.6175312500054,
      "v": 47
    },
    {
      "midi": 62,
      "hit": false,
      "t": 21415.430468750044,
      "d": 185.66167187500105,
      "v": 57
    },
    {
      "midi": 64,
      "hit": false,
      "t": 21424.621640625046,
      "d": 152.5734531249982,
      "v": 45
    },
    {
      "midi": 43,
      "hit": false,
      "t": 21446.680453125045,
      "d": 75.36760937500003,
      "v": 32
    },
    {
      "midi": 42,
      "hit": false,
      "t": 21722.41560937505,
      "d": 27.573515625004802,
      "v": 32
    },
    {
      "midi": 67,
      "hit": false,
      "t": 21722.41560937505,
      "d": 147.05875000000742,
      "v": 55
    },
    {
      "midi": 62,
      "hit": false,
      "t": 21729.76854687505,
      "d": 119.48523437500626,
      "v": 68
    },
    {
      "midi": 64,
      "hit": false,
      "t": 21731.60678125005,
      "d": 104.77935937500297,
      "v": 59
    },
    {
      "midi": 59,
      "hit": false,
      "t": 21731.60678125005,
      "d": 167.27932812500512,
      "v": 63
    },
    {
      "midi": 43,
      "hit": false,
      "t": 21740.797953125053,
      "d": 248.1616406250032,
      "v": 54
    },
    {
      "midi": 42,
      "hit": false,
      "t": 22018.371343750056,
      "d": 62.49996875000579,
      "v": 32
    },
    {
      "midi": 65,
      "hit": false,
      "t": 22064.327203125056,
      "d": 200.36754687500797,
      "v": 56
    },
    {
      "midi": 61,
      "hit": false,
      "t": 22066.165437500058,
      "d": 312.49984375000713,
      "v": 52
    },
    {
      "midi": 58,
      "hit": false,
      "t": 22068.00367187506,
      "d": 257.3528125000048,
      "v": 61
    },
    {
      "midi": 55,
      "hit": false,
      "t": 22077.19484375006,
      "d": 176.47050000000309,
      "v": 57
    },
    {
      "midi": 43,
      "hit": false,
      "t": 22090.062484375063,
      "d": 384.1909843750036,
      "v": 46
    },
    {
      "midi": 64,
      "hit": false,
      "t": 22237.121234375063,
      "d": 220.58812500000204,
      "v": 45
    },
    {
      "midi": 36,
      "hit": false,
      "t": 22408.077031250064,
      "d": 80.88231250000172,
      "v": 38
    },
    {
      "midi": 42,
      "hit": false,
      "t": 22431.974078125066,
      "d": 104.77935937499933,
      "v": 25
    },
    {
      "midi": 65,
      "hit": false,
      "t": 22580.871062500064,
      "d": 194.85284375000265,
      "v": 59
    },
    {
      "midi": 57,
      "hit": false,
      "t": 22582.709296875066,
      "d": 204.0440156250006,
      "v": 66
    },
    {
      "midi": 60,
      "hit": false,
      "t": 22591.900468750067,
      "d": 154.41168749999997,
      "v": 53
    },
    {
      "midi": 38,
      "hit": false,
      "t": 22591.900468750067,
      "d": 1389.705187500007,
      "v": 67
    },
    {
      "midi": 62,
      "hit": false,
      "t": 22595.576937500067,
      "d": 90.07348437499968,
      "v": 54
    },
    {
      "midi": 62,
      "hit": false,
      "t": 22919.106187500067,
      "d": 1511.0286562500114,
      "v": 46
    },
    {
      "midi": 53,
      "hit": false,
      "t": 22930.135593750067,
      "d": 117.64700000000084,
      "v": 35
    },
    {
      "midi": 57,
      "hit": false,
      "t": 22943.003234375068,
      "d": 110.29406250000102,
      "v": 34
    },
    {
      "midi": 57,
      "hit": false,
      "t": 23108.444328125068,
      "d": 919.1171875000073,
      "v": 28
    },
    {
      "midi": 53,
      "hit": false,
      "t": 23110.28256250007,
      "d": 909.9260156250057,
      "v": 20
    },
    {
      "midi": 45,
      "hit": false,
      "t": 23134.17960937507,
      "d": 202.20578124999884,
      "v": 64
    },
    {
      "midi": 44,
      "hit": false,
      "t": 23455.87062500007,
      "d": 69.85290625000198,
      "v": 44
    },
    {
      "midi": 45,
      "hit": false,
      "t": 23461.38532812507,
      "d": 115.80876562499907,
      "v": 51
    },
    {
      "midi": 45,
      "hit": false,
      "t": 23801.458687500068,
      "d": 101.1028906250067,
      "v": 46
    },
    {
      "midi": 44,
      "hit": false,
      "t": 23806.97339062507,
      "d": 80.88231250000172,
      "v": 38
    },
    {
      "midi": 43,
      "hit": false,
      "t": 23990.796828125076,
      "d": 354.77923437500067,
      "v": 41
    },
    {
      "midi": 53,
      "hit": false,
      "t": 24193.002609375075,
      "d": 108.45582812500288,
      "v": 46
    },
    {
      "midi": 57,
      "hit": false,
      "t": 24200.355546875075,
      "d": 112.1322968750028,
      "v": 48
    },
    {
      "midi": 60,
      "hit": false,
      "t": 24209.546718750076,
      "d": 117.64700000000084,
      "v": 26
    },
    {
      "midi": 61,
      "hit": false,
      "t": 24514.693625000076,
      "d": 281.2498593750024,
      "v": 50
    },
    {
      "midi": 58,
      "hit": false,
      "t": 24518.370093750076,
      "d": 266.5439843749991,
      "v": 55
    },
    {
      "midi": 55,
      "hit": false,
      "t": 24520.208328125078,
      "d": 238.97046874999796,
      "v": 49
    },
    {
      "midi": 45,
      "hit": false,
      "t": 24534.914203125078,
      "d": 251.83810937499948,
      "v": 44
    },
    {
      "midi": 64,
      "hit": false,
      "t": 24867.63462500008,
      "d": 187.49990625000646,
      "v": 66
    },
    {
      "midi": 58,
      "hit": false,
      "t": 24871.31109375008,
      "d": 143.38228125000387,
      "v": 64
    },
    {
      "midi": 61,
      "hit": false,
      "t": 24871.31109375008,
      "d": 156.24992187500538,
      "v": 57
    },
    {
      "midi": 55,
      "hit": false,
      "t": 24878.66403125008,
      "d": 86.3970156250034,
      "v": 58
    },
    {
      "midi": 45,
      "hit": false,
      "t": 24880.50226562508,
      "d": 99.26465625000128,
      "v": 55
    },
    {
      "midi": 74,
      "hit": false,
      "t": 25413.590234375086,
      "d": 305.14690625001094,
      "v": 54
    },
    {
      "midi": 67,
      "hit": false,
      "t": 25417.266703125086,
      "d": 124.99993750000067,
      "v": 33
    },
    {
      "midi": 56,
      "hit": false,
      "t": 25420.943171875086,
      "d": 183.8234375000029,
      "v": 40
    },
    {
      "midi": 62,
      "hit": false,
      "t": 25426.457875000087,
      "d": 128.67640625000058,
      "v": 47
    },
    {
      "midi": 66,
      "hit": false,
      "t": 25667.26657812509,
      "d": 123.16170312500617,
      "v": 42
    },
    {
      "midi": 76,
      "hit": false,
      "t": 25672.781281250092,
      "d": 202.2057812500061,
      "v": 57
    },
    {
      "midi": 61,
      "hit": false,
      "t": 25674.619515625094,
      "d": 220.58812500000568,
      "v": 43
    },
    {
      "midi": 55,
      "hit": false,
      "t": 25676.457750000096,
      "d": 88.23525000000154,
      "v": 37
    },
    {
      "midi": 65,
      "hit": false,
      "t": 25906.2370468751,
      "d": 71.69114062500375,
      "v": 44
    },
    {
      "midi": 77,
      "hit": false,
      "t": 25911.7517500001,
      "d": 66.17643750000207,
      "v": 47
    },
    {
      "midi": 54,
      "hit": false,
      "t": 25919.1046875001,
      "d": 161.76462500000343,
      "v": 38
    },
    {
      "midi": 60,
      "hit": false,
      "t": 25924.619390625103,
      "d": 73.52937500000189,
      "v": 36
    },
    {
      "midi": 86,
      "hit": false,
      "t": 26455.869125000103,
      "d": 369.4851093750076,
      "v": 77
    },
    {
      "midi": 64,
      "hit": false,
      "t": 26461.383828125105,
      "d": 450.3674218750057,
      "v": 71
    },
    {
      "midi": 74,
      "hit": false,
      "t": 26463.222062500106,
      "d": 446.6909531250021,
      "v": 74
    },
    {
      "midi": 53,
      "hit": false,
      "t": 26465.060296875108,
      "d": 459.55859375000364,
      "v": 68
    },
    {
      "midi": 59,
      "hit": false,
      "t": 26470.57500000011,
      "d": 424.632140624999,
      "v": 58
    },
    {
      "midi": 67,
      "hit": false,
      "t": 27465.059796875114,
      "d": 58.82350000000224,
      "v": 38
    },
    {
      "midi": 74,
      "hit": false,
      "t": 27522.045062500114,
      "d": 176.47050000000672,
      "v": 47
    },
    {
      "midi": 69,
      "hit": false,
      "t": 27525.721531250118,
      "d": 185.66167187500469,
      "v": 38
    },
    {
      "midi": 77,
      "hit": false,
      "t": 27529.398000000117,
      "d": 200.36754687500797,
      "v": 38
    },
    {
      "midi": 84,
      "hit": false,
      "t": 27534.91270312512,
      "d": 139.70581250000032,
      "v": 38
    },
    {
      "midi": 81,
      "hit": false,
      "t": 27540.42740625012,
      "d": 143.38228125000023,
      "v": 40
    },
    {
      "midi": 67,
      "hit": false,
      "t": 27727.927312500124,
      "d": 112.1322968750028,
      "v": 35
    },
    {
      "midi": 83,
      "hit": false,
      "t": 27742.633187500127,
      "d": 97.4264218749995,
      "v": 51
    },
    {
      "midi": 65,
      "hit": false,
      "t": 27874.986062500127,
      "d": 191.1763749999991,
      "v": 32
    },
    {
      "midi": 81,
      "hit": false,
      "t": 27911.750750000127,
      "d": 139.70581250000032,
      "v": 27
    },
    {
      "midi": 84,
      "hit": false,
      "t": 28079.030078125128,
      "d": 68.0146718750002,
      "v": 60
    },
    {
      "midi": 69,
      "hit": false,
      "t": 28095.57418750013,
      "d": 51.47056249999878,
      "v": 40
    },
    {
      "midi": 77,
      "hit": false,
      "t": 28099.25065625013,
      "d": 36.76468749999913,
      "v": 39
    },
    {
      "midi": 74,
      "hit": false,
      "t": 28106.60359375013,
      "d": 47.794093749998865,
      "v": 32
    },
    {
      "midi": 81,
      "hit": false,
      "t": 28417.265203125127,
      "d": 176.47050000000672,
      "v": 43
    },
    {
      "midi": 72,
      "hit": false,
      "t": 28430.13284375013,
      "d": 158.08815625000352,
      "v": 32
    },
    {
      "midi": 65,
      "hit": false,
      "t": 28433.80931250013,
      "d": 163.6028593750052,
      "v": 43
    },
    {
      "midi": 77,
      "hit": false,
      "t": 28446.67695312513,
      "d": 132.3528750000005,
      "v": 34
    },
    {
      "midi": 74,
      "hit": false,
      "t": 28454.02989062513,
      "d": 126.83817187500244,
      "v": 22
    },
    {
      "midi": 61,
      "hit": false,
      "t": 28766.529734375134,
      "d": 148.89698437500192,
      "v": 38
    },
    {
      "midi": 76,
      "hit": false,
      "t": 28770.206203125133,
      "d": 128.67640625000058,
      "v": 40
    },
    {
      "midi": 73,
      "hit": false,
      "t": 28777.559140625133,
      "d": 101.10289062499942,
      "v": 31
    },
    {
      "midi": 69,
      "hit": false,
      "t": 28781.235609375133,
      "d": 101.10289062499942,
      "v": 34
    },
    {
      "midi": 79,
      "hit": false,
      "t": 28935.647296875137,
      "d": 112.13229687500643,
      "v": 50
    },
    {
      "midi": 73,
      "hit": false,
      "t": 28941.16200000014,
      "d": 152.57345312500547,
      "v": 21
    },
    {
      "midi": 64,
      "hit": false,
      "t": 28946.67670312514,
      "d": 209.5587187500023,
      "v": 36
    },
    {
      "midi": 69,
      "hit": false,
      "t": 28959.54434375014,
      "d": 134.19110937500227,
      "v": 24
    },
    {
      "midi": 77,
      "hit": false,
      "t": 29148.882484375143,
      "d": 69.85290625000198,
      "v": 52
    },
    {
      "midi": 69,
      "hit": false,
      "t": 29152.558953125143,
      "d": 60.66173437500038,
      "v": 34
    },
    {
      "midi": 72,
      "hit": false,
      "t": 29158.073656250144,
      "d": 47.794093749998865,
      "v": 41
    },
    {
      "midi": 62,
      "hit": false,
      "t": 29176.456000000144,
      "d": 33.088218749999214,
      "v": 39
    },
    {
      "midi": 76,
      "hit": false,
      "t": 29476.088203125146,
      "d": 82.72054687500349,
      "v": 46
    },
    {
      "midi": 65,
      "hit": false,
      "t": 29479.764671875146,
      "d": 56.985265625000466,
      "v": 45
    },
    {
      "midi": 61,
      "hit": false,
      "t": 29483.441140625146,
      "d": 73.52937500000189,
      "v": 39
    },
    {
      "midi": 69,
      "hit": false,
      "t": 29490.794078125145,
      "d": 45.95585937500073,
      "v": 44
    },
    {
      "midi": 73,
      "hit": false,
      "t": 29494.470546875145,
      "d": 36.76468749999913,
      "v": 29
    },
    {
      "midi": 74,
      "hit": false,
      "t": 29817.99979687515,
      "d": 45.95585937500073,
      "v": 33
    },
    {
      "midi": 65,
      "hit": false,
      "t": 29821.67626562515,
      "d": 64.33820312500029,
      "v": 38
    },
    {
      "midi": 60,
      "hit": false,
      "t": 29825.35273437515,
      "d": 128.67640625000058,
      "v": 31
    },
    {
      "midi": 72,
      "hit": false,
      "t": 29985.27912500015,
      "d": 150.73521875000733,
      "v": 37
    },
    {
      "midi": 57,
      "hit": false,
      "t": 30005.49970312515,
      "d": 284.92632812500597,
      "v": 39
    },
    {
      "midi": 62,
      "hit": false,
      "t": 30007.337937500153,
      "d": 158.08815625000352,
      "v": 31
    },
    {
      "midi": 65,
      "hit": false,
      "t": 30012.852640625155,
      "d": 123.16170312500253,
      "v": 25
    },
    {
      "midi": 69,
      "hit": false,
      "t": 30031.234984375154,
      "d": 84.55878125000163,
      "v": 17
    },
    {
      "midi": 69,
      "hit": false,
      "t": 30312.484843750157,
      "d": 86.39701562501068,
      "v": 49
    },
    {
      "midi": 53,
      "hit": false,
      "t": 30332.70542187516,
      "d": 56.98526562500774,
      "v": 30
    },
    {
      "midi": 65,
      "hit": false,
      "t": 30334.54365625016,
      "d": 42.27939062500445,
      "v": 29
    },
    {
      "midi": 62,
      "hit": false,
      "t": 30354.76423437516,
      "d": 29.41175000000294,
      "v": 18
    },
    {
      "midi": 43,
      "hit": false,
      "t": 30672.778781250167,
      "d": 126.83817187500608,
      "v": 46
    },
    {
      "midi": 53,
      "hit": false,
      "t": 30678.29348437517,
      "d": 130.514640625006,
      "v": 37
    },
    {
      "midi": 50,
      "hit": false,
      "t": 30683.80818750017,
      "d": 321.691015625016,
      "v": 38
    },
    {
      "midi": 62,
      "hit": false,
      "t": 30689.32289062517,
      "d": 128.67640625000422,
      "v": 43
    },
    {
      "midi": 57,
      "hit": false,
      "t": 30692.99935937517,
      "d": 132.35287500000413,
      "v": 32
    },
    {
      "midi": 60,
      "hit": false,
      "t": 30702.190531250173,
      "d": 124.99993750000431,
      "v": 34
    },
    {
      "midi": 53,
      "hit": false,
      "t": 30880.499265625178,
      "d": 115.80876562500634,
      "v": 47
    },
    {
      "midi": 62,
      "hit": false,
      "t": 30886.01396875018,
      "d": 128.67640625000786,
      "v": 38
    },
    {
      "midi": 43,
      "hit": false,
      "t": 30887.85220312518,
      "d": 124.99993750000431,
      "v": 42
    },
    {
      "midi": 57,
      "hit": false,
      "t": 30893.366906250183,
      "d": 119.48523437500262,
      "v": 44
    },
    {
      "midi": 60,
      "hit": false,
      "t": 30898.881609375185,
      "d": 126.83817187500244,
      "v": 46
    },
    {
      "midi": 43,
      "hit": false,
      "t": 31231.602031250186,
      "d": 319.85278125000696,
      "v": 49
    },
    {
      "midi": 50,
      "hit": false,
      "t": 31235.278500000186,
      "d": 343.7498281250082,
      "v": 48
    },
    {
      "midi": 62,
      "hit": false,
      "t": 31237.116734375188,
      "d": 369.4851093750076,
      "v": 55
    },
    {
      "midi": 53,
      "hit": false,
      "t": 31238.95496875019,
      "d": 329.0439531250049,
      "v": 33
    },
    {
      "midi": 60,
      "hit": false,
      "t": 31240.79320312519,
      "d": 349.2645312500026,
      "v": 42
    },
    {
      "midi": 57,
      "hit": false,
      "t": 31242.631437500193,
      "d": 332.7204218750012,
      "v": 41
    },
    {
      "midi": 53,
      "hit": false,
      "t": 31729.763546875194,
      "d": 73.52937500000189,
      "v": 45
    },
    {
      "midi": 43,
      "hit": false,
      "t": 31742.631187500196,
      "d": 73.52937500000189,
      "v": 40
    },
    {
      "midi": 50,
      "hit": false,
      "t": 31746.307656250196,
      "d": 69.85290625000198,
      "v": 39
    },
    {
      "midi": 64,
      "hit": false,
      "t": 31761.013531250195,
      "d": 68.01467187500384,
      "v": 18
    },
    {
      "midi": 65,
      "hit": false,
      "t": 32060.6457343752,
      "d": 104.77935937500297,
      "v": 38
    },
    {
      "midi": 60,
      "hit": false,
      "t": 32073.513375000202,
      "d": 82.72054687499985,
      "v": 45
    },
    {
      "midi": 57,
      "hit": false,
      "t": 32077.189843750202,
      "d": 49.63232812500064,
      "v": 37
    },
    {
      "midi": 50,
      "hit": false,
      "t": 32095.572187500202,
      "d": 82.72054687500349,
      "v": 40
    },
    {
      "midi": 43,
      "hit": false,
      "t": 32101.086890625204,
      "d": 69.85290625000198,
      "v": 36
    },
    {
      "midi": 67,
      "hit": false,
      "t": 32323.513250000204,
      "d": 101.10289062500306,
      "v": 57
    },
    {
      "midi": 57,
      "hit": false,
      "t": 32332.704421875205,
      "d": 112.1322968750028,
      "v": 51
    },
    {
      "midi": 53,
      "hit": false,
      "t": 32340.057359375205,
      "d": 73.52937500000189,
      "v": 51
    },
    {
      "midi": 60,
      "hit": false,
      "t": 32340.057359375205,
      "d": 101.10289062500306,
      "v": 51
    },
    {
      "midi": 43,
      "hit": false,
      "t": 32345.572062500207,
      "d": 128.67640625000422,
      "v": 42
    },
    {
      "midi": 63,
      "hit": false,
      "t": 32354.76323437521,
      "d": 82.72054687499985,
      "v": 30
    },
    {
      "midi": 44,
      "hit": false,
      "t": 32742.630687500212,
      "d": 101.10289062499942,
      "v": 33
    },
    {
      "midi": 58,
      "hit": false,
      "t": 32819.83653125021,
      "d": 71.69114062500739,
      "v": 79
    },
    {
      "midi": 46,
      "hit": false,
      "t": 32823.51300000021,
      "d": 102.94112500000483,
      "v": 55
    },
    {
      "midi": 59,
      "hit": false,
      "t": 32922.77765625021,
      "d": 47.7940937500025,
      "v": 47
    },
    {
      "midi": 58,
      "hit": false,
      "t": 32948.512937500214,
      "d": 104.77935937500297,
      "v": 48
    },
    {
      "midi": 56,
      "hit": false,
      "t": 33020.204078125214,
      "d": 33.08821875000285,
      "v": 31
    },
    {
      "midi": 55,
      "hit": false,
      "t": 33088.21875000022,
      "d": 33.08821875000285,
      "v": 29
    },
    {
      "midi": 52,
      "hit": false,
      "t": 33180.13046875022,
      "d": 170.9557968750014,
      "v": 60
    },
    {
      "midi": 64,
      "hit": false,
      "t": 33187.48340625022,
      "d": 163.60285937500157,
      "v": 68
    },
    {
      "midi": 49,
      "hit": false,
      "t": 33380.49801562522,
      "d": 121.32346875000076,
      "v": 38
    },
    {
      "midi": 61,
      "hit": false,
      "t": 33387.85095312522,
      "d": 102.94112499999756,
      "v": 42
    },
    {
      "midi": 50,
      "hit": false,
      "t": 33523.88029687522,
      "d": 169.11756250000326,
      "v": 53
    },
    {
      "midi": 62,
      "hit": false,
      "t": 33534.909703125224,
      "d": 176.47050000000309,
      "v": 66
    },
    {
      "midi": 59,
      "hit": false,
      "t": 33740.79195312523,
      "d": 84.55878124999435,
      "v": 34
    },
    {
      "midi": 36,
      "hit": false,
      "t": 33749.983125000224,
      "d": 643.3820312500029,
      "v": 47
    },
    {
      "midi": 60,
      "hit": false,
      "t": 33891.52717187522,
      "d": 189.33814062499732,
      "v": 54
    },
    {
      "midi": 52,
      "hit": false,
      "t": 34058.80650000022,
      "d": 110.29406250000466,
      "v": 36
    },
    {
      "midi": 55,
      "hit": false,
      "t": 34091.89471875022,
      "d": 119.48523437500262,
      "v": 42
    },
    {
      "midi": 53,
      "hit": false,
      "t": 34251.821109375225,
      "d": 161.76462500000343,
      "v": 24
    },
    {
      "midi": 43,
      "hit": false,
      "t": 34424.61514062523,
      "d": 825.3672343750004,
      "v": 57
    },
    {
      "midi": 52,
      "hit": false,
      "t": 34430.129843750234,
      "d": 777.5731406249979,
      "v": 50
    },
    {
      "midi": 42,
      "hit": false,
      "t": 34463.21806250024,
      "d": 29.4117499999993,
      "v": 28
    },
    {
      "midi": 31,
      "hit": false,
      "t": 34784.90907812524,
      "d": 88.2352499999979,
      "v": 62
    },
    {
      "midi": 31,
      "hit": false,
      "t": 34959.541343750236,
      "d": 102.94112499999756,
      "v": 24
    },
    {
      "midi": 31,
      "hit": false,
      "t": 35145.20301562524,
      "d": 112.13229687499552,
      "v": 48
    },
    {
      "midi": 36,
      "hit": false,
      "t": 35325.34998437523,
      "d": 558.8232500000013,
      "v": 47
    },
    {
      "midi": 50,
      "hit": false,
      "t": 35527.55576562523,
      "d": 49.632328125007916,
      "v": 47
    },
    {
      "midi": 60,
      "hit": false,
      "t": 35531.23223437523,
      "d": 79.04407812500722,
      "v": 38
    },
    {
      "midi": 55,
      "hit": false,
      "t": 35534.908703125235,
      "d": 68.01467187500384,
      "v": 43
    },
    {
      "midi": 64,
      "hit": false,
      "t": 35841.89384375024,
      "d": 95.58818749999773,
      "v": 57
    },
    {
      "midi": 57,
      "hit": false,
      "t": 35843.732078125235,
      "d": 66.17643749999843,
      "v": 52
    },
    {
      "midi": 53,
      "hit": false,
      "t": 35851.085015625235,
      "d": 44.11762499999895,
      "v": 37
    },
    {
      "midi": 43,
      "hit": false,
      "t": 35852.92325000023,
      "d": 73.52937499999825,
      "v": 48
    },
    {
      "midi": 60,
      "hit": false,
      "t": 35869.46735937523,
      "d": 42.279390625000815,
      "v": 22
    },
    {
      "midi": 63,
      "hit": false,
      "t": 36064.32020312524,
      "d": 229.779296875,
      "v": 57
    },
    {
      "midi": 59,
      "hit": false,
      "t": 36067.99667187524,
      "d": 222.42635937500017,
      "v": 62
    },
    {
      "midi": 67,
      "hit": false,
      "t": 36069.83490625024,
      "d": 222.42635937500017,
      "v": 56
    },
    {
      "midi": 53,
      "hit": false,
      "t": 36071.67314062524,
      "d": 360.293937500006,
      "v": 45
    },
    {
      "midi": 43,
      "hit": false,
      "t": 36352.923000000235,
      "d": 53.30879687500419,
      "v": 40
    },
    {
      "midi": 67,
      "hit": false,
      "t": 36358.43770312524,
      "d": 148.8969843750092,
      "v": 52
    },
    {
      "midi": 59,
      "hit": false,
      "t": 36363.95240625024,
      "d": 123.16170312500617,
      "v": 43
    },
    {
      "midi": 63,
      "hit": false,
      "t": 36365.79064062524,
      "d": 185.66167187500832,
      "v": 50
    },
    {
      "midi": 67,
      "hit": false,
      "t": 36579.025828125246,
      "d": 101.1028906250067,
      "v": 52
    },
    {
      "midi": 62,
      "hit": false,
      "t": 36595.56993750025,
      "d": 56.985265625000466,
      "v": 60
    },
    {
      "midi": 57,
      "hit": false,
      "t": 36597.40817187525,
      "d": 136.0293437500004,
      "v": 48
    },
    {
      "midi": 36,
      "hit": false,
      "t": 36601.08464062525,
      "d": 740.808453125006,
      "v": 57
    },
    {
      "midi": 60,
      "hit": false,
      "t": 36930.12859375025,
      "d": 204.04401562500425,
      "v": 55
    },
    {
      "midi": 57,
      "hit": false,
      "t": 36942.99623437525,
      "d": 79.04407812499994,
      "v": 49
    },
    {
      "midi": 62,
      "hit": false,
      "t": 37106.59909375025,
      "d": 132.35287500000413,
      "v": 44
    },
    {
      "midi": 64,
      "hit": false,
      "t": 37279.39312500026,
      "d": 86.39701562499977,
      "v": 53
    },
    {
      "midi": 43,
      "hit": false,
      "t": 37301.45193750026,
      "d": 62.499968750002154,
      "v": 25
    },
    {
      "midi": 67,
      "hit": false,
      "t": 37455.86362500026,
      "d": 930.1465937499961,
      "v": 29
    },
    {
      "midi": 55,
      "hit": false,
      "t": 37459.54009375026,
      "d": 658.0879062499953,
      "v": 36
    },
    {
      "midi": 60,
      "hit": false,
      "t": 37468.73126562526,
      "d": 678.3084843749966,
      "v": 30
    },
    {
      "midi": 43,
      "hit": false,
      "t": 37632.33412500026,
      "d": 178.30873437500122,
      "v": 52
    },
    {
      "midi": 42,
      "hit": false,
      "t": 37648.87823437526,
      "d": 77.2058437500018,
      "v": 46
    },
    {
      "midi": 43,
      "hit": false,
      "t": 37941.15750000026,
      "d": 156.24992187499447,
      "v": 38
    },
    {
      "midi": 42,
      "hit": false,
      "t": 37948.51043750026,
      "d": 60.66173437499674,
      "v": 26
    },
    {
      "midi": 36,
      "hit": false,
      "t": 38117.62800000026,
      "d": 823.5290000000023,
      "v": 57
    },
    {
      "midi": 43,
      "hit": false,
      "t": 38321.672015625256,
      "d": 90.07348437500332,
      "v": 42
    },
    {
      "midi": 42,
      "hit": false,
      "t": 38345.56906250025,
      "d": 27.573515625001164,
      "v": 28
    },
    {
      "midi": 43,
      "hit": false,
      "t": 38645.20126562526,
      "d": 99.26465625000128,
      "v": 45
    },
    {
      "midi": 42,
      "hit": false,
      "t": 38654.39243750026,
      "d": 62.499968750002154,
      "v": 44
    },
    {
      "midi": 43,
      "hit": false,
      "t": 38816.157062500264,
      "d": 634.190859375005,
      "v": 36
    },
    {
      "midi": 55,
      "hit": false,
      "t": 38817.99529687526,
      "d": 126.83817187500244,
      "v": 54
    },
    {
      "midi": 64,
      "hit": false,
      "t": 38823.510000000264,
      "d": 93.74995312499959,
      "v": 50
    },
    {
      "midi": 57,
      "hit": false,
      "t": 38830.862937500264,
      "d": 95.58818749999773,
      "v": 49
    },
    {
      "midi": 60,
      "hit": false,
      "t": 38834.53940625027,
      "d": 80.88231249999808,
      "v": 34
    },
    {
      "midi": 62,
      "hit": false,
      "t": 39036.745187500266,
      "d": 99.26465625000128,
      "v": 62
    },
    {
      "midi": 53,
      "hit": false,
      "t": 39047.77459375027,
      "d": 80.88231249999808,
      "v": 43
    },
    {
      "midi": 56,
      "hit": false,
      "t": 39056.96576562527,
      "d": 106.6175937500011,
      "v": 49
    },
    {
      "midi": 31,
      "hit": false,
      "t": 39215.05392187527,
      "d": 33.08821875000285,
      "v": 37
    },
    {
      "midi": 60,
      "hit": false,
      "t": 39226.08332812527,
      "d": 84.55878125000163,
      "v": 13
    },
    {
      "midi": 55,
      "hit": false,
      "t": 39404.39206250027,
      "d": 1698.528562499996,
      "v": 55
    },
    {
      "midi": 60,
      "hit": false,
      "t": 39406.23029687527,
      "d": 1834.5579062499892,
      "v": 41
    },
    {
      "midi": 57,
      "hit": false,
      "t": 39408.06853125027,
      "d": 1801.4696874999936,
      "v": 52
    },
    {
      "midi": 64,
      "hit": false,
      "t": 39409.90676562527,
      "d": 1858.454953124994,
      "v": 58
    },
    {
      "midi": 36,
      "hit": false,
      "t": 39474.24496875027,
      "d": 946.6907031250012,
      "v": 39
    },
    {
      "midi": 43,
      "hit": false,
      "t": 39753.65659375027,
      "d": 99.264656249994,
      "v": 44
    },
    {
      "midi": 42,
      "hit": false,
      "t": 39762.847765625265,
      "d": 53.308796874996915,
      "v": 38
    },
    {
      "midi": 43,
      "hit": false,
      "t": 40067.99467187526,
      "d": 148.89698437499464,
      "v": 40
    },
    {
      "midi": 42,
      "hit": false,
      "t": 40073.50937500026,
      "d": 68.01467187499657,
      "v": 43
    },
    {
      "midi": 42,
      "hit": false,
      "t": 40386.00921875026,
      "d": 31.249984375004715,
      "v": 28
    },
    {
      "midi": 43,
      "hit": false,
      "t": 40413.58273437526,
      "d": 446.69095312500576,
      "v": 48
    },
    {
      "midi": 31,
      "hit": false,
      "t": 40588.215000000266,
      "d": 34.92645312500099,
      "v": 31
    },
    {
      "midi": 31,
      "hit": false,
      "t": 40749.97962500027,
      "d": 36.76468749999913,
      "v": 44
    },
    {
      "midi": 36,
      "hit": false,
      "t": 40922.77365625027,
      "d": 1290.4405312499948,
      "v": 49
    },
    {
      "midi": 42,
      "hit": false,
      "t": 41119.464734375266,
      "d": 36.76468749999913,
      "v": 34
    },
    {
      "midi": 43,
      "hit": false,
      "t": 41121.302968750264,
      "d": 130.51464062499872,
      "v": 46
    },
    {
      "midi": 53,
      "hit": false,
      "t": 41468.72926562526,
      "d": 404.4115624999977,
      "v": 48
    },
    {
      "midi": 64,
      "hit": false,
      "t": 41468.72926562526,
      "d": 558.8232500000013,
      "v": 49
    },
    {
      "midi": 56,
      "hit": false,
      "t": 41470.56750000026,
      "d": 643.3820312500029,
      "v": 48
    },
    {
      "midi": 59,
      "hit": false,
      "t": 41477.92043750026,
      "d": 573.5291250000009,
      "v": 44
    },
    {
      "midi": 43,
      "hit": false,
      "t": 41483.43514062526,
      "d": 130.51464062499872,
      "v": 45
    },
    {
      "midi": 43,
      "hit": false,
      "t": 41797.773218750255,
      "d": 290.441031250004,
      "v": 66
    },
    {
      "midi": 42,
      "hit": false,
      "t": 41810.64085937526,
      "d": 40.44115625000268,
      "v": 50
    },
    {
      "midi": 53,
      "hit": false,
      "t": 41950.34667187526,
      "d": 183.8234375000029,
      "v": 38
    },
    {
      "midi": 42,
      "hit": false,
      "t": 42147.037750000265,
      "d": 80.88231249999808,
      "v": 42
    },
    {
      "midi": 52,
      "hit": false,
      "t": 42308.80237500026,
      "d": 75.36760937499639,
      "v": 52
    },
    {
      "midi": 36,
      "hit": false,
      "t": 42312.478843750265,
      "d": 231.61753124999086,
      "v": 56
    },
    {
      "midi": 55,
      "hit": false,
      "t": 42314.31707812526,
      "d": 112.13229687499552,
      "v": 53
    },
    {
      "midi": 60,
      "hit": false,
      "t": 42316.15531250026,
      "d": 75.36760937499639,
      "v": 34
    },
    {
      "midi": 43,
      "hit": false,
      "t": 42525.71403125026,
      "d": 75.36760937499639,
      "v": 35
    },
    {
      "midi": 53,
      "hit": false,
      "t": 42527.55226562526,
      "d": 68.01467187499657,
      "v": 33
    },
    {
      "midi": 62,
      "hit": false,
      "t": 42527.55226562526,
      "d": 75.36760937499639,
      "v": 40
    },
    {
      "midi": 55,
      "hit": false,
      "t": 42545.934609375254,
      "d": 62.499968750002154,
      "v": 32
    },
    {
      "midi": 64,
      "hit": false,
      "t": 42692.99335937526,
      "d": 66.17643749999843,
      "v": 53
    },
    {
      "midi": 41,
      "hit": false,
      "t": 42884.16973437525,
      "d": 536.7644375000164,
      "v": 33
    },
    {
      "midi": 63,
      "hit": false,
      "t": 42908.06678125026,
      "d": 363.97040625000955,
      "v": 81
    },
    {
      "midi": 69,
      "hit": false,
      "t": 42919.09618750026,
      "d": 422.79390625000815,
      "v": 69
    },
    {
      "midi": 57,
      "hit": false,
      "t": 43238.948968750265,
      "d": 80.88231250000536,
      "v": 36
    },
    {
      "midi": 48,
      "hit": false,
      "t": 43261.007781250264,
      "d": 88.23525000000518,
      "v": 27
    },
    {
      "midi": 63,
      "hit": false,
      "t": 43402.551828125266,
      "d": 172.7940312500068,
      "v": 29
    },
    {
      "midi": 59,
      "hit": false,
      "t": 43424.61064062527,
      "d": 128.67640625000058,
      "v": 31
    },
    {
      "midi": 62,
      "hit": false,
      "t": 43588.213500000275,
      "d": 297.79396874999657,
      "v": 66
    },
    {
      "midi": 40,
      "hit": false,
      "t": 43590.05173437527,
      "d": 397.05862499999785,
      "v": 49
    },
    {
      "midi": 67,
      "hit": false,
      "t": 43597.40467187527,
      "d": 422.7939062500009,
      "v": 58
    },
    {
      "midi": 55,
      "hit": false,
      "t": 43928.28685937527,
      "d": 86.39701562499977,
      "v": 44
    },
    {
      "midi": 47,
      "hit": false,
      "t": 43935.63979687527,
      "d": 102.94112500000483,
      "v": 25
    },
    {
      "midi": 65,
      "hit": false,
      "t": 44275.71315625028,
      "d": 308.8233750000072,
      "v": 50
    },
    {
      "midi": 61,
      "hit": false,
      "t": 44279.38962500028,
      "d": 306.9851406250018,
      "v": 46
    },
    {
      "midi": 55,
      "hit": false,
      "t": 44281.22785937528,
      "d": 253.6763437500049,
      "v": 44
    },
    {
      "midi": 58,
      "hit": false,
      "t": 44283.066093750276,
      "d": 452.2056562500147,
      "v": 53
    },
    {
      "midi": 45,
      "hit": false,
      "t": 44288.58079687528,
      "d": 415.4409687500156,
      "v": 50
    },
    {
      "midi": 53,
      "hit": false,
      "t": 44306.96314062528,
      "d": 279.41162500000064,
      "v": 29
    },
    {
      "midi": 55,
      "hit": false,
      "t": 44615.78651562528,
      "d": 68.01467187501112,
      "v": 45
    },
    {
      "midi": 64,
      "hit": false,
      "t": 44621.30121875028,
      "d": 102.94112500001211,
      "v": 47
    },
    {
      "midi": 52,
      "hit": false,
      "t": 44632.330625000286,
      "d": 93.74995312500687,
      "v": 35
    },
    {
      "midi": 49,
      "hit": false,
      "t": 44797.77171875029,
      "d": 207.72048437500052,
      "v": 29
    },
    {
      "midi": 60,
      "hit": false,
      "t": 44996.301031250296,
      "d": 115.80876562499907,
      "v": 54
    },
    {
      "midi": 65,
      "hit": false,
      "t": 45001.8157343753,
      "d": 102.94112499999756,
      "v": 48
    },
    {
      "midi": 57,
      "hit": false,
      "t": 45003.653968750295,
      "d": 137.86757812499854,
      "v": 53
    },
    {
      "midi": 62,
      "hit": false,
      "t": 45009.1686718753,
      "d": 79.04407812499994,
      "v": 57
    },
    {
      "midi": 50,
      "hit": false,
      "t": 45018.359843750295,
      "d": 336.3968906250011,
      "v": 60
    },
    {
      "midi": 53,
      "hit": false,
      "t": 45358.4332031253,
      "d": 431.98507812499884,
      "v": 43
    },
    {
      "midi": 45,
      "hit": false,
      "t": 45362.1096718753,
      "d": 86.39701562499249,
      "v": 51
    },
    {
      "midi": 62,
      "hit": false,
      "t": 45363.9479062503,
      "d": 477.9409374999959,
      "v": 51
    },
    {
      "midi": 57,
      "hit": false,
      "t": 45365.7861406253,
      "d": 430.1468437500007,
      "v": 39
    },
    {
      "midi": 60,
      "hit": false,
      "t": 45367.6243750003,
      "d": 443.0144843750022,
      "v": 37
    },
    {
      "midi": 41,
      "hit": false,
      "t": 45533.0654687503,
      "d": 80.88231249999808,
      "v": 40
    },
    {
      "midi": 45,
      "hit": false,
      "t": 45729.756546875295,
      "d": 417.27920312500646,
      "v": 77
    },
    {
      "midi": 38,
      "hit": false,
      "t": 45772.035937500295,
      "d": 36.7646875000064,
      "v": 37
    },
    {
      "midi": 53,
      "hit": false,
      "t": 45955.8593750003,
      "d": 62.499968750002154,
      "v": 59
    },
    {
      "midi": 41,
      "hit": false,
      "t": 46174.6092656253,
      "d": 60.66173437499674,
      "v": 27
    },
    {
      "midi": 61,
      "hit": false,
      "t": 46277.5503906253,
      "d": 194.852843749999,
      "v": 35
    },
    {
      "midi": 56,
      "hit": false,
      "t": 46279.3886250003,
      "d": 185.66167187500105,
      "v": 40
    },
    {
      "midi": 58,
      "hit": false,
      "t": 46281.226859375296,
      "d": 183.8234375000029,
      "v": 40
    },
    {
      "midi": 53,
      "hit": false,
      "t": 46284.9033281253,
      "d": 148.89698437500192,
      "v": 34
    },
    {
      "midi": 42,
      "hit": false,
      "t": 46286.7415625003,
      "d": 183.8234375000029,
      "v": 59
    },
    {
      "midi": 53,
      "hit": false,
      "t": 46503.653218750296,
      "d": 66.17643749999843,
      "v": 54
    },
    {
      "midi": 57,
      "hit": false,
      "t": 46511.006156250296,
      "d": 104.77935937499569,
      "v": 57
    },
    {
      "midi": 59,
      "hit": false,
      "t": 46518.359093750296,
      "d": 119.48523437499534,
      "v": 46
    },
    {
      "midi": 62,
      "hit": false,
      "t": 46518.359093750296,
      "d": 143.38228124999296,
      "v": 60
    },
    {
      "midi": 43,
      "hit": false,
      "t": 46520.197328125294,
      "d": 152.5734531249982,
      "v": 58
    },
    {
      "midi": 71,
      "hit": false,
      "t": 46851.07951562529,
      "d": 55.14703124999505,
      "v": 66
    },
    {
      "midi": 72,
      "hit": false,
      "t": 46860.27068750029,
      "d": 38.602921874997264,
      "v": 38
    },
    {
      "midi": 77,
      "hit": false,
      "t": 47011.00590625029,
      "d": 108.45582812499924,
      "v": 71
    },
    {
      "midi": 76,
      "hit": false,
      "t": 47020.19707812529,
      "d": 27.573515625001164,
      "v": 63
    },
    {
      "midi": 61,
      "hit": false,
      "t": 47189.31464062529,
      "d": 781.2496093750233,
      "v": 69
    },
    {
      "midi": 66,
      "hit": false,
      "t": 47192.991109375296,
      "d": 286.76456250000047,
      "v": 83
    },
    {
      "midi": 55,
      "hit": false,
      "t": 47192.991109375296,
      "d": 715.0731718750176,
      "v": 73
    },
    {
      "midi": 84,
      "hit": false,
      "t": 47198.5058125003,
      "d": 200.3675468750007,
      "v": 94
    },
    {
      "midi": 82,
      "hit": false,
      "t": 47529.3880000003,
      "d": 176.47050000001036,
      "v": 76
    },
    {
      "midi": 65,
      "hit": false,
      "t": 47533.0644687503,
      "d": 121.32346875000803,
      "v": 71
    },
    {
      "midi": 73,
      "hit": false,
      "t": 47536.740937500304,
      "d": 126.83817187500244,
      "v": 73
    },
    {
      "midi": 72,
      "hit": false,
      "t": 47709.53496875031,
      "d": 141.5440468750021,
      "v": 46
    },
    {
      "midi": 64,
      "hit": false,
      "t": 47880.49076562531,
      "d": 53.30879687500419,
      "v": 47
    },
    {
      "midi": 67,
      "hit": false,
      "t": 48023.87304687531,
      "d": 147.05875000000378,
      "v": 54
    },
    {
      "midi": 62,
      "hit": false,
      "t": 48031.22598437531,
      "d": 167.27932812499785,
      "v": 59
    },
    {
      "midi": 74,
      "hit": false,
      "t": 48031.22598437531,
      "d": 220.58812499999476,
      "v": 54
    },
    {
      "midi": 72,
      "hit": false,
      "t": 48034.902453125316,
      "d": 137.86757812499854,
      "v": 44
    },
    {
      "midi": 56,
      "hit": false,
      "t": 48044.093625000314,
      "d": 226.10282812499645,
      "v": 43
    },
    {
      "midi": 72,
      "hit": false,
      "t": 48198.50531250031,
      "d": 82.72054687500349,
      "v": 20
    },
    {
      "midi": 76,
      "hit": false,
      "t": 48220.56412500031,
      "d": 115.80876562499907,
      "v": 51
    },
    {
      "midi": 66,
      "hit": false,
      "t": 48358.43170312531,
      "d": 113.97053125000821,
      "v": 59
    },
    {
      "midi": 61,
      "hit": false,
      "t": 48365.78464062531,
      "d": 257.35281250000844,
      "v": 46
    },
    {
      "midi": 55,
      "hit": false,
      "t": 48369.46110937531,
      "d": 80.88231250000536,
      "v": 53
    },
    {
      "midi": 77,
      "hit": false,
      "t": 48374.97581250031,
      "d": 106.6175937500011,
      "v": 50
    },
    {
      "midi": 72,
      "hit": false,
      "t": 48378.65228125032,
      "d": 86.39701562499977,
      "v": 42
    },
    {
      "midi": 54,
      "hit": false,
      "t": 48579.01982812532,
      "d": 77.2058437500018,
      "v": 42
    },
    {
      "midi": 65,
      "hit": false,
      "t": 48580.858062500316,
      "d": 29.4117499999993,
      "v": 27
    },
    {
      "midi": 60,
      "hit": false,
      "t": 48588.211000000316,
      "d": 38.60292187500454,
      "v": 34
    },
    {
      "midi": 86,
      "hit": false,
      "t": 48716.88740625032,
      "d": 305.1469062499964,
      "v": 76
    },
    {
      "midi": 74,
      "hit": false,
      "t": 48720.56387500032,
      "d": 360.29393749999144,
      "v": 74
    },
    {
      "midi": 64,
      "hit": false,
      "t": 48722.40210937532,
      "d": 205.8822499999951,
      "v": 63
    },
    {
      "midi": 53,
      "hit": false,
      "t": 48722.40210937532,
      "d": 248.16164062499593,
      "v": 60
    },
    {
      "midi": 59,
      "hit": false,
      "t": 48731.593281250316,
      "d": 209.55871874999866,
      "v": 64
    },
    {
      "midi": 43,
      "hit": false,
      "t": 49272.034187500314,
      "d": 147.05875000000378,
      "v": 74
    },
    {
      "midi": 50,
      "hit": false,
      "t": 49305.12240625032,
      "d": 47.7940937500025,
      "v": 32
    },
    {
      "midi": 54,
      "hit": false,
      "t": 49709.533968750315,
      "d": 112.13229687501007,
      "v": 27
    },
    {
      "midi": 56,
      "hit": false,
      "t": 49737.107484375316,
      "d": 33.08821875000285,
      "v": 29
    },
    {
      "midi": 57,
      "hit": false,
      "t": 49766.519234375315,
      "d": 156.24992187500902,
      "v": 58
    },
    {
      "midi": 72,
      "hit": false,
      "t": 49781.22510937532,
      "d": 143.38228125000023,
      "v": 35
    },
    {
      "midi": 62,
      "hit": false,
      "t": 49784.901578125326,
      "d": 134.19110937500227,
      "v": 35
    },
    {
      "midi": 65,
      "hit": false,
      "t": 49790.41628125033,
      "d": 130.51464062499872,
      "v": 41
    },
    {
      "midi": 69,
      "hit": false,
      "t": 49792.254515625325,
      "d": 159.92639062499802,
      "v": 44
    },
    {
      "midi": 54,
      "hit": false,
      "t": 49937.475031250324,
      "d": 112.1322968750028,
      "v": 33
    },
    {
      "midi": 56,
      "hit": false,
      "t": 50014.680875000326,
      "d": 55.14703125000233,
      "v": 39
    },
    {
      "midi": 72,
      "hit": false,
      "t": 50014.680875000326,
      "d": 147.05875000000378,
      "v": 45
    },
    {
      "midi": 62,
      "hit": false,
      "t": 50022.033812500325,
      "d": 158.08815625000716,
      "v": 44
    },
    {
      "midi": 57,
      "hit": false,
      "t": 50025.71028125033,
      "d": 257.35281250000844,
      "v": 57
    },
    {
      "midi": 65,
      "hit": false,
      "t": 50027.54851562533,
      "d": 181.98520312501205,
      "v": 41
    },
    {
      "midi": 69,
      "hit": false,
      "t": 50033.06321875033,
      "d": 132.35287500000413,
      "v": 32
    },
    {
      "midi": 71,
      "hit": false,
      "t": 50332.69542187534,
      "d": 200.3675468750007,
      "v": 54
    },
    {
      "midi": 55,
      "hit": false,
      "t": 50332.69542187534,
      "d": 224.2645937499983,
      "v": 40
    },
    {
      "midi": 65,
      "hit": false,
      "t": 50340.04835937534,
      "d": 185.66167187500105,
      "v": 43
    },
    {
      "midi": 62,
      "hit": false,
      "t": 50345.56306250034,
      "d": 156.24992187500175,
      "v": 38
    },
    {
      "midi": 69,
      "hit": false,
      "t": 50584.53353125034,
      "d": 75.36760937499639,
      "v": 47
    },
    {
      "midi": 65,
      "hit": false,
      "t": 50593.724703125336,
      "d": 44.11762499999895,
      "v": 22
    },
    {
      "midi": 62,
      "hit": false,
      "t": 50601.077640625335,
      "d": 51.47056249999878,
      "v": 17
    },
    {
      "midi": 53,
      "hit": false,
      "t": 50621.29821875034,
      "d": 172.79403124999953,
      "v": 24
    },
    {
      "midi": 55,
      "hit": false,
      "t": 50797.76871875034,
      "d": 33.088218749995576,
      "v": 40
    },
    {
      "midi": 72,
      "hit": false,
      "t": 50827.18046875034,
      "d": 318.0145468749979,
      "v": 40
    },
    {
      "midi": 57,
      "hit": false,
      "t": 50829.01870312534,
      "d": 446.6909531249985,
      "v": 40
    },
    {
      "midi": 65,
      "hit": false,
      "t": 50834.53340625034,
      "d": 319.85278124999604,
      "v": 46
    },
    {
      "midi": 69,
      "hit": false,
      "t": 50836.37164062534,
      "d": 286.76456250000047,
      "v": 46
    },
    {
      "midi": 62,
      "hit": false,
      "t": 50843.72457812534,
      "d": 340.0733593749974,
      "v": 37
    },
    {
      "midi": 69,
      "hit": false,
      "t": 51382.32725000034,
      "d": 124.99993750000431,
      "v": 45
    },
    {
      "midi": 60,
      "hit": false,
      "t": 51387.84195312534,
      "d": 156.24992187500175,
      "v": 32
    },
    {
      "midi": 65,
      "hit": false,
      "t": 51389.68018750034,
      "d": 104.77935937500297,
      "v": 37
    },
    {
      "midi": 62,
      "hit": false,
      "t": 51391.518421875335,
      "d": 123.16170312500617,
      "v": 49
    },
    {
      "midi": 53,
      "hit": false,
      "t": 51424.60664062534,
      "d": 84.55878125000163,
      "v": 29
    },
    {
      "midi": 65,
      "hit": false,
      "t": 51720.56237500034,
      "d": 80.88231250000536,
      "v": 48
    },
    {
      "midi": 60,
      "hit": false,
      "t": 51724.23884375035,
      "d": 68.01467187500384,
      "v": 48
    },
    {
      "midi": 57,
      "hit": false,
      "t": 51729.75354687535,
      "d": 79.04407812499994,
      "v": 36
    },
    {
      "midi": 52,
      "hit": false,
      "t": 51735.26825000035,
      "d": 126.83817187499517,
      "v": 31
    },
    {
      "midi": 61,
      "hit": false,
      "t": 51889.67993750035,
      "d": 430.146843750008,
      "v": 39
    },
    {
      "midi": 49,
      "hit": false,
      "t": 51917.25345312535,
      "d": 180.14696874999936,
      "v": 31
    },
    {
      "midi": 53,
      "hit": false,
      "t": 51931.95932812535,
      "d": 93.74995312499959,
      "v": 31
    },
    {
      "midi": 64,
      "hit": false,
      "t": 52091.885718750345,
      "d": 262.8675156250101,
      "v": 62
    },
    {
      "midi": 58,
      "hit": false,
      "t": 52102.91512500035,
      "d": 205.8822500000024,
      "v": 36
    },
    {
      "midi": 55,
      "hit": false,
      "t": 52106.59159375035,
      "d": 193.01460937500087,
      "v": 40
    },
    {
      "midi": 52,
      "hit": false,
      "t": 52108.42982812535,
      "d": 286.76456250000774,
      "v": 45
    },
    {
      "midi": 57,
      "hit": false,
      "t": 52439.312015625364,
      "d": 233.45576562500355,
      "v": 37
    },
    {
      "midi": 53,
      "hit": false,
      "t": 52442.98848437537,
      "d": 215.07342187500035,
      "v": 28
    },
    {
      "midi": 50,
      "hit": false,
      "t": 52446.66495312537,
      "d": 60.66173437499674,
      "v": 48
    },
    {
      "midi": 62,
      "hit": false,
      "t": 52448.50318750037,
      "d": 294.1175000000003,
      "v": 52
    },
    {
      "midi": 53,
      "hit": false,
      "t": 52790.414781250365,
      "d": 244.48517187499237,
      "v": 33
    },
    {
      "midi": 57,
      "hit": false,
      "t": 52797.767718750365,
      "d": 229.77929687499272,
      "v": 31
    },
    {
      "midi": 48,
      "hit": false,
      "t": 52797.767718750365,
      "d": 297.7939687499893,
      "v": 42
    },
    {
      "midi": 60,
      "hit": false,
      "t": 52799.60595312536,
      "d": 318.01454687499063,
      "v": 37
    },
    {
      "midi": 45,
      "hit": false,
      "t": 53154.38518750035,
      "d": 112.1322968750028,
      "v": 40
    },
    {
      "midi": 57,
      "hit": false,
      "t": 53156.22342187535,
      "d": 102.94112500000483,
      "v": 33
    },
    {
      "midi": 53,
      "hit": false,
      "t": 53316.149812500356,
      "d": 64.33820312500029,
      "v": 40
    },
    {
      "midi": 57,
      "hit": false,
      "t": 53321.66451562536,
      "d": 75.36760937499639,
      "v": 26
    },
    {
      "midi": 48,
      "hit": false,
      "t": 53323.502750000356,
      "d": 102.94112500000483,
      "v": 37
    },
    {
      "midi": 60,
      "hit": false,
      "t": 53325.340984375354,
      "d": 97.42642187500314,
      "v": 38
    },
    {
      "midi": 45,
      "hit": false,
      "t": 53509.164421875364,
      "d": 31.249984375004715,
      "v": 35
    },
    {
      "midi": 43,
      "hit": false,
      "t": 53647.03200000037,
      "d": 220.58812500000204,
      "v": 65
    },
    {
      "midi": 57,
      "hit": false,
      "t": 53652.54670312537,
      "d": 485.293875000003,
      "v": 71
    },
    {
      "midi": 62,
      "hit": false,
      "t": 53654.38493750037,
      "d": 450.36742187500204,
      "v": 68
    },
    {
      "midi": 53,
      "hit": false,
      "t": 53656.22317187537,
      "d": 224.2645937500056,
      "v": 71
    },
    {
      "midi": 60,
      "hit": false,
      "t": 53659.89964062537,
      "d": 466.9115312499998,
      "v": 57
    },
    {
      "midi": 41,
      "hit": false,
      "t": 54340.046359375374,
      "d": 44.11762499999895,
      "v": 22
    },
    {
      "midi": 58,
      "hit": false,
      "t": 54360.266937500375,
      "d": 237.13223437499983,
      "v": 87
    },
    {
      "midi": 59,
      "hit": false,
      "t": 54476.075703125374,
      "d": 40.44115625000268,
      "v": 51
    },
    {
      "midi": 56,
      "hit": false,
      "t": 54569.825656250374,
      "d": 64.33820312500029,
      "v": 46
    },
    {
      "midi": 55,
      "hit": false,
      "t": 54652.54620312538,
      "d": 25.735281250003027,
      "v": 27
    },
    {
      "midi": 61,
      "hit": false,
      "t": 54733.42851562538,
      "d": 286.76456250000047,
      "v": 83
    },
    {
      "midi": 62,
      "hit": false,
      "t": 54871.29609375038,
      "d": 55.14703125000233,
      "v": 44
    },
    {
      "midi": 59,
      "hit": false,
      "t": 54977.91368750038,
      "d": 31.24998437499744,
      "v": 29
    },
    {
      "midi": 58,
      "hit": false,
      "t": 55009.16367187538,
      "d": 51.470562500006054,
      "v": 61
    },
    {
      "midi": 64,
      "hit": false,
      "t": 55123.13420312539,
      "d": 139.70581250000396,
      "v": 82
    },
    {
      "midi": 62,
      "hit": false,
      "t": 55134.16360937539,
      "d": 23.897046874997613,
      "v": 57
    },
    {
      "midi": 43,
      "hit": false,
      "t": 55341.88409375039,
      "d": 1119.4847343750007,
      "v": 80
    },
    {
      "midi": 41,
      "hit": false,
      "t": 55345.560562500395,
      "d": 23.89704687500489,
      "v": 87
    },
    {
      "midi": 42,
      "hit": false,
      "t": 55349.2370312504,
      "d": 136.0293437500004,
      "v": 72
    },
    {
      "midi": 62,
      "hit": false,
      "t": 55659.8986406254,
      "d": 297.79396874999657,
      "v": 99
    },
    {
      "midi": 59,
      "hit": false,
      "t": 55976.0749531254,
      "d": 117.6469999999972,
      "v": 62
    },
    {
      "midi": 62,
      "hit": false,
      "t": 56137.83957812539,
      "d": 185.66167187500105,
      "v": 57
    },
    {
      "midi": 59,
      "hit": false,
      "t": 56330.854187500394,
      "d": 77.2058437500018,
      "v": 33
    },
    {
      "midi": 60,
      "hit": false,
      "t": 56459.530593750394,
      "d": 170.95579687499412,
      "v": 57
    },
    {
      "midi": 55,
      "hit": false,
      "t": 56645.19226562539,
      "d": 84.55878125000163,
      "v": 49
    },
    {
      "midi": 36,
      "hit": false,
      "t": 56659.89814062539,
      "d": 707.7202343750032,
      "v": 34
    },
    {
      "midi": 53,
      "hit": false,
      "t": 56794.08925000039,
      "d": 185.66167187500105,
      "v": 33
    },
    {
      "midi": 52,
      "hit": false,
      "t": 57009.16267187539,
      "d": 891.5436718750061,
      "v": 46
    },
    {
      "midi": 43,
      "hit": false,
      "t": 57325.33898437539,
      "d": 233.45576562500355,
      "v": 40
    },
    {
      "midi": 42,
      "hit": false,
      "t": 57349.23603125039,
      "d": 23.89704687500489,
      "v": 34
    },
    {
      "midi": 43,
      "hit": false,
      "t": 57681.95645312539,
      "d": 193.01460937500087,
      "v": 37
    },
    {
      "midi": 43,
      "hit": false,
      "t": 58022.0298125004,
      "d": 242.6469375000015,
      "v": 51
    },
    {
      "midi": 42,
      "hit": false,
      "t": 58391.5149218754,
      "d": 115.80876562499907,
      "v": 29
    },
    {
      "midi": 43,
      "hit": false,
      "t": 58540.4119062504,
      "d": 299.632203125002,
      "v": 46
    },
    {
      "midi": 72,
      "hit": false,
      "t": 58553.279546875405,
      "d": 492.64681250000285,
      "v": 63
    },
    {
      "midi": 64,
      "hit": false,
      "t": 58555.1177812504,
      "d": 257.35281250000116,
      "v": 64
    },
    {
      "midi": 55,
      "hit": false,
      "t": 59115.77926562541,
      "d": 58.8234999999986,
      "v": 40
    },
    {
      "midi": 55,
      "hit": false,
      "t": 59275.70565625041,
      "d": 257.3528125000157,
      "v": 27
    },
    {
      "midi": 72,
      "hit": false,
      "t": 59283.05859375041,
      "d": 79.04407812500722,
      "v": 35
    },
    {
      "midi": 63,
      "hit": false,
      "t": 59283.05859375041,
      "d": 161.7646250000107,
      "v": 30
    },
    {
      "midi": 48,
      "hit": false,
      "t": 59286.73506250041,
      "d": 266.5439843750137,
      "v": 48
    },
    {
      "midi": 67,
      "hit": false,
      "t": 59297.764468750414,
      "d": 420.95567187501,
      "v": 34
    },
    {
      "midi": 74,
      "hit": false,
      "t": 59527.54376562542,
      "d": 90.07348437500332,
      "v": 61
    },
    {
      "midi": 63,
      "hit": false,
      "t": 59533.05846875042,
      "d": 147.05875000000378,
      "v": 39
    },
    {
      "midi": 59,
      "hit": false,
      "t": 59545.926109375425,
      "d": 93.74995312499959,
      "v": 34
    },
    {
      "midi": 75,
      "hit": false,
      "t": 59751.80835937543,
      "d": 136.0293437500004,
      "v": 53
    },
    {
      "midi": 63,
      "hit": false,
      "t": 59759.16129687543,
      "d": 86.39701562499977,
      "v": 32
    },
    {
      "midi": 73,
      "hit": false,
      "t": 59972.39648437543,
      "d": 86.39701562499977,
      "v": 32
    },
    {
      "midi": 63,
      "hit": false,
      "t": 60009.16117187543,
      "d": 266.5439843749991,
      "v": 49
    },
    {
      "midi": 69,
      "hit": false,
      "t": 60009.16117187543,
      "d": 286.76456250000047,
      "v": 49
    },
    {
      "midi": 79,
      "hit": false,
      "t": 60012.83764062543,
      "d": 249.99987499999406,
      "v": 39
    },
    {
      "midi": 53,
      "hit": false,
      "t": 60512.83739062543,
      "d": 73.52937499999825,
      "v": 32
    },
    {
      "midi": 67,
      "hit": false,
      "t": 60707.69023437543,
      "d": 334.55865625001024,
      "v": 40
    },
    {
      "midi": 57,
      "hit": false,
      "t": 60713.20493750043,
      "d": 211.39695312500407,
      "v": 41
    },
    {
      "midi": 51,
      "hit": false,
      "t": 60713.20493750043,
      "d": 268.38221875000454,
      "v": 40
    },
    {
      "midi": 62,
      "hit": false,
      "t": 60716.88140625043,
      "d": 292.27926562500215,
      "v": 49
    },
    {
      "midi": 41,
      "hit": false,
      "t": 60749.969625000434,
      "d": 954.043640625001,
      "v": 34
    },
    {
      "midi": 57,
      "hit": false,
      "t": 60976.07245312543,
      "d": 91.91171875000873,
      "v": 25
    },
    {
      "midi": 69,
      "hit": false,
      "t": 61272.02818750044,
      "d": 283.0880937499969,
      "v": 65
    },
    {
      "midi": 57,
      "hit": false,
      "t": 61283.05759375044,
      "d": 262.8675156249956,
      "v": 57
    },
    {
      "midi": 62,
      "hit": false,
      "t": 61286.73406250044,
      "d": 386.0292187499872,
      "v": 65
    },
    {
      "midi": 51,
      "hit": false,
      "t": 61288.57229687544,
      "d": 327.2057187499886,
      "v": 47
    },
    {
      "midi": 67,
      "hit": false,
      "t": 61608.42507812543,
      "d": 128.67640625000786,
      "v": 50
    },
    {
      "midi": 48,
      "hit": false,
      "t": 61643.35153125043,
      "d": 34.92645312500099,
      "v": 20
    },
    {
      "midi": 65,
      "hit": false,
      "t": 61777.54264062544,
      "d": 91.91171874999418,
      "v": 43
    },
    {
      "midi": 41,
      "hit": false,
      "t": 61779.38087500044,
      "d": 68.01467187499657,
      "v": 30
    },
    {
      "midi": 70,
      "hit": false,
      "t": 62128.645406250434,
      "d": 283.0880937499969,
      "v": 61
    },
    {
      "midi": 46,
      "hit": false,
      "t": 62135.998343750434,
      "d": 2176.469500000014,
      "v": 46
    },
    {
      "midi": 54,
      "hit": false,
      "t": 62310.63060937543,
      "d": 253.6763437499976,
      "v": 38
    },
    {
      "midi": 58,
      "hit": false,
      "t": 62465.04229687543,
      "d": 330.8821875000067,
      "v": 40
    },
    {
      "midi": 62,
      "hit": false,
      "t": 62483.42464062543,
      "d": 299.632203125002,
      "v": 49
    },
    {
      "midi": 69,
      "hit": false,
      "t": 62669.08631250043,
      "d": 117.64700000000448,
      "v": 50
    },
    {
      "midi": 57,
      "hit": false,
      "t": 62672.762781250436,
      "d": 73.52937499999825,
      "v": 44
    },
    {
      "midi": 58,
      "hit": false,
      "t": 62845.556812500436,
      "d": 174.63226562500495,
      "v": 23
    },
    {
      "midi": 67,
      "hit": false,
      "t": 62847.395046875434,
      "d": 275.73515625000437,
      "v": 47
    },
    {
      "midi": 55,
      "hit": false,
      "t": 62849.23328125043,
      "d": 209.55871875000594,
      "v": 48
    },
    {
      "midi": 62,
      "hit": false,
      "t": 62860.262687500435,
      "d": 156.24992187500175,
      "v": 37
    },
    {
      "midi": 54,
      "hit": false,
      "t": 63192.98310937544,
      "d": 158.08815624999988,
      "v": 39
    },
    {
      "midi": 58,
      "hit": false,
      "t": 63200.33604687544,
      "d": 123.1617031249989,
      "v": 33
    },
    {
      "midi": 66,
      "hit": false,
      "t": 63213.20368750044,
      "d": 189.33814062499732,
      "v": 36
    },
    {
      "midi": 62,
      "hit": false,
      "t": 63215.04192187544,
      "d": 178.30873437500122,
      "v": 42
    },
    {
      "midi": 58,
      "hit": false,
      "t": 63389.67418750044,
      "d": 91.91171875000146,
      "v": 34
    },
    {
      "midi": 58,
      "hit": false,
      "t": 63724.23284375044,
      "d": 345.58806250000634,
      "v": 56
    },
    {
      "midi": 52,
      "hit": false,
      "t": 63740.77695312544,
      "d": 145.22051562500565,
      "v": 44
    },
    {
      "midi": 64,
      "hit": false,
      "t": 63744.45342187544,
      "d": 323.52925000000687,
      "v": 49
    },
    {
      "midi": 62,
      "hit": false,
      "t": 63759.15929687544,
      "d": 310.66160937500536,
      "v": 35
    },
    {
      "midi": 55,
      "hit": false,
      "t": 63906.218046875445,
      "d": 154.4116875000036,
      "v": 37
    },
    {
      "midi": 67,
      "hit": false,
      "t": 63920.923921875445,
      "d": 91.91171875000146,
      "v": 43
    },
    {
      "midi": 52,
      "hit": false,
      "t": 64117.61500000045,
      "d": 112.13229687499552,
      "v": 33
    },
    {
      "midi": 58,
      "hit": false,
      "t": 64251.806109375444,
      "d": 167.27932812500512,
      "v": 42
    },
    {
      "midi": 53,
      "hit": false,
      "t": 64251.806109375444,
      "d": 391.54392187499616,
      "v": 43
    },
    {
      "midi": 65,
      "hit": false,
      "t": 64255.48257812545,
      "d": 472.42623437499424,
      "v": 51
    },
    {
      "midi": 62,
      "hit": false,
      "t": 64262.83551562545,
      "d": 262.8675156249956,
      "v": 42
    },
    {
      "midi": 46,
      "hit": false,
      "t": 64442.98248437545,
      "d": 242.64693749999424,
      "v": 60
    },
    {
      "midi": 58,
      "hit": false,
      "t": 64619.45298437544,
      "d": 58.8234999999986,
      "v": 30
    },
    {
      "midi": 46,
      "hit": false,
      "t": 64781.21760937544,
      "d": 71.69114062500012,
      "v": 45
    },
    {
      "midi": 56,
      "hit": false,
      "t": 64808.79112500044,
      "d": 49.63232812500064,
      "v": 52
    },
    {
      "midi": 70,
      "hit": false,
      "t": 64981.58515625044,
      "d": 86.39701562499977,
      "v": 65
    },
    {
      "midi": 65,
      "hit": false,
      "t": 65001.80573437544,
      "d": 216.9116562499985,
      "v": 52
    },
    {
      "midi": 56,
      "hit": false,
      "t": 65014.67337500044,
      "d": 911.7642500000002,
      "v": 33
    },
    {
      "midi": 61,
      "hit": false,
      "t": 65016.51160937544,
      "d": 283.0880937499969,
      "v": 34
    },
    {
      "midi": 60,
      "hit": false,
      "t": 65022.02631250044,
      "d": 341.9115937499955,
      "v": 40
    },
    {
      "midi": 72,
      "hit": false,
      "t": 65077.17334375044,
      "d": 84.55878125000163,
      "v": 51
    },
    {
      "midi": 70,
      "hit": false,
      "t": 65139.67331250044,
      "d": 99.26465625000128,
      "v": 35
    },
    {
      "midi": 69,
      "hit": false,
      "t": 65290.40853125044,
      "d": 56.985265625000466,
      "v": 45
    },
    {
      "midi": 70,
      "hit": false,
      "t": 65385.99671875044,
      "d": 101.10289062499942,
      "v": 60
    },
    {
      "midi": 77,
      "hit": false,
      "t": 65553.27604687544,
      "d": 990.8083281250001,
      "v": 77
    },
    {
      "midi": 61,
      "hit": false,
      "t": 65860.26118750044,
      "d": 470.5880000000034,
      "v": 48
    },
    {
      "midi": 65,
      "hit": false,
      "t": 65863.93765625043,
      "d": 422.79390625000815,
      "v": 53
    },
    {
      "midi": 70,
      "hit": false,
      "t": 65885.99646875044,
      "d": 158.08815624999988,
      "v": 34
    },
    {
      "midi": 56,
      "hit": false,
      "t": 66213.20218750044,
      "d": 124.99993750000431,
      "v": 64
    },
    {
      "midi": 67,
      "hit": false,
      "t": 66367.61387500045,
      "d": 323.5292499999923,
      "v": 47
    },
    {
      "midi": 27,
      "hit": false,
      "t": 66542.24614062544,
      "d": 60.66173437499674,
      "v": 64
    },
    {
      "midi": 67,
      "hit": false,
      "t": 66726.06957812543,
      "d": 56.985265625000466,
      "v": 30
    },
    {
      "midi": 61,
      "hit": false,
      "t": 66878.64303125044,
      "d": 56.985265625000466,
      "v": 54
    },
    {
      "midi": 55,
      "hit": false,
      "t": 66889.67243750044,
      "d": 49.632328124993364,
      "v": 43
    },
    {
      "midi": 59,
      "hit": false,
      "t": 67049.59882812544,
      "d": 215.07342187500035,
      "v": 49
    },
    {
      "midi": 61,
      "hit": false,
      "t": 67049.59882812544,
      "d": 678.3084843749966,
      "v": 43
    },
    {
      "midi": 63,
      "hit": false,
      "t": 67062.46646875044,
      "d": 29.4117499999993,
      "v": 33
    },
    {
      "midi": 64,
      "hit": false,
      "t": 67062.46646875044,
      "d": 264.7057499999937,
      "v": 52
    },
    {
      "midi": 52,
      "hit": false,
      "t": 67238.93696875044,
      "d": 281.24985937500605,
      "v": 44
    },
    {
      "midi": 45,
      "hit": false,
      "t": 67582.68679687544,
      "d": 38.60292187500454,
      "v": 39
    },
    {
      "midi": 58,
      "hit": false,
      "t": 67738.93671875044,
      "d": 77.20584375002363,
      "v": 51
    },
    {
      "midi": 44,
      "hit": false,
      "t": 67746.28965625045,
      "d": 108.45582812502107,
      "v": 43
    },
    {
      "midi": 55,
      "hit": false,
      "t": 67749.96612500044,
      "d": 29.411750000013853,
      "v": 39
    },
    {
      "midi": 51,
      "hit": false,
      "t": 67772.02493750045,
      "d": 82.72054687501804,
      "v": 25
    },
    {
      "midi": 75,
      "hit": false,
      "t": 68137.83357812547,
      "d": 172.79403124998498,
      "v": 79
    },
    {
      "midi": 70,
      "hit": false,
      "t": 68141.51004687547,
      "d": 200.36754687498615,
      "v": 79
    },
    {
      "midi": 65,
      "hit": false,
      "t": 68143.34828125047,
      "d": 172.79403124998498,
      "v": 77
    },
    {
      "midi": 60,
      "hit": false,
      "t": 68148.86298437546,
      "d": 169.1175624999887,
      "v": 71
    },
    {
      "midi": 58,
      "hit": false,
      "t": 68178.27473437546,
      "d": 167.27932812499057,
      "v": 33
    },
    {
      "midi": 75,
      "hit": false,
      "t": 68362.09817187545,
      "d": 165.44109374999243,
      "v": 52
    },
    {
      "midi": 70,
      "hit": false,
      "t": 68369.45110937546,
      "d": 170.95579687498685,
      "v": 49
    },
    {
      "midi": 65,
      "hit": false,
      "t": 68374.96581250045,
      "d": 167.27932812499057,
      "v": 65
    },
    {
      "midi": 60,
      "hit": false,
      "t": 68374.96581250045,
      "d": 275.7351562499971,
      "v": 57
    },
    {
      "midi": 70,
      "hit": false,
      "t": 68680.11271875046,
      "d": 88.2352499999979,
      "v": 59
    },
    {
      "midi": 65,
      "hit": false,
      "t": 68681.95095312546,
      "d": 101.10289062499942,
      "v": 68
    },
    {
      "midi": 58,
      "hit": false,
      "t": 68687.46565625045,
      "d": 161.7646250000107,
      "v": 61
    },
    {
      "midi": 74,
      "hit": false,
      "t": 68689.30389062545,
      "d": 42.279390625000815,
      "v": 49
    },
    {
      "midi": 72,
      "hit": false,
      "t": 68885.99496875047,
      "d": 77.20584375000908,
      "v": 48
    },
    {
      "midi": 67,
      "hit": false,
      "t": 68889.67143750047,
      "d": 66.1764375000057,
      "v": 55
    },
    {
      "midi": 62,
      "hit": false,
      "t": 68889.67143750047,
      "d": 113.97053125001548,
      "v": 58
    },
    {
      "midi": 56,
      "hit": false,
      "t": 68898.86260937547,
      "d": 158.08815625001444,
      "v": 49
    },
    {
      "midi": 70,
      "hit": false,
      "t": 69119.45073437548,
      "d": 80.8823124999908,
      "v": 55
    },
    {
      "midi": 65,
      "hit": false,
      "t": 69119.45073437548,
      "d": 84.55878124998708,
      "v": 55
    },
    {
      "midi": 55,
      "hit": false,
      "t": 69124.96543750048,
      "d": 198.529312499988,
      "v": 55
    },
    {
      "midi": 60,
      "hit": false,
      "t": 69128.64190625047,
      "d": 104.77935937499569,
      "v": 42
    },
    {
      "midi": 68,
      "hit": false,
      "t": 69391.50942187547,
      "d": 62.49996875000943,
      "v": 48
    },
    {
      "midi": 63,
      "hit": false,
      "t": 69395.18589062546,
      "d": 64.33820312500757,
      "v": 57
    },
    {
      "midi": 60,
      "hit": false,
      "t": 69404.37706250047,
      "d": 31.24998437501199,
      "v": 55
    },
    {
      "midi": 51,
      "hit": false,
      "t": 69413.56823437547,
      "d": 130.51464062499872,
      "v": 46
    },
    {
      "midi": 65,
      "hit": false,
      "t": 69720.55337500047,
      "d": 123.16170312499162,
      "v": 57
    },
    {
      "midi": 48,
      "hit": false,
      "t": 69731.58278125047,
      "d": 191.17637499999546,
      "v": 51
    },
    {
      "midi": 55,
      "hit": false,
      "t": 69735.25925000047,
      "d": 79.04407812499267,
      "v": 45
    },
    {
      "midi": 60,
      "hit": false,
      "t": 69738.93571875046,
      "d": 783.0878437500069,
      "v": 44
    },
    {
      "midi": 55,
      "hit": false,
      "t": 69895.18564062547,
      "d": 575.3673593749991,
      "v": 52
    },
    {
      "midi": 63,
      "hit": false,
      "t": 69904.37681250047,
      "d": 648.8967343749973,
      "v": 46
    },
    {
      "midi": 51,
      "hit": false,
      "t": 69908.05328125047,
      "d": 97.42642187500314,
      "v": 37
    },
    {
      "midi": 45,
      "hit": false,
      "t": 70235.25900000047,
      "d": 341.9115937500028,
      "v": 90
    },
    {
      "midi": 72,
      "hit": false,
      "t": 70924.59689062547,
      "d": 102.94112499999756,
      "v": 66
    },
    {
      "midi": 63,
      "hit": false,
      "t": 70931.94982812548,
      "d": 156.2499218749872,
      "v": 64
    },
    {
      "midi": 66,
      "hit": false,
      "t": 70931.94982812548,
      "d": 172.79403124998498,
      "v": 69
    },
    {
      "midi": 57,
      "hit": false,
      "t": 70952.17040625047,
      "d": 183.82343749998836,
      "v": 61
    },
    {
      "midi": 71,
      "hit": false,
      "t": 71141.50854687546,
      "d": 113.97053124998638,
      "v": 45
    },
    {
      "midi": 68,
      "hit": false,
      "t": 71147.02325000045,
      "d": 102.94112499999756,
      "v": 50
    },
    {
      "midi": 65,
      "hit": false,
      "t": 71150.69971875045,
      "d": 119.48523437499534,
      "v": 55
    },
    {
      "midi": 74,
      "hit": false,
      "t": 71156.21442187544,
      "d": 104.77935937499569,
      "v": 76
    },
    {
      "midi": 59,
      "hit": false,
      "t": 71165.40559375045,
      "d": 145.22051562499837,
      "v": 73
    },
    {
      "midi": 58,
      "hit": false,
      "t": 71338.19962500044,
      "d": 55.14703125001688,
      "v": 21
    },
    {
      "midi": 59,
      "hit": false,
      "t": 71385.99371875045,
      "d": 60.66173437499674,
      "v": 60
    },
    {
      "midi": 75,
      "hit": false,
      "t": 71397.02312500046,
      "d": 176.4704999999958,
      "v": 61
    },
    {
      "midi": 60,
      "hit": false,
      "t": 71397.02312500046,
      "d": 185.6616718749865,
      "v": 53
    },
    {
      "midi": 66,
      "hit": false,
      "t": 71406.21429687546,
      "d": 170.95579687498685,
      "v": 57
    },
    {
      "midi": 72,
      "hit": false,
      "t": 71408.05253125046,
      "d": 181.98520312497567,
      "v": 54
    },
    {
      "midi": 69,
      "hit": false,
      "t": 71411.72900000046,
      "d": 174.63226562498312,
      "v": 55
    },
    {
      "midi": 57,
      "hit": false,
      "t": 71595.55243750043,
      "d": 34.926453124993714,
      "v": 44
    },
    {
      "midi": 58,
      "hit": false,
      "t": 71599.22890625043,
      "d": 51.4705624999915,
      "v": 42
    },
    {
      "midi": 75,
      "hit": false,
      "t": 71647.02300000042,
      "d": 165.44109375000698,
      "v": 60
    },
    {
      "midi": 59,
      "hit": false,
      "t": 71648.86123437542,
      "d": 29.411750000013853,
      "v": 55
    },
    {
      "midi": 60,
      "hit": false,
      "t": 71658.05240625043,
      "d": 172.79403124999953,
      "v": 62
    },
    {
      "midi": 66,
      "hit": false,
      "t": 71659.89064062542,
      "d": 136.02934375000768,
      "v": 64
    },
    {
      "midi": 72,
      "hit": false,
      "t": 71659.89064062542,
      "d": 167.27932812500512,
      "v": 47
    },
    {
      "midi": 69,
      "hit": false,
      "t": 71667.24357812543,
      "d": 143.38228125000023,
      "v": 54
    },
    {
      "midi": 58,
      "hit": false,
      "t": 71829.00820312543,
      "d": 51.470562500006054,
      "v": 53
    },
    {
      "midi": 57,
      "hit": false,
      "t": 71830.84643750043,
      "d": 36.7646875000064,
      "v": 37
    },
    {
      "midi": 59,
      "hit": false,
      "t": 71869.44935937543,
      "d": 75.36760937499639,
      "v": 58
    },
    {
      "midi": 75,
      "hit": false,
      "t": 71891.50817187544,
      "d": 255.51457812498847,
      "v": 63
    },
    {
      "midi": 72,
      "hit": false,
      "t": 71904.37581250044,
      "d": 248.16164062498137,
      "v": 46
    },
    {
      "midi": 60,
      "hit": false,
      "t": 71908.05228125044,
      "d": 360.29393749998417,
      "v": 43
    },
    {
      "midi": 69,
      "hit": false,
      "t": 71908.05228125044,
      "d": 424.63214062499173,
      "v": 59
    },
    {
      "midi": 66,
      "hit": false,
      "t": 71909.89051562543,
      "d": 191.17637499999546,
      "v": 57
    },
    {
      "midi": 66,
      "hit": false,
      "t": 72215.03742187542,
      "d": 44.11762499999895,
      "v": 34
    },
    {
      "midi": 74,
      "hit": false,
      "t": 72224.22859375042,
      "d": 101.10289062499942,
      "v": 48
    },
    {
      "midi": 58,
      "hit": false,
      "t": 72259.15504687541,
      "d": 27.573515625001164,
      "v": 28
    },
    {
      "midi": 58,
      "hit": false,
      "t": 72371.28734375043,
      "d": 172.79403124999953,
      "v": 55
    },
    {
      "midi": 72,
      "hit": false,
      "t": 72385.99321875043,
      "d": 112.1322968750028,
      "v": 45
    },
    {
      "midi": 75,
      "hit": false,
      "t": 72569.81665625043,
      "d": 443.0144843750022,
      "v": 69
    },
    {
      "midi": 60,
      "hit": false,
      "t": 72575.33135937543,
      "d": 452.20565625000745,
      "v": 57
    },
    {
      "midi": 66,
      "hit": false,
      "t": 72579.00782812542,
      "d": 356.61746875000244,
      "v": 64
    },
    {
      "midi": 69,
      "hit": false,
      "t": 72579.00782812542,
      "d": 409.92626562500664,
      "v": 67
    },
    {
      "midi": 59,
      "hit": false,
      "t": 72580.84606250042,
      "d": 23.897046874990338,
      "v": 52
    },
    {
      "midi": 72,
      "hit": false,
      "t": 72586.36076562542,
      "d": 196.69107812500442,
      "v": 44
    },
    {
      "midi": 57,
      "hit": false,
      "t": 73033.05171875043,
      "d": 231.61753124998359,
      "v": 42
    },
    {
      "midi": 63,
      "hit": false,
      "t": 73038.56642187542,
      "d": 68.01467187498929,
      "v": 37
    },
    {
      "midi": 72,
      "hit": false,
      "t": 73044.08112500042,
      "d": 82.72054687498894,
      "v": 38
    },
    {
      "midi": 74,
      "hit": false,
      "t": 73257.3163125004,
      "d": 180.14696875000664,
      "v": 74
    },
    {
      "midi": 59,
      "hit": false,
      "t": 73264.66925000041,
      "d": 86.39701562499977,
      "v": 46
    },
    {
      "midi": 71,
      "hit": false,
      "t": 73266.50748437541,
      "d": 167.27932812500512,
      "v": 61
    },
    {
      "midi": 62,
      "hit": false,
      "t": 73266.50748437541,
      "d": 180.14696875000664,
      "v": 71
    },
    {
      "midi": 64,
      "hit": false,
      "t": 73284.88982812541,
      "d": 27.573515625001164,
      "v": 45
    },
    {
      "midi": 74,
      "hit": false,
      "t": 73531.21323437542,
      "d": 79.04407812499267,
      "v": 32
    },
    {
      "midi": 71,
      "hit": false,
      "t": 73549.59557812542,
      "d": 88.2352499999979,
      "v": 53
    },
    {
      "midi": 67,
      "hit": false,
      "t": 73590.03673437542,
      "d": 58.8234999999986,
      "v": 46
    },
    {
      "midi": 62,
      "hit": false,
      "t": 73669.08081250041,
      "d": 49.632328124993364,
      "v": 66
    },
    {
      "midi": 60,
      "hit": false,
      "t": 73760.9925312504,
      "d": 202.20578124999884,
      "v": 29
    },
    {
      "midi": 67,
      "hit": false,
      "t": 73766.5072343754,
      "d": 143.38228125000023,
      "v": 20
    },
    {
      "midi": 58,
      "hit": false,
      "t": 73965.0365468754,
      "d": 77.20584374999453,
      "v": 64
    },
    {
      "midi": 67,
      "hit": false,
      "t": 74102.9041250004,
      "d": 191.17637499999546,
      "v": 34
    },
    {
      "midi": 59,
      "hit": false,
      "t": 74106.58059375039,
      "d": 128.67640625000058,
      "v": 41
    },
    {
      "midi": 50,
      "hit": false,
      "t": 74290.4040312504,
      "d": 387.8674531249999,
      "v": 67
    },
    {
      "midi": 49,
      "hit": false,
      "t": 74297.75696875039,
      "d": 115.80876562499907,
      "v": 48
    },
    {
      "midi": 59,
      "hit": false,
      "t": 74441.13925000039,
      "d": 180.14696875000664,
      "v": 40
    },
    {
      "midi": 55,
      "hit": false,
      "t": 74641.50679687539,
      "d": 170.95579687501595,
      "v": 48
    },
    {
      "midi": 44,
      "hit": false,
      "t": 74659.88914062538,
      "d": 176.4705000000249,
      "v": 62
    },
    {
      "midi": 51,
      "hit": false,
      "t": 74667.24207812539,
      "d": 187.49990625001374,
      "v": 62
    },
    {
      "midi": 53,
      "hit": false,
      "t": 75022.02131250041,
      "d": 257.35281250000116,
      "v": 64
    },
    {
      "midi": 65,
      "hit": false,
      "t": 75025.6977812504,
      "d": 25.735281250003027,
      "v": 50
    },
    {
      "midi": 63,
      "hit": false,
      "t": 75036.72718750041,
      "d": 294.117499999993,
      "v": 70
    },
    {
      "midi": 58,
      "hit": false,
      "t": 75040.4036562504,
      "d": 288.6027968749986,
      "v": 59
    },
    {
      "midi": 70,
      "hit": false,
      "t": 75198.4918125004,
      "d": 163.60285937500885,
      "v": 67
    },
    {
      "midi": 67,
      "hit": false,
      "t": 75354.7417343754,
      "d": 170.95579687501595,
      "v": 57
    },
    {
      "midi": 65,
      "hit": false,
      "t": 75384.15348437542,
      "d": 242.64693750001607,
      "v": 75
    },
    {
      "midi": 60,
      "hit": false,
      "t": 75395.18289062542,
      "d": 248.16164062501048,
      "v": 45
    },
    {
      "midi": 55,
      "hit": false,
      "t": 75397.02112500042,
      "d": 193.01460937500815,
      "v": 55
    },
    {
      "midi": 72,
      "hit": false,
      "t": 75547.75634375043,
      "d": 158.08815624999988,
      "v": 50
    },
    {
      "midi": 67,
      "hit": false,
      "t": 75720.55037500043,
      "d": 213.23518749998766,
      "v": 77
    },
    {
      "midi": 56,
      "hit": false,
      "t": 75731.57978125043,
      "d": 227.9410624999873,
      "v": 66
    },
    {
      "midi": 77,
      "hit": false,
      "t": 75737.09448437543,
      "d": 102.94112499999756,
      "v": 51
    },
    {
      "midi": 62,
      "hit": false,
      "t": 75738.93271875042,
      "d": 227.94106250000186,
      "v": 51
    },
    {
      "midi": 82,
      "hit": false,
      "t": 76062.46196875043,
      "d": 134.191109374995,
      "v": 56
    },
    {
      "midi": 43,
      "hit": false,
      "t": 76213.19718750042,
      "d": 69.85290625000198,
      "v": 49
    },
    {
      "midi": 50,
      "hit": false,
      "t": 76222.38835937543,
      "d": 88.2352499999979,
      "v": 54
    },
    {
      "midi": 74,
      "hit": false,
      "t": 76222.38835937543,
      "d": 178.30873437499395,
      "v": 65
    },
    {
      "midi": 86,
      "hit": false,
      "t": 76226.06482812543,
      "d": 180.14696874999208,
      "v": 69
    },
    {
      "midi": 83,
      "hit": false,
      "t": 76468.71176562541,
      "d": 97.42642187498859,
      "v": 75
    },
    {
      "midi": 54,
      "hit": false,
      "t": 76516.50585937541,
      "d": 435.6615468749951,
      "v": 46
    },
    {
      "midi": 64,
      "hit": false,
      "t": 76518.3440937504,
      "d": 382.3527499999909,
      "v": 50
    },
    {
      "midi": 59,
      "hit": false,
      "t": 76549.5940781254,
      "d": 336.39689062499383,
      "v": 36
    },
    {
      "midi": 62,
      "hit": false,
      "t": 77121.2849687504,
      "d": 351.10276562500803,
      "v": 67
    },
    {
      "midi": 57,
      "hit": false,
      "t": 77132.31437500041,
      "d": 279.41162499999336,
      "v": 48
    },
    {
      "midi": 52,
      "hit": false,
      "t": 77134.15260937541,
      "d": 297.79396875000384,
      "v": 45
    },
    {
      "midi": 79,
      "hit": false,
      "t": 77400.6965937504,
      "d": 79.04407812502177,
      "v": 63
    },
    {
      "midi": 71,
      "hit": false,
      "t": 77419.07893750041,
      "d": 51.470562500006054,
      "v": 34
    },
    {
      "midi": 76,
      "hit": false,
      "t": 77507.31418750042,
      "d": 56.985265625000466,
      "v": 50
    },
    {
      "midi": 72,
      "hit": false,
      "t": 77630.47589062543,
      "d": 643.3820312500029,
      "v": 55
    },
    {
      "midi": 77,
      "hit": false,
      "t": 77632.31412500043,
      "d": 626.8379218750051,
      "v": 61
    },
    {
      "midi": 68,
      "hit": false,
      "t": 77634.15235937542,
      "d": 693.0143593750108,
      "v": 67
    },
    {
      "midi": 69,
      "hit": false,
      "t": 77641.50529687543,
      "d": 246.32340625001234,
      "v": 63
    },
    {
      "midi": 74,
      "hit": false,
      "t": 77663.56410937544,
      "d": 595.5879374999931,
      "v": 38
    },
    {
      "midi": 67,
      "hit": false,
      "t": 77977.90218750044,
      "d": 246.3234062499978,
      "v": 47
    },
    {
      "midi": 65,
      "hit": false,
      "t": 78222.38735937544,
      "d": 132.35287499999686,
      "v": 58
    },
    {
      "midi": 68,
      "hit": false,
      "t": 78534.88720312544,
      "d": 183.8234375000029,
      "v": 62
    },
    {
      "midi": 62,
      "hit": false,
      "t": 78544.07837500045,
      "d": 55.14703125000233,
      "v": 32
    },
    {
      "midi": 65,
      "hit": false,
      "t": 78698.49006250045,
      "d": 77.20584374999453,
      "v": 52
    },
    {
      "midi": 44,
      "hit": false,
      "t": 78869.44585937545,
      "d": 101.10289062499942,
      "v": 36
    },
    {
      "midi": 57,
      "hit": false,
      "t": 79045.91635937546,
      "d": 281.24985937500605,
      "v": 45
    },
    {
      "midi": 60,
      "hit": false,
      "t": 79051.43106250046,
      "d": 284.9263281250169,
      "v": 44
    },
    {
      "midi": 67,
      "hit": false,
      "t": 79051.43106250046,
      "d": 306.98514062502363,
      "v": 37
    },
    {
      "midi": 55,
      "hit": false,
      "t": 79058.78400000047,
      "d": 299.63220312501653,
      "v": 38
    },
    {
      "midi": 43,
      "hit": false,
      "t": 79062.46046875046,
      "d": 479.77917187502317,
      "v": 31
    },
    {
      "midi": 65,
      "hit": false,
      "t": 79075.32810937546,
      "d": 273.8969218750135,
      "v": 33
    },
    {
      "midi": 50,
      "hit": false,
      "t": 79391.50442187548,
      "d": 91.91171875000873,
      "v": 48
    },
    {
      "midi": 53,
      "hit": false,
      "t": 79604.73960937548,
      "d": 327.20571875000314,
      "v": 40
    },
    {
      "midi": 57,
      "hit": false,
      "t": 79608.41607812548,
      "d": 340.07335937500466,
      "v": 38
    },
    {
      "midi": 60,
      "hit": false,
      "t": 79617.60725000048,
      "d": 373.16157812500023,
      "v": 32
    },
    {
      "midi": 31,
      "hit": false,
      "t": 79954.00414062547,
      "d": 29.4117499999993,
      "v": 45
    },
    {
      "midi": 55,
      "hit": false,
      "t": 80128.63640625049,
      "d": 400.73509374998685,
      "v": 62
    },
    {
      "midi": 56,
      "hit": false,
      "t": 80130.47464062549,
      "d": 441.1762499999895,
      "v": 59
    },
    {
      "midi": 60,
      "hit": false,
      "t": 80132.31287500048,
      "d": 454.04389062499104,
      "v": 50
    },
    {
      "midi": 43,
      "hit": false,
      "t": 80137.82757812548,
      "d": 408.08803124999395,
      "v": 54
    },
    {
      "midi": 52,
      "hit": false,
      "t": 80139.66581250048,
      "d": 312.4998437500035,
      "v": 42
    },
    {
      "midi": 56,
      "hit": false,
      "t": 80692.97435937547,
      "d": 439.3380156250205,
      "v": 49
    },
    {
      "midi": 60,
      "hit": false,
      "t": 80694.81259375047,
      "d": 428.3086093750171,
      "v": 48
    },
    {
      "midi": 55,
      "hit": false,
      "t": 80696.65082812546,
      "d": 358.45570312501513,
      "v": 49
    },
    {
      "midi": 53,
      "hit": false,
      "t": 80705.84200000047,
      "d": 363.97040625000955,
      "v": 54
    },
    {
      "midi": 43,
      "hit": false,
      "t": 80707.68023437547,
      "d": 237.1322343750071,
      "v": 47
    },
    {
      "midi": 43,
      "hit": false,
      "t": 81066.13593750048,
      "d": 409.92626562500664,
      "v": 59
    },
    {
      "midi": 56,
      "hit": false,
      "t": 81226.0623281255,
      "d": 216.9116562499985,
      "v": 62
    },
    {
      "midi": 55,
      "hit": false,
      "t": 81231.57703125049,
      "d": 156.24992187500175,
      "v": 61
    },
    {
      "midi": 60,
      "hit": false,
      "t": 81231.57703125049,
      "d": 224.2645937500056,
      "v": 58
    },
    {
      "midi": 53,
      "hit": false,
      "t": 81240.7682031255,
      "d": 174.63226562499767,
      "v": 62
    },
    {
      "midi": 56,
      "hit": false,
      "t": 81567.97392187548,
      "d": 88.23525000001246,
      "v": 60
    },
    {
      "midi": 55,
      "hit": false,
      "t": 81580.84156250049,
      "d": 58.823500000013155,
      "v": 54
    },
    {
      "midi": 60,
      "hit": false,
      "t": 81588.19450000049,
      "d": 29.4117499999993,
      "v": 34
    },
    {
      "midi": 43,
      "hit": false,
      "t": 81762.82676562549,
      "d": 69.85290625000198,
      "v": 35
    },
    {
      "midi": 55,
      "hit": false,
      "t": 81911.7237500005,
      "d": 104.77935937499569,
      "v": 35
    },
    {
      "midi": 52,
      "hit": false,
      "t": 81913.5619843755,
      "d": 104.77935937499569,
      "v": 34
    },
    {
      "midi": 60,
      "hit": false,
      "t": 81915.4002187505,
      "d": 91.91171874999418,
      "v": 27
    },
    {
      "midi": 36,
      "hit": false,
      "t": 82095.54718750049,
      "d": 376.8380468749965,
      "v": 1
    },
    {
      "midi": 64,
      "hit": false,
      "t": 82270.17945312549,
      "d": 62.49996874999488,
      "v": 34
    },
    {
      "midi": 67,
      "hit": false,
      "t": 82463.1940625005,
      "d": 1031.2494843749882,
      "v": 48
    },
    {
      "midi": 62,
      "hit": false,
      "t": 82468.70876562549,
      "d": 1018.3818437499867,
      "v": 50
    },
    {
      "midi": 59,
      "hit": false,
      "t": 82470.54700000049,
      "d": 1040.4406562499935,
      "v": 45
    },
    {
      "midi": 45,
      "hit": false,
      "t": 82476.06170312548,
      "d": 71.69114062500012,
      "v": 38
    },
    {
      "midi": 64,
      "hit": false,
      "t": 82479.73817187548,
      "d": 1005.5142031249998,
      "v": 49
    },
    {
      "midi": 45,
      "hit": false,
      "t": 82786.72331250049,
      "d": 31.24998437499744,
      "v": 60
    },
    {
      "midi": 43,
      "hit": false,
      "t": 83123.12020312548,
      "d": 130.51464062499872,
      "v": 44
    },
    {
      "midi": 36,
      "hit": false,
      "t": 83299.59070312548,
      "d": 1306.9846406250144,
      "v": 45
    },
    {
      "midi": 64,
      "hit": false,
      "t": 83840.03160937547,
      "d": 119.48523437499534,
      "v": 40
    },
    {
      "midi": 43,
      "hit": false,
      "t": 83845.54631250046,
      "d": 161.7646250000107,
      "v": 45
    },
    {
      "midi": 55,
      "hit": false,
      "t": 83851.06101562546,
      "d": 148.8969843750092,
      "v": 45
    },
    {
      "midi": 59,
      "hit": false,
      "t": 83858.41395312546,
      "d": 112.1322968750028,
      "v": 48
    },
    {
      "midi": 60,
      "hit": false,
      "t": 83860.25218750046,
      "d": 108.45582812500652,
      "v": 37
    },
    {
      "midi": 56,
      "hit": false,
      "t": 84176.42850000047,
      "d": 134.19110937500955,
      "v": 53
    },
    {
      "midi": 62,
      "hit": false,
      "t": 84180.10496875047,
      "d": 106.61759375000838,
      "v": 50
    },
    {
      "midi": 53,
      "hit": false,
      "t": 84189.29614062548,
      "d": 112.1322968750028,
      "v": 41
    },
    {
      "midi": 43,
      "hit": false,
      "t": 84189.29614062548,
      "d": 124.99993750000431,
      "v": 41
    },
    {
      "midi": 60,
      "hit": false,
      "t": 84363.92840625047,
      "d": 169.11756250000326,
      "v": 29
    },
    {
      "midi": 55,
      "hit": false,
      "t": 84371.28134375048,
      "d": 161.76462499999616,
      "v": 34
    },
    {
      "midi": 52,
      "hit": false,
      "t": 84384.14898437548,
      "d": 115.80876562499907,
      "v": 24
    },
    {
      "midi": 43,
      "hit": false,
      "t": 84562.45771875049,
      "d": 42.279390625000815,
      "v": 20
    },
    {
      "midi": 42,
      "hit": false,
      "t": 84562.45771875049,
      "d": 102.94112499999756,
      "v": 19
    },
    {
      "midi": 57,
      "hit": false,
      "t": 84704.0017656255,
      "d": 579.0438281249953,
      "v": 52
    },
    {
      "midi": 55,
      "hit": false,
      "t": 84705.84000000049,
      "d": 545.9556093749998,
      "v": 45
    },
    {
      "midi": 60,
      "hit": false,
      "t": 84707.67823437549,
      "d": 595.5879375000077,
      "v": 40
    },
    {
      "midi": 64,
      "hit": false,
      "t": 84715.0311718755,
      "d": 586.3967656250024,
      "v": 38
    },
    {
      "midi": 36,
      "hit": false,
      "t": 84715.0311718755,
      "d": 1303.3081718750036,
      "v": 45
    },
    {
      "midi": 43,
      "hit": false,
      "t": 84942.9722343755,
      "d": 86.39701562499977,
      "v": 36
    },
    {
      "midi": 42,
      "hit": false,
      "t": 84961.3545781255,
      "d": 23.89704687500489,
      "v": 28
    },
    {
      "midi": 43,
      "hit": false,
      "t": 85284.88382812549,
      "d": 104.77935937501024,
      "v": 48
    },
    {
      "midi": 42,
      "hit": false,
      "t": 85292.2367656255,
      "d": 23.89704687500489,
      "v": 35
    },
    {
      "midi": 43,
      "hit": false,
      "t": 85619.4424843755,
      "d": 121.32346874999348,
      "v": 51
    },
    {
      "midi": 43,
      "hit": false,
      "t": 85950.3246718755,
      "d": 143.38228125000023,
      "v": 41
    },
    {
      "midi": 36,
      "hit": false,
      "t": 86158.0451562505,
      "d": 1240.8082031249942,
      "v": 58
    },
    {
      "midi": 43,
      "hit": false,
      "t": 86349.2215312505,
      "d": 152.57345312500547,
      "v": 50
    },
    {
      "midi": 42,
      "hit": false,
      "t": 86363.9274062505,
      "d": 23.89704687500489,
      "v": 33
    },
    {
      "midi": 64,
      "hit": false,
      "t": 86676.4272500005,
      "d": 474.2644687500142,
      "v": 51
    },
    {
      "midi": 56,
      "hit": false,
      "t": 86676.4272500005,
      "d": 569.8526562500047,
      "v": 51
    },
    {
      "midi": 43,
      "hit": false,
      "t": 86678.2654843755,
      "d": 147.0587499999965,
      "v": 47
    },
    {
      "midi": 60,
      "hit": false,
      "t": 86680.1037187505,
      "d": 503.6762187500135,
      "v": 44
    },
    {
      "midi": 55,
      "hit": false,
      "t": 86681.9419531255,
      "d": 590.0732343750133,
      "v": 42
    },
    {
      "midi": 43,
      "hit": false,
      "t": 87003.6329687505,
      "d": 86.39701562499977,
      "v": 74
    },
    {
      "midi": 42,
      "hit": false,
      "t": 87009.1476718755,
      "d": 90.0734843750106,
      "v": 56
    },
    {
      "midi": 42,
      "hit": false,
      "t": 87338.1916250005,
      "d": 58.8234999999986,
      "v": 43
    },
    {
      "midi": 43,
      "hit": false,
      "t": 87341.8680937505,
      "d": 253.6763437500049,
      "v": 50
    },
    {
      "midi": 52,
      "hit": false,
      "t": 87514.6621250005,
      "d": 79.04407812500722,
      "v": 54
    },
    {
      "midi": 60,
      "hit": false,
      "t": 87514.6621250005,
      "d": 97.42642187500314,
      "v": 43
    },
    {
      "midi": 55,
      "hit": false,
      "t": 87522.0150625005,
      "d": 97.42642187500314,
      "v": 49
    },
    {
      "midi": 36,
      "hit": false,
      "t": 87523.8532968755,
      "d": 1231.617031249989,
      "v": 54
    },
    {
      "midi": 62,
      "hit": false,
      "t": 87716.86790625051,
      "d": 47.79409374999523,
      "v": 45
    },
    {
      "midi": 57,
      "hit": false,
      "t": 87733.41201562551,
      "d": 33.088218749995576,
      "v": 27
    },
    {
      "midi": 57,
      "hit": false,
      "t": 87878.6325312505,
      "d": 33.088218749995576,
      "v": 53
    },
    {
      "midi": 64,
      "hit": false,
      "t": 87882.3090000005,
      "d": 68.01467187500384,
      "v": 45
    },
    {
      "midi": 43,
      "hit": false,
      "t": 88084.5147812505,
      "d": 176.4704999999958,
      "v": 66
    },
    {
      "midi": 43,
      "hit": false,
      "t": 88428.26460937549,
      "d": 200.3675468750007,
      "v": 56
    },
    {
      "midi": 69,
      "hit": false,
      "t": 88428.26460937549,
      "d": 584.5585312499898,
      "v": 58
    },
    {
      "midi": 59,
      "hit": false,
      "t": 88430.10284375049,
      "d": 571.6908906249882,
      "v": 60
    },
    {
      "midi": 63,
      "hit": false,
      "t": 88431.94107812548,
      "d": 661.7643749999988,
      "v": 52
    },
    {
      "midi": 65,
      "hit": false,
      "t": 88437.45578125048,
      "d": 577.2055937499972,
      "v": 49
    },
    {
      "midi": 43,
      "hit": false,
      "t": 88766.4997343755,
      "d": 215.0734218749858,
      "v": 57
    },
    {
      "midi": 42,
      "hit": false,
      "t": 88803.26442187549,
      "d": 40.44115625000268,
      "v": 23
    },
    {
      "midi": 36,
      "hit": false,
      "t": 88941.13200000048,
      "d": 987.1318593750038,
      "v": 66
    },
    {
      "midi": 43,
      "hit": false,
      "t": 89512.82289062548,
      "d": 227.9410624999873,
      "v": 60
    },
    {
      "midi": 67,
      "hit": false,
      "t": 89514.66112500048,
      "d": 204.04401562498242,
      "v": 61
    },
    {
      "midi": 65,
      "hit": false,
      "t": 89514.66112500048,
      "d": 233.45576562499627,
      "v": 58
    },
    {
      "midi": 57,
      "hit": false,
      "t": 89516.49935937548,
      "d": 215.0734218749858,
      "v": 67
    },
    {
      "midi": 60,
      "hit": false,
      "t": 89522.01406250047,
      "d": 193.0146093749936,
      "v": 64
    },
    {
      "midi": 42,
      "hit": false,
      "t": 89527.52876562547,
      "d": 23.89704687500489,
      "v": 39
    },
    {
      "midi": 65,
      "hit": false,
      "t": 89845.54331250048,
      "d": 108.45582812500652,
      "v": 61
    },
    {
      "midi": 43,
      "hit": false,
      "t": 89854.73448437548,
      "d": 419.11743749998277,
      "v": 46
    },
    {
      "midi": 57,
      "hit": false,
      "t": 89856.57271875048,
      "d": 147.0587499999965,
      "v": 58
    },
    {
      "midi": 60,
      "hit": false,
      "t": 89858.41095312548,
      "d": 115.80876562499907,
      "v": 61
    },
    {
      "midi": 36,
      "hit": false,
      "t": 90209.51371875047,
      "d": 71.69114062500012,
      "v": 55
    },
    {
      "midi": 65,
      "hit": false,
      "t": 90352.89600000047,
      "d": 226.10282812498917,
      "v": 65
    },
    {
      "midi": 57,
      "hit": false,
      "t": 90356.57246875047,
      "d": 237.13223437499255,
      "v": 58
    },
    {
      "midi": 60,
      "hit": false,
      "t": 90360.24893750047,
      "d": 249.99987499999406,
      "v": 50
    },
    {
      "midi": 53,
      "hit": false,
      "t": 90365.76364062546,
      "d": 207.7204843750078,
      "v": 48
    },
    {
      "midi": 65,
      "hit": false,
      "t": 90683.77818750046,
      "d": 154.4116875000036,
      "v": 64
    },
    {
      "midi": 57,
      "hit": false,
      "t": 90691.13112500047,
      "d": 159.92639062499802,
      "v": 38
    },
    {
      "midi": 60,
      "hit": false,
      "t": 90692.96935937546,
      "d": 150.73521874999278,
      "v": 17
    },
    {
      "midi": 64,
      "hit": false,
      "t": 90702.16053125047,
      "d": 318.0145468749979,
      "v": 37
    },
    {
      "midi": 53,
      "hit": false,
      "t": 90909.88101562546,
      "d": 71.69114062500012,
      "v": 45
    },
    {
      "midi": 57,
      "hit": false,
      "t": 91191.13087500047,
      "d": 181.98520312500477,
      "v": 61
    },
    {
      "midi": 60,
      "hit": false,
      "t": 91194.80734375046,
      "d": 176.47050000001036,
      "v": 51
    },
    {
      "midi": 62,
      "hit": false,
      "t": 91249.95437500047,
      "d": 126.83817187500244,
      "v": 33
    },
    {
      "midi": 64,
      "hit": false,
      "t": 91424.58664062546,
      "d": 176.4704999999958,
      "v": 46
    },
    {
      "midi": 57,
      "hit": false,
      "t": 91446.64545312547,
      "d": 106.61759374999383,
      "v": 44
    },
    {
      "midi": 60,
      "hit": false,
      "t": 91448.48368750047,
      "d": 124.99993749998976,
      "v": 34
    },
    {
      "midi": 53,
      "hit": false,
      "t": 91450.32192187547,
      "d": 86.39701562499977,
      "v": 32
    },
    {
      "midi": 64,
      "hit": false,
      "t": 91678.26298437545,
      "d": 312.4998437499744,
      "v": 48
    },
    {
      "midi": 56,
      "hit": false,
      "t": 91681.93945312545,
      "d": 523.8967968749785,
      "v": 53
    },
    {
      "midi": 53,
      "hit": false,
      "t": 91685.61592187545,
      "d": 270.2204531249881,
      "v": 44
    },
    {
      "midi": 59,
      "hit": false,
      "t": 91685.61592187545,
      "d": 301.47043749998556,
      "v": 54
    },
    {
      "midi": 62,
      "hit": false,
      "t": 91722.38060937544,
      "d": 180.14696874999208,
      "v": 24
    },
    {
      "midi": 53,
      "hit": false,
      "t": 92010.98340625042,
      "d": 170.9557968750014,
      "v": 34
    },
    {
      "midi": 62,
      "hit": false,
      "t": 92010.98340625042,
      "d": 237.1322343750071,
      "v": 43
    },
    {
      "midi": 59,
      "hit": false,
      "t": 92042.23339062542,
      "d": 132.35287499999686,
      "v": 32
    },
    {
      "midi": 56,
      "hit": false,
      "t": 92312.45384375042,
      "d": 738.9702187500079,
      "v": 61
    },
    {
      "midi": 62,
      "hit": false,
      "t": 92314.29207812542,
      "d": 737.1319843750098,
      "v": 36
    },
    {
      "midi": 53,
      "hit": false,
      "t": 92327.15971875042,
      "d": 373.16157812500023,
      "v": 58
    },
    {
      "midi": 59,
      "hit": false,
      "t": 92332.67442187542,
      "d": 628.6761562500178,
      "v": 59
    },
    {
      "midi": 43,
      "hit": false,
      "t": 92628.63015625042,
      "d": 428.30860937500256,
      "v": 79
    },
    {
      "midi": 42,
      "hit": false,
      "t": 92635.98309375043,
      "d": 71.69114062500012,
      "v": 61
    },
    {
      "midi": 53,
      "hit": false,
      "t": 92795.90948437543,
      "d": 226.10282812500373,
      "v": 19
    },
    {
      "midi": 42,
      "hit": false,
      "t": 93053.26229687543,
      "d": 86.39701562499977,
      "v": 37
    },
    {
      "midi": 53,
      "hit": false,
      "t": 93158.04165625043,
      "d": 249.99987500000861,
      "v": 52
    },
    {
      "midi": 43,
      "hit": false,
      "t": 93159.87989062542,
      "d": 492.6468125000101,
      "v": 59
    },
    {
      "midi": 62,
      "hit": false,
      "t": 93167.23282812543,
      "d": 172.79403124999953,
      "v": 44
    },
    {
      "midi": 57,
      "hit": false,
      "t": 93176.42400000044,
      "d": 255.51457812500303,
      "v": 35
    },
    {
      "midi": 60,
      "hit": false,
      "t": 93180.10046875043,
      "d": 185.66167187500105,
      "v": 38
    },
    {
      "midi": 64,
      "hit": false,
      "t": 93380.46801562543,
      "d": 97.42642187500314,
      "v": 55
    },
    {
      "midi": 65,
      "hit": false,
      "t": 93617.60025000044,
      "d": 113.97053124998638,
      "v": 54
    },
    {
      "midi": 76,
      "hit": false,
      "t": 94115.76176562542,
      "d": 439.33801562500594,
      "v": 68
    },
    {
      "midi": 72,
      "hit": false,
      "t": 94124.95293750042,
      "d": 402.57332812499953,
      "v": 63
    },
    {
      "midi": 68,
      "hit": false,
      "t": 94126.79117187542,
      "d": 409.92626562500664,
      "v": 67
    },
    {
      "midi": 64,
      "hit": false,
      "t": 94130.46764062541,
      "d": 273.89692187499895,
      "v": 82
    },
    {
      "midi": 65,
      "hit": false,
      "t": 94132.30587500041,
      "d": 380.51451562500733,
      "v": 69
    },
    {
      "midi": 62,
      "hit": false,
      "t": 94378.62928125041,
      "d": 213.2351875000022,
      "v": 70
    },
    {
      "midi": 65,
      "hit": false,
      "t": 94617.59975000042,
      "d": 134.191109374995,
      "v": 47
    },
    {
      "midi": 74,
      "hit": false,
      "t": 94619.43798437541,
      "d": 88.2352499999979,
      "v": 51
    },
    {
      "midi": 68,
      "hit": false,
      "t": 94619.43798437541,
      "d": 113.97053125000093,
      "v": 43
    },
    {
      "midi": 60,
      "hit": false,
      "t": 94624.95268750041,
      "d": 244.48517187499965,
      "v": 53
    },
    {
      "midi": 65,
      "hit": false,
      "t": 94845.5408125004,
      "d": 145.22051562501292,
      "v": 57
    },
    {
      "midi": 72,
      "hit": false,
      "t": 94851.0555156254,
      "d": 169.1175625000178,
      "v": 47
    },
    {
      "midi": 56,
      "hit": false,
      "t": 94860.2466875004,
      "d": 231.6175312500127,
      "v": 53
    },
    {
      "midi": 68,
      "hit": false,
      "t": 95090.02598437542,
      "d": 150.73521874999278,
      "v": 37
    },
    {
      "midi": 53,
      "hit": false,
      "t": 95108.40832812541,
      "d": 156.24992187500175,
      "v": 32
    },
    {
      "midi": 65,
      "hit": false,
      "t": 95112.08479687541,
      "d": 88.2352499999979,
      "v": 34
    },
    {
      "midi": 72,
      "hit": false,
      "t": 95301.42293750042,
      "d": 137.86757812500582,
      "v": 53
    },
    {
      "midi": 60,
      "hit": false,
      "t": 95301.42293750042,
      "d": 181.98520312500477,
      "v": 57
    },
    {
      "midi": 65,
      "hit": false,
      "t": 95303.26117187542,
      "d": 183.8234375000029,
      "v": 61
    },
    {
      "midi": 68,
      "hit": false,
      "t": 95312.45234375042,
      "d": 158.08815624999988,
      "v": 46
    },
    {
      "midi": 56,
      "hit": false,
      "t": 95509.14342187543,
      "d": 215.0734218749858,
      "v": 51
    },
    {
      "midi": 65,
      "hit": false,
      "t": 95540.39340625043,
      "d": 123.16170312497707,
      "v": 17
    },
    {
      "midi": 70,
      "hit": false,
      "t": 95544.06987500042,
      "d": 156.2499218749872,
      "v": 36
    },
    {
      "midi": 60,
      "hit": false,
      "t": 95564.29045312542,
      "d": 64.33820312499302,
      "v": 17
    },
    {
      "midi": 53,
      "hit": false,
      "t": 95748.11389062542,
      "d": 150.73521874999278,
      "v": 41
    },
    {
      "midi": 60,
      "hit": false,
      "t": 95753.62859375041,
      "d": 64.33820312499302,
      "v": 30
    },
    {
      "midi": 56,
      "hit": false,
      "t": 95944.80496875042,
      "d": 216.9116562499985,
      "v": 60
    },
    {
      "midi": 72,
      "hit": false,
      "t": 95953.99614062543,
      "d": 108.45582812499197,
      "v": 54
    },
    {
      "midi": 65,
      "hit": false,
      "t": 95957.67260937543,
      "d": 154.4116875000036,
      "v": 55
    },
    {
      "midi": 60,
      "hit": false,
      "t": 95961.34907812542,
      "d": 170.9557968750014,
      "v": 55
    },
    {
      "midi": 68,
      "hit": false,
      "t": 95965.02554687542,
      "d": 124.99993750000431,
      "v": 33
    },
    {
      "midi": 68,
      "hit": false,
      "t": 96233.40776562542,
      "d": 220.5881249999802,
      "v": 57
    },
    {
      "midi": 60,
      "hit": false,
      "t": 96244.43717187541,
      "d": 215.0734218749858,
      "v": 49
    },
    {
      "midi": 53,
      "hit": false,
      "t": 96246.27540625041,
      "d": 178.30873437499395,
      "v": 43
    },
    {
      "midi": 56,
      "hit": false,
      "t": 96711.3487031254,
      "d": 137.86757812497672,
      "v": 52
    },
    {
      "midi": 52,
      "hit": false,
      "t": 96715.0251718754,
      "d": 150.73521874997823,
      "v": 37
    },
    {
      "midi": 60,
      "hit": false,
      "t": 96720.5398750004,
      "d": 281.24985937497695,
      "v": 43
    },
    {
      "midi": 64,
      "hit": false,
      "t": 96724.21634375039,
      "d": 121.32346874999348,
      "v": 33
    },
    {
      "midi": 67,
      "hit": false,
      "t": 96898.84860937537,
      "d": 88.2352499999979,
      "v": 51
    },
    {
      "midi": 56,
      "hit": false,
      "t": 96898.84860937537,
      "d": 101.10289062499942,
      "v": 52
    },
    {
      "midi": 55,
      "hit": false,
      "t": 96909.87801562538,
      "d": 126.83817187498789,
      "v": 55
    },
    {
      "midi": 54,
      "hit": false,
      "t": 97018.33384375037,
      "d": 86.39701562499977,
      "v": 46
    },
    {
      "midi": 52,
      "hit": false,
      "t": 97198.48081250038,
      "d": 97.42642187498859,
      "v": 32
    },
    {
      "midi": 56,
      "hit": false,
      "t": 97310.61310937536,
      "d": 185.66167187500105,
      "v": 55
    },
    {
      "midi": 67,
      "hit": false,
      "t": 97312.45134375036,
      "d": 226.10282812500373,
      "v": 58
    },
    {
      "midi": 60,
      "hit": false,
      "t": 97316.12781250036,
      "d": 202.2057812500134,
      "v": 47
    },
    {
      "midi": 55,
      "hit": false,
      "t": 97323.48075000037,
      "d": 143.38228125000023,
      "v": 54
    },
    {
      "midi": 48,
      "hit": false,
      "t": 97595.53943750037,
      "d": 75.36760937499639,
      "v": 36
    },
    {
      "midi": 65,
      "hit": false,
      "t": 97718.70114062536,
      "d": 569.8526562500192,
      "v": 52
    },
    {
      "midi": 60,
      "hit": false,
      "t": 97724.21584375035,
      "d": 104.77935937501024,
      "v": 43
    },
    {
      "midi": 56,
      "hit": false,
      "t": 97727.89231250035,
      "d": 137.86757812502037,
      "v": 34
    },
    {
      "midi": 53,
      "hit": false,
      "t": 97738.92171875035,
      "d": 248.16164062502503,
      "v": 38
    },
    {
      "midi": 56,
      "hit": false,
      "t": 97950.31867187537,
      "d": 354.77923437501886,
      "v": 45
    },
    {
      "midi": 60,
      "hit": false,
      "t": 97953.99514062537,
      "d": 352.9410000000207,
      "v": 51
    },
    {
      "midi": 48,
      "hit": false,
      "t": 97979.73042187537,
      "d": 93.74995312500687,
      "v": 44
    },
    {
      "midi": 44,
      "hit": false,
      "t": 98281.20085937537,
      "d": 310.6616093750199,
      "v": 59
    },
    {
      "midi": 43,
      "hit": false,
      "t": 98817.9652968754,
      "d": 1575.3668593750044,
      "v": 34
    },
    {
      "midi": 62,
      "hit": false,
      "t": 98821.64176562539,
      "d": 450.3674218749802,
      "v": 52
    },
    {
      "midi": 53,
      "hit": false,
      "t": 98827.15646875039,
      "d": 163.6028593749943,
      "v": 24
    },
    {
      "midi": 50,
      "hit": false,
      "t": 98840.02410937539,
      "d": 281.2498593749915,
      "v": 28
    },
    {
      "midi": 57,
      "hit": false,
      "t": 98845.53881250038,
      "d": 209.55871874999139,
      "v": 19
    },
    {
      "midi": 64,
      "hit": false,
      "t": 99374.95031250037,
      "d": 117.6469999999972,
      "v": 50
    },
    {
      "midi": 49,
      "hit": false,
      "t": 99382.30325000038,
      "d": 226.10282812498917,
      "v": 38
    },
    {
      "midi": 58,
      "hit": false,
      "t": 99384.14148437537,
      "d": 139.7058124999894,
      "v": 50
    },
    {
      "midi": 55,
      "hit": false,
      "t": 99385.97971875037,
      "d": 163.6028593749943,
      "v": 42
    },
    {
      "midi": 61,
      "hit": false,
      "t": 99391.49442187537,
      "d": 123.16170312500617,
      "v": 34
    },
    {
      "midi": 65,
      "hit": false,
      "t": 99715.02367187537,
      "d": 102.94112499999756,
      "v": 57
    },
    {
      "midi": 58,
      "hit": false,
      "t": 99716.86190625037,
      "d": 82.72054687500349,
      "v": 46
    },
    {
      "midi": 50,
      "hit": false,
      "t": 99724.21484375038,
      "d": 191.17637499999546,
      "v": 50
    },
    {
      "midi": 55,
      "hit": false,
      "t": 99737.08248437538,
      "d": 51.4705624999915,
      "v": 28
    },
    {
      "midi": 67,
      "hit": false,
      "t": 99937.45003125038,
      "d": 215.07342187500035,
      "v": 43
    },
    {
      "midi": 57,
      "hit": false,
      "t": 99941.12650000038,
      "d": 115.80876562499907,
      "v": 49
    },
    {
      "midi": 52,
      "hit": false,
      "t": 99941.12650000038,
      "d": 156.24992187500175,
      "v": 52
    },
    {
      "midi": 60,
      "hit": false,
      "t": 99942.96473437537,
      "d": 104.77935937499569,
      "v": 51
    },
    {
      "midi": 56,
      "hit": false,
      "t": 100266.49398437538,
      "d": 233.45576562501083,
      "v": 53
    },
    {
      "midi": 53,
      "hit": false,
      "t": 100275.68515625039,
      "d": 294.11750000000757,
      "v": 44
    },
    {
      "midi": 59,
      "hit": false,
      "t": 100283.0380937504,
      "d": 251.8381093749922,
      "v": 49
    },
    {
      "midi": 62,
      "hit": false,
      "t": 100292.2292656254,
      "d": 255.51457812498847,
      "v": 52
    },
    {
      "midi": 43,
      "hit": false,
      "t": 100498.1115156254,
      "d": 75.36760937499639,
      "v": 54
    },
    {
      "midi": 64,
      "hit": false,
      "t": 100970.53775000038,
      "d": 134.191109374995,
      "v": 64
    },
    {
      "midi": 77,
      "hit": false,
      "t": 100977.89068750039,
      "d": 91.91171874999418,
      "v": 89
    },
    {
      "midi": 53,
      "hit": false,
      "t": 100979.72892187539,
      "d": 294.11749999997846,
      "v": 41
    },
    {
      "midi": 59,
      "hit": false,
      "t": 100985.24362500038,
      "d": 211.39695312498952,
      "v": 49
    },
    {
      "midi": 70,
      "hit": false,
      "t": 101169.06706250037,
      "d": 143.38228125000023,
      "v": 52
    },
    {
      "midi": 67,
      "hit": false,
      "t": 101328.99345312537,
      "d": 196.69107812500442,
      "v": 34
    },
    {
      "midi": 74,
      "hit": false,
      "t": 101496.27278125037,
      "d": 284.9263281249878,
      "v": 68
    },
    {
      "midi": 62,
      "hit": false,
      "t": 101512.81689062537,
      "d": 45.95585937499709,
      "v": 55
    },
    {
      "midi": 57,
      "hit": false,
      "t": 101538.55217187537,
      "d": 40.441156249988126,
      "v": 35
    },
    {
      "midi": 52,
      "hit": false,
      "t": 101540.39040625037,
      "d": 88.23524999998335,
      "v": 32
    },
    {
      "midi": 71,
      "hit": false,
      "t": 101816.12556250035,
      "d": 112.13229687498824,
      "v": 62
    },
    {
      "midi": 55,
      "hit": false,
      "t": 101832.66967187535,
      "d": 318.01454687498335,
      "v": 64
    },
    {
      "midi": 54,
      "hit": false,
      "t": 101836.34614062535,
      "d": 71.69114062500012,
      "v": 53
    },
    {
      "midi": 72,
      "hit": false,
      "t": 101981.56665625035,
      "d": 119.48523437499534,
      "v": 44
    },
    {
      "midi": 67,
      "hit": false,
      "t": 102148.84598437534,
      "d": 95.588187500005,
      "v": 55
    },
    {
      "midi": 64,
      "hit": false,
      "t": 102317.96354687534,
      "d": 112.1322968750028,
      "v": 29
    },
    {
      "midi": 62,
      "hit": false,
      "t": 102509.13992187534,
      "d": 93.74995312499232,
      "v": 34
    },
    {
      "midi": 43,
      "hit": false,
      "t": 102510.97815625033,
      "d": 34.926453124993714,
      "v": 45
    },
    {
      "midi": 42,
      "hit": false,
      "t": 102522.00756250034,
      "d": 45.95585937499709,
      "v": 27
    },
    {
      "midi": 60,
      "hit": false,
      "t": 102658.03690625033,
      "d": 108.45582812500652,
      "v": 30
    },
    {
      "midi": 42,
      "hit": false,
      "t": 102856.56621875033,
      "d": 112.1322968750028,
      "v": 45
    },
    {
      "midi": 43,
      "hit": false,
      "t": 103020.16907812534,
      "d": 251.8381093749922,
      "v": 40
    },
    {
      "midi": 53,
      "hit": false,
      "t": 103023.84554687534,
      "d": 568.014421874992,
      "v": 51
    },
    {
      "midi": 60,
      "hit": false,
      "t": 103029.36025000033,
      "d": 613.9702812499891,
      "v": 43
    },
    {
      "midi": 43,
      "hit": false,
      "t": 103371.27184375034,
      "d": 71.69114062500012,
      "v": 45
    },
    {
      "midi": 50,
      "hit": false,
      "t": 103588.18350000033,
      "d": 249.99987499999406,
      "v": 41
    },
    {
      "midi": 43,
      "hit": false,
      "t": 103593.69820312533,
      "d": 91.91171874999418,
      "v": 46
    },
    {
      "midi": 43,
      "hit": false,
      "t": 103939.28626562533,
      "d": 150.73521874999278,
      "v": 36
    },
    {
      "midi": 51,
      "hit": false,
      "t": 103941.12450000033,
      "d": 147.0587499999965,
      "v": 35
    },
    {
      "midi": 52,
      "hit": false,
      "t": 104119.43323437532,
      "d": 71.69114062500012,
      "v": 37
    },
    {
      "midi": 36,
      "hit": false,
      "t": 104308.77137500032,
      "d": 31.24998437499744,
      "v": 46
    },
    {
      "midi": 76,
      "hit": false,
      "t": 104470.53600000031,
      "d": 255.51457812500303,
      "v": 68
    },
    {
      "midi": 64,
      "hit": false,
      "t": 104507.30068750032,
      "d": 222.4263593749929,
      "v": 30
    },
    {
      "midi": 76,
      "hit": false,
      "t": 104805.09465625031,
      "d": 204.04401562499697,
      "v": 44
    },
    {
      "midi": 55,
      "hit": false,
      "t": 104805.09465625031,
      "d": 301.4704375000001,
      "v": 51
    },
    {
      "midi": 48,
      "hit": false,
      "t": 104810.6093593753,
      "d": 213.2351875000022,
      "v": 60
    },
    {
      "midi": 64,
      "hit": false,
      "t": 104812.4475937503,
      "d": 193.01460937500815,
      "v": 57
    },
    {
      "midi": 64,
      "hit": false,
      "t": 105062.44746875031,
      "d": 268.38221874999,
      "v": 61
    },
    {
      "midi": 76,
      "hit": false,
      "t": 105064.28570312531,
      "d": 277.5733906249952,
      "v": 60
    },
    {
      "midi": 68,
      "hit": false,
      "t": 105069.8004062503,
      "d": 292.2792656249949,
      "v": 56
    },
    {
      "midi": 72,
      "hit": false,
      "t": 105073.4768750003,
      "d": 301.4704375000001,
      "v": 53
    },
    {
      "midi": 56,
      "hit": false,
      "t": 105080.8298125003,
      "d": 286.7645624999859,
      "v": 67
    },
    {
      "midi": 48,
      "hit": false,
      "t": 105082.6680468753,
      "d": 255.51457812500303,
      "v": 53
    },
    {
      "midi": 76,
      "hit": false,
      "t": 105409.87376562529,
      "d": 181.98520312499022,
      "v": 50
    },
    {
      "midi": 68,
      "hit": false,
      "t": 105415.38846875029,
      "d": 181.98520312499022,
      "v": 46
    },
    {
      "midi": 64,
      "hit": false,
      "t": 105420.90317187528,
      "d": 158.08815624999988,
      "v": 63
    },
    {
      "midi": 56,
      "hit": false,
      "t": 105422.74140625028,
      "d": 169.11756250000326,
      "v": 62
    },
    {
      "midi": 48,
      "hit": false,
      "t": 105430.09434375029,
      "d": 130.51464062499872,
      "v": 57
    },
    {
      "midi": 72,
      "hit": false,
      "t": 105431.93257812528,
      "d": 158.08815624999988,
      "v": 58
    },
    {
      "midi": 76,
      "hit": false,
      "t": 105768.32946875028,
      "d": 290.4410312499822,
      "v": 74
    },
    {
      "midi": 64,
      "hit": false,
      "t": 105770.16770312528,
      "d": 264.7057499999937,
      "v": 90
    },
    {
      "midi": 69,
      "hit": false,
      "t": 105772.00593750027,
      "d": 286.7645624999859,
      "v": 79
    },
    {
      "midi": 72,
      "hit": false,
      "t": 105772.00593750027,
      "d": 295.95573437499115,
      "v": 67
    },
    {
      "midi": 57,
      "hit": false,
      "t": 105773.84417187527,
      "d": 281.2498593749915,
      "v": 89
    },
    {
      "midi": 48,
      "hit": false,
      "t": 105777.52064062527,
      "d": 253.6763437500049,
      "v": 81
    },
    {
      "midi": 57,
      "hit": false,
      "t": 106117.59400000026,
      "d": 112.1322968750028,
      "v": 70
    },
    {
      "midi": 48,
      "hit": false,
      "t": 106119.43223437526,
      "d": 102.94112499999756,
      "v": 73
    },
    {
      "midi": 76,
      "hit": false,
      "t": 106121.27046875026,
      "d": 110.29406250000466,
      "v": 53
    },
    {
      "midi": 72,
      "hit": false,
      "t": 106128.62340625026,
      "d": 113.97053125000093,
      "v": 55
    },
    {
      "midi": 64,
      "hit": false,
      "t": 106130.46164062526,
      "d": 101.10289062499942,
      "v": 71
    },
    {
      "midi": 69,
      "hit": false,
      "t": 106134.13810937526,
      "d": 99.26465625000128,
      "v": 60
    },
    {
      "midi": 76,
      "hit": false,
      "t": 106286.71156250026,
      "d": 106.61759374999383,
      "v": 47
    },
    {
      "midi": 57,
      "hit": false,
      "t": 106292.22626562526,
      "d": 79.04407812499267,
      "v": 47
    },
    {
      "midi": 48,
      "hit": false,
      "t": 106294.06450000026,
      "d": 73.52937499999825,
      "v": 46
    },
    {
      "midi": 64,
      "hit": false,
      "t": 106294.06450000026,
      "d": 88.2352499999979,
      "v": 53
    },
    {
      "midi": 72,
      "hit": false,
      "t": 106301.41743750026,
      "d": 104.77935937499569,
      "v": 49
    },
    {
      "midi": 69,
      "hit": false,
      "t": 106306.93214062526,
      "d": 88.2352499999979,
      "v": 42
    },
    {
      "midi": 48,
      "hit": false,
      "t": 106476.04970312526,
      "d": 64.33820312499302,
      "v": 54
    },
    {
      "midi": 57,
      "hit": false,
      "t": 106477.88793750026,
      "d": 64.33820312499302,
      "v": 56
    },
    {
      "midi": 76,
      "hit": false,
      "t": 106479.72617187526,
      "d": 75.36760937499639,
      "v": 48
    },
    {
      "midi": 72,
      "hit": false,
      "t": 106483.40264062525,
      "d": 99.26465625000128,
      "v": 48
    },
    {
      "midi": 64,
      "hit": false,
      "t": 106490.75557812526,
      "d": 73.52937499999825,
      "v": 61
    },
    {
      "midi": 69,
      "hit": false,
      "t": 106490.75557812526,
      "d": 95.58818749999045,
      "v": 61
    },
    {
      "midi": 74,
      "hit": false,
      "t": 106639.65256250025,
      "d": 95.58818750001956,
      "v": 49
    },
    {
      "midi": 56,
      "hit": false,
      "t": 106641.49079687525,
      "d": 62.49996875000943,
      "v": 51
    },
    {
      "midi": 69,
      "hit": false,
      "t": 106643.32903125025,
      "d": 82.72054687501804,
      "v": 50
    },
    {
      "midi": 48,
      "hit": false,
      "t": 106645.16726562525,
      "d": 45.95585937501164,
      "v": 49
    },
    {
      "midi": 64,
      "hit": false,
      "t": 106654.35843750025,
      "d": 49.632328125007916,
      "v": 35
    },
    {
      "midi": 72,
      "hit": false,
      "t": 106952.15240625027,
      "d": 90.07348437499604,
      "v": 50
    },
    {
      "midi": 56,
      "hit": false,
      "t": 106953.99064062527,
      "d": 110.2940624999901,
      "v": 53
    },
    {
      "midi": 67,
      "hit": false,
      "t": 106955.82887500027,
      "d": 71.69114062500012,
      "v": 53
    },
    {
      "midi": 64,
      "hit": false,
      "t": 106966.85828125027,
      "d": 45.95585937499709,
      "v": 35
    },
    {
      "midi": 48,
      "hit": false,
      "t": 106972.37298437527,
      "d": 73.52937499999825,
      "v": 42
    },
    {
      "midi": 76,
      "hit": false,
      "t": 107306.93164062526,
      "d": 499.9997500000027,
      "v": 74
    },
    {
      "midi": 71,
      "hit": false,
      "t": 107310.60810937526,
      "d": 332.72042187499756,
      "v": 80
    },
    {
      "midi": 64,
      "hit": false,
      "t": 107312.44634375026,
      "d": 246.3234062499978,
      "v": 82
    },
    {
      "midi": 55,
      "hit": false,
      "t": 107316.12281250025,
      "d": 488.97034375001385,
      "v": 77
    },
    {
      "midi": 48,
      "hit": false,
      "t": 107317.96104687525,
      "d": 242.6469375000015,
      "v": 79
    },
    {
      "midi": 64,
      "hit": false,
      "t": 107656.19617187526,
      "d": 82.72054687500349,
      "v": 40
    },
    {
      "midi": 48,
      "hit": false,
      "t": 107656.19617187526,
      "d": 419.1174375000119,
      "v": 61
    },
    {
      "midi": 68,
      "hit": false,
      "t": 107856.56371875026,
      "d": 389.7056875000126,
      "v": 60
    },
    {
      "midi": 64,
      "hit": false,
      "t": 107863.91665625027,
      "d": 356.61746875000244,
      "v": 57
    },
    {
      "midi": 56,
      "hit": false,
      "t": 107867.59312500026,
      "d": 476.10270312501234,
      "v": 62
    },
    {
      "midi": 48,
      "hit": false,
      "t": 108211.34295312526,
      "d": 503.67621874999895,
      "v": 56
    },
    {
      "midi": 64,
      "hit": false,
      "t": 108536.71043750027,
      "d": 485.2938749999885,
      "v": 57
    },
    {
      "midi": 60,
      "hit": false,
      "t": 108538.54867187527,
      "d": 408.08803124999395,
      "v": 47
    },
    {
      "midi": 67,
      "hit": false,
      "t": 108540.38690625026,
      "d": 696.6908281249925,
      "v": 54
    },
    {
      "midi": 57,
      "hit": false,
      "t": 108556.93101562526,
      "d": 437.49978124999325,
      "v": 58
    },
    {
      "midi": 48,
      "hit": false,
      "t": 108885.97496875026,
      "d": 318.0145468749979,
      "v": 73
    },
    {
      "midi": 60,
      "hit": false,
      "t": 109049.57782812526,
      "d": 102.94112499999756,
      "v": 30
    },
    {
      "midi": 48,
      "hit": false,
      "t": 109237.07773437526,
      "d": 279.41162499999336,
      "v": 28
    },
    {
      "midi": 56,
      "hit": false,
      "t": 109249.94537500026,
      "d": 386.0292187499872,
      "v": 81
    },
    {
      "midi": 64,
      "hit": false,
      "t": 109395.16589062526,
      "d": 193.0146093749936,
      "v": 66
    },
    {
      "midi": 72,
      "hit": false,
      "t": 109398.84235937525,
      "d": 159.92639062499802,
      "v": 46
    },
    {
      "midi": 67,
      "hit": false,
      "t": 109398.84235937525,
      "d": 193.0146093749936,
      "v": 57
    },
    {
      "midi": 48,
      "hit": false,
      "t": 109623.10695312524,
      "d": 229.77929687501455,
      "v": 55
    },
    {
      "midi": 67,
      "hit": false,
      "t": 109757.29806250025,
      "d": 161.7646250000107,
      "v": 68
    },
    {
      "midi": 74,
      "hit": false,
      "t": 109757.29806250025,
      "d": 178.3087343750085,
      "v": 62
    },
    {
      "midi": 64,
      "hit": false,
      "t": 109768.32746875026,
      "d": 123.16170312500617,
      "v": 63
    },
    {
      "midi": 56,
      "hit": false,
      "t": 109772.00393750025,
      "d": 159.92639062501257,
      "v": 60
    },
    {
      "midi": 48,
      "hit": false,
      "t": 109990.75382812526,
      "d": 79.04407812500722,
      "v": 51
    },
    {
      "midi": 48,
      "hit": false,
      "t": 110124.94493750027,
      "d": 496.3232812500064,
      "v": 39
    },
    {
      "midi": 76,
      "hit": false,
      "t": 110126.78317187527,
      "d": 145.22051562499837,
      "v": 71
    },
    {
      "midi": 55,
      "hit": false,
      "t": 110128.62140625027,
      "d": 492.6468125000101,
      "v": 65
    },
    {
      "midi": 64,
      "hit": false,
      "t": 110130.45964062527,
      "d": 141.5440468750021,
      "v": 80
    },
    {
      "midi": 72,
      "hit": false,
      "t": 110130.45964062527,
      "d": 174.63226562499767,
      "v": 70
    },
    {
      "midi": 74,
      "hit": false,
      "t": 110163.54785937526,
      "d": 38.60292187500454,
      "v": 26
    },
    {
      "midi": 76,
      "hit": false,
      "t": 110332.66542187527,
      "d": 90.0734843750106,
      "v": 35
    },
    {
      "midi": 64,
      "hit": false,
      "t": 110341.85659375027,
      "d": 69.85290625000198,
      "v": 58
    },
    {
      "midi": 72,
      "hit": false,
      "t": 110354.72423437527,
      "d": 75.36760937501094,
      "v": 48
    },
    {
      "midi": 76,
      "hit": false,
      "t": 110494.43004687528,
      "d": 101.10289062499942,
      "v": 42
    },
    {
      "midi": 64,
      "hit": false,
      "t": 110505.45945312528,
      "d": 91.91171874999418,
      "v": 42
    },
    {
      "midi": 72,
      "hit": false,
      "t": 110510.97415625027,
      "d": 95.588187500005,
      "v": 26
    },
    {
      "midi": 76,
      "hit": false,
      "t": 110716.85640625028,
      "d": 137.86757812500582,
      "v": 60
    },
    {
      "midi": 55,
      "hit": false,
      "t": 110722.37110937528,
      "d": 161.7646250000107,
      "v": 50
    },
    {
      "midi": 48,
      "hit": false,
      "t": 110724.20934375028,
      "d": 132.3528750000114,
      "v": 53
    },
    {
      "midi": 64,
      "hit": false,
      "t": 110727.88581250027,
      "d": 95.588187500005,
      "v": 58
    },
    {
      "midi": 71,
      "hit": false,
      "t": 110733.40051562527,
      "d": 51.470562500006054,
      "v": 42
    },
    {
      "midi": 76,
      "hit": false,
      "t": 111058.76800000029,
      "d": 283.0880937500042,
      "v": 57
    },
    {
      "midi": 55,
      "hit": false,
      "t": 111064.28270312528,
      "d": 69.85290625000198,
      "v": 36
    },
    {
      "midi": 64,
      "hit": false,
      "t": 111071.63564062529,
      "d": 73.52937499999825,
      "v": 41
    },
    {
      "midi": 71,
      "hit": false,
      "t": 111073.47387500029,
      "d": 229.779296875,
      "v": 55
    },
    {
      "midi": 47,
      "hit": false,
      "t": 111424.5766406253,
      "d": 297.7939687499602,
      "v": 41
    },
    {
      "midi": 40,
      "hit": false,
      "t": 111428.25310937529,
      "d": 231.61753124998359,
      "v": 49
    },
    {
      "midi": 76,
      "hit": false,
      "t": 111433.76781250029,
      "d": 242.64693749998696,
      "v": 60
    },
    {
      "midi": 55,
      "hit": false,
      "t": 111437.44428125028,
      "d": 273.8969218749844,
      "v": 51
    },
    {
      "midi": 71,
      "hit": false,
      "t": 111439.28251562528,
      "d": 275.73515624998254,
      "v": 69
    },
    {
      "midi": 67,
      "hit": false,
      "t": 111439.28251562528,
      "d": 279.4116249999788,
      "v": 67
    },
    {
      "midi": 74,
      "hit": false,
      "t": 111909.87051562525,
      "d": 158.08815624999988,
      "v": 82
    },
    {
      "midi": 39,
      "hit": false,
      "t": 112158.03215625025,
      "d": 312.49984374998894,
      "v": 67
    },
    {
      "midi": 54,
      "hit": false,
      "t": 112159.87039062525,
      "d": 384.1909843749745,
      "v": 64
    },
    {
      "midi": 74,
      "hit": false,
      "t": 112170.89979687525,
      "d": 251.8381093749922,
      "v": 48
    },
    {
      "midi": 72,
      "hit": false,
      "t": 112485.23787500024,
      "d": 110.2940624999901,
      "v": 55
    },
    {
      "midi": 63,
      "hit": false,
      "t": 112488.91434375024,
      "d": 194.85284374999173,
      "v": 56
    },
    {
      "midi": 66,
      "hit": false,
      "t": 112509.13492187523,
      "d": 185.66167187500105,
      "v": 33
    },
    {
      "midi": 71,
      "hit": false,
      "t": 112724.20834375023,
      "d": 141.5440468750021,
      "v": 54
    },
    {
      "midi": 69,
      "hit": false,
      "t": 112893.32590625023,
      "d": 172.7940312500141,
      "v": 47
    },
    {
      "midi": 55,
      "hit": false,
      "t": 112976.04645312524,
      "d": 496.32328125002095,
      "v": 40
    },
    {
      "midi": 71,
      "hit": false,
      "t": 113058.76700000024,
      "d": 86.39701562499977,
      "v": 59
    },
    {
      "midi": 62,
      "hit": false,
      "t": 113067.95817187525,
      "d": 113.97053125000093,
      "v": 40
    },
    {
      "midi": 67,
      "hit": false,
      "t": 113073.47287500024,
      "d": 69.85290625000198,
      "v": 45
    },
    {
      "midi": 67,
      "hit": false,
      "t": 113465.01679687525,
      "d": 123.16170312500617,
      "v": 36
    },
    {
      "midi": 62,
      "hit": false,
      "t": 113481.56090625026,
      "d": 102.94112499999756,
      "v": 41
    },
    {
      "midi": 59,
      "hit": false,
      "t": 113483.39914062526,
      "d": 108.45582812499197,
      "v": 36
    },
    {
      "midi": 50,
      "hit": false,
      "t": 113505.45795312525,
      "d": 93.74995312500687,
      "v": 38
    },
    {
      "midi": 67,
      "hit": false,
      "t": 113659.86964062527,
      "d": 459.55859375,
      "v": 33
    },
    {
      "midi": 62,
      "hit": false,
      "t": 113674.57551562527,
      "d": 544.1173749999871,
      "v": 33
    },
    {
      "midi": 50,
      "hit": false,
      "t": 113678.25198437527,
      "d": 47.79409374999523,
      "v": 32
    },
    {
      "midi": 59,
      "hit": false,
      "t": 113680.09021875027,
      "d": 588.234999999986,
      "v": 32
    },
    {
      "midi": 43,
      "hit": false,
      "t": 113974.20771875027,
      "d": 130.51464062499872,
      "v": 26
    },
    {
      "midi": 67,
      "hit": false,
      "t": 114154.35468750026,
      "d": 237.13223437499255,
      "v": 20
    },
    {
      "midi": 43,
      "hit": false,
      "t": 114172.73703125026,
      "d": 801.4701875000028,
      "v": 41
    },
    {
      "midi": 59,
      "hit": false,
      "t": 114551.41331250026,
      "d": 75.36760937499639,
      "v": 33
    },
    {
      "midi": 62,
      "hit": false,
      "t": 114551.41331250026,
      "d": 113.97053125000093,
      "v": 36
    },
    {
      "midi": 31,
      "hit": false,
      "t": 114893.32490625026,
      "d": 36.7646875000064,
      "v": 47
    },
    {
      "midi": 69,
      "hit": false,
      "t": 115071.63364062527,
      "d": 75.36760937501094,
      "v": 39
    },
    {
      "midi": 69,
      "hit": false,
      "t": 115238.91296875027,
      "d": 110.29406250000466,
      "v": 40
    },
    {
      "midi": 71,
      "hit": false,
      "t": 115402.51582812528,
      "d": 95.588187500005,
      "v": 50
    },
    {
      "midi": 42,
      "hit": false,
      "t": 115737.07448437529,
      "d": 36.7646875000064,
      "v": 42
    },
    {
      "midi": 64,
      "hit": false,
      "t": 115753.61859375029,
      "d": 136.02934375000768,
      "v": 47
    },
    {
      "midi": 69,
      "hit": false,
      "t": 115760.9715312503,
      "d": 284.9263281250023,
      "v": 34
    },
    {
      "midi": 72,
      "hit": false,
      "t": 115764.64800000029,
      "d": 334.55865625001024,
      "v": 33
    },
    {
      "midi": 60,
      "hit": false,
      "t": 115976.0449531253,
      "d": 47.79409374999523,
      "v": 31
    },
    {
      "midi": 54,
      "hit": false,
      "t": 115977.8831875003,
      "d": 75.36760937501094,
      "v": 45
    },
    {
      "midi": 64,
      "hit": false,
      "t": 116306.9271406253,
      "d": 64.33820312500757,
      "v": 52
    },
    {
      "midi": 69,
      "hit": false,
      "t": 116310.60360937529,
      "d": 84.55878125001618,
      "v": 45
    },
    {
      "midi": 60,
      "hit": false,
      "t": 116314.28007812529,
      "d": 49.632328125007916,
      "v": 30
    },
    {
      "midi": 52,
      "hit": false,
      "t": 116321.6330156253,
      "d": 77.20584375000908,
      "v": 60
    },
    {
      "midi": 42,
      "hit": false,
      "t": 116470.5300000003,
      "d": 277.5733906249952,
      "v": 39
    },
    {
      "midi": 41,
      "hit": false,
      "t": 116817.9562968753,
      "d": 319.85278124999604,
      "v": 60
    },
    {
      "midi": 62,
      "hit": false,
      "t": 117398.8383593753,
      "d": 281.2498593749915,
      "v": 62
    },
    {
      "midi": 51,
      "hit": false,
      "t": 117400.6765937503,
      "d": 630.5143906249868,
      "v": 45
    },
    {
      "midi": 57,
      "hit": false,
      "t": 117406.19129687529,
      "d": 351.1027656249935,
      "v": 53
    },
    {
      "midi": 67,
      "hit": false,
      "t": 117692.95585937529,
      "d": 443.01448437498766,
      "v": 105
    },
    {
      "midi": 72,
      "hit": false,
      "t": 117694.79409375029,
      "d": 205.8822499999951,
      "v": 85
    },
    {
      "midi": 62,
      "hit": false,
      "t": 117941.11750000028,
      "d": 180.14696874999208,
      "v": 71
    },
    {
      "midi": 71,
      "hit": false,
      "t": 117942.95573437528,
      "d": 286.7645624999859,
      "v": 67
    },
    {
      "midi": 57,
      "hit": false,
      "t": 117950.30867187529,
      "d": 34.926453124993714,
      "v": 45
    },
    {
      "midi": 69,
      "hit": false,
      "t": 118194.79384375027,
      "d": 209.55871874999139,
      "v": 55
    },
    {
      "midi": 47,
      "hit": false,
      "t": 118453.98489062526,
      "d": 136.02934374999313,
      "v": 36
    },
    {
      "midi": 67,
      "hit": false,
      "t": 118459.49959375025,
      "d": 266.5439843750064,
      "v": 62
    },
    {
      "midi": 62,
      "hit": false,
      "t": 118472.36723437526,
      "d": 185.66167187500105,
      "v": 45
    },
    {
      "midi": 55,
      "hit": false,
      "t": 118483.39664062526,
      "d": 147.0587499999965,
      "v": 32
    },
    {
      "midi": 40,
      "hit": false,
      "t": 118488.91134375025,
      "d": 45.95585937499709,
      "v": 12
    },
    {
      "midi": 62,
      "hit": false,
      "t": 118781.19060937526,
      "d": 79.04407812500722,
      "v": 46
    },
    {
      "midi": 64,
      "hit": false,
      "t": 118959.49934375027,
      "d": 110.29406250000466,
      "v": 50
    },
    {
      "midi": 64,
      "hit": false,
      "t": 119130.45514062527,
      "d": 71.69114062500012,
      "v": 67
    },
    {
      "midi": 62,
      "hit": false,
      "t": 119158.02865625027,
      "d": 66.17643749999115,
      "v": 57
    },
    {
      "midi": 59,
      "hit": false,
      "t": 119187.44040625027,
      "d": 53.30879687498964,
      "v": 24
    },
    {
      "midi": 55,
      "hit": false,
      "t": 119205.82275000027,
      "d": 31.24998437499744,
      "v": 22
    },
    {
      "midi": 67,
      "hit": false,
      "t": 119488.91084375026,
      "d": 419.11743749998277,
      "v": 66
    },
    {
      "midi": 62,
      "hit": false,
      "t": 119494.42554687525,
      "d": 393.3821562499943,
      "v": 60
    },
    {
      "midi": 56,
      "hit": false,
      "t": 119494.42554687525,
      "d": 509.19092187499336,
      "v": 64
    },
    {
      "midi": 66,
      "hit": false,
      "t": 120152.51345312524,
      "d": 200.3675468750007,
      "v": 57
    },
    {
      "midi": 55,
      "hit": false,
      "t": 120156.18992187524,
      "d": 264.7057499999937,
      "v": 54
    },
    {
      "midi": 61,
      "hit": false,
      "t": 120165.38109375024,
      "d": 261.0292812499829,
      "v": 49
    },
    {
      "midi": 84,
      "hit": false,
      "t": 120369.42510937524,
      "d": 130.51464062498417,
      "v": 91
    },
    {
      "midi": 72,
      "hit": false,
      "t": 120369.42510937524,
      "d": 301.47043749998556,
      "v": 81
    },
    {
      "midi": 82,
      "hit": false,
      "t": 120556.92501562522,
      "d": 113.97053125000093,
      "v": 61
    },
    {
      "midi": 55,
      "hit": false,
      "t": 120709.49846875023,
      "d": 426.470375000019,
      "v": 46
    },
    {
      "midi": 45,
      "hit": false,
      "t": 120716.85140625024,
      "d": 351.10276562500803,
      "v": 36
    },
    {
      "midi": 81,
      "hit": false,
      "t": 120733.39551562523,
      "d": 97.42642187500314,
      "v": 54
    },
    {
      "midi": 72,
      "hit": false,
      "t": 121080.82181250025,
      "d": 169.11756250000326,
      "v": 28
    },
    {
      "midi": 79,
      "hit": false,
      "t": 121260.96878125025,
      "d": 249.99987500000861,
      "v": 70
    },
    {
      "midi": 50,
      "hit": false,
      "t": 121283.02759375026,
      "d": 1235.2934999999707,
      "v": 45
    },
    {
      "midi": 57,
      "hit": false,
      "t": 121290.38053125027,
      "d": 909.9260156249802,
      "v": 38
    },
    {
      "midi": 60,
      "hit": false,
      "t": 121299.57170312527,
      "d": 797.7937187499774,
      "v": 24
    },
    {
      "midi": 77,
      "hit": false,
      "t": 121602.88037500026,
      "d": 124.99993750000431,
      "v": 68
    },
    {
      "midi": 73,
      "hit": false,
      "t": 121784.86557812526,
      "d": 130.51464062499872,
      "v": 33
    },
    {
      "midi": 76,
      "hit": false,
      "t": 121946.63020312526,
      "d": 110.2940624999901,
      "v": 62
    },
    {
      "midi": 74,
      "hit": false,
      "t": 122110.23306250025,
      "d": 161.76462499999616,
      "v": 45
    },
    {
      "midi": 72,
      "hit": false,
      "t": 122290.38003125024,
      "d": 139.7058124999894,
      "v": 49
    },
    {
      "midi": 57,
      "hit": false,
      "t": 122354.71823437524,
      "d": 99.26465624998673,
      "v": 17
    },
    {
      "midi": 69,
      "hit": false,
      "t": 122453.98289062522,
      "d": 29.4117499999993,
      "v": 52
    },
    {
      "midi": 44,
      "hit": false,
      "t": 122766.48273437523,
      "d": 31.24998437499744,
      "v": 25
    },
    {
      "midi": 46,
      "hit": false,
      "t": 122794.05625000023,
      "d": 73.5293749999837,
      "v": 35
    },
    {
      "midi": 58,
      "hit": false,
      "t": 122808.76212500023,
      "d": 33.088218749995576,
      "v": 47
    },
    {
      "midi": 47,
      "hit": false,
      "t": 122862.07092187522,
      "d": 86.39701562499977,
      "v": 29
    },
    {
      "midi": 59,
      "hit": false,
      "t": 122878.61503125021,
      "d": 64.33820312500757,
      "v": 53
    },
    {
      "midi": 58,
      "hit": false,
      "t": 122917.21795312522,
      "d": 101.10289062499942,
      "v": 46
    },
    {
      "midi": 56,
      "hit": false,
      "t": 122979.71792187521,
      "d": 62.49996874999488,
      "v": 40
    },
    {
      "midi": 44,
      "hit": false,
      "t": 123009.12967187521,
      "d": 29.4117499999993,
      "v": 25
    },
    {
      "midi": 55,
      "hit": false,
      "t": 123058.7620000002,
      "d": 47.79409374999523,
      "v": 44
    },
    {
      "midi": 61,
      "hit": false,
      "t": 123158.0266562502,
      "d": 159.92639062499802,
      "v": 72
    },
    {
      "midi": 49,
      "hit": false,
      "t": 123167.2178281252,
      "d": 158.08815624999988,
      "v": 55
    },
    {
      "midi": 62,
      "hit": false,
      "t": 123358.3942031252,
      "d": 121.32346874999348,
      "v": 80
    },
    {
      "midi": 50,
      "hit": false,
      "t": 123362.07067187519,
      "d": 104.77935937499569,
      "v": 47
    },
    {
      "midi": 49,
      "hit": false,
      "t": 123510.96765625018,
      "d": 130.51464062499872,
      "v": 37
    },
    {
      "midi": 61,
      "hit": false,
      "t": 123542.21764062518,
      "d": 102.94112499999756,
      "v": 33
    },
    {
      "midi": 59,
      "hit": false,
      "t": 123705.82050000018,
      "d": 91.91171874999418,
      "v": 62
    },
    {
      "midi": 47,
      "hit": false,
      "t": 123705.82050000018,
      "d": 97.42642187498859,
      "v": 40
    },
    {
      "midi": 56,
      "hit": false,
      "t": 123871.26159375017,
      "d": 136.02934374999313,
      "v": 33
    },
    {
      "midi": 43,
      "hit": false,
      "t": 124051.40856250016,
      "d": 91.91171874999418,
      "v": 24
    },
    {
      "midi": 53,
      "hit": false,
      "t": 124055.08503125016,
      "d": 71.69114062500012,
      "v": 18
    },
    {
      "midi": 52,
      "hit": false,
      "t": 124224.20259375016,
      "d": 169.1175624999887,
      "v": 24
    },
    {
      "midi": 36,
      "hit": false,
      "t": 124301.40843750015,
      "d": 406.2497968749958,
      "v": 4
    },
    {
      "midi": 48,
      "hit": false,
      "t": 124420.89367187515,
      "d": 42.279390625000815,
      "v": 35
    },
    {
      "midi": 52,
      "hit": false,
      "t": 124573.46712500016,
      "d": 152.57345312499092,
      "v": 38
    },
    {
      "midi": 43,
      "hit": false,
      "t": 124753.61409375015,
      "d": 626.8379218750197,
      "v": 59
    },
    {
      "midi": 42,
      "hit": false,
      "t": 124757.29056250014,
      "d": 42.279390625000815,
      "v": 40
    },
    {
      "midi": 55,
      "hit": false,
      "t": 124783.02584375015,
      "d": 86.39701562499977,
      "v": 42
    },
    {
      "midi": 57,
      "hit": false,
      "t": 124965.01104687515,
      "d": 117.64700000001176,
      "v": 33
    },
    {
      "midi": 60,
      "hit": false,
      "t": 125152.51095312517,
      "d": 1068.0141718750237,
      "v": 76
    },
    {
      "midi": 31,
      "hit": false,
      "t": 125165.37859375017,
      "d": 147.0587499999965,
      "v": 55
    },
    {
      "midi": 53,
      "hit": false,
      "t": 125485.23137500018,
      "d": 437.49978124999325,
      "v": 58
    },
    {
      "midi": 43,
      "hit": false,
      "t": 125494.42254687518,
      "d": 113.97053124998638,
      "v": 54
    },
    {
      "midi": 52,
      "hit": false,
      "t": 125494.42254687518,
      "d": 362.13217187499686,
      "v": 48
    },
    {
      "midi": 42,
      "hit": false,
      "t": 125514.64312500018,
      "d": 29.4117499999993,
      "v": 37
    },
    {
      "midi": 43,
      "hit": false,
      "t": 125832.65767187517,
      "d": 215.07342187500035,
      "v": 82
    },
    {
      "midi": 42,
      "hit": false,
      "t": 125845.52531250018,
      "d": 58.8234999999986,
      "v": 50
    },
    {
      "midi": 52,
      "hit": false,
      "t": 125994.42229687517,
      "d": 60.66173437501129,
      "v": 38
    },
    {
      "midi": 43,
      "hit": false,
      "t": 126192.95160937519,
      "d": 82.72054687498894,
      "v": 70
    },
    {
      "midi": 43,
      "hit": false,
      "t": 126352.87800000017,
      "d": 115.80876562499907,
      "v": 75
    },
    {
      "midi": 72,
      "hit": false,
      "t": 126555.08378125017,
      "d": 73.52937499999825,
      "v": 51
    },
    {
      "midi": 59,
      "hit": false,
      "t": 126696.62782812517,
      "d": 141.5440468750021,
      "v": 40
    },
    {
      "midi": 74,
      "hit": false,
      "t": 126707.65723437518,
      "d": 194.8528437500063,
      "v": 72
    },
    {
      "midi": 53,
      "hit": false,
      "t": 126709.49546875017,
      "d": 185.66167187500105,
      "v": 35
    },
    {
      "midi": 65,
      "hit": false,
      "t": 126711.33370312517,
      "d": 174.63226562499767,
      "v": 71
    },
    {
      "midi": 68,
      "hit": false,
      "t": 126713.17193750017,
      "d": 128.67640625000058,
      "v": 59
    },
    {
      "midi": 76,
      "hit": false,
      "t": 127045.89235937518,
      "d": 159.92639062498347,
      "v": 74
    },
    {
      "midi": 72,
      "hit": false,
      "t": 127051.40706250018,
      "d": 202.20578124999884,
      "v": 66
    },
    {
      "midi": 67,
      "hit": false,
      "t": 127055.08353125017,
      "d": 172.79403124999953,
      "v": 72
    },
    {
      "midi": 62,
      "hit": false,
      "t": 127055.08353125017,
      "d": 439.33801562500594,
      "v": 76
    },
    {
      "midi": 69,
      "hit": false,
      "t": 127056.92176562517,
      "d": 196.69107812500442,
      "v": 67
    },
    {
      "midi": 52,
      "hit": false,
      "t": 127056.92176562517,
      "d": 468.74976562500524,
      "v": 68
    },
    {
      "midi": 57,
      "hit": false,
      "t": 127058.76000000017,
      "d": 450.3674218750093,
      "v": 68
    },
    {
      "midi": 76,
      "hit": false,
      "t": 127277.50989062518,
      "d": 99.26465625000128,
      "v": 40
    },
    {
      "midi": 67,
      "hit": false,
      "t": 127284.86282812519,
      "d": 73.52937499999825,
      "v": 62
    },
    {
      "midi": 72,
      "hit": false,
      "t": 127286.70106250019,
      "d": 108.45582812499197,
      "v": 32
    },
    {
      "midi": 69,
      "hit": false,
      "t": 127290.37753125018,
      "d": 104.77935937499569,
      "v": 40
    },
    {
      "midi": 76,
      "hit": false,
      "t": 127452.14215625018,
      "d": 102.94112499999756,
      "v": 36
    },
    {
      "midi": 68,
      "hit": false,
      "t": 127643.31853125019,
      "d": 237.13223437499255,
      "v": 64
    },
    {
      "midi": 76,
      "hit": false,
      "t": 127643.31853125019,
      "d": 249.99987499999406,
      "v": 60
    },
    {
      "midi": 64,
      "hit": false,
      "t": 127648.83323437518,
      "d": 211.39695312500407,
      "v": 71
    },
    {
      "midi": 72,
      "hit": false,
      "t": 127648.83323437518,
      "d": 244.48517187499965,
      "v": 57
    },
    {
      "midi": 56,
      "hit": false,
      "t": 127650.67146875018,
      "d": 290.44103124999674,
      "v": 62
    },
    {
      "midi": 48,
      "hit": false,
      "t": 127652.50970312518,
      "d": 621.3232187499962,
      "v": 68
    },
    {
      "midi": 76,
      "hit": false,
      "t": 127981.55365625018,
      "d": 80.88231250000536,
      "v": 33
    },
    {
      "midi": 68,
      "hit": false,
      "t": 127983.39189062518,
      "d": 75.36760937501094,
      "v": 55
    },
    {
      "midi": 64,
      "hit": false,
      "t": 127990.74482812519,
      "d": 51.470562500006054,
      "v": 54
    },
    {
      "midi": 56,
      "hit": false,
      "t": 127990.74482812519,
      "d": 395.220390625007,
      "v": 46
    },
    {
      "midi": 72,
      "hit": false,
      "t": 127994.42129687518,
      "d": 71.69114062500012,
      "v": 38
    },
    {
      "midi": 60,
      "hit": false,
      "t": 128001.77423437519,
      "d": 55.14703125000233,
      "v": 50
    },
    {
      "midi": 76,
      "hit": false,
      "t": 128328.97995312518,
      "d": 297.79396875003295,
      "v": 67
    },
    {
      "midi": 64,
      "hit": false,
      "t": 128336.33289062518,
      "d": 261.029281250012,
      "v": 82
    },
    {
      "midi": 69,
      "hit": false,
      "t": 128338.17112500018,
      "d": 299.6322031250311,
      "v": 69
    },
    {
      "midi": 72,
      "hit": false,
      "t": 128338.17112500018,
      "d": 306.9851406250382,
      "v": 58
    },
    {
      "midi": 48,
      "hit": false,
      "t": 128345.52406250019,
      "d": 259.19104687501385,
      "v": 54
    },
    {
      "midi": 57,
      "hit": false,
      "t": 128345.52406250019,
      "d": 268.3822187500191,
      "v": 78
    },
    {
      "midi": 56,
      "hit": false,
      "t": 128617.5827500002,
      "d": 117.64700000001176,
      "v": 27
    },
    {
      "midi": 57,
      "hit": false,
      "t": 128681.92095312523,
      "d": 251.83810937497765,
      "v": 67
    },
    {
      "midi": 76,
      "hit": false,
      "t": 128685.59742187522,
      "d": 106.61759374999383,
      "v": 55
    },
    {
      "midi": 64,
      "hit": false,
      "t": 128687.43565625022,
      "d": 104.77935937499569,
      "v": 66
    },
    {
      "midi": 69,
      "hit": false,
      "t": 128691.11212500022,
      "d": 329.04395312498673,
      "v": 56
    },
    {
      "midi": 72,
      "hit": false,
      "t": 128694.78859375021,
      "d": 113.97053125000093,
      "v": 37
    },
    {
      "midi": 48,
      "hit": false,
      "t": 128698.46506250021,
      "d": 286.76456250000047,
      "v": 48
    },
    {
      "midi": 64,
      "hit": false,
      "t": 128849.2002812502,
      "d": 218.74989062501118,
      "v": 45
    },
    {
      "midi": 76,
      "hit": false,
      "t": 128851.0385156252,
      "d": 196.69107812500442,
      "v": 28
    },
    {
      "midi": 72,
      "hit": false,
      "t": 128860.2296875002,
      "d": 165.44109374999243,
      "v": 15
    },
    {
      "midi": 57,
      "hit": false,
      "t": 129036.7001875002,
      "d": 80.88231250000536,
      "v": 61
    },
    {
      "midi": 48,
      "hit": false,
      "t": 129058.75900000021,
      "d": 40.44115625000268,
      "v": 36
    },
    {
      "midi": 76,
      "hit": false,
      "t": 129180.08246875022,
      "d": 130.51464062498417,
      "v": 68
    },
    {
      "midi": 68,
      "hit": false,
      "t": 129181.92070312522,
      "d": 341.9115937499737,
      "v": 71
    },
    {
      "midi": 72,
      "hit": false,
      "t": 129183.75893750021,
      "d": 154.41168749998906,
      "v": 62
    },
    {
      "midi": 56,
      "hit": false,
      "t": 129187.43540625021,
      "d": 165.44109374999243,
      "v": 81
    },
    {
      "midi": 64,
      "hit": false,
      "t": 129189.27364062521,
      "d": 154.41168749998906,
      "v": 79
    },
    {
      "midi": 48,
      "hit": false,
      "t": 129194.7883437502,
      "d": 314.3380781249871,
      "v": 77
    },
    {
      "midi": 74,
      "hit": false,
      "t": 129378.6117812502,
      "d": 102.941124999983,
      "v": 48
    },
    {
      "midi": 64,
      "hit": false,
      "t": 129384.1264843752,
      "d": 84.55878124998708,
      "v": 20
    },
    {
      "midi": 56,
      "hit": false,
      "t": 129404.3470625002,
      "d": 79.04407812499267,
      "v": 48
    },
    {
      "midi": 56,
      "hit": false,
      "t": 129534.86170312519,
      "d": 194.8528437500063,
      "v": 34
    },
    {
      "midi": 74,
      "hit": false,
      "t": 129542.2146406252,
      "d": 73.52937499999825,
      "v": 24
    },
    {
      "midi": 48,
      "hit": false,
      "t": 129556.9205156252,
      "d": 104.77935937499569,
      "v": 17
    },
    {
      "midi": 72,
      "hit": false,
      "t": 129566.1116875002,
      "d": 62.49996874999488,
      "v": 27
    },
    {
      "midi": 76,
      "hit": false,
      "t": 129742.5821875002,
      "d": 106.61759374999383,
      "v": 65
    },
    {
      "midi": 71,
      "hit": false,
      "t": 129746.2586562502,
      "d": 117.6469999999972,
      "v": 70
    },
    {
      "midi": 64,
      "hit": false,
      "t": 129751.77335937519,
      "d": 128.67640625000058,
      "v": 68
    },
    {
      "midi": 55,
      "hit": false,
      "t": 129759.1262968752,
      "d": 68.01467187500384,
      "v": 64
    },
    {
      "midi": 48,
      "hit": false,
      "t": 129766.4792343752,
      "d": 115.80876562498452,
      "v": 54
    },
    {
      "midi": 36,
      "hit": false,
      "t": 130442.94948437519,
      "d": 742.6466875000042,
      "v": 36
    },
    {
      "midi": 43,
      "hit": false,
      "t": 130479.7141718752,
      "d": 69.85290625000198,
      "v": 36
    },
    {
      "midi": 52,
      "hit": false,
      "t": 130590.0082343752,
      "d": 360.2939374999987,
      "v": 34
    },
    {
      "midi": 59,
      "hit": false,
      "t": 130593.6847031252,
      "d": 406.2497968749958,
      "v": 31
    },
    {
      "midi": 48,
      "hit": false,
      "t": 130597.36117187519,
      "d": 284.9263281250169,
      "v": 40
    },
    {
      "midi": 47,
      "hit": false,
      "t": 130606.5523437502,
      "d": 310.66160937500536,
      "v": 52
    },
    {
      "midi": 55,
      "hit": false,
      "t": 130613.9052812502,
      "d": 354.77923437498976,
      "v": 39
    },
    {
      "midi": 43,
      "hit": false,
      "t": 130955.8168750002,
      "d": 194.8528437500063,
      "v": 31
    },
    {
      "midi": 48,
      "hit": false,
      "t": 131169.0520625002,
      "d": 36.76468749999185,
      "v": 60
    },
    {
      "midi": 57,
      "hit": false,
      "t": 131172.7285312502,
      "d": 91.91171875002328,
      "v": 51
    },
    {
      "midi": 52,
      "hit": false,
      "t": 131176.4050000002,
      "d": 51.470562500006054,
      "v": 44
    },
    {
      "midi": 45,
      "hit": false,
      "t": 131176.4050000002,
      "d": 68.0146718750184,
      "v": 50
    },
    {
      "midi": 62,
      "hit": false,
      "t": 131501.77248437525,
      "d": 73.5293749999837,
      "v": 67
    },
    {
      "midi": 72,
      "hit": false,
      "t": 131501.77248437525,
      "d": 124.99993749998976,
      "v": 54
    },
    {
      "midi": 69,
      "hit": false,
      "t": 131509.12542187524,
      "d": 106.61759375000838,
      "v": 52
    },
    {
      "midi": 65,
      "hit": false,
      "t": 131510.96365625024,
      "d": 80.88231250000536,
      "v": 59
    },
    {
      "midi": 60,
      "hit": false,
      "t": 131520.15482812523,
      "d": 27.573515625001164,
      "v": 48
    },
    {
      "midi": 72,
      "hit": false,
      "t": 131849.19878125022,
      "d": 161.7646249999816,
      "v": 55
    },
    {
      "midi": 64,
      "hit": false,
      "t": 131856.5517187502,
      "d": 112.1322968750028,
      "v": 71
    },
    {
      "midi": 62,
      "hit": false,
      "t": 131860.2281875002,
      "d": 268.38221874999,
      "v": 72
    },
    {
      "midi": 69,
      "hit": false,
      "t": 131862.0664218752,
      "d": 152.57345312499092,
      "v": 49
    },
    {
      "midi": 67,
      "hit": false,
      "t": 131863.9046562502,
      "d": 82.72054687500349,
      "v": 42
    },
    {
      "midi": 71,
      "hit": false,
      "t": 131889.6399375002,
      "d": 121.32346874999348,
      "v": 32
    },
    {
      "midi": 60,
      "hit": false,
      "t": 132198.4633125002,
      "d": 281.24985937500605,
      "v": 56
    },
    {
      "midi": 74,
      "hit": false,
      "t": 132198.4633125002,
      "d": 321.6910156249942,
      "v": 63
    },
    {
      "midi": 69,
      "hit": false,
      "t": 132205.81625000018,
      "d": 305.14690625001094,
      "v": 61
    },
    {
      "midi": 65,
      "hit": false,
      "t": 132207.65448437518,
      "d": 294.1175000000221,
      "v": 58
    },
    {
      "midi": 60,
      "hit": false,
      "t": 132542.2131406252,
      "d": 55.14703125000233,
      "v": 54
    },
    {
      "midi": 76,
      "hit": false,
      "t": 132691.1101250002,
      "d": 215.0734218749858,
      "v": 66
    },
    {
      "midi": 67,
      "hit": false,
      "t": 132692.9483593752,
      "d": 202.20578124999884,
      "v": 66
    },
    {
      "midi": 71,
      "hit": false,
      "t": 132694.7865937502,
      "d": 213.23518749998766,
      "v": 70
    },
    {
      "midi": 59,
      "hit": false,
      "t": 132698.4630625002,
      "d": 211.39695312498952,
      "v": 54
    },
    {
      "midi": 71,
      "hit": false,
      "t": 133448.4626875002,
      "d": 382.3527499999909,
      "v": 60
    },
    {
      "midi": 76,
      "hit": false,
      "t": 133450.3009218752,
      "d": 136.02934374997858,
      "v": 64
    },
    {
      "midi": 59,
      "hit": false,
      "t": 133450.3009218752,
      "d": 216.91165624998393,
      "v": 45
    },
    {
      "midi": 67,
      "hit": false,
      "t": 133452.1391562502,
      "d": 211.39695312498952,
      "v": 67
    },
    {
      "midi": 62,
      "hit": false,
      "t": 133453.9773906252,
      "d": 231.61753124999814,
      "v": 55
    },
    {
      "midi": 55,
      "hit": false,
      "t": 133459.4920937502,
      "d": 272.05868750001537,
      "v": 45
    },
    {
      "midi": 76,
      "hit": false,
      "t": 133683.7566875002,
      "d": 141.5440468750021,
      "v": 57
    },
    {
      "midi": 71,
      "hit": false,
      "t": 133979.71242187519,
      "d": 99.26465624995762,
      "v": 60
    },
    {
      "midi": 67,
      "hit": false,
      "t": 133983.38889062518,
      "d": 58.8234999999695,
      "v": 60
    },
    {
      "midi": 76,
      "hit": false,
      "t": 133983.38889062518,
      "d": 108.45582812494831,
      "v": 59
    },
    {
      "midi": 62,
      "hit": false,
      "t": 133988.90359375018,
      "d": 23.897046874975786,
      "v": 56
    },
    {
      "midi": 57,
      "hit": false,
      "t": 133998.09476562517,
      "d": 31.24998437499744,
      "v": 46
    },
    {
      "midi": 52,
      "hit": false,
      "t": 134009.12417187516,
      "d": 42.27939062498626,
      "v": 24
    },
    {
      "midi": 39,
      "hit": false,
      "t": 134334.49165625012,
      "d": 207.72048437496414,
      "v": 59
    },
    {
      "midi": 77,
      "hit": false,
      "t": 134336.32989062511,
      "d": 292.2792656249658,
      "v": 68
    },
    {
      "midi": 54,
      "hit": false,
      "t": 134338.1681250001,
      "d": 284.9263281249732,
      "v": 53
    },
    {
      "midi": 70,
      "hit": false,
      "t": 134341.8445937501,
      "d": 386.0292187499581,
      "v": 62
    },
    {
      "midi": 73,
      "hit": false,
      "t": 134345.5210625001,
      "d": 380.5145156249637,
      "v": 49
    },
    {
      "midi": 65,
      "hit": false,
      "t": 134349.1975312501,
      "d": 312.4998437499744,
      "v": 54
    },
    {
      "midi": 76,
      "hit": false,
      "t": 134814.27082812507,
      "d": 202.20578124996973,
      "v": 56
    },
    {
      "midi": 70,
      "hit": false,
      "t": 134814.27082812507,
      "d": 222.42635937497835,
      "v": 60
    },
    {
      "midi": 64,
      "hit": false,
      "t": 134827.13846875005,
      "d": 159.92639062498347,
      "v": 51
    },
    {
      "midi": 60,
      "hit": false,
      "t": 134828.97670312505,
      "d": 42.27939062498626,
      "v": 43
    },
    {
      "midi": 54,
      "hit": false,
      "t": 134838.16787500004,
      "d": 90.07348437499604,
      "v": 35
    },
    {
      "midi": 73,
      "hit": false,
      "t": 134845.52081250004,
      "d": 154.41168749998906,
      "v": 21
    },
    {
      "midi": 74,
      "hit": false,
      "t": 135082.65304687506,
      "d": 170.9557968750014,
      "v": 55
    },
    {
      "midi": 64,
      "hit": false,
      "t": 135108.38832812506,
      "d": 56.985265625000466,
      "v": 18
    },
    {
      "midi": 46,
      "hit": false,
      "t": 135148.82948437505,
      "d": 27.573515625001164,
      "v": 25
    },
    {
      "midi": 72,
      "hit": false,
      "t": 135316.10881250005,
      "d": 64.33820312499302,
      "v": 53
    },
    {
      "midi": 62,
      "hit": false,
      "t": 135556.91751562504,
      "d": 84.55878125000163,
      "v": 33
    },
    {
      "midi": 67,
      "hit": false,
      "t": 135556.91751562504,
      "d": 365.8086406250077,
      "v": 38
    },
    {
      "midi": 71,
      "hit": false,
      "t": 135566.10868750003,
      "d": 748.1613906249986,
      "v": 39
    },
    {
      "midi": 72,
      "hit": false,
      "t": 135567.94692187503,
      "d": 49.632328125007916,
      "v": 34
    },
    {
      "midi": 62,
      "hit": false,
      "t": 135731.54978125004,
      "d": 75.36760937501094,
      "v": 49
    },
    {
      "midi": 60,
      "hit": false,
      "t": 135895.15264062505,
      "d": 147.0587499999965,
      "v": 32
    },
    {
      "midi": 67,
      "hit": false,
      "t": 136064.27020312505,
      "d": 170.9557968750014,
      "v": 53
    },
    {
      "midi": 62,
      "hit": false,
      "t": 136073.46137500004,
      "d": 231.61753124999814,
      "v": 42
    },
    {
      "midi": 59,
      "hit": false,
      "t": 136101.03489062504,
      "d": 251.83810937497765,
      "v": 24
    },
    {
      "midi": 55,
      "hit": false,
      "t": 136408.02003125002,
      "d": 101.10289062501397,
      "v": 43
    },
    {
      "midi": 50,
      "hit": false,
      "t": 136746.25515625006,
      "d": 314.3380781249725,
      "v": 29
    },
    {
      "midi": 62,
      "hit": false,
      "t": 136748.09339062506,
      "d": 91.91171874999418,
      "v": 42
    },
    {
      "midi": 59,
      "hit": false,
      "t": 136751.76985937505,
      "d": 84.55878125000163,
      "v": 30
    },
    {
      "midi": 60,
      "hit": false,
      "t": 136953.97564062505,
      "d": 220.5881249999802,
      "v": 56
    },
    {
      "midi": 57,
      "hit": false,
      "t": 136966.84328125004,
      "d": 170.9557968750014,
      "v": 45
    },
    {
      "midi": 44,
      "hit": false,
      "t": 136977.87268750003,
      "d": 251.83810937500675,
      "v": 25
    },
    {
      "midi": 54,
      "hit": false,
      "t": 136994.41679687504,
      "d": 189.33814062498277,
      "v": 25
    },
    {
      "midi": 59,
      "hit": false,
      "t": 137288.53429687503,
      "d": 240.80870312498882,
      "v": 41
    },
    {
      "midi": 55,
      "hit": false,
      "t": 137294.04900000003,
      "d": 176.4704999999958,
      "v": 38
    },
    {
      "midi": 53,
      "hit": false,
      "t": 137301.40193750002,
      "d": 534.9262031250109,
      "v": 25
    },
    {
      "midi": 43,
      "hit": false,
      "t": 137312.43134375,
      "d": 470.5880000000179,
      "v": 25
    },
    {
      "midi": 69,
      "hit": false,
      "t": 137843.68107812502,
      "d": 93.74995312499232,
      "v": 63
    },
    {
      "midi": 71,
      "hit": false,
      "t": 138093.680953125,
      "d": 147.0587499999965,
      "v": 69
    },
    {
      "midi": 72,
      "hit": false,
      "t": 138328.974953125,
      "d": 185.6616718749865,
      "v": 44
    },
    {
      "midi": 69,
      "hit": false,
      "t": 138340.004359375,
      "d": 314.3380781249725,
      "v": 38
    },
    {
      "midi": 60,
      "hit": false,
      "t": 138340.004359375,
      "d": 391.5439218749816,
      "v": 26
    },
    {
      "midi": 54,
      "hit": false,
      "t": 138341.84259374999,
      "d": 904.4113124999567,
      "v": 40
    },
    {
      "midi": 64,
      "hit": false,
      "t": 138345.51906249998,
      "d": 272.05868749998626,
      "v": 35
    },
    {
      "midi": 72,
      "hit": false,
      "t": 138582.65129687497,
      "d": 123.16170312499162,
      "v": 46
    },
    {
      "midi": 72,
      "hit": false,
      "t": 138856.54821874996,
      "d": 84.55878124997253,
      "v": 51
    },
    {
      "midi": 64,
      "hit": false,
      "t": 138860.22468749995,
      "d": 310.66160937497625,
      "v": 30
    },
    {
      "midi": 60,
      "hit": false,
      "t": 138873.09232812494,
      "d": 319.85278124999604,
      "v": 33
    },
    {
      "midi": 84,
      "hit": false,
      "t": 139106.54809374994,
      "d": 308.8233750000072,
      "v": 92
    },
    {
      "midi": 72,
      "hit": false,
      "t": 139362.06267187494,
      "d": 77.20584375000908,
      "v": 28
    },
    {
      "midi": 72,
      "hit": false,
      "t": 139588.16549999994,
      "d": 64.33820312499302,
      "v": 38
    },
    {
      "midi": 41,
      "hit": false,
      "t": 139786.69481249995,
      "d": 71.69114062501467,
      "v": 43
    },
    {
      "midi": 57,
      "hit": false,
      "t": 139806.91539062496,
      "d": 97.4264218750177,
      "v": 51
    },
    {
      "midi": 86,
      "hit": false,
      "t": 140034.856453125,
      "d": 176.4704999999958,
      "v": 79
    },
    {
      "midi": 79,
      "hit": false,
      "t": 140038.53292187498,
      "d": 170.9557968750014,
      "v": 75
    },
    {
      "midi": 83,
      "hit": false,
      "t": 140260.95928125,
      "d": 154.41168750001816,
      "v": 57
    },
    {
      "midi": 74,
      "hit": false,
      "t": 140275.66515625,
      "d": 101.10289062501397,
      "v": 37
    },
    {
      "midi": 64,
      "hit": false,
      "t": 140494.41504687502,
      "d": 86.39701562499977,
      "v": 48
    },
    {
      "midi": 60,
      "hit": false,
      "t": 140523.82679687502,
      "d": 68.01467187498929,
      "v": 24
    },
    {
      "midi": 57,
      "hit": false,
      "t": 140529.3415,
      "d": 60.66173437499674,
      "v": 28
    },
    {
      "midi": 91,
      "hit": false,
      "t": 141047.72359375,
      "d": 132.3528750000114,
      "v": 92
    },
    {
      "midi": 86,
      "hit": false,
      "t": 141051.4000625,
      "d": 102.94112500001211,
      "v": 94
    },
    {
      "midi": 40,
      "hit": false,
      "t": 141224.19409375003,
      "d": 110.29406250000466,
      "v": 35
    },
    {
      "midi": 47,
      "hit": false,
      "t": 141238.89996875005,
      "d": 130.51464062498417,
      "v": 31
    },
    {
      "midi": 86,
      "hit": false,
      "t": 141251.76760937503,
      "d": 191.17637500001,
      "v": 66
    },
    {
      "midi": 79,
      "hit": false,
      "t": 141253.60584375003,
      "d": 226.10282812500373,
      "v": 49
    },
    {
      "midi": 55,
      "hit": false,
      "t": 141255.44407812503,
      "d": 167.27932812500512,
      "v": 32
    },
    {
      "midi": 76,
      "hit": false,
      "t": 141770.14970312503,
      "d": 163.60285937497974,
      "v": 40
    },
    {
      "midi": 79,
      "hit": false,
      "t": 141770.14970312503,
      "d": 229.7792968749709,
      "v": 41
    },
    {
      "midi": 62,
      "hit": false,
      "t": 141775.66440625003,
      "d": 481.61740624994854,
      "v": 42
    },
    {
      "midi": 59,
      "hit": false,
      "t": 141794.04675,
      "d": 452.20565624997835,
      "v": 26
    },
    {
      "midi": 52,
      "hit": false,
      "t": 141795.884984375,
      "d": 430.1468437500007,
      "v": 27
    },
    {
      "midi": 55,
      "hit": false,
      "t": 141799.561453125,
      "d": 437.49978124999325,
      "v": 33
    },
    {
      "midi": 82,
      "hit": false,
      "t": 142284.85532812498,
      "d": 49.63232812497881,
      "v": 67
    },
    {
      "midi": 84,
      "hit": false,
      "t": 142323.45824999997,
      "d": 91.91171874999418,
      "v": 64
    },
    {
      "midi": 82,
      "hit": false,
      "t": 142396.98762499995,
      "d": 73.5293750000128,
      "v": 49
    },
    {
      "midi": 81,
      "hit": false,
      "t": 142465.00229687497,
      "d": 75.36760937498184,
      "v": 51
    },
    {
      "midi": 79,
      "hit": false,
      "t": 142591.84046874996,
      "d": 68.01467187498929,
      "v": 70
    },
    {
      "midi": 77,
      "hit": false,
      "t": 142759.11979687493,
      "d": 69.85290624998743,
      "v": 66
    },
    {
      "midi": 76,
      "hit": false,
      "t": 142915.36971874992,
      "d": 139.70581249997485,
      "v": 49
    },
    {
      "midi": 66,
      "hit": false,
      "t": 142922.7226562499,
      "d": 485.2938749999739,
      "v": 45
    },
    {
      "midi": 61,
      "hit": false,
      "t": 142935.5902968749,
      "d": 862.1319218749995,
      "v": 37
    },
    {
      "midi": 74,
      "hit": false,
      "t": 143090.0019843749,
      "d": 71.69114062498556,
      "v": 41
    },
    {
      "midi": 55,
      "hit": false,
      "t": 143237.06073437489,
      "d": 560.661484375014,
      "v": 1
    },
    {
      "midi": 73,
      "hit": false,
      "t": 143259.1195468749,
      "d": 106.61759375000838,
      "v": 46
    },
    {
      "midi": 76,
      "hit": false,
      "t": 143433.7518124999,
      "d": 141.5440468750021,
      "v": 45
    },
    {
      "midi": 73,
      "hit": false,
      "t": 143621.2517187499,
      "d": 90.07348437499604,
      "v": 30
    },
    {
      "midi": 74,
      "hit": false,
      "t": 143816.1045624999,
      "d": 101.10289062501397,
      "v": 49
    },
    {
      "midi": 64,
      "hit": false,
      "t": 143830.81043749992,
      "d": 362.1321718749823,
      "v": 36
    },
    {
      "midi": 74,
      "hit": false,
      "t": 143972.35448437493,
      "d": 292.2792656249949,
      "v": 51
    },
    {
      "midi": 65,
      "hit": false,
      "t": 143990.73682812494,
      "d": 130.51464062498417,
      "v": 34
    },
    {
      "midi": 69,
      "hit": false,
      "t": 144010.95740624995,
      "d": 110.29406249997555,
      "v": 35
    },
    {
      "midi": 76,
      "hit": false,
      "t": 144180.07496874992,
      "d": 93.74995312499232,
      "v": 43
    },
    {
      "midi": 65,
      "hit": false,
      "t": 144181.91320312492,
      "d": 75.36760937501094,
      "v": 40
    },
    {
      "midi": 62,
      "hit": false,
      "t": 144211.32495312492,
      "d": 86.39701562499977,
      "v": 25
    },
    {
      "midi": 61,
      "hit": false,
      "t": 144345.51606249993,
      "d": 172.79403124999953,
      "v": 36
    },
    {
      "midi": 77,
      "hit": false,
      "t": 144352.86899999992,
      "d": 176.4704999999958,
      "v": 65
    },
    {
      "midi": 79,
      "hit": false,
      "t": 144538.5306718749,
      "d": 90.07348437496694,
      "v": 47
    },
    {
      "midi": 60,
      "hit": false,
      "t": 144545.8836093749,
      "d": 213.23518749995856,
      "v": 32
    },
    {
      "midi": 76,
      "hit": false,
      "t": 144556.9130156249,
      "d": 77.20584374997998,
      "v": 29
    },
    {
      "midi": 72,
      "hit": false,
      "t": 144569.78065624987,
      "d": 71.69114062498556,
      "v": 27
    },
    {
      "midi": 50,
      "hit": false,
      "t": 144873.08932812486,
      "d": 1327.2052187498775,
      "v": 36
    },
    {
      "midi": 67,
      "hit": false,
      "t": 145055.07453124988,
      "d": 191.1763749999809,
      "v": 40
    },
    {
      "midi": 57,
      "hit": false,
      "t": 145056.91276562487,
      "d": 147.0587500000256,
      "v": 36
    },
    {
      "midi": 60,
      "hit": false,
      "t": 145062.42746874987,
      "d": 159.92639062501257,
      "v": 32
    },
    {
      "midi": 64,
      "hit": false,
      "t": 145064.26570312487,
      "d": 169.11756250000326,
      "v": 45
    },
    {
      "midi": 53,
      "hit": false,
      "t": 145084.48628124988,
      "d": 176.4704999999667,
      "v": 28
    },
    {
      "midi": 55,
      "hit": false,
      "t": 145104.70685937488,
      "d": 110.29406250000466,
      "v": 24
    },
    {
      "midi": 57,
      "hit": false,
      "t": 145290.36853124984,
      "d": 169.11756249997416,
      "v": 42
    },
    {
      "midi": 60,
      "hit": false,
      "t": 145299.55970312483,
      "d": 183.82343749998836,
      "v": 40
    },
    {
      "midi": 64,
      "hit": false,
      "t": 145301.39793749983,
      "d": 180.14696874999208,
      "v": 55
    },
    {
      "midi": 67,
      "hit": false,
      "t": 145303.23617187483,
      "d": 205.882249999966,
      "v": 44
    },
    {
      "midi": 55,
      "hit": false,
      "t": 145306.91264062483,
      "d": 141.5440468750021,
      "v": 45
    },
    {
      "midi": 53,
      "hit": false,
      "t": 145312.42734374982,
      "d": 183.82343749998836,
      "v": 13
    },
    {
      "midi": 67,
      "hit": false,
      "t": 145626.7654218748,
      "d": 207.72048437499325,
      "v": 61
    },
    {
      "midi": 57,
      "hit": false,
      "t": 145632.2801249998,
      "d": 143.38228124997113,
      "v": 57
    },
    {
      "midi": 60,
      "hit": false,
      "t": 145634.11835937478,
      "d": 165.44109374997788,
      "v": 60
    },
    {
      "midi": 64,
      "hit": false,
      "t": 145635.95659374978,
      "d": 193.01460937500815,
      "v": 67
    },
    {
      "midi": 55,
      "hit": false,
      "t": 145643.30953124978,
      "d": 137.86757812497672,
      "v": 53
    },
    {
      "midi": 53,
      "hit": false,
      "t": 145646.98599999977,
      "d": 167.27932812500512,
      "v": 34
    },
    {
      "midi": 57,
      "hit": false,
      "t": 145972.3534843748,
      "d": 176.4704999999667,
      "v": 64
    },
    {
      "midi": 64,
      "hit": false,
      "t": 145974.1917187498,
      "d": 205.882249999966,
      "v": 76
    },
    {
      "midi": 67,
      "hit": false,
      "t": 145974.1917187498,
      "d": 222.42635937494924,
      "v": 68
    },
    {
      "midi": 60,
      "hit": false,
      "t": 145976.0299531248,
      "d": 181.98520312496112,
      "v": 69
    },
    {
      "midi": 55,
      "hit": false,
      "t": 145988.89759374977,
      "d": 161.7646249999816,
      "v": 50
    },
    {
      "midi": 53,
      "hit": false,
      "t": 145990.73582812477,
      "d": 202.20578124996973,
      "v": 38
    },
    {
      "midi": 50,
      "hit": false,
      "t": 146321.61801562473,
      "d": 156.2499218750163,
      "v": 56
    },
    {
      "midi": 64,
      "hit": false,
      "t": 146321.61801562473,
      "d": 261.02928125002654,
      "v": 73
    },
    {
      "midi": 67,
      "hit": false,
      "t": 146321.61801562473,
      "d": 284.92632812503143,
      "v": 67
    },
    {
      "midi": 60,
      "hit": false,
      "t": 146327.13271874972,
      "d": 174.63226562502678,
      "v": 58
    },
    {
      "midi": 57,
      "hit": false,
      "t": 146328.97095312472,
      "d": 218.74989062504028,
      "v": 53
    },
    {
      "midi": 55,
      "hit": false,
      "t": 146343.67682812474,
      "d": 161.7646250000107,
      "v": 45
    },
    {
      "midi": 53,
      "hit": false,
      "t": 146347.35329687473,
      "d": 174.63226562502678,
      "v": 35
    },
    {
      "midi": 50,
      "hit": false,
      "t": 146648.82373437475,
      "d": 79.04407812500722,
      "v": 40
    },
    {
      "midi": 68,
      "hit": false,
      "t": 146834.48540624976,
      "d": 95.58818749996135,
      "v": 82
    },
    {
      "midi": 56,
      "hit": false,
      "t": 146849.19128124975,
      "d": 797.7937187499774,
      "v": 61
    },
    {
      "midi": 50,
      "hit": false,
      "t": 146851.02951562474,
      "d": 821.6907656249823,
      "v": 61
    },
    {
      "midi": 60,
      "hit": false,
      "t": 146858.38245312474,
      "d": 167.27932812497602,
      "v": 35
    },
    {
      "midi": 67,
      "hit": false,
      "t": 146942.9412343747,
      "d": 88.2352499999979,
      "v": 43
    },
    {
      "midi": 66,
      "hit": false,
      "t": 147023.82354687472,
      "d": 77.20584374997998,
      "v": 42
    },
    {
      "midi": 65,
      "hit": false,
      "t": 147071.6176406247,
      "d": 86.39701562499977,
      "v": 63
    },
    {
      "midi": 64,
      "hit": false,
      "t": 147154.3381874997,
      "d": 51.470562500006054,
      "v": 58
    },
    {
      "midi": 67,
      "hit": false,
      "t": 147231.5440312497,
      "d": 205.8822499999951,
      "v": 77
    },
    {
      "midi": 64,
      "hit": false,
      "t": 147455.8086249997,
      "d": 58.8234999999986,
      "v": 34
    },
    {
      "midi": 60,
      "hit": false,
      "t": 147463.1615624997,
      "d": 53.30879687500419,
      "v": 24
    },
    {
      "midi": 65,
      "hit": false,
      "t": 147549.5585781247,
      "d": 224.2645937500347,
      "v": 69
    },
    {
      "midi": 60,
      "hit": false,
      "t": 147738.89671874972,
      "d": 86.39701562502887,
      "v": 52
    },
    {
      "midi": 50,
      "hit": false,
      "t": 147753.60259374973,
      "d": 73.5293750000128,
      "v": 31
    },
    {
      "midi": 56,
      "hit": false,
      "t": 147880.44076562475,
      "d": 163.60285937500885,
      "v": 25
    },
    {
      "midi": 55,
      "hit": false,
      "t": 148062.42596874977,
      "d": 82.72054687500349,
      "v": 40
    },
    {
      "midi": 48,
      "hit": false,
      "t": 148093.67595312477,
      "d": 71.69114062501467,
      "v": 25
    },
    {
      "midi": 56,
      "hit": false,
      "t": 148192.94060937478,
      "d": 169.11756250000326,
      "v": 43
    },
    {
      "midi": 58,
      "hit": false,
      "t": 148198.45531249978,
      "d": 167.27932812500512,
      "v": 48
    },
    {
      "midi": 50,
      "hit": false,
      "t": 148203.97001562477,
      "d": 139.70581250000396,
      "v": 36
    },
    {
      "midi": 56,
      "hit": false,
      "t": 148437.42578124977,
      "d": 143.38228125000023,
      "v": 46
    },
    {
      "midi": 58,
      "hit": false,
      "t": 148442.94048437476,
      "d": 145.22051562499837,
      "v": 37
    },
    {
      "midi": 50,
      "hit": false,
      "t": 148455.80812499975,
      "d": 101.10289062501397,
      "v": 36
    },
    {
      "midi": 55,
      "hit": false,
      "t": 148768.30796874975,
      "d": 196.69107812500442,
      "v": 55
    },
    {
      "midi": 50,
      "hit": false,
      "t": 148795.88148437475,
      "d": 397.0586250000342,
      "v": 36
    },
    {
      "midi": 38,
      "hit": false,
      "t": 149113.89603124975,
      "d": 58.82350000002771,
      "v": 58
    },
    {
      "midi": 67,
      "hit": false,
      "t": 149617.57224999976,
      "d": 79.04407812497811,
      "v": 49
    },
    {
      "midi": 56,
      "hit": false,
      "t": 149619.41048437476,
      "d": 141.544046874973,
      "v": 57
    },
    {
      "midi": 81,
      "hit": false,
      "t": 149621.24871874976,
      "d": 110.29406249997555,
      "v": 59
    },
    {
      "midi": 62,
      "hit": false,
      "t": 149624.92518749976,
      "d": 101.10289062498487,
      "v": 55
    },
    {
      "midi": 86,
      "hit": false,
      "t": 149624.92518749976,
      "d": 117.6469999999681,
      "v": 61
    },
    {
      "midi": 74,
      "hit": false,
      "t": 149626.76342187476,
      "d": 90.07348437499604,
      "v": 56
    },
    {
      "midi": 66,
      "hit": false,
      "t": 149860.21918749972,
      "d": 104.77935937498114,
      "v": 65
    },
    {
      "midi": 55,
      "hit": false,
      "t": 149865.73389062472,
      "d": 71.69114062498556,
      "v": 54
    },
    {
      "midi": 76,
      "hit": false,
      "t": 149874.9250624997,
      "d": 60.66173437499674,
      "v": 63
    },
    {
      "midi": 61,
      "hit": false,
      "t": 149876.7632968747,
      "d": 152.57345312499092,
      "v": 42
    },
    {
      "midi": 83,
      "hit": false,
      "t": 149880.4397656247,
      "d": 60.66173437499674,
      "v": 61
    },
    {
      "midi": 88,
      "hit": false,
      "t": 149880.4397656247,
      "d": 68.01467187498929,
      "v": 57
    },
    {
      "midi": 65,
      "hit": false,
      "t": 150106.5425937497,
      "d": 113.97053124997183,
      "v": 64
    },
    {
      "midi": 54,
      "hit": false,
      "t": 150106.5425937497,
      "d": 172.79403124997043,
      "v": 67
    },
    {
      "midi": 77,
      "hit": false,
      "t": 150110.2190624997,
      "d": 91.91171874999418,
      "v": 65
    },
    {
      "midi": 89,
      "hit": false,
      "t": 150112.0572968747,
      "d": 119.48523437496624,
      "v": 66
    },
    {
      "midi": 84,
      "hit": false,
      "t": 150113.8955312497,
      "d": 95.58818749999045,
      "v": 70
    },
    {
      "midi": 60,
      "hit": false,
      "t": 150121.2484687497,
      "d": 99.26465624998673,
      "v": 45
    },
    {
      "midi": 53,
      "hit": false,
      "t": 150351.0277656247,
      "d": 251.83810937497765,
      "v": 74
    },
    {
      "midi": 64,
      "hit": false,
      "t": 150352.8659999997,
      "d": 202.20578124999884,
      "v": 74
    },
    {
      "midi": 59,
      "hit": false,
      "t": 150352.8659999997,
      "d": 211.39695312498952,
      "v": 68
    },
    {
      "midi": 91,
      "hit": false,
      "t": 150356.54246874969,
      "d": 174.63226562499767,
      "v": 74
    },
    {
      "midi": 86,
      "hit": false,
      "t": 150362.05717187468,
      "d": 191.17637500001,
      "v": 74
    },
    {
      "midi": 79,
      "hit": false,
      "t": 150362.05717187468,
      "d": 200.3675468750007,
      "v": 68
    },
    {
      "midi": 67,
      "hit": false,
      "t": 150919.04218749967,
      "d": 428.30860937497346,
      "v": 41
    },
    {
      "midi": 59,
      "hit": false,
      "t": 150926.39512499966,
      "d": 544.1173749999725,
      "v": 37
    },
    {
      "midi": 61,
      "hit": false,
      "t": 150930.07159374966,
      "d": 599.2644062499749,
      "v": 37
    },
    {
      "midi": 53,
      "hit": false,
      "t": 150937.42453124965,
      "d": 687.4996562499728,
      "v": 46
    },
    {
      "midi": 63,
      "hit": false,
      "t": 150937.42453124965,
      "d": 687.4996562499728,
      "v": 40
    },
    {
      "midi": 43,
      "hit": false,
      "t": 150950.29217187464,
      "d": 562.499718749983,
      "v": 34
    },
    {
      "midi": 43,
      "hit": false,
      "t": 151635.9535937496,
      "d": 205.882249999966,
      "v": 24
    },
    {
      "midi": 56,
      "hit": false,
      "t": 151755.4388281246,
      "d": 91.91171874996508,
      "v": 39
    },
    {
      "midi": 65,
      "hit": false,
      "t": 151762.7917656246,
      "d": 137.86757812497672,
      "v": 33
    },
    {
      "midi": 53,
      "hit": false,
      "t": 151771.9829374996,
      "d": 82.72054687497439,
      "v": 39
    },
    {
      "midi": 59,
      "hit": false,
      "t": 151784.85057812458,
      "d": 66.17643749999115,
      "v": 30
    },
    {
      "midi": 56,
      "hit": false,
      "t": 152084.48278124956,
      "d": 147.0587499999965,
      "v": 42
    },
    {
      "midi": 43,
      "hit": false,
      "t": 152091.83571874956,
      "d": 77.20584375000908,
      "v": 36
    },
    {
      "midi": 64,
      "hit": false,
      "t": 152106.54159374957,
      "d": 117.6469999999972,
      "v": 36
    },
    {
      "midi": 36,
      "hit": false,
      "t": 152444.77671874955,
      "d": 797.7937187500065,
      "v": 38
    },
    {
      "midi": 60,
      "hit": false,
      "t": 152681.90895312454,
      "d": 1266.5434843750554,
      "v": 20
    },
    {
      "midi": 52,
      "hit": false,
      "t": 152683.74718749954,
      "d": 1196.690578125068,
      "v": 20
    },
    {
      "midi": 55,
      "hit": false,
      "t": 152685.58542187454,
      "d": 1226.1023281250673,
      "v": 25
    },
    {
      "midi": 43,
      "hit": false,
      "t": 152994.40879687454,
      "d": 79.04407812500722,
      "v": 36
    },
    {
      "midi": 42,
      "hit": false,
      "t": 153003.59996874954,
      "d": 55.14703125000233,
      "v": 34
    },
    {
      "midi": 43,
      "hit": false,
      "t": 153185.58517187455,
      "d": 613.9702812500182,
      "v": 30
    },
    {
      "midi": 31,
      "hit": false,
      "t": 153496.24678124956,
      "d": 319.85278125002515,
      "v": 37
    },
    {
      "midi": 36,
      "hit": false,
      "t": 153863.8936562496,
      "d": 283.0880937500042,
      "v": 28
    },
    {
      "midi": 52,
      "hit": false,
      "t": 154088.1582499996,
      "d": 705.8819999999832,
      "v": 37
    },
    {
      "midi": 55,
      "hit": false,
      "t": 154106.5405937496,
      "d": 816.1760624999588,
      "v": 20
    },
    {
      "midi": 60,
      "hit": false,
      "t": 154174.5552656246,
      "d": 770.2202031249763,
      "v": 1
    },
    {
      "midi": 43,
      "hit": false,
      "t": 154398.8198593746,
      "d": 784.9260781249905,
      "v": 53
    },
    {
      "midi": 42,
      "hit": false,
      "t": 154402.4963281246,
      "d": 93.74995312499232,
      "v": 44
    },
    {
      "midi": 31,
      "hit": false,
      "t": 154760.9520312496,
      "d": 33.088218749995576,
      "v": 41
    },
    {
      "midi": 31,
      "hit": false,
      "t": 154911.68724999958,
      "d": 58.8234999999986,
      "v": 47
    },
    {
      "midi": 31,
      "hit": false,
      "t": 155101.0253906246,
      "d": 112.1322968750028,
      "v": 55
    },
    {
      "midi": 53,
      "hit": false,
      "t": 155290.3635312496,
      "d": 132.3528749999823,
      "v": 69
    },
    {
      "midi": 43,
      "hit": false,
      "t": 155295.8782343746,
      "d": 198.52931249997346,
      "v": 49
    },
    {
      "midi": 51,
      "hit": false,
      "t": 155391.4664218746,
      "d": 117.6469999999681,
      "v": 56
    },
    {
      "midi": 49,
      "hit": false,
      "t": 155501.76048437456,
      "d": 1704.0432656249905,
      "v": 71
    },
    {
      "midi": 43,
      "hit": false,
      "t": 155838.15737499954,
      "d": 205.88225000002421,
      "v": 35
    },
    {
      "midi": 42,
      "hit": false,
      "t": 155858.37795312455,
      "d": 79.04407812500722,
      "v": 38
    },
    {
      "midi": 43,
      "hit": false,
      "t": 156200.28954687456,
      "d": 577.2055937499972,
      "v": 38
    },
    {
      "midi": 31,
      "hit": false,
      "t": 156396.98062499956,
      "d": 44.117625000013504,
      "v": 29
    },
    {
      "midi": 31,
      "hit": false,
      "t": 156560.58348437457,
      "d": 38.60292187498999,
      "v": 44
    },
    {
      "midi": 36,
      "hit": false,
      "t": 156738.89221874956,
      "d": 518.3820937499986,
      "v": 50
    },
    {
      "midi": 42,
      "hit": false,
      "t": 157253.59784374957,
      "d": 55.14703125000233,
      "v": 40
    },
    {
      "midi": 53,
      "hit": false,
      "t": 157264.62724999955,
      "d": 268.38221874999,
      "v": 64
    },
    {
      "midi": 43,
      "hit": false,
      "t": 157264.62724999955,
      "d": 413.60273437498836,
      "v": 41
    },
    {
      "midi": 51,
      "hit": false,
      "t": 157494.40654687455,
      "d": 200.3675468750007,
      "v": 42
    },
    {
      "midi": 49,
      "hit": false,
      "t": 157623.08295312454,
      "d": 95.58818750001956,
      "v": 35
    },
    {
      "midi": 53,
      "hit": false,
      "t": 157768.30346874957,
      "d": 93.74995312502142,
      "v": 45
    },
    {
      "midi": 43,
      "hit": false,
      "t": 157784.84757812458,
      "d": 286.76456250002957,
      "v": 25
    },
    {
      "midi": 51,
      "hit": false,
      "t": 157863.8916562496,
      "d": 167.27932812500512,
      "v": 36
    },
    {
      "midi": 42,
      "hit": false,
      "t": 157942.9357343746,
      "d": 112.1322968750028,
      "v": 25
    },
    {
      "midi": 49,
      "hit": false,
      "t": 157964.9945468746,
      "d": 113.97053125000093,
      "v": 43
    },
    {
      "midi": 48,
      "hit": false,
      "t": 158095.5091874996,
      "d": 2088.2342499999795,
      "v": 42
    },
    {
      "midi": 36,
      "hit": false,
      "t": 158112.05329687463,
      "d": 998.1612656249781,
      "v": 28
    },
    {
      "midi": 43,
      "hit": false,
      "t": 158626.75892187463,
      "d": 220.5881249999802,
      "v": 35
    },
    {
      "midi": 42,
      "hit": false,
      "t": 158637.78832812462,
      "d": 23.89704687500489,
      "v": 33
    },
    {
      "midi": 42,
      "hit": false,
      "t": 158966.8322812496,
      "d": 110.29406250000466,
      "v": 39
    },
    {
      "midi": 43,
      "hit": false,
      "t": 158988.8910937496,
      "d": 393.38215624997974,
      "v": 43
    },
    {
      "midi": 31,
      "hit": false,
      "t": 159305.0674062496,
      "d": 80.88231249997625,
      "v": 40
    },
    {
      "midi": 36,
      "hit": false,
      "t": 159512.78789062458,
      "d": 1018.3818437499867,
      "v": 55
    },
    {
      "midi": 43,
      "hit": false,
      "t": 160040.3611562496,
      "d": 176.4704999999958,
      "v": 54
    },
    {
      "midi": 42,
      "hit": false,
      "t": 160049.55232812458,
      "d": 58.8234999999986,
      "v": 38
    },
    {
      "midi": 42,
      "hit": false,
      "t": 160385.9492187496,
      "d": 62.499968749965774,
      "v": 46
    },
    {
      "midi": 43,
      "hit": false,
      "t": 160398.81685937458,
      "d": 459.55859375,
      "v": 57
    },
    {
      "midi": 31,
      "hit": false,
      "t": 160746.24315624958,
      "d": 64.33820312499302,
      "v": 53
    },
    {
      "midi": 43,
      "hit": false,
      "t": 160942.93423437458,
      "d": 457.72035937503097,
      "v": 66
    },
    {
      "midi": 42,
      "hit": false,
      "t": 160966.8312812496,
      "d": 25.735281250003027,
      "v": 55
    },
    {
      "midi": 61,
      "hit": false,
      "t": 161483.37514062462,
      "d": 170.9557968750014,
      "v": 81
    },
    {
      "midi": 43,
      "hit": false,
      "t": 161492.5663124996,
      "d": 547.793843750027,
      "v": 38
    },
    {
      "midi": 56,
      "hit": false,
      "t": 161656.16917187462,
      "d": 161.7646250000107,
      "v": 35
    },
    {
      "midi": 55,
      "hit": false,
      "t": 161819.77203124962,
      "d": 82.72054687500349,
      "v": 53
    },
    {
      "midi": 60,
      "hit": false,
      "t": 161987.05135937463,
      "d": 301.47043749998556,
      "v": 48
    },
    {
      "midi": 55,
      "hit": false,
      "t": 162167.19832812462,
      "d": 115.80876562499907,
      "v": 45
    },
    {
      "midi": 43,
      "hit": false,
      "t": 162172.71303124962,
      "d": 329.04395312501583,
      "v": 42
    },
    {
      "midi": 53,
      "hit": false,
      "t": 162363.88940624963,
      "d": 136.02934375000768,
      "v": 24
    },
    {
      "midi": 51,
      "hit": false,
      "t": 162527.49226562463,
      "d": 108.45582812500652,
      "v": 39
    },
    {
      "midi": 53,
      "hit": false,
      "t": 162683.74218749965,
      "d": 172.79403124999953,
      "v": 59
    },
    {
      "midi": 43,
      "hit": false,
      "t": 162685.58042187465,
      "d": 591.9114687500114,
      "v": 43
    },
    {
      "midi": 48,
      "hit": false,
      "t": 162913.52148437465,
      "d": 75.36760937501094,
      "v": 22
    },
    {
      "midi": 31,
      "hit": false,
      "t": 163036.68318749967,
      "d": 93.74995312499232,
      "v": 41
    },
    {
      "midi": 51,
      "hit": false,
      "t": 163038.52142187467,
      "d": 272.05868749998626,
      "v": 52
    },
    {
      "midi": 31,
      "hit": false,
      "t": 163240.72720312467,
      "d": 275.73515624998254,
      "v": 36
    },
    {
      "midi": 43,
      "hit": false,
      "t": 163393.30065624966,
      "d": 56.985265625000466,
      "v": 36
    },
    {
      "midi": 50,
      "hit": false,
      "t": 163415.35946874967,
      "d": 180.14696874999208,
      "v": 42
    },
    {
      "midi": 48,
      "hit": false,
      "t": 163615.72701562467,
      "d": 119.48523437499534,
      "v": 59
    },
    {
      "midi": 36,
      "hit": false,
      "t": 163628.59465624965,
      "d": 204.04401562502608,
      "v": 45
    },
    {
      "midi": 24,
      "hit": false,
      "t": 163646.97699999966,
      "d": 167.27932812500512,
      "v": 33
    }
  ]
}